<?xml version="1.0" standalone="no"?>
<!DOCTYPE svg PUBLIC "-//W3C//DTD SVG 1.1//EN" "http://www.w3.org/Graphics/SVG/1.1/DTD/svg11.dtd" >
<svg xmlns="http://www.w3.org/2000/svg" xmlns:xlink="http://www.w3.org/1999/xlink" version="1.1">
<metadata>
Created by FontForge 20170731 at Sun Jul 23 21:16:47 2000
 By Aleksey,,,
Copyright (c) ShyFonts Type Foundry, 2000. All rights reserved.
</metadata>
<defs>
<font id="SFOrsonCasualShaded" horiz-adv-x="1493" >
  <font-face 
    font-family="SF Orson Casual Shaded"
    font-weight="400"
    font-stretch="normal"
    units-per-em="2048"
    panose-1="0 0 4 0 0 0 0 0 0 0"
    ascent="1638"
    descent="-410"
    x-height="1237"
    cap-height="1408"
    bbox="-146 -463 2249 1937"
    underline-thickness="20"
    underline-position="-163"
    unicode-range="U+0020-2122"
  />
<missing-glyph horiz-adv-x="1024" 
 />
    <glyph glyph-name=".notdef" horiz-adv-x="1024" 
 />
    <glyph glyph-name=".null" horiz-adv-x="0" 
 />
    <glyph glyph-name="nonmarkingreturn" horiz-adv-x="682" 
 />
    <glyph glyph-name="space" unicode=" " horiz-adv-x="896" 
 />
    <glyph glyph-name="exclam" unicode="!" horiz-adv-x="538" 
d="M362 1290q2 0 2 -1zM150 -29q-28 14 -46.5 42.5t-18.5 63.5q0 24 9.5 46t26 38t38.5 25.5t46 9.5q35 0 63.5 -18.5t42.5 -47.5l59 -58q16 -16 25 -37t9 -44t-9 -43.5t-24.5 -36.5t-36.5 -25t-44 -9t-44 9.5t-36 24.5zM150 294q-28 15 -46.5 43.5t-18.5 63.5v888
q0 24 9.5 45.5t26 38t38.5 26t46 9.5q35 0 63.5 -18.5t43.5 -48.5l50 -51l2 -1l6 -6q16 -15 25 -36t9 -44v-887q0 -23 -9 -44t-24.5 -37t-36.5 -25t-44 -9t-44 9.5t-36 25.5zM282 77q0 31 -23 54t-54 23t-54 -23t-23 -54t23 -54t54 -23t54 23t23 54zM282 1289
q0 15 -6.5 28.5t-17 24t-24.5 17t-29 6.5t-29 -6.5t-24.5 -17t-17 -24t-6.5 -28.5v-888q0 -31 23 -54t54 -23t54 23t23 54v888z" />
    <glyph glyph-name="quotedbl" unicode="&#x22;" horiz-adv-x="811" 
d="M635 1290q2 0 2 -1zM324 1096l46 -48v1t-1 1zM150 993q-28 16 -46.5 44.5t-18.5 63.5v188q0 24 9.5 45.5t26 38t38.5 26t46 9.5q35 0 63.5 -18.5t42.5 -48.5l47 -46q1 23 11.5 43.5t26.5 36t37 24.5t45 9q35 0 63.5 -18.5t43.5 -48.5l50 -51l2 -1l6 -6q16 -15 25.5 -36
t9.5 -44v-188q0 -23 -9.5 -43.5t-25 -36.5t-36.5 -25t-44 -9t-44 9.5t-36 24.5l-60 58q-5 3 -9.5 6.5t-9.5 7.5q-2 -22 -12 -41t-26 -33.5t-35.5 -23t-40.5 -8.5q-23 0 -44 9.5t-36 24.5zM282 1289q0 15 -6.5 28.5t-17 24t-24.5 17t-29 6.5t-29 -6.5t-24.5 -17t-17 -24
t-6.5 -28.5v-188q0 -31 23 -54t54 -23t54 23t23 54v188zM555 1289q0 15 -6.5 28.5t-17 24t-24.5 17t-29 6.5t-29 -6.5t-24.5 -17t-17 -24t-6.5 -28.5v-188q0 -31 23 -54t54 -23t54 23t23 54v188z" />
    <glyph glyph-name="numbersign" unicode="#" horiz-adv-x="1408" 
d="M671 802h15l2 22h-14zM1012 802h63q35 0 63.5 -18.5t42.5 -47.5l60 -58q15 -16 24.5 -37t9.5 -44t-9 -43.5t-25 -36.5t-36.5 -25t-43.5 -9h-176l-14 -155q-3 -22 -13.5 -42t-26.5 -35t-36.5 -24t-42.5 -9q-46 0 -79 33l-60 60q-28 13 -44.5 39t-16.5 58v14l5 61h-14
l-13 -155q-3 -22 -13.5 -42t-26.5 -35t-37 -24t-43 -9q-47 0 -78 33l-60 60q-28 13 -44.5 39t-16.5 58v14l5 61h-26q-23 0 -44 9.5t-36 24.5l-60 58q-28 16 -46.5 44.5t-18.5 63.5q0 24 9.5 46t26 38t38.5 25.5t46 9.5h140l1 22h-56q-23 0 -44 9.5t-36 24.5l-60 58
q-28 16 -46.5 44.5t-18.5 63.5q0 24 9.5 46t26 38t38.5 25.5t46 9.5h169l13 149q3 24 14.5 45t28.5 36.5t39 25t45 9.5q32 0 58.5 -18t40.5 -45l61 -60q14 -15 23.5 -34.5t9.5 -38.5v-12l-7 -57h15l14 149q3 24 14 45t28.5 36.5t39 25t44.5 9.5q32 0 58.5 -18t40.5 -45
l61 -60q14 -15 23.5 -34.5t9.5 -38.5v-12l-7 -57h34q35 0 63.5 -18.5t42.5 -47.5l60 -58q15 -16 24.5 -36.5t9.5 -43.5t-9 -44t-25 -37t-36.5 -25t-43.5 -9h-146zM725 759h-187l17 188h187zM1152 683q0 15 -6.5 28.5t-17 24t-24.5 17t-29 6.5h-196l17 188h179q31 0 54 23
t23 54t-23 54t-54 23h-167l17 188v5q1 13 -4.5 26t-15 23t-22.5 16t-28 6q-31 0 -55.5 -23t-28.5 -53l-17 -188h-187l17 188v5q0 13 -5 26t-15 23t-22.5 16t-27.5 6t-29.5 -6.5t-26 -17t-19.5 -24t-9 -28.5l-17 -188h-208q-31 0 -54 -23t-23 -54t23 -54t54 -23h196l-17 -188
h-179q-15 0 -29 -6.5t-24.5 -17t-17 -24t-6.5 -28.5q0 -31 23 -54t54 -23h165l-17 -188v-7q-1 -29 20 -49.5t52 -20.5t54.5 23t27.5 54l17 188h188l-17 -188v-7q-2 -29 19.5 -49.5t51.5 -20.5q31 0 55 23t27 54l17 188h210q31 0 54 23t23 54z" />
    <glyph glyph-name="dollar" unicode="$" horiz-adv-x="1142" 
d="M717 1031q-4 3 -10 7v-287q72 -40 126 -106q2 -2 2.5 -4t2.5 -4l46 -45q8 -8 15.5 -17.5t15.5 -18.5q46 -57 70 -122t24 -139q0 -73 -24 -139t-70 -124q-84 -103 -208 -140v-69q0 -23 -9.5 -44t-25 -37t-36.5 -25t-44 -9q-51 0 -78 29l-62 62q-64 28 -66 134
q-11 5 -20 11.5t-18 11.5q-17 11 -31 22t-27 24l-41 41q-38 27 -65.5 59.5t-45.5 69.5q-8 16 -10.5 29t-2.5 26q0 24 9 46t25 38t37.5 25.5t45.5 9.5q21 0 37.5 -7t30.5 -18t25.5 -25t22.5 -28l29 -27v293q-24 13 -45.5 30.5t-41.5 37.5l-41 40q-22 17 -41 35.5t-37 41.5
q-96 119 -96 266q0 146 96 266q40 51 91.5 85.5t114.5 54.5v68q0 24 9.5 46t26 38.5t38.5 26t46 9.5q35 0 63.5 -19t42.5 -48l59 -58q16 -15 25.5 -36t9.5 -44v-17q87 -42 138 -111l46 -46q40 -42 65 -94q6 -16 9.5 -28t3.5 -25q0 -23 -9 -43.5t-24 -36.5t-35.5 -25
t-43.5 -9q-29 0 -48.5 11t-35.5 26zM732 381q0 -70 -42 -130q-40 -60 -106 -84v425q65 -24 106 -83q42 -59 42 -128zM430 773q-65 24 -107 83q-41 59 -41 129t41 129q42 60 107 84v-425zM886 381q0 132 -86 238q-86 105 -216 132v447q54 -19 88 -58q11 -13 21.5 -26
t21.5 -26q23 -26 56 -26q31 0 53.5 23t22.5 53q0 14 -11 38q-65 141 -252 181v102q0 31 -23 54t-54 23t-54 -23t-23 -54v-102q-133 -29 -217 -134q-85 -104 -85 -238t85 -238t217 -133v-447q-55 19 -89 58q-10 13 -21 26l-22 26q-23 27 -56 27q-30 0 -52.5 -23t-22.5 -54
q0 -17 10 -38q32 -67 106 -117q69 -47 147 -63l-2 -60q0 -118 79 -118q31 0 54 23t23 54v101q130 27 216 132q86 107 86 240z" />
    <glyph glyph-name="percent" unicode="%" horiz-adv-x="1534" 
d="M649 1007q0 18 -5 35.5t-13 34.5q-14 5 -29 8.5t-30 3.5q-67 0 -118 -51q-24 -25 -37 -54t-13 -62q0 -17 2 -32.5t9 -29.5q30 -15 71 -15q65 0 113 48q50 50 50 114zM1082 358q0 18 -4.5 35.5t-12.5 34.5q-14 5 -29 8.5t-31 3.5q-66 0 -118 -51q-49 -49 -49 -116
q0 -18 2 -32.5t8 -28.5q31 -16 72 -16q65 0 113 48q49 49 49 114zM1055 737q41 -15 78 -38.5t70 -56.5q24 -26 45 -51l37 -38q116 -116 116 -280t-116 -280t-280 -116q-167 0 -281 116l-38 38q-28 17 -51 44q-20 20 -36 41t-29 43l-193 -229q-18 -22 -39 -31.5t-50 -9.5
q-46 0 -78 32l-60 60q-29 14 -47 43t-18 65q0 22 6 40t22 35l320 384q-75 28 -141 94l-36 36q-14 10 -27 21.5t-26 24.5q-118 118 -118 283t118 283t283 118q81 0 149.5 -28.5t125.5 -84.5v2q12 -13 23 -25.5t20 -25.5l48 -46q18 -20 33 -39t28 -41l198 233q20 23 41.5 33
t50.5 10q35 0 62.5 -18t41.5 -47l60 -58q16 -15 25 -36t9 -46q0 -20 -5.5 -38t-19.5 -33zM1125 358q0 -83 -61 -144q-60 -60 -144 -60t-145 60q-60 61 -60 144q0 84 60 144q61 61 145 61t144 -61q61 -60 61 -144zM691 1007q0 -84 -61 -145q-60 -60 -144 -60q-83 0 -144 60
q-60 61 -60 145t60 144q61 61 144 61q84 0 144 -61q61 -60 61 -144zM1278 358q0 147 -106 253q-105 106 -252 106q-53 0 -101 -14l442 526q17 20 17 48q0 32 -21 54t-54 22q-38 0 -60 -27l-300 -357q1 10 1.5 19t0.5 17q0 146 -105 253t-254 107q-146 0 -252 -106
q-106 -105 -106 -252t106 -253q106 -105 252 -105q54 0 99 13l-440 -525q-17 -22 -17 -48q0 -33 21.5 -55t53.5 -22q37 0 60 27l300 359q-1 -10 -1.5 -19t-0.5 -17q0 -150 105 -256t254 -106q147 0 252 106q106 106 106 252z" />
    <glyph glyph-name="ampersand" unicode="&#x26;" horiz-adv-x="1154" 
d="M908 1290q2 0 2 -1zM978 370q2 0 2 -1zM404 341q0 -29 5.5 -56t18.5 -51q53 -38 127 -38q68 0 146 57v116q0 24 9.5 45.5t26 38t38.5 26t46 9.5q35 0 63.5 -18.5t43.5 -47.5l50 -52l2 -1l6 -5q16 -16 25.5 -37t9.5 -44v-292q0 -23 -9.5 -43.5t-25 -36.5t-36.5 -25t-44 -9
q-48 0 -78 31l-9 8q-44 -19 -88.5 -29t-90.5 -10q-188 0 -326 132l-43 40q-11 9 -22.5 19.5t-23.5 21.5q-140 136 -140 326q0 243 191 376q-97 103 -97 246q0 77 27.5 141t85.5 120q58 55 122.5 82t140.5 27q49 0 124 -26q34 26 72 26q35 0 63.5 -18.5t43.5 -48.5l50 -51
l2 -1l6 -6q16 -15 25.5 -36t9.5 -44v-261q0 -23 -9.5 -43.5t-25 -36.5t-36.5 -25t-44 -9t-43.5 9t-36.5 25l-60 58q-28 15 -46.5 43.5t-18.5 63.5v62q-24 -3 -47 -14t-43 -31q-43 -43 -43 -97q0 -11 0.5 -21.5t4.5 -19.5q23 -10 52 -10h85q35 0 63.5 -18.5t42.5 -48.5
l54 -54h-1v2l7 -6q15 -15 24.5 -36t9.5 -44t-9.5 -43.5t-25 -36.5t-36.5 -25t-44 -9h-85q-94 0 -166 -72q-70 -70 -70 -164zM898 369q0 15 -6.5 28.5t-17 24t-24.5 17t-29 6.5t-29 -6.5t-24.5 -17t-17 -24t-6.5 -28.5v-135q-103 -80 -189 -80q-111 0 -192 81t-81 192t81 192
t192 81h85q31 0 54 23t23 54q0 15 -6.5 28.5t-17 24t-24.5 17t-29 6.5h-85q-74 0 -127 53t-53 127q0 71 54 125t126 54q60 0 119 -48v-137q0 -15 6.5 -29t17 -24.5t24.5 -16.5t29 -6t29 6t24.5 16.5t17 24.5t6.5 29v262q0 15 -6.5 28.5t-17 24t-24.5 17t-29 6.5
q-38 0 -62 -30q-77 30 -134 30q-136 0 -234 -97q-99 -98 -99 -230q0 -157 123 -253q-217 -118 -217 -369q0 -173 127 -294q128 -122 300 -122q100 0 194 49q21 -49 72 -49q31 0 54 23t23 54v292z" />
    <glyph glyph-name="quotesingle" unicode="'" horiz-adv-x="538" 
d="M150 993q-28 16 -46.5 44.5t-18.5 63.5v188q0 24 9.5 45.5t26 38t38.5 26t46 9.5q35 0 63.5 -18.5t42.5 -48.5l59 -58q16 -15 25 -36t9 -44v-188q0 -23 -9 -43.5t-24.5 -36.5t-36.5 -25t-44 -9t-44 9.5t-36 24.5zM282 1289q0 15 -6.5 28.5t-17 24t-24.5 17t-29 6.5
t-29 -6.5t-24.5 -17t-17 -24t-6.5 -28.5v-188q0 -31 23 -54t54 -23t54 23t23 54v188z" />
    <glyph glyph-name="parenleft" unicode="(" horiz-adv-x="759" 
d="M375 -198q-27 15 -51 48q-239 326 -239 833q0 264 60 470.5t181 363.5q47 62 102 62q34 0 61.5 -17.5t41.5 -45.5l1 -2l60 -58q16 -16 25 -37.5t9 -44.5q0 -35 -46 -118q-8 -13 -14.5 -24.5t-14.5 -24.5t-15 -25t-14 -23h2q-120 -228 -120 -562q0 -344 115 -561l2 -2
q14 -24 29 -48.5t30 -48.5q23 -38 34.5 -67.5t11.5 -46.5q0 -23 -9 -44t-25 -37t-36.5 -25t-43.5 -9q-43 0 -79 36zM503 -92q0 25 -40 95q-16 24 -31 48.5t-29 49.5q-121 226 -121 582q0 342 122 578q14 25 29 49.5t30 49.5q40 73 40 99q0 31 -22 54t-53 23q-35 0 -70 -44
q-230 -302 -230 -809q0 -491 230 -808q33 -44 69 -44q15 0 28.5 6.5t24 17t17 24.5t6.5 29z" />
    <glyph glyph-name="parenright" unicode=")" horiz-adv-x="759" 
d="M150 -198q-28 14 -46.5 42.5t-18.5 63.5q0 38 46 118q16 24 36 57t34 57v-2q53 109 79.5 244t26.5 301q0 335 -119 561q-5 7 -9 14t-8 15l1 -2q-2 5 -4.5 9t-5.5 9q-2 4 -5.5 8t-6.5 9q-4 6 -10 17t-10 20q-23 42 -34 70t-11 46q0 24 9.5 46t25.5 38.5t37.5 26t45.5 9.5
q57 0 102 -62q3 -4 5.5 -7.5t6.5 -7.5l50 -50q5 -5 10 -11t10 -13q239 -310 239 -831q0 -503 -239 -829q-23 -29 -46.5 -44.5t-50.5 -15.5q-23 0 -44 9.5t-36 24.5zM503 683q0 507 -230 809q-35 44 -70 44q-31 0 -53 -23t-22 -54q0 -25 41 -99q14 -25 29 -49.5t29 -49.5
q123 -236 123 -578q0 -356 -121 -582q-14 -25 -29 -49.5t-31 -48.5q-41 -71 -41 -95q0 -31 23 -54t54 -23q36 0 68 44q230 317 230 808z" />
    <glyph glyph-name="asterisk" unicode="*" horiz-adv-x="995" 
d="M602 1282q3 -4 6.5 -8t5.5 -8q22 11 46 11q35 0 64 -19t44 -48l53 -55h-1t-1 2l7 -5q17 -17 26.5 -38t9.5 -46q0 -71 -62 -97l-35 -15l2 -4t3 -5l65 -63q27 -29 27 -77q0 -24 -9.5 -45t-25 -36.5t-36.5 -25t-45 -9.5q-17 0 -31 4t-27 15l-63 46q4 -40 6 -61.5t2 -25.5
q0 -23 -9.5 -42.5t-25.5 -34.5t-36.5 -23.5t-42.5 -8.5q-48 0 -82 36l-58 58q-32 15 -50 44q-17 -7 -37 -7q-25 0 -46 9.5t-36 24.5l-60 60q-29 16 -47 44.5t-18 63.5q0 75 65 104l34 13l-44 45q-55 31 -55 100q0 25 9.5 47.5t26 39t39 26t47.5 9.5q34 0 61 -21l53 -41
q-4 38 -5.5 57t-1.5 22q0 24 10 44.5t26.5 36t38 24.5t44.5 9q34 0 64 -18.5t44 -48.5zM739 893q0 49 -38 64l-165 67l165 67q38 15 38 63q0 32 -23 56t-56 24q-20 0 -35 -12l-132 -99q8 82 12.5 125t4.5 47q0 29 -23.5 49.5t-53.5 20.5q-15 0 -28.5 -5.5t-24 -15.5
t-17 -22.5t-6.5 -27.5q0 -4 4.5 -46.5t12.5 -124.5l-132 99q-15 12 -35 12q-33 0 -56 -23t-23 -56q0 -49 38 -64l165 -67l-165 -67q-38 -15 -38 -64q0 -33 23 -56t56 -23q20 0 35 12l132 99q-8 -82 -12.5 -124.5t-4.5 -46.5q0 -15 6.5 -27.5t17 -22.5t24 -15.5t28.5 -5.5
t29 5.5t24.5 15.5t17 22.5t6.5 27.5q0 4 -4.5 46.5t-12.5 124.5l132 -99q15 -12 35 -12q33 0 56 23t23 56z" />
    <glyph glyph-name="plus" unicode="+" horiz-adv-x="1067" 
d="M891 684q2 0 2 -1zM669 802h65q35 0 63.5 -18.5t43.5 -47.5l50 -52l2 -1l6 -5q16 -16 25.5 -37t9.5 -44t-9.5 -43.5t-25 -36.5t-36.5 -25t-44 -9h-150v-150q0 -23 -9 -44t-25 -37t-36.5 -25t-43.5 -9t-44 9.5t-37 25.5l-59 58q-29 15 -47 43.5t-18 63.5v65h-60
q-23 0 -44 9.5t-36 24.5l-60 58q-28 16 -46.5 44.5t-18.5 63.5q0 24 9.5 46t26 38t38.5 25.5t46 9.5h145v145q0 24 9.5 46t25.5 38.5t38 26t46 9.5q35 0 63.5 -19t42.5 -48l55 -55h-1t-1 2l7 -5q15 -15 24.5 -36t9.5 -44v-60zM811 683q0 15 -6.5 28.5t-17 24t-24.5 17
t-29 6.5h-188v188q0 31 -23 54t-54 23q-15 0 -29 -6.5t-24.5 -17t-16.5 -24.5t-6 -29v-188h-188q-15 0 -29 -6.5t-24.5 -17t-17 -24t-6.5 -28.5q0 -31 23 -54t54 -23h188v-188q0 -15 6 -29t16.5 -24.5t24.5 -17t29 -6.5q31 0 54 23t23 54v188h188q31 0 54 23t23 54z" />
    <glyph glyph-name="comma" unicode="," horiz-adv-x="538" 
d="M150 -198q-28 14 -46.5 42.5t-18.5 63.5v186q0 24 9.5 46t26 38t38.5 25.5t46 9.5q35 0 63.5 -18.5t42.5 -47.5l59 -58q16 -16 25 -36.5t9 -43.5v-186q0 -23 -9 -44t-24.5 -37t-36.5 -25t-44 -9t-44 9.5t-36 24.5zM282 94q0 31 -23 54t-54 23t-54 -23t-23 -54v-186
q0 -31 23 -54t54 -23t54 23t23 54v186z" />
    <glyph glyph-name="hyphen" unicode="-" horiz-adv-x="1067" 
d="M891 684q2 0 2 -1zM150 575q-28 16 -46.5 44.5t-18.5 63.5q0 24 9.5 46t26 38t38.5 25.5t46 9.5h529q35 0 63.5 -18.5t43.5 -47.5l50 -52l2 -1l6 -5q16 -16 25.5 -37t9.5 -44t-9.5 -43.5t-25 -36.5t-36.5 -25t-44 -9h-529q-23 0 -44 9.5t-36 24.5zM811 683
q0 15 -6.5 28.5t-17 24t-24.5 17t-29 6.5h-529q-15 0 -29 -6.5t-24.5 -17t-17 -24t-6.5 -28.5q0 -31 23 -54t54 -23h529q31 0 54 23t23 54z" />
    <glyph glyph-name="period" unicode="." horiz-adv-x="538" 
d="M362 79q2 0 2 -2zM150 -29q-28 14 -46.5 42.5t-18.5 63.5q0 24 9.5 46t26 38t38.5 25.5t46 9.5q35 0 63.5 -18.5t43.5 -47.5l50 -51l2 -2l6 -5q16 -16 25 -37t9 -44t-9 -43.5t-24.5 -36.5t-36.5 -25t-44 -9t-44 9.5t-36 24.5zM282 77q0 31 -23 54t-54 23t-54 -23t-23 -54
t23 -54t54 -23t54 23t23 54z" />
    <glyph glyph-name="slash" unicode="/" horiz-adv-x="691" 
d="M601 1444q1 0 1 -2zM65 -181q-29 14 -47 42.5t-18 63.5v11t2 13l324 1520q11 45 40.5 69t77.5 24q35 0 63.5 -19t43.5 -48l50 -51l1 -2l7 -5q16 -15 25 -36t9 -44q0 -7 -0.5 -12.5t-2.5 -11.5h2l-325 -1517q-18 -91 -112 -91q-23 0 -44 9.5t-36 24.5zM521 1442
q0 15 -6.5 29t-17 24.5t-24.5 17t-29 6.5q-61 0 -75 -62l-325 -1517q-1 -5 -1 -15q0 -15 6 -29t16.5 -24.5t24.5 -17t29 -6.5q62 0 76 62l324 1517q2 10 2 15z" />
    <glyph glyph-name="zero" unicode="0" horiz-adv-x="1749" 
d="M1297 683q0 88 -30 166.5t-89 145.5q-62 46 -132 70t-150 24q-199 0 -346 -147q-146 -145 -146 -345q0 -158 89 -283q138 -118 318 -118q197 0 341 144q145 143 145 343zM365 111q-36 25 -66 60q-214 213 -214 512q0 298 214 512q213 213 512 213q298 0 512 -213
q17 -17 31 -34t28 -35l23 -20q211 -212 211 -509t-211 -508q-212 -212 -509 -212t-509 212zM1340 683q0 -217 -157 -373q-156 -156 -372 -156q-217 0 -373 156t-156 373q0 216 156 372q156 157 373 157q216 0 372 -157q157 -156 157 -372zM1493 683q0 280 -201 481t-481 201
t-482 -201q-201 -201 -201 -481t201 -482q202 -201 482 -201t481 201q201 202 201 482z" />
    <glyph glyph-name="one" unicode="1" horiz-adv-x="623" 
d="M193 -29q-29 14 -47 42.5t-18 63.5v1212q0 24 9.5 45.5t26 38t38 26t45.5 9.5q35 0 63.5 -18.5t42.5 -48.5l60 -58q15 -15 24.5 -36t9.5 -44v-1212q0 -23 -9 -43.5t-25 -36.5t-36.5 -25t-43.5 -9t-44 9.5t-36 24.5zM324 1289q0 15 -6.5 28.5t-17 24t-24.5 17t-29 6.5
t-29 -6.5t-24.5 -17t-16.5 -24t-6 -28.5v-1212q0 -15 6 -29t16.5 -24.5t24.5 -17t29 -6.5q31 0 54 23t23 54v1212z" />
    <glyph glyph-name="two" unicode="2" horiz-adv-x="1273" 
d="M674 196h224q35 0 63.5 -18.5t42.5 -47.5l54 -55h-1t-1 2l7 -5q16 -16 25 -37t9 -44t-9 -43.5t-25 -36.5t-36.5 -25t-43.5 -9h-659q-23 0 -43.5 9.5t-36.5 24.5l-60 60q-28 14 -46.5 42.5t-18.5 63.5q0 49 43 92v-2l534 586q42 45 62 90t20 89q0 33 -7.5 63t-24.5 56
q-66 38 -155 38q-79 0 -168 -63q-106 -77 -135 -77q-23 0 -43 8.5t-35 23.5l-62 60q-28 16 -45.5 44.5t-17.5 63.5q0 32 20 65.5t62 67.5q78 63 161 94.5t177 31.5q211 0 357 -128q19 -18 35.5 -36t30.5 -37l40 -38q129 -129 129 -322q0 -173 -148 -342zM975 77
q0 15 -6.5 29t-17 24.5t-24.5 17t-29 6.5h-471l409 462q139 154 139 316q0 193 -140 316q-135 117 -330 117q-170 0 -310 -116q-67 -54 -67 -100q0 -31 22 -54t53 -23q18 0 113 70q97 70 189 70q131 0 220 -74q96 -78 96 -206q0 -107 -94 -208l-543 -594q-22 -23 -22 -53
q0 -31 23 -54t54 -23h659q15 0 29 6.5t24.5 17t17 24.5t6.5 29z" />
    <glyph glyph-name="three" unicode="3" horiz-adv-x="1154" 
d="M821 1205q106 -103 106 -253q0 -140 -91 -239l16 -20l47 -46q122 -120 122 -316q0 -188 -140 -322q-137 -132 -325 -132q-162 0 -305 114q-8 7 -15.5 13.5t-13.5 12.5l-43 41q-4 4 -8.5 7.5t-8.5 7.5q-40 30 -58.5 61.5t-18.5 63.5q0 25 9.5 47t25.5 38.5t37.5 26
t45.5 9.5q16 0 47.5 -17t82.5 -53q37 -26 71.5 -39.5t66.5 -13.5q45 0 86 17.5t74 51.5q35 35 52.5 76t17.5 86q0 62 -37 121q-50 29 -108 29h-85q-23 0 -44 9.5t-36 24.5l-60 58q-28 15 -46.5 44t-18.5 64q0 24 9.5 45.5t26 38t38.5 26t46 9.5h85q27 0 52 11t44 29.5
t30 43.5t11 53q0 23 -11 47q-10 4 -20 6.5t-21 2.5q-22 0 -44.5 -10t-48.5 -29q-35 -26 -60 -39t-43 -13q-47 0 -78 33l-62 61q-28 16 -45.5 43.5t-17.5 62.5q0 96 128 162q49 23 94.5 35.5t91.5 12.5q76 0 140.5 -27t122.5 -82q14 -14 26.5 -28.5t22.5 -29.5zM898 416
q0 251 -217 369q123 96 123 253q0 132 -99 230q-98 97 -234 97q-77 0 -167 -44q-104 -53 -104 -123q0 -31 22 -54t53 -23q22 0 81 45q58 46 115 46q72 0 125 -54q54 -54 54 -125q0 -74 -53 -127t-126 -53h-85q-15 0 -29 -6.5t-24.5 -17t-17 -24t-6.5 -28.5q0 -31 23 -54
t54 -23h85q111 0 192 -81t81 -192t-81 -192t-192 -81q-78 0 -164 61t-104 61q-31 0 -53 -23t-22 -55q0 -43 61 -92q131 -106 282 -106q171 0 299 122t128 294z" />
    <glyph glyph-name="four" unicode="4" horiz-adv-x="1374" 
d="M558 631h321v658q0 24 9.5 45.5t26 38t38 26t45.5 9.5q35 0 63.5 -18.5t42.5 -48.5l60 -58q15 -15 24.5 -36t9.5 -44v-1212q0 -23 -9 -43.5t-25 -36.5t-36.5 -25t-43.5 -9t-44 9.5t-36 24.5l-60 60q-29 14 -47 42.5t-18 63.5v235h-589q-23 0 -44 9.5t-36 24.5l-60 58
q-28 16 -46.5 44.5t-18.5 63.5q0 37 24 75l389 597q20 26 44 39.5t57 13.5t61.5 -19.5t42.5 -48.5l58 -56q17 -17 26.5 -38t9.5 -44q0 -17 -4 -32.5t-15 -29.5h-1zM1075 1289q0 15 -6.5 28.5t-17 24t-24.5 17t-29 6.5t-29 -6.5t-24.5 -17t-16.5 -24t-6 -28.5v-700h-576
l316 488q12 19 12 39q0 31 -22 55t-53 24q-43 0 -65 -34l-387 -598q-19 -28 -19 -51q0 -31 23 -54t54 -23h717v-358q0 -15 6 -29t16.5 -24.5t24.5 -17t29 -6.5q31 0 54 23t23 54v1212z" />
    <glyph glyph-name="five" unicode="5" horiz-adv-x="1376" 
d="M1075 817q-1 0 -3 4zM444 1039q78 28 165 28q115 0 211 -41t178 -123q14 -14 27 -29t25 -31l30 -29q162 -161 162 -387q0 -230 -160 -389q-160 -161 -387 -161q-197 0 -366 138q-8 7 -15 13t-14 13l-42 43q-5 2 -9 5.5t-8 7.5q-84 68 -84 132q0 24 9.5 46t26 38t38 25.5
t45.5 9.5q21 0 41.5 -8t42.5 -26q11 -11 21 -21.5t22 -21.5q83 -75 206 -75q63 0 118.5 24t101.5 70q94 94 94 222q0 51 -16 98.5t-47 89.5q-77 48 -167 48q-197 0 -266 -135h-2q-9 -21 -18 -42.5t-18 -41.5q-35 -68 -101 -68q-24 0 -44 8.5t-36 23.5l-61 60
q-29 14 -45.5 41.5t-16.5 62.5v12l60 623q3 24 13 45t26 36.5t37 25t44 9.5h607q35 0 63.5 -18.5t42.5 -48.5l60 -58q15 -15 24.5 -36t9.5 -44t-9.5 -43.5t-25 -36.5t-36.5 -25t-44 -9h-508zM1120 512q0 208 -152 360t-359 152q-174 0 -312 -114l34 302h541q31 0 54 23
t23 54q0 15 -6.5 28.5t-17 24t-24.5 17t-29 6.5h-607q-29 0 -51.5 -23t-25.5 -53l-60 -623q-3 -35 19 -58.5t56 -23.5q42 0 68 47q19 40 36 84q80 155 301 155q146 0 252 -106q106 -105 106 -252t-105 -253q-105 -105 -252 -105q-141 0 -235 87q-11 10 -21.5 20.5
l-21.5 21.5q-26 22 -55 22q-15 0 -29 -6.5t-24.5 -17t-16.5 -24t-6 -28.5q0 -43 68 -99q158 -130 341 -130q210 0 360 151q151 151 151 361z" />
    <glyph glyph-name="six" unicode="6" horiz-adv-x="1408" 
d="M879 1290q2 0 2 -1zM956 512q0 51 -16 98.5t-47 89.5q-78 48 -168 48q-129 0 -225 -96t-96 -225q0 -93 48 -168q42 -32 89.5 -47.5t98.5 -15.5q63 0 119 24t103 70q46 47 70 103t24 119zM817 1036q120 -39 221 -138q13 -13 24 -26.5t22 -26.5l36 -36q155 -161 155 -382
q0 -229 -161 -389q-160 -161 -389 -161q-228 0 -389 161l-31 29q-15 11 -29.5 24.5t-28.5 27.5q-162 163 -162 393q0 203 130 357l416 496q20 23 41 33t50 10q35 0 63.5 -18.5t43.5 -48.5l50 -51l2 -1l6 -6q16 -15 25.5 -36t9.5 -44q0 -20 -7.5 -38t-20.5 -35zM998 512
q0 -147 -106 -253q-105 -105 -252 -105t-253 105q-105 106 -105 253t105 252q106 106 253 106t252 -106q106 -105 106 -252zM1152 512q0 208 -145 357q-146 150 -350 150q-16 0 -31 -1t-30 -3l184 224q19 22 19 50q0 15 -6.5 28.5t-17 24t-24.5 17t-29 6.5q-36 0 -58 -27
l-417 -497q-119 -142 -119 -329q0 -212 150 -362t362 -150t362 150t150 362z" />
    <glyph glyph-name="seven" unicode="7" horiz-adv-x="1280" 
d="M108 1181q-29 15 -47 44t-18 64q0 24 9.5 45.5t25.5 38t38 26t46 9.5h871q35 0 63 -18.5t42 -48.5l60 -58q16 -15 25 -36t9 -44q0 -35 -22 -66l-782 -1210q-33 -50 -95 -50q-22 0 -42 9.5t-35 24.5l-58 58q-31 14 -49.5 44.5t-18.5 65.5q0 14 4 29.5t14 33.5l610 947
h-511q-23 0 -43.5 9.5t-36.5 24.5zM1109 1289q0 15 -6.5 28.5t-17 24t-24 17t-28.5 6.5h-871q-15 0 -29 -6.5t-24.5 -17t-17 -24t-6.5 -28.5q0 -31 23 -54t54 -23h729l-707 -1094q-12 -20 -12 -39q0 -15 6 -29.5t16.5 -25.5t24 -17.5t28.5 -6.5q43 0 65 34l782 1208
q15 24 15 47z" />
    <glyph glyph-name="eight" unicode="8" horiz-adv-x="1237" 
d="M732 1051q0 2 -2 2zM229 96q1 -6 7 -7zM691 1033q0 26 -10 47q-11 4 -20.5 6.5t-20.5 2.5q-29 0 -54.5 -11.5t-45 -31t-31 -45t-11.5 -54.5q0 -11 0.5 -21.5t4.5 -19.5q23 -10 52 -10q27 0 52 11t43.5 29.5t29.5 43.5t11 53zM785 427q0 32 -10 62t-27 59q-50 29 -108 29
q-94 0 -166 -72q-70 -70 -70 -164q0 -31 6.5 -57t17.5 -52q57 -36 127 -36q45 0 86 17.5t74 51.5q70 70 70 162zM273 49q-13 11 -24.5 21.5t-23.5 21.5q-140 136 -140 326q0 241 190 374q-96 97 -96 246q0 77 27.5 141t85.5 120q58 55 122.5 82t140.5 27q149 0 262 -109
q14 -14 26.5 -28.5t23.5 -29.5l38 -36q105 -104 105 -253q0 -142 -88 -239q5 -8 11 -15t11 -14l39 -37q121 -121 121 -316q0 -94 -34.5 -175t-103.5 -147q-135 -132 -326 -132q-95 0 -176.5 33t-149.5 100zM828 427q0 -111 -81 -192t-192 -81t-192 81t-81 192t81 192t192 81
t192 -81t81 -192zM734 1033q0 -74 -53 -127t-126 -53q-74 0 -127 53t-53 127q0 73 53 126t127 53q73 0 126 -53t53 -126zM981 416q0 253 -216 369q122 92 122 253q0 134 -99 230q-98 97 -233 97q-136 0 -234 -97q-99 -98 -99 -230q0 -162 123 -253q-217 -114 -217 -367
q0 -172 126 -295q127 -123 301 -123q173 0 300 122q126 121 126 294z" />
    <glyph glyph-name="nine" unicode="9" horiz-adv-x="1408" 
d="M956 853q0 52 -16 99t-47 89q-78 48 -168 48q-129 0 -225 -96t-96 -225q0 -94 48 -167q42 -32 89.5 -47.5t98.5 -15.5q127 0 222 93q46 47 70 103t24 119zM311 404q-18 14 -35 30t-34 34q-79 82 -118 177t-39 208q0 118 40 214.5t122 178.5q163 162 393 162t393 -162
q27 -29 51 -60l30 -29q161 -160 161 -389q0 -202 -128 -353l-417 -497q-17 -22 -38.5 -31.5t-48.5 -9.5q-23 0 -43.5 9.5t-36.5 24.5l-60 60q-28 14 -46 42.5t-18 63.5q0 22 7.5 40.5t21.5 36.5l76 92q-115 38 -208 135zM998 853q0 -146 -106 -252q-105 -106 -252 -106
t-253 106q-105 106 -105 252t105 253q106 106 253 106t252 -106q106 -106 106 -253zM1152 853q0 212 -150 362t-362 150t-362 -150t-150 -362q0 -206 145 -357q145 -150 350 -150q16 0 31 1t30 3l-184 -224q-19 -22 -19 -49q0 -31 23 -54t54 -23q35 0 58 27l417 497
q119 143 119 329z" />
    <glyph glyph-name="colon" unicode=":" horiz-adv-x="538" 
d="M362 761q2 0 2 -2zM148 654q-28 15 -45.5 43.5t-17.5 61.5q0 24 9.5 46t26 38.5t38.5 26t46 9.5q35 0 63.5 -18.5t43.5 -48.5l50 -51l2 -2l6 -5q16 -15 25 -36t9 -44t-9 -43.5t-24.5 -36.5t-36.5 -25t-44 -9t-44 9t-36 25zM150 -29q-28 14 -46.5 42.5t-18.5 63.5
q0 24 9.5 46t26 38t38.5 25.5t46 9.5q35 0 63.5 -18.5t42.5 -47.5l59 -58q16 -16 25 -37t9 -44t-9 -43.5t-24.5 -36.5t-36.5 -25t-44 -9t-44 9.5t-36 24.5zM282 77q0 31 -23 54t-54 23t-54 -23t-23 -54t23 -54t54 -23t54 23t23 54zM282 759q0 31 -23 54t-54 23t-54 -23
t-23 -54q0 -15 6.5 -29t17 -24.5t24.5 -16.5t29 -6t29 6t24.5 16.5t17 24.5t6.5 29z" />
    <glyph glyph-name="semicolon" unicode=";" horiz-adv-x="538" 
d="M150 652q-28 15 -46.5 43.5t-18.5 63.5q0 24 9.5 46t26 38.5t38.5 26t46 9.5q35 0 63.5 -18.5t42.5 -48.5l54 -54h-1v1l6 -5q16 -15 25 -36t9 -44t-9 -43.5t-24.5 -36.5t-36.5 -25t-44 -9t-44 9t-36 25zM150 -198q-28 14 -46.5 42.5t-18.5 63.5v186q0 24 9.5 46t26 38
t38.5 25.5t46 9.5q35 0 63.5 -18.5t42.5 -47.5l59 -58q16 -16 25 -36.5t9 -43.5v-186q0 -23 -9 -44t-24.5 -37t-36.5 -25t-44 -9t-44 9.5t-36 24.5zM282 94q0 31 -23 54t-54 23t-54 -23t-23 -54v-186q0 -31 23 -54t54 -23t54 23t23 54v186zM282 759q0 31 -23 54t-54 23
t-54 -23t-23 -54q0 -15 6.5 -29t17 -24.5t24.5 -16.5t29 -6t29 6t24.5 16.5t17 24.5t6.5 29z" />
    <glyph glyph-name="less" unicode="&#x3c;" horiz-adv-x="1067" 
d="M505 614l283 -187q38 -27 53 -55l57 -56q36 -36 36 -79q0 -23 -9.5 -43.5t-25 -36.5t-36.5 -25t-44 -9q-15 0 -28 3t-25 11l-3 3l-510 350q-11 8 -20.5 15.5t-17.5 15.5l-51 51q-40 27 -59.5 55.5t-19.5 55.5q0 57 79 111l502 344h-2q20 14 35.5 19t30.5 5q38 0 67 -17
t43 -46l61 -60q33 -31 33 -82q0 -57 -64 -100zM811 323q0 39 -46 70l-436 290l436 290q46 31 46 70q0 34 -23 55.5t-58 21.5q-17 0 -27 -7l-514 -354q-61 -42 -61 -76t61 -77l514 -353q10 -7 31 -7q31 0 54 23t23 54z" />
    <glyph glyph-name="equal" unicode="=" horiz-adv-x="1067" 
d="M150 746q-28 15 -46.5 43.5t-18.5 63.5q0 24 9.5 46t26 38.5t38.5 26t46 9.5h529q35 0 63.5 -19t42.5 -48l59 -58q16 -15 25.5 -36t9.5 -44t-9.5 -43.5t-25 -36.5t-36.5 -25t-44 -9h-529q-23 0 -44 9t-36 25zM150 404q-28 16 -46.5 44.5t-18.5 63.5q0 24 9.5 46t26 38
t38.5 25.5t46 9.5h529q35 0 63.5 -18.5t42.5 -47.5l59 -58q16 -16 25.5 -36.5t9.5 -43.5t-9.5 -44t-25 -37t-36.5 -25t-44 -9h-529q-23 0 -44 9.5t-36 24.5zM811 512q0 31 -23 54t-54 23h-529q-31 0 -54 -23t-23 -54t23 -54t54 -23h529q31 0 54 23t23 54zM811 853
q0 31 -23 54t-54 23h-529q-31 0 -54 -23t-23 -54q0 -15 6.5 -29t17 -24.5t24.5 -16.5t29 -6h529q15 0 29 6t24.5 16.5t17 24.5t6.5 29z" />
    <glyph glyph-name="greater" unicode="&#x3e;" horiz-adv-x="1067" 
d="M155 935l-5 4q-65 44 -65 104q0 54 34.5 86.5t88.5 32.5q16 0 31 -5t36 -19h-4l502 -344q25 -17 40.5 -34.5t26.5 -34.5l54 -53q40 -39 40 -75q0 -27 -20.5 -53t-58.5 -54l-514 -353h2q-11 -8 -24 -11t-29 -3q-23 0 -44 9.5t-36 24.5l-60 58q-28 16 -46.5 44.5
t-18.5 63.5q0 58 65 104l365 244l-276 186q-8 5 -14.5 10t-12.5 12zM811 683q0 34 -62 76l-513 354q-10 7 -28 7q-34 0 -57 -21.5t-23 -55.5q0 -39 46 -70l435 -290l-435 -290q-46 -31 -46 -70q0 -31 23 -54t54 -23q21 0 31 7l513 353q62 44 62 77z" />
    <glyph glyph-name="question" unicode="?" horiz-adv-x="1103" 
d="M196 -29q-28 14 -46.5 42.5t-18.5 63.5q0 24 9.5 46t26 38t38.5 25.5t46 9.5q35 0 63.5 -18.5t42.5 -47.5l54 -55h-1v2l6 -5q16 -16 25.5 -37t9.5 -44t-9.5 -43.5t-25 -36.5t-36.5 -25t-44 -9t-44 9.5t-36 24.5zM148 1031q-28 15 -45.5 43.5t-17.5 63.5q0 16 3.5 29.5
t10.5 27.5q49 96 157 157q101 56 212 56q85 0 157 -30t131 -88v2q13 -14 24.5 -27.5t23.5 -27.5l43 -42q122 -124 122 -296q0 -88 -30.5 -160.5t-91.5 -134.5q-61 -60 -133.5 -90.5t-160.5 -30.5q-73 0 -90 -38q-7 -13 -9.5 -45.5t-2.5 -83.5q0 -23 -9.5 -44t-25 -37
t-36.5 -25t-44 -9t-44 9.5t-36 25.5l-60 58q-28 15 -46.5 43.5t-18.5 63.5v34q0 98 17 165.5t50 109.5q74 92 270 92q73 0 128 55q54 56 54 128q0 46 -22 87q-34 17 -75 17q-64 0 -106 -33h-2q-6 -6 -22 -23t-39 -43q-47 -51 -96 -51q-23 0 -43 8.5t-35 23.5zM328 77
q0 31 -23 54t-54 23t-54 -23t-23 -54t23 -54t54 -23t54 23t23 54zM847 985q0 155 -112 267q-113 113 -267 113q-99 0 -192 -51q-98 -53 -138 -138q-10 -20 -10 -38q0 -30 22 -53t53 -23q33 0 68 39q53 61 69 71q50 40 128 40q92 0 158 -68q67 -67 67 -159t-67 -159
q-66 -67 -158 -67q-177 0 -238 -76q-56 -70 -56 -248v-34q0 -31 23 -54t54 -23t54 23t23 54q0 110 15 145q27 60 125 60q154 0 267 111q112 112 112 268z" />
    <glyph glyph-name="at" unicode="@" horiz-adv-x="1749" 
d="M1021 1041q4 8 8 14.5t10 11.5q-26 9 -54.5 13.5t-57.5 6.5q51 -15 94 -46zM978 701q0 18 -4 35.5t-13 34.5q-27 11 -58 11q-78 0 -142 -63q-61 -61 -61 -140q0 -17 1.5 -32t6.5 -28q34 -16 72 -16q76 0 136 60q62 62 62 138zM365 111q-36 25 -66 60q-214 213 -214 512
q0 298 214 512q213 213 512 213q298 0 512 -213q17 -17 31 -34t28 -35l23 -20q211 -212 211 -509t-211 -508q-212 -212 -509 -212t-509 212zM1021 701q0 -95 -73 -168q-72 -72 -168 -72q-85 0 -144 59t-59 144q0 94 72 168q73 73 168 73q86 0 145 -59t59 -145zM1200 981
q0 15 -5 28.5t-15 24.5t-22.5 17.5t-27.5 6.5q-82 0 -86 -99q-74 99 -213 99q-163 0 -287 -122q-122 -122 -122 -286q0 -145 99 -244q100 -99 245 -99q139 0 231 99q-1 -10 -1.5 -17t-0.5 -12q0 -29 20.5 -49.5t49.5 -20.5q31 0 55.5 23t28.5 54zM1340 683q0 -217 -157 -373
q-156 -156 -372 -156q-217 0 -373 156t-156 373q0 216 156 372q156 157 373 157q216 0 372 -157q157 -156 157 -372zM1493 683q0 280 -201 481t-481 201t-482 -201q-201 -201 -201 -481t201 -482q202 -201 482 -201t481 201q201 202 201 482z" />
    <glyph glyph-name="A" unicode="A" horiz-adv-x="1302" 
d="M643 829l-119 -291h239zM38 -29q-29 15 -46.5 43t-17.5 63q0 13 2.5 23.5t6.5 20.5l491 1202q18 44 47 64.5t66 20.5q66 0 101 -63l54 -55h-1v2l7 -5q8 -11 16.5 -22.5t15.5 -28.5l491 -1202q9 -21 9 -43q0 -23 -9 -43.5t-24.5 -36.5t-36 -25t-43.5 -9q-26 0 -47.5 7.5
t-37.5 23.5l-67 66q-35 22 -49 65l-73 179h-499l-109 -267l2 -2q-13 -38 -41.5 -55t-68.5 -17q-47 0 -78 33zM348 495l239 589l239 -589h-478zM1157 77q0 16 -5 29l-492 1201q-22 58 -73 58q-49 0 -73 -58l-492 -1201q-5 -13 -5 -29q0 -31 22 -54t53 -23q54 0 74 48l119 293
h604l120 -293q18 -48 73 -48q31 0 53 23t22 54z" />
    <glyph glyph-name="B" unicode="B" horiz-adv-x="1280" 
d="M879 986q0 22 -6 43.5t-16 42.5q-18 8 -37 12.5t-38 4.5h-420v-287h334q72 0 137 63v-1q22 26 34 56.5t12 65.5zM913 379q0 47 -22 87q-34 17 -75 17h-454v-287h368q36 0 69 14t59 41q55 55 55 128zM1067 1200l12 -10q59 -60 89 -131.5t30 -157.5q0 -176 -123 -288
l39 -38q56 -55 87 -128.5t31 -152.5q0 -173 -123 -296q-121 -121 -293 -121h-683l-80 80h-10v1451h653q176 0 297 -126q26 -27 46 -55l31 -29zM956 379q0 -92 -67 -159q-66 -66 -159 -66h-491v452h491q93 0 159 -68q67 -67 67 -159zM922 986q0 -93 -67 -160t-159 -67h-457
v453h457q92 0 159 -67q67 -66 67 -159zM1109 379q0 96 -50 181q-49 84 -136 133q152 107 152 293q0 156 -112 267q-111 112 -267 112h-611v-1365h645q156 0 267 112q112 112 112 267z" />
    <glyph glyph-name="C" unicode="C" horiz-adv-x="1444" 
d="M1311 256q1 0 1 -2zM319 597q0 -158 89 -283q136 -118 317 -118q88 0 160 24t129 70q5 7 6.5 8.5l6.5 6.5q26 26 56.5 47.5t70.5 21.5q35 0 63.5 -19t43.5 -48l50 -51l1 -2l7 -5q16 -15 25 -36t9 -44q0 -71 -114 -149q-107 -72 -213 -107.5t-215 -35.5q-297 0 -509 212
l-22 22q-35 24 -67 60q-213 213 -213 512q0 298 213 512q214 213 512 213q218 0 432 -145q70 -49 97 -92l50 -50q26 -26 37.5 -49t11.5 -46t-9 -44t-25 -37t-36.5 -25t-43.5 -9q-38 0 -67.5 21t-55.5 46l-22 20q-114 91 -283 91q-200 0 -347 -147q-145 -145 -145 -345z
M1231 254q0 15 -6.5 29t-17 24.5t-24.5 17t-29 6.5q-30 0 -58 -24q-29 -24 -52 -46q-130 -107 -319 -107q-216 0 -373 156q-156 156 -156 373q0 216 156 372q157 157 373 157q190 0 319 -108q23 -22 52 -46q28 -24 58 -24q15 0 29 6.5t24.5 17t17 24.5t6.5 29q0 50 -98 118
q-200 136 -408 136q-280 0 -481 -201t-201 -481t201 -482q201 -201 481 -201q206 0 408 137q98 66 98 117z" />
    <glyph glyph-name="D" unicode="D" horiz-adv-x="1468" 
d="M1101 683q0 88 -30 166t-88 144q-125 96 -283 96h-338v-893h252q198 0 342 144q72 72 108.5 157.5t36.5 185.5zM53 -43h-10v1451h571q299 0 512 -213q17 -17 31.5 -34t28.5 -35l22 -20q212 -212 212 -509t-212 -508q-211 -212 -508 -212h-567zM1143 683q0 -217 -156 -373
t-373 -156h-375v1058h375q217 0 373 -157q156 -156 156 -372zM1297 683q0 280 -202 481q-201 201 -481 201h-529v-1365h529q280 0 481 201q202 202 202 482z" />
    <glyph glyph-name="E" unicode="E" horiz-adv-x="1237" 
d="M362 196h585q35 0 63.5 -18.5t42.5 -47.5l60 -58q15 -16 24.5 -37t9.5 -44t-9 -43.5t-25 -36.5t-36.5 -25t-43.5 -9h-786q-23 0 -43.5 9.5t-36.5 24.5l-59 60q-29 14 -47 42.5t-18 63.5v1212q0 24 9.5 45.5t25.5 38t38 26t46 9.5h785q35 0 63.5 -18.5t42.5 -48.5l60 -58
q15 -15 24.5 -36t9.5 -44t-9 -43.5t-25 -36.5t-36.5 -25t-43.5 -9h-671v-287h415q35 0 63 -18.5t42 -47.5l60 -58q16 -16 25 -37t9 -44t-9 -43.5t-25 -36.5t-36.5 -25t-43.5 -9h-500v-287zM1024 77q0 31 -23 54t-54 23h-708v452h538q15 0 28.5 6.5t24 17t17 24.5t6.5 29
q0 30 -23 53t-53 23h-538v453h708q31 0 54 23t23 54q0 15 -6.5 28.5t-17 24t-24.5 17t-29 6.5h-785q-15 0 -29 -6.5t-24.5 -17t-17 -24t-6.5 -28.5v-1212q0 -31 23 -54t54 -23h785q31 0 54 23t23 54z" />
    <glyph glyph-name="F" unicode="F" horiz-adv-x="1195" 
d="M108 -29q-29 14 -47 42.5t-18 63.5v1212q0 24 9.5 45.5t25.5 38t38 26t46 9.5h785q35 0 63.5 -18.5t42.5 -48.5l60 -58q15 -15 24.5 -36t9.5 -44t-9 -43.5t-25 -36.5t-36.5 -25t-43.5 -9h-671v-287h415q35 0 63 -18.5t42 -47.5l60 -58q16 -16 25 -37t9 -44t-9 -43.5
t-25 -36.5t-36.5 -25t-43.5 -9h-500v-492q0 -23 -9.5 -43.5t-25 -36.5t-36.5 -25t-44 -9t-43.5 9.5t-36.5 24.5zM1024 1289q0 15 -6.5 28.5t-17 24t-24.5 17t-29 6.5h-785q-15 0 -29 -6.5t-24.5 -17t-17 -24t-6.5 -28.5v-1212q0 -31 23 -54t54 -23t54 23t23 54v529h538
q15 0 28.5 6.5t24 17t17 24.5t6.5 29q0 30 -23 53t-53 23h-538v453h708q31 0 54 23t23 54z" />
    <glyph glyph-name="G" unicode="G" horiz-adv-x="1466" 
d="M577 575q-29 16 -47 44.5t-18 63.5q0 24 9.5 46t26 38t38 25.5t45.5 9.5h545q35 0 63.5 -18.5t42.5 -47.5l59 -58q16 -16 25.5 -37t9.5 -44v-606q0 -23 -9.5 -43.5t-25 -36.5t-36.5 -25t-44 -9q-51 0 -78 27l-57 57q-68 -43 -146.5 -63.5t-168.5 -20.5q-297 0 -509 212
l-22 22q-35 24 -67 60q-213 213 -213 512q0 298 213 512q214 213 512 213q215 0 432 -145v2q71 -51 97 -94l52 -50q23 -24 35 -47.5t12 -47.5q0 -23 -9 -44t-25 -37t-36.5 -25t-43.5 -9q-38 0 -67.5 21t-55.5 46l-13 14q-115 97 -292 97q-200 0 -347 -147
q-145 -145 -145 -345q0 -158 89 -283q136 -118 317 -118q182 0 331 130v157h-339q-23 0 -44 9.5t-36 24.5zM1253 683q0 15 -6.5 28.5t-17 24t-24.5 17t-29 6.5h-545q-15 0 -29 -6.5t-24.5 -17t-16.5 -24t-6 -28.5t6 -29t16.5 -24.5t24.5 -17t29 -6.5h468v-297
q-167 -155 -374 -155q-216 0 -373 156q-156 156 -156 373q0 216 156 372q157 157 373 157q194 0 319 -108q23 -22 52 -46q28 -24 58 -24q15 0 29 6.5t24.5 17t17 24.5t6.5 29q0 53 -98 118q-205 136 -408 136q-280 0 -481 -201t-201 -481t201 -482q201 -201 481 -201
q225 0 374 135q0 -64 9 -89q15 -46 68 -46q31 0 54 23t23 54v606z" />
    <glyph glyph-name="H" unicode="H" 
d="M362 802h722v487q0 24 9.5 45.5t25.5 38t38 26t46 9.5q35 0 63.5 -18.5t42.5 -48.5l60 -58q15 -15 24.5 -36t9.5 -44v-1212q0 -23 -9 -43.5t-25 -36.5t-36.5 -25t-43.5 -9t-44 9.5t-37 24.5l-59 60q-29 14 -47 42.5t-18 63.5v406h-722v-492q0 -23 -9.5 -43.5t-25 -36.5
t-36.5 -25t-44 -9t-43.5 9.5t-36.5 24.5l-59 60q-29 14 -47 42.5t-18 63.5v1212q0 24 9.5 45.5t25.5 38t38 26t46 9.5q35 0 63.5 -18.5t42.5 -48.5l60 -58q15 -15 24.5 -36t9.5 -44v-401zM1280 1289q0 15 -6.5 28.5t-17 24t-24.5 17t-29 6.5t-29 -6.5t-24.5 -17t-17 -24
t-6.5 -28.5v-530h-887v530q0 15 -6.5 28.5t-17 24t-24.5 17t-29 6.5t-29 -6.5t-24.5 -17t-17 -24t-6.5 -28.5v-1212q0 -31 23 -54t54 -23t54 23t23 54v529h887v-529q0 -31 23 -54t54 -23t54 23t23 54v1212z" />
    <glyph glyph-name="I" unicode="I" horiz-adv-x="452" 
d="M108 -29q-29 14 -47 42.5t-18 63.5v1212q0 24 9.5 45.5t25.5 38t38 26t46 9.5q35 0 63.5 -18.5t42.5 -48.5l60 -58q15 -15 24.5 -36t9.5 -44v-1212q0 -23 -9.5 -43.5t-25 -36.5t-36.5 -25t-44 -9t-43.5 9.5t-36.5 24.5zM239 1289q0 15 -6.5 28.5t-17 24t-24.5 17t-29 6.5
t-29 -6.5t-24.5 -17t-17 -24t-6.5 -28.5v-1212q0 -31 23 -54t54 -23t54 23t23 54v1212z" />
    <glyph glyph-name="J" unicode="J" horiz-adv-x="1149" 
d="M77 75q-7 4 -12.5 10t-11.5 11q-40 35 -59.5 65t-19.5 61q0 24 9.5 45.5t26 37.5t38.5 25.5t46 9.5q14 0 49.5 -20.5t93.5 -60.5v2q98 -65 186 -65q130 0 222 87q94 88 94 212v794q0 24 9.5 45.5t26 38t38 26t45.5 9.5q35 0 63.5 -18.5t42.5 -48.5l60 -58
q15 -15 24.5 -36t9.5 -44v-793q0 -221 -164 -379q-81 -78 -177 -116t-208 -38q-203 0 -367 137q-7 5 -13 11l-11 11zM935 1289q0 15 -6.5 28.5t-17 24t-24.5 17t-29 6.5t-29 -6.5t-24.5 -17t-16.5 -24t-6 -28.5v-794q0 -143 -107 -242t-252 -99q-103 0 -209 71
q-105 72 -120 72q-31 0 -54 -22t-23 -53q0 -42 63 -94q155 -128 343 -128q208 0 360 144t152 351v794z" />
    <glyph glyph-name="K" unicode="K" horiz-adv-x="1195" 
d="M1104 1292q2 0 2 -2zM362 773l495 592q19 23 41 33t51 10q35 0 62.5 -18t41.5 -47l51 -51l2 -2l7 -5q15 -15 24.5 -36t9.5 -46q0 -20 -6 -39t-20 -34l-447 -533l447 -532q14 -16 20 -34.5t6 -39.5q0 -24 -9 -44.5t-24 -36t-35.5 -24.5t-44.5 -9t-43.5 7t-36.5 24l-61 61
q-22 11 -36 31l-342 406l-153 -182v-233q0 -23 -9.5 -43.5t-25 -36.5t-36.5 -25t-44 -9t-43.5 9.5t-36.5 24.5l-59 60q-29 14 -47 42.5t-18 63.5v1212q0 24 9.5 45.5t25.5 38t38 26t46 9.5q35 0 63.5 -18.5t42.5 -48.5l60 -58q15 -15 24.5 -36t9.5 -44v-430zM1024 77
q0 29 -17 49l-466 557l466 556q17 22 17 50q0 32 -21.5 54t-53.5 22q-38 0 -60 -27l-650 -777v728q0 15 -6.5 28.5t-17 24t-24.5 17t-29 6.5t-29 -6.5t-24.5 -17t-17 -24t-6.5 -28.5v-1212q0 -31 23 -54t54 -23t54 23t23 54v246l201 240l449 -536q22 -27 60 -27
q32 0 53.5 22t21.5 55z" />
    <glyph glyph-name="L" unicode="L" horiz-adv-x="1195" 
d="M319 1290q2 0 2 -1zM362 196h585q35 0 63.5 -18.5t42.5 -47.5l60 -58q15 -16 24.5 -37t9.5 -44t-9 -43.5t-25 -36.5t-36.5 -25t-43.5 -9h-786q-23 0 -43.5 9.5t-36.5 24.5l-59 60q-29 14 -47 42.5t-18 63.5v1212q0 24 9.5 45.5t25.5 38t38 26t46 9.5q35 0 63.5 -18.5
t44.5 -48.5l49 -51l2 -1l7 -6q15 -15 24.5 -36t9.5 -44v-1007zM1024 77q0 31 -23 54t-54 23h-708v1135q0 15 -6.5 28.5t-17 24t-24.5 17t-29 6.5t-29 -6.5t-24.5 -17t-17 -24t-6.5 -28.5v-1212q0 -31 23 -54t54 -23h785q31 0 54 23t23 54z" />
    <glyph glyph-name="M" unicode="M" horiz-adv-x="1579" 
d="M1446 1290q1 0 1 -1zM329 1283q10 -8 16 -17l391 -607l450 696q41 53 103 53q35 0 63.5 -18.5t43.5 -48.5l50 -51l1 -1l7 -6q16 -15 25 -36t9 -44v-1212q0 -23 -9 -43.5t-25 -36.5t-36.5 -25t-43.5 -9t-44 9.5t-36 24.5l-60 60q-29 14 -47 42.5t-18 63.5v604l-273 -420
q-22 -33 -42 -50.5t-43 -17.5q-28 0 -53 25l-62 60q-32 16 -61 65l-273 422v-774q0 -23 -9.5 -43.5t-25 -36.5t-36.5 -25t-44 -9t-43.5 9.5t-36.5 24.5l-59 60q-29 14 -47 42.5t-18 63.5v1212q0 24 9.5 45.5t25.5 38t38 26t46 9.5q32 0 56.5 -13.5t44.5 -39.5l8 -15z
M1365 1289q0 15 -6.5 28.5t-17 24t-24 17t-28.5 6.5q-45 0 -67 -34l-497 -766l-496 766q-22 34 -67 34q-15 0 -29 -6.5t-24.5 -17t-17 -24t-6.5 -28.5v-1212q0 -31 23 -54t54 -23t54 23t23 54v956l432 -666q31 -51 54 -51t55 51l432 666v-956q0 -31 23 -54t54 -23
q15 0 28.5 6.5t24 17t17 24.5t6.5 29v1212z" />
    <glyph glyph-name="N" unicode="N" 
d="M1201 -80q-1 1 -3 2.5t-3 4.5l-46 46q-23 13 -43 36l-744 858v-876q0 -23 -9.5 -43.5t-25 -36.5t-36.5 -25t-44 -9t-43.5 9.5t-36.5 24.5l-59 60q-29 14 -47 42.5t-18 63.5v1212q0 24 9.5 45.5t25.5 38t38 26t46 9.5q29 0 50.5 -8.5t36.5 -29.5l33 -37l41 -41l2 -4t3 -5
l3 -1l753 -872v879q0 24 9.5 45.5t25.5 38t38 26t46 9.5q35 0 63.5 -18.5t42.5 -48.5l55 -54h-1t-1 2l7 -6q15 -15 24.5 -36t9.5 -44v-1212q0 -23 -9 -43.5t-25 -36.5t-36.5 -25t-43.5 -9q-45 0 -88 43zM1280 1289q0 15 -6.5 28.5t-17 24t-24.5 17t-29 6.5t-29 -6.5
t-24.5 -17t-17 -24t-6.5 -28.5v-999l-909 1053q-19 22 -55 22q-15 0 -29 -6.5t-24.5 -17t-17 -24t-6.5 -28.5v-1212q0 -31 23 -54t54 -23t54 23t23 54v998l899 -1039q31 -36 65 -36q31 0 54 23t23 54v1212z" />
    <glyph glyph-name="O" unicode="O" horiz-adv-x="1579" 
d="M1212 683q0 177 -120 312q-62 46 -132 70t-149 24q-200 0 -347 -147q-145 -145 -145 -345q0 -158 89 -283q136 -118 317 -118q198 0 342 144q72 72 108.5 157.5t36.5 185.5zM280 111q-35 24 -67 60q-213 213 -213 512q0 298 213 512q214 213 512 213q299 0 512 -213
q17 -17 31.5 -34t28.5 -35l22 -20q212 -212 212 -509t-212 -508q-211 -212 -508 -212t-509 212zM1254 683q0 -217 -156 -373t-373 -156q-216 0 -373 156q-156 156 -156 373q0 216 156 372q157 157 373 157q217 0 373 -157q156 -156 156 -372zM1408 683q0 280 -202 481
q-201 201 -481 201t-481 -201t-201 -481t201 -482q201 -201 481 -201t481 201q202 202 202 482z" />
    <glyph glyph-name="P" unicode="P" horiz-adv-x="1280" 
d="M913 901q0 85 -51 154q-60 34 -132 34h-368v-458h283q56 0 103 20.5t85 58.5q80 80 80 191zM108 -29q-29 14 -47 42.5t-18 63.5v1331h602q211 0 359 -148q14 -16 27.5 -31t24.5 -31l29 -27q147 -147 147 -355q0 -212 -147 -357q-147 -147 -355 -147h-368v-321
q0 -23 -9.5 -43.5t-25 -36.5t-36.5 -25t-44 -9t-43.5 9.5t-36.5 24.5zM956 901q0 -128 -92 -220t-219 -92h-406v623h406q127 0 219 -92t92 -219zM1109 901q0 190 -137 327t-327 137h-560v-1288q0 -31 23 -54t54 -23t54 23t23 54v358h406q191 0 327 136q137 137 137 330z" />
    <glyph glyph-name="Q" unicode="Q" horiz-adv-x="1579" 
d="M1212 683q0 88 -30 166t-88 144q-125 96 -283 96q-200 0 -347 -147q-145 -145 -145 -345q0 -158 89 -283q136 -118 317 -118q40 0 80.5 7t80.5 21l-77 78q-34 34 -34 85q0 24 9.5 45.5t25.5 37.5t38 25.5t46 9.5q52 0 86 -34l111 -111q121 142 121 323zM1531 597
q0 -284 -191 -488l34 -32q6 -8 12 -14.5t10 -14.5l60 -60q32 -32 32 -80q0 -23 -9 -44t-25 -37t-36.5 -25t-43.5 -9q-49 0 -82 33l-61 61q-8 4 -14.5 9t-13.5 12l-54 54q-159 -85 -338 -85q-297 0 -509 212l-22 22q-35 24 -67 60q-213 213 -213 512q0 298 213 512
q214 213 512 213q299 0 512 -213q17 -17 31.5 -34t28.5 -35l22 -20q212 -212 212 -509zM1254 683q0 -227 -163 -384l-142 141q-23 23 -55 23q-15 0 -29 -6t-24.5 -16.5t-17 -24.5t-6.5 -29q0 -31 23 -54l123 -123q-114 -56 -238 -56q-216 0 -373 156q-156 156 -156 373
q0 216 156 372q157 157 373 157q217 0 373 -157q156 -156 156 -372zM1408 683q0 280 -202 481q-201 201 -481 201t-481 -201t-201 -481t201 -482q201 -201 481 -201q189 0 350 97l159 -158q23 -23 55 -23q15 0 28.5 6.5t24 17t17 24.5t6.5 29q0 31 -22 53l-145 145
q210 202 210 492z" />
    <glyph glyph-name="R" unicode="R" horiz-adv-x="1280" 
d="M913 901q0 85 -51 154q-60 34 -132 34h-368v-458h283q56 0 103 20.5t85 58.5q80 80 80 191zM108 -29q-29 14 -47 42.5t-18 63.5v1331h602q211 0 359 -148q14 -14 26 -29.5t23 -29.5l3 -3l19 -19l-5 5l15 -13q147 -147 147 -355q0 -85 -25.5 -162t-76.5 -144
q-42 -54 -91.5 -93t-110.5 -65l190 -190q6 -6 11 -13.5t9 -15.5l62 -60q32 -32 32 -82q0 -23 -9 -43.5t-25 -36.5t-36.5 -25t-43.5 -9q-48 0 -80 33l-62 61q-14 7 -27 20l-321 321h-266v-321q0 -23 -9.5 -43.5t-25 -36.5t-36.5 -25t-44 -9t-43.5 9.5t-36.5 24.5zM956 901
q0 -128 -92 -220t-219 -92h-406v623h406q127 0 219 -92t92 -219zM1109 77q0 32 -22 54l-319 321q150 40 245 166q96 126 96 283q0 190 -137 327t-327 137h-560v-1288q0 -31 23 -54t54 -23t54 23t23 54v358h328l413 -413q22 -22 53 -22q15 0 28.5 6.5t24 17t17 24.5t6.5 29z
" />
    <glyph glyph-name="S" unicode="S" horiz-adv-x="971" 
d="M369 164q2 -4 3 -4zM319 899q0 -38 14 -75q40 -22 89 -22q175 0 298 -123q24 -26 45 -51l37 -37q121 -123 121 -296t-121 -297q-121 -121 -295 -121q-106 0 -212 56q-51 28 -88 67l-40 38q-73 52 -114 133q-14 28 -14 56q0 24 9.5 46t25.5 38t37.5 25.5t45.5 9.5
q21 0 37.5 -7t30.5 -18t25.5 -25t22.5 -28l38 -38q46 -34 111 -34q71 0 136 63v-1q22 27 34 57.5t12 65.5q0 43 -22 85q-18 8 -37 12.5t-38 4.5q-174 0 -295 121l-38 38q-28 17 -51 44q-123 123 -123 299t131 307v-2q121 118 291 118q55 0 108.5 -14.5t106.5 -45.5
q42 -23 74 -52t55 -64l43 -41q20 -19 34 -39.5t27 -43.5q7 -14 10.5 -27.5t3.5 -27.5q0 -23 -9 -43.5t-24.5 -36.5t-36 -25t-43.5 -9q-28 0 -48 11t-35 26l-58 57q-13 8 -24.5 17.5t-20.5 21.5q-34 17 -78 17q-75 0 -132 -58q-56 -58 -56 -132zM800 381q0 157 -111 267
q-110 111 -267 111q-93 0 -160 67q-66 67 -66 159q0 91 66 159q68 68 160 68q100 0 165 -72q11 -13 21.5 -26t21.5 -26q23 -26 56 -26q31 0 53 23t22 53q0 18 -10 38q-43 85 -137 137q-92 52 -192 52q-157 0 -268 -112q-111 -111 -111 -268t111 -268t268 -111q92 0 158 -67
q67 -66 67 -158q0 -93 -67 -160q-66 -67 -158 -67q-101 0 -166 71q-10 13 -21 26l-22 26q-23 27 -56 27q-31 0 -53 -23t-22 -54q0 -18 10 -38q43 -85 137 -137t193 -52q158 0 267 112q111 112 111 269z" />
    <glyph glyph-name="T" unicode="T" horiz-adv-x="1357" 
d="M1292 1290q2 0 2 -1zM39 1181q-28 15 -46.5 44t-18.5 64q0 24 9.5 45.5t26 38t38.5 26t46 9.5h1041q35 0 63.5 -18.5t43.5 -48.5l50 -51l2 -1l6 -6q16 -15 25.5 -36t9.5 -44t-9.5 -43.5t-25 -36.5t-36.5 -25t-44 -9h-406v-1098q0 -23 -9 -43.5t-25 -36.5t-36.5 -25
t-43.5 -9t-44 9.5t-36 24.5l-60 60q-29 14 -47 42.5t-18 63.5v1012h-316q-23 0 -44 9.5t-36 24.5zM1212 1289q0 15 -6.5 28.5t-17 24t-24.5 17t-29 6.5h-1041q-15 0 -29 -6.5t-24.5 -17t-17 -24t-6.5 -28.5q0 -31 23 -54t54 -23h444v-1135q0 -15 6 -29t16.5 -24.5t24.5 -17
t29 -6.5q31 0 54 23t23 54v1135h444q31 0 54 23t23 54z" />
    <glyph glyph-name="U" unicode="U" 
d="M319 1290q2 0 2 -1zM362 512q0 -62 15.5 -117.5t49.5 -106.5q110 -92 256 -92q163 0 281 118q120 120 120 283v692q0 24 9.5 45.5t25.5 38t38 26t46 9.5q35 0 63.5 -18.5t42.5 -48.5l55 -54h-1t-1 2l7 -6q15 -15 24.5 -36t9.5 -44v-691q0 -262 -186 -449
q-94 -94 -205 -140t-244 -46q-262 0 -449 186l-25 26q-17 13 -32.5 27t-31.5 29q-95 95 -141 206.5t-46 245.5v692q0 24 9.5 45.5t25.5 38t38 26t46 9.5q35 0 63.5 -18.5t44.5 -48.5l49 -51l2 -1l7 -6q15 -15 24.5 -36t9.5 -44v-691zM1280 1289q0 15 -6.5 28.5t-17 24
t-24.5 17t-29 6.5t-29 -6.5t-24.5 -17t-17 -24t-6.5 -28.5v-692q0 -182 -131 -313q-130 -130 -312 -130q-184 0 -314 130t-130 313v692q0 15 -6.5 28.5t-17 24t-24.5 17t-29 6.5t-29 -6.5t-24.5 -17t-17 -24t-6.5 -28.5v-692q0 -245 176 -421t422 -176q245 0 421 176
t176 421v692z" />
    <glyph glyph-name="V" unicode="V" horiz-adv-x="1302" 
d="M285 1246l324 -797l357 877q15 42 44.5 62t71.5 20q33 0 61.5 -18t42.5 -47l60 -58q15 -15 24.5 -37t9.5 -45t-9 -42l-491 -1202q-17 -42 -44.5 -62t-63.5 -20q-44 0 -75 31l-61 61q-20 11 -35.5 28t-26.5 46l-491 1201q-4 11 -6.5 21t-2.5 24q0 24 9.5 45.5t25.5 38
t37.5 26t45.5 9.5q32 0 58 -13t43 -40l70 -68q8 -8 14 -18t10 -23h-2zM1157 1289q0 30 -22 53t-53 23q-55 0 -73 -47l-422 -1036l-421 1036q-20 47 -74 47q-31 0 -53 -23t-22 -53q0 -17 5 -29l492 -1202q24 -58 73 -58q51 0 73 58l492 1202q5 12 5 29z" />
    <glyph glyph-name="W" unicode="W" horiz-adv-x="1814" 
d="M1237 1292q2 0 2 -2zM1051 621l70 -172l357 877q15 42 44.5 62t71.5 20q33 0 61 -17.5t43 -45.5l55 -56h-1t-1 1l7 -5q15 -15 24.5 -37t9.5 -45t-9 -42l-491 -1202q-17 -42 -44.5 -62t-63.5 -20q-44 0 -75 31l-61 61q-20 11 -35.5 28t-26.5 46l-87 211l-119 -295
q-17 -42 -44.5 -62t-63.5 -20q-44 0 -75 31l-61 61q-20 11 -35.5 28t-26.5 46l-491 1201q-4 11 -6.5 21t-2.5 24q0 24 9.5 45.5t25.5 38t37.5 26t45.5 9.5q32 0 58 -13t43 -40l70 -68q8 -8 14 -18t10 -23h-2l324 -797l104 258l-218 537q-4 11 -6.5 21t-2.5 24q0 24 9.5 45.5
t25.5 38t37.5 26t45.5 9.5q32 0 58 -13t43 -40l70 -68q8 -8 14 -18t10 -23h-2l68 -167l101 247q15 42 44.5 62t71.5 20q33 0 61.5 -18t42.5 -47l51 -51l2 -2l7 -5q15 -15 24.5 -37t9.5 -45t-9 -42zM1669 1289q0 30 -22 53t-53 23q-55 0 -73 -47l-422 -1036l-172 425l225 553
q5 12 5 29q0 30 -22 53t-53 23q-55 0 -73 -47l-166 -407l-165 407q-20 47 -74 47q-31 0 -53 -23t-22 -53q0 -17 5 -29l225 -553l-172 -425l-421 1036q-20 47 -74 47q-31 0 -53 -23t-22 -53q0 -17 5 -29l492 -1202q24 -58 73 -58q51 0 73 58l183 447l183 -447q24 -58 73 -58
q51 0 73 58l492 1202q5 12 5 29z" />
    <glyph glyph-name="X" unicode="X" horiz-adv-x="1386" 
d="M1295 1290q2 0 2 -1zM292 1277l339 -407l417 495q19 23 40.5 33t49.5 10q35 0 63.5 -18.5t44.5 -48.5l49 -51l2 -1l7 -6q15 -15 24.5 -36t9.5 -44q0 -38 -27 -73l-447 -533l447 -532q13 -17 20 -35t7 -39q0 -23 -9 -43.5t-25 -36.5t-36.5 -25t-43.5 -9t-42.5 7t-36.5 24
l-61 61q-22 11 -36 31l-345 408l-411 -490q-18 -22 -39 -31.5t-50 -9.5q-47 0 -78 33l-62 61q-28 15 -45.5 43t-17.5 63q0 22 6 40t21 35l446 531l-446 530q-15 17 -21 35.5t-6 40.5q0 24 9.5 45.5t25.5 38t37.5 26t45.5 9.5q29 0 50.5 -10t41.5 -33l26 -32l47 -46l3 -4.5
t2 -4.5zM1215 77q0 27 -19 49l-467 557l467 556q19 22 19 50q0 15 -6.5 28.5t-17 24t-24.5 17t-29 6.5q-36 0 -58 -27l-452 -538l-451 538q-23 27 -59 27q-31 0 -53 -23t-22 -53q0 -28 17 -48l469 -558l-469 -558q-17 -22 -17 -48q0 -31 22 -54t53 -23q36 0 59 27l451 538
l452 -538q22 -27 58 -27q31 0 54 23t23 54z" />
    <glyph glyph-name="Y" unicode="Y" horiz-adv-x="1335" 
d="M258 1287q2 -3 4 -5.5t4 -4.5l340 -407l416 495q20 23 41 33t50 10q35 0 63.5 -18.5t42.5 -48.5l54 -54h-1t-1 2l7 -6q16 -15 25 -36t9 -44q0 -38 -27 -73l-483 -574v-565q0 -23 -9 -43.5t-25 -36.5t-36.5 -25t-43.5 -9t-44 9.5t-36 24.5l-60 60q-29 14 -47 42.5
t-18 63.5v565l-481 571q-16 17 -22 35.5t-6 40.5q0 24 9.5 45.5t25.5 38t37.5 26t45.5 9.5q29 0 51 -10t41 -33l26 -32zM1190 1289q0 15 -6.5 28.5t-17 24t-24.5 17t-29 6.5q-36 0 -58 -27l-453 -538l-450 538q-23 27 -60 27q-31 0 -53 -23t-22 -53q0 -28 17 -48l492 -584
v-580q0 -15 6 -29t16.5 -24.5t24.5 -17t29 -6.5q31 0 54 23t23 54v578l492 584q19 22 19 50z" />
    <glyph glyph-name="Z" unicode="Z" horiz-adv-x="1386" 
d="M1295 1290q2 0 2 -1zM524 196h614q35 0 63.5 -18.5t42.5 -47.5l60 -58q15 -16 24.5 -37t9.5 -44t-9 -43.5t-25 -36.5t-36.5 -25t-43.5 -9h-1021q-47 0 -78 33l-62 61q-28 15 -45.5 43t-17.5 63q0 22 6 40t21 35l789 937h-611q-23 0 -44 9.5t-36 24.5l-60 58
q-29 15 -47 44t-18 64q0 24 9.5 45.5t26 38t38 26t45.5 9.5h1019q35 0 63.5 -18.5t44.5 -48.5l49 -51l2 -1l7 -6q15 -15 24.5 -36t9.5 -44q0 -38 -34 -80zM1215 77q0 31 -23 54t-54 23h-855l907 1078q25 31 25 57q0 15 -6.5 28.5t-17 24t-24.5 17t-29 6.5h-1019
q-15 0 -29 -6.5t-24.5 -17t-16.5 -24t-6 -28.5t6 -29t16.5 -24.5t24.5 -17t29 -6.5h856l-915 -1087q-17 -22 -17 -48q0 -31 22 -54t53 -23h1020q31 0 54 23t23 54z" />
    <glyph glyph-name="bracketleft" unicode="[" horiz-adv-x="811" 
d="M635 1461q2 0 2 -2zM404 27h74q35 0 63.5 -18t42.5 -47l59 -59q16 -16 25.5 -36.5t9.5 -43.5t-9.5 -44t-25 -37t-36.5 -25t-44 -9h-273q-23 0 -44 9.5t-36 24.5l-60 60q-28 14 -46.5 42.5t-18.5 63.5v1551q0 24 9.5 46t26 38.5t38.5 26t46 9.5h273q35 0 63.5 -19
t43.5 -48l50 -51l2 -2l6 -5q16 -15 25.5 -36t9.5 -44t-9.5 -44t-25 -36.5t-36.5 -24.5t-44 -9h-159v-1233zM555 -92q0 31 -23 54t-54 23h-196v1397h196q31 0 54 23t23 54t-23 54t-54 23h-273q-31 0 -54 -23t-23 -54v-1551q0 -31 23 -54t54 -23h273q31 0 54 23t23 54z" />
    <glyph glyph-name="backslash" unicode="\" horiz-adv-x="691" 
d="M382 -181q-42 22 -56 79l-324 1520q-2 5 -2 11v13q0 24 9.5 46t26 38.5t38 26t45.5 9.5q38 0 64.5 -15t40.5 -42l63 -63q22 -22 30 -61l325 -1518l-2 2q2 -8 2.5 -13.5t0.5 -11.5q0 -23 -9 -44t-24.5 -37t-36.5 -25t-44 -9q-53 0 -82 29zM521 -75q0 5 -2 15l-324 1517
q-14 62 -76 62q-15 0 -29 -6.5t-24.5 -17t-16.5 -24.5t-6 -29q0 -10 1 -15l325 -1517q14 -62 75 -62q15 0 29 6.5t24.5 17t17 24.5t6.5 29z" />
    <glyph glyph-name="bracketright" unicode="]" horiz-adv-x="811" 
d="M635 1461q2 0 2 -2zM150 1352q-28 15 -46.5 43.5t-18.5 63.5q0 24 9.5 46t26 38.5t38.5 26t46 9.5h273q35 0 63.5 -19t43.5 -48l50 -51l2 -2l6 -5q16 -15 25.5 -36t9.5 -44v-1551q0 -23 -9.5 -44t-25 -37t-36.5 -25t-44 -9h-273q-23 0 -44 9.5t-36 24.5l-60 60
q-28 14 -46.5 42.5t-18.5 63.5q0 24 9.5 46t26 38t38.5 25.5t46 9.5h153v1233h-68q-23 0 -44 9t-36 25zM555 1459q0 31 -23 54t-54 23h-273q-31 0 -54 -23t-23 -54t23 -54t54 -23h196v-1397h-196q-31 0 -54 -23t-23 -54t23 -54t54 -23h273q31 0 54 23t23 54v1551z" />
    <glyph glyph-name="asciicircum" unicode="^" horiz-adv-x="1121" 
d="M150 311q-28 15 -46.5 43.5t-18.5 63.5q0 16 3 28t9 23l287 516q23 40 51 61t62 21q60 0 104 -70l49 -48q-1 0 -1 1t-2 1l8 -7q8 -9 16.5 -20t16.5 -26l3 -2l285 -514q7 -11 9.5 -23t2.5 -26q0 -23 -9 -44t-25 -37t-36.5 -25t-43.5 -9q-46 0 -79 33l-61 61q-32 16 -53 55
l-121 218l-167 -302q-37 -65 -103 -65q-23 0 -44 9.5t-36 25.5zM865 418q0 20 -7 31l-285 514q-34 61 -76 61q-43 0 -77 -61l-285 -514q-7 -11 -7 -31q0 -31 23 -54t54 -23q45 0 70 46l222 401l222 -401q25 -46 69 -46q31 0 54 23t23 54z" />
    <glyph glyph-name="underscore" unicode="_" horiz-adv-x="1067" 
d="M-51 -31q-29 16 -48 44.5t-19 63.5q0 24 9.5 46t26 38t37.5 25.5t45 9.5h939q35 0 63 -18.5t42 -47.5l55 -55h-1t-1 2l7 -5q16 -16 25 -37t9 -44t-9 -43.5t-25 -36.5t-36.5 -25t-43.5 -9h-939q-22 0 -42.5 9.5t-35.5 24.5zM1015 77q0 15 -6.5 29t-17 24.5t-24 17
t-28.5 6.5h-939q-15 0 -28.5 -6.5t-24 -17t-16.5 -24.5t-6 -29t6 -29t16.5 -24.5t24 -17t28.5 -6.5h939q15 0 28.5 6.5t24 17t17 24.5t6.5 29z" />
    <glyph glyph-name="grave" unicode="`" horiz-adv-x="689" 
d="M299 1423q-28 16 -48 48h2l-139 203q-29 42 -29 79q0 24 9.5 46t25.5 38t37.5 25.5t45.5 9.5q31 0 55 -13.5t44 -39.5l10 -17l57 -54q4 -4 7.5 -8t7.5 -9l150 -221l4 -3q10 -14 14 -29.5t4 -33.5q0 -24 -8.5 -45t-23.5 -36.5t-35.5 -25t-44.5 -9.5q-23 0 -44 7.5
t-36 23.5zM433 1529q0 24 -11 41l-154 225q-24 35 -65 35q-31 0 -53 -23.5t-22 -53.5q0 -25 12 -41l154 -225q22 -36 64 -36q33 0 54 23t21 55z" />
    <glyph glyph-name="a" unicode="a" horiz-adv-x="1451" 
d="M1041 597q0 140 -90 250q-101 71 -226 71q-165 0 -286 -121q-120 -119 -120 -285q0 -125 65 -224q110 -92 256 -92q162 0 282 118q59 60 89 131t30 152zM251 89q-31 24 -63 56q-96 95 -142 206.5t-46 245.5t46 245.5t142 207.5q95 95 206.5 141t245.5 46q234 0 401 -153
v34q0 24 9.5 46t26 38t38.5 25.5t46 9.5q35 0 63 -18.5t42 -47.5l60 -58q16 -16 25 -36.5t9 -43.5v-1042q0 -23 -9 -43.5t-25 -36.5t-36.5 -25t-43.5 -9t-44 9.5t-36 24.5l-60 60q-8 4 -15.5 10t-15.5 12q-75 -57 -164.5 -86.5t-185.5 -29.5q-262 0 -449 186zM1084 597
q0 -182 -131 -313q-130 -130 -313 -130q-184 0 -314 130t-130 313t130 313q131 131 314 131q182 0 313 -131t131 -313zM1237 1118q0 15 -6.5 29t-17 24.5t-24 17t-28.5 6.5q-31 0 -54 -23t-23 -54v-145q-167 222 -444 222q-246 0 -422 -176q-175 -175 -175 -422
q0 -246 175 -421q176 -176 422 -176q128 0 248 59q119 59 196 163v-145q0 -31 23 -54t54 -23q15 0 28.5 6.5t24 17t17 24.5t6.5 29v1041z" />
    <glyph glyph-name="b" unicode="b" horiz-adv-x="1451" 
d="M319 1290q2 0 2 -1zM1084 597q0 69 -23 132.5t-68 117.5q-100 71 -225 71q-166 0 -287 -121q-119 -119 -119 -285q0 -62 15.5 -117.5t49.5 -106.5q110 -92 256 -92q163 0 281 118q120 120 120 283zM362 1142q72 46 153 70.5t168 24.5q134 0 245.5 -46t206.5 -141
q15 -16 29 -32t27 -32l22 -23q0 1 -1 1v0l5 -3q94 -94 140 -205t46 -244q0 -262 -186 -449q-94 -94 -205 -140t-244 -46q-244 0 -406 161v-47q0 -23 -9.5 -43.5t-25 -36.5t-36.5 -25t-44 -9t-43.5 9.5t-36.5 24.5l-59 60q-29 14 -47 42.5t-18 63.5v1212q0 24 9.5 45.5
t25.5 38t38 26t46 9.5q35 0 63.5 -18.5t44.5 -48.5l49 -51l2 -1l7 -6q15 -15 24.5 -36t9.5 -44v-61zM1126 597q0 -182 -131 -313q-130 -130 -312 -130q-184 0 -314 130t-130 313t130 313q131 131 314 131q181 0 312 -131t131 -313zM1280 597q0 246 -176 422t-421 176
q-129 0 -249 -59q-117 -58 -195 -163v316q0 15 -6.5 28.5t-17 24t-24.5 17t-29 6.5t-29 -6.5t-24.5 -17t-17 -24t-6.5 -28.5v-1212q0 -31 23 -54t54 -23t54 23t23 54v145q165 -222 444 -222q245 0 421 176t176 421z" />
    <glyph glyph-name="c" unicode="c" horiz-adv-x="1299" 
d="M251 89q-31 24 -63 56q-96 95 -142 206.5t-46 245.5t46 245.5t142 207.5q95 95 206.5 141t245.5 46q99 0 197 -33.5t197 -102.5h-1q26 -21 45.5 -40t30.5 -39l43 -41q-2 0 -2 1t-1 1l12 -10q47 -48 47 -92q0 -23 -9 -44t-25 -37t-36.5 -25t-43.5 -9q-35 0 -62.5 20
t-51.5 40q-4 4 -8.5 7.5t-8.5 7.5l-9 7q-91 70 -229 70q-165 0 -286 -121q-120 -119 -120 -285q0 -125 65 -224q110 -92 256 -92q145 0 239 79q4 1 8 7q2 1 4.5 2.5t4.5 3.5q2 3 5 5t5 4q22 20 47 36.5t56 16.5q33 0 61.5 -19.5t42.5 -48.5l58 -57q17 -17 26.5 -38t9.5 -44
q0 -70 -104 -140h1q-93 -64 -187 -95t-192 -31q-262 0 -449 186zM1085 966q0 48 -88 109q-174 120 -357 120q-246 0 -422 -176q-175 -175 -175 -422q0 -246 175 -421q176 -176 422 -176q182 0 357 119q87 60 87 110q0 15 -6 29t-16.5 25t-24 17.5t-28.5 6.5q-27 0 -55 -23
q-13 -11 -25.5 -22t-23.5 -21q-105 -87 -265 -87q-184 0 -314 130t-130 313t130 313q131 131 314 131q160 0 265 -87q11 -10 23.5 -21t25.5 -22q26 -22 55 -22q15 0 28.5 6.5t24 17t17 24.5t6.5 29z" />
    <glyph glyph-name="d" unicode="d" horiz-adv-x="1451" 
d="M1041 597q0 140 -90 250q-101 71 -226 71q-165 0 -286 -121q-120 -119 -120 -285q0 -125 65 -224q110 -92 256 -92q162 0 282 118q59 60 89 131t30 152zM251 89q-31 24 -63 56q-96 95 -142 206.5t-46 245.5t46 245.5t142 207.5q95 95 206.5 141t245.5 46q234 0 401 -153
v205q0 24 9.5 45.5t26 38t38.5 26t46 9.5q35 0 63 -18.5t42 -48.5l60 -58q16 -15 25 -36t9 -44v-1212q0 -23 -9 -43.5t-25 -36.5t-36.5 -25t-43.5 -9t-44 9.5t-36 24.5l-60 60q-8 4 -15.5 10t-15.5 12q-75 -57 -164.5 -86.5t-185.5 -29.5q-262 0 -449 186zM1084 597
q0 -182 -131 -313q-130 -130 -313 -130q-184 0 -314 130t-130 313t130 313q131 131 314 131q182 0 313 -131t131 -313zM1237 1289q0 15 -6.5 28.5t-17 24t-24 17t-28.5 6.5t-29 -6.5t-24.5 -17t-17 -24t-6.5 -28.5v-316q-167 222 -444 222q-246 0 -422 -176
q-175 -175 -175 -422q0 -246 175 -421q176 -176 422 -176q128 0 248 59q119 59 196 163v-145q0 -31 23 -54t54 -23q15 0 28.5 6.5t24 17t17 24.5t6.5 29v1212z" />
    <glyph glyph-name="e" unicode="e" horiz-adv-x="1299" 
d="M1162 232q2 0 2 -2zM319 512q0 -20 1.5 -39.5t3.5 -39.5l476 477q-19 4 -37 6t-38 2q-167 0 -286 -119q-120 -119 -120 -287zM251 89q-31 24 -63 56q-96 95 -142 206.5t-46 245.5t46 245.5t142 207.5q95 95 206.5 141t245.5 46q95 0 189.5 -31t191.5 -97q31 -22 53 -42.5
t35 -40.5l52 -51q47 -48 47 -94q0 -50 -32 -82l-599 -599q15 -3 30.5 -3.5t32.5 -0.5q140 0 232 72v2l14 13q26 25 56.5 46t66.5 21q35 0 62.5 -19.5t41.5 -48.5l49 -50l2 -2l7 -5q17 -17 26.5 -38t9.5 -44q0 -70 -104 -140h1q-93 -64 -187 -95t-192 -31q-262 0 -449 186z
M287 335q-91 113 -91 262q0 185 130 314q130 130 314 130q146 0 265 -89zM1085 966q0 49 -88 109q-180 120 -357 120q-246 0 -422 -176q-175 -175 -175 -422q0 -246 175 -421q176 -176 422 -176q182 0 357 119q87 60 87 110q0 15 -6 29t-16.5 25t-24 17.5t-28.5 6.5
q-14 0 -27.5 -6t-26.5 -16t-25.5 -21.5t-24.5 -22.5q-105 -87 -265 -87q-139 0 -254 80l677 677q22 22 22 55z" />
    <glyph glyph-name="f" unicode="f" horiz-adv-x="922" 
d="M874 1290q2 0 2 -1zM38 671q-29 15 -46.5 43.5t-17.5 62.5q0 24 9.5 45.5t26 38t38.5 26t46 9.5h128v393q0 24 9.5 45.5t25.5 38t38 26t46 9.5h376q35 0 63.5 -18.5t43.5 -48.5l50 -51l2 -1l6 -6q16 -15 25 -36t9 -44t-9 -43.5t-24.5 -36.5t-36.5 -25t-44 -9h-261v-193
h48q35 0 63.5 -18.5t42.5 -48.5l59 -58q16 -15 25 -36t9 -44t-9 -43.5t-24.5 -36.5t-36.5 -25t-44 -9h-133v-586q0 -23 -9 -43.5t-25 -36.5t-36.5 -25t-43.5 -9t-44 9.5t-37 24.5l-59 60q-29 14 -47 42.5t-18 63.5v500h-43q-23 0 -44 9.5t-36 24.5zM794 1289q0 15 -6.5 28.5
t-17 24t-24.5 17t-29 6.5h-376q-15 0 -29 -6.5t-24.5 -17t-16.5 -24t-6 -28.5v-436h-171q-15 0 -29 -6.5t-24.5 -17t-17 -24t-6.5 -28.5q0 -31 23 -54t54 -23h171v-623q0 -15 6 -29t16.5 -24.5t24.5 -17t29 -6.5q31 0 54 23t23 54v623h171q31 0 54 23t23 54q0 15 -6.5 28.5
t-17 24t-24.5 17t-29 6.5h-171v359h299q31 0 54 23t23 54z" />
    <glyph glyph-name="g" unicode="g" horiz-adv-x="1451" 
d="M1041 597q0 140 -90 250q-101 71 -226 71q-165 0 -286 -121q-120 -119 -120 -285q0 -125 65 -224q110 -92 256 -92q162 0 282 118q59 60 89 131t30 152zM251 89q-31 24 -63 56q-96 95 -142 206.5t-46 245.5t46 245.5t142 207.5q95 95 206.5 141t245.5 46q234 0 401 -153
v34q0 24 9.5 46t26 38t38.5 25.5t46 9.5q35 0 63 -18.5t42 -47.5l60 -58q16 -16 25 -36.5t9 -43.5v-1381q0 -23 -9 -44t-25 -37t-36.5 -25t-43.5 -9h-700q-23 0 -44 9.5t-36 25.5l-60 59q-28 14 -46.5 42.5t-18.5 63.5q0 24 9.5 46t26 38.5t38.5 26t46 9.5h580v112
q-72 -45 -152 -68.5t-164 -23.5q-262 0 -449 186zM1084 597q0 -182 -131 -313q-130 -130 -313 -130q-184 0 -314 130t-130 313t130 313q131 131 314 131q182 0 313 -131t131 -313zM1237 1118q0 15 -6.5 29t-17 24.5t-24 17t-28.5 6.5q-31 0 -54 -23t-23 -54v-145
q-167 222 -444 222q-246 0 -422 -176q-175 -175 -175 -422q0 -246 175 -421q176 -176 422 -176q128 0 248 59q119 59 196 163v-408h-623q-31 0 -54 -23t-23 -54t23 -54t54 -23h700q15 0 28.5 6.5t24 17t17 24.5t6.5 29v1381z" />
    <glyph glyph-name="h" unicode="h" 
d="M319 1290q2 0 2 -1zM362 1142q143 95 336 95q130 0 239 -47t203 -144q14 -14 27 -29t24 -29l31 -31q181 -185 181 -445v-521q0 -23 -9 -43.5t-25 -36.5t-36.5 -25t-43.5 -9t-44 9.5t-37 24.5l-59 60q-29 14 -47 42.5t-18 63.5v520q0 69 -23 132.5t-68 117.5
q-100 71 -225 71q-166 0 -287 -121q-119 -119 -119 -285v-521q0 -23 -9.5 -43.5t-25 -36.5t-36.5 -25t-44 -9t-43.5 9.5t-36.5 24.5l-59 60q-29 14 -47 42.5t-18 63.5v1212q0 24 9.5 45.5t25.5 38t38 26t46 9.5q35 0 63.5 -18.5t44.5 -48.5l49 -51l2 -1l7 -6
q15 -15 24.5 -36t9.5 -44v-61zM1280 597q0 243 -171 420q-169 178 -411 178q-287 0 -459 -222v316q0 15 -6.5 28.5t-17 24t-24.5 17t-29 6.5t-29 -6.5t-24.5 -17t-17 -24t-6.5 -28.5v-1212q0 -31 23 -54t54 -23t54 23t23 54v520q0 183 130 313q131 131 314 131
q181 0 312 -131t131 -313v-520q0 -31 23 -54t54 -23t54 23t23 54v520z" />
    <glyph glyph-name="i" unicode="i" horiz-adv-x="452" 
d="M108 -29q-29 14 -47 42.5t-18 63.5v1041q0 24 9.5 46t25.5 38t38 25.5t46 9.5q35 0 63.5 -18.5t42.5 -47.5l60 -58q15 -16 24.5 -36.5t9.5 -43.5v-1042q0 -23 -9.5 -43.5t-25 -36.5t-36.5 -25t-44 -9t-43.5 9.5t-36.5 24.5zM239 1118q0 31 -23 54t-54 23t-54 -23t-23 -54
v-1041q0 -31 23 -54t54 -23t54 23t23 54v1041z" />
    <glyph glyph-name="j" unicode="j" horiz-adv-x="452" 
d="M108 -369q-29 14 -47 42.5t-18 63.5v1381q0 24 9.5 46t25.5 38t38 25.5t46 9.5q35 0 63.5 -18.5t42.5 -47.5l60 -58q15 -16 24.5 -36.5t9.5 -43.5v-1381q0 -23 -9.5 -44t-25 -37t-36.5 -25t-44 -9t-43.5 9.5t-36.5 25.5zM239 1118q0 31 -23 54t-54 23t-54 -23t-23 -54
v-1381q0 -31 23 -54t54 -23t54 23t23 54v1381z" />
    <glyph glyph-name="k" unicode="k" horiz-adv-x="1176" 
d="M1085 1121q2 0 2 -1zM362 720l483 483q18 18 38 26t47 8q34 0 62 -18t42 -47l51 -51l2 -1l7 -6q15 -15 24.5 -36.5t9.5 -44.5q0 -52 -31 -82l-435 -436l353 -353q7 -6 12 -13.5t9 -15.5v-2l61 -58q31 -30 31 -82q0 -23 -9 -43.5t-24.5 -36.5t-36 -25t-43.5 -9
q-49 0 -81 33l-62 61q-14 7 -27 20l-353 354l-130 -130v-224q0 -23 -9.5 -43.5t-25 -36.5t-36.5 -25t-44 -9t-43.5 9.5t-36.5 24.5l-59 60q-29 14 -47 42.5t-18 63.5v1212q0 24 9.5 45.5t25.5 38t38 26t46 9.5q35 0 63.5 -18.5t42.5 -48.5l60 -58q15 -15 24.5 -36t9.5 -44
v-483zM1005 77q0 34 -20 54l-466 466l466 466q20 22 20 55q0 31 -22 54t-53 23t-54 -23l-637 -636v753q0 15 -6.5 28.5t-17 24t-24.5 17t-29 6.5t-29 -6.5t-24.5 -17t-17 -24t-6.5 -28.5v-1212q0 -31 23 -54t54 -23t54 23t23 54v240l171 171l466 -466q22 -22 54 -22
q31 0 53 23t22 54z" />
    <glyph glyph-name="l" unicode="l" horiz-adv-x="452" 
d="M108 -29q-29 14 -47 42.5t-18 63.5v1212q0 24 9.5 45.5t25.5 38t38 26t46 9.5q35 0 63.5 -18.5t42.5 -48.5l60 -58q15 -15 24.5 -36t9.5 -44v-1212q0 -23 -9.5 -43.5t-25 -36.5t-36.5 -25t-44 -9t-43.5 9.5t-36.5 24.5zM239 1289q0 15 -6.5 28.5t-17 24t-24.5 17t-29 6.5
t-29 -6.5t-24.5 -17t-17 -24t-6.5 -28.5v-1212q0 -31 23 -54t54 -23t54 23t23 54v1212z" />
    <glyph glyph-name="m" unicode="m" horiz-adv-x="1920" 
d="M108 -29q-29 14 -47 42.5t-18 63.5v1041q0 24 9.5 46t25.5 38t38 25.5t46 9.5q34 0 61.5 -18t42.5 -47l10 -11q113 76 253 76q104 0 195.5 -47.5t156.5 -129.5l17 -17q63 91 158 142.5t207 51.5q200 0 343 -143q13 -14 25 -28t23 -28l34 -33q142 -142 142 -339v-675
q0 -23 -9.5 -43.5t-25 -36.5t-36.5 -25t-44 -9t-44 9.5t-36 24.5l-60 60q-28 14 -46.5 42.5t-18.5 63.5v674q0 37 -11.5 72t-34.5 66q-27 16 -56 22.5t-60 6.5q-101 0 -177 -77q-75 -74 -75 -175v-675q0 -23 -9.5 -43.5t-25 -36.5t-36.5 -25t-44 -9t-43.5 9.5t-36.5 24.5
l-60 60q-28 14 -46 42.5t-18 63.5v674q0 76 -47 138q-26 16 -55.5 22.5t-60.5 6.5q-101 0 -177 -77q-75 -74 -75 -175v-675q0 -23 -9.5 -43.5t-25 -36.5t-36.5 -25t-44 -9t-43.5 9.5t-36.5 24.5zM1707 751q0 182 -131 313t-313 131q-119 0 -219 -65q-98 -64 -148 -174
q-50 110 -148 174q-100 65 -219 65q-175 0 -290 -123v46q0 31 -23 54t-54 23t-54 -23t-23 -54v-1041q0 -31 23 -54t54 -23t54 23t23 54v674q0 118 86 204t204 86t204 -86t86 -204v-674q0 -31 23 -54t54 -23t54 23t23 54v674q0 118 86 204t204 86t204 -86t86 -204v-674
q0 -31 23 -54t54 -23t54 23t23 54v674z" />
    <glyph glyph-name="n" unicode="n" 
d="M319 1120q2 0 2 -2zM323 1114q157 123 375 123q130 0 239 -47t203 -144q14 -14 27 -29t24 -29l31 -31q181 -185 181 -445v-521q0 -23 -9 -43.5t-25 -36.5t-36.5 -25t-43.5 -9t-44 9.5t-37 24.5l-59 60q-29 14 -47 42.5t-18 63.5v520q0 69 -23 132.5t-68 117.5
q-100 71 -225 71q-166 0 -287 -121q-119 -119 -119 -285v-521q0 -23 -9.5 -43.5t-25 -36.5t-36.5 -25t-44 -9t-43.5 9.5t-36.5 24.5l-59 60q-29 14 -47 42.5t-18 63.5v1041q0 24 9.5 46t25.5 38t38 25.5t46 9.5q35 0 63.5 -18.5t44.5 -47.5l49 -51zM1280 597q0 243 -171 420
q-169 178 -411 178q-287 0 -459 -222v145q0 31 -23 54t-54 23t-54 -23t-23 -54v-1041q0 -31 23 -54t54 -23t54 23t23 54v520q0 183 130 313q131 131 314 131q181 0 312 -131t131 -313v-520q0 -31 23 -54t54 -23t54 23t23 54v520z" />
    <glyph glyph-name="o" unicode="o" horiz-adv-x="1408" 
d="M1041 597q0 140 -90 250q-101 71 -226 71q-165 0 -286 -121q-120 -119 -120 -285q0 -125 65 -224q110 -92 256 -92q162 0 282 118q59 60 89 131t30 152zM251 89q-31 24 -63 56q-96 95 -142 206.5t-46 245.5t46 245.5t142 207.5q95 95 206.5 141t245.5 46t245.5 -46
t206.5 -141q16 -16 30 -32t27 -32l25 -25q186 -186 186 -449t-186 -449t-449 -186q-262 0 -449 186zM1084 597q0 -182 -131 -313q-130 -130 -313 -130q-184 0 -314 130t-130 313t130 313q131 131 314 131q182 0 313 -131t131 -313zM1237 597q0 246 -176 422t-421 176
q-246 0 -422 -176q-175 -175 -175 -422q0 -246 175 -421q176 -176 422 -176q245 0 421 176t176 421z" />
    <glyph glyph-name="p" unicode="p" horiz-adv-x="1451" 
d="M319 1120q2 0 2 -2zM1084 597q0 69 -23 132.5t-68 117.5q-100 71 -225 71q-166 0 -287 -121q-119 -119 -119 -285q0 -62 15.5 -117.5t49.5 -106.5q110 -92 256 -92q163 0 281 118q120 120 120 283zM323 1114q78 60 170 91.5t190 31.5q134 0 245.5 -46t206.5 -141
q15 -16 29 -32t27 -32l22 -23q0 1 -1 1v0l5 -3q94 -94 140 -205t46 -244q0 -262 -186 -449q-94 -94 -205 -140t-244 -46q-244 0 -406 161v-386q0 -23 -9.5 -44t-25 -37t-36.5 -25t-44 -9t-43.5 9.5t-36.5 25.5l-59 59q-29 14 -47 42.5t-18 63.5v1381q0 24 9.5 46t25.5 38
t38 25.5t46 9.5q35 0 63.5 -18.5t44.5 -47.5l49 -51zM1126 597q0 -182 -131 -313q-130 -130 -312 -130q-184 0 -314 130t-130 313t130 313q131 131 314 131q181 0 312 -131t131 -313zM1280 597q0 246 -176 422t-421 176q-129 0 -249 -59q-117 -58 -195 -163v145q0 31 -23 54
t-54 23t-54 -23t-23 -54v-1381q0 -31 23 -54t54 -23t54 23t23 54v485q165 -222 444 -222q245 0 421 176t176 421z" />
    <glyph glyph-name="q" unicode="q" horiz-adv-x="1451" 
d="M1041 597q0 140 -90 250q-101 71 -226 71q-165 0 -286 -121q-120 -119 -120 -285q0 -125 65 -224q110 -92 256 -92q162 0 282 118q59 60 89 131t30 152zM251 89q-31 24 -63 56q-96 95 -142 206.5t-46 245.5t46 245.5t142 207.5q95 95 206.5 141t245.5 46q234 0 401 -153
v34q0 24 9.5 46t26 38t38.5 25.5t46 9.5q35 0 63 -18.5t42 -47.5l60 -58q16 -16 25 -36.5t9 -43.5v-1381q0 -23 -9 -44t-25 -37t-36.5 -25t-43.5 -9t-44 9.5t-36 25.5l-60 59q-29 14 -47 42.5t-18 63.5v232q-72 -45 -152 -68.5t-164 -23.5q-262 0 -449 186zM1084 597
q0 -182 -131 -313q-130 -130 -313 -130q-184 0 -314 130t-130 313t130 313q131 131 314 131q182 0 313 -131t131 -313zM1237 1118q0 15 -6.5 29t-17 24.5t-24 17t-28.5 6.5q-31 0 -54 -23t-23 -54v-145q-167 222 -444 222q-246 0 -422 -176q-175 -175 -175 -422
q0 -246 175 -421q176 -176 422 -176q128 0 248 59q119 59 196 163v-485q0 -31 23 -54t54 -23q15 0 28.5 6.5t24 17t17 24.5t6.5 29v1381z" />
    <glyph glyph-name="r" unicode="r" horiz-adv-x="930" 
d="M319 1120q2 0 2 -2zM108 -29q-29 14 -47 42.5t-18 63.5v1041q0 24 9.5 46t25.5 38t38 25.5t46 9.5q35 0 63.5 -18.5t44.5 -47.5l49 -51l4 -4q154 121 360 121q35 0 63 -18.5t42 -47.5l55 -55h-1t-1 2l7 -5q16 -16 25 -36.5t9 -43.5t-9 -44t-25 -37t-36.5 -25t-43.5 -9
q-166 0 -287 -121q-119 -119 -119 -285v-521q0 -23 -9.5 -43.5t-25 -36.5t-36.5 -25t-44 -9t-43.5 9.5t-36.5 24.5zM759 1118q0 15 -6.5 29t-17 24.5t-24 17t-28.5 6.5q-272 0 -444 -222v145q0 31 -23 54t-54 23t-54 -23t-23 -54v-1041q0 -31 23 -54t54 -23t54 23t23 54v520
q0 183 130 313q131 131 314 131q15 0 28.5 6.5t24 17t17 24.5t6.5 29z" />
    <glyph glyph-name="s" unicode="s" horiz-adv-x="886" 
d="M319 771q0 -13 1.5 -23t3.5 -21q24 -10 55 -10q157 0 268 -111q11 -11 20.5 -23t18.5 -25l43 -41q109 -109 109 -264q0 -157 -109 -267q-110 -109 -265 -109q-75 0 -145 28t-121 80l-44 42q-34 25 -61 56t-45 69q-14 27 -14 56q0 23 9.5 44.5t26 38t37.5 26t45 9.5
q48 0 123 -79q48 -51 104 -51q27 0 52 11.5t45 31.5t31.5 46t11.5 53q0 28 -12 51q-11 4 -21.5 6.5t-21.5 2.5q-156 0 -264 109l-43 41q-11 9 -23 19t-23 22q-111 111 -111 268t111 268q57 57 122.5 84.5t145.5 27.5q44 0 88.5 -11t85 -31.5t75 -49.5t60.5 -65l44 -44
q35 -36 58 -79q14 -28 14 -54q0 -23 -9.5 -44t-25 -37t-36.5 -25t-44 -9q-42 0 -100 59l-43 40q-37 31 -82 31q-58 0 -102 -44q-43 -43 -43 -103zM715 338q0 138 -99 237t-237 99q-75 0 -129 54t-54 129t54 129q54 55 129 55q76 0 135 -65t90 -65t54 23t23 54q0 18 -10 38
q-41 77 -122 123q-80 46 -170 46q-138 0 -237 -100q-99 -101 -99 -238q0 -138 99 -237t237 -99q75 0 128 -54q54 -54 54 -129t-54 -130q-53 -54 -128 -54q-74 0 -135 64q-62 65 -92 65q-15 0 -28.5 -6t-24 -16.5t-16.5 -24t-6 -28.5q0 -20 10 -39q37 -78 119 -124
q82 -45 173 -45q138 0 237 100t99 238z" />
    <glyph glyph-name="t" unicode="t" horiz-adv-x="922" 
d="M541 196h176q35 0 63.5 -18.5t42.5 -47.5l59 -58q16 -16 25 -37t9 -44t-9 -43.5t-24.5 -36.5t-36.5 -25t-44 -9h-375q-23 0 -44 9.5t-37 24.5l-59 60q-29 14 -47 42.5t-18 63.5v841h-43q-23 0 -44 9.5t-36 24.5l-60 58q-28 16 -46.5 44.5t-18.5 63.5q0 24 9.5 46t26 38
t38.5 25.5t46 9.5h128v52q0 24 9.5 45.5t25.5 38t38 26t46 9.5q35 0 63.5 -18.5t42.5 -48.5l55 -54h-1t-1 2l7 -6q20 -21 27 -46h55q35 0 63.5 -18.5t42.5 -47.5l59 -58q16 -16 25 -36.5t9 -43.5t-9 -44t-24.5 -37t-36.5 -25t-44 -9h-133v-722zM794 77q0 31 -23 54t-54 23
h-299v887h171q31 0 54 23t23 54t-23 54t-54 23h-171v94q0 15 -6.5 28.5t-17 24t-24.5 17t-29 6.5t-29 -6.5t-24.5 -17t-16.5 -24t-6 -28.5v-94h-171q-31 0 -54 -23t-23 -54t23 -54t54 -23h171v-964q0 -15 6 -29t16.5 -24.5t24.5 -17t29 -6.5h376q31 0 54 23t23 54z" />
    <glyph glyph-name="u" unicode="u" 
d="M1360 1120q2 0 2 -2zM362 512q0 -62 15.5 -117.5t49.5 -106.5q110 -92 256 -92q163 0 281 118q120 120 120 283v521q0 24 9.5 46t25.5 38t38 25.5t46 9.5q35 0 63.5 -18.5t44.5 -47.5l49 -51l2 -2l7 -5q15 -16 24.5 -36.5t9.5 -43.5v-1042q0 -23 -9 -43.5t-25 -36.5
t-36.5 -25t-43.5 -9t-44 9.5t-37 24.5l-59 60q-8 4 -15.5 10t-15.5 12q-152 -116 -365 -116q-252 0 -434 184l-22 23q-20 14 -37.5 30.5t-34.5 33.5q-93 96 -137.5 207t-44.5 242v521q0 24 9.5 46t25.5 38t38 25.5t46 9.5q35 0 63.5 -18.5t42.5 -47.5l60 -58
q15 -16 24.5 -36.5t9.5 -43.5v-521zM1280 1118q0 31 -23 54t-54 23t-54 -23t-23 -54v-521q0 -182 -131 -313q-130 -130 -312 -130q-184 0 -314 130t-130 313v521q0 31 -23 54t-54 23t-54 -23t-23 -54v-521q0 -242 171 -420q171 -177 411 -177q286 0 459 222v-145
q0 -31 23 -54t54 -23t54 23t23 54v1041z" />
    <glyph glyph-name="v" unicode="v" horiz-adv-x="1241" 
d="M258 1116q14 -15 25 -37l294 -657l333 744q33 71 109 71q35 0 63.5 -18.5t42.5 -47.5l59 -58q16 -16 25.5 -36.5t9.5 -43.5q0 -14 -3 -25.5t-8 -22.5h-1l-453 -1021l-1 -3l-5 -16q-16 -33 -41 -50.5t-65 -17.5q-50 0 -81 31l-61 61q-20 9 -33 24.5t-23 37.5l-2 1v4l-3 12
l-453 1019q-8 14 -10 26t-2 25q0 24 9.5 46t26 38t38.5 25.5t46 9.5q68 0 104 -61zM1096 1118q0 31 -23 54t-54 23q-51 0 -70 -46l-393 -879l-392 879q-21 46 -70 46q-31 0 -54 -23t-23 -54q0 -16 7 -31l456 -1026q5 -15 6 -20q17 -41 70 -41t70 41q2 7 4 12t3 8l456 1026
q7 15 7 31z" />
    <glyph glyph-name="w" unicode="w" horiz-adv-x="1753" 
d="M1022 568l65 -150l335 748q33 71 109 71q35 0 63.5 -18.5t42.5 -47.5l54 -55h-1v2l6 -5q16 -16 25.5 -36.5t9.5 -43.5q0 -14 -3 -25.5t-8 -22.5h-1l-453 -1021l-1 -3l-5 -16q-16 -33 -41 -50.5t-65 -17.5q-50 0 -81 31l-61 61q-20 9 -33 24.5t-23 37.5l-2 1v4l-3 12
l-81 179l-116 -263l-1 -3l-5 -16q-16 -33 -41 -50.5t-65 -17.5q-50 0 -81 31l-61 61q-20 9 -33 24.5t-23 37.5l-2 1v4l-3 12l-453 1019q-8 14 -10 26t-2 25q0 24 9.5 46t26 38t38.5 25.5t46 9.5q68 0 104 -61l60 -60q14 -15 25 -37l294 -659l104 232l-183 415l-1 3
q-7 13 -9 24t-2 24q0 24 9.5 46t26 38t38.5 25.5t46 9.5q68 0 104 -61l55 -56h-1t-1 1l7 -5q14 -15 25 -37l38 -86l77 173q33 71 109 71q35 0 63.5 -18.5t42.5 -47.5l59 -58q16 -16 25.5 -36.5t9.5 -43.5q0 -14 -3 -25.5t-8 -22.5h-1zM1608 1118q0 31 -23 54t-54 23
q-51 0 -70 -46l-393 -879l-172 384l193 433q7 15 7 31q0 31 -23 54t-54 23q-51 0 -70 -46l-137 -306l-136 306q-21 46 -70 46q-31 0 -54 -23t-23 -54q0 -16 7 -31l193 -433l-173 -384l-392 879q-21 46 -70 46q-31 0 -54 -23t-23 -54q0 -16 7 -31l456 -1026q5 -15 6 -20
q17 -41 70 -41t70 41q2 7 4 12t3 8l179 403l180 -403q5 -15 6 -20q17 -41 70 -41t70 41q2 7 4 12t3 8l456 1026q7 15 7 31z" />
    <glyph glyph-name="x" unicode="x" horiz-adv-x="1237" 
d="M1147 1120q2 0 2 -2zM292 1106l266 -319l341 408q20 23 41 32.5t50 9.5q35 0 63.5 -18.5t43.5 -47.5l50 -51l2 -2l6 -5q16 -16 25.5 -36.5t9.5 -43.5q0 -21 -7.5 -39t-20.5 -35l-375 -447l375 -447q13 -17 20.5 -35t7.5 -39q0 -23 -9.5 -43.5t-25 -36.5t-36.5 -25t-44 -9
t-42 7t-36 24l-62 61q-20 11 -36 31l-269 321l-338 -403q-18 -22 -39 -31.5t-50 -9.5q-47 0 -78 33l-62 61q-28 15 -45.5 43t-17.5 63q0 22 6 40t21 35l372 445l-372 446q-15 17 -21 35t-6 40q0 24 9.5 46t25.5 38t37.5 25.5t45.5 9.5q29 0 50.5 -9.5t41.5 -32.5l26 -31
l47 -48q2 -2 3 -4l2 -4zM1067 77q0 27 -19 49l-394 471l394 471q19 22 19 50q0 31 -23 54t-54 23q-36 0 -58 -28l-377 -450l-378 450q-22 28 -59 28q-31 0 -53 -23t-22 -54q0 -26 17 -48l396 -473l-396 -472q-17 -22 -17 -48q0 -31 22 -54t53 -23q36 0 59 27l378 451
l377 -451q22 -27 58 -27q31 0 54 23t23 54z" />
    <glyph glyph-name="y" unicode="y" 
d="M1360 1120q2 0 2 -2zM319 1120q2 0 2 -2zM362 512q0 -62 15.5 -117.5t49.5 -106.5q110 -92 256 -92q163 0 281 118q120 120 120 283v521q0 24 9.5 46t25.5 38t38 25.5t46 9.5q35 0 63.5 -18.5t44.5 -47.5l49 -51l2 -2l7 -5q15 -16 24.5 -36.5t9.5 -43.5v-1381
q0 -23 -9 -44t-25 -37t-36.5 -25t-43.5 -9h-700q-23 0 -44 9.5t-36 25.5l-60 59q-29 14 -47 42.5t-18 63.5q0 24 9.5 46t26 38.5t38 26t45.5 9.5h581v112q-74 -45 -155.5 -68.5t-175.5 -23.5q-252 0 -434 184l-22 23q-20 14 -37.5 30.5t-34.5 33.5q-93 98 -137.5 209.5
t-44.5 239.5v521q0 24 9.5 46t25.5 38t38 25.5t46 9.5q35 0 63.5 -18.5t44.5 -47.5l49 -51l2 -2l7 -5q15 -16 24.5 -36.5t9.5 -43.5v-521zM1280 1118q0 31 -23 54t-54 23t-54 -23t-23 -54v-521q0 -182 -131 -313q-130 -130 -312 -130q-184 0 -314 130t-130 313v521
q0 31 -23 54t-54 23t-54 -23t-23 -54v-521q0 -241 171 -419t411 -178q286 0 459 222v-408h-623q-15 0 -29 -6.5t-24.5 -17t-16.5 -24.5t-6 -29t6 -29t16.5 -24.5t24.5 -17t29 -6.5h700q31 0 54 23t23 54v1381z" />
    <glyph glyph-name="z" unicode="z" horiz-adv-x="1237" 
d="M524 196h466q35 0 63.5 -18.5t42.5 -47.5l59 -58q16 -16 25.5 -37t9.5 -44t-9.5 -43.5t-25 -36.5t-36.5 -25t-44 -9h-872q-47 0 -78 33l-62 61q-28 15 -45.5 43t-17.5 63q0 22 6 40t21 35l640 766h-462q-23 0 -44 9.5t-36 24.5l-60 58q-29 16 -47 44.5t-18 63.5
q0 24 9.5 46t26 38t38 25.5t45.5 9.5h871q35 0 63.5 -18.5t42.5 -47.5l59 -58q16 -16 25.5 -36.5t9.5 -43.5q0 -22 -8.5 -41.5t-24.5 -39.5zM1067 77q0 31 -23 54t-54 23h-707l760 908q24 28 24 56q0 31 -23 54t-54 23h-871q-15 0 -29 -6.5t-24.5 -17t-16.5 -24.5t-6 -29
t6 -29t16.5 -24.5t24.5 -17t29 -6.5h707l-766 -916q-17 -22 -17 -48q0 -31 22 -54t53 -23h872q31 0 54 23t23 54z" />
    <glyph glyph-name="braceleft" unicode="{" horiz-adv-x="1084" 
d="M678 27h73q35 0 63.5 -18t42.5 -47l59 -59q16 -16 25.5 -36.5t9.5 -43.5t-9.5 -44t-25 -37t-36.5 -25t-44 -9h-273q-23 0 -44 9.5t-36 24.5l-60 60q-28 14 -46.5 42.5t-18.5 63.5v575h-68q-23 0 -44 9.5t-36 24.5l-60 58q-28 16 -46.5 44.5t-18.5 63.5q0 24 9.5 46t26 38
t38.5 25.5t46 9.5h153v657q0 24 9.5 46t26 38.5t38.5 26t46 9.5h273q35 0 63.5 -19t42.5 -48l54 -55h-1v2l6 -5q16 -15 25.5 -36t9.5 -44t-9.5 -44t-25 -36.5t-36.5 -24.5t-44 -9h-158v-586q0 -22 -8.5 -41.5t-22.5 -35.5q14 -15 22.5 -34.5t8.5 -41.5v-494zM828 -92
q0 31 -23 54t-54 23h-196v621q0 31 -23 54t-54 23q15 0 29 6t24.5 16.5t17 24.5t6.5 29v623h196q31 0 54 23t23 54t-23 54t-54 23h-273q-31 0 -54 -23t-23 -54v-700h-196q-15 0 -29 -6.5t-24.5 -17t-17 -24t-6.5 -28.5q0 -31 23 -54t54 -23h196v-698q0 -31 23 -54t54 -23
h273q31 0 54 23t23 54z" />
    <glyph glyph-name="bar" unicode="|" horiz-adv-x="538" 
d="M150 -198q-28 14 -46.5 42.5t-18.5 63.5v1551q0 24 9.5 46t26 38.5t38.5 26t46 9.5q35 0 63.5 -19t42.5 -48l59 -58q16 -15 25 -36t9 -44v-1551q0 -23 -9 -44t-24.5 -37t-36.5 -25t-44 -9t-44 9.5t-36 24.5zM282 1459q0 31 -23 54t-54 23t-54 -23t-23 -54v-1551
q0 -31 23 -54t54 -23t54 23t23 54v1551z" />
    <glyph glyph-name="braceright" unicode="}" horiz-adv-x="1084" 
d="M908 684q2 0 2 -1zM678 802h73q35 0 63.5 -18.5t43.5 -47.5l50 -52l2 -1l6 -5q16 -16 25.5 -37t9.5 -44t-9.5 -43.5t-25 -36.5t-36.5 -25t-44 -9h-158v-660q0 -23 -9.5 -44t-25 -37t-36.5 -25t-44 -9h-273q-23 0 -44 9.5t-36 24.5l-60 60q-28 14 -46.5 42.5t-18.5 63.5
q0 24 9.5 46t26 38t38.5 25.5t46 9.5h153v579q0 22 7.5 41.5t21.5 35.5q-29 32 -29 76v501h-68q-23 0 -44 9t-36 25l-60 58q-28 15 -46.5 43.5t-18.5 63.5q0 24 9.5 46t26 38.5t38.5 26t46 9.5h273q35 0 63.5 -19t42.5 -48l59 -58q16 -15 25.5 -36t9.5 -44v-572zM828 683
q0 15 -6.5 28.5t-17 24t-24.5 17t-29 6.5h-196v700q0 31 -23 54t-54 23h-273q-31 0 -54 -23t-23 -54t23 -54t54 -23h196v-623q0 -15 6.5 -29t17 -24.5t24.5 -16.5t29 -6q-31 0 -54 -23t-23 -54v-621h-196q-31 0 -54 -23t-23 -54t23 -54t54 -23h273q31 0 54 23t23 54v698h196
q31 0 54 23t23 54z" />
    <glyph glyph-name="asciitilde" unicode="~" horiz-adv-x="1203" 
d="M125 538q-40 15 -40 73v72q0 70 142 129q117 50 174 50q35 0 75.5 -16.5t86.5 -51.5q35 -25 63.5 -38.5t47.5 -13.5q41 0 120 41q48 23 79.5 35.5t49.5 12.5q22 0 38 -10t22 -29l68 -67q19 -19 19 -56v-72q0 -33 -34.5 -64.5t-103.5 -59.5q-117 -50 -173 -50
q-71 0 -160 67q-36 26 -64 39.5t-49 13.5q-41 0 -121 -41q-48 -23 -79.5 -35.5t-48.5 -12.5q-27 0 -42 15zM947 754q0 34 -24 34q-23 0 -111 -44t-138 -44q-53 0 -136 59q-83 60 -137 60q-50 0 -157 -46q-116 -50 -116 -90v-72q0 -34 24 -34q23 0 111 44q87 45 138 45
q55 0 136 -60t137 -60q52 0 157 46q116 50 116 91v71z" />
    <glyph glyph-name="nonbreakingspace" unicode="&#xa0;" horiz-adv-x="896" 
 />
    <glyph glyph-name="exclamdown" unicode="&#xa1;" horiz-adv-x="538" 
d="M150 1010q-28 16 -46.5 44.5t-18.5 63.5q0 24 9.5 46t26 38t38.5 25.5t46 9.5q35 0 63.5 -18.5t42.5 -47.5l54 -55h-1v2l6 -5q16 -16 25 -36.5t9 -43.5t-9 -44t-24.5 -37t-36.5 -25t-44 -9t-44 9.5t-36 24.5zM150 -198q-28 14 -46.5 42.5t-18.5 63.5v886q0 24 9.5 45.5
t26 38t38.5 26t46 9.5q35 0 63.5 -18.5t42.5 -47.5l59 -59q16 -15 25 -36t9 -44v-885q0 -23 -9 -44t-24.5 -37t-36.5 -25t-44 -9t-44 9.5t-36 24.5zM282 794q0 15 -6.5 28.5t-17 24t-24.5 17t-29 6.5t-29 -6.5t-24.5 -17t-17 -24t-6.5 -28.5v-886q0 -31 23 -54t54 -23t54 23
t23 54v886zM282 1118q0 31 -23 54t-54 23t-54 -23t-23 -54t23 -54t54 -23t54 23t23 54z" />
    <glyph glyph-name="cent" unicode="&#xa2;" horiz-adv-x="1427" 
d="M404 597q0 -59 16.5 -114.5t47.5 -103.5q4 -3 6.5 -5.5t6.5 -4.5l121 578q-48 -30 -92 -77q-53 -59 -79.5 -126t-26.5 -147zM1033 1357q0 -20 -5 -47t-13 -61q14 -8 28.5 -14.5t28.5 -14.5q48 -28 78.5 -56t47.5 -56l46 -46q50 -50 50 -96q0 -23 -9.5 -43.5t-25 -36.5
t-36.5 -25t-44 -9q-35 0 -62.5 19.5t-51.5 39.5q-4 4 -8.5 8t-8.5 8l-5 5q-38 27 -87 46l-150 -690q44 8 81.5 23.5t69.5 41.5v2l14 14q26 24 56.5 45t66.5 21q33 0 61.5 -19.5t42.5 -48.5l58 -56q17 -17 26.5 -38t9.5 -44q0 -70 -104 -140q-94 -65 -187 -96t-190 -31
q-20 0 -38 1t-36 3l-30 -149v-1q-9 -45 -38 -68t-75 -23q-23 0 -44 9.5t-36 24.5l-60 60q-29 14 -47 42.5t-18 63.5v11t2 13l31 147q-17 11 -31.5 24.5t-28.5 27.5l-29 28q-88 67 -147 160q-101 157 -101 347q0 131 46.5 242t139.5 207q87 88 189 133t223 54l32 150
q11 45 40.5 69t77.5 24q35 0 63.5 -19t42.5 -48l59 -58q16 -15 25.5 -36t9.5 -44zM510 295q-105 61 -166 164q-62 104 -62 224q0 170 116 298q117 127 288 144zM1171 1051q0 60 -121 132q-95 54 -178 78q6 23 12 45l12 44q7 28 10.5 50.5t3.5 41.5q0 31 -23 54t-54 23
q-61 0 -75 -62l-38 -177q-243 -1 -418 -178q-174 -176 -174 -419q0 -173 95 -322q95 -147 253 -221l-43 -200q-1 -5 -1 -15q0 -31 23 -54t54 -23q61 0 75 62l39 184q49 -9 102 -9q181 0 357 120q87 60 87 109q0 31 -22 55t-53 24q-14 0 -27 -6.5t-26.5 -16t-26 -21.5
t-24.5 -23q-104 -87 -265 -87q-19 0 -36 1.5t-34 3.5l186 867q90 -22 149 -72q12 -10 24.5 -21.5t26 -21t26.5 -15.5t27 -6q15 0 29 6t24.5 16.5t17 24.5t6.5 29z" />
    <glyph glyph-name="sterling" unicode="&#xa3;" horiz-adv-x="1331" 
d="M1155 79q2 0 2 -2zM857 778q1 0 1 -1zM652 196h346q35 0 63.5 -18.5t44.5 -47.5l49 -51l2 -2l7 -5q15 -16 24.5 -37t9.5 -44t-9 -43.5t-25 -36.5t-36.5 -25t-43.5 -9h-546q-23 0 -44 9.5t-37 24.5l-59 60q-29 14 -47 42.5t-18 63.5v500h-43q-23 0 -44 9.5t-36 24.5
l-60 58q-28 15 -46.5 44t-18.5 64q0 24 9.5 45.5t26 38t38.5 26t46 9.5h128v393q0 24 9.5 45.5t25.5 38t38 26t46 9.5h376q35 0 63.5 -18.5t42.5 -48.5l59 -58q16 -15 25 -36t9 -44t-9 -43.5t-24.5 -36.5t-36.5 -25t-44 -9h-261v-193h48q35 0 63.5 -18.5t43.5 -48.5l50 -51
l1 -1l7 -6q16 -15 25 -36t9 -44t-9 -43.5t-24.5 -36.5t-36.5 -25t-44 -9h-133v-381zM1075 77q0 31 -23 54t-54 23h-469v546h171q15 0 29 6.5t24.5 17t17 24.5t6.5 29t-6.5 28.5t-17 24t-24.5 17t-29 6.5h-171v359h299q15 0 29 6.5t24.5 17t17 24.5t6.5 29t-6.5 28.5t-17 24
t-24.5 17t-29 6.5h-376q-15 0 -29 -6.5t-24.5 -17t-17 -24t-6.5 -28.5v-436h-170q-15 0 -29 -6.5t-24.5 -17t-17 -24t-6.5 -28.5q0 -31 23 -54t54 -23h170v-623q0 -15 6.5 -29t17 -24.5t24.5 -17t29 -6.5h546q31 0 54 23t23 54z" />
    <glyph glyph-name="currency" unicode="&#xa4;" horiz-adv-x="1408" 
d="M887 683q0 37 -11.5 72t-34.5 66q-26 15 -55.5 22t-60.5 7q-100 0 -177 -77q-75 -74 -75 -176q0 -33 6.5 -63.5t22.5 -57.5q59 -41 138 -41q100 0 172 74q38 37 56.5 81t18.5 93zM1207 597q0 -132 -69 -244l50 -48q12 -13 20 -29l62 -59q32 -32 32 -82q0 -24 -9 -44.5
t-24.5 -36.5t-36 -25t-44.5 -9q-49 0 -82 33l-62 60q-13 7 -27 22l-48 46q-111 -65 -244 -65q-135 0 -249 68l-131 -131q-33 -33 -82 -33q-25 0 -45 9.5t-35 25.5l-58 58q-31 14 -49 42.5t-18 64.5q0 52 34 85l130 130q-36 60 -52 121t-16 127q0 130 68 245l-130 132
q-18 18 -26 38t-8 47q0 120 119 120q27 0 47.5 -8.5t38.5 -25.5l130 -130q115 68 247 68q66 0 126 -17.5t120 -52.5l131 132q18 17 38.5 25.5t47.5 8.5q84 0 109 -58l61 -62q29 -29 29 -85q0 -50 -32 -82l-133 -133q70 -114 70 -248zM930 683q0 -118 -86 -204t-204 -86
t-204 86t-86 204q0 117 86 203q85 87 204 87q118 0 204 -87q86 -86 86 -203zM1179 220q0 33 -22 55l-153 153q80 116 80 255t-80 254l153 154q22 22 22 54q0 77 -76 77q-33 0 -55 -22l-154 -154q-115 80 -254 80t-254 -80l-154 154q-22 22 -55 22q-76 0 -76 -77
q0 -32 22 -54l153 -154q-80 -115 -80 -254t80 -255l-153 -153q-22 -22 -22 -55q0 -32 22 -54.5t54 -22.5t55 23l154 153q115 -80 254 -80t254 80l154 -153q23 -23 55 -23t54 22.5t22 54.5z" />
    <glyph glyph-name="yen" unicode="&#xa5;" horiz-adv-x="1335" 
d="M1026 249q1 0 1 -2zM1270 1290q1 0 1 -1zM1026 591q1 0 1 -2zM258 1287q2 -3 4 -5.5t4 -4.5l340 -407l416 495q20 23 41 33t50 10q35 0 63.5 -18.5t43.5 -48.5l50 -51l1 -1l7 -6q16 -15 25 -36t9 -44q0 -38 -27 -73l-365 -434q18 -9 32.5 -22.5t23.5 -31.5l50 -51l1 -2
l7 -5q16 -16 25 -37t9 -44t-9 -43.5t-25 -36.5t-36.5 -25t-43.5 -9h-152v-22h67q35 0 63.5 -18.5t43.5 -48.5l50 -51l1 -2l7 -5q16 -15 25 -36t9 -44t-9 -43.5t-25 -36.5t-36.5 -25t-43.5 -9h-152v-57q0 -23 -9 -43.5t-25 -36.5t-36.5 -25t-43.5 -9t-44 9.5t-36 24.5l-60 60
q-22 11 -38.5 31t-23.5 46h-61q-23 0 -44 9t-36 25l-60 58q-29 15 -47 43.5t-18 63.5q0 24 9.5 46t26 38.5t38.5 26t46 9.5h143v22h-58q-23 0 -44 9.5t-36 24.5l-60 58q-29 16 -47 44.5t-18 63.5q0 24 9.5 46t26 38t38.5 25.5t46 9.5h88l-426 505q-16 17 -22 35.5t-6 40.5
q0 24 9.5 45.5t25.5 38t37.5 26t45.5 9.5q29 0 51 -10t41 -33l26 -32zM1190 1289q0 15 -6.5 28.5t-17 24t-24.5 17t-29 6.5q-36 0 -58 -27l-453 -538l-450 538q-23 27 -60 27q-31 0 -53 -23t-22 -53q0 -28 17 -48l485 -575h-179q-31 0 -54 -23t-23 -54t23 -54t54 -23h186
v-188h-186q-31 0 -54 -23t-23 -54q0 -15 6.5 -29t17 -24.5t24.5 -16.5t29 -6h186v-94q0 -15 6 -29t16.5 -24.5t24.5 -17t29 -6.5q31 0 54 23t23 54v94h190q15 0 28.5 6t24 16.5t17 24.5t6.5 29t-6.5 29t-17 24.5t-24 17t-28.5 6.5h-190v188h190q15 0 28.5 6.5t24 17t17 24.5
t6.5 29t-6.5 29t-17 24.5t-24 17t-28.5 6.5h-181l483 573q19 22 19 50z" />
    <glyph glyph-name="brokenbar" unicode="&#xa6;" horiz-adv-x="538" 
d="M150 -198q-28 14 -46.5 42.5t-18.5 63.5v613q0 24 9.5 45.5t26 38t38.5 26t46 9.5q35 0 63.5 -18.5t42.5 -48.5l59 -58q16 -15 25 -36t9 -44v-612q0 -23 -9 -44t-24.5 -37t-36.5 -25t-44 -9t-44 9.5t-36 24.5zM150 737q-28 16 -46.5 44.5t-18.5 63.5v614q0 24 9.5 46
t26 38.5t38.5 26t46 9.5q35 0 63.5 -19t42.5 -48l59 -58q16 -15 25 -36t9 -44v-615q0 -23 -9 -43.5t-24.5 -36.5t-36.5 -25t-44 -9t-44 9.5t-36 24.5zM282 521q0 15 -6.5 28.5t-17 24t-24.5 17t-29 6.5t-29 -6.5t-24.5 -17t-17 -24t-6.5 -28.5v-613q0 -31 23 -54t54 -23
t54 23t23 54v613zM282 1459q0 31 -23 54t-54 23t-54 -23t-23 -54v-614q0 -31 23 -54t54 -23t54 23t23 54v614z" />
    <glyph glyph-name="dieresis" unicode="&#xa8;" horiz-adv-x="845" 
d="M457 1420q-28 15 -46 43.5t-18 63.5q0 24 9.5 46t25.5 38.5t38 26t46 9.5q35 0 63.5 -18.5t42.5 -48.5l60 -58q15 -15 24.5 -36t9.5 -44t-9.5 -43.5t-25 -36.5t-36.5 -25t-44 -9t-43.5 9t-36.5 25zM150 1420q-28 15 -46.5 43.5t-18.5 63.5q0 24 9.5 46t26 38.5t38.5 26
t46 9.5q35 0 63.5 -18.5t42.5 -48.5l59 -58q16 -15 25 -36t9 -44t-9 -43.5t-24.5 -36.5t-36.5 -25t-44 -9t-44 9t-36 25zM282 1527q0 31 -23 54t-54 23t-54 -23t-23 -54q0 -15 6.5 -29t17 -24.5t24.5 -16.5t29 -6t29 6t24.5 16.5t17 24.5t6.5 29zM589 1527q0 31 -23 54
t-54 23t-54 -23t-23 -54q0 -15 6.5 -29t17 -24.5t24.5 -16.5t29 -6t29 6t24.5 16.5t17 24.5t6.5 29z" />
    <glyph glyph-name="copyright" unicode="&#xa9;" horiz-adv-x="1749" 
d="M404 579q6 -148 89 -265q128 -112 299 -118q-54 13 -100 40.5t-88 68.5l-37 38q-14 9 -27 20t-25 24q-85 86 -111 192zM1297 683q0 88 -30 166.5t-89 145.5q-61 45 -128.5 68.5t-144.5 25.5q15 -4 31 -9t33 -12q47 -18 82 -41t57 -52q2 -5 5.5 -9.5t6.5 -9.5l51 -50
q5 -5 9.5 -10t9.5 -10q30 -39 30 -79q0 -112 -114 -112q-18 0 -44 11.5t-62 37.5q-26 18 -52 28t-52 10q-73 0 -130 -57q-54 -54 -54 -128q0 -20 2.5 -37t9.5 -34q36 -23 87 -23q47 0 99 35q38 26 64.5 39.5t46.5 13.5q81 0 107 -59l63 -61q9 -11 16 -23.5t10 -29.5
q80 119 80 265zM365 111q-36 25 -66 60q-214 213 -214 512q0 298 214 512q213 213 512 213q298 0 512 -213q17 -17 31 -34t28 -35l23 -20q211 -212 211 -509t-211 -508q-212 -212 -509 -212t-509 212zM1097 473q0 75 -76 75q-23 0 -85 -44q-61 -43 -125 -43q-90 0 -157 65
q-65 67 -65 157q0 89 65 156q66 66 157 66q64 0 126 -44t84 -44q76 0 76 76q0 28 -22 54q-40 51 -121 82q-76 29 -143 29q-154 0 -265 -111t-111 -264q0 -154 111 -265t265 -111q67 0 143 29q82 33 121 82q22 26 22 55zM1340 683q0 -217 -157 -373q-156 -156 -372 -156
q-217 0 -373 156t-156 373q0 216 156 372q156 157 373 157q216 0 372 -157q157 -156 157 -372zM1493 683q0 280 -201 481t-481 201t-482 -201q-201 -201 -201 -481t201 -482q202 -201 482 -201t481 201q201 202 201 482z" />
    <glyph glyph-name="guillemotleft" unicode="&#xab;" horiz-adv-x="1630" 
d="M727 326q-40 27 -59 55.5t-19 55.5q0 6 1 13.5t4 13.5l-149 -97l283 -186q38 -27 53 -55l57 -56q36 -36 36 -79q0 -23 -9.5 -43.5t-25 -36.5t-36.5 -25t-44 -9q-31 0 -53 14l-3 3l-510 350q-11 8 -20.5 15.5t-17.5 15.5l-51 51q-40 27 -59.5 55.5t-19.5 55.5q0 57 79 111
l502 345h-2q20 14 35.5 18.5t30.5 4.5q38 0 67 -16.5t43 -46.5l61 -59q33 -33 33 -82q0 -7 -1 -13t-3 -11l299 205h-2q20 14 35.5 18.5t31.5 4.5q37 0 66 -16.5t43 -46.5l61 -59q33 -33 33 -82q0 -58 -63 -101l-366 -242l284 -188q36 -25 53 -55l56 -56q36 -36 36 -79
q0 -23 -9.5 -43.5t-25 -36.5t-36.5 -25t-44 -9q-31 0 -53 14l-3 3l-510 350q-11 8 -20.5 15.5t-17.5 15.5zM811 77q0 39 -46 70l-436 290l436 290q46 31 46 70q0 34 -23 55.5t-58 21.5q-17 0 -27 -7l-514 -353q-61 -43 -61 -77t61 -77l514 -353q10 -7 31 -7q31 0 54 23
t23 54zM1374 77q0 39 -46 70l-435 290l435 290q46 31 46 70q0 34 -23 55.5t-57 21.5q-18 0 -28 -7l-513 -353q-62 -44 -62 -77t62 -77l513 -353q10 -7 31 -7q31 0 54 23t23 54z" />
    <glyph glyph-name="minus" unicode="&#xad;" horiz-adv-x="1067" 
d="M891 684q2 0 2 -1zM150 575q-28 16 -46.5 44.5t-18.5 63.5q0 24 9.5 46t26 38t38.5 25.5t46 9.5h529q35 0 63.5 -18.5t43.5 -47.5l50 -52l2 -1l6 -5q16 -16 25.5 -37t9.5 -44t-9.5 -43.5t-25 -36.5t-36.5 -25t-44 -9h-529q-23 0 -44 9.5t-36 24.5zM811 683
q0 15 -6.5 28.5t-17 24t-24.5 17t-29 6.5h-529q-15 0 -29 -6.5t-24.5 -17t-17 -24t-6.5 -28.5q0 -31 23 -54t54 -23h529q31 0 54 23t23 54z" />
    <glyph glyph-name="registered" unicode="&#xae;" horiz-adv-x="1749" 
d="M404 597q0 -124 55 -227v453q-55 -104 -55 -226zM949 806q0 12 -5 27q-11 3 -21 3h-170v-141h85q22 0 42.5 9t35.5 24t24 35t9 43zM753 256q0 -18 -3.5 -31.5t-8.5 -24.5q17 -3 34.5 -3.5t35.5 -0.5q108 0 201 43l-5 3q-16 8 -27 23l-133 134h-94v-143zM1297 683
q0 88 -30 166t-88 146q-73 54 -155 77q9 -7 17 -14t17 -15v1q11 -13 22.5 -25.5t20.5 -25.5l48 -46q93 -93 93 -227q0 -82 -40 -153t-106 -116l27 -26v2q8 -9 14 -17t10 -16l29 -29q59 69 90 148t31 170zM365 111q-36 25 -66 60q-214 213 -214 512q0 298 214 512
q213 213 512 213q298 0 512 -213q17 -17 31 -34t28 -35l23 -20q211 -212 211 -509t-211 -508q-212 -212 -509 -212t-509 212zM992 806q0 -64 -46 -109q-45 -45 -108 -45h-208v307h208q63 0 108 -45q46 -45 46 -108zM1120 341q0 28 -19 46l-156 157q78 33 127 104
q48 72 48 158q0 116 -83 199q-83 84 -199 84h-336v-748q0 -25 19.5 -44t45.5 -19q63 0 63 63v181h155l225 -227q17 -17 45 -17q25 0 45 19t20 44zM1340 683q0 -217 -157 -373q-156 -156 -372 -156q-217 0 -373 156t-156 373q0 216 156 372q156 157 373 157q216 0 372 -157
q157 -156 157 -372zM1493 683q0 280 -201 481t-481 201t-482 -201q-201 -201 -201 -481t201 -482q202 -201 482 -201t481 201q201 202 201 482z" />
    <glyph glyph-name="glyph188" unicode="&#xaf;" horiz-adv-x="1067" 
d="M-51 1181q-29 14 -48 43.5t-19 64.5q0 24 9.5 45.5t26 38t37.5 26t45 9.5h939q35 0 63 -18.5t42 -48.5l55 -54h-1t-1 2l7 -6q16 -15 25 -36t9 -44t-9 -43.5t-25 -36.5t-36.5 -25t-43.5 -9h-939q-22 0 -42.5 9.5t-35.5 24.5zM1015 1289q0 15 -6.5 28.5t-17 24t-24 17
t-28.5 6.5h-939q-15 0 -28.5 -6.5t-24 -17t-16.5 -24t-6 -28.5t6 -29t16.5 -24.5t24 -17t28.5 -6.5h939q15 0 28.5 6.5t24 17t17 24.5t6.5 29z" />
    <glyph glyph-name="degree" unicode="&#xb0;" horiz-adv-x="725" 
d="M188 1012q-47 29 -75 76t-28 107q0 44 17 82.5t46 67.5t68 46t83 17q57 0 105.5 -28t76.5 -74l50 -50q28 -28 44.5 -66t16.5 -81t-16.5 -80.5t-45 -66t-66 -45t-80.5 -16.5q-44 0 -81 16.5t-66 45.5zM384 1195q0 -36 -24.5 -61t-60.5 -25t-61 25t-25 61t25 60.5t61 24.5
t60.5 -24.5t24.5 -60.5zM469 1195q0 70 -50 120t-120 50q-69 0 -121 -50q-50 -50 -50 -120q0 -69 50 -121q52 -50 121 -50q70 0 120 50q50 52 50 121z" />
    <glyph glyph-name="plusminus" unicode="&#xb1;" horiz-adv-x="1067" 
d="M626 949q2 0 2 -2zM891 79q2 0 2 -2zM150 -29q-28 14 -46.5 42.5t-18.5 63.5q0 24 9.5 46t26 38t38.5 25.5t46 9.5h529q35 0 63.5 -18.5t43.5 -47.5l50 -51l2 -2l6 -5q16 -16 25.5 -37t9.5 -44t-9.5 -43.5t-25 -36.5t-36.5 -25t-44 -9h-529q-23 0 -44 9.5t-36 24.5z
M669 802h65q35 0 63.5 -18.5t42.5 -47.5l59 -58q16 -16 25.5 -37t9.5 -44t-9.5 -43.5t-25 -36.5t-36.5 -25t-44 -9h-150v-150q0 -23 -9 -44t-25 -37t-36.5 -25t-43.5 -9t-44 9.5t-37 25.5l-59 58q-29 15 -47 43.5t-18 63.5v65h-60q-23 0 -44 9.5t-36 24.5l-60 58
q-28 16 -46.5 44.5t-18.5 63.5q0 24 9.5 46t26 38t38.5 25.5t46 9.5h145v145q0 24 9.5 46t25.5 38.5t38 26t46 9.5q35 0 63.5 -19t44.5 -48l49 -51l2 -2l7 -5q15 -15 24.5 -36t9.5 -44v-60zM811 77q0 31 -23 54t-54 23h-529q-31 0 -54 -23t-23 -54t23 -54t54 -23h529
q31 0 54 23t23 54zM811 683q0 15 -6.5 28.5t-17 24t-24.5 17t-29 6.5h-188v188q0 31 -23 54t-54 23q-15 0 -29 -6.5t-24.5 -17t-16.5 -24.5t-6 -29v-188h-188q-15 0 -29 -6.5t-24.5 -17t-17 -24t-6.5 -28.5q0 -31 23 -54t54 -23h188v-188q0 -15 6 -29t16.5 -24.5t24.5 -17
t29 -6.5q31 0 54 23t23 54v188h188q31 0 54 23t23 54z" />
    <glyph glyph-name="acute" unicode="&#xb4;" horiz-adv-x="689" 
d="M150 1420q-29 14 -47 43.5t-18 65.5q0 37 29 79v-2l145 213q20 26 44 39.5t55 13.5q34 0 61.5 -17t41.5 -46l2 -2l54 -54h-1t-1 1l7 -5q16 -15 25 -37t9 -45q0 -17 -4 -33t-14 -30h-2l-152 -223h2q-17 -27 -42 -40t-56 -13q-23 0 -43 8.5t-35 23.5zM433 1753
q0 30 -22 53.5t-53 23.5q-41 0 -64 -35l-154 -225q-12 -17 -12 -41q0 -32 21.5 -55t53.5 -23q41 0 65 36l154 225q11 17 11 41z" />
    <glyph glyph-name="paragraph" unicode="&#xb6;" horiz-adv-x="1574" 
d="M404 816q0 -75 33 -133q26 -18 54 -30.5t59 -17.5v420q-37 -19 -65 -48q-81 -81 -81 -191zM290 490q-14 11 -28.5 24t-27.5 27q-73 76 -111 164.5t-38 195.5t37 195.5t112 163.5q148 148 358 148h649q35 0 63.5 -18.5t42.5 -48.5l59 -58q16 -15 25 -36t9 -44t-9 -43.5
t-24.5 -36.5t-36.5 -25t-44 -9h-133v-1266q0 -23 -9 -44t-25 -37t-36.5 -25t-43.5 -9t-44 9.5t-37 24.5l-59 60q-29 14 -47 42.5t-18 63.5v1181h-5v-1266q0 -23 -9.5 -44t-25 -37t-36.5 -25t-44 -9t-43.5 9.5t-36.5 24.5l-60 60q-28 14 -46 42.5t-18 63.5v418
q-66 17 -122.5 49.5t-104.5 83.5zM592 589q-127 0 -219 92q-91 91 -91 220q0 128 91 219q92 92 219 92v-623zM1318 1289q0 15 -6.5 28.5t-17 24t-24.5 17t-29 6.5h-649q-191 0 -328 -137q-136 -136 -136 -327q0 -192 136 -329q137 -137 328 -137v-527q0 -31 23 -54t54 -23
t54 23t23 54v1304h170v-1304q0 -15 6.5 -29t17 -24.5t24.5 -17t29 -6.5q31 0 54 23t23 54v1304h171q15 0 29 6.5t24.5 17t17 24.5t6.5 29z" />
    <glyph glyph-name="periodcentered" unicode="&#xb7;" horiz-adv-x="538" 
d="M362 684q2 0 2 -1zM150 575q-28 16 -46.5 44.5t-18.5 63.5q0 24 9.5 46t26 38t38.5 25.5t46 9.5q35 0 63.5 -18.5t43.5 -47.5l50 -52l2 -1l6 -5q16 -16 25 -37t9 -44t-9 -43.5t-24.5 -36.5t-36.5 -25t-44 -9t-44 9.5t-36 24.5zM282 683q0 15 -6.5 28.5t-17 24t-24.5 17
t-29 6.5t-29 -6.5t-24.5 -17t-17 -24t-6.5 -28.5q0 -31 23 -54t54 -23t54 23t23 54z" />
    <glyph glyph-name="guillemotright" unicode="&#xbb;" horiz-adv-x="1630" 
d="M155 689l-5 4q-65 46 -65 104q0 54 34.5 86.5t88.5 32.5q16 0 31 -4.5t36 -18.5h-4l502 -345q25 -17 40.5 -34t26.5 -34l54 -53q21 -21 30.5 -39.5t9.5 -35.5q0 -15 -6 -28l151 101l-277 186q-17 12 -27 22l-56 56l-6 4q-64 45 -64 104q0 54 34 86.5t88 32.5
q16 0 31.5 -4.5t35.5 -18.5h-3l501 -345q25 -17 40.5 -34t26.5 -34l54 -53q21 -21 30.5 -39.5t9.5 -35.5q0 -27 -20.5 -53t-58.5 -55l-513 -352l1 -1q-21 -14 -53 -14q-23 0 -43.5 9.5t-36.5 24.5l-60 60q-28 14 -46 42.5t-18 63.5q0 6 0.5 13.5t2.5 13.5l-311 -212l2 -1
q-21 -14 -53 -14q-23 0 -44 9.5t-36 24.5l-60 60q-28 14 -46.5 42.5t-18.5 63.5q0 58 65 104l365 244l-276 186q-17 12 -27 22zM811 437q0 33 -62 77l-513 353q-10 7 -28 7q-34 0 -57 -21.5t-23 -55.5q0 -39 46 -70l435 -290l-435 -290q-46 -31 -46 -70q0 -31 23 -54t54 -23
q21 0 31 7l513 353q62 44 62 77zM1374 437q0 33 -62 77l-513 353q-10 7 -28 7q-34 0 -57 -21.5t-23 -55.5q0 -39 46 -70l435 -290l-435 -290q-46 -31 -46 -70q0 -31 23 -54t54 -23q21 0 31 7l513 353q62 44 62 77z" />
    <glyph glyph-name="questiondown" unicode="&#xbf;" horiz-adv-x="1103" 
d="M927 60q1 0 1 -2zM669 1010q-29 16 -47 44.5t-18 63.5q0 24 9.5 46t26 38t38.5 25.5t46 9.5q35 0 63 -18.5t42 -47.5l60 -58q16 -16 25 -36.5t9 -43.5t-9 -44t-25 -37t-36.5 -25t-43.5 -9t-44 9.5t-36 24.5zM404 125q0 -20 4 -39t10 -37q40 -22 89 -22q31 0 57 7.5
t45 21.5v-1q7 6 23 23.5t40 44.5q48 53 99 53q34 0 61.5 -18.5t43.5 -46.5l51 -51l1 -2l7 -5q16 -16 25 -37.5t9 -44.5q0 -14 -3.5 -27.5t-9.5 -27.5q-23 -48 -62 -83.5t-92 -64.5l2 -2q-101 -58 -212 -58q-172 0 -295 123l-38 38q-13 10 -25.5 20.5t-25.5 23.5
q-62 62 -92.5 135t-30.5 162t30.5 162t92.5 135q63 63 136.5 93.5t162.5 30.5q70 0 85 35q7 13 9.5 45t2.5 83q0 24 9.5 45.5t26 38t38.5 26t46 9.5q35 0 63 -18.5t42 -47.5l60 -59q16 -15 25 -36t9 -44v-34q0 -97 -15.5 -163.5t-49.5 -107.5q-71 -91 -266 -91
q-76 0 -131 -56q-57 -57 -57 -131zM847 56q0 31 -22.5 54t-53.5 23q-34 0 -68 -39q-51 -59 -68 -72q-50 -37 -128 -37q-92 0 -159 66q-66 67 -66 159t66 158q67 67 159 67q175 0 237 77q56 68 56 247v35q0 30 -23 53t-53 23q-15 0 -29 -6.5t-24.5 -17t-17 -24t-6.5 -28.5
q0 -112 -16 -145q-27 -60 -124 -60q-155 0 -267 -112t-112 -267t112 -267t267 -112q99 0 193 52q96 53 136 136q11 20 11 37zM800 1118q0 15 -6.5 29t-17 24.5t-24 17t-28.5 6.5q-31 0 -54 -23t-23 -54t23 -54t54 -23q15 0 28.5 6.5t24 17t17 24.5t6.5 29z" />
    <glyph glyph-name="Agrave" unicode="&#xc0;" horiz-adv-x="1302" 
d="M643 829l-119 -291h239zM38 -29q-29 15 -46.5 43t-17.5 63q0 13 2.5 23.5t6.5 20.5l491 1202q18 44 47 64.5t66 20.5q66 0 101 -63l54 -55h-1v2l7 -5q8 -11 16.5 -22.5t15.5 -28.5l491 -1202q9 -21 9 -43q0 -23 -9 -43.5t-24.5 -36.5t-36 -25t-43.5 -9q-26 0 -47.5 7.5
t-37.5 23.5l-67 66q-35 22 -49 65l-73 179h-499l-109 -267l2 -2q-13 -38 -41.5 -55t-68.5 -17q-47 0 -78 33zM348 495l239 589l239 -589h-478zM1157 77q0 16 -5 29l-492 1201q-22 58 -73 58q-49 0 -73 -58l-492 -1201q-5 -13 -5 -29q0 -31 22 -54t53 -23q54 0 74 48l119 293
h604l120 -293q18 -48 73 -48q31 0 53 23t22 54zM604 1423q-28 16 -48 48h2l-139 203q-29 42 -29 79q0 24 9.5 46t25.5 38t37.5 25.5t45.5 9.5q31 0 55 -13.5t44 -39.5l10 -17l57 -54q4 -4 7.5 -8t7.5 -9l150 -221l4 -3q10 -14 14 -29.5t4 -33.5q0 -24 -8.5 -45t-23.5 -36.5
t-35.5 -25t-44.5 -9.5q-23 0 -44 7.5t-36 23.5zM738 1529q0 24 -11 41l-154 225q-24 35 -65 35q-31 0 -53 -23.5t-22 -53.5q0 -25 12 -41l154 -225q22 -36 64 -36q33 0 54 23t21 55z" />
    <glyph glyph-name="Aacute" unicode="&#xc1;" horiz-adv-x="1302" 
d="M643 829l-119 -291h239zM38 -29q-29 15 -46.5 43t-17.5 63q0 13 2.5 23.5t6.5 20.5l491 1202q18 44 47 64.5t66 20.5q66 0 101 -63l54 -55h-1v2l7 -5q8 -11 16.5 -22.5t15.5 -28.5l491 -1202q9 -21 9 -43q0 -23 -9 -43.5t-24.5 -36.5t-36 -25t-43.5 -9q-26 0 -47.5 7.5
t-37.5 23.5l-67 66q-35 22 -49 65l-73 179h-499l-109 -267l2 -2q-13 -38 -41.5 -55t-68.5 -17q-47 0 -78 33zM348 495l239 589l239 -589h-478zM1157 77q0 16 -5 29l-492 1201q-22 58 -73 58q-49 0 -73 -58l-492 -1201q-5 -13 -5 -29q0 -31 22 -54t53 -23q54 0 74 48l119 293
h604l120 -293q18 -48 73 -48q31 0 53 23t22 54zM455 1420q-29 14 -47 43.5t-18 65.5q0 37 29 79v-2l145 213q20 26 44 39.5t55 13.5q34 0 61.5 -17t41.5 -46l2 -2l54 -54h-1t-1 1l7 -5q16 -15 25 -37t9 -45q0 -17 -4 -33t-14 -30h-2l-152 -223h2q-17 -27 -42 -40t-56 -13
q-23 0 -43 8.5t-35 23.5zM738 1753q0 30 -22 53.5t-53 23.5q-41 0 -64 -35l-154 -225q-12 -17 -12 -41q0 -32 21.5 -55t53.5 -23q41 0 65 36l154 225q11 17 11 41z" />
    <glyph glyph-name="Acircumflex" unicode="&#xc2;" horiz-adv-x="1302" 
d="M643 829l-119 -291h239zM38 -29q-29 15 -46.5 43t-17.5 63q0 13 2.5 23.5t6.5 20.5l491 1202q18 44 47 64.5t66 20.5q66 0 101 -63l54 -55h-1v2l7 -5q8 -11 16.5 -22.5t15.5 -28.5l491 -1202q9 -21 9 -43q0 -23 -9 -43.5t-24.5 -36.5t-36 -25t-43.5 -9q-26 0 -47.5 7.5
t-37.5 23.5l-67 66q-35 22 -49 65l-73 179h-499l-109 -267l2 -2q-13 -38 -41.5 -55t-68.5 -17q-47 0 -78 33zM348 495l239 589l239 -589h-478zM1157 77q0 16 -5 29l-492 1201q-22 58 -73 58q-49 0 -73 -58l-492 -1201q-5 -13 -5 -29q0 -31 22 -54t53 -23q54 0 74 48l119 293
h604l120 -293q18 -48 73 -48q31 0 53 23t22 54zM345 1437q-31 14 -49 43t-18 65q0 15 3.5 28.5t12.5 27.5l182 258q27 39 55.5 58.5t55.5 19.5q57 0 111 -78l50 -50q8 -8 16 -18t16 -21l183 -258q8 -11 10.5 -24t2.5 -29q0 -24 -9 -44.5t-24.5 -36t-36 -24.5t-44.5 -9
q-45 0 -78 34l-60 58q-29 15 -51 51l-16 22l-73 -104q-22 -31 -46 -46t-55 -15q-24 0 -44.5 9.5t-35.5 24.5zM853 1545q0 19 -6 30l-183 258q-43 61 -77 61q-32 0 -77 -61l-182 -258q-7 -10 -7 -30q0 -33 22 -55t55 -22q37 0 70 46l119 170l120 -170q31 -46 70 -46
q32 0 54 22t22 55z" />
    <glyph glyph-name="Atilde" unicode="&#xc3;" horiz-adv-x="1302" 
d="M643 829l-119 -291h239zM38 -29q-29 15 -46.5 43t-17.5 63q0 13 2.5 23.5t6.5 20.5l491 1202q18 44 47 64.5t66 20.5q66 0 101 -63l54 -55h-1v2l7 -5q8 -11 16.5 -22.5t15.5 -28.5l491 -1202q9 -21 9 -43q0 -23 -9 -43.5t-24.5 -36.5t-36 -25t-43.5 -9q-26 0 -47.5 7.5
t-37.5 23.5l-67 66q-35 22 -49 65l-73 179h-499l-109 -267l2 -2q-13 -38 -41.5 -55t-68.5 -17q-47 0 -78 33zM348 495l239 589l239 -589h-478zM1157 77q0 16 -5 29l-492 1201q-22 58 -73 58q-49 0 -73 -58l-492 -1201q-5 -13 -5 -29q0 -31 22 -54t53 -23q54 0 74 48l119 293
h604l120 -293q18 -48 73 -48q31 0 53 23t22 54zM278 1440q-41 14 -41 76v71q0 64 104 126q85 53 144 53q62 0 133 -71q48 -48 72 -48q13 0 33.5 9.5t46.5 26.5q40 27 65 40t42 13q41 0 53 -36l70 -68q17 -17 17 -58v-72q0 -59 -100 -120q-89 -54 -142 -54q-60 0 -130 70
q-49 49 -75 49q-29 0 -83 -37q-75 -51 -103 -51q-22 0 -37 15zM894 1659q0 34 -17 34t-83 -45q-65 -44 -104 -44q-43 0 -103 60t-102 60q-43 0 -121 -48q-84 -51 -84 -89v-71q0 -35 19 -35q17 0 82 44q64 45 104 45q42 0 102 -60q61 -59 103 -59q43 0 123 49q81 49 81 87v72
z" />
    <glyph glyph-name="Adieresis" unicode="&#xc4;" horiz-adv-x="1302" 
d="M643 829l-119 -291h239zM38 -29q-29 15 -46.5 43t-17.5 63q0 13 2.5 23.5t6.5 20.5l491 1202q18 44 47 64.5t66 20.5q66 0 101 -63l54 -55h-1v2l7 -5q8 -11 16.5 -22.5t15.5 -28.5l491 -1202q9 -21 9 -43q0 -23 -9 -43.5t-24.5 -36.5t-36 -25t-43.5 -9q-26 0 -47.5 7.5
t-37.5 23.5l-67 66q-35 22 -49 65l-73 179h-499l-109 -267l2 -2q-13 -38 -41.5 -55t-68.5 -17q-47 0 -78 33zM348 495l239 589l239 -589h-478zM1157 77q0 16 -5 29l-492 1201q-22 58 -73 58q-49 0 -73 -58l-492 -1201q-5 -13 -5 -29q0 -31 22 -54t53 -23q54 0 74 48l119 293
h604l120 -293q18 -48 73 -48q31 0 53 23t22 54zM686 1420q-28 15 -46 43.5t-18 63.5q0 24 9.5 46t25.5 38.5t38 26t46 9.5q35 0 63.5 -18.5t42.5 -48.5l60 -58q15 -15 24.5 -36t9.5 -44t-9.5 -43.5t-25 -36.5t-36.5 -25t-44 -9t-43.5 9t-36.5 25zM379 1420
q-28 15 -46.5 43.5t-18.5 63.5q0 24 9.5 46t26 38.5t38.5 26t46 9.5q35 0 63.5 -18.5t42.5 -48.5l59 -58q16 -15 25 -36t9 -44t-9 -43.5t-24.5 -36.5t-36.5 -25t-44 -9t-44 9t-36 25zM511 1527q0 31 -23 54t-54 23t-54 -23t-23 -54q0 -15 6.5 -29t17 -24.5t24.5 -16.5t29 -6
t29 6t24.5 16.5t17 24.5t6.5 29zM818 1527q0 31 -23 54t-54 23t-54 -23t-23 -54q0 -15 6.5 -29t17 -24.5t24.5 -16.5t29 -6t29 6t24.5 16.5t17 24.5t6.5 29z" />
    <glyph glyph-name="Aring" unicode="&#xc5;" horiz-adv-x="1302" 
d="M643 829l-119 -291h239zM38 -29q-29 15 -46.5 43t-17.5 63q0 13 2.5 23.5t6.5 20.5l491 1202q18 44 47 64.5t66 20.5q66 0 101 -63l54 -55h-1v2l7 -5q8 -11 16.5 -22.5t15.5 -28.5l491 -1202q9 -21 9 -43q0 -23 -9 -43.5t-24.5 -36.5t-36 -25t-43.5 -9q-26 0 -47.5 7.5
t-37.5 23.5l-67 66q-35 22 -49 65l-73 179h-499l-109 -267l2 -2q-13 -38 -41.5 -55t-68.5 -17q-47 0 -78 33zM348 495l239 589l239 -589h-478zM1157 77q0 16 -5 29l-492 1201q-22 58 -73 58q-49 0 -73 -58l-492 -1201q-5 -13 -5 -29q0 -31 22 -54t53 -23q54 0 74 48l119 293
h604l120 -293q18 -48 73 -48q31 0 53 23t22 54zM476 1439q-47 28 -75 75.5t-28 106.5q0 44 17 83t46 68t68 46t83 17q57 0 105.5 -28t76.5 -75l50 -49q28 -29 44.5 -67t16.5 -80q0 -43 -16.5 -80.5t-45 -66t-66 -45t-80.5 -16.5q-44 0 -81 16.5t-66 44.5zM672 1621
q0 -36 -24.5 -60.5t-60.5 -24.5t-61 24.5t-25 60.5t25 61t61 25t60.5 -25t24.5 -61zM757 1621q0 70 -50 120q-50 51 -120 51t-121 -51q-50 -50 -50 -120t50 -120q52 -50 121 -50q70 0 120 50t50 120z" />
    <glyph glyph-name="AE" unicode="&#xc6;" horiz-adv-x="1987" 
d="M1683 684q1 0 1 -1zM643 829l-119 -291h239zM1282 196h414q35 0 63.5 -18.5t42.5 -47.5l60 -58q15 -16 24.5 -37t9.5 -44t-9 -43.5t-25 -36.5t-36.5 -25t-43.5 -9h-615q-26 0 -47.5 7.5t-37.5 23.5l-67 66q-35 22 -49 65l-73 179h-499l-109 -267l2 -2q-13 -38 -41.5 -55
t-68.5 -17q-47 0 -78 33l-61 61q-29 15 -46.5 43t-17.5 63q0 13 2.5 23.5t6.5 20.5l491 1202q18 44 47 64.5t66 20.5q66 0 101 -63l60 -58q8 -11 16.5 -22.5t15.5 -28.5l183 -448v501q0 24 9.5 45.5t25.5 38t38 26t46 9.5h614q35 0 63.5 -18.5t42.5 -48.5l60 -58
q15 -15 24.5 -36t9.5 -44t-9 -43.5t-25 -36.5t-36.5 -25t-43.5 -9h-500v-287h244q35 0 63.5 -18.5t43.5 -47.5l50 -52l1 -1l7 -5q16 -16 25 -37t9 -44t-9 -43.5t-24.5 -36.5t-36.5 -25t-44 -9h-329v-287zM348 495l239 589l239 -589h-478zM1773 77q0 31 -23 54t-54 23h-537
v452h367q15 0 29 6.5t24.5 17t17 24.5t6.5 29t-6.5 28.5t-17 24t-24.5 17t-29 6.5h-367v453h537q31 0 54 23t23 54q0 15 -6.5 28.5t-17 24t-24.5 17t-29 6.5h-614q-15 0 -29 -6.5t-24.5 -17t-17 -24t-6.5 -28.5v-825l-345 843q-22 58 -73 58q-49 0 -73 -58l-492 -1201
q-5 -13 -5 -29q0 -31 22 -54t53 -23q54 0 74 48l119 293h604l120 -293q18 -48 73 -48h614q31 0 54 23t23 54z" />
    <glyph glyph-name="Egrave" unicode="&#xc8;" horiz-adv-x="1237" 
d="M362 196h585q35 0 63.5 -18.5t42.5 -47.5l60 -58q15 -16 24.5 -37t9.5 -44t-9 -43.5t-25 -36.5t-36.5 -25t-43.5 -9h-786q-23 0 -43.5 9.5t-36.5 24.5l-59 60q-29 14 -47 42.5t-18 63.5v1212q0 24 9.5 45.5t25.5 38t38 26t46 9.5h785q35 0 63.5 -18.5t42.5 -48.5l60 -58
q15 -15 24.5 -36t9.5 -44t-9 -43.5t-25 -36.5t-36.5 -25t-43.5 -9h-671v-287h415q35 0 63 -18.5t42 -47.5l60 -58q16 -16 25 -37t9 -44t-9 -43.5t-25 -36.5t-36.5 -25t-43.5 -9h-500v-287zM1024 77q0 31 -23 54t-54 23h-708v452h538q15 0 28.5 6.5t24 17t17 24.5t6.5 29
q0 30 -23 53t-53 23h-538v453h708q31 0 54 23t23 54q0 15 -6.5 28.5t-17 24t-24.5 17t-29 6.5h-785q-15 0 -29 -6.5t-24.5 -17t-17 -24t-6.5 -28.5v-1212q0 -31 23 -54t54 -23h785q31 0 54 23t23 54zM572 1423q-28 16 -48 48h2l-139 203q-29 42 -29 79q0 24 9.5 46t25.5 38
t37.5 25.5t45.5 9.5q31 0 55 -13.5t44 -39.5l10 -17l57 -54q4 -4 7.5 -8t7.5 -9l150 -221l4 -3q10 -14 14 -29.5t4 -33.5q0 -24 -8.5 -45t-23.5 -36.5t-35.5 -25t-44.5 -9.5q-23 0 -44 7.5t-36 23.5zM706 1529q0 24 -11 41l-154 225q-24 35 -65 35q-31 0 -53 -23.5
t-22 -53.5q0 -25 12 -41l154 -225q22 -36 64 -36q33 0 54 23t21 55z" />
    <glyph glyph-name="Eacute" unicode="&#xc9;" horiz-adv-x="1237" 
d="M362 196h585q35 0 63.5 -18.5t42.5 -47.5l60 -58q15 -16 24.5 -37t9.5 -44t-9 -43.5t-25 -36.5t-36.5 -25t-43.5 -9h-786q-23 0 -43.5 9.5t-36.5 24.5l-59 60q-29 14 -47 42.5t-18 63.5v1212q0 24 9.5 45.5t25.5 38t38 26t46 9.5h785q35 0 63.5 -18.5t42.5 -48.5l60 -58
q15 -15 24.5 -36t9.5 -44t-9 -43.5t-25 -36.5t-36.5 -25t-43.5 -9h-671v-287h415q35 0 63 -18.5t42 -47.5l60 -58q16 -16 25 -37t9 -44t-9 -43.5t-25 -36.5t-36.5 -25t-43.5 -9h-500v-287zM1024 77q0 31 -23 54t-54 23h-708v452h538q15 0 28.5 6.5t24 17t17 24.5t6.5 29
q0 30 -23 53t-53 23h-538v453h708q31 0 54 23t23 54q0 15 -6.5 28.5t-17 24t-24.5 17t-29 6.5h-785q-15 0 -29 -6.5t-24.5 -17t-17 -24t-6.5 -28.5v-1212q0 -31 23 -54t54 -23h785q31 0 54 23t23 54zM423 1420q-29 14 -47 43.5t-18 65.5q0 37 29 79v-2l145 213
q20 26 44 39.5t55 13.5q34 0 61.5 -17t41.5 -46l2 -2l54 -54h-1t-1 1l7 -5q16 -15 25 -37t9 -45q0 -17 -4 -33t-14 -30h-2l-152 -223h2q-17 -27 -42 -40t-56 -13q-23 0 -43 8.5t-35 23.5zM706 1753q0 30 -22 53.5t-53 23.5q-41 0 -64 -35l-154 -225q-12 -17 -12 -41
q0 -32 21.5 -55t53.5 -23q41 0 65 36l154 225q11 17 11 41z" />
    <glyph glyph-name="Ecircumflex" unicode="&#xca;" horiz-adv-x="1237" 
d="M362 196h585q35 0 63.5 -18.5t42.5 -47.5l60 -58q15 -16 24.5 -37t9.5 -44t-9 -43.5t-25 -36.5t-36.5 -25t-43.5 -9h-786q-23 0 -43.5 9.5t-36.5 24.5l-59 60q-29 14 -47 42.5t-18 63.5v1212q0 24 9.5 45.5t25.5 38t38 26t46 9.5h785q35 0 63.5 -18.5t42.5 -48.5l60 -58
q15 -15 24.5 -36t9.5 -44t-9 -43.5t-25 -36.5t-36.5 -25t-43.5 -9h-671v-287h415q35 0 63 -18.5t42 -47.5l60 -58q16 -16 25 -37t9 -44t-9 -43.5t-25 -36.5t-36.5 -25t-43.5 -9h-500v-287zM1024 77q0 31 -23 54t-54 23h-708v452h538q15 0 28.5 6.5t24 17t17 24.5t6.5 29
q0 30 -23 53t-53 23h-538v453h708q31 0 54 23t23 54q0 15 -6.5 28.5t-17 24t-24.5 17t-29 6.5h-785q-15 0 -29 -6.5t-24.5 -17t-17 -24t-6.5 -28.5v-1212q0 -31 23 -54t54 -23h785q31 0 54 23t23 54zM312 1437q-31 14 -49 43t-18 65q0 15 3.5 28.5t12.5 27.5l182 258
q27 39 55.5 58.5t55.5 19.5q57 0 111 -78l50 -50q8 -8 16 -18t16 -21l183 -258q8 -11 10.5 -24t2.5 -29q0 -24 -9 -44.5t-24.5 -36t-36 -24.5t-44.5 -9q-45 0 -78 34l-60 58q-29 15 -51 51l-16 22l-73 -104q-22 -31 -46 -46t-55 -15q-24 0 -44.5 9.5t-35.5 24.5zM820 1545
q0 19 -6 30l-183 258q-43 61 -77 61q-32 0 -77 -61l-182 -258q-7 -10 -7 -30q0 -33 22 -55t55 -22q37 0 70 46l119 170l120 -170q31 -46 70 -46q32 0 54 22t22 55z" />
    <glyph glyph-name="Edieresis" unicode="&#xcb;" horiz-adv-x="1237" 
d="M362 196h585q35 0 63.5 -18.5t42.5 -47.5l60 -58q15 -16 24.5 -37t9.5 -44t-9 -43.5t-25 -36.5t-36.5 -25t-43.5 -9h-786q-23 0 -43.5 9.5t-36.5 24.5l-59 60q-29 14 -47 42.5t-18 63.5v1212q0 24 9.5 45.5t25.5 38t38 26t46 9.5h785q35 0 63.5 -18.5t42.5 -48.5l60 -58
q15 -15 24.5 -36t9.5 -44t-9 -43.5t-25 -36.5t-36.5 -25t-43.5 -9h-671v-287h415q35 0 63 -18.5t42 -47.5l60 -58q16 -16 25 -37t9 -44t-9 -43.5t-25 -36.5t-36.5 -25t-43.5 -9h-500v-287zM1024 77q0 31 -23 54t-54 23h-708v452h538q15 0 28.5 6.5t24 17t17 24.5t6.5 29
q0 30 -23 53t-53 23h-538v453h708q31 0 54 23t23 54q0 15 -6.5 28.5t-17 24t-24.5 17t-29 6.5h-785q-15 0 -29 -6.5t-24.5 -17t-17 -24t-6.5 -28.5v-1212q0 -31 23 -54t54 -23h785q31 0 54 23t23 54zM653 1420q-28 15 -46 43.5t-18 63.5q0 24 9.5 46t25.5 38.5t38 26t46 9.5
q35 0 63.5 -18.5t42.5 -48.5l60 -58q15 -15 24.5 -36t9.5 -44t-9.5 -43.5t-25 -36.5t-36.5 -25t-44 -9t-43.5 9t-36.5 25zM346 1420q-28 15 -46.5 43.5t-18.5 63.5q0 24 9.5 46t26 38.5t38.5 26t46 9.5q35 0 63.5 -18.5t42.5 -48.5l59 -58q16 -15 25 -36t9 -44t-9 -43.5
t-24.5 -36.5t-36.5 -25t-44 -9t-44 9t-36 25zM478 1527q0 31 -23 54t-54 23t-54 -23t-23 -54q0 -15 6.5 -29t17 -24.5t24.5 -16.5t29 -6t29 6t24.5 16.5t17 24.5t6.5 29zM785 1527q0 31 -23 54t-54 23t-54 -23t-23 -54q0 -15 6.5 -29t17 -24.5t24.5 -16.5t29 -6t29 6
t24.5 16.5t17 24.5t6.5 29z" />
    <glyph glyph-name="Igrave" unicode="&#xcc;" horiz-adv-x="452" 
d="M108 -29q-29 14 -47 42.5t-18 63.5v1212q0 24 9.5 45.5t25.5 38t38 26t46 9.5q35 0 63.5 -18.5t42.5 -48.5l60 -58q15 -15 24.5 -36t9.5 -44v-1212q0 -23 -9.5 -43.5t-25 -36.5t-36.5 -25t-44 -9t-43.5 9.5t-36.5 24.5zM239 1289q0 15 -6.5 28.5t-17 24t-24.5 17t-29 6.5
t-29 -6.5t-24.5 -17t-17 -24t-6.5 -28.5v-1212q0 -31 23 -54t54 -23t54 23t23 54v1212zM181 1423q-28 16 -48 48h2l-139 203q-29 42 -29 79q0 24 9.5 46t25.5 38t37.5 25.5t45.5 9.5q31 0 55 -13.5t44 -39.5l10 -17l57 -54q4 -4 7.5 -8t7.5 -9l150 -221l4 -3
q10 -14 14 -29.5t4 -33.5q0 -24 -8.5 -45t-23.5 -36.5t-35.5 -25t-44.5 -9.5q-23 0 -44 7.5t-36 23.5zM315 1529q0 24 -11 41l-154 225q-24 35 -65 35q-31 0 -53 -23.5t-22 -53.5q0 -25 12 -41l154 -225q22 -36 64 -36q33 0 54 23t21 55z" />
    <glyph glyph-name="Iacute" unicode="&#xcd;" horiz-adv-x="452" 
d="M108 -29q-29 14 -47 42.5t-18 63.5v1212q0 24 9.5 45.5t25.5 38t38 26t46 9.5q35 0 63.5 -18.5t42.5 -48.5l60 -58q15 -15 24.5 -36t9.5 -44v-1212q0 -23 -9.5 -43.5t-25 -36.5t-36.5 -25t-44 -9t-43.5 9.5t-36.5 24.5zM239 1289q0 15 -6.5 28.5t-17 24t-24.5 17t-29 6.5
t-29 -6.5t-24.5 -17t-17 -24t-6.5 -28.5v-1212q0 -31 23 -54t54 -23t54 23t23 54v1212zM32 1420q-29 14 -47 43.5t-18 65.5q0 37 29 79v-2l145 213q20 26 44 39.5t55 13.5q34 0 61.5 -17t41.5 -46l2 -2l54 -54h-1t-1 1l7 -5q16 -15 25 -37t9 -45q0 -17 -4 -33t-14 -30h-2
l-152 -223h2q-17 -27 -42 -40t-56 -13q-23 0 -43 8.5t-35 23.5zM315 1753q0 30 -22 53.5t-53 23.5q-41 0 -64 -35l-154 -225q-12 -17 -12 -41q0 -32 21.5 -55t53.5 -23q41 0 65 36l154 225q11 17 11 41z" />
    <glyph glyph-name="Icircumflex" unicode="&#xce;" horiz-adv-x="452" 
d="M108 -29q-29 14 -47 42.5t-18 63.5v1212q0 24 9.5 45.5t25.5 38t38 26t46 9.5q35 0 63.5 -18.5t42.5 -48.5l60 -58q15 -15 24.5 -36t9.5 -44v-1212q0 -23 -9.5 -43.5t-25 -36.5t-36.5 -25t-44 -9t-43.5 9.5t-36.5 24.5zM239 1289q0 15 -6.5 28.5t-17 24t-24.5 17t-29 6.5
t-29 -6.5t-24.5 -17t-17 -24t-6.5 -28.5v-1212q0 -31 23 -54t54 -23t54 23t23 54v1212zM-79 1437q-31 14 -49 43t-18 65q0 15 3.5 28.5t12.5 27.5l182 258q27 39 55.5 58.5t55.5 19.5q57 0 111 -78l50 -50q8 -8 16 -18t16 -21l183 -258q8 -11 10.5 -24t2.5 -29
q0 -24 -9 -44.5t-24.5 -36t-36 -24.5t-44.5 -9q-45 0 -78 34l-60 58q-29 15 -51 51l-16 22l-73 -104q-22 -31 -46 -46t-55 -15q-24 0 -44.5 9.5t-35.5 24.5zM429 1545q0 19 -6 30l-183 258q-43 61 -77 61q-32 0 -77 -61l-182 -258q-7 -10 -7 -30q0 -33 22 -55t55 -22
q37 0 70 46l119 170l120 -170q31 -46 70 -46q32 0 54 22t22 55z" />
    <glyph glyph-name="Idieresis" unicode="&#xcf;" horiz-adv-x="452" 
d="M108 -29q-29 14 -47 42.5t-18 63.5v1212q0 24 9.5 45.5t25.5 38t38 26t46 9.5q35 0 63.5 -18.5t42.5 -48.5l60 -58q15 -15 24.5 -36t9.5 -44v-1212q0 -23 -9.5 -43.5t-25 -36.5t-36.5 -25t-44 -9t-43.5 9.5t-36.5 24.5zM239 1289q0 15 -6.5 28.5t-17 24t-24.5 17t-29 6.5
t-29 -6.5t-24.5 -17t-17 -24t-6.5 -28.5v-1212q0 -31 23 -54t54 -23t54 23t23 54v1212zM262 1420q-28 15 -46 43.5t-18 63.5q0 24 9.5 46t25.5 38.5t38 26t46 9.5q35 0 63.5 -18.5t42.5 -48.5l60 -58q15 -15 24.5 -36t9.5 -44t-9.5 -43.5t-25 -36.5t-36.5 -25t-44 -9
t-43.5 9t-36.5 25zM-45 1420q-28 15 -46.5 43.5t-18.5 63.5q0 24 9.5 46t26 38.5t38.5 26t46 9.5q35 0 63.5 -18.5t42.5 -48.5l59 -58q16 -15 25 -36t9 -44t-9 -43.5t-24.5 -36.5t-36.5 -25t-44 -9t-44 9t-36 25zM87 1527q0 31 -23 54t-54 23t-54 -23t-23 -54q0 -15 6.5 -29
t17 -24.5t24.5 -16.5t29 -6t29 6t24.5 16.5t17 24.5t6.5 29zM394 1527q0 31 -23 54t-54 23t-54 -23t-23 -54q0 -15 6.5 -29t17 -24.5t24.5 -16.5t29 -6t29 6t24.5 16.5t17 24.5t6.5 29z" />
    <glyph glyph-name="Ntilde" unicode="&#xd1;" 
d="M1201 -80q-1 1 -3 2.5t-3 4.5l-46 46q-23 13 -43 36l-744 858v-876q0 -23 -9.5 -43.5t-25 -36.5t-36.5 -25t-44 -9t-43.5 9.5t-36.5 24.5l-59 60q-29 14 -47 42.5t-18 63.5v1212q0 24 9.5 45.5t25.5 38t38 26t46 9.5q29 0 50.5 -8.5t36.5 -29.5l33 -37l41 -41l2 -4t3 -5
l3 -1l753 -872v879q0 24 9.5 45.5t25.5 38t38 26t46 9.5q35 0 63.5 -18.5t42.5 -48.5l55 -54h-1t-1 2l7 -6q15 -15 24.5 -36t9.5 -44v-1212q0 -23 -9 -43.5t-25 -36.5t-36.5 -25t-43.5 -9q-45 0 -88 43zM1280 1289q0 15 -6.5 28.5t-17 24t-24.5 17t-29 6.5t-29 -6.5
t-24.5 -17t-17 -24t-6.5 -28.5v-999l-909 1053q-19 22 -55 22q-15 0 -29 -6.5t-24.5 -17t-17 -24t-6.5 -28.5v-1212q0 -31 23 -54t54 -23t54 23t23 54v998l899 -1039q31 -36 65 -36q31 0 54 23t23 54v1212zM373 1440q-41 14 -41 76v71q0 64 104 126q85 53 144 53
q62 0 133 -71q48 -48 72 -48q13 0 33.5 9.5t46.5 26.5q40 27 65 40t42 13q41 0 53 -36l70 -68q17 -17 17 -58v-72q0 -59 -100 -120q-89 -54 -142 -54q-60 0 -130 70q-49 49 -75 49q-29 0 -83 -37q-75 -51 -103 -51q-22 0 -37 15zM989 1659q0 34 -17 34t-83 -45
q-65 -44 -104 -44q-43 0 -103 60t-102 60q-43 0 -121 -48q-84 -51 -84 -89v-71q0 -35 19 -35q17 0 82 44q64 45 104 45q42 0 102 -60q61 -59 103 -59q43 0 123 49q81 49 81 87v72z" />
    <glyph glyph-name="Ograve" unicode="&#xd2;" horiz-adv-x="1579" 
d="M1212 683q0 177 -120 312q-62 46 -132 70t-149 24q-200 0 -347 -147q-145 -145 -145 -345q0 -158 89 -283q136 -118 317 -118q198 0 342 144q72 72 108.5 157.5t36.5 185.5zM280 111q-35 24 -67 60q-213 213 -213 512q0 298 213 512q214 213 512 213q299 0 512 -213
q17 -17 31.5 -34t28.5 -35l22 -20q212 -212 212 -509t-212 -508q-211 -212 -508 -212t-509 212zM1254 683q0 -217 -156 -373t-373 -156q-216 0 -373 156q-156 156 -156 373q0 216 156 372q157 157 373 157q217 0 373 -157q156 -156 156 -372zM1408 683q0 280 -202 481
q-201 201 -481 201t-481 -201t-201 -481t201 -482q201 -201 481 -201t481 201q202 202 202 482zM743 1423q-28 16 -48 48h2l-139 203q-29 42 -29 79q0 24 9.5 46t25.5 38t37.5 25.5t45.5 9.5q31 0 55 -13.5t44 -39.5l10 -17l57 -54q4 -4 7.5 -8t7.5 -9l150 -221l4 -3
q10 -14 14 -29.5t4 -33.5q0 -24 -8.5 -45t-23.5 -36.5t-35.5 -25t-44.5 -9.5q-23 0 -44 7.5t-36 23.5zM877 1529q0 24 -11 41l-154 225q-24 35 -65 35q-31 0 -53 -23.5t-22 -53.5q0 -25 12 -41l154 -225q22 -36 64 -36q33 0 54 23t21 55z" />
    <glyph glyph-name="Oacute" unicode="&#xd3;" horiz-adv-x="1579" 
d="M1212 683q0 177 -120 312q-62 46 -132 70t-149 24q-200 0 -347 -147q-145 -145 -145 -345q0 -158 89 -283q136 -118 317 -118q198 0 342 144q72 72 108.5 157.5t36.5 185.5zM280 111q-35 24 -67 60q-213 213 -213 512q0 298 213 512q214 213 512 213q299 0 512 -213
q17 -17 31.5 -34t28.5 -35l22 -20q212 -212 212 -509t-212 -508q-211 -212 -508 -212t-509 212zM1254 683q0 -217 -156 -373t-373 -156q-216 0 -373 156q-156 156 -156 373q0 216 156 372q157 157 373 157q217 0 373 -157q156 -156 156 -372zM1408 683q0 280 -202 481
q-201 201 -481 201t-481 -201t-201 -481t201 -482q201 -201 481 -201t481 201q202 202 202 482zM594 1420q-29 14 -47 43.5t-18 65.5q0 37 29 79v-2l145 213q20 26 44 39.5t55 13.5q34 0 61.5 -17t41.5 -46l2 -2l54 -54h-1t-1 1l7 -5q16 -15 25 -37t9 -45q0 -17 -4 -33
t-14 -30h-2l-152 -223h2q-17 -27 -42 -40t-56 -13q-23 0 -43 8.5t-35 23.5zM877 1753q0 30 -22 53.5t-53 23.5q-41 0 -64 -35l-154 -225q-12 -17 -12 -41q0 -32 21.5 -55t53.5 -23q41 0 65 36l154 225q11 17 11 41z" />
    <glyph glyph-name="Ocircumflex" unicode="&#xd4;" horiz-adv-x="1579" 
d="M1212 683q0 177 -120 312q-62 46 -132 70t-149 24q-200 0 -347 -147q-145 -145 -145 -345q0 -158 89 -283q136 -118 317 -118q198 0 342 144q72 72 108.5 157.5t36.5 185.5zM280 111q-35 24 -67 60q-213 213 -213 512q0 298 213 512q214 213 512 213q299 0 512 -213
q17 -17 31.5 -34t28.5 -35l22 -20q212 -212 212 -509t-212 -508q-211 -212 -508 -212t-509 212zM1254 683q0 -217 -156 -373t-373 -156q-216 0 -373 156q-156 156 -156 373q0 216 156 372q157 157 373 157q217 0 373 -157q156 -156 156 -372zM1408 683q0 280 -202 481
q-201 201 -481 201t-481 -201t-201 -481t201 -482q201 -201 481 -201t481 201q202 202 202 482zM483 1437q-31 14 -49 43t-18 65q0 15 3.5 28.5t12.5 27.5l182 258q27 39 55.5 58.5t55.5 19.5q57 0 111 -78l50 -50q8 -8 16 -18t16 -21l183 -258q8 -11 10.5 -24t2.5 -29
q0 -24 -9 -44.5t-24.5 -36t-36 -24.5t-44.5 -9q-45 0 -78 34l-60 58q-29 15 -51 51l-16 22l-73 -104q-22 -31 -46 -46t-55 -15q-24 0 -44.5 9.5t-35.5 24.5zM991 1545q0 19 -6 30l-183 258q-43 61 -77 61q-32 0 -77 -61l-182 -258q-7 -10 -7 -30q0 -33 22 -55t55 -22
q37 0 70 46l119 170l120 -170q31 -46 70 -46q32 0 54 22t22 55z" />
    <glyph glyph-name="Otilde" unicode="&#xd5;" horiz-adv-x="1579" 
d="M1212 683q0 177 -120 312q-62 46 -132 70t-149 24q-200 0 -347 -147q-145 -145 -145 -345q0 -158 89 -283q136 -118 317 -118q198 0 342 144q72 72 108.5 157.5t36.5 185.5zM280 111q-35 24 -67 60q-213 213 -213 512q0 298 213 512q214 213 512 213q299 0 512 -213
q17 -17 31.5 -34t28.5 -35l22 -20q212 -212 212 -509t-212 -508q-211 -212 -508 -212t-509 212zM1254 683q0 -217 -156 -373t-373 -156q-216 0 -373 156q-156 156 -156 373q0 216 156 372q157 157 373 157q217 0 373 -157q156 -156 156 -372zM1408 683q0 280 -202 481
q-201 201 -481 201t-481 -201t-201 -481t201 -482q201 -201 481 -201t481 201q202 202 202 482zM416 1440q-41 14 -41 76v71q0 64 104 126q85 53 144 53q62 0 133 -71q48 -48 72 -48q13 0 33.5 9.5t46.5 26.5q40 27 65 40t42 13q41 0 53 -36l70 -68q17 -17 17 -58v-72
q0 -59 -100 -120q-89 -54 -142 -54q-60 0 -130 70q-49 49 -75 49q-29 0 -83 -37q-75 -51 -103 -51q-22 0 -37 15zM1032 1659q0 34 -17 34t-83 -45q-65 -44 -104 -44q-43 0 -103 60t-102 60q-43 0 -121 -48q-84 -51 -84 -89v-71q0 -35 19 -35q17 0 82 44q64 45 104 45
q42 0 102 -60q61 -59 103 -59q43 0 123 49q81 49 81 87v72z" />
    <glyph glyph-name="Odieresis" unicode="&#xd6;" horiz-adv-x="1579" 
d="M1212 683q0 177 -120 312q-62 46 -132 70t-149 24q-200 0 -347 -147q-145 -145 -145 -345q0 -158 89 -283q136 -118 317 -118q198 0 342 144q72 72 108.5 157.5t36.5 185.5zM280 111q-35 24 -67 60q-213 213 -213 512q0 298 213 512q214 213 512 213q299 0 512 -213
q17 -17 31.5 -34t28.5 -35l22 -20q212 -212 212 -509t-212 -508q-211 -212 -508 -212t-509 212zM1254 683q0 -217 -156 -373t-373 -156q-216 0 -373 156q-156 156 -156 373q0 216 156 372q157 157 373 157q217 0 373 -157q156 -156 156 -372zM1408 683q0 280 -202 481
q-201 201 -481 201t-481 -201t-201 -481t201 -482q201 -201 481 -201t481 201q202 202 202 482zM824 1420q-28 15 -46 43.5t-18 63.5q0 24 9.5 46t25.5 38.5t38 26t46 9.5q35 0 63.5 -18.5t42.5 -48.5l60 -58q15 -15 24.5 -36t9.5 -44t-9.5 -43.5t-25 -36.5t-36.5 -25
t-44 -9t-43.5 9t-36.5 25zM517 1420q-28 15 -46.5 43.5t-18.5 63.5q0 24 9.5 46t26 38.5t38.5 26t46 9.5q35 0 63.5 -18.5t42.5 -48.5l59 -58q16 -15 25 -36t9 -44t-9 -43.5t-24.5 -36.5t-36.5 -25t-44 -9t-44 9t-36 25zM649 1527q0 31 -23 54t-54 23t-54 -23t-23 -54
q0 -15 6.5 -29t17 -24.5t24.5 -16.5t29 -6t29 6t24.5 16.5t17 24.5t6.5 29zM956 1527q0 31 -23 54t-54 23t-54 -23t-23 -54q0 -15 6.5 -29t17 -24.5t24.5 -16.5t29 -6t29 6t24.5 16.5t17 24.5t6.5 29z" />
    <glyph glyph-name="multiply" unicode="&#xd7;" horiz-adv-x="961" 
d="M669 601l44 -45q7 -8 12.5 -14.5t10.5 -15.5l59 -58q31 -31 31 -81q0 -24 -9 -45t-24.5 -36.5t-36 -25t-44.5 -9.5q-47 0 -81 33l-61 60q-8 4 -14.5 9t-12.5 13l-45 44l-126 -126q-33 -33 -80 -33q-49 0 -80 33l-64 61q-28 16 -44.5 44.5t-16.5 63.5q0 27 7.5 46.5
t24.5 36.5l127 127l-127 126q-17 18 -25.5 38t-8.5 46q0 25 9.5 46.5t26 37.5t39 25.5t47.5 9.5q51 0 83 -32l126 -127l127 127q32 32 83 32q35 0 63 -17.5t43 -45.5l63 -62q33 -31 33 -80q0 -47 -33 -80zM705 893q0 32 -23 54t-56 22q-31 0 -53 -20l-157 -157l-157 157
q-20 20 -52 20q-33 0 -56 -22t-23 -54q0 -31 22 -53l157 -157l-157 -157q-20 -22 -20 -53q0 -33 22 -56t55 -23q30 0 52 22l157 157l157 -157q22 -22 53 -22q33 0 55 23t22 56q0 31 -20 53l-157 157l157 157q22 22 22 53z" />
    <glyph glyph-name="Oslash" unicode="&#xd8;" horiz-adv-x="1579" 
d="M1212 683q0 63 -16 117l-623 -580q38 -13 75 -18.5t77 -5.5q198 0 342 144q72 72 108.5 157.5t36.5 185.5zM319 597q0 -31 2 -60t10 -57l630 585q-35 11 -72.5 17.5t-77.5 6.5q-200 0 -347 -147q-145 -145 -145 -345zM24 -31q-29 16 -48 44t-19 64q0 53 36 85l128 118
q-62 93 -91.5 193.5t-29.5 209.5q0 298 213 512q214 213 512 213q241 0 439 -150l116 107q43 43 94 43q84 0 109 -58l62 -61q-2 1 -3 1t-3 2l6 -3q14 -14 21.5 -35.5t7.5 -50.5q0 -51 -35 -82l-131 -123q63 -90 93 -190t30 -211q0 -297 -212 -508q-211 -212 -508 -212
q-250 0 -441 152l-128 -118l2 -1q-17 -17 -38 -25t-44 -8q-24 0 -44.5 9.5t-35.5 24.5zM1254 683q0 -217 -156 -373t-373 -156q-183 0 -329 116l765 713q93 -135 93 -300zM290 382q-94 134 -94 301q0 216 156 372q157 157 373 157q184 0 330 -116zM1451 1289q0 76 -77 76
q-32 0 -55 -22l-152 -142q-191 164 -442 164q-280 0 -481 -201t-201 -481q0 -225 134 -407l-155 -145q-22 -19 -22 -54q0 -33 22 -55t55 -22q32 0 54 22l152 142q191 -164 442 -164q280 0 481 201q202 202 202 482q0 224 -135 406l155 145q23 20 23 55z" />
    <glyph glyph-name="Ugrave" unicode="&#xd9;" 
d="M319 1290q2 0 2 -1zM362 512q0 -62 15.5 -117.5t49.5 -106.5q110 -92 256 -92q163 0 281 118q120 120 120 283v692q0 24 9.5 45.5t25.5 38t38 26t46 9.5q35 0 63.5 -18.5t42.5 -48.5l55 -54h-1t-1 2l7 -6q15 -15 24.5 -36t9.5 -44v-691q0 -262 -186 -449
q-94 -94 -205 -140t-244 -46q-262 0 -449 186l-25 26q-17 13 -32.5 27t-31.5 29q-95 95 -141 206.5t-46 245.5v692q0 24 9.5 45.5t25.5 38t38 26t46 9.5q35 0 63.5 -18.5t44.5 -48.5l49 -51l2 -1l7 -6q15 -15 24.5 -36t9.5 -44v-691zM1280 1289q0 15 -6.5 28.5t-17 24
t-24.5 17t-29 6.5t-29 -6.5t-24.5 -17t-17 -24t-6.5 -28.5v-692q0 -182 -131 -313q-130 -130 -312 -130q-184 0 -314 130t-130 313v692q0 15 -6.5 28.5t-17 24t-24.5 17t-29 6.5t-29 -6.5t-24.5 -17t-17 -24t-6.5 -28.5v-692q0 -245 176 -421t422 -176q245 0 421 176
t176 421v692zM700 1423q-28 16 -48 48h2l-139 203q-29 42 -29 79q0 24 9.5 46t25.5 38t37.5 25.5t45.5 9.5q31 0 55 -13.5t44 -39.5l10 -17l57 -54q4 -4 7.5 -8t7.5 -9l150 -221l4 -3q10 -14 14 -29.5t4 -33.5q0 -24 -8.5 -45t-23.5 -36.5t-35.5 -25t-44.5 -9.5
q-23 0 -44 7.5t-36 23.5zM834 1529q0 24 -11 41l-154 225q-24 35 -65 35q-31 0 -53 -23.5t-22 -53.5q0 -25 12 -41l154 -225q22 -36 64 -36q33 0 54 23t21 55z" />
    <glyph glyph-name="Uacute" unicode="&#xda;" 
d="M319 1290q2 0 2 -1zM362 512q0 -62 15.5 -117.5t49.5 -106.5q110 -92 256 -92q163 0 281 118q120 120 120 283v692q0 24 9.5 45.5t25.5 38t38 26t46 9.5q35 0 63.5 -18.5t42.5 -48.5l55 -54h-1t-1 2l7 -6q15 -15 24.5 -36t9.5 -44v-691q0 -262 -186 -449
q-94 -94 -205 -140t-244 -46q-262 0 -449 186l-25 26q-17 13 -32.5 27t-31.5 29q-95 95 -141 206.5t-46 245.5v692q0 24 9.5 45.5t25.5 38t38 26t46 9.5q35 0 63.5 -18.5t44.5 -48.5l49 -51l2 -1l7 -6q15 -15 24.5 -36t9.5 -44v-691zM1280 1289q0 15 -6.5 28.5t-17 24
t-24.5 17t-29 6.5t-29 -6.5t-24.5 -17t-17 -24t-6.5 -28.5v-692q0 -182 -131 -313q-130 -130 -312 -130q-184 0 -314 130t-130 313v692q0 15 -6.5 28.5t-17 24t-24.5 17t-29 6.5t-29 -6.5t-24.5 -17t-17 -24t-6.5 -28.5v-692q0 -245 176 -421t422 -176q245 0 421 176
t176 421v692zM551 1420q-29 14 -47 43.5t-18 65.5q0 37 29 79v-2l145 213q20 26 44 39.5t55 13.5q34 0 61.5 -17t41.5 -46l2 -2l54 -54h-1t-1 1l7 -5q16 -15 25 -37t9 -45q0 -17 -4 -33t-14 -30h-2l-152 -223h2q-17 -27 -42 -40t-56 -13q-23 0 -43 8.5t-35 23.5zM834 1753
q0 30 -22 53.5t-53 23.5q-41 0 -64 -35l-154 -225q-12 -17 -12 -41q0 -32 21.5 -55t53.5 -23q41 0 65 36l154 225q11 17 11 41z" />
    <glyph glyph-name="Ucircumflex" unicode="&#xdb;" 
d="M319 1290q2 0 2 -1zM362 512q0 -62 15.5 -117.5t49.5 -106.5q110 -92 256 -92q163 0 281 118q120 120 120 283v692q0 24 9.5 45.5t25.5 38t38 26t46 9.5q35 0 63.5 -18.5t42.5 -48.5l55 -54h-1t-1 2l7 -6q15 -15 24.5 -36t9.5 -44v-691q0 -262 -186 -449
q-94 -94 -205 -140t-244 -46q-262 0 -449 186l-25 26q-17 13 -32.5 27t-31.5 29q-95 95 -141 206.5t-46 245.5v692q0 24 9.5 45.5t25.5 38t38 26t46 9.5q35 0 63.5 -18.5t44.5 -48.5l49 -51l2 -1l7 -6q15 -15 24.5 -36t9.5 -44v-691zM1280 1289q0 15 -6.5 28.5t-17 24
t-24.5 17t-29 6.5t-29 -6.5t-24.5 -17t-17 -24t-6.5 -28.5v-692q0 -182 -131 -313q-130 -130 -312 -130q-184 0 -314 130t-130 313v692q0 15 -6.5 28.5t-17 24t-24.5 17t-29 6.5t-29 -6.5t-24.5 -17t-17 -24t-6.5 -28.5v-692q0 -245 176 -421t422 -176q245 0 421 176
t176 421v692zM440 1437q-31 14 -49 43t-18 65q0 15 3.5 28.5t12.5 27.5l182 258q27 39 55.5 58.5t55.5 19.5q57 0 111 -78l50 -50q8 -8 16 -18t16 -21l183 -258q8 -11 10.5 -24t2.5 -29q0 -24 -9 -44.5t-24.5 -36t-36 -24.5t-44.5 -9q-45 0 -78 34l-60 58q-29 15 -51 51
l-16 22l-73 -104q-22 -31 -46 -46t-55 -15q-24 0 -44.5 9.5t-35.5 24.5zM948 1545q0 19 -6 30l-183 258q-43 61 -77 61q-32 0 -77 -61l-182 -258q-7 -10 -7 -30q0 -33 22 -55t55 -22q37 0 70 46l119 170l120 -170q31 -46 70 -46q32 0 54 22t22 55z" />
    <glyph glyph-name="Udieresis" unicode="&#xdc;" 
d="M319 1290q2 0 2 -1zM362 512q0 -62 15.5 -117.5t49.5 -106.5q110 -92 256 -92q163 0 281 118q120 120 120 283v692q0 24 9.5 45.5t25.5 38t38 26t46 9.5q35 0 63.5 -18.5t42.5 -48.5l55 -54h-1t-1 2l7 -6q15 -15 24.5 -36t9.5 -44v-691q0 -262 -186 -449
q-94 -94 -205 -140t-244 -46q-262 0 -449 186l-25 26q-17 13 -32.5 27t-31.5 29q-95 95 -141 206.5t-46 245.5v692q0 24 9.5 45.5t25.5 38t38 26t46 9.5q35 0 63.5 -18.5t44.5 -48.5l49 -51l2 -1l7 -6q15 -15 24.5 -36t9.5 -44v-691zM1280 1289q0 15 -6.5 28.5t-17 24
t-24.5 17t-29 6.5t-29 -6.5t-24.5 -17t-17 -24t-6.5 -28.5v-692q0 -182 -131 -313q-130 -130 -312 -130q-184 0 -314 130t-130 313v692q0 15 -6.5 28.5t-17 24t-24.5 17t-29 6.5t-29 -6.5t-24.5 -17t-17 -24t-6.5 -28.5v-692q0 -245 176 -421t422 -176q245 0 421 176
t176 421v692zM781 1420q-28 15 -46 43.5t-18 63.5q0 24 9.5 46t25.5 38.5t38 26t46 9.5q35 0 63.5 -18.5t42.5 -48.5l60 -58q15 -15 24.5 -36t9.5 -44t-9.5 -43.5t-25 -36.5t-36.5 -25t-44 -9t-43.5 9t-36.5 25zM474 1420q-28 15 -46.5 43.5t-18.5 63.5q0 24 9.5 46t26 38.5
t38.5 26t46 9.5q35 0 63.5 -18.5t42.5 -48.5l59 -58q16 -15 25 -36t9 -44t-9 -43.5t-24.5 -36.5t-36.5 -25t-44 -9t-44 9t-36 25zM606 1527q0 31 -23 54t-54 23t-54 -23t-23 -54q0 -15 6.5 -29t17 -24.5t24.5 -16.5t29 -6t29 6t24.5 16.5t17 24.5t6.5 29zM913 1527
q0 31 -23 54t-54 23t-54 -23t-23 -54q0 -15 6.5 -29t17 -24.5t24.5 -16.5t29 -6t29 6t24.5 16.5t17 24.5t6.5 29z" />
    <glyph glyph-name="Yacute" unicode="&#xdd;" horiz-adv-x="1335" 
d="M258 1287q2 -3 4 -5.5t4 -4.5l340 -407l416 495q20 23 41 33t50 10q35 0 63.5 -18.5t42.5 -48.5l54 -54h-1t-1 2l7 -6q16 -15 25 -36t9 -44q0 -38 -27 -73l-483 -574v-565q0 -23 -9 -43.5t-25 -36.5t-36.5 -25t-43.5 -9t-44 9.5t-36 24.5l-60 60q-29 14 -47 42.5
t-18 63.5v565l-481 571q-16 17 -22 35.5t-6 40.5q0 24 9.5 45.5t25.5 38t37.5 26t45.5 9.5q29 0 51 -10t41 -33l26 -32zM1190 1289q0 15 -6.5 28.5t-17 24t-24.5 17t-29 6.5q-36 0 -58 -27l-453 -538l-450 538q-23 27 -60 27q-31 0 -53 -23t-22 -53q0 -28 17 -48l492 -584
v-580q0 -15 6 -29t16.5 -24.5t24.5 -17t29 -6.5q31 0 54 23t23 54v578l492 584q19 22 19 50zM471 1420q-29 14 -47 43.5t-18 65.5q0 37 29 79v-2l145 213q20 26 44 39.5t55 13.5q34 0 61.5 -17t41.5 -46l2 -2l54 -54h-1t-1 1l7 -5q16 -15 25 -37t9 -45q0 -17 -4 -33t-14 -30
h-2l-152 -223h2q-17 -27 -42 -40t-56 -13q-23 0 -43 8.5t-35 23.5zM754 1753q0 30 -22 53.5t-53 23.5q-41 0 -64 -35l-154 -225q-12 -17 -12 -41q0 -32 21.5 -55t53.5 -23q41 0 65 36l154 225q11 17 11 41z" />
    <glyph glyph-name="Thorn" unicode="&#xde;" horiz-adv-x="1280" 
d="M319 1290q2 0 2 -1zM913 683q0 84 -51 153q-60 34 -132 34h-368v-457h283q111 0 188 79q80 78 80 191zM362 1190h283q107 0 195.5 -37t163.5 -112q14 -14 26 -29t23 -29l3 -3l29 -28q147 -146 147 -355q0 -208 -147 -356q-146 -147 -355 -147h-368v-103q0 -23 -9.5 -43.5
t-25 -36.5t-36.5 -25t-44 -9t-43.5 9.5t-36.5 24.5l-59 60q-29 14 -47 42.5t-18 63.5v1212q0 24 9.5 45.5t25.5 38t38 26t46 9.5q35 0 63.5 -18.5t44.5 -48.5l49 -51l2 -1l7 -6q15 -15 24.5 -36t9.5 -44v-13zM956 683q0 -127 -92 -221q-92 -92 -219 -92h-406v623h406
q128 0 219 -91q92 -92 92 -219zM1109 683q0 190 -137 327t-327 137h-406v142q0 15 -6.5 28.5t-17 24t-24.5 17t-29 6.5t-29 -6.5t-24.5 -17t-17 -24t-6.5 -28.5v-1212q0 -31 23 -54t54 -23t54 23t23 54v140h406q190 0 327 137q137 139 137 329z" />
    <glyph glyph-name="germandbls" unicode="&#xdf;" horiz-adv-x="1015" 
d="M362 741q15 27 43 44t61 17q73 0 128 55t55 128q0 50 -23 87q-17 8 -35 12.5t-38 4.5q-40 0 -73.5 -14t-63.5 -42h2q-56 -58 -56 -134v-158zM411 575q-15 9 -27.5 20.5t-21.5 27.5v-493q19 35 61 54v14q114 0 169 55q29 28 43 60.5t14 67.5q0 22 -6 43.5t-17 41.5
q-18 8 -36.5 12.5t-38.5 4.5q-23 0 -43.5 9.5t-36.5 24.5zM108 -369q-29 14 -47 42.5t-18 63.5v1248q0 177 123 300q121 123 300 123q176 0 299 -123q11 -13 22 -25.5t22 -25.5l38 -38q121 -121 121 -297q0 -179 -132 -302l14 -12q118 -118 118 -290q0 -89 -30.5 -162.5
t-90.5 -134.5q-61 -60 -134 -90.5t-162 -30.5q-23 0 -43.5 9.5t-36.5 24.5l-60 60q-15 8 -27.5 20t-21.5 26v-365q0 -23 -9.5 -44t-25 -37t-36.5 -25t-44 -9t-43.5 9.5t-36.5 25.5zM845 381q0 186 -150 302q150 114 150 302q0 157 -110 269q-110 111 -269 111t-270 -111
t-111 -269v-1248q0 -31 23 -54t54 -23t54 23t23 54v1248q0 94 67 160q67 67 162 67q90 0 156 -69q67 -67 67 -158q0 -92 -67 -159q-66 -67 -158 -67q-15 0 -29 -6.5t-24.5 -17t-17 -24t-6.5 -28.5q0 -31 23 -54t54 -23q92 0 158 -67q67 -66 67 -158q0 -91 -68 -159
q-67 -67 -157 -67v-1q-31 0 -54 -23t-23 -54t23 -54t54 -23q159 0 269 111q110 112 110 270z" />
    <glyph glyph-name="agrave" unicode="&#xe0;" horiz-adv-x="1451" 
d="M1041 597q0 140 -90 250q-101 71 -226 71q-165 0 -286 -121q-120 -119 -120 -285q0 -125 65 -224q110 -92 256 -92q162 0 282 118q59 60 89 131t30 152zM251 89q-31 24 -63 56q-96 95 -142 206.5t-46 245.5t46 245.5t142 207.5q95 95 206.5 141t245.5 46q234 0 401 -153
v34q0 24 9.5 46t26 38t38.5 25.5t46 9.5q35 0 63 -18.5t42 -47.5l60 -58q16 -16 25 -36.5t9 -43.5v-1042q0 -23 -9 -43.5t-25 -36.5t-36.5 -25t-43.5 -9t-44 9.5t-36 24.5l-60 60q-8 4 -15.5 10t-15.5 12q-75 -57 -164.5 -86.5t-185.5 -29.5q-262 0 -449 186zM1084 597
q0 -182 -131 -313q-130 -130 -313 -130q-184 0 -314 130t-130 313t130 313q131 131 314 131q182 0 313 -131t131 -313zM1237 1118q0 15 -6.5 29t-17 24.5t-24 17t-28.5 6.5q-31 0 -54 -23t-23 -54v-145q-167 222 -444 222q-246 0 -422 -176q-175 -175 -175 -422
q0 -246 175 -421q176 -176 422 -176q128 0 248 59q119 59 196 163v-145q0 -31 23 -54t54 -23q15 0 28.5 6.5t24 17t17 24.5t6.5 29v1041zM678 1253q-28 16 -48 48h2l-139 203q-29 42 -29 79q0 24 9.5 46t25.5 38t37.5 25.5t45.5 9.5q31 0 55 -13.5t44 -39.5l10 -17l57 -54
q4 -4 7.5 -8t7.5 -9l150 -221l4 -3q10 -14 14 -29.5t4 -33.5q0 -24 -8.5 -45t-23.5 -36.5t-35.5 -25t-44.5 -9.5q-23 0 -44 7.5t-36 23.5zM812 1359q0 24 -11 41l-154 225q-24 35 -65 35q-31 0 -53 -23.5t-22 -53.5q0 -25 12 -41l154 -225q22 -36 64 -36q33 0 54 23t21 55z
" />
    <glyph glyph-name="aacute" unicode="&#xe1;" horiz-adv-x="1451" 
d="M1041 597q0 140 -90 250q-101 71 -226 71q-165 0 -286 -121q-120 -119 -120 -285q0 -125 65 -224q110 -92 256 -92q162 0 282 118q59 60 89 131t30 152zM251 89q-31 24 -63 56q-96 95 -142 206.5t-46 245.5t46 245.5t142 207.5q95 95 206.5 141t245.5 46q234 0 401 -153
v34q0 24 9.5 46t26 38t38.5 25.5t46 9.5q35 0 63 -18.5t42 -47.5l60 -58q16 -16 25 -36.5t9 -43.5v-1042q0 -23 -9 -43.5t-25 -36.5t-36.5 -25t-43.5 -9t-44 9.5t-36 24.5l-60 60q-8 4 -15.5 10t-15.5 12q-75 -57 -164.5 -86.5t-185.5 -29.5q-262 0 -449 186zM1084 597
q0 -182 -131 -313q-130 -130 -313 -130q-184 0 -314 130t-130 313t130 313q131 131 314 131q182 0 313 -131t131 -313zM1237 1118q0 15 -6.5 29t-17 24.5t-24 17t-28.5 6.5q-31 0 -54 -23t-23 -54v-145q-167 222 -444 222q-246 0 -422 -176q-175 -175 -175 -422
q0 -246 175 -421q176 -176 422 -176q128 0 248 59q119 59 196 163v-145q0 -31 23 -54t54 -23q15 0 28.5 6.5t24 17t17 24.5t6.5 29v1041zM529 1250q-29 14 -47 43.5t-18 65.5q0 37 29 79v-2l145 213q20 26 44 39.5t55 13.5q34 0 61.5 -17t41.5 -46l2 -2l54 -54h-1t-1 1l7 -5
q16 -15 25 -37t9 -45q0 -17 -4 -33t-14 -30h-2l-152 -223h2q-17 -27 -42 -40t-56 -13q-23 0 -43 8.5t-35 23.5zM812 1583q0 30 -22 53.5t-53 23.5q-41 0 -64 -35l-154 -225q-12 -17 -12 -41q0 -32 21.5 -55t53.5 -23q41 0 65 36l154 225q11 17 11 41z" />
    <glyph glyph-name="acircumflex" unicode="&#xe2;" horiz-adv-x="1451" 
d="M1041 597q0 140 -90 250q-101 71 -226 71q-165 0 -286 -121q-120 -119 -120 -285q0 -125 65 -224q110 -92 256 -92q162 0 282 118q59 60 89 131t30 152zM251 89q-31 24 -63 56q-96 95 -142 206.5t-46 245.5t46 245.5t142 207.5q95 95 206.5 141t245.5 46q234 0 401 -153
v34q0 24 9.5 46t26 38t38.5 25.5t46 9.5q35 0 63 -18.5t42 -47.5l60 -58q16 -16 25 -36.5t9 -43.5v-1042q0 -23 -9 -43.5t-25 -36.5t-36.5 -25t-43.5 -9t-44 9.5t-36 24.5l-60 60q-8 4 -15.5 10t-15.5 12q-75 -57 -164.5 -86.5t-185.5 -29.5q-262 0 -449 186zM1084 597
q0 -182 -131 -313q-130 -130 -313 -130q-184 0 -314 130t-130 313t130 313q131 131 314 131q182 0 313 -131t131 -313zM1237 1118q0 15 -6.5 29t-17 24.5t-24 17t-28.5 6.5q-31 0 -54 -23t-23 -54v-145q-167 222 -444 222q-246 0 -422 -176q-175 -175 -175 -422
q0 -246 175 -421q176 -176 422 -176q128 0 248 59q119 59 196 163v-145q0 -31 23 -54t54 -23q15 0 28.5 6.5t24 17t17 24.5t6.5 29v1041zM418 1267q-31 14 -49 43t-18 65q0 15 3.5 28.5t12.5 27.5l182 258q27 39 55.5 58.5t55.5 19.5q57 0 111 -78l50 -50q8 -8 16 -18
t16 -21l183 -258q8 -11 10.5 -24t2.5 -29q0 -24 -9 -44.5t-24.5 -36t-36 -24.5t-44.5 -9q-45 0 -78 34l-60 58q-29 15 -51 51l-16 22l-73 -104q-22 -31 -46 -46t-55 -15q-24 0 -44.5 9.5t-35.5 24.5zM926 1375q0 19 -6 30l-183 258q-43 61 -77 61q-32 0 -77 -61l-182 -258
q-7 -10 -7 -30q0 -33 22 -55t55 -22q37 0 70 46l119 170l120 -170q31 -46 70 -46q32 0 54 22t22 55z" />
    <glyph glyph-name="atilde" unicode="&#xe3;" horiz-adv-x="1451" 
d="M1041 597q0 140 -90 250q-101 71 -226 71q-165 0 -286 -121q-120 -119 -120 -285q0 -125 65 -224q110 -92 256 -92q162 0 282 118q59 60 89 131t30 152zM251 89q-31 24 -63 56q-96 95 -142 206.5t-46 245.5t46 245.5t142 207.5q95 95 206.5 141t245.5 46q234 0 401 -153
v34q0 24 9.5 46t26 38t38.5 25.5t46 9.5q35 0 63 -18.5t42 -47.5l60 -58q16 -16 25 -36.5t9 -43.5v-1042q0 -23 -9 -43.5t-25 -36.5t-36.5 -25t-43.5 -9t-44 9.5t-36 24.5l-60 60q-8 4 -15.5 10t-15.5 12q-75 -57 -164.5 -86.5t-185.5 -29.5q-262 0 -449 186zM1084 597
q0 -182 -131 -313q-130 -130 -313 -130q-184 0 -314 130t-130 313t130 313q131 131 314 131q182 0 313 -131t131 -313zM1237 1118q0 15 -6.5 29t-17 24.5t-24 17t-28.5 6.5q-31 0 -54 -23t-23 -54v-145q-167 222 -444 222q-246 0 -422 -176q-175 -175 -175 -422
q0 -246 175 -421q176 -176 422 -176q128 0 248 59q119 59 196 163v-145q0 -31 23 -54t54 -23q15 0 28.5 6.5t24 17t17 24.5t6.5 29v1041zM351 1270q-41 14 -41 76v71q0 64 104 126q85 53 144 53q62 0 133 -71q48 -48 72 -48q13 0 33.5 9.5t46.5 26.5q40 27 65 40t42 13
q41 0 53 -36l70 -68q17 -17 17 -58v-72q0 -59 -100 -120q-89 -54 -142 -54q-60 0 -130 70q-49 49 -75 49q-29 0 -83 -37q-75 -51 -103 -51q-22 0 -37 15zM967 1489q0 34 -17 34t-83 -45q-65 -44 -104 -44q-43 0 -103 60t-102 60q-43 0 -121 -48q-84 -51 -84 -89v-71
q0 -35 19 -35q17 0 82 44q64 45 104 45q42 0 102 -60q61 -59 103 -59q43 0 123 49q81 49 81 87v72z" />
    <glyph glyph-name="adieresis" unicode="&#xe4;" horiz-adv-x="1451" 
d="M1041 597q0 140 -90 250q-101 71 -226 71q-165 0 -286 -121q-120 -119 -120 -285q0 -125 65 -224q110 -92 256 -92q162 0 282 118q59 60 89 131t30 152zM251 89q-31 24 -63 56q-96 95 -142 206.5t-46 245.5t46 245.5t142 207.5q95 95 206.5 141t245.5 46q234 0 401 -153
v34q0 24 9.5 46t26 38t38.5 25.5t46 9.5q35 0 63 -18.5t42 -47.5l60 -58q16 -16 25 -36.5t9 -43.5v-1042q0 -23 -9 -43.5t-25 -36.5t-36.5 -25t-43.5 -9t-44 9.5t-36 24.5l-60 60q-8 4 -15.5 10t-15.5 12q-75 -57 -164.5 -86.5t-185.5 -29.5q-262 0 -449 186zM1084 597
q0 -182 -131 -313q-130 -130 -313 -130q-184 0 -314 130t-130 313t130 313q131 131 314 131q182 0 313 -131t131 -313zM1237 1118q0 15 -6.5 29t-17 24.5t-24 17t-28.5 6.5q-31 0 -54 -23t-23 -54v-145q-167 222 -444 222q-246 0 -422 -176q-175 -175 -175 -422
q0 -246 175 -421q176 -176 422 -176q128 0 248 59q119 59 196 163v-145q0 -31 23 -54t54 -23q15 0 28.5 6.5t24 17t17 24.5t6.5 29v1041zM759 1250q-28 15 -46 43.5t-18 63.5q0 24 9.5 46t25.5 38.5t38 26t46 9.5q35 0 63.5 -18.5t42.5 -48.5l60 -58q15 -15 24.5 -36
t9.5 -44t-9.5 -43.5t-25 -36.5t-36.5 -25t-44 -9t-43.5 9t-36.5 25zM452 1250q-28 15 -46.5 43.5t-18.5 63.5q0 24 9.5 46t26 38.5t38.5 26t46 9.5q35 0 63.5 -18.5t42.5 -48.5l59 -58q16 -15 25 -36t9 -44t-9 -43.5t-24.5 -36.5t-36.5 -25t-44 -9t-44 9t-36 25zM584 1357
q0 31 -23 54t-54 23t-54 -23t-23 -54q0 -15 6.5 -29t17 -24.5t24.5 -16.5t29 -6t29 6t24.5 16.5t17 24.5t6.5 29zM891 1357q0 31 -23 54t-54 23t-54 -23t-23 -54q0 -15 6.5 -29t17 -24.5t24.5 -16.5t29 -6t29 6t24.5 16.5t17 24.5t6.5 29z" />
    <glyph glyph-name="aring" unicode="&#xe5;" horiz-adv-x="1451" 
d="M1041 597q0 140 -90 250q-101 71 -226 71q-165 0 -286 -121q-120 -119 -120 -285q0 -125 65 -224q110 -92 256 -92q162 0 282 118q59 60 89 131t30 152zM251 89q-31 24 -63 56q-96 95 -142 206.5t-46 245.5t46 245.5t142 207.5q95 95 206.5 141t245.5 46q234 0 401 -153
v34q0 24 9.5 46t26 38t38.5 25.5t46 9.5q35 0 63 -18.5t42 -47.5l60 -58q16 -16 25 -36.5t9 -43.5v-1042q0 -23 -9 -43.5t-25 -36.5t-36.5 -25t-43.5 -9t-44 9.5t-36 24.5l-60 60q-8 4 -15.5 10t-15.5 12q-75 -57 -164.5 -86.5t-185.5 -29.5q-262 0 -449 186zM1084 597
q0 -182 -131 -313q-130 -130 -313 -130q-184 0 -314 130t-130 313t130 313q131 131 314 131q182 0 313 -131t131 -313zM1237 1118q0 15 -6.5 29t-17 24.5t-24 17t-28.5 6.5q-31 0 -54 -23t-23 -54v-145q-167 222 -444 222q-246 0 -422 -176q-175 -175 -175 -422
q0 -246 175 -421q176 -176 422 -176q128 0 248 59q119 59 196 163v-145q0 -31 23 -54t54 -23q15 0 28.5 6.5t24 17t17 24.5t6.5 29v1041zM550 1269q-47 28 -75 75.5t-28 106.5q0 44 17 83t46 68t68 46t83 17q57 0 105.5 -28t76.5 -75l50 -49q28 -29 44.5 -67t16.5 -80
q0 -43 -16.5 -80.5t-45 -66t-66 -45t-80.5 -16.5q-44 0 -81 16.5t-66 44.5zM746 1451q0 -36 -24.5 -60.5t-60.5 -24.5t-61 24.5t-25 60.5t25 61t61 25t60.5 -25t24.5 -61zM831 1451q0 70 -50 120q-50 51 -120 51t-121 -51q-50 -50 -50 -120t50 -120q52 -50 121 -50
q70 0 120 50t50 120z" />
    <glyph glyph-name="ae" unicode="&#xe6;" horiz-adv-x="2340" 
d="M1364 512q0 -20 1 -38.5t4 -36.5l472 473q-17 4 -34.5 6t-36.5 2q-168 0 -287 -119t-119 -287zM1041 597q0 140 -90 250q-101 71 -226 71q-165 0 -286 -121q-120 -119 -120 -285q0 -125 65 -224q110 -92 256 -92q162 0 282 118q59 60 89 131t30 152zM251 89
q-31 24 -63 56q-96 95 -142 206.5t-46 245.5t46 245.5t142 207.5q95 95 206.5 141t245.5 46q109 0 213 -41t188 -116v38q0 24 9.5 46t26 38t38.5 25.5t46 9.5q35 0 63 -18.5t42 -47.5l50 -48q157 114 365 114q94 0 188.5 -31t192.5 -97q32 -22 53.5 -43.5t34.5 -41.5l53 -51
q46 -46 46 -92q0 -50 -32 -82l-599 -599q15 -3 30.5 -3.5t32.5 -0.5q140 0 232 72v2l14 13q26 25 56.5 46t66.5 21q33 0 61.5 -19.5t42.5 -48.5l58 -57q17 -17 26.5 -38t9.5 -44q0 -70 -104 -140q-94 -64 -187.5 -95t-190.5 -31q-235 0 -406 147v-33q0 -23 -9 -43.5
t-25 -36.5t-36.5 -25t-43.5 -9t-44 9.5t-36 24.5l-60 60q-8 4 -15.5 10t-15.5 12q-75 -57 -164.5 -86.5t-185.5 -29.5q-262 0 -449 186zM1084 597q0 -182 -131 -313q-130 -130 -313 -130q-184 0 -314 130t-130 313t130 313q131 131 314 131q182 0 313 -131t131 -313z
M1328 335q-87 109 -87 262q0 185 129 314q130 130 314 130q146 0 262 -89zM2127 966q0 50 -89 109q-182 120 -357 120q-264 0 -444 -200v123q0 15 -6.5 29t-17 24.5t-24 17t-28.5 6.5q-31 0 -54 -23t-23 -54v-145q-77 104 -196 163q-120 59 -248 59q-246 0 -422 -176
q-175 -175 -175 -422q0 -246 175 -421q176 -176 422 -176q128 0 248 59q119 59 196 163v-145q0 -31 23 -54t54 -23q15 0 28.5 6.5t24 17t17 24.5t6.5 29v123q180 -200 444 -200q181 0 357 119q87 60 87 110q0 15 -6 29t-16.5 25t-24 17.5t-28.5 6.5q-14 0 -27.5 -6
t-26.5 -16t-25.5 -21.5t-24.5 -22.5q-105 -87 -265 -87q-139 0 -254 80l677 677q23 23 23 55z" />
    <glyph glyph-name="egrave" unicode="&#xe8;" horiz-adv-x="1299" 
d="M1162 232q2 0 2 -2zM319 512q0 -20 1.5 -39.5t3.5 -39.5l476 477q-19 4 -37 6t-38 2q-167 0 -286 -119q-120 -119 -120 -287zM251 89q-31 24 -63 56q-96 95 -142 206.5t-46 245.5t46 245.5t142 207.5q95 95 206.5 141t245.5 46q95 0 189.5 -31t191.5 -97q31 -22 53 -42.5
t35 -40.5l52 -51q47 -48 47 -94q0 -50 -32 -82l-599 -599q15 -3 30.5 -3.5t32.5 -0.5q140 0 232 72v2l14 13q26 25 56.5 46t66.5 21q35 0 62.5 -19.5t41.5 -48.5l49 -50l2 -2l7 -5q17 -17 26.5 -38t9.5 -44q0 -70 -104 -140h1q-93 -64 -187 -95t-192 -31q-262 0 -449 186z
M287 335q-91 113 -91 262q0 185 130 314q130 130 314 130q146 0 265 -89zM1085 966q0 49 -88 109q-180 120 -357 120q-246 0 -422 -176q-175 -175 -175 -422q0 -246 175 -421q176 -176 422 -176q182 0 357 119q87 60 87 110q0 15 -6 29t-16.5 25t-24 17.5t-28.5 6.5
q-14 0 -27.5 -6t-26.5 -16t-25.5 -21.5t-24.5 -22.5q-105 -87 -265 -87q-139 0 -254 80l677 677q22 22 22 55zM603 1253q-28 16 -48 48h2l-139 203q-29 42 -29 79q0 24 9.5 46t25.5 38t37.5 25.5t45.5 9.5q31 0 55 -13.5t44 -39.5l10 -17l57 -54q4 -4 7.5 -8t7.5 -9
l150 -221l4 -3q10 -14 14 -29.5t4 -33.5q0 -24 -8.5 -45t-23.5 -36.5t-35.5 -25t-44.5 -9.5q-23 0 -44 7.5t-36 23.5zM737 1359q0 24 -11 41l-154 225q-24 35 -65 35q-31 0 -53 -23.5t-22 -53.5q0 -25 12 -41l154 -225q22 -36 64 -36q33 0 54 23t21 55z" />
    <glyph glyph-name="eacute" unicode="&#xe9;" horiz-adv-x="1299" 
d="M1162 232q2 0 2 -2zM319 512q0 -20 1.5 -39.5t3.5 -39.5l476 477q-19 4 -37 6t-38 2q-167 0 -286 -119q-120 -119 -120 -287zM251 89q-31 24 -63 56q-96 95 -142 206.5t-46 245.5t46 245.5t142 207.5q95 95 206.5 141t245.5 46q95 0 189.5 -31t191.5 -97q31 -22 53 -42.5
t35 -40.5l52 -51q47 -48 47 -94q0 -50 -32 -82l-599 -599q15 -3 30.5 -3.5t32.5 -0.5q140 0 232 72v2l14 13q26 25 56.5 46t66.5 21q35 0 62.5 -19.5t41.5 -48.5l49 -50l2 -2l7 -5q17 -17 26.5 -38t9.5 -44q0 -70 -104 -140h1q-93 -64 -187 -95t-192 -31q-262 0 -449 186z
M287 335q-91 113 -91 262q0 185 130 314q130 130 314 130q146 0 265 -89zM1085 966q0 49 -88 109q-180 120 -357 120q-246 0 -422 -176q-175 -175 -175 -422q0 -246 175 -421q176 -176 422 -176q182 0 357 119q87 60 87 110q0 15 -6 29t-16.5 25t-24 17.5t-28.5 6.5
q-14 0 -27.5 -6t-26.5 -16t-25.5 -21.5t-24.5 -22.5q-105 -87 -265 -87q-139 0 -254 80l677 677q22 22 22 55zM454 1250q-29 14 -47 43.5t-18 65.5q0 37 29 79v-2l145 213q20 26 44 39.5t55 13.5q34 0 61.5 -17t41.5 -46l2 -2l54 -54h-1t-1 1l7 -5q16 -15 25 -37t9 -45
q0 -17 -4 -33t-14 -30h-2l-152 -223h2q-17 -27 -42 -40t-56 -13q-23 0 -43 8.5t-35 23.5zM737 1583q0 30 -22 53.5t-53 23.5q-41 0 -64 -35l-154 -225q-12 -17 -12 -41q0 -32 21.5 -55t53.5 -23q41 0 65 36l154 225q11 17 11 41z" />
    <glyph glyph-name="ecircumflex" unicode="&#xea;" horiz-adv-x="1299" 
d="M1162 232q2 0 2 -2zM319 512q0 -20 1.5 -39.5t3.5 -39.5l476 477q-19 4 -37 6t-38 2q-167 0 -286 -119q-120 -119 -120 -287zM251 89q-31 24 -63 56q-96 95 -142 206.5t-46 245.5t46 245.5t142 207.5q95 95 206.5 141t245.5 46q95 0 189.5 -31t191.5 -97q31 -22 53 -42.5
t35 -40.5l52 -51q47 -48 47 -94q0 -50 -32 -82l-599 -599q15 -3 30.5 -3.5t32.5 -0.5q140 0 232 72v2l14 13q26 25 56.5 46t66.5 21q35 0 62.5 -19.5t41.5 -48.5l49 -50l2 -2l7 -5q17 -17 26.5 -38t9.5 -44q0 -70 -104 -140h1q-93 -64 -187 -95t-192 -31q-262 0 -449 186z
M287 335q-91 113 -91 262q0 185 130 314q130 130 314 130q146 0 265 -89zM1085 966q0 49 -88 109q-180 120 -357 120q-246 0 -422 -176q-175 -175 -175 -422q0 -246 175 -421q176 -176 422 -176q182 0 357 119q87 60 87 110q0 15 -6 29t-16.5 25t-24 17.5t-28.5 6.5
q-14 0 -27.5 -6t-26.5 -16t-25.5 -21.5t-24.5 -22.5q-105 -87 -265 -87q-139 0 -254 80l677 677q22 22 22 55zM343 1267q-31 14 -49 43t-18 65q0 15 3.5 28.5t12.5 27.5l182 258q27 39 55.5 58.5t55.5 19.5q57 0 111 -78l50 -50q8 -8 16 -18t16 -21l183 -258q8 -11 10.5 -24
t2.5 -29q0 -24 -9 -44.5t-24.5 -36t-36 -24.5t-44.5 -9q-45 0 -78 34l-60 58q-29 15 -51 51l-16 22l-73 -104q-22 -31 -46 -46t-55 -15q-24 0 -44.5 9.5t-35.5 24.5zM851 1375q0 19 -6 30l-183 258q-43 61 -77 61q-32 0 -77 -61l-182 -258q-7 -10 -7 -30q0 -33 22 -55
t55 -22q37 0 70 46l119 170l120 -170q31 -46 70 -46q32 0 54 22t22 55z" />
    <glyph glyph-name="edieresis" unicode="&#xeb;" horiz-adv-x="1299" 
d="M1162 232q2 0 2 -2zM319 512q0 -20 1.5 -39.5t3.5 -39.5l476 477q-19 4 -37 6t-38 2q-167 0 -286 -119q-120 -119 -120 -287zM251 89q-31 24 -63 56q-96 95 -142 206.5t-46 245.5t46 245.5t142 207.5q95 95 206.5 141t245.5 46q95 0 189.5 -31t191.5 -97q31 -22 53 -42.5
t35 -40.5l52 -51q47 -48 47 -94q0 -50 -32 -82l-599 -599q15 -3 30.5 -3.5t32.5 -0.5q140 0 232 72v2l14 13q26 25 56.5 46t66.5 21q35 0 62.5 -19.5t41.5 -48.5l49 -50l2 -2l7 -5q17 -17 26.5 -38t9.5 -44q0 -70 -104 -140h1q-93 -64 -187 -95t-192 -31q-262 0 -449 186z
M287 335q-91 113 -91 262q0 185 130 314q130 130 314 130q146 0 265 -89zM1085 966q0 49 -88 109q-180 120 -357 120q-246 0 -422 -176q-175 -175 -175 -422q0 -246 175 -421q176 -176 422 -176q182 0 357 119q87 60 87 110q0 15 -6 29t-16.5 25t-24 17.5t-28.5 6.5
q-14 0 -27.5 -6t-26.5 -16t-25.5 -21.5t-24.5 -22.5q-105 -87 -265 -87q-139 0 -254 80l677 677q22 22 22 55zM684 1250q-28 15 -46 43.5t-18 63.5q0 24 9.5 46t25.5 38.5t38 26t46 9.5q35 0 63.5 -18.5t42.5 -48.5l60 -58q15 -15 24.5 -36t9.5 -44t-9.5 -43.5t-25 -36.5
t-36.5 -25t-44 -9t-43.5 9t-36.5 25zM377 1250q-28 15 -46.5 43.5t-18.5 63.5q0 24 9.5 46t26 38.5t38.5 26t46 9.5q35 0 63.5 -18.5t42.5 -48.5l59 -58q16 -15 25 -36t9 -44t-9 -43.5t-24.5 -36.5t-36.5 -25t-44 -9t-44 9t-36 25zM509 1357q0 31 -23 54t-54 23t-54 -23
t-23 -54q0 -15 6.5 -29t17 -24.5t24.5 -16.5t29 -6t29 6t24.5 16.5t17 24.5t6.5 29zM816 1357q0 31 -23 54t-54 23t-54 -23t-23 -54q0 -15 6.5 -29t17 -24.5t24.5 -16.5t29 -6t29 6t24.5 16.5t17 24.5t6.5 29z" />
    <glyph glyph-name="igrave" unicode="&#xec;" horiz-adv-x="452" 
d="M108 -29q-29 14 -47 42.5t-18 63.5v1041q0 24 9.5 46t25.5 38t38 25.5t46 9.5q35 0 63.5 -18.5t42.5 -47.5l60 -58q15 -16 24.5 -36.5t9.5 -43.5v-1042q0 -23 -9.5 -43.5t-25 -36.5t-36.5 -25t-44 -9t-43.5 9.5t-36.5 24.5zM239 1118q0 31 -23 54t-54 23t-54 -23t-23 -54
v-1041q0 -31 23 -54t54 -23t54 23t23 54v1041zM181 1253q-28 16 -48 48h2l-139 203q-29 42 -29 79q0 24 9.5 46t25.5 38t37.5 25.5t45.5 9.5q31 0 55 -13.5t44 -39.5l10 -17l57 -54q4 -4 7.5 -8t7.5 -9l150 -221l4 -3q10 -14 14 -29.5t4 -33.5q0 -24 -8.5 -45t-23.5 -36.5
t-35.5 -25t-44.5 -9.5q-23 0 -44 7.5t-36 23.5zM315 1359q0 24 -11 41l-154 225q-24 35 -65 35q-31 0 -53 -23.5t-22 -53.5q0 -25 12 -41l154 -225q22 -36 64 -36q33 0 54 23t21 55z" />
    <glyph glyph-name="iacute" unicode="&#xed;" horiz-adv-x="452" 
d="M108 -29q-29 14 -47 42.5t-18 63.5v1041q0 24 9.5 46t25.5 38t38 25.5t46 9.5q35 0 63.5 -18.5t42.5 -47.5l60 -58q15 -16 24.5 -36.5t9.5 -43.5v-1042q0 -23 -9.5 -43.5t-25 -36.5t-36.5 -25t-44 -9t-43.5 9.5t-36.5 24.5zM239 1118q0 31 -23 54t-54 23t-54 -23t-23 -54
v-1041q0 -31 23 -54t54 -23t54 23t23 54v1041zM32 1250q-29 14 -47 43.5t-18 65.5q0 37 29 79v-2l145 213q20 26 44 39.5t55 13.5q34 0 61.5 -17t41.5 -46l2 -2l54 -54h-1t-1 1l7 -5q16 -15 25 -37t9 -45q0 -17 -4 -33t-14 -30h-2l-152 -223h2q-17 -27 -42 -40t-56 -13
q-23 0 -43 8.5t-35 23.5zM315 1583q0 30 -22 53.5t-53 23.5q-41 0 -64 -35l-154 -225q-12 -17 -12 -41q0 -32 21.5 -55t53.5 -23q41 0 65 36l154 225q11 17 11 41z" />
    <glyph glyph-name="icircumflex" unicode="&#xee;" horiz-adv-x="452" 
d="M108 -29q-29 14 -47 42.5t-18 63.5v1041q0 24 9.5 46t25.5 38t38 25.5t46 9.5q35 0 63.5 -18.5t42.5 -47.5l60 -58q15 -16 24.5 -36.5t9.5 -43.5v-1042q0 -23 -9.5 -43.5t-25 -36.5t-36.5 -25t-44 -9t-43.5 9.5t-36.5 24.5zM239 1118q0 31 -23 54t-54 23t-54 -23t-23 -54
v-1041q0 -31 23 -54t54 -23t54 23t23 54v1041zM-79 1267q-31 14 -49 43t-18 65q0 15 3.5 28.5t12.5 27.5l182 258q27 39 55.5 58.5t55.5 19.5q57 0 111 -78l50 -50q8 -8 16 -18t16 -21l183 -258q8 -11 10.5 -24t2.5 -29q0 -24 -9 -44.5t-24.5 -36t-36 -24.5t-44.5 -9
q-45 0 -78 34l-60 58q-29 15 -51 51l-16 22l-73 -104q-22 -31 -46 -46t-55 -15q-24 0 -44.5 9.5t-35.5 24.5zM429 1375q0 19 -6 30l-183 258q-43 61 -77 61q-32 0 -77 -61l-182 -258q-7 -10 -7 -30q0 -33 22 -55t55 -22q37 0 70 46l119 170l120 -170q31 -46 70 -46
q32 0 54 22t22 55z" />
    <glyph glyph-name="idieresis" unicode="&#xef;" horiz-adv-x="452" 
d="M108 -29q-29 14 -47 42.5t-18 63.5v1041q0 24 9.5 46t25.5 38t38 25.5t46 9.5q35 0 63.5 -18.5t42.5 -47.5l60 -58q15 -16 24.5 -36.5t9.5 -43.5v-1042q0 -23 -9.5 -43.5t-25 -36.5t-36.5 -25t-44 -9t-43.5 9.5t-36.5 24.5zM239 1118q0 31 -23 54t-54 23t-54 -23t-23 -54
v-1041q0 -31 23 -54t54 -23t54 23t23 54v1041zM262 1250q-28 15 -46 43.5t-18 63.5q0 24 9.5 46t25.5 38.5t38 26t46 9.5q35 0 63.5 -18.5t42.5 -48.5l60 -58q15 -15 24.5 -36t9.5 -44t-9.5 -43.5t-25 -36.5t-36.5 -25t-44 -9t-43.5 9t-36.5 25zM-45 1250q-28 15 -46.5 43.5
t-18.5 63.5q0 24 9.5 46t26 38.5t38.5 26t46 9.5q35 0 63.5 -18.5t42.5 -48.5l59 -58q16 -15 25 -36t9 -44t-9 -43.5t-24.5 -36.5t-36.5 -25t-44 -9t-44 9t-36 25zM87 1357q0 31 -23 54t-54 23t-54 -23t-23 -54q0 -15 6.5 -29t17 -24.5t24.5 -16.5t29 -6t29 6t24.5 16.5
t17 24.5t6.5 29zM394 1357q0 31 -23 54t-54 23t-54 -23t-23 -54q0 -15 6.5 -29t17 -24.5t24.5 -16.5t29 -6t29 6t24.5 16.5t17 24.5t6.5 29z" />
    <glyph glyph-name="ntilde" unicode="&#xf1;" 
d="M319 1120q2 0 2 -2zM323 1114q157 123 375 123q130 0 239 -47t203 -144q14 -14 27 -29t24 -29l31 -31q181 -185 181 -445v-521q0 -23 -9 -43.5t-25 -36.5t-36.5 -25t-43.5 -9t-44 9.5t-37 24.5l-59 60q-29 14 -47 42.5t-18 63.5v520q0 69 -23 132.5t-68 117.5
q-100 71 -225 71q-166 0 -287 -121q-119 -119 -119 -285v-521q0 -23 -9.5 -43.5t-25 -36.5t-36.5 -25t-44 -9t-43.5 9.5t-36.5 24.5l-59 60q-29 14 -47 42.5t-18 63.5v1041q0 24 9.5 46t25.5 38t38 25.5t46 9.5q35 0 63.5 -18.5t44.5 -47.5l49 -51zM1280 597q0 243 -171 420
q-169 178 -411 178q-287 0 -459 -222v145q0 31 -23 54t-54 23t-54 -23t-23 -54v-1041q0 -31 23 -54t54 -23t54 23t23 54v520q0 183 130 313q131 131 314 131q181 0 312 -131t131 -313v-520q0 -31 23 -54t54 -23t54 23t23 54v520zM373 1270q-41 14 -41 76v71q0 64 104 126
q85 53 144 53q62 0 133 -71q48 -48 72 -48q13 0 33.5 9.5t46.5 26.5q40 27 65 40t42 13q41 0 53 -36l70 -68q17 -17 17 -58v-72q0 -59 -100 -120q-89 -54 -142 -54q-60 0 -130 70q-49 49 -75 49q-29 0 -83 -37q-75 -51 -103 -51q-22 0 -37 15zM989 1489q0 34 -17 34t-83 -45
q-65 -44 -104 -44q-43 0 -103 60t-102 60q-43 0 -121 -48q-84 -51 -84 -89v-71q0 -35 19 -35q17 0 82 44q64 45 104 45q42 0 102 -60q61 -59 103 -59q43 0 123 49q81 49 81 87v72z" />
    <glyph glyph-name="ograve" unicode="&#xf2;" horiz-adv-x="1408" 
d="M1041 597q0 140 -90 250q-101 71 -226 71q-165 0 -286 -121q-120 -119 -120 -285q0 -125 65 -224q110 -92 256 -92q162 0 282 118q59 60 89 131t30 152zM251 89q-31 24 -63 56q-96 95 -142 206.5t-46 245.5t46 245.5t142 207.5q95 95 206.5 141t245.5 46t245.5 -46
t206.5 -141q16 -16 30 -32t27 -32l25 -25q186 -186 186 -449t-186 -449t-449 -186q-262 0 -449 186zM1084 597q0 -182 -131 -313q-130 -130 -313 -130q-184 0 -314 130t-130 313t130 313q131 131 314 131q182 0 313 -131t131 -313zM1237 597q0 246 -176 422t-421 176
q-246 0 -422 -176q-175 -175 -175 -422q0 -246 175 -421q176 -176 422 -176q245 0 421 176t176 421zM657 1253q-28 16 -48 48h2l-139 203q-29 42 -29 79q0 24 9.5 46t25.5 38t37.5 25.5t45.5 9.5q31 0 55 -13.5t44 -39.5l10 -17l57 -54q4 -4 7.5 -8t7.5 -9l150 -221l4 -3
q10 -14 14 -29.5t4 -33.5q0 -24 -8.5 -45t-23.5 -36.5t-35.5 -25t-44.5 -9.5q-23 0 -44 7.5t-36 23.5zM791 1359q0 24 -11 41l-154 225q-24 35 -65 35q-31 0 -53 -23.5t-22 -53.5q0 -25 12 -41l154 -225q22 -36 64 -36q33 0 54 23t21 55z" />
    <glyph glyph-name="oacute" unicode="&#xf3;" horiz-adv-x="1408" 
d="M1041 597q0 140 -90 250q-101 71 -226 71q-165 0 -286 -121q-120 -119 -120 -285q0 -125 65 -224q110 -92 256 -92q162 0 282 118q59 60 89 131t30 152zM251 89q-31 24 -63 56q-96 95 -142 206.5t-46 245.5t46 245.5t142 207.5q95 95 206.5 141t245.5 46t245.5 -46
t206.5 -141q16 -16 30 -32t27 -32l25 -25q186 -186 186 -449t-186 -449t-449 -186q-262 0 -449 186zM1084 597q0 -182 -131 -313q-130 -130 -313 -130q-184 0 -314 130t-130 313t130 313q131 131 314 131q182 0 313 -131t131 -313zM1237 597q0 246 -176 422t-421 176
q-246 0 -422 -176q-175 -175 -175 -422q0 -246 175 -421q176 -176 422 -176q245 0 421 176t176 421zM508 1250q-29 14 -47 43.5t-18 65.5q0 37 29 79v-2l145 213q20 26 44 39.5t55 13.5q34 0 61.5 -17t41.5 -46l2 -2l54 -54h-1t-1 1l7 -5q16 -15 25 -37t9 -45q0 -17 -4 -33
t-14 -30h-2l-152 -223h2q-17 -27 -42 -40t-56 -13q-23 0 -43 8.5t-35 23.5zM791 1583q0 30 -22 53.5t-53 23.5q-41 0 -64 -35l-154 -225q-12 -17 -12 -41q0 -32 21.5 -55t53.5 -23q41 0 65 36l154 225q11 17 11 41z" />
    <glyph glyph-name="ocircumflex" unicode="&#xf4;" horiz-adv-x="1408" 
d="M1041 597q0 140 -90 250q-101 71 -226 71q-165 0 -286 -121q-120 -119 -120 -285q0 -125 65 -224q110 -92 256 -92q162 0 282 118q59 60 89 131t30 152zM251 89q-31 24 -63 56q-96 95 -142 206.5t-46 245.5t46 245.5t142 207.5q95 95 206.5 141t245.5 46t245.5 -46
t206.5 -141q16 -16 30 -32t27 -32l25 -25q186 -186 186 -449t-186 -449t-449 -186q-262 0 -449 186zM1084 597q0 -182 -131 -313q-130 -130 -313 -130q-184 0 -314 130t-130 313t130 313q131 131 314 131q182 0 313 -131t131 -313zM1237 597q0 246 -176 422t-421 176
q-246 0 -422 -176q-175 -175 -175 -422q0 -246 175 -421q176 -176 422 -176q245 0 421 176t176 421zM398 1267q-31 14 -49 43t-18 65q0 15 3.5 28.5t12.5 27.5l182 258q27 39 55.5 58.5t55.5 19.5q57 0 111 -78l50 -50q8 -8 16 -18t16 -21l183 -258q8 -11 10.5 -24t2.5 -29
q0 -24 -9 -44.5t-24.5 -36t-36 -24.5t-44.5 -9q-45 0 -78 34l-60 58q-29 15 -51 51l-16 22l-73 -104q-22 -31 -46 -46t-55 -15q-24 0 -44.5 9.5t-35.5 24.5zM906 1375q0 19 -6 30l-183 258q-43 61 -77 61q-32 0 -77 -61l-182 -258q-7 -10 -7 -30q0 -33 22 -55t55 -22
q37 0 70 46l119 170l120 -170q31 -46 70 -46q32 0 54 22t22 55z" />
    <glyph glyph-name="otilde" unicode="&#xf5;" horiz-adv-x="1408" 
d="M1041 597q0 140 -90 250q-101 71 -226 71q-165 0 -286 -121q-120 -119 -120 -285q0 -125 65 -224q110 -92 256 -92q162 0 282 118q59 60 89 131t30 152zM251 89q-31 24 -63 56q-96 95 -142 206.5t-46 245.5t46 245.5t142 207.5q95 95 206.5 141t245.5 46t245.5 -46
t206.5 -141q16 -16 30 -32t27 -32l25 -25q186 -186 186 -449t-186 -449t-449 -186q-262 0 -449 186zM1084 597q0 -182 -131 -313q-130 -130 -313 -130q-184 0 -314 130t-130 313t130 313q131 131 314 131q182 0 313 -131t131 -313zM1237 597q0 246 -176 422t-421 176
q-246 0 -422 -176q-175 -175 -175 -422q0 -246 175 -421q176 -176 422 -176q245 0 421 176t176 421zM331 1270q-41 14 -41 76v71q0 64 104 126q85 53 144 53q62 0 133 -71q48 -48 72 -48q13 0 33.5 9.5t46.5 26.5q40 27 65 40t42 13q41 0 53 -36l70 -68q17 -17 17 -58v-72
q0 -59 -100 -120q-89 -54 -142 -54q-60 0 -130 70q-49 49 -75 49q-29 0 -83 -37q-75 -51 -103 -51q-22 0 -37 15zM947 1489q0 34 -17 34t-83 -45q-65 -44 -104 -44q-43 0 -103 60t-102 60q-43 0 -121 -48q-84 -51 -84 -89v-71q0 -35 19 -35q17 0 82 44q64 45 104 45
q42 0 102 -60q61 -59 103 -59q43 0 123 49q81 49 81 87v72z" />
    <glyph glyph-name="odieresis" unicode="&#xf6;" horiz-adv-x="1408" 
d="M1041 597q0 140 -90 250q-101 71 -226 71q-165 0 -286 -121q-120 -119 -120 -285q0 -125 65 -224q110 -92 256 -92q162 0 282 118q59 60 89 131t30 152zM251 89q-31 24 -63 56q-96 95 -142 206.5t-46 245.5t46 245.5t142 207.5q95 95 206.5 141t245.5 46t245.5 -46
t206.5 -141q16 -16 30 -32t27 -32l25 -25q186 -186 186 -449t-186 -449t-449 -186q-262 0 -449 186zM1084 597q0 -182 -131 -313q-130 -130 -313 -130q-184 0 -314 130t-130 313t130 313q131 131 314 131q182 0 313 -131t131 -313zM1237 597q0 246 -176 422t-421 176
q-246 0 -422 -176q-175 -175 -175 -422q0 -246 175 -421q176 -176 422 -176q245 0 421 176t176 421zM739 1250q-28 15 -46 43.5t-18 63.5q0 24 9.5 46t25.5 38.5t38 26t46 9.5q35 0 63.5 -18.5t42.5 -48.5l60 -58q15 -15 24.5 -36t9.5 -44t-9.5 -43.5t-25 -36.5t-36.5 -25
t-44 -9t-43.5 9t-36.5 25zM432 1250q-28 15 -46.5 43.5t-18.5 63.5q0 24 9.5 46t26 38.5t38.5 26t46 9.5q35 0 63.5 -18.5t42.5 -48.5l59 -58q16 -15 25 -36t9 -44t-9 -43.5t-24.5 -36.5t-36.5 -25t-44 -9t-44 9t-36 25zM564 1357q0 31 -23 54t-54 23t-54 -23t-23 -54
q0 -15 6.5 -29t17 -24.5t24.5 -16.5t29 -6t29 6t24.5 16.5t17 24.5t6.5 29zM871 1357q0 31 -23 54t-54 23t-54 -23t-23 -54q0 -15 6.5 -29t17 -24.5t24.5 -16.5t29 -6t29 6t24.5 16.5t17 24.5t6.5 29z" />
    <glyph glyph-name="divide" unicode="&#xf7;" horiz-adv-x="1067" 
d="M626 420q2 0 2 -2zM626 949q2 0 2 -2zM669 862q0 -33 -19 -60h84q35 0 63.5 -18.5t42.5 -47.5l59 -58q16 -16 25.5 -37t9.5 -44t-9.5 -43.5t-25 -36.5t-36.5 -25t-44 -9h-251q3 -2 4 -6t3 -6l51 -51l2 -2l7 -5q15 -15 24.5 -36t9.5 -44t-9 -44t-25 -37t-36.5 -25
t-43.5 -9t-44 9.5t-37 25.5l-59 58q-29 15 -47 43.5t-18 63.5t19 65h-79q-23 0 -44 9.5t-36 24.5l-60 58q-28 16 -46.5 44.5t-18.5 63.5q0 24 9.5 46t26 38t38.5 25.5t46 9.5h249l-39 38q-29 15 -47 43.5t-18 63.5q0 24 9.5 46t25.5 38.5t38 26t46 9.5q35 0 63.5 -19
t44.5 -48l49 -51l2 -2l7 -5q15 -15 24.5 -36t9.5 -44zM546 418q0 31 -23 54t-54 23q-15 0 -29 -6.5t-24.5 -17t-16.5 -24.5t-6 -29t6 -29t16.5 -24.5t24.5 -17t29 -6.5q31 0 54 23t23 54zM811 683q0 15 -6.5 28.5t-17 24t-24.5 17t-29 6.5h-529q-15 0 -29 -6.5t-24.5 -17
t-17 -24t-6.5 -28.5q0 -31 23 -54t54 -23h529q31 0 54 23t23 54zM546 947q0 31 -23 54t-54 23q-15 0 -29 -6.5t-24.5 -17t-16.5 -24.5t-6 -29t6 -29t16.5 -24.5t24.5 -17t29 -6.5q31 0 54 23t23 54z" />
    <glyph glyph-name="oslash" unicode="&#xf8;" horiz-adv-x="1408" 
d="M1041 597q0 12 -1 23.5t-2 22.5l-477 -440q20 -4 39.5 -5.5t39.5 -1.5q162 0 282 118q59 60 89 131t30 152zM319 512q0 -13 -0.5 -24t2.5 -22l483 444q-20 4 -39 6t-40 2q-165 0 -286 -121q-120 -119 -120 -285zM24 -31q-29 16 -48 44t-19 64q0 53 36 85l104 96
q-50 81 -73.5 165t-23.5 174q0 134 46 245.5t142 207.5q95 95 206.5 141t245.5 46q206 0 379 -128l90 86q22 22 46 32t48 10q84 0 109 -58l62 -61q29 -29 29 -85q0 -26 -8 -46.5t-26 -35.5l-108 -99q99 -158 99 -340q0 -263 -186 -449t-449 -186q-213 0 -380 128l-103 -94
l2 -1q-17 -17 -38 -25t-44 -8q-24 0 -44.5 9.5t-35.5 24.5zM1084 597q0 -182 -131 -313q-130 -130 -313 -130q-150 0 -268 90l640 592q72 -111 72 -239zM268 358q-72 111 -72 239q0 183 130 313q131 131 314 131q149 0 268 -90zM1280 1118q0 77 -77 77q-31 0 -54 -23
l-127 -117q-167 140 -382 140q-246 0 -422 -176q-175 -175 -175 -422q0 -190 111 -344l-132 -122q-22 -19 -22 -54q0 -33 22 -55t55 -22q32 0 54 22l127 118q167 -140 382 -140q245 0 421 176t176 421q0 190 -111 345l132 121q22 21 22 55z" />
    <glyph glyph-name="ugrave" unicode="&#xf9;" 
d="M1360 1120q2 0 2 -2zM362 512q0 -62 15.5 -117.5t49.5 -106.5q110 -92 256 -92q163 0 281 118q120 120 120 283v521q0 24 9.5 46t25.5 38t38 25.5t46 9.5q35 0 63.5 -18.5t44.5 -47.5l49 -51l2 -2l7 -5q15 -16 24.5 -36.5t9.5 -43.5v-1042q0 -23 -9 -43.5t-25 -36.5
t-36.5 -25t-43.5 -9t-44 9.5t-37 24.5l-59 60q-8 4 -15.5 10t-15.5 12q-152 -116 -365 -116q-252 0 -434 184l-22 23q-20 14 -37.5 30.5t-34.5 33.5q-93 96 -137.5 207t-44.5 242v521q0 24 9.5 46t25.5 38t38 25.5t46 9.5q35 0 63.5 -18.5t42.5 -47.5l60 -58
q15 -16 24.5 -36.5t9.5 -43.5v-521zM1280 1118q0 31 -23 54t-54 23t-54 -23t-23 -54v-521q0 -182 -131 -313q-130 -130 -312 -130q-184 0 -314 130t-130 313v521q0 31 -23 54t-54 23t-54 -23t-23 -54v-521q0 -242 171 -420q171 -177 411 -177q286 0 459 222v-145
q0 -31 23 -54t54 -23t54 23t23 54v1041zM700 1253q-28 16 -48 48h2l-139 203q-29 42 -29 79q0 24 9.5 46t25.5 38t37.5 25.5t45.5 9.5q31 0 55 -13.5t44 -39.5l10 -17l57 -54q4 -4 7.5 -8t7.5 -9l150 -221l4 -3q10 -14 14 -29.5t4 -33.5q0 -24 -8.5 -45t-23.5 -36.5
t-35.5 -25t-44.5 -9.5q-23 0 -44 7.5t-36 23.5zM834 1359q0 24 -11 41l-154 225q-24 35 -65 35q-31 0 -53 -23.5t-22 -53.5q0 -25 12 -41l154 -225q22 -36 64 -36q33 0 54 23t21 55z" />
    <glyph glyph-name="uacute" unicode="&#xfa;" 
d="M1360 1120q2 0 2 -2zM362 512q0 -62 15.5 -117.5t49.5 -106.5q110 -92 256 -92q163 0 281 118q120 120 120 283v521q0 24 9.5 46t25.5 38t38 25.5t46 9.5q35 0 63.5 -18.5t44.5 -47.5l49 -51l2 -2l7 -5q15 -16 24.5 -36.5t9.5 -43.5v-1042q0 -23 -9 -43.5t-25 -36.5
t-36.5 -25t-43.5 -9t-44 9.5t-37 24.5l-59 60q-8 4 -15.5 10t-15.5 12q-152 -116 -365 -116q-252 0 -434 184l-22 23q-20 14 -37.5 30.5t-34.5 33.5q-93 96 -137.5 207t-44.5 242v521q0 24 9.5 46t25.5 38t38 25.5t46 9.5q35 0 63.5 -18.5t42.5 -47.5l60 -58
q15 -16 24.5 -36.5t9.5 -43.5v-521zM1280 1118q0 31 -23 54t-54 23t-54 -23t-23 -54v-521q0 -182 -131 -313q-130 -130 -312 -130q-184 0 -314 130t-130 313v521q0 31 -23 54t-54 23t-54 -23t-23 -54v-521q0 -242 171 -420q171 -177 411 -177q286 0 459 222v-145
q0 -31 23 -54t54 -23t54 23t23 54v1041zM551 1250q-29 14 -47 43.5t-18 65.5q0 37 29 79v-2l145 213q20 26 44 39.5t55 13.5q34 0 61.5 -17t41.5 -46l2 -2l54 -54h-1t-1 1l7 -5q16 -15 25 -37t9 -45q0 -17 -4 -33t-14 -30h-2l-152 -223h2q-17 -27 -42 -40t-56 -13
q-23 0 -43 8.5t-35 23.5zM834 1583q0 30 -22 53.5t-53 23.5q-41 0 -64 -35l-154 -225q-12 -17 -12 -41q0 -32 21.5 -55t53.5 -23q41 0 65 36l154 225q11 17 11 41z" />
    <glyph glyph-name="ucircumflex" unicode="&#xfb;" 
d="M1360 1120q2 0 2 -2zM362 512q0 -62 15.5 -117.5t49.5 -106.5q110 -92 256 -92q163 0 281 118q120 120 120 283v521q0 24 9.5 46t25.5 38t38 25.5t46 9.5q35 0 63.5 -18.5t44.5 -47.5l49 -51l2 -2l7 -5q15 -16 24.5 -36.5t9.5 -43.5v-1042q0 -23 -9 -43.5t-25 -36.5
t-36.5 -25t-43.5 -9t-44 9.5t-37 24.5l-59 60q-8 4 -15.5 10t-15.5 12q-152 -116 -365 -116q-252 0 -434 184l-22 23q-20 14 -37.5 30.5t-34.5 33.5q-93 96 -137.5 207t-44.5 242v521q0 24 9.5 46t25.5 38t38 25.5t46 9.5q35 0 63.5 -18.5t42.5 -47.5l60 -58
q15 -16 24.5 -36.5t9.5 -43.5v-521zM1280 1118q0 31 -23 54t-54 23t-54 -23t-23 -54v-521q0 -182 -131 -313q-130 -130 -312 -130q-184 0 -314 130t-130 313v521q0 31 -23 54t-54 23t-54 -23t-23 -54v-521q0 -242 171 -420q171 -177 411 -177q286 0 459 222v-145
q0 -31 23 -54t54 -23t54 23t23 54v1041zM440 1267q-31 14 -49 43t-18 65q0 15 3.5 28.5t12.5 27.5l182 258q27 39 55.5 58.5t55.5 19.5q57 0 111 -78l50 -50q8 -8 16 -18t16 -21l183 -258q8 -11 10.5 -24t2.5 -29q0 -24 -9 -44.5t-24.5 -36t-36 -24.5t-44.5 -9q-45 0 -78 34
l-60 58q-29 15 -51 51l-16 22l-73 -104q-22 -31 -46 -46t-55 -15q-24 0 -44.5 9.5t-35.5 24.5zM948 1375q0 19 -6 30l-183 258q-43 61 -77 61q-32 0 -77 -61l-182 -258q-7 -10 -7 -30q0 -33 22 -55t55 -22q37 0 70 46l119 170l120 -170q31 -46 70 -46q32 0 54 22t22 55z" />
    <glyph glyph-name="udieresis" unicode="&#xfc;" 
d="M1360 1120q2 0 2 -2zM362 512q0 -62 15.5 -117.5t49.5 -106.5q110 -92 256 -92q163 0 281 118q120 120 120 283v521q0 24 9.5 46t25.5 38t38 25.5t46 9.5q35 0 63.5 -18.5t44.5 -47.5l49 -51l2 -2l7 -5q15 -16 24.5 -36.5t9.5 -43.5v-1042q0 -23 -9 -43.5t-25 -36.5
t-36.5 -25t-43.5 -9t-44 9.5t-37 24.5l-59 60q-8 4 -15.5 10t-15.5 12q-152 -116 -365 -116q-252 0 -434 184l-22 23q-20 14 -37.5 30.5t-34.5 33.5q-93 96 -137.5 207t-44.5 242v521q0 24 9.5 46t25.5 38t38 25.5t46 9.5q35 0 63.5 -18.5t42.5 -47.5l60 -58
q15 -16 24.5 -36.5t9.5 -43.5v-521zM1280 1118q0 31 -23 54t-54 23t-54 -23t-23 -54v-521q0 -182 -131 -313q-130 -130 -312 -130q-184 0 -314 130t-130 313v521q0 31 -23 54t-54 23t-54 -23t-23 -54v-521q0 -242 171 -420q171 -177 411 -177q286 0 459 222v-145
q0 -31 23 -54t54 -23t54 23t23 54v1041zM781 1250q-28 15 -46 43.5t-18 63.5q0 24 9.5 46t25.5 38.5t38 26t46 9.5q35 0 63.5 -18.5t42.5 -48.5l60 -58q15 -15 24.5 -36t9.5 -44t-9.5 -43.5t-25 -36.5t-36.5 -25t-44 -9t-43.5 9t-36.5 25zM474 1250q-28 15 -46.5 43.5
t-18.5 63.5q0 24 9.5 46t26 38.5t38.5 26t46 9.5q35 0 63.5 -18.5t42.5 -48.5l59 -58q16 -15 25 -36t9 -44t-9 -43.5t-24.5 -36.5t-36.5 -25t-44 -9t-44 9t-36 25zM606 1357q0 31 -23 54t-54 23t-54 -23t-23 -54q0 -15 6.5 -29t17 -24.5t24.5 -16.5t29 -6t29 6t24.5 16.5
t17 24.5t6.5 29zM913 1357q0 31 -23 54t-54 23t-54 -23t-23 -54q0 -15 6.5 -29t17 -24.5t24.5 -16.5t29 -6t29 6t24.5 16.5t17 24.5t6.5 29z" />
    <glyph glyph-name="yacute" unicode="&#xfd;" 
d="M1360 1120q2 0 2 -2zM319 1120q2 0 2 -2zM362 512q0 -62 15.5 -117.5t49.5 -106.5q110 -92 256 -92q163 0 281 118q120 120 120 283v521q0 24 9.5 46t25.5 38t38 25.5t46 9.5q35 0 63.5 -18.5t44.5 -47.5l49 -51l2 -2l7 -5q15 -16 24.5 -36.5t9.5 -43.5v-1381
q0 -23 -9 -44t-25 -37t-36.5 -25t-43.5 -9h-700q-23 0 -44 9.5t-36 25.5l-60 59q-29 14 -47 42.5t-18 63.5q0 24 9.5 46t26 38.5t38 26t45.5 9.5h581v112q-74 -45 -155.5 -68.5t-175.5 -23.5q-252 0 -434 184l-22 23q-20 14 -37.5 30.5t-34.5 33.5q-93 98 -137.5 209.5
t-44.5 239.5v521q0 24 9.5 46t25.5 38t38 25.5t46 9.5q35 0 63.5 -18.5t44.5 -47.5l49 -51l2 -2l7 -5q15 -16 24.5 -36.5t9.5 -43.5v-521zM1280 1118q0 31 -23 54t-54 23t-54 -23t-23 -54v-521q0 -182 -131 -313q-130 -130 -312 -130q-184 0 -314 130t-130 313v521
q0 31 -23 54t-54 23t-54 -23t-23 -54v-521q0 -241 171 -419t411 -178q286 0 459 222v-408h-623q-15 0 -29 -6.5t-24.5 -17t-16.5 -24.5t-6 -29t6 -29t16.5 -24.5t24.5 -17t29 -6.5h700q31 0 54 23t23 54v1381zM551 1250q-29 14 -47 43.5t-18 65.5q0 37 29 79v-2l145 213
q20 26 44 39.5t55 13.5q34 0 61.5 -17t41.5 -46l2 -2l54 -54h-1t-1 1l7 -5q16 -15 25 -37t9 -45q0 -17 -4 -33t-14 -30h-2l-152 -223h2q-17 -27 -42 -40t-56 -13q-23 0 -43 8.5t-35 23.5zM834 1583q0 30 -22 53.5t-53 23.5q-41 0 -64 -35l-154 -225q-12 -17 -12 -41
q0 -32 21.5 -55t53.5 -23q41 0 65 36l154 225q11 17 11 41z" />
    <glyph glyph-name="thorn" unicode="&#xfe;" horiz-adv-x="1280" 
d="M319 1120q2 0 2 -2zM913 512q0 85 -51 154q-60 34 -132 34h-368v-458h283q56 0 103 20.5t85 58.5q80 80 80 191zM362 1019h283q107 0 195.5 -37t163.5 -112q14 -14 26 -29t23 -29l3 -3l29 -27q147 -147 147 -355q0 -209 -147 -357q-147 -147 -355 -147h-368v-100
q0 -23 -9.5 -44t-25 -37t-36.5 -25t-44 -9t-43.5 9.5t-36.5 24.5l-59 60q-29 14 -47 42.5t-18 63.5v1210q0 24 9.5 46t25.5 38t38 25.5t46 9.5q35 0 63.5 -18.5t44.5 -47.5l49 -51l2 -2l7 -5q15 -16 24.5 -36.5t9.5 -43.5v-14zM956 512q0 -128 -92 -220t-219 -92h-406v623
h406q127 0 219 -92t92 -219zM1109 512q0 190 -137 327t-327 137h-406v142q0 31 -23 54t-54 23t-54 -23t-23 -54v-1210q0 -31 23 -54t54 -23t54 23t23 54v138h406q190 0 327 137q137 139 137 329z" />
    <glyph glyph-name="ydieresis" unicode="&#xff;" 
d="M1360 1120q2 0 2 -2zM319 1120q2 0 2 -2zM362 512q0 -62 15.5 -117.5t49.5 -106.5q110 -92 256 -92q163 0 281 118q120 120 120 283v521q0 24 9.5 46t25.5 38t38 25.5t46 9.5q35 0 63.5 -18.5t44.5 -47.5l49 -51l2 -2l7 -5q15 -16 24.5 -36.5t9.5 -43.5v-1381
q0 -23 -9 -44t-25 -37t-36.5 -25t-43.5 -9h-700q-23 0 -44 9.5t-36 25.5l-60 59q-29 14 -47 42.5t-18 63.5q0 24 9.5 46t26 38.5t38 26t45.5 9.5h581v112q-74 -45 -155.5 -68.5t-175.5 -23.5q-252 0 -434 184l-22 23q-20 14 -37.5 30.5t-34.5 33.5q-93 98 -137.5 209.5
t-44.5 239.5v521q0 24 9.5 46t25.5 38t38 25.5t46 9.5q35 0 63.5 -18.5t44.5 -47.5l49 -51l2 -2l7 -5q15 -16 24.5 -36.5t9.5 -43.5v-521zM1280 1118q0 31 -23 54t-54 23t-54 -23t-23 -54v-521q0 -182 -131 -313q-130 -130 -312 -130q-184 0 -314 130t-130 313v521
q0 31 -23 54t-54 23t-54 -23t-23 -54v-521q0 -241 171 -419t411 -178q286 0 459 222v-408h-623q-15 0 -29 -6.5t-24.5 -17t-16.5 -24.5t-6 -29t6 -29t16.5 -24.5t24.5 -17t29 -6.5h700q31 0 54 23t23 54v1381zM781 1250q-28 15 -46 43.5t-18 63.5q0 24 9.5 46t25.5 38.5
t38 26t46 9.5q35 0 63.5 -18.5t42.5 -48.5l60 -58q15 -15 24.5 -36t9.5 -44t-9.5 -43.5t-25 -36.5t-36.5 -25t-44 -9t-43.5 9t-36.5 25zM474 1250q-28 15 -46.5 43.5t-18.5 63.5q0 24 9.5 46t26 38.5t38.5 26t46 9.5q35 0 63.5 -18.5t42.5 -48.5l59 -58q16 -15 25 -36t9 -44
t-9 -43.5t-24.5 -36.5t-36.5 -25t-44 -9t-44 9t-36 25zM606 1357q0 31 -23 54t-54 23t-54 -23t-23 -54q0 -15 6.5 -29t17 -24.5t24.5 -16.5t29 -6t29 6t24.5 16.5t17 24.5t6.5 29zM913 1357q0 31 -23 54t-54 23t-54 -23t-23 -54q0 -15 6.5 -29t17 -24.5t24.5 -16.5t29 -6
t29 6t24.5 16.5t17 24.5t6.5 29z" />
    <glyph glyph-name="dotlessi" unicode="&#x131;" horiz-adv-x="452" 
d="M108 -29q-29 14 -47 42.5t-18 63.5v1041q0 24 9.5 46t25.5 38t38 25.5t46 9.5q35 0 63.5 -18.5t42.5 -47.5l60 -58q15 -16 24.5 -36.5t9.5 -43.5v-1042q0 -23 -9.5 -43.5t-25 -36.5t-36.5 -25t-44 -9t-43.5 9.5t-36.5 24.5zM239 1118q0 31 -23 54t-54 23t-54 -23t-23 -54
v-1041q0 -31 23 -54t54 -23t54 23t23 54v1041z" />
    <glyph glyph-name="OE" unicode="&#x152;" horiz-adv-x="2236" 
d="M2103 79q1 0 1 -2zM1212 683q0 88 -30 166t-88 144q-125 96 -283 96q-200 0 -347 -147q-145 -145 -145 -345q0 -158 89 -283q136 -118 317 -118q198 0 342 144q72 72 108.5 157.5t36.5 185.5zM1531 196h415q35 0 63.5 -18.5t43.5 -47.5l50 -51l1 -2l7 -5q16 -16 25 -37
t9 -44t-9 -43.5t-25 -36.5t-36.5 -25t-43.5 -9h-614q-23 0 -44 9.5t-37 24.5l-59 60q-13 7 -25 17.5t-20 21.5q-91 -66 -195.5 -99.5t-225.5 -33.5q-297 0 -509 212l-22 22q-35 24 -67 60q-213 213 -213 512q0 298 213 512q214 213 512 213q143 0 263.5 -47t223.5 -142v70
q0 24 9.5 45.5t25.5 38t38 26t46 9.5h615q35 0 63 -18.5t42 -48.5l60 -58q16 -15 25 -36t9 -44t-9 -43.5t-25 -36.5t-36.5 -25t-43.5 -9h-500v-287h244q35 0 63.5 -18.5t42.5 -47.5l59 -58q16 -16 25.5 -37t9.5 -44t-9.5 -43.5t-25 -36.5t-36.5 -25t-44 -9h-329v-287z
M1254 683q0 -217 -156 -373t-373 -156q-216 0 -373 156q-156 156 -156 373q0 216 156 372q157 157 373 157q217 0 373 -157q156 -156 156 -372zM2022 77q0 15 -6.5 29t-17 24.5t-24 17t-28.5 6.5h-538v452h367q31 0 54 23t23 54q0 15 -6.5 28.5t-17 24t-24.5 17t-29 6.5
h-367v453h538q15 0 28.5 6.5t24 17t17 24.5t6.5 29t-6.5 28.5t-17 24t-24 17t-28.5 6.5h-615q-15 0 -29 -6.5t-24.5 -17t-17 -24t-6.5 -28.5v-176q-206 252 -529 252q-280 0 -481 -201t-201 -481t201 -482q201 -201 481 -201q324 0 529 253v-176q0 -31 23 -54t54 -23h615
q15 0 28.5 6.5t24 17t17 24.5t6.5 29z" />
    <glyph glyph-name="oe" unicode="&#x153;" horiz-adv-x="2340" 
d="M2203 232q2 0 2 -2zM1360 512q0 -20 1.5 -39.5t3.5 -39.5l476 477q-37 8 -75 8q-167 0 -286 -119q-120 -119 -120 -287zM1041 597q0 140 -90 250q-101 71 -226 71q-165 0 -286 -121q-120 -119 -120 -285q0 -125 65 -224q110 -92 256 -92q162 0 282 118q59 60 89 131
t30 152zM251 89q-31 24 -63 56q-96 95 -142 206.5t-46 245.5t46 245.5t142 207.5q95 95 206.5 141t245.5 46q174 0 323 -87q50 -31 94 -69.5t81 -87.5l24 -24q40 56 89.5 100.5t107.5 79.5q146 88 322 88q95 0 189.5 -31t191.5 -97q31 -22 53 -42.5t35 -40.5l45 -45
q-3 0 -5 4l12 -10q47 -48 47 -94q0 -50 -32 -82l-599 -599q15 -3 30.5 -3.5t32.5 -0.5q140 0 232 72v2l14 13q26 25 56.5 46t66.5 21q35 0 62.5 -19.5t41.5 -48.5l49 -50l2 -2l7 -5q17 -17 26.5 -38t9.5 -44q0 -70 -104 -140q-94 -64 -187.5 -95t-190.5 -31q-168 0 -319 87
q-72 43 -131 103l-16 13q-33 25 -64 55q-38 -51 -86.5 -94t-105.5 -77q-149 -87 -319 -87q-262 0 -449 186zM1084 597q0 -182 -131 -313q-130 -130 -313 -130q-184 0 -314 130t-130 313t130 313q131 131 314 131q182 0 313 -131t131 -313zM1328 335q-91 113 -91 262
q0 185 130 314q130 130 314 130q149 0 265 -89zM2127 966q0 49 -89 109q-179 120 -357 120q-160 0 -300 -83t-220 -223q-80 141 -221 224q-139 82 -300 82q-246 0 -422 -176q-175 -175 -175 -422q0 -246 175 -421q176 -176 422 -176q160 0 300 83t221 222q79 -139 220 -222
q140 -83 300 -83q181 0 357 119q87 60 87 110q0 15 -6 29t-16.5 25t-24 17.5t-28.5 6.5q-14 0 -27.5 -6t-26.5 -16t-25.5 -21.5t-24.5 -22.5q-105 -87 -265 -87q-139 0 -254 80l677 677q23 23 23 55z" />
    <glyph glyph-name="Scaron" unicode="&#x160;" horiz-adv-x="971" 
d="M369 164q2 -4 3 -4zM319 899q0 -38 14 -75q40 -22 89 -22q175 0 298 -123q24 -26 45 -51l37 -37q121 -123 121 -296t-121 -297q-121 -121 -295 -121q-106 0 -212 56q-51 28 -88 67l-40 38q-73 52 -114 133q-14 28 -14 56q0 24 9.5 46t25.5 38t37.5 25.5t45.5 9.5
q21 0 37.5 -7t30.5 -18t25.5 -25t22.5 -28l38 -38q46 -34 111 -34q71 0 136 63v-1q22 27 34 57.5t12 65.5q0 43 -22 85q-18 8 -37 12.5t-38 4.5q-174 0 -295 121l-38 38q-28 17 -51 44q-123 123 -123 299t131 307v-2q121 118 291 118q55 0 108.5 -14.5t106.5 -45.5
q42 -23 74 -52t55 -64l43 -41q20 -19 34 -39.5t27 -43.5q7 -14 10.5 -27.5t3.5 -27.5q0 -23 -9 -43.5t-24.5 -36.5t-36 -25t-43.5 -9q-28 0 -48 11t-35 26l-58 57q-13 8 -24.5 17.5t-20.5 21.5q-34 17 -78 17q-75 0 -132 -58q-56 -58 -56 -132zM800 381q0 157 -111 267
q-110 111 -267 111q-93 0 -160 67q-66 67 -66 159q0 91 66 159q68 68 160 68q100 0 165 -72q11 -13 21.5 -26t21.5 -26q23 -26 56 -26q31 0 53 23t22 53q0 18 -10 38q-43 85 -137 137q-92 52 -192 52q-157 0 -268 -112q-111 -111 -111 -268t111 -268t268 -111q92 0 158 -67
q67 -66 67 -158q0 -93 -67 -160q-66 -67 -158 -67q-101 0 -166 71q-10 13 -21 26l-22 26q-23 27 -56 27q-31 0 -53 -23t-22 -54q0 -18 10 -38q43 -85 137 -137t193 -52q158 0 267 112q111 112 111 269zM397 1811q9 -9 21 -26l12 -19l77 108q42 63 104 63q35 0 63.5 -18.5
t43.5 -47.5l58 -59q16 -15 25 -36t9 -44q0 -15 -2.5 -28t-10.5 -25l-183 -257q-27 -39 -54 -58t-53 -19q-38 0 -76 37l-54 55q-17 9 -34 25.5t-33 41.5l-182 257q-9 14 -12.5 27.5t-3.5 29.5q0 25 9.5 46.5t25.5 37.5t38 25.5t47 9.5q29 0 55.5 -15.5t48.5 -47.5l3 -5z
M687 1818q0 32 -22 54t-54 22q-39 0 -70 -46l-120 -170l-119 170q-33 46 -70 46q-33 0 -55 -22t-22 -54q0 -21 7 -31l182 -258q45 -61 77 -61q34 0 77 61l183 258q6 10 6 31z" />
    <glyph glyph-name="scaron" unicode="&#x161;" horiz-adv-x="886" 
d="M319 771q0 -13 1.5 -23t3.5 -21q24 -10 55 -10q157 0 268 -111q11 -11 20.5 -23t18.5 -25l43 -41q109 -109 109 -264q0 -157 -109 -267q-110 -109 -265 -109q-75 0 -145 28t-121 80l-44 42q-34 25 -61 56t-45 69q-14 27 -14 56q0 23 9.5 44.5t26 38t37.5 26t45 9.5
q48 0 123 -79q48 -51 104 -51q27 0 52 11.5t45 31.5t31.5 46t11.5 53q0 28 -12 51q-11 4 -21.5 6.5t-21.5 2.5q-156 0 -264 109l-43 41q-11 9 -23 19t-23 22q-111 111 -111 268t111 268q57 57 122.5 84.5t145.5 27.5q44 0 88.5 -11t85 -31.5t75 -49.5t60.5 -65l44 -44
q35 -36 58 -79q14 -28 14 -54q0 -23 -9.5 -44t-25 -37t-36.5 -25t-44 -9q-42 0 -100 59l-43 40q-37 31 -82 31q-58 0 -102 -44q-43 -43 -43 -103zM715 338q0 138 -99 237t-237 99q-75 0 -129 54t-54 129t54 129q54 55 129 55q76 0 135 -65t90 -65t54 23t23 54q0 18 -10 38
q-41 77 -122 123q-80 46 -170 46q-138 0 -237 -100q-99 -101 -99 -238q0 -138 99 -237t237 -99q75 0 128 -54q54 -54 54 -129t-54 -130q-53 -54 -128 -54q-74 0 -135 64q-62 65 -92 65q-15 0 -28.5 -6t-24 -16.5t-16.5 -24t-6 -28.5q0 -20 10 -39q37 -78 119 -124
q82 -45 173 -45q138 0 237 100t99 238zM356 1641q9 -9 21 -26l12 -19l77 108q42 63 104 63q35 0 63.5 -18.5t43.5 -47.5l58 -59q16 -15 25 -36t9 -44q0 -15 -2.5 -28t-10.5 -25l-183 -257q-27 -39 -54 -58t-53 -19q-38 0 -76 37l-54 55q-17 9 -34 25.5t-33 41.5l-182 257
q-9 14 -12.5 27.5t-3.5 29.5q0 25 9.5 46.5t25.5 37.5t38 25.5t47 9.5q29 0 55.5 -15.5t48.5 -47.5l3 -5zM646 1648q0 32 -22 54t-54 22q-39 0 -70 -46l-120 -170l-119 170q-33 46 -70 46q-33 0 -55 -22t-22 -54q0 -21 7 -31l182 -258q45 -61 77 -61q34 0 77 61l183 258
q6 10 6 31z" />
    <glyph glyph-name="Ydieresis" unicode="&#x178;" horiz-adv-x="1335" 
d="M258 1287q2 -3 4 -5.5t4 -4.5l340 -407l416 495q20 23 41 33t50 10q35 0 63.5 -18.5t42.5 -48.5l54 -54h-1t-1 2l7 -6q16 -15 25 -36t9 -44q0 -38 -27 -73l-483 -574v-565q0 -23 -9 -43.5t-25 -36.5t-36.5 -25t-43.5 -9t-44 9.5t-36 24.5l-60 60q-29 14 -47 42.5
t-18 63.5v565l-481 571q-16 17 -22 35.5t-6 40.5q0 24 9.5 45.5t25.5 38t37.5 26t45.5 9.5q29 0 51 -10t41 -33l26 -32zM1190 1289q0 15 -6.5 28.5t-17 24t-24.5 17t-29 6.5q-36 0 -58 -27l-453 -538l-450 538q-23 27 -60 27q-31 0 -53 -23t-22 -53q0 -28 17 -48l492 -584
v-580q0 -15 6 -29t16.5 -24.5t24.5 -17t29 -6.5q31 0 54 23t23 54v578l492 584q19 22 19 50zM701 1420q-28 15 -46 43.5t-18 63.5q0 24 9.5 46t25.5 38.5t38 26t46 9.5q35 0 63.5 -18.5t42.5 -48.5l60 -58q15 -15 24.5 -36t9.5 -44t-9.5 -43.5t-25 -36.5t-36.5 -25t-44 -9
t-43.5 9t-36.5 25zM394 1420q-28 15 -46.5 43.5t-18.5 63.5q0 24 9.5 46t26 38.5t38.5 26t46 9.5q35 0 63.5 -18.5t42.5 -48.5l59 -58q16 -15 25 -36t9 -44t-9 -43.5t-24.5 -36.5t-36.5 -25t-44 -9t-44 9t-36 25zM526 1527q0 31 -23 54t-54 23t-54 -23t-23 -54
q0 -15 6.5 -29t17 -24.5t24.5 -16.5t29 -6t29 6t24.5 16.5t17 24.5t6.5 29zM833 1527q0 31 -23 54t-54 23t-54 -23t-23 -54q0 -15 6.5 -29t17 -24.5t24.5 -16.5t29 -6t29 6t24.5 16.5t17 24.5t6.5 29z" />
    <glyph glyph-name="Zcaron" unicode="&#x17d;" horiz-adv-x="1386" 
d="M1295 1290q2 0 2 -1zM524 196h614q35 0 63.5 -18.5t42.5 -47.5l60 -58q15 -16 24.5 -37t9.5 -44t-9 -43.5t-25 -36.5t-36.5 -25t-43.5 -9h-1021q-47 0 -78 33l-62 61q-28 15 -45.5 43t-17.5 63q0 22 6 40t21 35l789 937h-611q-23 0 -44 9.5t-36 24.5l-60 58
q-29 15 -47 44t-18 64q0 24 9.5 45.5t26 38t38 26t45.5 9.5h1019q35 0 63.5 -18.5t44.5 -48.5l49 -51l2 -1l7 -6q15 -15 24.5 -36t9.5 -44q0 -38 -34 -80zM1215 77q0 31 -23 54t-54 23h-855l907 1078q25 31 25 57q0 15 -6.5 28.5t-17 24t-24.5 17t-29 6.5h-1019
q-15 0 -29 -6.5t-24.5 -17t-16.5 -24t-6 -28.5t6 -29t16.5 -24.5t24.5 -17t29 -6.5h856l-915 -1087q-17 -22 -17 -48q0 -31 22 -54t53 -23h1020q31 0 54 23t23 54zM604 1811q9 -9 21 -26l12 -19l77 108q42 63 104 63q35 0 63.5 -18.5t43.5 -47.5l58 -59q16 -15 25 -36t9 -44
q0 -15 -2.5 -28t-10.5 -25l-183 -257q-27 -39 -54 -58t-53 -19q-38 0 -76 37l-54 55q-17 9 -34 25.5t-33 41.5l-182 257q-9 14 -12.5 27.5t-3.5 29.5q0 25 9.5 46.5t25.5 37.5t38 25.5t47 9.5q29 0 55.5 -15.5t48.5 -47.5l3 -5zM894 1818q0 32 -22 54t-54 22q-39 0 -70 -46
l-120 -170l-119 170q-33 46 -70 46q-33 0 -55 -22t-22 -54q0 -21 7 -31l182 -258q45 -61 77 -61q34 0 77 61l183 258q6 10 6 31z" />
    <glyph glyph-name="zcaron" unicode="&#x17e;" horiz-adv-x="1237" 
d="M524 196h466q35 0 63.5 -18.5t42.5 -47.5l59 -58q16 -16 25.5 -37t9.5 -44t-9.5 -43.5t-25 -36.5t-36.5 -25t-44 -9h-872q-47 0 -78 33l-62 61q-28 15 -45.5 43t-17.5 63q0 22 6 40t21 35l640 766h-462q-23 0 -44 9.5t-36 24.5l-60 58q-29 16 -47 44.5t-18 63.5
q0 24 9.5 46t26 38t38 25.5t45.5 9.5h871q35 0 63.5 -18.5t42.5 -47.5l59 -58q16 -16 25.5 -36.5t9.5 -43.5q0 -22 -8.5 -41.5t-24.5 -39.5zM1067 77q0 31 -23 54t-54 23h-707l760 908q24 28 24 56q0 31 -23 54t-54 23h-871q-15 0 -29 -6.5t-24.5 -17t-16.5 -24.5t-6 -29
t6 -29t16.5 -24.5t24.5 -17t29 -6.5h707l-766 -916q-17 -22 -17 -48q0 -31 22 -54t53 -23h872q31 0 54 23t23 54zM530 1641q9 -9 21 -26l12 -19l77 108q42 63 104 63q35 0 63.5 -18.5t43.5 -47.5l58 -59q16 -15 25 -36t9 -44q0 -15 -2.5 -28t-10.5 -25l-183 -257
q-27 -39 -54 -58t-53 -19q-38 0 -76 37l-54 55q-17 9 -34 25.5t-33 41.5l-182 257q-9 14 -12.5 27.5t-3.5 29.5q0 25 9.5 46.5t25.5 37.5t38 25.5t47 9.5q29 0 55.5 -15.5t48.5 -47.5l3 -5zM820 1648q0 32 -22 54t-54 22q-39 0 -70 -46l-120 -170l-119 170q-33 46 -70 46
q-33 0 -55 -22t-22 -54q0 -21 7 -31l182 -258q45 -61 77 -61q34 0 77 61l183 258q6 10 6 31z" />
    <glyph glyph-name="circumflex" unicode="&#x2c6;" horiz-adv-x="916" 
d="M152 1437q-31 14 -49 43t-18 65q0 15 3.5 28.5t12.5 27.5l182 258q27 39 55.5 58.5t55.5 19.5q57 0 111 -78l50 -50q8 -8 16 -18t16 -21l183 -258q8 -11 10.5 -24t2.5 -29q0 -24 -9 -44.5t-24.5 -36t-36 -24.5t-44.5 -9q-45 0 -78 34l-60 58q-29 15 -51 51l-16 22
l-73 -104q-22 -31 -46 -46t-55 -15q-24 0 -44.5 9.5t-35.5 24.5zM660 1545q0 19 -6 30l-183 258q-43 61 -77 61q-32 0 -77 -61l-182 -258q-7 -10 -7 -30q0 -33 22 -55t55 -22q37 0 70 46l119 170l120 -170q31 -46 70 -46q32 0 54 22t22 55z" />
    <glyph glyph-name="caron" unicode="&#x2c7;" horiz-adv-x="916" 
d="M370 1811q9 -9 21 -26l12 -19l77 108q42 63 104 63q35 0 63.5 -18.5t43.5 -47.5l58 -59q16 -15 25 -36t9 -44q0 -15 -2.5 -28t-10.5 -25l-183 -257q-27 -39 -54 -58t-53 -19q-38 0 -76 37l-54 55q-17 9 -34 25.5t-33 41.5l-182 257q-9 14 -12.5 27.5t-3.5 29.5
q0 25 9.5 46.5t25.5 37.5t38 25.5t47 9.5q29 0 55.5 -15.5t48.5 -47.5l3 -5zM660 1818q0 32 -22 54t-54 22q-39 0 -70 -46l-120 -170l-119 170q-33 46 -70 46q-33 0 -55 -22t-22 -54q0 -21 7 -31l182 -258q45 -61 77 -61q34 0 77 61l183 258q6 10 6 31z" />
    <glyph glyph-name="macron" unicode="&#x2c9;" horiz-adv-x="896" 
d="M720 1529q2 0 2 -2zM150 1420q-28 15 -46.5 43.5t-18.5 63.5q0 24 9.5 46t26 38.5t38.5 26t46 9.5h358q35 0 63.5 -18.5t44.5 -48.5l49 -51l2 -2l7 -5q15 -15 24.5 -36t9.5 -44t-9 -43.5t-25 -36.5t-36.5 -25t-43.5 -9h-359q-23 0 -44 9t-36 25zM640 1527q0 31 -23 54
t-54 23h-358q-31 0 -54 -23t-23 -54q0 -15 6.5 -29t17 -24.5t24.5 -16.5t29 -6h358q15 0 29 6t24.5 16.5t17 24.5t6.5 29z" />
    <glyph glyph-name="ring" unicode="&#x2da;" horiz-adv-x="725" 
d="M188 1439q-47 28 -75 75.5t-28 106.5q0 44 17 83t46 68t68 46t83 17q57 0 105.5 -28t76.5 -75l50 -49q28 -29 44.5 -67t16.5 -80q0 -43 -16.5 -80.5t-45 -66t-66 -45t-80.5 -16.5q-44 0 -81 16.5t-66 44.5zM384 1621q0 -36 -24.5 -60.5t-60.5 -24.5t-61 24.5t-25 60.5
t25 61t61 25t60.5 -25t24.5 -61zM469 1621q0 70 -50 120q-50 51 -120 51t-121 -51q-50 -50 -50 -120t50 -120q52 -50 121 -50q70 0 120 50t50 120z" />
    <glyph glyph-name="tilde" unicode="&#x2dc;" horiz-adv-x="998" 
d="M126 1440q-41 14 -41 76v71q0 64 104 126q85 53 144 53q62 0 133 -71q48 -48 72 -48q13 0 33.5 9.5t46.5 26.5q40 27 65 40t42 13q41 0 53 -36l70 -68q17 -17 17 -58v-72q0 -59 -100 -120q-89 -54 -142 -54q-60 0 -130 70q-49 49 -75 49q-29 0 -83 -37q-75 -51 -103 -51
q-22 0 -37 15zM742 1659q0 34 -17 34t-83 -45q-65 -44 -104 -44q-43 0 -103 60t-102 60q-43 0 -121 -48q-84 -51 -84 -89v-71q0 -35 19 -35q17 0 82 44q64 45 104 45q42 0 102 -60q61 -59 103 -59q43 0 123 49q81 49 81 87v72z" />
    <glyph glyph-name="endash" unicode="&#x2013;" horiz-adv-x="896" 
d="M720 684q2 0 2 -1zM150 575q-28 16 -46.5 44.5t-18.5 63.5q0 24 9.5 46t26 38t38.5 25.5t46 9.5h358q35 0 63.5 -18.5t44.5 -47.5l49 -52l2 -1l7 -5q15 -16 24.5 -37t9.5 -44t-9 -43.5t-25 -36.5t-36.5 -25t-43.5 -9h-359q-23 0 -44 9.5t-36 24.5zM640 683
q0 15 -6.5 28.5t-17 24t-24.5 17t-29 6.5h-358q-15 0 -29 -6.5t-24.5 -17t-17 -24t-6.5 -28.5q0 -31 23 -54t54 -23h358q31 0 54 23t23 54z" />
    <glyph glyph-name="emdash" unicode="&#x2014;" horiz-adv-x="1237" 
d="M1062 684q1 0 1 -1zM150 575q-28 16 -46.5 44.5t-18.5 63.5q0 24 9.5 46t26 38t38.5 25.5t46 9.5h700q35 0 63.5 -18.5t43.5 -47.5l50 -52l1 -1l7 -5q16 -16 25 -37t9 -44t-9 -43.5t-25 -36.5t-36.5 -25t-43.5 -9h-700q-23 0 -44 9.5t-36 24.5zM981 683q0 30 -23 53
t-53 23h-700q-15 0 -29 -6.5t-24.5 -17t-17 -24t-6.5 -28.5q0 -31 23 -54t54 -23h700q15 0 28.5 6.5t24 17t17 24.5t6.5 29z" />
    <glyph glyph-name="quoteleft" unicode="&#x2018;" horiz-adv-x="638" 
d="M360 1292q2 0 2 -2zM247 1027q-14 8 -25.5 19.5t-21.5 28.5l-96 149q-11 17 -15 32.5t-4 32.5q0 25 9 46.5t24.5 37.5t37 25.5t47.5 9.5q33 0 56 -13.5t43 -39.5l7 -12l51 -51l2 -2l7 -5q4 -4 7.5 -9t7.5 -10l99 -152l3 -3q11 -14 15 -29.5t4 -33.5q0 -24 -8.5 -45
t-23.5 -36.5t-35.5 -25t-44.5 -9.5q-23 0 -44 7.5t-37 23.5zM382 1133q0 21 -12 41l-102 157q-22 34 -65 34q-32 0 -53.5 -22t-21.5 -54q0 -23 12 -41l102 -157q24 -36 65 -36q33 0 54 23t21 55z" />
    <glyph glyph-name="quoteright" unicode="&#x2019;" horiz-adv-x="638" 
d="M463 1292q1 0 1 -2zM150 1024q-29 14 -47 43.5t-18 65.5q0 16 4 31.5t15 33.5l103 157q19 26 43 39.5t57 13.5q35 0 62.5 -18t41.5 -47l52 -51l1 -2l7 -5q16 -15 25 -36t9 -46q0 -18 -4 -33.5t-15 -29.5h-1l-101 -155h2q-17 -27 -42 -40t-56 -13q-23 0 -43 8.5t-35 23.5z
M382 1289q0 32 -21 54t-54 22q-43 0 -65 -34l-102 -157q-12 -20 -12 -41q0 -32 21.5 -55t53.5 -23q41 0 65 36l102 157q12 18 12 41z" />
    <glyph glyph-name="quotesinglbase" unicode="&#x201a;" horiz-adv-x="638" 
d="M463 97q1 0 1 -1zM150 -169q-29 16 -47 44.5t-18 64.5q0 17 4 32.5t15 32.5l103 155q19 26 43 39.5t57 13.5q35 0 62.5 -18t41.5 -47l52 -51l1 -1l7 -6q16 -15 25 -36t9 -45q0 -18 -4 -34t-15 -30l-1 2l-101 -154l2 -1q-17 -27 -42 -40t-56 -13q-46 0 -78 32zM382 94
q0 32 -21 54.5t-54 22.5q-43 0 -65 -34l-102 -156q-12 -20 -12 -41q0 -32 21.5 -55t53.5 -23q41 0 65 36l102 155q12 19 12 41z" />
    <glyph glyph-name="quotedblleft" unicode="&#x201c;" horiz-adv-x="963" 
d="M684 1292q2 0 2 -2zM572 1027q-28 16 -48 48l-96 149q-10 17 -14 32.5t-4 32.5q0 25 8.5 46.5t24.5 37.5t37 25.5t47 9.5q34 0 57 -13.5t42 -39.5l7 -12l51 -51l2 -2l7 -5q4 -4 7.5 -9t7.5 -10l99 -152l4 -3q10 -14 14 -29.5t4 -33.5q0 -24 -8.5 -45t-23.5 -36.5
t-35.5 -25t-44.5 -9.5q-23 0 -44 7.5t-36 23.5zM247 1027q-14 8 -25.5 19.5t-21.5 28.5l-96 149q-11 17 -15 32.5t-4 32.5q0 25 9 46.5t24.5 37.5t37 25.5t47.5 9.5q33 0 56 -13.5t43 -39.5l7 -10l55 -56h-1t-1 1l7 -5q4 -4 7.5 -9t7.5 -10l99 -152l3 -3q11 -14 15 -29.5
t4 -33.5q0 -24 -8.5 -45t-23.5 -36.5t-35.5 -25t-44.5 -9.5q-23 0 -44 7.5t-37 23.5zM382 1133q0 21 -12 41l-102 157q-22 34 -65 34q-32 0 -53.5 -22t-21.5 -54q0 -23 12 -41l102 -157q24 -36 65 -36q33 0 54 23t21 55zM707 1133q0 21 -12 41l-103 157q-22 34 -65 34
q-32 0 -53.5 -22t-21.5 -54q0 -23 12 -41l103 -157q24 -36 64 -36q33 0 54.5 23t21.5 55z" />
    <glyph glyph-name="quotedblright" unicode="&#x201d;" horiz-adv-x="963" 
d="M463 1292q1 0 1 -2zM150 1024q-29 14 -47 43.5t-18 65.5q0 16 4 31.5t15 33.5l103 157q19 26 43 39.5t57 13.5q35 0 62.5 -18t41.5 -47l52 -51l1 -2l7 -5q2 -2 3.5 -5t3.5 -5l53 80q19 26 43 39.5t57 13.5q35 0 63 -18t42 -47l59 -58q16 -15 25 -36t9 -46q0 -18 -4 -33.5
t-14 -29.5h-2l-101 -155h2q-17 -27 -41.5 -40t-55.5 -13q-23 0 -43 8.5t-36 23.5l-60 60q-25 13 -42 36l-48 -75h2q-17 -27 -42 -40t-56 -13q-23 0 -43 8.5t-35 23.5zM382 1289q0 32 -21 54t-54 22q-43 0 -65 -34l-102 -157q-12 -20 -12 -41q0 -32 21.5 -55t53.5 -23
q41 0 65 36l102 157q12 18 12 41zM707 1289q0 32 -21.5 54t-54.5 22q-42 0 -64 -34l-103 -157q-12 -20 -12 -41q0 -32 21.5 -55t53.5 -23q41 0 65 36l103 157q12 18 12 41z" />
    <glyph glyph-name="quotedblbase" unicode="&#x201e;" horiz-adv-x="963" 
d="M150 -169q-29 16 -47 44.5t-18 64.5q0 17 4 32.5t15 32.5l103 155q19 26 43 39.5t57 13.5q35 0 62.5 -17.5t41.5 -47.5l60 -58q2 -2 3.5 -4.5t3.5 -5.5l53 80q19 26 43 39.5t57 13.5q35 0 63 -17.5t42 -47.5l59 -58q16 -15 25 -36t9 -45q0 -18 -4 -34t-14 -30l-2 2
l-101 -154l2 -1q-17 -27 -41.5 -40t-55.5 -13q-23 0 -43 8.5t-36 23.5l-60 60q-13 7 -23 16.5t-19 21.5l-48 -76l2 -1q-17 -27 -42 -40t-56 -13q-46 0 -78 32zM382 94q0 32 -21 54.5t-54 22.5q-43 0 -65 -34l-102 -156q-12 -20 -12 -41q0 -32 21.5 -55t53.5 -23q41 0 65 36
l102 155q12 19 12 41zM707 94q0 32 -21.5 54.5t-54.5 22.5q-42 0 -64 -34l-103 -156q-12 -20 -12 -41q0 -32 21.5 -55t53.5 -23q41 0 65 36l103 155q12 19 12 41z" />
    <glyph glyph-name="dagger" unicode="&#x2020;" horiz-adv-x="1033" 
d="M857 949q1 0 1 -2zM652 1067h48q35 0 63.5 -19t43.5 -48l50 -51l1 -2l7 -5q16 -15 25 -36t9 -44t-9 -44t-24.5 -36.5t-36.5 -24.5t-44 -9h-133v-925q0 -23 -9 -44t-25 -37t-36.5 -25t-43.5 -9t-44 9.5t-37 24.5l-59 60q-29 14 -47 42.5t-18 63.5v840h-43q-23 0 -44 9
t-36 25l-60 58q-28 15 -46.5 43.5t-18.5 63.5q0 24 9.5 46t26 38.5t38.5 26t46 9.5h128v222q0 24 9.5 45.5t25.5 38t38 26t46 9.5q35 0 63.5 -18.5t42.5 -48.5l55 -54h-1t-1 2l7 -6q15 -15 24.5 -36t9.5 -44v-136zM777 947q0 15 -6.5 29t-17 24.5t-24.5 17t-29 6.5h-171v265
q0 15 -6.5 28.5t-17 24t-24.5 17t-29 6.5t-29 -6.5t-24.5 -17t-17 -24t-6.5 -28.5v-265h-170q-31 0 -54 -23t-23 -54t23 -54t54 -23h170v-962q0 -15 6.5 -29t17 -24.5t24.5 -17t29 -6.5q31 0 54 23t23 54v962h171q15 0 29 6.5t24.5 17t17 24.5t6.5 29z" />
    <glyph glyph-name="daggerdbl" unicode="&#x2021;" horiz-adv-x="1033" 
d="M609 1290q2 0 2 -1zM652 725h48q35 0 63.5 -18.5t42.5 -47.5l59 -58q16 -16 25 -36.5t9 -43.5t-9 -44t-24.5 -37t-36.5 -25t-44 -9h-133v-583q0 -23 -9 -44t-25 -37t-36.5 -25t-43.5 -9t-44 9.5t-37 24.5l-59 60q-29 14 -47 42.5t-18 63.5v498h-43q-23 0 -44 9.5
t-36 24.5l-60 58q-28 16 -46.5 44.5t-18.5 63.5q0 24 9.5 46t26 38t38.5 25.5t46 9.5h128v23h-43q-23 0 -44 9t-36 25l-60 58q-28 15 -46.5 43.5t-18.5 63.5q0 24 9.5 46t26 38.5t38.5 26t46 9.5h128v222q0 24 9.5 45.5t25.5 38t38 26t46 9.5q35 0 63.5 -18.5t44.5 -48.5
l49 -51l2 -1l7 -6q15 -15 24.5 -36t9.5 -44v-136h48q35 0 63.5 -19t42.5 -48l59 -58q16 -15 25 -36t9 -44t-9 -44t-24.5 -36.5t-36.5 -24.5t-44 -9h-133v-23zM777 606q0 15 -6.5 29t-17 24.5t-24.5 17t-29 6.5h-171v187h171q15 0 29 6.5t24.5 17t17 24.5t6.5 29t-6.5 29
t-17 24.5t-24.5 17t-29 6.5h-171v265q0 15 -6.5 28.5t-17 24t-24.5 17t-29 6.5t-29 -6.5t-24.5 -17t-17 -24t-6.5 -28.5v-265h-170q-31 0 -54 -23t-23 -54t23 -54t54 -23h170v-187h-170q-31 0 -54 -23t-23 -54t23 -54t54 -23h170v-621q0 -15 6.5 -29t17 -24.5t24.5 -17
t29 -6.5q31 0 54 23t23 54v621h171q15 0 29 6.5t24.5 17t17 24.5t6.5 29z" />
    <glyph glyph-name="bullet" unicode="&#x2022;" horiz-adv-x="1271" 
d="M278 292q-13 10 -25.5 21.5t-25.5 24.5q-142 141 -142 345q0 201 142 343q145 143 345 143q102 0 186.5 -35.5t156.5 -107.5q13 -14 25 -28.5t23 -28.5l34 -32q141 -141 141 -340q0 -200 -141 -341q-140 -140 -340 -140q-201 0 -341 140zM1015 683q0 181 -131 312
t-312 131q-183 0 -314 -131q-130 -130 -130 -312q0 -184 130 -314t314 -130q182 0 312 130q131 131 131 314z" />
    <glyph glyph-name="ellipsis" unicode="&#x2026;" horiz-adv-x="1152" 
d="M362 79q2 0 2 -2zM669 79q2 0 2 -2zM457 -29q-28 14 -46 42.5t-18 63.5q0 24 9.5 46t25.5 38t38 25.5t46 9.5q35 0 63.5 -18.5t44.5 -47.5l49 -51l2 -2l7 -5q15 -16 24.5 -37t9.5 -44t-9.5 -43.5t-25 -36.5t-36.5 -25t-44 -9t-43.5 9.5t-36.5 24.5zM150 -29
q-28 14 -46.5 42.5t-18.5 63.5q0 24 9.5 46t26 38t38.5 25.5t46 9.5q35 0 63.5 -18.5t43.5 -47.5l50 -51l2 -2l6 -5q16 -16 25 -37t9 -44t-9 -43.5t-24.5 -36.5t-36.5 -25t-44 -9t-44 9.5t-36 24.5zM765 -29q-29 14 -47 42.5t-18 63.5q0 24 9.5 46t25.5 38t38 25.5t46 9.5
q35 0 63.5 -18.5t42.5 -47.5l60 -58q15 -16 24.5 -37t9.5 -44t-9 -43.5t-25 -36.5t-36.5 -25t-43.5 -9t-44 9.5t-37 24.5zM282 77q0 31 -23 54t-54 23t-54 -23t-23 -54t23 -54t54 -23t54 23t23 54zM589 77q0 31 -23 54t-54 23t-54 -23t-23 -54t23 -54t54 -23t54 23t23 54z
M896 77q0 31 -23 54t-54 23t-54 -23t-23 -54t23 -54t54 -23t54 23t23 54z" />
    <glyph glyph-name="perthousand" unicode="&#x2030;" horiz-adv-x="2097" 
d="M1365 239q0 -3 4 -3zM1082 358q0 18 -4.5 35.5t-12.5 34.5q-14 5 -29 8.5t-31 3.5q-66 0 -118 -51q-49 -49 -49 -116q0 -17 2 -32t8 -29q31 -16 72 -16q65 0 113 48q49 49 49 114zM649 1007q0 18 -5 35.5t-13 34.5q-14 5 -29 8.5t-30 3.5q-67 0 -118 -51q-24 -25 -37 -54
t-13 -62q0 -17 2 -32.5t9 -29.5q30 -15 71 -15q65 0 113 48q50 50 50 114zM1645 358q0 18 -4.5 35.5t-12.5 34.5q-14 5 -29 8.5t-31 3.5q-66 0 -117 -51q-50 -48 -50 -116q0 -17 2 -32t8 -29q31 -16 72 -16q65 0 113 48q49 49 49 114zM1055 736q40 -14 76.5 -38t69.5 -56
q118 117 282 117q166 0 283 -117q24 -26 45 -51l37 -38q116 -116 116 -280t-116 -280q-114 -116 -280 -116q-163 0 -274 111l-9 7q-112 -118 -280 -118q-167 0 -281 116l-38 38q-28 17 -51 44q-20 20 -36 41t-29 43l-193 -229q-18 -22 -39 -31.5t-50 -9.5q-46 0 -78 32
l-60 60q-29 14 -47 43t-18 65q0 22 6 40t22 35l320 384q-75 28 -141 94l-36 36q-14 10 -27 21.5t-26 24.5q-118 118 -118 283t118 283t283 118q81 0 149.5 -28.5t125.5 -84.5v2q12 -13 23 -25.5t20 -25.5l48 -46q18 -20 33 -39t28 -41l198 233q20 23 41.5 33t50.5 10
q35 0 62.5 -18t41.5 -47l60 -58q16 -15 25 -36t9 -46q0 -20 -5.5 -38t-19.5 -33zM1125 358q0 -83 -61 -144q-60 -60 -144 -60t-145 60q-60 61 -60 144q0 84 60 144q61 61 145 61t144 -61q61 -60 61 -144zM691 1007q0 -84 -61 -145q-60 -60 -144 -60q-83 0 -144 60
q-60 61 -60 145t60 144q61 61 144 61q84 0 144 -61q61 -60 61 -144zM1688 358q0 -83 -61 -144q-60 -60 -144 -60t-145 60q-60 61 -60 144q0 84 60 144q61 61 145 61t144 -61q61 -60 61 -144zM1841 358q0 147 -106 253q-105 106 -252 106q-173 0 -282 -138q-110 138 -281 138
q-53 0 -101 -14l442 526q17 20 17 48q0 32 -21 54t-54 22q-38 0 -60 -27l-300 -357q1 10 1.5 19t0.5 17q0 146 -105 253t-254 107q-146 0 -252 -106q-106 -105 -106 -252t106 -253q106 -105 252 -105q54 0 99 13l-440 -525q-17 -22 -17 -48q0 -33 21.5 -55t53.5 -22
q37 0 60 27l300 359q-1 -10 -1.5 -19t-0.5 -17q0 -150 105 -256t254 -106q171 0 281 138q109 -138 282 -138q147 0 252 106q106 106 106 252z" />
    <glyph glyph-name="guilsinglleft" unicode="&#x2039;" horiz-adv-x="1067" 
d="M565 620l220 -122q38 -24 55 -53l61 -61q33 -33 33 -79q0 -23 -9.5 -43.5t-25 -36.5t-36.5 -25t-44 -9q-27 0 -49 12l-514 285h-2q-14 8 -26 16.5t-20 19.5l-53 53q-70 43 -70 106q0 67 86 114l512 285q11 7 23 9.5t28 2.5q35 0 63.5 -18.5t42.5 -48.5l54 -54h-1v2l6 -6
q16 -15 25.5 -36t9.5 -44q0 -65 -65 -102zM811 391q0 45 -46 70l-401 222l401 222q46 25 46 70q0 15 -6.5 28.5t-17 24t-24.5 17t-29 6.5q-20 0 -31 -7l-514 -285q-61 -34 -61 -76q0 -43 61 -77l514 -285q11 -7 31 -7q31 0 54 23t23 54z" />
    <glyph glyph-name="guilsinglright" unicode="&#x203a;" horiz-adv-x="1067" 
d="M150 869q-32 19 -48.5 45t-16.5 61q0 24 9.5 45.5t26 38t38.5 26t46 9.5q15 0 27.5 -2.5t23.5 -9.5l512 -285q53 -29 73 -68l60 -58q33 -33 33 -74q0 -65 -82 -109h1l-513 -285q-24 -12 -50 -12q-23 0 -44 9.5t-36 24.5l-60 58q-28 16 -46.5 44.5t-18.5 63.5
q0 33 17.5 60.5t51.5 46.5l303 168l-216 121q-9 5 -17.5 11t-15.5 13zM811 683q0 41 -62 76l-513 285q-11 7 -31 7q-15 0 -29 -6.5t-24.5 -17t-17 -24t-6.5 -28.5q0 -45 46 -70l401 -222l-401 -222q-46 -25 -46 -70q0 -31 23 -54t54 -23q20 0 31 7l513 285q62 35 62 77z" />
    <glyph glyph-name="Euro" unicode="&#x20ac;" horiz-adv-x="1828" 
d="M1444 992l-4 1l-18 19zM1444 992q-114 97 -292 97q-89 0 -170.5 -30.5t-148.5 -85.5h413q35 0 63.5 -19t42.5 -48l59 -58q16 -15 25.5 -36t9.5 -44t-9.5 -43.5t-25 -36.5t-36.5 -25t-44 -9h-667q-2 -7 -2 -13q0 -5 -2 -10h501q35 0 63 -18.5t42 -47.5l60 -58
q16 -16 25 -36.5t9 -43.5t-9 -44t-25 -37t-36.5 -25t-43.5 -9h-492q66 -55 146 -85.5t167 -30.5q177 0 288 96l14 13q26 26 56 47.5t70 21.5q35 0 63.5 -19t42.5 -48l60 -58q15 -15 24.5 -36t9.5 -44q0 -74 -115 -149q-215 -143 -428 -143q-112 0 -212.5 31t-193.5 95
q-29 20 -54.5 41.5t-48.5 44.5l-27 25q-51 42 -93.5 91.5t-77.5 106.5h-155q-23 0 -44 9.5t-36 24.5l-60 58q-28 16 -46.5 44.5t-18.5 63.5q0 24 9.5 46t26 38t38.5 25.5t46 9.5h136v26q-29 11 -46 31l-59 58q-29 15 -47 43.5t-18 63.5q0 24 9.5 46t25.5 38.5t38 26t46 9.5
h113q44 97 107 172t147 133q94 66 195 98t215 32q214 0 431 -145v2q69 -49 98 -94l51 -50q23 -24 35.5 -47.5t12.5 -47.5q0 -23 -9.5 -44t-25 -37t-36.5 -25t-44 -9q-38 0 -67.5 21t-55.5 46zM1572 254q0 31 -23 54t-54 23q-29 0 -57 -24q-29 -24 -52 -46
q-127 -107 -319 -107q-146 0 -273 76t-195 205h562q15 0 28.5 6.5t24 17t17 24.5t6.5 29t-6.5 29t-17 24.5t-24 17t-28.5 6.5h-615q-4 23 -6 46.5t-2 47.5q0 23 2 47t6 47h700q15 0 29 6t24.5 16.5t17 24.5t6.5 29q0 31 -23 54t-54 23h-647q68 129 195 205q128 77 273 77
q193 0 319 -108q23 -22 52 -46q28 -24 57 -24q31 0 54 23t23 54q0 54 -97 118q-205 136 -408 136q-210 0 -384 -120q-175 -120 -251 -315h-142q-31 0 -54 -23t-23 -54q0 -15 6.5 -29t17 -24.5t24.5 -16.5t29 -6h101q-4 -24 -5.5 -47.5t-1.5 -46.5t1.5 -46.5t5.5 -47.5h-186
q-31 0 -54 -23t-23 -54t23 -54t54 -23h227q76 -193 251 -315q174 -120 384 -120q202 0 408 137q97 64 97 117z" />
    <glyph glyph-name="trademark" unicode="&#x2122;" horiz-adv-x="1306" 
d="M722 1290l7.5 -7.5t6.5 -7.5l59 -96l120 185q29 44 82 44q65 0 87 -48l65 -65q23 -23 23 -70v-454q0 -45 -22 -68.5t-68 -23.5q-44 0 -68 24l-65 65q-29 11 -41 39q-9 -5 -18 -6.5t-20 -1.5q-28 0 -53 24l-63 63q-3 0 -3 1v-116q0 -45 -23.5 -68.5t-68.5 -23.5
q-44 0 -68 24l-38 38q-15 -62 -89 -62q-44 0 -68 24l-65 65q-49 21 -49 89v278h-14q-48 0 -70 24l-65 65q-48 19 -48 87q0 97 98 97h390q26 0 45 -11t36 -33l10 -16zM1050 1311q0 54 -53 54q-30 0 -46 -25l-166 -253l-165 253q-18 25 -47 25h-390q-55 0 -55 -54
q0 -53 55 -53h141v-401q0 -55 55 -55q54 0 54 55v401h86v-401q0 -55 54 -55q55 0 55 55v271l116 -176q21 -30 41 -30q22 0 38 25l119 181v-271q0 -55 55 -55q53 0 53 55v454z" />
    </font>
</defs>
</svg>
