<?xml version="1.0" standalone="no"?>
<!DOCTYPE svg PUBLIC "-//W3C//DTD SVG 1.1//EN" "http://www.w3.org/Graphics/SVG/1.1/DTD/svg11.dtd" >
<svg xmlns="http://www.w3.org/2000/svg" xmlns:xlink="http://www.w3.org/1999/xlink" version="1.1">
<metadata>
Created by FontForge 20170731 at Sun Jun 19 13:50:24 2016
 By Aleksey,,,
Copyright (c) 2016 Walter E Stewart, with Reserved Font Name "Semi-Coder"
</metadata>
<defs>
<font id="SemiCoder-Regular" horiz-adv-x="625" >
  <font-face 
    font-family="Semi-Coder"
    font-weight="400"
    font-stretch="normal"
    units-per-em="1000"
    panose-1="0 0 0 0 0 0 0 0 0 0"
    ascent="800"
    descent="-200"
    x-height="497"
    cap-height="792"
    bbox="-5 -432 648 1008"
    underline-thickness="72"
    underline-position="-244"
    unicode-range="U+000D-2122"
  />
<missing-glyph horiz-adv-x="530" 
d="M50 100h300v592h-300v-148v-444zM0 742h400v-692h-201h-199v692z" />
    <glyph glyph-name=".notdef" horiz-adv-x="530" 
d="M50 100h300v592h-300v-148v-444zM0 742h400v-692h-201h-199v692z" />
    <glyph glyph-name=".null" horiz-adv-x="0" 
 />
    <glyph glyph-name=".null" horiz-adv-x="0" 
 />
    <glyph glyph-name="nonmarkingreturn" unicode="&#xd;" horiz-adv-x="0" 
 />
    <glyph glyph-name="space" unicode=" " 
 />
    <glyph glyph-name="exclam" unicode="!" 
d="M252 145q29 0 51 -22q21 -21 21 -52q0 -29 -21 -50t-51 -21q-29 0 -51 21q-21 21 -21 50q0 30 21 52q22 22 51 22zM288 252q0 -36 -36 -36t-36 36v126v378q0 36 36 36t36 -36v-504z" />
    <glyph glyph-name="quotedbl" unicode="&#x22;" 
d="M433 624q0 -4 -1 -7q1 -1 1 -5q0 -36 -37 -36q-36 0 -37 36v216q0 35 36 36h1l1 -1q28 0 50 -28q21 -27 22 -66q0 -32 -16 -58q-6 -29 -20 -87zM145 612v12q-6 21 -23 87q-14 25 -14 58q0 39 21 66q21 28 51 28v1q36 0 36 -36v-216q0 -36 -36 -36q-35 0 -35 36z" />
    <glyph glyph-name="numbersign" unicode="#" 
d="M476 714q32 -12 22 -46q-10 -30 -30 -92h72q36 0 36 -36t-36 -36h-97q-12 -36 -47 -145h73q35 0 35 -35q0 -36 -35 -36h-98q-9 -27 -35 -108q-6 -16 -24 -16q-9 0 -19 4q-34 10 -26 35q10 28 29 85h-141q-9 -27 -35 -108q-9 -23 -43 -12q-34 10 -26 35q10 28 28 85h-43
q-36 0 -36 36q0 35 36 35h68q12 36 47 145h-43q-37 0 -37 36t37 36h68q9 28 38 115q8 25 29 26q8 0 16 -3q34 -12 22 -46q-10 -30 -30 -92h140q10 28 39 115q8 25 30 26q7 0 16 -3zM319 359q12 36 48 145h-140q-12 -36 -47 -145h139z" />
    <glyph glyph-name="dollar" unicode="$" 
d="M324 36q0 -36 -36 -36t-36 36v38q-76 11 -128 61t-52 116l-1 1q0 36 37 36q36 0 37 -36q0 -38 30 -66q30 -29 77 -39v177v39q-76 10 -128 60q-53 50 -53 117q0 66 53 116q52 51 128 62v38q0 36 36 36t36 -36v-38q76 -11 128 -62q52 -50 52 -115v-1q0 -36 -35 -36
q-36 0 -36 36q0 38 -32 66q-30 29 -77 39v-176v-39q76 -12 128 -62t52 -116q0 -67 -52 -117t-128 -61v-38zM252 436v33v176q-47 -9 -77 -39q-30 -28 -30 -66t30 -67q30 -28 77 -37zM324 356v-32v-177q47 9 77 39q31 28 32 66q0 37 -32 66q-30 29 -77 38z" />
    <glyph glyph-name="percent" unicode="%" 
d="M433 359q59 0 101 -42t42 -101q0 -60 -42 -102q-43 -43 -101 -43q-61 0 -103 43q-42 42 -42 102t42 101q42 42 103 42zM159 91q-11 -21 -28 -22q-10 0 -21 6q-21 11 -20 29v2q0 8 5 17l129 258q16 32 64 129q32 64 129 257q11 21 28 21h3q8 0 17 -5q21 -11 21 -28v-3
q0 -8 -5 -18q-43 -85 -128 -256q-17 -32 -65 -129q-32 -65 -129 -258zM145 792q59 0 101 -42q42 -43 42 -102q0 -60 -42 -102q-43 -42 -101 -42q-60 0 -103 42q-42 43 -42 102t42 102q43 42 103 42zM145 720q-30 0 -52 -21q-21 -21 -22 -51q0 -30 22 -50q21 -21 52 -22
q28 0 49 22q21 21 22 50q0 29 -22 51q-21 21 -49 21zM433 288q-30 0 -52 -21q-21 -21 -22 -51q0 -29 22 -51q21 -21 52 -20q28 0 49 20q21 21 22 51q0 30 -22 51q-21 21 -49 21z" />
    <glyph glyph-name="ampersand" unicode="&#x26;" 
d="M0 216v25v18v29q0 63 33 114q32 51 85 78q-16 17 -25 40l-2 1h1q-21 42 -21 91q0 74 43 127q42 53 102 53t101 -53q42 -53 42 -127q0 -68 -35 -118t-86 -60q4 -5 11 -16q21 -29 82 -118q22 -34 91 -136q11 24 11 52q0 54 35 54q36 0 36 -54q0 -64 -35 -118q8 -12 23 -35
q12 -12 12 -27q0 -36 -35 -36q-19 0 -29 13q-4 3 -6 8q-5 8 -16 22q-58 -43 -130 -43h-33h-39q-90 0 -153 63t-63 153zM377 103q-26 39 -106 155q-20 30 -82 120q-8 11 -29 43q-39 -17 -63 -53q-25 -36 -26 -80v-30v-42q0 -60 43 -102q42 -43 102 -43h72q50 1 89 32z
M156 554q6 -9 25 -35q18 -15 35 -15q30 0 51 31q21 32 21 77q0 44 -21 76q-21 31 -51 32q-29 0 -51 -32q-21 -32 -20 -76q-1 -31 11 -58z" />
    <glyph glyph-name="quotesingle" unicode="'" 
d="M324 624q0 -48 -36 -48t-36 48q-7 29 -22 87q-15 27 -14 58q0 39 21 67t51 28q29 0 51 -28q21 -28 20 -67q0 -31 -13 -58q-7 -29 -22 -87z" />
    <glyph glyph-name="parenleft" unicode="(" 
d="M396 0q37 0 37 -35q0 -36 -37 -36h-37q-118 0 -203 136q-85 138 -85 331q0 194 85 331q85 138 203 137h37q37 0 37 -36t-37 -36h-37q-89 0 -152 -116q-62 -116 -62 -280q0 -163 62 -280q63 -116 152 -116h37z" />
    <glyph glyph-name="parenright" unicode=")" 
d="M108 792q-37 0 -37 36t37 36h37q118 0 203 -137t85 -331q0 -192 -85 -331q-85 -137 -203 -136h-37q-37 0 -37 36q0 35 37 35h37q89 0 152 116q62 116 62 280t-62 280q-63 116 -152 116h-37z" />
    <glyph glyph-name="asterisk" unicode="*" 
d="M252 648q36 0 36 -36v-154q33 20 134 77q30 19 48 -13q8 -12 8 -21q-1 -17 -21 -28q-44 -25 -133 -77q33 -19 133 -77q31 -19 13 -49q-18 -31 -48 -13q-45 25 -134 76v-153q0 -35 -36 -35t-36 35v153q-33 -19 -133 -76q-31 -19 -49 13q-7 12 -7 21q0 17 20 28
q44 25 133 77q-33 20 -133 77q-20 12 -20 28q0 10 7 21q18 31 49 13q44 -25 133 -77v154q0 36 36 36z" />
    <glyph glyph-name="plus" unicode="+" 
d="M36 433h180v179q0 36 36 36t36 -36v-179h181q35 0 35 -37q0 -36 -35 -37h-181v-179q0 -35 -36 -35t-36 35v179h-180q-36 0 -36 37t36 37z" />
    <glyph glyph-name="comma" unicode="," 
d="M257 133q14 6 27 6q16 0 32 -8q21 -7 34 -35v-1l1 -1q17 -41 16 -81q0 -42 -17 -84q-33 -83 -116 -117q-20 -9 -34 -8q-21 1 -30 21q-3 7 -3 14q0 23 39 40q78 32 88 117q-56 -8 -76 43q-12 27 -1 55q12 27 40 39z" />
    <glyph glyph-name="hyphen" unicode="-" 
d="M36 433h433q35 0 35 -37q0 -36 -35 -37h-433q-36 0 -36 37t36 37z" />
    <glyph glyph-name="period" unicode="." 
d="M216 145q30 0 51 -22q21 -21 21 -52q0 -29 -21 -50t-51 -21q-29 0 -51 21q-21 21 -20 50q0 30 20 52q22 22 51 22z" />
    <glyph glyph-name="slash" unicode="/" 
d="M461 762q-98 -193 -388 -773q-11 -21 -28 -21q-10 0 -21 6q-21 11 -20 28q0 9 5 19q129 258 387 773q11 21 28 21q10 0 20 -5q21 -11 22 -29q0 -8 -5 -19z" />
    <glyph glyph-name="zero" unicode="0" 
d="M288 792q90 0 152 -116q63 -116 64 -280q0 -163 -64 -280q-62 -116 -152 -116q-89 0 -153 116q-63 116 -64 280q0 164 64 280t153 116zM411 562q-50 -101 -201 -402q-5 -9 -13 -15q40 -73 91 -74q60 0 102 96q43 95 43 229q-1 88 -22 166zM164 230q52 102 204 408
q4 7 10 11q-40 70 -90 71q-60 0 -101 -95q-42 -95 -42 -229q-1 -91 19 -166z" />
    <glyph glyph-name="one" unicode="1" 
d="M252 792q36 0 36 -36v-720q0 -36 -36 -36t-36 36v575q-9 -18 -35 -69q-16 -32 -48 -16q-21 10 -22 29q0 9 6 19q32 64 97 193q5 10 13 14q9 11 25 11z" />
    <glyph glyph-name="two" unicode="2" 
d="M469 71q35 0 35 -35q0 -36 -35 -36h-165h-196q-37 0 -37 36q0 85 58 147q62 70 251 279q3 3 11 12q40 42 42 100v2q0 60 -43 102q-42 42 -102 42t-101 -42q-42 -42 -42 -102q0 -54 -38 -54q-36 0 -36 54q0 89 64 153q64 63 153 63q90 0 152 -63q63 -63 64 -153
q0 -90 -63 -153q-3 -3 -7 -9q-59 -65 -236 -262q-6 -8 -11 -14q-28 -27 -39 -67h321z" />
    <glyph glyph-name="three" unicode="3" 
d="M504 288v-72q0 -90 -64 -153q-62 -63 -152 -63t-152 62q-38 39 -13 65q25 25 64 -13q41 -41 98 -43h2h1q60 0 102 43q43 42 43 102v72q0 60 -43 102q-42 43 -102 43h-36q-6 0 -11 1q-7 1 -11 5q-7 5 -10 13q-4 7 -4 17q0 12 7 20q59 77 174 231h-252q-36 0 -37 36
q0 36 37 36h324q35 0 35 -36q0 -6 -3 -14q-60 -80 -180 -241q59 -9 106 -48q4 -3 10 -8v-1h1q1 -2 1 -3q2 -1 4 -3q5 -4 6 -7h1l3 -3q1 -2 3 -3l1 -2q0 -1 2 -3q1 -2 2 -3l1 -2l2 -1v-1h1l2 -4v-1l1 -1l1 -1q0 -1 1 -2q0 -1 1 -2q1 0 1 -1t1 -1v-1q0 -1 1 -1q2 -3 2 -2
q0 -1 1 -2q1 -2 1 -3q1 0 1 -1q1 -1 1 -2v-2v-1q1 -1 1 -2q2 -1 2 -2q1 -1 1 -2v-3q0 -1 1 -1l1 -1v-1l1 -1v-1l1 -1v-1v-1q-1 2 1 -3q1 -1 1 -2q1 -1 1 -3q1 0 1 -1v-2q0 -1 1 -2v-1q2 -3 2 -2v-1q0 -1 1 -4v-1l1 -3v-1v-1q0 -1 1 -2l1 -2v-1v-2q0 -1 1 -1v-1v-2v-2v-1
q1 -2 1 -4v-1q0 -2 1 -2v-3q1 -1 1 -4v-1v-1v-2v-1q1 -2 1 -4v-1v-5v-3v-2v-3v-2z" />
    <glyph glyph-name="four" unicode="4" 
d="M324 792q35 0 35 -36q0 -12 -6 -22q-62 -125 -185 -375h48h36h107v74v36v71q0 36 37 36t37 -36v-71v-36v-74h36q35 0 35 -35q0 -36 -35 -36h-36v-252q0 -36 -37 -36q-36 0 -37 36v252h-107h-36h-108q-37 0 -37 36q0 15 11 25q70 142 210 424h1q9 19 31 19z" />
    <glyph glyph-name="five" unicode="5" 
d="M71 216q0 54 36 54q37 0 38 -54q0 -60 42 -102q42 -43 101 -43q60 0 102 43q43 42 43 102v72q0 60 -43 102q-42 43 -102 43h-180q-37 0 -37 36v42v58v187q0 36 37 36h361q35 0 35 -36t-35 -36h-324v-216h143q90 0 152 -64q63 -62 64 -152v-72q0 -90 -64 -153
q-62 -63 -152 -63q-89 0 -153 63t-64 153z" />
    <glyph glyph-name="six" unicode="6" 
d="M504 288v-72q0 -90 -64 -153q-62 -63 -152 -63q-89 0 -153 63q-63 62 -64 153v14v22v7v29q0 6 1 12t1 12q9 202 71 341q61 139 144 139h36q35 0 35 -36t-35 -36h-36q-42 0 -77 -72q-34 -72 -52 -187q57 43 129 43q90 0 152 -64q64 -62 64 -152zM145 305v-53v-36
q0 -60 42 -102q42 -43 101 -43q60 0 102 43q43 42 43 102v72q0 60 -43 102q-42 43 -102 43q-56 0 -97 -37q-39 -37 -46 -91z" />
    <glyph glyph-name="seven" unicode="7" 
d="M108 720q-37 0 -37 36t37 36h361q35 0 35 -36v-14l-3 -3l-3 -3q-3 -6 -11 -10q-124 -124 -198 -304q-73 -179 -73 -386q0 -36 -36 -36q-35 0 -35 36q0 199 64 376t176 308h-277z" />
    <glyph glyph-name="eight" unicode="8" 
d="M504 288v-72q0 -90 -64 -153q-62 -63 -152 -63q-89 0 -153 63q-63 62 -64 153v17v21v34q0 63 33 114q32 51 86 78q-46 54 -45 132q0 74 42 127t101 53q60 0 102 -53q43 -53 43 -127q0 -79 -46 -132q52 -27 84 -78q33 -51 33 -114zM288 720q-30 0 -51 -32t-21 -76
q0 -45 21 -77q21 -31 51 -31q29 0 51 31q21 32 20 77q0 44 -20 76q-22 32 -51 32zM288 433q-60 0 -101 -43q-42 -42 -42 -102v-72q0 -60 42 -102q42 -43 101 -43q60 0 102 43q43 42 43 102v72q0 60 -43 102q-42 43 -102 43z" />
    <glyph glyph-name="nine" unicode="9" 
d="M504 36q0 -36 -35 -36q-36 0 -36 36v308q-62 -56 -145 -56q-89 0 -153 64q-63 62 -64 152v18v54q0 89 64 153q64 63 153 63q90 0 152 -63q63 -63 64 -153v-36v-36v-468zM288 720q-60 0 -101 -42q-42 -42 -42 -102v-72q0 -60 42 -102q42 -43 101 -43q60 0 102 43
q43 42 43 102v36v36q0 60 -43 102q-42 42 -102 42z" />
    <glyph glyph-name="colon" unicode=":" 
d="M252 576q29 0 51 -21q21 -21 21 -51t-21 -51t-51 -20q-29 0 -51 20q-21 21 -21 51t21 51q22 21 51 21zM252 145q29 0 51 -22q21 -21 21 -52q0 -29 -21 -50t-51 -21q-29 0 -51 21q-21 21 -21 50q0 30 21 52q22 22 51 22z" />
    <glyph glyph-name="semicolon" unicode=";" 
d="M288 576q29 0 51 -21q21 -21 20 -51q0 -30 -20 -51q-21 -21 -51 -20q-30 0 -51 20q-21 21 -21 51t21 51t51 21zM261 136q14 6 27 6q17 0 32 -8q21 -6 34 -35v-1q1 0 1 -1q17 -41 17 -82t-18 -82q-34 -83 -116 -118q-18 -8 -30 -7h-3q-21 0 -30 20q-3 7 -3 14q0 24 39 40
q78 32 87 117q-56 -8 -75 43q-12 27 -1 55q12 27 39 39z" />
    <glyph glyph-name="less" unicode="&#x3c;" 
d="M376 138l-229 229q-12 10 -11 25q0 2 1 4q-3 18 10 29l229 229q13 13 24 13q14 0 27 -13t12 -25q0 -14 -12 -26q-69 -68 -207 -207q52 -52 207 -208q25 -25 0 -50q-13 -13 -26 -13q-12 0 -25 13z" />
    <glyph glyph-name="equal" unicode="=" 
d="M36 576h433q35 0 35 -36t-35 -36h-433q-36 0 -36 36t36 36zM36 288h433q35 0 35 -36t-35 -36h-433q-36 0 -36 36t36 36z" />
    <glyph glyph-name="greater" unicode="&#x3e;" 
d="M200 654q58 -58 230 -229q11 -11 10 -26v-3v-2q0 -16 -10 -27q-77 -76 -230 -229q-13 -13 -25 -13q-13 0 -26 13t-12 25q0 13 12 25q69 69 207 208l-207 207q-25 26 0 51q13 13 26 13q12 0 25 -13z" />
    <glyph glyph-name="question" unicode="?" 
d="M180 145q30 0 50 -22q21 -21 22 -52q0 -29 -22 -50q-21 -21 -50 -21t-51 21q-21 21 -21 50q0 30 21 52q22 22 51 22zM216 792h72q90 0 152 -63q63 -63 64 -153q0 -89 -64 -152q-62 -64 -152 -65q-30 0 -51 -20q-21 -21 -21 -51v-36q0 -36 -36 -36q-35 0 -35 36v36
q0 60 42 102q42 43 101 43q60 0 102 42q43 42 43 101q0 60 -43 102q-42 42 -102 42h-72q-60 0 -102 -42q-43 -42 -43 -102q0 -54 -35 -54q-36 0 -36 54q0 89 63 153q63 63 153 63z" />
    <glyph glyph-name="at" unicode="@" 
d="M252 720q-75 0 -128 -95t-53 -229t53 -229q53 -96 128 -96h72q35 0 35 -35q0 -36 -35 -36h-56h-16h-36v4q-92 21 -154 132q-62 110 -62 260t62 260q62 111 154 132v4h36h107q90 0 154 -63q63 -63 63 -153v-252q0 -45 -31 -76q-32 -32 -76 -32q-42 0 -72 26q-30 27 -36 67
q-34 -21 -73 -21q-60 0 -101 42q-42 42 -42 103q0 59 42 101t101 42q40 0 75 -21q10 21 33 21q37 0 37 -36v-107v-109q0 -36 36 -36q35 0 35 36v252q0 60 -42 102q-43 42 -103 42h-107zM288 504q-30 0 -51 -22q-21 -21 -21 -49q0 -30 21 -52q21 -21 51 -22q29 0 51 22
q21 21 20 52q0 28 -20 49q-22 22 -51 22z" />
    <glyph glyph-name="A" unicode="A" 
d="M288 792q88 0 150 -200t66 -484v-72q0 -36 -35 -36q-36 0 -36 36v72q-2 56 -3 108h-283q-3 -52 -2 -108v-72q0 -36 -37 -36t-37 36v72h1q2 283 65 484q63 200 151 200zM425 288q-15 188 -52 310t-85 122t-85 -122q-38 -122 -52 -310h274z" />
    <glyph glyph-name="B" unicode="B" 
d="M108 0q-37 0 -37 36v54v234v145v85v202q0 36 37 36h144h36v-3q76 -11 128 -60q53 -50 53 -117q0 -82 -75 -135q49 -27 80 -79q30 -51 30 -110v-72q0 -90 -64 -153q-62 -63 -152 -63h-82h-98zM145 720v-216h107q60 0 102 31q42 32 42 77q0 44 -42 76q-42 31 -102 32h-107z
M145 433v-109v-253h143q60 0 102 43q43 42 43 102v72q0 60 -43 102q-42 43 -102 43h-35h-1h-107z" />
    <glyph glyph-name="C" unicode="C" 
d="M288 0q-88 0 -150 61t-66 147v1q-1 1 -1 2v5v51v84v225v5q0 1 1 1v3q3 86 66 146q62 61 150 61q90 0 152 -63q63 -63 64 -153v-36q0 -36 -35 -36q-36 0 -36 36v36q0 60 -43 102q-42 42 -102 42t-101 -42q-42 -42 -42 -102v-360q0 -60 42 -102q42 -43 101 -43q60 0 102 43
q43 42 43 102v36q0 36 36 36q35 0 35 -36v-36q0 -90 -64 -153q-62 -63 -152 -63z" />
    <glyph glyph-name="D" unicode="D" 
d="M145 720v-81v-568h143q60 0 102 96q43 95 43 229q0 135 -43 229q-42 95 -102 95h-143zM108 0q-37 0 -37 36v323v63v334q0 36 37 36h180q90 0 152 -116q63 -116 64 -280q0 -163 -64 -280q-62 -116 -152 -116h-82h-98z" />
    <glyph glyph-name="E" unicode="E" 
d="M469 792q35 0 35 -36t-35 -36h-324v-216h214h37q37 0 37 -35q0 -36 -37 -36h-37h-214v-362h324q35 0 35 -35q0 -36 -35 -36h-165h-196q-37 0 -37 36v74v323v71v75v177q0 36 37 36h361z" />
    <glyph glyph-name="F" unicode="F" 
d="M108 792h361q35 0 35 -36t-35 -36h-324v-216h251q37 0 37 -35q0 -36 -37 -36h-251v-397q0 -36 -37 -36t-37 36v323v63v334q0 36 37 36z" />
    <glyph glyph-name="G" unicode="G" 
d="M288 0q-88 0 -150 61t-66 147v1q-1 1 -1 2v5v51v84v225v5q0 1 1 1v3q3 86 66 146q62 61 150 61q90 0 152 -63q63 -63 64 -153v-36q0 -36 -35 -36q-36 0 -36 36v36q0 60 -43 102q-42 42 -102 42t-101 -42q-42 -42 -42 -102v-360q0 -60 42 -102q42 -43 101 -43q60 0 102 43
q43 42 43 102v36v36h-109q-36 0 -36 36q0 35 36 35h145q35 0 35 -35v-72v-36v-180q0 -36 -35 -36q-36 0 -36 36v19q-62 -55 -145 -55z" />
    <glyph glyph-name="H" unicode="H" 
d="M504 36q0 -36 -35 -36q-36 0 -36 36v323h-288v-323q0 -36 -37 -36t-37 36v323v63v334q0 36 37 36q36 0 37 -36v-323h288v323q0 36 36 36q35 0 35 -36v-720z" />
    <glyph glyph-name="I" unicode="I" 
d="M180 720q-35 0 -35 36t35 36h144q35 0 35 -36t-35 -36h-36v-649h36q35 0 35 -35q0 -36 -35 -36h-65h-79q-35 0 -35 36q0 35 35 35h36v649h-36z" />
    <glyph glyph-name="J" unicode="J" 
d="M71 216v36q0 36 37 36q36 0 37 -36v-36q0 -60 42 -102q42 -43 101 -43q60 0 102 43q43 42 43 102v108v109v323q0 36 36 36q35 0 35 -36v-323v-109v-108v-1q0 -89 -64 -153q-63 -62 -152 -62t-153 63t-64 153z" />
    <glyph glyph-name="K" unicode="K" 
d="M108 792q36 0 37 -36v-273q74 74 297 298q11 11 27 11q35 0 35 -36q0 -15 -11 -26q-83 -84 -334 -334q84 -83 334 -334q11 -11 11 -26q0 -36 -35 -36q-16 0 -27 11q-74 74 -297 298v-273q0 -36 -37 -36t-37 36v66v280v29v94v251q0 36 37 36z" />
    <glyph glyph-name="L" unicode="L" 
d="M108 792q36 0 37 -36v-685h324q35 0 35 -35q0 -36 -35 -36h-165h-196q-37 0 -37 36v323v63v334q0 36 37 36z" />
    <glyph glyph-name="M" unicode="M" 
d="M145 36q0 -36 -37 -36t-37 36v323v63v334q0 36 37 36q32 0 37 -31q48 -116 143 -349q36 87 145 349q4 31 36 31q35 0 35 -36v-720q0 -36 -35 -36q-36 0 -36 36v535q-28 -66 -112 -266q-9 -22 -33 -23q-24 0 -34 23q-36 89 -109 266v-535z" />
    <glyph glyph-name="N" unicode="N" 
d="M469 792q35 0 35 -36v-676v-44q0 -36 -35 -36q-36 0 -36 36v26l-288 528v-554q0 -36 -37 -36t-37 36v323v63v334q0 36 37 36q36 0 37 -36v-16q71 -132 288 -528v544q0 36 36 36z" />
    <glyph glyph-name="O" unicode="O" 
d="M288 0q-88 0 -150 61t-66 147v1q-1 1 -1 2v5v51v84v225v5q0 1 1 1v3q3 86 66 146q62 61 150 61q90 0 152 -63q63 -63 64 -153v-36v-288v-36q0 -90 -64 -153q-62 -63 -152 -63zM433 252v288v36q0 60 -43 102q-42 42 -102 42t-101 -42q-42 -42 -42 -102v-360q0 -60 42 -102
q42 -43 101 -43q60 0 102 43q43 42 43 102v36z" />
    <glyph glyph-name="P" unicode="P" 
d="M145 720v-287h143q60 0 102 42q43 42 43 101q0 60 -43 102q-42 42 -102 42h-36h-107zM145 36q0 -36 -37 -36t-37 36v323v63v334q0 36 37 36h144h36q90 0 152 -63q63 -63 64 -153q0 -88 -61 -150t-146 -66h-2q-1 -1 -2 -1h-5h-143v-323z" />
    <glyph glyph-name="Q" unicode="Q" 
d="M540 71q36 0 36 -35q0 -36 -36 -36h-17h-19q-67 0 -123 39q-45 -39 -93 -39q-89 0 -153 116q-63 116 -64 280q0 164 64 280t153 116q90 0 152 -116q63 -116 64 -280q0 -91 -21 -169t-55 -133q34 -22 76 -23h36zM331 87q-43 58 -43 129v36q0 36 36 36q35 0 35 -36v-36
q0 -38 20 -71q23 45 39 110q15 65 15 141q0 135 -43 229q-42 95 -102 95t-101 -95q-42 -95 -42 -229t42 -229q42 -96 101 -96q22 0 43 16z" />
    <glyph glyph-name="R" unicode="R" 
d="M145 720v-287h143q60 0 102 42q43 42 43 101q0 60 -43 102q-42 42 -102 42h-36h-107zM491 64q13 -12 13 -28q0 -36 -35 -36q-16 0 -26 11q0 -1 -1 -1q-74 85 -297 341v-315q0 -36 -37 -36t-37 36v323v63v334q0 36 37 36h144h36q90 0 152 -63q63 -63 64 -153
q0 -88 -61 -150t-146 -66h-2q-1 -1 -2 -1h-5h-57q65 -73 260 -295z" />
    <glyph glyph-name="S" unicode="S" 
d="M71 216q0 54 36 54q37 0 38 -54q0 -60 42 -102q42 -43 101 -43q60 0 102 43q43 42 43 102t-43 101q-42 42 -102 42q-89 0 -153 65q-63 63 -64 152q0 89 64 153q64 63 153 63q90 0 152 -63q63 -63 64 -153q0 -54 -36 -54q-35 0 -35 54q0 60 -43 102q-42 42 -102 42
t-101 -42q-42 -42 -42 -102t42 -101q42 -42 101 -42q90 0 152 -64q63 -64 64 -153q0 -90 -64 -153q-62 -63 -152 -63q-89 0 -153 63t-64 153z" />
    <glyph glyph-name="T" unicode="T" 
d="M288 720v-684q0 -36 -36 -36t-36 36v684h-180q-36 0 -36 36t36 36h433q35 0 35 -36t-35 -36h-181z" />
    <glyph glyph-name="U" unicode="U" 
d="M288 0q-89 0 -153 63q-63 62 -64 153v96v134v310q0 36 37 36q36 0 37 -36v-540q0 -60 42 -102q42 -43 101 -43q60 0 102 43q43 42 43 102v540q0 36 36 36q35 0 35 -36v-540q0 -90 -64 -153q-62 -63 -152 -63z" />
    <glyph glyph-name="V" unicode="V" 
d="M1 747q-1 5 -1 10q0 35 35 35q25 0 34 -23q46 -153 183 -612q46 152 183 612q8 23 34 23q35 0 35 -35q0 -7 -3 -14q-70 -235 -211 -707q-3 -36 -38 -36q-36 0 -38 36q-53 178 -212 710h-1v1z" />
    <glyph glyph-name="W" unicode="W" 
d="M36 792q35 0 35 -35q38 -190 115 -570q16 52 63 209q1 36 37 36t38 -36q17 -54 65 -215q29 146 116 586h1q7 25 34 25q36 0 36 -36q0 -6 -2 -11q-47 -236 -140 -709h-1q0 -36 -37 -36q-36 0 -37 36h-1q-19 60 -72 238q-18 -59 -70 -235v-2v-1q0 -36 -36 -36q-35 0 -35 36
h-3h-1q0 1 1 3q-35 178 -142 712v2v3q0 36 36 36z" />
    <glyph glyph-name="X" unicode="X" 
d="M65 16q-11 -16 -29 -16q-36 0 -36 36q0 14 11 26q66 110 199 333q-51 85 -204 339h1q-7 9 -7 22q0 36 36 36q27 0 34 -26q61 -101 182 -302q45 75 182 302q7 26 35 26q35 0 35 -36q0 -13 -7 -22h1h1q-68 -113 -205 -339q50 -84 200 -333q10 -11 10 -26q0 -36 -35 -36
q-20 0 -31 16v-1q-62 104 -186 309q-47 -78 -186 -309h-1v1z" />
    <glyph glyph-name="Y" unicode="Y" 
d="M324 316v-280q0 -36 -36 -36t-36 36v280q-44 106 -177 426q-4 10 -4 19q0 20 24 29q33 13 47 -19q49 -118 146 -354q37 89 147 354q10 23 29 23q8 0 17 -4q23 -10 24 -30q0 -8 -4 -18z" />
    <glyph glyph-name="Z" unicode="Z" 
d="M495 731q-83 -165 -331 -660h305q35 0 35 -35q0 -36 -35 -36h-165h-196q-37 0 -37 36q0 9 6 19h-3q84 166 334 665h-300q-37 0 -37 36t37 36h361q35 0 35 -36q0 -14 -9 -25z" />
    <glyph glyph-name="bracketleft" unicode="[" 
d="M108 864h361q35 0 35 -36t-35 -36h-324v-792h324q35 0 35 -35q0 -36 -35 -36h-136h-225q-37 0 -37 36v323v85v455q0 36 37 36z" />
    <glyph glyph-name="backslash" unicode="\" 
d="M461 21q5 -11 5 -19q-1 -18 -22 -28q-11 -6 -19 -6q-19 0 -29 21q-129 258 -387 773q-5 11 -5 19q0 18 20 29q12 6 21 5q18 0 28 -21q129 -258 388 -773z" />
    <glyph glyph-name="bracketright" unicode="]" 
d="M469 -71h-158h-203q-37 0 -37 36q0 35 37 35h325v792h-325q-37 0 -37 36t37 36h361q35 0 35 -36v-863q0 -36 -35 -36z" />
    <glyph glyph-name="asciicircum" unicode="^" 
d="M288 780l-143 -143q-13 -13 -26 -13h-2q-12 0 -23 13q-13 12 -13 25q0 14 13 26l165 165q11 11 26 10h3h2q16 0 26 -10q56 -55 166 -165q13 -13 13 -26q0 -14 -13 -25q-25 -25 -50 0q-48 47 -144 143z" />
    <glyph glyph-name="underscore" unicode="_" 
d="M540 0q36 0 36 -35q0 -36 -36 -36h-189h-315q-36 0 -36 36q0 35 36 35h231h273z" />
    <glyph glyph-name="grave" unicode="`" 
d="M216 864q30 0 51 -21t21 -51q0 -57 -54 -69q41 -74 125 -75q55 0 55 -36t-55 -36q-89 0 -152 64q-62 63 -62 152v1v1q0 31 17 46q22 23 54 24z" />
    <glyph glyph-name="a" unicode="a" 
d="M288 288q-60 0 -101 -31q-42 -32 -42 -77q0 -44 42 -76t101 -33q60 0 102 33q43 32 43 76q0 45 -43 77q-42 31 -102 31zM504 289v-1v-36v-72v-72v-72q0 -36 -35 -36q-36 0 -36 36v10q-62 -46 -145 -46q-89 0 -153 53q-63 53 -64 127q0 74 64 127t153 52q80 0 142 -43
q-11 49 -50 82q-40 34 -92 35h-108q-35 0 -35 36q0 35 35 35h108q89 0 152 -63q64 -63 64 -152z" />
    <glyph glyph-name="b" unicode="b" 
d="M504 288v-72q0 -90 -64 -153q-62 -63 -152 -63q-83 0 -143 55v-19q0 -36 -37 -36t-37 36v323v63v334q0 36 37 36q36 0 37 -36v-307q61 55 143 55q90 0 152 -64q64 -62 64 -152zM288 433q-60 0 -101 -43q-42 -42 -42 -102v-72q0 -60 42 -102q42 -43 101 -43q60 0 102 43
q43 42 43 102v72q0 60 -43 102q-42 43 -102 43z" />
    <glyph glyph-name="c" unicode="c" 
d="M71 216v13v22v37q0 90 64 152q64 63 153 64q91 0 152 -64q15 -11 15 -29q0 -36 -36 -36q-18 0 -28 16l-1 -1q-42 43 -102 43t-101 -43q-42 -42 -42 -102v-72q0 -60 42 -102q42 -43 101 -43q60 0 102 43h1q11 14 27 14q36 0 36 -36q0 -18 -14 -29q-62 -63 -152 -63
q-89 0 -153 63t-64 153z" />
    <glyph glyph-name="d" unicode="d" 
d="M71 288q0 90 64 152q64 63 153 64q83 0 145 -55v307q0 36 36 36q35 0 35 -36v-720q0 -36 -35 -36q-36 0 -36 36v19q-62 -55 -145 -55q-89 0 -153 63q-63 62 -64 153v17v21v34zM288 433q-60 0 -101 -43q-42 -42 -42 -102v-72q0 -60 42 -102q42 -43 101 -43q60 0 102 43
q43 42 43 102v72q0 60 -43 102q-42 43 -102 43z" />
    <glyph glyph-name="e" unicode="e" 
d="M71 216v13v22v37q0 90 64 152q64 63 153 64q89 0 152 -63t64 -152v-1v-7q-113 -47 -339 -139q42 -70 123 -71q60 0 102 43h1q11 14 27 14q36 0 36 -36q0 -18 -14 -29q-62 -63 -152 -63q-89 0 -153 63t-64 153zM426 328q-13 45 -51 74q-38 30 -87 31q-60 0 -101 -43
q-42 -42 -42 -102v-72v-3v-2q93 39 281 117z" />
    <glyph glyph-name="f" unicode="f" 
d="M449 775q53 0 53 -35t-53 -35q-59 0 -99 -41q-41 -41 -41 -100v-70h140q35 0 35 -35t-35 -35h-140v-70v-317q0 -35 -36 -35q-35 0 -35 35v317v70h-105q-35 0 -35 35t35 35h105v70v1q0 87 62 149q62 61 149 61z" />
    <glyph glyph-name="g" unicode="g" 
d="M227 -352q11 -4 23 -4q13 -2 27 -2h11q5 0 11 1q21 2 40 5q19 4 34 11q24 11 44 27t36 35q16 20 26 40q11 21 15 43q3 11 3 22q1 11 -1 23q-2 11 -6 21t-9 21q-15 25 -33 45q-19 20 -40 33t-48 20q-26 9 -56 13q-20 1 -32 3q-12 3 -16 5q-6 1 -12 7q-7 6 -15 14
q-7 8 -14 20q-7 13 -13 29q-7 16 -10 24q-3 9 0 12h3q3 0 9 -1q5 -1 10 -3q6 -1 14 -3q8 -3 17 -4q9 -2 18 -2q7 -1 16 -1q8 0 15 1q38 3 70 16q31 14 56 36q24 22 39 48q15 25 20 55q3 15 2 30q-1 16 -5 31q-5 16 -13 31q-7 15 -18 28q-6 7 -11 13t-8 9q13 6 23 11t16 9
q16 8 30 18q15 10 26 22q12 12 19 21q6 10 5 18q0 6 -2 11q-3 6 -7 11q-4 6 -10 8q-6 3 -12 3q-3 0 -7 -2q-5 -2 -10 -5q-7 -4 -13 -7q-6 -4 -11 -8q-6 -5 -14 -10q-7 -5 -15 -12q-9 -6 -17 -9q-8 -5 -14 -8q-12 -6 -22 -10t-17 -4q-8 -2 -25 -3h-42q-35 0 -61 -4
q-26 -3 -43 -9q-18 -7 -36 -18q-18 -12 -35 -30q-21 -21 -33 -43q-13 -21 -17 -46q-1 -6 -1 -12q-1 -6 -1 -13v-5q0 -16 3 -31q5 -19 15 -37q3 -8 7 -18q3 -10 7 -21q3 -14 6 -26l6 -26q8 -47 22 -81q14 -35 35 -57t49 -34q29 -12 64 -11q24 0 47 -8q22 -9 43 -26
q20 -17 30 -35q11 -19 10 -38q0 -11 -6 -23q-5 -13 -15 -27q-11 -14 -22 -25q-12 -11 -24 -20q-9 -6 -17 -9q-9 -4 -14 -5q-6 -2 -16 -2q-10 -1 -23 -1q-17 0 -31 2q-14 1 -22 6q-10 4 -22 11q-13 9 -27 22q-6 4 -11 7l-10 8q-6 3 -10 4t-6 1q-6 0 -12 -3t-11 -7
q-5 -5 -7 -11q-3 -5 -3 -12q0 -10 9 -22q9 -13 26 -28q18 -15 36 -25q20 -11 41 -18zM323 180q-14 -5 -25 -6q-11 -2 -19 -2q-9 0 -20 2q-11 1 -24 6q-14 5 -27 11q-13 8 -23 20q-12 10 -19 21q-8 13 -11 25q-3 7 -4 14q-1 5 -1 8v1v1q0 1 1 1q0 4 2 11t6 17q6 12 14 23
q9 11 21 21q12 9 25 15q14 7 30 12q8 1 15 3q9 1 17 1q15 0 30 -3q15 -4 30 -10q21 -12 36 -27q16 -16 25 -35q4 -9 6 -16t3 -12v-2q0 -4 -1 -9l-4 -14q-4 -14 -11 -26q-8 -12 -20 -21q-12 -11 -25 -19q-12 -6 -27 -11z" />
    <glyph glyph-name="h" unicode="h" 
d="M504 36q0 -36 -35 -36q-36 0 -36 36v35v145v72q0 60 -43 102q-42 43 -102 43t-101 -43q-42 -42 -42 -102v-252q0 -36 -37 -36t-37 36v48v204v36v145v85v202q0 36 37 36q36 0 37 -36v-287v-20q61 55 143 55q89 0 152 -63t64 -152v-1v-72v-145v-35z" />
    <glyph glyph-name="i" unicode="i" 
d="M359 36q0 -36 -35 -36q-36 0 -36 36v144v72v107q0 30 -21 52q-21 21 -51 22h-36q-35 0 -35 36q0 35 35 35h36q59 0 101 -42t42 -102v-1v-107v-72v-144zM288 720q29 0 51 -21q21 -21 20 -51q0 -30 -20 -50q-21 -21 -51 -22q-30 0 -51 22q-21 21 -21 50t21 51q21 21 51 21z
" />
    <glyph glyph-name="j" unicode="j" 
d="M216 -359h-36q-35 0 -35 35q0 36 35 36h36q60 0 101 43q42 42 42 101v180v252v71q0 30 -20 52q-21 21 -51 22h-36q-36 0 -36 36q0 35 36 35h36q60 0 102 -42t43 -102v-1v-71v-252v-180v-1q-1 -89 -65 -151q-63 -63 -152 -63zM359 720q30 0 52 -21q21 -21 22 -51
q0 -30 -22 -50q-21 -21 -52 -22q-29 0 -50 22q-21 21 -21 50t21 51q21 21 50 21z" />
    <glyph glyph-name="k" unicode="k" 
d="M490 65q13 -13 13 -25q0 -13 -13 -25q-25 -26 -51 0q-80 80 -241 240l-64 -64v-155q0 -36 -35 -36q-37 0 -37 36v55v233v145v85v202q0 36 37 36q35 0 35 -36v-287v-145v-31l197 197q25 25 51 0q25 -25 0 -51q-44 -45 -133 -133z" />
    <glyph glyph-name="l" unicode="l" 
d="M216 469v-145v-72v-107q0 -30 21 -52q21 -21 51 -22h36q35 0 35 -35q0 -36 -35 -36h-15h-21q-60 0 -101 42q-42 42 -42 102v1v107v72v145v53v234q0 36 35 36q36 0 36 -36v-287z" />
    <glyph glyph-name="m" unicode="m" 
d="M504 36q0 -36 -35 -36q-36 0 -36 36v252q0 60 -22 102q-21 43 -52 43q-29 0 -50 -43q-21 -42 -21 -102v-252q0 -36 -36 -36t-36 36v252q0 60 -22 102q-21 43 -49 43q-30 0 -52 -43q-21 -42 -22 -102v-72v-180q0 -36 -35 -36q-36 0 -36 36v180v72v63v44v74q0 35 36 35
q30 0 35 -29q34 29 74 29q63 0 107 -73q43 73 107 73q60 0 103 -64q42 -62 42 -152v-252z" />
    <glyph glyph-name="n" unicode="n" 
d="M504 36q0 -36 -35 -36q-36 0 -36 36v252q0 60 -43 102q-42 43 -102 43t-101 -43q-42 -42 -42 -102v-252q0 -36 -37 -36t-37 36v64v88v281q0 35 37 35q36 0 37 -35v-20q61 55 143 55q89 0 152 -63t64 -152v-1v-252z" />
    <glyph glyph-name="o" unicode="o" 
d="M504 288v-72q0 -90 -64 -153q-62 -63 -152 -63q-89 0 -153 63q-63 62 -64 153v17v21v34q0 90 64 152q64 63 153 64q90 0 152 -64q64 -62 64 -152zM288 433q-60 0 -101 -43q-42 -42 -42 -102v-72q0 -60 42 -102q42 -43 101 -43q60 0 102 43q43 42 43 102v72q0 60 -43 102
q-42 43 -102 43z" />
    <glyph glyph-name="p" unicode="p" 
d="M145 -324q0 -35 -37 -35t-37 35v73v188v84v448q0 35 37 35q36 0 37 -35v-20q61 55 143 55q90 0 152 -64q63 -62 64 -152v-72q0 -90 -64 -153q-62 -63 -152 -63q-83 0 -143 55v-306v-73zM288 71q60 0 102 43q43 42 43 102v72q0 60 -43 102q-42 43 -102 43t-101 -43
q-42 -42 -42 -102v-72q0 -60 42 -102q41 -43 101 -43z" />
    <glyph glyph-name="q" unicode="q" 
d="M495 -348q-11 -12 -26 -11q-36 0 -36 35v73v306q-62 -55 -145 -55q-89 0 -153 63q-63 62 -64 153v17v21v34q0 90 64 152q64 63 153 64q83 0 145 -55v20q0 35 36 35q35 0 35 -35v-707q23 15 44 -5q13 -13 13 -26t-13 -25q-17 -18 -51 -51zM288 71q60 0 102 43
q43 42 43 102v72q0 60 -43 102q-42 43 -102 43t-101 -43q-42 -42 -42 -102v-72q0 -60 42 -102q41 -43 101 -43z" />
    <glyph glyph-name="r" unicode="r" 
d="M145 36q0 -36 -37 -36t-37 36v48v204v54v127q0 35 37 35q36 0 37 -35v-20q61 55 143 55h71q60 0 103 -42q42 -43 42 -103v-35q0 -36 -35 -36q-36 0 -36 36v35q0 30 -22 52q-21 21 -52 22h-71q-60 0 -101 -43q-42 -42 -42 -102v-252z" />
    <glyph glyph-name="s" unicode="s" 
d="M252 216q-75 0 -128 42q-53 43 -53 101q0 60 53 103q53 42 128 42q73 0 126 -42t55 -101v-1v-1q0 -35 -37 -35q-36 0 -37 35q0 30 -31 52q-31 21 -76 22q-45 0 -76 -22q-31 -21 -31 -52q0 -29 31 -50t76 -21q74 0 127 -42q54 -43 54 -101q0 -60 -54 -103
q-53 -42 -127 -42t-127 42t-53 102q-1 0 -1 1q0 35 37 35q36 0 37 -35q0 -30 31 -52q31 -21 76 -22q45 0 76 22q31 21 31 52q0 28 -31 49q-31 22 -76 22z" />
    <glyph glyph-name="t" unicode="t" 
d="M216 215v1v180v37h-108q-37 0 -37 36q0 35 37 35h108v108q0 36 36 36t36 -36v-108h108q37 0 37 -35q0 -36 -37 -36h-108v-37v-180q0 -60 42 -102q42 -43 103 -43q53 0 52 -35q0 -36 -52 -36q-90 0 -154 62q-63 64 -63 153z" />
    <glyph glyph-name="u" unicode="u" 
d="M504 36q0 -36 -35 -36q-36 0 -36 36v19q-62 -55 -145 -55q-89 0 -153 63q-63 62 -64 153v72v71v21v33v56q0 35 37 35q36 0 37 -35v-110v-71v-72q0 -60 42 -102q42 -43 101 -43q60 0 102 43q43 42 43 102v253q0 35 36 35q35 0 35 -35v-253v-180z" />
    <glyph glyph-name="v" unicode="v" 
d="M293 -5q-25 0 -34 22q-60 145 -180 432q-4 10 -4 19q0 19 24 28q11 4 18 4q20 0 29 -23q49 -117 147 -353q36 88 145 353q10 23 30 23q8 0 17 -4q24 -10 25 -29q0 -8 -5 -18q-60 -145 -179 -432q-10 -22 -33 -22z" />
    <glyph glyph-name="w" unicode="w" 
d="M364 5q-32 -9 -43 25q-18 57 -51 172v-1l-51 -171q-11 -34 -43 -25q-7 -2 -13 -2q-23 0 -30 27q-43 141 -127 422q-2 9 -2 16q0 22 26 30q33 10 44 -24q34 -112 102 -337q1 5 10 35q10 30 19 64q10 34 19 63q9 28 8 28q6 16 11 28q5 13 27 13q36 0 36 -36h1
q15 -49 57 -195q25 84 101 337q9 27 30 27q7 0 16 -3q25 -8 25 -30v-4q0 -5 -2 -12q-42 -141 -126 -422q-11 -34 -44 -25z" />
    <glyph glyph-name="x" unicode="x" 
d="M86 63q39 46 77 93l78 94q-39 47 -78 93q-38 47 -77 93q-11 13 -11 25q0 14 15 25q13 11 24 11q14 0 27 -16q36 -44 73 -87l74 -88q36 44 73 88t75 87q22 28 49 5q16 -13 16 -26q0 -12 -10 -24q-40 -46 -79 -93q-38 -46 -77 -93q39 -47 77 -94q39 -47 79 -93
q10 -13 10 -23q0 -15 -16 -27q-13 -11 -23 -10q-15 0 -26 14q-37 45 -75 88q-37 44 -73 88l-74 -88q-37 -44 -73 -88q-13 -15 -27 -15q-12 0 -24 11q-15 12 -15 26q0 11 11 24z" />
    <glyph glyph-name="y" unicode="y" 
d="M253 31q-43 104 -174 418q-4 10 -4 19q0 19 24 28q11 4 18 4q20 0 29 -23q49 -117 147 -353q36 88 145 353q10 23 30 23q8 0 17 -4q24 -10 25 -29q0 -8 -5 -18q-60 -145 -179 -432q-1 -1 -2 -3q0 -1 -1 -2q-48 -117 -144 -350q-11 -23 -31 -23q-8 0 -16 4q-34 14 -20 46
q47 113 141 342z" />
    <glyph glyph-name="z" unicode="z" 
d="M36 0q-17 0 -27 12q-1 1 -2 3q-12 12 -12 24q0 13 12 26q122 122 367 368h-266h-72q-36 0 -36 36q0 35 36 35h72h288h53q11 -2 41 -7l2 -2q12 -11 12 -26q-9 -12 -27 -35q-90 -91 -361 -363h280h73q35 0 35 -35q0 -36 -35 -36h-73h-216h-72h-72z" />
    <glyph glyph-name="braceleft" unicode="{" 
d="M288 216v-71q0 -60 42 -103q42 -42 103 -42q53 0 52 -35q0 -36 -52 -36q-90 0 -154 63q-63 62 -63 153v71q0 60 -42 101q-42 42 -103 42q-54 0 -53 37q0 36 53 37q61 0 103 42t42 101v72q0 89 63 153q63 63 154 63q53 0 52 -36q0 -36 -52 -36q-61 0 -103 -42
q-42 -43 -42 -102v-72q0 -57 -26 -103q-27 -47 -71 -77q43 -28 71 -77q26 -46 26 -103z" />
    <glyph glyph-name="bar" unicode="|" 
d="M288 899v-1006q0 -36 -36 -37q-36 0 -36 37v378v98v530q0 37 36 38q36 -1 36 -38z" />
    <glyph glyph-name="braceright" unicode="}" 
d="M216 576v72q0 59 -42 102q-42 42 -103 42q-54 0 -53 36q0 36 53 36q90 0 154 -63q63 -63 63 -153v-72q0 -60 42 -101q42 -42 103 -42q53 0 52 -37q0 -37 -52 -37q-61 0 -103 -42t-42 -101v-71q0 -90 -63 -153t-154 -63q-54 0 -53 36q0 35 53 35q61 0 103 42q42 43 42 103
v71q0 57 26 103q26 48 70 77q-43 30 -70 77q-26 46 -26 103z" />
    <glyph glyph-name="asciitilde" unicode="~" 
d="M145 576q59 0 101 -37t42 -89v-36q0 -22 21 -38q21 -17 50 -17q30 0 52 17q21 16 22 38v55q0 35 36 35q35 0 35 -35v-55v-18h-1q-8 -45 -48 -77q-41 -31 -96 -31q-59 0 -101 37t-42 89v36q0 22 -22 38q-21 16 -49 16q-30 0 -52 -16q-21 -16 -22 -38v-54q0 -36 -35 -37
q-36 0 -36 37v16v24v14v19h1q8 45 48 76q41 31 96 31z" />
    <glyph glyph-name="exclamdown" unicode="&#xa1;" 
d="M252 359q-29 0 -51 22q-21 21 -21 52q0 28 21 49t51 22q29 0 51 -22q21 -21 21 -49q0 -30 -21 -52q-22 -22 -51 -22zM216 252q0 36 36 36t36 -36v-503q0 -37 -36 -37t-36 37v126v377z" />
    <glyph glyph-name="cent" unicode="&#xa2;" 
d="M71 359v14v60q0 89 64 152t153 63q25 0 50 -6l33 66q11 22 28 22q9 0 20 -5q32 -17 17 -49q-11 -21 -32 -62q21 -14 36 -29q15 -11 15 -29q0 -36 -36 -36q-18 0 -28 14h-1q-4 4 -18 16q-53 -104 -157 -314q33 -21 73 -20q60 0 102 42h1q11 15 27 14q36 0 36 -37
q0 -17 -14 -28q-62 -62 -152 -62q-57 0 -105 27q-13 -24 -37 -74q-11 -22 -30 -23q-9 0 -18 6q-34 17 -17 48q15 30 44 90q-54 61 -54 140zM162 291q35 71 143 284q-12 1 -17 1q-60 0 -101 -42q-42 -43 -42 -101v-74q-1 -37 17 -68z" />
    <glyph glyph-name="sterling" unicode="&#xa3;" 
d="M288 792q90 0 153 -63q38 -38 13 -64q-25 -25 -63 14q-43 40 -101 41h-1h-1q-58 0 -100 -41q-43 -42 -43 -101q8 -48 23 -145h156q35 0 35 -37q0 -36 -35 -37h-144q8 -51 33 -203q2 -7 0 -11h3v-37q0 -19 -6 -37h259q35 0 35 -35q0 -36 -35 -36h-165h-196q-46 0 -77 31
t-31 77q0 36 36 37q35 0 35 -37t37 -37q36 0 37 37v29q-1 3 -3 8q-12 71 -36 214h-70q-36 0 -36 37t36 37h59q-5 29 -20 118q-3 9 -3 24v1h-1h1v1q0 89 64 152q63 63 152 63z" />
    <glyph glyph-name="currency" unicode="&#xa4;" 
d="M62 156q-11 -12 -26 -11q-36 0 -36 35q0 16 12 27l64 64q-40 56 -40 125t40 125q-21 21 -64 65q-12 9 -12 26q0 36 36 36q16 0 26 -11q21 -22 65 -66q56 41 125 41t125 -41q21 21 64 66q11 12 28 11q35 0 35 -36q0 -18 -12 -26q-21 -22 -63 -65q40 -56 40 -125
q0 -68 -40 -125q21 -21 63 -64q12 -12 12 -27q0 -35 -35 -35q-17 0 -28 11l-64 64q-56 -40 -125 -40t-125 40q-22 -22 -65 -64zM252 540q-60 0 -102 -42t-42 -102t42 -102t102 -42t102 42t42 102q0 61 -42 102q-42 42 -102 42z" />
    <glyph glyph-name="yen" unicode="&#xa5;" 
d="M71 145h181v143h-181q-35 0 -35 36q0 35 35 35h163q-40 96 -159 383q-13 34 20 48q33 13 47 -19q49 -118 146 -354q37 89 147 354q10 23 29 23q8 0 17 -4q32 -14 20 -48q-53 -127 -158 -383h161q36 0 36 -35q0 -36 -36 -36h-180v-143h180q36 0 36 -37t-36 -37h-180v-35
q0 -36 -36 -36t-36 36v35h-181q-35 0 -35 37t35 37z" />
    <glyph glyph-name="brokenbar" unicode="&#xa6;" 
d="M288 576q0 -36 -36 -36t-36 36v323q0 37 36 38q36 0 36 -38v-323zM252 252q36 0 36 -36v-323q0 -36 -36 -37q-36 0 -36 37v323q0 36 36 36z" />
    <glyph glyph-name="section" unicode="&#xa7;" 
d="M368 729q38 -38 13 -64q-25 -25 -64 14q-41 40 -99 41h-1h-1q-60 0 -102 -42q-43 -42 -43 -102t43 -101q42 -42 102 -42q89 0 153 -64q63 -64 64 -153q0 -56 -28 -104q-26 -47 -69 -76q43 -29 69 -76q27 -47 28 -104q0 -90 -64 -152q-64 -63 -153 -63q-90 0 -153 62
q-39 39 -12 65q25 25 63 -14q42 -40 101 -42h1q60 0 101 43q42 42 42 101q0 61 -42 102q-42 42 -101 42q-90 0 -153 63q-63 62 -63 153q0 57 26 103q26 48 71 77q-44 30 -71 77q-26 47 -26 103q0 89 62 153q63 63 153 63h1q90 -1 152 -63zM216 359q-60 0 -102 -42
q-43 -42 -43 -101q0 -60 43 -102q42 -43 102 -43t101 43q42 42 42 102t-42 101q-41 42 -101 42z" />
    <glyph glyph-name="dieresis" unicode="&#xa8;" 
d="M180 937q36 0 36 -38q0 -35 -36 -35q-35 0 -35 35q0 38 35 38zM396 937q37 0 37 -38q0 -35 -37 -35q-36 0 -37 35q1 38 37 38z" />
    <glyph glyph-name="copyright" unicode="&#xa9;" 
d="M360 0h-1h-65h-78q-87 0 -150 61q-62 61 -66 147v3v5v94v158v108v5v4q4 86 66 146q62 61 149 61h1h143q90 0 154 -63q63 -63 63 -153v-36v-288v-36q0 -89 -63 -153q-64 -63 -153 -63zM359 720h-143q-60 0 -102 -42q-43 -42 -43 -102v-53v-48v-259q0 -60 43 -102
q42 -43 102 -43h36h107q60 0 103 43q42 42 42 102v36v288v36q0 60 -42 102q-43 42 -103 42zM293 648q70 0 118 -80q12 -17 12 -30q0 -17 -17 -29q-30 -23 -46 8q-28 60 -67 59q-37 0 -64 -53q-26 -54 -26 -127q0 -74 26 -127t64 -53q39 0 67 59q12 29 44 8q32 -22 7 -59
q-48 -79 -118 -79q-66 0 -114 73q-47 74 -47 178t47 178q48 74 114 74z" />
    <glyph glyph-name="ordfeminine" unicode="&#xaa;" 
d="M252 720q61 0 107 -29v11q0 37 -20 64q-21 26 -51 26h-143q-36 0 -37 36q0 36 37 36h143q56 0 97 -42t46 -102h2v-18v-126v-107q0 -36 -37 -36q-29 0 -36 28q-48 -28 -108 -28q-75 0 -128 42t-53 101q0 60 53 102t128 42zM252 648q-45 0 -76 -21t-31 -51q0 -29 31 -51
q31 -21 76 -21t76 21t31 51q0 29 -31 51q-31 21 -76 21z" />
    <glyph glyph-name="guillemotleft" unicode="&#xab;" 
d="M235 15l-152 152q-13 13 -13 25q0 13 13 26q51 51 152 153q13 12 26 12t25 -12q13 -14 13 -26q0 -13 -13 -26l-127 -127l127 -127q25 -26 0 -50q-13 -13 -25 -13q-13 0 -26 13zM439 15q-38 38 -153 152q-13 13 -13 25q0 13 13 26q52 51 153 153q13 12 25 12q14 0 26 -12
q13 -14 13 -26q0 -13 -13 -26l-127 -127q31 -32 127 -127q24 -26 0 -50q-13 -13 -25 -13h-2q-12 0 -24 13z" />
    <glyph glyph-name="logicalnot" unicode="&#xac;" 
d="M36 433h433q35 0 35 -37v-216q0 -35 -35 -35q-36 0 -36 35v179h-397q-36 0 -36 37t36 37z" />
    <glyph glyph-name="registered" unicode="&#xae;" 
d="M359 720h-143q-60 0 -102 -42q-43 -42 -43 -102v-53v-48v-259q0 -60 43 -102q42 -43 102 -43h36h107q60 0 103 43q42 42 42 102v360q0 60 -42 102q-43 42 -103 42zM360 0h-1h-65h-78q-87 0 -150 61q-62 61 -66 147v3v156v80v134v4q4 86 66 146q62 61 149 61h1h143
q90 0 154 -63q63 -63 63 -153v-360q0 -89 -63 -153q-64 -63 -153 -63zM216 414h72q29 0 51 22q21 21 20 49q0 30 -20 52q-21 21 -51 22h-72v-145zM216 198q0 -36 -36 -36q-35 0 -35 36v124v272q0 36 35 36h108q60 0 102 -42q43 -42 43 -103q0 -87 -79 -127q23 -47 69 -139
q17 -31 -16 -48q-32 -15 -48 17q-26 51 -78 154h-65v-144z" />
    <glyph glyph-name="macron" unicode="&#xaf;" 
d="M36 1008h504q36 0 36 -35q0 -36 -36 -36h-504q-36 0 -36 36q0 35 36 35z" />
    <glyph glyph-name="degree" unicode="&#xb0;" 
d="M288 864q60 0 102 -42q43 -43 43 -102q0 -60 -43 -102q-42 -42 -102 -42t-101 42q-42 42 -42 102t42 102q41 42 101 42zM288 792q-30 0 -51 -21t-21 -51q0 -29 21 -51q21 -21 51 -21q29 0 51 21q21 21 20 51q0 30 -20 51q-22 21 -51 21z" />
    <glyph glyph-name="plusminus" unicode="&#xb1;" 
d="M36 504h180v180q0 36 36 36t36 -36v-180h181q35 0 35 -35q0 -36 -35 -36h-181v-181q0 -36 -36 -36t-36 36v181h-180q-36 0 -36 36q0 35 36 35zM36 71q-36 0 -36 37q0 36 36 37h162h271q35 0 35 -37t-35 -37h-217h-216z" />
    <glyph glyph-name="twosuperior" unicode="&#xb2;" 
d="M252 576q-45 0 -76 -21t-31 -51h251q37 0 37 -35q0 -36 -37 -36h-288q-37 0 -37 36v35q0 60 53 101q53 43 128 43q45 0 76 21t31 51t-31 51t-76 21t-76 -21t-31 -51q0 -36 -37 -36t-37 36l1 1v1q0 59 53 100q53 42 127 42t127 -42q54 -43 54 -102q0 -60 -54 -102
q-53 -42 -127 -42z" />
    <glyph glyph-name="threesuperior" unicode="&#xb3;" 
d="M252 648q-36 0 -36 36t36 36q45 0 76 21t31 51h-251q-37 0 -37 36t37 36h288q37 0 37 -36v-36q0 -65 -62 -108q60 -42 62 -107v-1v-1q-2 -60 -55 -101t-126 -41q-74 0 -127 41q-53 42 -53 101q-1 0 -1 1q0 36 37 36q36 0 37 -36q0 -29 31 -51q31 -21 76 -21t76 21t31 51
q0 29 -31 51q-31 21 -76 21z" />
    <glyph glyph-name="acute" unicode="&#xb4;" 
d="M245 909q14 12 55 45q13 16 36 30q27 16 52 18h4q22 0 30 -13q2 -5 2 -10q0 -11 -9 -25q-14 -21 -41 -37q-22 -14 -43 -17l-66 -24q-19 -11 -30 -11q-10 0 -13 8q-3 4 -3 8q0 13 26 28z" />
    <glyph glyph-name="mu" unicode="&#xb5;" 
d="M504 469v-253v-108q0 -37 36 -37t36 -35q0 -36 -36 -36h-1q-70 0 -98 64q-62 -64 -153 -64q-83 0 -143 55v-235q0 -35 -37 -35t-37 35v75v321v75v178q0 35 37 35q36 0 37 -35v-253q0 -60 42 -102q42 -43 101 -43q60 0 102 43q43 42 43 102v253q0 35 36 35q35 0 35 -35z
" />
    <glyph glyph-name="paragraph" unicode="&#xb6;" 
d="M252 434q-106 8 -180 58q-72 51 -72 120q0 74 84 127q85 53 204 53h181h71q36 0 36 -36t-36 -36h-36v-900q0 -35 -35 -35q-36 0 -36 35v900h-109v-900q0 -35 -36 -35t-36 35v614z" />
    <glyph glyph-name="periodcentered" unicode="&#xb7;" 
d="M288 504q29 0 51 -22q21 -21 20 -49q0 -30 -20 -52q-21 -21 -51 -22q-30 0 -51 22q-21 21 -21 52q0 28 21 49q21 22 51 22z" />
    <glyph glyph-name="cedilla" unicode="&#xb8;" 
d="M324 -20q25 -30 26 -70v-4q-2 -43 -33 -73q-31 -31 -76 -31t-76 31q-13 14 -13 26q0 13 13 26q25 25 51 0t51 0t2 50q-17 11 -17 30v71q0 35 36 35t36 -35v-56z" />
    <glyph glyph-name="onesuperior" unicode="&#xb9;" 
d="M288 828v-16v-343q0 -36 -36 -36t-36 36v272q-14 -14 -56 -54q-24 -26 -51 0q-13 12 -12 24q0 13 12 26q43 42 128 127l2 -2q7 2 13 2q36 0 36 -36z" />
    <glyph glyph-name="ordmasculine" unicode="&#xba;" 
d="M252 864q74 0 127 -63q54 -63 54 -153t-54 -153q-53 -62 -127 -62q-75 0 -128 62q-53 63 -53 153q0 89 53 153q53 63 128 63zM252 792q-45 0 -76 -42q-31 -43 -31 -102q0 -60 31 -102t76 -42t76 42q31 43 31 102t-31 102q-31 42 -76 42z" />
    <glyph glyph-name="guillemotright" unicode="&#xbb;" 
d="M337 371l153 -153q13 -13 13 -26t-13 -25q-51 -51 -153 -152q-13 -13 -25 -13h-1q-13 0 -25 13q-24 24 0 50q43 42 128 127q-32 31 -128 127q-13 13 -13 26t13 26q13 12 26 12q12 0 25 -12zM134 371q38 -39 152 -153q13 -13 13 -26t-13 -25l-152 -152q-13 -13 -26 -13h-2
q-12 0 -23 13q-25 24 0 50l127 127l-127 127q-13 13 -13 26t13 26q13 12 24 12q14 0 27 -12z" />
    <glyph glyph-name="onequarter" unicode="&#xbc;" 
d="M36 433h433q35 0 35 -37q0 -36 -35 -37h-433q-36 0 -36 37t36 37zM335 269q25 -26 0 -52q-47 -48 -142 -146h95v37q0 36 36 37q35 0 35 -37v-37h37q37 0 37 -35q0 -36 -37 -36h-37v-107q0 -36 -35 -37q-36 0 -36 37v107h-180q-8 0 -14 3q-6 2 -11 8q-6 5 -9 11
q-3 9 -3 14t3 14q4 8 8 12q67 68 202 205q12 14 25 13q12 1 26 -11zM348 899v-13v-346q0 -36 -36 -36t-36 36v272q-14 -14 -55 -54q-25 -25 -51 0q-13 13 -13 25q0 13 13 26q43 43 127 128l3 -3q6 3 12 3q36 -1 36 -38z" />
    <glyph glyph-name="onehalf" unicode="&#xbd;" 
d="M252 0q-45 0 -76 -21t-31 -50h251q37 0 37 -36t-37 -37h-288q-37 0 -37 37v14v22q0 60 53 100q53 42 128 42q45 0 76 22q31 21 31 52q0 28 -31 49t-76 22q-45 0 -76 -22q-31 -21 -31 -49q0 -36 -37 -37q-37 0 -37 37h1q0 60 53 101q53 42 127 42t127 -42q54 -43 54 -101
q0 -60 -54 -103q-53 -42 -127 -42zM288 899v-13v-346q0 -36 -36 -36t-36 36v272q-14 -14 -56 -54q-24 -25 -51 0q-12 13 -11 25v2q0 12 11 24l128 128q1 -1 2 -3q7 3 13 3q36 -1 36 -38zM36 433h433q35 0 35 -37q0 -36 -35 -37h-433q-36 0 -36 37t36 37z" />
    <glyph glyph-name="threequarters" unicode="&#xbe;" 
d="M335 269q25 -26 0 -52q-47 -48 -142 -146h95v37q0 36 36 37q35 0 35 -37v-37h37q37 0 37 -35q0 -36 -37 -36h-37v-107q0 -36 -35 -37q-36 0 -36 37v107h-180q-8 0 -14 3q-6 2 -11 8q-6 5 -9 11q-3 9 -3 14t3 14q4 8 8 12q67 68 202 205q12 14 25 13q12 1 26 -11zM252 720
q-36 0 -36 36t36 36q45 0 76 21t31 51h-251q-37 0 -37 35q0 37 37 38h288q37 0 37 -38v-35q0 -64 -62 -108q60 -42 62 -107v-1v-1q-2 -60 -55 -101q-53 -42 -126 -42q-74 0 -127 42t-53 101l-1 1q0 35 37 36q36 0 37 -36q0 -30 31 -50q31 -21 76 -22q45 0 76 22q31 21 31 50
t-31 51q-31 21 -76 21zM36 433h433q35 0 35 -37q0 -36 -35 -37h-433q-36 0 -36 37t36 37z" />
    <glyph glyph-name="questiondown" unicode="&#xbf;" 
d="M324 359q-30 0 -52 22q-21 21 -20 52q0 28 20 49q21 21 52 22q29 0 51 -22q21 -21 21 -49q0 -30 -21 -52q-22 -22 -51 -22zM288 -288h-72q-90 0 -153 63q-63 64 -63 154q0 88 63 151q62 64 153 65q30 0 51 20q21 21 21 51v36q0 36 36 36q35 0 35 -36v-36q0 -60 -42 -102
q-42 -43 -101 -43q-60 0 -102 -42q-43 -41 -43 -100q0 -60 43 -102q42 -42 102 -42h72q60 0 102 42q43 42 43 102q0 54 35 53q36 0 36 -53q0 -89 -64 -154q-62 -63 -152 -63z" />
    <glyph glyph-name="Agrave" unicode="&#xc0;" 
d="M288 792q88 0 150 -200t66 -484v-72q0 -36 -35 -36q-36 0 -36 36v72q-2 56 -3 108h-283q-3 -52 -2 -108v-72q0 -36 -37 -36t-37 36v72h1q2 283 65 484q63 200 151 200zM425 288q-15 188 -52 310t-85 122t-85 -122q-38 -122 -52 -310h274zM331 909q26 -15 26 -28
q0 -4 -2 -8q-5 -8 -14 -8q-13 0 -29 11l-66 24q-22 3 -44 17q-27 17 -42 37q-9 14 -9 25q0 6 4 10q7 13 29 13h4q25 -2 53 -18q21 -13 36 -30z" />
    <glyph glyph-name="Aacute" unicode="&#xc1;" 
d="M245 909q14 12 55 45q13 16 36 30q27 16 52 18h4q22 0 30 -13q2 -5 2 -10q0 -11 -9 -25q-14 -21 -41 -37q-22 -14 -43 -17l-66 -24q-19 -11 -30 -11q-10 0 -13 8q-3 4 -3 8q0 13 26 28zM425 288q-15 188 -52 310t-85 122t-85 -122q-38 -122 -52 -310h274zM288 792
q88 0 150 -200t66 -484v-72q0 -36 -35 -36q-36 0 -36 36v72q-2 56 -3 108h-283q-3 -52 -2 -108v-72q0 -36 -37 -36t-37 36v72h1q2 283 65 484q63 200 151 200z" />
    <glyph glyph-name="Acircumflex" unicode="&#xc2;" 
d="M288 792q88 0 150 -200t66 -484v-72q0 -36 -35 -36q-36 0 -36 36v72q-2 56 -3 108h-283q-3 -52 -2 -108v-72q0 -36 -37 -36t-37 36v72h1q2 283 65 484q63 200 151 200zM425 288q-15 188 -52 310t-85 122t-85 -122q-38 -122 -52 -310h274zM288 918l-76 -76
q-13 -13 -25 -13q-13 0 -27 13q-12 13 -12 24v2q0 13 12 25q34 34 103 101q13 13 25 13q13 0 25 -13q34 -34 102 -101q13 -13 13 -26t-13 -25q-25 -25 -51 0z" />
    <glyph glyph-name="Atilde" unicode="&#xc3;" 
d="M425 288q-15 188 -52 310t-85 122t-85 -122q-38 -122 -52 -310h274zM288 792q88 0 150 -200t66 -484v-72q0 -36 -35 -36q-36 0 -36 36v72q-2 56 -3 108h-283q-3 -52 -2 -108v-72q0 -36 -37 -36t-37 36v72h1q2 283 65 484q63 200 151 200zM208 911q-34 -12 -22 -45
q11 -34 -23 -46t-46 24q-6 18 -6 34q0 24 12 48q21 39 63 53q18 6 34 6q24 0 48 -11q40 -21 54 -63q11 -34 45 -22q34 11 24 45q-12 34 22 45q35 12 45 -22q7 -18 7 -35q-1 -24 -12 -48q-21 -40 -62 -54q-18 -6 -36 -6q-24 0 -47 12q-40 21 -54 63q-12 33 -46 22z" />
    <glyph glyph-name="Adieresis" unicode="&#xc4;" 
d="M288 792q88 0 150 -200t66 -484v-72q0 -36 -35 -36q-36 0 -36 36v72q-2 56 -3 108h-283q-3 -52 -2 -108v-72q0 -36 -37 -36t-37 36v72h1q2 283 65 484q63 200 151 200zM425 288q-15 188 -52 310t-85 122t-85 -122q-38 -122 -52 -310h274zM396 937q37 0 37 -38
q0 -35 -37 -35q-36 0 -37 35q1 38 37 38zM180 937q36 0 36 -38q0 -35 -36 -35q-35 0 -35 35q0 38 35 38z" />
    <glyph glyph-name="Aring" unicode="&#xc5;" 
d="M342 771q68 -57 114 -241t48 -422v-72q0 -36 -35 -36q-36 0 -36 36v72q-2 56 -3 108h-283q-3 -52 -2 -108v-72q0 -36 -37 -36t-37 36v72h1q2 238 48 422t114 241q-55 30 -54 93q0 44 32 76q31 32 76 33q44 0 76 -33q31 -32 32 -76q0 -63 -54 -93zM288 899q-36 0 -36 -35
q0 -36 36 -36t36 36q0 35 -36 35zM425 288q-15 188 -52 310t-85 122t-85 -122q-38 -122 -52 -310h274z" />
    <glyph glyph-name="AE" unicode="&#xc6;" 
d="M216 792h72h181q35 0 35 -36t-35 -36h-181v-287h108q37 0 37 -37q0 -36 -37 -37h-108v-288h181q35 0 35 -35q0 -36 -35 -36h-100h-117q-36 0 -36 36v323h-125q-17 -147 -20 -321v-1v-1q0 -36 -35 -36q-36 0 -36 36v1q4 312 65 531q62 220 148 224h1h2zM216 720
q-35 0 -66 -78q-30 -79 -49 -209h115v287z" />
    <glyph glyph-name="Ccedilla" unicode="&#xc7;" 
d="M324 3v-23q26 -32 26 -74q-2 -43 -33 -73q-31 -31 -76 -31t-76 31q-25 26 0 52q25 25 51 0t51 0t2 50q-17 11 -17 30v38q-75 13 -126 70t-54 135v1q-1 1 -1 2v5v51v84v225v5q0 1 1 1v3q3 86 66 146q62 61 150 61q90 0 152 -63q63 -63 64 -153v-36q0 -36 -35 -36
q-36 0 -36 36v36q0 60 -43 102q-42 42 -102 42t-101 -42q-42 -42 -42 -102v-360q0 -60 42 -102q42 -43 101 -43q60 0 102 43q43 42 43 102v36q0 36 36 36q35 0 35 -36v-36q0 -80 -52 -140t-128 -73z" />
    <glyph glyph-name="Egrave" unicode="&#xc8;" 
d="M469 792q35 0 35 -36t-35 -36h-324v-216h214h37q37 0 37 -35q0 -36 -37 -36h-37h-214v-362h324q35 0 35 -35q0 -36 -35 -36h-165h-196q-37 0 -37 36v74v323v71v75v177q0 36 37 36h361zM331 909q26 -15 26 -28q0 -4 -2 -8q-5 -8 -14 -8q-13 0 -29 11l-66 24q-22 3 -44 17
q-27 17 -42 37q-9 14 -9 25q0 6 4 10q7 13 29 13h4q25 -2 53 -18q21 -13 36 -30z" />
    <glyph glyph-name="Eacute" unicode="&#xc9;" 
d="M469 792q35 0 35 -36t-35 -36h-324v-216h214h37q37 0 37 -35q0 -36 -37 -36h-37h-214v-362h324q35 0 35 -35q0 -36 -35 -36h-165h-196q-37 0 -37 36v74v323v71v75v177q0 36 37 36h361zM245 909q14 12 55 45q13 16 36 30q27 16 52 18h4q22 0 30 -13q2 -5 2 -10
q0 -11 -9 -25q-14 -21 -41 -37q-22 -14 -43 -17l-66 -24q-19 -11 -30 -11q-10 0 -13 8q-3 4 -3 8q0 13 26 28z" />
    <glyph glyph-name="Ecircumflex" unicode="&#xca;" 
d="M469 792q35 0 35 -36t-35 -36h-324v-216h214h37q37 0 37 -35q0 -36 -37 -36h-37h-214v-362h324q35 0 35 -35q0 -36 -35 -36h-165h-196q-37 0 -37 36v74v323v71v75v177q0 36 37 36h361zM288 918l-76 -76q-13 -13 -25 -13q-13 0 -27 13q-12 13 -12 24v2q0 13 12 25
q34 34 103 101q13 13 25 13q13 0 25 -13q34 -34 102 -101q13 -13 13 -26t-13 -25q-25 -25 -51 0z" />
    <glyph glyph-name="Edieresis" unicode="&#xcb;" 
d="M469 792q35 0 35 -36t-35 -36h-324v-216h214h37q37 0 37 -35q0 -36 -37 -36h-37h-214v-362h324q35 0 35 -35q0 -36 -35 -36h-165h-196q-37 0 -37 36v74v323v71v75v177q0 36 37 36h361zM180 937q36 0 36 -38q0 -35 -36 -35q-35 0 -35 35q0 38 35 38zM396 937q37 0 37 -38
q0 -35 -37 -35q-36 0 -37 35q1 38 37 38z" />
    <glyph glyph-name="Igrave" unicode="&#xcc;" 
d="M180 720q-35 0 -35 36t35 36h144q35 0 35 -36t-35 -36h-36v-649h36q35 0 35 -35q0 -36 -35 -36h-65h-79q-35 0 -35 36q0 35 35 35h36v649h-36zM331 909q26 -15 26 -28q0 -4 -2 -8q-5 -8 -14 -8q-13 0 -29 11l-66 24q-22 3 -44 17q-27 17 -42 37q-9 14 -9 25q0 6 4 10
q7 13 29 13h4q25 -2 53 -18q21 -13 36 -30z" />
    <glyph glyph-name="Iacute" unicode="&#xcd;" 
d="M180 720q-35 0 -35 36t35 36h144q35 0 35 -36t-35 -36h-36v-649h36q35 0 35 -35q0 -36 -35 -36h-65h-79q-35 0 -35 36q0 35 35 35h36v649h-36zM245 909q14 12 55 45q13 16 36 30q27 16 52 18h4q22 0 30 -13q2 -5 2 -10q0 -11 -9 -25q-14 -21 -41 -37q-22 -14 -43 -17
l-66 -24q-19 -11 -30 -11q-10 0 -13 8q-3 4 -3 8q0 13 26 28z" />
    <glyph glyph-name="Icircumflex" unicode="&#xce;" 
d="M180 720q-35 0 -35 36t35 36h144q35 0 35 -36t-35 -36h-36v-649h36q35 0 35 -35q0 -36 -35 -36h-65h-79q-35 0 -35 36q0 35 35 35h36v649h-36zM252 918q-20 -19 -76 -76q-13 -13 -26 -13t-25 13q-13 13 -13 25q0 13 13 26q34 34 102 101q13 13 25 13q13 0 25 -13
q34 -34 102 -101q13 -13 13 -26v-2q0 -12 -13 -23q-25 -25 -51 0z" />
    <glyph glyph-name="Idieresis" unicode="&#xcf;" 
d="M180 720q-35 0 -35 36t35 36h144q35 0 35 -36t-35 -36h-36v-649h36q35 0 35 -35q0 -36 -35 -36h-65h-79q-35 0 -35 36q0 35 35 35h36v649h-36zM145 937q35 0 35 -38q0 -35 -35 -35q-36 0 -37 35q1 38 37 38zM359 937q36 0 37 -38q0 -35 -37 -35q-35 0 -35 35q0 38 35 38z
" />
    <glyph glyph-name="Eth" unicode="&#xd0;" 
d="M216 433q36 0 36 -37q0 -36 -36 -37h-71v-288h143q60 0 102 96q43 95 43 229q0 135 -43 229q-42 95 -102 95h-143v-287h71zM36 359q-36 0 -36 37t36 37h35v323q0 36 37 36h180q90 0 152 -116q63 -116 64 -280q0 -163 -64 -280q-62 -116 -152 -116h-82h-98q-37 0 -37 36
v323h-35z" />
    <glyph glyph-name="Ntilde" unicode="&#xd1;" 
d="M469 792q35 0 35 -36v-676v-44q0 -36 -35 -36q-36 0 -36 36v26l-288 528v-554q0 -36 -37 -36t-37 36v323v63v334q0 36 37 36q36 0 37 -36v-16q71 -132 288 -528v544q0 36 36 36zM208 911q-34 -12 -22 -45q11 -34 -23 -46t-46 24q-6 18 -6 34q0 24 12 48q21 39 63 53
q18 6 34 6q24 0 48 -11q40 -21 54 -63q11 -34 45 -22q34 11 24 45q-12 34 22 45q35 12 45 -22q7 -18 7 -35q-1 -24 -12 -48q-21 -40 -62 -54q-18 -6 -36 -6q-24 0 -47 12q-40 21 -54 63q-12 33 -46 22z" />
    <glyph glyph-name="Ograve" unicode="&#xd2;" 
d="M288 0q-88 0 -150 61t-66 147v1q-1 1 -1 2v5v51v84v225v5q0 1 1 1v3q3 86 66 146q62 61 150 61q90 0 152 -63q63 -63 64 -153v-36v-288v-36q0 -90 -64 -153q-62 -63 -152 -63zM433 252v288v36q0 60 -43 102q-42 42 -102 42t-101 -42q-42 -42 -42 -102v-360q0 -60 42 -102
q42 -43 101 -43q60 0 102 43q43 42 43 102v36zM331 909q26 -15 26 -28q0 -4 -2 -8q-5 -8 -14 -8q-13 0 -29 11l-66 24q-22 3 -44 17q-27 17 -42 37q-9 14 -9 25q0 6 4 10q7 13 29 13h4q25 -2 53 -18q21 -13 36 -30z" />
    <glyph glyph-name="Oacute" unicode="&#xd3;" 
d="M433 252v288v36q0 60 -43 102q-42 42 -102 42t-101 -42q-42 -42 -42 -102v-360q0 -60 42 -102q42 -43 101 -43q60 0 102 43q43 42 43 102v36zM288 0q-88 0 -150 61t-66 147v1q-1 1 -1 2v5v51v84v225v5q0 1 1 1v3q3 86 66 146q62 61 150 61q90 0 152 -63q63 -63 64 -153
v-36v-288v-36q0 -90 -64 -153q-62 -63 -152 -63zM245 909q14 12 55 45q13 16 36 30q27 16 52 18h4q22 0 30 -13q2 -5 2 -10q0 -11 -9 -25q-14 -21 -41 -37q-22 -14 -43 -17l-66 -24q-19 -11 -30 -11q-10 0 -13 8q-3 4 -3 8q0 13 26 28z" />
    <glyph glyph-name="Ocircumflex" unicode="&#xd4;" 
d="M288 0q-88 0 -150 61t-66 147v1q-1 1 -1 2v5v51v84v225v5q0 1 1 1v3q3 86 66 146q62 61 150 61q90 0 152 -63q63 -63 64 -153v-36v-288v-36q0 -90 -64 -153q-62 -63 -152 -63zM433 252v288v36q0 60 -43 102q-42 42 -102 42t-101 -42q-42 -42 -42 -102v-360q0 -60 42 -102
q42 -43 101 -43q60 0 102 43q43 42 43 102v36zM288 918l-76 -76q-13 -13 -25 -13q-13 0 -27 13q-12 13 -12 24v2q0 13 12 25q34 34 103 101q13 13 25 13q13 0 25 -13q34 -34 102 -101q13 -13 13 -26t-13 -25q-25 -25 -51 0z" />
    <glyph glyph-name="Otilde" unicode="&#xd5;" 
d="M433 252v288v36q0 60 -43 102q-42 42 -102 42t-101 -42q-42 -42 -42 -102v-360q0 -60 42 -102q42 -43 101 -43q60 0 102 43q43 42 43 102v36zM288 0q-88 0 -150 61t-66 147v1q-1 1 -1 2v5v51v84v225v5q0 1 1 1v3q3 86 66 146q62 61 150 61q90 0 152 -63q63 -63 64 -153
v-36v-288v-36q0 -90 -64 -153q-62 -63 -152 -63zM208 911q-34 -12 -22 -45q11 -34 -23 -46t-46 24q-6 18 -6 34q0 24 12 48q21 39 63 53q18 6 34 6q24 0 48 -11q40 -21 54 -63q11 -34 45 -22q34 11 24 45q-12 34 22 45q35 12 45 -22q7 -18 7 -35q-1 -24 -12 -48
q-21 -40 -62 -54q-18 -6 -36 -6q-24 0 -47 12q-40 21 -54 63q-12 33 -46 22z" />
    <glyph glyph-name="Odieresis" unicode="&#xd6;" 
d="M288 0q-88 0 -150 61t-66 147v1q-1 1 -1 2v5v51v84v225v5q0 1 1 1v3q3 86 66 146q62 61 150 61q90 0 152 -63q63 -63 64 -153v-36v-288v-36q0 -90 -64 -153q-62 -63 -152 -63zM433 252v288v36q0 60 -43 102q-42 42 -102 42t-101 -42q-42 -42 -42 -102v-360q0 -60 42 -102
q42 -43 101 -43q60 0 102 43q43 42 43 102v36zM180 937q36 0 36 -38q0 -35 -36 -35q-35 0 -35 35q0 38 35 38zM396 937q37 0 37 -38q0 -35 -37 -35q-36 0 -37 35q1 38 37 38z" />
    <glyph glyph-name="multiply" unicode="&#xd7;" 
d="M212 523q19 -20 76 -77q20 20 76 77q13 13 26 13t25 -13q13 -13 13 -25q0 -13 -13 -25q-25 -25 -76 -77q20 -19 76 -76q25 -26 0 -50q-13 -14 -25 -14q-13 0 -26 14q-25 24 -76 75q-19 -19 -76 -75q-25 -26 -52 0q-12 12 -12 24q-1 13 12 26q26 24 77 76l-77 77
q-12 12 -12 24q0 13 12 26q27 25 52 0z" />
    <glyph glyph-name="Oslash" unicode="&#xd8;" 
d="M514 766q-10 -20 -40 -79q30 -50 30 -111v-36v-288v-36q0 -90 -64 -153q-62 -63 -152 -63q-76 0 -135 47q-9 -18 -26 -53q-11 -21 -28 -21q-9 0 -21 5q-21 11 -20 28v3q0 9 4 17q14 26 41 79q-28 47 -31 103v1q-1 1 -1 2v5v360v5q0 1 1 1v3q3 86 66 146q62 61 150 61
q75 0 134 -47q10 18 27 53q11 21 29 21h2q8 0 17 -5q21 -11 22 -28q0 -9 -5 -20zM430 600q-60 -121 -242 -487q42 -42 100 -42q60 0 102 43q43 42 43 102v36v288v36q0 13 -3 24zM146 192q62 122 244 487q-42 41 -102 41t-101 -42q-42 -42 -42 -102v-360q0 -13 1 -24z" />
    <glyph glyph-name="Ugrave" unicode="&#xd9;" 
d="M288 0q-89 0 -153 63q-63 62 -64 153v96v134v310q0 36 37 36q36 0 37 -36v-540q0 -60 42 -102q42 -43 101 -43q60 0 102 43q43 42 43 102v540q0 36 36 36q35 0 35 -36v-540q0 -90 -64 -153q-62 -63 -152 -63zM331 909q26 -15 26 -28q0 -4 -2 -8q-5 -8 -14 -8
q-13 0 -29 11l-66 24q-22 3 -44 17q-27 17 -42 37q-9 14 -9 25q0 6 4 10q7 13 29 13h4q25 -2 53 -18q21 -13 36 -30z" />
    <glyph glyph-name="Uacute" unicode="&#xda;" 
d="M288 0q-89 0 -153 63q-63 62 -64 153v96v134v310q0 36 37 36q36 0 37 -36v-540q0 -60 42 -102q42 -43 101 -43q60 0 102 43q43 42 43 102v540q0 36 36 36q35 0 35 -36v-540q0 -90 -64 -153q-62 -63 -152 -63zM245 909q14 12 55 45q13 16 36 30q27 16 52 18h4q22 0 30 -13
q2 -5 2 -10q0 -11 -9 -25q-14 -21 -41 -37q-22 -14 -43 -17l-66 -24q-19 -11 -30 -11q-10 0 -13 8q-3 4 -3 8q0 13 26 28z" />
    <glyph glyph-name="Ucircumflex" unicode="&#xdb;" 
d="M288 0q-89 0 -153 63q-63 62 -64 153v96v134v310q0 36 37 36q36 0 37 -36v-540q0 -60 42 -102q42 -43 101 -43q60 0 102 43q43 42 43 102v540q0 36 36 36q35 0 35 -36v-540q0 -90 -64 -153q-62 -63 -152 -63zM288 918l-76 -76q-13 -13 -25 -13q-13 0 -27 13
q-12 13 -12 24v2q0 13 12 25q34 34 103 101q13 13 25 13q13 0 25 -13q34 -34 102 -101q13 -13 13 -26t-13 -25q-25 -25 -51 0z" />
    <glyph glyph-name="Udieresis" unicode="&#xdc;" 
d="M288 0q-89 0 -153 63q-63 62 -64 153v96v134v310q0 36 37 36q36 0 37 -36v-540q0 -60 42 -102q42 -43 101 -43q60 0 102 43q43 42 43 102v540q0 36 36 36q35 0 35 -36v-540q0 -90 -64 -153q-62 -63 -152 -63zM180 937q36 0 36 -38q0 -35 -36 -35q-35 0 -35 35q0 38 35 38
zM396 937q37 0 37 -38q0 -35 -37 -35q-36 0 -37 35q1 38 37 38z" />
    <glyph glyph-name="Yacute" unicode="&#xdd;" 
d="M324 316v-280q0 -36 -36 -36t-36 36v280q-44 106 -177 426q-4 10 -4 19q0 20 24 29q33 13 47 -19q49 -118 146 -354q37 89 147 354q10 23 29 23q8 0 17 -4q23 -10 24 -30q0 -8 -4 -18zM245 909q14 12 55 45q13 16 36 30q27 16 52 18h4q22 0 30 -13q2 -5 2 -10
q0 -11 -9 -25q-14 -21 -41 -37q-22 -14 -43 -17l-66 -24q-19 -11 -30 -11q-10 0 -13 8q-3 4 -3 8q0 13 26 28z" />
    <glyph glyph-name="Thorn" unicode="&#xde;" 
d="M145 36q0 -36 -37 -36t-37 36v144v62v334v54v126q0 36 37 36q36 0 37 -36v-144h107h36q90 0 152 -63q63 -63 64 -153q0 -87 -61 -150q-61 -62 -146 -66h-2h-2h-5h-143v-144zM145 540v-288h143q60 0 102 42q43 42 43 102q0 61 -43 102q-42 42 -102 42h-36h-107z" />
    <glyph glyph-name="germandbls" unicode="&#xdf;" 
d="M504 180q0 -74 -53 -127q-52 -53 -125 -53h-1h-1q-89 0 -151 62q-37 39 -12 65q25 25 64 -13q40 -41 99 -43q44 0 76 33q32 32 33 76v108q0 44 -33 76q-32 31 -76 32q-45 0 -76 32q-32 31 -32 76t32 77q5 4 19 17q21 21 21 50t-21 51q-21 21 -51 21q-29 0 -51 -21
q-21 -21 -20 -51v-36v-216v-360q0 -36 -37 -36t-37 36v155v33v172v216v36q0 59 43 102q42 42 102 42t101 -42q42 -43 42 -102t-39 -100q-6 -4 -22 -18l1 -1q-11 -10 -11 -25q0 -35 36 -35h1q73 -1 126 -54t53 -127v-108z" />
    <glyph glyph-name="agrave" unicode="&#xe0;" 
d="M504 289v-1v-36v-72v-72v-72q0 -36 -35 -36q-36 0 -36 36v10q-62 -46 -145 -46q-89 0 -153 53q-63 53 -64 127q0 74 64 127t153 52q80 0 142 -43q-11 49 -50 82q-40 34 -92 35h-108q-35 0 -35 36q0 35 35 35h108q89 0 152 -63q64 -63 64 -152zM288 288q-60 0 -101 -31
q-42 -32 -42 -77q0 -44 42 -76t101 -33q60 0 102 33q43 32 43 76q0 45 -43 77q-42 31 -102 31zM367 621q25 -16 26 -28q0 -4 -2 -7q-4 -9 -15 -9t-28 11q-22 8 -67 25q-22 4 -43 16q-27 16 -42 37q-8 14 -8 24q0 6 2 12q7 12 30 12h4q25 -2 53 -18q21 -13 35 -29
q18 -16 55 -46z" />
    <glyph glyph-name="aacute" unicode="&#xe1;" 
d="M504 289v-1v-36v-72v-72v-72q0 -36 -35 -36q-36 0 -36 36v10q-62 -46 -145 -46q-89 0 -153 53q-63 53 -64 127q0 74 64 127t153 52q80 0 142 -43q-11 49 -50 82q-40 34 -92 35h-108q-35 0 -35 36q0 35 35 35h108q89 0 152 -63q64 -63 64 -152zM288 288q-60 0 -101 -31
q-42 -32 -42 -77q0 -44 42 -76t101 -33q60 0 102 33q43 32 43 76q0 45 -43 77q-42 31 -102 31zM209 621q14 12 55 46q13 17 36 29q27 16 53 18h3q21 0 30 -12q3 -5 3 -11q0 -11 -10 -25q-14 -21 -41 -37q-21 -12 -44 -16q-21 -9 -65 -25q-18 -11 -30 -11q-10 0 -13 9
q-2 3 -2 8q0 12 25 27z" />
    <glyph glyph-name="acircumflex" unicode="&#xe2;" 
d="M288 288q-60 0 -101 -31q-42 -32 -42 -77q0 -44 42 -76t101 -33q60 0 102 33q43 32 43 76q0 45 -43 77q-42 31 -102 31zM504 289v-1v-36v-72v-72v-72q0 -36 -35 -36q-36 0 -36 36v10q-62 -46 -145 -46q-89 0 -153 53q-63 53 -64 127q0 74 64 127t153 52q80 0 142 -43
q-11 49 -50 82q-40 34 -92 35h-108q-35 0 -35 36q0 35 35 35h108q89 0 152 -63q64 -63 64 -152zM288 648q-19 -20 -76 -77q-13 -13 -25 -12q-13 0 -27 12q-12 13 -12 26t12 25l103 103q13 13 25 12q13 0 25 -12q34 -34 102 -103q13 -13 13 -25q0 -13 -13 -26q-25 -25 -51 0
q-25 25 -76 77z" />
    <glyph glyph-name="atilde" unicode="&#xe3;" 
d="M288 288q-60 0 -101 -31q-42 -32 -42 -77q0 -44 42 -76t101 -33q60 0 102 33q43 32 43 76q0 45 -43 77q-42 31 -102 31zM504 289v-1v-36v-72v-72v-72q0 -36 -35 -36q-36 0 -36 36v10q-62 -46 -145 -46q-89 0 -153 53q-63 53 -64 127q0 74 64 127t153 52q80 0 142 -43
q-11 49 -50 82q-40 34 -92 35h-108q-35 0 -35 36q0 35 35 35h108q89 0 152 -63q64 -63 64 -152zM208 660q-34 -12 -22 -46q11 -35 -23 -46q-34 -12 -46 23v1v1q-6 17 -6 33q0 24 12 48q21 40 63 54q18 6 34 5q24 0 48 -11q40 -20 54 -63q11 -34 45 -22t24 46q-12 34 22 45
q35 11 45 -23q7 -18 7 -35q-1 -24 -12 -48q-21 -40 -62 -54q-18 -6 -36 -6q-24 0 -47 12q-40 20 -54 63q-12 33 -46 23z" />
    <glyph glyph-name="adieresis" unicode="&#xe4;" 
d="M288 288q-60 0 -101 -31q-42 -32 -42 -77q0 -44 42 -76t101 -33q60 0 102 33q43 32 43 76q0 45 -43 77q-42 31 -102 31zM504 289v-1v-36v-72v-72v-72q0 -36 -35 -36q-36 0 -36 36v10q-62 -46 -145 -46q-89 0 -153 53q-63 53 -64 127q0 74 64 127t153 52q80 0 142 -43
q-11 49 -50 82q-40 34 -92 35h-108q-35 0 -35 36q0 35 35 35h108q89 0 152 -63q64 -63 64 -152zM180 684q36 0 36 -36t-36 -36q-35 0 -35 36t35 36zM396 684q37 0 37 -36t-37 -36q-36 0 -37 36q1 36 37 36z" />
    <glyph glyph-name="aring" unicode="&#xe5;" 
d="M288 792q44 0 76 -32q31 -31 32 -76q0 -44 -32 -77q-32 -31 -76 -31q-45 0 -76 31q-32 32 -32 77t32 76q31 32 76 32zM288 720q-36 0 -36 -36q0 -35 36 -36q36 0 36 36t-36 36zM504 289v-1v-36v-72v-72v-72q0 -36 -35 -36q-36 0 -36 36v10q-62 -46 -145 -46
q-89 0 -153 53q-63 53 -64 127q0 74 64 127t153 52q80 0 142 -43q-11 49 -50 82q-40 34 -92 35h-108q-35 0 -35 36q0 35 35 35h108q89 0 152 -63q64 -63 64 -152zM288 288q-60 0 -101 -31q-42 -32 -42 -77q0 -44 42 -76t101 -33q60 0 102 33q43 32 43 76q0 45 -43 77
q-42 31 -102 31z" />
    <glyph glyph-name="ae" unicode="&#xe6;" 
d="M162 359q42 0 79 -22q-12 42 -32 69q-21 26 -47 27h-54q-37 0 -37 36q0 35 37 35h54q76 0 126 -94q49 94 126 94q62 0 107 -63q45 -62 53 -153h2v-36q0 -36 -36 -36h-215q7 -61 31 -102q23 -41 57 -42q13 0 20 2q46 7 79 40q12 14 28 14q36 0 36 -36q0 -18 -14 -29
q-59 -59 -139 -63h-5h-4h-1h-2h-1q-48 2 -86 43v-7q0 -36 -36 -36q-31 0 -35 31q-42 -31 -91 -31q-67 0 -115 53q-47 53 -47 127t47 127q48 52 115 52zM503 288q-7 62 -32 103q-24 42 -57 42q-32 0 -58 -42q-24 -41 -31 -103h178zM162 288q-37 0 -64 -31q-26 -32 -27 -77
q0 -44 27 -76t64 -33q37 0 64 33q26 32 26 76q0 45 -26 77q-27 31 -64 31z" />
    <glyph glyph-name="ccedilla" unicode="&#xe7;" 
d="M324 -20q26 -32 26 -74q-2 -43 -33 -73q-31 -31 -76 -31t-76 31q-25 26 0 52q25 25 51 0t51 0t2 50q-17 11 -17 30v38q-76 13 -128 73q-53 60 -53 140v17v21v34q0 90 64 152q64 63 153 64q91 0 152 -64q15 -11 15 -29q0 -36 -36 -36q-18 0 -28 16l-1 -1q-42 43 -102 43
t-101 -43q-42 -42 -42 -102v-72q0 -60 42 -102q42 -43 101 -43q60 0 102 43h1q11 14 27 14q36 0 36 -36q0 -18 -14 -29q-49 -49 -116 -60v-23z" />
    <glyph glyph-name="egrave" unicode="&#xe8;" 
d="M71 216v13v22v37q0 90 64 152q64 63 153 64q89 0 152 -63t64 -152v-1v-7q-113 -47 -339 -139q42 -70 123 -71q60 0 102 43h1q11 14 27 14q36 0 36 -36q0 -18 -14 -29q-62 -63 -152 -63q-89 0 -153 63t-64 153zM426 328q-13 45 -51 74q-38 30 -87 31q-60 0 -101 -43
q-42 -42 -42 -102v-72v-3v-2q93 39 281 117zM367 621q25 -16 26 -28q0 -4 -2 -7q-4 -9 -15 -9t-28 11q-22 8 -67 25q-22 4 -43 16q-27 16 -42 37q-8 14 -8 24q0 6 2 12q7 12 30 12h4q25 -2 53 -18q21 -13 35 -29q18 -16 55 -46z" />
    <glyph glyph-name="eacute" unicode="&#xe9;" 
d="M71 216v13v22v37q0 90 64 152q64 63 153 64q89 0 152 -63t64 -152v-1v-7q-113 -47 -339 -139q42 -70 123 -71q60 0 102 43h1q11 14 27 14q36 0 36 -36q0 -18 -14 -29q-62 -63 -152 -63q-89 0 -153 63t-64 153zM426 328q-13 45 -51 74q-38 30 -87 31q-60 0 -101 -43
q-42 -42 -42 -102v-72v-3v-2q93 39 281 117zM209 621q14 12 55 46q13 17 36 29q27 16 53 18h3q21 0 30 -12q3 -5 3 -11q0 -11 -10 -25q-14 -21 -41 -37q-21 -12 -44 -16q-21 -9 -65 -25q-18 -11 -30 -11q-10 0 -13 9q-2 3 -2 8q0 12 25 27z" />
    <glyph glyph-name="ecircumflex" unicode="&#xea;" 
d="M71 216v13v22v37q0 90 64 152q64 63 153 64q89 0 152 -63t64 -152v-1v-7q-113 -47 -339 -139q42 -70 123 -71q60 0 102 43h1q11 14 27 14q36 0 36 -36q0 -18 -14 -29q-62 -63 -152 -63q-89 0 -153 63t-64 153zM426 328q-13 45 -51 74q-38 30 -87 31q-60 0 -101 -43
q-42 -42 -42 -102v-72v-3v-2q93 39 281 117zM288 648q-19 -20 -76 -77q-13 -13 -25 -12q-13 0 -27 12q-12 13 -12 26t12 25l103 103q13 13 25 12q13 0 25 -12q34 -34 102 -103q13 -13 13 -25q0 -13 -13 -26q-25 -25 -51 0q-25 25 -76 77z" />
    <glyph glyph-name="edieresis" unicode="&#xeb;" 
d="M71 216v13v22v37q0 90 64 152q64 63 153 64q89 0 152 -63t64 -152v-1v-7q-113 -47 -339 -139q42 -70 123 -71q60 0 102 43h1q11 14 27 14q36 0 36 -36q0 -18 -14 -29q-62 -63 -152 -63q-89 0 -153 63t-64 153zM426 328q-13 45 -51 74q-38 30 -87 31q-60 0 -101 -43
q-42 -42 -42 -102v-72v-3v-2q93 39 281 117zM180 684q36 0 36 -36t-36 -36q-35 0 -35 36t35 36zM396 684q37 0 37 -36t-37 -36q-36 0 -37 36q1 36 37 36z" />
    <glyph glyph-name="igrave" unicode="&#xec;" 
d="M359 36q0 -36 -35 -36q-36 0 -36 36v144v72v107q0 30 -21 52q-21 21 -51 22h-36q-35 0 -35 36q0 35 35 35h36q59 0 101 -42t42 -102v-1v-107v-72v-144zM367 621q25 -16 26 -28q0 -4 -2 -7q-4 -9 -15 -9t-28 11q-22 8 -67 25q-22 4 -43 16q-27 16 -42 37q-8 14 -8 24
q0 6 2 12q7 12 30 12h4q25 -2 53 -18q21 -13 35 -29q18 -16 55 -46z" />
    <glyph glyph-name="iacute" unicode="&#xed;" 
d="M359 36q0 -36 -35 -36q-36 0 -36 36v144v72v107q0 30 -21 52q-21 21 -51 22h-36q-35 0 -35 36q0 35 35 35h36q59 0 101 -42t42 -102v-1v-107v-72v-144zM209 621q14 12 55 46q13 17 36 29q27 16 53 18h3q21 0 30 -12q3 -5 3 -11q0 -11 -10 -25q-14 -21 -41 -37
q-21 -12 -44 -16q-21 -9 -65 -25q-18 -11 -30 -11q-10 0 -13 9q-2 3 -2 8q0 12 25 27z" />
    <glyph glyph-name="icircumflex" unicode="&#xee;" 
d="M359 36q0 -36 -35 -36q-36 0 -36 36v144v72v107q0 30 -21 52q-21 21 -51 22h-36q-35 0 -35 36q0 35 35 35h36q59 0 101 -42t42 -102v-1v-107v-72v-144zM288 648q-19 -20 -76 -77q-13 -13 -25 -12q-13 0 -27 12q-12 13 -12 26t12 25l103 103q13 13 25 12q13 0 25 -12
q34 -34 102 -103q13 -13 13 -25q0 -13 -13 -26q-25 -25 -51 0q-25 25 -76 77z" />
    <glyph glyph-name="idieresis" unicode="&#xef;" 
d="M359 36q0 -36 -35 -36q-36 0 -36 36v144v72v107q0 30 -21 52q-21 21 -51 22h-36q-35 0 -35 36q0 35 35 35h36q59 0 101 -42t42 -102v-1v-107v-72v-144zM145 684q35 0 35 -36t-35 -36q-36 0 -37 36q1 36 37 36zM359 684q36 0 37 -36q0 -36 -37 -36q-35 0 -35 36t35 36z
" />
    <glyph glyph-name="eth" unicode="&#xf0;" 
d="M71 288q0 90 64 152q64 63 153 64q71 0 129 -43q-15 85 -34 143q-36 -19 -110 -55q-32 -17 -47 16q-18 32 15 48q37 19 112 56q-31 51 -65 51h-36q-36 0 -36 36t36 36h36q66 0 122 -94q29 15 89 44q32 16 48 -15q5 -11 5 -20q0 -19 -21 -28q-30 -16 -90 -46
q52 -135 62 -321q1 -16 1 -24v-36v-36q0 -90 -64 -153q-62 -63 -152 -63q-89 0 -153 63q-63 62 -64 153v17v21v34zM431 305q-5 54 -46 91t-97 37q-60 0 -101 -43q-42 -42 -42 -102v-72q0 -60 42 -102q42 -43 101 -43q60 0 102 43q43 42 43 102v36q0 18 -2 53z" />
    <glyph glyph-name="ntilde" unicode="&#xf1;" 
d="M504 36q0 -36 -35 -36q-36 0 -36 36v252q0 60 -43 102q-42 43 -102 43t-101 -43q-42 -42 -42 -102v-252q0 -36 -37 -36t-37 36v64v88v281q0 35 37 35q36 0 37 -35v-20q61 55 143 55q89 0 152 -63t64 -152v-1v-252zM208 660q-34 -12 -22 -46q11 -35 -23 -46
q-34 -12 -46 23v1v1q-6 17 -6 33q0 24 12 48q21 40 63 54q18 6 34 5q24 0 48 -11q40 -20 54 -63q11 -34 45 -22t24 46q-12 34 22 45q35 11 45 -23q7 -18 7 -35q-1 -24 -12 -48q-21 -40 -62 -54q-18 -6 -36 -6q-24 0 -47 12q-40 20 -54 63q-12 33 -46 23z" />
    <glyph glyph-name="ograve" unicode="&#xf2;" 
d="M504 288v-72q0 -90 -64 -153q-62 -63 -152 -63q-89 0 -153 63q-63 62 -64 153v17v21v34q0 90 64 152q64 63 153 64q90 0 152 -64q64 -62 64 -152zM288 433q-60 0 -101 -43q-42 -42 -42 -102v-72q0 -60 42 -102q42 -43 101 -43q60 0 102 43q43 42 43 102v72q0 60 -43 102
q-42 43 -102 43zM367 621q25 -16 26 -28q0 -4 -2 -7q-4 -9 -15 -9t-28 11q-22 8 -67 25q-22 4 -43 16q-27 16 -42 37q-8 14 -8 24q0 6 2 12q7 12 30 12h4q25 -2 53 -18q21 -13 35 -29q18 -16 55 -46z" />
    <glyph glyph-name="oacute" unicode="&#xf3;" 
d="M504 288v-72q0 -90 -64 -153q-62 -63 -152 -63q-89 0 -153 63q-63 62 -64 153v17v21v34q0 90 64 152q64 63 153 64q90 0 152 -64q64 -62 64 -152zM288 433q-60 0 -101 -43q-42 -42 -42 -102v-72q0 -60 42 -102q42 -43 101 -43q60 0 102 43q43 42 43 102v72q0 60 -43 102
q-42 43 -102 43zM209 621q14 12 55 46q13 17 36 29q27 16 53 18h3q21 0 30 -12q3 -5 3 -11q0 -11 -10 -25q-14 -21 -41 -37q-21 -12 -44 -16q-21 -9 -65 -25q-18 -11 -30 -11q-10 0 -13 9q-2 3 -2 8q0 12 25 27z" />
    <glyph glyph-name="ocircumflex" unicode="&#xf4;" 
d="M504 288v-72q0 -90 -64 -153q-62 -63 -152 -63q-89 0 -153 63q-63 62 -64 153v17v21v34q0 90 64 152q64 63 153 64q90 0 152 -64q64 -62 64 -152zM288 433q-60 0 -101 -43q-42 -42 -42 -102v-72q0 -60 42 -102q42 -43 101 -43q60 0 102 43q43 42 43 102v72q0 60 -43 102
q-42 43 -102 43zM288 648q-19 -20 -76 -77q-13 -13 -25 -12q-13 0 -27 12q-12 13 -12 26t12 25l103 103q13 13 25 12q13 0 25 -12q34 -34 102 -103q13 -13 13 -25q0 -13 -13 -26q-25 -25 -51 0q-25 25 -76 77z" />
    <glyph glyph-name="otilde" unicode="&#xf5;" 
d="M504 288v-72q0 -90 -64 -153q-62 -63 -152 -63q-89 0 -153 63q-63 62 -64 153v17v21v34q0 90 64 152q64 63 153 64q90 0 152 -64q64 -62 64 -152zM288 433q-60 0 -101 -43q-42 -42 -42 -102v-72q0 -60 42 -102q42 -43 101 -43q60 0 102 43q43 42 43 102v72q0 60 -43 102
q-42 43 -102 43zM208 660q-34 -12 -22 -46q11 -35 -23 -46q-34 -12 -46 23v1v1q-6 17 -6 33q0 24 12 48q21 40 63 54q18 6 34 5q24 0 48 -11q40 -20 54 -63q11 -34 45 -22t24 46q-12 34 22 45q35 11 45 -23q7 -18 7 -35q-1 -24 -12 -48q-21 -40 -62 -54q-18 -6 -36 -6
q-24 0 -47 12q-40 20 -54 63q-12 33 -46 23z" />
    <glyph glyph-name="odieresis" unicode="&#xf6;" 
d="M504 288v-72q0 -90 -64 -153q-62 -63 -152 -63q-89 0 -153 63q-63 62 -64 153v17v21v34q0 90 64 152q64 63 153 64q90 0 152 -64q64 -62 64 -152zM288 433q-60 0 -101 -43q-42 -42 -42 -102v-72q0 -60 42 -102q42 -43 101 -43q60 0 102 43q43 42 43 102v72q0 60 -43 102
q-42 43 -102 43zM180 684q36 0 36 -36t-36 -36q-35 0 -35 36t35 36zM396 684q37 0 37 -36t-37 -36q-36 0 -37 36q1 36 37 36z" />
    <glyph glyph-name="divide" unicode="&#xf7;" 
d="M36 433h433q35 0 35 -37q0 -36 -35 -37h-433q-36 0 -36 37t36 37zM252 648q29 0 51 -21q21 -21 21 -51q0 -29 -21 -51q-21 -21 -51 -21q-29 0 -51 21q-21 21 -21 51q0 29 21 51q22 21 51 21zM252 288q29 0 51 -21q21 -21 21 -51q0 -29 -21 -51q-21 -21 -51 -20
q-29 0 -51 20q-21 21 -21 51t21 51q22 21 51 21z" />
    <glyph glyph-name="oslash" unicode="&#xf8;" 
d="M504 288v-72q0 -90 -64 -153q-62 -63 -152 -63q-83 0 -144 56q-12 -11 -35 -33q-24 -26 -50 0q-13 12 -13 25t13 26q14 13 39 39q-26 49 -27 103v72q0 90 64 152q64 63 153 64q83 0 146 -56l32 32q26 26 51 0q13 -12 12 -24v-2q0 -12 -12 -24l-39 -39q26 -48 26 -103z
M424 337q-58 -58 -230 -231q40 -35 94 -35q60 0 102 43q43 42 43 102v72q0 26 -9 49zM152 168q58 57 230 229q-40 35 -94 36q-60 0 -101 -43q-42 -42 -42 -102v-72q-1 -26 7 -48z" />
    <glyph glyph-name="ugrave" unicode="&#xf9;" 
d="M504 36q0 -36 -35 -36q-36 0 -36 36v19q-62 -55 -145 -55q-89 0 -153 63q-63 62 -64 153v72v71v21v33v56q0 35 37 35q36 0 37 -35v-110v-71v-72q0 -60 42 -102q42 -43 101 -43q60 0 102 43q43 42 43 102v253q0 35 36 35q35 0 35 -35v-253v-180zM367 621q25 -16 26 -28
q0 -4 -2 -7q-4 -9 -15 -9t-28 11q-22 8 -67 25q-22 4 -43 16q-27 16 -42 37q-8 14 -8 24q0 6 2 12q7 12 30 12h4q25 -2 53 -18q21 -13 35 -29q18 -16 55 -46z" />
    <glyph glyph-name="uacute" unicode="&#xfa;" 
d="M504 36q0 -36 -35 -36q-36 0 -36 36v19q-62 -55 -145 -55q-89 0 -153 63q-63 62 -64 153v72v71v21v33v56q0 35 37 35q36 0 37 -35v-110v-71v-72q0 -60 42 -102q42 -43 101 -43q60 0 102 43q43 42 43 102v253q0 35 36 35q35 0 35 -35v-253v-180zM209 621q14 12 55 46
q13 17 36 29q27 16 53 18h3q21 0 30 -12q3 -5 3 -11q0 -11 -10 -25q-14 -21 -41 -37q-21 -12 -44 -16q-21 -9 -65 -25q-18 -11 -30 -11q-10 0 -13 9q-2 3 -2 8q0 12 25 27z" />
    <glyph glyph-name="ucircumflex" unicode="&#xfb;" 
d="M504 36q0 -36 -35 -36q-36 0 -36 36v19q-62 -55 -145 -55q-89 0 -153 63q-63 62 -64 153v72v71v21v33v56q0 35 37 35q36 0 37 -35v-110v-71v-72q0 -60 42 -102q42 -43 101 -43q60 0 102 43q43 42 43 102v253q0 35 36 35q35 0 35 -35v-253v-180zM288 648q-19 -20 -76 -77
q-13 -13 -25 -12q-13 0 -27 12q-12 13 -12 26t12 25l103 103q13 13 25 12q13 0 25 -12q34 -34 102 -103q13 -13 13 -25q0 -13 -13 -26q-25 -25 -51 0q-25 25 -76 77z" />
    <glyph glyph-name="udieresis" unicode="&#xfc;" 
d="M504 36q0 -36 -35 -36q-36 0 -36 36v19q-62 -55 -145 -55q-89 0 -153 63q-63 62 -64 153v72v71v21v33v56q0 35 37 35q36 0 37 -35v-110v-71v-72q0 -60 42 -102q42 -43 101 -43q60 0 102 43q43 42 43 102v253q0 35 36 35q35 0 35 -35v-253v-180zM180 684q36 0 36 -36
t-36 -36q-35 0 -35 36t35 36zM396 684q37 0 37 -36t-37 -36q-36 0 -37 36q1 36 37 36z" />
    <glyph glyph-name="yacute" unicode="&#xfd;" 
d="M253 31q-43 104 -174 418q-4 10 -4 19q0 19 24 28q11 4 18 4q20 0 29 -23q49 -117 147 -353q36 88 145 353q10 23 30 23q8 0 17 -4q24 -10 25 -29q0 -8 -5 -18q-60 -145 -179 -432q-1 -1 -2 -3q0 -1 -1 -2q-48 -117 -144 -350q-11 -23 -31 -23q-8 0 -16 4q-34 14 -20 46
q47 113 141 342zM209 621q14 12 55 46q13 17 36 29q27 16 53 18h3q21 0 30 -12q3 -5 3 -11q0 -11 -10 -25q-14 -21 -41 -37q-21 -12 -44 -16q-21 -9 -65 -25q-18 -11 -30 -11q-10 0 -13 9q-2 3 -2 8q0 12 25 27z" />
    <glyph glyph-name="thorn" unicode="&#xfe;" 
d="M504 288v-72q0 -90 -64 -153q-62 -63 -152 -63q-83 0 -143 55v-306q0 -37 -37 -37t-37 37v57v410v72v167v301q0 36 37 36q36 0 37 -36v-307q61 55 143 55q90 0 152 -64q64 -62 64 -152zM288 433q-60 0 -101 -43q-42 -42 -42 -102v-72q0 -60 42 -102q42 -43 101 -43
q60 0 102 43q43 42 43 102v72q0 60 -43 102q-42 43 -102 43z" />
    <glyph glyph-name="ydieresis" unicode="&#xff;" 
d="M253 31q-43 104 -174 418q-4 10 -4 19q0 19 24 28q11 4 18 4q20 0 29 -23q49 -117 147 -353q36 88 145 353q10 23 30 23q8 0 17 -4q24 -10 25 -29q0 -8 -5 -18q-60 -145 -179 -432q-1 -1 -2 -3q0 -1 -1 -2q-48 -117 -144 -350q-11 -23 -31 -23q-8 0 -16 4q-34 14 -20 46
q47 113 141 342zM180 684q36 0 36 -36t-36 -36q-35 0 -35 36t35 36zM396 684q37 0 37 -36t-37 -36q-36 0 -37 36q1 36 37 36z" />
    <glyph glyph-name="OE" unicode="&#x152;" 
d="M180 792q60 0 108 -80v44q0 36 36 36h216q36 0 36 -36t-36 -36h-181v-216h110q35 0 35 -35q0 -36 -35 -36h-110v-37v-325h181q36 0 36 -35q0 -36 -36 -36h-99h-117q-36 0 -36 36v43q-49 -79 -108 -79q-74 0 -127 116t-53 280t53 280t127 116zM180 720q-44 0 -76 -95
t-33 -229q0 -134 33 -229q32 -96 76 -96q45 0 77 96q31 95 31 229q0 135 -31 229q-32 95 -77 95z" />
    <glyph glyph-name="oe" unicode="&#x153;" 
d="M414 504q62 0 107 -63q45 -62 53 -153h2v-36q0 -36 -36 -36h-215q7 -61 31 -102q23 -41 57 -42q13 0 20 2q46 7 79 40q12 14 28 14q36 0 36 -36q0 -18 -14 -29q-59 -59 -139 -63h-5h-4h-1h-2h-1q-75 3 -122 94q-49 -94 -126 -94q-67 0 -115 74q-47 74 -47 178t47 178
q48 74 115 74q76 0 126 -94q49 94 126 94zM503 288q-7 62 -32 103q-24 42 -57 42q-32 0 -58 -42q-24 -41 -31 -103h178zM162 433q-37 0 -64 -54q-26 -53 -27 -127q0 -75 27 -128t64 -53t64 53q26 53 26 128q0 74 -26 127q-27 54 -64 54z" />
    <glyph glyph-name="Scaron" unicode="&#x160;" 
d="M71 216q0 54 36 54q37 0 38 -54q0 -60 42 -102q42 -43 101 -43q60 0 102 43q43 42 43 102t-43 101q-42 42 -102 42q-89 0 -153 65q-63 63 -64 152q0 89 64 153q64 63 153 63q90 0 152 -63q63 -63 64 -153q0 -54 -36 -54q-35 0 -35 54q0 60 -43 102q-42 42 -102 42
t-101 -42q-42 -42 -42 -102t42 -101q42 -42 101 -42q90 0 152 -64q63 -64 64 -153q0 -90 -64 -153q-62 -63 -152 -63q-89 0 -153 63t-64 153zM288 918q20 19 76 76q13 13 26 13t25 -13q13 -13 13 -25q0 -13 -13 -26q-33 -34 -102 -101q-13 -13 -25 -13q-13 0 -25 13
q-34 34 -103 101q-12 13 -12 26v2q0 12 12 23q26 25 52 0z" />
    <glyph glyph-name="scaron" unicode="&#x161;" 
d="M252 216q-75 0 -128 42q-53 43 -53 101q0 60 53 103q53 42 128 42q73 0 126 -42t55 -101v-1v-1q0 -35 -37 -35q-36 0 -37 35q0 30 -31 52q-31 21 -76 22q-45 0 -76 -22q-31 -21 -31 -52q0 -29 31 -50t76 -21q74 0 127 -42q54 -43 54 -101q0 -60 -54 -103
q-53 -42 -127 -42t-127 42t-53 102q-1 0 -1 1q0 35 37 35q36 0 37 -35q0 -30 31 -52q31 -21 76 -22q45 0 76 22q31 21 31 52q0 28 -31 49q-31 22 -76 22zM252 648q20 19 76 77q13 13 26 12q13 0 25 -12q14 -13 14 -26q0 -14 -14 -26l-102 -102q-13 -13 -25 -12q-13 0 -25 12
l-102 102q-13 13 -13 26t13 26q24 25 51 0q25 -26 76 -77z" />
    <glyph glyph-name="Ydieresis" unicode="&#x178;" 
d="M324 316v-280q0 -36 -36 -36t-36 36v280q-44 106 -177 426q-4 10 -4 19q0 20 24 29q33 13 47 -19q49 -118 146 -354q37 89 147 354q10 23 29 23q8 0 17 -4q23 -10 24 -30q0 -8 -4 -18zM180 937q36 0 36 -38q0 -35 -36 -35q-35 0 -35 35q0 38 35 38zM396 937q37 0 37 -38
q0 -35 -37 -35q-36 0 -37 35q1 38 37 38z" />
    <glyph glyph-name="florin" unicode="&#x192;" 
d="M433 792q53 0 52 -36q0 -36 -52 -36q-61 0 -103 -42t-42 -102v-72v-71v-74v-143h108q37 0 37 -36q0 -35 -37 -35h-108v-145v-71v-73v-71v-1q0 -89 -63 -152t-154 -64q-54 0 -53 36q0 36 53 37q61 0 103 42q42 43 42 102v71v73v71v145h-108q-37 0 -37 35q0 36 37 36h108
v143v74v71v72v1q0 89 63 152q64 63 154 63z" />
    <glyph glyph-name="circumflex" unicode="&#x2c6;" 
d="M288 918l-76 -76q-13 -13 -25 -13q-13 0 -27 13q-12 13 -12 24v2q0 13 12 25q34 34 103 101q13 13 25 13q13 0 25 -13q34 -34 102 -101q13 -13 13 -26t-13 -25q-25 -25 -51 0z" />
    <glyph glyph-name="tilde" unicode="&#x2dc;" 
d="M208 911q-34 -12 -22 -45q11 -34 -23 -46t-46 24q-6 18 -6 34q0 24 12 48q21 39 63 53q18 6 34 6q24 0 48 -11q40 -21 54 -63q11 -34 45 -22q34 11 24 45q-12 34 22 45q35 12 45 -22q7 -18 7 -35q-1 -24 -12 -48q-21 -40 -62 -54q-18 -6 -36 -6q-24 0 -47 12
q-40 21 -54 63q-12 33 -46 22z" />
    <glyph glyph-name="endash" unicode="&#x2013;" 
d="M108 433h361q35 0 35 -37q0 -36 -35 -37h-361q-37 0 -37 37t37 37z" />
    <glyph glyph-name="emdash" unicode="&#x2014;" 
d="M36 433h504q36 0 36 -37q0 -36 -36 -37h-504q-36 0 -36 37t36 37z" />
    <glyph glyph-name="quoteleft" unicode="&#x2018;" 
d="M279 548q-14 -6 -27 -6q-17 0 -32 9q-21 7 -33 35h-1l-1 1q-17 41 -17 83q0 41 18 82q33 83 116 117q20 8 33 8q21 0 30 -21q3 -7 3 -13q0 -24 -39 -40q-78 -32 -87 -116q55 7 76 -44q11 -28 0 -56q-12 -27 -39 -39z" />
    <glyph glyph-name="quoteright" unicode="&#x2019;" 
d="M226 855q14 6 27 6q16 0 31 -7q21 -6 34 -35q0 -2 1 -3q17 -40 17 -81q0 -42 -18 -84q-34 -83 -116 -116q-20 -9 -33 -9q-21 0 -30 21q-3 8 -3 14q0 24 39 41q78 32 88 117q-56 -9 -76 43q-12 27 -1 54q12 27 40 39z" />
    <glyph glyph-name="quotesinglbase" unicode="&#x201a;" 
d="M257 133q14 6 27 6q16 0 32 -8q21 -7 34 -35v-1l1 -1q17 -41 16 -81q0 -42 -17 -84q-33 -83 -116 -117q-20 -9 -34 -8q-21 1 -30 21q-3 7 -3 14q0 23 39 40q78 32 88 117q-56 -8 -76 43q-12 27 -1 55q12 27 40 39z" />
    <glyph glyph-name="quotedblleft" unicode="&#x201c;" 
d="M172 550q-15 -6 -28 -6q-16 0 -32 8q-22 7 -34 35q-1 1 -1 2q-17 41 -16 82v4q0 40 16 79q34 83 117 117q19 8 33 8q22 0 31 -21q3 -8 3 -13q0 -24 -39 -40q-79 -33 -88 -117q55 8 76 -43q12 -28 0 -56q-11 -27 -38 -39zM423 550q-14 -6 -27 -6q-16 0 -33 8q-21 7 -33 35
l-1 2q-17 41 -17 82q0 42 17 83q34 83 116 117q20 8 34 8q22 0 31 -21q3 -8 3 -13q0 -24 -39 -40q-79 -31 -88 -117q55 8 76 -43q12 -28 0 -56q-12 -27 -39 -39z" />
    <glyph glyph-name="quotedblright" unicode="&#x201d;" 
d="M400 853q14 6 28 5q17 0 32 -7q21 -7 33 -36l1 -1q0 -1 1 -1q17 -40 17 -81q0 -42 -18 -84q-34 -83 -116 -117q-20 -8 -33 -8q-22 0 -31 21q-4 8 -3 14q1 24 40 40q77 32 87 117q-55 -8 -77 44q-12 27 0 54q11 28 39 40zM148 853q14 6 28 5q17 0 32 -7q21 -7 34 -36v-2
q18 -40 18 -81q0 -42 -18 -84q-34 -83 -117 -117q-19 -8 -32 -8q-22 0 -31 21q-3 8 -3 14q1 24 39 40q78 32 89 117q-57 -8 -78 44q-12 27 0 54q12 28 39 40z" />
    <glyph glyph-name="quotedblbase" unicode="&#x201e;" 
d="M133 133q14 6 27 6q17 0 32 -8q21 -7 35 -35v-2q18 -41 17 -81q0 -42 -17 -84q-35 -83 -118 -117q-19 -9 -32 -8q-22 1 -31 21q-3 7 -3 14q0 23 39 40q78 32 89 117q-57 -8 -77 43q-12 27 0 55q12 27 39 39zM421 133q14 6 27 6q16 0 32 -8q20 -6 35 -35v-1v-1
q17 -41 16 -82q0 -41 -16 -83q-34 -83 -117 -117q-20 -9 -33 -8q-22 1 -31 21q-3 7 -3 14q0 23 40 40q78 32 87 117q-56 -8 -76 43q-12 27 0 55q12 27 39 39z" />
    <glyph glyph-name="dagger" unicode="&#x2020;" 
d="M288 756v-252h108q37 0 37 -35q0 -36 -37 -36h-108v-613q0 -35 -36 -35t-36 35v613h-108q-37 0 -37 36q0 35 37 35h108v252q0 36 36 36t36 -36z" />
    <glyph glyph-name="daggerdbl" unicode="&#x2021;" 
d="M288 756v-180h108q37 0 37 -36t-37 -36h-108v-433h108q37 0 37 -35q0 -36 -37 -36h-108v-180q0 -35 -36 -35t-36 35v180h-108q-37 0 -37 36q0 35 37 35h108v433h-108q-37 0 -37 36t37 36h108v180q0 36 36 36t36 -36z" />
    <glyph glyph-name="bullet" unicode="&#x2022;" 
d="M288 576q60 0 102 -42q43 -43 43 -101q0 -61 -43 -103q-42 -42 -102 -42t-101 42q-42 42 -42 103q0 59 42 101q41 42 101 42z" />
    <glyph glyph-name="ellipsis" unicode="&#x2026;" 
d="M71 145q30 0 52 -22q21 -21 22 -52q0 -29 -22 -50q-21 -21 -52 -21q-29 0 -50 21t-21 50q0 30 21 52t50 22zM288 145q29 0 51 -22q21 -21 20 -52q0 -29 -20 -50q-21 -21 -51 -21t-51 21t-21 50q0 30 21 52t51 22zM504 145q30 0 51 -22q21 -21 21 -52q0 -29 -21 -50
t-51 -21t-51 21t-20 50q0 30 20 52q21 22 51 22z" />
    <glyph glyph-name="perthousand" unicode="&#x2030;" 
d="M108 792q44 0 76 -32q32 -31 32 -76q0 -44 -32 -77q-31 -31 -76 -31q-46 0 -77 31q-31 32 -31 77t31 76q31 32 77 32zM108 720q-37 0 -37 -36q0 -35 37 -36q36 0 37 36q-1 36 -37 36zM252 288q45 0 76 -31q31 -32 31 -77q0 -44 -31 -76t-76 -33q-45 0 -76 33
q-31 32 -31 76q0 45 31 77q31 31 76 31zM252 216q-36 0 -36 -36q0 -35 36 -35t36 35q0 36 -36 36zM540 288q45 0 76 -31q32 -32 32 -77q0 -44 -32 -76q-31 -32 -76 -33q-45 0 -76 33q-31 32 -31 76q0 45 31 77q31 31 76 31zM540 216q-36 0 -36 -36q0 -35 36 -35t36 35
q0 36 -36 36zM591 727q-131 -123 -527 -492q-13 -12 -25 -11q-13 0 -25 13t-12 25q0 14 14 26q176 164 527 490q12 12 24 12q13 0 27 -13q11 -14 11 -25q1 -13 -14 -25z" />
    <glyph glyph-name="guilsinglleft" unicode="&#x2039;" 
d="M339 15l-152 152q-13 13 -13 24v2q0 13 13 25q51 51 152 153q13 12 25 12q13 0 27 -12q12 -14 11 -26q0 -13 -11 -26q-43 -42 -128 -127q32 -32 128 -127q23 -26 0 -50q-14 -13 -27 -13q-12 0 -25 13z" />
    <glyph glyph-name="guilsinglright" unicode="&#x203a;" 
d="M237 371q38 -39 154 -153q12 -13 11 -26q0 -13 -11 -25q-52 -51 -154 -152q-13 -13 -25 -13q-13 0 -25 13q-13 12 -13 24q0 13 13 26q42 42 126 127q-32 31 -126 127q-25 25 0 52q13 12 25 12t25 -12z" />
    <glyph glyph-name="uni20ac" unicode="&#x20ac;" 
d="M441 729q38 -38 13 -64q-25 -25 -63 13q-43 42 -103 42t-101 -43q-42 -42 -42 -101h324q35 0 35 -37q0 -36 -35 -36h-324v-215h324q35 0 35 -36q0 -37 -35 -37h-324q0 -60 42 -102t101 -42q60 0 103 42q38 38 63 13q25 -26 -13 -64q-63 -63 -153 -63q-88 0 -150 62
q-62 61 -66 146v2l-1 1v5h-35q-36 0 -36 37q0 36 36 36h35v215h-35q-36 0 -36 36q0 37 36 37h35v5l1 1v2q3 86 66 146q62 62 150 62q90 0 153 -63z" />
    <glyph glyph-name="trademark" unicode="&#x2122;" 
d="M288 433v36v323v36q0 36 36 36q35 0 35 -35q19 -43 55 -130q14 32 55 130q1 35 35 35q36 0 36 -36v-36v-323v-36q0 -37 -36 -37q-35 0 -35 36v1v36v144q-5 -12 -20 -47q-8 -26 -35 -26q-26 0 -35 26q-6 16 -20 47v-144v-36q0 -37 -35 -37q-36 0 -36 37zM180 864
q36 0 36 -36t-36 -36h-35v-359q0 -37 -37 -37t-37 37v359h-35q-36 0 -36 36t36 36h144z" />
  </font>
</defs>
</svg>
