<?xml version="1.0" standalone="no"?>
<!DOCTYPE svg PUBLIC "-//W3C//DTD SVG 1.1//EN" "http://www.w3.org/Graphics/SVG/1.1/DTD/svg11.dtd" >
<svg xmlns="http://www.w3.org/2000/svg" xmlns:xlink="http://www.w3.org/1999/xlink" version="1.1">
<metadata>
Created by FontForge 20170731 at Fri May 29 12:53:51 2015
 By Aleksey,,,
2015 Iconian Fonts - www.iconian.com
</metadata>
<defs>
<font id="GentlemanCallerRotated" horiz-adv-x="509" >
  <font-face 
    font-family="Gentleman Caller Rotated"
    font-weight="400"
    font-stretch="normal"
    units-per-em="1000"
    panose-1="0 0 0 0 0 0 0 0 0 0"
    ascent="800"
    descent="-200"
    x-height="653.5"
    cap-height="733"
    bbox="-27 -146 976 851"
    underline-thickness="50"
    underline-position="-175"
    unicode-range="U+0020-2122"
  />
<missing-glyph horiz-adv-x="500" 
 />
    <glyph glyph-name=".notdef" horiz-adv-x="500" 
 />
    <glyph glyph-name=".null" horiz-adv-x="0" 
 />
    <glyph glyph-name="nonmarkingreturn" horiz-adv-x="500" 
 />
    <glyph glyph-name="FL0020h" unicode=" " horiz-adv-x="334" 
 />
    <glyph glyph-name="FL0021h" unicode="!" horiz-adv-x="272" 
d="M231 208l-159 -20l-47 379q-2 11 -14.5 18.5t-22.5 9.5l-3 32l223 27l4 -31q-8 -5 -19 -15t-9 -21zM88 63q-4 30 16 53t53 27q32 5 58.5 -13t30.5 -47q4 -30 -18 -53t-54 -28q-33 -4 -57.5 14t-28.5 47z" />
    <glyph glyph-name="FL0022h" unicode="&#x22;" horiz-adv-x="429" 
d="M46 623l20 -161q2 -14 -9 -25.5t-22 -16.5l1 -1h-1l4 -33l91 11q15 2 32 9.5t30.5 19.5t22 28t6.5 34l-19 154zM233 646l20 -161q2 -14 -8.5 -25.5t-21.5 -16.5v-1h-1l4 -33l92 11q15 2 32 9.5t30.5 19.5t21.5 28t6 34l-19 154z" />
    <glyph glyph-name="FL0023h" unicode="#" horiz-adv-x="646" 
d="M626 317l11 -95l-38 -5q-4 30 -16.5 35.5t-29.5 3.5l-23 -2l20 -163q2 -11 14.5 -19t22.5 -10l3 -32l-145 -17q-11 3 -20.5 11.5t-17 18t-12 17.5t-4.5 11l-20 163l-75 -9l19 -163q2 -11 15 -19t22 -10l4 -31l-223 -28l-4 32q8 4 19 15t9 22l-20 162l-20 -2
q-19 -2 -29.5 -11t-6.5 -39l-39 -5l-12 96l100 12l-11 92l-100 -12l-12 95l39 5q3 -23 10.5 -32t19.5 -9h8t9 1l20 2l-19 155q-2 11 -14 18.5t-22 9.5l-4 31l121 15q7 1 19.5 -5t25.5 -15t22.5 -19t10.5 -16l19 -155l75 10l-19 155q-2 11 -14.5 18t-20.5 9l-4 32l223 28
l4 -32q-8 -5 -19.5 -15t-9.5 -21l19 -155l23 3q9 1 16.5 3.5t12 7.5t6.5 14.5t0 25.5l39 4l11 -95l-102 -12l12 -93zM353 377l-75 -9l11 -92l76 9z" />
    <glyph glyph-name="FL0024h" unicode="$" horiz-adv-x="508" 
d="M375 13l-159 -20l-12 98h-3q-8 -1 -27.5 1t-39.5 8t-36 16.5t-18 25.5l-5 37q-2 12 -15.5 22.5t-25.5 12.5l-4 33l91 11q15 1 33.5 -2t34.5 -10.5t27.5 -20.5t13.5 -32l2 -17q2 -17 16 -25.5t28 -6.5l3 1q36 5 31 44l-10 75q-4 16 -12.5 26.5t-31.5 12.5l-90 -11
q-12 -2 -30.5 0t-35.5 8t-30 16t-15 25l-16 133q-3 24 7 39t25.5 23.5t33 12t29.5 5.5l13 2l-10 75l159 20l9 -76l8 1q11 1 29 2.5t35.5 -2.5t31 -16t16.5 -37l7 -56q1 -11 15 -22t25 -12l4 -34l-90 -11q-15 -1 -33 2t-34.5 10.5t-28 20.5t-13.5 32l-2 21q-2 16 -14.5 33
t-31.5 15q-21 -8 -26.5 -21t-6.5 -28l11 -87q2 -17 10 -28.5t22 -13.5l102 13q12 1 29.5 2t35 -3t30.5 -15.5t16 -36.5l14 -115q2 -15 -8 -28.5t-25.5 -24t-32.5 -17t-29 -7.5l-9 -1z" />
    <glyph glyph-name="FL0025h" unicode="%" horiz-adv-x="519" 
d="M44 652l107 13q7 1 17.5 1.5t21 -2.5t19 -10.5t10.5 -22.5l28 -230l107 256l91 11l4 -31q-8 -5 -15.5 -15t-12.5 -21l-99 -239l106 13q7 1 17.5 1.5t21 -2.5t18.5 -11t10 -23l37 -303q1 -9 -5 -17t-15 -14t-19.5 -9.5t-17.5 -4.5l-108 -13q-7 -1 -18 0t-21.5 5t-18.5 10
t-9 15l-28 233l-107 -256l-92 -11l-4 31q4 2 9 6t9.5 9t7.5 10.5t2 11.5l99 239l-105 -13q-7 -1 -18 0t-21.5 5t-18.5 10t-9 15l-37 304q-2 15 4 24t15 14.5t19.5 7.5t18.5 3zM381 307q-8 -2 -9.5 -11.5t-0.5 -17.5l26 -212q2 -8 4.5 -15t10.5 -5q9 1 10.5 8.5t-0.5 20.5
l-25 207q-1 8 -5.5 17t-10.5 8zM107 599q-8 -2 -9.5 -11t-0.5 -17l27 -213q1 -8 3.5 -15t10.5 -6q16 4 11 30l-26 207q-1 8 -5.5 17t-10.5 8z" />
    <glyph glyph-name="FL0026h" unicode="&#x26;" horiz-adv-x="482" 
d="M212 569l-17.5 14t-18.5 8q-11 -5 -21 -12t-8 -18l19 -151q2 -20 8.5 -36.5t24.5 -16.5l182 22q9 1 16.5 3.5t12 7.5t6.5 14.5t0 25.5l39 4l16 -135l-38 -4l-1 5q-3 20 -7.5 23.5t-14.5 3.5q-6 0 -15 3l30 -245q2 -15 -8 -28.5t-25 -24t-32 -17t-29 -7.5l-164 -20
q-12 -2 -30.5 0t-35.5 8.5t-30 17.5t-15 26l-28 229q-3 25 6.5 42t17.5 22l2 4q-10 5 -24 17t-16 28l-19 156q-3 21 6 36.5t24 26.5t33.5 17.5t35.5 8.5l159 19q12 1 29.5 2.5t34.5 -2.5t30 -15.5t16 -36.5l9 -79q2 -11 16 -22t25 -12l4 -34l-87 -11q-15 -1 -33.5 2
t-35 10.5t-28 20.5t-13.5 32zM203 96q3 -26 10 -41.5t24 -13.5l12 1q17 2 20 19t0 43l-23 187q-7 12 -13 16t-28 3q-16 -4 -18 -9t-7 -18z" />
    <glyph glyph-name="FL0027h" unicode="'" horiz-adv-x="240" 
d="M45 635l20 -161q2 -14 -8.5 -25.5t-21.5 -16.5v-1h-1l4 -34l91 11q15 2 32 9.5t30.5 19.5t22 28t6.5 34l-19 155z" />
    <glyph glyph-name="FL0028h" unicode="(" horiz-adv-x="236" 
d="M58 30l-68 555q-2 19 6 34.5t21 27t29.5 19t31.5 10.5l90 11l4 -35q-11 -4 -22 -16.5t-9 -23.5l24 -196q-1 -16 -10.5 -31.5t-17.5 -21.5l3 -4q8 -2 21.5 -17t16.5 -39l31 -255q3 -24 15 -30t26 -4l5 -35l-75 -9q-15 -2 -35 -0.5t-38.5 8.5t-32 19.5t-16.5 32.5z" />
    <glyph glyph-name="FL0029h" unicode=")" horiz-adv-x="236" 
d="M246 53l-69 556q-2 19 -13 32t-26.5 21t-33.5 11t-33 2l-91 -11l4 -35q12 -2 25.5 -11t15.5 -20l24 -197h1q4 -14 17.5 -26.5t21.5 -17.5l-1 -4q-8 -4 -17 -22t-7 -42l32 -255q3 -23 -8 -32t-25 -11l4 -35l76 9q15 2 34 8.5t35 17.5t26 26.5t8 35.5z" />
    <glyph glyph-name="FL002Ah" unicode="*" horiz-adv-x="249" 
d="M132 623q7 10 7 16t-12 15l-6 6l23 29l77 -64l-21 -30q-10 9 -15.5 11.5t-8.5 2.5q-2 -1 -4.5 -2.5t-6.5 -6.5l-12 -16l15 -12q9 -6 13 -6q8 0 20 17l28 -22l-59 -80l-29 21l4 8q8 11 6 14q-3 5 -4.5 8l-5.5 11l-12 9l-11 -14q-7 -10 -7 -15q2 -9 18 -22l-22 -29l-79 64
l23 30l6 -6q7 -7 14 -7q-4 0 8 5l8 6l9 13l-12 11q-13 8 -16 8t-13 -9l-5 -10l-30 23l61 83l28 -24q-12 -20 -12 -25q2 -6 11 -13l13 -11z" />
    <glyph glyph-name="FL002Bh" unicode="+" horiz-adv-x="322" 
d="M133 380q-2 20 -10.5 30t-35.5 7l-5 -1l-4 38l135 16l4 -37q-31 -4 -36.5 -16.5t-3.5 -31.5l4 -34l35 4q18 2 28.5 11t6.5 40l39 4l16 -135l-39 -4v6q-2 13 -6 19t-10 8.5t-13.5 3t-16.5 3.5l-35 -4l5 -36q2 -18 10.5 -28.5t39.5 -6.5l5 -39l-135 -16l-5 39h5q14 2 20 6
t8.5 9.5t3.5 13.5t4 17l-4 36l-36 -5q-20 -2 -30 -10t-7 -35l1 -6l-39 -4l-16 135l38 4q4 -30 16.5 -36t31.5 -4l35 4z" />
    <glyph glyph-name="FL002Ch" unicode="," horiz-adv-x="204" 
d="M18 63q-4 30 17 53t53 28q32 4 56.5 -14t28.5 -48l2 -20q1 -8 3.5 -23t5.5 -41q2 -18 -6.5 -33.5t-22 -27.5t-30.5 -20t-32 -11l-91 -11l-4 35h1q11 5 21.5 17t8.5 25z" />
    <glyph glyph-name="FL002Dh" unicode="-" horiz-adv-x="257" 
d="M107 301q-20 -2 -30 -10t-7 -35l1 -6l-39 -4l-17 135l39 4q4 -30 16.5 -36t30.5 -4l49 6q18 2 28.5 11t6.5 40l39 4l17 -135l-39 -4l-1 6q-2 13 -5.5 19t-9 8t-13.5 3t-18 4z" />
    <glyph glyph-name="FL002Eh" unicode="." horiz-adv-x="204" 
d="M24 61q-4 30 16.5 53t52.5 28q32 4 57.5 -14t28.5 -47q4 -30 -16 -53t-52 -27q-33 -5 -58.5 13t-28.5 47z" />
    <glyph glyph-name="FL002Fh" unicode="/" horiz-adv-x="501" 
d="M88 43l257 614l91 11l4 -31q-8 -5 -16 -15t-12 -21l-256 -615l-92 -11l-4 31q8 5 18.5 15.5t9.5 21.5z" />
    <glyph glyph-name="FL0030h" unicode="0" horiz-adv-x="436" 
d="M88 630l180 22q12 1 29.5 1.5t35 -4.5t31 -17.5t16.5 -37.5l62 -503q2 -15 -8 -28.5t-25.5 -24t-32.5 -17t-29 -7.5l-180 -23q-12 -2 -30.5 0.5t-35.5 9t-30 17t-15 25.5l-63 506q-3 24 7 39t25.5 24t33 12.5t29.5 5.5zM249 46q26 3 32 20t2 43l-30 247l-52 -213l6 -55
q2 -19 12.5 -31.5t29.5 -10.5zM184 597q-19 -2 -26.5 -21t-5.5 -36l28 -230l52 215l-3 24q-2 18 -14 34t-31 14z" />
    <glyph glyph-name="FL0031h" unicode="1" horiz-adv-x="295" 
d="M-15 625l214 27l71 -574q1 -11 14 -19t22 -10l4 -31l-223 -28l-4 32q8 4 19 15t9 22l-65 524q-16 -13 -19 -33l-33 -4z" />
    <glyph glyph-name="FL0032h" unicode="2" horiz-adv-x="508" 
d="M220 597q23 -2 31.5 -12.5t12.5 -26.5l19 -155q2 -17 -2.5 -30.5t-18.5 -18.5l-102 -12q-12 -2 -29.5 -5t-33 -11.5t-25.5 -23t-7 -38.5l35 -285l386 47l-26 209q-2 11 9 24t22 18l-4 34l-90 -11q-15 -3 -32 -10.5t-30.5 -19t-21.5 -26.5t-6 -34l19 -159l-41 -5
q-19 -2 -29.5 10.5t-12.5 31.5l-21 174q0 16 6 28t27 20l91 11q12 1 28.5 7.5t32 16.5t25.5 23t8 28l-25 202q-3 24 -16 36t-30 16.5t-34.5 3.5t-29.5 -2l-180 -22q-12 -2 -29.5 -5t-33 -11t-26 -22.5t-7.5 -39.5l16 -126q1 -10 -9.5 -25t-21.5 -18l4 -33l90 11
q15 3 32 10.5t30.5 18.5t22 26.5t6.5 33.5l-11 90q-2 17 5.5 36t26.5 21z" />
    <glyph glyph-name="FL00D0h" unicode="3" horiz-adv-x="472" 
d="M220 599q-19 -2 -26.5 -21t-5.5 -36l11 -89q2 -19 -6.5 -34t-22 -26.5t-30.5 -19t-32 -10.5l-90 -11l-5 33q5 1 11 6t10.5 12t7.5 14t2 12l-15 126q-3 24 7.5 38.5t26 22.5t33 11t29.5 5l180 22q14 2 32.5 0t35.5 -9.5t29 -20.5t14 -33l19 -154q1 -8 -2 -16t-7.5 -15.5
t-10 -14t-9.5 -10.5l2 -3q9 -2 24 -17.5t18 -40.5l28 -231q1 -14 -11 -26.5t-28 -22.5t-31.5 -16.5t-20.5 -7.5l-174 -21q-8 -1 -27.5 1t-39.5 8t-36 16t-18 25l-18 144q-2 11 -15.5 21.5t-25.5 12.5l-4 34l91 12q15 1 33.5 -2t34.5 -11.5t27.5 -21.5t13.5 -32l15 -115
q1 -16 15.5 -28.5t28.5 -10.5l3 1q18 2 25 17t5 34l-22 173q-4 11 -8 19t-15 15q-11 -4 -15 -13t-2 -28l1 -5l-39 -5l-17 135l39 5q2 -18 6.5 -26.5t13.5 -12.5l12 1q14 8 11 28l-21 177l-1 -3q-4 16 -12.5 26.5t-31.5 12.5z" />
    <glyph glyph-name="FL0034h" unicode="4" horiz-adv-x="501" 
d="M514 30l-3 32q-10 2 -22 10t-14 19l-63 510q-2 11 9 21t19 15l-4 31l-154 -19q-8 -1 -13 -8.5t-8 -18t-4 -21.5t0 -19l25 -202l-77 -9l-26 207q-1 7 10 16.5t19 13.5l-4 32l-219 -27l4 -32q9 -2 22 -9.5t15 -18.5l30 -247l232 29l32 -263q2 -11 -9 -22t-19 -15l4 -32z
" />
    <glyph glyph-name="FL0035h" unicode="5" horiz-adv-x="508" 
d="M220 597l-39 -5l25 -198q2 -17 10 -29t22 -14l102 13q12 1 29.5 2t35 -3t30.5 -15.5t16 -36.5l27 -220q2 -15 -8 -28.5t-25.5 -24t-32.5 -17t-29 -7.5l-170 -21q-8 -1 -27.5 1t-39.5 8t-36 16t-18 25l-18 144q-2 11 -15.5 21.5t-24.5 12.5l-5 34l91 11q16 1 34 -2t34 -11
t27.5 -21t14.5 -32l14 -115q1 -16 15.5 -28.5t28.5 -10.5l3 1q19 2 25.5 17t4.5 34l-22 173q-4 16 -12.5 26.5t-31.5 12.5l-90 -11q-12 -2 -30.5 0t-35.5 8t-30 16.5t-15 25.5l-33 268l386 47l24 -190q2 -11 15.5 -22t24.5 -13l4 -33l-90 -11q-15 -1 -33 2t-34.5 10.5
t-28 20.5t-13.5 32l-11 89q-2 18 -14 34t-31 14z" />
    <glyph glyph-name="FL0036h" unicode="6" horiz-adv-x="472" 
d="M442 88q2 -15 -11.5 -28.5t-31.5 -24t-36 -17.5t-25 -8l-171 -21q-12 -2 -30.5 0t-35.5 8.5t-30 17.5t-15 26l-62 507q-3 24 7 39t25.5 23t33 11.5t29.5 5.5l179 22q12 1 29.5 2.5t34.5 -2.5t30.5 -15.5t16.5 -35.5l9 -72q2 -11 15.5 -22t25.5 -12l4 -34l-91 -11
q-15 -1 -33 2t-34 11t-27.5 21t-13.5 31l-5 35q-1 9 -4.5 18t-9.5 16t-14 11t-17 3q-21 -8 -27 -20t-6 -29l15 -124q14 -24 40 -32l146 18q12 -4 22.5 -11.5t18 -16t12 -16.5t5.5 -14zM257 331q-18 26 -43 23q-11 -2 -21.5 -9t-14.5 -21l29 -238q2 -19 12.5 -31.5
t29.5 -10.5h3q14 2 24 17t10 32z" />
    <glyph glyph-name="FL0037h" unicode="7" horiz-adv-x="510" 
d="M174 -12l-4 32q9 4 20.5 14.5t9.5 21.5l4 1l114 522l-4 30l-120 -14q-9 -2 -10 -8t-1 -11l18 -143q2 -18 -6.5 -33.5t-22 -26.5t-30.5 -18.5t-32 -10.5l-90 -11l-4 33q11 3 21.5 18t9.5 25l-26 208l424 52l9 -75l-116 -528q6 -8 16 -14t19 -8l3 -31z" />
    <glyph glyph-name="FL0038h" unicode="8" horiz-adv-x="429" 
d="M93 631l164 20q18 2 37.5 0t36.5 -8.5t29 -19.5t15 -34l18 -154q1 -8 -2 -16.5t-7.5 -16t-10 -14t-9.5 -9.5l2 -4q9 -2 23.5 -17.5t18.5 -39.5l28 -228q2 -15 -8.5 -28.5t-26 -24t-32.5 -17t-29 -7.5l-173 -21q-12 -2 -30.5 0t-35.5 8.5t-30 17.5t-15 26l-28 227
q-3 25 8 43t19 23l1 4q-5 2 -11.5 6.5t-13.5 11t-12 14t-6 15.5l-19 154q-2 21 7 36.5t23.5 26.5t33 17.5t35.5 8.5zM203 100q3 -26 10 -41.5t24 -13.5l23 3q17 2 20 18.5t-1 42.5l-24 199q-7 12 -13 16.5t-28 3.5q-22 -5 -27 -10.5t-9 -18.5zM167 404q2 -20 12.5 -25
t29.5 -5q17 5 25.5 12t6.5 27l-20 161q-2 14 -14.5 20.5t-28.5 4.5h5q-14 -2 -26 -11t-10 -23z" />
    <glyph glyph-name="FL0039h" unicode="9" horiz-adv-x="472" 
d="M29 556q-2 14 11 27.5t31 24t36 17.5t27 8l171 21q12 1 30 -1t35 -8t30 -16.5t15 -25.5l62 -508q3 -24 -7 -38.5t-25 -23.5t-32.5 -12.5t-29.5 -4.5l-179 -22q-12 -2 -30 -3t-35.5 3t-31 16t-16.5 36l-8 72q-2 10 -15.5 21t-25.5 12l-4 35l90 11q15 1 33.5 -2t35 -11
t28 -21t13.5 -32l4 -35q2 -16 14.5 -33t31.5 -15q21 8 27 20.5t6 28.5l-15 124q-11 23 -41 32l-145 -18q-12 4 -22.5 11.5t-18.5 16.5t-12.5 17t-5.5 14zM214 312q16 -25 43 -22q11 2 22 9t15 21l-30 238q-2 19 -13 31t-30 10h-3q-14 -2 -23.5 -16.5t-9.5 -31.5z" />
    <glyph glyph-name="FL003Ah" unicode=":" horiz-adv-x="204" 
d="M39 62q-4 30 16.5 53t53.5 28q32 4 57 -14t29 -47q4 -30 -16.5 -53t-52.5 -27q-33 -5 -58 13t-29 47zM8 316q-4 29 16 52t53 28q32 4 57 -14t29 -47q4 -30 -16.5 -53t-52.5 -27q-33 -5 -57.5 13t-28.5 48z" />
    <glyph glyph-name="FL003Bh" unicode=";" horiz-adv-x="204" 
d="M2 317q-4 29 16 52.5t53 27.5q32 4 57 -14t29 -47t-16.5 -52t-52.5 -28q-32 -4 -57 14t-29 47zM33 64q-4 30 17 53t54 28q32 4 56 -14t28 -48l1 -7l1 -13q2 -8 4 -23t5 -41q2 -18 -6 -33.5t-21.5 -27.5t-30.5 -20t-32 -11l-91 -11l-5 35h1q11 5 21.5 17t8.5 25z" />
    <glyph glyph-name="FL003Ch" unicode="&#x3c;" horiz-adv-x="577" 
d="M183 572l17 -143q2 -19 -6.5 -34t-22 -26.5t-30.5 -19t-32 -10.5l-89 -11l-4 34q11 4 22 18t9 25l-26 208l491 60l9 -75l-33 -4q-3 9 -13.5 19.5t-21.5 8.5l-74 -9q-11 -13 -10 -22l62 -510q2 -11 14.5 -19t21.5 -10l4 -32l-223 -27l-4 31q8 5 18.5 15.5t9.5 21.5
l-63 510q-2 11 -15 20q-13 -7 -11 -19z" />
    <glyph glyph-name="FL003Dh" unicode="=" horiz-adv-x="257" 
d="M21 335l209 26l-11 89l-39 -5q4 -30 -6.5 -39t-28.5 -11l-49 -6q-19 -2 -31 3.5t-16 36.5l-39 -5zM235 317l-209 -26l11 -89l39 5q-4 30 6.5 39.5t29.5 11.5l49 6q18 2 30 -4t16 -37l39 5z" />
    <glyph glyph-name="FL0054h" unicode="&#x3e;" horiz-adv-x="577" 
d="M330 590l17 -143q2 -18 13.5 -31t28 -21t35 -11t33.5 -2l90 11l-4 34q-5 0 -12 3.5t-13 8.5t-10.5 11t-4.5 11l-26 208l-491 -61l9 -74l33 4q1 9 8.5 21.5t18.5 14.5l74 9q6 -5 11 -10t5 -10l63 -510q2 -11 -9 -21.5t-20 -15.5l4 -31l224 27l-4 32q-10 2 -22 10t-14 19
l-63 510q-2 10 10 22q14 -4 16 -15z" />
    <glyph glyph-name="FL003Fh" unicode="?" horiz-adv-x="472" 
d="M220 599q-19 -2 -26.5 -21t-5.5 -36l11 -89q2 -19 -6.5 -34t-22 -26.5t-30.5 -19t-32 -10.5l-90 -11l-5 33q5 1 11 6t10.5 12t7.5 14t2 12l-15 126q-3 24 7.5 38.5t26 22.5t33 11t29.5 5l180 22q12 1 29.5 2t34.5 -3.5t30 -16.5t16 -36l25 -201q2 -15 -8 -28.5
t-25.5 -23.5t-32 -16.5t-28.5 -7.5l-43 -5q-21 -8 -28.5 -20t-5.5 -28l9 -69l-158 -19l-11 89q-3 25 7 39.5t25.5 22.5t32.5 11t29 5l59 8q14 5 18.5 18t2.5 30l-19 155q-4 16 -12.5 26.5t-31.5 12.5zM135 57q-3 30 18 53t53 27t57.5 -13.5t29.5 -47.5t-18 -53t-53 -27
q-33 -4 -58 13.5t-29 47.5z" />
    <glyph glyph-name="FL0040h" unicode="@" horiz-adv-x="672" 
d="M258 493l109 13q7 1 17.5 1.5t20.5 -2.5t18 -10.5t10 -22.5l38 -306h6q14 2 25 11t8 33l-47 380q-4 11 -17.5 20.5t-24.5 11.5l-245 -30q-11 -5 -21 -17t-11 -24l64 -530q3 -23 15.5 -29.5t26.5 -4.5l314 39l4 -35l-388 -48q-16 -2 -36 -0.5t-38.5 8.5t-32 19.5
t-15.5 32.5l-64 522q-3 19 5 34.5t21.5 26.5t30 18.5t31.5 10.5l425 52q15 1 32.5 -2t33.5 -10.5t27.5 -21t13.5 -32.5l46 -373q2 -20 -8 -35.5t-26 -26.5t-35 -17t-34 -8l-252 -31q-7 -1 -17.5 0.5t-21 5t-18.5 10t-9 15.5l-37 304q-2 15 4 24t15 14t19.5 7t17.5 3z
M320 438q-8 -1 -10.5 -10t-0.5 -17l26 -213q1 -9 4.5 -15.5t11.5 -5.5q9 1 10 8.5t-1 20.5l-25 208q-2 8 -6 16.5t-9 7.5z" />
    <glyph glyph-name="FL0041h" unicode="A" horiz-adv-x="512" 
d="M70 -30l-4 36q8 4 19 16t9 25l-70 571q-2 12 -15 20.5t-22 10.5l-4 37l310 38q8 1 30.5 2.5t47 -2.5t44.5 -16.5t23 -39.5l82 -666q1 -13 11 -20t23 -10.5t26 -3.5t20 1l4 -38l-114 -14q-17 -2 -37.5 0t-40 9t-33.5 21t-17 36l-48 390l-93 -11l36 -295q2 -13 14.5 -22
t23.5 -11l5 -35zM230 665l-46 -6l31 -247l88 11l-23 190q-2 18 -16 36t-34 16z" />
    <glyph glyph-name="FL0042h" unicode="B" horiz-adv-x="507" 
d="M70 -24l-5 35q11 5 21.5 17t8.5 24l-70 571q-2 13 -14.5 21.5t-24.5 10.5l-4 36l326 40q18 2 38.5 0t38.5 -10t31 -23t16 -38l21 -172q1 -9 -2 -18.5t-8 -18.5t-11 -16t-10 -10l3 -3q9 -4 24.5 -20.5t19.5 -45.5l31 -254q2 -17 -8.5 -31.5t-26 -26t-33.5 -19t-31 -9.5z
M335 125l-27 222q-8 18 -31 20t-54 -2l36 -292q1 -12 15 -23l42 5q17 2 20 21.5t-1 48.5zM186 666l31 -250q7 1 20.5 3.5t26 8t21.5 14t8 22.5l-23 181q-2 20 -22 23t-42 1z" />
    <glyph glyph-name="FL0043h" unicode="C" horiz-adv-x="495" 
d="M191 666q-23 -8 -28.5 -21.5t-5.5 -31.5l63 -516q2 -21 12.5 -36t31.5 -12h3q15 2 25.5 19.5t8.5 35.5l-16 129q-3 21 5.5 38t23 29.5t32 20.5t33.5 12l96 12l4 -39q-6 -3 -12 -8t-11 -12t-7.5 -14t-1.5 -13l20 -161q2 -17 -12 -32t-32.5 -27t-37.5 -19.5t-28 -8.5
l-179 -22q-12 -2 -31.5 1t-37.5 10.5t-32 19t-16 28.5l-70 568q-3 26 7 42.5t26 26t34 13.5t32 6l189 24q12 1 31 2.5t37 -3t32.5 -18t17.5 -41.5l20 -161q0 -5 4.5 -11.5t11 -12.5t13.5 -10t13 -4l5 -39l-95 -12q-16 -1 -35 3t-36 13t-29.5 23.5t-15.5 34.5l-15 121
q-2 19 -14.5 37t-32.5 16z" />
    <glyph glyph-name="FL0044h" unicode="D" horiz-adv-x="492" 
d="M-18 691l322 40q13 1 33.5 1.5t40 -5t35 -19.5t18.5 -42l69 -564q2 -16 -9 -31t-27.5 -27t-35.5 -19.5t-32 -8.5l-326 -40l-5 35q11 5 21.5 17t8.5 24l-70 571q-2 13 -14.5 21.5t-24.5 10.5zM225 671q-21 -3 -30 -10t-7 -25l68 -558q2 -11 12 -19t30 -6q22 3 30 22.5
t4 49.5l-60 492q-1 9 -5.5 19t-10.5 18t-14 13t-17 4z" />
    <glyph glyph-name="FL0045h" unicode="E" horiz-adv-x="536" 
d="M274 656q-2 11 -16 18t-31 7q-13 -4 -25 -15.5t-10 -24.5l32 -256q18 2 29.5 12t6.5 45l41 5l18 -152l-40 -5l-1 6q-4 31 -16 37t-32 3l32 -266q2 -13 16.5 -21.5t32.5 -11.5q12 4 24 13.5t10 23.5l-19 161q-3 21 5.5 38t23 29.5t32 20.5t33.5 12l94 12l5 -39
q-10 -4 -22 -19.5t-10 -27.5l28 -233l-445 -55l-5 36q11 5 22 16.5t9 24.5l-71 571q-2 12 -14.5 20.5t-24.5 10.5l-4 37l445 54l29 -233q1 -5 5.5 -11.5t11 -12.5t13.5 -10t13 -4l5 -39l-94 -11q-16 -1 -35.5 3t-37 13t-29.5 23.5t-14 34.5z" />
    <glyph glyph-name="FL0046h" unicode="F" horiz-adv-x="536" 
d="M70 -27l-5 36q11 7 21.5 18.5t9.5 22.5l-71 571q-2 12 -14.5 20.5t-24.5 10.5l-4 37l445 54l29 -233q1 -5 5.5 -11.5t11 -12.5t13.5 -10t13 -4l5 -39l-94 -11q-16 -1 -35.5 3t-37 13t-29.5 23.5t-14 34.5l-20 160q-2 11 -16 18t-31 7q-4 -2 -10.5 -6t-12.5 -9.5t-9.5 -12
t-2.5 -12.5l33 -270q9 1 17 3.5t13 8.5t7 16.5t0 27.5l41 5l18 -151l-41 -5v6q-4 30 -16.5 36.5t-32.5 3.5l32 -256q4 -11 15.5 -18.5t22.5 -9.5l4 -36z" />
    <glyph glyph-name="FL0047h" unicode="G" horiz-adv-x="495" 
d="M467 98q2 -17 -12 -32t-32.5 -27t-37.5 -19.5t-28 -8.5l-179 -22q-12 -2 -31.5 1t-37.5 10.5t-32 19t-16 28.5l-70 568q-3 26 7 42.5t26 26t34 13.5t32 6l189 24q12 1 31 2.5t37 -3t32.5 -18t17.5 -41.5l10 -81q1 -10 15.5 -23.5t27.5 -14.5l4 -38l-95 -11
q-16 -1 -35 2.5t-36 12.5t-29.5 23t-15.5 35l-5 40q-2 19 -14.5 37t-32.5 16q-23 -8 -28.5 -21.5t-5.5 -31.5l63 -516q2 -21 12.5 -36t31.5 -12h3q14 2 25 19.5t11 35.5l-28 225q-2 13 -15 21.5t-23 10.5l-4 36l228 28l4 -36q-9 -5 -20 -16t-9 -24z" />
    <glyph glyph-name="FL0048h" unicode="H" horiz-adv-x="537" 
d="M70 -29l-4 36q8 4 19 15.5t9 24.5l-70 571q-2 13 -15 21.5t-22 10.5l-4 36l160 20q8 1 15.5 -6t13.5 -18t10 -23t5 -21l28 -225l81 10l-28 232q-2 9 -16 15t-22 10l-4 36l229 28l5 -36q-9 -5 -20.5 -16t-9.5 -24l82 -666q1 -11 9 -17.5t19.5 -9.5t24.5 -4t24 -2l3 -1
l4 -37l-114 -14q-17 -2 -37.5 0t-40 9t-33.5 21t-17 36l-48 390l-85 -11l36 -295q2 -13 14.5 -21.5t23.5 -10.5l5 -36z" />
    <glyph glyph-name="FL0049h" unicode="I" horiz-adv-x="285" 
d="M69 -12l-5 36q11 5 22 16.5t9 24.5l-70 571q-2 13 -15 21t-25 10l-4 37l235 29l5 -37q-10 -4 -21 -15.5t-9 -24.5l70 -571q2 -12 15 -21t24 -11l4 -36z" />
    <glyph glyph-name="FL004Ah" unicode="J" horiz-adv-x="530" 
d="M339 106l-66 552q-2 9 -16 15t-22 10l-4 37l229 28l5 -37q-9 -4 -20.5 -15.5t-9.5 -24.5l70 -571q2 -17 -12 -32t-32.5 -27t-37.5 -19.5t-27 -8.5l-170 -20q-9 -1 -29 1.5t-41.5 9.5t-38.5 18t-19 28l-19 161q-2 13 -16.5 24.5t-26.5 13.5l-5 39l95 12q17 0 36 -3.5
t36 -12.5t29 -23.5t15 -35.5l16 -129q2 -18 16.5 -32.5t29.5 -12.5l1 1q16 2 26 19t8 35z" />
    <glyph glyph-name="FL004Bh" unicode="K" horiz-adv-x="528" 
d="M215 679q-14 -8 -22 -17t-10 -23l28 -228l15 2q16 2 33 7t30 16l-24 198q-3 21 5 37.5t22.5 29.5t32 21t33.5 12l94 11l5 -39q-11 -4 -23 -18t-10 -27l22 -179h-1q0 -18 -11.5 -36.5t-19.5 -25.5l3 -3q4 -1 10.5 -6.5t13 -14t12 -20.5t7.5 -25l43 -349q1 -13 11 -20.5
t23 -10.5t26 -3.5t20 0.5l4 -37l-114 -15q-16 -2 -37 0t-40 9.5t-33.5 21t-17.5 35.5l-44 360q-8 18 -30.5 20.5t-53.5 -1.5l36 -293q2 -13 14.5 -22t22.5 -11l5 -36l-232 -28l-4 36q11 5 21.5 16.5t8.5 24.5l-70 570q-3 10 -13.5 19t-25.5 13l-4 37l235 28z" />
    <glyph glyph-name="FL004Ch" unicode="L" horiz-adv-x="536" 
d="M25 622q-7 13 -15.5 20.5t-23.5 9.5l-4 37l235 29l5 -37q-10 -5 -20.5 -15.5t-8.5 -23.5l70 -570q2 -13 16 -22.5t32 -12.5q11 4 17 7t14 12q4 7 3 18l-19 161q-3 21 5.5 38t23 29.5t32 20.5t33.5 12l94 12l5 -39q-10 -4 -22 -19.5t-10 -27.5l28 -233l-445 -55l-5 36
q11 5 22 16.5t9 24.5z" />
    <glyph glyph-name="FL004Dh" unicode="M" horiz-adv-x="706" 
d="M438 661l-84 -310l-157 280q-8 19 -19 31.5t-21.5 20t-19.5 10.5t-13 3l-142 -18l5 -36q11 -2 24 -10.5t15 -21.5l70 -571q2 -12 -8.5 -24t-21.5 -17l4 -35l231 28l-5 36q-9 2 -22.5 10.5t-15.5 21.5l-42 343l168 -297l92 330l42 -344q1 -6 -2 -12.5t-7.5 -12t-10 -9.5
t-9.5 -7l4 -35l229 28l-4 36q-10 2 -23 10.5t-15 21.5l-70 571q-2 13 9 24t20 16l-4 36l-141 -17q-5 0 -13 -8t-16.5 -20t-16 -26t-10.5 -26z" />
    <glyph glyph-name="FL004Eh" unicode="N" horiz-adv-x="534" 
d="M440 671l-1 -1v1q-2 12 9.5 24t19.5 16l-5 36l-228 -28l4 -36q9 -2 22.5 -9t15.5 -15l34 -279l-174 254q-5 12 -14.5 23.5t-19.5 20.5t-19 15t-14 6l-88 -11l4 -36q11 -2 24 -10.5t15 -20.5l71 -571q2 -13 -9.5 -25t-21.5 -16l5 -36l230 28l-4 36q-10 2 -23 11t-15 22
l-31 252l174 -239q3 -10 11 -21t18 -20.5t20.5 -15t18.5 -4.5l50 6z" />
    <glyph glyph-name="FL004Fh" unicode="O" horiz-adv-x="457" 
d="M90 707q-14 -2 -32 -6.5t-34 -14t-26 -26t-7 -43.5l69 -567q2 -16 16 -28t32.5 -19.5t38 -10.5t31.5 -1l189 23q12 1 30 8.5t34 19t26.5 26.5t8.5 32l-69 564q-3 28 -17 42.5t-32.5 20t-37.5 5t-32 -1.5zM191 669q10 1 18 -4t14 -13t10 -18t5 -19l60 -492q4 -30 -1 -49
t-33 -23q-21 -2 -31.5 12.5t-12.5 35.5l-62 506q-1 9 0 19.5t5 20t10.5 16.5t17.5 8z" />
    <glyph glyph-name="FL0050h" unicode="P" horiz-adv-x="492" 
d="M70 -24l-5 35q11 5 21.5 17t8.5 24l-70 571q-2 13 -14.5 21.5t-24.5 10.5l-4 36l313 39q9 1 30 2t43.5 -3.5t40.5 -17.5t21 -40l26 -209q3 -26 -7.5 -42t-28.5 -26t-40.5 -15t-42.5 -8l-115 -14l35 -285q2 -13 15.5 -21.5t22.5 -10.5l5 -36zM223 670l-39 -5l32 -257l38 4
q8 4 20.5 20.5t14.5 41.5l-17 143q-2 19 -16.5 37t-32.5 16z" />
    <glyph glyph-name="FL0051h" unicode="Q" horiz-adv-x="457" 
d="M171 -9q-12 -2 -31 0.5t-37.5 10t-32.5 19.5t-16 29l-70 568q-3 26 7.5 42.5t26.5 26t34 13.5t31 6l189 23q13 2 32 2.5t37.5 -5.5t32.5 -20t17 -42l69 -564q1 -13 -4.5 -25t-15 -22t-22.5 -18t-26 -12l3 -28q2 -13 12.5 -20t23.5 -10.5t26 -3.5t19 1l5 -38l-114 -14
q-17 -2 -38 0t-40 9t-33 21t-17 36l-3 23zM185 668q-10 -1 -17 -7.5t-11 -16t-5.5 -20t-0.5 -19.5l62 -506q3 -21 13.5 -36t31.5 -12q27 3 32.5 22.5t1.5 48.5l-60 493q-2 19 -14.5 37t-32.5 16z" />
    <glyph glyph-name="FL0052h" unicode="R" horiz-adv-x="491" 
d="M63 -29l-4 36q11 4 21.5 16t8.5 25l-70 570q-2 13 -15 21.5t-24 10.5l-4 36l325 40q18 2 38.5 0t38.5 -10t31 -23t16 -38l21 -172q1 -9 -2.5 -18.5t-8.5 -18t-11 -15.5t-10 -11l3 -3q9 -2 24.5 -20t19.5 -46l43 -349q1 -13 11 -20.5t23 -11t26 -3.5t21 1l4 -37l-115 -15
q-16 -2 -37 0t-40 9.5t-33.5 21t-17.5 35.5l-44 360q-8 18 -31 20t-54 -2l36 -292q2 -13 14.5 -22t22.5 -11l5 -36zM180 661l31 -250q7 1 20.5 3.5t26 8t21 14t7.5 22.5l-23 181q-2 20 -21 23t-42 1z" />
    <glyph glyph-name="FL0053h" unicode="S" horiz-adv-x="533" 
d="M228 669q-23 -8 -28 -22t-6 -32l22 -175q2 -18 9.5 -30.5t24.5 -16.5l107 13q13 2 31.5 3t36.5 -4t32 -18.5t17 -40.5l31 -246q2 -17 -9 -32t-27 -26.5t-34 -19t-30 -8.5l-178 -22q-9 -1 -29.5 2t-41.5 10t-38 18.5t-19 27.5l-20 161q-2 13 -16.5 24.5t-26.5 13.5l-5 39
l95 12q17 0 36 -3.5t36 -12.5t29 -23.5t15 -35.5l16 -129q2 -18 16.5 -32.5t29.5 -12.5l3 1q21 2 27.5 19t3.5 38l-24 195q-5 17 -13.5 29t-32.5 14l-95 -11q-12 -2 -31 0.5t-37 9t-32 18.5t-16 29l-28 225q-3 26 7 42.5t26 26.5t34 14t32 6l188 23q13 1 31.5 2.5t36.5 -3
t32.5 -18t18.5 -41.5l17 -141q2 -12 16.5 -24.5t26.5 -13.5l5 -39l-96 -12q-16 -1 -35 3t-36 13t-29.5 23.5t-15.5 35.5l-12 100q-1 9 -5 19t-10 18t-14.5 13t-18.5 4z" />
    <glyph glyph-name="FL0055h" unicode="T" horiz-adv-x="523" 
d="M-18 688l11 -88l34 4q2 11 10 25t19 16l72 9q6 -5 11.5 -11t6.5 -12l70 -566q1 -13 -10.5 -25t-20.5 -16l5 -36l234 29l-4 36q-10 2 -23 11t-15 22l-69 565q-2 13 9 27l71 8q11 1 22.5 -11t15.5 -21l34 4l-11 88z" />
    <glyph glyph-name="FL0056h" unicode="U" horiz-adv-x="534" 
d="M468 709q-10 -6 -22 -19.5t-10 -27.5l69 -562q2 -17 -12 -32t-32.5 -27t-37.5 -19.5t-27 -8.5l-170 -21q-9 -1 -29 2t-41.5 10t-38.5 18.5t-19 27.5l-68 562q-2 13 -16.5 24.5t-26.5 13.5l-5 39l95 12q16 0 35.5 -3.5t36 -12.5t29 -23.5t15.5 -35.5l65 -530
q2 -18 16.5 -32.5t29.5 -12.5h1q16 2 26 19.5t8 35.5l-65 530q-3 21 5.5 38t23.5 29.5t33 20.5t33 12l94 12z" />
    <glyph glyph-name="FL0057h" unicode="V" horiz-adv-x="534" 
d="M181 625l120 -546l-15 578q3 17 12.5 30.5t22.5 23.5t28 16.5t29 9.5l85 11l5 -39q-2 0 -7 -4t-10.5 -10.5t-10 -15t-4.5 -17.5l9 -569q2 -17 -11.5 -32t-32 -27t-37.5 -19.5t-28 -8.5l-52 -6q-9 -1 -29 1.5t-41 9.5t-38 18t-19 28l-127 555q-6 17 -21.5 28t-21.5 10
l-5 39l86 10q16 0 34.5 -3.5t35 -12t28.5 -23t15 -35.5z" />
    <glyph glyph-name="FL0058h" unicode="W" horiz-adv-x="780" 
d="M520 650q-2 18 6 35t21.5 31t29.5 23t30 11l101 13l5 -39q-6 -3 -12 -8t-11 -11.5t-7.5 -14t-1.5 -13.5l69 -562q2 -17 -12 -32t-33 -27t-38 -19.5t-26 -8.5l-414 -51q-9 -1 -29 2t-41.5 10t-38.5 18.5t-19 27.5l-69 562q-2 13 -16 24.5t-27 13.5l-4 39l95 12
q16 0 35.5 -3.5t36 -12.5t29 -23.5t15.5 -35.5l65 -530q2 -18 16.5 -32.5t29.5 -12.5h1q16 2 26 19.5t8 35.5l-62 507q-2 13 -15 21.5t-23 10.5l-4 36l230 28l4 -36q-11 -5 -21 -16t-8 -24l62 -507q2 -18 16 -32.5t30 -12.5h1q16 2 26.5 19.5t8.5 35.5z" />
    <glyph glyph-name="FL0059h" unicode="X" horiz-adv-x="528" 
d="M307 346l31 -255q3 -23 17.5 -37t34 -21.5t40.5 -9.5t37 0l78 10l-5 39q-16 -2 -28 5t-16 33l-30 246q-2 13 -7.5 24t-12 19t-13 13.5t-10.5 7.5l-2 4q7 7 18.5 25.5t11.5 36.5h1l-22 179q-2 12 10.5 26.5t22.5 18.5l-5 39l-94 -12q-17 -3 -34 -11t-31 -21t-22 -30
t-6 -38l25 -198q-5 -4 -18 -7.5t-21 -6.5q-8 1 -22.5 0.5t-20.5 2.5l-24 198q-3 21 -15 35.5t-28.5 23.5t-35 12.5t-34.5 3.5l-95 -12l5 -39q12 -2 26 -12.5t16 -23.5l22 -178h1q5 -18 20.5 -33t24.5 -20l-2 -3q-8 -5 -18.5 -26t-7.5 -49l30 -244q4 -26 -7 -36t-27 -12
l5 -40l79 10q16 2 36.5 9t37 19t27 29t7.5 40l-31 254q4 12 12.5 16.5t17.5 8.5l9 2q11 -2 25 -4.5t17 -10.5z" />
    <glyph glyph-name="FL005Ah" unicode="Y" horiz-adv-x="534" 
d="M468 709l-5 39l-94 -12q-15 -4 -33 -12t-33 -20.5t-23.5 -29.5t-5.5 -38l23 -188q2 -17 -5 -31t-21 -21l-16 -2q-30 7 -38 40l-24 192q-3 21 -15.5 35.5t-29 23.5t-36 12.5t-35.5 3.5l-95 -12l5 -39q12 -2 26.5 -13.5t16.5 -24.5l26 -218q2 -15 17 -27t35.5 -19.5
t41 -10.5t34.5 -1l88 11q21 -4 29.5 -14.5t13.5 -27.5l24 -196q3 -21 -3.5 -38t-27.5 -19l-3 -1q-15 -2 -29.5 12.5t-16.5 32.5l-16 129q-3 21 -15 35.5t-29 23.5t-36 12.5t-36 3.5l-95 -12l5 -39q12 -2 26.5 -13.5t16.5 -24.5l19 -161q2 -17 19 -28t38 -18t41.5 -9.5
t29.5 -1.5l179 22q12 1 30 8.5t34 19t26.5 26.5t8.5 31l-69 562q-2 14 10 27.5t22 19.5z" />
    <glyph glyph-name="FL005Bh" unicode="Z" horiz-adv-x="536" 
d="M475 664l-249 -568l6 -54l103 13q11 11 10 19l-19 161q-3 21 5.5 38t23 29.5t32 20.5t33.5 12l94 12l5 -39q-5 -2 -11 -7.5t-11 -12.5t-8 -14.5t-2 -12.5l28 -233l-444 -55l-10 77l249 573l-7 56l-102 -13l-7 -9q-5 -6 -3 -11l19 -160q3 -21 -5.5 -38t-23 -30t-32 -21
t-33.5 -11l-96 -12l-4 39q6 2 11.5 7.5t10.5 12.5t7.5 14t2.5 13l-28 233l444 55z" />
    <glyph glyph-name="FL005Dh" unicode="[" horiz-adv-x="236" 
d="M58 30l-68 555q-2 19 6 34.5t21 27t29.5 19t31.5 10.5l90 11l4 -35q-11 -5 -21 -17t-11 -23l69 -564q3 -24 15 -30t26 -4l5 -35l-75 -9q-15 -2 -35 -0.5t-38.5 8.5t-32 19.5t-16.5 32.5z" />
    <glyph glyph-name="FL005Ch" unicode="\" horiz-adv-x="501" 
d="M476 91l-399 533l-92 -11l4 -32q10 -2 20 -10.5t17 -17.5l396 -534l93 11l-3 32q-10 2 -22 10t-14 19z" />
    <glyph glyph-name="FL005Eh" unicode="]" horiz-adv-x="236" 
d="M246 53l-69 556q-2 19 -13 32t-26.5 21t-33.5 11t-33 2l-91 -11l4 -35q12 -2 25.5 -11t17.5 -20l69 -564q3 -23 -8 -32t-25 -11l4 -35l76 9q15 2 34 8.5t35 17.5t26 26.5t8 35.5z" />
    <glyph glyph-name="FL005Fh" unicode="^" horiz-adv-x="476" 
d="M485 33l-4 31q-10 2 -22.5 10t-14.5 19l-63 510q-2 12 9.5 22t19.5 14l-4 32l-297 -37q-8 -1 -29 -4.5t-42.5 -12t-37.5 -23.5t-13 -39l73 -595q1 -12 -6.5 -20.5t-18.5 -14t-23 -8.5t-19 -4l5 -35l109 14q16 2 35 8.5t35 17t26 26t8 35.5l-43 347l90 11l32 -263
q2 -11 -9 -21.5t-20 -15.5l4 -31zM181 598l44 5l27 -220l-84 -10l-21 168q-2 17 6 36t28 21z" />
    <glyph glyph-name="FL0060h" unicode="_" horiz-adv-x="344" 
d="M27 -18l-6 44l295 36l6 -44z" />
    <glyph glyph-name="FL0067h" unicode="`" horiz-adv-x="200" 
d="M181 638l-97 -12l-66 84l105 13z" />
    <glyph glyph-name="FL0061h" unicode="a" horiz-adv-x="487" 
d="M64 -28l-4 31q9 5 19.5 15.5t8.5 21.5l-63 510q-1 11 -13.5 18.5t-21.5 9.5l-4 32l297 36q7 1 28.5 2.5t44 -1.5t41.5 -13.5t22 -34.5l73 -595q2 -17 21 -24t36 -7q15 0 20 1l4 -35l-109 -13q-15 -2 -35 -0.5t-38.5 8.5t-32 19.5t-15.5 32.5l-43 347l-89 -11l32 -263
q2 -11 14.5 -19t21.5 -10l4 -32zM222 593l-44 -5l27 -220l84 10l-20 169q-2 17 -15.5 32.5t-31.5 13.5z" />
    <glyph glyph-name="FL0062h" unicode="b" horiz-adv-x="483" 
d="M64 -23l-4 31q8 5 19 15.5t10 21.5l-63 510q-2 11 -14.5 18.5t-22.5 9.5l-4 32l311 38q18 2 37.5 0.5t36.5 -8.5t29 -20t14 -34l19 -154q1 -8 -2 -16.5t-8 -16.5t-10.5 -14t-9.5 -9l2 -4q9 -2 24.5 -17t18.5 -40l28 -227q2 -15 -8.5 -28.5t-26 -24t-32.5 -17.5t-29 -8z
M318 112l-24 198q-8 15 -30.5 17t-51.5 -2l32 -261q2 -12 15 -19l40 5q17 2 19.5 19t-0.5 43zM179 594l28 -223q7 1 20 3t25 7t20.5 13t7.5 21l-20 161q-1 9 -7 14t-14.5 7t-19 1.5t-21.5 -1.5z" />
    <glyph glyph-name="FL0063h" unicode="c" horiz-adv-x="472" 
d="M184 595q-21 -8 -27 -20t-6 -29l56 -460q2 -19 12.5 -31.5t29.5 -10.5h3q14 2 24.5 17.5t8.5 30.5l-14 116q-2 19 6 34t21.5 26.5t30.5 19t32 10.5l90 11l4 -34q-11 -4 -22 -18t-9 -25l18 -144q2 -15 -11.5 -28.5t-31.5 -24t-36 -17.5t-25 -8l-171 -21q-12 -2 -30.5 0
t-35.5 8.5t-30 17.5t-15 26l-62 507q-3 24 7 39t25.5 23t33 11.5t29.5 5.5l179 22q12 1 29.5 2.5t34.5 -2.5t30.5 -15.5t16.5 -35.5l18 -144q2 -11 15.5 -22t25.5 -13l4 -33l-91 -11q-15 -1 -33 2t-34 10.5t-27.5 20.5t-13.5 32l-14 107q-1 9 -4.5 18t-9.5 16t-14 11t-17 3z
" />
    <glyph glyph-name="FL0064h" unicode="d" horiz-adv-x="468" 
d="M-15 615l308 38q12 1 31 1.5t38 -4t33.5 -17t17.5 -37.5l62 -503q2 -15 -9 -28.5t-27 -24t-34 -17.5t-31 -8l-310 -38l-4 31q8 5 19 15.5t10 21.5l-63 510q-2 11 -14.5 18.5t-22.5 9.5zM216 599q-19 -2 -27.5 -8.5t-6.5 -23.5l61 -497q1 -10 10.5 -17t28.5 -5
q20 2 28 19.5t5 43.5l-54 440q-1 9 -5 18t-10 16t-13.5 11t-16.5 3z" />
    <glyph glyph-name="FL0065h" unicode="e" horiz-adv-x="510" 
d="M263 586q-2 9 -15 15.5t-29 7.5q-11 -4 -23.5 -15t-10.5 -22l28 -229q18 2 28.5 11t6.5 40l39 4l16 -135l-38 -4l-1 6q-3 26 -15 31t-31 3l29 -237q2 -11 16 -18t30 -10q12 3 24 11t10 22l-18 143q-2 19 6.5 34.5t22 27t30.5 18.5t32 10l90 12l4 -35q-11 -5 -22 -18
t-9 -24l26 -209l-425 -52l-4 32q8 4 19 15t10 22l-63 510q-2 11 -14.5 18.5t-22.5 9.5l-4 31l425 52l26 -207q2 -11 15.5 -22t24.5 -12l4 -34l-90 -11q-15 -1 -33 2t-34.5 10.5t-28.5 20.5t-14 32z" />
    <glyph glyph-name="FL0066h" unicode="f" horiz-adv-x="510" 
d="M64 -26l-4 32q11 7 21 16.5t8 20.5l-63 510q-2 11 -14.5 18.5t-22.5 9.5l-4 31l425 52l26 -207q2 -11 15.5 -22t24.5 -12l4 -34l-90 -11q-15 -1 -33 2t-34.5 10.5t-28.5 20.5t-14 32l-17 143q-2 9 -15 15.5t-29 7.5q-5 -2 -11 -6t-11.5 -9t-9 -10.5t-2.5 -11.5l29 -241
q9 1 16.5 3.5t12.5 7.5t7 14.5t0 25.5l38 5l17 -135l-39 -5v5q-4 26 -15.5 32t-30.5 3l28 -228q3 -9 15 -16.5t20 -9.5l4 -31z" />
    <glyph glyph-name="FL00A7h" unicode="g" horiz-adv-x="472" 
d="M442 88q2 -15 -11.5 -28.5t-31.5 -24t-36 -17.5t-25 -8l-171 -21q-12 -2 -30.5 0t-35.5 8.5t-30 17.5t-15 26l-62 507q-3 24 7 39t25.5 23t33 11.5t29.5 5.5l179 22q12 1 29.5 2.5t34.5 -2.5t30.5 -15.5t16.5 -35.5l9 -72q2 -11 15.5 -22t25.5 -12l4 -34l-91 -11
q-15 -1 -33 2t-34 11t-27.5 21t-13.5 31l-5 35q-1 9 -4.5 18t-9.5 16t-14 11t-17 3q-21 -8 -27 -20t-6 -29l56 -460q2 -19 12.5 -31.5t29.5 -10.5h3q14 2 24 17t10 32l-25 201q-1 11 -13.5 18.5t-21.5 9.5l-4 32l217 26l4 -31q-8 -5 -19 -15t-10 -21z" />
    <glyph glyph-name="h" unicode="h" horiz-adv-x="511" 
d="M64 -28l-4 32q9 4 19.5 14.5t8.5 21.5l-63 511q-1 11 -13.5 18.5t-21.5 9.5l-4 31l154 19q8 1 14.5 -5t12 -15.5t9 -20t4.5 -18.5l25 -202l77 10l-25 207q-1 7 -14 13.5t-21 8.5l-4 32l217 26l4 -31q-4 -2 -9 -5.5t-9 -8.5t-7 -10.5t-2 -11.5l73 -594q1 -11 9.5 -17
t19.5 -9t24 -3.5t23 -0.5l4 -35l-109 -14q-15 -2 -35 0t-38.5 8.5t-32 19t-15.5 32.5l-43 348l-81 -10l32 -264q2 -11 14.5 -18.5t21.5 -9.5l4 -32z" />
    <glyph glyph-name="i" unicode="i" horiz-adv-x="272" 
d="M63 -11l-4 32q8 4 19 14.5t10 21.5l-63 510q-2 11 -14.5 18.5t-22.5 9.5l-3 32l223 27l4 -31q-8 -5 -19 -15t-9 -21l63 -510q1 -11 14 -19t21 -10l4 -32z" />
    <glyph glyph-name="FL006Ah" unicode="j" horiz-adv-x="505" 
d="M321 95l-59 493q-2 7 -14.5 13.5t-20.5 8.5l-4 32l218 27l4 -32q-8 -4 -19.5 -14t-9.5 -22l63 -510q2 -15 -11.5 -29t-31.5 -24.5t-36.5 -17t-25.5 -7.5l-161 -20q-8 -1 -27.5 1t-39.5 8t-36 16t-18 25l-18 144q-2 11 -15.5 21.5t-24.5 12.5l-5 34l91 11q16 1 34 -2
t34 -11t27.5 -21t14.5 -32l14 -115q1 -16 15.5 -28.5t28.5 -10.5h1q14 2 24 17.5t8 31.5z" />
    <glyph glyph-name="FL006Bh" unicode="k" horiz-adv-x="503" 
d="M207 606q-27 -13 -31 -36l25 -203l15 1q14 2 32 6.5t29 14.5l-22 177q-2 19 6 34.5t21.5 27t29.5 18.5t31 9l90 11l5 -34q-11 -4 -22.5 -16.5t-9.5 -24.5l20 -160h-1q0 -15 -11 -32t-19 -23l2 -4q4 0 10.5 -4.5t12.5 -12t11 -18t7 -22.5l39 -312q1 -11 10.5 -17.5
t21.5 -9.5t24.5 -3.5t19.5 0.5l4 -34l-109 -14q-15 -2 -35 -0.5t-38.5 8.5t-32 19.5t-15.5 32.5l-40 321q-7 15 -29 17t-51 -2l32 -261q2 -11 14 -19t22 -10l4 -32l-221 -27l-4 32q9 4 19.5 15t9.5 22l-63 510q-3 8 -12.5 16t-23.5 12l-4 31l223 28z" />
    <glyph glyph-name="FL006Ch" unicode="l" horiz-adv-x="510" 
d="M26 554q-7 11 -14.5 18t-22.5 9l-4 31l224 28l4 -32q-8 -4 -18.5 -14t-8.5 -21l62 -509q2 -11 15.5 -19t29.5 -11q11 3 17 5t13 11q4 7 4 17l-18 143q-2 19 6.5 34.5t22 27t30.5 18.5t32 10l90 12l4 -35q-11 -5 -22 -18t-9 -24l26 -209l-425 -52l-4 32q8 4 19 15t10 22z
" />
    <glyph glyph-name="FL006Dh" unicode="m" horiz-adv-x="672" 
d="M420 591l-83 -279l-147 251q-16 33 -38 45t-32 11l-134 -17l4 -31q9 -2 22 -9.5t15 -18.5l62 -510q2 -11 -9 -22t-19 -15l3 -32l220 27l-4 32q-9 2 -21.5 10t-14.5 19l-38 308l158 -266l89 296l38 -308q2 -11 -9 -21.5t-19 -15.5l3 -31l220 27l-4 31q-10 2 -22 10t-14 19
l-63 510q-1 11 9.5 21.5t18.5 14.5l-4 32l-134 -17q-3 0 -11.5 -7.5t-17.5 -18t-16 -23t-8 -22.5z" />
    <glyph glyph-name="FL006Eh" unicode="n" 
d="M421 600h-1v1q-2 12 9 22t19 14l-4 32l-217 -27l4 -32q7 -2 20 -8.5t14 -13.5l31 -249l-164 227q-4 10 -12.5 20.5t-18.5 18.5t-18.5 13t-12.5 5l-85 -11l4 -31q10 -2 22.5 -9.5t14.5 -18.5l63 -510q1 -11 -10 -22t-19 -15l4 -32l219 27l-4 32q-9 2 -21.5 10t-13.5 19
l-28 225l164 -211q2 -9 9.5 -19t17 -18.5t19.5 -13.5t18 -4l48 6z" />
    <glyph glyph-name="o" unicode="o" horiz-adv-x="436" 
d="M88 630q-12 -2 -29.5 -5.5t-33 -12.5t-25.5 -24t-7 -39l63 -506q2 -15 15 -25.5t30 -17t35.5 -9t30.5 -0.5l180 23q12 1 29 7.5t32.5 17t25.5 24t8 28.5l-62 503q-3 25 -16.5 37.5t-31 17.5t-35 4.5t-29.5 -1.5zM184 597q19 2 31 -14t14 -34l54 -440q4 -26 -2 -43
t-32 -20q-19 -2 -29.5 10.5t-12.5 31.5l-55 452q-2 17 5.5 36t26.5 21z" />
    <glyph glyph-name="FL0070h" unicode="p" horiz-adv-x="468" 
d="M64 -23l-4 31q8 5 19 15.5t10 21.5l-63 510q-2 11 -14.5 18.5t-22.5 9.5l-4 32l299 37q8 1 28 2t41 -3t38.5 -15t20.5 -35l23 -187q3 -22 -7.5 -37t-28 -24.5t-38.5 -14t-40 -6.5l-109 -14l31 -254q2 -11 14.5 -19t21.5 -10l4 -31zM214 598l-36 -5l29 -229l35 4
q8 4 20.5 18t14.5 38l-16 127q-2 17 -14.5 33t-32.5 14z" />
    <glyph glyph-name="FL0071h" unicode="q" horiz-adv-x="436" 
d="M161 -9q-12 -2 -30.5 0t-35.5 8.5t-30 17.5t-15 26l-62 507q-3 24 7 39t25.5 23t33 11.5t29.5 5.5l179 22q12 1 29.5 2t35 -3.5t31 -17.5t16.5 -38l62 -504q3 -23 -18.5 -40.5t-46.5 -28.5l3 -24q2 -17 21.5 -24t36.5 -7q14 0 18 1l4 -35l-108 -13q-16 -2 -36 -0.5
t-38.5 8.5t-31.5 19.5t-15 32.5l-2 20zM178 597q-18 -2 -26 -21.5t-6 -36.5l56 -451q2 -19 12 -32t29 -11q26 4 32 21t3 43l-54 440q-2 18 -15 34t-31 14z" />
    <glyph glyph-name="FL0073h" unicode="r" horiz-adv-x="467" 
d="M58 -28l-4 32q9 4 19.5 15t9.5 22l-63 510q-1 11 -14 18.5t-22 9.5l-4 31l310 38q17 2 36.5 0.5t36.5 -8.5t29 -20t15 -34l19 -154q2 -17 -10.5 -32.5t-20.5 -23.5l3 -4q4 0 10.5 -4.5t12.5 -12t11 -18t7 -22.5l39 -312q1 -11 10.5 -17.5t21.5 -9.5t24.5 -3.5t19.5 0.5
l4 -34l-109 -14q-15 -2 -35 -0.5t-38.5 8.5t-32 19.5t-15.5 32.5l-40 321q-8 14 -30 16.5t-51 -1.5l32 -261q2 -11 14 -19t22 -10l4 -32zM174 590l27 -224q7 1 19.5 3.5t25 7t21 13t6.5 21.5l-19 160q-2 19 -21 21.5t-40 -0.5z" />
    <glyph glyph-name="FL0074h" unicode="s" horiz-adv-x="508" 
d="M220 597q-21 -8 -27 -20t-6 -28l19 -155q2 -17 10 -29t22 -14l102 13q12 1 29.5 2t35 -3t30.5 -15.5t16 -36.5l27 -220q2 -15 -8 -28.5t-25.5 -24t-32.5 -17t-29 -7.5l-170 -21q-8 -1 -27.5 1t-39.5 8t-36 16t-18 25l-18 144q-2 11 -15.5 21.5t-24.5 12.5l-5 34l91 11
q16 1 34 -2t34 -11t27.5 -21t14.5 -32l14 -115q1 -16 15.5 -28.5t28.5 -10.5l3 1q19 2 25.5 17t4.5 34l-22 173q-4 16 -12.5 26.5t-31.5 12.5l-90 -11q-12 -2 -30.5 0t-35.5 8t-30 16.5t-15 25.5l-25 201q-3 24 7 39t25.5 23.5t33 12t29.5 5.5l180 22q12 1 29.5 2t34.5 -3
t30.5 -15.5t16.5 -35.5l16 -126q2 -11 15.5 -22t24.5 -13l4 -33l-90 -11q-15 -1 -33 2t-34.5 10.5t-28 20.5t-13.5 32l-11 89q-2 18 -14 34t-31 14z" />
    <glyph glyph-name="FL0075h" unicode="t" horiz-adv-x="499" 
d="M-15 613l10 -79l33 4q1 9 9 22t19 14l68 9q6 -5 11 -10t6 -10l62 -506q2 -11 -9.5 -21.5t-19.5 -14.5l4 -32l223 27l-4 32q-9 2 -21.5 10t-13.5 19l-62 505q-2 11 9 23l67 9q11 1 22 -10t15 -19l32 4l-10 79z" />
    <glyph glyph-name="u" unicode="u" 
d="M448 635q-11 -5 -22 -18t-9 -24l62 -502q2 -15 -11.5 -29t-31.5 -24.5t-36 -17.5t-25 -8l-162 -19q-8 -1 -27.5 1t-39.5 7.5t-36 16t-18 25.5l-62 502q-2 11 -15.5 21.5t-24.5 12.5l-5 33l91 12q15 2 33 -1t34 -11t28 -21.5t15 -32.5l58 -473q1 -16 15.5 -28.5
t28.5 -10.5h1q14 2 24 17.5t8 30.5l-58 474q-2 20 7 35t23.5 26t31 18t29.5 11l90 11z" />
    <glyph glyph-name="FL0076h" unicode="v" 
d="M175 557l111 -487l-11 517q2 15 11 27t21.5 21t27 15t28.5 9l81 10l4 -34q-1 0 -6 -3.5t-10.5 -9.5t-10 -13.5t-4.5 -15.5l5 -509q2 -15 -11 -29t-31 -24.5t-36.5 -17.5t-26.5 -8l-49 -6q-8 -1 -27.5 1t-39.5 8t-36 16.5t-18 25.5l-117 495q-3 6 -8.5 12.5t-11.5 11.5
t-11.5 7.5t-8.5 2.5l-5 33l82 10q15 2 33 -1t33.5 -10.5t27 -21t14.5 -32.5z" />
    <glyph glyph-name="FL0077h" unicode="w" horiz-adv-x="743" 
d="M496 581q-2 16 6.5 31.5t21.5 28t28.5 20.5t28.5 10l96 12l4 -34q-11 -5 -22 -18t-9 -24l62 -502q2 -15 -11.5 -29t-31.5 -24.5t-36 -17t-25 -7.5l-394 -49q-8 -1 -27.5 1t-39.5 8t-36 16.5t-18 25.5l-62 502q-2 11 -15.5 21t-25.5 12l-4 34l91 11q15 1 33.5 -2
t34.5 -10.5t27.5 -20.5t13.5 -32l59 -473q2 -16 16 -28.5t28 -10.5h1q14 2 24 17t8 31l-56 453q-1 11 -13.5 19t-21.5 10l-4 31l219 27l4 -31q-8 -4 -19.5 -15t-9.5 -22l56 -453q1 -16 15.5 -28.5t28.5 -10.5h1q14 2 24 17.5t8 31.5z" />
    <glyph glyph-name="FL0078h" unicode="x" horiz-adv-x="503" 
d="M293 309l28 -227q2 -20 15.5 -32.5t32 -19.5t38.5 -8.5t35 0.5l74 9l-4 35q-14 -2 -26 4t-15 30l-27 218q-2 12 -7 22.5t-11.5 18.5t-12.5 12.5t-10 4.5l-2 4q7 6 18.5 23t11.5 32h1l-20 160q-2 12 9.5 24.5t21.5 16.5l-4 34l-90 -12q-15 -2 -31.5 -9t-29.5 -18.5
t-21 -27t-6 -34.5l22 -177q-5 -4 -18 -7t-20 -6q-7 2 -21 1t-20 2l-21 176q-3 19 -13.5 32.5t-25.5 21.5t-33 11t-35 1l-90 -11l4 -34q11 -2 24.5 -11t15.5 -21l20 -160h1q4 -14 19 -27.5t24 -18.5l-2 -4q-4 -1 -9 -7t-9.5 -15t-7 -20.5t-0.5 -23.5l27 -218q3 -24 -8 -33
t-25 -11l4 -34l75 9q15 2 34 8t35 17t26.5 26.5t8.5 35.5l-28 227q5 12 14.5 16t19.5 8l6 -1q9 -1 21.5 -3.5t16.5 -8.5z" />
    <glyph glyph-name="FL0079h" unicode="y" 
d="M448 635l-4 34l-90 -11q-15 -3 -32 -10t-30.5 -18.5t-22 -27t-6.5 -34.5l21 -168q2 -14 -6 -27.5t-20 -18.5l-15 -2q-12 2 -22 11.5t-14 23.5l-21 171q-3 19 -14.5 32.5t-27.5 21t-34 10.5t-34 2l-91 -12l5 -33q11 -2 24.5 -12.5t15.5 -21.5l24 -195q1 -14 15 -24
t33 -16.5t39 -9t34 -0.5l83 10q21 -3 29 -13t12 -26l22 -174q2 -18 -4 -33t-26 -18h-2q-14 -2 -28.5 10.5t-15.5 28.5l-14 115q-3 19 -14.5 32t-27.5 21t-34 11t-34 2l-91 -11l5 -34q11 -2 24.5 -12.5t15.5 -21.5l18 -144q2 -15 18 -25t36 -16t39.5 -8t27.5 -1l170 21
q12 1 29 7.5t32.5 17t25.5 24t8 28.5l-62 502q-2 11 9 24t22 18z" />
    <glyph glyph-name="FL007Ah" unicode="z" horiz-adv-x="510" 
d="M454 594l-241 -508l6 -49l98 11q10 10 10 19l-18 143q-2 19 6.5 34.5t22 27t30.5 18.5t32 10l90 12l4 -35q-10 -4 -21.5 -18t-9.5 -24l26 -209l-424 -52l-9 69l241 515l-6 49l-97 -12l-7 -9q-2 -3 -3 -4t-1 -6l18 -143q2 -19 -6 -34t-22 -26.5t-31 -18.5t-32 -10l-90 -12
l-4 34q11 3 21.5 18t9.5 25l-26 208l424 52z" />
    <glyph glyph-name="FL007Bh" unicode="{" horiz-adv-x="276" 
d="M24 308l-7 53q7 3 20.5 8t18.5 8l-26 211q-3 19 5 34t21.5 26.5t30 19t30.5 10.5l91 11l4 -34q-5 -2 -11 -6.5t-10.5 -10.5t-7.5 -12t-2 -12l24 -196h-1q-1 -15 -10 -31t-17 -22l2 -4q9 -1 22 -16.5t15 -38.5l32 -256q3 -23 15.5 -29.5t26.5 -4.5l5 -34l-76 -10
q-15 -2 -35 -0.5t-38.5 8.5t-32 19.5t-15.5 32.5l-32 262q-7 11 -19 12t-23 2z" />
    <glyph glyph-name="FL007Ch" unicode="|" horiz-adv-x="207" 
d="M228 -40l-159 -20l-91 735l160 20z" />
    <glyph glyph-name="FL007Dh" unicode="}" horiz-adv-x="276" 
d="M251 336l-6 53q-8 1 -22 3t-20 4l-25 210q-3 19 -14 32t-26.5 21.5t-33 11.5t-33.5 2l-91 -12l5 -34q11 -2 24.5 -11.5t15.5 -20.5l24 -196h1q4 -15 17.5 -27.5t22.5 -17.5l-2 -4q-8 -3 -17 -21t-6 -42l31 -255q3 -24 -8 -33t-25 -11l4 -34l76 9q15 2 34 8.5t35 17.5
t26 26t8 35l-32 262q5 12 16 16t21 8z" />
    <glyph glyph-name="FL007Eh" unicode="~" horiz-adv-x="298" 
d="M170 380l98 12l-36 -97l-69 -9l-23 38l-12 -42l-98 -12l36 97l69 9l23 -38z" />
    <glyph glyph-name="FL007Fh" horiz-adv-x="246" 
 />
    <glyph glyph-name="FL20ACh" horiz-adv-x="550" 
d="M22 317l-11 89l38 5q4 -30 15.5 -36.5t30.5 -4.5l-23 183q-3 24 7 39t25.5 23t32.5 11.5t29 5.5l180 22l30 2.5t35 -2.5t30.5 -15.5t16.5 -36.5l18 -144q0 -5 4.5 -10.5t10.5 -11t13 -9t12 -3.5l4 -34l-90 -11q-15 -1 -33.5 2t-35 11t-28 21t-13.5 31l-13 108
q-2 17 -14 33.5t-31 13.5q-21 -8 -27 -20t-6 -28l56 -460q2 -19 12.5 -32t29.5 -11l3 1q14 2 24.5 17t8.5 31l-14 115q-2 19 6 34.5t21.5 27t30.5 19t32 10.5l91 11l4 -35q-11 -5 -22 -18t-9 -24l18 -144q2 -15 -11.5 -28.5t-31.5 -24t-36.5 -17.5t-26.5 -8l-170 -21
q-12 -2 -30 0.5t-35.5 9t-30.5 17t-15 25.5l-23 193q-19 -3 -28.5 -11t-5.5 -39l-39 -5l-11 89l78 10l-5 44z" />
    <glyph glyph-name="FL20ACh" unicode="&#x20ac;" horiz-adv-x="550" 
d="M22 317l-11 89l38 5q4 -30 15.5 -36.5t30.5 -4.5l-23 183q-3 24 7 39t25.5 23t32.5 11.5t29 5.5l180 22l30 2.5t35 -2.5t30.5 -15.5t16.5 -36.5l18 -144q0 -5 4.5 -10.5t10.5 -11t13 -9t12 -3.5l4 -34l-90 -11q-15 -1 -33.5 2t-35 11t-28 21t-13.5 31l-13 108
q-2 17 -14 33.5t-31 13.5q-21 -8 -27 -20t-6 -28l56 -460q2 -19 12.5 -32t29.5 -11l3 1q14 2 24.5 17t8.5 31l-14 115q-2 19 6 34.5t21.5 27t30.5 19t32 10.5l91 11l4 -35q-11 -5 -22 -18t-9 -24l18 -144q2 -15 -11.5 -28.5t-31.5 -24t-36.5 -17.5t-26.5 -8l-170 -21
q-12 -2 -30 0.5t-35.5 9t-30.5 17t-15 25.5l-23 193q-19 -3 -28.5 -11t-5.5 -39l-39 -5l-11 89l78 10l-5 44z" />
    <glyph glyph-name="FL017Dh" horiz-adv-x="510" 
d="M225 765l97 12l-36 -97l-134 -16l-58 85l96 12l23 -38zM462 595l-241 -508l6 -50l97 12q11 11 10 18l-17 143q-3 19 5.5 34.5t22.5 27t31 19t31 10.5l90 11l5 -35q-11 -4 -22 -18t-9 -24l25 -208l-424 -52l-8 68l241 515l-6 49l-97 -12l-7 -9q-2 -2 -3.5 -3t-0.5 -6
l17 -143q3 -18 -5 -33.5t-22 -27t-31 -19t-32 -10.5l-91 -11l-4 34q5 1 11 6t11 11.5t7.5 13.5t1.5 12l-25 207l424 52z" />
    <glyph glyph-name="FL017Dh" unicode="&#x17d;" horiz-adv-x="510" 
d="M225 765l97 12l-36 -97l-134 -16l-58 85l96 12l23 -38zM462 595l-241 -508l6 -50l97 12q11 11 10 18l-17 143q-3 19 5.5 34.5t22.5 27t31 19t31 10.5l90 11l5 -35q-11 -4 -22 -18t-9 -24l25 -208l-424 -52l-8 68l241 515l-6 49l-97 -12l-7 -9q-2 -2 -3.5 -3t-0.5 -6
l17 -143q3 -18 -5 -33.5t-22 -27t-31 -19t-32 -10.5l-91 -11l-4 34q5 1 11 6t11 11.5t7.5 13.5t1.5 12l-25 207l424 52z" />
    <glyph glyph-name="FL017Eh" horiz-adv-x="510" 
d="M225 765l97 12l-36 -97l-134 -16l-58 85l96 12l23 -38zM462 595l-241 -508l6 -50l97 12q11 11 10 18l-17 143q-3 19 5.5 34.5t22.5 27t31 19t31 10.5l90 11l5 -35q-11 -4 -22 -18t-9 -24l25 -208l-424 -52l-8 68l241 515l-6 49l-97 -12l-6 -8q-3 -2 -4.5 -3.5t-0.5 -6.5
l17 -143q3 -18 -5 -33.5t-22 -27t-31 -19t-32 -10.5l-91 -11l-4 34q5 1 11 6t11 11.5t7.5 13.5t1.5 12l-25 207l424 52z" />
    <glyph glyph-name="FL017Eh" unicode="&#x17e;" horiz-adv-x="510" 
d="M225 765l97 12l-36 -97l-134 -16l-58 85l96 12l23 -38zM462 595l-241 -508l6 -50l97 12q11 11 10 18l-17 143q-3 19 5.5 34.5t22.5 27t31 19t31 10.5l90 11l5 -35q-11 -4 -22 -18t-9 -24l25 -208l-424 -52l-8 68l241 515l-6 49l-97 -12l-6 -8q-3 -2 -4.5 -3.5t-0.5 -6.5
l17 -143q3 -18 -5 -33.5t-22 -27t-31 -19t-32 -10.5l-91 -11l-4 34q5 1 11 6t11 11.5t7.5 13.5t1.5 12l-25 207l424 52z" />
    <glyph glyph-name="space" unicode="&#xa0;" horiz-adv-x="395" 
 />
    <glyph glyph-name="FL00A1h" unicode="&#xa1;" horiz-adv-x="272" 
d="M41 435l159 20l47 -378q1 -11 14 -19t21 -10l4 -32l-223 -27l-4 32q8 4 19 14.5t10 21.5zM184 580q4 -29 -16 -52.5t-53 -27.5t-59 14t-30 47q-4 30 18 53t54 27t57 -13.5t29 -47.5z" />
    <glyph glyph-name="FL00A2h" unicode="&#xa2;" horiz-adv-x="472" 
d="M339 10l-159 -19l-12 98l-13 -2q-12 -2 -30.5 0.5t-35.5 9t-30 17t-15 25.5l-41 333q-3 24 7 38.5t25.5 23t33 12t29.5 5.5l13 2l-10 76l159 20l10 -77l8 1q11 1 28.5 2.5t35 -2.5t31 -16t16.5 -37l9 -74q2 -11 15.5 -22t24.5 -13l5 -33l-91 -11q-15 -1 -33 2t-34 10.5
t-27.5 20.5t-13.5 32l-5 39q-1 7 -5 16t-10 16t-13.5 11.5t-16.5 3.5q-21 -8 -27 -20t-7 -28l35 -286q2 -19 12.5 -31.5t29.5 -10.5h3q14 2 24.5 17.5t8.5 31.5l-2 17q-2 19 6 34t21.5 26.5t30.5 19t32 10.5l90 11l4 -34q-11 -4 -22 -18t-9 -25l6 -45q2 -15 -11 -29
t-31 -24.5t-36 -17t-25 -7.5z" />
    <glyph glyph-name="FL00A3h" unicode="&#xa3;" horiz-adv-x="582" 
d="M106 329q-20 -2 -30 -10.5t-6 -34.5v-5l-38 -5l-17 135l39 5q2 -16 6 -25t10 -13t14 -4t17 1h1l-31 250q-2 13 -14 21.5t-24 10.5l-4 37l274 33l4 -35q-8 -3 -19.5 -7t-23 -10t-19 -13t-6.5 -16l31 -256q19 2 30.5 12t6.5 45l40 5l18 -152l-40 -5v6q-4 30 -16.5 36
t-32.5 4l33 -266q2 -13 16.5 -21.5t32.5 -11.5q12 4 23.5 13t9.5 24l-20 161q-2 21 7 38t23 29.5t32 20.5t34 12l94 12l5 -39q-6 -3 -12 -8t-11 -11.5t-7.5 -14t-1.5 -13.5l28 -233l-493 -61l-5 36q4 1 17 6.5t26.5 12.5t24 14.5t9.5 13.5l-34 277z" />
    <glyph glyph-name="FL00A4h" unicode="&#xa4;" horiz-adv-x="503" 
d="M321 82l-10 79l-78 -10l10 -80q2 -20 -8.5 -35.5t-26.5 -26.5t-35 -17t-34 -8l-75 -9l-4 34q14 2 25 11t8 33l-27 220q-3 24 6 42t17 21l2 5q-9 4 -22.5 17t-17.5 27h-1l-20 162q-2 12 -15.5 21t-24.5 11l-4 34l90 11q16 1 33.5 -2t33 -10.5t26.5 -21t14 -32.5l3 -23
l78 9l-3 25q-2 19 6 34t21 26.5t29.5 18.5t31.5 10l90 12l4 -34q-10 -4 -21.5 -16.5t-9.5 -24.5l20 -162h-1q-1 -15 -10 -31t-17 -22l2 -4q8 -1 21.5 -16.5t16.5 -39.5l27 -220q3 -24 15 -30t26 -4l4 -35l-74 -9q-15 -2 -35 -0.5t-38.5 8.5t-32 19.5t-15.5 32.5zM234 478
q-8 -1 -11 -10.5t-2 -17.5l26 -213q2 -8 6 -14.5t12 -5.5q16 1 12 30l-25 207q-1 8 -6.5 16.5t-11.5 7.5z" />
    <glyph glyph-name="mu" unicode="&#xa5;" horiz-adv-x="1005" 
d="M976 380l-2 -1l-9 -26l-55 -7l41 -40l4 -8v-5q3 -15 -15 -27l-65 6l1 -70q-3 -13 -22 -16q-16 -2 -28.5 1t-31.5 12l-9 1l-52 -70l-30 -10l-44 29l-112 -71l-21 4l-4 33l-155 -41l-21 8l5 29l-164 -6l-3 21l16 21l-104 5q-19 -1 -22 22l36 34l-73 21l-11 27l69 19l-41 38
l-1 35l74 2q-9 82 21 86h3l72 -13q21 34 35.5 50.5t31.5 27.5l62 -27l107 67l25 -17v-17l3 -6l124 39h45l-1 -35l148 18l16 -11q3 -31 -21 -35l131 -16l1 -8q3 -27 -43 -37q87 -19 89 -36zM956 370l-6 10l-107 35l60 26l8 1l-9 10l-149 12l46 41l-168 -21l7 42l-161 -43
l-10 34l-13 4l-108 -67l-54 30l-58 -76q-6 -5 -16 -6q-21 -3 -65 17l-2 -84l-80 -2l6 -25l50 -46l-80 -15l114 -38l-67 -39l157 -13l-47 -38l174 15l-14 -41l155 45l23 -21l-6 -22l120 73l62 -29l55 78l84 -14l-5 84l85 -3q0 5 0.5 6l0.5 1q-2 17 -62 63zM829 396l-3 -76
l-19 -1l-6 79zM832 287l-15 -18l-14 11l11 13zM784 288q-27 -3 -72 43l6 -50l-20 -4l-12 102l71 -60l-5 73l19 -3zM679 276l-14 1q-14 23 -31 21q-12 -1 -23 -28l-24 -3q1 54 33 108q0 4 15 6q19 1 35 -30zM563 369l6 -102l-26 -9l-1 103zM522 251q-26 -3 -73 42l5 -48
l-18 -7l-13 105l73 -58l-4 70l18 -2zM414 311q0 -74 -33 -77q-10 -4 -18 -5q-31 -3 -41 13q-8 65 29 96l14 2q37 4 49 -29zM302 335l1 -25q-4 2 -5 2h-1l-6 -1q-12 -2 -28 -18q-14 -20 -11 -44q3 -21 26 -18q16 1 21 6l3 -17q-11 -4 -14 -6t-8 -3q-32 -3 -48 42q-1 1 -3 5
l-1 8q-6 48 74 69zM209 320l6 -100l-22 -11l-2 107zM652 323l-18 32l-16 -36zM393 294l-1 12q-12 12 -24 10q-11 -2 -17 -10.5t-11 -25.5l1 -8q3 -25 21 -22q11 0 28 12q4 10 4.5 15.5t-1.5 16.5z" />
    <glyph glyph-name="FL00D3h" unicode="&#xa6;" horiz-adv-x="207" 
d="M223 12l-160 -19l-79 638l160 19z" />
    <glyph glyph-name="FL00AAh" unicode="&#xa7;" horiz-adv-x="503" 
d="M405 360q5 -41 -1.5 -76.5t-20 -61.5t-32.5 -42t-40 -19l-78 -10l10 -80q2 -20 -8.5 -35.5t-26.5 -26.5t-35 -17t-34 -8l-75 -9l-4 34q14 2 25 11t8 33l-27 220q-3 24 6 42t17 21l2 5q-6 49 -5 84t12 58t32 35.5t56 16.5l78 9l-3 25q-2 19 6 34t21 26.5t29.5 18.5
t31.5 10l90 12l4 -34q-10 -4 -21.5 -16.5t-9.5 -24.5l20 -162h-1q-1 -15 -10 -31t-17 -22zM234 478q-8 -1 -11 -10.5t-2 -17.5l26 -213q2 -8 6 -14.5t12 -5.5q16 1 12 30l-25 207q-1 8 -6.5 16.5t-11.5 7.5z" />
    <glyph glyph-name="FL00A8h" unicode="&#xa8;" horiz-adv-x="281" 
d="M24 660q-2 19 10.5 34t33.5 17q21 3 36.5 -8.5t17.5 -30.5q2 -20 -10 -35t-33 -18q-21 -2 -37 9.5t-18 31.5zM256 688q2 -20 -10 -35t-33 -17q-21 -3 -37 8.5t-18 31.5q-2 19 10.5 34.5t33.5 17.5t36.5 -9.5t17.5 -30.5z" />
    <glyph glyph-name="FL00A9h" unicode="&#xa9;" horiz-adv-x="210" 
d="M95 688q11 1 20 0t19 -6q25 -12 35 -28q14 -19 16 -37q3 -17 -7 -42q-4 -11 -9 -17t-13 -13l-4 -4q-17 -10 -27 -12l-10 -2q-22 -3 -42 5q-12 7 -18 12t-16 14q-13 19 -16 39q-4 44 34 76q19 8 28.5 11.5zM97 675q-41 -6 -55 -41q-6 -22 -5 -35q3 -19 13 -32q5 -9 27 -23
h6q33 0 33 -3h-3q15 1 33 12q13 11 20.5 29t5.5 33v3q-4 25 -26 42t-46 15h-3zM132 597l13 -2q-3 -31 -34 -35q-43 -4 -49 42q-5 44 37 50q31 3 39 -21l-12 -3q-10 14 -25 13q-28 -3 -24 -37q4 -33 31 -30q21 3 24 23z" />
    <glyph glyph-name="FL00AEh" unicode="&#xaa;" 
d="M332 86l-111 492l12 -521q-3 -16 -12 -28t-21.5 -21t-27 -15t-28.5 -9l-80 -10l-4 34q1 0 6 3.5t10.5 9.5t10 13.5t4.5 16.5l-5 509q-2 15 11 28.5t31 24t36.5 17.5t26.5 8l49 6q8 1 27 -1t39 -8t36 -16t18 -25l117 -495q8 -17 22 -26t18 -9l4 -33l-81 -10q-14 -1 -32 2
t-34.5 10.5t-28 20.5t-13.5 32z" />
    <glyph glyph-name="FL00ABh" unicode="&#xab;" horiz-adv-x="263" 
d="M236 366l-12 97l-84 -58l16 -134l96 -37l-12 97l-41 13zM113 351l-12 97l-85 -59l16 -134l97 -36l-12 97l-41 13z" />
    <glyph glyph-name="FL00ACh" unicode="&#xac;" horiz-adv-x="367" 
d="M98 338l192 24l10 -80q1 -9 3.5 -16.5t7.5 -12t14.5 -6.5t25.5 0l4 -39l-143 -17l-4 39h5q26 4 31.5 16t11.5 31l-4 36l-149 -19q-20 -2 -30 -10t-7 -35l1 -6l-39 -4l-16 135l38 4q4 -30 16.5 -36t31.5 -4z" />
    <glyph glyph-name="FL00ADh" unicode="&#xad;" horiz-adv-x="162" 
d="M21 341l115 14l5 -44l-115 -14z" />
    <glyph glyph-name="registered" unicode="&#xae;" horiz-adv-x="210" 
d="M95 688q23 2 39 -7q12 -5 21 -10.5t14 -16.5q14 -19 16 -37q3 -17 -7 -42q-5 -18 -26 -34q-16 -10 -26.5 -12l-10.5 -2q-25 -3 -42 5q-18 8 -34 26q-12 18 -16 39q-2 13 0 20t6 18l1 2q8 22 27 35q18 12 38 16zM97 674q-39 -6 -54 -40q-8 -21 -6 -35l3 -9t10 -24
q4 -5 11 -10.5t16 -11.5l7 -1q15 -1 22 -1.5l7 -0.5q16 1 33 12q13 10 21 27q3 14 4 24.5l1 10.5l-1 3q-5 26 -25.5 42t-45.5 14h-3zM76 558l-11 87l29 3q19 3 23 -1q8 -3 10 -5q7 -7 7 -13q3 -23 -22 -27q8 -2 11 -6.5t11 -13.5l13 -15l-18 -2l-7 13q-8 8 -12.5 12t-5.5 5
q-2 2 -11 2l-8 -1l5 -36zM84 608l16 1q12 2 16.5 6t3.5 12q-2 8 -11 10q0 1 -14 -1l-15 -2z" />
    <glyph glyph-name="FL00AFh" unicode="&#xaf;" horiz-adv-x="344" 
d="M27 658l-6 44l295 36l6 -44z" />
    <glyph glyph-name="FL00B0h" unicode="&#xb0;" horiz-adv-x="146" 
d="M23 668q3 -20 19 -31.5t37 -9.5q20 3 32.5 18t10.5 35q-3 19 -18.5 30.5t-36.5 9.5q-21 -3 -33.5 -18t-10.5 -34zM84 675q2 -8 -10 -10q-10 -1 -12 8q-2 8 10 10q10 1 12 -8z" />
    <glyph glyph-name="FL00B1h" unicode="&#xb1;" horiz-adv-x="322" 
d="M122 379q-3 20 -11 30t-35 7l-5 -1l-5 38l135 17l5 -38q-16 -2 -25 -6t-13 -10t-4 -14t1 -17l5 -35l34 4q18 2 28.5 11t6.5 40l39 5l17 -135l-39 -5l-1 6q-2 14 -5.5 20t-9 8.5t-13 3t-17.5 3.5l-35 -5l4 -35q1 -9 3.5 -16.5t7.5 -12.5t14.5 -7t25.5 0l5 -38l-135 -17
l-5 39h5q14 2 20 6t8.5 9.5t3.5 13.5t4 17l-5 36l-35 -4q-20 -3 -30.5 -11t-6.5 -34v-6l-38 -5l-17 135l39 5q4 -31 16 -37t31 -4l36 5zM122 84l115 14q9 1 16.5 3.5t12 7.5t6.5 14.5t0 25.5l39 5l16 -135l-39 -5v5q-2 14 -6 20t-9.5 8.5t-13.5 3.5t-17 4l-115 -15
q-19 -2 -29 -10.5t-7 -34.5l1 -5l-39 -5l-16 135l38 5q2 -16 6 -25t10 -13t14 -4t17 1z" />
    <glyph glyph-name="FL00B2h" unicode="&#xb2;" horiz-adv-x="323" 
d="M142 693q13 -2 18.5 -8t7.5 -16l11 -93q2 -10 -1.5 -18.5t-11.5 -11.5l-61 -8l-17.5 -2.5t-20 -6t-15.5 -13.5t-4 -24l21 -171l232 29l-16 125q-1 8 6.5 15t12.5 10l-2 20l-54 -6l-6 -3q-18 -8 -34.5 -19.5t-14.5 -32.5l12 -95l-25 -3q-11 -2 -16.5 6t-7.5 20l-13 105
q2 9 4 16.5t16 11.5l53 7q7 1 17.5 4.5t19.5 9.5t15 13.5t5 16.5l-14 121q-2 15 -10 22t-18 10t-21 2.5t-18 -1.5l-107 -13q-8 -1 -18.5 -3t-20 -7t-15.5 -13.5t-4 -23.5l9 -75q1 -6 -5 -14.5t-14 -11.5l3 -20l54 7q10 2 20.5 6.5t18.5 11.5t12.5 15.5t3.5 19.5l-6 53
q-2 11 3 22.5t16 13.5z" />
    <glyph glyph-name="FL00B3h" unicode="&#xb3;" horiz-adv-x="302" 
d="M142 694q-11 -2 -16 -13t-3 -22l6 -54q1 -11 -3.5 -19.5t-12.5 -15.5t-18.5 -11.5t-20.5 -6.5l-54 -7l-3 20q8 3 14 12t5 15l-9 74q-2 15 4 24t15.5 13.5t20 6.5t18.5 3l107 14q19 2 41 -6.5t26 -31.5l12 -94q1 -10 -5 -19t-12 -13l2 -2q5 -2 13 -10t10 -24l17 -139
q1 -8 -6.5 -16t-17 -14t-18.5 -10t-12 -4l-105 -13q-4 -1 -15.5 0.5t-23.5 5t-22 9.5t-11 15l-11 87q-1 8 -8.5 13t-16.5 7l-2 20l54 6q10 1 21 -0.5t20.5 -6t16.5 -12.5t9 -20l8 -68q2 -11 9.5 -18.5t16.5 -5.5h1q24 5 19 31l-13 105q-2 6 -5 11.5t-9 8.5q-5 -3 -9 -8.5
t-2 -17.5l1 -2l-22 -3l-10 81l22 3q1 -19 13 -25l6 1q10 6 7 18l-13 106v-2q-2 10 -7.5 16t-18.5 8z" />
    <glyph glyph-name="FL00B4h" unicode="&#xb4;" horiz-adv-x="200" 
d="M29 619l98 12l43 98l-104 -13z" />
    <glyph glyph-name="FL00B5h" unicode="&#xb5;" 
d="M-10 579l-5 34l90 11q16 1 34 -2t34 -10.5t27.5 -21t14.5 -32.5l20 -167q2 -14 13 -25.5t24 -13.5l15 2q11 5 18.5 16.5t8.5 25.5l-21 172q-2 19 6 34.5t21.5 27t30.5 18.5t32 10l90 11l4 -34q-11 -5 -22 -18t-9 -24l24 -196q1 -13 -10 -26t-27.5 -24t-35 -18.5
t-31.5 -8.5l-85 -10q-17 -8 -23.5 -20t-6.5 -28l21 -174q2 -19 12.5 -31.5t29.5 -10.5h3q14 2 24.5 17.5t8.5 30.5l-14 116q-2 19 6 34t21.5 26.5t30.5 19t32 10.5l90 11l4 -34q-11 -4 -22 -18t-9 -25l18 -143q2 -15 -11 -29t-31 -24.5t-36 -17.5t-26 -8l-171 -21
q-12 -2 -30 0.5t-35 9t-30 17t-15 25.5l-62 502q-2 11 -15.5 21.5t-24.5 12.5z" />
    <glyph glyph-name="FL00B6h" unicode="&#xb6;" horiz-adv-x="503" 
d="M287 309l40 -321q2 -20 15.5 -32.5t32 -19.5t38.5 -8.5t35 0.5l74 10l-4 34q-14 -2 -26.5 4.5t-15.5 29.5l-38 314q-3 24 -16.5 39t-21.5 17l-2 4q8 6 17.5 21.5t9.5 30.5l1 1l-20 161q-2 12 9.5 24.5t21.5 16.5l-4 34l-90 -11q-15 -3 -31.5 -10.5t-29.5 -18.5t-21 -26
t-6 -34l22 -177q-5 -5 -18 -8t-20 -6q-7 2 -21 1t-19 2l-22 177q-2 19 -13.5 32.5t-27 21t-33.5 10.5t-33 2l-90 -12l4 -33q11 -2 24.5 -11.5t15.5 -21.5l20 -161h1q5 -15 18 -27.5t22 -17.5l-2 -4q-8 -3 -17 -21.5t-6 -41.5l27 -221q3 -23 -8 -32t-25 -11l4 -35l76 10
q15 2 34 8t35 17t26 26.5t8 35.5l-28 227q5 12 15 16t19 7l3 1q10 -2 23.5 -3.5t17.5 -9.5z" />
    <glyph glyph-name="FL00B7h" unicode="&#xb7;" horiz-adv-x="204" 
d="M24 316q-4 29 16 52.5t52 27.5q33 4 57.5 -13.5t28.5 -46.5q4 -30 -16 -53t-52 -27q-33 -5 -58 13t-28 47z" />
    <glyph glyph-name="FL00B8h" unicode="&#xb8;" horiz-adv-x="93" 
d="M17 -3l43 6l5 -41q2 -18 11 -28.5t40 -6.5l5 -39l-143 -17l-5 38l6 1q13 2 20.5 6t11.5 10t6 14t5 17z" />
    <glyph glyph-name="FL00B9h" unicode="&#xb9;" horiz-adv-x="196" 
d="M0 709l129 16l42 -344q1 -7 9 -11t14 -6l2 -19l-134 -17l-2 20q5 3 11 8.5t5 12.5l-38 314q-12 -6 -12 -19l-20 -2z" />
    <glyph glyph-name="FL00BAh" unicode="&#xba;" horiz-adv-x="280" 
d="M63 712l107 13q7 1 17.5 1.5t21 -2.5t19 -10.5t10.5 -22.5l37 -303q1 -9 -5.5 -17t-16 -14t-19.5 -10t-17 -5l-107 -13q-7 -1 -18 0.5t-21.5 5t-18.5 10t-9 15.5l-38 304q-2 14 4 23t16 14.5t20.5 7.5t17.5 3zM124 657q-8 -1 -10 -10t-1 -17l26 -213q0 -11 5 -16t11 -4.5
t10 7.5t0 21l-26 208q-1 8 -5 16.5t-10 7.5z" />
    <glyph glyph-name="FL00BBh" unicode="&#xbb;" horiz-adv-x="263" 
d="M22 340l-12 97l97 -36l16 -134l-85 -59l-12 97l37 23zM146 355l-12 97l96 -36l16 -134l-84 -59l-12 97l36 23z" />
    <glyph glyph-name="FL00BCh" unicode="&#xbc;" horiz-adv-x="964" 
d="M937 370l-7 10l-108 35l61 26l9 1l-11 10l-147 12l45 41l-168 -21l7 42l-162 -43l-9 34l-13 4l-107 -67l-55 30l-58 -76q-6 -5 -16 -6q-12 -2 -27.5 3t-37.5 14l-2 -84l-80 -2l6 -25l50 -46l-80 -15l114 -38l-67 -39l157 -13l-47 -38l174 15l-13 -41l154 45l23 -21
l-5 -22l119 73l62 -29l55 78l83 -14l-4 84l85 -3q0 5 1 6l1 1q-2 17 -62 63zM809 396l-2 -76l-19 -1l-7 79zM812 287l-15 -18l-14 11l11 13zM765 288q-28 -3 -73 43l6 -50l-20 -4l-12 102l71 -60l-5 73l20 -2zM659 276l-14 1q-14 23 -31 21q-12 -1 -24 -28l-23 -3
q2 53 34 108q-1 4 14 6q19 1 35 -30zM543 369l7 -102l-27 -9l-1 103zM502 251q-27 -3 -73 42l6 -48l-19 -7l-13 105l73 -58l-4 70l18 -2zM394 311q0 -74 -33 -77q-10 -4 -18 -5q-29 -3 -41 13q-9 64 30 96l13 2q37 4 49 -29zM282 335l1 -25q-4 2 -5 2h-1l-6 -1
q-12 -2 -28 -18q-14 -17 -11 -44q3 -21 26 -18q15 1 21 6l3 -17q-11 -4 -14 -6t-8 -3q-33 -3 -48 42q-3 3 -3 5l-1 8q-6 48 74 69zM190 321l5 -101l-22 -11l-1 107zM633 324l-19 31l-16 -36zM374 294q0 2 -1 4.5t-2 7.5q-11 11 -23 10q-18 -3 -27 -36l1 -8q3 -25 20 -22
q11 0 28 12q4 10 5 15.5t-1 16.5z" />
    <glyph glyph-name="FL00BDh" unicode="&#xbd;" horiz-adv-x="537" 
d="M374 340q-11 -2 -15.5 -13t-2.5 -22l6 -54q2 -21 -16.5 -35t-37.5 -19l-54 -7l-2 19l-95 -225l-93 -11l-4 31q8 4 19.5 15t9.5 22l99 239l-91 -11l-2 20q5 2 11 8t5 12l-38 314q-12 -5 -12 -18l-20 -3l-6 48l129 16l42 -344l140 333l91 11l4 -32q-8 -4 -15.5 -14
t-12.5 -21l-100 -240l112 14q5 1 18 1q16 0 30.5 -6.5t17.5 -28.5l15 -121q1 -9 -5 -16.5t-15 -13.5t-19.5 -9.5t-17.5 -4.5l-53 -7q-14 -5 -16 -12t-4 -16l13 -104q2 -12 7.5 -20t16.5 -7l25 3l-12 96q-2 20 14 31.5t34 19.5l7 3l54 6l2 -19q-5 -3 -12.5 -10.5t-6.5 -15.5
l15 -125l-231 -28l-21 170q-2 15 4 23.5t15.5 13.5t20 7t17.5 3l62 7q8 3 11 11.5t1 18.5l-11 93q-2 10 -7.5 16t-19.5 8zM268 249l-16 -38q7 3 12.5 11.5t4.5 15.5z" />
    <glyph glyph-name="FL00BEh" unicode="&#xbe;" horiz-adv-x="701" 
d="M668 396l-2 -77l-19 -1l-6 79zM672 286l-15 -18l-16 11l13 13zM623 287q-28 -3 -71 43l6 -50l-20 -4l-13 102l71 -60l-6 73l21 -3zM519 275l-15 1q-15 22 -30 21q-13 -1 -24 -28l-25 -3q2 28 11 54.5t23 53.5q1 4 15 6q19 1 36 -30zM402 368l6 -102l-26 -9v103zM362 250
q-26 -3 -74 42l6 -48l-19 -7l-13 105l73 -58l-4 70l18 -2zM254 310q-2 -74 -34 -77q-10 -4 -19 -5q-28 -3 -40 13q-8 66 30 96l14 2q35 5 49 -29zM142 334l1 -25q-6 2 -5 2h-1l-7 -1q-14 -2 -27 -18q-15 -21 -12 -44q3 -21 26 -18q16 1 21 6l3 -17q-10 -4 -13 -6t-8 -3
q-32 -3 -49 42q-2 2 -2 5l-1 8q-6 48 74 69zM49 319l5 -100l-22 -11l-2 107zM492 322l-18 33l-17 -37zM233 293q-1 2 -1.5 4t-1.5 7q-10 13 -22 11q-20 -3 -28 -36l1 -8q3 -25 20 -23q6 1 13 4.5t15 8.5q5 12 5 15v7q0 5 -1 10z" />
    <glyph glyph-name="FL00BFh" unicode="&#xbf;" horiz-adv-x="472" 
d="M252 44q9 1 15.5 7.5t10.5 15t5.5 18t0.5 16.5l-11 90q-2 19 6.5 34t22 26.5t30 18.5t31.5 10l90 11l4 -33q-11 -5 -21 -19t-10 -23l16 -127q3 -24 -7.5 -39t-26 -23.5t-33 -11.5t-28.5 -4l-180 -22q-12 -2 -30 -2.5t-35 4t-30 16.5t-16 36l-25 203q-2 15 8 27.5
t25.5 22.5t32.5 16t29 8l43 5q21 8 28 20.5t5 27.5l-8 69l158 19l11 -89q3 -24 -7 -38.5t-25.5 -22.5t-33 -11.5t-29.5 -4.5l-58 -7q-25 -12 -21 -49l19 -156q4 -16 12.5 -26.5t31.5 -12.5zM336 586q2 -15 -2.5 -28.5t-14.5 -24.5t-23.5 -18t-29.5 -9t-31 2t-27 12t-20 20
t-9 27q-2 15 3 28.5t15 24.5t23.5 18t29.5 9q33 5 58 -13t28 -48z" />
    <glyph glyph-name="FL00C0h" unicode="&#xc0;" horiz-adv-x="519" 
d="M72 -28l-4 32q8 4 18.5 14.5t9.5 21.5l-63 511q-2 11 -14 18t-22 9l-4 32l297 37q7 1 28.5 2.5t44.5 -1.5t42 -14t22 -35l73 -595q2 -17 20.5 -23.5t35.5 -6.5q15 0 20 1l5 -35l-110 -14q-15 -2 -35 -0.5t-38 8.5t-31.5 19.5t-16.5 32.5l-42 347l-90 -11l32 -263
q2 -11 15 -18.5t21 -9.5l4 -32zM229 594l-43 -6l27 -220l84 11l-21 168q-1 9 -5 17.5t-10 15.5t-14.5 11t-17.5 3zM282 677l-97 -12l-66 85l105 12z" />
    <glyph glyph-name="FL00C1h" unicode="&#xc1;" horiz-adv-x="519" 
d="M72 -28l-4 32q8 4 18.5 14.5t9.5 21.5l-63 511q-2 11 -14 18t-22 9l-4 32l297 37q7 1 28.5 2.5t44.5 -1.5t42 -14t22 -35l73 -595q2 -17 20.5 -23.5t35.5 -6.5q15 0 20 1l5 -35l-110 -14q-15 -2 -35 -0.5t-38 8.5t-31.5 19.5t-16.5 32.5l-42 347l-90 -11l32 -263
q2 -11 15 -18.5t21 -9.5l4 -32zM229 594l-43 -6l27 -220l84 11l-21 168q-1 9 -5 17.5t-10 15.5t-14.5 11t-17.5 3zM241 672l-97 -12l35 97l105 13z" />
    <glyph glyph-name="FL00C2h" unicode="&#xc2;" horiz-adv-x="519" 
d="M72 -28l-4 32q8 4 18.5 14.5t9.5 21.5l-63 511q-2 11 -14 18t-22 9l-4 32l297 37q7 1 28.5 2.5t44.5 -1.5t42 -14t22 -35l73 -595q2 -17 20.5 -23.5t35.5 -6.5q15 0 20 1l5 -35l-110 -14q-15 -2 -35 -0.5t-38 8.5t-31.5 19.5t-16.5 32.5l-42 347l-90 -11l32 -263
q2 -11 15 -18.5t21 -9.5l4 -32zM229 594l-43 -6l27 -220l84 11l-21 168q-1 9 -5 17.5t-10 15.5t-14.5 11t-17.5 3zM198 667l-98 -12l36 97l134 16l59 -85l-96 -12l-23 37z" />
    <glyph glyph-name="FL00C3h" unicode="&#xc3;" horiz-adv-x="519" 
d="M72 -28l-4 32q8 4 18.5 14.5t9.5 21.5l-63 511q-2 11 -14 18t-22 9l-4 32l297 37q7 1 28.5 2.5t44.5 -1.5t42 -14t22 -35l73 -595q2 -17 20.5 -23.5t35.5 -6.5q15 0 20 1l5 -35l-110 -14q-15 -2 -35 -0.5t-38 8.5t-31.5 19.5t-16.5 32.5l-42 347l-90 -11l32 -263
q2 -11 15 -18.5t21 -9.5l4 -32zM229 594l-43 -6l27 -220l84 11l-21 168q-1 9 -5 17.5t-10 15.5t-14.5 11t-17.5 3zM224 762l97 12l-36 -97l-69 -8l-23 37l-13 -42l-97 -12l36 98l70 8l23 -37z" />
    <glyph glyph-name="FL00C4h" unicode="&#xc4;" horiz-adv-x="519" 
d="M72 -28l-4 32q8 4 18.5 14.5t9.5 21.5l-63 511q-2 11 -14 18t-22 9l-4 32l297 37q7 1 28.5 2.5t44.5 -1.5t42 -14t22 -35l73 -595q2 -17 20.5 -23.5t35.5 -6.5q15 0 20 1l5 -35l-110 -14q-15 -2 -35 -0.5t-38 8.5t-31.5 19.5t-16.5 32.5l-42 347l-90 -11l32 -263
q2 -11 15 -18.5t21 -9.5l4 -32zM229 594l-43 -6l27 -220l84 11l-21 168q-1 9 -5 17.5t-10 15.5t-14.5 11t-17.5 3zM92 700q-2 19 10 34t33 18q21 2 37 -9.5t19 -30.5q2 -20 -11 -35t-33 -18q-21 -2 -36.5 9.5t-18.5 31.5zM325 728q2 -20 -11 -35t-33 -17q-21 -3 -36.5 8.5
t-18.5 31.5q-2 19 10 34.5t33 17.5t37 -9.5t19 -30.5z" />
    <glyph glyph-name="FL00C5h" unicode="&#xc5;" horiz-adv-x="519" 
d="M160 708q2 -20 18 -31.5t37 -8.5q21 2 33 17t10 35q-2 19 -17.5 30.5t-36.5 9.5t-33.5 -17.5t-10.5 -34.5zM186 588l43 6q9 1 17.5 -3t14.5 -11t10 -15.5t5 -17.5l21 -168l-84 -11zM68 4l4 -32l218 27l-4 32q-8 2 -21 9.5t-15 18.5l-32 263l90 11l42 -347
q3 -20 16.5 -32.5t31.5 -19.5t38 -8.5t35 0.5l110 14l-5 35q-5 -1 -20 -1q-17 0 -35.5 6.5t-20.5 23.5l-73 595q-3 24 -22 35t-42 14t-44.5 1.5t-28.5 -2.5l-297 -37l4 -32q10 -2 22 -9t14 -18l63 -511q1 -11 -9.5 -21.5t-18.5 -14.5zM219 716q2 -9 -9 -11q-10 0 -12 8
q0 9 10 10q11 2 11 -7z" />
    <glyph glyph-name="FL00C6h" unicode="&#xc6;" horiz-adv-x="810" 
d="M64 -44l-4 36q11 5 21.5 16.5t8.5 24.5l-70 570q-2 13 -15 21.5t-24 10.5l-4 37l717 88l29 -234q0 -5 4.5 -11t11 -11.5t14 -10t13.5 -5.5l4 -38l-95 -12q-16 -1 -35 3t-35.5 13t-29 23.5t-15.5 35.5l-19 159q-2 11 -16 18.5t-31 7.5q-12 -4 -25 -16t-11 -25l31 -256
q10 1 18 3.5t13 8.5t7.5 17t0.5 28l39 5l19 -152l-40 -5v6q-4 31 -17 37t-34 3l33 -266q2 -12 17 -21t32 -12q14 5 25.5 14t9.5 24l-20 161q-3 21 5.5 37.5t23 29.5t32 21t33.5 12l95 11l5 -38q-6 -3 -12 -8.5t-11 -12t-8 -14t-2 -13.5l29 -233l-254 -31l3 -23
q1 -13 9 -20.5t18 -11t20.5 -4t16.5 0.5l5 -38l-114 -14q-17 -2 -38 0t-40 9t-33 21t-17 36l-48 390l-94 -12l36 -294q2 -13 15.5 -22t22.5 -11l5 -36zM225 651l-46 -6l31 -247l88 11l-23 189q-2 19 -16 37t-34 16z" />
    <glyph glyph-name="FL00C7h" unicode="&#xc7;" horiz-adv-x="495" 
d="M184 666q-23 -8 -29 -21.5t-6 -32.5l64 -516q2 -21 12.5 -35.5t31.5 -12.5l3 1q15 2 25 19t8 35l-16 129q-2 21 7 38t23 29.5t31.5 20.5t33.5 12l95 12l5 -39q-6 -3 -12 -8t-11 -11.5t-7.5 -14t-1.5 -13.5l19 -161q2 -17 -11.5 -32t-32 -27t-37.5 -19.5t-28 -8.5l-63 -7
l5 -41q2 -18 10.5 -28.5t39.5 -6.5l5 -39l-143 -17l-5 38l6 1q13 1 20.5 5t11.5 10t6 14t5 18l-5 40l-73 -9q-12 -2 -31 1t-37.5 10.5t-32.5 19.5t-16 29l-69 567q-3 27 7 43.5t26 26t34 13.5t32 6l188 23q12 1 31 2.5t37.5 -3t32.5 -18t17 -41.5l20 -161q1 -5 5.5 -11.5
t11 -12.5t13.5 -10t13 -4l5 -38l-96 -12q-16 -1 -35 2.5t-36.5 12.5t-29.5 23.5t-14 34.5l-15 121q-1 9 -5 19t-10 18t-14 13t-18 4z" />
    <glyph glyph-name="FL00C8h" unicode="&#xc8;" horiz-adv-x="510" 
d="M270 586q-1 9 -14.5 16t-29.5 7q-11 -4 -23 -14.5t-11 -21.5l29 -229q17 2 28 10.5t7 39.5l38 5l17 -135l-39 -5l-1 6q-3 27 -14.5 32t-30.5 3l29 -237q2 -11 15.5 -18.5t30.5 -10.5q11 4 23 11.5t10 21.5l-17 143q-3 19 5.5 34.5t22.5 27t31 19t31 10.5l90 11l5 -35
q-11 -4 -22 -17.5t-9 -24.5l25 -208l-425 -52l-3 31q8 5 19 15.5t9 21.5l-62 510q-2 11 -15 18.5t-22 9.5l-4 32l425 52l25 -207q2 -11 16 -22.5t25 -12.5l4 -34l-90 -11q-15 -1 -33 2t-34.5 11t-28.5 21t-14 31zM288 680l-97 -12l-66 85l104 13z" />
    <glyph glyph-name="FL00C9h" unicode="&#xc9;" horiz-adv-x="510" 
d="M270 586q-1 9 -14.5 16t-29.5 7q-11 -4 -23 -14.5t-11 -21.5l29 -229q17 2 28 10.5t7 39.5l38 5l17 -135l-39 -5l-1 6q-3 27 -14.5 32t-30.5 3l29 -237q2 -11 15.5 -18.5t30.5 -10.5q11 4 23 11.5t10 21.5l-17 143q-3 19 5.5 34.5t22.5 27t31 19t31 10.5l90 11l5 -35
q-11 -4 -22 -17.5t-9 -24.5l25 -208l-425 -52l-3 31q8 5 19 15.5t9 21.5l-62 510q-2 11 -15 18.5t-22 9.5l-4 32l425 52l25 -207q2 -11 16 -22.5t25 -12.5l4 -34l-90 -11q-15 -1 -33 2t-34.5 11t-28.5 21t-14 31zM246 675l-97 -12l36 97l105 13z" />
    <glyph glyph-name="FL00CAh" unicode="&#xca;" horiz-adv-x="510" 
d="M270 586q-1 9 -14.5 16t-29.5 7q-11 -4 -23 -14.5t-11 -21.5l29 -229q17 2 28 10.5t7 39.5l38 5l17 -135l-39 -5l-1 6q-3 27 -14.5 32t-30.5 3l29 -237q2 -11 15.5 -18.5t30.5 -10.5q11 4 23 11.5t10 21.5l-17 143q-3 19 5.5 34.5t22.5 27t31 19t31 10.5l90 11l5 -35
q-11 -4 -22 -17.5t-9 -24.5l25 -208l-425 -52l-3 31q8 5 19 15.5t9 21.5l-62 510q-2 11 -15 18.5t-22 9.5l-4 32l425 52l25 -207q2 -11 16 -22.5t25 -12.5l4 -34l-90 -11q-15 -1 -33 2t-34.5 11t-28.5 21t-14 31zM204 670l-99 -12l37 97l134 16l59 -85l-97 -12l-22 38z" />
    <glyph glyph-name="FL00CBh" unicode="&#xcb;" horiz-adv-x="510" 
d="M270 586q-1 9 -14.5 16t-29.5 7q-11 -4 -23 -14.5t-11 -21.5l29 -229q17 2 28 10.5t7 39.5l38 5l17 -135l-39 -5l-1 6q-3 27 -14.5 32t-30.5 3l29 -237q2 -11 15.5 -18.5t30.5 -10.5q11 4 23 11.5t10 21.5l-17 143q-3 19 5.5 34.5t22.5 27t31 19t31 10.5l90 11l5 -35
q-11 -4 -22 -17.5t-9 -24.5l25 -208l-425 -52l-3 31q8 5 19 15.5t9 21.5l-62 510q-2 11 -15 18.5t-22 9.5l-4 32l425 52l25 -207q2 -11 16 -22.5t25 -12.5l4 -34l-90 -11q-15 -1 -33 2t-34.5 11t-28.5 21t-14 31zM98 703q-2 19 10 34t33 18q21 2 37 -9.5t18 -30.5
q2 -20 -10.5 -35t-33.5 -17q-21 -3 -36.5 8.5t-17.5 31.5zM330 732q2 -20 -10.5 -35.5t-33.5 -17.5t-36.5 9.5t-17.5 31.5q-2 18 10 33.5t33 17.5q21 3 37 -8.5t18 -30.5z" />
    <glyph glyph-name="FL00CCh" unicode="&#xcc;" horiz-adv-x="272" 
d="M173 681l-97 -12l-66 85l104 12zM290 48l4 -31l-223 -28l-4 32q8 4 19 15t9 22l-62 510q-2 11 -15 18.5t-22 9.5l-4 31l223 28l4 -32q-8 -4 -18.5 -14t-8.5 -22l62 -510q2 -11 15 -19t21 -10z" />
    <glyph glyph-name="FL00CDh" unicode="&#xcd;" horiz-adv-x="272" 
d="M71 -11l-4 32q8 4 19 15t9 22l-62 510q-2 11 -15 18.5t-22 9.5l-4 31l223 28l4 -32q-8 -4 -18.5 -14t-8.5 -22l62 -510q2 -11 15 -19t21 -10l4 -31zM125 675l-97 -12l37 97l104 13z" />
    <glyph glyph-name="FL00CEh" unicode="&#xce;" horiz-adv-x="272" 
d="M71 -11l-4 32q8 4 19 14.5t9 21.5l-62 511q-2 11 -15 18t-22 9l-4 32l223 28l4 -32q-8 -4 -18.5 -14t-8.5 -22l62 -510q2 -11 15 -19t21 -10l4 -32zM85 670l-98 -12l36 97l134 16l59 -85l-97 -12l-22 38z" />
    <glyph glyph-name="FL00CFh" unicode="&#xcf;" horiz-adv-x="272" 
d="M71 -11l-4 32q8 4 19 15t9 22l-62 510q-2 11 -15 18.5t-22 9.5l-4 31l223 28l4 -32q-8 -4 -18.5 -14t-8.5 -22l62 -510q2 -11 15 -19t21 -10l4 -31zM-21 703q-2 19 10.5 34.5t32.5 17.5q21 2 37 -9.5t18 -30.5q2 -20 -10.5 -35t-33.5 -17q-20 -3 -36 8.5t-18 31.5z
M211 732q2 -20 -10.5 -35.5t-33.5 -17.5q-20 -2 -36 9.5t-18 31.5q-2 18 10.5 33.5t32.5 17.5q21 3 37 -8.5t18 -30.5z" />
    <glyph glyph-name="FL0115h" unicode="&#xd0;" horiz-adv-x="514" 
d="M31 618l308 37q12 1 31 2t37.5 -3.5t33.5 -17t18 -37.5l61 -504q2 -15 -8.5 -28.5t-26.5 -24t-34 -17t-31 -7.5l-310 -39l-4 32q8 5 19 15.5t9 21.5l-29 237q-18 -3 -28 -10.5t-7 -33.5l1 -6l-39 -5l-16 135l39 5q3 -30 14.5 -36.5t30.5 -4.5l-28 229q-2 11 -15 18.5
t-22 9.5zM262 602q-19 -2 -28.5 -8.5t-7.5 -23.5l61 -497q2 -10 12 -17.5t27 -5.5q21 3 29.5 20.5t5.5 43.5l-54 440q-2 17 -15 33.5t-30 14.5z" />
    <glyph glyph-name="FL00D1h" unicode="&#xd1;" horiz-adv-x="504" 
d="M323 777l-97 -12l-12 -41l-23 37l-70 -8l-35 -97l97 11l12 42l23 -37l69 8zM429 601h-1v1q-2 12 8.5 21.5t18.5 13.5l-3 32l-218 -26l4 -32q8 -2 21 -8.5t14 -13.5l31 -249l-164 226q-5 10 -14 20.5t-18.5 19t-18 13.5t-12.5 4l-84 -10l4 -32q9 -2 22 -9.5t15 -18.5
l62 -510q2 -11 -9 -21.5t-20 -15.5l4 -31l220 27l-4 31q-10 2 -22 10t-14 19l-28 226l164 -212q2 -9 9.5 -19t17.5 -18.5t20 -13.5t18 -4l47 6z" />
    <glyph glyph-name="FL00D2h" unicode="&#xd2;" horiz-adv-x="436" 
d="M192 598q-19 -3 -27 -22t-6 -36l56 -451q2 -19 12.5 -32t28.5 -11q26 4 32 21t3 43l-54 440q-1 9 -5 18t-10 16t-13.5 11t-16.5 3zM96 630l180 22q11 1 29 2t35.5 -4t31 -17.5t16.5 -38.5l61 -503q2 -15 -8 -28.5t-25 -24t-32 -17t-29 -7.5l-181 -22q-12 -2 -30 0.5
t-35.5 9t-30.5 17t-15 25.5l-62 506q-3 24 7 39t25.5 23.5t33 12t29.5 5.5zM254 681l-97 -12l-66 84l104 13z" />
    <glyph glyph-name="FL00D4h" unicode="&#xd3;" horiz-adv-x="436" 
d="M192 598q-19 -3 -27 -22t-6 -36l56 -451q2 -19 12.5 -32t28.5 -11q26 4 32 21t3 43l-54 440q-1 9 -5 18t-10 16t-13.5 11t-16.5 3zM96 630l180 22q11 1 29 2t35.5 -4t31 -17.5t16.5 -38.5l61 -503q2 -15 -8 -28.5t-25 -24t-32 -17t-29 -7.5l-181 -22q-12 -2 -30 0.5
t-35.5 9t-30.5 17t-15 25.5l-62 506q-3 24 7 39t25.5 23.5t33 12t29.5 5.5zM208 675l-97 -12l36 97l105 13z" />
    <glyph glyph-name="FL00D5h" unicode="&#xd4;" horiz-adv-x="436" 
d="M96 630l180 22q11 1 29 2t35.5 -4t31 -17.5t16.5 -38.5l61 -503q2 -15 -8 -28.5t-25 -24t-32 -17t-29 -7.5l-181 -22q-12 -2 -30 0.5t-35.5 9t-30.5 17t-15 25.5l-62 506q-3 24 7 39t25.5 23.5t33 12t29.5 5.5zM192 598q-19 -3 -27 -22t-6 -36l56 -451q2 -19 12.5 -32
t28.5 -11q26 4 32 21t3 43l-54 440q-1 9 -5 18t-10 16t-13.5 11t-16.5 3zM166 670l-98 -12l36 97l134 16l59 -85l-97 -12l-22 38z" />
    <glyph glyph-name="FL00D6h" unicode="&#xd5;" horiz-adv-x="436" 
d="M96 630l180 22q11 1 29 2t35.5 -4t31 -17.5t16.5 -38.5l61 -503q2 -15 -8 -28.5t-25 -24t-32 -17t-29 -7.5l-181 -22q-12 -2 -30 0.5t-35.5 9t-30.5 17t-15 25.5l-62 506q-3 24 7 39t25.5 23.5t33 12t29.5 5.5zM192 598q-19 -3 -27 -22t-6 -36l56 -451q2 -19 12.5 -32
t28.5 -11q26 4 32 21t3 43l-54 440q-1 9 -5 18t-10 16t-13.5 11t-16.5 3zM194 766l97 12l-35 -97l-70 -9l-23 38l-12 -42l-98 -12l37 97l69 9l23 -38z" />
    <glyph glyph-name="FL00D8h" unicode="&#xd6;" horiz-adv-x="436" 
d="M192 598q-19 -3 -27 -22t-6 -36l56 -451q2 -19 12.5 -32t28.5 -11q26 4 32 21t3 43l-54 440q-1 9 -5 18t-10 16t-13.5 11t-16.5 3zM96 630l180 22q11 1 29 2t35.5 -4t31 -17.5t16.5 -38.5l61 -503q2 -15 -8 -28.5t-25 -24t-32 -17t-29 -7.5l-181 -22q-12 -2 -30 0.5
t-35.5 9t-30.5 17t-15 25.5l-62 506q-3 24 7 39t25.5 23.5t33 12t29.5 5.5zM61 703q-2 19 10 34.5t33 17.5t37 -9.5t18 -30.5q2 -20 -10.5 -35t-33.5 -17q-21 -3 -36.5 8.5t-17.5 31.5zM293 732q2 -20 -10.5 -35t-33.5 -18q-21 -2 -36.5 9.5t-17.5 31.5q-2 19 10 34t33 17
q21 3 37 -8.5t18 -30.5z" />
    <glyph glyph-name="FL00D7h" unicode="&#xd7;" horiz-adv-x="338" 
d="M187 385q6 8 10.5 15t2.5 15q-2 14 -20 27l-4 4l24 30l107 -85l-23 -30q-25 19 -37 16.5t-25 -19.5l-22 -28l28 -22q9 -7 15 -11t14 -2q14 2 32 24l30 -24l-84 -107l-30 24l3 3q13 15 11 28q-2 8 -7 14t-11 17l-28 20l-23 -28q-7 -9 -10.5 -15t-1.5 -14q2 -14 24 -32
l-24 -30l-108 84l24 30l4 -3q14 -11 27 -11q8 2 14 7.5t17 11.5l22 28l-28 22q-9 8 -15.5 11.5t-14.5 1.5q-14 -1 -28 -19l-4 -5l-30 24l85 108l30 -23q-17 -22 -16 -38q1 -8 5.5 -13t13.5 -12l29 -22z" />
    <glyph glyph-name="FL00DFh" unicode="&#xd8;" horiz-adv-x="436" 
d="M269 652l-180 -22q-12 -2 -29 -5.5t-33 -12.5t-26 -25t-7 -41l62 -503q2 -15 15 -25.5t30 -17t35.5 -9t30.5 -0.5l180 23q12 1 29 7.5t32.5 17t25.5 24t8 28.5l-62 506q-3 24 -16 36t-30.5 16.5t-35 4t-29.5 -1.5zM255 47q-27 -4 -36.5 11.5t-12.5 41.5l-30 246l102 -194
l7 -54q2 -19 -4.5 -34t-25.5 -17zM184 597q19 2 31 -14t14 -34l28 -229l-102 196l-3 24q-2 17 5.5 36t26.5 21z" />
    <glyph glyph-name="FL00D9h" unicode="&#xd9;" 
d="M456 635q-11 -4 -22 -17.5t-9 -24.5l61 -502q2 -15 -11 -29t-31 -24.5t-36 -17t-26 -7.5l-162 -20q-8 -1 -27.5 1t-39.5 8t-36 16.5t-18 25.5l-61 502q-2 11 -15.5 21t-25.5 12l-4 34l90 11q15 1 33.5 -2t35 -10.5t28 -20.5t13.5 -32l58 -474q2 -15 16 -27.5t28 -10.5h1
q14 2 24.5 17t8.5 31l-58 473q-3 19 5.5 34.5t22.5 26.5t31 18.5t31 10.5l91 11zM288 680l-97 -12l-66 85l104 13z" />
    <glyph glyph-name="FL00DAh" unicode="&#xda;" 
d="M456 635q-11 -4 -22 -17.5t-9 -24.5l61 -502q2 -15 -11 -29t-31 -24.5t-36 -17t-26 -7.5l-162 -20q-8 -1 -27.5 1t-39.5 8t-36 16.5t-18 25.5l-61 502q-2 11 -15.5 21t-25.5 12l-4 34l90 11q15 1 33.5 -2t35 -10.5t28 -20.5t13.5 -32l58 -474q2 -15 16 -27.5t28 -10.5h1
q14 2 24.5 17t8.5 31l-58 473q-3 19 5.5 34.5t22.5 26.5t31 18.5t31 10.5l91 11zM246 675l-97 -12l35 97l106 13z" />
    <glyph glyph-name="FL00DBh" unicode="&#xdb;" 
d="M456 635q-11 -4 -22 -17.5t-9 -24.5l61 -502q2 -15 -11 -29t-31 -24.5t-36 -17t-26 -7.5l-162 -20q-8 -1 -27.5 1t-39.5 8t-36 16.5t-18 25.5l-61 502q-2 11 -15.5 21t-25.5 12l-4 34l90 11q15 1 33.5 -2t35 -10.5t28 -20.5t13.5 -32l58 -474q2 -15 16 -27.5t28 -10.5h1
q14 2 24.5 17t8.5 31l-58 473q-3 19 5.5 34.5t22.5 26.5t31 18.5t31 10.5l91 11zM204 670l-99 -12l37 97l134 17l59 -86l-97 -12l-22 38z" />
    <glyph glyph-name="FL00DCh" unicode="&#xdc;" 
d="M456 635q-11 -4 -22 -17.5t-9 -24.5l61 -502q2 -15 -11 -29t-31 -24.5t-36 -17t-26 -7.5l-162 -20q-8 -1 -27.5 1t-39.5 8t-36 16.5t-18 25.5l-61 502q-2 11 -15.5 21t-25.5 12l-4 34l90 11q15 1 33.5 -2t35 -10.5t28 -20.5t13.5 -32l58 -474q2 -15 16 -27.5t28 -10.5h1
q14 2 24.5 17t8.5 31l-58 473q-3 19 5.5 34.5t22.5 26.5t31 18.5t31 10.5l91 11zM98 703q-2 19 10 34.5t33 17.5t37 -9.5t18 -30.5q2 -20 -10.5 -35t-33.5 -17q-21 -3 -36.5 8.5t-17.5 31.5zM330 732q2 -20 -10.5 -35t-33.5 -18q-21 -2 -36.5 9.5t-17.5 31.5q-2 19 10 34
t33 17q21 3 37 -8.5t18 -30.5z" />
    <glyph glyph-name="FL00DDh" unicode="&#xdd;" 
d="M452 669l4 -34q-11 -4 -22 -17.5t-9 -24.5l61 -502q2 -15 -8 -28.5t-25 -24t-32 -17t-29 -7.5l-171 -21q-8 -1 -27.5 1t-39.5 8t-36 16.5t-18 25.5l-17 144q-2 11 -15.5 21t-25.5 12l-4 35l90 11q15 1 33.5 -2t35 -11t28 -21t13.5 -32l14 -115q2 -16 16 -28.5t28 -10.5h2
q20 2 26 17t4 34l-21 174q-5 15 -12.5 25t-28.5 14l-83 -10q-14 -2 -34 0.5t-39 9t-33 16.5t-15 23l-24 196q-2 11 -15.5 21t-25.5 12l-4 34l90 11q15 1 33.5 -2t35 -10.5t28 -20.5t13.5 -32l21 -172q4 -14 14 -23.5t23 -11.5l15 2q12 5 19.5 19t5.5 28l-20 167
q-3 19 5.5 34.5t22.5 26.5t31 18.5t31 10.5zM246 675l-97 -12l35 97l106 13z" />
    <glyph glyph-name="FL00DEh" unicode="&#xde;" horiz-adv-x="492" 
d="M70 -24l-5 35q11 5 21.5 17t8.5 24l-70 571q-2 13 -14.5 21.5t-24.5 10.5l-4 36l230 29l4 -37q-8 -5 -19.5 -16t-9.5 -24l13 -103l117 14q8 1 29 2t43.5 -3t41 -17t21.5 -40l26 -209q3 -25 -8 -41.5t-29 -26.5t-40.5 -15t-41.5 -7l-115 -14l13 -111q2 -13 15.5 -21.5
t22.5 -10.5l5 -36zM245 495l-39 -5l31 -257l38 5q9 3 21.5 19t14.5 43l-18 143q-1 9 -5.5 18.5t-11 17.5t-14.5 12.5t-17 3.5z" />
    <glyph glyph-name="FL00E7h" unicode="&#xdf;" horiz-adv-x="438" 
d="M179 599q-10 -1 -16.5 -7t-10.5 -14.5t-5.5 -18.5t-0.5 -18l72 -586q3 -19 -5 -34.5t-22 -26.5t-31 -18.5t-32 -10.5l-91 -11l-4 34q6 1 12 6.5t10.5 12t7 13t1.5 11.5l-76 623q-3 24 7 39t26 23t33.5 11t29.5 4l180 23q14 1 32.5 -1t35 -9.5t29 -20t14.5 -32.5l19 -156
q2 -16 -8.5 -31.5t-18.5 -22.5l3 -4q7 -2 21 -16.5t17 -38.5l29 -234q1 -13 -11 -26t-28 -23t-31.5 -16.5t-20.5 -6.5l-94 -12l-6 44h2q20 2 26 17t4 34l-21 174q-4 11 -7.5 18.5t-15.5 14.5l-20 -2l-6 51l25 3q15 7 12 27l-22 178l-1 -3q-5 15 -13.5 25.5t-29.5 13.5z" />
    <glyph glyph-name="FL00E0h" unicode="&#xe0;" horiz-adv-x="519" 
d="M72 -28l-4 32q8 4 18.5 14.5t9.5 21.5l-63 511q-2 11 -14 18t-22 9l-4 32l297 37q7 1 28.5 2.5t44.5 -1.5t42 -14t22 -35l73 -595q2 -17 20.5 -23.5t35.5 -6.5q15 0 20 1l5 -35l-110 -14q-15 -2 -35 -0.5t-38 8.5t-31.5 19.5t-16.5 32.5l-42 347l-90 -11l32 -263
q2 -11 15 -18.5t21 -9.5l4 -32zM229 594l-43 -6l27 -220l84 11l-21 168q-1 9 -5 17.5t-10 15.5t-14.5 11t-17.5 3zM282 677l-97 -12l-66 85l105 12z" />
    <glyph glyph-name="FL00E1h" unicode="&#xe1;" horiz-adv-x="519" 
d="M72 -28l-4 32q8 4 18.5 14.5t9.5 21.5l-63 511q-2 11 -14 18t-22 9l-4 32l297 37q7 1 28.5 2.5t44.5 -1.5t42 -14t22 -35l73 -595q2 -17 20.5 -23.5t35.5 -6.5q15 0 20 1l5 -35l-110 -14q-15 -2 -35 -0.5t-38 8.5t-31.5 19.5t-16.5 32.5l-42 347l-90 -11l32 -263
q2 -11 15 -18.5t21 -9.5l4 -32zM229 594l-43 -6l27 -220l84 11l-21 168q-1 9 -5 17.5t-10 15.5t-14.5 11t-17.5 3zM241 672l-97 -12l35 97l105 13z" />
    <glyph glyph-name="FL00E2h" unicode="&#xe2;" horiz-adv-x="519" 
d="M72 -28l-4 32q8 4 18.5 14.5t9.5 21.5l-63 511q-2 11 -14 18t-22 9l-4 32l297 37q7 1 28.5 2.5t44.5 -1.5t42 -14t22 -35l73 -595q2 -17 20.5 -23.5t35.5 -6.5q15 0 20 1l5 -35l-110 -14q-15 -2 -35 -0.5t-38 8.5t-31.5 19.5t-16.5 32.5l-42 347l-90 -11l32 -263
q2 -11 15 -18.5t21 -9.5l4 -32zM229 594l-43 -6l27 -220l84 11l-21 168q-1 9 -5 17.5t-10 15.5t-14.5 11t-17.5 3zM198 667l-98 -12l36 97l134 16l59 -85l-96 -12l-23 37z" />
    <glyph glyph-name="FL00E3h" unicode="&#xe3;" horiz-adv-x="519" 
d="M72 -28l-4 32q8 4 18.5 14.5t9.5 21.5l-63 511q-2 11 -14 18t-22 9l-4 32l297 37q7 1 28.5 2.5t44.5 -1.5t42 -14t22 -35l73 -595q2 -17 20.5 -23.5t35.5 -6.5q15 0 20 1l5 -35l-110 -14q-15 -2 -35 -0.5t-38 8.5t-31.5 19.5t-16.5 32.5l-42 347l-90 -11l32 -263
q2 -11 15 -18.5t21 -9.5l4 -32zM229 594l-43 -6l27 -220l84 11l-21 168q-1 9 -5 17.5t-10 15.5t-14.5 11t-17.5 3zM224 762l97 12l-36 -97l-69 -8l-23 37l-13 -42l-97 -12l36 98l70 8l23 -37z" />
    <glyph glyph-name="FL00E4h" unicode="&#xe4;" horiz-adv-x="519" 
d="M72 -28l-4 32q8 4 18.5 14.5t9.5 21.5l-63 511q-2 11 -14 18t-22 9l-4 32l297 37q7 1 28.5 2.5t44.5 -1.5t42 -14t22 -35l73 -595q2 -17 20.5 -23.5t35.5 -6.5q15 0 20 1l5 -35l-110 -14q-15 -2 -35 -0.5t-38 8.5t-31.5 19.5t-16.5 32.5l-42 347l-90 -11l32 -263
q2 -11 15 -18.5t21 -9.5l4 -32zM229 594l-43 -6l27 -220l84 11l-21 168q-1 9 -5 17.5t-10 15.5t-14.5 11t-17.5 3zM92 700q-2 19 10 34t33 18q21 2 37 -9.5t19 -30.5q2 -20 -11 -35t-33 -18q-21 -2 -36.5 9.5t-18.5 31.5zM325 728q2 -20 -11 -35t-33 -17q-21 -3 -36.5 8.5
t-18.5 31.5q-2 19 10 34.5t33 17.5t37 -9.5t19 -30.5z" />
    <glyph glyph-name="FL00E5h" unicode="&#xe5;" horiz-adv-x="519" 
d="M160 708q2 -20 18 -31.5t37 -8.5q21 2 33 17t10 35q-2 19 -17.5 30.5t-36.5 9.5t-33.5 -17.5t-10.5 -34.5zM186 588l43 6q9 1 17.5 -3t14.5 -11t10 -15.5t5 -17.5l21 -168l-84 -11zM68 4l4 -32l218 27l-4 32q-8 2 -21 9.5t-15 18.5l-32 263l90 11l42 -347
q3 -20 16.5 -32.5t31.5 -19.5t38 -8.5t35 0.5l110 14l-5 35q-5 -1 -20 -1q-17 0 -35.5 6.5t-20.5 23.5l-73 595q-3 24 -22 35t-42 14t-44.5 1.5t-28.5 -2.5l-297 -37l4 -32q10 -2 22 -9t14 -18l63 -511q1 -11 -9.5 -21.5t-18.5 -14.5zM219 716q2 -9 -9 -11q-10 0 -12 8
q0 9 10 10q11 2 11 -7z" />
    <glyph glyph-name="FL00E6h" unicode="&#xe6;" horiz-adv-x="771" 
d="M59 -42l-4 32q9 4 20 14.5t9 21.5l-63 511q-2 11 -14.5 18t-21.5 9l-4 32l684 84l25 -207q2 -11 15.5 -22.5t25.5 -12.5l4 -33l-91 -12q-15 0 -33 3t-34.5 10.5t-28 20.5t-13.5 32l-18 143q-1 8 -14.5 15t-29.5 7q-11 -3 -23.5 -14t-10.5 -22l28 -229q18 2 28.5 11
t6.5 39l39 5l17 -135l-39 -5l-1 6q-3 27 -15 32t-30 3l29 -237q2 -11 15.5 -18t30.5 -11q11 4 23 11.5t10 21.5l-18 143q-2 19 6.5 34.5t22.5 27t30.5 19t31.5 10.5l90 11l4 -35q-11 -5 -21 -17t-10 -25l26 -208l-242 -30l2 -20q1 -12 8.5 -18.5t17 -9.5t19.5 -3.5t17 0.5
l4 -35l-109 -14q-15 -2 -35 -0.5t-38.5 8.5t-32 19.5t-16.5 32.5l-42 347l-90 -11l33 -263q2 -11 14 -18.5t22 -9.5l3 -32zM217 580l-43 -5l27 -221l83 10l-20 169q-1 9 -5 17.5t-10 15.5t-14.5 11t-17.5 3z" />
    <glyph glyph-name="FL00ECh" unicode="&#xe7;" horiz-adv-x="472" 
d="M177 594q-21 -8 -27 -20t-6 -28l56 -461q2 -18 12.5 -31t29.5 -11l3 1q14 2 24.5 17t8.5 31l-14 115q-2 19 6 34.5t21.5 27t30 19t31.5 10.5l91 11l4 -35q-11 -5 -22 -18t-9 -24l18 -144q2 -15 -11.5 -29t-31.5 -24.5t-36.5 -17t-25.5 -7.5l-62 -8l5 -41q2 -17 10.5 -28
t39.5 -7l5 -38l-143 -18l-4 39h4q27 4 32.5 16t11.5 31l-5 41l-64 -8q-12 -2 -30.5 0.5t-36 9t-30.5 17t-15 25.5l-62 507q-3 24 7 38.5t25.5 23t33 12t29.5 5.5l180 22q12 1 29.5 2.5t34.5 -2.5t30.5 -15.5t16.5 -36.5l18 -144q2 -11 15.5 -22t24.5 -12l4 -34l-90 -11
q-15 -1 -33 2t-34.5 11t-28 21t-13.5 31l-13 108q-2 17 -14 33t-31 14z" />
    <glyph glyph-name="FL00E8h" unicode="&#xe8;" horiz-adv-x="510" 
d="M270 586q-1 9 -14.5 16t-29.5 7q-11 -4 -23 -14.5t-11 -21.5l29 -229q17 2 28 10.5t7 39.5l38 5l17 -135l-39 -5l-1 6q-3 27 -14.5 32t-30.5 3l29 -237q2 -11 15.5 -18.5t30.5 -10.5q11 4 23 11.5t10 21.5l-17 143q-3 19 5.5 34.5t22.5 27t31 19t31 10.5l90 11l5 -35
q-11 -4 -22 -17.5t-9 -24.5l25 -208l-425 -52l-3 31q8 5 19 15.5t9 21.5l-62 510q-2 11 -15 18.5t-22 9.5l-4 32l425 52l25 -207q2 -11 16 -22.5t25 -12.5l4 -34l-90 -11q-15 -1 -33 2t-34.5 11t-28.5 21t-14 31zM288 680l-97 -12l-66 85l104 13z" />
    <glyph glyph-name="FL00E9h" unicode="&#xe9;" horiz-adv-x="510" 
d="M270 586q-1 9 -14.5 16t-29.5 7q-11 -4 -23 -14.5t-11 -21.5l29 -229q17 2 28 10.5t7 39.5l38 5l17 -135l-39 -5l-1 6q-3 27 -14.5 32t-30.5 3l29 -237q2 -11 15.5 -18.5t30.5 -10.5q11 4 23 11.5t10 21.5l-17 143q-3 19 5.5 34.5t22.5 27t31 19t31 10.5l90 11l5 -35
q-11 -4 -22 -17.5t-9 -24.5l25 -208l-425 -52l-3 31q8 5 19 15.5t9 21.5l-62 510q-2 11 -15 18.5t-22 9.5l-4 32l425 52l25 -207q2 -11 16 -22.5t25 -12.5l4 -34l-90 -11q-15 -1 -33 2t-34.5 11t-28.5 21t-14 31zM246 675l-97 -12l36 97l105 13z" />
    <glyph glyph-name="FL00EAh" unicode="&#xea;" horiz-adv-x="510" 
d="M270 586q-1 9 -14.5 16t-29.5 7q-11 -4 -23 -14.5t-11 -21.5l29 -229q17 2 28 10.5t7 39.5l38 5l17 -135l-39 -5l-1 6q-3 27 -14.5 32t-30.5 3l29 -237q2 -11 15.5 -18.5t30.5 -10.5q11 4 23 11.5t10 21.5l-17 143q-3 19 5.5 34.5t22.5 27t31 19t31 10.5l90 11l5 -35
q-11 -4 -22 -17.5t-9 -24.5l25 -208l-425 -52l-3 31q8 5 19 15.5t9 21.5l-62 510q-2 11 -15 18.5t-22 9.5l-4 32l425 52l25 -207q2 -11 16 -22.5t25 -12.5l4 -34l-90 -11q-15 -1 -33 2t-34.5 11t-28.5 21t-14 31zM204 670l-99 -12l37 97l134 16l59 -85l-97 -12l-22 38z" />
    <glyph glyph-name="FL00EBh" unicode="&#xeb;" horiz-adv-x="510" 
d="M270 586q-1 9 -14.5 16t-29.5 7q-11 -4 -23 -14.5t-11 -21.5l29 -229q17 2 28 10.5t7 39.5l38 5l17 -135l-39 -5l-1 6q-3 27 -14.5 32t-30.5 3l29 -237q2 -11 15.5 -18.5t30.5 -10.5q11 4 23 11.5t10 21.5l-17 143q-3 19 5.5 34.5t22.5 27t31 19t31 10.5l90 11l5 -35
q-11 -4 -22 -17.5t-9 -24.5l25 -208l-425 -52l-3 31q8 5 19 15.5t9 21.5l-62 510q-2 11 -15 18.5t-22 9.5l-4 32l425 52l25 -207q2 -11 16 -22.5t25 -12.5l4 -34l-90 -11q-15 -1 -33 2t-34.5 11t-28.5 21t-14 31zM98 703q-2 19 10 34t33 18q21 2 37 -9.5t18 -30.5
q2 -20 -10.5 -35t-33.5 -17q-21 -3 -36.5 8.5t-17.5 31.5zM330 732q2 -20 -10.5 -35.5t-33.5 -17.5t-36.5 9.5t-17.5 31.5q-2 18 10 33.5t33 17.5q21 3 37 -8.5t18 -30.5z" />
    <glyph glyph-name="FL00F7h" unicode="&#xec;" horiz-adv-x="272" 
d="M173 681l-97 -12l-66 85l104 12zM290 48l4 -31l-223 -28l-4 32q8 4 19 15t9 22l-62 510q-2 11 -15 18.5t-22 9.5l-4 31l223 28l4 -32q-8 -4 -18.5 -14t-8.5 -22l62 -510q2 -11 15 -19t21 -10z" />
    <glyph glyph-name="FL00EDh" unicode="&#xed;" horiz-adv-x="272" 
d="M71 -11l-4 32q8 4 19 15t9 22l-62 510q-2 11 -15 18.5t-22 9.5l-4 31l223 28l4 -32q-8 -4 -18.5 -14t-8.5 -22l62 -510q2 -11 15 -19t21 -10l4 -31zM125 675l-97 -12l37 97l104 13z" />
    <glyph glyph-name="FL00EEh" unicode="&#xee;" horiz-adv-x="272" 
d="M71 -11l-4 32q8 4 19 14.5t9 21.5l-62 511q-2 11 -15 18t-22 9l-4 32l223 28l4 -32q-8 -4 -18.5 -14t-8.5 -22l62 -510q2 -11 15 -19t21 -10l4 -32zM85 670l-98 -12l36 97l134 16l59 -85l-97 -12l-22 38z" />
    <glyph glyph-name="FL00EFh" unicode="&#xef;" horiz-adv-x="272" 
d="M71 -11l-4 32q8 4 19 15t9 22l-62 510q-2 11 -15 18.5t-22 9.5l-4 31l223 28l4 -32q-8 -4 -18.5 -14t-8.5 -22l62 -510q2 -11 15 -19t21 -10l4 -31zM-21 703q-2 19 10.5 34.5t32.5 17.5q21 2 37 -9.5t18 -30.5q2 -20 -10.5 -35t-33.5 -17q-20 -3 -36 8.5t-18 31.5z
M211 732q2 -20 -10.5 -35.5t-33.5 -17.5q-20 -2 -36 9.5t-18 31.5q-2 18 10.5 33.5t32.5 17.5q21 3 37 -8.5t18 -30.5z" />
    <glyph glyph-name="FL00F0h" unicode="&#xf0;" horiz-adv-x="472" 
d="M92 45q2 -15 18 -25t36 -16t39.5 -8t27.5 -1l170 21q12 1 29 7.5t32.5 17t25.5 24t8 28.5l-63 507q-3 24 -16 36t-30 16.5t-34.5 3.5t-29.5 -2l-180 -22q-12 -2 -29.5 -5t-33 -11t-26 -22.5t-7.5 -38.5l9 -72q1 -10 -9.5 -25t-21.5 -18l4 -34l90 11q15 3 32 10.5t30.5 19
t22 27t6.5 33.5l-4 35q-2 17 5.5 36t26.5 21q23 -2 31.5 -12.5t12.5 -26.5l15 -124q-6 -26 -31 -41l-146 -18q-22 -14 -33 -36.5t-10 -34.5zM212 325q12 30 38 33q11 2 22.5 -3t18.5 -17l30 -238q2 -19 -5 -34t-25 -17l-3 -1q-14 -2 -28 11.5t-18 27.5z" />
    <glyph glyph-name="FL00F1h" unicode="&#xf1;" horiz-adv-x="504" 
d="M323 777l-97 -12l-12 -41l-23 37l-70 -8l-35 -97l97 11l12 42l23 -37l69 8zM429 601h-1v1q-2 12 8.5 21.5t18.5 13.5l-3 32l-218 -26l4 -32q8 -2 21 -8.5t14 -13.5l31 -249l-164 226q-5 10 -14 20.5t-18.5 19t-18 13.5t-12.5 4l-84 -10l4 -32q9 -2 22 -9.5t15 -18.5
l62 -510q2 -11 -9 -21.5t-20 -15.5l4 -31l220 27l-4 31q-10 2 -22 10t-14 19l-28 226l164 -212q2 -9 9.5 -19t17.5 -18.5t20 -13.5t18 -4l47 6z" />
    <glyph glyph-name="FL00F2h" unicode="&#xf2;" horiz-adv-x="436" 
d="M192 598q-19 -3 -27 -22t-6 -36l56 -451q2 -19 12.5 -32t28.5 -11q26 4 32 21t3 43l-54 440q-1 9 -5 18t-10 16t-13.5 11t-16.5 3zM96 630l180 22q11 1 29 2t35.5 -4t31 -17.5t16.5 -38.5l61 -503q2 -15 -8 -28.5t-25 -24t-32 -17t-29 -7.5l-181 -22q-12 -2 -30 0.5
t-35.5 9t-30.5 17t-15 25.5l-62 506q-3 24 7 39t25.5 23.5t33 12t29.5 5.5zM254 681l-97 -12l-66 84l104 13z" />
    <glyph glyph-name="FL00F3h" unicode="&#xf3;" horiz-adv-x="436" 
d="M192 598q-19 -3 -27 -22t-6 -36l56 -451q2 -19 12.5 -32t28.5 -11q26 4 32 21t3 43l-54 440q-1 9 -5 18t-10 16t-13.5 11t-16.5 3zM96 630l180 22q11 1 29 2t35.5 -4t31 -17.5t16.5 -38.5l61 -503q2 -15 -8 -28.5t-25 -24t-32 -17t-29 -7.5l-181 -22q-12 -2 -30 0.5
t-35.5 9t-30.5 17t-15 25.5l-62 506q-3 24 7 39t25.5 23.5t33 12t29.5 5.5zM208 675l-97 -12l36 97l105 13z" />
    <glyph glyph-name="FL00F4h" unicode="&#xf4;" horiz-adv-x="436" 
d="M96 630l180 22q11 1 29 2t35.5 -4t31 -17.5t16.5 -38.5l61 -503q2 -15 -8 -28.5t-25 -24t-32 -17t-29 -7.5l-181 -22q-12 -2 -30 0.5t-35.5 9t-30.5 17t-15 25.5l-62 506q-3 24 7 39t25.5 23.5t33 12t29.5 5.5zM192 598q-19 -3 -27 -22t-6 -36l56 -451q2 -19 12.5 -32
t28.5 -11q26 4 32 21t3 43l-54 440q-1 9 -5 18t-10 16t-13.5 11t-16.5 3zM166 670l-98 -12l36 97l134 16l59 -85l-97 -12l-22 38z" />
    <glyph glyph-name="FL00F5h" unicode="&#xf5;" horiz-adv-x="436" 
d="M96 630l180 22q11 1 29 2t35.5 -4t31 -17.5t16.5 -38.5l61 -503q2 -15 -8 -28.5t-25 -24t-32 -17t-29 -7.5l-181 -22q-12 -2 -30 0.5t-35.5 9t-30.5 17t-15 25.5l-62 506q-3 24 7 39t25.5 23.5t33 12t29.5 5.5zM192 598q-19 -3 -27 -22t-6 -36l56 -451q2 -19 12.5 -32
t28.5 -11q26 4 32 21t3 43l-54 440q-1 9 -5 18t-10 16t-13.5 11t-16.5 3zM194 766l97 12l-35 -97l-70 -9l-23 38l-12 -42l-98 -12l37 97l69 9l23 -38z" />
    <glyph glyph-name="FL00F6h" unicode="&#xf6;" horiz-adv-x="436" 
d="M192 598q-19 -3 -27 -22t-6 -36l56 -451q2 -19 12.5 -32t28.5 -11q26 4 32 21t3 43l-54 440q-1 9 -5 18t-10 16t-13.5 11t-16.5 3zM96 630l180 22q11 1 29 2t35.5 -4t31 -17.5t16.5 -38.5l61 -503q2 -15 -8 -28.5t-25 -24t-32 -17t-29 -7.5l-181 -22q-12 -2 -30 0.5
t-35.5 9t-30.5 17t-15 25.5l-62 506q-3 24 7 39t25.5 23.5t33 12t29.5 5.5zM61 703q-2 19 10 34.5t33 17.5t37 -9.5t18 -30.5q2 -20 -10.5 -35t-33.5 -17q-21 -3 -36.5 8.5t-17.5 31.5zM293 732q2 -20 -10.5 -35t-33.5 -18q-21 -2 -36.5 9.5t-17.5 31.5q-2 19 10 34t33 17
q21 3 37 -8.5t18 -30.5z" />
    <glyph glyph-name="FL0100h" unicode="&#xf7;" horiz-adv-x="322" 
d="M102 341l114 14q18 2 28.5 11t6.5 40l39 4l16 -135l-38 -4l-1 6q-2 13 -6 19t-10 8.5t-13.5 3t-16.5 3.5l-114 -14q-20 -2 -30 -10t-7 -35l1 -6l-39 -4l-16 135l38 4q4 -30 16.5 -36t31.5 -4zM99 435q-2 19 10 34.5t33 17.5t37 -9.5t18 -30.5q3 -20 -10 -35t-33 -17
q-21 -3 -36.5 8.5t-18.5 31.5zM226 218q2 -20 -11 -34.5t-33 -17.5q-21 -2 -36.5 9t-18.5 31q-2 20 10.5 34.5t32.5 17.5q21 2 37 -9t19 -31z" />
    <glyph glyph-name="FL00F8h" unicode="&#xf8;" horiz-adv-x="436" 
d="M88 630l180 22q12 1 29.5 1.5t35 -4.5t31 -17.5t16.5 -37.5l62 -503q2 -15 -8 -28.5t-25.5 -24t-32.5 -17t-29 -7.5l-180 -23q-12 -2 -30.5 0.5t-35.5 9t-30 17t-15 25.5l-63 506q-3 24 7 39t25.5 24t33 12.5t29.5 5.5zM249 46q26 3 32 20t2 43l-30 247l-52 -213l6 -55
q2 -19 12.5 -31.5t29.5 -10.5zM184 597q-19 -2 -26.5 -21t-5.5 -36l28 -230l52 215l-3 24q-2 18 -14 34t-31 14z" />
    <glyph glyph-name="FL00F9h" unicode="&#xf9;" 
d="M456 635q-11 -4 -22 -17.5t-9 -24.5l61 -502q2 -15 -11 -29t-31 -24.5t-36 -17t-26 -7.5l-162 -20q-8 -1 -27.5 1t-39.5 8t-36 16.5t-18 25.5l-61 502q-2 11 -15.5 21t-25.5 12l-4 34l90 11q15 1 33.5 -2t35 -10.5t28 -20.5t13.5 -32l58 -474q2 -15 16 -27.5t28 -10.5h1
q14 2 24.5 17t8.5 31l-58 473q-3 19 5.5 34.5t22.5 26.5t31 18.5t31 10.5l91 11zM288 680l-97 -12l-66 85l104 13z" />
    <glyph glyph-name="FL00FAh" unicode="&#xfa;" 
d="M456 635q-11 -4 -22 -17.5t-9 -24.5l61 -502q2 -15 -11 -29t-31 -24.5t-36 -17t-26 -7.5l-162 -20q-8 -1 -27.5 1t-39.5 8t-36 16.5t-18 25.5l-61 502q-2 11 -15.5 21t-25.5 12l-4 34l90 11q15 1 33.5 -2t35 -10.5t28 -20.5t13.5 -32l58 -474q2 -15 16 -27.5t28 -10.5h1
q14 2 24.5 17t8.5 31l-58 473q-3 19 5.5 34.5t22.5 26.5t31 18.5t31 10.5l91 11zM246 675l-97 -12l35 97l106 13z" />
    <glyph glyph-name="FL00FBh" unicode="&#xfb;" 
d="M456 635q-11 -4 -22 -17.5t-9 -24.5l61 -502q2 -15 -11 -29t-31 -24.5t-36 -17t-26 -7.5l-162 -20q-8 -1 -27.5 1t-39.5 8t-36 16.5t-18 25.5l-61 502q-2 11 -15.5 21t-25.5 12l-4 34l90 11q15 1 33.5 -2t35 -10.5t28 -20.5t13.5 -32l58 -474q2 -15 16 -27.5t28 -10.5h1
q14 2 24.5 17t8.5 31l-58 473q-3 19 5.5 34.5t22.5 26.5t31 18.5t31 10.5l91 11zM204 670l-99 -12l37 97l134 17l59 -86l-97 -12l-22 38z" />
    <glyph glyph-name="FL00FCh" unicode="&#xfc;" 
d="M456 635q-11 -4 -22 -17.5t-9 -24.5l61 -502q2 -15 -11 -29t-31 -24.5t-36 -17t-26 -7.5l-162 -20q-8 -1 -27.5 1t-39.5 8t-36 16.5t-18 25.5l-61 502q-2 11 -15.5 21t-25.5 12l-4 34l90 11q15 1 33.5 -2t35 -10.5t28 -20.5t13.5 -32l58 -474q2 -15 16 -27.5t28 -10.5h1
q14 2 24.5 17t8.5 31l-58 473q-3 19 5.5 34.5t22.5 26.5t31 18.5t31 10.5l91 11zM98 703q-2 19 10 34.5t33 17.5t37 -9.5t18 -30.5q2 -20 -10.5 -35t-33.5 -17q-21 -3 -36.5 8.5t-17.5 31.5zM330 732q2 -20 -10.5 -35t-33.5 -18q-21 -2 -36.5 9.5t-17.5 31.5q-2 19 10 34
t33 17q21 3 37 -8.5t18 -30.5z" />
    <glyph glyph-name="FL00FDh" unicode="&#xfd;" 
d="M452 669l4 -34q-11 -4 -22 -17.5t-9 -24.5l61 -502q2 -15 -8 -28.5t-25 -24t-32 -17t-29 -7.5l-171 -21q-8 -1 -27.5 1t-39.5 8t-36 16.5t-18 25.5l-17 144q-2 11 -15.5 21t-25.5 12l-4 35l90 11q15 1 33.5 -2t35 -11t28 -21t13.5 -32l14 -115q2 -16 16 -28.5t28 -10.5h2
q20 2 26 17t4 34l-21 174q-5 15 -12.5 25t-28.5 14l-83 -10q-14 -2 -34 0.5t-39 9t-33 16.5t-15 23l-24 196q-2 11 -15.5 21t-25.5 12l-4 34l90 11q15 1 33.5 -2t35 -10.5t28 -20.5t13.5 -32l21 -172q4 -14 14 -23.5t23 -11.5l15 2q12 5 19.5 19t5.5 28l-20 167
q-3 19 5.5 34.5t22.5 26.5t31 18.5t31 10.5zM246 675l-97 -12l35 97l106 13z" />
    <glyph glyph-name="FL00FEh" unicode="&#xfe;" horiz-adv-x="468" 
d="M64 -23l-4 31q8 5 19 15.5t10 21.5l-63 510q-2 11 -14.5 18.5t-22.5 9.5l-4 32l220 27l4 -32q-9 -4 -19.5 -14.5t-8.5 -21.5l11 -92l111 14q8 1 28 2t41 -3t38.5 -15.5t20.5 -35.5l23 -187q3 -22 -7.5 -36.5t-27.5 -24t-38.5 -14t-40.5 -6.5l-109 -14l12 -98
q2 -11 14.5 -19t21.5 -10l4 -31zM233 442l-35 -5l28 -229l35 5q8 3 20.5 17t14.5 37l-16 128q-2 16 -14.5 32.5t-32.5 14.5z" />
    <glyph glyph-name="FL00FFh" unicode="&#xff;" 
d="M452 669l4 -34q-11 -4 -22 -17.5t-9 -24.5l61 -502q2 -15 -8 -28.5t-25 -24t-32 -17t-29 -7.5l-171 -21q-8 -1 -27.5 1t-39.5 8t-36 16.5t-18 25.5l-17 144q-2 11 -15.5 21t-25.5 12l-4 35l90 11q15 1 33.5 -2t35 -11t28 -21t13.5 -32l14 -115q2 -16 16 -28.5t28 -10.5h2
q20 2 26 17t4 34l-21 174q-5 15 -12.5 25t-28.5 14l-83 -10q-14 -2 -34 0.5t-39 9t-33 16.5t-15 23l-24 196q-2 11 -15.5 21t-25.5 12l-4 34l90 11q15 1 33.5 -2t35 -10.5t28 -20.5t13.5 -32l21 -172q4 -14 14 -23.5t23 -11.5l15 2q12 5 19.5 19t5.5 28l-20 167
q-3 19 5.5 34.5t22.5 26.5t31 18.5t31 10.5zM98 703q-2 19 10 34.5t33 17.5t37 -9.5t18 -30.5q2 -20 -10.5 -35t-33.5 -17q-21 -3 -36.5 8.5t-17.5 31.5zM330 732q2 -20 -10.5 -35t-33.5 -18q-21 -2 -36.5 9.5t-17.5 31.5q-2 19 10 34t33 17q21 3 37 -8.5t18 -30.5z" />
    <glyph glyph-name="FL0152h" unicode="&#x152;" horiz-adv-x="905" 
d="M626 756q-2 11 -16.5 19.5t-32.5 8.5q-12 -4 -25 -18t-11 -28l35 -286q21 2 31.5 13.5t5.5 50.5l43 5l21 -170l-43 -5v6q-5 34 -18 41t-33 5l36 -298q2 -14 17 -23.5t34 -13.5q13 4 25.5 13.5t10.5 28.5l-22 179q-3 24 6 43t24 32.5t33.5 22.5t34.5 13l100 13l5 -44
q-10 -6 -22.5 -22.5t-10.5 -30.5l32 -261l-696 -85q-13 -2 -33 1.5t-39 11.5t-34 21.5t-18 32.5l-78 637q-4 31 6.5 49.5t28 28.5t37 13.5t32.5 5.5l696 85l32 -261q1 -6 6 -13.5t11.5 -14t13.5 -11t13 -4.5l6 -42l-100 -12q-17 -1 -37 3t-38 14t-31 26.5t-16 40.5zM198 724
q-23 -9 -29.5 -24.5t-6.5 -35.5l71 -579q3 -23 14.5 -39t32.5 -14l3 1q16 2 27 21t9 39l-18 143q-3 25 5.5 44t23.5 32.5t33.5 22.5t35.5 13l11 2l-12 96l-11 -1q-17 -1 -37 3t-38 14t-31 26t-16 39l-16 136q-2 10 -6.5 21.5t-11 20.5t-15 14.5t-18.5 4.5z" />
    <glyph glyph-name="FL0153h" unicode="&#x153;" horiz-adv-x="793" 
d="M545 603q-2 9 -15.5 15.5t-29.5 7.5q-11 -4 -23 -14.5t-10 -21.5l28 -230q18 2 28.5 11t6.5 40l39 5l16 -135l-38 -5l-1 6q-4 27 -15.5 32t-30.5 3l29 -238q2 -11 15.5 -18t30.5 -10q11 4 23 11.5t10 21.5l-17 143q-2 19 6.5 34.5t22 27t30.5 19t32 10.5l90 11l4 -35
q-11 -5 -22 -18t-9 -24l26 -208l-603 -74q-12 -2 -30.5 0.5t-35.5 8.5t-30 16.5t-15 25.5l-62 508q-3 24 7 38.5t25.5 23t33 12t29.5 5.5l602 74l26 -208q0 -5 4.5 -11t10.5 -11t13 -8.5t12 -3.5l4 -34l-90 -11q-15 -1 -33.5 2t-35 11t-28 21t-13.5 31zM185 575
q-20 -8 -26 -20t-7 -28l57 -461q2 -19 12 -31.5t29 -10.5h3q14 2 24.5 17.5t8.5 31.5l-14 115q-2 17 3.5 30.5t16 24t24 18t27.5 12.5l-10 83q-15 1 -30 5t-27.5 12t-21 19.5t-10.5 27.5l-13 107q-2 18 -15 34t-31 14z" />
    <glyph glyph-name="FL0160h" unicode="&#x160;" horiz-adv-x="508" 
d="M228 598q-21 -8 -27 -20.5t-7 -28.5l19 -155q2 -17 10 -28.5t23 -13.5l102 12q12 1 29.5 2t34.5 -3t30 -15.5t16 -36.5l27 -220q2 -15 -8 -28.5t-25 -24t-32 -17t-29 -7.5l-171 -21q-8 -1 -27.5 1t-39.5 8t-36 16.5t-18 25.5l-17 144q-2 11 -15.5 21t-25.5 12l-4 35
l90 11q15 1 33.5 -2t35 -11t28 -21t13.5 -32l14 -115q2 -16 16 -28.5t28 -10.5h3q19 2 25.5 17t4.5 34l-21 174q-5 15 -13 25.5t-31 13.5l-90 -11q-12 -2 -30.5 0t-35.5 8t-30 16t-15 25l-25 202q-3 24 7 38.5t25.5 23t33 12t29.5 5.5l180 22q11 1 28.5 2.5t35 -2.5
t31 -15.5t16.5 -36.5l15 -126q2 -11 15.5 -22t25.5 -12l4 -34l-90 -11q-15 -1 -33.5 2t-34.5 11t-27.5 21t-13.5 31l-11 90q-1 9 -5 18t-10 16t-13.5 11t-16.5 3zM225 765l97 12l-36 -97l-134 -16l-58 85l96 12l23 -37z" />
    <glyph glyph-name="FL0161h" unicode="&#x161;" horiz-adv-x="508" 
d="M228 598q-21 -8 -27 -20.5t-7 -28.5l19 -155q2 -17 10 -28.5t23 -13.5l102 12q12 1 29.5 2t34.5 -3t30 -15.5t16 -36.5l27 -220q2 -15 -8 -28.5t-25 -24t-32 -17t-29 -7.5l-171 -21q-8 -1 -27.5 1t-39.5 8t-36 16.5t-18 25.5l-17 144q-2 11 -15.5 21t-25.5 12l-4 35
l90 11q15 1 33.5 -2t35 -11t28 -21t13.5 -32l14 -115q2 -16 16 -28.5t28 -10.5h3q19 2 25.5 17t4.5 34l-21 174q-5 15 -13 25.5t-31 13.5l-90 -11q-12 -2 -30.5 0t-35.5 8t-30 16t-15 25l-25 202q-3 24 7 38.5t25.5 23t33 12t29.5 5.5l180 22q11 1 28.5 2.5t35 -2.5
t31 -15.5t16.5 -36.5l15 -126q2 -11 15.5 -22t25.5 -12l4 -34l-90 -11q-15 -1 -33.5 2t-34.5 11t-27.5 21t-13.5 31l-11 90q-1 9 -5 18t-10 16t-13.5 11t-16.5 3zM225 765l97 12l-36 -97l-134 -16l-58 85l96 12l23 -37z" />
    <glyph glyph-name="FL0178h" unicode="&#x178;" 
d="M452 669l4 -34q-11 -4 -22 -17.5t-9 -24.5l61 -502q2 -15 -8 -28.5t-25 -24t-32 -17t-29 -7.5l-171 -21q-8 -1 -27.5 1t-39.5 8t-36 16.5t-18 25.5l-17 144q-2 11 -15.5 21t-25.5 12l-4 35l90 11q15 1 33.5 -2t35 -11t28 -21t13.5 -32l14 -115q2 -16 16 -28.5t28 -10.5h2
q20 2 26 17t4 34l-21 174q-5 15 -12.5 25t-28.5 14l-83 -10q-14 -2 -34 0.5t-39 9t-33 16.5t-15 23l-24 196q-2 11 -15.5 21t-25.5 12l-4 34l90 11q15 1 33.5 -2t35 -10.5t28 -20.5t13.5 -32l21 -172q4 -14 14 -23.5t23 -11.5l15 2q12 5 19.5 19t5.5 28l-20 167
q-3 19 5.5 34.5t22.5 26.5t31 18.5t31 10.5zM98 703q-2 19 10 34.5t33 17.5t37 -9.5t18 -30.5q2 -20 -10.5 -35t-33.5 -17q-21 -3 -36.5 8.5t-17.5 31.5zM330 732q2 -20 -10.5 -35t-33.5 -18q-21 -2 -36.5 9.5t-17.5 31.5q-2 19 10 34t33 17q21 3 37 -8.5t18 -30.5z" />
    <glyph glyph-name="FL0192h" unicode="&#x192;" 
d="M60 8q11 5 21.5 18.5t9.5 24.5l-62 502q-2 15 11 28.5t31 24t36 17.5t26 8l162 20q8 1 27 -1t39 -8t36 -16t18 -25l62 -502q2 -11 15.5 -22t24.5 -13l4 -33l-90 -12q-15 0 -33 3t-34.5 10.5t-28 20.5t-13.5 32l-58 473q-2 17 -16 29t-28 10h-1q-14 -2 -24.5 -16.5
t-8.5 -31.5l58 -474q2 -19 -6.5 -34t-22 -26.5t-30.5 -19t-32 -10.5l-89 -11z" />
    <glyph glyph-name="FL02C6h" unicode="&#x2c6;" horiz-adv-x="277" 
d="M128 626l-99 -12l37 97l134 17l59 -86l-97 -11l-22 37z" />
    <glyph glyph-name="FL02DCh" unicode="&#x2dc;" horiz-adv-x="298" 
d="M170 723l98 12l-36 -97l-69 -9l-23 38l-12 -42l-98 -12l36 97l69 9l23 -38z" />
    <glyph glyph-name="FL2013h" unicode="&#x2013;" horiz-adv-x="257" 
d="M107 301q-20 -2 -30 -10t-7 -35l1 -6l-39 -4l-17 135l39 4q4 -30 16.5 -36t30.5 -4l49 6q18 2 28.5 11t6.5 40l39 4l17 -135l-39 -4l-1 6q-2 13 -5.5 19t-9 8t-13.5 3t-18 4z" />
    <glyph glyph-name="FL2014h" unicode="&#x2014;" horiz-adv-x="322" 
d="M102 341l114 14q18 2 28.5 11t6.5 40l39 4l16 -135l-38 -4l-1 6q-2 13 -6 19t-10 8.5t-13.5 3t-16.5 3.5l-114 -14q-20 -2 -30 -10t-7 -35l1 -6l-39 -4l-16 135l38 4q4 -30 16.5 -36t31.5 -4z" />
    <glyph glyph-name="FL2018h" unicode="&#x2018;" horiz-adv-x="240" 
d="M194 417l-20 161q-2 13 9.5 25t20.5 16q0 1 1 1l-4 34l-91 -11q-15 -4 -32 -11.5t-30.5 -18.5t-22 -26.5t-6.5 -34.5l19 -155l156 19v1z" />
    <glyph glyph-name="FL2019h" unicode="&#x2019;" horiz-adv-x="240" 
d="M45 635l20 -161q2 -14 -8.5 -25.5t-21.5 -16.5v-1h-1l4 -34l91 11q15 3 32 10.5t30.5 19.5t22 27.5t6.5 33.5l-19 155z" />
    <glyph glyph-name="FL201Ah" unicode="&#x201a;" horiz-adv-x="204" 
d="M18 63q-4 30 17 53t53 28q32 4 56.5 -14t28.5 -48v-7l2 -13q1 -8 3.5 -23t5.5 -41q2 -18 -6.5 -33.5t-22 -27.5t-30.5 -20t-32 -11l-91 -11l-4 35h1q11 5 21.5 17t8.5 25z" />
    <glyph glyph-name="FL201Ch" unicode="&#x201c;" horiz-adv-x="429" 
d="M382 429l-20 161q-2 12 9 24.5t21 16.5q0 1 1 1l-4 33l-91 -11q-15 -4 -31.5 -11.5t-30.5 -18.5t-22.5 -26.5t-6.5 -34.5l19 -154l156 19v1zM194 406l-19 161q-2 12 9 24.5t21 16.5l1 1l-4 33l-92 -11q-14 -4 -31 -11.5t-31 -18.5t-22.5 -26.5t-5.5 -34.5l19 -154l156 19
z" />
    <glyph glyph-name="FL201Dh" unicode="&#x201d;" horiz-adv-x="429" 
d="M46 623l20 -161q2 -14 -9 -25.5t-22 -16.5l1 -1h-1l4 -33l91 11q15 3 32 10.5t30.5 19.5t22 27.5t6.5 33.5l-19 154zM233 646l20 -161q2 -14 -8.5 -25.5t-21.5 -16.5v-1h-1l4 -33l92 11q15 3 32 10.5t30.5 19.5t21.5 27.5t6 33.5l-19 154z" />
    <glyph glyph-name="FL201Eh" unicode="&#x201e;" horiz-adv-x="399" 
d="M19 52q-3 29 17.5 52t53.5 28q32 4 56 -14t28 -47l1 -7l2 -13q1 -8 3 -23.5t6 -41.5q2 -18 -6.5 -33t-22 -27t-30.5 -20t-32 -11l-91 -12l-4 35h1q11 5 21.5 17t8.5 25zM213 75q-4 30 16.5 53t53.5 27q32 5 56 -13t28 -48l1 -7l1 -13q2 -8 4 -23t5 -41q2 -18 -6 -33.5
t-21.5 -27.5t-30 -20t-31.5 -11l-92 -11l-4 35h1q9 5 20.5 17t9.5 25z" />
    <glyph glyph-name="FL2020h" unicode="&#x2020;" horiz-adv-x="447" 
d="M294 388l39 -311q1 -11 14 -19t22 -10l4 -32l-223 -27l-4 31q8 5 19 15.5t9 21.5l-38 312l-119 -15l-11 90l39 4q4 -31 16.5 -36.5t30.5 -3.5l38 4l-19 155q-2 11 -14 18.5t-21 9.5l-4 32l223 27l4 -32q-9 -4 -20 -14t-9 -21l19 -155l41 5q9 1 16 3.5t12 7.5t7 14.5
t0 25.5l38 4l11 -89z" />
    <glyph glyph-name="FL2021h" unicode="&#x2021;" horiz-adv-x="447" 
d="M427 299l11 -90l-39 -4q-3 29 -15.5 35t-30.5 4l-40 -5l20 -162q1 -11 14 -19t22 -10l4 -32l-223 -27l-4 31q8 5 19 15.5t9 21.5l-20 163l-38 -5q-19 -2 -29.5 -11t-6.5 -39l-39 -4l-11 89l118 14l-12 105l-119 -15l-11 90l39 4q4 -31 16.5 -36.5t30.5 -3.5l38 4l-19 155
q-2 11 -14 18.5t-21 9.5l-4 32l223 27l4 -32q-9 -4 -20 -14t-9 -21l19 -155l41 5q9 1 16 3.5t12 7.5t7 14.5t0 25.5l38 4l11 -89l-120 -15l13 -104z" />
    <glyph glyph-name="FL2022h" unicode="&#x2022;" horiz-adv-x="436" 
d="M88 630q-12 -2 -29.5 -5.5t-33 -12.5t-25.5 -24t-7 -39l63 -506q2 -15 15 -25.5t30 -17t35.5 -9t30.5 -0.5l180 23q12 1 29 7.5t32.5 17t25.5 24t8 28.5l-62 503q-3 25 -16.5 37.5t-31 17.5t-35 4.5t-29.5 -1.5z" />
    <glyph glyph-name="FL2026h" unicode="&#x2026;" horiz-adv-x="560" 
d="M379 83q-4 30 16 53t53 27q32 4 57 -13.5t29 -47.5q4 -29 -16.5 -52t-52.5 -28q-32 -4 -57 14t-29 47zM203 62q-4 29 16 52t52 28q32 4 57.5 -14t28.5 -47q4 -30 -16 -53t-52 -27q-33 -5 -58 13t-28 48zM25 40q-4 30 16.5 53t53.5 27q32 4 57 -13.5t29 -47.5t-16.5 -53
t-52.5 -27q-33 -4 -58 13.5t-29 47.5z" />
    <glyph glyph-name="FL2030h" unicode="&#x2030;" horiz-adv-x="760" 
d="M45 638l107 13q7 1 17.5 1.5t21 -2.5t19 -10.5t10.5 -22.5l28 -230l107 255l91 12l4 -32q-8 -5 -16 -15t-12 -21l-100 -239l107 13q7 1 17.5 1.5t20.5 -2.5t18 -11t10 -23l38 -303q1 -9 -5 -16.5t-15 -13.5t-19.5 -10t-17.5 -5l-108 -13q-7 -1 -18 0t-21.5 5t-18.5 10
t-9 15l-28 233l-107 -256l-92 -11l-4 32q8 4 18.5 15t9.5 22l99 238l-105 -12q-7 -1 -18 0t-21.5 5t-18.5 10t-9 15l-37 303q-2 15 4 24.5t15 14.5t19.5 7.5t18.5 3.5zM560 376l108 14q5 1 17 1q16 0 31.5 -7t18.5 -29l37 -303q1 -9 -5 -17t-15 -14t-19.5 -9.5t-17.5 -4.5
l-108 -14q-7 -1 -18 0t-21 5t-18 10t-9 15l-38 304q-2 15 4 24t15 14.5t19.5 7.5t18.5 3zM108 584q-8 -1 -9.5 -10t-0.5 -17l27 -214q1 -8 3.5 -15t10.5 -5q16 1 11 29l-26 208q-1 8 -5.5 16.5t-10.5 7.5zM382 292q-8 -1 -9.5 -10.5t-0.5 -17.5l26 -213q1 -8 4 -14.5
t11 -5.5q9 1 10.5 9t-0.5 20l-25 207q-1 8 -5.5 17t-10.5 8zM621 321q-8 -1 -9.5 -10.5t-0.5 -17.5l26 -212q2 -8 4.5 -15t10.5 -6q9 2 10.5 9.5t-0.5 20.5l-25 206q-1 8 -5.5 17t-10.5 8z" />
    <glyph glyph-name="FL2039h" unicode="&#x2039;" horiz-adv-x="139" 
d="M112 358l-11 98l-86 -59l17 -134l97 -37l-12 98l-41 13z" />
    <glyph glyph-name="FL203Ah" unicode="&#x203a;" horiz-adv-x="139" 
d="M21 347l-12 98l97 -37l17 -134l-86 -59l-12 98l38 22z" />
    <glyph glyph-name="FL2122h" unicode="&#x2122;" horiz-adv-x="281" 
d="M61 660l12 -101l18 3l-13 100l41 5l-2 19l-100 -13l2 -19zM137 684l14 -115l13 2l-9 77l4 7l38 -73q3 -5 5 -6t5 0q5 1 6 2t3 6l19 82l6 -7l10 -78l12 2l-14 119l-5 -1q-13 -2 -21.5 -11.5t-13.5 -37.5q-2 -14 -3 -22.5t-3 -19.5q-5 8 -9 18t-12 25l-1 6q-7 11 -18 21
t-16 9h-1l1 -1q0 -1 -5 -1q-3 -1 -5 -3z" />
    </font>
</defs>
</svg>
