<?xml version="1.0" standalone="no"?>
<!DOCTYPE svg PUBLIC "-//W3C//DTD SVG 1.1//EN" "http://www.w3.org/Graphics/SVG/1.1/DTD/svg11.dtd" >
<svg xmlns="http://www.w3.org/2000/svg" xmlns:xlink="http://www.w3.org/1999/xlink" version="1.1">
<metadata>
Created by FontForge 20170731 at Sat Sep  6 14:17:07 2003
 By Aleksey,,,
Copyright (c) Typographer Mediengestaltung, 2000. All rights reserved.
</metadata>
<defs>
<font id="Paganini-SemiBold" horiz-adv-x="646" >
  <font-face 
    font-family="Paganini-SemiBold"
    font-weight="600"
    font-stretch="normal"
    units-per-em="1000"
    panose-1="2 0 8 7 2 0 0 2 0 4"
    ascent="800"
    descent="-200"
    x-height="511"
    cap-height="702"
    bbox="-187 -230 1395 887"
    underline-thickness="60"
    underline-position="-105"
    unicode-range="U+0005-E002"
  />
<missing-glyph horiz-adv-x="500" 
d="M63 0h375v887h-375v-887zM125 63v762h250v-762h-250z" />
    <glyph glyph-name=".notdef" horiz-adv-x="500" 
d="M63 0h375v887h-375v-887zM125 63v762h250v-762h-250z" />
    <glyph glyph-name=".null" horiz-adv-x="0" 
 />
    <glyph glyph-name="nonmarkingreturn" horiz-adv-x="333" 
 />
    <glyph glyph-name="breve" horiz-adv-x="285" 
d="M255 631l-40 -21q-38 -20 -87 -20q-46 0 -88 21l-40 20q16 -27 30 -40q40 -40 96 -40q48 0 94 40q8 7 16.5 17t18.5 23z" />
    <glyph glyph-name="ring" horiz-adv-x="140" 
d="M144 618q0 31 -20.5 51.5t-51.5 20.5t-51.5 -19.5t-20.5 -52.5q0 -32 19.5 -52t51.5 -20t52.5 20t20.5 52zM124 618q0 -52 -52 -52q-21 0 -36 13.5t-15 38.5q0 52 52 52q23 0 37 -14.5t14 -37.5z" />
    <glyph glyph-name="caron" horiz-adv-x="246" 
d="M264 634l-49 -23l-49 -29l-47 28l-52 28l-29 -24q-12 -10 -17 -19q1 -5 59 -28l58 -22l63 43q17 11 29 20t19 14q10 7 15 12z" />
    <glyph glyph-name="dotlessi" unicode="&#xd;" horiz-adv-x="272" 
d="M236 77l-6 -3l-17 -3q-30 0 -30 46v332q0 17 -16 42t-32 25q-20 0 -72 -32q-44 -27 -66 -48q40 -18 40 -75v-311q0 -22 9 -39.5t25 -17.5q23 0 95 42z" />
    <glyph glyph-name="fi" horiz-adv-x="668" 
d="M621 620l-33 31q-25 23 -41 23q-46 -6 -122 -75l32 -31q22 -20 36 -20q23 0 76 36zM646 77l-6 -3l-17 -3q-30 0 -30 46v332q0 17 -16 42t-32 25q-20 0 -72 -32q-42 -26 -67 -48q41 -18 41 -75v-311q0 -22 9 -39.5t25 -17.5q23 0 95 42zM417 612q-18 28 -54 66
q-40 43 -54 43l-27 -10l-173 -96q-38 -22 -49 -78q-2 -12 -3.5 -36t-1.5 -61v-17q-16 -5 -46 -28q-32 -23 -42 -36q3 1 7.5 1.5t10.5 2.5h24l42 1v-362q21 0 54 15q34 15 45 15l22 -4q12 -4 23 -4q15 0 26 7q-23 23 -23 65v273l8 2l19 1l28 -3q21 0 57 33q32 28 45 52h-157
v177l44 -41q43 -41 57 -48z" />
    <glyph glyph-name="fl" horiz-adv-x="727" 
d="M693 51q-77 36 -77 128v445q0 54 -30 54q-18 0 -66 -19q-48 -18 -57 -30l2 -11q2 -14 3.5 -25.5t1.5 -21.5v-455q0 -38 18.5 -73t51.5 -51l66 20q69 22 87 39zM417 612q-18 28 -54 66q-40 43 -54 43l-27 -10l-173 -96q-38 -22 -49 -78q-2 -12 -3.5 -36t-1.5 -61v-17
q-16 -5 -46 -28q-32 -23 -42 -36q3 1 7.5 1.5t10.5 2.5h24l42 1v-362q21 0 54 15q34 15 45 15l22 -4q12 -4 23 -4q15 0 26 7q-23 23 -23 65v273l8 2l19 1l28 -3q21 0 57 33q32 28 45 52h-157v177l44 -41q43 -41 57 -48z" />
    <glyph glyph-name="Lslash" horiz-adv-x="762" 
d="M742 132l-48 -29q-27 -12 -50 -12q-21 0 -129 37q-114 38 -149 38q-30 0 -75 -27q-60 -35 -71 -39q-13 27 -37 51q-29 27 -54 27l54 41q53 41 69 91l66 17v-24q0 -40 -33 -74l-32 -26q36 0 100 58q59 54 73 94l75 19q30 8 75 59q46 52 46 81l-17 -9q-16 -9 -52 -18
l-125 -32v171q15 -1 48 -17q39 -19 55 -19l47 32q25 17 42 30t27 23q-15 7 -27 12q-10 4 -17.5 6.5t-12.5 4.5q-63 23 -72 23q-22 0 -111 -61q-89 -62 -89 -75v-158l-62 -16v223q0 24 29 55q25 26 52 39q-37 -6 -109 -46q-81 -44 -81 -70v-228l-14 -4q-42 -12 -83 -69
q-36 -51 -36 -72q11 7 22 11q23 12 70 23l41 10v-19q0 -39 -56 -97q-13 -13 -35 -31.5t-54 -44.5q16 -6 40 -30l62 -60q24 13 87 63q40 33 74 33q31 0 134 -47q101 -46 132 -46q35 0 100 37q74 42 111 91z" />
    <glyph glyph-name="lslash" horiz-adv-x="366" 
d="M379 456l-6 -5q-15 -9 -37 -15l-80 -20v208q0 54 -30 54q-18 0 -66 -19q-48 -18 -57 -30l2 -11q2 -14 3.5 -25.5t1.5 -21.5v-192l-38 -10q-23 -6 -48 -49t-25 -69l13 9q27 11 44 16l54 14v-174q0 -38 18.5 -73t51.5 -51l66 20q69 22 87 39q-77 36 -77 128v148l49 12
q21 4 47 49q27 43 27 68z" />
    <glyph glyph-name="Zcaron" horiz-adv-x="826" 
d="M801 188q-7 14 -16.5 27.5t-21.5 27.5q-31 37 -51 37q-21 0 -67 -30q-33 -21 -58 -49l41 -40q40 -39 40 -69q-24 -6 -40 -6q-34 0 -166 44t-164 44q-23 0 -56 -6l-33 -6l116 143q33 -16 60 -19l110 91q-33 37 -74 37l198 235q24 29 29 57q-102 -96 -210 -230l-198 -244
q-96 -119 -108 -126q-12 -5 -30 -24l-33 -36l31 15q31 15 49 15q21 0 152 -38q124 -37 175 -37q71 0 176 66q87 55 149 121zM608 723q-9 0 -30 -6q-11 -3 -17.5 -4.5t-8.5 -2.5q-44 -14 -63 -12l-137 9q-19 1 -41 3t-47 4q-38 3 -44 3q-35 0 -129 -84q-98 -89 -98 -136
q0 -26 11 -48t21 -30q81 41 121 92l-24 44q-17 32 -17 57l41 3l211 -7q53 -2 88 6q27 5 58 24l-161 -191q-14 2 -30 12t-23 15q-14 -3 -60 -37l-65 -47q37 -39 81 -39l18 2l-170 -200l-36 -49l-19 -31l25 20q13 10 27.5 25t31.5 35zM529 861l-49 -23l-49 -29l-47 28l-52 28
l-29 -24q-12 -10 -17 -19q1 -5 59 -28l58 -22l63 43q17 11 29 20t19 14q10 7 15 12z" />
    <glyph glyph-name="zcaron" horiz-adv-x="586" 
d="M529 73q0 63 -52 118q-51 56 -112 56q-42 0 -74 -19l168 187q57 63 61 76l-21 -6l-25 -1l-93 13q-51 7 -78.5 10.5t-32.5 3.5q-83 0 -224 -195l29 28q31 29 56 28l234 -12l-147 -170q-50 -57 -54 -76q40 23 79 23q65 0 111 -43q48 -42 48 -104q0 -42 -27 -70
q-26 5 -205 92q-74 36 -106 36q-42 0 -155 -137l59 7q44 0 152 -50q108 -51 122 -51q21 0 41 14l179 129q67 48 67 113zM486 634l-49 -23l-49 -29l-47 28l-52 28l-29 -24q-12 -10 -17 -19q1 -5 59 -28l58 -22l63 43q17 11 29 20t19 14q10 7 15 12z" />
    <glyph glyph-name="space" unicode=" " horiz-adv-x="448" 
 />
    <glyph glyph-name="exclam" unicode="!" horiz-adv-x="296" 
d="M224 243v385q0 19 -7 34q-11 21 -24 21q-15 0 -69 -21t-54 -30l7 -445zM225 48v129q-85 -19 -147 -65v-130q33 6 59 17q29 16 51.5 28t36.5 21z" />
    <glyph glyph-name="quotedbl" unicode="&#x22;" horiz-adv-x="355" 
d="M249 669q0 10 -19 30q-18 22 -27 22q-9 -1 -28 -22q-18 -21 -18 -30l23 -108l23 -103q8 35 13.5 60.5t9.5 42.5zM93 669q0 11 -19 31q-18 21 -28 21q-9 -1 -28 -22q-18 -21 -18 -30l23 -108l23 -103l24 103q23 101 23 108z" />
    <glyph glyph-name="numbersign" unicode="#" horiz-adv-x="558" 
d="M531 491h-92l51 210h-72l-53 -210h-97l52 210h-73l-53 -210h-99l-18 -70h99l-34 -141h-99l-17 -70h99l-54 -210h73l53 210h98l-54 -210h73l54 210h95l18 70h-96l36 141h92zM348 421l-36 -141h-97l35 141h98z" />
    <glyph glyph-name="dollar" unicode="$" horiz-adv-x="753" 
d="M718 287q0 92 -98 148q-71 39 -123 39q-19 -3 -51 -28l-37 -28l13 153l35 -7q2 0 5.5 -0.5t8.5 -1.5h35l23 2q12 2 25 12l84 56l30 22l18 24l-48 -28q-16 -10 -35 -10q-42 0 -108 23l-61 22l12 126l-27 -21l-10 -95l-23 12l12 104l-26 -21l-10 -82q-16 -7 -35.5 -19.5
t-42.5 -29.5q-166 -124 -166 -232q0 -62 54 -114q44 -43 70 -43q7 0 27 18q47 44 59 48l-20 -180q-37 23 -85 23q-60 0 -130 -63q-58 -52 -58 -66l1 -6l30 24q23 19 61 19q37 0 104 -34l65 -33l-12 -132l24 20l13 101l23 -11l-13 -110l28 20l9 82q37 0 72 13t73 44l119 97
q86 71 86 143zM349 583l-19 -210q-30 7 -60 57q-36 58 -36 125q0 62 34 62q16 -3 46 -17zM398 574l-43 -438l-23 8l44 434zM604 194q0 -51 -22 -82q-26 -35 -73 -35q-28 0 -79 23l-49 23l24 262q49 0 116 -49q83 -60 83 -142z" />
    <glyph glyph-name="percent" unicode="%" horiz-adv-x="947" 
d="M912 202q0 72 -45 125q-48 55 -119 55q-19 0 -38 -6l-33 -10l-113 -56q-72 -36 -72 -140q0 -69 41 -124q45 -58 113 -58q48 0 83 21l114 73q27 16 48 53q21 36 21 67zM732 644l-6 39l-6 25q-39 -44 -99 -117l-80 -99q-325 -403 -325 -466q0 -16 6 -31l5 -13
q72 106 141 200t136 177q30 37 72 87l100 117q56 67 56 81zM454 532q0 72 -45 125q-48 55 -119 55q-19 0 -38 -6l-33 -10l-113 -56q-72 -36 -72 -140q0 -69 41 -124q45 -59 113 -59l44 4q19 6 39 18l114 73q27 16 48 53q21 36 21 67zM803 140q0 -101 -55 -101q-49 0 -95 42
q-58 52 -58 134q0 61 19 93q15 27 32 27q48 0 95 -43q62 -56 62 -152zM345 470q0 -101 -55 -101q-49 0 -95 42q-58 52 -58 134q0 61 19 93q15 27 32 27q48 0 95 -43q62 -56 62 -152z" />
    <glyph glyph-name="ampersand" unicode="&#x26;" horiz-adv-x="1139" 
d="M1139 -22l-20 2q-18 -19 -34 -19q-47 0 -278 198l-80 69q88 42 105 137q1 6 1.5 12t0.5 12v18h41q24 0 65 33q42 33 40 53q-4 13 -11 13q-10 0 -34 -8q-23 -8 -36 -6l-96 8l-85 9q-19 0 -53 -30t-34 -47l4 -15l3 -9l18 3l27 1q72 3 72 -34q0 -41 -19 -92l-19 -53
l-218 195q30 23 49.5 39t29.5 26q49 46 49 85q0 40 -43 87q-42 48 -81 48q-73 0 -184 -38q-137 -47 -137 -101q0 -37 54 -98q19 -22 53 -53q-95 -28 -128 -44q-128 -59 -128 -128q0 -73 83 -167q82 -93 157 -93q18 0 51 9q88 27 216 96l68 37l231 -191q80 -67 90 -67
q23 0 117 52zM519 504q0 -46 -34 -65l-78 72q-78 72 -78 124q0 17 11 29.5t28 12.5q40 0 91 -48q60 -57 60 -125zM599 139l-62 -28q-60 -28 -113 -28q-72 0 -162 94q-85 88 -85 149q0 40 64 67q22 9 63 18z" />
    <glyph glyph-name="quotesingle" unicode="'" horiz-adv-x="197" 
d="M93 669q0 11 -19 31q-18 21 -28 21q-9 -1 -28 -22q-18 -21 -18 -30l23 -108l23 -103l24 103q23 101 23 108z" />
    <glyph glyph-name="parenleft" unicode="(" horiz-adv-x="337" 
d="M314 35l-103 140q-43 86 -43 195q0 185 95 324q28 42 51 60q-134 -48 -208 -182q-67 -121 -67 -274q0 -103 51 -212q45 -97 71 -97q41 0 80 12q22 7 40 15.5t33 18.5z" />
    <glyph glyph-name="parenright" unicode=")" horiz-adv-x="337" 
d="M297 298q0 152 -67 273q-75 137 -208 183q63 -49 108 -170q38 -103 38 -214q0 -53 -11 -103q-31 -136 -135 -232q65 -46 153 -46q25 0 72 98q50 109 50 211z" />
    <glyph glyph-name="asterisk" unicode="*" horiz-adv-x="375" 
d="M346 594l-43 74l-94 -80l21 120h-84l20 -120l-92 78l-45 -70l119 -40l-119 -43l44 -72l98 80l-27 -122h86l-22 121l91 -80l43 68l-117 46z" />
    <glyph glyph-name="plus" unicode="+" horiz-adv-x="640" 
d="M569 298v105h-195v193h-107v-193h-195v-105h195v-193h107v193h195z" />
    <glyph glyph-name="comma" unicode="," horiz-adv-x="245" 
d="M216 107q0 7 -21 27q-41 39 -56 39t-58 -36q-19 -16 -33.5 -29.5t-25.5 -25.5q20 -24 49 -44l26 -18l3 -23l1 -41q1 -42 -6 -81l-6 -33l9 5q19 25 64 127q44 98 54 133z" />
    <glyph glyph-name="hyphen" unicode="-" horiz-adv-x="412" 
d="M383 421l-6 -3q-12 -6 -36 -6h-237q-15 0 -37 -28q-26 -34 -38 -86l9 4q20 7 47 7h221q26 0 52 45q10 19 16.5 35.5t8.5 31.5z" />
    <glyph glyph-name="period" unicode="." horiz-adv-x="217" 
d="M182 48v129q-23 -6 -42.5 -12.5t-35.5 -13.5q-39 -18 -69 -39v-130q67 10 147 66z" />
    <glyph glyph-name="slash" unicode="/" horiz-adv-x="543" 
d="M514 610l-4 54q-2 22 -9 42l-18 -21q-26 -31 -52.5 -62.5t-53.5 -63.5q-74 -90 -130.5 -162t-97.5 -127q-125 -170 -122 -206l4 -48l3 -29l125 147q60 72 117.5 143t113.5 143q126 163 124 190z" />
    <glyph glyph-name="zero" unicode="0" 
d="M625 408q0 90 -66 191q-72 109 -159 109q-47 0 -144 -61q-45 -29 -84.5 -62.5t-73.5 -71.5q-88 -97 -88 -179q0 -122 110 -235q103 -105 197 -105q77 0 188 136q120 148 120 278zM507 282q0 -62 -16 -120q-19 -76 -57 -76q-81 0 -178 103q-108 115 -108 244q0 58 20 106
q26 62 78 62q87 0 168 -85q93 -98 93 -234z" />
    <glyph glyph-name="one" unicode="1" 
d="M409 81v604l-2 24q-3 5 -11 5q-35 0 -133 -77l-97 -76l51 26l29 19l-1 -621l59 38q56 38 105 58z" />
    <glyph glyph-name="two" unicode="2" 
d="M568 112h-325q11 15 40.5 47t77.5 83q80 85 122 145q56 82 56 147q0 58 -42 118q-46 64 -102 64q-71 0 -189 -107q-121 -111 -121 -194q0 -26 7 -51t20.5 -47.5t32 -40.5t41.5 -29q14 9 30 23t35 34q38 40 53 68q-90 60 -90 186q0 56 28 56q61 0 108 -77q40 -67 40 -134
q0 -54 -72 -150q-43 -52 -75.5 -90.5t-55.5 -63.5q-71 -80 -71 -99h305z" />
    <glyph glyph-name="three" unicode="3" 
d="M532 274q0 60 -49 102q-47 39 -107 39l73 74q47 49 47 91q0 55 -65 94q-55 34 -114 34q-38 0 -100 -50q-25 -20 -45.5 -40t-37.5 -41q31 25 65 25q59 0 102 -34q45 -38 45 -95q0 -81 -120 -153q73 0 115 -36q46 -39 46 -110q0 -82 -62 -82q-61 0 -98 51q-14 17 -24.5 30
t-18.5 21q-21 0 -71 -44q-49 -43 -49 -66q0 -32 46 -63q44 -29 76 -29q62 0 204 112t142 170z" />
    <glyph glyph-name="four" unicode="4" 
d="M638 381h-204v335q-72 -56 -140 -118.5t-134 -132.5q-121 -128 -163 -205h288v-253q1 -19 23 -19q12 0 53 26q80 53 80 59l-3 12l-5 15v160l41 -4q21 -2 37 -12l54 62q54 60 73 75zM290 503l-1 -87l-3 -35h-161q3 22 69 89q69 69 90 76l4 -30q0 -2 0.5 -5t1.5 -8z" />
    <glyph glyph-name="five" unicode="5" 
d="M547 705h-231l-163 -115l-11 -338l46 43q46 43 90 43q46 0 90 -59q41 -56 41 -103q0 -68 -68 -68q-24 0 -85 31q-62 32 -72 32l-52 -58q-16 -17 -24 -26.5t-9 -10.5l-19 -24q2 -21 54 -40q45 -16 72 -16q43 0 141 69q78 56 125 104q74 77 74 131q0 50 -43 92
q-43 43 -93 43q-15 0 -37 -6q-53 -14 -85 -18l9 182l123 6z" />
    <glyph glyph-name="six" unicode="6" 
d="M554 328q0 48 -54 104q-52 55 -102 55q-29 0 -91 -49l-62 -48q7 58 51 141q19 36 38.5 69t40.5 62l41 58l-140 -84q-44 -26 -110 -167q-72 -153 -72 -251q0 -79 59 -159q52 -69 82 -69q27 0 107 60q75 58 132 124q80 92 80 154zM415 196q0 -58 -30 -97q-64 0 -112 84
q-41 74 -41 143q0 29 14 55l11 4h16q60 0 103 -67q39 -60 39 -122z" />
    <glyph glyph-name="seven" unicode="7" 
d="M557 714l-305 -15q-66 -3 -110 -39q-37 -31 -73 -96l141 16q132 15 189 15l-62 -132q-16 -34 -48 -46q-96 -35 -155 -96l49 4l70 4l-116 -235q-37 -74 -37 -104l162 77l48 167q22 80 43 98l57 -3l132 92l-30 3l-56 -2l-43 4l-8 1q11 28 23.5 55t26.5 53l68 122z" />
    <glyph glyph-name="eight" unicode="8" 
d="M563 268q0 60 -82 118q-30 21 -81 45l95 82q65 56 65 97q0 36 -45 69q-41 30 -79 30q-70 0 -189 -92q-122 -95 -122 -161q0 -52 62 -96l28 -20q-45 -36 -68 -62q-68 -76 -68 -134q0 -27 12 -52q13 -27 35 -51q48 -49 91 -49q31 0 114 44q40 22 75.5 46t66.5 50
q90 76 90 136zM410 499q0 -36 -26 -57q-113 41 -113 123q0 30 13 40q4 4 18 4q38 0 73 -36q35 -35 35 -74zM425 152q0 -55 -46 -55q-41 0 -102 56q-59 57 -59 105q0 22 16 58l6 14q185 -74 185 -178z" />
    <glyph glyph-name="nine" unicode="9" 
d="M559 542q0 72 -62 122q-59 48 -131 48q-95 0 -192 -105q-97 -104 -97 -200q0 -57 54 -127q59 -75 112 -74l39 1l30 5q-10 -18 -111 -134q-48 -54 -66 -90l68 39q66 40 85 43q35 36 87 106q184 244 184 366zM417 436q0 -91 -45 -128q-83 44 -120 88q-46 55 -46 137
q0 76 36 76q50 0 106 -42q69 -53 69 -131z" />
    <glyph glyph-name="colon" unicode=":" horiz-adv-x="245" 
d="M196 373v129q-12 -3 -24.5 -7.5t-23 -8t-18.5 -6.5t-11 -4q-16 -7 -33.5 -16.5t-36.5 -22.5v-132q27 0 59 15zM196 48v129q-87 -22 -147 -65v-130q25 0 58 15q20 8 89 51z" />
    <glyph glyph-name="semicolon" unicode=";" horiz-adv-x="239" 
d="M197 373v129q-86 -24 -147 -65v-132q52 0 147 68zM216 107q0 7 -21 27q-41 39 -55 39q-13 0 -61 -39q-22 -17 -36 -30.5t-21 -21.5q33 -35 54 -48l21 -14l3 -23l1 -41q1 -54 -6 -87l-6 -27l9 5q13 16 84 176q34 77 34 84z" />
    <glyph glyph-name="less" unicode="&#x3c;" horiz-adv-x="967" 
d="M908 280q0 87 -87 165q-73 65 -107 65q-10 0 -14 -3l-19 -11l-116 -79v209q0 50 -22 50q-20 0 -57 -14l-79 -31l7 -11q6 -18 6 -47v-150q-14 11 -31 22.5t-38 24.5q-53 33 -71 33l-25 -7l-183 -89q-21 -11 -44 -58q-28 -55 -28 -107q0 -95 73 -180q63 -73 106 -73
q22 0 92 41l69 42l-21 -1q-48 -2 -106 64q-72 79 -72 200q0 48 28 82q33 -9 65 -33l58 -45q9 1 68 33q45 24 60 39v-419l145 56v353l14 8l16 3q43 0 109 -71q75 -80 75 -159q0 -56 -30 -107q-31 -55 -79 -77l97 47q99 50 104 61l-32 -10q-13 -6 -23 -4l-1 7l64 81
q29 49 29 100z" />
    <glyph glyph-name="equal" unicode="=" horiz-adv-x="522" 
d="M465 525q-8 -5 -14 -5q-18 -5 -43 -5h-307q-44 0 -84 -73q-17 -31 -17 -40q12 5 17 5q22 5 57 5h292q33 0 79 73q20 32 20 40zM465 329q-8 -5 -14 -5q-18 -5 -43 -5h-307q-44 0 -84 -73q-17 -31 -17 -40q12 5 17 5q22 5 57 5h292q33 0 79 73q20 32 20 40z" />
    <glyph glyph-name="greater" unicode="&#x3e;" horiz-adv-x="939" 
d="M904 64q-31 13 -74 61q-101 112 -131 130l83 47q49 28 49 73q0 30 -34 85q-38 59 -63 59q-15 0 -40 -15l-128 -76v204q0 48 -26 48l-69 -19q-58 -16 -58 -30l3 -20q2 -14 3 -22t1 -10v-156q-14 11 -31 22.5t-38 24.5q-53 33 -71 33l-25 -7l-183 -89q-21 -11 -44 -58
q-28 -55 -28 -107q0 -95 73 -180q63 -73 106 -73q22 0 92 41l69 42l-21 -1q-48 -2 -106 64q-72 79 -72 200q0 48 28 82q33 -9 65 -33l58 -45q9 1 68 33q45 24 60 39v-420l146 44v137q18 -1 57 -47q105 -118 139 -134q22 3 83 38zM696 296q-1 -16 -5 -25l-11 -13l-114 -66
v224l27 12q12 5 20 5q30 0 59 -59q24 -50 24 -78z" />
    <glyph glyph-name="question" unicode="?" horiz-adv-x="334" 
d="M311 575q0 42 -47 77q-47 36 -91 36q-42 0 -89 -34q-49 -35 -62 -72h22q38 0 79 -33q41 -32 41 -69q0 -16 -50 -98q-54 -89 -50 -161l2 -33l135 56l-3 45q-5 68 57 158q56 83 56 128zM211 48v129q-78 -25 -147 -65v-130q66 10 147 66z" />
    <glyph glyph-name="at" unicode="@" horiz-adv-x="779" 
d="M669 335q0 138 -98 236t-236 98q-139 0 -237 -98t-98 -236q0 -141 97 -238t238 -97q78 0 158 41q68 35 68 52q-1 -7 -86 -27q-66 -15 -140 -15q-120 0 -202 82t-82 202q0 121 84 202q85 81 207 81q115 0 195 -84q81 -83 81 -199q0 -65 -31 -99q-27 -30 -67 -30
q-59 0 -59 70v190q0 27 -38 56q-38 30 -64 30l-14 -4l-13 -4l-69 -34q-18 -8 -34 -33l-12 -24l17 21q17 20 29 20q26 0 55 -41q26 -40 26 -67l-137 -54q-63 -36 -63 -77q0 -26 12 -62q16 -45 36 -45q18 0 85 34l68 34l46 -52q31 -24 70 -24q208 0 208 195zM344 234l-14 -8
q-14 -8 -35 -8q-49 0 -49 91q0 25 38 39q27 10 60 10v-124z" />
    <glyph glyph-name="A" unicode="A" horiz-adv-x="721" 
d="M395 635q0 31 -64 53q-51 19 -89 19q-63 0 -97 -34l-96 -97q-50 -53 -50 -114q0 -95 70 -95q22 0 65 46l43 45q-44 0 -66 36q-19 31 -19 76q0 55 64 55q46 0 85.5 -24t56.5 -66q24 14 54 41q43 37 43 59zM701 85l-18 -3q-37 0 -55 73q-27 106 -22 314l2 87l2 64v15t-1 15
q-3 27 -21 39q-28 -16 -53.5 -28.5t-49.5 -23.5l-25 -11q-139 -61 -187 -175q-16 -38 -23 -111q-5 -42 -9.5 -70t-9.5 -44q-20 -61 -64 -92l-152 -107q20 11 43 11q30 0 78 -16q48 -15 73 -22.5t28 -8.5q19 4 54 30l59 44l-113 37q-20 7 -36.5 14t-30.5 15q40 21 93 72
l52 51q37 -5 67 -35l46 37q22 17 37.5 28t26.5 15q0 -84 16 -170q24 -132 72 -138l47 30q68 46 74 64zM496 623q-1 -3 -1.5 -8t-2.5 -13v-37l-1 -89l2 -111q2 -38 -8 -55l-3 -4l-24 14l-48 30l-25 -18q-14 -10 -24.5 -16.5t-18.5 -9.5l11 68q19 123 47 174q31 58 96 75z" />
    <glyph glyph-name="B" unicode="B" horiz-adv-x="843" 
d="M811 339q0 67 -40 103q-46 40 -112 36l-53 -4l-56 -14l158 162l-21 -1q-38 -2 -83 26l-105 62q-25 0 -78 -40q-54 -39 -54 -61v-262q0 -20 -25 -66q-29 -53 -72 -90l-22 3l-19 -2l-15 -4l46 38q45 37 45 65v292q0 23 16 51l16 27q-50 -17 -109 -74l-62 -60l-28 22
q-30 24 -47 32l-38 -36q-20 -19 -34 -34.5t-22 -26.5l33 -26q34 -27 42 -47l48 55q46 54 75 75v-296q0 -18 -10.5 -39t-29 -43t-45 -44t-59.5 -41q38 20 77 20q44 0 169 -51q124 -51 176 -51q83 0 210 130q128 131 128 214zM579 518l-37 -45q-37 -45 -61 -52v129l22 -4
q23 -4 41.5 -11t34.5 -17zM700 240q0 -46 -30 -97q-35 -57 -77 -57q-52 0 -178 50l-124 50l154 171q16 19 30 24q9 4 38 4q73 0 126 -35q61 -40 61 -110z" />
    <glyph glyph-name="C" unicode="C" horiz-adv-x="607" 
d="M584 649l-121 67q-11 -3 -36 -30q-61 -63 -75 -71v93q-139 -39 -240 -137q-112 -109 -112 -229q0 -124 89 -231q93 -111 214 -111q75 0 140 47q42 31 129 133q-105 -81 -188 -81q-39 0 -99 39q-57 37 -79 72q24 13 82 74q64 67 64 87v217l19 26l79 -36q30 -18 54 -69
q0 32 29 69q43 52 51 71zM235 305q0 -55 -40 -83q-37 20 -68 95q-29 72 -29 117q0 58 39 114q53 74 98 90v-333z" />
    <glyph glyph-name="D" unicode="D" horiz-adv-x="713" 
d="M665 418q0 175 -58 223q-47 40 -242 59l-16 2q-246 24 -246 72l5 19q-18 -8 -36 -19t-37 -25q-46 -34 -46 -53q0 -41 111 -53l242 -25l-39 -34q-39 -35 -39 -61v-229q0 -82 -98 -132q-126 -65 -137 -82l57 26q14 7 22 7q27 0 149 -60q123 -59 134 -59l18 4l26 11l98 55
q89 50 116 154q16 60 16 200zM256 606q-67 0 -117 -32q-48 -32 -48 -65v-264q0 -49 -37 -101q26 13 44.5 23t29.5 18q74 53 74 103v214q0 41 54 104zM541 354l-186 -65q22 28 22 65v262q106 -49 125 -67q27 -26 27 -76zM545 299l-273 -89l11 15q22 30 55 43l204 74zM545 194
q0 -27 -11 -66q-15 -52 -39 -65l-168 81q-72 35 -94 39l312 104v-93z" />
    <glyph glyph-name="E" unicode="E" horiz-adv-x="762" 
d="M700 656q-9 9 -83 33q-69 22 -92 25q-16 -4 -46.5 -19.5t-77.5 -41.5q-99 -57 -99 -75v-258q0 -48 -21 -93l-20 -34q39 11 87 68q20 23 36 46.5t29 46.5l132 -51q81 37 126 93l-140 60l-91 -76l-28 -10v237l33 4l59 -18q61 -20 81 -21l52 34q54 35 63 50zM724 122
l-32 -21q-32 -21 -62 -21q-25 0 -131 38t-147 38q-34 0 -149 -66l-35 48q-30 30 -57 30l64 50q64 61 64 106v300q1 15 22 37l59 63q-94 -34 -149 -85q-41 -38 -41 -66v-320q0 -44 -72 -111q-12 -11 -30 -25.5t-41 -32.5q34 0 100 -92q27 13 66 45q61 50 93 50q33 0 138 -47
q106 -47 134 -47q41 0 112 47q31 20 54 41t40 41z" />
    <glyph glyph-name="F" unicode="F" horiz-adv-x="702" 
d="M696 414l-99 2l-107 -2q-42 75 -42 144q0 23 6 47l77 -36l46 -23l111 94q-16 11 -38.5 23.5t-51.5 26.5l-60 29q-42 -8 -121 -85q-78 -78 -78 -119q0 -35 22 -111l44 -156q22 -76 22 -108q0 -53 -38 -106q-23 -33 -78 -84l-33 16l49 51q49 52 49 107q0 36 -27 125
l-54 175q-26 86 -26 133q0 39 25 64l40 41q-28 -13 -54.5 -30t-52.5 -39q-70 -57 -70 -99l7 -45q1 -7 1.5 -13t0.5 -13l-3 -22l-63 -20q-69 -33 -99 -93q34 12 51 15q50 14 87 14q12 0 35 -6l19 -5l42 -125q42 -125 42 -169q0 -19 -13 -36l-30 12q-33 12 -52 12
q-26 0 -64 -32q-22 -19 -79 -84q33 18 53 18q42 0 82 -25l40 -25l101 88q48 41 84.5 79t64.5 74q63 83 59 129l-3 36l-2 32l3 28q47 0 88 35q56 48 87 61z" />
    <glyph glyph-name="G" unicode="G" horiz-adv-x="696" 
d="M677 342q0 61 -44 102t-106 41q-47 0 -86 -19l66 77q31 36 51 63t28 45q-16 10 -30 17.5t-28 14.5q-41 21 -62 35l-112 -101v93q-19 0 -97 -38q-110 -54 -174 -127q-80 -91 -80 -196q0 -122 93 -237q98 -119 217 -119q95 0 229 128q135 127 135 221zM487 558
q-5 -40 -70 -107q-11 -12 -27.5 -27t-36.5 -32v199l20 25q16 -16 69 -34q27 -9 45 -24zM579 236q0 -63 -45 -105t-109 -42q-57 0 -121 36q-64 37 -95 86q29 24 59 57.5t62 76.5q39 52 84 52q59 0 112 -51t53 -110zM237 315q0 -57 -40 -91q-36 16 -67 99q-30 76 -30 122
q0 64 50 128q43 53 87 68v-326z" />
    <glyph glyph-name="H" unicode="H" horiz-adv-x="691" 
d="M673 322q0 80 -94 138q-73 46 -124 46q-16 0 -42 -26l-80 -80v222q17 0 91 -18l69 -17l96 93q-47 31 -186 31q-43 0 -119 -57q-87 -65 -87 -115v-546l136 46v340q0 26 26 26q45 0 116 -54q83 -65 83 -142q0 -42 -46 -89q-22 -20 -43 -40.5t-43 -40.5q-46 -46 -46 -85
q0 -34 22 -68.5t52 -55.5q-8 14 -14 29t-11 29q-8 27 -8 56q0 71 66 131l121 110q65 59 65 137zM139 38v611l-131 -93v-563z" />
    <glyph glyph-name="I" unicode="I" horiz-adv-x="569" 
d="M530 698l-82 4h-296q-34 0 -102 -77l-65 -76q27 30 69 41q30 8 83 8h270q-13 -19 -81 -71l-122 -95q-66 -51 -80 -77q30 0 56 -23q32 -31 44 -35v-5l-4 -8l-101 -86l-10 3q-71 -42 -126 -102q17 -4 51.5 -18.5t85.5 -40.5q95 -49 111 -49q33 11 141 101q111 93 121 118
v386q0 37 19 74q5 10 18 28zM380 551q-12 -56 -12 -110v-50l-13 -1q-24 -1 -40 19q-30 38 -66 38l64 55q19 16 35.5 28.5t31.5 20.5zM368 152q0 -46 -24 -61q-23 3 -131 64q-24 13 -42.5 22.5t-32.5 15.5l94 85l50 42q64 53 86 58v-226z" />
    <glyph glyph-name="J" unicode="J" horiz-adv-x="605" 
d="M620 723q-32 -16 -60 -34.5t-53 -40.5q-70 -61 -70 -110v-77q-36 13 -61 44t-25 68l3 16q4 10 8 11q16 8 33.5 20.5t37.5 29.5q50 45 72 83l-8 -3q-15 -5 -27 -5h-295q-46 0 -106 -78q-47 -61 -71 -119l23 33q28 33 51 33h240l-55 -88q-23 -38 -23 -73q0 -28 21 -49
t50 -30l-107 -124l60 -50q34 -34 34 -86q0 -59 -52 -114l-154 71q-59 28 -82 28q-39 0 -108 -69q-61 -61 -83 -107l31 26q40 34 49 34q24 0 125 -45l101 -45q78 49 148 101.5t134 110.5q143 131 143 195v323q0 29 38 79zM434 240q0 -61 -41 -120q-36 -49 -77 -75
q17 28 28.5 49t18.5 37q23 54 23 100q0 40 -25 64q-27 25 -55 23l-12 -1q15 20 68 71q54 52 72 63v-211z" />
    <glyph glyph-name="K" unicode="K" horiz-adv-x="722" 
d="M732 163q-8 -5 -14 -8.5t-10 -5.5l-41 -20q-58 165 -173 209q6 9 63 66l54 54q-54 45 -123 68l-84 -73v162q22 0 57 -12q49 -17 80.5 -26.5t47.5 -11.5l42 38q19 17 33.5 32t24.5 28q-63 17 -160 54l-32 12q-31 -5 -116 -65q-90 -63 -90 -87v-277q0 -33 -29 -77
q-26 -38 -57 -61q74 29 126 107q49 73 60 156q35 -12 64 -29l40 -24q-6 -11 -65 -65q-31 -28 -45 -52q133 -73 178 -248q37 0 103 78zM427 85q0 29 -28 53q-27 24 -57 24q-29 0 -83 -36q-9 -5 -20 -15l-25 -20q-13 16 -63 44l-48 27l64 45q63 43 63 90v308q0 36 44 68l43 30
q-188 -68 -188 -155v-292q0 -41 -46 -93q-10 -11 -29 -30.5t-48 -45.5q4 -7 59 -47l54 -39l47 41q35 31 46 31q19 0 57 -27q39 -26 49 -44l45 37q47 40 64 46z" />
    <glyph glyph-name="L" unicode="L" horiz-adv-x="762" 
d="M647 675q-15 7 -27 12q-10 4 -17.5 6.5t-12.5 4.5q-63 23 -72 23q-22 0 -111 -61q-89 -62 -89 -75v-282q0 -40 -33 -74l-32 -26q37 0 105 64q70 64 70 101v258q15 -1 48 -17q39 -19 55 -19l47 32q25 17 42 30t27 23zM742 132l-48 -29q-27 -12 -50 -12q-21 0 -129 37
q-114 38 -149 38q-30 0 -75 -27q-60 -35 -71 -39q-13 27 -37 51q-29 27 -54 27q22 16 38 28.5t26 22.5q63 58 63 105v300q0 24 29 55q25 26 52 39q-37 -6 -109 -46q-81 -44 -81 -70v-348q0 -39 -56 -97q-13 -13 -35 -31.5t-54 -44.5q16 -6 40 -30l62 -60q24 13 87 63
q40 33 74 33q31 0 134 -47q101 -46 132 -46q35 0 100 37q74 42 111 91z" />
    <glyph glyph-name="M" unicode="M" horiz-adv-x="1406" 
d="M1373 480q0 117 -86 182q-77 56 -199 56h-36l-44 -28l-48 -35l-42 -30l-5 -6l-36 -26l-6 -2l-9 -4q0 86 -104 118q-60 17 -174 17q-39 0 -125 -80q-84 -80 -84 -113v-361q0 -26 -29 -67t-52 -41l-40 11q-17 5 -28 8t-16 5q19 13 36 27q67 57 67 105v337q0 31 54 90
q12 13 25.5 25.5t27.5 25.5q-27 -7 -59 -21.5t-70 -36.5q-92 -53 -92 -93v-393q0 -20 -7 -41l-6 -19l-14 2q-30 0 -97 -51q-25 -19 -45.5 -37.5t-37.5 -36.5q52 24 100 24q45 0 80 -15l78 -35q12 0 62 35t53 48l-9 4q-20 9 -33 21q58 13 109 55q57 46 57 102v398l11 4
q28 6 89 6q49 0 90 -10q68 -15 68 -48v-162h-90q-31 0 -71 -63q-15 -23 -32 -63q64 32 125 29l39 -2l29 -4v-288l115 54v230h108q34 0 60 39q22 34 22 70q-27 -8 -41 -8q-2 0 -5 -0.5t-8 -1.5h-32l-57 2l-47 6v177q16 13 33 21q48 21 107 21q236 0 236 -241
q0 -177 -226 -313l36 3q21 2 89 -19q64 -20 92 -40l62 38q16 10 31 22.5t29 26.5q-15 9 -102 40l-79 28q45 36 73.5 59.5t39.5 34.5q51 50 70.5 102t19.5 126z" />
    <glyph glyph-name="N" unicode="N" horiz-adv-x="882" 
d="M846 491q0 126 -113 189q-81 45 -186 45q-37 0 -68 -27l-144 -120v35q0 24 -6 45l-23 -7q1 0 -9 -2h-27q-63 0 -93 8q-56 15 -56 61l-55 -28q-55 -27 -74 -72q28 -36 136 -36q36 0 54 -6l15 -5v-508q0 -42 10 -55q6 -6 14 -6l69 16q71 17 76 26q-31 30 -31 71v97l368 273
l9 -29l3 -37q6 -71 -30 -144q-25 -51 -81 -106q-18 -18 -43 -40l-76 -66l28 3q31 0 96 -21q66 -19 92 -38q23 10 64 39q20 14 34.5 26t24.5 22q-14 9 -67 29l-120 45q107 80 149 137q60 81 60 186zM660 555l-325 -235v238q25 30 75 38q16 3 88 3q100 0 162 -44zM698 507
l-363 -266v54l337 246q7 -5 17 -21z" />
    <glyph glyph-name="O" unicode="O" horiz-adv-x="780" 
d="M746 371q0 145 -98 252q-86 93 -169 93q-44 0 -91 -40q-33 -29 -54 -36l-24 73q-148 -64 -218 -136q-91 -92 -91 -231q0 -144 98 -250q98 -104 242 -104q141 0 266 103q139 115 139 276zM554 520l-219 -134v232q0 18 26 18q29 0 87 -31q69 -36 106 -85zM584 473
l-297 -184q36 39 48 81l229 138zM631 264q0 -84 -36 -139q-43 -67 -121 -67q-69 0 -164 56q-86 51 -117 95l396 249q19 -33 31 -87q11 -50 11 -107zM206 309q0 -7 -0.5 -13t-1.5 -11q-4 -17 -9.5 -34t-13.5 -33q-77 59 -77 191q0 109 28.5 168.5t73.5 59.5v-328z" />
    <glyph glyph-name="P" unicode="P" horiz-adv-x="1002" 
d="M969 385q0 106 -57 187q-55 78 -155 120q-71 30 -131 30q-69 0 -194 -76q-29 -17 -72.5 -47.5t-103.5 -73.5l-53 38q-52 37 -73 37q-32 0 -78 -43q-17 -16 -32 -32.5t-28 -35.5l21 11q24 11 30 11q16 0 56 -32q38 -30 52 -56l167 126l-10 -25q-10 -24 -10 -63v-629
q33 3 84 22l53 19l-12 56q-11 53 -11 87l3 25l6 25l85 -40q57 -26 92 -26q89 0 228 134q143 140 143 251zM784 496l-362 -291v326q0 63 6 77q12 30 62 30q189 0 294 -142zM850 311q0 -71 -36 -141q-42 -86 -105 -86q-58 0 -122 51q-10 8 -23 20.5t-30 29.5l293 230
q23 -48 23 -104zM816 438l-395 -311v51l375 299z" />
    <glyph glyph-name="Q" unicode="Q" horiz-adv-x="805" 
d="M1063 -19l-8 3l-13 2l-24 -8q-17 -5 -26 -5q-31 0 -138 56q-29 15 -67 36.5t-87 49.5q-126 73 -141 88q56 29 106 84q72 79 72 165q0 93 -93 173q-83 71 -181 92q-27 -11 -87 -57q-27 -21 -44 -24l-7 28l-15 43q-110 -30 -202 -125q-108 -113 -108 -241q0 -119 82 -225
q88 -115 202 -115q82 0 219 87l119 -60l171 -89l86 -46q25 8 110 51zM608 357q0 -106 -53 -145q-82 -49 -130 -74l55 -39q-13 -16 -38 -16q-69 0 -140 38q-70 37 -112 96l87 60q55 37 55 73v268q13 16 27 16q24 0 79 -29q170 -90 170 -248zM211 289q0 -49 -29 -61
q-36 31 -58 86q-22 51 -22 102q0 58 22 124q28 86 72 91q12 -42 15 -59v-283z" />
    <glyph glyph-name="R" unicode="R" horiz-adv-x="886" 
d="M907 101l-17 -12q-17 -12 -26 -12q-9 1 -42 56l-68 111q-41 67 -76 86l68 45q52 34 91 76q54 58 54 102q0 54 -62 110t-117 56q-42 0 -157 -54q-121 -57 -121 -86v-277q0 -24 -39 -79l-27 -38q21 5 94 75q81 78 81 117v241q10 4 18 6l13 1q43 3 113 -37q81 -47 81 -113
q0 -20 -7.5 -40.5t-20.5 -39.5t-32 -34.5t-41 -24.5l-25 2q-41 3 -87 -22q-20 -11 -36.5 -25.5t-27.5 -33.5q13 16 31 16q28 0 96 -90q14 -17 40 -55.5t65 -98.5l13 -32q3 -7 9 -7q15 0 85 47q69 47 77 64zM462 672q-91 -21 -202 -104l-37 46q-25 31 -46 31q-33 0 -99 -45
q-65 -43 -82 -75l31 21q31 21 49 21q46 0 77 -88q30 11 73 50q21 18 36 22v-341q0 -49 -71 -90l-70 -39l7 3q6 2 17 2q20 0 55 -27q82 -62 112 -68q49 16 96 41q38 20 49 34l-16 -1q-26 -2 -60 30q-49 46 -109 76q29 24 50 48q50 53 50 83v259q0 30 45 74q15 13 26 22t19 15
z" />
    <glyph glyph-name="S" unicode="S" horiz-adv-x="710" 
d="M684 300q0 81 -74 134q-60 42 -150 55l-39 -27l-44 -30l13 155l46 -6l37 -2q35 -2 94 40q25 17 45 34.5t34 34.5q-17 -14 -24 -15q-23 -14 -51 -14q-57 0 -146 34l-87 33q-77 -25 -159 -110q-94 -97 -94 -180q0 -52 38 -96q36 -42 91 -56q18 8 47 42l28 33l-19 -188
q-34 22 -81 22q-54 0 -109 -46q-45 -37 -78 -91q13 16 41 29q30 14 46 14q36 0 137 -48q102 -48 129 -48q42 0 118 46q39 23 72.5 50t62.5 56q76 79 76 145zM313 599l-24 -201q-45 23 -68 71q-22 44 -22 97q0 68 34 68q6 0 44 -18zM570 205q0 -47 -22 -78q-26 -36 -69 -36
q-21 0 -67 17q-41 15 -64 29l25 264q56 0 123 -56q74 -63 74 -140zM372 590l-41 -445l-28 11l-16 7l42 432z" />
    <glyph glyph-name="T" unicode="T" horiz-adv-x="751" 
d="M868 740q-28 -11 -48 -13l-563 -3q-33 0 -77 -26q-28 -17 -49 -41l-100 -122q-34 -43 -34 -127q0 -43 5.5 -61t21.5 -29l32 27q35 29 55 48.5t27 27.5q-31 61 -31 114q0 32 15 56l15 18h172q-2 -9 -28 -41q-27 -32 -27 -76v-177q0 -135 -69 -195q-18 -16 -43 -35t-57 -42
q37 26 80 26q55 0 162 -30q108 -30 161 -30q56 0 121 41q66 41 83 92l-30 -29q-24 -18 -53 -18q-41 0 -166 38t-184 38q20 20 35 36t26 30q60 73 60 111v261h59v-294q0 -86 -47 -139l76 56q75 55 75 96v281h91q94 0 174 66q27 23 60 65z" />
    <glyph glyph-name="U" unicode="U" horiz-adv-x="805" 
d="M781 93l-13 -2q-18 0 -43 31t-25 50v494q0 17 -24 34q-22 16 -42 16t-71 -30q-20 -13 -37 -24t-30 -22q82 -24 82 -45v-90l-179 -142v353h-219q-47 0 -120 -68q-14 -13 -28.5 -29.5t-31.5 -37.5q58 30 107 30h167v-46l-110 -75q-92 -63 -92 -138q0 -175 89 -270
q78 -83 197 -83q106 0 219 104q-5 -10 -5 -19q0 -36 79 -85q86 32 130 94zM578 432l-292 -231l-27 27l319 253v-49zM578 115q-40 -20 -85 -20q-51 0 -105 25q-61 25 -87 64l277 223v-292zM277 324v-31q0 -11 -1 -15q-4 -25 -26 -34q-28 19 -42 88q-10 46 -10 100q0 49 40 89
q13 13 39 30v-227z" />
    <glyph glyph-name="V" unicode="V" horiz-adv-x="990" 
d="M970 478q0 119 -99 184q-85 55 -211 55q-48 0 -106 -41l-167 -120q-28 37 -75 71q-55 40 -92 40t-128 -72q-84 -68 -90 -84l43 30q43 30 62 30q74 0 151 -108q72 -102 72 -180t-90 -168l548 409l13 -22l10 -25l-522 -386l22 7q21 7 46 7q44 0 120 -58q24 -18 66 -57
q81 38 149.5 86.5t128.5 107.5q149 149 149 294zM774 546l-390 -291q45 90 45 148q0 57 -15 102l-15 45q26 31 76 47q45 14 90 14q153 0 209 -65zM822 408q0 -76 -43 -175q-51 -118 -124 -167l-71 76q-51 55 -111 55l345 257l4 -17v-29z" />
    <glyph glyph-name="W" unicode="W" horiz-adv-x="1093" 
d="M1060 388q0 83 -56 172q-49 74 -124 135q-62 50 -86 50q-20 -3 -108 -70l-91 -70v49l-52 26q-66 32 -89 32t-102 -64l-79 -63v64q-11 10 -27 19t-36 19q-45 20 -70 20q-40 0 -95 -50l-53 -50l21 2q62 0 126 -40v-406q0 -21 -38 -51l-38 -30l23 9l24 3q39 0 98 -30
l126 -64q39 19 90 60q67 55 84 96l384 311l23 -45l-105 -78q-38 -29 -65.5 -50t-45.5 -35q-198 -155 -215 -200q7 5 12 8.5t10 5.5q26 14 41 14q44 0 109 -38q72 -43 111 -49q133 94 195 162q98 110 98 226zM872 485l-304 -243q27 28 27 64v278l22 26q21 25 40 25
q24 0 95 -45q82 -53 120 -105zM934 318q0 -74 -19 -144q-20 -71 -46 -71l-117 51q-48 22 -94 22l-16 -2l-14 -2l294 224q12 -27 12 -60v-18zM466 142q0 -32 -28 -44q-20 14 -37.5 25t-32.5 19q-86 44 -162 44q5 8 40 46q27 28 27 59v273l24 25q28 24 44 24q28 0 125 -49
v-422z" />
    <glyph glyph-name="X" unicode="X" horiz-adv-x="629" 
d="M627 37q-102 37 -192 115q-104 92 -104 175l92 3q19 1 48 30q28 28 27 57l-1 13q-14 -4 -23 -5.5t-14 -2.5q-28 -4 -49 -6t-35 -1l-24 1l-32 2q0 79 25 142q23 59 38 59q9 -1 33 -22q30 -23 40 -26l42 27q31 19 61 46q-49 60 -106 93q-47 -15 -103 -110q-46 -81 -62 -144
q0 92 -44 159q-31 45 -73 68q-47 -14 -106 -52l-62 -40l7 2l20 5q47 0 101 -88q49 -79 49 -119h-81q-21 0 -58 -52l-37 -51q10 4 18 5.5t15 2.5q45 9 72 8l71 -3l20 -1q-21 -139 -87 -226q-55 -71 -177 -151l-8 -8q70 15 173 95q126 99 178 220l-1 -20q-2 -41 50 -119
q52 -80 102 -117q138 0 197 36z" />
    <glyph glyph-name="Y" unicode="Y" horiz-adv-x="696" 
d="M714 720q-51 -21 -127 -21q-36 0 -75.5 5t-84.5 15q-9 2 -16.5 3.5t-12.5 3.5q-18 0 -53 -26.5t-86 -77.5v36l-61 31q-59 30 -70 30q-21 0 -73 -49l-51 -48l19 2q30 0 65 -23q31 -21 31 -29v-391q0 -25 -36 -59q-17 -17 -35 -30l56 -7q57 -7 89 -27q-14 -8 -44 -31
t-78 -61q-86 -71 -106 -91l33 2l38 5q51 0 147 -39l94 -38q167 73 283 170q100 82 100 119q0 30 -37 150q-36 123 -36 212q0 120 36 183q30 53 91 81zM554 617q-61 -55 -73 -127l-227 -156v271q17 23 42 23l45 -8l39 -3h174zM476 470l-8 -56l-240 -170q24 36 24 68zM492 130
q-10 -11 -17 -17t-12 -8.5t-10.5 -3t-12.5 -0.5l-141 53q-35 13 -65 21t-56 10l291 209l-3 -15q-5 -28 -5 -60q0 -81 31 -189zM524 1q0 -28 -51 -65q-46 -34 -67 -34l-147 48q-38 13 -66.5 18.5t-46.5 4.5l-17 -1l-31 -5q8 11 23 25t37 30l45 34l49 -20q45 -19 65 -19
q23 0 101 51l78 51q13 -22 14 -35q14 -36 14 -83z" />
    <glyph glyph-name="Z" unicode="Z" horiz-adv-x="826" 
d="M801 188q-7 14 -16.5 27.5t-21.5 27.5q-31 37 -51 37q-21 0 -67 -30q-33 -21 -58 -49l41 -40q40 -39 40 -69q-24 -6 -40 -6q-34 0 -166 44t-164 44q-23 0 -56 -6l-33 -6l116 143q33 -16 60 -19l110 91q-33 37 -74 37l198 235q24 29 29 57q-102 -96 -210 -230l-198 -244
q-96 -119 -108 -126q-12 -5 -30 -24l-33 -36l31 15q31 15 49 15q21 0 152 -38q124 -37 175 -37q71 0 176 66q87 55 149 121zM608 723q-9 0 -30 -6q-11 -3 -17.5 -4.5t-8.5 -2.5q-44 -14 -63 -12l-137 9q-19 1 -41 3t-47 4q-38 3 -44 3q-35 0 -129 -84q-98 -89 -98 -136
q0 -26 11 -48t21 -30q81 41 121 92l-24 44q-17 32 -17 57l41 3l211 -7q53 -2 88 6q27 5 58 24l-161 -191q-14 2 -30 12t-23 15q-14 -3 -60 -37l-65 -47q37 -39 81 -39l18 2l-170 -200l-36 -49l-19 -31l25 20q13 10 27.5 25t31.5 35z" />
    <glyph glyph-name="bracketleft" unicode="[" horiz-adv-x="428" 
d="M325 145h-180v484h69q15 0 63 72l48 72h-201q-22 0 -71 -43q-53 -47 -53 -87v-643h214q17 3 63 73z" />
    <glyph glyph-name="backslash" unicode="\" horiz-adv-x="432" 
d="M198 96v535l44 -41q43 -41 57 -48l118 70q-18 28 -54 66q-40 43 -54 43l-27 -10l-173 -96q-38 -22 -49 -78q-2 -12 -3.5 -36t-1.5 -61v-17q-16 -5 -46 -28q-32 -23 -42 -36q3 1 7.5 1.5t10.5 2.5h24l42 1v-362q21 0 54 15q34 15 45 15l22 -4q12 -4 23 -4q15 0 26 7
q-23 23 -23 65z" />
    <glyph glyph-name="bracketright" unicode="]" horiz-adv-x="428" 
d="M324 127v643h-214q-17 -3 -63 -73l-47 -72h179v-484h-69q-15 0 -63 -72l-47 -71h200q21 0 71 42q53 47 53 87z" />
    <glyph glyph-name="asciicircum" unicode="^" horiz-adv-x="651" 
d="M546 608q-1 9 -100 61q-97 52 -116 52q-8 -1 -94 -51q-151 -88 -212 -135q-5 -4 -9.5 -7.5t-9.5 -7.5l53 18l104 57q60 33 75 33q24 0 83 -37l123 -76q9 0 56 41q47 42 47 52z" />
    <glyph glyph-name="underscore" unicode="_" horiz-adv-x="474" 
d="M587 -14h-474l-113 -60h474z" />
    <glyph glyph-name="grave" unicode="`" horiz-adv-x="313" 
d="M310 552l-150 39q-149 39 -149 57l-6 -18q-6 -26 -6 -40z" />
    <glyph glyph-name="a" unicode="a" horiz-adv-x="476" 
d="M400 65v332q0 29 -52 68q-51 39 -82 39q-35 0 -99 -36q-73 -40 -79 -80l21 20q19 19 39 19q40 0 73 -52q26 -42 33 -88l-152 -75q-99 -50 -99 -101q0 -35 18 -69q25 -49 59 -49q25 0 57 17l117 68v-86zM254 93q-14 -9 -27 -12l-30 -3q-33 0 -55 33q-19 28 -19 64
q0 31 52 61q37 22 79 33v-176z" />
    <glyph glyph-name="b" unicode="b" horiz-adv-x="603" 
d="M542 295q0 118 -162 205q-51 27 -62 27q-21 0 -76 -43l-56 -43v186q0 51 -28 51q-26 0 -69 -18l-56 -23l2 -11q2 -14 3.5 -27t1.5 -26v-435q0 -47 57 -96q58 -50 103 -50q21 0 59 20l153 87q68 39 96 79q34 46 34 117zM400 202q0 -139 -81 -139q-75 0 -133 145v223l20 3
q41 0 109 -61q85 -76 85 -171z" />
    <glyph glyph-name="c" unicode="c" horiz-adv-x="454" 
d="M426 418q-14 11 -31.5 23.5t-39.5 26.5q-56 35 -75 35l-25 -7l-183 -89q-21 -11 -44 -58q-28 -55 -28 -107q0 -95 73 -180q63 -73 106 -73q22 0 92 41l69 42l-21 -1q-48 -2 -106 64q-72 79 -72 200q0 48 28 82q33 -9 65 -33l58 -45q9 2 27 10.5t45 24.5q55 31 62 44z" />
    <glyph glyph-name="d" unicode="d" horiz-adv-x="596" 
d="M532 305q0 34 -19 69q-25 49 -88 107q-14 13 -41 35t-67 54q-75 60 -75 76q0 7 18 21l52 39q-30 -11 -111 -60q-92 -57 -92 -77t48 -60l47 -40q-14 -1 -54 -23q-150 -80 -150 -204q0 -87 75 -172q68 -74 123 -83q84 23 196 114q138 112 138 204zM394 189q0 -77 -64 -117
q-24 0 -101 76q-92 89 -92 171q0 47 17 83q22 43 63 54q74 -42 123 -112q54 -77 54 -155z" />
    <glyph glyph-name="e" unicode="e" horiz-adv-x="457" 
d="M405 386q-22 29 -42.5 52t-40.5 39q-35 27 -47 27l-12 -4l-109 -55q-154 -76 -154 -222q0 -90 85 -168q69 -63 106 -63q13 1 37 15l115 67l-15 -2q-37 0 -94 51q-23 20 -41.5 41t-32.5 42zM271 307l-118 -90q-27 40 -27 92q0 29 8 55.5t23 52.5l52 -40q52 -41 62 -70z
" />
    <glyph glyph-name="f" unicode="f" horiz-adv-x="432" 
d="M417 612q-18 28 -54 66q-40 43 -54 43l-27 -10l-173 -96q-38 -22 -49 -78q-2 -12 -3.5 -36t-1.5 -61v-17q-16 -5 -46 -28q-32 -23 -42 -36q3 1 7.5 1.5t10.5 2.5h24l42 1v-362q21 0 54 15q34 15 45 15l22 -4q12 -4 23 -4q15 0 26 7q-23 23 -23 65v273l8 2l19 1l28 -3
q21 0 57 33q32 28 45 52h-157v177l44 -41q43 -41 57 -48z" />
    <glyph glyph-name="g" unicode="g" horiz-adv-x="596" 
d="M548 522h-261q-71 0 -167 -75q-120 -93 -120 -219q0 -62 39 -122q37 -57 92 -91l-174 -92q37 -53 90 -84q59 -35 119 -35q82 0 218 88q144 94 144 168q0 23 -30 97q-30 73 -30 129q0 65 15 133q23 99 65 103zM394 439l-53 -96q-19 -34 -19 -87q0 -49 12 -97l11 -44
q-9 -9 -22 -13l-27 -3q-51 0 -103 64q-57 70 -57 149q0 28 8 57l21 70h229zM424 -31q0 -41 -44 -61q-32 -15 -80 -15t-105 28q-65 30 -82 68l235 112q28 -23 51 -60q25 -40 25 -72z" />
    <glyph glyph-name="h" unicode="h" horiz-adv-x="583" 
d="M524 280q0 87 -87 165q-73 65 -107 65q-10 0 -14 -3l-19 -11l-116 -79v209q0 50 -22 50q-20 0 -57 -14l-79 -31l7 -11q6 -18 6 -47v-581l145 56v353l14 8l16 3q43 0 109 -71q75 -80 75 -159q0 -56 -30 -107q-31 -55 -79 -77l97 47q99 50 104 61l-32 -10q-13 -6 -23 -4
l-1 7l64 81q29 49 29 100z" />
    <glyph glyph-name="i" unicode="i" horiz-adv-x="272" 
d="M211 620l-33 31q-25 23 -41 23q-46 -6 -122 -75l32 -31q22 -20 36 -20q23 0 76 36zM236 77l-6 -3l-17 -3q-30 0 -30 46v332q0 17 -16 42t-32 25q-20 0 -72 -32q-44 -27 -66 -48q40 -18 40 -75v-311q0 -22 9 -39.5t25 -17.5q23 0 95 42z" />
    <glyph glyph-name="j" unicode="j" horiz-adv-x="248" 
d="M191 621l-27 27q-26 26 -45 26q-25 0 -69 -31q-44 -32 -54 -53l32 -27q22 -19 37 -19q13 0 70 39zM169 20v382l1 31q1 45 -53 77q-85 -39 -132 -95q23 -13 34 -25t11 -27v-443q0 -52 -26 -76q165 57 165 176z" />
    <glyph glyph-name="k" unicode="k" horiz-adv-x="550" 
d="M514 72q-31 13 -74 61q-101 112 -131 130l83 47q49 28 49 73q0 30 -34 85q-38 59 -63 59q-15 0 -40 -15l-128 -76v204q0 48 -26 48l-69 -19q-58 -16 -58 -30l3 -20q2 -14 3 -22t1 -10v-588l146 44v137q18 -1 57 -47q105 -118 139 -134q22 1 83 38zM306 304q-1 -16 -5 -25
l-11 -13l-114 -66v224l27 12q12 5 20 5q30 0 59 -59q24 -50 24 -78z" />
    <glyph glyph-name="l" unicode="l" horiz-adv-x="307" 
d="M263 51q-77 36 -77 128v445q0 54 -30 54q-18 0 -66 -19q-48 -18 -57 -30l2 -11q2 -14 3.5 -25.5t1.5 -21.5v-455q0 -38 18.5 -73t51.5 -51l66 20q69 22 87 39z" />
    <glyph glyph-name="m" unicode="m" horiz-adv-x="840" 
d="M831 63q-35 0 -55 19t-20 45v295l-43 44q-42 43 -76 43q-23 0 -54 -20l-112 -75l-50 48q-50 48 -72 48t-74 -36q-64 -45 -90 -55l-19 46q-24 45 -48 45q-18 0 -73 -43q-24 -19 -38.5 -31.5t-19.5 -18.5l16 1q19 1 32 -13.5t13 -33.5v-379l146 50v352q28 28 53 28
q18 0 41 -18q41 -32 41 -53v-354l148 45v354q5 5 9.5 8.5t8.5 5.5q17 14 28 14q17 0 52 -27q36 -26 36 -41v-267q0 -25 27 -59q28 -34 53 -34q23 0 73 25q49 25 67 42z" />
    <glyph glyph-name="n" unicode="n" horiz-adv-x="577" 
d="M541 84l-29 15q-30 24 -28 53l8 116q2 29 3 62t1 71q0 49 -57 84q-44 27 -68 27q-39 0 -119 -47l-77 -46q-11 29 -17.5 44.5t-8.5 19.5q-15 24 -31 24q-20 0 -66 -27q-42 -25 -60 -43l27 -31q11 -16 11 -37v-376l146 51v362q30 30 69 30q18 0 55 -23q37 -22 37 -37v-310
q1 -17 28 -42q29 -26 44 -26q23 0 78 43z" />
    <glyph glyph-name="o" unicode="o" horiz-adv-x="600" 
d="M541 287q0 90 -60 158q-63 71 -152 71q-25 0 -64 -13q-38 -11 -62 -24l-122 -65q-36 -21 -58 -68q-23 -49 -23 -100q0 -99 55 -167q59 -74 154 -74q51 0 109 37l138 88q39 25 62 68t23 89zM402 213q0 -140 -72 -140q-66 0 -127 58q-71 66 -71 158q0 51 13 97q19 69 55 69
q58 0 123 -59q79 -73 79 -183z" />
    <glyph glyph-name="p" unicode="p" horiz-adv-x="573" 
d="M524 274q0 85 -86 168q-74 72 -112 72q-15 0 -58 -36l-43 -35l-26 -10l-2 32q-3 7 -13 7q-28 0 -106 -48q-77 -48 -95 -74l80 39v-244l-60 -49l60 -3v-295l135 62v156q9 -4 20 -4q37 0 152 77l77 52q77 53 77 133zM407 185q0 -72 -66 -96l-143 89v239l12 2q45 0 117 -73
q80 -83 80 -161z" />
    <glyph glyph-name="q" unicode="q" horiz-adv-x="617" 
d="M538 -104v450q0 83 -76 129q-60 36 -136 36q-47 0 -87 -24l-117 -69q-52 -31 -85 -82q-37 -55 -37 -111q0 -92 64 -159t156 -67q48 0 89 24l90 55v-239zM399 90q-18 -9 -42 -9q-89 0 -157 65q-68 66 -68 155q0 127 79 127q55 0 116 -35q72 -42 72 -102v-201z" />
    <glyph glyph-name="r" unicode="r" horiz-adv-x="414" 
d="M406 418q-5 4 -21 23.5t-44 54.5q-20 26 -26 26l-64 -35q-28 -16 -46 -25.5t-26 -14.5q-3 16 -32 45q-29 30 -43 29q-15 -2 -66 -35q-51 -34 -53 -45q45 -33 45 -100v-341l145 57v376q28 -7 63 -56q42 -57 42 -101q0 49 50 85q71 50 76 57z" />
    <glyph glyph-name="s" unicode="s" horiz-adv-x="583" 
d="M525 229q0 38 -66 85q-61 43 -103 43q-20 -1 -88 -53l-69 -52q-68 29 -68 129q0 42 29 42q15 -1 55 -20q47 -22 73 -33t31 -13l55 36q58 37 66 51q-17 10 -31 18t-25 14q-65 35 -98 35q-57 0 -166 -68q-122 -77 -122 -154q0 -34 22 -81q25 -54 55 -54q24 0 89 54
q64 54 77 54q38 0 95 -51q58 -49 58 -87q0 -19 -17 -31.5t-40 -12.5q-50 0 -119 42l-67 41q-14 -7 -35 -19t-47 -31l-58 -41q103 -73 170 -73q69 0 203 82q141 88 141 148z" />
    <glyph glyph-name="t" unicode="t" horiz-adv-x="373" 
d="M364 510h-128v101q-52 -47 -115.5 -97t-141.5 -104h108v-280q0 -36 45 -75q39 -33 77 -47q15 8 55 43q20 18 32.5 30t16.5 19q-24 0 -52 40q-26 38 -26 63v212l27 -1q17 2 26.5 6.5t23.5 22.5z" />
    <glyph glyph-name="u" unicode="u" horiz-adv-x="564" 
d="M518 91l-21 13q-13 12 -13 25v303q-2 16 -33 48q-30 32 -45 32q-21 0 -62 -34q-42 -33 -50 -53l22 -25q21 -29 21 -45v-234q-21 -18 -46.5 -29t-46.5 -11q-17 0 -42 16q-26 17 -26 32l-1 300q0 14 -28 48q-27 34 -40 34q-17 -2 -68 -36q-50 -35 -54 -48l22 -23
q23 -23 23 -35v-262q0 -30 49 -69q50 -38 80 -38q23 0 67 25q27 16 53.5 35t52.5 42l27 -53q16 -32 32 -48q11 3 71 48z" />
    <glyph glyph-name="v" unicode="v" horiz-adv-x="626" 
d="M578 379q0 68 -49 111q-47 43 -117 43q-66 0 -149 -71l-52 -45l-24 43q-29 42 -47 42q-24 0 -86 -53q-8 -6 -13.5 -11.5t-11.5 -11t-13.5 -13l-17.5 -17.5q48 0 88 -70q13 -22 66 -160q43 -110 87 -172q70 42 136 96q203 165 203 289zM456 273q0 -54 -27 -103t-75 -77
q-38 63 -87 183q-23 55 -35.5 88.5t-14.5 46.5q28 25 84 25q70 0 112 -46q43 -46 43 -117z" />
    <glyph glyph-name="w" unicode="w" horiz-adv-x="913" 
d="M863 385q0 63 -52 112q-52 50 -113 50q-50 0 -121 -58q-13 -10 -28.5 -24.5t-34.5 -33.5q-17 33 -46 64q-37 37 -66 37q-38 0 -114 -46l-76 -46q-23 45 -29 52q-21 27 -42 27q-32 0 -93 -48l-60 -48q49 0 87 -53q11 -16 28 -52.5t40 -94.5q25 -63 49.5 -116.5
t49.5 -101.5l91 61l21 15q5 7 5 17q-3 24 -37 99l-69 154l-37 80q19 18 40 18q63 0 111 -106l153 -338q343 270 343 380zM734 288q0 -102 -105 -160l-110 292q30 34 64 34q61 0 106 -52q45 -53 45 -114z" />
    <glyph glyph-name="x" unicode="x" horiz-adv-x="566" 
d="M509 486l-61 22l-68 21q-20 -3 -75 -55l-58 -54l-45 47q-45 47 -79 47q-33 0 -77 -37q-36 -30 -46 -47q115 -71 123 -132l-109 -79l52 6l44 6q22 0 30.5 -4.5t8.5 -23.5q0 -49 -47 -114q-65 -90 -195 -185q54 21 151 97q94 74 118 107l62 -54q61 -54 84 -54q24 0 78 45
q15 13 27.5 24t22.5 21q-26 9 -93 62q-65 53 -79 78q60 8 155 94l-155 -6q-8 16 -18 55l-9 34l8 2l26 3q32 0 75 -17l42 -17l46 40q40 35 61 68z" />
    <glyph glyph-name="y" unicode="y" horiz-adv-x="599" 
d="M541 409q0 65 -53 109q-47 38 -99 38q-54 0 -122 -61q-10 -8 -24.5 -23t-34.5 -38q28 23 63 23q52 0 96 -53q43 -52 43 -106q0 -43 -25 -90q-25 -51 -61 -71l-148 287l-19 47q-18 34 -33 34q-19 0 -67 -39q-47 -38 -59 -59l17 -19q21 -27 42 -69l149 -299
q-17 -20 -30 -36.5t-24 -27.5q-42 -46 -60 -61q18 5 26 5q25 5 33 5q20 0 61 -11l93 -26q17 3 70 49l57 49q-19 3 -73 21q-47 15 -79 15q-42 0 -57 -4l-7 -2l208 201q117 114 117 212z" />
    <glyph glyph-name="z" unicode="z" horiz-adv-x="586" 
d="M529 73q0 63 -52 118q-51 56 -112 56q-42 0 -74 -19l168 187q57 63 61 76l-21 -6l-25 -1l-93 13q-51 7 -78.5 10.5t-32.5 3.5q-83 0 -224 -195l29 28q31 29 56 28l234 -12l-147 -170q-50 -57 -54 -76q40 23 79 23q65 0 111 -43q48 -42 48 -104q0 -42 -27 -70
q-26 5 -205 92q-74 36 -106 36q-42 0 -155 -137l59 7q44 0 152 -50q108 -51 122 -51q21 0 41 14l179 129q67 48 67 113z" />
    <glyph glyph-name="braceleft" unicode="{" horiz-adv-x="536" 
d="M433 145q-17 -2 -34 -3.5t-33 -1.5q-18 0 -55 -3q-19 -1 -32.5 -1.5t-22.5 -0.5q-22 0 -27.5 7t-4.5 31l4 112q2 58 -34 96q-27 30 -50 30l-11 -2l-3 -2q14 10 26.5 20t23.5 21q69 66 69 101q0 6 -1.5 14.5t-4 17.5t-4 17.5t-1.5 14.5q1 12 26 12q8 1 17 1.5t19 0.5h42
q15 0 53 62q38 64 38 83h-202q-45 0 -93 -45q-55 -52 -55 -116q0 -24 17 -78q18 -51 18 -77q0 -40 -59 -82q-11 -8 -25.5 -16t-33.5 -18q34 -16 50 -27q50 -35 50 -77l-7 -72q-1 -5 -1.5 -12.5t-2.5 -18.5v-45q0 -37 11 -62.5t38 -25.5h183q24 0 67 61q45 61 45 84z" />
    <glyph glyph-name="bar" unicode="|" horiz-adv-x="201" 
d="M83 721l-24.5 -17.5t-17.5 -13.5q-41 -39 -41 -70v-622q24 16 36 30q33 33 35 63z" />
    <glyph glyph-name="braceright" unicode="}" horiz-adv-x="536" 
d="M430 432q-34 16 -50 27q-50 35 -50 77l7 71q2 20 3 39.5t1 37.5q0 88 -49 88h-183q-21 0 -66 -61q-45 -62 -45 -84q17 2 33.5 3.5t32.5 1.5q9 0 22.5 0.5t32.5 1.5q37 3 55 3q22 0 27.5 -7t4.5 -31l-4 -112q-2 -58 34 -96q27 -30 50 -30l11 2l3 2q-119 -89 -119 -142
l5 -32q6 -23 6 -32q-1 -9 -19 -12q-2 0 -5.5 -0.5t-8.5 -1.5h-71q-16 0 -53 -63q-37 -61 -37 -82h201q45 0 93 45q55 52 55 116q0 19 -18 78q-17 57 -17 77q0 40 59 82q11 8 25.5 16t33.5 18z" />
    <glyph glyph-name="asciitilde" unicode="~" horiz-adv-x="583" 
d="M487 415l-21 -22q-27 -21 -53 -21q-27 0 -103 50t-115 50q-46 0 -125 -87q-14 -15 -31 -36.5t-39 -49.5l29 27q36 27 59 27q32 0 115 -51q83 -50 121 -50q47 0 111 82q10 13 23 33t29 48z" />
    <glyph glyph-name="exclamdown" unicode="&#xa1;" horiz-adv-x="296" 
d="M216 552v131q-33 -6 -59 -17q-60 -32 -88 -50v-129q85 19 147 65zM224 32l-5 24q-1 5 -1.5 13t-0.5 19v389l-147 -56v-385q0 -19 9.5 -36.5t21.5 -17.5q14 0 69 20q54 21 54 30z" />
    <glyph glyph-name="cent" unicode="&#xa2;" horiz-adv-x="476" 
d="M462 421q-14 11 -32 23.5t-41 26.5q-58 35 -77 35l-18 -5l-10 -4l16 162l-54 -31l-14 -150l-107 -57q-42 -22 -67 -73q-23 -48 -23 -98q0 -137 112 -225q31 -25 39 -25l-18 -160l53 45l11 114q27 7 84 41l60 35q-77 0 -130 71l25 238l38 -34q11 -8 18 -8q15 0 76 40z
M225 424l-20 -217q-39 55 -39 124q0 33 13 59q16 34 46 34z" />
    <glyph glyph-name="sterling" unicode="&#xa3;" horiz-adv-x="783" 
d="M666 653q-17 8 -32 14.5t-29 11.5q-56 21 -67 21l-15 -4l-133 -85q-35 -23 -46 -35q-12 -15 -14 -44l-3 -159q-1 -94 -27 -148q-8 -18 -27 -38q70 27 101 53q41 35 53 98h93q29 0 66 37q38 38 38 65l-48 -9q-17 -3 -64 -3q-44 0 -74 12l2 86q1 20 2.5 37t5.5 31l19 2
q5 0 52 -18q22 -8 32 -8l53 34q52 34 62 49zM761 117l-35 -21q-34 -20 -61 -20q-26 0 -131 37t-146 37q-30 0 -78 -24q-5 -2 -22.5 -12.5t-48.5 -28.5q-13 27 -37 51q-29 27 -54 27l79 71q55 61 58 135l9 218q3 64 21 82l41 40l-20 -10l-38 -21l-70 -45l-34 -28
q-18 -21 -18 -39l4 -41l4 -47l-1 -20l-2 -18l-87 -16q-24 -5 -48 -48l-24 -44q17 4 28 5.5t18 2.5q30 4 49.5 6t28.5 1l20 -1l27 -4q0 -157 -171 -262q30 0 56 -33l46 -57l83 57q52 36 78 36q31 0 137 -47q104 -46 130 -46q40 0 111 44q60 38 97 77z" />
    <glyph glyph-name="currency" unicode="&#xa4;" horiz-adv-x="677" 
d="M638 606l-48 47l-101 -101l-47 25q-57 24 -106 24q-58 0 -112 -24l-42 -24l-98 99l-48 -48l98 -98q-16 -28 -24 -49q-23 -61 -23 -113q0 -56 25 -110l24 -40l-99 -99l48 -48l99 100q26 -17 43 -24q57 -24 109 -24t109 25l44 24l99 -100l48 48l-101 103q16 23 23 40
q22 51 22 111q0 27 -6 56q-10 52 -38 95zM480 350q0 -61 -42 -103q-41 -42 -102 -42q-60 0 -103 42q-42 43 -42 103t42 102q43 43 103 43q59 0 101 -43q43 -43 43 -102z" />
    <glyph glyph-name="yen" unicode="&#xa5;" horiz-adv-x="599" 
d="M570 544q0 61 -39 111q-39 51 -99 51q-72 0 -140 -61q-10 -9 -23 -24t-29 -36q28 25 62 25q58 0 99 -51q40 -49 40 -110q0 -57 -24 -94q-32 -51 -59 -62q-73 121 -115 212l-54 117q-17 35 -36 35q-21 0 -67 -40q-40 -34 -57 -59q25 -12 96 -135q26 -46 47 -85t35 -71
h-139l-37 -25h186q13 -19 13 -49h-162l-37 -24h203q0 -22 -9 -80q-5 -29 -6 -48q-1 -8 -1.5 -20t-0.5 -29l80 16q81 16 96 36q-38 8 -38 46l7 61q2 6 2 18h153l32 24h-184l-1 16q1 16 5 25l4 8h142l34 25h-180l101 100q100 99 100 177z" />
    <glyph glyph-name="brokenbar" unicode="&#xa6;" horiz-adv-x="201" 
d="M83 459v262q-27 -20 -42 -33q-41 -39 -41 -68v-254l42 40q41 39 41 53zM83 94v261l-42 -40q-41 -39 -41 -61v-254l42 35q41 35 41 59z" />
    <glyph glyph-name="section" unicode="&#xa7;" horiz-adv-x="495" 
d="M421 204q0 22 -40 49l-40 27q8 10 17.5 22.5t20.5 28.5q38 56 38 82q0 32 -91 90l-168 109q-90 58 -90 73q0 17 27 46t44 29q11 -2 100 -58q90 -57 105 -57q13 0 44 25q32 26 32 40q-3 16 -97 64q-95 48 -119 48q-46 0 -125 -81q-79 -79 -79 -125q0 -22 40 -50l39 -27
l-38 -50q-37 -49 -37 -82q0 -32 91 -90l168 -109q90 -59 90 -73q0 -19 -28 -47q-27 -28 -43 -28q-8 0 -99 58t-106 57q-15 -2 -45 -26q-31 -25 -31 -39q0 -12 97 -61q98 -50 119 -50q44 0 124 80t80 125zM343 358q0 -20 -12 -42l-12 -22l-63 38q-29 17 -58 36t-58 39
q-62 44 -62 54q0 20 12 43l12 22l63 -38q178 -106 178 -130z" />
    <glyph glyph-name="dieresis" unicode="&#xa8;" horiz-adv-x="436" 
d="M438 641l-5 6l-25 -9q-9 -4 -19 -4q-8 1 -16 7q-6 9 -6 24q0 10 -6 10q-14 0 -46 -25q-33 -26 -33 -37q0 -15 18 -37t33 -22q15 1 42 19q63 40 63 68zM161 643l-4 4l-25 -10q-9 -4 -19 -4q-22 4 -22 32q0 10 -6 10q-15 0 -48 -24q-32 -24 -32 -38q0 -16 18 -38
q19 -21 34 -21q22 0 63 33q41 35 41 56z" />
    <glyph glyph-name="copyright" unicode="&#xa9;" horiz-adv-x="630" 
d="M560 441q0 124 -78 202q-76 79 -200 79t-203 -79q-79 -78 -79 -202t78 -202q80 -77 202 -77t201 77q79 78 79 202zM531 441q0 -112 -70 -181q-70 -68 -181 -68t-181 69t-70 180q0 112 70 183q70 72 181 72q109 0 180 -72q71 -73 71 -183zM405 566q-7 7 -13 12.5t-13 10.5
q-44 29 -99 29q-74 0 -126 -51q-51 -51 -51 -124q0 -74 52 -125q53 -50 125 -50q71 0 124 50l-23 22q-41 -41 -101 -41t-102 42t-42 102t42 102t102 42t103 -43z" />
    <glyph glyph-name="ordfeminine" unicode="&#xaa;" horiz-adv-x="259" 
d="M202 293v155q0 20 -22 42q-23 23 -42 23q-22 0 -56 -21q-38 -23 -38 -42l6 10q15 18 26 18q19 0 36 -27q18 -27 18 -48l-62 -28q-62 -29 -62 -56q0 -19 10 -39q12 -25 28 -25q18 3 50 23l36 23v-46zM207 211h-186l-21 -31h186zM130 308q-9 -9 -28 -9q-17 0 -27 17t-10 35
q0 16 33 33l32 13v-89z" />
    <glyph glyph-name="guillemotleft" unicode="&#xab;" horiz-adv-x="655" 
d="M625 -17q-3 14 -61 63l-110 97q-63 56 -70 69l241 312l-136 74l-146 -192q-25 -32 -43.5 -61t-32.5 -55q7 -9 88 -86q208 -195 270 -221zM380 -17q-3 14 -61 63l-110 97q-63 56 -70 69l241 312l-136 74l-146 -192q-25 -32 -43.5 -61t-32.5 -55q7 -9 88 -86
q208 -195 270 -221z" />
    <glyph glyph-name="logicalnot" unicode="&#xac;" horiz-adv-x="1400" 
d="M1370 512q0 -29 -22 -50t-51 -21h-146q-19 0 -25 -6q-10 -13 -10 -39v-302q0 -14 2 -22q0 -9 17 -20v-55q-72 15 -72 85v322q0 94 96 94h136q20 0 20 18q0 17 -20 17h-146q-39 0 -62.5 23.5t-23.5 62.5v131h57v-131q0 -35 37 -35h148q28 0 46.5 -22t18.5 -50zM983 86
q0 -33 -23 -64q-28 -23 -63 -23h-282q-30 0 -50 19.5t-20 49.5q0 28 18 52q19 21 47 21h279v-53h-270q-9 0 -15 -7t-5 -15q3 -17 22 -17h250q61 0 61 45v76q0 45 -45 45h-250q-38 0 -67 26q-25 28 -25 66v89q0 45 26.5 73.5t71.5 28.5h246q36 0 61 -19q20 -16 28 -57h-50
q-20 21 -43 21h-244q-41 0 -41 -43v-95q0 -37 41 -37h246q43 0 69.5 -23t26.5 -65v-94zM475 66q0 -30 -21.5 -51.5t-51.5 -21.5q-31 0 -52 23q-20 20 -20 53v144l-2 25q-5 10 -18 23l-164 163q-11 14 -27 14q-10 0 -17 -6q-8 -22 -8 -32v-310q0 -17 8 -28q7 -15 27 -15h81
q13 6 25 21h53q-14 -71 -77 -71h-82q-88 0 -88 95v330q0 19 11 35q9 10 15 15q25 18 56 18q33 0 52 -19l179 -177q5 -5 9 -9.5t8 -9.5q14 -20 14 -56v-151q0 -21 19 -21q10 0 18 21v678h53v-680zM-8 -90h1403v840h-1403v-840z" />
    <glyph glyph-name="registered" unicode="&#xae;" horiz-adv-x="630" 
d="M375 297l-72 165q30 0 51 21t21 51q0 28 -22 50t-50 22h-103v-309h31v165h41l72 -165h31zM344 534q0 -15 -13 -28t-28 -13h-72v82h72q16 0 28.5 -12.5t12.5 -28.5zM560 441q0 124 -78 202q-76 79 -200 79t-203 -79q-79 -78 -79 -202t78 -202q80 -77 202 -77t201 77
q79 78 79 202zM531 441q0 -112 -70 -181q-70 -68 -181 -68t-181 69t-70 180q0 112 70 183q70 72 181 72q109 0 180 -72q71 -73 71 -183z" />
    <glyph glyph-name="macron" unicode="&#xaf;" horiz-adv-x="283" 
d="M263 589l5 55h-248l-5 -55h248z" />
    <glyph glyph-name="degree" unicode="&#xb0;" horiz-adv-x="199" 
d="M199 628q0 41 -31 69q-31 29 -68 29q-42 0 -71 -28t-29 -70t29 -70.5t71 -28.5t70.5 28.5t28.5 70.5zM142 628q0 -18 -12 -30t-30 -12q-43 0 -43 42q0 18 12.5 30.5t30.5 12.5q17 0 29.5 -13t12.5 -30z" />
    <glyph glyph-name="plusminus" unicode="&#xb1;" horiz-adv-x="541" 
d="M499 256v66h-194v119h-67v-119h-195v-66h195v-119h67v119h194zM499 19v65h-456v-65h456z" />
    <glyph glyph-name="twosuperior" unicode="&#xb2;" horiz-adv-x="350" 
d="M284 432h-162l91 101q57 63 57 110q0 29 -21 59q-24 32 -51 32q-42 0 -98 -55q-57 -54 -57 -95q0 -28 13 -50q15 -25 37 -34q7 4 15 11t18 17q21 22 26 34q-45 30 -45 93q0 28 14 28q31 0 54 -38q20 -35 20 -67q0 -30 -44 -86l-93 -116h153z" />
    <glyph glyph-name="threesuperior" unicode="&#xb3;" horiz-adv-x="350" 
d="M266 513q0 30 -24 50.5t-54 20.5l37 37q23 23 23 45q0 27 -32 47q-29 17 -57 17q-19 0 -50 -25q-14 -10 -24 -20t-18 -20l14 9l19 3q29 0 51 -17.5t22 -46.5q0 -41 -60 -77q35 0 58 -19.5t23 -53.5q0 -41 -31 -41q-30 0 -49 25q-13 17 -16.5 20.5l-5.5 5.5
q-13 -2 -36 -23q-24 -21 -24 -32q0 -16 22 -32q22 -15 39 -15q31 0 102 56q71 57 71 86z" />
    <glyph glyph-name="acute" unicode="&#xb4;" horiz-adv-x="350" 
d="M315 587l-3 23q-2 11 -9 29q0 3 -1 4q-1 -21 -149 -57l-149 -37z" />
    <glyph glyph-name="mu" unicode="&#xb5;" horiz-adv-x="568" 
d="M549 105v22h-21v-14q0 -80 -42 -80q-38 0 -38 84v321h-91v-127q0 -89 -25 -167q-35 -111 -105 -111q-44 0 -57 39q-6 19 -6 77v289h-91v-239l3 -139l-2 -117l-2 -77q-2 -69 42 -69q42 0 42 41q-3 29 -34 103q-28 65 -28 123v28q25 -100 111 -100q114 0 155 167
q0 -167 101 -167q88 0 88 113z" />
    <glyph glyph-name="paragraph" unicode="&#xb6;" horiz-adv-x="629" 
d="M527 0v722h-233q-61 -22 -99 -36.5t-55 -22.5q-74 -36 -107 -86t-33 -132q0 -96 57 -165q61 -72 155 -72q51 0 101 32q47 31 77 75v-315h47v669h45v-669h45zM391 347q0 -21 -23 -47q-22 -25 -45 -25q-80 0 -138 75q-55 70 -55 152q0 76 22 114q31 54 108 54h131v-323z
" />
    <glyph glyph-name="periodcentered" unicode="&#xb7;" horiz-adv-x="245" 
d="M196 245v129q-23 -6 -42.5 -12.5t-35.5 -13.5q-39 -18 -69 -39v-131q66 10 147 67z" />
    <glyph glyph-name="periodcentered" unicode="&#x2219;" horiz-adv-x="245" 
d="M196 245v129q-23 -6 -42.5 -12.5t-35.5 -13.5q-39 -18 -69 -39v-131q66 10 147 67z" />
    <glyph glyph-name="cedilla" unicode="&#xb8;" horiz-adv-x="187" 
d="M127 -89q0 21 -47 50v42h-42v-58q2 -5 26 -20q25 -18 25 -32q0 -16 -33 -28q-10 -4 -33 -7l2 -2l8 -3q32 0 59 13q35 17 35 45z" />
    <glyph glyph-name="onesuperior" unicode="&#xb9;" horiz-adv-x="246" 
d="M181 429v302q0 14 -7 14q-18 0 -67 -38l-48 -38q11 5 21.5 11t18.5 11v-311l30 20q29 20 52 29z" />
    <glyph glyph-name="ordmasculine" unicode="&#xba;" horiz-adv-x="331" 
d="M274 398q0 46 -31 80q-30 36 -75 36q-29 0 -63 -19l-61 -33q-40 -22 -40 -84q0 -49 27 -83q30 -38 77 -38q26 0 55 18l69 44q42 27 42 79zM275 211h-254l-21 -31h254zM205 361q0 -70 -36 -70q-39 0 -69 34t-30 74q0 84 34 84q29 0 61 -30q40 -37 40 -92z" />
    <glyph glyph-name="guillemotright" unicode="&#xbb;" horiz-adv-x="641" 
d="M617 294q-17 29 -36 58.5t-41 58.5l-97 130l-48 61l-136 -74l241 -312q-11 -18 -71 -70l-110 -97q-58 -49 -60 -62q66 29 271 222q78 73 87 85zM380 290q-17 29 -36 58.5t-41 58.5l-97 130l-48 61l-136 -74l241 -312q-11 -18 -71 -70l-110 -97q-58 -49 -60 -62
q66 29 271 222q78 73 87 85z" />
    <glyph glyph-name="onequarter" unicode="&#xbc;" horiz-adv-x="368" 
d="M340 190h-102v166q-68 -51 -137 -126q-59 -63 -82 -102h144v-125q0 -10 12 -10q13 2 38 21l28 22l-4 12v80q2 -1 7 -1t13 -1q13 -1 19 -6l27 31zM166 232l-2 -42h-81q3 14 36 46q17 16 28 24.5t16 10.5l2 -6zM231 458v302q0 14 -7 14q-18 0 -67 -38l-48 -38q11 5 21.5 11
t18.5 11v-311l30 20q29 20 52 29zM335 397h-298l-21 -21h299z" />
    <glyph glyph-name="onehalf" unicode="&#xbd;" horiz-adv-x="368" 
d="M275 56h-162l91 101q57 63 57 110q0 29 -21 59q-24 32 -51 32q-42 0 -98 -55q-57 -54 -57 -95q0 -28 13 -50q15 -25 37 -34q7 4 15 11t18 17q21 22 26 34q-45 30 -45 93q0 28 14 28q31 0 54 -38q20 -35 20 -67q0 -30 -44 -86l-93 -116h153zM201 456v302q0 14 -7 14
q-18 0 -67 -38l-48 -38q11 5 21.5 11t18.5 11v-311l30 20q29 20 52 29zM335 397h-298l-21 -21h299z" />
    <glyph glyph-name="threequarters" unicode="&#xbe;" horiz-adv-x="374" 
d="M346 191h-102v166q-68 -51 -137 -126q-59 -63 -82 -102h144v-125q0 -10 12 -10q13 2 38 21l28 22l-4 12v80q2 -1 7 -1t13 -1q13 -1 19 -6l27 31zM172 233l-2 -42h-81q3 14 36 46q17 16 28 24.5t16 10.5l2 -6zM278 549q0 30 -24 50.5t-54 20.5l37 37q23 23 23 45
q0 27 -32 47q-29 17 -57 17q-19 0 -50 -25q-14 -10 -24 -20t-18 -20l14 9l19 3q29 0 51 -17.5t22 -46.5q0 -41 -60 -77q35 0 58 -19.5t23 -53.5q0 -41 -31 -41q-30 0 -49 25q-13 17 -16.5 20.5l-5.5 5.5q-13 -2 -36 -23q-24 -21 -24 -32q0 -16 22 -32q22 -15 39 -15
q31 0 102 56q71 57 71 86zM335 397h-298l-21 -21h299z" />
    <glyph glyph-name="questiondown" unicode="&#xbf;" horiz-adv-x="334" 
d="M269 553v131q-64 -10 -147 -67v-129q78 25 147 65zM311 83h-22q-38 0 -79 32t-41 70q0 16 50 99q54 89 50 160l-2 33l-135 -56l3 -45q5 -71 -56 -158q-57 -81 -57 -128q0 -44 48 -80q46 -32 90 -32q40 0 89 34t62 71z" />
    <glyph glyph-name="Agrave" unicode="&#xc0;" horiz-adv-x="721" 
d="M395 635q0 31 -64 53q-51 19 -89 19q-63 0 -97 -34l-96 -97q-50 -53 -50 -114q0 -95 70 -95q22 0 65 46l43 45q-44 0 -66 36q-19 31 -19 76q0 55 64 55q46 0 85.5 -24t56.5 -66q24 14 54 41q43 37 43 59zM701 85l-18 -3q-37 0 -55 73q-27 106 -22 314l2 87l2 64v15t-1 15
q-3 27 -21 39q-28 -16 -53.5 -28.5t-49.5 -23.5l-25 -11q-139 -61 -187 -175q-16 -38 -23 -111q-5 -42 -9.5 -70t-9.5 -44q-20 -61 -64 -92l-152 -107q20 11 43 11q30 0 78 -16q48 -15 73 -22.5t28 -8.5q19 4 54 30l59 44l-113 37q-20 7 -36.5 14t-30.5 15q40 21 93 72
l52 51q37 -5 67 -35l46 37q22 17 37.5 28t26.5 15q0 -84 16 -170q24 -132 72 -138l47 30q68 46 74 64zM496 623q-1 -3 -1.5 -8t-2.5 -13v-37l-1 -89l2 -111q2 -38 -8 -55l-3 -4l-24 14l-48 30l-25 -18q-14 -10 -24.5 -16.5t-18.5 -9.5l11 68q19 123 47 174q31 58 96 75z
M590 767l-150 39q-149 39 -149 57l-6 -18q-6 -26 -6 -40z" />
    <glyph glyph-name="Aacute" unicode="&#xc1;" horiz-adv-x="721" 
d="M395 635q0 31 -64 53q-51 19 -89 19q-63 0 -97 -34l-96 -97q-50 -53 -50 -114q0 -95 70 -95q22 0 65 46l43 45q-44 0 -66 36q-19 31 -19 76q0 55 64 55q46 0 85.5 -24t56.5 -66q24 14 54 41q43 37 43 59zM701 85l-18 -3q-37 0 -55 73q-27 106 -22 314l2 87l2 64v15t-1 15
q-3 27 -21 39q-28 -16 -53.5 -28.5t-49.5 -23.5l-25 -11q-139 -61 -187 -175q-16 -38 -23 -111q-5 -42 -9.5 -70t-9.5 -44q-20 -61 -64 -92l-152 -107q20 11 43 11q30 0 78 -16q48 -15 73 -22.5t28 -8.5q19 4 54 30l59 44l-113 37q-20 7 -36.5 14t-30.5 15q40 21 93 72
l52 51q37 -5 67 -35l46 37q22 17 37.5 28t26.5 15q0 -84 16 -170q24 -132 72 -138l47 30q68 46 74 64zM496 623q-1 -3 -1.5 -8t-2.5 -13v-37l-1 -89l2 -111q2 -38 -8 -55l-3 -4l-24 14l-48 30l-25 -18q-14 -10 -24.5 -16.5t-18.5 -9.5l11 68q19 123 47 174q31 58 96 75z
M689 794l-3 23q-2 11 -9 29q0 3 -1 4q-1 -21 -149 -57l-149 -37z" />
    <glyph glyph-name="Acircumflex" unicode="&#xc2;" horiz-adv-x="721" 
d="M395 635q0 31 -64 53q-51 19 -89 19q-63 0 -97 -34l-96 -97q-50 -53 -50 -114q0 -95 70 -95q22 0 65 46l43 45q-44 0 -66 36q-19 31 -19 76q0 55 64 55q46 0 85.5 -24t56.5 -66q24 14 54 41q43 37 43 59zM701 85l-18 -3q-37 0 -55 73q-27 106 -22 314l2 87l2 64v15t-1 15
q-3 27 -21 39q-28 -16 -53.5 -28.5t-49.5 -23.5l-25 -11q-139 -61 -187 -175q-16 -38 -23 -111q-5 -42 -9.5 -70t-9.5 -44q-20 -61 -64 -92l-152 -107q20 11 43 11q30 0 78 -16q48 -15 73 -22.5t28 -8.5q19 4 54 30l59 44l-113 37q-20 7 -36.5 14t-30.5 15q40 21 93 72
l52 51q37 -5 67 -35l46 37q22 17 37.5 28t26.5 15q0 -84 16 -170q24 -132 72 -138l47 30q68 46 74 64zM496 623q-1 -3 -1.5 -8t-2.5 -13v-37l-1 -89l2 -111q2 -38 -8 -55l-3 -4l-24 14l-48 30l-25 -18q-14 -10 -24.5 -16.5t-18.5 -9.5l11 68q19 123 47 174q31 58 96 75z
M628 803q-2 6 -59 28l-58 23l-63 -44l-63 -46l44 22l54 31l48 -28q22 -13 34.5 -19.5t16.5 -8.5q7 0 19 9q27 19 27 33z" />
    <glyph glyph-name="Atilde" unicode="&#xc3;" horiz-adv-x="721" 
d="M395 635q0 31 -64 53q-51 19 -89 19q-63 0 -97 -34l-96 -97q-50 -53 -50 -114q0 -95 70 -95q22 0 65 46l43 45q-44 0 -66 36q-19 31 -19 76q0 55 64 55q46 0 85.5 -24t56.5 -66q24 14 54 41q43 37 43 59zM701 85l-18 -3q-37 0 -55 73q-27 106 -22 314l2 87l2 64v15t-1 15
q-3 27 -21 39q-28 -16 -53.5 -28.5t-49.5 -23.5l-25 -11q-139 -61 -187 -175q-16 -38 -23 -111q-5 -42 -9.5 -70t-9.5 -44q-20 -61 -64 -92l-152 -107q20 11 43 11q30 0 78 -16q48 -15 73 -22.5t28 -8.5q19 4 54 30l59 44l-113 37q-20 7 -36.5 14t-30.5 15q40 21 93 72
l52 51q37 -5 67 -35l46 37q22 17 37.5 28t26.5 15q0 -84 16 -170q24 -132 72 -138l47 30q68 46 74 64zM496 623q-1 -3 -1.5 -8t-2.5 -13v-37l-1 -89l2 -111q2 -38 -8 -55l-3 -4l-24 14l-48 30l-25 -18q-14 -10 -24.5 -16.5t-18.5 -9.5l11 68q19 123 47 174q31 58 96 75z
M689 835l-26 -13q-25 -13 -42 -13q-30 0 -85 24q-56 24 -82 24q-33 0 -74 -38l-40 -37l26 13q24 12 42 12q28 0 84 -24q57 -23 84 -23q32 0 73 38z" />
    <glyph glyph-name="Adieresis" unicode="&#xc4;" horiz-adv-x="721" 
d="M395 635q0 31 -64 53q-51 19 -89 19q-63 0 -97 -34l-96 -97q-50 -53 -50 -114q0 -95 70 -95q22 0 65 46l43 45q-44 0 -66 36q-19 31 -19 76q0 55 64 55q46 0 85.5 -24t56.5 -66q24 14 54 41q43 37 43 59zM701 85l-18 -3q-37 0 -55 73q-27 106 -22 314l2 87l2 64v15t-1 15
q-3 27 -21 39q-28 -16 -53.5 -28.5t-49.5 -23.5l-25 -11q-139 -61 -187 -175q-16 -38 -23 -111q-5 -42 -9.5 -70t-9.5 -44q-20 -61 -64 -92l-152 -107q20 11 43 11q30 0 78 -16q48 -15 73 -22.5t28 -8.5q19 4 54 30l59 44l-113 37q-20 7 -36.5 14t-30.5 15q40 21 93 72
l52 51q37 -5 67 -35l46 37q22 17 37.5 28t26.5 15q0 -84 16 -170q24 -132 72 -138l47 30q68 46 74 64zM496 623q-1 -3 -1.5 -8t-2.5 -13v-37l-1 -89l2 -111q2 -38 -8 -55l-3 -4l-24 14l-48 30l-25 -18q-14 -10 -24.5 -16.5t-18.5 -9.5l11 68q19 123 47 174q31 58 96 75z
M697 846l-5 6l-25 -9q-9 -4 -19 -4q-8 1 -16 7q-6 9 -6 24q0 10 -6 10q-14 0 -46 -25q-33 -26 -33 -37q0 -15 18 -37t33 -22q15 1 42 19q63 40 63 68zM420 848l-4 4l-25 -10q-9 -4 -19 -4q-22 4 -22 32q0 10 -6 10q-15 0 -48 -24q-32 -24 -32 -38q0 -16 18 -38
q19 -21 34 -21q22 0 63 33q41 35 41 56z" />
    <glyph glyph-name="Aring" unicode="&#xc5;" horiz-adv-x="721" 
d="M395 635q0 31 -64 53q-51 19 -89 19q-63 0 -97 -34l-96 -97q-50 -53 -50 -114q0 -95 70 -95q22 0 65 46l43 45q-44 0 -66 36q-19 31 -19 76q0 55 64 55q46 0 85.5 -24t56.5 -66q24 14 54 41q43 37 43 59zM701 85l-18 -3q-37 0 -55 73q-27 106 -22 314l2 87l2 64v15t-1 15
q-3 27 -21 39q-28 -16 -53.5 -28.5t-49.5 -23.5l-25 -11q-139 -61 -187 -175q-16 -38 -23 -111q-5 -42 -9.5 -70t-9.5 -44q-20 -61 -64 -92l-152 -107q20 11 43 11q30 0 78 -16q48 -15 73 -22.5t28 -8.5q19 4 54 30l59 44l-113 37q-20 7 -36.5 14t-30.5 15q40 21 93 72
l52 51q37 -5 67 -35l46 37q22 17 37.5 28t26.5 15q0 -84 16 -170q24 -132 72 -138l47 30q68 46 74 64zM496 623q-1 -3 -1.5 -8t-2.5 -13v-37l-1 -89l2 -111q2 -38 -8 -55l-3 -4l-24 14l-48 30l-25 -18q-14 -10 -24.5 -16.5t-18.5 -9.5l11 68q19 123 47 174q31 58 96 75z
M555 815q0 31 -20.5 51.5t-51.5 20.5t-51.5 -19.5t-20.5 -52.5q0 -32 19.5 -52t51.5 -20t52.5 20t20.5 52zM535 815q0 -52 -52 -52q-21 0 -36 13.5t-15 38.5q0 52 52 52q23 0 37 -14.5t14 -37.5z" />
    <glyph glyph-name="AE" unicode="&#xc6;" horiz-adv-x="949" 
d="M926 115v6l-33 -21q-32 -20 -62 -20l-103 28q-44 12 -64 12l-32 -7l-18 -7q9 9 9 33v209l52 -24q53 -26 68 -24q17 2 66 38q51 37 56 51q-7 2 -15.5 6t-19.5 9q-13 7 -26 13.5t-26 13.5q-43 20 -50 20q-13 -1 -59 -43l-46 -42l3 144q1 64 6 87h29q18 0 60 -17
q43 -17 54 -17q16 0 69 42l52 42l-79 28q-78 28 -97 28t-53 -31q-24 -23 -42 -47l-12 25q-11 23 -15 41l-178 -88q-102 -49 -135 -151q-8 -45 -16 -89l-16 -88q-16 -98 -76 -139l-89 -60l-62 -47q17 8 23 9l24 3q32 0 77 -16l92 -31q25 0 58 27q51 43 60 47l-109 36
q-49 16 -71 29q17 9 35.5 22.5t38.5 32.5q17 16 34.5 31t34.5 31q3 2 5.5 4t4.5 4q23 0 59 -36l54 42q16 12 30 21t27 16v-120q0 -40 -6 -95q-8 -74 -21 -87l17 -5l41 19q42 20 56 20l74 -28q33 -11 53 -11q85 0 209 121zM405 639q0 31 -64 53q-50 18 -89 18q-62 0 -107 -46
l-85 -86q-52 -52 -52 -116q0 -39 16 -62q19 -30 54 -30q22 0 69 45q10 10 20 21t20 24q-84 0 -84 112q0 57 61 57q48 0 86.5 -25t57.5 -67l49 36q48 34 48 66zM507 625q-2 -12 -3 -20.5t-1 -13.5v-24l-1 -79l2 -121q1 -46 -12 -59l-35 19l-37 26l-15 -12q-23 -19 -53 -33
q27 175 54 231q32 68 101 86z" />
    <glyph glyph-name="Ccedilla" unicode="&#xc7;" horiz-adv-x="607" 
d="M584 649l-121 67q-11 -3 -36 -30q-61 -63 -75 -71v93q-139 -39 -240 -137q-112 -109 -112 -229q0 -117 80 -221q84 -109 198 -121v-55q2 -5 26 -20q25 -18 25 -32q0 -16 -33 -28q-10 -4 -33 -7l2 -2l8 -3q32 0 59 13q35 17 35 45q0 21 -47 50v39q46 0 90 23q36 18 77 63
l85 94q-105 -81 -188 -81q-39 0 -99 39q-57 37 -79 72q24 13 82 74q64 67 64 87v217l19 26l79 -36q30 -18 54 -69q0 32 29 69q43 52 51 71zM235 305q0 -55 -40 -83q-37 20 -68 95q-29 72 -29 117q0 58 39 114q53 74 98 90v-333z" />
    <glyph glyph-name="Egrave" unicode="&#xc8;" horiz-adv-x="762" 
d="M700 656q-9 9 -83 33q-69 22 -92 25q-16 -4 -46.5 -19.5t-77.5 -41.5q-99 -57 -99 -75v-258q0 -48 -21 -93l-20 -34q39 11 87 68q20 23 36 46.5t29 46.5l132 -51q81 37 126 93l-140 60l-91 -76l-28 -10v237l33 4l59 -18q61 -20 81 -21l52 34q54 35 63 50zM724 122
l-32 -21q-32 -21 -62 -21q-25 0 -131 38t-147 38q-34 0 -149 -66l-35 48q-30 30 -57 30l64 50q64 61 64 106v300q1 15 22 37l59 63q-94 -34 -149 -85q-41 -38 -41 -66v-320q0 -44 -72 -111q-12 -11 -30 -25.5t-41 -32.5q34 0 100 -92q27 13 66 45q61 50 93 50q33 0 138 -47
q106 -47 134 -47q41 0 112 47q31 20 54 41t40 41zM529 768l-150 39q-149 39 -149 57l-6 -18q-6 -26 -6 -40z" />
    <glyph glyph-name="Eacute" unicode="&#xc9;" horiz-adv-x="762" 
d="M700 656q-9 9 -83 33q-69 22 -92 25q-16 -4 -46.5 -19.5t-77.5 -41.5q-99 -57 -99 -75v-258q0 -48 -21 -93l-20 -34q39 11 87 68q20 23 36 46.5t29 46.5l132 -51q81 37 126 93l-140 60l-91 -76l-28 -10v237l33 4l59 -18q61 -20 81 -21l52 34q54 35 63 50zM724 122
l-32 -21q-32 -21 -62 -21q-25 0 -131 38t-147 38q-34 0 -149 -66l-35 48q-30 30 -57 30l64 50q64 61 64 106v300q1 15 22 37l59 63q-94 -34 -149 -85q-41 -38 -41 -66v-320q0 -44 -72 -111q-12 -11 -30 -25.5t-41 -32.5q34 0 100 -92q27 13 66 45q61 50 93 50q33 0 138 -47
q106 -47 134 -47q41 0 112 47q31 20 54 41t40 41zM601 799l-3 23q-2 11 -9 29q0 3 -1 4q-1 -21 -149 -57l-149 -37z" />
    <glyph glyph-name="Ecircumflex" unicode="&#xca;" horiz-adv-x="762" 
d="M700 656q-9 9 -83 33q-69 22 -92 25q-16 -4 -46.5 -19.5t-77.5 -41.5q-99 -57 -99 -75v-258q0 -48 -21 -93l-20 -34q39 11 87 68q20 23 36 46.5t29 46.5l132 -51q81 37 126 93l-140 60l-91 -76l-28 -10v237l33 4l59 -18q61 -20 81 -21l52 34q54 35 63 50zM724 122
l-32 -21q-32 -21 -62 -21q-25 0 -131 38t-147 38q-34 0 -149 -66l-35 48q-30 30 -57 30l64 50q64 61 64 106v300q1 15 22 37l59 63q-94 -34 -149 -85q-41 -38 -41 -66v-320q0 -44 -72 -111q-12 -11 -30 -25.5t-41 -32.5q34 0 100 -92q27 13 66 45q61 50 93 50q33 0 138 -47
q106 -47 134 -47q41 0 112 47q31 20 54 41t40 41zM575 807q-2 6 -59 28l-58 23l-63 -44l-63 -46l44 22l54 31l48 -28q22 -13 34.5 -19.5t16.5 -8.5q7 0 19 9q27 19 27 33z" />
    <glyph glyph-name="Edieresis" unicode="&#xcb;" horiz-adv-x="762" 
d="M700 656q-9 9 -83 33q-69 22 -92 25q-16 -4 -46.5 -19.5t-77.5 -41.5q-99 -57 -99 -75v-258q0 -48 -21 -93l-20 -34q39 11 87 68q20 23 36 46.5t29 46.5l132 -51q81 37 126 93l-140 60l-91 -76l-28 -10v237l33 4l59 -18q61 -20 81 -21l52 34q54 35 63 50zM724 122
l-32 -21q-32 -21 -62 -21q-25 0 -131 38t-147 38q-34 0 -149 -66l-35 48q-30 30 -57 30l64 50q64 61 64 106v300q1 15 22 37l59 63q-94 -34 -149 -85q-41 -38 -41 -66v-320q0 -44 -72 -111q-12 -11 -30 -25.5t-41 -32.5q34 0 100 -92q27 13 66 45q61 50 93 50q33 0 138 -47
q106 -47 134 -47q41 0 112 47q31 20 54 41t40 41zM671 849l-5 6l-25 -9q-9 -4 -19 -4q-8 1 -16 7q-6 9 -6 24q0 10 -6 10q-14 0 -46 -25q-33 -26 -33 -37q0 -15 18 -37t33 -22q15 1 42 19q63 40 63 68zM394 851l-4 4l-25 -10q-9 -4 -19 -4q-22 4 -22 32q0 10 -6 10
q-15 0 -48 -24q-32 -24 -32 -38q0 -16 18 -38q19 -21 34 -21q22 0 63 33q41 35 41 56z" />
    <glyph glyph-name="Igrave" unicode="&#xcc;" horiz-adv-x="569" 
d="M530 698l-82 4h-296q-34 0 -102 -77l-65 -76q27 30 69 41q30 8 83 8h270q-13 -19 -81 -71l-122 -95q-66 -51 -80 -77q30 0 56 -23q32 -31 44 -35v-5l-4 -8l-101 -86l-10 3q-71 -42 -126 -102q17 -4 51.5 -18.5t85.5 -40.5q95 -49 111 -49q33 11 141 101q111 93 121 118
v386q0 37 19 74q5 10 18 28zM380 551q-12 -56 -12 -110v-50l-13 -1q-24 -1 -40 19q-30 38 -66 38l64 55q19 16 35.5 28.5t31.5 20.5zM368 152q0 -46 -24 -61q-23 3 -131 64q-24 13 -42.5 22.5t-32.5 15.5l94 85l50 42q64 53 86 58v-226zM479 763l-150 39q-149 39 -149 57
l-6 -18q-6 -26 -6 -40z" />
    <glyph glyph-name="Iacute" unicode="&#xcd;" horiz-adv-x="569" 
d="M530 698l-82 4h-296q-34 0 -102 -77l-65 -76q27 30 69 41q30 8 83 8h270q-13 -19 -81 -71l-122 -95q-66 -51 -80 -77q30 0 56 -23q32 -31 44 -35v-5l-4 -8l-101 -86l-10 3q-71 -42 -126 -102q17 -4 51.5 -18.5t85.5 -40.5q95 -49 111 -49q33 11 141 101q111 93 121 118
v386q0 37 19 74q5 10 18 28zM380 551q-12 -56 -12 -110v-50l-13 -1q-24 -1 -40 19q-30 38 -66 38l64 55q19 16 35.5 28.5t31.5 20.5zM368 152q0 -46 -24 -61q-23 3 -131 64q-24 13 -42.5 22.5t-32.5 15.5l94 85l50 42q64 53 86 58v-226zM516 807l-3 23q-2 11 -9 29q0 3 -1 4
q-1 -21 -149 -57l-149 -37z" />
    <glyph glyph-name="Icircumflex" unicode="&#xce;" horiz-adv-x="569" 
d="M532 698l-82 4h-296q-34 0 -102 -77l-65 -76q27 30 69 41q30 8 83 8h270q-13 -19 -81 -71l-122 -95q-66 -51 -80 -77q30 0 56 -23q32 -31 44 -35v-5l-4 -8l-101 -86l-10 3q-71 -42 -126 -102q17 -4 51.5 -18.5t85.5 -40.5q95 -49 111 -49q33 11 141 101q111 93 121 118
v386q0 37 19 74q5 10 18 28zM382 551q-12 -56 -12 -110v-50l-13 -1q-24 -1 -40 19q-30 38 -66 38l64 55q19 16 35.5 28.5t31.5 20.5zM370 152q0 -46 -24 -61q-23 3 -131 64q-24 13 -42.5 22.5t-32.5 15.5l94 85l50 42q64 53 86 58v-226zM485 800q-2 6 -59 28l-58 23l-63 -44
l-63 -46l44 22l54 31l48 -28q22 -13 34.5 -19.5t16.5 -8.5q7 0 19 9q27 19 27 33z" />
    <glyph glyph-name="Idieresis" unicode="&#xcf;" horiz-adv-x="569" 
d="M536 698l-82 4h-296q-34 0 -102 -77l-65 -76q27 30 69 41q30 8 83 8h270q-13 -19 -81 -71l-122 -95q-66 -51 -80 -77q30 0 56 -23q32 -31 44 -35v-5l-4 -8l-101 -86l-10 3q-71 -42 -126 -102q17 -4 51.5 -18.5t85.5 -40.5q95 -49 111 -49q33 11 141 101q111 93 121 118
v386q0 37 19 74q5 10 18 28zM386 551q-12 -56 -12 -110v-50l-13 -1q-24 -1 -40 19q-30 38 -66 38l64 55q19 16 35.5 28.5t31.5 20.5zM374 152q0 -46 -24 -61q-23 3 -131 64q-24 13 -42.5 22.5t-32.5 15.5l94 85l50 42q64 53 86 58v-226zM581 843l-5 6l-25 -9q-9 -4 -19 -4
q-8 1 -16 7q-6 9 -6 24q0 10 -6 10q-14 0 -46 -25q-33 -26 -33 -37q0 -15 18 -37t33 -22q15 1 42 19q63 40 63 68zM304 845l-4 4l-25 -10q-9 -4 -19 -4q-22 4 -22 32q0 10 -6 10q-15 0 -48 -24q-32 -24 -32 -38q0 -16 18 -38q19 -21 34 -21q22 0 63 33q41 35 41 56z" />
    <glyph glyph-name="Eth" unicode="&#xd0;" horiz-adv-x="714" 
d="M667 418q0 175 -58 223q-47 40 -242 59l-16 2q-246 24 -246 72l5 19q-18 -8 -36 -19t-37 -25q-46 -34 -46 -53q0 -41 111 -53l242 -25l-39 -34q-39 -35 -39 -61v-79h-62v58q0 41 54 104q-67 0 -117 -32q-48 -32 -48 -65v-65h-33l-48 -52h81v-147q0 -49 -37 -101
q26 13 44.5 23t29.5 18q74 53 74 103v103h62v-97q0 -82 -98 -132q-126 -65 -137 -82l57 26q14 7 22 7q27 0 149 -60q123 -59 134 -59l18 4l26 11l98 55q89 50 116 154q16 60 16 200zM543 354l-186 -65q22 28 22 65v37h53l57 53h-110v172q106 -49 125 -67q27 -26 27 -76z
M547 299l-273 -89l11 15q22 30 55 43l204 74zM547 194q0 -27 -11 -66q-15 -52 -39 -65l-168 81q-72 35 -94 39l312 104v-93z" />
    <glyph glyph-name="Ntilde" unicode="&#xd1;" horiz-adv-x="882" 
d="M846 491q0 126 -113 189q-81 45 -186 45q-37 0 -68 -27l-144 -120v35q0 24 -6 45l-23 -7q1 0 -9 -2h-27q-63 0 -93 8q-56 15 -56 61l-55 -28q-55 -27 -74 -72q28 -36 136 -36q36 0 54 -6l15 -5v-508q0 -42 10 -55q6 -6 14 -6l69 16q71 17 76 26q-31 30 -31 71v97l368 273
l9 -29l3 -37q6 -71 -30 -144q-25 -51 -81 -106q-18 -18 -43 -40l-76 -66l28 3q31 0 96 -21q66 -19 92 -38q23 10 64 39q20 14 34.5 26t24.5 22q-14 9 -67 29l-120 45q107 80 149 137q60 81 60 186zM660 555l-325 -235v238q25 30 75 38q16 3 88 3q100 0 162 -44zM698 507
l-363 -266v54l337 246q7 -5 17 -21zM777 835l-26 -13q-25 -13 -42 -13q-30 0 -85 24q-56 24 -82 24q-33 0 -74 -38l-40 -37l26 13q24 12 42 12q28 0 84 -24q57 -23 84 -23q32 0 73 38z" />
    <glyph glyph-name="Ograve" unicode="&#xd2;" horiz-adv-x="780" 
d="M746 371q0 145 -98 252q-86 93 -169 93q-44 0 -91 -40q-33 -29 -54 -36l-24 73q-148 -64 -218 -136q-91 -92 -91 -231q0 -144 98 -250q98 -104 242 -104q141 0 266 103q139 115 139 276zM554 520l-219 -134v232q0 18 26 18q29 0 87 -31q69 -36 106 -85zM584 473
l-297 -184q36 39 48 81l229 138zM631 264q0 -84 -36 -139q-43 -67 -121 -67q-69 0 -164 56q-86 51 -117 95l396 249q19 -33 31 -87q11 -50 11 -107zM206 309q0 -7 -0.5 -13t-1.5 -11q-4 -17 -9.5 -34t-13.5 -33q-77 59 -77 191q0 109 28.5 168.5t73.5 59.5v-328zM543 772
l-150 39q-149 39 -149 57l-6 -18q-6 -26 -6 -40z" />
    <glyph glyph-name="Oacute" unicode="&#xd3;" horiz-adv-x="780" 
d="M746 371q0 145 -98 252q-86 93 -169 93q-44 0 -91 -40q-33 -29 -54 -36l-24 73q-148 -64 -218 -136q-91 -92 -91 -231q0 -144 98 -250q98 -104 242 -104q141 0 266 103q139 115 139 276zM554 520l-219 -134v232q0 18 26 18q29 0 87 -31q69 -36 106 -85zM584 473
l-297 -184q36 39 48 81l229 138zM631 264q0 -84 -36 -139q-43 -67 -121 -67q-69 0 -164 56q-86 51 -117 95l396 249q19 -33 31 -87q11 -50 11 -107zM206 309q0 -7 -0.5 -13t-1.5 -11q-4 -17 -9.5 -34t-13.5 -33q-77 59 -77 191q0 109 28.5 168.5t73.5 59.5v-328zM550 804
l-3 23q-2 11 -9 29q0 3 -1 4q-1 -21 -149 -57l-149 -37z" />
    <glyph glyph-name="Ocircumflex" unicode="&#xd4;" horiz-adv-x="780" 
d="M746 371q0 145 -98 252q-86 93 -169 93q-44 0 -91 -40q-33 -29 -54 -36l-24 73q-148 -64 -218 -136q-91 -92 -91 -231q0 -144 98 -250q98 -104 242 -104q141 0 266 103q139 115 139 276zM554 520l-219 -134v232q0 18 26 18q29 0 87 -31q69 -36 106 -85zM584 473
l-297 -184q36 39 48 81l229 138zM631 264q0 -84 -36 -139q-43 -67 -121 -67q-69 0 -164 56q-86 51 -117 95l396 249q19 -33 31 -87q11 -50 11 -107zM206 309q0 -7 -0.5 -13t-1.5 -11q-4 -17 -9.5 -34t-13.5 -33q-77 59 -77 191q0 109 28.5 168.5t73.5 59.5v-328zM523 804
q-2 6 -59 28l-58 23l-63 -44l-63 -46l44 22l54 31l48 -28q22 -13 34.5 -19.5t16.5 -8.5q7 0 19 9q27 19 27 33z" />
    <glyph glyph-name="Otilde" unicode="&#xd5;" horiz-adv-x="780" 
d="M746 371q0 145 -98 252q-86 93 -169 93q-44 0 -91 -40q-33 -29 -54 -36l-24 73q-148 -64 -218 -136q-91 -92 -91 -231q0 -144 98 -250q98 -104 242 -104q141 0 266 103q139 115 139 276zM554 520l-219 -134v232q0 18 26 18q29 0 87 -31q69 -36 106 -85zM584 473
l-297 -184q36 39 48 81l229 138zM631 264q0 -84 -36 -139q-43 -67 -121 -67q-69 0 -164 56q-86 51 -117 95l396 249q19 -33 31 -87q11 -50 11 -107zM206 309q0 -7 -0.5 -13t-1.5 -11q-4 -17 -9.5 -34t-13.5 -33q-77 59 -77 191q0 109 28.5 168.5t73.5 59.5v-328zM591 832
l-26 -13q-25 -13 -42 -13q-30 0 -85 24q-56 24 -82 24q-33 0 -74 -38l-40 -37l26 13q24 12 42 12q28 0 84 -24q57 -23 84 -23q32 0 73 38z" />
    <glyph glyph-name="Odieresis" unicode="&#xd6;" horiz-adv-x="780" 
d="M746 371q0 145 -98 252q-86 93 -169 93q-44 0 -91 -40q-33 -29 -54 -36l-24 73q-148 -64 -218 -136q-91 -92 -91 -231q0 -144 98 -250q98 -104 242 -104q141 0 266 103q139 115 139 276zM554 520l-219 -134v232q0 18 26 18q29 0 87 -31q69 -36 106 -85zM584 473
l-297 -184q36 39 48 81l229 138zM631 264q0 -84 -36 -139q-43 -67 -121 -67q-69 0 -164 56q-86 51 -117 95l396 249q19 -33 31 -87q11 -50 11 -107zM206 309q0 -7 -0.5 -13t-1.5 -11q-4 -17 -9.5 -34t-13.5 -33q-77 59 -77 191q0 109 28.5 168.5t73.5 59.5v-328zM604 836
l-5 6l-25 -9q-9 -4 -19 -4q-8 1 -16 7q-6 9 -6 24q0 10 -6 10q-14 0 -46 -25q-33 -26 -33 -37q0 -15 18 -37t33 -22q15 1 42 19q63 40 63 68zM327 838l-4 4l-25 -10q-9 -4 -19 -4q-22 4 -22 32q0 10 -6 10q-15 0 -48 -24q-32 -24 -32 -38q0 -16 18 -38q19 -21 34 -21
q22 0 63 33q41 35 41 56z" />
    <glyph glyph-name="multiply" unicode="&#xd7;" horiz-adv-x="640" 
d="M531 214l-138 136l138 137l-76 74l-137 -137l-139 137l-75 -74l138 -137l-138 -136l76 -74l138 137l138 -137z" />
    <glyph glyph-name="Oslash" unicode="&#xd8;" horiz-adv-x="780" 
d="M843 586l-11 14l-90 -53l-20 34l89 58l-6 13l-91 -60q-36 48 -85 83q-59 41 -110 41q-44 0 -91 -40q-33 -29 -54 -36l-24 73q-148 -64 -218 -136q-91 -92 -91 -231q0 -11 0.5 -21t1.5 -18q7 -62 30 -111l-73 -48l7 -12l71 48l24 -41l-72 -42l8 -12l72 42
q102 -139 271 -139q141 0 266 103q139 115 139 276q0 87 -37 162zM594 520l-219 -134v232q0 18 26 18q29 0 87 -31q69 -36 106 -85zM624 473l-297 -184q36 39 48 81l229 138zM671 264q0 -84 -36 -139q-43 -67 -121 -67q-69 0 -164 56q-86 51 -117 95l396 249q19 -33 31 -87
q11 -50 11 -107zM246 309q0 -7 -0.5 -13t-1.5 -11q-4 -17 -9.5 -34t-13.5 -33q-77 59 -77 191q0 109 28.5 168.5t73.5 59.5v-328z" />
    <glyph glyph-name="Ugrave" unicode="&#xd9;" horiz-adv-x="805" 
d="M775 93l-13 -2q-18 0 -43 31t-25 50v494q0 17 -24 34q-22 16 -42 16t-71 -30q-20 -13 -37 -24t-30 -22q82 -24 82 -45v-90l-179 -142v353h-219q-47 0 -120 -68q-14 -13 -28.5 -29.5t-31.5 -37.5q58 30 107 30h167v-46l-110 -75q-92 -63 -92 -138q0 -175 89 -270
q78 -83 197 -83q106 0 219 104q-5 -10 -5 -19q0 -36 79 -85q86 32 130 94zM572 432l-292 -231l-27 27l319 253v-49zM572 115q-40 -20 -85 -20q-51 0 -105 25q-61 25 -87 64l277 223v-292zM271 324v-31q0 -11 -1 -15q-4 -25 -26 -34q-28 19 -42 88q-10 46 -10 100q0 49 40 89
q13 13 39 30v-227zM551 757l-150 39q-149 39 -149 57l-6 -18q-7 -24 -7 -40z" />
    <glyph glyph-name="Uacute" unicode="&#xda;" horiz-adv-x="805" 
d="M781 93l-13 -2q-18 0 -43 31t-25 50v494q0 17 -24 34q-22 16 -42 16t-71 -30q-20 -13 -37 -24t-30 -22q82 -24 82 -45v-90l-179 -142v353h-219q-47 0 -120 -68q-14 -13 -28.5 -29.5t-31.5 -37.5q58 30 107 30h167v-46l-110 -75q-92 -63 -92 -138q0 -175 89 -270
q78 -83 197 -83q106 0 219 104q-5 -10 -5 -19q0 -36 79 -85q86 32 130 94zM578 432l-292 -231l-27 27l319 253v-49zM578 115q-40 -20 -85 -20q-51 0 -105 25q-61 25 -87 64l277 223v-292zM277 324v-31q0 -11 -1 -15q-4 -25 -26 -34q-28 19 -42 88q-10 46 -10 100q0 49 40 89
q13 13 39 30v-227zM635 796l-3 23q-2 11 -9 29q0 3 -1 4q-1 -21 -149 -57l-149 -37z" />
    <glyph glyph-name="Ucircumflex" unicode="&#xdb;" horiz-adv-x="805" 
d="M781 93l-13 -2q-18 0 -43 31t-25 50v494q0 17 -24 34q-22 16 -42 16t-71 -30q-20 -13 -37 -24t-30 -22q82 -24 82 -45v-90l-179 -142v353h-219q-47 0 -120 -68q-14 -13 -28.5 -29.5t-31.5 -37.5q58 30 107 30h167v-46l-110 -75q-92 -63 -92 -138q0 -175 89 -270
q78 -83 197 -83q106 0 219 104q-5 -10 -5 -19q0 -36 79 -85q86 32 130 94zM578 432l-292 -231l-27 27l319 253v-49zM578 115q-40 -20 -85 -20q-51 0 -105 25q-61 25 -87 64l277 223v-292zM277 324v-31q0 -11 -1 -15q-4 -25 -26 -34q-28 19 -42 88q-10 46 -10 100q0 49 40 89
q13 13 39 30v-227zM579 815q-2 6 -59 28l-58 23l-63 -44l-63 -46l44 22l54 31l48 -28q22 -13 34.5 -19.5t16.5 -8.5q7 0 19 9q27 19 27 33z" />
    <glyph glyph-name="Udieresis" unicode="&#xdc;" horiz-adv-x="805" 
d="M781 93l-13 -2q-18 0 -43 31t-25 50v494q0 17 -24 34q-22 16 -42 16t-71 -30q-20 -13 -37 -24t-30 -22q82 -24 82 -45v-90l-179 -142v353h-219q-47 0 -120 -68q-14 -13 -28.5 -29.5t-31.5 -37.5q58 30 107 30h167v-46l-110 -75q-92 -63 -92 -138q0 -175 89 -270
q78 -83 197 -83q106 0 219 104q-5 -10 -5 -19q0 -36 79 -85q86 32 130 94zM578 432l-292 -231l-27 27l319 253v-49zM578 115q-40 -20 -85 -20q-51 0 -105 25q-61 25 -87 64l277 223v-292zM277 324v-31q0 -11 -1 -15q-4 -25 -26 -34q-28 19 -42 88q-10 46 -10 100q0 49 40 89
q13 13 39 30v-227zM674 849l-5 6l-25 -9q-9 -4 -19 -4q-8 1 -16 7q-6 9 -6 24q0 10 -6 10q-14 0 -46 -25q-33 -26 -33 -37q0 -15 18 -37t33 -22q15 1 42 19q63 40 63 68zM397 851l-4 4l-25 -10q-9 -4 -19 -4q-22 4 -22 32q0 10 -6 10q-15 0 -48 -24q-32 -24 -32 -38
q0 -16 18 -38q19 -21 34 -21q22 0 63 33q41 35 41 56z" />
    <glyph glyph-name="Yacute" unicode="&#xdd;" horiz-adv-x="696" 
d="M714 720q-51 -21 -127 -21q-36 0 -75.5 5t-84.5 15q-9 2 -16.5 3.5t-12.5 3.5q-18 0 -53 -26.5t-86 -77.5v36l-61 31q-59 30 -70 30q-21 0 -73 -49l-51 -48l19 2q30 0 65 -23q31 -21 31 -29v-391q0 -25 -36 -59q-17 -17 -35 -30l56 -7q57 -7 89 -27q-14 -8 -44 -31
t-78 -61q-86 -71 -106 -91l33 2l38 5q51 0 147 -39l94 -38q167 73 283 170q100 82 100 119q0 30 -37 150q-36 123 -36 212q0 120 36 183q30 53 91 81zM554 617q-61 -55 -73 -127l-227 -156v271q17 23 42 23l45 -8l39 -3h174zM476 470l-8 -56l-240 -170q24 36 24 68zM492 130
q-10 -11 -17 -17t-12 -8.5t-10.5 -3t-12.5 -0.5l-141 53q-35 13 -65 21t-56 10l291 209l-3 -15q-5 -28 -5 -60q0 -81 31 -189zM524 1q0 -28 -51 -65q-46 -34 -67 -34l-147 48q-38 13 -66.5 18.5t-46.5 4.5l-17 -1l-31 -5q8 11 23 25t37 30l45 34l49 -20q45 -19 65 -19
q23 0 101 51l78 51q13 -22 14 -35q14 -36 14 -83zM561 812l-3 23q-2 11 -9 29q0 3 -1 4q-1 -21 -149 -57l-149 -37z" />
    <glyph glyph-name="Thorn" unicode="&#xde;" horiz-adv-x="497" 
d="M447 508q0 102 -33 141q-23 27 -59 27q-37 0 -59 -24l-102 -110v241l-3 28q-4 13 -10 13q-46 0 -123 -61l-77 -61q3 1 7 3q11 5 19.5 9.5t15.5 8.5l37 20v-743l134 63v103q6 5 10.5 9.5l6.5 6.5q17 16 29 27.5t20 19.5q187 187 187 279zM334 420q0 -69 -65 -151
q-51 -63 -75 -73v310l33 36q33 36 39 36q20 0 41 -36q27 -47 27 -122z" />
    <glyph glyph-name="germandbls" unicode="&#xdf;" horiz-adv-x="536" 
d="M499 285q0 69 -38 121q-41 57 -109 57q10 15 23 30t29 31q28 28 45.5 46.5t24.5 28.5q-37 13 -91 61q-53 45 -54 45q-13 -1 -71 -38q-187 -118 -187 -211v-468l135 80v272q0 24 27 24q47 0 94 -54q52 -59 52 -137q0 -81 -71 -135l8 -3q183 118 183 250zM360 504
q-73 -90 -154 -121v176q2 12 3 20t2 12l5 14q65 -91 144 -101z" />
    <glyph glyph-name="agrave" unicode="&#xe0;" horiz-adv-x="476" 
d="M400 65v332q0 29 -52 68q-51 39 -82 39q-35 0 -99 -36q-73 -40 -79 -80l21 20q19 19 39 19q40 0 73 -52q26 -42 33 -88l-152 -75q-99 -50 -99 -101q0 -35 18 -69q25 -49 59 -49q25 0 57 17l117 68v-86zM254 93q-14 -9 -27 -12l-30 -3q-33 0 -55 33q-19 28 -19 64
q0 31 52 61q37 22 79 33v-176zM309 541l-150 39q-149 39 -149 57l-6 -18q-6 -26 -6 -40z" />
    <glyph glyph-name="aacute" unicode="&#xe1;" horiz-adv-x="476" 
d="M400 65v332q0 29 -52 68q-51 39 -82 39q-35 0 -99 -36q-73 -40 -79 -80l21 20q19 19 39 19q40 0 73 -52q26 -42 33 -88l-152 -75q-99 -50 -99 -101q0 -35 18 -69q25 -49 59 -49q25 0 57 17l117 68v-86zM254 93q-14 -9 -27 -12l-30 -3q-33 0 -55 33q-19 28 -19 64
q0 31 52 61q37 22 79 33v-176zM314 573l-3 23q-2 11 -9 29q0 3 -1 4q-1 -21 -149 -57l-149 -37z" />
    <glyph glyph-name="acircumflex" unicode="&#xe2;" horiz-adv-x="476" 
d="M400 65v332q0 29 -52 68q-51 39 -82 39q-35 0 -99 -36q-73 -40 -79 -80l21 20q19 19 39 19q40 0 73 -52q26 -42 33 -88l-152 -75q-99 -50 -99 -101q0 -35 18 -69q25 -49 59 -49q25 0 57 17l117 68v-86zM254 93q-14 -9 -27 -12l-30 -3q-33 0 -55 33q-19 28 -19 64
q0 31 52 61q37 22 79 33v-176zM397 573q-2 6 -59 28l-58 23l-63 -44l-63 -46l44 22l54 31l48 -28q22 -13 34.5 -19.5t16.5 -8.5q7 0 19 9q27 19 27 33z" />
    <glyph glyph-name="atilde" unicode="&#xe3;" horiz-adv-x="476" 
d="M400 65v332q0 29 -52 68q-51 39 -82 39q-35 0 -99 -36q-73 -40 -79 -80l21 20q19 19 39 19q40 0 73 -52q26 -42 33 -88l-152 -75q-99 -50 -99 -101q0 -35 18 -69q25 -49 59 -49q25 0 57 17l117 68v-86zM254 93q-14 -9 -27 -12l-30 -3q-33 0 -55 33q-19 28 -19 64
q0 31 52 61q37 22 79 33v-176zM358 612l-26 -13q-25 -13 -42 -13q-30 0 -85 24q-56 24 -82 24q-33 0 -74 -38l-40 -37l26 13q24 12 42 12q28 0 84 -24q57 -23 84 -23q32 0 73 38z" />
    <glyph glyph-name="adieresis" unicode="&#xe4;" horiz-adv-x="476" 
d="M400 65v332q0 29 -52 68q-51 39 -82 39q-35 0 -99 -36q-73 -40 -79 -80l21 20q19 19 39 19q40 0 73 -52q26 -42 33 -88l-152 -75q-99 -50 -99 -101q0 -35 18 -69q25 -49 59 -49q25 0 57 17l117 68v-86zM254 93q-14 -9 -27 -12l-30 -3q-33 0 -55 33q-19 28 -19 64
q0 31 52 61q37 22 79 33v-176zM437 619l-5 6l-25 -9q-9 -4 -19 -4q-8 1 -16 7q-6 9 -6 24q0 10 -6 10q-14 0 -46 -25q-33 -26 -33 -37q0 -15 18 -37t33 -22q15 1 42 19q63 40 63 68zM160 621l-4 4l-25 -10q-9 -4 -19 -4q-22 4 -22 32q0 10 -6 10q-15 0 -48 -24
q-32 -24 -32 -38q0 -16 18 -38q19 -21 34 -21q22 0 63 33q41 35 41 56z" />
    <glyph glyph-name="aring" unicode="&#xe5;" horiz-adv-x="476" 
d="M400 65v332q0 29 -52 68q-51 39 -82 39q-35 0 -99 -36q-73 -40 -79 -80l21 20q19 19 39 19q40 0 73 -52q26 -42 33 -88l-152 -75q-99 -50 -99 -101q0 -35 18 -69q25 -49 59 -49q25 0 57 17l117 68v-86zM254 93q-14 -9 -27 -12l-30 -3q-33 0 -55 33q-19 28 -19 64
q0 31 52 61q37 22 79 33v-176zM340 599q0 31 -20.5 51.5t-51.5 20.5t-51.5 -19.5t-20.5 -52.5q0 -32 19.5 -52t51.5 -20t52.5 20t20.5 52zM320 599q0 -52 -52 -52q-21 0 -36 13.5t-15 38.5q0 52 52 52q23 0 37 -14.5t14 -37.5z" />
    <glyph glyph-name="ae" unicode="&#xe6;" horiz-adv-x="633" 
d="M616 393q0 11 -55 60q-53 49 -64 49q-13 0 -68 -45l-54 -44q-10 4 -47 49q-32 39 -56 39q-30 0 -100 -41q-77 -47 -77 -80l18 24q22 24 42 24q26 0 66 -46q40 -44 40 -71q0 -13 -7 -17q-18 -11 -27 -15l-94 -43q-60 -27 -86 -50q-43 -36 -43 -85q0 -43 14.5 -71.5
t39.5 -28.5q31 0 117 46q88 47 99 47l56 -53q55 -51 87 -51q36 0 89 40l54 41h-20q-45 0 -95 40q-44 35 -44 55q1 13 26 36l157 146q33 32 32 45zM492 291l-36 -40q-20 -23 -34 -36.5t-21 -18.5l-4 110q-1 17 -4.5 40t-11.5 52l47 -34q47 -34 64 -73zM266 170l-3 -60l-14 -9
q-25 -16 -51 -16q-32 0 -53 34q-19 28 -19 63q0 31 42 60q37 25 62 25q6 -1 12.5 -3t13.5 -4q5 -12 5 -21q4 -17 5 -34.5t0 -34.5z" />
    <glyph glyph-name="ccedilla" unicode="&#xe7;" horiz-adv-x="454" 
d="M426 418q-14 11 -31.5 23.5t-39.5 26.5q-56 35 -75 35l-25 -7l-183 -89q-21 -11 -44 -58q-28 -55 -28 -107q0 -82 58 -161q50 -66 100 -87v-49q2 -5 26 -20q25 -18 25 -32q0 -16 -33 -28q-10 -4 -33 -7l2 -2l8 -3q32 0 59 13q35 17 35 45q0 21 -47 50v34q44 17 88 45
l52 32l-21 -1q-48 -2 -106 64q-72 79 -72 200q0 48 28 82q33 -9 65 -33l58 -45q9 2 27 10.5t45 24.5q55 31 62 44z" />
    <glyph glyph-name="egrave" unicode="&#xe8;" horiz-adv-x="457" 
d="M405 386q-22 29 -42.5 52t-40.5 39q-35 27 -47 27l-12 -4l-109 -55q-154 -76 -154 -222q0 -90 85 -168q69 -63 106 -63q13 1 37 15l115 67l-15 -2q-37 0 -94 51q-23 20 -41.5 41t-32.5 42zM271 307l-118 -90q-27 40 -27 92q0 29 8 55.5t23 52.5l52 -40q52 -41 62 -70z
M309 535l-150 39q-149 39 -149 57l-6 -18q-6 -26 -6 -40z" />
    <glyph glyph-name="eacute" unicode="&#xe9;" horiz-adv-x="457" 
d="M405 386q-22 29 -42.5 52t-40.5 39q-35 27 -47 27l-12 -4l-109 -55q-154 -76 -154 -222q0 -90 85 -168q69 -63 106 -63q13 1 37 15l115 67l-15 -2q-37 0 -94 51q-23 20 -41.5 41t-32.5 42zM271 307l-118 -90q-27 40 -27 92q0 29 8 55.5t23 52.5l52 -40q52 -41 62 -70z
M314 573l-3 23q-2 11 -9 29q0 3 -1 4q-1 -21 -149 -57l-149 -37z" />
    <glyph glyph-name="ecircumflex" unicode="&#xea;" horiz-adv-x="457" 
d="M405 386q-22 29 -42.5 52t-40.5 39q-35 27 -47 27l-12 -4l-109 -55q-154 -76 -154 -222q0 -90 85 -168q69 -63 106 -63q13 1 37 15l115 67l-15 -2q-37 0 -94 51q-23 20 -41.5 41t-32.5 42zM271 307l-118 -90q-27 40 -27 92q0 29 8 55.5t23 52.5l52 -40q52 -41 62 -70z
M403 570q-2 6 -59 28l-58 23l-63 -44l-63 -46l44 22l54 31l48 -28q22 -13 34.5 -19.5t16.5 -8.5q7 0 19 9q27 19 27 33z" />
    <glyph glyph-name="edieresis" unicode="&#xeb;" horiz-adv-x="457" 
d="M405 386q-22 29 -42.5 52t-40.5 39q-35 27 -47 27l-12 -4l-109 -55q-154 -76 -154 -222q0 -90 85 -168q69 -63 106 -63q13 1 37 15l115 67l-15 -2q-37 0 -94 51q-23 20 -41.5 41t-32.5 42zM271 307l-118 -90q-27 40 -27 92q0 29 8 55.5t23 52.5l52 -40q52 -41 62 -70z
M437 616l-5 6l-25 -9q-9 -4 -19 -4q-8 1 -16 7q-6 9 -6 24q0 10 -6 10q-14 0 -46 -25q-33 -26 -33 -37q0 -15 18 -37t33 -22q15 1 42 19q63 40 63 68zM160 618l-4 4l-25 -10q-9 -4 -19 -4q-22 4 -22 32q0 10 -6 10q-15 0 -48 -24q-32 -24 -32 -38q0 -16 18 -38
q19 -21 34 -21q22 0 63 33q41 35 41 56z" />
    <glyph glyph-name="igrave" unicode="&#xec;" horiz-adv-x="272" 
d="M240 77l-6 -3l-17 -3q-30 0 -30 46v332q0 17 -16 42t-32 25q-20 0 -72 -32q-42 -26 -67 -48q41 -18 41 -75v-311q0 -22 9 -39.5t25 -17.5q23 0 95 42zM201 544l-150 39q-148 39 -148 57l-6 -18q-7 -24 -7 -40z" />
    <glyph glyph-name="iacute" unicode="&#xed;" horiz-adv-x="272" 
d="M237 77l-6 -3l-17 -3q-30 0 -30 46v332q0 17 -16 42t-32 25q-20 0 -72 -32q-44 -27 -66 -48q40 -18 40 -75v-311q0 -22 9 -39.5t25 -17.5q23 0 95 42zM313 575l-3 23q-2 11 -9 29q0 3 -1 4q-1 -21 -149 -57l-149 -37z" />
    <glyph glyph-name="icircumflex" unicode="&#xee;" horiz-adv-x="272" 
d="M238 77l-6 -3l-17 -3q-30 0 -30 46v332q0 17 -16 42t-32 25q-20 0 -72 -32q-44 -27 -66 -48q40 -18 40 -75v-311q0 -22 9 -39.5t25 -17.5q23 0 95 42zM231 575q-3 1 -7 3q-15 8 -25.5 13t-16.5 7l-48 20l-52 -37l-52 -39l37 19l44 26l82 -47q4 1 10.5 5t12.5 9t10.5 10.5
t4.5 10.5z" />
    <glyph glyph-name="idieresis" unicode="&#xef;" horiz-adv-x="272" 
d="M237 77l-6 -3l-17 -3q-30 0 -30 46v332q0 17 -16 42t-32 25q-20 0 -72 -32q-44 -27 -66 -48q40 -18 40 -75v-311q0 -22 9 -39.5t25 -17.5q23 0 95 42zM338 616l-5 6l-25 -9q-9 -4 -19 -4q-8 1 -16 7q-6 9 -6 24q0 10 -6 10q-14 0 -46 -25q-33 -26 -33 -37q0 -15 18 -37
t33 -22q15 1 42 19q63 40 63 68zM61 618l-4 4l-25 -10q-9 -4 -19 -4q-21 4 -21 32q0 10 -6 10q-16 0 -47 -24q-33 -24 -33 -38q0 -16 19 -38q18 -21 33 -21q21 0 62 33q41 35 41 56z" />
    <glyph glyph-name="eth" unicode="&#xf0;" horiz-adv-x="596" 
d="M527 311q0 74 -76 156q-13 14 -29.5 29.5t-38.5 32.5q-11 10 -29 24.5t-43 33.5l58 34l17 70l-118 -68l-10 9q-20 19 -19 31q0 9 38 35l38 25l-2 2q-19 -1 -114 -64q-92 -62 -92 -74q0 -13 27 -41l-60 -35l-18 -71l116 68l28 -26l-56 -25q-49 -22 -94 -71
q-50 -56 -50 -122q0 -109 87 -196q71 -71 109 -69q16 0 68 31q23 14 39 25t27 19l105 83q42 32 67 70.5t25 83.5zM389 204q0 -50 -31 -87q-11 -14 -39 -32q-69 37 -130 116q-54 70 -54 135q0 46 17 83q21 44 62 53q66 -29 124 -115q51 -74 51 -153z" />
    <glyph glyph-name="ntilde" unicode="&#xf1;" horiz-adv-x="577" 
d="M541 84l-29 15q-30 24 -28 53l8 116q2 29 3 62t1 71q0 49 -57 84q-44 27 -68 27q-39 0 -119 -47l-77 -46q-11 29 -17.5 44.5t-8.5 19.5q-15 24 -31 24q-20 0 -66 -27q-42 -25 -60 -43l27 -31q11 -16 11 -37v-376l146 51v362q30 30 69 30q18 0 55 -23q37 -22 37 -37v-310
q1 -17 28 -42q29 -26 44 -26q23 0 78 43zM501 617l-26 -13q-25 -13 -42 -13q-30 0 -85 24q-56 24 -82 24q-33 0 -74 -38l-40 -37l26 13q24 12 42 12q28 0 84 -24q57 -23 84 -23q32 0 73 38z" />
    <glyph glyph-name="ograve" unicode="&#xf2;" horiz-adv-x="600" 
d="M541 287q0 90 -60 158q-63 71 -152 71q-25 0 -64 -13q-38 -11 -62 -24l-122 -65q-36 -21 -58 -68q-23 -49 -23 -100q0 -99 55 -167q59 -74 154 -74q51 0 109 37l138 88q39 25 62 68t23 89zM402 213q0 -140 -72 -140q-66 0 -127 58q-71 66 -71 158q0 51 13 97q19 69 55 69
q58 0 123 -59q79 -73 79 -183zM446 548l-150 39q-149 39 -149 57l-6 -18q-6 -26 -6 -40z" />
    <glyph glyph-name="oacute" unicode="&#xf3;" horiz-adv-x="600" 
d="M541 287q0 90 -60 158q-63 71 -152 71q-25 0 -64 -13q-38 -11 -62 -24l-122 -65q-36 -21 -58 -68q-23 -49 -23 -100q0 -99 55 -167q59 -74 154 -74q51 0 109 37l138 88q39 25 62 68t23 89zM402 213q0 -140 -72 -140q-66 0 -127 58q-71 66 -71 158q0 51 13 97q19 69 55 69
q58 0 123 -59q79 -73 79 -183zM459 582l-3 23q-2 11 -9 29q0 3 -1 4q-1 -21 -149 -57l-149 -37z" />
    <glyph glyph-name="ocircumflex" unicode="&#xf4;" horiz-adv-x="600" 
d="M541 287q0 90 -60 158q-63 71 -152 71q-25 0 -64 -13q-38 -11 -62 -24l-122 -65q-36 -21 -58 -68q-23 -49 -23 -100q0 -99 55 -167q59 -74 154 -74q51 0 109 37l138 88q39 25 62 68t23 89zM402 213q0 -140 -72 -140q-66 0 -127 58q-71 66 -71 158q0 51 13 97q19 69 55 69
q58 0 123 -59q79 -73 79 -183zM449 581q-2 6 -59 28l-58 23l-63 -44l-63 -46l44 22l54 31l48 -28q22 -13 34.5 -19.5t16.5 -8.5q7 0 19 9q27 19 27 33z" />
    <glyph glyph-name="otilde" unicode="&#xf5;" horiz-adv-x="600" 
d="M541 287q0 90 -60 158q-63 71 -152 71q-25 0 -64 -13q-38 -11 -62 -24l-122 -65q-36 -21 -58 -68q-23 -49 -23 -100q0 -99 55 -167q59 -74 154 -74q51 0 109 37l138 88q39 25 62 68t23 89zM402 213q0 -140 -72 -140q-66 0 -127 58q-71 66 -71 158q0 51 13 97q19 69 55 69
q58 0 123 -59q79 -73 79 -183zM502 616l-26 -13q-25 -13 -42 -13q-30 0 -85 24q-56 24 -82 24q-33 0 -74 -38l-40 -37l26 13q24 12 42 12q28 0 84 -24q57 -23 84 -23q32 0 73 38z" />
    <glyph glyph-name="odieresis" unicode="&#xf6;" horiz-adv-x="600" 
d="M541 287q0 90 -60 158q-63 71 -152 71q-25 0 -64 -13q-38 -11 -62 -24l-122 -65q-36 -21 -58 -68q-23 -49 -23 -100q0 -99 55 -167q59 -74 154 -74q51 0 109 37l138 88q39 25 62 68t23 89zM402 213q0 -140 -72 -140q-66 0 -127 58q-71 66 -71 158q0 51 13 97q19 69 55 69
q58 0 123 -59q79 -73 79 -183zM437 619l-5 6l-25 -9q-9 -4 -19 -4q-8 1 -16 7q-6 9 -6 24q0 10 -6 10q-14 0 -46 -25q-33 -26 -33 -37q0 -15 18 -37t33 -22q15 1 42 19q63 40 63 68zM160 621l-4 4l-25 -10q-9 -4 -19 -4q-22 4 -22 32q0 10 -6 10q-15 0 -48 -24
q-32 -24 -32 -38q0 -16 18 -38q19 -21 34 -21q22 0 63 33q41 35 41 56z" />
    <glyph glyph-name="divide" unicode="&#xf7;" horiz-adv-x="536" 
d="M364 540q-1 6 -33 29t-38 23q-20 0 -72 -37l-51 -36q0 -13 31 -32q28 -18 43 -18q13 3 84 46q19 12 27 18q3 1 9 7zM463 422q-16 -10 -55 -10h-306q-35 0 -71 -51q-31 -43 -31 -62q11 8 28 8q7 1 13 1.5t11 0.5h311q26 0 65 47q35 44 35 66zM292 200q-1 6 -33 29t-38 23
q-20 0 -72 -37l-51 -36q0 -13 31 -32q28 -18 43 -18q13 3 84 46q19 12 27 18q3 1 9 7z" />
    <glyph glyph-name="oslash" unicode="&#xf8;" horiz-adv-x="600" 
d="M663 526l-113 -27l-55 -48q-58 46 -124 46q-25 0 -64 -13q-38 -11 -62 -24l-122 -65q-36 -21 -58 -68q-23 -49 -23 -100q0 -82 36 -140l-112 -97l102 19l42 37q61 -59 141 -59q50 0 109 36l138 88q39 25 62 68t23 89q0 81 -50 145zM385 355l-194 -169q-17 39 -17 84
q0 51 13 97q19 69 55 69q34 0 79 -27q38 -23 64 -54zM444 194q0 -140 -72 -140q-21 0 -42 6.5t-41.5 18.5t-38.5 27.5t-31 33.5l197 171q28 -52 28 -117z" />
    <glyph glyph-name="ugrave" unicode="&#xf9;" horiz-adv-x="564" 
d="M518 91l-21 13q-13 12 -13 25v303q-2 16 -33 48q-30 32 -45 32q-21 0 -62 -34q-42 -33 -50 -53l22 -25q21 -29 21 -45v-234q-21 -18 -46.5 -29t-46.5 -11q-17 0 -42 16q-26 17 -26 32l-1 300q0 14 -28 48q-27 34 -40 34q-17 -2 -68 -36q-50 -35 -54 -48l22 -23
q23 -23 23 -35v-262q0 -30 49 -69q50 -38 80 -38q23 0 67 25q27 16 53.5 35t52.5 42l27 -53q16 -32 32 -48q11 3 71 48zM309 543l-150 39q-149 39 -149 57l-6 -18q-6 -26 -6 -40z" />
    <glyph glyph-name="uacute" unicode="&#xfa;" horiz-adv-x="564" 
d="M518 91l-21 13q-13 12 -13 25v303q-2 16 -33 48q-30 32 -45 32q-21 0 -62 -34q-42 -33 -50 -53l22 -25q21 -29 21 -45v-234q-21 -18 -46.5 -29t-46.5 -11q-17 0 -42 16q-26 17 -26 32l-1 300q0 14 -28 48q-27 34 -40 34q-17 -2 -68 -36q-50 -35 -54 -48l22 -23
q23 -23 23 -35v-262q0 -30 49 -69q50 -38 80 -38q23 0 67 25q27 16 53.5 35t52.5 42l27 -53q16 -32 32 -48q11 3 71 48zM314 572l-3 23q-2 11 -9 29q0 3 -1 4q-1 -21 -149 -57l-149 -37z" />
    <glyph glyph-name="ucircumflex" unicode="&#xfb;" horiz-adv-x="564" 
d="M518 91l-21 13q-13 12 -13 25v303q-2 16 -33 48q-30 32 -45 32q-21 0 -62 -34q-42 -33 -50 -53l22 -25q21 -29 21 -45v-234q-21 -18 -46.5 -29t-46.5 -11q-17 0 -42 16q-26 17 -26 32l-1 300q0 14 -28 48q-27 34 -40 34q-17 -2 -68 -36q-50 -35 -54 -48l22 -23
q23 -23 23 -35v-262q0 -30 49 -69q50 -38 80 -38q23 0 67 25q27 16 53.5 35t52.5 42l27 -53q16 -32 32 -48q11 3 71 48zM388 581q-2 6 -59 28l-58 23l-63 -44l-63 -46l44 22l54 31l48 -28q22 -13 34.5 -19.5t16.5 -8.5q7 0 19 9q27 19 27 33z" />
    <glyph glyph-name="udieresis" unicode="&#xfc;" horiz-adv-x="564" 
d="M518 91l-21 13q-13 12 -13 25v303q-2 16 -33 48q-30 32 -45 32q-21 0 -62 -34q-42 -33 -50 -53l22 -25q21 -29 21 -45v-234q-21 -18 -46.5 -29t-46.5 -11q-17 0 -42 16q-26 17 -26 32l-1 300q0 14 -28 48q-27 34 -40 34q-17 -2 -68 -36q-50 -35 -54 -48l22 -23
q23 -23 23 -35v-262q0 -30 49 -69q50 -38 80 -38q23 0 67 25q27 16 53.5 35t52.5 42l27 -53q16 -32 32 -48q11 3 71 48zM437 627l-5 6l-25 -9q-9 -4 -19 -4q-8 1 -16 7q-6 9 -6 24q0 10 -6 10q-14 0 -46 -25q-33 -26 -33 -37q0 -15 18 -37t33 -22q15 1 42 19q63 40 63 68z
M160 629l-4 4l-25 -10q-9 -4 -19 -4q-22 4 -22 32q0 10 -6 10q-15 0 -48 -24q-32 -24 -32 -38q0 -16 18 -38q19 -21 34 -21q22 0 63 33q41 35 41 56z" />
    <glyph glyph-name="yacute" unicode="&#xfd;" horiz-adv-x="599" 
d="M541 409q0 65 -53 109q-47 38 -99 38q-54 0 -122 -61q-10 -8 -24.5 -23t-34.5 -38q28 23 63 23q52 0 96 -53q43 -52 43 -106q0 -43 -25 -90q-25 -51 -61 -71l-148 287l-19 47q-18 34 -33 34q-19 0 -67 -39q-47 -38 -59 -59l17 -19q21 -27 42 -69l149 -299
q-17 -20 -30 -36.5t-24 -27.5q-42 -46 -60 -61q18 5 26 5q25 5 33 5q20 0 61 -11l93 -26q17 3 70 49l57 49q-19 3 -73 21q-47 15 -79 15q-42 0 -57 -4l-7 -2l208 201q117 114 117 212zM497 601l-3 23q-2 11 -9 29q0 3 -1 4q-1 -21 -149 -57l-149 -37z" />
    <glyph glyph-name="thorn" unicode="&#xfe;" horiz-adv-x="493" 
d="M444 349q0 99 -33 140q-25 31 -59 28l-25 -2q-13 -1 -70 -63l-63 -69v245l-3 28q-4 13 -10 13q-44 0 -123 -61l-77 -60q9 1 42 20l37 20v-794l134 63v154q4 1 65 62q77 77 121 137q64 86 64 139zM331 262q0 -71 -64 -150q-49 -60 -73 -71v306l31 36q31 36 38 36
q20 0 41 -36q27 -47 27 -121z" />
    <glyph glyph-name="ydieresis" unicode="&#xff;" horiz-adv-x="599" 
d="M541 409q0 65 -53 109q-47 38 -99 38q-54 0 -122 -61q-10 -8 -24.5 -23t-34.5 -38q28 23 63 23q52 0 96 -53q43 -52 43 -106q0 -43 -25 -90q-25 -51 -61 -71l-148 287l-19 47q-18 34 -33 34q-19 0 -67 -39q-47 -38 -59 -59l17 -19q21 -27 42 -69l149 -299
q-17 -20 -30 -36.5t-24 -27.5q-42 -46 -60 -61q18 5 26 5q25 5 33 5q20 0 61 -11l93 -26q17 3 70 49l57 49q-19 3 -73 21q-47 15 -79 15q-42 0 -57 -4l-7 -2l208 201q117 114 117 212zM478 656l-5 6l-25 -9q-9 -4 -19 -4q-8 1 -16 7q-6 9 -6 24q0 10 -6 10q-14 0 -46 -25
q-33 -26 -33 -37q0 -15 18 -37t33 -22q15 1 42 19q63 40 63 68zM201 658l-4 4l-25 -10q-9 -4 -19 -4q-22 4 -22 32q0 10 -6 10q-15 0 -48 -24q-32 -24 -32 -38q0 -16 18 -38q19 -21 34 -21q22 0 63 33q41 35 41 56z" />
    <glyph glyph-name="OE" unicode="&#x152;" horiz-adv-x="1069" 
d="M1063 116l-32 -21q-32 -21 -62 -21q-25 0 -131 38t-147 38l-18 -3l-19 -6q76 82 98 207l132 -51q81 37 126 93l-140 60l-91 -76l-28 -10v237l33 4l59 -18q61 -20 81 -21l52 34q54 35 63 50q-9 9 -83 33q-69 22 -92 25q-25 -7 -98 -49q-32 -19 -56.5 -33.5t-41.5 -25.5
q-93 116 -189 116q-44 0 -91 -40q-33 -29 -54 -36l-24 73q-148 -64 -218 -136q-91 -92 -91 -231q0 -144 98 -250q98 -104 242 -104q56 0 137 29q14 5 46.5 19.5t84.5 37.5q53 0 141 -46q88 -45 107 -45q41 0 112 47q31 20 54 41t40 41zM554 520l-219 -134v232q0 18 26 18
q29 0 87 -31q69 -36 106 -85zM584 473l-297 -184q36 39 48 81l229 138zM631 264q0 -84 -36 -139q-43 -67 -121 -67q-69 0 -164 56q-86 51 -117 95l396 249q19 -33 31 -87q11 -50 11 -107zM206 309q0 -7 -0.5 -13t-1.5 -11q-4 -17 -9.5 -34t-13.5 -33q-77 59 -77 191
q0 109 28.5 168.5t73.5 59.5v-328z" />
    <glyph glyph-name="oe" unicode="&#x153;" horiz-adv-x="831" 
d="M815 386q-80 114 -118 114q-20 0 -107 -45q-42 -22 -66 -35.5t-32 -20.5q0 37 -60 70q-53 29 -94 29q-25 0 -54 -7q-26 -5 -55 -20l-136 -70q-42 -22 -64 -73q-19 -44 -19 -97q0 -100 52 -168q58 -76 153 -76q71 0 160 65q16 11 34 27.5t39 37.5q37 -52 95 -92
q53 -35 70 -35q13 1 37 15l115 67l-15 -2q-40 0 -101 51q-52 43 -79 85zM681 307l-118 -90q-27 40 -27 92q0 29 8 55.5t23 52.5l52 -40q52 -41 62 -70zM411 189q0 -134 -78 -134q-64 0 -125 59q-69 67 -69 160q0 42 15 93q20 68 52 68q59 0 124 -60q81 -75 81 -186z" />
    <glyph glyph-name="Scaron" unicode="&#x160;" horiz-adv-x="710" 
d="M684 300q0 81 -74 134q-60 42 -150 55l-39 -27l-44 -30l13 155l46 -6l37 -2q35 -2 94 40q25 17 45 34.5t34 34.5q-17 -14 -24 -15q-23 -14 -51 -14q-57 0 -146 34l-87 33q-77 -25 -159 -110q-94 -97 -94 -180q0 -52 38 -96q36 -42 91 -56q18 8 47 42l28 33l-19 -188
q-34 22 -81 22q-54 0 -109 -46q-45 -37 -78 -91q13 16 41 29q30 14 46 14q36 0 137 -48q102 -48 129 -48q42 0 118 46q39 23 72.5 50t62.5 56q76 79 76 145zM313 599l-24 -201q-45 23 -68 71q-22 44 -22 97q0 68 34 68q6 0 44 -18zM570 205q0 -47 -22 -78q-26 -36 -69 -36
q-21 0 -67 17q-41 15 -64 29l25 264q56 0 123 -56q74 -63 74 -140zM372 590l-41 -445l-28 11l-16 7l42 432zM486 859l-49 -23l-49 -29l-47 28l-52 28l-29 -24q-12 -10 -17 -19q1 -5 59 -28l58 -22l63 43q17 11 29 20t19 14q10 7 15 12z" />
    <glyph glyph-name="scaron" unicode="&#x161;" horiz-adv-x="583" 
d="M525 229q0 38 -66 85q-61 43 -103 43q-20 -1 -88 -53l-69 -52q-68 29 -68 129q0 42 29 42q15 -1 55 -20q47 -22 73 -33t31 -13l55 36q58 37 66 51q-17 10 -31 18t-25 14q-65 35 -98 35q-57 0 -166 -68q-122 -77 -122 -154q0 -34 22 -81q25 -54 55 -54q24 0 89 54
q64 54 77 54q38 0 95 -51q58 -49 58 -87q0 -19 -17 -31.5t-40 -12.5q-50 0 -119 42l-67 41q-14 -7 -35 -19t-47 -31l-58 -41q103 -73 170 -73q69 0 203 82q141 88 141 148zM412 636l-49 -23l-49 -29l-47 28l-52 28l-29 -24q-12 -10 -17 -19q1 -5 59 -28l58 -22l63 43
q17 11 29 20t19 14q10 7 15 12z" />
    <glyph glyph-name="Ydieresis" unicode="&#x178;" horiz-adv-x="696" 
d="M708 720q-51 -21 -127 -21q-36 0 -75.5 5t-84.5 15q-9 2 -16.5 3.5t-12.5 3.5q-18 0 -53 -26.5t-86 -77.5v36l-61 31q-59 30 -70 30q-21 0 -73 -49l-50 -48l18 2q30 0 65 -23q31 -21 31 -29v-391q0 -25 -36 -59q-17 -17 -35 -30l56 -7q57 -7 89 -27q-14 -8 -44 -31
t-78 -61q-86 -71 -106 -91l33 2l38 5q51 0 147 -39l94 -38q167 73 283 170q100 82 100 119q0 30 -37 150q-36 123 -36 212q0 120 36 183q30 53 91 81zM548 617q-61 -55 -73 -127l-227 -156v271q17 23 42 23l45 -8l39 -3h174zM470 470l-8 -56l-240 -170q24 36 24 68zM486 130
q-10 -11 -17 -17t-12 -8.5t-10.5 -3t-12.5 -0.5l-141 53q-35 13 -65 21t-56 10l291 209l-3 -15q-5 -28 -5 -60q0 -81 31 -189zM518 1q0 -28 -51 -65q-46 -34 -67 -34l-147 48q-38 13 -66.5 18.5t-46.5 4.5l-17 -1l-31 -5q8 11 23 25t37 30l45 34l49 -20q45 -19 65 -19
q23 0 101 51l78 51q13 -22 14 -35q14 -36 14 -83zM613 852l-5 6l-25 -9q-9 -4 -19 -4q-8 1 -16 7q-6 9 -6 24q0 9 -6 9q-13 0 -46 -24t-33 -36q0 -16 18 -37t33 -21q22 0 63 32q42 31 42 53zM337 854l-4 4l-25 -10q-9 -4 -19 -4q-22 4 -22 32q0 9 -6 9q-14 0 -47 -24
t-33 -36q1 -16 13 -32q20 -26 39 -26q22 0 63 32q41 33 41 55z" />
    <glyph glyph-name="florin" unicode="&#x192;" horiz-adv-x="485" 
d="M539 591q-11 19 -21.5 35t-21.5 30q-35 45 -47 45q-17 0 -47 -15l-63 -31l-80 -44q-51 -28 -68 -55q-11 -17 -20.5 -46t-16.5 -71l-6 -36l-48 -30q-22 -14 -34.5 -22.5t-14.5 -11.5l32 4h55l-65 -485q-17 10 -33 33q-32 44 -54 56q-11 -4 -30 -13t-45 -25l-54 -32l44 -66
q27 -41 46 -41q38 5 110 45l106 59q60 34 76 153l45 321l21 4l35 -4q22 0 63 33q35 29 51 53h-156l24 177l53 -59q22 -23 36 -31z" />
    <glyph glyph-name="circumflex" unicode="&#x2c6;" horiz-adv-x="246" 
d="M243 593q-2 6 -59 28l-58 23l-63 -44l-63 -46l44 22l54 31l48 -28q22 -13 34.5 -19.5t16.5 -8.5q7 0 19 9q27 19 27 33z" />
    <glyph glyph-name="tilde" unicode="&#x2dc;" horiz-adv-x="448" 
d="M359 624l-26 -13q-25 -13 -42 -13q-30 0 -85 24q-56 24 -82 24q-33 0 -74 -38l-40 -37l26 13q24 12 42 12q28 0 84 -24q57 -23 84 -23q32 0 73 38z" />
    <glyph glyph-name="endash" unicode="&#x2013;" horiz-adv-x="549" 
d="M489 422q-7 -5 -13 -5q-17 -5 -42 -5h-334q-31 0 -68 -49q-32 -43 -32 -64q10 5 18 5q11 2 25 3.5t31 1.5h314q29 0 67 48q34 43 34 65z" />
    <glyph glyph-name="emdash" unicode="&#x2014;" horiz-adv-x="761" 
d="M698 424q-12 -5 -19 -5q-25 -5 -59 -5h-506q-45 0 -83 -50q-30 -41 -30 -65q15 5 26 5q15 2 34.5 3.5t44.5 1.5h498q24 0 59 44t35 71z" />
    <glyph glyph-name="quoteleft" unicode="&#x2018;" horiz-adv-x="245" 
d="M224 482q-20 24 -49 44l-26 18q-4 9 -4 24v41q0 48 6 81l6 33l-9 -5q-8 -11 -24.5 -42t-39.5 -84q-45 -101 -54 -135q0 -8 21 -27q41 -41 56 -39q16 2 61 38q38 32 56 53z" />
    <glyph glyph-name="quoteright" unicode="&#x2019;" horiz-adv-x="245" 
d="M215 646q0 7 -21 27q-41 39 -56 39t-58 -36q-19 -16 -33.5 -29.5t-25.5 -25.5q20 -24 49 -44l26 -18l3 -25l1 -40q1 -42 -6 -81l-6 -33l9 5q10 14 26 45.5t38 80.5q43 97 54 135z" />
    <glyph glyph-name="quotesinglbase" unicode="&#x201a;" horiz-adv-x="245" 
d="M216 107q0 7 -21 27q-41 39 -56 39t-58 -36q-19 -16 -33.5 -29.5t-25.5 -25.5q20 -24 49 -44l26 -18l3 -23l1 -41q1 -42 -6 -81l-6 -33l9 5q19 25 64 127q44 98 54 133z" />
    <glyph glyph-name="quotedblleft" unicode="&#x201c;" horiz-adv-x="458" 
d="M434 461q-20 24 -49 44l-26 18q-4 9 -4 24v41q0 48 6 81l6 33l-9 -5q-8 -11 -24.5 -42t-39.5 -84q-45 -101 -54 -135q0 -8 21 -27q41 -41 56 -39q16 2 61 38q38 32 56 53zM216 462q-20 24 -49 44l-26 18q-4 9 -4 24v41q0 48 6 81l6 33l-9 -5q-8 -11 -24.5 -42t-39.5 -84
q-45 -101 -54 -135q0 -8 21 -27q41 -41 56 -39q16 2 61 38q38 32 56 53z" />
    <glyph glyph-name="quotedblright" unicode="&#x201d;" horiz-adv-x="458" 
d="M437 648q0 7 -21 27q-41 39 -56 39t-58 -36q-19 -16 -33.5 -29.5t-25.5 -25.5q20 -24 49 -44l26 -18l3 -25l1 -40q1 -42 -6 -81l-6 -33l9 5q10 14 26 45.5t38 80.5q43 97 54 135zM221 648q0 7 -21 27q-41 39 -56 39t-58 -36q-19 -16 -33.5 -29.5t-25.5 -25.5
q20 -24 49 -44l26 -18l3 -25l1 -40q1 -42 -6 -81l-6 -33l9 5q10 14 26 45.5t38 80.5q43 97 54 135z" />
    <glyph glyph-name="quotedblbase" unicode="&#x201e;" horiz-adv-x="458" 
d="M433 106q0 7 -21 27q-41 39 -56 39t-58 -36q-19 -16 -33.5 -29.5t-25.5 -25.5q20 -24 49 -44l26 -18l3 -23l1 -41q1 -42 -6 -81l-6 -33l9 5q19 25 64 127q44 98 54 133zM216 107q0 7 -21 27q-41 39 -56 39t-58 -36q-19 -16 -33.5 -29.5t-25.5 -25.5q20 -24 49 -44l26 -18
l3 -23l1 -41q1 -42 -6 -81l-6 -33l9 5q19 25 64 127q44 98 54 133z" />
    <glyph glyph-name="dagger" unicode="&#x2020;" horiz-adv-x="555" 
d="M520 512q-5 -4 -14 -5l-187 -1l4 215l-24.5 -17.5t-17.5 -13.5q-41 -39 -41 -70v-114h-110q-24 0 -62 -28q-38 -27 -38 -48q18 7 48 7h162v-439q24 16 36 30q33 33 35 63l7 346h101q29 0 67 32q34 28 34 43z" />
    <glyph glyph-name="daggerdbl" unicode="&#x2021;" horiz-adv-x="555" 
d="M520 362q-5 -4 -14 -5l-190 -1l2 81h101q29 0 67 32q34 28 34 43q-5 -4 -14 -5l-187 -1l4 215l-24.5 -17.5t-17.5 -13.5q-41 -39 -41 -70v-114h-110q-24 0 -62 -28q-38 -27 -38 -48q18 7 48 7h162v-81h-110q-24 0 -62 -28q-38 -27 -38 -48q18 7 48 7h162v-289
q24 16 36 30q33 33 35 63l4 196h104q29 0 67 32q34 28 34 43z" />
    <glyph glyph-name="bullet" unicode="&#x2022;" horiz-adv-x="414" 
d="M309 360q0 34 -11.5 63t-32.5 49.5t-50 32t-63 11.5q-67 0 -110 -45q-42 -44 -42 -111q0 -35 11.5 -63.5t31.5 -49t48.5 -32t62.5 -11.5t63 11.5t49 32t31.5 49t11.5 63.5z" />
    <glyph glyph-name="ellipsis" unicode="&#x2026;" horiz-adv-x="815" 
d="M782 48v129q-23 -6 -42.5 -12.5t-35.5 -13.5q-39 -18 -69 -39v-130q67 10 147 66zM482 48v129q-23 -6 -42.5 -12.5t-35.5 -13.5q-39 -18 -69 -39v-130q67 10 147 66zM182 48v129q-23 -6 -42.5 -12.5t-35.5 -13.5q-39 -18 -69 -39v-130q67 10 147 66z" />
    <glyph glyph-name="perthousand" unicode="&#x2030;" horiz-adv-x="1410" 
d="M1362 202q0 72 -45 125q-48 55 -119 55q-19 0 -38 -6l-33 -10l-113 -56q-72 -36 -72 -140q0 -69 41 -124q45 -58 113 -58q48 0 83 21l114 73q27 16 48 53q21 36 21 67zM912 202q0 72 -45 125q-48 55 -119 55q-19 0 -38 -6l-33 -10l-113 -56q-72 -36 -72 -140
q0 -69 41 -124q45 -58 113 -58q48 0 83 21l114 73q27 16 48 53q21 36 21 67zM732 644l-6 39l-6 25q-39 -44 -99 -117l-80 -99q-325 -403 -325 -466q0 -16 6 -31l5 -13q72 106 141 200t136 177q30 37 72 87l100 117q56 67 56 81zM454 532q0 72 -45 125q-48 55 -119 55
q-19 0 -38 -6l-33 -10l-113 -56q-72 -36 -72 -140q0 -69 41 -124q45 -59 113 -59l44 4q19 6 39 18l114 73q27 16 48 53q21 36 21 67zM1253 140q0 -101 -55 -101q-49 0 -95 42q-58 52 -58 134q0 61 19 93q15 27 32 27q48 0 95 -43q62 -56 62 -152zM803 140q0 -101 -55 -101
q-49 0 -95 42q-58 52 -58 134q0 61 19 93q15 27 32 27q48 0 95 -43q62 -56 62 -152zM345 470q0 -101 -55 -101q-49 0 -95 42q-58 52 -58 134q0 61 19 93q15 27 32 27q48 0 95 -43q62 -56 62 -152z" />
    <glyph glyph-name="guilsinglleft" unicode="&#x2039;" horiz-adv-x="402" 
d="M380 -17q-3 14 -61 63l-110 97q-63 56 -70 69l241 312l-136 74l-146 -192q-25 -32 -43.5 -61t-32.5 -55q7 -9 88 -86q208 -195 270 -221z" />
    <glyph glyph-name="guilsinglright" unicode="&#x203a;" horiz-adv-x="402" 
d="M380 290q-17 29 -36 58.5t-41 58.5l-97 130l-48 61l-136 -74l241 -312q-11 -18 -71 -70l-110 -97q-58 -49 -60 -62q66 29 271 222q78 73 87 85z" />
    <glyph glyph-name="trademark" unicode="&#x2122;" horiz-adv-x="725" 
d="M665 443v278h-32l-146 -247l-147 247h-31v-278h31v226l135 -226h25l134 226v-226h31zM257 690v31h-257v-31h113v-247h31v247h113z" />
    <glyph glyph-name="longs" unicode="&#xe000;" horiz-adv-x="432" 
d="M198 96v535l44 -41q43 -41 57 -48l118 70q-18 28 -54 66q-40 43 -54 43l-27 -10l-173 -96q-38 -22 -49 -78q-2 -12 -3.5 -36t-1.5 -61v-17q-16 -5 -46 -28q-32 -23 -42 -36q3 1 7.5 1.5t10.5 2.5h24l42 1v-362q21 0 54 15q34 15 45 15l22 -4q12 -4 23 -4q15 0 26 7
q-23 23 -23 65z" />
    <glyph glyph-name="minus" unicode="&#xe001;" horiz-adv-x="549" 
d="M510 327q-13 -7 -36 -7h-322q-28 0 -63 -35q-29 -31 -29 -45l17 4q15 4 28 4h312q25 0 59 32q34 33 34 47z" />
    <glyph glyph-name="radical" unicode="&#xe002;" horiz-adv-x="589" 
d="M484 64q1 25 -21 65q-14 25 -27.5 46.5t-27.5 40.5l-396 506l-6 -25q-6 -26 -6 -55q0 -61 128 -216l352 -426l3 30z" />
    </font>
</defs>
</svg>
