<?xml version="1.0" standalone="no"?>
<!DOCTYPE svg PUBLIC "-//W3C//DTD SVG 1.1//EN" "http://www.w3.org/Graphics/SVG/1.1/DTD/svg11.dtd" >
<svg xmlns="http://www.w3.org/2000/svg" xmlns:xlink="http://www.w3.org/1999/xlink" version="1.1">
<metadata>
Created by FontForge 20170731 at Fri Jun 28 15:17:46 2013
 By Aleksey,,,
Instruction (c) (Neale Davidson). 2012. All Rights Reserved
</metadata>
<defs>
<font id="Instruction-BoldItalic" horiz-adv-x="1200" >
  <font-face 
    font-family="Instruction"
    font-weight="400"
    font-style="italic"
    font-stretch="normal"
    units-per-em="2048"
    panose-1="2 0 5 0 0 0 0 0 0 0"
    ascent="1638"
    descent="-410"
    x-height="1520"
    cap-height="1520"
    bbox="-58 -420 1643 2320"
    underline-thickness="150"
    underline-position="-442"
    unicode-range="U+0020-F002"
  />
<missing-glyph horiz-adv-x="1650" 
d="M0 200v1100q0 200 200 200h1100q200 0 200 -200v-1100q0 -200 -200 -200h-1100q-200 0 -200 200zM1475 201v1099q0 175 -175 175h-1100q-174 0 -175 -175v-1100q1 -175 175 -175h1101q174 0 174 176z" />
    <glyph glyph-name=".notdef" horiz-adv-x="1650" 
d="M0 200v1100q0 200 200 200h1100q200 0 200 -200v-1100q0 -200 -200 -200h-1100q-200 0 -200 200zM1475 201v1099q0 175 -175 175h-1100q-174 0 -175 -175v-1100q1 -175 175 -175h1101q174 0 174 176z" />
    <glyph glyph-name=".null" horiz-adv-x="0" 
 />
    <glyph glyph-name="nonmarkingreturn" horiz-adv-x="508" 
 />
    <glyph glyph-name="space" unicode=" " 
 />
    <glyph glyph-name="space" unicode="&#xa0;" 
 />
    <glyph glyph-name="exclam" unicode="!" 
d="M456 396q-12 -47 -56 -81.5t-95 -34.5q-56 0 -83 40q-19 23 -19 54q0 14 5 30l268 1000q12 47 56 81.5t95 34.5q55 0 85 -39q17 -25 17 -55q0 -14 -5 -30zM364 181q17 -25 17 -55q0 -14 -5 -30q-12 -47 -56 -81.5t-95 -34.5q-56 0 -83 40q-19 23 -19 54q0 14 5 30
q12 47 56 81.5t95 34.5q55 0 85 -39z" />
    <glyph glyph-name="quotedbl" unicode="&#x22;" 
d="M476 1404q12 47 56 81.5t95 34.5q55 0 85 -39q17 -25 17 -55q0 -14 -5 -30l-80 -300q-12 -47 -56 -81.5t-95 -34.5q-56 0 -83 40q-19 23 -19 54q0 14 5 30zM876 1404q12 47 56 81.5t95 34.5q55 0 85 -39q17 -25 17 -55q0 -14 -5 -30l-80 -300q-12 -47 -56 -81.5
t-95 -34.5q-56 0 -83 40q-19 23 -19 54q0 14 5 30z" />
    <glyph glyph-name="numbersign" unicode="#" 
d="M366 620l69 260h-69q-56 0 -83 40q-19 23 -19 54q0 14 5 30q12 47 56 81.5t95 34.5h80l49 184q12 47 56 81.5t95 34.5q55 0 85 -39q17 -25 17 -55q0 -14 -5 -30l-46 -176h149l49 184q12 47 56 81.5t95 34.5q55 0 85 -39q17 -25 17 -55q0 -14 -5 -30l-46 -176h69
q55 0 85 -39q17 -25 17 -55q0 -14 -5 -30q-12 -47 -56 -81.5t-95 -34.5h-80l-69 -260h69q55 0 85 -39q17 -25 17 -55q0 -14 -5 -30q-12 -47 -56 -81.5t-95 -34.5h-80l-49 -184q-12 -47 -56 -81.5t-95 -34.5q-56 0 -83 40q-19 23 -19 54q0 14 5 30l46 176h-149l-49 -184
q-12 -47 -56 -81.5t-95 -34.5q-56 0 -83 40q-19 23 -19 54q0 14 5 30l46 176h-69q-56 0 -83 40q-19 23 -19 54q0 14 5 30q12 47 56 81.5t95 34.5h80zM835 880h-149l-69 -260h149z" />
    <glyph glyph-name="dollar" unicode="$" 
d="M1018 1370h44q149 0 227 -105q48 -68 48 -153q0 -43 -13 -91q-12 -47 -56 -81.5t-95 -34.5q-56 0 -83 40q-19 23 -19 54q0 14 5 30q4 16 4 30q0 25 -15 45q-19 26 -57 26h-55l-69 -260h44q149 0 227 -105q48 -68 48 -153q0 -43 -13 -91l-24 -91h-2q-37 -109 -151 -199
q-128 -101 -273 -101h-55l-9 -34q-12 -47 -56 -81.5t-95 -34.5q-56 0 -83 40q-19 23 -19 54q0 14 5 30l6 26h-44q-149 0 -226 105q-49 68 -49 153q0 43 13 91q12 47 56 81.5t95 34.5q55 0 85 -39q17 -25 17 -55q0 -14 -5 -30q-4 -16 -4 -30q0 -25 15 -44q19 -27 57 -27h55
l69 260h-44q-149 0 -226 105q-49 68 -49 153q0 43 13 91l14 50q37 141 164 241t272 100h55l9 34q12 47 56 81.5t95 34.5q55 0 85 -39q17 -25 17 -55q0 -14 -5 -30zM750 370h44q42 0 82 31q30 24 51 69h-1l16 59q4 16 4 30q0 25 -15 45q-19 26 -57 26h-55zM702 1130h-44
q-42 0 -81.5 -31.5t-52.5 -77.5l-14 -50q-4 -16 -4 -30q0 -25 15 -44q19 -27 57 -27h55z" />
    <glyph glyph-name="percent" unicode="%" 
d="M862 351.5q40 31.5 53 77.5q4 16 4 30q0 25 -15 45q-19 26 -57 26q-42 0 -81.5 -31.5t-52.5 -77.5q-4 -16 -4 -30q0 -25 15 -44q18 -27 56 -27q42 0 82 31.5zM686.5 1001.5q39.5 31.5 52.5 77.5q4 16 4 30q0 26 -14 45q-19 26 -57 26q-42 0 -82 -31.5t-53 -77.5
q-4 -16 -4 -30q0 -25 15 -44q19 -27 57 -27q42 0 81.5 31.5zM900 775q-15 -2 -15 -4q0 -1 16 -1q149 0 227 -105q48 -68 48 -153q0 -43 -13 -91q-37 -141 -164 -241t-272 -100q-149 0 -227 105q-47 65 -47 84l-160 -180q-32 -42 -74.5 -75.5t-93.5 -33.5q-56 0 -83 40
q-19 23 -19 54q0 14 5 30q12 45 71 108l453 513q15 2 15 4q0 1 -16 1q-149 0 -226 105q-49 68 -49 153q0 43 13 91q37 141 164 241t272 100q149 0 227 -105q47 -65 47 -84l160 180q32 42 74.5 75.5t93.5 33.5q55 0 85 -39q17 -25 17 -55q0 -14 -5 -30q-12 -45 -71 -108z" />
    <glyph glyph-name="ampersand" unicode="&#x26;" 
d="M838 931q77 61 101 148q8 30 8 56q0 50 -29 89q-41 56 -120 56q-83 0 -160 -61t-101 -148q-8 -30 -8 -56q0 -50 30 -89q40 -56 119 -56q83 0 160 61zM1089 870h64q55 0 85 -39q17 -25 17 -55q0 -14 -5 -30q-12 -47 -56 -81.5t-95 -34.5h-130l-109 -410h119q55 0 85 -39
q17 -25 17 -55q0 -14 -5 -30q-12 -47 -56 -81.5t-95 -34.5h-475q-190 0 -289 135q-63 87 -63 196q0 56 17 118q48 182 213 311q15 13 16 13l-8 13q-64 86 -64 196q0 55 17 117q48 182 212.5 311.5t350.5 129.5q190 0 289 -134q63 -88 63 -197q0 -56 -17 -118
q-35 -130 -98 -201zM529 220h80l109 410h-93q-84 0 -161 -61t-101 -148q-8 -30 -8 -56q0 -50 30 -89q40 -56 144 -56z" />
    <glyph glyph-name="quotesingle" unicode="'" 
d="M476 1404q12 47 56 81.5t95 34.5q55 0 85 -39q17 -25 17 -55q0 -14 -5 -30l-80 -300q-12 -47 -56 -81.5t-95 -34.5q-56 0 -83 40q-19 23 -19 54q0 14 5 30z" />
    <glyph glyph-name="parenleft" unicode="(" 
d="M1081 1720h150q55 0 85 -39q17 -25 17 -55q0 -14 -5 -30q-12 -47 -56 -81.5t-95 -34.5h-150q-109 0 -251.5 -213t-225.5 -521q-61 -228 -61 -407q0 -62 8 -117q26 -202 128 -202h150q55 0 85 -39q17 -25 17 -55q0 -14 -5 -30q-12 -47 -56 -81.5t-95 -34.5h-150
q-227 0 -303 293q-30 115 -30 249q0 195 64 432q106 397 332 681.5t447 284.5z" />
    <glyph glyph-name="parenright" unicode=")" 
d="M1134 1427q30 -115 30 -249q0 -195 -64 -432q-106 -397 -332 -681.5t-447 -284.5h-150q-56 0 -83 40q-19 23 -19 54q0 14 5 30q12 47 56 81.5t95 34.5h150q109 0 251.5 213t225.5 521q61 228 61 407q0 62 -8 118q-26 201 -128 201h-150q-56 0 -83 40q-19 23 -19 54
q0 14 5 30q12 47 56 81.5t95 34.5h150q227 0 303 -293z" />
    <glyph glyph-name="asterisk" unicode="*" 
d="M752 890l-102 -103q-39 -40 -90 -47q-10 -3 -23 -3q-42 0 -70 25q-30 28 -30 67q0 7 1 14q0 10 2 20q10 36 40 65l111 111l-113 41q-49 16 -58 65q-3 12 -3 26q0 13 3 27q5 17 15 34q27 45 77 67q30 14 60 14q20 0 39 -7l114 -40l37 138q12 47 56 81.5t95 34.5
q55 0 85 -39q17 -25 17 -55q0 -14 -5 -30l-33 -127l125 38q20 6 40 6q32 0 58 -15q41 -25 45 -73v-7q0 -14 -4 -29q-6 -26 -26 -51q-35 -45 -85 -59l-145 -44l52 -113q8 -19 8 -39q0 -14 -4 -29q-2 -7 -5 -18q-21 -47 -67 -75q-39 -24 -78 -24q-13 0 -23 3q-52 8 -72 53z
" />
    <glyph glyph-name="plus" unicode="+" 
d="M568 630h-269q-56 0 -83 40q-19 23 -19 54q0 14 5 30q12 47 56 81.5t95 34.5h280l90 334q12 47 55.5 81.5t94.5 34.5q55 0 84 -39q19 -25 19 -55q0 -14 -5 -30l-87 -326h269q55 0 85 -39q17 -25 17 -55q0 -14 -5 -30q-12 -47 -56 -81.5t-95 -34.5h-280l-90 -334
q-12 -47 -55.5 -81.5t-94.5 -34.5q-55 0 -84 40q-19 23 -19 54q0 14 5 30z" />
    <glyph glyph-name="comma" unicode="," 
d="M128 104q12 47 56 81.5t95 34.5q55 0 85 -39q17 -25 17 -55q0 -14 -5 -30l-81 -300q-12 -47 -55.5 -81.5t-94.5 -34.5q-55 0 -84 40q-19 23 -19 54q0 14 5 30z" />
    <glyph glyph-name="hyphen" unicode="-" 
d="M299 630q-56 0 -83 40q-19 23 -19 54q0 14 5 30q12 47 56 81.5t95 34.5h800q55 0 85 -39q17 -25 17 -55q0 -14 -5 -30q-12 -47 -56 -81.5t-95 -34.5h-800z" />
    <glyph glyph-name="hyphen" unicode="&#xad;" 
d="M299 630q-56 0 -83 40q-19 23 -19 54q0 14 5 30q12 47 56 81.5t95 34.5h800q55 0 85 -39q17 -25 17 -55q0 -14 -5 -30q-12 -47 -56 -81.5t-95 -34.5h-800z" />
    <glyph glyph-name="period" unicode="." 
d="M364 181q17 -25 17 -55q0 -14 -5 -30q-12 -47 -56 -81.5t-95 -34.5q-56 0 -83 40q-19 23 -19 54q0 14 5 30q12 47 56 81.5t95 34.5q55 0 85 -39z" />
    <glyph glyph-name="slash" unicode="/" 
d="M293 89q-32 -42 -74.5 -75.5t-93.5 -33.5q-56 0 -83 40q-19 23 -19 54q0 14 5 30q12 45 71 108l1060 1199q32 42 74.5 75.5t93.5 33.5q55 0 85 -39q17 -25 17 -55q0 -14 -5 -30q-12 -45 -71 -108z" />
    <glyph glyph-name="zero" unicode="0" 
d="M397 549l610 689q-43 42 -134 42q-114 0 -219 -83t-137 -201zM1055 951l-610 -689q43 -42 134 -42q114 0 219 83t137 201zM1320 1250q17 -49 17 -116q0 -65 -20 -138l-134 -500q-56 -213 -248.5 -364.5t-409.5 -151.5q-172 0 -258 76q-12 -14 -46 -40q-45 -36 -96 -36
q-56 0 -83 40q-19 23 -19 54q0 14 5 30q12 45 71 108l33 38q-17 51 -17 116q0 66 20 138l134 500q56 213 248.5 364.5t409.5 151.5q172 0 258 -76q12 14 47 41q44 35 95 35q55 0 85 -39q17 -25 17 -55q0 -14 -5 -30q-12 -45 -71 -108z" />
    <glyph glyph-name="one" unicode="1" 
d="M459 220l283 1060h-269q-56 0 -83 40q-19 23 -19 54q0 14 5 30q12 47 56 81.5t95 34.5h400q55 0 85 -39q17 -25 17 -55q0 -14 -5 -30l-314 -1176h269q55 0 85 -39q17 -25 17 -55q0 -14 -5 -30q-12 -47 -56 -81.5t-95 -34.5h-800q-56 0 -83 40q-19 23 -19 54q0 14 5 30
q12 47 56 81.5t95 34.5h280z" />
    <glyph glyph-name="two" unicode="2" 
d="M115 429q48 182 212.5 311.5t350.5 129.5h150q83 0 160 61t101 148q8 30 8 56q0 50 -29 89q-41 56 -120 56h-150q-83 0 -160 -61t-101 -148q-12 -47 -56 -81.5t-95 -34.5q-56 0 -83 40q-19 23 -19 54q0 14 5 30q48 182 212.5 311.5t350.5 129.5h150q190 0 289 -134
q63 -88 63 -197q0 -56 -17 -118q-48 -182 -212.5 -311.5t-350.5 -129.5h-150q-83 0 -160 -61t-101 -148l-53 -201h669q55 0 85 -39q17 -25 17 -55q0 -14 -5 -30q-12 -47 -56 -81.5t-95 -34.5h-800q-56 0 -83 40q-19 23 -19 54q0 14 5 30z" />
    <glyph glyph-name="three" unicode="3" 
d="M115 429q12 47 56 81.5t95 34.5q55 0 85 -39q17 -25 17 -55q0 -14 -5 -30q-8 -30 -8 -56q0 -50 30 -89q40 -56 119 -56h150q83 0 160 61t101 148q8 30 8 56q0 50 -29 89q-41 56 -120 56h-175q-56 0 -83 40q-19 23 -19 54q0 14 5 30q12 47 56 81.5t95 34.5h175
q83 0 160 61t101 148q8 30 8 56q0 50 -29 89q-41 56 -120 56h-150q-83 0 -160 -61t-101 -148q-12 -47 -56 -81.5t-95 -34.5q-56 0 -83 40q-19 23 -19 54q0 14 5 30q48 182 212.5 311.5t350.5 129.5h150q190 0 289 -134q63 -88 63 -197q0 -56 -17 -118q-48 -182 -211 -310
q-17 -14 -18 -14l9 -11q63 -87 63 -196q0 -57 -17 -119q-48 -182 -212.5 -311.5t-350.5 -129.5h-150q-190 0 -289 135q-63 87 -63 196q0 56 17 118z" />
    <glyph glyph-name="four" unicode="4" 
d="M1224 1396l-207 -776h69q55 0 85 -39q17 -25 17 -55q0 -14 -5 -30q-12 -47 -56 -81.5t-95 -34.5h-80l-76 -284q-12 -47 -56 -81.5t-95 -34.5q-56 0 -83 40q-19 23 -19 54q0 14 5 30l73 276h-469q-56 0 -83 40q-19 23 -19 54q0 14 5 30q12 47 54 80l17 20l767 821
q28 34 54 56q2 2 4 3q45 36 96 36q55 0 85 -39q17 -25 17 -54q0 -15 -5 -31zM523 620h243l98 365z" />
    <glyph glyph-name="five" unicode="5" 
d="M593 1280l-69 -260h344q190 0 289 -134q63 -88 63 -197q0 -56 -17 -119l-40 -149q-48 -182 -212.5 -311.5t-350.5 -129.5h-150q-190 0 -289 135q-63 87 -63 196q0 56 17 118q12 47 56 81.5t95 34.5q55 0 85 -39q17 -25 17 -55q0 -14 -5 -30q-8 -30 -8 -56q0 -50 30 -89
q40 -56 119 -56h150q83 0 160 61t101 148l40 151q8 29 8 56q0 49 -29 88q-41 56 -120 56h-475q-56 0 -83 40q-19 23 -19 54q0 14 5 30l134 500q12 47 56 81.5t95 34.5h800q55 0 85 -39q17 -25 17 -55q0 -14 -5 -30q-12 -47 -56 -81.5t-95 -34.5h-680z" />
    <glyph glyph-name="six" unicode="6" 
d="M828 870q190 0 289 -134q63 -88 63 -197q0 -56 -17 -118q-48 -182 -212.5 -311.5t-350.5 -129.5h-150q-190 0 -289 135q-63 87 -63 196q0 56 17 118l174 650q48 182 212.5 311.5t350.5 129.5h150q190 0 289 -134q63 -88 63 -197q0 -56 -17 -118q-12 -47 -56 -81.5
t-95 -34.5q-56 0 -83 40q-19 23 -19 54q0 14 5 30q8 30 8 56q0 50 -29 89q-41 56 -120 56h-150q-83 0 -160 -61t-101 -148l-64 -240q72 39 205 39h150zM624 630q-83 0 -160 -61t-101 -148q-8 -30 -8 -56q0 -50 30 -89q40 -56 119 -56h150q83 0 160 61t101 148q8 30 8 56
q0 50 -29 89q-41 56 -120 56h-150z" />
    <glyph glyph-name="seven" unicode="7" 
d="M681 870l362 410h-570q-56 0 -83 40q-19 23 -19 54q0 14 5 30q12 47 56 81.5t95 34.5h800q55 0 85 -39q17 -25 17 -55q0 -14 -5 -30q-12 -45 -71 -108l-369 -418h69q55 0 85 -39q17 -25 17 -55q0 -14 -5 -30q-12 -47 -56 -81.5t-95 -34.5h-228l-478 -541
q-32 -42 -74.5 -75.5t-93.5 -33.5q-56 0 -83 40q-19 23 -19 54q0 14 5 30q12 45 71 108l369 418h-69q-56 0 -83 40q-19 23 -19 54q0 14 5 30q12 47 56 81.5t95 34.5h228z" />
    <glyph glyph-name="eight" unicode="8" 
d="M624 630q-83 0 -160 -61t-101 -148q-8 -30 -8 -56q0 -50 30 -89q40 -56 119 -56h150q83 0 160 61t101 148q8 30 8 56q0 50 -29 89q-41 56 -120 56h-150zM1108 747l9 -11q63 -87 63 -196q0 -57 -17 -119q-48 -182 -212.5 -311.5t-350.5 -129.5h-150q-190 0 -289 135
q-63 87 -63 196q0 56 17 118q48 182 213 311q15 13 16 13l-8 13q-64 86 -64 196q0 55 17 117q48 182 212.5 311.5t350.5 129.5h150q190 0 289 -134q63 -88 63 -197q0 -56 -17 -118q-48 -182 -211 -310q-17 -14 -18 -14zM1089 1079q8 30 8 56q0 50 -29 89q-41 56 -120 56
h-150q-83 0 -160 -61t-101 -148q-8 -30 -8 -56q0 -50 30 -89q40 -56 119 -56h150q83 0 160 61t101 148z" />
    <glyph glyph-name="nine" unicode="9" 
d="M624 630q-190 0 -289 135q-63 87 -63 196q0 56 17 118q48 182 212.5 311.5t350.5 129.5h150q190 0 289 -134q63 -88 63 -197q0 -56 -17 -118l-174 -650q-48 -182 -212.5 -311.5t-350.5 -129.5h-150q-190 0 -289 135q-63 87 -63 196q0 56 17 118q12 47 56 81.5t95 34.5
q55 0 85 -39q17 -25 17 -55q0 -14 -5 -30q-8 -30 -8 -56q0 -50 30 -89q40 -56 119 -56h150q83 0 160 61t101 148l64 240q-72 -39 -205 -39h-150zM828 870q83 0 160 61t101 148q8 30 8 56q0 50 -29 89q-41 56 -120 56h-150q-83 0 -160 -61t-101 -148q-8 -30 -8 -56
q0 -50 30 -89q40 -56 119 -56h150z" />
    <glyph glyph-name="colon" unicode=":" 
d="M364 181q17 -25 17 -55q0 -14 -5 -30q-12 -47 -56 -81.5t-95 -34.5q-56 0 -83 40q-19 23 -19 54q0 14 5 30q12 47 56 81.5t95 34.5q55 0 85 -39zM523 781q19 -25 19 -55q0 -14 -5 -30q-12 -47 -56 -81.5t-95 -34.5q-56 0 -83 40q-19 23 -19 54q0 14 5 30q12 47 55.5 81.5
t94.5 34.5q55 0 84 -39z" />
    <glyph glyph-name="semicolon" unicode=";" 
d="M523 781q19 -25 19 -55q0 -14 -5 -30q-12 -47 -56 -81.5t-95 -34.5q-56 0 -83 40q-19 23 -19 54q0 14 5 30q12 47 55.5 81.5t94.5 34.5q55 0 84 -39zM128 104q12 47 56 81.5t95 34.5q55 0 85 -39q17 -25 17 -55q0 -14 -5 -30l-81 -300q-12 -47 -55.5 -81.5t-94.5 -34.5
q-55 0 -84 40q-19 23 -19 54q0 14 5 30z" />
    <glyph glyph-name="semicolon" unicode="&#x37e;" 
d="M523 781q19 -25 19 -55q0 -14 -5 -30q-12 -47 -56 -81.5t-95 -34.5q-56 0 -83 40q-19 23 -19 54q0 14 5 30q12 47 55.5 81.5t94.5 34.5q55 0 84 -39zM128 104q12 47 56 81.5t95 34.5q55 0 85 -39q17 -25 17 -55q0 -14 -5 -30l-81 -300q-12 -47 -55.5 -81.5t-94.5 -34.5
q-55 0 -84 40q-19 23 -19 54q0 14 5 30z" />
    <glyph glyph-name="less" unicode="&#x3c;" 
d="M1002 330q19 -23 19 -54q0 -14 -5 -30q-12 -47 -56 -81.5t-95 -34.5q-55 0 -84 39l-367 500q-17 25 -17 54q0 15 5 31q12 47 56 81l633 499q45 36 96 36q55 0 85 -39q17 -25 17 -55q0 -14 -5 -30q-12 -47 -56 -81l-530 -418z" />
    <glyph glyph-name="equal" unicode="=" 
d="M366 880q-56 0 -83 40q-19 23 -19 54q0 14 5 30q12 47 56 81.5t95 34.5h800q55 0 85 -39q17 -25 17 -55q0 -14 -5 -30q-12 -47 -56 -81.5t-95 -34.5h-800zM232 380q-56 0 -83 40q-19 23 -19 54q0 14 5 30q12 47 56 81.5t95 34.5h800q55 0 85 -39q17 -25 17 -55
q0 -14 -5 -30q-12 -47 -56 -81.5t-95 -34.5h-800z" />
    <glyph glyph-name="greater" unicode="&#x3e;" 
d="M855 753l-306 416q-18 25 -18 55q0 14 5 30q12 47 56 81.5t95 34.5q55 0 83 -38l368 -501q17 -25 17 -54q0 -15 -5 -31q-12 -47 -54 -81l-635 -500q-45 -35 -96 -35q-56 0 -83 40q-19 23 -19 54q0 14 5 30q12 47 56 80z" />
    <glyph glyph-name="question" unicode="?" 
d="M215 429q48 182 212.5 311.5t350.5 129.5h50q83 0 160 61t101 148q8 30 8 56q0 50 -29 89q-41 56 -120 56h-150q-83 0 -160 -61t-101 -148q-12 -47 -56 -81.5t-95 -34.5q-56 0 -83 40q-19 23 -19 54q0 14 5 30q48 182 212.5 311.5t350.5 129.5h150q190 0 289 -134
q63 -88 63 -197q0 -56 -17 -118q-48 -182 -212.5 -311.5t-350.5 -129.5h-50q-83 0 -160 -61t-101 -148l-7 -25q-12 -47 -56 -81.5t-95 -34.5q-56 0 -83 40q-19 23 -19 54q0 14 5 30zM364 181q17 -25 17 -55q0 -14 -5 -30q-12 -47 -56 -81.5t-95 -34.5q-56 0 -83 40
q-19 23 -19 54q0 14 5 30q12 47 56 81.5t95 34.5q55 0 85 -39z" />
    <glyph glyph-name="at" unicode="@" 
d="M1002 754q5 19 5 36q0 32 -18 56q-25 34 -73 34q-52 0 -101 -39t-65 -95q-5 -19 -5 -36q0 -32 18 -56q25 -34 73 -34q52 0 101 39t65 95zM1077 1108q-6 52 -37 94q-57 78 -167 78q-114 0 -219 -83t-137 -201l-134 -500q-10 -40 -10 -76q0 -69 40 -122q56 -78 166 -78h400
q55 0 85 -39q17 -25 17 -55q0 -14 -5 -30q-12 -47 -56 -81.5t-95 -34.5h-400q-221 0 -336 157q-74 101 -74 229q0 66 20 138l134 500q56 213 248.5 364.5t409.5 151.5q221 0 336 -156q74 -102 74 -230q0 -66 -20 -138l-86 -324l-6 2q-39 -98 -150 -185q-138 -109 -293 -109
q-159 0 -242 113q-52 72 -52 163q0 46 14 98q40 151 176.5 258.5t291.5 107.5q81 0 107 -12z" />
    <glyph glyph-name="A" unicode="A" 
d="M386 280l-96 -168q-38 -64 -75.5 -98t-89.5 -34q-56 0 -83 40q-19 23 -19 54q0 14 5 30q9 37 43 85l718 1251h1q9 19 42 44q44 36 95 36q55 0 85 -40q16 -24 16 -51v11h1l49 -1258q4 -23 4 -43q0 -23 -6 -43q-12 -47 -56 -81.5t-95 -34.5q-57 0 -78 37t-25 102l-6 161
h-430zM807 520l-17 466l-266 -466h283z" />
    <glyph glyph-name="B" unicode="B" 
d="M600 -20h-475q-56 0 -83 40q-19 23 -19 54q0 14 5 30l348 1300q12 47 56 81.5t95 34.5h475q190 0 289 -134q63 -88 63 -197q0 -56 -17 -118q-48 -182 -211 -310q-17 -14 -18 -14l9 -11q63 -87 63 -196q0 -57 -17 -119q-48 -182 -212.5 -311.5t-350.5 -129.5zM948 1280
h-355l-109 -410h344q83 0 160 61t101 148q8 30 8 56q0 50 -29 89q-41 56 -120 56zM774 630h-355l-109 -410h344q83 0 160 61t101 148q8 30 8 56q0 50 -29 89q-41 56 -120 56z" />
    <glyph glyph-name="C" unicode="C" 
d="M935 504q12 47 56 81.5t95 34.5q55 0 85 -39q17 -25 17 -55q0 -14 -5 -30q-56 -213 -248.5 -364.5t-409.5 -151.5q-221 0 -336 157q-74 101 -74 229q0 66 20 138l134 500q56 213 248.5 364.5t409.5 151.5q221 0 336 -156q74 -102 74 -230q0 -66 -20 -138
q-12 -47 -56 -81.5t-95 -34.5q-56 0 -83 40q-19 23 -19 54q0 14 5 30q10 40 10 76q0 69 -39 122q-57 78 -167 78q-114 0 -219 -83t-137 -201l-134 -500q-10 -40 -10 -76q0 -69 40 -122q56 -78 166 -78q114 0 219 83t137 201z" />
    <glyph glyph-name="D" unicode="D" 
d="M125 -20q-56 0 -83 40q-19 23 -19 54q0 14 5 30l348 1300q12 47 56 81.5t95 34.5h400q221 0 336 -156q74 -102 74 -230q0 -66 -20 -138l-134 -500q-56 -213 -248.5 -364.5t-409.5 -151.5h-400zM593 1280l-283 -1060h269q114 0 219 83t137 201l134 500q10 40 10 76
q0 69 -39 122q-57 78 -167 78h-280z" />
    <glyph glyph-name="E" unicode="E" 
d="M979 220q55 0 85 -39q17 -25 17 -55q0 -14 -5 -30q-12 -47 -56 -81.5t-95 -34.5h-800q-56 0 -83 40q-19 23 -19 54q0 14 5 30l348 1300q12 47 56 81.5t95 34.5h800q55 0 85 -39q17 -25 17 -55q0 -14 -5 -30q-12 -47 -56 -81.5t-95 -34.5h-680l-109 -410h569q55 0 85 -39
q17 -25 17 -55q0 -14 -5 -30q-12 -47 -56 -81.5t-95 -34.5h-580l-109 -410h669z" />
    <glyph glyph-name="F" unicode="F" 
d="M276 96q-12 -47 -56 -81.5t-95 -34.5q-56 0 -83 40q-19 23 -19 54q0 14 5 30l348 1300q12 47 56 81.5t95 34.5h800q55 0 85 -39q17 -25 17 -55q0 -14 -5 -30q-12 -47 -56 -81.5t-95 -34.5h-680l-109 -410h569q55 0 85 -39q17 -25 17 -55q0 -14 -5 -30q-12 -47 -56 -81.5
t-95 -34.5h-580z" />
    <glyph glyph-name="G" unicode="G" 
d="M1076 96q-12 -47 -56 -81.5t-95 -34.5q-56 0 -83 40q-19 23 -19 54q0 4 -1 4q-2 0 -12 -31q-106 -67 -285 -67q-221 0 -336 157q-74 101 -74 229q0 66 20 138l134 500q56 213 248.5 364.5t409.5 151.5q221 0 336 -156q74 -102 74 -230q0 -66 -20 -138q-12 -47 -56 -81.5
t-95 -34.5q-56 0 -83 40q-19 23 -19 54q0 14 5 30q10 40 10 76q0 69 -39 122q-57 78 -167 78q-114 0 -219 -83t-137 -201l-134 -500q-10 -40 -10 -76q0 -69 40 -122q56 -78 166 -78q114 0 219 83t137 201l6 26h-319q-56 0 -83 40q-19 23 -19 54q0 14 5 30q12 47 56 81.5
t95 34.5h450q55 0 85 -39q17 -25 17 -55q0 -14 -5 -30z" />
    <glyph glyph-name="H" unicode="H" 
d="M968 630h-549l-143 -534q-12 -47 -56 -81.5t-95 -34.5q-56 0 -83 40q-19 23 -19 54q0 14 5 30l348 1300q12 47 56 81.5t95 34.5q55 0 85 -39q17 -25 17 -55q0 -14 -5 -30l-140 -526h549l143 534q12 47 56 81.5t95 34.5q55 0 85 -39q17 -25 17 -55q0 -14 -5 -30
l-348 -1300q-12 -47 -56 -81.5t-95 -34.5q-56 0 -83 40q-19 23 -19 54q0 14 5 30z" />
    <glyph glyph-name="I" unicode="I" 
d="M459 220l283 1060h-269q-56 0 -83 40q-19 23 -19 54q0 14 5 30q12 47 56 81.5t95 34.5h800q55 0 85 -39q17 -25 17 -55q0 -14 -5 -30q-12 -47 -56 -81.5t-95 -34.5h-280l-283 -1060h269q55 0 85 -39q17 -25 17 -55q0 -14 -5 -30q-12 -47 -56 -81.5t-95 -34.5h-800
q-56 0 -83 40q-19 23 -19 54q0 14 5 30q12 47 56 81.5t95 34.5h280z" />
    <glyph glyph-name="J" unicode="J" 
d="M191 585.5q44 34.5 95 34.5q55 0 85 -39q17 -25 17 -55q0 -14 -5 -30q-10 -40 -10 -76q0 -69 40 -122q56 -78 166 -78q114 0 219 83t137 201l241 900q12 47 56 81.5t95 34.5q55 0 85 -39q17 -25 17 -55q0 -14 -5 -30l-241 -900q-56 -213 -248.5 -364.5t-409.5 -151.5
q-221 0 -336 157q-74 101 -74 229q0 66 20 138q12 47 56 81.5z" />
    <glyph glyph-name="K" unicode="K" 
d="M595 679l-209 -174l-110 -409q-12 -47 -56 -81.5t-95 -34.5q-56 0 -83 40q-19 23 -19 54q0 14 5 30l348 1300q12 47 56 81.5t95 34.5q55 0 85 -39q17 -25 17 -55q0 -14 -5 -30l-143 -538l710 590q18 19 41 37q44 35 95 35q55 0 85 -39q17 -25 17 -55q0 -14 -5 -30
q-12 -47 -55 -80q-28 -23 -45 -32l-500 -415q0 -2 3 -15l236 -648q17 -43 17 -78q0 -17 -3 -32q-13 -47 -57 -81.5t-95 -34.5q-55 0 -81.5 36t-35.5 80z" />
    <glyph glyph-name="L" unicode="L" 
d="M624 1396l-314 -1176h669q55 0 85 -39q17 -25 17 -55q0 -14 -5 -30q-12 -47 -56 -81.5t-95 -34.5h-800q-56 0 -83 40q-19 23 -19 54q0 14 5 30l348 1300q12 47 56 81.5t95 34.5q55 0 85 -39q17 -25 17 -55q0 -14 -5 -30z" />
    <glyph glyph-name="M" unicode="M" 
d="M1424 1396l-348 -1300q-12 -47 -56 -81.5t-95 -34.5q-56 0 -83 40q-19 23 -19 54q0 14 5 30l121 457l-287 -501q-8 -19 -41 -44q-45 -36 -96 -36q-56 0 -84 40q-18 25 -18 54v-14h-1l-20 507l-126 -471q-12 -47 -56 -81.5t-95 -34.5q-56 0 -83 40q-19 23 -19 54
q0 14 5 30l348 1300q12 47 56 81q44 35 95 35q55 0 84 -39q20 -27 20 -80q0 -11 -1 -21l32 -866l500 875q46 70 73 95q40 36 92 36q55 0 85 -39q17 -25 17 -55q0 -14 -5 -30z" />
    <glyph glyph-name="N" unicode="N" 
d="M644 1404l301 -862l231 862q12 47 56 81.5t95 34.5q55 0 85 -39q17 -25 17 -55q0 -14 -5 -30l-348 -1300q-12 -47 -56 -81.5t-95 -34.5q-55 0 -81.5 36t-35.5 80l-301 862l-231 -862q-12 -47 -56 -81.5t-95 -34.5q-56 0 -83 40q-19 23 -19 54q0 14 5 30l348 1300
q12 47 56 81.5t95 34.5q55 0 81.5 -36t35.5 -80z" />
    <glyph glyph-name="O" unicode="O" 
d="M1183 496q-56 -213 -248.5 -364.5t-409.5 -151.5q-221 0 -336 157q-74 101 -74 229q0 66 20 138l134 500q56 213 248.5 364.5t409.5 151.5q221 0 336 -156q74 -102 74 -230q0 -66 -20 -138zM383 496q-10 -40 -10 -76q0 -69 40 -122q56 -78 166 -78q114 0 219 83t137 201
l134 500q10 40 10 76q0 69 -39 122q-57 78 -167 78q-114 0 -219 -83t-137 -201z" />
    <glyph glyph-name="P" unicode="P" 
d="M774 630h-355l-143 -534q-12 -47 -56 -81.5t-95 -34.5q-56 0 -83 40q-19 23 -19 54q0 14 5 30l348 1300q12 47 56 81.5t95 34.5h475q190 0 289 -134q63 -88 63 -197q0 -56 -17 -118q-48 -182 -212.5 -311.5t-350.5 -129.5zM948 1280h-355l-109 -410h344q83 0 160 61
t101 148q8 30 8 56q0 50 -29 89q-41 56 -120 56z" />
    <glyph glyph-name="Q" unicode="Q" 
d="M936 508l133 496q10 40 10 76q0 69 -39 122q-57 78 -167 78q-114 0 -219 -83t-137 -201l-134 -500q-10 -40 -10 -76q0 -69 40 -122q56 -78 166 -78q90 0 159 42l-76 182q-18 44 -18 79q0 16 3 31q13 47 57 81.5t95 34.5q55 0 81.5 -36t35.5 -79zM819 54
q-125 -74 -294 -74q-221 0 -336 157q-74 101 -74 229q0 66 20 138l134 500q56 213 248.5 364.5t409.5 151.5q221 0 336 -156q74 -102 74 -230q0 -66 -20 -138l-134 -500q-39 -147 -135 -256l15 -34q17 -43 17 -78q0 -17 -3 -32q-13 -47 -57 -81.5t-95 -34.5q-56 0 -84 40
q-21 28 -22 34z" />
    <glyph glyph-name="R" unicode="R" 
d="M948 1280h-355l-109 -410h344q83 0 160 61t101 148q8 30 8 56q0 50 -29 89q-41 56 -120 56zM620 630h-201l-143 -534q-12 -47 -56 -81.5t-95 -34.5q-56 0 -83 40q-19 23 -19 54q0 14 5 30l348 1300q12 47 56 81.5t95 34.5h475q190 0 289 -134q63 -88 63 -197
q0 -56 -17 -118q-48 -182 -211 -310q-116 -92 -218 -114l155 -442q17 -42 17 -77q0 -17 -3 -32q-13 -47 -57 -81.5t-95 -34.5q-55 0 -81.5 36t-35.5 80z" />
    <glyph glyph-name="S" unicode="S" 
d="M1337 1071q-12 -47 -56 -81.5t-95 -34.5q-56 0 -83 40q-19 23 -19 54q0 14 5 30q8 30 8 56q0 50 -29 89q-41 56 -120 56h-150q-83 0 -160 -61t-101 -148q-8 -30 -8 -56q0 -50 30 -89q40 -56 119 -56h150q190 0 289 -134q63 -88 63 -197q0 -56 -17 -118
q-48 -182 -212.5 -311.5t-350.5 -129.5h-150q-190 0 -289 135q-63 87 -63 196q0 56 17 118q12 47 56 81.5t95 34.5q55 0 85 -39q17 -25 17 -55q0 -14 -5 -30q-8 -30 -8 -56q0 -50 30 -89q40 -56 119 -56h150q83 0 160 61t101 148q8 30 8 56q0 50 -29 89q-41 56 -120 56h-150
q-190 0 -289 135q-63 87 -63 196q0 56 17 118q48 182 212.5 311.5t350.5 129.5h150q190 0 289 -134q63 -88 63 -197q0 -56 -17 -118z" />
    <glyph glyph-name="T" unicode="T" 
d="M993 1280l-317 -1184q-12 -47 -56 -81.5t-95 -34.5q-56 0 -83 40q-19 23 -19 54q0 14 5 30l314 1176h-269q-56 0 -83 40q-19 23 -19 54q0 14 5 30q12 47 56 81.5t95 34.5h800q55 0 85 -39q17 -25 17 -55q0 -14 -5 -30q-12 -47 -56 -81.5t-95 -34.5h-280z" />
    <glyph glyph-name="U" unicode="U" 
d="M376 1404q12 47 56 81.5t95 34.5q55 0 85 -39q17 -25 17 -55q0 -14 -5 -30l-241 -900q-10 -40 -10 -76q0 -69 40 -122q56 -78 166 -78q114 0 219 83t137 201l241 900q12 47 56 81.5t95 34.5q55 0 85 -39q17 -25 17 -55q0 -14 -5 -30l-241 -900q-56 -213 -248.5 -364.5
t-409.5 -151.5q-221 0 -336 157q-74 101 -74 229q0 66 20 138z" />
    <glyph glyph-name="V" unicode="V" 
d="M525 -20q-56 0 -84 40q-18 25 -18 54v-14h-1l-48 1258q-4 23 -4 43q0 23 6 43q12 47 56 81.5t95 34.5q57 0 78 -37t25 -102l32 -867l500 874q38 64 75.5 98t89.5 34q55 0 85 -39q17 -25 17 -55q0 -14 -5 -30q-9 -37 -43 -85l-719 -1251q-8 -19 -41 -44q-45 -36 -96 -36z
" />
    <glyph glyph-name="W" unicode="W" 
d="M682 584l-206 -489q-12 -46 -56 -80.5t-95 -34.5q-56 0 -83 40q-19 23 -19 54q0 14 4 29l145 1267v5q0 13 3 29q13 47 57 81.5t95 34.5q55 0 85 -39q17 -25 17 -55q0 -14 -4 -29l-55 -480l206 488q12 46 56 80.5t95 34.5q55 0 85 -39q17 -25 17 -55q0 -14 -4 -29
l-55 -480l206 488q12 46 56 80.5t95 34.5q55 0 85 -39q17 -25 17 -55q0 -14 -4 -30q-5 -19 -15 -35l-534 -1266q-12 -46 -56 -80.5t-95 -34.5q-56 0 -83 40q-19 23 -19 54q0 14 4 29z" />
    <glyph glyph-name="X" unicode="X" 
d="M663 508l-370 -419q-32 -42 -74.5 -75.5t-93.5 -33.5q-56 0 -83 40q-19 23 -19 54q0 14 5 30q12 45 71 108l479 542l-189 541q-17 42 -17 77q0 17 3 32q13 47 57 81.5t95 34.5q55 0 81.5 -36t35.5 -80l144 -412l371 419q32 42 74.5 75.5t93.5 33.5q55 0 85 -39
q17 -25 17 -55q0 -14 -5 -30q-12 -45 -71 -108l-479 -542l189 -541q17 -42 17 -77q0 -17 -3 -32q-13 -47 -57 -81.5t-95 -34.5q-55 0 -81.5 36t-35.5 80z" />
    <glyph glyph-name="Y" unicode="Y" 
d="M591 715l-10 30l-192 550q-17 42 -17 77q0 17 3 32q13 47 57 81.5t95 34.5q55 0 81.5 -36t35.5 -80l144 -412l371 419q32 42 74.5 75.5t93.5 33.5q55 0 85 -39q17 -25 17 -55q0 -14 -5 -30q-12 -45 -71 -108l-486 -549l-27 -31l-164 -612q-12 -47 -56 -81.5t-95 -34.5
q-56 0 -83 40q-19 23 -19 54q0 14 5 30z" />
    <glyph glyph-name="Z" unicode="Z" 
d="M771 630l-362 -410h570q55 0 85 -39q17 -25 17 -55q0 -14 -5 -30q-12 -47 -56 -81.5t-95 -34.5h-800q-56 0 -83 40q-19 23 -19 54q0 14 5 30q12 45 71 108l369 418h-69q-56 0 -83 40q-19 23 -19 54q0 14 5 30q12 47 56 81.5t95 34.5h228l362 410h-570q-56 0 -83 40
q-19 23 -19 54q0 14 5 30q12 47 56 81.5t95 34.5h800q55 0 85 -39q17 -25 17 -55q0 -14 -5 -30q-12 -45 -71 -108l-369 -418h69q55 0 85 -39q17 -25 17 -55q0 -14 -5 -30q-12 -47 -56 -81.5t-95 -34.5h-228z" />
    <glyph glyph-name="bracketleft" unicode="[" 
d="M530 1605q12 46 56 80.5t95 34.5h600q55 0 85 -39q17 -25 17 -55q0 -14 -5 -30q-12 -47 -56 -81.5t-95 -34.5h-480l-391 -1460h469q55 0 85 -39q17 -25 17 -55q0 -14 -5 -30q-12 -47 -56 -81.5t-95 -34.5h-600q-56 0 -83 40q-19 23 -19 54q0 14 5 30z" />
    <glyph glyph-name="backslash" unicode="\" 
d="M389 1295q-17 42 -17 77q0 17 3 32q13 47 57 81.5t95 34.5q55 0 81.5 -36t35.5 -80l419 -1199q17 -42 17 -77q0 -17 -3 -32q-13 -47 -57 -81.5t-95 -34.5q-55 0 -81.5 36t-35.5 80z" />
    <glyph glyph-name="bracketright" unicode="]" 
d="M922 -105q-12 -46 -56 -80.5t-95 -34.5h-600q-56 0 -83 40q-19 23 -19 54q0 14 5 30q12 47 56 81.5t95 34.5h480l391 1460h-469q-56 0 -83 40q-19 23 -19 54q0 14 5 30q12 47 56 81.5t95 34.5h600q55 0 85 -39q17 -25 17 -55q0 -14 -5 -30z" />
    <glyph glyph-name="asciicircum" unicode="^" 
d="M1073 2028l-398 -314q-43 -34 -94 -34q-55 0 -84 40q-19 23 -19 54q0 14 5 30q12 47 56 81l508 400q43 35 94 35q55 0 85 -39l293 -400q17 -25 17 -54q0 -15 -5 -31q-12 -47 -55.5 -81.5t-94.5 -34.5q-56 0 -84 40z" />
    <glyph glyph-name="underscore" unicode="_" 
d="M898 -80q55 0 85 -39q17 -25 17 -55q0 -14 -5 -30q-12 -47 -55.5 -81.5t-94.5 -34.5h-800q-55 0 -84 40q-19 23 -19 54q0 14 5 30q12 47 56 81.5t95 34.5h800z" />
    <glyph glyph-name="grave" unicode="`" 
d="M804 2120q-18 25 -18 56q0 13 3 28q13 47 57 81.5t95 34.5q55 0 85 -39l293 -400q17 -25 17 -54q0 -15 -5 -31q-12 -47 -55.5 -81.5t-94.5 -34.5q-56 0 -84 40z" />
    <glyph glyph-name="a" unicode="a" 
d="M386 280l-96 -168q-38 -64 -75.5 -98t-89.5 -34q-56 0 -83 40q-19 23 -19 54q0 14 5 30q9 37 43 85l718 1251h1q9 19 42 44q44 36 95 36q55 0 85 -40q16 -24 16 -51v11h1l49 -1258q4 -23 4 -43q0 -23 -6 -43q-12 -47 -56 -81.5t-95 -34.5q-57 0 -78 37t-25 102l-6 161
h-430zM807 520l-17 466l-266 -466h283z" />
    <glyph glyph-name="b" unicode="b" 
d="M600 -20h-475q-56 0 -83 40q-19 23 -19 54q0 14 5 30l348 1300q12 47 56 81.5t95 34.5h475q190 0 289 -134q63 -88 63 -197q0 -56 -17 -118q-48 -182 -211 -310q-17 -14 -18 -14l9 -11q63 -87 63 -196q0 -57 -17 -119q-48 -182 -212.5 -311.5t-350.5 -129.5zM948 1280
h-355l-109 -410h344q83 0 160 61t101 148q8 30 8 56q0 50 -29 89q-41 56 -120 56zM774 630h-355l-109 -410h344q83 0 160 61t101 148q8 30 8 56q0 50 -29 89q-41 56 -120 56z" />
    <glyph glyph-name="c" unicode="c" 
d="M935 504q12 47 56 81.5t95 34.5q55 0 85 -39q17 -25 17 -55q0 -14 -5 -30q-56 -213 -248.5 -364.5t-409.5 -151.5q-221 0 -336 157q-74 101 -74 229q0 66 20 138l134 500q56 213 248.5 364.5t409.5 151.5q221 0 336 -156q74 -102 74 -230q0 -66 -20 -138
q-12 -47 -56 -81.5t-95 -34.5q-56 0 -83 40q-19 23 -19 54q0 14 5 30q10 40 10 76q0 69 -39 122q-57 78 -167 78q-114 0 -219 -83t-137 -201l-134 -500q-10 -40 -10 -76q0 -69 40 -122q56 -78 166 -78q114 0 219 83t137 201z" />
    <glyph glyph-name="d" unicode="d" 
d="M125 -20q-56 0 -83 40q-19 23 -19 54q0 14 5 30l348 1300q12 47 56 81.5t95 34.5h400q221 0 336 -156q74 -102 74 -230q0 -66 -20 -138l-134 -500q-56 -213 -248.5 -364.5t-409.5 -151.5h-400zM593 1280l-283 -1060h269q114 0 219 83t137 201l134 500q10 40 10 76
q0 69 -39 122q-57 78 -167 78h-280z" />
    <glyph glyph-name="e" unicode="e" 
d="M979 220q55 0 85 -39q17 -25 17 -55q0 -14 -5 -30q-12 -47 -56 -81.5t-95 -34.5h-800q-56 0 -83 40q-19 23 -19 54q0 14 5 30l348 1300q12 47 56 81.5t95 34.5h800q55 0 85 -39q17 -25 17 -55q0 -14 -5 -30q-12 -47 -56 -81.5t-95 -34.5h-680l-109 -410h569q55 0 85 -39
q17 -25 17 -55q0 -14 -5 -30q-12 -47 -56 -81.5t-95 -34.5h-580l-109 -410h669z" />
    <glyph glyph-name="f" unicode="f" 
d="M276 96q-12 -47 -56 -81.5t-95 -34.5q-56 0 -83 40q-19 23 -19 54q0 14 5 30l348 1300q12 47 56 81.5t95 34.5h800q55 0 85 -39q17 -25 17 -55q0 -14 -5 -30q-12 -47 -56 -81.5t-95 -34.5h-680l-109 -410h569q55 0 85 -39q17 -25 17 -55q0 -14 -5 -30q-12 -47 -56 -81.5
t-95 -34.5h-580z" />
    <glyph glyph-name="g" unicode="g" 
d="M1076 96q-12 -47 -56 -81.5t-95 -34.5q-56 0 -83 40q-19 23 -19 54q0 4 -1 4q-2 0 -12 -31q-106 -67 -285 -67q-221 0 -336 157q-74 101 -74 229q0 66 20 138l134 500q56 213 248.5 364.5t409.5 151.5q221 0 336 -156q74 -102 74 -230q0 -66 -20 -138q-12 -47 -56 -81.5
t-95 -34.5q-56 0 -83 40q-19 23 -19 54q0 14 5 30q10 40 10 76q0 69 -39 122q-57 78 -167 78q-114 0 -219 -83t-137 -201l-134 -500q-10 -40 -10 -76q0 -69 40 -122q56 -78 166 -78q114 0 219 83t137 201l6 26h-319q-56 0 -83 40q-19 23 -19 54q0 14 5 30q12 47 56 81.5
t95 34.5h450q55 0 85 -39q17 -25 17 -55q0 -14 -5 -30z" />
    <glyph glyph-name="h" unicode="h" 
d="M968 630h-549l-143 -534q-12 -47 -56 -81.5t-95 -34.5q-56 0 -83 40q-19 23 -19 54q0 14 5 30l348 1300q12 47 56 81.5t95 34.5q55 0 85 -39q17 -25 17 -55q0 -14 -5 -30l-140 -526h549l143 534q12 47 56 81.5t95 34.5q55 0 85 -39q17 -25 17 -55q0 -14 -5 -30
l-348 -1300q-12 -47 -56 -81.5t-95 -34.5q-56 0 -83 40q-19 23 -19 54q0 14 5 30z" />
    <glyph glyph-name="i" unicode="i" 
d="M459 220l283 1060h-269q-56 0 -83 40q-19 23 -19 54q0 14 5 30q12 47 56 81.5t95 34.5h800q55 0 85 -39q17 -25 17 -55q0 -14 -5 -30q-12 -47 -56 -81.5t-95 -34.5h-280l-283 -1060h269q55 0 85 -39q17 -25 17 -55q0 -14 -5 -30q-12 -47 -56 -81.5t-95 -34.5h-800
q-56 0 -83 40q-19 23 -19 54q0 14 5 30q12 47 56 81.5t95 34.5h280z" />
    <glyph glyph-name="j" unicode="j" 
d="M191 585.5q44 34.5 95 34.5q55 0 85 -39q17 -25 17 -55q0 -14 -5 -30q-10 -40 -10 -76q0 -69 40 -122q56 -78 166 -78q114 0 219 83t137 201l241 900q12 47 56 81.5t95 34.5q55 0 85 -39q17 -25 17 -55q0 -14 -5 -30l-241 -900q-56 -213 -248.5 -364.5t-409.5 -151.5
q-221 0 -336 157q-74 101 -74 229q0 66 20 138q12 47 56 81.5z" />
    <glyph glyph-name="k" unicode="k" 
d="M595 679l-209 -174l-110 -409q-12 -47 -56 -81.5t-95 -34.5q-56 0 -83 40q-19 23 -19 54q0 14 5 30l348 1300q12 47 56 81.5t95 34.5q55 0 85 -39q17 -25 17 -55q0 -14 -5 -30l-143 -538l710 590q18 19 41 37q44 35 95 35q55 0 85 -39q17 -25 17 -55q0 -14 -5 -30
q-12 -47 -55 -80q-28 -23 -45 -32l-500 -415q0 -2 3 -15l236 -648q17 -43 17 -78q0 -17 -3 -32q-13 -47 -57 -81.5t-95 -34.5q-55 0 -81.5 36t-35.5 80z" />
    <glyph glyph-name="l" unicode="l" 
d="M624 1396l-314 -1176h669q55 0 85 -39q17 -25 17 -55q0 -14 -5 -30q-12 -47 -56 -81.5t-95 -34.5h-800q-56 0 -83 40q-19 23 -19 54q0 14 5 30l348 1300q12 47 56 81.5t95 34.5q55 0 85 -39q17 -25 17 -55q0 -14 -5 -30z" />
    <glyph glyph-name="m" unicode="m" 
d="M1424 1396l-348 -1300q-12 -47 -56 -81.5t-95 -34.5q-56 0 -83 40q-19 23 -19 54q0 14 5 30l121 457l-287 -501q-8 -19 -41 -44q-45 -36 -96 -36q-56 0 -84 40q-18 25 -18 54v-14h-1l-20 507l-126 -471q-12 -47 -56 -81.5t-95 -34.5q-56 0 -83 40q-19 23 -19 54
q0 14 5 30l348 1300q12 47 56 81q44 35 95 35q55 0 84 -39q20 -27 20 -80q0 -11 -1 -21l32 -866l500 875q46 70 73 95q40 36 92 36q55 0 85 -39q17 -25 17 -55q0 -14 -5 -30z" />
    <glyph glyph-name="n" unicode="n" 
d="M644 1404l301 -862l231 862q12 47 56 81.5t95 34.5q55 0 85 -39q17 -25 17 -55q0 -14 -5 -30l-348 -1300q-12 -47 -56 -81.5t-95 -34.5q-55 0 -81.5 36t-35.5 80l-301 862l-231 -862q-12 -47 -56 -81.5t-95 -34.5q-56 0 -83 40q-19 23 -19 54q0 14 5 30l348 1300
q12 47 56 81.5t95 34.5q55 0 81.5 -36t35.5 -80z" />
    <glyph glyph-name="o" unicode="o" 
d="M1183 496q-56 -213 -248.5 -364.5t-409.5 -151.5q-221 0 -336 157q-74 101 -74 229q0 66 20 138l134 500q56 213 248.5 364.5t409.5 151.5q221 0 336 -156q74 -102 74 -230q0 -66 -20 -138zM383 496q-10 -40 -10 -76q0 -69 40 -122q56 -78 166 -78q114 0 219 83t137 201
l134 500q10 40 10 76q0 69 -39 122q-57 78 -167 78q-114 0 -219 -83t-137 -201z" />
    <glyph glyph-name="p" unicode="p" 
d="M774 630h-355l-143 -534q-12 -47 -56 -81.5t-95 -34.5q-56 0 -83 40q-19 23 -19 54q0 14 5 30l348 1300q12 47 56 81.5t95 34.5h475q190 0 289 -134q63 -88 63 -197q0 -56 -17 -118q-48 -182 -212.5 -311.5t-350.5 -129.5zM948 1280h-355l-109 -410h344q83 0 160 61
t101 148q8 30 8 56q0 50 -29 89q-41 56 -120 56z" />
    <glyph glyph-name="q" unicode="q" 
d="M936 508l133 496q10 40 10 76q0 69 -39 122q-57 78 -167 78q-114 0 -219 -83t-137 -201l-134 -500q-10 -40 -10 -76q0 -69 40 -122q56 -78 166 -78q90 0 159 42l-76 182q-18 44 -18 79q0 16 3 31q13 47 57 81.5t95 34.5q55 0 81.5 -36t35.5 -79zM819 54
q-125 -74 -294 -74q-221 0 -336 157q-74 101 -74 229q0 66 20 138l134 500q56 213 248.5 364.5t409.5 151.5q221 0 336 -156q74 -102 74 -230q0 -66 -20 -138l-134 -500q-39 -147 -135 -256l15 -34q17 -43 17 -78q0 -17 -3 -32q-13 -47 -57 -81.5t-95 -34.5q-56 0 -84 40
q-21 28 -22 34z" />
    <glyph glyph-name="r" unicode="r" 
d="M948 1280h-355l-109 -410h344q83 0 160 61t101 148q8 30 8 56q0 50 -29 89q-41 56 -120 56zM620 630h-201l-143 -534q-12 -47 -56 -81.5t-95 -34.5q-56 0 -83 40q-19 23 -19 54q0 14 5 30l348 1300q12 47 56 81.5t95 34.5h475q190 0 289 -134q63 -88 63 -197
q0 -56 -17 -118q-48 -182 -211 -310q-116 -92 -218 -114l155 -442q17 -42 17 -77q0 -17 -3 -32q-13 -47 -57 -81.5t-95 -34.5q-55 0 -81.5 36t-35.5 80z" />
    <glyph glyph-name="s" unicode="s" 
d="M1337 1071q-12 -47 -56 -81.5t-95 -34.5q-56 0 -83 40q-19 23 -19 54q0 14 5 30q8 30 8 56q0 50 -29 89q-41 56 -120 56h-150q-83 0 -160 -61t-101 -148q-8 -30 -8 -56q0 -50 30 -89q40 -56 119 -56h150q190 0 289 -134q63 -88 63 -197q0 -56 -17 -118
q-48 -182 -212.5 -311.5t-350.5 -129.5h-150q-190 0 -289 135q-63 87 -63 196q0 56 17 118q12 47 56 81.5t95 34.5q55 0 85 -39q17 -25 17 -55q0 -14 -5 -30q-8 -30 -8 -56q0 -50 30 -89q40 -56 119 -56h150q83 0 160 61t101 148q8 30 8 56q0 50 -29 89q-41 56 -120 56h-150
q-190 0 -289 135q-63 87 -63 196q0 56 17 118q48 182 212.5 311.5t350.5 129.5h150q190 0 289 -134q63 -88 63 -197q0 -56 -17 -118z" />
    <glyph glyph-name="t" unicode="t" 
d="M993 1280l-317 -1184q-12 -47 -56 -81.5t-95 -34.5q-56 0 -83 40q-19 23 -19 54q0 14 5 30l314 1176h-269q-56 0 -83 40q-19 23 -19 54q0 14 5 30q12 47 56 81.5t95 34.5h800q55 0 85 -39q17 -25 17 -55q0 -14 -5 -30q-12 -47 -56 -81.5t-95 -34.5h-280z" />
    <glyph glyph-name="u" unicode="u" 
d="M376 1404q12 47 56 81.5t95 34.5q55 0 85 -39q17 -25 17 -55q0 -14 -5 -30l-241 -900q-10 -40 -10 -76q0 -69 40 -122q56 -78 166 -78q114 0 219 83t137 201l241 900q12 47 56 81.5t95 34.5q55 0 85 -39q17 -25 17 -55q0 -14 -5 -30l-241 -900q-56 -213 -248.5 -364.5
t-409.5 -151.5q-221 0 -336 157q-74 101 -74 229q0 66 20 138z" />
    <glyph glyph-name="v" unicode="v" 
d="M525 -20q-56 0 -84 40q-18 25 -18 54v-14h-1l-48 1258q-4 23 -4 43q0 23 6 43q12 47 56 81.5t95 34.5q57 0 78 -37t25 -102l32 -867l500 874q38 64 75.5 98t89.5 34q55 0 85 -39q17 -25 17 -55q0 -14 -5 -30q-9 -37 -43 -85l-719 -1251q-8 -19 -41 -44q-45 -36 -96 -36z
" />
    <glyph glyph-name="w" unicode="w" 
d="M682 584l-206 -489q-12 -46 -56 -80.5t-95 -34.5q-56 0 -83 40q-19 23 -19 54q0 14 4 29l145 1267v5q0 13 3 29q13 47 57 81.5t95 34.5q55 0 85 -39q17 -25 17 -55q0 -14 -4 -29l-55 -480l206 488q12 46 56 80.5t95 34.5q55 0 85 -39q17 -25 17 -55q0 -14 -4 -29
l-55 -480l206 488q12 46 56 80.5t95 34.5q55 0 85 -39q17 -25 17 -55q0 -14 -4 -30q-5 -19 -15 -35l-534 -1266q-12 -46 -56 -80.5t-95 -34.5q-56 0 -83 40q-19 23 -19 54q0 14 4 29z" />
    <glyph glyph-name="x" unicode="x" 
d="M663 508l-370 -419q-32 -42 -74.5 -75.5t-93.5 -33.5q-56 0 -83 40q-19 23 -19 54q0 14 5 30q12 45 71 108l479 542l-189 541q-17 42 -17 77q0 17 3 32q13 47 57 81.5t95 34.5q55 0 81.5 -36t35.5 -80l144 -412l371 419q32 42 74.5 75.5t93.5 33.5q55 0 85 -39
q17 -25 17 -55q0 -14 -5 -30q-12 -45 -71 -108l-479 -542l189 -541q17 -42 17 -77q0 -17 -3 -32q-13 -47 -57 -81.5t-95 -34.5q-55 0 -81.5 36t-35.5 80z" />
    <glyph glyph-name="y" unicode="y" 
d="M591 715l-10 30l-192 550q-17 42 -17 77q0 17 3 32q13 47 57 81.5t95 34.5q55 0 81.5 -36t35.5 -80l144 -412l371 419q32 42 74.5 75.5t93.5 33.5q55 0 85 -39q17 -25 17 -55q0 -14 -5 -30q-12 -45 -71 -108l-486 -549l-27 -31l-164 -612q-12 -47 -56 -81.5t-95 -34.5
q-56 0 -83 40q-19 23 -19 54q0 14 5 30z" />
    <glyph glyph-name="z" unicode="z" 
d="M771 630l-362 -410h570q55 0 85 -39q17 -25 17 -55q0 -14 -5 -30q-12 -47 -56 -81.5t-95 -34.5h-800q-56 0 -83 40q-19 23 -19 54q0 14 5 30q12 45 71 108l369 418h-69q-56 0 -83 40q-19 23 -19 54q0 14 5 30q12 47 56 81.5t95 34.5h228l362 410h-570q-56 0 -83 40
q-19 23 -19 54q0 14 5 30q12 47 56 81.5t95 34.5h800q55 0 85 -39q17 -25 17 -55q0 -14 -5 -30q-12 -45 -71 -108l-369 -418h69q55 0 85 -39q17 -25 17 -55q0 -14 -5 -30q-12 -47 -56 -81.5t-95 -34.5h-228z" />
    <glyph glyph-name="braceleft" unicode="{" 
d="M639 1079l34 125q56 213 248.5 364.5t409.5 151.5h50q55 0 85 -39q17 -25 17 -55q0 -14 -5 -30q-12 -47 -56 -81.5t-95 -34.5h-50q-114 0 -219 -83t-137 -201l-34 -125q-48 -182 -211 -310q-17 -14 -18 -14l9 -11q63 -87 63 -196q0 -57 -17 -119l-34 -125
q-10 -40 -10 -76q0 -69 40 -122q56 -78 166 -78h50q55 0 85 -39q17 -25 17 -55q0 -14 -5 -30q-12 -47 -56 -81.5t-95 -34.5h-50q-221 0 -336 157q-74 101 -74 229q0 66 20 138l34 125q8 30 8 56q0 50 -29 89q-41 56 -120 56h-25q-56 0 -83 40q-19 23 -19 54q0 14 5 30
q12 47 56 81.5t95 34.5h25q83 0 160 61t101 148z" />
    <glyph glyph-name="bar" unicode="|" 
d="M530 1605q12 46 56 80.5t95 34.5q55 0 85 -39q17 -25 17 -55q0 -14 -5 -30l-456 -1701q-12 -46 -56 -80.5t-95 -34.5q-56 0 -83 40q-19 23 -19 54q0 14 5 30z" />
    <glyph glyph-name="braceright" unicode="}" 
d="M987 1071q-8 -30 -8 -56q0 -50 30 -89q40 -56 119 -56h25q55 0 85 -39q17 -25 17 -55q0 -14 -5 -30q-12 -47 -56 -81.5t-95 -34.5h-25q-83 0 -160 -61t-101 -148l-34 -125q-56 -213 -248.5 -364.5t-409.5 -151.5h-50q-56 0 -83 40q-19 23 -19 54q0 14 5 30q12 47 56 81.5
t95 34.5h50q114 0 219 83t137 201l34 125q48 182 212 311q16 13 17 13l-9 12q-63 87 -63 196q0 56 17 118l34 125q10 40 10 76q0 69 -39 122q-57 78 -167 78h-50q-56 0 -83 40q-19 23 -19 54q0 14 5 30q12 47 56 81.5t95 34.5h50q221 0 336 -156q74 -102 74 -230
q0 -66 -20 -138z" />
    <glyph glyph-name="asciitilde" unicode="~" 
d="M1185 1938q19 -18 49 -18q31 0 62 24.5t41 60.5q12 46 56 80.5t95 34.5q55 0 85 -39q17 -25 17 -55q0 -14 -5 -30q-34 -130 -152 -223t-252 -93q-138 0 -201 84l-97 98q-19 18 -49 18q-31 0 -62 -24.5t-41 -60.5q-12 -46 -55.5 -80.5t-94.5 -34.5q-55 0 -84 40
q-19 23 -19 54q0 14 5 30q35 130 153 223t252 93q138 0 201 -84z" />
    <glyph glyph-name="exclamdown" unicode="&#xa1;" 
d="M396 1104q12 47 56 81.5t95 34.5q55 0 85 -39q17 -25 17 -55q0 -14 -5 -30l-268 -1000q-12 -47 -56 -81.5t-95 -34.5q-56 0 -83 40q-19 23 -19 54q0 14 5 30zM490 1320q-19 23 -19 54q0 14 5 30q12 47 56 81.5t95 34.5q55 0 85 -39q17 -25 17 -55q0 -14 -5 -30
q-12 -47 -56 -81.5t-95 -34.5q-56 0 -83 40z" />
    <glyph glyph-name="cent" unicode="&#xa2;" 
d="M376 471q-4 -16 -4 -30q0 -25 15 -44q19 -27 57 -27h55l203 760h-44q-42 0 -81.5 -31.5t-52.5 -78.5zM1183 496l-17 -66h-2q-37 -109 -151 -199q-128 -101 -273 -101h-55l-9 -34q-12 -47 -56 -81.5t-95 -34.5q-56 0 -83 40q-19 23 -19 54q0 14 5 30l6 26h-44
q-149 0 -226 105q-49 67 -49 152q0 32 2 43h-2l161 599q37 141 164 241t272 100h55l9 34q12 47 56 81.5t95 34.5q55 0 85 -39q17 -25 17 -55q0 -14 -5 -30l-6 -26h44q149 0 227 -105q48 -68 48 -153q0 -43 -13 -91q-12 -47 -56 -81.5t-95 -34.5q-56 0 -83 40q-19 23 -19 54
q0 14 5 30q4 16 4 30q0 25 -15 45q-19 26 -57 26h-55l-203 -760h44q42 0 82 31q30 24 51 69h-1l9 34q12 47 56 81.5t95 34.5q55 0 85 -39q17 -25 17 -55q0 -14 -5 -30z" />
    <glyph glyph-name="sterling" unicode="&#xa3;" 
d="M1109 1155q5 18 5 35q0 32 -18 56q-25 34 -73 34q-52 0 -101 -39t-65 -95l-73 -276h269q55 0 85 -39q17 -25 17 -55q0 -14 -5 -30q-12 -47 -56 -81.5t-95 -34.5h-280l-109 -410h369q55 0 85 -39q17 -25 17 -55q0 -14 -5 -30q-12 -47 -56 -81.5t-95 -34.5h-800
q-56 0 -83 40q-19 23 -19 54q0 14 5 30q12 47 56 81.5t95 34.5h180l109 410h-69q-56 0 -83 40q-19 23 -19 54q0 14 5 30q12 47 56 81.5t95 34.5h80l76 284q40 151 176.5 258.5t291.5 107.5q159 0 242 -112q52 -73 52 -164q0 -46 -14 -98q-12 -47 -56 -81.5t-95 -34.5
q-56 0 -83 40q-19 23 -19 54q0 14 5 31z" />
    <glyph glyph-name="currency" unicode="&#xa4;" 
d="M774 676.5q40 31.5 53 77.5q4 16 4 30q0 25 -15 45q-19 26 -57 26q-42 0 -81.5 -31.5t-52.5 -77.5q-4 -16 -4 -30q0 -25 15 -44q18 -27 56 -27q42 0 82 31.5zM948 536l115 -331q17 -42 17 -77q0 -17 -3 -32q-13 -47 -57 -81.5t-95 -34.5q-55 0 -81.5 36t-35.5 80
l-109 313q-18 -4 -60 -4t-63 5l-283 -321q-32 -42 -74.5 -75.5t-93.5 -33.5q-56 0 -83 40q-19 23 -19 54q0 14 5 30q12 45 71 108l292 331q-27 49 -27 119q0 44 13 92q33 125 127 210l-115 331q-17 42 -17 77q0 17 3 32q13 47 57 81.5t95 34.5q55 0 81.5 -36t35.5 -80
l109 -313q18 4 60 4t63 -5l283 321q32 42 74.5 75.5t93.5 33.5q55 0 85 -39q17 -25 17 -55q0 -14 -5 -30q-12 -45 -71 -108l-292 -331q27 -49 27 -119q0 -44 -13 -92q-33 -125 -127 -210z" />
    <glyph glyph-name="yen" unicode="&#xa5;" 
d="M699 180l-23 -84q-12 -47 -56 -81.5t-95 -34.5q-56 0 -83 40q-19 23 -19 54q0 14 5 30l20 76h-169q-55 0 -84 40q-19 23 -19 54q0 14 5 30q12 47 56 81.5t95 34.5h180l43 160h-169q-56 0 -83 40q-19 23 -19 54q0 14 5 30q12 47 55.5 81.5t94.5 34.5h115l-165 475
q-17 42 -17 77q0 17 3 32q13 47 57 81.5t95 34.5q55 0 81.5 -36t35.5 -80l144 -412l371 419q32 42 74.5 75.5t93.5 33.5q55 0 85 -39q17 -25 17 -55q0 -14 -5 -30q-12 -45 -71 -108l-414 -468h100q55 0 84 -39q19 -25 19 -55q0 -14 -5 -30q-12 -47 -56 -81.5t-95 -34.5h-180
l-43 -160h169q55 0 85 -39q17 -25 17 -55q0 -14 -5 -30q-12 -47 -55.5 -81.5t-94.5 -34.5h-180z" />
    <glyph glyph-name="brokenbar" unicode="&#xa6;" 
d="M604 946q-12 -47 -56 -81.5t-95 -34.5q-56 0 -83 40q-19 23 -19 54q0 14 5 30l174 650q12 47 56 81.5t95 34.5q55 0 85 -39q17 -25 17 -55q0 -14 -5 -30zM322 -104q-12 -47 -56 -81.5t-95 -34.5q-56 0 -83 40q-19 23 -19 54q0 14 5 30l174 650q12 47 56 81.5t95 34.5
q55 0 85 -39q17 -25 17 -55q0 -14 -5 -30z" />
    <glyph glyph-name="section" unicode="&#xa7;" 
d="M774 676.5q40 31.5 53 77.5q4 16 4 30q0 25 -15 45q-19 26 -57 26q-42 0 -81.5 -31.5t-52.5 -77.5q-4 -16 -4 -30q0 -25 15 -44q18 -27 56 -27q42 0 82 31.5zM369 724q-15 15 -34 41q-63 87 -63 196q0 56 17 118l54 200q48 182 212.5 311.5t350.5 129.5h150
q190 0 289 -134q63 -88 63 -197q0 -56 -17 -118q-12 -47 -56 -81.5t-95 -34.5q-56 0 -83 40q-19 23 -19 54q0 14 5 30q8 30 8 56q0 50 -29 89q-41 56 -120 56h-150q-83 0 -160 -61t-101 -147l-53 -201q-8 -30 -8 -56q0 -29 -2 -29v1l-3 -3q0 -1 1 -1t15 11q127 101 272 101
q149 0 227 -105q49 -68 49 -152q0 -35 -6 -62q14 -15 34 -40q63 -87 63 -197q0 -56 -17 -118l-54 -200q-48 -182 -212.5 -311.5t-350.5 -129.5h-150q-190 0 -289 135q-63 87 -63 196q0 56 17 118q12 47 56 81.5t95 34.5q55 0 85 -39q17 -25 17 -55q0 -14 -5 -30
q-8 -30 -8 -56q0 -50 30 -89q40 -56 119 -56h150q83 0 160 61t102 149l52 199q8 30 8 56q0 29 2 29v-1l3 3q0 1 -1 1t-15 -11q-127 -101 -272 -101q-149 0 -227 105q-49 68 -49 152q0 35 6 62z" />
    <glyph glyph-name="dieresis" unicode="&#xa8;" 
d="M919 1881q17 -25 17 -55q0 -14 -5 -30q-12 -47 -55.5 -81.5t-94.5 -34.5q-55 0 -84 40q-19 23 -19 54q0 14 5 30q12 47 56 81.5t95 34.5q55 0 85 -39zM1319 1881q17 -25 17 -55q0 -14 -5 -30q-12 -47 -55.5 -81.5t-94.5 -34.5q-55 0 -84 40q-19 23 -19 54q0 14 5 30
q12 47 56 81.5t95 34.5q55 0 85 -39z" />
    <glyph glyph-name="copyright" unicode="&#xa9;" horiz-adv-x="1300" 
d="M968 1004q7 27 32.5 46.5t55.5 19.5q35 0 54 -24q10 -15 10 -33q0 -8 -3 -17q-29 -109 -128.5 -187.5t-212.5 -78.5q-118 0 -179 84q-39 53 -39 119q0 34 11 71l67 250q29 110 128 188t213 78q117 0 178 -83q40 -53 40 -120q0 -33 -11 -71q-7 -26 -32 -46t-55 -20
q-35 0 -54 25q-10 15 -10 32q0 8 3 18q5 18 5 35q0 32 -18 56q-25 34 -73 34q-52 0 -101 -39t-65 -95l-67 -250q-5 -19 -5 -36q0 -32 18 -56q25 -34 73 -34q52 0 101 39t64 95zM1004 1580q-133 0 -267.5 -133.5t-186.5 -325.5q-22 -86 -22 -160q0 -92 34 -164
q59 -127 187 -127q133 0 267.5 133.5t185.5 325.5q23 86 23 161q0 91 -34 163q-59 127 -187 127zM1416 1611q66 -121 66 -270q0 -103 -32 -220q-75 -285 -295.5 -488t-458.5 -203q-244 0 -359 210q-66 121 -66 271q0 102 31 218q76 285 296 488t459 203q244 0 359 -209z" />
    <glyph glyph-name="ordfeminine" unicode="&#xaa;" horiz-adv-x="1650" 
d="M0 200v1100q0 200 200 200h1100q200 0 200 -200v-1100q0 -200 -200 -200h-1100q-200 0 -200 200zM1475 201v1099q0 175 -175 175h-1100q-174 0 -175 -175v-1100q1 -175 175 -175h1101q174 0 174 176z" />
    <glyph glyph-name="guillemotleft" unicode="&#xab;" 
d="M802 330q19 -23 19 -54q0 -14 -5 -30q-12 -47 -56 -81.5t-95 -34.5q-55 0 -84 39l-367 500q-17 25 -17 54q0 15 5 31q12 47 54 81l635 499q45 36 96 36q55 0 85 -39q17 -25 17 -55q0 -14 -5 -30q-12 -47 -56 -81l-531 -418zM1202 330q19 -23 19 -54q0 -14 -5 -30
q-12 -47 -56 -81.5t-95 -34.5q-55 0 -84 39l-367 500q-17 25 -17 54q0 15 5 31q12 47 54 81l635 499q45 36 96 36q55 0 85 -39q17 -25 17 -55q0 -14 -5 -30q-12 -47 -56 -81l-531 -418z" />
    <glyph glyph-name="logicalnot" unicode="&#xac;" horiz-adv-x="1650" 
d="M0 200v1100q0 200 200 200h1100q200 0 200 -200v-1100q0 -200 -200 -200h-1100q-200 0 -200 200zM1475 201v1099q0 175 -175 175h-1100q-174 0 -175 -175v-1100q1 -175 175 -175h1101q174 0 174 176z" />
    <glyph glyph-name="registered" unicode="&#xae;" horiz-adv-x="1300" 
d="M669 1379q-68 -71 -119 -258q-22 -85 -22 -160q0 -66 -8 -66q-3 0 -7 9q0 -100 1 -100zM621 699q18 -29 128 -29q114 0 148 29q81 27 81 30q0 1 -2 1q-34 0 -50 21.5t-21 44.5l-91 259h-81l-69 -259q-7 -26 -32 -46t-56 -20q-4 0 -4 -1q0 -6 49 -30zM1101 889
q50 50 101 240q23 86 23 161q0 91 -34 163q-59 127 -187 127q-114 0 -134 -16q-95 -38 -95 -43q0 -1 2 -1h238q102 0 156 -72q32 -46 32 -102q0 -30 -9 -62q-24 -94 -109 -160q-60 -48 -101 -57l73 -211q9 -22 9 -41q0 -10 -3 -19q1 0 38 93zM988 1380h-168l-49 -185h157
q36 0 71.5 28t46.5 69q3 13 3 25q0 23 -11 38q-18 25 -50 25zM1416 1611q66 -121 66 -270q0 -103 -32 -220q-76 -285 -295.5 -488t-458.5 -203q-244 0 -359 210q-67 120 -67 270q0 103 32 219q76 285 296 488t459 203q244 0 359 -209z" />
    <glyph glyph-name="macron" unicode="&#xaf;" horiz-adv-x="1650" 
d="M0 200v1100q0 200 200 200h1100q200 0 200 -200v-1100q0 -200 -200 -200h-1100q-200 0 -200 200zM1475 201v1099q0 175 -175 175h-1100q-174 0 -175 -175v-1100q1 -175 175 -175h1101q174 0 174 176z" />
    <glyph glyph-name="degree" unicode="&#xb0;" horiz-adv-x="1650" 
d="M0 200v1100q0 200 200 200h1100q200 0 200 -200v-1100q0 -200 -200 -200h-1100q-200 0 -200 200zM1475 201v1099q0 175 -175 175h-1100q-174 0 -175 -175v-1100q1 -175 175 -175h1101q174 0 174 176z" />
    <glyph glyph-name="plusminus" unicode="&#xb1;" horiz-adv-x="1650" 
d="M0 200v1100q0 200 200 200h1100q200 0 200 -200v-1100q0 -200 -200 -200h-1100q-200 0 -200 200zM1475 201v1099q0 175 -175 175h-1100q-174 0 -175 -175v-1100q1 -175 175 -175h1101q174 0 174 176z" />
    <glyph glyph-name="uni00B2" unicode="&#xb2;" horiz-adv-x="1650" 
d="M0 200v1100q0 200 200 200h1100q200 0 200 -200v-1100q0 -200 -200 -200h-1100q-200 0 -200 200zM1475 201v1099q0 175 -175 175h-1100q-174 0 -175 -175v-1100q1 -175 175 -175h1101q174 0 174 176z" />
    <glyph glyph-name="uni00B3" unicode="&#xb3;" horiz-adv-x="1650" 
d="M0 200v1100q0 200 200 200h1100q200 0 200 -200v-1100q0 -200 -200 -200h-1100q-200 0 -200 200zM1475 201v1099q0 175 -175 175h-1100q-174 0 -175 -175v-1100q1 -175 175 -175h1101q174 0 174 176z" />
    <glyph glyph-name="acute" unicode="&#xb4;" 
d="M877 1716q-45 -36 -96 -36q-55 0 -84 40q-19 23 -19 54q0 14 5 30q12 47 56 81l508 400q43 35 94 35q55 0 85 -39q17 -25 17 -55q0 -14 -5 -30q-11 -47 -54 -80z" />
    <glyph glyph-name="mu" unicode="&#xb5;" 
d="M376 1404q12 47 56 81.5t95 34.5q55 0 85 -39q17 -25 17 -55q0 -14 -5 -30l-241 -900q-10 -40 -10 -76q0 -69 40 -122q56 -78 166 -78q114 0 219 83t137 201l241 900q12 47 56 81.5t95 34.5q55 0 85 -39q17 -25 17 -55q0 -14 -5 -30l-241 -900q-56 -213 -248.5 -364.5
t-409.5 -151.5q-183 0 -260 75q-1 -6 -44 -39q-45 -36 -96 -36q-56 0 -83 40q-19 23 -19 54q0 14 5 30z" />
    <glyph glyph-name="paragraph" unicode="&#xb6;" horiz-adv-x="1024" 
d="M1370 1455l-30 -110h-127l-366 -1365h-133l366 1365h-115l-366 -1365h-135l198 739q-155 8 -238 111q-54 66 -54 159q0 47 15 101q43 163 183.5 264t327.5 101h474z" />
    <glyph glyph-name="periodcentered" unicode="&#xb7;" 
d="M523 781q19 -25 19 -55q0 -14 -5 -30q-12 -47 -56 -81.5t-95 -34.5q-56 0 -83 40q-19 23 -19 54q0 14 5 30q12 47 55.5 81.5t94.5 34.5q55 0 84 -39z" />
    <glyph glyph-name="periodcentered" unicode="&#x2219;" 
d="M523 781q19 -25 19 -55q0 -14 -5 -30q-12 -47 -56 -81.5t-95 -34.5q-56 0 -83 40q-19 23 -19 54q0 14 5 30q12 47 55.5 81.5t94.5 34.5q55 0 84 -39z" />
    <glyph glyph-name="cedilla" unicode="&#xb8;" 
d="M171 -180h75q83 0 160.5 61t101.5 148q12 47 55.5 81.5t94.5 34.5q55 0 84 -39q19 -25 19 -55q0 -14 -5 -30q-48 -182 -212.5 -311.5t-350.5 -129.5h-75q-56 0 -83 40q-19 23 -19 54q0 14 5 30q12 47 55.5 81.5t94.5 34.5z" />
    <glyph glyph-name="uni00B9" unicode="&#xb9;" horiz-adv-x="1650" 
d="M0 200v1100q0 200 200 200h1100q200 0 200 -200v-1100q0 -200 -200 -200h-1100q-200 0 -200 200zM1475 201v1099q0 175 -175 175h-1100q-174 0 -175 -175v-1100q1 -175 175 -175h1101q174 0 174 176z" />
    <glyph glyph-name="ordmasculine" unicode="&#xba;" horiz-adv-x="1650" 
d="M0 200v1100q0 200 200 200h1100q200 0 200 -200v-1100q0 -200 -200 -200h-1100q-200 0 -200 200zM1475 201v1099q0 175 -175 175h-1100q-174 0 -175 -175v-1100q1 -175 175 -175h1101q174 0 174 176z" />
    <glyph glyph-name="guillemotright" unicode="&#xbb;" 
d="M1055 753l-306 416q-18 25 -18 55q0 14 5 30q12 47 56 81.5t95 34.5q55 0 83 -38l368 -501q17 -25 17 -54q0 -15 -5 -31q-12 -47 -54 -81l-635 -500q-45 -35 -96 -35q-56 0 -83 40q-19 23 -19 54q0 14 5 30q12 47 56 80zM655 753l-306 416q-18 25 -18 55q0 14 5 30
q12 47 56 81.5t95 34.5q55 0 83 -38l368 -501q17 -25 17 -54q0 -15 -5 -31q-12 -47 -54 -81l-635 -500q-45 -35 -96 -35q-56 0 -83 40q-19 23 -19 54q0 14 5 30q12 47 56 80z" />
    <glyph glyph-name="onequarter" unicode="&#xbc;" horiz-adv-x="1650" 
d="M0 200v1100q0 200 200 200h1100q200 0 200 -200v-1100q0 -200 -200 -200h-1100q-200 0 -200 200zM1475 201v1099q0 175 -175 175h-1100q-174 0 -175 -175v-1100q1 -175 175 -175h1101q174 0 174 176z" />
    <glyph glyph-name="onehalf" unicode="&#xbd;" horiz-adv-x="1650" 
d="M0 200v1100q0 200 200 200h1100q200 0 200 -200v-1100q0 -200 -200 -200h-1100q-200 0 -200 200zM1475 201v1099q0 175 -175 175h-1100q-174 0 -175 -175v-1100q1 -175 175 -175h1101q174 0 174 176z" />
    <glyph glyph-name="threequarters" unicode="&#xbe;" horiz-adv-x="1650" 
d="M0 200v1100q0 200 200 200h1100q200 0 200 -200v-1100q0 -200 -200 -200h-1100q-200 0 -200 200zM1475 201v1099q0 175 -175 175h-1100q-174 0 -175 -175v-1100q1 -175 175 -175h1101q174 0 174 176z" />
    <glyph glyph-name="questiondown" unicode="&#xbf;" 
d="M1237 1071q-48 -182 -212.5 -311.5t-350.5 -129.5h-50q-83 0 -160 -61t-101 -148q-8 -30 -8 -56q0 -50 30 -89q40 -56 119 -56h150q83 0 160 61t101 148q12 47 56 81.5t95 34.5q55 0 85 -39q17 -25 17 -55q0 -14 -5 -30q-48 -182 -212.5 -311.5t-350.5 -129.5h-150
q-190 0 -289 135q-63 87 -63 196q0 56 17 118q48 182 212.5 311.5t350.5 129.5h50q83 0 160 61t101 148l7 25q12 47 56 81.5t95 34.5q55 0 85 -39q17 -25 17 -55q0 -14 -5 -30zM1090 1320q-19 23 -19 54q0 14 5 30q12 47 56 81.5t95 34.5q55 0 85 -39q17 -25 17 -55
q0 -14 -5 -30q-12 -47 -56 -81.5t-95 -34.5q-56 0 -83 40z" />
    <glyph glyph-name="Agrave" unicode="&#xc0;" 
d="M386 280l-96 -168q-38 -64 -75.5 -98t-89.5 -34q-56 0 -83 40q-19 23 -19 54q0 14 5 30q9 37 43 85l718 1251h1q9 19 42 44q44 36 95 36q55 0 85 -40q16 -24 16 -51v11h1l49 -1258q4 -23 4 -43q0 -23 -6 -43q-12 -47 -56 -81.5t-95 -34.5q-57 0 -78 37t-25 102l-6 161
h-430zM807 520l-17 466l-266 -466h283zM804 2120q-18 25 -18 56q0 13 3 28q13 47 57 81.5t95 34.5q55 0 85 -39l293 -400q17 -25 17 -54q0 -15 -5 -31q-12 -47 -55.5 -81.5t-94.5 -34.5q-56 0 -84 40z" />
    <glyph glyph-name="Aacute" unicode="&#xc1;" 
d="M386 280l-96 -168q-38 -64 -75.5 -98t-89.5 -34q-56 0 -83 40q-19 23 -19 54q0 14 5 30q9 37 43 85l718 1251h1q9 19 42 44q44 36 95 36q55 0 85 -40q16 -24 16 -51v11h1l49 -1258q4 -23 4 -43q0 -23 -6 -43q-12 -47 -56 -81.5t-95 -34.5q-57 0 -78 37t-25 102l-6 161
h-430zM807 520l-17 466l-266 -466h283zM877 1716q-45 -36 -96 -36q-55 0 -84 40q-19 23 -19 54q0 14 5 30q12 47 56 81l508 400q43 35 94 35q55 0 85 -39q17 -25 17 -55q0 -14 -5 -30q-11 -47 -54 -80z" />
    <glyph glyph-name="Acircumflex" unicode="&#xc2;" 
d="M386 280l-96 -168q-38 -64 -75.5 -98t-89.5 -34q-56 0 -83 40q-19 23 -19 54q0 14 5 30q9 37 43 85l718 1251h1q9 19 42 44q44 36 95 36q55 0 85 -40q16 -24 16 -51v11h1l49 -1258q4 -23 4 -43q0 -23 -6 -43q-12 -47 -56 -81.5t-95 -34.5q-57 0 -78 37t-25 102l-6 161
h-430zM807 520l-17 466l-266 -466h283zM1073 2028l-398 -314q-43 -34 -94 -34q-55 0 -84 40q-19 23 -19 54q0 14 5 30q12 47 56 81l508 400q43 35 94 35q55 0 85 -39l293 -400q17 -25 17 -54q0 -15 -5 -31q-12 -47 -55.5 -81.5t-94.5 -34.5q-56 0 -84 40z" />
    <glyph glyph-name="Atilde" unicode="&#xc3;" 
d="M386 280l-96 -168q-38 -64 -75.5 -98t-89.5 -34q-56 0 -83 40q-19 23 -19 54q0 14 5 30q9 37 43 85l718 1251h1q9 19 42 44q44 36 95 36q55 0 85 -40q16 -24 16 -51v11h1l49 -1258q4 -23 4 -43q0 -23 -6 -43q-12 -47 -56 -81.5t-95 -34.5q-57 0 -78 37t-25 102l-6 161
h-430zM807 520l-17 466l-266 -466h283zM1185 1938q19 -18 49 -18q31 0 62 24.5t41 60.5q12 46 56 80.5t95 34.5q55 0 85 -39q17 -25 17 -55q0 -14 -5 -30q-34 -130 -152 -223t-252 -93q-138 0 -201 84l-97 98q-19 18 -49 18q-31 0 -62 -24.5t-41 -60.5q-12 -46 -55.5 -80.5
t-94.5 -34.5q-55 0 -84 40q-19 23 -19 54q0 14 5 30q35 130 153 223t252 93q138 0 201 -84z" />
    <glyph glyph-name="Adieresis" unicode="&#xc4;" 
d="M386 280l-96 -168q-38 -64 -75.5 -98t-89.5 -34q-56 0 -83 40q-19 23 -19 54q0 14 5 30q9 37 43 85l718 1251h1q9 19 42 44q44 36 95 36q55 0 85 -40q16 -24 16 -51v11h1l49 -1258q4 -23 4 -43q0 -23 -6 -43q-12 -47 -56 -81.5t-95 -34.5q-57 0 -78 37t-25 102l-6 161
h-430zM807 520l-17 466l-266 -466h283zM919 1881q17 -25 17 -55q0 -14 -5 -30q-12 -47 -55.5 -81.5t-94.5 -34.5q-55 0 -84 40q-19 23 -19 54q0 14 5 30q12 47 56 81.5t95 34.5q55 0 85 -39zM1319 1881q17 -25 17 -55q0 -14 -5 -30q-12 -47 -55.5 -81.5t-94.5 -34.5
q-55 0 -84 40q-19 23 -19 54q0 14 5 30q12 47 56 81.5t95 34.5q55 0 85 -39z" />
    <glyph glyph-name="Aring" unicode="&#xc5;" 
d="M386 280l-96 -168q-38 -64 -75.5 -98t-89.5 -34q-56 0 -83 40q-19 23 -19 54q0 14 5 30q9 37 43 85l718 1251h1q9 19 42 44q44 36 95 36q55 0 85 -40q16 -24 16 -51v11h1l49 -1258q4 -23 4 -43q0 -23 -6 -43q-12 -47 -56 -81.5t-95 -34.5q-57 0 -78 37t-25 102l-6 161
h-430zM807 520l-17 466l-266 -466h283zM981 1680q-138 0 -210 98q-46 63 -46 142q0 40 12 84q34 130 152 223t252 93q138 0 211 -98q45 -63 45 -142q0 -40 -12 -84q-34 -130 -152 -223t-252 -93zM1096 1944.5q31 24.5 41 59.5q3 12 3 22q0 20 -11 35q-14 19 -41 19
q-31 0 -62 -24.5t-41 -59.5q-3 -12 -3 -22q0 -19 11 -34q15 -20 41 -20q31 0 62 24.5z" />
    <glyph glyph-name="AE" unicode="&#xc6;" 
d="M1427 1520q55 0 85 -39q17 -25 17 -55q0 -14 -5 -30q-12 -47 -56 -81.5t-95 -34.5h-280l-109 -410h169q55 0 85 -39q17 -25 17 -55q0 -14 -5 -30q-12 -47 -56 -81.5t-95 -34.5h-180l-109 -410h269q55 0 85 -39q17 -25 17 -55q0 -14 -5 -30q-12 -47 -56 -81.5t-95 -34.5
h-400q-56 0 -83 40q-19 23 -19 54q0 14 5 30l46 176h-188l-96 -168q-38 -64 -75.5 -98t-89.5 -34q-56 0 -83 40q-19 23 -19 54q0 14 5 30q9 37 43 85l718 1251h1q9 19 42 44q44 36 95 36h500zM740 898l-216 -378h115z" />
    <glyph glyph-name="Ccedilla" unicode="&#xc7;" 
d="M490 -20q-186 0 -301 157q-74 101 -74 230q0 65 20 137l134 500q56 213 248.5 364.5t409.5 151.5q221 0 336 -156q74 -102 74 -230q0 -66 -20 -138q-12 -47 -56 -81.5t-95 -34.5q-56 0 -83 40q-19 23 -19 54q0 14 5 30q10 40 10 76q0 69 -39 122q-57 78 -167 78
q-114 0 -219 -83t-137 -201l-134 -500q-10 -40 -10 -76q0 -69 40 -122q56 -78 166 -78q114 0 219 83t137 201q12 47 56 81.5t95 34.5q55 0 85 -39q17 -25 17 -55q0 -14 -5 -30q-56 -213 -248 -363q-93 -74 -177 -106l-1 -6q-49 -182 -213.5 -311.5t-350.5 -129.5h-75
q-56 0 -83 40q-19 23 -19 54q0 14 5 30q12 47 55.5 81.5t94.5 34.5h75q83 0 160 60q67 53 84 100z" />
    <glyph glyph-name="Egrave" unicode="&#xc8;" 
d="M979 220q55 0 85 -39q17 -25 17 -55q0 -14 -5 -30q-12 -47 -56 -81.5t-95 -34.5h-800q-56 0 -83 40q-19 23 -19 54q0 14 5 30l348 1300q12 47 56 81.5t95 34.5h800q55 0 85 -39q17 -25 17 -55q0 -14 -5 -30q-12 -47 -56 -81.5t-95 -34.5h-680l-109 -410h569q55 0 85 -39
q17 -25 17 -55q0 -14 -5 -30q-12 -47 -56 -81.5t-95 -34.5h-580l-109 -410h669zM804 2120q-18 25 -18 56q0 13 3 28q13 47 57 81.5t95 34.5q55 0 85 -39l293 -400q17 -25 17 -54q0 -15 -5 -31q-12 -47 -55.5 -81.5t-94.5 -34.5q-56 0 -84 40z" />
    <glyph glyph-name="Eacute" unicode="&#xc9;" 
d="M979 220q55 0 85 -39q17 -25 17 -55q0 -14 -5 -30q-12 -47 -56 -81.5t-95 -34.5h-800q-56 0 -83 40q-19 23 -19 54q0 14 5 30l348 1300q12 47 56 81.5t95 34.5h800q55 0 85 -39q17 -25 17 -55q0 -14 -5 -30q-12 -47 -56 -81.5t-95 -34.5h-680l-109 -410h569q55 0 85 -39
q17 -25 17 -55q0 -14 -5 -30q-12 -47 -56 -81.5t-95 -34.5h-580l-109 -410h669zM877 1716q-45 -36 -96 -36q-55 0 -84 40q-19 23 -19 54q0 14 5 30q12 47 56 81l508 400q43 35 94 35q55 0 85 -39q17 -25 17 -55q0 -14 -5 -30q-11 -47 -54 -80z" />
    <glyph glyph-name="Ecircumflex" unicode="&#xca;" 
d="M979 220q55 0 85 -39q17 -25 17 -55q0 -14 -5 -30q-12 -47 -56 -81.5t-95 -34.5h-800q-56 0 -83 40q-19 23 -19 54q0 14 5 30l348 1300q12 47 56 81.5t95 34.5h800q55 0 85 -39q17 -25 17 -55q0 -14 -5 -30q-12 -47 -56 -81.5t-95 -34.5h-680l-109 -410h569q55 0 85 -39
q17 -25 17 -55q0 -14 -5 -30q-12 -47 -56 -81.5t-95 -34.5h-580l-109 -410h669zM1073 2028l-398 -314q-43 -34 -94 -34q-55 0 -84 40q-19 23 -19 54q0 14 5 30q12 47 56 81l508 400q43 35 94 35q55 0 85 -39l293 -400q17 -25 17 -54q0 -15 -5 -31q-12 -47 -55.5 -81.5
t-94.5 -34.5q-56 0 -84 40z" />
    <glyph glyph-name="Edieresis" unicode="&#xcb;" 
d="M979 220q55 0 85 -39q17 -25 17 -55q0 -14 -5 -30q-12 -47 -56 -81.5t-95 -34.5h-800q-56 0 -83 40q-19 23 -19 54q0 14 5 30l348 1300q12 47 56 81.5t95 34.5h800q55 0 85 -39q17 -25 17 -55q0 -14 -5 -30q-12 -47 -56 -81.5t-95 -34.5h-680l-109 -410h569q55 0 85 -39
q17 -25 17 -55q0 -14 -5 -30q-12 -47 -56 -81.5t-95 -34.5h-580l-109 -410h669zM919 1881q17 -25 17 -55q0 -14 -5 -30q-12 -47 -55.5 -81.5t-94.5 -34.5q-55 0 -84 40q-19 23 -19 54q0 14 5 30q12 47 56 81.5t95 34.5q55 0 85 -39zM1319 1881q17 -25 17 -55q0 -14 -5 -30
q-12 -47 -55.5 -81.5t-94.5 -34.5q-55 0 -84 40q-19 23 -19 54q0 14 5 30q12 47 56 81.5t95 34.5q55 0 85 -39z" />
    <glyph glyph-name="Igrave" unicode="&#xcc;" 
d="M459 220l283 1060h-269q-56 0 -83 40q-19 23 -19 54q0 14 5 30q12 47 56 81.5t95 34.5h800q55 0 85 -39q17 -25 17 -55q0 -14 -5 -30q-12 -47 -56 -81.5t-95 -34.5h-280l-283 -1060h269q55 0 85 -39q17 -25 17 -55q0 -14 -5 -30q-12 -47 -56 -81.5t-95 -34.5h-800
q-56 0 -83 40q-19 23 -19 54q0 14 5 30q12 47 56 81.5t95 34.5h280zM804 2120q-18 25 -18 56q0 13 3 28q13 47 57 81.5t95 34.5q55 0 85 -39l293 -400q17 -25 17 -54q0 -15 -5 -31q-12 -47 -55.5 -81.5t-94.5 -34.5q-56 0 -84 40z" />
    <glyph glyph-name="Iacute" unicode="&#xcd;" 
d="M459 220l283 1060h-269q-56 0 -83 40q-19 23 -19 54q0 14 5 30q12 47 56 81.5t95 34.5h800q55 0 85 -39q17 -25 17 -55q0 -14 -5 -30q-12 -47 -56 -81.5t-95 -34.5h-280l-283 -1060h269q55 0 85 -39q17 -25 17 -55q0 -14 -5 -30q-12 -47 -56 -81.5t-95 -34.5h-800
q-56 0 -83 40q-19 23 -19 54q0 14 5 30q12 47 56 81.5t95 34.5h280zM877 1716q-45 -36 -96 -36q-55 0 -84 40q-19 23 -19 54q0 14 5 30q12 47 56 81l508 400q43 35 94 35q55 0 85 -39q17 -25 17 -55q0 -14 -5 -30q-11 -47 -54 -80z" />
    <glyph glyph-name="Icircumflex" unicode="&#xce;" 
d="M459 220l283 1060h-269q-56 0 -83 40q-19 23 -19 54q0 14 5 30q12 47 56 81.5t95 34.5h800q55 0 85 -39q17 -25 17 -55q0 -14 -5 -30q-12 -47 -56 -81.5t-95 -34.5h-280l-283 -1060h269q55 0 85 -39q17 -25 17 -55q0 -14 -5 -30q-12 -47 -56 -81.5t-95 -34.5h-800
q-56 0 -83 40q-19 23 -19 54q0 14 5 30q12 47 56 81.5t95 34.5h280zM1073 2028l-398 -314q-43 -34 -94 -34q-55 0 -84 40q-19 23 -19 54q0 14 5 30q12 47 56 81l508 400q43 35 94 35q55 0 85 -39l293 -400q17 -25 17 -54q0 -15 -5 -31q-12 -47 -55.5 -81.5t-94.5 -34.5
q-56 0 -84 40z" />
    <glyph glyph-name="Idieresis" unicode="&#xcf;" 
d="M459 220l283 1060h-269q-56 0 -83 40q-19 23 -19 54q0 14 5 30q12 47 56 81.5t95 34.5h800q55 0 85 -39q17 -25 17 -55q0 -14 -5 -30q-12 -47 -56 -81.5t-95 -34.5h-280l-283 -1060h269q55 0 85 -39q17 -25 17 -55q0 -14 -5 -30q-12 -47 -56 -81.5t-95 -34.5h-800
q-56 0 -83 40q-19 23 -19 54q0 14 5 30q12 47 56 81.5t95 34.5h280zM919 1881q17 -25 17 -55q0 -14 -5 -30q-12 -47 -55.5 -81.5t-94.5 -34.5q-55 0 -84 40q-19 23 -19 54q0 14 5 30q12 47 56 81.5t95 34.5q55 0 85 -39zM1319 1881q17 -25 17 -55q0 -14 -5 -30
q-12 -47 -55.5 -81.5t-94.5 -34.5q-55 0 -84 40q-19 23 -19 54q0 14 5 30q12 47 56 81.5t95 34.5q55 0 85 -39z" />
    <glyph glyph-name="Eth" unicode="&#xd0;" 
d="M419 630l-109 -410h269q114 0 219 83t137 201l134 500q10 40 10 76q0 69 -39 122q-57 78 -167 78h-280l-109 -410h269q55 0 85 -39q17 -25 17 -55q0 -14 -5 -30q-12 -47 -56 -81.5t-95 -34.5h-280zM125 -20q-56 0 -83 40q-19 23 -19 54q0 14 5 30l348 1300q12 47 56 81.5
t95 34.5h400q221 0 336 -156q74 -102 74 -230q0 -66 -20 -138l-134 -500q-56 -213 -248.5 -364.5t-409.5 -151.5h-400z" />
    <glyph glyph-name="Ntilde" unicode="&#xd1;" 
d="M644 1404l301 -862l231 862q12 47 56 81.5t95 34.5q55 0 85 -39q17 -25 17 -55q0 -14 -5 -30l-348 -1300q-12 -47 -56 -81.5t-95 -34.5q-55 0 -81.5 36t-35.5 80l-301 862l-231 -862q-12 -47 -56 -81.5t-95 -34.5q-56 0 -83 40q-19 23 -19 54q0 14 5 30l348 1300
q12 47 56 81.5t95 34.5q55 0 81.5 -36t35.5 -80zM1185 1938q19 -18 49 -18q31 0 62 24.5t41 60.5q12 46 56 80.5t95 34.5q55 0 85 -39q17 -25 17 -55q0 -14 -5 -30q-34 -130 -152 -223t-252 -93q-138 0 -201 84l-97 98q-19 18 -49 18q-31 0 -62 -24.5t-41 -60.5
q-12 -46 -55.5 -80.5t-94.5 -34.5q-55 0 -84 40q-19 23 -19 54q0 14 5 30q35 130 153 223t252 93q138 0 201 -84z" />
    <glyph glyph-name="Ograve" unicode="&#xd2;" 
d="M1183 496q-56 -213 -248.5 -364.5t-409.5 -151.5q-221 0 -336 157q-74 101 -74 229q0 66 20 138l134 500q56 213 248.5 364.5t409.5 151.5q221 0 336 -156q74 -102 74 -230q0 -66 -20 -138zM383 496q-10 -40 -10 -76q0 -69 40 -122q56 -78 166 -78q114 0 219 83t137 201
l134 500q10 40 10 76q0 69 -39 122q-57 78 -167 78q-114 0 -219 -83t-137 -201zM804 2120q-18 25 -18 56q0 13 3 28q13 47 57 81.5t95 34.5q55 0 85 -39l293 -400q17 -25 17 -54q0 -15 -5 -31q-12 -47 -55.5 -81.5t-94.5 -34.5q-56 0 -84 40z" />
    <glyph glyph-name="Oacute" unicode="&#xd3;" 
d="M1183 496q-56 -213 -248.5 -364.5t-409.5 -151.5q-221 0 -336 157q-74 101 -74 229q0 66 20 138l134 500q56 213 248.5 364.5t409.5 151.5q221 0 336 -156q74 -102 74 -230q0 -66 -20 -138zM383 496q-10 -40 -10 -76q0 -69 40 -122q56 -78 166 -78q114 0 219 83t137 201
l134 500q10 40 10 76q0 69 -39 122q-57 78 -167 78q-114 0 -219 -83t-137 -201zM877 1716q-45 -36 -96 -36q-55 0 -84 40q-19 23 -19 54q0 14 5 30q12 47 56 81l508 400q43 35 94 35q55 0 85 -39q17 -25 17 -55q0 -14 -5 -30q-11 -47 -54 -80z" />
    <glyph glyph-name="Ocircumflex" unicode="&#xd4;" 
d="M1183 496q-56 -213 -248.5 -364.5t-409.5 -151.5q-221 0 -336 157q-74 101 -74 229q0 66 20 138l134 500q56 213 248.5 364.5t409.5 151.5q221 0 336 -156q74 -102 74 -230q0 -66 -20 -138zM383 496q-10 -40 -10 -76q0 -69 40 -122q56 -78 166 -78q114 0 219 83t137 201
l134 500q10 40 10 76q0 69 -39 122q-57 78 -167 78q-114 0 -219 -83t-137 -201zM1073 2028l-398 -314q-43 -34 -94 -34q-55 0 -84 40q-19 23 -19 54q0 14 5 30q12 47 56 81l508 400q43 35 94 35q55 0 85 -39l293 -400q17 -25 17 -54q0 -15 -5 -31q-12 -47 -55.5 -81.5
t-94.5 -34.5q-56 0 -84 40z" />
    <glyph glyph-name="Otilde" unicode="&#xd5;" 
d="M1183 496q-56 -213 -248.5 -364.5t-409.5 -151.5q-221 0 -336 157q-74 101 -74 229q0 66 20 138l134 500q56 213 248.5 364.5t409.5 151.5q221 0 336 -156q74 -102 74 -230q0 -66 -20 -138zM383 496q-10 -40 -10 -76q0 -69 40 -122q56 -78 166 -78q114 0 219 83t137 201
l134 500q10 40 10 76q0 69 -39 122q-57 78 -167 78q-114 0 -219 -83t-137 -201zM1185 1938q19 -18 49 -18q31 0 62 24.5t41 60.5q12 46 56 80.5t95 34.5q55 0 85 -39q17 -25 17 -55q0 -14 -5 -30q-34 -130 -152 -223t-252 -93q-138 0 -201 84l-97 98q-19 18 -49 18
q-31 0 -62 -24.5t-41 -60.5q-12 -46 -55.5 -80.5t-94.5 -34.5q-55 0 -84 40q-19 23 -19 54q0 14 5 30q35 130 153 223t252 93q138 0 201 -84z" />
    <glyph glyph-name="Odieresis" unicode="&#xd6;" 
d="M1183 496q-56 -213 -248.5 -364.5t-409.5 -151.5q-221 0 -336 157q-74 101 -74 229q0 66 20 138l134 500q56 213 248.5 364.5t409.5 151.5q221 0 336 -156q74 -102 74 -230q0 -66 -20 -138zM383 496q-10 -40 -10 -76q0 -69 40 -122q56 -78 166 -78q114 0 219 83t137 201
l134 500q10 40 10 76q0 69 -39 122q-57 78 -167 78q-114 0 -219 -83t-137 -201zM919 1881q17 -25 17 -55q0 -14 -5 -30q-12 -47 -55.5 -81.5t-94.5 -34.5q-55 0 -84 40q-19 23 -19 54q0 14 5 30q12 47 56 81.5t95 34.5q55 0 85 -39zM1319 1881q17 -25 17 -55q0 -14 -5 -30
q-12 -47 -55.5 -81.5t-94.5 -34.5q-55 0 -84 40q-19 23 -19 54q0 14 5 30q12 47 56 81.5t95 34.5q55 0 85 -39z" />
    <glyph glyph-name="multiply" unicode="&#xd7;" 
d="M663 509l-283 -320q-32 -42 -74.5 -75.5t-93.5 -33.5q-56 0 -83 40q-19 23 -19 54q0 14 5 30q12 45 70 108l393 442l-155 440q-18 44 -18 79q0 16 3 31q13 47 57 81.5t95 34.5q55 0 81.5 -36t35.5 -80l111 -313l284 320q32 42 74.5 75.5t93.5 33.5q55 0 85 -39
q17 -25 17 -55q0 -14 -5 -30q-12 -45 -70 -108l-393 -442l155 -440q18 -44 18 -79q0 -16 -3 -31q-13 -47 -57 -81.5t-95 -34.5q-55 0 -81.5 36t-35.5 80z" />
    <glyph glyph-name="Oslash" unicode="&#xd8;" 
d="M397 549l610 689q-43 42 -134 42q-114 0 -219 -83t-137 -201zM1055 951l-610 -689q43 -42 134 -42q114 0 219 83t137 201zM1320 1250q17 -49 17 -116q0 -65 -20 -138l-134 -500q-56 -213 -248.5 -364.5t-409.5 -151.5q-172 0 -258 76q-12 -14 -46 -40q-45 -36 -96 -36
q-56 0 -83 40q-19 23 -19 54q0 14 5 30q12 45 71 108l33 38q-17 51 -17 116q0 66 20 138l134 500q56 213 248.5 364.5t409.5 151.5q172 0 258 -76q12 14 47 41q44 35 95 35q55 0 85 -39q17 -25 17 -55q0 -14 -5 -30q-12 -45 -71 -108z" />
    <glyph glyph-name="Ugrave" unicode="&#xd9;" 
d="M376 1404q12 47 56 81.5t95 34.5q55 0 85 -39q17 -25 17 -55q0 -14 -5 -30l-241 -900q-10 -40 -10 -76q0 -69 40 -122q56 -78 166 -78q114 0 219 83t137 201l241 900q12 47 56 81.5t95 34.5q55 0 85 -39q17 -25 17 -55q0 -14 -5 -30l-241 -900q-56 -213 -248.5 -364.5
t-409.5 -151.5q-221 0 -336 157q-74 101 -74 229q0 66 20 138zM804 2120q-18 25 -18 56q0 13 3 28q13 47 57 81.5t95 34.5q55 0 85 -39l293 -400q17 -25 17 -54q0 -15 -5 -31q-12 -47 -55.5 -81.5t-94.5 -34.5q-56 0 -84 40z" />
    <glyph glyph-name="Uacute" unicode="&#xda;" 
d="M376 1404q12 47 56 81.5t95 34.5q55 0 85 -39q17 -25 17 -55q0 -14 -5 -30l-241 -900q-10 -40 -10 -76q0 -69 40 -122q56 -78 166 -78q114 0 219 83t137 201l241 900q12 47 56 81.5t95 34.5q55 0 85 -39q17 -25 17 -55q0 -14 -5 -30l-241 -900q-56 -213 -248.5 -364.5
t-409.5 -151.5q-221 0 -336 157q-74 101 -74 229q0 66 20 138zM877 1716q-45 -36 -96 -36q-55 0 -84 40q-19 23 -19 54q0 14 5 30q12 47 56 81l508 400q43 35 94 35q55 0 85 -39q17 -25 17 -55q0 -14 -5 -30q-11 -47 -54 -80z" />
    <glyph glyph-name="Ucircumflex" unicode="&#xdb;" 
d="M376 1404q12 47 56 81.5t95 34.5q55 0 85 -39q17 -25 17 -55q0 -14 -5 -30l-241 -900q-10 -40 -10 -76q0 -69 40 -122q56 -78 166 -78q114 0 219 83t137 201l241 900q12 47 56 81.5t95 34.5q55 0 85 -39q17 -25 17 -55q0 -14 -5 -30l-241 -900q-56 -213 -248.5 -364.5
t-409.5 -151.5q-221 0 -336 157q-74 101 -74 229q0 66 20 138zM1073 2028l-398 -314q-43 -34 -94 -34q-55 0 -84 40q-19 23 -19 54q0 14 5 30q12 47 56 81l508 400q43 35 94 35q55 0 85 -39l293 -400q17 -25 17 -54q0 -15 -5 -31q-12 -47 -55.5 -81.5t-94.5 -34.5
q-56 0 -84 40z" />
    <glyph glyph-name="Udieresis" unicode="&#xdc;" 
d="M376 1404q12 47 56 81.5t95 34.5q55 0 85 -39q17 -25 17 -55q0 -14 -5 -30l-241 -900q-10 -40 -10 -76q0 -69 40 -122q56 -78 166 -78q114 0 219 83t137 201l241 900q12 47 56 81.5t95 34.5q55 0 85 -39q17 -25 17 -55q0 -14 -5 -30l-241 -900q-56 -213 -248.5 -364.5
t-409.5 -151.5q-221 0 -336 157q-74 101 -74 229q0 66 20 138zM919 1881q17 -25 17 -55q0 -14 -5 -30q-12 -47 -55.5 -81.5t-94.5 -34.5q-55 0 -84 40q-19 23 -19 54q0 14 5 30q12 47 56 81.5t95 34.5q55 0 85 -39zM1319 1881q17 -25 17 -55q0 -14 -5 -30
q-12 -47 -55.5 -81.5t-94.5 -34.5q-55 0 -84 40q-19 23 -19 54q0 14 5 30q12 47 56 81.5t95 34.5q55 0 85 -39z" />
    <glyph glyph-name="Yacute" unicode="&#xdd;" 
d="M591 715l-10 30l-192 550q-17 42 -17 77q0 17 3 32q13 47 57 81.5t95 34.5q55 0 81.5 -36t35.5 -80l144 -412l371 419q32 42 74.5 75.5t93.5 33.5q55 0 85 -39q17 -25 17 -55q0 -14 -5 -30q-12 -45 -71 -108l-486 -549l-27 -31l-164 -612q-12 -47 -56 -81.5t-95 -34.5
q-56 0 -83 40q-19 23 -19 54q0 14 5 30zM877 1716q-45 -36 -96 -36q-55 0 -84 40q-19 23 -19 54q0 14 5 30q12 47 56 81l508 400q43 35 94 35q55 0 85 -39q17 -25 17 -55q0 -14 -5 -30q-11 -47 -54 -80z" />
    <glyph glyph-name="Thorn" unicode="&#xde;" 
d="M868 980h-355l-110 -410h344q83 0 160.5 61t101.5 148q8 30 8 56q0 50 -29 89q-41 56 -120 56zM578 1220h344q190 0 289 -134q63 -88 63 -197q0 -56 -17 -118q-48 -182 -212.5 -311.5t-350.5 -129.5h-355l-63 -234q-12 -47 -56 -81.5t-95 -34.5q-56 0 -83 40
q-19 23 -19 54q0 14 5 30l348 1300q12 47 56 81.5t95 34.5q55 0 85 -39q17 -25 17 -55q0 -14 -5 -30z" />
    <glyph glyph-name="germandbls" unicode="&#xdf;" 
d="M525 -20q-56 0 -83 40q-19 23 -19 54q0 14 5 30q12 47 56 81.5t95 34.5h75q83 0 160 61t101 148q8 30 8 56q0 50 -29 89q-41 56 -120 56h-75q-56 0 -83 40q-19 23 -19 54q0 14 5 30q12 47 56 81.5t95 34.5h75q83 0 160 61t101 148q8 30 8 56q0 50 -29 89q-41 56 -120 56
h-150q-83 0 -160 -61t-101 -148l-261 -975q-12 -47 -56 -81.5t-95 -34.5q-56 0 -83 40q-19 23 -19 54q0 14 5 30l261 975q48 182 212.5 311.5t350.5 129.5h150q190 0 289 -134q63 -88 63 -197q0 -56 -17 -118q-48 -182 -211 -310q-17 -14 -18 -14l9 -11q63 -87 63 -196
q0 -57 -17 -119q-48 -182 -212.5 -311.5t-350.5 -129.5h-75z" />
    <glyph glyph-name="agrave" unicode="&#xe0;" 
d="M386 280l-96 -168q-38 -64 -75.5 -98t-89.5 -34q-56 0 -83 40q-19 23 -19 54q0 14 5 30q9 37 43 85l718 1251h1q9 19 42 44q44 36 95 36q55 0 85 -40q16 -24 16 -51v11h1l49 -1258q4 -23 4 -43q0 -23 -6 -43q-12 -47 -56 -81.5t-95 -34.5q-57 0 -78 37t-25 102l-6 161
h-430zM807 520l-17 466l-266 -466h283zM804 2120q-18 25 -18 56q0 13 3 28q13 47 57 81.5t95 34.5q55 0 85 -39l293 -400q17 -25 17 -54q0 -15 -5 -31q-12 -47 -55.5 -81.5t-94.5 -34.5q-56 0 -84 40z" />
    <glyph glyph-name="aacute" unicode="&#xe1;" 
d="M386 280l-96 -168q-38 -64 -75.5 -98t-89.5 -34q-56 0 -83 40q-19 23 -19 54q0 14 5 30q9 37 43 85l718 1251h1q9 19 42 44q44 36 95 36q55 0 85 -40q16 -24 16 -51v11h1l49 -1258q4 -23 4 -43q0 -23 -6 -43q-12 -47 -56 -81.5t-95 -34.5q-57 0 -78 37t-25 102l-6 161
h-430zM807 520l-17 466l-266 -466h283zM877 1716q-45 -36 -96 -36q-55 0 -84 40q-19 23 -19 54q0 14 5 30q12 47 56 81l508 400q43 35 94 35q55 0 85 -39q17 -25 17 -55q0 -14 -5 -30q-11 -47 -54 -80z" />
    <glyph glyph-name="acircumflex" unicode="&#xe2;" 
d="M386 280l-96 -168q-38 -64 -75.5 -98t-89.5 -34q-56 0 -83 40q-19 23 -19 54q0 14 5 30q9 37 43 85l718 1251h1q9 19 42 44q44 36 95 36q55 0 85 -40q16 -24 16 -51v11h1l49 -1258q4 -23 4 -43q0 -23 -6 -43q-12 -47 -56 -81.5t-95 -34.5q-57 0 -78 37t-25 102l-6 161
h-430zM807 520l-17 466l-266 -466h283zM1073 2028l-398 -314q-43 -34 -94 -34q-55 0 -84 40q-19 23 -19 54q0 14 5 30q12 47 56 81l508 400q43 35 94 35q55 0 85 -39l293 -400q17 -25 17 -54q0 -15 -5 -31q-12 -47 -55.5 -81.5t-94.5 -34.5q-56 0 -84 40z" />
    <glyph glyph-name="atilde" unicode="&#xe3;" 
d="M386 280l-96 -168q-38 -64 -75.5 -98t-89.5 -34q-56 0 -83 40q-19 23 -19 54q0 14 5 30q9 37 43 85l718 1251h1q9 19 42 44q44 36 95 36q55 0 85 -40q16 -24 16 -51v11h1l49 -1258q4 -23 4 -43q0 -23 -6 -43q-12 -47 -56 -81.5t-95 -34.5q-57 0 -78 37t-25 102l-6 161
h-430zM807 520l-17 466l-266 -466h283zM1185 1938q19 -18 49 -18q31 0 62 24.5t41 60.5q12 46 56 80.5t95 34.5q55 0 85 -39q17 -25 17 -55q0 -14 -5 -30q-34 -130 -152 -223t-252 -93q-138 0 -201 84l-97 98q-19 18 -49 18q-31 0 -62 -24.5t-41 -60.5q-12 -46 -55.5 -80.5
t-94.5 -34.5q-55 0 -84 40q-19 23 -19 54q0 14 5 30q35 130 153 223t252 93q138 0 201 -84z" />
    <glyph glyph-name="adieresis" unicode="&#xe4;" 
d="M386 280l-96 -168q-38 -64 -75.5 -98t-89.5 -34q-56 0 -83 40q-19 23 -19 54q0 14 5 30q9 37 43 85l718 1251h1q9 19 42 44q44 36 95 36q55 0 85 -40q16 -24 16 -51v11h1l49 -1258q4 -23 4 -43q0 -23 -6 -43q-12 -47 -56 -81.5t-95 -34.5q-57 0 -78 37t-25 102l-6 161
h-430zM807 520l-17 466l-266 -466h283zM919 1881q17 -25 17 -55q0 -14 -5 -30q-12 -47 -55.5 -81.5t-94.5 -34.5q-55 0 -84 40q-19 23 -19 54q0 14 5 30q12 47 56 81.5t95 34.5q55 0 85 -39zM1319 1881q17 -25 17 -55q0 -14 -5 -30q-12 -47 -55.5 -81.5t-94.5 -34.5
q-55 0 -84 40q-19 23 -19 54q0 14 5 30q12 47 56 81.5t95 34.5q55 0 85 -39z" />
    <glyph glyph-name="aring" unicode="&#xe5;" 
d="M386 280l-96 -168q-38 -64 -75.5 -98t-89.5 -34q-56 0 -83 40q-19 23 -19 54q0 14 5 30q9 37 43 85l718 1251h1q9 19 42 44q44 36 95 36q55 0 85 -40q16 -24 16 -51v11h1l49 -1258q4 -23 4 -43q0 -23 -6 -43q-12 -47 -56 -81.5t-95 -34.5q-57 0 -78 37t-25 102l-6 161
h-430zM807 520l-17 466l-266 -466h283zM981 1680q-138 0 -210 98q-46 63 -46 142q0 40 12 84q34 130 152 223t252 93q138 0 211 -98q45 -63 45 -142q0 -40 -12 -84q-34 -130 -152 -223t-252 -93zM1096 1944.5q31 24.5 41 59.5q3 12 3 22q0 20 -11 35q-14 19 -41 19
q-31 0 -62 -24.5t-41 -59.5q-3 -12 -3 -22q0 -19 11 -34q15 -20 41 -20q31 0 62 24.5z" />
    <glyph glyph-name="ae" unicode="&#xe6;" 
d="M1427 1520q55 0 85 -39q17 -25 17 -55q0 -14 -5 -30q-12 -47 -56 -81.5t-95 -34.5h-280l-109 -410h169q55 0 85 -39q17 -25 17 -55q0 -14 -5 -30q-12 -47 -56 -81.5t-95 -34.5h-180l-109 -410h269q55 0 85 -39q17 -25 17 -55q0 -14 -5 -30q-12 -47 -56 -81.5t-95 -34.5
h-400q-56 0 -83 40q-19 23 -19 54q0 14 5 30l46 176h-188l-96 -168q-38 -64 -75.5 -98t-89.5 -34q-56 0 -83 40q-19 23 -19 54q0 14 5 30q9 37 43 85l718 1251h1q9 19 42 44q44 36 95 36h500zM740 898l-216 -378h115z" />
    <glyph glyph-name="ccedilla" unicode="&#xe7;" 
d="M490 -20q-186 0 -301 157q-74 101 -74 230q0 65 20 137l134 500q56 213 248.5 364.5t409.5 151.5q221 0 336 -156q74 -102 74 -230q0 -66 -20 -138q-12 -47 -56 -81.5t-95 -34.5q-56 0 -83 40q-19 23 -19 54q0 14 5 30q10 40 10 76q0 69 -39 122q-57 78 -167 78
q-114 0 -219 -83t-137 -201l-134 -500q-10 -40 -10 -76q0 -69 40 -122q56 -78 166 -78q114 0 219 83t137 201q12 47 56 81.5t95 34.5q55 0 85 -39q17 -25 17 -55q0 -14 -5 -30q-56 -213 -248 -363q-93 -74 -177 -106l-1 -6q-49 -182 -213.5 -311.5t-350.5 -129.5h-75
q-56 0 -83 40q-19 23 -19 54q0 14 5 30q12 47 55.5 81.5t94.5 34.5h75q83 0 160 60q67 53 84 100z" />
    <glyph glyph-name="egrave" unicode="&#xe8;" 
d="M979 220q55 0 85 -39q17 -25 17 -55q0 -14 -5 -30q-12 -47 -56 -81.5t-95 -34.5h-800q-56 0 -83 40q-19 23 -19 54q0 14 5 30l348 1300q12 47 56 81.5t95 34.5h800q55 0 85 -39q17 -25 17 -55q0 -14 -5 -30q-12 -47 -56 -81.5t-95 -34.5h-680l-109 -410h569q55 0 85 -39
q17 -25 17 -55q0 -14 -5 -30q-12 -47 -56 -81.5t-95 -34.5h-580l-109 -410h669zM804 2120q-18 25 -18 56q0 13 3 28q13 47 57 81.5t95 34.5q55 0 85 -39l293 -400q17 -25 17 -54q0 -15 -5 -31q-12 -47 -55.5 -81.5t-94.5 -34.5q-56 0 -84 40z" />
    <glyph glyph-name="eacute" unicode="&#xe9;" 
d="M979 220q55 0 85 -39q17 -25 17 -55q0 -14 -5 -30q-12 -47 -56 -81.5t-95 -34.5h-800q-56 0 -83 40q-19 23 -19 54q0 14 5 30l348 1300q12 47 56 81.5t95 34.5h800q55 0 85 -39q17 -25 17 -55q0 -14 -5 -30q-12 -47 -56 -81.5t-95 -34.5h-680l-109 -410h569q55 0 85 -39
q17 -25 17 -55q0 -14 -5 -30q-12 -47 -56 -81.5t-95 -34.5h-580l-109 -410h669zM877 1716q-45 -36 -96 -36q-55 0 -84 40q-19 23 -19 54q0 14 5 30q12 47 56 81l508 400q43 35 94 35q55 0 85 -39q17 -25 17 -55q0 -14 -5 -30q-11 -47 -54 -80z" />
    <glyph glyph-name="ecircumflex" unicode="&#xea;" 
d="M979 220q55 0 85 -39q17 -25 17 -55q0 -14 -5 -30q-12 -47 -56 -81.5t-95 -34.5h-800q-56 0 -83 40q-19 23 -19 54q0 14 5 30l348 1300q12 47 56 81.5t95 34.5h800q55 0 85 -39q17 -25 17 -55q0 -14 -5 -30q-12 -47 -56 -81.5t-95 -34.5h-680l-109 -410h569q55 0 85 -39
q17 -25 17 -55q0 -14 -5 -30q-12 -47 -56 -81.5t-95 -34.5h-580l-109 -410h669zM1073 2028l-398 -314q-43 -34 -94 -34q-55 0 -84 40q-19 23 -19 54q0 14 5 30q12 47 56 81l508 400q43 35 94 35q55 0 85 -39l293 -400q17 -25 17 -54q0 -15 -5 -31q-12 -47 -55.5 -81.5
t-94.5 -34.5q-56 0 -84 40z" />
    <glyph glyph-name="edieresis" unicode="&#xeb;" 
d="M979 220q55 0 85 -39q17 -25 17 -55q0 -14 -5 -30q-12 -47 -56 -81.5t-95 -34.5h-800q-56 0 -83 40q-19 23 -19 54q0 14 5 30l348 1300q12 47 56 81.5t95 34.5h800q55 0 85 -39q17 -25 17 -55q0 -14 -5 -30q-12 -47 -56 -81.5t-95 -34.5h-680l-109 -410h569q55 0 85 -39
q17 -25 17 -55q0 -14 -5 -30q-12 -47 -56 -81.5t-95 -34.5h-580l-109 -410h669zM919 1881q17 -25 17 -55q0 -14 -5 -30q-12 -47 -55.5 -81.5t-94.5 -34.5q-55 0 -84 40q-19 23 -19 54q0 14 5 30q12 47 56 81.5t95 34.5q55 0 85 -39zM1319 1881q17 -25 17 -55q0 -14 -5 -30
q-12 -47 -55.5 -81.5t-94.5 -34.5q-55 0 -84 40q-19 23 -19 54q0 14 5 30q12 47 56 81.5t95 34.5q55 0 85 -39z" />
    <glyph glyph-name="igrave" unicode="&#xec;" 
d="M459 220l283 1060h-269q-56 0 -83 40q-19 23 -19 54q0 14 5 30q12 47 56 81.5t95 34.5h800q55 0 85 -39q17 -25 17 -55q0 -14 -5 -30q-12 -47 -56 -81.5t-95 -34.5h-280l-283 -1060h269q55 0 85 -39q17 -25 17 -55q0 -14 -5 -30q-12 -47 -56 -81.5t-95 -34.5h-800
q-56 0 -83 40q-19 23 -19 54q0 14 5 30q12 47 56 81.5t95 34.5h280zM804 2120q-18 25 -18 56q0 13 3 28q13 47 57 81.5t95 34.5q55 0 85 -39l293 -400q17 -25 17 -54q0 -15 -5 -31q-12 -47 -55.5 -81.5t-94.5 -34.5q-56 0 -84 40z" />
    <glyph glyph-name="iacute" unicode="&#xed;" 
d="M459 220l283 1060h-269q-56 0 -83 40q-19 23 -19 54q0 14 5 30q12 47 56 81.5t95 34.5h800q55 0 85 -39q17 -25 17 -55q0 -14 -5 -30q-12 -47 -56 -81.5t-95 -34.5h-280l-283 -1060h269q55 0 85 -39q17 -25 17 -55q0 -14 -5 -30q-12 -47 -56 -81.5t-95 -34.5h-800
q-56 0 -83 40q-19 23 -19 54q0 14 5 30q12 47 56 81.5t95 34.5h280zM877 1716q-45 -36 -96 -36q-55 0 -84 40q-19 23 -19 54q0 14 5 30q12 47 56 81l508 400q43 35 94 35q55 0 85 -39q17 -25 17 -55q0 -14 -5 -30q-11 -47 -54 -80z" />
    <glyph glyph-name="icircumflex" unicode="&#xee;" 
d="M459 220l283 1060h-269q-56 0 -83 40q-19 23 -19 54q0 14 5 30q12 47 56 81.5t95 34.5h800q55 0 85 -39q17 -25 17 -55q0 -14 -5 -30q-12 -47 -56 -81.5t-95 -34.5h-280l-283 -1060h269q55 0 85 -39q17 -25 17 -55q0 -14 -5 -30q-12 -47 -56 -81.5t-95 -34.5h-800
q-56 0 -83 40q-19 23 -19 54q0 14 5 30q12 47 56 81.5t95 34.5h280zM1073 2028l-398 -314q-43 -34 -94 -34q-55 0 -84 40q-19 23 -19 54q0 14 5 30q12 47 56 81l508 400q43 35 94 35q55 0 85 -39l293 -400q17 -25 17 -54q0 -15 -5 -31q-12 -47 -55.5 -81.5t-94.5 -34.5
q-56 0 -84 40z" />
    <glyph glyph-name="idieresis" unicode="&#xef;" 
d="M459 220l283 1060h-269q-56 0 -83 40q-19 23 -19 54q0 14 5 30q12 47 56 81.5t95 34.5h800q55 0 85 -39q17 -25 17 -55q0 -14 -5 -30q-12 -47 -56 -81.5t-95 -34.5h-280l-283 -1060h269q55 0 85 -39q17 -25 17 -55q0 -14 -5 -30q-12 -47 -56 -81.5t-95 -34.5h-800
q-56 0 -83 40q-19 23 -19 54q0 14 5 30q12 47 56 81.5t95 34.5h280zM919 1881q17 -25 17 -55q0 -14 -5 -30q-12 -47 -55.5 -81.5t-94.5 -34.5q-55 0 -84 40q-19 23 -19 54q0 14 5 30q12 47 56 81.5t95 34.5q55 0 85 -39zM1319 1881q17 -25 17 -55q0 -14 -5 -30
q-12 -47 -55.5 -81.5t-94.5 -34.5q-55 0 -84 40q-19 23 -19 54q0 14 5 30q12 47 56 81.5t95 34.5q55 0 85 -39z" />
    <glyph glyph-name="eth" unicode="&#xf0;" 
d="M419 630l-109 -410h269q114 0 219 83t137 201l134 500q10 40 10 76q0 69 -39 122q-57 78 -167 78h-280l-109 -410h269q55 0 85 -39q17 -25 17 -55q0 -14 -5 -30q-12 -47 -56 -81.5t-95 -34.5h-280zM125 -20q-56 0 -83 40q-19 23 -19 54q0 14 5 30l348 1300q12 47 56 81.5
t95 34.5h400q221 0 336 -156q74 -102 74 -230q0 -66 -20 -138l-134 -500q-56 -213 -248.5 -364.5t-409.5 -151.5h-400z" />
    <glyph glyph-name="ntilde" unicode="&#xf1;" 
d="M644 1404l301 -862l231 862q12 47 56 81.5t95 34.5q55 0 85 -39q17 -25 17 -55q0 -14 -5 -30l-348 -1300q-12 -47 -56 -81.5t-95 -34.5q-55 0 -81.5 36t-35.5 80l-301 862l-231 -862q-12 -47 -56 -81.5t-95 -34.5q-56 0 -83 40q-19 23 -19 54q0 14 5 30l348 1300
q12 47 56 81.5t95 34.5q55 0 81.5 -36t35.5 -80zM1185 1938q19 -18 49 -18q31 0 62 24.5t41 60.5q12 46 56 80.5t95 34.5q55 0 85 -39q17 -25 17 -55q0 -14 -5 -30q-34 -130 -152 -223t-252 -93q-138 0 -201 84l-97 98q-19 18 -49 18q-31 0 -62 -24.5t-41 -60.5
q-12 -46 -55.5 -80.5t-94.5 -34.5q-55 0 -84 40q-19 23 -19 54q0 14 5 30q35 130 153 223t252 93q138 0 201 -84z" />
    <glyph glyph-name="ograve" unicode="&#xf2;" 
d="M1183 496q-56 -213 -248.5 -364.5t-409.5 -151.5q-221 0 -336 157q-74 101 -74 229q0 66 20 138l134 500q56 213 248.5 364.5t409.5 151.5q221 0 336 -156q74 -102 74 -230q0 -66 -20 -138zM383 496q-10 -40 -10 -76q0 -69 40 -122q56 -78 166 -78q114 0 219 83t137 201
l134 500q10 40 10 76q0 69 -39 122q-57 78 -167 78q-114 0 -219 -83t-137 -201zM804 2120q-18 25 -18 56q0 13 3 28q13 47 57 81.5t95 34.5q55 0 85 -39l293 -400q17 -25 17 -54q0 -15 -5 -31q-12 -47 -55.5 -81.5t-94.5 -34.5q-56 0 -84 40z" />
    <glyph glyph-name="oacute" unicode="&#xf3;" 
d="M1183 496q-56 -213 -248.5 -364.5t-409.5 -151.5q-221 0 -336 157q-74 101 -74 229q0 66 20 138l134 500q56 213 248.5 364.5t409.5 151.5q221 0 336 -156q74 -102 74 -230q0 -66 -20 -138zM383 496q-10 -40 -10 -76q0 -69 40 -122q56 -78 166 -78q114 0 219 83t137 201
l134 500q10 40 10 76q0 69 -39 122q-57 78 -167 78q-114 0 -219 -83t-137 -201zM877 1716q-45 -36 -96 -36q-55 0 -84 40q-19 23 -19 54q0 14 5 30q12 47 56 81l508 400q43 35 94 35q55 0 85 -39q17 -25 17 -55q0 -14 -5 -30q-11 -47 -54 -80z" />
    <glyph glyph-name="ocircumflex" unicode="&#xf4;" 
d="M1183 496q-56 -213 -248.5 -364.5t-409.5 -151.5q-221 0 -336 157q-74 101 -74 229q0 66 20 138l134 500q56 213 248.5 364.5t409.5 151.5q221 0 336 -156q74 -102 74 -230q0 -66 -20 -138zM383 496q-10 -40 -10 -76q0 -69 40 -122q56 -78 166 -78q114 0 219 83t137 201
l134 500q10 40 10 76q0 69 -39 122q-57 78 -167 78q-114 0 -219 -83t-137 -201zM1073 2028l-398 -314q-43 -34 -94 -34q-55 0 -84 40q-19 23 -19 54q0 14 5 30q12 47 56 81l508 400q43 35 94 35q55 0 85 -39l293 -400q17 -25 17 -54q0 -15 -5 -31q-12 -47 -55.5 -81.5
t-94.5 -34.5q-56 0 -84 40z" />
    <glyph glyph-name="otilde" unicode="&#xf5;" 
d="M1183 496q-56 -213 -248.5 -364.5t-409.5 -151.5q-221 0 -336 157q-74 101 -74 229q0 66 20 138l134 500q56 213 248.5 364.5t409.5 151.5q221 0 336 -156q74 -102 74 -230q0 -66 -20 -138zM383 496q-10 -40 -10 -76q0 -69 40 -122q56 -78 166 -78q114 0 219 83t137 201
l134 500q10 40 10 76q0 69 -39 122q-57 78 -167 78q-114 0 -219 -83t-137 -201zM1185 1938q19 -18 49 -18q31 0 62 24.5t41 60.5q12 46 56 80.5t95 34.5q55 0 85 -39q17 -25 17 -55q0 -14 -5 -30q-34 -130 -152 -223t-252 -93q-138 0 -201 84l-97 98q-19 18 -49 18
q-31 0 -62 -24.5t-41 -60.5q-12 -46 -55.5 -80.5t-94.5 -34.5q-55 0 -84 40q-19 23 -19 54q0 14 5 30q35 130 153 223t252 93q138 0 201 -84z" />
    <glyph glyph-name="odieresis" unicode="&#xf6;" 
d="M1183 496q-56 -213 -248.5 -364.5t-409.5 -151.5q-221 0 -336 157q-74 101 -74 229q0 66 20 138l134 500q56 213 248.5 364.5t409.5 151.5q221 0 336 -156q74 -102 74 -230q0 -66 -20 -138zM383 496q-10 -40 -10 -76q0 -69 40 -122q56 -78 166 -78q114 0 219 83t137 201
l134 500q10 40 10 76q0 69 -39 122q-57 78 -167 78q-114 0 -219 -83t-137 -201zM919 1881q17 -25 17 -55q0 -14 -5 -30q-12 -47 -55.5 -81.5t-94.5 -34.5q-55 0 -84 40q-19 23 -19 54q0 14 5 30q12 47 56 81.5t95 34.5q55 0 85 -39zM1319 1881q17 -25 17 -55q0 -14 -5 -30
q-12 -47 -55.5 -81.5t-94.5 -34.5q-55 0 -84 40q-19 23 -19 54q0 14 5 30q12 47 56 81.5t95 34.5q55 0 85 -39z" />
    <glyph glyph-name="divide" unicode="&#xf7;" horiz-adv-x="1014" 
d="M260 627l49 180h871l16 -16l-45 -164h-891zM522 424l104 82q26 20 50 20q26 0 48 -26l58 -88q7 -16 7 -28q0 -7 -2 -13q-5 -20 -28 -40l-103 -89q-34 -26 -53 -26q-31 0 -47 25l-62 103q-6 13 -6 24q0 7 1 13q6 21 33 43zM708 1117l104 82q25 20 49 20q26 0 48 -26
l59 -88q7 -16 7 -28q0 -7 -2 -13q-5 -20 -28 -40l-104 -89q-33 -26 -52 -26q-31 0 -47 25l-62 102q-6 12 -6 24q0 6 1 13q6 22 33 44z" />
    <glyph glyph-name="oslash" unicode="&#xf8;" 
d="M397 549l610 689q-43 42 -134 42q-114 0 -219 -83t-137 -201zM1055 951l-610 -689q43 -42 134 -42q114 0 219 83t137 201zM1320 1250q17 -49 17 -116q0 -65 -20 -138l-134 -500q-56 -213 -248.5 -364.5t-409.5 -151.5q-172 0 -258 76q-12 -14 -46 -40q-45 -36 -96 -36
q-56 0 -83 40q-19 23 -19 54q0 14 5 30q12 45 71 108l33 38q-17 51 -17 116q0 66 20 138l134 500q56 213 248.5 364.5t409.5 151.5q172 0 258 -76q12 14 47 41q44 35 95 35q55 0 85 -39q17 -25 17 -55q0 -14 -5 -30q-12 -45 -71 -108z" />
    <glyph glyph-name="ugrave" unicode="&#xf9;" 
d="M376 1404q12 47 56 81.5t95 34.5q55 0 85 -39q17 -25 17 -55q0 -14 -5 -30l-241 -900q-10 -40 -10 -76q0 -69 40 -122q56 -78 166 -78q114 0 219 83t137 201l241 900q12 47 56 81.5t95 34.5q55 0 85 -39q17 -25 17 -55q0 -14 -5 -30l-241 -900q-56 -213 -248.5 -364.5
t-409.5 -151.5q-221 0 -336 157q-74 101 -74 229q0 66 20 138zM804 2120q-18 25 -18 56q0 13 3 28q13 47 57 81.5t95 34.5q55 0 85 -39l293 -400q17 -25 17 -54q0 -15 -5 -31q-12 -47 -55.5 -81.5t-94.5 -34.5q-56 0 -84 40z" />
    <glyph glyph-name="uacute" unicode="&#xfa;" 
d="M376 1404q12 47 56 81.5t95 34.5q55 0 85 -39q17 -25 17 -55q0 -14 -5 -30l-241 -900q-10 -40 -10 -76q0 -69 40 -122q56 -78 166 -78q114 0 219 83t137 201l241 900q12 47 56 81.5t95 34.5q55 0 85 -39q17 -25 17 -55q0 -14 -5 -30l-241 -900q-56 -213 -248.5 -364.5
t-409.5 -151.5q-221 0 -336 157q-74 101 -74 229q0 66 20 138zM877 1716q-45 -36 -96 -36q-55 0 -84 40q-19 23 -19 54q0 14 5 30q12 47 56 81l508 400q43 35 94 35q55 0 85 -39q17 -25 17 -55q0 -14 -5 -30q-11 -47 -54 -80z" />
    <glyph glyph-name="ucircumflex" unicode="&#xfb;" 
d="M376 1404q12 47 56 81.5t95 34.5q55 0 85 -39q17 -25 17 -55q0 -14 -5 -30l-241 -900q-10 -40 -10 -76q0 -69 40 -122q56 -78 166 -78q114 0 219 83t137 201l241 900q12 47 56 81.5t95 34.5q55 0 85 -39q17 -25 17 -55q0 -14 -5 -30l-241 -900q-56 -213 -248.5 -364.5
t-409.5 -151.5q-221 0 -336 157q-74 101 -74 229q0 66 20 138zM1073 2028l-398 -314q-43 -34 -94 -34q-55 0 -84 40q-19 23 -19 54q0 14 5 30q12 47 56 81l508 400q43 35 94 35q55 0 85 -39l293 -400q17 -25 17 -54q0 -15 -5 -31q-12 -47 -55.5 -81.5t-94.5 -34.5
q-56 0 -84 40z" />
    <glyph glyph-name="udieresis" unicode="&#xfc;" 
d="M376 1404q12 47 56 81.5t95 34.5q55 0 85 -39q17 -25 17 -55q0 -14 -5 -30l-241 -900q-10 -40 -10 -76q0 -69 40 -122q56 -78 166 -78q114 0 219 83t137 201l241 900q12 47 56 81.5t95 34.5q55 0 85 -39q17 -25 17 -55q0 -14 -5 -30l-241 -900q-56 -213 -248.5 -364.5
t-409.5 -151.5q-221 0 -336 157q-74 101 -74 229q0 66 20 138zM919 1881q17 -25 17 -55q0 -14 -5 -30q-12 -47 -55.5 -81.5t-94.5 -34.5q-55 0 -84 40q-19 23 -19 54q0 14 5 30q12 47 56 81.5t95 34.5q55 0 85 -39zM1319 1881q17 -25 17 -55q0 -14 -5 -30
q-12 -47 -55.5 -81.5t-94.5 -34.5q-55 0 -84 40q-19 23 -19 54q0 14 5 30q12 47 56 81.5t95 34.5q55 0 85 -39z" />
    <glyph glyph-name="yacute" unicode="&#xfd;" 
d="M591 715l-10 30l-192 550q-17 42 -17 77q0 17 3 32q13 47 57 81.5t95 34.5q55 0 81.5 -36t35.5 -80l144 -412l371 419q32 42 74.5 75.5t93.5 33.5q55 0 85 -39q17 -25 17 -55q0 -14 -5 -30q-12 -45 -71 -108l-486 -549l-27 -31l-164 -612q-12 -47 -56 -81.5t-95 -34.5
q-56 0 -83 40q-19 23 -19 54q0 14 5 30zM877 1716q-45 -36 -96 -36q-55 0 -84 40q-19 23 -19 54q0 14 5 30q12 47 56 81l508 400q43 35 94 35q55 0 85 -39q17 -25 17 -55q0 -14 -5 -30q-11 -47 -54 -80z" />
    <glyph glyph-name="thorn" unicode="&#xfe;" 
d="M868 980h-355l-110 -410h344q83 0 160.5 61t101.5 148q8 30 8 56q0 50 -29 89q-41 56 -120 56zM578 1220h344q190 0 289 -134q63 -88 63 -197q0 -56 -17 -118q-48 -182 -212.5 -311.5t-350.5 -129.5h-355l-63 -234q-12 -47 -56 -81.5t-95 -34.5q-56 0 -83 40
q-19 23 -19 54q0 14 5 30l348 1300q12 47 56 81.5t95 34.5q55 0 85 -39q17 -25 17 -55q0 -14 -5 -30z" />
    <glyph glyph-name="ydieresis" unicode="&#xff;" 
d="M591 715l-10 30l-192 550q-17 42 -17 77q0 17 3 32q13 47 57 81.5t95 34.5q55 0 81.5 -36t35.5 -80l144 -412l371 419q32 42 74.5 75.5t93.5 33.5q55 0 85 -39q17 -25 17 -55q0 -14 -5 -30q-12 -45 -71 -108l-486 -549l-27 -31l-164 -612q-12 -47 -56 -81.5t-95 -34.5
q-56 0 -83 40q-19 23 -19 54q0 14 5 30zM919 1881q17 -25 17 -55q0 -14 -5 -30q-12 -47 -55.5 -81.5t-94.5 -34.5q-55 0 -84 40q-19 23 -19 54q0 14 5 30q12 47 56 81.5t95 34.5q55 0 85 -39zM1319 1881q17 -25 17 -55q0 -14 -5 -30q-12 -47 -55.5 -81.5t-94.5 -34.5
q-55 0 -84 40q-19 23 -19 54q0 14 5 30q12 47 56 81.5t95 34.5q55 0 85 -39z" />
    <glyph glyph-name="dotlessi" unicode="&#x131;" horiz-adv-x="514" 
d="M443 219q-14 -53 -14 -89q0 -60 43 -60h76l-23 -90h-493l23 90h67q80 0 122 157l116 432q3 10 3 18q0 35 -69 35h-79l21 79q244 70 316 187h95z" />
    <glyph glyph-name="circumflex" unicode="&#x2c6;" 
d="M1073 2028l-398 -314q-43 -34 -94 -34q-55 0 -84 40q-19 23 -19 54q0 14 5 30q12 47 56 81l508 400q43 35 94 35q55 0 85 -39l293 -400q17 -25 17 -54q0 -15 -5 -31q-12 -47 -55.5 -81.5t-94.5 -34.5q-56 0 -84 40z" />
    <glyph glyph-name="caron" unicode="&#x2c7;" 
d="M1445 2284q45 36 96 36q55 0 85 -39q17 -25 17 -55q0 -14 -5 -30q-11 -47 -55 -81l-507 -400q-44 -35 -95 -35q-56 0 -84 40l-294 399q-17 25 -17 56q0 14 3 29q13 47 57 81.5t95 34.5q55 0 85 -40l225 -307z" />
    <glyph glyph-name="uni02C9" unicode="&#x2c9;" horiz-adv-x="1024" 
d="M574 1175l45 165h567l-45 -165h-567z" />
    <glyph glyph-name="breve" unicode="&#x2d8;" horiz-adv-x="1024" 
d="M582 1369h99v-26q0 -59 38 -86q42 -29 142 -29q102 0 161.5 30t98.5 111h103q-68 -164 -166.5 -237t-231.5 -73q-135 0 -199 78q-50 60 -50 162q0 25 5 70z" />
    <glyph glyph-name="dotaccent" unicode="&#x2d9;" horiz-adv-x="1024" 
d="M775 1303l88 72q10 8 23 13t25 5q13 0 24 -6t20 -16l49 -75q7 -7 9 -20v-4q0 -7 -3 -17q-5 -10 -9.5 -18t-14.5 -17l-93 -76q-17 -13 -25 -17.5t-19 -4.5q-16 0 -29.5 5.5t-18.5 18.5l-50 85q-6 8 -6 12q-1 1 -1 9q0 7 3 17q3 8 9.5 16.5t18.5 17.5z" />
    <glyph glyph-name="ring" unicode="&#x2da;" 
d="M981 1680q-138 0 -210 98q-46 63 -46 142q0 40 12 84q34 130 152 223t252 93q138 0 211 -98q45 -63 45 -142q0 -40 -12 -84q-34 -130 -152 -223t-252 -93zM1096 1944.5q31 24.5 41 59.5q3 12 3 22q0 20 -11 35q-14 19 -41 19q-31 0 -62 -24.5t-41 -59.5q-3 -12 -3 -22
q0 -19 11 -34q15 -20 41 -20q31 0 62 24.5z" />
    <glyph glyph-name="ogonek" unicode="&#x2db;" 
d="M655 -219q19 -25 19 -55q0 -14 -5 -30q-12 -47 -56 -81.5t-95 -34.5h-75q-190 0 -289 135q-63 87 -63 196q0 56 17 118q12 47 55.5 81.5t94.5 34.5q55 0 84 -39q19 -25 19 -55q0 -14 -5 -30q-8 -30 -8 -57q0 -50 29 -88q40 -56 119 -56h75q55 0 84 -39z" />
    <glyph glyph-name="tilde" unicode="&#x2dc;" 
d="M1185 1938q19 -18 49 -18q31 0 62 24.5t41 60.5q12 46 56 80.5t95 34.5q55 0 85 -39q17 -25 17 -55q0 -14 -5 -30q-34 -130 -152 -223t-252 -93q-138 0 -201 84l-97 98q-19 18 -49 18q-31 0 -62 -24.5t-41 -60.5q-12 -46 -55.5 -80.5t-94.5 -34.5q-55 0 -84 40
q-19 23 -19 54q0 14 5 30q35 130 153 223t252 93q138 0 201 -84z" />
    <glyph glyph-name="hungarumlaut" unicode="&#x2dd;" horiz-adv-x="1024" 
d="M506 1059l241 304q38 46 69.5 68.5t65.5 22.5q42 0 65 -30q13 -18 13 -39q0 -11 -3 -22q-5 -19 -22.5 -40.5t-45.5 -45.5l-269 -218h-114zM791 1059l241 304q38 46 69.5 68.5t65.5 22.5q42 0 65 -30q13 -18 13 -39q0 -11 -3 -22q-5 -19 -22.5 -40.5t-45.5 -45.5
l-269 -218h-114z" />
    <glyph glyph-name="endash" unicode="&#x2013;" 
d="M299 630q-56 0 -83 40q-19 23 -19 54q0 14 5 30q12 47 56 81.5t95 34.5h800q55 0 85 -39q17 -25 17 -55q0 -14 -5 -30q-12 -47 -56 -81.5t-95 -34.5h-800z" />
    <glyph glyph-name="emdash" unicode="&#x2014;" 
d="M299 630q-56 0 -83 40q-19 23 -19 54q0 14 5 30q12 47 56 81.5t95 34.5h800q55 0 85 -39q17 -25 17 -55q0 -14 -5 -30q-12 -47 -56 -81.5t-95 -34.5h-800z" />
    <glyph glyph-name="quoteleft" unicode="&#x2018;" 
d="M476 1404q12 47 56 81.5t95 34.5q55 0 85 -39q17 -25 17 -55q0 -14 -5 -30l-80 -300q-12 -47 -56 -81.5t-95 -34.5q-56 0 -83 40q-19 23 -19 54q0 14 5 30z" />
    <glyph glyph-name="quoteright" unicode="&#x2019;" 
d="M476 1404q12 47 56 81.5t95 34.5q55 0 85 -39q17 -25 17 -55q0 -14 -5 -30l-80 -300q-12 -47 -56 -81.5t-95 -34.5q-56 0 -83 40q-19 23 -19 54q0 14 5 30z" />
    <glyph glyph-name="quotesinglbase" unicode="&#x201a;" 
d="M128 104q12 47 56 81.5t95 34.5q55 0 85 -39q17 -25 17 -55q0 -14 -5 -30l-81 -300q-12 -47 -55.5 -81.5t-94.5 -34.5q-55 0 -84 40q-19 23 -19 54q0 14 5 30z" />
    <glyph glyph-name="quotedblleft" unicode="&#x201c;" 
d="M476 1404q12 47 56 81.5t95 34.5q55 0 85 -39q17 -25 17 -55q0 -14 -5 -30l-80 -300q-12 -47 -56 -81.5t-95 -34.5q-56 0 -83 40q-19 23 -19 54q0 14 5 30zM876 1404q12 47 56 81.5t95 34.5q55 0 85 -39q17 -25 17 -55q0 -14 -5 -30l-80 -300q-12 -47 -56 -81.5
t-95 -34.5q-56 0 -83 40q-19 23 -19 54q0 14 5 30z" />
    <glyph glyph-name="quotedblright" unicode="&#x201d;" 
d="M476 1404q12 47 56 81.5t95 34.5q55 0 85 -39q17 -25 17 -55q0 -14 -5 -30l-80 -300q-12 -47 -56 -81.5t-95 -34.5q-56 0 -83 40q-19 23 -19 54q0 14 5 30zM876 1404q12 47 56 81.5t95 34.5q55 0 85 -39q17 -25 17 -55q0 -14 -5 -30l-80 -300q-12 -47 -56 -81.5
t-95 -34.5q-56 0 -83 40q-19 23 -19 54q0 14 5 30z" />
    <glyph glyph-name="quotedblbase" unicode="&#x201e;" 
d="M141 154q12 47 56 81.5t95 34.5q55 0 85 -39q17 -25 17 -55q0 -14 -5 -30l-80 -300q-12 -47 -56 -81.5t-95 -34.5q-56 0 -83 40q-19 23 -19 54q0 14 5 30zM541 154q12 47 56 81.5t95 34.5q55 0 85 -39q17 -25 17 -55q0 -14 -5 -30l-80 -300q-12 -47 -56 -81.5t-95 -34.5
q-56 0 -83 40q-19 23 -19 54q0 14 5 30z" />
    <glyph glyph-name="dagger" unicode="&#x2020;" horiz-adv-x="1014" 
d="M764 1044q4 21 4 58q0 50 -13 94q-25 84 -25 120q0 9 1 16q15 57 66 91t120 34q68 0 106 -34q28 -27 28 -63q0 -12 -4 -26q-10 -36 -95 -144q-67 -82 -90 -145q56 4 144 48q123 60 158 60q65 0 92 -48q13 -24 13 -55q0 -24 -8 -53q-16 -62 -59 -105t-100 -43
q-40 0 -136 59q-68 43 -129 50q-8 -39 -8 -89q0 -94 52 -163q-234 -468 -381 -996h-89q137 536 153 1002q131 103 177 245q-58 -5 -147 -48q-122 -60 -157 -60q-65 0 -92 48q-13 24 -13 55q0 24 8 53q16 62 59.5 105t99.5 43q40 0 137 -60q67 -43 128 -49z" />
    <glyph glyph-name="daggerdbl" unicode="&#x2021;" horiz-adv-x="1014" 
d="M636 210q56 6 149 50q125 58 163 58q62 0 86 -50q11 -24 11 -52q0 -25 -9 -54q-17 -65 -62.5 -106.5t-105.5 -41.5q-37 0 -130 62q-62 42 -125 47q-3 -18 -3 -54q0 -51 13 -99q21 -81 21 -120q0 -15 -3 -25q-14 -51 -65.5 -83t-116.5 -32q-72 0 -108 38q-25 24 -25 60
q0 16 6 34q7 32 94 136q66 78 89 144q-55 -5 -148 -49q-125 -59 -164 -59q-62 0 -84 51q-12 23 -12 53q0 24 8 52q18 65 63 106.5t105 41.5q37 0 130 -62q64 -41 127 -48q19 88 19 181q0 103 -31 199q152 175 212 370q-58 -6 -147 -49q-122 -60 -157 -60q-65 0 -92 48
q-13 24 -13 55q0 24 8 53q16 62 59.5 105t99.5 43q40 0 137 -60q67 -43 128 -49q4 21 4 58q0 50 -13 94q-25 84 -25 120q0 9 1 16q15 57 66 91t120 34q68 0 106 -34q28 -27 28 -63q0 -12 -4 -26q-10 -36 -95 -144q-67 -82 -90 -145q56 4 144 48q123 60 158 60q65 0 92 -48
q13 -24 13 -55q0 -24 -8 -53q-16 -62 -59 -105t-100 -43q-40 0 -136 59q-68 43 -129 50q-21 -89 -21 -184q0 -100 31 -194q-152 -176 -210 -370z" />
    <glyph glyph-name="bullet" unicode="&#x2022;" horiz-adv-x="1024" 
d="M409 722q34 129 150.5 220t249.5 91q136 0 208 -96q44 -62 44 -140q0 -39 -12 -83q-33 -128 -150.5 -220.5t-249.5 -92.5q-137 0 -208 97q-44 62 -44 140q0 40 12 84z" />
    <glyph glyph-name="ellipsis" unicode="&#x2026;" 
d="M364 181q17 -25 17 -55q0 -14 -5 -30q-12 -47 -56 -81.5t-95 -34.5q-56 0 -83 40q-19 23 -19 54q0 14 5 30q12 47 56 81.5t95 34.5q55 0 85 -39zM764 181q17 -25 17 -55q0 -14 -5 -30q-12 -47 -56 -81.5t-95 -34.5q-56 0 -83 40q-19 23 -19 54q0 14 5 30q12 47 56 81.5
t95 34.5q55 0 85 -39zM1164 181q17 -25 17 -55q0 -14 -5 -30q-12 -47 -56 -81.5t-95 -34.5q-56 0 -83 40q-19 23 -19 54q0 14 5 30q12 47 56 81.5t95 34.5q55 0 85 -39z" />
    <glyph glyph-name="guilsinglleft" unicode="&#x2039;" 
d="M1002 330q19 -23 19 -54q0 -14 -5 -30q-12 -47 -56 -81.5t-95 -34.5q-55 0 -84 39l-367 500q-17 25 -17 54q0 15 5 31q12 47 56 81l633 499q45 36 96 36q55 0 85 -39q17 -25 17 -55q0 -14 -5 -30q-12 -47 -56 -81l-530 -418z" />
    <glyph glyph-name="guilsinglright" unicode="&#x203a;" 
d="M855 753l-306 416q-18 25 -18 55q0 14 5 30q12 47 56 81.5t95 34.5q55 0 83 -38l368 -501q17 -25 17 -54q0 -15 -5 -31q-12 -47 -54 -81l-635 -500q-45 -35 -96 -35q-56 0 -83 40q-19 23 -19 54q0 14 5 30q12 47 56 80z" />
    <glyph glyph-name="fraction" unicode="&#x2044;" 
d="M293 89q-32 -42 -74.5 -75.5t-93.5 -33.5q-56 0 -83 40q-19 23 -19 54q0 14 5 30q12 45 71 108l1060 1199q32 42 74.5 75.5t93.5 33.5q55 0 85 -39q17 -25 17 -55q0 -14 -5 -30q-12 -45 -71 -108z" />
    <glyph glyph-name="fraction" unicode="&#x2215;" 
d="M293 89q-32 -42 -74.5 -75.5t-93.5 -33.5q-56 0 -83 40q-19 23 -19 54q0 14 5 30q12 45 71 108l1060 1199q32 42 74.5 75.5t93.5 33.5q55 0 85 -39q17 -25 17 -55q0 -14 -5 -30q-12 -45 -71 -108z" />
    <glyph glyph-name="franc" unicode="&#x20a3;" 
d="M499 180l-23 -84q-12 -47 -56 -81.5t-95 -34.5q-56 0 -83 40q-19 23 -19 54q0 14 5 30l20 76h-69q-55 0 -84 40q-19 23 -19 54q0 14 5 30q12 47 56 81.5t95 34.5h80l264 984q12 47 56 81.5t95 34.5h600q55 0 85 -39q17 -25 17 -55q0 -14 -5 -30q-12 -47 -56 -81.5
t-95 -34.5h-480l-109 -410h369q55 0 85 -39q17 -25 17 -55q0 -14 -5 -30q-12 -47 -56 -81.5t-95 -34.5h-380l-56 -210h69q55 0 85 -39q17 -25 17 -55q0 -14 -5 -30q-12 -47 -55.5 -81.5t-94.5 -34.5h-80z" />
    <glyph glyph-name="lira" unicode="&#x20a4;" 
d="M1109 1155q5 18 5 35q0 32 -18 56q-25 34 -73 34q-52 0 -101 -39t-65 -95l-73 -276h269q55 0 85 -39q17 -25 17 -55q0 -14 -5 -30q-12 -47 -56 -81.5t-95 -34.5h-280l-109 -410h369q55 0 85 -39q17 -25 17 -55q0 -14 -5 -30q-12 -47 -56 -81.5t-95 -34.5h-800
q-56 0 -83 40q-19 23 -19 54q0 14 5 30q12 47 56 81.5t95 34.5h180l109 410h-69q-56 0 -83 40q-19 23 -19 54q0 14 5 30q12 47 56 81.5t95 34.5h80l76 284q40 151 176.5 258.5t291.5 107.5q159 0 242 -112q52 -73 52 -164q0 -46 -14 -98q-12 -47 -56 -81.5t-95 -34.5
q-56 0 -83 40q-19 23 -19 54q0 14 5 31z" />
    <glyph glyph-name="peseta" unicode="&#x20a7;" 
d="M948 1280h-155l-109 -410h144q83 0 160 61t101 148q8 30 8 56q0 50 -29 89q-41 56 -120 56zM312 420l264 984q12 47 56 81.5t95 34.5h275q190 0 289 -134q63 -88 63 -197q0 -56 -17 -118q-48 -182 -212.5 -311.5t-350.5 -129.5h-155l-56 -210h69q55 0 85 -39
q17 -25 17 -55q0 -14 -5 -30q-12 -47 -55.5 -81.5t-94.5 -34.5h-80l-23 -84q-12 -47 -56 -81.5t-95 -34.5q-56 0 -83 40q-19 23 -19 54q0 14 5 30l20 76h-69q-55 0 -84 40q-19 23 -19 54q0 14 5 30q12 47 56 81.5t95 34.5h80z" />
    <glyph glyph-name="Euro" unicode="&#x20ac;" 
d="M448 1020l43 159q37 141 164 241t272 100h175q149 0 227 -105q48 -68 48 -153q0 -43 -13 -91q-12 -47 -56 -81.5t-95 -34.5q-56 0 -83 40q-19 23 -19 54q0 14 5 30q4 16 4 30q0 25 -15 45q-19 26 -57 26h-175q-42 0 -81.5 -31.5t-52.5 -77.5l-40 -151h194q55 0 85 -39
q17 -25 17 -55q0 -14 -5 -30q-12 -47 -56 -81.5t-95 -34.5h-205l-15 -60h194q55 0 85 -39q17 -25 17 -55q0 -14 -5 -30q-12 -47 -56 -81.5t-95 -34.5h-205l-43 -159q-4 -16 -4 -30q0 -25 15 -44q19 -27 57 -27h175q42 0 82 31q29 24 49 69l10 34q12 47 56 81.5t95 34.5
q55 0 85 -39q17 -25 17 -55q0 -14 -5 -30l-18 -66h-2q-37 -109 -151 -199q-127 -101 -272 -101h-175q-149 0 -227 105q-49 67 -49 152q0 32 2 43h-2l54 200h-44q-56 0 -83 40q-19 23 -19 54q0 14 5 30q12 47 56 81.5t95 34.5h55l15 60h-44q-56 0 -83 40q-19 23 -19 54
q0 14 5 30q12 47 56 81.5t95 34.5h55z" />
    <glyph glyph-name="afii61352" unicode="&#x2116;" horiz-adv-x="1300" 
d="M548 1454l136 -391l105 391q7 27 32 46.5t56 19.5q34 0 52 -23q12 -15 12 -35q0 -7 -3 -16l-174 -650q-7 -26 -32.5 -46t-55.5 -20q-36 0 -51 21.5t-20 44.5l-137 391l-104 -391q-7 -26 -32.5 -46t-55.5 -20q-36 0 -53 25q-11 14 -11 33q0 8 3 16l174 650q7 27 32 46.5
t56 19.5q34 0 50 -21t21 -45zM1417 996q-29 -109 -128.5 -187.5t-212.5 -78.5q-118 0 -179 84q-39 53 -39 119q0 34 11 71l67 250q29 110 128 188t213 78q117 0 178 -83q40 -53 40 -120q0 -33 -11 -71zM1017 996q-5 -19 -5 -36q0 -32 18 -56q25 -34 73 -34q52 0 101 39
t65 95l67 250q5 19 5 36q0 32 -18 56q-25 34 -73 34q-52 0 -101 -39t-65 -95z" />
    <glyph glyph-name="trademark" unicode="&#x2122;" horiz-adv-x="1300" 
d="M720 1380l-156 -584q-7 -26 -32.5 -46t-55.5 -20q-36 0 -53 25q-11 14 -11 33q0 8 3 16l154 576h-119q-34 0 -53 25q-10 15 -10 32q0 8 3 17q6 27 31 46.5t56 19.5h400q34 0 52 -23q12 -15 12 -35q0 -7 -3 -16q-7 -26 -32 -46t-56 -20h-130zM1538 1446l-174 -650
q-7 -26 -32.5 -46t-55.5 -20q-36 0 -53 25q-11 14 -11 33q0 8 3 16l37 139l-99 -173q-3 -5 -21 -19q-26 -21 -56 -21q-36 0 -53 25q-10 13 -10 30v-15l-7 183l-42 -157q-7 -26 -32.5 -46t-55.5 -20q-36 0 -53 25q-11 14 -11 33q0 8 3 16l174 650q7 27 32 46q25 20 56 20
q33 0 54 -24q10 -16 10 -45v-11l14 -390l228 399q24 36 39 50q23 21 55 21q34 0 52 -23q12 -15 12 -35q0 -7 -3 -16z" />
    <glyph glyph-name="partialdiff" unicode="&#x2202;" horiz-adv-x="1650" 
d="M0 200v1100q0 200 200 200h1100q200 0 200 -200v-1100q0 -200 -200 -200h-1100q-200 0 -200 200zM1475 201v1099q0 175 -175 175h-1100q-174 0 -175 -175v-1100q1 -175 175 -175h1101q174 0 174 176z" />
    <glyph glyph-name="Delta" unicode="&#x2206;" horiz-adv-x="1650" 
d="M0 200v1100q0 200 200 200h1100q200 0 200 -200v-1100q0 -200 -200 -200h-1100q-200 0 -200 200zM1475 201v1099q0 175 -175 175h-1100q-174 0 -175 -175v-1100q1 -175 175 -175h1101q174 0 174 176z" />
    <glyph glyph-name="product" unicode="&#x220f;" horiz-adv-x="1650" 
d="M0 200v1100q0 200 200 200h1100q200 0 200 -200v-1100q0 -200 -200 -200h-1100q-200 0 -200 200zM1475 201v1099q0 175 -175 175h-1100q-174 0 -175 -175v-1100q1 -175 175 -175h1101q174 0 174 176z" />
    <glyph glyph-name="summation" unicode="&#x2211;" horiz-adv-x="1650" 
d="M0 200v1100q0 200 200 200h1100q200 0 200 -200v-1100q0 -200 -200 -200h-1100q-200 0 -200 200zM1475 201v1099q0 175 -175 175h-1100q-174 0 -175 -175v-1100q1 -175 175 -175h1101q174 0 174 176z" />
    <glyph glyph-name="minus" unicode="&#x2212;" 
d="M299 630q-56 0 -83 40q-19 23 -19 54q0 14 5 30q12 47 56 81.5t95 34.5h800q55 0 85 -39q17 -25 17 -55q0 -14 -5 -30q-12 -47 -56 -81.5t-95 -34.5h-800z" />
    <glyph glyph-name="radical" unicode="&#x221a;" horiz-adv-x="1650" 
d="M0 200v1100q0 200 200 200h1100q200 0 200 -200v-1100q0 -200 -200 -200h-1100q-200 0 -200 200zM1475 201v1099q0 175 -175 175h-1100q-174 0 -175 -175v-1100q1 -175 175 -175h1101q174 0 174 176z" />
    <glyph glyph-name="infinity" unicode="&#x221e;" horiz-adv-x="1650" 
d="M0 200v1100q0 200 200 200h1100q200 0 200 -200v-1100q0 -200 -200 -200h-1100q-200 0 -200 200zM1475 201v1099q0 175 -175 175h-1100q-174 0 -175 -175v-1100q1 -175 175 -175h1101q174 0 174 176z" />
    <glyph glyph-name="integral" unicode="&#x222b;" horiz-adv-x="1650" 
d="M0 200v1100q0 200 200 200h1100q200 0 200 -200v-1100q0 -200 -200 -200h-1100q-200 0 -200 200zM1475 201v1099q0 175 -175 175h-1100q-174 0 -175 -175v-1100q1 -175 175 -175h1101q174 0 174 176z" />
    <glyph glyph-name="approxequal" unicode="&#x2248;" horiz-adv-x="1650" 
d="M0 200v1100q0 200 200 200h1100q200 0 200 -200v-1100q0 -200 -200 -200h-1100q-200 0 -200 200zM1475 201v1099q0 175 -175 175h-1100q-174 0 -175 -175v-1100q1 -175 175 -175h1101q174 0 174 176z" />
    <glyph glyph-name="lessequal" unicode="&#x2264;" horiz-adv-x="1650" 
d="M0 200v1100q0 200 200 200h1100q200 0 200 -200v-1100q0 -200 -200 -200h-1100q-200 0 -200 200zM1475 201v1099q0 175 -175 175h-1100q-174 0 -175 -175v-1100q1 -175 175 -175h1101q174 0 174 176z" />
    <glyph glyph-name="greaterequal" unicode="&#x2265;" horiz-adv-x="1650" 
d="M0 200v1100q0 200 200 200h1100q200 0 200 -200v-1100q0 -200 -200 -200h-1100q-200 0 -200 200zM1475 201v1099q0 175 -175 175h-1100q-174 0 -175 -175v-1100q1 -175 175 -175h1101q174 0 174 176z" />
    <glyph glyph-name="uniF001" unicode="&#xf001;" horiz-adv-x="1073" 
 />
    <glyph glyph-name="uniF001" unicode="&#xfb01;" horiz-adv-x="1073" 
 />
    <glyph glyph-name="uniF002" unicode="&#xf002;" horiz-adv-x="1081" 
 />
    <glyph glyph-name="uniF002" unicode="&#xfb02;" horiz-adv-x="1081" 
 />
    </font>
</defs>
</svg>
