<?xml version="1.0" standalone="no"?>
<!DOCTYPE svg PUBLIC "-//W3C//DTD SVG 1.1//EN" "http://www.w3.org/Graphics/SVG/1.1/DTD/svg11.dtd" >
<svg xmlns="http://www.w3.org/2000/svg" xmlns:xlink="http://www.w3.org/1999/xlink" version="1.1">
<metadata></metadata>
<defs>
<font id="vonique_92regular" horiz-adv-x="1615" >
<font-face units-per-em="2048" ascent="1638" descent="-410" />
<missing-glyph horiz-adv-x="400" />
<glyph unicode="&#xd;" horiz-adv-x="100" />
<glyph horiz-adv-x="100" />
<glyph horiz-adv-x="100" />
<glyph unicode=" "  horiz-adv-x="400" />
<glyph unicode="&#x09;" horiz-adv-x="400" />
<glyph unicode="&#xa0;" horiz-adv-x="400" />
<glyph unicode="!" horiz-adv-x="321" d="M0 74q0 46 32.5 78.5t78.5 32.5q45 0 77.5 -32.5t32.5 -78.5q0 -45 -32.5 -77.5t-77.5 -32.5q-46 0 -78.5 32.5t-32.5 77.5zM37 281l1 1479h142l-1 -1479h-142z" />
<glyph unicode="&#x22;" horiz-adv-x="464" d="M0 971v482h149l-1 -482h-148zM215 971v482h149l-1 -482h-148z" />
<glyph unicode="#" horiz-adv-x="1141" d="M0 489v139h213l64 263h-185l1 139h217l86 359h143l-85 -359h255l86 359h143l-85 -359h188l-1 -139h-221l-64 -263h193v-139h-226l-110 -459h-144l111 459h-256l-110 -459h-144l111 459h-180zM356 628h256l63 263h-255z" />
<glyph unicode="$" horiz-adv-x="561" d="M11 836v22h136q0 -57 24.5 -82t61.5 -25q35 0 61 25t26 62q0 36 -23 56t-98 40t-120 54q-67 66 -68 158q0 91 66 157q44 44 85 55v96h143v-96q42 -11 86 -55q65 -66 65 -157v-34h-140q4 29 4 35q1 37 -25 62.5t-62 25.5t-61 -25.5t-26 -62.5q0 -35 23 -59 q46 -23 118 -41.5t120.5 -68.5t48.5 -142t-65 -157q-45 -45 -86 -56v-95h-143v95q-41 11 -85 56q-66 65 -66 157z" />
<glyph unicode="%" horiz-adv-x="976" d="M-14 1206q0 87 62 148.5t148 61.5q88 0 149.5 -61.5t61.5 -148.5t-62 -149t-149 -62q-86 0 -148 62t-62 149zM118 1208q0 -34 23 -57.5t57 -23.5q33 0 57 23.5t24 57.5t-24 57t-57 23q-34 0 -57.5 -23t-22.5 -57zM121 575l462 879h150l-461 -879h-151zM452 800 q0 86 62 148t149 62t148.5 -62t61.5 -148q1 -87 -61.5 -149t-148.5 -62q-87 0 -148.5 62t-62.5 149zM583 801q0 -33 24 -57t58 -24t57 24t23 57q1 34 -23 57.5t-58 23.5q-33 0 -56.5 -23.5t-24.5 -57.5z" />
<glyph unicode="&#x26;" horiz-adv-x="1232" d="M0 570q0 133 69 249q66 113 162 168q-22 44 -22 113q0 118 82 201t199 83q116 0 199 -83t83 -201q0 -39 -18 -92h-154q31 59 31 92q0 58 -42 101q-40 39 -99 39q-57 0 -99 -39q-40 -43 -40 -101q0 -3 2 -13q13 -101 133 -138q-108 -38 -180 -85q-76 -46 -120 -123 q-45 -79 -45 -171q0 -146 102 -248t247 -102q144 0 247 102q102 102 102 248q0 40 -7 66h-122q-124 0 -195 -98h-161l38 58q112 175 318 175h101q113 0 192 93l119 -61q-53 -92 -152 -132q11 -43 11 -101q0 -205 -144 -349q-143 -145 -347 -145q-203 0 -346 145 q-144 144 -144 349z" />
<glyph unicode="'" horiz-adv-x="179" d="M0 1505l265 449h167l-273 -449h-159z" />
<glyph unicode="(" horiz-adv-x="564" d="M41 536q-41 225 37 458q91 271 286 467l100 -99q-180 -183 -258 -423q-147 -462 258 -868l-100 -99q-269 269 -323 564z" />
<glyph unicode=")" horiz-adv-x="564" d="M0 71q405 406 258 868q-76 240 -258 423l99 99q196 -196 287 -467q78 -233 37 -458q-54 -295 -324 -564z" />
<glyph unicode="*" horiz-adv-x="848" d="M0 1008v142h202l-141 143l100 100l142 -142v202h142v-202l144 142l100 -100l-143 -143h202v-142h-202l142 -143l-100 -100l-143 142v-202h-142v202l-143 -143l-100 101l142 143h-202z" />
<glyph unicode="+" horiz-adv-x="915" d="M0 643v145h316v316h145v-316h316v-145h-316v-316h-145v316h-316z" />
<glyph unicode="," horiz-adv-x="445" d="M0 -118l178 296h167l-186 -296h-159z" />
<glyph unicode="-" horiz-adv-x="902" d="M0 643v145h777v-145h-777z" />
<glyph unicode="." horiz-adv-x="321" d="M0 74q0 46 32.5 78.5t78.5 32.5q45 0 77.5 -32.5t32.5 -78.5q0 -45 -32.5 -77.5t-77.5 -32.5q-46 0 -78.5 32.5t-32.5 77.5z" />
<glyph unicode="/" horiz-adv-x="1026" d="M0 -20l766 1472h160l-766 -1472h-160z" />
<glyph unicode="0" horiz-adv-x="1313" d="M0 719q1 313 177 534q178 225 430 225q253 0 430 -225q176 -221 175 -534q1 -313 -175 -534q-177 -225 -430 -225q-252 0 -430 225q-176 221 -177 534zM149 719q1 -254 137 -434q134 -176 321 -176q188 0 322 176q136 180 135 434q1 254 -135 434q-134 176 -322 176 q-187 0 -321 -176q-136 -180 -137 -434z" />
<glyph unicode="1" horiz-adv-x="352" d="M0 1301v155h250v-2h2v-1473h-154v1320h-98z" />
<glyph unicode="2" horiz-adv-x="1200" d="M9 -16l728 592q230 176 234 359t-110 297q-116 114 -280 114q-143 0 -251 -90q-110 -89 -137 -237l-143 1q31 209 180 337q152 131 351 131q222 0 378 -156q158 -155 151 -402.5t-233 -424.5l-462 -377l676 -1v-145z" />
<glyph unicode="3" horiz-adv-x="1167" d="M0 434h143q27 -148 137 -237q108 -90 251 -90q164 0 280 113q114 114 114 274q-1 122 -72 222q-73 112 -217 188l-90 59l90 96q58 74 58 123q0 67 -47 114q-48 47 -115 47q-176 -11 -148 -250h-143q-14 51 -14 89q0 7 1 22q9 118 94 199q89 82 209 82q126 0 215 -89 q90 -89 90 -214q0 -132 -68 -201q65 -38 140 -114q159 -154 159 -373t-158 -374q-156 -155 -378 -155q-199 0 -351 131q-149 129 -180 338z" />
<glyph unicode="4" horiz-adv-x="1320" d="M68 507l998 988l-1 -855h159v-134h-159v-533h-142v533zM397 639h523l2 518z" />
<glyph unicode="5" horiz-adv-x="1273" d="M0 431h152q50 -141 164 -221q117 -82 263 -82q185 0 316 124q129 124 129 297q0 174 -130 297q-130 124 -322 124l-1 1h-309v23v435v23h496v-144h-352l1 -190h155q264 0 436 -167q174 -166 174 -402q1 -237 -175 -403q-173 -166 -418 -166q-204 0 -364 121 q-157 119 -215 330z" />
<glyph unicode="6" horiz-adv-x="1376" d="M11 609q11 259 204 435l448 410h214l-261 -238q58 11 212 -38q159 -50 272 -174q176 -192 164 -451q-11 -259 -202 -435q-193 -175 -452 -164t-435 203q-175 192 -164 452zM159 605q-10 -202 127 -349q134 -148 336 -157q201 -9 349 127q147 135 156 336q9 202 -127 350 q-134 147 -336 156q-201 9 -348 -128q-148 -134 -157 -335z" />
<glyph unicode="7" horiz-adv-x="1215" d="M0 1310v145h1115l-88 -135l-691 -1340h-170l686 1330h-852z" />
<glyph unicode="8" horiz-adv-x="1178" d="M0 484q0 220 159 376q78 78 152 107q-80 70 -79 208q-1 127 89 217q91 90 218 90q128 0 218 -90q91 -90 92 -217q-1 -138 -82 -208q122 -48 215 -181q96 -136 96 -302q0 -220 -158 -376q-158 -157 -381 -157t-381 157q-158 156 -158 376zM152 484q0 -158 113 -269 q114 -112 274 -112q161 0 274 112q114 111 114 269q0 157 -114 269q-113 111 -274 111t-274 -111q-113 -112 -113 -269zM379 1175q0 -65 46 -112q49 -47 115 -47t112 47q49 48 49 112q-1 66 -47 112q-48 47 -114 47t-114 -47q-48 -46 -47 -112z" />
<glyph unicode="9" horiz-adv-x="1375" d="M11 881q12 259 203 435q193 175 452 164q258 -11 434 -203q175 -192 164 -452q-10 -259 -204 -435l-447 -410h-214l261 238q-58 -11 -212 38q-159 50 -273 173q-175 193 -164 452zM149 881q-10 -202 127 -349q134 -148 336 -157q201 -9 349 127q147 135 156 336 q9 202 -127 350q-134 147 -336 156q-201 9 -348 -128q-148 -134 -157 -335z" />
<glyph unicode=":" horiz-adv-x="322" d="M0 484q1 46 33 78.5t78 32.5q45 0 78 -32.5t32 -78.5q0 -45 -32.5 -77.5t-77.5 -32.5q-46 0 -78.5 32.5t-32.5 77.5zM1 949q-1 46 31.5 78.5t78.5 32.5q45 0 77.5 -32t33.5 -79q-1 -46 -33.5 -78t-77.5 -32q-46 0 -78.5 32.5t-31.5 77.5z" />
<glyph unicode=";" horiz-adv-x="445" d="M0 289l178 296h167l-186 -296h-159zM119 949q0 46 32.5 78.5t78.5 32.5t78.5 -32.5t32.5 -78.5q0 -45 -32.5 -77.5t-78.5 -32.5t-78.5 32.5t-32.5 77.5z" />
<glyph unicode="&#x3c;" horiz-adv-x="1137" d="M0 724l1037 538v-170q-84 -44 -396 -205q-281 -146 -314 -163q168 -86 710 -367v-170z" />
<glyph unicode="=" horiz-adv-x="916" d="M0 804v143h815v-143h-815zM1 524v143h815v-143h-815z" />
<glyph unicode="&#x3e;" horiz-adv-x="1137" d="M0 187v170q541 281 709 367q-33 17 -314 163q-312 161 -395 205v170l1037 -538z" />
<glyph unicode="?" horiz-adv-x="1305" d="M1 1184q-1 234 175 404q177 170 426 170t426 -169q177 -168 177 -410q0 -223 -157 -390q-156 -163 -371 -183v-320h-138l1 455h48q207 0 340 128q136 130 136 310t-135 310q-134 128 -327 128q-191 0 -326 -127q-134 -129 -128 -305zM502 74q0 44 31 75t75 31t75 -31 t31 -75q0 -43 -31 -74t-75 -31t-75 31t-31 74z" />
<glyph unicode="@" horiz-adv-x="1621" d="M4 716q0 151 58 289q56 136 162 243q106 106 243 162q138 58 288 58q151 0 289 -58q136 -56 243 -162q106 -107 162 -243q58 -138 58 -289q0 -61 -9.5 -116.5t-26.5 -81.5q-28 -61 -90 -99q-61 -39 -134 -39q-65 0 -122 32q-55 31 -69 52q-33 -47 -118 -93 q-86 -45 -183 -45q-79 0 -152 31q-69 29 -124 83q-54 55 -83 124q-31 73 -31 152q0 80 31 153q29 69 83 124q55 54 124 83q73 31 152 31q80 0 153 -31q69 -29 124 -83q54 -55 83 -124q31 -73 31 -153v-18q-8 -164 102 -174q39 0 72 29q14 13 24 29q9 14 10 29q1 7 2 16 q2 11 3 21q3 27 3 39v1l1 28q0 122 -45 233q-47 111 -132 198q-87 85 -198 132q-111 45 -233 45q-121 0 -232 -45q-111 -47 -198 -132q-85 -87 -132 -198q-45 -111 -45 -233q0 -121 45 -232q47 -111 132 -198q87 -85 198 -132q111 -45 232 -45q122 0 233 45q111 47 198 132 q10 10 36 39l96 -109l-31 -31q-107 -106 -243 -162q-138 -58 -289 -58q-150 0 -288 58q-137 56 -243 162t-162 243q-58 138 -58 288zM509 716q0 -49 19 -95t53 -79q33 -34 79 -53t95 -19q44 0 83 14t72 41q33 25 55 62q23 36 31 77q2 11 5 22q1 15 1 30q0 50 -19 96t-53 79 q-33 34 -79 53t-96 19q-49 0 -95 -19t-79 -53q-34 -33 -53 -79t-19 -96z" />
<glyph unicode="A" horiz-adv-x="1665" d="M0 -22l697 1327v1l92 172l86 -164l701 -1336h-162l-625 1184l-631 -1184h-158z" />
<glyph unicode="B" horiz-adv-x="1243" d="M0 -20v1475h619q111 0 198 -55q122 -74 122 -220q0 -139 -79 -192q283 -113 283 -471q0 -333 -279 -468q-142 -69 -281 -69h-583zM144 123h439q110 1 213 52q199 99 199 343q1 13 1 27q0 258 -408 434q132 71 177 132q24 31 25 69q0 77 -76 109q-44 18 -95 18h-475v-1184 z" />
<glyph unicode="C" horiz-adv-x="1599" d="M5 719q0 312 222 534t535 222q262 0 467 -162q204 -158 271 -421h-143q-61 200 -223 323q-164 124 -372 124q-258 0 -440 -181q-181 -182 -181 -439q0 -258 181 -440q182 -181 440 -181q203 0 366 120q160 117 226 312h141q-71 -256 -272 -411q-204 -157 -462 -157 q-313 0 -534 222q-222 222 -222 535z" />
<glyph unicode="D" horiz-adv-x="1251" d="M0 -19l1 1474h209l137 -1q142 0 232 -18q217 -43 365 -180q207 -193 207 -539q0 -345 -208 -538q-146 -136 -375 -181q-96 -18 -179 -18q-22 0 -43 1h-241h-105zM145 129h207q322 0 491 159q160 150 160 429q0 281 -160 431q-118 110 -315 145q-101 13 -178 13h-205 v-1177z" />
<glyph unicode="E" horiz-adv-x="1236" d="M0 -20v1475h1136v-147h-987v-1182h987v-146h-1136zM274 388v145h858v-145h-858z" />
<glyph unicode="F" horiz-adv-x="1236" d="M0 -20v1475h1136v-147h-987v-1329zM274 388v145h858v-145h-858z" />
<glyph unicode="G" horiz-adv-x="1715" d="M5 719q0 312 222 534t535 222q262 0 467 -162q204 -158 271 -421h-143q-61 200 -223 323q-164 124 -372 124q-258 0 -440 -181q-181 -182 -181 -439q0 -258 181 -440q182 -181 440 -181q203 0 366 120q160 117 226 312h289v-143h-198q-69 -150 -222 -268 q-204 -157 -462 -157q-313 0 -534 222q-222 222 -222 535z" />
<glyph unicode="H" horiz-adv-x="1337" d="M0 -20v1475h145v-923h947v923h145v-1475h-145v408h-947v-408h-145z" />
<glyph unicode="I" horiz-adv-x="245" d="M0 -20v1475h145v-1475h-145z" />
<glyph unicode="J" horiz-adv-x="1527" d="M0 -440h156q62 -143 211 -252q151 -112 339 -112q236 0 404 167q166 166 166 404v1687h150v-1687q1 -299 -210 -511q-211 -210 -509 -210q-248 0 -444 151q-190 149 -263 363z" />
<glyph unicode="K" horiz-adv-x="1534" d="M0 -25v1475h145v-1475h-145zM269 520l940 937h205l-941 -937l961 -961h-204z" />
<glyph unicode="L" horiz-adv-x="1231" d="M0 -20v1475h145v-1330h986v-145h-1131z" />
<glyph unicode="M" horiz-adv-x="1561" d="M0 -20v1530l733 -1260l726 1257l2 -1527h-139v984l-595 -1003l-590 993v-974h-137z" />
<glyph unicode="N" horiz-adv-x="1436" d="M0 -20v1503l1191 -1184v1156h145v-1486l-1191 1165v-1154h-145z" />
<glyph unicode="O" d="M0 720q1 313 223 535t535 222t535 -222q221 -221 221 -532q0 -316 -222 -538t-535 -222t-535 222t-222 535zM144 720q0 -254 179 -434q180 -179 434 -179t434 179q179 180 179 434t-179 434q-180 179 -434 179t-434 -179q-179 -180 -179 -434z" />
<glyph unicode="P" horiz-adv-x="1134" d="M0 -20v1475h473q140 0 281 -69q280 -137 280 -470q0 -334 -280 -470q-141 -68 -281 -68h-328v-398h-145zM145 521h328q109 1 213 53q199 97 199 342q0 244 -198 343q-105 52 -214 52h-328v-790z" />
<glyph unicode="Q" d="M0 720q1 313 223 535t535 222t535 -222q221 -221 221 -532q0 -316 -222 -538t-535 -222t-535 222t-222 535zM144 720q0 -254 179 -434q180 -179 434 -179t434 179q179 180 179 434t-179 434q-180 179 -434 179t-434 -179q-179 -180 -179 -434zM242 -47l72 43l49 32 l33 -50q19 -29 55 -59q74 -55 167 -55h287q145 0 259 -88q57 -46 87 -95l30 -50l-72 -44l-49 -30l-32 49q-18 29 -56 58q-72 55 -166 55h-287q-145 0 -258 88q-59 46 -89 95z" />
<glyph unicode="R" horiz-adv-x="1136" d="M0 -20v1475h105h371q140 0 281 -69q279 -137 279 -470q0 -282 -202 -425q-128 -89 -264 -105l417 -406h-212l-414 403l-140 138h255q109 0 214 52q198 99 198 343t-198 343q-104 52 -214 52h-331v-1331h-145z" />
<glyph unicode="S" horiz-adv-x="1174" d="M0 497h143q4 -176 119 -287t275 -111q163 0 277 114q116 113 116 272q0 161 -115 274q-117 114 -265 121.5t-212 65.5q-13 10 -17 15q-89 88 -89 211q0 129 90 218q88 89 214 89t217 -89l55 -55l-123 -93q-12 26 -34 47q-48 47 -115 47t-113 -47q-47 -47 -47 -114 q0 -65 47 -112q36 -38 134 -44t173 -39q153 -58 246 -192q98 -137 98 -303q0 -219 -158 -373q-158 -156 -379 -156q-220 0 -376 153q-157 151 -161 388z" />
<glyph unicode="T" horiz-adv-x="1219" d="M0 1309v145h1119v-145h-488v-1329l-145 -1v1330h-486z" />
<glyph unicode="U" horiz-adv-x="1448" d="M0 723v734h141v-734q3 -250 159 -427q155 -175 373 -175t374 174q156 176 160 425v737h141v-736q-4 -312 -200 -532q-197 -222 -474 -222q-278 0 -475 223q-196 220 -199 533z" />
<glyph unicode="V" horiz-adv-x="1676" d="M0 1455h162l625 -1184l631 1184h158l-697 -1327v-1l-92 -172l-86 164z" />
<glyph unicode="W" horiz-adv-x="2002" d="M0 1456h166l618 -1181l85 161l-534 1020h166l451 -860l449 860h165l-530 -1020l84 -161l616 1181h166l-782 -1499l-168 320l-168 -321z" />
<glyph unicode="X" horiz-adv-x="1398" d="M0 1455h170l479 -845l478 845h171l-564 -996l271 -479h-170l-186 330l-186 -330h-171l272 479z" />
<glyph unicode="Y" horiz-adv-x="1304" d="M0 1455h160l442 -851l443 851h159l-528 -1010l-1 -465h-145l1 465z" />
<glyph unicode="Z" horiz-adv-x="1251" d="M0 -20l878 1327h-869v145h1142l-876 -1327h857v-145h-1132z" />
<glyph unicode="[" horiz-adv-x="333" d="M0 -20v1472h138v-2h95v-145h-95v-1180h95v-145h-233z" />
<glyph unicode="\" horiz-adv-x="1026" d="M0 1452h160l766 -1472h-160z" />
<glyph unicode="]" horiz-adv-x="333" d="M0 -20v145h95v1180h-95v145h95v2h138v-1472h-233z" />
<glyph unicode="^" horiz-adv-x="595" d="M0 1006l248 479l247 -479h-153l-93 201l-96 -201h-153z" />
<glyph unicode="_" horiz-adv-x="902" d="M0 -20v145h777v-145h-777z" />
<glyph unicode="`" horiz-adv-x="516" d="M0 1960h167l249 -414h-159z" />
<glyph unicode="a" d="M0 720q1 313 223 535t535 222t535 -222t221 -535v-740h-144v289q-10 -16 -78 -84q-222 -222 -535 -222t-535 222t-222 535zM144 720q0 -254 179 -434q180 -179 434 -179t434 179q179 180 179 434t-179 434q-180 179 -434 179t-434 -179q-179 -180 -179 -434z" />
<glyph unicode="b" d="M1 720v1043h144v-592q10 16 78 84q222 222 535 222t535 -222t222 -535q-1 -313 -223 -535t-535 -222t-535 222t-221 535zM145 720q0 -254 179 -434q180 -179 434 -179t434 179q179 180 179 434t-179 434q-180 179 -434 179t-434 -179q-179 -180 -179 -434z" />
<glyph unicode="c" horiz-adv-x="1599" d="M0 720q1 313 223 535t535 222t535 -222q150 -150 205 -366h-150q-47 153 -157 265q-180 179 -434 179t-434 -179q-179 -180 -179 -434t179 -434q180 -179 434 -179t434 179q103 103 151 243h150q-59 -204 -200 -344q-222 -222 -535 -222t-535 222t-222 535z" />
<glyph unicode="d" d="M0 720q0 313 222 535t535 222t535 -222q68 -68 78 -84v592h144v-1043q1 -313 -221 -535t-535 -222t-535 222t-223 535zM144 720q0 -254 179 -434q180 -179 434 -179t434 179q179 180 179 434t-179 434q-180 179 -434 179t-434 -179q-179 -180 -179 -434z" />
<glyph unicode="e" horiz-adv-x="1599" d="M0 720q1 313 223 535t535 222t535 -222q150 -150 205 -363l-1332 -2q-22 -72 -22 -170q0 -254 179 -434q180 -179 434 -179t434 179q103 103 151 243h150q-59 -204 -200 -344q-222 -222 -535 -222t-535 222t-222 535zM225 1029h1064q-27 53 -98 125q-180 179 -434 179 t-434 -179q-71 -72 -98 -125z" />
<glyph unicode="f" horiz-adv-x="773" d="M0 1308v147h103v186q1 132 92 225q92 94 223 94q129 0 222 -94q12 -12 33 -37l-102 -101q-22 28 -31 37q-51 52 -122 52q-72 0 -122 -52q-51 -52 -51 -126v-184h118v-147h-118l-1 -1330h-141v1330h-103z" />
<glyph unicode="g" d="M0 720q1 313 223 535t535 222q301 0 493 -182q14 24 14 56q0 72 -70 184l127 57l37 -83q37 -81 37 -166q0 -47 -12 -96q-11 -45 -23 -68q153 -190 153 -456q0 -316 -222 -538t-535 -222t-535 222t-222 535zM144 720q0 -254 179 -434q180 -179 434 -179t434 179 q179 180 179 434t-179 434q-180 179 -434 179t-434 -179q-179 -180 -179 -434zM235 -808q1 221 157 377q157 157 378 157q220 0 377 -157q156 -155 156 -374q0 -224 -157 -380q-156 -157 -377 -157t-377 157q-157 156 -157 377zM236 -11l72 43l49 32l33 -50q19 -29 55 -59 q74 -55 167 -55h287q145 0 259 -88q57 -46 87 -95l30 -50l-72 -44l-49 -30l-32 49q-18 29 -56 58q-72 55 -166 55h-287q-145 0 -258 88q-59 46 -89 95zM376 -808q0 -163 115 -278t278 -115t278 115t115 278t-115 278t-278 115t-278 -115t-115 -278z" />
<glyph unicode="h" horiz-adv-x="1448" d="M0 -22v1784h140v-586q4 7 60 70q197 222 474 222q278 0 475 -223q196 -220 199 -533v-734h-141v734q-3 250 -159 427q-155 175 -373 175t-374 -174q-156 -176 -160 -425v-737h-141z" />
<glyph unicode="i" horiz-adv-x="245" d="M0 -20v1475h145v-1475h-145zM0 1623v137h145v-137h-145z" />
<glyph unicode="j" horiz-adv-x="811" d="M1 -369q246 2 406 172q161 170 161 411v1241h147v-1241q0 -303 -202 -519q-203 -215 -512 -217v153z" />
<glyph unicode="k" horiz-adv-x="1342" d="M0 -20v1780h144v-1260l896 954h202l-941 -1000l504 -475h-214l-447 419v-418h-144z" />
<glyph unicode="l" horiz-adv-x="245" d="M0 -20v1781h145v-1781h-145z" />
<glyph unicode="m" horiz-adv-x="2213" d="M0 -20v939q3 230 168 390q165 161 395 161q168 0 308 -90q136 -88 186 -196q49 108 186 196q140 90 307 90q232 0 397 -161q165 -163 166 -393v-936h-140v939q-3 170 -126 291q-124 121 -297 121t-297 -121q-123 -121 -126 -291v-939h-141v939q-3 170 -126 291t-297 121 q-173 0 -296 -121q-124 -121 -126 -291v-939h-141z" />
<glyph unicode="n" horiz-adv-x="1448" d="M0 -22v736q4 312 200 532q197 222 474 222q278 0 475 -223q196 -220 199 -533v-734h-141v734q-3 250 -159 427q-155 175 -373 175t-374 -174q-156 -176 -160 -425v-737h-141z" />
<glyph unicode="o" d="M0 720q1 313 223 535t535 222t535 -222q221 -221 221 -532q0 -316 -222 -538t-535 -222t-535 222t-222 535zM144 720q0 -254 179 -434q180 -179 434 -179t434 179q179 180 179 434t-179 434q-180 179 -434 179t-434 -179q-179 -180 -179 -434z" />
<glyph unicode="p" d="M1 -518v1237q-1 313 221 535t535 222t535 -222t223 -535q0 -313 -222 -535t-535 -222t-535 222q-68 68 -78 84v-786h-144zM145 719q0 -254 179 -434q180 -179 434 -179t434 179q179 180 179 434t-179 434q-180 179 -434 179t-434 -179q-179 -180 -179 -434z" />
<glyph unicode="q" d="M0 719q1 313 223 535t535 222t535 -222t221 -535v-1237h-144v786q-10 -16 -78 -84q-222 -222 -535 -222t-535 222t-222 535zM144 719q0 -254 179 -434q180 -179 434 -179t434 179q179 180 179 434t-179 434q-180 179 -434 179t-434 -179q-179 -180 -179 -434z" />
<glyph unicode="r" horiz-adv-x="905" d="M0 -22v736q4 312 200 532q197 222 474 222q66 0 128 -13v-157q-61 16 -127 16q-218 0 -374 -174q-156 -176 -160 -425v-737h-141z" />
<glyph unicode="s" horiz-adv-x="1174" d="M0 497h143q4 -176 119 -287t275 -111q163 0 277 114q116 113 116 272q0 161 -115 274q-117 114 -265 121.5t-212 65.5q-13 10 -17 15q-89 88 -89 211q0 129 90 218q88 89 214 89t217 -89l55 -55l-123 -93q-12 26 -34 47q-48 47 -115 47t-113 -47q-47 -47 -47 -114 q0 -65 47 -112q36 -38 134 -44t173 -39q153 -58 246 -192q98 -137 98 -303q0 -219 -158 -373q-158 -156 -379 -156q-220 0 -376 153q-157 151 -161 388z" />
<glyph unicode="t" horiz-adv-x="919" d="M0 1311v145h337v305h145v-305h337v-145h-337v-1331h-146v1331h-336z" />
<glyph unicode="u" horiz-adv-x="1448" d="M0 723v734h141v-734q3 -250 159 -427q155 -175 373 -175t374 174q156 176 160 425v737h141v-736q-4 -312 -200 -532q-197 -222 -474 -222q-278 0 -475 223q-196 220 -199 533z" />
<glyph unicode="v" horiz-adv-x="1676" d="M0 1455h162l625 -1184l631 1184h158l-697 -1327v-1l-92 -172l-86 164z" />
<glyph unicode="w" horiz-adv-x="2213" d="M0 529v925h141v-927q2 -173 126 -295q123 -121 296 -121q174 0 297 121q123 122 126 295v927h141v-927q3 -173 126 -295q124 -121 297 -121t297 121q123 122 126 295v927h140v-928q-3 -230 -167 -393q-165 -163 -396 -163q-167 0 -307 91q-136 89 -186 198 q-50 -109 -186 -198q-140 -91 -308 -91q-231 0 -396 164t-167 395z" />
<glyph unicode="x" horiz-adv-x="1693" d="M0 29l694 694l-694 694l103 102l693 -694l695 695l102 -103l-694 -694l694 -694l-102 -103l-695 695l-693 -694z" />
<glyph unicode="y" horiz-adv-x="1345" d="M0 680v776h145l-1 -775v-11q0 -188 137 -376q147 -164 342 -164q185 0 331 146q140 155 143 367l1 814l147 -1v-1198v-163q-3 -287 -185 -491q-183 -205 -438 -205q-209 0 -376 145q-168 143 -222 370l-14 37h151l9 -20q49 -170 174 -273q124 -102 278 -102 q192 0 334 157q140 159 144 382l-2 131q-44 -75 -179 -160q-138 -84 -296 -84q-257 0 -440 206q-181 204 -183 492z" />
<glyph unicode="z" horiz-adv-x="1251" d="M0 -20l878 1327h-869v145h1142l-876 -1327h857v-145h-1132z" />
<glyph unicode="{" horiz-adv-x="580" d="M0 701q130 84 130 146v522q-2 265 350 301v-156q-191 -14 -199 -146v-521q1 -102 -67 -146q68 -43 68 -145l-1 -555q19 -110 199 -110l-1 -160q-333 27 -349 264l1 561q0 62 -131 145z" />
<glyph unicode="|" horiz-adv-x="245" d="M0 -443v2175h145v-2175h-145z" />
<glyph unicode="}" horiz-adv-x="580" d="M0 -109q180 0 199 110l-1 555q0 102 68 145q-68 44 -67 146v521q-8 132 -199 146v156q352 -36 350 -301v-522q0 -62 130 -146q-131 -83 -131 -145l1 -561q-16 -237 -349 -264z" />
<glyph unicode="~" horiz-adv-x="1200" d="M0 574q109 205 315 205q161 0 283 -131q85 -92 190 -92q98 11 146 72l166 1q-111 -205 -317 -205q-161 0 -283 132q-87 91 -189 91q-116 -2 -133 -73h-178z" />
<glyph unicode="&#xa1;" horiz-adv-x="321" d="M0 1664q0 45 32.5 77.5t77.5 32.5q46 0 78.5 -32.5t32.5 -77.5q0 -46 -32.5 -78.5t-78.5 -32.5q-45 0 -77.5 32.5t-32.5 78.5zM41 -22l1 1479h142l-1 -1479h-142z" />
<glyph unicode="&#xa2;" horiz-adv-x="730" d="M0 965q0 138 98 236t236 98q54 0 77 -8l73 144h140l-99 -194q-6 3 15 -14q78 -61 118 -188h-132q-24 56 -61 88l-190 -366q10 -4 59 -4q68 0 122 40q41 29 68 88h132q-42 -126 -119 -185q-89 -69 -203 -69q-79 0 -117 18l-69 -129h-140l103 195q3 -3 -13 14 q-98 98 -98 236zM125 965q0 -77 47 -133l178 341h-16q-87 0 -148 -61t-61 -147z" />
<glyph unicode="&#xa3;" horiz-adv-x="1047" d="M25 607v143h154q-8 12 -17 25l-33 49q-18 29 -31 52q-35 59 -53 110q-45 132 15 249q72 140 230 200q138 51 291 25q148 -24 245 -110q99 -87 121 -235h-151q-22 90 -92 140q-63 43 -147 57q-108 18 -206 -16q-111 -38 -156 -128q-32 -63 -6 -136q19 -56 99 -174l32 -48 q18 -29 31 -51q3 -5 5 -9h343v-143h-278q30 -110 0 -214q-28 -97 -81 -169q43 7 212 -37l30 -8l33 -8q37 -8 71 -15q92 -18 198 15l46 -142q-143 -46 -274 -20q-35 6 -76 17l-34 9l-32 8q-125 32 -163 27q-59 -8 -194 -110l-108 104l65 69q112 128 163 301q22 80 -15 170 q-1 1 -1 3h-236z" />
<glyph unicode="&#xa4;" horiz-adv-x="778" d="M0 1011l102 101l91 -91q53 36 139 36q91 0 149 -41l96 96l100 -101l-96 -98q35 -54 35 -140q1 -86 -35 -140l97 -97l-101 -101l-95 95q-58 -40 -149 -40q-86 0 -140 36l-91 -91l-101 101l90 89q-41 58 -41 149q0 90 40 148zM203.5 778.5q0.5 -55.5 40.5 -95.5 q39 -39 95 -39t95 39q39 40 38.5 95.5t-39.5 95.5q-38 39 -94 39t-96 -39q-40 -40 -39.5 -95.5z" />
<glyph unicode="&#xa5;" horiz-adv-x="1304" d="M0 1454h160l442 -851l443 851h159l-460 -878h181v-143h-254l5 14v-91h250v-143h-250l-1 -233h-145l1 233h-258v143h258v86l9 -9h-268v143h189z" />
<glyph unicode="&#xa6;" horiz-adv-x="245" d="M1 -443v953h145v-953h-145zM1 779v953h145v-953h-145z" />
<glyph unicode="&#xa7;" horiz-adv-x="765" d="M-3 734h149q2 -118 56 -171q54 -52 131 -52q76 0 130 52q54 54 54 129t-54 128t-132 53q-74 0 -136 51l-4 4l-2 1q-63 64 -63 148q0 74 46 129q-46 53 -46 129q1 84 61 144t144 60q206 0 206 -204v-47h-149v47q0 54 -57 54q-23 0 -39 -16q-17 -17 -17 -38q0 -23 17 -40 q12 -12 25 -14l14 1q105 0 160 -41q193 -100 175 -297q-9 -107 -22 -131q22 -45 22 -121q0 -136 -98 -234q-98 -97 -237 -97q-137 0 -235 96q-97 94 -99 277zM275 1077q0 -21 17 -38q17 -16 39 -16q64 0 120 -23q34 -13 65 -33q-6 64 -53 110q-54 53 -130 53h-14 q-14 -2 -27 -14q-16 -17 -17 -39z" />
<glyph unicode="&#xa8;" horiz-adv-x="611" d="M0 1655q1 47 33.5 79t78.5 32q45 0 77.5 -32.5t31.5 -78.5q0 -45 -32 -77.5t-77 -32.5q-46 0 -79 32.5t-33 77.5zM307 1655q1 47 33.5 79t78.5 32q45 0 77.5 -32.5t31.5 -78.5q0 -45 -32 -77.5t-77 -32.5q-46 0 -79 32.5t-33 77.5z" />
<glyph unicode="&#xa9;" horiz-adv-x="1581" d="M0 716q0 307 217 524t523 217q307 0 524 -217t217 -524q0 -306 -217 -523t-524 -217q-306 0 -523 217t-217 523zM133 720q-1 -254 178.5 -433.5t433.5 -179.5q255 0 434.5 179.5t180.5 433.5q-1 255 -180 434.5t-434 179.5q-254 0 -434 -179.5t-179 -434.5zM272 732 q0 198 140 338q141 140 338 140q166 0 295 -102q128 -100 180 -301h-143q-39 130 -128 197q-90 68 -204 68q-141 0 -241 -99q-99 -100 -99 -241t98 -241q101 -99 242 -99q111 0 201 66q88 64 130 191h142q-55 -198 -181 -295q-129 -100 -292 -100q-197 0 -338 140 q-140 140 -140 338z" />
<glyph unicode="&#xaa;" horiz-adv-x="100" />
<glyph unicode="&#xab;" horiz-adv-x="1276" d="M0 738l745 387l-1 -160q-66 -35 -270 -140q-182 -95 -166 -86q72 -37 437 -226l-1 -161zM430 738l745 387l-1 -160q-66 -35 -270 -140q-182 -95 -166 -86q72 -37 437 -226l-1 -161z" />
<glyph unicode="&#xac;" horiz-adv-x="100" />
<glyph unicode="&#xad;" horiz-adv-x="902" d="M0 643v145h777v-145h-777z" />
<glyph unicode="&#xae;" horiz-adv-x="1581" d="M0 706q0 307 217 524t523 217q307 0 524 -217t217 -524q0 -306 -217 -523t-524 -217q-306 0 -523 217t-217 523zM133 710q-1 -254 178.5 -433.5t433.5 -179.5q255 0 434.5 179.5t180.5 433.5q-1 255 -180 434.5t-434 179.5q-254 0 -434 -179.5t-179 -434.5zM462 268v899 h299q87 0 173 -42q174 -86 174 -293q0 -175 -127 -264q-78 -55 -115 -60l250 -240h-191l-236 229h-96v-229h-131zM593 627h168q58 0 114 28q100 50 100 177t-101 177q-55 28 -113 28h-168v-410z" />
<glyph unicode="&#xaf;" horiz-adv-x="1075" d="M0 1310v143h975v-143h-975z" />
<glyph unicode="&#xb0;" horiz-adv-x="478" d="M0 1269q0 78 55 133.5t133 55.5t134 -55.5t56 -133.5t-55.5 -133.5t-133.5 -55.5t-133.5 55.5t-55.5 133.5zM150 1273q0 -17 11 -28t28 -11q16 0 27.5 11t11.5 28q0 16 -11.5 27.5t-27.5 11.5q-17 0 -28 -11.5t-11 -27.5z" />
<glyph unicode="&#xb1;" horiz-adv-x="646" />
<glyph unicode="&#xb2;" horiz-adv-x="100" />
<glyph unicode="&#xb3;" horiz-adv-x="1610" />
<glyph unicode="&#xb4;" horiz-adv-x="516" d="M0 1546l249 414h167l-257 -414h-159z" />
<glyph unicode="&#xb5;" horiz-adv-x="1442" d="M0 -231v1686h140v-801q23 -199 155 -350q157 -176 376 -176t375 175q157 178 161 429v722h135v-722q-4 -311 -199 -531q-196 -221 -472 -221q-277 0 -473 222q-55 62 -58 67v-500h-140z" />
<glyph unicode="&#xb6;" horiz-adv-x="760" d="M0 1170q0 119 108 202t279 83v-1h273v-130h-74l-1 -935h-142l1 935h-57v-439h-1l-1 -496h-142l1 511q-68 15 -134 67q-110 83 -110 203z" />
<glyph unicode="&#xb7;" horiz-adv-x="322" d="M0 695q1 46 33 78.5t78 32.5q45 0 78 -32.5t32 -78.5q0 -45 -32.5 -77.5t-77.5 -32.5q-46 0 -78.5 32.5t-32.5 77.5z" />
<glyph unicode="&#xb8;" horiz-adv-x="430" d="M0 21h146v-61q69 -13 126 -67q58 -55 58 -128q-1 -86 -80 -146q-78 -58 -187 -58q-22 0 -63 6v141h26q54 0 89 19.5t35 40.5t-35 40.5t-89 19.5h-26v193z" />
<glyph unicode="&#xb9;" horiz-adv-x="100" />
<glyph unicode="&#xba;" horiz-adv-x="100" />
<glyph unicode="&#xbb;" horiz-adv-x="1276" d="M0 513q365 189 437 226q15 -9 -166 86q-204 105 -270 140l-1 160l745 -387l-744 -386zM430 513q365 189 437 226q15 -9 -166 86q-204 105 -270 140l-1 160l745 -387l-744 -386z" />
<glyph unicode="&#xbc;" horiz-adv-x="100" />
<glyph unicode="&#xbd;" horiz-adv-x="100" />
<glyph unicode="&#xbe;" horiz-adv-x="1549" />
<glyph unicode="&#xbf;" horiz-adv-x="1305" d="M1 548q0 223 157 390q156 163 371 183v320h138l-1 -455h-48q-207 0 -340 -128q-136 -130 -136 -310t135 -310q134 -128 327 -128q191 0 326 127q134 129 128 305l147 1q1 -234 -175 -404q-177 -170 -426 -170t-426 169q-177 168 -177 410zM492 1653q0 43 31 74t75 31 t75 -31t31 -74q0 -44 -31 -75t-75 -31t-75 31t-31 75z" />
<glyph unicode="&#xc0;" horiz-adv-x="1676" d="M0 -22l697 1327v1l92 172l86 -164l701 -1336h-162l-625 1184l-631 -1184h-158zM368 2001h167l249 -414h-159z" />
<glyph unicode="&#xc1;" horiz-adv-x="1676" d="M0 -22l697 1327v1l92 172l86 -164l701 -1336h-162l-625 1184l-631 -1184h-158zM798 1588l249 414h167l-257 -414h-159z" />
<glyph unicode="&#xc2;" horiz-adv-x="1676" d="M0 -22l697 1327v1l92 172l86 -164l701 -1336h-162l-625 1184l-631 -1184h-158zM460 1587l329 343l327 -343h-181l-145 158l-149 -158h-181z" />
<glyph unicode="&#xc3;" horiz-adv-x="1676" d="M0 -22l697 1327v1l92 172l86 -164l701 -1336h-162l-625 1184l-631 -1184h-158zM428 1593q57 165 183 196q109 29 212 -39q58 -38 110 -25q47 19 68 68h147q-55 -167 -183 -198q-110 -30 -214 39q-58 37 -109 24q-51 -15 -51 -65h-163z" />
<glyph unicode="&#xc4;" horiz-adv-x="1665" d="M0 -22l697 1327v1l92 172l86 -164l701 -1336h-162l-625 1184l-631 -1184h-158zM524 1694q1 47 33.5 79t78.5 32q45 0 77.5 -32.5t31.5 -78.5q0 -45 -32 -77.5t-77 -32.5q-46 0 -79 32.5t-33 77.5zM831 1694q1 47 33.5 79t78.5 32q45 0 77.5 -32.5t31.5 -78.5 q0 -45 -32 -77.5t-77 -32.5q-46 0 -79 32.5t-33 77.5z" />
<glyph unicode="&#xc5;" horiz-adv-x="1665" d="M0 -22l697 1327v1l86 160q-53 2 -89 39q-39 39 -39 94q-2 55 37 94.5t95 39.5q55 0 94 -39.5t41 -94.5q0 -55 -39 -94q-37 -36 -88 -39l80 -152l701 -1336h-162l-625 1184l-631 -1184h-158zM754 1601q-1 -14 9.5 -24t24.5 -10t23.5 10.5t11.5 26.5q0 11 -11.5 21.5 t-25.5 10.5t-23 -10t-9 -25z" />
<glyph unicode="&#xc6;" horiz-adv-x="2120" d="M0 -22l893 1477h1127v-147h-987v-1182h987v-146h-1136v1148l-705 -1150h-179zM1158 388v145h858v-145h-858z" />
<glyph unicode="&#xc7;" horiz-adv-x="1599" d="M5 719q0 312 222 534t535 222q262 0 467 -162q204 -158 271 -421h-143q-61 200 -223 323q-164 124 -372 124q-258 0 -440 -181q-181 -182 -181 -439q0 -258 181 -440q182 -181 440 -181q203 0 366 120q160 117 226 312h141q-71 -256 -272 -411q-188 -144 -421 -156v-44 q70 -13 126 -67q58 -55 58 -128q-1 -86 -80 -146q-78 -58 -187 -58q-22 0 -63 6v134q52 -7 78 -7q46 0 78.5 22.5t32.5 54.5t-32.5 54.5t-78.5 22.5q-26 0 -78 -7v169q-246 31 -429 215q-222 222 -222 535z" />
<glyph unicode="&#xc8;" horiz-adv-x="1236" d="M0 -20v1475h1136v-147h-987v-1182h987v-146h-1136zM274 388v145h858v-145h-858zM302 2002h167l249 -414h-159z" />
<glyph unicode="&#xc9;" horiz-adv-x="1236" d="M0 -20v1475h1136v-147h-987v-1182h987v-146h-1136zM274 388v145h858v-145h-858zM418 1587l249 414h167l-257 -414h-159z" />
<glyph unicode="&#xca;" horiz-adv-x="1236" d="M0 -20v1475h1136v-147h-987v-1182h987v-146h-1136zM240 1588l329 343l327 -343h-181l-145 158l-149 -158h-181zM274 388v145h858v-145h-858z" />
<glyph unicode="&#xcb;" horiz-adv-x="1236" d="M0 -20v1475h1136v-147h-987v-1182h987v-146h-1136zM274 388v145h858v-145h-858zM304 1699q1 47 33.5 79t78.5 32q45 0 77.5 -32.5t31.5 -78.5q0 -45 -32 -77.5t-77 -32.5q-46 0 -79 32.5t-33 77.5zM611 1699q1 47 33.5 79t78.5 32q45 0 77.5 -32.5t31.5 -78.5 q0 -45 -32 -77.5t-77 -32.5q-46 0 -79 32.5t-33 77.5z" />
<glyph unicode="&#xcc;" horiz-adv-x="516" d="M0 2000h167l249 -414h-160zM205 -20v1474h145v-1474h-145z" />
<glyph unicode="&#xcd;" horiz-adv-x="516" d="M0 1586l249 414h167l-257 -414h-159zM3 -20v1474h145v-1474h-145z" />
<glyph unicode="&#xce;" horiz-adv-x="755" d="M0 1586l329 343l326 -343h-180l-146 158l-149 -158h-180zM255 -20v1474h145v-1474h-145z" />
<glyph unicode="&#xcf;" horiz-adv-x="630" d="M0 1700q2 47 34 79t78 32t78.5 -32.5t30.5 -78.5q0 -45 -31.5 -77.5t-77.5 -32.5t-79 32.5t-33 77.5zM192 -20v1475h145v-1475h-145zM307 1700q2 47 34 79t78 32t78.5 -32.5t30.5 -78.5q0 -45 -31.5 -77.5t-77.5 -32.5t-79 32.5t-33 77.5z" />
<glyph unicode="&#xd0;" horiz-adv-x="1662" d="M0 666v142h190v644h209l359 -1q142 0 232 -17q217 -43 364 -180q208 -193 208 -538t-208 -538q-146 -136 -375 -180q-121 -23 -222 -17h-568v685h-189zM334 129h429q322 0 491 159q160 149 160 428q0 280 -160 429q-118 110 -315 145q-101 19 -175 13h-430v-495h175v-142 h-175v-537z" />
<glyph unicode="&#xd1;" horiz-adv-x="1436" d="M0 -20v1501l139 -139l1052 -1043v1154h145v-1473h-29l-110 109l-1052 1043v-1152h-145zM308 1595q57 165 183 197q109 28 212 -40q58 -37 110 -24q47 19 68 67h147q-55 -166 -183 -198q-110 -29 -214 40q-57 36 -109 23q-51 -15 -51 -65h-163z" />
<glyph unicode="&#xd2;" d="M0 720q1 313 223 535t535 222t535 -222t221 -535q0 -313 -222 -535t-535 -222t-535 222t-222 535zM144 720q0 -254 179 -434q180 -179 434 -179t434 179q179 180 179 434t-179 434q-180 179 -434 179t-434 -179q-179 -180 -179 -434zM491 2036h167l249 -414h-159z" />
<glyph unicode="&#xd3;" d="M0 720q1 313 223 535t535 222t535 -222t221 -535q0 -313 -222 -535t-535 -222t-535 222t-222 535zM144 720q0 -254 179 -434q180 -179 434 -179t434 179q179 180 179 434t-179 434q-180 179 -434 179t-434 -179q-179 -180 -179 -434zM607 1624l249 414h167l-257 -414 h-159z" />
<glyph unicode="&#xd4;" d="M0 720q1 313 223 535t535 222t535 -222t221 -535q0 -313 -222 -535t-535 -222t-535 222t-222 535zM144 720q0 -254 179 -434q180 -179 434 -179t434 179q179 180 179 434t-179 434q-180 179 -434 179t-434 -179q-179 -180 -179 -434zM429 1585l329 343l327 -343h-181 l-145 158l-149 -158h-181z" />
<glyph unicode="&#xd5;" d="M0 720q1 313 223 535t535 222t535 -222t221 -535q0 -313 -222 -535t-535 -222t-535 222t-222 535zM144 720q0 -254 179 -434q180 -179 434 -179t434 179q179 180 179 434t-179 434q-180 179 -434 179t-434 -179q-179 -180 -179 -434zM397 1592q57 165 183 196 q109 29 212 -39q58 -38 110 -25q47 19 68 68h147q-55 -167 -183 -198q-109 -30 -214 39q-58 37 -109 24q-51 -15 -51 -65h-163z" />
<glyph unicode="&#xd6;" d="M0 720q1 313 223 535t535 222t535 -222t221 -535q0 -313 -222 -535t-535 -222t-535 222t-222 535zM144 720q0 -254 179 -434q180 -179 434 -179t434 179q179 180 179 434t-179 434q-180 179 -434 179t-434 -179q-179 -180 -179 -434zM493 1735q1 47 33.5 79t78.5 32 q45 0 77.5 -32.5t31.5 -78.5q0 -45 -32 -77.5t-77 -32.5q-46 0 -79 32.5t-33 77.5zM800 1735q1 47 33.5 79t78.5 32q45 0 77.5 -32.5t31.5 -78.5q0 -45 -32 -77.5t-77 -32.5q-46 0 -79 32.5t-33 77.5z" />
<glyph unicode="&#xd7;" horiz-adv-x="777" d="M0 371l238 238l-238 237l101 101l237 -238l238 238l101 -101l-238 -237l238 -238l-101 -101l-238 238l-237 -238z" />
<glyph unicode="&#xd8;" horiz-adv-x="1625" d="M0 720q1 313 223 535t535 222q157 0 275 -49l76 146h167l-112 -214q61 -37 129 -105q222 -222 221 -535q0 -313 -222 -535t-535 -222q-166 0 -290 55l-76 -145h-167l113 216q-54 34 -115 96q-222 222 -222 535zM144 720q0 -254 179 -434q47 -46 81 -69l562 1082 q-86 34 -209 34q-254 0 -434 -179q-179 -180 -179 -434zM534 147q91 -40 223 -40q254 0 434 179q179 180 179 434t-179 434q-53 52 -93 78z" />
<glyph unicode="&#xd9;" horiz-adv-x="1448" d="M0 723v734h141v-734q3 -250 159 -427q155 -175 373 -175t374 174q156 176 160 425v737h141v-736q-4 -312 -200 -532q-197 -222 -474 -222q-278 0 -475 223q-196 220 -199 533zM396 1999h168l249 -414h-160z" />
<glyph unicode="&#xda;" horiz-adv-x="1448" d="M0 723v734h141v-734q3 -250 159 -427q155 -175 373 -175t374 174q156 176 160 425v737h141v-736q-4 -312 -200 -532q-197 -222 -474 -222q-278 0 -475 223q-196 220 -199 533zM535 1586l249 414h168l-257 -414h-160z" />
<glyph unicode="&#xdb;" horiz-adv-x="1448" d="M0 723v734h141v-734q3 -250 159 -427q155 -175 373 -175t374 174q156 176 160 425v737h141v-736q-4 -312 -200 -532q-197 -222 -474 -222q-278 0 -475 223q-196 220 -199 533zM346 1585l329 343l327 -343h-181l-145 158l-149 -158h-181z" />
<glyph unicode="&#xdc;" horiz-adv-x="1448" d="M0 723v734h141v-734q3 -250 159 -427q155 -175 373 -175t374 174q156 176 160 425v737h141v-736q-4 -312 -200 -532q-197 -222 -474 -222q-278 0 -475 223q-196 220 -199 533zM410 1597q1 47 33.5 79t78.5 32q45 0 77.5 -32.5t31.5 -78.5q0 -45 -32 -77.5t-77 -32.5 q-46 0 -79 32.5t-33 77.5zM717 1597q1 47 33.5 79t78.5 32q45 0 77.5 -32.5t31.5 -78.5q0 -45 -32 -77.5t-77 -32.5q-46 0 -79 32.5t-33 77.5z" />
<glyph unicode="&#xdd;" horiz-adv-x="1304" d="M0 1455h160l442 -851l443 851h159l-528 -1010l-1 -465h-145l1 465zM463 1488l249 414h167l-256 -414h-160z" />
<glyph unicode="&#xde;" horiz-adv-x="1135" d="M0 -18v1473h140l-1 -202h334q140 0 281 -69q281 -136 281 -469q-1 -334 -280 -470q-141 -68 -281 -68h-328v-197h-145v2h-1zM145 1109l1 -789h328q108 1 213 53q199 97 199 342q-1 244 -198 342q-106 52 -215 52h-328z" />
<glyph unicode="&#xdf;" horiz-adv-x="1504" d="M0 -15v1413q2 191 158 325q155 135 372 135q219 0 375 -136t156 -329q0 -112 -59 -213l-6 -9l-1 -1q-12 -20 -20 -30l-3 -4l-5 -7q-18 -25 -18 -52q0 -67 80 -99q6 -2 14 -5q18 -7 40 -17l3 -2l6 -3q144 -68 227 -192q85 -123 85 -267q0 -219 -177 -372 q-176 -154 -425 -154q-199 0 -361 106t-217 275l-25 81h139l14 -42q42 -127 167 -207q126 -81 283 -81q194 0 331 116t137 278q0 114 -74 211q-75 99 -200 147q-7 2 -17 5q-22 10 -43 23h-1l-11 6q-109 75 -109 193q0 37 16 77l4 12l2 2q10 22 24 43q4 3 7 7q59 81 59 175 q0 137 -115 235q-116 98 -282 98q-163 0 -279 -98q-116 -96 -116 -231v-1412h-135z" />
<glyph unicode="&#xe0;" d="M0 720q1 313 223 535t535 222t535 -222t221 -535v-740h-144v289q-10 -16 -78 -84q-222 -222 -535 -222t-535 222t-222 535zM144 720q0 -254 179 -434q180 -179 434 -179t434 179q179 180 179 434t-179 434q-180 179 -434 179t-434 -179q-179 -180 -179 -434zM479 2000 h167l249 -414h-159z" />
<glyph unicode="&#xe1;" d="M0 720q1 313 223 535t535 222t535 -222t221 -535v-740h-144v289q-10 -16 -78 -84q-222 -222 -535 -222t-535 222t-222 535zM144 720q0 -254 179 -434q180 -179 434 -179t434 179q179 180 179 434t-179 434q-180 179 -434 179t-434 -179q-179 -180 -179 -434zM618 1586 l249 414h168l-257 -414h-160z" />
<glyph unicode="&#xe2;" d="M0 720q1 313 223 535t535 222t535 -222t221 -535v-740h-144v289q-10 -16 -78 -84q-222 -222 -535 -222t-535 222t-222 535zM144 720q0 -254 179 -434q180 -179 434 -179t434 179q179 180 179 434t-179 434q-180 179 -434 179t-434 -179q-179 -180 -179 -434zM429 1586 l329 343l327 -343h-181l-145 158l-149 -158h-181z" />
<glyph unicode="&#xe3;" d="M0 720q1 313 223 535t535 222t535 -222t221 -535v-740h-144v289q-10 -16 -78 -84q-222 -222 -535 -222t-535 222t-222 535zM144 720q0 -254 179 -434q180 -179 434 -179t434 179q179 180 179 434t-179 434q-180 179 -434 179t-434 -179q-179 -180 -179 -434zM397 1593 q57 165 183 196q109 29 212 -39q58 -38 110 -25q47 19 68 68h147q-55 -167 -183 -198q-109 -30 -214 39q-58 37 -109 24q-51 -15 -51 -65h-163z" />
<glyph unicode="&#xe4;" d="M0 720q1 313 223 535t535 222t535 -222t221 -535v-740h-144v289q-10 -16 -78 -84q-222 -222 -535 -222t-535 222t-222 535zM144 720q0 -254 179 -434q180 -179 434 -179t434 179q179 180 179 434t-179 434q-180 179 -434 179t-434 -179q-179 -180 -179 -434zM493 1696 q1 46 33 78t79 32q45 0 77.5 -32.5t31.5 -78.5q0 -45 -32 -77.5t-77 -32.5q-46 0 -79 32.5t-33 78.5zM800 1696q1 46 33 78t79 32q45 0 77.5 -32.5t31.5 -78.5q0 -45 -32 -77.5t-77 -32.5q-46 0 -79 32.5t-33 78.5z" />
<glyph unicode="&#xe5;" d="M0 720q1 313 223 535t535 222t535 -222t221 -535v-740h-144v289q-10 -16 -78 -84q-222 -222 -535 -222t-535 222t-222 535zM144 720q0 -254 179 -434q180 -179 434 -179t434 179q179 180 179 434t-179 434q-180 179 -434 179t-434 -179q-179 -180 -179 -434zM624 1721 q-2 55 37 94.5t95 39.5q55 0 94 -39.5t41 -94.5q0 -55 -39.5 -94t-94.5 -39q-56 0 -94.5 39t-38.5 94zM709 1723q-1 -20 13 -33.5t34 -13.5q21 0 34.5 14t14.5 36q0 17 -15 31t-37 14q-18 0 -31 -13.5t-13 -34.5z" />
<glyph unicode="&#xe6;" horiz-adv-x="2964" d="M0 720q1 313 223 535t535 222t535 -222q122 -122 159 -222q35 91 150 206q218 218 526 218q257 0 459 -159q200 -156 259 -383l-1286 -1q-41 -104 -41 -200q7 -250 182 -427q177 -175 427 -181q197 6 355 122q155 114 220 306h146q-70 -257 -268 -409 q-200 -155 -453 -155q-308 0 -526 218q-75 75 -87 96v-302h-139l-1 292q-10 -17 -83 -89q-222 -222 -535 -222t-535 222t-222 535zM144 720q0 -254 179 -434q180 -179 434 -179t434 179q179 180 179 434t-179 434q-180 179 -434 179t-434 -179q-179 -180 -179 -434z M1620 1042h1015q-48 90 -159 170q-154 110 -348 110q-241 0 -411 -162q-69 -64 -97 -118z" />
<glyph unicode="&#xe7;" horiz-adv-x="1581" d="M0 719q0 309 219 529q220 219 530 219q259 0 462 -160q201 -157 270 -428h-158q-60 199 -216 317q-159 119 -358 119q-248 0 -424 -174q-173 -175 -173 -422q0 -248 174 -423q175 -174 423 -174q195 0 352 115q154 113 219 307h157q-74 -265 -272 -418 q-164 -127 -347 -149v-17q69 -13 126 -67q58 -55 58 -128q-1 -86 -80 -146q-78 -58 -187 -58q-22 0 -63 6v141h26q74 0 109 19.5t35 40.5t-35 40.5t-89 19.5h-46v142q-279 6 -493 219q-219 220 -219 530z" />
<glyph unicode="&#xe8;" horiz-adv-x="1599" d="M0 720q1 313 223 535t535 222t535 -222q150 -150 205 -363l-1332 -2q-22 -72 -22 -170q0 -254 179 -434q180 -179 434 -179t434 179q103 103 151 243h150q-59 -204 -200 -344q-222 -222 -535 -222t-535 222t-222 535zM225 1029h1064q-27 53 -98 125q-180 179 -434 179 t-434 -179q-71 -72 -98 -125zM472 2001h167l249 -414h-159z" />
<glyph unicode="&#xe9;" horiz-adv-x="1599" d="M0 720q1 313 223 535t535 222t535 -222q150 -150 205 -363l-1332 -2q-22 -72 -22 -170q0 -254 179 -434q180 -179 434 -179t434 179q103 103 151 243h150q-59 -204 -200 -344q-222 -222 -535 -222t-535 222t-222 535zM225 1029h1064q-27 53 -98 125q-180 179 -434 179 t-434 -179q-71 -72 -98 -125zM610 1586l249 414h167l-257 -414h-159z" />
<glyph unicode="&#xea;" horiz-adv-x="1599" d="M0 720q1 313 223 535t535 222t535 -222q150 -150 205 -363l-1332 -2q-22 -72 -22 -170q0 -254 179 -434q180 -179 434 -179t434 179q103 103 151 243h150q-59 -204 -200 -344q-222 -222 -535 -222t-535 222t-222 535zM225 1029h1064q-27 53 -98 125q-180 179 -434 179 t-434 -179q-71 -72 -98 -125zM421 1586l329 343l327 -343h-181l-145 158l-149 -158h-181z" />
<glyph unicode="&#xeb;" horiz-adv-x="1599" d="M0 720q1 313 223 535t535 222t535 -222q150 -150 205 -363l-1332 -2q-22 -72 -22 -170q0 -254 179 -434q180 -179 434 -179t434 179q103 103 151 243h150q-59 -204 -200 -344q-222 -222 -535 -222t-535 222t-222 535zM225 1029h1064q-27 53 -98 125q-180 179 -434 179 t-434 -179q-71 -72 -98 -125zM485 1695q2 46 34 78.5t78 32.5t78.5 -32.5t30.5 -78.5q0 -45 -31.5 -77.5t-77.5 -32.5t-79 32.5t-33 77.5zM792 1695q2 46 34 78.5t78 32.5t78.5 -32.5t30.5 -78.5q0 -45 -31.5 -77.5t-77.5 -32.5t-79 32.5t-33 77.5z" />
<glyph unicode="&#xec;" horiz-adv-x="516" d="M0 1960h167l249 -414h-160zM205 -20v1474h145v-1474h-145z" />
<glyph unicode="&#xed;" horiz-adv-x="516" d="M0 1546l249 414h167l-257 -414h-159zM3 -20v1474h145v-1474h-145z" />
<glyph unicode="&#xee;" horiz-adv-x="755" d="M0 1586l329 343l327 -343h-181l-145 158l-149 -158h-181zM255 -20v1474h145v-1474h-145z" />
<glyph unicode="&#xef;" horiz-adv-x="630" d="M0 1655q2 47 34 79t78 32t78.5 -32.5t30.5 -78.5q0 -45 -31.5 -77.5t-77.5 -32.5t-79 32.5t-33 77.5zM192 -20v1474h145v-1474h-145zM307 1655q2 47 34 79t78 32t78.5 -32.5t30.5 -78.5q0 -45 -31.5 -77.5t-77.5 -32.5t-79 32.5t-33 77.5z" />
<glyph unicode="&#xf0;" horiz-adv-x="1680" d="M62 866q57 276 282 448q222 169 403 159q-43 21 -187 73l-20 -83l-131 31l21 91q-32 9 -102 24l34 148q69 -17 104 -26l24 90l130 -30l-25 -98q471 -155 717 -425q142 -131 204 -316q64 -190 25 -388q-64 -305 -325 -478q-259 -172 -565 -110q-307 63 -478 323 q-173 261 -111 567zM215 835q-49 -243 87 -450q137 -206 380 -256t449 87q207 137 255 379q50 243 -86 450q-137 207 -380 256q-243 50 -448 -87q-208 -136 -257 -379z" />
<glyph unicode="&#xf1;" horiz-adv-x="1448" d="M0 -22v736q4 312 200 532q197 222 474 222q278 0 475 -223q196 -220 199 -533v-734h-141v734q-3 250 -159 427q-155 175 -373 175t-374 -174q-156 -176 -160 -425v-737h-141zM314 1593q57 165 183 196q109 29 212 -39q58 -38 110 -25q47 19 68 68h147q-55 -167 -183 -198 q-109 -30 -214 39q-58 37 -109 24q-51 -15 -51 -65h-163z" />
<glyph unicode="&#xf2;" d="M0 720q1 313 223 535t535 222t535 -222t221 -535q0 -313 -222 -535t-535 -222t-535 222t-222 535zM144 720q0 -254 179 -434q180 -179 434 -179t434 179q179 180 179 434t-179 434q-180 179 -434 179t-434 -179q-179 -180 -179 -434zM479 1960h168l249 -414h-160z" />
<glyph unicode="&#xf3;" d="M0 720q1 313 223 535t535 222t535 -222t221 -535q0 -313 -222 -535t-535 -222t-535 222t-222 535zM144 720q0 -254 179 -434q180 -179 434 -179t434 179q179 180 179 434t-179 434q-180 179 -434 179t-434 -179q-179 -180 -179 -434zM618 1546l249 414h168l-257 -414 h-160z" />
<glyph unicode="&#xf4;" d="M0 720q1 313 223 535t535 222t535 -222t221 -535q0 -313 -222 -535t-535 -222t-535 222t-222 535zM144 720q0 -254 179 -434q180 -179 434 -179t434 179q179 180 179 434t-179 434q-180 179 -434 179t-434 -179q-179 -180 -179 -434zM429 1586l329 343l327 -343h-181 l-145 158l-149 -158h-181z" />
<glyph unicode="&#xf5;" d="M0 720q1 313 223 535t535 222t535 -222t221 -535q0 -313 -222 -535t-535 -222t-535 222t-222 535zM144 720q0 -254 179 -434q180 -179 434 -179t434 179q179 180 179 434t-179 434q-180 179 -434 179t-434 -179q-179 -180 -179 -434zM397 1593q57 165 183 196 q109 29 212 -39q58 -38 110 -25q47 19 68 68h147q-55 -167 -183 -198q-109 -30 -214 39q-58 37 -109 24q-51 -15 -51 -65h-163z" />
<glyph unicode="&#xf6;" d="M0 720q1 313 223 535t535 222t535 -222t221 -535q0 -313 -222 -535t-535 -222t-535 222t-222 535zM144 720q0 -254 179 -434q180 -179 434 -179t434 179q179 180 179 434t-179 434q-180 179 -434 179t-434 -179q-179 -180 -179 -434zM493 1655q1 47 33.5 79t78.5 32 q45 0 77.5 -32.5t31.5 -78.5q0 -45 -32 -77.5t-77 -32.5q-46 0 -79 32.5t-33 77.5zM800 1655q1 47 33.5 79t78.5 32q45 0 77.5 -32.5t31.5 -78.5q0 -45 -32 -77.5t-77 -32.5q-46 0 -79 32.5t-33 77.5z" />
<glyph unicode="&#xf7;" horiz-adv-x="915" d="M0 537v143h815v-143h-815zM305 804q-1 46 32 78.5t79 32.5q45 0 77 -32.5t33 -78.5q0 -45 -32.5 -77.5t-77.5 -32.5q-46 0 -78.5 32.5t-32.5 77.5zM308 408q-1 46 32 78.5t79 32.5q45 0 77 -32.5t33 -78.5q0 -45 -32.5 -77.5t-77.5 -32.5q-46 0 -78.5 32.5t-32.5 77.5z " />
<glyph unicode="&#xf8;" horiz-adv-x="1625" d="M0 720q1 313 223 535t535 222q157 0 275 -49l76 146h167l-112 -214q61 -37 129 -105q222 -222 221 -535q0 -313 -222 -535t-535 -222q-166 0 -290 55l-76 -145h-167l113 216q-54 34 -115 96q-222 222 -222 535zM144 720q0 -254 179 -434q47 -46 81 -69l562 1082 q-86 34 -209 34q-254 0 -434 -179q-179 -180 -179 -434zM534 147q91 -40 223 -40q254 0 434 179q179 180 179 434t-179 434q-53 52 -93 78z" />
<glyph unicode="&#xf9;" horiz-adv-x="1448" d="M0 723v734h141v-734q3 -250 159 -427q155 -175 373 -175t374 174q156 176 160 425v737h141v-736q-4 -312 -200 -532q-197 -222 -474 -222q-278 0 -475 223q-196 220 -199 533zM396 1960h168l249 -414h-160z" />
<glyph unicode="&#xfa;" horiz-adv-x="1448" d="M0 723v734h141v-734q3 -250 159 -427q155 -175 373 -175t374 174q156 176 160 425v737h141v-736q-4 -312 -200 -532q-197 -222 -474 -222q-278 0 -475 223q-196 220 -199 533zM535 1546l249 414h168l-257 -414h-160z" />
<glyph unicode="&#xfb;" horiz-adv-x="1448" d="M0 723v734h141v-734q3 -250 159 -427q155 -175 373 -175t374 174q156 176 160 425v737h141v-736q-4 -312 -200 -532q-197 -222 -474 -222q-278 0 -475 223q-196 220 -199 533zM346 1586l329 343l327 -343h-181l-145 158l-149 -158h-181z" />
<glyph unicode="&#xfc;" horiz-adv-x="1448" d="M0 723v734h141v-734q3 -250 159 -427q155 -175 373 -175t374 174q156 176 160 425v737h141v-736q-4 -312 -200 -532q-197 -222 -474 -222q-278 0 -475 223q-196 220 -199 533zM410 1695q1 47 33.5 79t78.5 32q45 0 77.5 -32.5t31.5 -78.5q0 -45 -32 -77.5t-77 -32.5 q-46 0 -79 32.5t-33 77.5zM717 1695q1 47 33.5 79t78.5 32q45 0 77.5 -32.5t31.5 -78.5q0 -45 -32 -77.5t-77 -32.5q-46 0 -79 32.5t-33 77.5z" />
<glyph unicode="&#xfd;" horiz-adv-x="1345" d="M0 680v776h145l-1 -775q-4 -194 137 -387q147 -164 342 -164q185 0 331 146q140 155 143 367l1 814l147 -1v-1198v-163q-3 -287 -185 -491q-183 -205 -438 -205q-209 0 -376 145q-168 143 -222 370l-14 37h151l9 -20q49 -170 174 -273q124 -102 278 -102q192 0 334 157 q140 159 144 382l-2 131q-44 -75 -179 -160q-138 -84 -296 -84q-257 0 -440 206q-181 204 -183 492zM484 1586l249 414h167l-257 -414h-159z" />
<glyph unicode="&#xfe;" d="M0 -352v2081h1v9h139l-1 -574q12 19 83 91q222 222 535 222t535 -222t223 -535q0 -313 -222 -535t-535 -222t-535 222q-74 74 -86 94v-631h-137zM145 720q0 -254 179 -434q180 -179 434 -179t434 179q179 180 179 434t-179 434q-180 179 -434 179t-434 -179 q-179 -180 -179 -434z" />
<glyph unicode="&#xff;" horiz-adv-x="1345" d="M0 680v776h145l-1 -775q-4 -194 137 -387q147 -164 342 -164q185 0 331 146q140 155 143 367l1 814l147 -1v-1198v-163q-3 -287 -185 -491q-183 -205 -438 -205q-209 0 -376 145q-168 143 -222 370l-14 37h151l9 -20q49 -170 174 -273q124 -102 278 -102q192 0 334 157 q140 159 144 382l-2 131q-44 -75 -179 -160q-138 -84 -296 -84q-257 0 -440 206q-181 204 -183 492zM358 1695q2 47 34 79t78 32t78.5 -32.5t30.5 -78.5q0 -45 -31.5 -77.5t-77.5 -32.5t-79 32.5t-33 77.5zM665 1695q2 47 34 79t78 32t78.5 -32.5t30.5 -78.5 q0 -45 -31.5 -77.5t-77.5 -32.5t-79 32.5t-33 77.5z" />
<glyph unicode="&#x152;" horiz-adv-x="1928" d="M1 720q-1 315 223 539q224 223 539 223h-11v1h1076v-154h-602q13 -8 76 -70q222 -224 223 -539q-1 -101 -17 -168h320v-154h-372q-51 -112 -154 -217q-61 -62 -73 -69h599l-1 -154h-1069q-311 1 -534 223q-223 224 -223 539zM149 720q0 -255 179 -434q180 -180 435 -180 t433 180q181 179 181 434t-180 434q-179 180 -434 180t-434 -180q-180 -179 -180 -434z" />
<glyph unicode="&#x153;" horiz-adv-x="2952" d="M0 720q1 313 223 535t535 222t535 -222q113 -113 150 -205q36 85 145 194q218 218 526 218q257 0 459 -159q200 -156 259 -383l-1286 -1q-25 -62 -35 -127q3 -34 3 -72q0 -39 -3 -74q26 -203 176 -354q177 -175 427 -181q197 6 355 122q155 114 220 306h146 q-70 -257 -268 -409q-200 -155 -453 -155q-308 0 -526 218q-110 110 -146 197q-37 -92 -150 -205q-222 -222 -535 -222t-535 222t-222 535zM144 720q0 -254 179 -434q180 -179 434 -179t434 179q179 180 179 434t-179 434q-180 179 -434 179t-434 -179q-179 -180 -179 -434z M1606 1047h1015q-48 90 -159 170q-154 110 -348 110q-241 0 -411 -162q-69 -64 -97 -118z" />
<glyph unicode="&#x2c6;" horiz-adv-x="756" d="M0 1586l329 343l327 -343h-181l-145 158l-149 -158h-181z" />
<glyph unicode="&#x2dc;" horiz-adv-x="820" d="M0 1593q57 165 183 196q109 29 212 -39q58 -38 110 -25q47 19 68 68h147q-55 -167 -183 -198q-110 -30 -214 39q-58 37 -109 24q-51 -15 -51 -65h-163z" />
<glyph unicode="&#x2000;" horiz-adv-x="1019" />
<glyph unicode="&#x2001;" horiz-adv-x="2038" />
<glyph unicode="&#x2002;" horiz-adv-x="1019" />
<glyph unicode="&#x2003;" horiz-adv-x="2038" />
<glyph unicode="&#x2004;" horiz-adv-x="679" />
<glyph unicode="&#x2005;" horiz-adv-x="509" />
<glyph unicode="&#x2006;" horiz-adv-x="339" />
<glyph unicode="&#x2007;" horiz-adv-x="339" />
<glyph unicode="&#x2008;" horiz-adv-x="254" />
<glyph unicode="&#x2009;" horiz-adv-x="407" />
<glyph unicode="&#x200a;" horiz-adv-x="113" />
<glyph unicode="&#x2010;" horiz-adv-x="902" d="M0 643v145h777v-145h-777z" />
<glyph unicode="&#x2011;" horiz-adv-x="902" d="M0 643v145h777v-145h-777z" />
<glyph unicode="&#x2012;" horiz-adv-x="902" d="M0 643v145h777v-145h-777z" />
<glyph unicode="&#x2013;" horiz-adv-x="100" />
<glyph unicode="&#x2014;" horiz-adv-x="100" />
<glyph unicode="&#x2018;" horiz-adv-x="445" d="M0 1456h167l178 -296h-159z" />
<glyph unicode="&#x2019;" horiz-adv-x="445" d="M0 1160l178 296h167l-186 -296h-159z" />
<glyph unicode="&#x201a;" horiz-adv-x="445" d="M0 -118l178 296h167l-186 -296h-159z" />
<glyph unicode="&#x201c;" horiz-adv-x="464" d="M0 971v482h149l-1 -482h-148zM215 971v482h149l-1 -482h-148z" />
<glyph unicode="&#x201d;" horiz-adv-x="464" d="M0 971v482h149l-1 -482h-148zM215 971v482h149l-1 -482h-148z" />
<glyph unicode="&#x201e;" horiz-adv-x="464" d="M0 174h149l-1 -482h-148v482zM215 174h149l-1 -482h-148v482z" />
<glyph unicode="&#x2022;" horiz-adv-x="436" d="M0 758q0 69 49.5 118.5t118.5 49.5t118.5 -49.5t49.5 -118.5t-50 -118.5t-119 -49.5t-118 49.5t-49 118.5z" />
<glyph unicode="&#x2026;" horiz-adv-x="100" />
<glyph unicode="&#x202f;" horiz-adv-x="407" />
<glyph unicode="&#x2039;" horiz-adv-x="845" d="M0 738l745 387l-1 -160q-66 -35 -270 -140q-182 -95 -166 -86q72 -37 437 -226l-1 -161z" />
<glyph unicode="&#x203a;" horiz-adv-x="847" d="M0 352l1 161q364 189 437 226q16 -9 -168 86q-203 105 -270 140v160l747 -387z" />
<glyph unicode="&#x205f;" horiz-adv-x="509" />
<glyph unicode="&#x20ac;" horiz-adv-x="1886" d="M0 508l43 142h265q-3 23 -3 69q0 41 2 59h-307l42 142h288q45 177 194 328q221 219 531 219q259 0 461 -160q202 -157 270 -428h-158q-60 199 -216 317q-158 119 -357 119q-248 0 -424 -174q-108 -110 -142 -221h350l-42 -142h-337q-3 -20 -3 -59q0 -44 4 -69h379 l-43 -142h-305q34 -106 139 -212q175 -174 423 -174q195 0 352 115q154 113 219 307h157q-74 -265 -272 -418q-201 -156 -456 -156q-310 0 -529 219q-146 147 -191 319h-334z" />
<glyph unicode="&#x2122;" horiz-adv-x="1318" d="M0 1339v97h532v-97h-218v-640h-97v640h-217zM594 709v742l314 -586l310 585v-741h-90l1 398l-218 -418l-228 416v-396h-89z" />
<glyph unicode="&#x25fc;" horiz-adv-x="1520" d="M0 0v1520h1520v-1520h-1520z" />
<glyph unicode="&#xfb01;" horiz-adv-x="816" d="M0 1308v147h104v186q1 132 93 225q93 94 225 94q131 0 226 -94q64 -73 65 -235h-136q7 84 -32 135q-50 51 -123 51q-72 0 -123 -52q-52 -52 -52 -126v-184h469v-1475h-142v1328h-327l-1 -1330h-142v1330h-104z" />
<glyph unicode="&#xfb02;" horiz-adv-x="765" d="M0 1308v147h103v186q1 132 92 225q92 94 222 94q129 0 222 -94q12 -12 26 -29v-1857h-139v1798q-43 39 -109 39q-72 0 -122 -52q-51 -52 -51 -126v-184h119v-147h-119v-1330h-141v1330h-103z" />
<glyph unicode="&#xfb03;" horiz-adv-x="1141" d="M0 1308v147h103v186q1 132 92 225q92 94 223 94q112 0 184 -59q72 59 184 59q129 0 222 -94q12 -12 33 -37l-102 -101q-22 28 -31 37q-51 52 -122 52q-72 0 -122 -52q-51 -52 -51 -126v-184h414v-1475h-141v1328h-273l-1 -1330h-141v1330h-226l-1 -1330h-141v1330h-103z M245 1455h226v186q1 93 38 151q-32 25 -91 25q-72 0 -122 -52q-51 -52 -51 -126v-184z" />
<glyph unicode="&#xfb04;" horiz-adv-x="1126" d="M0 1308v147h102v186q1 132 92 225q91 94 221 94q111 0 182 -59q71 59 182 59q129 0 221 -94q11 -11 24 -27l2 -1857h-139v1326h-279l-1 -1330h-140v1330h-224l-1 -1330h-140v1330h-102zM243 1455h224v186q1 93 38 151q-32 25 -90 25q-71 0 -121 -52q-51 -52 -51 -126 v-184zM608 1455h279v323q-42 39 -108 39q-70 0 -120 -52q-51 -52 -51 -126v-184z" />
</font>
</defs>
</svg>
