<?xml version="1.0" standalone="no"?>
<!DOCTYPE svg PUBLIC "-//W3C//DTD SVG 1.1//EN" "http://www.w3.org/Graphics/SVG/1.1/DTD/svg11.dtd" >
<svg xmlns="http://www.w3.org/2000/svg" xmlns:xlink="http://www.w3.org/1999/xlink" version="1.1">
<metadata>
Created by FontForge 20170731 at Sat Nov 27 09:04:08 2004
 By Aleksey,,,
4.1 Copyright 1992 Software Complement                                                                
</metadata>
<defs>
<font id="RockoUltraFLF-Bold" horiz-adv-x="684" >
  <font-face 
    font-family="RockoUltraFLF"
    font-weight="700"
    font-stretch="normal"
    units-per-em="1000"
    panose-1="2 0 8 3 2 0 0 2 0 4"
    ascent="800"
    descent="-200"
    x-height="625"
    cap-height="750"
    bbox="-111 -325 1462 1030"
    underline-thickness="75"
    underline-position="-261"
    unicode-range="U+0005-E00A"
  />
<missing-glyph horiz-adv-x="500" 
 />
    <glyph glyph-name=".notdef" horiz-adv-x="500" 
 />
    <glyph glyph-name=".null" horiz-adv-x="0" 
 />
    <glyph glyph-name="nonmarkingreturn" horiz-adv-x="333" 
 />
    <glyph glyph-name="breve" horiz-adv-x="339" 
d="M20 613q0 -31 11.5 -58.5t32 -47.5t47.5 -32t58 -12t58.5 12t47.5 32t32 47.5t12 58.5t-17.5 46t-38.5 15t-38.5 -15t-17.5 -46q0 -16 -11 -27t-27 -11t-26.5 11t-10.5 27q0 31 -17.5 46t-38.5 15t-38.5 -15t-17.5 -46z" />
    <glyph glyph-name="dotaccent" horiz-adv-x="270" 
d="M135 763q-24 0 -45 -9t-36.5 -24.5t-24.5 -36.5t-9 -45t9 -45t24.5 -36.5t36.5 -24.5t45 -9t45 9t36.5 24.5t24.5 36.5t9 45t-9 45t-24.5 36.5t-36.5 24.5t-45 9z" />
    <glyph glyph-name="ring" horiz-adv-x="340" 
d="M20 600q0 -31 12 -58.5t32 -47.5t47.5 -32t58.5 -12t58 12t47.5 32t32.5 47.5t12 58.5t-12 58.5t-32.5 47.5t-47.5 32t-58 12t-58.5 -12t-47.5 -32t-32 -47.5t-12 -58.5zM170 540q-25 0 -42.5 17.5t-17.5 42.5t17.5 42.5t42.5 17.5t42.5 -17.5t17.5 -42.5t-17.5 -42.5
t-42.5 -17.5z" />
    <glyph glyph-name="caron" horiz-adv-x="424" 
d="M12 175h400v307l-93 93h-307v-400zM371 373q0 55 -35 99l-34 -34q8 -11 15 -26.5t7 -38.5q0 -16 -5.5 -34t-16.5 -32l34 -33q19 21 27 47.5t8 51.5zM165 476q-35 -17 -50 -46.5t-15 -56.5q0 -32 12 -53t28 -34t31.5 -18t22.5 -5q19 0 31 12t12 24q0 20 -13 33
q-10 10 -31 24.5t-32 26.5q-10 11 -14.5 24t-4.5 25q0 29 23 44zM261 363q-13 14 -33 28t-28 23q-6 8 -9.5 14t-3.5 16q0 14 10.5 25.5t30.5 11.5q8 0 19.5 -4t29.5 -14l34 34q-23 19 -48.5 27t-50.5 8q-33 0 -62 -12.5t-50.5 -34t-34 -50.5t-12.5 -62t12.5 -62t34 -50.5
t50.5 -34t62 -12.5q26 0 50.5 8t47.5 26l-35 35q-5 -3 -8.5 -5.5t-11.5 -6.5q13 6 19 19t6 25q0 11 -4 23t-15 25zM17 570h300l90 -90v-300h-390v390zM365 373q0 -57 -30 -92l-26 27q11 14 15.5 31t4.5 34q0 22 -6 36.5t-14 28.5l27 26q17 -23 23 -47t6 -44zM156 380
q2 -2 7 -6.5t22 -17.5q14 -11 22 -17t13 -11q5 -7 8.5 -13.5t3.5 -15.5q0 -11 -11.5 -20.5t-26.5 -9.5q-12 0 -29.5 7.5t-30.5 21.5q-14 14 -21 32t-7 43q0 21 8.5 43t25.5 37q-2 -5 -2.5 -10.5t-0.5 -10.5q0 -13 4 -25.5t15 -26.5zM257 360q10 -14 14 -24t4 -21
q0 -14 -6.5 -24t-15 -17t-16.5 -10.5t-12 -4.5q20 3 33 9t17 8l27 -27q-23 -17 -46.5 -23t-43.5 -6q-32 0 -60 12t-49 32.5t-33 48.5t-12 60t12 60t33 49t49 33t60 12q23 0 46 -6.5t46 -23.5l-28 -28q-11 8 -25 12.5t-22 4.5q-19 0 -33.5 -11t-14.5 -31q0 -8 3 -16t12 -17
q7 -7 15 -13.5t13 -9.5q18 -13 24.5 -19.5z" />
    <glyph glyph-name="dotlessi" unicode="&#xd;" horiz-adv-x="290" 
d="M251 519q0 22 -8.5 41t-22.5 33.5t-33.5 23t-41.5 8.5t-41 -8.5t-33.5 -23t-23 -33.5t-8.5 -41v-413q0 -22 8.5 -41t23 -33.5t33.5 -23t41 -8.5t41.5 8.5t33.5 23t22.5 33.5t8.5 41v413z" />
    <glyph glyph-name="fraction" horiz-adv-x="1187" 
d="M276 284v371q0 19 -7.5 36.5t-20.5 30.5t-30.5 20.5t-36.5 7.5h-66q-20 0 -37 -7.5t-30 -20.5t-20.5 -30.5t-7.5 -36.5q0 -29 19 -50.5t47 -26.5v-294q0 -20 7.5 -37.5t20.5 -30.5t30 -20.5t37 -7.5q19 0 36.5 7.5t30.5 20.5t20.5 30.5t7.5 37.5zM434 34l339 587
q7 11 9.5 23t2.5 24q0 19 -7.5 36.5t-20 30.5t-30 20.5t-36.5 7.5q-25 0 -47 -12t-35 -35l-340 -587q-13 -22 -13 -47q0 -20 7.5 -37t20.5 -30t30 -20.5t37 -7.5q25 0 47.5 12t35.5 35zM922 191q0 9 6 15.5t16 6.5q9 0 15.5 -6.5t6.5 -15.5q0 -10 -6.5 -16t-15.5 -6
q-22 0 -22 22zM922 363q0 9 6 16t16 7q9 0 15.5 -7t6.5 -16t-6.5 -15.5t-15.5 -6.5q-10 0 -16 6.5t-6 15.5zM944 -13q49 0 89 15t68 40.5t43.5 59.5t15.5 73q0 38 -15.5 69.5t-44.5 45.5q6 5 14 13t15 20t12 28.5t5 39.5q0 36 -16 68.5t-43.5 56.5t-64 38.5t-78.5 14.5
t-78.5 -14.5t-64 -38.5t-43.5 -56.5t-16 -68.5q0 -23 5 -39.5t12 -28.5t15 -20t14 -13q-29 -14 -44.5 -45.5t-15.5 -69.5q0 -39 15.5 -73t43.5 -59.5t68 -40.5t89 -15z" />
    <glyph glyph-name="fi" horiz-adv-x="799" 
d="M437 475q0 25 -10.5 44.5t-25.5 32.5q35 5 59.5 32.5t24.5 65.5q0 42 -29 71t-71 29h-157q-45 0 -75.5 -30.5t-30.5 -75.5v-69q-21 0 -40 -8t-32.5 -21.5t-21.5 -31.5t-8 -39t8 -39t21.5 -31.5t32.5 -21.5t40 -8v-269q0 -22 8.5 -41t23 -33.5t34 -23t41.5 -8.5t41 8.5
t33.5 23t23 33.5t8.5 41v269q21 0 40 8t32.5 21.5t21.5 31.5t8 39zM760 519q0 22 -8.5 41t-22.5 33.5t-33.5 23t-41.5 8.5t-41 -8.5t-33.5 -23t-23 -33.5t-8.5 -41v-413q0 -22 8.5 -41t23 -33.5t33.5 -23t41 -8.5t41.5 8.5t33.5 23t22.5 33.5t8.5 41v413z" />
    <glyph glyph-name="fl" horiz-adv-x="806" 
d="M437 475q0 25 -10.5 44.5t-25.5 32.5q35 5 59.5 32.5t24.5 65.5q0 42 -29 71t-71 29h-157q-45 0 -75.5 -30.5t-30.5 -75.5v-69q-21 0 -40 -8t-32.5 -21.5t-21.5 -31.5t-8 -39t8 -39t21.5 -31.5t32.5 -21.5t40 -8v-269q0 -22 8.5 -41t23 -33.5t34 -23t41.5 -8.5t41 8.5
t33.5 23t23 33.5t8.5 41v269q21 0 40 8t32.5 21.5t21.5 31.5t8 39zM760 644q0 22 -8.5 41t-22.5 33.5t-33.5 23t-41.5 8.5t-41 -8.5t-33.5 -23t-23 -33.5t-8.5 -41v-538q0 -22 8.5 -41t23 -33.5t33.5 -23t41 -8.5t41.5 8.5t33.5 23t22.5 33.5t8.5 41v538z" />
    <glyph glyph-name="Lslash" horiz-adv-x="700" 
d="M178 429l-106 -61q-26 -15 -39 -40t-13 -52q0 -22 8 -41t22.5 -33.5t33.5 -22.5t41 -8q29 0 53 14v-58q0 -26 10 -49.5t27 -40.5t40.5 -27t49.5 -10h268q24 0 44.5 9t36.5 25t25 36.5t9 44.5t-9 45t-25 36.5t-36.5 24.5t-44.5 9h-140v102l106 61q26 15 39 39.5t13 52.5
q0 22 -8.5 41t-22.5 33t-33 22.5t-41 8.5q-29 0 -53 -14v47q0 26 -10 49t-27.5 40.5t-40.5 27.5t-50 10q-26 0 -49.5 -10t-40.5 -27.5t-27 -40.5t-10 -49v-194z" />
    <glyph glyph-name="lslash" horiz-adv-x="477" 
d="M133 224v-118q0 -22 8.5 -41t23 -33.5t33.5 -23t41 -8.5t41.5 8.5t33.5 23t22.5 33.5t8.5 41v241l75 43q18 11 27.5 28t9.5 37q0 31 -22 53t-53 22q-20 0 -37 -10v124q0 22 -8.5 41t-22.5 33.5t-33.5 23t-41.5 8.5t-41 -8.5t-33.5 -23t-23 -33.5t-8.5 -41v-247l-75 -44
q-19 -11 -28.5 -28t-9.5 -36q0 -31 22 -53t53 -22q9 0 19 2.5t19 7.5z" />
    <glyph glyph-name="Zcaron" horiz-adv-x="702" 
d="M560 0q24 0 44.5 9t36.5 24.5t25 36.5t9 45t-9 44.5t-25 36.5t-36.5 25t-44.5 9h-145l219 303q16 23 28.5 43t12.5 49q0 26 -10 48.5t-27 39.5t-39.5 27t-48.5 10h-389q-24 0 -44.5 -9t-36.5 -24.5t-25 -36.5t-9 -45t9 -44.5t25 -36.5t36.5 -25t44.5 -9h145l-219 -303
q-16 -23 -28.5 -43t-12.5 -49q0 -26 10 -48.5t27 -39.5t39.5 -27t48.5 -10h389zM210 969q0 -31 11.5 -58.5t32 -47.5t47.5 -32t58 -12t58.5 12t47.5 32t32 47.5t12 58.5t-17.5 46t-38.5 15t-38.5 -15t-17.5 -46q0 -16 -11 -27t-27 -11t-26.5 11t-10.5 27q0 31 -17.5 46
t-38.5 15t-38.5 -15t-17.5 -46z" />
    <glyph glyph-name="zcaron" horiz-adv-x="543" 
d="M38 149q-10 -14 -14 -26t-4 -29q0 -39 27.5 -66.5t66.5 -27.5h315q19 0 36.5 7.5t30 20t20 29.5t7.5 37q0 19 -7.5 36t-20 29.5t-30 20t-36.5 7.5h-140l215 289q10 14 14.5 26t4.5 29q0 39 -27.5 66.5t-66.5 27.5h-315q-20 0 -37 -7.5t-29.5 -20t-20 -30t-7.5 -36.5
t7.5 -36t20 -29.5t29.5 -20t37 -7.5h139zM163 786q0 -25 9.5 -46.5t25.5 -38t37.5 -26t46.5 -9.5t46.5 9.5t38 26t26 38t9.5 46.5t-14 37t-31 12t-31 -12t-14 -37q0 -13 -8.5 -21.5t-21.5 -8.5t-21.5 8.5t-8.5 21.5q0 25 -14 37t-31 12q-16 0 -30 -12t-14 -37z" />
    <glyph glyph-name="space" unicode=" " horiz-adv-x="250" 
 />
    <glyph glyph-name="exclam" unicode="!" horiz-adv-x="347" 
d="M57 115q0 -24 9 -44.5t25 -36.5t36.5 -25t44.5 -9t45 9t36.5 25t24.5 36.5t9 44.5t-9 45t-24.5 36.5t-36.5 24.5t-45 9t-44.5 -9t-36.5 -24.5t-25 -36.5t-9 -45zM301 390v233q0 26 -10 49t-27.5 40.5t-40.5 27.5t-50 10q-26 0 -49.5 -10t-40.5 -27.5t-27 -40.5t-10 -49
v-233q0 -26 10 -49.5t27 -40.5t40.5 -27t49.5 -10q27 0 50 10t40.5 27t27.5 40.5t10 49.5z" />
    <glyph glyph-name="quotedbl" unicode="&#x22;" horiz-adv-x="430" 
d="M57 509q5 -22 18 -38t36 -16t36.5 16t18.5 38l35 164q1 5 1 13q0 16 -8 30t-20.5 24.5t-29 16.5t-33.5 6t-33.5 -6t-29 -16.5t-20.5 -24.5t-8 -30v-7q0 -3 1 -6zM265 509q5 -22 18 -38t36 -16t36.5 16t18.5 38l35 164q1 5 1 13q0 16 -8 30t-20.5 24.5t-29 16.5t-33.5 6
t-33.5 -6t-29 -16.5t-20.5 -24.5t-8 -30v-7q0 -3 1 -6z" />
    <glyph glyph-name="numbersign" unicode="#" horiz-adv-x="627" 
d="M276 500h75v-75h-75v75zM276 300h75v-62q0 -26 18.5 -44.5t44.5 -18.5t44 18.5t18 44.5v62h63q26 0 44 18.5t18 44.5t-18 44t-44 18h-63v75h63q26 0 44 18.5t18 44.5t-18 44t-44 18h-63v63q0 26 -18 44t-44 18t-44.5 -18t-18.5 -44v-63h-75v63q0 26 -18 44t-44 18
t-44.5 -18t-18.5 -44v-63h-62q-26 0 -44.5 -18t-18.5 -44t18.5 -44.5t44.5 -18.5h62v-75h-62q-26 0 -44.5 -18t-18.5 -44t18.5 -44.5t44.5 -18.5h62v-62q0 -26 18.5 -44.5t44.5 -18.5t44 18.5t18 44.5v62z" />
    <glyph glyph-name="dollar" unicode="$" horiz-adv-x="630" 
d="M182 6q12 -32 44 -56.5t74 -24.5t73 22.5t45 56.5q15 3 46 16t61.5 40t54 71t23.5 110q0 47 -11.5 82.5t-32.5 62t-51.5 45.5t-68.5 33l-77 29q-27 10 -47 21.5t-20 25.5q0 11 10.5 16t21.5 5q22 0 37.5 -10.5t30.5 -22.5t32.5 -22.5t44.5 -10.5q19 0 38.5 6t35.5 18.5
t26.5 32t10.5 47.5q0 30 -12.5 53.5t-32 42t-43.5 31t-46 19.5q-14 35 -45.5 57.5t-73.5 22.5t-73.5 -24.5t-44.5 -57.5q-41 -12 -71 -36t-49.5 -54t-29 -64.5t-9.5 -68.5q0 -79 43.5 -129t115.5 -77l61 -23l24 -10t22 -11t16.5 -13.5t6.5 -17.5q0 -13 -9 -19.5t-22 -6.5
q-27 0 -44 13t-33.5 28t-38 28t-57.5 13q-21 0 -40.5 -7t-34.5 -21t-24.5 -36t-9.5 -53q0 -36 14 -64.5t36.5 -50t49.5 -36t53 -21.5z" />
    <glyph glyph-name="percent" unicode="%" horiz-adv-x="1060" 
d="M214 763q-40 0 -75.5 -15.5t-61.5 -41.5t-41.5 -61.5t-15.5 -75.5t15.5 -75.5t41.5 -61.5t61.5 -41.5t75.5 -15.5t75.5 15.5t61.5 41.5t41.5 61.5t15.5 75.5t-15.5 75.5t-41.5 61.5t-61.5 41.5t-75.5 15.5zM214 613q18 0 31 -13t13 -31t-13 -31t-31 -13t-31 13t-13 31
t13 31t31 13zM846 375q-40 0 -75.5 -15.5t-61.5 -41.5t-41.5 -61.5t-15.5 -75.5t15.5 -75.5t41.5 -61.5t61.5 -41.5t75.5 -15.5t75.5 15.5t61.5 41.5t41.5 61.5t15.5 75.5t-15.5 75.5t-41.5 61.5t-61.5 41.5t-75.5 15.5zM846 225q18 0 31 -13t13 -31t-13 -31t-31 -13t-31 13
t-13 31t13 31t31 13zM509 17l275 621q10 21 10 47q0 24 -9 45t-24.5 36.5t-36.5 24.5t-45 9q-33 0 -62 -18t-43 -50l-275 -621q-5 -11 -7 -23.5t-2 -23.5q0 -24 9 -45t24.5 -36.5t36.5 -24.5t45 -9q32 0 61 18t43 50z" />
    <glyph glyph-name="ampersand" unicode="&#x26;" horiz-adv-x="662" 
d="M443 446q20 0 42 7.5t40 22.5t29.5 37t11.5 51q0 35 -17 70.5t-50.5 64t-85 46.5t-120.5 18q-61 0 -109 -20.5t-81.5 -54t-51 -75t-17.5 -83.5q0 -27 5.5 -47t13.5 -35t17 -26t17 -20q-12 -12 -23.5 -25t-21.5 -30.5t-16 -41t-6 -56.5q0 -54 22.5 -101.5t60.5 -83
t88.5 -56.5t106.5 -21q25 0 62.5 6.5t74.5 25.5q17 -16 38.5 -24t44.5 -8t45 8.5t39.5 24.5t28.5 39t11 51q0 26 -10.5 50t-31.5 43q12 19 16 32.5t4 26.5q0 19 -8 40.5t-24.5 39t-41 29t-57.5 11.5q-32 0 -60 -16t-48 -50q-21 -36 -44 -56.5t-37 -20.5q-12 0 -21 6.5
t-9 23.5q0 16 14 25t31 19.5t31 27t14 47.5t-13.5 45.5t-30 22.5t-30 15t-13.5 24q0 13 7 21.5t23 8.5t25 -12.5t21.5 -27t33 -27t60.5 -12.5z" />
    <glyph glyph-name="quotesingle" unicode="'" horiz-adv-x="222" 
d="M57 509q5 -22 18 -38t36 -16t36.5 16t18.5 38l35 164q1 5 1 13q0 16 -8 30t-20.5 24.5t-29 16.5t-33.5 6t-33.5 -6t-29 -16.5t-20.5 -24.5t-8 -30v-7q0 -3 1 -6z" />
    <glyph glyph-name="parenleft" unicode="(" horiz-adv-x="455" 
d="M20 375q0 -69 19.5 -132t51 -117t72 -97t82.5 -73q38 -26 76 -26q25 0 47.5 10.5t39 27t26 38t9.5 44.5q0 22 -10 42t-32 37q-33 24 -59 50t-44.5 55.5t-28 64t-9.5 76.5t9.5 76.5t28 64t44.5 55.5t59 50q22 17 32 37t10 42t-9.5 44t-26 38.5t-39 27t-47.5 10.5
q-38 0 -76 -26q-42 -29 -82.5 -72t-72 -97t-51 -117.5t-19.5 -132.5z" />
    <glyph glyph-name="parenright" unicode=")" horiz-adv-x="455" 
d="M435 375q0 69 -19.5 132.5t-51 117.5t-72 97t-82.5 72q-38 26 -76 26q-26 0 -48 -10.5t-38.5 -27t-26 -38.5t-9.5 -44t10 -42t32 -37q33 -24 59 -50t44.5 -55.5t28 -64t9.5 -76.5t-9.5 -76.5t-28 -64t-44.5 -55.5t-59 -50q-22 -17 -32 -37t-10 -42q0 -23 9.5 -44.5
t26 -38t38.5 -27t48 -10.5q38 0 76 26q42 30 82.5 73t72 97t51 117t19.5 132z" />
    <glyph glyph-name="asterisk" unicode="*" horiz-adv-x="455" 
d="M353 534l51 30q15 9 23 23.5t8 30.5q0 26 -18 44t-44 18q-8 0 -16 -1.5t-16 -6.5l-51 -30v58q0 26 -18.5 44.5t-44.5 18.5t-44 -18.5t-18 -44.5v-57l-51 29q-8 5 -16 6.5t-16 1.5q-26 0 -44 -18t-18 -44q0 -35 31 -54l51 -30l-51 -30q-31 -19 -31 -54q0 -26 18 -44
t44 -18q8 0 16 1.5t16 6.5l51 29v-57q0 -26 18 -44.5t44 -18.5t44.5 18.5t18.5 44.5v58l51 -30q8 -5 16 -6.5t16 -1.5q26 0 44 18t18 44q0 16 -8 30.5t-23 23.5z" />
    <glyph glyph-name="plus" unicode="+" horiz-adv-x="474" 
d="M312 300h75q31 0 53 22t22 53t-22 53t-53 22h-75v75q0 31 -22 53t-53 22q-32 0 -53.5 -22t-21.5 -53v-75h-75q-32 0 -53.5 -22t-21.5 -53t21.5 -53t53.5 -22h75v-75q0 -31 21.5 -53t53.5 -22q31 0 53 22t22 53v75z" />
    <glyph glyph-name="comma" unicode="," horiz-adv-x="282" 
d="M262 109q0 25 -9.5 47t-26 38.5t-38.5 26t-47 9.5t-47 -9.5t-38.5 -26t-26 -38.5t-9.5 -47q0 -38 19 -66t48 -42l-11 -27q-5 -13 -5 -24q0 -26 19 -45t45 -19q19 0 35 10t24 29l59 137q5 13 7 23t2 24z" />
    <glyph glyph-name="hyphen" unicode="-" horiz-adv-x="440" 
d="M345 300q31 0 53 22t22 53t-22 53t-53 22h-250q-32 0 -53.5 -22t-21.5 -53t21.5 -53t53.5 -22h250z" />
    <glyph glyph-name="period" unicode="." horiz-adv-x="270" 
d="M135 230q-24 0 -45 -9t-36.5 -24.5t-24.5 -36.5t-9 -45t9 -45t24.5 -36.5t36.5 -24.5t45 -9t45 9t36.5 24.5t24.5 36.5t9 45t-9 45t-24.5 36.5t-36.5 24.5t-45 9z" />
    <glyph glyph-name="slash" unicode="/" horiz-adv-x="528" 
d="M231 17l275 621q10 21 10 47q0 24 -9 45t-24.5 36.5t-36.5 24.5t-45 9q-33 0 -62 -18t-43 -50l-275 -621q-5 -11 -7 -23.5t-2 -23.5q0 -24 9 -45t24.5 -36.5t36.5 -24.5t45 -9q32 0 61 18t43 50z" />
    <glyph glyph-name="zero" unicode="0" horiz-adv-x="816" 
d="M408 763q-80 0 -151 -30.5t-123.5 -83t-83 -123.5t-30.5 -151t30.5 -151t83 -123.5t123.5 -83t151 -30.5t151 30.5t123.5 83t83 123.5t30.5 151t-30.5 151t-83 123.5t-123.5 83t-151 30.5zM415 520q30 0 56.5 -11.5t46 -31t31 -46t11.5 -56.5t-11.5 -56.5t-31 -46
t-46 -31t-56.5 -11.5t-56.5 11.5t-46 31t-31 46t-11.5 56.5t11.5 56.5t31 46t46 31t56.5 11.5z" />
    <glyph glyph-name="one" unicode="1" horiz-adv-x="401" 
d="M355 128v495q0 26 -10 49t-27.5 40.5t-40.5 27.5t-49 10h-88q-26 0 -49.5 -10t-40.5 -27.5t-27 -40.5t-10 -49q0 -39 25.5 -67t62.5 -36v-392q0 -26 10 -49.5t27 -40.5t40.5 -27t49.5 -10t49 10t40.5 27t27.5 40.5t10 49.5z" />
    <glyph glyph-name="two" unicode="2" horiz-adv-x="604" 
d="M469 0q24 0 44.5 9t36.5 24.5t25 36.5t9 45t-9 44.5t-25 36.5t-36.5 25t-44.5 9h-35l74 80q39 42 55.5 83.5t16.5 97.5q0 57 -22.5 106.5t-61 86.5t-89.5 58t-108 21q-66 0 -117.5 -19.5t-86.5 -50t-53 -67.5t-18 -72q0 -26 10 -49t27.5 -40t41 -26.5t49.5 -9.5
q34 0 61.5 16t41.5 39q8 13 15.5 24.5t21.5 11.5t22 -9.5t8 -22.5q0 -9 -3.5 -15t-8.5 -12l-252 -261q-19 -20 -28.5 -39t-9.5 -46q0 -24 9 -45t24.5 -36.5t36.5 -24.5t45 -9h334z" />
    <glyph glyph-name="three" unicode="3" horiz-adv-x="591" 
d="M251 495q8 11 14.5 20.5t22.5 9.5t23 -8.5t7 -21.5q0 -17 -13.5 -24t-30 -15t-30 -22.5t-13.5 -45.5t14 -47.5t31 -27t31 -19.5t14 -25q0 -17 -8.5 -23.5t-21.5 -6.5q-14 0 -23.5 11.5t-22.5 29.5q-16 22 -40 34t-55 12q-26 0 -49.5 -8t-41.5 -24t-28.5 -38.5
t-10.5 -52.5q0 -38 20.5 -76.5t56.5 -69.5t86.5 -50.5t110.5 -19.5q55 0 105.5 21t88.5 56.5t60.5 83t22.5 101.5q0 29 -4.5 51t-13.5 40t-21.5 33t-27.5 30q29 25 41.5 60.5t12.5 66.5q0 42 -17.5 83.5t-51 75t-81.5 54t-109 20.5q-70 0 -121.5 -18.5t-85.5 -47t-50.5 -64
t-16.5 -69.5q0 -29 12 -51t30 -37t40 -22.5t42 -7.5q35 0 60.5 13t41.5 36z" />
    <glyph glyph-name="four" unicode="4" horiz-adv-x="691" 
d="M563 623q0 26 -10 49t-27.5 40.5t-40.5 27.5t-49 10h-164q-38 0 -63.5 -15t-43.5 -46l-130 -230q-11 -20 -16.5 -41.5t-5.5 -52.5v-87q0 -24 9 -45t24.5 -36.5t36.5 -24.5t45 -9h180v-35q0 -27 10 -50t27 -40.5t40.5 -27.5t49.5 -10q27 0 50 10t40.5 27.5t27.5 40.5
t10 50v35q24 0 44.5 9t36.5 24.5t25 36.5t9 45t-9 44.5t-25 36.5t-36.5 25t-44.5 9v230zM260 393l48 87v-87h-48z" />
    <glyph glyph-name="five" unicode="5" horiz-adv-x="581" 
d="M168 750q-47 0 -72.5 -24t-31.5 -65l-31 -206q-4 -26 5 -50t27 -42t42 -28.5t51 -10.5q28 0 54 -2.5t46.5 -9t32.5 -18.5t12 -30q0 -11 -8 -20t-19 -9q-17 0 -29.5 9t-26.5 20.5t-32.5 20.5t-48.5 9q-24 0 -45.5 -7t-38 -21.5t-26 -37.5t-9.5 -55q0 -27 15 -59.5
t45.5 -60.5t77.5 -47t111 -19q59 0 112 18t93 53.5t63.5 88t23.5 121.5q0 47 -14.5 89t-42 76t-68.5 56.5t-93 30.5h90q24 0 44.5 9t36.5 25t25 36.5t9 44.5t-9 45t-25 36.5t-36.5 24.5t-44.5 9h-265z" />
    <glyph glyph-name="six" unicode="6" horiz-adv-x="650" 
d="M285 278q0 17 11.5 28.5t28.5 11.5t28.5 -11.5t11.5 -28.5t-11.5 -28.5t-28.5 -11.5t-28.5 11.5t-11.5 28.5zM20 280q0 -62 24.5 -115t66 -93t97 -62.5t117.5 -22.5q61 0 116.5 22.5t97.5 61.5t66.5 92.5t24.5 116.5q0 52 -18.5 98t-49.5 82.5t-70.5 61.5t-82.5 35l11 22
q7 14 9.5 28.5t2.5 28.5q0 26 -10 49t-27.5 40.5t-40.5 27.5t-49 10q-36 0 -67.5 -20t-47.5 -52l-136 -280q-9 -18 -15 -33t-10.5 -30t-6.5 -31.5t-2 -36.5z" />
    <glyph glyph-name="seven" unicode="7" horiz-adv-x="570" 
d="M558 635q0 24 -9 45t-24.5 36.5t-36.5 24.5t-45 9h-315q-24 0 -45 -9t-36.5 -24.5t-24.5 -36.5t-9 -45t9 -44.5t24.5 -36.5t36.5 -25t45 -9h139l-128 -353q-7 -18 -7 -40q0 -26 10 -49.5t27 -40.5t40.5 -27t49.5 -10q40 0 73.5 23t47.5 63l157 470q8 23 14.5 39t6.5 40z
" />
    <glyph glyph-name="eight" unicode="8" horiz-adv-x="616" 
d="M278 259q0 12 8.5 21t21.5 9q12 0 21 -9t9 -21q0 -13 -9 -21.5t-21 -8.5q-13 0 -21.5 8.5t-8.5 21.5zM278 489q0 12 8.5 21t21.5 9q12 0 21 -9t9 -21q0 -13 -9 -21.5t-21 -8.5q-13 0 -21.5 8.5t-8.5 21.5zM308 -13q66 0 119 20t90.5 54t58 79.5t20.5 97.5q0 51 -21 92
t-59 61q8 7 18.5 17.5t20.5 26.5t16.5 38t6.5 52q0 48 -21.5 91t-58 76t-86 52t-104.5 19q-56 0 -105 -19t-85.5 -52t-58 -76t-21.5 -91q0 -30 6.5 -52t16.5 -38t20.5 -26.5t18.5 -17.5q-38 -20 -59 -61t-21 -92q0 -52 20.5 -97.5t58 -79.5t90.5 -54t119 -20z" />
    <glyph glyph-name="nine" unicode="9" horiz-adv-x="640" 
d="M365 470q0 -17 -11.5 -28.5t-28.5 -11.5t-28.5 11.5t-11.5 28.5t11.5 28.5t28.5 11.5t28.5 -11.5t11.5 -28.5zM195 177q-17 -31 -17 -63q0 -26 10 -49.5t27 -40.5t40.5 -27t49.5 -10q34 0 64 17t47 48l157 272q23 39 35 70t12 76q0 61 -24 114.5t-65 93.5t-95.5 62.5
t-115.5 22.5q-60 0 -114.5 -21.5t-95.5 -60.5t-65.5 -92t-24.5 -116q0 -47 15.5 -89t42.5 -76t62 -59t74 -38z" />
    <glyph glyph-name="colon" unicode=":" horiz-adv-x="310" 
d="M155 230q-24 0 -45 -9t-36.5 -24.5t-24.5 -36.5t-9 -45t9 -45t24.5 -36.5t36.5 -24.5t45 -9t45 9t36.5 24.5t24.5 36.5t9 45t-9 45t-24.5 36.5t-36.5 24.5t-45 9zM155 555q-24 0 -45 -9t-36.5 -24.5t-24.5 -36.5t-9 -45t9 -45t24.5 -36.5t36.5 -24.5t45 -9t45 9
t36.5 24.5t24.5 36.5t9 45t-9 45t-24.5 36.5t-36.5 24.5t-45 9z" />
    <glyph glyph-name="semicolon" unicode=";" horiz-adv-x="322" 
d="M155 555q-24 0 -45 -9t-36.5 -24.5t-24.5 -36.5t-9 -45t9 -45t24.5 -36.5t36.5 -24.5t45 -9t45 9t36.5 24.5t24.5 36.5t9 45t-9 45t-24.5 36.5t-36.5 24.5t-45 9zM282 109q0 25 -9.5 47t-26 38.5t-38.5 26t-47 9.5t-47 -9.5t-38.5 -26t-26 -38.5t-9.5 -47q0 -38 19 -66
t48 -42l-11 -27q-5 -13 -5 -24q0 -26 19 -45t45 -19q19 0 35 10t24 29l59 137q5 13 7 23t2 24z" />
    <glyph glyph-name="less" unicode="&#x3c;" horiz-adv-x="337" 
d="M12 375q0 -31 25 -56l151 -151q11 -11 25.5 -16.5t28.5 -5.5q31 0 53 22t22 53q0 32 -22 54l-100 100l100 100q22 22 22 54q0 31 -22 53t-53 22q-14 0 -28.5 -5.5t-25.5 -16.5l-151 -151q-25 -25 -25 -56z" />
    <glyph glyph-name="equal" unicode="=" horiz-adv-x="424" 
d="M337 413q31 0 53 21.5t22 53.5q0 31 -22 53t-53 22h-250q-32 0 -53.5 -22t-21.5 -53q0 -32 21.5 -53.5t53.5 -21.5h250zM337 188q31 0 53 21.5t22 53.5q0 31 -22 53t-53 22h-250q-32 0 -53.5 -22t-21.5 -53q0 -32 21.5 -53.5t53.5 -21.5h250z" />
    <glyph glyph-name="greater" unicode="&#x3e;" horiz-adv-x="337" 
d="M325 375q0 31 -25 56l-151 151q-11 11 -25.5 16.5t-28.5 5.5q-31 0 -53 -22t-22 -53q0 -32 22 -54l100 -100l-100 -100q-22 -22 -22 -54q0 -31 22 -53t53 -22q14 0 28.5 5.5t25.5 16.5l151 151q25 25 25 56z" />
    <glyph glyph-name="question" unicode="?" horiz-adv-x="557" 
d="M162 115q0 -24 9 -44.5t25 -36.5t36.5 -25t44.5 -9t45 9t36.5 25t24.5 36.5t9 44.5t-9 45t-24.5 36.5t-36.5 24.5t-45 9t-44.5 -9t-36.5 -24.5t-25 -36.5t-9 -45zM272 520q10 0 15.5 -8t5.5 -18q0 -9 -6 -15t-15.5 -10.5t-21 -8.5t-21.5 -9q-26 -13 -42.5 -36t-16.5 -55
q0 -33 12.5 -53.5t31.5 -32.5t40 -16.5t38 -4.5q36 0 79 13.5t80 42.5t61.5 74.5t24.5 109.5q0 58 -20.5 107.5t-56.5 85.5t-84.5 56.5t-103.5 20.5q-50 0 -95.5 -16.5t-80.5 -44t-55.5 -64.5t-20.5 -78q0 -23 10 -43t27 -35t38.5 -23.5t45.5 -8.5q32 0 51 11t31.5 24t23 24
t25.5 11z" />
    <glyph glyph-name="at" unicode="@" horiz-adv-x="790" 
d="M389 325q-21 0 -35.5 15t-14.5 35q0 21 14.5 35.5t35.5 14.5q20 0 35 -14.5t15 -35.5q0 -20 -15 -35t-35 -15zM451 231q0 -29 13 -52t35 -39t49 -24.5t56 -8.5q34 0 64.5 13t53 35.5t35.5 52.5t13 65v102q0 78 -29.5 146t-80.5 119t-119 80.5t-146 29.5t-146 -29.5
t-119 -80.5t-80.5 -119t-29.5 -146t29.5 -146t80.5 -119t119.5 -80.5t145.5 -29.5q22 0 37.5 15.5t15.5 37.5q0 23 -15.5 38t-37.5 15q-51 0 -99.5 21t-86 58t-60.5 85.5t-23 104.5q0 55 21 104t58 86t85.5 58t104.5 21q55 0 104 -21t86 -58t58 -86t21 -104v-102
q0 -25 -17.5 -42.5t-42.5 -17.5q-24 0 -41.5 17.5t-17.5 42.5v205q0 22 -15.5 37.5t-37.5 15.5q-14 0 -24 -5t-17 -13q-14 8 -28.5 13t-33.5 5q-32 0 -60.5 -12.5t-50 -33.5t-34 -49.5t-12.5 -60.5t12.5 -60.5t34 -49.5t50 -33.5t60.5 -12.5q19 0 33 4.5t29 13.5v-6z" />
    <glyph glyph-name="A" unicode="A" horiz-adv-x="761" 
d="M380 369l36 -83h-72zM506 81q16 -37 49 -59t71 -22q35 0 58.5 13.5t38 33t20.5 41.5t6 40q0 30 -14 60l-226 480q-20 42 -50.5 68.5t-78.5 26.5q-47 0 -77.5 -26.5t-50.5 -68.5l-227 -480q-7 -14 -10 -29.5t-3 -30.5q0 -32 11 -55.5t28 -40t39 -24.5t44 -8q38 0 71 22
t50 59l10 23h231z" />
    <glyph glyph-name="B" unicode="B" 
d="M343 520q13 0 21.5 -8.5t8.5 -21.5q0 -12 -8.5 -21t-21.5 -9h-42v60h42zM412 0q49 0 93.5 17.5t78 48t53.5 72.5t20 91q0 37 -11.5 69t-26.5 56t-29 38t-19 17q4 4 10 11t12 19t10 30.5t4 45.5q0 49 -18.5 91.5t-50.5 74.5t-74.5 50.5t-91.5 18.5h-199q-26 0 -49.5 -10
t-40.5 -27.5t-27 -40.5t-10 -49v-496q0 -26 10 -49.5t27 -40.5t40.5 -27t49.5 -10h239zM373 290q13 0 21.5 -8.5t8.5 -21.5q0 -12 -8.5 -21t-21.5 -9h-72v60h72z" />
    <glyph glyph-name="C" unicode="C" horiz-adv-x="780" 
d="M407 763q-80 0 -150 -30.5t-123 -83t-83.5 -123.5t-30.5 -151t30.5 -151t83.5 -123.5t123 -83t150 -30.5q51 0 97.5 11t87 30.5t73.5 46t56 58.5q17 23 24.5 46t7.5 46q0 33 -12.5 55.5t-31 36.5t-39.5 20t-38 6q-28 0 -54.5 -14t-48.5 -43q-17 -23 -47 -39.5t-67 -16.5
q-30 0 -56.5 11.5t-46 31t-31 46t-11.5 56.5t11.5 56.5t31 46t46 31t56.5 11.5q37 0 67 -16.5t47 -39.5q22 -29 48.5 -43t54.5 -14t50.5 10.5t38 27.5t24 38.5t8.5 42.5q0 47 -32 91q-23 32 -56 58.5t-73.5 46t-87 30.5t-97.5 11z" />
    <glyph glyph-name="D" unicode="D" horiz-adv-x="761" 
d="M173 0h215q75 0 140 30.5t112 82t74 119.5t27 143t-27 143t-74 119.5t-112 82t-140 30.5h-215q-26 0 -49.5 -10t-40.5 -27.5t-27 -40.5t-10 -49v-496q0 -26 10 -49.5t27 -40.5t40.5 -27t49.5 -10zM346 520q30 0 57.5 -11.5t48 -31t32.5 -46t12 -56.5t-12 -56.5t-32.5 -46
t-48 -31t-57.5 -11.5h-45v290h45z" />
    <glyph glyph-name="E" unicode="E" horiz-adv-x="576" 
d="M173 0h268q24 0 44.5 9t36.5 25t25 36.5t9 44.5t-9 45t-25 36.5t-36.5 24.5t-44.5 9h-140v58h107q37 0 62.5 25.5t25.5 61.5t-25.5 62t-62.5 26h-107v57h140q24 0 44.5 9t36.5 25t25 36.5t9 44.5t-9 45t-25 36.5t-36.5 24.5t-44.5 9h-268q-26 0 -49.5 -10t-40.5 -27.5
t-27 -40.5t-10 -49v-496q0 -26 10 -49.5t27 -40.5t40.5 -27t49.5 -10z" />
    <glyph glyph-name="F" unicode="F" horiz-adv-x="576" 
d="M173 0q27 0 50 10t40.5 27.5t27.5 40.5t10 50v160h107q37 0 62.5 25.5t25.5 61.5t-25.5 62t-62.5 26h-107v57h140q24 0 44.5 9t36.5 25t25 36.5t9 44.5t-9 45t-25 36.5t-36.5 24.5t-44.5 9h-268q-26 0 -49.5 -10t-40.5 -27.5t-27 -40.5t-10 -49v-496q0 -26 10 -49.5
t27 -40.5t40.5 -27t49.5 -10z" />
    <glyph glyph-name="G" unicode="G" horiz-adv-x="752" 
d="M698 119q17 19 22 35.5t5 39.5v135q0 22 -8.5 41t-22.5 33t-33 22.5t-41 8.5h-175q-36 0 -62 -25.5t-26 -62.5q0 -36 26 -61.5t62 -25.5h18q11 0 11 -7q0 -6 -14 -14t-45 -8q-29 0 -55.5 11.5t-46.5 31t-31.5 46t-11.5 56.5t11.5 56.5t31 46t46 31t56.5 11.5
q31 0 50.5 -9t35.5 -19.5t34 -19.5t46 -9q22 0 44 9.5t39.5 26t28 39.5t10.5 50q0 31 -15.5 59.5t-47.5 49.5q-49 32 -105 49t-128 17q-80 0 -150 -30.5t-123 -83t-83.5 -123.5t-30.5 -151t30.5 -151t83.5 -123.5t123 -83t150 -30.5q47 0 89.5 10.5t79.5 28.5t67.5 42
t54.5 51z" />
    <glyph glyph-name="H" unicode="H" horiz-adv-x="741" 
d="M440 263v-135q0 -27 10 -50t27 -40.5t40.5 -27.5t49.5 -10t49.5 10t41 27.5t27.5 40.5t10 50v495q0 26 -10 49t-27.5 40.5t-41 27.5t-49.5 10t-49.5 -10t-40.5 -27.5t-27 -40.5t-10 -49v-128h-139v128q0 26 -10 49t-27.5 40.5t-40.5 27.5t-50 10q-26 0 -49.5 -10
t-40.5 -27.5t-27 -40.5t-10 -49v-495q0 -27 10 -50t27 -40.5t40.5 -27.5t49.5 -10q27 0 50 10t40.5 27.5t27.5 40.5t10 50v135h139z" />
    <glyph glyph-name="I" unicode="I" horiz-adv-x="347" 
d="M301 623q0 26 -10 49t-27.5 40.5t-40.5 27.5t-50 10q-26 0 -49.5 -10t-40.5 -27.5t-27 -40.5t-10 -49v-495q0 -27 10 -50t27 -40.5t40.5 -27.5t49.5 -10q27 0 50 10t40.5 27.5t27.5 40.5t10 50v495z" />
    <glyph glyph-name="J" unicode="J" horiz-adv-x="668" 
d="M367 290q0 -19 -13.5 -32.5t-32.5 -13.5q-20 0 -33 13.5t-13 32.5v50q0 26 -10 49.5t-27.5 41t-41 27.5t-49.5 10t-49.5 -10t-40.5 -27.5t-27 -41t-10 -49.5v-50q0 -62 23.5 -117.5t64 -96.5t95 -65t117.5 -24q62 0 117 24t96 65t65 96t24 118v333q0 26 -10 49
t-27.5 40.5t-40.5 27.5t-49 10q-27 0 -50 -10t-40.5 -27.5t-27.5 -40.5t-10 -49v-333z" />
    <glyph glyph-name="K" unicode="K" horiz-adv-x="712" 
d="M301 266l175 -220q18 -23 43.5 -34.5t53.5 -11.5q26 0 49 10t40.5 27t27.5 40.5t10 49.5q0 38 -24 68l-154 191l122 164q12 17 18 36.5t6 39.5q0 25 -10 48t-26.5 39.5t-39.5 26.5t-48 10q-31 0 -58.5 -14.5t-47.5 -42.5l-137 -195v125q0 26 -10 49t-27.5 40.5
t-40.5 27.5t-50 10q-26 0 -49.5 -10t-40.5 -27.5t-27 -40.5t-10 -49v-495q0 -27 10 -50t27 -40.5t40.5 -27.5t49.5 -10q27 0 50 10t40.5 27.5t27.5 40.5t10 50v138z" />
    <glyph glyph-name="L" unicode="L" horiz-adv-x="568" 
d="M441 0q24 0 44.5 9t36.5 25t25 36.5t9 44.5t-9 45t-25 36.5t-36.5 24.5t-44.5 9h-140v393q0 26 -10 49t-27.5 40.5t-40.5 27.5t-50 10q-26 0 -49.5 -10t-40.5 -27.5t-27 -40.5t-10 -49v-496q0 -26 10 -49.5t27 -40.5t40.5 -27t49.5 -10h268z" />
    <glyph glyph-name="M" unicode="M" horiz-adv-x="947" 
d="M653 215l21 -114q4 -23 15.5 -41.5t28.5 -31.5t37.5 -20.5t42.5 -7.5q33 0 57 12t40 30t24 40.5t8 43.5q0 5 -0.5 11t-1.5 11l-93 500q-9 47 -43 74.5t-82 27.5q-39 0 -68.5 -17.5t-46.5 -53.5l-119 -249l-119 249q-34 71 -115 71q-48 0 -82.5 -27.5t-42.5 -74.5
l-92 -500q-1 -6 -1.5 -11.5t-0.5 -11.5q0 -25 10 -47.5t27.5 -40t40.5 -27.5t50 -10q22 0 42.5 7.5t37.5 20.5t28.5 31.5t15.5 41.5l21 114l69 -145q33 -70 111 -70t111 70z" />
    <glyph glyph-name="N" unicode="N" horiz-adv-x="767" 
d="M495 46q14 -17 40 -31.5t58 -14.5q27 0 50 10t40.5 27.5t27.5 40.5t10 50v495q0 26 -10 49t-27.5 40.5t-40.5 27.5t-50 10q-26 0 -49.5 -10t-40.5 -27.5t-27 -40.5t-10 -49v-169l-194 250q-17 22 -42 34t-57 12q-26 0 -49.5 -10t-40.5 -27.5t-27 -40.5t-10 -49v-495
q0 -27 10 -50t27 -40.5t40.5 -27.5t49.5 -10q27 0 50 10t40.5 27.5t27.5 40.5t10 50v168z" />
    <glyph glyph-name="O" unicode="O" horiz-adv-x="816" 
d="M408 763q-80 0 -151 -30.5t-123.5 -83t-83 -123.5t-30.5 -151t30.5 -151t83 -123.5t123.5 -83t151 -30.5t151 30.5t123.5 83t83 123.5t30.5 151t-30.5 151t-83 123.5t-123.5 83t-151 30.5zM415 520q30 0 56.5 -11.5t46 -31t31 -46t11.5 -56.5t-11.5 -56.5t-31 -46
t-46 -31t-56.5 -11.5t-56.5 11.5t-46 31t-31 46t-11.5 56.5t11.5 56.5t31 46t46 31t56.5 11.5z" />
    <glyph glyph-name="P" unicode="P" horiz-adv-x="647" 
d="M173 750q-26 0 -49.5 -10t-40.5 -27.5t-27 -40.5t-10 -49v-495q0 -27 10 -50t27 -40.5t40.5 -27.5t49.5 -10q27 0 50 10t40.5 27.5t27.5 40.5t10 50v85h57q56 0 105 21t85.5 57.5t57.5 85t21 104.5t-21 105t-57.5 85.5t-85.5 57.5t-105 21h-185zM335 520q15 0 26 -11
t11 -26q0 -16 -11 -27t-26 -11h-34v75h34z" />
    <glyph glyph-name="Q" unicode="Q" horiz-adv-x="877" 
d="M407 -13q64 0 115.5 18t91.5 44l50 -44q28 -25 66 -25q26 0 49 10t40.5 27t27.5 40.5t10 49.5q0 21 -8 41t-24 36l-55 55q11 29 18 62t7 74q0 80 -30.5 151t-83 123.5t-123.5 83t-151 30.5t-150.5 -30.5t-123 -83t-83 -123.5t-30.5 -151t30.5 -151t83 -123.5t123 -83
t150.5 -30.5zM270 375q0 30 11.5 56.5t31 46t46 31t56.5 11.5t56.5 -11.5t46 -31t31 -46t11.5 -56.5t-11.5 -56.5t-31 -46t-46 -31t-56.5 -11.5t-56.5 11.5t-46 31t-31 46t-11.5 56.5z" />
    <glyph glyph-name="R" unicode="R" horiz-adv-x="654" 
d="M335 520q15 0 26 -11t11 -26q0 -16 -11 -27t-26 -11h-34v75h34zM546 290q16 14 30.5 35t26 45.5t18 53t6.5 57.5q0 56 -21 105t-57.5 85.5t-85.5 57.5t-105 21h-185q-26 0 -49.5 -10t-40.5 -27.5t-27 -40.5t-10 -49v-495q0 -27 10 -50t27 -40.5t40.5 -27.5t49.5 -10
q27 0 50 10t40.5 27.5t27.5 40.5t10 50v72l89 -143q17 -29 46 -43t62 -14q26 0 49 10t40.5 27t27.5 40.5t10 49.5q0 35 -19 66z" />
    <glyph glyph-name="S" unicode="S" horiz-adv-x="630" 
d="M603 241q0 47 -11.5 82.5t-32.5 62t-51.5 45.5t-68.5 33l-77 29q-27 10 -47 21.5t-20 25.5q0 11 10.5 16t21.5 5q15 0 28.5 -6.5t25.5 -15t23.5 -18t21.5 -15.5q19 -11 46 -11q19 0 38.5 6t35.5 18.5t26.5 32t10.5 47.5q0 36 -19.5 66t-53.5 51.5t-80 34t-100 12.5
q-59 0 -109.5 -16t-87.5 -47t-58.5 -76.5t-21.5 -103.5q0 -79 43.5 -129t115.5 -77l61 -23l24 -10t22 -11t16.5 -13.5t6.5 -17.5q0 -13 -8.5 -19.5t-21.5 -6.5q-14 0 -23.5 2.5t-19 8.5t-20 15.5t-25.5 23.5q-17 16 -40 24t-46 8q-21 0 -40.5 -7t-34.5 -21t-24.5 -36
t-9.5 -53q0 -47 24 -82.5t62.5 -59.5t87 -36.5t97.5 -12.5q59 0 114 15t97 46t67 79t25 114z" />
    <glyph glyph-name="T" unicode="T" horiz-adv-x="661" 
d="M459 520h74q24 0 44.5 9t36.5 25t25 36.5t9 44.5t-9 45t-25 36.5t-36.5 24.5t-44.5 9h-405q-24 0 -45 -9t-36.5 -24.5t-24.5 -36.5t-9 -45t9 -44.5t24.5 -36.5t36.5 -25t45 -9h76v-392q0 -27 10 -50t27 -40.5t40.5 -27.5t49.5 -10q27 0 50 10t40.5 27.5t27.5 40.5t10 50
v392z" />
    <glyph glyph-name="U" unicode="U" horiz-adv-x="729" 
d="M365 243q-26 0 -45 18.5t-19 44.5v317q0 26 -10 49t-27.5 40.5t-40.5 27.5t-50 10q-26 0 -49.5 -10t-40.5 -27.5t-27 -40.5t-10 -49v-317q0 -66 25 -124t68.5 -101.5t101.5 -68.5t124 -25t123.5 25t101 68.5t68.5 101.5t25 124v317q0 26 -10 49t-27.5 40.5t-40.5 27.5
t-49 10t-49.5 -10t-41 -27.5t-27.5 -40.5t-10 -49v-317q0 -26 -18.5 -44.5t-44.5 -18.5z" />
    <glyph glyph-name="V" unicode="V" horiz-adv-x="765" 
d="M509 71l233 500q11 23 11 51q0 27 -10 50t-27.5 40.5t-40.5 27.5t-50 10q-35 0 -66.5 -18.5t-47.5 -53.5l-128 -275l-129 275q-16 35 -47.5 53.5t-66.5 18.5q-27 0 -50 -10t-40.5 -27.5t-27.5 -40.5t-10 -50q0 -28 11 -51l233 -500q18 -38 51 -54.5t76 -16.5
q42 0 75 16.5t51 54.5z" />
    <glyph glyph-name="W" unicode="W" horiz-adv-x="1059" 
d="M411 670l-76 -195l-78 195q-15 38 -47.5 59t-70.5 21q-26 0 -49.5 -10t-40.5 -27.5t-27 -40.5t-10 -49q0 -12 1.5 -24t6.5 -23l195 -496q15 -38 45.5 -59t72.5 -21t73 21t46 59l77 194l75 -194q15 -39 46 -59.5t73 -20.5t73 21t46 59l196 496q9 22 9 47q0 26 -10 49
t-27.5 40.5t-40.5 27.5t-49 10q-38 0 -71 -21t-48 -59l-77 -195l-77 195q-15 38 -44.5 59t-71.5 21q-43 0 -74 -21t-46 -59z" />
    <glyph glyph-name="X" unicode="X" horiz-adv-x="696" 
d="M61 550l130 -165l-145 -186q-26 -33 -26 -75q0 -26 10 -48.5t26.5 -39t39 -26.5t48.5 -10q27 0 53 11.5t44 34.5l107 137l107 -137q18 -23 44 -34.5t53 -11.5q25 0 48 10t39.5 26.5t26.5 39t10 48.5q0 42 -26 75l-145 186l130 165q14 17 20 36.5t6 39.5q0 25 -10 48
t-26.5 39.5t-39.5 26.5t-48 10q-27 0 -53 -12t-44 -35l-92 -118l-92 118q-18 23 -44 35t-53 12q-26 0 -48.5 -10t-39 -26.5t-26.5 -39.5t-10 -48q0 -43 26 -76z" />
    <glyph glyph-name="Y" unicode="Y" horiz-adv-x="652" 
d="M618 555q22 32 22 71q0 25 -10 48t-26.5 39.5t-39.5 26.5t-48 10q-29 0 -55.5 -13t-44.5 -39l-90 -128l-89 128q-18 26 -45 39t-56 13q-26 0 -48.5 -10t-39 -26.5t-26.5 -39.5t-10 -48q0 -18 5.5 -36t16.5 -34l165 -236v-192q0 -27 10 -50t27 -40.5t40.5 -27.5t49.5 -10
t49.5 10t41 27.5t27.5 40.5t10 50v192z" />
    <glyph glyph-name="Z" unicode="Z" horiz-adv-x="683" 
d="M541 0q24 0 44.5 9t36.5 24.5t25 36.5t9 45t-9 44.5t-25 36.5t-36.5 25t-44.5 9h-145l219 303q16 23 28.5 43t12.5 49q0 26 -10 48.5t-27 39.5t-39.5 27t-48.5 10h-389q-24 0 -44.5 -9t-36.5 -24.5t-25 -36.5t-9 -45t9 -44.5t25 -36.5t36.5 -25t44.5 -9h145l-219 -303
q-16 -23 -28.5 -43t-12.5 -49q0 -26 10 -48.5t27 -39.5t39.5 -27t48.5 -10h389z" />
    <glyph glyph-name="bracketleft" unicode="[" horiz-adv-x="498" 
d="M371 0h-50q-31 0 -53 22t-22 53v600q0 31 22 53t53 22h50q42 0 71 29t29 71t-29 71t-71 29h-125q-41 0 -77.5 -16t-63.5 -43t-43 -63.5t-16 -77.5v-750q0 -41 16 -77.5t43 -63.5t63.5 -43t77.5 -16h125q42 0 71 29t29 71t-29 71t-71 29z" />
    <glyph glyph-name="backslash" unicode="\" horiz-adv-x="528" 
d="M297 17q14 -32 43 -50t61 -18q24 0 45 9t36.5 24.5t24.5 36.5t9 45q0 11 -2 23.5t-7 23.5l-275 621q-14 32 -43 50t-62 18q-24 0 -45 -9t-36.5 -24.5t-24.5 -36.5t-9 -45q0 -26 10 -47z" />
    <glyph glyph-name="bracketright" unicode="]" horiz-adv-x="491" 
d="M120 0q-42 0 -71 -29t-29 -71t29 -71t71 -29h125q41 0 77.5 16t63.5 43t43 63.5t16 77.5v750q0 41 -16 77.5t-43 63.5t-63.5 43t-77.5 16h-125q-42 0 -71 -29t-29 -71t29 -71t71 -29h50q31 0 53 -22t22 -53v-600q0 -31 -22 -53t-53 -22h-50z" />
    <glyph glyph-name="asciicircum" unicode="^" horiz-adv-x="400" 
d="M200 763q-13 0 -22.5 -5t-19.5 -15l-122 -122q-8 -8 -12 -19.5t-4 -22.5q0 -23 16 -39t39 -16t40 17l85 84l85 -84q17 -17 40 -17t39 16t16 39q0 11 -4 22.5t-12 19.5l-122 122q-10 10 -19.5 15t-22.5 5z" />
    <glyph glyph-name="underscore" unicode="_" horiz-adv-x="598" 
d="M613 -225q12 0 19.5 7t11.5 18t5.5 24.5t1.5 25.5t-1.5 25.5t-5.5 24.5t-11.5 18t-19.5 7h-575q-12 0 -19.5 -7t-11.5 -18t-5.5 -24.5t-1.5 -25.5t1.5 -25.5t5.5 -24.5t11.5 -18t19.5 -7h575z" />
    <glyph glyph-name="grave" unicode="`" horiz-adv-x="299" 
d="M188 504q20 -14 43 -14q20 0 34 14t14 34q0 23 -14 43l-90 140q-10 15 -25 22t-32 7q-41 0 -69.5 -28.5t-28.5 -69.5q0 -17 6.5 -32.5t21.5 -25.5z" />
    <glyph glyph-name="a" unicode="a" 
d="M332 213q-42 0 -71 29t-29 71t29 71t71 29t71 -29t29 -71t-29 -71t-71 -29zM539 0q22 0 41 8.5t33.5 23t23 33.5t8.5 41v413q0 22 -8.5 41t-23 33.5t-33.5 23t-41 8.5q-26 0 -47 -11t-34 -26q-26 17 -57 27t-69 10q-64 0 -121 -24.5t-99.5 -67t-67 -99.5t-24.5 -121
q0 -65 24.5 -122t67 -99.5t99.5 -67t121 -24.5q38 0 68.5 9.5t57.5 27.5q12 -14 33.5 -25.5t47.5 -11.5z" />
    <glyph glyph-name="b" unicode="b" horiz-adv-x="691" 
d="M258 313q0 42 29 71t71 29t71 -29t29 -71t-29 -71t-71 -29t-71 29t-29 71zM258 608v36q0 22 -8.5 41t-22.5 33.5t-33.5 23t-41.5 8.5t-41 -8.5t-33.5 -23t-23 -33.5t-8.5 -41v-538q0 -22 8.5 -41t23 -33.5t33.5 -23t41 -8.5q23 0 41.5 8t32.5 22q28 -13 60 -21.5t72 -8.5
q64 0 121 24.5t100 67t67.5 99.5t24.5 122q0 64 -24.5 121t-67.5 99.5t-100 67t-121 24.5q-29 0 -54.5 -5t-45.5 -12z" />
    <glyph glyph-name="c" unicode="c" horiz-adv-x="627" 
d="M339 631q-66 0 -124 -25t-101.5 -68.5t-68.5 -101t-25 -123.5t25 -124t68.5 -101.5t101.5 -68.5t124 -25q75 0 133.5 25t103.5 71q31 31 31 71q0 27 -11.5 48t-29 36t-37.5 22.5t-38 7.5q-28 0 -44.5 -11t-31 -23.5t-31.5 -23.5t-45 -11q-22 0 -41.5 8.5t-34 23t-23 34
t-8.5 41.5t8.5 41t23 33.5t34 23t41.5 8.5q29 0 45.5 -11t31 -23.5t30.5 -23.5t45 -11q25 0 46.5 11t37 27.5t24 37t8.5 39.5q0 18 -7.5 36t-23.5 34q-45 46 -103.5 71t-133.5 25z" />
    <glyph glyph-name="d" unicode="d" horiz-adv-x="690" 
d="M332 213q-42 0 -71 29t-29 71t29 71t71 29t71 -29t29 -71t-29 -71t-71 -29zM332 625q-64 0 -121 -24.5t-99.5 -67t-67 -99.5t-24.5 -121q0 -65 24.5 -122t67 -99.5t99.5 -67t121 -24.5q40 0 72.5 8.5t60.5 21.5q14 -14 32 -22t41 -8q22 0 41 8.5t33.5 23t23 33.5t8.5 41
v538q0 22 -8.5 41t-23 33.5t-33.5 23t-41 8.5t-41 -8.5t-33.5 -23t-23 -33.5t-8.5 -41v-36q-19 7 -44.5 12t-55.5 5z" />
    <glyph glyph-name="e" unicode="e" horiz-adv-x="627" 
d="M232 313q0 19 8 38t22 34t34 24.5t43 9.5q9 0 23 -2t14 -7q0 -1 -3 -4l-134 -99q-2 -2 -4.5 1t-2.5 5zM567 408q30 23 30 55q0 28 -21 58t-57 54.5t-82.5 40t-97.5 15.5q-66 0 -124 -25t-101.5 -68.5t-68.5 -101t-25 -123.5t25 -124t68.5 -101.5t101.5 -68.5t124 -25
q75 0 133.5 25t103.5 71q31 31 31 71q0 24 -10 44.5t-26.5 36t-36.5 24.5t-41 9q-31 0 -48 -11t-30.5 -23.5t-29.5 -23.5t-46 -11q-11 0 -18.5 1.5t-16.5 5.5z" />
    <glyph glyph-name="f" unicode="f" horiz-adv-x="504" 
d="M436 475q0 25 -10.5 44.5t-25.5 32.5q35 5 59.5 32.5t24.5 65.5q0 42 -29 71t-71 29h-156q-45 0 -75.5 -30.5t-30.5 -75.5v-69q-21 0 -40 -8t-32.5 -21.5t-21.5 -31.5t-8 -39t8 -39t21.5 -31.5t32.5 -21.5t40 -8v-269q0 -22 8.5 -41t22.5 -33.5t33.5 -23t41.5 -8.5
t41 8.5t33.5 23t23 33.5t8.5 41v269q21 0 40 8t32.5 21.5t21.5 31.5t8 39z" />
    <glyph glyph-name="g" unicode="g" 
d="M332 200q-23 0 -43.5 9t-35.5 24.5t-24 36t-9 43.5t9 43.5t24 35.5t35.5 24t43.5 9t43.5 -9t36 -24t24.5 -35.5t9 -43.5t-9 -43.5t-24.5 -36t-36 -24.5t-43.5 -9zM332 -250q65 0 122 24.5t99.5 67t67 99.5t24.5 122v456q0 22 -8.5 41t-23 33.5t-33.5 23t-41 8.5
q-26 0 -47 -11t-34 -26q-26 17 -57 27t-69 10q-64 0 -121 -24.5t-99.5 -67t-67 -99.5t-24.5 -121q0 -65 24.5 -122t67 -99.5t99.5 -67t121 -24.5q38 0 68.5 9.5t57.5 27.5v-12q0 -17 -12.5 -31t-31.5 -24t-41 -15t-41 -5q-41 0 -67 5.5t-44 12.5t-32 12.5t-31 5.5
q-21 0 -38.5 -8.5t-30.5 -21.5t-20 -30t-7 -33q0 -29 16.5 -54.5t43.5 -39.5t55 -23.5t55.5 -15t53 -8t46.5 -2.5z" />
    <glyph glyph-name="h" unicode="h" horiz-adv-x="709" 
d="M46 106q0 -22 8.5 -41t23 -33.5t33.5 -23t41 -8.5t41.5 8.5t33.5 23t22.5 33.5t8.5 41v207q0 42 29 71t71 29t71 -29t29 -71v-207q0 -22 8.5 -41t23 -33.5t34 -23t41.5 -8.5t41 8.5t33 23t22.5 33.5t8.5 41v207q0 64 -24.5 121t-67 99.5t-99.5 67t-121 24.5
q-29 0 -54.5 -6t-43.5 -16h-2v41q0 22 -8.5 41t-22.5 33.5t-33.5 23t-41.5 8.5t-41 -8.5t-33.5 -23t-23 -33.5t-8.5 -41v-538z" />
    <glyph glyph-name="i" unicode="i" horiz-adv-x="290" 
d="M251 519q0 22 -8.5 41t-22.5 33.5t-33.5 23t-41.5 8.5t-41 -8.5t-33.5 -23t-23 -33.5t-8.5 -41v-413q0 -22 8.5 -41t23 -33.5t33.5 -23t41 -8.5t41.5 8.5t33.5 23t22.5 33.5t8.5 41v413z" />
    <glyph glyph-name="j" unicode="j" horiz-adv-x="290" 
d="M251 519q0 22 -8.5 41t-22.5 33.5t-33.5 23t-41.5 8.5t-41 -8.5t-33.5 -23t-23 -33.5t-8.5 -41v-519q0 -21 -15 -35.5t-35 -14.5q-42 0 -71 -29t-29 -71t29 -71t71 -29h50q44 0 82.5 16.5t67.5 45.5t45.5 67.5t16.5 82.5v557z" />
    <glyph glyph-name="k" unicode="k" horiz-adv-x="569" 
d="M368 30q15 -16 35 -23t40 -7q45 0 75.5 30.5t30.5 75.5q0 21 -7.5 40.5t-23.5 34.5l-138 131l138 131q16 15 23.5 35t7.5 41q0 45 -30.5 75.5t-75.5 30.5q-20 0 -40 -7.5t-35 -23.5l-110 -116v166q0 22 -8.5 41t-22.5 33.5t-33.5 23t-41.5 8.5t-41 -8.5t-33.5 -23
t-23 -33.5t-8.5 -41v-538q0 -22 8.5 -41t23 -33.5t33.5 -23t41 -8.5t41.5 8.5t33.5 23t22.5 33.5t8.5 41v40z" />
    <glyph glyph-name="l" unicode="l" horiz-adv-x="304" 
d="M258 644q0 22 -8.5 41t-22.5 33.5t-33.5 23t-41.5 8.5t-41 -8.5t-33.5 -23t-23 -33.5t-8.5 -41v-538q0 -22 8.5 -41t23 -33.5t33.5 -23t41 -8.5t41.5 8.5t33.5 23t22.5 33.5t8.5 41v538z" />
    <glyph glyph-name="m" unicode="m" horiz-adv-x="1015" 
d="M326 625q-59 0 -111.5 -22.5t-91.5 -61.5t-61.5 -91.5t-22.5 -111.5v-232q0 -22 8.5 -41t22.5 -33.5t33.5 -23t41.5 -8.5t41 8.5t33.5 23t23 33.5t8.5 41v232q0 31 22 53t53 22t53 -22t22 -53v-232q0 -22 8.5 -41t23 -33.5t33.5 -23t41 -8.5t41.5 8.5t33.5 23t22.5 33.5
t8.5 41v232q0 31 22 53t54 22q31 0 53 -22t22 -53v-232q0 -22 8.5 -41t22.5 -33.5t33.5 -23t41.5 -8.5t41 8.5t33.5 23t23 33.5t8.5 41v232q0 59 -22.5 111.5t-61.5 91.5t-91.5 61.5t-111.5 22.5q-57 0 -103 -19t-79 -46q-32 27 -78 46t-103 19z" />
    <glyph glyph-name="n" unicode="n" horiz-adv-x="653" 
d="M39 106q0 -22 8.5 -41t22.5 -33.5t33.5 -23t41.5 -8.5t41 8.5t33.5 23t23 33.5t8.5 41v232q0 31 22 53t53 22t53.5 -22t22.5 -53v-232q0 -22 8.5 -41t23 -33.5t33.5 -23t41 -8.5t41.5 8.5t33.5 23t22.5 33.5t8.5 41v232q0 59 -22.5 111.5t-61.5 91.5t-91.5 61.5
t-112.5 22.5q-59 0 -111.5 -22.5t-91.5 -61.5t-61.5 -91.5t-22.5 -111.5v-232z" />
    <glyph glyph-name="o" unicode="o" horiz-adv-x="665" 
d="M332 213q-42 0 -71 29t-29 71t29 71t71 29t71 -29t29 -71t-29 -71t-71 -29zM645 313q0 64 -24.5 121t-67 99.5t-99.5 67t-122 24.5t-121.5 -24.5t-99 -67t-67 -99.5t-24.5 -121q0 -65 24.5 -122t67 -99.5t99 -67t121.5 -24.5t122 24.5t99.5 67t67 99.5t24.5 122z" />
    <glyph glyph-name="p" unicode="p" horiz-adv-x="691" 
d="M258 313q0 42 29 71t71 29t71 -29t29 -71t-29 -71t-71 -29t-71 29t-29 71zM258 17q20 -7 45.5 -12t54.5 -5q64 0 121 24.5t99.5 67t67.5 99.5t25 122q0 64 -25 121t-67.5 99.5t-99.5 67t-121 24.5q-40 0 -72 -8t-61 -22q-14 14 -32 22t-41 8q-22 0 -41.5 -8.5t-33.5 -23
t-22.5 -33.5t-8.5 -41v-613q0 -22 8.5 -41t22.5 -33.5t33.5 -23t41.5 -8.5t41 8.5t33.5 23t23 33.5t8.5 41v111z" />
    <glyph glyph-name="q" unicode="q" horiz-adv-x="691" 
d="M433 313q0 -42 -29 -71t-71 -29t-71 29t-29 71t29 71t71 29t71 -29t29 -71zM433 17v-111q0 -22 8.5 -41t23 -33.5t33.5 -23t41 -8.5t41.5 8.5t33.5 23t22.5 33.5t8.5 41v613q0 22 -8.5 41t-22.5 33.5t-33.5 23t-41.5 8.5q-23 0 -41 -8t-32 -22q-29 14 -61 22t-72 8
q-64 0 -121 -24.5t-99.5 -67t-67.5 -99.5t-25 -121q0 -65 25 -122t67.5 -99.5t99.5 -67t121 -24.5q29 0 54.5 5t45.5 12z" />
    <glyph glyph-name="r" unicode="r" horiz-adv-x="477" 
d="M357 413q22 0 41.5 8.5t34 22.5t23 33.5t8.5 41.5t-8.5 41t-23 33.5t-34 23t-41.5 8.5q-19 0 -39 -6.5t-37 -14.5t-29.5 -17t-15.5 -13q-14 21 -37 36t-54 15q-22 0 -41.5 -8.5t-33.5 -23t-22.5 -33.5t-8.5 -41v-413q0 -22 8.5 -41t22.5 -33.5t33.5 -23t41.5 -8.5t41 8.5
t33.5 23t23 33.5t8.5 41v307q0 16 3.5 27t12.5 11q7 0 14 -6t16.5 -13t23.5 -13t36 -6z" />
    <glyph glyph-name="s" unicode="s" horiz-adv-x="529" 
d="M503 201q0 78 -36.5 120.5t-99.5 65.5l-65 24q-23 8 -39 18t-16 21q0 9 8.5 13.5t17.5 4.5q19 0 32 -8.5t25.5 -19t27 -19t37.5 -8.5q15 0 31.5 5t29.5 15.5t21.5 26.5t8.5 39q0 30 -16 55t-44.5 43t-66.5 28.5t-83 10.5q-49 0 -91 -13.5t-73 -39.5t-49 -63.5t-18 -86.5
q0 -66 36 -107.5t96 -63.5l51 -19q20 -8 38.5 -17.5t18.5 -25.5q0 -23 -25 -23q-22 0 -35.5 10.5t-27 23.5t-32 23.5t-49.5 10.5q-17 0 -33.5 -5.5t-29.5 -17.5t-20.5 -30.5t-7.5 -43.5q0 -39 20 -68.5t52.5 -49.5t72.5 -30.5t81 -10.5q49 0 95 12.5t80.5 38.5t55.5 66
t21 95z" />
    <glyph glyph-name="t" unicode="t" horiz-adv-x="490" 
d="M245 750q-22 0 -41.5 -8.5t-33.5 -23t-22.5 -33.5t-8.5 -41v-19h-19q-42 0 -71 -29t-29 -71t29 -71t71 -29h19v-319q0 -22 8.5 -41t22.5 -33.5t33.5 -23t41.5 -8.5t41 8.5t33.5 23t23 33.5t8.5 41v319h19q42 0 71 29t29 71t-29 71t-71 29h-19v19q0 22 -8.5 41t-23 33.5
t-33.5 23t-41 8.5z" />
    <glyph glyph-name="u" unicode="u" horiz-adv-x="653" 
d="M39 519v-232q0 -59 22.5 -111.5t61.5 -91.5t91.5 -61.5t111.5 -22.5q60 0 112.5 22.5t91.5 61.5t61.5 91.5t22.5 111.5v232q0 22 -8.5 41t-22.5 33.5t-33.5 23t-41.5 8.5t-41 -8.5t-33.5 -23t-23 -33.5t-8.5 -41v-232q0 -31 -22.5 -53t-53.5 -22t-53 22t-22 53v232
q0 22 -8.5 41t-23 33.5t-33.5 23t-41 8.5t-41.5 -8.5t-33.5 -23t-22.5 -33.5t-8.5 -41z" />
    <glyph glyph-name="v" unicode="v" horiz-adv-x="716" 
d="M450 52l239 414q14 25 14 51q0 22 -8.5 42t-23 34.5t-34.5 23t-42 8.5q-28 0 -52 -13.5t-38 -39.5l-147 -273l-146 273q-14 26 -39 39.5t-52 13.5q-23 0 -42.5 -8.5t-34 -23t-23 -34.5t-8.5 -42q0 -14 4 -26.5t11 -24.5l238 -414q30 -52 92 -52t92 52z" />
    <glyph glyph-name="w" unicode="w" horiz-adv-x="906" 
d="M453 625q-35 0 -60.5 -17t-37.5 -49l-68 -188l-68 188q-11 32 -38.5 49t-59.5 17q-23 0 -42.5 -8.5t-34 -23t-23 -34.5t-8.5 -42q0 -17 8 -38l168 -413q13 -32 38 -49t60 -17t60.5 17t37.5 49l68 187l68 -187q12 -32 37.5 -49t60.5 -17t60.5 17t38.5 49l167 413
q8 21 8 38q0 22 -8.5 42t-23 34.5t-34.5 23t-42 8.5q-32 0 -59 -17t-38 -49l-69 -188l-68 188q-11 32 -37 49t-61 17z" />
    <glyph glyph-name="x" unicode="x" horiz-adv-x="600" 
d="M45 174q-25 -28 -25 -66q0 -23 8.5 -42.5t23 -34t34 -23t42.5 -8.5t44 9.5t36 28.5l92 116l92 -116q15 -19 36 -28.5t44 -9.5q22 0 42 8.5t34.5 23t23 34t8.5 42.5q0 38 -25 66l-123 139l123 138q25 28 25 68q0 45 -30.5 75.5t-75.5 30.5q-23 0 -45 -8.5t-37 -28.5
l-92 -117l-93 117q-15 19 -36.5 28t-44.5 9q-45 0 -75.5 -30.5t-30.5 -75.5q0 -40 25 -68l122 -138z" />
    <glyph glyph-name="y" unicode="y" horiz-adv-x="720" 
d="M251 -18q-9 -19 -21.5 -25.5t-28.5 -6.5q-20 0 -38.5 -8t-32 -21.5t-21.5 -31.5t-8 -39q0 -42 29 -71t71 -29h25q41 0 73.5 13t56 31.5t39 39.5t23.5 38l280 601q9 21 9 44q0 22 -8.5 42t-23 34.5t-34.5 23t-42 8.5q-30 0 -55.5 -16.5t-38.5 -45.5l-145 -331l-145 331
q-13 29 -38.5 45.5t-55.5 16.5q-23 0 -42.5 -8.5t-34 -23t-23 -34.5t-8.5 -42q0 -23 9 -44z" />
    <glyph glyph-name="z" unicode="z" horiz-adv-x="543" 
d="M38 149q-10 -14 -14 -26t-4 -29q0 -39 27.5 -66.5t66.5 -27.5h315q19 0 36.5 7.5t30 20t20 29.5t7.5 37q0 19 -7.5 36t-20 29.5t-30 20t-36.5 7.5h-140l215 289q10 14 14.5 26t4.5 29q0 39 -27.5 66.5t-66.5 27.5h-315q-20 0 -37 -7.5t-29.5 -20t-20 -30t-7.5 -36.5
t7.5 -36t20 -29.5t29.5 -20t37 -7.5h139z" />
    <glyph glyph-name="braceleft" unicode="{" horiz-adv-x="654" 
d="M177 225v-225q0 -41 16 -77.5t43 -63.5t63.5 -43t77.5 -16h150q42 0 71 29t29 71t-29 71t-71 29h-75q-31 0 -53 22t-22 53v600q0 31 22 53t53 22h75q42 0 71 29t29 71t-29 71t-71 29h-150q-41 0 -77.5 -16t-63.5 -43t-43 -63.5t-16 -77.5v-225q-31 0 -58.5 -12t-47.5 -32
t-32 -47.5t-12 -58.5t12 -58.5t32 -47.5t47.5 -32t58.5 -12z" />
    <glyph glyph-name="bar" unicode="|" horiz-adv-x="242" 
d="M196 750q0 31 -22 53t-53 22t-53 -22t-22 -53v-1000q0 -31 22 -53t53 -22t53 22t22 53v1000z" />
    <glyph glyph-name="braceright" unicode="}" horiz-adv-x="654" 
d="M477 225q31 0 58.5 12t47.5 32t32 47.5t12 58.5t-12 58.5t-32 47.5t-47.5 32t-58.5 12v225q0 41 -16 77.5t-43 63.5t-63.5 43t-77.5 16h-150q-42 0 -71 -29t-29 -71t29 -71t71 -29h75q31 0 53 -22t22 -53v-600q0 -31 -22 -53t-53 -22h-75q-42 0 -71 -29t-29 -71t29 -71
t71 -29h150q41 0 77.5 16t63.5 43t43 63.5t16 77.5v225z" />
    <glyph glyph-name="asciitilde" unicode="~" horiz-adv-x="527" 
d="M170 650q15 0 26 -11t11 -26q0 -31 12 -58.5t32 -47.5t47.5 -32t58.5 -12t58.5 12t47.5 32t32 47.5t12 58.5t-17.5 46t-38.5 15t-38.5 -15t-17.5 -46q0 -16 -11 -27t-27 -11t-26.5 11t-10.5 27q0 31 -12 58t-32.5 47.5t-47.5 32.5t-58 12t-58.5 -12t-47.5 -32.5
t-32 -47.5t-12 -58t17.5 -46.5t38.5 -15.5t38.5 15.5t17.5 46.5q0 15 11 26t27 11z" />
    <glyph glyph-name="exclamdown" unicode="&#xa1;" horiz-adv-x="347" 
d="M301 128v232q0 26 -10 49.5t-27.5 41t-40.5 27.5t-50 10q-26 0 -49.5 -10t-40.5 -27.5t-27 -41t-10 -49.5v-232q0 -27 10 -50t27 -40.5t40.5 -27.5t49.5 -10q27 0 50 10t40.5 27.5t27.5 40.5t10 50zM58 635q0 -24 9 -44.5t25 -36.5t36.5 -25t44.5 -9t45 9t36.5 25
t24.5 36.5t9 44.5t-9 45t-24.5 36.5t-36.5 24.5t-45 9t-44.5 -9t-36.5 -24.5t-25 -36.5t-9 -45z" />
    <glyph glyph-name="cent" unicode="&#xa2;" horiz-adv-x="590" 
d="M404 98q9 3 25.5 9t36.5 17.5t41 28.5t39 41q24 33 24 68q0 21 -8.5 37.5t-21.5 28t-29 17.5t-32 6q-30 0 -46 -13.5t-30.5 -29t-33 -29t-53.5 -13.5q-23 0 -42.5 8.5t-34.5 23.5t-23.5 34.5t-8.5 42.5q0 22 8.5 42t23.5 35t34.5 23.5t42.5 8.5q35 0 53.5 -13.5t33 -29
t30.5 -29t46 -13.5q22 0 39.5 8.5t28.5 22t17 29t6 29.5q0 35 -24 68q-18 24 -38.5 41t-40.5 28t-37 17.5t-26 9.5v17q0 19 -7.5 36.5t-20 30t-30 20t-36.5 7.5t-36 -7.5t-29.5 -20t-20 -30t-7.5 -36.5v-19q-40 -14 -76 -40t-63 -61.5t-42.5 -80t-15.5 -93.5
q0 -50 15.5 -93.5t42.5 -79.5t62.5 -62t76.5 -40v-19q0 -19 7.5 -36t20 -30t29.5 -20.5t36 -7.5t36.5 7.5t30 20.5t20 30t7.5 36v17z" />
    <glyph glyph-name="sterling" unicode="&#xa3;" horiz-adv-x="622" 
d="M80 431q-27 -6 -43.5 -27t-16.5 -48q0 -28 16.5 -48.5t43.5 -26.5q-2 -8 -7 -27t-10.5 -43t-10 -50t-4.5 -46q0 -24 9 -45t24.5 -36.5t36.5 -24.5t45 -9h321q24 0 44.5 9t36.5 24.5t25 36.5t9 45t-9 44.5t-25 36.5t-36.5 25t-44.5 9h-171l11 51h18q31 0 53 22t22 53
q0 32 -22 53.5t-53 21.5h-23q-4 17 -7 29t-3 20q0 13 7 21.5t23 8.5t23.5 -10t15.5 -22q16 -23 37 -39t56 -16q20 0 43 9t42.5 25.5t32.5 39.5t13 52q0 40 -16.5 78.5t-50.5 68.5t-85.5 48.5t-121.5 18.5q-61 0 -110.5 -20.5t-84.5 -54t-54 -75t-19 -83.5q0 -17 6 -42
t14 -57z" />
    <glyph glyph-name="currency" unicode="&#xa4;" horiz-adv-x="598" 
d="M124 399q-15 -23 -23.5 -51t-8.5 -59q0 -30 8.5 -58t23.5 -52l-90 -90q-14 -14 -14 -33q0 -18 14 -32t32 -14q19 0 33 14l90 90q23 -15 51 -23.5t59 -8.5t59 8.5t52 23.5l89 -90q14 -14 33 -14q18 0 32 14t14 32q0 19 -14 33l-90 90q15 24 23.5 52t8.5 58t-8.5 58
t-23.5 52l90 90q14 14 14 33q0 18 -14 32t-32 14q-19 0 -33 -14l-90 -90q-23 15 -51 23.5t-59 8.5q-30 0 -58 -8.5t-52 -23.5l-90 90q-14 14 -33 14q-18 0 -32 -14t-14 -32q0 -19 14 -33zM299 404q24 0 45 -9t36.5 -24.5t24.5 -36.5t9 -45t-9 -45t-24.5 -36.5t-36.5 -24.5
t-45 -9t-45 9t-36.5 24.5t-24.5 36.5t-9 45t9 45t24.5 36.5t36.5 24.5t45 9z" />
    <glyph glyph-name="yen" unicode="&#xa5;" horiz-adv-x="652" 
d="M129 420h-18q-20 0 -35 -14.5t-15 -35.5q0 -20 15 -35t35 -15h88v-50h-25q-21 0 -35.5 -14.5t-14.5 -35.5q0 -20 14.5 -35t35.5 -15h25v-42q0 -27 10 -50t27 -40.5t40.5 -27.5t49.5 -10t49.5 10t41 27.5t27.5 40.5t10 50v42h25q20 0 35 15t15 35q0 21 -15 35.5t-35 14.5
h-25v50h87q21 0 35.5 15t14.5 35q0 21 -14.5 35.5t-35.5 14.5h-17l94 135q22 32 22 71q0 25 -10 48t-26.5 39.5t-39.5 26.5t-48 10q-29 0 -55.5 -13t-44.5 -39l-90 -128l-89 128q-18 26 -45 39t-56 13q-26 0 -48.5 -10t-39 -26.5t-26.5 -39.5t-10 -48q0 -18 5.5 -36
t16.5 -34z" />
    <glyph glyph-name="brokenbar" unicode="&#xa6;" horiz-adv-x="304" 
d="M258 644q0 22 -8.5 41t-22.5 33.5t-33.5 23t-41.5 8.5t-41 -8.5t-33.5 -23t-23 -33.5t-8.5 -41v-116q0 -22 8.5 -41t23 -33.5t33.5 -23t41 -8.5t41.5 8.5t33.5 23t22.5 33.5t8.5 41v116zM258 222q0 22 -8.5 41t-22.5 33.5t-33.5 23t-41.5 8.5t-41 -8.5t-33.5 -23
t-23 -33.5t-8.5 -41v-116q0 -22 8.5 -41t23 -33.5t33.5 -23t41 -8.5t41.5 8.5t33.5 23t22.5 33.5t8.5 41v116z" />
    <glyph glyph-name="section" unicode="&#xa7;" horiz-adv-x="648" 
d="M216 480l255 -147q8 -5 12.5 -13.5t4.5 -18.5q0 -16 -10.5 -27t-26.5 -11q-10 0 -17 4l-255 148q-19 11 -19 33q0 16 10.5 27t26.5 11q6 0 10.5 -2t8.5 -4zM481 132q39 7 65.5 26t43 44t24 51.5t7.5 47.5q0 42 -21 82.5t-63 64.5l-226 131q-11 6 -14.5 13.5t-3.5 16.5
q0 13 9 22t22 9q14 0 21.5 -4.5t14 -10t14 -10t22.5 -4.5q23 0 39 16t16 39t-15 38q-22 22 -51.5 34t-62.5 12q-28 0 -54.5 -10t-47.5 -28t-35 -42.5t-18 -52.5q-39 -7 -65.5 -26t-43 -44t-24 -51.5t-7.5 -47.5q0 -34 10 -59.5t23.5 -43.5t28 -29t23.5 -16l231 -132
q13 -7 13 -27q0 -13 -9 -22t-22 -9q-15 0 -23 5t-14.5 10.5t-15 10.5t-23.5 5q-23 0 -39 -16t-16 -39q0 -12 5 -21.5t13 -17.5q22 -22 50.5 -34.5t61.5 -12.5q28 0 54.5 10t48 27.5t35.5 41.5t19 53z" />
    <glyph glyph-name="dieresis" unicode="&#xa8;" horiz-adv-x="295" 
d="M20 705q0 -24 16.5 -40.5t40.5 -16.5t41 16.5t17 40.5t-17 41t-41 17t-40.5 -17t-16.5 -41zM160 705q0 -24 16.5 -40.5t40.5 -16.5t41 16.5t17 40.5t-17 41t-41 17t-40.5 -17t-16.5 -41z" />
    <glyph glyph-name="copyright" unicode="&#xa9;" horiz-adv-x="790" 
d="M395 0q78 0 146 29.5t119 80.5t80.5 119t29.5 146t-29.5 146t-80.5 119t-119 80.5t-146 29.5t-146 -29.5t-119 -80.5t-80.5 -119t-29.5 -146t29.5 -146t80.5 -119t119 -80.5t146 -29.5zM82 375q0 64 24.5 121t67.5 100t99.5 67.5t121.5 24.5q64 0 121 -24.5t99.5 -67.5
t67 -100t24.5 -121q0 -65 -24.5 -121.5t-67 -99t-99.5 -67t-121 -24.5q-65 0 -121.5 24.5t-99.5 67t-67.5 99t-24.5 121.5zM392 608q-48 0 -90.5 -18.5t-74 -50t-50 -74t-18.5 -90.5t18.5 -90.5t50 -74t74 -49.5t90.5 -18q60 0 110 24.5t78 62.5q10 13 14.5 27t4.5 28
q0 18 -7.5 31t-18.5 22t-23.5 13.5t-23.5 4.5q-17 0 -32.5 -8.5t-28.5 -25.5q-11 -14 -28.5 -24t-40.5 -10q-36 0 -61.5 25.5t-25.5 61.5t25.5 61.5t61.5 25.5q23 0 40.5 -9.5t28.5 -23.5q27 -35 61 -35q11 0 23.5 4.5t23.5 13.5t18.5 22t7.5 31q0 14 -4.5 28t-14.5 27
q-29 38 -78.5 63t-109.5 25z" />
    <glyph glyph-name="ordfeminine" unicode="&#xaa;" horiz-adv-x="372" 
d="M20 150q0 -16 10.5 -26.5t26.5 -10.5h238q15 0 26 10.5t11 26.5t-11 27t-26 11h-238q-16 0 -26.5 -11t-10.5 -27zM177 356q-21 0 -35.5 15t-14.5 35q0 21 14.5 35.5t35.5 14.5q20 0 35 -14.5t15 -35.5q0 -20 -15 -35t-35 -15zM280 250q22 0 37.5 15.5t15.5 37.5v207
q0 22 -15.5 37.5t-37.5 15.5q-14 0 -24 -5.5t-17 -13.5q-13 8 -28 13.5t-34 5.5q-32 0 -60.5 -12.5t-50 -33.5t-34 -49.5t-12.5 -61.5q0 -32 12.5 -60.5t34 -49.5t50 -33.5t60.5 -12.5q19 0 33.5 5t28.5 14q7 -8 17 -13.5t24 -5.5z" />
    <glyph glyph-name="guillemotleft" unicode="&#xab;" horiz-adv-x="486" 
d="M149 375l75 75q17 17 17 40t-17 40t-40 17t-40 -17l-113 -113q-19 -19 -19 -42t19 -42l113 -113q17 -17 40 -17t40 17t17 40t-17 40zM374 375l75 75q17 17 17 40t-17 40t-40 17t-40 -17l-113 -113q-19 -19 -19 -42t19 -42l113 -113q17 -17 40 -17t40 17t17 40t-17 40z
" />
    <glyph glyph-name="logicalnot" unicode="&#xac;" horiz-adv-x="824" 
d="M301 266l287 -363q18 -23 43.5 -35t52.5 -12t50.5 10t41 27.5t27.5 40.5t9 50q-1 18 -6.5 35.5t-17.5 32.5l-266 334l122 164q12 17 18 36.5t6 39.5q0 25 -10 47.5t-27 39t-39.5 26.5t-47.5 11q-31 1 -58.5 -14t-47.5 -43l-137 -195v125q0 26 -10 49t-27.5 40.5
t-40.5 27.5t-50 10q-26 0 -49.5 -10t-40.5 -27.5t-27 -40.5t-10 -49v-495q0 -27 10 -50t27 -40.5t40.5 -27.5t49.5 -10q27 0 50 10t40.5 27.5t27.5 40.5t10 50v138z" />
    <glyph glyph-name="registered" unicode="&#xae;" horiz-adv-x="577" 
d="M289 213q55 0 104 21t85.5 57.5t57.5 85t21 104.5t-21 105t-57.5 85.5t-85.5 57.5t-104 21q-56 0 -105 -21t-85.5 -57.5t-57.5 -85.5t-21 -105t21 -104.5t57.5 -85t85.5 -57.5t105 -21zM82 481q0 43 16.5 80.5t44.5 65.5t65.5 44.5t80.5 16.5q42 0 79.5 -16.5t65.5 -44.5
t44.5 -65.5t16.5 -80.5q0 -42 -16.5 -79.5t-44.5 -65.5t-65.5 -44.5t-79.5 -16.5q-43 0 -80.5 16.5t-65.5 44.5t-44.5 65.5t-16.5 79.5zM300 544q6 0 10.5 -4t4.5 -11q0 -6 -4.5 -10.5t-10.5 -4.5h-14v30h14zM322 359q7 -11 18.5 -17t24.5 -6q21 0 36 15t15 36q0 13 -8 26
l-24 39q11 9 17.5 20.5t10 23t4.5 20.5t1 13q0 22 -8.5 41.5t-23.5 34t-34.5 23t-41.5 8.5h-74q-21 0 -36 -15t-15 -36v-198q0 -21 15 -36t36 -15t36 15t15 36v29z" />
    <glyph glyph-name="macron" unicode="&#xaf;" horiz-adv-x="828" 
d="M380 369l38 -83h-74zM573 -60q17 -38 50.5 -60t71.5 -22q28 0 50.5 11t38.5 29.5t24 41.5t8 47q0 15 -3 30.5t-10 29.5l-294 621q-20 42 -50.5 68.5t-78.5 26.5q-47 0 -77.5 -26.5t-50.5 -68.5l-227 -480q-7 -14 -10 -29.5t-3 -30.5q0 -32 11 -55.5t28 -40t39 -24.5
t44 -8q38 0 71 22t50 59l10 23h234z" />
    <glyph glyph-name="degree" unicode="&#xb0;" horiz-adv-x="340" 
d="M20 600q0 -31 12 -58.5t32 -47.5t47.5 -32t58.5 -12t58 12t47.5 32t32.5 47.5t12 58.5t-12 58.5t-32.5 47.5t-47.5 32t-58 12t-58.5 -12t-47.5 -32t-32 -47.5t-12 -58.5zM170 540q-25 0 -42.5 17.5t-17.5 42.5t17.5 42.5t42.5 17.5t42.5 -17.5t17.5 -42.5t-17.5 -42.5
t-42.5 -17.5z" />
    <glyph glyph-name="plusminus" unicode="&#xb1;" horiz-adv-x="490" 
d="M320 413h75q31 0 53 22t22 53t-22 53t-53 22h-75v75q0 31 -22 53t-53 22q-32 0 -53.5 -22t-21.5 -53v-75h-75q-32 0 -53.5 -22t-21.5 -53t21.5 -53t53.5 -22h75v-75q0 -31 21.5 -53t53.5 -22q31 0 53 22t22 53v75zM395 38q31 0 53 22t22 53t-22 53t-53 22h-300
q-32 0 -53.5 -22t-21.5 -53t21.5 -53t53.5 -22h300z" />
    <glyph glyph-name="twosuperior" unicode="&#xb2;" horiz-adv-x="378" 
d="M289 305q29 0 49 20t20 49t-20 49t-49 20h-21l44 48q24 26 34 50.5t10 58.5t-13.5 64t-37 52t-54 34.5t-64.5 12.5q-40 0 -70.5 -12t-51.5 -30t-32 -40t-11 -43q0 -32 22.5 -53.5t54.5 -21.5q20 0 37 9.5t25 23.5q5 8 9 14.5t13 6.5q8 0 13 -5.5t5 -13.5q0 -5 -2 -8.5
t-5 -7.5l-152 -157q-11 -11 -16.5 -22.5t-5.5 -28.5q0 -29 20 -49t49 -20h200z" />
    <glyph glyph-name="threesuperior" unicode="&#xb3;" horiz-adv-x="370" 
d="M158 602q5 7 9 12.5t13 5.5q10 0 14 -5t4 -13q0 -10 -8 -14l-18 -9t-18 -13.5t-8 -27.5t8.5 -29t18.5 -16t18.5 -11.5t8.5 -14.5q0 -11 -5 -14.5t-13 -3.5t-13.5 6.5t-13.5 17.5q-20 28 -57 28q-32 0 -55 -19.5t-23 -54.5q0 -23 12 -46t34 -42t52 -30.5t66 -11.5
q33 0 63.5 12.5t53 34t36 50.5t13.5 61q0 35 -10.5 54t-29.5 38q17 15 24.5 36.5t7.5 39.5q0 25 -10.5 50t-30.5 45t-49 32.5t-65 12.5q-42 0 -73 -11t-51 -28.5t-30 -38.5t-10 -41q0 -18 7 -31t18 -22t24 -13.5t25 -4.5q42 0 61 29z" />
    <glyph glyph-name="acute" unicode="&#xb4;" horiz-adv-x="300" 
d="M111 504l140 90q15 10 22 25.5t7 32.5q0 18 -7 35.5t-20 31.5t-31.5 22.5t-40.5 8.5q-17 0 -32 -7t-25 -22l-90 -140q-14 -20 -14 -43q0 -22 14.5 -35t33.5 -13q23 0 43 14z" />
    <glyph glyph-name="mu" unicode="&#xb5;" horiz-adv-x="673" 
d="M59 288q0 -59 -1.5 -116.5t-5 -108.5t-10.5 -93t-18 -70q-4 -9 -4 -19q0 -20 16 -20q33 0 61 13.5t50.5 36.5t40.5 53.5t32 65.5q58 -30 126 -30q20 0 39 2.5t36 7.5v-10q0 -22 8.5 -41t23 -33.5t33.5 -23t41 -8.5t41.5 8.5t34.5 23t23 33.5t8 41v519q0 22 -8.5 41
t-23 33.5t-34 23t-41.5 8.5t-41 -8.5t-33.5 -23t-23 -33.5t-8.5 -41v-231q0 -32 -22 -53.5t-53 -21.5t-53 21.5t-22 53.5v231q0 22 -8.5 41t-23 33.5t-33.5 23t-41 8.5t-41.5 -8.5t-33.5 -23t-22.5 -33.5t-8.5 -41v-231z" />
    <glyph glyph-name="paragraph" unicode="&#xb6;" horiz-adv-x="968" 
d="M666 520v-392q0 -27 10 -50t27.5 -40.5t40.5 -27.5t50 -10q26 0 49.5 10t41 27.5t27.5 40.5t10 50v495q0 26 -10 49t-27.5 40.5t-41 27.5t-49.5 10h-505q-56 0 -105 -21t-85.5 -57.5t-57.5 -85.5t-21 -105t21 -104.5t57.5 -85t85.5 -57.5t105 -21h57v-85q0 -27 10 -50
t27.5 -40.5t40.5 -27.5t50 -10q26 0 49.5 10t41 27.5t27.5 40.5t10 50v392h64z" />
    <glyph glyph-name="periodcentered" unicode="&#xb7;" horiz-adv-x="724" 
d="M335 520q15 0 26 -11t11 -26q0 -16 -11 -27t-26 -11h-34v75h34zM477 -82q17 -28 46 -43t61 -15q27 0 50 10t40.5 27.5t27.5 40.5t10 50q0 37 -19 66l-147 236q23 21 38.5 46t25 50.5t13.5 50t4 44.5q0 56 -21 105t-57.5 85.5t-85.5 57.5t-105 21h-185q-26 0 -49.5 -10
t-40.5 -27.5t-27 -40.5t-10 -49v-495q0 -27 10 -50t27 -40.5t40.5 -27.5t49.5 -10q27 0 50 10t40.5 27.5t27.5 40.5t10 50v72z" />
    <glyph glyph-name="periodcentered" unicode="&#x2219;" horiz-adv-x="724" 
d="M335 520q15 0 26 -11t11 -26q0 -16 -11 -27t-26 -11h-34v75h34zM477 -82q17 -28 46 -43t61 -15q27 0 50 10t40.5 27.5t27.5 40.5t10 50q0 37 -19 66l-147 236q23 21 38.5 46t25 50.5t13.5 50t4 44.5q0 56 -21 105t-57.5 85.5t-85.5 57.5t-105 21h-185q-26 0 -49.5 -10
t-40.5 -27.5t-27 -40.5t-10 -49v-495q0 -27 10 -50t27 -40.5t40.5 -27.5t49.5 -10q27 0 50 10t40.5 27.5t27.5 40.5t10 50v72z" />
    <glyph glyph-name="onesuperior" unicode="&#xb9;" horiz-adv-x="264" 
d="M225 377v297q0 32 -22 54t-54 22h-53q-32 0 -54 -22t-22 -54q0 -23 15 -40t38 -22v-235q0 -32 22 -54t54 -22t54 22t22 54z" />
    <glyph glyph-name="ordmasculine" unicode="&#xba;" horiz-adv-x="353" 
d="M20 150q0 -16 10.5 -26.5t26.5 -10.5h238q15 0 26 10.5t11 26.5t-11 27t-26 11h-238q-16 0 -26.5 -11t-10.5 -27zM177 356q-21 0 -35.5 15t-14.5 35q0 21 14.5 35.5t35.5 14.5q20 0 35 -14.5t15 -35.5q0 -20 -15 -35t-35 -15zM333 406q0 33 -12.5 61.5t-33.5 49.5
t-49.5 33.5t-60.5 12.5q-33 0 -61.5 -12.5t-49.5 -33.5t-33.5 -49.5t-12.5 -61.5q0 -32 12.5 -60.5t33.5 -49.5t49.5 -33.5t61.5 -12.5q32 0 60.5 12.5t49.5 33.5t33.5 49.5t12.5 60.5z" />
    <glyph glyph-name="guillemotright" unicode="&#xbb;" horiz-adv-x="486" 
d="M337 375l-75 -75q-17 -17 -17 -40t17 -40t40 -17t40 17l113 113q19 19 19 42t-19 42l-113 113q-17 17 -40 17t-40 -17t-17 -40t17 -40zM112 375l-75 -75q-17 -17 -17 -40t17 -40t40 -17t40 17l113 113q19 19 19 42t-19 42l-113 113q-17 17 -40 17t-40 -17t-17 -40t17 -40
z" />
    <glyph glyph-name="onequarter" unicode="&#xbc;" horiz-adv-x="1220" 
d="M276 284v371q0 19 -7.5 36.5t-20.5 30.5t-30.5 20.5t-36.5 7.5h-66q-20 0 -37 -7.5t-30 -20.5t-20.5 -30.5t-7.5 -36.5q0 -29 19 -50.5t47 -26.5v-294q0 -20 7.5 -37.5t20.5 -30.5t30 -20.5t37 -7.5q19 0 36.5 7.5t30.5 20.5t20.5 30.5t7.5 37.5zM434 34l339 587
q7 11 9.5 23t2.5 24q0 19 -7.5 36.5t-20 30.5t-30 20.5t-36.5 7.5q-25 0 -47 -12t-35 -35l-340 -587q-13 -22 -13 -47q0 -20 7.5 -37t20.5 -30t30 -20.5t37 -7.5q25 0 47.5 12t35.5 35zM1114 467q0 20 -7.5 37.5t-20.5 30t-30.5 20t-36.5 7.5h-123q-29 0 -47.5 -11
t-32.5 -34l-98 -173q-8 -15 -12 -31t-4 -39v-66q0 -36 25 -61t61 -25h135v-26q0 -20 7.5 -37.5t20.5 -30.5t30 -20.5t37 -7.5q40 0 68 28t28 68v26q18 0 33.5 6.5t27 18.5t18.5 27.5t7 33.5t-7 34t-18.5 27.5t-27 18.5t-33.5 7v172zM887 295l36 65v-65h-36z" />
    <glyph glyph-name="onehalf" unicode="&#xbd;" horiz-adv-x="1186" 
d="M276 284v371q0 19 -7.5 36.5t-20.5 30.5t-30.5 20.5t-36.5 7.5h-66q-20 0 -37 -7.5t-30 -20.5t-20.5 -30.5t-7.5 -36.5q0 -29 19 -50.5t47 -26.5v-294q0 -20 7.5 -37.5t20.5 -30.5t30 -20.5t37 -7.5q19 0 36.5 7.5t30.5 20.5t20.5 30.5t7.5 37.5zM434 34l339 587
q7 11 9.5 23t2.5 24q0 19 -7.5 36.5t-20 30.5t-30 20.5t-36.5 7.5q-25 0 -47 -12t-35 -35l-340 -587q-13 -22 -13 -47q0 -20 7.5 -37t20.5 -30t30 -20.5t37 -7.5q25 0 47.5 12t35.5 35zM1072 0q36 0 61.5 25t25.5 61t-25.5 61t-61.5 25h-26l56 60q29 32 41.5 63t12.5 73
q0 43 -17 80t-46 64.5t-67 43.5t-81 16q-50 0 -88.5 -14.5t-64.5 -37.5t-39.5 -50.5t-13.5 -53.5q0 -40 28 -67t68 -27q25 0 45.5 12t31.5 29q6 10 11.5 18.5t16.5 8.5q10 0 16 -7t6 -17q0 -7 -2.5 -11t-6.5 -9l-189 -196q-14 -15 -21 -29.5t-7 -34.5q0 -36 25 -61t61 -25
h250z" />
    <glyph glyph-name="threequarters" unicode="&#xbe;" horiz-adv-x="1343" 
d="M557 34l339 587q7 11 9.5 23t2.5 24q0 19 -7.5 36.5t-20 30.5t-30 20.5t-36.5 7.5q-25 0 -47 -12t-35 -35l-340 -587q-13 -22 -13 -47q0 -20 7.5 -37t20.5 -30t30 -20.5t37 -7.5q25 0 47.5 12t35.5 35zM1237 467q0 20 -7.5 37.5t-20.5 30t-30.5 20t-36.5 7.5h-123
q-29 0 -47.5 -11t-32.5 -34l-98 -173q-8 -15 -12 -31t-4 -39v-66q0 -36 25 -61t61 -25h135v-26q0 -20 7.5 -37.5t20.5 -30.5t30 -20.5t37 -7.5q40 0 68 28t28 68v26q18 0 33.5 6.5t27 18.5t18.5 27.5t7 33.5t-7 34t-18.5 27.5t-27 18.5t-33.5 7v172zM1010 295l36 65v-65h-36
zM193 562q6 8 11 15.5t17 7.5t17 -6.5t5 -16.5q0 -12 -10 -17.5t-22.5 -11.5t-22.5 -17t-10 -34q0 -24 10.5 -36t23 -20t23 -14.5t10.5 -18.5q0 -14 -6 -18.5t-16 -4.5q-11 0 -18 8.5t-16 22.5q-25 34 -72 34q-39 0 -68 -23.5t-29 -68.5q0 -29 15 -57.5t42.5 -52t65 -38
t82.5 -14.5q42 0 79.5 15.5t66 42.5t45.5 62.5t17 75.5q0 44 -14 68.5t-36 47.5q22 19 31 45.5t9 49.5q0 31 -13 62.5t-38 56.5t-61 40.5t-82 15.5q-53 0 -91.5 -13.5t-64 -35.5t-38 -48.5t-12.5 -51.5q0 -22 9 -38.5t22.5 -28t30.5 -17t32 -5.5q26 0 45 10t31 27z" />
    <glyph glyph-name="questiondown" unicode="&#xbf;" horiz-adv-x="557" 
d="M395 636q0 24 -9 44.5t-25 36.5t-36.5 25t-44.5 9t-45 -9t-36.5 -25t-24.5 -36.5t-9 -44.5t9 -45t24.5 -36.5t36.5 -24.5t45 -9t44.5 9t36.5 24.5t25 36.5t9 45zM285 231q-10 0 -15.5 8t-5.5 18q0 9 6 15t15.5 10.5t21 8.5t21.5 9q26 13 42.5 36t16.5 55q0 33 -12.5 53.5
t-31.5 32.5t-40 16.5t-38 4.5q-36 0 -79 -13.5t-80 -42.5t-61.5 -74.5t-24.5 -109.5q0 -58 20.5 -107.5t56.5 -85.5t84 -56.5t104 -20.5q50 0 95.5 16t80.5 44t55.5 65t20.5 78q0 22 -10 42t-27 35t-38.5 24t-45.5 9q-32 0 -51 -11t-32 -24t-23 -24t-25 -11z" />
    <glyph glyph-name="Agrave" unicode="&#xc0;" horiz-adv-x="761" 
d="M380 369l36 -83h-72zM506 81q16 -37 49 -59t71 -22q35 0 58.5 13.5t38 33t20.5 41.5t6 40q0 30 -14 60l-226 480q-20 42 -50.5 68.5t-78.5 26.5q-47 0 -77.5 -26.5t-50.5 -68.5l-227 -480q-7 -14 -10 -29.5t-3 -30.5q0 -32 11 -55.5t28 -40t39 -24.5t44 -8q38 0 71 22
t50 59l10 23h231zM371 832q10 -6 22 -6q10 0 17 7t7 17q0 9 -7 21l-45 70q-10 14 -29 14q-20 0 -34.5 -14.5t-14.5 -34.5q0 -19 14 -29z" />
    <glyph glyph-name="Aacute" unicode="&#xc1;" horiz-adv-x="761" 
d="M380 369l36 -83h-72zM506 81q16 -37 49 -59t71 -22q35 0 58.5 13.5t38 33t20.5 41.5t6 40q0 30 -14 60l-226 480q-20 42 -50.5 68.5t-78.5 26.5q-47 0 -77.5 -26.5t-50.5 -68.5l-227 -480q-7 -14 -10 -29.5t-3 -30.5q0 -32 11 -55.5t28 -40t39 -24.5t44 -8q38 0 71 22
t50 59l10 23h231zM392 832l70 45q14 10 14 29q0 20 -14.5 34.5t-34.5 14.5q-19 0 -29 -14l-45 -70q-7 -12 -7 -21q0 -10 7 -17t17 -7q11 0 22 6z" />
    <glyph glyph-name="Acircumflex" unicode="&#xc2;" horiz-adv-x="761" 
d="M381 875l42 -42q8 -8 20 -8q11 0 19.5 8.5t8.5 19.5q0 12 -8 20l-61 61q-10 10 -21 10t-21 -10l-61 -61q-8 -8 -8 -20q0 -11 8.5 -19.5t19.5 -8.5q12 0 20 8zM380 369l36 -83h-72zM506 81q16 -37 49 -59t71 -22q35 0 58.5 13.5t38 33t20.5 41.5t6 40q0 30 -14 60
l-226 480q-20 42 -50.5 68.5t-78.5 26.5q-47 0 -77.5 -26.5t-50.5 -68.5l-227 -480q-7 -14 -10 -29.5t-3 -30.5q0 -32 11 -55.5t28 -40t39 -24.5t44 -8q38 0 71 22t50 59l10 23h231z" />
    <glyph glyph-name="Atilde" unicode="&#xc3;" horiz-adv-x="761" 
d="M380 369l36 -83h-72zM506 81q16 -37 49 -59t71 -22q35 0 58.5 13.5t38 33t20.5 41.5t6 40q0 30 -14 60l-226 480q-20 42 -50.5 68.5t-78.5 26.5q-47 0 -77.5 -26.5t-50.5 -68.5l-227 -480q-7 -14 -10 -29.5t-3 -30.5q0 -32 11 -55.5t28 -40t39 -24.5t44 -8q38 0 71 22
t50 59l10 23h231zM336 906q8 0 13 -5t5 -13q0 -31 22 -53t53 -22q32 0 53.5 21.5t21.5 53.5q0 15 -9 23t-20 8q-10 0 -18.5 -8t-8.5 -23q0 -19 -19 -19q-8 0 -13 5.5t-5 13.5q0 31 -22 53t-53 22q-32 0 -53.5 -22t-21.5 -53q0 -15 8.5 -23t18.5 -8q11 0 20 8t9 23
q0 8 5.5 13t13.5 5z" />
    <glyph glyph-name="Adieresis" unicode="&#xc4;" horiz-adv-x="761" 
d="M256 882q0 -24 17 -41t41 -17t41 17t17 41t-17 41t-41 17t-41 -17t-17 -41zM380 369l36 -83h-72zM506 81q16 -37 49 -59t71 -22q35 0 58.5 13.5t38 33t20.5 41.5t6 40q0 30 -14 60l-226 480q-20 42 -50.5 68.5t-78.5 26.5q-47 0 -77.5 -26.5t-50.5 -68.5l-227 -480
q-7 -14 -10 -29.5t-3 -30.5q0 -32 11 -55.5t28 -40t39 -24.5t44 -8q38 0 71 22t50 59l10 23h231zM396 882q0 -24 17 -41t41 -17t41 17t17 41t-17 41t-41 17t-41 -17t-17 -41z" />
    <glyph glyph-name="Aring" unicode="&#xc5;" horiz-adv-x="761" 
d="M306 899q0 -31 22 -53t53 -22t53 22t22 53q0 32 -22 53.5t-53 21.5t-53 -21.5t-22 -53.5zM381 869q-13 0 -21.5 9t-8.5 21q0 13 8.5 21.5t21.5 8.5q12 0 21 -8.5t9 -21.5q0 -12 -9 -21t-21 -9zM380 369l36 -83h-72zM506 81q16 -37 49 -59t71 -22q35 0 58.5 13.5t38 33
t20.5 41.5t6 40q0 30 -14 60l-226 480q-20 42 -50.5 68.5t-78.5 26.5q-47 0 -77.5 -26.5t-50.5 -68.5l-227 -480q-7 -14 -10 -29.5t-3 -30.5q0 -32 11 -55.5t28 -40t39 -24.5t44 -8q38 0 71 22t50 59l10 23h231z" />
    <glyph glyph-name="AE" unicode="&#xc6;" horiz-adv-x="921" 
d="M416 457v-171h-72zM417 104q7 -30 22 -50t33 -32t37 -17t34 -5h243q24 0 44.5 9t36.5 24.5t25 36.5t9 45t-9 44.5t-25 36.5t-36.5 25t-44.5 9h-140v58h107q36 0 62 25.5t26 61.5q0 18 -7 34t-19 28t-28 19t-34 7h-107v57h140q24 0 44.5 9t36.5 25t25 36.5t9 44.5t-9 45
t-25 36.5t-36.5 24.5t-44.5 9h-412q-27 0 -47.5 -8.5t-36 -22t-26.5 -30.5t-18 -33l-221 -468q-7 -14 -10 -29.5t-3 -30.5q0 -32 11 -55.5t28 -40t39 -24.5t45 -8q38 0 70.5 21.5t49.5 59.5l10 23h152z" />
    <glyph glyph-name="Ccedilla" unicode="&#xc7;" horiz-adv-x="780" 
d="M351 -9v-41q0 -8 -5.5 -13.5t-13.5 -5.5h-56q-23 0 -39.5 -16.5t-16.5 -39.5t16.5 -39.5t39.5 -16.5h57q27 0 51 10.5t41.5 28t28 41.5t10.5 51v41q84 11 150.5 49.5t106.5 92.5q17 23 24.5 46t7.5 46q0 33 -12.5 55.5t-31 36.5t-39.5 20t-38 6q-28 0 -54.5 -14
t-48.5 -43q-17 -23 -47 -39.5t-67 -16.5q-30 0 -56.5 11.5t-46 31t-31 46t-11.5 56.5t11.5 56.5t31 46t46 31t56.5 11.5q37 0 67 -16.5t47 -39.5q22 -29 48.5 -43t54.5 -14t50.5 10.5t38 27.5t24 38.5t8.5 42.5q0 47 -32 91q-23 32 -56 58.5t-73.5 46t-87 30.5t-97.5 11
q-80 0 -150 -30.5t-123 -83t-83.5 -123.5t-30.5 -151q0 -74 25.5 -139t70.5 -116t105.5 -85t129.5 -44z" />
    <glyph glyph-name="Egrave" unicode="&#xc8;" horiz-adv-x="576" 
d="M173 0h268q24 0 44.5 9t36.5 25t25 36.5t9 44.5t-9 45t-25 36.5t-36.5 24.5t-44.5 9h-140v58h107q37 0 62.5 25.5t25.5 61.5t-25.5 62t-62.5 26h-107v57h140q24 0 44.5 9t36.5 25t25 36.5t9 44.5t-9 45t-25 36.5t-36.5 24.5t-44.5 9h-268q-26 0 -49.5 -10t-40.5 -27.5
t-27 -40.5t-10 -49v-496q0 -26 10 -49.5t27 -40.5t40.5 -27t49.5 -10zM299 832q10 -6 22 -6q10 0 17 7t7 17q0 9 -7 21l-45 70q-10 14 -29 14q-20 0 -34.5 -14.5t-14.5 -34.5q0 -19 14 -29z" />
    <glyph glyph-name="Eacute" unicode="&#xc9;" horiz-adv-x="576" 
d="M173 0h268q24 0 44.5 9t36.5 25t25 36.5t9 44.5t-9 45t-25 36.5t-36.5 24.5t-44.5 9h-140v58h107q37 0 62.5 25.5t25.5 61.5t-25.5 62t-62.5 26h-107v57h140q24 0 44.5 9t36.5 25t25 36.5t9 44.5t-9 45t-25 36.5t-36.5 24.5t-44.5 9h-268q-26 0 -49.5 -10t-40.5 -27.5
t-27 -40.5t-10 -49v-496q0 -26 10 -49.5t27 -40.5t40.5 -27t49.5 -10zM266 832l70 45q14 10 14 29q0 20 -14.5 34.5t-34.5 14.5q-19 0 -29 -14l-45 -70q-7 -12 -7 -21q0 -10 7 -17t17 -7q11 0 22 6z" />
    <glyph glyph-name="Ecircumflex" unicode="&#xca;" horiz-adv-x="576" 
d="M173 0h268q24 0 44.5 9t36.5 25t25 36.5t9 44.5t-9 45t-25 36.5t-36.5 24.5t-44.5 9h-140v58h107q37 0 62.5 25.5t25.5 61.5t-25.5 62t-62.5 26h-107v57h140q24 0 44.5 9t36.5 25t25 36.5t9 44.5t-9 45t-25 36.5t-36.5 24.5t-44.5 9h-268q-26 0 -49.5 -10t-40.5 -27.5
t-27 -40.5t-10 -49v-496q0 -26 10 -49.5t27 -40.5t40.5 -27t49.5 -10zM295 875l42 -42q8 -8 20 -8q11 0 19.5 8.5t8.5 19.5q0 12 -8 20l-61 61q-10 10 -21 10t-21 -10l-61 -61q-8 -8 -8 -20q0 -11 8.5 -19.5t19.5 -8.5q12 0 20 8z" />
    <glyph glyph-name="Edieresis" unicode="&#xcb;" horiz-adv-x="576" 
d="M173 0h268q24 0 44.5 9t36.5 25t25 36.5t9 44.5t-9 45t-25 36.5t-36.5 24.5t-44.5 9h-140v58h107q37 0 62.5 25.5t25.5 61.5t-25.5 62t-62.5 26h-107v57h140q24 0 44.5 9t36.5 25t25 36.5t9 44.5t-9 45t-25 36.5t-36.5 24.5t-44.5 9h-268q-26 0 -49.5 -10t-40.5 -27.5
t-27 -40.5t-10 -49v-496q0 -26 10 -49.5t27 -40.5t40.5 -27t49.5 -10zM173 882q0 -24 17 -41t41 -17t41 17t17 41t-17 41t-41 17t-41 -17t-17 -41zM313 882q0 -24 17 -41t41 -17t41 17t17 41t-17 41t-41 17t-41 -17t-17 -41z" />
    <glyph glyph-name="Igrave" unicode="&#xcc;" horiz-adv-x="347" 
d="M301 623q0 26 -10 49t-27.5 40.5t-40.5 27.5t-50 10q-26 0 -49.5 -10t-40.5 -27.5t-27 -40.5t-10 -49v-495q0 -27 10 -50t27 -40.5t40.5 -27.5t49.5 -10q27 0 50 10t40.5 27.5t27.5 40.5t10 50v495zM155 832q10 -6 22 -6q10 0 17 7t7 17q0 9 -7 21l-45 70q-10 14 -29 14
q-20 0 -34.5 -14.5t-14.5 -34.5q0 -19 14 -29z" />
    <glyph glyph-name="Iacute" unicode="&#xcd;" horiz-adv-x="347" 
d="M301 623q0 26 -10 49t-27.5 40.5t-40.5 27.5t-50 10q-26 0 -49.5 -10t-40.5 -27.5t-27 -40.5t-10 -49v-495q0 -27 10 -50t27 -40.5t40.5 -27.5t49.5 -10q27 0 50 10t40.5 27.5t27.5 40.5t10 50v495zM195 832l70 45q14 10 14 29q0 20 -14.5 34.5t-34.5 14.5q-19 0 -29 -14
l-45 -70q-7 -12 -7 -21q0 -10 7 -17t17 -7q11 0 22 6z" />
    <glyph glyph-name="Icircumflex" unicode="&#xce;" horiz-adv-x="347" 
d="M301 623q0 26 -10 49t-27.5 40.5t-40.5 27.5t-50 10q-26 0 -49.5 -10t-40.5 -27.5t-27 -40.5t-10 -49v-495q0 -27 10 -50t27 -40.5t40.5 -27.5t49.5 -10q27 0 50 10t40.5 27.5t27.5 40.5t10 50v495zM171 875l42 -42q8 -8 20 -8q11 0 19.5 8.5t8.5 19.5q0 12 -8 20l-61 61
q-10 10 -21 10t-21 -10l-61 -61q-8 -8 -8 -20q0 -11 8.5 -19.5t19.5 -8.5q12 0 20 8z" />
    <glyph glyph-name="Idieresis" unicode="&#xcf;" horiz-adv-x="347" 
d="M46 882q0 -24 17 -41t41 -17t41 17t17 41t-17 41t-41 17t-41 -17t-17 -41zM185 882q0 -24 17 -41t41 -17t41 17t17 41t-17 41t-41 17t-41 -17t-17 -41zM301 623q0 26 -10 49t-27.5 40.5t-40.5 27.5t-50 10q-26 0 -49.5 -10t-40.5 -27.5t-27 -40.5t-10 -49v-495
q0 -27 10 -50t27 -40.5t40.5 -27.5t49.5 -10q27 0 50 10t40.5 27.5t27.5 40.5t10 50v495z" />
    <glyph glyph-name="Eth" unicode="&#xd0;" horiz-adv-x="891" 
d="M176 269v-142q0 -26 10 -49.5t27 -40.5t40.5 -27t49.5 -10h215q75 0 140 30.5t112 82t74 119.5t27 143t-27 143t-74 119.5t-112 82t-140 30.5h-215q-26 0 -49.5 -10t-40.5 -27.5t-27 -40.5t-10 -49v-142h-50q-22 0 -41 -8.5t-33.5 -22.5t-23 -33.5t-8.5 -41.5t8.5 -41
t23 -33.5t33.5 -23t41 -8.5h50zM431 481v39h45q30 0 57.5 -11.5t48 -31t32.5 -46t12 -56.5t-12 -56.5t-32.5 -46t-48 -31t-57.5 -11.5h-45v39h39q22 0 41 8.5t33.5 23t23 33.5t8.5 41t-8.5 41.5t-23 33.5t-33.5 22.5t-41 8.5h-39z" />
    <glyph glyph-name="Ntilde" unicode="&#xd1;" horiz-adv-x="767" 
d="M330 891q8 0 13 -5t5 -13q0 -31 22 -53t53 -22q32 0 53.5 21.5t21.5 53.5q0 15 -9 23t-20 8q-10 0 -18.5 -8t-8.5 -23q0 -19 -19 -19q-8 0 -13 5.5t-5 13.5q0 31 -22 53t-53 22q-32 0 -53.5 -22t-21.5 -53q0 -15 8.5 -23t18.5 -8q11 0 20 8t9 23q0 8 5.5 13t13.5 5z
M495 46q14 -17 40 -31.5t58 -14.5q27 0 50 10t40.5 27.5t27.5 40.5t10 50v495q0 26 -10 49t-27.5 40.5t-40.5 27.5t-50 10q-26 0 -49.5 -10t-40.5 -27.5t-27 -40.5t-10 -49v-169l-194 250q-17 22 -42 34t-57 12q-26 0 -49.5 -10t-40.5 -27.5t-27 -40.5t-10 -49v-495
q0 -27 10 -50t27 -40.5t40.5 -27.5t49.5 -10q27 0 50 10t40.5 27.5t27.5 40.5t10 50v168z" />
    <glyph glyph-name="Ograve" unicode="&#xd2;" horiz-adv-x="816" 
d="M408 763q-80 0 -151 -30.5t-123.5 -83t-83 -123.5t-30.5 -151t30.5 -151t83 -123.5t123.5 -83t151 -30.5t151 30.5t123.5 83t83 123.5t30.5 151t-30.5 151t-83 123.5t-123.5 83t-151 30.5zM415 520q30 0 56.5 -11.5t46 -31t31 -46t11.5 -56.5t-11.5 -56.5t-31 -46
t-46 -31t-56.5 -11.5t-56.5 11.5t-46 31t-31 46t-11.5 56.5t11.5 56.5t31 46t46 31t56.5 11.5zM385 832q10 -6 22 -6q10 0 17 7t7 17q0 9 -7 21l-45 70q-10 14 -29 14q-20 0 -34.5 -14.5t-14.5 -34.5q0 -19 14 -29z" />
    <glyph glyph-name="Oacute" unicode="&#xd3;" horiz-adv-x="816" 
d="M408 763q-80 0 -151 -30.5t-123.5 -83t-83 -123.5t-30.5 -151t30.5 -151t83 -123.5t123.5 -83t151 -30.5t151 30.5t123.5 83t83 123.5t30.5 151t-30.5 151t-83 123.5t-123.5 83t-151 30.5zM415 520q30 0 56.5 -11.5t46 -31t31 -46t11.5 -56.5t-11.5 -56.5t-31 -46
t-46 -31t-56.5 -11.5t-56.5 11.5t-46 31t-31 46t-11.5 56.5t11.5 56.5t31 46t46 31t56.5 11.5zM424 832l70 45q14 10 14 29q0 20 -14.5 34.5t-34.5 14.5q-19 0 -29 -14l-45 -70q-7 -12 -7 -21q0 -10 7 -17t17 -7q11 0 22 6z" />
    <glyph glyph-name="Ocircumflex" unicode="&#xd4;" horiz-adv-x="816" 
d="M408 763q-80 0 -151 -30.5t-123.5 -83t-83 -123.5t-30.5 -151t30.5 -151t83 -123.5t123.5 -83t151 -30.5t151 30.5t123.5 83t83 123.5t30.5 151t-30.5 151t-83 123.5t-123.5 83t-151 30.5zM415 520q30 0 56.5 -11.5t46 -31t31 -46t11.5 -56.5t-11.5 -56.5t-31 -46
t-46 -31t-56.5 -11.5t-56.5 11.5t-46 31t-31 46t-11.5 56.5t11.5 56.5t31 46t46 31t56.5 11.5zM407 875l42 -42q8 -8 20 -8q11 0 19.5 8.5t8.5 19.5q0 12 -8 20l-61 61q-10 10 -21 10t-21 -10l-61 -61q-8 -8 -8 -20q0 -11 8.5 -19.5t19.5 -8.5q12 0 20 8z" />
    <glyph glyph-name="Otilde" unicode="&#xd5;" horiz-adv-x="816" 
d="M363 906q8 0 13 -5t5 -13q0 -31 22 -53t53 -22q32 0 53.5 21.5t21.5 53.5q0 15 -9 23t-20 8q-10 0 -18.5 -8t-8.5 -23q0 -19 -19 -19q-8 0 -13 5.5t-5 13.5q0 31 -22 53t-53 22q-32 0 -53.5 -22t-21.5 -53q0 -15 8.5 -23t18.5 -8q11 0 20 8t9 23q0 8 5.5 13t13.5 5z
M408 763q-80 0 -151 -30.5t-123.5 -83t-83 -123.5t-30.5 -151t30.5 -151t83 -123.5t123.5 -83t151 -30.5t151 30.5t123.5 83t83 123.5t30.5 151t-30.5 151t-83 123.5t-123.5 83t-151 30.5zM415 520q30 0 56.5 -11.5t46 -31t31 -46t11.5 -56.5t-11.5 -56.5t-31 -46t-46 -31
t-56.5 -11.5t-56.5 11.5t-46 31t-31 46t-11.5 56.5t11.5 56.5t31 46t46 31t56.5 11.5z" />
    <glyph glyph-name="Odieresis" unicode="&#xd6;" horiz-adv-x="816" 
d="M408 763q-80 0 -151 -30.5t-123.5 -83t-83 -123.5t-30.5 -151t30.5 -151t83 -123.5t123.5 -83t151 -30.5t151 30.5t123.5 83t83 123.5t30.5 151t-30.5 151t-83 123.5t-123.5 83t-151 30.5zM415 520q30 0 56.5 -11.5t46 -31t31 -46t11.5 -56.5t-11.5 -56.5t-31 -46
t-46 -31t-56.5 -11.5t-56.5 11.5t-46 31t-31 46t-11.5 56.5t11.5 56.5t31 46t46 31t56.5 11.5zM280 882q0 -24 17 -41t41 -17t41 17t17 41t-17 41t-41 17t-41 -17t-17 -41zM420 882q0 -24 17 -41t41 -17t41 17t17 41t-17 41t-41 17t-41 -17t-17 -41z" />
    <glyph glyph-name="multiply" unicode="&#xd7;" horiz-adv-x="402" 
d="M307 375l53 53q11 11 16.5 25t5.5 28q0 31 -22 53t-53 22t-53 -22l-53 -53l-53 53q-22 22 -53 22t-53 -22t-22 -53t22 -53l53 -53l-53 -53q-22 -22 -22 -53t22 -53t53 -22t53 22l53 53l53 -53q22 -22 53 -22t53 22t22 53q0 14 -5.5 28t-16.5 25z" />
    <glyph glyph-name="Oslash" unicode="&#xd8;" horiz-adv-x="815" 
d="M723 598l24 24q22 22 22 53t-22 53t-53 22t-53 -22l-26 -27q-45 29 -94.5 45.5t-113.5 16.5q-80 0 -150 -30.5t-123 -83.5t-83.5 -123.5t-30.5 -150.5q0 -63 17.5 -114t43.5 -93l-39 -39q-11 -11 -16.5 -25.5t-5.5 -28.5q0 -31 22 -53t53 -22q30 0 53 23l37 36
q46 -32 99.5 -52t122.5 -20q80 0 150.5 31t123.5 83.5t83.5 123t30.5 150.5q0 69 -21.5 125.5t-50.5 97.5zM365 239l186 186q5 -12 7 -23.5t2 -26.5q0 -30 -11.5 -56t-31 -46t-46 -31.5t-56.5 -11.5q-15 0 -27 2.5t-23 6.5zM270 375q0 30 11.5 56.5t31.5 46t46 31t56 11.5h9
t9 -1l-162 -162q-1 5 -1 9v9z" />
    <glyph glyph-name="Ugrave" unicode="&#xd9;" horiz-adv-x="729" 
d="M365 243q-26 0 -45 18.5t-19 44.5v317q0 26 -10 49t-27.5 40.5t-40.5 27.5t-50 10q-26 0 -49.5 -10t-40.5 -27.5t-27 -40.5t-10 -49v-317q0 -66 25 -124t68.5 -101.5t101.5 -68.5t124 -25t123.5 25t101 68.5t68.5 101.5t25 124v317q0 26 -10 49t-27.5 40.5t-40.5 27.5
t-49 10t-49.5 -10t-41 -27.5t-27.5 -40.5t-10 -49v-317q0 -26 -18.5 -44.5t-44.5 -18.5zM350 832q10 -6 22 -6q10 0 17 7t7 17q0 9 -7 21l-45 70q-10 14 -29 14q-20 0 -34.5 -14.5t-14.5 -34.5q0 -19 14 -29z" />
    <glyph glyph-name="Uacute" unicode="&#xda;" horiz-adv-x="729" 
d="M365 243q-26 0 -45 18.5t-19 44.5v317q0 26 -10 49t-27.5 40.5t-40.5 27.5t-50 10q-26 0 -49.5 -10t-40.5 -27.5t-27 -40.5t-10 -49v-317q0 -66 25 -124t68.5 -101.5t101.5 -68.5t124 -25t123.5 25t101 68.5t68.5 101.5t25 124v317q0 26 -10 49t-27.5 40.5t-40.5 27.5
t-49 10t-49.5 -10t-41 -27.5t-27.5 -40.5t-10 -49v-317q0 -26 -18.5 -44.5t-44.5 -18.5zM387 832l70 45q14 10 14 29q0 20 -14.5 34.5t-34.5 14.5q-19 0 -29 -14l-45 -70q-7 -12 -7 -21q0 -10 7 -17t17 -7q11 0 22 6z" />
    <glyph glyph-name="Ucircumflex" unicode="&#xdb;" horiz-adv-x="729" 
d="M365 243q-26 0 -45 18.5t-19 44.5v317q0 26 -10 49t-27.5 40.5t-40.5 27.5t-50 10q-26 0 -49.5 -10t-40.5 -27.5t-27 -40.5t-10 -49v-317q0 -66 25 -124t68.5 -101.5t101.5 -68.5t124 -25t123.5 25t101 68.5t68.5 101.5t25 124v317q0 26 -10 49t-27.5 40.5t-40.5 27.5
t-49 10t-49.5 -10t-41 -27.5t-27.5 -40.5t-10 -49v-317q0 -26 -18.5 -44.5t-44.5 -18.5zM363 875l42 -42q8 -8 20 -8q11 0 19.5 8.5t8.5 19.5q0 12 -8 20l-61 61q-10 10 -21 10t-21 -10l-61 -61q-8 -8 -8 -20q0 -11 8.5 -19.5t19.5 -8.5q12 0 20 8z" />
    <glyph glyph-name="Udieresis" unicode="&#xdc;" horiz-adv-x="729" 
d="M365 243q-26 0 -45 18.5t-19 44.5v317q0 26 -10 49t-27.5 40.5t-40.5 27.5t-50 10q-26 0 -49.5 -10t-40.5 -27.5t-27 -40.5t-10 -49v-317q0 -66 25 -124t68.5 -101.5t101.5 -68.5t124 -25t123.5 25t101 68.5t68.5 101.5t25 124v317q0 26 -10 49t-27.5 40.5t-40.5 27.5
t-49 10t-49.5 -10t-41 -27.5t-27.5 -40.5t-10 -49v-317q0 -26 -18.5 -44.5t-44.5 -18.5zM236 882q0 -24 17 -41t41 -17t41 17t17 41t-17 41t-41 17t-41 -17t-17 -41zM376 882q0 -24 17 -41t41 -17t41 17t17 41t-17 41t-41 17t-41 -17t-17 -41z" />
    <glyph glyph-name="Yacute" unicode="&#xdd;" horiz-adv-x="652" 
d="M618 555q22 32 22 71q0 25 -10 48t-26.5 39.5t-39.5 26.5t-48 10q-29 0 -55.5 -13t-44.5 -39l-90 -128l-89 128q-18 26 -45 39t-56 13q-26 0 -48.5 -10t-39 -26.5t-26.5 -39.5t-10 -48q0 -18 5.5 -36t16.5 -34l165 -236v-192q0 -27 10 -50t27 -40.5t40.5 -27.5t49.5 -10
t49.5 10t41 27.5t27.5 40.5t10 50v192zM355 829l98 63q11 7 15.5 18t4.5 23q0 25 -18.5 46.5t-49.5 21.5q-11 0 -22 -4.5t-18 -15.5l-63 -98q-10 -17 -10 -30q0 -16 10.5 -25t22.5 -9q15 0 30 10z" />
    <glyph glyph-name="Thorn" unicode="&#xde;" horiz-adv-x="647" 
d="M299 107h59q56 0 105 21t85.5 57.5t57.5 85t21 104.5t-21 105t-57.5 85.5t-85.5 57.5t-105 21h-59q-8 46 -43 76t-83 30q-26 0 -49.5 -10t-40.5 -27.5t-27 -40.5t-10 -50v-494q0 -27 10 -50t27 -40.5t40.5 -27.5t49.5 -10q24 0 45.5 8t38 22.5t28 34t14.5 42.5zM335 413
q15 0 26 -11t11 -26q0 -16 -11 -27t-26 -11h-34v75h34z" />
    <glyph glyph-name="germandbls" unicode="&#xdf;" horiz-adv-x="911" 
d="M417 550q11 0 19 -8t8 -19q0 -5 -1 -8q-16 -36 -16 -82q0 -66 36 -107.5t96 -63.5l51 -19q20 -8 38.5 -17.5t18.5 -25.5q0 -23 -25 -23q-22 0 -35.5 10.5t-27 23.5t-32 23.5t-49.5 10.5q-17 0 -33.5 -5.5t-29.5 -17.5t-20.5 -30.5t-7.5 -43.5q0 -39 20 -68.5t52.5 -49.5
t72.5 -30.5t81 -10.5q49 0 95 12.5t80.5 38.5t55.5 66t21 95q0 78 -36.5 120.5t-99.5 65.5l-65 24q-23 8 -39 18t-16 21q0 6 5 11q29 23 45.5 56t16.5 71q0 33 -13 62.5t-35 51.5t-51.5 35t-62.5 13h-306q-45 0 -75.5 -30.5t-30.5 -75.5v-69q-21 0 -40 -8t-32.5 -21.5
t-21.5 -31.5t-8 -39t8 -39t21.5 -31.5t32.5 -21.5t40 -8v-269q0 -22 8.5 -41t23 -33.5t34 -23t41.5 -8.5t41 8.5t33.5 23t23 33.5t8.5 41v362q0 34 24 58t58 24z" />
    <glyph glyph-name="agrave" unicode="&#xe0;" 
d="M332 213q-42 0 -71 29t-29 71t29 71t71 29t71 -29t29 -71t-29 -71t-71 -29zM539 0q22 0 41 8.5t33.5 23t23 33.5t8.5 41v413q0 22 -8.5 41t-23 33.5t-33.5 23t-41 8.5q-26 0 -47 -11t-34 -26q-26 17 -57 27t-69 10q-64 0 -121 -24.5t-99.5 -67t-67 -99.5t-24.5 -121
q0 -65 24.5 -122t67 -99.5t99.5 -67t121 -24.5q38 0 68.5 9.5t57.5 27.5q12 -14 33.5 -25.5t47.5 -11.5zM335 707q10 -6 22 -6q10 0 17 7t7 17q0 9 -7 21l-45 70q-10 14 -29 14q-20 0 -34.5 -14.5t-14.5 -34.5q0 -19 14 -29z" />
    <glyph glyph-name="aacute" unicode="&#xe1;" 
d="M332 213q-42 0 -71 29t-29 71t29 71t71 29t71 -29t29 -71t-29 -71t-71 -29zM539 0q22 0 41 8.5t33.5 23t23 33.5t8.5 41v413q0 22 -8.5 41t-23 33.5t-33.5 23t-41 8.5q-26 0 -47 -11t-34 -26q-26 17 -57 27t-69 10q-64 0 -121 -24.5t-99.5 -67t-67 -99.5t-24.5 -121
q0 -65 24.5 -122t67 -99.5t99.5 -67t121 -24.5q38 0 68.5 9.5t57.5 27.5q12 -14 33.5 -25.5t47.5 -11.5zM346 707l70 45q14 10 14 29q0 20 -14.5 34.5t-34.5 14.5q-19 0 -29 -14l-45 -70q-7 -12 -7 -21q0 -10 7 -17t17 -7q11 0 22 6z" />
    <glyph glyph-name="acircumflex" unicode="&#xe2;" 
d="M332 213q-42 0 -71 29t-29 71t29 71t71 29t71 -29t29 -71t-29 -71t-71 -29zM539 0q22 0 41 8.5t33.5 23t23 33.5t8.5 41v413q0 22 -8.5 41t-23 33.5t-33.5 23t-41 8.5q-26 0 -47 -11t-34 -26q-26 17 -57 27t-69 10q-64 0 -121 -24.5t-99.5 -67t-67 -99.5t-24.5 -121
q0 -65 24.5 -122t67 -99.5t99.5 -67t121 -24.5q38 0 68.5 9.5t57.5 27.5q12 -14 33.5 -25.5t47.5 -11.5zM332 750l42 -42q8 -8 20 -8q11 0 19.5 8.5t8.5 19.5q0 12 -8 20l-61 61q-10 10 -21 10t-21 -10l-61 -61q-8 -8 -8 -20q0 -11 8.5 -19.5t19.5 -8.5q12 0 20 8z" />
    <glyph glyph-name="atilde" unicode="&#xe3;" 
d="M288 775q8 0 13.5 -5.5t5.5 -13.5q0 -31 21.5 -53t53.5 -22q31 0 53 22t22 53q0 16 -9 23.5t-20 7.5q-10 0 -19 -7.5t-9 -23.5q0 -8 -5 -13t-13 -5t-13.5 5t-5.5 13q0 32 -22 53.5t-53 21.5q-32 0 -53.5 -21.5t-21.5 -53.5q0 -15 8.5 -23t18.5 -8q11 0 20 8t9 23
q0 19 19 19zM332 213q-42 0 -71 29t-29 71t29 71t71 29t71 -29t29 -71t-29 -71t-71 -29zM539 0q22 0 41 8.5t33.5 23t23 33.5t8.5 41v413q0 22 -8.5 41t-23 33.5t-33.5 23t-41 8.5q-26 0 -47 -11t-34 -26q-26 17 -57 27t-69 10q-64 0 -121 -24.5t-99.5 -67t-67 -99.5
t-24.5 -121q0 -65 24.5 -122t67 -99.5t99.5 -67t121 -24.5q38 0 68.5 9.5t57.5 27.5q12 -14 33.5 -25.5t47.5 -11.5z" />
    <glyph glyph-name="adieresis" unicode="&#xe4;" 
d="M332 213q-42 0 -71 29t-29 71t29 71t71 29t71 -29t29 -71t-29 -71t-71 -29zM539 0q22 0 41 8.5t33.5 23t23 33.5t8.5 41v413q0 22 -8.5 41t-23 33.5t-33.5 23t-41 8.5q-26 0 -47 -11t-34 -26q-26 17 -57 27t-69 10q-64 0 -121 -24.5t-99.5 -67t-67 -99.5t-24.5 -121
q0 -65 24.5 -122t67 -99.5t99.5 -67t121 -24.5q38 0 68.5 9.5t57.5 27.5q12 -14 33.5 -25.5t47.5 -11.5zM212 758q0 -24 17 -41t41 -17t41 17t17 41t-17 41t-41 17t-41 -17t-17 -41zM352 758q0 -24 17 -41t41 -17t41 17t17 41t-17 41t-41 17t-41 -17t-17 -41z" />
    <glyph glyph-name="aring" unicode="&#xe5;" 
d="M258 775q0 -31 22 -53t53 -22t53 22t22 53q0 32 -22 53.5t-53 21.5t-53 -21.5t-22 -53.5zM333 745q-13 0 -21.5 9t-8.5 21q0 13 8.5 21.5t21.5 8.5q12 0 21 -8.5t9 -21.5q0 -12 -9 -21t-21 -9zM332 213q-42 0 -71 29t-29 71t29 71t71 29t71 -29t29 -71t-29 -71t-71 -29z
M539 0q22 0 41 8.5t33.5 23t23 33.5t8.5 41v413q0 22 -8.5 41t-23 33.5t-33.5 23t-41 8.5q-26 0 -47 -11t-34 -26q-26 17 -57 27t-69 10q-64 0 -121 -24.5t-99.5 -67t-67 -99.5t-24.5 -121q0 -65 24.5 -122t67 -99.5t99.5 -67t121 -24.5q38 0 68.5 9.5t57.5 27.5
q12 -14 33.5 -25.5t47.5 -11.5z" />
    <glyph glyph-name="ae" unicode="&#xe6;" horiz-adv-x="1039" 
d="M332 213q-42 0 -71 29t-29 71t29 71t71 29t71 -29t29 -71t-29 -71t-71 -29zM645 313q0 19 8 38t22 34t33.5 24.5t42.5 9.5q9 0 23 -2t14 -7q0 -1 -3 -4l-134 -99q-2 -2 -4 1t-2 5zM751 -6q75 0 133.5 25t104.5 71q16 16 23 34t7 37q0 27 -11.5 48t-29 36t-37.5 22.5
t-38 7.5q-20 0 -40 -8.5t-37 -28.5q-11 -13 -31 -22.5t-44 -9.5q-11 0 -18 1.5t-17 5.5l264 195q30 23 30 55q0 28 -21.5 58t-57 54.5t-82.5 40t-98 15.5q-40 0 -79 -9.5t-62 -23.5q-16 14 -34.5 20.5t-36.5 6.5q-26 0 -47 -11t-34 -26q-26 17 -57 27t-69 10
q-64 0 -121 -24.5t-99.5 -67t-67 -99.5t-24.5 -121q0 -65 24.5 -122t67 -99.5t99.5 -67t121 -24.5q38 0 68.5 9.5t57.5 27.5q12 -14 33.5 -25.5t47.5 -11.5q22 0 39.5 8t30.5 20q38 -19 73 -26.5t69 -7.5z" />
    <glyph glyph-name="ccedilla" unicode="&#xe7;" horiz-adv-x="627" 
d="M282 -1v-43q0 -8 -5.5 -13.5t-13.5 -5.5h-56q-23 0 -39.5 -16.5t-16.5 -39.5t16.5 -39.5t39.5 -16.5h57q27 0 51 10.5t41.5 28t28 41.5t10.5 51v42q56 8 100.5 31.5t80.5 60.5q31 31 31 71q0 27 -11.5 48t-29 36t-37.5 22.5t-38 7.5q-28 0 -44.5 -11t-31 -23.5
t-31.5 -23.5t-45 -11q-22 0 -41.5 8.5t-34 23t-23 34t-8.5 41.5t8.5 41t23 33.5t34 23t41.5 8.5q29 0 45.5 -11t31 -23.5t30.5 -23.5t45 -11q25 0 46.5 11t37 27.5t24 37t8.5 39.5q0 18 -7.5 36t-23.5 34q-45 46 -103.5 71t-133.5 25q-66 0 -124 -25t-101.5 -68.5
t-68.5 -101t-25 -123.5q0 -59 20.5 -112t56 -95t83.5 -70t102 -37z" />
    <glyph glyph-name="egrave" unicode="&#xe8;" horiz-adv-x="627" 
d="M232 313q0 19 8 38t22 34t34 24.5t43 9.5q9 0 23 -2t14 -7q0 -1 -3 -4l-134 -99q-2 -2 -4.5 1t-2.5 5zM567 408q30 23 30 55q0 28 -21 58t-57 54.5t-82.5 40t-97.5 15.5q-66 0 -124 -25t-101.5 -68.5t-68.5 -101t-25 -123.5t25 -124t68.5 -101.5t101.5 -68.5t124 -25
q75 0 133.5 25t103.5 71q31 31 31 71q0 24 -10 44.5t-26.5 36t-36.5 24.5t-41 9q-31 0 -48 -11t-30.5 -23.5t-29.5 -23.5t-46 -11q-11 0 -18.5 1.5t-16.5 5.5zM335 707q10 -6 22 -6q10 0 17 7t7 17q0 9 -7 21l-45 70q-10 14 -29 14q-20 0 -34.5 -14.5t-14.5 -34.5
q0 -19 14 -29z" />
    <glyph glyph-name="eacute" unicode="&#xe9;" horiz-adv-x="627" 
d="M232 313q0 19 8 38t22 34t34 24.5t43 9.5q9 0 23 -2t14 -7q0 -1 -3 -4l-134 -99q-2 -2 -4.5 1t-2.5 5zM567 408q30 23 30 55q0 28 -21 58t-57 54.5t-82.5 40t-97.5 15.5q-66 0 -124 -25t-101.5 -68.5t-68.5 -101t-25 -123.5t25 -124t68.5 -101.5t101.5 -68.5t124 -25
q75 0 133.5 25t103.5 71q31 31 31 71q0 24 -10 44.5t-26.5 36t-36.5 24.5t-41 9q-31 0 -48 -11t-30.5 -23.5t-29.5 -23.5t-46 -11q-11 0 -18.5 1.5t-16.5 5.5zM346 707l70 45q14 10 14 29q0 20 -14.5 34.5t-34.5 14.5q-19 0 -29 -14l-45 -70q-7 -12 -7 -21q0 -10 7 -17
t17 -7q11 0 22 6z" />
    <glyph glyph-name="ecircumflex" unicode="&#xea;" horiz-adv-x="627" 
d="M232 313q0 19 8 38t22 34t34 24.5t43 9.5q9 0 23 -2t14 -7q0 -1 -3 -4l-134 -99q-2 -2 -4.5 1t-2.5 5zM567 408q30 23 30 55q0 28 -21 58t-57 54.5t-82.5 40t-97.5 15.5q-66 0 -124 -25t-101.5 -68.5t-68.5 -101t-25 -123.5t25 -124t68.5 -101.5t101.5 -68.5t124 -25
q75 0 133.5 25t103.5 71q31 31 31 71q0 24 -10 44.5t-26.5 36t-36.5 24.5t-41 9q-31 0 -48 -11t-30.5 -23.5t-29.5 -23.5t-46 -11q-11 0 -18.5 1.5t-16.5 5.5zM338 750l42 -42q8 -8 20 -8q11 0 19.5 8.5t8.5 19.5q0 12 -8 20l-61 61q-10 10 -21 10t-21 -10l-61 -61
q-8 -8 -8 -20q0 -11 8.5 -19.5t19.5 -8.5q12 0 20 8z" />
    <glyph glyph-name="edieresis" unicode="&#xeb;" horiz-adv-x="627" 
d="M232 313q0 19 8 38t22 34t34 24.5t43 9.5q9 0 23 -2t14 -7q0 -1 -3 -4l-134 -99q-2 -2 -4.5 1t-2.5 5zM567 408q30 23 30 55q0 28 -21 58t-57 54.5t-82.5 40t-97.5 15.5q-66 0 -124 -25t-101.5 -68.5t-68.5 -101t-25 -123.5t25 -124t68.5 -101.5t101.5 -68.5t124 -25
q75 0 133.5 25t103.5 71q31 31 31 71q0 24 -10 44.5t-26.5 36t-36.5 24.5t-41 9q-31 0 -48 -11t-30.5 -23.5t-29.5 -23.5t-46 -11q-11 0 -18.5 1.5t-16.5 5.5zM210 758q0 -24 17 -41t41 -17t41 17t17 41t-17 41t-41 17t-41 -17t-17 -41zM350 758q0 -24 17 -41t41 -17t41 17
t17 41t-17 41t-41 17t-41 -17t-17 -41z" />
    <glyph glyph-name="igrave" unicode="&#xec;" horiz-adv-x="290" 
d="M251 519q0 22 -8.5 41t-22.5 33.5t-33.5 23t-41.5 8.5t-41 -8.5t-33.5 -23t-23 -33.5t-8.5 -41v-413q0 -22 8.5 -41t23 -33.5t33.5 -23t41 -8.5t41.5 8.5t33.5 23t22.5 33.5t8.5 41v413zM135 707q10 -6 22 -6q10 0 17 7t7 17q0 9 -7 21l-45 70q-10 14 -29 14
q-20 0 -34.5 -14.5t-14.5 -34.5q0 -19 14 -29z" />
    <glyph glyph-name="iacute" unicode="&#xed;" horiz-adv-x="290" 
d="M251 519q0 22 -8.5 41t-22.5 33.5t-33.5 23t-41.5 8.5t-41 -8.5t-33.5 -23t-23 -33.5t-8.5 -41v-413q0 -22 8.5 -41t23 -33.5t33.5 -23t41 -8.5t41.5 8.5t33.5 23t22.5 33.5t8.5 41v413zM172 707l70 45q14 10 14 29q0 20 -14.5 34.5t-34.5 14.5q-19 0 -29 -14l-45 -70
q-7 -12 -7 -21q0 -10 7 -17t17 -7q11 0 22 6z" />
    <glyph glyph-name="icircumflex" unicode="&#xee;" horiz-adv-x="290" 
d="M251 519q0 22 -8.5 41t-22.5 33.5t-33.5 23t-41.5 8.5t-41 -8.5t-33.5 -23t-23 -33.5t-8.5 -41v-413q0 -22 8.5 -41t23 -33.5t33.5 -23t41 -8.5t41.5 8.5t33.5 23t22.5 33.5t8.5 41v413zM150 750l42 -42q8 -8 20 -8q11 0 19.5 8.5t8.5 19.5q0 12 -8 20l-61 61
q-10 10 -21 10t-21 -10l-61 -61q-8 -8 -8 -20q0 -11 8.5 -19.5t19.5 -8.5q12 0 20 8z" />
    <glyph glyph-name="idieresis" unicode="&#xef;" horiz-adv-x="290" 
d="M251 519q0 22 -8.5 41t-22.5 33.5t-33.5 23t-41.5 8.5t-41 -8.5t-33.5 -23t-23 -33.5t-8.5 -41v-413q0 -22 8.5 -41t23 -33.5t33.5 -23t41 -8.5t41.5 8.5t33.5 23t22.5 33.5t8.5 41v413zM17 758q0 -24 17 -41t41 -17t41 17t17 41t-17 41t-41 17t-41 -17t-17 -41zM157 758
q0 -24 17 -41t41 -17t41 17t17 41t-17 41t-41 17t-41 -17t-17 -41z" />
    <glyph glyph-name="eth" unicode="&#xf0;" horiz-adv-x="665" 
d="M332 213q-42 0 -71 29t-29 71t29 71t71 29t71 -29t29 -71t-29 -71t-71 -29zM645 313q0 172 -66.5 274.5t-188.5 145.5l30 30h-37l-22 -22q-79 22 -184 22q47 -3 88 -14t76 -28l-38 -39h36l26 26q40 -23 66 -53t37 -62q-39 17 -71.5 24.5t-64.5 7.5q-65 0 -121.5 -24.5
t-99 -67t-67 -99.5t-24.5 -121q0 -65 24.5 -122t67 -99.5t99 -67t121.5 -24.5t122 24.5t99.5 67t67 99.5t24.5 122z" />
    <glyph glyph-name="ntilde" unicode="&#xf1;" horiz-adv-x="653" 
d="M282 775q8 0 13.5 -5.5t5.5 -13.5q0 -31 21.5 -53t53.5 -22q31 0 53 22t22 53q0 16 -9 23.5t-20 7.5q-10 0 -19 -7.5t-9 -23.5q0 -8 -5 -13t-13 -5t-13.5 5t-5.5 13q0 32 -22 53.5t-53 21.5q-32 0 -53.5 -21.5t-21.5 -53.5q0 -15 8.5 -23t18.5 -8q11 0 20 8t9 23
q0 19 19 19zM39 106q0 -22 8.5 -41t22.5 -33.5t33.5 -23t41.5 -8.5t41 8.5t33.5 23t23 33.5t8.5 41v232q0 31 22 53t53 22t53.5 -22t22.5 -53v-232q0 -22 8.5 -41t23 -33.5t33.5 -23t41 -8.5t41.5 8.5t33.5 23t22.5 33.5t8.5 41v232q0 59 -22.5 111.5t-61.5 91.5t-91.5 61.5
t-112.5 22.5q-59 0 -111.5 -22.5t-91.5 -61.5t-61.5 -91.5t-22.5 -111.5v-232z" />
    <glyph glyph-name="ograve" unicode="&#xf2;" horiz-adv-x="665" 
d="M332 213q-42 0 -71 29t-29 71t29 71t71 29t71 -29t29 -71t-29 -71t-71 -29zM645 313q0 64 -24.5 121t-67 99.5t-99.5 67t-122 24.5t-121.5 -24.5t-99 -67t-67 -99.5t-24.5 -121q0 -65 24.5 -122t67 -99.5t99 -67t121.5 -24.5t122 24.5t99.5 67t67 99.5t24.5 122zM325 707
q10 -6 22 -6q10 0 17 7t7 17q0 9 -7 21l-45 70q-10 14 -29 14q-20 0 -34.5 -14.5t-14.5 -34.5q0 -19 14 -29z" />
    <glyph glyph-name="oacute" unicode="&#xf3;" horiz-adv-x="665" 
d="M332 213q-42 0 -71 29t-29 71t29 71t71 29t71 -29t29 -71t-29 -71t-71 -29zM645 313q0 64 -24.5 121t-67 99.5t-99.5 67t-122 24.5t-121.5 -24.5t-99 -67t-67 -99.5t-24.5 -121q0 -65 24.5 -122t67 -99.5t99 -67t121.5 -24.5t122 24.5t99.5 67t67 99.5t24.5 122zM346 707
l70 45q14 10 14 29q0 20 -14.5 34.5t-34.5 14.5q-19 0 -29 -14l-45 -70q-7 -12 -7 -21q0 -10 7 -17t17 -7q11 0 22 6z" />
    <glyph glyph-name="ocircumflex" unicode="&#xf4;" horiz-adv-x="665" 
d="M332 213q-42 0 -71 29t-29 71t29 71t71 29t71 -29t29 -71t-29 -71t-71 -29zM645 313q0 64 -24.5 121t-67 99.5t-99.5 67t-122 24.5t-121.5 -24.5t-99 -67t-67 -99.5t-24.5 -121q0 -65 24.5 -122t67 -99.5t99 -67t121.5 -24.5t122 24.5t99.5 67t67 99.5t24.5 122zM332 750
l42 -42q8 -8 20 -8q11 0 19.5 8.5t8.5 19.5q0 12 -8 20l-61 61q-10 10 -21 10t-21 -10l-61 -61q-8 -8 -8 -20q0 -11 8.5 -19.5t19.5 -8.5q12 0 20 8z" />
    <glyph glyph-name="otilde" unicode="&#xf5;" horiz-adv-x="665" 
d="M332 213q-42 0 -71 29t-29 71t29 71t71 29t71 -29t29 -71t-29 -71t-71 -29zM645 313q0 64 -24.5 121t-67 99.5t-99.5 67t-122 24.5t-121.5 -24.5t-99 -67t-67 -99.5t-24.5 -121q0 -65 24.5 -122t67 -99.5t99 -67t121.5 -24.5t122 24.5t99.5 67t67 99.5t24.5 122zM286 778
q8 0 13.5 -5.5t5.5 -13.5q0 -31 21.5 -53t53.5 -22q31 0 53 22t22 53q0 16 -9 23.5t-20 7.5q-10 0 -19 -7.5t-9 -23.5q0 -8 -5 -13t-13 -5t-13.5 5t-5.5 13q0 32 -22 53.5t-53 21.5q-32 0 -53.5 -21.5t-21.5 -53.5q0 -15 8.5 -23t18.5 -8q11 0 20 8t9 23q0 19 19 19z" />
    <glyph glyph-name="odieresis" unicode="&#xf6;" horiz-adv-x="665" 
d="M332 213q-42 0 -71 29t-29 71t29 71t71 29t71 -29t29 -71t-29 -71t-71 -29zM645 313q0 64 -24.5 121t-67 99.5t-99.5 67t-122 24.5t-121.5 -24.5t-99 -67t-67 -99.5t-24.5 -121q0 -65 24.5 -122t67 -99.5t99 -67t121.5 -24.5t122 24.5t99.5 67t67 99.5t24.5 122zM204 758
q0 -24 17 -41t41 -17t41 17t17 41t-17 41t-41 17t-41 -17t-17 -41zM344 758q0 -24 17 -41t41 -17t41 17t17 41t-17 41t-41 17t-41 -17t-17 -41z" />
    <glyph glyph-name="oslash" unicode="&#xf8;" horiz-adv-x="665" 
d="M232 313q0 21 8 39t21.5 31.5t32 21.5t38.5 8q6 0 10 -0.5t9 -1.5l-117 -117q-1 5 -1.5 9t-0.5 10zM314 214l117 117q1 -5 1 -9v-9q0 -42 -29 -71t-71 -29h-9t-9 1zM332 0q65 0 122 24.5t99.5 67t67 99.5t24.5 122q0 54 -16.5 99t-39.5 78l40 39q16 16 16 40
q0 23 -16.5 39.5t-39.5 16.5q-11 0 -21.5 -4t-18.5 -12l-39 -40q-34 23 -78.5 39.5t-99.5 16.5q-65 0 -121.5 -24.5t-99 -67t-67 -99.5t-24.5 -121q0 -55 16.5 -99.5t39.5 -78.5l-40 -39q-8 -8 -12 -18.5t-4 -21.5q0 -23 16.5 -39.5t39.5 -16.5q24 0 40 16l39 40
q34 -23 78.5 -39.5t98.5 -16.5z" />
    <glyph glyph-name="ugrave" unicode="&#xf9;" horiz-adv-x="653" 
d="M308 707q10 -6 20.5 -7t18.5 7t7 18.5t-7 20.5l-45 70q-11 15 -30.5 14t-33.5 -14q-13 -14 -14.5 -33.5t14.5 -30.5zM39 519v-232q0 -59 22.5 -111.5t61.5 -91.5t91.5 -61.5t111.5 -22.5q60 0 112.5 22.5t91.5 61.5t61.5 91.5t22.5 111.5v232q0 22 -8.5 41t-22.5 33.5
t-33.5 23t-41.5 8.5t-41 -8.5t-33.5 -23t-23 -33.5t-8.5 -41v-232q0 -31 -22.5 -53t-53.5 -22t-53 22t-22 53v232q0 22 -8.5 41t-23 33.5t-33.5 23t-41 8.5t-41.5 -8.5t-33.5 -23t-22.5 -33.5t-8.5 -41z" />
    <glyph glyph-name="uacute" unicode="&#xfa;" horiz-adv-x="653" 
d="M39 519v-232q0 -59 22.5 -111.5t61.5 -91.5t91.5 -61.5t111.5 -22.5q60 0 112.5 22.5t91.5 61.5t61.5 91.5t22.5 111.5v232q0 22 -8.5 41t-22.5 33.5t-33.5 23t-41.5 8.5t-41 -8.5t-33.5 -23t-23 -33.5t-8.5 -41v-232q0 -31 -22.5 -53t-53.5 -22t-53 22t-22 53v232
q0 22 -8.5 41t-23 33.5t-33.5 23t-41 8.5t-41.5 -8.5t-33.5 -23t-22.5 -33.5t-8.5 -41zM346 707l70 45q14 10 14 29q0 20 -14.5 34.5t-34.5 14.5q-19 0 -29 -14l-45 -70q-7 -12 -7 -21q0 -10 7 -17t17 -7q11 0 22 6z" />
    <glyph glyph-name="ucircumflex" unicode="&#xfb;" horiz-adv-x="653" 
d="M39 519v-232q0 -59 22.5 -111.5t61.5 -91.5t91.5 -61.5t111.5 -22.5q60 0 112.5 22.5t91.5 61.5t61.5 91.5t22.5 111.5v232q0 22 -8.5 41t-22.5 33.5t-33.5 23t-41.5 8.5t-41 -8.5t-33.5 -23t-23 -33.5t-8.5 -41v-232q0 -31 -22.5 -53t-53.5 -22t-53 22t-22 53v232
q0 22 -8.5 41t-23 33.5t-33.5 23t-41 8.5t-41.5 -8.5t-33.5 -23t-22.5 -33.5t-8.5 -41zM324 750l42 -42q8 -8 20 -8q11 0 19.5 8.5t8.5 19.5q0 12 -8 20l-61 61q-10 10 -21 10t-21 -10l-61 -61q-8 -8 -8 -20q0 -11 8.5 -19.5t19.5 -8.5q12 0 20 8z" />
    <glyph glyph-name="udieresis" unicode="&#xfc;" horiz-adv-x="653" 
d="M39 519v-232q0 -59 22.5 -111.5t61.5 -91.5t91.5 -61.5t111.5 -22.5q60 0 112.5 22.5t91.5 61.5t61.5 91.5t22.5 111.5v232q0 22 -8.5 41t-22.5 33.5t-33.5 23t-41.5 8.5t-41 -8.5t-33.5 -23t-23 -33.5t-8.5 -41v-232q0 -31 -22.5 -53t-53.5 -22t-53 22t-22 53v232
q0 22 -8.5 41t-23 33.5t-33.5 23t-41 8.5t-41.5 -8.5t-33.5 -23t-22.5 -33.5t-8.5 -41zM198 758q0 -24 17 -41t41 -17t41 17t17 41t-17 41t-41 17t-41 -17t-17 -41zM338 758q0 -24 17 -41t41 -17t41 17t17 41t-17 41t-41 17t-41 -17t-17 -41z" />
    <glyph glyph-name="yacute" unicode="&#xfd;" horiz-adv-x="720" 
d="M251 -18q-9 -19 -21.5 -25.5t-28.5 -6.5q-20 0 -38.5 -8t-32 -21.5t-21.5 -31.5t-8 -39q0 -42 29 -71t71 -29h25q41 0 73.5 13t56 31.5t39 39.5t23.5 38l280 601q9 21 9 44q0 22 -8.5 42t-23 34.5t-34.5 23t-42 8.5q-30 0 -55.5 -16.5t-38.5 -45.5l-145 -331l-145 331
q-13 29 -38.5 45.5t-55.5 16.5q-23 0 -42.5 -8.5t-34 -23t-23 -34.5t-8.5 -42q0 -23 9 -44zM376 674l79 51q8 5 12 14t4 18q0 20 -15 37.5t-40 17.5q-20 0 -32 -16l-50 -79q-8 -13 -8 -24q0 -12 8.5 -19.5t17.5 -7.5q13 0 24 8z" />
    <glyph glyph-name="thorn" unicode="&#xfe;" horiz-adv-x="691" 
d="M258 313q0 42 29 71t71 29t71 -29t29 -71t-29 -71t-71 -29t-71 29t-29 71zM46 657v-705q0 -22 8.5 -41t22.5 -33.5t33.5 -23t41.5 -8.5t41 8.5t33.5 23t23 33.5t8.5 41v65q20 -7 45.5 -12t54.5 -5q64 0 121 24.5t99.5 67t67.5 99.5t25 122q0 64 -25 121t-67.5 99.5
t-99.5 67t-121 24.5q-29 0 -53.5 -4t-46.5 -12v48q0 22 -8.5 41t-23 33.5t-33.5 23t-41 8.5t-41.5 -8.5t-33.5 -23t-22.5 -33.5t-8.5 -41z" />
    <glyph glyph-name="ydieresis" unicode="&#xff;" horiz-adv-x="720" 
d="M251 -18q-9 -19 -21.5 -25.5t-28.5 -6.5q-20 0 -38.5 -8t-32 -21.5t-21.5 -31.5t-8 -39q0 -42 29 -71t71 -29h25q41 0 73.5 13t56 31.5t39 39.5t23.5 38l280 601q9 21 9 44q0 22 -8.5 42t-23 34.5t-34.5 23t-42 8.5q-30 0 -55.5 -16.5t-38.5 -45.5l-145 -331l-145 331
q-13 29 -38.5 45.5t-55.5 16.5q-23 0 -42.5 -8.5t-34 -23t-23 -34.5t-8.5 -42q0 -23 9 -44zM226 758q0 -24 17 -41t41 -17t41 17t17 41t-17 41t-41 17t-41 -17t-17 -41zM366 758q0 -24 17 -41t41 -17t41 17t17 41t-17 41t-41 17t-41 -17t-17 -41z" />
    <glyph glyph-name="OE" unicode="&#x152;" horiz-adv-x="1090" 
d="M270 375q0 30 11.5 56.5t31 46t46 31t56.5 11.5t56.5 -11.5t46 -31t31 -46t11.5 -56.5t-11.5 -56.5t-31 -46t-46 -31t-56.5 -11.5t-56.5 11.5t-46 31t-31 46t-11.5 56.5zM598 38q14 -15 37 -26.5t53 -11.5h267q24 0 45 9t36.5 24.5t24.5 36.5t9 45t-9 44.5t-24.5 36.5
t-36.5 25t-45 9h-140v58h108q36 0 61.5 25.5t25.5 61.5t-25.5 62t-61.5 26h-108v57h140q24 0 45 9t36.5 25t24.5 36.5t9 44.5t-9 45t-24.5 36.5t-36.5 24.5t-45 9h-267q-35 0 -57 -13.5t-33 -24.5q-37 21 -85 36t-105 15q-80 0 -151 -30.5t-123.5 -83t-83 -123.5t-30.5 -151
t30.5 -151t83 -123.5t123.5 -83t151 -30.5q57 0 104 14.5t86 36.5z" />
    <glyph glyph-name="oe" unicode="&#x153;" horiz-adv-x="1028" 
d="M332 213q-42 0 -71 29t-29 71t29 71t71 29t71 -29t29 -71t-29 -71t-71 -29zM641 312q0 19 7.5 38t21.5 33.5t33 23.5t42 9q9 0 22.5 -1.5t13.5 -6.5q0 -3 -3 -4l-131 -97q-2 -2 -4 0.5t-2 4.5zM745 0q74 0 131 24.5t102 69.5q16 15 23 33t7 36q0 25 -11 46t-28 36t-37 23
t-38 8q-43 0 -76 -37q-11 -13 -30.5 -22t-42.5 -9q-11 0 -18 1.5t-16 5.5l258 191q16 11 23 25t7 29q0 27 -21 56.5t-56 53.5t-81 39.5t-96 15.5q-38 0 -71 -8.5t-60 -20.5t-46.5 -26t-28.5 -24q-38 33 -90 56t-117 23t-121.5 -24.5t-99 -67t-67 -99.5t-24.5 -121
q0 -65 24.5 -121.5t66.5 -99.5t99 -67.5t122 -24.5t116.5 22.5t89.5 56.5q49 -42 101.5 -60.5t105.5 -18.5z" />
    <glyph glyph-name="Scaron" unicode="&#x160;" horiz-adv-x="630" 
d="M603 241q0 47 -11.5 82.5t-32.5 62t-51.5 45.5t-68.5 33l-77 29q-27 10 -47 21.5t-20 25.5q0 11 10.5 16t21.5 5q15 0 28.5 -6.5t25.5 -15t23.5 -18t21.5 -15.5q19 -11 46 -11q19 0 38.5 6t35.5 18.5t26.5 32t10.5 47.5q0 36 -19.5 66t-53.5 51.5t-80 34t-100 12.5
q-59 0 -109.5 -16t-87.5 -47t-58.5 -76.5t-21.5 -103.5q0 -79 43.5 -129t115.5 -77l61 -23l24 -10t22 -11t16.5 -13.5t6.5 -17.5q0 -13 -8.5 -19.5t-21.5 -6.5q-14 0 -23.5 2.5t-19 8.5t-20 15.5t-25.5 23.5q-17 16 -40 24t-46 8q-21 0 -40.5 -7t-34.5 -21t-24.5 -36
t-9.5 -53q0 -47 24 -82.5t62.5 -59.5t87 -36.5t97.5 -12.5q59 0 114 15t97 46t67 79t25 114zM176 969q0 -31 11.5 -58.5t32 -47.5t47.5 -32t58 -12t58.5 12t47.5 32t32 47.5t12 58.5t-17.5 46t-38.5 15t-38.5 -15t-17.5 -46q0 -16 -11 -27t-27 -11t-26.5 11t-10.5 27
q0 31 -17.5 46t-38.5 15t-38.5 -15t-17.5 -46z" />
    <glyph glyph-name="scaron" unicode="&#x161;" horiz-adv-x="529" 
d="M503 201q0 78 -36.5 120.5t-99.5 65.5l-65 24q-23 8 -39 18t-16 21q0 9 8.5 13.5t17.5 4.5q19 0 32 -8.5t25.5 -19t27 -19t37.5 -8.5q15 0 31.5 5t29.5 15.5t21.5 26.5t8.5 39q0 30 -16 55t-44.5 43t-66.5 28.5t-83 10.5q-49 0 -91 -13.5t-73 -39.5t-49 -63.5t-18 -86.5
q0 -66 36 -107.5t96 -63.5l51 -19q20 -8 38.5 -17.5t18.5 -25.5q0 -23 -25 -23q-22 0 -35.5 10.5t-27 23.5t-32 23.5t-49.5 10.5q-17 0 -33.5 -5.5t-29.5 -17.5t-20.5 -30.5t-7.5 -43.5q0 -39 20 -68.5t52.5 -49.5t72.5 -30.5t81 -10.5q49 0 95 12.5t80.5 38.5t55.5 66
t21 95zM163 786q0 -25 9.5 -46.5t25.5 -38t37.5 -26t46.5 -9.5t46.5 9.5t38 26t26 38t9.5 46.5t-14 37t-31 12t-31 -12t-14 -37q0 -13 -8.5 -21.5t-21.5 -8.5t-21.5 8.5t-8.5 21.5q0 25 -14 37t-31 12q-16 0 -30 -12t-14 -37z" />
    <glyph glyph-name="Ydieresis" unicode="&#x178;" horiz-adv-x="652" 
d="M618 555q22 32 22 71q0 25 -10 48t-26.5 39.5t-39.5 26.5t-48 10q-29 0 -55.5 -13t-44.5 -39l-90 -128l-89 128q-18 26 -45 39t-56 13q-26 0 -48.5 -10t-39 -26.5t-26.5 -39.5t-10 -48q0 -18 5.5 -36t16.5 -34l165 -236v-192q0 -27 10 -50t27 -40.5t40.5 -27.5t49.5 -10
t49.5 10t41 27.5t27.5 40.5t10 50v192zM199 882q0 -24 17 -41t41 -17t41 17t17 41t-17 41t-41 17t-41 -17t-17 -41zM339 882q0 -24 17 -41t41 -17t41 17t17 41t-17 41t-41 17t-41 -17t-17 -41z" />
    <glyph glyph-name="florin" unicode="&#x192;" horiz-adv-x="842" 
d="M46 750v-750h750v750h-750z" />
    <glyph glyph-name="circumflex" unicode="&#x2c6;" horiz-adv-x="400" 
d="M200 763q-13 0 -22.5 -5t-19.5 -15l-122 -122q-8 -8 -12 -19.5t-4 -22.5q0 -23 16 -39t39 -16t40 17l85 84l85 -84q17 -17 40 -17t39 16t16 39q0 11 -4 22.5t-12 19.5l-122 122q-10 10 -19.5 15t-22.5 5z" />
    <glyph glyph-name="tilde" unicode="&#x2dc;" horiz-adv-x="527" 
d="M170 650q15 0 26 -11t11 -26q0 -31 12 -58.5t32 -47.5t47.5 -32t58.5 -12t58.5 12t47.5 32t32 47.5t12 58.5t-17.5 46t-38.5 15t-38.5 -15t-17.5 -46q0 -16 -11 -27t-27 -11t-26.5 11t-10.5 27q0 31 -12 58t-32.5 47.5t-47.5 32.5t-58 12t-58.5 -12t-47.5 -32.5
t-32 -47.5t-12 -58t17.5 -46.5t38.5 -15.5t38.5 15.5t17.5 46.5q0 15 11 26t27 11z" />
    <glyph glyph-name="endash" unicode="&#x2013;" horiz-adv-x="540" 
d="M470 325q20 0 35 15t15 35q0 21 -15 35.5t-35 14.5h-400q-21 0 -35.5 -14.5t-14.5 -35.5q0 -20 14.5 -35t35.5 -15h400z" />
    <glyph glyph-name="emdash" unicode="&#x2014;" horiz-adv-x="1040" 
d="M970 325q20 0 35 15t15 35q0 21 -15 35.5t-35 14.5h-900q-21 0 -35.5 -14.5t-14.5 -35.5q0 -20 14.5 -35t35.5 -15h900z" />
    <glyph glyph-name="quoteleft" unicode="&#x2018;" horiz-adv-x="282" 
d="M20 540q0 -25 9.5 -47t26 -38.5t38.5 -26t47 -9.5t47 9.5t38.5 26t26 38.5t9.5 47q0 38 -19 66t-48 42l11 27q5 13 5 24q0 26 -19 45t-45 19q-19 0 -35 -10t-24 -29l-59 -137q-5 -13 -7 -23t-2 -24z" />
    <glyph glyph-name="quoteright" unicode="&#x2019;" horiz-adv-x="282" 
d="M262 642q0 25 -9.5 47t-26 38.5t-38.5 26t-47 9.5t-47 -9.5t-38.5 -26t-26 -38.5t-9.5 -47q0 -38 19 -66t48 -42l-11 -27q-5 -13 -5 -24q0 -26 19 -45t45 -19q19 0 35 10t24 29l59 137q5 13 7 23t2 24z" />
    <glyph glyph-name="quotesinglbase" unicode="&#x201a;" horiz-adv-x="282" 
d="M262 109q0 25 -9.5 47t-26 38.5t-38.5 26t-47 9.5t-47 -9.5t-38.5 -26t-26 -38.5t-9.5 -47q0 -38 19 -66t48 -42l-11 -27q-5 -13 -5 -24q0 -26 19 -45t45 -19q19 0 35 10t24 29l59 137q5 13 7 23t2 24z" />
    <glyph glyph-name="quotedblleft" unicode="&#x201c;" horiz-adv-x="549" 
d="M20 540q0 -25 9.5 -47t26 -38.5t38.5 -26t47 -9.5t47 9.5t38.5 26t26 38.5t9.5 47q0 38 -19 66t-48 42l11 27q5 13 5 24q0 26 -19 45t-45 19q-19 0 -35 -10t-24 -29l-59 -137q-5 -13 -7 -23t-2 -24zM287 540q0 -25 9.5 -47t26 -38.5t38.5 -26t47 -9.5t47 9.5t38.5 26
t26 38.5t9.5 47q0 38 -19 66t-48 42l11 27q5 13 5 24q0 26 -19 45t-45 19q-19 0 -35 -10t-24 -29l-59 -137q-5 -13 -7 -23t-2 -24z" />
    <glyph glyph-name="quotedblright" unicode="&#x201d;" horiz-adv-x="549" 
d="M262 642q0 25 -9.5 47t-26 38.5t-38.5 26t-47 9.5t-47 -9.5t-38.5 -26t-26 -38.5t-9.5 -47q0 -38 19 -66t48 -42l-11 -27q-5 -13 -5 -24q0 -26 19 -45t45 -19q19 0 35 10t24 29l59 137q5 13 7 23t2 24zM529 642q0 25 -9.5 47t-26 38.5t-38.5 26t-47 9.5t-47 -9.5
t-38.5 -26t-26 -38.5t-9.5 -47q0 -38 19 -66t48 -42l-11 -27q-5 -13 -5 -24q0 -26 19 -45t45 -19q19 0 35 10t24 29l59 137q5 13 7 23t2 24z" />
    <glyph glyph-name="quotedblbase" unicode="&#x201e;" horiz-adv-x="282" 
d="M262 109q0 25 -9.5 47t-26 38.5t-38.5 26t-47 9.5t-47 -9.5t-38.5 -26t-26 -38.5t-9.5 -47q0 -38 19 -66t48 -42l-11 -27q-5 -13 -5 -24q0 -26 19 -45t45 -19q19 0 35 10t24 29l59 137q5 13 7 23t2 24zM530 109q0 25 -9.5 47t-26 38.5t-38.5 26t-47 9.5t-47 -9.5
t-38.5 -26t-26 -38.5t-9.5 -47q0 -38 19 -66t48 -42l-11 -27q-5 -13 -5 -24q0 -26 19 -45t45 -19q19 0 35 10t24 29l59 137q5 13 7 23t2 24z" />
    <glyph glyph-name="dagger" unicode="&#x2020;" horiz-adv-x="490" 
d="M320 450h75q31 0 53 22t22 53t-22 53t-53 22h-75v75q0 31 -22 53t-53 22q-32 0 -53.5 -22t-21.5 -53v-75h-75q-32 0 -53.5 -22t-21.5 -53t21.5 -53t53.5 -22h75v-300q0 -31 21.5 -53t53.5 -22q31 0 53 22t22 53v300z" />
    <glyph glyph-name="daggerdbl" unicode="&#x2021;" horiz-adv-x="490" 
d="M170 300h-75q-32 0 -53.5 -22t-21.5 -53t21.5 -53t53.5 -22h75v-75q0 -31 21.5 -53t53.5 -22q31 0 53 22t22 53v75h75q31 0 53 22t22 53t-22 53t-53 22h-75v150h75q31 0 53 22t22 53t-22 53t-53 22h-75v75q0 31 -22 53t-53 22q-32 0 -53.5 -22t-21.5 -53v-75h-75
q-32 0 -53.5 -22t-21.5 -53t21.5 -53t53.5 -22h75v-150z" />
    <glyph glyph-name="bullet" unicode="&#x2022;" horiz-adv-x="330" 
d="M165 230q30 0 56.5 11.5t46 31t31 46t11.5 56.5t-11.5 56.5t-31 46t-46 31t-56.5 11.5t-56.5 -11.5t-46 -31t-31 -46t-11.5 -56.5t11.5 -56.5t31 -46t46 -31t56.5 -11.5z" />
    <glyph glyph-name="ellipsis" unicode="&#x2026;" horiz-adv-x="780" 
d="M135 230q-24 0 -45 -9t-36.5 -24.5t-24.5 -36.5t-9 -45t9 -45t24.5 -36.5t36.5 -24.5t45 -9t45 9t36.5 24.5t24.5 36.5t9 45t-9 45t-24.5 36.5t-36.5 24.5t-45 9zM390 230q-24 0 -45 -9t-36.5 -24.5t-24.5 -36.5t-9 -45t9 -45t24.5 -36.5t36.5 -24.5t45 -9t45 9
t36.5 24.5t24.5 36.5t9 45t-9 45t-24.5 36.5t-36.5 24.5t-45 9zM645 230q-24 0 -45 -9t-36.5 -24.5t-24.5 -36.5t-9 -45t9 -45t24.5 -36.5t36.5 -24.5t45 -9t45 9t36.5 24.5t24.5 36.5t9 45t-9 45t-24.5 36.5t-36.5 24.5t-45 9z" />
    <glyph glyph-name="perthousand" unicode="&#x2030;" horiz-adv-x="1482" 
d="M214 763q-40 0 -75.5 -15.5t-61.5 -41.5t-41.5 -61.5t-15.5 -75.5t15.5 -75.5t41.5 -61.5t61.5 -41.5t75.5 -15.5t75.5 15.5t61.5 41.5t41.5 61.5t15.5 75.5t-15.5 75.5t-41.5 61.5t-61.5 41.5t-75.5 15.5zM214 613q18 0 31 -13t13 -31t-13 -31t-31 -13t-31 13t-13 31
t13 31t31 13zM846 375q-40 0 -75.5 -15.5t-61.5 -41.5t-41.5 -61.5t-15.5 -75.5t15.5 -75.5t41.5 -61.5t61.5 -41.5t75.5 -15.5t75.5 15.5t61.5 41.5t41.5 61.5t15.5 75.5t-15.5 75.5t-41.5 61.5t-61.5 41.5t-75.5 15.5zM846 225q18 0 31 -13t13 -31t-13 -31t-31 -13t-31 13
t-13 31t13 31t31 13zM509 17l275 621q10 21 10 47q0 24 -9 45t-24.5 36.5t-36.5 24.5t-45 9q-33 0 -62 -18t-43 -50l-275 -621q-5 -11 -7 -23.5t-2 -23.5q0 -24 9 -45t24.5 -36.5t36.5 -24.5t45 -9q32 0 61 18t43 50zM1268 375q-40 0 -75.5 -15.5t-61.5 -41.5t-41.5 -61.5
t-15.5 -75.5t15.5 -75.5t41.5 -61.5t61.5 -41.5t75.5 -15.5t75.5 15.5t61.5 41.5t41.5 61.5t15.5 75.5t-15.5 75.5t-41.5 61.5t-61.5 41.5t-75.5 15.5zM1268 225q18 0 31 -13t13 -31t-13 -31t-31 -13t-31 13t-13 31t13 31t31 13z" />
    <glyph glyph-name="guilsinglleft" unicode="&#x2039;" horiz-adv-x="337" 
d="M12 375q0 -31 25 -56l151 -151q11 -11 25.5 -16.5t28.5 -5.5q31 0 53 22t22 53q0 32 -22 54l-100 100l100 100q22 22 22 54q0 31 -22 53t-53 22q-14 0 -28.5 -5.5t-25.5 -16.5l-151 -151q-25 -25 -25 -56z" />
    <glyph glyph-name="guilsinglright" unicode="&#x203a;" horiz-adv-x="337" 
d="M325 375q0 31 -25 56l-151 151q-11 11 -25.5 16.5t-28.5 5.5q-31 0 -53 -22t-22 -53q0 -32 22 -54l100 -100l-100 -100q-22 -22 -22 -54q0 -31 22 -53t53 -22q14 0 28.5 5.5t25.5 16.5l151 151q25 25 25 56z" />
    <glyph glyph-name="trademark" unicode="&#x2122;" horiz-adv-x="1161" 
d="M340 581h54q35 0 60 25t25 60q0 17 -6.5 32.5t-18 27t-27 18t-33.5 6.5h-297q-35 0 -59.5 -24.5t-24.5 -59.5q0 -18 6.5 -33.5t18 -27t27 -18t32.5 -6.5h56v-288q0 -19 7.5 -36t20 -29.5t29.5 -20t37 -7.5q19 0 36 7.5t29.5 20t20 29.5t7.5 36v288zM914 357l16 -83
q6 -33 32 -54t59 -21q17 0 33.5 6.5t30 18t22 28.5t8.5 38q0 5 -0.5 9t-1.5 9l-67 367q-6 34 -31.5 54.5t-60.5 20.5q-59 0 -84 -52l-88 -183l-87 183q-25 52 -84 52q-35 0 -60.5 -20.5t-31.5 -54.5l-68 -367q-1 -5 -1.5 -9t-0.5 -9q0 -20 8 -37t21.5 -29t30.5 -18.5
t34 -6.5q33 0 59.5 21t32.5 54l15 83l51 -106q24 -51 81 -51q58 0 82 51z" />
    <glyph glyph-name="minus" unicode="&#xe000;" horiz-adv-x="440" 
d="M345 300q31 0 53 22t22 53t-22 53t-53 22h-250q-32 0 -53.5 -22t-21.5 -53t21.5 -53t53.5 -22h250z" />
    <glyph glyph-name="partialdiff" unicode="&#xe001;" horiz-adv-x="1180" 
d="M276 284v371q0 19 -7.5 36.5t-20.5 30.5t-30.5 20.5t-36.5 7.5h-66q-20 0 -37 -7.5t-30 -20.5t-20.5 -30.5t-7.5 -36.5q0 -29 19 -50.5t47 -26.5v-294q0 -20 7.5 -37.5t20.5 -30.5t30 -20.5t37 -7.5q19 0 36.5 7.5t30.5 20.5t20.5 30.5t7.5 37.5zM434 34l339 587
q7 11 9.5 23t2.5 24q0 19 -7.5 36.5t-20 30.5t-30 20.5t-36.5 7.5q-25 0 -47 -12t-35 -35l-340 -587q-13 -22 -13 -47q0 -20 7.5 -37t20.5 -30t30 -20.5t37 -7.5q25 0 47.5 12t35.5 35zM920 367q6 8 11 15.5t17 7.5t17 -6.5t5 -16.5q0 -12 -10 -17.5t-22.5 -11.5t-22.5 -17
t-10 -34q0 -24 10.5 -36t23 -20t23 -14.5t10.5 -18.5q0 -14 -6 -18.5t-16 -4.5q-11 0 -18 8.5t-16 22.5q-25 34 -72 34q-39 0 -68 -23.5t-29 -68.5q0 -29 15 -57.5t42.5 -52t65 -38t82.5 -14.5q42 0 79.5 15.5t66 42.5t45.5 62.5t17 75.5q0 44 -14 68.5t-36 47.5
q22 19 31 45.5t9 49.5q0 31 -13 62.5t-38 56.5t-61 40.5t-82 15.5q-53 0 -91.5 -13.5t-64 -35.5t-38 -48.5t-12.5 -51.5q0 -22 9 -38.5t22.5 -28t30.5 -17t32 -5.5q26 0 45 10t31 27z" />
    <glyph glyph-name="summation" unicode="&#xe002;" horiz-adv-x="1220" 
d="M276 284v371q0 19 -7.5 36.5t-20.5 30.5t-30.5 20.5t-36.5 7.5h-66q-20 0 -37 -7.5t-30 -20.5t-20.5 -30.5t-7.5 -36.5q0 -29 19 -50.5t47 -26.5v-294q0 -20 7.5 -37.5t20.5 -30.5t30 -20.5t37 -7.5q19 0 36.5 7.5t30.5 20.5t20.5 30.5t7.5 37.5zM434 34l339 587
q7 11 9.5 23t2.5 24q0 19 -7.5 36.5t-20 30.5t-30 20.5t-36.5 7.5q-25 0 -47 -12t-35 -35l-340 -587q-13 -22 -13 -47q0 -20 7.5 -37t20.5 -30t30 -20.5t37 -7.5q25 0 47.5 12t35.5 35zM1114 467q0 20 -7.5 37.5t-20.5 30t-30.5 20t-36.5 7.5h-123q-29 0 -47.5 -11
t-32.5 -34l-98 -173q-8 -15 -12 -31t-4 -39v-66q0 -36 25 -61t61 -25h135v-26q0 -20 7.5 -37.5t20.5 -30.5t30 -20.5t37 -7.5q40 0 68 28t28 68v26q18 0 33.5 6.5t27 18.5t18.5 27.5t7 33.5t-7 34t-18.5 27.5t-27 18.5t-33.5 7v172zM887 295l36 65v-65h-36z" />
    <glyph glyph-name="product" unicode="&#xe003;" horiz-adv-x="1359" 
d="M613 34l339 587q7 11 9.5 23t2.5 24q0 19 -7.5 36.5t-20 30.5t-30 20.5t-36.5 7.5q-25 0 -47 -12t-35 -35l-340 -587q-13 -22 -13 -47q0 -20 7.5 -37t20.5 -30t30 -20.5t37 -7.5q25 0 47.5 12t35.5 35zM1099 367q6 8 11 15.5t17 7.5t17 -6.5t5 -16.5q0 -12 -10 -17.5
t-22.5 -11.5t-22.5 -17t-10 -34q0 -24 10.5 -36t23 -20t23 -14.5t10.5 -18.5q0 -14 -6 -18.5t-16 -4.5q-11 0 -18 8.5t-16 22.5q-25 34 -72 34q-39 0 -68 -23.5t-29 -68.5q0 -29 15 -57.5t42.5 -52t65 -38t82.5 -14.5q42 0 79.5 15.5t66 42.5t45.5 62.5t17 75.5
q0 44 -14 68.5t-36 47.5q22 19 31 45.5t9 49.5q0 31 -13 62.5t-38 56.5t-61 40.5t-82 15.5q-53 0 -91.5 -13.5t-64 -35.5t-38 -48.5t-12.5 -51.5q0 -22 9 -38.5t22.5 -28t30.5 -17t32 -5.5q26 0 45 10t31 27zM356 191q36 0 61.5 25t25.5 61t-25.5 61t-61.5 25h-26l56 60
q29 32 41.5 63t12.5 73q0 43 -17 80t-46 64.5t-67 43.5t-81 16q-50 0 -88.5 -14.5t-64.5 -37.5t-39.5 -50.5t-13.5 -53.5q0 -40 28 -67t68 -27q25 0 45.5 12t31.5 29q6 10 11.5 18.5t16.5 8.5q10 0 16 -7t6 -17q0 -7 -2.5 -11t-6.5 -9l-189 -196q-14 -15 -21 -29.5t-7 -34.5
q0 -36 25 -61t61 -25h250z" />
    <glyph glyph-name="pi" unicode="&#xe004;" horiz-adv-x="1343" 
d="M557 34l339 587q7 11 9.5 23t2.5 24q0 19 -7.5 36.5t-20 30.5t-30 20.5t-36.5 7.5q-25 0 -47 -12t-35 -35l-340 -587q-13 -22 -13 -47q0 -20 7.5 -37t20.5 -30t30 -20.5t37 -7.5q25 0 47.5 12t35.5 35zM1237 467q0 20 -7.5 37.5t-20.5 30t-30.5 20t-36.5 7.5h-123
q-29 0 -47.5 -11t-32.5 -34l-98 -173q-8 -15 -12 -31t-4 -39v-66q0 -36 25 -61t61 -25h135v-26q0 -20 7.5 -37.5t20.5 -30.5t30 -20.5t37 -7.5q40 0 68 28t28 68v26q18 0 33.5 6.5t27 18.5t18.5 27.5t7 33.5t-7 34t-18.5 27.5t-27 18.5t-33.5 7v172zM1010 295l36 65v-65h-36
zM193 562q6 8 11 15.5t17 7.5t17 -6.5t5 -16.5q0 -12 -10 -17.5t-22.5 -11.5t-22.5 -17t-10 -34q0 -24 10.5 -36t23 -20t23 -14.5t10.5 -18.5q0 -14 -6 -18.5t-16 -4.5q-11 0 -18 8.5t-16 22.5q-25 34 -72 34q-39 0 -68 -23.5t-29 -68.5q0 -29 15 -57.5t42.5 -52t65 -38
t82.5 -14.5q42 0 79.5 15.5t66 42.5t45.5 62.5t17 75.5q0 44 -14 68.5t-36 47.5q22 19 31 45.5t9 49.5q0 31 -13 62.5t-38 56.5t-61 40.5t-82 15.5q-53 0 -91.5 -13.5t-64 -35.5t-38 -48.5t-12.5 -51.5q0 -22 9 -38.5t22.5 -28t30.5 -17t32 -5.5q26 0 45 10t31 27z" />
    <glyph glyph-name="integral" unicode="&#xe005;" horiz-adv-x="842" 
d="M46 750v-750h750v750h-750zM76 720h689v-690h-689v690z" />
    <glyph glyph-name="radical" unicode="&#xe006;" horiz-adv-x="898" 
d="M12 432v-155l277 -277l597 597v153l-597 -597z" />
    <glyph glyph-name="approxequal" unicode="&#xe007;" horiz-adv-x="804" 
d="M477 300h-150v150h150v-150zM177 525q-31 0 -53 22t-22 53t22 53t53 22t53 -22t22 -53v-75h-75zM252 300h-75q-31 0 -58.5 -12t-47.5 -32t-32 -47.5t-12 -58.5t12 -59t32 -48.5t47.5 -32.5t58.5 -10q31 1 58.5 13t47.5 32t32 47t12 58v75h150v-75q0 -31 12 -58.5
t32 -47.5t47.5 -32t58.5 -12t58.5 12t47.5 32t32 47.5t12 58.5t-12 58.5t-32 47.5t-47.5 32t-58.5 12h-75v150h75q31 0 58.5 12t47.5 32t32 47.5t12 58.5t-12 58.5t-32 47.5t-47.5 32t-58.5 12t-58.5 -12t-47.5 -32t-32 -47.5t-12 -58.5v-75h-150v75q0 31 -12 58.5t-32 47.5
t-47.5 32t-58.5 12t-58.5 -12t-47.5 -32t-32 -47.5t-12 -58.5q0 -32 12 -59t33 -47.5t49 -32t59 -11.5h72v-150zM252 150q0 -31 -22 -53t-53 -22t-53 22t-22 53t22 53t53 22h75v-75zM627 225q31 0 53 -22t22 -53t-22 -53t-53 -22t-53 22t-22 53v75h75zM552 600q0 31 22 53
t53 22t53 -22t22 -53t-22 -53t-53 -22h-75v75z" />
    <glyph glyph-name="Delta" unicode="&#xe008;" horiz-adv-x="1179" 
d="M276 284v371q0 19 -7.5 36.5t-20.5 30.5t-30.5 20.5t-36.5 7.5h-66q-20 0 -37 -7.5t-30 -20.5t-20.5 -30.5t-7.5 -36.5q0 -29 19 -50.5t47 -26.5v-294q0 -20 7.5 -37.5t20.5 -30.5t30 -20.5t37 -7.5q19 0 36.5 7.5t30.5 20.5t20.5 30.5t7.5 37.5zM434 34l339 587
q7 11 9.5 23t2.5 24q0 19 -7.5 36.5t-20 30.5t-30 20.5t-36.5 7.5q-25 0 -47 -12t-35 -35l-340 -587q-13 -22 -13 -47q0 -20 7.5 -37t20.5 -30t30 -20.5t37 -7.5q25 0 47.5 12t35.5 35zM1072 0q36 0 61.5 25t25.5 61t-25.5 61t-61.5 25h-26l56 60q29 32 41.5 63t12.5 73
q0 43 -17 80t-46 64.5t-67 43.5t-81 16q-50 0 -88.5 -14.5t-64.5 -37.5t-39.5 -50.5t-13.5 -53.5q0 -40 28 -67t68 -27q25 0 45.5 12t31.5 29q6 10 11.5 18.5t16.5 8.5q10 0 16 -7t6 -17q0 -7 -2.5 -11t-6.5 -9l-189 -196q-14 -15 -21 -29.5t-7 -34.5q0 -36 25 -61t61 -25
h250z" />
    <glyph glyph-name="nonbreakingspace" unicode="&#xe009;" horiz-adv-x="250" 
 />
    <glyph glyph-name="lozenge" unicode="&#xe00a;" horiz-adv-x="774" 
d="M387 0l375 375l-375 375l-375 -375zM74 375l313 313l312 -313l-312 -312z" />
    </font>
</defs>
</svg>
