<?xml version="1.0" standalone="no"?>
<!DOCTYPE svg PUBLIC "-//W3C//DTD SVG 1.1//EN" "http://www.w3.org/Graphics/SVG/1.1/DTD/svg11.dtd" >
<svg xmlns="http://www.w3.org/2000/svg" xmlns:xlink="http://www.w3.org/1999/xlink" version="1.1">
<metadata>
Created by FontForge 20170731 at Mon Apr 29 21:49:36 2013
 By Aleksey,,,
Copyright 2013 Adobe Systems Incorporated. All rights reserved.
</metadata>
<defs>
<font id="Quarca-ConMedIt" horiz-adv-x="412" >
  <font-face 
    font-family="Quarca Cond Medium Italic"
    font-weight="600"
    font-style="italic"
    font-stretch="condensed"
    units-per-em="1000"
    panose-1="0 0 0 0 0 0 0 0 0 0"
    ascent="760"
    descent="-240"
    x-height="505"
    cap-height="710"
    bbox="-93 -250 872.6 964"
    underline-thickness="50"
    underline-position="-200"
    unicode-range="U+0020-FB06"
  />
<missing-glyph horiz-adv-x="400" 
 />
    <glyph glyph-name="ff" unicode="ff" horiz-adv-x="512" 
d="M558 642q-38 0 -50 -58l-17 -79h90l-35 -98h-76l-86 -407h-98l86 407h-144l-86 -407h-98l86 407h-75l35 98h61l11 52q16 74 54.5 107t116.5 33h68l-44 -98h-51q-38 0 -49 -57l-8 -37h144l20 95q15 74 54.5 107t116.5 33h68l-43 -98h-51z" />
    <glyph glyph-name="fi" unicode="fi" horiz-adv-x="460" 
d="M315 642q-37 0 -49 -58l-17 -79h242l-107 -505h-98l86 407h-144l-86 -407h-98l86 407h-75l35 98h61l20 95q15 74 54 107t117 33h68l-44 -98h-51zM409 607l25 121h110l-25 -121h-110z" />
    <glyph glyph-name="fl" unicode="fl" horiz-adv-x="479" 
d="M436 94h14l-14 -99h-49q-103 0 -77 118l62 294h-144l-86 -407h-98l86 407h-75l35 98h61l20 95q15 74 54 107t117 33h68l-44 -98h-51q-37 0 -49 -58l-17 -79h144l45 214l87 21h16l-127 -597q-10 -49 22 -49z" />
    <glyph glyph-name="ffi" unicode="ffi" horiz-adv-x="702" 
d="M200 273l-58 -273h-98l29 137h-1l57 270h-74l35 98h60l13 60q15 70 51.5 101t110.5 31h125q37 53 130 53h183l-44 -98h-159q-37 0 -49 -58l-19 -89h241l-107 -505h-97l86 407h-144l-46 -217h-1l-40 -190h-98l58 273h1l28 134h-146l-28 -134h1zM305 599q-38 0 -49 -57
l-8 -37h146l20 94h-109z" />
    <glyph glyph-name="ffl" unicode="ffl" horiz-adv-x="697" 
d="M200 273l-58 -273h-98l29 137h-1l57 270h-74l35 98h60l13 60q15 70 51.5 101t110.5 31h125q37 53 130 53h183l-44 -98h-159q-37 0 -49 -58l-19 -89h241l-107 -505h-97l86 407h-144l-46 -217h-1l-40 -190h-98l58 273h1l28 134h-146l-28 -134h1zM305 599q-38 0 -49 -57
l-8 -37h146l20 94h-109z" />
    <glyph glyph-name="f_f_j" unicode="ffj" horiz-adv-x="702" 
d="M200 273l-58 -273h-98l29 137h-1l57 270h-74l35 98h60l13 60q15 70 51.5 101t110.5 31h125q37 53 130 53h183l-44 -98h-159q-37 0 -49 -58l-19 -89h241l-107 -505h-97l86 407h-144l-46 -217h-1l-40 -190h-98l58 273h1l28 134h-146l-28 -134h1zM305 599q-38 0 -49 -57
l-8 -37h146l20 94h-109z" />
    <glyph glyph-name="f_j" unicode="fj" horiz-adv-x="460" 
d="M372 407h-144l-86 -407h-98l86 407h-75l35 98h61l20 95q15 74 54 107t117 33h68l-44 -98h-51q-37 0 -49 -58l-17 -79h242l-36 -170h2l-89 -417q-26 -120 -130 -120h-71l35 98h28q36 0 46 52l12 52h-2zM407 598l25 121h110l-25 -121h-110z" />
    <glyph glyph-name=".notdef" horiz-adv-x="400" 
 />
    <glyph glyph-name=".null" horiz-adv-x="0" 
 />
    <glyph glyph-name="nonmarkingreturn" horiz-adv-x="333" 
 />
    <glyph glyph-name="NULL" horiz-adv-x="666" 
 />
    <glyph glyph-name="NULL" horiz-adv-x="666" 
 />
    <glyph glyph-name="space" unicode=" " horiz-adv-x="146" 
 />
    <glyph glyph-name="exclam" unicode="!" horiz-adv-x="215" 
d="M149 183h-84l100 566l116 21h15zM16 -5l26 121h110l-26 -121h-110z" />
    <glyph glyph-name="quotedbl" unicode="&#x22;" horiz-adv-x="322" 
d="M137 720h131l-92 -226h-52zM291 720h131l-92 -226h-52z" />
    <glyph glyph-name="numbersign" unicode="#" horiz-adv-x="605" 
d="M-3 0l97 177h-74l36 98h99l70 134h-108l36 98h134l114 203h94l-113 -203h100l113 203h95l-114 -203h81l-35 -98h-107l-70 -134h115l-35 -98h-142l-97 -177h-94l97 177h-101l-96 -177h-95zM320 409l-70 -134h101l69 134h-100z" />
    <glyph glyph-name="dollar" unicode="$" horiz-adv-x="443" 
d="M209 -76l-89 -24l22 100h-22q-132 0 -102 125l20 93h104l-12 -56q-11 -56 26 -56h103q38 0 49 56l9 43q10 48 -22 68l-115 74q-26 17 -37.5 25.5t-24 22t-15.5 26t-3 31t5 44.5l19 88q14 64 44 95t81 31h43l17 76l88 21l-21 -97h16q134 0 103 -126l-18 -83h-105l10 46
q12 57 -26 57h-85q-40 0 -51 -58l-7 -29q-10 -51 23 -70l115 -75q4 -3 17.5 -12l16.5 -11t13.5 -9.5t12.5 -10t9 -10t7.5 -12t4 -12t3 -14.5t-1.5 -16.5t-3 -20.5l-25 -119q-26 -125 -125 -125h-54z" />
    <glyph glyph-name="percent" unicode="%" horiz-adv-x="602" 
d="M101 0l403 710h74l-404 -710h-73zM119 627q17 83 88 83h84q72 0 55 -83l-37 -173q-18 -84 -90 -84h-84q-71 0 -53 84zM259 643h-46q-25 0 -34 -37l-28 -132q-7 -37 18 -37h46q25 0 32 37l28 132q9 37 -16 37zM372 256q18 83 89 83h84q72 0 54 -83l-37 -173
q-18 -84 -90 -84h-84q-71 0 -53 84zM512 272h-47q-24 0 -32 -36l-29 -133q-7 -37 18 -37h47q24 0 31 37l29 133q7 36 -17 36z" />
    <glyph glyph-name="ampersand" unicode="&#x26;" horiz-adv-x="538" 
d="M381 604h-69q-45 0 -59 -65l-16 -75q-6 -27 1 -42t25 -15h314l-22 -105h-70l-36 -167q-28 -135 -149 -135h-177q-121 0 -93 135l26 122q7 34 32 64.5t59 33.5q-16 5 -21.5 33t0.5 48l30 139q28 135 149 135h103q76 0 104 -30.5t13 -104.5l-16 -74h-105l8 38q13 65 -31 65
zM174 106h120q44 0 58 65l28 131h-133q-76 0 -89 -60l-15 -71q-15 -65 31 -65z" />
    <glyph glyph-name="quotesingle" unicode="'" horiz-adv-x="168" 
d="M137 720h131l-92 -226h-52z" />
    <glyph glyph-name="parenleft" unicode="(" horiz-adv-x="229" 
d="M299 642h-16q-35 0 -47 -58l-122 -573q-13 -57 23 -57h22l-28 -99h-21q-66 0 -91 28.5t-10 97.5l135 634q15 69 52 97t105 28h26z" />
    <glyph glyph-name="parenright" unicode=")" horiz-adv-x="229" 
d="M148 642h-16l14 98h27q68 0 92.5 -28t9.5 -97l-135 -634q-15 -69 -50.5 -97.5t-101.5 -28.5h-22l14 99h22q34 0 47 57l122 573q12 58 -23 58z" />
    <glyph glyph-name="asterisk" unicode="*" horiz-adv-x="298" 
d="M234 721h64l-20 -91l62 48l33 -49l-84 -60l56 -58l-51 -51l-42 47l-20 -93h-64l21 95l-63 -48l-28 49l77 58l-57 60l54 49l42 -47z" />
    <glyph glyph-name="plus" unicode="+" horiz-adv-x="400" 
d="M34 243l38 106h114l31 148h105l-31 -148h129l-37 -106h-115l-32 -152h-105l32 152h-129z" />
    <glyph glyph-name="comma" unicode="," horiz-adv-x="179" 
d="M-16 -142h-15l55 259h108l-24 -114z" />
    <glyph glyph-name="hyphen" unicode="-" horiz-adv-x="359" 
d="M364 341l-36 -98h-280l35 98h281z" />
    <glyph glyph-name="period" unicode="." horiz-adv-x="181" 
d="M-2 -5l26 121h110l-26 -121h-110z" />
    <glyph glyph-name="slash" unicode="/" horiz-adv-x="366" 
d="M370 747h106l-400 -784h-106z" />
    <glyph glyph-name="zero" unicode="0" horiz-adv-x="501" 
d="M43 142l14 69h1l76 357q15 72 50 107t94 35h145q74 0 101 -35t12 -107l-90 -426q-31 -142 -144 -142h-145q-74 0 -102 35t-12 107zM394 604h-103q-45 0 -59 -65l-78 -368q-14 -65 31 -65h103q45 0 59 65l78 368q8 35 0.5 50t-31.5 15z" />
    <glyph glyph-name="one" unicode="1" horiz-adv-x="244" 
d="M46 0l109 515h1l15 73l-80 -51l24 115l95 58h91l-150 -710h-105z" />
    <glyph glyph-name="two" unicode="2" horiz-adv-x="435" 
d="M351 604h-73q-44 0 -58 -65l-8 -38h-106l14 67q30 142 144 142h115q74 0 101.5 -35t12.5 -107l-15 -74h-2l-6 -27q-12 -55 -45 -88t-96 -65l-146 -75q-40 -22 -52 -75l-12 -58h133q44 0 58 65l10 47h105l-16 -76q-16 -72 -50.5 -107t-94.5 -35h-272l39 186q12 57 45.5 91
t99.5 68l146 75q38 20 48 69l11 49h1v1q14 65 -31 65z" />
    <glyph glyph-name="three" unicode="3" horiz-adv-x="459" 
d="M161 106h96q45 0 59 65l4 20h-1l12 54q12 60 -28 60h-129l23 105h106q38 0 51 58l15 71q14 65 -30 65h-56q-45 0 -59 -65l-8 -38h-104l14 67q15 72 50 107t94 35h104q139 0 109 -135l-17 -81h-1l-12 -56q-15 -69 -55 -80q60 -7 42 -91l-10 -49h1l-16 -76
q-31 -142 -144 -142h-138q-74 0 -102 35t-12 107l14 69h105l-8 -40q-14 -65 31 -65z" />
    <glyph glyph-name="four" unicode="4" horiz-adv-x="458" 
d="M6 116l40 189q13 62 55 107l271 298h127l-305 -337q-36 -40 -46 -83l-14 -68h147l39 187l88 21h22l-44 -208h79l-37 -106h-65l-24 -116h-105l24 116h-252z" />
    <glyph glyph-name="five" unicode="5" horiz-adv-x="431" 
d="M239 604l-32 -152h140q114 0 86 -135l-21 -99h1l-16 -76q-31 -142 -144 -142h-135q-130 0 -99 142l16 76h105l-10 -47q-14 -64 28 -65h81q44 0 58 65l23 108q13 67 -27 67h-214l77 364h355l-37 -106h-235z" />
    <glyph glyph-name="six" unicode="6" horiz-adv-x="472" 
d="M465 307l-37 -174q-28 -133 -142 -133h-152q-122 0 -93 133l94 442q29 135 149 135h129q70 0 97 -32t12 -103l-16 -74h-106l8 38q14 65 -30 65h-88q-44 0 -58 -64l-22 -107h168q114 0 87 -126zM324 327h-137l-33 -157q-15 -64 30 -64h88q44 0 58 64l20 94q13 63 -26 63z
" />
    <glyph glyph-name="seven" unicode="7" horiz-adv-x="391" 
d="M111 604l22 106h361l-36 -171q-13 -61 -45 -106l-308 -433h-126l341 471q26 36 38 90l9 43h-256z" />
    <glyph glyph-name="eight" unicode="8" horiz-adv-x="488" 
d="M140 463l13 63h1l9 42q15 72 50 107t95 35h96q74 0 101 -35t12 -107l-22 -105q-9 -43 -20.5 -63.5t-36.5 -31.5q30 -12 38.5 -34t-1.5 -79l-8 -37h1l-16 -76q-31 -142 -144 -142h-146q-74 0 -101.5 35t-11.5 107l11 52h-1l13 61q11 53 31 77t55 36q-21 11 -24.5 33.5
t6.5 61.5zM341 315h-111q-40 0 -53 -60l-10 -44h1l-8 -40q-14 -65 31 -65h103q44 0 58 65l18 84q13 60 -29 60zM376 604h-55q-45 0 -59 -65l-8 -38h-1l-5 -23q-12 -58 30 -58h62q41 0 53 58l13 61q7 35 0 50t-30 15z" />
    <glyph glyph-name="nine" unicode="9" horiz-adv-x="464" 
d="M316 201l18 85h-171q-101 0 -74 127l29 135h1l4 20q15 72 50 107t95 35h120q74 0 101 -35t12 -107l-15 -74h-2l-59 -276h2l-16 -76q-31 -142 -144 -142h-121q-74 0 -101.5 35t-11.5 107l14 69h105l-8 -40q-14 -64 28 -65h81q45 0 59 65l6 30h-2zM359 604h-81
q-43 -3 -56 -65l-8 -38h-1l-9 -44q-15 -66 26 -66h127l25 120h2l6 28q14 65 -31 65z" />
    <glyph glyph-name="colon" unicode=":" horiz-adv-x="186" 
d="M0 -5l26 121h110l-26 -121h-110zM76 361l26 121h110l-26 -121h-110z" />
    <glyph glyph-name="semicolon" unicode=";" horiz-adv-x="189" 
d="M-11 -142h-15l55 259h108l-24 -114zM73 330l25 121h110l-25 -121h-110z" />
    <glyph glyph-name="less" unicode="&#x3c;" horiz-adv-x="311" 
d="M239 5l-198 276l11 50l315 276l-23 -108l-208 -193l126 -193z" />
    <glyph glyph-name="equal" unicode="=" horiz-adv-x="377" 
d="M328 267l-32 -88h-224l31 88h225zM357 400l-33 -87h-224l32 87h225z" />
    <glyph glyph-name="greater" unicode="&#x3e;" horiz-adv-x="310" 
d="M317 281l-314 -276l23 108l208 193l-126 193l23 108l197 -276z" />
    <glyph glyph-name="question" unicode="?" horiz-adv-x="411" 
d="M341 313l-41 -21q-40 -19 -49 -60l-19 -87h-105l25 118q11 49 34 73t61 42l54 27q22 11 32.5 23.5t14.5 35.5l18 82q6 32 0 45t-26 13h-86q-39 0 -50 -57l-13 -61h-105l21 98q27 126 141 126h143q114 0 87 -126l-28 -131q-13 -61 -36 -87.5t-73 -52.5zM93 -5l26 121h110
l-26 -121h-110z" />
    <glyph glyph-name="at" unicode="@" horiz-adv-x="613" 
d="M162 102h350l-34 -102h-337q-130 0 -100 137l91 430q28 136 158 136h280q127 0 99 -136l-60 -284q-22 -102 -115 -102h-45q-42 0 -56.5 11t-9.5 35q-19 -43 -60 -43h-33q-54 0 -72.5 22t-4.5 86l17 84q17 77 39.5 108.5t76.5 31.5h75q45 0 68.5 -20t11.5 -76l-28 -133
q-4 -15 9 -15h16q15 0 22 34l51 242q12 53 -24 53h-279q-35 0 -46 -53l-83 -392q-12 -54 23 -54zM325 272h23q22 0 30 9t15 40l13 61q5 26 0 36t-21 10h-28q-16 0 -24 -12t-14 -38l-11 -52q-7 -27 -4 -40.5t21 -13.5z" />
    <glyph glyph-name="A" unicode="A" horiz-adv-x="474" 
d="M298 710h106l35 -710h-110l-3 130h-195l-57 -130h-110zM318 549l-139 -313h145z" />
    <glyph glyph-name="B" unicode="B" horiz-adv-x="465" 
d="M8 0l150 710h216q148 0 117 -143l-20 -91q-19 -88 -65 -103q38 -2 50.5 -28.5t-0.5 -89.5l-24 -113q-31 -142 -146 -142h-278zM181 320l-46 -214h138q45 0 60 66l16 76q16 72 -30 72h-138zM241 604l-38 -179h110q42 0 57 65l10 48q14 66 -35 66h-104z" />
    <glyph glyph-name="C" unicode="C" horiz-adv-x="464" 
d="M177 106h97q44 0 58 65l10 47h105l-16 -76q-16 -72 -50.5 -107t-93.5 -35h-139q-74 0 -102 35t-12 107l14 69h1l76 357q15 72 50 107t95 35h139q73 0 100 -35t12 -107l-15 -74h-105l9 45q7 35 0 50t-30 15h-98q-44 0 -58 -65l-78 -368q-14 -65 31 -65z" />
    <glyph glyph-name="D" unicode="D" horiz-adv-x="494" 
d="M136 604l22 106h229q94 0 130 -42.5t16 -129.5l-78 -366q-19 -88 -64.5 -130t-124.5 -42h-258l22 106h1l106 498h-1zM361 229l59 278q10 50 -3 73.5t-51 23.5h-124l-106 -498h123q40 0 64 24.5t35 77.5l4 21h-1z" />
    <glyph glyph-name="E" unicode="E" 
d="M241 604l-54 -255h202l-38 -105h-187l-29 -138h248l-36 -106h-339l150 710h353l-36 -106h-234z" />
    <glyph glyph-name="F" unicode="F" horiz-adv-x="396" 
d="M241 604l-54 -255h192l-37 -105h-178l-51 -244h-105l150 710h346l-37 -106h-226z" />
    <glyph glyph-name="G" unicode="G" horiz-adv-x="478" 
d="M261 267l38 106h188l-51 -238q-27 -135 -135 -135h-161q-69 0 -95.5 32.5t-11.5 99.5l94 443q27 135 133 135h164q69 0 94.5 -32t11.5 -100l-16 -77h-104l8 39q14 64 -31 64h-105q-44 0 -58 -67l-78 -367q-14 -64 30 -64h104q45 0 58 62l21 99h-98z" />
    <glyph glyph-name="H" unicode="H" horiz-adv-x="489" 
d="M113 0h-105l150 710h105l-74 -349h192l74 349h105l-150 -710h-105l54 256h-192z" />
    <glyph glyph-name="I" unicode="I" horiz-adv-x="192" 
d="M113 0h-105l150 710h105z" />
    <glyph glyph-name="J" unicode="J" horiz-adv-x="306" 
d="M10 106h92q44 0 58 64l114 540h105l-119 -563q-31 -147 -152 -147h-134z" />
    <glyph glyph-name="K" unicode="K" horiz-adv-x="455" 
d="M113 0h-105l150 710h105l-69 -327l262 327h116l-285 -355l144 -355h-118l-131 327z" />
    <glyph glyph-name="L" unicode="L" horiz-adv-x="381" 
d="M263 710l-128 -604h230l-36 -106h-321l150 710h105z" />
    <glyph glyph-name="M" unicode="M" horiz-adv-x="562" 
d="M106 0h-98l150 710h107l58 -345l204 345h106l-150 -710h-98l98 464l-135 -220h-101l-42 225z" />
    <glyph glyph-name="N" unicode="N" horiz-adv-x="500" 
d="M113 0h-105l150 710h105l93 -454q4 -28 5 -42l105 496h105l-150 -710h-105l-89 433q-6 21 -8 66z" />
    <glyph glyph-name="O" unicode="O" horiz-adv-x="500" 
d="M34 142l14 69h1l76 357q15 72 50 107t95 35h162q73 0 100 -35t12 -107l-90 -426q-16 -72 -50.5 -107t-93.5 -35h-162q-74 0 -102 35t-12 107zM403 604h-121q-44 0 -58 -65l-78 -368q-14 -65 31 -65h120q44 0 58 65l78 368q7 35 0 50t-30 15z" />
    <glyph glyph-name="P" unicode="P" horiz-adv-x="453" 
d="M165 252l-11 -54h1l-42 -198h-105l150 710h235q151 0 120 -147l-36 -164q-31 -147 -151 -147h-161zM240 604l-53 -247h132q45 0 58 65l25 118q14 64 -30 64h-132z" />
    <glyph glyph-name="Q" unicode="Q" horiz-adv-x="499" 
d="M241 -107h-98l23 107h-18q-74 0 -102 35t-12 107l14 69h1l76 357q15 72 50 107t95 35h162q73 0 100 -35t12 -107l-15 -74h-2l-59 -276h2l-16 -76q-16 -72 -50.5 -107t-93.5 -35h-46zM177 106h11l18 84h98l-18 -84h11q44 0 58 65l6 30h-1l66 310h1l6 28q7 35 0 50t-30 15
h-121q-44 0 -58 -65l-78 -368q-14 -65 31 -65z" />
    <glyph glyph-name="R" unicode="R" horiz-adv-x="464" 
d="M8 0l150 710h248q139 0 109 -135l-42 -191q-27 -129 -128 -135l83 -249h-120l-83 249h-60l-52 -249h-105zM241 604l-53 -249h129q46 0 60 67l25 115q14 67 -32 67h-129z" />
    <glyph glyph-name="S" unicode="S" horiz-adv-x="444" 
d="M295 273l-115 74q-26 17 -37.5 25.5t-24 22t-15.5 26t-3 31t5 44.5l19 88q14 64 44 95t81 31h143q134 0 103 -126l-18 -83h-105l10 46q12 57 -26 57h-85q-40 0 -51 -58l-7 -29q-10 -51 23 -70l115 -75q4 -3 17.5 -12l16.5 -11t13.5 -9.5t12.5 -10t9 -10t7.5 -12t4 -12
t3 -14.5t-1.5 -16.5t-3 -20.5l-25 -119q-26 -125 -125 -125h-160q-132 0 -102 125l20 93h104l-12 -56q-11 -56 26 -56h103q38 0 49 56l9 43q10 48 -22 68z" />
    <glyph glyph-name="T" unicode="T" horiz-adv-x="402" 
d="M485 604h-139l-128 -604h-106l128 604h-139l22 106h384z" />
    <glyph glyph-name="U" unicode="U" horiz-adv-x="479" 
d="M272 106q24 0 38.5 16.5t22.5 53.5l113 534h105l-121 -572q-30 -138 -138 -138h-149q-139 0 -109 138l121 572h106l-113 -534q-16 -70 31 -70h93z" />
    <glyph glyph-name="V" unicode="V" horiz-adv-x="451" 
d="M243 0h-107l-12 710h112l-10 -515q-1 -24 -7 -56q9 38 16 56l209 515h112z" />
    <glyph glyph-name="W" unicode="W" horiz-adv-x="714" 
d="M240 0h-107l-9 710h106l-13 -507q-2 -51 -4 -62q16 47 21 61l187 508h100l-28 -508q-2 -46 -4 -59q6 22 20 58l203 509h107l-309 -710h-108l21 469q1 10 6.5 39.5t6.5 36.5q-15 -63 -20 -76z" />
    <glyph glyph-name="X" unicode="X" horiz-adv-x="423" 
d="M256 399l166 311h114l-198 -356l47 -354h-108l-36 295l-162 -295h-111l199 354l-51 356h103z" />
    <glyph glyph-name="Y" unicode="Y" horiz-adv-x="461" 
d="M248 0h-104l58 273l-90 437h106l48 -283q5 -49 5 -54q6 19 26 53l168 284h112l-271 -434z" />
    <glyph glyph-name="Z" unicode="Z" horiz-adv-x="414" 
d="M484 613l-351 -507h255l-36 -106h-358l5 97l351 507h-228l7 106h361z" />
    <glyph glyph-name="bracketleft" unicode="[" horiz-adv-x="229" 
d="M110 -28h48l-14 -98h-153l178 837h145l-14 -98h-54z" />
    <glyph glyph-name="backslash" unicode="\" horiz-adv-x="542" 
d="M312 747h106l68 -784h-106z" />
    <glyph glyph-name="bracketright" unicode="]" horiz-adv-x="228" 
d="M172 613h-48l13 98h153l-178 -837h-144l14 98h54z" />
    <glyph glyph-name="asciicircum" unicode="^" horiz-adv-x="426" 
d="M64 390l240 320h45l105 -320h-100l-51 208l-139 -208h-100z" />
    <glyph glyph-name="underscore" unicode="_" horiz-adv-x="523" 
d="M453 0l-36 -98h-438l36 98h438z" />
    <glyph glyph-name="grave" unicode="`" horiz-adv-x="178" 
d="M29 750h101l39 -126h-66z" />
    <glyph glyph-name="a" unicode="a" 
d="M444 505l-49 -232h1l-58 -273h-82l2 58q-31 -58 -105 -58h-46q-107 0 -81 126l52 244q30 141 144 141h46q31 0 47 -9.5t23 -31.5l8 35h98zM280 195l37 174q3 47 -34 47h-53q-44 0 -57 -63l-42 -195q-13 -63 31 -63h53q41 0 57 57l9 43h-1z" />
    <glyph glyph-name="b" unicode="b" 
d="M189 0q-36 0 -54.5 10t-23.5 33l-9 -43h-98l152 719l87 21h16l-57 -268q38 39 94 39h32q122 0 95 -126l-54 -252q-15 -70 -49 -101.5t-92 -31.5h-39zM234 416q-42 0 -57 -59l-43 -202q-10 -60 32 -60h53q44 0 57 63l41 192q7 36 0 51t-31 15h-52z" />
    <glyph glyph-name="c" unicode="c" horiz-adv-x="389" 
d="M283 408h-62q-37 0 -49 -58l-41 -194q-7 -32 -1 -45t26 -13h61q21 0 31.5 11.5t16.5 40.5l6 25h91l-10 -45q-14 -67 -42.5 -98.5t-76.5 -31.5h-104q-130 0 -102 134l52 238q14 68 45 101.5t83 33.5h111q117 0 88 -128l-11 -50h-92l5 21q13 58 -25 58z" />
    <glyph glyph-name="d" unicode="d" 
d="M495 740l-157 -740h-83l3 58q-31 -58 -105 -58h-46q-107 0 -81 126l52 244q30 141 144 141h46q31 0 47 -9.5t24 -33.5l53 251l86 21h17zM215 95q41 0 57 57l43 205q10 59 -32 59h-53q-44 0 -57 -63l-42 -195q-13 -63 31 -63h53z" />
    <glyph glyph-name="e" unicode="e" horiz-adv-x="386" 
d="M154 92h56q36 0 48 51l4 17h91l-6 -24q-16 -80 -47.5 -108t-102.5 -28h-47q-81 0 -110 29.5t-13 105.5l54 247q17 79 50 104t105 25h38q88 0 115.5 -25t10.5 -104l-13 -59q-15 -69 -42 -95.5t-98 -26.5h-107l-11 -51q-12 -58 25 -58zM287 420h-70q-31 0 -40 -45l-17 -83
h101q28 0 37 40l9 43q11 45 -20 45z" />
    <glyph glyph-name="f" unicode="f" horiz-adv-x="252" 
d="M308 642q-37 0 -49 -58l-17 -79h80l-36 -98h-65l-86 -407h-98l86 407h-68l35 98h54l20 95q15 74 54.5 107t116.5 33h67l-43 -98h-51z" />
    <glyph glyph-name="g" unicode="g" horiz-adv-x="407" 
d="M176 96h107q107 0 82 -124l-17 -78q-15 -70 -49 -97t-101 -27h-107q-83 0 -112 26.5t-14 97.5l6 34h-1l10 44q18 91 79 114q-2 8 3 32l2 10q6 27 18 38q-39 26 -22 108l23 109q15 69 48 97.5t95 28.5h47q38 0 67 -8l82 75l48 -68l-74 -67q3 -25 -4 -58l-13 -63h-1
l-10 -46q-15 -68 -49.5 -96t-101.5 -30h-31q-21 -1 -25 -23l-1 -5q-2 -13 1 -18t15 -6zM122 7q-38 0 -51 -63l-5 -21q-13 -63 25 -63h115q38 0 51 63l5 21q13 63 -25 63h-115zM267 423h-43q-40 0 -53 -65l-13 -59q-13 -65 26 -65h43q41 0 54 65l13 59q13 65 -27 65z" />
    <glyph glyph-name="h" unicode="h" horiz-adv-x="407" 
d="M235 420q-20 0 -35 -14t-20 -36l-78 -370h-98l152 719l87 21h16l-57 -265q32 36 87 36h31q122 0 96 -125l-83 -386h-98l75 356q14 64 -30 64h-45z" />
    <glyph glyph-name="i" unicode="i" horiz-adv-x="199" 
d="M112 407h-52l21 98h150l-107 -505h-98zM146 596l26 121h110l-26 -121h-110z" />
    <glyph glyph-name="j" unicode="j" horiz-adv-x="199" 
d="M112 407h-52l21 98h150l-125 -587q-26 -120 -129 -120h-70l34 98h27q36 0 46 52zM146 596l26 121h110l-26 -121h-110z" />
    <glyph glyph-name="k" unicode="k" horiz-adv-x="384" 
d="M446 505l-202 -256l96 -249h-107l-85 221l-46 -221h-98l152 719l87 21h16l-97 -457l176 222h108z" />
    <glyph glyph-name="l" unicode="l" horiz-adv-x="194" 
d="M152 94h14l-14 -99h-49q-103 0 -77 118l128 606l87 21h16l-127 -597q-10 -49 22 -49z" />
    <glyph glyph-name="m" unicode="m" horiz-adv-x="620" 
d="M4 0l102 484l81 21h15l-9 -40q41 40 104 40h27q68 0 82 -51q44 51 113 51h28q106 0 79 -125l-80 -380h-98l74 350q13 64 -31 64h-35q-38 0 -53 -39l-79 -375h-98l74 350q13 64 -32 64h-35q-37 0 -52 -39l-79 -375h-98z" />
    <glyph glyph-name="n" unicode="n" horiz-adv-x="406" 
d="M3 0l102 484l81 21h15l-9 -41q35 47 97 47h30q122 0 96 -125l-82 -386h-99l75 356q14 64 -30 64h-45q-20 0 -35 -14.5t-20 -37.5l-78 -368h-98z" />
    <glyph glyph-name="o" unicode="o" horiz-adv-x="410" 
d="M207 511h111q132 0 101 -135l-52 -244q-29 -132 -135 -132h-110q-123 0 -95 132l52 244q15 68 46 101.5t82 33.5zM292 416h-69q-37 0 -49 -58l-44 -206q-13 -57 25 -57h69q20 0 31 13t18 44l44 206q12 58 -25 58z" />
    <glyph glyph-name="p" unicode="p" 
d="M110 44l-56 -264h-97l148 704l81 21h15l-9 -43q41 49 104 49h31q122 0 95 -126l-53 -252q-15 -70 -49 -101.5t-93 -31.5h-39q-68 0 -78 44zM233 416q-42 0 -57 -59l-43 -202q-10 -60 32 -60h53q45 0 58 63l41 192q7 36 -0.5 51t-31.5 15h-52z" />
    <glyph glyph-name="q" unicode="q" 
d="M444 505l-154 -725h-98l55 261q-31 -41 -94 -41h-46q-107 0 -81 126l52 244q30 141 144 141h46q35 0 50.5 -12t23.5 -43l11 49h91zM269 143l47 220q6 53 -33 53h-53q-44 0 -57 -63l-42 -195q-13 -63 31 -63h53q37 0 54 48z" />
    <glyph glyph-name="r" unicode="r" horiz-adv-x="278" 
d="M327 425l-102 -34q-25 -7 -37 -21.5t-18 -43.5l-69 -326h-98l102 484l81 21h15l-13 -61q23 34 55 46l90 31h7z" />
    <glyph glyph-name="s" unicode="s" horiz-adv-x="373" 
d="M271 420h-64q-30 0 -39 -43l-3 -12q-4 -21 2 -29.5t26 -15.5l83 -29q55 -17 68.5 -39t0.5 -83l-12 -57q-13 -62 -46.5 -87t-97.5 -25h-78q-72 0 -90.5 27.5t-3.5 100.5l6 29h90l-5 -21q-9 -45 20 -45h81q29 0 38 43l3 14q10 42 -25 55l-82 28q-63 20 -74 41t4 82l8 37
q13 66 43 93t102 27h63q73 0 91 -28.5t2 -103.5l-6 -30h-91l5 26q10 45 -19 45z" />
    <glyph glyph-name="t" unicode="t" horiz-adv-x="262" 
d="M321 505l-28 -98h-74l-53 -251q-13 -58 24 -58h30l-12 -98h-59q-114 0 -86 133l58 274h-59l28 98h52l17 80l104 60h7l-30 -140h81z" />
    <glyph glyph-name="u" unicode="u" horiz-adv-x="406" 
d="M438 505l-107 -505h-70v44q-40 -44 -102 -44h-43q-115 0 -86 132l79 373h98l-75 -350q-13 -64 32 -64h43q20 0 35 14.5t21 37.5l77 362h98z" />
    <glyph glyph-name="v" unicode="v" horiz-adv-x="386" 
d="M217 0h-119l-17 505h101l-2 -388l163 388h105z" />
    <glyph glyph-name="w" unicode="w" horiz-adv-x="606" 
d="M214 0h-120l-11 505h103l-9 -388l147 388h100l-19 -388l158 388h103l-223 -505h-120l10 294l1 25l-8 -25z" />
    <glyph glyph-name="x" unicode="x" horiz-adv-x="369" 
d="M209 299l113 206h108l-147 -254l39 -251h-103l-28 191l-108 -191h-108l144 251l-39 254h104z" />
    <glyph glyph-name="y" unicode="y" horiz-adv-x="390" 
d="M31 -127q21 0 36 14t33 55l24 55h-28l-15 508h102l2 -370l163 370h106l-270 -581q-43 -92 -81 -120.5t-102 -28.5h-62l35 98h57z" />
    <glyph glyph-name="z" unicode="z" horiz-adv-x="346" 
d="M374 425l-254 -340h191l-28 -85h-291l7 80l254 340h-167l8 85h287z" />
    <glyph glyph-name="braceleft" unicode="{" horiz-adv-x="253" 
d="M168 -28h15l-14 -98h-27q-81 0 -99.5 40.5t5.5 135.5l23 107q11 44 5 65t-38 21h-14l21 98h25q27 0 38.5 19t20.5 61l34 161q16 72 49.5 100.5t104.5 28.5h22l-13 -98h-22q-24 0 -35 -18t-22 -71l-33 -153q-13 -64 -67 -80q47 -16 31 -92l-31 -146q-10 -41 -6 -61t27 -20
z" />
    <glyph glyph-name="bar" unicode="|" horiz-adv-x="202" 
d="M60 -250h-96l212 1006l89 21h14z" />
    <glyph glyph-name="braceright" unicode="}" horiz-adv-x="254" 
d="M-13 -28h15q22 0 33 18t21 63l31 146q15 75 69 92q-46 16 -33 80l33 153q6 28 8 43t0.5 26.5t-8 15.5t-18.5 4h-22l28 98h23q71 0 92 -28.5t5 -100.5l-34 -161q-10 -36 -5 -58t31 -22h25l-21 -98h-14q-33 0 -46.5 -19t-23.5 -67l-23 -107q-21 -101 -54 -138.5t-113 -37.5
h-26z" />
    <glyph glyph-name="asciitilde" unicode="~" horiz-adv-x="328" 
d="M328 331l-18 -85q-31 39 -59 39q-17 0 -58 -28.5t-71 -28.5q-36 0 -68 35l18 85q32 -40 59 -40q17 0 58 29t71 29q38 0 68 -35z" />
    <glyph glyph-name="exclamdown" unicode="&#xa1;" horiz-adv-x="196" 
d="M87 352h98l-119 -563l-88 -21h-14zM93 391l25 121h110l-25 -121h-110z" />
    <glyph glyph-name="cent" unicode="&#xa2;" horiz-adv-x="388" 
d="M350 614l-22 -104q56 -3 76 -31.5t6 -95.5l-9 -42h-91l3 14q12 58 -25 58h-46q-31 0 -46.5 -12t-22.5 -46l-42 -199q-8 -36 2.5 -47t41.5 -11h46q20 0 32 14t19 48h91l-8 -35q-14 -65 -46 -93.5t-89 -31.5l-21 -97h-98l21 97h-15q-108 0 -81 125l55 258q15 68 49.5 97
t99.5 31l18 82l87 21h15z" />
    <glyph glyph-name="sterling" unicode="&#xa3;" horiz-adv-x="472" 
d="M361 388l-35 -98h-102q-22 -51 -94 -184h308l-37 -106h-400l22 106q35 59 53 95q26 53 40 89h-69l35 98h67q6 21 13 55q5 22 4.5 61.5t3.5 56.5q18 87 55 118t111 31h89q126 -1 98 -135l-15 -67h-105l7 31q13 64 -27 65h-48q-44 0 -57 -60q-1 -7 -2 -21t-1 -16
q-7 -64 -19 -118v-1h105z" />
    <glyph glyph-name="currency" unicode="&#xa4;" horiz-adv-x="440" 
d="M316 50l-32 48l-23 -22q-42 -39 -72 -39q-26 0 -43 29l-21 32l-52 -47l-50 69l55 52l-20 33q-18 28 -12 62q8 36 48 75l25 23l-33 54l80 70l31 -50l23 22q44 41 74 41q27 0 45 -30l19 -32l52 48l49 -70l-55 -52l21 -33q19 -29 11 -61q-7 -37 -49 -76l-25 -24l34 -52z
M232 139l104 104q25 25 13 50l-61 107q-13 22 -39 -2l-104 -105q-25 -25 -11 -49l61 -105q15 -24 37 0z" />
    <glyph glyph-name="yen" unicode="&#xa5;" horiz-adv-x="446" 
d="M242 0h-105l26 125h-95l35 98h81l8 38h-95l35 98h58l-61 351h115l30 -307l155 307h117l-208 -351h77l-35 -98h-83l-8 -38h97l-35 -98h-83z" />
    <glyph glyph-name="brokenbar" unicode="&#xa6;" horiz-adv-x="203" 
d="M60 -250h-96l83 398h98zM279 777l-88 -413h-98l83 392l88 21h15z" />
    <glyph glyph-name="section" unicode="&#xa7;" horiz-adv-x="399" 
d="M399 279l-3 -15h1l-11 -50q-13 -59 -32.5 -90t-56.5 -41l-18 -4l8 -7q23 -19 8 -94l-10 -46q-15 -71 -46 -98.5t-100 -27.5h-42q-72 0 -90.5 35t2.5 117l8 38h86l-8 -36q-14 -67 26 -67h30q23 0 34.5 14.5t19.5 50.5l4 19q5 27 -1.5 39.5t-25.5 20.5l-83 35
q-58 23 -68 52t8 114l3 14h-1l11 50q12 58 31.5 89.5t56.5 41.5l18 4l-7 7q-24 20 -9 95l10 46q15 70 46 97.5t100 27.5h42q72 0 90.5 -35t-1.5 -116l-8 -38h-86l8 35q14 68 -26 68h-31q-22 0 -33.5 -15t-19.5 -51l-4 -18q-6 -26 0.5 -38.5t25.5 -21.5l84 -36
q57 -22 67.5 -51t-7.5 -114zM147 171l34 -16h44q32 -1 50 14t25 52l14 65q10 44 -23 60l-35 15l-44 1q-33 0 -50 -14.5t-25 -52.5l-14 -65q-9 -44 24 -59z" />
    <glyph glyph-name="dieresis" unicode="&#xa8;" horiz-adv-x="667" 
d="M334 750h81l-21 -100h-81zM479 750h82l-21 -100h-82z" />
    <glyph glyph-name="copyright" unicode="&#xa9;" horiz-adv-x="596" 
d="M627 545l-80 -380q-30 -135 -153 -135h-252q-125 0 -95 135l80 380q29 135 153 135h252q124 0 95 -135zM158 106h252q47 0 63 70l77 361q13 67 -34 67h-252q-48 0 -61 -67l-77 -361q-16 -70 32 -70zM380 453h-45q-23 0 -30 -32l-28 -132q-7 -33 16 -33h45q13 0 19.5 7.5
t11.5 29.5h60l-4 -17q-17 -86 -82 -86h-82q-69 0 -52 81l36 167q17 81 86 81h81q65 0 48 -81l-6 -28h-60l2 10q7 33 -16 33z" />
    <glyph glyph-name="ordfeminine" unicode="&#xaa;" horiz-adv-x="247" 
d="M220 429v25q-19 -25 -53 -25h-28q-56 0 -41 66l9 43q13 63 67 63h73l6 28q7 30 -12 30h-34q-19 0 -26 -30l-2 -11h-50l5 23q15 69 68 69h65q59 0 44 -69l-45 -212h-46zM162 480h40q20 0 25 27l9 43h-62q-13 0 -18 -21l-6 -28q-4 -21 12 -21z" />
    <glyph glyph-name="guillemotleft" unicode="&#xab;" horiz-adv-x="424" 
d="M216 69h-114l-66 183l144 183h114l-144 -183zM377 69h-114l-66 183l144 183h114l-144 -183z" />
    <glyph glyph-name="logicalnot" unicode="&#xac;" horiz-adv-x="471" 
d="M343 189l11 54h-303l22 105h395l-33 -159h-92z" />
    <glyph glyph-name="registered" unicode="&#xae;" horiz-adv-x="596" 
d="M627 545l-80 -380q-30 -135 -153 -135h-252q-125 0 -95 135l80 380q29 135 153 135h252q124 0 95 -135zM158 106h252q47 0 63 70l77 361q13 67 -34 67h-252q-48 0 -61 -67l-77 -361q-16 -70 32 -70zM195 190l70 329h145q58 0 46 -62l-20 -91q-10 -50 -50 -60l38 -116h-71
l-36 113h-34l-24 -113h-64zM316 459l-21 -100h55q20 0 27 28l10 46q5 26 -16 26h-55z" />
    <glyph glyph-name="macron" unicode="&#xaf;" horiz-adv-x="293" 
d="M374 753l-34 -91h-204l35 91h203z" />
    <glyph glyph-name="degree" unicode="&#xb0;" horiz-adv-x="252" 
d="M239 770h26q52 0 65 -17.5t0 -76.5l-12 -57q-13 -60 -31.5 -77t-72.5 -17h-25q-53 0 -66 17.5t0 76.5l12 57q13 60 31.5 77t72.5 17zM228 583q27 0 33 33l14 63q4 21 -3 27t-30 6h-16q-26 0 -33 -33l-14 -63q-4 -21 3 -27t30 -6h16z" />
    <glyph glyph-name="plusminus" unicode="&#xb1;" horiz-adv-x="419" 
d="M60 338l38 106h114l31 148h105l-31 -148h129l-37 -106h-115l-32 -152h-105l32 152h-129zM-3 15l37 106h349l-37 -106h-349z" />
    <glyph glyph-name="twosuperior" unicode="&#xb2;" horiz-adv-x="239" 
d="M239 658h-32q-21 0 -28 -28l-1 -7h-49l5 25q14 62 71 62h57q59 0 45 -61l-2 -12q-9 -40 -47 -65l-80 -53q-26 -17 -30 -38h58q20 0 27 28l1 7h50l-5 -24q-13 -63 -71 -63h-120l11 52q5 27 21 44.5t47 36.5l65 42q17 13 20 30q6 24 -13 24z" />
    <glyph glyph-name="threesuperior" unicode="&#xb3;" horiz-adv-x="233" 
d="M201 481q21 0 28 34q6 29 -14 29h-38l17 52h23q18 0 25 31q6 31 -16 31h-18q-20 0 -27 -28l-1 -7h-50l5 24q13 63 72 63h44q59 0 44 -66l-7 -33q-5 -33 -26 -42q27 -4 19 -45l-6 -29q-14 -66 -72 -66h-63q-59 0 -45 64l5 23h50l-1 -7q-6 -28 15 -28h37z" />
    <glyph glyph-name="acute" unicode="&#xb4;" horiz-adv-x="415" 
d="M192 587h-80l96 144h113z" />
    <glyph glyph-name="mu" unicode="&#xb5;" horiz-adv-x="404" 
d="M438 505l-107 -505h-69l-1 46q-41 -46 -101 -46h-44q-11 0 -16 1l-30 -140h-98l82 384h1l55 260h98l-75 -350q-13 -64 31 -64h43q41 0 55 50l1 2l78 362h97z" />
    <glyph glyph-name="paragraph" unicode="&#xb6;" horiz-adv-x="514" 
d="M281 -169l150 708q13 64 -29 65l-164 -773h-106l100 474h-65q-121 0 -92 135l29 135q28 135 149 135h197q122 0 94 -135l-158 -744h-105zM218 411h37l41 193h-37q-45 0 -59 -65l-13 -62q-15 -66 31 -66z" />
    <glyph glyph-name="periodcentered" unicode="&#xb7;" horiz-adv-x="185" 
d="M49 234l26 121h110l-26 -121h-110z" />
    <glyph glyph-name="cedilla" unicode="&#xb8;" horiz-adv-x="682" 
d="M241 -80l-20 10q-20 9 -14 38l11 55h62l-7 -35q-3 -12 8 -17l19 -10q20 -11 11 -51l-7 -35q-8 -38 -22 -49.5t-52 -11.5h-32q-40 0 -48.5 12t0.5 53l3 17h56l-1 -5q-3 -16 8 -16h18q11 0 14 16l2 10q4 14 -9 19z" />
    <glyph glyph-name="onesuperior" unicode="&#xb9;" horiz-adv-x="139" 
d="M135 658h-9l3 52h30q59 0 45 -63l-46 -218h-49l42 201q7 28 -16 28z" />
    <glyph glyph-name="ordmasculine" unicode="&#xba;" horiz-adv-x="244" 
d="M100 492l33 155q13 63 71 63h64q58 0 45 -63l-33 -155q-14 -63 -71 -63h-64q-59 0 -45 63zM169 481h38q20 0 27 28l25 121q7 28 -15 28h-38q-20 0 -27 -28l-25 -121q-7 -28 15 -28z" />
    <glyph glyph-name="guillemotright" unicode="&#xbb;" horiz-adv-x="425" 
d="M117 69h-114l144 183l-66 183h114l66 -183zM278 69h-114l144 183l-66 183h114l66 -183z" />
    <glyph glyph-name="onequarter" unicode="&#xbc;" horiz-adv-x="467" 
d="M18 0l402 710h73l-403 -710h-72zM139 642h-12l3 68h40q77 0 59 -82l-61 -287h-65l56 264q8 37 -20 37zM203 62l20 97q6 29 29 57l140 153h81l-165 -183q-16 -19 -20 -37l-4 -19h54l10 48l45 10h22l-12 -58h34l-23 -68h-25l-13 -62h-65l13 62h-121z" />
    <glyph glyph-name="onehalf" unicode="&#xbd;" horiz-adv-x="538" 
d="M18 0l402 710h73l-403 -710h-72zM139 642h-12l3 68h40q77 0 59 -82l-61 -287h-65l56 264q8 37 -20 37zM443 301h-42q-29 0 -36 -37l-2 -9h-65l7 33q17 81 93 81h75q77 0 60 -80l-3 -16q-6 -30 -21 -48.5t-42 -36.5l-104 -69q-34 -23 -40 -50h76q28 0 36 36l2 10h65
l-7 -32q-18 -83 -93 -83h-158l14 69q8 35 29 57.5t61 48.5l85 55q22 16 27 40q6 31 -17 31z" />
    <glyph glyph-name="threequarters" unicode="&#xbe;" horiz-adv-x="564" 
d="M116 0l402 710h73l-403 -710h-72zM302 62l20 97q6 29 29 57l140 153h81l-165 -183q-16 -19 -20 -37l-4 -19h54l10 48l45 10h22l-12 -58h34l-23 -68h-25l-13 -62h-65l13 62h-121zM214 410q28 0 37 44q8 38 -19 38h-50l23 69h31q22 0 31 40q8 41 -20 41h-23q-28 0 -36 -37
l-2 -9h-66l7 32q18 82 95 82h58q76 0 58 -86l-9 -44q-10 -44 -34 -55q34 -6 24 -59l-9 -38q-17 -87 -94 -87h-83q-76 0 -58 84l6 31h66l-2 -10q-7 -36 20 -36h49z" />
    <glyph glyph-name="questiondown" unicode="&#xbf;" horiz-adv-x="407" 
d="M138 178l-42 -21q-50 -25 -73.5 -52t-36.5 -88l-27 -131q-27 -126 87 -126h142q115 0 141 126l21 98h-104l-13 -62q-12 -57 -50 -57h-86q-39 0 -26 59l18 82q4 23 14.5 35.5t32.5 23.5l54 27q24 12 39 22t31.5 34.5t23.5 58.5l26 118h-105l-19 -87q-5 -24 -15.5 -37
t-32.5 -23zM213 388l26 121h110l-26 -121h-110z" />
    <glyph glyph-name="Agrave" unicode="&#xc0;" horiz-adv-x="474" 
d="M298 710h106l35 -710h-110l-3 130h-195l-57 -130h-110zM318 549l-139 -313h145zM257 875h101l40 -126h-66z" />
    <glyph glyph-name="Aacute" unicode="&#xc1;" horiz-adv-x="474" 
d="M298 710h106l35 -710h-110l-3 130h-195l-57 -130h-110zM318 549l-139 -313h145zM381 750h-80l96 144h113z" />
    <glyph glyph-name="Acircumflex" unicode="&#xc2;" horiz-adv-x="474" 
d="M298 710h106l35 -710h-110l-3 130h-195l-57 -130h-110zM318 549l-139 -313h145zM354 854h55l74 -105h-93l-23 40h-1l-38 -40h-92z" />
    <glyph glyph-name="Atilde" unicode="&#xc3;" horiz-adv-x="474" 
d="M298 710h106l35 -710h-110l-3 130h-195l-57 -130h-110zM318 549l-139 -313h145zM437 846q34 0 43 -12t2 -48l-10 -45h-65l5 23q4 14 -6 14q-13 0 -25 -12l-16 -14q-15 -15 -65 -15q-34 0 -43 11.5t-1 48.5l9 44h65l-5 -23q-3 -14 6 -14q15 0 26 13l10 11q12 12 25 15
t45 3z" />
    <glyph glyph-name="Adieresis" unicode="&#xc4;" horiz-adv-x="474" 
d="M298 710h106l35 -710h-110l-3 130h-195l-57 -130h-110zM318 549l-139 -313h145zM268 846h81l-21 -100h-81zM413 846h82l-21 -100h-82z" />
    <glyph glyph-name="Aring" unicode="&#xc5;" horiz-adv-x="474" 
d="M298 710h106l35 -710h-110l-3 130h-195l-57 -130h-110zM318 549l-139 -313h145zM368 910h51q41 0 50 -15t-1 -64l-6 -31q-11 -50 -26 -64.5t-55 -14.5h-52q-40 0 -49.5 14.5t1.5 64.5l6 31q11 50 26 64.5t55 14.5zM405 804l5 22q6 25 -14 25h-29q-19 0 -25 -25l-5 -22
q-4 -25 15 -25h29q20 0 24 25z" />
    <glyph glyph-name="AE" unicode="&#xc6;" horiz-adv-x="692" 
d="M519 604l-7 -33l-28 -224h181l-36 -105h-157l-17 -136h207l-37 -106h-294l15 129h-191l-83 -129h-118l463 710h374l-36 -106h-236zM391 494l-168 -259h136z" />
    <glyph glyph-name="Ccedilla" unicode="&#xc7;" horiz-adv-x="464" 
d="M200 -80l-20 10q-20 9 -14 38l7 32h-25q-74 0 -102 35t-12 107l14 69h1l76 357q15 72 50 107t95 35h139q73 0 100 -35t12 -107l-15 -74h-105l9 45q7 35 0 50t-30 15h-98q-44 0 -58 -65l-78 -368q-14 -65 31 -65h97q44 0 58 65l10 47h105l-16 -76q-16 -72 -50.5 -107
t-93.5 -35h-52l-3 -12q-2 -12 8 -17l19 -10q20 -11 11 -51l-7 -35q-8 -38 -22 -49.5t-52 -11.5h-32q-40 0 -48.5 12t0.5 53l3 17h56l-1 -5q-3 -16 8 -16h18q11 0 14 16l2 10q4 14 -9 19z" />
    <glyph glyph-name="Egrave" unicode="&#xc8;" 
d="M241 604l-54 -255h202l-38 -105h-187l-29 -138h248l-36 -106h-339l150 710h353l-36 -106h-234zM244 875h101l40 -126h-66z" />
    <glyph glyph-name="Eacute" unicode="&#xc9;" 
d="M241 604l-54 -255h202l-38 -105h-187l-29 -138h248l-36 -106h-339l150 710h353l-36 -106h-234zM368 750h-80l96 144h113z" />
    <glyph glyph-name="Ecircumflex" unicode="&#xca;" 
d="M241 604l-54 -255h202l-38 -105h-187l-29 -138h248l-36 -106h-339l150 710h353l-36 -106h-234zM340 854h55l74 -105h-93l-23 40h-1l-38 -40h-92z" />
    <glyph glyph-name="Edieresis" unicode="&#xcb;" 
d="M241 604l-54 -255h202l-38 -105h-187l-29 -138h248l-36 -106h-339l150 710h353l-36 -106h-234zM255 846h81l-21 -100h-81zM400 846h82l-21 -100h-82z" />
    <glyph glyph-name="Igrave" unicode="&#xcc;" horiz-adv-x="192" 
d="M113 0h-105l150 710h105zM115 875h101l40 -126h-66z" />
    <glyph glyph-name="Iacute" unicode="&#xcd;" horiz-adv-x="192" 
d="M113 0h-105l150 710h105zM240 750h-80l96 144h113z" />
    <glyph glyph-name="Icircumflex" unicode="&#xce;" horiz-adv-x="192" 
d="M113 0h-105l150 710h105zM213 854h55l74 -105h-93l-23 40h-1l-38 -40h-92z" />
    <glyph glyph-name="Idieresis" unicode="&#xcf;" horiz-adv-x="192" 
d="M113 0h-105l150 710h105zM126 846h81l-21 -100h-81zM271 846h82l-21 -100h-82z" />
    <glyph glyph-name="Eth" unicode="&#xd0;" horiz-adv-x="505" 
d="M164 604l22 106h250q74 0 101 -35t12 -107l-15 -74h-1l-59 -276h1l-16 -76q-31 -142 -144 -142h-278l22 106h1l39 184h-78l35 98h64l46 216h-2zM337 388l-36 -98h-97l-39 -184h136q45 0 59 65l4 21h-1l75 352h1q11 60 -32 60h-136l-46 -216h112z" />
    <glyph glyph-name="Ntilde" unicode="&#xd1;" horiz-adv-x="500" 
d="M113 0h-105l150 710h105l93 -454q4 -28 5 -42l105 496h105l-150 -710h-105l-89 433q-6 21 -8 66zM446 846q34 0 43 -12t2 -48l-10 -45h-65l5 23q3 14 -6 14q-13 0 -25 -12l-16 -14q-15 -15 -65 -15q-34 0 -43 11.5t-1 48.5l9 44h65l-5 -23q-3 -14 6 -14q15 0 26 13l10 11
q12 12 25 15t45 3z" />
    <glyph glyph-name="Ograve" unicode="&#xd2;" horiz-adv-x="500" 
d="M34 142l14 69h1l76 357q15 72 50 107t95 35h162q73 0 100 -35t12 -107l-90 -426q-16 -72 -50.5 -107t-93.5 -35h-162q-74 0 -102 35t-12 107zM403 604h-121q-44 0 -58 -65l-78 -368q-14 -65 31 -65h120q44 0 58 65l78 368q7 35 0 50t-30 15zM267 875h101l40 -126h-66z
" />
    <glyph glyph-name="Oacute" unicode="&#xd3;" horiz-adv-x="500" 
d="M34 142l14 69h1l76 357q15 72 50 107t95 35h162q73 0 100 -35t12 -107l-90 -426q-16 -72 -50.5 -107t-93.5 -35h-162q-74 0 -102 35t-12 107zM403 604h-121q-44 0 -58 -65l-78 -368q-14 -65 31 -65h120q44 0 58 65l78 368q7 35 0 50t-30 15zM391 750h-80l96 144h113z" />
    <glyph glyph-name="Ocircumflex" unicode="&#xd4;" horiz-adv-x="500" 
d="M34 142l14 69h1l76 357q15 72 50 107t95 35h162q73 0 100 -35t12 -107l-90 -426q-16 -72 -50.5 -107t-93.5 -35h-162q-74 0 -102 35t-12 107zM403 604h-121q-44 0 -58 -65l-78 -368q-14 -65 31 -65h120q44 0 58 65l78 368q7 35 0 50t-30 15zM363 854h55l74 -105h-93
l-23 40h-1l-38 -40h-92z" />
    <glyph glyph-name="Otilde" unicode="&#xd5;" horiz-adv-x="499" 
d="M34 142l14 69h1l76 357q15 72 50 107t95 35h160q74 0 101 -35t12 -107l-90 -426q-16 -72 -51 -107t-94 -35h-160q-74 0 -102 35t-12 107zM401 604h-119q-44 0 -58 -65l-78 -368q-14 -65 31 -65h118q44 0 58 65l78 368q7 35 0 50t-30 15zM408 846q34 0 43 -12t2 -48
l-10 -45h-65l5 23q3 14 -6 14q-13 0 -25 -12l-16 -14q-15 -15 -65 -15q-34 0 -43 11.5t-1 48.5l9 44h65l-5 -23q-3 -14 6 -14q15 0 26 13l10 11q12 12 25 15t45 3z" />
    <glyph glyph-name="Odieresis" unicode="&#xd6;" horiz-adv-x="500" 
d="M34 142l14 69h1l76 357q15 72 50 107t95 35h162q73 0 100 -35t12 -107l-90 -426q-16 -72 -50.5 -107t-93.5 -35h-162q-74 0 -102 35t-12 107zM403 604h-121q-44 0 -58 -65l-78 -368q-14 -65 31 -65h120q44 0 58 65l78 368q7 35 0 50t-30 15zM278 846h81l-21 -100h-81z
M423 846h82l-21 -100h-82z" />
    <glyph glyph-name="multiply" unicode="&#xd7;" horiz-adv-x="344" 
d="M364 377l-110 -109l64 -107l-78 -68l-62 108l-108 -108l-48 68l107 107l-61 109l77 67l62 -108l108 108z" />
    <glyph glyph-name="Oslash" unicode="&#xd8;" horiz-adv-x="500" 
d="M519 757h115l-87 -122q5 -29 -4 -67l-90 -426q-16 -72 -50.5 -107t-93.5 -35h-161q-34 0 -51 5l-37 -52h-112l83 118q-5 27 4 71l14 69h1l76 357q15 72 50 107t94 35h161q30 0 51 -6zM402 604h-119q-44 0 -58 -65l-59 -278l244 342q-2 1 -8 1zM296 106q44 0 58 65l58 275
l-243 -340h127z" />
    <glyph glyph-name="Ugrave" unicode="&#xd9;" horiz-adv-x="479" 
d="M272 106q24 0 38.5 16.5t22.5 53.5l113 534h105l-121 -572q-30 -138 -138 -138h-149q-139 0 -109 138l121 572h106l-113 -534q-16 -70 31 -70h93zM258 875h101l40 -126h-66z" />
    <glyph glyph-name="Uacute" unicode="&#xda;" horiz-adv-x="479" 
d="M272 106q24 0 38.5 16.5t22.5 53.5l113 534h105l-121 -572q-30 -138 -138 -138h-149q-139 0 -109 138l121 572h106l-113 -534q-16 -70 31 -70h93zM383 750h-80l96 144h113z" />
    <glyph glyph-name="Ucircumflex" unicode="&#xdb;" horiz-adv-x="479" 
d="M272 106q24 0 38.5 16.5t22.5 53.5l113 534h105l-121 -572q-30 -138 -138 -138h-149q-139 0 -109 138l121 572h106l-113 -534q-16 -70 31 -70h93zM355 854h55l74 -105h-93l-23 40h-1l-38 -40h-92z" />
    <glyph glyph-name="Udieresis" unicode="&#xdc;" horiz-adv-x="479" 
d="M272 106q24 0 38.5 16.5t22.5 53.5l113 534h105l-121 -572q-30 -138 -138 -138h-149q-139 0 -109 138l121 572h106l-113 -534q-16 -70 31 -70h93zM270 846h81l-21 -100h-81zM415 846h82l-21 -100h-82z" />
    <glyph glyph-name="Yacute" unicode="&#xdd;" horiz-adv-x="461" 
d="M248 0h-104l58 273l-90 437h106l48 -283q5 -49 5 -52q6 18 26 51l168 284h112l-271 -434zM375 750h-80l96 144h113z" />
    <glyph glyph-name="Thorn" unicode="&#xde;" horiz-adv-x="452" 
d="M113 0h-105l160 756l95 21h15l-34 -159h130q150 0 120 -147l-35 -164q-31 -147 -152 -147h-160zM221 512l-52 -247h131q44 0 58 65l25 118q13 64 -31 64h-131z" />
    <glyph glyph-name="germandbls" unicode="&#xdf;" horiz-adv-x="462" 
d="M-25 -140l138 654h1l11 54q15 72 50 107t94 35h130q125 0 96 -135l-21 -96q-4 -21 -7 -31.5t-10.5 -29t-18.5 -29.5t-27 -16q18 -5 28.5 -16t14.5 -21.5t2.5 -30.5t-3 -28.5t-5.5 -28.5l-24 -113q-28 -135 -151 -135h-121l22 106h92q46 0 61 66l17 81q15 67 -27 67h-97
l22 105h76q40 0 53 60l11 53q14 66 -34 66h-66q-44 0 -58 -65l-8 -38h-1l-136 -641h-104z" />
    <glyph glyph-name="agrave" unicode="&#xe0;" horiz-adv-x="393" 
d="M237 0l2 51q-21 -31 -41.5 -41t-58.5 -10h-35q-60 0 -82 29t-9 91l17 73q22 112 107 112h148l13 59q10 49 -25 49h-56q-35 0 -45 -48l-2 -11h-91l8 40q24 117 108 117h114q119 0 93 -117l-83 -394h-82zM137 98h65q39 0 52 59l12 57h-113q-18 0 -26 -11.5t-13 -37.5
l-5 -23q-6 -26 1.5 -35t26.5 -9zM176 705h101l40 -126h-66z" />
    <glyph glyph-name="aacute" unicode="&#xe1;" horiz-adv-x="393" 
d="M237 0l2 51q-21 -31 -41.5 -41t-58.5 -10h-35q-60 0 -82 29t-9 91l17 73q22 112 107 112h148l13 59q10 49 -25 49h-56q-35 0 -45 -48l-2 -11h-91l8 40q24 117 108 117h114q119 0 93 -117l-83 -394h-82zM137 98h65q39 0 52 59l12 57h-113q-18 0 -26 -11.5t-13 -37.5
l-5 -23q-6 -26 1.5 -35t26.5 -9zM310 577h-80l96 144h113z" />
    <glyph glyph-name="acircumflex" unicode="&#xe2;" horiz-adv-x="393" 
d="M237 0l2 51q-21 -31 -41.5 -41t-58.5 -10h-35q-60 0 -82 29t-9 91l17 73q22 112 107 112h148l13 59q10 49 -25 49h-56q-35 0 -45 -48l-2 -11h-91l8 40q24 117 108 117h114q119 0 93 -117l-83 -394h-82zM137 98h65q39 0 52 59l12 57h-113q-18 0 -26 -11.5t-13 -37.5
l-5 -23q-6 -26 1.5 -35t26.5 -9zM275 684h55l74 -105h-93l-23 40h-1l-38 -40h-92z" />
    <glyph glyph-name="atilde" unicode="&#xe3;" horiz-adv-x="393" 
d="M237 0l2 51q-21 -31 -41.5 -41t-58.5 -10h-35q-60 0 -82 29t-9 91l17 73q22 112 107 112h148l13 59q10 49 -25 49h-56q-35 0 -45 -48l-2 -11h-91l8 40q24 117 108 117h114q119 0 93 -117l-83 -394h-82zM137 98h65q39 0 52 59l12 57h-113q-18 0 -26 -11.5t-13 -37.5
l-5 -23q-6 -26 1.5 -35t26.5 -9zM358 676q34 0 43 -12t1 -48l-9 -45h-65l5 23q2 14 -6 14q-13 0 -25 -12l-16 -14q-16 -15 -65 -15q-34 0 -43 11.5t-1 48.5l9 44h65l-5 -23q-3 -14 6 -14q14 0 26 13l10 11q12 12 25 15t45 3z" />
    <glyph glyph-name="adieresis" unicode="&#xe4;" horiz-adv-x="393" 
d="M237 0l2 51q-21 -31 -41.5 -41t-58.5 -10h-35q-60 0 -82 29t-9 91l17 73q22 112 107 112h148l13 59q10 49 -25 49h-56q-35 0 -45 -48l-2 -11h-91l8 40q24 117 108 117h114q119 0 93 -117l-83 -394h-82zM137 98h65q39 0 52 59l12 57h-113q-18 0 -26 -11.5t-13 -37.5
l-5 -23q-6 -26 1.5 -35t26.5 -9zM188 676h81l-21 -100h-81zM333 676h82l-21 -100h-82z" />
    <glyph glyph-name="aring" unicode="&#xe5;" horiz-adv-x="393" 
d="M237 0l2 51q-21 -31 -41.5 -41t-58.5 -10h-35q-60 0 -82 29t-9 91l17 73q22 112 107 112h148l13 59q10 49 -25 49h-56q-35 0 -45 -48l-2 -11h-91l8 40q24 117 108 117h114q119 0 93 -117l-83 -394h-82zM137 98h65q39 0 52 59l12 57h-113q-18 0 -26 -11.5t-13 -37.5
l-5 -23q-6 -26 1.5 -35t26.5 -9zM289 740h51q41 0 50 -15t-1 -64l-7 -31q-11 -50 -25.5 -64.5t-54.5 -14.5h-52q-40 0 -49.5 14.5t0.5 64.5l7 31q11 50 26 64.5t55 14.5zM326 634l5 22q6 25 -14 25h-29q-19 0 -25 -25l-5 -22q-4 -25 15 -25h29q18 0 24 25z" />
    <glyph glyph-name="ae" unicode="&#xe6;" horiz-adv-x="614" 
d="M376 98h62q39 0 49 51l3 11h91l-6 -24q-16 -80 -49.5 -108t-107.5 -28h-61q-53 0 -80 13t-33 46l-1 -1q-22 -34 -44 -46t-60 -12h-50q-100 0 -75 120l16 73q23 112 123 112h131l13 59q10 49 -24 49h-56q-35 0 -45 -48l-2 -11h-91l8 40q26 117 123 117h113q34 0 56 -14
q32 14 86 14h61q71 0 95 -24.5t8 -97.5l-15 -73q-14 -65 -41 -90t-98 -25h-114l-9 -45q-12 -58 24 -58zM505 413h-49q-27 0 -41 -12t-21 -46l-13 -63h101q35 0 44 39l8 38q9 44 -29 44zM130 98h72q38 0 51 59l12 57h-109q-32 0 -41 -49l-5 -23q-10 -44 20 -44z" />
    <glyph glyph-name="ccedilla" unicode="&#xe7;" horiz-adv-x="389" 
d="M151 -80l-20 10q-20 9 -14 38l7 32q-125 1 -97 134l52 238q14 68 45 101.5t83 33.5h111q117 0 88 -128l-11 -50h-92l5 21q13 58 -25 58h-62q-37 0 -49 -58l-41 -194q-7 -32 -1 -45t26 -13h61q21 0 31.5 11.5t16.5 40.5l6 25h91l-10 -45q-14 -67 -42.5 -98.5t-76.5 -31.5
h-47l-3 -12q-3 -12 8 -17l19 -10q20 -11 11 -51l-7 -35q-8 -38 -22 -49.5t-52 -11.5h-32q-40 0 -48.5 12t0.5 53l3 17h56l-1 -5q-3 -16 8 -16h18q11 0 14 16l2 10q4 14 -9 19z" />
    <glyph glyph-name="egrave" unicode="&#xe8;" horiz-adv-x="393" 
d="M154 92h56q36 0 48 51l4 17h91l-6 -24q-16 -80 -47.5 -108t-102.5 -28h-47q-81 0 -110 29.5t-13 105.5l54 247q17 79 50 104t105 25h38q88 0 115.5 -25t10.5 -104l-13 -59q-15 -69 -42 -95.5t-98 -26.5h-107l-11 -51q-12 -58 25 -58zM287 420h-70q-31 0 -40 -45l-17 -83
h101q28 0 37 40l9 43q11 45 -20 45zM187 705h101l40 -126h-66z" />
    <glyph glyph-name="eacute" unicode="&#xe9;" horiz-adv-x="393" 
d="M154 92h56q36 0 48 51l4 17h91l-6 -24q-16 -80 -47.5 -108t-102.5 -28h-47q-81 0 -110 29.5t-13 105.5l54 247q17 79 50 104t105 25h38q88 0 115.5 -25t10.5 -104l-13 -59q-15 -69 -42 -95.5t-98 -26.5h-107l-11 -51q-12 -58 25 -58zM287 420h-70q-31 0 -40 -45l-17 -83
h101q28 0 37 40l9 43q11 45 -20 45zM311 580h-80l95 144h113z" />
    <glyph glyph-name="ecircumflex" unicode="&#xea;" horiz-adv-x="393" 
d="M154 92h56q36 0 48 51l4 17h91l-6 -24q-16 -80 -47.5 -108t-102.5 -28h-47q-81 0 -110 29.5t-13 105.5l54 247q17 79 50 104t105 25h38q88 0 115.5 -25t10.5 -104l-13 -59q-15 -69 -42 -95.5t-98 -26.5h-107l-11 -51q-12 -58 25 -58zM287 420h-70q-31 0 -40 -45l-17 -83
h101q28 0 37 40l9 43q11 45 -20 45zM285 684h55l74 -105h-93l-23 40h-1l-38 -40h-92z" />
    <glyph glyph-name="edieresis" unicode="&#xeb;" horiz-adv-x="393" 
d="M154 92h56q36 0 48 51l4 17h91l-6 -24q-16 -80 -47.5 -108t-102.5 -28h-47q-81 0 -110 29.5t-13 105.5l54 247q17 79 50 104t105 25h38q88 0 115.5 -25t10.5 -104l-13 -59q-15 -69 -42 -95.5t-98 -26.5h-107l-11 -51q-12 -58 25 -58zM287 420h-70q-31 0 -40 -45l-17 -83
h101q28 0 37 40l9 43q11 45 -20 45zM198 676h81l-21 -100h-81zM343 676h82l-21 -100h-82z" />
    <glyph glyph-name="igrave" unicode="&#xec;" horiz-adv-x="199" 
d="M112 407h-52l21 98h150l-107 -505h-98zM94 705h101l40 -126h-66z" />
    <glyph glyph-name="iacute" unicode="&#xed;" horiz-adv-x="199" 
d="M112 407h-52l21 98h150l-107 -505h-98zM219 580h-80l95 144h113z" />
    <glyph glyph-name="icircumflex" unicode="&#xee;" horiz-adv-x="199" 
d="M112 407h-52l21 98h150l-107 -505h-98zM192 684h55l74 -105h-93l-23 40h-1l-38 -40h-92z" />
    <glyph glyph-name="idieresis" unicode="&#xef;" horiz-adv-x="199" 
d="M112 407h-52l21 98h150l-107 -505h-98zM106 676h81l-21 -100h-81zM251 676h82l-21 -100h-82z" />
    <glyph glyph-name="eth" unicode="&#xf0;" horiz-adv-x="398" 
d="M403 355l-48 -227q-16 -73 -53.5 -100.5t-110.5 -27.5h-64q-73 0 -99.5 28t-10.5 100l35 165q15 72 52.5 100t109.5 28h63q14 0 28 -7q0 29 -6 47l-25 76l-116 -22l18 85l63 13l-37 97h115l26 -80l124 24l-19 -85l-73 -16q9 -42 13 -57q26 -88 15 -141zM194 323
q-38 0 -50 -58l-23 -109q-13 -58 25 -58h67q37 0 50 58l28 133q6 32 6 34h-103z" />
    <glyph glyph-name="ntilde" unicode="&#xf1;" horiz-adv-x="406" 
d="M3 0l102 484l81 21h15l-9 -41q35 47 97 47h30q122 0 96 -125l-82 -386h-99l75 356q14 64 -30 64h-45q-20 0 -35 -14.5t-20 -37.5l-78 -368h-98zM378 676q34 0 43 -12t1 -48l-9 -45h-65l5 23q2 14 -6 14q-13 0 -25 -12l-16 -14q-16 -15 -65 -15q-34 0 -43 11.5t-1 48.5
l9 44h65l-5 -23q-3 -14 6 -14q14 0 26 13l10 11q12 12 25 15t45 3z" />
    <glyph glyph-name="ograve" unicode="&#xf2;" horiz-adv-x="410" 
d="M207 511h111q132 0 101 -135l-52 -244q-29 -132 -135 -132h-110q-123 0 -95 132l52 244q15 68 46 101.5t82 33.5zM292 416h-69q-37 0 -49 -58l-44 -206q-13 -57 25 -57h69q20 0 31 13t18 44l44 206q12 58 -25 58zM188 705h101l40 -126h-66z" />
    <glyph glyph-name="oacute" unicode="&#xf3;" horiz-adv-x="410" 
d="M207 511h111q132 0 101 -135l-52 -244q-29 -132 -135 -132h-110q-123 0 -95 132l52 244q15 68 46 101.5t82 33.5zM292 416h-69q-37 0 -49 -58l-44 -206q-13 -57 25 -57h69q20 0 31 13t18 44l44 206q12 58 -25 58zM313 580h-80l95 144h113z" />
    <glyph glyph-name="ocircumflex" unicode="&#xf4;" horiz-adv-x="410" 
d="M207 511h111q132 0 101 -135l-52 -244q-29 -132 -135 -132h-110q-123 0 -95 132l52 244q15 68 46 101.5t82 33.5zM292 416h-69q-37 0 -49 -58l-44 -206q-13 -57 25 -57h69q20 0 31 13t18 44l44 206q12 58 -25 58zM286 684h55l74 -105h-93l-23 40h-1l-38 -40h-92z" />
    <glyph glyph-name="otilde" unicode="&#xf5;" horiz-adv-x="410" 
d="M207 511h111q132 0 101 -135l-52 -244q-29 -132 -135 -132h-110q-123 0 -95 132l52 244q15 68 46 101.5t82 33.5zM292 416h-69q-37 0 -49 -58l-44 -206q-13 -57 25 -57h69q20 0 31 13t18 44l44 206q12 58 -25 58zM371 676q34 0 43 -12t1 -48l-9 -45h-65l5 23q2 14 -6 14
q-13 0 -25 -12l-16 -14q-16 -15 -65 -15q-34 0 -43 11.5t-1 48.5l9 44h65l-5 -23q-3 -14 6 -14q14 0 26 13l10 11q12 12 25 15t45 3z" />
    <glyph glyph-name="odieresis" unicode="&#xf6;" horiz-adv-x="410" 
d="M207 511h111q132 0 101 -135l-52 -244q-29 -132 -135 -132h-110q-123 0 -95 132l52 244q15 68 46 101.5t82 33.5zM292 416h-69q-37 0 -49 -58l-44 -206q-13 -57 25 -57h69q20 0 31 13t18 44l44 206q12 58 -25 58zM200 676h81l-21 -100h-81zM345 676h82l-21 -100h-82z" />
    <glyph glyph-name="divide" unicode="&#xf7;" horiz-adv-x="406" 
d="M36 244l38 106h349l-38 -106h-349zM200 402l26 121h110l-26 -121h-110zM127 59l26 121h110l-26 -121h-110z" />
    <glyph glyph-name="oslash" unicode="&#xf8;" 
d="M207 511h111q26 0 52 -7l35 45h94l-77 -98q8 -30 -3 -75l-52 -244q-29 -132 -135 -132h-110q-28 0 -49 6l-29 -37h-92l71 92q-5 30 4 71l52 244q15 68 46 101.5t82 33.5zM224 95q20 0 31 13t18 44l31 148l-160 -204q3 -1 11 -1h69zM292 416h-69q-37 0 -49 -58l-31 -144
l158 201q-3 1 -9 1z" />
    <glyph glyph-name="ugrave" unicode="&#xf9;" horiz-adv-x="406" 
d="M438 505l-107 -505h-70v44q-40 -44 -102 -44h-43q-115 0 -86 132l79 373h98l-75 -350q-13 -64 32 -64h43q20 0 35 14.5t21 37.5l77 362h98zM179 705h101l40 -126h-66z" />
    <glyph glyph-name="uacute" unicode="&#xfa;" horiz-adv-x="406" 
d="M438 505l-107 -505h-70v44q-40 -44 -102 -44h-43q-115 0 -86 132l79 373h98l-75 -350q-13 -64 32 -64h43q20 0 35 14.5t21 37.5l77 362h98zM304 580h-80l95 144h113z" />
    <glyph glyph-name="ucircumflex" unicode="&#xfb;" horiz-adv-x="406" 
d="M438 505l-107 -505h-70v44q-40 -44 -102 -44h-43q-115 0 -86 132l79 373h98l-75 -350q-13 -64 32 -64h43q20 0 35 14.5t21 37.5l77 362h98zM278 684h55l74 -105h-93l-23 40h-1l-38 -40h-92z" />
    <glyph glyph-name="udieresis" unicode="&#xfc;" horiz-adv-x="406" 
d="M438 505l-107 -505h-70v44q-40 -44 -102 -44h-43q-115 0 -86 132l79 373h98l-75 -350q-13 -64 32 -64h43q20 0 35 14.5t21 37.5l77 362h98zM191 676h81l-21 -100h-81zM336 676h82l-21 -100h-82z" />
    <glyph glyph-name="yacute" unicode="&#xfd;" horiz-adv-x="390" 
d="M31 -127q21 0 36 14t33 55l24 55h-28l-15 508h102l2 -370l163 370h106l-270 -581q-43 -92 -81 -120.5t-102 -28.5h-62l35 98h57zM290 580h-80l95 144h113z" />
    <glyph glyph-name="thorn" unicode="&#xfe;" horiz-adv-x="413" 
d="M48 -250h-96l212 1006l89 21h14l-65 -305q38 39 95 39h31q122 0 95 -126l-53 -252q-15 -70 -49 -101.5t-93 -31.5h-39q-68 0 -78 44zM235 416q-43 0 -58 -59l-43 -205q-10 -57 33 -57h52q45 0 58 63l41 192q7 36 -0.5 51t-31.5 15h-51z" />
    <glyph glyph-name="ydieresis" unicode="&#xff;" horiz-adv-x="390" 
d="M31 -127q21 0 36 14t33 55l24 55h-28l-15 508h102l2 -370l163 370h106l-270 -581q-43 -92 -81 -120.5t-102 -28.5h-62l35 98h57zM178 676h81l-21 -100h-81zM323 676h82l-21 -100h-82z" />
    <glyph glyph-name="Amacron" unicode="&#x100;" horiz-adv-x="474" 
d="M298 710h106l35 -710h-110l-3 130h-195l-57 -130h-110zM318 549l-139 -313h145zM499 844l-33 -91h-204l34 91h203z" />
    <glyph glyph-name="amacron" unicode="&#x101;" horiz-adv-x="393" 
d="M237 0l2 51q-21 -31 -41.5 -41t-58.5 -10h-35q-60 0 -82 29t-9 91l17 73q22 112 107 112h148l13 59q10 49 -25 49h-56q-35 0 -45 -48l-2 -11h-91l8 40q24 117 108 117h114q119 0 93 -117l-83 -394h-82zM137 98h65q39 0 52 59l12 57h-113q-18 0 -26 -11.5t-13 -37.5
l-5 -23q-6 -26 1.5 -35t26.5 -9zM419 674l-34 -91h-204l35 91h203z" />
    <glyph glyph-name="Abreve" unicode="&#x102;" horiz-adv-x="474" 
d="M298 710h106l35 -710h-110l-3 130h-195l-57 -130h-110zM318 549l-139 -313h145zM374 746h-26q-52 0 -65 17t0 76l3 13h56l-4 -15q-6 -33 20 -33h29q27 0 33 33l4 15h57l-3 -13q-13 -59 -31.5 -76t-72.5 -17z" />
    <glyph glyph-name="abreve" unicode="&#x103;" horiz-adv-x="393" 
d="M237 0l2 51q-21 -31 -41.5 -41t-58.5 -10h-35q-60 0 -82 29t-9 91l17 73q22 112 107 112h148l13 59q10 49 -25 49h-56q-35 0 -45 -48l-2 -11h-91l8 40q24 117 108 117h114q119 0 93 -117l-83 -394h-82zM137 98h65q39 0 52 59l12 57h-113q-18 0 -26 -11.5t-13 -37.5
l-5 -23q-6 -26 1.5 -35t26.5 -9zM294 576h-26q-52 0 -65 17t0 76l2 13h56l-3 -15q-7 -33 20 -33h29q26 0 33 33l3 15h57l-2 -13q-13 -59 -31.5 -76t-72.5 -17z" />
    <glyph glyph-name="Aogonek" unicode="&#x104;" horiz-adv-x="474" 
d="M258 -125l4 18q6 28 18.5 43.5t36.5 30.5q30 18 37 33h-25l-3 130h-195l-57 -130h-110l334 710h106l35 -710h-35l-3 -14q-6 -25 -14 -35.5t-30 -23.5q-20 -14 -26 -20.5t-8 -17.5q-4 -18 10 -18h66l-19 -58h-72q-63 0 -50 62zM318 549l-139 -313h145z" />
    <glyph glyph-name="aogonek" unicode="&#x105;" horiz-adv-x="394" 
d="M237 0l2 51q-21 -31 -41.5 -41t-58.5 -10h-35q-60 0 -82 29t-9 91l17 73q22 112 107 112h148l13 59q10 49 -25 49h-56q-35 0 -45 -48l-2 -11h-91l8 40q24 117 108 117h114q119 0 93 -117l-83 -394h-17l-3 -10q-5 -24 -13 -34.5t-30 -24.5q-20 -14 -26 -20.5t-8 -17.5
q-4 -18 10 -18h66l-19 -58h-72q-63 0 -50 62l4 18q6 28 18.5 43.5t36.5 30.5q29 18 35 29h-14zM137 98h65q39 0 52 59l12 57h-113q-18 0 -26 -11.5t-13 -37.5l-5 -23q-6 -26 1.5 -35t26.5 -9z" />
    <glyph glyph-name="Cacute" unicode="&#x106;" horiz-adv-x="464" 
d="M177 106h97q44 0 58 65l10 47h105l-16 -76q-16 -72 -50.5 -107t-93.5 -35h-139q-74 0 -102 35t-12 107l14 69h1l76 357q15 72 50 107t95 35h139q73 0 100 -35t12 -107l-15 -74h-105l9 45q7 35 0 50t-30 15h-98q-44 0 -58 -65l-78 -368q-14 -65 31 -65zM384 750h-80
l96 144h113z" />
    <glyph glyph-name="cacute" unicode="&#x107;" horiz-adv-x="389" 
d="M283 408h-62q-37 0 -49 -58l-41 -194q-7 -32 -1 -45t26 -13h61q21 0 31.5 11.5t16.5 40.5l6 25h91l-10 -45q-14 -67 -42.5 -98.5t-76.5 -31.5h-104q-130 0 -102 134l52 238q14 68 45 101.5t83 33.5h111q117 0 88 -128l-11 -50h-92l5 21q13 58 -25 58zM312 580h-80l95 144
h113z" />
    <glyph glyph-name="Ccircumflex" unicode="&#x108;" horiz-adv-x="464" 
d="M177 106h97q44 0 58 65l10 47h105l-16 -76q-16 -72 -50.5 -107t-93.5 -35h-139q-74 0 -102 35t-12 107l14 69h1l76 357q15 72 50 107t95 35h139q73 0 100 -35t12 -107l-15 -74h-105l9 45q7 35 0 50t-30 15h-98q-44 0 -58 -65l-78 -368q-14 -65 31 -65zM356 854h55
l74 -105h-93l-23 40h-1l-38 -40h-92z" />
    <glyph glyph-name="ccircumflex" unicode="&#x109;" horiz-adv-x="389" 
d="M283 408h-62q-37 0 -49 -58l-41 -194q-7 -32 -1 -45t26 -13h61q21 0 31.5 11.5t16.5 40.5l6 25h91l-10 -45q-14 -67 -42.5 -98.5t-76.5 -31.5h-104q-130 0 -102 134l52 238q14 68 45 101.5t83 33.5h111q117 0 88 -128l-11 -50h-92l5 21q13 58 -25 58zM285 684h55l74 -105
h-93l-23 40h-1l-38 -40h-92z" />
    <glyph glyph-name="Cdotaccent" unicode="&#x10a;" horiz-adv-x="464" 
d="M177 106h97q44 0 58 65l10 47h105l-16 -76q-16 -72 -50.5 -107t-93.5 -35h-139q-74 0 -102 35t-12 107l14 69h1l76 357q15 72 50 107t95 35h139q73 0 100 -35t12 -107l-15 -74h-105l9 45q7 35 0 50t-30 15h-98q-44 0 -58 -65l-78 -368q-14 -65 31 -65zM337 868h102
l-25 -116h-102z" />
    <glyph glyph-name="cdotaccent" unicode="&#x10b;" horiz-adv-x="389" 
d="M283 408h-62q-37 0 -49 -58l-41 -194q-7 -32 -1 -45t26 -13h61q21 0 31.5 11.5t16.5 40.5l6 25h91l-10 -45q-14 -67 -42.5 -98.5t-76.5 -31.5h-104q-130 0 -102 134l52 238q14 68 45 101.5t83 33.5h111q117 0 88 -128l-11 -50h-92l5 21q13 58 -25 58zM259 667h102
l-24 -116h-102z" />
    <glyph glyph-name="Ccaron" unicode="&#x10c;" horiz-adv-x="464" 
d="M177 106h97q44 0 58 65l10 47h105l-16 -76q-16 -72 -50.5 -107t-93.5 -35h-139q-74 0 -102 35t-12 107l14 69h1l76 357q15 72 50 107t95 35h139q73 0 100 -35t12 -107l-15 -74h-105l9 45q7 35 0 50t-30 15h-98q-44 0 -58 -65l-78 -368q-14 -65 31 -65zM394 749h-62
l-69 107h88l23 -53l46 53h86z" />
    <glyph glyph-name="ccaron" unicode="&#x10d;" horiz-adv-x="389" 
d="M283 408h-62q-37 0 -49 -58l-41 -194q-7 -32 -1 -45t26 -13h61q21 0 31.5 11.5t16.5 40.5l6 25h91l-10 -45q-14 -67 -42.5 -98.5t-76.5 -31.5h-104q-130 0 -102 134l52 238q14 68 45 101.5t83 33.5h111q117 0 88 -128l-11 -50h-92l5 21q13 58 -25 58zM322 579h-62
l-69 107h88l23 -53l46 53h86z" />
    <glyph glyph-name="Dcaron" unicode="&#x10e;" horiz-adv-x="494" 
d="M136 604l22 106h229q94 0 130 -42.5t16 -129.5l-78 -366q-19 -88 -64.5 -130t-124.5 -42h-258l22 106h1l106 498h-1zM361 229l59 278q10 50 -3 73.5t-51 23.5h-124l-106 -498h123q40 0 64 24.5t35 77.5l4 21h-1zM398 749h-62l-69 107h88l23 -53l46 53h86z" />
    <glyph glyph-name="dcaron" unicode="&#x10f;" 
d="M495 740l-157 -740h-83l3 58q-31 -58 -105 -58h-46q-107 0 -81 126l52 244q30 141 144 141h46q31 0 47 -9.5t24 -33.5l53 251l86 21h17zM215 95q41 0 57 57l43 205q10 59 -32 59h-53q-44 0 -57 -63l-42 -195q-13 -63 31 -63h53zM527 760h131l-92 -226h-52z" />
    <glyph glyph-name="Dcroat" unicode="&#x110;" horiz-adv-x="497" 
d="M13 0l66 314h-56l34 91h42l64 305h227q95 0 130 -42t16 -130l-78 -366q-19 -88 -64.5 -130t-124.5 -42h-256zM369 604h-123l-42 -199h92l-35 -91h-77l-44 -208h123q40 0 63.5 24.5t34.5 77.5l63 299q20 97 -55 97z" />
    <glyph glyph-name="dcroat" unicode="&#x111;" 
d="M546 676l-36 -98h-52l-64 -305h2l-58 -273h-82l2 58q-31 -58 -105 -58h-46q-107 0 -81 126l52 244q30 141 144 141h46q30 0 46 -8.5t24 -30.5l22 106h-104l35 98h90l9 43l87 21h16l-14 -64h67zM279 195l38 181q0 40 -34 40h-53q-44 0 -57 -63l-42 -195q-13 -63 31 -63h53
q41 0 57 57l9 43h-2z" />
    <glyph glyph-name="Emacron" unicode="&#x112;" 
d="M241 604l-54 -255h202l-38 -105h-187l-29 -138h248l-36 -106h-339l150 710h353l-36 -106h-234zM486 844l-33 -91h-204l34 91h203z" />
    <glyph glyph-name="emacron" unicode="&#x113;" horiz-adv-x="393" 
d="M154 92h56q36 0 48 51l4 17h91l-6 -24q-16 -80 -47.5 -108t-102.5 -28h-47q-81 0 -110 29.5t-13 105.5l54 247q17 79 50 104t105 25h38q88 0 115.5 -25t10.5 -104l-13 -59q-15 -69 -42 -95.5t-98 -26.5h-107l-11 -51q-12 -58 25 -58zM287 420h-70q-31 0 -40 -45l-17 -83
h101q28 0 37 40l9 43q11 45 -20 45zM428 674l-34 -91h-204l35 91h203z" />
    <glyph glyph-name="Ebreve" unicode="&#x114;" 
d="M241 604l-54 -255h202l-38 -105h-187l-29 -138h248l-36 -106h-339l150 710h353l-36 -106h-234zM361 746h-26q-52 0 -65 17t0 76l3 13h56l-4 -15q-6 -33 20 -33h29q27 0 33 33l4 15h57l-3 -13q-13 -59 -31.5 -76t-72.5 -17z" />
    <glyph glyph-name="ebreve" unicode="&#x115;" horiz-adv-x="393" 
d="M154 92h56q36 0 48 51l4 17h91l-6 -24q-16 -80 -47.5 -108t-102.5 -28h-47q-81 0 -110 29.5t-13 105.5l54 247q17 79 50 104t105 25h38q88 0 115.5 -25t10.5 -104l-13 -59q-15 -69 -42 -95.5t-98 -26.5h-107l-11 -51q-12 -58 25 -58zM287 420h-70q-31 0 -40 -45l-17 -83
h101q28 0 37 40l9 43q11 45 -20 45zM304 576h-26q-52 0 -65 17t0 76l2 13h56l-3 -15q-7 -33 20 -33h29q26 0 33 33l3 15h57l-2 -13q-13 -59 -31.5 -76t-72.5 -17z" />
    <glyph glyph-name="Edotaccent" unicode="&#x116;" 
d="M241 604l-54 -255h202l-38 -105h-187l-29 -138h248l-36 -106h-339l150 710h353l-36 -106h-234zM322 868h102l-25 -116h-102z" />
    <glyph glyph-name="edotaccent" unicode="&#x117;" horiz-adv-x="393" 
d="M154 92h56q36 0 48 51l4 17h91l-6 -24q-16 -80 -47.5 -108t-102.5 -28h-47q-81 0 -110 29.5t-13 105.5l54 247q17 79 50 104t105 25h38q88 0 115.5 -25t10.5 -104l-13 -59q-15 -69 -42 -95.5t-98 -26.5h-107l-11 -51q-12 -58 25 -58zM287 420h-70q-31 0 -40 -45l-17 -83
h101q28 0 37 40l9 43q11 45 -20 45zM260 675h102l-25 -116h-102z" />
    <glyph glyph-name="Eogonek" unicode="&#x118;" 
d="M200 -123l4 18q6 29 19 44.5t37 29.5q28 18 36 31h-288l150 710h353l-36 -106h-234l-54 -255h202l-38 -105h-187l-29 -138h248l-36 -106h-1l-3 -12q-5 -24 -13.5 -34.5t-30.5 -24.5q-20 -14 -26 -20.5t-8 -17.5q-3 -18 11 -18h66l-20 -58h-72q-63 0 -50 62z" />
    <glyph glyph-name="eogonek" unicode="&#x119;" horiz-adv-x="393" 
d="M45 -120l4 18q6 29 19 44.5t37 29.5q29 20 34 28q-74 2 -100.5 31.5t-11.5 103.5l54 247q17 79 50 104t105 25h38q88 0 115.5 -25t10.5 -104l-13 -59q-15 -69 -42 -95.5t-98 -26.5h-107l-11 -51q-12 -58 25 -58h56q36 0 48 51l4 17h91l-6 -24q-16 -80 -47.5 -108
t-102.5 -28h-7l-2 -9q-6 -25 -14 -35.5t-30 -23.5q-20 -14 -26 -20.5t-8 -17.5q-4 -18 10 -18h66l-19 -58h-72q-63 0 -50 62zM287 420h-70q-31 0 -40 -45l-17 -83h101q28 0 37 40l9 43q11 45 -20 45z" />
    <glyph glyph-name="Ecaron" unicode="&#x11a;" 
d="M241 604l-54 -255h202l-38 -105h-187l-29 -138h248l-36 -106h-339l150 710h353l-36 -106h-234zM377 749h-62l-69 107h88l23 -53l46 53h86z" />
    <glyph glyph-name="ecaron" unicode="&#x11b;" horiz-adv-x="393" 
d="M154 92h56q36 0 48 51l4 17h91l-6 -24q-16 -80 -47.5 -108t-102.5 -28h-47q-81 0 -110 29.5t-13 105.5l54 247q17 79 50 104t105 25h38q88 0 115.5 -25t10.5 -104l-13 -59q-15 -69 -42 -95.5t-98 -26.5h-107l-11 -51q-12 -58 25 -58zM287 420h-70q-31 0 -40 -45l-17 -83
h101q28 0 37 40l9 43q11 45 -20 45zM322 579h-62l-69 107h88l23 -53l46 53h86z" />
    <glyph glyph-name="Gcircumflex" unicode="&#x11c;" horiz-adv-x="478" 
d="M261 267l38 106h188l-51 -238q-27 -135 -135 -135h-161q-69 0 -95.5 32.5t-11.5 99.5l94 443q27 135 133 135h164q69 0 94.5 -32t11.5 -100l-16 -77h-104l8 39q14 64 -31 64h-105q-44 0 -58 -67l-78 -367q-14 -64 30 -64h104q45 0 58 62l21 99h-98zM357 854h55l74 -105
h-93l-23 40h-1l-38 -40h-92z" />
    <glyph glyph-name="gcircumflex" unicode="&#x11d;" horiz-adv-x="408" 
d="M82 381q15 70 53 99t107 29h46q35 0 56 -7l77 71l51 -69l-75 -67q3 -21 -5 -56l-23 -110q-15 -70 -50 -98t-101 -30l-1 -4h-24q-15 0 -21.5 -4.5t-9.5 -19.5l-1 -4q-3 -17 3 -21h120q107 0 80 -125l-17 -80q-15 -71 -53.5 -98t-112.5 -27h-107q-75 0 -101 27t-11 98
l16 80q20 92 80 115q0 12 3 28l3 11q6 28 18 40q-41 27 -23 112zM121 -1q-38 0 -51 -63l-5 -22q-13 -63 25 -63h115q37 0 50 63l5 22q13 63 -24 63h-115zM268 422h-43q-38 0 -53 -66l-13 -60q-13 -66 25 -66h43q40 0 53 66l13 60q15 66 -25 66zM276 684h55l74 -105h-93
l-23 40h-1l-38 -40h-92z" />
    <glyph glyph-name="Gbreve" unicode="&#x11e;" horiz-adv-x="478" 
d="M261 267l38 106h188l-51 -238q-27 -135 -135 -135h-161q-69 0 -95.5 32.5t-11.5 99.5l94 443q27 135 133 135h164q69 0 94.5 -32t11.5 -100l-16 -77h-104l8 39q14 64 -31 64h-105q-44 0 -58 -67l-78 -367q-14 -64 30 -64h104q45 0 58 62l21 99h-98zM378 746h-26
q-52 0 -65 17t0 76l3 13h56l-4 -15q-6 -33 20 -33h29q27 0 33 33l4 15h57l-3 -13q-13 -59 -31.5 -76t-72.5 -17z" />
    <glyph glyph-name="gbreve" unicode="&#x11f;" horiz-adv-x="408" 
d="M82 381q15 70 53 99t107 29h46q35 0 56 -7l77 71l51 -69l-75 -67q3 -21 -5 -56l-23 -110q-15 -70 -50 -98t-101 -30l-1 -4h-24q-15 0 -21.5 -4.5t-9.5 -19.5l-1 -4q-3 -17 3 -21h120q107 0 80 -125l-17 -80q-15 -71 -53.5 -98t-112.5 -27h-107q-75 0 -101 27t-11 98
l16 80q20 92 80 115q0 12 3 28l3 11q6 28 18 40q-41 27 -23 112zM121 -1q-38 0 -51 -63l-5 -22q-13 -63 25 -63h115q37 0 50 63l5 22q13 63 -24 63h-115zM268 422h-43q-38 0 -53 -66l-13 -60q-13 -66 25 -66h43q40 0 53 66l13 60q15 66 -25 66zM296 576h-26q-52 0 -65 17
t0 76l2 13h56l-3 -15q-7 -33 20 -33h29q26 0 33 33l3 15h57l-2 -13q-13 -59 -31.5 -76t-72.5 -17z" />
    <glyph glyph-name="Gdotaccent" unicode="&#x120;" horiz-adv-x="478" 
d="M261 267l38 106h188l-51 -238q-27 -135 -135 -135h-161q-69 0 -95.5 32.5t-11.5 99.5l94 443q27 135 133 135h164q69 0 94.5 -32t11.5 -100l-16 -77h-104l8 39q14 64 -31 64h-105q-44 0 -58 -67l-78 -367q-14 -64 30 -64h104q45 0 58 62l21 99h-98zM338 867h102l-25 -116
h-102z" />
    <glyph glyph-name="gdotaccent" unicode="&#x121;" horiz-adv-x="408" 
d="M82 381q15 70 53 99t107 29h46q35 0 56 -7l77 71l51 -69l-75 -67q3 -21 -5 -56l-23 -110q-15 -70 -50 -98t-101 -30l-1 -4h-24q-15 0 -21.5 -4.5t-9.5 -19.5l-1 -4q-3 -17 3 -21h120q107 0 80 -125l-17 -80q-15 -71 -53.5 -98t-112.5 -27h-107q-75 0 -101 27t-11 98
l16 80q20 92 80 115q0 12 3 28l3 11q6 28 18 40q-41 27 -23 112zM121 -1q-38 0 -51 -63l-5 -22q-13 -63 25 -63h115q37 0 50 63l5 22q13 63 -24 63h-115zM268 422h-43q-38 0 -53 -66l-13 -60q-13 -66 25 -66h43q40 0 53 66l13 60q15 66 -25 66zM256 698h102l-25 -116h-102z
" />
    <glyph glyph-name="Gcommaaccent" unicode="&#x122;" horiz-adv-x="478" 
d="M261 267l38 106h188l-51 -238q-27 -135 -135 -135h-161q-69 0 -95.5 32.5t-11.5 99.5l94 443q27 135 133 135h164q69 0 94.5 -32t11.5 -100l-16 -77h-104l8 39q14 64 -31 64h-105q-44 0 -58 -67l-78 -367q-14 -64 30 -64h104q45 0 58 62l21 99h-98z" />
    <glyph glyph-name="gcommaaccent" unicode="&#x123;" horiz-adv-x="408" 
d="M82 381q15 70 53 99t107 29h46q35 0 56 -7l77 71l51 -69l-75 -67q3 -21 -5 -56l-23 -110q-15 -70 -50 -98t-101 -30l-1 -4h-24q-15 0 -21.5 -4.5t-9.5 -19.5l-1 -4q-3 -17 3 -21h120q107 0 80 -125l-17 -80q-15 -71 -53.5 -98t-112.5 -27h-107q-75 0 -101 27t-11 98
l16 80q20 92 80 115q0 12 3 28l3 11q6 28 18 40q-41 27 -23 112zM121 -1q-38 0 -51 -63l-5 -22q-13 -63 25 -63h115q37 0 50 63l5 22q13 63 -24 63h-115zM268 422h-43q-38 0 -53 -66l-13 -60q-13 -66 25 -66h43q40 0 53 66l13 60q15 66 -25 66zM344 564h-131l83 226h51z" />
    <glyph glyph-name="Hcircumflex" unicode="&#x124;" horiz-adv-x="489" 
d="M113 0h-105l150 710h105l-74 -349h192l74 349h105l-150 -710h-105l54 256h-192zM363 854h55l74 -105h-93l-23 40h-1l-38 -40h-92z" />
    <glyph glyph-name="hcircumflex" unicode="&#x125;" horiz-adv-x="407" 
d="M236 420q-42 0 -56 -50l-78 -370h-98l152 719l87 21h16l-57 -265q31 36 88 36h30q122 0 96 -125l-83 -386h-98l75 356q14 64 -29 64h-45zM351 697h55l73 -105h-93l-22 40h-1l-39 -40h-92z" />
    <glyph glyph-name="Hbar" unicode="&#x126;" horiz-adv-x="500" 
d="M118 0h-105l111 526h-54l34 91h40l19 93h105l-19 -93h192l19 93h105l-19 -93h55l-34 -91h-41l-111 -526h-105l54 256h-192zM229 526l-35 -165h192l35 165h-192z" />
    <glyph glyph-name="hbar" unicode="&#x127;" horiz-adv-x="407" 
d="M323 658l-32 -80h-66l-22 -103q32 36 88 36h30q122 0 96 -125l-83 -386h-98l75 356q14 64 -29 64h-45q-42 0 -56 -50l-78 -370h-98l122 578h-47l31 80h33l13 61l86 21h17l-18 -82h81z" />
    <glyph glyph-name="Itilde" unicode="&#x128;" horiz-adv-x="192" 
d="M113 0h-105l150 710h105zM297 846q34 0 43 -12t2 -48l-10 -45h-65l5 23q4 14 -6 14q-13 0 -25 -12l-16 -14q-15 -15 -65 -15q-34 0 -43 11.5t-1 48.5l9 44h65l-5 -23q-3 -14 6 -14q15 0 26 13l10 11q12 12 25 15t45 3z" />
    <glyph glyph-name="itilde" unicode="&#x129;" horiz-adv-x="199" 
d="M112 407h-52l21 98h150l-107 -505h-98zM276 676q34 0 43 -12t1 -48l-9 -45h-65l5 23q2 14 -6 14q-13 0 -25 -12l-16 -14q-16 -15 -65 -15q-34 0 -43 11.5t-1 48.5l9 44h65l-5 -23q-3 -14 6 -14q14 0 26 13l10 11q12 12 25 15t45 3z" />
    <glyph glyph-name="Imacron" unicode="&#x12a;" horiz-adv-x="192" 
d="M113 0h-105l150 710h105zM359 844l-33 -91h-204l34 91h203z" />
    <glyph glyph-name="imacron" unicode="&#x12b;" horiz-adv-x="199" 
d="M112 407h-52l21 98h150l-107 -505h-98zM338 674l-34 -91h-204l35 91h203z" />
    <glyph glyph-name="Ibreve" unicode="&#x12c;" horiz-adv-x="192" 
d="M113 0h-105l150 710h105zM233 746h-26q-52 0 -65 17t0 76l3 13h56l-4 -15q-6 -33 20 -33h29q27 0 33 33l4 15h57l-3 -13q-13 -59 -31.5 -76t-72.5 -17z" />
    <glyph glyph-name="ibreve" unicode="&#x12d;" horiz-adv-x="199" 
d="M112 407h-52l21 98h150l-107 -505h-98zM211 576h-26q-52 0 -65 17t0 76l2 13h56l-3 -15q-7 -33 20 -33h29q26 0 33 33l3 15h57l-2 -13q-13 -59 -31.5 -76t-72.5 -17z" />
    <glyph glyph-name="Iogonek" unicode="&#x12e;" horiz-adv-x="192" 
d="M-60 -124l4 18q6 29 18.5 44.5t36.5 29.5q30 19 36 32h-27l150 710h105l-150 -710h-28l-3 -13q-5 -24 -13.5 -34.5t-30.5 -24.5q-20 -14 -26 -20.5t-8 -17.5q-4 -18 10 -18h66l-19 -58h-72q-62 0 -49 62z" />
    <glyph glyph-name="iogonek" unicode="&#x12f;" horiz-adv-x="199" 
d="M-44 -120l4 18q6 29 18.5 44.5t36.5 29.5q29 20 34 28h-23l86 407h-52l21 98h150l-107 -505h-24l-2 -9q-6 -25 -14 -35.5t-30 -23.5q-20 -14 -26 -20.5t-8 -17.5q-4 -18 10 -18h66l-19 -58h-72q-62 0 -49 62zM153 627l25 121h110l-25 -121h-110z" />
    <glyph glyph-name="Idotaccent" unicode="&#x130;" horiz-adv-x="192" 
d="M177 793h102l-18 -83h2l-150 -710h-105l150 710h1z" />
    <glyph glyph-name="dotlessi" unicode="&#x131;" horiz-adv-x="199" 
d="M112 407h-52l21 98h150l-107 -505h-98z" />
    <glyph glyph-name="IJ" unicode="&#x132;" horiz-adv-x="499" 
d="M113 0h-105l150 710h105zM203 106h92q44 0 58 64l114 540h105l-119 -563q-31 -147 -152 -147h-134z" />
    <glyph glyph-name="Jcircumflex" unicode="&#x134;" horiz-adv-x="306" 
d="M10 106h92q44 0 58 64l114 540h105l-119 -563q-31 -147 -152 -147h-134zM331 854h55l74 -105h-93l-23 40h-1l-38 -40h-92z" />
    <glyph glyph-name="jcircumflex" unicode="&#x135;" horiz-adv-x="199" 
d="M112 407h-52l21 98h150l-125 -587q-26 -120 -129 -120h-70l34 98h27q36 0 46 52zM194 686h55l74 -105h-93l-23 40h-1l-38 -40h-92z" />
    <glyph glyph-name="Kcommaaccent" unicode="&#x136;" horiz-adv-x="455" 
d="M113 0h-105l150 710h105l-69 -327l262 327h116l-285 -355l144 -355h-118l-131 327zM161 -69h72l-17 -79l-74 -81h-15z" />
    <glyph glyph-name="kcommaaccent" unicode="&#x137;" horiz-adv-x="384" 
d="M446 505l-202 -256l96 -249h-107l-85 221l-46 -221h-98l152 719l87 21h16l-97 -457l176 222h108zM127 -51h76l-16 -72l-87 -111h-12z" />
    <glyph glyph-name="Lacute" unicode="&#x139;" horiz-adv-x="381" 
d="M263 710l-128 -604h230l-36 -106h-321l150 710h105zM253 750h-80l96 144h113z" />
    <glyph glyph-name="lacute" unicode="&#x13a;" horiz-adv-x="194" 
d="M152 94h14l-14 -99h-49q-103 0 -77 118l128 606l87 21h16l-127 -597q-10 -49 22 -49zM252 820h-80l95 144h113z" />
    <glyph glyph-name="Lcommaaccent" unicode="&#x13b;" horiz-adv-x="381" 
d="M263 710l-128 -604h230l-36 -106h-321l150 710h105zM118 -69h72l-17 -79l-74 -81h-15z" />
    <glyph glyph-name="lcommaaccent" unicode="&#x13c;" horiz-adv-x="194" 
d="M152 94h14l-14 -99h-49q-103 0 -77 118l128 606l87 21h16l-127 -597q-10 -49 22 -49zM31 -51h76l-16 -72l-87 -111h-12z" />
    <glyph glyph-name="Lcaron" unicode="&#x13d;" horiz-adv-x="387" 
d="M263 710l-128 -604h230l-36 -106h-321l150 710h105zM366 710h131l-92 -226h-52z" />
    <glyph glyph-name="lcaron" unicode="&#x13e;" horiz-adv-x="194" 
d="M152 94h14l-14 -99h-49q-103 0 -77 118l128 606l87 21h16l-127 -597q-10 -49 22 -49zM291 762h131l-92 -226h-52z" />
    <glyph glyph-name="Ldot" unicode="&#x13f;" horiz-adv-x="388" 
d="M263 710l-128 -604h230l-36 -106h-321l150 710h105zM287 262l26 121h110l-26 -121h-110z" />
    <glyph glyph-name="ldot" unicode="&#x140;" horiz-adv-x="292" 
d="M152 94h14l-14 -99h-49q-103 0 -77 118l128 606l87 21h16l-127 -597q-10 -49 22 -49zM206 306l25 121h110l-25 -121h-110z" />
    <glyph glyph-name="Lslash" unicode="&#x141;" horiz-adv-x="404" 
d="M286 710l-66 -312l76 33l14 -83l-111 -47l-41 -195h230l-36 -106h-321l53 252l-24 -10l-12 83l57 24l76 361h105z" />
    <glyph glyph-name="lslash" unicode="&#x142;" horiz-adv-x="261" 
d="M200 94h14l-14 -99h-49q-103 0 -77 118l42 198l-82 -36l21 100l82 36l65 308l87 21h16l-60 -281l78 35l-22 -99l-77 -35l-46 -217q-10 -49 22 -49z" />
    <glyph glyph-name="Nacute" unicode="&#x143;" horiz-adv-x="500" 
d="M113 0h-105l150 710h105l93 -454q4 -28 5 -42l105 496h105l-150 -710h-105l-89 433q-6 21 -8 66zM389 750h-80l96 144h113z" />
    <glyph glyph-name="nacute" unicode="&#x144;" horiz-adv-x="406" 
d="M3 0l102 484l81 21h15l-9 -41q35 47 97 47h30q122 0 96 -125l-82 -386h-99l75 356q14 64 -30 64h-45q-20 0 -35 -14.5t-20 -37.5l-78 -368h-98zM321 580h-80l95 144h113z" />
    <glyph glyph-name="Ncommaaccent" unicode="&#x145;" horiz-adv-x="500" 
d="M113 0h-105l150 710h105l93 -454q4 -28 5 -42l105 496h105l-150 -710h-105l-89 433q-6 21 -8 66zM166 -36h76l-15 -72l-88 -111h-12z" />
    <glyph glyph-name="ncommaaccent" unicode="&#x146;" horiz-adv-x="406" 
d="M3 0l102 484l81 21h15l-9 -41q35 47 97 47h30q122 0 96 -125l-82 -386h-99l75 356q14 64 -30 64h-45q-20 0 -35 -14.5t-20 -37.5l-78 -368h-98zM121 -51h76l-16 -72l-87 -111h-12z" />
    <glyph glyph-name="Ncaron" unicode="&#x147;" horiz-adv-x="500" 
d="M113 0h-105l150 710h105l93 -454q4 -28 5 -42l105 496h105l-150 -710h-105l-89 433q-6 21 -8 66zM399 749h-62l-69 107h88l23 -53l46 53h86z" />
    <glyph glyph-name="ncaron" unicode="&#x148;" horiz-adv-x="406" 
d="M3 0l102 484l81 21h15l-9 -41q35 47 97 47h30q122 0 96 -125l-82 -386h-99l75 356q14 64 -30 64h-45q-20 0 -35 -14.5t-20 -37.5l-78 -368h-98zM330 579h-62l-69 107h88l23 -53l46 53h86z" />
    <glyph glyph-name="napostrophe" unicode="&#x149;" horiz-adv-x="406" 
d="M3 0l102 484l81 21h15l-9 -41q35 47 97 47h30q122 0 96 -125l-82 -386h-99l75 356q14 64 -30 64h-45q-20 0 -35 -14.5t-20 -37.5l-78 -368h-69l-23 -29h-12l7 29h-1z" />
    <glyph glyph-name="Eng" unicode="&#x14a;" horiz-adv-x="500" 
d="M158 -98h92q44 0 57 64l8 36l-88 431q-6 21 -8 66l-106 -499h-105l150 710h105l93 -454l5 -39l61 289h1l43 204h105l-150 -710h-1l-13 -57q-30 -147 -152 -147h-134z" />
    <glyph glyph-name="eng" unicode="&#x14b;" horiz-adv-x="406" 
d="M176 -104q36 0 46 52l87 408q14 64 -30 64h-45q-20 0 -35 -14.5t-20 -37.5l-78 -368h-98l102 484l81 21h15l-9 -41q35 47 97 47h30q122 0 96 -125l-82 -386h-1l-18 -82q-26 -120 -130 -120h-71l36 98h27z" />
    <glyph glyph-name="Omacron" unicode="&#x14c;" horiz-adv-x="500" 
d="M34 142l14 69h1l76 357q15 72 50 107t95 35h162q73 0 100 -35t12 -107l-90 -426q-16 -72 -50.5 -107t-93.5 -35h-162q-74 0 -102 35t-12 107zM403 604h-121q-44 0 -58 -65l-78 -368q-14 -65 31 -65h120q44 0 58 65l78 368q7 35 0 50t-30 15zM509 844l-33 -91h-204l34 91
h203z" />
    <glyph glyph-name="omacron" unicode="&#x14d;" horiz-adv-x="411" 
d="M207 511h111q132 0 101 -135l-52 -244q-29 -132 -135 -132h-110q-123 0 -95 132l52 244q15 68 46 101.5t82 33.5zM292 416h-69q-37 0 -49 -58l-44 -206q-13 -57 25 -57h69q20 0 31 13t18 44l44 206q12 58 -25 58zM431 674l-34 -91h-204l35 91h203z" />
    <glyph glyph-name="Obreve" unicode="&#x14e;" horiz-adv-x="500" 
d="M34 142l14 69h1l76 357q15 72 50 107t95 35h162q73 0 100 -35t12 -107l-90 -426q-16 -72 -50.5 -107t-93.5 -35h-162q-74 0 -102 35t-12 107zM403 604h-121q-44 0 -58 -65l-78 -368q-14 -65 31 -65h120q44 0 58 65l78 368q7 35 0 50t-30 15zM385 746h-26q-52 0 -65 17
t0 76l3 13h56l-4 -15q-6 -33 20 -33h29q27 0 33 33l4 15h57l-3 -13q-13 -59 -31.5 -76t-72.5 -17z" />
    <glyph glyph-name="obreve" unicode="&#x14f;" horiz-adv-x="410" 
d="M207 511h111q132 0 101 -135l-52 -244q-29 -132 -135 -132h-110q-123 0 -95 132l52 244q15 68 46 101.5t82 33.5zM292 416h-69q-37 0 -49 -58l-44 -206q-13 -57 25 -57h69q20 0 31 13t18 44l44 206q12 58 -25 58zM306 576h-26q-52 0 -65 17t0 76l2 13h56l-3 -15
q-7 -33 20 -33h29q26 0 33 33l3 15h57l-2 -13q-13 -59 -31.5 -76t-72.5 -17z" />
    <glyph glyph-name="Ohungarumlaut" unicode="&#x150;" horiz-adv-x="500" 
d="M34 142l14 69h1l76 357q15 72 50 107t95 35h162q73 0 100 -35t12 -107l-90 -426q-16 -72 -50.5 -107t-93.5 -35h-162q-74 0 -102 35t-12 107zM403 604h-121q-44 0 -58 -65l-78 -368q-14 -65 31 -65h120q44 0 58 65l78 368q7 35 0 50t-30 15zM376 903h88l-115 -153h-60z
M472 903h87l-116 -153h-59z" />
    <glyph glyph-name="ohungarumlaut" unicode="&#x151;" horiz-adv-x="410" 
d="M207 511h111q132 0 101 -135l-52 -244q-29 -132 -135 -132h-110q-123 0 -95 132l52 244q15 68 46 101.5t82 33.5zM292 416h-69q-37 0 -49 -58l-44 -206q-13 -57 25 -57h69q20 0 31 13t18 44l44 206q12 58 -25 58zM297 732h88l-115 -153h-60zM393 732h87l-116 -153h-59z
" />
    <glyph glyph-name="OE" unicode="&#x152;" horiz-adv-x="728" 
d="M556 604l-2 -11q-1 -6 -5 -25l-15 -74h-1l-31 -145h202l-38 -105h-187l-5 -26h1l-16 -76q-1 -6 -4 -15.5t-3 -11.5l-2 -9h248l-36 -106h-514q-74 0 -102 35t-12 107l14 69h1l76 357q15 72 50 107t95 35h166q19 0 37 -3v3h353l-36 -106h-234zM407 604h-125q-44 0 -58 -65
l-78 -368q-14 -65 31 -65h124q38 0 54 45l86 408q4 45 -34 45z" />
    <glyph glyph-name="oe" unicode="&#x153;" horiz-adv-x="636" 
d="M397 92h56q36 0 48 51l4 17h91l-6 -24q-16 -80 -47.5 -108t-102.5 -28h-47q-66 0 -94 16q-28 -16 -67 -16h-110q-123 0 -95 132l52 244q15 68 46 101.5t82 33.5h111q44 0 71 -15q27 15 90 15h38q88 0 115.5 -25t10.5 -104l-13 -59q-15 -69 -42 -95.5t-98 -26.5h-107
l-11 -51q-12 -58 25 -58zM292 416h-69q-37 0 -49 -58l-44 -206q-13 -57 25 -57h69q20 0 31 13t18 44l44 206q12 58 -25 58zM530 420h-70q-31 0 -40 -45l-17 -83h101q28 0 37 40l9 43q10 45 -20 45z" />
    <glyph glyph-name="Racute" unicode="&#x154;" horiz-adv-x="464" 
d="M8 0l150 710h248q139 0 109 -135l-42 -191q-27 -129 -128 -135l83 -249h-120l-83 249h-60l-52 -249h-105zM241 604l-53 -249h129q46 0 60 67l25 115q14 67 -32 67h-129zM365 750h-80l96 144h113z" />
    <glyph glyph-name="racute" unicode="&#x155;" horiz-adv-x="278" 
d="M327 425l-102 -34q-25 -7 -37 -21.5t-18 -43.5l-69 -326h-98l102 484l81 21h15l-13 -61q23 34 55 46l90 31h7zM228 574h-80l95 144h113z" />
    <glyph glyph-name="Rcommaaccent" unicode="&#x156;" horiz-adv-x="464" 
d="M8 0l150 710h248q139 0 109 -135l-42 -191q-27 -129 -128 -135l83 -249h-120l-83 249h-60l-52 -249h-105zM241 604l-53 -249h129q46 0 60 67l25 115q14 67 -32 67h-129zM176 -51h76l-16 -72l-87 -111h-12z" />
    <glyph glyph-name="rcommaaccent" unicode="&#x157;" horiz-adv-x="278" 
d="M327 425l-102 -34q-25 -7 -37 -21.5t-18 -43.5l-69 -326h-98l102 484l81 21h15l-13 -61q23 34 55 46l90 31h7zM72 -51h76l-16 -72l-87 -111h-12z" />
    <glyph glyph-name="Rcaron" unicode="&#x158;" horiz-adv-x="464" 
d="M8 0l150 710h248q139 0 109 -135l-42 -191q-27 -129 -128 -135l83 -249h-120l-83 249h-60l-52 -249h-105zM241 604l-53 -249h129q46 0 60 67l25 115q14 67 -32 67h-129zM374 749h-62l-69 107h88l23 -53l46 53h86z" />
    <glyph glyph-name="rcaron" unicode="&#x159;" horiz-adv-x="278" 
d="M327 425l-102 -34q-25 -7 -37 -21.5t-18 -43.5l-69 -326h-98l102 484l81 21h15l-13 -61q23 34 55 46l90 31h7zM239 574h-62l-69 107h88l23 -53l46 53h86z" />
    <glyph glyph-name="Sacute" unicode="&#x15a;" horiz-adv-x="444" 
d="M295 273l-115 74q-26 17 -37.5 25.5t-24 22t-15.5 26t-3 31t5 44.5l19 88q14 64 44 95t81 31h143q134 0 103 -126l-18 -83h-105l10 46q12 57 -26 57h-85q-40 0 -51 -58l-7 -29q-10 -51 23 -70l115 -75q4 -3 17.5 -12l16.5 -11t13.5 -9.5t12.5 -10t9 -10t7.5 -12t4 -12
t3 -14.5t-1.5 -16.5t-3 -20.5l-25 -119q-26 -125 -125 -125h-160q-132 0 -102 125l20 93h104l-12 -56q-11 -56 26 -56h103q38 0 49 56l9 43q10 48 -22 68zM368 750h-80l96 144h113z" />
    <glyph glyph-name="sacute" unicode="&#x15b;" horiz-adv-x="373" 
d="M271 420h-64q-30 0 -39 -43l-3 -12q-4 -21 2 -29.5t26 -15.5l83 -29q55 -17 68.5 -39t0.5 -83l-12 -57q-13 -62 -46.5 -87t-97.5 -25h-78q-72 0 -90.5 27.5t-3.5 100.5l6 29h90l-5 -21q-9 -45 20 -45h81q29 0 38 43l3 14q10 42 -25 55l-82 28q-63 20 -74 41t4 82l8 37
q13 66 43 93t102 27h63q73 0 91 -28.5t2 -103.5l-6 -30h-91l5 26q10 45 -19 45zM295 580h-80l95 144h113z" />
    <glyph glyph-name="Scircumflex" unicode="&#x15c;" horiz-adv-x="444" 
d="M295 273l-115 74q-26 17 -37.5 25.5t-24 22t-15.5 26t-3 31t5 44.5l19 88q14 64 44 95t81 31h143q134 0 103 -126l-18 -83h-105l10 46q12 57 -26 57h-85q-40 0 -51 -58l-7 -29q-10 -51 23 -70l115 -75q4 -3 17.5 -12l16.5 -11t13.5 -9.5t12.5 -10t9 -10t7.5 -12t4 -12
t3 -14.5t-1.5 -16.5t-3 -20.5l-25 -119q-26 -125 -125 -125h-160q-132 0 -102 125l20 93h104l-12 -56q-11 -56 26 -56h103q38 0 49 56l9 43q10 48 -22 68zM340 854h55l74 -105h-93l-23 40h-1l-38 -40h-92z" />
    <glyph glyph-name="scircumflex" unicode="&#x15d;" horiz-adv-x="373" 
d="M271 420h-64q-30 0 -39 -43l-3 -12q-4 -21 2 -29.5t26 -15.5l83 -29q55 -17 68.5 -39t0.5 -83l-12 -57q-13 -62 -46.5 -87t-97.5 -25h-78q-72 0 -90.5 27.5t-3.5 100.5l6 29h90l-5 -21q-9 -45 20 -45h81q29 0 38 43l3 14q10 42 -25 55l-82 28q-63 20 -74 41t4 82l8 37
q13 66 43 93t102 27h63q73 0 91 -28.5t2 -103.5l-6 -30h-91l5 26q10 45 -19 45zM268 684h55l74 -105h-93l-23 40h-1l-38 -40h-92z" />
    <glyph glyph-name="Scedilla" unicode="&#x15e;" horiz-adv-x="444" 
d="M178 -80l-20 10q-20 9 -14 38l7 32h-31q-132 0 -102 125l20 93h104l-12 -56q-11 -56 26 -56h103q38 0 49 56l9 43q10 48 -22 68l-115 74q-26 17 -37.5 25.5t-24 22t-15.5 26t-3 31t5 44.5l19 88q14 64 44 95t81 31h143q134 0 103 -126l-18 -83h-105l10 46q12 57 -26 57
h-85q-40 0 -51 -58l-7 -29q-10 -51 23 -70l115 -75q4 -3 17.5 -12l16.5 -11t13.5 -9.5t12.5 -10t9 -10t7.5 -12t4 -12t3 -14.5t-1.5 -16.5t-3 -20.5l-25 -119q-26 -125 -125 -125h-67l-3 -12q-3 -12 8 -17l19 -10q20 -11 11 -51l-7 -35q-8 -38 -22 -49.5t-52 -11.5h-32
q-40 0 -48.5 12t0.5 53l3 17h56l-1 -5q-3 -16 8 -16h18q11 0 14 16l2 10q4 14 -9 19z" />
    <glyph glyph-name="scedilla" unicode="&#x15f;" horiz-adv-x="374" 
d="M141 -80l-20 10q-20 9 -14 38l7 32h-3q-72 0 -90.5 27.5t-3.5 100.5l6 29h90l-5 -21q-9 -45 20 -45h81q29 0 38 43l3 14q10 42 -25 55l-82 28q-63 20 -74 41t4 82l8 37q13 66 43 93t102 27h63q73 0 91 -28.5t2 -103.5l-6 -30h-91l5 26q10 45 -19 45h-64q-30 0 -39 -43
l-3 -12q-4 -21 2 -29.5t26 -15.5l83 -29q55 -17 68.5 -39t0.5 -83l-12 -57q-13 -62 -46.5 -87t-97.5 -25h-13l-3 -12q-3 -12 8 -17l19 -10q20 -11 11 -51l-7 -35q-8 -38 -22 -49.5t-52 -11.5h-32q-40 0 -48.5 12t0.5 53l3 17h56l-1 -5q-3 -16 8 -16h18q11 0 14 16l2 10
q4 14 -9 19z" />
    <glyph glyph-name="Scaron" unicode="&#x160;" horiz-adv-x="444" 
d="M295 273l-115 74q-26 17 -37.5 25.5t-24 22t-15.5 26t-3 31t5 44.5l19 88q14 64 44 95t81 31h143q134 0 103 -126l-18 -83h-105l10 46q12 57 -26 57h-85q-40 0 -51 -58l-7 -29q-10 -51 23 -70l115 -75q4 -3 17.5 -12l16.5 -11t13.5 -9.5t12.5 -10t9 -10t7.5 -12t4 -12
t3 -14.5t-1.5 -16.5t-3 -20.5l-25 -119q-26 -125 -125 -125h-160q-132 0 -102 125l20 93h104l-12 -56q-11 -56 26 -56h103q38 0 49 56l9 43q10 48 -22 68zM377 749h-62l-69 107h88l23 -53l46 53h86z" />
    <glyph glyph-name="scaron" unicode="&#x161;" horiz-adv-x="373" 
d="M271 420h-64q-30 0 -39 -43l-3 -12q-4 -21 2 -29.5t26 -15.5l83 -29q55 -17 68.5 -39t0.5 -83l-12 -57q-13 -62 -46.5 -87t-97.5 -25h-78q-72 0 -90.5 27.5t-3.5 100.5l6 29h90l-5 -21q-9 -45 20 -45h81q29 0 38 43l3 14q10 42 -25 55l-82 28q-63 20 -74 41t4 82l8 37
q13 66 43 93t102 27h63q73 0 91 -28.5t2 -103.5l-6 -30h-91l5 26q10 45 -19 45zM306 579h-62l-69 107h88l23 -53l46 53h86z" />
    <glyph glyph-name="Tcommaaccent" unicode="&#x162;" horiz-adv-x="402" 
d="M485 604h-139l-128 -604h-106l128 604h-139l22 106h384zM116 -51h76l-16 -72l-87 -111h-12z" />
    <glyph glyph-name="Tcaron" unicode="&#x164;" horiz-adv-x="402" 
d="M485 604h-139l-128 -604h-106l128 604h-139l22 106h384zM354 749h-62l-69 107h88l23 -53l46 53h86z" />
    <glyph glyph-name="tcaron" unicode="&#x165;" horiz-adv-x="270" 
d="M329 505l-28 -98h-74l-53 -251q-13 -58 24 -58h30l-12 -98h-59q-114 0 -86 133l58 274h-59l28 98h52l17 80l104 60h7l-30 -140h81zM319 743h115l-81 -200h-45z" />
    <glyph glyph-name="Tbar" unicode="&#x166;" horiz-adv-x="404" 
d="M485 604h-139l-25 -115h58l-32 -88h-44l-85 -401h-106l85 401h-61l31 88h48l25 115h-139l22 106h384z" />
    <glyph glyph-name="Utilde" unicode="&#x168;" horiz-adv-x="479" 
d="M272 106q24 0 38.5 16.5t22.5 53.5l113 534h105l-121 -572q-30 -138 -138 -138h-149q-139 0 -109 138l121 572h106l-113 -534q-16 -70 31 -70h93zM439 846q34 0 43 -12t2 -48l-10 -45h-65l5 23q4 14 -6 14q-13 0 -25 -12l-16 -14q-15 -15 -65 -15q-34 0 -43 11.5t-1 48.5
l9 44h65l-5 -23q-3 -14 6 -14q15 0 26 13l10 11q12 12 25 15t45 3z" />
    <glyph glyph-name="utilde" unicode="&#x169;" horiz-adv-x="406" 
d="M438 505l-107 -505h-70v44q-40 -44 -102 -44h-43q-115 0 -86 132l79 373h98l-75 -350q-13 -64 32 -64h43q20 0 35 14.5t21 37.5l77 362h98zM362 676q34 0 43 -12t1 -48l-9 -45h-65l5 23q2 14 -6 14q-13 0 -25 -12l-16 -14q-16 -15 -65 -15q-34 0 -43 11.5t-1 48.5l9 44
h65l-5 -23q-3 -14 6 -14q14 0 26 13l10 11q12 12 25 15t45 3z" />
    <glyph glyph-name="Umacron" unicode="&#x16a;" horiz-adv-x="479" 
d="M272 106q24 0 38.5 16.5t22.5 53.5l113 534h105l-121 -572q-30 -138 -138 -138h-149q-139 0 -109 138l121 572h106l-113 -534q-16 -70 31 -70h93zM501 844l-33 -91h-204l34 91h203z" />
    <glyph glyph-name="umacron" unicode="&#x16b;" horiz-adv-x="406" 
d="M438 505l-107 -505h-70v44q-40 -44 -102 -44h-43q-115 0 -86 132l79 373h98l-75 -350q-13 -64 32 -64h43q20 0 35 14.5t21 37.5l77 362h98zM422 674l-34 -91h-204l35 91h203z" />
    <glyph glyph-name="Ubreve" unicode="&#x16c;" horiz-adv-x="479" 
d="M272 106q24 0 38.5 16.5t22.5 53.5l113 534h105l-121 -572q-30 -138 -138 -138h-149q-139 0 -109 138l121 572h106l-113 -534q-16 -70 31 -70h93zM376 746h-26q-52 0 -65 17t0 76l3 13h56l-4 -15q-6 -33 20 -33h29q27 0 33 33l4 15h57l-3 -13q-13 -59 -31.5 -76
t-72.5 -17z" />
    <glyph glyph-name="ubreve" unicode="&#x16d;" horiz-adv-x="406" 
d="M438 505l-107 -505h-70v44q-40 -44 -102 -44h-43q-115 0 -86 132l79 373h98l-75 -350q-13 -64 32 -64h43q20 0 35 14.5t21 37.5l77 362h98zM297 576h-26q-52 0 -65 17t0 76l2 13h56l-3 -15q-7 -33 20 -33h29q26 0 33 33l3 15h57l-2 -13q-13 -59 -31.5 -76t-72.5 -17z" />
    <glyph glyph-name="Uring" unicode="&#x16e;" horiz-adv-x="479" 
d="M272 106q24 0 38.5 16.5t22.5 53.5l113 534h105l-121 -572q-30 -138 -138 -138h-149q-139 0 -109 138l121 572h106l-113 -534q-16 -70 31 -70h93zM370 910h51q41 0 50 -15t-1 -64l-6 -31q-11 -50 -26 -64.5t-55 -14.5h-52q-40 0 -49.5 14.5t1.5 64.5l6 31q11 50 26 64.5
t55 14.5zM407 804l5 22q6 25 -14 25h-29q-19 0 -25 -25l-5 -22q-4 -25 15 -25h29q20 0 24 25z" />
    <glyph glyph-name="uring" unicode="&#x16f;" horiz-adv-x="406" 
d="M438 505l-107 -505h-70v44q-40 -44 -102 -44h-43q-115 0 -86 132l79 373h98l-75 -350q-13 -64 32 -64h43q20 0 35 14.5t21 37.5l77 362h98zM292 740h51q41 0 50 -15t-1 -64l-7 -31q-11 -50 -25.5 -64.5t-54.5 -14.5h-52q-40 0 -49.5 14.5t0.5 64.5l7 31q11 50 26 64.5
t55 14.5zM329 634l5 22q6 25 -14 25h-29q-19 0 -25 -25l-5 -22q-4 -25 15 -25h29q18 0 24 25z" />
    <glyph glyph-name="Uhungarumlaut" unicode="&#x170;" horiz-adv-x="479" 
d="M272 106q24 0 38.5 16.5t22.5 53.5l113 534h105l-121 -572q-30 -138 -138 -138h-149q-139 0 -109 138l121 572h106l-113 -534q-16 -70 31 -70h93zM368 903h88l-115 -153h-60zM464 903h87l-116 -153h-59z" />
    <glyph glyph-name="uhungarumlaut" unicode="&#x171;" horiz-adv-x="406" 
d="M438 505l-107 -505h-70v44q-40 -44 -102 -44h-43q-115 0 -86 132l79 373h98l-75 -350q-13 -64 32 -64h43q20 0 35 14.5t21 37.5l77 362h98zM288 732h88l-115 -153h-60zM384 732h87l-116 -153h-59z" />
    <glyph glyph-name="Uogonek" unicode="&#x172;" horiz-adv-x="479" 
d="M85 -115l4 18q6 29 19 44.5t37 29.5q19 12 30 23h-32q-139 0 -109 138l121 572h106l-113 -534q-16 -70 31 -70h93q24 0 38.5 16.5t22.5 53.5l113 534h105l-121 -572q-30 -138 -138 -138h-63l-1 -4q-6 -25 -14 -35.5t-30 -23.5q-20 -14 -26 -20.5t-8 -17.5q-4 -18 10 -18
h66l-19 -58h-72q-63 0 -50 62z" />
    <glyph glyph-name="uogonek" unicode="&#x173;" horiz-adv-x="406" 
d="M164 -119l4 18q6 29 19 44.5t37 29.5q33 22 36 34l1 37q-40 -44 -102 -44h-43q-115 0 -86 132l79 373h98l-75 -350q-13 -64 32 -64h43q20 0 35 14.5t21 37.5l77 362h98l-107 -505h-22l-2 -8q-5 -24 -13.5 -34.5t-30.5 -24.5q-20 -14 -26 -20.5t-8 -17.5q-4 -18 10 -18h66
l-19 -58h-72q-63 0 -50 62z" />
    <glyph glyph-name="Wcircumflex" unicode="&#x174;" horiz-adv-x="714" 
d="M240 0h-107l-9 710h106l-13 -507q-2 -51 -4 -62q16 47 21 61l187 508h100l-28 -508q-3 -53 -3 -56q7 24 19 55l203 509h107l-309 -710h-108l21 469q1 10 6.5 39.5t6.5 36.5q-15 -63 -20 -76zM476 854h55l74 -105h-93l-23 40h-1l-38 -40h-92z" />
    <glyph glyph-name="wcircumflex" unicode="&#x175;" horiz-adv-x="606" 
d="M214 0h-120l-11 505h103l-9 -388l147 388h100l-19 -388l158 388h103l-223 -505h-120l10 294l1 25l-8 -25zM382 684h55l74 -105h-93l-23 40h-1l-38 -40h-92z" />
    <glyph glyph-name="Ycircumflex" unicode="&#x176;" horiz-adv-x="461" 
d="M248 0h-104l58 273l-90 437h106l48 -283q5 -49 5 -54q6 19 26 53l168 284h112l-271 -434zM348 854h55l74 -105h-93l-23 40h-1l-38 -40h-92z" />
    <glyph glyph-name="ycircumflex" unicode="&#x177;" horiz-adv-x="390" 
d="M31 -127q21 0 36 14t33 55l24 55h-28l-15 508h102l2 -370l163 370h106l-270 -581q-43 -92 -81 -120.5t-102 -28.5h-62l35 98h57zM264 684h55l74 -105h-93l-23 40h-1l-38 -40h-92z" />
    <glyph glyph-name="Ydieresis" unicode="&#x178;" horiz-adv-x="461" 
d="M248 0h-104l58 273l-90 437h106l48 -283q5 -49 5 -52q6 18 26 51l168 284h112l-271 -434zM407 846h82l-21 -100h-82zM262 846h81l-21 -100h-81z" />
    <glyph glyph-name="Zacute" unicode="&#x179;" horiz-adv-x="414" 
d="M484 613l-351 -507h255l-36 -106h-358l5 97l351 507h-228l7 106h361zM346 750h-80l96 144h113z" />
    <glyph glyph-name="zacute" unicode="&#x17a;" horiz-adv-x="346" 
d="M374 425l-254 -340h191l-28 -85h-291l7 80l254 340h-167l8 85h287zM278 580h-80l95 144h113z" />
    <glyph glyph-name="Zdotaccent" unicode="&#x17b;" horiz-adv-x="414" 
d="M484 613l-351 -507h255l-36 -106h-358l5 97l351 507h-228l7 106h361zM301 868h102l-25 -116h-102z" />
    <glyph glyph-name="zdotaccent" unicode="&#x17c;" horiz-adv-x="346" 
d="M374 425l-254 -340h191l-28 -85h-291l7 80l254 340h-167l8 85h287zM232 698h102l-25 -116h-102z" />
    <glyph glyph-name="Zcaron" unicode="&#x17d;" horiz-adv-x="414" 
d="M484 613l-351 -507h255l-36 -106h-358l5 97l351 507h-228l7 106h361zM357 749h-62l-69 107h88l23 -53l46 53h86z" />
    <glyph glyph-name="zcaron" unicode="&#x17e;" horiz-adv-x="346" 
d="M374 425l-254 -340h191l-28 -85h-291l7 80l254 340h-167l8 85h287zM289 579h-62l-69 107h88l23 -53l46 53h86z" />
    <glyph glyph-name="florin" unicode="&#x192;" horiz-adv-x="306" 
d="M334 642q-37 0 -49 -58l-20 -91h79l-36 -98h-64l-93 -440q-15 -74 -54.5 -107t-116.5 -33h-67l44 98h49q38 0 50 58l90 424h-76l36 98h61l23 107q15 74 54 107t116 33h68l-43 -98h-51z" />
    <glyph glyph-name="AEacute" unicode="&#x1fc;" horiz-adv-x="692" 
d="M519 604l-7 -33l-28 -224h181l-36 -105h-157l-17 -136h207l-37 -106h-294l15 129h-191l-83 -129h-118l463 710h374l-36 -106h-236zM391 494l-168 -259h136zM540 758h-80l95 144h113z" />
    <glyph glyph-name="aeacute" unicode="&#x1fd;" horiz-adv-x="615" 
d="M376 98h62q39 0 49 51l3 11h91l-6 -24q-16 -80 -49.5 -108t-107.5 -28h-61q-53 0 -80 13t-33 46l-1 -1q-22 -34 -44 -46t-60 -12h-50q-100 0 -75 120l16 73q23 112 123 112h131l13 59q10 49 -24 49h-56q-35 0 -45 -48l-2 -11h-91l8 40q26 117 123 117h113q34 0 56 -14
q32 14 86 14h61q71 0 95 -24.5t8 -97.5l-15 -73q-14 -65 -41 -90t-98 -25h-114l-9 -45q-12 -58 24 -58zM505 413h-49q-27 0 -41 -12t-21 -46l-13 -63h101q35 0 44 39l8 38q9 44 -29 44zM130 98h72q38 0 51 59l12 57h-109q-32 0 -41 -49l-5 -23q-10 -44 20 -44zM420 571h-80
l95 144h113z" />
    <glyph glyph-name="Oslashacute" unicode="&#x1fe;" horiz-adv-x="505" 
d="M519 757h115l-87 -122q5 -29 -4 -67l-90 -426q-16 -72 -50.5 -107t-93.5 -35h-161q-34 0 -51 5l-37 -52h-112l83 118q-5 27 4 71l14 69h1l76 357q15 72 50 107t94 35h161q30 0 51 -6zM402 604h-119q-44 0 -58 -65l-59 -278l244 342q-2 1 -8 1zM296 106q44 0 58 65l58 275
l-243 -340h127zM351 750h-80l96 144h113z" />
    <glyph glyph-name="oslashacute" unicode="&#x1ff;" horiz-adv-x="416" 
d="M207 511h111q26 0 52 -7l35 45h94l-77 -98q8 -30 -3 -75l-52 -244q-29 -132 -135 -132h-110q-28 0 -49 6l-29 -37h-92l71 92q-5 30 4 71l52 244q15 68 46 101.5t82 33.5zM314 580h-80l95 144h113zM224 95q20 0 31 13t18 44l31 148l-160 -204q3 -1 11 -1h69zM292 416h-69
q-37 0 -49 -58l-31 -144l158 201q-3 1 -9 1z" />
    <glyph glyph-name="Scommaaccent" unicode="&#x218;" horiz-adv-x="444" 
d="M295 273l-115 74q-26 17 -37.5 25.5t-24 22t-15.5 26t-3 31t5 44.5l19 88q14 64 44 95t81 31h143q134 0 103 -126l-18 -83h-105l10 46q12 57 -26 57h-85q-40 0 -51 -58l-7 -29q-10 -51 23 -70l115 -75q4 -3 17.5 -12l16.5 -11t13.5 -9.5t12.5 -10t9 -10t7.5 -12t4 -12
t3 -14.5t-1.5 -16.5t-3 -20.5l-25 -119q-26 -125 -125 -125h-160q-132 0 -102 125l20 93h104l-12 -56q-11 -56 26 -56h103q38 0 49 56l9 43q10 48 -22 68zM144 -51h76l-16 -72l-87 -111h-12z" />
    <glyph glyph-name="scommaaccent" unicode="&#x219;" horiz-adv-x="374" 
d="M271 420h-64q-30 0 -39 -43l-3 -12q-4 -21 2 -29.5t26 -15.5l83 -29q55 -17 68.5 -39t0.5 -83l-12 -57q-13 -62 -46.5 -87t-97.5 -25h-78q-72 0 -90.5 27.5t-3.5 100.5l6 29h90l-5 -21q-9 -45 20 -45h81q29 0 38 43l3 14q10 42 -25 55l-82 28q-63 20 -74 41t4 82l8 37
q13 66 43 93t102 27h63q73 0 91 -28.5t2 -103.5l-6 -30h-91l5 26q10 45 -19 45zM105 -51h76l-16 -72l-87 -111h-12z" />
    <glyph glyph-name="dotlessj" unicode="&#x237;" horiz-adv-x="199" 
d="M112 407h-52l21 98h150l-125 -587q-26 -120 -129 -120h-70l34 98h27q36 0 46 52z" />
    <glyph glyph-name="circumflex" unicode="&#x2c6;" horiz-adv-x="478" 
d="M299 730h55l73 -105h-93l-22 40h-1l-39 -40h-92z" />
    <glyph glyph-name="caron" unicode="&#x2c7;" horiz-adv-x="678" 
d="M335 625h-62l-68 107h88l23 -53l46 53h86z" />
    <glyph glyph-name="breve" unicode="&#x2d8;" horiz-adv-x="667" 
d="M398 581h-26q-52 0 -65 17t0 76l3 13h56l-4 -15q-7 -33 20 -33h29q26 0 33 33l4 15h57l-3 -13q-13 -59 -31.5 -76t-72.5 -17z" />
    <glyph glyph-name="dotaccent" unicode="&#x2d9;" horiz-adv-x="666" 
d="M326 724h102l-24 -116h-102z" />
    <glyph glyph-name="ring" unicode="&#x2da;" horiz-adv-x="667" 
d="M363 703h51q41 0 50 -14.5t-1 -64.5l-6 -31q-11 -50 -26 -64.5t-55 -14.5h-52q-40 0 -49.5 14.5t1.5 64.5l6 31q11 50 26 64.5t55 14.5zM400 597l5 22q6 25 -14 25h-29q-19 0 -25 -25l-5 -22q-4 -25 15 -25h29q20 0 24 25z" />
    <glyph glyph-name="ogonek" unicode="&#x2db;" horiz-adv-x="667" 
d="M148 -119l4 18q6 29 19 44.5t37 29.5q24 15 30 23t10 26l4 16h49l-10 -46q-5 -24 -13.5 -34.5t-30.5 -24.5q-20 -14 -26 -20.5t-8 -17.5q-4 -18 10 -18h66l-19 -58h-72q-63 0 -50 62z" />
    <glyph glyph-name="tilde" unicode="&#x2dc;" horiz-adv-x="658" 
d="M407 717q34 0 43 -12t1 -48l-9 -45h-65l4 23q3 14 -6 14q-12 0 -24 -12l-16 -14q-16 -15 -65 -15q-34 0 -43 11.5t-2 48.5l10 44h65l-5 -23q-3 -14 6 -14q14 0 26 13l10 11q12 12 25 15t45 3z" />
    <glyph glyph-name="hungarumlaut" unicode="&#x2dd;" horiz-adv-x="207" 
d="M201 745h88l-116 -153h-60zM297 745h87l-117 -153h-59z" />
    <glyph glyph-name="Wgrave" unicode="&#x1e80;" horiz-adv-x="714" 
d="M240 0h-107l-9 710h106l-13 -507q-2 -51 -4 -62q16 47 21 61l187 508h100l-28 -508q-3 -53 -3 -56q7 24 19 55l203 509h107l-309 -710h-108l21 469q1 10 6.5 39.5t6.5 36.5q-15 -63 -20 -76zM380 875h101l40 -126h-66z" />
    <glyph glyph-name="wgrave" unicode="&#x1e81;" horiz-adv-x="606" 
d="M214 0h-120l-11 505h103l-9 -388l147 388h100l-19 -388l158 388h103l-223 -505h-120l10 294l1 25l-8 -25zM286 705h101l40 -126h-66z" />
    <glyph glyph-name="Wacute" unicode="&#x1e82;" horiz-adv-x="714" 
d="M240 0h-107l-9 710h106l-13 -507q-2 -51 -4 -62q16 47 21 61l187 508h100l-28 -508q-3 -53 -3 -56q7 24 19 55l203 509h107l-309 -710h-108l21 469q1 10 6.5 39.5t6.5 36.5q-15 -63 -20 -76zM504 750h-80l96 144h113z" />
    <glyph glyph-name="wacute" unicode="&#x1e83;" horiz-adv-x="606" 
d="M214 0h-120l-11 505h103l-9 -388l147 388h100l-19 -388l158 388h103l-223 -505h-120l10 294l1 25l-8 -25zM410 580h-80l95 144h113z" />
    <glyph glyph-name="Wdieresis" unicode="&#x1e84;" horiz-adv-x="714" 
d="M240 0h-107l-9 710h106l-13 -507q-2 -51 -4 -62q16 47 21 61l187 508h100l-28 -508q-3 -53 -3 -56q7 24 19 55l203 509h107l-309 -710h-108l21 469q1 10 6.5 39.5t6.5 36.5q-15 -63 -20 -76zM535 846h82l-21 -100h-82zM390 846h81l-21 -100h-81z" />
    <glyph glyph-name="wdieresis" unicode="&#x1e85;" horiz-adv-x="606" 
d="M214 0h-120l-11 505h103l-9 -388l147 388h100l-19 -388l158 388h103l-223 -505h-120l10 294l1 25l-8 -25zM297 676h81l-21 -100h-81zM442 676h82l-21 -100h-82z" />
    <glyph glyph-name="Ygrave" unicode="&#x1ef2;" horiz-adv-x="461" 
d="M248 0h-104l58 273l-90 437h106l48 -283q5 -49 5 -54q6 19 26 53l168 284h112l-271 -434zM251 875h101l40 -126h-66z" />
    <glyph glyph-name="ygrave" unicode="&#x1ef3;" horiz-adv-x="390" 
d="M31 -127q21 0 36 14t33 55l24 55h-28l-15 508h102l2 -370l163 370h106l-270 -581q-43 -92 -81 -120.5t-102 -28.5h-62l35 98h57zM166 705h101l40 -126h-66z" />
    <glyph glyph-name="endash" unicode="&#x2013;" horiz-adv-x="400" 
d="M405 341l-36 -98h-321l35 98h322z" />
    <glyph glyph-name="emdash" unicode="&#x2014;" horiz-adv-x="447" 
d="M467 341l-35 -98h-398l35 98h398z" />
    <glyph glyph-name="quoteleft" unicode="&#x2018;" horiz-adv-x="176" 
d="M224 494h-131l83 226h51z" />
    <glyph glyph-name="quoteright" unicode="&#x2019;" horiz-adv-x="168" 
d="M137 720h131l-92 -226h-52z" />
    <glyph glyph-name="quotesinglbase" unicode="&#x201a;" horiz-adv-x="173" 
d="M13 129h131l-92 -226h-52z" />
    <glyph glyph-name="quotedblleft" unicode="&#x201c;" horiz-adv-x="333" 
d="M380 494h-131l83 226h51zM224 494h-131l83 226h51z" />
    <glyph glyph-name="quotedblright" unicode="&#x201d;" horiz-adv-x="324" 
d="M293 720h131l-92 -226h-52zM137 720h131l-92 -226h-52z" />
    <glyph glyph-name="quotedblbase" unicode="&#x201e;" horiz-adv-x="325" 
d="M172 153h131l-92 -226h-52zM14 153h131l-92 -226h-52z" />
    <glyph glyph-name="dagger" unicode="&#x2020;" horiz-adv-x="327" 
d="M31 243l36 98h83l88 415l88 21h15l-93 -436h99l-35 -98h-85l-105 -493h-98l105 493h-98z" />
    <glyph glyph-name="daggerdbl" unicode="&#x2021;" horiz-adv-x="332" 
d="M58 355l36 98h82l64 303l89 21h14l-69 -324h100l-36 -98h-85l-30 -141h100l-36 -98h-85l-78 -366h-98l78 366h-97l36 98h82l30 141h-97z" />
    <glyph glyph-name="bullet" unicode="&#x2022;" horiz-adv-x="389" 
d="M56 130l58 270h246l-58 -270h-246z" />
    <glyph glyph-name="ellipsis" unicode="&#x2026;" horiz-adv-x="629" 
d="M197 -5l26 121h110l-26 -121h-110zM421 -5l26 121h110l-26 -121h-110zM48 -5l26 121h110l-26 -121h-110z" />
    <glyph glyph-name="perthousand" unicode="&#x2030;" horiz-adv-x="871" 
d="M641 257q18 83 90 83h84q72 0 54 -83l-37 -173q-18 -84 -89 -84h-84q-73 0 -55 84zM371 257q18 83 90 83h84q72 0 54 -83l-37 -173q-18 -84 -89 -84h-84q-73 0 -55 84zM466 273q-16 0 -23 -11t-13 -38l-25 -120q-9 -37 17 -37h46q15 0 22 11t13 38l26 120q7 37 -17 37
h-46zM736 273q-16 0 -23 -11.5t-13 -39.5l-25 -118q-9 -37 17 -37h46q16 0 22.5 11t13.5 40l25 118q7 37 -17 37h-46zM118 627q17 83 89 83h83q72 0 55 -83l-37 -173q-18 -84 -90 -84h-83q-72 0 -54 84zM258 643h-46q-25 0 -34 -37l-28 -132q-7 -37 18 -37h46q25 0 32 37
l28 132q9 37 -16 37zM102 0l402 710h73l-403 -710h-72z" />
    <glyph glyph-name="guilsinglleft" unicode="&#x2039;" horiz-adv-x="263" 
d="M216 69h-114l-66 183l144 183h114l-144 -183z" />
    <glyph glyph-name="guilsinglright" unicode="&#x203a;" horiz-adv-x="263" 
d="M120 69h-114l144 183l-66 183h114l66 -183z" />
    <glyph glyph-name="fraction" unicode="&#x2044;" horiz-adv-x="302" 
d="M-46 0l402 710h73l-403 -710h-72z" />
    <glyph glyph-name="foursuperior" unicode="&#x2074;" horiz-adv-x="210" 
d="M88 476l15 74q5 24 23 43l105 117h62l-125 -140q-12 -14 -15 -28l-3 -14h41l7 36l35 8h16l-9 -44h26l-18 -52h-19l-10 -47h-49l10 47h-92z" />
    <glyph glyph-name="Euro" unicode="&#x20ac;" horiz-adv-x="543" 
d="M363 323l-36 -98h-114l-11 -54q-15 -65 31 -65h115q44 0 58 65l8 40h106l-16 -76q-15 -75 -56 -105t-119 -30h-146q-122 0 -93 135l19 90h-78l36 98h63l12 57h-78l36 98h63l21 97q29 135 149 135h146q78 0 106 -30t13 -105l-16 -74h-106l8 38q13 65 -30 65h-115
q-45 0 -59 -65l-13 -61h159l-35 -98h-145l-12 -57h129z" />
    <glyph glyph-name="trademark" unicode="&#x2122;" horiz-adv-x="619" 
d="M614 350h-77l44 208l-51 -81h-59l-17 81l-44 -208h-76l76 360h76l36 -131l91 131h77zM369 633h-81l-60 -283h-76l60 283h-78l16 77h235z" />
    <glyph glyph-name="minus" unicode="&#x2212;" horiz-adv-x="431" 
d="M49 243l38 106h349l-38 -106h-349z" />
    <glyph glyph-name="commaaccent" unicode="&#xf6c3;" horiz-adv-x="399" 
d="M119 -51h76l-16 -72l-87 -111h-12z" />
    <glyph glyph-name="s_t" unicode="&#xfb06;" horiz-adv-x="684" 
d="M271 420h-64q-30 0 -39 -43l-3 -12q-4 -21 2 -29.5t26 -15.5l83 -29q55 -17 68.5 -39t0.5 -83l-12 -57q-13 -62 -46.5 -87t-97.5 -25h-78q-72 0 -90.5 27.5t-3.5 100.5l6 29h90l-5 -21q-9 -45 20 -45h81q29 0 38 43l3 14q10 42 -25 55l-82 28q-63 20 -74 41t4 82l8 37
q13 66 43 93t102 27h63q73 0 91 -28.5t2 -103.5l-6 -30h-91l5 26q10 45 -19 45zM742 505l-28 -98h-74l-53 -251q-13 -58 24 -58h30l-12 -98h-59q-114 0 -86 133l58 274h-59l28 98h52l17 80l104 60h7l-30 -140h81z" />
    <glyph glyph-name="g.001" horiz-adv-x="423" 
d="M56 262l25 115q15 70 52 99t106 29h43q40 0 65 -10l96 87l54 -83l-90 -81q-1 -14 -7 -46l-25 -115q-14 -65 -46 -96t-87 -32l-56 -2q-10 0 -15.5 -2.5t-7.5 -6t-4 -10.5l-1 -6q-2 -13 2 -18t20 -5h86q68 0 92 -27t8 -100l-12 -57q-17 -80 -51 -112t-107 -32h-120
q-80 0 -99 32.5t1 110.5l12 55q12 58 27 82.5t52 34.5q-22 10 -17 33l1 7q3 15 10 22t23 12q-33 10 -38 45t8 77zM120 -158h73q29 0 43 12t21 46l7 30q8 38 -2.5 48t-38.5 10h-76q-34 0 -44.5 -10t-19.5 -52l-6 -26q-7 -33 3 -45.5t40 -12.5zM262 414h-39q-37 0 -50 -65
l-14 -63q-8 -38 0 -52t34 -14h16q41 0 53 11.5t22 59.5l11 51q9 42 2.5 57t-35.5 15z" />
    <glyph glyph-name="i.001" horiz-adv-x="273" 
d="M99 396h-39l21 98h46q67 0 91 -29t9 -99l-46 -216q-12 -58 25 -58h38l-21 -98h-45q-68 0 -92 28.5t-9 99.5l46 216q12 58 -24 58zM170 583l26 121h110l-26 -121h-110z" />
    <glyph glyph-name="G.001" horiz-adv-x="479" 
d="M273 270l22 105h192l-52 -244q-29 -135 -150 -135h-160q-122 0 -93 135l95 444q29 135 149 135h160q122 0 94 -135l-24 -110h-106l16 74q9 39 0.5 52t-35.5 13h-99q-24 0 -38.5 -19.5t-23.5 -62.5l-75 -355q-15 -66 30 -66h104q43 0 58 66l22 103h-86z" />
    <glyph glyph-name="P.slt" horiz-adv-x="443" 
d="M112 0h-105l123 582q15 73 56 100.5t121 27.5h112q59 0 80 -31.5t7 -96.5l-34 -163q-21 -97 -53.5 -135.5t-111.5 -38.5h-99q-23 0 -38 -21.5t-22 -53.5zM278 604q-25 0 -35 -16.5t-20 -62.5l-45 -212q22 38 72 38h65q39 0 51 58l27 127q9 40 2 54t-33 14h-84z" />
    <glyph glyph-name="N.001" horiz-adv-x="465" 
d="M278 604q-38 0 -51 -62l-115 -542h-105l123 579q27 131 142 131h149q115 0 88 -131l-123 -579h-105l115 542q13 62 -25 62h-93z" />
    <glyph glyph-name="S.bd" horiz-adv-x="470" 
d="M323 307h-146q-114 0 -87 127l31 148q27 128 141 128h174q114 0 87 -128l-17 -81h-105l10 45q12 58 -25 58h-118q-38 0 -50 -58l-16 -75q-13 -59 25 -59h146q114 0 87 -127l-35 -163q-27 -128 -141 -128h-174q-114 0 -87 128l19 89h104l-11 -53q-12 -58 26 -58h118
q37 0 49 58l19 91q13 58 -24 58z" />
    <glyph glyph-name="N.bd" horiz-adv-x="492" 
d="M8 1l148 698h105l-17 -79q-1 -5 -1 -9v-7t1.5 -5.5t3 -4t4 -3.5t4.5 -3t5.5 -3t6.5 -4l141 -98l46 216h105l-148 -698h-105l72 341q1 7 1 12t-0.5 8t-3.5 6t-5 4t-7.5 4t-8.5 5l-141 98l-101 -478h-105z" />
    <glyph glyph-name="T.002" horiz-adv-x="437" 
d="M514 604h-153l-128 -604h-106l128 604h-159l37 106h417z" />
    <glyph glyph-name="I.bd" horiz-adv-x="325" 
d="M201 106h88l-22 -106h-280l21 106h88l106 498h-88l22 106h281l-22 -106h-88z" />
    <glyph glyph-name="Z.bd" horiz-adv-x="442" 
d="M360 380l-197 -159q-38 -31 -43 -55l-4 -16q-6 -28 1 -39t28 -11h253l-23 -106h-281q-115 0 -89 125l13 62q4 19 12.5 35t24.5 32t27.5 25.5t36 28.5t36.5 28l195 157q24 19 32 28.5t11 25.5l3 13q11 50 -29 50h-226l22 106h255q116 0 90 -125l-12 -58
q-4 -19 -12.5 -34.5t-24 -31t-27.5 -25.5t-35.5 -27.5t-36.5 -28.5z" />
    <glyph glyph-name="V.bd" horiz-adv-x="519" 
d="M258 161l274 539l90 -40l-346 -662h-106l-64 662l106 40z" />
    <glyph glyph-name="X.bd" horiz-adv-x="451" 
d="M274 396l188 308l89 -40l-201 -314l68 -315l-106 -39l-61 294l-185 -294l-89 39l202 315l-68 314l106 40z" />
    <glyph glyph-name="a.001" horiz-adv-x="393" 
d="M237 0l2 51q-21 -31 -41.5 -41t-58.5 -10h-35q-60 0 -82 29t-9 91l17 73q22 112 107 112h148l13 59q10 49 -25 49h-56q-35 0 -45 -48l-2 -11h-91l8 40q24 117 108 117h114q119 0 93 -117l-83 -394h-82zM137 98h65q39 0 52 59l12 57h-113q-18 0 -26 -11.5t-13 -37.5
l-5 -23q-6 -26 1.5 -35t26.5 -9z" />
    <glyph glyph-name="G.002" horiz-adv-x="472" 
d="M276 267l23 106h184l-52 -242q-29 -135 -149 -135h-157q-121 0 -93 132l95 447q29 135 147 135h277l-36 -106h-233q-44 0 -58 -67l-79 -371q-14 -65 30 -65h100q45 0 59 66l20 100h-78z" />
    <glyph glyph-name="o.001" horiz-adv-x="666" 
 />
    <glyph glyph-name="i.002" horiz-adv-x="209" 
d="M122 406h-60l17 79l84 20h78l-107 -505h-98zM166 627l25 121h110l-25 -121h-110z" />
    <glyph glyph-name="u.bd" 
d="M337 0h-90l8 42q-39 -42 -104 -42h-43q-108 0 -81 125l76 359l81 21h22l-75 -350q-13 -64 31 -64h51q43 0 55 47h1v4l72 342l81 21h22z" />
    <glyph glyph-name="w.bd" horiz-adv-x="593" 
d="M224 0h-120l-28 505h103l8 -388l95 218h100l2 -218l173 388h102l-240 -505h-120l-8 143z" />
    <glyph glyph-name="H.slt" horiz-adv-x="484" 
d="M113 0h-105l146 689l88 21h21l-77 -363h186l73 342l88 21h22l-150 -710h-106l51 241h-186z" />
    <glyph glyph-name="I.slt" horiz-adv-x="193" 
d="M113 0h-105l146 689l88 21h21z" />
    <glyph glyph-name="J.slt" horiz-adv-x="274" 
d="M224 133q-28 -133 -150 -133h-107l36 106h65q44 0 58 64l93 440h1l17 79l87 21h22z" />
    <glyph glyph-name="K.slt" horiz-adv-x="447" 
d="M113 0h-105l146 689l88 21h21l-62 -295l237 295h130l-285 -355l135 -355h-130l-113 294z" />
    <glyph glyph-name="L.slt" horiz-adv-x="378" 
d="M165 240h-1l-29 -134h226l-36 -106h-317l121 570h1l25 119l87 21h22z" />
    <glyph glyph-name="N.slt" horiz-adv-x="499" 
d="M420 0h-105l-100 484l-102 -484h-105l146 689l88 21h21l100 -481l98 460l87 21h22z" />
    <glyph glyph-name="M.slt" horiz-adv-x="562" 
d="M484 0h-105l102 483l-136 -248h-100l-30 249l-102 -484h-105l146 689l88 21h21l64 -330l187 307l13 3q14 3 42.5 10t42.5 10h22z" />
    <glyph glyph-name="U.slt" horiz-adv-x="485" 
d="M148 176q-16 -70 31 -70h99q45 0 61 70l109 513l87 21h21l-121 -572q-30 -138 -151 -138h-156q-123 0 -93 138l117 551l87 21h22z" />
    <glyph glyph-name="T.bd" horiz-adv-x="442" 
d="M527 604h-161l-128 -604h-106l128 604h-159l22 106h426z" />
    <glyph glyph-name="ampersand.001" horiz-adv-x="519" 
d="M402 0l-28 45q-31 -27 -51.5 -36t-49.5 -9h-135q-74 0 -101.5 35t-11.5 107l21 101h1l5 23q23 109 94 134q-1 18 5 45l15 69h1l11 54q30 142 145 142h93q74 0 101.5 -35t12.5 -107l-15 -74h-1l-11 -49q-15 -72 -50 -107t-94 -35h-1l60 -99l2 2l37 36l51 -69l-37 -36
l-8 -7l30 -49zM167 106h120q21 0 43 15l-107 182h-14q-46 0 -59 -66l-14 -66q-14 -65 31 -65zM402 468l14 64h1l1 7q13 64 -27 65h-60q-40 -3 -53 -65l-8 -38h-1l-6 -27q-13 -63 25 -66h60q41 1 55 60h-1z" />
    <glyph glyph-name="A.B" horiz-adv-x="485" 
d="M191 710h222l36 -710h-111l-2 60l-198 66l-55 -126h-109l284 604h-89zM327 549l-89 -200l93 -32zM194 250l-12 -26l151 -50l1 29z" />
    <glyph glyph-name="B.s" horiz-adv-x="447" 
d="M8 0l150 710h166q122 0 94 -132l-18 -85q-9 -43 -21.5 -61.5t-36.5 -26.5q20 0 33 -1t28.5 -4t25 -8.5t18.5 -14.5t12.5 -22.5t3 -33t-5.5 -44.5l-30 -142q-29 -135 -152 -135h-267zM181 320l-46 -214h134q46 0 61 66l17 81q15 67 -28 67h-138zM241 605l-38 -180h53
q32 0 43 53l15 70q12 57 -27 57h-46z" />
    <glyph glyph-name="C.s" horiz-adv-x="455" 
d="M215 306h85q44 0 59 66l4 19h105l-12 -55q-28 -135 -151 -135h-119q-74 0 -101.5 35t-12.5 107l36 168h1l12 57q15 72 50 107t94 35h148q123 0 94 -135l-13 -61h-105l5 25q14 65 -31 65h-85q-44 0 -58 -65l-8 -38h-1l-19 -89h1l-8 -40q-15 -66 30 -66zM407 106l-22 -106
h-384l22 106h384z" />
    <glyph glyph-name="D.s" horiz-adv-x="499" 
d="M93 604l22 106h329q139 0 105 -155l-42 -199q-33 -155 -171 -155h-254l86 403h-75zM446 106l-22 -106h-385l22 106h385zM394 604h-121l-63 -298h121q60 0 79 86l28 131q14 81 -44 81z" />
    <glyph glyph-name="E.s.001" horiz-adv-x="414" 
d="M241 604l-29 -134h177l-36 -106h-163l-6 -27h154l-37 -106h-139l-27 -125h250l-37 -106h-340l150 710h354l-36 -106h-235z" />
    <glyph glyph-name="F.s.001" horiz-adv-x="395" 
d="M241 604l-29 -134h177l-36 -106h-163l-6 -27h154l-37 -106h-139l-49 -231h-105l150 710h346l-36 -106h-227z" />
    <glyph glyph-name="G.s" horiz-adv-x="438" 
d="M92 410l25 119h1l8 39q15 72 50 107t94 35h101q123 0 94 -135l-37 -172q-28 -135 -151 -135h-48l-13 -62h80q74 0 101.5 -35t12.5 -108l-16 -74h-1l-10 -49q-30 -142 -144 -142h-139q-74 0 -101.5 35t-12.5 107l23 111h1l3 12q26 120 105 138l17 78q-65 29 -43 131z
M128 -96h97q38 0 54 45l20 95h2q9 56 -33 56h-98q-45 0 -59 -65l-14 -66q-14 -65 31 -65zM235 374h37q44 0 58 65l21 100q14 65 -30 65h-38q-44 0 -58 -65l-8 -38h-1l-5 -22h1l-8 -40q-14 -65 31 -65z" />
    <glyph glyph-name="H.s" horiz-adv-x="481" 
d="M113 1h-105l151 710h105l-57 -266l170 -63l69 328h105l-150 -710h-105l30 142l-170 64zM185 339l-6 -28l169 -63l6 28z" />
    <glyph glyph-name="I.s" horiz-adv-x="425" 
d="M391 106l-22 -106h-384l22 106h137l106 498h-138l22 106h385l-22 -106h-142l-106 -498h142z" />
    <glyph glyph-name="J.s" horiz-adv-x="463" 
d="M535 710l-121 -572q-30 -138 -151 -138h-157q-122 0 -93 138l27 126h105l-19 -88q-16 -70 31 -70h99q45 0 61 70l61 288h-103l16 106h110l7 34h-154l14 106h267z" />
    <glyph glyph-name="K.s" horiz-adv-x="460" 
d="M453 710h116l-320 -406l198 -68l-50 -236h-106l35 165l-167 56l-46 -221h-105l150 710h105l-70 -331z" />
    <glyph glyph-name="L.s" horiz-adv-x="392" 
d="M259 710l-85 -404h230l-37 -105h-321l108 509h105zM353 106l-22 -106h-327l22 106h327z" />
    <glyph glyph-name="M.s" horiz-adv-x="562" 
d="M113 0h-105l150 710h106l86 -215l176 215h107l-150 -710h-105l80 378l-178 -211l-87 211zM234 571l-11 -49l88 -211l177 211l11 49l-178 -210z" />
    <glyph glyph-name="N.s" horiz-adv-x="492" 
d="M8 1l148 698h105l-17 -79q-1 -5 -1 -9v-7t1.5 -5.5t3 -4t4 -3.5t4.5 -3t5.5 -3t6.5 -4l141 -98l46 216h105l-148 -698h-105l72 341q1 7 1 12t-0.5 8t-3.5 6t-5 4t-7.5 4t-8.5 5l-141 98l-101 -478h-105z" />
    <glyph glyph-name="O.s" horiz-adv-x="472" 
d="M72 344l38 180h1l9 44q15 72 50 107t94 35h146q74 0 101 -35t12 -107l-47 -224q-16 -72 -51 -107.5t-95 -35.5h-145q-145 0 -113 143zM378 382l30 142h1l3 15q14 65 -30 65h-104q-45 0 -59 -65l-8 -38h-1l-19 -89h1l-8 -39q-15 -66 31 -66h104q44 0 58 66l2 9h-1z
M415 106l-22 -106h-391l22 106h391z" />
    <glyph glyph-name="P.s" horiz-adv-x="444" 
d="M136 604l22 106h256q122 0 93 -132l-43 -205q-28 -132 -149 -132h-151l-51 -241h-105l73 347h227q45 0 59 64l27 129q14 64 -31 64h-227z" />
    <glyph glyph-name="Q.s" horiz-adv-x="477" 
d="M228 201h-52q-145 0 -113 143l35 167h1l12 57q15 72 50 107t94 35h160q74 0 101 -35t12 -107l-15 -74h-1l-16 -74h1l-16 -76q-15 -71 -49 -106l-21 -101zM205 307h118q44 0 58 66l35 166q8 35 1 50t-31 15h-117q-45 0 -59 -65l-8 -38h-1l-19 -89h1l-8 -39q-15 -66 30 -66
zM200 68l22 106l183 -65l-23 -106z" />
    <glyph glyph-name="R.s" horiz-adv-x="463" 
d="M328 -27l-82 268h-82l-51 -241h-105l73 347h133l-78 257l22 106h256q122 0 93 -132l-43 -205q-23 -103 -98 -125l61 -210zM363 604h-100l72 -250q22 13 32 57l27 129q14 64 -31 64z" />
    <glyph glyph-name="S.s" horiz-adv-x="446" 
d="M215 530q-3 -17 2 -26.5t20 -20.5l117 -85l-13 -60l5 -3q21 -14 25 -16.5t19.5 -14t18 -15.5t10.5 -14.5t8.5 -18.5t1 -20.5t-2.5 -26.5l-18 -84q-27 -125 -139 -125h-164q-115 0 -88 125l18 86h104l-10 -49q-11 -56 26 -56h107q38 0 49 56l5 24q4 20 -1 29.5t-21 19.5
l-130 91l13 63q-33 21 -47 32.5t-23 34t-3 52.5l17 76q27 126 140 126h150q115 0 88 -126l-18 -83h-105l10 46q11 57 -24 57h-94q-38 0 -49 -58z" />
    <glyph glyph-name="T.s" horiz-adv-x="440" 
d="M237 0h-106l98 465h-129l23 106h366l-23 -106h-131zM519 604h-414l22 106h414z" />
    <glyph glyph-name="U.s" horiz-adv-x="471" 
d="M316 306q44 0 59 70l71 334h105l-78 -371q-30 -138 -151 -138h-158q-122 0 -92 138l78 371h106l-71 -334q-15 -70 31 -70h100zM415 106l-22 -106h-391l22 106h391z" />
    <glyph glyph-name="V.s" horiz-adv-x="416" 
d="M268 201h-107l-26 509h108l5 -348l153 348h109zM390 106l-22 -106h-390l21 106h391z" />
    <glyph glyph-name="W.s" horiz-adv-x="563" 
d="M158 710h105l-81 -381l174 195l91 -195l81 381h105l-150 -710h-107l-86 215l-176 -215h-106zM152 186l-9 -41l177 210l88 -210l9 41l-88 210z" />
    <glyph glyph-name="X.s" horiz-adv-x="500" 
d="M407 435l59 -435h-116l-42 305l-21 -28l39 -277h-117l-20 147l-111 -147h-114l208 275l-58 435h115l42 -304l21 27l-38 277h117l19 -146l110 146h116z" />
    <glyph glyph-name="Y.s" horiz-adv-x="496" 
d="M216 523l40 -80l8 38l-132 229h123l77 -152l137 152h123l-223 -227l-7 -36l68 76h123l-224 -227l-62 -296h-105l62 294l-131 229h123z" />
    <glyph glyph-name="Z.s" horiz-adv-x="442" 
d="M118 472l7 105h216l20 27h-234l8 106h368l-6 -97l-263 -372h210l-38 -105h-247l-21 -30h259l-37 -106h-363l5 97l265 375h-149z" />
    <glyph glyph-name="E.s" horiz-adv-x="413" 
d="M239 604l-29 -134h178l-37 -106h-268l73 346h355l-37 -106h-235zM347 0h-341l71 337h259l-37 -106h-139l-27 -125h250z" />
    <glyph glyph-name="F.s" horiz-adv-x="394" 
d="M239 604l-29 -134h178l-37 -106h-268l73 346h347l-37 -106h-227zM111 0h-105l71 337h259l-37 -106h-139z" />
    <glyph glyph-name="H.s.001" horiz-adv-x="480" 
d="M113 1h-105l151 710h105l-61 -284h183l60 283h104l-150 -710h-104l38 181h-183zM181 321l-8 -35h183l8 35h-183z" />
    <glyph glyph-name="L.s.001" horiz-adv-x="393" 
d="M263 710l-98 -464h228l-37 -106h-214l-7 -34h230l-36 -106h-321l150 710h105z" />
    <glyph glyph-name="Q.s.001" horiz-adv-x="467" 
d="M247 1h-98l42 200h-16q-145 0 -113 143l35 167h1l12 57q15 72 50 107t94 35h160q74 0 101 -35t12 -107l-15 -74h-1l-16 -74h1l-16 -76q-32 -143 -145 -143h-46zM204 307h10l19 91h98l-19 -91h10q44 0 58 66l35 166q7 35 0 50t-30 15h-118q-44 0 -58 -65l-8 -38h-1
l-19 -89h1l-8 -39q-15 -66 30 -66z" />
    <glyph glyph-name="A.s.001" horiz-adv-x="563" 
d="M345 710h106l23 -459h109l-23 -106h-81l8 -145h-111l-4 145h-187l-64 -145h-110l67 145h-84l23 106h112l166 353h-88l22 105h115zM365 549l-133 -298h139z" />
    <glyph glyph-name="N.s.001" horiz-adv-x="500" 
d="M113 0h-105l150 710h105l-11 -54l189 -67l25 121h105l-150 -710h-105l74 350l-189 66zM229 550l-6 -28l189 -66l6 28z" />
    <glyph glyph-name="O.s.001" horiz-adv-x="499" 
d="M34 142l14 69h1l76 357q15 72 50 107t95 35h160q74 0 101 -35t12 -107l-90 -426q-16 -72 -51 -107t-94 -35h-160q-74 0 -102 35t-12 107zM401 604h-119q-44 0 -58 -65l-78 -368q-14 -65 31 -65h118q44 0 58 65l78 368q7 35 0 50t-30 15zM220 292l25 121h110l-25 -121
h-110z" />
    <glyph glyph-name="N.s.002" horiz-adv-x="500" 
d="M113 0h-105l150 710h105l-11 -54l189 -67l25 121h105l-150 -710h-105l102 484l-189 66z" />
    <glyph glyph-name="C.spec" horiz-adv-x="531" 
d="M448 604h-101q-44 0 -58 -65l-13 -60l105 -37l-22 -106l-105 37l-6 -28l105 -37l-22 -105l-105 37l-15 -69q-14 -65 31 -65h100q44 0 58 65l10 47h105l-16 -76q-16 -72 -50.5 -107t-93.5 -35h-142q-74 0 -102 35t-12 107l13 59l16 73l-86 30l22 105l86 -30l6 28l-86 30
l23 106l86 -30l11 55q30 142 145 142h141q74 0 101 -35t12 -107l-15 -74h-105l9 45q7 35 0 50t-30 15z" />
    <glyph glyph-name="A.sh" horiz-adv-x="486" 
d="M444 169l-338 112l148 323h-91l22 106h229zM95 252l349 -116l5 -136h-110v56l-202 72l-53 -128h-110zM328 549l-83 -201l79 -33z" />
    <glyph glyph-name="H.sh" horiz-adv-x="480" 
d="M453 248l-368 121l72 341h105l-56 -265l170 -63l69 328h106zM112 1h-105l72 340l368 -121l-46 -220h-106l30 143l-170 63z" />
    <glyph glyph-name="M.sh" horiz-adv-x="563" 
d="M312 314l315 360l-143 -674h-106l88 418l-181 -232l-84 232l-88 -418h-105l143 674zM321 355l-163 355h105l85 -229l180 229h106z" />
    <glyph glyph-name="W.sh" horiz-adv-x="563" 
d="M491 36l-161 360l-315 -360l143 674h105l-88 -418l182 232l83 -232l88 418h106zM8 0l313 355l163 -355h-106l-84 229l-181 -229h-105z" />
    <glyph glyph-name="X.sh" horiz-adv-x="503" 
d="M191 160l-118 -160h-114l214 286l-57 424h116l97 -710h-116zM411 435l59 -435h-116l-96 710h116l20 -149l109 149h116z" />
    <glyph glyph-name="L.sh" horiz-adv-x="419" 
d="M384 73l-346 115l111 522h105l-94 -446l247 -84zM11 55l22 105l345 -114l-22 -106z" />
    <glyph glyph-name="B.sh" horiz-adv-x="452" 
d="M8 0l150 710h127q86 0 118 -25t18 -93l-17 -81q-14 -67 -57.5 -92.5t-128.5 -25.5h-22l-4 -19h143q32 0 50.5 -2t36.5 -10.5t25 -24.5t7.5 -44t-8.5 -69l-14 -67q-33 -157 -157 -157h-267zM171 276l-36 -170h134q46 0 61 66l8 37q3 14 3 25t-1 18t-7 12t-9.5 7t-14.5 3.5
t-16.5 1.5h-19.5h-10h-92zM244 619l-29 -135h46q39 0 51 57l5 21q11 57 -27 57h-46z" />
    <glyph glyph-name="undercommaaccent" horiz-adv-x="161" 
d="M-7 -69h72l-17 -79l-74 -81h-14z" />
    <glyph glyph-name="O.mon2.001" horiz-adv-x="495" 
d="M281 604q-44 0 -58 -65l-78 -368q-14 -65 30 -65h25l-22 -106h-53q-122 0 -93 135l94 440q28 135 149 135h174q121 0 92 -135l-94 -440q-14 -68 -50 -101.5t-98 -33.5h-56l22 106h28q44 0 58 65l78 368q14 65 -30 65h-118z" />
    <glyph glyph-name="P.mon2.001" horiz-adv-x="465" 
d="M136 604l22 106h269q129 0 100 -132l-43 -205q-28 -132 -156 -132h-164l-51 -241h-105l113 533h105l-40 -186h135q52 0 66 64l27 129q14 64 -38 64h-240z" />
    <glyph glyph-name="S.mon2.001" horiz-adv-x="460" 
d="M311 261l-125 71q-29 17 -40.5 24t-27 20.5t-18.5 27t-3.5 34.5t5.5 50l21 96q27 126 144 126h47l-22 -106h-18q-22 0 -34.5 -13.5t-18.5 -44.5l-10 -43q-4 -21 0.5 -31t24.5 -22l162 -94q41 -23 49 -48t-5 -85l-21 -98q-27 -125 -142 -125h-48l22 106h18q22 0 34.5 11.5
t19.5 44.5l11 50q5 13 0.5 23.5t-8.5 14t-17 11.5zM379 604h-21l22 106h43q57 0 79.5 -33t10.5 -93l-18 -83h-106l10 46q11 57 -20 57zM131 162q-11 -56 29 -56h27l-22 -106h-54q-120 0 -93 125l18 86h105z" />
    <glyph glyph-name="F.mon2.001" horiz-adv-x="418" 
d="M98 0h-104l112 533h105l-39 -184h223l-38 -105h-208zM121 604l22 106h384l-37 -106h-369z" />
    <glyph glyph-name="B.mon2.001" horiz-adv-x="450" 
d="M121 605l22 105h245q126 0 98 -135l-26 -119q-14 -67 -59 -83q31 -8 41.5 -36t3.5 -60l-30 -142q-28 -135 -154 -135h-268l112 532h105l-23 -107h121q40 0 53 60l11 53q15 67 -36 67h-216zM166 320l-46 -214h136q48 0 63 66l17 81q15 67 -28 67h-142z" />
    <glyph glyph-name="I.mon2.001" horiz-adv-x="193" 
d="M113 0h-105l150 710h105z" />
    <glyph glyph-name="E.mon2.001" horiz-adv-x="415" 
d="M349 0h-355l111 528h105l-38 -179h216l-37 -105h-202l-29 -138h266zM121 604l22 106h371l-37 -106h-356z" />
    <glyph glyph-name="Z.mon2.001" horiz-adv-x="436" 
d="M-8 0l6 97l325 436h128l-318 -427h275l-36 -106h-380zM507 604h-384l7 106h384z" />
    <glyph glyph-name="A.mon2.001" horiz-adv-x="477" 
d="M79 0h-111l109 236h246l-4 313l-101 -243h-105l187 404h106l34 -710h-113l-3 130h-188z" />
    <glyph glyph-name="V.mon2.001" horiz-adv-x="471" 
d="M252 0h-105l325 710h112zM116 710h111v-412l-91 -178z" />
    <glyph glyph-name="X.mon2.001" horiz-adv-x="418" 
d="M-33 0l448 710h117l-205 -325l53 -385h-118l-28 238l-150 -238h-117zM230 710l11 -187l-87 -119l-39 306h115z" />
    <glyph glyph-name="N.mon2.001" horiz-adv-x="483" 
d="M298 0l-154 710h119l82 -491l104 491h105l-150 -710h-106zM98 0h-104l117 554l63 -195z" />
    <glyph glyph-name="R.mon2.001" horiz-adv-x="450" 
d="M122 604l22 106h254q120 0 91 -132l-43 -205q-24 -110 -108 -128l88 -245h-120l-86 241h-70l-51 -241h-104l112 533h105l-40 -186h119q45 0 59 64l27 129q14 64 -31 64h-224z" />
    <glyph glyph-name="G.mon2.001" horiz-adv-x="476" 
d="M145 170q-14 -64 31 -64h19l-22 -106h-48q-122 0 -93 132l94 443q28 135 149 135h159q122 0 94 -132l-16 -77h-105l8 39q15 64 -31 64h-102q-45 0 -59 -67zM276 267l38 106h170l-51 -238q-16 -75 -57.5 -105t-122.5 -30h-13l22 106h15q46 0 59 62l21 99h-81z" />
    <glyph glyph-name="C.mon2.001" horiz-adv-x="466" 
d="M176 106h17l-22 -106h-45q-123 0 -94 135l94 440q28 135 150 135h156q124 0 95 -135l-16 -74h-105l8 38q14 65 -31 65h-101q-45 0 -59 -65l-78 -368q-14 -65 31 -65zM282 0h-48l22 106h12q54 0 70 75l6 30h105l-16 -76q-29 -135 -151 -135z" />
    <glyph glyph-name="D.mon2.001" horiz-adv-x="454" 
d="M366 604h-245l22 106h273q122 0 94 -135l-94 -440q-28 -135 -150 -135h-272l112 533h107l-91 -427h138q45 0 59 65l78 368q14 65 -31 65z" />
    <glyph glyph-name="H.mon2.001" horiz-adv-x="475" 
d="M98 0h-104l73 349h298l76 361h105l-150 -710h-105l51 243h-193zM248 710l-61 -289h-105l61 289h105z" />
    <glyph glyph-name="U.mon2.001" horiz-adv-x="481" 
d="M180 106h14l-22 -106h-43q-124 0 -94 138l121 572h105l-113 -534q-16 -70 32 -70zM273 106h-14l-22 -106h42q123 0 153 138l121 572h-106l-113 -534q-8 -37 -22.5 -53.5t-38.5 -16.5z" />
    <glyph glyph-name="W.mon2.001" horiz-adv-x="639" 
d="M218 0h-105l268 710h104l-49 -549l189 549h113l-284 -710h-119l25 399zM129 710h112l-22 -309l-104 -245z" />
    <glyph glyph-name="Y.mon2.001" horiz-adv-x="439" 
d="M237 0h-104l63 300l244 410h109l-251 -423zM232 710l21 -207l-82 -126l-54 333h115z" />
    <glyph glyph-name="L.mon2.001" horiz-adv-x="369" 
d="M311 0h-317l21 106h332zM248 710l-113 -533h-105l113 533h105z" />
    <glyph glyph-name="J.mon2.001" horiz-adv-x="359" 
d="M115 106q83 0 97 64l114 540h105l-122 -577q-28 -133 -190 -133h-146l36 106h106z" />
    <glyph glyph-name="Q.mon2.001" horiz-adv-x="495" 
d="M302 198l-20 -92h11q44 0 58 65l78 368q14 65 -30 65h-28l22 106h56q121 0 92 -135l-94 -440q-14 -68 -50 -101.5t-98 -33.5h-39l-22 -102h-98l22 102h-37q-122 0 -93 135l94 440q28 135 149 135h53l-22 -106h-25q-44 0 -58 -65l-78 -368q-14 -65 30 -65h9l20 92h98z" />
    <glyph glyph-name="K.mon2.001" horiz-adv-x="431" 
d="M97 0h-104l71 341l360 369h130l-302 -324l152 -386h-130l-110 293l-6 -6zM247 710l-33 -158l-130 -117l58 275h105z" />
    <glyph glyph-name="M.mon2.001" horiz-adv-x="574" 
d="M495 0h-106l103 489l-135 -245h-125l-88 466h119l64 -319l197 319h121zM98 0h-104l115 545l56 -228z" />
    <glyph glyph-name="T.mon2.001" horiz-adv-x="453" 
d="M534 604h-430l22 106h430zM244 0h-106l113 533h106z" />
    <glyph glyph-name="O.mon2" horiz-adv-x="495" 
d="M32 135l94 440q28 135 149 135h174q121 0 92 -135l-94 -440q-14 -68 -50 -101.5t-98 -33.5h-174q-122 0 -93 135zM281 604q-44 0 -58 -65l-78 -368q-14 -65 30 -65h118q44 0 58 65l78 368q14 65 -30 65h-118z" />
    <glyph glyph-name="P.mon2" horiz-adv-x="465" 
d="M8 0l150 710h269q129 0 100 -132l-43 -205q-28 -132 -156 -132h-164l-51 -241h-105zM241 604l-55 -257h135q52 0 66 64l27 129q14 64 -38 64h-135z" />
    <glyph glyph-name="S.mon2" horiz-adv-x="460" 
d="M311 261l-130 78q-19 11 -25.5 14.5t-20 13t-18 14.5t-12.5 15t-9 19t-1.5 21t2.5 27l26 121q27 126 144 126h153q120 0 93 -126l-18 -83h-106l10 46q11 57 -28 57h-97q-22 0 -34.5 -13.5t-18.5 -44.5l-10 -46q-6 -13 -1.5 -23t8 -13t16.5 -11l129 -79l27 -15t21.5 -13.5
t18 -14.5t12 -15t8 -18.5t1 -21.5t-3.5 -27l-26 -124q-27 -125 -142 -125h-168q-120 0 -93 125l18 86h105l-10 -49q-11 -56 29 -56h112q42 0 53 56l11 50q1 5 1 9t0.5 7t-0.5 6t-1.5 5t-2.5 4.5t-2.5 3.5t-4 3.5t-4.5 3.5t-5.5 3.5t-5.5 3.5z" />
    <glyph glyph-name="F.mon2" horiz-adv-x="432" 
d="M241 604l-54 -255h222l-38 -105h-207l-51 -244h-105l150 710h383l-36 -106h-264z" />
    <glyph glyph-name="B.mon2" horiz-adv-x="466" 
d="M8 0l150 710h245q125 0 97 -135l-26 -119q-14 -67 -58 -83q30 -8 40.5 -36t3.5 -60l-30 -142q-28 -135 -153 -135h-269zM181 320l-46 -214h135q48 0 63 66l17 81q15 67 -28 67h-141zM241 605l-38 -180h120q41 0 54 60l11 53q15 67 -36 67h-111z" />
    <glyph glyph-name="I.mon2" horiz-adv-x="193" 
d="M113 0h-105l150 710h105z" />
    <glyph glyph-name="E.mon2" horiz-adv-x="430" 
d="M241 604l-54 -255h216l-38 -105h-201l-29 -138h265l-36 -106h-356l150 710h370l-36 -106h-251z" />
    <glyph glyph-name="Z.mon2" horiz-adv-x="435" 
d="M508 613l-375 -507h275l-36 -106h-380l6 97l375 507h-250l7 106h384z" />
    <glyph glyph-name="A.mon2" horiz-adv-x="477" 
d="M300 710h106l34 -710h-113l-3 130h-189l-56 -130h-111zM319 549l-137 -313h141z" />
    <glyph glyph-name="V.mon2" horiz-adv-x="471" 
d="M253 0h-106l-30 710h111l6 -549l238 549h113z" />
    <glyph glyph-name="X.mon2" horiz-adv-x="424" 
d="M232 710l32 -310l156 310h116l-197 -356l48 -354h-120l-29 294l-154 -294h-115l197 354l-51 356h117z" />
    <glyph glyph-name="N.mon2" horiz-adv-x="499" 
d="M113 0h-105l150 710h106l97 -487l103 487h106l-150 -710h-107l-96 491z" />
    <glyph glyph-name="R.mon2" horiz-adv-x="464" 
d="M8 0l150 710h254q120 0 91 -132l-43 -205q-24 -110 -109 -128l88 -245h-120l-86 241h-69l-51 -241h-105zM241 604l-55 -257h119q45 0 59 64l27 129q14 64 -31 64h-119z" />
    <glyph glyph-name="G.mon2" horiz-adv-x="476" 
d="M276 267l38 106h170l-51 -238q-29 -135 -150 -135h-158q-122 0 -93 132l94 443q28 135 149 135h159q122 0 94 -132l-16 -77h-105l8 39q14 64 -31 64h-102q-45 0 -59 -67l-78 -367q-14 -64 31 -64h101q46 0 59 62l21 99h-81z" />
    <glyph glyph-name="C.mon2" horiz-adv-x="466" 
d="M176 106h101q45 0 59 65l8 40h105l-16 -76q-29 -135 -151 -135h-156q-123 0 -94 135l94 440q28 135 150 135h156q124 0 95 -135l-16 -74h-105l8 38q14 65 -31 65h-101q-45 0 -59 -65l-78 -368q-14 -65 31 -65z" />
    <glyph glyph-name="D.mon2" horiz-adv-x="479" 
d="M8 0l150 710h272q124 0 95 -135l-94 -440q-29 -135 -151 -135h-272zM380 604h-138l-106 -498h138q45 0 59 65l78 368q14 65 -31 65z" />
    <glyph glyph-name="H.mon2" horiz-adv-x="489" 
d="M113 0h-105l150 710h105l-76 -361h193l76 361h104l-150 -710h-104l51 243h-193z" />
    <glyph glyph-name="U.mon2" horiz-adv-x="490" 
d="M282 106q25 0 39.5 16.5t22.5 53.5l113 534h105l-121 -572q-30 -138 -153 -138h-159q-124 0 -94 138l121 572h105l-113 -534q-16 -70 32 -70h102z" />
    <glyph glyph-name="W.mon2" horiz-adv-x="639" 
d="M232 0h-119l16 710h112l-43 -549l183 549h105l-49 -549l189 549h113l-284 -710h-119l23 355z" />
    <glyph glyph-name="Y.mon2" horiz-adv-x="439" 
d="M237 0h-104l62 295l-78 415h115l38 -307l163 307h116l-249 -413z" />
    <glyph glyph-name="L.mon2" horiz-adv-x="428" 
d="M263 710l-128 -604h274l-36 -106h-365l150 710h105z" />
    <glyph glyph-name="J.mon2" horiz-adv-x="359" 
d="M115 106q83 0 97 64l114 540h105l-122 -577q-28 -133 -190 -133h-146l36 106h106z" />
    <glyph glyph-name="Q.mon2" horiz-adv-x="495" 
d="M32 135l94 440q28 135 149 135h174q121 0 92 -135l-94 -440q-14 -68 -50 -101.5t-98 -33.5h-39l-22 -102h-98l22 102h-37q-122 0 -93 135zM281 604q-44 0 -58 -65l-78 -368q-14 -65 30 -65h9l20 92h98l-20 -92h11q44 0 58 65l78 368q14 65 -30 65h-118z" />
    <glyph glyph-name="K.mon2" horiz-adv-x="448" 
d="M113 0h-105l150 710h105l-62 -295l239 295h130l-287 -355l137 -355h-130l-115 295z" />
    <glyph glyph-name="M.mon2" horiz-adv-x="588" 
d="M509 0h-105l108 510l-137 -226h-113l-41 226l-108 -510h-105l150 710h120l63 -320l198 320h120z" />
    <glyph glyph-name="T.mon2" horiz-adv-x="453" 
d="M534 604h-162l-128 -604h-106l128 604h-162l22 106h430z" />
    <glyph glyph-name="K.mon2.002" horiz-adv-x="459" 
d="M98 0h-104l85 402h184l197 308h116l-225 -357l76 -353h-124l-61 296h-82zM248 710l-50 -236h-104l50 236h104z" />
    <glyph glyph-name="A.ae" horiz-adv-x="494" 
d="M307 710h107l39 -673l-107 -37l-5 130h-206l-59 -130l-92 37zM327 549l-143 -313h154z" />
    <glyph glyph-name="K.ae" horiz-adv-x="423" 
d="M113 0h-105l150 710h105l-62 -295l245 302l80 -66l-243 -296l113 -302l-104 -60l-117 302z" />
    <glyph glyph-name="M.ae" horiz-adv-x="562" 
d="M483 0h-105l104 491l-136 -247h-99l-30 247l-104 -491h-105l150 710h106l64 -318l198 318h107z" />
    <glyph glyph-name="R.ae" horiz-adv-x="459" 
d="M8 0l150 710h256q120 0 92 -132l-43 -205q-24 -111 -113 -129l68 -201l-98 -50l-86 248h-70l-51 -241h-105zM241 604l-55 -257h122q45 0 59 64l27 129q14 64 -31 64h-122z" />
    <glyph glyph-name="V.ae" horiz-adv-x="490" 
d="M263 0h-107l-39 673l107 37l19 -549l251 549l93 -37l-325 -672z" />
    <glyph glyph-name="W.ae" horiz-adv-x="768" 
d="M540 0h-107v1l-18 317l-153 -317l1 -1h-107l-39 673l107 37l19 -549l251 549l93 -37l-79 -161l13 -351l251 549l93 -37z" />
    <glyph glyph-name="X.ae" horiz-adv-x="436" 
d="M457 729l80 -56l-217 -306l91 -321l-103 -56l-74 257l-183 -257l-78 56l227 320l-87 307l103 56l69 -243z" />
    <glyph glyph-name="Y.ae" horiz-adv-x="458" 
d="M246 0h-105l69 327l-92 353l102 49l64 -300l190 300l82 -49l-240 -350z" />
    <glyph glyph-name="A.SC" horiz-adv-x="443" 
d="M261 604h105l41 -604h-111l-5 103h-169l-47 -103h-109zM279 440l-108 -231h116z" />
    <glyph glyph-name="B.SC" horiz-adv-x="429" 
d="M5 0l128 604h224q111 0 85 -115l-20 -95q-13 -64 -51 -77q34 -1 45 -21t1 -65l-25 -116q-24 -115 -135 -115h-252zM166 265l-34 -159h118q35 0 45 47l13 63q11 49 -20 49h-122zM215 497l-27 -127h94q31 0 41 47l7 34q10 46 -25 46h-90z" />
    <glyph glyph-name="C.SC" horiz-adv-x="427" 
d="M165 106h82q36 0 46 47l7 34h105l-15 -72q-24 -115 -136 -115h-139q-112 0 -88 115l79 374q26 115 137 115h139q113 0 87 -115l-14 -70h-105l6 32q10 46 -26 46h-82q-36 0 -46 -46l-63 -298q-10 -47 26 -47z" />
    <glyph glyph-name="D.SC" horiz-adv-x="456" 
d="M5 0l128 604h245q133 0 103 -141l-69 -323q-30 -140 -162 -140h-245zM243 106q58 0 72 72l53 247q7 37 -3 54.5t-39 17.5h-111l-83 -391h111z" />
    <glyph glyph-name="E.SC" horiz-adv-x="386" 
d="M215 497l-41 -193h178l-37 -105h-163l-20 -93h221l-36 -106h-312l128 604h326l-37 -107h-207z" />
    <glyph glyph-name="F.SC" horiz-adv-x="369" 
d="M215 497l-41 -193h171l-37 -105h-156l-42 -199h-105l128 604h319l-38 -107h-199z" />
    <glyph glyph-name="G.SC" horiz-adv-x="441" 
d="M233 220l38 106h171l-45 -211q-24 -115 -136 -115h-147q-113 0 -88 114l79 375q26 115 136 115h148q111 0 87 -114l-14 -64h-104l5 25q10 46 -26 46h-89q-36 0 -46 -47l-63 -298q-10 -46 26 -46h89q36 0 46 46l14 68h-81z" />
    <glyph glyph-name="H.SC" horiz-adv-x="452" 
d="M110 0h-105l128 604h105l-61 -285h160l61 285h105l-128 -604h-105l45 213h-160z" />
    <glyph glyph-name="I.SC" horiz-adv-x="187" 
d="M110 0h-105l128 604h105z" />
    <glyph glyph-name="J.SC" horiz-adv-x="291" 
d="M98 106q35 0 45 46l96 452h105l-104 -490q-24 -114 -136 -114h-128l36 106h86z" />
    <glyph glyph-name="K.SC" horiz-adv-x="429" 
d="M110 0h-105l128 604h105l-59 -276l226 276h115l-246 -302l128 -302h-118l-116 276z" />
    <glyph glyph-name="L.SC" horiz-adv-x="353" 
d="M238 604l-106 -498h203l-37 -106h-293l128 604h105z" />
    <glyph glyph-name="M.SC" horiz-adv-x="520" 
d="M111 0h-106l128 604h106l53 -284l173 281l1 3h105l-128 -604h-105l74 352l-96 -153h-100l-31 152z" />
    <glyph glyph-name="N.SC" horiz-adv-x="462" 
d="M110 0h-105l128 604h105v-1l81 -354q3 -13 5 -41l84 396h105l-128 -604h-105l-80 337q-5 18 -7 57z" />
    <glyph glyph-name="O.SC" horiz-adv-x="463" 
d="M27 115l79 374q26 115 137 115h161q113 0 87 -115l-79 -374q-24 -115 -136 -115h-161q-112 0 -88 115zM248 497q-36 0 -46 -46l-63 -298q-10 -47 26 -47h104q36 0 46 47l63 298q10 46 -26 46h-104z" />
    <glyph glyph-name="P.SC" horiz-adv-x="422" 
d="M152 202l-42 -202h-105l28 130h-1l101 474h244q113 0 89 -114l-38 -175q-24 -113 -137 -113h-139zM215 497l-40 -190h111q35 0 45 47l20 97q10 46 -25 46h-111z" />
    <glyph glyph-name="Q.SC" horiz-adv-x="463" 
d="M27 115l79 374q26 115 137 115h161q113 0 87 -115l-79 -374q-24 -115 -136 -115h-30l-19 -88h-98l19 88h-33q-112 0 -88 115zM165 106h5l14 67h98l-14 -67h1q36 0 46 47l63 298q10 46 -26 46h-104q-36 0 -46 -46l-63 -298q-10 -47 26 -47z" />
    <glyph glyph-name="R.SC" horiz-adv-x="434" 
d="M5 0l128 604h245q111 0 87 -114l-38 -176q-21 -100 -108 -112l74 -202h-120l-74 200h-47l-42 -200h-105zM215 497l-40 -190h111q36 0 46 46l20 98q10 46 -26 46h-111z" />
    <glyph glyph-name="S.SC" horiz-adv-x="411" 
d="M259 217l-98 59q-57 35 -72 60t-3 80l17 81q23 107 127 107h133q105 0 82 -107l-15 -71h-105l7 32q9 39 -20 39h-75q-28 0 -36 -39l-4 -20q-4 -20 0 -29t18 -18l99 -61q56 -35 68 -51q19 -24 10 -65l-23 -108q-23 -106 -126 -106h-148q-105 0 -82 106l17 81h105l-9 -42
q-7 -39 21 -39h89q29 0 36 39l6 29q6 27 -19 43z" />
    <glyph glyph-name="T.SC" horiz-adv-x="378" 
d="M436 497h-125l-105 -497h-106l105 497h-124l23 107h355z" />
    <glyph glyph-name="U.SC" horiz-adv-x="442" 
d="M249 106q35 0 45 49l96 449h105l-104 -488q-24 -116 -135 -116h-141q-111 0 -87 116l104 488h105l-96 -449q-10 -49 26 -49h82z" />
    <glyph glyph-name="V.SC" horiz-adv-x="421" 
d="M228 0h-106l-19 604h112l-3 -411q-2 -28 -8 -52q10 37 16 52l171 411h112z" />
    <glyph glyph-name="W.SC" horiz-adv-x="660" 
d="M225 0h-105l-17 604h106l-7 -409q0 -38 -2 -50q9 26 18 50l155 408l99 1l-19 -409q-3 -44 -4 -52q10 34 18 51l167 410h108l-273 -604h-107l11 366q1 9 6.5 36t6.5 35q-18 -67 -19 -71z" />
    <glyph glyph-name="X.SC" horiz-adv-x="401" 
d="M238 345l139 259h110l-174 -303l46 -301h-111l-32 242l-136 -242h-109l171 301l-46 303h108z" />
    <glyph glyph-name="Y.SC" horiz-adv-x="431" 
d="M233 0h-105l48 226l-86 378h109l47 -231q6 -31 3 -46q10 24 23 45l142 232h109l-242 -375z" />
    <glyph glyph-name="Z.SC" horiz-adv-x="388" 
d="M435 506l-299 -400h224l-36 -106h-328l6 97l299 400h-200l8 107h332z" />
    <glyph glyph-name="a.ital" 
d="M444 505l-49 -232h1l-58 -273h-82l2 58q-31 -58 -105 -58h-46q-107 0 -81 126l52 244q30 141 144 141h46q31 0 47 -9.5t23 -31.5l8 35h98zM280 195l37 174q3 47 -34 47h-53q-44 0 -57 -63l-42 -195q-13 -63 31 -63h53q41 0 57 57l9 43h-1z" />
    </font>
</defs>
</svg>
