<?xml version="1.0" standalone="no"?>
<!DOCTYPE svg PUBLIC "-//W3C//DTD SVG 1.1//EN" "http://www.w3.org/Graphics/SVG/1.1/DTD/svg11.dtd" >
<svg xmlns="http://www.w3.org/2000/svg" xmlns:xlink="http://www.w3.org/1999/xlink" version="1.1">
<metadata>
Created by FontForge 20170731 at Wed Mar 18 14:48:39 2015
 By Aleksey,,,
2015 Iconian Fonts - www.iconian.com
</metadata>
<defs>
<font id="FutureForcesHalftoneItalic" horiz-adv-x="634" >
  <font-face 
    font-family="Future Forces Halftone Italic"
    font-weight="400"
    font-style="italic"
    font-stretch="normal"
    units-per-em="1000"
    panose-1="0 0 0 0 0 0 0 0 0 0"
    ascent="800"
    descent="-200"
    x-height="407"
    cap-height="407"
    bbox="-81 -147 1155 542"
    underline-thickness="50"
    underline-position="-175"
    unicode-range="U+0020-2122"
  />
<missing-glyph horiz-adv-x="500" 
 />
    <glyph glyph-name=".notdef" horiz-adv-x="500" 
 />
    <glyph glyph-name=".null" horiz-adv-x="0" 
 />
    <glyph glyph-name="nonmarkingreturn" horiz-adv-x="500" 
 />
    <glyph glyph-name="FL0020h" unicode=" " horiz-adv-x="384" 
 />
    <glyph glyph-name="FL0021h" unicode="!" horiz-adv-x="205" 
d="M163 0l36 111h-121l-36 -111h121zM211 148l23 72h-121l-23 -72h121zM116 227h121l19 58h-121zM139 298h121l16 51h-121zM174 407l-12 -37h121l12 37h-121z" />
    <glyph glyph-name="FL0022h" unicode="&#x22;" horiz-adv-x="351" 
d="M139 298h113l16 51h-113zM293 298h113l16 51h-113zM316 370h113l12 37h-113zM162 370h113l12 37h-113zM192 246l46 39h-103l-13 -39h70zM346 246l46 39h-103l-13 -39h70z" />
    <glyph glyph-name="FL0023h" unicode="#" horiz-adv-x="685" 
d="M100 178l-36 -110h112l-22 -68h121l22 68h135l-22 -68h121l22 68h112l36 110h-112l13 42h-121l-13 -42h-135l13 42h-121l-13 -42h-112zM484 228v-1h121v1h112l19 57h-601l-19 -57h112v-1h121v1h135zM753 338h-112l3 11h-121l-3 -11h-135l3 11h-121l-3 -11h-112l-13 -40
h601zM663 407h-121l-12 -37h121zM407 407h-121l-12 -37h121z" />
    <glyph glyph-name="FL0024h" unicode="$" 
d="M239 -58h119l19 58h182q11 0 25.5 12t18.5 23l60 185h-550l-10 -33q-3 -10 5.5 -24.5t28.5 -14.5h169l-12 -37h-216l-36 -111h216zM139 298h550l16 51h-550zM643 258h-182l9 27h-119l-9 -27h-95l9 27h-121l-19 -58h548q-1 9 -7 20t-14 11zM724 407h-215l3 7h-119l-3 -7
h-176q-17 -3 -30.5 -12.5t-21.5 -24.5h550zM507 111h-94l12 37h94zM527 462h-119l-7 -21h119z" />
    <glyph glyph-name="FL0025h" unicode="%" horiz-adv-x="697" 
d="M652 -9l57 174q2 6 -2 11t-9 5h-237l32 39h-130l-185 -220h130l117 138l-48 -147q-2 -5 1.5 -10.5t8.5 -5.5h244q6 0 12.5 5t8.5 11zM124 227h376l49 58h-130l-15 -18l6 18h-275l-15 -44q-2 -8 4 -14zM162 370h275l15 44h-275zM333 300h-114l16 49h-80l-16 -51h275l16 51
h-81zM430 298h130l43 51h-130zM590 50h-114l18 56h114zM652 407h-130l-31 -37h130z" />
    <glyph glyph-name="FL0026h" unicode="&#x26;" 
d="M199 111l12 37h402l23 72h-508q1 -5 3.5 -8.5t4.5 -8.5q-10 -8 -17.5 -15t-14 -16.5t-13 -23.5t-13.5 -36l-9 -30q-4 -11 -7.5 -25t-4 -27t3.5 -21.5t15 -8.5h199l-19 -58h119l19 58h198l36 111h-429zM148 325l-9 -27h550l16 51h-549q-2 -2 -2.5 -5.5t-2.5 -7.5zM724 407
h-198l3 7h-119l-3 -7h-199q-13 0 -23.5 -11t-18.5 -26h546zM649 258h-402l9 27h-121q-8 -22 -9.5 -35t0.5 -23h513zM544 462h-119l-7 -21h119z" />
    <glyph glyph-name="FL0027h" unicode="'" horiz-adv-x="205" 
d="M139 298h121l16 51h-121zM162 370h121l12 37h-121zM197 246l49 39h-111l-13 -39h75z" />
    <glyph glyph-name="FL0028h" unicode="(" horiz-adv-x="344" 
d="M288 -43l36 111h-139l49 152h-121l-75 -231q-2 -9 4 -20.5t17 -11.5h229zM162 370h260l15 44h-260zM412 338l3 11h-260l-16 -51h121l13 40h139zM116 227h121l19 58h-121zM199 441h246l3 8h-229q-9 0 -20 -8z" />
    <glyph glyph-name="FL0029h" unicode=")" horiz-adv-x="344" 
d="M28 -43h229q11 0 24.5 11.5t16.5 20.5l75 231h-121l-49 -152h-139zM162 370h260l15 44h-260zM291 338l-13 -40h121l16 51h-260l-3 -11h139zM255 227h121l19 58h-121zM417 449h-229l-3 -8h246q-8 8 -14 8z" />
    <glyph glyph-name="asterisk" unicode="*" horiz-adv-x="210" 
d="M304 388l1 26h-129l-18 -26l32 -7l-21 -11h110l-11 11zM224 319l48 30h-109l35 -30l20 27zM286 461h-63l-3 -20h54zM296 441h10l1 4zM193 441h7l-5 3z" />
    <glyph glyph-name="FL002Bh" unicode="+" horiz-adv-x="464" 
d="M225 148l-31 -97h110l31 97h135l23 72h-380l-23 -72h135zM126 258l-10 -31h380l10 31h-135l9 27h-110l-9 -27h-135zM274 298h110l16 51h-110z" />
    <glyph glyph-name="FL002Ch" unicode="," horiz-adv-x="205" 
d="M163 0l36 111h-121l-52 -161h75z" />
    <glyph glyph-name="FL002Dh" unicode="-" horiz-adv-x="388" 
d="M90 148h304l23 72h-304zM430 258h-304l-10 -31h304z" />
    <glyph glyph-name="FL002Eh" unicode="." horiz-adv-x="205" 
d="M163 0l36 111h-121l-36 -111h121z" />
    <glyph glyph-name="FL002Fh" unicode="/" horiz-adv-x="392" 
d="M157 0l184 220h-132l-184 -220h132zM216 227h132l49 58h-132zM275 298h132l43 51h-132zM367 407l-31 -37h132l31 37h-132z" />
    <glyph glyph-name="FL0031h" unicode="0" 
d="M602 32l61 188h-121l-35 -109h-137l91 109h-129l-91 -109h-42l35 109h-121l-61 -188q-2 -9 4 -20.5t17 -11.5h488q11 0 24.5 10.5t16.5 21.5zM139 298h550l16 51h-550zM714 375q4 11 -4.5 21.5t-16.5 10.5h-488q-8 0 -22 -10.5t-19 -21.5l-2 -5h550zM339 227h129l49 58
h-129zM116 227h121l19 58h-121zM545 227h121l19 58h-121z" />
    <glyph glyph-name="FL0034h" unicode="1" horiz-adv-x="247" 
d="M205 0l71 220h-121l-71 -220h121zM139 298h163l16 51h-163zM158 227h121l19 58h-121zM174 407l-12 -37h163l12 37h-163z" />
    <glyph glyph-name="FL0032h" unicode="2" 
d="M628 111h-429l12 37h382q10 0 20 4.5t18.5 10.5t14 12.5t7.5 11.5l10 33h-550l-60 -185q-4 -11 3.5 -23t18.5 -12h517zM139 298h550l16 51h-550zM162 370h550q2 15 -6 24.5t-22 12.5h-510zM118 227h548l19 58h-121l-9 -27h-396q-8 0 -21 -11t-20 -20z" />
    <glyph glyph-name="FL0033h" unicode="3" 
d="M78 111l-36 -111h516q11 0 20.5 8.5t17.5 21.5t13.5 27t9.5 25l9 30q7 22 10 36t3 23q0 10 -3.5 17l-7.5 15q5 5 10 9t8 8h-508l-23 -72h402l-12 -37h-429zM698 325l3 11q3 7 3 13h-549l-16 -51h550zM690 407h-516l-12 -37h546q2 15 -1.5 26t-16.5 11zM685 285h-121
l-9 -27h-402l-10 -31h512q8 10 15 23t15 35z" />
    <glyph glyph-name="FL0037h" unicode="4" 
d="M592 0l71 220h-550l-23 -72h429l-48 -148h121zM247 258l9 27h-121l-19 -58h550l19 58h-121l-9 -27h-308zM139 298h121l16 51h-121zM568 298h121l16 51h-121zM174 407l-12 -37h121l12 37h-121zM591 370h121l12 37h-121z" />
    <glyph glyph-name="FL0035h" unicode="5" 
d="M78 111l-36 -111h517q11 0 25.5 12t18.5 23l60 185h-550l-23 -72h429l-12 -37h-429zM139 298h550l16 51h-550zM724 407h-550l-12 -37h550zM643 258h-396l9 27h-121l-19 -58h548q-1 9 -7 20t-14 11z" />
    <glyph glyph-name="FL0036h" unicode="6" 
d="M75 0h485q10 1 24.5 11.5t18.5 21.5l60 187h-550l-61 -188q-4 -14 5.5 -23t17.5 -9zM139 298h550l16 51h-550zM724 407h-517q-11 0 -24.5 -10.5t-18.5 -21.5l-2 -5h550zM643 258h-396l9 27h-121l-19 -58h548q-1 9 -7 20t-14 11zM198 109l13 39h308l-13 -39h-308z" />
    <glyph glyph-name="FL003Bh" unicode="7" 
d="M316 0l269 220h-164l-265 -220h160zM691 306l14 43h-550l-16 -51h543zM174 407l-12 -37h550l12 37h-550zM594 227l72 58h-166l-70 -58h164z" />
    <glyph glyph-name="FL0038h" unicode="8" horiz-adv-x="646" 
d="M135 203q-10 -8 -17 -15t-13.5 -16.5t-13 -23.5t-13.5 -36l-9 -30q-4 -11 -7 -25t-3 -27t4 -21.5t15 -8.5h490q11 0 20.5 8.5t18 21.5t14.5 27t10 25l9 30q7 22 10.5 36t3 23.5t-3.5 16.5t-7 15q14 11 17 17h-533l4 -8t4 -9zM148 325l-9 -27h562l9 27q2 5 2.5 11t2.5 13
h-559q-2 -2 -2.5 -5.5t-2.5 -7.5zM247 258l9 27h-121q-8 -22 -9.5 -35t0.5 -23h541q8 10 15 23t15 35h-121l-9 -27h-320zM700 407h-490q-13 0 -23.5 -11t-19.5 -26h552q2 15 -2.5 26t-16.5 11zM199 111l12 37h320l-12 -37h-320z" />
    <glyph glyph-name="FL0039h" unicode="9" 
d="M123 149h396l-12 -38h-429l-36 -111h519q4 0 10.5 3t12.5 8t11 10.5t7 10.5l61 188h-550l-10 -33q-2 -4 -0.5 -10.5t4.5 -12.5t7 -10.5t9 -4.5zM139 298h550l16 51h-550zM247 259l9 26h-121l-19 -58h550l19 58h-121l-9 -26h-308zM714 374q3 11 -4 22t-18 11h-485
q-10 -1 -25 -11.5t-18 -21.5l-2 -4h550z" />
    <glyph glyph-name="FL003Ah" unicode=":" horiz-adv-x="205" 
d="M163 0l36 111h-121l-36 -111h121zM139 298h121l16 51h-121zM241 240l15 45h-121l-15 -45h121z" />
    <glyph glyph-name="FL003Ch" unicode=";" horiz-adv-x="205" 
d="M163 0l36 111h-121l-52 -161h75zM139 298h121l16 51h-121zM241 240l15 45h-121l-15 -45h121z" />
    <glyph glyph-name="FL003Dh" unicode="&#x3c;" horiz-adv-x="411" 
d="M247 203l22 17h-156l-22 -17l139 -203h156zM123 227h156l77 58h-156zM217 298h156l67 51h-155zM363 407l-50 -37h155l50 37h-155z" />
    <glyph glyph-name="FL003Fh" unicode="=" horiz-adv-x="464" 
d="M100 178l-36 -110h380l36 110h-380zM496 228l19 57h-380l-19 -57h380zM152 338l-13 -40h380l13 40h-380z" />
    <glyph glyph-name="FL003Eh" unicode="&#x3e;" horiz-adv-x="411" 
d="M296 203l-271 -203h156l271 203l-13 17h-155zM280 227h155l-39 58h-156zM231 298h156l-36 51h-155zM312 407h-155l25 -37h155z" />
    <glyph glyph-name="FL0040h" unicode="?" 
d="M204 220l-23 -72h412q10 0 20 4.5t18.5 10.5t14 12.5t7.5 11.5l10 33h-459zM139 298h550l16 51h-550zM162 370h550q2 15 -6 24.5t-22 12.5h-510zM209 227h457l19 58h-121l-9 -27h-305q-8 0 -21 -11t-20 -20zM254 0l36 111h-121l-36 -111h121z" />
    <glyph glyph-name="FL004Ah" unicode="@" horiz-adv-x="731" 
d="M59 -43h616l35 108h-529l50 155h-118l-75 -231q-2 -9 4 -20.5t17 -11.5zM350 178l13 42h-82l-33 -103q-2 -5 1.5 -10.5t8.5 -5.5h433q11 0 24 11.5t17 20.5l28 87h-118l-13 -42h-50l13 42h-83l-13 -42h-146zM162 370h647l15 44h-647zM366 229h146v-2h83l19 58h-311
l-19 -58h82v2zM271 341h411l-14 -43h118l16 51h-647l-16 -51h118zM116 227h118l19 58h-118zM645 227h118l19 58h-118zM804 449h-585q-9 0 -20 -8h619q-8 8 -14 8zM604 306h-280q-6 0 -14 -8h305q-5 8 -11 8z" />
    <glyph glyph-name="FL0060h" unicode="A" horiz-adv-x="614" 
d="M457 0h132l-47 220h-132l9 -38h-106l32 38h-131l-189 -220h132l61 72h223zM398 281l12 -54h131l-12 58h-259l-50 -58h132zM281 298h245l-11 51h-190zM343 370h168l-8 37h-128z" />
    <glyph glyph-name="FL0042h" unicode="B" horiz-adv-x="646" 
d="M42 0h526q11 0 20.5 8.5t18 21.5t14.5 27t10 25l10 31q7 22 10 36t2.5 23.5t-3.5 16t-7 14.5q14 11 17 17h-547zM716 349h-561l-16 -51h562l9 27l3 11q3 7 3 13zM697 285h-121l-9 -27h-320l9 27h-121l-19 -58h551q8 10 15 22.5t15 35.5zM162 370h557q2 15 -2.5 26
t-16.5 11h-526zM199 111l12 37h320l-12 -37h-320z" />
    <glyph glyph-name="FL0043h" unicode="C" 
d="M602 32l39 118h-121l-13 -39h-308l35 109h-121l-61 -188q-2 -9 4 -20.5t17 -11.5h488q11 0 24.5 10.5t16.5 21.5zM139 298h550l16 51h-550zM162 370h550l2 5q4 11 -4.5 21.5t-16.5 10.5h-488q-8 0 -22 -10.5t-19 -21.5zM116 227h121l19 58h-121zM676 258l9 27h-121
l-9 -27h121z" />
    <glyph glyph-name="FL0044h" unicode="D" 
d="M606 43l57 177h-121l-35 -109h-308l35 109h-121l-71 -220h507q6 0 14.5 4.5t17.5 11.5t16 14t9 13zM139 298h550l16 51h-550zM162 370h548q-2 12 -11 24.5t-18 12.5h-507zM545 227h121l19 58h-121zM116 227h121l19 58h-121z" />
    <glyph glyph-name="FL0045h" unicode="E" 
d="M607 149q4 0 11.5 4.5t14.5 10.5t12.5 12.5t7.5 10.5l10 33h-550l-61 -188q-3 -10 5 -21t16 -11h519l36 111h-429l12 38h396zM139 298h550l16 51h-550zM247 259l9 26h-121l-19 -58h550l19 58h-121l-9 -26h-308zM162 370h550l2 4q3 11 -5 21.5t-18 11.5h-485
q-11 0 -25 -11t-17 -22z" />
    <glyph glyph-name="FL0046h" unicode="F" 
d="M163 0l36 111h402l35 109h-523l-71 -220h121zM139 298h550l16 51h-550zM174 407l-12 -37h550l12 37h-550zM116 227h121l19 58h-121z" />
    <glyph glyph-name="FL0047h" unicode="G" 
d="M198 109l36 111h-121l-61 -188q-4 -14 5.5 -23t17.5 -9h485q10 1 24.5 11.5t18.5 21.5l60 187h-293l-23 -72h172l-13 -39h-308zM139 298h550l16 51h-550zM162 370h550l12 37h-517q-11 0 -24.5 -10.5t-18.5 -21.5zM373 227h291q-1 9 -7 20t-14 11h-260zM116 227h121l19 58
h-121z" />
    <glyph glyph-name="FL0048h" unicode="H" 
d="M592 0l71 220h-550l-71 -220h121l48 148h308l-48 -148h121zM247 258l9 27h-121l-19 -58h550l19 58h-121l-9 -27h-308zM139 298h121l16 51h-121zM568 298h121l16 51h-121zM174 407l-12 -37h121l12 37h-121zM591 370h121l12 37h-121z" />
    <glyph glyph-name="FL0049h" unicode="I" 
d="M628 111h-215l35 109h-121l-35 -109h-214l-36 -111h550zM139 298h550l16 51h-550zM724 407h-550l-12 -37h550zM330 227h121l19 58h-121z" />
    <glyph glyph-name="FL0051h" unicode="J" 
d="M52 32q-3 -11 3.5 -21.5t17.5 -10.5h488q11 0 24 11.5t17 20.5l61 188h-121l-35 -109h-308l13 39h-121zM260 298h429l16 51h-429zM724 407h-429l-12 -37h429zM545 227h121l19 58h-121z" />
    <glyph glyph-name="FL007Ch" unicode="K" horiz-adv-x="646" 
d="M163 0l48 148h320l-48 -148h121l38 116q11 36 14.5 61.5t0.5 42.5h-544l-71 -220h121zM618 258l22 27h-137l-23 -27h-233l9 27h-121l-19 -58h540q-10 26 -38 31zM514 298h136l40 51h-134zM139 298h121l16 51h-121zM737 407h-131l-32 -37h133zM174 407l-12 -37h121l12 37
h-121z" />
    <glyph glyph-name="FL004Ch" unicode="L" 
d="M628 111h-429l35 109h-121l-60 -187q-4 -11 3 -22t20 -11h516zM116 227h121l19 58h-121zM139 298h121l16 51h-121zM162 370h121l12 37h-121z" />
    <glyph glyph-name="FL004Dh" unicode="M" horiz-adv-x="751" 
d="M442 0l186 220h-130l-85 -103l-19 103h-131l45 -220h134zM709 0l71 220h-122l-71 -220h122zM163 0l71 220h-121l-71 -220h121zM677 277l-16 -50h122l19 58h-249l-48 -58h129zM253 277l10 -50h130l-10 58h-248l-19 -58h121zM564 298h242l16 51h-216zM139 298h241l-10 51
h-215zM162 370h205l-7 37h-186zM624 370h205l12 37h-186z" />
    <glyph glyph-name="FL004Eh" unicode="N" horiz-adv-x="649" 
d="M471 220h-194l216 -220h114l71 220h-122l-21 -66zM163 0l71 220h-121l-71 -220h121zM245 253l26 -26h194l-56 58h-274l-19 -58h121zM139 298h257l-50 51h-191zM559 227h122l19 58h-122zM582 298h122l16 51h-122zM174 407l-12 -37h164l-36 37h-116zM605 370h122l12 37
h-122z" />
    <glyph glyph-name="FL004Fh" unicode="O" 
d="M602 32l61 188h-121l-35 -109h-308l35 109h-121l-61 -188q-2 -9 4 -20.5t17 -11.5h488q11 0 24.5 10.5t16.5 21.5zM139 298h550l16 51h-550zM162 370h550l2 5q4 11 -4.5 21.5t-16.5 10.5h-488q-8 0 -22 -10.5t-19 -21.5zM116 227h121l19 58h-121zM545 227h121l19 58h-121
z" />
    <glyph glyph-name="FL0050h" unicode="P" horiz-adv-x="646" 
d="M42 0h121l36 111h368q23 0 50 27.5t53 81.5h-557zM716 349h-561l-16 -51h562l9 27l3 11q3 7 3 13zM162 370h557q2 15 -2.5 26t-16.5 11h-526zM116 227h121l19 58h-121zM697 285h-121l-19 -58h117q13 27 23 58z" />
    <glyph glyph-name="FL0071h" unicode="Q" 
d="M386 165l22 -54h-209l35 109h-121l-61 -188q-2 -9 4 -20.5t17 -11.5h386l31 -59h148l-35 92l60 187h-121l-17 -55h-139zM139 298h550l16 51h-550zM714 375q4 11 -4.5 21.5t-16.5 10.5h-488q-8 0 -22 -10.5t-19 -21.5l-2 -5h550zM116 227h121l19 58h-121zM545 227h121
l19 58h-121z" />
    <glyph glyph-name="FL0053h" unicode="R" horiz-adv-x="646" 
d="M520 111l-36 -111h120l35 108q1 5 1.5 15.5t0 22t-2 21.5t-4.5 14q15 16 29 39h-550l-71 -220h121l36 111h321zM716 349h-561l-16 -51h562l9 27l3 11q3 7 3 13zM162 370h557q2 15 -2.5 26t-16.5 11h-526zM116 227h121l19 58h-121zM697 285h-121l-19 -58h111q8 13 15 27
t14 31z" />
    <glyph glyph-name="FL0056h" unicode="S" 
d="M78 111l-36 -111h517q11 0 25.5 12t18.5 23l60 185h-550l-10 -33q-3 -10 5.5 -24.5t28.5 -14.5h382l-12 -37h-429zM139 298h550l16 51h-550zM724 407h-510q-17 -3 -30.5 -12.5t-21.5 -24.5h550zM643 258h-396l9 27h-121l-19 -58h548q-1 9 -7 20t-14 11z" />
    <glyph glyph-name="FL0055h" unicode="T" 
d="M139 298h550l16 51h-550zM377 0l71 220h-121l-71 -220h121zM724 407h-550l-12 -37h550zM330 227h121l19 58h-121z" />
    <glyph glyph-name="FL0057h" unicode="U" 
d="M602 32l61 188h-121l-35 -109h-308l35 109h-121l-61 -188q-2 -9 4 -20.5t17 -11.5h488q11 0 24.5 10.5t16.5 21.5zM116 227h121l19 58h-121zM545 227h121l19 58h-121zM139 298h121l16 51h-121zM568 298h121l16 51h-121zM162 370h121l12 37h-121zM591 370h121l12 37h-121z
" />
    <glyph glyph-name="FL0059h" unicode="V" horiz-adv-x="614" 
d="M348 126l-21 94h-131l47 -220h128l189 220h-132zM434 227h132l50 58h-132zM195 227h132l-12 58h-132zM495 298h132l44 51h-132zM180 298h132l-11 51h-132zM557 370h132l32 37h-132zM157 407l8 -37h132l-8 37h-132z" />
    <glyph glyph-name="FL0B39h" unicode="W" horiz-adv-x="884" 
d="M620 126l-21 94h-174l-79 -94l-20 94h-129l48 -220h126l115 135l30 -135h125l189 220h-131zM432 227h167l-12 58h-133l5 -26zM705 227h131l50 58h-131zM196 227h129l-12 58h-129zM451 298h133l-12 51h-132zM766 298h131l44 51h-133zM181 298h129l-11 51h-130zM826 370
h133l32 37h-133zM429 407l7 -37h132l-8 37h-131zM157 407l8 -37h130l-7 37h-131z" />
    <glyph glyph-name="FL0058h" unicode="X" horiz-adv-x="614" 
d="M188 203l-163 -203h131l126 148h146l30 -148h131l-31 203l13 17h-386zM318 258l-5 27h-137l8 -58h393l47 58h-137l-23 -27h-146zM174 298h136l-11 51h-134zM498 298h136l40 51h-134zM288 407h-131l5 -37h133zM721 407h-131l-32 -37h133z" />
    <glyph glyph-name="FL0079h" unicode="Y" 
d="M42 0h517q11 0 25.5 12t18.5 23l60 185h-550l-12 -37q-2 -14 6.5 -23t17.5 -12h394l-12 -37h-429zM247 258l9 27h-121l-19 -58h550l19 58h-121l-9 -27h-308zM139 298h121l16 51h-121zM568 298h121l16 51h-121zM591 370h121l12 37h-121zM162 370h121l12 37h-121z" />
    <glyph glyph-name="FL005Ah" unicode="Z" 
d="M628 112h-319l210 108h-209l-236 -123l-32 -97h550zM692 309l13 40h-550l-16 -51h532zM162 370h550l12 37h-550zM324 227h209l113 58h-210z" />
    <glyph glyph-name="FL005Ch" unicode="[" horiz-adv-x="344" 
d="M288 -43l36 111h-139l49 152h-121l-85 -263h260zM162 370h260l15 44h-260zM412 338l3 11h-260l-16 -51h121l13 40h139zM116 227h121l19 58h-121zM185 441h260l3 8h-260z" />
    <glyph glyph-name="FL005Eh" unicode="\" horiz-adv-x="392" 
d="M235 0h132l-43 220h-132zM192 227h132l-11 58h-132zM178 298h132l-10 51h-132zM289 407h-132l7 -37h132z" />
    <glyph glyph-name="FL005Dh" unicode="]" horiz-adv-x="344" 
d="M28 -43h260l85 263h-121l-49 -152h-139zM162 370h260l15 44h-260zM291 338l-13 -40h121l16 51h-260l-3 -11h139zM255 227h121l19 58h-121zM448 449h-260l-3 -8h260z" />
    <glyph glyph-name="FL0041h" unicode="^" 
d="M602 32l61 188h-550l-60 -187q-4 -11 3.5 -21.5t17.5 -11.5h485q8 0 23 9t20 23zM139 298h550l16 51h-550zM162 370h550l2 5q3 11 -4.5 21.5t-18.5 10.5h-517zM118 227h548l19 58h-121l-9 -27h-396q-8 0 -21 -11t-20 -20zM506 109h-308l13 39h308z" />
    <glyph glyph-name="FL005Fh" unicode="_" horiz-adv-x="580" 
d="M574 111h-496l-36 -111h496z" />
    <glyph glyph-name="FL0061h" unicode="`" horiz-adv-x="221" 
d="M201 370h107l-8 44h-111zM176 461l5 -20h112l-3 20h-114z" />
    <glyph glyph-name="FL0065h" unicode="a" 
d="M592 0l71 220h-550l-71 -220h121l36 111h308l-36 -111h121zM139 298h550l16 51h-550zM714 375q4 11 -3 21.5t-18 10.5h-488q-11 0 -24 -11.5t-17 -20.5l-2 -5h550zM116 227h121l19 58h-121zM545 227h121l19 58h-121z" />
    <glyph glyph-name="FL0062h" unicode="b" horiz-adv-x="646" 
d="M42 0h526q11 0 20.5 8.5t18 21.5t14.5 27t10 25l10 31q7 22 10 36t2.5 23.5t-3.5 16t-7 14.5q14 11 17 17h-547zM716 349h-561l-16 -51h562l9 27l3 11q3 7 3 13zM697 285h-121l-9 -27h-320l9 27h-121l-19 -58h551q8 10 15 22.5t15 35.5zM162 370h557q2 15 -2.5 26
t-16.5 11h-526zM199 111l12 37h320l-12 -37h-320z" />
    <glyph glyph-name="FL0063h" unicode="c" 
d="M602 32l39 118h-121l-13 -39h-308l35 109h-121l-61 -188q-2 -9 4 -20.5t17 -11.5h488q11 0 24.5 10.5t16.5 21.5zM139 298h550l16 51h-550zM162 370h550l2 5q4 11 -4.5 21.5t-16.5 10.5h-488q-8 0 -22 -10.5t-19 -21.5zM116 227h121l19 58h-121zM676 258l9 27h-121
l-9 -27h121z" />
    <glyph glyph-name="FL0064h" unicode="d" 
d="M606 43l57 177h-121l-35 -109h-308l35 109h-121l-71 -220h507q6 0 14.5 4.5t17.5 11.5t16 14t9 13zM139 298h550l16 51h-550zM162 370h548q-2 12 -11 24.5t-18 12.5h-507zM545 227h121l19 58h-121zM116 227h121l19 58h-121z" />
    <glyph glyph-name="e" unicode="e" 
d="M592 0l36 111h-429l12 37h402l23 72h-523l-71 -220h550zM139 298h550l16 51h-550zM174 407l-12 -37h550l12 37h-550zM649 258h-402l9 27h-121l-19 -58h523z" />
    <glyph glyph-name="FL0066h" unicode="f" 
d="M163 0l48 148h402l23 72h-523l-71 -220h121zM139 298h550l16 51h-550zM174 407l-12 -37h550l12 37h-550zM649 258h-402l9 27h-121l-19 -58h523z" />
    <glyph glyph-name="FL0067h" unicode="g" 
d="M198 109l36 111h-121l-61 -188q-4 -14 5.5 -23t17.5 -9h485q10 1 24.5 11.5t18.5 21.5l60 187h-293l-23 -72h172l-13 -39h-308zM139 298h550l16 51h-550zM162 370h550l12 37h-517q-11 0 -24.5 -10.5t-18.5 -21.5zM373 227h291q-1 9 -7 20t-14 11h-260zM116 227h121l19 58
h-121z" />
    <glyph glyph-name="FL0068h" unicode="h" 
d="M592 0l71 220h-550l-71 -220h121l48 148h308l-48 -148h121zM247 258l9 27h-121l-19 -58h550l19 58h-121l-9 -27h-308zM139 298h121l16 51h-121zM568 298h121l16 51h-121zM174 407l-12 -37h121l12 37h-121zM591 370h121l12 37h-121z" />
    <glyph glyph-name="FL0069h" unicode="i" horiz-adv-x="206" 
d="M164 0l71 220h-122l-71 -220h122zM116 227h122l19 58h-122zM139 298h122l16 51h-122zM174 407l-12 -37h122l12 37h-122z" />
    <glyph glyph-name="FL006Ah" unicode="j" 
d="M52 32q-3 -11 3.5 -21.5t17.5 -10.5h488q11 0 24 11.5t17 20.5l61 188h-121l-35 -109h-308l13 39h-121zM545 227h121l19 58h-121zM568 298h121l16 51h-121zM724 407h-121l-12 -37h121z" />
    <glyph glyph-name="FL004Bh" unicode="k" horiz-adv-x="630" 
d="M163 0l48 148h233l30 -148h131l-31 203l13 17h-474l-71 -220h121zM247 258l9 27h-121l-19 -58h477l47 58h-137l-23 -27h-233zM514 298h136l40 51h-134zM139 298h121l16 51h-121zM737 407h-131l-32 -37h133zM295 407h-121l-12 -37h121z" />
    <glyph glyph-name="FL006Ch" unicode="l" 
d="M628 111h-429l35 109h-121l-71 -220h550zM116 227h121l19 58h-121zM139 298h121l16 51h-121zM162 370h121l12 37h-121z" />
    <glyph glyph-name="FL006Eh" unicode="m" horiz-adv-x="750" 
d="M442 0l186 220h-130l-85 -102l-19 102h-131l45 -220h134zM163 0l71 220h-121l-71 -220h121zM708 0l71 220h-121l-71 -220h121zM253 277l10 -50h130l-10 58h-248l-19 -58h121zM677 277l-16 -50h121l19 58h-248l-49 -58h130zM139 298h241l-10 51h-215zM564 298h241l16 51
h-215zM162 370h205l-7 37h-186zM624 370h204l12 37h-185z" />
    <glyph glyph-name="FL00B2h" unicode="n" horiz-adv-x="649" 
d="M471 220h-194l216 -220h114l71 220h-122l-21 -66zM163 0l71 220h-121l-71 -220h121zM245 253l26 -26h194l-56 58h-274l-19 -58h121zM139 298h257l-50 51h-191zM559 227h122l19 58h-122zM582 298h122l16 51h-122zM174 407l-12 -37h164l-36 37h-116zM605 370h122l12 37
h-122z" />
    <glyph glyph-name="FL006Fh" unicode="o" 
d="M602 32l61 188h-121l-35 -109h-308l35 109h-121l-61 -188q-2 -9 4 -20.5t17 -11.5h488q11 0 24.5 10.5t16.5 21.5zM139 298h550l16 51h-550zM162 370h550l2 5q4 11 -4.5 21.5t-16.5 10.5h-488q-8 0 -22 -10.5t-19 -21.5zM116 227h121l19 58h-121zM545 227h121l19 58h-121
z" />
    <glyph glyph-name="FL0073h" unicode="p" horiz-adv-x="646" 
d="M42 0h121l36 111h368q56 0 104 109h-558zM716 349h-561l-16 -51h562l9 27l3 11q3 7 3 13zM162 370h557q2 15 -2.5 26t-16.5 11h-526zM116 227h121l19 58h-121zM697 285h-121l-19 -58h118q5 13 10.5 27t11.5 31z" />
    <glyph glyph-name="FL0072h" unicode="q" 
d="M490 -59h148l-35 92l60 187h-121l-35 -109h-308l35 109h-121l-61 -188q-2 -9 4 -20.5t17 -11.5h386zM139 298h550l16 51h-550zM162 370h550l2 5q4 11 -4.5 21.5t-16.5 10.5h-488q-8 0 -22 -10.5t-19 -21.5zM116 227h121l19 58h-121zM545 227h121l19 58h-121z" />
    <glyph glyph-name="FL007Bh" unicode="r" horiz-adv-x="646" 
d="M42 0h121l36 111h229l46 -111h130l-35 116q26 2 51 27.5t50 76.5h-557zM716 349h-561l-16 -51h562l9 27l3 11q3 7 3 13zM162 370h557q2 15 -2.5 26t-16.5 11h-526zM116 227h121l19 58h-121zM697 285h-121l-19 -58h117q6 11 11.5 26t11.5 32z" />
    <glyph glyph-name="s" unicode="s" 
d="M78 111l-36 -111h517q11 0 25.5 12t18.5 23l60 185h-550l-10 -33q-3 -10 5.5 -24.5t28.5 -14.5h382l-12 -37h-429zM139 298h550l16 51h-550zM724 407h-510q-17 -3 -30.5 -12.5t-21.5 -24.5h550zM643 258h-396l9 27h-121l-19 -58h548q-1 9 -7 20t-14 11z" />
    <glyph glyph-name="t" unicode="t" 
d="M139 298h550l16 51h-550zM377 0l71 220h-121l-71 -220h121zM724 407h-550l-12 -37h550zM330 227h121l19 58h-121z" />
    <glyph glyph-name="FL0075h" unicode="u" 
d="M602 32l61 188h-121l-35 -109h-308l35 109h-121l-61 -188q-2 -9 4 -20.5t17 -11.5h488q11 0 24.5 10.5t16.5 21.5zM116 227h121l19 58h-121zM545 227h121l19 58h-121zM139 298h121l16 51h-121zM568 298h121l16 51h-121zM162 370h121l12 37h-121zM591 370h121l12 37h-121z
" />
    <glyph glyph-name="FL0076h" unicode="v" horiz-adv-x="614" 
d="M348 126l-21 94h-131l47 -220h128l189 220h-132zM434 227h132l50 58h-132zM195 227h132l-12 58h-132zM495 298h132l44 51h-132zM180 298h132l-11 51h-132zM557 370h132l32 37h-132zM157 407l8 -37h132l-8 37h-132z" />
    <glyph glyph-name="FL0077h" unicode="w" horiz-adv-x="779" 
d="M73 0h633q11 0 24 10t17 22l61 188h-121l-35 -109h-166l35 109h-121l-35 -109h-166l35 109h-121l-61 -188q-3 -11 4.5 -21.5t16.5 -10.5zM116 227h121l19 58h-121zM403 227h121l19 58h-121zM690 227h121l19 58h-121zM139 298h121l16 51h-121zM426 298h121l16 51h-121z
M713 298h121l16 51h-121zM295 407h-121l-12 -37h121zM869 407h-121l-12 -37h121zM582 407h-121l-12 -37h121z" />
    <glyph glyph-name="FL0078h" unicode="x" horiz-adv-x="616" 
d="M294 203l-269 -203h157l166 124l86 -124h157l-138 203l22 17h-193zM398 285h-159l39 -58h207l77 58h-158l-4 -3zM230 298h159l-36 51h-157zM421 298h158l67 51h-157zM567 407l-50 -37h157l49 37h-156zM157 407l25 -37h156l-25 37h-156z" />
    <glyph glyph-name="FL022Bh" unicode="y" 
d="M109 111h183l-36 -111h121l36 111h184q11 0 24.5 10.5t16.5 21.5l25 77h-550l-25 -77q-2 -9 4 -20.5t17 -11.5zM116 227h121l19 58h-121zM545 227h121l19 58h-121zM139 298h121l16 51h-121zM568 298h121l16 51h-121zM295 407h-121l-12 -37h121zM724 407h-121l-12 -37h121
z" />
    <glyph glyph-name="FL007Ah" unicode="z" 
d="M628 112h-319l210 108h-209l-236 -123l-32 -97h550zM692 309l13 40h-550l-16 -51h532zM162 370h550l12 37h-550zM324 227h209l113 58h-210z" />
    <glyph glyph-name="FL0080h" unicode="{" horiz-adv-x="426" 
d="M90 148h82l-52 -159q-2 -9 4 -20.5t17 -11.5h229l36 111h-139l49 152h-203zM244 370h260l15 44h-260zM126 258l-10 -31h203l19 58h-121l-9 -27h-82zM355 338h139l3 11h-260l-16 -51h121zM530 449h-229q-9 0 -20 -8h246z" />
    <glyph glyph-name="FL007Eh" unicode="|" horiz-adv-x="205" 
d="M24 -55h121l89 275h-121zM116 227h121l19 58h-121zM139 298h121l16 51h-121zM162 370h121l15 44h-121zM185 441h121l7 20h-121z" />
    <glyph glyph-name="FL0081h" unicode="}" horiz-adv-x="426" 
d="M432 148l23 72h-203l-49 -152h-139l-36 -111h229q11 0 24.5 11.5t16.5 20.5l52 159h82zM162 370h260l15 44h-260zM386 258l9 27h-121l-19 -58h203l10 31h-82zM278 298h121l16 51h-260l-3 -11h139zM185 441h246q-8 8 -14 8h-229z" />
    <glyph glyph-name="FL0082h" unicode="~" horiz-adv-x="449" 
d="M406 147l65 73h-115l-17 -20l-6 20h-194l-65 -73h117l51 59l15 -59h149zM146 227h186l-8 32h-149zM363 227h115l29 32h-116z" />
    <glyph glyph-name="FL007Fh" horiz-adv-x="252" 
 />
    <glyph glyph-name="space" unicode="&#xa0;" horiz-adv-x="378" 
 />
    <glyph glyph-name="FL00A1h" unicode="&#xa1;" horiz-adv-x="205" 
d="M162 0l71 220h-121l-71 -220h121zM138 298h121l16 51h-121zM173 407l-12 -37h121l12 37h-121zM115 227h121l10 32h-121z" />
    <glyph glyph-name="FL00A2h" unicode="&#xa2;" 
d="M239 -58h119l19 58h184q11 0 24.5 10.5t16.5 21.5l39 118h-121l-13 -39h-94l35 109h-119l-35 -109h-95l35 109h-121l-61 -188q-2 -9 4 -20.5t17 -11.5h185zM139 298h550l16 51h-550zM714 375q4 11 -4.5 21.5t-16.5 10.5h-184l3 7h-119l-3 -7h-185q-8 0 -22 -10.5
t-19 -21.5l-2 -5h550zM116 227h121l19 58h-121zM332 227h119l19 58h-119zM676 258l9 27h-121l-9 -27h121zM527 462h-119l-7 -21h119z" />
    <glyph glyph-name="FL00A3h" unicode="&#xa3;" horiz-adv-x="672" 
d="M179 148l-4 -8l-9 -30h-88l-36 -110h588l36 111h-379l12 37h227l23 72h-436l-23 -72h89zM126 258l-10 -31h436l10 31h-227l9 27h-121l-4 -11q-3 -11 -3 -16h-90zM236 325l-9 -27h201l16 51h-200q-2 -2 -2.5 -5.5t-2.5 -7.5zM463 407h-167q-13 0 -23.5 -11t-18.5 -26h197z
" />
    <glyph glyph-name="FL00A4h" unicode="&#xa4;" horiz-adv-x="649" 
d="M324 176l14 44h-80l-24 -75l-193 -145h157l135 101h48l69 -101h157l-99 143l25 77h-81l-14 -44h-114zM398 307l-30 42h-156l35 -51h348l67 51h-157l-55 -42h-52zM272 261l-11 -34h80l1 5h114l-1 -5h81l11 35l31 23h-322zM583 407l-50 -37h157l49 37h-156zM173 407l25 -37
h156l-25 37h-156z" />
    <glyph glyph-name="FL00A5h" unicode="&#xa5;" 
d="M123 104l-25 -75h167l-13 -41h-167l-25 -76h167l-19 -59h121l19 59h166l25 76h-166l13 41h166l25 75h-166l14 43h184q11 0 24 10.5t17 21.5l13 41h-550l-13 -41q-2 -9 4 -20.5t17 -11.5h183l-14 -43h-167zM247 258l9 27h-121l-19 -58h550l19 58h-121l-9 -27h-308z
M139 298h121l16 51h-121zM568 298h121l16 51h-121zM295 407h-121l-12 -37h121zM724 407h-121l-12 -37h121z" />
    <glyph glyph-name="FL00A6h" unicode="&#xa6;" horiz-adv-x="205" 
d="M24 -55h121l76 233h-121zM237 228l19 57h-121l-19 -57h121zM139 298h121l16 51h-121zM162 370h121l15 44h-121zM313 461h-121l-7 -20h121z" />
    <glyph glyph-name="FL00A7h" unicode="&#xa7;" 
d="M60 54l-37 -111h517q11 0 26 12t19 23l78 242h-121l-5 -17h-308l5 17h-121l-29 -90q-3 -10 6 -24.5t29 -14.5h382l-12 -37h-429zM241 239h308l-4 -12h121l19 58h-550l-19 -58h121zM693 312q2 7 -3 19.5t-13 17.5h-522l-16 -51h550zM191 460l-6 -19h550l12 37h-544
q-6 -8 -12 -18zM289 388h429l9 26h-550l-15 -44h121z" />
    <glyph glyph-name="FL00A8h" unicode="&#xa8;" horiz-adv-x="374" 
d="M338 370h114l15 44h-114zM162 370h114l15 44h-114zM482 461h-114l-7 -20h114zM306 461h-114l-7 -20h114z" />
    <glyph glyph-name="FL00A9h" unicode="&#xa9;" horiz-adv-x="267" 
d="M167 346q5 -12 9.5 -18t13.5 -15q9 -5 20 -8.5t22 -3.5q27 0 52.5 15.5t38.5 29.5q2 2 2 3h-17q-13 -15 -31 -23q-21 -10 -40 -10h-2q-5 0 -15.5 2t-18.5 8q-14 9 -17 23h-18q0 -1 0.5 -1.5t0.5 -1.5zM286 468h3q14 0 25.5 -7.5t19.5 -19.5h17q-3 12 -21 30q-5 2 -9 3.5
t-9 3.5h-49q-34 -10 -62 -37h17q31 27 68 27zM229 391q6 17 12 23h-17q-4 -5 -6.5 -11t-4.5 -12t-3 -11l-2 -10h17q0 9 4 21zM169 391l-4 -11q-1 -2 -0.5 -4.5t-0.5 -5.5h17q0 10 4 21q2 6 4.5 12t6.5 11h-16q-8 -13 -11 -23zM352 391q5 16 4 23h-14q0 -10 -4 -19l-1 -4
q-5 -14 -11 -21h15q6 7 11 21zM244 339q20 0 33 10h-63q7 -10 30 -10zM286 378q-4 -6 -7 -8h17l1 1q0 1 1 2zM278 443q-4 0 -8.5 -0.5t-10.5 -1.5h35q-5 1 -8.5 1.5t-7.5 0.5zM294 411l12 3h-13v-2z" />
    <glyph glyph-name="FL00AAh" unicode="&#xaa;" 
d="M592 0l71 220h-550l-60 -187q-4 -11 3.5 -21.5t17.5 -11.5h518zM139 298h550l16 51h-550zM162 370h550l2 5q3 11 -4.5 21.5t-18.5 10.5h-517zM118 227h548l19 58h-121l-9 -27h-396q-8 0 -21 -11t-20 -20zM506 109h-308l13 39h308z" />
    <glyph glyph-name="FL00ABh" unicode="&#xab;" horiz-adv-x="506" 
d="M229 203l13 17h-136l-13 -17l37 -203h131zM447 203l13 17h-136l-13 -17l37 -203h131zM113 227h135l47 58h-134zM331 227h135l47 58h-134zM172 298h133l41 51h-133zM390 298h133l41 51h-133zM262 407l-31 -37h132l30 37h-131zM480 407l-31 -37h132l30 37h-131z" />
    <glyph glyph-name="FL00ACh" unicode="&#xac;" horiz-adv-x="464" 
d="M360 148l-31 -97h110l54 169h-380l-23 -72h270zM126 258l-10 -31h380l10 31h-380z" />
    <glyph glyph-name="FL00B1h" unicode="&#xad;" horiz-adv-x="319" 
d="M90 148h235l23 72h-235zM361 258h-235l-10 -31h235z" />
    <glyph glyph-name="FL00AEh" unicode="&#xae;" horiz-adv-x="267" 
d="M166 345q15 -44 66 -44h2q7 0 19 3t24.5 9t24.5 14t20 18l0.5 1t2.5 3h-17q-14 -15 -34 -24t-37 -9h-3q-7 0 -15.5 3.5t-16 8.5t-13.5 10.5t-7 10.5h-18q1 -1 1 -2t1 -2zM286 467h3q14 0 25 -7.5t19 -18.5h18q-6 18 -22 28q-7 7 -14 9h-53q-34 -10 -62 -37h19
q32 26 67 26zM237 394l7 20h-15l-15 -44h15l4 12h10q7 0 10 -4q1 -1 5 -8h18q-3 11 -11 15q30 2 38 28l1 1h-18v-3q-3 -8 -9.5 -12.5t-20.5 -4.5h-19zM352 391q4 11 4 23h-16q1 -5 0 -10t-3 -10v-3l-3.5 -6t-9.5 -15h17q6 6 11 21zM169 391l-4 -11q-1 -2 -0.5 -4.5
t-0.5 -5.5h16q1 8 2 13t2 7v1q5 14 12 23h-16q-8 -13 -11 -23zM266 341h20l-3 8h-19zM205 341h15l2 8h-15z" />
    <glyph glyph-name="FL00AFh" unicode="&#xaf;" horiz-adv-x="580" 
d="M139 298h496l16 51h-496zM670 407h-496l-12 -37h496z" />
    <glyph glyph-name="FL00B3h" unicode="&#xb0;" horiz-adv-x="198" 
d="M209 395l7 19h-39l-15 -44h114l15 44h-39l-7 -19h-36zM185 441h114l7 21h-114z" />
    <glyph glyph-name="FL00B5h" unicode="&#xb1;" horiz-adv-x="464" 
d="M75 102l-33 -102h380l33 102h-380zM116 227h380l19 58h-380zM147 324l-8 -26h380l8 26h-135l8 25h-110l-8 -25h-135zM332 139l26 81h-110l-26 -81h110zM309 407l-12 -37h110l12 37h-110z" />
    <glyph glyph-name="FL00B6h" unicode="&#xb2;" horiz-adv-x="359" 
d="M420 318h-195l4 11h171q11 0 19.5 7t10.5 12v1h-275l-16 -51h275zM162 370h275l15 44h-275l-6 -16h194l-3 -10h-178q-5 0 -12.5 -7t-9.5 -11zM400 255l10 30h-275l-5 -13q-2 -5 2 -11t9 -6h259zM185 441h275l1 1q1 16 -14 19h-255z" />
    <glyph glyph-name="FL00BCh" unicode="&#xb3;" horiz-adv-x="359" 
d="M343 329l-4 -11h-194l-6 -20h275l16 51h-252l-6 -20h171zM365 398l-3 -10h-171l-6 -18h252l15 44h-275l-6 -16h194zM125 255h259q5 0 12 6t9 11l5 13h-275zM461 442q1 16 -14 19h-255l-7 -20h275z" />
    <glyph glyph-name="FL00B4h" unicode="&#xb4;" horiz-adv-x="223" 
d="M153 370h107l42 44h-110zM346 461h-114l-18 -20h113z" />
    <glyph glyph-name="FL0030h" unicode="&#xb5;" 
d="M592 0l71 220h-121l-35 -109h-308l35 109h-121l-71 -220h550zM139 298h550l16 51h-550zM162 370h550l12 37h-550zM116 227h121l19 58h-121zM545 227h121l19 58h-121z" />
    <glyph glyph-name="mu" unicode="&#xb6;" horiz-adv-x="906" 
d="M949 214q0 4 -2 6h-30l8 -4l2 -9l-74 -6q33 -48 28 -62l-1 -0.5t-3 -5.5l-71 11l-29 -73l-65 21l-78 -63l-40 32l-131 -52l13 20l-11 20l-149 -23l29 35l-154 6l55 28l-128 29l72 27l-81 46l73 4l-10 19h-15l3 -4l-66 -9l-1 -25l53 -27l-43 -26q-8 -21 10 -21l86 -16
l-23 -17l-6 -19l142 -12l-15 -25l14 -10l147 20l-9 -30l16 -6l123 51l26 -30l29 5l72 56l7 -2q13 -9 22.5 -13.5t23.5 -4.5q16 0 25 12l27 62l52 -12q19 7 24 22l1 4v8l-19 40h50l18 22zM512 149l23 71h-17l-14 -38l-26 38h-20l-23 -73l18 4l14 43q22 -45 45 -45zM471 370
h30l60 24l11 -4l-5 -20h83l69 9l-6 -9h18l10 20l-39 4l-121 -21v6l7 15l-14 17zM656 154l21 66h-28l3 -21h-31l19 21h-23q-14 -16 -24.5 -31.5t-18.5 -32.5h21q21 22 31 22q15 0 18 -22zM749 153l21 67h-19l-13 -37l-22 37h-22l-22 -68l18 2l15 45q19 -46 44 -46zM445 214
q-2 1 0 3q0 2 -1 3h-28q4 -3 8 -9l-4 -11q-3 -9 -5 -14t-10 -13q-16 -8 -28 -8q-16 0 -9 22l2 7q13 18 25 26h-24q-21 -24 -31 -58q1 -15 29 -15q5 0 8.5 0.5t8.5 1.5q30 0 59 65zM224 298h24l18 39q28 -22 48 -22q12 0 17 4l39 30h-25q-4 -4 -8.5 -7.5t-9.5 -8.5l-47 16
h-23q-17 -11 -33 -51zM865 349h-165l-4 -6h151l-55 -32l61 -13h58l-75 21q22 0 31 28zM938 283l1 2h-25l3 -10h-7l-61 -16l57 -32h35q-8 5 -21 12.5t-33 15.5q44 5 51 28zM141 255l14 -28h14l-11 20l5 23l68 -7l11 22h-22l-2 -6l-64 6zM319 220h-32q-13 -13 -17 -26l-2 -7
q-2 -5 -1 -5q-3 -42 25 -42q5 0 8.5 1.5t13.5 3.5l4 15q-5 -1 -10 -1.5t-10 -0.5q-21 0 -15 18q8 22 27 38zM558 158l24 62h-20l-30 -68zM240 155l25 65h-18l-30 -73zM624 227h24l1 2l1 -2h27q-3 24 -17 24q-13 0 -16 -4l-10 -10zM371 370h27l12 9l9 -9h29l-33 24
q-17 -7 -44 -24zM797 176l21 44h-22l-15 -42zM378 227h66q-5 17 -30 17h-12q-6 -4 -12.5 -8t-11.5 -9zM359 247q-35 -6 -62 -20h41h3h5h1h5zM830 244l-22 4l-8 -21h22zM594 248l-21 -4l-7 -17h19zM755 227h18l5 17l-15 4zM790 147l-13 7l-15 -10l8 -11zM275 244l-17 -2
l-7 -15h18zM522 227h16l4 13l-14 4zM697 227h15l-10 17zM461 227h13l-9 13zM444 347l4 2h-7z" />
    <glyph glyph-name="FL00B7h" unicode="&#xb7;" horiz-adv-x="205" 
d="M211 147l23 73h-121l-23 -73h121zM116 227h121l10 31h-121z" />
    <glyph glyph-name="FL00B8h" unicode="&#xb8;" horiz-adv-x="181" 
d="M42 2l-17 -50h-75l-31 -98h173l48 148h-98z" />
    <glyph glyph-name="FL00B9h" unicode="&#xb9;" horiz-adv-x="189" 
d="M191 386l-5 -16h81l15 44h-105l-10 -28h24zM163 298h81l16 51h-81zM230 255l10 30h-81l-10 -30h81zM297 461h-105l-7 -20h105z" />
    <glyph glyph-name="FL00BAh" unicode="&#xba;" horiz-adv-x="359" 
d="M229 330l6 19h-80l-16 -51h275l16 51h-81l-6 -19h-114zM247 386h114l-5 -16h81l15 44h-275l-15 -44h80zM140 255h244q6 0 12.5 5t8.5 11l5 14h-275l-5 -14q-2 -5 1.5 -10.5t8.5 -5.5zM462 445q2 6 -2 11t-9 5h-244q-4 0 -11 -5t-9 -11l-2 -4h275z" />
    <glyph glyph-name="FL00BBh" unicode="&#xbb;" horiz-adv-x="506" 
d="M409 203l-164 -203h131l169 203l-4 17h-135zM191 203l-164 -203h131l169 203l-4 17h-135zM187 227h136l-11 58h-134zM405 227h136l-11 58h-134zM176 298h134l-10 51h-132zM394 298h134l-10 51h-132zM508 407h-131l6 -37h131zM290 407h-131l6 -37h131z" />
    <glyph glyph-name="FL00BEh" unicode="&#xbc;" horiz-adv-x="869" 
d="M731 153q-25 0 -44 46l-15 -45l-18 -2l22 68h-17l-21 -66l-12 2q-3 22 -18 22q-10 0 -31 -22h-21q8 17 18.5 32.5t24.5 31.5h-35l-24 -62l-26 -6l30 68h-27l-23 -71q-23 0 -45 45l-14 -43l-18 -4l23 73h-14q1 -1 1 -3q-2 -2 0 -3q-29 -65 -59 -65q-5 -1 -8.5 -1.5
t-8.5 -0.5q-28 0 -29 15q10 34 31 58h-52l-9 -6q-19 -16 -27 -38q-6 -18 15 -18q5 0 10 0.5t10 1.5l-4 -15q-10 -2 -13.5 -3.5t-8.5 -1.5q-28 0 -25 42q-1 0 1 5l2 7q4 13 17 26h-22l-25 -65l-23 -8l30 73h-75l10 -19l-73 -4l81 -46l-72 -27l128 -29l-55 -28l154 -6l-29 -35
l149 23l11 -20l-13 -20l131 52l40 -32l78 63l65 -21l29 73l71 -11q2 5 3 5.5l1 0.5q5 14 -28 62l74 6l-2 9l-8 4h-99l-21 -44l-16 2l15 42h-26zM257 244l-6 -17h28q27 14 62 20l-7 -20h26q5 5 11.5 9t12.5 8h12q25 0 30 -17h17l4 13l9 -13h48l6 17l14 -4l-4 -13h28l7 17
l21 4l-9 -21h39l10 10l10 10q3 4 16 4q14 0 17 -24h20l5 17l10 -17h43l8 21l15 -4l-5 -17h27l8 21l22 -4l-8 -17h84l-57 32l61 16h7l-3 10h-672l-11 -22l-68 7l-5 -23l11 -20h82l7 15zM829 343h-151l4 6h-252l-4 -2l-3 2h-71l-39 -30q-5 -4 -17 -4q-20 0 -48 22l-18 -39h605
l-61 13zM402 200l4 11q-4 6 -8 9h-21q-12 -8 -25 -26l-2 -7q-7 -22 9 -22q12 0 28 8q8 8 10 13t5 14zM543 394l-60 -24h66l5 20zM486 182l14 38h-40zM720 183l13 37h-35zM634 199l-3 21h-9l-19 -21h31zM701 379l-69 -9h63zM772 147l-20 -14l-8 11l15 10zM380 370h21l-9 9z
M630 227h2l-1 2z" />
    <glyph glyph-name="FL00BDh" unicode="&#xbd;" horiz-adv-x="562" 
d="M172 0l118 140l-7 -22h194l-3 -10h-178q-5 0 -12.5 -7.5t-9.5 -11.5l-32 -97q-2 -5 2 -11t9 -6h259l20 63h-195l4 11h171q11 0 19.5 7t10.5 12l31 94q1 16 -14 19h-234l32 39h-130l-185 -220h130zM165 227h199l49 58h-130l-30 -35l12 35h-81zM294 298h130l43 51h-131z
M516 407h-130l-32 -37h131zM187 370h105l15 44h-105zM188 298h81l16 51h-81z" />
    <glyph glyph-name="FL0FEDh" unicode="&#xbe;" horiz-adv-x="666" 
d="M385 149l23 71h-17l-14 -38l-26 38h-20l-23 -73l18 4l14 43q22 -45 45 -45zM529 154l21 66h-28l3 -21h-31l19 21h-23q-14 -16 -24.5 -31.5t-18.5 -32.5h21q21 22 31 22q15 0 18 -22zM622 153l21 67h-19l-13 -37l-22 37h-22l-22 -68l18 2l15 45q19 -46 44 -46zM318 214
q-2 1 0 3q0 2 -1 3h-28q4 -3 8 -9l-4 -11q-3 -9 -5 -14t-10 -13q-16 -8 -28 -8q-16 0 -9 22l2 7q13 18 25 26h-24q-21 -24 -31 -58q1 -15 29 -15q5 0 8.5 0.5t8.5 1.5q30 0 59 65zM192 220h-32q-13 -13 -17 -26l-2 -7q-2 -5 -1 -5q-3 -42 25 -42q5 0 8.5 1.5t13.5 3.5l4 15
q-5 -1 -10 -1.5t-10 -0.5q-21 0 -15 18q8 22 27 38zM431 158l24 62h-20l-30 -68zM113 155l25 65h-18l-30 -73zM497 227h24l1 2l1 -2h27q-3 24 -17 24q-13 0 -16 -4l-10 -10zM670 176l21 44h-22l-15 -42zM251 227h66q-5 17 -30 17h-12q-6 -4 -12.5 -8t-11.5 -9zM232 247
q-35 -6 -62 -20h41h3h5h1h5zM703 244l-22 4l-8 -21h22zM467 248l-21 -4l-7 -17h19zM628 227h18l5 17l-15 4zM663 147l-13 7l-15 -10l8 -11zM148 244l-17 -2l-7 -15h18zM395 227h16l4 13l-14 4zM570 227h15l-10 17zM334 227h13l-9 13z" />
    <glyph glyph-name="FL00BFh" unicode="&#xbf;" 
d="M562 187l10 33h-459l-58 -181q-3 -16 4.5 -26t22.5 -13h510l36 111h-429l12 38h305q4 0 11.5 4.5t14.5 10.5t12.5 12.5t7.5 10.5zM117 227h458l10 32h-412q-17 0 -33 -11t-23 -21zM477 298h121l16 51h-121zM512 407l-12 -37h121l12 37h-121z" />
    <glyph glyph-name="FL00C0h" unicode="&#xc0;" 
d="M602 32l61 188h-550l-60 -187q-4 -11 3.5 -21.5t17.5 -11.5h485q8 0 23 9t20 23zM139 298h550l16 51h-550zM162 370h550l2 5q3 11 -4.5 21.5t-18.5 10.5h-517zM118 227h548l19 58h-121l-9 -27h-396q-8 0 -21 -11t-20 -20zM506 109h-308l13 39h308zM527 444l-8 34h-108
l10 -34h106zM401 512h111l-6 30h-113z" />
    <glyph glyph-name="FL00C1h" unicode="&#xc1;" 
d="M602 32l61 188h-550l-60 -187q-4 -11 3.5 -21.5t17.5 -11.5h485q8 0 23 9t20 23zM139 298h550l16 51h-550zM162 370h550l2 5q3 11 -4.5 21.5t-18.5 10.5h-517zM118 227h548l19 58h-121l-9 -27h-396q-8 0 -21 -11t-20 -20zM506 109h-308l13 39h308zM501 444l32 34h-109
l-29 -34h106zM453 512h111l29 30h-114z" />
    <glyph glyph-name="FL00C2h" unicode="&#xc2;" 
d="M602 32l61 188h-550l-60 -187q-4 -11 3.5 -21.5t17.5 -11.5h485q8 0 23 9t20 23zM139 298h550l16 51h-550zM162 370h550l2 5q3 11 -4.5 21.5t-18.5 10.5h-517zM118 227h548l19 58h-121l-9 -27h-396q-8 0 -21 -11t-20 -20zM506 109h-308l13 39h308zM379 512h207l-8 30
h-170zM596 478h-112l9 -34h113zM316 444h113l30 34h-111z" />
    <glyph glyph-name="FL00C3h" unicode="&#xc3;" 
d="M602 32l61 188h-550l-60 -187q-4 -11 3.5 -21.5t17.5 -11.5h485q8 0 23 9t20 23zM139 298h550l16 51h-550zM162 370h550l2 5q3 11 -4.5 21.5t-18.5 10.5h-517zM118 227h548l19 58h-121l-9 -27h-396q-8 0 -21 -11t-20 -20zM506 109h-308l13 39h308zM592 444l32 34h-186
l10 -34h144zM334 512h187l-8 30h-150zM384 444l30 34h-111l-32 -34h113zM544 512h111l29 30h-113z" />
    <glyph glyph-name="FL00C4h" unicode="&#xc4;" 
d="M602 32l61 188h-550l-60 -187q-4 -11 3.5 -21.5t17.5 -11.5h485q8 0 23 9t20 23zM139 298h550l16 51h-550zM162 370h550l2 5q3 11 -4.5 21.5t-18.5 10.5h-517zM118 227h548l19 58h-121l-9 -27h-396q-8 0 -21 -11t-20 -20zM506 109h-308l13 39h308zM430 444l11 34h-114
l-11 -34h114zM606 444l11 34h-114l-11 -34h114zM338 512h114l10 30h-114zM514 512h114l10 30h-114z" />
    <glyph glyph-name="FL00C5h" unicode="&#xc5;" 
d="M602 32l61 188h-550l-60 -187q-4 -11 3.5 -21.5t17.5 -11.5h485q8 0 23 9t20 23zM139 298h550l16 51h-550zM162 370h550l2 5q3 11 -4.5 21.5t-18.5 10.5h-517zM118 227h548l19 58h-121l-9 -27h-396q-8 0 -21 -11t-20 -20zM506 109h-308l13 39h308zM517 444l11 34h-114
l-11 -34h114zM425 512h114l10 30h-114z" />
    <glyph glyph-name="FL00C6h" unicode="&#xc6;" horiz-adv-x="1066" 
d="M53 33q-4 -11 3.5 -21.5t17.5 -11.5h950l36 111h-429l12 38h396q4 0 11.5 4.5t14.5 10.5t12.5 12.5t7.5 10.5l10 33h-982zM139 298h982l16 51h-982zM159 258q-8 0 -21 -11t-20 -20h980l19 58h-121l-9 -26h-308l9 26h-124l-9 -27h-396zM1146 374q3 11 -5 21.5t-18 11.5
h-949l-12 -37h982zM506 109h-308l13 39h308z" />
    <glyph glyph-name="FL00C7h" unicode="&#xc7;" 
d="M641 150h-121l-13 -39h-308l35 109h-121l-61 -188q-2 -9 4 -20.5t17 -11.5h217l-16 -48h-75l-31 -98h173l47 146h173q11 0 24.5 10.5t16.5 21.5zM139 298h550l16 51h-550zM714 375q4 11 -4.5 21.5t-16.5 10.5h-488q-8 0 -22 -10.5t-19 -21.5l-2 -5h550zM116 227h121
l19 58h-121zM676 258l9 27h-121l-9 -27h121z" />
    <glyph glyph-name="FL00C8h" unicode="&#xc8;" 
d="M607 149q4 0 11.5 4.5t14.5 10.5t12.5 12.5t7.5 10.5l10 33h-550l-61 -188q-3 -10 5 -21t16 -11h519l36 111h-429l12 38h396zM139 298h550l16 51h-550zM247 259l9 26h-121l-19 -58h550l19 58h-121l-9 -26h-308zM162 370h550l2 4q3 11 -5 21.5t-18 11.5h-485
q-11 0 -25 -11t-17 -22zM527 444l-8 34h-108l10 -34h106zM401 512h111l-6 30h-113z" />
    <glyph glyph-name="FL00C9h" unicode="&#xc9;" 
d="M607 149q4 0 11.5 4.5t14.5 10.5t12.5 12.5t7.5 10.5l10 33h-550l-61 -188q-3 -10 5 -21t16 -11h519l36 111h-429l12 38h396zM139 298h550l16 51h-550zM247 259l9 26h-121l-19 -58h550l19 58h-121l-9 -26h-308zM162 370h550l2 4q3 11 -5 21.5t-18 11.5h-485
q-11 0 -25 -11t-17 -22zM501 444l32 34h-109l-29 -34h106zM453 512h111l29 30h-114z" />
    <glyph glyph-name="FL00CAh" unicode="&#xca;" 
d="M607 149q4 0 11.5 4.5t14.5 10.5t12.5 12.5t7.5 10.5l10 33h-550l-61 -188q-3 -10 5 -21t16 -11h519l36 111h-429l12 38h396zM139 298h550l16 51h-550zM247 259l9 26h-121l-19 -58h550l19 58h-121l-9 -26h-308zM162 370h550l2 4q3 11 -5 21.5t-18 11.5h-485
q-11 0 -25 -11t-17 -22zM379 512h207l-8 30h-170zM596 478h-112l9 -34h113zM316 444h113l30 34h-111z" />
    <glyph glyph-name="FL00CBh" unicode="&#xcb;" 
d="M607 149q4 0 11.5 4.5t14.5 10.5t12.5 12.5t7.5 10.5l10 33h-550l-61 -188q-3 -10 5 -21t16 -11h519l36 111h-429l12 38h396zM139 298h550l16 51h-550zM247 259l9 26h-121l-19 -58h550l19 58h-121l-9 -26h-308zM162 370h550l2 4q3 11 -5 21.5t-18 11.5h-485
q-11 0 -25 -11t-17 -22zM430 444l11 34h-114l-11 -34h114zM606 444l11 34h-114l-11 -34h114zM514 512h114l10 30h-114zM338 512h114l10 30h-114z" />
    <glyph glyph-name="FL00CCh" unicode="&#xcc;" 
d="M628 111h-215l35 109h-121l-35 -109h-214l-36 -111h550zM139 298h550l16 51h-550zM724 407h-550l-12 -37h550zM330 227h121l19 58h-121zM421 444h106l-8 34h-108zM401 512h111l-6 30h-113z" />
    <glyph glyph-name="FL00CDh" unicode="&#xcd;" 
d="M628 111h-215l35 109h-121l-35 -109h-214l-36 -111h550zM139 298h550l16 51h-550zM724 407h-550l-12 -37h550zM330 227h121l19 58h-121zM395 444h106l32 34h-109zM453 512h111l29 30h-114z" />
    <glyph glyph-name="FL00CEh" unicode="&#xce;" 
d="M628 111h-215l35 109h-121l-35 -109h-214l-36 -111h550zM139 298h550l16 51h-550zM724 407h-550l-12 -37h550zM330 227h121l19 58h-121zM379 512h207l-8 30h-170zM493 444h113l-10 34h-112zM429 444l30 34h-111l-32 -34h113z" />
    <glyph glyph-name="FL00CFh" unicode="&#xcf;" 
d="M628 111h-215l35 109h-121l-35 -109h-214l-36 -111h550zM139 298h550l16 51h-550zM724 407h-550l-12 -37h550zM330 227h121l19 58h-121zM492 444h114l11 34h-114zM430 444l11 34h-114l-11 -34h114zM338 512h114l10 30h-114zM514 512h114l10 30h-114z" />
    <glyph glyph-name="FL00D0h" unicode="&#xd0;" horiz-adv-x="728" 
d="M293 111l12 37h165l23 72h-380l-23 -72h94l-48 -148h508q6 0 14.5 4.5t17 11t15.5 13.5t9 13l57 178h-121l-35 -109h-308zM233 298h550l16 51h-550zM776 407h-508l-12 -37h549q0 12 -10 24.5t-19 12.5zM126 258l-10 -31h380l10 31h-165l9 27h-121l-9 -27h-94zM639 227
h121l19 58h-121z" />
    <glyph glyph-name="FL00D1h" unicode="&#xd1;" horiz-adv-x="649" 
d="M471 220h-195l213 -220h118l71 220h-122l-21 -66zM163 0l71 220h-121l-71 -220h121zM245 253l25 -26h195l-55 58h-275l-19 -58h121zM139 298h259l-50 51h-193zM559 227h122l19 58h-122zM582 298h122l16 51h-122zM600 444l32 34h-186l10 -34h144zM174 407l-12 -37h166
l-35 37h-119zM342 512h187l-8 30h-150zM605 370h122l12 37h-122zM392 444l30 34h-111l-32 -34h113zM552 512h111l29 30h-113z" />
    <glyph glyph-name="FL00F3h" unicode="&#xd2;" 
d="M602 32l61 188h-121l-35 -109h-308l35 109h-121l-61 -188q-2 -9 4 -20.5t17 -11.5h488q11 0 24.5 10.5t16.5 21.5zM139 298h550l16 51h-550zM162 370h550l2 5q4 11 -4.5 21.5t-16.5 10.5h-488q-8 0 -22 -10.5t-19 -21.5zM116 227h121l19 58h-121zM545 227h121l19 58h-121
zM527 444l-8 34h-108l10 -34h106zM401 512h111l-6 30h-113z" />
    <glyph glyph-name="FL00F2h" unicode="&#xd3;" 
d="M602 32l61 188h-121l-35 -109h-308l35 109h-121l-61 -188q-2 -9 4 -20.5t17 -11.5h488q11 0 24.5 10.5t16.5 21.5zM139 298h550l16 51h-550zM162 370h550l2 5q4 11 -4.5 21.5t-16.5 10.5h-488q-8 0 -22 -10.5t-19 -21.5zM116 227h121l19 58h-121zM545 227h121l19 58h-121
zM501 444l32 34h-109l-29 -34h106zM453 512h111l29 30h-114z" />
    <glyph glyph-name="FL00D4h" unicode="&#xd4;" 
d="M602 32l61 188h-121l-35 -109h-308l35 109h-121l-61 -188q-2 -9 4 -20.5t17 -11.5h488q11 0 24.5 10.5t16.5 21.5zM139 298h550l16 51h-550zM162 370h550l2 5q4 11 -4.5 21.5t-16.5 10.5h-488q-8 0 -22 -10.5t-19 -21.5zM116 227h121l19 58h-121zM545 227h121l19 58h-121
zM379 512h207l-8 30h-170zM596 478h-112l9 -34h113zM316 444h113l30 34h-111z" />
    <glyph glyph-name="FL00D5h" unicode="&#xd5;" 
d="M602 32l61 188h-121l-35 -109h-308l35 109h-121l-61 -188q-2 -9 4 -20.5t17 -11.5h488q11 0 24.5 10.5t16.5 21.5zM139 298h550l16 51h-550zM162 370h550l2 5q4 11 -4.5 21.5t-16.5 10.5h-488q-8 0 -22 -10.5t-19 -21.5zM116 227h121l19 58h-121zM545 227h121l19 58h-121
zM592 444l32 34h-186l10 -34h144zM334 512h187l-8 30h-150zM384 444l30 34h-111l-32 -34h113zM544 512h111l29 30h-113z" />
    <glyph glyph-name="FL00D6h" unicode="&#xd6;" 
d="M602 32l61 188h-121l-35 -109h-308l35 109h-121l-61 -188q-2 -9 4 -20.5t17 -11.5h488q11 0 24.5 10.5t16.5 21.5zM139 298h550l16 51h-550zM162 370h550l2 5q4 11 -4.5 21.5t-16.5 10.5h-488q-8 0 -22 -10.5t-19 -21.5zM116 227h121l19 58h-121zM545 227h121l19 58h-121
zM430 444l11 34h-114l-11 -34h114zM606 444l11 34h-114l-11 -34h114zM338 512h114l10 30h-114zM514 512h114l10 30h-114z" />
    <glyph glyph-name="FL00D7h" unicode="&#xd7;" horiz-adv-x="346" 
d="M161 203l-90 -69l52 -77l91 68l47 -68l102 77l-46 69l22 17h-190zM262 285h-129l-18 -13l30 -45h204l58 45l-8 13h-129l-6 -4zM355 349l-68 -51h103zM150 298h102l-35 51z" />
    <glyph glyph-name="FL00D8h" unicode="&#xd8;" 
d="M602 32l61 188h-121l-35 -109h-137l91 109h-129l-91 -109h-42l35 109h-121l-61 -188q-2 -9 4 -20.5t17 -11.5h488q11 0 24.5 10.5t16.5 21.5zM139 298h550l16 51h-550zM714 375q4 11 -4.5 21.5t-16.5 10.5h-488q-8 0 -22 -10.5t-19 -21.5l-2 -5h550zM339 227h129l49 58
h-129zM116 227h121l19 58h-121zM545 227h121l19 58h-121z" />
    <glyph glyph-name="FL00D9h" unicode="&#xd9;" 
d="M602 32l61 188h-121l-35 -109h-308l35 109h-121l-61 -188q-2 -9 4 -20.5t17 -11.5h488q11 0 24.5 10.5t16.5 21.5zM116 227h121l19 58h-121zM545 227h121l19 58h-121zM139 298h121l16 51h-121zM568 298h121l16 51h-121zM162 370h121l12 37h-121zM591 370h121l12 37h-121z
M527 444l-8 34h-108l10 -34h106zM401 512h111l-6 30h-113z" />
    <glyph glyph-name="FL00DAh" unicode="&#xda;" 
d="M602 32l61 188h-121l-35 -109h-308l35 109h-121l-61 -188q-2 -9 4 -20.5t17 -11.5h488q11 0 24.5 10.5t16.5 21.5zM116 227h121l19 58h-121zM545 227h121l19 58h-121zM139 298h121l16 51h-121zM568 298h121l16 51h-121zM162 370h121l12 37h-121zM591 370h121l12 37h-121z
M501 444l32 34h-109l-29 -34h106zM453 512h111l29 30h-114z" />
    <glyph glyph-name="FL00DBh" unicode="&#xdb;" 
d="M602 32l61 188h-121l-35 -109h-308l35 109h-121l-61 -188q-2 -9 4 -20.5t17 -11.5h488q11 0 24.5 10.5t16.5 21.5zM116 227h121l19 58h-121zM545 227h121l19 58h-121zM568 298h121l16 51h-121zM139 298h121l16 51h-121zM379 512h207l-8 30h-170zM162 370h121l12 37h-121z
M591 370h121l12 37h-121zM596 478h-112l9 -34h113zM316 444h113l30 34h-111z" />
    <glyph glyph-name="FL00DCh" unicode="&#xdc;" 
d="M602 32l61 188h-121l-35 -109h-308l35 109h-121l-61 -188q-2 -9 4 -20.5t17 -11.5h488q11 0 24.5 10.5t16.5 21.5zM116 227h121l19 58h-121zM545 227h121l19 58h-121zM139 298h121l16 51h-121zM568 298h121l16 51h-121zM162 370h121l12 37h-121zM591 370h121l12 37h-121z
M430 444l11 34h-114l-11 -34h114zM606 444l11 34h-114l-11 -34h114zM514 512h114l10 30h-114zM338 512h114l10 30h-114z" />
    <glyph glyph-name="FL00DDh" unicode="&#xdd;" 
d="M42 0h517q11 0 25.5 12t18.5 23l60 185h-550l-12 -37q-2 -14 6.5 -23t17.5 -12h394l-12 -37h-429zM247 258l9 27h-121l-19 -58h550l19 58h-121l-9 -27h-308zM139 298h121l16 51h-121zM568 298h121l16 51h-121zM591 370h121l12 37h-121zM162 370h121l12 37h-121zM501 444
l32 34h-109l-29 -34h106zM453 512h111l29 30h-114z" />
    <glyph glyph-name="FL00DEh" unicode="&#xde;" horiz-adv-x="646" 
d="M163 0l18 56h368q29 0 63 41.5t63 122.5h-121l-17 -54h-320l17 54h-121l-71 -220h121zM241 240h320l-4 -13h121l3 11l10 31l3 7q2 8 2 9h-561l-19 -58h121zM690 349h-535l-16 -51h560q3 17 2 31.5t-11 19.5zM174 407l-12 -37h121l12 37h-121z" />
    <glyph glyph-name="FL00DFh" unicode="&#xdf;" 
d="M519 148l-12 -37h-244l-36 -111h331q11 0 20.5 8.5t17.5 21.5t13.5 27t9.5 25l9 30q7 22 10 36t3 23q0 10 -3.5 17l-7.5 15q5 5 10 9t8 8h-350l-23 -72h244zM-3 -139h121l116 359h-121zM698 325l3 11q3 7 3 13h-549l-16 -51h550zM690 407h-485q-8 0 -22 -10.5t-19 -21.5
l-2 -5h546q2 15 -1.5 26t-16.5 11zM311 258l-10 -31h354q8 10 15 23t15 35h-121l-9 -27h-244zM116 227h121l19 58h-121z" />
    <glyph glyph-name="FL00E0h" unicode="&#xe0;" 
d="M592 0l71 220h-550l-71 -220h121l36 111h308l-36 -111h121zM139 298h550l16 51h-550zM714 375q4 11 -3 21.5t-18 10.5h-488q-11 0 -24 -11.5t-17 -20.5l-2 -5h550zM116 227h121l19 58h-121zM545 227h121l19 58h-121zM527 444l-8 34h-108l10 -34h106zM401 512h111l-6 30
h-113z" />
    <glyph glyph-name="FL00E1h" unicode="&#xe1;" 
d="M592 0l71 220h-550l-71 -220h121l36 111h308l-36 -111h121zM139 298h550l16 51h-550zM714 375q4 11 -3 21.5t-18 10.5h-488q-11 0 -24 -11.5t-17 -20.5l-2 -5h550zM116 227h121l19 58h-121zM545 227h121l19 58h-121zM501 444l32 34h-109l-29 -34h106zM453 512h111l29 30
h-114z" />
    <glyph glyph-name="FL00E2h" unicode="&#xe2;" 
d="M592 0l71 220h-550l-71 -220h121l36 111h308l-36 -111h121zM139 298h550l16 51h-550zM714 375q4 11 -3 21.5t-18 10.5h-488q-11 0 -24 -11.5t-17 -20.5l-2 -5h550zM116 227h121l19 58h-121zM545 227h121l19 58h-121zM379 512h207l-8 30h-170zM596 478h-112l9 -34h113z
M316 444h113l30 34h-111z" />
    <glyph glyph-name="FL00E3h" unicode="&#xe3;" 
d="M592 0l71 220h-550l-71 -220h121l36 111h308l-36 -111h121zM139 298h550l16 51h-550zM714 375q4 11 -3 21.5t-18 10.5h-488q-11 0 -24 -11.5t-17 -20.5l-2 -5h550zM116 227h121l19 58h-121zM545 227h121l19 58h-121zM592 444l32 34h-186l10 -34h144zM334 512h187l-8 30
h-150zM384 444l30 34h-111l-32 -34h113zM544 512h111l29 30h-113z" />
    <glyph glyph-name="FL00E4h" unicode="&#xe4;" 
d="M592 0l71 220h-550l-71 -220h121l36 111h308l-36 -111h121zM139 298h550l16 51h-550zM714 375q4 11 -3 21.5t-18 10.5h-488q-11 0 -24 -11.5t-17 -20.5l-2 -5h550zM116 227h121l19 58h-121zM545 227h121l19 58h-121zM430 444l11 34h-114l-11 -34h114zM606 444l11 34h-114
l-11 -34h114zM338 512h114l10 30h-114zM514 512h114l10 30h-114z" />
    <glyph glyph-name="FL00E5h" unicode="&#xe5;" 
d="M592 0l71 220h-550l-71 -220h121l36 111h308l-36 -111h121zM139 298h550l16 51h-550zM162 370h550l2 5q4 11 -3 21.5t-18 10.5h-488q-11 0 -24 -11.5t-17 -20.5zM545 227h121l19 58h-121zM116 227h121l19 58h-121zM519 444l11 34h-114l-11 -34h114zM427 512h114l10 30
h-114z" />
    <glyph glyph-name="FL00E6h" unicode="&#xe6;" horiz-adv-x="1064" 
d="M163 0l36 111h308l-36 -111h551l36 111h-429l12 37h402l23 72h-953l-71 -220h121zM139 298h980l16 51h-980zM1154 407h-949q-11 0 -24 -11.5t-17 -20.5l-2 -5h980zM1079 258h-402l9 27h-122l-19 -58h524zM116 227h121l19 58h-121z" />
    <glyph glyph-name="FL00E7h" unicode="&#xe7;" 
d="M641 150h-121l-13 -39h-308l35 109h-121l-61 -188q-2 -9 4 -20.5t17 -11.5h217l-16 -48h-75l-31 -98h173l47 146h173q11 0 24.5 10.5t16.5 21.5zM139 298h550l16 51h-550zM714 375q4 11 -4.5 21.5t-16.5 10.5h-488q-8 0 -22 -10.5t-19 -21.5l-2 -5h550zM116 227h121
l19 58h-121zM676 258l9 27h-121l-9 -27h121z" />
    <glyph glyph-name="FL00E8h" unicode="&#xe8;" 
d="M592 0l36 111h-429l12 37h402l23 72h-523l-71 -220h550zM139 298h550l16 51h-550zM174 407l-12 -37h550l12 37h-550zM649 258h-402l9 27h-121l-19 -58h523zM421 444h106l-8 34h-108zM401 512h111l-6 30h-113z" />
    <glyph glyph-name="FL00E9h" unicode="&#xe9;" 
d="M592 0l36 111h-429l12 37h402l23 72h-523l-71 -220h550zM139 298h550l16 51h-550zM174 407l-12 -37h550l12 37h-550zM649 258h-402l9 27h-121l-19 -58h523zM395 444h106l32 34h-109zM453 512h111l29 30h-114z" />
    <glyph glyph-name="FL00EAh" unicode="&#xea;" 
d="M592 0l36 111h-429l12 37h402l23 72h-523l-71 -220h550zM139 298h550l16 51h-550zM174 407l-12 -37h550l12 37h-550zM649 258h-402l9 27h-121l-19 -58h523zM379 512h207l-8 30h-170zM493 444h113l-10 34h-112zM429 444l30 34h-111l-32 -34h113z" />
    <glyph glyph-name="FL00EBh" unicode="&#xeb;" 
d="M592 0l36 111h-429l12 37h402l23 72h-523l-71 -220h550zM139 298h550l16 51h-550zM174 407l-12 -37h550l12 37h-550zM649 258h-402l9 27h-121l-19 -58h523zM492 444h114l11 34h-114zM430 444l11 34h-114l-11 -34h114zM514 512h114l10 30h-114zM338 512h114l10 30h-114z
" />
    <glyph glyph-name="FL00EDh" unicode="&#xec;" horiz-adv-x="206" 
d="M164 0l71 220h-122l-71 -220h122zM116 227h122l19 58h-122zM139 298h122l16 51h-122zM162 370h122l12 37h-122zM331 444l-8 34h-108l10 -34h106zM205 512h111l-6 30h-113z" />
    <glyph glyph-name="FL00ECh" unicode="&#xed;" horiz-adv-x="206" 
d="M164 0l71 220h-122l-71 -220h122zM116 227h122l19 58h-122zM139 298h122l16 51h-122zM174 407l-12 -37h122l12 37h-122zM269 444l32 34h-109l-29 -34h106zM221 512h111l29 30h-114z" />
    <glyph glyph-name="FL00EEh" unicode="&#xee;" horiz-adv-x="206" 
d="M42 0h122l71 220h-122zM116 227h122l19 58h-122zM139 298h122l16 51h-122zM166 512h207l-8 30h-170zM296 407h-122l-12 -37h122zM280 444h113l-10 34h-112zM216 444l30 34h-111l-32 -34h113z" />
    <glyph glyph-name="FL00EFh" unicode="&#xef;" horiz-adv-x="206" 
d="M42 0h122l71 220h-122zM116 227h122l19 58h-122zM139 298h122l16 51h-122zM296 407h-122l-12 -37h122zM217 444l11 34h-114l-11 -34h114zM279 444h114l11 34h-114zM125 512h114l10 30h-114zM301 512h114l10 30h-114z" />
    <glyph glyph-name="FL00F0h" unicode="&#xf0;" 
d="M53 33q-4 -11 3.5 -21.5t17.5 -11.5h485q8 0 23 9t20 23l61 188h-550zM139 298h550l16 51h-550zM174 407l-12 -37h550l2 5q3 11 -4.5 21.5t-18.5 10.5h-189l3 7h-119l-3 -7h-209zM159 258q-8 0 -21 -11t-20 -20h548l19 58h-121l-9 -27h-396zM198 109l13 39h308l-13 -39
h-308zM520 462h-119l-7 -21h119z" />
    <glyph glyph-name="FL00F1h" unicode="&#xf1;" horiz-adv-x="649" 
d="M471 220h-195l213 -220h118l71 220h-122l-21 -66zM163 0l71 220h-121l-71 -220h121zM245 253l25 -26h195l-55 58h-275l-19 -58h121zM139 298h259l-50 51h-193zM559 227h122l19 58h-122zM582 298h122l16 51h-122zM600 444l32 34h-186l10 -34h144zM174 407l-12 -37h166
l-35 37h-119zM342 512h187l-8 30h-150zM605 370h122l12 37h-122zM392 444l30 34h-111l-32 -34h113zM552 512h111l29 30h-113z" />
    <glyph glyph-name="FL00F5h" unicode="&#xf2;" 
d="M602 32l61 188h-121l-35 -109h-308l35 109h-121l-61 -188q-2 -9 4 -20.5t17 -11.5h488q11 0 24.5 10.5t16.5 21.5zM139 298h550l16 51h-550zM162 370h550l2 5q4 11 -4.5 21.5t-16.5 10.5h-488q-8 0 -22 -10.5t-19 -21.5zM116 227h121l19 58h-121zM545 227h121l19 58h-121
zM527 444l-8 34h-108l10 -34h106zM401 512h111l-6 30h-113z" />
    <glyph glyph-name="FL00F7h" unicode="&#xf3;" 
d="M602 32l61 188h-121l-35 -109h-308l35 109h-121l-61 -188q-2 -9 4 -20.5t17 -11.5h488q11 0 24.5 10.5t16.5 21.5zM139 298h550l16 51h-550zM162 370h550l2 5q4 11 -4.5 21.5t-16.5 10.5h-488q-8 0 -22 -10.5t-19 -21.5zM116 227h121l19 58h-121zM545 227h121l19 58h-121
zM501 444l32 34h-109l-29 -34h106zM453 512h111l29 30h-114z" />
    <glyph glyph-name="FL00F4h" unicode="&#xf4;" 
d="M602 32l61 188h-121l-35 -109h-308l35 109h-121l-61 -188q-2 -9 4 -20.5t17 -11.5h488q11 0 24.5 10.5t16.5 21.5zM139 298h550l16 51h-550zM162 370h550l2 5q4 11 -4.5 21.5t-16.5 10.5h-488q-8 0 -22 -10.5t-19 -21.5zM116 227h121l19 58h-121zM545 227h121l19 58h-121
zM379 512h207l-8 30h-170zM596 478h-112l9 -34h113zM316 444h113l30 34h-111z" />
    <glyph glyph-name="FL00F8h" unicode="&#xf5;" 
d="M602 32l61 188h-121l-35 -109h-308l35 109h-121l-61 -188q-2 -9 4 -20.5t17 -11.5h488q11 0 24.5 10.5t16.5 21.5zM139 298h550l16 51h-550zM162 370h550l2 5q4 11 -4.5 21.5t-16.5 10.5h-488q-8 0 -22 -10.5t-19 -21.5zM116 227h121l19 58h-121zM545 227h121l19 58h-121
zM592 444l32 34h-186l10 -34h144zM334 512h187l-8 30h-150zM384 444l30 34h-111l-32 -34h113zM544 512h111l29 30h-113z" />
    <glyph glyph-name="FL00F6h" unicode="&#xf6;" 
d="M602 32l61 188h-121l-35 -109h-308l35 109h-121l-61 -188q-2 -9 4 -20.5t17 -11.5h488q11 0 24.5 10.5t16.5 21.5zM139 298h550l16 51h-550zM162 370h550l2 5q4 11 -4.5 21.5t-16.5 10.5h-488q-8 0 -22 -10.5t-19 -21.5zM116 227h121l19 58h-121zM545 227h121l19 58h-121
zM430 444l11 34h-114l-11 -34h114zM606 444l11 34h-114l-11 -34h114zM338 512h114l10 30h-114zM514 512h114l10 30h-114z" />
    <glyph glyph-name="FL0101h" unicode="&#xf7;" horiz-adv-x="474" 
d="M480 148l23 72h-390l-23 -72h390zM516 258h-390l-10 -31h390zM218 116l-34 -103h114l34 103h-114zM277 298h114l16 51h-114zM300 370h114l8 23h-114z" />
    <glyph glyph-name="FL00FEh" unicode="&#xf8;" 
d="M199 111l35 109h-121l-61 -188q-3 -11 3.5 -21.5t17.5 -10.5h488q11 0 24 11.5t17 20.5l61 188h-121l-35 -109h-42l-22 109h-129l22 -109h-137zM139 298h550l16 51h-550zM162 370h550l2 5q3 11 -5 21.5t-16 10.5h-488q-4 0 -10.5 -3t-12.5 -7.5t-11 -10t-7 -11.5z
M313 227h129l-11 58h-129zM116 227h121l19 58h-121zM545 227h121l19 58h-121z" />
    <glyph glyph-name="FL00F9h" unicode="&#xf9;" 
d="M602 32l61 188h-121l-35 -109h-308l35 109h-121l-61 -188q-2 -9 4 -20.5t17 -11.5h488q11 0 24.5 10.5t16.5 21.5zM116 227h121l19 58h-121zM545 227h121l19 58h-121zM139 298h121l16 51h-121zM568 298h121l16 51h-121zM162 370h121l12 37h-121zM591 370h121l12 37h-121z
M527 444l-8 34h-108l10 -34h106zM401 512h111l-6 30h-113z" />
    <glyph glyph-name="FL00FAh" unicode="&#xfa;" 
d="M602 32l61 188h-121l-35 -109h-308l35 109h-121l-61 -188q-2 -9 4 -20.5t17 -11.5h488q11 0 24.5 10.5t16.5 21.5zM116 227h121l19 58h-121zM545 227h121l19 58h-121zM139 298h121l16 51h-121zM568 298h121l16 51h-121zM162 370h121l12 37h-121zM591 370h121l12 37h-121z
M501 444l32 34h-109l-29 -34h106zM453 512h111l29 30h-114z" />
    <glyph glyph-name="FL00FBh" unicode="&#xfb;" 
d="M602 32l61 188h-121l-35 -109h-308l35 109h-121l-61 -188q-2 -9 4 -20.5t17 -11.5h488q11 0 24.5 10.5t16.5 21.5zM116 227h121l19 58h-121zM545 227h121l19 58h-121zM568 298h121l16 51h-121zM139 298h121l16 51h-121zM379 512h207l-8 30h-170zM162 370h121l12 37h-121z
M591 370h121l12 37h-121zM596 478h-112l9 -34h113zM316 444h113l30 34h-111z" />
    <glyph glyph-name="FL00FCh" unicode="&#xfc;" 
d="M602 32l61 188h-121l-35 -109h-308l35 109h-121l-61 -188q-2 -9 4 -20.5t17 -11.5h488q11 0 24.5 10.5t16.5 21.5zM116 227h121l19 58h-121zM545 227h121l19 58h-121zM139 298h121l16 51h-121zM568 298h121l16 51h-121zM162 370h121l12 37h-121zM591 370h121l12 37h-121z
M430 444l11 34h-114l-11 -34h114zM606 444l11 34h-114l-11 -34h114zM514 512h114l10 30h-114zM338 512h114l10 30h-114z" />
    <glyph glyph-name="FL00FDh" unicode="&#xfd;" 
d="M109 111h183l-36 -111h121l36 111h184q11 0 24.5 10.5t16.5 21.5l25 77h-550l-25 -77q-2 -9 4 -20.5t17 -11.5zM116 227h121l19 58h-121zM545 227h121l19 58h-121zM139 298h121l16 51h-121zM568 298h121l16 51h-121zM295 407h-121l-12 -37h121zM724 407h-121l-12 -37h121
zM395 444h106l32 34h-109zM453 512h111l29 30h-114z" />
    <glyph glyph-name="FL0100h" unicode="&#xfe;" horiz-adv-x="646" 
d="M163 0l18 56h368q29 0 63 41.5t63 122.5h-121l-17 -54h-320l17 54h-121l-71 -220h121zM241 240h320l-4 -13h121l3 11l10 31l3 7q2 8 2 9h-561l-19 -58h121zM690 349h-535l-16 -51h560q3 17 2 31.5t-11 19.5zM174 407l-12 -37h121l12 37h-121z" />
    <glyph glyph-name="FL00FFh" unicode="&#xff;" 
d="M109 111h183l-36 -111h121l36 111h184q11 0 24.5 10.5t16.5 21.5l25 77h-550l-25 -77q-2 -9 4 -20.5t17 -11.5zM116 227h121l19 58h-121zM545 227h121l19 58h-121zM139 298h121l16 51h-121zM568 298h121l16 51h-121zM724 407h-121l-12 -37h121zM295 407h-121l-12 -37h121
zM492 444h114l11 34h-114zM430 444l11 34h-114l-11 -34h114zM514 512h114l10 30h-114zM338 512h114l10 30h-114z" />
    <glyph glyph-name="FL0153h" unicode="&#x152;" horiz-adv-x="1065" 
d="M507 111h-308l35 109h-121l-61 -188q-2 -9 4 -20.5t17 -11.5h950l36 111h-429l12 37h402l23 72h-525zM139 298h981l16 51h-981zM1155 407h-950q-8 0 -22 -10.5t-19 -21.5l-2 -5h981zM1080 258h-402l9 27h-123l-19 -58h525zM116 227h121l19 58h-121z" />
    <glyph glyph-name="FL0152h" unicode="&#x153;" horiz-adv-x="1065" 
d="M507 111h-308l35 109h-121l-61 -188q-2 -9 4 -20.5t17 -11.5h950l36 111h-429l12 37h402l23 72h-525zM139 298h981l16 51h-981zM1155 407h-950q-8 0 -22 -10.5t-19 -21.5l-2 -5h981zM1080 258h-402l9 27h-123l-19 -58h525zM116 227h121l19 58h-121z" />
    <glyph glyph-name="FL0160h" unicode="&#x160;" 
d="M507 111h-429l-36 -111h517q11 0 25.5 12t18.5 23l60 185h-550l-10 -33q-3 -10 5.5 -24.5t28.5 -14.5h382zM139 298h550l16 51h-550zM162 370h550l12 37h-510q-17 -3 -30.5 -12.5t-21.5 -24.5zM247 258l9 27h-121l-19 -58h548q-1 9 -7 20t-14 11h-396zM543 444l32 34
h-206l10 -34h164zM359 512h112l-7 30h-113zM495 512h111l29 30h-113z" />
    <glyph glyph-name="FL0161h" unicode="&#x161;" 
d="M507 111h-429l-36 -111h517q11 0 25.5 12t18.5 23l60 185h-550l-10 -33q-3 -10 5.5 -24.5t28.5 -14.5h382zM139 298h550l16 51h-550zM162 370h550l12 37h-510q-17 -3 -30.5 -12.5t-21.5 -24.5zM247 258l9 27h-121l-19 -58h548q-1 9 -7 20t-14 11h-396zM543 444l32 34
h-206l10 -34h164zM359 512h112l-7 30h-113zM495 512h111l29 30h-113z" />
    <glyph glyph-name="FL0178h" unicode="&#x178;" 
d="M42 0h517q11 0 25.5 12t18.5 23l60 185h-550l-12 -37q-2 -14 6.5 -23t17.5 -12h394l-12 -37h-429zM247 258l9 27h-121l-19 -58h550l19 58h-121l-9 -27h-308zM139 298h121l16 51h-121zM568 298h121l16 51h-121zM162 370h121l12 37h-121zM591 370h121l12 37h-121zM430 444
l11 34h-114l-11 -34h114zM606 444l11 34h-114l-11 -34h114zM514 512h114l10 30h-114zM338 512h114l10 30h-114z" />
    <glyph glyph-name="FL017Dh" unicode="&#x17d;" 
d="M628 112h-319l211 108h-211l-235 -122l-32 -98h550zM692 308l13 41h-550l-16 -51h533zM162 370h550l12 37h-550zM324 227h210l113 58h-211zM543 444l32 34h-206l10 -34h164zM495 512h111l29 30h-113zM359 512h112l-7 30h-113z" />
    <glyph glyph-name="FL017Eh" unicode="&#x17e;" 
d="M628 112h-319l211 108h-211l-235 -122l-32 -98h550zM692 308l13 41h-550l-16 -51h533zM162 370h550l12 37h-550zM324 227h210l113 58h-211zM543 444l32 34h-206l10 -34h164zM495 512h111l29 30h-113zM359 512h112l-7 30h-113z" />
    <glyph glyph-name="k" unicode="&#x192;" horiz-adv-x="685" 
d="M163 0l39 121l237 -121h219l-349 202l41 18h-237l-71 -220h121zM116 227h251l137 58h-233l-18 -7l3 7h-121zM302 298h232l119 51h-226zM790 407h-220l-91 -37h224zM139 298h121l16 51h-121zM174 407l-12 -37h121l12 37h-121z" />
    <glyph glyph-name="FL02C6h" unicode="&#x2c6;" horiz-adv-x="344" 
d="M307 414h-111l-42 -44h113zM317 370h112l-12 44h-110zM240 461l-19 -20h188l-5 20h-164z" />
    <glyph glyph-name="FL02DCh" unicode="&#x2dc;" horiz-adv-x="438" 
d="M305 413l12 -43h157l42 44h-111l-5 -6l-2 6h-203l-42 -44h113zM220 441h170l-6 21h-144zM429 441h112l20 21h-113z" />
    <glyph glyph-name="FL2013h" unicode="&#x2013;" horiz-adv-x="388" 
d="M90 148h304l23 72h-304zM430 258h-304l-10 -31h304z" />
    <glyph glyph-name="FL2014h" unicode="&#x2014;" horiz-adv-x="464" 
d="M470 148l23 72h-380l-23 -72h380zM126 258l-10 -31h380l10 31h-380z" />
    <glyph glyph-name="FL2018h" unicode="&#x2018;" horiz-adv-x="205" 
d="M138 298h121l16 51h-121zM242 246l13 39h-121l-13 -39h121zM173 370h109l12 37h-75z" />
    <glyph glyph-name="FL2019h" unicode="&#x2019;" horiz-adv-x="205" 
d="M139 298h121l16 51h-121zM162 370h121l12 37h-121zM197 246l49 39h-111l-13 -39h75z" />
    <glyph glyph-name="FL201Ah" unicode="&#x201a;" horiz-adv-x="205" 
d="M163 0l36 111h-121l-52 -161h75z" />
    <glyph glyph-name="FL201Ch" unicode="&#x201c;" horiz-adv-x="352" 
d="M139 298h113l16 51h-113zM294 298h113l16 51h-113zM390 246l13 39h-113l-13 -39h113zM235 246l13 39h-113l-13 -39h113zM328 370h102l12 37h-70zM173 370h102l12 37h-70z" />
    <glyph glyph-name="FL201Dh" unicode="&#x201d;" horiz-adv-x="352" 
d="M139 298h113l16 51h-113zM294 298h113l16 51h-113zM317 370h113l12 37h-113zM162 370h113l12 37h-113zM192 246l46 39h-103l-13 -39h70zM347 246l46 39h-103l-13 -39h70z" />
    <glyph glyph-name="FL201Eh" unicode="&#x201e;" horiz-adv-x="355" 
d="M313 0l36 111h-121l-52 -161h75zM163 0l36 111h-121l-52 -161h75z" />
    <glyph glyph-name="FL2020h" unicode="&#x2020;" horiz-adv-x="467" 
d="M294 0l71 220h-121l-71 -220h121zM247 228v-1h121v1h131l19 57h-383l-19 -57h131zM535 338h-131l3 11h-121l-3 -11h-131l-13 -40h383zM426 407h-121l-12 -37h121z" />
    <glyph glyph-name="FL2021h" unicode="&#x2021;" horiz-adv-x="467" 
d="M100 178l-36 -110h131l-22 -68h121l22 68h131l36 110h-131l13 42h-121l-13 -42h-131zM247 228v-1h121v1h131l19 57h-383l-19 -57h131zM535 338h-131l3 11h-121l-3 -11h-131l-13 -40h383zM426 407h-121l-12 -37h121z" />
    <glyph glyph-name="FL2022h" unicode="&#x2022;" 
d="M602 32l61 188h-550l-61 -188q-2 -9 4 -20.5t17 -11.5h488q11 0 24.5 10.5t16.5 21.5zM116 227h550l19 58h-550zM139 298h550l16 51h-550zM162 370h550l2 5q4 11 -4.5 21.5t-16.5 10.5h-488q-8 0 -22 -10.5t-19 -21.5z" />
    <glyph glyph-name="FL2026h" unicode="&#x2026;" horiz-adv-x="591" 
d="M356 0l36 111h-121l-36 -111h121zM549 0l36 111h-121l-36 -111h121zM163 0l36 111h-121l-36 -111h121z" />
    <glyph glyph-name="FL00B0h" unicode="&#x2030;" horiz-adv-x="989" 
d="M652 -9l57 174q2 6 -2 11t-9 5h-237l32 39h-130l-185 -220h130l117 138l-48 -147q-2 -5 1.5 -10.5t8.5 -5.5h244q6 0 12.5 5t8.5 11zM1001 165q2 6 -2 11t-9 5h-244q-4 0 -11 -5t-9 -11l-57 -174q-2 -5 1.5 -10.5t8.5 -5.5h244q6 0 12.5 5t8.5 11zM124 227h376l49 58
h-130l-15 -18l6 18h-275l-15 -44q-2 -8 4 -14zM162 370h275l15 44h-275zM333 300h-114l16 49h-80l-16 -51h275l16 51h-81zM430 298h130l43 51h-130zM590 50h-114l18 56h114zM768 50l18 56h114l-18 -56h-114zM652 407h-130l-31 -37h130z" />
    <glyph glyph-name="FL2039h" unicode="&#x2039;" horiz-adv-x="288" 
d="M229 203l13 17h-136l-13 -17l37 -203h131zM113 227h135l47 58h-134zM172 298h133l41 51h-133zM262 407l-31 -37h132l30 37h-131z" />
    <glyph glyph-name="FL203Ah" unicode="&#x203a;" horiz-adv-x="288" 
d="M191 203l-164 -203h131l169 203l-4 17h-135zM187 227h136l-11 58h-134zM176 298h134l-10 51h-132zM290 407h-131l6 -37h131z" />
    <glyph glyph-name="FL20ACh" unicode="&#x20ac;" horiz-adv-x="738" 
d="M216 216l-7 -23h-104l-20 -60h104l-33 -101q-2 -9 4 -20.5t17 -11.5h488q11 0 24.5 10.5t16.5 21.5l39 118h-121l-13 -40h-308l7 23h220l20 60h-220l7 23h220l1 4h-445l-1 -4h104zM243 298h550l16 51h-550zM131 275l-15 -48h445l15 48h-220l4 10h-121l-4 -10h-104z
M818 375q4 11 -4.5 21.5t-16.5 10.5h-488q-8 0 -22 -10.5t-19 -21.5l-2 -5h550zM780 258l9 27h-121l-9 -27h121z" />
    <glyph glyph-name="FL2122h" unicode="&#x2122;" horiz-adv-x="345" 
d="M238 461l-7 -20h21l7 20h46l5 17h-113l-5 -17h46zM365 414h-22l2 -44h32l13.5 18t18.5 26h-25q-5 -8 -9 -13.5t-10 -13.5v27zM332 478l-12 -37h20l2 1l-1 -1h24l1 4q-2 19 -14 33h-20zM402 441h24q2 3 3 4v-4h17l12 37h-21q-5 -4 -12.5 -12.5t-22.5 -24.5zM208 370h21
l15 44h-21zM409 370h14l15 44h-14zM297 370h14l15 44h-14zM222 348v1h-21v-1h21zM304 348v1h-14v-1h14zM416 348v1h-14v-1h14zM358 349h-11q1 -1 4 -1h4q2 0 3 1z" />
    <glyph glyph-name="FL005Bh" horiz-adv-x="779" 
d="M73 0h633q11 0 21 10t10 22v375h-121v-296h-166v296h-121v-296h-166v296h-121v-375q0 -11 11 -21.5t20 -10.5z" />
    <glyph glyph-name="FLE003h" horiz-adv-x="618" 
d="M309 281l150 -281h132l-218 407h-128l-218 -407h132z" />
    </font>
</defs>
</svg>
