<?xml version="1.0" standalone="no"?>
<!DOCTYPE svg PUBLIC "-//W3C//DTD SVG 1.1//EN" "http://www.w3.org/Graphics/SVG/1.1/DTD/svg11.dtd" >
<svg xmlns="http://www.w3.org/2000/svg" xmlns:xlink="http://www.w3.org/1999/xlink" version="1.1">
<metadata>
Created by FontForge 20170731 at Thu Dec 13 01:45:18 2012
 By Aleksey,,,
Bythebutterflycom
</metadata>
<defs>
<font id="LoveNessThree" horiz-adv-x="200" >
  <font-face 
    font-family="LoveNessThree"
    font-weight="500"
    font-stretch="normal"
    units-per-em="1000"
    panose-1="2 0 6 3 0 0 0 0 0 0"
    ascent="800"
    descent="-200"
    x-height="455.5"
    cap-height="662"
    bbox="-94.1818 -224.286 848.889 756"
    underline-thickness="50"
    underline-position="-200"
    unicode-range="U+0020-3000"
  />
<missing-glyph horiz-adv-x="364" 
d="M66 33h199v600h-199v-600zM33 0v666h265v-666h-265z" />
    <glyph glyph-name=".notdef" horiz-adv-x="364" 
d="M66 33h199v600h-199v-600zM33 0v666h265v-666h-265z" />
    <glyph glyph-name=".null" horiz-adv-x="0" 
 />
    <glyph glyph-name="nonmarkingreturn" horiz-adv-x="333" 
 />
    <glyph glyph-name="space" unicode=" " 
 />
    <glyph glyph-name="exclam" unicode="!" horiz-adv-x="209" 
d="M115 142q2 31 20 48q14 11 31 10.5t30 -12.5q17 -16 20 -42.5t-12.5 -64t-50.5 -77.5q-5 -5 -12.5 -5.5t-13.5 3.5l-4 6q-13 6 -25 13q-5 1 -8 5q-31 20 -49 43q-27 38 -14 68q7 16 24 21.5t34 -0.5q15 -5 30 -16zM110 704q43 -25 40 -63q-2 -24 -28 -61l-21 -27l-19 -26
q-15 -26 -11 -41q2 -5 8 -10q3 -2 22 -12q40 -22 40 -56q-1 -40 -26 -71q-1 -1 -4.5 -5.5t-4.5 -5.5t-3.5 -4.5t-3 -5.5t-2 -5t-2.5 -6t-1 -6t2 -5q1 -2 5 -5q7 -6 10 -8q14 -14 17 -31q3 -20 -9 -48q-3 -7 -10 -9.5t-14 0t-9.5 9.5t-0.5 14q9 19 7 28q-1 6 -6 10l-7 7
q-7 5 -10 8q-13 15 -11 34q1 6 2.5 11.5t3.5 10.5t4 8.5t5 8t4.5 6.5t5.5 6.5t5 5.5q17 21 17 48q0 13 -22 24q-20 11 -25 15q-17 12 -21 29q-9 31 15 69q7 12 20 29l21 27q20 29 21 43q2 15 -22 28q-6 4 -8 11t1.5 13.5t10.5 8.5t14 -1z" />
    <glyph glyph-name="quotedbl" unicode="&#x22;" horiz-adv-x="301" 
d="M164 707q-20 -82 -14 -218q0 -8 -5 -13.5t-12.5 -5.5t-13 5t-5.5 12q-6 142 14 228q2 7 8.5 11t13.5 2.5t11 -8t3 -13.5zM341 689q-15 -23 -14 -95q0 -63 11 -107q1 -7 -3 -13.5t-11 -8t-13.5 2.5t-8.5 11q-11 48 -11 115q-1 82 20 115q4 6 11.5 7.5t13.5 -2.5t7.5 -11.5
t-2.5 -13.5z" />
    <glyph glyph-name="numbersign" unicode="#" horiz-adv-x="479" 
d="M242 200q15 46 58 169q-68 1 -112 1q-12 -34 -19 -56q-17 -56 -33 -117q17 0 52.5 1.5t53.5 1.5zM33 403q15 2 33.5 3t31 1t34.5 -0.5t30 -0.5q37 106 47 160q2 8 8 12t13.5 2.5t11.5 -7.5t3 -13q-11 -57 -45 -154q43 0 112 -1l9 33q5 21 8 32q15 51 35 80q4 6 11.5 7.5
t13.5 -2.5t7.5 -11.5t-2.5 -13.5q-17 -26 -30 -70q-3 -10 -8 -28.5t-7 -26.5q96 -1 150 -1q7 0 12.5 -5.5t5.5 -12.5t-5.5 -12.5t-12.5 -5.5q-55 0 -161 1q-46 -132 -58 -169q24 -1 71 -4q63 -4 90 -4q7 0 12.5 -5.5t5.5 -12.5t-5.5 -12.5t-12.5 -5.5q-31 0 -93 4
q-53 4 -79 4q-33 -107 -47 -195q-1 -7 -7.5 -11.5t-13.5 -3.5t-11.5 7.5t-3.5 13.5q15 86 45 189q-9 -1 -46 -2t-58 -2q-19 -78 -40 -185q-2 -7 -8 -11t-13.5 -2.5t-11.5 7.5t-3 14q21 102 39 178q-27 1 -49 4q-8 1 -12.5 7t-3.5 13.5t7 12t13 3.5q25 -4 54 -4q17 67 36 127
q6 20 15 46q-84 2 -111 -3q-8 -1 -14 3.5t-7 12t3.5 13.5t11.5 7z" />
    <glyph glyph-name="dollar" unicode="$" horiz-adv-x="424" 
d="M271 343q-5 148 -7 240q-52 -6 -90.5 -32t-50.5 -68q-5 -18 -4 -39t9 -30q7 -7 14.5 -13t18.5 -11l18 -9q7 -3 23.5 -9t21.5 -8q24 -10 47 -21zM308 278q6 -171 7 -263q45 13 70 38q30 29 23 78q-11 85 -100 147zM403 457q37 50 12 84q-24 33 -89 41q-13 2 -26 2
q2 -95 7 -262q122 -75 137 -187q9 -67 -33 -108q-35 -34 -95 -49q1 -68 1 -128q0 -7 -5.5 -12.5t-12.5 -5.5t-12.5 5.5t-5.5 12.5q0 57 -1 121q-59 -7 -110 6q-36 9 -69 36.5t-53 63.5q-21 34 -20.5 77.5t30.5 76.5q5 6 12 6t13 -5t6 -12t-5 -13q-40 -45 -4 -113
q16 -30 43 -52.5t55 -30.5q47 -11 102 -3q-2 95 -8 293q-28 16 -62 29q-3 2 -19.5 8t-24.5 9.5t-22 10.5t-24 15t-18 17q-17 19 -19 52.5t6 50.5q15 56 63.5 87.5t111.5 38.5q-1 62 -1 119q0 7 5.5 12.5t12.5 5.5t12.5 -5.5t5.5 -12.5q0 -56 1 -118q15 0 30 -2
q80 -11 114 -56q41 -55 -11 -127q-5 -6 -12.5 -7t-13.5 3.5t-7 12t3 13.5z" />
    <glyph glyph-name="percent" unicode="%" horiz-adv-x="559" 
d="M176 572q-12 -11 -24 -1q-4 3 -8 5h-22q-4 0 -8 2q-1 -1 -2 -1q-18 -16 -21 -54q-3 -39 14 -63t51 -15q12 2 22.5 18t14.5 39.5t0 42t-14 25.5q-2 1 -3 2zM152 613q30 -1 47 -13q22 -15 28.5 -44.5t1 -60t-22 -55t-42.5 -31.5q-57 -13 -88 30q-25 35 -20.5 87t33.5 78
q27 24 63 9zM495 191q-5 -5 -9 -13q-11 -18 -11.5 -38.5t8.5 -30.5q4 -5 17 1q19 9 31 29q11 18 6 30q-8 16 -42 22zM551 207q12 -10 18 -23q14 -30 -7 -64q-18 -29 -47 -43q-38 -17 -60 8q-18 26 -16.5 55.5t15.5 55.5q16 29 40 36q30 9 55 -22q1 -1 2 -3zM594 642
q-22 -22 -54 -67q-40 -56 -56 -74l-54 -65l-65 -81l-52 -66l-63 -78l-76 -92q-32 -41 -59 -80q-5 -6 -12 -7.5t-13 3t-7.5 11.5t2.5 13q27 39 60 81l76 94l64 77l52 67l65 82l56 65q15 18 53 71q33 48 59 72q5 5 12.5 5t12.5 -5.5t5 -13t-6 -12.5z" />
    <glyph glyph-name="ampersand" unicode="&#x26;" horiz-adv-x="386" 
d="M248 634q-2 -11 -2 -22t1 -26t1.5 -21.5t3.5 -27t4 -24.5q1 -7 -3.5 -13t-12 -7t-13.5 3.5t-7 12.5q0 2 -3 22.5t-4 28t-2 24t-1 29.5t2 25q1 8 7 12.5t13.5 3.5t12 -7t3.5 -13zM353 460q-15 4 -51 -8t-75 -35q-41 -23 -65 -48q-16 -15 -24 -37h3q14 -2 41 4q33 17 62 26
q25 9 43 10q24 2 37 -8q9 -7 7 -18q-2 -7 -8 -11q-2 -2 -5 -3t-7 -2q-6 -1 -16 -3q-5 0 -11 -1t-10 -1.5t-4 -1.5q-2 0 -10 -2l-19 -6q-26 -8 -46 -13q-17 -9 -33 -19q-52 -31 -81 -63t-24 -49q5 -15 42 -9q41 6 111 36q49 21 120 58l78 40q7 3 14 0.5t10 -9t0.5 -13.5
t-8.5 -10l-16 -8l-30 -16l-31 -16q-71 -37 -122 -59q-75 -32 -121 -39q-68 -10 -81 35q-11 37 31 83q25 28 67 56q-4 1 -7 4q-13 10 -13 26q1 30 35 65q27 27 72 53q44 25 83 38q46 15 72 8q7 -1 10.5 -7.5t2 -14t-8 -11t-14.5 -1.5zM317 149q0 -48 11 -89q2 -7 -1.5 -13.5
t-10.5 -8.5t-13.5 1.5t-8.5 10.5q-13 47 -13 99q0 7 5.5 12.5t12.5 5.5t12.5 -5.5t5.5 -12.5z" />
    <glyph glyph-name="quotesingle" unicode="'" horiz-adv-x="107" 
d="M72 682q-1 -31 -6 -102t-5 -100q0 -7 -5.5 -12.5t-12.5 -5.5t-12.5 5.5t-5.5 12.5q0 33 5 103t6 99q0 8 5.5 13t13 5t12.5 -5.5t5 -12.5z" />
    <glyph glyph-name="parenleft" unicode="(" horiz-adv-x="255" 
d="M284 679q-60 -19 -107.5 -85.5t-76.5 -159.5q-27 -89 -31 -178t15 -145q26 -77 71.5 -130.5t120.5 -104.5q6 -4 7.5 -11.5t-2.5 -13.5t-11.5 -7.5t-13.5 2.5q-79 54 -128.5 112t-77.5 141q-21 65 -16 159q4 94 32 186q30 99 82.5 172.5t123.5 96.5q8 2 14.5 -1t8.5 -10.5
t-1 -14t-10 -8.5z" />
    <glyph glyph-name="parenright" unicode=")" horiz-adv-x="230" 
d="M24 704q21 -1 51 -26q22 -18 49 -50q45 -54 75 -100q62 -100 70 -237t-44 -244q-27 -55 -106 -144q-53 -60 -95 -84q-7 -3 -14 -1t-10.5 8.5t-1.5 13.5t8 11q37 21 87 76q75 85 100 136q47 98 40 226t-64 219q-29 46 -72 96q-26 30 -46 47t-29 17q-7 0 -12 6t-5 13t6 12
t13 5z" />
    <glyph glyph-name="asterisk" unicode="*" horiz-adv-x="326" 
d="M195 610q13 26 30 45q23 24 48 28q31 6 58 -20q25 -25 16 -70q-7 -33 -31 -77q-26 -46 -82 -118q-2 -4 -5 -6q-5 -6 -12 -6t-12 6h-1q-1 0 -2 1q0 1 -26 19l-47 34q-21 15 -38 32q-35 31 -51 59q-21 39 -8 71q15 35 47 45q29 9 61 -4q31 -12 53 -39h1h1z" />
    <glyph glyph-name="plus" unicode="+" horiz-adv-x="422" 
d="M57 286q71 -15 177 -15q6 122 20 222q1 7 7 11.5t13.5 3.5t12 -7t3.5 -14q-14 -97 -20 -216q137 2 173 1q7 0 12 -5.5t5 -13t-5.5 -12.5t-13.5 -5q-26 1 -172 -1q-3 -82 -3 -203q0 -7 -5.5 -12.5t-12.5 -5.5t-12.5 5.5t-5.5 12.5q0 121 3 203q-110 0 -184 15q-7 2 -11 8
t-2.5 13.5t7.5 11.5t14 3z" />
    <glyph glyph-name="comma" unicode="," horiz-adv-x="135" 
d="M74 96q37 -33 46 -78t-6 -87.5t-48 -72.5q-5 -5 -12.5 -5t-12.5 5.5t-5 13t6 12.5q41 39 45 92.5t-37 91.5q-5 5 -5.5 12.5t4 13t12 6t13.5 -3.5z" />
    <glyph glyph-name="hyphen" unicode="-" horiz-adv-x="256" 
d="M21 247q75 11 237 11q7 0 12.5 -5.5t5.5 -12.5t-5.5 -12.5t-12.5 -5.5q-161 0 -231 -11q-8 -1 -14 3.5t-7 12t3.5 13.5t11.5 7z" />
    <glyph glyph-name="period" unicode="." 
d="M111 100q5 16 19 28q23 21 48 16q15 -3 20 -17q5 -12 -1 -30q-12 -35 -66 -90q-1 -2 -2 -3q-4 -4 -9 -4q-6 0 -9 4q-2 1 -2 2q-5 4 -18 13t-18 13q-31 22 -37 41q-6 22 10 34q12 8 33 5q16 -3 32 -12z" />
    <glyph glyph-name="slash" unicode="/" horiz-adv-x="363" 
d="M401 708q-33 -106 -97 -261q-103 -247 -106 -255q-8 -18 -45.5 -109t-54.5 -140q-5 -16 -15 -56q-10 -37 -18 -59q-3 -7 -10 -9.5t-14 0t-9.5 9.5t-0.5 14q8 19 17 54q10 42 16 59q18 51 55 141q38 91 45 110l106 255q65 158 97 257q2 8 8.5 11t14 1t10.5 -8.5t1 -13.5z
" />
    <glyph glyph-name="zero" unicode="0" horiz-adv-x="428" 
d="M319 454q-70 36 -126 17q-66 -22 -98 -110q-19 -60 -19.5 -121t23.5 -117.5t66 -85.5q76 -52 137 -19q56 31 85 118q17 59 18 117t-20 112t-61 83q-3 3 -5 6zM396 423q39 -60 44.5 -145t-19.5 -153q-34 -101 -102 -138q-80 -44 -174 20q-39 27 -64.5 71.5t-34.5 94.5
t-5 102.5t20 97.5q39 105 121 132q95 32 212 -56q6 -4 7 -11.5t-4 -13.5zM223 103q-3 15 -2 26q1 19 11 29q13 11 35 3q14 -5 24 -26q6 -15 10 -37q3 -19 2 -35q0 -9 -2 -14q-3 -10 -9 -13q-14 -8 -46 -7q-28 1 -43 7q-26 9 -35 27q-9 20 4 35q18 20 51 5zM239 63
q-14 13 -25.5 18t-16.5 4t-7 -3q-3 -3 0 -8q4 -10 21 -16q12 -4 36 -5q25 -1 31 2q1 3 1 9q1 14 -2 31q-3 18 -8 31q-5 11 -10 13q-4 1 -7 1.5t-3 -0.5h-1q-3 -3 -3 -12q-1 -18 6 -41q1 -2 1 -4l3 -4q9 -8 0.5 -16.5t-16.5 0.5z" />
    <glyph glyph-name="one" unicode="1" horiz-adv-x="309" 
d="M281 129q14 5 25 7q19 3 30 -5q14 -10 11 -34q-2 -15 -20 -28q-14 -10 -34 -18q-19 -7 -35 -10q-8 -1 -14 0q-10 0 -15 6q-6 6 -10 20q-3 10 -5 24q-5 28 -3 44q4 26 20 39q17 13 34 3q24 -13 16 -48zM217 513q-19 -194 -20 -301v-50v-49q0 -46 -2 -78q86 -1 117 -3
q8 -1 12.5 -6.5t4 -13t-6 -12t-12.5 -4.5q-27 2 -125 3q-5 -4 -12 -3q-5 1 -9 4q-66 1 -115 8q-7 1 -11.5 7t-3.5 13.5t7 12t14 3.5q43 -7 104 -8q2 32 2 77v49v50q1 101 16 256q-38 -44 -72 -64q-6 -4 -13.5 -2.5t-11 8t-2 14t8.5 10.5l11 8q6 4 12 9l10 9q5 4 11 11
t9.5 10.5t10.5 12.5l9 11l10 13q8 9 10 11q5 6 12 7t13 -4h1q12 -5 11 -19zM245 104q10 17 12.5 29.5t0.5 16.5t-4 6q-4 2 -9 -1q-8 -7 -10 -24q-2 -12 2 -36q2 -12 5 -21q2 -6 4 -9q3 -1 9 0q13 2 29 8q17 7 28 15q10 8 11 13q1 4 0.5 6.5t-0.5 3.5l-1 1q-3 2 -12 1
q-17 -3 -39 -15q-1 -1 -3 -2l-3 -4q-6 -11 -16.5 -4.5t-3.5 16.5z" />
    <glyph glyph-name="two" unicode="2" horiz-adv-x="394" 
d="M273 353q14 8 25 11q19 5 30 -2q16 -8 15 -32q0 -14 -17 -30q-12 -11 -31 -21q-18 -10 -34 -14q-8 -3 -14 -3q-11 0 -16 5q-16 15 -23 53q-7 36 0 56q7 22 24 27q17 6 30 -9t11 -41zM52 375q19 50 72 79t113 31q62 1 108 -31q47 -33 50 -98q3 -56 -40 -94
q-23 -21 -75 -46q-9 -5 -40 -20l-48 -22q-48 -25 -75 -50.5t-30 -56.5q0 -4 -2 -9l-2 -10q-2 -6 -3 -6q3 -1 6 -1q12 0 32 1q13 1 33 3t23 2q62 3 106 3h139q7 0 12.5 -5.5t5.5 -12.5t-5.5 -12.5t-12.5 -5.5h-139q-44 0 -104 -3q-3 0 -23 -2t-33 -3q-22 -1 -35 -1
q-9 1 -15 2q-10 1 -16 6q-15 13 -9 38q2 5 4 11t2 9q5 44 38.5 75.5t86.5 59.5l49 23l39 19q48 23 67 40q30 27 28 66q-2 47 -36 71t-86 24q-51 -1 -94 -25t-57 -61q-3 -7 -9.5 -10t-13.5 -0.5t-10 9t-1 13.5zM239 327q10 22 10 34t-5 17q-3 3 -5 3q-5 -2 -9 -13
q-5 -14 1 -44q5 -27 15 -38q3 0 9 2q13 3 28 12q17 9 27 18q9 8 9 12q0 5 -0.5 7.5t-1.5 3.5h-1q-3 2 -12 0q-17 -5 -37 -20l-4 -2l-2 -4q-6 -10 -16.5 -4.5t-5.5 16.5z" />
    <glyph glyph-name="three" unicode="3" horiz-adv-x="450" 
d="M155 -36q-3 15 -2 26q1 19 11 29q13 11 35 3q14 -5 24 -26q6 -15 10 -37q3 -19 2 -35q0 -9 -2 -14q-3 -10 -9 -13q-14 -8 -46 -7q-28 1 -43 7q-26 9 -35 27q-9 20 4 35q18 20 51 5zM243 352q15 8 26 11q19 5 31 -2q15 -8 14 -32q0 -15 -17 -31q-13 -11 -32 -21
q-17 -8 -33 -13q-8 -2 -14 -2q-10 -1 -15 4q-16 15 -24 52t0 57q9 24 25 29q17 5 29 -13q11 -15 10 -39zM68 448q33 33 81 46t94 4q49 -10 83.5 -43t41.5 -87q8 -69 -22 -104q-15 -18 -45 -33q82 -24 110 -113q25 -81 -7 -160q-26 -62 -89 -94q-63 -33 -131 -27
q-72 6 -122 52q-49 46 -49 127q0 7 5.5 12.5t12.5 5.5t12.5 -5.5t5.5 -12.5q0 -65 39 -101.5t99 -41.5q58 -5 110.5 22t72.5 77q28 67 6 135q-22 72 -88 91q-19 5 -53 1q-53 -6 -62 -6q-3 0 -5 1l-6 2q-7 6 -7 15q0 7 5 13q2 1 4 3l5 2q2 0 6 1l20 4q33 7 50 13q58 21 74 40
q20 23 13 77q-5 41 -31 66t-65 33q-38 7 -77 -4t-65 -37q-6 -5 -13 -5t-12.5 5.5t-5.5 12.5t5 13zM171 -76q-14 13 -25.5 18t-16.5 4t-7 -3q-3 -3 0 -8q4 -10 21 -16q12 -4 36 -5q25 -1 31 2q1 3 1 9q1 14 -2 31q-3 18 -8 31q-5 11 -10 13q-4 1 -7 1.5t-3 -0.5h-1
q-3 -3 -3 -12q-1 -18 6 -41q1 -2 1 -4l3 -4q9 -8 0.5 -16.5t-16.5 0.5zM211 326q9 18 8.5 31t-5.5 20q-2 3 -4 4q-4 -2 -9 -14q-5 -14 1 -44q8 -38 15 -40q-2 1 -2 2t2 1q3 0 9 1q13 4 28 12q17 8 27 17q9 8 9 13t-0.5 7.5t-1.5 3.5l-1 1q-3 1 -11 -1q-18 -5 -38 -20
q-1 -1 -3 -1q-1 -3 -2 -5q-6 -10 -16.5 -4.5t-5.5 16.5z" />
    <glyph glyph-name="four" unicode="4" horiz-adv-x="478" 
d="M324 80q0 142 7 349q-24 -38 -61 -88l-63 -81l-59 -80l-70 -97q11 -2 28 -2q18 -1 60 -1h158zM369 533q11 -8 6 -21q-4 -9 -9 -19q0 -2 1 -29t0 -33q-7 -210 -7 -352q81 -1 145 -7q7 -1 12 -6.5t4 -13t-6.5 -12.5t-13.5 -4q-62 6 -141 7q1 -110 7 -209q0 -7 -5 -13
t-12 -6t-13 5t-6 12q-6 100 -7 212h-158q-43 0 -62 1q-25 1 -40 3q-10 2 -16 4q-13 5 -17 15q-6 16 9 30l6 5q2 1 3 2l69 96q18 25 61 80l62 82q63 86 90 139q0 21 2 37q1 7 7 11.5t14 3.5q7 -1 11.5 -7t3.5 -13zM428 162q-3 15 -2 26q1 19 11 29q13 11 35 3q14 -5 24 -26
q6 -15 10 -37q3 -19 2 -35q0 -9 -2 -14q-3 -10 -9 -13q-14 -8 -46 -7q-28 1 -43 7q-26 9 -35 27q-9 20 4 35q18 20 51 5zM444 122q-14 13 -25.5 18t-16.5 4t-7 -3q-3 -3 0 -8q4 -10 21 -16q12 -4 36 -5q25 -1 31 2q1 3 1 9q1 14 -2 31q-3 18 -8 31q-5 11 -10 13q-4 1 -7 1.5
t-3 -0.5h-1q-3 -3 -3 -12q-1 -18 6 -41q1 -2 1 -4l3 -4q9 -8 0.5 -16.5t-16.5 0.5z" />
    <glyph glyph-name="five" unicode="5" horiz-adv-x="429" 
d="M240 396q15 4 26 4q19 1 29 -9q12 -12 6 -35q-4 -15 -25 -26q-14 -8 -36 -12q-19 -5 -35 -5q-9 0 -14 1q-10 2 -14 9q-8 13 -9 45q-1 28 3 43q8 27 25 37q20 11 35 -2q20 -17 9 -50zM359 120q-3 15 -2 26q1 19 11 29q13 11 35 3q14 -5 24 -26q6 -15 10 -37q3 -19 2 -35
q0 -9 -2 -14q-3 -10 -9 -13q-14 -8 -46 -7q-28 1 -43 7q-26 9 -35 27q-9 20 4 35q18 20 51 5zM149 -16q11 10 21 15q17 9 30 6q17 -5 22 -29q3 -15 -11 -34q-9 -13 -27 -27q-15 -13 -30 -20q-7 -4 -12 -6q-10 -3 -16 1q-7 4 -15 15q-7 9 -14 21q-14 26 -17 41q-5 26 6 43
q12 18 32 15q26 -5 31 -41zM464 467q-8 -1 -34 -2t-64.5 -2t-67.5 -3q-61 -3 -95 -6q-19 -2 -30 -5q-3 0 -5 -1q-7 -14 -12 -70q-8 -74 -12 -88q-3 -14 -18 -68q42 29 93 44q48 14 95.5 7.5t84 -29.5t63 -59.5t31.5 -82.5t-9 -97q-18 -58 -63.5 -101.5t-100.5 -64
t-110 -20.5q-92 1 -140 56q-55 63 -26 170q2 7 8 10.5t13.5 1.5t11 -8t1.5 -14q-23 -88 19 -136q38 -43 113 -44q77 0 147 43.5t93 116.5q13 41 7.5 80.5t-26 68.5t-51.5 50t-70 24.5t-81 -6.5q-65 -19 -108 -60l-2 -6q-8 -20 -26 -18q-10 1 -15 11q-1 3 -1 7q-1 2 0 6
q0 4 2 12q3 11 9 35q20 74 22 79q3 12 10 84q6 64 19 88q4 7 14 11q5 2 12 3q13 3 34 6q35 3 97 6q29 2 67.5 3t64 2t34.5 2q7 1 12.5 -4t6.5 -12.5t-4 -13t-13 -6.5zM201 378q12 14 16 26t2.5 17t-3.5 6q-3 3 -7 0q-9 -5 -14 -22q-4 -12 -3 -37q0 -21 3 -30q4 -1 9 -1
q14 0 31 4q18 4 30 10q11 6 12 11q3 10 0.5 12t-11.5 2q-16 0 -41 -9q-1 -1 -3 -1l-3 -4q-8 -9 -17 -1t-1 17zM375 80q-14 13 -25.5 18t-16.5 4t-7 -3q-3 -3 0 -8q4 -10 21 -16q12 -4 36 -5q25 -1 31 2q1 3 1 9q1 14 -2 31q-3 18 -8 31q-5 11 -10 13q-4 1 -7 1.5t-3 -0.5h-1
q-3 -3 -3 -12q-1 -18 6 -41q1 -2 1 -4l3 -4q9 -8 0.5 -16.5t-16.5 0.5zM122 -50q6 20 3.5 31.5t-6 15.5t-6.5 4q-4 1 -7 -4q-6 -9 -2 -26q2 -11 14 -33l12 -19q4 -6 5 -7q3 1 8 4q13 7 26 17q15 12 23 23q7 10 6 16q-2 9 -5 10q-4 1 -12 -4q-16 -9 -32 -27l-2 -2
q-1 -2 -1 -5q-3 -11 -14.5 -8.5t-9.5 14.5z" />
    <glyph glyph-name="six" unicode="6" horiz-adv-x="426" 
d="M95 184q1 -24 6 -45q23 -104 142 -125q64 -12 121 43q55 52 77 133t-4 136q-27 58 -105 58q-92 0 -158 -63q-27 -27 -44 -57.5t-33 -75.5zM208 105q-3 15 -2 26q1 19 11 29q13 11 35 3q14 -5 24 -26q6 -15 10 -37q3 -19 2 -35q0 -9 -2 -14q-3 -10 -9 -13q-14 -8 -46 -7
q-28 1 -43 7q-26 9 -35 27q-9 20 4 35q18 20 51 5zM411 653q-27 7 -63.5 -12t-76.5 -61q-85 -87 -136 -213q-14 -32 -23 -64q16 24 38 44q76 73 182 73q100 0 138 -79q31 -66 5 -160q-24 -91 -86 -150q-70 -67 -152 -53q-143 26 -172 154q-23 105 36 249q54 131 144 224
q98 101 174 84q7 -2 11 -8.5t2.5 -13.5t-8 -11t-13.5 -3zM224 65q-14 13 -25.5 18t-16.5 4t-7 -3q-3 -3 0 -8q4 -10 21 -16q12 -4 36 -5q25 -1 31 2q1 3 1 9q1 14 -2 31q-3 18 -8 31q-5 11 -10 13q-4 1 -7 1.5t-3 -0.5h-1q-3 -3 -3 -12q-1 -18 6 -41q1 -2 1 -4l3 -4
q9 -8 0.5 -16.5t-16.5 0.5z" />
    <glyph glyph-name="seven" unicode="7" horiz-adv-x="421" 
d="M106 -39q3 14 7 24q8 18 20 23q17 7 35 -9q11 -10 13 -32q1 -17 -3 -38q-5 -20 -11 -34q-4 -8 -8 -13q-6 -8 -13 -9q-15 -2 -45 10q-26 12 -38 22q-21 18 -22 38q-2 22 17 31q24 11 48 -13zM96 478q10 0 75 5t108 8q68 4 107 3q25 0 40 -2q8 -1 15 -3q9 -3 14 -9
q6 -6 6 -16q0 -4 -2 -9q-1 -8 -6 -21q-8 -21 -25 -55q-10 -22 -26 -54l-19 -36l-69 -149q-23 -50 -57.5 -134t-56.5 -154q-2 -7 -8.5 -10t-14 -1t-10.5 8.5t-1 14.5q23 70 57.5 155.5t57.5 135.5l70 150q1 3 17 35l28 55q16 33 23 52q2 5 3 9h-1q-13 2 -35 2q-39 1 -105 -3
q-43 -3 -108.5 -8t-74.5 -5q-8 0 -13.5 5t-5.5 12.5t5 13t12 5.5zM106 -83q-7 17 -16 26t-14 9.5t-8 -0.5q-4 -2 -3 -7q1 -10 14 -22q9 -8 31 -18q21 -8 30 -8q2 3 5 8q6 12 9 29q4 18 3 31t-5 16q-7 6 -10 5q-3 -2 -7 -10q-7 -17 -8 -41q0 -2 -1 -4l2 -4q5 -11 -6 -16
t-16 6z" />
    <glyph glyph-name="eight" unicode="8" horiz-adv-x="356" 
d="M160 398q29 48 77 118q8 12 26 36t29.5 41.5t19.5 35.5q-39 14 -81 10.5t-77 -18t-59.5 -46.5t-30.5 -74q-1 -9 0 -23t3 -17q9 -13 20 -22t38.5 -23t32.5 -16zM350 626q-9 -22 -22 -43.5t-35 -50.5l-26 -36q-47 -69 -75 -116q39 -24 69.5 -47.5t60.5 -55t48.5 -71
t23.5 -83.5q6 -58 -39 -95q-44 -38 -106 -47q-40 -6 -76 1q-37 6 -68 29.5t-40 61.5q-23 90 47 236q13 28 30 58l-2 1q-5 3 -23.5 12.5t-30 16t-26 19t-23.5 25.5q-7 11 -9 35q-1 17 0 29q8 57 41.5 97t79.5 57t98 16.5t97 -19.5q7 -3 9.5 -10t0.5 -14zM173 349
q-16 -29 -29 -55q-64 -134 -45 -213q10 -37 51 -54.5t94 -10t85.5 36t28.5 66.5q-7 73 -55 127q-49 54 -130 103zM180 102q-3 15 -2 26q1 19 11 29q13 11 35 3q14 -5 24 -26q6 -15 10 -37q3 -19 2 -35q0 -9 -2 -14q-3 -10 -9 -13q-14 -8 -46 -7q-28 1 -43 7q-26 9 -35 27
q-9 20 4 35q18 20 51 5zM196 62q-14 13 -25.5 18t-16.5 4t-7 -3q-3 -3 0 -8q4 -10 21 -16q12 -4 36 -5q25 -1 31 2q1 3 1 9q1 14 -2 31q-3 18 -8 31q-5 11 -10 13q-4 1 -7 1.5t-3 -0.5h-1q-3 -3 -3 -12q-1 -18 6 -41q1 -2 1 -4l3 -4q9 -8 0.5 -16.5t-16.5 0.5z" />
    <glyph glyph-name="nine" unicode="9" horiz-adv-x="461" 
d="M403 157q-37 -37 -85 -58q-69 -32 -125.5 -27t-95.5 35.5t-58 79.5q-13 35 -13.5 75t12.5 79t42.5 76t71.5 64q60 38 120 30q57 -8 106 -73q50 -66 63 -148q14 -81 -6 -156.5t-64.5 -144t-106.5 -115.5q-3 -2 -19 -14.5t-21.5 -16.5t-20 -13.5t-24.5 -13.5t-24 -8.5
t-28 -6.5q-7 -1 -13 4t-7 12t4 13t12 7q11 1 22 5l19 6q7 3 20.5 12t17.5 12l21 16q17 12 19 14q61 47 103.5 114t57.5 141zM410 214q6 115 -60 202q-41 54 -82 59q-48 6 -96 -24q-38 -24 -63.5 -56t-36.5 -65.5t-11 -67t12 -62.5q14 -39 44.5 -63t78 -29t108.5 23
q56 26 96 76q4 5 10 7zM166 -47q11 10 20 16q17 9 30 6q17 -5 22 -29q3 -15 -10 -33q-9 -14 -25 -29q-15 -13 -29 -21q-7 -4 -13 -5q-9 -3 -16 1q-13 7 -30 34q-14 25 -18 41q-5 27 6 44q12 19 32 15q26 -5 31 -40zM311 248q11 9 21 15q17 9 30 4q17 -5 21 -29
q2 -15 -10 -33q-10 -14 -26 -28q-15 -13 -30 -20q-7 -4 -13 -5q-10 -2 -16 2q-14 8 -29 36q-13 25 -16 41q-5 27 6 43q12 19 32 14q26 -5 30 -40zM139 -82q6 19 3.5 31t-6 16t-6.5 4q-4 1 -7 -4q-6 -9 -2 -27q2 -11 15 -32q11 -19 19 -25q3 1 8 3q11 7 24 18q14 12 21 24
q7 10 6 16q-1 4 -2 6.5t-2 2.5q-4 1 -12 -3q-16 -9 -31 -28q-1 -1 -3 -2q-1 -3 -1 -6q-3 -11 -14.5 -8.5t-9.5 14.5zM284 213q6 20 3.5 31.5t-5.5 15.5t-6 5q-4 1 -7 -4q-5 -9 -2 -26q2 -12 13 -34q11 -19 19 -26q3 1 8 4q11 6 24 16q14 12 22 23q7 11 6 16q-1 4 -2 7t-2 3
v1q-4 1 -12 -4q-16 -8 -32 -27l-2 -2q-1 -2 -1 -5q-3 -11 -14.5 -8.5t-9.5 14.5z" />
    <glyph glyph-name="colon" unicode=":" horiz-adv-x="171" 
d="M94 417q0 21 9 35q8 10 19 13.5t22 -2.5q21 -13 18 -47q-3 -36 -35 -83q-6 -8 -15 -4h-4q-27 8 -48 28.5t-27 40.5q-3 12 0 20q4 12 18 14q16 1 43 -15zM97 387l-4 2q-25 17 -38 19q1 -1 1 -3q4 -13 20 -29t36 -23q24 38 26 65q2 19 -6 24q-4 3 -9 -4q-9 -14 -3 -44
q2 -11 -10 -14q-9 -2 -13 7zM120 8q24 37 26 64q2 19 -6 24q-4 3 -9 -4q-9 -14 -3 -44q2 -11 -10 -14q-11 -2 -14 9q-24 17 -36 18q1 -1 1 -3q4 -12 18.5 -27t32.5 -23zM102 73q1 20 9 33q8 10 19 13.5t22 -2.5q21 -13 18 -47q-3 -36 -35 -83q-4 -5 -10 -5h-4
q-27 8 -48 28.5t-27 40.5q-3 12 0 20q4 12 18 14q14 1 38 -12z" />
    <glyph glyph-name="semicolon" unicode=";" horiz-adv-x="137" 
d="M83 415q11 11 22 18q16 8 26 1q7 -4 8 -14q1 -6 -1 -16q-5 -19 -22 -41q-18 -25 -22 -32q-6 -11 -16 -6q-7 4 -7 12q-37 21 -45 44q-10 24 11 38q18 12 37 3q5 -3 9 -7zM71 91q38 -20 50 -54t2 -72q-8 -33 -30.5 -63.5t-50.5 -47.5q-6 -4 -13 -2.5t-11 8t-2.5 13.5
t8.5 11q22 14 40 38.5t25 51.5q15 59 -34 85q-7 4 -9 11t1.5 13.5t10.5 8.5t13 -1z" />
    <glyph glyph-name="less" unicode="&#x3c;" horiz-adv-x="371" 
d="M405 470q-32 -47 -120 -102q-26 -17 -72 -44l-61 -34q-18 -12 -64 -34l-17 -9l10 -4q8 -4 23 -10q13 -5 16 -7q161 -85 264 -195q5 -5 5 -12.5t-5.5 -12.5t-13 -5t-12.5 6q-99 105 -254 187q-2 1 -14 6q-14 6 -24 10q-16 7 -25 14q-16 11 -19 25q0 4 0.5 7.5t2.5 5.5l1 1
q1 2 3 3q0 1 1 1l1 1h2l2 2l9 4l28 14q44 22 62 32q13 9 59 36l73 42q81 52 109 92q4 6 11.5 7.5t13.5 -2.5t7.5 -11.5t-2.5 -13.5z" />
    <glyph glyph-name="equal" unicode="=" horiz-adv-x="473" 
d="M52 368q66 0 199 -0.5t199 -0.5q7 0 12.5 -5.5t5.5 -12.5t-5.5 -12.5t-12.5 -5.5q-66 0 -199 0.5t-199 0.5q-7 0 -12.5 5.5t-5.5 12.5t5.5 12.5t12.5 5.5zM40 193q17 3 36 3.5t44.5 -0.5t33.5 -1q51 0 152 -1t152 -1q7 0 12.5 -5.5t5.5 -12.5t-5.5 -12.5t-12.5 -5.5
q-51 0 -152 1t-152 1q-12 0 -35.5 1t-40.5 0.5t-32 -3.5q-7 -1 -13 3.5t-7.5 11.5t3 13t11.5 8z" />
    <glyph glyph-name="greater" unicode="&#x3e;" horiz-adv-x="401" 
d="M69 477q20 -9 50 -28q35 -23 46 -29q50 -29 162 -74q23 -10 60 -29q21 -11 33 -19q8 -5 12 -9t6 -7q4 -9 1 -18q-3 -6 -11 -12l-11 -8l-36 -20l-105 -55q-157 -83 -189 -120q-5 -5 -12.5 -5.5t-13 4t-6 12t3.5 13.5q37 42 200 128l105 55q19 10 29 16q-9 6 -22 13
q-35 18 -58 27q-113 47 -166 76l-48 30q-27 18 -46 27q-6 3 -8.5 10t0.5 13.5t10 9t14 -0.5z" />
    <glyph glyph-name="question" unicode="?" horiz-adv-x="337" 
d="M129 85q12 32 31 45q24 16 42 -1q16 -16 11 -49q-5 -32 -30 -70q0 -2 -1 -4q-2 -8 -11 -7q-3 0 -7 2l-1 1q-2 1 -21.5 7t-27 9t-21 9t-22.5 13q-23 17 -20.5 32.5t25.5 18.5q24 4 53 -6zM53 519q-31 44 -2 94q24 42 77 65q25 10 52 13t53.5 -2.5t49.5 -25.5t37 -52
q37 -84 -1 -158.5t-119 -116.5q-6 -3 -52 -20q-18 -6 -28 -10q-3 -2 -6 -3q0 -3 1 -9q1 -13 5 -44q10 -70 10 -81q0 -7 -5.5 -12.5t-12.5 -5.5t-12.5 5.5t-5.5 12.5t-9 76q-5 35 -6 45t-1 16q-1 3 0 6v4q1 6 5 10q6 6 23 13l30 11q46 17 48 18q71 37 102 99t2 130
q-14 30 -38.5 45.5t-52 15t-55.5 -12.5q-42 -19 -60 -50q-17 -30 1 -56q4 -6 2.5 -13t-7.5 -11.5t-13 -3t-12 7.5zM147 53q-15 11 -34.5 16t-33.5 2q-6 0 -9 -2q2 -5 13 -13q8 -6 20 -11.5t18 -7.5l25 -9q19 -6 21 -6q22 34 26 61q4 23 -5 31q-6 7 -17 -1q-14 -9 -24 -37
q6 -3 12 -7q8 -6 2 -14t-14 -2z" />
    <glyph glyph-name="at" unicode="@" horiz-adv-x="633" 
d="M390 309v1q0 1 -0.5 4t-0.5 4q-1 8 1 14q3 8 10 12q-2 36 -29 73q-12 17 -27 19t-34 -10q-43 -28 -80 -99q-37 -74 -40 -140q-2 -69 39 -95q20 -12 41 0q22 12 45 47q31 46 61 127q12 31 14 43zM392 209q-23 -54 -47 -90q-28 -42 -57 -59q-40 -22 -79 2q-58 36 -55 126
q3 74 44 155q41 80 92 113q30 19 58 16q31 -4 53 -35q23 -33 30.5 -63.5t2.5 -70.5q-1 -7 -6 -12q-3 -64 0.5 -84t16.5 -43t29 -37q16 -13 30 -12q16 1 31 21q49 67 60 208q0 3 1 17t1.5 18t1 16t0.5 17v16q0 10 -0.5 16.5t-1.5 15t-3 16.5l-4 14q-29 88 -94 119
q-58 28 -137 9q-75 -19 -144 -71.5t-103 -116.5q-38 -72 -50.5 -147.5t4 -152.5t64.5 -139q59 -76 148 -102t175.5 5.5t136.5 113.5q3 7 10.5 8.5t14 -2t8 -11t-2.5 -13.5q-42 -71 -111 -109t-141.5 -39.5t-144.5 31.5t-121 96q-53 68 -71.5 153t-4.5 166.5t54 157.5
q38 72 113 129.5t157 77.5q92 22 161 -11q80 -38 113 -140q11 -35 11 -82t-4 -78q-11 -152 -68 -228q-25 -33 -57 -35q-28 -2 -55 21q-21 18 -37 46.5t-21 54.5q0 4 -1 8z" />
    <glyph glyph-name="A" unicode="A" horiz-adv-x="526" 
d="M143 270q167 12 256 13l-73 223q-1 3 -6 19q-4 16 -10 35.5t-12 36.5q-11 28 -20 42l-4 -10l-23 -60l-15 -42l-14 -37q-5 -14 -6 -16q-38 -95 -73 -204zM255 374q-3 15 -2 26q1 19 11 29q13 11 35 3q14 -5 24 -26q6 -15 10 -37q3 -19 2 -35q0 -9 -2 -14q-3 -10 -9 -13
q-14 -8 -46 -7q-28 1 -43 7q-26 9 -35 27q-9 20 4 35q18 20 51 5zM34 18q69 268 148 470q1 2 6 16l14 36l15 42l24 60q5 14 8 21q2 4 3 7q1 2 2 3q3 5 7 7q15 8 30 -2q9 -6 17 -18q11 -17 23 -51q6 -16 12.5 -36t10.5 -36q5 -15 6 -19q81 -249 91 -282q8 -23 31 -116
q18 -71 33 -112q2 -7 -1 -13.5t-10 -9t-13.5 0.5t-9.5 10q-14 38 -28 93q0 -3 -1 -6q-3 -16 -13 -36q-9 -17 -19 -30q-6 -7 -10 -10q-8 -7 -15 -6q-22 2 -50 29q-27 25 -34 46q-6 23 3 36q11 15 30.5 10.5t33.5 -26.5q6 14 13 23q12 15 26 16q15 2 27 -12q-18 73 -27 103
l-7 21q-91 0 -267 -13q-5 0 -10 3q-33 -107 -65 -227q-1 -8 -7.5 -11.5t-14 -2t-11 8t-1.5 13.5zM271 334q-14 13 -25.5 18t-16.5 4t-7 -3q-3 -3 0 -8q4 -10 21 -16q12 -4 36 -5q21 -1 31 3q1 3 1 8q1 14 -2 31q-3 18 -8 31q-5 11 -10 13q-4 1 -7 1.5t-3 -0.5h-1
q-3 -3 -3 -12q-1 -18 6 -41q1 -2 1 -4l3 -4q9 -8 0.5 -16.5t-16.5 0.5zM367 54q-3 20 -11.5 31.5t-16.5 13.5q-4 1 -5 0q-3 -5 1 -17q4 -14 26 -35q20 -18 34 -22q2 3 6 7q9 11 16 26q9 17 11 30q3 12 0 16q-2 4 -4 6l-3 1h-1q-4 0 -10 -7q-11 -14 -19 -38q0 -1 -1 -3
q0 -2 1 -5q2 -12 -10 -14t-14 10z" />
    <glyph glyph-name="B" unicode="B" horiz-adv-x="423" 
d="M67 630q0 -89 7 -224q4 0 13 1h8q5 0 8.5 0.5t5.5 0.5q163 18 220 82q10 11 11 17t-2 24q-5 29 -34.5 52t-77.5 37q-42 12 -87.5 14.5t-71.5 -4.5zM75 367q11 -233 12 -326q42 -12 105.5 -11.5t112.5 16.5q59 18 84 53q29 39 14 100q-15 58 -70 98.5t-127 60.5
q-37 10 -95 10h-28q-2 0 -8 -1zM147 112q-2 15 -1 27q2 19 13 27q14 11 36 1q13 -6 21 -27q6 -16 8 -38q2 -19 0 -35q-1 -8 -2 -14q-3 -9 -9 -13q-15 -7 -47 -3q-27 3 -43 9q-25 10 -33 29q-8 20 6 35q19 19 51 2zM252 538q13 8 24 11q18 6 30 1q16 -8 17 -31q1 -14 -15 -31
q-12 -12 -30 -23t-33 -16q-8 -3 -14 -4q-10 -1 -16 4q-7 5 -13 17q-5 10 -10 23q-11 28 -11 43q-1 27 13 42q15 16 34 9q25 -9 24 -45zM54 664q33 9 84 6.5t98 -16.5q54 -16 92 -45t46 -72q4 -26 1 -39q-4 -14 -20 -32q-43 -49 -136 -75q49 -13 90.5 -35t78.5 -61t49 -88
q20 -76 -19 -129q-32 -45 -102 -67q-53 -16 -120 -17t-112 11q-6 -8 -15 -8q-7 0 -12.5 5.5t-5.5 12.5q0 105 -10 315.5t-10 316.5q0 7 5.5 12.5t12.5 5.5q3 0 5 -1zM160 71q-12 14 -23.5 19.5t-16.5 5t-7 -2.5q-3 -3 -1 -9q4 -9 21 -16q12 -5 36 -8q20 -2 30 1q1 3 1 8
q2 14 0 31q-2 19 -6 32q-5 11 -9 13t-7 2.5t-3 -0.5h-1q-3 -2 -4 -11q-2 -19 5 -42v-4l3 -3q8 -9 -1 -17t-17 1zM221 508q7 18 7 30.5t-3 16.5t-6 6q-4 1 -7 -3q-7 -8 -7 -26q0 -10 9 -35q5 -12 9 -20q3 -5 5 -8q4 0 9 2q13 5 28 14q16 10 26 20q8 9 8 12q-1 9 -4 11
q-3 1 -12 -1q-15 -6 -36 -21l-2 -2l-2 -4q-4 -12 -15.5 -7.5t-6.5 15.5z" />
    <glyph glyph-name="C" unicode="C" horiz-adv-x="465" 
d="M209 124q-3 15 -2 26q1 19 11 29q13 11 35 3q14 -5 24 -26q6 -15 10 -37q3 -19 2 -35q0 -9 -2 -14q-3 -10 -9 -13q-14 -8 -46 -7q-28 1 -43 7q-26 9 -35 27q-9 20 4 35q18 20 51 5zM413 507q-34 64 -72.5 97.5t-99.5 35.5q-70 3 -114 -47t-63 -136q-16 -82 -9.5 -164.5
t29.5 -136.5q36 -81 87 -113.5t102 -20.5t90.5 64.5t50.5 134.5q1 8 7 12.5t13.5 3.5t12 -7t3.5 -13q-13 -92 -59 -153.5t-110 -76.5q-65 -15 -127 24.5t-102 130.5q-27 59 -33.5 147.5t10.5 175.5q10 44 26.5 81t42 68t62.5 47.5t83 14.5q73 -3 119 -42.5t83 -110.5
q3 -6 1 -13.5t-8.5 -10.5t-14 -1t-10.5 9zM225 84q-14 13 -25.5 18t-16.5 4t-7 -3q-3 -3 0 -8q4 -10 21 -16q12 -4 36 -5q25 -1 31 2q1 3 1 9q1 14 -2 31q-3 18 -8 31q-5 11 -10 13q-4 1 -7 1.5t-3 -0.5h-1q-3 -3 -3 -12q-1 -18 6 -41q1 -2 1 -4l3 -4q9 -8 0.5 -16.5
t-16.5 0.5z" />
    <glyph glyph-name="D" unicode="D" horiz-adv-x="500" 
d="M87 661q102 10 188 -19q51 -17 114 -75q122 -110 126 -238q5 -131 -118 -239q-68 -58 -142 -82.5t-165 -19.5q-7 0 -12 6t-5 13t5 11q0 105 -10 314t-10 315q0 7 5.5 12.5t12.5 5.5q6 0 11 -4zM171 129q-3 15 -2 26q1 19 11 29q13 11 35 3q14 -5 24 -26q6 -15 10 -37
q3 -19 2 -35q0 -9 -2 -14q-3 -10 -9 -13q-14 -8 -46 -7q-28 1 -43 7q-26 9 -35 27q-2 6 -3 11q1 -40 1 -77q148 -2 259 95q110 96 106 210q-3 112 -114 213q-58 52 -102 67q-76 26 -169 18q1 -96 9 -272.5t10 -247.5q1 10 7 18q18 20 51 5zM187 89q-14 13 -25.5 18t-16.5 4
t-7 -3q-3 -3 0 -8q4 -10 21 -16q12 -4 36 -5q25 -1 31 2q1 3 1 9q1 14 -2 31q-3 18 -8 31q-5 11 -10 13q-4 1 -7 1.5t-3 -0.5h-1q-3 -3 -3 -12q-1 -18 6 -41q1 -2 1 -4l3 -4q9 -8 0.5 -16.5t-16.5 0.5z" />
    <glyph glyph-name="E" unicode="E" horiz-adv-x="454" 
d="M393 118q-3 15 -2 26q1 19 11 29q13 11 35 3q14 -5 24 -26q6 -15 10 -37q3 -19 2 -35q0 -9 -2 -14q-3 -10 -9 -13q-14 -8 -46 -7q-28 1 -43 7q-26 9 -35 27q-9 20 4 35q18 20 51 5zM156 466q13 6 24 8q19 3 31 -5q14 -10 11 -34q-2 -15 -21 -28q-13 -10 -34 -18
q-18 -7 -34 -10q-8 -1 -14 -1q-10 1 -15 6q-10 12 -16 44q-5 28 -3 44q4 27 20 39q17 13 35 3q23 -13 16 -48zM77 368q37 0 111.5 1t111.5 1q7 0 12.5 -5.5t5.5 -12.5t-5.5 -12.5t-12.5 -5.5q-37 0 -111.5 -1t-111.5 -1h-2q9 -198 10 -296q29 1 76 -1q66 -1 89 -1
q25 0 74.5 2t75 2.5t74.5 -0.5q7 0 12 -5.5t5 -13t-5.5 -12.5t-13.5 -5q-48 1 -73.5 0.5t-74 -2.5t-74.5 -2q-23 0 -90 1q-53 2 -84 0q-4 -2 -9 -2q-7 0 -12.5 5.5t-5.5 12.5q0 105 -10 315t-10 315v2q0 7 5.5 12.5t12.5 5.5q4 0 8 -2q59 0 178.5 -2t180.5 -2q7 0 12.5 -5.5
t5.5 -12.5t-5.5 -12.5t-12.5 -5.5q-61 0 -177.5 2t-171.5 2q1 -96 8 -259h4zM409 78q-14 13 -25.5 18t-16.5 4t-7 -3q-3 -3 0 -8q4 -10 21 -16q12 -4 36 -5q25 -1 31 2q1 3 1 9q1 14 -2 31q-3 18 -8 31q-5 11 -10 13q-4 1 -7 1.5t-3 -0.5h-1q-3 -3 -3 -12q-1 -18 6 -41
q1 -2 1 -4l3 -4q9 -8 0.5 -16.5t-16.5 0.5zM119 443q10 15 12.5 27.5t0.5 17t-4 5.5q-4 3 -9 -1q-8 -6 -10 -24q-2 -11 3 -36q4 -23 7 -30h1q3 0 9 1q14 2 30 8q17 7 28 15q10 8 11 13t0.5 7t-0.5 3l-1 1q-3 2 -13 0q-18 -3 -39 -15q-2 -1 -3 -2l-3 -4q-7 -10 -17 -3t-3 17z
" />
    <glyph glyph-name="F" unicode="F" horiz-adv-x="376" 
d="M179 444q-3 15 -2 26q1 19 11 29q13 11 35 3q14 -5 24 -26q6 -15 10 -37q3 -19 2 -35q0 -9 -2 -14q-3 -10 -9 -13q-14 -8 -46 -7q-28 1 -43 7q-26 9 -35 27q-9 20 4 35q18 20 51 5zM106 368q37 0 111.5 1t111.5 1q7 0 12.5 -5.5t5.5 -12.5t-5.5 -12.5t-12.5 -5.5
q-37 0 -111.5 -1t-111.5 -1h-2q10 -212 10 -317q0 -7 -5.5 -12.5t-12.5 -5.5t-12.5 5.5t-5.5 12.5q0 105 -10 315t-10 315v2q0 7 5.5 12.5t12.5 5.5q4 0 8 -2q59 0 178.5 -2t180.5 -2q7 0 12.5 -5.5t5.5 -12.5t-5.5 -12.5t-12.5 -5.5q-61 0 -177.5 2t-171.5 2q1 -96 8 -259
h4zM195 404q-14 13 -25.5 18t-16.5 4t-7 -3q-3 -3 0 -8q4 -10 21 -16q12 -4 36 -5q21 -1 31 3q1 3 1 8q1 14 -2 31q-3 18 -8 31q-5 11 -10 13q-4 1 -7 1.5t-3 -0.5h-1q-3 -3 -3 -12q-1 -18 6 -41q1 -2 1 -4l3 -4q9 -8 0.5 -16.5t-16.5 0.5z" />
    <glyph glyph-name="G" unicode="G" horiz-adv-x="500" 
d="M224 122q1 14 4 25q5 19 17 25q16 9 36 -4q12 -8 16 -31q3 -16 1 -38q-1 -20 -6 -35q-3 -9 -6 -14q-5 -8 -12 -11q-14 -4 -46 5q-26 8 -39 17q-23 14 -27 34q-5 21 11 33q22 16 51 -6zM516 216q-34 -129 -13 -198q2 -7 -1.5 -13.5t-10.5 -8.5t-13.5 1.5t-8.5 10.5
q-22 73 7 195l-20 -1q-15 -86 -60 -143t-107 -72q-65 -15 -127 24.5t-102 130.5q-27 59 -33.5 147.5t10.5 175.5q10 44 26.5 81t42 68t62.5 47.5t83 14.5q73 -3 119 -42.5t83 -110.5q3 -6 1 -13.5t-8.5 -10.5t-14 -1t-10.5 9q-34 64 -72.5 97.5t-99.5 35.5q-70 3 -114 -47
t-63 -136q-16 -82 -9.5 -164.5t29.5 -136.5q36 -81 87 -113.5t102 -20.5q48 12 85.5 58.5t52.5 120.5q-53 -2 -92 3q-8 1 -12.5 7t-3.5 13.5t7 12t13 3.5q16 -2 31 -3t33.5 -1t29 0.5t34 2t31.5 1.5q4 0 7 -1q3 0 7 -1q7 -1 10.5 -7.5t1.5 -14.5zM230 79q-11 16 -21 24
t-14.5 7t-7.5 -1q-3 -3 -2 -9q2 -10 16 -19q11 -7 34 -14q21 -6 31 -5l3 9q4 13 6 30q1 19 -1 32q-2 12 -7 15q-7 5 -10 4q-3 -2 -6 -11q-5 -19 -3 -42v-4l2 -4q7 -10 -3.5 -16.5t-16.5 4.5z" />
    <glyph glyph-name="H" unicode="H" horiz-adv-x="490" 
d="M353 453q-3 15 -2 26q1 19 11 29q13 11 35 3q14 -5 24 -26q6 -15 10 -37q3 -19 2 -35q0 -9 -2 -14q-3 -10 -9 -13q-14 -8 -46 -7q-28 1 -43 7q-26 9 -35 27q-9 20 4 35q18 20 51 5zM169 260q14 1 25 0q19 -3 28 -13q10 -14 1 -36q-6 -14 -28 -22q-15 -5 -37 -7
q-19 -2 -36 0q-8 1 -13 3q-10 3 -13 10q-7 15 -3 46q3 27 10 43q11 25 30 32q20 8 34 -7q18 -19 2 -49zM474 647q0 -106 10 -316.5t10 -315.5q0 -7 -5.5 -12.5t-12.5 -5.5t-12.5 5.5t-5.5 12.5q0 105 -10 320q-62 0 -184.5 -2t-182.5 -2q10 -214 10 -319q0 -7 -5.5 -12.5
t-12.5 -5.5t-12.5 5.5t-5.5 12.5q0 105 -10 315.5t-10 316.5q0 7 5.5 12.5t12.5 5.5t12.5 -5.5t5.5 -12.5q0 -103 8 -277q61 0 183.5 2t183.5 2q-8 173 -8 276q0 7 5.5 12.5t12.5 5.5t12.5 -5.5t5.5 -12.5zM369 413q-14 13 -25.5 18t-16.5 4t-7 -3q-3 -3 0 -8q4 -10 21 -16
q12 -4 36 -5q21 -1 31 3q1 3 1 8q1 14 -2 31q-3 18 -8 31q-5 11 -10 13q-4 1 -7 1.5t-3 -0.5h-1q-3 -3 -3 -12q-1 -18 6 -41q1 -2 1 -4l3 -4q9 -8 0.5 -16.5t-16.5 0.5zM127 246q14 12 19.5 23.5t5 16.5t-2.5 7q-2 3 -7 1q-10 -4 -17 -20q-6 -12 -8 -36q-3 -20 0 -31
q3 0 8 -1q14 -2 31 0q19 1 31 6q12 4 14 9q4 8 2 11q-3 3 -12 4q-18 2 -41 -4h-3l-4 -4q-9 -8 -17 1t1 17z" />
    <glyph glyph-name="I" unicode="I" horiz-adv-x="325" 
d="M77 120q-3 15 -2 26q1 19 11 29q13 11 35 3q14 -5 24 -26q6 -15 10 -37q3 -19 2 -35q0 -9 -2 -14q-3 -10 -9 -13q-14 -8 -46 -7q-28 1 -43 7q-26 9 -35 27q-9 20 4 35q18 20 51 5zM50 661q50 -4 131 -2q124 3 134 3q7 0 12.5 -5.5t5.5 -12.5t-5.5 -12.5t-12.5 -5.5
q-21 0 -122 -3q0 -34 -1.5 -105.5t-1.5 -127.5q0 -47 3 -105q10 -193 9 -246q60 0 121 -4q8 0 12.5 -6t4.5 -13.5t-6 -12t-13 -4.5q-66 4 -130 4q-3 -1 -7 -1t-7 1q-70 0 -135 -4q-7 0 -12.5 4.5t-6 12t4 13t12.5 6.5q60 4 126 4q1 51 -9 244q-3 58 -3 107q0 55 1.5 126.5
t1.5 105.5q-63 0 -109 3q-8 1 -13 6.5t-4 13t6.5 12.5t12.5 4zM93 80q-14 13 -25.5 18t-16.5 4t-7 -3q-3 -3 0 -8q4 -10 21 -16q12 -4 36 -5q25 -1 31 2q1 3 1 9q1 14 -2 31q-3 18 -8 31q-5 11 -10 13q-4 1 -7 1.5t-3 -0.5h-1q-3 -3 -3 -12q-1 -18 6 -41q1 -2 1 -4l3 -4
q9 -8 0.5 -16.5t-16.5 0.5z" />
    <glyph glyph-name="J" unicode="J" horiz-adv-x="403" 
d="M192 116q14 9 26 12q18 6 30 1q16 -8 17 -32q0 -13 -15 -29q-12 -12 -30 -23q-17 -12 -32 -17q-9 -3 -15 -3q-10 -1 -16 4q-17 13 -27 50t-3 57q7 23 22 29q17 7 30 -8q14 -15 13 -41zM147 665q59 -6 90 -5.5t91 4t94 3.5q7 0 12.5 -5.5t5.5 -12.5t-5.5 -12.5t-12.5 -5.5
q-25 0 -118 -5q12 -89 15 -286q2 -102 -2 -175q-4 -85 -16 -109q-23 -48 -72 -67.5t-100 -4.5q-51 14 -80 58q-10 15 -17 32q-6 17 -8.5 38.5t-3 32.5t0 37.5t0.5 30.5q0 7 5.5 12.5t12.5 5.5t12.5 -5.5t5.5 -12.5q0 -6 -0.5 -32.5t0 -35t2.5 -27.5t7 -31.5t13 -24.5
q22 -33 60.5 -44t75.5 3.5t54 50.5q8 17 12 95q4 69 2 172q-4 203 -15 285q-75 -2 -127 5q-7 1 -11.5 7t-3.5 13.5t7 12t14 3.5zM162 88q7 22 6 34.5t-6 18.5q-3 2 -4 2q-5 -2 -9 -15t4 -42q7 -28 17 -38h1l9 3q12 4 27 14q16 10 26 20q8 8 8 12q0 9 -3 10q-4 2 -13 -1
q-18 -6 -35 -21q-2 -2 -4 -2q-1 -3 -2 -5q-5 -11 -16 -6t-6 16z" />
    <glyph glyph-name="K" unicode="K" horiz-adv-x="486" 
d="M146 512q10 10 21 15q16 8 30 4q17 -4 23 -25q5 -13 -6 -32q-8 -15 -23 -30q-14 -15 -27 -24q-7 -5 -13 -8q-9 -3 -16 0q-19 9 -39 43q-19 34 -18 55q1 23 15 33q15 10 32 -1q14 -9 21 -30zM153 105q-3 15 -2 26q1 19 11 29q13 11 35 3q14 -5 24 -26q6 -15 10 -37
q3 -19 2 -35q0 -9 -2 -14q-3 -10 -9 -13q-14 -8 -46 -7q-28 1 -43 7q-26 9 -35 27q-9 20 4 35q18 20 51 5zM423 636l-30 -42q-16 -20 -36 -43l-32 -37q-13 -15 -38 -41l-36 -36l-38 -39l-36 -36q-13 -13 -53 -47l-18 -15l6 -5q16 -13 44 -34l133 -93q185 -126 223 -141
q7 -3 9.5 -10t0 -14t-9.5 -9.5t-14 -0.5q-41 18 -229 145l-134 94q-30 22 -46 35l-7 6q7 -159 7 -259q0 -7 -5.5 -12.5t-12.5 -5.5t-12.5 5.5t-5.5 12.5q0 105 -10 315.5t-10 316.5q0 7 5.5 12.5t12.5 5.5t12.5 -5.5t5.5 -12.5q0 -105 10 -322l22 19q38 33 50 45l36 36
l39 39l35 35q25 25 37 40l31 36q20 22 35 42l29 40q4 6 11.5 7.5t13.5 -2.5t7.5 -11.5t-2.5 -13.5zM125 472q3 19 -1.5 32t-11.5 18q-4 2 -5 1q-4 -3 -5 -15q-1 -13 15 -41q14 -24 26 -32q3 1 8 4q11 8 22 21q13 13 20 25q6 11 5 15q-3 7 -7 8q-5 1 -14 -3t-16 -12t-8 -13
q-1 -4 -3 -6q-1 -3 -1 -6q-2 -12 -14 -10t-10 14zM169 65q-14 13 -25.5 18t-16.5 4t-7 -3q-3 -3 0 -8q4 -10 21 -16q12 -4 36 -5q25 -1 31 2q1 3 1 9q1 14 -2 31q-3 18 -8 31q-5 11 -10 13q-4 1 -7 1.5t-3 -0.5h-1q-3 -3 -3 -12q-1 -18 6 -41q1 -2 1 -4l3 -4q9 -8 0.5 -16.5
t-16.5 0.5z" />
    <glyph glyph-name="L" unicode="L" horiz-adv-x="377" 
d="M131 120q-3 15 -2 26q1 19 11 29q13 11 35 3q14 -5 24 -26q6 -15 10 -37q3 -19 2 -35q0 -9 -2 -14q-3 -10 -9 -13q-14 -8 -46 -7q-28 1 -43 7q-26 9 -35 27q-9 20 4 35q18 20 51 5zM69 647q-6 -117 -3 -315q4 -237 2 -299q59 -5 162 -1q142 5 169 5q7 0 12.5 -5.5
t5.5 -12.5t-5.5 -12.5t-12.5 -5.5q-27 0 -168 -5q-107 -4 -170 1q-3 0 -5 1q-3 -1 -6 -1q-8 0 -13 5.5t-5 12.5q2 71 -2 316q-3 200 3 318q0 7 6 12t13 5t12 -6t5 -13zM147 80q-14 13 -25.5 18t-16.5 4t-7 -3q-3 -3 0 -8q4 -10 21 -16q12 -4 36 -5q25 -1 31 2q1 3 1 9
q1 14 -2 31q-3 18 -8 31q-5 11 -10 13q-4 1 -7 1.5t-3 -0.5h-1q-3 -3 -3 -12q-1 -18 6 -41q1 -2 1 -4l3 -4q9 -8 0.5 -16.5t-16.5 0.5z" />
    <glyph glyph-name="M" unicode="M" horiz-adv-x="638" 
d="M320 399q13 8 23 12q18 7 31 2q16 -7 17 -31q1 -16 -15 -33q-11 -12 -30 -24q-16 -10 -31 -16q-8 -3 -14 -3q-10 -2 -15 3q-13 9 -24 39q-11 26 -12 42q-2 27 12 43t33 10q27 -8 25 -44zM152 150q-3 15 -2 26q1 19 11 29q13 11 35 3q14 -5 24 -26q6 -15 10 -37
q3 -19 2 -35q0 -9 -2 -14q-3 -10 -9 -13q-14 -8 -46 -7q-28 1 -43 7q-26 9 -35 27q-9 20 4 35q18 20 51 5zM518 123q10 11 20 17q15 11 29 8q17 -4 23 -27q5 -14 -6 -34q-9 -15 -24 -30q-14 -14 -27 -23q-7 -4 -13 -6q-9 -4 -16 -1q-14 7 -32 33q-16 23 -21 39q-7 26 2 44
q11 19 31 17q26 -3 34 -37zM69 656q18 -33 49 -105l46 -105q29 -61 85.5 -170.5t77.5 -154.5q14 29 36 71q41 76 52 99l80 173q53 119 83 180q2 5 7 8q6 6 14 6q7 0 12.5 -5.5t5.5 -12.5q0 -106 10 -316.5t10 -315.5q0 -7 -5.5 -12.5t-12.5 -5.5t-12.5 5.5t-5.5 12.5
q0 103 -9 293t-10 267l-135 -293q-11 -25 -52 -100q-32 -61 -48 -99q-3 -6 -9 -9q-1 -1 -3 -2q-7 -3 -14 -0.5t-10 8.5q-28 59 -89 177q-57 111 -90 180q-10 21 -47 106l-17 39q-2 -57 -2 -249q0 -216 -4 -317q0 -7 -5.5 -12t-13 -5t-12.5 5.5t-5 13.5q4 100 4 315
q0 226 5 318v1q-2 13 10 19q6 3 13 1t11 -9zM289 369q7 17 7.5 30t-2.5 16.5t-6 4.5q-4 1 -8 -3q-7 -8 -6 -25q1 -12 10 -35q8 -20 14 -28q4 1 8 3q13 5 28 14q16 10 25 20q8 9 8 14t-1 7.5t-2 3.5q-3 1 -12 -2q-17 -7 -35 -23q-2 -2 -4 -2l-2 -5q-5 -11 -16 -6t-6 16z
M168 110q-14 13 -25.5 18t-16.5 4t-7 -3q-3 -3 0 -8q4 -10 21 -16q12 -4 36 -5q25 -1 31 2q1 3 1 9q1 14 -2 31q-3 18 -8 31q-5 11 -10 13q-4 1 -7 1.5t-3 -0.5h-1q-3 -3 -3 -12q-1 -18 6 -41q1 -2 1 -4l3 -4q9 -8 0.5 -16.5t-16.5 0.5zM494 86q4 20 0.5 31t-7 15t-6.5 4
q-4 1 -7 -4q-5 -9 1 -27q3 -11 17 -31q15 -23 18 -25q0 1 1 1q4 1 8 4q12 8 24 20q13 13 20 25q6 11 5 16q-2 4 -3.5 6.5t-2.5 2.5q-4 1 -11 -4q-15 -10 -29 -30q-1 -2 -3 -3q-1 -2 -1 -5q-2 -12 -14 -10t-10 14z" />
    <glyph glyph-name="N" unicode="N" horiz-adv-x="493" 
d="M354 438q-3 15 -2 26q1 19 11 29q13 11 35 3q14 -5 24 -26q6 -15 10 -37q3 -19 2 -35q0 -9 -2 -14q-3 -10 -9 -13q-14 -8 -46 -7q-28 1 -43 7q-26 9 -35 27q-9 20 4 35q18 20 51 5zM144 111q12 9 23 13q17 8 30 2q16 -6 18 -30q1 -15 -13 -32q-11 -13 -29 -25
q-16 -12 -30 -18q-8 -3 -14 -4q-10 -1 -16 3q-17 13 -30 49t-8 57q6 23 21 30q17 8 32 -5.5t16 -39.5zM65 648q27 -39 74 -116q58 -96 71 -115l74 -110l88 -128l76 -108q1 100 -4.5 293.5t-5.5 282.5q0 7 5.5 12.5t12.5 5.5t12.5 -5.5t5.5 -12.5q0 -84 6 -300.5t3 -332.5
q0 -8 -5.5 -13t-12.5 -5q-11 0 -16 9q-1 2 -2 3l-125 180q-89 127 -142 209q-14 22 -71 117l-45 71q-1 -24 -4 -84.5t-4 -92.5q-1 -67 -0.5 -201t-0.5 -200q0 -8 -5.5 -13t-13 -5t-12.5 5.5t-5 12.5q1 68 0.5 201t0.5 200q1 32 5 110.5t4 120.5q0 7 5.5 12.5t12.5 5.5
q6 0 11 -4q4 -2 7 -5zM370 398q-14 13 -25.5 18t-16.5 4t-7 -3q-3 -3 0 -8q4 -10 21 -16q12 -4 36 -5q21 -1 31 3q1 3 1 8q1 14 -2 31q-3 18 -8 31q-5 11 -10 13q-4 1 -7 1.5t-3 -0.5h-1q-3 -3 -3 -12q-1 -18 6 -41q1 -2 1 -4l3 -4q9 -8 0.5 -16.5t-16.5 0.5zM115 80
q6 23 4.5 35t-7.5 17q-3 3 -6 2q-4 -2 -7 -14q-4 -14 6 -43q10 -26 20 -36q4 1 9 3q12 5 26 14q15 11 23 21q9 10 8 15q0 4 -1 7t-2 3q-4 2 -12 -2q-17 -7 -34 -23q-1 -2 -3 -3l-2 -4q-4 -11 -15 -7t-7 15z" />
    <glyph glyph-name="O" unicode="O" horiz-adv-x="468" 
d="M432 229q17 70 17 146.5t-27 141.5q-1 3 -1 6q-28 52 -57 78q-55 49 -131.5 40.5t-118.5 -67.5q-34 -48 -48.5 -116.5t-11 -136t20.5 -128.5q26 -91 79 -134t111 -38q55 5 99.5 51.5t61.5 127.5v4l3 11q1 4 1 9q1 2 2 5zM463 512q16 -48 20 -102.5t-1.5 -99.5t-17.5 -102
q-16 -98 -70 -157t-125 -66q-74 -7 -137 45q-62 52 -91 153q-19 66 -23 136q-4 71 12.5 146.5t53.5 128.5q52 74 144 84q93 9 160 -51q36 -32 73 -103q3 -5 2 -12zM226 105q-3 15 -2 26q1 19 11 29q13 11 35 3q14 -5 24 -26q6 -15 10 -37q3 -19 2 -35q0 -9 -2 -14
q-3 -10 -9 -13q-14 -8 -46 -7q-28 1 -43 7q-26 9 -35 27q-9 20 4 35q18 20 51 5zM242 65q-14 13 -25.5 18t-16.5 4t-7 -3q-3 -3 0 -8q4 -10 21 -16q12 -4 36 -5q25 -1 31 2q1 3 1 9q1 14 -2 31q-3 18 -8 31q-5 11 -10 13q-4 1 -7 1.5t-3 -0.5h-1q-3 -3 -3 -12q-1 -18 6 -41
q1 -2 1 -4l3 -4q9 -8 0.5 -16.5t-16.5 0.5z" />
    <glyph glyph-name="P" unicode="P" horiz-adv-x="392" 
d="M77 330h1q68 -7 153 12q3 0 14 2.5t14.5 3t13 3t14 4t13 4t13.5 4.5l11 5q7 2 12.5 5t10.5 7q36 25 46 64t-7.5 77t-56.5 59q-103 57 -251 34q-4 -105 -1 -282v-2zM80 650q155 24 267 -38q48 -27 71 -76t10 -101t-61 -85q-7 -5 -15 -9l-15 -7q-7 -4 -17 -7l-16 -5
q-7 -2 -18.5 -5t-15.5 -4l-17 -3q-12 -3 -14 -4q-88 -19 -161 -12q3 -189 1 -279q0 -8 -5.5 -13t-13 -5t-12.5 5.5t-5 12.5q2 78 -2 316q-3 186 2 297v3q1 9 1 18q0 7 6 12t13 5q15 -1 17 -16zM164 431q14 6 25 9q19 4 30 -4q15 -9 13 -33q-1 -14 -19 -28q-13 -10 -32 -20
q-18 -9 -34 -12q-9 -2 -15 -2q-10 0 -16 6q-10 10 -17 42q-7 28 -6 43q2 27 18 41q17 14 35 5q24 -12 18 -47zM129 405q9 17 11 29.5t0 16.5t-5 5q-4 2 -9 -2q-8 -7 -9 -24q-1 -11 5 -36q5 -21 11 -29q3 0 9 1q13 3 29 11t27 17q10 8 10 11q0 4 -0.5 7t-0.5 4h-1q-3 2 -12 0
q-19 -4 -38 -17l-4 -2l-3 -4q-6 -10 -16 -4t-4 16z" />
    <glyph glyph-name="Q" unicode="Q" horiz-adv-x="506" 
d="M464 229q17 70 17 146.5t-27 141.5q-1 3 -1 6q-28 52 -57 78q-55 49 -131.5 40.5t-118.5 -67.5q-34 -48 -48.5 -116.5t-11 -136t20.5 -128.5q26 -91 79 -134t111 -38q36 3 68 24q-25 43 -31 96q-1 7 4 13t12 7t13 -4t7 -12q5 -43 23 -76q48 48 65 131v4l3 11q1 4 1 9
q1 2 2 5zM495 512q16 -48 20 -102.5t-1.5 -99.5t-17.5 -102q-18 -108 -83 -170q41 -49 121 -72q7 -2 10.5 -8.5t1.5 -13.5t-8.5 -10.5t-13.5 -1.5q-89 25 -139 84q-39 -26 -84 -31q-74 -7 -137 45q-62 52 -91 153q-19 66 -23 136q-4 71 12.5 146.5t53.5 128.5q52 74 144 84
q93 9 160 -51q36 -32 73 -103q3 -5 2 -12zM245 114q-3 15 -2 26q1 19 11 29q13 11 35 3q14 -5 24 -26q6 -15 10 -37q3 -19 2 -35q0 -9 -2 -14q-3 -10 -9 -13q-14 -8 -46 -7q-28 1 -43 7q-26 9 -35 27q-9 20 4 35q18 20 51 5zM261 74q-14 13 -25.5 18t-16.5 4t-7 -3
q-3 -3 0 -8q4 -10 21 -16q12 -4 36 -5q25 -1 31 2q1 3 1 9q1 14 -2 31q-3 18 -8 31q-5 11 -10 13q-4 1 -7 1.5t-3 -0.5h-1q-3 -3 -3 -12q-1 -18 6 -41q1 -2 1 -4l3 -4q9 -8 0.5 -16.5t-16.5 0.5z" />
    <glyph glyph-name="R" unicode="R" horiz-adv-x="456" 
d="M69 330q62 -6 137 12q105 24 140 80q29 46 1 98q-29 52 -104 81.5t-173 12.5q-4 -105 -1 -282v-2zM232 311q-9 -2 -18 -5q-78 -18 -144 -13q3 -188 1 -278q0 -8 -5.5 -13t-13 -5t-12.5 5.5t-5 12.5q2 80 -2 316q-3 182 2 290l-2 4q-1 7 2 13l1 11q0 7 6 12t13 5
q14 -1 17 -15q104 16 188 -18t118 -96q39 -70 -2 -134q-31 -49 -103 -78q53 -46 121 -141t100 -159q3 -7 1 -14t-9 -10t-14 -1t-10 9q-34 67 -106 165.5t-121 133.5q-1 2 -3 3zM276 473q12 9 22 14q18 8 30 3q17 -6 20 -29q2 -15 -12 -33q-10 -13 -28 -26q-15 -12 -30 -19
q-8 -4 -14 -5q-9 -2 -15 2q-8 4 -15 16q-6 9 -12 22q-12 26 -15 41q-4 27 8 44q14 17 33 12q27 -6 28 -42zM134 92q-3 15 -2 26q1 19 11 29q13 11 35 3q14 -5 24 -26q6 -15 10 -37q3 -19 2 -35q0 -9 -2 -14q-3 -10 -9 -13q-14 -8 -46 -7q-28 1 -43 7q-26 9 -35 27
q-9 20 4 35q18 20 51 5zM248 440q7 19 5 31t-5 16t-5 5q-5 1 -8 -4q-7 -8 -4 -25q2 -12 12 -35q6 -11 11 -19q3 -5 6 -7q3 0 8 3q12 6 26 16q15 11 23 22q8 9 7 14t-2 7.5t-1 3.5h-1q-3 1 -11 -2q-17 -8 -33 -26q-2 -2 -4 -3q-1 -2 -2 -5q-3 -11 -14.5 -7.5t-7.5 15.5z
M150 52q-14 13 -25.5 18t-16.5 4t-7 -3q-3 -3 0 -8q4 -10 21 -16q12 -4 36 -5q25 -1 31 2q1 3 1 9q1 14 -2 31q-3 18 -8 31q-5 11 -10 13q-4 1 -7 1.5t-3 -0.5h-1q-3 -3 -3 -12q-1 -18 6 -41q1 -2 1 -4l3 -4q9 -8 0.5 -16.5t-16.5 0.5z" />
    <glyph glyph-name="S" unicode="S" horiz-adv-x="448" 
d="M240 552q-3 15 -2 26q1 19 11 29q13 11 35 3q14 -5 24 -26q6 -15 10 -37q3 -19 2 -35q0 -9 -2 -14q-3 -10 -9 -13q-14 -8 -46 -7q-28 1 -43 7q-26 9 -35 27q-9 20 4 35q18 20 51 5zM360 136q14 9 25 14q18 7 30 2q16 -7 18 -31q1 -14 -13 -31q-11 -12 -29 -25
q-16 -12 -31 -18q-8 -3 -15 -4q-10 -1 -16 3q-18 13 -29 50q-12 35 -7 56q7 25 23 31q17 7 30 -10q12 -14 14 -37zM425 584q-21 31 -56.5 45t-75.5 11t-76 -23t-57 -51q-19 -28 -17 -50q3 -31 44 -60q19 -13 103 -59q36 -18 60.5 -34t53.5 -40.5t47.5 -55.5t26.5 -68
q12 -63 4 -96q-14 -59 -68.5 -89t-124.5 -33q-67 -2 -129 19t-92 61q-16 21 -24 49q-9 29 -10.5 49t-1.5 51q0 7 5.5 12.5t12.5 5.5t12.5 -5.5t5.5 -12.5q0 -44 5.5 -74t22.5 -53q24 -31 78 -49.5t114 -16.5q62 2 105.5 26.5t54.5 67.5q6 25 -6 80q-11 59 -54 97.5
t-115 77.5q-87 46 -107 60q-55 39 -59 86q-3 35 23 74t69 62.5t91 27.5q49 4 93 -14t72 -58q4 -6 2.5 -13.5t-7.5 -11.5t-13.5 -2.5t-11.5 7.5zM256 512q-14 13 -25.5 18t-16.5 4t-7 -3q-3 -3 0 -8q4 -10 21 -16q12 -4 36 -5q21 -1 31 3q1 3 1 8q1 14 -2 31q-3 18 -8 31
q-5 11 -10 13q-4 1 -7 1.5t-3 -0.5h-1q-3 -3 -3 -12q-1 -18 6 -41q1 -2 1 -4l3 -4q9 -8 0.5 -16.5t-16.5 0.5zM332 106q6 18 4 31t-8 21l-4 3q-4 -2 -7 -15q-4 -14 5 -43q9 -27 20 -36q3 0 9 2q12 5 26 16q15 10 24 21q8 9 8 13t-1 7t-2 3l-1 1q-3 1 -11 -2q-16 -7 -35 -24
q-1 -1 -3 -2l-2 -4q-4 -12 -15.5 -7.5t-6.5 15.5z" />
    <glyph glyph-name="T" unicode="T" horiz-adv-x="494" 
d="M345 532q-3 15 -2 26q1 19 11 29q13 11 35 3q14 -5 24 -26q6 -15 10 -37q3 -19 2 -35q0 -9 -2 -14q-3 -10 -9 -13q-14 -8 -46 -7q-28 1 -43 7q-26 9 -35 27q-9 20 4 35q18 20 51 5zM361 492q-14 13 -25.5 18t-16.5 4t-7 -3q-3 -3 0 -8q4 -10 21 -16q12 -4 36 -5
q21 -1 31 3q1 3 1 8q1 14 -2 31q-3 18 -8 31q-5 11 -10 13q-4 1 -7 1.5t-3 -0.5h-1q-3 -3 -3 -12q-1 -18 6 -41q1 -2 1 -4l3 -4q9 -8 0.5 -16.5t-16.5 0.5zM37 667q195 -17 475 11q8 1 13.5 -4t6.5 -12.5t-4 -13t-12 -6.5q-130 -13 -229 -16v-2q-6 -114 -3 -308
q4 -239 2 -309q0 -8 -5.5 -13t-13 -5t-12.5 5.5t-5 12.5q2 70 -2 309q-3 194 3 309q-114 -3 -218 6q-7 1 -12 6.5t-4 13t6.5 12.5t13.5 4z" />
    <glyph glyph-name="U" unicode="U" horiz-adv-x="501" 
d="M235 105q1 15 5 26q6 18 18 24q16 9 35 -5q12 -9 16 -31q2 -17 0 -38q-2 -20 -7 -35q-3 -8 -6 -13q-5 -9 -12 -11q-15 -4 -46 6q-26 8 -40 17q-22 16 -26 36q-4 21 13 32q22 14 50 -8zM65 655q2 -37 0 -125q-3 -132 -3 -153q0 -189 35 -250q18 -33 75 -77
q26 -20 68.5 -29.5t73.5 -1.5q60 17 94 92q28 65 40 178q7 69 7 200q0 132 2 158q1 8 6.5 13t13 4t12.5 -6.5t4 -12.5q-2 -25 -2 -156q0 -135 -7 -204q-12 -118 -43 -189q-41 -91 -117 -111q-40 -11 -90.5 0.5t-83.5 36.5q-63 48 -85 87q-39 70 -39 268q0 22 3 153
q2 87 0 123q0 7 5 13t12 6t13 -5t6 -12zM240 62q-10 16 -20 24t-15 7.5t-7 -0.5q-4 -2 -3 -8q2 -10 17 -20q10 -7 33 -14q21 -7 31 -6q1 3 3 8q4 13 6 30q2 19 0 32q-2 12 -6 15t-6 4l-3 1l-1 -1q-3 -2 -6 -11q-6 -17 -5 -42v-3l2 -4q6 -10 -4 -16t-16 4z" />
    <glyph glyph-name="V" unicode="V" horiz-adv-x="510" 
d="M391 604q1 14 4 25q6 19 18 25q15 8 35 -5q12 -9 16 -31q3 -16 1 -38q-1 -19 -6 -35q-3 -8 -6 -13q-5 -9 -12 -11q-15 -4 -46 6q-26 8 -40 17q-22 16 -26 35q-5 22 12 33q23 14 50 -8zM269 329q14 7 26 9q19 4 30 -4q15 -10 12 -33q-2 -15 -19 -29q-14 -10 -33 -19
q-18 -8 -34 -11q-9 -2 -15 -2q-9 0 -14 6q-16 15 -21 54q-4 37 5 57q10 23 26 27q18 4 30 -13q10 -17 7 -42zM77 652l35 -116l44 -138q18 -58 39 -116q68 -188 80 -227q134 377 240 600q3 6 10 8.5t13.5 -0.5t9 -10t-0.5 -14q-108 -228 -255 -645q-3 -7 -10 -11q-2 -1 -4 -1
q-7 -2 -13.5 1.5t-8.5 10.5q-9 33 -22 72.5t-22 63.5l-27 74l-24 66q-20 54 -39 116l-44 139l-35 117q-2 7 1 13.5t10.5 8.5t14 -1t8.5 -11zM396 561q-10 16 -20 24t-14.5 7.5t-7.5 -0.5q-3 -2 -2 -8q2 -10 17 -20q11 -8 33 -15q21 -6 31 -5q1 3 3 8q4 13 5 30q2 19 0 32
q-3 12 -7 15q-3 3 -6 4t-3 0h-1q-3 -2 -6 -11q-5 -17 -3 -41q0 -3 -1 -5l2 -3q6 -10 -4 -16t-16 4zM235 304q10 17 10.5 33.5t-3.5 20.5l-4 2q-5 -1 -10 -13q-6 -14 -3 -44q3 -27 12 -39q3 0 9 1q13 3 29 10q17 7 28 16q10 8 10.5 12.5t0 7t-1.5 3.5v1q-3 1 -12 0
q-17 -4 -39 -17q-1 -1 -3 -2q-1 -2 -3 -4q-6 -10 -16 -4t-4 16z" />
    <glyph glyph-name="W" unicode="W" horiz-adv-x="847" 
d="M421 294q-3 15 -2 26q1 19 11 29q13 11 35 3q14 -5 24 -26q6 -15 10 -37q3 -19 2 -35q0 -9 -2 -14q-3 -10 -9 -13q-14 -8 -46 -7q-28 1 -43 7q-26 9 -35 27q-9 20 4 35q18 20 51 5zM670 574q4 15 10 25q9 17 22 21q17 5 34 -13q10 -10 9 -33q0 -17 -6 -37q-6 -19 -14 -33
q-4 -8 -8 -12q-7 -7 -14 -8q-22 -2 -55 20q-30 20 -40 40q-11 22 -3 37q8 16 29 14q19 -3 36 -21zM212 437q6 14 12 24q11 16 24 19q17 3 32 -15q9 -11 7 -33q-2 -17 -9 -37q-7 -19 -16 -33q-5 -7 -10 -12q-8 -6 -15 -6q-16 1 -43 18q-23 15 -33 27q-17 21 -16 41
q2 22 21 28q25 9 46 -21zM81 655q12 -42 30 -121l26 -114l49 -179q34 -119 49 -178l88 269q65 199 115 311q3 7 9.5 9.5t13.5 -0.5q10 -4 11 -14v-1q16 -58 41.5 -166.5t36.5 -151t35 -124t34 -121.5q1 3 82 260q63 200 113 321q3 7 10 9.5t14 0t9.5 -9.5t0.5 -14
q-51 -119 -113 -318q-80 -258 -100 -314q0 -9 -6 -15q-8 -9 -20 -5q-7 2 -10 8.5t-1 13.5q-13 57 -42 159q-29 98 -40 140q-13 50 -33 136q-21 90 -33 135q-39 -96 -93 -260l-103 -314q-3 -10 -14 -12q-2 -2 -6 -2q-7 -2 -13.5 1.5t-7.5 11.5q-19 74 -57.5 211t-52.5 195
q-9 33 -27 112t-29 121q-2 7 1.5 13.5t10.5 8.5t13.5 -1.5t8.5 -10.5zM437 254q-14 13 -25.5 18t-16.5 4t-7 -3q-3 -3 0 -8q4 -10 21 -16q12 -4 36 -5q25 -1 31 2q1 3 1 9q1 14 -2 31q-3 18 -8 31q-5 11 -10 13q-4 1 -7 1.5t-3 -0.5h-1q-3 -3 -3 -12q-1 -18 6 -41q1 -2 1 -4
l3 -4q9 -8 0.5 -16.5t-16.5 0.5zM667 532q-7 18 -17.5 28t-18.5 11l-5 -1q-2 -4 4 -16q7 -14 32 -30q23 -15 37 -16q2 2 5 8q7 11 12 28t5 31q1 12 -3 16q-3 3 -5.5 4.5t-3.5 1.5h-1q-3 -1 -7 -9q-9 -16 -12 -41q0 -1 -1 -3q1 -2 1 -4q4 -11 -7 -15t-15 7zM205 394
q-5 19 -12.5 29.5t-12 12t-7.5 0.5q-4 -2 -4 -8q-1 -10 10 -23q8 -10 28 -23q19 -12 29 -14q3 3 6 7q7 11 13 28t8 31q1 12 -1 15q-3 4 -6 5l-2 2h-1q-4 -1 -9 -9q-10 -15 -15 -39q-1 -2 -2 -3q1 -2 2 -5q3 -11 -8.5 -14.5t-15.5 8.5z" />
    <glyph glyph-name="X" unicode="X" horiz-adv-x="508" 
d="M366 66q-8 13 -11 24q-6 19 0 31q8 15 32 15q17 0 33 -17q12 -12 22 -32q9 -17 13 -33q2 -7 3 -13q1 -10 -4 -15q-5 -6 -18 -12l-23 -9q-28 -9 -43 -9q-25 -1 -41 13t-9 34q7 18 30 22q8 2 16 1zM300 509q8 13 17 21q14 13 28 12q17 -1 28 -23q6 -12 -2 -33
q-6 -16 -18 -34q-12 -16 -24 -27q-6 -6 -12 -9q-9 -5 -16 -3q-21 6 -45 37q-23 31 -25 51q-2 24 10 35q12 13 31 5q18 -9 28 -32zM540 629q-23 -25 -45 -53t-52 -70l-42 -58l-81 -111l89 -125l68 -93q42 -58 67 -99q3 -6 1.5 -13.5t-8 -11t-14 -2t-11.5 8.5q-22 37 -64 95
l-69 95l-81 115l-226 -307q-4 -6 -11.5 -7t-13.5 3.5t-7 12t4 13.5l232 316q-131 184 -200 303q-3 6 -1 13.5t8 11t13.5 1.5t11.5 -8q67 -117 190 -291l75 102q10 13 40.5 56t53.5 72.5t47 54.5q5 6 12.5 6t13 -5t5.5 -12.5t-5 -12.5zM395 34q-25 10 -41 8q-9 -2 -11 -7
q-1 -2 0 -5t7.5 -6.5t19.5 -3.5q11 0 36 8q12 4 20 8q5 2 8 4q-1 3 -2 8q-4 14 -11 28q-9 17 -18 27q-9 9 -16 9q-4 0 -7 -0.5t-3 -1.5l-1 -1q-1 -3 2 -11q5 -18 20 -36q2 -2 2 -4l5 -2q11 -5 6 -16t-16 -6zM283 470q0 20 -6.5 32.5t-14.5 16.5q-4 1 -5 0q-3 -3 -2 -16
t20 -38q18 -22 31 -28q3 2 7 6q10 9 20 23q11 15 16 28q4 11 2 15q-4 9 -7.5 9t-10.5 -6q-13 -12 -24 -34q-1 -2 -2 -3v-5q0 -12 -12 -12t-12 12z" />
    <glyph glyph-name="Y" unicode="Y" horiz-adv-x="449" 
d="M256 468q7 13 15 22q13 15 26 16q18 2 30 -19q7 -12 1 -33q-5 -16 -15 -35t-21 -31q-5 -6 -10 -10q-8 -6 -16 -5q-15 3 -40 24q-21 20 -29 34q-14 23 -8 42q5 21 25 24q26 3 42 -29zM484 634q-26 -40 -97 -180l-227 -445q-3 -7 -10 -9t-14 1t-9 10t1 14l125 245l-71 111
l-88 144l-68 113q-4 6 -2.5 13t8 11t13.5 2.5t11 -8.5l66 -108l82 -134l67 -108l84 164q74 145 99 184q4 6 11.5 7.5t13.5 -2.5t7.5 -11.5t-2.5 -13.5zM242 428q-2 18 -8 29.5t-10 13.5t-7 2q-4 -1 -5 -6q-3 -10 5 -24q7 -11 25 -28q16 -14 26 -18q3 3 6 7q9 10 18 26
q9 17 13 30q3 12 2 15q-2 3 -4 5t-3 2q-4 0 -11 -8q-14 -15 -21 -35q-1 -3 -3 -5q1 -2 1 -4q1 -12 -11 -13t-13 11z" />
    <glyph glyph-name="Z" unicode="Z" horiz-adv-x="498" 
d="M222 141q-3 15 -2 26q1 19 11 29q13 11 35 3q14 -5 24 -26q6 -15 10 -37q3 -19 2 -35q0 -9 -2 -14q-3 -10 -9 -13q-14 -8 -46 -7q-28 1 -43 7q-26 9 -35 27q-9 20 4 35q18 20 51 5zM271 491q9 13 18 20q14 13 28 12q17 -1 27 -23q6 -14 -3 -35q-6 -15 -19 -33
q-12 -16 -24 -26q-7 -6 -12 -9q-9 -5 -16 -2q-15 5 -36 28q-18 21 -25 36q-11 25 -5 44q8 20 28 21q27 0 39 -33zM188 373q39 -2 102 3l73 97l35 47l44 58q19 26 38 48q-59 0 -194 -2t-207 -2q-7 0 -12.5 5.5t-5.5 12.5t5.5 12.5t12.5 5.5q73 0 219.5 2t219.5 2
q7 0 12.5 -5.5t5.5 -12.5q0 -3 -1 -6q-1 -6 -5 -10q-22 -24 -44 -52l-53 -69l-42 -56l-54 -72q55 4 89 4q7 0 12.5 -5.5t5.5 -12.5t-5.5 -12.5t-12.5 -5.5q-34 0 -117 -6l-229 -305q63 0 203.5 1.5t214.5 1.5q7 0 12.5 -5.5t5.5 -12.5t-5.5 -12.5t-12.5 -5.5
q-75 0 -225 -1.5t-225 -1.5q-7 0 -12.5 5.5t-5.5 12.5v4q-1 8 4 14l228 302q-43 -2 -76 -1q-7 0 -12 5.5t-5 13t5.5 12.5t13.5 5zM238 101q-14 13 -25.5 18t-16.5 4t-7 -3q-3 -3 0 -8q4 -10 21 -16q12 -4 36 -5q25 -1 31 2q1 3 1 9q1 14 -2 31q-3 18 -8 31q-5 11 -10 13
q-4 1 -7 1.5t-3 -0.5h-1q-3 -3 -3 -12q-1 -18 6 -41q1 -2 1 -4l3 -4q9 -8 0.5 -16.5t-16.5 0.5zM253 452q0 19 -4.5 30.5t-8.5 14.5t-7 3q-4 0 -6 -5q-3 -10 4 -26q5 -11 21 -30q14 -15 23 -20q3 1 7 5q10 9 21 23q11 15 16 27t3 16t-3.5 6.5t-2.5 2.5h-1q-4 1 -10 -6
q-14 -12 -25 -34q-1 -2 -3 -3v-4q0 -12 -12 -12t-12 12z" />
    <glyph glyph-name="bracketleft" unicode="[" horiz-adv-x="412" 
d="M123 318q0 26 15.5 40.5t35.5 11.5q21 -4 29.5 -25.5t-0.5 -56.5q-3 -10 -13 -25q-10 -16 -12 -21t-8 -6q-5 -4 -10 -1q-4 2 -53 15q-42 12 -53 30q-10 17 -1 32q7 14 24 18q25 5 46 -12zM332 120q6 7 13 11q29 18 52 7q22 -11 21 -38q0 -27 -26 -51t-74 -35q-1 0 -13 -6
q-14 -6 -24 -2q-3 1 -5 4q-1 1 -1 2q-1 2 -2 5l-5 13q-1 4 -2.5 8.5t-2 7t-0.5 3.5q-20 55 -15 87q4 33 30 36q18 2 33.5 -13t20.5 -39zM85 -35q-5 10 -7 19q-5 18 2 28q10 13 32 8q13 -3 22 -20q8 -13 13 -31q4 -18 2 -32q-2 -20 -16 -24q-29 -9 -53 -3.5t-35 19.5
q-7 8 -6 16q0 10 11 16t35 4zM163 648q11 26 34 38q22 12 41 4q22 -9 30 -38q4 -10 2.5 -24.5t-2.5 -23t-7 -21.5t-10 -20.5t-11 -19.5q-14 -23 -19.5 -33t-11.5 -28.5t-5 -34.5q0 -3 -1 -6q-1 -7 -8 -8q-10 -2 -12 8q-5 27 -20.5 44.5t-42.5 34.5q-1 1 -13.5 9t-16.5 11
l-13 10q-10 7 -14.5 12t-10.5 13.5t-9 16.5q-11 27 10 51q18 22 46 28q33 7 54 -12q6 -5 10 -11zM175 616q3 -13 3 -28q0 -10 -10 -10t-10 10q0 7 -1 14q-1 2 -1 4q0 4 -1 8q-4 20 -15 30q-14 13 -36 8t-36 -21q-13 -16 -7 -31l6 -12q3 -5 8 -10l9 -8q3 -4 10.5 -9
t10.5 -7.5t13 -8.5t13 -8q41 -27 57 -53q7 21 35 70q17 29 24 50t1 42q-5 21 -17 26q-11 4 -24 -4q-13 -7 -22 -21t-10 -31zM314 100q1 23 -11 38t-23 14q-10 -1 -13 -18q-4 -28 14 -79q1 0 1.5 -2.5t2 -7.5t2.5 -9q3 -7 4 -11v-1q2 1 5 2q15 7 18 8q43 9 63.5 28.5
t20.5 37.5q1 15 -10 20q-13 6 -33 -7q-5 -3 -12 -11q-10 -13 -14 -17q-8 -6 -15 1q-5 7 0 13v1z" />
    <glyph glyph-name="backslash" unicode="\" horiz-adv-x="335" 
d="M64 719q-2 -9 7 -38q7 -26 23 -66l27 -66q17 -39 22 -52l60 -155l64 -166q24 -62 54 -152q29 -83 52 -165q2 -7 -1.5 -13.5t-10.5 -8.5t-13.5 1.5t-8.5 10.5q-22 76 -52 165t-54 152l-64 164l-60 155l-21 51l-27 66q-17 41 -25 69q-10 36 -8 54q1 7 7 11.5t13.5 3.5
t12 -7t3.5 -14z" />
    <glyph glyph-name="bracketright" unicode="]" horiz-adv-x="297" 
d="M197 309q19 41 48.5 61.5t56.5 13.5q17 -3 27 -16.5t10 -34.5q1 -43 -41 -102q-46 -64 -88 -74q-4 -1 -7 1q-41 -2 -92 40q-52 43 -57 86q-5 40 29 59q23 15 56 6t58 -40zM202 261q-3 -10 -12.5 -7.5t-7.5 11.5l6 22q-14 22 -33 33.5t-34.5 11t-27.5 -6.5
q-23 -12 -19 -39q4 -35 49 -72q49 -40 83 -35q3 0 5 -1q33 11 71 64.5t37 90.5q0 27 -22 32q-19 4 -45 -15t-42 -61q5 -9 9 -18t-5 -13q-7 -3 -12 3z" />
    <glyph glyph-name="asciicircum" unicode="^" horiz-adv-x="418" 
d="M59 409q7 7 11.5 14t7 12t7.5 17l9 21q45 98 109 181v1q3 6 3 7q3 6 8 9q9 8 21 4q9 -3 22 -18q9 -11 22 -30l56 -86q38 -58 61 -90q32 -43 51 -56q6 -4 7.5 -11.5t-2.5 -13.5t-11.5 -7.5t-13.5 2.5q-23 16 -60 65q-26 35 -63 92l-55 85q-11 16 -18 25q-61 -80 -105 -175
l-7 -17q-5 -13 -8.5 -20.5t-10.5 -17.5t-17 -19q-5 -5 -12.5 -5t-12.5 5.5t-5 13t6 12.5z" />
    <glyph glyph-name="underscore" unicode="_" horiz-adv-x="621" 
d="M22 -91q73 -2 304 -16q39 -2 157 -2q99 0 159 -7q8 -1 12.5 -7t3.5 -13.5t-7 -12t-13 -3.5q-58 7 -155 7q-119 0 -159 2q-231 14 -304 16q-7 0 -12 5.5t-5 13t5.5 12.5t13.5 5z" />
    <glyph glyph-name="grave" unicode="`" horiz-adv-x="156" 
d="M68 714q13 -20 30 -43t25 -33t36 -42t31 -35q5 -6 4 -13.5t-6.5 -12.5t-13 -4t-12.5 6l-25 29l-28 32q-9 11 -23 29l-26 35q-12 16 -22 32q-4 7 -2.5 14t8 11t13.5 2.5t11 -7.5z" />
    <glyph glyph-name="a" unicode="a" horiz-adv-x="360" 
d="M304 343q-3 7 -7.5 19.5t-5.5 16.5q-11 28 -26 44q-23 24 -49 25q-23 1 -48 -17q-25 -16 -44.5 -44t-28.5 -55q-17 -54 -18.5 -111t14.5 -110q7 -20 23 -39t34 -29q41 -24 72 1q30 23 52 86q17 51 25.5 112t6.5 101zM343 321q-9 -66 -7 -147q2 -55 9 -92q8 -40 21 -52
q6 -5 6 -12.5t-5 -13t-12.5 -5.5t-12.5 5q-22 20 -32 71q-4 17 -6 38q-25 -68 -61 -97q-50 -40 -113 -5q-24 14 -44 38t-29 50q-19 61 -17 123t21 120q10 33 33.5 66t52.5 53q35 24 70 23q41 -2 74 -37q20 -20 33 -55l12 -32l1 -1q13 -6 10 -20l-1 -2q3 -8 -3 -16zM173 148
q3 15 8 25q8 17 21 22q16 6 34 -10q12 -10 12 -33q1 -17 -5 -38q-4 -19 -11 -34l-7 -12q-6 -8 -13 -9q-9 -1 -22 3q-10 3 -23 9q-26 12 -38 22q-20 18 -22 38q-1 22 17 31q24 13 49 -14zM172 104q-8 18 -17 28t-13.5 9.5t-6.5 -0.5q-4 -2 -4 -8q1 -11 14 -22q9 -8 32 -18
q11 -5 20 -8q5 -2 9 -2q2 3 4 7q6 13 10 30q4 18 4 31t-4 16q-7 6 -10 5q-4 -1 -8 -9q-7 -16 -9 -41q0 -2 -1 -4l2 -4q5 -11 -6 -16t-16 6z" />
    <glyph glyph-name="b" unicode="b" horiz-adv-x="431" 
d="M91 131q5 -4 6 -10q10 -60 51 -83q37 -22 89 -10.5t94 49.5t52 87q19 88 -14 155t-93 96q-57 27 -107 9q-52 -18 -72 -81q-2 -86 -5 -163q-1 -17 -1 -49zM61 348q3 130 3 375q0 7 5.5 12.5t12.5 5.5t12.5 -5.5t5.5 -12.5q0 -197 -2 -304q25 27 59 39q64 23 135 -11
t109.5 -112t17.5 -179q-13 -60 -63 -105t-111 -59q-66 -14 -115 14q-24 14 -40 37q-3 -30 -10 -55q-1 -7 -7.5 -10.5t-14 -2t-11 8t-1.5 14.5q7 26 9 58.5t0.5 60.5t0.5 65q3 76 5 161v5zM186 105q-3 15 -2 26q0 19 11 28q13 12 35 3q14 -5 23 -26q7 -15 10 -36q3 -20 2 -36
q0 -9 -2 -14q-3 -10 -9 -13q-14 -8 -46 -6q-28 1 -43 7q-26 10 -35 28q-9 20 5 35q19 19 51 4zM200 64q-13 13 -24 18.5t-16 4.5t-7 -3q-3 -3 -1 -8q4 -9 21 -16q12 -4 36 -5q22 -2 31 2q1 3 2 8q0 14 -2 31q-3 18 -9 30q-5 12 -9 14q-5 2 -7 2h-4v-1q-3 -2 -3 -11
q-1 -18 6 -41q1 -3 1 -6l3 -3q8 -8 -0.5 -16.5t-17.5 0.5z" />
    <glyph glyph-name="c" unicode="c" horiz-adv-x="379" 
d="M181 119q2 15 6 25q7 18 20 23q16 7 34 -8q12 -9 15 -32q2 -16 -2 -38q-3 -19 -9 -34q-3 -8 -7 -13q-5 -8 -12 -10q-9 -2 -22 2q-11 2 -24 7q-26 10 -38 20q-22 16 -25 37q-3 22 15 32q23 13 49 -11zM334 306q-14 86 -60 120q-39 28 -89 11q-51 -18 -88.5 -79t-36.5 -148
q1 -75 40.5 -125.5t93 -60t98.5 28t60 126.5q1 7 7.5 11.5t13.5 3.5t11.5 -7.5t3.5 -13.5q-17 -102 -74 -149q-57 -48 -127 -35q-67 12 -115 73q-47 60 -48 148q-1 96 42 167t107 94q68 24 122 -16q58 -43 75 -143q1 -7 -3.5 -13.5t-11.5 -7.5t-13.5 3.5t-7.5 11.5zM183 75
q-8 17 -17.5 26t-14 8.5t-7.5 -0.5q-4 -2 -3 -8q1 -11 15 -22q10 -7 33 -16q11 -4 20 -6q6 -1 9 -1q2 2 4 8q5 12 8 29q3 18 2 32q-1 12 -5 16q-4 2 -6.5 3t-3.5 1h-1q-3 -1 -6 -10q-7 -17 -7 -41q0 -2 -1 -4l3 -5q5 -11 -6 -16t-16 6z" />
    <glyph glyph-name="d" unicode="d" horiz-adv-x="405" 
d="M253 145q11 11 21 17q16 11 29 8q17 -4 24 -27q4 -14 -7 -34q-9 -15 -24 -30q-14 -14 -28 -23q-7 -4 -12 -6q-9 -4 -16 -1q-14 6 -32 33q-16 24 -21 39q-7 26 2 44q10 20 31 17q26 -3 33 -37zM405 715q-25 -210 -14 -519q0 -8 1 -31t1.5 -32t1.5 -28.5t2.5 -31t4.5 -27.5
t6 -30q2 -8 -1.5 -14.5t-11 -8t-14 2t-7.5 10.5q-9 34 -13 75q-29 -46 -71.5 -68t-89.5 -20q-62 2 -111.5 43.5t-62.5 110.5q-8 45 5 103q12 59 42 110q32 55 78 88q46 32 101 27q24 -3 35 -4.5t31 -8.5t34 -19q2 149 17 276q1 8 7 12.5t13.5 3.5t12 -7t3.5 -13zM351 330
q-1 8 -2 21l-1 19q-2 20 -8 30q-11 21 -31.5 28t-60.5 11q-41 4 -78.5 -22.5t-65.5 -74.5q-27 -46 -39 -98q-11 -52 -3 -91q10 -55 49.5 -88.5t89.5 -35.5q51 -2 94 30.5t61 101.5v1q-1 26 -1 32q-3 73 -3 135q-1 0 -1 1zM230 108q4 20 0.5 31.5t-7 15t-6.5 3.5q-4 1 -7 -4
q-5 -9 1 -27q3 -11 17 -31q12 -18 20 -24q3 2 7 4q12 8 24 20q13 13 20 25q6 11 4 16q-1 4 -2.5 6.5t-2.5 2.5v1q-4 0 -11 -5q-15 -10 -29 -30l-3 -3q-1 -2 -1 -5q-2 -12 -14 -10t-10 14z" />
    <glyph glyph-name="e" unicode="e" horiz-adv-x="400" 
d="M340 287q1 9 -3 23q-2 6 -4.5 12.5t-4.5 13t-3 8.5q-16 48 -58 71.5t-90.5 15t-80.5 -47.5q-34 -42 -40 -104q113 -2 154 -2q62 1 96 4q20 2 30 5q2 1 4 1zM54 243q0 -80 23 -121t60.5 -63.5t77.5 -21.5q41 0 74.5 24t49.5 70q3 7 9.5 10t13.5 0.5t10 -9t1 -13.5
q-20 -57 -62.5 -87.5t-94.5 -30.5q-51 -1 -97 26.5t-74 76.5q-29 52 -27 148q1 94 50 153q41 50 102 61t114.5 -19t74.5 -91q1 -2 3 -9l6 -14q2 -7 3 -13q9 -32 2 -50q-4 -8 -13 -13q-6 -3 -14 -6q-13 -3 -36 -6q-36 -3 -100 -4q-38 0 -156 2zM165 138q4 16 9 26q8 17 21 22
q16 5 34 -10q12 -10 13 -33q0 -17 -5 -38q-5 -19 -12 -34l-7 -12q-6 -8 -13 -9q-11 -1 -25 5q-2 1 -9 4q-5 3 -7 4q-39 14 -54 38t-2 43q14 20 39 8q10 -5 18 -14zM165 95q-13 28 -28 35q-7 3 -10 0q-3 -6 3 -16q11 -17 42 -29q4 -1 10 -4q7 -4 8 -4q1 -1 3 -2l3 -1
q1 -1 2 -1q2 3 5 9q6 12 10 29q5 18 5 31q-1 12 -5 16q-7 6 -10.5 5t-7.5 -9q-7 -16 -9 -41q0 -2 -1 -4l2 -4q5 -11 -6 -16t-16 6z" />
    <glyph glyph-name="f" unicode="f" horiz-adv-x="326" 
d="M86 545q-1 13 2 25q4 18 15 27q14 12 34 3q12 -5 20 -26q6 -16 9 -37q4 -20 3 -36q-1 -9 -3 -15q-3 -9 -10 -13q-14 -7 -45 -5q-29 2 -44 8q-25 10 -33 29q-9 20 6 35q17 17 46 5zM60 456q47 -6 116 -4q0 84 4 154q3 41 24 73t52 44q34 14 65.5 -1.5t49.5 -58.5
q2 -7 -0.5 -14t-9.5 -9.5t-14 0t-10 9.5q-12 31 -30.5 40t-37.5 1q-20 -8 -35.5 -31.5t-17.5 -54.5q-4 -69 -4 -151q92 3 128 2q7 0 12 -5.5t5 -13t-5.5 -12.5t-13.5 -5q-35 1 -125 -2q1 -46 3 -110q9 -288 9 -299q0 -7 -5.5 -12.5t-12.5 -5.5t-12.5 5.5t-5.5 12.5
q0 14 -9 298q-2 63 -3 110q-72 -2 -121 4q-8 1 -12.5 7t-3.5 13.5t7 12t13 3.5zM104 503q-12 13 -23.5 18t-16.5 4.5t-7 -3.5q-3 -3 -1 -8q4 -9 21 -16q11 -4 35 -6q22 -1 32 2q0 3 1 8q1 14 -2 32t-8 31q-5 12 -8 13q-6 3 -9 0q-4 -4 -7 -14q-2 -10 0 -21q1 -9 4 -12
q4 -4 4 -9l3 -3q8 -8 -0.5 -16.5t-17.5 0.5z" />
    <glyph glyph-name="g" unicode="g" horiz-adv-x="375" 
d="M210 321q-2 14 -2 26q1 19 11 28q14 12 36 3q13 -5 22 -25q7 -15 11 -36q4 -20 3 -36q0 -8 -2 -14q-3 -10 -10 -14q-14 -6 -45 -7q-30 0 -45 6q-25 10 -33 29q-9 20 4 35q18 20 50 5zM184 -89q13 -9 21 -18q13 -14 12 -27q0 -18 -22 -28q-14 -6 -35 2q-15 6 -33 18
q-16 12 -26 24q-6 6 -9 12q-5 8 -3 15q6 21 36 45q30 23 51 25q26 2 36 -11q12 -13 2 -32q-9 -16 -30 -25zM294 348q-21 45 -55.5 60t-73 2t-68.5 -47t-38 -79q-13 -70 14 -128q26 -57 73 -82q45 -25 84 -8q46 19 68 86q2 6 7 9l-1 9q-3 27 -3 67q0 49 -1 64q0 3 -4 42
q-1 2 -2 5zM334 417q-3 -28 -3.5 -36t2.5 -37l3 -41q1 -16 1 -66q0 -39 3 -63q2 -20 7 -55.5t8.5 -63t6.5 -60.5t2 -65t-6 -59q-11 -57 -57 -81q-39 -20 -94 -12q-49 6 -94.5 32.5t-65.5 61.5q-3 7 -1 14t8.5 10.5t13.5 1.5t11 -8q15 -27 53 -49t80 -28q43 -6 72 9
q31 16 38 55q5 25 6 51.5t-1.5 58.5t-5 52.5t-7.5 58.5q-27 -48 -70 -65q-56 -23 -115 9q-57 31 -88.5 99t-17.5 149q10 55 46.5 97t84.5 57q36 13 75 4.5t67 -39.5q1 8 2.5 15.5t7.5 11.5t13.5 2.5t11.5 -7.5t3 -14zM225 280q-13 13 -24.5 18.5t-16 4.5t-6.5 -3q-3 -3 0 -9
q4 -10 21 -17q9 -4 35 -4q22 0 32 4q1 3 1 9q1 13 -2 30q-4 18 -9 30q-6 11 -9 13q-4 1 -7 1.5t-4 0.5l-1 -1q-2 -2 -3 -12q-1 -19 7 -41q1 -2 1 -5l3 -3q8 -8 -0.5 -16.5t-17.5 0.5zM146 -72q17 -1 30 5.5t17 14.5l1 5q-3 3 -16 2q-14 -1 -38 -20q-21 -17 -27 -30
q2 -3 6 -7q9 -10 22 -20q15 -11 28 -16q11 -4 16 -2q4 2 6 3.5t2 2.5v1q1 3 -6 10q-12 14 -33 24q-2 1 -4 3h-4q-5 0 -8.5 3.5t-3.5 8.5t3.5 8.5t8.5 3.5z" />
    <glyph glyph-name="h" unicode="h" horiz-adv-x="343" 
d="M214 77q-3 15 -2 26q0 20 10 29q13 12 36 3q13 -4 22 -24q8 -15 12 -36q5 -20 4 -36q0 -9 -2 -16q-3 -9 -10 -13q-13 -8 -45 -7q-30 1 -44 6q-26 9 -35 27q-10 20 4 35q18 21 50 6zM133 536q14 6 25 9q19 4 30 -4q15 -9 13 -33q-1 -13 -18 -28q-13 -10 -32 -20
q-19 -9 -35 -12q-8 -2 -15 -2q-10 1 -16 7q-11 11 -17 42q-7 27 -5 43q3 28 18 41q17 15 35 5q23 -13 17 -48zM61 700q0 -52 -5 -151t-5 -145v-17q37 44 90 58q44 13 86 -1q42 -15 69 -58q14 -22 25 -76q9 -43 15 -108q14 -136 4 -193q-1 -7 -7.5 -11.5t-13.5 -3.5
t-11.5 7.5t-3.5 13.5q9 54 -4 184q-6 60 -15 104q-9 48 -19 63q-21 33 -51.5 43.5t-64.5 1.5q-33 -10 -60 -34.5t-38 -57.5v-1q0 -5 2 -108q4 -121 0 -195q0 -7 -5.5 -12t-13 -5t-12.5 5.5t-5 13.5q4 72 0 192q-3 147 -3 195q0 46 5 145t5 151q0 7 5.5 12.5t12.5 5.5
t12.5 -5.5t5.5 -12.5zM230 37q-14 13 -25.5 18t-16 4t-6.5 -4q-3 -3 -1 -8q5 -10 22 -16q11 -3 36 -4q23 -1 32 3q1 3 1 9q0 13 -3 31q-4 18 -10 30t-9 13q-4 1 -7 1.5t-4 -0.5q-3 -2 -3 -12q-1 -18 7 -41q1 -2 1 -5l2 -3q9 -8 0.5 -16.5t-16.5 0.5zM99 511q9 16 10.5 28.5
t-0.5 17t-5 6.5t-7 -2q-8 -7 -10 -25q-1 -12 4 -36q5 -22 11 -30q4 0 9 1q13 3 29 11q17 8 27 17q10 8 10 11v7q0 3 -1 4h-1q-3 2 -12 0q-17 -4 -39 -17q-1 -1 -3 -2l-2 -3q-6 -10 -16 -4t-4 16z" />
    <glyph glyph-name="i" unicode="i" horiz-adv-x="131" 
d="M78 659q-3 15 -2 26q1 19 11 29q13 11 35 3q14 -5 24 -26q6 -15 10 -37q3 -19 2 -35q0 -9 -2 -14q-3 -10 -9 -13q-14 -8 -46 -7q-28 1 -43 7q-26 9 -35 27q-9 20 4 35q18 20 51 5zM119 444q-3 -78 4 -216q8 -159 8 -219q0 -7 -5.5 -12.5t-12.5 -5.5t-12.5 5.5t-5.5 12.5
q0 59 -8 217q-7 138 -4 220q0 7 5.5 12t13 5t12.5 -5.5t5 -13.5zM94 619q-14 13 -25.5 18t-16.5 4t-7 -3q-3 -3 0 -8q4 -10 21 -16q12 -4 36 -5q25 -1 31 2q1 3 1 9q1 14 -2 31q-3 18 -8 31q-5 11 -10 13q-4 1 -7 1.5t-3 -0.5h-1q-3 -3 -3 -12q-1 -18 6 -41q1 -2 1 -4l3 -4
q9 -8 0.5 -16.5t-16.5 0.5z" />
    <glyph glyph-name="j" unicode="j" horiz-adv-x="131" 
d="M72 663q-3 15 -2 26q1 19 11 29q13 11 35 3q14 -5 24 -26q6 -15 10 -37q3 -19 2 -35q0 -9 -2 -14q-3 -10 -9 -13q-14 -8 -46 -7q-28 1 -43 7q-26 9 -35 27q-9 20 4 35q18 20 51 5zM110 439q2 -45 10.5 -127t13 -137t2.5 -129t-15 -135q-10 -47 -39 -81t-65 -44
q-41 -11 -71 14q-31 26 -40 83q-1 8 3.5 14t12 7t13.5 -3.5t7 -11.5q6 -44 27 -61q16 -13 38 -7q25 6 47 33q23 27 31 65q13 61 15 129q2 71 -2.5 124.5t-12.5 135t-11 129.5q0 7 5 13t12 6t13 -5t6 -12zM88 623q-14 13 -25.5 18t-16.5 4t-7 -3q-3 -3 0 -8q4 -10 21 -16
q12 -4 36 -5q25 -1 31 2q1 3 1 9q1 14 -2 31q-3 18 -8 31q-5 11 -10 13q-4 1 -7 1.5t-3 -0.5h-1q-3 -3 -3 -12q-1 -18 6 -41q1 -2 1 -4l3 -4q9 -8 0.5 -16.5t-16.5 0.5z" />
    <glyph glyph-name="k" unicode="k" horiz-adv-x="356" 
d="M97 241l137 -103q102 -78 151 -111q6 -4 7.5 -11.5t-2.5 -13.5t-11.5 -7.5t-13.5 2.5q-52 34 -153 112q-89 69 -127 96q1 -107 1 -189q0 -7 -5.5 -12.5t-12.5 -5.5t-12.5 5.5t-5.5 12.5q0 113 -3 340t-3 340q0 7 5.5 12.5t12.5 5.5t12.5 -5.5t5.5 -12.5q0 -101 4 -411
q24 34 70 93l62 81q4 6 11.5 7t13.5 -3.5t7 -12t-4 -13.5l-65 -85q-55 -71 -82 -111zM197 267q7 14 14 23q11 16 25 17q17 3 31 -17q7 -11 3 -33q-3 -16 -11 -36q-8 -18 -17 -31q-6 -7 -10 -11q-8 -7 -16 -6q-16 2 -41 20q-23 17 -33 30q-16 21 -13 42t23 26q26 8 45 -24z
M187 225q-4 19 -11 29.5t-11 12.5t-7 1q-4 -1 -5 -7q-2 -10 9 -24q7 -10 27 -24q18 -13 27 -16q3 2 6 7q8 11 15 27q7 17 10 30q2 12 0 15q-2 4 -5 6l-2 1h-1q-4 0 -9 -7q-12 -15 -18 -38l-2 -4q0 -2 1 -5q2 -11 -9.5 -13.5t-14.5 9.5z" />
    <glyph glyph-name="l" unicode="l" horiz-adv-x="78" 
d="M67 698q0 -113 5 -340t5 -340q0 -7 -5.5 -12.5t-12.5 -5.5t-12.5 5.5t-5.5 12.5q0 113 -5 340t-5 340q0 7 5.5 12.5t12.5 5.5t12.5 -5.5t5.5 -12.5z" />
    <glyph glyph-name="m" unicode="m" horiz-adv-x="547" 
d="M74 338q3 -32 6.5 -100t7.5 -120.5t9 -99.5q1 -8 -4 -13.5t-12.5 -6.5t-13 4t-6.5 12q-8 72 -15.5 206.5t-12.5 187.5q-1 8 4 13.5t12.5 6.5t13 -4t6.5 -12v-1q28 36 72 48q38 10 74.5 -2t59.5 -48q6 -10 12 -23q78 92 140 85t94 -103q25 -75 28 -185t-13 -167
q-2 -7 -8.5 -11t-13.5 -2.5t-11 8t-3 13.5q16 54 13 158.5t-26 173.5q-25 75 -64 79q-49 6 -124 -90q7 -36 9 -85q1 -29 -4 -151q0 -7 -5.5 -12t-13 -5t-12.5 5.5t-5 13.5q5 119 4 148q-3 92 -27 130q-16 26 -41.5 34.5t-53 1t-47 -28t-23.5 -48.5q-1 -6 -6 -10zM423 88
q1 15 5 26q6 18 19 24q15 7 35 -6q13 -9 16 -32q2 -16 -1 -38q-2 -19 -8 -35q-3 -8 -6 -13q-5 -8 -12 -10q-16 -3 -46 7q-25 9 -39 18q-22 16 -26 35q-5 22 13 33q22 14 50 -9zM163 340q15 2 27 0q19 -2 27 -13q11 -14 1 -36q-7 -14 -28 -22q-16 -5 -38 -6q-20 -1 -36 2
q-8 1 -14 3q-9 4 -12 10q-6 15 -2 46q3 27 10 42q11 25 30 33q21 8 35 -7q18 -20 0 -52zM428 45q-10 16 -20 24.5t-15 7.5t-8 0q-3 -3 -2 -8q2 -10 17 -20q11 -8 33 -15q25 -9 29 -8l1 1q1 3 3 8q5 13 7 30q3 19 1 32q-2 12 -6 15q-8 6 -11 4.5t-6 -10.5q-6 -16 -5 -42v-3
l2 -4q6 -10 -4 -16t-16 4zM121 328q15 13 21 24t5.5 16t-2.5 8q-3 3 -8 1q-10 -4 -17 -21q-5 -12 -8 -35q-3 -19 -1 -31q3 -1 9 -2q13 -2 30 -1q19 1 32 5q12 4 14 9q2 4 3 7v3l-1 1q-2 3 -11 4q-19 3 -42 -3h-5l-3 -3q-9 -8 -17 1t1 17z" />
    <glyph glyph-name="n" unicode="n" horiz-adv-x="344" 
d="M61 301v-35v-41q0 -134 -9 -216q-1 -7 -7 -12t-13 -4t-12 7t-4 13q9 80 9 212q0 169 2 215q0 7 5.5 12t13 5t12.5 -5.5t5 -13.5q-1 -30 -2 -65q50 69 118 78q66 8 106 -52q30 -44 43 -130q16 -102 7 -259q0 -7 -6 -12t-13 -5t-12 6t-5 13q9 153 -7 252q-12 78 -37 115
q-28 42 -72 36q-71 -9 -122 -114zM140 75q15 2 26 1q19 -2 28 -12q11 -14 2 -36q-5 -12 -26 -21q-15 -6 -36 -9q-20 -3 -36 -2q-9 1 -15 3q-9 3 -13 10q-3 5 -3 16q-1 8 -1 20q0 19 2 32q4 30 23 46t39 8q21 -9 17 -36q-1 -10 -7 -20zM99 60q22 23 24 39q2 8 -3 9
q-2 2 -7.5 0.5t-12 -10.5t-8.5 -25q-2 -10 -2 -29v-17q1 -3 1 -6q3 -1 9 -1q13 -1 30 2q18 2 31 8q11 4 13 8t2.5 6.5t-0.5 3.5v1q-3 2 -12 3q-18 1 -42 -6h-4l-3 -2q-8 -9 -16.5 -0.5t0.5 16.5z" />
    <glyph glyph-name="o" unicode="o" horiz-adv-x="372" 
d="M164 118q6 15 12 25q11 16 24 19q17 4 32 -14q10 -12 7 -35q-2 -16 -10 -37q-7 -18 -16 -31q-5 -7 -9 -11q-7 -7 -14 -7q-23 1 -53 24q-28 23 -37 43q-10 24 0 38q9 14 30 9q19 -4 34 -23zM298 400q-18 16 -47 24q-28 7 -56 4t-46 -15q-42 -28 -65.5 -85.5t-21.5 -122.5
q1 -66 28.5 -116.5t76.5 -69.5q45 -17 104 21q34 22 52.5 64t20.5 96q2 51 -10 99.5t-36 79.5q-7 10 0 21zM352 358q32 -73 28 -160q-2 -60 -24 -110t-65 -78q-75 -48 -136 -25q-63 24 -95.5 84.5t-33.5 135.5q-2 72 25 137.5t78 100.5q25 17 62 21t69 -5q37 -10 63 -33.5
t30 -59.5q0 -4 -1 -8zM157 78q-4 17 -13.5 27.5t-19.5 12.5q-3 1 -5 0q-1 -4 3 -14q6 -15 30 -34q21 -16 36 -19q2 3 5 7q7 12 14 27q7 18 8 31q2 13 -1 16q-3 4 -5 5.5t-3 1.5h-1q-4 -1 -9 -9q-10 -16 -15 -39q-1 -1 -1 -3t1 -4q2 -12 -9.5 -14.5t-14.5 8.5z" />
    <glyph glyph-name="p" unicode="p" horiz-adv-x="376" 
d="M88 57l-9 -119q-7 -92 -10 -142q0 -7 -6 -12t-13 -5t-12 6t-5 13q3 52 9 136l11 136q4 50 7 134q2 81 -3 135q-1 11 -1.5 29.5t-1 29t-2.5 25t-6 27.5q-2 7 1 13.5t10.5 8.5t14 -1t8.5 -11q8 -25 10 -60q50 67 107 71q63 6 115 -62q47 -60 63.5 -146.5t-8.5 -161.5
q-22 -59 -67.5 -88.5t-97.5 -23.5q-72 7 -114 68zM93 341q6 -89 0 -201l2 -4q9 -49 40 -78.5t70.5 -33.5t75 19t52.5 70q22 64 7 142.5t-56 131.5q-40 52 -84 48q-53 -4 -101 -88q-3 -4 -6 -6zM240 128q12 9 23 15q17 9 30 4q17 -5 21 -29q2 -15 -12 -33q-10 -14 -27 -27
q-15 -12 -30 -19q-7 -4 -13 -6q-10 -2 -16 2q-19 11 -34 47q-14 34 -11 56q4 23 19 31q16 9 32 -3q16 -13 18 -38zM213 95q5 23 2.5 35t-8.5 17q-4 2 -6 1q-4 -2 -6 -14q-3 -15 9 -43q11 -25 22 -34q3 1 8 3q13 6 26 17q15 11 23 22q8 10 7 15t-2 8l-1 2l-1 1q-4 1 -12 -4
q-18 -9 -33 -26q-2 -2 -4 -3q-1 -2 -2 -5q-3 -11 -14.5 -7.5t-7.5 15.5z" />
    <glyph glyph-name="q" unicode="q" horiz-adv-x="393" 
d="M214 186q-3 15 -2 26q1 19 11 29q13 11 35 3q14 -5 24 -26q6 -15 10 -37q3 -19 2 -35q0 -9 -2 -14q-3 -10 -9 -13q-14 -8 -46 -7q-28 1 -43 7q-26 9 -35 27q-9 20 4 35q18 20 51 5zM307 343q-36 79 -83 89q-40 8 -84 -35q-44 -44 -68 -116.5t-11 -134.5
q10 -52 44.5 -81.5t76.5 -31.5q39 -2 72 20.5t47 67.5q1 24 3 67q1 14 3 61q2 40 0 93v1zM337 463q1 -19 3.5 -72t3 -72t-0.5 -72q-1 -18 -2.5 -53.5t-2.5 -50.5q4 -7 2.5 -14t-3.5 -14q-4 -98 1 -166q0 -2 1 -12.5t1 -13.5t1 -13t2 -14l1 -12q1 -9 3 -14l3 -10q2 -6 4 -11
t5 -9q12 -19 19 -20q3 -1 8 6q14 18 22 58q2 8 8 12t13.5 2.5t11.5 -7.5t3 -13q-10 -50 -30 -75q-18 -22 -41 -18.5t-44 35.5q-5 8 -9 16.5t-7 19.5l-4 18q-1 7 -2 20l-2 18q-1 5 -2 19.5t-1 15.5q-3 45 -3 99q-47 -52 -119 -49q-54 3 -98 40.5t-57 100.5q-14 73 13 153.5
t77 130.5q57 57 116 45q40 -8 72 -47q-1 24 -2 41q0 8 5 13.5t12.5 5.5t13 -5t5.5 -12zM230 146q-14 13 -25.5 18t-16.5 4t-7 -3q-3 -3 0 -8q4 -10 21 -16q12 -4 36 -5q25 -1 31 2q1 3 1 9q1 14 -2 31q-3 18 -8 31q-5 11 -10 13q-4 1 -7 1.5t-3 -0.5h-1q-3 -3 -3 -12
q-1 -18 6 -41q1 -2 1 -4l3 -4q9 -8 0.5 -16.5t-16.5 0.5z" />
    <glyph glyph-name="r" unicode="r" horiz-adv-x="269" 
d="M72 346q6 -24 2 -173t-4 -155.5t-5.5 -12t-12.5 -5.5t-12.5 5.5t-5.5 11.5q0 25 3.5 129t1 174.5t-15.5 119.5q-1 7 3 13t11 7.5t13.5 -2t8.5 -10.5q3 -15 6 -31q10 14 23 26q38 31 96 27q13 -1 29 -8q19 -7 27 -18q21 -25 30 -76q4 -24 7 -76q0 -6 -5 -12t-12 -6t-13 5
t-6 11q-3 50 -7 73q-7 41 -22 60q-3 3 -13.5 7.5t-16.5 4.5q-44 3 -70 -19q-26 -21 -37 -64q0 -4 -3 -6zM148 366q-2 14 -2 25q1 19 12 29q13 11 35 3q14 -5 23 -26q7 -15 10 -37q3 -19 2 -35q0 -9 -2 -14q-3 -10 -9 -13q-10 -6 -24 -6q-3 0 -10 1h-9q-39 0 -61 17t-18 39
q2 11 11 17t22 6q10 -1 20 -6zM164 325q-22 21 -38 23q-7 0 -7 -4q-1 -1 0 -4t4.5 -7t9 -7.5t16.5 -6t25 -2.5h10q6 -1 9 -1q6 0 10 1q1 4 1 9q1 14 -2 31q-2 18 -8 31q-4 11 -9 13q-9 3 -11 1q-3 -3 -4 -12q-1 -20 7 -41q1 -2 1 -5l2 -3q9 -8 0.5 -16.5t-16.5 0.5z" />
    <glyph glyph-name="s" unicode="s" horiz-adv-x="338" 
d="M221 359q0 15 2 26q4 19 16 26q15 10 35 -3q13 -8 19 -29q4 -17 3 -38q0 -20 -4 -36q-2 -8 -5 -13q-4 -9 -11 -11q-15 -5 -46 2q-27 6 -41 14q-24 13 -29 33q-6 21 10 34q21 17 51 -5zM297 407q-17 15 -51 23t-67 3q-36 -4 -56 -21t-20 -46q0 -23 35 -47
q12 -8 25.5 -15.5t35 -18.5t30.5 -16q14 -7 24.5 -13t23.5 -14.5t22.5 -17.5t19 -19.5t15.5 -22.5t9.5 -25t3 -29t-5.5 -33q-15 -56 -66.5 -83t-111.5 -21q-60 5 -103.5 41t-43.5 97q0 7 5.5 12.5t12.5 5.5t12.5 -5.5t5.5 -12.5q0 -43 32.5 -70.5t82 -32t89 16.5t51.5 62
q12 43 -13 72.5t-82 60.5q-7 3 -29.5 14.5t-37.5 20t-27 16.5q-51 35 -51 77q0 46 31 71.5t76 31.5q40 5 81.5 -4.5t65.5 -29.5q5 -5 5.5 -12.5t-4 -13t-12 -6t-13.5 3.5zM228 316q-11 17 -21.5 24.5t-15 6t-6.5 -1.5q-4 -3 -2 -9q3 -10 18 -19q10 -5 34 -11q21 -4 31 -3
q1 3 3 8q3 13 3 30q1 19 -3 32q-3 12 -7 15q-4 2 -6.5 3t-3.5 0q-3 -2 -5 -11q-4 -18 -1 -42v-5l2 -3q7 -10 -3 -17t-17 3z" />
    <glyph glyph-name="t" unicode="t" horiz-adv-x="400" 
d="M272 127q12 8 23 12q17 7 30 2q16 -7 18 -30q1 -14 -13 -31q-11 -12 -29 -25q-16 -12 -31 -18q-8 -3 -15 -4q-10 -1 -16 3q-12 9 -25 39q-11 26 -12 42q-2 28 11 43q15 16 34 10q25 -8 25 -43zM53 453q43 -4 103 -3q1 69 -2 133q0 8 5 13.5t12.5 5.5t13 -5t5.5 -12
q3 -65 2 -134q99 3 120 3q7 0 12.5 -5.5t5.5 -12.5t-5.5 -12.5t-12.5 -5.5q-19 0 -120 -3q-2 -63 -6 -127q0 -7 -3 -41t-3.5 -47t-0.5 -39t3 -45.5t8 -36.5q14 -44 62 -56t91 14q6 4 13.5 2.5t11 -8t2 -14t-8.5 -10.5q-35 -21 -76.5 -23t-78 20t-50.5 65q-6 19 -9.5 40.5
t-3.5 50t0.5 43t3.5 48.5t3 39q4 63 6 124q-61 -1 -105 3q-8 1 -13 6.5t-4 13t6.5 12.5t12.5 4zM242 96q7 17 6.5 29.5t-3.5 16.5t-6 5q-4 2 -8 -3q-6 -8 -5 -25q1 -12 10 -35q9 -20 16 -27q3 0 9 2q12 5 26 16q15 10 24 21q8 9 8 13t-1 6.5t-2 3.5q-4 1 -12 -2
q-17 -7 -35 -23q-1 -1 -3 -2l-2 -4q-4 -12 -15.5 -7.5t-6.5 15.5z" />
    <glyph glyph-name="u" unicode="u" horiz-adv-x="300" 
d="M155 371q0 13 2 22q3 19 14 27q15 9 36 -1q14 -7 20 -29q5 -16 5 -38q1 -20 -3 -36q-1 -8 -4 -14q-4 -9 -11 -11q-9 -4 -29 -1q-11 1 -26 4q-44 9 -59 30q-16 22 4 41q21 21 51 6zM53 448q2 -24 2 -98t3 -119q10 -145 51 -186q19 -19 58 -21q24 -1 42 44q18 44 25 125
q11 123 1 245q-1 7 4 12.5t12.5 6.5t13 -4t6.5 -13q10 -126 -1 -250q-8 -86 -28 -136q-27 -68 -77 -66q-53 2 -82 31q-51 52 -61 209q-3 45 -3 122q0 73 -2 96q0 7 4.5 12.5t12 6t13 -4t6.5 -12.5zM165 326q-7 15 -17 21.5t-17 5.5t-11 -5q-4 -5 0 -10q9 -13 43 -20
q15 -3 25 -4t16 -1q1 3 2 8q3 13 2 31q0 18 -4 31q-3 12 -7 14q-9 5 -12 3t-5 -11q-3 -17 2 -43q3 -5 5 -10q5 -11 -6 -16t-16 6z" />
    <glyph glyph-name="v" unicode="v" horiz-adv-x="363" 
d="M167 388q14 8 26 12q18 7 30 1q16 -8 17 -32q0 -13 -15 -30q-12 -12 -30 -23q-17 -11 -32 -16q-8 -3 -15 -4q-10 -1 -16 4q-17 14 -27 51q-9 35 -4 56q7 25 23 30q17 6 31 -10q12 -15 12 -39zM58 446q10 -25 76 -212q36 -102 66 -163q11 37 23.5 73t29.5 81l27 69
q9 23 32.5 79.5t28.5 69.5q3 7 10 9.5t14 0t9.5 -9.5t0.5 -14l-27 -65l-29 -70l-26 -64q-16 -43 -26 -71t-22 -65l-22 -70v-1q1 -11 -9 -17q-7 -3 -14 -1t-11 8q-42 76 -89 209q-67 191 -76 210q-2 7 0.5 14t9.5 9.5t14 0t10 -9.5zM137 359q7 19 6 32.5t-7 20.5q-3 3 -4 3
q-4 -2 -7 -14q-4 -15 4 -44q7 -27 17 -37q3 0 9 2q12 5 27 14q16 10 26 20q8 9 8 13t-1 6.5t-1 3.5h-1q-3 2 -12 -1q-19 -7 -36 -22q-2 -2 -4 -2q-1 -3 -2 -5q-5 -11 -16 -6t-6 16z" />
    <glyph glyph-name="w" unicode="w" horiz-adv-x="532" 
d="M329 66q-6 14 -9 25q-5 18 2 30q9 15 33 14q15 -1 30 -18q11 -13 20 -32q9 -18 13 -34q2 -8 2 -14q0 -10 -5 -15q-6 -6 -19 -12q-9 -4 -23 -7q-27 -7 -42 -7q-28 1 -42 16q-15 16 -6 34q11 25 46 20zM67 468q14 -22 28 -53t28 -76l21 -69q7 -23 21.5 -77.5t14.5 -57.5
q3 -10 5 -21q18 63 62 188l33 89l11 28q3 5 4 8q2 3 3 4q2 3 4 4q7 6 15 4q5 -2 9 -6l3 -3q1 -1 2 -4q2 -3 4 -9l11 -28l32 -85q40 -113 49 -145q10 -31 20 -57q0 1 -1 19q-1 27 2 50q1 4 4 21l8 35l11 54q7 29 18 59.5t25 65.5l21 55q3 7 9.5 10t13.5 0.5t10 -9t1 -13.5
q-8 -22 -22 -57t-24 -63t-16 -56l-12 -53l-8 -35q-3 -16 -3 -18q-3 -20 -2 -45q1 -31 0 -49v-10v-13q0 -21 -11 -33q-6 -7 -16 -7q-9 0 -16 9q-3 4 -5 13q-1 4 -1.5 7.5t-1 5.5t-0.5 3q-22 46 -38 101q-10 31 -49 143l-31 84l-32 -86q-45 -126 -62 -187q-1 -6 -4 -22l-6 -32
l-6 -29q-2 -7 -4 -11q-3 -5 -6 -8q-11 -8 -22 -2q-14 8 -13 27q1 5 1 8v2q-7 66 -13 89l-15 59q-15 56 -21.5 78t-20.5 65.5t-26.5 72t-25.5 48.5q-4 6 -2.5 13.5t7.5 11.5t13.5 2.5t11.5 -7.5zM356 32q-17 9 -29.5 10.5t-16.5 -1t-5 -5.5q-2 -4 2 -8q7 -8 24 -8q12 0 36 6
q12 3 20 6q6 3 9 5q0 3 -2 9q-3 13 -10 29q-8 16 -17 26q-8 10 -14 10q-4 0 -6.5 -0.5t-3.5 -0.5v-1q-2 -3 0 -12q5 -19 19 -38q1 -1 1 -3l5 -2q10 -6 4.5 -16.5t-16.5 -5.5z" />
    <glyph glyph-name="x" unicode="x" horiz-adv-x="390" 
d="M230 230q90 -124 158 -206q5 -6 4 -13.5t-6.5 -12.5t-13 -4t-12.5 6q-63 76 -154 201l-158 -195q-5 -5 -12.5 -6t-13 4t-6.5 12.5t4 13.5l165 201q-111 154 -156 212q-5 6 -4 13.5t7 12t13.5 3.5t11.5 -7q47 -60 151 -205l165 196q4 5 11.5 5.5t13 -4t6 -12t-4.5 -13.5z
M233 426q10 9 22 15q16 7 30 4q18 -5 24 -26q3 -13 -8 -32q-9 -15 -25 -30q-14 -14 -28 -23q-7 -5 -13 -7q-10 -3 -17 0q-8 5 -18 18q-9 11 -17 27q-18 35 -18 53q1 25 15 34q15 9 32 -2q15 -10 21 -31zM211 388q4 18 -0.5 31t-12.5 18l-5 2q-4 -3 -4 -14q0 -12 16 -42
q7 -14 14 -23t8 -10q3 1 8 4q12 7 24 20q14 13 21 25q6 10 5 14q-2 7 -6 8q-6 2 -14 -2q-10 -4 -17 -12t-8 -13t-5 -8v-2q-3 -12 -14.5 -9.5t-9.5 13.5z" />
    <glyph glyph-name="y" unicode="y" horiz-adv-x="397" 
d="M198 404q11 10 21 15q17 9 30 5q16 -4 22 -27q3 -15 -9 -34q-10 -14 -26 -28q-15 -13 -29 -21q-7 -4 -13 -6q-9 -3 -16 0q-14 8 -30 35q-13 25 -17 41q-5 27 5 44q12 19 32 14q25 -5 30 -38zM73 -51q11 10 21 15q17 9 30 5q17 -4 22 -28q3 -15 -10 -33q-10 -14 -27 -28
q-15 -13 -30 -21q-7 -4 -13 -5q-9 -3 -16 1t-15 15q-7 8 -14 21q-14 25 -17 40q-5 27 6 44q12 19 32 15q26 -6 31 -41zM414 439q-25 -76 -76 -209q-4 -10 -25 -70t-42.5 -112.5t-45.5 -95.5q-107 -191 -244 -143q-7 2 -10 9t-1 14t9 10t14 1q109 -38 200 126q16 29 32 64
q-8 14 -15 28l-15 31q-8 17 -13 28l-12 32q-9 21 -11.5 28.5t-12 32t-10.5 29.5q-50 133 -96 198q-4 6 -2.5 13t7.5 11.5t13 3t12 -7.5q48 -68 99 -206q50 -131 74 -178q15 37 35.5 95.5t25.5 70.5q51 133 76 209q2 7 8.5 10t14 1t10.5 -8.5t1 -14.5zM172 368q5 19 2.5 30.5
t-5.5 15.5t-6 5q-4 1 -6 -3q-6 -9 -2 -28q2 -12 14 -33q10 -17 18 -24q4 1 8 4q12 7 25 18q14 12 22 23q6 10 5 15q-2 9 -5 10q-4 1 -11 -3q-16 -9 -32 -28l-2 -2q-1 -3 -1 -6q-3 -11 -14.5 -8.5t-9.5 14.5zM46 -85q6 19 3.5 30.5t-6 15.5t-6.5 5q-4 1 -7 -4q-6 -9 -2 -27
q2 -10 14 -33q6 -11 12 -18q5 -6 5 -7q4 1 9 4q12 6 26 17q14 12 22 23q7 11 6 16q-1 4 -2 6.5t-2 2.5q-4 1 -13 -3q-15 -9 -32 -27l-2 -2q-1 -2 -1 -5q-3 -12 -15 -9t-9 15z" />
    <glyph glyph-name="z" unicode="z" horiz-adv-x="346" 
d="M206 139q-3 15 -2 26q1 19 11 29q13 11 35 3q14 -5 24 -26q6 -15 10 -37q3 -19 2 -35q0 -9 -2 -14q-3 -10 -9 -13q-14 -8 -46 -7q-28 1 -43 7q-26 9 -35 27q-9 20 4 35q18 20 51 5zM64 462q19 -5 142 -5q57 0 82 -1q19 -1 31 -3q17 -3 24 -10q6 -7 5 -15q0 -3 -1 -6
t-3 -6q-3 -4 -8 -10q-7 -10 -22 -28l-16 -18q-9 -12 -14 -19t-7 -9q-13 -18 -97 -146q-56 -85 -96 -134q28 -1 89 0t110.5 -1t92.5 -10q7 -2 11 -8t2.5 -13.5t-7.5 -11.5t-14 -3q-42 9 -95 11t-97 0t-100 0h-5q-7 -1 -10 -1q-18 0 -27 12t-2 24q3 5 9 9l3 3l3 2l1 1
q42 49 102 140q84 128 97 146q1 1 39 49l15 18q-7 0 -15 1q-24 1 -80 1q-127 0 -152 7q-7 1 -10.5 7.5t-2 14t8 11t14.5 1.5zM222 99q-14 13 -25.5 18t-16.5 4t-7 -3q-3 -3 0 -8q4 -10 21 -16q12 -4 36 -5q25 -1 31 2q1 3 1 9q1 14 -2 31q-3 18 -8 31q-5 11 -10 13
q-4 1 -7 1.5t-3 -0.5h-1q-3 -3 -3 -12q-1 -18 6 -41q1 -2 1 -4l3 -4q9 -8 0.5 -16.5t-16.5 0.5z" />
    <glyph glyph-name="braceleft" unicode="{" horiz-adv-x="332" 
d="M321 681q-23 10 -41 7q-18 -2 -41 -18q-30 -21 -41 -47.5t-11 -63.5q0 -13 3 -46.5t3 -52t-4 -52.5q-12 -60 -100 -115q-3 -2 -7 -4l18 -7q14 -5 17 -7q24 -18 45 -45t31 -55q17 -47 14 -117q-1 -12 -2 -36t-1.5 -32.5t0.5 -29.5q3 -42 28 -60q34 -25 119 -25
q7 0 12.5 -5.5t5.5 -12.5t-5.5 -12.5t-12.5 -5.5q-96 0 -140 32q-38 28 -43 86q-1 23 -0.5 33t2 35t1.5 34q2 64 -12 104q-8 22 -26 45t-38 37l-8 4l-22 8q-15 6 -22 10q-6 3 -9 6l-6 4q-4 6 -4 14q1 21 28 28l17 4q76 48 84 91q4 32 4 47t-3 47t-3 51q0 44 14 78.5t54 62.5
q59 41 118 13q6 -3 8.5 -10t-0.5 -13.5t-10 -9t-14 0.5z" />
    <glyph glyph-name="bar" unicode="|" horiz-adv-x="102" 
d="M85 710q15 -361 15 -512q0 -32 -4 -189.5t1 -189.5q0 -8 -5 -13.5t-12.5 -5.5t-13 5t-5.5 12q-5 32 -1 191t4 190q0 151 -15 510q0 8 5 13.5t12.5 5.5t13 -5t5.5 -12z" />
    <glyph glyph-name="braceright" unicode="}" horiz-adv-x="304" 
d="M12 714q90 23 135 -13q37 -30 44 -101q3 -30 0 -122q-2 -73 6 -98q15 -46 83 -72q18 -7 24 -8h2q1 0 4 0.5t4 0.5q8 1 13 0q8 -3 12.5 -10t1.5 -16q-4 -16 -24 -20q-4 -1 -6.5 -1.5t-3.5 -1t-3 -0.5l-39 -20q-15 -7 -31.5 -20.5t-24.5 -29.5q-19 -33 -17 -87q1 -15 4 -48
t3 -49q0 -59 -28 -94q-35 -43 -121 -61q-8 -1 -14 3t-7.5 11.5t2.5 13.5t11 8q74 15 101 48q20 25 20 71q0 12 -3 46t-4 50q-2 63 21 106q23 42 91 74q-85 32 -105 94q-11 33 -8 111q3 91 0 118q-5 56 -30 76q-31 25 -105 7q-7 -2 -13.5 1.5t-8 11t2 14t11.5 7.5z" />
    <glyph glyph-name="asciitilde" unicode="~" horiz-adv-x="523" 
d="M21 220q59 76 128 78q39 1 116 -33q70 -31 104 -31q55 0 107 60q5 5 12.5 5.5t13 -4t6 -12t-3.5 -13.5q-63 -72 -135 -72q-42 0 -118 34q-69 31 -101 30q-52 -1 -101 -64q-4 -6 -11.5 -7t-13.5 3.5t-7 12t4 13.5z" />
    <glyph glyph-name="quoteleft" unicode="&#x2018;" horiz-adv-x="141" 
d="M131 666q-20 -10 -35 -33t-19 -52q-5 -28 4 -51.5t29 -34.5q6 -4 8 -11t-1.5 -13.5t-10.5 -8.5t-14 1q-32 18 -44 52t-7 72q5 36 25 67t51 44q6 3 13 0.5t10 -9t0.5 -13.5t-9.5 -10z" />
    <glyph glyph-name="quoteright" unicode="&#x2019;" horiz-adv-x="149" 
d="M74 699q41 -10 57 -66q13 -49 -2 -88q-7 -15 -26 -35l-14 -14l-12 -11q-5 -6 -12.5 -6t-13 5t-5.5 12.5t5 12.5q3 4 12.5 12.5t13.5 13.5q15 15 18 24q11 27 1 64q-10 36 -30 42q-8 1 -11.5 7.5t-2 14t8 11t13.5 1.5z" />
    <glyph glyph-name="quotedblleft" unicode="&#x201c;" horiz-adv-x="252" 
d="M141 685q-25 -16 -45.5 -45t-27.5 -60q-7 -32 3 -55q10 -25 40 -36q7 -3 10 -9.5t0.5 -13.5t-9 -10t-13.5 -1q-45 17 -62 56q-14 34 -4 77q9 37 33.5 72.5t54.5 54.5q7 4 14 2.5t11 -8t2.5 -13.5t-7.5 -11zM293 683q-51 -50 -57 -112t46 -102q6 -4 7.5 -11.5t-2.5 -13.5
t-11.5 -7.5t-13.5 2.5q-48 33 -59 85t8.5 100.5t57.5 84.5q5 5 12.5 5t12.5 -5.5t5 -13t-6 -12.5z" />
    <glyph glyph-name="quotedblright" unicode="&#x201d;" horiz-adv-x="251" 
d="M89 701q27 -40 36 -86q10 -46 -7 -93t-65 -72q-6 -3 -13 -1t-10.5 8.5t-1.5 13.5t9 11q34 18 47.5 52.5t6 73t-31.5 73.5q-4 6 -2.5 13.5t7.5 11.5t13.5 2.5t11.5 -7.5zM243 695q28 -39 40.5 -80t3 -85.5t-45.5 -81.5q-6 -5 -13 -5t-12.5 5.5t-5.5 12.5t5 13
q28 28 36 62.5t-2.5 68.5t-35.5 70q-4 6 -2.5 13t7.5 11.5t13 3t12 -7.5z" />
    <glyph glyph-name="uni3000" unicode="&#x3000;" horiz-adv-x="1000" 
 />
  </font>
</defs>
</svg>
