<?xml version="1.0" standalone="no"?>
<!DOCTYPE svg PUBLIC "-//W3C//DTD SVG 1.1//EN" "http://www.w3.org/Graphics/SVG/1.1/DTD/svg11.dtd" >
<svg xmlns="http://www.w3.org/2000/svg" xmlns:xlink="http://www.w3.org/1999/xlink" version="1.1">
<metadata>
Created by FontForge 20170731 at Mon Feb 13 22:45:29 1928
 By Aleksey,,,
Wellsley Font   Created by J.Fordyce   (c) 1994
</metadata>
<defs>
<font id="Wellsley" horiz-adv-x="552" >
  <font-face 
    font-family="Wellsley"
    font-weight="400"
    font-stretch="normal"
    units-per-em="1100"
    panose-1="0 0 0 0 0 0 0 0 0 0"
    ascent="880"
    descent="-220"
    x-height="484"
    cap-height="790"
    bbox="-93 -317 1155 1036"
    underline-thickness="20"
    underline-position="-163"
    unicode-range="U+0020-2122"
  />
<missing-glyph horiz-adv-x="800" 
d="M50 0v800h700v-800h-700zM700 50v700h-600v-700h600z" />
    <glyph glyph-name=".notdef" horiz-adv-x="800" 
d="M50 0v800h700v-800h-700zM700 50v700h-600v-700h600z" />
    <glyph glyph-name=".null" horiz-adv-x="0" 
 />
    <glyph glyph-name="nonmarkingreturn" horiz-adv-x="500" 
 />
    <glyph glyph-name="space" unicode=" " horiz-adv-x="500" 
 />
    <glyph glyph-name="exclam" unicode="!" horiz-adv-x="176" 
d="M143 703l-42 -443q5 -26 11 -52q11 -52 11 -58q0 -22 -17 -22q-20 0 -43 51q-28 62 -28 150v178l-15 183q0 36 16 66q20 38 53 38q24 0 40 -34.5t14 -56.5zM157 43q0 -18 -17.5 -30.5t-43.5 -12.5q-22 0 -39 11.5t-17 31.5q0 18 16 29q20 14 44 14q20 0 38.5 -12
t18.5 -31z" />
    <glyph glyph-name="quotedbl" unicode="&#x22;" horiz-adv-x="324" 
d="M290 784l-26 -315h-38v10l-10 -1l-26 306h100zM135 784l-26 -315h-38v10l-10 -1l-26 306h100z" />
    <glyph glyph-name="numbersign" unicode="#" horiz-adv-x="1036" 
d="M1016 536q0 -21 -14 -35t-35 -14h-176l-84 -174h41.5t39.5 1h29.5t35.5 -3q35 -3 35 -35q0 -20 -14.5 -34.5t-33.5 -14.5h-172q-15 -20 -72 -138q-37 -77 -81 -77q-28 0 -39.5 12.5t-11.5 35.5q0 15 23 60q33 66 49 103l-203 4q-19 -25 -73 -141q-35 -74 -80 -74
q-25 0 -37.5 10t-12.5 38q0 17 19 54q34 66 52 109q-39 3 -62 3q-13 0 -26 -0.5t-25 -0.5h-15q-12 2 -23 2.5t-20.5 11t-9.5 24.5q0 23 13.5 35.5t35.5 12.5h176q10 17 46 94t37 82h-145q-35 0 -35 36q0 20 14 34t34 14h172q17 22 52 100q53 117 100 117q29 0 39.5 -12.5
t10.5 -36.5q0 -15 -23.5 -66.5t-50.5 -97.5l207 -4q13 18 72 139q38 78 79 78q27 0 39.5 -13.5t12.5 -35.5q0 -12 -20 -58.5t-55 -105.5q38 -3 58 -3h26t26 1h18q14 -2 35.5 -3.5t21.5 -33.5zM659 483h-198q-12 -29 -41.5 -88.5t-42.5 -79.5h198z" />
    <glyph glyph-name="dollar" unicode="$" horiz-adv-x="464" 
d="M444 259q0 -75 -55 -124q-61 -44 -122 -87q0 -36 3 -93t3 -93q2 -21 16 -49.5t14 -29.5q0 -3 -7 -9.5t-12 -11.5q-33 30 -44 76q-7 30 -7 90v30q0 31 -1.5 47t-6 31.5t-108.5 64.5q-95 45 -95 141q0 32 19 67q24 44 59 44q7 0 18 -12t11 -22q-8 -15 -14.5 -32.5
t-6.5 -41.5q0 -40 27 -72.5t64 -44.5l20 4v242q-57 41 -89 69q-61 54 -61 104q0 15 37.5 67.5t64 77t38.5 47.5q9 17 9 31q-3 17 -3 22q0 7 21 7q24 0 30 -23q3 -16 7 -32q66 -16 108 -54.5t42 -109.5q1 -18 1 -26q0 -13 -3.5 -18.5t-15.5 -5.5q-33 0 -37.5 57.5t-73.5 96.5
h-21v-206q0 -16 85.5 -71.5t85.5 -147.5zM208 518v120q-19 -16 -29.5 -31t-10.5 -22q0 -29 15 -45q15 -13 25 -22zM353 237q0 27 -15 49q-19 27 -59 42q-3 -15 -5 -43t-2 -51q0 -26 1 -52.5t3 -53.5h13q43 42 44 43q20 26 20 66z" />
    <glyph glyph-name="percent" unicode="%" horiz-adv-x="800" 
d="M629 746q0 -12 -61 -141q-54 -115 -121 -247l-144 -294q-29 -55 -68 -55q-25 0 -39.5 6.5t-14.5 23.5q0 6 57.5 130t125.5 260l133 266q14 30 29 61q23 36 56 36q23 0 35 -12t12 -34zM785 156q0 -89 -51 -126q-41 -30 -120 -30q-61 0 -108 33q-57 40 -57 111
q0 90 44.5 138t134.5 48q83 0 123 -54q34 -46 34 -120zM706 219q0 18 -1 22q-3 4 -4 8h-57q-63 -51 -91 -94q-21 -32 -21 -56q0 -11 13 -26q9 -10 17 -10q35 0 82 36q62 48 62 120zM355 626q0 -89 -51 -126q-41 -30 -120 -30q-61 0 -108 33q-57 40 -57 111q0 90 44.5 138
t134.5 48q83 0 123 -54q34 -46 34 -120zM276 689q0 18 -1 22q-3 4 -4 8h-57q-63 -51 -91 -94q-21 -32 -21 -56q0 -11 13 -26q9 -10 17 -10q35 0 82 36q62 48 62 120z" />
    <glyph glyph-name="ampersand" unicode="&#x26;" horiz-adv-x="720" 
d="M703 86q0 -33 -65 -59q-52 -21 -78 -21t-67 27q-41 29 -81 58q-41 -33 -82.5 -59t-74.5 -26q-97 0 -169 74q-68 70 -68 156q0 82 70 156q23 24 70 58q-27 45 -39 72q-20 46 -20 84q0 72 86 136q70 52 105 52q44 0 110.5 -76.5t66.5 -137.5q0 -59 -49 -103
q-54 -35 -107 -70q0 -8 58.5 -97t72.5 -89q13 0 61 66q26 35 28 43.5t2 17.5q-3 35 -5 71l16 4q12 0 23.5 -19.5t11.5 -46.5q0 -63 -46.5 -121t-46.5 -70q0 -13 39 -54q47 -50 90 -50q30 0 70 24h18zM375 543q0 62 -64 120q-21 19 -65 46q-26 0 -45.5 -29t-19.5 -48
q0 -65 61 -125q20 -20 61 -47q19 0 43 22q29 27 29 61zM361 146q-61 76 -111 155.5t-79 79.5q-33 0 -58 -39q-21 -33 -21 -59q0 -82 71 -144q55 -48 87 -48q31 0 64 18.5t47 36.5z" />
    <glyph glyph-name="quotesingle" unicode="'" horiz-adv-x="172" 
d="M135 784l-26 -315h-38v10l-10 -1l-26 306h100z" />
    <glyph glyph-name="parenleft" unicode="(" horiz-adv-x="272" 
d="M258 3h-13q-131 102 -178 191t-47 229q0 126 70 244t146 137l9 -5q-47 -67 -93 -134q-46 -86 -46 -240q0 -135 34 -234q25 -72 68 -128z" />
    <glyph glyph-name="parenright" unicode=")" horiz-adv-x="268" 
d="M253 423q0 -139 -46.5 -228t-178.5 -192h-13q24 29 49 59q44 57 68 127q35 102 35 236q0 153 -46 240q-62 84 -93 134l9 5q77 -19 146.5 -136.5t69.5 -244.5z" />
    <glyph glyph-name="asterisk" unicode="*" horiz-adv-x="324" 
d="M304 670q0 -26 -27.5 -28.5t-54.5 -4.5q28 -28 31 -32q11 -15 11 -27t-10.5 -23.5t-18.5 -11.5q-5 0 -40 33q-25 24 -35 34l-33 -33q-35 -34 -42 -34q-9 0 -17 8q-11 11 -11 27q0 18 20 39q15 14 21 20q-47 6 -65.5 8t-18.5 25q0 22 29 26t55 7l-24 24q-17 17 -17 36
q0 16 14 27q4 3 14 8q7 0 36 -29q33 -34 39 -40q33 33 52 51t23 18q13 0 21 -13t8 -22q0 -18 -17 -36q-16 -15 -25 -24l68 -8q14 -5 14 -25z" />
    <glyph glyph-name="plus" unicode="+" horiz-adv-x="472" 
d="M442 374h-160v-164h-88v164l-163 1v90l155 -3v160h96v-160h160v-88z" />
    <glyph glyph-name="comma" unicode="," horiz-adv-x="176" 
d="M160 -10q0 -39 -37 -69q-31 -25 -56 -25q-10 3 -15 4v13q25 18 50 35q12 10 12 30t-11.5 26t-32.5 6q-28 0 -36 3q-17 7 -17 31q0 16 22 30t37 14q25 0 54.5 -34.5t29.5 -63.5z" />
    <glyph glyph-name="hyphen" unicode="-" horiz-adv-x="376" 
d="M354 427q0 -37 -27 -52q-21 -12 -64 -12q-25 0 -68.5 4.5t-51.5 4.5q-37 0 -58 -15q-17 -18 -33 -35q-31 0 -31 27q0 43 26 73q30 26 37 34q29 -6 47 -9q55 -9 97 -9h20q9 2 12 2q21 3 46 9q9 2 26 7q8 -7 15 -13t7 -16z" />
    <glyph glyph-name="period" unicode="." horiz-adv-x="132" 
d="M116 52q0 -24 -23 -39q-17 -11 -29 -11q-17 0 -32.5 15.5t-15.5 28.5q0 17 22 43q14 17 28 17q17 0 33.5 -21t16.5 -33z" />
    <glyph glyph-name="slash" unicode="/" horiz-adv-x="504" 
d="M20 0l365 800h95l-365 -800h-95z" />
    <glyph glyph-name="zero" unicode="0" horiz-adv-x="536" 
d="M519 308q0 -117 -67 -198q-85 -103 -174 -103q-11 0 -35 9q-7 3 -68 30q-98 44 -124 105q-32 76 -32 311q0 16 6 76.5t8 65.5q11 29 106 109q102 86 142 86q7 0 47 -22q54 -30 94 -69q55 -54 72 -118q10 -35 17.5 -119t7.5 -163zM414 400q0 120 -49 197q-34 54 -91 83
q-35 18 -49 18q-58 0 -83 -83q-17 -56 -17 -137q0 -124 9 -204.5t19.5 -97.5t82 -49.5t101.5 -32.5q47 0 64 54q11 35 11 111v38q0 20 1 51t1 52z" />
    <glyph glyph-name="one" unicode="1" horiz-adv-x="364" 
d="M348 26q0 -8 -9 -23h-256v32q7 5 34 13q41 11 41 40v499q0 50 -7 80q-12 54 -46 54q-20 0 -36 -27.5t-28 -27.5q-14 0 -17 7t-3 21q0 26 47.5 63.5t74.5 37.5q36 -13 54 -28q54 -47 54 -140v-500q0 -53 48.5 -74t48.5 -27z" />
    <glyph glyph-name="two" unicode="2" horiz-adv-x="540" 
d="M525 172q-12 -56 -21 -83q-29 -83 -68 -83h-398q-5 10 -10 21q0 17 45 79q50 67 100 135q69 94 101 153q32 50 65 100q28 51 28 78q0 34 -61 89q-65 59 -113 59q-50 0 -83 -47q-27 -39 -27 -73q0 -54 48 -73t48 -29q0 -14 -5.5 -18.5t-17.5 -4.5h-16q-53 0 -90 43
q-31 36 -31 73q0 75 54 135q63 70 165 70q94 0 169 -79q67 -70 67 -136q0 -72 -70 -162q-28 -36 -142 -156q-90 -94 -113 -149q6 -5 12.5 -9.5t14.5 -4.5h192q33 0 65 22q37 25 37 58q0 20 -9 33t-9 17q0 5 6.5 14t11.5 9q10 0 32.5 -28t22.5 -53z" />
    <glyph glyph-name="three" unicode="3" horiz-adv-x="528" 
d="M512 220q0 -21 -31 -68q-39 -58 -93 -97q-71 -50 -149 -50q-58 0 -130 42q-88 51 -88 118q0 47 32.5 76.5t81.5 29.5q30 0 38 -2.5t25 -20.5v-26q-44 -9 -59.5 -23t-15.5 -38q0 -39 31 -68q37 -34 104 -34q64 0 114.5 40.5t50.5 89.5q0 21 -18 68q-22 57 -48 80
q-34 29 -85.5 37.5t-51.5 28.5q0 22 75.5 83.5t75.5 99.5q0 43 -61 84t-109 41q-38 0 -71 -30t-33 -57q0 -12 15 -24t15 -27q0 -19 -19 -19q-31 0 -52.5 17.5t-21.5 39.5q0 41 69 106q78 74 157 74q42 0 122 -60q86 -65 86 -116q0 -25 -26 -59q-30 -38 -102 -105
q22 -16 49 -22q12 -3 21 -8q39 -23 72 -92q30 -64 30 -109z" />
    <glyph glyph-name="four" unicode="4" 
d="M536 318q0 -74 -59 -109t-59 -54q0 -91 43.5 -104t50.5 -18v-27h-281v36q47 0 66 16q26 22 26 86q0 21 1 31.5t-1 12.5q-44 14 -71 21q-85 22 -141 22q-40 0 -53 -18q-7 -9 -15 -9q-25 0 -25 29t34 108q45 104 121 207q19 25 64 75q59 66 110 109q66 57 98 57q14 0 16 -4
t2 -17q0 -7 -21.5 -32.5t-21.5 -56.5v-391q0 -14 5 -18t20 -4q33 0 48 32q10 22 10 61q6 2 13 5q8 0 14 -14.5t6 -31.5zM323 284v320q0 14 -5 17q-9 3 -13 5q-47 -65 -87 -121q-80 -113 -80 -141q0 -23 46 -37q91 -27 126 -43h13z" />
    <glyph glyph-name="five" unicode="5" horiz-adv-x="536" 
d="M521 274q0 -92 -99 -181t-206 -89q-68 0 -131 45q-70 50 -70 120q0 52 40 85q35 29 76 29q15 0 20.5 -3t5.5 -16q0 -5 -30.5 -27t-30.5 -73q3 -22 8 -34q31 -76 122 -76q82 0 143 74q54 66 54 127q0 55 -62 104q-50 39 -100.5 52t-120.5 18t-70 34q0 9 37.5 164t41.5 161
h261q24 0 47 -37.5t23 -91.5q0 -29 -16.5 -51.5t-33.5 -22.5q-19 0 -19 57q-4 58 -40 58h-132q-54 0 -80 -75q-8 -25 -15 -76q0 -25 62 -37q101 -20 161 -47q41 -18 90 -69q64 -66 64 -122z" />
    <glyph glyph-name="six" unicode="6" horiz-adv-x="544" 
d="M528 284q0 -75 -66 -173q-69 -103 -132 -103q-25 0 -76 28q-64 35 -120 91q-43 43 -74 92q-46 72 -46 129q0 58 50 147q59 92 74 116q41 63 77 102q78 85 145 85q50 0 83 -40t33 -93q-6 -33 -11 -49q-16 -49 -40 -49q-11 0 -18 6t-7 11q0 1 9 26t9 31q0 34 -25 56t-58 22
q-53 0 -100 -66q-17 -24 -53 -86q-28 -49 -45 -86q-31 -67 -31 -105q0 -84 95 -184q91 -95 152 -95q49 0 78 49q23 39 23 79q0 52 -76 136q-82 91 -149 91q-16 0 -39 -20t-32 -20q-15 0 -20 6.5t-5 15.5q0 19 35 49q43 36 92 36q66 0 164 -79q104 -84 104 -156z" />
    <glyph glyph-name="seven" unicode="7" horiz-adv-x="524" 
d="M506 749q0 -57 -64 -177l-118 -218q-65 -132 -65 -209q0 -56 45 -56q26 0 36.5 20.5t20.5 41.5h21q0 -2 2.5 -8t2.5 -11q0 -51 -50 -91q-44 -35 -80 -35q-57 0 -86 39q-24 33 -24 89q0 74 65 189q35 62 122 185q66 93 66 110q0 28 -94.5 60.5t-154.5 32.5q-40 0 -57 -17
t-17 -48q0 -23 7 -32q12 -14 46 -14q1 -5 2 -8t1 -7q0 -14 -12.5 -21.5t-29.5 -7.5q-34 0 -53 28.5t-19 63.5q0 47 57.5 99.5t103.5 52.5q51 0 129 -29t105 -29q35 0 46 26q1 3 6 31h32q4 -20 6 -29.5t2 -20.5z" />
    <glyph glyph-name="eight" unicode="8" horiz-adv-x="540" 
d="M522 217q0 -27 -16 -54q-22 -38 -76 -78q-41 -31 -63 -45q-54 -34 -87 -34q-32 0 -137 56q-127 68 -127 130q0 51 49 116q53 63 107 126q-28 29 -56 63q-56 69 -56 111q0 21 20 51q25 37 74 75q42 34 44 35q43 29 76 29q45 0 115 -71q75 -76 75 -136q0 -59 -43 -98
q-36 -33 -70 -33q-25 0 -25 19q0 2 29 25t29 66q0 18 -49 80q-57 72 -102 72q-29 0 -57 -29t-28 -59q0 -53 97 -131q90 -69 180 -137q97 -83 97 -149zM430 188q0 47 -92 124q-86 72 -113 72q-35 0 -75 -62q-36 -55 -36 -83q0 -47 87 -103q78 -50 119 -50q42 0 76 34t34 68z
" />
    <glyph glyph-name="nine" unicode="9" horiz-adv-x="532" 
d="M517 398q0 -50 -43 -141q-48 -102 -115 -171q-80 -83 -161 -83q-26 0 -57.5 14t-31.5 32l9 12q10 12 14 12q12 -7 25 -13q27 -14 44 -14q52 0 124 108q81 122 81 252q0 84 -83 191q-78 100 -120 100q-28 0 -61 -49q-37 -55 -37 -116q0 -58 66 -127.5t127 -69.5q20 0 26 3
t21 22h35l3 -14q-6 -14 -12 -22q-37 -51 -115 -51q-50 0 -134 60q-97 69 -97 139q0 62 61 184q72 144 143 144q36 0 104 -61q75 -67 124 -150q60 -102 60 -191z" />
    <glyph glyph-name="colon" unicode=":" horiz-adv-x="152" 
d="M130 434q0 -26 -26 -43q-20 -13 -32 -13q-19 0 -36.5 17.5t-17.5 31.5q0 12 17.5 39.5t38.5 27.5q24 0 46 -35q10 -16 10 -25zM130 48q0 -20 -15 -32t-36 -12q-13 0 -34 12t-21 26q0 17 11 33q16 23 42 23q22 0 37.5 -12t15.5 -38z" />
    <glyph glyph-name="semicolon" unicode=";" horiz-adv-x="176" 
d="M133 416q0 -53 -48 -53q-22 0 -38.5 17.5t-16.5 39.5q0 21 17 38t29 17q21 0 43 -26q14 -17 14 -33zM160 -12q0 -39 -37 -69q-31 -25 -56 -25q-10 3 -15 4v13q25 18 50 35q12 10 12 30t-11.5 26t-32.5 6q-28 0 -36 3q-17 7 -17 31q0 16 22 30t37 14q25 0 54.5 -34.5
t29.5 -63.5z" />
    <glyph glyph-name="less" unicode="&#x3c;" horiz-adv-x="514" 
d="M351 666h1l3 -2l-1 -7l-5 -8l-2 -3l-2 -2l-2 -5l-1 -3q-22 -42 -62.5 -96t-89.5 -103l-41 -42l-46 -41h13q52 0 110 -46q25 -20 41 -34t73 -65l26 -25l28 -24l32 25l9 4l3 1l5 1l5 2h1l2 -3l-1 -3l-3 -5l-98 -84l-2 -2l-9 -4l-5 -1h-4l-2 3l-4 2q-27 13 -58 39l-52 53
l-4 3l-3 5q-15 17 -35 35q-12 11 -38 33q-36 30 -85 30h-7l-4 -1h-5l-3 -1l-5 -2l-3 -1l-8 -2l-5 -1l-4 2q3 6 4 7l2 2l54 54l50 53q23 23 39 42q9 10 37 44q17 19 35 42.5t37 51.5v5l-1 3v4v1q-1 5 -2 6v5l3 5l4 3l82 48z" />
    <glyph glyph-name="equal" unicode="=" horiz-adv-x="472" 
d="M443 475h-412v85h412v-85zM443 275h-412v85h412v-85z" />
    <glyph glyph-name="greater" unicode="&#x3e;" horiz-adv-x="514" 
d="M108 90h-2l-3 -1h-2l1 8q3 2 6 9l3 4l2 4q1 5 3 6q10 19 25.5 43.5t34.5 50t41.5 52t48.5 53.5l42 42l45 41h-5l-5 -2q-55 0 -113 47q-28 24 -55.5 48t-58.5 53l-27 24l-26 24l-31 -25l-3 -1l-7 -3l-2 -2q-7 -1 -8 -2l-4 -1l-4 2l3 4l4 6l98 84l5 3l6 1l3 1l7 -1l4 -3
q31 -14 57 -40l53 -52l4 -5l4 -3q34 -35 71 -68q38 -30 85 -30l8 1h4l6 1l4 1l6 1l6 1q5 1 6 2l4 -2l-1 -3l-3 -4l-57 -57l-52 -54l-75 -85q-14 -18 -33.5 -43.5t-35.5 -48.5v-5v-5l2 -5v-4l1 -3l-1 -4l-2 -3l-4 -3l-81 -48z" />
    <glyph glyph-name="question" unicode="?" horiz-adv-x="504" 
d="M487 532q0 -43 -61 -103q-57 -51 -113 -101q-62 -57 -62 -89q0 -18 18 -38q9 -10 9 -17q0 -10 -9 -15.5t-18 -5.5q-17 0 -39.5 31t-22.5 61t49 77q45 43 91 87q50 55 50 99q0 43 -68 111q-72 72 -126 72q-28 0 -61 -24q-45 -33 -45 -88q0 -46 27.5 -70.5t27.5 -34.5
q0 -12 -10 -20t-24 -8q-28 0 -51 31q-29 38 -29 98q0 91 83 156q67 52 115 52q54 0 161.5 -99.5t107.5 -161.5zM301 47q0 -14 -12 -27q-16 -17 -43 -17q-17 0 -37 11t-20 26q0 23 20.5 36.5t39.5 13.5q10 0 31 -14.5t21 -28.5z" />
    <glyph glyph-name="at" unicode="@" horiz-adv-x="635" 
d="M384 310l2 -4l3 -3l14 -14q4 -3 17 -5q13 0 28.5 10.5t39.5 39.5q13 14 20.5 34.5t7.5 40.5l-1 16l-3 16q-11 33 -42 61.5t-94 46.5h-4l-6 2q-17 5 -28.5 9.5t-28.5 14.5l-66 41q-76 -47 -117.5 -124t-41.5 -164v-17q0 -10 2 -16q7 -56 44 -104.5t99 -48.5h14l13 1
q15 2 28 7t33 16l2 1h2l5 -2l3 -3v-2l-1 -5l-1 -4l-2 -5l-72 -94l-7 -8l-7 -3q-6 -1 -7 -2h-5h-4l-4 1q-90 0 -140 67t-64 150q0 18 -2 27l-1 25q18 114 98 209t189 156q8 -1 11 -5q7 -2 10 -6l35 -21q11 -5 40 -13t40 -11q60 -15 99 -60q36 -42 41 -95v-4v-5l-1 -12l-1 -12
q-3 -19 -13 -36q-4 -8 -10.5 -17t-13.5 -16q-30 -36 -55 -62t-43 -42q-37 -31 -58 -31q-15 0 -28 13q-6 7 -14 20q-4 7 -10 18l-1 -3l-2 -2q-6 -10 -21 -20q-7 -5 -16 -9t-14 -6l-22 -8l-19 -2q-26 6 -46.5 30.5t-23.5 51.5v8q0 47 33 88q32 35 74 71q3 1 3 3l4 4l9 7
q8 5 10 8l2 1l3 2h3h2l4 -2q9 -14 20 -23q12 -6 29 -8l14 1l16 6q7 2 10 5l10 6q-3 -17 -10 -28q-5 -13 -15 -22v-126zM241 411q-6 -8 -8 -15l-3 -9v-6q0 -29 24 -52q24 -19 53 -25q8 -1 10 -3h11v107l-3 -1h-5l-3 -1l-7 -1h-5l-28 3l-21 10q-8 0 -15 -7z" />
    <glyph glyph-name="A" unicode="A" horiz-adv-x="848" 
d="M831 82q0 -19 -38.5 -50.5t-56.5 -31.5q-25 0 -66 61q-68 101 -101 139q-19 21 -100 77q-90 62 -117 62q-15 0 -58 -120q-25 -69 -25 -111q0 -18 12 -33q6 -8 24 -22q17 14 26 29q6 10 14 10t13.5 -5.5t5.5 -13.5q0 -39 -23.5 -56t-61.5 -17q-23 0 -56.5 19.5t-42.5 39.5
l95 282q-12 13 -24 16.5t-29 3.5h-19q-57 0 -102 -21t-45 -53q0 -9 5.5 -19.5t17.5 -10.5q18 0 26 18.5t19 18.5q16 0 16 -15q0 -19 -16 -37q-21 -24 -55 -24q-24 0 -41.5 17.5t-17.5 43.5q0 35 65 94q81 73 181 73q16 0 28.5 -4t16.5 -1q27 63 40 98q40 106 40 145
q0 27 -18 42t-18 23q0 11 39.5 30.5t70.5 19.5q25 0 38 -23q25 -78 58 -157q40 -100 81 -200q23 -68 36 -103q22 -59 35 -98q13 -32 20 -47q20 -46 25 -52q12 -17 25 -23t27 -6q4 0 12 1t10 1q9 0 9 -10zM560 280q-18 67 -67.5 182.5t-61.5 125.5q-15 -44 -28 -81
q-26 -75 -26 -77q0 -9 36 -26q6 -2 18 -8q18 -11 48 -37q39 -34 81 -79z" />
    <glyph glyph-name="B" unicode="B" horiz-adv-x="767" 
d="M735 267q0 -89 -127 -178q-34 -23 -67 -46q-76 -46 -124 -46q-22 0 -96 25.5t-93 40.5q0 102 -3 193t-6.5 198t-3.5 178q0 23 38 42.5t60 19.5q16 0 16 -21q0 -4 -5.5 -43.5t-5.5 -54.5q0 -20 2 -30l9 -153l12 -4q22 0 102 71q87 77 87 116q0 43 -84 100q-97 66 -208 66
q-59 0 -102.5 -42.5t-43.5 -88.5q0 -8 6 -25q3 -9 12 -28h26q0 29 6.5 39t21.5 10q6 0 13 -10.5t7 -22.5q0 -28 -22 -48t-53 -20q-38 0 -64 29t-26 67q0 66 76 128q85 69 203 69q106 0 222 -58q127 -64 127 -138q0 -38 -46 -83q-38 -37 -50 -54q13 -12 85 -54
q99 -58 99 -144zM634 231q0 54 -81 107q-68 45 -101 45q-12 0 -25 -12q-38 -35 -90 -50v-166q0 -41 69 -64q23 -7 69 -14q53 0 103 43q56 48 56 111z" />
    <glyph glyph-name="C" unicode="C" horiz-adv-x="608" 
d="M590 283q0 -111 -98 -200q-85 -78 -154 -78q-88 0 -204 141t-116 247q0 25 3 39q18 86 110 197q54 65 96 104q66 61 105 61q11 0 19.5 -4t64.5 -39q30 -19 58 -24t28 -12q-12 -20 -21 -30q-30 -30 -72 -30q-28 0 -61 17t-67 35q-59 0 -113 -143q-46 -122 -46 -190
q0 -19 18 -55q26 -51 82 -123q26 -32 65 -69q54 -51 80 -51q77 0 121 46t44 116q0 40 -39 87q-44 53 -94 53q-16 -8 -24 -14q-24 -19 -24 -42q0 -16 26 -31t26 -20q0 -19 -19 -19q-20 0 -44 16q-36 24 -36 70q0 42 36 80.5t83 38.5q49 0 100 -39q67 -51 67 -135z" />
    <glyph glyph-name="D" unicode="D" horiz-adv-x="688" 
d="M673 395q0 -35 -12 -76q-18 -62 -67 -153q-29 -58 -57 -94q-55 -71 -108 -71q-29 0 -87 14t-100 34q-25 11 -29.5 22t-4.5 69v82v157l-14 170q0 44 24 67q37 25 63 46h13q4 -16 4 -36q0 -16 -2.5 -49.5t-2.5 -45.5q0 -20 2 -35t7 -56t5 -74v-152q0 -76 46 -107
q35 -24 99 -24q57 0 96 97q32 80 32 154q-1 18 -3 32q-15 82 -82 195q-36 58 -62 88q-58 66 -115 66q-56 0 -133 -34q-95 -42 -95 -95q0 -10 8 -20q4 -5 18 -18q10 14 17.5 20.5t13.5 6.5q7 0 14 -8t7 -13q0 -29 -24.5 -49.5t-56.5 -20.5q-30 0 -50.5 20.5t-20.5 51.5
q0 35 23 69q32 47 108 93q67 42 132 61q48 14 85 14q43 0 90 -34q55 -40 124 -132q40 -52 67.5 -118t27.5 -114z" />
    <glyph glyph-name="E" unicode="E" horiz-adv-x="548" 
d="M533 226q0 -94 -83 -164q-74 -63 -152 -63q-86 0 -185 89q-94 85 -94 141q0 39 57 94q62 54 124 109q0 7 -10 14q-24 17 -26 19q-36 36 -53 56q-53 60 -53 81q0 25 58 71q59 42 61 43q24 18 60 39q54 32 72 32t44 -14q42 -25 75 -45q21 -12 36.5 -16t15.5 -9
q0 -11 -23 -28q-28 -21 -58 -21q-16 0 -65 26.5t-71 26.5q-36 0 -68 -32q-27 -27 -27 -47q0 -55 92 -111q30 -18 92 -45q-89 -67 -156 -125q-73 -63 -73 -113q42 -54 70 -80q84 -80 152 -80q49 0 83 43q30 38 30 84q0 31 -28 54.5t-50 23.5t-30.5 -8.5t-8.5 -22.5
q0 -8 2.5 -22t2.5 -17q0 -18 -19 -18q-12 0 -28 20q-11 14 -11 27q0 48 33 85q29 33 78 33q51 0 92.5 -36.5t41.5 -93.5z" />
    <glyph glyph-name="F" unicode="F" horiz-adv-x="603" 
d="M588 728q-21 -26 -26 -29q-21 -16 -56 -16q-15 0 -56 17t-63 17q-38 0 -53.5 -33.5t-15.5 -82.5q0 -17 1.5 -25t4.5 -18v-102l9 -3q9 0 31 12.5t36 12.5q14 -5 37.5 -9.5t69.5 -4.5q2 -2 3 -4.5t1 -7.5q0 -12 -25 -37q-30 -30 -58 -30q-14 0 -39 9.5t-36 9.5
q-10 0 -19.5 -10.5t-9.5 -18.5q0 -109 1.5 -247t1.5 -154q0 -92 -42 -169q-47 -86 -115 -86q-70 0 -102 29q-27 25 -27 73q0 34 26 58t54 24q25 0 47.5 -21t22.5 -37q-5 -9 -7 -16q-24 7 -33 15q-15 13 -18 13q-11 0 -19.5 -11.5t-8.5 -21.5q0 -30 25.5 -50t50.5 -20
q41 0 52 59q4 21 4 49q0 157 -2.5 265t-5.5 241t-3 241q0 60 -19 92.5t-62 32.5q-29 0 -51.5 -16t-22.5 -42q0 -14 5 -23t18 -9q12 0 17 4.5t9 7.5q4 0 10.5 -9t6.5 -15q0 -18 -15.5 -29t-36.5 -11q-32 0 -50 25t-18 61q0 40 42 73q48 37 120 37q78 0 110 -19q14 -8 35 -41
q50 36 54 39q42 26 73 26q19 -9 50.5 -22t86.5 -25v-18z" />
    <glyph glyph-name="G" unicode="G" horiz-adv-x="524" 
d="M506 439q-6 -17 -11 -34.5t-5 -27.5v-178q0 -7 -6 -22q-19 -47 -75 -92q-38 -33 -68 -52q-44 -28 -71 -28q-21 0 -75 37q-71 48 -114 114q-59 89 -59 194q0 51 21 121q16 55 50 121q16 32 75 108q74 95 102 95q7 0 50 -21l44 -22q4 -2 9.5 -2h11.5q8 0 25 1t24 1
q18 0 18 -6q0 -12 -29 -36q-36 -30 -77 -30q-28 0 -62.5 10.5t-40.5 10.5q-53 0 -91 -91q-48 -115 -48 -204q0 -85 39 -162q22 -43 60 -87q20 -26 40 -51q36 -38 68 -38q27 0 56.5 29.5t29.5 46.5v211q0 21 -26 36q-33 19 -67 19q-27 0 -38.5 -14.5t-11.5 -36.5
q0 -20 14 -35t31 -15q15 0 17.5 2t12.5 23h26v-25q-22 -34 -28 -41q-17 -18 -40 -18q-33 0 -66 31q-27 26 -27 60q0 51 38.5 85t84.5 34h177l8 -6q4 -6 4 -15z" />
    <glyph glyph-name="H" unicode="H" horiz-adv-x="729" 
d="M715 164q0 -43 -2.5 -81.5t-7.5 -61.5q-19 -91 -74 -181q-74 -122 -158 -122q-53 0 -81 24.5t-28 64.5q0 28 20 52q27 33 78 33q23 0 35 -4q3 -1 20 -10v-9q-16 5 -31 9q-16 0 -31 -21t-15 -38q0 -55 59 -55q52 0 93.5 97t41.5 223q0 50 -9 135t-25 143q-8 30 -15 60
q-15 33 -52 33q-52 -20 -78 -34q-78 -42 -78 -84v-232q19 -19 24 -23q24 -19 41 -19q22 0 22 19q0 9 -5 25t-5 19q10 4 13 4q14 0 21 -12.5t7 -32.5q0 -41 -30 -60q-25 -16 -65 -16q-35 0 -77 26t-42 54q0 141 -1 217q-4 302 -4 350q0 15 -22 40q-31 36 -77 36
q-32 0 -71 -16q-53 -22 -53 -56q0 -12 5 -18.5t21 -6.5q15 1 21 1q20 0 20 -19q0 -12 -5 -15t-24 -3q-43 0 -62 21q-15 17 -15 45q0 49 57.5 90t109.5 41q90 0 127 -20q15 -8 53 -52q21 10 57 40q26 22 54 22q29 0 60 -16.5t40 -16.5q7 4 18 6t27 2v-20q-20 -23 -47 -39
t-48 -16q-12 0 -47 15t-52 15q-34 0 -44.5 -29.5t-10.5 -80.5v-23.5t1 -22.5q0 -12 -0.5 -23.5t-0.5 -22.5q0 -37 3.5 -58.5t15.5 -21.5q5 0 114 57.5t119 57.5q27 0 51 -86q11 -39 26 -101q7 -27 12.5 -90t5.5 -108z" />
    <glyph glyph-name="I" unicode="I" horiz-adv-x="416" 
d="M402 133q0 -21 -68 -74q-75 -58 -126 -58q-22 0 -49 20q-19 14 -46 42q-30 31 -62 51t-32 25q0 10 16 20q22 14 51 14q33 0 91 -61t84 -61t34 17q1 3 11 44l-14 237v302q0 37 -14 55t-39 18q-39 0 -74 -23q-41 -27 -41 -65q0 -19 8.5 -33t25.5 -14q16 0 21 15t9 22h21
q4 -17 4 -32q0 -30 -18.5 -51.5t-46.5 -21.5q-38 0 -62.5 32t-24.5 61q0 94 130 139q78 18 156 37h29v-357q0 -128 8 -201q9 -50 18 -99z" />
    <glyph glyph-name="J" unicode="J" horiz-adv-x="380" 
d="M363 28q0 -51 -67 -157q-79 -126 -157 -126h-101q-19 0 -55 34q-47 44 -47 101q0 32 25 66q35 47 96 47q49 0 69.5 -18.5t20.5 -63.5q0 -17 -3 -28.5t-13 -11.5q-22 0 -23 31.5t-21 31.5q-18 -9 -26 -17q-27 -25 -27 -59q0 -35 22 -53t54 -18q82 0 111 72q19 47 19 149
v46q0 68 -1.5 153.5t-1.5 96.5q0 7 -2 23q-7 56 -7 70v244q0 37 -11 59q-15 30 -46 30q-25 0 -45 -17.5t-20 -44.5q0 -43 40 -44t40 -18q0 -14 -31 -29q-26 -12 -58 -12q-46 0 -63 22q-12 16 -12 52q0 72 73 114q84 48 214 48l29 -14v-247v-362q0 -46 12.5 -94t12.5 -56z
" />
    <glyph glyph-name="K" unicode="K" horiz-adv-x="785" 
d="M770 136q0 -51 -25 -86q-29 -41 -82 -41q-74 0 -121 66q-40 77 -52 101t-37 86.5t-29.5 78.5t-8.5 35.5t-13 19.5q-17 0 -41 -46q-31 -59 -31 -140q0 -42 2 -70t11.5 -47t20.5 -27t25 -8q10 0 26 6t20 6q9 0 9 -15q0 -20 -31 -41q-21 -14 -37 -14q-13 0 -59.5 17
t-71.5 34q0 138 -2 231q-7 327 -7 371q0 29 -41 69q-26 25 -48 25q-27 0 -47 -16q-25 -20 -25 -56q0 -30 17 -47q13 -13 27 -13q11 0 23.5 11t21.5 19q5 -3 11 -6q2 -3 2 -12q0 -26 -26.5 -46.5t-54.5 -20.5q-23 0 -46 20q-30 27 -30 70q0 74 59 111q50 32 132 32
q31 0 55.5 -7t46.5 -27l17.5 17.5t25.5 21.5h12l8 -10q-18 -32 -32 -66t-14 -64v-243l9 -12q26 18 49 58q28 53 57 106q49 92 106 175q15 24 30 49q7 8 39 8q9 -2 41.5 -4t58.5 -2q2 -6 4 -11q-9 -22 -19 -32q-30 -32 -83 -32q-25 0 -44 -30.5t-30.5 -50t-38 -58.5
t-26.5 -59q7 -32 12 -52q29 -118 56 -200q31 -94 44 -121q41 -88 89 -88q27 0 39.5 15t12.5 39q0 33 -13 42.5t-45 9.5q-4 11 -4 18q0 8 14.5 18.5t24.5 10.5q18 0 37.5 -21t19.5 -55z" />
    <glyph glyph-name="L" unicode="L" horiz-adv-x="664" 
d="M649 172q0 -89 -53 -132q-45 -37 -124 -37q-53 0 -107 16.5t-106 34.5q-4 0 -39 -25.5t-76 -25.5q-44 0 -44 36q0 60 80 79t80 65q0 90 -2 160q-6 211 -6 256q0 66 -14 97q-18 40 -65 40q-39 0 -64.5 -24.5t-25.5 -62.5q0 -22 19 -48.5t39 -26.5q6 0 14 5.5t21 16.5h21
q3 -7 3.5 -9.5t0.5 -7.5q0 -10 -23 -27q-31 -23 -72 -23q-36 0 -61 26t-25 73q0 50 47 101q60 65 161 65q61 0 80 -14q10 -7 37 -58q19 23 39 46q29 31 50 31q36 -10 53 -15q53 -16 53 -21q0 -15 -22.5 -38.5t-45.5 -23.5q-21 0 -39 9t-25 9q-18 0 -40.5 -35.5t-22.5 -54.5
v-410q0 -26 -14 -60q-4 -11 -15 -30q0 -12 60 -34.5t124 -22.5q43 0 77 31t34 74q0 34 -28 61q-24 23 -48 23q-15 0 -28 -8.5t-26 -16.5q-8 6 -11 9t-3 8q0 19 33.5 39t53.5 20q31 0 58 -29q37 -40 37 -111z" />
    <glyph glyph-name="M" unicode="M" horiz-adv-x="1044" 
d="M1026 77q0 -31 -20 -52t-48 -21q-36 0 -84 30q-55 35 -55 76q0 105 -2 188q-6 249 -6 302q0 24 -55 71t-78 47q-25 0 -51.5 -34t-26.5 -58q0 -215 0.5 -316t2.5 -191q0 -27 14.5 -47t38.5 -20q17 0 28 8.5t12 8.5q8 -4 13 -6q4 -7 4 -12q0 -8 -24 -27q-30 -24 -61 -24
q-43 0 -75 38q-38 45 -38 126v411q0 36 -45 84t-69 48q-28 0 -65 -45q-41 -50 -41 -104v-368q0 -21 -28 -48t-52 -27q-8 3 -13 4q3 15 6 23.5t3 9.5v499q0 29 -23 53q-19 20 -48 20q-22 0 -46 -21q-28 -25 -28 -60q0 -23 6 -30q1 -1 16 -13v-21l-15 -4q-20 0 -36.5 26
t-16.5 59q0 44 37 84q47 51 125 51q66 0 88 -27q19 -42 33 -71q26 28 53 57q43 41 66 41q27 0 70 -40q34 -33 69 -66q42 44 63 63q52 47 77 47q24 0 118 -72q22 -13 43 -30q42 -34 42 -59v-545q0 -15 14 -26t36 -11q20 0 28.5 6t8.5 17q0 9 -1 13q-7 17 -10 27q3 4 6 5.5
t11 1.5q12 0 20.5 -12t8.5 -37zM498 89q-6 -12 -45 -48q-44 -41 -61 -41q-20 13 -47 24t-62 11q-65 0 -106 -34q-42 -46 -68 -69h-13v30q53 72 114 106q66 37 153 37q7 0 69 -7t66 -9z" />
    <glyph glyph-name="N" unicode="N" horiz-adv-x="748" 
d="M730 772q-26 -49 -57 -65q-26 -12 -52 -23v-613q0 -11 6 -35q2 -8 6 -23q0 -4 -2 -7q-5 -8 -6 -11q-22 10 -79.5 91.5t-125.5 204t-136 245.5q-24 42 -41 64q0 -93 -2 -269t-2 -202q0 -19 38.5 -27.5t88.5 -8.5q18 0 35 9q2 1 22 15h13v-21q-34 -35 -67 -69
q-15 -14 -26 -14q-4 0 -31.5 10.5t-60.5 10.5q-79 0 -136 -51q-29 -32 -57 -64v22q25 75 69 108q34 21 69 43v559q0 34 -31 55q-24 16 -43 16q-36 0 -49 -23q-8 -15 -8 -46v-15q0 -24 -11 -24q-17 0 -25.5 16.5t-8.5 37.5q0 47 30 84q37 46 100 46q79 0 129 -66
q30 -45 61 -90q18 16 77 105q39 58 81 58q9 0 99 -21q47 -11 70 -11q16 0 30 5q17 8 25 11l8 -4v-13zM574 217v467q-25 17 -38 21.5t-28 4.5h-11q-44 0 -84 -47q-31 -37 -40 -71z" />
    <glyph glyph-name="O" unicode="O" 
d="M535 331q0 -103 -83 -217.5t-165 -114.5q-37 0 -90 29q-74 40 -119 115q-60 99 -60 243q0 84 25 163q19 59 49 109q25 49 43 73q56 73 121 73q8 0 22 -6t14 -16q0 -15 -34 -19.5t-60 -36.5q-19 -23 -37 -65q-5 -13 -14 -37q-16 -47 -20 -73q-10 -61 -10 -131q3 -59 5 -90
q7 -93 17 -115q7 -20 67 -74q73 -66 125 -66q47 0 82 61.5t35 156.5q0 44 -15.5 110t-21.5 94q-12 55 -49 118q-40 70 -67 70q-23 0 -48 -35q-20 -28 -20 -63q0 -32 15 -56q19 -30 50 -30q27 0 35 13t15 13q8 0 13 -7t5 -16q0 -24 -21 -48q-28 -32 -73 -32q-47 0 -79 31
t-32 82q0 68 72 150q67 77 107 77q38 0 93 -80q47 -68 65 -120q13 -38 28 -116.5t15 -116.5z" />
    <glyph glyph-name="P" unicode="P" horiz-adv-x="684" 
d="M663 152q0 -26 -58 -81q-66 -62 -123 -62q-27 0 -62 17q-46 22 -46 52q0 4 1 11.5t20 7.5q9 0 24.5 -14.5t44.5 -14.5q39 0 70 30t31 58v400q0 40 -64 98.5t-94 58.5q-18 0 -42.5 -16t-24.5 -35v-748q0 -42 29 -89q33 -54 74 -54q29 0 38 30t23 30q17 0 17 -22
q0 -19 -16 -48t-33 -29h-111q-41 0 -89 72q-39 58 -39 140v723q0 23 -23 41t-59 18q-28 0 -52 -19t-24 -36q0 -5 7 -19t11 -19q13 5 21 13h26q1 -5 2 -8t1 -7q0 -14 -12.5 -27.5t-35.5 -13.5q-35 0 -60 36q-20 29 -20 45q0 42 51.5 80.5t110.5 38.5q61 0 88 -9
q44 -15 62 -59q28 15 75 51q34 26 46 26q38 0 121 -71q94 -80 94 -146v-430z" />
    <glyph glyph-name="Q" unicode="Q" horiz-adv-x="580" 
d="M559 358q0 -97 -47 -183q-36 -66 -88 -109q-32 -27 -173 -86q-97 -40 -97 -100q0 -19 11 -30t27 -11t79 38t115 38q38 0 70 -29.5t32 -80.5q0 -12 -6 -28t-19 -16q-10 3 -17 4q0 36 -11.5 50.5t-40.5 14.5q-23 0 -86 -41t-127 -41q-50 0 -72 30q-17 23 -17 59
q0 66 38 112l84 76q-35 30 -76 73q-46 49 -76 106q-21 41 -29.5 86t-8.5 116q0 120 59 244q70 148 172 148q13 0 24.5 -6.5t11.5 -16.5q-36 -17 -76 -48q-44 -35 -70 -109q-11 -30 -19.5 -101t-8.5 -95q0 -97 57 -207q68 -131 164 -131q41 0 89 75q41 64 41 155
q0 59 -18.5 122.5t-56.5 143.5q-21 42 -27 51q-32 48 -62 48t-54 -50q-7 -16 -18 -51q0 -26 22 -64q27 -48 63 -48q11 0 21.5 9.5t16.5 9.5t13.5 -8.5t7.5 -14.5q0 -12 -20 -34q-28 -30 -67 -30q-62 0 -93 36q-26 30 -26 80q0 66 45 145q54 96 128 96q60 0 135 -124
q81 -135 81 -273z" />
    <glyph glyph-name="R" unicode="R" horiz-adv-x="744" 
d="M722 62q-8 -11 -15 -21q-33 -39 -79 -39q-48 0 -88 35q-34 30 -70 93q-41 73 -60 149q-10 42 -30 42q-57 0 -68 -63q-4 -24 -4 -71q0 -126 35 -126q9 0 26 10h20q0 -6 1 -8.5t4 -5.5q0 -8 -25.5 -27t-35.5 -19q-26 0 -67 20q-50 24 -50 52q0 122 -1.5 194.5t-3 177
t-1.5 163.5q0 54 19 66q2 1 67 33q14 -10 14 -19q-6 -26 -10.5 -62.5t-4.5 -82.5q0 -23 1 -51t3.5 -65t5 -67.5t15.5 -30.5q8 0 71 50q21 16 62 51q14 13 42 54q34 50 34 72q0 42 -65 103q-83 78 -193 78q-61 0 -124 -35t-63 -77q0 -32 29 -32q18 0 31 14q6 7 11 7
q3 -2 8 -3.5t10 -1.5q3 -9 3 -13q0 -25 -30 -48t-59 -23q-41 0 -58.5 21t-17.5 57q0 74 90 124q111 62 226 62q87 0 186 -59q114 -68 114 -153q0 -44 -72 -114t-72 -83q0 -17 25 -98.5t48 -129.5t47.5 -76.5t45.5 -28.5q25 0 38 26q7 13 15 13l20 -4v-30z" />
    <glyph glyph-name="S" unicode="S" horiz-adv-x="544" 
d="M528 263q0 -105 -73.5 -183.5t-179.5 -78.5q-105 0 -180.5 62.5t-75.5 146.5q0 49 32 85t85 36q57 0 85 -23q21 -17 42 -64q-11 -9 -18 -9q-13 0 -34.5 21.5t-43.5 21.5q-21 0 -46 -34q-20 -28 -20 -65q0 -55 45 -97q50 -47 123 -47q74 0 128 61q49 56 49 118
q0 80 -98 147q-92 51 -183 103q-99 60 -99 122q0 44 46 80q38 28 77 57q30 25 61 51q40 23 80 23q6 0 67 -15q28 -7 80 -7v-21q-22 -28 -42.5 -39t-42.5 -11q-13 0 -59 9q-26 5 -42 5h-21q-11 -3 -15 -4q-25 -5 -58.5 -37.5t-33.5 -54.5q0 -28 32 -50q82 -50 177 -110
q104 -68 130 -106.5t26 -92.5z" />
    <glyph glyph-name="T" unicode="T" horiz-adv-x="882" 
d="M868 779q0 -15 -21 -28q-14 -9 -26 -17q-34 -24 -61 -33t-55 -9q-20 0 -42 5q-54 12 -66 12q-19 0 -37.5 -6.5t-41.5 -23.5q-62 -47 -103 -171q-34 -103 -34 -177q0 -98 78 -181q69 -74 126 -74q63 0 89 74q18 51 18 136q0 51 -18 86q-22 42 -63 42q-26 0 -45 -23
t-19 -63q-8 -2 -15 -4q-12 0 -15 10t-3 25q0 32 43 72q34 31 76 31q54 0 96 -42q49 -49 49 -133q0 -120 -93 -209q-77 -74 -142 -74q-80 0 -165 99q-91 105 -91 220q0 70 26 133q23 55 72 121q35 46 103 123v13q-7 0 -17 2.5t-14 2.5q-29 -3 -49 -5q-115 -14 -206 -43
q-65 -20 -91 -36q-42 -27 -42 -70q0 -38 33 -68q23 -21 44 -27v-17q-4 -3 -11 -8t-16 -5q-28 0 -60 25q-42 33 -42 83q0 90 131 165q143 82 348 82q69 0 141.5 -8.5t144.5 -17.5q5 0 16 4q50 18 66 22q2 -8 4 -15z" />
    <glyph glyph-name="U" unicode="U" horiz-adv-x="736" 
d="M720 57q0 -22 -29 -34.5t-70 -12.5q-15 0 -49 25t-42 25q-9 0 -53 -28t-90 -28q-58 0 -111 71q-49 66 -49 118v417q0 31 -35 72q-38 45 -71 45q-30 0 -48 -41t-29 -41q-8 0 -14 7.5t-6 24.5q0 35 47 77t86 42q46 0 105 -56q63 -60 63 -117v-443q0 -26 46.5 -68.5
t75.5 -42.5q19 0 47.5 34.5t28.5 59.5v456q0 49 -34 82q-27 26 -50 26q-27 0 -56 -35q-14 -17 -26 -17q-14 0 -20 8q-2 2 -4 9q0 23 43 63q48 44 88 44q67 0 118 -61q44 -53 44 -103v-506q0 -34 13 -48q10 -11 29 -11q13 0 28 6l6 3q18 0 18 -22z" />
    <glyph glyph-name="V" unicode="V" horiz-adv-x="692" 
d="M676 445q0 -48 -19 -124t-49 -135q-23 -43 -92 -111q-77 -76 -112 -76q-27 0 -105 46q-90 53 -90 94v471q0 26 -28 59q-32 38 -68 38q-14 0 -27 -11q-17 -15 -17 -41q0 -35 51 -48q25 -6 25 -20q0 -16 -13 -22t-32 -6q-38 0 -60 25t-22 65q0 56 51 99q44 37 80 37
q28 0 68 -25l82 -56q15 0 64 44t77 44q22 0 51 -20q26 -20 53 -39q64 -44 101 -135q31 -77 31 -153zM565 408q0 70 -5.5 112t-11.5 56q-10 24 -59 74q-53 54 -77 54q-29 0 -65 -40.5t-36 -61.5v-386q0 -51 52 -94q46 -38 81 -38q24 0 41 16q21 20 38 74q20 55 26 79
q16 58 16 155z" />
    <glyph glyph-name="W" unicode="W" horiz-adv-x="1048" 
d="M1028 446q0 -107 -45 -209q-36 -82 -84 -128q-65 -65 -70 -69q-41 -33 -89 -33q-25 0 -73 28l-102 62q-11 0 -65 -47t-102 -47q-37 0 -106 45q-79 52 -79 100v473q0 16 -31 51q-35 39 -62 39q-16 -7 -24 -12q-25 -17 -25 -41q0 -38 52 -53q25 -7 25 -27q0 -5 -4 -9
q-12 -12 -39 -12q-35 0 -60 26t-25 66q0 51 46 92.5t88 41.5q37 0 87.5 -40.5t64.5 -40.5q7 0 111 61q49 29 73 29q26 0 68 -28t85 -57q6 0 81 58q35 27 62 27q26 0 58 -18q52 -40 55 -42q60 -43 91 -107q38 -77 38 -179zM921 412q0 125 -48 205q-56 94 -111 94
q-35 0 -73 -37q-33 -32 -33 -49v-418q0 -36 57 -75q51 -35 79 -35q58 0 97 122q32 101 32 193zM549 181v431q0 38 -29 70t-61 32q-46 0 -93 -45t-47 -82v-393q0 -32 47.5 -69t78.5 -37q26 0 65 34.5t39 58.5z" />
    <glyph glyph-name="X" unicode="X" horiz-adv-x="704" 
d="M686 143q0 -55 -32.5 -100t-77.5 -45q-71 0 -131 77l-64 100q-45 -68 -77 -104q-61 -68 -144 -68q-61 0 -103 43t-42 100q0 42 40 84q46 48 105 48q15 0 18.5 -1.5t15.5 -12.5v-13q-57 -25 -78 -52t-21 -71q0 -22 18 -50q23 -36 57 -36q66 0 123 126q48 107 48 185
q0 20 -6.5 30.5t-19.5 10.5q-38 0 -66 -16t-31 -16q-21 0 -21 21q0 24 32 48q37 28 94 33v26q-22 71 -43 143q-47 110 -122 110q-16 0 -34 -16q-23 -20 -23 -46q0 -44 27 -60q18 -11 55 -11h38v-22q-23 -18 -34 -24q-19 -10 -45 -10q-49 0 -77 31t-28 77q0 62 57 103
q45 32 84 32q93 0 164 -96q30 -54 61 -108q31 62 63 124q51 77 117 77q23 -5 34 -8q34 -10 34 -22q0 -8 -6 -13.5t-23 -5.5q-8 0 -21 1t-28 3q-8 0 -14.5 -2t-20.5 -18q-22 -25 -42 -69q-11 -25 -31 -89q-24 -76 -24 -100q2 -3 3.5 -8.5t2.5 -12.5h66q22 20 27 27.5t5 21.5
q-1 15 -1 27q2 1 7.5 3t10.5 2q14 0 20 -17.5t6 -42.5q0 -34 -27 -59q-17 -16 -39 -24h-13t-27 1q-23 0 -35.5 -3.5t-12.5 -15.5q0 -41 39 -153q51 -147 113 -147q29 0 41 24q9 18 9 51q0 30 -14 52q-15 20 -29 40v14q7 5 13 5q28 0 54 -40t26 -73z" />
    <glyph glyph-name="Y" unicode="Y" horiz-adv-x="656" 
d="M638 595q0 -94 -36 -239q-32 -128 -77 -243q-7 -28 -42 -103q-53 -113 -113 -187q-82 -101 -162 -101q-41 0 -87 41q-50 45 -50 95q0 46 46 77q37 25 66 25q8 0 17.5 -5.5t9.5 -14.5q0 -4 -31 -32q-16 -15 -16 -31q0 -23 20 -42q24 -23 59 -23q74 0 125 103q38 77 38 125
q0 35 -32 129q-27 80 -86 224q-27 68 -49 117q-26 59 -57 117q-26 47 -32 55q-26 34 -54 34q-13 0 -23 -14q-24 -33 -32 -33q-25 0 -25 26q0 30 33 62q38 36 83 36q48 0 87 -38q33 -32 67 -100q11 -21 62 -138q105 -274 127 -328q20 19 50 132q34 127 34 221q0 80 -37 122
q-33 37 -83 37q-30 0 -58.5 -28.5t-36.5 -28.5q-8 5 -11 7q-12 9 -12 15q0 12 28 46q67 81 147 81q78 0 114 -62q29 -50 29 -136z" />
    <glyph glyph-name="Z" unicode="Z" horiz-adv-x="596" 
d="M580 145q0 -75 -53 -112q-45 -32 -118 -32q-58 0 -126 22t-111 22q-26 0 -58 -11q-72 -25 -73 -25q-14 0 -19 7q-5 12 -8 20l197 311q-6 7 -12 15q-8 -1 -13 -1q-19 0 -34 -8q-33 -18 -39 -18l-22 3v31q45 47 80 65q25 13 48 13q8 0 15.5 -1t15.5 -2q11 0 20 5.5t21 22.5
q52 71 79.5 112.5t54.5 82.5v14q-109 0 -160 8l-86 20q-23 0 -51 -22.5t-28 -51.5q0 -27 20 -41t20 -24t-7.5 -16.5t-17.5 -6.5q-33 0 -58 26t-25 58q0 61 45 109q53 57 138 57q48 0 105 -20t118 -20q57 0 76 24q10 12 22 12q5 0 11.5 -5.5t14.5 -21.5l-208 -312v-14
q12 -3 22 -5t26 -2q35 0 55 15t25 15q9 0 15.5 -7.5t6.5 -17.5q0 -56 -104 -79q-34 -7 -104 -12q-15 -3 -76 -92.5t-76 -125.5q4 -2 9 -4q2 0 38 12q18 6 42 6q48 0 117 -27t106 -27q24 0 44 16q26 21 26 55q0 44 -44 59t-44 21q0 11 15 17t36 6q34 0 60 -27q31 -33 31 -91z
" />
    <glyph glyph-name="bracketleft" unicode="[" horiz-adv-x="232" 
d="M210 1h-187v796h178v-8h9v-79h-90v-622h90v-87z" />
    <glyph glyph-name="backslash" unicode="\" horiz-adv-x="504" 
d="M480 0h-95l-365 800h95z" />
    <glyph glyph-name="bracketright" unicode="]" horiz-adv-x="232" 
d="M209 1h-187v87h90v622h-90v79h9v8h178v-796z" />
    <glyph glyph-name="asciicircum" unicode="^" horiz-adv-x="240" 
d="M224 686q0 -12 -10.5 -23.5t-18.5 -11.5q-5 0 -40 33q-25 24 -35 34l-33 -33q-35 -34 -42 -34q-9 0 -17 8q-11 11 -11 27q0 15 40.5 59.5t61.5 44.5q18 0 61.5 -41.5t43.5 -62.5z" />
    <glyph glyph-name="underscore" unicode="_" horiz-adv-x="1000" 
d="M998 10h-996v60h996v-60z" />
    <glyph glyph-name="a" unicode="a" horiz-adv-x="434" 
d="M424 46q-17 -13 -34 -24q-28 -18 -40 -18q-20 0 -38.5 21.5t-35.5 21.5q-9 0 -53 -23.5t-56 -23.5q-49 0 -98 51t-49 110q0 57 46 100q38 35 96 35q28 0 56 -13t28 -29q0 -5 -7.5 -12.5t-13.5 -7.5q-10 8 -25 14.5t-38 6.5q-40 0 -59 -20t-19 -51q0 -32 40.5 -79.5
t68.5 -47.5q28 11 41 18q42 23 42 45v187q0 34 -44 74t-81 40q-58 0 -70 -61t-18 -61q-22 0 -37 32q-5 10 -11 32q0 27 51 74q58 54 110 54q60 0 111 -37q76 -55 76 -168v-213q16 -11 25 -11q8 6 16 6q7 0 20 -8v-14z" />
    <glyph glyph-name="b" unicode="b" horiz-adv-x="541" 
d="M523 281q0 -121 -63 -198q-68 -83 -181 -83q-25 0 -98 39q-82 44 -82 77q0 137 -2.5 239.5t-5 230t-2.5 215.5q0 19 -9.5 26t-26.5 7q-10 0 -19 -1t-17 -2v28q14 12 22.5 16.5t14.5 4.5q10 -1 18 -1q33 0 71 -30q43 -34 43 -72v-231l14 -92q29 28 53 48q48 39 85 39
q99 0 147 -84q38 -67 38 -176zM421 252q0 104 -15 142q-26 66 -109 66q-18 0 -33 -21q-5 -7 -11 -21q0 -2 3.5 -14.5t3.5 -18.5q0 -10 -6 -16t-20 -6l-34 23v-208q0 -32 48 -68.5t94 -36.5q53 0 69 53q10 33 10 126z" />
    <glyph glyph-name="c" unicode="c" horiz-adv-x="428" 
d="M411 164q0 -70 -73 -122q-61 -43 -108 -43q-38 0 -77 20q-13 6 -32 21q-64 36 -86 96q-15 41 -15 119v45q0 81 73 141q59 48 102 48l162 -9q0 -2 2 -4.5t3 -3.5q0 -18 -24 -36q-30 -23 -72 -23q-20 0 -74 13q-25 6 -33 6q-25 0 -36 -32.5t-11 -82.5q0 -130 34 -190
t109 -60q30 0 66 27q41 31 41 68q0 22 -17 39t-37 17q-11 -6 -17 -8q-19 -9 -23 -9q-13 0 -13 19q0 10 16 24q21 19 49 19t55 -21q36 -28 36 -78z" />
    <glyph glyph-name="d" unicode="d" horiz-adv-x="432" 
d="M415 193q0 -80 -78 -141q-65 -51 -119 -51q-34 0 -51.5 10.5t-32.5 20.5q-89 49 -102 76.5t-13 159.5q0 171 92 204q44 15 89 31q-11 15 -56 55q-67 60 -67 115q0 42 26 77q37 49 108 49q28 0 55 -9q39 -13 39 -37q0 -16 -17 -16q-5 0 -25 9t-39 9q-30 0 -53.5 -17
t-23.5 -37q0 -36 62 -89q155 -132 163 -139q23 -22 33 -79t10 -201zM319 219v42q0 88 -9 123q-14 54 -57 71v-14q-2 0 -8.5 -2t-14.5 -2q-6 0 -21 2t-24 2q-34 0 -51 -30q-23 -42 -23 -150q0 -95 49 -147q41 -43 96 -43q39 0 54 29q11 21 11 65q0 10 -1 28.5t-1 25.5z" />
    <glyph glyph-name="e" unicode="e" horiz-adv-x="396" 
d="M381 134q0 -37 -32 -75q-48 -56 -140 -56q-128 0 -170 90q-23 49 -23 156q0 111 54.5 176.5t146.5 65.5q62 0 109 -62q40 -53 40 -96q0 -47 -85.5 -90t-174.5 -85q0 -33 39 -65q44 -36 104 -36q34 0 58 24t24 48q0 19 -8.5 27.5t-8.5 17.5q4 12 5 20h26
q17 -15 26.5 -28.5t9.5 -31.5zM270 330q0 29 -33 66t-59 37q-39 0 -58 -53q-14 -38 -14 -89q-1 -22 -1 -33q0 -13 5 -38q84 36 125 67q35 26 35 43z" />
    <glyph glyph-name="f" unicode="f" horiz-adv-x="312" 
d="M296 753q0 -16 -15 -32q-9 -10 -25 -19h-13q-3 6 -6 13q0 2 11 19q-18 17 -28 17q-20 0 -41 -29q-7 -9 -17 -29v-163q0 -8 6.5 -15.5t15.5 -7.5q18 0 30 8t16 8t9.5 -2.5t8.5 -2.5q-4 -26 -15.5 -36.5t-27.5 -10.5q-6 0 -17.5 1.5t-13.5 0.5q-9 -5 -9 -21q0 -13 1 -22
q5 -43 5 -55q0 -85 0.5 -165t1.5 -175.5t1 -149.5t-32 -97.5t-69 -43.5q-17 0 -30 14t-13 32q0 10 4 20.5t14 10.5q7 0 11 -7q14 -28 22 -35q6 7 9 11t3 10q0 140 -3 257q-9 350 -9 412q-6 2 -11 5q-6 0 -14.5 -8.5t-21.5 -8.5q-10 3 -15 4v20q16 19 39 27.5t23 21.5v115
q0 13 13 31t48 55q27 27 51 43q31 21 53 21q20 0 35 -12t15 -30z" />
    <glyph glyph-name="g" unicode="g" horiz-adv-x="414" 
d="M430 -92q0 -90 -79 -151q-70 -54 -151 -54q-51 0 -87 30q-39 33 -39 84q0 44 34.5 76t70.5 32q11 0 25 -7t14 -19q0 -16 -36 -25t-36 -43q0 -24 31 -50t67 -26q44 0 81 34.5t37 80.5q-21 56 -36 104q-18 55 -18 121l-9 8q-15 -30 -42 -57q-40 -40 -79 -40q-65 0 -109 54
q-51 63 -51 178v15q0 27 2.5 55.5t10.5 45.5q42 44 67 66q76 66 122 66q24 0 34 -5q16 -12 32 -21q73 -41 88 -72.5t15 -161.5q0 -140 12 -205q14 -56 29 -113zM299 150v162q0 41 -52 75q-42 27 -67 27q-52 0 -66 -75q-6 -31 -6 -72q0 -94 25 -139t67 -45q17 0 31 13
q21 19 21 33q0 2 -2.5 13.5t-2.5 15.5q0 19 19 19q13 0 22 -11q6 -7 11 -16z" />
    <glyph glyph-name="h" unicode="h" horiz-adv-x="556" 
d="M538 37q0 -20 -29 -27q-13 -3 -37 -3q-61 0 -83 38q-13 22 -13 64v140q0 70 -27 120q-31 57 -84 57q-26 0 -59 -27t-33 -48v-268q0 -18 9.5 -25.5t23.5 -7.5q8 0 20 3t13 3q2 -7 5 -14q0 -18 -18 -30t-47 -12q-57 0 -75.5 31t-18.5 131v523q0 45 -26 45q-11 0 -22 -10
h-18l-4 16q0 16 17.5 33.5t45.5 17.5q45 0 68 -26t23 -67v-251q6 -4 8 -4q13 0 54 26t69 26q50 0 101 -42q62 -51 62 -124v-242q0 -24 14 -34q10 -7 29 -7q17 1 22 1q10 0 10 -6z" />
    <glyph glyph-name="i" unicode="i" horiz-adv-x="248" 
d="M168 640q0 -15 -19.5 -27t-43.5 -12q-20 0 -35 6t-15 22q0 21 18 35t40 14q18 0 36.5 -13.5t18.5 -24.5zM231 52q0 -22 -14 -37t-36 -15q-66 0 -85 69q-14 51 -14 220v130q-5 0 -16 -3q-25 -7 -32 -7q-18 0 -18 19q0 12 30 39t41 27q28 -10 42 -21q43 -36 43 -106v-289
q1 -4 1.5 -8t7.5 -18h17v26h31z" />
    <glyph glyph-name="j" unicode="j" horiz-adv-x="168" 
d="M140 643q0 -15 -16.5 -26t-30.5 -11q-18 0 -33 5t-15 16q0 8 19.5 30.5t30.5 22.5q10 0 31 -17q14 -12 14 -20zM210 -191q0 -44 -26.5 -67.5t-67.5 -23.5q-34 0 -66 11q-46 16 -46 45q0 21 15 49q20 37 45 37q6 0 16 -6t23 -19v-16q-7 -2 -17 -2q-5 0 -14 1t-13 1
q-3 -6 -5 -12q0 -12 27 -41.5t43 -29.5q14 0 25.5 20t11.5 38q0 19 -62 135q-29 54 -29 103q0 73 -5.5 211.5t-5.5 193.5q-7 -4 -15.5 -8t-21.5 -4q-3 7 -5 14q0 16 23 36t40 20q41 0 58 -42q13 -32 13 -87q0 -23 -1 -40t-2 -31q0 -71 2.5 -165.5t2.5 -117.5q0 -15 38 -115
q19 -50 19 -88z" />
    <glyph glyph-name="k" unicode="k" horiz-adv-x="448" 
d="M430 71q-19 -36 -39 -50.5t-53 -14.5q-47 0 -93 54q-15 18 -37 54q-22 31 -34 49q-23 35 -23 50t69.5 60.5t69.5 74.5q0 20 -26 49t-50 29q-25 0 -40 -18q-9 -12 -18 -23q-32 -36 -38 -51.5t-6 -65.5v-61q0 -133 7 -143q30 -3 71 -11v-13q-20 -23 -36 -31t-39 -8
q-47 0 -69 28.5t-22 72.5q0 92 -2 267t-2 202q0 19 1 55.5t3 42.5q15 32 70 72q63 46 114 46q91 0 91 -68q0 -21 -21 -46.5t-42 -25.5q-5 0 -12.5 6.5t-7.5 11.5q0 3 18 21q9 9 9 14q0 9 -20 25q-23 19 -48 19t-47 -35q-25 -39 -25 -94l4 -190q7 -5 13 -5q1 0 66.5 39.5
t86.5 39.5q22 0 63 -48q46 -54 46 -96q0 -31 -67.5 -76.5t-67.5 -54.5q0 -19 40 -88q45 -78 73 -78q18 0 30 28t23 28q11 -3 17 -4v-39z" />
    <glyph glyph-name="l" unicode="l" horiz-adv-x="252" 
d="M235 51q0 -37 -25 -45q-10 -3 -35 -3q-60 0 -82 30q-17 24 -17 84v622l-13 9q-6 -9 -10.5 -16.5t-7.5 -14.5h-27v36q14 19 24 27q15 12 34 12q22 0 49 -22q35 -28 35 -70q0 -98 0.5 -206t1.5 -210.5t2 -210.5q0 -7 4.5 -14t13.5 -17h13q1 6 1 17v13q0 19 16 19
q12 0 17.5 -14.5t5.5 -25.5z" />
    <glyph glyph-name="m" unicode="m" horiz-adv-x="852" 
d="M836 39q0 -24 -16 -31.5t-54 -7.5q-42 0 -76 24t-34 56v253q0 16 -42 50.5t-63 34.5q-15 0 -33 -7q-57 -23 -57 -78v-244q0 -24 16 -34q11 -7 33 -7q16 1 22 1v-22q-14 -11 -29 -19t-29 -8q-40 0 -71 29t-31 60v257q0 14 -30 42q-36 34 -74 34q-32 -9 -47 -20
q-48 -35 -48 -105v-217q13 -11 19 -14t14 -3q1 0 14.5 2.5t19.5 1.5q4 -5 4 -9q0 -17 -20.5 -32.5t-48.5 -15.5q-32 0 -59 22.5t-27 43.5v332q0 10 -5.5 18t-14.5 8q-8 0 -15 -8t-14 -8l-17 3q-3 7 -5 14q10 20 19 30q28 31 65 31q23 0 57 -35q17 -17 34 -17q18 0 58 24
t61 24q23 0 88 -39q31 -19 49 -19q14 0 66 27t79 27q30 0 87 -43q63 -48 63 -86v-274q0 -12 17.5 -28.5t29.5 -16.5q6 0 14.5 6.5t14.5 11.5q6 -5 11 -8.5t5 -10.5z" />
    <glyph glyph-name="n" unicode="n" horiz-adv-x="533" 
d="M530 21q-21 -15 -24 -16q-14 -7 -33 -7q-42 0 -75 35q-29 30 -29 55v240q0 28 -39.5 61t-70.5 33q-57 0 -77 -50q-13 -33 -13 -106v-42v-114q3 -31 9.5 -42.5t16.5 -11.5q4 0 13 2.5t12 2.5q13 0 21 -17q-20 -23 -26 -28q-15 -12 -40 -12q-30 0 -58 17q-32 20 -32 49v338
q0 26 -17 26q-8 0 -24.5 -6.5t-21.5 -6.5q-2 2 -3 4.5t-1 9.5q0 14 25.5 35.5t42.5 21.5q34 0 56 -28t47 -28q7 0 72 35q31 17 48 17q22 0 79 -35q65 -40 65 -71v-298q0 -35 36 -39.5t41 -5.5v-18z" />
    <glyph glyph-name="o" unicode="o" horiz-adv-x="456" 
d="M438 222q0 -103 -58.5 -158.5t-151.5 -55.5q-105 0 -160 66q-50 60 -50 157q0 100 79 183q70 74 129 74q66 0 146 -90q66 -74 66 -176zM346 208q0 87 -62 149q-53 53 -105 53q-38 0 -55 -49q-12 -35 -12 -86q0 -109 14 -152q26 -81 109 -81q59 0 88 58q23 45 23 108z" />
    <glyph glyph-name="p" unicode="p" horiz-adv-x="504" 
d="M487 247q0 -94 -61.5 -162.5t-138.5 -68.5q-46 0 -78.5 34.5t-32.5 66.5q0 31 23 53t55 22q22 0 31.5 -4t23.5 -18v-13q-7 -1 -20 0t-27 3q-11 0 -16.5 -6t-5.5 -23q0 -29 31 -48q26 -16 52 -16q44 0 72 42q24 37 24 87q0 64 -54 142.5t-96 78.5q-26 0 -65.5 -25
t-39.5 -47v-559q0 -28 18 -55q14 -21 33 -21q18 0 24 5t6 16q-1 10 -1 15q0 29 -21.5 41.5t-21.5 18.5q2 2 3.5 7.5t1.5 19.5h43l24 -18q18 -15 18 -46q0 -46 -26 -68q-22 -18 -59 -18q-67 0 -96 42q-23 34 -23 95v559q0 8 -8 28t-17 20q-5 0 -12.5 -13.5t-19.5 -13.5
q-7 0 -11.5 5.5t-4.5 14.5q0 21 26 44t46 23q23 0 47.5 -26.5t42.5 -26.5q19 0 66.5 28.5t58.5 28.5q20 0 69 -36q117 -86 117 -208z" />
    <glyph glyph-name="q" unicode="q" horiz-adv-x="440" 
d="M491 -264q0 -12 -17 -26.5t-44 -14.5q-38 0 -65 26t-27 67v179l-12 191v182q0 18 -33 46q-41 35 -95 35q-35 0 -64 -57.5t-29 -126.5q0 -65 24 -113q30 -59 84 -59q19 0 34 14t15 26q0 9 -13 19q-18 11 -25 16v21q13 2 27 5q23 0 40 -11.5t17 -32.5q0 -33 -38.5 -70.5
t-82.5 -37.5q-57 0 -107 45q-65 59 -65 164q0 111 101 197q82 70 135 70q55 0 101 -33q67 -48 67 -146q0 -107 2 -310t2 -234q0 -29 19 -29q7 0 14.5 3t18.5 9q3 -3 9.5 -6t6.5 -8z" />
    <glyph glyph-name="r" unicode="r" horiz-adv-x="408" 
d="M392 359q0 -34 -31 -61q-26 -23 -48 -23q-10 0 -18 5t-8 11q0 8 15.5 22.5t15.5 28.5t-25.5 48.5t-38.5 34.5q-24 -12 -36 -19q-36 -23 -36 -43v-259q0 -13 11 -24t19 -11q15 0 37 18t29 18q6 0 14 -5.5t8 -12.5q0 -12 -35 -45q-41 -38 -77 -38q-25 0 -58 22
q-40 27 -40 60v277q0 13 -7 37.5t-17 24.5q-5 0 -14 -9t-19 -9q-18 0 -18 18q0 11 18 34q25 31 57 31q21 0 43 -14q52 -33 55 -33q8 0 54 28t56 28q12 0 49 -41q45 -50 45 -99z" />
    <glyph glyph-name="s" unicode="s" horiz-adv-x="400" 
d="M381 160q0 -51 -45 -99q-56 -60 -145 -60q-63 0 -118 36t-55 81q0 39 35 68q30 25 59 25t53 -19.5t24 -51.5q0 -15 -5 -26t-16 -11q-10 4 -16 5v18q0 17 -3.5 27t-16.5 10q-9 0 -16.5 -12.5t-7.5 -30.5q0 -36 26 -60t62 -24q43 0 68.5 23.5t25.5 61.5q0 57 -68 95
l-126 56q-69 35 -69 84q0 43 48 85q52 46 113 46q47 0 99 -32q61 -38 61 -87q0 -23 -14.5 -38.5t-29.5 -15.5q-21 0 -21 16q0 8 7 26q4 10 4 11q0 23 -31.5 43t-70.5 20q-31 0 -51 -11.5t-20 -32.5q0 -28 67 -58q109 -50 125 -60q68 -45 68 -108z" />
    <glyph glyph-name="t" unicode="t" horiz-adv-x="368" 
d="M351 132q0 -32 -38 -81q-42 -54 -82 -54q-47 17 -70 28q-71 36 -71 72v275q0 33 -16 45q-29 12 -57 24q8 12 45.5 32.5t59.5 76.5l20 50q33 77 54 93h22q2 -7 5 -13q-18 -37 -31 -83q-16 -54 -16 -96q0 -9 6.5 -15t28.5 -6h19t20 1q29 0 44.5 -9.5t15.5 -41.5
q0 -18 -2.5 -22t-18.5 -4q-10 0 -20 9q-12 13 -18 19h-69v-308q0 -25 31 -42q24 -13 42 -13q21 0 42 41t31 41q9 0 18 -9q5 -5 5 -10zM512 959h-73h73z" />
    <glyph glyph-name="u" unicode="u" horiz-adv-x="540" 
d="M525 67q0 -19 -16.5 -35.5t-36.5 -16.5q-15 0 -47 15t-56 15q-14 0 -47 -20t-66 -20q-46 0 -104 42q-64 46 -64 95v253q0 8 -4.5 17.5t-17.5 22.5q-10 -7 -20 -18q-5 -5 -11 -5t-14 5.5t-8 14.5q0 20 26 35.5t43 15.5q20 0 55 -28.5t35 -54.5v-240q0 -19 32 -55
q41 -46 92 -46q24 0 45.5 12t21.5 32v283q-3 11 -5 18q-7 20 -17 35q-27 -13 -38 -13q-12 0 -12 19q0 12 17 30t34 18q31 0 65 -22q40 -26 40 -63v-293q0 -10 8.5 -26.5t18.5 -25.5h13q-1 16 -1 24q0 6 2.5 12.5t11.5 15.5q18 -11 21.5 -17.5t3.5 -30.5z" />
    <glyph glyph-name="v" unicode="v" horiz-adv-x="448" 
d="M430 243q0 -70 -50 -151q-57 -92 -122 -92q-56 17 -83 29q-83 37 -83 79v113v26q0 68 -5 105q-8 59 -30 59q-9 0 -17 -7h-18l-4 20q6 12 10 18q29 41 65 41q18 0 42 -31q24 -36 30 -44q19 21 41 40q45 39 74 39q9 0 38 -18q45 -27 72 -72q40 -65 40 -154zM339 200
q0 96 -15 145q-21 69 -75 69q-11 0 -36 -18q-16 -11 -39 -18q0 -55 2.5 -129.5t2.5 -93.5q0 -30 53 -59q17 -9 53 -23q34 0 46 43q8 29 8 84z" />
    <glyph glyph-name="w" unicode="w" horiz-adv-x="696" 
d="M678 253q0 -68 -42 -148q-53 -101 -129 -101q-29 0 -80 33.5t-60 33.5q-7 0 -64.5 -33.5t-73.5 -33.5q-21 0 -81 33q-68 38 -68 68v278q0 21 -9.5 28.5t-24.5 7.5q-10 0 -20.5 -1t-12.5 -1v23q26 27 42.5 35.5t29.5 8.5q22 0 50 -29t28 -55v-251q0 -22 37.5 -47.5
t67.5 -25.5q28 0 49 24q18 20 18 36v207q0 17 -18 42q-21 29 -44 29q-17 0 -39.5 -20.5t-31.5 -20.5q-12 3 -21 5v18l48 52q44 40 78 40q18 0 45 -20q34 -25 61 -68q31 40 61.5 64t57.5 24q50 0 96 -66q50 -72 50 -169zM584 218q0 94 -18 145q-21 59 -65 59q-12 0 -25 -12
q-28 -26 -39 -26l-19 3q1 -1 5 -18q1 -5 4 -17v-190q0 -28 57 -60q19 -10 57 -26q25 0 36 40q8 29 8 71v19.5t-1 11.5z" />
    <glyph glyph-name="x" unicode="x" horiz-adv-x="488" 
d="M471 48q0 -15 -38 -34q-31 -15 -71 -15q-47 0 -81 28q-26 25 -41 39q-24 -21 -47 -41q-36 -26 -81 -26q-44 0 -69.5 22.5t-25.5 60.5q0 41 23 59q16 12 38 12q20 0 35.5 -8t15.5 -20q0 -16 -16 -16q-15 2 -22 2q-17 0 -17 -18q0 -12 18 -23.5t49 -11.5q35 0 53 33
q12 22 12 40v94q-9 0 -25 -5q-6 -2 -9 -2q-8 0 -15 5.5t-7 14.5q0 10 37 38q18 14 18 26q0 56 -25 97t-58 41q-29 0 -46 -47q-5 -15 -11 -48h-26q0 9 -1.5 16.5t-3.5 12.5q0 64 39 91q30 21 83 21q47 0 63 -9t55 -60q27 24 55 48q29 17 65 17q32 0 56 -27q21 -24 21 -44
q0 -18 -4 -23t-16 -5q-4 0 -23 24t-52 24q-31 0 -55.5 -35t-24.5 -85q0 -16 3.5 -20.5t16.5 -4.5q14 0 35 11q11 6 17 6t16 -7q3 -2 9 -8q0 -45 -48.5 -45t-48.5 -41q0 -40 12.5 -76.5t39.5 -54.5q25 -15 49 -15q17 0 38 8t25 8q11 0 11 -24z" />
    <glyph glyph-name="y" unicode="y" horiz-adv-x="464" 
d="M444 -118q0 -79 -61 -136q-54 -51 -111 -51q-43 0 -81 16q-52 22 -52 62q0 36 30 61.5t56 25.5q13 0 36.5 -11t23.5 -22q-4 -9 -4 -13q-5 -1 -9 -1h-5q-10 0 -14.5 5.5t-15.5 5.5q-10 0 -19 -9t-9 -21q0 -19 27.5 -41t57.5 -22q52 0 69 50q10 29 10 94l-8 177q-4 0 -6 2
t-3 4q-1 0 -40 -23t-61 -23q-9 0 -73 26q-71 29 -81 44q-4 7 -4 18q0 7 2 17t2 11v208q0 10 -8 48q-2 12 -8 36q-7 8 -17 8q-6 0 -16 -4q-23 -9 -26 -9q-12 0 -12 24q0 10 21.5 27.5t46.5 17.5q29 0 61 -30q38 -36 38 -85v-229q32 -32 64.5 -49t56.5 -17q11 0 37 24t26 38
v238q0 14 -11 34t-26 20q-4 0 -16 -10t-26 -10q-18 0 -18 18t29 38t53 20q32 0 63 -34.5t31 -59.5v-508z" />
    <glyph glyph-name="z" unicode="z" horiz-adv-x="472" 
d="M457 100q0 -46 -32 -74q-23 -21 -52 -25q-7 -1 -11 -1q-61 6 -138.5 10.5t-166.5 4.5q-9 -1 -14 -1q-12 0 -20 3.5t-8 14.5q0 17 66 99q70 87 75 101q-6 1 -14 1q-6 0 -16 -2.5t-22 -2.5l-4 22q0 16 60 25q33 5 45 12.5t46 53.5q11 15 33 47q0 10 -45 23.5t-91 13.5
q-14 0 -31 -17t-17 -28q0 -16 12.5 -21.5t12.5 -16.5q0 -16 -11 -20t-32 -4q-28 0 -47.5 20.5t-19.5 53.5q0 47 46 78q36 24 64 24q14 0 120 -38q50 -18 85 -18q38 0 64.5 20.5t31.5 20.5q9 0 16.5 -8.5t7.5 -13.5q0 -16 -32 -55q-83 -101 -87 -110q12 -9 21 -9q4 0 18 5
t29 5q11 0 15.5 -4.5t4.5 -21.5q0 -21 -9.5 -29.5t-28.5 -8.5q-11 0 -37 4t-40 4q-13 0 -21.5 -2.5t-16 -10.5t-52.5 -66q-50 -64 -67 -93q8 -4 54 -12.5t82 -8.5q34 0 61 17q32 20 32 50q0 12 -10 25t-10 23q0 4 3.5 11t15.5 7q21 0 51.5 -26t30.5 -51z" />
    <glyph glyph-name="braceleft" unicode="{" horiz-adv-x="306" 
d="M294 728q-3 3 -6.5 4t-4.5 2l-11 2q-15 4 -26 4q-10 2 -26 2q-45 0 -72 -23t-27 -69q0 -18 1.5 -28t7.5 -29l18 -46l15 -29q2 -5 6 -14t5 -14l2 -8v-8v-7l-1 -6l-9 -23q-5 -9 -13 -16l-3 -3h-4l-2 1h-2q15 -7 19 -16l12 -21l3 -10l1 -9q0 -28 -10 -54l-23 -44l-21 -38
q-11 -19 -11 -35q0 -41 20 -67q11 -14 23 -27q7 -7 28 -26l40 -27l41 -33l3 -1l1 -4v-4l-3 -1l-2 -1l-40 23l-38 23q-36 21 -60.5 40.5t-47.5 45.5q-40 47 -40 123q0 30 10 48l19 30l2 3l16 23q9 13 9 35v1l1 2q0 15 -9 27l-18 18l-7 5l-4 4q-9 9 -13 14.5t-4 10.5
q30 3 42.5 15.5t12.5 30.5l-4 31l-16 36l-6 15l-8 13q-5 14 -9 22q-7 13 -10 19q-9 18 -11 30v11l1 5v7q6 28 30 49q29 27 57 33l10 1l10 1l35 -2q13 -2 19 -3.5t14.5 -5t19.5 -8.5t22 -14z" />
    <glyph glyph-name="bar" unicode="|" horiz-adv-x="140" 
d="M25 0v800h90v-800h-90z" />
    <glyph glyph-name="braceright" unicode="}" horiz-adv-x="300" 
d="M59 764q18 14 44 23q6 3 16 5l15 3l34 3l11 -2l10 -1q28 -6 57 -33q24 -21 30 -49v-7l1 -5v-11q-2 -12 -9.5 -27.5t-10.5 -21.5q-8 -17 -10 -22l-8 -13l-6 -15l-16 -36l-4 -31q0 -18 12.5 -30.5t42.5 -15.5q0 -5 -5 -13l-12 -12l-4 -4l-7 -5l-18 -18q-9 -12 -9 -27l1 -2
v-1q0 -22 9 -35l16 -23l2 -3l19 -30q10 -18 10 -48q0 -76 -40 -123q-20 -22 -48.5 -45t-59.5 -41l-38 -23l-40 -23l-2 1l-3 1v4l1 3l3 2l41 33l40 27q19 17 21 19q17 16 30 34q20 26 20 67q0 16 -11 35l-21 38l-23 44q-10 26 -10 54l1 9l3 10l12 21q2 4 6 7.5t13 8.5h-2
l-2 -1h-4l-3 3q-8 7 -13 16l-9 23l-1 6v7v8l2 8q2 9 4.5 15t6.5 13l15 29l18 46q3 11 6 27.5t3 29.5q0 46 -27 69t-72 23q-16 0 -26 -2q-11 0 -26 -4l-11 -2q-7 -3 -11 -6z" />
    <glyph glyph-name="asciitilde" unicode="~" horiz-adv-x="514" 
d="M165 703l7 1h5q21 0 42 -11l43 -22l8 -5l8 -5q8 -5 15 -8.5t19 -7.5q15 -7 35 -7l19 3l21 10l20 17q6 5 10 10q1 1 11 15l3 1l5 1h2l8 -4l4 -8l-1 -5l-2 -4l-4 -2l-6 -6l-5 -5l-22 -25l-19 -22q-14 -16 -32 -29q-18 -10 -41 -10l-1 1h-1q-23 0 -46 10l-41 23l-5 3l-4 3
l-35 18q-12 5 -19.5 6.5t-19.5 1.5q-22 0 -49 -14q-15 -7 -30 -18.5t-33 -29.5l-3 -3l-6 -2l-11 2l-5 7l-1 4l1 4l2 4l2 2l18 15q10 8 15 15l15 15l14 16q17 19 36.5 31.5t49.5 12.5z" />
    <glyph glyph-name="c128" horiz-adv-x="816" 
d="M787 4h-766v786h766v-786zM777 14v767h-746v-767h746zM716 679h-337v-238h204v-75h-204v-301h-286v72h214v542h-225v66h634v-66z" />
    <glyph glyph-name="c129" horiz-adv-x="1068" 
d="M1032 43h-1010v727h1010v-727zM1018 57v698h-981v-698h981zM959 476q0 -101 -66 -169t-166 -68h-174v132h-66v-132h-58v132h-211q0 -23 1 -59.5t1 -49.5q0 -64 -14 -89q-17 -31 -75 -57h-29v28q25 15 33 24q18 20 18 50v480h70v-234l235 234h29v-285h66v285h211
q123 -43 159 -85.5t36 -136.5zM879 476q0 77 -24 112q-20 29 -142 65h-87v-369h57q42 3 75 11q121 32 121 181zM422 422v151l-153 -151h153z" />
    <glyph glyph-name="exclamdown" unicode="&#xa1;" horiz-adv-x="176" 
d="M157 757q0 -20 -18 -31.5t-39 -11.5q-16 0 -33 8q-27 12 -27 35q0 19 17 31t39 12q25 0 43 -13t18 -30zM143 97q2 -22 -12 -53q-17 -38 -42 -38q-32 0 -50.5 34.5t-18.5 69.5l15 183v178q0 89 27 150q23 51 44 51q17 0 17 -22q0 -10 -10 -57q-6 -27 -12 -53z" />
    <glyph glyph-name="cent" unicode="&#xa2;" horiz-adv-x="460" 
d="M441 288q0 -71 -63 -119l-142 -64v-97l-30 -4q-18 0 -21.5 16.5t-3.5 35.5v21q0 20 -2.5 33.5t-10.5 23.5q-11 6 -24 13q-23 14 -44 30q-52 41 -67 81q-11 28 -11 89v36q0 125 28 169q24 38 129 97v131q2 1 8.5 8t11.5 7q34 0 37 -66.5t24 -75.5q14 -6 73 -10t78 -14
q-26 -67 -92 -67q-23 0 -49 8q-66 20 -83 20q-38 0 -51 -53.5t-13 -181.5q0 -67 41.5 -115t104.5 -48q43 0 80 31t37 60q0 32 -14 43.5t-38 11.5q-8 0 -19.5 -1.5t-24.5 -2.5q-19 0 -19 15t21 29t49 14q42 0 71 -31t29 -73z" />
    <glyph glyph-name="sterling" unicode="&#xa3;" horiz-adv-x="584" 
d="M562 170q0 -89 -52 -131q-44 -36 -123 -36q-55 0 -107 16t-104 34q-26 -20 -52.5 -35t-61.5 -15q-44 0 -44 36q0 59 79.5 78t79.5 64l-1 224h-128v54h116v160q0 24 42 61q30 25 43 35q24 25 43 42q38 34 57 34q35 -10 52 -15q53 -16 53 -21q0 -15 -22 -38t-45 -23
q-21 0 -39 9t-25 9q-19 0 -40.5 -35t-21.5 -54v-164h130v-54h-130v-189q0 -25 -14 -59q-4 -11 -15 -30q0 -11 59.5 -33.5t122.5 -22.5q43 0 76.5 30.5t33.5 73.5q0 34 -26 59t-49 25q-15 0 -28 -9q-24 -16 -26 -17q-1 2 -7 7.5t-6 10.5q0 19 33 38.5t53 19.5q31 0 58 -29
q36 -39 36 -110z" />
    <glyph glyph-name="yen" unicode="&#xa5;" horiz-adv-x="708" 
d="M687 60h-196q-24 -47 -47 -93q-49 -90 -100 -144q-71 -75 -139 -75q-40 0 -85 40q-49 44 -49 93q0 46 45 76q36 24 65 24q8 0 17 -5.5t9 -14.5q0 -8 -23 -25t-23 -37q0 -22 21.5 -42.5t56.5 -20.5q70 0 120 97q39 101 41 106v19h-184v47h168q3 8 3 17q-5 10 -5 23
q0 10 2 18h-168v47h133q4 10 4 13q0 5 -48.5 129.5t-54.5 136.5q-40 89 -57 122q-57 111 -98 111q-13 0 -28 -23t-26 -23q-25 0 -25 25q0 30 33 61q37 35 81 35q73 0 147 -128q48 -83 111.5 -259t77.5 -200q25 15 54 134.5t29 207.5q0 78 -36 119q-32 36 -82 36
q-29 0 -56.5 -27.5t-36.5 -27.5q-8 4 -11 6q-12 8 -12 15q0 21 48 67q60 57 124 57q76 0 112 -61q29 -50 29 -133q0 -92 -31 -217q-24 -98 -55 -172h145v-51h-158q-3 -11 -6.5 -21t-14.5 -33h179v-49z" />
    <glyph glyph-name="dieresis" unicode="&#xa8;" horiz-adv-x="396" 
d="M326 572q0 -24 -23 -39q-17 -11 -29 -11q-17 0 -32.5 15.5t-15.5 28.5q0 17 22 43q14 17 28 17q17 0 33.5 -21t16.5 -33zM166 572q0 -24 -23 -39q-17 -11 -29 -11q-17 0 -32.5 15.5t-15.5 28.5q0 17 22 43q14 17 28 17q17 0 33.5 -21t16.5 -33z" />
    <glyph glyph-name="copyright" unicode="&#xa9;" horiz-adv-x="790" 
d="M378 758q78 0 147.5 -31t124.5 -87q27 -26 48.5 -58t36.5 -67q28 -65 28 -145q0 -44 -6.5 -79t-21 -69t-36 -66t-49.5 -59q-26 -27 -58 -48.5t-67 -36.5q-68 -27 -149 -27q-39 0 -66.5 4t-61.5 17q-58 19 -113 63.5t-88 97.5t-47 123v7l-2 9v8l-2 8v5q-1 5 -2 6v5v6v5
l-1 6v5v5q0 77 27 145q24 64 83 128q54 56 124 87t151 31v2zM378 710q-67 0 -129 -27.5t-109 -77.5t-74 -113q-13 -34 -18.5 -63t-5.5 -65v-9v-6v-9l2 -8v-9l2 -7v-9l2 -9q6 -28 16 -54t25 -51q30 -48 76.5 -85t98.5 -57t112 -20h1v-1h3v-1h2q72 0 128 26t105 76t74.5 111.5
t25.5 124.5q0 68 -25.5 128t-74.5 110t-108 76t-129 26v3zM571 294q0 -70 -73 -122q-61 -43 -108 -43q-38 0 -77 20q-13 6 -32 21q-64 36 -86 96q-15 41 -15 119v45q0 81 73 141q59 48 102 48l162 -9q0 -2 2 -4.5t3 -3.5q0 -18 -24 -36q-30 -23 -72 -23q-20 0 -74 13
q-25 6 -33 6q-25 0 -36 -32.5t-11 -82.5q0 -130 34 -190t109 -60q30 0 66 27q41 31 41 68q0 22 -17 39t-37 17q-11 -6 -17 -8q-19 -9 -23 -9q-13 0 -13 19q0 10 16 24q21 19 49 19t55 -21q36 -28 36 -78z" />
    <glyph glyph-name="ordfeminine" unicode="&#xaa;" horiz-adv-x="350" 
d="M327 478q-11 -9 -24 -17q-20 -13 -29 -13q-14 0 -27.5 15.5t-26.5 15.5q-6 0 -37 -17t-41 -17q-36 0 -71 37t-35 79q0 41 33 71q29 26 70 26q19 0 39.5 -9.5t20.5 -20.5q0 -3 -3 -6q-7 -8 -12 -8q-6 4 -12 7q-13 7 -33 7q-29 0 -43 -14t-14 -36q0 -23 29.5 -57.5
t48.5 -34.5q20 8 30 13q30 16 30 32v135q0 25 -31.5 53.5t-57.5 28.5q-42 0 -51 -43.5t-13 -43.5q-16 0 -27 23q-3 7 -8 23q0 18 37 52q43 39 80 39q29 0 57 -13q77 -36 77 -134v-153q11 -8 19 -8q5 4 10 4q4 0 15 -6v-10zM0 430h355v-50h-355v50z" />
    <glyph glyph-name="guillemotleft" unicode="&#xab;" horiz-adv-x="450" 
d="M240 650l-225 -225l225 -270v125l-110 145l110 105v120zM420 650l-225 -225l225 -270v125l-110 145l110 105v120z" />
    <glyph glyph-name="logicalnot" unicode="&#xac;" horiz-adv-x="705" 
d="M30 340h645v-340h-130v220h-515v120z" />
    <glyph glyph-name="minus" unicode="&#xad;" horiz-adv-x="472" 
d="M443 375h-412v85h412v-85z" />
    <glyph glyph-name="registered" unicode="&#xae;" horiz-adv-x="790" 
d="M378 758q78 0 147 -32q36 -15 65.5 -35.5t59.5 -51.5q27 -26 48.5 -58t36.5 -67q28 -66 28 -147q0 -43 -6 -77t-22 -70q-30 -68 -87 -123q-26 -27 -58 -48.5t-67 -36.5q-69 -27 -147 -27q-40 0 -71.5 5.5t-66.5 18.5q-61 23 -120 76q-55 48 -85.5 109.5t-39.5 136.5
l-2 33q0 37 8 74t22 71q28 69 85 128q27 29 58 51t67 38q68 30 147 30v2zM378 710q-67 0 -129 -27.5t-109 -77.5t-74 -113q-13 -34 -18.5 -63t-5.5 -65v-9v-6v-9l2 -8v-9l2 -7v-9l2 -9q6 -28 16 -54t25 -51q30 -48 76.5 -85t98.5 -57t112 -20h1v-1h3v-1h2q72 0 127.5 26
t104.5 76.5t74 111.5t25 124q0 68 -24.5 127.5t-74 110t-108 76.5t-128.5 26v3zM174 595h214l12 -3h14l13 -2l13 -1q10 -2 19 -4t23 -7t20 -8t19 -12q17 -9 28 -30q11 -17 11 -42v-4q0 -15 -1.5 -21.5t-7.5 -17.5q-5 -15 -23 -26l-33 -19l-35 -12l-16 -3l-13 -2q-9 0 -13 -3
q-8 0 -12 -2q25 -8 44 -18l31 -20l21 -20q3 -5 7 -10.5t6 -9.5l5 -15l4 -15l1 -14q0 -9 2 -13v-14q0 -9 2 -14l3 -12l8 -11l2 -3l4 -2l2 -2l3 -1l3 -2h3h4h4q4 1 4 3l3 1l3 2l4 2l2 2l5 8l4 10l2 10l1 10l1 3v2v4v2v6l1 4v3l24 2v-16v-5v-4l-3 -20l-5 -18l-9 -15l-12 -13
l-9 -6l-10 -4l-12 -4q-9 -1 -11 -3l-6 -2h-4h-4h-5h-2h-3h-4l-16 2l-13 6l-12 6l-9 8l-15 19l-7 21q0 12 -4 23l-1 24q0 25 -5 41q-1 8 -4 17t-9 20q-7 18 -34 28q-14 4 -29.5 6t-40.5 2l-1 3v-132q0 -18 5 -29t15 -16l21 -9q12 -4 24 -4v-22h-211v25l26 1l20 7q9 6 13 16
l6 28v282q0 17 -6 25q-2 8 -13 16l-21 6q-7 3 -25 5v26v0zM320 394l5 -3h4h4h6l4 -3h5h4h6h4h4q14 0 21 3l22 5q12 4 20 9l18 14l10 11l7 12l6 13l3 15l1 3v3v4v4l-1 3v5v3l-1 6l-2 5q-1 8 -2 10.5t-3 3.5q-2 7 -10 16l-15 12l-19 10l-19 7l-9 2l-8 2h-4l-4 1h-4
q-17 0 -22.5 -1.5t-16.5 -8.5q-4 -2 -11 -12q-3 -8 -3 -16v-138v0z" />
    <glyph glyph-name="macron" unicode="&#xaf;" horiz-adv-x="748" 
d="M715 823h-680v85h680v-85z" />
    <glyph glyph-name="degree" unicode="&#xb0;" horiz-adv-x="316" 
d="M287 661q0 -27 -10 -47q-9 -22 -28 -40q-9 -10 -17.5 -16t-25 -13.5t-46.5 -7.5q-14 0 -22.5 1t-19.5 6t-19 8.5t-17.5 11t-16 15t-12.5 17.5q-8 17 -10 22.5t-5 18.5l-1 5l-1 5l13 6q2 -4 4 -8.5t2 -9.5l-4 -2q-5 2 -16 13v7v3v4q0 25 10 48q3 10 11 21t16 20
q21 21 40 28q24 11 49 11v-12l-6 6v6q35 0 54 -11q22 -8 40 -27q18 -15 28 -39t10 -50zM247 662q0 7 -1 12.5t-7 19.5t-17 28q-3 3 -9.5 8t-18.5 11q-19 7 -39 7v13h12v-13q-12 0 -20.5 -1.5t-22 -7t-23.5 -18.5q-13 -14 -19 -28l-6 -33v-4v-4l1 -4l1 -4q2 -13 9 -27l20 -21
q9 -8 25 -15q13 -4 19.5 -4.5t15.5 -0.5v-12h-13v12h20v-20h-19v20h13v-13h-13v13h8q17 0 31 5q17 10 18 11l11 11t8 10.5t9 18t7 30.5z" />
    <glyph glyph-name="plusminus" unicode="&#xb1;" horiz-adv-x="472" 
d="M442 424h-160v-164h-88v164l-163 1v90l155 -3v160h96v-160h160v-88zM443 125h-412v85h412v-85z" />
    <glyph glyph-name="twosuperior" unicode="&#xb2;" horiz-adv-x="296" 
d="M276 484q-6 -28 -10 -41q-15 -42 -34 -42h-199q-3 6 -5 12q0 8 66 96q37 50 57 86q12 18 23 36q23 38 23 53q0 18 -31 46t-56 28q-26 0 -40.5 -20.5t-14.5 -39.5q0 -27 24 -36t24 -15q0 -7 -4 -8.5t-15 -1.5q-27 0 -44 19.5t-17 38.5q0 38 27 67q31 34 83 34q47 0 84 -38
q34 -35 34 -68q0 -40 -43 -91q-120 -143 -120 -144q7 -4 14 -7h96q16 0 33.5 12t17.5 28q0 10 -3.5 15.5t-5.5 9.5q0 13 9 13q7 0 19 -20q8 -13 8 -22z" />
    <glyph glyph-name="threesuperior" unicode="&#xb3;" horiz-adv-x="304" 
d="M282 505q0 -21 -35 -58q-45 -48 -101 -48q-30 0 -65 20q-44 25 -44 60q0 23 16 38t41 15q15 0 19 -1.5t12 -11.5v-13q-21 -4 -29 -11t-8 -18q0 -20 16.5 -35.5t50.5 -15.5q33 0 58 20t25 45q0 9 -10 36t-23 38q-17 15 -43 18.5t-26 14.5q0 6 51 51q25 22 25 39
q0 23 -30 43.5t-55 20.5q-20 0 -36 -15t-16 -30q0 -5 7.5 -11.5t7.5 -12.5q0 -11 -10 -11q-15 0 -26 9t-11 21q0 14 20 38q44 52 93 52q29 0 76 -44q28 -26 28 -44q0 -14 -13 -31t-51 -51q12 -10 21 -11.5t14 -3.5q20 -12 35.5 -45.5t15.5 -56.5z" />
    <glyph glyph-name="acute" unicode="&#xb4;" horiz-adv-x="425" 
d="M154 800l-43 18q12 9 22 17q4 3 22 20l41 40l36 44l35 47l81 -26q-10 -13 -18 -23.5t-23 -26.5q-21 -21 -48 -42l-51 -37l-54 -33v2z" />
    <glyph glyph-name="periodcentered" unicode="&#xb7;" horiz-adv-x="132" 
d="M116 412q0 -24 -23 -39q-17 -11 -29 -11q-17 0 -32.5 15.5t-15.5 28.5q0 17 22 43q14 17 28 17q17 0 33.5 -21t16.5 -33z" />
    <glyph glyph-name="periodcentered" unicode="&#x2219;" horiz-adv-x="132" 
d="M116 412q0 -24 -23 -39q-17 -11 -29 -11q-17 0 -32.5 15.5t-15.5 28.5q0 17 22 43q14 17 28 17q17 0 33.5 -21t16.5 -33z" />
    <glyph glyph-name="cedilla" unicode="&#xb8;" horiz-adv-x="428" 
d="M256 -97q0 -18 -17.5 -38.5t-32.5 -20.5q-8 0 -21.5 8.5t-13.5 17.5q0 14 7 17.5t21 3.5q18 0 24 2t6 17q0 10 -3 14q-16 12 -34 25v8l9 2q15 0 35 -16.5t20 -39.5z" />
    <glyph glyph-name="onesuperior" unicode="&#xb9;" horiz-adv-x="220" 
d="M197 415q0 -3 -5 -11h-128v16q15 6 23 8q15 5 15 18v250q0 28 -3 40q-7 27 -24 27q-9 0 -17 -14t-15 -14q-8 0 -9 5.5t-1 8.5q0 13 24 32t37 19q18 -7 27 -14q27 -23 27 -70v-250q0 -26 24.5 -37t24.5 -14z" />
    <glyph glyph-name="ordmasculine" unicode="&#xba;" horiz-adv-x="350" 
d="M328 606q0 -74 -42.5 -114.5t-109.5 -40.5q-75 0 -115 48q-36 43 -36 113q0 72 57 132q51 53 93 53q47 0 105 -65q48 -54 48 -126zM261 595q0 63 -45 108q-38 38 -75 38q-33 0 -43 -51q-5 -25 -5 -46q0 -79 10 -110q18 -58 78 -58q43 0 64 42q16 32 16 77zM0 430h355v-50
h-355v50z" />
    <glyph glyph-name="guillemotright" unicode="&#xbb;" horiz-adv-x="450" 
d="M433 425l-225 -270v125l110 145l-110 105v120zM253 425l-225 -270v125l110 145l-110 105v120z" />
    <glyph glyph-name="onequarter" unicode="&#xbc;" horiz-adv-x="605" 
d="M197 415q0 -3 -5 -11h-128v16q15 6 23 8q15 5 15 18v250q0 28 -3 40q-7 27 -24 27q-9 0 -17 -14t-15 -14q-8 0 -9 5.5t-1 8.5q0 13 24 32t37 19q18 -7 27 -14q27 -23 27 -70v-250q0 -26 24.5 -37t24.5 -14zM586 84q-6 -28 -10 -41q-15 -42 -34 -42h-199q-3 6 -5 12
q0 8 66 96q37 50 57 86q12 18 23 36q23 38 23 53q0 18 -31 46t-56 28q-26 0 -40.5 -20.5t-14.5 -39.5q0 -27 24 -36t24 -15q0 -7 -4 -8.5t-15 -1.5q-27 0 -44 19.5t-17 38.5q0 38 27 67q31 34 83 34q47 0 84 -38q34 -35 34 -68q0 -40 -43 -91q-120 -143 -120 -144
q7 -4 14 -7h96q16 0 33.5 12t17.5 28q0 10 -3.5 15.5t-5.5 9.5q0 13 9 13q7 0 19 -20q8 -13 8 -22zM25 0l430 800h75l-435 -800h-70z" />
    <glyph glyph-name="onehalf" unicode="&#xbd;" horiz-adv-x="555" 
d="M197 415q0 -3 -5 -11h-128v16q15 6 23 8q15 5 15 18v250q0 28 -3 40q-7 27 -24 27q-9 0 -17 -14t-15 -14q-8 0 -9 5.5t-1 8.5q0 13 24 32t37 19q18 -7 27 -14q27 -23 27 -70v-250q0 -26 24.5 -37t24.5 -14zM25 0l430 800h75l-435 -800h-70zM506 161q0 -38 -29.5 -55.5
t-29.5 -25.5q0 -45 22 -52t25 -9v-14h-141v18q24 0 33 8q13 11 13 43v22q-22 8 -35 11q-41 11 -71 11q-19 0 -24.5 -7t-9.5 -7q-12 0 -12 15q0 16 16 53q22 52 60 101.5t81 88.5q39 35 56 35q9 0 9 -11q0 -3 -10.5 -15.5t-10.5 -28.5v-196q0 -11 12 -11q20 0 26 23
q3 11 3 24l7 2q4 0 7 -7t3 -16zM399 144v160q0 7 -9 11q-23 -32 -43 -60q-40 -57 -40 -71q0 -11 23 -18q44 -13 63 -22h6z" />
    <glyph glyph-name="threequarters" unicode="&#xbe;" horiz-adv-x="605" 
d="M70 0l430 800h75l-435 -800h-70zM551 161q0 -38 -29.5 -55.5t-29.5 -25.5q0 -45 22 -52t25 -9v-14h-141v18q24 0 33 8q13 11 13 43v22q-22 8 -35 11q-41 11 -71 11q-19 0 -24.5 -7t-9.5 -7q-12 0 -12 15q0 16 16 53q22 52 60 101.5t81 88.5q39 35 56 35q9 0 9 -11
q0 -3 -10.5 -15.5t-10.5 -28.5v-196q0 -11 12 -11q20 0 26 23q3 11 3 24l7 2q4 0 7 -7t3 -16zM444 144v160q0 7 -9 11q-23 -32 -43 -60q-40 -57 -40 -71q0 -11 23 -18q44 -13 63 -22h6zM282 505q0 -21 -35 -58q-45 -48 -101 -48q-30 0 -65 20q-44 25 -44 60q0 23 16 38
t41 15q15 0 19 -1.5t12 -11.5v-13q-21 -4 -29 -11t-8 -18q0 -20 16.5 -35.5t50.5 -15.5q33 0 58 20t25 45q0 9 -10 36t-23 38q-17 15 -43 18.5t-26 14.5q0 6 51 51q25 22 25 39q0 23 -30 43.5t-55 20.5q-20 0 -36 -15t-16 -30q0 -5 7.5 -11.5t7.5 -12.5q0 -11 -10 -11
q-15 0 -26 9t-11 21q0 14 20 38q44 52 93 52q29 0 76 -44q28 -26 28 -44q0 -14 -13 -31t-51 -51q12 -10 21 -11.5t14 -3.5q20 -12 35.5 -45.5t15.5 -56.5z" />
    <glyph glyph-name="questiondown" unicode="&#xbf;" horiz-adv-x="516" 
d="M325 768q0 -23 -23 -38q-18 -12 -37 -12q-10 0 -29 13q-23 16 -23 30t12 27q16 17 43 17q17 0 37 -11t20 -26zM494 223q0 -91 -83 -156q-67 -52 -115 -52q-54 0 -160 98q-109 101 -109 163q0 43 61 103q56 50 113 101q62 57 62 89q0 18 -18 38q-9 10 -9 17q0 10 9 15.5
t18 5.5q17 0 39.5 -31t22.5 -61t-47.5 -75.5t-92.5 -88.5q-50 -55 -50 -99q0 -43 68 -111q72 -72 126 -72q28 0 61 24q45 33 45 88q0 46 -27.5 70.5t-27.5 34.5q0 12 10 20t24 8q28 0 51 -31q29 -38 29 -98z" />
    <glyph glyph-name="Agrave" unicode="&#xc0;" horiz-adv-x="848" 
d="M831 82q0 -19 -38.5 -50.5t-56.5 -31.5q-25 0 -66 61q-68 101 -101 139q-19 21 -100 77q-90 62 -117 62q-15 0 -58 -120q-25 -69 -25 -111q0 -18 12 -33q6 -8 24 -22q17 14 26 29q6 10 14 10t13.5 -5.5t5.5 -13.5q0 -39 -23.5 -56t-61.5 -17q-23 0 -56.5 19.5t-42.5 39.5
l95 282q-12 13 -24 16.5t-29 3.5h-19q-57 0 -102 -21t-45 -53q0 -9 5.5 -19.5t17.5 -10.5q18 0 26 18.5t19 18.5q16 0 16 -15q0 -19 -16 -37q-21 -24 -55 -24q-24 0 -41.5 17.5t-17.5 43.5q0 35 65 94q81 73 181 73q16 0 28.5 -4t16.5 -1q27 63 40 98q40 106 40 145
q0 27 -18 42t-18 23q0 11 39.5 30.5t70.5 19.5q25 0 38 -23q25 -78 58 -157q40 -100 81 -200q23 -68 36 -103q22 -59 35 -98q13 -32 20 -47q20 -46 25 -52q12 -17 25 -23t27 -6q4 0 12 1t10 1q9 0 9 -10zM560 280q-18 67 -67.5 182.5t-61.5 125.5q-15 -44 -28 -81
q-26 -75 -26 -77q0 -9 36 -26q6 -2 18 -8q18 -11 48 -37q39 -34 81 -79zM440 846q-29 14 -55 30.5t-51 38.5l-46 41q-11 12 -20 22.5t-21 27.5l77 30l35 -49l39 -44l41 -42l46 -38l-45 -17v0z" />
    <glyph glyph-name="Aacute" unicode="&#xc1;" horiz-adv-x="853" 
d="M831 82q0 -19 -38.5 -50.5t-56.5 -31.5q-25 0 -66 61q-68 101 -101 139q-19 21 -100 77q-90 62 -117 62q-15 0 -58 -120q-25 -69 -25 -111q0 -18 12 -33q6 -8 24 -22q17 14 26 29q6 10 14 10t13.5 -5.5t5.5 -13.5q0 -39 -23.5 -56t-61.5 -17q-23 0 -56.5 19.5t-42.5 39.5
l95 282q-12 13 -24 16.5t-29 3.5h-19q-57 0 -102 -21t-45 -53q0 -9 5.5 -19.5t17.5 -10.5q18 0 26 18.5t19 18.5q16 0 16 -15q0 -19 -16 -37q-21 -24 -55 -24q-24 0 -41.5 17.5t-17.5 43.5q0 35 65 94q81 73 181 73q16 0 28.5 -4t16.5 -1q27 63 40 98q40 106 40 145
q0 27 -18 42t-18 23q0 11 39.5 30.5t70.5 19.5q25 0 38 -23q25 -78 58 -157q40 -100 81 -200q23 -68 36 -103q22 -59 35 -98q13 -32 20 -47q20 -46 25 -52q12 -17 25 -23t27 -6q4 0 12 1t10 1q9 0 9 -10zM560 280q-18 67 -67.5 182.5t-61.5 125.5q-15 -44 -28 -81
q-26 -75 -26 -77q0 -9 36 -26q6 -2 18 -8q18 -11 48 -37q39 -34 81 -79zM354 800l-43 18q12 9 22 17q4 3 22 20l41 40l36 44l35 47l81 -26q-10 -13 -18 -23.5t-23 -26.5q-21 -21 -48 -42l-51 -37l-54 -33v2z" />
    <glyph glyph-name="Acircumflex" unicode="&#xc2;" horiz-adv-x="848" 
d="M831 82q0 -19 -38.5 -50.5t-56.5 -31.5q-25 0 -66 61q-68 101 -101 139q-19 21 -100 77q-90 62 -117 62q-15 0 -58 -120q-25 -69 -25 -111q0 -18 12 -33q6 -8 24 -22q17 14 26 29q6 10 14 10t13.5 -5.5t5.5 -13.5q0 -39 -23.5 -56t-61.5 -17q-23 0 -56.5 19.5t-42.5 39.5
l95 282q-12 13 -24 16.5t-29 3.5h-19q-57 0 -102 -21t-45 -53q0 -9 5.5 -19.5t17.5 -10.5q18 0 26 18.5t19 18.5q16 0 16 -15q0 -19 -16 -37q-21 -24 -55 -24q-24 0 -41.5 17.5t-17.5 43.5q0 35 65 94q81 73 181 73q16 0 28.5 -4t16.5 -1q27 63 40 98q40 106 40 145
q0 27 -18 42t-18 23q0 11 39.5 30.5t70.5 19.5q25 0 38 -23q25 -78 58 -157q40 -100 81 -200q23 -68 36 -103q22 -59 35 -98q13 -32 20 -47q20 -46 25 -52q12 -17 25 -23t27 -6q4 0 12 1t10 1q9 0 9 -10zM560 280q-18 67 -67.5 182.5t-61.5 125.5q-15 -44 -28 -81
q-26 -75 -26 -77q0 -9 36 -26q6 -2 18 -8q18 -11 48 -37q39 -34 81 -79zM433 920q-5 -8 -12 -16t-17 -18l-30 -29q-6 -6 -17 -13.5t-17 -11.5q-12 -9 -18 -12.5t-20 -11.5l-16 17l34 40l31 43l28 43l27 44l57 2l26 -46l29 -43l31 -43l33 -42l-20 -13q-16 7 -36 20
q-15 9 -33 26l-31 29l-29 33v2z" />
    <glyph glyph-name="Atilde" unicode="&#xc3;" horiz-adv-x="848" 
d="M831 82q0 -19 -38.5 -50.5t-56.5 -31.5q-25 0 -66 61q-68 101 -101 139q-19 21 -100 77q-90 62 -117 62q-15 0 -58 -120q-25 -69 -25 -111q0 -18 12 -33q6 -8 24 -22q17 14 26 29q6 10 14 10t13.5 -5.5t5.5 -13.5q0 -39 -23.5 -56t-61.5 -17q-23 0 -56.5 19.5t-42.5 39.5
l95 282q-12 13 -24 16.5t-29 3.5h-19q-57 0 -102 -21t-45 -53q0 -9 5.5 -19.5t17.5 -10.5q18 0 26 18.5t19 18.5q16 0 16 -15q0 -19 -16 -37q-21 -24 -55 -24q-24 0 -41.5 17.5t-17.5 43.5q0 35 65 94q81 73 181 73q16 0 28.5 -4t16.5 -1q27 63 40 98q40 106 40 145
q0 27 -18 42t-18 23q0 11 39.5 30.5t70.5 19.5q25 0 38 -23q25 -78 58 -157q40 -100 81 -200q23 -68 36 -103q22 -59 35 -98q13 -32 20 -47q20 -46 25 -52q12 -17 25 -23t27 -6q4 0 12 1t10 1q9 0 9 -10zM560 280q-18 67 -67.5 182.5t-61.5 125.5q-15 -44 -28 -81
q-26 -75 -26 -77q0 -9 36 -26q6 -2 18 -8q18 -11 48 -37q39 -34 81 -79zM368 920l5 1h5q12 0 17.5 -1.5t15.5 -7.5l35 -17l7 -5l6 -3q11 -7 26.5 -13t19.5 -6h10l16 3q8 2 16 8q6 3 16 13q7 5 17 20l3 1l5 1l8 -3l2 -7l-1 -4l-1 -3l-3 -2l-5 -5l-4 -3q-5 -8 -9 -12l-9 -9
q-8 -9 -14.5 -16.5t-12.5 -13.5q-1 -1 -14 -11q-14 -8 -34 -8l-1 1q-19 0 -37 8l-34 19l-3 2l-4 2q-8 6 -15.5 9l-12.5 5q-14 8 -31 8t-39.5 -11t-51.5 -40l-3 -2l-4 -2l-9 2l-5 5l-1 4l1 3l2 3l2 2l14 12l13 12l11 12l12 13q13 15 28.5 25t40.5 10z" />
    <glyph glyph-name="Adieresis" unicode="&#xc4;" horiz-adv-x="848" 
d="M831 82q0 -19 -38.5 -50.5t-56.5 -31.5q-25 0 -66 61q-68 101 -101 139q-19 21 -100 77q-90 62 -117 62q-15 0 -58 -120q-25 -69 -25 -111q0 -18 12 -33q6 -8 24 -22q17 14 26 29q6 10 14 10t13.5 -5.5t5.5 -13.5q0 -39 -23.5 -56t-61.5 -17q-23 0 -56.5 19.5t-42.5 39.5
l95 282q-12 13 -24 16.5t-29 3.5h-19q-57 0 -102 -21t-45 -53q0 -9 5.5 -19.5t17.5 -10.5q18 0 26 18.5t19 18.5q16 0 16 -15q0 -19 -16 -37q-21 -24 -55 -24q-24 0 -41.5 17.5t-17.5 43.5q0 35 65 94q81 73 181 73q16 0 28.5 -4t16.5 -1q27 63 40 98q40 106 40 145
q0 27 -18 42t-18 23q0 11 39.5 30.5t70.5 19.5q25 0 38 -23q25 -78 58 -157q40 -100 81 -200q23 -68 36 -103q22 -59 35 -98q13 -32 20 -47q20 -46 25 -52q12 -17 25 -23t27 -6q4 0 12 1t10 1q9 0 9 -10zM560 280q-18 67 -67.5 182.5t-61.5 125.5q-15 -44 -28 -81
q-26 -75 -26 -77q0 -9 36 -26q6 -2 18 -8q18 -11 48 -37q39 -34 81 -79zM546 882q0 -24 -23 -39q-17 -11 -29 -11q-17 0 -32.5 15.5t-15.5 28.5q0 17 22 43q14 17 28 17q17 0 33.5 -21t16.5 -33zM386 882q0 -24 -23 -39q-17 -11 -29 -11q-17 0 -32.5 15.5t-15.5 28.5
q0 17 22 43q14 17 28 17q17 0 33.5 -21t16.5 -33z" />
    <glyph glyph-name="Aring" unicode="&#xc5;" horiz-adv-x="847" 
d="M831 82q0 -19 -38.5 -50.5t-56.5 -31.5q-25 0 -66 61q-68 101 -101 139q-19 21 -100 77q-90 62 -117 62q-15 0 -58 -120q-25 -69 -25 -111q0 -18 12 -33q6 -8 24 -22q17 14 26 29q6 10 14 10t13.5 -5.5t5.5 -13.5q0 -39 -23.5 -56t-61.5 -17q-23 0 -56.5 19.5t-42.5 39.5
l95 282q-12 13 -24 16.5t-29 3.5h-19q-57 0 -102 -21t-45 -53q0 -9 5.5 -19.5t17.5 -10.5q18 0 26 18.5t19 18.5q16 0 16 -15q0 -19 -16 -37q-21 -24 -55 -24q-24 0 -41.5 17.5t-17.5 43.5q0 35 65 94q81 73 181 73q16 0 28.5 -4t16.5 -1q27 63 40 98q40 106 40 145
q0 27 -18 42t-18 23q0 11 39.5 30.5t70.5 19.5q25 0 38 -23q25 -78 58 -157q40 -100 81 -200q23 -68 36 -103q22 -59 35 -98q13 -32 20 -47q20 -46 25 -52q12 -17 25 -23t27 -6q4 0 12 1t10 1q9 0 9 -10zM560 280q-18 67 -67.5 182.5t-61.5 125.5q-15 -44 -28 -81
q-26 -75 -26 -77q0 -9 36 -26q6 -2 18 -8q18 -11 48 -37q39 -34 81 -79zM506 877q0 -14 -5 -23q-3 -10 -12 -18q-8 -9 -18 -13.5t-24 -4.5q-13 0 -21.5 4t-15.5 10l-13 14l-7 20l9 4q2 -4 3.5 -8t1.5 -6q0 -1 -2.5 -0.5t-12.5 9.5v5v1v2v1v1q0 15 3.5 22.5t14 19t18.5 13.5
q5 3 10.5 4t12.5 1v-10l-5 5v5q18 0 27 -5q5 -1 9 -4t10 -9q10 -10 12 -18q5 -9 5 -22zM490 876l-3 16q-4 9 -10.5 15t-13.5 9l-15 3v-5l-5 5l-12 -3q-5 -2 -13 -10l-9 -14l-3 -16v-2v-2v6l-8 2q-1 -1 8 -10v-2l5 -13l10 -11l12 -7l9 -2l10 -1h-9h10h-5l15 3q7 3 13.5 9
t10.5 15z" />
    <glyph glyph-name="AE" unicode="&#xc6;" horiz-adv-x="1158" 
d="M1097 235q0 -96 -96 -172q-73 -58 -103 -58h-173q-61 71 -114 146q-46 65 -149 134q-32 20 -63 40q-33 18 -47 18q-17 0 -58 -122q-23 -68 -23 -106q0 -19 4.5 -27t31.5 -29q16 13 26 30q6 10 13 10q18 0 18 -20q0 -41 -27 -59q-21 -14 -58 -14q-21 0 -54.5 19.5
t-42.5 39.5l93 281q-11 13 -20.5 17t-23.5 4q-16 -1 -27 -1q-41 0 -82 -13q-65 -21 -65 -61q0 -11 7 -20t18 -9q18 0 25 18t19 18q7 0 12 -5t5 -10q0 -18 -15 -35q-22 -25 -58 -25q-23 0 -39 15q-19 18 -19 44q0 53 82 110t163 57q13 0 26.5 -3.5t18.5 -0.5q11 6 45.5 115
t34.5 127q0 26 -17.5 41.5t-17.5 22.5q0 13 38 31.5t69 18.5q24 0 39 -30q34 -83 76 -185q25 -69 38 -105q40 -108 50 -125q55 34 81 58q22 20 22 29q0 5 -16 18q-10 7 -19 14q-35 35 -55 58q-52 60 -52 81q0 26 56 70q60 42 64 45q24 19 65 43q49 29 67 29q26 0 63 -22
q87 -52 107 -54q4 -5 4 -9q0 -11 -26 -30.5t-57 -19.5q-21 0 -48 16q-65 38 -89 38q-28 0 -61.5 -27.5t-33.5 -51.5q0 -40 58 -81q64 -39 128 -77q-88 -68 -154 -121q-72 -58 -72 -102q0 -22 61 -92q77 -88 156 -88q37 0 70 26q46 36 46 103q0 30 -28.5 55.5t-50.5 25.5
q-18 0 -27.5 -8.5t-9.5 -34.5v-20q0 -12 -3.5 -19t-14.5 -7t-26 17t-15 30q0 48 35.5 82.5t78.5 34.5q52 0 92 -34q44 -38 44 -97zM560 285q-17 61 -65 177.5t-64 129.5q-19 -62 -35 -105q-7 -20 -20 -52q0 -8 35 -23q5 -2 16 -7q26 -15 79 -66z" />
    <glyph glyph-name="Ccedilla" unicode="&#xc7;" horiz-adv-x="608" 
d="M590 283q0 -111 -98 -200q-85 -78 -154 -78q-88 0 -204 141t-116 247q0 25 3 39q18 86 110 197q54 65 96 104q66 61 105 61q11 0 19.5 -4t64.5 -39q30 -19 58 -24t28 -12q-12 -20 -21 -30q-30 -30 -72 -30q-28 0 -61 17t-67 35q-59 0 -113 -143q-46 -122 -46 -190
q0 -19 18 -55q26 -51 82 -123q26 -32 65 -69q54 -51 80 -51q77 0 121 46t44 116q0 40 -39 87q-44 53 -94 53q-16 -8 -24 -14q-24 -19 -24 -42q0 -16 26 -31t26 -20q0 -19 -19 -19q-20 0 -44 16q-36 24 -36 70q0 42 36 80.5t83 38.5q49 0 100 -39q67 -51 67 -135zM386 -97
q0 -18 -17.5 -38.5t-32.5 -20.5q-8 0 -21.5 8.5t-13.5 17.5q0 14 7 17.5t21 3.5q18 0 24 2t6 17q0 10 -3 14q-16 12 -34 25v8l9 2q15 0 35 -16.5t20 -39.5z" />
    <glyph glyph-name="Egrave" unicode="&#xc8;" horiz-adv-x="548" 
d="M538 226q0 -94 -83 -164q-74 -63 -152 -63q-86 0 -185 89q-94 85 -94 141q0 39 57 94q62 54 124 109q0 7 -10 14q-24 17 -26 19q-36 36 -53 56q-53 60 -53 81q0 25 58 71q59 42 61 43q24 18 60 39q54 32 72 32t44 -14q42 -25 75 -45q21 -12 36.5 -16t15.5 -9
q0 -11 -23 -28q-28 -21 -58 -21q-16 0 -65 26.5t-71 26.5q-36 0 -68 -32q-27 -27 -27 -47q0 -55 92 -111q30 -18 92 -45q-89 -67 -156 -125q-73 -63 -73 -113q42 -54 70 -80q84 -80 152 -80q49 0 83 43q30 38 30 84q0 31 -28 54.5t-50 23.5t-30.5 -8.5t-8.5 -22.5
q0 -8 2.5 -22t2.5 -17q0 -18 -19 -18q-12 0 -28 20q-11 14 -11 27q0 48 33 85q29 33 78 33q51 0 92.5 -36.5t41.5 -93.5zM345 826q-29 14 -55 30.5t-51 38.5l-46 41q-11 12 -20 22.5t-21 27.5l77 30l35 -49l39 -44l41 -42l46 -38l-45 -17v0z" />
    <glyph glyph-name="Eacute" unicode="&#xc9;" horiz-adv-x="548" 
d="M294 800l-43 18q12 9 22 17q4 3 22 20l41 40l36 44l35 47l81 -26q-10 -13 -18 -23.5t-23 -26.5q-21 -21 -48 -42l-51 -37l-54 -33v2zM533 226q0 -94 -83 -164q-74 -63 -152 -63q-86 0 -185 89q-94 85 -94 141q0 39 57 94q62 54 124 109q0 7 -10 14q-24 17 -26 19
q-36 36 -53 56q-53 60 -53 81q0 25 58 71q59 42 61 43q24 18 60 39q54 32 72 32t44 -14q42 -25 75 -45q21 -12 36.5 -16t15.5 -9q0 -11 -23 -28q-28 -21 -58 -21q-16 0 -65 26.5t-71 26.5q-36 0 -68 -32q-27 -27 -27 -47q0 -55 92 -111q30 -18 92 -45q-89 -67 -156 -125
q-73 -63 -73 -113q42 -54 70 -80q84 -80 152 -80q49 0 83 43q30 38 30 84q0 31 -28 54.5t-50 23.5t-30.5 -8.5t-8.5 -22.5q0 -8 2.5 -22t2.5 -17q0 -18 -19 -18q-12 0 -28 20q-11 14 -11 27q0 48 33 85q29 33 78 33q51 0 92.5 -36.5t41.5 -93.5z" />
    <glyph glyph-name="Ecircumflex" unicode="&#xca;" horiz-adv-x="548" 
d="M533 226q0 -94 -83 -164q-74 -63 -152 -63q-86 0 -185 89q-94 85 -94 141q0 39 57 94q62 54 124 109q0 7 -10 14q-24 17 -26 19q-36 36 -53 56q-53 60 -53 81q0 25 58 71q59 42 61 43q24 18 60 39q54 32 72 32t44 -14q42 -25 75 -45q21 -12 36.5 -16t15.5 -9
q0 -11 -23 -28q-28 -21 -58 -21q-16 0 -65 26.5t-71 26.5q-36 0 -68 -32q-27 -27 -27 -47q0 -55 92 -111q30 -18 92 -45q-89 -67 -156 -125q-73 -63 -73 -113q42 -54 70 -80q84 -80 152 -80q49 0 83 43q30 38 30 84q0 31 -28 54.5t-50 23.5t-30.5 -8.5t-8.5 -22.5
q0 -8 2.5 -22t2.5 -17q0 -18 -19 -18q-12 0 -28 20q-11 14 -11 27q0 48 33 85q29 33 78 33q51 0 92.5 -36.5t41.5 -93.5zM283 910q-5 -8 -12 -16t-17 -18l-30 -29q-6 -6 -17 -13.5t-17 -11.5q-12 -9 -18 -12.5t-20 -11.5l-16 17l34 40l31 43l28 43l27 44l57 2l26 -46l29 -43
l31 -43l33 -42l-20 -13q-16 7 -36 20q-15 9 -33 26l-31 29l-29 33v2z" />
    <glyph glyph-name="Edieresis" unicode="&#xcb;" horiz-adv-x="548" 
d="M533 226q0 -94 -83 -164q-74 -63 -152 -63q-86 0 -185 89q-94 85 -94 141q0 39 57 94q62 54 124 109q0 7 -10 14q-24 17 -26 19q-36 36 -53 56q-53 60 -53 81q0 25 58 71q59 42 61 43q24 18 60 39q54 32 72 32t44 -14q42 -25 75 -45q21 -12 36.5 -16t15.5 -9
q0 -11 -23 -28q-28 -21 -58 -21q-16 0 -65 26.5t-71 26.5q-36 0 -68 -32q-27 -27 -27 -47q0 -55 92 -111q30 -18 92 -45q-89 -67 -156 -125q-73 -63 -73 -113q42 -54 70 -80q84 -80 152 -80q49 0 83 43q30 38 30 84q0 31 -28 54.5t-50 23.5t-30.5 -8.5t-8.5 -22.5
q0 -8 2.5 -22t2.5 -17q0 -18 -19 -18q-12 0 -28 20q-11 14 -11 27q0 48 33 85q29 33 78 33q51 0 92.5 -36.5t41.5 -93.5zM406 882q0 -24 -23 -39q-17 -11 -29 -11q-17 0 -32.5 15.5t-15.5 28.5q0 17 22 43q14 17 28 17q17 0 33.5 -21t16.5 -33zM246 882q0 -24 -23 -39
q-17 -11 -29 -11q-17 0 -32.5 15.5t-15.5 28.5q0 17 22 43q14 17 28 17q17 0 33.5 -21t16.5 -33z" />
    <glyph glyph-name="Igrave" unicode="&#xcc;" horiz-adv-x="416" 
d="M402 133q0 -21 -68 -74q-75 -58 -126 -58q-22 0 -49 20q-19 14 -46 42q-30 31 -62 51t-32 25q0 10 16 20q22 14 51 14q33 0 91 -61t84 -61t34 17q1 3 11 44l-14 237v302q0 37 -14 55t-39 18q-39 0 -74 -23q-41 -27 -41 -65q0 -19 8.5 -33t25.5 -14q16 0 21 15t9 22h21
q4 -17 4 -32q0 -30 -18.5 -51.5t-46.5 -21.5q-38 0 -62.5 32t-24.5 61q0 94 130 139q78 18 156 37h29v-357q0 -128 8 -201q9 -50 18 -99zM280 826q-29 14 -55 30.5t-51 38.5l-46 41q-11 12 -20 22.5t-21 27.5l77 30l35 -49l39 -44l41 -42l46 -38l-45 -17v0z" />
    <glyph glyph-name="Iacute" unicode="&#xcd;" horiz-adv-x="416" 
d="M402 133q0 -21 -68 -74q-75 -58 -126 -58q-22 0 -49 20q-19 14 -46 42q-30 31 -62 51t-32 25q0 10 16 20q22 14 51 14q33 0 91 -61t84 -61t34 17q1 3 11 44l-14 237v302q0 37 -14 55t-39 18q-39 0 -74 -23q-41 -27 -41 -65q0 -19 8.5 -33t25.5 -14q16 0 21 15t9 22h21
q4 -17 4 -32q0 -30 -18.5 -51.5t-46.5 -21.5q-38 0 -62.5 32t-24.5 61q0 94 130 139q78 18 156 37h29v-357q0 -128 8 -201q9 -50 18 -99zM254 800l-43 18q12 9 22 17q4 3 22 20l41 40l36 44l35 47l81 -26q-10 -13 -18 -23.5t-23 -26.5q-21 -21 -48 -42l-51 -37l-54 -33v2z
" />
    <glyph glyph-name="Icircumflex" unicode="&#xce;" horiz-adv-x="416" 
d="M402 133q0 -21 -68 -74q-75 -58 -126 -58q-22 0 -49 20q-19 14 -46 42q-30 31 -62 51t-32 25q0 10 16 20q22 14 51 14q33 0 91 -61t84 -61t34 17q1 3 11 44l-14 237v302q0 37 -14 55t-39 18q-39 0 -74 -23q-41 -27 -41 -65q0 -19 8.5 -33t25.5 -14q16 0 21 15t9 22h21
q4 -17 4 -32q0 -30 -18.5 -51.5t-46.5 -21.5q-38 0 -62.5 32t-24.5 61q0 94 130 139q78 18 156 37h29v-357q0 -128 8 -201q9 -50 18 -99zM233 910q-5 -8 -12 -16t-17 -18l-30 -29q-6 -6 -17 -13.5t-17 -11.5q-12 -9 -18 -12.5t-20 -11.5l-16 17l34 40l31 43l28 43l27 44
l57 2l26 -46l29 -43l31 -43l33 -42l-20 -13q-16 7 -36 20q-15 9 -33 26l-31 29l-29 33v2z" />
    <glyph glyph-name="Idieresis" unicode="&#xcf;" horiz-adv-x="416" 
d="M402 133q0 -21 -68 -74q-75 -58 -126 -58q-22 0 -49 20q-19 14 -46 42q-30 31 -62 51t-32 25q0 10 16 20q22 14 51 14q33 0 91 -61t84 -61t34 17q1 3 11 44l-14 237v302q0 37 -14 55t-39 18q-39 0 -74 -23q-41 -27 -41 -65q0 -19 8.5 -33t25.5 -14q16 0 21 15t9 22h21
q4 -17 4 -32q0 -30 -18.5 -51.5t-46.5 -21.5q-38 0 -62.5 32t-24.5 61q0 94 130 139q78 18 156 37h29v-357q0 -128 8 -201q9 -50 18 -99zM386 882q0 -24 -23 -39q-17 -11 -29 -11q-17 0 -32.5 15.5t-15.5 28.5q0 17 22 43q14 17 28 17q17 0 33.5 -21t16.5 -33zM226 882
q0 -24 -23 -39q-17 -11 -29 -11q-17 0 -32.5 15.5t-15.5 28.5q0 17 22 43q14 17 28 17q17 0 33.5 -21t16.5 -33z" />
    <glyph glyph-name="Ntilde" unicode="&#xd1;" horiz-adv-x="748" 
d="M730 772q-26 -49 -57 -65q-26 -12 -52 -23v-613q0 -11 6 -35q2 -8 6 -23q0 -4 -2 -7q-5 -8 -6 -11q-22 10 -79.5 91.5t-125.5 204t-136 245.5q-24 42 -41 64q0 -93 -2 -269t-2 -202q0 -19 38.5 -27.5t88.5 -8.5q18 0 35 9q2 1 22 15h13v-21q-34 -35 -67 -69
q-15 -14 -26 -14q-4 0 -31.5 10.5t-60.5 10.5q-79 0 -136 -51q-29 -32 -57 -64v22q25 75 69 108q34 21 69 43v559q0 34 -31 55q-24 16 -43 16q-36 0 -49 -23q-8 -15 -8 -46v-15q0 -24 -11 -24q-17 0 -25.5 16.5t-8.5 37.5q0 47 30 84q37 46 100 46q79 0 129 -66
q30 -45 61 -90q18 16 77 105q39 58 81 58q9 0 99 -21q47 -11 70 -11q16 0 30 5q17 8 25 11l8 -4v-13zM574 217v467q-25 17 -38 21.5t-28 4.5h-11q-44 0 -84 -47q-31 -37 -40 -71zM305 953l7 1h5q21 0 42 -11l43 -22l8 -5l8 -5q8 -5 15 -8.5t19 -7.5q15 -7 35 -7l19 3l21 10
l20 17q6 5 10 10q1 1 11 15l3 1l5 1h2l8 -4l4 -8l-1 -5l-2 -4l-4 -2l-6 -6l-5 -5l-22 -25l-19 -22q-14 -16 -32 -29q-18 -10 -41 -10l-1 1h-1q-23 0 -46 10l-41 23l-5 3l-4 3l-35 18q-12 5 -19.5 6.5t-19.5 1.5q-22 0 -49 -14q-15 -7 -30 -18.5t-33 -29.5l-3 -3l-6 -2l-11 2
l-5 7l-1 4l1 4l2 4l2 2l18 15q10 8 15 15l15 15l14 16q17 19 36.5 31.5t49.5 12.5z" />
    <glyph glyph-name="Ograve" unicode="&#xd2;" 
d="M535 331q0 -103 -83 -217.5t-165 -114.5q-37 0 -90 29q-74 40 -119 115q-60 99 -60 243q0 84 25 163q19 59 49 109q25 49 43 73q56 73 121 73q8 0 22 -6t14 -16q0 -15 -34 -19.5t-60 -36.5q-19 -23 -37 -65q-5 -13 -14 -37q-16 -47 -20 -73q-10 -61 -10 -131q3 -59 5 -90
q7 -93 17 -115q7 -20 67 -74q73 -66 125 -66q47 0 82 61.5t35 156.5q0 44 -15.5 110t-21.5 94q-12 55 -49 118q-40 70 -67 70q-23 0 -48 -35q-20 -28 -20 -63q0 -32 15 -56q19 -30 50 -30q27 0 35 13t15 13q8 0 13 -7t5 -16q0 -24 -21 -48q-28 -32 -73 -32q-47 0 -79 31
t-32 82q0 68 72 150q67 77 107 77q38 0 93 -80q47 -68 65 -120q13 -38 28 -116.5t15 -116.5zM280 826q-29 14 -55 30.5t-51 38.5l-46 41q-11 12 -20 22.5t-21 27.5l77 30l35 -49l39 -44l41 -42l46 -38l-45 -17v0z" />
    <glyph glyph-name="Oacute" unicode="&#xd3;" horiz-adv-x="555" 
d="M354 800l-43 18q12 9 22 17q4 3 22 20l41 40l36 44l35 47l81 -26q-10 -13 -18 -23.5t-23 -26.5q-21 -21 -48 -42l-51 -37l-54 -33v2zM535 331q0 -103 -83 -217.5t-165 -114.5q-37 0 -90 29q-74 40 -119 115q-60 99 -60 243q0 84 25 163q19 59 49 109q25 49 43 73
q56 73 121 73q8 0 22 -6t14 -16q0 -15 -34 -19.5t-60 -36.5q-19 -23 -37 -65q-5 -13 -14 -37q-16 -47 -20 -73q-10 -61 -10 -131q3 -59 5 -90q7 -93 17 -115q7 -20 67 -74q73 -66 125 -66q47 0 82 61.5t35 156.5q0 44 -15.5 110t-21.5 94q-12 55 -49 118q-40 70 -67 70
q-23 0 -48 -35q-20 -28 -20 -63q0 -32 15 -56q19 -30 50 -30q27 0 35 13t15 13q8 0 13 -7t5 -16q0 -24 -21 -48q-28 -32 -73 -32q-47 0 -79 31t-32 82q0 68 72 150q67 77 107 77q38 0 93 -80q47 -68 65 -120q13 -38 28 -116.5t15 -116.5z" />
    <glyph glyph-name="Ocircumflex" unicode="&#xd4;" 
d="M535 331q0 -103 -83 -217.5t-165 -114.5q-37 0 -90 29q-74 40 -119 115q-60 99 -60 243q0 84 25 163q19 59 49 109q25 49 43 73q56 73 121 73q8 0 22 -6t14 -16q0 -15 -34 -19.5t-60 -36.5q-19 -23 -37 -65q-5 -13 -14 -37q-16 -47 -20 -73q-10 -61 -10 -131q3 -59 5 -90
q7 -93 17 -115q7 -20 67 -74q73 -66 125 -66q47 0 82 61.5t35 156.5q0 44 -15.5 110t-21.5 94q-12 55 -49 118q-40 70 -67 70q-23 0 -48 -35q-20 -28 -20 -63q0 -32 15 -56q19 -30 50 -30q27 0 35 13t15 13q8 0 13 -7t5 -16q0 -24 -21 -48q-28 -32 -73 -32q-47 0 -79 31
t-32 82q0 68 72 150q67 77 107 77q38 0 93 -80q47 -68 65 -120q13 -38 28 -116.5t15 -116.5zM283 910q-5 -8 -12 -16t-17 -18l-30 -29q-6 -6 -17 -13.5t-17 -11.5q-12 -9 -18 -12.5t-20 -11.5l-16 17l34 40l31 43l28 43l27 44l57 2l26 -46l29 -43l31 -43l33 -42l-20 -13
q-16 7 -36 20q-15 9 -33 26l-31 29l-29 33v2z" />
    <glyph glyph-name="Otilde" unicode="&#xd5;" 
d="M535 331q0 -103 -83 -217.5t-165 -114.5q-37 0 -90 29q-74 40 -119 115q-60 99 -60 243q0 84 25 163q19 59 49 109q25 49 43 73q56 73 121 73q8 0 22 -6t14 -16q0 -15 -34 -19.5t-60 -36.5q-19 -23 -37 -65q-5 -13 -14 -37q-16 -47 -20 -73q-10 -61 -10 -131q3 -59 5 -90
q7 -93 17 -115q7 -20 67 -74q73 -66 125 -66q47 0 82 61.5t35 156.5q0 44 -15.5 110t-21.5 94q-12 55 -49 118q-40 70 -67 70q-23 0 -48 -35q-20 -28 -20 -63q0 -32 15 -56q19 -30 50 -30q27 0 35 13t15 13q8 0 13 -7t5 -16q0 -24 -21 -48q-28 -32 -73 -32q-47 0 -79 31
t-32 82q0 68 72 150q67 77 107 77q38 0 93 -80q47 -68 65 -120q13 -38 28 -116.5t15 -116.5zM218 920l5 1h5q12 0 17.5 -1.5t15.5 -7.5l35 -17l7 -5l6 -3q11 -7 26.5 -13t19.5 -6h10l16 3q8 2 16 8q6 3 16 13q7 5 17 20l3 1l5 1l8 -3l2 -7l-1 -4l-1 -3l-3 -2l-5 -5l-4 -3
q-5 -8 -9 -12l-9 -9q-8 -9 -14.5 -16.5t-12.5 -13.5q-1 -1 -14 -11q-14 -8 -34 -8l-1 1q-19 0 -37 8l-34 19l-3 2l-4 2q-8 6 -15.5 9l-12.5 5q-14 8 -31 8t-39.5 -11t-51.5 -40l-3 -2l-4 -2l-9 2l-5 5l-1 4l1 3l2 3l2 2l14 12l13 12l11 12l12 13q13 15 28.5 25t40.5 10z" />
    <glyph glyph-name="Odieresis" unicode="&#xd6;" 
d="M535 331q0 -103 -83 -217.5t-165 -114.5q-37 0 -90 29q-74 40 -119 115q-60 99 -60 243q0 84 25 163q19 59 49 109q25 49 43 73q56 73 121 73q8 0 22 -6t14 -16q0 -15 -34 -19.5t-60 -36.5q-19 -23 -37 -65q-5 -13 -14 -37q-16 -47 -20 -73q-10 -61 -10 -131q3 -59 5 -90
q7 -93 17 -115q7 -20 67 -74q73 -66 125 -66q47 0 82 61.5t35 156.5q0 44 -15.5 110t-21.5 94q-12 55 -49 118q-40 70 -67 70q-23 0 -48 -35q-20 -28 -20 -63q0 -32 15 -56q19 -30 50 -30q27 0 35 13t15 13q8 0 13 -7t5 -16q0 -24 -21 -48q-28 -32 -73 -32q-47 0 -79 31
t-32 82q0 68 72 150q67 77 107 77q38 0 93 -80q47 -68 65 -120q13 -38 28 -116.5t15 -116.5zM406 882q0 -24 -23 -39q-17 -11 -29 -11q-17 0 -32.5 15.5t-15.5 28.5q0 17 22 43q14 17 28 17q17 0 33.5 -21t16.5 -33zM246 882q0 -24 -23 -39q-17 -11 -29 -11
q-17 0 -32.5 15.5t-15.5 28.5q0 17 22 43q14 17 28 17q17 0 33.5 -21t16.5 -33z" />
    <glyph glyph-name="multiply" unicode="&#xd7;" horiz-adv-x="472" 
d="M411 288l-62 -62l-115 115l-117 -114l-60 60l108 112l-113 112l68 68l114 -113l112 113l62 -62l-112 -113z" />
    <glyph glyph-name="Oslash" unicode="&#xd8;" horiz-adv-x="528" 
d="M508 305q0 -37 -2 -69.5t-11 -52.5q-26 -59 -107 -119q-76 -56 -118 -56q-13 0 -53 15.5t-58 28.5q-18 -23 -35 -46q-19 -16 -45 -16q-27 0 -42 7t-15 25q0 15 11.5 38t24.5 48q-1 0 -11 36q-14 52 -22 115q-12 93 -12 199q0 15 2 41q7 84 13 99q11 28 103 107
q100 86 141 86q8 0 38 -18.5t50 -38.5q21 32 32 48q22 31 52 31q34 0 45 -18q6 -10 6 -30q0 -16 -16 -48t-32 -65q3 0 15 -28q19 -44 30 -106q16 -91 16 -213zM312 633q-13 8 -59 45q-16 13 -36 13q-56 0 -81 -81q-17 -56 -17 -135v-217zM404 295q0 76 -4.5 126.5
t-9.5 102.5l-188 -390q4 -1 58 -22q39 -15 66 -15q65 0 75 98q3 29 3 100z" />
    <glyph glyph-name="Ugrave" unicode="&#xd9;" horiz-adv-x="736" 
d="M720 57q0 -22 -29 -34.5t-70 -12.5q-15 0 -49 25t-42 25q-9 0 -53 -28t-90 -28q-58 0 -111 71q-49 66 -49 118v417q0 31 -35 72q-38 45 -71 45q-30 0 -48 -41t-29 -41q-8 0 -14 7.5t-6 24.5q0 35 47 77t86 42q46 0 105 -56q63 -60 63 -117v-443q0 -26 46.5 -68.5
t75.5 -42.5q19 0 47.5 34.5t28.5 59.5v456q0 49 -34 82q-27 26 -50 26q-27 0 -56 -35q-14 -17 -26 -17q-14 0 -20 8q-2 2 -4 9q0 23 43 63q48 44 88 44q67 0 118 -61q44 -53 44 -103v-506q0 -34 13 -48q10 -11 29 -11q13 0 28 6l6 3q18 0 18 -22zM360 826q-29 14 -55 30.5
t-51 38.5l-46 41q-11 12 -20 22.5t-21 27.5l77 30l35 -49l39 -44l41 -42l46 -38l-45 -17v0z" />
    <glyph glyph-name="Uacute" unicode="&#xda;" horiz-adv-x="736" 
d="M720 57q0 -22 -29 -34.5t-70 -12.5q-15 0 -49 25t-42 25q-9 0 -53 -28t-90 -28q-58 0 -111 71q-49 66 -49 118v417q0 31 -35 72q-38 45 -71 45q-30 0 -48 -41t-29 -41q-8 0 -14 7.5t-6 24.5q0 35 47 77t86 42q46 0 105 -56q63 -60 63 -117v-443q0 -26 46.5 -68.5
t75.5 -42.5q19 0 47.5 34.5t28.5 59.5v456q0 49 -34 82q-27 26 -50 26q-27 0 -56 -35q-14 -17 -26 -17q-14 0 -20 8q-2 2 -4 9q0 23 43 63q48 44 88 44q67 0 118 -61q44 -53 44 -103v-506q0 -34 13 -48q10 -11 29 -11q13 0 28 6l6 3q18 0 18 -22zM354 800l-43 18q12 9 22 17
q4 3 22 20l41 40l36 44l35 47l81 -26q-10 -13 -18 -23.5t-23 -26.5q-21 -21 -48 -42l-51 -37l-54 -33v2z" />
    <glyph glyph-name="Ucircumflex" unicode="&#xdb;" horiz-adv-x="736" 
d="M720 57q0 -22 -29 -34.5t-70 -12.5q-15 0 -49 25t-42 25q-9 0 -53 -28t-90 -28q-58 0 -111 71q-49 66 -49 118v417q0 31 -35 72q-38 45 -71 45q-30 0 -48 -41t-29 -41q-8 0 -14 7.5t-6 24.5q0 35 47 77t86 42q46 0 105 -56q63 -60 63 -117v-443q0 -26 46.5 -68.5
t75.5 -42.5q19 0 47.5 34.5t28.5 59.5v456q0 49 -34 82q-27 26 -50 26q-27 0 -56 -35q-14 -17 -26 -17q-14 0 -20 8q-2 2 -4 9q0 23 43 63q48 44 88 44q67 0 118 -61q44 -53 44 -103v-506q0 -34 13 -48q10 -11 29 -11q13 0 28 6l6 3q18 0 18 -22zM373 920q-5 -8 -12 -16
t-17 -18l-30 -29q-6 -6 -17 -13.5t-17 -11.5q-12 -9 -18 -12.5t-20 -11.5l-16 17l34 40l31 43l28 43l27 44l57 2l26 -46l29 -43l31 -43l33 -42l-20 -13q-16 7 -36 20q-15 9 -33 26l-31 29l-29 33v2z" />
    <glyph glyph-name="Udieresis" unicode="&#xdc;" horiz-adv-x="736" 
d="M720 57q0 -22 -29 -34.5t-70 -12.5q-15 0 -49 25t-42 25q-9 0 -53 -28t-90 -28q-58 0 -111 71q-49 66 -49 118v417q0 31 -35 72q-38 45 -71 45q-30 0 -48 -41t-29 -41q-8 0 -14 7.5t-6 24.5q0 35 47 77t86 42q46 0 105 -56q63 -60 63 -117v-443q0 -26 46.5 -68.5
t75.5 -42.5q19 0 47.5 34.5t28.5 59.5v456q0 49 -34 82q-27 26 -50 26q-27 0 -56 -35q-14 -17 -26 -17q-14 0 -20 8q-2 2 -4 9q0 23 43 63q48 44 88 44q67 0 118 -61q44 -53 44 -103v-506q0 -34 13 -48q10 -11 29 -11q13 0 28 6l6 3q18 0 18 -22zM476 882q0 -24 -23 -39
q-17 -11 -29 -11q-17 0 -32.5 15.5t-15.5 28.5q0 17 22 43q14 17 28 17q17 0 33.5 -21t16.5 -33zM316 882q0 -24 -23 -39q-17 -11 -29 -11q-17 0 -32.5 15.5t-15.5 28.5q0 17 22 43q14 17 28 17q17 0 33.5 -21t16.5 -33z" />
    <glyph glyph-name="Yacute" unicode="&#xdd;" horiz-adv-x="656" 
d="M638 595q0 -94 -36 -239q-32 -128 -77 -243q-7 -28 -42 -103q-53 -113 -113 -187q-82 -101 -162 -101q-41 0 -87 41q-50 45 -50 95q0 46 46 77q37 25 66 25q8 0 17.5 -5.5t9.5 -14.5q0 -4 -31 -32q-16 -15 -16 -31q0 -23 20 -42q24 -23 59 -23q74 0 125 103q38 77 38 125
q0 35 -32 129q-27 80 -86 224q-27 68 -49 117q-26 59 -57 117q-26 47 -32 55q-26 34 -54 34q-13 0 -23 -14q-24 -33 -32 -33q-25 0 -25 26q0 30 33 62q38 36 83 36q48 0 87 -38q33 -32 67 -100q11 -21 62 -138q105 -274 127 -328q20 19 50 132q34 127 34 221q0 80 -37 122
q-33 37 -83 37q-30 0 -58.5 -28.5t-36.5 -28.5q-8 5 -11 7q-12 9 -12 15q0 12 28 46q67 81 147 81q78 0 114 -62q29 -50 29 -136zM254 810l-43 18q12 9 22 17q4 3 22 20l41 40l36 44l35 47l81 -26q-10 -13 -18 -23.5t-23 -26.5q-21 -21 -48 -42l-51 -37l-54 -33v2z" />
    <glyph glyph-name="germandbls" unicode="&#xdf;" horiz-adv-x="565" 
d="M546 266q0 -63 -62 -127q-76 -78 -231 -143h-70v80h132q46 0 90.5 49.5t44.5 104.5q0 53 -82 109q-71 48 -105 48q-23 -17 -43 -28q-29 -17 -76 -39v-324h-114v701q0 23 45 58q50 39 90 39q71 0 175 -58q118 -66 118 -135q0 -38 -46 -83q-38 -37 -50 -54q13 -12 85 -54
q99 -58 99 -144zM335 574q0 44 -72 91q-16 10 -75 40h-14l-30 -40q-14 -35 -14 -86l14 -188h18q68 53 105 85q68 59 68 98z" />
    <glyph glyph-name="agrave" unicode="&#xe0;" horiz-adv-x="440" 
d="M424 46q-17 -13 -34 -24q-28 -18 -40 -18q-20 0 -38.5 21.5t-35.5 21.5q-9 0 -53 -23.5t-56 -23.5q-49 0 -98 51t-49 110q0 57 46 100q38 35 96 35q28 0 56 -13t28 -29q0 -5 -7.5 -12.5t-13.5 -7.5q-10 8 -25 14.5t-38 6.5q-40 0 -59 -20t-19 -51q0 -32 40.5 -79.5
t68.5 -47.5q28 11 41 18q42 23 42 45v187q0 34 -44 74t-81 40q-58 0 -70 -61t-18 -61q-22 0 -37 32q-5 10 -11 32q0 27 51 74q58 54 110 54q60 0 111 -37q76 -55 76 -168v-213q16 -11 25 -11q8 6 16 6q7 0 20 -8v-14zM240 516q-29 14 -55 30.5t-51 38.5l-46 41
q-11 12 -20 22.5t-21 27.5l77 30l35 -49l39 -44l41 -42l46 -38l-45 -17v0z" />
    <glyph glyph-name="aacute" unicode="&#xe1;" horiz-adv-x="425" 
d="M144 530l-43 18q12 9 22 17q4 3 22 20l41 40l36 44l35 47l81 -26q-10 -13 -18 -23.5t-23 -26.5q-21 -21 -48 -42l-51 -37l-54 -33v2zM424 46q-17 -13 -34 -24q-28 -18 -40 -18q-20 0 -38.5 21.5t-35.5 21.5q-9 0 -53 -23.5t-56 -23.5q-49 0 -98 51t-49 110q0 57 46 100
q38 35 96 35q28 0 56 -13t28 -29q0 -5 -7.5 -12.5t-13.5 -7.5q-10 8 -25 14.5t-38 6.5q-40 0 -59 -20t-19 -51q0 -32 40.5 -79.5t68.5 -47.5q28 11 41 18q42 23 42 45v187q0 34 -44 74t-81 40q-58 0 -70 -61t-18 -61q-22 0 -37 32q-5 10 -11 32q0 27 51 74q58 54 110 54
q60 0 111 -37q76 -55 76 -168v-213q16 -11 25 -11q8 6 16 6q7 0 20 -8v-14z" />
    <glyph glyph-name="acircumflex" unicode="&#xe2;" horiz-adv-x="440" 
d="M424 46q-17 -13 -34 -24q-28 -18 -40 -18q-20 0 -38.5 21.5t-35.5 21.5q-9 0 -53 -23.5t-56 -23.5q-49 0 -98 51t-49 110q0 57 46 100q38 35 96 35q28 0 56 -13t28 -29q0 -5 -7.5 -12.5t-13.5 -7.5q-10 8 -25 14.5t-38 6.5q-40 0 -59 -20t-19 -51q0 -32 40.5 -79.5
t68.5 -47.5q28 11 41 18q42 23 42 45v187q0 34 -44 74t-81 40q-58 0 -70 -61t-18 -61q-22 0 -37 32q-5 10 -11 32q0 27 51 74q58 54 110 54q60 0 111 -37q76 -55 76 -168v-213q16 -11 25 -11q8 6 16 6q7 0 20 -8v-14zM183 610q-5 -8 -12 -16t-17 -18l-30 -29
q-6 -6 -17 -13.5t-17 -11.5q-12 -9 -18 -12.5t-20 -11.5l-16 17l34 40l31 43l28 43l27 44l57 2l26 -46l29 -43l31 -43l33 -42l-20 -13q-16 7 -36 20q-15 9 -33 26l-31 29l-29 33v2z" />
    <glyph glyph-name="atilde" unicode="&#xe3;" horiz-adv-x="440" 
d="M424 46q-17 -13 -34 -24q-28 -18 -40 -18q-20 0 -38.5 21.5t-35.5 21.5q-9 0 -53 -23.5t-56 -23.5q-49 0 -98 51t-49 110q0 57 46 100q38 35 96 35q28 0 56 -13t28 -29q0 -5 -7.5 -12.5t-13.5 -7.5q-10 8 -25 14.5t-38 6.5q-40 0 -59 -20t-19 -51q0 -32 40.5 -79.5
t68.5 -47.5q28 11 41 18q42 23 42 45v187q0 34 -44 74t-81 40q-58 0 -70 -61t-18 -61q-22 0 -37 32q-5 10 -11 32q0 27 51 74q58 54 110 54q60 0 111 -37q76 -55 76 -168v-213q16 -11 25 -11q8 6 16 6q7 0 20 -8v-14zM158 610l5 1h5q12 0 17.5 -1.5t15.5 -7.5l35 -17l7 -5
l6 -3q11 -7 26.5 -13t19.5 -6h10l16 3q8 2 16 8q6 3 16 13q7 5 17 20l3 1l5 1l8 -3l2 -7l-1 -4l-1 -3l-3 -2l-5 -5l-4 -3q-5 -8 -9 -12l-9 -9q-8 -9 -14.5 -16.5t-12.5 -13.5q-1 -1 -14 -11q-14 -8 -34 -8l-1 1q-19 0 -37 8l-34 19l-3 2l-4 2q-8 6 -15.5 9l-12.5 5
q-14 8 -31 8t-39.5 -11t-51.5 -40l-3 -2l-4 -2l-9 2l-5 5l-1 4l1 3l2 3l2 2l14 12l13 12l11 12l12 13q13 15 28.5 25t40.5 10z" />
    <glyph glyph-name="adieresis" unicode="&#xe4;" horiz-adv-x="440" 
d="M424 46q-17 -13 -34 -24q-28 -18 -40 -18q-20 0 -38.5 21.5t-35.5 21.5q-9 0 -53 -23.5t-56 -23.5q-49 0 -98 51t-49 110q0 57 46 100q38 35 96 35q28 0 56 -13t28 -29q0 -5 -7.5 -12.5t-13.5 -7.5q-10 8 -25 14.5t-38 6.5q-40 0 -59 -20t-19 -51q0 -32 40.5 -79.5
t68.5 -47.5q28 11 41 18q42 23 42 45v187q0 34 -44 74t-81 40q-58 0 -70 -61t-18 -61q-22 0 -37 32q-5 10 -11 32q0 27 51 74q58 54 110 54q60 0 111 -37q76 -55 76 -168v-213q16 -11 25 -11q8 6 16 6q7 0 20 -8v-14zM326 562q0 -24 -23 -39q-17 -11 -29 -11
q-17 0 -32.5 15.5t-15.5 28.5q0 17 22 43q14 17 28 17q17 0 33.5 -21t16.5 -33zM166 562q0 -24 -23 -39q-17 -11 -29 -11q-17 0 -32.5 15.5t-15.5 28.5q0 17 22 43q14 17 28 17q17 0 33.5 -21t16.5 -33z" />
    <glyph glyph-name="aring" unicode="&#xe5;" horiz-adv-x="440" 
d="M424 46q-17 -13 -34 -24q-28 -18 -40 -18q-20 0 -38.5 21.5t-35.5 21.5q-9 0 -53 -23.5t-56 -23.5q-49 0 -98 51t-49 110q0 57 46 100q38 35 96 35q28 0 56 -13t28 -29q0 -5 -7.5 -12.5t-13.5 -7.5q-10 8 -25 14.5t-38 6.5q-40 0 -59 -20t-19 -51q0 -32 40.5 -79.5
t68.5 -47.5q28 11 41 18q42 23 42 45v187q0 34 -44 74t-81 40q-58 0 -70 -61t-18 -61q-22 0 -37 32q-5 10 -11 32q0 27 51 74q58 54 110 54q60 0 111 -37q76 -55 76 -168v-213q16 -11 25 -11q8 6 16 6q7 0 20 -8v-14zM256 577q0 -14 -5 -23q-3 -10 -12 -18q-8 -9 -18 -13.5
t-24 -4.5q-13 0 -21.5 4t-15.5 10l-13 14l-7 20l9 4q2 -4 3.5 -8t1.5 -6q0 -1 -2.5 -0.5t-12.5 9.5v5v1v2v1v1q0 15 3.5 22.5t14 19t18.5 13.5q5 3 10.5 4t12.5 1v-10l-5 5v5q18 0 27 -5q5 -1 9 -4t10 -9q10 -10 12 -18q5 -9 5 -22zM240 576l-3 16q-4 9 -10.5 15t-13.5 9
l-15 3v-5l-5 5l-12 -3q-5 -2 -13 -10l-9 -14l-3 -16v-2v-2v6l-8 2q-1 -1 8 -10v-2l5 -13l10 -11l12 -7l9 -2l10 -1h-9h10h-5l15 3q7 3 13.5 9t10.5 15z" />
    <glyph glyph-name="ae" unicode="&#xe6;" horiz-adv-x="656" 
d="M635 126q0 -48 -42 -86q-48 -43 -126 -43q-62 0 -104 18q-36 19 -72 39q-17 0 -63 -27t-62 -27q-48 0 -99 53t-51 110q0 42 33 83q42 53 110 53q24 0 55 -10.5t31 -31.5q0 -6 -6.5 -12.5t-13.5 -6.5q-10 0 -23 11t-43 11q-45 0 -65 -33q-12 -20 -12 -40q0 -25 41.5 -77.5
t69.5 -52.5q28 12 41 20q42 25 42 46v189q0 32 -45 73t-82 41q-60 0 -71 -61t-17 -61q-17 0 -33 20t-16 43q0 27 52 75q59 54 112 54q29 0 82 -28t75 -51q38 28 54 38q39 24 86 24q59 0 107 -60q42 -53 42 -95q0 -48 -85 -90t-173 -84q0 -33 37 -64q43 -36 105 -36
q33 0 57 23t24 49q0 10 -9 24t-9 19q1 2 1 3q4 10 5 16h26q21 -16 27.5 -29t6.5 -29zM527 319q0 26 -33.5 64.5t-57.5 38.5q-25 0 -48.5 -36t-23.5 -61l4 -114q54 20 106.5 55t52.5 53z" />
    <glyph glyph-name="ccedilla" unicode="&#xe7;" horiz-adv-x="428" 
d="M411 164q0 -70 -73 -122q-61 -43 -108 -43q-38 0 -77 20q-13 6 -32 21q-64 36 -86 96q-15 41 -15 119v45q0 81 73 141q59 48 102 48l162 -9q0 -2 2 -4.5t3 -3.5q0 -18 -24 -36q-30 -23 -72 -23q-20 0 -74 13q-25 6 -33 6q-25 0 -36 -32.5t-11 -82.5q0 -130 34 -190
t109 -60q30 0 66 27q41 31 41 68q0 22 -17 39t-37 17q-11 -6 -17 -8q-19 -9 -23 -9q-13 0 -13 19q0 10 16 24q21 19 49 19t55 -21q36 -28 36 -78zM286 -97q0 -18 -17.5 -38.5t-32.5 -20.5q-8 0 -21.5 8.5t-13.5 17.5q0 14 7 17.5t21 3.5q18 0 24 2t6 17q0 10 -3 14
q-16 12 -34 25v8l9 2q15 0 35 -16.5t20 -39.5z" />
    <glyph glyph-name="egrave" unicode="&#xe8;" horiz-adv-x="396" 
d="M381 134q0 -37 -32 -75q-48 -56 -140 -56q-128 0 -170 90q-23 49 -23 156q0 111 54.5 176.5t146.5 65.5q62 0 109 -62q40 -53 40 -96q0 -47 -85.5 -90t-174.5 -85q0 -33 39 -65q44 -36 104 -36q34 0 58 24t24 48q0 19 -8.5 27.5t-8.5 17.5q4 12 5 20h26
q17 -15 26.5 -28.5t9.5 -31.5zM270 330q0 29 -33 66t-59 37q-39 0 -58 -53q-14 -38 -14 -89q-1 -22 -1 -33q0 -13 5 -38q84 36 125 67q35 26 35 43zM240 516q-29 14 -55 30.5t-51 38.5l-46 41q-11 12 -20 22.5t-21 27.5l77 30l35 -49l39 -44l41 -42l46 -38l-45 -17v0z" />
    <glyph glyph-name="eacute" unicode="&#xe9;" horiz-adv-x="400" 
d="M154 520l-43 18q12 9 22 17q4 3 22 20l41 40l36 44l35 47l81 -26q-10 -13 -18 -23.5t-23 -26.5q-21 -21 -48 -42l-51 -37l-54 -33v2zM381 134q0 -37 -32 -75q-48 -56 -140 -56q-128 0 -170 90q-23 49 -23 156q0 111 54.5 176.5t146.5 65.5q62 0 109 -62q40 -53 40 -96
q0 -47 -85.5 -90t-174.5 -85q0 -33 39 -65q44 -36 104 -36q34 0 58 24t24 48q0 19 -8.5 27.5t-8.5 17.5q4 12 5 20h26q17 -15 26.5 -28.5t9.5 -31.5zM270 330q0 29 -33 66t-59 37q-39 0 -58 -53q-14 -38 -14 -89q-1 -22 -1 -33q0 -13 5 -38q84 36 125 67q35 26 35 43z" />
    <glyph glyph-name="ecircumflex" unicode="&#xea;" horiz-adv-x="396" 
d="M381 134q0 -37 -32 -75q-48 -56 -140 -56q-128 0 -170 90q-23 49 -23 156q0 111 54.5 176.5t146.5 65.5q62 0 109 -62q40 -53 40 -96q0 -47 -85.5 -90t-174.5 -85q0 -33 39 -65q44 -36 104 -36q34 0 58 24t24 48q0 19 -8.5 27.5t-8.5 17.5q4 12 5 20h26
q17 -15 26.5 -28.5t9.5 -31.5zM270 330q0 29 -33 66t-59 37q-39 0 -58 -53q-14 -38 -14 -89q-1 -22 -1 -33q0 -13 5 -38q84 36 125 67q35 26 35 43zM203 610q-5 -8 -12 -16t-17 -18l-30 -29q-6 -6 -17 -13.5t-17 -11.5q-12 -9 -18 -12.5t-20 -11.5l-16 17l34 40l31 43l28 43
l27 44l57 2l26 -46l29 -43l31 -43l33 -42l-20 -13q-16 7 -36 20q-15 9 -33 26l-31 29l-29 33v2z" />
    <glyph glyph-name="edieresis" unicode="&#xeb;" horiz-adv-x="396" 
d="M381 134q0 -37 -32 -75q-48 -56 -140 -56q-128 0 -170 90q-23 49 -23 156q0 111 54.5 176.5t146.5 65.5q62 0 109 -62q40 -53 40 -96q0 -47 -85.5 -90t-174.5 -85q0 -33 39 -65q44 -36 104 -36q34 0 58 24t24 48q0 19 -8.5 27.5t-8.5 17.5q4 12 5 20h26
q17 -15 26.5 -28.5t9.5 -31.5zM270 330q0 29 -33 66t-59 37q-39 0 -58 -53q-14 -38 -14 -89q-1 -22 -1 -33q0 -13 5 -38q84 36 125 67q35 26 35 43zM326 572q0 -24 -23 -39q-17 -11 -29 -11q-17 0 -32.5 15.5t-15.5 28.5q0 17 22 43q14 17 28 17q17 0 33.5 -21t16.5 -33z
M166 572q0 -24 -23 -39q-17 -11 -29 -11q-17 0 -32.5 15.5t-15.5 28.5q0 17 22 43q14 17 28 17q17 0 33.5 -21t16.5 -33z" />
    <glyph glyph-name="igrave" unicode="&#xec;" horiz-adv-x="248" 
d="M231 52q0 -22 -14 -37t-36 -15q-66 0 -85 69q-14 51 -14 220v130q-5 0 -16 -3q-25 -7 -32 -7q-18 0 -18 19q0 12 30 39t41 27q28 -10 42 -21q43 -36 43 -106v-289q1 -4 1.5 -8t7.5 -18h17v26h31zM100 523q-29 14 -55 30.5t-51 38.5l-46 41q-10 12 -19.5 22.5t-21.5 27.5
l77 30l35 -49l39 -44l41 -42l46 -38l-45 -17v0z" />
    <glyph glyph-name="iacute" unicode="&#xed;" horiz-adv-x="248" 
d="M231 52q0 -22 -14 -37t-36 -15q-66 0 -85 69q-14 51 -14 220v130q-5 0 -16 -3q-25 -7 -32 -7q-18 0 -18 19q0 12 30 39t41 27q28 -10 42 -21q43 -36 43 -106v-289q1 -4 1.5 -8t7.5 -18h17v26h31zM94 520l-43 18q12 9 22 17q4 3 22 20l41 40l36 44l35 47l81 -26
q-10 -13 -18 -23.5t-23 -26.5q-21 -21 -48 -42l-51 -37l-54 -33v2z" />
    <glyph glyph-name="icircumflex" unicode="&#xee;" horiz-adv-x="248" 
d="M231 52q0 -22 -14 -37t-36 -15q-66 0 -85 69q-14 51 -14 220v130q-5 0 -16 -3q-25 -7 -32 -7q-18 0 -18 19q0 12 30 39t41 27q28 -10 42 -21q43 -36 43 -106v-289q1 -4 1.5 -8t7.5 -18h17v26h31zM103 610q-5 -8 -12 -16t-17 -18l-30 -29q-6 -6 -17 -13.5t-17 -11.5
q-12 -9 -18 -12.5t-20 -11.5l-16 17l34 40l31 43l28 43l27 44l57 2l26 -46l29 -43l31 -43l33 -42l-20 -13q-16 7 -36 20q-15 9 -33 26l-31 29l-29 33v2z" />
    <glyph glyph-name="idieresis" unicode="&#xef;" horiz-adv-x="248" 
d="M231 52q0 -22 -14 -37t-36 -15q-66 0 -85 69q-14 51 -14 220v130q-5 0 -16 -3q-25 -7 -32 -7q-18 0 -18 19q0 12 30 39t41 27q28 -10 42 -21q43 -36 43 -106v-289q1 -4 1.5 -8t7.5 -18h17v26h31zM236 572q0 -24 -23 -39q-17 -11 -29 -11q-17 0 -32.5 15.5t-15.5 28.5
q0 17 22 43q14 17 28 17q17 0 33.5 -21t16.5 -33zM76 572q0 -24 -23 -39q-17 -11 -29 -11q-17 0 -32.5 15.5t-15.5 28.5q0 17 22 43q14 17 28 17q17 0 33.5 -21t16.5 -33z" />
    <glyph glyph-name="ntilde" unicode="&#xf1;" horiz-adv-x="514" 
d="M185 663l7 1h5q21 0 42 -11l43 -22l8 -5l8 -5q8 -5 15 -8.5t19 -7.5q15 -7 35 -7l19 3l21 10l20 17q6 5 10 10q1 1 11 15l3 1l5 1h2l8 -4l4 -8l-1 -5l-2 -4l-4 -2l-6 -6l-5 -5l-22 -25l-19 -22q-14 -16 -32 -29q-18 -10 -41 -10l-1 1h-1q-23 0 -46 10l-41 23l-5 3l-4 3
l-35 18q-12 5 -19.5 6.5t-19.5 1.5q-22 0 -49 -14q-15 -7 -30 -18.5t-33 -29.5l-3 -3l-6 -2l-11 2l-5 7l-1 4l1 4l2 4l2 2l18 15q10 8 15 15l15 15l14 16q17 19 36.5 31.5t49.5 12.5zM530 21q-21 -15 -24 -16q-14 -7 -33 -7q-42 0 -75 35q-29 30 -29 55v240q0 28 -39.5 61
t-70.5 33q-57 0 -77 -50q-13 -33 -13 -106v-42v-114q3 -31 9.5 -42.5t16.5 -11.5q4 0 13 2.5t12 2.5q13 0 21 -17q-20 -23 -26 -28q-15 -12 -40 -12q-30 0 -58 17q-32 20 -32 49v338q0 26 -17 26q-8 0 -24.5 -6.5t-21.5 -6.5q-2 2 -3 4.5t-1 9.5q0 14 25.5 35.5t42.5 21.5
q34 0 56 -28t47 -28q7 0 72 35q31 17 48 17q22 0 79 -35q65 -40 65 -71v-298q0 -35 36 -39.5t41 -5.5v-18z" />
    <glyph glyph-name="ograve" unicode="&#xf2;" horiz-adv-x="455" 
d="M438 222q0 -103 -58.5 -158.5t-151.5 -55.5q-105 0 -160 66q-50 60 -50 157q0 100 79 183q70 74 129 74q66 0 146 -90q66 -74 66 -176zM346 208q0 87 -62 149q-53 53 -105 53q-38 0 -55 -49q-12 -35 -12 -86q0 -109 14 -152q26 -81 109 -81q59 0 88 58q23 45 23 108z
M240 526q-29 14 -55 30.5t-51 38.5l-46 41q-11 12 -20 22.5t-21 27.5l77 30l35 -49l39 -44l41 -42l46 -38l-45 -17v0z" />
    <glyph glyph-name="oacute" unicode="&#xf3;" horiz-adv-x="460" 
d="M154 520l-43 18q12 9 22 17q4 3 22 20l41 40l36 44l35 47l81 -26q-10 -13 -18 -23.5t-23 -26.5q-21 -21 -48 -42l-51 -37l-54 -33v2zM438 222q0 -103 -58.5 -158.5t-151.5 -55.5q-105 0 -160 66q-50 60 -50 157q0 100 79 183q70 74 129 74q66 0 146 -90q66 -74 66 -176z
M346 208q0 87 -62 149q-53 53 -105 53q-38 0 -55 -49q-12 -35 -12 -86q0 -109 14 -152q26 -81 109 -81q59 0 88 58q23 45 23 108z" />
    <glyph glyph-name="ocircumflex" unicode="&#xf4;" horiz-adv-x="456" 
d="M438 222q0 -103 -58.5 -158.5t-151.5 -55.5q-105 0 -160 66q-50 60 -50 157q0 100 79 183q70 74 129 74q66 0 146 -90q66 -74 66 -176zM346 208q0 87 -62 149q-53 53 -105 53q-38 0 -55 -49q-12 -35 -12 -86q0 -109 14 -152q26 -81 109 -81q59 0 88 58q23 45 23 108z
M223 610q-5 -8 -12 -16t-17 -18l-30 -29q-6 -6 -17 -13.5t-17 -11.5q-12 -9 -18 -12.5t-20 -11.5l-16 17l34 40l31 43l28 43l27 44l57 2l26 -46l29 -43l31 -43l33 -42l-20 -13q-16 7 -36 20q-15 9 -33 26l-31 29l-29 33v2z" />
    <glyph glyph-name="otilde" unicode="&#xf5;" horiz-adv-x="456" 
d="M438 222q0 -103 -58.5 -158.5t-151.5 -55.5q-105 0 -160 66q-50 60 -50 157q0 100 79 183q70 74 129 74q66 0 146 -90q66 -74 66 -176zM346 208q0 87 -62 149q-53 53 -105 53q-38 0 -55 -49q-12 -35 -12 -86q0 -109 14 -152q26 -81 109 -81q59 0 88 58q23 45 23 108z
M178 610l5 1h5q12 0 17.5 -1.5t15.5 -7.5l35 -17l7 -5l6 -3q11 -7 26.5 -13t19.5 -6h10l16 3q8 2 16 8q6 3 16 13q7 5 17 20l3 1l5 1l8 -3l2 -7l-1 -4l-1 -3l-3 -2l-5 -5l-4 -3q-5 -8 -9 -12l-9 -9q-8 -9 -14.5 -16.5t-12.5 -13.5q-1 -1 -14 -11q-14 -8 -34 -8l-1 1
q-19 0 -37 8l-34 19l-3 2l-4 2q-8 6 -15.5 9l-12.5 5q-14 8 -31 8t-39.5 -11t-51.5 -40l-3 -2l-4 -2l-9 2l-5 5l-1 4l1 3l2 3l2 2l14 12l13 12l11 12l12 13q13 15 28.5 25t40.5 10z" />
    <glyph glyph-name="odieresis" unicode="&#xf6;" horiz-adv-x="456" 
d="M438 222q0 -103 -58.5 -158.5t-151.5 -55.5q-105 0 -160 66q-50 60 -50 157q0 100 79 183q70 74 129 74q66 0 146 -90q66 -74 66 -176zM346 208q0 87 -62 149q-53 53 -105 53q-38 0 -55 -49q-12 -35 -12 -86q0 -109 14 -152q26 -81 109 -81q59 0 88 58q23 45 23 108z
M346 572q0 -24 -23 -39q-17 -11 -29 -11q-17 0 -32.5 15.5t-15.5 28.5q0 17 22 43q14 17 28 17q17 0 33.5 -21t16.5 -33zM186 572q0 -24 -23 -39q-17 -11 -29 -11q-17 0 -32.5 15.5t-15.5 28.5q0 17 22 43q14 17 28 17q17 0 33.5 -21t16.5 -33z" />
    <glyph glyph-name="divide" unicode="&#xf7;" horiz-adv-x="464" 
d="M276 537q0 -24 -23 -39q-17 -11 -29 -11q-17 0 -32.5 15.5t-15.5 28.5q0 17 22 43q14 17 28 17q17 0 33.5 -21t16.5 -33zM439 363h-412v85h412v-85zM276 267q0 -24 -23 -39q-17 -11 -29 -11q-17 0 -32.5 15.5t-15.5 28.5q0 17 22 43q14 17 28 17q17 0 33.5 -21t16.5 -33z
" />
    <glyph glyph-name="oslash" unicode="&#xf8;" horiz-adv-x="456" 
d="M434 222q0 -81 -51.5 -148t-107.5 -67h-101q-15 0 -24 -18q-20 -39 -48 -39q-6 0 -18 2t-25 2v31q12 17 17 25q18 27 18 32q-31 25 -54 68q-26 49 -26 121q0 100 79 183q70 74 129 74q12 0 31 -9q7 -4 36 -21q11 23 23 47q14 23 38 23q19 0 24.5 -4t5.5 -14v-14
q0 -33 -20 -55q-10 -11 -10 -25q32 -19 56 -63q28 -51 28 -131zM342 208q0 19 -8 57t-23 60l-120 -274l40 -9q59 0 88 58q23 45 23 108zM249 378q-22 14 -43 23t-31 9q-38 0 -55 -49q-12 -35 -12 -86q0 -53 6 -109q2 -19 7 -49z" />
    <glyph glyph-name="ugrave" unicode="&#xf9;" horiz-adv-x="540" 
d="M525 67q0 -19 -16.5 -35.5t-36.5 -16.5q-15 0 -47 15t-56 15q-14 0 -47 -20t-66 -20q-46 0 -104 42q-64 46 -64 95v253q0 8 -4.5 17.5t-17.5 22.5q-10 -7 -20 -18q-5 -5 -11 -5t-14 5.5t-8 14.5q0 20 26 35.5t43 15.5q20 0 55 -28.5t35 -54.5v-240q0 -19 32 -55
q41 -46 92 -46q24 0 45.5 12t21.5 32v283q-3 11 -5 18q-7 20 -17 35q-27 -13 -38 -13q-12 0 -12 19q0 12 17 30t34 18q31 0 65 -22q40 -26 40 -63v-293q0 -10 8.5 -26.5t18.5 -25.5h13q-1 16 -1 24q0 6 2.5 12.5t11.5 15.5q18 -11 21.5 -17.5t3.5 -30.5zM240 516
q-29 14 -55 30.5t-51 38.5l-46 41q-11 12 -20 22.5t-21 27.5l77 30l35 -49l39 -44l41 -42l46 -38l-45 -17v0z" />
    <glyph glyph-name="uacute" unicode="&#xfa;" horiz-adv-x="545" 
d="M154 520l-43 18q12 9 22 17q4 3 22 20l41 40l36 44l35 47l81 -26q-10 -13 -18 -23.5t-23 -26.5q-21 -21 -48 -42l-51 -37l-54 -33v2zM525 67q0 -19 -16.5 -35.5t-36.5 -16.5q-15 0 -47 15t-56 15q-14 0 -47 -20t-66 -20q-46 0 -104 42q-64 46 -64 95v253q0 8 -4.5 17.5
t-17.5 22.5q-10 -7 -20 -18q-5 -5 -11 -5t-14 5.5t-8 14.5q0 20 26 35.5t43 15.5q20 0 55 -28.5t35 -54.5v-240q0 -19 32 -55q41 -46 92 -46q24 0 45.5 12t21.5 32v283q-3 11 -5 18q-7 20 -17 35q-27 -13 -38 -13q-12 0 -12 19q0 12 17 30t34 18q31 0 65 -22q40 -26 40 -63
v-293q0 -10 8.5 -26.5t18.5 -25.5h13q-1 16 -1 24q0 6 2.5 12.5t11.5 15.5q18 -11 21.5 -17.5t3.5 -30.5z" />
    <glyph glyph-name="ucircumflex" unicode="&#xfb;" horiz-adv-x="540" 
d="M525 67q0 -19 -16.5 -35.5t-36.5 -16.5q-15 0 -47 15t-56 15q-14 0 -47 -20t-66 -20q-46 0 -104 42q-64 46 -64 95v253q0 8 -4.5 17.5t-17.5 22.5q-10 -7 -20 -18q-5 -5 -11 -5t-14 5.5t-8 14.5q0 20 26 35.5t43 15.5q20 0 55 -28.5t35 -54.5v-240q0 -19 32 -55
q41 -46 92 -46q24 0 45.5 12t21.5 32v283q-3 11 -5 18q-7 20 -17 35q-27 -13 -38 -13q-12 0 -12 19q0 12 17 30t34 18q31 0 65 -22q40 -26 40 -63v-293q0 -10 8.5 -26.5t18.5 -25.5h13q-1 16 -1 24q0 6 2.5 12.5t11.5 15.5q18 -11 21.5 -17.5t3.5 -30.5zM263 610
q-5 -8 -12 -16t-17 -18l-30 -29q-6 -6 -17 -13.5t-17 -11.5q-12 -9 -18 -12.5t-20 -11.5l-16 17l34 40l31 43l28 43l27 44l57 2l26 -46l29 -43l31 -43l33 -42l-20 -13q-16 7 -36 20q-15 9 -33 26l-31 29l-29 33v2z" />
    <glyph glyph-name="udieresis" unicode="&#xfc;" horiz-adv-x="540" 
d="M525 67q0 -19 -16.5 -35.5t-36.5 -16.5q-15 0 -47 15t-56 15q-14 0 -47 -20t-66 -20q-46 0 -104 42q-64 46 -64 95v253q0 8 -4.5 17.5t-17.5 22.5q-10 -7 -20 -18q-5 -5 -11 -5t-14 5.5t-8 14.5q0 20 26 35.5t43 15.5q20 0 55 -28.5t35 -54.5v-240q0 -19 32 -55
q41 -46 92 -46q24 0 45.5 12t21.5 32v283q-3 11 -5 18q-7 20 -17 35q-27 -13 -38 -13q-12 0 -12 19q0 12 17 30t34 18q31 0 65 -22q40 -26 40 -63v-293q0 -10 8.5 -26.5t18.5 -25.5h13q-1 16 -1 24q0 6 2.5 12.5t11.5 15.5q18 -11 21.5 -17.5t3.5 -30.5zM346 572
q0 -24 -23 -39q-17 -11 -29 -11q-17 0 -32.5 15.5t-15.5 28.5q0 17 22 43q14 17 28 17q17 0 33.5 -21t16.5 -33zM186 572q0 -24 -23 -39q-17 -11 -29 -11q-17 0 -32.5 15.5t-15.5 28.5q0 17 22 43q14 17 28 17q17 0 33.5 -21t16.5 -33z" />
    <glyph glyph-name="yacute" unicode="&#xfd;" horiz-adv-x="470" 
d="M154 520l-43 18q12 9 22 17q4 3 22 20l41 40l36 44l35 47l81 -26q-10 -13 -18 -23.5t-23 -26.5q-21 -21 -48 -42l-51 -37l-54 -33v2zM444 -118q0 -79 -61 -136q-54 -51 -111 -51q-43 0 -81 16q-52 22 -52 62q0 36 30 61.5t56 25.5q13 0 36.5 -11t23.5 -22q-4 -9 -4 -13
q-5 -1 -9 -1h-5q-10 0 -14.5 5.5t-15.5 5.5q-10 0 -19 -9t-9 -21q0 -19 27.5 -41t57.5 -22q52 0 69 50q10 29 10 94l-8 177q-4 0 -6 2t-3 4q-1 0 -40 -23t-61 -23q-9 0 -73 26q-71 29 -81 44q-4 7 -4 18q0 7 2 17t2 11v208q0 10 -8 48q-2 12 -8 36q-7 8 -17 8q-6 0 -16 -4
q-23 -9 -26 -9q-12 0 -12 24q0 10 21.5 27.5t46.5 17.5q29 0 61 -30q38 -36 38 -85v-229q32 -32 64.5 -49t56.5 -17q11 0 37 24t26 38v238q0 14 -11 34t-26 20q-4 0 -16 -10t-26 -10q-18 0 -18 18t29 38t53 20q32 0 63 -34.5t31 -59.5v-508z" />
    <glyph glyph-name="ydieresis" unicode="&#xff;" horiz-adv-x="464" 
d="M444 -118q0 -79 -61 -136q-54 -51 -111 -51q-43 0 -81 16q-52 22 -52 62q0 36 30 61.5t56 25.5q13 0 36.5 -11t23.5 -22q-4 -9 -4 -13q-5 -1 -9 -1h-5q-10 0 -14.5 5.5t-15.5 5.5q-10 0 -19 -9t-9 -21q0 -19 27.5 -41t57.5 -22q52 0 69 50q10 29 10 94l-8 177q-4 0 -6 2
t-3 4q-1 0 -40 -23t-61 -23q-9 0 -73 26q-71 29 -81 44q-4 7 -4 18q0 7 2 17t2 11v208q0 10 -8 48q-2 12 -8 36q-7 8 -17 8q-6 0 -16 -4q-23 -9 -26 -9q-12 0 -12 24q0 10 21.5 27.5t46.5 17.5q29 0 61 -30q38 -36 38 -85v-229q32 -32 64.5 -49t56.5 -17q11 0 37 24t26 38
v238q0 14 -11 34t-26 20q-4 0 -16 -10t-26 -10q-18 0 -18 18t29 38t53 20q32 0 63 -34.5t31 -59.5v-508zM346 572q0 -24 -23 -39q-17 -11 -29 -11q-17 0 -32.5 15.5t-15.5 28.5q0 17 22 43q14 17 28 17q17 0 33.5 -21t16.5 -33zM186 572q0 -24 -23 -39q-17 -11 -29 -11
q-17 0 -32.5 15.5t-15.5 28.5q0 17 22 43q14 17 28 17q17 0 33.5 -21t16.5 -33z" />
    <glyph glyph-name="OE" unicode="&#x152;" horiz-adv-x="960" 
d="M940 218q0 -92 -85 -159q-73 -58 -142 -58q-55 0 -127 48q-61 41 -107 95q-63 -78 -68 -83q-66 -67 -122 -67q-24 0 -69 19q-79 34 -128 104q-69 99 -69 260q0 64 25 154q30 109 77 176q59 84 132 84q12 0 23.5 -5t11.5 -16q0 -16 -31.5 -19.5t-58.5 -36t-36 -54.5
q-9 -28 -16 -47q-16 -45 -23.5 -88.5t-7.5 -113.5q0 -27 7.5 -106.5t15.5 -96.5q9 -23 67 -75q71 -64 124 -64q48 0 82.5 60t34.5 154q0 16 -7 57t-31 147q-12 54 -47 116q-40 70 -68 70q-24 0 -45.5 -32.5t-21.5 -65.5q0 -32 17 -58.5t46 -26.5q22 0 35.5 13.5t15.5 13.5
q8 -4 13 -5l3 -19q0 -35 -27 -56.5t-65 -21.5q-49 0 -79 33t-30 79q0 60 65.5 142.5t111.5 82.5q39 0 87 -72q46 -81 56 -96q47 59 132.5 116.5t112.5 57.5q25 0 59 -21q79 -49 102 -52q0 -3 1.5 -5t2.5 -3q0 -17 -31 -32t-47 -15q-21 0 -61 25t-71 25q-24 0 -56.5 -24
t-32.5 -51q0 -44 88 -101q29 -19 88 -48q-86 -66 -150 -120q-70 -60 -70 -109q0 -18 33 -46q26 -21 52 -41q33 -28 55 -42q40 -25 72 -25q52 0 84 46q26 37 26 77q0 21 -24 47q-27 29 -53 29q-20 0 -27 -10t-7 -27q1 -18 1 -25q0 -23 -17 -23q-12 0 -28 20q-11 14 -11 25
q0 47 32.5 79.5t76.5 32.5q52 0 90.5 -36.5t38.5 -89.5zM615 419q-23 15 -57 53q-51 58 -58 65q18 -63 29 -120q6 -31 10 -66q26 25 51 39q14 8 25 29z" />
    <glyph glyph-name="oe" unicode="&#x153;" horiz-adv-x="740" 
d="M717 128q0 -52 -49 -91t-122 -39q-8 -1 -13 -1q-28 0 -57 9q-44 14 -87 48q-38 -34 -71 -48q-25 -10 -51 -10q-5 0 -15.5 1t-15.5 1q-102 0 -159 66q-52 60 -52 157q0 99 80 184q71 75 129 75q31 0 151 -94q16 34 63 64q52 34 104 34q62 0 110 -61q41 -52 41 -95
q0 -48 -86 -91t-176 -85q0 -31 38 -63q46 -39 107 -39q33 0 57 24t24 49q0 15 -6 24.5t-12 20.5q0 4 3 11t3 8h26q36 -29 36 -59zM605 322q0 23 -27 61q-31 43 -63 43q-26 0 -50 -35t-24 -79q1 -21 3 -46t7 -52q68 37 92 50q62 34 62 58zM349 181q0 126 -80 185
q-26 19 -81 34q-37 0 -55 -45q-14 -35 -14 -90q0 -105 14 -149q27 -84 110 -84q39 0 67 28q39 39 39 121z" />
    <glyph glyph-name="Ydieresis" unicode="&#x178;" horiz-adv-x="736" 
d="M476 882q0 -24 -23 -39q-17 -11 -29 -11q-17 0 -32.5 15.5t-15.5 28.5q0 17 22 43q14 17 28 17q17 0 33.5 -21t16.5 -33zM316 882q0 -24 -23 -39q-17 -11 -29 -11q-17 0 -32.5 15.5t-15.5 28.5q0 17 22 43q14 17 28 17q17 0 33.5 -21t16.5 -33zM638 595q0 -94 -36 -239
q-32 -128 -77 -243q-7 -28 -42 -103q-53 -113 -113 -187q-82 -101 -162 -101q-41 0 -87 41q-50 45 -50 95q0 46 46 77q37 25 66 25q8 0 17.5 -5.5t9.5 -14.5q0 -4 -31 -32q-16 -15 -16 -31q0 -23 20 -42q24 -23 59 -23q74 0 125 103q38 77 38 125q0 35 -32 129
q-27 80 -86 224q-27 68 -49 117q-26 59 -57 117q-26 47 -32 55q-26 34 -54 34q-13 0 -23 -14q-24 -33 -32 -33q-25 0 -25 26q0 30 33 62q38 36 83 36q48 0 87 -38q33 -32 67 -100q11 -21 62 -138q105 -274 127 -328q20 19 50 132q34 127 34 221q0 80 -37 122q-33 37 -83 37
q-30 0 -58.5 -28.5t-36.5 -28.5q-8 5 -11 7q-12 9 -12 15q0 12 28 46q67 81 147 81q78 0 114 -62q29 -50 29 -136z" />
    <glyph glyph-name="circumflex" unicode="&#x2c6;" horiz-adv-x="514" 
d="M208 640l5 1h5q12 0 17.5 -1.5t15.5 -7.5l35 -17l7 -5l6 -3q11 -7 26.5 -13t19.5 -6h10l16 3q8 2 16 8q6 3 16 13q7 5 17 20l3 1l5 1l8 -3l2 -7l-1 -4l-1 -3l-3 -2l-5 -5l-4 -3q-5 -8 -9 -12l-9 -9q-8 -9 -14.5 -16.5t-12.5 -13.5q-1 -1 -14 -11q-14 -8 -34 -8l-1 1
q-19 0 -37 8l-34 19l-3 2l-4 2q-8 6 -15.5 9l-12.5 5q-14 8 -31 8t-39.5 -11t-51.5 -40l-3 -2l-4 -2l-9 2l-5 5l-1 4l1 3l2 3l2 2l14 12l13 12l11 12l12 13q13 15 28.5 25t40.5 10z" />
    <glyph glyph-name="tilde" unicode="&#x2dc;" horiz-adv-x="396" 
d="M203 610q-5 -8 -12 -16t-17 -18l-30 -29q-6 -6 -17 -13.5t-17 -11.5q-12 -9 -18 -12.5t-20 -11.5l-16 17l34 40l31 43l28 43l27 44l57 2l26 -46l29 -43l31 -43l33 -42l-20 -13q-16 7 -36 20q-15 9 -33 26l-31 29l-29 33v2z" />
    <glyph glyph-name="endash" unicode="&#x2013;" horiz-adv-x="748" 
d="M715 375h-680v85h680v-85z" />
    <glyph glyph-name="emdash" unicode="&#x2014;" horiz-adv-x="1040" 
d="M1005 370h-965v85h965v-85z" />
    <glyph glyph-name="quoteleft" unicode="&#x2018;" horiz-adv-x="190" 
d="M163 642q0 -13 -20 -28q-16 -12 -35 -12q-37 0 -63 51q-20 39 -20 59q0 27 28.5 58.5t48.5 31.5q11 0 18 -3.5t7 -12.5q0 -6 -39 -35q-19 -14 -19 -31q0 -27 17 -27q17 3 27 3q24 0 37 -16t13 -38z" />
    <glyph glyph-name="quoteright" unicode="&#x2019;" horiz-adv-x="175" 
d="M153 686q0 -36 -34 -62q-28 -22 -52 -22q-11 0 -14 1t-6 3v16q27 14 38 21q20 13 20 37q0 21 -41 25t-41 45q0 14 17 33t36 19q28 0 54 -49q23 -43 23 -67z" />
    <glyph glyph-name="quotedblleft" unicode="&#x201c;" horiz-adv-x="335" 
d="M314 642q0 -12 -18 -26t-37 -14q-32 0 -56.5 39.5t-24.5 70.5q0 27 27.5 58.5t47.5 31.5q10 0 17.5 -4t7.5 -12q0 -5 -39 -35q-19 -15 -19 -31q0 -28 14 -28q4 0 14 2t17 2q23 0 36 -16t13 -38zM158 642q0 -13 -20 -28q-16 -12 -35 -12q-37 0 -63 51q-20 39 -20 59
q0 27 28.5 58.5t48.5 31.5q11 0 18 -3.5t7 -12.5q0 -6 -39 -35q-19 -14 -19 -31q0 -27 17 -27q17 3 27 3q24 0 37 -16t13 -38z" />
    <glyph glyph-name="quotedblright" unicode="&#x201d;" horiz-adv-x="325" 
d="M303 681q0 -36 -34 -62q-28 -22 -52 -22q-11 0 -14 1t-6 3v16q27 14 38 21q20 13 20 37q0 21 -41 25t-41 45q0 14 17 33t36 19q28 0 54 -49q23 -43 23 -67zM149 681q0 -35 -27.5 -59.5t-57.5 -24.5q-6 0 -10.5 1.5t-8.5 2.5v16q21 13 43 26q15 11 15 32q0 14 -41 25
t-41 45q0 22 18.5 37t33.5 15q18 0 45 -33q31 -38 31 -83z" />
    <glyph glyph-name="bullet" unicode="&#x2022;" horiz-adv-x="285" 
d="M144 528q21 0 43 -9.5t39 -26.5q5 -5 10 -12q10 -12 14.5 -22.5t6.5 -22t2 -23.5q0 -28 -6.5 -42t-12.5 -23t-14 -17q-15 -16 -37 -25.5t-46 -9.5q-23 0 -39.5 6.5t-32.5 20.5q-6 4 -13.5 12.5t-13.5 15.5q-4 7 -7 14.5t-7 23.5l-1 4v5l-1 4v2v4v3q0 22 8 44
q10 22 26 38.5t37.5 25.5t44.5 9v1z" />
    <glyph glyph-name="ellipsis" unicode="&#x2026;" horiz-adv-x="436" 
d="M116 52q0 -24 -23 -39q-17 -11 -29 -11q-17 0 -32.5 15.5t-15.5 28.5q0 17 22 43q14 17 28 17q17 0 33.5 -21t16.5 -33zM266 52q0 -24 -23 -39q-17 -11 -29 -11q-17 0 -32.5 15.5t-15.5 28.5q0 17 22 43q14 17 28 17q17 0 33.5 -21t16.5 -33zM416 52q0 -24 -23 -39
q-17 -11 -29 -11q-17 0 -32.5 15.5t-15.5 28.5q0 17 22 43q14 17 28 17q17 0 33.5 -21t16.5 -33z" />
    <glyph glyph-name="perthousand" unicode="&#x2030;" horiz-adv-x="1176" 
d="M629 746q0 -12 -61 -141q-54 -115 -121 -247l-144 -294q-29 -55 -68 -55q-25 0 -39.5 6.5t-14.5 23.5q0 6 57.5 130t125.5 260l133 266q14 30 29 61q23 36 56 36q23 0 35 -12t12 -34zM785 156q0 -89 -51 -126q-41 -30 -120 -30q-61 0 -108 33q-57 40 -57 111
q0 90 44.5 138t134.5 48q83 0 123 -54q34 -46 34 -120zM706 219q0 18 -1 22q-3 4 -4 8h-57q-63 -51 -91 -94q-21 -32 -21 -56q0 -11 13 -26q9 -10 17 -10q35 0 82 36q62 48 62 120zM355 626q0 -89 -51 -126q-41 -30 -120 -30q-61 0 -108 33q-57 40 -57 111q0 90 44.5 138
t134.5 48q83 0 123 -54q34 -46 34 -120zM276 689q0 18 -1 22q-3 4 -4 8h-57q-63 -51 -91 -94q-21 -32 -21 -56q0 -11 13 -26q9 -10 17 -10q35 0 82 36q62 48 62 120zM1155 156q0 -89 -51 -126q-41 -30 -120 -30q-61 0 -108 33q-57 40 -57 111q0 90 44.5 138t134.5 48
q83 0 123 -54q34 -46 34 -120zM1076 219q0 18 -1 22q-3 4 -4 8h-57q-63 -51 -91 -94q-21 -32 -21 -56q0 -11 13 -26q9 -10 17 -10q35 0 82 36q62 48 62 120z" />
    <glyph glyph-name="guilsinglleft" unicode="&#x2039;" horiz-adv-x="270" 
d="M240 650l-225 -225l225 -270v125l-110 145l110 105v120z" />
    <glyph glyph-name="guilsinglright" unicode="&#x203a;" horiz-adv-x="270" 
d="M253 425l-225 -270v125l110 145l-110 105v120z" />
    <glyph glyph-name="trademark" unicode="&#x2122;" horiz-adv-x="672" 
d="M290 784h105l75 -212l77 212h98v-12q-1 -3 -3 -3h-4q-8 0 -13 -4l-11 -5q-6 -5 -7 -8l-2 -14v-200q0 -12 2 -18l9 -7l13 -5l16 -1v-14h-131v16h15q8 0 13 4q5 1 8 7t3 16v213l-92 -259h-12l-94 259v-211q0 -12 3 -18l9 -7l15 -5l15 -1v-14h-107v16h16q8 0 13 4
q7 2 10 7.5t3 15.5v203l-3 13q-1 5 -8 8l-11 5l-12 4h-4l-1 1h-3v14v0zM2 784h242l6 -99h-16q0 20 -6.5 35t-14.5 25t-17.5 12.5t-21.5 5.5t-21 3v-228l-1 -3q0 -11 2 -15t10 -8l13 -4l16 -1v-14h-138v16h14q7 0 14 4l8 7q4 5 4 16v232q-20 0 -38 -8q-13 -4 -24 -15
q-3 -5 -7 -13t-6 -13q-5 -14 -8 -36l-15 2l5 99v0z" />
    </font>
</defs>
</svg>
