<?xml version="1.0" standalone="no"?>
<!DOCTYPE svg PUBLIC "-//W3C//DTD SVG 1.1//EN" "http://www.w3.org/Graphics/SVG/1.1/DTD/svg11.dtd" >
<svg xmlns="http://www.w3.org/2000/svg" xmlns:xlink="http://www.w3.org/1999/xlink" version="1.1">
<metadata>
Created by FontForge 20170731 at Tue Nov  4 12:07:38 2008
 By Aleksey,,,
Copyright (c) 2008 by ShyFoundry. All rights reserved. Freeware for personal use only. To purchase a commercial license, please visit our site at http://www.shyfoundry.com.
</metadata>
<defs>
<font id="SFFourcheCondensed-Italic" horiz-adv-x="477" >
  <font-face 
    font-family="SF Fourche Condensed"
    font-weight="400"
    font-style="italic"
    font-stretch="normal"
    units-per-em="1000"
    panose-1="2 0 5 6 0 0 0 9 0 4"
    ascent="800"
    descent="-200"
    x-height="600"
    cap-height="700"
    bbox="-82 -200 1000 975"
    underline-thickness="50"
    underline-position="-150"
    slope="-8"
    unicode-range="U+0020-FB02"
  />
<missing-glyph horiz-adv-x="360" 
 />
    <glyph glyph-name=".notdef" horiz-adv-x="360" 
 />
    <glyph glyph-name=".null" horiz-adv-x="0" 
 />
    <glyph glyph-name="nonmarkingreturn" horiz-adv-x="360" 
 />
    <glyph glyph-name="space" unicode=" " horiz-adv-x="360" 
 />
    <glyph glyph-name="space" unicode="&#xa0;" horiz-adv-x="360" 
 />
    <glyph glyph-name="exclam" unicode="!" horiz-adv-x="203" 
d="M152 750h100l-75 -530h-100zM66 140h109l-24 -140h-98z" />
    <glyph glyph-name="quotedbl" unicode="&#x22;" horiz-adv-x="333" 
d="M282 750h109l-71 -350h-66zM152 750h109l-71 -350h-65z" />
    <glyph glyph-name="numbersign" unicode="#" horiz-adv-x="506" 
d="M175 280h-89l11 80h96l26 120h-83l11 80h89q8 34 16 70t15 70h65l-31 -140h79q8 34 16 70t15 70h65l-31 -140h91l-11 -80h-97l-26 -120h85l-11 -80h-91l-30 -140h-66l30 140h-78l-30 -140h-66zM337 360l26 120h-79l-26 -120h79z" />
    <glyph glyph-name="dollar" unicode="$" horiz-adv-x="527" 
d="M67 120h180l24 170h-36q-62 0 -98.5 32.5t-36.5 112.5q0 14 1.5 28.5t3.5 31.5q8 58 25 97.5t41 63.5t55 34t67 10h36l14 100h65l-14 -100h180l-17 -120h-180l-24 -170h36q31 0 56 -7.5t42.5 -24.5t27 -44.5t9.5 -67.5q0 -14 -1.5 -29t-3.5 -32q-8 -59 -25 -98t-41 -63
t-54.5 -34t-66.5 -10h-36l-15 -100h-65l15 100h-180zM288 410l24 170h-21q-27 0 -48.5 -18.5t-28.5 -66.5q-1 -7 -1.5 -12.5t-0.5 -10.5q0 -35 16 -48.5t39 -13.5h21zM334 120q13 0 27 5.5t25.5 18t18.5 33t7 51.5q0 35 -15.5 48.5t-38.5 13.5h-22l-24 -170h22z" />
    <glyph glyph-name="percent" unicode="%" horiz-adv-x="733" 
d="M225 329q-47 0 -78 30.5t-31 104.5q0 69 14.5 116t37.5 76t52 41.5t58 12.5q23 0 43 -7.5t35 -24t24 -42.5t9 -64q0 -11 -1 -24.5t-3 -27.5q-8 -53 -23.5 -89.5t-37 -59t-47 -32.5t-52.5 -10zM539 700h73l-321 -700h-73zM235 405q13 0 25 5.5t22.5 18.5t19 35.5
t13.5 55.5q3 22 3 41q0 42 -14.5 57.5t-35.5 15.5q-13 0 -25 -5.5t-22.5 -18.5t-18.5 -35t-12 -55q-2 -13 -3 -24t-1 -21q0 -40 14 -55t35 -15zM443 124q0 13 1 27t3 30q7 53 22.5 89t36.5 58.5t46.5 32.5t52.5 10q23 0 43 -7t35 -23t23.5 -42t8.5 -63q0 -13 -1 -26.5
t-3 -28.5q-8 -53 -23.5 -89.5t-37 -59t-47 -32.5t-52.5 -10q-23 0 -43 7t-34.5 23t-22.5 41.5t-8 62.5zM513 136q0 -40 14 -55t35 -15q13 0 25 5.5t22.5 18.5t18.5 35.5t13 55.5q3 22 3 41q0 42 -14.5 57.5t-35.5 15.5q-13 0 -25 -5.5t-22 -18.5t-18 -35t-12 -55
q-2 -13 -3 -24t-1 -21z" />
    <glyph glyph-name="ampersand" unicode="&#x26;" horiz-adv-x="520" 
d="M62 135q0 87 28.5 140.5t68.5 79.5h-1q-17 17 -27 43t-10 64q0 67 17.5 113t45 73.5t63 39.5t71.5 12h181l-17 -120h-181q-12 0 -25 -5.5t-23 -19t-16.5 -35t-6.5 -52.5q0 -32 13.5 -45t33.5 -13h80l-17 -120h-94q-12 0 -25 -6.5t-23.5 -21.5t-17.5 -38.5t-7 -57.5
q0 -35 13.5 -48t33.5 -13h32q25 0 50 11.5t46.5 39.5t38.5 75.5t26 118.5l8 60h109l-57 -410h-109l9 66q-36 -42 -80.5 -61.5t-89.5 -19.5q-30 0 -55.5 7.5t-44.5 25.5t-30 46.5t-11 70.5z" />
    <glyph glyph-name="quotesingle" unicode="'" horiz-adv-x="203" 
d="M152 750h109l-71 -350h-65z" />
    <glyph glyph-name="parenleft" unicode="(" horiz-adv-x="290" 
d="M124 550q6 42 18 70.5t28.5 46.5t36.5 25.5t41 7.5h92l-13 -90h-72q-12 0 -21.5 -12t-14.5 -45l-77 -546q-1 -7 -1.5 -12.5t-0.5 -10.5q0 -20 6 -27t16 -7h72l-12 -90h-92q-36 0 -61 23.5t-25 81.5q0 11 1 22t3 23z" />
    <glyph glyph-name="parenright" unicode=")" horiz-adv-x="290" 
d="M112 -50q12 0 21.5 12t14.5 45l77 546q1 7 1.5 12.5t0.5 10.5q0 19 -6 26.5t-16 7.5h-73l13 90h92q36 0 60.5 -23.5t24.5 -82.5q0 -20 -3 -44l-76 -540q-6 -42 -18.5 -70.5t-29 -46.5t-36 -25.5t-40.5 -7.5h-92l12 90h73z" />
    <glyph glyph-name="asterisk" unicode="*" horiz-adv-x="438" 
d="M244 392l-118 -100l-26 90l130 78l-108 78l51 90l89 -102l15 174h80l-35 -173l119 101l25 -90l-131 -78l109 -78l-50 -90l-91 100l-14 -172h-80z" />
    <glyph glyph-name="plus" unicode="+" horiz-adv-x="448" 
d="M219 250h-137l14 100h137l26 190h80l-26 -190h137l-14 -100h-137l-27 -190h-80z" />
    <glyph glyph-name="comma" unicode="," horiz-adv-x="203" 
d="M66 140h109l-61 -280h-65z" />
    <glyph glyph-name="hyphen" unicode="-" horiz-adv-x="390" 
d="M96 355h296l-15 -110h-296z" />
    <glyph glyph-name="period" unicode="." horiz-adv-x="203" 
d="M66 140h109l-19 -140h-109z" />
    <glyph glyph-name="slash" unicode="/" horiz-adv-x="347" 
d="M382 740h72l-404 -880h-72z" />
    <glyph glyph-name="zero" unicode="0" horiz-adv-x="596" 
d="M111 233q0 51 9 117q14 101 41.5 171t64.5 113t81 62t91 19q39 0 73 -13.5t58.5 -43t39 -77t14.5 -116.5q0 -52 -9 -115q-14 -101 -42 -171t-65 -113t-81.5 -62t-90.5 -19q-40 0 -73.5 13.5t-58 43t-38.5 76.5t-14 115zM312 105q24 0 47 11.5t43.5 39.5t36.5 75.5
t26 118.5q4 28 5.5 52t1.5 44q0 42 -7 71t-19.5 46t-29 24.5t-35.5 7.5q-25 0 -48 -11.5t-43.5 -39.5t-36 -75.5t-25.5 -118.5q-4 -29 -6 -53.5t-2 -45.5q0 -42 7 -70t19 -45t29 -24t37 -7z" />
    <glyph glyph-name="one" unicode="1" horiz-adv-x="293" 
d="M186 669l116 54l-101 -723h-109z" />
    <glyph glyph-name="two" unicode="2" horiz-adv-x="610" 
d="M109 205q8 57 25 96.5t41.5 63.5t55 34.5t66.5 10.5h115q14 0 28 5.5t25.5 18t18.5 33.5t7 52q0 34 -16 47.5t-39 13.5h-259l17 120h274q31 0 56 -7.5t42.5 -24t27 -44t9.5 -67.5q0 -14 -1.5 -29.5t-3.5 -32.5q-8 -57 -25 -96.5t-41 -63.5t-55 -34.5t-67 -10.5h-115
q-27 0 -48.5 -18.5t-28.5 -66.5l-12 -85h331l-16 -120h-440z" />
    <glyph glyph-name="three" unicode="3" horiz-adv-x="592" 
d="M101 120h267q12 0 25 5.5t23 18.5t16.5 34t6.5 53t-13.5 45.5t-33.5 13.5h-195l17 120h180q13 0 25.5 5.5t23 18.5t17 34t6.5 53t-13.5 45.5t-34.5 13.5h-252l17 120h252q30 0 56 -7.5t45 -24.5t30 -44t11 -67q0 -75 -24 -126t-56 -76h-1q23 -18 37 -47t14 -73
q0 -67 -17 -112t-45 -72.5t-62.5 -39t-70.5 -11.5h-267z" />
    <glyph glyph-name="four" unicode="4" horiz-adv-x="632" 
d="M102 279l356 421h136l-62 -440h72l-17 -120h-72l-19 -140h-109l19 140h-324zM423 260l41 292l-242 -292h201z" />
    <glyph glyph-name="five" unicode="5" horiz-adv-x="610" 
d="M97 120h274q14 0 28.5 6t26 20t19 38t7.5 59q0 37 -15.5 52t-38.5 15h-274l55 390h419l-17 -120h-310l-21 -150h180q31 0 55.5 -8t42 -26t27 -46.5t9.5 -70.5q0 -14 -1.5 -30t-3.5 -34q-9 -62 -26 -103t-41 -66t-55 -35.5t-67 -10.5h-289z" />
    <glyph glyph-name="six" unicode="6" horiz-adv-x="614" 
d="M111 239q0 49 9 111q13 97 40 164t62.5 108.5t78.5 59.5t88 18h218l-17 -120h-203q-41 0 -77.5 -29.5t-59.5 -100.5h203q27 0 50.5 -7.5t40.5 -25.5t27 -46.5t10 -70.5q0 -14 -1.5 -29.5t-3.5 -32.5q-9 -66 -27.5 -111.5t-43.5 -73.5t-54.5 -40.5t-60.5 -12.5h-99
q-38 0 -71 12.5t-57 41t-38 74t-14 111.5zM383 120q12 0 27 8t28 25t22 44.5t9 66.5q0 38 -16.5 52.5t-39.5 14.5h-188q-2 -17 -3 -32t-1 -29q0 -42 7.5 -70.5t21 -46.5t32 -25.5t40.5 -7.5h61z" />
    <glyph glyph-name="seven" unicode="7" horiz-adv-x="542" 
d="M436 580h-288l17 120h418l-17 -120l-340 -580h-137z" />
    <glyph glyph-name="eight" unicode="8" horiz-adv-x="617" 
d="M96 143q0 83 29 135t69 77h-1q-17 17 -27 43t-10 64q0 67 17 113t45 73.5t63.5 39.5t71.5 12h108q30 0 56 -7.5t45 -24.5t30 -44t11 -67q0 -75 -24 -125.5t-56 -76.5h-1q23 -18 36.5 -46.5t13.5 -73.5q0 -67 -17 -112t-45 -72.5t-62.5 -39t-70.5 -11.5h-137
q-30 0 -56.5 7.5t-46 24.5t-30.5 44t-11 67zM420 410q12 0 25 5.5t23 18.5t16.5 34t6.5 53t-13.5 45.5t-33.5 13.5h-108q-13 0 -26 -5.5t-23 -19t-16.5 -35t-6.5 -52.5q0 -32 13.5 -45t34.5 -13h108zM209 178q0 -32 13.5 -45t33.5 -13h137q12 0 25 5.5t23 18.5t16.5 34
t6.5 53t-13.5 45.5t-33.5 13.5h-137q-12 0 -25 -5.5t-23 -19t-16.5 -35t-6.5 -52.5z" />
    <glyph glyph-name="nine" unicode="9" horiz-adv-x="614" 
d="M121 120h203q40 0 76.5 29t60.5 101h-202q-27 0 -51 7.5t-41 25.5t-27 47t-10 71q0 14 1.5 29t3.5 32q9 66 27.5 111.5t43.5 73.5t54.5 40.5t61.5 12.5h98q39 0 72 -13t57 -41.5t37.5 -74t13.5 -111.5q0 -25 -1.5 -52.5t-6.5 -57.5q-14 -98 -40.5 -164.5t-62.5 -108
t-78.5 -59.5t-88.5 -18h-217zM485 369q2 17 3 32.5t1 29.5q0 82 -28.5 115.5t-71.5 33.5h-62q-26 0 -50.5 -27t-33.5 -91q-1 -8 -1.5 -14t-0.5 -12q0 -38 16.5 -52.5t39.5 -14.5h188z" />
    <glyph glyph-name="colon" unicode=":" horiz-adv-x="203" 
d="M111 460h109l-20 -140h-109zM66 140h109l-19 -140h-109z" />
    <glyph glyph-name="semicolon" unicode=";" horiz-adv-x="203" 
d="M111 460h109l-20 -140h-109zM66 140h109l-61 -280h-65z" />
    <glyph glyph-name="less" unicode="&#x3c;" horiz-adv-x="445" 
d="M96 349l349 214l19 -92l-292 -171l244 -171l-45 -92l-289 214z" />
    <glyph glyph-name="equal" unicode="=" horiz-adv-x="448" 
d="M110 450h354l-14 -100h-354zM82 250h354l-14 -100h-354z" />
    <glyph glyph-name="greater" unicode="&#x3e;" horiz-adv-x="445" 
d="M65 129l293 171q-61 42 -123 85.5t-122 85.5l46 92l288 -214l-14 -98l-348 -214z" />
    <glyph glyph-name="question" unicode="?" horiz-adv-x="498" 
d="M84 220q9 83 26.5 131t41.5 72t52.5 30.5t58.5 6.5h79q14 0 28 5.5t25 18.5t18 34t7 51q0 34 -15.5 47.5t-38.5 13.5h-216l17 120h230q31 0 56 -7.5t42.5 -24t27 -44t9.5 -67.5q0 -14 -1.5 -29.5t-3.5 -32.5q-8 -57 -24.5 -96.5t-41 -63.5t-55.5 -34.5t-67 -10.5h-93
q-11 0 -20.5 -4t-18 -17t-15.5 -36.5t-13 -62.5h-95zM66 140h109l-8 -140h-120z" />
    <glyph glyph-name="at" unicode="@" horiz-adv-x="826" 
d="M98 350q0 76 28.5 142.5t78 116t116 78t142.5 28.5t142.5 -28.5t116 -78t78 -116t28.5 -142.5t-28.5 -142.5t-78 -116t-116 -78t-142.5 -28.5t-142.5 28.5t-116 78t-78 116t-28.5 142.5zM168 350q0 -61 23 -115t63 -94t94 -63t115 -23t115 23t94 63t63 94t23 115t-23 115
t-63 94t-94 63t-115 23t-115 -23t-94 -63t-63 -94t-23 -115zM325 282q0 32 7 53.5t18.5 34.5t27 18.5t33.5 5.5h116q0 38 -20.5 53t-49.5 15h-112v68h120q25 0 48 -7t39.5 -23t26.5 -42t10 -64v-224h-178q-18 0 -33.5 6t-27 19t-18.5 34.5t-7 52.5zM388 282q0 -24 11 -34
t25 -10h103v89h-103q-14 0 -25 -9.5t-11 -35.5z" />
    <glyph glyph-name="A" unicode="A" horiz-adv-x="545" 
d="M313 700h116l127 -700h-121l-24 140h-240l-61 -140h-120zM392 260q-11 67 -22 136.5t-22 137.5l-123 -274h167z" />
    <glyph glyph-name="B" unicode="B" horiz-adv-x="552" 
d="M145 700h296q30 0 56 -7.5t45 -24.5t30 -44t11 -67q0 -75 -24 -125.5t-56 -76.5h-1q23 -18 36.5 -46.5t13.5 -73.5q0 -67 -17 -112t-45 -72.5t-62.5 -39t-70.5 -11.5h-310zM400 410q12 0 25 5.5t23 18.5t16.5 34t6.5 53t-13.5 45.5t-33.5 13.5h-187l-24 -170h187z
M373 120q12 0 25 5.5t23 18.5t16.5 34t6.5 53t-13.5 45.5t-33.5 13.5h-201l-24 -170h201z" />
    <glyph glyph-name="C" unicode="C" 
d="M246 0q-38 0 -71 12.5t-57 41t-38 74t-14 111.5q0 49 9 111q13 97 40 164t62.5 108t78.5 59.5t88 18.5h191l-17 -120h-177q-26 0 -50.5 -11t-45 -37.5t-37 -70.5t-25.5 -111q-4 -24 -5.5 -45t-1.5 -40q0 -41 7.5 -69t21 -45t32 -24t39.5 -7h177l-16 -120h-191v0z" />
    <glyph glyph-name="D" unicode="D" horiz-adv-x="542" 
d="M145 700h249q38 0 71 -13t57 -41.5t37.5 -74.5t13.5 -112q0 -24 -1.5 -51.5t-6.5 -57.5q-14 -97 -40.5 -164t-62.5 -108t-78.5 -59.5t-87.5 -18.5h-249zM298 120q26 0 50.5 11t45 37.5t37 70.5t25.5 111q6 48 6 85q0 41 -7.5 69t-21 45t-31.5 24t-39 7h-126l-65 -460h126
z" />
    <glyph glyph-name="E" unicode="E" horiz-adv-x="484" 
d="M246 0q-38 0 -71 12.5t-57 41t-38 74t-14 111.5q0 49 9 111q13 97 40 164t62.5 108t78.5 59.5t88 18.5h191l-17 -120h-177q-23 0 -44 -9t-40 -29t-35 -52.5t-28 -79.5h300l-17 -120h-300v-16q0 -43 7.5 -72.5t20.5 -47.5t31 -26t40 -8h177l-16 -120h-191v0z" />
    <glyph glyph-name="F" unicode="F" horiz-adv-x="484" 
d="M92 370q13 92 39 155t61.5 102t78 56t87.5 17h191l-17 -120h-177q-23 0 -45 -9t-41.5 -29t-35.5 -52.5t-26 -79.5h301l-17 -120h-302l-40 -290h-109z" />
    <glyph glyph-name="G" unicode="G" horiz-adv-x="542" 
d="M246 0q-38 0 -71 12.5t-57 41t-38 74t-14 111.5q0 49 9 111q13 97 40 164t62.5 108t78.5 59.5t88 18.5h248l-17 -120h-234q-26 0 -50.5 -11t-45 -37.5t-37 -70.5t-25.5 -111q-4 -24 -5.5 -45t-1.5 -40q0 -41 7.5 -69t21 -45t32 -24t39.5 -7h126l24 170h-101l17 120h209
l-57 -410h-248v0z" />
    <glyph glyph-name="H" unicode="H" horiz-adv-x="534" 
d="M145 700h109l-41 -290h222l41 290h109l-98 -700h-109l40 290h-222l-40 -290h-109z" />
    <glyph glyph-name="I" unicode="I" horiz-adv-x="203" 
d="M145 700h109l-98 -700h-109z" />
    <glyph glyph-name="J" unicode="J" horiz-adv-x="383" 
d="M34 120h91q26 0 50 8t43.5 26.5t34 49t20.5 76.5l59 420h109l-59 -420q-11 -79 -37 -132.5t-62.5 -86.5t-81 -47t-92.5 -14h-91z" />
    <glyph glyph-name="K" unicode="K" horiz-adv-x="491" 
d="M145 700h109l-43 -308l237 308h136l-274 -350l176 -350h-136l-151 307l-43 -307h-109z" />
    <glyph glyph-name="L" unicode="L" horiz-adv-x="426" 
d="M73 208q0 33 6 72l59 420h109l-59 -420q-3 -24 -3 -45q0 -65 30 -90t75 -25h134l-16 -120h-134q-42 0 -78.5 10.5t-64 35t-43 64.5t-15.5 98z" />
    <glyph glyph-name="M" unicode="M" horiz-adv-x="663" 
d="M145 700h154l59 -502l203 502h153l-98 -700h-106l64 458q-45 -115 -92 -229t-92 -229h-117l-53 458l-64 -458h-109z" />
    <glyph glyph-name="N" unicode="N" horiz-adv-x="534" 
d="M145 700h138l124 -489l69 489h109l-98 -700h-137l-126 488l-68 -488h-109z" />
    <glyph glyph-name="O" unicode="O" horiz-adv-x="549" 
d="M67 240q0 25 1.5 52.5t6.5 57.5q14 101 43 171t69 113t87.5 62t99.5 19q43 0 81 -13.5t65.5 -44.5t43.5 -80t16 -120q0 -24 -2 -51t-6 -56q-14 -101 -44 -171t-70 -113t-88 -62t-99 -19q-44 0 -81.5 13.5t-64.5 44t-42.5 79t-15.5 118.5zM288 105q29 0 56 11.5t50 39.5
t41 75.5t28 118.5q6 48 6 86q0 45 -8.5 75.5t-23.5 49t-35.5 26.5t-44.5 8q-29 0 -56.5 -11.5t-50 -39.5t-40 -75.5t-27.5 -118.5q-4 -26 -5.5 -47.5t-1.5 -41.5q0 -45 8.5 -75t23.5 -48t35.5 -25.5t44.5 -7.5z" />
    <glyph glyph-name="P" unicode="P" horiz-adv-x="542" 
d="M145 700h296q31 0 57.5 -9t46 -29.5t30.5 -52.5t11 -78q0 -14 -1 -29t-3 -32q-10 -69 -30 -115t-48 -74t-61 -39.5t-68 -11.5h-187l-32 -230h-109zM392 350q27 0 49 25.5t32 94.5q3 19 3 36q0 40 -14.5 57t-37.5 17h-187l-32 -230h187z" />
    <glyph glyph-name="Q" unicode="Q" horiz-adv-x="549" 
d="M221 -10q-35 6 -63 24t-48.5 48.5t-31.5 74.5t-11 103q0 25 1.5 52t6.5 58q14 101 43 171t69 113t87.5 62t99.5 19q43 0 81 -13.5t65.5 -44.5t43.5 -80t16 -120q0 -24 -2 -51t-6 -56q-12 -88 -36.5 -152t-57 -107.5t-72 -68t-82.5 -32.5h3l-18 -130h-109l18 130h3z
M246 190h109l-10 -73q20 9 38 26t33 45t27 68t20 94q6 48 6 86q0 45 -8.5 75.5t-23.5 49t-35.5 26.5t-44.5 8q-29 0 -56.5 -11.5t-50 -39.5t-40 -75.5t-27.5 -118.5q-4 -25 -5.5 -46.5t-1.5 -41.5q0 -63 16.5 -97.5t43.5 -48.5z" />
    <glyph glyph-name="R" unicode="R" horiz-adv-x="552" 
d="M145 700h303q30 0 55.5 -8t44 -26.5t29.5 -48t11 -71.5q0 -66 -13.5 -114t-35 -80.5t-48.5 -51t-55 -25.5h3l76 -275h-124l-70 270h-128l-37 -270h-109zM404 390q12 0 24.5 6t23.5 21t18 40t7 62q0 33 -13 47t-33 14h-194l-27 -190h194z" />
    <glyph glyph-name="S" unicode="S" horiz-adv-x="527" 
d="M67 120h267q13 0 27 5.5t25.5 18t18.5 33t7 51.5q0 35 -15.5 48.5t-38.5 13.5h-123q-62 0 -98.5 32.5t-36.5 112.5q0 14 1.5 28.5t3.5 31.5q8 58 25 97.5t41 63.5t55 34t67 10h281l-17 -120h-266q-14 0 -28 -5.5t-25.5 -18t-18.5 -33t-7 -51.5q0 -35 16 -48.5t39 -13.5
h122q31 0 56 -7.5t42.5 -24.5t27 -44.5t9.5 -67.5q0 -14 -1.5 -29t-3.5 -32q-8 -59 -25 -98t-41 -63t-54.5 -34t-66.5 -10h-281z" />
    <glyph glyph-name="T" unicode="T" horiz-adv-x="471" 
d="M262 580h-180l17 120h469l-17 -120h-180l-81 -580h-109z" />
    <glyph glyph-name="U" unicode="U" horiz-adv-x="549" 
d="M74 206q0 19 1 40t5 44l58 410h109l-58 -410q-2 -17 -3.5 -31t-1.5 -28q0 -36 8 -60t22 -38.5t33 -21t41 -6.5q26 0 50 9t44.5 30.5t35 57t22.5 88.5l58 410h109l-58 -410q-12 -87 -39 -145.5t-64 -94t-82 -50.5t-93 -15q-42 0 -78 11t-62.5 37t-41.5 68.5t-15 104.5z
" />
    <glyph glyph-name="V" unicode="V" horiz-adv-x="545" 
d="M88 700h120l88 -533q57 131 118.5 266.5t118.5 266.5h121l-323 -700h-116z" />
    <glyph glyph-name="W" unicode="W" horiz-adv-x="739" 
d="M95 700h115l43 -470l159 470h111l25 -473l177 473h115l-267 -700h-115l-26 451l-151 -451h-115z" />
    <glyph glyph-name="X" unicode="X" horiz-adv-x="491" 
d="M232 350l-130 350h130l80 -224l143 224h130l-228 -350q32 -87 65 -175t65 -175h-130l-80 224l-143 -224h-130z" />
    <glyph glyph-name="Y" unicode="Y" horiz-adv-x="491" 
d="M232 296l-137 404h130l82 -264l155 264h130l-251 -404l-41 -296h-109z" />
    <glyph glyph-name="Z" unicode="Z" horiz-adv-x="513" 
d="M52 118l369 462h-304l17 120h440l-17 -118l-368 -462h303l-16 -120h-440z" />
    <glyph glyph-name="bracketleft" unicode="[" horiz-adv-x="290" 
d="M145 700h195l-13 -90h-100l-93 -660h100l-12 -90h-195z" />
    <glyph glyph-name="backslash" unicode="\" horiz-adv-x="347" 
d="M101 740h73l156 -880h-72z" />
    <glyph glyph-name="bracketright" unicode="]" horiz-adv-x="290" 
d="M140 -50l93 660h-101l13 90h195l-118 -840h-195l12 90h101z" />
    <glyph glyph-name="asciicircum" unicode="^" 
d="M84 269l212 431h80l91 -431l-78 -48l-70 361l-169 -361z" />
    <glyph glyph-name="underscore" unicode="_" horiz-adv-x="400" 
d="M410 -80v-80h-420v80h420z" />
    <glyph glyph-name="grave" unicode="`" horiz-adv-x="298" 
d="M155 767l55 68l136 -144l-35 -43z" />
    <glyph glyph-name="a" unicode="a" horiz-adv-x="470" 
d="M48 132q0 13 1 26.5t3 28.5q7 53 22.5 89t36.5 57.5t46 31t52 9.5h180q-3 61 -25 87t-54 26h-188l16 113h201q33 0 61 -11t48.5 -35.5t32.5 -64t12 -96.5q0 -20 -1.5 -43.5t-5.5 -49.5q-12 -84 -35 -141t-54 -92.5t-67 -51t-75 -15.5h-98q-23 0 -43 7t-34.5 22.5t-23 41
t-8.5 61.5zM257 113q37 0 69.5 34t50.5 115h-164q-11 0 -22 -5t-20 -16t-14.5 -29.5t-5.5 -46.5q0 -29 12 -40.5t29 -11.5h65z" />
    <glyph glyph-name="b" unicode="b" 
d="M159 800h102l-28 -200h113q33 0 61 -11t48.5 -35.5t32.5 -64t12 -96.5q0 -20 -1.5 -43.5t-5.5 -49.5q-12 -84 -35 -141t-54 -92.5t-67 -51t-75 -15.5h-215zM264 113q21 0 40.5 9t36.5 30.5t30 57.5t21 90q3 20 4 37t1 32q0 34 -6 56.5t-16.5 36t-25.5 19.5t-32 6h-100
l-53 -374h100z" />
    <glyph glyph-name="c" unicode="c" horiz-adv-x="420" 
d="M60 204q0 22 2 45.5t6 50.5q12 84 34.5 141t53.5 92.5t67.5 51t75.5 15.5h165l-16 -113h-152q-21 0 -40.5 -9t-36.5 -30.5t-30 -57.5t-20 -90q-6 -41 -6 -71q0 -33 6 -55.5t16.5 -36t25.5 -19t32 -5.5h152l-15 -113h-165q-33 0 -61.5 11t-49 35t-32.5 63t-12 95z" />
    <glyph glyph-name="d" unicode="d" 
d="M60 204q0 22 2 45.5t6 50.5q12 84 34.5 141t53.5 92.5t67.5 51t75.5 15.5h113l28 200h102l-112 -800h-215q-33 0 -61.5 11t-49 35t-32.5 63t-12 95zM343 113l53 374h-100q-21 0 -40.5 -9t-36.5 -30.5t-30 -57.5t-20 -90q-6 -41 -6 -71q0 -33 6 -55.5t16.5 -36t25.5 -19
t32 -5.5h100z" />
    <glyph glyph-name="e" unicode="e" horiz-adv-x="470" 
d="M60 204q0 22 2 45.5t6 50.5q12 84 34.5 141t53.5 92.5t67.5 51t75.5 15.5h97q23 0 43 -7t35 -23t23.5 -41.5t8.5 -62.5q0 -12 -1 -25.5t-3 -27.5q-8 -53 -23.5 -89t-36.5 -58t-46.5 -31t-52.5 -9h-179q2 -60 24.5 -86.5t54.5 -26.5h187l-15 -113h-200q-33 0 -61.5 11
t-49 35t-32.5 63t-12 95zM339 338q10 0 21 4.5t20 15.5t15 29.5t6 45.5q0 29 -12 41.5t-29 12.5h-64q-38 0 -70.5 -34.5t-50.5 -114.5h164z" />
    <glyph glyph-name="f" unicode="f" horiz-adv-x="333" 
d="M166 487h-72l16 113h72l7 50q6 42 20.5 70.5t34.5 46.5t45 25.5t52 7.5h71l-16 -110h-72q-12 0 -21.5 -8t-12.5 -29l-7 -53h101l-16 -113h-101l-68 -487h-101z" />
    <glyph glyph-name="g" unicode="g" 
d="M243 -87q29 0 53 21t32 66h-113q-33 0 -61.5 11t-49 35t-32.5 63t-12 95q0 22 2 45.5t6 50.5q12 84 34.5 141t53.5 92.5t67.5 51t75.5 15.5h215l-84 -600q-8 -56 -25 -94t-40.5 -61.5t-52 -34t-58.5 -10.5h-229l16 113h202zM343 113l53 374h-100q-21 0 -40.5 -9
t-36.5 -30.5t-30 -57.5t-20 -90q-6 -41 -6 -71q0 -33 6 -55.5t16.5 -36t25.5 -19t32 -5.5h100z" />
    <glyph glyph-name="h" unicode="h" 
d="M159 800h102l-28 -200h98q34 0 63.5 -9t51.5 -29t34.5 -52.5t12.5 -79.5q0 -13 -1 -27t-3 -30l-52 -373h-102l52 373q1 8 1.5 14.5t0.5 13.5q0 48 -25 67t-61 19h-86l-68 -487h-102z" />
    <glyph glyph-name="i" unicode="i" horiz-adv-x="196" 
d="M159 800h102l-18 -130h-102zM131 600h102l-84 -600h-102z" />
    <glyph glyph-name="j" unicode="j" horiz-adv-x="196" 
d="M159 800h102l-18 -130h-102zM131 600h102l-84 -600q-8 -56 -25 -94t-40.5 -61.5t-51 -34t-57.5 -10.5h-57l16 113h44q23 0 42 14.5t24 52.5z" />
    <glyph glyph-name="k" unicode="k" horiz-adv-x="459" 
d="M159 800h109l-64 -458l198 258h136l-235 -300l151 -300h-136l-127 256l-35 -256h-109z" />
    <glyph glyph-name="l" unicode="l" horiz-adv-x="196" 
d="M159 800h102l-112 -800h-102z" />
    <glyph glyph-name="m" unicode="m" horiz-adv-x="650" 
d="M131 600h402q28 0 52.5 -8.5t42.5 -28t28.5 -50t10.5 -75.5q0 -14 -1.5 -30.5t-3.5 -34.5l-52 -373h-102l52 373q3 19 3 36q0 43 -16.5 60.5t-42.5 17.5h-57l-68 -487h-101l68 487h-129l-68 -487h-102z" />
    <glyph glyph-name="n" unicode="n" 
d="M131 600h200q34 0 63.5 -9t51.5 -29t34.5 -52.5t12.5 -79.5q0 -13 -1 -27t-3 -30l-52 -373h-102l52 373q1 8 1.5 14.5t0.5 13.5q0 48 -25 67t-61 19h-86l-68 -487h-102z" />
    <glyph glyph-name="o" unicode="o" horiz-adv-x="480" 
d="M61 205q0 22 1.5 45.5t5.5 49.5q12 87 37 147t59.5 97.5t75.5 54t86 16.5q37 0 69.5 -12t56.5 -39t38 -70t14 -104q0 -20 -2 -42.5t-5 -47.5q-12 -87 -38 -147t-61 -97.5t-76.5 -54t-84.5 -16.5q-38 0 -70 12t-55.5 38t-37 68t-13.5 102zM253 98q23 0 45 10t40.5 33
t33 62t22.5 97q3 20 4 38t1 34q0 37 -6.5 62t-18.5 40t-28.5 21.5t-35.5 6.5q-24 0 -46 -10t-40.5 -33t-32.5 -62t-22 -97q-6 -42 -6 -74q0 -36 6.5 -60.5t18.5 -39.5t28.5 -21.5t36.5 -6.5z" />
    <glyph glyph-name="p" unicode="p" 
d="M120 -200h-102l113 800h215q33 0 61 -11t48.5 -35.5t32.5 -64t12 -96.5q0 -20 -1.5 -43.5t-5.5 -49.5q-12 -84 -35 -141t-54 -92.5t-67 -51t-75 -15.5h-113zM264 113q21 0 40.5 9t36.5 30.5t30 57.5t21 90q3 20 4 37t1 32q0 34 -6 56.5t-16.5 36t-25.5 19.5t-32 6h-100
l-53 -374h100z" />
    <glyph glyph-name="q" unicode="q" 
d="M60 204q0 22 2 45.5t6 50.5q12 84 34.5 141t53.5 92.5t67.5 51t75.5 15.5h215l-113 -800h-102l29 200h-113q-33 0 -61.5 11t-49 35t-32.5 63t-12 95zM343 113l53 374h-100q-21 0 -40.5 -9t-36.5 -30.5t-30 -57.5t-20 -90q-6 -41 -6 -71q0 -33 6 -55.5t16.5 -36t25.5 -19
t32 -5.5h100z" />
    <glyph glyph-name="r" unicode="r" horiz-adv-x="405" 
d="M92 373q9 63 30 106.5t50.5 70.5t65.5 38.5t75 11.5h143l-34 -240h-102l18 127h-28q-42 0 -74.5 -25t-41.5 -89l-52 -373h-102z" />
    <glyph glyph-name="s" unicode="s" horiz-adv-x="464" 
d="M64 113h230q25 0 44.5 18t19.5 64q0 27 -12.5 37.5t-32.5 10.5h-105q-27 0 -48.5 6.5t-36.5 21.5t-23.5 39t-8.5 59q0 12 1 25.5t3 28.5q7 50 21.5 84t35.5 54.5t48 29.5t58 9h242l-16 -113h-230q-24 0 -44.5 -18t-20.5 -63q0 -28 13.5 -38.5t33.5 -10.5h105
q54 0 84.5 -27.5t30.5 -97.5q0 -66 -13.5 -110.5t-36 -71.5t-52.5 -38.5t-63 -11.5h-242z" />
    <glyph glyph-name="t" unicode="t" horiz-adv-x="333" 
d="M122 143q0 13 1 27t3 30l40 290h-72l16 113h72l21 147h101l-21 -147h101l-16 -113h-101l-43 -310q-1 -5 -1 -9v-8q0 -28 13.5 -39t34.5 -11h44l-15 -113h-56q-26 0 -48.5 7.5t-39 24.5t-25.5 44.5t-9 66.5z" />
    <glyph glyph-name="u" unicode="u" 
d="M67 171q0 13 1 27t3 29l53 373h102l-53 -373q-2 -8 -2 -15v-13q0 -48 24.5 -67t61.5 -19h86l69 487h102l-84 -600h-201q-34 0 -63.5 9t-51.5 29t-34.5 53t-12.5 80z" />
    <glyph glyph-name="v" unicode="v" horiz-adv-x="467" 
d="M74 600h113l70 -427l191 427h113l-277 -600h-102z" />
    <glyph glyph-name="w" unicode="w" horiz-adv-x="633" 
d="M81 600h107l35 -375l126 375h104l21 -375l140 375h107l-228 -600h-105l-20 366l-122 -366h-103z" />
    <glyph glyph-name="x" unicode="x" horiz-adv-x="429" 
d="M201 300l-113 300h118l65 -188l120 188h118l-198 -300l114 -300h-118l-67 187l-118 -187h-118z" />
    <glyph glyph-name="y" unicode="y" 
d="M243 -87q29 0 53 21t32 66h-113q-34 0 -61.5 8.5t-47 28t-30 50.5t-10.5 76q0 14 1 30t4 34l53 373h102l-53 -373q-3 -20 -3 -36q0 -43 19 -60.5t54 -17.5h100l69 487h102l-84 -600q-8 -56 -25 -94t-40.5 -61.5t-52 -34t-58.5 -10.5h-214l16 113h187z" />
    <glyph glyph-name="z" unicode="z" horiz-adv-x="451" 
d="M51 112l305 375h-252l16 113h378l-16 -112l-304 -375h251l-15 -113h-378z" />
    <glyph glyph-name="braceleft" unicode="{" horiz-adv-x="333" 
d="M146 198q1 7 1.5 13t0.5 11q0 19 -6 26t-16 7h-44l13 90h44q12 0 21.5 12t14.5 45l21 148q6 42 18 70.5t28.5 46.5t36.5 25.5t41 7.5h64l-13 -90h-44q-12 0 -21.5 -12t-14.5 -45l-16 -113q-8 -59 -29.5 -92.5t-47.5 -47.5q17 -12 29 -36t12 -63q0 -19 -3 -41l-22 -153
q-1 -7 -1.5 -12.5t-0.5 -10.5q0 -20 6 -27t16 -7h44l-12 -90h-64q-36 0 -61 23.5t-25 81.5q0 11 1 22t3 23z" />
    <glyph glyph-name="bar" unicode="|" horiz-adv-x="261" 
d="M195 750h80l-134 -950h-80z" />
    <glyph glyph-name="braceright" unicode="}" horiz-adv-x="333" 
d="M83 -50q12 0 21.5 12t14.5 45l22 153q8 59 29.5 92.5t48.5 47.5q-19 11 -30.5 35t-11.5 63q0 19 3 42l16 113q1 7 1.5 12.5t0.5 10.5q0 19 -6 26.5t-16 7.5h-44l13 90h64q36 0 60.5 -23.5t24.5 -82.5q0 -20 -3 -44l-21 -148q-1 -7 -1.5 -12.5t-0.5 -10.5q0 -20 6 -27
t16 -7h44l-13 -90h-44q-11 0 -21 -12t-15 -45l-26 -188q-6 -42 -18.5 -70.5t-29 -46.5t-36.5 -25.5t-40 -7.5h-64l12 90h44z" />
    <glyph glyph-name="asciitilde" unicode="~" horiz-adv-x="515" 
d="M91 315l28 17q23 14 52 28.5t62 14.5q27 0 45 -8.5t33 -18t30.5 -18t37.5 -8.5q24 0 49 14t50 31h-1l11 9l18 -98q-13 -5 -28.5 -14.5t-33.5 -18.5t-38 -16t-41 -7q-28 0 -46 8.5t-33 19t-30 19t-37 8.5q-9 0 -24 -6.5t-31 -16t-30.5 -20t-23.5 -18.5z" />
    <glyph glyph-name="Zcaron" horiz-adv-x="513" 
d="M52 118l369 462h-304l17 120h440l-17 -118l-368 -462h303l-16 -120h-440zM226 891l35 43l113 -87q35 22 70.5 43.5t69.5 43.5l21 -49l-175 -138z" />
    <glyph glyph-name="Zcaron" unicode="&#x17d;" horiz-adv-x="513" 
d="M52 118l369 462h-304l17 120h440l-17 -118l-368 -462h303l-16 -120h-440zM226 891l35 43l113 -87q35 22 70.5 43.5t69.5 43.5l21 -49l-175 -138z" />
    <glyph glyph-name="zcaron" horiz-adv-x="451" 
d="M51 112l305 375h-252l16 113h378l-16 -112l-304 -375h251l-15 -113h-378zM181 791l35 43l113 -87q35 22 70.5 43.5t69.5 43.5l21 -49l-175 -138z" />
    <glyph glyph-name="zcaron" unicode="&#x17e;" horiz-adv-x="451" 
d="M51 112l305 375h-252l16 113h378l-16 -112l-304 -375h251l-15 -113h-378zM181 791l35 43l113 -87q35 22 70.5 43.5t69.5 43.5l21 -49l-175 -138z" />
    <glyph glyph-name="exclamdown" unicode="&#xa1;" horiz-adv-x="203" 
d="M131 600h109l-20 -140h-109zM115 380h80l-61 -530h-109z" />
    <glyph glyph-name="cent" unicode="&#xa2;" horiz-adv-x="506" 
d="M274 100h-23q-33 0 -61.5 11t-49.5 35t-33 63t-12 96q0 21 2 45t6 50q12 84 35 141t53.5 92.5t67.5 51t76 15.5h23l14 100h65l-14 -100h134l-16 -113h-134l-53 -374h134l-15 -113h-134l-14 -100h-65zM289 213l53 374h-11q-21 0 -40.5 -9t-36 -30.5t-29.5 -57.5t-20 -90
q-6 -41 -6 -71q0 -66 22.5 -91t56.5 -25h11z" />
    <glyph glyph-name="sterling" unicode="&#xa3;" horiz-adv-x="520" 
d="M63 120h87l26 180h-72l14 100h72l15 110q7 53 25.5 89.5t44.5 59t58.5 32t67.5 9.5h127l-17 -120h-112q-32 0 -56.5 -15.5t-29.5 -54.5l-15 -110h130l-14 -100h-130l-26 -180h231l-16 -120h-426z" />
    <glyph glyph-name="yen" unicode="&#xa5;" horiz-adv-x="549" 
d="M101 180h144l10 70h-144l9 70h132l-128 380h130l81 -264l156 264h130l-237 -380h133l-9 -70h-144l-10 -70h144l-10 -70h-144l-15 -110h-109l15 110h-144z" />
    <glyph glyph-name="brokenbar" unicode="&#xa6;" horiz-adv-x="261" 
d="M188 700h80l-48 -340h-80zM125 250h80l-55 -390h-80z" />
    <glyph glyph-name="section" unicode="&#xa7;" horiz-adv-x="522" 
d="M363 -27q27 0 46 14t19 49q0 38 -19 51.5t-46 13.5h-117q-34 0 -61 9t-46.5 29.5t-30 55t-10.5 85.5q0 48 16 77t45 43q-29 15 -45 44.5t-16 78.5q0 50 10.5 84t30 54.5t46.5 29.5t61 9h265v-113h-251q-27 0 -46.5 -14.5t-19.5 -49.5q0 -38 19.5 -51.5t46.5 -13.5h116
q34 0 61.5 -9t46.5 -30t29.5 -55.5t10.5 -85.5q0 -48 -15.5 -77t-44.5 -43q29 -15 44.5 -44.5t15.5 -77.5q0 -50 -10.5 -84t-29.5 -54.5t-46.5 -29t-61.5 -8.5h-264v113h251zM363 214q27 0 46 14.5t19 49.5q0 38 -19 52t-46 14h-103q-27 0 -46.5 -14.5t-19.5 -49.5
q0 -38 19.5 -52t46.5 -14h103z" />
    <glyph glyph-name="dieresis" unicode="&#xa8;" horiz-adv-x="354" 
d="M308 770h107l-16 -110h-107zM155 770h107l-16 -110h-107z" />
    <glyph glyph-name="copyright" unicode="&#xa9;" horiz-adv-x="826" 
d="M98 350q0 76 28.5 142.5t78 116t116 78t142.5 28.5t142.5 -28.5t116 -78t78 -116t28.5 -142.5t-28.5 -142.5t-78 -116t-116 -78t-142.5 -28.5t-142.5 28.5t-116 78t-78 116t-28.5 142.5zM168 350q0 -61 23 -115t63 -94t94 -63t115 -23t115 23t94 63t63 94t23 115t-23 115
t-63 94t-94 63t-115 23t-115 -23t-94 -63t-63 -94t-23 -115zM303 350q0 58 11.5 98t31 65t45.5 36t56 11h125v-72h-115q-18 0 -34 -6.5t-27.5 -22.5t-18.5 -42.5t-7 -66.5t7 -66.5t18.5 -42.5t27.5 -22.5t34 -6.5h115v-72h-125q-30 0 -56 11t-45.5 36t-31 65t-11.5 98z" />
    <glyph glyph-name="ordfeminine" unicode="&#xaa;" horiz-adv-x="340" 
d="M176 340q-30 0 -49.5 17.5t-19.5 61.5q0 42 9 69.5t23.5 44.5t32.5 24t36 7h100v10q0 30 -14 44t-36 14h-106l10 68h113q42 0 70.5 -23t28.5 -80v-16t-2 -17l-32 -224h-164zM286 408l12 89h-90q-11 0 -20.5 -9.5t-13.5 -35.5q-1 -5 -1 -12q0 -17 6.5 -24.5t16.5 -7.5h90z
" />
    <glyph glyph-name="guillemotleft" unicode="&#xab;" horiz-adv-x="445" 
d="M255 300l155 282l61 -55l-133 -227q17 -57 34 -113.5t35 -113.5l-76 -55zM89 300l155 282l61 -55l-132 -227l68 -227l-76 -55z" />
    <glyph glyph-name="logicalnot" unicode="&#xac;" horiz-adv-x="480" 
d="M98 350h384v-250h-80v150h-304v100z" />
    <glyph glyph-name="registered" unicode="&#xae;" horiz-adv-x="826" 
d="M98 350q0 76 28.5 142.5t78 116t116 78t142.5 28.5t142.5 -28.5t116 -78t78 -116t28.5 -142.5t-28.5 -142.5t-78 -116t-116 -78t-142.5 -28.5t-142.5 28.5t-116 78t-78 116t-28.5 142.5zM168 350q0 -61 23 -115t63 -94t94 -63t115 -23t115 23t94 63t63 94t23 115t-23 115
t-63 94t-94 63t-115 23t-115 -23t-94 -63t-63 -94t-23 -115zM318 560h199q22 0 42 -6.5t34.5 -21.5t23 -39t8.5 -59q0 -63 -21.5 -92t-55.5 -37l77 -165h-78l-71 162h-91v-162h-67v420zM517 374q17 0 29 12.5t12 47.5q0 30 -12 42t-29 12h-132v-114h132z" />
    <glyph glyph-name="macron" unicode="&#xaf;" horiz-adv-x="372" 
d="M148 720h278l-9 -60h-278z" />
    <glyph glyph-name="degree" unicode="&#xb0;" horiz-adv-x="345" 
d="M235 445q-48 0 -78.5 32.5t-30.5 81.5q0 5 0.5 10.5t1.5 10.5q4 28 17 52.5t33 43t44.5 29t50.5 10.5q47 0 77 -33.5t30 -82.5q0 -32 -12.5 -60t-32.5 -49t-46.5 -33t-53.5 -12zM243 505q14 0 27.5 7t24 19t17 28t6.5 34q0 26 -15 44t-38 18q-27 0 -48.5 -22t-26.5 -53
q-1 -5 -1 -13q0 -27 15 -44.5t39 -17.5z" />
    <glyph glyph-name="plusminus" unicode="&#xb1;" horiz-adv-x="448" 
d="M241 410h-137l14 100h137l27 190h80l-27 -190h137l-14 -100h-137l-27 -190h-80zM61 100h354l-14 -100h-354z" />
    <glyph glyph-name="twosuperior" unicode="&#xb2;" horiz-adv-x="344" 
d="M92 403q10 69 39.5 96t74.5 27h69q16 0 31.5 14t15.5 51q0 20 -9 28.5t-23 8.5h-157l10 72h166q38 0 60.5 -18.5t22.5 -68.5q0 -45 -9.5 -75.5t-26 -49t-38 -26.5t-44.5 -8h-69q-15 0 -27.5 -11t-16.5 -40l-7 -51h199l-10 -72h-268z" />
    <glyph glyph-name="threesuperior" unicode="&#xb3;" horiz-adv-x="332" 
d="M106 352h141q15 0 28 14.5t13 52.5q0 19 -7.5 27t-19.5 8h-132l10 72h130q14 0 28 14.5t14 52.5q0 19 -7.5 27t-19.5 8h-139l10 72h139q37 0 62 -19t25 -67q0 -46 -16 -77.5t-37 -46.5q13 -11 20.5 -28.5t7.5 -43.5q0 -39 -10.5 -65.5t-27.5 -42.5t-38.5 -23t-42.5 -7
h-141z" />
    <glyph glyph-name="acute" unicode="&#xb4;" horiz-adv-x="298" 
d="M145 691l176 144l35 -68l-188 -119z" />
    <glyph glyph-name="mu" unicode="&#xb5;" horiz-adv-x="498" 
d="M120 -200h-102l113 800h102l-50 -353q-2 -13 -3.5 -24.5t-0.5 -22.5q0 -58 24 -80t59 -22q20 0 39 7t35 23t28 43t19 67l51 362h101l-84 -600h-101l5 38q-24 -30 -51 -41.5t-58 -11.5q-29 0 -53 12t-39 40z" />
    <glyph glyph-name="mu" unicode="&#x3bc;" horiz-adv-x="498" 
d="M120 -200h-102l113 800h102l-50 -353q-2 -13 -3.5 -24.5t-0.5 -22.5q0 -58 24 -80t59 -22q20 0 39 7t35 23t28 43t19 67l51 362h101l-84 -600h-101l5 38q-24 -30 -51 -41.5t-58 -11.5q-29 0 -53 12t-39 40z" />
    <glyph glyph-name="paragraph" unicode="&#xb6;" horiz-adv-x="532" 
d="M238 440q-29 0 -54.5 6.5t-44.5 22.5t-30 41.5t-11 64.5q0 35 11 59t30 38.5t44.5 21t54.5 6.5h296v-80h-88v-760h-80v760h-48v-760h-80v580z" />
    <glyph glyph-name="periodcentered" unicode="&#xb7;" horiz-adv-x="228" 
d="M99 370h134l-20 -140h-134z" />
    <glyph glyph-name="cedilla" unicode="&#xb8;" horiz-adv-x="317" 
d="M30 -118q4 0 13.5 -4t21.5 -8.5t27 -8.5t32 -4q7 0 16 2t17.5 6.5t14 12.5t5.5 19q0 14 -10 19t-23 5q-14 0 -31 -4t-25 -7l35 120h62l-18 -64q43 -1 65.5 -20.5t22.5 -45.5t-12.5 -45t-32.5 -31t-44.5 -18t-47.5 -6q-28 0 -52.5 6.5t-43.5 20.5l8 55v0z" />
    <glyph glyph-name="onesuperior" unicode="&#xb9;" horiz-adv-x="163" 
d="M143 685l73 34l-62 -435h-68z" />
    <glyph glyph-name="ordmasculine" unicode="&#xba;" horiz-adv-x="355" 
d="M223 331q-23 0 -42.5 7t-34 23t-23 41.5t-8.5 61.5q0 12 1.5 26t3.5 30q7 52 22 88t36 58.5t46 32.5t52 10q46 0 77.5 -31t31.5 -105q0 -12 -1 -25.5t-3 -27.5q-8 -52 -23.5 -88t-36.5 -58.5t-46 -32.5t-52 -10zM233 399q28 0 50.5 25.5t32.5 95.5q3 25 3 45
q0 43 -14.5 59.5t-37.5 16.5q-14 0 -29 -8t-28 -26.5t-21.5 -50.5t-8.5 -80q0 -44 15 -60.5t38 -16.5z" />
    <glyph glyph-name="guillemotright" unicode="&#xbb;" horiz-adv-x="445" 
d="M356 300l-68 227l75 55l77 -282l-156 -282l-60 55zM191 300q-18 57 -35 113.5t-34 113.5l75 55l77 -282l-156 -282l-60 55z" />
    <glyph glyph-name="onequarter" unicode="&#xbc;" horiz-adv-x="659" 
d="M143 685l63 35l-52 -436h-68zM441 700h73l-345 -700h-72zM329 167l216 253h83l-38 -264h43l-10 -72h-43l-11 -84h-68l11 84h-195zM522 156l24 170l-142 -170h118z" />
    <glyph glyph-name="onehalf" unicode="&#xbd;" horiz-adv-x="679" 
d="M143 685l63 35l-52 -436h-68zM441 700h73l-345 -700h-72zM377 123q10 69 39.5 96t74.5 27h69q17 0 31.5 14t14.5 52q0 20 -9 28t-23 8h-157l11 72h166q38 0 60 -18.5t22 -67.5q0 -45 -9.5 -76t-25.5 -49.5t-37.5 -26.5t-44.5 -8h-69q-15 0 -27.5 -11t-16.5 -40l-7 -51
h199l-10 -72h-268z" />
    <glyph glyph-name="threequarters" unicode="&#xbe;" horiz-adv-x="811" 
d="M592 700h73l-344 -700h-73zM96 352h162q14 0 27.5 14t13.5 52q0 20 -8 28t-19 8h-119l10 72h111q13 0 27 14t14 52q0 20 -7.5 28t-18.5 8h-154l10 72h154q36 0 61.5 -19t25.5 -67q0 -45 -15 -75t-35 -46h-1q14 -11 23 -29t9 -45q0 -40 -10.5 -66.5t-28 -42.5t-38.5 -23
t-42 -7h-162zM481 167l215 253h83l-38 -264h43l-10 -72h-43l-11 -84h-68l11 84h-194zM673 156l24 170l-142 -170h118z" />
    <glyph glyph-name="questiondown" unicode="&#xbf;" horiz-adv-x="498" 
d="M415 600h120l-20 -140h-109zM49 -7q0 14 1.5 29.5t3.5 32.5q8 57 25 96.5t41 63.5t55 34.5t67 10.5h94q10 0 20 4t18.5 17t15.5 36.5t13 62.5h94q-5 -83 -23 -131t-43.5 -72t-55 -30.5t-56.5 -6.5h-80q-14 0 -28 -5.5t-25 -18.5t-18 -34t-7 -51q0 -34 15.5 -47.5
t38.5 -13.5h217l-17 -120h-231q-31 0 -56 7.5t-42.5 24t-27 44t-9.5 67.5z" />
    <glyph glyph-name="Agrave" unicode="&#xc0;" horiz-adv-x="545" 
d="M313 700h116l127 -700h-121l-24 140h-240l-61 -140h-120zM392 260q-11 67 -22 136.5t-22 137.5l-123 -274h167zM292 867l55 68l136 -144l-35 -43z" />
    <glyph glyph-name="Aacute" unicode="&#xc1;" horiz-adv-x="545" 
d="M313 700h116l127 -700h-121l-24 140h-240l-61 -140h-120zM392 260q-11 67 -22 136.5t-22 137.5l-123 -274h167zM282 791l176 144l35 -68l-188 -119z" />
    <glyph glyph-name="Acircumflex" unicode="&#xc2;" horiz-adv-x="545" 
d="M313 700h116l127 -700h-121l-24 140h-240l-61 -140h-120zM392 260q-11 67 -22 136.5t-22 137.5l-123 -274h167zM228 791l175 144l135 -138l-34 -49l-115 87q-34 -22 -69 -43.5t-69 -43.5z" />
    <glyph glyph-name="Atilde" unicode="&#xc3;" horiz-adv-x="545" 
d="M313 700h116l127 -700h-121l-24 140h-240l-61 -140h-120zM392 260q-11 67 -22 136.5t-22 137.5l-123 -274h167zM218 816l22 12q18 10 41.5 21t50.5 11q21 0 36 -6t27.5 -13t24.5 -13t28 -6q20 0 39 10.5t38 21.5h-1l12 8l16 -72q-11 -3 -23 -10t-26 -13.5t-30.5 -11.5
t-34.5 -5q-22 0 -36.5 6t-26.5 13.5t-24 13.5t-29 6q-8 0 -19.5 -4.5t-24 -11t-24.5 -14.5t-20 -14z" />
    <glyph glyph-name="Adieresis" unicode="&#xc4;" horiz-adv-x="545" 
d="M313 700h116l127 -700h-121l-24 140h-240l-61 -140h-120zM392 260q-11 67 -22 136.5t-22 137.5l-123 -274h167zM417 870h107l-16 -110h-107zM264 870h107l-16 -110h-107z" />
    <glyph glyph-name="Aring" unicode="&#xc5;" horiz-adv-x="545" 
d="M313 700h116l127 -700h-121l-24 140h-240l-61 -140h-120zM392 260q-11 67 -22 136.5t-22 137.5l-123 -274h167zM377 745q-41 0 -67 28t-26 70v8t1 9q3 24 14.5 44.5t28.5 36.5t38 25t43 9q40 0 66 -28t26 -70q0 -26 -10.5 -50t-28 -42t-39.5 -29t-46 -11zM386 805
q21 0 37 19.5t16 45.5q0 20 -10.5 32.5t-27.5 12.5q-19 0 -34.5 -16t-19.5 -39q-1 -3 -1 -8q0 -20 11.5 -33.5t28.5 -13.5z" />
    <glyph glyph-name="AE" unicode="&#xc6;" horiz-adv-x="801" 
d="M92 370q13 92 39 155t61.5 102t78 56t87.5 17h191l-7 -46q27 24 57 35t61 11h192l-17 -120h-177q-23 0 -44 -9t-40 -29t-35 -52.5t-28 -79.5h300l-17 -120h-300v-16q0 -43 7.5 -72.5t20.5 -47.5t31 -26t40 -8h177l-16 -120h-192q-31 0 -58 11t-47 35l-6 -46h-109l26 190
h-193l-26 -190h-109zM385 310l38 270h-68q-27 0 -51 -10t-44 -34t-35 -64.5t-24 -101.5l-9 -60h193z" />
    <glyph glyph-name="Ccedilla" unicode="&#xc7;" 
d="M136 -118q3 0 12 -4t22 -8.5t28.5 -8.5t31.5 -4q7 0 16 2t17.5 6.5t14 12.5t5.5 19q0 14 -10 19t-23 5q-14 0 -31 -4t-25 -7l27 91h4q-35 3 -64 17.5t-50 43t-33 72t-12 104.5q0 49 9 112q13 97 40 164t62.5 108t78.5 59.5t88 18.5h191l-17 -120h-177q-26 0 -50.5 -11
t-45 -37.5t-37 -70.5t-25.5 -111q-4 -24 -5.5 -45t-1.5 -40q0 -41 7.5 -69t21 -45t32 -24t39.5 -7h177l-16 -120h-154l-10 -34q44 -1 66 -20.5t22 -45.5t-12.5 -45t-32.5 -31t-44.5 -18t-47.5 -6q-27 0 -52 6.5t-44 20.5l8 55v0z" />
    <glyph glyph-name="Egrave" unicode="&#xc8;" horiz-adv-x="484" 
d="M246 0q-38 0 -71 12.5t-57 41t-38 74t-14 111.5q0 49 9 111q13 97 40 164t62.5 108t78.5 59.5t88 18.5h191l-17 -120h-177q-23 0 -44 -9t-40 -29t-35 -52.5t-28 -79.5h300l-17 -120h-300v-16q0 -43 7.5 -72.5t20.5 -47.5t31 -26t40 -8h177l-16 -120h-191v0zM302 867
l55 68l136 -144l-35 -43z" />
    <glyph glyph-name="Eacute" unicode="&#xc9;" horiz-adv-x="484" 
d="M246 0q-38 0 -71 12.5t-57 41t-38 74t-14 111.5q0 49 9 111q13 97 40 164t62.5 108t78.5 59.5t88 18.5h191l-17 -120h-177q-23 0 -44 -9t-40 -29t-35 -52.5t-28 -79.5h300l-17 -120h-300v-16q0 -43 7.5 -72.5t20.5 -47.5t31 -26t40 -8h177l-16 -120h-191v0zM252 791
l176 144l35 -68l-188 -119z" />
    <glyph glyph-name="Ecircumflex" unicode="&#xca;" horiz-adv-x="484" 
d="M246 0q-38 0 -71 12.5t-57 41t-38 74t-14 111.5q0 49 9 111q13 97 40 164t62.5 108t78.5 59.5t88 18.5h191l-17 -120h-177q-23 0 -44 -9t-40 -29t-35 -52.5t-28 -79.5h300l-17 -120h-300v-16q0 -43 7.5 -72.5t20.5 -47.5t31 -26t40 -8h177l-16 -120h-191v0zM238 791
l175 144l135 -138l-34 -49l-115 87q-34 -22 -69 -43.5t-69 -43.5z" />
    <glyph glyph-name="Edieresis" unicode="&#xcb;" horiz-adv-x="484" 
d="M246 0q-38 0 -71 12.5t-57 41t-38 74t-14 111.5q0 49 9 111q13 97 40 164t62.5 108t78.5 59.5t88 18.5h191l-17 -120h-177q-23 0 -44 -9t-40 -29t-35 -52.5t-28 -79.5h300l-17 -120h-300v-16q0 -43 7.5 -72.5t20.5 -47.5t31 -26t40 -8h177l-16 -120h-191v0zM427 870h107
l-16 -110h-107zM274 870h107l-16 -110h-107z" />
    <glyph glyph-name="Igrave" unicode="&#xcc;" horiz-adv-x="203" 
d="M145 700h109l-98 -700h-109zM125 867l55 68l136 -144l-35 -43z" />
    <glyph glyph-name="Iacute" unicode="&#xcd;" horiz-adv-x="203" 
d="M145 700h109l-98 -700h-109zM115 791l176 144l35 -68l-188 -119z" />
    <glyph glyph-name="Icircumflex" unicode="&#xce;" horiz-adv-x="203" 
d="M145 700h109l-98 -700h-109zM60 791l175 144l135 -138l-34 -49l-115 87q-34 -22 -69 -43.5t-69 -43.5z" />
    <glyph glyph-name="Idieresis" unicode="&#xcf;" horiz-adv-x="203" 
d="M145 700h109l-98 -700h-109zM249 870h107l-16 -110h-107zM96 870h107l-16 -110h-107z" />
    <glyph glyph-name="Eth" unicode="&#xd0;" horiz-adv-x="556" 
d="M104 300h-44l14 100h44l42 300h248q38 0 71 -13t57 -41.5t37.5 -74.5t13.5 -112q0 -24 -1.5 -51.5t-6.5 -57.5q-14 -97 -40.5 -164t-62.5 -108t-78.5 -59.5t-87.5 -18.5h-248zM312 120q26 0 50.5 11t45.5 37.5t37.5 70.5t25.5 111q6 48 6 84q0 42 -7.5 70t-21 45t-32 24
t-39.5 7h-126l-25 -180h144l-14 -100h-144l-26 -180h126z" />
    <glyph glyph-name="Ntilde" unicode="&#xd1;" horiz-adv-x="534" 
d="M145 700h138l124 -489l69 489h109l-98 -700h-137l-126 488l-68 -488h-109zM212 816l22 12q18 10 41.5 21t50.5 11q21 0 36 -6t27.5 -13t24.5 -13t28 -6q20 0 39 10.5t38 21.5h-1l12 8l16 -72q-11 -3 -23 -10t-26 -13.5t-30.5 -11.5t-34.5 -5q-22 0 -36.5 6t-26.5 13.5
t-24 13.5t-29 6q-8 0 -19.5 -4.5t-24 -11t-24.5 -14.5t-20 -14z" />
    <glyph glyph-name="Ograve" unicode="&#xd2;" horiz-adv-x="549" 
d="M67 240q0 25 1.5 52.5t6.5 57.5q14 101 43 171t69 113t87.5 62t99.5 19q43 0 81 -13.5t65.5 -44.5t43.5 -80t16 -120q0 -24 -2 -51t-6 -56q-14 -101 -44 -171t-70 -113t-88 -62t-99 -19q-44 0 -81.5 13.5t-64.5 44t-42.5 79t-15.5 118.5zM288 105q29 0 56 11.5t50 39.5
t41 75.5t28 118.5q6 48 6 86q0 45 -8.5 75.5t-23.5 49t-35.5 26.5t-44.5 8q-29 0 -56.5 -11.5t-50 -39.5t-40 -75.5t-27.5 -118.5q-4 -26 -5.5 -47.5t-1.5 -41.5q0 -45 8.5 -75t23.5 -48t35.5 -25.5t44.5 -7.5zM294 867l55 68l136 -144l-35 -43z" />
    <glyph glyph-name="Oacute" unicode="&#xd3;" horiz-adv-x="549" 
d="M67 240q0 25 1.5 52.5t6.5 57.5q14 101 43 171t69 113t87.5 62t99.5 19q43 0 81 -13.5t65.5 -44.5t43.5 -80t16 -120q0 -24 -2 -51t-6 -56q-14 -101 -44 -171t-70 -113t-88 -62t-99 -19q-44 0 -81.5 13.5t-64.5 44t-42.5 79t-15.5 118.5zM288 105q29 0 56 11.5t50 39.5
t41 75.5t28 118.5q6 48 6 86q0 45 -8.5 75.5t-23.5 49t-35.5 26.5t-44.5 8q-29 0 -56.5 -11.5t-50 -39.5t-40 -75.5t-27.5 -118.5q-4 -26 -5.5 -47.5t-1.5 -41.5q0 -45 8.5 -75t23.5 -48t35.5 -25.5t44.5 -7.5zM284 791l176 144l35 -68l-188 -119z" />
    <glyph glyph-name="Ocircumflex" unicode="&#xd4;" horiz-adv-x="549" 
d="M67 240q0 25 1.5 52.5t6.5 57.5q14 101 43 171t69 113t87.5 62t99.5 19q43 0 81 -13.5t65.5 -44.5t43.5 -80t16 -120q0 -24 -2 -51t-6 -56q-14 -101 -44 -171t-70 -113t-88 -62t-99 -19q-44 0 -81.5 13.5t-64.5 44t-42.5 79t-15.5 118.5zM288 105q29 0 56 11.5t50 39.5
t41 75.5t28 118.5q6 48 6 86q0 45 -8.5 75.5t-23.5 49t-35.5 26.5t-44.5 8q-29 0 -56.5 -11.5t-50 -39.5t-40 -75.5t-27.5 -118.5q-4 -26 -5.5 -47.5t-1.5 -41.5q0 -45 8.5 -75t23.5 -48t35.5 -25.5t44.5 -7.5zM230 791l175 144l135 -138l-34 -49l-115 87q-34 -22 -69 -43.5
t-69 -43.5z" />
    <glyph glyph-name="Otilde" unicode="&#xd5;" horiz-adv-x="549" 
d="M67 240q0 25 1.5 52.5t6.5 57.5q14 101 43 171t69 113t87.5 62t99.5 19q43 0 81 -13.5t65.5 -44.5t43.5 -80t16 -120q0 -24 -2 -51t-6 -56q-14 -101 -44 -171t-70 -113t-88 -62t-99 -19q-44 0 -81.5 13.5t-64.5 44t-42.5 79t-15.5 118.5zM288 105q29 0 56 11.5t50 39.5
t41 75.5t28 118.5q6 48 6 86q0 45 -8.5 75.5t-23.5 49t-35.5 26.5t-44.5 8q-29 0 -56.5 -11.5t-50 -39.5t-40 -75.5t-27.5 -118.5q-4 -26 -5.5 -47.5t-1.5 -41.5q0 -45 8.5 -75t23.5 -48t35.5 -25.5t44.5 -7.5zM219 816l22 12q18 10 41.5 21t50.5 11q21 0 36 -6t27.5 -13
t24.5 -13t28 -6q20 0 39 10.5t38 21.5h-1l12 8l16 -72q-11 -3 -23 -10t-26 -13.5t-30.5 -11.5t-34.5 -5q-22 0 -36.5 6t-26.5 13.5t-24 13.5t-29 6q-8 0 -19.5 -4.5t-24 -11t-24.5 -14.5t-20 -14z" />
    <glyph glyph-name="Odieresis" unicode="&#xd6;" horiz-adv-x="549" 
d="M67 240q0 25 1.5 52.5t6.5 57.5q14 101 43 171t69 113t87.5 62t99.5 19q43 0 81 -13.5t65.5 -44.5t43.5 -80t16 -120q0 -24 -2 -51t-6 -56q-14 -101 -44 -171t-70 -113t-88 -62t-99 -19q-44 0 -81.5 13.5t-64.5 44t-42.5 79t-15.5 118.5zM288 105q29 0 56 11.5t50 39.5
t41 75.5t28 118.5q6 48 6 86q0 45 -8.5 75.5t-23.5 49t-35.5 26.5t-44.5 8q-29 0 -56.5 -11.5t-50 -39.5t-40 -75.5t-27.5 -118.5q-4 -26 -5.5 -47.5t-1.5 -41.5q0 -45 8.5 -75t23.5 -48t35.5 -25.5t44.5 -7.5zM419 870h107l-16 -110h-107zM266 870h107l-16 -110h-107z" />
    <glyph glyph-name="multiply" unicode="&#xd7;" horiz-adv-x="398" 
d="M71 166l124 134q-22 32 -43.5 67t-43.5 67l65 75l77 -146l116 146l43 -75l-124 -134q22 -32 43.5 -67t43.5 -67l-65 -75l-75 146q-29 -35 -59.5 -73t-58.5 -73z" />
    <glyph glyph-name="Oslash" unicode="&#xd8;" horiz-adv-x="549" 
d="M118 48h1q-25 30 -39 77.5t-14 113.5q0 49 9 111q14 101 43 171t69 113t87.5 62t99.5 19q29 0 54.5 -5t47.5 -18l28 48h73l-50 -89h-1q26 -32 40 -80t14 -115q0 -24 -2 -50.5t-6 -55.5q-14 -101 -44 -171t-70 -113t-88 -62t-99 -19q-56 0 -103 22l-25 -47h-73zM414 579h2
q-26 16 -59 16q-29 0 -56.5 -11.5t-50 -39.5t-40 -75.5t-27.5 -118.5q-4 -26 -6 -48.5t-2 -42.5q0 -26 3.5 -46.5t9.5 -37.5zM229 120q25 -15 59 -15q29 0 56 11.5t50 39.5t41 75.5t28 118.5q6 49 6 87q0 57 -13 89l-225 -406h-2z" />
    <glyph glyph-name="Ugrave" unicode="&#xd9;" horiz-adv-x="549" 
d="M74 206q0 19 1 40t5 44l58 410h109l-58 -410q-2 -17 -3.5 -31t-1.5 -28q0 -36 8 -60t22 -38.5t33 -21t41 -6.5q26 0 50 9t44.5 30.5t35 57t22.5 88.5l58 410h109l-58 -410q-12 -87 -39 -145.5t-64 -94t-82 -50.5t-93 -15q-42 0 -78 11t-62.5 37t-41.5 68.5t-15 104.5z
M294 867l55 68l136 -144l-35 -43z" />
    <glyph glyph-name="Uacute" unicode="&#xda;" horiz-adv-x="549" 
d="M74 206q0 19 1 40t5 44l58 410h109l-58 -410q-2 -17 -3.5 -31t-1.5 -28q0 -36 8 -60t22 -38.5t33 -21t41 -6.5q26 0 50 9t44.5 30.5t35 57t22.5 88.5l58 410h109l-58 -410q-12 -87 -39 -145.5t-64 -94t-82 -50.5t-93 -15q-42 0 -78 11t-62.5 37t-41.5 68.5t-15 104.5z
M284 791l176 144l35 -68l-188 -119z" />
    <glyph glyph-name="Ucircumflex" unicode="&#xdb;" horiz-adv-x="549" 
d="M74 206q0 19 1 40t5 44l58 410h109l-58 -410q-2 -17 -3.5 -31t-1.5 -28q0 -36 8 -60t22 -38.5t33 -21t41 -6.5q26 0 50 9t44.5 30.5t35 57t22.5 88.5l58 410h109l-58 -410q-12 -87 -39 -145.5t-64 -94t-82 -50.5t-93 -15q-42 0 -78 11t-62.5 37t-41.5 68.5t-15 104.5z
M230 791l175 144l135 -138l-34 -49l-115 87q-34 -22 -69 -43.5t-69 -43.5z" />
    <glyph glyph-name="Udieresis" unicode="&#xdc;" horiz-adv-x="549" 
d="M74 206q0 19 1 40t5 44l58 410h109l-58 -410q-2 -17 -3.5 -31t-1.5 -28q0 -36 8 -60t22 -38.5t33 -21t41 -6.5q26 0 50 9t44.5 30.5t35 57t22.5 88.5l58 410h109l-58 -410q-12 -87 -39 -145.5t-64 -94t-82 -50.5t-93 -15q-42 0 -78 11t-62.5 37t-41.5 68.5t-15 104.5z
M419 870h107l-16 -110h-107zM266 870h107l-16 -110h-107z" />
    <glyph glyph-name="Yacute" unicode="&#xdd;" horiz-adv-x="491" 
d="M232 296l-137 404h130l82 -264l155 264h130l-251 -404l-41 -296h-109zM255 791l176 144l35 -68l-188 -119z" />
    <glyph glyph-name="Thorn" unicode="&#xde;" horiz-adv-x="542" 
d="M145 700h109l-17 -120h187q30 0 57 -9t46.5 -29t31 -52t11.5 -78q0 -14 -1.5 -29.5t-3.5 -32.5q-9 -66 -29.5 -110t-48 -71t-60.5 -38t-68 -11h-187l-16 -120h-109zM376 240q13 0 28 7t27 23.5t20 45t8 70.5q0 40 -14.5 57t-37.5 17h-187l-31 -220h187z" />
    <glyph glyph-name="germandbls" unicode="&#xdf;" horiz-adv-x="480" 
d="M110 450q9 66 32 115t54 81.5t66.5 48t69.5 15.5q26 0 49.5 -9.5t41.5 -28t28.5 -45.5t10.5 -63q0 -49 -22 -103.5t-68 -102.5h-2q51 -14 75.5 -56.5t24.5 -94.5q0 -37 -12 -74t-35 -66.5t-58 -48t-80 -18.5h-65l16 120h65q11 0 23.5 4t22.5 13.5t16.5 26t6.5 40.5
q0 31 -17 44.5t-37.5 22.5t-37.5 20.5t-17 37.5q0 27 15.5 52.5t34.5 50.5t34.5 50.5t15.5 53.5q0 27 -12.5 41t-28.5 14q-15 0 -30.5 -8.5t-29.5 -26t-25 -44t-16 -62.5l-63 -450h-109z" />
    <glyph glyph-name="agrave" unicode="&#xe0;" horiz-adv-x="470" 
d="M48 132q0 13 1 26.5t3 28.5q7 53 22.5 89t36.5 57.5t46 31t52 9.5h180q-3 61 -25 87t-54 26h-188l16 113h201q33 0 61 -11t48.5 -35.5t32.5 -64t12 -96.5q0 -20 -1.5 -43.5t-5.5 -49.5q-12 -84 -35 -141t-54 -92.5t-67 -51t-75 -15.5h-98q-23 0 -43 7t-34.5 22.5t-23 41
t-8.5 61.5zM257 113q37 0 69.5 34t50.5 115h-164q-11 0 -22 -5t-20 -16t-14.5 -29.5t-5.5 -46.5q0 -29 12 -40.5t29 -11.5h65zM240 767l55 68l136 -144l-35 -43z" />
    <glyph glyph-name="aacute" unicode="&#xe1;" horiz-adv-x="470" 
d="M48 132q0 13 1 26.5t3 28.5q7 53 22.5 89t36.5 57.5t46 31t52 9.5h180q-3 61 -25 87t-54 26h-188l16 113h201q33 0 61 -11t48.5 -35.5t32.5 -64t12 -96.5q0 -20 -1.5 -43.5t-5.5 -49.5q-12 -84 -35 -141t-54 -92.5t-67 -51t-75 -15.5h-98q-23 0 -43 7t-34.5 22.5t-23 41
t-8.5 61.5zM257 113q37 0 69.5 34t50.5 115h-164q-11 0 -22 -5t-20 -16t-14.5 -29.5t-5.5 -46.5q0 -29 12 -40.5t29 -11.5h65zM230 691l176 144l35 -68l-188 -119z" />
    <glyph glyph-name="acircumflex" unicode="&#xe2;" horiz-adv-x="470" 
d="M48 132q0 13 1 26.5t3 28.5q7 53 22.5 89t36.5 57.5t46 31t52 9.5h180q-3 61 -25 87t-54 26h-188l16 113h201q33 0 61 -11t48.5 -35.5t32.5 -64t12 -96.5q0 -20 -1.5 -43.5t-5.5 -49.5q-12 -84 -35 -141t-54 -92.5t-67 -51t-75 -15.5h-98q-23 0 -43 7t-34.5 22.5t-23 41
t-8.5 61.5zM257 113q37 0 69.5 34t50.5 115h-164q-11 0 -22 -5t-20 -16t-14.5 -29.5t-5.5 -46.5q0 -29 12 -40.5t29 -11.5h65zM176 691l175 144l135 -138l-34 -49l-115 87q-34 -22 -69 -43.5t-69 -43.5z" />
    <glyph glyph-name="atilde" unicode="&#xe3;" horiz-adv-x="470" 
d="M48 132q0 13 1 26.5t3 28.5q7 53 22.5 89t36.5 57.5t46 31t52 9.5h180q-3 61 -25 87t-54 26h-188l16 113h201q33 0 61 -11t48.5 -35.5t32.5 -64t12 -96.5q0 -20 -1.5 -43.5t-5.5 -49.5q-12 -84 -35 -141t-54 -92.5t-67 -51t-75 -15.5h-98q-23 0 -43 7t-34.5 22.5t-23 41
t-8.5 61.5zM257 113q37 0 69.5 34t50.5 115h-164q-11 0 -22 -5t-20 -16t-14.5 -29.5t-5.5 -46.5q0 -29 12 -40.5t29 -11.5h65zM166 716l22 12q18 10 41.5 21t50.5 11q21 0 36 -6t27.5 -13t24.5 -13t28 -6q20 0 39 10.5t38 21.5h-1l12 8l16 -72q-11 -3 -23 -10t-26 -13.5
t-30.5 -11.5t-34.5 -5q-22 0 -36.5 6t-26.5 13.5t-24 13.5t-29 6q-8 0 -19.5 -4.5t-24 -11t-24.5 -14.5t-20 -14z" />
    <glyph glyph-name="adieresis" unicode="&#xe4;" horiz-adv-x="470" 
d="M48 132q0 13 1 26.5t3 28.5q7 53 22.5 89t36.5 57.5t46 31t52 9.5h180q-3 61 -25 87t-54 26h-188l16 113h201q33 0 61 -11t48.5 -35.5t32.5 -64t12 -96.5q0 -20 -1.5 -43.5t-5.5 -49.5q-12 -84 -35 -141t-54 -92.5t-67 -51t-75 -15.5h-98q-23 0 -43 7t-34.5 22.5t-23 41
t-8.5 61.5zM257 113q37 0 69.5 34t50.5 115h-164q-11 0 -22 -5t-20 -16t-14.5 -29.5t-5.5 -46.5q0 -29 12 -40.5t29 -11.5h65zM366 770h107l-16 -110h-107zM213 770h107l-16 -110h-107z" />
    <glyph glyph-name="aring" unicode="&#xe5;" horiz-adv-x="470" 
d="M48 132q0 13 1 26.5t3 28.5q7 53 22.5 89t36.5 57.5t46 31t52 9.5h180q-3 61 -25 87t-54 26h-188l16 113h201q33 0 61 -11t48.5 -35.5t32.5 -64t12 -96.5q0 -20 -1.5 -43.5t-5.5 -49.5q-12 -84 -35 -141t-54 -92.5t-67 -51t-75 -15.5h-98q-23 0 -43 7t-34.5 22.5t-23 41
t-8.5 61.5zM257 113q37 0 69.5 34t50.5 115h-164q-11 0 -22 -5t-20 -16t-14.5 -29.5t-5.5 -46.5q0 -29 12 -40.5t29 -11.5h65zM325 645q-41 0 -67 28t-26 70v8t1 9q3 24 14.5 44.5t28.5 36.5t38 25t43 9q40 0 66 -28t26 -70q0 -26 -10.5 -50t-28 -42t-39.5 -29t-46 -11z
M334 705q21 0 37 19.5t16 45.5q0 20 -10.5 32.5t-27.5 12.5q-19 0 -34.5 -16t-19.5 -39q-1 -3 -1 -8q0 -20 11.5 -33.5t28.5 -13.5z" />
    <glyph glyph-name="ae" unicode="&#xe6;" horiz-adv-x="786" 
d="M48 132q0 13 1 26.5t3 28.5q7 53 22.5 89t36.5 57.5t46 31t52 9.5h180q-3 61 -25 87t-54 26h-188l16 113h201q42 0 75 -20.5t50 -70.5q30 50 69.5 70.5t82.5 20.5h97q23 0 43 -7t35 -23t23.5 -41.5t8.5 -62.5q0 -12 -1 -25.5t-3 -27.5q-8 -53 -23.5 -89t-36.5 -58
t-46.5 -31t-52.5 -9h-180q3 -61 25 -87t54 -26h188l-15 -113h-200q-43 0 -76.5 20.5t-50.5 70.5q-30 -50 -69 -70.5t-81 -20.5h-98q-23 0 -43 7t-34.5 22.5t-23 41t-8.5 61.5zM656 338q10 0 21 4.5t20 15.5t15 29.5t6 45.5q0 29 -12 41.5t-29 12.5h-65q-37 0 -69.5 -34.5
t-50.5 -114.5h164zM257 113q37 0 69.5 34t50.5 115h-164q-20 0 -37 -16t-23 -59q-1 -6 -1.5 -11.5t-0.5 -10.5q0 -29 12 -40.5t29 -11.5h65z" />
    <glyph glyph-name="ccedilla" unicode="&#xe7;" horiz-adv-x="420" 
d="M108 -118q3 0 12 -4t22 -8.5t28.5 -8.5t31.5 -4q7 0 16 2t17.5 6.5t14 12.5t5.5 19q0 14 -10 19t-23 5q-14 0 -31 -4t-25 -7l27 91h4q-30 3 -55 15.5t-43 36.5t-28.5 61.5t-10.5 89.5q0 21 2 45t6 51q12 84 34.5 141t53.5 92.5t67.5 51t75.5 15.5h165l-16 -113h-152
q-21 0 -40.5 -9t-36.5 -30.5t-30 -57.5t-20 -90q-6 -41 -6 -71q0 -33 6 -55.5t16.5 -36t25.5 -19t32 -5.5h152l-15 -113h-125l-10 -34q45 -1 67 -20.5t22 -45.5t-13 -45t-33 -31t-44.5 -18t-47.5 -6q-26 0 -51 6.5t-45 20.5l8 55v0z" />
    <glyph glyph-name="egrave" unicode="&#xe8;" horiz-adv-x="427" 
d="M60 204q0 22 2 45.5t6 50.5q12 84 34.5 141t53.5 92.5t67.5 51t75.5 15.5h97q23 0 43 -7t35 -23t23.5 -41.5t8.5 -62.5q0 -12 -1 -25.5t-3 -27.5q-8 -53 -23.5 -89t-36.5 -58t-46.5 -31t-52.5 -9h-179q2 -60 24.5 -86.5t54.5 -26.5h187l-15 -113h-200q-33 0 -61.5 11
t-49 35t-32.5 63t-12 95zM339 338q10 0 21 4.5t20 15.5t15 29.5t6 45.5q0 29 -12 41.5t-29 12.5h-64q-38 0 -70.5 -34.5t-50.5 -114.5h164zM260 767l55 68l136 -144l-35 -43z" />
    <glyph glyph-name="eacute" unicode="&#xe9;" horiz-adv-x="427" 
d="M60 204q0 22 2 45.5t6 50.5q12 84 34.5 141t53.5 92.5t67.5 51t75.5 15.5h97q23 0 43 -7t35 -23t23.5 -41.5t8.5 -62.5q0 -12 -1 -25.5t-3 -27.5q-8 -53 -23.5 -89t-36.5 -58t-46.5 -31t-52.5 -9h-179q2 -60 24.5 -86.5t54.5 -26.5h187l-15 -113h-200q-33 0 -61.5 11
t-49 35t-32.5 63t-12 95zM339 338q10 0 21 4.5t20 15.5t15 29.5t6 45.5q0 29 -12 41.5t-29 12.5h-64q-38 0 -70.5 -34.5t-50.5 -114.5h164zM210 691l176 144l35 -68l-188 -119z" />
    <glyph glyph-name="ecircumflex" unicode="&#xea;" horiz-adv-x="427" 
d="M60 204q0 22 2 45.5t6 50.5q12 84 34.5 141t53.5 92.5t67.5 51t75.5 15.5h97q23 0 43 -7t35 -23t23.5 -41.5t8.5 -62.5q0 -12 -1 -25.5t-3 -27.5q-8 -53 -23.5 -89t-36.5 -58t-46.5 -31t-52.5 -9h-179q2 -60 24.5 -86.5t54.5 -26.5h187l-15 -113h-200q-33 0 -61.5 11
t-49 35t-32.5 63t-12 95zM339 338q10 0 21 4.5t20 15.5t15 29.5t6 45.5q0 29 -12 41.5t-29 12.5h-64q-38 0 -70.5 -34.5t-50.5 -114.5h164zM195 691l175 144l135 -138l-34 -49l-115 87q-34 -22 -69 -43.5t-69 -43.5z" />
    <glyph glyph-name="edieresis" unicode="&#xeb;" horiz-adv-x="427" 
d="M60 204q0 22 2 45.5t6 50.5q12 84 34.5 141t53.5 92.5t67.5 51t75.5 15.5h97q23 0 43 -7t35 -23t23.5 -41.5t8.5 -62.5q0 -12 -1 -25.5t-3 -27.5q-8 -53 -23.5 -89t-36.5 -58t-46.5 -31t-52.5 -9h-179q2 -60 24.5 -86.5t54.5 -26.5h187l-15 -113h-200q-33 0 -61.5 11
t-49 35t-32.5 63t-12 95zM339 338q10 0 21 4.5t20 15.5t15 29.5t6 45.5q0 29 -12 41.5t-29 12.5h-64q-38 0 -70.5 -34.5t-50.5 -114.5h164zM384 770h107l-16 -110h-107zM231 770h107l-16 -110h-107z" />
    <glyph glyph-name="igrave" unicode="&#xec;" horiz-adv-x="196" 
d="M131 600h102l-84 -600h-102zM107 767l55 68l136 -144l-35 -43z" />
    <glyph glyph-name="iacute" unicode="&#xed;" horiz-adv-x="196" 
d="M131 600h102l-84 -600h-102zM97 691l176 144l35 -68l-188 -119z" />
    <glyph glyph-name="icircumflex" unicode="&#xee;" horiz-adv-x="196" 
d="M131 600h102l-84 -600h-102zM42 691l175 144l135 -138l-34 -49l-115 87q-34 -22 -69 -43.5t-69 -43.5z" />
    <glyph glyph-name="idieresis" unicode="&#xef;" horiz-adv-x="196" 
d="M131 600h102l-84 -600h-102zM231 770h107l-16 -110h-107zM78 770h107l-16 -110h-107z" />
    <glyph glyph-name="eth" unicode="&#xf0;" 
d="M60 204q0 22 2 45.5t6 50.5q12 84 34.5 141t53.5 92.5t67.5 51t75.5 15.5h113q0 4 0.5 8t0.5 8q0 37 -17.5 54t-43.5 17h-122l-9 -67h-80l25 180h229q26 0 48.5 -7.5t39 -25t26 -45t9.5 -66.5q0 -13 -1 -27t-3 -29l-84 -600h-215q-33 0 -61.5 11t-49 35t-32.5 63t-12 95z
M343 113l53 374h-100q-21 0 -40.5 -9t-36.5 -30.5t-30 -57.5t-20 -90q-6 -41 -6 -71q0 -33 6 -55.5t16.5 -36t25.5 -19t32 -5.5h100z" />
    <glyph glyph-name="ntilde" unicode="&#xf1;" 
d="M131 600h200q34 0 63.5 -9t51.5 -29t34.5 -52.5t12.5 -79.5q0 -13 -1 -27t-3 -30l-52 -373h-102l52 373q1 8 1.5 14.5t0.5 13.5q0 48 -25 67t-61 19h-86l-68 -487h-102zM169 716l22 12q18 10 41.5 21t50.5 11q21 0 36 -6t27.5 -13t24.5 -13t28 -6q20 0 39 10.5t38 21.5
h-1l12 8l16 -72q-11 -3 -23 -10t-26 -13.5t-30.5 -11.5t-34.5 -5q-22 0 -36.5 6t-26.5 13.5t-24 13.5t-29 6q-8 0 -19.5 -4.5t-24 -11t-24.5 -14.5t-20 -14z" />
    <glyph glyph-name="ograve" unicode="&#xf2;" horiz-adv-x="480" 
d="M61 205q0 22 1.5 45.5t5.5 49.5q12 87 37 147t59.5 97.5t75.5 54t86 16.5q37 0 69.5 -12t56.5 -39t38 -70t14 -104q0 -20 -2 -42.5t-5 -47.5q-12 -87 -38 -147t-61 -97.5t-76.5 -54t-84.5 -16.5q-38 0 -70 12t-55.5 38t-37 68t-13.5 102zM253 98q23 0 45 10t40.5 33
t33 62t22.5 97q3 20 4 38t1 34q0 37 -6.5 62t-18.5 40t-28.5 21.5t-35.5 6.5q-24 0 -46 -10t-40.5 -33t-32.5 -62t-22 -97q-6 -42 -6 -74q0 -36 6.5 -60.5t18.5 -39.5t28.5 -21.5t36.5 -6.5zM246 767l55 68l136 -144l-35 -43z" />
    <glyph glyph-name="oacute" unicode="&#xf3;" horiz-adv-x="480" 
d="M61 205q0 22 1.5 45.5t5.5 49.5q12 87 37 147t59.5 97.5t75.5 54t86 16.5q37 0 69.5 -12t56.5 -39t38 -70t14 -104q0 -20 -2 -42.5t-5 -47.5q-12 -87 -38 -147t-61 -97.5t-76.5 -54t-84.5 -16.5q-38 0 -70 12t-55.5 38t-37 68t-13.5 102zM253 98q23 0 45 10t40.5 33
t33 62t22.5 97q3 20 4 38t1 34q0 37 -6.5 62t-18.5 40t-28.5 21.5t-35.5 6.5q-24 0 -46 -10t-40.5 -33t-32.5 -62t-22 -97q-6 -42 -6 -74q0 -36 6.5 -60.5t18.5 -39.5t28.5 -21.5t36.5 -6.5zM236 691l176 144l35 -68l-188 -119z" />
    <glyph glyph-name="ocircumflex" unicode="&#xf4;" horiz-adv-x="480" 
d="M61 205q0 22 1.5 45.5t5.5 49.5q12 87 37 147t59.5 97.5t75.5 54t86 16.5q37 0 69.5 -12t56.5 -39t38 -70t14 -104q0 -20 -2 -42.5t-5 -47.5q-12 -87 -38 -147t-61 -97.5t-76.5 -54t-84.5 -16.5q-38 0 -70 12t-55.5 38t-37 68t-13.5 102zM253 98q23 0 45 10t40.5 33
t33 62t22.5 97q3 20 4 38t1 34q0 37 -6.5 62t-18.5 40t-28.5 21.5t-35.5 6.5q-24 0 -46 -10t-40.5 -33t-32.5 -62t-22 -97q-6 -42 -6 -74q0 -36 6.5 -60.5t18.5 -39.5t28.5 -21.5t36.5 -6.5zM182 691l175 144l135 -138l-34 -49l-115 87q-34 -22 -69 -43.5t-69 -43.5z" />
    <glyph glyph-name="otilde" unicode="&#xf5;" horiz-adv-x="480" 
d="M61 205q0 22 1.5 45.5t5.5 49.5q12 87 37 147t59.5 97.5t75.5 54t86 16.5q37 0 69.5 -12t56.5 -39t38 -70t14 -104q0 -20 -2 -42.5t-5 -47.5q-12 -87 -38 -147t-61 -97.5t-76.5 -54t-84.5 -16.5q-38 0 -70 12t-55.5 38t-37 68t-13.5 102zM253 98q23 0 45 10t40.5 33
t33 62t22.5 97q3 20 4 38t1 34q0 37 -6.5 62t-18.5 40t-28.5 21.5t-35.5 6.5q-24 0 -46 -10t-40.5 -33t-32.5 -62t-22 -97q-6 -42 -6 -74q0 -36 6.5 -60.5t18.5 -39.5t28.5 -21.5t36.5 -6.5zM171 716l22 12q18 10 41.5 21t50.5 11q21 0 36 -6t27.5 -13t24.5 -13t28 -6
q20 0 39 10.5t38 21.5h-1l12 8l16 -72q-11 -3 -23 -10t-26 -13.5t-30.5 -11.5t-34.5 -5q-22 0 -36.5 6t-26.5 13.5t-24 13.5t-29 6q-8 0 -19.5 -4.5t-24 -11t-24.5 -14.5t-20 -14z" />
    <glyph glyph-name="odieresis" unicode="&#xf6;" horiz-adv-x="480" 
d="M61 205q0 22 1.5 45.5t5.5 49.5q12 87 37 147t59.5 97.5t75.5 54t86 16.5q37 0 69.5 -12t56.5 -39t38 -70t14 -104q0 -20 -2 -42.5t-5 -47.5q-12 -87 -38 -147t-61 -97.5t-76.5 -54t-84.5 -16.5q-38 0 -70 12t-55.5 38t-37 68t-13.5 102zM253 98q23 0 45 10t40.5 33
t33 62t22.5 97q3 20 4 38t1 34q0 37 -6.5 62t-18.5 40t-28.5 21.5t-35.5 6.5q-24 0 -46 -10t-40.5 -33t-32.5 -62t-22 -97q-6 -42 -6 -74q0 -36 6.5 -60.5t18.5 -39.5t28.5 -21.5t36.5 -6.5zM371 770h107l-16 -110h-107zM218 770h107l-16 -110h-107z" />
    <glyph glyph-name="divide" unicode="&#xf7;" horiz-adv-x="448" 
d="M258 560h88l-15 -110h-88zM96 350h354l-14 -100h-354zM201 150h88l-16 -110h-88z" />
    <glyph glyph-name="oslash" unicode="&#xf8;" horiz-adv-x="480" 
d="M109 35h1q-24 26 -37 67t-13 101q0 22 2 46t6 51q12 87 37 147t59.5 97.5t75.5 54t86 16.5q22 0 43 -4t38 -12l21 41h65l-39 -76h-1q23 -28 36.5 -70.5t13.5 -104.5q0 -40 -6 -89q-12 -87 -38 -147t-61 -97.5t-76.5 -54t-84.5 -16.5q-23 0 -43 3.5t-37 11.5l-21 -40h-66z
M350 492h2q-17 10 -42 10q-24 0 -46 -10t-40.5 -33t-32.5 -62t-22 -97q-3 -20 -4 -38t-1 -34q0 -46 9 -73zM211 108q20 -10 42 -10q23 0 45 10t40.5 33t33 62t22.5 97q2 19 3.5 36t1.5 32q0 23 -2.5 42t-6.5 33q-45 -85 -88.5 -167.5t-88.5 -167.5h-2z" />
    <glyph glyph-name="ugrave" unicode="&#xf9;" 
d="M67 171q0 13 1 27t3 29l53 373h102l-53 -373q-2 -8 -2 -15v-13q0 -48 24.5 -67t61.5 -19h86l69 487h102l-84 -600h-201q-34 0 -63.5 9t-51.5 29t-34.5 53t-12.5 80zM244 767l55 68l136 -144l-35 -43z" />
    <glyph glyph-name="uacute" unicode="&#xfa;" 
d="M67 171q0 13 1 27t3 29l53 373h102l-53 -373q-2 -8 -2 -15v-13q0 -48 24.5 -67t61.5 -19h86l69 487h102l-84 -600h-201q-34 0 -63.5 9t-51.5 29t-34.5 53t-12.5 80zM234 691l176 144l35 -68l-188 -119z" />
    <glyph glyph-name="ucircumflex" unicode="&#xfb;" 
d="M67 171q0 13 1 27t3 29l53 373h102l-53 -373q-2 -8 -2 -15v-13q0 -48 24.5 -67t61.5 -19h86l69 487h102l-84 -600h-201q-34 0 -63.5 9t-51.5 29t-34.5 53t-12.5 80zM180 691l175 144l135 -138l-34 -49l-115 87q-34 -22 -69 -43.5t-69 -43.5z" />
    <glyph glyph-name="udieresis" unicode="&#xfc;" 
d="M67 171q0 13 1 27t3 29l53 373h102l-53 -373q-2 -8 -2 -15v-13q0 -48 24.5 -67t61.5 -19h86l69 487h102l-84 -600h-201q-34 0 -63.5 9t-51.5 29t-34.5 53t-12.5 80zM369 770h107l-16 -110h-107zM216 770h107l-16 -110h-107z" />
    <glyph glyph-name="yacute" unicode="&#xfd;" 
d="M243 -87q29 0 53 21t32 66h-113q-34 0 -61.5 8.5t-47 28t-30 50.5t-10.5 76q0 14 1 30t4 34l53 373h102l-53 -373q-3 -20 -3 -36q0 -43 19 -60.5t54 -17.5h100l69 487h102l-84 -600q-8 -56 -25 -94t-40.5 -61.5t-52 -34t-58.5 -10.5h-214l16 113h187zM234 691l176 144
l35 -68l-188 -119z" />
    <glyph glyph-name="thorn" unicode="&#xfe;" 
d="M127 -150h-102l127 900h102l-21 -150h113q33 0 61 -11.5t48.5 -36t32.5 -64t12 -96.5q0 -20 -1.5 -43t-5.5 -49q-12 -86 -35 -143.5t-54 -92t-67 -49.5t-75 -15h-113zM264 113q21 0 40.5 9t36.5 30.5t30 57.5t21 90q2 18 3.5 34t1.5 30q0 66 -22.5 94.5t-57.5 28.5h-100
l-53 -374h100z" />
    <glyph glyph-name="ydieresis" unicode="&#xff;" 
d="M243 -87q29 0 53 21t32 66h-113q-34 0 -61.5 8.5t-47 28t-30 50.5t-10.5 76q0 14 1 30t4 34l53 373h102l-53 -373q-3 -20 -3 -36q0 -43 19 -60.5t54 -17.5h100l69 487h102l-84 -600q-8 -56 -25 -94t-40.5 -61.5t-52 -34t-58.5 -10.5h-214l16 113h187zM369 770h107
l-16 -110h-107zM216 770h107l-16 -110h-107z" />
    <glyph glyph-name="dotlessi" unicode="&#x131;" horiz-adv-x="196" 
d="M131 600h102l-84 -600h-102z" />
    <glyph glyph-name="Lslash" unicode="&#x141;" horiz-adv-x="448" 
d="M95 208q0 33 6 72l7 53q-11 -5 -24 -10t-23 -10l16 108l49 22h-2l36 257h108l-29 -203l47 22l-15 -108l-49 -23h2l-15 -108q-3 -24 -3 -44q0 -65 30.5 -90.5t75.5 -25.5h134l-16 -120h-134q-42 0 -78.5 10.5t-64 35t-43 64.5t-15.5 98z" />
    <glyph glyph-name="lslash" unicode="&#x142;" horiz-adv-x="226" 
d="M108 333q-11 -5 -24 -10t-23 -10l16 108l49 22h-2l50 357h101l-43 -307l47 23l-15 -108l-50 -24h2l-53 -384h-101z" />
    <glyph glyph-name="OE" unicode="&#x152;" horiz-adv-x="873" 
d="M67 240q0 25 1.5 52.5t6.5 57.5q14 101 43 171t69 113t87.5 62t99.5 19q60 0 106.5 -30.5t69.5 -99.5q36 63 83 89t99 26h192l-17 -120h-177q-23 0 -44 -9t-40 -29t-35 -52.5t-28 -79.5h300l-17 -120h-300v-16q0 -43 7.5 -72.5t20.5 -47.5t31 -26t40 -8h177l-16 -120
h-192q-52 0 -91.5 26t-58.5 88q-42 -70 -97 -99.5t-116 -29.5q-44 0 -81.5 13.5t-64.5 44t-42.5 79t-15.5 118.5zM288 105q29 0 56 11.5t50 39.5t41 75.5t28 118.5q6 48 6 86q0 45 -8.5 75.5t-23.5 49t-35.5 26.5t-44.5 8q-29 0 -56.5 -11.5t-50 -39.5t-40 -75.5
t-27.5 -118.5q-4 -26 -5.5 -47.5t-1.5 -41.5q0 -45 8.5 -75t23.5 -48t35.5 -25.5t44.5 -7.5z" />
    <glyph glyph-name="oe" unicode="&#x153;" horiz-adv-x="796" 
d="M61 205q0 22 1.5 45.5t5.5 49.5q12 87 37 147t59.5 97.5t75.5 54t86 16.5q52 0 90.5 -23.5t57.5 -83.5q31 51 70 71.5t83 20.5h96q23 0 43 -7t35 -23t23.5 -41.5t8.5 -62.5q0 -12 -1 -25.5t-3 -27.5q-8 -53 -23.5 -89t-36.5 -58t-46.5 -31t-52.5 -9h-180q3 -61 24.5 -87
t54.5 -26h188l-15 -113h-199q-44 0 -77.5 20.5t-50.5 71.5q-35 -60 -80.5 -83.5t-97.5 -23.5q-38 0 -70 12t-55.5 38t-37 68t-13.5 102zM253 98q23 0 45 10t40.5 33t33 62t22.5 97q3 20 4 38t1 34q0 37 -6.5 62t-18.5 40t-28.5 21.5t-35.5 6.5q-24 0 -46 -10t-40.5 -33
t-32.5 -62t-22 -97q-6 -42 -6 -74q0 -36 6.5 -60.5t18.5 -39.5t28.5 -21.5t36.5 -6.5zM666 338q10 0 21 4.5t20 15.5t15 29.5t6 45.5q0 29 -12 41.5t-29 12.5h-65q-37 0 -69.5 -34.5t-50.5 -114.5h164z" />
    <glyph glyph-name="Scaron" unicode="&#x160;" horiz-adv-x="527" 
d="M67 120h267q13 0 27 5.5t25.5 18t18.5 33t7 51.5q0 35 -15.5 48.5t-38.5 13.5h-123q-62 0 -98.5 32.5t-36.5 112.5q0 14 1.5 28.5t3.5 31.5q8 58 25 97.5t41 63.5t55 34t67 10h281l-17 -120h-266q-14 0 -28 -5.5t-25.5 -18t-18.5 -33t-7 -51.5q0 -35 16 -48.5t39 -13.5
h122q31 0 56 -7.5t42.5 -24.5t27 -44.5t9.5 -67.5q0 -14 -1.5 -29t-3.5 -32q-8 -59 -25 -98t-41 -63t-54.5 -34t-66.5 -10h-281zM233 891l35 43l113 -87q35 22 70.5 43.5t69.5 43.5l21 -49l-175 -138z" />
    <glyph glyph-name="scaron" unicode="&#x161;" horiz-adv-x="464" 
d="M64 113h230q25 0 44.5 18t19.5 64q0 27 -12.5 37.5t-32.5 10.5h-105q-27 0 -48.5 6.5t-36.5 21.5t-23.5 39t-8.5 59q0 12 1 25.5t3 28.5q7 50 21.5 84t35.5 54.5t48 29.5t58 9h242l-16 -113h-230q-24 0 -44.5 -18t-20.5 -63q0 -28 13.5 -38.5t33.5 -10.5h105
q54 0 84.5 -27.5t30.5 -97.5q0 -66 -13.5 -110.5t-36 -71.5t-52.5 -38.5t-63 -11.5h-242zM188 791l35 43l113 -87q35 22 70.5 43.5t69.5 43.5l21 -49l-175 -138z" />
    <glyph glyph-name="Ydieresis" unicode="&#x178;" horiz-adv-x="491" 
d="M232 296l-137 404h130l82 -264l155 264h130l-251 -404l-41 -296h-109zM390 870h107l-16 -110h-107zM237 870h107l-16 -110h-107z" />
    <glyph glyph-name="florin" unicode="&#x192;" horiz-adv-x="780" 
d="M110 680h660v-660h-660v660zM499 140l20 183h41q28 0 42 12.5t17 41.5h-95l14 129h66q29 0 43 12.5t17 41.5h-120q-29 0 -43 -12.5t-17 -41.5l-39 -366h54zM356 140q29 0 43 12.5t17 41.5l19 183h-120l14 129h66l-5 -46h54l11 100h-120q-29 0 -43 -12.5t-17 -41.5
l-19 -183h120l-14 -129h-66l5 46h-54l-11 -100h120z" />
    <glyph glyph-name="circumflex" unicode="&#x2c6;" horiz-adv-x="407" 
d="M145 691l175 144l135 -138l-34 -49l-115 87q-34 -22 -69 -43.5t-69 -43.5z" />
    <glyph glyph-name="caron" unicode="&#x2c7;" horiz-adv-x="407" 
d="M159 791l35 43l113 -87q35 22 70.5 43.5t69.5 43.5l21 -49l-175 -138z" />
    <glyph glyph-name="breve" unicode="&#x2d8;" horiz-adv-x="309" 
d="M245 645q-41 0 -67 28t-26 70v8t1 9h62q-1 -3 -1 -8q0 -20 11.5 -33.5t28.5 -13.5q19 0 34 16t18 39h62q-3 -24 -14.5 -44.5t-28.5 -36.5t-37.5 -25t-42.5 -9z" />
    <glyph glyph-name="dotaccent" unicode="&#x2d9;" horiz-adv-x="201" 
d="M155 770h107l-16 -110h-107z" />
    <glyph glyph-name="ring" unicode="&#x2da;" horiz-adv-x="309" 
d="M245 645q-41 0 -67 28t-26 70v8t1 9q3 24 14.5 44.5t28.5 36.5t38 25t43 9q40 0 66 -28t26 -70q0 -26 -10.5 -50t-28 -42t-39.5 -29t-46 -11zM254 705q21 0 37 19.5t16 45.5q0 20 -10.5 32.5t-27.5 12.5q-19 0 -34.5 -16t-19.5 -39q-1 -3 -1 -8q0 -20 11.5 -33.5
t28.5 -13.5z" />
    <glyph glyph-name="ogonek" unicode="&#x2db;" horiz-adv-x="282" 
d="M28 -129q0 16 10.5 34.5t29 37.5t44 38.5t56.5 38.5h63q-18 -10 -38.5 -26.5t-38.5 -35t-30 -37.5t-12 -35q0 -15 13.5 -24t46.5 -9q8 0 17 0.5t25 2.5l-8 -56q-96 0 -137 19.5t-41 51.5z" />
    <glyph glyph-name="tilde" unicode="&#x2dc;" horiz-adv-x="432" 
d="M147 716l22 12q18 10 41.5 21t50.5 11q21 0 36 -6t27.5 -13t24.5 -13t28 -6q20 0 39 10.5t38 21.5h-1l12 8l16 -72q-11 -3 -23 -10t-26 -13.5t-30.5 -11.5t-34.5 -5q-22 0 -36.5 6t-26.5 13.5t-24 13.5t-29 6q-8 0 -19.5 -4.5t-24 -11t-24.5 -14.5t-20 -14z" />
    <glyph glyph-name="hungarumlaut" unicode="&#x2dd;" horiz-adv-x="478" 
d="M325 691l176 144l35 -68l-188 -119zM145 691l176 144l35 -68l-188 -119z" />
    <glyph glyph-name="Delta" unicode="&#x394;" horiz-adv-x="780" 
d="M110 680h660v-660h-660v660zM499 140l20 183h41q28 0 42 12.5t17 41.5h-95l14 129h66q29 0 43 12.5t17 41.5h-120q-29 0 -43 -12.5t-17 -41.5l-39 -366h54zM356 140q29 0 43 12.5t17 41.5l19 183h-120l14 129h66l-5 -46h54l11 100h-120q-29 0 -43 -12.5t-17 -41.5
l-19 -183h120l-14 -129h-66l5 46h-54l-11 -100h120z" />
    <glyph glyph-name="Delta" unicode="&#x2206;" horiz-adv-x="780" 
d="M110 680h660v-660h-660v660zM499 140l20 183h41q28 0 42 12.5t17 41.5h-95l14 129h66q29 0 43 12.5t17 41.5h-120q-29 0 -43 -12.5t-17 -41.5l-39 -366h54zM356 140q29 0 43 12.5t17 41.5l19 183h-120l14 129h66l-5 -46h54l11 100h-120q-29 0 -43 -12.5t-17 -41.5
l-19 -183h120l-14 -129h-66l5 46h-54l-11 -100h120z" />
    <glyph glyph-name="Omega" unicode="&#x3a9;" horiz-adv-x="780" 
d="M110 680h660v-660h-660v660zM499 140l20 183h41q28 0 42 12.5t17 41.5h-95l14 129h66q29 0 43 12.5t17 41.5h-120q-29 0 -43 -12.5t-17 -41.5l-39 -366h54zM356 140q29 0 43 12.5t17 41.5l19 183h-120l14 129h66l-5 -46h54l11 100h-120q-29 0 -43 -12.5t-17 -41.5
l-19 -183h120l-14 -129h-66l5 46h-54l-11 -100h120z" />
    <glyph glyph-name="Omega" unicode="&#x2126;" horiz-adv-x="780" 
d="M110 680h660v-660h-660v660zM499 140l20 183h41q28 0 42 12.5t17 41.5h-95l14 129h66q29 0 43 12.5t17 41.5h-120q-29 0 -43 -12.5t-17 -41.5l-39 -366h54zM356 140q29 0 43 12.5t17 41.5l19 183h-120l14 129h66l-5 -46h54l11 100h-120q-29 0 -43 -12.5t-17 -41.5
l-19 -183h120l-14 -129h-66l5 46h-54l-11 -100h120z" />
    <glyph glyph-name="pi" unicode="&#x3c0;" horiz-adv-x="780" 
d="M110 680h660v-660h-660v660zM499 140l20 183h41q28 0 42 12.5t17 41.5h-95l14 129h66q29 0 43 12.5t17 41.5h-120q-29 0 -43 -12.5t-17 -41.5l-39 -366h54zM356 140q29 0 43 12.5t17 41.5l19 183h-120l14 129h66l-5 -46h54l11 100h-120q-29 0 -43 -12.5t-17 -41.5
l-19 -183h120l-14 -129h-66l5 46h-54l-11 -100h120z" />
    <glyph glyph-name="endash" unicode="&#x2013;" horiz-adv-x="336" 
d="M98 355h240v-110h-240v110z" />
    <glyph glyph-name="emdash" unicode="&#x2014;" horiz-adv-x="736" 
d="M98 355h640v-110h-640v110z" />
    <glyph glyph-name="quoteleft" unicode="&#x2018;" horiz-adv-x="203" 
d="M174 750h65l-27 -350h-109z" />
    <glyph glyph-name="quoteright" unicode="&#x2019;" horiz-adv-x="203" 
d="M152 750h109l-71 -350h-65z" />
    <glyph glyph-name="quotesinglbase" unicode="&#x201a;" horiz-adv-x="203" 
d="M82 250h109l-72 -350h-65z" />
    <glyph glyph-name="quotedblleft" unicode="&#x201c;" horiz-adv-x="333" 
d="M303 750h66l-27 -350h-109zM174 750h65l-27 -350h-109z" />
    <glyph glyph-name="quotedblright" unicode="&#x201d;" horiz-adv-x="333" 
d="M282 750h109l-71 -350h-66zM152 750h109l-71 -350h-65z" />
    <glyph glyph-name="quotedblbase" unicode="&#x201e;" horiz-adv-x="333" 
d="M212 250h109l-72 -350h-66zM82 250h109l-72 -350h-65z" />
    <glyph glyph-name="dagger" unicode="&#x2020;" horiz-adv-x="448" 
d="M230 500h-132v100h128v150h96l-3 -150h131v-100h-144v-640h-76v640z" />
    <glyph glyph-name="daggerdbl" unicode="&#x2021;" horiz-adv-x="448" 
d="M98 200h138l-6 300h-132v100h128v150h96l-3 -150h131v-100h-138v-300h138v-100h-144v-240h-68v240h-140v100z" />
    <glyph glyph-name="bullet" unicode="&#x2022;" horiz-adv-x="476" 
d="M288 160q-39 0 -74 15t-60.5 40.5t-40.5 60.5t-15 74t15 73.5t40.5 60.5t60.5 41t74 15t73.5 -15t60.5 -41t41 -60.5t15 -73.5t-15 -74t-41 -60.5t-60.5 -40.5t-73.5 -15z" />
    <glyph glyph-name="ellipsis" unicode="&#x2026;" horiz-adv-x="549" 
d="M412 140h109l-19 -140h-109zM239 140h109l-19 -140h-109zM66 140h109l-19 -140h-109z" />
    <glyph glyph-name="perthousand" unicode="&#x2030;" horiz-adv-x="1019" 
d="M225 329q-47 0 -78 30.5t-31 104.5q0 69 14.5 116t37.5 76t52 41.5t58 12.5q23 0 43 -7.5t35 -24t24 -42.5t9 -64q0 -11 -1 -24.5t-3 -27.5q-8 -53 -23.5 -89.5t-37 -59t-47 -32.5t-52.5 -10zM539 700h73l-321 -700h-73zM235 405q13 0 25 5.5t22.5 18.5t19 35.5
t13.5 55.5q3 22 3 41q0 42 -14.5 57.5t-35.5 15.5q-13 0 -25 -5.5t-22.5 -18.5t-18.5 -35t-12 -55q-2 -13 -3 -24t-1 -21q0 -40 14 -55t35 -15zM728 125q0 69 15 116t38 76t52 41.5t58 12.5q46 0 77.5 -30.5t31.5 -104.5q0 -13 -1 -26.5t-3 -28.5q-8 -53 -23.5 -89.5
t-37 -59t-46.5 -32.5t-52 -10q-47 0 -78 30.5t-31 104.5zM443 124q0 13 1 27t3 30q7 53 22.5 89t36.5 58.5t46.5 32.5t52.5 10q23 0 43 -7t35 -23t23.5 -42t8.5 -63q0 -13 -1 -26.5t-3 -28.5q-8 -53 -23.5 -89.5t-37 -59t-47 -32.5t-52.5 -10q-23 0 -43 7t-34.5 23
t-22.5 41.5t-8 62.5zM798 137q0 -41 14 -56t36 -15q26 0 47 24t31 91q3 24 3 42q0 42 -14 57t-35 15q-13 0 -27.5 -7.5t-26.5 -25.5t-20 -48.5t-8 -76.5zM513 136q0 -40 14 -55t35 -15q13 0 25 5.5t22.5 18.5t18.5 35.5t13 55.5q3 22 3 41q0 42 -14.5 57.5t-35.5 15.5
q-13 0 -25 -5.5t-22 -18.5t-18 -35t-12 -55q-2 -13 -3 -24t-1 -21z" />
    <glyph glyph-name="guilsinglleft" unicode="&#x2039;" horiz-adv-x="280" 
d="M89 300l155 282l61 -55l-132 -227l68 -227l-76 -55z" />
    <glyph glyph-name="guilsinglright" unicode="&#x203a;" horiz-adv-x="280" 
d="M191 300q-18 57 -35 113.5t-34 113.5l75 55l77 -282l-156 -282l-60 55z" />
    <glyph glyph-name="fraction" unicode="&#x2044;" horiz-adv-x="313" 
d="M341 700h73l-344 -700h-73z" />
    <glyph glyph-name="zerosuperior" unicode="&#x2070;" horiz-adv-x="327" 
d="M202 271q-24 0 -45 8t-36 26t-23.5 47t-8.5 70q0 15 1 32t4 36q9 61 25.5 102.5t39 67.5t49 37.5t55.5 11.5q24 0 44.5 -8t35.5 -26t23.5 -47t8.5 -70q0 -15 -1.5 -32t-3.5 -36q-8 -61 -25 -102.5t-39.5 -67.5t-49 -37.5t-54.5 -11.5zM212 343q14 0 27.5 7t25 24t21 45
t15.5 71q2 17 3.5 32t1.5 28q0 50 -15 68.5t-38 18.5q-15 0 -28.5 -7t-25.5 -24t-21.5 -45t-15.5 -71q-2 -17 -3.5 -32t-1.5 -27q0 -50 16 -69t39 -19z" />
    <glyph glyph-name="foursuperior" unicode="&#x2074;" horiz-adv-x="343" 
d="M80 447l216 253h83l-37 -264h43l-10 -72h-43l-12 -84h-68l12 84h-195zM274 436l24 170l-142 -170h118z" />
    <glyph glyph-name="fivesuperior" unicode="&#x2075;" horiz-adv-x="344" 
d="M85 352h166q17 0 32 16t15 58q0 22 -8.5 31t-22.5 9h-166l33 234h255l-10 -72h-186l-13 -90h106q38 0 60 -20t22 -71q0 -48 -10 -80t-26.5 -51.5t-37.5 -27.5t-44 -8h-175z" />
    <glyph glyph-name="sixsuperior" unicode="&#x2076;" horiz-adv-x="338" 
d="M199 280q-24 0 -44 7.5t-34.5 24.5t-23 44.5t-8.5 67.5q0 15 1 31.5t4 34.5q8 58 24 98.5t38 65t48 35.5t54 11h132l-10 -72h-124q-23 0 -44.5 -18t-36.5 -60h121q33 0 55.5 -20t22.5 -72q0 -50 -11 -84t-28 -55t-37.5 -30t-39.5 -9h-59zM254 352q15 0 32 20t17 68
q0 22 -8.5 30.5t-22.5 8.5h-111q-3 -23 -3 -39q0 -49 16.5 -68.5t42.5 -19.5h37z" />
    <glyph glyph-name="sevensuperior" unicode="&#x2077;" horiz-adv-x="288" 
d="M283 628h-173l10 72h255l-10 -72l-205 -348h-86z" />
    <glyph glyph-name="eightsuperior" unicode="&#x2078;" horiz-adv-x="343" 
d="M169 280q-37 0 -62 19t-25 67q0 49 17 80t42 47h-1q-22 21 -22 64q0 41 10.5 68.5t27 44t38 23.5t43.5 7h65q36 0 61.5 -19t25.5 -67q0 -45 -14.5 -75t-34.5 -46h-1q14 -11 22.5 -29t8.5 -44q0 -40 -10.5 -66.5t-28 -43t-38.5 -23.5t-42 -7h-82zM277 526q14 0 27.5 15
t13.5 51q0 19 -7.5 27.5t-18.5 8.5h-65q-14 0 -28 -15t-14 -53q0 -19 8 -26.5t19 -7.5h65zM261 352q15 0 28 14.5t13 52.5q0 19 -7.5 27t-19.5 8h-82q-14 0 -27.5 -14t-13.5 -52q0 -20 8 -28t19 -8h82z" />
    <glyph glyph-name="ninesuperior" unicode="&#x2079;" horiz-adv-x="338" 
d="M94 352h124q23 0 44.5 18t35.5 60h-118q-34 0 -56.5 20t-22.5 70q0 16 3 37q11 79 43 111t71 32h58q23 0 43 -8t35 -25t23.5 -44.5t8.5 -67.5q0 -14 -1.5 -30.5t-3.5 -34.5q-8 -59 -24.5 -99t-38 -64.5t-47.5 -35.5t-54 -11h-133zM313 501q1 10 1.5 19.5t0.5 17.5
q0 50 -16.5 70t-41.5 20h-37q-14 0 -28.5 -16.5t-19.5 -54.5q-1 -5 -1 -8.5v-7.5q0 -23 9.5 -31.5t21.5 -8.5h111z" />
    <glyph glyph-name="zeroinferior" unicode="&#x2080;" horiz-adv-x="327" 
d="M49 140q0 31 6 70q9 61 25.5 102.5t39 67.5t49 37.5t55.5 11.5q24 0 44.5 -8t35.5 -26t23.5 -47t8.5 -70q0 -15 -1.5 -32t-3.5 -36q-9 -61 -26 -102.5t-39.5 -67.5t-49 -37.5t-54.5 -11.5q-24 0 -45 8t-36 25.5t-23.5 46t-8.5 69.5zM172 63q14 0 27.5 7t25.5 24t21.5 45
t15.5 71q2 17 3.5 32t1.5 28q0 50 -15 68.5t-38 18.5q-15 0 -28.5 -7t-25.5 -24t-21.5 -45t-15.5 -71q-2 -17 -3.5 -32t-1.5 -28q0 -50 15.5 -68.5t38.5 -18.5z" />
    <glyph glyph-name="oneinferior" unicode="&#x2081;" horiz-adv-x="163" 
d="M103 405l73 34l-61 -435h-68z" />
    <glyph glyph-name="twoinferior" unicode="&#x2082;" horiz-adv-x="344" 
d="M53 123q10 69 39.5 96t74.5 27h69q17 0 31.5 14t14.5 52q0 20 -9 28t-23 8h-157l11 72h166q38 0 60 -18.5t22 -67.5q0 -45 -9.5 -76t-25.5 -49.5t-37.5 -26.5t-44.5 -8h-69q-15 0 -27.5 -11t-16.5 -40l-7 -51h199l-10 -72h-268z" />
    <glyph glyph-name="threeinferior" unicode="&#x2083;" horiz-adv-x="332" 
d="M50 72h161q14 0 27.5 14.5t13.5 52.5q0 19 -7.5 27t-19.5 8h-118l10 72h110q14 0 27 15t13 53q0 19 -7.5 26.5t-18.5 7.5h-153l11 72h153q37 0 62.5 -19t25.5 -68q0 -44 -15.5 -74.5t-35.5 -45.5h-1q15 -11 24 -29.5t9 -45.5q0 -39 -11 -65.5t-28 -42.5t-38.5 -23
t-42.5 -7h-161z" />
    <glyph glyph-name="fourinferior" unicode="&#x2084;" horiz-adv-x="343" 
d="M41 167l216 253h83l-38 -264h43l-10 -72h-43l-11 -84h-68l11 84h-195zM234 156l24 170l-142 -170h118z" />
    <glyph glyph-name="fiveinferior" unicode="&#x2085;" horiz-adv-x="344" 
d="M46 72h166q17 0 32 16t15 58q0 22 -8.5 31t-22.5 9h-166l33 234h255l-11 -72h-186l-12 -90h106q38 0 60 -20t22 -71q0 -48 -10 -80t-26.5 -51.5t-37.5 -27.5t-44 -8h-175z" />
    <glyph glyph-name="sixinferior" unicode="&#x2086;" horiz-adv-x="338" 
d="M50 144q0 15 1 31.5t4 34.5q8 58 24 98.5t38 65t48 35.5t54 11h132l-11 -72h-124q-23 0 -44.5 -18t-36.5 -60h121q33 0 56 -20.5t23 -72.5q0 -50 -11 -83.5t-28 -54.5t-37.5 -30t-39.5 -9h-59q-24 0 -44 7.5t-34.5 24.5t-23 44.5t-8.5 67.5zM215 72q7 0 15.5 4.5t16 15
t12.5 27t5 40.5q0 23 -9 31.5t-23 8.5h-111q-2 -11 -2 -20v-17q0 -51 16.5 -70.5t42.5 -19.5h37z" />
    <glyph glyph-name="seveninferior" unicode="&#x2087;" horiz-adv-x="288" 
d="M243 348h-173l11 72h255l-11 -72l-204 -348h-86z" />
    <glyph glyph-name="eightinferior" unicode="&#x2088;" horiz-adv-x="343" 
d="M43 85q0 50 17 81t41 47h-1q-22 20 -22 63q0 41 10.5 68.5t27.5 44.5t38.5 24t43.5 7h65q36 0 61.5 -19t25.5 -67q0 -45 -15 -75.5t-35 -45.5h-1q14 -11 23 -29t9 -45q0 -40 -10.5 -66.5t-28 -42.5t-38.5 -23t-42 -7h-82q-36 0 -61.5 18.5t-25.5 66.5zM238 246
q14 0 27 15t13 53q0 19 -7.5 26.5t-18.5 7.5h-65q-14 0 -27.5 -14.5t-13.5 -51.5q0 -20 8 -28t19 -8h65zM113 107q0 -20 8 -27.5t19 -7.5h82q14 0 27.5 14.5t13.5 52.5q0 19 -7.5 27t-19.5 8h-82q-14 0 -27.5 -14.5t-13.5 -52.5z" />
    <glyph glyph-name="nineinferior" unicode="&#x2089;" horiz-adv-x="338" 
d="M55 72h124q23 0 44.5 18t35.5 60h-118q-34 0 -57 20t-23 72q0 15 3 35q11 79 43.5 111t71.5 32h58q23 0 43 -8t35 -25t23.5 -44.5t8.5 -67.5q0 -14 -1.5 -30.5t-3.5 -34.5q-8 -59 -24.5 -99t-38 -64.5t-47.5 -35.5t-54 -11h-133zM274 221q1 10 1.5 19t0.5 17q0 51 -17 71
t-42 20h-37q-14 0 -28 -16.5t-20 -54.5q-1 -4 -1 -7.5v-6.5q0 -23 9.5 -32.5t22.5 -9.5h111z" />
    <glyph glyph-name="Euro" unicode="&#x20ac;" horiz-adv-x="563" 
d="M91 315h59q0 17 2.5 35t7.5 35h-80l30 70h64q19 63 46 109.5t59.5 76.5t69 44.5t74.5 14.5h191l-17 -120h-177q-39 0 -75 -28.5t-59 -96.5h228l-30 -70h-216l-10 -70h201l-31 -70h-171q4 -69 31.5 -97t66.5 -28h177l-16 -120h-191q-38 0 -70.5 14.5t-56.5 44.5t-38 76.5
t-15 109.5h-85z" />
    <glyph glyph-name="trademark" unicode="&#x2122;" horiz-adv-x="804" 
d="M432 700h97l90 -311l90 311h97v-420h-66v295l-84 -295h-73l-83 293v-293h-68v420zM218 628h-120v72h307v-72h-120v-348h-67v348z" />
    <glyph glyph-name="onethird" unicode="&#x2153;" horiz-adv-x="681" 
d="M143 685l63 35l-52 -436h-68zM441 700h73l-345 -700h-72zM381 72h162q14 0 27.5 14t13.5 52q0 20 -8 28t-19 8h-119l10 72h111q14 0 27 14.5t13 52.5q0 20 -7.5 27.5t-18.5 7.5h-154l11 72h154q36 0 61.5 -19t25.5 -67q0 -45 -15.5 -75.5t-35.5 -45.5h-1q15 -11 24 -29
t9 -45q0 -40 -10.5 -66.5t-28 -42.5t-38.5 -23t-42 -7h-162z" />
    <glyph glyph-name="twothirds" unicode="&#x2154;" horiz-adv-x="843" 
d="M603 700h73l-345 -700h-72zM103 403q10 69 39.5 96t74.5 27h69q16 0 31.5 14t15.5 51q0 20 -9 28.5t-23 8.5h-157l10 72h166q38 0 60.5 -18.5t22.5 -68.5q0 -45 -9.5 -75.5t-26 -49t-38 -26.5t-44.5 -8h-69q-16 0 -28.5 -11t-16.5 -40l-7 -51h199l-10 -72h-267zM543 72
h162q14 0 27.5 14t13.5 52q0 20 -8 28t-19 8h-119l10 72h111q14 0 27 14.5t13 52.5q0 20 -7.5 27.5t-18.5 7.5h-154l11 72h154q36 0 61.5 -19t25.5 -67q0 -45 -15.5 -75.5t-35.5 -45.5h-1q15 -11 24 -29t9 -45q0 -40 -10.5 -66.5t-28 -42.5t-38.5 -23t-42 -7h-162z" />
    <glyph glyph-name="oneeighth" unicode="&#x215b;" horiz-adv-x="685" 
d="M143 685l63 35l-52 -436h-68zM441 700h73l-345 -700h-72zM367 85q0 50 17 81t41 47h-1q-22 20 -22 63q0 41 10.5 68.5t27.5 44.5t38.5 24t43.5 7h65q36 0 61.5 -19t25.5 -67q0 -7 -0.5 -13.5t-1.5 -14.5q-10 -65 -48 -93h-1q14 -11 23 -29t9 -45q0 -40 -10.5 -66.5
t-28 -42.5t-38.5 -23t-42 -7h-82q-36 0 -61.5 18.5t-25.5 66.5zM470 282q0 -20 8 -28t19 -8h65q14 0 27 15t13 53q0 19 -7.5 26.5t-18.5 7.5h-65q-14 0 -27.5 -14.5t-13.5 -51.5zM437 107q0 -20 8 -27.5t19 -7.5h82q14 0 27.5 14.5t13.5 52.5q0 19 -7.5 27t-19.5 8h-82
q-14 0 -27.5 -14.5t-13.5 -52.5z" />
    <glyph glyph-name="threeeighths" unicode="&#x215c;" horiz-adv-x="843" 
d="M600 700h72l-344 -700h-73zM96 352h162q14 0 27.5 14t13.5 52q0 20 -8 28t-19 8h-119l10 72h111q13 0 27 14t14 52q0 20 -7.5 28t-18.5 8h-154l10 72h154q36 0 61.5 -19t25.5 -67q0 -45 -15 -75t-35 -46h-1q14 -11 23 -29t9 -45q0 -40 -10.5 -66.5t-28 -42.5t-38.5 -23
t-42 -7h-162zM526 85q0 50 17 81t40 47h-1q-21 21 -21 61q0 42 10.5 70t27 45t38 24t44.5 7h65q36 0 61.5 -19t25.5 -67q0 -45 -15.5 -75.5t-35.5 -45.5h-1q15 -11 24 -29t9 -45q0 -40 -10.5 -66.5t-28 -42.5t-38.5 -23t-42 -7h-82q-36 0 -61.5 18.5t-25.5 66.5zM629 281
q0 -20 7.5 -27.5t19.5 -7.5h65q14 0 27 14.5t13 52.5q0 20 -7.5 27.5t-18.5 7.5h-65q-14 0 -27.5 -14.5t-13.5 -52.5zM595 106q0 -19 8.5 -26.5t19.5 -7.5h82q14 0 27.5 14t13.5 52q0 20 -8 28t-19 8h-82q-14 0 -28 -15t-14 -53z" />
    <glyph glyph-name="fiveeighths" unicode="&#x215d;" horiz-adv-x="847" 
d="M603 700h73l-345 -700h-72zM96 352h166q17 0 32 16t15 58q0 22 -8.5 31t-22.5 9h-166l33 234h255l-10 -72h-187l-13 -90h107q38 0 60 -20t22 -71q0 -48 -10 -80t-26.5 -51.5t-37.5 -27.5t-44 -8h-175zM529 85q0 50 17 81t41 47h-1q-22 20 -22 63q0 41 10.5 68.5
t27.5 44.5t38.5 24t43.5 7h65q36 0 61.5 -19t25.5 -67q0 -7 -0.5 -13.5t-1.5 -14.5q-10 -65 -48 -93h-1q14 -11 23 -29t9 -45q0 -40 -10.5 -66.5t-28 -42.5t-38.5 -23t-42 -7h-82q-36 0 -61.5 18.5t-25.5 66.5zM632 282q0 -20 8 -28t19 -8h65q14 0 27 15t13 53
q0 19 -7.5 26.5t-18.5 7.5h-65q-14 0 -27.5 -14.5t-13.5 -51.5zM599 107q0 -20 8 -27.5t19 -7.5h82q14 0 27.5 14.5t13.5 52.5q0 19 -7.5 27t-19.5 8h-82q-14 0 -27.5 -14.5t-13.5 -52.5z" />
    <glyph glyph-name="seveneighths" unicode="&#x215e;" horiz-adv-x="785" 
d="M542 700h73l-345 -700h-73zM308 628h-173l10 72h255l-10 -72l-205 -348h-86zM468 85q0 50 17 81t40 47h-1q-21 21 -21 62t10.5 69t27.5 45t38.5 24t43.5 7h65q36 0 61.5 -19t25.5 -67q0 -45 -15 -75.5t-35 -45.5h-1q14 -11 23 -29t9 -45q0 -40 -10.5 -66.5t-28 -42.5
t-38.5 -23t-42 -7h-82q-36 0 -61.5 18.5t-25.5 66.5zM571 281q0 -20 7.5 -27.5t19.5 -7.5h65q14 0 27 15t13 53q0 19 -7.5 26.5t-18.5 7.5h-65q-14 0 -27.5 -14.5t-13.5 -52.5zM537 106q0 -19 8.5 -26.5t19.5 -7.5h82q14 0 27.5 14.5t13.5 52.5q0 19 -7.5 27t-19.5 8h-82
q-14 0 -28 -15t-14 -53z" />
    <glyph glyph-name="partialdiff" unicode="&#x2202;" horiz-adv-x="780" 
d="M110 680h660v-660h-660v660zM499 140l20 183h41q28 0 42 12.5t17 41.5h-95l14 129h66q29 0 43 12.5t17 41.5h-120q-29 0 -43 -12.5t-17 -41.5l-39 -366h54zM356 140q29 0 43 12.5t17 41.5l19 183h-120l14 129h66l-5 -46h54l11 100h-120q-29 0 -43 -12.5t-17 -41.5
l-19 -183h120l-14 -129h-66l5 46h-54l-11 -100h120z" />
    <glyph glyph-name="product" unicode="&#x220f;" horiz-adv-x="780" 
d="M110 680h660v-660h-660v660zM499 140l20 183h41q28 0 42 12.5t17 41.5h-95l14 129h66q29 0 43 12.5t17 41.5h-120q-29 0 -43 -12.5t-17 -41.5l-39 -366h54zM356 140q29 0 43 12.5t17 41.5l19 183h-120l14 129h66l-5 -46h54l11 100h-120q-29 0 -43 -12.5t-17 -41.5
l-19 -183h120l-14 -129h-66l5 46h-54l-11 -100h120z" />
    <glyph glyph-name="summation" unicode="&#x2211;" horiz-adv-x="780" 
d="M110 680h660v-660h-660v660zM499 140l20 183h41q28 0 42 12.5t17 41.5h-95l14 129h66q29 0 43 12.5t17 41.5h-120q-29 0 -43 -12.5t-17 -41.5l-39 -366h54zM356 140q29 0 43 12.5t17 41.5l19 183h-120l14 129h66l-5 -46h54l11 100h-120q-29 0 -43 -12.5t-17 -41.5
l-19 -183h120l-14 -129h-66l5 46h-54l-11 -100h120z" />
    <glyph glyph-name="minus" unicode="&#x2212;" horiz-adv-x="448" 
d="M96 350h354l-14 -100h-354z" />
    <glyph glyph-name="radical" unicode="&#x221a;" horiz-adv-x="780" 
d="M110 680h660v-660h-660v660zM499 140l20 183h41q28 0 42 12.5t17 41.5h-95l14 129h66q29 0 43 12.5t17 41.5h-120q-29 0 -43 -12.5t-17 -41.5l-39 -366h54zM356 140q29 0 43 12.5t17 41.5l19 183h-120l14 129h66l-5 -46h54l11 100h-120q-29 0 -43 -12.5t-17 -41.5
l-19 -183h120l-14 -129h-66l5 46h-54l-11 -100h120z" />
    <glyph glyph-name="infinity" unicode="&#x221e;" horiz-adv-x="780" 
d="M110 680h660v-660h-660v660zM499 140l20 183h41q28 0 42 12.5t17 41.5h-95l14 129h66q29 0 43 12.5t17 41.5h-120q-29 0 -43 -12.5t-17 -41.5l-39 -366h54zM356 140q29 0 43 12.5t17 41.5l19 183h-120l14 129h66l-5 -46h54l11 100h-120q-29 0 -43 -12.5t-17 -41.5
l-19 -183h120l-14 -129h-66l5 46h-54l-11 -100h120z" />
    <glyph glyph-name="integral" unicode="&#x222b;" horiz-adv-x="780" 
d="M110 680h660v-660h-660v660zM499 140l20 183h41q28 0 42 12.5t17 41.5h-95l14 129h66q29 0 43 12.5t17 41.5h-120q-29 0 -43 -12.5t-17 -41.5l-39 -366h54zM356 140q29 0 43 12.5t17 41.5l19 183h-120l14 129h66l-5 -46h54l11 100h-120q-29 0 -43 -12.5t-17 -41.5
l-19 -183h120l-14 -129h-66l5 46h-54l-11 -100h120z" />
    <glyph glyph-name="approxequal" unicode="&#x2248;" horiz-adv-x="515" 
d="M105 415l28 17q23 14 52 28.5t62 14.5q27 0 45 -8.5t33 -18t30.5 -18t37.5 -8.5q24 0 49 14t50 31h-1l11 9l18 -98q-13 -5 -28.5 -14.5t-33.5 -18.5t-38 -16t-41 -7q-28 0 -46 8.5t-33 19t-30 19t-37 8.5q-9 0 -24 -6.5t-31 -16t-30.5 -20t-23.5 -18.5zM77 215l28 17
q23 14 52 28.5t62 14.5q27 0 45 -8.5t33 -18t30.5 -18t37.5 -8.5q24 0 49 14t50 31h-1l11 9l18 -98q-14 -6 -29.5 -15.5t-33.5 -18.5t-37.5 -15.5t-40.5 -6.5q-28 0 -46 8.5t-33 19t-30 19t-37 8.5q-9 0 -24 -6.5t-31 -16t-30.5 -20t-23.5 -18.5z" />
    <glyph glyph-name="notequal" unicode="&#x2260;" horiz-adv-x="448" 
d="M146 150h-78l14 100h122l58 100h-166l14 100h211l63 110h66l-64 -110h78l-14 -100h-123l-58 -100h167l-14 -100h-211l-64 -110h-66z" />
    <glyph glyph-name="lessequal" unicode="&#x2264;" horiz-adv-x="448" 
d="M117 489l347 214l20 -92l-292 -171l244 -171l-46 -92l-287 214zM61 100h354l-14 -100h-354z" />
    <glyph glyph-name="greaterequal" unicode="&#x2265;" horiz-adv-x="448" 
d="M86 269l292 171l-244 171l45 92l288 -214l-14 -98l-348 -214zM61 100h354l-14 -100h-354z" />
    <glyph glyph-name="lozenge" unicode="&#x25ca;" horiz-adv-x="780" 
d="M110 680h660v-660h-660v660zM499 140l20 183h41q28 0 42 12.5t17 41.5h-95l14 129h66q29 0 43 12.5t17 41.5h-120q-29 0 -43 -12.5t-17 -41.5l-39 -366h54zM356 140q29 0 43 12.5t17 41.5l19 183h-120l14 129h66l-5 -46h54l11 100h-120q-29 0 -43 -12.5t-17 -41.5
l-19 -183h120l-14 -129h-66l5 46h-54l-11 -100h120z" />
    <glyph glyph-name="fi" unicode="&#xfb01;" horiz-adv-x="513" 
d="M166 487h-72l16 113h72l7 50q6 42 20.5 70.5t34.5 46.5t45 25.5t52 7.5h237l-16 -110h-238q-12 0 -21.5 -8t-12.5 -29l-7 -53h101l-16 -113h-101l-68 -487h-101zM448 600h102l-84 -600h-102z" />
    <glyph glyph-name="fl" unicode="&#xfb02;" horiz-adv-x="513" 
d="M166 487h-72l16 113h72l7 50q6 42 20.5 70.5t34.5 46.5t45 25.5t52 7.5h237l-112 -800h-102l96 690h-136q-12 0 -21.5 -8t-12.5 -29l-7 -53h101l-16 -113h-101l-68 -487h-101z" />
    <glyph glyph-name="apple" horiz-adv-x="780" 
d="M110 680h660v-660h-660v660zM499 140l20 183h41q28 0 42 12.5t17 41.5h-95l14 129h66q29 0 43 12.5t17 41.5h-120q-29 0 -43 -12.5t-17 -41.5l-39 -366h54zM356 140q29 0 43 12.5t17 41.5l19 183h-120l14 129h66l-5 -46h54l11 100h-120q-29 0 -43 -12.5t-17 -41.5
l-19 -183h120l-14 -129h-66l5 46h-54l-11 -100h120z" />
    </font>
</defs>
</svg>
