<?xml version="1.0" standalone="no"?>
<!DOCTYPE svg PUBLIC "-//W3C//DTD SVG 1.1//EN" "http://www.w3.org/Graphics/SVG/1.1/DTD/svg11.dtd" >
<svg xmlns="http://www.w3.org/2000/svg" xmlns:xlink="http://www.w3.org/1999/xlink" version="1.1">
<metadata>
Created by FontForge 20170731 at Sun Mar  4 22:53:11 2001
 By Aleksey,,,
(c) 2001 Apostrophic Labs. All rights reserved. Web: www.apostrophiclab.com - Email: apostrophe@home.com
</metadata>
<defs>
<font id="SteinemUnicode" horiz-adv-x="567" >
  <font-face 
    font-family="Steinem Unicode"
    font-weight="400"
    font-stretch="normal"
    units-per-em="1000"
    panose-1="2 4 6 3 5 5 2 2 4 3"
    ascent="800"
    descent="-200"
    x-height="468"
    cap-height="708"
    bbox="-298.267 -241 1373 1007"
    underline-thickness="50"
    underline-position="-175"
    unicode-range="U+0020-FB05"
  />
<missing-glyph horiz-adv-x="500" 
 />
    <glyph glyph-name=".notdef" horiz-adv-x="500" 
 />
    <glyph glyph-name=".null" horiz-adv-x="0" 
 />
    <glyph glyph-name="nonmarkingreturn" horiz-adv-x="500" 
 />
    <glyph glyph-name="space" unicode=" " horiz-adv-x="278" 
 />
    <glyph glyph-name="space" unicode="&#xa0;" horiz-adv-x="278" 
 />
    <glyph glyph-name="exclam" unicode="!" horiz-adv-x="243" 
d="M175 699q0 9 -9 9h-72q-8 0 -8 -9l5 -467q0 -10 8 -10h62q3 0 6 3t3 7zM190 56q0 28 -17.5 48.5t-42.5 20.5t-42.5 -20.5t-17.5 -48.5q0 -29 18.5 -48.5t41.5 -19.5t41.5 19.5t18.5 48.5z" />
    <glyph glyph-name="quotedbl" unicode="&#x22;" horiz-adv-x="442" 
d="M368 701q0 10 -9 10h-93q-10 0 -10 -10l16 -222q0 -8 10 -8h61q9 0 9 8zM204 701q0 10 -9 10h-93q-10 0 -10 -10l16 -222q0 -4 3 -6t6 -2h62q9 0 9 8z" />
    <glyph glyph-name="numbersign" unicode="#" horiz-adv-x="548" 
d="M522 421q10 0 10 10v60q0 10 -10 10h-84l28 196q1 5 -2 8t-7 3h-65q-7 0 -9 -9l-28 -198h-102l28 196q1 5 -2 8t-8 3h-64q-8 0 -10 -9l-28 -198h-95q-10 0 -10 -10v-60q0 -10 10 -10h84l-19 -132h-94q-9 0 -9 -10v-60q0 -10 9 -10h83l-27 -198q-1 -5 2 -8t8 -3h64
q8 0 10 9l26 200h102l-27 -198q-1 -5 2 -8t8 -3h64q8 0 10 9l27 200h96q10 0 10 10v60q0 10 -10 10h-84l18 132h95zM241 421h102l-18 -132h-102z" />
    <glyph glyph-name="dollar" unicode="$" horiz-adv-x="545" 
d="M510 198q0 46 -14.5 79t-39.5 56.5t-59.5 40t-74.5 29.5v229q45 -2 76 -9.5t57 -18.5q8 -4 12 5l20 54q3 9 -5 12q-11 4 -28.5 10t-38.5 11.5t-45 9.5t-48 5v67q0 10 -9 10h-52q-9 0 -9 -10v-68q-85 -12 -135.5 -60t-50.5 -129q0 -44 17 -75.5t43.5 -53.5t59.5 -37
t66 -26v-246q-57 2 -98.5 15.5t-73.5 26.5q-5 2 -9 -0.5t-4 -8.5v-70q0 -7 6 -9q32 -13 77.5 -24t101.5 -13v-71q0 -10 9 -10h52q9 0 9 10v75q88 13 138 63t50 131zM413 196q0 -43 -24.5 -69t-66.5 -37v215q43 -17 67 -41t24 -68zM159 532q0 37 23 63t70 34v-202
q-52 21 -72.5 45.5t-20.5 59.5z" />
    <glyph glyph-name="percent" unicode="%" horiz-adv-x="1116" 
d="M1039 186q0 42 -15.5 78t-42 62.5t-63 42t-78.5 15.5t-78 -15.5t-63 -42t-42.5 -62.5t-15.5 -78t15.5 -78t42.5 -62.5t63 -42t78 -15.5t78.5 15.5t63 42t42 62.5t15.5 78zM495 523q0 42 -15.5 78t-42.5 63t-63 42t-78 15t-78.5 -15t-63 -42t-42 -63t-15.5 -78t15.5 -78
t42 -62.5t63 -41.5t78.5 -15t78 15t63 41.5t42.5 62.5t15.5 78zM878 689q7 9 -2 14l-52 36q-2 2 -6.5 1.5t-6.5 -3.5l-553 -717q-7 -7 1 -13l52 -36q8 -6 14 2zM951 186q0 -24 -9 -45t-24 -36.5t-35 -25t-43 -9.5t-43 9.5t-35 25t-23.5 36.5t-8.5 45t8.5 45t23.5 37t35 25
t43 9t43 -9t35 -25t24 -37t9 -45zM406 523q0 -24 -9 -45t-24 -36.5t-35 -25t-42 -9.5q-23 0 -43 9.5t-35 25t-24 36.5t-9 45t9 45t24 37t35 25t43 9q22 0 42 -9t35 -25t24 -37t9 -45z" />
    <glyph glyph-name="ampersand" unicode="&#x26;" horiz-adv-x="708" 
d="M711 57l-23 33q-4 8 -13 2q-7 -5 -15.5 -10.5t-17.5 -5.5q-8 0 -16 3.5t-19 14.5l-75 78q2 2 3 5t3 5l-1 -1q2 2 2.5 4t2.5 4l78 127h47q10 0 10 10v55q0 9 -10 9h-95q-7 0 -9 -5l-87 -147q-1 0 -3 -4l-143 149q34 18 61.5 36.5t47 40t30 47t10.5 57.5q0 39 -14.5 68
t-39 49t-57.5 30t-69 10q-38 0 -71.5 -11t-59.5 -32t-41 -51.5t-15 -70.5q0 -49 23 -85.5t58 -74.5q-72 -38 -111.5 -88t-39.5 -124q0 -45 18 -81t48 -61.5t68.5 -39.5t79.5 -14q31 0 59 5t55 17.5t53.5 33.5t53.5 53l60 -61q26 -26 43.5 -31t29.5 -5q16 0 31.5 5t28.5 11.5
t23.5 14.5t16.5 14zM265 67q-26 0 -49.5 10t-41 27.5t-28 41t-10.5 50.5q0 44 29.5 77t83.5 65l171 -181q-38 -46 -75.5 -68t-79.5 -22zM392 563q0 -35 -30.5 -65.5t-84.5 -59.5l-5 6q-12 12 -24 25.5t-21.5 27.5t-16 29.5t-6.5 31.5q0 47 27.5 71t68.5 24q40 0 66 -26
t26 -64z" />
    <glyph glyph-name="quotesingle" unicode="'" horiz-adv-x="237" 
d="M177 701q0 10 -9 10h-83q-8 0 -8 -10l14 -222q0 -8 8 -8h55q8 0 8 8z" />
    <glyph glyph-name="parenleft" unicode="(" horiz-adv-x="259" 
d="M258 -116q6 5 2 12q-29 49 -50.5 94t-35.5 91.5t-21 96t-7 108.5q0 106 28.5 203.5t85.5 182.5q6 9 -2 14l-56 41q-7 6 -13 -2q-65 -94 -101.5 -205.5t-36.5 -233.5q0 -115 35.5 -228t102.5 -212q6 -6 12 -1z" />
    <glyph glyph-name="parenright" unicode=")" horiz-adv-x="259" 
d="M227 286q0 114 -36 227.5t-102 211.5q-6 8 -12 2l-57 -40q-7 -3 -3 -12q29 -49 50.5 -94t36 -91t21.5 -96t7 -108q0 -106 -28.5 -204t-86.5 -183q-4 -9 2 -13l57 -41q2 -2 6.5 -1.5t6.5 2.5q64 94 101 205.5t37 234.5z" />
    <glyph glyph-name="asterisk" unicode="*" horiz-adv-x="428" 
d="M410 555q8 3 5 12l-22 68q-3 10 -13 6l-118 -47l7 126q0 10 -9 10h-73q-9 0 -9 -10l6 -126l-117 47q-10 4 -13 -6l-23 -68q-3 -8 6 -12l122 -36l-78 -98q-3 -3 -2 -7t4 -6l57 -44q8 -6 13 3l70 108l74 -109q4 -9 13 -2l57 44q9 6 2 13l-82 98z" />
    <glyph glyph-name="plus" unicode="+" horiz-adv-x="549" 
d="M535 257q10 0 10 10v69q0 10 -10 10h-206v207q0 9 -9 9h-72q-9 0 -9 -9v-207h-206q-10 0 -10 -10v-69q0 -10 10 -10h206v-207q0 -10 9 -10h72q9 0 9 10v207h206z" />
    <glyph glyph-name="comma" unicode="," horiz-adv-x="254" 
d="M207 90l6 -12q-8 -30 -20 -59.5t-26 -56t-28.5 -49t-26.5 -37.5q-4 -4 -10 -2l-49 17q-9 3 -6 13q10 18 20 42t19 50.5t16 54.5t11 54q1 10 12 8z" />
    <glyph glyph-name="hyphen" unicode="-" horiz-adv-x="313" 
d="M279 160q9 0 9 8v60q0 8 -9 8h-226q-10 0 -10 -8v-60q0 -8 10 -8h226z" />
    <glyph glyph-name="hyphen" unicode="&#xad;" horiz-adv-x="313" 
d="M279 160q9 0 9 8v60q0 8 -9 8h-226q-10 0 -10 -8v-60q0 -8 10 -8h226z" />
    <glyph glyph-name="period" unicode="." horiz-adv-x="243" 
d="M190 50q0 24 -17.5 42t-42.5 18t-42.5 -18t-17.5 -42q0 -26 18.5 -43t41.5 -17t41.5 17t18.5 43z" />
    <glyph glyph-name="slash" unicode="/" horiz-adv-x="357" 
d="M372 689l-291 -701q-4 -10 -13 -5l-59 25q-9 5 -5 12l290 701q5 8 12 4l61 -23q10 -4 5 -13z" />
    <glyph glyph-name="zero" unicode="0" horiz-adv-x="547" 
d="M524 354q0 60 -10 125t-37 118.5t-74 88t-120 34.5t-120 -34.5t-74 -88t-37 -118.5t-10 -125t10 -124.5t37 -118.5t74 -88.5t120 -34.5t120 34.5t74 88.5t37 118.5t10 124.5zM422 354q0 -37 -4 -85.5t-18.5 -92t-42 -73.5t-74.5 -30t-75 30t-42 73.5t-18 92t-4 85.5
q0 25 1.5 55.5t6.5 61.5t14.5 61t24.5 53t37.5 37t54.5 14q31 0 54 -14t38 -37t24.5 -53t14.5 -61t6.5 -61.5t1.5 -55.5z" />
    <glyph glyph-name="one" unicode="1" horiz-adv-x="531" 
d="M406 0q9 0 9 10v57q0 10 -9 10h-74v621q0 5 -4 8.5t-9 1.5l-168 -49q-7 -2 -7 -9v-60q0 -5 3.5 -8t8.5 -1l81 23v-527h-75q-9 0 -9 -10v-57q0 -10 9 -10h244z" />
    <glyph glyph-name="two" unicode="2" horiz-adv-x="547" 
d="M489 135l-47 7q-8 2 -10 -8q-6 -26 -20 -37t-39 -11q-14 0 -27 2.5t-27 4.5q-17 4 -37 7.5t-49 3.5q-25 0 -61 -11l135 135q35 35 66 70.5t54 72t36.5 74.5t13.5 77q0 50 -16 87.5t-44.5 62t-67.5 36.5t-84 12q-36 0 -68.5 -9t-59 -22t-45.5 -27.5t-29 -24.5
q-7 -4 -1 -12l32 -44q7 -8 14 -1q9 8 23 17.5t32.5 18t40 14t45.5 5.5q66 0 96 -32t30 -83q0 -23 -6 -47t-21 -52.5t-40.5 -61.5t-63.5 -73l-213 -219q-3 -3 -3 -7v-54q0 -5 3.5 -8t7.5 -2t7.5 1.5t8.5 1.5q35 5 67.5 9t71.5 4q22 0 44 -3.5t45 -7.5q20 -4 39 -6.5t37 -2.5
q28 0 53 8.5t44 25t30.5 42t11.5 58.5z" />
    <glyph glyph-name="three" unicode="3" horiz-adv-x="545" 
d="M481 202q0 59 -30 105.5t-86 66.5q45 23 70.5 65t25.5 96q0 45 -16.5 79.5t-45.5 58t-67.5 35.5t-83.5 12q-32 0 -62 -7t-55.5 -17.5t-46 -22.5t-35.5 -22q-7 -5 -2 -12l30 -49q4 -8 11 -4q2 1 2.5 1.5t2.5 1.5q10 6 25 14.5t33.5 16t40.5 12.5t47 5q64 0 93.5 -31
t29.5 -79q0 -36 -13 -58t-32.5 -33.5t-43.5 -15.5t-46 -4h-24q-10 0 -10 -10v-68q0 -10 10 -10h24q28 0 55 -6.5t49 -21t35.5 -38.5t13.5 -60q0 -60 -38.5 -95t-97.5 -35q-34 0 -60 4.5t-48 12t-41 17.5t-39 22q-5 3 -9.5 0.5t-4.5 -8.5v-75q0 -7 6 -9q44 -22 90 -35
t106 -13q45 0 87.5 13.5t75.5 40t53.5 66.5t20.5 94z" />
    <glyph glyph-name="four" unicode="4" horiz-adv-x="547" 
d="M509 166q10 0 10 10v58q0 10 -10 10h-73v454q0 10 -10 10h-114q-6 0 -8 -5l-271 -443v-84q0 -10 9 -10h302v-92h-58q-9 0 -9 -10v-54q0 -10 9 -10h211q9 0 9 10v54q0 10 -9 10h-61v92h73zM117 244l227 375v-375h-227z" />
    <glyph glyph-name="five" unicode="5" horiz-adv-x="545" 
d="M489 227q0 108 -60.5 169.5t-166.5 61.5q-28 0 -48 -2.5t-41 -7.5l9 173h269q10 0 10 9v69q0 9 -10 9h-341q-4 0 -7 -3t-3 -6l-16 -355q0 -5 4.5 -8t9.5 0q38 20 77 29.5t71 9.5q65 0 103.5 -36.5t38.5 -111.5q0 -68 -35.5 -110.5t-108.5 -42.5q-51 0 -88.5 13.5
t-80.5 39.5q-5 3 -10 0t-5 -8v-75q0 -7 5 -9q24 -13 70 -30t117 -17q50 0 93 17t75 48.5t50.5 75.5t18.5 98z" />
    <glyph glyph-name="six" unicode="6" horiz-adv-x="547" 
d="M528 227q0 54 -16 96.5t-45.5 72t-70 45.5t-89.5 16q-42 0 -81.5 -16.5t-71.5 -55.5q3 72 17.5 120.5t38 78.5t52.5 42.5t61 12.5q45 0 72.5 -10t43.5 -18l4.5 -2t6.5 -3q10 -4 12 5l24 54q4 10 -3 12q-9 6 -25 13t-36.5 14t-46 11.5t-53.5 4.5q-34 0 -64 -8.5t-55 -22
t-44 -31t-31 -35.5q-17 -23 -30.5 -49t-23 -58t-15 -71.5t-5.5 -88.5q0 -48 3.5 -84.5t8.5 -64.5t12 -48t14 -36q31 -69 83 -102t126 -33q47 0 88.5 17t72 48.5t48.5 75.5t18 98zM428 221q0 -32 -10 -59.5t-27 -47.5t-41.5 -32t-52.5 -12t-52 10.5t-41 30.5t-27 47.5
t-10 62.5q0 72 36.5 112.5t93.5 40.5t94 -41t37 -112z" />
    <glyph glyph-name="seven" unicode="7" horiz-adv-x="546" 
d="M502 644v54q0 10 -10 10h-428q-9 0 -9 -10v-67q0 -10 9 -10h335l-269 -607q-2 -5 0.5 -9.5t8.5 -4.5h78q7 0 9 6z" />
    <glyph glyph-name="eight" unicode="8" horiz-adv-x="546" 
d="M508 200q0 61 -31 109.5t-84 69.5q43 21 67 63t24 89q0 42 -15.5 77t-42.5 60t-64 38.5t-80 13.5t-79.5 -13.5t-63.5 -38.5t-42.5 -60t-15.5 -77q0 -47 24 -89t67 -63q-54 -21 -85 -69.5t-31 -109.5q0 -50 17.5 -89t48 -66.5t72 -42t88.5 -14.5q48 0 89 14.5t71.5 42
t48 66.5t17.5 89zM411 201q0 -28 -10 -52.5t-27 -42.5t-40.5 -28.5t-51.5 -10.5q-27 0 -50.5 10.5t-41 28.5t-27 42.5t-9.5 52.5t10 52.5t27 42.5t40.5 28.5t50.5 10.5t51 -10.5t41 -28.5t27 -42.5t10 -52.5zM392 533q0 -24 -8.5 -44.5t-23 -35.5t-34.5 -23.5t-44 -8.5
q-23 0 -43 8.5t-34.5 23.5t-23 35.5t-8.5 44.5q0 51 31.5 81.5t77.5 30.5q47 0 78.5 -30.5t31.5 -81.5z" />
    <glyph glyph-name="nine" unicode="9" horiz-adv-x="547" 
d="M510 360q0 80 -11.5 136.5t-27.5 91.5q-32 68 -84.5 100t-124.5 32q-48 0 -89.5 -17t-72 -48t-48 -74.5t-17.5 -95.5q0 -51 16 -92t45 -70.5t69 -45.5t89 -16q42 0 83.5 13.5t71.5 50.5q-3 -68 -17.5 -116t-37.5 -78.5t-54 -44.5t-65 -14q-42 0 -75.5 9.5t-63.5 23.5
q-5 2 -9 -0.5t-4 -8.5v-69q0 -7 5 -9q18 -7 35 -12.5t35.5 -9.5t40 -6t47.5 -2q62 0 114 26.5t81 70.5q32 48 50.5 114.5t18.5 160.5zM398 492q0 -72 -37.5 -109.5t-95.5 -37.5q-29 0 -53 11t-42 31t-28 46.5t-10 58.5q0 31 8.5 58t25.5 46.5t42 31t57 11.5q30 0 54.5 -12
t42 -32.5t27 -47t9.5 -55.5z" />
    <glyph glyph-name="colon" unicode=":" horiz-adv-x="243" 
d="M190 56q0 27 -17.5 47t-42.5 20t-42.5 -20t-17.5 -47q0 -29 18.5 -48.5t41.5 -19.5t41.5 19.5t18.5 48.5zM190 401q0 28 -17.5 47.5t-42.5 19.5t-42.5 -19.5t-17.5 -47.5t18.5 -47.5t41.5 -19.5t41.5 19.5t18.5 47.5z" />
    <glyph glyph-name="semicolon" unicode=";" horiz-adv-x="254" 
d="M207 94l-82 24q-4 2 -7.5 -0.5t-4.5 -7.5q-4 -27 -11 -56.5t-16 -57t-19 -53t-20 -44.5q-4 -10 6 -13l49 -19q2 -1 5 0t5 3q12 16 26.5 39.5t28.5 51.5t26 58.5t20 61.5zM205 405q0 27 -18.5 47t-44.5 20t-44.5 -20t-18.5 -47q0 -29 19.5 -48.5t43.5 -19.5t43.5 19.5
t19.5 48.5z" />
    <glyph glyph-name="semicolon" unicode="&#x37e;" horiz-adv-x="254" 
d="M207 94l-82 24q-4 2 -7.5 -0.5t-4.5 -7.5q-4 -27 -11 -56.5t-16 -57t-19 -53t-20 -44.5q-4 -10 6 -13l49 -19q2 -1 5 0t5 3q12 16 26.5 39.5t28.5 51.5t26 58.5t20 61.5zM205 405q0 27 -18.5 47t-44.5 20t-44.5 -20t-18.5 -47q0 -29 19.5 -48.5t43.5 -19.5t43.5 19.5
t19.5 48.5z" />
    <glyph glyph-name="less" unicode="&#x3c;" horiz-adv-x="549" 
d="M532 41l-503 221q-6 1 -6 9v61q0 7 6 9l503 220q5 2 9 0t4 -8v-71q0 -8 -6 -9l-395 -172l395 -171q6 -2 6 -9v-71q0 -6 -4 -8.5t-9 -0.5z" />
    <glyph glyph-name="equal" unicode="=" horiz-adv-x="549" 
d="M535 171q10 0 10 10v66q0 9 -10 9h-502q-10 0 -10 -9v-66q0 -10 10 -10h502zM535 321q10 0 10 9v66q0 9 -10 9h-502q-10 0 -10 -9v-66q0 -9 10 -9h502z" />
    <glyph glyph-name="greater" unicode="&#x3e;" horiz-adv-x="549" 
d="M539 262l-502 -221q-5 -2 -9.5 0.5t-4.5 8.5v71q0 7 6 9l394 171l-394 172q-6 1 -6 9v71q0 6 4.5 8t9.5 0l502 -220q6 -2 6 -9v-61q0 -8 -6 -9z" />
    <glyph glyph-name="question" unicode="?" horiz-adv-x="465" 
d="M433 551q0 43 -14.5 76t-41 55t-63.5 33t-81 11q-37 0 -68 -9t-56 -22.5t-43.5 -29.5t-30.5 -30q-5 -7 0 -14l37 -42q7 -7 14 0q9 9 22 20.5t30.5 21.5t39 17t46.5 7q57 0 84.5 -27t27.5 -73q0 -20 -7 -37.5t-17.5 -33.5t-24.5 -31t-27 -29l-9 -9q-19 -20 -31.5 -36.5
t-20 -34t-10.5 -37.5t-3 -48v-46q0 -10 9 -10h75q9 0 9 10v40q0 21 3 37t9 28t14.5 22t19.5 21q22 22 41.5 43t34.5 45t23.5 51t8.5 61zM299 56q0 28 -19.5 48.5t-47.5 20.5t-47 -20.5t-19 -48.5q0 -29 20 -48.5t46 -19.5t46.5 19.5t20.5 48.5z" />
    <glyph glyph-name="at" unicode="@" horiz-adv-x="784" 
d="M756 419q0 67 -27 123.5t-73 97.5t-107 63.5t-130 22.5q-77 0 -145 -29t-118.5 -81.5t-80 -126t-29.5 -161.5q0 -62 18.5 -118.5t56.5 -102.5q45 -56 116 -90.5t171 -34.5q54 0 101 11.5t85.5 27.5t67 33.5t45.5 30.5q8 6 2 13l-28 41q-5 7 -13 2q-17 -11 -41 -25.5
t-56 -28t-73 -23t-91 -9.5q-72 0 -127.5 26t-90.5 70q-60 75 -60 181q0 69 22.5 128t61.5 102t92 67.5t114 24.5q49 0 95.5 -17t82.5 -48t57.5 -75.5t21.5 -99.5q0 -42 -11 -77.5t-28.5 -61.5t-40.5 -40.5t-47 -14.5q-14 0 -14 12v6t1 5l79 289q3 12 -10 12h-63q-8 0 -10 -6
l-7 -25q-30 50 -103 50q-48 0 -90.5 -21.5t-75 -58.5t-51.5 -87t-19 -108q0 -35 11 -62.5t30 -46.5t45.5 -29t56.5 -10q33 0 64 12.5t60 39.5q5 -28 27 -40t50 -12q37 0 77 17.5t73 53t54.5 87.5t21.5 121zM482 348q-8 -28 -20 -52.5t-29 -42.5t-39 -28.5t-48 -10.5
q-33 0 -51 21t-18 56q0 40 12 76.5t32 64t45.5 44t53.5 16.5q38 0 55 -21.5t17 -57.5q0 -29 -10 -65z" />
    <glyph glyph-name="A" unicode="A" horiz-adv-x="661" 
d="M651 0q10 0 10 10v57q0 10 -10 10h-51l-213 624q-2 7 -9 7h-82q-7 0 -9 -7l-228 -624h-49q-9 0 -9 -10v-57q0 -10 9 -10h109q7 0 9 7l82 233h231l77 -233q2 -7 10 -7h123zM331 579l82 -255h-174z" />
    <glyph glyph-name="B" unicode="B" horiz-adv-x="625" 
d="M591 201q0 32 -10 60t-28 50.5t-42.5 38.5t-53.5 24q47 22 73.5 61t26.5 95q0 49 -20.5 83t-53.5 55t-75.5 30.5t-87.5 9.5h-266q-10 0 -10 -10v-57q0 -10 10 -10h48v-554h-48q-10 0 -10 -10v-57q0 -10 10 -10h261q50 0 99.5 9t88.5 32t63.5 62t24.5 98zM481 204
q0 -30 -11.5 -53t-31.5 -38.5t-47.5 -23.5t-59.5 -8h-131v247h133q29 0 56 -6.5t47.5 -21t32.5 -38.5t12 -58zM452 519q0 -33 -13 -54.5t-33.5 -34t-46.5 -17t-53 -4.5h-106v218h114q60 0 99 -24.5t39 -83.5z" />
    <glyph glyph-name="C" unicode="C" horiz-adv-x="608" 
d="M582 672q4 9 -5 13q-37 15 -84 28t-112 13q-74 0 -136 -27t-106.5 -76t-69 -117.5t-24.5 -151.5q0 -84 24 -152.5t68 -117.5t105.5 -75.5t136.5 -26.5q67 0 115.5 13.5t80.5 30.5q5 2 5 9v73q0 6 -4.5 9t-9.5 0q-33 -18 -74 -32t-102 -14q-53 0 -96.5 21t-75 58.5
t-49 89.5t-17.5 114q0 61 16 113t46 90.5t73.5 60.5t98.5 22q52 0 90.5 -11t68.5 -23q9 -4 13 5z" />
    <glyph glyph-name="D" unicode="D" horiz-adv-x="673" 
d="M641 354q0 75 -22.5 139.5t-68.5 112.5t-115.5 75t-163.5 27h-215q-10 0 -10 -10v-57q0 -10 10 -10h48v-554h-48q-10 0 -10 -10v-57q0 -10 10 -10h215q94 0 163.5 27t115.5 74.5t68.5 112.5t22.5 140zM535 354q0 -60 -18.5 -110.5t-50.5 -86.5t-76.5 -56t-95.5 -20h-91
v546h79q56 0 102.5 -20t80 -56.5t52 -86.5t18.5 -110z" />
    <glyph glyph-name="E" unicode="E" horiz-adv-x="546" 
d="M535 0q9 0 9 10l1 61q0 10 -9 10h-334v249h273q10 0 10 9v63q0 9 -10 9h-273v216h300q9 0 9 10v61q0 10 -9 10h-446q-10 0 -10 -10v-57q0 -10 10 -10h48v-554h-48q-10 0 -10 -10v-57q0 -10 10 -10h479z" />
    <glyph glyph-name="F" unicode="F" horiz-adv-x="509" 
d="M501 627q10 0 10 10v61q0 10 -10 10h-452q-10 0 -10 -10v-57q0 -10 10 -10h48v-554h-48q-10 0 -10 -10v-57q0 -10 10 -10h203q10 0 10 10v57q0 10 -10 10h-58v259h241q10 0 10 9v62q0 10 -10 10h-241v210h307z" />
    <glyph glyph-name="G" unicode="G" horiz-adv-x="650" 
d="M612 46v321q0 10 -9 10h-142q-10 0 -10 -10v-58q0 -10 10 -10h54v-210q-29 -9 -57 -14t-62 -5q-54 0 -98.5 21t-75.5 59t-48 90t-17 114q0 61 16 113t45.5 90.5t72.5 60.5t97 22q58 0 96 -13.5t65 -27.5q4 -2 8 -0.5t6 5.5l26 61q4 9 -4 13q-34 19 -83.5 33.5
t-122.5 14.5q-72 0 -132.5 -27t-104 -76t-67.5 -117.5t-24 -151.5q0 -84 24 -152.5t67.5 -117t105 -75.5t136.5 -27q65 0 120 14.5t103 40.5z" />
    <glyph glyph-name="H" unicode="H" horiz-adv-x="726" 
d="M680 0q10 0 10 10v57q0 10 -10 10h-49v554h49q10 0 10 10v57q0 10 -10 10h-138q-10 0 -10 -10v-289h-337v289q0 10 -10 10h-138q-9 0 -9 -10v-57q0 -10 9 -10h49v-554h-49q-9 0 -9 -10v-57q0 -10 9 -10h138q10 0 10 10v318h337v-318q0 -10 10 -10h138z" />
    <glyph glyph-name="I" unicode="I" horiz-adv-x="273" 
d="M232 0q9 0 9 10v57q0 10 -9 10h-47v554h47q9 0 9 10v57q0 10 -9 10h-186q-9 0 -9 -10v-57q0 -10 9 -10h46v-554h-46q-9 0 -9 -10v-57q0 -10 9 -10h186z" />
    <glyph glyph-name="J" unicode="J" horiz-adv-x="350" 
d="M317 632q10 0 10 9v58q0 9 -10 9h-196q-9 0 -9 -9v-58q0 -9 9 -9h53v-474q0 -42 -14 -67t-55 -25q-28 0 -50.5 7t-40.5 16q-13 4 -13 -9v-66q0 -7 5 -9q25 -11 51.5 -17t64.5 -6q72 0 109.5 43.5t37.5 112.5v494h48z" />
    <glyph glyph-name="K" unicode="K" horiz-adv-x="662" 
d="M653 0q9 0 9 10v57q0 10 -9 10h-63l-225 373l167 181h88q10 0 10 10v57q0 10 -10 10h-129q-4 0 -7 -3l-284 -312v305q0 10 -9 10h-138q-10 0 -10 -10v-57q0 -10 10 -10h49v-554h-49q-10 0 -10 -10v-57q0 -10 10 -10h138q9 0 9 10v260l95 104l220 -369q2 -5 9 -5h129z" />
    <glyph glyph-name="L" unicode="L" horiz-adv-x="542" 
d="M533 0q9 0 9 10v61q0 10 -9 10h-333v550h58q9 0 9 10v57q0 10 -9 10h-204q-10 0 -10 -10v-57q0 -10 10 -10h48v-554h-48q-10 0 -10 -10v-57q0 -10 10 -10h479z" />
    <glyph glyph-name="M" unicode="M" horiz-adv-x="919" 
d="M875 0q10 0 10 10v57q0 10 -10 10h-49v554h49q10 0 10 10v57q0 10 -10 10h-184q-2 0 -4.5 -2t-3.5 -4l-220 -534l-224 534q-2 6 -9 6h-180q-10 0 -10 -10v-57q0 -10 10 -10h49v-554h-49q-10 0 -10 -10v-57q0 -10 10 -10h129q9 0 9 10v566l239 -570q2 -6 9 -6h47q7 0 9 6
l236 569v-565q0 -10 9 -10h138z" />
    <glyph glyph-name="N" unicode="N" horiz-adv-x="764" 
d="M732 631q10 0 10 10v57q0 10 -10 10h-132q-10 0 -10 -10v-552l-369 558q-1 2 -3.5 3t-4.5 1h-157q-9 0 -9 -10v-57q0 -10 9 -10h49v-554h-49q-9 0 -9 -10v-57q0 -10 9 -10h133q9 0 9 10v553l370 -559q2 -4 7 -4h99q9 0 9 10v621h49z" />
    <glyph glyph-name="O" unicode="O" horiz-adv-x="754" 
d="M714 354q0 81 -21.5 149t-63.5 117.5t-105 77.5t-145 28t-144.5 -28t-105 -77.5t-64 -117.5t-21.5 -149q0 -80 21.5 -148.5t64 -118t105 -77.5t144.5 -28t145 28t105 77.5t63.5 118t21.5 148.5zM607 354q0 -58 -13 -110t-40.5 -91.5t-71 -63t-103.5 -23.5t-103 23.5
t-70.5 63t-40.5 91.5t-13 110t13 110.5t40.5 92t70.5 63t103 23.5t103.5 -23.5t71 -63t40.5 -92t13 -110.5z" />
    <glyph glyph-name="P" unicode="P" 
d="M549 499q0 99 -62 154t-172 55h-264q-10 0 -10 -10v-57q0 -10 10 -10h48v-554h-48q-10 0 -10 -10v-57q0 -10 10 -10h201q10 0 10 10v57q0 10 -10 10h-56v217h119q110 0 172 52.5t62 152.5zM448 499q0 -63 -33.5 -93.5t-95.5 -30.5h-123v252h123q62 0 95.5 -33t33.5 -95z
" />
    <glyph glyph-name="Q" unicode="Q" horiz-adv-x="755" 
d="M757 -69l-33 27q-3 3 -7.5 2t-6.5 -4q-13 -17 -30 -27.5t-39 -10.5q-15 0 -33 6l-131 48q-12 5 -22.5 8t-20.5 6q71 8 125 38.5t90.5 79.5t55 113t18.5 139q0 81 -21.5 149.5t-64 118.5t-105.5 78t-145 28q-83 0 -145.5 -28t-104.5 -78t-63.5 -118.5t-21.5 -149.5
q0 -72 17 -134.5t51 -110.5t83.5 -79.5t115.5 -42.5q-32 -11 -56.5 -35t-38.5 -50q-4 -7 4 -13l34 -22q7 -5 12 2q18 22 36 34t49 12q17 0 41 -7q9 -3 20 -6.5t26 -9.5q5 -2 9.5 -4t9.5 -3l-1 1l110 -43q11 -4 23.5 -6.5t26.5 -2.5q32 0 68 17t67 65zM614 355
q0 -58 -13 -110.5t-40.5 -92t-70.5 -63t-103 -23.5t-103 23.5t-70.5 63t-40.5 92t-13 110.5t13 111t40.5 93t70.5 63.5t103 23.5t103 -23.5t70.5 -63.5t40.5 -93t13 -111z" />
    <glyph glyph-name="R" unicode="R" horiz-adv-x="604" 
d="M594 0q9 0 9 10v57q0 10 -9 10h-42q-27 0 -41 32q-8 15 -11.5 32.5t-8.5 35.5q-5 20 -11 40.5t-15 40.5t-22.5 37.5t-32.5 31.5q27 8 45.5 19t35.5 28q26 26 39 58.5t13 76.5q0 94 -61 146.5t-171 52.5h-264q-10 0 -10 -10v-57q0 -10 10 -10h48v-554h-48q-10 0 -10 -10
v-57q0 -10 10 -10h195q10 0 10 10v57q0 10 -10 10h-49v236h108q24 -14 40 -34t27 -43.5t17.5 -49t12.5 -50.5q6 -28 13 -52.5t17.5 -43t26.5 -29.5t41 -11h98zM438 509q0 -114 -121 -114h-124v232h124q60 0 90.5 -31t30.5 -87z" />
    <glyph glyph-name="S" unicode="S" horiz-adv-x="499" 
d="M479 189q0 50 -15.5 85.5t-43.5 60.5t-67 43t-85 34q-40 13 -67 26t-43.5 28t-24 32.5t-7.5 40.5q0 49 38.5 77t100.5 28q54 0 91.5 -10.5t62.5 -20.5q9 -4 13 4l22 60q4 10 -5 12q-12 6 -33 12.5t-45.5 12t-52 9t-52.5 3.5q-54 0 -97.5 -13t-74 -38t-47.5 -62t-17 -84
q0 -50 18.5 -84t48.5 -58t68 -40t77 -29q29 -10 54 -21.5t43 -26.5t28.5 -35.5t10.5 -48.5q0 -60 -40.5 -88.5t-111.5 -28.5q-58 0 -102.5 14.5t-76.5 28.5q-5 2 -9 -0.5t-4 -8.5v-73q0 -7 5 -9q35 -14 83.5 -26.5t108.5 -12.5q56 0 102 13.5t78.5 39.5t50 64.5t17.5 89.5z
" />
    <glyph glyph-name="T" unicode="T" horiz-adv-x="536" 
d="M527 627q10 0 10 10v61q0 10 -10 10h-515q-9 0 -9 -10v-61q0 -10 9 -10h208v-550h-48q-9 0 -9 -10v-57q0 -10 9 -10h195q10 0 10 10v57q0 10 -10 10h-48v550h208z" />
    <glyph glyph-name="U" unicode="U" horiz-adv-x="717" 
d="M676 632q10 0 10 9v58q0 10 -10 10h-134q-10 0 -10 -10v-446q0 -100 -41 -143.5t-127 -43.5q-90 0 -130.5 43.5t-40.5 143.5v446q0 10 -10 10h-141q-9 0 -9 -10v-58q0 -9 9 -9h49v-395q0 -60 15.5 -107t48.5 -80t84.5 -50.5t123.5 -17.5q70 0 120 17.5t82.5 50.5t47.5 80
t15 107v395h48z" />
    <glyph glyph-name="V" unicode="V" horiz-adv-x="662" 
d="M651 631q10 0 10 10v57q0 10 -10 10h-113q-6 0 -8 -7l-194 -560l-192 560q-2 7 -8 7h-126q-9 0 -9 -10v-57q0 -10 9 -10h52l218 -624q2 -7 9 -7h82q7 0 9 7l219 624h52z" />
    <glyph glyph-name="W" unicode="W" horiz-adv-x="999" 
d="M988 631q10 0 10 10v57q0 10 -10 10h-118q-7 0 -9 -7l-155 -547l-153 547q-2 7 -10 7h-88q-8 0 -10 -7l-155 -549l-153 549q-2 7 -10 7h-116q-10 0 -10 -10v-57q0 -10 10 -10h43l175 -624q2 -7 10 -7h89q8 0 10 7l154 534l154 -534q2 -7 10 -7h89q8 0 10 7l186 624h47z
" />
    <glyph glyph-name="X" unicode="X" horiz-adv-x="644" 
d="M633 0q10 0 10 10v57q0 10 -10 10h-61l-198 297l171 257h67q9 0 9 10v57q0 10 -9 10h-111q-2 0 -4.5 -1t-3.5 -3l-169 -254l-170 254q-1 2 -3.5 3t-4.5 1h-120q-10 0 -10 -10v-57q0 -10 10 -10h60l180 -269l-190 -285h-66q-9 0 -9 -10v-57q0 -10 9 -10h110q2 0 4.5 1
t3.5 3l188 282l188 -282q1 -2 3.5 -3t4.5 -1h121z" />
    <glyph glyph-name="Y" unicode="Y" horiz-adv-x="585" 
d="M575 631q10 0 10 10v57q0 10 -10 10h-93q-7 0 -9 -5l-170 -297l-185 297q-3 5 -8 5h-101q-9 0 -9 -10v-57q0 -10 9 -10h43l199 -318v-236h-48q-10 0 -10 -10v-57q0 -10 10 -10h195q10 0 10 10v57q0 10 -10 10h-48v239l180 315h45z" />
    <glyph glyph-name="Z" unicode="Z" horiz-adv-x="541" 
d="M531 0q10 0 10 10v63q0 10 -10 10h-392l397 544v71q0 10 -10 10h-486q-9 0 -9 -10v-63q0 -10 9 -10h380l-395 -541v-74q0 -10 9 -10h497z" />
    <glyph glyph-name="bracketleft" unicode="[" horiz-adv-x="236" 
d="M217 -140q9 0 9 10v61q0 9 -9 9h-74v691h74q9 0 9 10v61q0 9 -9 9h-147q-9 0 -9 -9v-832q0 -10 9 -10h147z" />
    <glyph glyph-name="backslash" unicode="\" horiz-adv-x="357" 
d="M367 8l-60 -25q-7 -4 -12 5l-291 701q-5 9 5 13l60 23q8 5 13 -4l290 -701q4 -7 -5 -12z" />
    <glyph glyph-name="bracketright" unicode="]" horiz-adv-x="236" 
d="M185 -140q9 0 9 10v832q0 9 -9 9h-148q-8 0 -8 -9v-61q0 -10 8 -10h74v-691h-74q-8 0 -8 -9v-61q0 -10 8 -10h148z" />
    <glyph glyph-name="asciicircum" unicode="^" horiz-adv-x="646" 
d="M580 280q4 2 5.5 6t-0.5 8l-215 398q-2 5 -8 5h-58q-7 0 -9 -5l-212 -398q-2 -4 -0.5 -8t5.5 -6l58 -26q10 -4 13 3l172 323l174 -324q2 -4 5.5 -5t6.5 1z" />
    <glyph glyph-name="underscore" unicode="_" horiz-adv-x="500" 
d="M490 -121q10 0 10 8v56q0 8 -10 8h-480q-10 0 -10 -8v-56q0 -8 10 -8h480z" />
    <glyph glyph-name="grave" unicode="`" horiz-adv-x="480" 
d="M353 489q6 0 8 5t-1 10l-130 173q-1 2 -3.5 3t-4.5 1h-75q-6 0 -9 -4.5t2 -9.5l140 -174q1 -2 3.5 -3t3.5 -1h66z" />
    <glyph glyph-name="a" unicode="a" horiz-adv-x="518" 
d="M516 50l-21 35q-5 7 -14 2q-6 -3 -15.5 -8t-17.5 -5t-11.5 5t-3.5 22v199q0 85 -45.5 132.5t-145.5 47.5q-42 0 -80 -9t-68 -26q-8 -4 -4 -13l20 -49q2 -4 6 -5t7 1q28 14 54.5 19.5t52.5 5.5q54 0 81.5 -24t27.5 -69v-30q-20 17 -53 29.5t-74 12.5q-43 0 -77 -12.5
t-57.5 -35t-36 -53t-12.5 -66.5q0 -78 46 -123t131 -45q51 0 86 18t53 39q7 -22 24 -33.5t49 -11.5q25 0 50 10t45 27zM340 158q0 -44 -33.5 -70t-81.5 -26q-51 0 -76 26t-25 68q0 41 24 67.5t74 26.5q58 0 88 -27t30 -65z" />
    <glyph glyph-name="b" unicode="b" horiz-adv-x="570" 
d="M541 238q0 54 -14 99.5t-41.5 79t-69.5 52t-98 18.5q-43 0 -82.5 -16t-66.5 -46l-1 257q0 34 -18.5 60t-62.5 26q-23 0 -48 -10t-47 -27q-3 -2 -4 -6t1 -6l21 -35q6 -8 14 -2q7 5 15.5 8.5t17.5 3.5t13 -6t4 -22v-656q0 -10 10 -10h75q10 0 10 10v47q23 -29 62.5 -49
t93.5 -20q51 0 91.5 19t68 52.5t42 79.5t14.5 99zM441 238q0 -34 -7 -64.5t-22 -54t-39 -37t-58 -13.5q-35 0 -62 13.5t-45.5 37t-28.5 54t-10 64.5t10 65t28.5 54t45.5 37t62 14q34 0 58 -14t39 -37t22 -54t7 -65z" />
    <glyph glyph-name="c" unicode="c" horiz-adv-x="437" 
d="M423 434q2 10 -5 13q-23 9 -59.5 21t-84.5 12q-53 0 -97 -18.5t-75.5 -51t-48.5 -77.5t-17 -99t16 -99t46 -78t74 -51t101 -18q44 0 82.5 11t60.5 21q6 2 6 9v63q0 6 -5 9t-10 0q-37 -20 -68 -27.5t-61 -7.5q-35 0 -62 12.5t-45.5 35t-28 53.5t-9.5 67q0 33 8.5 63
t25.5 53t44 36.5t64 13.5q40 0 68.5 -8.5t44.5 -15.5q9 -4 13 5z" />
    <glyph glyph-name="d" unicode="d" horiz-adv-x="583" 
d="M593 51l-21 35q-6 9 -14 3q-6 -4 -15.5 -9t-17.5 -5t-12 5t-4 22v580q0 34 -18.5 60t-62.5 26q-23 0 -48 -10t-47 -27q-3 -2 -4 -6t1 -6l20 -35q2 -3 6.5 -4t8.5 2q6 5 15 8.5t17 3.5q9 0 13.5 -6t4.5 -22v-241q-26 30 -64 46t-90 16q-50 0 -89 -19t-67 -52.5t-42.5 -79
t-14.5 -98.5q0 -54 14 -100t41.5 -79t68.5 -52t95 -19q42 0 83 16.5t69 48.5q6 -25 24 -39t52 -14q25 0 49.5 10.5t45.5 27.5zM415 238q0 -34 -9.5 -65t-28 -54t-45 -37t-59.5 -14t-56.5 14t-38.5 37t-22 54t-7 65t7.5 65t22.5 54t39 37t57 14t59 -14t44 -37t27.5 -54
t9.5 -65z" />
    <glyph glyph-name="e" unicode="e" horiz-adv-x="500" 
d="M466 198q10 0 10 10v32q0 117 -53 178.5t-153 61.5q-51 0 -92.5 -18t-70 -50.5t-44 -77.5t-15.5 -100q0 -51 14.5 -96t43 -78t72 -52.5t101.5 -19.5q62 0 97 10t60 22q5 2 5 9v62q0 6 -4.5 9t-9.5 0q-24 -13 -58 -23.5t-80 -10.5q-35 0 -60.5 12t-42.5 31t-26.5 42.5
t-12.5 46.5h319zM267 406q55 0 81 -35.5t29 -98.5h-229q8 63 36.5 98.5t82.5 35.5z" />
    <glyph glyph-name="f" unicode="f" horiz-adv-x="296" 
d="M341 727q1 3 0 7t-4 6q-25 15 -46.5 21.5t-48.5 6.5q-42 0 -70.5 -15t-46.5 -38.5t-25.5 -53t-7.5 -58.5v-127h-75q-9 0 -9 -10v-54q0 -9 9 -9h75v-393q0 -10 9 -10h74q9 0 9 10v393h98q10 0 10 9v54q0 10 -10 10h-98v100q0 22 2.5 42.5t9 36t19.5 24.5t34 9
q15 0 31.5 -5.5t27.5 -10.5q3 -2 7 -1t6 5z" />
    <glyph glyph-name="g" unicode="g" 
d="M512 25v440q0 10 -10 10h-74q-10 0 -10 -10v-41q-54 62 -154 62q-51 0 -91.5 -19t-68 -52.5t-42 -79t-14.5 -98.5q0 -54 14 -99.5t41.5 -79t69 -52t96.5 -18.5q41 0 81 15.5t68 45.5v-30q0 -32 -6 -62.5t-22.5 -55.5t-46 -40t-75.5 -15q-51 0 -87 10t-59 21
q-5 2 -9.5 -0.5t-4.5 -7.5v-65q0 -6 6 -8q29 -12 67.5 -21t91.5 -9q61 0 106 18.5t74.5 52.5t44 82t14.5 106zM418 237q0 -34 -10 -64.5t-28.5 -54t-45.5 -37t-61 -13.5t-57.5 13.5t-38.5 37t-22 54t-7 64.5t7 65t22 54t38.5 37t57.5 14t61 -14t45.5 -37t28.5 -54t10 -65z
" />
    <glyph glyph-name="h" unicode="h" horiz-adv-x="548" 
d="M562 45l-21 35q-5 8 -14 3q-6 -4 -15.5 -9t-17.5 -5t-12 4t-4 19v223q0 78 -42 125t-135 47q-44 0 -77.5 -17t-55.5 -42v253q0 17 -4 33t-13.5 28t-25 19t-37.5 7q-23 0 -48.5 -10t-47.5 -27q-8 -6 -3 -13l21 -34q2 -4 6 -5t8 2q7 5 15.5 9t17.5 4t13 -6t4 -22v-656
q0 -10 10 -10h74q10 0 10 10v222q0 34 7 65.5t22.5 55.5t39.5 38.5t58 14.5q47 0 67.5 -29t20.5 -75v-7l-1 -201v-4q0 -45 18 -70.5t64 -25.5q25 0 50 10.5t46 27.5z" />
    <glyph glyph-name="i" unicode="i" horiz-adv-x="248" 
d="M261 45l-20 35q-5 8 -14 3q-5 -4 -14 -9t-17 -5t-12 5t-4 22l1 292v3q0 34 -18 59t-60 25q-22 0 -46.5 -10.5t-45.5 -26.5q-7 -5 -3 -13l20 -34q2 -4 6 -5t8 2q6 5 14.5 9t16.5 4t12.5 -6t4.5 -22l-1 -280v-4q0 -45 16.5 -70t61.5 -25q23 0 47.5 10.5t44.5 27.5zM182 643
q0 25 -17 43.5t-43 18.5q-25 0 -42 -18.5t-17 -43.5q0 -27 16.5 -44.5t42.5 -17.5t43 17.5t17 44.5z" />
    <glyph glyph-name="j" unicode="j" horiz-adv-x="232" 
d="M179 -70v461q0 35 -17.5 61t-59.5 26q-21 0 -45.5 -10.5t-45.5 -26.5q-7 -5 -3 -13l20 -34q2 -4 6 -5t7 2q15 12 32 12q8 0 12 -5.5t4 -22.5v-437q0 -21 -1.5 -39t-8 -30.5t-19 -20t-34.5 -7.5q-23 0 -38 6.5t-26 12.5q-5 3 -9.5 0t-4.5 -9v-57q0 -6 6 -8q2 -1 3 -1l2 -1
q17 -8 35 -13.5t46 -5.5q76 0 107.5 44t31.5 121zM178 647q0 27 -18 46.5t-44 19.5t-44 -19.5t-18 -46.5q0 -29 17.5 -47t44.5 -18t44.5 18t17.5 47z" />
    <glyph glyph-name="k" unicode="k" horiz-adv-x="501" 
d="M537 58l-23 33q-4 7 -13 2q-7 -5 -16 -11t-17 -6t-13.5 4t-13.5 18l-113 213l151 101q6 4 2 13l-33 52q-5 7 -14 3l-265 -187v390q0 33 -18.5 59t-62.5 26q-23 0 -48.5 -10.5t-47.5 -26.5q-8 -6 -3 -13l21 -34q2 -4 6 -5t8 2q7 5 15.5 9t17.5 4t13 -6t4 -22v-656
q0 -10 10 -10h75q10 0 10 10v192l80 54l101 -201q15 -29 36 -42t45 -13q20 0 36.5 5t30 11.5t23.5 14t16 13.5v14z" />
    <glyph glyph-name="l" unicode="l" horiz-adv-x="234" 
d="M244 45l-20 35q-6 9 -14 3q-6 -4 -15 -9t-17 -5t-12 5t-4 23v584q0 35 -17.5 61t-60.5 26q-21 0 -46 -10t-45 -27q-8 -6 -3 -13l19 -34q2 -4 6.5 -5t7.5 2q7 5 15.5 9t16.5 4t12 -6t4 -22v-572q0 -48 16.5 -74t61.5 -26q24 0 48 10.5t44 27.5z" />
    <glyph glyph-name="m" unicode="m" horiz-adv-x="852" 
d="M867 44l-22 35q-5 8 -14 3q-6 -4 -16 -9t-18 -5q-7 0 -11 4.5t-4 22.5v216q0 77 -39.5 123t-132.5 46q-50 0 -88 -21.5t-58 -58.5q-18 38 -54 59t-95 21q-48 0 -82.5 -18.5t-52.5 -44.5q-6 23 -23 37.5t-50 14.5q-23 0 -48 -10.5t-47 -26.5q-8 -6 -3 -12l20 -34
q2 -4 6.5 -5t8.5 2q7 5 15.5 9t17.5 4t13.5 -6t4.5 -22v-358q0 -10 10 -10h75q10 0 10 10v219q0 34 5.5 65t19 54.5t36.5 37.5t57 14q24 0 39.5 -9t24.5 -25t12.5 -38.5t3.5 -48.5v-269q0 -10 10 -10h78q10 0 10 10v219q0 34 5.5 65t19 54.5t36 37.5t56.5 14
q46 0 63.5 -29.5t17.5 -77.5v-205q0 -44 18.5 -69t64.5 -25q25 0 50.5 10.5t46.5 27.5z" />
    <glyph glyph-name="n" unicode="n" 
d="M583 44l-21 35q-2 4 -6.5 4.5t-8.5 -1.5q-6 -4 -15.5 -9t-17.5 -5q-7 0 -11 4t-4 18v5l-1 215q0 77 -42.5 123.5t-134.5 46.5q-49 0 -84.5 -20t-56.5 -48q-6 24 -23 40.5t-52 16.5q-23 0 -47 -10.5t-46 -26.5q-8 -6 -3 -12l20 -34q2 -4 6.5 -5t7.5 2q7 5 16 9t17 4
q9 0 13.5 -6t4.5 -22v-358q0 -10 9 -10h75q9 0 9 10v219q0 34 7 65t22.5 54.5t39.5 37.5t58 14q47 0 67.5 -29.5t20.5 -79.5v-203q0 -44 18 -69t64 -25q25 0 50 10.5t46 27.5z" />
    <glyph glyph-name="o" unicode="o" horiz-adv-x="519" 
d="M490 234q0 55 -15.5 100.5t-45.5 77.5t-72.5 50t-96.5 18t-96.5 -18t-72.5 -50t-45.5 -77.5t-15.5 -100.5t15.5 -100t45.5 -77.5t72.5 -50.5t96.5 -18t96.5 18t72.5 50.5t45.5 77.5t15.5 100zM392 234q0 -33 -8 -64t-24.5 -54.5t-41 -37.5t-58.5 -14t-58.5 14t-41 37.5
t-24.5 54.5t-8 64q0 34 8 65t24.5 54.5t41 37.5t58.5 14t58.5 -14t41 -37.5t24.5 -54.5t8 -65z" />
    <glyph glyph-name="p" unicode="p" horiz-adv-x="584" 
d="M555 237q0 54 -14 99.5t-41.5 79t-68.5 52t-95 18.5q-43 0 -84 -17t-70 -51q-5 24 -23.5 40.5t-53.5 16.5q-23 0 -47 -10.5t-46 -26.5q-8 -6 -3 -13l20 -34q2 -4 6.5 -5t7.5 2q7 5 16 9t17 4q9 0 13.5 -6t4.5 -23v-585q0 -10 9 -10h75q10 0 10 10v263q53 -62 156 -62
q49 0 88 19t66.5 52.5t42 79t14.5 98.5zM454 237q0 -34 -7.5 -64.5t-22.5 -54t-39 -37t-57 -13.5t-59 13.5t-44 37t-27.5 54t-9.5 64.5t9.5 65t28 54t45 37t59.5 14t56.5 -14t38.5 -37t22 -54t7 -65z" />
    <glyph glyph-name="q" unicode="q" 
d="M502 -223q10 0 10 10v678q0 10 -10 10h-74q-10 0 -10 -10v-41q-26 32 -65.5 47t-90.5 15t-90.5 -19t-67 -52.5t-42 -79t-14.5 -98.5q0 -54 14 -99.5t41.5 -79t69 -52t96.5 -18.5q41 0 81.5 16t67.5 45v-262q0 -10 10 -10h74zM418 237q0 -34 -10 -64.5t-28.5 -54
t-45.5 -37t-61 -13.5t-57.5 13.5t-38.5 37t-22 54t-7 64.5t7 65t22 54t38.5 37t57.5 14t61 -14t45.5 -37t28.5 -54t10 -65z" />
    <glyph glyph-name="r" unicode="r" horiz-adv-x="376" 
d="M389 439q4 7 -4 11q-12 8 -32 16t-53 8q-35 0 -68.5 -19.5t-55.5 -58.5q-5 37 -21.5 54.5t-50.5 17.5q-23 0 -47 -10t-46 -26q-2 -2 -3 -6t1 -7l20 -33q2 -4 6 -5t8 2q14 12 32 12q8 0 12.5 -5.5t4.5 -22.5v-357q0 -10 10 -10h73q9 0 9 10v183q0 45 11.5 87t31.5 72
q13 19 30.5 29.5t38.5 10.5q22 0 37 -7t20 -11q4 -3 8 -1.5t6 6.5z" />
    <glyph glyph-name="s" unicode="s" horiz-adv-x="390" 
d="M378 139q0 34 -10.5 57.5t-30 39.5t-47.5 27t-62 19q-48 11 -76.5 26t-28.5 39q0 27 21.5 43t66.5 16q40 0 69.5 -10.5t42.5 -15.5q0 -1 1 -1.5t0 0.5q4 -3 9 -2.5t7 5.5l21 48q4 8 -3 12q-39 21 -77 29.5t-70 8.5q-36 0 -68 -9t-56.5 -27t-39 -44.5t-14.5 -61.5
q0 -34 13 -56.5t34.5 -38t51 -25t62.5 -18.5q42 -11 67 -24.5t25 -45.5q0 -17 -8 -29.5t-21 -20.5t-29.5 -11.5t-33.5 -3.5q-50 0 -87 15.5t-63 31.5q-5 3 -10 0.5t-5 -7.5v-68q0 -2 2 -4.5t4 -3.5q21 -11 62 -26t104 -15q32 0 64 8.5t57 26.5t40.5 46.5t15.5 69.5z" />
    <glyph glyph-name="t" unicode="t" horiz-adv-x="308" 
d="M323 28v55q0 6 -5 8.5t-10 -0.5q-11 -7 -33 -14t-43 -7q-31 0 -40 15t-9 52v263h111q10 0 10 10v53q0 9 -10 9h-111v120q0 9 -9 9h-73q-10 0 -10 -9v-120h-74q-9 0 -9 -9v-53q0 -10 9 -10h74v-274q0 -72 32 -102.5t95 -30.5q15 0 30 3t28.5 7t24.5 8.5t17 7.5z" />
    <glyph glyph-name="u" unicode="u" horiz-adv-x="566" 
d="M577 50l-21 34q-2 4 -6.5 4.5t-8.5 -1.5q-6 -3 -15.5 -8t-17.5 -5t-11.5 5t-3.5 22v358q0 9 -10 9h-74q-10 0 -10 -9v-219q0 -34 -7 -65t-22.5 -54.5t-39.5 -37.5t-58 -14q-47 0 -67 30t-20 79v208q0 33 -19 57.5t-63 24.5q-23 0 -48 -10t-47 -26q-3 -2 -4 -6t1 -6
l20 -34q2 -4 6.5 -5t7.5 2q7 5 16 9t17 4t12.5 -5t4.5 -19v-214q0 -77 42 -123.5t135 -46.5q48 0 83 19.5t57 48.5q5 -25 22.5 -40.5t49.5 -15.5q25 0 50 10t46 27z" />
    <glyph glyph-name="v" unicode="v" horiz-adv-x="502" 
d="M502 437q2 3 0 6.5t-5 5.5l-63 23q-9 3 -12 -5l-147 -356l-91 254q-1 2 -1.5 4.5t-1.5 4.5q-6 19 -13.5 36t-17.5 30t-24.5 20.5t-35.5 7.5q-26 0 -49.5 -10t-45.5 -27q-7 -5 -3 -13l20 -33q4 -10 13 -4q7 4 15.5 7.5t17.5 3.5q10 0 16 -9.5t14 -29.5l131 -347q2 -6 9 -6
h83q7 0 9 6z" />
    <glyph glyph-name="w" unicode="w" horiz-adv-x="765" 
d="M765 438q4 8 -6 12l-63 22q-8 3 -12 -6l-131 -349l-77 247q-7 21 -14 39.5t-17.5 33t-26 23t-39.5 8.5q-26 0 -49.5 -10t-45.5 -27q-8 -6 -2 -13l21 -32q5 -8 14 -3q6 5 13.5 8t17.5 3q12 0 19.5 -6t17.5 -32v1l2 -7l-119 -244l-81 259q-6 20 -13.5 38.5t-18 33t-26 23
t-38.5 8.5q-26 0 -50 -10t-46 -27q-8 -6 -2 -13l22 -32q5 -8 13 -3q12 9 30 9q21 0 34 -38l112 -347q2 -7 9 -7h84q7 0 9 6l114 232l75 -231q2 -7 10 -7h84q7 0 9 6z" />
    <glyph glyph-name="x" unicode="x" horiz-adv-x="483" 
d="M493 63l-23 32q-5 9 -14 2q-17 -15 -35 -15q-9 0 -17.5 7.5t-19.5 24.5l-83 127l161 179q6 8 0 13l-41 44q-7 5 -14 0l-150 -167l-70 109q-6 8 -12.5 17t-15 16.5t-20 12t-27.5 4.5q-26 0 -51.5 -16t-45.5 -35q-5 -5 -1 -13l23 -31q5 -9 14 -2q18 15 35 15q9 0 17 -6.5
t19 -23.5l74 -115l-175 -194q-6 -8 0 -13l41 -44q7 -5 14 0l164 182l79 -124q11 -17 27.5 -33t48.5 -16q26 0 51.5 15.5t45.5 35.5z" />
    <glyph glyph-name="y" unicode="y" horiz-adv-x="544" 
d="M490 27v438q0 10 -10 10h-74q-9 0 -9 -10v-229q-1 -33 -8.5 -63t-22.5 -53t-38.5 -36.5t-56.5 -13.5q-48 0 -67.5 30.5t-19.5 79.5v211q0 34 -19 59t-62 25q-23 0 -48.5 -10.5t-46.5 -26.5q-8 -6 -3 -13l20 -34q2 -4 6 -5t8 2q7 5 15.5 9t17.5 4q8 0 12 -5.5t4 -19.5
v-216q0 -78 42 -125t134 -47q46 0 81 19.5t56 45.5v-35q0 -38 -6 -69.5t-22 -54t-44 -35.5t-72 -13q-47 0 -81 9.5t-57 20.5q-5 2 -9 0t-4 -8v-64q0 -7 5 -9q27 -11 64 -19.5t87 -8.5q118 0 173 67t55 193z" />
    <glyph glyph-name="z" unicode="z" horiz-adv-x="433" 
d="M429 131l-43 4q-4 1 -7 -1.5t-4 -5.5q-5 -26 -17.5 -37t-34.5 -11q-13 0 -23 2t-21 5q-13 4 -30 7.5t-46 3.5q-8 0 -20.5 -1.5t-28.5 -6.5l268 318v51q0 9 -10 9h-359q-9 0 -9 -9v-61q0 -9 9 -9h241l-279 -331v-52q0 -13 12 -10q23 6 59 11t77 5q20 0 40 -3.5t39 -7.5
q17 -4 33 -6.5t33 -2.5q27 0 50 8t40.5 24t28 40t10.5 57z" />
    <glyph glyph-name="braceleft" unicode="{" horiz-adv-x="294" 
d="M278 -140q9 0 9 10v61q0 9 -9 9h-50q-23 0 -30 20.5t-7 45.5v152q0 28 -6 50t-15 37.5t-20.5 25.5t-21.5 15q10 6 21.5 16.5t20.5 25.5t15 35.5t6 47.5v155q0 26 7 45.5t30 19.5h50q9 0 9 10v61q0 9 -9 9h-65q-18 0 -37 -8.5t-34.5 -25.5t-25.5 -41.5t-10 -56.5v-154
q0 -23 -6 -42t-16 -32t-23 -20t-26 -7q-9 0 -9 -9v-59q0 -10 9 -10q26 0 48.5 -26.5t22.5 -74.5v-153q0 -32 9.5 -56.5t25 -41.5t34.5 -25.5t38 -8.5h65z" />
    <glyph glyph-name="bar" unicode="|" horiz-adv-x="176" 
d="M122 -18q8 0 8 10v725q0 9 -8 9h-52q-8 0 -8 -9v-725q0 -10 8 -10h52z" />
    <glyph glyph-name="braceright" unicode="}" horiz-adv-x="294" 
d="M287 256v59q0 9 -9 9q-13 0 -26 7t-23 20t-16 32t-6 42v154q0 32 -10 56.5t-25.5 41.5t-34.5 25.5t-37 8.5h-65q-9 0 -9 -9v-61q0 -10 9 -10h50q23 0 30 -19.5t7 -45.5v-155q0 -27 6 -47.5t15 -35.5t20 -25.5t22 -16.5q-11 -5 -22 -15t-20 -25.5t-15 -37.5t-6 -50v-152
q0 -25 -7 -45.5t-30 -20.5h-50q-9 0 -9 -9v-61q0 -10 9 -10h65q19 0 38 8.5t34.5 25.5t25 41.5t9.5 56.5v153q0 48 22.5 74.5t48.5 26.5z" />
    <glyph glyph-name="asciitilde" unicode="~" horiz-adv-x="645" 
d="M566 307l-41 30q-4 2 -8.5 1t-6.5 -5q0 -2 -1 -2.5t-2 -2.5l1 1q-11 -16 -25.5 -29.5t-43.5 -13.5q-23 0 -44 7t-42 16q-5 2 -10 4.5t-10 4.5q-25 10 -49.5 18.5t-52.5 8.5q-48 0 -77 -25t-56 -62q-6 -8 2 -12l41 -30q4 -3 8 -2t6 5q1 2 2 2.5t2 2.5l-1 -1
q11 16 25.5 29.5t40.5 13.5q23 0 44 -7.5t42 -16.5q5 -2 10 -4.5t10 -4.5q25 -11 49.5 -19t52.5 -8q25 0 45 7t35.5 19t29 28.5t26.5 34.5z" />
    <glyph glyph-name="exclamdown" unicode="&#xa1;" horiz-adv-x="243" 
d="M166 -223q9 0 9 10l-5 462q0 4 -3 7t-6 3h-62q-8 0 -8 -10l-5 -462q0 -10 8 -10h72zM190 418q0 28 -18.5 48t-41.5 20t-41.5 -20t-18.5 -48q0 -29 17.5 -48.5t42.5 -19.5t42.5 19.5t17.5 48.5z" />
    <glyph glyph-name="cent" unicode="&#xa2;" horiz-adv-x="541" 
d="M470 552q4 9 -5 13q-20 9 -50.5 19.5t-72.5 12.5v97q0 10 -10 10h-49q-9 0 -9 -10v-101q-42 -9 -76 -30t-58 -52.5t-36.5 -71t-12.5 -85.5q0 -94 47 -159t136 -81v-105q0 -10 9 -10h49q10 0 10 10v101q38 2 70 12t52 19q5 2 5 9v63q0 6 -4.5 9t-9.5 0q-33 -19 -60 -26
t-53 -8v329q33 -2 57 -9t38 -14q9 -3 12 5zM186 354q0 52 21 95t67 59v-310q-42 17 -65 58t-23 98z" />
    <glyph glyph-name="sterling" unicode="&#xa3;" horiz-adv-x="541" 
d="M524 135l-47 7q-8 2 -10 -7q-8 -26 -23.5 -37.5t-42.5 -11.5q-16 0 -31 3t-30 7q-17 5 -36 9t-45 4q-11 0 -27 -1.5t-30 -4.5q13 26 24.5 66t11.5 93v12q0 7 -1 14l-3 36h162q10 0 10 10v60q0 10 -10 10h-167l-3 68q0 5 -0.5 10t-0.5 10q0 32 6 58.5t20 46t36.5 30
t55.5 10.5q42 0 73.5 -12.5t62.5 -29.5q7 -5 13 3l31 47q6 8 -2 14q-32 23 -74 42t-104 19q-41 0 -79.5 -12.5t-68.5 -38.5t-48 -66.5t-18 -95.5v-16l4 -87h-98q-10 0 -10 -10v-60q0 -10 10 -10h102l3 -43v-8q0 -13 0.5 -25t0.5 -25q0 -26 -4 -52t-19 -46
q-14 -22 -34.5 -33.5t-48.5 -22.5q-7 -2 -7 -9v-54q0 -5 3.5 -8.5t8.5 -1.5q22 6 41.5 11.5t38.5 9t39 5.5t43 2t48 -5t48 -12q22 -6 42.5 -10.5t41.5 -4.5q31 0 58.5 8.5t48 25t32.5 42t12 58.5z" />
    <glyph glyph-name="currency" unicode="&#xa4;" horiz-adv-x="608" 
d="M511 236q10 0 10 10v66q0 9 -10 9h-358q-1 8 -1 16v17v16t1 16h358q10 0 10 9v66q0 9 -10 9h-342q24 76 79.5 123t137.5 47q52 0 90.5 -11t68.5 -23q9 -4 13 5l24 61q4 9 -5 13q-37 15 -84 28t-112 13q-60 0 -112.5 -18t-94 -51.5t-71 -81t-44.5 -105.5h-50q-10 0 -10 -9
v-66q0 -9 10 -9h37q-1 -8 -1 -16v-16v-17q0 -8 1 -16h-37q-10 0 -10 -9v-66q0 -10 10 -10h50q15 -59 44 -106t70 -80t93 -50.5t113 -17.5q67 0 115.5 13.5t80.5 30.5q5 2 5 9v73q0 6 -4.5 9t-9.5 0q-33 -18 -74 -32t-102 -14q-78 0 -135.5 44.5t-83.5 120.5h340z" />
    <glyph glyph-name="yen" unicode="&#xa5;" horiz-adv-x="550" 
d="M553 631q10 0 10 10v57q0 10 -10 10h-91q-6 0 -8 -5l-158 -305l-172 305q-3 5 -9 5h-99q-9 0 -9 -10v-57q0 -10 9 -10h42l150 -258h-108q-9 0 -9 -9v-52q0 -10 9 -10h146v-59h-146q-9 0 -9 -10v-51q0 -10 9 -10h146v-95h-48q-10 0 -10 -10v-57q0 -10 10 -10h191
q10 0 10 10v57q0 10 -10 10h-48v95h147q10 0 10 10v51q0 10 -10 10h-147v59h147q10 0 10 10v52q0 9 -10 9h-113l133 258h45z" />
    <glyph glyph-name="brokenbar" unicode="&#xa6;" horiz-adv-x="176" 
d="M122 465q8 0 8 10v242q0 9 -8 9h-52q-8 0 -8 -9v-242q0 -10 8 -10h52zM122 -18q8 0 8 10v242q0 9 -8 9h-52q-8 0 -8 -9v-242q0 -10 8 -10h52z" />
    <glyph glyph-name="section" unicode="&#xa7;" horiz-adv-x="529" 
d="M473 289q0 32 -8.5 56.5t-23.5 44t-36.5 35t-47.5 29.5l-120 66q-17 10 -33.5 24t-16.5 38q0 38 27 54t70 16q38 0 74 -11t70 -28q9 -4 13 5l24 50q3 8 -4 12q-12 7 -30 15.5t-40.5 16t-50 12.5t-59.5 5q-36 0 -69.5 -9t-60 -27t-42 -46t-15.5 -65q0 -51 21 -80.5
t64 -55.5q-51 -25 -77.5 -62t-26.5 -81q0 -32 8.5 -56t23.5 -42.5t35 -33.5t42 -27l117 -65q29 -16 46 -32.5t17 -43.5q0 -35 -29.5 -50t-72.5 -15q-52 0 -92.5 14t-78.5 32q-5 2 -9 -0.5t-4 -7.5v-69q0 -7 6 -9q20 -9 39.5 -16t41 -12t46.5 -8t57 -3q37 0 71 10t60 29.5
t41.5 47t15.5 63.5q0 50 -21 80t-66 58q54 26 79 62.5t25 79.5zM381 283q0 -35 -24 -58.5t-63 -34.5l-31 17q-48 27 -71 47.5t-23 55.5t24.5 58.5t57.5 36.5l37 -20q48 -26 70.5 -46.5t22.5 -55.5z" />
    <glyph glyph-name="dieresis" unicode="&#xa8;" horiz-adv-x="491" 
d="M408 586q0 22 -17 38t-43 16t-43 -16t-17 -38q0 -23 17 -38.5t43 -15.5t43 15.5t17 38.5zM222 586q0 22 -17 38t-43 16q-25 0 -42.5 -16t-17.5 -38q0 -23 17.5 -38.5t42.5 -15.5q26 0 43 15.5t17 38.5z" />
    <glyph glyph-name="copyright" unicode="&#xa9;" horiz-adv-x="785" 
d="M774 354q0 80 -29.5 148t-80.5 118t-118.5 78t-143.5 28t-143.5 -28t-118.5 -78t-80.5 -118t-29.5 -148t29.5 -148t80.5 -117.5t118.5 -78t143.5 -28.5t143.5 28.5t118.5 78t80.5 117.5t29.5 148zM690 354q0 -63 -22.5 -118t-61.5 -95t-91.5 -63t-112.5 -23t-112.5 23
t-91.5 63t-61.5 95t-22.5 118q0 64 22.5 118.5t61.5 95t91.5 63.5t112.5 23t112.5 -23t91.5 -63.5t61.5 -95t22.5 -118.5zM544 547q4 9 -5 13q-23 11 -54.5 19t-74.5 8q-49 0 -90 -17t-71 -47.5t-46.5 -73.5t-16.5 -95q0 -53 16.5 -95.5t46 -73t70.5 -47t90 -16.5
q45 0 76.5 8.5t52.5 18.5q5 2 5 9v57q0 6 -4 9t-9 0q-26 -13 -51.5 -20.5t-61.5 -7.5q-29 0 -54.5 10t-44 29.5t-29.5 49t-11 68.5q0 33 8.5 62t25.5 51t42.5 34.5t59.5 12.5q22 0 44 -4t53 -15q9 -4 13 5z" />
    <glyph glyph-name="ordfeminine" unicode="&#xaa;" horiz-adv-x="352" 
d="M346 444l-13 21q-2 3 -6 4t-7 -2q-3 -2 -6.5 -4.5t-8.5 -2.5l-0.5 2t-0.5 10v116q0 52 -30.5 81.5t-97.5 29.5q-27 0 -52 -5.5t-45 -15.5q-8 -3 -5 -11l12 -35q4 -10 13 -5q17 8 32.5 10t32.5 2q34 0 50 -13.5t16 -34.5v-6q-14 9 -34 14.5t-43 5.5q-57 0 -87.5 -28.5
t-30.5 -72.5q0 -48 30 -74.5t87 -26.5q32 0 54.5 10t34.5 21q11 -25 45 -25q17 0 32.5 6.5t26.5 17.5zM230 505q0 -20 -15.5 -33t-44.5 -13q-32 0 -46 12.5t-14 32.5t13.5 33t43.5 13q35 0 49 -13.5t14 -31.5z" />
    <glyph glyph-name="guillemotleft" unicode="&#xab;" horiz-adv-x="481" 
d="M437 61l-52 -34q-9 -5 -12 2l-136 204q-5 6 0 12l136 204q3 7 12 2l52 -34q8 -5 3 -13l-108 -165l108 -165q5 -8 -3 -13zM260 61l-52 -34q-8 -5 -12 2l-136 204q-5 6 0 12l136 204q4 7 12 2l52 -34q8 -5 3 -13l-108 -165l108 -165q5 -8 -3 -13z" />
    <glyph glyph-name="logicalnot" unicode="&#xac;" horiz-adv-x="549" 
d="M525 172q10 0 10 9v215q0 9 -10 9h-502q-10 0 -10 -9v-66q0 -10 10 -10h422v-139q0 -9 9 -9h71z" />
    <glyph glyph-name="registered" unicode="&#xae;" horiz-adv-x="785" 
d="M774 354q0 80 -29.5 148t-80.5 118t-118.5 78t-143.5 28t-143.5 -28t-118.5 -78t-80.5 -118t-29.5 -148t29.5 -148t80.5 -117.5t118.5 -78t143.5 -28.5t143.5 28.5t118.5 78t80.5 117.5t29.5 148zM529 133h70q-39 -37 -89.5 -57.5t-107.5 -20.5q-60 0 -112.5 23t-91.5 63
t-61.5 95t-22.5 118q0 64 22.5 118.5t61.5 95t91.5 63.5t112.5 23t112.5 -23t91.5 -63.5t61.5 -95t22.5 -118.5q0 -63 -22.5 -117.5t-60.5 -95.5v45q0 10 -10 10h-20q-17 0 -24 15t-13 36q-7 23 -16.5 47.5t-32.5 41.5q28 10 49 29q16 15 25.5 36.5t9.5 48.5q0 60 -40 93.5
t-121 33.5h-191q-10 0 -10 -10v-43q0 -10 10 -10h30v-318h-30q-10 0 -10 -10v-43q0 -10 10 -10h140q10 0 10 10v43q0 10 -10 10h-29v127h61q15 -7 25.5 -18.5t17.5 -25.5t11.5 -29t8.5 -30q4 -17 9 -33t12.5 -28t19.5 -19t30 -7zM485 453q0 -65 -78 -65h-73v124h73
q39 0 58.5 -13.5t19.5 -45.5z" />
    <glyph glyph-name="macron" unicode="&#xaf;" horiz-adv-x="493" 
d="M413 443q10 0 10 8v47q0 7 -10 7h-315q-9 0 -9 -7v-47q0 -8 9 -8h315z" />
    <glyph glyph-name="macron" unicode="&#x2c9;" horiz-adv-x="493" 
d="M413 443q10 0 10 8v47q0 7 -10 7h-315q-9 0 -9 -7v-47q0 -8 9 -8h315z" />
    <glyph glyph-name="degree" unicode="&#xb0;" horiz-adv-x="379" 
d="M342 593q0 30 -11 56.5t-30.5 45.5t-45.5 30t-56 11t-56 -11t-45.5 -30t-30.5 -45.5t-11 -56.5t11 -56t30.5 -45.5t45.5 -30.5t56 -11t56 11t45.5 30.5t30.5 45.5t11 56zM267 593q0 -30 -20 -51t-48 -21t-48 21t-20 51q0 31 20 52t48 21t48 -21t20 -52z" />
    <glyph glyph-name="plusminus" unicode="&#xb1;" horiz-adv-x="549" 
d="M535 292q10 0 10 9v70q0 10 -10 10h-206v173q0 10 -9 10h-72q-9 0 -9 -10v-173h-206q-10 0 -10 -10v-70q0 -9 10 -9h206v-174q0 -10 9 -10h72q9 0 9 10v174h206zM535 0q10 0 10 10v69q0 10 -10 10h-502q-10 0 -10 -10v-69q0 -10 10 -10h502z" />
    <glyph glyph-name="twosuperior" unicode="&#xb2;" horiz-adv-x="569" 
d="M427 421l-40 5q-8 2 -10 -8q-3 -13 -10.5 -17t-18.5 -4q-5 0 -10 1t-10 3h1q-8 2 -17.5 4t-26.5 2q-3 0 -6 -0.5t-6 -0.5l25 18q56 40 90.5 77.5t34.5 84.5q0 56 -36 86.5t-104 30.5q-45 0 -81.5 -19.5t-56.5 -39.5q-7 -4 -1 -12l28 -37q7 -8 14 -1q17 17 40 27t47 10
q21 0 33.5 -4.5t19.5 -11.5t9 -15.5t2 -15.5q0 -13 -4.5 -24.5t-14.5 -24t-27 -27.5t-41 -34l-119 -93q-2 -1 -3 -3.5t-1 -4.5v-43q0 -5 2.5 -8t7.5 -2q13 2 23.5 2.5t20.5 2.5q16 2 30.5 4t28.5 2q13 0 26 -1.5t27 -3.5q12 -2 22.5 -3.5t24.5 -1.5q20 0 37.5 4.5t30.5 15
t20.5 28t7.5 43.5z" />
    <glyph glyph-name="threesuperior" unicode="&#xb3;" 
d="M433 434q0 29 -14.5 53t-40.5 35q43 28 43 77q0 28 -11 48t-30 32.5t-43.5 18.5t-52.5 6q-45 0 -79 -16t-58 -31q-9 -6 -3 -14l25 -38q5 -7 12 -3q2 2 4 3q20 11 42 20t49 9q29 0 43.5 -11.5t14.5 -28.5q0 -24 -20 -32.5t-45 -8.5h-25q-9 0 -9 -9v-51q0 -9 9 -9l25 1h6
q29 0 48.5 -12t19.5 -36q0 -22 -16.5 -36t-47.5 -14q-35 0 -62 7.5t-62 26.5q-5 3 -9.5 0t-4.5 -8v-56q0 -2 2 -4.5t4 -3.5q33 -15 63 -23t69 -8q28 0 56 7t49.5 21.5t35 36t13.5 51.5z" />
    <glyph glyph-name="acute" unicode="&#xb4;" horiz-adv-x="480" 
d="M359 667q4 5 1.5 9.5t-8.5 4.5h-76q-5 0 -7 -4l-130 -173q-4 -5 -1.5 -10t8.5 -5h65q2 0 4.5 1t2.5 3z" />
    <glyph glyph-name="mu" unicode="&#xb5;" horiz-adv-x="566" 
d="M577 51l-21 35q-6 8 -15 2q-6 -3 -15.5 -8t-17.5 -5t-11.5 5t-3.5 22v363q0 9 -10 9h-74q-10 0 -10 -9v-222q0 -34 -6.5 -65.5t-21.5 -55.5t-39 -38t-58 -14q-47 0 -67 31.5t-20 78.5v208q0 17 -4.5 32.5t-14.5 27.5t-25.5 19t-37.5 7q-23 0 -48 -10t-47 -26
q-8 -6 -3 -13l20 -34q2 -4 6.5 -5t8.5 2q6 5 15 9t17 4t12.5 -6t4.5 -23v-590q0 -10 9 -10h71q10 0 10 10v244q15 -14 40 -26t65 -12q42 0 71.5 19.5t48.5 46.5q6 -24 23.5 -39t48.5 -15q25 0 50 10.5t46 27.5z" />
    <glyph glyph-name="mu" unicode="&#x3bc;" horiz-adv-x="566" 
d="M577 51l-21 35q-6 8 -15 2q-6 -3 -15.5 -8t-17.5 -5t-11.5 5t-3.5 22v363q0 9 -10 9h-74q-10 0 -10 -9v-222q0 -34 -6.5 -65.5t-21.5 -55.5t-39 -38t-58 -14q-47 0 -67 31.5t-20 78.5v208q0 17 -4.5 32.5t-14.5 27.5t-25.5 19t-37.5 7q-23 0 -48 -10t-47 -26
q-8 -6 -3 -13l20 -34q2 -4 6.5 -5t8.5 2q6 5 15 9t17 4t12.5 -6t4.5 -23v-590q0 -10 9 -10h71q10 0 10 10v244q15 -14 40 -26t65 -12q42 0 71.5 19.5t48.5 46.5q6 -24 23.5 -39t48.5 -15q25 0 50 10.5t46 27.5z" />
    <glyph glyph-name="paragraph" unicode="&#xb6;" horiz-adv-x="621" 
d="M620 -88l-21 40q-2 4 -6.5 4.5t-8.5 -1.5q-6 -4 -16.5 -9t-18.5 -5t-12.5 5t-4.5 23v667h48q10 0 10 9v58q0 10 -10 10h-266q-66 0 -118 -22.5t-88 -63.5t-55 -98t-19 -126q0 -58 17 -108.5t47 -89t71 -62.5t88 -28v-250q0 -47 16 -73t63 -26q25 0 49 10.5t46 27.5
q7 5 3 13l-21 40q-2 4 -6.5 4.5t-8.5 -1.5q-5 -4 -15.5 -9t-18.5 -5q-9 0 -13.5 5t-4.5 23v759h95v-673q0 -47 16.5 -73t63.5 -26q26 0 50 10.5t46 27.5z" />
    <glyph glyph-name="periodcentered" unicode="&#xb7;" horiz-adv-x="243" 
d="M190 273q0 25 -17.5 42.5t-42.5 17.5t-42.5 -17.5t-17.5 -42.5t18.5 -42.5t41.5 -17.5t41.5 17.5t18.5 42.5z" />
    <glyph glyph-name="cedilla" unicode="&#xb8;" horiz-adv-x="481" 
d="M365 -110q0 20 -8.5 34.5t-21 24t-28 14t-30.5 4.5h-16l31 37q4 5 1.5 9.5t-9.5 4.5h-41q-4 0 -7 -3l-65 -82q-5 -7 1 -12l20 -19q6 -6 10 -2q11 5 22.5 8.5t23.5 3.5q14 0 26 -5t12 -19q0 -16 -16.5 -20t-37.5 -4q-23 0 -46.5 6.5t-38.5 12.5q-5 2 -9 -0.5t-4 -7.5v-45
q0 -7 7 -9q26 -9 50.5 -14.5t53.5 -5.5q24 0 45.5 4.5t38 15t26.5 27.5t10 42z" />
    <glyph glyph-name="onesuperior" unicode="&#xb9;" horiz-adv-x="546" 
d="M358 326q9 0 9 9v46q0 9 -9 9h-39v303q0 5 -3 8.5t-8 1.5l-114 -29q-8 -2 -8 -9v-48q0 -5 3 -8t8 -1l43 10v-228h-40q-9 0 -9 -9v-46q0 -9 9 -9h158z" />
    <glyph glyph-name="ordmasculine" unicode="&#xba;" horiz-adv-x="351" 
d="M339 551q0 33 -10.5 60t-30.5 46.5t-48.5 30.5t-64.5 11t-64.5 -11t-48.5 -30.5t-30.5 -46.5t-10.5 -60t10.5 -60t30.5 -46.5t48.5 -30.5t64.5 -11t64.5 11t48.5 30.5t30.5 46.5t10.5 60zM261 551q0 -37 -17 -62.5t-59 -25.5t-59 25.5t-17 62.5q0 36 17 62.5t59 26.5
t59 -26.5t17 -62.5z" />
    <glyph glyph-name="guillemotright" unicode="&#xbb;" horiz-adv-x="481" 
d="M263 233l-136 -204q-3 -7 -12 -2l-52 34q-8 5 -3 13l107 165l-107 165q-5 8 3 13l52 34q9 5 12 -2l136 -204q4 -6 0 -12zM440 233l-136 -204q-4 -7 -12 -2l-52 34q-8 5 -3 13l107 165l-107 165q-5 8 3 13l52 34q8 5 12 -2l136 -204q4 -6 0 -12z" />
    <glyph glyph-name="onequarter" unicode="&#xbc;" horiz-adv-x="1112" 
d="M987 84q10 0 10 10v49q0 10 -10 10h-41v220q0 10 -10 10h-87q-2 0 -4.5 -1t-3.5 -3l-173 -227v-58q0 -10 10 -10h184v-22h-33q-10 0 -10 -9v-46q0 -10 10 -10h150q10 0 10 10v46q0 9 -10 9h-33v22h41zM909 689q7 9 -2 14l-52 36q-2 2 -6.5 1.5t-6.5 -3.5l-551 -717
q-7 -7 2 -13l51 -36q8 -6 14 2zM388 334q10 0 10 10v47q0 10 -10 10h-43v311q0 5 -3 8t-8 1l-124 -29q-8 -2 -8 -10v-48q0 -13 12 -10l46 11v-234h-43q-10 0 -10 -10v-47q0 -10 10 -10h171zM755 153l107 139v-139h-107z" />
    <glyph glyph-name="onehalf" unicode="&#xbd;" horiz-adv-x="1112" 
d="M875 689q7 9 -2 14l-52 36q-2 2 -6.5 1.5t-6.5 -3.5l-551 -717q-7 -7 2 -13l51 -36q8 -6 14 2zM994 95l-42 4q-4 1 -7 -1.5t-4 -5.5q-2 -14 -10 -18t-19 -4q-6 0 -10.5 1t-10.5 3h1q-8 2 -18 4t-28 2q-3 0 -6 -0.5t-6 -0.5l26 18q59 42 94 80t35 87q0 57 -37 88.5
t-108 31.5q-23 0 -44.5 -5.5t-40 -14.5t-33.5 -19.5t-25 -20.5q-7 -5 -1 -13l29 -38q3 -4 7 -4q5 0 7 3q19 17 42.5 27.5t48.5 10.5q22 0 35 -5t20 -12t9.5 -15.5t2.5 -15.5q0 -26 -20.5 -50t-70.5 -63l-124 -95q-2 -1 -3 -3.5t-1 -4.5v-45q0 -5 3 -8t8 -2q13 2 24 2.5
t22 2.5q16 2 31 4t30 2q14 0 27.5 -1.5t27.5 -3.5q12 -2 23 -3.5t25 -1.5q21 0 39.5 4.5t32 15.5t21 29t7.5 44zM388 334q10 0 10 10v47q0 10 -10 10h-43v311q0 5 -3 8t-8 1l-124 -29q-8 -2 -8 -10v-48q0 -13 12 -10l46 11v-234h-43q-10 0 -10 -10v-47q0 -10 10 -10h171z
" />
    <glyph glyph-name="threequarters" unicode="&#xbe;" horiz-adv-x="1114" 
d="M989 84q10 0 10 10v49q0 10 -10 10h-41v220q0 10 -10 10h-88q-2 0 -4.5 -1t-3.5 -3l-173 -227v-58q0 -10 10 -10h185v-22h-34q-9 0 -9 -9v-46q0 -10 9 -10h151q10 0 10 10v46q0 9 -10 9h-33v22h41zM911 689q7 9 -2 14l-52 36q-8 6 -14 -2l-552 -717q-7 -7 2 -13l52 -36
q8 -6 14 2zM452 445q0 30 -15.5 54.5t-41.5 35.5q45 29 45 79q0 29 -11.5 49.5t-31.5 33t-46 18.5t-55 6q-47 0 -82 -16t-61 -31q-7 -5 -3 -15l27 -39q5 -7 12 -3l2 1q0 1 2 2q21 11 43.5 20.5t51.5 9.5q31 0 46 -12t15 -29q0 -25 -21 -33.5t-48 -8.5h-25q-10 0 -10 -9v-52
q0 -10 10 -10l25 1h7q30 0 50.5 -12t20.5 -37q0 -23 -17.5 -37t-49.5 -14q-37 0 -64.5 7.5t-64.5 27.5q-5 3 -9.5 0t-4.5 -9v-56q0 -7 5 -9q35 -16 66 -24t72 -8q30 0 58.5 7t51.5 22t37 37.5t14 52.5zM756 153l108 139v-139h-108z" />
    <glyph glyph-name="questiondown" unicode="&#xbf;" horiz-adv-x="465" 
d="M468 -128l-37 41q-7 7 -14 0q-9 -9 -22 -20t-30.5 -21t-39 -17t-46.5 -7q-57 0 -84.5 26t-27.5 72q0 19 6.5 36t16.5 32t23 29l26 28l12 13q19 20 32 36.5t20.5 34t10.5 36.5t3 43v47q0 10 -9 10h-75q-9 0 -9 -10v-41q0 -35 -11.5 -58.5t-34.5 -44.5q-22 -21 -41.5 -41.5
t-34.5 -44t-23.5 -50.5t-8.5 -61q0 -43 14.5 -75.5t41 -54.5t63.5 -33t81 -11q37 0 68 9t55.5 23t43.5 30t31 30v14zM337 418q0 28 -20 48t-46 20t-46.5 -20t-20.5 -48q0 -29 19 -48.5t48 -19.5q27 0 46.5 19.5t19.5 48.5z" />
    <glyph glyph-name="Agrave" unicode="&#xc0;" horiz-adv-x="660" 
d="M650 0q10 0 10 10v57q0 10 -10 10h-51l-213 628q-2 7 -9 7h-82q-7 0 -9 -7l-228 -628h-49q-9 0 -9 -10v-57q0 -10 9 -10h109q7 0 9 7l82 235h231l77 -235q2 -7 10 -7h123zM448 741q5 -1 8.5 2t3.5 8v57q0 7 -8 9l-303 63q-5 1 -8.5 -2t-3.5 -8v-71q0 -8 8 -10zM330 582
l82 -256h-174z" />
    <glyph glyph-name="Aacute" unicode="&#xc1;" horiz-adv-x="660" 
d="M650 0q10 0 10 10v57q0 10 -10 10h-51l-213 628q-2 7 -9 7h-82q-7 0 -9 -7l-228 -628h-49q-9 0 -9 -10v-57q0 -10 9 -10h109q7 0 9 7l82 235h231l77 -235q2 -7 10 -7h123zM503 789q8 2 8 10v71q0 5 -3.5 8t-7.5 2l-303 -63q-8 -2 -8 -9v-57q0 -5 3.5 -8t8.5 -2zM330 582
l82 -256h-174z" />
    <glyph glyph-name="Acircumflex" unicode="&#xc2;" horiz-adv-x="660" 
d="M650 0q10 0 10 10v58q0 9 -10 9h-51l-213 628q-2 7 -9 7h-82q-7 0 -9 -7l-228 -628h-49q-9 0 -9 -9v-58q0 -10 9 -10h109q7 0 9 7l82 235h231l77 -235q2 -7 10 -7h123zM523 744q12 -2 12 9v55q0 7 -5 9l-193 83q-4 2 -7 0l-191 -83q-5 -3 -5 -9v-55q0 -11 12 -9l188 66z
M330 582l82 -256h-174z" />
    <glyph glyph-name="Atilde" unicode="&#xc3;" horiz-adv-x="660" 
d="M650 0q10 0 10 10v57q0 10 -10 10h-51l-213 628q-2 7 -9 7h-82q-7 0 -9 -7l-228 -628h-49q-9 0 -9 -10v-57q0 -10 9 -10h109q7 0 9 7l82 235h231l77 -235q2 -7 10 -7h123zM514 886h-50q-8 0 -10 -8q-3 -14 -11.5 -27t-26.5 -13q-20 0 -35.5 4t-35.5 10v-1l-9 3
q-20 7 -39.5 11t-49.5 4q-27 0 -47.5 -10.5t-34.5 -27.5t-21.5 -38t-9.5 -42q-2 -11 9 -11h51q3 0 6 2.5t3 5.5q3 14 12 27t30 13q17 0 31.5 -3.5t27.5 -7.5l-1 1q5 -2 10 -3t8 -2t5.5 -1.5t5.5 -1.5q17 -5 37.5 -9t49.5 -4q26 0 45 10.5t31.5 27.5t19.5 38t9 42zM330 582
l82 -256h-174z" />
    <glyph glyph-name="Adieresis" unicode="&#xc4;" horiz-adv-x="660" 
d="M650 0q10 0 10 10v57q0 10 -10 10h-51l-213 628q-2 7 -9 7h-82q-7 0 -9 -7l-228 -628h-49q-9 0 -9 -10v-57q0 -10 9 -10h109q7 0 9 7l82 234h231l77 -234q2 -7 10 -7h123zM330 582l82 -257h-174zM276 803q0 26 -18 44.5t-44 18.5t-44 -18.5t-18 -44.5t18 -44t44 -18
t44 18t18 44zM514 803q0 26 -18 44.5t-44 18.5t-44 -18.5t-18 -44.5t18 -44t44 -18t44 18t18 44z" />
    <glyph glyph-name="Aring" unicode="&#xc5;" horiz-adv-x="662" 
d="M651 0q10 0 10 10v57q0 10 -10 10h-51l-200 590q23 15 36 40t13 55q0 22 -8.5 42.5t-23.5 36.5t-35.5 25t-45.5 9q-24 0 -44.5 -9t-35.5 -25t-23.5 -36.5t-8.5 -42.5q0 -30 13 -54.5t36 -39.5l-214 -591h-49q-9 0 -9 -10v-57q0 -10 9 -10h109q7 0 9 7l82 234h231l77 -234
q2 -7 10 -7h123zM331 582l82 -256h-174zM387 762q0 -22 -14.5 -35t-31.5 -15h-8q-19 1 -33 14.5t-14 35.5q0 21 15.5 35.5t34.5 14.5q20 0 35.5 -14.5t15.5 -35.5z" />
    <glyph glyph-name="AE" unicode="&#xc6;" horiz-adv-x="927" 
d="M915 0q10 0 10 10v61q0 10 -10 10h-314v249h253q10 0 10 9v63q0 9 -10 9h-253v216h281q10 0 10 10v61q0 10 -10 10h-532q-9 0 -9 -10v-54q0 -10 9 -10h54l-341 -557h-50q-10 0 -10 -10v-57q0 -10 10 -10h99q5 0 8 5l120 197h264v-125h-50q-10 0 -10 -10v-57q0 -10 10 -10
h461zM498 631h6v-346h-214z" />
    <glyph glyph-name="Ccedilla" unicode="&#xc7;" horiz-adv-x="608" 
d="M588 676q4 10 -5 12q-37 16 -84 29.5t-112 13.5q-74 0 -136 -27t-106.5 -76.5t-69 -118.5t-24.5 -153q0 -74 18 -136t52 -109t82 -78.5t107 -43.5l-54 -58q-2 -2 -2 -6t2 -7l21 -23q4 -4 9 -2t9.5 2.5t8.5 2.5l-1 -1q13 4 23.5 6.5t22.5 2.5q16 0 31 -5.5t15 -21.5
q0 -17 -21 -22t-43 -5q-26 0 -54 7t-48 14q-5 2 -9 -1.5t-4 -8.5v-51q0 -8 7 -10q33 -10 62 -15t64 -5q25 0 49.5 5.5t44 17t31.5 30t12 45.5q0 21 -9 37t-23.5 26.5t-32.5 16t-36 5.5h-23l23 17q67 0 115.5 13.5t80.5 30.5q5 2 5 9v74q0 6 -4.5 8.5t-9.5 0.5
q-33 -18 -74 -32.5t-102 -14.5q-53 0 -96.5 21t-75 59t-49 90.5t-17.5 114.5q0 61 16 113.5t46 91t73.5 60.5t98.5 22q52 0 90.5 -10.5t68.5 -23.5q9 -4 13 5z" />
    <glyph glyph-name="Egrave" unicode="&#xc8;" horiz-adv-x="546" 
d="M535 0q9 0 9 10v61q0 10 -9 10h-333v250h273q10 0 10 10v63q0 10 -10 10h-273v217h300q9 0 9 9v62q0 10 -9 10h-446q-10 0 -10 -10v-58q0 -9 10 -9h48v-558h-48q-10 0 -10 -10v-57q0 -10 10 -10h479zM454 741q5 -1 8 2t3 8v57q0 7 -7 9l-300 63q-5 1 -8.5 -2t-3.5 -8v-71
q0 -8 8 -10z" />
    <glyph glyph-name="Eacute" unicode="&#xc9;" horiz-adv-x="546" 
d="M535 0q9 0 9 10v61q0 10 -9 10h-333v250h273q10 0 10 10v63q0 10 -10 10h-273v217h300q9 0 9 9v62q0 10 -9 10h-446q-10 0 -10 -10v-58q0 -9 10 -9h48v-558h-48q-10 0 -10 -10v-57q0 -10 10 -10h479zM461 789q7 2 7 10v71q0 5 -3.5 8t-7.5 2l-300 -63q-8 -2 -8 -9v-57
q0 -5 3.5 -8t8.5 -2z" />
    <glyph glyph-name="Ecircumflex" unicode="&#xca;" horiz-adv-x="546" 
d="M535 0q9 0 9 10v61q0 10 -9 10h-333v251h273q10 0 10 9v63q0 10 -10 10h-273v217h300q9 0 9 10v61q0 10 -9 10h-446q-10 0 -10 -10v-57q0 -10 10 -10h48v-558h-48q-10 0 -10 -9v-58q0 -10 10 -10h479zM484 744q5 -1 8.5 1.5t3.5 7.5v55q0 7 -6 9l-190 83q-4 2 -8 0
l-188 -83q-6 -2 -6 -9v-55q0 -11 13 -9l185 66z" />
    <glyph glyph-name="Edieresis" unicode="&#xcb;" horiz-adv-x="546" 
d="M535 0q9 0 9 10v61q0 10 -9 10h-333v250h273q10 0 10 10v63q0 9 -10 9h-273v217h300q9 0 9 10v62q0 10 -9 10h-446q-10 0 -10 -10v-58q0 -10 10 -10h48v-557h-48q-10 0 -10 -10v-57q0 -10 10 -10h479zM245 803q0 26 -17.5 44.5t-43.5 18.5t-44 -18.5t-18 -44.5t18 -44
t44 -18t43.5 18t17.5 44zM481 803q0 26 -18 44.5t-44 18.5t-43.5 -18.5t-17.5 -44.5t17.5 -44t43.5 -18t44 18t18 44z" />
    <glyph glyph-name="Igrave" unicode="&#xcc;" horiz-adv-x="282" 
d="M246 0q10 0 10 10v57q0 10 -10 10h-48v558h48q10 0 10 9v58q0 10 -10 10h-191q-10 0 -10 -10v-58q0 -9 10 -9h47v-558h-47q-10 0 -10 -10v-57q0 -10 10 -10h191zM267 741q5 -1 8 2t3 8v57q0 7 -7 9l-294 63q-4 1 -7.5 -2t-3.5 -8v-71q0 -8 8 -10z" />
    <glyph glyph-name="Iacute" unicode="&#xcd;" horiz-adv-x="282" 
d="M246 0q10 0 10 10v57q0 10 -10 10h-48v558h48q10 0 10 9v58q0 10 -10 10h-191q-10 0 -10 -10v-58q0 -9 10 -9h47v-558h-47q-10 0 -10 -10v-57q0 -10 10 -10h191zM304 789q7 2 7 10v71q0 5 -3.5 8t-7.5 2l-293 -63q-8 -2 -8 -9v-57q0 -5 3.5 -8t7.5 -2z" />
    <glyph glyph-name="Icircumflex" unicode="&#xce;" horiz-adv-x="286" 
d="M249 0q10 0 10 10v58q0 9 -10 9h-48v558h48q10 0 10 10v57q0 10 -10 10h-194q-9 0 -9 -10v-57q0 -10 9 -10h49v-558h-49q-9 0 -9 -9v-58q0 -10 9 -10h194zM339 744q5 -1 8.5 1.5t3.5 7.5v55q0 7 -6 9l-188 83q-4 2 -8 0l-186 -83q-6 -2 -6 -9v-55q0 -11 13 -9l183 66z
" />
    <glyph glyph-name="Idieresis" unicode="&#xcf;" horiz-adv-x="284" 
d="M248 0q9 0 9 10v57q0 10 -9 10h-48v557h48q9 0 9 10v58q0 10 -9 10h-193q-10 0 -10 -10v-58q0 -10 10 -10h48v-557h-48q-10 0 -10 -10v-57q0 -10 10 -10h193zM97 803q0 26 -17.5 44.5t-43.5 18.5t-43.5 -18.5t-17.5 -44.5t17.5 -44t43.5 -18t43.5 18t17.5 44zM328 803
q0 26 -17 44.5t-43 18.5t-43.5 -18.5t-17.5 -44.5t17.5 -44t43.5 -18t43 18t17 44z" />
    <glyph glyph-name="Eth" unicode="&#xd0;" horiz-adv-x="674" 
d="M642 354q0 75 -23 139.5t-69 112.5t-115.5 75t-163.5 27h-215q-10 0 -10 -10v-57q0 -10 10 -10h49v-236h-58q-9 0 -9 -10v-59q0 -10 9 -10h58v-239h-49q-10 0 -10 -10v-57q0 -10 10 -10h215q94 0 163.5 27t115.5 74.5t69 112.5t23 140zM535 354q0 -60 -18.5 -110.5
t-50.5 -86.5t-76 -56t-96 -20h-91v235h126q10 0 10 10v59q0 10 -10 10h-126v232h79q56 0 102.5 -20t80 -56.5t52 -86.5t18.5 -110z" />
    <glyph glyph-name="Ntilde" unicode="&#xd1;" horiz-adv-x="764" 
d="M722 635q10 0 10 9v58q0 10 -10 10h-132q-10 0 -10 -10v-555l-369 561q-1 2 -3.5 3t-4.5 1h-157q-9 0 -9 -10v-58q0 -9 9 -9h49v-558h-49q-9 0 -9 -10v-57q0 -10 9 -10h133q9 0 9 10v556l370 -562q2 -4 7 -4h99q9 0 9 10v625h49zM580 886h-51q-7 0 -9 -8
q-3 -14 -11.5 -27t-26.5 -13q-20 0 -36.5 4t-35.5 10q-3 1 -5.5 2t-5.5 2h1q-18 6 -36.5 9.5t-50.5 3.5q-27 0 -47.5 -10.5t-34.5 -27.5t-22 -38t-10 -42q-1 -5 2 -8t8 -3h50q8 0 10 8q3 14 12 27t30 13q17 0 31.5 -3.5t27.5 -7.5l-1 1q5 -2 10 -3t8 -2q6 -2 10 -3
q18 -5 38.5 -9t49.5 -4q26 0 45 10.5t31.5 27.5t19.5 38t9 42z" />
    <glyph glyph-name="Ograve" unicode="&#xd2;" horiz-adv-x="754" 
d="M721 356q0 81 -21.5 149.5t-63.5 118.5t-105 78t-145 28t-144.5 -28t-105 -78t-64 -118.5t-21.5 -149.5t21.5 -149.5t64 -118.5t105 -78t144.5 -28t145 28t105 78t63.5 118.5t21.5 149.5zM614 356q0 -58 -13 -110.5t-40.5 -92t-71 -63t-103.5 -23.5t-103 23.5t-70.5 63
t-40.5 92t-13 110.5t13 111t40.5 92.5t70.5 63t103 23.5t103.5 -23.5t71 -63t40.5 -92.5t13 -111zM518 741q4 0 7.5 2.5t3.5 7.5v57q0 8 -8 10l-303 62q-4 1 -7.5 -1.5t-3.5 -7.5v-72q0 -8 8 -10z" />
    <glyph glyph-name="Oacute" unicode="&#xd3;" horiz-adv-x="754" 
d="M721 356q0 81 -21.5 149.5t-63.5 118.5t-105 78t-145 28t-144.5 -28t-105 -78t-64 -118.5t-21.5 -149.5t21.5 -149.5t64 -118.5t105 -78t144.5 -28t145 28t105 78t63.5 118.5t21.5 149.5zM614 356q0 -58 -13 -110.5t-40.5 -92t-71 -63t-103.5 -23.5t-103 23.5t-70.5 63
t-40.5 92t-13 110.5t13 111t40.5 92.5t70.5 63t103 23.5t103.5 -23.5t71 -63t40.5 -92.5t13 -111zM559 789q8 2 8 10v72q0 5 -3.5 7.5t-8.5 1.5l-303 -62q-7 -2 -7 -10v-57q0 -5 3.5 -7.5t7.5 -2.5z" />
    <glyph glyph-name="Ocircumflex" unicode="&#xd4;" horiz-adv-x="754" 
d="M721 356q0 81 -21.5 149.5t-63.5 118.5t-105 78t-145 28t-144.5 -28t-105 -78t-64 -118.5t-21.5 -149.5t21.5 -149.5t64 -118.5t105 -78t144.5 -28t145 28t105 78t63.5 118.5t21.5 149.5zM614 356q0 -58 -13 -110.5t-40.5 -92t-71 -63t-103.5 -23.5t-103 23.5t-70.5 63
t-40.5 92t-13 110.5t13 111t40.5 92.5t70.5 63t103 23.5t103.5 -23.5t71 -63t40.5 -92.5t13 -111zM577 745q12 -3 12 9v54q0 6 -5 9l-193 83q-5 2 -7 0l-191 -83q-6 -2 -6 -9v-54q0 -13 13 -9l187 65z" />
    <glyph glyph-name="Otilde" unicode="&#xd5;" horiz-adv-x="754" 
d="M721 356q0 81 -21.5 149.5t-63.5 118.5t-105 78t-145 28t-144.5 -28t-105 -78t-64 -118.5t-21.5 -149.5t21.5 -149.5t64 -118.5t105 -78t144.5 -28t145 28t105 78t63.5 118.5t21.5 149.5zM614 356q0 -58 -13 -110.5t-40.5 -92t-71 -63t-103.5 -23.5t-103 23.5t-70.5 63
t-40.5 92t-13 110.5t13 111t40.5 92.5t70.5 63t103 23.5t103.5 -23.5t71 -63t40.5 -92.5t13 -111zM583 886h-51q-8 0 -10 -7q-2 -15 -10.5 -28t-26.5 -13q-21 0 -37 4t-35 10q-3 1 -5.5 2t-5.5 2h1q-18 6 -37 10t-50 4q-27 0 -47.5 -11t-34.5 -28t-22 -38t-10 -42
q-1 -4 2 -7t8 -3h50q8 0 10 7q3 14 11.5 27.5t30.5 13.5q17 0 31 -3.5t28 -7.5l-1 1q10 -4 17 -6q3 -1 5.5 -1.5t5.5 -1.5q17 -5 38 -9t49 -4q26 0 45 11t31.5 28t19.5 38t9 42z" />
    <glyph glyph-name="Odieresis" unicode="&#xd6;" horiz-adv-x="754" 
d="M721 356q0 81 -21.5 149t-63.5 118t-105 78t-145 28t-144.5 -28t-105 -78t-64 -118t-21.5 -149t21.5 -149.5t64 -118.5t105 -78t144.5 -28t145 28t105 78t63.5 118.5t21.5 149.5zM614 356q0 -59 -13 -111.5t-40.5 -92t-71 -63t-103.5 -23.5t-103 23.5t-70.5 63t-40.5 92
t-13 111.5q0 58 13 110.5t40.5 92t70.5 63t103 23.5t103.5 -23.5t71 -63t40.5 -92t13 -110.5zM571 804q0 25 -18 43.5t-44 18.5t-44 -18.5t-18 -43.5q0 -26 18 -44.5t44 -18.5t44 18.5t18 44.5zM333 804q0 25 -18 43.5t-44 18.5t-44 -18.5t-18 -43.5q0 -26 18 -44.5
t44 -18.5t44 18.5t18 44.5z" />
    <glyph glyph-name="multiply" unicode="&#xd7;" horiz-adv-x="546" 
d="M507 462l-162 -162l161 -161q7 -7 0 -14l-49 -48q-7 -7 -14 0l-160 161l-161 -161q-7 -7 -14 0l-49 48q-4 7 0 14l161 161l-162 162q-6 6 0 13l49 49q7 7 14 0l162 -162l161 162q7 7 14 0l49 -49q7 -7 0 -13z" />
    <glyph glyph-name="Oslash" unicode="&#xd8;" horiz-adv-x="754" 
d="M721 355q0 75 -18.5 139t-54.5 112l65 77q6 6 -2 14l-43 36q-6 6 -14 -2l-59 -70q-40 32 -92 49t-117 17q-82 0 -144.5 -28t-105 -77.5t-64 -118t-21.5 -148.5q0 -76 19 -140t55 -112l-64 -76q-5 -6 1 -12l41 -37q3 -3 7.5 -2.5t6.5 3.5l60 71q41 -32 93.5 -50t115.5 -18
q82 0 145 28t105 78t63.5 118t21.5 149zM614 355q0 -58 -13 -110.5t-40.5 -92t-71 -63t-103.5 -23.5q-48 0 -84.5 14.5t-63.5 40.5l341 404q35 -76 35 -170zM159 355q0 58 13 110.5t40.5 92t70.5 62.5t103 23q49 0 85.5 -14.5t62.5 -40.5l-340 -404q-18 37 -26.5 80t-8.5 91
z" />
    <glyph glyph-name="Ugrave" unicode="&#xd9;" horiz-adv-x="717" 
d="M677 635q10 0 10 10v57q0 10 -10 10h-134q-10 0 -10 -10v-448q0 -101 -41 -144t-127 -43q-90 0 -130.5 43t-40.5 144v448q0 10 -10 10h-141q-9 0 -9 -10v-57q0 -10 9 -10h49v-396q0 -60 15.5 -108t48.5 -81.5t84.5 -51t123.5 -17.5q140 0 202.5 68.5t62.5 189.5v396h48z
M500 742q5 -1 8.5 1.5t3.5 7.5v57q0 8 -8 10l-302 62q-5 1 -8.5 -1.5t-3.5 -7.5v-72q0 -8 8 -10z" />
    <glyph glyph-name="Uacute" unicode="&#xda;" horiz-adv-x="717" 
d="M685 635q10 0 10 10v57q0 10 -10 10h-134q-10 0 -10 -10v-448q0 -101 -41 -144t-127 -43q-90 0 -130.5 43t-40.5 144v448q0 10 -10 10h-141q-9 0 -9 -10v-57q0 -10 9 -10h49v-396q0 -60 15.5 -108t48.5 -81.5t84.5 -51t123.5 -17.5q140 0 202.5 68.5t62.5 189.5v396h48z
M573 789q8 2 8 10v72q0 5 -3.5 7.5t-7.5 1.5l-303 -62q-8 -2 -8 -10v-57q0 -5 3.5 -7.5t8.5 -1.5z" />
    <glyph glyph-name="Ucircumflex" unicode="&#xdb;" horiz-adv-x="717" 
d="M679 635q10 0 10 10v58q0 10 -10 10h-134q-10 0 -10 -10v-449q0 -101 -41 -144t-127 -43q-90 0 -130.5 43t-40.5 144v449q0 10 -10 10h-141q-9 0 -9 -10v-58q0 -10 9 -10h49v-396q0 -60 15.5 -108t48.5 -81.5t84.5 -51t123.5 -17.5q140 0 202.5 68.5t62.5 189.5v396h48z
M557 745q12 -3 12 9v54q0 6 -5 9l-193 83q-4 2 -7 0l-190 -83q-6 -2 -6 -9v-54q0 -5 3.5 -8t8.5 -1l188 65z" />
    <glyph glyph-name="Udieresis" unicode="&#xdc;" horiz-adv-x="717" 
d="M685 635q10 0 10 9v58q0 10 -10 10h-134q-10 0 -10 -10v-448q0 -101 -41 -144.5t-127 -43.5q-90 0 -130.5 43.5t-40.5 144.5v448q0 10 -10 10h-141q-9 0 -9 -10v-58q0 -9 9 -9h49v-396q0 -60 15.5 -108t48.5 -81.5t84.5 -51t123.5 -17.5q140 0 202.5 68.5t62.5 189.5v396
h48zM315 804q0 25 -18 43.5t-44 18.5t-44 -18.5t-18 -43.5q0 -26 18 -44.5t44 -18.5t44 18.5t18 44.5zM553 804q0 25 -18 43.5t-44 18.5t-44 -18.5t-18 -43.5q0 -26 18 -44.5t44 -18.5t44 18.5t18 44.5z" />
    <glyph glyph-name="Yacute" unicode="&#xdd;" horiz-adv-x="587" 
d="M577 635q10 0 10 9v58q0 10 -10 10h-93q-7 0 -9 -5l-170 -299l-185 299q-3 5 -8 5h-101q-9 0 -9 -10v-58q0 -9 9 -9h43l199 -320v-238h-48q-10 0 -10 -10v-57q0 -10 10 -10h195q10 0 10 10v57q0 10 -10 10h-48v241l180 317h45zM492 789q8 2 8 10v71q0 5 -3.5 8t-8.5 2
l-302 -63q-7 -2 -7 -9v-57q0 -5 3 -8t8 -2z" />
    <glyph glyph-name="Thorn" unicode="&#xde;" 
d="M554 360q0 99 -62 154t-172 55h-119v62h50q10 0 10 10v57q0 10 -10 10h-195q-10 0 -10 -10v-57q0 -10 10 -10h48v-554h-48q-10 0 -10 -10v-57q0 -10 10 -10h201q10 0 10 10v57q0 10 -10 10h-56v78h119q110 0 172 52.5t62 152.5zM453 360q0 -63 -33.5 -93.5t-95.5 -30.5
h-123v252h123q62 0 95.5 -33t33.5 -95z" />
    <glyph glyph-name="germandbls" unicode="&#xdf;" horiz-adv-x="570" 
d="M541 225q0 88 -36.5 141t-106.5 73q37 20 61 59.5t24 96.5q0 40 -14.5 72t-40 54.5t-61 34.5t-76.5 12q-59 0 -100.5 -18t-67.5 -49.5t-37.5 -73.5t-11.5 -91v-526q0 -10 9 -10h75q10 0 10 10v529q0 29 5.5 57t19 49.5t36.5 34.5t58 13q45 0 72.5 -27t27.5 -79
t-29.5 -81.5t-77.5 -29.5h-21q-10 0 -10 -10v-64q0 -10 10 -10h22q71 0 115 -39.5t44 -120.5q0 -83 -38 -123t-101 -40q-17 0 -32 2t-38 9q-12 3 -12 -10v-60q0 -8 6 -10q26 -8 44 -10t40 -2q49 0 91.5 15t73.5 44.5t49 74t18 103.5z" />
    <glyph glyph-name="agrave" unicode="&#xe0;" horiz-adv-x="539" 
d="M516 50l-21 35q-5 7 -14 2q-6 -3 -15.5 -8t-17.5 -5t-11.5 5t-3.5 22v199q0 85 -45.5 132.5t-145.5 47.5q-42 0 -80 -9t-68 -26q-8 -4 -4 -13l20 -49q2 -4 6 -5t7 1q28 14 54.5 19.5t52.5 5.5q54 0 81.5 -24t27.5 -69v-30q-20 17 -53 29.5t-74 12.5q-43 0 -77 -12.5
t-57.5 -35t-36 -53t-12.5 -66.5q0 -78 46 -123t131 -45q51 0 86 18t53 39q7 -22 24 -33.5t49 -11.5q25 0 50 10t45 27zM340 158q0 -44 -33.5 -70t-81.5 -26q-51 0 -76 26t-25 68q0 41 24 67.5t74 26.5q58 0 88 -27t30 -65zM328 489q6 0 8 5t-1 10l-130 173q-1 2 -3.5 3
t-4.5 1h-75q-6 0 -9 -4.5t2 -9.5l140 -174q1 -2 3.5 -3t3.5 -1h66z" />
    <glyph glyph-name="aacute" unicode="&#xe1;" horiz-adv-x="539" 
d="M516 50l-21 35q-5 7 -14 2q-6 -3 -15.5 -8t-17.5 -5t-11.5 5t-3.5 22v199q0 85 -45.5 132.5t-145.5 47.5q-42 0 -80 -9t-68 -26q-8 -4 -4 -13l20 -49q2 -4 6 -5t7 1q28 14 54.5 19.5t52.5 5.5q54 0 81.5 -24t27.5 -69v-30q-20 17 -53 29.5t-74 12.5q-43 0 -77 -12.5
t-57.5 -35t-36 -53t-12.5 -66.5q0 -78 46 -123t131 -45q51 0 86 18t53 39q7 -22 24 -33.5t49 -11.5q25 0 50 10t45 27zM340 158q0 -44 -33.5 -70t-81.5 -26q-51 0 -76 26t-25 68q0 41 24 67.5t74 26.5q58 0 88 -27t30 -65zM402 674q4 5 1.5 9.5t-8.5 4.5h-76q-5 0 -7 -4
l-130 -173q-4 -5 -1.5 -10t8.5 -5h65q2 0 4.5 1t2.5 3z" />
    <glyph glyph-name="acircumflex" unicode="&#xe2;" horiz-adv-x="539" 
d="M516 50l-21 35q-5 7 -14 2q-6 -3 -15.5 -8t-17.5 -5t-11.5 5t-3.5 22v199q0 85 -45.5 132.5t-145.5 47.5q-42 0 -80 -9t-68 -26q-8 -4 -4 -13l20 -49q2 -4 6 -5t7 1q28 14 54.5 19.5t52.5 5.5q54 0 81.5 -24t27.5 -69v-30q-20 17 -53 29.5t-74 12.5q-43 0 -77 -12.5
t-57.5 -35t-36 -53t-12.5 -66.5q0 -78 46 -123t131 -45q51 0 86 18t53 39q7 -22 24 -33.5t49 -11.5q25 0 50 10t45 27zM340 158q0 -44 -33.5 -70t-81.5 -26q-51 0 -76 26t-25 68q0 41 24 67.5t74 26.5q58 0 88 -27t30 -65zM408 487q6 0 9 4t0 9l-107 184q-3 5 -9 5h-82
q-2 0 -4.5 -1.5t-3.5 -3.5l-106 -184q-3 -5 0 -9t8 -4h59q2 0 5 1.5t4 2.5l75 131l81 -131q1 -1 3.5 -2.5t4.5 -1.5h63z" />
    <glyph glyph-name="atilde" unicode="&#xe3;" horiz-adv-x="539" 
d="M516 50l-21 35q-5 7 -14 2q-6 -3 -15.5 -8t-17.5 -5t-11.5 5t-3.5 22v199q0 85 -45.5 132.5t-145.5 47.5q-42 0 -80 -9t-68 -26q-8 -4 -4 -13l20 -49q2 -4 6 -5t7 1q28 14 54.5 19.5t52.5 5.5q54 0 81.5 -24t27.5 -69v-30q-20 17 -53 29.5t-74 12.5q-43 0 -77 -12.5
t-57.5 -35t-36 -53t-12.5 -66.5q0 -78 46 -123t131 -45q51 0 86 18t53 39q7 -22 24 -33.5t49 -11.5q25 0 50 10t45 27zM340 158q0 -44 -33.5 -70t-81.5 -26q-51 0 -76 26t-25 68q0 41 24 67.5t74 26.5q58 0 88 -27t30 -65zM410 634h-51q-9 0 -9 -8q-2 -17 -10.5 -29.5
t-25.5 -12.5q-10 0 -18.5 2.5t-19.5 5.5l1 -1q3 -2 -1 -0.5t-6 2.5q-22 7 -37 10t-36 3q-25 0 -44.5 -10t-33 -25.5t-20.5 -35t-8 -38.5q0 -9 10 -9h51q7 0 9 7q4 16 12.5 29.5t25.5 13.5q11 0 22.5 -2.5t23.5 -6.5q3 -1 2.5 -0.5t2.5 -0.5l9 -3q14 -3 26 -5.5t36 -2.5
q23 0 41.5 9.5t31 25t19 34.5t6.5 39z" />
    <glyph glyph-name="adieresis" unicode="&#xe4;" horiz-adv-x="539" 
d="M516 50l-21 35q-5 7 -14 2q-6 -3 -15.5 -8t-17.5 -5t-11.5 5t-3.5 22v199q0 85 -45.5 132.5t-145.5 47.5q-42 0 -80 -9t-68 -26q-8 -4 -4 -13l20 -49q2 -4 6 -5t7 1q28 14 54.5 19.5t52.5 5.5q54 0 81.5 -24t27.5 -69v-30q-20 17 -53 29.5t-74 12.5q-43 0 -77 -12.5
t-57.5 -35t-36 -53t-12.5 -66.5q0 -78 46 -123t131 -45q51 0 86 18t53 39q7 -22 24 -33.5t49 -11.5q25 0 50 10t45 27zM340 158q0 -44 -33.5 -70t-81.5 -26q-51 0 -76 26t-25 68q0 41 24 67.5t74 26.5q58 0 88 -27t30 -65zM405 532q0 22 -17 38t-43 16t-43 -16t-17 -38
q0 -23 17 -38.5t43 -15.5t43 15.5t17 38.5zM219 532q0 22 -17 38t-43 16q-25 0 -42.5 -16t-17.5 -38q0 -23 17.5 -38.5t42.5 -15.5q26 0 43 15.5t17 38.5z" />
    <glyph glyph-name="aring" unicode="&#xe5;" horiz-adv-x="539" 
d="M516 50l-21 35q-5 7 -14 2q-6 -3 -15.5 -8t-17.5 -5t-11.5 5t-3.5 22v199q0 85 -45.5 132.5t-145.5 47.5q-42 0 -80 -9t-68 -26q-8 -4 -4 -13l20 -49q2 -4 6 -5t7 1q28 14 54.5 19.5t52.5 5.5q54 0 81.5 -24t27.5 -69v-30q-20 17 -53 29.5t-74 12.5q-43 0 -77 -12.5
t-57.5 -35t-36 -53t-12.5 -66.5q0 -78 46 -123t131 -45q51 0 86 18t53 39q7 -22 24 -33.5t49 -11.5q25 0 50 10t45 27zM356 594q0 21 -8 40t-22 34t-33.5 23.5t-42.5 8.5t-42.5 -8.5t-33.5 -23.5t-22 -34t-8 -40q0 -45 29.5 -75t76.5 -30q23 0 42.5 8t33.5 22.5t22 33.5
t8 41zM340 158q0 -44 -33.5 -70t-81.5 -26q-51 0 -76 26t-25 68q0 41 24 67.5t74 26.5q58 0 88 -27t30 -65zM297 594q0 -21 -15 -34t-32 -13q-18 0 -33 13t-15 34q0 20 15 33.5t33 13.5q17 0 32 -13.5t15 -33.5z" />
    <glyph glyph-name="ae" unicode="&#xe6;" horiz-adv-x="789" 
d="M755 198q9 0 9 10v32q0 117 -52 178.5t-154 61.5q-45 0 -86.5 -19t-64.5 -52q-25 40 -67 55.5t-98 15.5q-42 0 -80.5 -9t-69.5 -26q-6 -4 -3 -13l20 -49q2 -4 6 -5t8 1q28 14 55 19.5t53 5.5q54 0 82 -24t28 -69v-29q-20 16 -50.5 28.5t-78.5 12.5q-43 0 -77.5 -12.5
t-58.5 -35t-36.5 -53t-12.5 -66.5q0 -78 46.5 -123t141.5 -45q32 0 58 7.5t47 19.5t37 26.5t27 28.5q8 -12 22.5 -26.5t37 -26.5t53 -20.5t70.5 -8.5q64 0 100 10t57 22q5 2 5 9v62q0 6 -4.5 9t-9.5 0q-22 -13 -56.5 -23.5t-82.5 -10.5q-35 0 -60.5 12t-42.5 31t-26.5 42.5
t-12.5 46.5h321zM340 158q0 -44 -33 -70t-81 -26q-52 0 -77 26t-25 68q0 41 24 67.5t75 26.5q59 0 88 -27t29 -65zM555 406q56 0 80.5 -35.5t28.5 -98.5h-229q5 58 34.5 96t85.5 38z" />
    <glyph glyph-name="ccedilla" unicode="&#xe7;" horiz-adv-x="437" 
d="M435 439q2 10 -5 13q-23 10 -59.5 22t-84.5 12q-53 0 -97 -18.5t-75.5 -52t-48.5 -79t-17 -99.5q0 -47 11.5 -87.5t34.5 -72t56 -53t77 -30.5l-50 -65q-6 -8 1 -13l21 -20q5 -5 10 -2q11 5 23 9t24 4q15 0 27.5 -5.5t12.5 -20.5q0 -17 -17.5 -21t-38.5 -4q-23 0 -48 6.5
t-40 13.5q-13 4 -13 -9v-48q0 -3 2 -5.5t4 -3.5q28 -10 53 -15.5t55 -5.5q25 0 47.5 5t39.5 16t27.5 29t10.5 44q0 21 -9 36.5t-22.5 25.5t-29.5 15t-31 5h-16l19 23q42 1 79.5 12t59.5 20q6 2 6 9v64q0 6 -5 9t-10 0q-37 -20 -68 -27.5t-61 -7.5q-35 0 -62 13t-45.5 35.5
t-28 53.5t-9.5 68q0 33 8.5 63.5t25.5 53.5t44 36.5t64 13.5q40 0 68.5 -8t44.5 -16q9 -4 13 5z" />
    <glyph glyph-name="egrave" unicode="&#xe8;" horiz-adv-x="523" 
d="M466 198q10 0 10 10v32q0 117 -53 178.5t-153 61.5q-51 0 -92.5 -18t-70 -50.5t-44 -77.5t-15.5 -100q0 -51 14.5 -96t43 -78t72 -52.5t101.5 -19.5q62 0 97 10t60 22q5 2 5 9v62q0 6 -4.5 9t-9.5 0q-24 -13 -58 -23.5t-80 -10.5q-35 0 -60.5 12t-42.5 31t-26.5 42.5
t-12.5 46.5h319zM267 406q55 0 81 -35.5t29 -98.5h-229q8 63 36.5 98.5t82.5 35.5zM343 501q6 0 8 5t-1 10l-130 173q-1 2 -3.5 3t-4.5 1h-75q-6 0 -9 -4.5t2 -9.5l140 -174q1 -2 3.5 -3t3.5 -1h66z" />
    <glyph glyph-name="eacute" unicode="&#xe9;" horiz-adv-x="523" 
d="M466 198q10 0 10 10v32q0 117 -53 178.5t-153 61.5q-51 0 -92.5 -18t-70 -50.5t-44 -77.5t-15.5 -100q0 -51 14.5 -96t43 -78t72 -52.5t101.5 -19.5q62 0 97 10t60 22q5 2 5 9v62q0 6 -4.5 9t-9.5 0q-24 -13 -58 -23.5t-80 -10.5q-35 0 -60.5 12t-42.5 31t-26.5 42.5
t-12.5 46.5h319zM267 406q55 0 81 -35.5t29 -98.5h-229q8 63 36.5 98.5t82.5 35.5zM407 679q4 5 1.5 9.5t-8.5 4.5h-76q-5 0 -7 -4l-130 -173q-4 -5 -1.5 -10t8.5 -5h65q2 0 4.5 1t2.5 3z" />
    <glyph glyph-name="ecircumflex" unicode="&#xea;" horiz-adv-x="523" 
d="M466 198q10 0 10 10v32q0 117 -53 178.5t-153 61.5q-51 0 -92.5 -18t-70 -50.5t-44 -77.5t-15.5 -100q0 -51 14.5 -96t43 -78t72 -52.5t101.5 -19.5q62 0 97 10t60 22q5 2 5 9v62q0 6 -4.5 9t-9.5 0q-24 -13 -58 -23.5t-80 -10.5q-35 0 -60.5 12t-42.5 31t-26.5 42.5
t-12.5 46.5h319zM423 502q6 0 9 4t0 9l-107 184q-3 5 -9 5h-82q-2 0 -4.5 -1.5t-3.5 -3.5l-106 -184q-3 -5 0 -9t8 -4h59q2 0 5 1.5t4 2.5l75 131l81 -131q1 -1 3.5 -2.5t4.5 -1.5h63zM267 406q55 0 81 -35.5t29 -98.5h-229q8 63 36.5 98.5t82.5 35.5z" />
    <glyph glyph-name="edieresis" unicode="&#xeb;" horiz-adv-x="523" 
d="M466 198q10 0 10 10v32q0 117 -53 178.5t-153 61.5q-51 0 -92.5 -18t-70 -50.5t-44 -77.5t-15.5 -100q0 -51 14.5 -96t43 -78t72 -52.5t101.5 -19.5q62 0 97 10t60 22q5 2 5 9v62q0 6 -4.5 9t-9.5 0q-24 -13 -58 -23.5t-80 -10.5q-35 0 -60.5 12t-42.5 31t-26.5 42.5
t-12.5 46.5h319zM267 406q55 0 81 -35.5t29 -98.5h-229q8 63 36.5 98.5t82.5 35.5zM421 550q0 22 -17 38t-43 16t-43 -16t-17 -38q0 -23 17 -38.5t43 -15.5t43 15.5t17 38.5zM235 550q0 22 -17 38t-43 16q-25 0 -42.5 -16t-17.5 -38q0 -23 17.5 -38.5t42.5 -15.5
q26 0 43 15.5t17 38.5z" />
    <glyph glyph-name="igrave" unicode="&#xec;" horiz-adv-x="268" 
d="M258 44l-20 35q-5 7 -14 3q-5 -4 -14 -9t-17 -5t-12 5t-4 22v291q0 33 -18 57.5t-60 24.5q-22 0 -46.5 -10t-45.5 -26q-7 -5 -3 -13l20 -33q2 -4 6 -5t8 2q14 12 31 12q8 0 12.5 -5.5t4.5 -22.5v-279q0 -44 16.5 -69t61.5 -25q23 0 47.5 10.5t44.5 27.5zM211 489q6 0 8 5
t-1 10l-130 173q-1 2 -3.5 3t-4.5 1h-75q-6 0 -9 -4.5t2 -9.5l140 -174q1 -2 3.5 -3t3.5 -1h66z" />
    <glyph glyph-name="iacute" unicode="&#xed;" horiz-adv-x="268" 
d="M258 44l-20 35q-5 7 -14 3q-5 -4 -14 -9t-17 -5t-12 5t-4 22v291q0 33 -18 57.5t-60 24.5q-22 0 -46.5 -10t-45.5 -26q-7 -5 -3 -13l20 -33q2 -4 6 -5t8 2q14 12 31 12q8 0 12.5 -5.5t4.5 -22.5v-279q0 -44 16.5 -69t61.5 -25q23 0 47.5 10.5t44.5 27.5zM236 667
q4 5 1.5 9.5t-8.5 4.5h-76q-5 0 -7 -4l-130 -173q-4 -5 -1.5 -10t8.5 -5h65q2 0 4.5 1t2.5 3z" />
    <glyph glyph-name="icircumflex" unicode="&#xee;" horiz-adv-x="268" 
d="M258 44l-20 35q-5 7 -14 3q-5 -4 -14 -9t-17 -5t-12 5t-4 22v291q0 33 -18 57.5t-60 24.5q-22 0 -46.5 -10t-45.5 -26q-7 -5 -3 -13l20 -33q2 -4 6 -5t8 2q14 12 31 12q8 0 12.5 -5.5t4.5 -22.5v-279q0 -44 16.5 -69t61.5 -25q23 0 47.5 10.5t44.5 27.5zM270 487q6 0 9 4
t0 9l-107 184q-3 5 -9 5h-82q-2 0 -4.5 -1.5t-3.5 -3.5l-106 -184q-3 -5 0 -9t8 -4h59q2 0 5 1.5t4 2.5l75 131l81 -131q1 -1 3.5 -2.5t4.5 -1.5h63z" />
    <glyph glyph-name="idieresis" unicode="&#xef;" horiz-adv-x="268" 
d="M258 44l-20 35q-5 7 -14 3q-5 -4 -14 -9t-17 -5t-12 5t-4 22v291q0 33 -18 57.5t-60 24.5q-22 0 -46.5 -10t-45.5 -26q-7 -5 -3 -13l20 -33q2 -4 6 -5t8 2q14 12 31 12q8 0 12.5 -5.5t4.5 -22.5v-279q0 -44 16.5 -69t61.5 -25q23 0 47.5 10.5t44.5 27.5zM270 548
q0 22 -17 38t-43 16t-43 -16t-17 -38q0 -23 17 -38.5t43 -15.5t43 15.5t17 38.5zM84 548q0 22 -17 38t-43 16q-25 0 -42.5 -16t-17.5 -38q0 -23 17.5 -38.5t42.5 -15.5q26 0 43 15.5t17 38.5z" />
    <glyph glyph-name="eth" unicode="&#xf0;" horiz-adv-x="541" 
d="M506 276q0 71 -15 130t-39.5 107t-56.5 86t-65 67l61 51q8 8 2 14l-29 34q-8 8 -13 1l-72 -61q-35 25 -67 40t-52 22q-8 3 -12 -5l-23 -48q-5 -9 5 -13q17 -8 39.5 -19.5t46.5 -28.5l-77 -65q-3 -3 -4 -7t2 -7l29 -35q2 -3 6 -4t7 2l87 73q32 -29 60.5 -67t48.5 -89
q-27 18 -58 25.5t-59 7.5q-49 0 -88.5 -18t-68 -51t-44 -79t-15.5 -101q0 -56 15.5 -102t45.5 -79t72.5 -51t96.5 -18q109 0 171.5 74t62.5 214zM404 249q0 -38 -8 -71.5t-24.5 -58.5t-41 -39.5t-58.5 -14.5t-58.5 14t-41 38t-24.5 55.5t-8 65.5t8 65t24.5 55t41 38t58.5 14
t58.5 -13.5t41 -35.5t24.5 -51.5t8 -60.5z" />
    <glyph glyph-name="ntilde" unicode="&#xf1;" horiz-adv-x="587" 
d="M583 44l-21 35q-2 4 -6.5 4.5t-8.5 -1.5q-6 -4 -15.5 -9t-17.5 -5q-7 0 -11 4t-4 18v5l-1 215q0 77 -42.5 123.5t-134.5 46.5q-49 0 -84.5 -20t-56.5 -48q-6 24 -23 40.5t-52 16.5q-23 0 -47 -10.5t-46 -26.5q-8 -6 -3 -12l20 -34q2 -4 6.5 -5t7.5 2q7 5 16 9t17 4
q9 0 13.5 -6t4.5 -22v-358q0 -10 9 -10h75q9 0 9 10v219q0 34 7 65t22.5 54.5t39.5 37.5t58 14q47 0 67.5 -29.5t20.5 -79.5v-203q0 -44 18 -69t64 -25q25 0 50 10.5t46 27.5zM448 634h-51q-9 0 -9 -8q-2 -17 -10.5 -29.5t-25.5 -12.5q-10 0 -18.5 2.5t-19.5 5.5l1 -1
q3 -2 -1 -0.5t-6 2.5q-22 7 -37 10t-36 3q-25 0 -44.5 -10t-33 -25.5t-20.5 -35t-8 -38.5q0 -9 10 -9h51q7 0 9 7q4 16 12.5 29.5t25.5 13.5q11 0 22.5 -2.5t23.5 -6.5q3 -1 2.5 -0.5t2.5 -0.5l9 -3q14 -3 26 -5.5t36 -2.5q23 0 41.5 9.5t31 25t19 34.5t6.5 39z" />
    <glyph glyph-name="ograve" unicode="&#xf2;" horiz-adv-x="560" 
d="M508 234q0 55 -15.5 100.5t-45.5 77.5t-72.5 50t-96.5 18t-96.5 -18t-72.5 -50t-45.5 -77.5t-15.5 -100.5t15.5 -100t45.5 -77.5t72.5 -50.5t96.5 -18t96.5 18t72.5 50.5t45.5 77.5t15.5 100zM410 234q0 -33 -8 -64t-24.5 -54.5t-41 -37.5t-58.5 -14t-58.5 14t-41 37.5
t-24.5 54.5t-8 64q0 34 8 65t24.5 54.5t41 37.5t58.5 14t58.5 -14t41 -37.5t24.5 -54.5t8 -65zM377 489q6 0 8 5t-1 10l-130 173q-1 2 -3.5 3t-4.5 1h-75q-6 0 -9 -4.5t2 -9.5l140 -174q1 -2 3.5 -3t3.5 -1h66z" />
    <glyph glyph-name="oacute" unicode="&#xf3;" horiz-adv-x="560" 
d="M508 234q0 55 -15.5 100.5t-45.5 77.5t-72.5 50t-96.5 18t-96.5 -18t-72.5 -50t-45.5 -77.5t-15.5 -100.5t15.5 -100t45.5 -77.5t72.5 -50.5t96.5 -18t96.5 18t72.5 50.5t45.5 77.5t15.5 100zM410 234q0 -33 -8 -64t-24.5 -54.5t-41 -37.5t-58.5 -14t-58.5 14t-41 37.5
t-24.5 54.5t-8 64q0 34 8 65t24.5 54.5t41 37.5t58.5 14t58.5 -14t41 -37.5t24.5 -54.5t8 -65zM421 667q4 5 1.5 9.5t-8.5 4.5h-76q-5 0 -7 -4l-130 -173q-4 -5 -1.5 -10t8.5 -5h65q2 0 4.5 1t2.5 3z" />
    <glyph glyph-name="ocircumflex" unicode="&#xf4;" horiz-adv-x="560" 
d="M508 234q0 55 -15.5 100.5t-45.5 77.5t-72.5 50t-96.5 18t-96.5 -18t-72.5 -50t-45.5 -77.5t-15.5 -100.5t15.5 -100t45.5 -77.5t72.5 -50.5t96.5 -18t96.5 18t72.5 50.5t45.5 77.5t15.5 100zM410 234q0 -33 -8 -64t-24.5 -54.5t-41 -37.5t-58.5 -14t-58.5 14t-41 37.5
t-24.5 54.5t-8 64q0 34 8 65t24.5 54.5t41 37.5t58.5 14t58.5 -14t41 -37.5t24.5 -54.5t8 -65zM432 487q6 0 9 4t0 9l-107 184q-3 5 -9 5h-82q-2 0 -4.5 -1.5t-3.5 -3.5l-106 -184q-3 -5 0 -9t8 -4h59q2 0 5 1.5t4 2.5l75 131l81 -131q1 -1 3.5 -2.5t4.5 -1.5h63z" />
    <glyph glyph-name="otilde" unicode="&#xf5;" horiz-adv-x="560" 
d="M508 234q0 55 -15.5 100.5t-45.5 77.5t-72.5 50t-96.5 18t-96.5 -18t-72.5 -50t-45.5 -77.5t-15.5 -100.5t15.5 -100t45.5 -77.5t72.5 -50.5t96.5 -18t96.5 18t72.5 50.5t45.5 77.5t15.5 100zM410 234q0 -33 -8 -64t-24.5 -54.5t-41 -37.5t-58.5 -14t-58.5 14t-41 37.5
t-24.5 54.5t-8 64q0 34 8 65t24.5 54.5t41 37.5t58.5 14t58.5 -14t41 -37.5t24.5 -54.5t8 -65zM433 634h-51q-9 0 -9 -8q-2 -17 -10.5 -29.5t-25.5 -12.5q-10 0 -18.5 2.5t-19.5 5.5l1 -1q3 -2 -1 -0.5t-6 2.5q-22 7 -37 10t-36 3q-25 0 -44.5 -10t-33 -25.5t-20.5 -35
t-8 -38.5q0 -9 10 -9h51q7 0 9 7q4 16 12.5 29.5t25.5 13.5q11 0 22.5 -2.5t23.5 -6.5q3 -1 2.5 -0.5t2.5 -0.5l9 -3q14 -3 26 -5.5t36 -2.5q23 0 41.5 9.5t31 25t19 34.5t6.5 39z" />
    <glyph glyph-name="odieresis" unicode="&#xf6;" horiz-adv-x="560" 
d="M508 234q0 55 -15.5 100.5t-45.5 77.5t-72.5 50t-96.5 18t-96.5 -18t-72.5 -50t-45.5 -77.5t-15.5 -100.5t15.5 -100t45.5 -77.5t72.5 -50.5t96.5 -18t96.5 18t72.5 50.5t45.5 77.5t15.5 100zM410 234q0 -33 -8 -64t-24.5 -54.5t-41 -37.5t-58.5 -14t-58.5 14t-41 37.5
t-24.5 54.5t-8 64q0 34 8 65t24.5 54.5t41 37.5t58.5 14t58.5 -14t41 -37.5t24.5 -54.5t8 -65zM427 532q0 22 -17 38t-43 16t-43 -16t-17 -38q0 -23 17 -38.5t43 -15.5t43 15.5t17 38.5zM241 532q0 22 -17 38t-43 16q-25 0 -42.5 -16t-17.5 -38q0 -23 17.5 -38.5t42.5 -15.5
q26 0 43 15.5t17 38.5z" />
    <glyph glyph-name="divide" unicode="&#xf7;" horiz-adv-x="549" 
d="M535 255q10 0 10 10v69q0 10 -10 10h-502q-10 0 -10 -10v-69q0 -10 10 -10h502zM349 457q0 26 -19.5 45.5t-45.5 19.5t-45 -18.5t-19 -46.5q0 -26 19 -45t45 -19t45.5 18.5t19.5 45.5zM349 142q0 26 -19.5 45t-45.5 19t-45 -18.5t-19 -45.5q0 -26 19 -45t45 -19t45.5 18
t19.5 46z" />
    <glyph glyph-name="oslash" unicode="&#xf8;" horiz-adv-x="537" 
d="M508 235q0 98 -49 162l39 46q3 2 2.5 6t-3.5 7l-33 30q-8 7 -15 0l-37 -43q-27 18 -60.5 28t-73.5 10q-54 0 -96.5 -18t-72.5 -50.5t-45.5 -77.5t-15.5 -100q0 -98 49 -164l-40 -46q-2 -3 -1 -7t3 -6l35 -29q3 -3 6.5 -2t6.5 4l36 42q27 -18 60.5 -28.5t74.5 -10.5
q54 0 96.5 18t72.5 50.5t45.5 78t15.5 100.5zM410 235q0 -34 -8 -65t-24.5 -54.5t-41 -37.5t-58.5 -14q-26 0 -45.5 7t-34.5 20l196 230q8 -20 12 -41.5t4 -44.5zM146 235q0 33 8 64t24.5 54.5t41 37.5t58.5 14q24 0 44 -7.5t35 -20.5l-196 -230q-8 20 -11.5 42t-3.5 46z
" />
    <glyph glyph-name="ugrave" unicode="&#xf9;" horiz-adv-x="586" 
d="M577 50l-21 34q-2 4 -6.5 4.5t-8.5 -1.5q-6 -3 -15.5 -8t-17.5 -5t-11.5 5t-3.5 22v358q0 9 -10 9h-74q-10 0 -10 -9v-219q0 -34 -7 -65t-22.5 -54.5t-39.5 -37.5t-58 -14q-47 0 -67 30t-20 79v208q0 33 -19 57.5t-63 24.5q-23 0 -48 -10t-47 -26q-3 -2 -4 -6t1 -6
l20 -34q2 -4 6.5 -5t7.5 2q7 5 16 9t17 4t12.5 -5t4.5 -19v-214q0 -77 42 -123.5t135 -46.5q48 0 83 19.5t57 48.5q5 -25 22.5 -40.5t49.5 -15.5q25 0 50 10t46 27zM347 489q6 0 8 5t-1 10l-130 173q-1 2 -3.5 3t-4.5 1h-75q-6 0 -9 -4.5t2 -9.5l140 -174q1 -2 3.5 -3
t3.5 -1h66z" />
    <glyph glyph-name="uacute" unicode="&#xfa;" horiz-adv-x="586" 
d="M577 50l-21 34q-2 4 -6.5 4.5t-8.5 -1.5q-6 -3 -15.5 -8t-17.5 -5t-11.5 5t-3.5 22v358q0 9 -10 9h-74q-10 0 -10 -9v-219q0 -34 -7 -65t-22.5 -54.5t-39.5 -37.5t-58 -14q-47 0 -67 30t-20 79v208q0 33 -19 57.5t-63 24.5q-23 0 -48 -10t-47 -26q-3 -2 -4 -6t1 -6
l20 -34q2 -4 6.5 -5t7.5 2q7 5 16 9t17 4t12.5 -5t4.5 -19v-214q0 -77 42 -123.5t135 -46.5q48 0 83 19.5t57 48.5q5 -25 22.5 -40.5t49.5 -15.5q25 0 50 10t46 27zM421 667q4 5 1.5 9.5t-8.5 4.5h-76q-5 0 -7 -4l-130 -173q-4 -5 -1.5 -10t8.5 -5h65q2 0 4.5 1t2.5 3z" />
    <glyph glyph-name="ucircumflex" unicode="&#xfb;" horiz-adv-x="586" 
d="M577 50l-21 34q-2 4 -6.5 4.5t-8.5 -1.5q-6 -3 -15.5 -8t-17.5 -5t-11.5 5t-3.5 22v358q0 9 -10 9h-74q-10 0 -10 -9v-219q0 -34 -7 -65t-22.5 -54.5t-39.5 -37.5t-58 -14q-47 0 -67 30t-20 79v208q0 33 -19 57.5t-63 24.5q-23 0 -48 -10t-47 -26q-3 -2 -4 -6t1 -6
l20 -34q2 -4 6.5 -5t7.5 2q7 5 16 9t17 4t12.5 -5t4.5 -19v-214q0 -77 42 -123.5t135 -46.5q48 0 83 19.5t57 48.5q5 -25 22.5 -40.5t49.5 -15.5q25 0 50 10t46 27zM423 487q6 0 9 4t0 9l-107 184q-3 5 -9 5h-82q-2 0 -4.5 -1.5t-3.5 -3.5l-106 -184q-3 -5 0 -9t8 -4h59
q2 0 5 1.5t4 2.5l75 131l81 -131q1 -1 3.5 -2.5t4.5 -1.5h63z" />
    <glyph glyph-name="udieresis" unicode="&#xfc;" horiz-adv-x="586" 
d="M577 50l-21 34q-2 4 -6.5 4.5t-8.5 -1.5q-6 -3 -15.5 -8t-17.5 -5t-11.5 5t-3.5 22v358q0 9 -10 9h-74q-10 0 -10 -9v-219q0 -34 -7 -65t-22.5 -54.5t-39.5 -37.5t-58 -14q-47 0 -67 30t-20 79v208q0 33 -19 57.5t-63 24.5q-23 0 -48 -10t-47 -26q-3 -2 -4 -6t1 -6
l20 -34q2 -4 6.5 -5t7.5 2q7 5 16 9t17 4t12.5 -5t4.5 -19v-214q0 -77 42 -123.5t135 -46.5q48 0 83 19.5t57 48.5q5 -25 22.5 -40.5t49.5 -15.5q25 0 50 10t46 27zM433 532q0 22 -17 38t-43 16t-43 -16t-17 -38q0 -23 17 -38.5t43 -15.5t43 15.5t17 38.5zM247 532
q0 22 -17 38t-43 16q-25 0 -42.5 -16t-17.5 -38q0 -23 17.5 -38.5t42.5 -15.5q26 0 43 15.5t17 38.5z" />
    <glyph glyph-name="yacute" unicode="&#xfd;" 
d="M490 27v438q0 10 -10 10h-74q-9 0 -9 -10v-229q-1 -33 -8.5 -63t-22.5 -53t-38.5 -36.5t-56.5 -13.5q-48 0 -67.5 30.5t-19.5 79.5v211q0 34 -19 59t-62 25q-23 0 -48.5 -10.5t-46.5 -26.5q-8 -6 -3 -13l20 -34q2 -4 6 -5t8 2q7 5 15.5 9t17.5 4q8 0 12 -5.5t4 -19.5
v-216q0 -78 42 -125t134 -47q46 0 81 19.5t56 45.5v-35q0 -38 -6 -69.5t-22 -54t-44 -35.5t-72 -13q-47 0 -81 9.5t-57 20.5q-5 2 -9 0t-4 -8v-64q0 -7 5 -9q27 -11 64 -19.5t87 -8.5q118 0 173 67t55 193zM438 667q4 5 1.5 9.5t-8.5 4.5h-76q-5 0 -7 -4l-130 -173
q-4 -5 -1.5 -10t8.5 -5h65q2 0 4.5 1t2.5 3z" />
    <glyph glyph-name="thorn" unicode="&#xfe;" horiz-adv-x="584" 
d="M555 239q0 54 -14 100t-41.5 79.5t-68.5 52.5t-95 19q-42 0 -81.5 -16.5t-68.5 -48.5v260q0 17 -4 33t-13.5 28t-25 19.5t-37.5 7.5q-23 0 -48 -10.5t-47 -27.5q-3 -2 -4 -6t1 -6l20 -35q2 -4 6.5 -5t7.5 2q7 5 16 9t17 4q9 0 14 -6t5 -22v-885q0 -9 9 -9h75q10 0 10 9
v265q53 -62 156 -62q49 0 88 19t66.5 53t42 79.5t14.5 99.5zM454 239q0 -34 -7.5 -65t-22.5 -54t-39 -37t-57 -14t-59 14t-44 37t-27.5 54t-9.5 65t9.5 65t28 54.5t45 37.5t59.5 14t56.5 -14t38.5 -37.5t22 -54.5t7 -65z" />
    <glyph glyph-name="ydieresis" unicode="&#xff;" 
d="M490 27v438q0 10 -10 10h-74q-9 0 -9 -10v-229q-1 -33 -8.5 -63t-22.5 -53t-38.5 -36.5t-56.5 -13.5q-48 0 -67.5 30.5t-19.5 79.5v211q0 34 -19 59t-62 25q-23 0 -48.5 -10.5t-46.5 -26.5q-8 -6 -3 -13l20 -34q2 -4 6 -5t8 2q7 5 15.5 9t17.5 4q8 0 12 -5.5t4 -19.5
v-216q0 -78 42 -125t134 -47q46 0 81 19.5t56 45.5v-35q0 -38 -6 -69.5t-22 -54t-44 -35.5t-72 -13q-47 0 -81 9.5t-57 20.5q-5 2 -9 0t-4 -8v-64q0 -7 5 -9q27 -11 64 -19.5t87 -8.5q118 0 173 67t55 193zM430 532q0 22 -17 38t-43 16t-43 -16t-17 -38q0 -23 17 -38.5
t43 -15.5t43 15.5t17 38.5zM244 532q0 22 -17 38t-43 16q-25 0 -42.5 -16t-17.5 -38q0 -23 17.5 -38.5t42.5 -15.5q26 0 43 15.5t17 38.5z" />
    <glyph glyph-name="Amacron" unicode="&#x100;" horiz-adv-x="661" 
d="M651 0q10 0 10 10v57q0 10 -10 10h-51l-213 624q-2 7 -9 7h-82q-7 0 -9 -7l-228 -624h-49q-9 0 -9 -10v-57q0 -10 9 -10h109q7 0 9 7l82 233h231l77 -233q2 -7 10 -7h123zM524 750q9 0 9 8v50q0 8 -9 8h-382q-10 0 -10 -8v-50q0 -8 10 -8h382zM331 579l82 -255h-174z" />
    <glyph glyph-name="amacron" unicode="&#x101;" horiz-adv-x="518" 
d="M516 50l-21 35q-5 7 -14 2q-6 -3 -15.5 -8t-17.5 -5t-11.5 5t-3.5 22v199q0 85 -45.5 132.5t-145.5 47.5q-42 0 -80 -9t-68 -26q-8 -4 -4 -13l20 -49q2 -4 6 -5t7 1q28 14 54.5 19.5t52.5 5.5q54 0 81.5 -24t27.5 -69v-30q-20 17 -53 29.5t-74 12.5q-43 0 -77 -12.5
t-57.5 -35t-36 -53t-12.5 -66.5q0 -78 46 -123t131 -45q51 0 86 18t53 39q7 -22 24 -33.5t49 -11.5q25 0 50 10t45 27zM340 158q0 -44 -33.5 -70t-81.5 -26q-51 0 -76 26t-25 68q0 41 24 67.5t74 26.5q58 0 88 -27t30 -65zM415 503q10 0 10 8v47q0 7 -10 7h-315q-9 0 -9 -7
v-47q0 -8 9 -8h315z" />
    <glyph glyph-name="Abreve" unicode="&#x102;" horiz-adv-x="661" 
d="M651 0q10 0 10 10v57q0 10 -10 10h-51l-213 624q-2 7 -9 7h-82q-7 0 -9 -7l-228 -624h-49q-9 0 -9 -10v-57q0 -10 9 -10h109q7 0 9 7l82 233h231l77 -233q2 -7 10 -7h123zM515 888h-57q-8 0 -10 -6q-9 -29 -36 -44.5t-79 -15.5t-78.5 15.5t-35.5 44.5q-2 6 -9 6h-62
q-11 0 -9 -10q7 -63 54.5 -96t138.5 -33q90 0 137.5 33t55.5 96zM331 579l82 -255h-174z" />
    <glyph glyph-name="abreve" unicode="&#x103;" horiz-adv-x="518" 
d="M516 50l-21 35q-5 7 -14 2q-6 -3 -15.5 -8t-17.5 -5t-11.5 5t-3.5 22v199q0 85 -45.5 132.5t-145.5 47.5q-42 0 -80 -9t-68 -26q-8 -4 -4 -13l20 -49q2 -4 6 -5t7 1q28 14 54.5 19.5t52.5 5.5q54 0 81.5 -24t27.5 -69v-30q-20 17 -53 29.5t-74 12.5q-43 0 -77 -12.5
t-57.5 -35t-36 -53t-12.5 -66.5q0 -78 46 -123t131 -45q51 0 86 18t53 39q7 -22 24 -33.5t49 -11.5q25 0 50 10t45 27zM340 158q0 -44 -33.5 -70t-81.5 -26q-51 0 -76 26t-25 68q0 41 24 67.5t74 26.5q58 0 88 -27t30 -65zM404 666h-52q-8 0 -10 -7q-13 -85 -85 -85
q-38 0 -58.5 20.5t-27.5 63.5q-2 8 -9 8h-57q-9 0 -9 -10q5 -79 47.5 -115.5t111.5 -36.5t111 36.5t48 115.5z" />
    <glyph glyph-name="Aogonek" unicode="&#x104;" horiz-adv-x="661" 
d="M633 -162v47q0 5 -4 8t-9 0q-18 -9 -34 -14t-34 -5q-20 0 -30.5 9t-10.5 24q0 14 7 28t17.5 26t22.5 22t22 17h71q10 0 10 10v57q0 10 -10 10h-51l-213 624q-2 7 -9 7h-82q-7 0 -9 -7l-228 -624h-49q-9 0 -9 -10v-57q0 -10 9 -10h109q7 0 9 7l82 233h231l75 -227
q-37 -24 -60.5 -54.5t-23.5 -72.5q0 -21 8.5 -36.5t23 -26t33.5 -15.5t39 -5q25 0 46 6.5t47 20.5zM331 579l82 -255h-174z" />
    <glyph glyph-name="aogonek" unicode="&#x105;" horiz-adv-x="437" 
d="M426 -162v47q0 5 -4 8t-9 0q-18 -9 -34 -14t-34 -5q-20 0 -30.5 9t-10.5 24t7.5 29t18.5 26.5t23.5 22.5t22.5 17q3 3 3 4q11 3 20 7t17 7q6 2 6 9v63q0 6 -5 9t-10 0q-37 -20 -68 -27.5t-61 -7.5q-35 0 -62 12.5t-45.5 35t-28 53.5t-9.5 67q0 33 8.5 63t25.5 53t44 36.5
t64 13.5q40 0 68.5 -8.5t44.5 -15.5q9 -4 13 5l22 53q2 10 -5 13q-23 9 -59.5 21t-84.5 12q-53 0 -97 -18.5t-75.5 -51t-48.5 -77.5t-17 -99t16 -99t46 -78t74 -51t101 -18h3q-23 -20 -37 -45t-14 -57q0 -21 8.5 -36.5t23 -26t33.5 -15.5t39 -5q25 0 46 6.5t47 20.5z" />
    <glyph glyph-name="Cacute" unicode="&#x106;" horiz-adv-x="608" 
d="M582 672q4 9 -5 13q-37 15 -84 28t-112 13q-74 0 -136 -27t-106.5 -76t-69 -117.5t-24.5 -151.5q0 -84 24 -152.5t68 -117.5t105.5 -75.5t136.5 -26.5q67 0 115.5 13.5t80.5 30.5q5 2 5 9v73q0 6 -4.5 9t-9.5 0q-33 -18 -74 -32t-102 -14q-53 0 -96.5 21t-75 58.5
t-49 89.5t-17.5 114q0 61 16 113t46 90.5t73.5 60.5t98.5 22q52 0 90.5 -11t68.5 -23q9 -4 13 5zM529 797q7 2 7 9v63q0 10 -11 8l-293 -55q-8 -2 -8 -8v-50q0 -4 3.5 -7t8.5 -2z" />
    <glyph glyph-name="cacute" unicode="&#x107;" horiz-adv-x="437" 
d="M423 434q2 10 -5 13q-23 9 -59.5 21t-84.5 12q-53 0 -97 -18.5t-75.5 -51t-48.5 -77.5t-17 -99t16 -99t46 -78t74 -51t101 -18q44 0 82.5 11t60.5 21q6 2 6 9v63q0 6 -5 9t-10 0q-37 -20 -68 -27.5t-61 -7.5q-35 0 -62 12.5t-45.5 35t-28 53.5t-9.5 67q0 33 8.5 63
t25.5 53t44 36.5t64 13.5q40 0 68.5 -8.5t44.5 -15.5q9 -4 13 5zM375 681q4 5 1.5 9.5t-8.5 4.5h-76q-5 0 -7 -4l-130 -173q-4 -5 -1.5 -10t8.5 -5h65q2 0 4.5 1t2.5 3z" />
    <glyph glyph-name="Ccircumflex" unicode="&#x108;" horiz-adv-x="608" 
d="M582 672q4 9 -5 13q-37 15 -84 28t-112 13q-74 0 -136 -27t-106.5 -76t-69 -117.5t-24.5 -151.5q0 -84 24 -152.5t68 -117.5t105.5 -75.5t136.5 -26.5q67 0 115.5 13.5t80.5 30.5q5 2 5 9v73q0 6 -4.5 9t-9.5 0q-33 -18 -74 -32t-102 -14q-53 0 -96.5 21t-75 58.5
t-49 89.5t-17.5 114q0 61 16 113t46 90.5t73.5 60.5t98.5 22q52 0 90.5 -11t68.5 -23q9 -4 13 5zM501 750q6 0 9 4t0 9l-107 184q-3 5 -9 5h-82q-2 0 -4.5 -1.5t-3.5 -3.5l-106 -184q-3 -5 0 -9t8 -4h59q2 0 5 1.5t4 2.5l75 131l81 -131q1 -1 3.5 -2.5t4.5 -1.5h63z" />
    <glyph glyph-name="ccircumflex" unicode="&#x109;" horiz-adv-x="437" 
d="M423 434q2 10 -5 13q-23 9 -59.5 21t-84.5 12q-53 0 -97 -18.5t-75.5 -51t-48.5 -77.5t-17 -99t16 -99t46 -78t74 -51t101 -18q44 0 82.5 11t60.5 21q6 2 6 9v63q0 6 -5 9t-10 0q-37 -20 -68 -27.5t-61 -7.5q-35 0 -62 12.5t-45.5 35t-28 53.5t-9.5 67q0 33 8.5 63
t25.5 53t44 36.5t64 13.5q40 0 68.5 -8.5t44.5 -15.5q9 -4 13 5zM405 500q6 0 9 4t0 9l-107 184q-3 5 -9 5h-82q-2 0 -4.5 -1.5t-3.5 -3.5l-106 -184q-3 -5 0 -9t8 -4h59q2 0 5 1.5t4 2.5l75 131l81 -131q1 -1 3.5 -2.5t4.5 -1.5h63z" />
    <glyph glyph-name="Cdotaccent" unicode="&#x10a;" horiz-adv-x="608" 
d="M582 672q4 9 -5 13q-37 15 -84 28t-112 13q-74 0 -136 -27t-106.5 -76t-69 -117.5t-24.5 -151.5q0 -84 24 -152.5t68 -117.5t105.5 -75.5t136.5 -26.5q67 0 115.5 13.5t80.5 30.5q5 2 5 9v73q0 6 -4.5 9t-9.5 0q-33 -18 -74 -32t-102 -14q-53 0 -96.5 21t-75 58.5
t-49 89.5t-17.5 114q0 61 16 113t46 90.5t73.5 60.5t98.5 22q52 0 90.5 -11t68.5 -23q9 -4 13 5zM419 821q0 22 -15.5 38t-38.5 16t-38.5 -16t-15.5 -38q0 -23 15.5 -38.5t38.5 -15.5t38.5 15.5t15.5 38.5z" />
    <glyph glyph-name="cdotaccent" unicode="&#x10b;" horiz-adv-x="437" 
d="M423 434q2 10 -5 13q-23 9 -59.5 21t-84.5 12q-53 0 -97 -18.5t-75.5 -51t-48.5 -77.5t-17 -99t16 -99t46 -78t74 -51t101 -18q44 0 82.5 11t60.5 21q6 2 6 9v63q0 6 -5 9t-10 0q-37 -20 -68 -27.5t-61 -7.5q-35 0 -62 12.5t-45.5 35t-28 53.5t-9.5 67q0 33 8.5 63
t25.5 53t44 36.5t64 13.5q40 0 68.5 -8.5t44.5 -15.5q9 -4 13 5zM310 559q0 22 -15.5 38t-38.5 16t-38.5 -16t-15.5 -38q0 -23 15.5 -38.5t38.5 -15.5t38.5 15.5t15.5 38.5z" />
    <glyph glyph-name="Ccaron" unicode="&#x10c;" horiz-adv-x="608" 
d="M582 672q4 9 -5 13q-37 15 -84 28t-112 13q-74 0 -136 -27t-106.5 -76t-69 -117.5t-24.5 -151.5q0 -84 24 -152.5t68 -117.5t105.5 -75.5t136.5 -26.5q67 0 115.5 13.5t80.5 30.5q5 2 5 9v73q0 6 -4.5 9t-9.5 0q-33 -18 -74 -32t-102 -14q-53 0 -96.5 21t-75 58.5
t-49 89.5t-17.5 114q0 61 16 113t46 90.5t73.5 60.5t98.5 22q52 0 90.5 -11t68.5 -23q9 -4 13 5zM547 831q6 2 6 8v49q0 10 -13 8l-183 -59l-186 59q-5 1 -8.5 -1t-3.5 -7v-49q0 -6 6 -8l188 -75h8z" />
    <glyph glyph-name="ccaron" unicode="&#x10d;" horiz-adv-x="437" 
d="M423 434q2 10 -5 13q-23 9 -59.5 21t-84.5 12q-53 0 -97 -18.5t-75.5 -51t-48.5 -77.5t-17 -99t16 -99t46 -78t74 -51t101 -18q44 0 82.5 11t60.5 21q6 2 6 9v63q0 6 -5 9t-10 0q-37 -20 -68 -27.5t-61 -7.5q-35 0 -62 12.5t-45.5 35t-28 53.5t-9.5 67q0 33 8.5 63
t25.5 53t44 36.5t64 13.5q40 0 68.5 -8.5t44.5 -15.5q9 -4 13 5zM406 688q3 5 0 9.5t-9 4.5h-59q-6 0 -8 -5l-77 -132l-79 132q-3 5 -9 5h-63q-5 0 -8 -4.5t0 -9.5l107 -184q1 -1 3.5 -2.5t4.5 -1.5h82q2 0 5 1.5t4 2.5z" />
    <glyph glyph-name="Dcaron" unicode="&#x10e;" horiz-adv-x="673" 
d="M641 354q0 75 -22.5 139.5t-68.5 112.5t-115.5 75t-163.5 27h-215q-10 0 -10 -10v-57q0 -10 10 -10h48v-554h-48q-10 0 -10 -10v-57q0 -10 10 -10h215q94 0 163.5 27t115.5 74.5t68.5 112.5t22.5 140zM535 354q0 -60 -18.5 -110.5t-50.5 -86.5t-76.5 -56t-95.5 -20h-91
v546h79q56 0 102.5 -20t80 -56.5t52 -86.5t18.5 -110zM469 825q6 2 6 8v49q0 10 -13 8l-183 -59l-186 59q-5 1 -8.5 -1t-3.5 -7v-49q0 -6 6 -8l188 -75h8z" />
    <glyph glyph-name="dcaron" unicode="&#x10f;" horiz-adv-x="583" 
d="M593 51l-21 35q-6 9 -14 3q-6 -4 -15.5 -9t-17.5 -5t-12 5t-4 22v580q0 34 -18.5 60t-62.5 26q-23 0 -48 -10t-47 -27q-3 -2 -4 -6t1 -6l20 -35q2 -3 6.5 -4t8.5 2q6 5 15 8.5t17 3.5q9 0 13.5 -6t4.5 -22v-241q-26 30 -64 46t-90 16q-50 0 -89 -19t-67 -52.5t-42.5 -79
t-14.5 -98.5q0 -54 14 -100t41.5 -79t68.5 -52t95 -19q42 0 83 16.5t69 48.5q6 -25 24 -39t52 -14q25 0 49.5 10.5t45.5 27.5zM415 238q0 -34 -9.5 -65t-28 -54t-45 -37t-59.5 -14t-56.5 14t-38.5 37t-22 54t-7 65t7.5 65t22.5 54t39 37t57 14t59 -14t44 -37t27.5 -54
t9.5 -65zM702 730l-82 23q-10 2 -12 -8q-4 -26 -11 -54t-16 -54.5t-19 -50.5t-20 -42q-3 -10 6 -13l49 -17q2 -1 5 -0.5t5 2.5q12 15 26.5 37.5t28.5 49t26 56t20 59.5z" />
    <glyph glyph-name="Dmacron" unicode="&#x110;" horiz-adv-x="674" 
d="M642 354q0 75 -23 139.5t-69 112.5t-115.5 75t-163.5 27h-215q-10 0 -10 -10v-57q0 -10 10 -10h49v-236h-58q-9 0 -9 -10v-59q0 -10 9 -10h58v-239h-49q-10 0 -10 -10v-57q0 -10 10 -10h215q94 0 163.5 27t115.5 74.5t69 112.5t23 140zM535 354q0 -60 -18.5 -110.5
t-50.5 -86.5t-76 -56t-96 -20h-91v235h126q10 0 10 10v59q0 10 -10 10h-126v232h79q56 0 102.5 -20t80 -56.5t52 -86.5t18.5 -110z" />
    <glyph glyph-name="dmacron" unicode="&#x111;" horiz-adv-x="583" 
d="M616 568q10 0 10 8v47q0 7 -10 7h-107v52q0 34 -18.5 60t-62.5 26q-23 0 -48 -10t-47 -27q-3 -2 -4 -6t1 -6l20 -35q2 -3 6.5 -4t8.5 2q6 5 15 8.5t17 3.5q9 0 13.5 -6t4.5 -22v-36h-114q-9 0 -9 -7v-47q0 -8 9 -8h114v-143q-26 30 -64 46t-90 16q-50 0 -89 -19
t-67 -52.5t-42.5 -79t-14.5 -98.5q0 -54 14 -100t41.5 -79t68.5 -52t95 -19q42 0 83 16.5t69 48.5q6 -25 24 -39t52 -14q25 0 49.5 10.5t45.5 27.5l3 13l-21 35q-6 9 -14 3q-6 -4 -15.5 -9t-17.5 -5t-12 5t-4 22v466h107zM415 238q0 -34 -9.5 -65t-28 -54t-45 -37t-59.5 -14
t-56.5 14t-38.5 37t-22 54t-7 65t7.5 65t22.5 54t39 37t57 14t59 -14t44 -37t27.5 -54t9.5 -65z" />
    <glyph glyph-name="Emacron" unicode="&#x112;" horiz-adv-x="546" 
d="M535 0q9 0 9 10l1 61q0 10 -9 10h-334v249h273q10 0 10 9v63q0 9 -10 9h-273v216h300q9 0 9 10v61q0 10 -9 10h-446q-10 0 -10 -10v-57q0 -10 10 -10h48v-554h-48q-10 0 -10 -10v-57q0 -10 10 -10h479zM482 750q9 0 9 8v50q0 8 -9 8h-382q-10 0 -10 -8v-50q0 -8 10 -8
h382z" />
    <glyph glyph-name="emacron" unicode="&#x113;" horiz-adv-x="500" 
d="M466 198q10 0 10 10v32q0 117 -53 178.5t-153 61.5q-51 0 -92.5 -18t-70 -50.5t-44 -77.5t-15.5 -100q0 -51 14.5 -96t43 -78t72 -52.5t101.5 -19.5q62 0 97 10t60 22q5 2 5 9v62q0 6 -4.5 9t-9.5 0q-24 -13 -58 -23.5t-80 -10.5q-35 0 -60.5 12t-42.5 31t-26.5 42.5
t-12.5 46.5h319zM267 406q55 0 81 -35.5t29 -98.5h-229q8 63 36.5 98.5t82.5 35.5zM423 506q10 0 10 8v47q0 7 -10 7h-315q-9 0 -9 -7v-47q0 -8 9 -8h315z" />
    <glyph glyph-name="Ebreve" unicode="&#x114;" horiz-adv-x="546" 
d="M535 0q9 0 9 10l1 61q0 10 -9 10h-334v249h273q10 0 10 9v63q0 9 -10 9h-273v216h300q9 0 9 10v61q0 10 -9 10h-446q-10 0 -10 -10v-57q0 -10 10 -10h48v-554h-48q-10 0 -10 -10v-57q0 -10 10 -10h479zM455 932h-52q-8 0 -10 -7q-13 -85 -85 -85q-38 0 -58.5 20.5
t-27.5 63.5q-2 8 -9 8h-57q-9 0 -9 -10q5 -79 47.5 -115.5t111.5 -36.5t111 36.5t48 115.5z" />
    <glyph glyph-name="ebreve" unicode="&#x115;" horiz-adv-x="500" 
d="M466 198q10 0 10 10v32q0 117 -53 178.5t-153 61.5q-51 0 -92.5 -18t-70 -50.5t-44 -77.5t-15.5 -100q0 -51 14.5 -96t43 -78t72 -52.5t101.5 -19.5q62 0 97 10t60 22q5 2 5 9v62q0 6 -4.5 9t-9.5 0q-24 -13 -58 -23.5t-80 -10.5q-35 0 -60.5 12t-42.5 31t-26.5 42.5
t-12.5 46.5h319zM411 670h-52q-8 0 -10 -7q-13 -85 -85 -85q-38 0 -58.5 20.5t-27.5 63.5q-2 8 -9 8h-57q-9 0 -9 -10q5 -79 47.5 -115.5t111.5 -36.5t111 36.5t48 115.5zM267 406q55 0 81 -35.5t29 -98.5h-229q8 63 36.5 98.5t82.5 35.5z" />
    <glyph glyph-name="Edotaccent" unicode="&#x116;" horiz-adv-x="546" 
d="M535 0q9 0 9 10l1 61q0 10 -9 10h-334v249h273q10 0 10 9v63q0 9 -10 9h-273v216h300q9 0 9 10v61q0 10 -9 10h-446q-10 0 -10 -10v-57q0 -10 10 -10h48v-554h-48q-10 0 -10 -10v-57q0 -10 10 -10h479zM366 806q0 21 -15.5 37.5t-38.5 16.5t-38.5 -16.5t-15.5 -37.5
q0 -23 15.5 -38.5t38.5 -15.5t38.5 15.5t15.5 38.5z" />
    <glyph glyph-name="edotaccent" unicode="&#x117;" horiz-adv-x="500" 
d="M466 198q10 0 10 10v32q0 117 -53 178.5t-153 61.5q-51 0 -92.5 -18t-70 -50.5t-44 -77.5t-15.5 -100q0 -51 14.5 -96t43 -78t72 -52.5t101.5 -19.5q62 0 97 10t60 22q5 2 5 9v62q0 6 -4.5 9t-9.5 0q-24 -13 -58 -23.5t-80 -10.5q-35 0 -60.5 12t-42.5 31t-26.5 42.5
t-12.5 46.5h319zM267 406q55 0 81 -35.5t29 -98.5h-229q8 63 36.5 98.5t82.5 35.5zM320 558q0 22 -15.5 38t-38.5 16t-38.5 -16t-15.5 -38q0 -23 15.5 -38.5t38.5 -15.5t38.5 15.5t15.5 38.5z" />
    <glyph glyph-name="Eogonek" unicode="&#x118;" horiz-adv-x="546" 
d="M530 -162v47q0 5 -4 8t-9 0q-18 -9 -34 -14t-34 -5q-20 0 -30.5 9t-10.5 24q0 14 7 28t17.5 26t22.5 22t22 17h58q9 0 9 10l1 61q0 10 -9 10h-334v249h273q10 0 10 9v63q0 9 -10 9h-273v216h300q9 0 9 10v61q0 10 -9 10h-446q-10 0 -10 -10v-57q0 -10 10 -10h48v-554h-48
q-10 0 -10 -10v-57q0 -10 10 -10h338q-29 -22 -47 -49.5t-18 -64.5q0 -21 8.5 -36.5t23 -26t33.5 -15.5t39 -5q25 0 46 6.5t47 20.5z" />
    <glyph glyph-name="eogonek" unicode="&#x119;" horiz-adv-x="500" 
d="M444 -162v47q0 5 -4 8t-9 0q-18 -9 -34 -14t-34 -5q-20 0 -30.5 9t-10.5 24t7.5 29t18.5 26.5t23.5 22.5t22.5 17l1 1q12 4 22 8t19 9q5 2 5 9v62q0 6 -4.5 9t-9.5 0q-24 -13 -58 -23.5t-80 -10.5q-35 0 -60.5 12t-42.5 31t-26.5 42.5t-12.5 46.5h319q10 0 10 10v32
q0 117 -53 178.5t-153 61.5q-51 0 -92.5 -18t-70 -50.5t-44 -77.5t-15.5 -100q0 -51 14.5 -96t43 -78t72 -52.5t101.5 -19.5h19q-23 -20 -37.5 -45t-14.5 -57q0 -42 30 -62.5t71 -20.5q25 0 46 6.5t47 20.5zM267 406q55 0 81 -35.5t29 -98.5h-229q8 63 36.5 98.5t82.5 35.5z
" />
    <glyph glyph-name="Ecaron" unicode="&#x11a;" horiz-adv-x="546" 
d="M535 0q9 0 9 10l1 61q0 10 -9 10h-334v249h273q10 0 10 9v63q0 9 -10 9h-273v216h300q9 0 9 10v61q0 10 -9 10h-446q-10 0 -10 -10v-57q0 -10 10 -10h48v-554h-48q-10 0 -10 -10v-57q0 -10 10 -10h479zM480 825q6 2 6 8v49q0 10 -13 8l-183 -59l-186 59q-5 1 -8.5 -1
t-3.5 -7v-49q0 -6 6 -8l188 -75h8z" />
    <glyph glyph-name="ecaron" unicode="&#x11b;" horiz-adv-x="500" 
d="M466 198q10 0 10 10v32q0 117 -53 178.5t-153 61.5q-51 0 -92.5 -18t-70 -50.5t-44 -77.5t-15.5 -100q0 -51 14.5 -96t43 -78t72 -52.5t101.5 -19.5q62 0 97 10t60 22q5 2 5 9v62q0 6 -4.5 9t-9.5 0q-24 -13 -58 -23.5t-80 -10.5q-35 0 -60.5 12t-42.5 31t-26.5 42.5
t-12.5 46.5h319zM424 689q3 5 0 9.5t-9 4.5h-59q-6 0 -8 -5l-77 -132l-79 132q-3 5 -9 5h-63q-5 0 -8 -4.5t0 -9.5l107 -184q1 -1 3.5 -2.5t4.5 -1.5h82q2 0 5 1.5t4 2.5zM267 406q55 0 81 -35.5t29 -98.5h-229q8 63 36.5 98.5t82.5 35.5z" />
    <glyph glyph-name="Gcircumflex" unicode="&#x11c;" horiz-adv-x="650" 
d="M612 46v321q0 10 -9 10h-142q-10 0 -10 -10v-58q0 -10 10 -10h54v-210q-29 -9 -57 -14t-62 -5q-54 0 -98.5 21t-75.5 59t-48 90t-17 114q0 61 16 113t45.5 90.5t72.5 60.5t97 22q58 0 96 -13.5t65 -27.5q4 -2 8 -0.5t6 5.5l26 61q4 9 -4 13q-34 19 -83.5 33.5
t-122.5 14.5q-72 0 -132.5 -27t-104 -76t-67.5 -117.5t-24 -151.5q0 -84 24 -152.5t67.5 -117t105 -75.5t136.5 -27q65 0 120 14.5t103 40.5zM519 767q6 0 9 4t0 9l-107 184q-3 5 -9 5h-82q-2 0 -4.5 -1.5t-3.5 -3.5l-106 -184q-3 -5 0 -9t8 -4h59q2 0 5 1.5t4 2.5l75 131
l81 -131q1 -1 3.5 -2.5t4.5 -1.5h63z" />
    <glyph glyph-name="gcircumflex" unicode="&#x11d;" 
d="M512 25v440q0 10 -10 10h-74q-10 0 -10 -10v-41q-54 62 -154 62q-51 0 -91.5 -19t-68 -52.5t-42 -79t-14.5 -98.5q0 -54 14 -99.5t41.5 -79t69 -52t96.5 -18.5q41 0 81 15.5t68 45.5v-30q0 -32 -6 -62.5t-22.5 -55.5t-46 -40t-75.5 -15q-51 0 -87 10t-59 21
q-5 2 -9.5 -0.5t-4.5 -7.5v-65q0 -6 6 -8q29 -12 67.5 -21t91.5 -9q61 0 106 18.5t74.5 52.5t44 82t14.5 106zM418 237q0 -34 -10 -64.5t-28.5 -54t-45.5 -37t-61 -13.5t-57.5 13.5t-38.5 37t-22 54t-7 64.5t7 65t22 54t38.5 37t57.5 14t61 -14t45.5 -37t28.5 -54t10 -65z
M408 505q6 0 9 4t0 9l-107 184q-3 5 -9 5h-82q-2 0 -4.5 -1.5t-3.5 -3.5l-106 -184q-3 -5 0 -9t8 -4h59q2 0 5 1.5t4 2.5l75 131l81 -131q1 -1 3.5 -2.5t4.5 -1.5h63z" />
    <glyph glyph-name="Gbreve" unicode="&#x11e;" horiz-adv-x="650" 
d="M612 46v321q0 10 -9 10h-142q-10 0 -10 -10v-58q0 -10 10 -10h54v-210q-29 -9 -57 -14t-62 -5q-54 0 -98.5 21t-75.5 59t-48 90t-17 114q0 61 16 113t45.5 90.5t72.5 60.5t97 22q58 0 96 -13.5t65 -27.5q4 -2 8 -0.5t6 5.5l26 61q4 9 -4 13q-34 19 -83.5 33.5
t-122.5 14.5q-72 0 -132.5 -27t-104 -76t-67.5 -117.5t-24 -151.5q0 -84 24 -152.5t67.5 -117t105 -75.5t136.5 -27q65 0 120 14.5t103 40.5zM547 890h-57q-8 0 -10 -6q-9 -29 -36 -44.5t-79 -15.5t-78.5 15.5t-35.5 44.5q-2 6 -9 6h-62q-11 0 -9 -10q7 -63 54.5 -96
t138.5 -33q90 0 137.5 33t55.5 96z" />
    <glyph glyph-name="gbreve" unicode="&#x11f;" 
d="M512 25v440q0 10 -10 10h-74q-10 0 -10 -10v-41q-54 62 -154 62q-51 0 -91.5 -19t-68 -52.5t-42 -79t-14.5 -98.5q0 -54 14 -99.5t41.5 -79t69 -52t96.5 -18.5q41 0 81 15.5t68 45.5v-30q0 -32 -6 -62.5t-22.5 -55.5t-46 -40t-75.5 -15q-51 0 -87 10t-59 21
q-5 2 -9.5 -0.5t-4.5 -7.5v-65q0 -6 6 -8q29 -12 67.5 -21t91.5 -9q61 0 106 18.5t74.5 52.5t44 82t14.5 106zM418 237q0 -34 -10 -64.5t-28.5 -54t-45.5 -37t-61 -13.5t-57.5 13.5t-38.5 37t-22 54t-7 64.5t7 65t22 54t38.5 37t57.5 14t61 -14t45.5 -37t28.5 -54t10 -65z
M420 688h-52q-8 0 -10 -7q-13 -85 -85 -85q-38 0 -58.5 20.5t-27.5 63.5q-2 8 -9 8h-57q-9 0 -9 -10q5 -79 47.5 -115.5t111.5 -36.5t111 36.5t48 115.5z" />
    <glyph glyph-name="Gdotaccent" unicode="&#x120;" horiz-adv-x="650" 
d="M612 46v321q0 10 -9 10h-142q-10 0 -10 -10v-58q0 -10 10 -10h54v-210q-29 -9 -57 -14t-62 -5q-54 0 -98.5 21t-75.5 59t-48 90t-17 114q0 61 16 113t45.5 90.5t72.5 60.5t97 22q58 0 96 -13.5t65 -27.5q4 -2 8 -0.5t6 5.5l26 61q4 9 -4 13q-34 19 -83.5 33.5
t-122.5 14.5q-72 0 -132.5 -27t-104 -76t-67.5 -117.5t-24 -151.5q0 -84 24 -152.5t67.5 -117t105 -75.5t136.5 -27q65 0 120 14.5t103 40.5zM418 851q0 22 -15.5 38t-38.5 16t-38.5 -16t-15.5 -38q0 -23 15.5 -38.5t38.5 -15.5t38.5 15.5t15.5 38.5z" />
    <glyph glyph-name="gdotaccent" unicode="&#x121;" 
d="M512 25v440q0 10 -10 10h-74q-10 0 -10 -10v-41q-54 62 -154 62q-51 0 -91.5 -19t-68 -52.5t-42 -79t-14.5 -98.5q0 -54 14 -99.5t41.5 -79t69 -52t96.5 -18.5q41 0 81 15.5t68 45.5v-30q0 -32 -6 -62.5t-22.5 -55.5t-46 -40t-75.5 -15q-51 0 -87 10t-59 21
q-5 2 -9.5 -0.5t-4.5 -7.5v-65q0 -6 6 -8q29 -12 67.5 -21t91.5 -9q61 0 106 18.5t74.5 52.5t44 82t14.5 106zM418 237q0 -34 -10 -64.5t-28.5 -54t-45.5 -37t-61 -13.5t-57.5 13.5t-38.5 37t-22 54t-7 64.5t7 65t22 54t38.5 37t57.5 14t61 -14t45.5 -37t28.5 -54t10 -65z
M329 604q0 22 -15.5 38t-38.5 16t-38.5 -16t-15.5 -38q0 -23 15.5 -38.5t38.5 -15.5t38.5 15.5t15.5 38.5z" />
    <glyph glyph-name="Gcommaaccent" unicode="&#x122;" horiz-adv-x="650" 
d="M612 46v321q0 10 -9 10h-142q-10 0 -10 -10v-58q0 -10 10 -10h54v-210q-29 -9 -57 -14t-62 -5q-54 0 -98.5 21t-75.5 59t-48 90t-17 114q0 61 16 113t45.5 90.5t72.5 60.5t97 22q58 0 96 -13.5t65 -27.5q4 -2 8 -0.5t6 5.5l26 61q4 9 -4 13q-34 19 -83.5 33.5
t-122.5 14.5q-72 0 -132.5 -27t-104 -76t-67.5 -117.5t-24 -151.5q0 -80 21.5 -145.5t61 -114t96 -77.5t125.5 -34q-10 -46 -26 -91t-33 -76q-3 -10 6 -13l49 -17q2 -1 5 -0.5t5 2.5q12 15 26 37.5t28 48.5t26 55.5t20 58.5q81 13 146 49z" />
    <glyph glyph-name="gcommaaccent" unicode="&#x123;" 
d="M512 25v440q0 10 -10 10h-74q-10 0 -10 -10v-41q-54 62 -154 62q-51 0 -91.5 -19t-68 -52.5t-42 -79t-14.5 -98.5q0 -54 14 -99.5t41.5 -79t69 -52t96.5 -18.5q41 0 81 15.5t68 45.5v-30q0 -32 -6 -62.5t-22.5 -55.5t-46 -40t-75.5 -15q-51 0 -87 10t-59 21
q-5 2 -9.5 -0.5t-4.5 -7.5v-65q0 -6 6 -8q29 -12 67.5 -21t91.5 -9q61 0 106 18.5t74.5 52.5t44 82t14.5 106zM418 237q0 -34 -10 -64.5t-28.5 -54t-45.5 -37t-61 -13.5t-57.5 13.5t-38.5 37t-22 54t-7 64.5t7 65t22 54t38.5 37t57.5 14t61 -14t45.5 -37t28.5 -54t10 -65z
M218 571l82 -23q10 -2 12 8q4 26 11 54t16 54.5t19 50.5t20 42q3 10 -6 13l-49 17q-5 3 -10 -2q-12 -15 -26.5 -37.5t-28.5 -49t-26 -56t-20 -59.5z" />
    <glyph glyph-name="Hcircumflex" unicode="&#x124;" horiz-adv-x="726" 
d="M680 0q10 0 10 10v57q0 10 -10 10h-49v554h49q10 0 10 10v57q0 10 -10 10h-138q-10 0 -10 -10v-289h-337v289q0 10 -10 10h-138q-9 0 -9 -10v-57q0 -10 9 -10h49v-554h-49q-9 0 -9 -10v-57q0 -10 9 -10h138q10 0 10 10v318h337v-318q0 -10 10 -10h138zM506 764q6 0 9 4
t0 9l-107 184q-3 5 -9 5h-82q-2 0 -4.5 -1.5t-3.5 -3.5l-106 -184q-3 -5 0 -9t8 -4h59q2 0 5 1.5t4 2.5l75 131l81 -131q1 -1 3.5 -2.5t4.5 -1.5h63z" />
    <glyph glyph-name="hcircumflex" unicode="&#x125;" horiz-adv-x="548" 
d="M562 45l-21 35q-5 8 -14 3q-6 -4 -15.5 -9t-17.5 -5t-12 4t-4 19v223q0 78 -42 125t-135 47q-44 0 -77.5 -17t-55.5 -42v253q0 17 -4 33t-13.5 28t-25 19t-37.5 7q-23 0 -48.5 -10t-47.5 -27q-8 -6 -3 -13l21 -34q2 -4 6 -5t8 2q7 5 15.5 9t17.5 4t13 -6t4 -22v-656
q0 -10 10 -10h74q10 0 10 10v222q0 34 7 65.5t22.5 55.5t39.5 38.5t58 14.5q47 0 67.5 -29t20.5 -75v-7l-1 -201v-4q0 -45 18 -70.5t64 -25.5q25 0 50 10.5t46 27.5zM245 805q6 0 9 4t0 9l-107 184q-3 5 -9 5h-82q-2 0 -4.5 -1.5t-3.5 -3.5l-106 -184q-3 -5 0 -9t8 -4h59
q2 0 5 1.5t4 2.5l75 131l81 -131q1 -1 3.5 -2.5t4.5 -1.5h63z" />
    <glyph glyph-name="Hbar" unicode="&#x126;" horiz-adv-x="726" 
d="M715 504q10 0 10 7v57q0 8 -10 8h-84v55h49q10 0 10 10v57q0 10 -10 10h-138q-10 0 -10 -10v-122h-337v122q0 10 -10 10h-138q-9 0 -9 -10v-57q0 -10 9 -10h49v-55h-87q-10 0 -10 -8v-57q0 -7 10 -7h87v-427h-49q-9 0 -9 -10v-57q0 -10 9 -10h138q10 0 10 10v318h337
v-318q0 -10 10 -10h138q10 0 10 10v57q0 10 -10 10h-49v427h84zM195 409v95h337v-95h-337z" />
    <glyph glyph-name="hbar" unicode="&#x127;" horiz-adv-x="548" 
d="M231 553q9 0 9 8v60q0 8 -9 8h-63v52q0 17 -4 33t-13.5 28t-25 19t-37.5 7q-23 0 -48.5 -10t-47.5 -27q-8 -6 -3 -13l21 -34q2 -4 6 -5t8 2q7 5 15.5 9t17.5 4t13 -6t4 -22v-37h-69q-10 0 -10 -8v-60q0 -8 10 -8h69v-543q0 -10 10 -10h74q10 0 10 10v222q0 34 7 65.5
t22.5 55.5t39.5 38.5t58 14.5q47 0 67.5 -29t20.5 -75v-7l-1 -201v-4q0 -45 18 -70.5t64 -25.5q25 0 50 10.5t46 27.5l2 13l-21 35q-5 8 -14 3q-6 -4 -15.5 -9t-17.5 -5t-12 4t-4 19v223q0 78 -42 125t-135 47q-44 0 -77.5 -17t-55.5 -42v125h63z" />
    <glyph glyph-name="Itilde" unicode="&#x128;" horiz-adv-x="273" 
d="M232 0q9 0 9 10v57q0 10 -9 10h-47v554h47q9 0 9 10v57q0 10 -9 10h-186q-9 0 -9 -10v-57q0 -10 9 -10h46v-554h-46q-9 0 -9 -10v-57q0 -10 9 -10h186zM319 877h-50q-7 0 -9 -7q-3 -13 -11 -24t-26 -11q-20 0 -36 3.5t-34 8.5q-3 1 -5.5 2t-5.5 2h1q-18 5 -36.5 8.5
t-48.5 3.5q-27 0 -47 -9.5t-33.5 -25t-21.5 -34t-10 -36.5q-1 -4 2 -7t8 -3h49q8 0 10 7q3 12 11.5 24t29.5 12q17 0 31 -3t27 -7l-1 1q9 -3 17 -5q3 -1 5 -1.5t5 -1.5q17 -4 37.5 -7.5t48.5 -3.5q25 0 43.5 9.5t31 24.5t19 34t8.5 37z" />
    <glyph glyph-name="itilde" unicode="&#x129;" horiz-adv-x="248" 
d="M258 44l-20 35q-5 7 -14 3q-5 -4 -14 -9t-17 -5t-12 5t-4 22v291q0 33 -18 57.5t-60 24.5q-22 0 -46.5 -10t-45.5 -26q-7 -5 -3 -13l20 -33q2 -4 6 -5t8 2q14 12 31 12q8 0 12.5 -5.5t4.5 -22.5v-279q0 -44 16.5 -69t61.5 -25q23 0 47.5 10.5t44.5 27.5zM269 641h-51
q-9 0 -9 -8q-2 -17 -10.5 -29.5t-25.5 -12.5q-10 0 -18.5 2.5t-19.5 5.5l1 -1q3 -2 -1 -0.5t-6 2.5q-22 7 -37 10t-36 3q-25 0 -44.5 -10t-33 -25.5t-20.5 -35t-8 -38.5q0 -9 10 -9h51q7 0 9 7q4 16 12.5 29.5t25.5 13.5q11 0 22.5 -2.5t23.5 -6.5q3 -1 2.5 -0.5t2.5 -0.5
l9 -3q14 -3 26 -5.5t36 -2.5q23 0 41.5 9.5t31 25t19 34.5t6.5 39z" />
    <glyph glyph-name="Imacron" unicode="&#x12a;" horiz-adv-x="273" 
d="M232 0q9 0 9 10v57q0 10 -9 10h-47v554h47q9 0 9 10v57q0 10 -9 10h-186q-9 0 -9 -10v-57q0 -10 9 -10h46v-554h-46q-9 0 -9 -10v-57q0 -10 9 -10h186zM331 751q9 0 9 8v50q0 8 -9 8h-382q-10 0 -10 -8v-50q0 -8 10 -8h382z" />
    <glyph glyph-name="imacron" unicode="&#x12b;" horiz-adv-x="248" 
d="M258 44l-20 35q-5 7 -14 3q-5 -4 -14 -9t-17 -5t-12 5t-4 22v291q0 33 -18 57.5t-60 24.5q-22 0 -46.5 -10t-45.5 -26q-7 -5 -3 -13l20 -33q2 -4 6 -5t8 2q14 12 31 12q8 0 12.5 -5.5t4.5 -22.5v-279q0 -44 16.5 -69t61.5 -25q23 0 47.5 10.5t44.5 27.5zM281 501
q10 0 10 8v47q0 7 -10 7h-315q-9 0 -9 -7v-47q0 -8 9 -8h315z" />
    <glyph glyph-name="Ibreve" unicode="&#x12c;" horiz-adv-x="273" 
d="M232 0q9 0 9 10v57q0 10 -9 10h-47v554h47q9 0 9 10v57q0 10 -9 10h-186q-9 0 -9 -10v-57q0 -10 9 -10h46v-554h-46q-9 0 -9 -10v-57q0 -10 9 -10h186zM286 927h-52q-8 0 -10 -7q-13 -85 -85 -85q-38 0 -58.5 20.5t-27.5 63.5q-2 8 -9 8h-57q-9 0 -9 -10
q5 -79 47.5 -115.5t111.5 -36.5t111 36.5t48 115.5z" />
    <glyph glyph-name="ibreve" unicode="&#x12d;" horiz-adv-x="248" 
d="M258 44l-20 35q-5 7 -14 3q-5 -4 -14 -9t-17 -5t-12 5t-4 22v291q0 33 -18 57.5t-60 24.5q-22 0 -46.5 -10t-45.5 -26q-7 -5 -3 -13l20 -33q2 -4 6 -5t8 2q14 12 31 12q8 0 12.5 -5.5t4.5 -22.5v-279q0 -44 16.5 -69t61.5 -25q23 0 47.5 10.5t44.5 27.5zM259 667h-52
q-8 0 -10 -7q-13 -85 -85 -85q-38 0 -58.5 20.5t-27.5 63.5q-2 8 -9 8h-57q-9 0 -9 -10q5 -79 47.5 -115.5t111.5 -36.5t111 36.5t48 115.5z" />
    <glyph glyph-name="Iogonek" unicode="&#x12e;" horiz-adv-x="273" 
d="M285 -162v47q0 5 -4 8t-9 0q-18 -9 -34 -14t-34 -5q-20 0 -30.5 9t-10.5 24q0 14 7 28t17.5 26t22.5 22t22 17q9 0 9 10v57q0 10 -9 10h-47v554h47q9 0 9 10v57q0 10 -9 10h-186q-9 0 -9 -10v-57q0 -10 9 -10h46v-554h-46q-9 0 -9 -10v-57q0 -10 9 -10h103
q-29 -22 -47 -49.5t-18 -64.5q0 -21 8.5 -36.5t23 -26t33.5 -15.5t39 -5q25 0 46 6.5t47 20.5z" />
    <glyph glyph-name="iogonek" unicode="&#x12f;" horiz-adv-x="248" 
d="M259 -162v47q0 5 -4 8t-9 0q-18 -9 -34 -14t-34 -5q-20 0 -30.5 9t-10.5 24t7.5 29t18.5 26.5t23.5 22.5t22.5 17v0q1 0 1 1q25 10 49 29l2 13l-20 35q-5 8 -14 3q-5 -4 -14 -9t-17 -5t-12 5t-4 22l1 292v3q0 34 -18 59t-60 25q-22 0 -46.5 -10.5t-45.5 -26.5
q-7 -5 -3 -13l20 -34q2 -4 6 -5t8 2q6 5 14.5 9t16.5 4t12.5 -6t4.5 -22l-1 -280v-4q0 -33 8.5 -55.5t31.5 -32.5q-30 -22 -49 -49.5t-19 -65.5q0 -42 30 -62.5t71 -20.5q25 0 46 6.5t47 20.5zM182 643q0 25 -17 43.5t-43 18.5q-25 0 -42 -18.5t-17 -43.5q0 -27 16.5 -44.5
t42.5 -17.5t43 17.5t17 44.5z" />
    <glyph glyph-name="Idotaccent" unicode="&#x130;" horiz-adv-x="273" 
d="M232 0q9 0 9 10v57q0 10 -9 10h-47v554h47q9 0 9 10v57q0 10 -9 10h-186q-9 0 -9 -10v-57q0 -10 9 -10h46v-554h-46q-9 0 -9 -10v-57q0 -10 9 -10h186zM191 801q0 22 -15.5 38t-38.5 16t-38.5 -16t-15.5 -38q0 -23 15.5 -38.5t38.5 -15.5t38.5 15.5t15.5 38.5z" />
    <glyph glyph-name="dotlessi" unicode="&#x131;" horiz-adv-x="248" 
d="M258 44l-20 35q-5 7 -14 3q-5 -4 -14 -9t-17 -5t-12 5t-4 22v291q0 33 -18 57.5t-60 24.5q-22 0 -46.5 -10t-45.5 -26q-7 -5 -3 -13l20 -33q2 -4 6 -5t8 2q14 12 31 12q8 0 12.5 -5.5t4.5 -22.5v-279q0 -44 16.5 -69t61.5 -25q23 0 47.5 10.5t44.5 27.5z" />
    <glyph glyph-name="IJ" unicode="&#x132;" horiz-adv-x="521" 
d="M485 632q10 0 10 9v58q0 9 -10 9h-196q-9 0 -9 -9v-58q0 -9 9 -9h53v-620q0 -42 -14 -67t-55 -25q-28 0 -50.5 7t-40.5 16q-13 4 -13 -9v-66q0 -7 5 -9q25 -11 51.5 -17t64.5 -6q72 0 109.5 43.5t37.5 112.5v640h48zM232 0q9 0 9 10v57q0 10 -9 10h-47v554h47q9 0 9 10
v57q0 10 -9 10h-186q-9 0 -9 -10v-57q0 -10 9 -10h46v-554h-46q-9 0 -9 -10v-57q0 -10 9 -10h186z" />
    <glyph glyph-name="ij" unicode="&#x133;" horiz-adv-x="452" 
d="M408 -70v461q0 35 -17.5 61t-59.5 26q-21 0 -45.5 -10.5t-45.5 -26.5q-7 -5 -3 -13l20 -34q2 -4 6 -5t7 2q15 12 32 12q8 0 12 -5.5t4 -22.5v-437q0 -21 -1.5 -39t-8 -30.5t-19 -20t-34.5 -7.5q-23 0 -38 6.5t-26 12.5q-5 3 -9.5 0t-4.5 -9v-57q0 -6 6 -8l2 -1q1 0 3 -1
q17 -8 35 -13.5t46 -5.5q76 0 107.5 44t31.5 121zM261 45l-20 35q-5 8 -14 3q-5 -4 -14 -9t-17 -5t-12 5t-4 22l1 292v3q0 34 -18 59t-60 25q-22 0 -46.5 -10.5t-45.5 -26.5q-7 -5 -3 -13l20 -34q2 -4 6 -5t8 2q6 5 14.5 9t16.5 4t12.5 -6t4.5 -22l-1 -280v-4
q0 -45 16.5 -70t61.5 -25q23 0 47.5 10.5t44.5 27.5zM407 647q0 27 -18 46.5t-44 19.5t-44 -19.5t-18 -46.5q0 -29 17.5 -47t44.5 -18t44.5 18t17.5 47zM182 643q0 25 -17 43.5t-43 18.5q-25 0 -42 -18.5t-17 -43.5q0 -27 16.5 -44.5t42.5 -17.5t43 17.5t17 44.5z" />
    <glyph glyph-name="Jcircumflex" unicode="&#x134;" horiz-adv-x="350" 
d="M317 632q10 0 10 9v58q0 9 -10 9h-196q-9 0 -9 -9v-58q0 -9 9 -9h53v-474q0 -42 -14 -67t-55 -25q-28 0 -50.5 7t-40.5 16q-13 4 -13 -9v-66q0 -7 5 -9q25 -11 51.5 -17t64.5 -6q72 0 109.5 43.5t37.5 112.5v494h48zM363 754q6 0 9 4t0 9l-107 184q-3 5 -9 5h-82
q-2 0 -4.5 -1.5t-3.5 -3.5l-106 -184q-3 -5 0 -9t8 -4h59q2 0 5 1.5t4 2.5l75 131l81 -131q1 -1 3.5 -2.5t4.5 -1.5h63z" />
    <glyph glyph-name="jcircumflex" unicode="&#x135;" horiz-adv-x="232" 
d="M179 -70v461q0 35 -17.5 61t-59.5 26q-21 0 -45.5 -10.5t-45.5 -26.5q-7 -5 -3 -13l20 -34q2 -4 6 -5t7 2q15 12 32 12q8 0 12 -5.5t4 -22.5v-437q0 -21 -1.5 -39t-8 -30.5t-19 -20t-34.5 -7.5q-23 0 -38 6.5t-26 12.5q-5 3 -9.5 0t-4.5 -9v-57q0 -6 6 -8q2 -1 3 -1l2 -1
q17 -8 35 -13.5t46 -5.5q76 0 107.5 44t31.5 121zM260 507q6 0 9 4t0 9l-107 184q-3 5 -9 5h-82q-2 0 -4.5 -1.5t-3.5 -3.5l-106 -184q-3 -5 0 -9t8 -4h59q2 0 5 1.5t4 2.5l75 131l81 -131q1 -1 3.5 -2.5t4.5 -1.5h63z" />
    <glyph glyph-name="Kcommaaccent" unicode="&#x136;" horiz-adv-x="662" 
d="M653 0q9 0 9 10v57q0 10 -9 10h-63l-225 373l167 181h88q10 0 10 10v57q0 10 -10 10h-129q-4 0 -7 -3l-284 -312v305q0 10 -9 10h-138q-10 0 -10 -10v-57q0 -10 10 -10h49v-554h-49q-10 0 -10 -10v-57q0 -10 10 -10h138q9 0 9 10v260l95 104l220 -369q2 -5 9 -5h129z
M399 31l-82 23q-10 2 -12 -8q-4 -26 -11 -54t-16 -54.5t-19 -50.5t-20 -42q-3 -10 6 -13l49 -17q2 -1 5 -0.5t5 2.5q12 15 26.5 37.5t28.5 49t26 56t20 59.5z" />
    <glyph glyph-name="kcommaaccent" unicode="&#x137;" horiz-adv-x="501" 
d="M537 58l-23 33q-4 7 -13 2q-7 -5 -16 -11t-17 -6t-13.5 4t-13.5 18l-113 213l151 101q6 4 2 13l-33 52q-5 7 -14 3l-265 -187v390q0 33 -18.5 59t-62.5 26q-23 0 -48.5 -10.5t-47.5 -26.5q-8 -6 -3 -13l21 -34q2 -4 6 -5t8 2q7 5 15.5 9t17.5 4t13 -6t4 -22v-656
q0 -10 10 -10h75q10 0 10 10v192l80 54l101 -201q15 -29 36 -42t45 -13q20 0 36.5 5t30 11.5t23.5 14t16 13.5v14zM313 32l-82 23q-10 2 -12 -8q-4 -26 -11 -54t-16 -54.5t-19 -50.5t-20 -42q-3 -10 6 -13l49 -17q5 -3 10 2q12 15 26.5 37.5t28.5 49t26 56t20 59.5z" />
    <glyph glyph-name="kgreenlandic" unicode="&#x138;" horiz-adv-x="501" 
d="M537 58l-23 33q-4 7 -13 2q-7 -5 -16 -11t-17 -6t-13.5 4t-13.5 18l-113 213l151 101q6 4 2 13l-33 52q-5 7 -14 3l-265 -187v118q0 33 -18.5 59t-62.5 26q-23 0 -48.5 -10.5t-47.5 -26.5q-8 -6 -3 -13l21 -34q2 -4 6 -5t8 2q7 5 15.5 9t17.5 4t13 -6t4 -22v-384
q0 -10 10 -10h75q10 0 10 10v192l80 54l101 -201q15 -29 36 -42t45 -13q20 0 36.5 5t30 11.5t23.5 14t16 13.5v14z" />
    <glyph glyph-name="Lacute" unicode="&#x139;" horiz-adv-x="542" 
d="M533 0q9 0 9 10v61q0 10 -9 10h-333v550h58q9 0 9 10v57q0 10 -9 10h-204q-10 0 -10 -10v-57q0 -10 10 -10h48v-554h-48q-10 0 -10 -10v-57q0 -10 10 -10h479zM302 794q7 2 7 9v63q0 10 -11 8l-293 -55q-8 -2 -8 -8v-50q0 -4 3.5 -7t8.5 -2z" />
    <glyph glyph-name="lacute" unicode="&#x13a;" horiz-adv-x="234" 
d="M244 45l-20 35q-6 9 -14 3q-6 -4 -15 -9t-17 -5t-12 5t-4 23v584q0 35 -17.5 61t-60.5 26q-21 0 -46 -10t-45 -27q-8 -6 -3 -13l19 -34q2 -4 6.5 -5t7.5 2q7 5 15.5 9t16.5 4t12 -6t4 -22v-572q0 -48 16.5 -74t61.5 -26q24 0 48 10.5t44 27.5zM221 982q4 5 1.5 9.5
t-8.5 4.5h-76q-5 0 -7 -4l-130 -173q-4 -5 -1.5 -10t8.5 -5h65q2 0 4.5 1t2.5 3z" />
    <glyph glyph-name="Lcommaaccent" unicode="&#x13b;" horiz-adv-x="542" 
d="M533 0q9 0 9 10v61q0 10 -9 10h-333v550h58q9 0 9 10v57q0 10 -9 10h-204q-10 0 -10 -10v-57q0 -10 10 -10h48v-554h-48q-10 0 -10 -10v-57q0 -10 10 -10h223q-10 -46 -26 -91t-33 -76q-3 -10 6 -13l49 -17q2 -1 5 -0.5t5 2.5q12 15 26 36.5t27.5 47t25.5 54t20 57.5h151
z" />
    <glyph glyph-name="lcommaaccent" unicode="&#x13c;" horiz-adv-x="273" 
d="M232 0q9 0 9 10v57q0 10 -9 10h-47v554h47q9 0 9 10v57q0 10 -9 10h-186q-9 0 -9 -10v-57q0 -10 9 -10h46v-554h-46q-9 0 -9 -10v-57q0 -10 9 -10h47q-11 -45 -26.5 -87.5t-31.5 -72.5q-3 -10 6 -13l49 -17q5 -3 10 2q12 15 25 35.5t26.5 45.5t25 52t20.5 55h35z" />
    <glyph glyph-name="Lcaron" unicode="&#x13d;" horiz-adv-x="542" 
d="M533 0q9 0 9 10v61q0 10 -9 10h-333v550h58q9 0 9 10v57q0 10 -9 10h-204q-10 0 -10 -10v-57q0 -10 10 -10h48v-554h-48q-10 0 -10 -10v-57q0 -10 10 -10h479zM485 674l-82 23q-10 2 -12 -8q-4 -26 -11 -54t-16 -54.5t-19 -50.5t-20 -42q-3 -10 6 -13l49 -17q2 -1 5 -0.5
t5 2.5q12 15 26.5 37.5t28.5 49t26 56t20 59.5z" />
    <glyph glyph-name="lcaron" unicode="&#x13e;" horiz-adv-x="234" 
d="M244 45l-20 35q-6 9 -14 3q-6 -4 -15 -9t-17 -5t-12 5t-4 23v584q0 35 -17.5 61t-60.5 26q-21 0 -46 -10t-45 -27q-8 -6 -3 -13l19 -34q2 -4 6.5 -5t7.5 2q7 5 15.5 9t16.5 4t12 -6t4 -22v-572q0 -48 16.5 -74t61.5 -26q24 0 48 10.5t44 27.5zM352 746l-82 23
q-10 2 -12 -8q-4 -26 -11 -54t-16 -54.5t-19 -50.5t-20 -42q-3 -10 6 -13l49 -17q2 -1 5 -0.5t5 2.5q12 15 26.5 37.5t28.5 49t26 56t20 59.5z" />
    <glyph glyph-name="Ldot" unicode="&#x13f;" horiz-adv-x="542" 
d="M533 0q9 0 9 10v61q0 10 -9 10h-333v550h58q9 0 9 10v57q0 10 -9 10h-204q-10 0 -10 -10v-57q0 -10 10 -10h48v-554h-48q-10 0 -10 -10v-57q0 -10 10 -10h479zM423 430q0 22 -15.5 38t-38.5 16t-38.5 -16t-15.5 -38q0 -23 15.5 -38.5t38.5 -15.5t38.5 15.5t15.5 38.5z
" />
    <glyph glyph-name="ldot" unicode="&#x140;" horiz-adv-x="317" 
d="M244 45l-20 35q-6 9 -14 3q-6 -4 -15 -9t-17 -5t-12 5t-4 23v584q0 35 -17.5 61t-60.5 26q-21 0 -46 -10t-45 -27q-8 -6 -3 -13l19 -34q2 -4 6.5 -5t7.5 2q7 5 15.5 9t16.5 4t12 -6t4 -22v-572q0 -48 16.5 -74t61.5 -26q24 0 48 10.5t44 27.5zM316 427q0 22 -15.5 38
t-38.5 16t-38.5 -16t-15.5 -38q0 -23 15.5 -38.5t38.5 -15.5t38.5 15.5t15.5 38.5z" />
    <glyph glyph-name="Lslash" unicode="&#x141;" horiz-adv-x="536" 
d="M535 0q10 0 10 10v61q0 10 -10 10h-333v257l125 106q2 1 3 3.5t1 4.5v72q0 7 -5 10t-10 -2l-114 -96v195h58q10 0 10 10v57q0 10 -10 10h-204q-10 0 -10 -10v-57q0 -10 10 -10h48v-279l-76 -64q-1 -1 -2.5 -3.5t-1.5 -4.5v-72q0 -7 5 -9.5t10 1.5l65 55v-178h-48
q-10 0 -10 -10v-57q0 -10 10 -10h479z" />
    <glyph glyph-name="lslash" unicode="&#x142;" horiz-adv-x="234" 
d="M244 45l-20 35q-6 9 -14 3q-6 -4 -15 -9t-17 -5t-12 5t-4 23v294l75 66q0 1 1.5 3.5t1.5 4.5v57q0 7 -5 10t-10 -2l-63 -56v207q0 35 -17.5 61t-60.5 26q-21 0 -46 -10t-45 -27q-8 -6 -3 -13l19 -34q2 -4 6.5 -5t7.5 2q7 5 15.5 9t16.5 4t12 -6t4 -22v-272l-67 -60
q-1 -1 -2.5 -3t-1.5 -4v-58q0 -7 5 -10t10 2l56 50v-217q0 -48 16.5 -74t61.5 -26q24 0 48 10.5t44 27.5z" />
    <glyph glyph-name="Nacute" unicode="&#x143;" horiz-adv-x="764" 
d="M732 631q10 0 10 10v57q0 10 -10 10h-132q-10 0 -10 -10v-552l-369 558q-1 2 -3.5 3t-4.5 1h-157q-9 0 -9 -10v-57q0 -10 9 -10h49v-554h-49q-9 0 -9 -10v-57q0 -10 9 -10h133q9 0 9 10v553l370 -559q2 -4 7 -4h99q9 0 9 10v621h49zM554 794q7 2 7 9v63q0 10 -11 8
l-293 -55q-8 -2 -8 -8v-50q0 -4 3.5 -7t8.5 -2z" />
    <glyph glyph-name="nacute" unicode="&#x144;" 
d="M583 44l-21 35q-2 4 -6.5 4.5t-8.5 -1.5q-6 -4 -15.5 -9t-17.5 -5q-7 0 -11 4t-4 18v5l-1 215q0 77 -42.5 123.5t-134.5 46.5q-49 0 -84.5 -20t-56.5 -48q-6 24 -23 40.5t-52 16.5q-23 0 -47 -10.5t-46 -26.5q-8 -6 -3 -12l20 -34q2 -4 6.5 -5t7.5 2q7 5 16 9t17 4
q9 0 13.5 -6t4.5 -22v-358q0 -10 9 -10h75q9 0 9 10v219q0 34 7 65t22.5 54.5t39.5 37.5t58 14q47 0 67.5 -29.5t20.5 -79.5v-203q0 -44 18 -69t64 -25q25 0 50 10.5t46 27.5zM422 681q4 5 1.5 9.5t-8.5 4.5h-76q-5 0 -7 -4l-130 -173q-4 -5 -1.5 -10t8.5 -5h65q2 0 4.5 1
t2.5 3z" />
    <glyph glyph-name="Ncommaaccent" unicode="&#x145;" horiz-adv-x="764" 
d="M732 631q10 0 10 10v57q0 10 -10 10h-132q-10 0 -10 -10v-552l-369 558q-1 2 -3.5 3t-4.5 1h-157q-9 0 -9 -10v-57q0 -10 9 -10h49v-554h-49q-9 0 -9 -10v-57q0 -10 9 -10h133q9 0 9 10v553l370 -559q2 -4 7 -4h99q9 0 9 10v621h49zM437 36l-82 23q-10 2 -12 -8
q-4 -26 -11 -54t-16 -54.5t-19 -50.5t-20 -42q-3 -10 6 -13l49 -17q2 -1 5 -0.5t5 2.5q12 15 26.5 37.5t28.5 49t26 56t20 59.5z" />
    <glyph glyph-name="ncommaaccent" unicode="&#x146;" 
d="M583 44l-21 35q-2 4 -6.5 4.5t-8.5 -1.5q-6 -4 -15.5 -9t-17.5 -5q-7 0 -11 4t-4 18v5l-1 215q0 77 -42.5 123.5t-134.5 46.5q-49 0 -84.5 -20t-56.5 -48q-6 24 -23 40.5t-52 16.5q-23 0 -47 -10.5t-46 -26.5q-8 -6 -3 -12l20 -34q2 -4 6.5 -5t7.5 2q7 5 16 9t17 4
q9 0 13.5 -6t4.5 -22v-358q0 -10 9 -10h75q9 0 9 10v219q0 34 7 65t22.5 54.5t39.5 37.5t58 14q47 0 67.5 -29.5t20.5 -79.5v-203q0 -44 18 -69t64 -25q25 0 50 10.5t46 27.5zM360 30l-82 23q-10 2 -12 -8q-4 -26 -11 -54t-16 -54.5t-19 -50.5t-20 -42q-3 -10 6 -13l49 -17
q2 -1 5 -0.5t5 2.5q12 15 26.5 37.5t28.5 49t26 56t20 59.5z" />
    <glyph glyph-name="Ncaron" unicode="&#x147;" horiz-adv-x="764" 
d="M732 631q10 0 10 10v57q0 10 -10 10h-132q-10 0 -10 -10v-552l-369 558q-1 2 -3.5 3t-4.5 1h-157q-9 0 -9 -10v-57q0 -10 9 -10h49v-554h-49q-9 0 -9 -10v-57q0 -10 9 -10h133q9 0 9 10v553l370 -559q2 -4 7 -4h99q9 0 9 10v621h49zM604 818q6 2 6 8v49q0 10 -13 8
l-183 -59l-186 59q-5 1 -8.5 -1t-3.5 -7v-49q0 -6 6 -8l188 -75h8z" />
    <glyph glyph-name="ncaron" unicode="&#x148;" 
d="M583 44l-21 35q-2 4 -6.5 4.5t-8.5 -1.5q-6 -4 -15.5 -9t-17.5 -5q-7 0 -11 4t-4 18v5l-1 215q0 77 -42.5 123.5t-134.5 46.5q-49 0 -84.5 -20t-56.5 -48q-6 24 -23 40.5t-52 16.5q-23 0 -47 -10.5t-46 -26.5q-8 -6 -3 -12l20 -34q2 -4 6.5 -5t7.5 2q7 5 16 9t17 4
q9 0 13.5 -6t4.5 -22v-358q0 -10 9 -10h75q9 0 9 10v219q0 34 7 65t22.5 54.5t39.5 37.5t58 14q47 0 67.5 -29.5t20.5 -79.5v-203q0 -44 18 -69t64 -25q25 0 50 10.5t46 27.5zM459 687q3 5 0 9.5t-9 4.5h-59q-6 0 -8 -5l-77 -132l-79 132q-3 5 -9 5h-63q-5 0 -8 -4.5t0 -9.5
l107 -184q1 -1 3.5 -2.5t4.5 -1.5h82q2 0 5 1.5t4 2.5z" />
    <glyph glyph-name="napostrophe" unicode="&#x149;" horiz-adv-x="665" 
d="M681 44l-21 35q-2 4 -6.5 4.5t-8.5 -1.5q-6 -4 -15.5 -9t-17.5 -5q-7 0 -11 4t-4 18v5l-1 215q0 77 -42.5 123.5t-134.5 46.5q-49 0 -84.5 -20t-56.5 -48q-6 24 -23 40.5t-52 16.5q-23 0 -47 -10.5t-46 -26.5q-8 -6 -3 -12l20 -34q2 -4 6.5 -5t7.5 2q7 5 16 9t17 4
q9 0 13.5 -6t4.5 -22v-358q0 -10 9 -10h75q9 0 9 10v219q0 34 7 65t22.5 54.5t39.5 37.5t58 14q47 0 67.5 -29.5t20.5 -79.5v-203q0 -44 18 -69t64 -25q25 0 50 10.5t46 27.5zM158 675l-82 23q-4 2 -7.5 0t-3.5 -7q-9 -53 -28 -108.5t-39 -92.5q-3 -10 6 -13l49 -18
q7 -2 10 3q12 15 26.5 37.5t28.5 49t26.5 56t20.5 58.5z" />
    <glyph glyph-name="Eng" unicode="&#x14a;" horiz-adv-x="764" 
d="M732 631q10 0 10 10v57q0 10 -10 10h-132q-10 0 -10 -10v-552l-369 558q-1 2 -3.5 3t-4.5 1h-157q-9 0 -9 -10v-57q0 -10 9 -10h49v-554h-49q-9 0 -9 -10v-57q0 -10 9 -10h133q9 0 9 10v553l370 -559q2 -4 7 -4q-11 -41 -25.5 -79.5t-28.5 -66.5q-3 -10 6 -13l49 -17
q2 -1 5 -0.5t5 2.5q7 9 23 30.5t32.5 48.5t29 56t12.5 52v618h49z" />
    <glyph glyph-name="eng" unicode="&#x14b;" horiz-adv-x="538" 
d="M498 310q0 77 -42.5 123.5t-134.5 46.5q-49 0 -84.5 -20t-56.5 -48q-6 24 -23 40.5t-52 16.5q-23 0 -47 -10.5t-46 -26.5q-8 -6 -3 -12l20 -34q2 -4 6.5 -5t7.5 2q7 5 16 9t17 4q9 0 13.5 -6t4.5 -22v-358q0 -10 9 -10h75q9 0 9 10v219q0 34 7 65t22.5 54.5t39.5 37.5
t58 14q47 0 67.5 -29.5t20.5 -79.5v-245q3 -32 -3.5 -61t-17.5 -55t-24.5 -48.5t-23.5 -41.5q-3 -10 6 -13l49 -17q2 -1 5 -0.5t5 2.5q12 15 29 36t33 46t26.5 52.5t9.5 54.5z" />
    <glyph glyph-name="Omacron" unicode="&#x14c;" horiz-adv-x="754" 
d="M714 354q0 81 -21.5 149t-63.5 117.5t-105 77.5t-145 28t-144.5 -28t-105 -77.5t-64 -117.5t-21.5 -149q0 -80 21.5 -148.5t64 -118t105 -77.5t144.5 -28t145 28t105 77.5t63.5 118t21.5 148.5zM607 354q0 -58 -13 -110t-40.5 -91.5t-71 -63t-103.5 -23.5t-103 23.5
t-70.5 63t-40.5 91.5t-13 110t13 110.5t40.5 92t70.5 63t103 23.5t103.5 -23.5t71 -63t40.5 -92t13 -110.5zM570 753q9 0 9 8v50q0 8 -9 8h-382q-10 0 -10 -8v-50q0 -8 10 -8h382z" />
    <glyph glyph-name="omacron" unicode="&#x14d;" horiz-adv-x="537" 
d="M508 234q0 55 -15.5 100.5t-45.5 77.5t-72.5 50t-96.5 18t-96.5 -18t-72.5 -50t-45.5 -77.5t-15.5 -100.5t15.5 -100t45.5 -77.5t72.5 -50.5t96.5 -18t96.5 18t72.5 50.5t45.5 77.5t15.5 100zM410 234q0 -33 -8 -64t-24.5 -54.5t-41 -37.5t-58.5 -14t-58.5 14t-41 37.5
t-24.5 54.5t-8 64q0 34 8 65t24.5 54.5t41 37.5t58.5 14t58.5 -14t41 -37.5t24.5 -54.5t8 -65zM436 503q10 0 10 8v47q0 7 -10 7h-315q-9 0 -9 -7v-47q0 -8 9 -8h315z" />
    <glyph glyph-name="Obreve" unicode="&#x14e;" horiz-adv-x="754" 
d="M714 354q0 81 -21.5 149t-63.5 117.5t-105 77.5t-145 28t-144.5 -28t-105 -77.5t-64 -117.5t-21.5 -149q0 -80 21.5 -148.5t64 -118t105 -77.5t144.5 -28t145 28t105 77.5t63.5 118t21.5 148.5zM607 354q0 -58 -13 -110t-40.5 -91.5t-71 -63t-103.5 -23.5t-103 23.5
t-70.5 63t-40.5 91.5t-13 110t13 110.5t40.5 92t70.5 63t103 23.5t103.5 -23.5t71 -63t40.5 -92t13 -110.5zM526 927h-52q-8 0 -10 -7q-13 -85 -85 -85q-38 0 -58.5 20.5t-27.5 63.5q-2 8 -9 8h-57q-9 0 -9 -10q5 -79 47.5 -115.5t111.5 -36.5t111 36.5t48 115.5z" />
    <glyph glyph-name="obreve" unicode="&#x14f;" horiz-adv-x="519" 
d="M490 234q0 55 -15.5 100.5t-45.5 77.5t-72.5 50t-96.5 18t-96.5 -18t-72.5 -50t-45.5 -77.5t-15.5 -100.5t15.5 -100t45.5 -77.5t72.5 -50.5t96.5 -18t96.5 18t72.5 50.5t45.5 77.5t15.5 100zM392 234q0 -33 -8 -64t-24.5 -54.5t-41 -37.5t-58.5 -14t-58.5 14t-41 37.5
t-24.5 54.5t-8 64q0 34 8 65t24.5 54.5t41 37.5t58.5 14t58.5 -14t41 -37.5t24.5 -54.5t8 -65zM405 679h-52q-8 0 -10 -7q-13 -85 -85 -85q-38 0 -58.5 20.5t-27.5 63.5q-2 8 -9 8h-57q-9 0 -9 -10q5 -79 47.5 -115.5t111.5 -36.5t111 36.5t48 115.5z" />
    <glyph glyph-name="Ohungarumlaut" unicode="&#x150;" horiz-adv-x="754" 
d="M714 354q0 81 -21.5 149t-63.5 117.5t-105 77.5t-145 28t-144.5 -28t-105 -77.5t-64 -117.5t-21.5 -149q0 -80 21.5 -148.5t64 -118t105 -77.5t144.5 -28t145 28t105 77.5t63.5 118t21.5 148.5zM607 354q0 -58 -13 -110t-40.5 -91.5t-71 -63t-103.5 -23.5t-103 23.5
t-70.5 63t-40.5 91.5t-13 110t13 110.5t40.5 92t70.5 63t103 23.5t103.5 -23.5t71 -63t40.5 -92t13 -110.5zM375 819q6 2 6 8v64q0 5 -4 7.5t-9 0.5l-192 -76q-6 -2 -6 -8v-51q0 -5 4 -7.5t9 -0.5zM600 819q7 2 7 8v64q0 5 -4 7.5t-9 0.5l-192 -76q-6 -2 -6 -8v-51
q0 -5 3.5 -7.5t8.5 -0.5z" />
    <glyph glyph-name="ohungarumlaut" unicode="&#x151;" horiz-adv-x="537" 
d="M508 234q0 55 -15.5 100.5t-45.5 77.5t-72.5 50t-96.5 18t-96.5 -18t-72.5 -50t-45.5 -77.5t-15.5 -100.5t15.5 -100t45.5 -77.5t72.5 -50.5t96.5 -18t96.5 18t72.5 50.5t45.5 77.5t15.5 100zM410 234q0 -33 -8 -64t-24.5 -54.5t-41 -37.5t-58.5 -14t-58.5 14t-41 37.5
t-24.5 54.5t-8 64q0 34 8 65t24.5 54.5t41 37.5t58.5 14t58.5 -14t41 -37.5t24.5 -54.5t8 -65zM333 678q2 5 -0.5 9.5t-8.5 4.5h-70q-7 0 -9 -4l-96 -174q-3 -5 0 -9.5t9 -4.5h60q5 0 8 5zM469 678q3 5 0 9.5t-8 4.5h-71q-6 0 -8 -4l-96 -174q-3 -5 0 -9.5t8 -4.5h60
q6 0 9 5z" />
    <glyph glyph-name="OE" unicode="&#x152;" horiz-adv-x="906" 
d="M885 0q10 0 10 10v61q0 10 -10 10h-314v249h253q10 0 10 10v62q0 10 -10 10h-253v216h281q10 0 10 9v62q0 9 -10 9h-230q-52 0 -92.5 2t-74.5 4q-50 3 -89 3q-83 0 -144 -26.5t-100.5 -74.5t-59 -115t-19.5 -147t19.5 -147t59 -115t100.5 -74.5t144 -26.5q20 0 41 1t44 3
q29 2 63 3.5t74 1.5h297zM468 80q-17 -2 -43.5 -3.5t-58.5 -1.5q-60 0 -101.5 22t-66.5 60t-36 88.5t-11 108.5t11 109t36 89t66.5 60t101.5 22q26 0 52.5 -1.5t54.5 -3.5v-549h-5z" />
    <glyph glyph-name="oe" unicode="&#x153;" horiz-adv-x="854" 
d="M820 198q10 0 10 10v32q0 117 -52 178.5t-155 61.5q-57 0 -97.5 -23t-69.5 -64q-31 41 -76 64t-103 23q-53 0 -95.5 -18t-72 -50t-45 -77.5t-15.5 -100.5t15.5 -100t45 -77.5t72 -50.5t95.5 -18q59 0 101 23t72 64q23 -35 67 -61t115 -26q65 0 100 10t58 22q5 2 5 9v62
q0 6 -5 9t-10 0q-23 -13 -56.5 -23.5t-81.5 -10.5q-36 0 -61.5 12t-42.5 31t-26 42.5t-12 46.5h320zM406 234q0 -33 -7 -64t-23 -54.5t-40.5 -37.5t-58.5 -14q-33 0 -57.5 14t-40 37.5t-23.5 54.5t-8 64q0 34 8 65t23.5 54.5t40 37.5t57.5 14q34 0 58.5 -14t40.5 -37.5
t23 -54.5t7 -65zM620 406q56 0 80.5 -35.5t28.5 -98.5h-228q8 63 35.5 98.5t83.5 35.5z" />
    <glyph glyph-name="Racute" unicode="&#x154;" horiz-adv-x="604" 
d="M594 0q9 0 9 10v57q0 10 -9 10h-42q-27 0 -41 32q-8 15 -11.5 32.5t-8.5 35.5q-5 20 -11 40.5t-15 40.5t-22.5 37.5t-32.5 31.5q27 8 45.5 19t35.5 28q26 26 39 58.5t13 76.5q0 94 -61 146.5t-171 52.5h-264q-10 0 -10 -10v-57q0 -10 10 -10h48v-554h-48q-10 0 -10 -10
v-57q0 -10 10 -10h195q10 0 10 10v57q0 10 -10 10h-49v236h108q24 -14 40 -34t27 -43.5t17.5 -49t12.5 -50.5q6 -28 13 -52.5t17.5 -43t26.5 -29.5t41 -11h98zM438 509q0 -114 -121 -114h-124v232h124q60 0 90.5 -31t30.5 -87zM436 794q7 2 7 9v63q0 10 -11 8l-293 -55
q-8 -2 -8 -8v-50q0 -4 3.5 -7t8.5 -2z" />
    <glyph glyph-name="racute" unicode="&#x155;" horiz-adv-x="376" 
d="M389 439q4 7 -4 11q-12 8 -32 16t-53 8q-35 0 -68.5 -19.5t-55.5 -58.5q-5 37 -21.5 54.5t-50.5 17.5q-23 0 -47 -10t-46 -26q-2 -2 -3 -6t1 -7l20 -33q2 -4 6 -5t8 2q14 12 32 12q8 0 12.5 -5.5t4.5 -22.5v-357q0 -10 10 -10h73q9 0 9 10v183q0 45 11.5 87t31.5 72
q13 19 30.5 29.5t38.5 10.5q22 0 37 -7t20 -11q4 -3 8 -1.5t6 6.5zM380 678q4 5 1.5 9.5t-8.5 4.5h-76q-5 0 -7 -4l-130 -173q-4 -5 -1.5 -10t8.5 -5h65q2 0 4.5 1t2.5 3z" />
    <glyph glyph-name="Rcommaaccent" unicode="&#x156;" horiz-adv-x="604" 
d="M594 0q9 0 9 10v57q0 10 -9 10h-42q-27 0 -41 32q-8 15 -11.5 32.5t-8.5 35.5q-5 20 -11 40.5t-15 40.5t-22.5 37.5t-32.5 31.5q27 8 45.5 19t35.5 28q26 26 39 58.5t13 76.5q0 94 -61 146.5t-171 52.5h-264q-10 0 -10 -10v-57q0 -10 10 -10h48v-554h-48q-10 0 -10 -10
v-57q0 -10 10 -10h195q10 0 10 10v57q0 10 -10 10h-49v236h108q24 -14 40 -34t27 -43.5t17.5 -49t12.5 -50.5q6 -28 13 -52.5t17.5 -43t26.5 -29.5t41 -11h98zM438 509q0 -114 -121 -114h-124v232h124q60 0 90.5 -31t30.5 -87zM388 53l-82 23q-10 2 -12 -8q-4 -26 -11 -54
t-16 -54.5t-19 -50.5t-20 -42q-3 -10 6 -13l49 -17q2 -1 5 -0.5t5 2.5q12 15 26.5 37.5t28.5 49t26 56t20 59.5z" />
    <glyph glyph-name="rcommaaccent" unicode="&#x157;" horiz-adv-x="376" 
d="M259 29l-75 21v143q0 45 11.5 87t31.5 72q13 19 30.5 29.5t38.5 10.5q22 0 37 -7t20 -11q4 -3 8 -1.5t6 6.5l22 60q4 7 -4 11q-12 8 -32 16t-53 8q-35 0 -68.5 -19.5t-55.5 -58.5q-5 37 -21.5 54.5t-50.5 17.5q-23 0 -47 -10t-46 -26q-2 -2 -3 -6t1 -7l20 -33q2 -4 6 -5
t8 2q14 12 32 12q8 0 12.5 -5.5t4.5 -22.5v-357q0 -10 10 -10h54q-11 -44 -26.5 -86t-30.5 -71q-3 -10 6 -13l49 -17q5 -3 10 2q12 15 26.5 37.5t28.5 49t26 56t20 59.5z" />
    <glyph glyph-name="Rcaron" unicode="&#x158;" horiz-adv-x="604" 
d="M594 0q9 0 9 10v57q0 10 -9 10h-42q-27 0 -41 32q-8 15 -11.5 32.5t-8.5 35.5q-5 20 -11 40.5t-15 40.5t-22.5 37.5t-32.5 31.5q27 8 45.5 19t35.5 28q26 26 39 58.5t13 76.5q0 94 -61 146.5t-171 52.5h-264q-10 0 -10 -10v-57q0 -10 10 -10h48v-554h-48q-10 0 -10 -10
v-57q0 -10 10 -10h195q10 0 10 10v57q0 10 -10 10h-49v236h108q24 -14 40 -34t27 -43.5t17.5 -49t12.5 -50.5q6 -28 13 -52.5t17.5 -43t26.5 -29.5t41 -11h98zM438 509q0 -114 -121 -114h-124v232h124q60 0 90.5 -31t30.5 -87zM440 938q3 5 0 9.5t-9 4.5h-59q-6 0 -8 -5
l-77 -132l-79 132q-3 5 -9 5h-63q-5 0 -8 -4.5t0 -9.5l107 -184q1 -1 3.5 -2.5t4.5 -1.5h82q2 0 5 1.5t4 2.5z" />
    <glyph glyph-name="rcaron" unicode="&#x159;" horiz-adv-x="376" 
d="M389 439q4 7 -4 11q-12 8 -32 16t-53 8q-35 0 -68.5 -19.5t-55.5 -58.5q-5 37 -21.5 54.5t-50.5 17.5q-23 0 -47 -10t-46 -26q-2 -2 -3 -6t1 -7l20 -33q2 -4 6 -5t8 2q14 12 32 12q8 0 12.5 -5.5t4.5 -22.5v-357q0 -10 10 -10h73q9 0 9 10v183q0 45 11.5 87t31.5 72
q13 19 30.5 29.5t38.5 10.5q22 0 37 -7t20 -11q4 -3 8 -1.5t6 6.5zM364 680q3 5 0 9.5t-9 4.5h-59q-6 0 -8 -5l-77 -132l-79 132q-3 5 -9 5h-63q-5 0 -8 -4.5t0 -9.5l107 -184q1 -1 3.5 -2.5t4.5 -1.5h82q2 0 5 1.5t4 2.5z" />
    <glyph glyph-name="Sacute" unicode="&#x15a;" horiz-adv-x="499" 
d="M479 189q0 50 -15.5 85.5t-43.5 60.5t-67 43t-85 34q-40 13 -67 26t-43.5 28t-24 32.5t-7.5 40.5q0 49 38.5 77t100.5 28q54 0 91.5 -10.5t62.5 -20.5q9 -4 13 4l22 60q4 10 -5 12q-12 6 -33 12.5t-45.5 12t-52 9t-52.5 3.5q-54 0 -97.5 -13t-74 -38t-47.5 -62t-17 -84
q0 -50 18.5 -84t48.5 -58t68 -40t77 -29q29 -10 54 -21.5t43 -26.5t28.5 -35.5t10.5 -48.5q0 -60 -40.5 -88.5t-111.5 -28.5q-58 0 -102.5 14.5t-76.5 28.5q-5 2 -9 -0.5t-4 -8.5v-73q0 -7 5 -9q35 -14 83.5 -26.5t108.5 -12.5q56 0 102 13.5t78.5 39.5t50 64.5t17.5 89.5z
M398 792q7 2 7 9v63q0 10 -11 8l-293 -55q-8 -2 -8 -8v-50q0 -4 3.5 -7t8.5 -2z" />
    <glyph glyph-name="sacute" unicode="&#x15b;" horiz-adv-x="390" 
d="M378 139q0 34 -10.5 57.5t-30 39.5t-47.5 27t-62 19q-48 11 -76.5 26t-28.5 39q0 27 21.5 43t66.5 16q40 0 69.5 -10.5t42.5 -15.5q0 -1 1 -1q4 -3 9 -2.5t7 5.5l21 48q4 8 -3 12q-39 21 -77 29.5t-70 8.5q-36 0 -68 -9t-56.5 -27t-39 -44.5t-14.5 -61.5q0 -34 13 -56.5
t34.5 -38t51 -25t62.5 -18.5q42 -11 67 -24.5t25 -45.5q0 -17 -8 -29.5t-21 -20.5t-29.5 -11.5t-33.5 -3.5q-50 0 -87 15.5t-63 31.5q-5 3 -10 0.5t-5 -7.5v-68q0 -2 2 -4.5t4 -3.5q21 -11 62 -26t104 -15q32 0 64 8.5t57 26.5t40.5 46.5t15.5 69.5zM347 678q4 5 1.5 9.5
t-8.5 4.5h-76q-5 0 -7 -4l-130 -173q-4 -5 -1.5 -10t8.5 -5h65q2 0 4.5 1t2.5 3z" />
    <glyph glyph-name="Scircumflex" unicode="&#x15c;" horiz-adv-x="499" 
d="M479 189q0 50 -15.5 85.5t-43.5 60.5t-67 43t-85 34q-40 13 -67 26t-43.5 28t-24 32.5t-7.5 40.5q0 49 38.5 77t100.5 28q54 0 91.5 -10.5t62.5 -20.5q9 -4 13 4l22 60q4 10 -5 12q-12 6 -33 12.5t-45.5 12t-52 9t-52.5 3.5q-54 0 -97.5 -13t-74 -38t-47.5 -62t-17 -84
q0 -50 18.5 -84t48.5 -58t68 -40t77 -29q29 -10 54 -21.5t43 -26.5t28.5 -35.5t10.5 -48.5q0 -60 -40.5 -88.5t-111.5 -28.5q-58 0 -102.5 14.5t-76.5 28.5q-5 2 -9 -0.5t-4 -8.5v-73q0 -7 5 -9q35 -14 83.5 -26.5t108.5 -12.5q56 0 102 13.5t78.5 39.5t50 64.5t17.5 89.5z
M402 748q6 0 9 4t0 9l-107 184q-3 5 -9 5h-82q-2 0 -4.5 -1.5t-3.5 -3.5l-106 -184q-3 -5 0 -9t8 -4h59q2 0 5 1.5t4 2.5l75 131l81 -131q1 -1 3.5 -2.5t4.5 -1.5h63z" />
    <glyph glyph-name="scircumflex" unicode="&#x15d;" horiz-adv-x="390" 
d="M378 139q0 34 -10.5 57.5t-30 39.5t-47.5 27t-62 19q-48 11 -76.5 26t-28.5 39q0 27 21.5 43t66.5 16q40 0 69.5 -10.5t42.5 -15.5q0 -1 1 -1.5t0 0.5q4 -3 9 -2.5t7 5.5l21 48q4 8 -3 12q-39 21 -77 29.5t-70 8.5q-36 0 -68 -9t-56.5 -27t-39 -44.5t-14.5 -61.5
q0 -34 13 -56.5t34.5 -38t51 -25t62.5 -18.5q42 -11 67 -24.5t25 -45.5q0 -17 -8 -29.5t-21 -20.5t-29.5 -11.5t-33.5 -3.5q-50 0 -87 15.5t-63 31.5q-5 3 -10 0.5t-5 -7.5v-68q0 -2 2 -4.5t4 -3.5q21 -11 62 -26t104 -15q32 0 64 8.5t57 26.5t40.5 46.5t15.5 69.5zM344 504
q6 0 9 4t0 9l-107 184q-3 5 -9 5h-82q-2 0 -4.5 -1.5t-3.5 -3.5l-106 -184q-3 -5 0 -9t8 -4h59q2 0 5 1.5t4 2.5l75 131l81 -131q1 -1 3.5 -2.5t4.5 -1.5h63z" />
    <glyph glyph-name="Scommaaccent" unicode="&#x15e;" horiz-adv-x="499" 
d="M479 189q0 50 -15.5 85.5t-43.5 60.5t-67 43t-85 34q-40 13 -67 26t-43.5 28t-24 32.5t-7.5 40.5q0 49 38.5 77t100.5 28q54 0 91.5 -10.5t62.5 -20.5q9 -4 13 4l22 60q4 10 -5 12q-12 6 -33 12.5t-45.5 12t-52 9t-52.5 3.5q-54 0 -97.5 -13t-74 -38t-47.5 -62t-17 -84
q0 -50 18.5 -84t48.5 -58t68 -40t77 -29q29 -10 54 -21.5t43 -26.5t28.5 -35.5t10.5 -48.5q0 -60 -40.5 -88.5t-111.5 -28.5q-58 0 -102.5 14.5t-76.5 28.5q-5 2 -9 -0.5t-4 -8.5v-73q0 -7 5 -9q32 -14 77.5 -25.5t100.5 -13.5q-11 -44 -26 -86.5t-31 -72.5q-3 -10 6 -13
l49 -17q5 -3 10 2q12 15 26 37t27.5 48.5t26 55.5t20.5 58q72 18 113 67.5t41 127.5z" />
    <glyph glyph-name="scommaaccent" unicode="&#x15f;" horiz-adv-x="390" 
d="M378 139q0 34 -10.5 57.5t-30 39.5t-47.5 27t-62 19q-48 11 -76.5 26t-28.5 39q0 27 21.5 43t66.5 16q40 0 69.5 -10.5t42.5 -15.5q0 -1 1 -1q4 -3 9 -2.5t7 5.5l21 48q4 8 -3 12q-39 21 -77 29.5t-70 8.5q-36 0 -68 -9t-56.5 -27t-39 -44.5t-14.5 -61.5q0 -34 13 -56.5
t34.5 -38t51 -25t62.5 -18.5q42 -11 67 -24.5t25 -45.5q0 -17 -8 -29.5t-21 -20.5t-29.5 -11.5t-33.5 -3.5q-50 0 -87 15.5t-63 31.5q-5 3 -10 0.5t-5 -7.5v-68q0 -2 2 -4.5t4 -3.5q17 -9 49 -21.5t80 -17.5q-11 -45 -27 -89t-32 -75q-3 -10 6 -13l49 -17q5 -3 10 2
q12 15 26 37.5t28 48.5t26 55.5t20 58.5q45 14 76.5 47.5t31.5 93.5z" />
    <glyph glyph-name="Scaron" unicode="&#x160;" horiz-adv-x="499" 
d="M479 190q0 51 -15.5 86t-43.5 60.5t-67 43.5t-85 34q-40 13 -67 26t-43.5 28t-24 32.5t-7.5 40.5q0 50 38.5 78t100.5 28q54 0 91.5 -10.5t62.5 -20.5q9 -4 13 4l22 60q4 9 -5 13q-12 6 -33 12.5t-45.5 12t-52 9t-52.5 3.5q-54 0 -97.5 -13t-74 -38.5t-47.5 -62.5
t-17 -85q0 -50 18.5 -84t48.5 -58t68 -40t77 -29q29 -10 54 -21.5t43 -27t28.5 -36t10.5 -48.5q0 -60 -40.5 -89t-111.5 -29q-58 0 -102.5 14.5t-76.5 29.5q-13 4 -13 -9v-74q0 -6 5 -8q35 -15 83.5 -27.5t108.5 -12.5q56 0 102 13.5t78.5 39.5t50 65t17.5 90zM458 828
q5 2 5 9v55q0 11 -12 8l-185 -65l-187 65q-5 2 -8.5 -0.5t-3.5 -7.5v-55q0 -7 6 -9l189 -83q4 -2 8 0z" />
    <glyph glyph-name="scaron" unicode="&#x161;" horiz-adv-x="412" 
d="M378 139q0 34 -10.5 57.5t-30 39.5t-47.5 27t-62 19q-48 11 -76.5 26t-28.5 39q0 27 21.5 43t66.5 16q40 0 69.5 -10.5t42.5 -15.5q0 -1 1 -1q4 -3 9 -2.5t7 5.5l21 48q4 8 -3 12q-39 21 -77 29.5t-70 8.5q-36 0 -68 -9t-56.5 -27t-39 -44.5t-14.5 -61.5q0 -34 13 -56.5
t34.5 -38t51 -25t62.5 -18.5q42 -11 67 -24.5t25 -45.5q0 -17 -8 -29.5t-21 -20.5t-29.5 -11.5t-33.5 -3.5q-50 0 -87 15.5t-63 31.5q-5 3 -10 0.5t-5 -7.5v-68q0 -2 2 -4.5t4 -3.5q21 -11 62 -26t104 -15q32 0 64 8.5t57 26.5t40.5 46.5t15.5 69.5zM366 675q3 5 0 9.5
t-9 4.5h-59q-6 0 -8 -5l-77 -132l-79 132q-3 5 -9 5h-63q-5 0 -8 -4.5t0 -9.5l107 -184q1 -1 3.5 -2.5t4.5 -1.5h82q2 0 5 1.5t4 2.5z" />
    <glyph glyph-name="Tcommaaccent" unicode="&#x162;" horiz-adv-x="536" 
d="M527 627q10 0 10 10v61q0 10 -10 10h-515q-9 0 -9 -10v-61q0 -10 9 -10h208v-550h-48q-9 0 -9 -10v-57q0 -10 9 -10h56q-10 -47 -26.5 -93t-33.5 -78q-3 -10 6 -13l49 -17q5 -3 10 2q12 15 26 37t27.5 48.5t26 55.5t20.5 58h34q10 0 10 10v57q0 10 -10 10h-48v550h208z
" />
    <glyph glyph-name="tcommaaccent" unicode="&#x163;" horiz-adv-x="308" 
d="M323 28v55q0 6 -5 8.5t-10 -0.5q-11 -7 -33 -14t-43 -7q-31 0 -40 15t-9 52v263h111q10 0 10 10v53q0 9 -10 9h-111v120q0 9 -9 9h-73q-10 0 -10 -9v-120h-74q-9 0 -9 -9v-53q0 -10 9 -10h74v-274q0 -54 17 -83.5t52 -41.5q-11 -46 -27 -92t-33 -78q-3 -10 6 -13l49 -17
q5 -3 10 2q12 15 26 36.5t27.5 47.5t25.5 55t20 58q17 4 31.5 9t22.5 10z" />
    <glyph glyph-name="Tcaron" unicode="&#x164;" horiz-adv-x="536" 
d="M527 627q10 0 10 10v61q0 10 -10 10h-515q-9 0 -9 -10v-61q0 -10 9 -10h208v-550h-48q-9 0 -9 -10v-57q0 -10 9 -10h195q10 0 10 10v57q0 10 -10 10h-48v550h208zM459 822q6 2 6 8v49q0 10 -13 8l-183 -59l-186 59q-5 1 -8.5 -1t-3.5 -7v-49q0 -6 6 -8l188 -75h8z" />
    <glyph glyph-name="tcaron" unicode="&#x165;" horiz-adv-x="313" 
d="M323 28v55q0 6 -5 8.5t-10 -0.5q-11 -7 -33 -14t-43 -7q-31 0 -40 15t-9 52v263h111q10 0 10 10v53q0 9 -10 9h-111v120q0 9 -9 9h-73q-10 0 -10 -9v-120h-74q-9 0 -9 -9v-53q0 -10 9 -10h74v-274q0 -72 32 -102.5t95 -30.5q15 0 30 3t28.5 7t24.5 8.5t17 7.5zM389 709
l-82 23q-10 2 -12 -8q-4 -26 -11 -54t-16 -54.5t-19 -50.5t-20 -42q-3 -10 6 -13l49 -17q2 -1 5 -0.5t5 2.5q12 15 26.5 37.5t28.5 49t26 56t20 59.5z" />
    <glyph glyph-name="Tbar" unicode="&#x166;" horiz-adv-x="536" 
d="M424 385q10 0 10 8v59q0 7 -10 7h-105v168h208q10 0 10 10v61q0 10 -10 10h-515q-9 0 -9 -10v-61q0 -10 9 -10h208v-168h-111q-9 0 -9 -7v-59q0 -8 9 -8h111v-308h-48q-9 0 -9 -10v-57q0 -10 9 -10h195q10 0 10 10v57q0 10 -10 10h-48v308h105z" />
    <glyph glyph-name="tbar" unicode="&#x167;" horiz-adv-x="308" 
d="M313 261q9 0 9 8v60q0 8 -9 8h-130v63h111q10 0 10 10v53q0 9 -10 9h-111v120q0 9 -9 9h-73q-10 0 -10 -9v-120h-74q-9 0 -9 -9v-53q0 -10 9 -10h74v-63h-93q-10 0 -10 -8v-60q0 -8 10 -8h93v-135q0 -72 32 -102.5t95 -30.5q15 0 30 3t28.5 7t24.5 8.5t17 7.5l5 9v55
q0 6 -5 8.5t-10 -0.5q-11 -7 -33 -14t-43 -7q-31 0 -40 15t-9 52v124h130z" />
    <glyph glyph-name="Utilde" unicode="&#x168;" horiz-adv-x="717" 
d="M676 632q10 0 10 9v58q0 10 -10 10h-134q-10 0 -10 -10v-446q0 -100 -41 -143.5t-127 -43.5q-90 0 -130.5 43.5t-40.5 143.5v446q0 10 -10 10h-141q-9 0 -9 -10v-58q0 -9 9 -9h49v-395q0 -60 15.5 -107t48.5 -80t84.5 -50.5t123.5 -17.5q70 0 120 17.5t82.5 50.5t47.5 80
t15 107v395h48zM543 873h-50q-7 0 -9 -7q-3 -13 -11 -24t-26 -11q-20 0 -36 3.5t-34 8.5q-3 1 -5.5 2t-5.5 2h1q-18 5 -36.5 8.5t-48.5 3.5q-27 0 -47 -9.5t-33.5 -25t-21.5 -34t-10 -36.5q-1 -4 2 -7t8 -3h49q8 0 10 7q3 12 11.5 24t29.5 12q17 0 31 -3t27 -7l-1 1
q9 -3 17 -5q3 -1 5 -1.5t5 -1.5q17 -4 37.5 -7.5t48.5 -3.5q25 0 43.5 9.5t31 24.5t19 34t8.5 37z" />
    <glyph glyph-name="utilde" unicode="&#x169;" horiz-adv-x="566" 
d="M577 50l-21 34q-2 4 -6.5 4.5t-8.5 -1.5q-6 -3 -15.5 -8t-17.5 -5t-11.5 5t-3.5 22v358q0 9 -10 9h-74q-10 0 -10 -9v-219q0 -34 -7 -65t-22.5 -54.5t-39.5 -37.5t-58 -14q-47 0 -67 30t-20 79v208q0 33 -19 57.5t-63 24.5q-23 0 -48 -10t-47 -26q-3 -2 -4 -6t1 -6
l20 -34q2 -4 6.5 -5t7.5 2q7 5 16 9t17 4t12.5 -5t4.5 -19v-214q0 -77 42 -123.5t135 -46.5q48 0 83 19.5t57 48.5q5 -25 22.5 -40.5t49.5 -15.5q25 0 50 10t46 27zM429 644h-51q-9 0 -9 -8q-2 -17 -10.5 -29.5t-25.5 -12.5q-10 0 -18.5 2.5t-19.5 5.5l1 -1q3 -2 -1 -0.5
t-6 2.5q-22 7 -37 10t-36 3q-25 0 -44.5 -10t-33 -25.5t-20.5 -35t-8 -38.5q0 -9 10 -9h51q7 0 9 7q4 16 12.5 29.5t25.5 13.5q11 0 22.5 -2.5t23.5 -6.5q3 -1 2.5 -0.5t2.5 -0.5l9 -3q14 -3 26 -5.5t36 -2.5q23 0 41.5 9.5t31 25t19 34.5t6.5 39z" />
    <glyph glyph-name="Umacron" unicode="&#x16a;" horiz-adv-x="717" 
d="M676 632q10 0 10 9v58q0 10 -10 10h-134q-10 0 -10 -10v-446q0 -100 -41 -143.5t-127 -43.5q-90 0 -130.5 43.5t-40.5 143.5v446q0 10 -10 10h-141q-9 0 -9 -10v-58q0 -9 9 -9h49v-395q0 -60 15.5 -107t48.5 -80t84.5 -50.5t123.5 -17.5q70 0 120 17.5t82.5 50.5t47.5 80
t15 107v395h48zM560 749q9 0 9 8v50q0 8 -9 8h-382q-10 0 -10 -8v-50q0 -8 10 -8h382z" />
    <glyph glyph-name="umacron" unicode="&#x16b;" horiz-adv-x="566" 
d="M577 50l-21 34q-2 4 -6.5 4.5t-8.5 -1.5q-6 -3 -15.5 -8t-17.5 -5t-11.5 5t-3.5 22v358q0 9 -10 9h-74q-10 0 -10 -9v-219q0 -34 -7 -65t-22.5 -54.5t-39.5 -37.5t-58 -14q-47 0 -67 30t-20 79v208q0 33 -19 57.5t-63 24.5q-23 0 -48 -10t-47 -26q-3 -2 -4 -6t1 -6
l20 -34q2 -4 6.5 -5t7.5 2q7 5 16 9t17 4t12.5 -5t4.5 -19v-214q0 -77 42 -123.5t135 -46.5q48 0 83 19.5t57 48.5q5 -25 22.5 -40.5t49.5 -15.5q25 0 50 10t46 27zM435 500q10 0 10 8v47q0 7 -10 7h-315q-9 0 -9 -7v-47q0 -8 9 -8h315z" />
    <glyph glyph-name="Ubreve" unicode="&#x16c;" horiz-adv-x="717" 
d="M676 632q10 0 10 9v58q0 10 -10 10h-134q-10 0 -10 -10v-446q0 -100 -41 -143.5t-127 -43.5q-90 0 -130.5 43.5t-40.5 143.5v446q0 10 -10 10h-141q-9 0 -9 -10v-58q0 -9 9 -9h49v-395q0 -60 15.5 -107t48.5 -80t84.5 -50.5t123.5 -17.5q70 0 120 17.5t82.5 50.5t47.5 80
t15 107v395h48zM511 932h-52q-8 0 -10 -7q-13 -85 -85 -85q-38 0 -58.5 20.5t-27.5 63.5q-2 8 -9 8h-57q-9 0 -9 -10q5 -79 47.5 -115.5t111.5 -36.5t111 36.5t48 115.5z" />
    <glyph glyph-name="ubreve" unicode="&#x16d;" horiz-adv-x="566" 
d="M577 50l-21 34q-2 4 -6.5 4.5t-8.5 -1.5q-6 -3 -15.5 -8t-17.5 -5t-11.5 5t-3.5 22v358q0 9 -10 9h-74q-10 0 -10 -9v-219q0 -34 -7 -65t-22.5 -54.5t-39.5 -37.5t-58 -14q-47 0 -67 30t-20 79v208q0 33 -19 57.5t-63 24.5q-23 0 -48 -10t-47 -26q-3 -2 -4 -6t1 -6
l20 -34q2 -4 6.5 -5t7.5 2q7 5 16 9t17 4t12.5 -5t4.5 -19v-214q0 -77 42 -123.5t135 -46.5q48 0 83 19.5t57 48.5q5 -25 22.5 -40.5t49.5 -15.5q25 0 50 10t46 27zM430 676h-52q-8 0 -10 -7q-13 -85 -85 -85q-38 0 -58.5 20.5t-27.5 63.5q-2 8 -9 8h-57q-9 0 -9 -10
q5 -79 47.5 -115.5t111.5 -36.5t111 36.5t48 115.5z" />
    <glyph glyph-name="Uring" unicode="&#x16e;" horiz-adv-x="717" 
d="M676 632q10 0 10 9v58q0 10 -10 10h-134q-10 0 -10 -10v-446q0 -100 -41 -143.5t-127 -43.5q-90 0 -130.5 43.5t-40.5 143.5v446q0 10 -10 10h-141q-9 0 -9 -10v-58q0 -9 9 -9h49v-395q0 -60 15.5 -107t48.5 -80t84.5 -50.5t123.5 -17.5q70 0 120 17.5t82.5 50.5t47.5 80
t15 107v395h48zM476 856q0 21 -8 40t-22 34t-33.5 23.5t-42.5 8.5t-42.5 -8.5t-33.5 -23.5t-22 -34t-8 -40q0 -45 29.5 -75t76.5 -30q23 0 42.5 8t33.5 22.5t22 33.5t8 41zM417 856q0 -21 -15 -34t-32 -13q-18 0 -33 13t-15 34q0 20 15 33.5t33 13.5q17 0 32 -13.5t15 -33.5
z" />
    <glyph glyph-name="uring" unicode="&#x16f;" horiz-adv-x="566" 
d="M577 50l-21 34q-2 4 -6.5 4.5t-8.5 -1.5q-6 -3 -15.5 -8t-17.5 -5t-11.5 5t-3.5 22v358q0 9 -10 9h-74q-10 0 -10 -9v-219q0 -34 -7 -65t-22.5 -54.5t-39.5 -37.5t-58 -14q-47 0 -67 30t-20 79v208q0 33 -19 57.5t-63 24.5q-23 0 -48 -10t-47 -26q-3 -2 -4 -6t1 -6
l20 -34q2 -4 6.5 -5t7.5 2q7 5 16 9t17 4t12.5 -5t4.5 -19v-214q0 -77 42 -123.5t135 -46.5q48 0 83 19.5t57 48.5q5 -25 22.5 -40.5t49.5 -15.5q25 0 50 10t46 27zM391 594q0 21 -8 40t-22 34t-33.5 23.5t-42.5 8.5t-42.5 -8.5t-33.5 -23.5t-22 -34t-8 -40q0 -45 29.5 -75
t76.5 -30q23 0 42.5 8t33.5 22.5t22 33.5t8 41zM332 594q0 -21 -15 -34t-32 -13q-18 0 -33 13t-15 34q0 20 15 33.5t33 13.5q17 0 32 -13.5t15 -33.5z" />
    <glyph glyph-name="Uhungarumlaut" unicode="&#x170;" horiz-adv-x="717" 
d="M676 632q10 0 10 9v58q0 10 -10 10h-134q-10 0 -10 -10v-446q0 -100 -41 -143.5t-127 -43.5q-90 0 -130.5 43.5t-40.5 143.5v446q0 10 -10 10h-141q-9 0 -9 -10v-58q0 -9 9 -9h49v-395q0 -60 15.5 -107t48.5 -80t84.5 -50.5t123.5 -17.5q70 0 120 17.5t82.5 50.5t47.5 80
t15 107v395h48zM422 924q2 5 -0.5 9.5t-8.5 4.5h-70q-7 0 -9 -4l-96 -174q-3 -5 0 -9.5t9 -4.5h60q5 0 8 5zM558 924q3 5 0 9.5t-8 4.5h-71q-6 0 -8 -4l-96 -174q-3 -5 0 -9.5t8 -4.5h60q6 0 9 5z" />
    <glyph glyph-name="uhungarumlaut" unicode="&#x171;" horiz-adv-x="566" 
d="M577 50l-21 34q-2 4 -6.5 4.5t-8.5 -1.5q-6 -3 -15.5 -8t-17.5 -5t-11.5 5t-3.5 22v358q0 9 -10 9h-74q-10 0 -10 -9v-219q0 -34 -7 -65t-22.5 -54.5t-39.5 -37.5t-58 -14q-47 0 -67 30t-20 79v208q0 33 -19 57.5t-63 24.5q-23 0 -48 -10t-47 -26q-3 -2 -4 -6t1 -6
l20 -34q2 -4 6.5 -5t7.5 2q7 5 16 9t17 4t12.5 -5t4.5 -19v-214q0 -77 42 -123.5t135 -46.5q48 0 83 19.5t57 48.5q5 -25 22.5 -40.5t49.5 -15.5q25 0 50 10t46 27zM353 679q2 5 -0.5 9.5t-8.5 4.5h-70q-7 0 -9 -4l-96 -174q-3 -5 0 -9.5t9 -4.5h60q5 0 8 5zM489 679
q3 5 0 9.5t-8 4.5h-71q-6 0 -8 -4l-96 -174q-3 -5 0 -9.5t8 -4.5h60q6 0 9 5z" />
    <glyph glyph-name="Uogonek" unicode="&#x172;" horiz-adv-x="717" 
d="M535 -162v47q0 5 -4 8t-9 0q-18 -9 -34 -14t-34 -5q-20 0 -30.5 9t-10.5 24q0 14 6.5 27t16.5 25t21.5 22t21.5 17q78 25 113.5 86.5t35.5 152.5v395h48q10 0 10 9v58q0 10 -10 10h-134q-10 0 -10 -10v-446q0 -100 -41 -143.5t-127 -43.5q-90 0 -130.5 43.5t-40.5 143.5
v446q0 10 -10 10h-141q-9 0 -9 -10v-58q0 -9 9 -9h49v-395q0 -60 15.5 -107t48.5 -80t84.5 -50.5t123.5 -17.5h15q-20 -20 -32 -43.5t-12 -52.5q0 -21 8.5 -36.5t23 -26t33.5 -15.5t39 -5q25 0 46 6.5t47 20.5z" />
    <glyph glyph-name="uogonek" unicode="&#x173;" horiz-adv-x="566" 
d="M578 -154v47q0 5 -4 8t-9 0q-18 -9 -34 -14t-34 -5q-20 0 -30.5 9t-10.5 24t7.5 29t18.5 26.5t23.5 22.5t22.5 17q26 11 46 27l3 13l-21 34q-2 4 -6.5 4.5t-8.5 -1.5q-6 -3 -15.5 -8t-17.5 -5t-11.5 5t-3.5 22v358q0 9 -10 9h-74q-10 0 -10 -9v-219q0 -34 -7 -65
t-22.5 -54.5t-39.5 -37.5t-58 -14q-47 0 -67 30t-20 79v208q0 33 -19 57.5t-63 24.5q-23 0 -48 -10t-47 -26q-3 -2 -4 -6t1 -6l20 -34q2 -4 6.5 -5t7.5 2q7 5 16 9t17 4t12.5 -5t4.5 -19v-214q0 -77 42 -123.5t135 -46.5q48 0 83 19.5t57 48.5q8 -37 38 -50
q-29 -21 -46.5 -48.5t-17.5 -63.5q0 -42 30 -62.5t71 -20.5q25 0 46 6.5t47 20.5z" />
    <glyph glyph-name="Wcircumflex" unicode="&#x174;" horiz-adv-x="999" 
d="M988 631q10 0 10 10v57q0 10 -10 10h-118q-7 0 -9 -7l-155 -547l-153 547q-2 7 -10 7h-88q-8 0 -10 -7l-155 -549l-153 549q-2 7 -10 7h-116q-10 0 -10 -10v-57q0 -10 10 -10h43l175 -624q2 -7 10 -7h89q8 0 10 7l154 534l154 -534q2 -7 10 -7h89q8 0 10 7l186 624h47z
M638 766q6 0 9 4t0 9l-107 184q-3 5 -9 5h-82q-2 0 -4.5 -1.5t-3.5 -3.5l-106 -184q-3 -5 0 -9t8 -4h59q2 0 5 1.5t4 2.5l75 131l81 -131q1 -1 3.5 -2.5t4.5 -1.5h63z" />
    <glyph glyph-name="wcircumflex" unicode="&#x175;" horiz-adv-x="765" 
d="M765 438q4 8 -6 12l-63 22q-8 3 -12 -6l-131 -349l-77 247q-7 21 -14 39.5t-17.5 33t-26 23t-39.5 8.5q-26 0 -49.5 -10t-45.5 -27q-8 -6 -2 -13l21 -32q5 -8 14 -3q6 5 13.5 8t17.5 3q12 0 19.5 -6t17.5 -32v1l2 -7l-119 -244l-81 259q-6 20 -13.5 38.5t-18 33t-26 23
t-38.5 8.5q-26 0 -50 -10t-46 -27q-8 -6 -2 -13l22 -32q5 -8 13 -3q12 9 30 9q21 0 34 -38l112 -347q2 -7 9 -7h84q7 0 9 6l114 232l75 -231q2 -7 10 -7h84q7 0 9 6zM548 506q6 0 9 4t0 9l-107 184q-3 5 -9 5h-82q-2 0 -4.5 -1.5t-3.5 -3.5l-106 -184q-3 -5 0 -9t8 -4h59
q2 0 5 1.5t4 2.5l75 131l81 -131q1 -1 3.5 -2.5t4.5 -1.5h63z" />
    <glyph glyph-name="Ycircumflex" unicode="&#x176;" horiz-adv-x="585" 
d="M575 631q10 0 10 10v57q0 10 -10 10h-93q-7 0 -9 -5l-170 -297l-185 297q-3 5 -8 5h-101q-9 0 -9 -10v-57q0 -10 9 -10h43l199 -318v-236h-48q-10 0 -10 -10v-57q0 -10 10 -10h195q10 0 10 10v57q0 10 -10 10h-48v239l180 315h45zM449 749q6 0 9 4t0 9l-107 184
q-3 5 -9 5h-82q-2 0 -4.5 -1.5t-3.5 -3.5l-106 -184q-3 -5 0 -9t8 -4h59q2 0 5 1.5t4 2.5l75 131l81 -131q1 -1 3.5 -2.5t4.5 -1.5h63z" />
    <glyph glyph-name="ycircumflex" unicode="&#x177;" horiz-adv-x="544" 
d="M490 27v438q0 10 -10 10h-74q-9 0 -9 -10v-229q-1 -33 -8.5 -63t-22.5 -53t-38.5 -36.5t-56.5 -13.5q-48 0 -67.5 30.5t-19.5 79.5v211q0 34 -19 59t-62 25q-23 0 -48.5 -10.5t-46.5 -26.5q-8 -6 -3 -13l20 -34q2 -4 6 -5t8 2q7 5 15.5 9t17.5 4q8 0 12 -5.5t4 -19.5
v-216q0 -78 42 -125t134 -47q46 0 81 19.5t56 45.5v-35q0 -38 -6 -69.5t-22 -54t-44 -35.5t-72 -13q-47 0 -81 9.5t-57 20.5q-5 2 -9 0t-4 -8v-64q0 -7 5 -9q27 -11 64 -19.5t87 -8.5q118 0 173 67t55 193zM427 522q6 0 9 4t0 9l-107 184q-3 5 -9 5h-82q-2 0 -4.5 -1.5
t-3.5 -3.5l-106 -184q-3 -5 0 -9t8 -4h59q2 0 5 1.5t4 2.5l75 131l81 -131q1 -1 3.5 -2.5t4.5 -1.5h63z" />
    <glyph glyph-name="Ydieresis" unicode="&#x178;" horiz-adv-x="587" 
d="M576 634q10 0 10 10v58q0 10 -10 10h-93q-7 0 -9 -5l-170 -299l-185 299q-3 5 -8 5h-101q-9 0 -9 -10v-58q0 -10 9 -10h43l199 -319v-238h-48q-10 0 -10 -10v-57q0 -10 10 -10h195q10 0 10 10v57q0 10 -10 10h-48v241l180 316h45zM479 803q0 26 -18 44.5t-44 18.5
t-43.5 -18.5t-17.5 -44.5t17.5 -44t43.5 -18t44 18t18 44zM242 803q0 26 -18 44.5t-44 18.5t-43.5 -18.5t-17.5 -44.5t17.5 -44t43.5 -18t44 18t18 44z" />
    <glyph glyph-name="Zacute" unicode="&#x179;" horiz-adv-x="541" 
d="M531 0q10 0 10 10v63q0 10 -10 10h-392l397 544v71q0 10 -10 10h-486q-9 0 -9 -10v-63q0 -10 9 -10h380l-395 -541v-74q0 -10 9 -10h497zM443 793q7 2 7 9v63q0 10 -11 8l-293 -55q-8 -2 -8 -8v-50q0 -4 3.5 -7t8.5 -2z" />
    <glyph glyph-name="zacute" unicode="&#x17a;" horiz-adv-x="433" 
d="M429 131l-43 4q-4 1 -7 -1.5t-4 -5.5q-5 -26 -17.5 -37t-34.5 -11q-13 0 -23 2t-21 5q-13 4 -30 7.5t-46 3.5q-8 0 -20.5 -1.5t-28.5 -6.5l268 318v51q0 9 -10 9h-359q-9 0 -9 -9v-61q0 -9 9 -9h241l-279 -331v-52q0 -13 12 -10q23 6 59 11t77 5q20 0 40 -3.5t39 -7.5
q17 -4 33 -6.5t33 -2.5q27 0 50 8t40.5 24t28 40t10.5 57zM358 677q4 5 1.5 9.5t-8.5 4.5h-76q-5 0 -7 -4l-130 -173q-4 -5 -1.5 -10t8.5 -5h65q2 0 4.5 1t2.5 3z" />
    <glyph glyph-name="Zdotaccent" unicode="&#x17b;" horiz-adv-x="541" 
d="M531 0q10 0 10 10v63q0 10 -10 10h-392l397 544v71q0 10 -10 10h-486q-9 0 -9 -10v-63q0 -10 9 -10h380l-395 -541v-74q0 -10 9 -10h497zM345 804q0 22 -15.5 38t-38.5 16t-38.5 -16t-15.5 -38q0 -23 15.5 -38.5t38.5 -15.5t38.5 15.5t15.5 38.5z" />
    <glyph glyph-name="zdotaccent" unicode="&#x17c;" horiz-adv-x="433" 
d="M429 131l-43 4q-4 1 -7 -1.5t-4 -5.5q-5 -26 -17.5 -37t-34.5 -11q-13 0 -23 2t-21 5q-13 4 -30 7.5t-46 3.5q-8 0 -20.5 -1.5t-28.5 -6.5l268 318v51q0 9 -10 9h-359q-9 0 -9 -9v-61q0 -9 9 -9h241l-279 -331v-52q0 -13 12 -10q23 6 59 11t77 5q20 0 40 -3.5t39 -7.5
q17 -4 33 -6.5t33 -2.5q27 0 50 8t40.5 24t28 40t10.5 57zM285 557q0 22 -15.5 38t-38.5 16t-38.5 -16t-15.5 -38q0 -23 15.5 -38.5t38.5 -15.5t38.5 15.5t15.5 38.5z" />
    <glyph glyph-name="Zcaron" unicode="&#x17d;" horiz-adv-x="541" 
d="M537 0q10 0 10 10v63q0 10 -10 10h-392l397 548v71q0 10 -10 10h-486q-9 0 -9 -10v-63q0 -10 9 -10h380l-395 -545v-74q0 -10 9 -10h497zM496 828q6 2 6 8v55q0 13 -13 9l-186 -66l-187 66q-13 4 -13 -9v-55q0 -6 6 -8l190 -84q4 -2 8 0z" />
    <glyph glyph-name="zcaron" unicode="&#x17e;" horiz-adv-x="454" 
d="M429 131l-43 4q-4 1 -7 -1.5t-4 -5.5q-5 -26 -17.5 -37t-34.5 -11q-13 0 -23 2t-21 5q-13 4 -30 7.5t-46 3.5q-8 0 -20.5 -1.5t-28.5 -6.5l268 318v51q0 9 -10 9h-359q-9 0 -9 -9v-61q0 -9 9 -9h241l-279 -331v-52q0 -13 12 -10q23 6 59 11t77 5q20 0 40 -3.5t39 -7.5
q17 -4 33 -6.5t33 -2.5q27 0 50 8t40.5 24t28 40t10.5 57zM392 675q3 5 0 9.5t-9 4.5h-59q-6 0 -8 -5l-77 -132l-79 132q-3 5 -9 5h-63q-5 0 -8 -4.5t0 -9.5l107 -184q1 -1 3.5 -2.5t4.5 -1.5h82q2 0 5 1.5t4 2.5z" />
    <glyph glyph-name="longs" unicode="&#x17f;" horiz-adv-x="296" 
d="M341 727q1 3 0 7t-4 6q-25 15 -46.5 21.5t-48.5 6.5q-42 0 -70.5 -15t-46.5 -38.5t-25.5 -53t-7.5 -58.5v-127h-75q-9 0 -9 -10v-54q0 -9 9 -9h75v-393q0 -10 9 -10h74q9 0 9 10v566q0 22 2.5 42.5t9 36t19.5 24.5t34 9q15 0 31.5 -5.5t27.5 -10.5q3 -2 7 -1t6 5z" />
    <glyph glyph-name="Oopen" unicode="&#x186;" horiz-adv-x="608" 
d="M42 36q-4 -9 5 -13q37 -15 84 -28t112 -13q74 0 136 27t106.5 76t69 117.5t24.5 151.5q0 84 -24 152.5t-68 117.5t-105.5 75.5t-136.5 26.5q-67 0 -115.5 -13.5t-80.5 -30.5q-5 -2 -5 -9v-73q0 -6 4.5 -9t9.5 0q33 18 74 32t102 14q52 0 96 -21t75.5 -58.5t49 -89.5
t17.5 -114q0 -61 -16 -113t-46 -90.5t-73.5 -60.5t-98.5 -22q-52 0 -90.5 11t-68.5 23q-9 4 -13 -5z" />
    <glyph glyph-name="Dbar1" unicode="&#x189;" horiz-adv-x="674" 
d="M642 354q0 75 -23 139.5t-69 112.5t-115.5 75t-163.5 27h-215q-10 0 -10 -10v-57q0 -10 10 -10h49v-236h-58q-9 0 -9 -10v-59q0 -10 9 -10h58v-239h-49q-10 0 -10 -10v-57q0 -10 10 -10h215q94 0 163.5 27t115.5 74.5t69 112.5t23 140zM535 354q0 -60 -18.5 -110.5
t-50.5 -86.5t-76 -56t-96 -20h-91v235h126q10 0 10 10v59q0 10 -10 10h-126v232h79q56 0 102.5 -20t80 -56.5t52 -86.5t18.5 -110z" />
    <glyph glyph-name="Eturn" unicode="&#x18e;" horiz-adv-x="546" 
d="M28 708q-9 0 -9 -10l-1 -61q0 -10 9 -10h334v-249h-273q-10 0 -10 -9v-63q0 -9 10 -9h273v-216h-300q-9 0 -9 -10v-61q0 -10 9 -10h446q10 0 10 10v57q0 10 -10 10h-48v554h48q10 0 10 10v57q0 10 -10 10h-479z" />
    <glyph glyph-name="florin" unicode="&#x192;" horiz-adv-x="550" 
d="M555 677q2 8 -3 12q-17 13 -45.5 23.5t-59.5 10.5q-75 0 -118 -43.5t-57 -119.5l-24 -131h-107q-10 0 -10 -10v-53q0 -10 10 -10h94l-56 -303q-3 -21 -8 -41.5t-14 -36t-24 -25.5t-38 -10q-18 0 -35.5 5t-22.5 8t-9.5 1.5t-5.5 -7.5l-8 -56q-2 -7 5 -11q11 -5 36.5 -13
t56.5 -8q70 0 108 41t53 126l59 330h115q9 0 9 10v53q0 10 -9 10h-102l19 100q4 23 10 43.5t16.5 36t26 24.5t37.5 9q15 0 32.5 -5t31.5 -13q7 -4 13 4z" />
    <glyph glyph-name="nleg" unicode="&#x19e;" horiz-adv-x="540" 
d="M582 -177l-21 35q-2 4 -6.5 4.5t-8.5 -1.5q-6 -4 -15.5 -9t-17.5 -5q-7 0 -11 4.5t-4 22.5v436q0 77 -42.5 123.5t-134.5 46.5q-49 0 -84.5 -20t-56.5 -48q-6 24 -23 40.5t-52 16.5q-23 0 -47 -10.5t-46 -26.5q-8 -6 -3 -12l20 -34q2 -4 6.5 -5t7.5 2q7 5 16 9t17 4
q9 0 13.5 -6t4.5 -22v-358q0 -10 9 -10h75q9 0 9 10v219q0 34 7 65t22.5 54.5t39.5 37.5t58 14q47 0 67.5 -29.5t20.5 -79.5l-1 -424q0 -44 18 -69t64 -25q25 0 50 10.5t46 27.5z" />
    <glyph glyph-name="Ohorn" unicode="&#x1a0;" horiz-adv-x="754" 
d="M711 840l-82 23q-10 2 -12 -8q-8 -45 -22.5 -93t-31.5 -85q-38 23 -83.5 36t-100.5 13q-82 0 -144.5 -28t-105 -77.5t-64 -117.5t-21.5 -149q0 -80 21.5 -148.5t64 -118t105 -77.5t144.5 -28t145 28t105 77.5t63.5 118t21.5 148.5q0 85 -23.5 155.5t-70.5 121.5
q12 16 26 38t27 48t24.5 54t19.5 57zM607 354q0 -58 -13 -110t-40.5 -91.5t-71 -63t-103.5 -23.5t-103 23.5t-70.5 63t-40.5 91.5t-13 110t13 110.5t40.5 92t70.5 63t103 23.5t103.5 -23.5t71 -63t40.5 -92t13 -110.5z" />
    <glyph glyph-name="ohorn" unicode="&#x1a1;" horiz-adv-x="519" 
d="M531 601l-82 23q-10 2 -12 -8q-7 -43 -21 -88t-30 -81q-53 33 -126 33q-54 0 -96.5 -18t-72.5 -50t-45.5 -77.5t-15.5 -100.5t15.5 -100t45.5 -77.5t72.5 -50.5t96.5 -18t96.5 18t72.5 50.5t45.5 77.5t15.5 100q0 98 -48 161q12 16 26 38t26.5 47.5t23.5 53t19 55.5z
M392 234q0 -33 -8 -64t-24.5 -54.5t-41 -37.5t-58.5 -14t-58.5 14t-41 37.5t-24.5 54.5t-8 64q0 34 8 65t24.5 54.5t41 37.5t58.5 14t58.5 -14t41 -37.5t24.5 -54.5t8 -65z" />
    <glyph glyph-name="Tonetwo" unicode="&#x1a7;" horiz-adv-x="499" 
d="M29 189q0 -51 17.5 -89.5t50 -64.5t78.5 -39.5t102 -13.5q60 0 108.5 12.5t83.5 26.5q5 2 5 9v73q0 6 -4 8.5t-9 0.5q-32 -14 -76.5 -28.5t-102.5 -14.5q-71 0 -111.5 28.5t-40.5 88.5q0 28 10.5 48.5t28.5 35.5t43 26.5t54 21.5q39 13 77 29t68 40t48.5 58t18.5 84
q0 47 -17 84t-47.5 62t-74 38t-97.5 13q-26 0 -53 -3.5t-51.5 -9t-45.5 -12t-33 -12.5q-9 -2 -5 -12l22 -60q4 -8 13 -4q25 10 62.5 20.5t91.5 10.5q62 0 100.5 -28t38.5 -77q0 -23 -7.5 -40.5t-24 -32.5t-43.5 -28t-67 -26q-47 -16 -85.5 -34t-66.5 -43t-43.5 -60.5
t-15.5 -85.5z" />
    <glyph glyph-name="tonetwo" unicode="&#x1a8;" horiz-adv-x="390" 
d="M28 139q0 -41 15.5 -69.5t40.5 -46.5t57 -26.5t64 -8.5q63 0 104 15t62 26q2 1 4 3.5t2 4.5v68q0 5 -5 7.5t-10 -0.5q-26 -16 -63 -31.5t-87 -15.5q-17 0 -33.5 3.5t-29.5 11.5t-21 20.5t-8 29.5q0 32 25 45.5t67 24.5q33 9 62.5 18.5t51 25t34.5 38t13 56.5
q0 35 -14.5 61.5t-39 44.5t-56.5 27t-68 9q-32 0 -70 -8.5t-77 -29.5q-7 -4 -3 -12l21 -48q2 -5 7 -5.5t9 2.5q-1 -1 0 -0.5t1 1.5q13 5 42.5 15.5t69.5 10.5q45 0 66.5 -16t21.5 -43q0 -24 -28.5 -39t-76.5 -26q-34 -8 -62 -19t-47.5 -27t-30 -39.5t-10.5 -57.5z" />
    <glyph glyph-name="Esh" unicode="&#x1a9;" horiz-adv-x="541" 
d="M531 0q10 0 10 10v63q0 10 -10 10h-395l211 289q2 2 2 6t-2 6l-195 241h374q10 0 10 10v63q0 10 -10 10h-486q-9 0 -9 -10v-70l203 -257l-209 -287v-74q0 -10 9 -10h497z" />
    <glyph glyph-name="Uhorn" unicode="&#x1af;" horiz-adv-x="707" 
d="M847 847l-82 23q-10 2 -12 -8q-6 -38 -18 -78t-26 -75h-167q-10 0 -10 -10v-446q0 -100 -41 -143.5t-127 -43.5q-90 0 -130.5 43.5t-40.5 143.5v446q0 10 -10 10h-141q-9 0 -9 -10v-58q0 -9 9 -9h49v-395q0 -60 15.5 -107t48.5 -80t84.5 -50.5t123.5 -17.5q70 0 120 17.5
t82.5 50.5t47.5 80t15 107v395q46 0 70.5 -0.5t35.5 -0.5q12 0 14.5 0.5t4.5 2.5v1q1 0 1 1q12 16 26 38t27.5 48.5t25.5 55t20 57.5z" />
    <glyph glyph-name="uhorn" unicode="&#x1b0;" horiz-adv-x="566" 
d="M590 643l-82 23q-10 2 -12 -8q-8 -49 -25 -101t-36 -89h-26q-10 0 -10 -9v-219q0 -34 -7 -65t-22.5 -54.5t-39.5 -37.5t-58 -14q-47 0 -67 30t-20 79v208q0 33 -19 57.5t-63 24.5q-23 0 -48 -10t-47 -26q-3 -2 -4 -6t1 -6l20 -34q2 -4 6.5 -5t7.5 2q7 5 16 9t17 4
t12.5 -5t4.5 -19v-214q0 -77 42 -123.5t135 -46.5q48 0 83 19.5t57 48.5q5 -25 22.5 -40.5t49.5 -15.5q25 0 50 10t46 27l3 13l-21 34q-2 4 -6.5 4.5t-8.5 -1.5q-6 -3 -15.5 -8t-17.5 -5t-11.5 5t-3.5 22v328q12 15 27 37.5t29 49t26.5 56t20.5 59.5z" />
    <glyph glyph-name="Upsilon2" unicode="&#x1b1;" horiz-adv-x="763" 
d="M51 726q-10 0 -10 -10v-70q0 -10 10 -10h122q-50 -43 -83 -111.5t-33 -168.5q0 -75 21.5 -140t64 -113t104.5 -75.5t143 -27.5t143.5 27.5t105 75.5t64.5 113t22 140q0 100 -33.5 168.5t-82.5 111.5h121q10 0 10 10v70q0 10 -10 10h-288q-10 0 -10 -10v-66q0 -8 8 -10
q24 -4 55 -19.5t58 -48.5t45.5 -85t18.5 -128v-3q0 -45 -10.5 -92.5t-36 -86.5t-69 -63.5t-110.5 -24.5t-110.5 24.5t-69 63.5t-36 86.5t-10.5 92.5v3q0 76 18.5 128t45.5 85t57.5 48.5t55.5 19.5q7 2 7 10v66q0 10 -9 10h-289z" />
    <glyph glyph-name="Zbar" unicode="&#x1b5;" horiz-adv-x="541" 
d="M520 329q10 0 10 7v57q0 8 -10 8h-149l165 226v71q0 10 -10 10h-486q-9 0 -9 -10v-63q0 -10 9 -10h380l-164 -224h-216q-10 0 -10 -8v-57q0 -7 10 -7h164l-179 -245v-74q0 -10 9 -10h497q10 0 10 10v63q0 10 -10 10h-392l179 246h202z" />
    <glyph glyph-name="zbar" unicode="&#x1b6;" horiz-adv-x="433" 
d="M398 216q9 0 9 8v60q0 8 -9 8h-74l98 116v51q0 9 -10 9h-359q-9 0 -9 -9v-61q0 -9 9 -9h241l-82 -97h-154q-10 0 -10 -8v-60q0 -8 10 -8h90l-133 -158v-52q0 -13 12 -10q23 6 59 11t77 5q20 0 40 -3.5t39 -7.5q17 -4 33 -6.5t33 -2.5q27 0 50 8t40.5 24t28 40t10.5 57
l-8 10l-43 4q-4 1 -7 -1.5t-4 -5.5q-5 -26 -17.5 -37t-34.5 -11q-13 0 -23 2t-21 5q-13 4 -30 7.5t-46 3.5q-8 0 -20.5 -1.5t-28.5 -6.5l106 126h138z" />
    <glyph glyph-name="Tonefive" unicode="&#x1bc;" horiz-adv-x="545" 
d="M489 227q0 108 -60.5 169.5t-166.5 61.5q-28 0 -48 -2.5t-41 -7.5l9 173h269q10 0 10 9v69q0 9 -10 9h-341q-4 0 -7 -3t-3 -6l-16 -355q0 -5 4.5 -8t9.5 0q38 20 77 29.5t71 9.5q65 0 103.5 -36.5t38.5 -111.5q0 -68 -35.5 -110.5t-108.5 -42.5q-51 0 -88.5 13.5
t-80.5 39.5q-5 3 -10 0t-5 -8v-75q0 -7 5 -9q24 -13 70 -30t117 -17q50 0 93 17t75 48.5t50.5 75.5t18.5 98z" />
    <glyph glyph-name="exclam1" unicode="&#x1c3;" horiz-adv-x="243" 
d="M175 699q0 9 -9 9h-72q-8 0 -8 -9l5 -467q0 -10 8 -10h62q3 0 6 3t3 7zM190 56q0 28 -17.5 48.5t-42.5 20.5t-42.5 -20.5t-17.5 -48.5q0 -29 18.5 -48.5t41.5 -19.5t41.5 19.5t18.5 48.5z" />
    <glyph glyph-name="Oogonek" unicode="&#x1ea;" horiz-adv-x="754" 
d="M617 -133v47q0 5 -4 8t-9 0q-18 -9 -34 -14t-34 -5q-20 0 -30.5 9t-10.5 24q0 16 8 30.5t20 27t25 23t22 18.5q72 48 108 130.5t36 188.5q0 81 -21.5 149t-63.5 117.5t-105 77.5t-145 28t-144.5 -28t-105 -77.5t-64 -117.5t-21.5 -149q0 -80 21.5 -148.5t64 -118
t105 -77.5t144.5 -28q17 0 32.5 1.5t30.5 3.5q-11 -16 -17 -33.5t-6 -38.5q0 -42 30 -62.5t71 -20.5q25 0 46 6.5t47 20.5zM607 354q0 -58 -13 -110t-40.5 -91.5t-71 -63t-103.5 -23.5t-103 23.5t-70.5 63t-40.5 91.5t-13 110t13 110.5t40.5 92t70.5 63t103 23.5
t103.5 -23.5t71 -63t40.5 -92t13 -110.5z" />
    <glyph glyph-name="oogonek" unicode="&#x1eb;" horiz-adv-x="519" 
d="M411 -158v47q0 5 -4 8t-9 0q-18 -9 -34 -14t-34 -5q-20 0 -30.5 9t-10.5 24t8 29.5t19.5 27.5t24.5 23t22 18q61 27 94 85.5t33 139.5q0 55 -15.5 100.5t-45.5 77.5t-72.5 50t-96.5 18t-96.5 -18t-72.5 -50t-45.5 -77.5t-15.5 -100.5t15.5 -100t45.5 -77.5t72.5 -50.5
t96.5 -18q-22 -20 -34.5 -43.5t-12.5 -54.5q0 -42 30 -62.5t71 -20.5q25 0 46 6.5t47 20.5zM392 234q0 -33 -8 -64t-24.5 -54.5t-41 -37.5t-58.5 -14t-58.5 14t-41 37.5t-24.5 54.5t-8 64q0 34 8 65t24.5 54.5t41 37.5t58.5 14t58.5 -14t41 -37.5t24.5 -54.5t8 -65z" />
    <glyph glyph-name="Oogonekmacron" unicode="&#x1ec;" horiz-adv-x="754" 
d="M617 -133v47q0 5 -4 8t-9 0q-18 -9 -34 -14t-34 -5q-20 0 -30.5 9t-10.5 24q0 16 8 30.5t20 27t25 23t22 18.5q72 48 108 130.5t36 188.5q0 81 -21.5 149t-63.5 117.5t-105 77.5t-145 28t-144.5 -28t-105 -77.5t-64 -117.5t-21.5 -149q0 -80 21.5 -148.5t64 -118
t105 -77.5t144.5 -28q17 0 32.5 1.5t30.5 3.5q-11 -16 -17 -33.5t-6 -38.5q0 -42 30 -62.5t71 -20.5q25 0 46 6.5t47 20.5zM607 354q0 -58 -13 -110t-40.5 -91.5t-71 -63t-103.5 -23.5t-103 23.5t-70.5 63t-40.5 91.5t-13 110t13 110.5t40.5 92t70.5 63t103 23.5
t103.5 -23.5t71 -63t40.5 -92t13 -110.5zM533 767q10 0 10 8v47q0 7 -10 7h-315q-9 0 -9 -7v-47q0 -8 9 -8h315z" />
    <glyph glyph-name="oogonekmacron" unicode="&#x1ed;" horiz-adv-x="519" 
d="M411 -158v47q0 5 -4 8t-9 0q-18 -9 -34 -14t-34 -5q-20 0 -30.5 9t-10.5 24t8 29.5t19.5 27.5t24.5 23t22 18q61 27 94 85.5t33 139.5q0 55 -15.5 100.5t-45.5 77.5t-72.5 50t-96.5 18t-96.5 -18t-72.5 -50t-45.5 -77.5t-15.5 -100.5t15.5 -100t45.5 -77.5t72.5 -50.5
t96.5 -18q-22 -20 -34.5 -43.5t-12.5 -54.5q0 -42 30 -62.5t71 -20.5q25 0 46 6.5t47 20.5zM392 234q0 -33 -8 -64t-24.5 -54.5t-41 -37.5t-58.5 -14t-58.5 14t-41 37.5t-24.5 54.5t-8 64q0 34 8 65t24.5 54.5t41 37.5t58.5 14t58.5 -14t41 -37.5t24.5 -54.5t8 -65zM424 501
q10 0 10 8v47q0 7 -10 7h-315q-9 0 -9 -7v-47q0 -8 9 -8h315z" />
    <glyph glyph-name="AEacute" unicode="&#x1fc;" horiz-adv-x="927" 
d="M915 0q10 0 10 10v61q0 10 -10 10h-314v249h253q10 0 10 9v63q0 9 -10 9h-253v216h281q10 0 10 10v61q0 10 -10 10h-532q-9 0 -9 -10v-54q0 -10 9 -10h54l-341 -557h-50q-10 0 -10 -10v-57q0 -10 10 -10h99q5 0 8 5l120 197h264v-125h-50q-10 0 -10 -10v-57q0 -10 10 -10
h461zM498 631h6v-346h-214zM729 947q4 5 1.5 9.5t-8.5 4.5h-76q-5 0 -7 -4l-130 -173q-4 -5 -1.5 -10t8.5 -5h65q2 0 4.5 1t2.5 3z" />
    <glyph glyph-name="aeacute" unicode="&#x1fd;" horiz-adv-x="789" 
d="M755 198q9 0 9 10v32q0 117 -52 178.5t-154 61.5q-45 0 -86.5 -19t-64.5 -52q-25 40 -67 55.5t-98 15.5q-42 0 -80.5 -9t-69.5 -26q-6 -4 -3 -13l20 -49q2 -4 6 -5t8 1q28 14 55 19.5t53 5.5q54 0 82 -24t28 -69v-29q-20 16 -50.5 28.5t-78.5 12.5q-43 0 -77.5 -12.5
t-58.5 -35t-36.5 -53t-12.5 -66.5q0 -78 46.5 -123t141.5 -45q32 0 58 7.5t47 19.5t37 26.5t27 28.5q8 -12 22.5 -26.5t37 -26.5t53 -20.5t70.5 -8.5q64 0 100 10t57 22q5 2 5 9v62q0 6 -4.5 9t-9.5 0q-22 -13 -56.5 -23.5t-82.5 -10.5q-35 0 -60.5 12t-42.5 31t-26.5 42.5
t-12.5 46.5h321zM340 158q0 -44 -33 -70t-81 -26q-52 0 -77 26t-25 68q0 41 24 67.5t75 26.5q59 0 88 -27t29 -65zM555 406q56 0 80.5 -35.5t28.5 -98.5h-229q5 58 34.5 96t85.5 38zM578 678q4 5 1.5 9.5t-8.5 4.5h-76q-5 0 -7 -4l-130 -173q-4 -5 -1.5 -10t8.5 -5h65
q2 0 4.5 1t2.5 3z" />
    <glyph glyph-name="aturn" unicode="&#x250;" horiz-adv-x="518" 
d="M8 418l21 -35q5 -7 14 -2q6 3 15.5 8t17.5 5t11.5 -5t3.5 -22v-199q0 -85 45.5 -132.5t145.5 -47.5q42 0 80 9t68 26q8 4 4 13l-20 49q-2 4 -6 5t-7 -1q-28 -14 -54.5 -19.5t-52.5 -5.5q-54 0 -81.5 24t-27.5 69v30q20 -17 53 -29.5t74 -12.5q43 0 77 12.5t57.5 35t36 53
t12.5 66.5q0 78 -46 123t-131 45q-51 0 -86 -18t-53 -39q-7 22 -24 33.5t-49 11.5q-25 0 -50 -10t-45 -27zM184 310q0 44 33.5 70t81.5 26q51 0 76 -26t25 -68q0 -41 -24 -67.5t-74 -26.5q-58 0 -88 27t-30 65z" />
    <glyph glyph-name="cturn" unicode="&#x254;" horiz-adv-x="437" 
d="M24 34q-2 -10 5 -13q23 -9 59.5 -21t84.5 -12q53 0 97 18.5t75.5 51t48.5 77.5t17 99t-16 99t-46 78t-74 51t-101 18q-44 0 -82.5 -11t-60.5 -21q-6 -2 -6 -9v-63q0 -6 5 -9t10 0q37 20 68 27.5t61 7.5q35 0 62 -12.5t45.5 -35t28 -53.5t9.5 -67q0 -33 -8.5 -63
t-25.5 -53t-44 -36.5t-64 -13.5q-40 0 -68.5 8.5t-44.5 15.5q-9 4 -13 -5z" />
    <glyph glyph-name="erev" unicode="&#x258;" horiz-adv-x="500" 
d="M46 198h319q-3 -23 -12.5 -46.5t-26.5 -42.5t-42.5 -31t-60.5 -12q-46 0 -80 10.5t-58 23.5q-5 3 -9.5 0t-4.5 -9v-62q0 -7 5 -9q25 -12 60 -22t97 -10q58 0 101.5 19.5t72 52.5t43 78t14.5 96q0 55 -15.5 100t-44 77.5t-70 50.5t-92.5 18q-100 0 -153 -61.5t-53 -178.5
v-32q0 -10 10 -10zM245 406q54 0 82.5 -35.5t36.5 -98.5h-229q3 63 29 98.5t81 35.5z" />
    <glyph glyph-name="schwa" unicode="&#x259;" horiz-adv-x="500" 
d="M46 270q-10 0 -10 -10v-32q0 -117 53 -178.5t153 -61.5q51 0 92.5 18t70 50.5t44 77.5t15.5 100q0 51 -14.5 96t-43 78t-72 52.5t-101.5 19.5q-62 0 -97 -10t-60 -22q-5 -2 -5 -9v-62q0 -6 4.5 -9t9.5 0q24 13 58 23.5t80 10.5q35 0 60.5 -12t42.5 -31t26.5 -42.5
t12.5 -46.5h-319zM245 62q-55 0 -81 35.5t-29 98.5h229q-8 -63 -36.5 -98.5t-82.5 -35.5z" />
    <glyph glyph-name="hturn" unicode="&#x265;" horiz-adv-x="548" 
d="M-14 717l21 -35q5 -8 14 -3q6 4 15.5 9t17.5 5t12 -4t4 -19v-223q0 -78 42 -125t135 -47q44 0 77.5 17t55.5 42v-253q0 -35 18 -61t62 -26q23 0 48.5 10t47.5 27q8 6 3 13l-21 34q-2 4 -6 5t-8 -2q-7 -5 -15.5 -9t-17.5 -4t-13 6t-4 22v656q0 10 -10 10h-74
q-10 0 -10 -10v-222q0 -35 -7 -66.5t-22.5 -55.5t-39.5 -38t-58 -14q-47 0 -67.5 29t-20.5 75v7l1 201v4q0 45 -18 70.5t-64 25.5q-25 0 -50 -10.5t-46 -27.5z" />
    <glyph glyph-name="mturn" unicode="&#x26f;" horiz-adv-x="852" 
d="M1 430l22 -35q5 -8 14 -3q6 4 16 9t18 5q7 0 11 -4.5t4 -22.5v-216q0 -77 39.5 -123t132.5 -46q50 0 88 21.5t58 58.5q18 -38 54 -59t95 -21q48 0 82.5 18.5t52.5 44.5q6 -23 23 -37.5t50 -14.5q23 0 48 10.5t47 26.5q8 6 3 12l-20 34q-2 4 -6.5 5t-8.5 -2
q-7 -5 -15.5 -9t-17.5 -4t-13.5 6t-4.5 22v358q0 10 -10 10h-75q-10 0 -10 -10v-219q0 -34 -5.5 -65t-19 -54.5t-36.5 -37.5t-57 -14q-47 0 -63.5 34t-16.5 87v269q0 10 -10 10h-78q-10 0 -10 -10v-219q0 -34 -5.5 -65t-19 -54.5t-36 -37.5t-56.5 -14q-46 0 -63.5 29.5
t-17.5 77.5v205q0 44 -18.5 69t-64.5 25q-25 0 -50.5 -10.5t-46.5 -27.5z" />
    <glyph glyph-name="rturn" unicode="&#x279;" horiz-adv-x="376" 
d="M-6 35q-4 -7 4 -11q12 -8 32 -16t53 -8q35 0 68.5 19.5t55.5 58.5q5 -37 21.5 -54.5t50.5 -17.5q23 0 47 10t46 26q2 2 3 6t-1 7l-20 33q-2 4 -6 5t-8 -2q-14 -12 -32 -12q-8 0 -12.5 5.5t-4.5 22.5v357q0 10 -10 10h-73q-9 0 -9 -10v-183q0 -45 -11.5 -87t-31.5 -72
q-13 -19 -30.5 -29.5t-38.5 -10.5q-22 0 -37 7t-20 11q-4 3 -8 1.5t-6 -6.5z" />
    <glyph glyph-name="rturnascend" unicode="&#x27a;" horiz-adv-x="376" 
d="M-6 35q-4 -7 4 -11q12 -8 32 -16t53 -8q35 0 68.5 19.5t55.5 58.5q5 -37 21.5 -54.5t50.5 -17.5q23 0 47 10t46 26q2 2 3 6t-1 7l-20 33q-2 4 -6 5t-8 -2q-14 -12 -32 -12q-8 0 -12.5 5.5t-4.5 22.5v590q0 10 -10 10h-73q-9 0 -9 -10v-416q0 -45 -11.5 -87t-31.5 -72
q-13 -19 -30.5 -29.5t-38.5 -10.5q-22 0 -37 7t-20 11q-4 3 -8 1.5t-6 -6.5z" />
    <glyph glyph-name="rdescend" unicode="&#x27c;" horiz-adv-x="376" 
d="M374 442q4 7 -4 11q-12 8 -32 16t-53 8q-35 0 -68.5 -19.5t-55.5 -58.5q-5 37 -21.5 54.5t-50.5 17.5q-23 0 -47 -10t-46 -26q-2 -2 -3 -6t1 -7l20 -33q2 -4 6 -5t8 2q14 12 32 12q8 0 12.5 -5.5t4.5 -22.5v-590q0 -10 10 -10h73q9 0 9 10v416q0 45 11.5 87t31.5 72
q13 19 30.5 29.5t38.5 10.5q22 0 37 -7t20 -11q4 -3 8 -1.5t6 6.5z" />
    <glyph glyph-name="tturn" unicode="&#x287;" horiz-adv-x="308" 
d="M1 566v-55q0 -6 5 -8.5t10 0.5q11 7 33 14t43 7q31 0 40 -15t9 -52v-263h-111q-10 0 -10 -10v-53q0 -9 10 -9h111v-120q0 -9 9 -9h73q10 0 10 9v120h74q9 0 9 9v53q0 10 -9 10h-74v274q0 72 -32 102.5t-95 30.5q-15 0 -30 -3t-28.5 -7t-24.5 -8.5t-17 -7.5z" />
    <glyph glyph-name="vturn" unicode="&#x28c;" horiz-adv-x="502" 
d="M-8 35q-2 -3 0 -6.5t5 -5.5l63 -23q9 -3 12 5l147 356l91 -254q1 -2 1.5 -4.5t1.5 -4.5q6 -19 13.5 -36t17.5 -30t24.5 -20.5t35.5 -7.5q26 0 49.5 10t45.5 27q7 5 3 13l-20 33q-4 10 -13 4q-7 -4 -15.5 -7.5t-17.5 -3.5q-10 0 -16 9.5t-14 29.5l-131 347q-2 6 -9 6h-83
q-7 0 -9 -6z" />
    <glyph glyph-name="wturn" unicode="&#x28d;" horiz-adv-x="765" 
d="M-9 34q-4 -8 6 -12l63 -22q8 -3 12 6l131 349l77 -247q7 -21 14 -39.5t17.5 -33t26 -23t39.5 -8.5q26 0 49.5 10t45.5 27q8 6 2 13l-21 32q-5 8 -14 3q-6 -5 -13.5 -8t-17.5 -3q-12 0 -19.5 6t-17.5 32v-1l-2 7l119 244l81 -259q6 -20 13.5 -39t18 -33t26 -22.5
t38.5 -8.5q26 0 50 10t46 27q8 6 2 13l-22 32q-5 8 -13 3q-12 -9 -30 -9q-21 0 -34 38l-112 347q-2 7 -9 7h-84q-7 0 -9 -6l-114 -232l-75 231q-2 7 -10 7h-84q-7 0 -9 -6z" />
    <glyph glyph-name="yturn" unicode="&#x28e;" horiz-adv-x="544" 
d="M45 447v-438q0 -10 10 -10h74q9 0 9 10v229q1 33 8.5 63t22.5 53t38.5 36.5t56.5 13.5q48 0 67.5 -30.5t19.5 -79.5v-211q0 -34 19 -59t62 -25q23 0 48.5 10.5t46.5 26.5q8 6 3 13l-20 34q-2 4 -6 5t-8 -2q-7 -5 -15.5 -9t-17.5 -4q-8 0 -12 5.5t-4 19.5v216
q0 78 -42 125t-134 47q-46 0 -81 -19.5t-56 -45.5v35q0 37 6 69t22 54.5t44 35.5t72 13q47 0 81 -9.5t57 -20.5q5 -2 9 0t4 8v64q0 7 -5 9q-27 11 -64 19.5t-87 8.5q-118 0 -173 -67t-55 -193z" />
    <glyph glyph-name="dz" unicode="&#x2a3;" horiz-adv-x="940" 
d="M909 133l-43 4q-4 1 -7 -1.5t-4 -5.5q-5 -26 -17.5 -37t-34.5 -11q-13 0 -23 2t-21 5q-13 4 -30 7.5t-46 3.5q-8 0 -20.5 -1.5t-28.5 -6.5l268 318v51q0 9 -10 9h-359q-9 0 -9 -9v-61q0 -9 9 -9h241l-262 -311q-3 6 -3 22v580q0 34 -18.5 60t-62.5 26q-23 0 -48 -10
t-47 -27q-3 -2 -4 -6t1 -6l20 -35q2 -3 6.5 -4t8.5 2q6 5 15 8.5t17 3.5q9 0 13.5 -6t4.5 -22v-241q-26 30 -64 46t-90 16q-50 0 -89 -19t-67 -52.5t-42.5 -79t-14.5 -98.5q0 -54 14 -100t41.5 -79t68.5 -52t95 -19q42 0 83 16.5t69 48.5q6 -25 24 -39t52 -14h3q3 -3 9 -2
q23 6 59 11t77 5q20 0 40 -3.5t39 -7.5q17 -4 33 -6.5t33 -2.5q27 0 50 8t40.5 24t28 40t10.5 57zM415 238q0 -34 -9.5 -65t-28 -54t-45 -37t-59.5 -14t-56.5 14t-38.5 37t-22 54t-7 65t7.5 65t22.5 54t39 37t57 14t59 -14t44 -37t27.5 -54t9.5 -65z" />
    <glyph glyph-name="ts" unicode="&#x2a6;" horiz-adv-x="688" 
d="M655 139q0 34 -10.5 57.5t-30 39.5t-47.5 27t-62 19q-48 11 -76.5 26t-28.5 39q0 27 21.5 43t66.5 16q40 0 69.5 -10.5t42.5 -15.5q0 -1 1 -1q4 -3 9 -2.5t7 5.5l21 48q4 8 -3 12q-39 21 -77 29.5t-70 8.5q-36 0 -68 -9t-56.5 -27t-39 -44.5t-14.5 -61.5q0 -34 13 -56.5
t34.5 -38t51 -25t62.5 -18.5q42 -11 67 -24.5t25 -45.5q0 -17 -8 -29.5t-21 -20.5t-29.5 -11.5t-33.5 -3.5q-50 0 -87 15.5t-63 31.5q-5 3 -10 0.5t-5 -7.5v-16q-11 -7 -32.5 -13t-41.5 -6q-31 0 -40 15t-9 52v263h111q10 0 10 10v53q0 9 -10 9h-111v120q0 9 -9 9h-73
q-10 0 -10 -9v-120h-74q-9 0 -9 -9v-53q0 -10 9 -10h74v-274q0 -72 32 -102.5t95 -30.5q29 0 58.5 10t44.5 21q23 -11 61.5 -23.5t95.5 -12.5q32 0 64 8.5t57 26.5t40.5 46.5t15.5 69.5z" />
    <glyph glyph-name="circumflex" unicode="&#x2c6;" horiz-adv-x="492" 
d="M403 487q6 0 9 4t0 9l-107 184q-3 5 -9 5h-82q-2 0 -4.5 -1.5t-3.5 -3.5l-106 -184q-3 -5 0 -9t8 -4h59q2 0 5 1.5t4 2.5l75 131l81 -131q1 -1 3.5 -2.5t4.5 -1.5h63z" />
    <glyph glyph-name="caron" unicode="&#x2c7;" horiz-adv-x="492" 
d="M412 675q3 5 0 9.5t-9 4.5h-59q-6 0 -8 -5l-77 -132l-79 132q-3 5 -9 5h-63q-5 0 -8 -4.5t0 -9.5l107 -184q1 -1 3.5 -2.5t4.5 -1.5h82q2 0 5 1.5t4 2.5z" />
    <glyph glyph-name="acute1" unicode="&#x2ca;" horiz-adv-x="480" 
d="M145 489h66q1 0 3.5 1t3.5 3l140 174q5 5 2 9.5t-9 4.5h-75q-2 0 -4.5 -1t-3.5 -3l-130 -173q-3 -5 -1 -10t8 -5z" />
    <glyph glyph-name="alefpatah" unicode="&#x2cb;" horiz-adv-x="480" 
d="M353 489q6 0 8 5t-1 10l-130 173q-1 2 -3.5 3t-4.5 1h-75q-6 0 -9 -4.5t2 -9.5l140 -174q1 -2 3.5 -3t3.5 -1h66z" />
    <glyph glyph-name="breve" unicode="&#x2d8;" horiz-adv-x="492" 
d="M405 656h-52q-8 0 -10 -7q-13 -85 -85 -85q-38 0 -58.5 20.5t-27.5 63.5q-2 8 -9 8h-57q-9 0 -9 -10q5 -79 47.5 -115.5t111.5 -36.5t111 36.5t48 115.5z" />
    <glyph glyph-name="dotaccent" unicode="&#x2d9;" horiz-adv-x="441" 
d="M283 532q0 22 -15.5 38t-38.5 16t-38.5 -16t-15.5 -38q0 -23 15.5 -38.5t38.5 -15.5t38.5 15.5t15.5 38.5z" />
    <glyph glyph-name="ring" unicode="&#x2da;" horiz-adv-x="478" 
d="M355 594q0 21 -8 40t-22 34t-33.5 23.5t-42.5 8.5t-42.5 -8.5t-33.5 -23.5t-22 -34t-8 -40q0 -45 29.5 -75t76.5 -30q23 0 42.5 8t33.5 22.5t22 33.5t8 41zM296 594q0 -21 -15 -34t-32 -13q-18 0 -33 13t-15 34q0 20 15 33.5t33 13.5q17 0 32 -13.5t15 -33.5z" />
    <glyph glyph-name="ogonek" unicode="&#x2db;" horiz-adv-x="475" 
d="M345 -162v47q0 5 -4 8t-9 0q-18 -9 -34 -14t-34 -5q-20 0 -30.5 9t-10.5 24t7.5 29t18.5 26.5t23.5 22.5t22.5 17q5 4 3.5 10t-8.5 6h-49q-40 -24 -67 -55.5t-27 -76.5q0 -42 30 -62.5t71 -20.5q25 0 46 6.5t47 20.5z" />
    <glyph glyph-name="tilde" unicode="&#x2dc;" horiz-adv-x="493" 
d="M411 634h-51q-9 0 -9 -8q-2 -17 -10.5 -29.5t-25.5 -12.5q-10 0 -18.5 2.5t-19.5 5.5l1 -1q3 -2 -1 -0.5t-6 2.5q-22 7 -37 10t-36 3q-25 0 -44.5 -10t-33 -25.5t-20.5 -35t-8 -38.5q0 -9 10 -9h51q7 0 9 7q4 16 12.5 29.5t25.5 13.5q11 0 22.5 -2.5t23.5 -6.5
q3 -1 2.5 -0.5t2.5 -0.5l9 -3q14 -3 26 -5.5t36 -2.5q23 0 41.5 9.5t31 25t19 34.5t6.5 39z" />
    <glyph glyph-name="hungarumlaut" unicode="&#x2dd;" horiz-adv-x="492" 
d="M279 667q2 5 -0.5 9.5t-8.5 4.5h-70q-7 0 -9 -4l-96 -174q-3 -5 0 -9.5t9 -4.5h60q5 0 8 5zM415 667q3 5 0 9.5t-8 4.5h-71q-6 0 -8 -4l-96 -174q-3 -5 0 -9.5t8 -4.5h60q6 0 9 5z" />
    <glyph glyph-name="tildecomb" unicode="&#x303;" horiz-adv-x="493" 
d="M423 639l7 -11q-4 -19 -14.5 -36t-26.5 -29.5t-36 -17.5t-42 0q-24 5 -35 10t-24 11l-8 5q-3 2 -2.5 1t-2.5 1q-11 6 -21.5 11.5t-21.5 7.5q-17 4 -28 -7.5t-18 -26.5q-5 -5 -11 -5l-49 12q-9 2 -8 11q5 18 16.5 35.5t27.5 29.5t37 17.5t46 0.5q21 -5 35 -11.5t34 -17.5
q1 -4 6 -4l-1 2q11 -6 18.5 -10.5t17.5 -6.5q16 -3 27 7.5t17 26.5q2 6 11 5z" />
    <glyph glyph-name="hookabovecomb" unicode="&#x309;" horiz-adv-x="475" 
d="M149 709l1 -47q0 -5 4 -8t9 0q18 9 34 14.5t34 5.5q20 0 30.5 -9t10.5 -24t-7.5 -29t-18.5 -26.5t-23 -22.5t-22 -17q-5 -4 -3.5 -10t8.5 -6h49q40 24 66.5 56t26.5 77q-1 42 -31 62t-71 20q-25 0 -46 -6.5t-47 -21.5z" />
    <glyph glyph-name="dotsubnosp" unicode="&#x323;" horiz-adv-x="243" 
d="M190 -57q0 24 -17.5 42t-42.5 18t-42.5 -18t-17.5 -42q0 -26 18.5 -43t41.5 -17t41.5 17t18.5 43z" />
    <glyph glyph-name="graveleftnosp" unicode="&#x340;" horiz-adv-x="560" 
d="M377 502q6 0 8 5t-1 10l-130 173q-1 2 -3.5 3t-4.5 1h-75q-6 0 -9 -4.5t2 -9.5l140 -174q1 -2 3.5 -3t3.5 -1h66z" />
    <glyph glyph-name="acuterightnosp" unicode="&#x341;" horiz-adv-x="560" 
d="M202 502h66q1 0 3.5 1t3.5 3l140 174q5 5 2 9.5t-9 4.5h-75q-2 0 -4.5 -1t-3.5 -3l-130 -173q-3 -5 -1 -10t8 -5z" />
    <glyph glyph-name="tonos" unicode="&#x384;" horiz-adv-x="208" 
d="M185 667q2 5 -2 9.5t-10 4.5h-65q-4 0 -6 -4l-74 -173q-2 -5 2 -10t10 -5h54q2 0 4 1t2 3z" />
    <glyph glyph-name="dieresistonos" unicode="&#x385;" horiz-adv-x="493" 
d="M298 701q0 10 -9 10h-83q-8 0 -8 -10l14 -222q0 -8 8 -8h55q8 0 8 8zM467 597q0 22 -17 38t-43 16t-43 -16t-17 -38q0 -23 17 -38.5t43 -15.5t43 15.5t17 38.5zM144 597q0 22 -17 38t-43 16q-25 0 -42.5 -16t-17.5 -38q0 -23 17.5 -38.5t42.5 -15.5q26 0 43 15.5t17 38.5
z" />
    <glyph glyph-name="Alphatonos" unicode="&#x386;" horiz-adv-x="661" 
d="M651 0q10 0 10 10v57q0 10 -10 10h-51l-213 624q-2 7 -9 7h-82q-7 0 -9 -7l-228 -624h-49q-9 0 -9 -10v-57q0 -10 9 -10h109q7 0 9 7l82 233h231l77 -233q2 -7 10 -7h123zM331 579l82 -255h-174zM161 694q2 5 -2 9.5t-10 4.5h-65q-4 0 -6 -4l-74 -173q-2 -5 2 -10t10 -5
h54q2 0 4 1t2 3z" />
    <glyph glyph-name="anoteleia" unicode="&#x387;" horiz-adv-x="243" 
d="M190 273q0 25 -17.5 42.5t-42.5 17.5t-42.5 -17.5t-17.5 -42.5t18.5 -42.5t41.5 -17.5t41.5 17.5t18.5 42.5z" />
    <glyph glyph-name="Epsilontonos" unicode="&#x388;" horiz-adv-x="587" 
d="M576 0q9 0 9 10l1 61q0 10 -9 10h-334v249h273q10 0 10 9v63q0 9 -10 9h-273v216h300q9 0 9 10v61q0 10 -9 10h-446q-10 0 -10 -10v-57q0 -10 10 -10h48v-554h-48q-10 0 -10 -10v-57q0 -10 10 -10h479zM64 696q2 5 -2 9.5t-10 4.5h-65q-4 0 -6 -4l-74 -173q-2 -5 2 -10
t10 -5h54q2 0 4 1t2 3z" />
    <glyph glyph-name="Etatonos" unicode="&#x389;" horiz-adv-x="785" 
d="M739 0q10 0 10 10v57q0 10 -10 10h-49v554h49q10 0 10 10v57q0 10 -10 10h-138q-10 0 -10 -10v-289h-337v289q0 10 -10 10h-138q-9 0 -9 -10v-57q0 -10 9 -10h49v-554h-49q-9 0 -9 -10v-57q0 -10 9 -10h138q10 0 10 10v318h337v-318q0 -10 10 -10h138zM65 690q2 5 -2 9.5
t-10 4.5h-65q-4 0 -6 -4l-74 -173q-2 -5 2 -10t10 -5h54q2 0 4 1t2 3z" />
    <glyph glyph-name="Iotatonos" unicode="&#x38a;" horiz-adv-x="338" 
d="M297 0q9 0 9 10v57q0 10 -9 10h-47v554h47q9 0 9 10v57q0 10 -9 10h-186q-9 0 -9 -10v-57q0 -10 9 -10h46v-554h-46q-9 0 -9 -10v-57q0 -10 9 -10h186zM62 695q2 5 -2 9.5t-10 4.5h-65q-4 0 -6 -4l-74 -173q-2 -5 2 -10t10 -5h54q2 0 4 1t2 3z" />
    <glyph glyph-name="Omicrontonos" unicode="&#x38c;" horiz-adv-x="763" 
d="M723 354q0 81 -21.5 149t-63.5 117.5t-105 77.5t-145 28t-144.5 -28t-105 -77.5t-64 -117.5t-21.5 -149q0 -80 21.5 -148.5t64 -118t105 -77.5t144.5 -28t145 28t105 77.5t63.5 118t21.5 148.5zM616 354q0 -58 -13 -110t-40.5 -91.5t-71 -63t-103.5 -23.5t-103 23.5
t-70.5 63t-40.5 91.5t-13 110t13 110.5t40.5 92t70.5 63t103 23.5t103.5 -23.5t71 -63t40.5 -92t13 -110.5zM85 696q2 5 -2 9.5t-10 4.5h-65q-4 0 -6 -4l-74 -173q-2 -5 2 -10t10 -5h54q2 0 4 1t2 3z" />
    <glyph glyph-name="Upsilontonos" unicode="&#x38e;" horiz-adv-x="688" 
d="M678 631q10 0 10 10v57q0 10 -10 10h-93q-7 0 -9 -5l-170 -297l-185 297q-3 5 -8 5h-101q-9 0 -9 -10v-57q0 -10 9 -10h43l199 -318v-236h-48q-10 0 -10 -10v-57q0 -10 10 -10h195q10 0 10 10v57q0 10 -10 10h-48v239l180 315h45zM67 692q2 5 -2 9.5t-10 4.5h-65
q-4 0 -6 -4l-74 -173q-2 -5 2 -10t10 -5h54q2 0 4 1t2 3z" />
    <glyph glyph-name="Omegatonos" unicode="&#x38f;" horiz-adv-x="785" 
d="M753 0q10 0 10 10v70q0 10 -10 10h-122q50 43 83 111.5t33 168.5q0 75 -21.5 140t-64 113t-104.5 75.5t-143 27.5t-143.5 -27.5t-105 -75.5t-64.5 -113t-22 -140q0 -100 33.5 -168.5t82.5 -111.5h-121q-10 0 -10 -10v-70q0 -10 10 -10h288q10 0 10 10v66q0 8 -8 10
q-24 4 -55 19.5t-58 48.5t-45.5 85t-18.5 128v3q0 45 10.5 92.5t36 86.5t69 63.5t110.5 24.5t110.5 -24.5t69 -63.5t36 -86.5t10.5 -92.5v-3q0 -76 -18.5 -128t-45.5 -85t-57.5 -48.5t-55.5 -19.5q-7 -2 -7 -10v-66q0 -10 9 -10h289zM86 691q2 5 -2 9.5t-10 4.5h-65
q-4 0 -6 -4l-74 -173q-2 -5 2 -10t10 -5h54q2 0 4 1t2 3z" />
    <glyph glyph-name="iotadieresistonos" unicode="&#x390;" horiz-adv-x="248" 
d="M258 44l-20 35q-5 7 -14 3q-5 -4 -14 -9t-17 -5t-12 5t-4 22v291q0 33 -18 57.5t-60 24.5q-22 0 -46.5 -10t-45.5 -26q-7 -5 -3 -13l20 -33q2 -4 6 -5t8 2q14 12 31 12q8 0 12.5 -5.5t4.5 -22.5v-279q0 -44 16.5 -69t61.5 -25q23 0 47.5 10.5t44.5 27.5zM176 726
q0 10 -9 10h-83q-8 0 -8 -10l14 -222q0 -8 8 -8h55q8 0 8 8zM345 622q0 22 -17 38t-43 16t-43 -16t-17 -38q0 -23 17 -38.5t43 -15.5t43 15.5t17 38.5zM22 622q0 22 -17 38t-43 16q-25 0 -42.5 -16t-17.5 -38q0 -23 17.5 -38.5t42.5 -15.5q26 0 43 15.5t17 38.5z" />
    <glyph glyph-name="Alpha" unicode="&#x391;" horiz-adv-x="661" 
d="M651 0q10 0 10 10v57q0 10 -10 10h-51l-213 624q-2 7 -9 7h-82q-7 0 -9 -7l-228 -624h-49q-9 0 -9 -10v-57q0 -10 9 -10h109q7 0 9 7l82 233h231l77 -233q2 -7 10 -7h123zM331 579l82 -255h-174z" />
    <glyph glyph-name="Beta" unicode="&#x392;" horiz-adv-x="625" 
d="M591 201q0 32 -10 60t-28 50.5t-42.5 38.5t-53.5 24q47 22 73.5 61t26.5 95q0 49 -20.5 83t-53.5 55t-75.5 30.5t-87.5 9.5h-266q-10 0 -10 -10v-57q0 -10 10 -10h48v-554h-48q-10 0 -10 -10v-57q0 -10 10 -10h261q50 0 99.5 9t88.5 32t63.5 62t24.5 98zM481 204
q0 -30 -11.5 -53t-31.5 -38.5t-47.5 -23.5t-59.5 -8h-131v247h133q29 0 56 -6.5t47.5 -21t32.5 -38.5t12 -58zM452 519q0 -33 -13 -54.5t-33.5 -34t-46.5 -17t-53 -4.5h-106v218h114q60 0 99 -24.5t39 -83.5z" />
    <glyph glyph-name="Gamma" unicode="&#x393;" horiz-adv-x="542" 
d="M533 708h-479q-10 0 -10 -10v-57q0 -10 10 -10h48v-554h-48q-10 0 -10 -10v-57q0 -10 10 -10h204q9 0 9 10v57q0 10 -9 10h-58v550h333q9 0 9 10v61q0 10 -9 10z" />
    <glyph glyph-name="uni0394" unicode="&#x394;" horiz-adv-x="646" 
d="M629 0q9 0 9 10v59l-255 633q-2 6 -9 6h-83q-2 0 -4.5 -2t-3.5 -4l-272 -633v-59q0 -10 10 -10h608zM325 579l197 -493h-400z" />
    <glyph glyph-name="Epsilon" unicode="&#x395;" horiz-adv-x="546" 
d="M535 0q9 0 9 10l1 61q0 10 -9 10h-334v249h273q10 0 10 9v63q0 9 -10 9h-273v216h300q9 0 9 10v61q0 10 -9 10h-446q-10 0 -10 -10v-57q0 -10 10 -10h48v-554h-48q-10 0 -10 -10v-57q0 -10 10 -10h479z" />
    <glyph glyph-name="Zeta" unicode="&#x396;" horiz-adv-x="541" 
d="M531 0q10 0 10 10v63q0 10 -10 10h-392l397 544v71q0 10 -10 10h-486q-9 0 -9 -10v-63q0 -10 9 -10h380l-395 -541v-74q0 -10 9 -10h497z" />
    <glyph glyph-name="Eta" unicode="&#x397;" horiz-adv-x="726" 
d="M680 0q10 0 10 10v57q0 10 -10 10h-49v554h49q10 0 10 10v57q0 10 -10 10h-138q-10 0 -10 -10v-289h-337v289q0 10 -10 10h-138q-9 0 -9 -10v-57q0 -10 9 -10h49v-554h-49q-9 0 -9 -10v-57q0 -10 9 -10h138q10 0 10 10v318h337v-318q0 -10 10 -10h138z" />
    <glyph glyph-name="Theta" unicode="&#x398;" horiz-adv-x="754" 
d="M714 354q0 81 -21.5 149t-63.5 117.5t-105 77.5t-145 28t-144.5 -28t-105 -77.5t-64 -117.5t-21.5 -149q0 -80 21.5 -148.5t64 -118t105 -77.5t144.5 -28t145 28t105 77.5t63.5 118t21.5 148.5zM607 354q0 -58 -13 -110t-40.5 -91.5t-71 -63t-103.5 -23.5t-103 23.5
t-70.5 63t-40.5 91.5t-13 110t13 110.5t40.5 92t70.5 63t103 23.5t103.5 -23.5t71 -63t40.5 -92t13 -110.5zM492 320q9 0 9 8v60q0 8 -9 8h-226q-10 0 -10 -8v-60q0 -8 10 -8h226z" />
    <glyph glyph-name="Iota" unicode="&#x399;" horiz-adv-x="273" 
d="M232 0q9 0 9 10v57q0 10 -9 10h-47v554h47q9 0 9 10v57q0 10 -9 10h-186q-9 0 -9 -10v-57q0 -10 9 -10h46v-554h-46q-9 0 -9 -10v-57q0 -10 9 -10h186z" />
    <glyph glyph-name="Kappa" unicode="&#x39a;" horiz-adv-x="662" 
d="M653 0q9 0 9 10v57q0 10 -9 10h-63l-225 373l167 181h88q10 0 10 10v57q0 10 -10 10h-129q-4 0 -7 -3l-284 -312v305q0 10 -9 10h-138q-10 0 -10 -10v-57q0 -10 10 -10h49v-554h-49q-10 0 -10 -10v-57q0 -10 10 -10h138q9 0 9 10v260l95 104l220 -369q2 -5 9 -5h129z" />
    <glyph glyph-name="Lambda" unicode="&#x39b;" horiz-adv-x="661" 
d="M331 579l187 -572q2 -7 10 -7h123q10 0 10 10v57q0 10 -10 10h-51l-213 624q-2 7 -9 7h-82q-7 0 -9 -7l-228 -624h-49q-9 0 -9 -10v-57q0 -10 9 -10h109q7 0 9 7z" />
    <glyph glyph-name="Mu" unicode="&#x39c;" horiz-adv-x="919" 
d="M875 0q10 0 10 10v57q0 10 -10 10h-49v554h49q10 0 10 10v57q0 10 -10 10h-184q-2 0 -4.5 -2t-3.5 -4l-220 -534l-224 534q-2 6 -9 6h-180q-10 0 -10 -10v-57q0 -10 10 -10h49v-554h-49q-10 0 -10 -10v-57q0 -10 10 -10h129q9 0 9 10v566l239 -570q2 -6 9 -6h47q7 0 9 6
l236 569v-565q0 -10 9 -10h138z" />
    <glyph glyph-name="Nu" unicode="&#x39d;" horiz-adv-x="764" 
d="M732 631q10 0 10 10v57q0 10 -10 10h-132q-10 0 -10 -10v-552l-369 558q-1 2 -3.5 3t-4.5 1h-157q-9 0 -9 -10v-57q0 -10 9 -10h49v-554h-49q-9 0 -9 -10v-57q0 -10 9 -10h133q9 0 9 10v553l370 -559q2 -4 7 -4h99q9 0 9 10v621h49z" />
    <glyph glyph-name="Xi" unicode="&#x39e;" horiz-adv-x="640" 
d="M29 10q0 -9 10 -9h565q10 0 10 9v131q0 9 -10 9h-57q-10 0 -10 -9v-46h-431v46q0 9 -10 9h-57q-10 0 -10 -9v-131zM29 567q0 -9 10 -9h57q10 0 10 9v47h431v-47q0 -9 10 -9h57q10 0 10 9v131q0 9 -10 9h-565q-10 0 -10 -9v-131zM112 312q0 -9 10 -9h393q10 0 10 9v77
q0 9 -10 9h-393q-10 0 -10 -9v-77z" />
    <glyph glyph-name="Omicron" unicode="&#x39f;" horiz-adv-x="754" 
d="M714 354q0 81 -21.5 149t-63.5 117.5t-105 77.5t-145 28t-144.5 -28t-105 -77.5t-64 -117.5t-21.5 -149q0 -80 21.5 -148.5t64 -118t105 -77.5t144.5 -28t145 28t105 77.5t63.5 118t21.5 148.5zM607 354q0 -58 -13 -110t-40.5 -91.5t-71 -63t-103.5 -23.5t-103 23.5
t-70.5 63t-40.5 91.5t-13 110t13 110.5t40.5 92t70.5 63t103 23.5t103.5 -23.5t71 -63t40.5 -92t13 -110.5z" />
    <glyph glyph-name="Pi" unicode="&#x3a0;" horiz-adv-x="657" 
d="M631 708h-602q-10 0 -10 -10v-57q0 -10 10 -10h48v-554h-48q-10 0 -10 -10v-57q0 -10 10 -10h204q9 0 9 10v57q0 10 -9 10h-58v550h310v-550h-58q-9 0 -9 -10v-57q0 -10 9 -10h204q10 0 10 10v57q0 10 -10 10h-48v554h48q10 0 10 10v57q0 10 -10 10z" />
    <glyph glyph-name="Rho" unicode="&#x3a1;" 
d="M549 499q0 99 -62 154t-172 55h-264q-10 0 -10 -10v-57q0 -10 10 -10h48v-554h-48q-10 0 -10 -10v-57q0 -10 10 -10h201q10 0 10 10v57q0 10 -10 10h-56v217h119q110 0 172 52.5t62 152.5zM448 499q0 -63 -33.5 -93.5t-95.5 -30.5h-123v252h123q62 0 95.5 -33t33.5 -95z
" />
    <glyph glyph-name="Sigma" unicode="&#x3a3;" horiz-adv-x="541" 
d="M531 0q10 0 10 10v63q0 10 -10 10h-395l211 289q2 2 2 6t-2 6l-195 241h374q10 0 10 10v63q0 10 -10 10h-486q-9 0 -9 -10v-70l203 -257l-209 -287v-74q0 -10 9 -10h497z" />
    <glyph glyph-name="Tau" unicode="&#x3a4;" horiz-adv-x="536" 
d="M527 627q10 0 10 10v61q0 10 -10 10h-515q-9 0 -9 -10v-61q0 -10 9 -10h208v-550h-48q-9 0 -9 -10v-57q0 -10 9 -10h195q10 0 10 10v57q0 10 -10 10h-48v550h208z" />
    <glyph glyph-name="Upsilon" unicode="&#x3a5;" horiz-adv-x="585" 
d="M575 631q10 0 10 10v57q0 10 -10 10h-93q-7 0 -9 -5l-170 -297l-185 297q-3 5 -8 5h-101q-9 0 -9 -10v-57q0 -10 9 -10h43l199 -318v-236h-48q-10 0 -10 -10v-57q0 -10 10 -10h195q10 0 10 10v57q0 10 -10 10h-48v239l180 315h45z" />
    <glyph glyph-name="Phi" unicode="&#x3a6;" horiz-adv-x="670" 
d="M430 0q9 0 9 10v57q0 10 -9 10h-47v37q60 6 107 26t80 51.5t50 74t17 92.5q0 51 -17 93t-50 74t-80 51.5t-107 25.5v29h47q9 0 9 10v57q0 10 -9 10h-186q-9 0 -9 -10v-57q0 -10 9 -10h46v-30q-60 -6 -106.5 -25.5t-79 -51t-49.5 -74t-17 -92.5t17 -92t49.5 -74t79 -52
t106.5 -26v-37h-46q-9 0 -9 -10v-57q0 -10 9 -10h186zM133 358q0 30 9.5 57.5t29 50t49 38t69.5 21.5v-334q-40 6 -69.5 22t-49 38.5t-29 50t-9.5 56.5zM539 358q0 -30 -9.5 -57.5t-29 -50t-48.5 -38t-69 -21.5v335q40 -6 69 -22t48.5 -38.5t29 -50t9.5 -57.5z" />
    <glyph glyph-name="Chi" unicode="&#x3a7;" horiz-adv-x="644" 
d="M633 0q10 0 10 10v57q0 10 -10 10h-61l-198 297l171 257h67q9 0 9 10v57q0 10 -9 10h-111q-2 0 -4.5 -1t-3.5 -3l-169 -254l-170 254q-1 2 -3.5 3t-4.5 1h-120q-10 0 -10 -10v-57q0 -10 10 -10h60l180 -269l-190 -285h-66q-9 0 -9 -10v-57q0 -10 9 -10h110q2 0 4.5 1
t3.5 3l188 282l188 -282q1 -2 3.5 -3t4.5 -1h121z" />
    <glyph glyph-name="Omega" unicode="&#x3a9;" horiz-adv-x="763" 
d="M731 0q10 0 10 10v70q0 10 -10 10h-122q50 43 83 111.5t33 168.5q0 75 -21.5 140t-64 113t-104.5 75.5t-143 27.5t-143.5 -27.5t-105 -75.5t-64.5 -113t-22 -140q0 -100 33.5 -168.5t82.5 -111.5h-121q-10 0 -10 -10v-70q0 -10 10 -10h288q10 0 10 10v66q0 8 -8 10
q-24 4 -55 19.5t-58 48.5t-45.5 85t-18.5 128v3q0 45 10.5 92.5t36 86.5t69 63.5t110.5 24.5t110.5 -24.5t69 -63.5t36 -86.5t10.5 -92.5v-3q0 -76 -18.5 -128t-45.5 -85t-57.5 -48.5t-55.5 -19.5q-7 -2 -7 -10v-66q0 -10 9 -10h289z" />
    <glyph glyph-name="Iotadieresis" unicode="&#x3aa;" horiz-adv-x="284" 
d="M248 0q9 0 9 10v57q0 10 -9 10h-48v557h48q9 0 9 10v58q0 10 -9 10h-193q-10 0 -10 -10v-58q0 -10 10 -10h48v-557h-48q-10 0 -10 -10v-57q0 -10 10 -10h193zM97 803q0 26 -17.5 44.5t-43.5 18.5t-43.5 -18.5t-17.5 -44.5t17.5 -44t43.5 -18t43.5 18t17.5 44zM328 803
q0 26 -17 44.5t-43 18.5t-43.5 -18.5t-17.5 -44.5t17.5 -44t43.5 -18t43 18t17 44z" />
    <glyph glyph-name="Upsilondieresis" unicode="&#x3ab;" horiz-adv-x="587" 
d="M576 634q10 0 10 10v58q0 10 -10 10h-93q-7 0 -9 -5l-170 -299l-185 299q-3 5 -8 5h-101q-9 0 -9 -10v-58q0 -10 9 -10h43l199 -319v-238h-48q-10 0 -10 -10v-57q0 -10 10 -10h195q10 0 10 10v57q0 10 -10 10h-48v241l180 316h45zM479 803q0 26 -18 44.5t-44 18.5
t-43.5 -18.5t-17.5 -44.5t17.5 -44t43.5 -18t44 18t18 44zM242 803q0 26 -18 44.5t-44 18.5t-43.5 -18.5t-17.5 -44.5t17.5 -44t43.5 -18t44 18t18 44z" />
    <glyph glyph-name="epsilontonos" unicode="&#x3ad;" horiz-adv-x="436" 
d="M27 141q0 -39 18 -67t47 -47t65.5 -28t74.5 -9q51 0 91 10.5t84 30.5q2 1 4 4.5t2 6.5v71q0 8 -5.5 11.5t-12.5 -0.5q-23 -12 -43 -20.5t-38.5 -14t-38.5 -7.5t-43 -2q-42 0 -63.5 18t-21.5 47q0 32 26 47t64 15l40 -1q13 0 13 12v66q0 12 -13 12h-31q-17 0 -33 2.5
t-28 8.5t-19.5 16t-7.5 26q0 22 19 37t58 15q37 0 65.5 -12t55.5 -26q2 -1 2.5 -2t2.5 -2q8 -5 15 4l34 49q2 5 1.5 11t-4.5 8q-16 10 -35.5 20.5t-42 19.5t-48.5 14.5t-56 5.5q-36 0 -69 -7.5t-58 -24t-40 -42t-15 -62.5q0 -63 57 -100q-34 -14 -53.5 -45t-19.5 -69z
M342 696q2 5 -2 9.5t-10 4.5h-65q-4 0 -6 -4l-74 -173q-2 -5 2 -10t10 -5h54q2 0 4 1t2 3z" />
    <glyph glyph-name="etatonos" unicode="&#x3ae;" horiz-adv-x="540" 
d="M582 -177l-21 35q-2 4 -6.5 4.5t-8.5 -1.5q-6 -4 -15.5 -9t-17.5 -5q-7 0 -11 4.5t-4 22.5v436q0 77 -42.5 123.5t-134.5 46.5q-49 0 -84.5 -20t-56.5 -48q-6 24 -23 40.5t-52 16.5q-23 0 -47 -10.5t-46 -26.5q-8 -6 -3 -12l20 -34q2 -4 6.5 -5t7.5 2q7 5 16 9t17 4
q9 0 13.5 -6t4.5 -22v-358q0 -10 9 -10h75q9 0 9 10v219q0 34 7 65t22.5 54.5t39.5 37.5t58 14q47 0 67.5 -29.5t20.5 -79.5l-1 -424q0 -44 18 -69t64 -25q25 0 50 10.5t46 27.5zM436 681q2 5 -2 9.5t-10 4.5h-65q-4 0 -6 -4l-74 -173q-2 -5 2 -10t10 -5h54q2 0 4 1t2 3z
" />
    <glyph glyph-name="iotatonos" unicode="&#x3af;" horiz-adv-x="248" 
d="M258 44l-20 35q-5 7 -14 3q-5 -4 -14 -9t-17 -5t-12 5t-4 22v291q0 33 -18 57.5t-60 24.5q-22 0 -46.5 -10t-45.5 -26q-7 -5 -3 -13l20 -33q2 -4 6 -5t8 2q14 12 31 12q8 0 12.5 -5.5t4.5 -22.5v-279q0 -44 16.5 -69t61.5 -25q23 0 47.5 10.5t44.5 27.5zM231 677
q2 5 -2 9.5t-10 4.5h-65q-4 0 -6 -4l-74 -173q-2 -5 2 -10t10 -5h54q2 0 4 1t2 3z" />
    <glyph glyph-name="upsilondieresistonos" unicode="&#x3b0;" horiz-adv-x="528" 
d="M409 468q-10 0 -10 -9v-219q0 -34 -7 -65t-22.5 -54.5t-39.5 -37.5t-58 -14q-47 0 -67 30t-20 79v208q0 33 -19 57.5t-63 24.5q-23 0 -48 -10t-47 -26q-3 -2 -4 -6t1 -6l20 -34q2 -4 6.5 -5t7.5 2q7 5 16 9t17 4t12.5 -5t4.5 -19v-214q0 -77 42 -123.5t135 -46.5
q48 0 89 10t63 39q36 33 51.5 74t20.5 92t3.5 114.5t-0.5 141.5q0 9 -10 9h-74zM331 710q0 10 -9 10h-83q-8 0 -8 -10l14 -222q0 -8 8 -8h55q8 0 8 8zM500 606q0 22 -17 38t-43 16t-43 -16t-17 -38q0 -23 17 -38.5t43 -15.5t43 15.5t17 38.5zM177 606q0 22 -17 38t-43 16
q-25 0 -42.5 -16t-17.5 -38q0 -23 17.5 -38.5t42.5 -15.5q26 0 43 15.5t17 38.5z" />
    <glyph glyph-name="beta" unicode="&#x3b2;" horiz-adv-x="570" 
d="M541 225q0 88 -36.5 141t-106.5 73q37 20 61 59.5t24 96.5q0 40 -14.5 72t-40 54.5t-61 34.5t-76.5 12q-59 0 -100.5 -18t-67.5 -49.5t-37.5 -73.5t-11.5 -91v-672q0 -10 9 -10h75q10 0 10 10v675q0 29 5.5 57t19 49.5t36.5 34.5t58 13q45 0 72.5 -27t27.5 -79
t-29.5 -81.5t-77.5 -29.5h-21q-10 0 -10 -10v-64q0 -10 10 -10h22q71 0 115 -39.5t44 -120.5q0 -83 -38 -123t-101 -40q-17 0 -32 2t-38 9q-12 3 -12 -10v-60q0 -8 6 -10q26 -8 44 -10t40 -2q49 0 91.5 15t73.5 44.5t49 74t18 103.5z" />
    <glyph glyph-name="epsilon" unicode="&#x3b5;" horiz-adv-x="436" 
d="M27 141q0 -39 18 -67t47 -47t65.5 -28t74.5 -9q51 0 91 10.5t84 30.5q2 1 4 4.5t2 6.5v71q0 8 -5.5 11.5t-12.5 -0.5q-23 -12 -43 -20.5t-38.5 -14t-38.5 -7.5t-43 -2q-42 0 -63.5 18t-21.5 47q0 32 26 47t64 15l40 -1q13 0 13 12v66q0 12 -13 12h-31q-17 0 -33 2.5
t-28 8.5t-19.5 16t-7.5 26q0 22 19 37t58 15q37 0 65.5 -12t55.5 -26q2 -1 2.5 -2t2.5 -2q8 -5 15 4l34 49q2 5 1.5 11t-4.5 8q-16 10 -35.5 20.5t-42 19.5t-48.5 14.5t-56 5.5q-36 0 -69 -7.5t-58 -24t-40 -42t-15 -62.5q0 -63 57 -100q-34 -14 -53.5 -45t-19.5 -69z" />
    <glyph glyph-name="eta" unicode="&#x3b7;" horiz-adv-x="540" 
d="M582 -177l-21 35q-2 4 -6.5 4.5t-8.5 -1.5q-6 -4 -15.5 -9t-17.5 -5q-7 0 -11 4.5t-4 22.5v436q0 77 -42.5 123.5t-134.5 46.5q-49 0 -84.5 -20t-56.5 -48q-6 24 -23 40.5t-52 16.5q-23 0 -47 -10.5t-46 -26.5q-8 -6 -3 -12l20 -34q2 -4 6.5 -5t7.5 2q7 5 16 9t17 4
q9 0 13.5 -6t4.5 -22v-358q0 -10 9 -10h75q9 0 9 10v219q0 34 7 65t22.5 54.5t39.5 37.5t58 14q47 0 67.5 -29.5t20.5 -79.5l-1 -424q0 -44 18 -69t64 -25q25 0 50 10.5t46 27.5z" />
    <glyph glyph-name="theta" unicode="&#x3b8;" horiz-adv-x="547" 
d="M524 354q0 60 -10 125t-37 118.5t-74 88t-120 34.5t-120 -34.5t-74 -88t-37 -118.5t-10 -125t10 -124.5t37 -118.5t74 -88.5t120 -34.5t120 34.5t74 88.5t37 118.5t10 124.5zM283 636q42 0 68 -24t41 -60t21 -78.5t8 -80.5h-277q1 38 7.5 80.5t22 78.5t41.5 60t68 24z
M283 73q-41 0 -67 22.5t-41 57.5t-21.5 76.5t-8.5 79.5h276q-2 -38 -8.5 -79.5t-22 -76.5t-41.5 -57.5t-66 -22.5z" />
    <glyph glyph-name="iota" unicode="&#x3b9;" horiz-adv-x="248" 
d="M258 44l-20 35q-5 7 -14 3q-5 -4 -14 -9t-17 -5t-12 5t-4 22v291q0 33 -18 57.5t-60 24.5q-22 0 -46.5 -10t-45.5 -26q-7 -5 -3 -13l20 -33q2 -4 6 -5t8 2q14 12 31 12q8 0 12.5 -5.5t4.5 -22.5v-279q0 -44 16.5 -69t61.5 -25q23 0 47.5 10.5t44.5 27.5z" />
    <glyph glyph-name="kappa" unicode="&#x3ba;" horiz-adv-x="494" 
d="M503 55l-23 33q-4 7 -13 2q-7 -5 -16 -11t-17 -6t-13.5 4t-13.5 18l-99 197l144 100q6 4 2 13l-33 52q-5 7 -14 3l-238 -167v102q0 33 -18.5 59t-62.5 26q-23 0 -48.5 -10.5t-47.5 -26.5q-8 -6 -3 -13l21 -34q2 -4 6 -5t8 2q7 5 15.5 9t17.5 4t13 -6t4 -22v-368
q0 -10 10 -10h75q10 0 10 10v192l60 35l87 -185q15 -29 36 -42t45 -13q20 0 36.5 5t30 11.5t23.5 14t16 13.5v14z" />
    <glyph glyph-name="lambda" unicode="&#x3bb;" horiz-adv-x="572" 
d="M572 59l-23 33q-4 7 -13 2q-7 -5 -16 -11t-17 -6t-13.5 4t-13.5 18l-253 601q-4 8 -13 4l-60 -23q-9 -4 -5 -13l81 -189l-138 -360q-8 -20 -14 -29.5t-16 -9.5q-9 0 -17.5 3.5t-15.5 7.5q-9 6 -13 -4l-20 -33q-4 -8 3 -13q22 -17 45.5 -27t49.5 -10q21 0 35.5 7.5
t24.5 20.5t17.5 30t13.5 36l92 259q38 -88 74.5 -176t74.5 -176q4 -7 11 -9.5t14.5 -3t13 0.5l5.5 1q20 0 36.5 6t30 14t23.5 16.5t16 14.5v14z" />
    <glyph glyph-name="nu" unicode="&#x3bd;" horiz-adv-x="502" 
d="M502 437q2 3 0 6.5t-5 5.5l-63 23q-9 3 -12 -5l-147 -356l-91 254q-1 2 -1.5 4.5t-1.5 4.5q-6 19 -13.5 36t-17.5 30t-24.5 20.5t-35.5 7.5q-26 0 -49.5 -10t-45.5 -27q-7 -5 -3 -13l20 -33q4 -10 13 -4q7 4 15.5 7.5t17.5 3.5q10 0 16 -9.5t14 -29.5l131 -347q2 -6 9 -6
h83q7 0 9 6z" />
    <glyph glyph-name="omicron" unicode="&#x3bf;" horiz-adv-x="537" 
d="M508 234q0 55 -15.5 100.5t-45.5 77.5t-72.5 50t-96.5 18t-96.5 -18t-72.5 -50t-45.5 -77.5t-15.5 -100.5t15.5 -100t45.5 -77.5t72.5 -50.5t96.5 -18t96.5 18t72.5 50.5t45.5 77.5t15.5 100zM410 234q0 -33 -8 -64t-24.5 -54.5t-41 -37.5t-58.5 -14t-58.5 14t-41 37.5
t-24.5 54.5t-8 64q0 34 8 65t24.5 54.5t41 37.5t58.5 14t58.5 -14t41 -37.5t24.5 -54.5t8 -65z" />
    <glyph glyph-name="pi" unicode="&#x3c0;" horiz-adv-x="561" 
d="M563 44l-21 35q-5 7 -15 3q-6 -4 -15.5 -9t-17.5 -5t-12 5t-4 22v292h70q10 0 10 9v63q0 9 -10 9h-531q-9 0 -9 -9v-63q0 -9 9 -9h68v-377q0 -10 10 -10h75q10 0 10 10v377h203v-295q0 -46 17 -72t64 -26q25 0 50 10.5t46 27.5z" />
    <glyph glyph-name="rho" unicode="&#x3c1;" horiz-adv-x="526" 
d="M497 237q0 54 -14 99.5t-41.5 79t-68.5 52t-95 18.5q-43 0 -85 -11.5t-90 -53.5q-24 -27 -38 -55.5t-21 -54.5t-8.5 -46t-0.5 -29l1 -449q0 -10 9 -10h75q10 0 10 10v263q53 -62 156 -62q49 0 88 19t66.5 52.5t42 79t14.5 98.5zM396 237q0 -34 -7.5 -64.5t-22.5 -54
t-39 -37t-57 -13.5t-59 13.5t-44 37t-27.5 54t-9.5 64.5t9.5 65t28 54t45 37t59.5 14t56.5 -14t38.5 -37t22 -54t7 -65z" />
    <glyph glyph-name="sigma" unicode="&#x3c3;" horiz-adv-x="537" 
d="M511 405q9 0 9 8v59q0 8 -9 8h-233q-54 0 -96.5 -18t-72.5 -50t-45.5 -77.5t-15.5 -100.5t15.5 -100t45.5 -77.5t72.5 -50.5t96.5 -18t96.5 18t72.5 50.5t45.5 77.5t15.5 100q0 105 -55 171h58zM410 234q0 -33 -8 -64t-24.5 -54.5t-41 -37.5t-58.5 -14t-58.5 14t-41 37.5
t-24.5 54.5t-8 64q0 34 8 65t24.5 54.5t41 37.5t58.5 14h6q32 -2 56 -16.5t39.5 -38t23 -53.5t7.5 -63z" />
    <glyph glyph-name="tau" unicode="&#x3c4;" horiz-adv-x="333" 
d="M348 28v55q0 6 -5 8.5t-10 -0.5q-11 -7 -33 -14t-43 -7q-31 0 -40 15t-9 52v269h111q10 0 10 10v53q0 9 -10 9h-310q-9 0 -9 -9v-53q0 -10 9 -10h107v-280q0 -72 32 -102.5t95 -30.5q15 0 30 3t28.5 7t24.5 8.5t17 7.5z" />
    <glyph glyph-name="upsilon" unicode="&#x3c5;" horiz-adv-x="528" 
d="M409 468q-10 0 -10 -9v-219q0 -34 -7 -65t-22.5 -54.5t-39.5 -37.5t-58 -14q-47 0 -67 30t-20 79v208q0 33 -19 57.5t-63 24.5q-23 0 -48 -10t-47 -26q-3 -2 -4 -6t1 -6l20 -34q2 -4 6.5 -5t7.5 2q7 5 16 9t17 4t12.5 -5t4.5 -19v-214q0 -77 42 -123.5t135 -46.5
q48 0 89 10t63 39q36 33 51.5 74t20.5 92t3.5 114.5t-0.5 141.5q0 9 -10 9h-74z" />
    <glyph glyph-name="phi" unicode="&#x3c6;" horiz-adv-x="522" 
d="M292 -106q8 0 8 10v97q46 6 82 26t61 51.5t38 74t13 92.5t-13 92.5t-38 74t-61 51.5t-82 26v101q0 9 -8 9h-52q-8 0 -8 -9v-101q-47 -5 -83.5 -24.5t-62 -51.5t-39 -74.5t-13.5 -93.5q0 -102 52 -168t146 -77v-96q0 -10 8 -10h52zM132 245q0 29 6 56.5t18.5 50t31 38.5
t44.5 22v-334q-26 6 -44.5 22t-31 38.5t-18.5 50t-6 56.5zM396 245q0 -29 -6 -55.5t-18 -49t-30 -38.5t-42 -23v332q49 -14 72.5 -61t23.5 -105z" />
    <glyph glyph-name="chi" unicode="&#x3c7;" horiz-adv-x="483" 
d="M493 63l-23 32q-5 9 -14 2q-17 -15 -35 -15q-9 0 -17.5 7.5t-19.5 24.5l-83 127l161 179q6 8 0 13l-41 44q-7 5 -14 0l-150 -167l-70 109q-6 8 -12.5 17t-15 16.5t-20 12t-27.5 4.5q-26 0 -51.5 -16t-45.5 -35q-5 -5 -1 -13l23 -31q5 -9 14 -2q18 15 35 15q9 0 17 -6.5
t19 -23.5l74 -115l-175 -194q-6 -8 0 -13l41 -44q7 -5 14 0l164 182l79 -124q11 -17 27.5 -33t48.5 -16q26 0 51.5 15.5t45.5 35.5z" />
    <glyph glyph-name="iotadieresis" unicode="&#x3ca;" horiz-adv-x="268" 
d="M258 44l-20 35q-5 7 -14 3q-5 -4 -14 -9t-17 -5t-12 5t-4 22v291q0 33 -18 57.5t-60 24.5q-22 0 -46.5 -10t-45.5 -26q-7 -5 -3 -13l20 -33q2 -4 6 -5t8 2q14 12 31 12q8 0 12.5 -5.5t4.5 -22.5v-279q0 -44 16.5 -69t61.5 -25q23 0 47.5 10.5t44.5 27.5zM270 548
q0 22 -17 38t-43 16t-43 -16t-17 -38q0 -23 17 -38.5t43 -15.5t43 15.5t17 38.5zM84 548q0 22 -17 38t-43 16q-25 0 -42.5 -16t-17.5 -38q0 -23 17.5 -38.5t42.5 -15.5q26 0 43 15.5t17 38.5z" />
    <glyph glyph-name="upsilondieresis" unicode="&#x3cb;" horiz-adv-x="528" 
d="M409 468q-10 0 -10 -9v-219q0 -34 -7 -65t-22.5 -54.5t-39.5 -37.5t-58 -14q-47 0 -67 30t-20 79v208q0 33 -19 57.5t-63 24.5q-23 0 -48 -10t-47 -26q-3 -2 -4 -6t1 -6l20 -34q2 -4 6.5 -5t7.5 2q7 5 16 9t17 4t12.5 -5t4.5 -19v-214q0 -77 42 -123.5t135 -46.5
q48 0 89 10t63 39q36 33 51.5 74t20.5 92t3.5 114.5t-0.5 141.5q0 9 -10 9h-74zM436 586q0 22 -17 38t-43 16t-43 -16t-17 -38q0 -23 17 -38.5t43 -15.5t43 15.5t17 38.5zM250 586q0 22 -17 38t-43 16q-25 0 -42.5 -16t-17.5 -38q0 -23 17.5 -38.5t42.5 -15.5q26 0 43 15.5
t17 38.5z" />
    <glyph glyph-name="omicrontonos" unicode="&#x3cc;" horiz-adv-x="519" 
d="M490 234q0 55 -15.5 100.5t-45.5 77.5t-72.5 50t-96.5 18t-96.5 -18t-72.5 -50t-45.5 -77.5t-15.5 -100.5t15.5 -100t45.5 -77.5t72.5 -50.5t96.5 -18t96.5 18t72.5 50.5t45.5 77.5t15.5 100zM392 234q0 -33 -8 -64t-24.5 -54.5t-41 -37.5t-58.5 -14t-58.5 14t-41 37.5
t-24.5 54.5t-8 64q0 34 8 65t24.5 54.5t41 37.5t58.5 14t58.5 -14t41 -37.5t24.5 -54.5t8 -65zM361 678q2 5 -2 9.5t-10 4.5h-65q-4 0 -6 -4l-74 -173q-2 -5 2 -10t10 -5h54q2 0 4 1t2 3z" />
    <glyph glyph-name="upsilontonos" unicode="&#x3cd;" horiz-adv-x="528" 
d="M409 468q-10 0 -10 -9v-219q0 -34 -7 -65t-22.5 -54.5t-39.5 -37.5t-58 -14q-47 0 -67 30t-20 79v208q0 33 -19 57.5t-63 24.5q-23 0 -48 -10t-47 -26q-3 -2 -4 -6t1 -6l20 -34q2 -4 6.5 -5t7.5 2q7 5 16 9t17 4t12.5 -5t4.5 -19v-214q0 -77 42 -123.5t135 -46.5
q48 0 89 10t63 39q36 33 51.5 74t20.5 92t3.5 114.5t-0.5 141.5q0 9 -10 9h-74zM387 681q2 5 -2 9.5t-10 4.5h-65q-4 0 -6 -4l-74 -173q-2 -5 2 -10t10 -5h54q2 0 4 1t2 3z" />
    <glyph glyph-name="phi1" unicode="&#x3d5;" horiz-adv-x="670" 
d="M374 -114q9 0 9 10v104q60 6 107 26t80 51.5t50 74t17 92.5q0 51 -17 93t-50 74t-80 51.5t-107 25.5v96q0 10 -9 10h-75q-9 0 -9 -10v-97q-60 -6 -106.5 -25.5t-79 -51t-49.5 -74t-17 -92.5t17 -92t49.5 -74t79 -52t106.5 -26l-1 -104q0 -10 9 -10h76zM133 244
q0 30 9.5 57.5t29 50t49 38t69.5 21.5v-334q-40 6 -69.5 22t-49 38.5t-29 50t-9.5 56.5zM539 244q0 -30 -9.5 -57.5t-29 -50t-48.5 -38t-69 -21.5v335q40 -6 69 -22t48.5 -38.5t29 -50t9.5 -57.5z" />
    <glyph glyph-name="Digamma" unicode="&#x3dc;" horiz-adv-x="509" 
d="M501 627q10 0 10 10v61q0 10 -10 10h-452q-10 0 -10 -10v-57q0 -10 10 -10h48v-554h-48q-10 0 -10 -10v-57q0 -10 10 -10h203q10 0 10 10v57q0 10 -10 10h-58v259h241q10 0 10 9v62q0 10 -10 10h-241v210h307z" />
    <glyph glyph-name="Dei" unicode="&#x3ee;" horiz-adv-x="539" 
d="M502 410q10 0 10 10v74q0 10 -10 10l-178 -6l7 200q0 9 -10 9h-84q-10 0 -10 -9l6 -200l-177 6q-10 0 -10 -10v-74q0 -10 10 -10l178 5l-4 -405q0 -10 10 -10h78q10 0 10 10l-4 405z" />
    <glyph glyph-name="dei" unicode="&#x3ef;" horiz-adv-x="539" 
d="M502 410q10 0 10 10v74q0 10 -10 10l-178 -6l7 200q0 9 -10 9h-84q-10 0 -10 -9l6 -200l-177 6q-10 0 -10 -10v-74q0 -10 10 -10l178 5l-4 -639q0 -10 10 -10h78q10 0 10 10l-4 639z" />
    <glyph glyph-name="sigmalunate" unicode="&#x3f2;" horiz-adv-x="437" 
d="M423 434q2 10 -5 13q-23 9 -59.5 21t-84.5 12q-53 0 -97 -18.5t-75.5 -51t-48.5 -77.5t-17 -99t16 -99t46 -78t74 -51t101 -18q44 0 82.5 11t60.5 21q6 2 6 9v63q0 6 -5 9t-10 0q-37 -20 -68 -27.5t-61 -7.5q-35 0 -62 12.5t-45.5 35t-28 53.5t-9.5 67q0 33 8.5 63
t25.5 53t44 36.5t64 13.5q40 0 68.5 -8.5t44.5 -15.5q9 -4 13 5z" />
    <glyph glyph-name="afii10023" unicode="&#x401;" horiz-adv-x="546" 
d="M535 0q9 0 9 10v61q0 10 -9 10h-333v250h273q10 0 10 10v63q0 9 -10 9h-273v217h300q9 0 9 10v62q0 10 -9 10h-446q-10 0 -10 -10v-58q0 -10 10 -10h48v-557h-48q-10 0 -10 -10v-57q0 -10 10 -10h479zM245 803q0 26 -17.5 44.5t-43.5 18.5t-44 -18.5t-18 -44.5t18 -44
t44 -18t43.5 18t17.5 44zM481 803q0 26 -18 44.5t-44 18.5t-43.5 -18.5t-17.5 -44.5t17.5 -44t43.5 -18t44 18t18 44z" />
    <glyph glyph-name="afii10051" unicode="&#x402;" horiz-adv-x="656" 
d="M527 627q10 0 10 10v61q0 10 -10 10h-515q-9 0 -9 -10v-61q0 -10 9 -10h208v-550h-48q-9 0 -9 -10v-57q0 -10 9 -10h195q10 0 10 10v57q0 10 -10 10h-48v184q2 30 10.5 56.5t24 47t38 32t53.5 11.5q47 0 67.5 -29t20.5 -75v-418q0 -15 -4.5 -19t-12.5 -4t-17.5 5t-15.5 9
q-9 5 -14 -3l-21 -35l2 -13q21 -17 46 -27.5t50 -10.5q46 0 64 25.5t18 70.5v433q0 78 -42 125t-135 47q-44 0 -77 -17t-55 -41v196h208z" />
    <glyph glyph-name="afii10052" unicode="&#x403;" horiz-adv-x="542" 
d="M533 708h-479q-10 0 -10 -10v-57q0 -10 10 -10h48v-554h-48q-10 0 -10 -10v-57q0 -10 10 -10h204q9 0 9 10v57q0 10 -9 10h-58v550h333q9 0 9 10v61q0 10 -9 10zM455 792q7 2 7 9v63q0 10 -11 8l-293 -55q-8 -2 -8 -8v-50q0 -4 3.5 -7t8.5 -2z" />
    <glyph glyph-name="afii10053" unicode="&#x404;" horiz-adv-x="608" 
d="M551 317q10 0 10 8v56q0 8 -10 8h-398q4 54 22 100t47.5 79.5t71 52.5t92.5 19q52 0 90.5 -11t68.5 -23q9 -4 13 5l24 61q4 9 -5 13q-37 15 -84 28t-112 13q-74 0 -136 -27t-106.5 -76t-69 -117.5t-24.5 -151.5q0 -84 24 -152.5t68 -117.5t105.5 -75.5t136.5 -26.5
q67 0 115.5 13.5t80.5 30.5q5 2 5 9v73q0 6 -4.5 9t-9.5 0q-33 -18 -74 -32t-102 -14q-49 0 -90 18t-72 50.5t-50.5 77.5t-24.5 100h398z" />
    <glyph glyph-name="afii10054" unicode="&#x405;" horiz-adv-x="499" 
d="M479 189q0 50 -15.5 85.5t-43.5 60.5t-67 43t-85 34q-40 13 -67 26t-43.5 28t-24 32.5t-7.5 40.5q0 49 38.5 77t100.5 28q54 0 91.5 -10.5t62.5 -20.5q9 -4 13 4l22 60q4 10 -5 12q-12 6 -33 12.5t-45.5 12t-52 9t-52.5 3.5q-54 0 -97.5 -13t-74 -38t-47.5 -62t-17 -84
q0 -50 18.5 -84t48.5 -58t68 -40t77 -29q29 -10 54 -21.5t43 -26.5t28.5 -35.5t10.5 -48.5q0 -60 -40.5 -88.5t-111.5 -28.5q-58 0 -102.5 14.5t-76.5 28.5q-5 2 -9 -0.5t-4 -8.5v-73q0 -7 5 -9q35 -14 83.5 -26.5t108.5 -12.5q56 0 102 13.5t78.5 39.5t50 64.5t17.5 89.5z
" />
    <glyph glyph-name="Icyril" unicode="&#x406;" horiz-adv-x="273" 
d="M232 0q9 0 9 10v57q0 10 -9 10h-47v554h47q9 0 9 10v57q0 10 -9 10h-186q-9 0 -9 -10v-57q0 -10 9 -10h46v-554h-46q-9 0 -9 -10v-57q0 -10 9 -10h186z" />
    <glyph glyph-name="afii10056" unicode="&#x407;" horiz-adv-x="284" 
d="M248 0q9 0 9 10v57q0 10 -9 10h-48v557h48q9 0 9 10v58q0 10 -9 10h-193q-10 0 -10 -10v-58q0 -10 10 -10h48v-557h-48q-10 0 -10 -10v-57q0 -10 10 -10h193zM97 803q0 26 -17.5 44.5t-43.5 18.5t-43.5 -18.5t-17.5 -44.5t17.5 -44t43.5 -18t43.5 18t17.5 44zM328 803
q0 26 -17 44.5t-43 18.5t-43.5 -18.5t-17.5 -44.5t17.5 -44t43.5 -18t43 18t17 44z" />
    </font>
</defs>
</svg>
