<?xml version="1.0" standalone="no"?>
<!DOCTYPE svg PUBLIC "-//W3C//DTD SVG 1.1//EN" "http://www.w3.org/Graphics/SVG/1.1/DTD/svg11.dtd" >
<svg xmlns="http://www.w3.org/2000/svg" xmlns:xlink="http://www.w3.org/1999/xlink" version="1.1">
<metadata>
Created by FontForge 20170731 at Thu Oct  2 00:25:36 2014
 By Aleksey,,,
Copyright (c) 2013 by dcoxy Medina Gregory. All rights reserved. 
You need my agreement for every diffusions, reproduction and commercial use. 
Thank you to contact me before: dcoxymg@gmail.com
</metadata>
<defs>
<font id="HolyMoly" horiz-adv-x="589" >
  <font-face 
    font-family="Holy Moly"
    font-weight="400"
    font-stretch="normal"
    units-per-em="1000"
    panose-1="2 0 0 0 0 0 0 0 0 0"
    ascent="800"
    descent="-200"
    x-height="509"
    cap-height="709"
    bbox="-260.875 -245.11 896.875 909"
    underline-thickness="50"
    underline-position="-150"
    unicode-range="U+0020-2212"
  />
<missing-glyph horiz-adv-x="251" 
 />
    <glyph glyph-name=".notdef" horiz-adv-x="251" 
 />
    <glyph glyph-name=".null" horiz-adv-x="0" 
 />
    <glyph glyph-name="nonmarkingreturn" horiz-adv-x="251" 
 />
    <glyph glyph-name="space" unicode=" " horiz-adv-x="251" 
 />
    <glyph glyph-name="space" unicode="&#xa0;" horiz-adv-x="251" 
 />
    <glyph glyph-name="exclam" unicode="!" horiz-adv-x="245" 
d="M164 108q-5 6 -9 14t-11 11q6 -24 18.5 -47t24.5 -46q-2 -4 -4 -7t-5 -7q-19 27 -34.5 61t-32.5 60q3 1 11 1q17 0 31 -6q2 -8 7 -16t4 -18zM97 116q2 -4 5.5 -10t6 -12t3 -12t-2.5 -10q-5 15 -13.5 31.5t-18.5 30.5q3 2 5.5 3.5t6.5 3.5l4 -12t4 -13zM165 135
q17 -13 23.5 -32.5t4.5 -39.5q-3 8 -5.5 16.5t-6.5 16.5q-4 10 -7.5 19.5t-8.5 19.5zM163 429q-2 5 -3.5 9t-4.5 4q-1 -8 2.5 -16t4.5 -13q-2 1 -4 3t-5 1q8 -22 19.5 -44t23.5 -45v-20q-2 5 -4.5 9t-7.5 7q0 -2 2.5 -5.5t4.5 -7t2.5 -7.5t-3.5 -7q1 5 -2 8t-6 5
q2 -10 5.5 -12t8.5 -3v-35q-2 1 -3.5 2t-3.5 2q3 1 2 5q-5 24 -21 44.5t-24 41.5q5 -17 10 -28t14 -23q-2 -1 -4 -3q7 -15 11 -27.5t13 -16.5q0 -2 -1 -2.5t0 -2.5q4 0 7 -3v-1q0 -28 -15 -45t-35 -23q-18 41 -37.5 78.5t-40.5 70.5q3 -8 5.5 -17.5t9.5 -11.5q-2 0 -3 0.5
t0 -3.5q1 -5 7.5 -17t14 -24.5t13 -22.5t5.5 -11q0 -9 6.5 -21.5t13.5 -22.5q-26 -5 -48 4q-10 19 -21 39t-23 41v376q0 36 23 54t51 18t51 -18t23 -54v-245q-13 24 -25 43q-3 -1 -3 -4t-5 -3zM123 368q3 -4 5 -9.5t5 -8.5q1 5 -2.5 10.5t-7.5 7.5zM144 406q2 -4 3 -9t5 -4
q1 5 -2.5 9.5t-5.5 3.5zM184 329q-7 17 -14.5 32.5t-17.5 26.5q5 -14 13 -31t19 -28zM122 0q-27 0 -43.5 13.5t-23.5 33t-3.5 40.5t16.5 37q17 -32 34 -62.5t33 -60.5q-4 -1 -13 -1z" />
    <glyph glyph-name="numbersign" unicode="#" horiz-adv-x="391" 
d="M297 412q-6 2 -10 2q-2 -11 -4.5 -22.5t-4.5 -23.5q3 -1 6.5 -1.5t6.5 -1.5q16 -3 21.5 -15t2 -24t-14.5 -20.5t-27 -5.5q-3 0 -9 2q-2 -10 -3 -14q-3 -16 -15 -21.5t-24.5 -2t-21 14.5t-5.5 27q2 6 2 9q-11 3 -22.5 5.5t-23.5 4.5q-1 -4 -1.5 -7t-1.5 -7
q-3 -16 -15 -21.5t-24 -2t-20.5 14.5t-5.5 27q0 4 2 10q-10 2 -14 3q-16 3 -21.5 15t-2 24t14.5 20.5t27 5.5q3 0 9 -2q2 12 5 23.5t5 23.5q-4 1 -7 1t-7 1q-16 3 -21.5 15t-2 24.5t14.5 21t27 5.5q2 -1 5 -1t5 -1q1 4 1.5 7t1.5 7q3 16 15 21.5t24 2t20.5 -14.5t5.5 -27
q0 -4 -2 -10q12 -2 23.5 -4.5t22.5 -4.5q1 4 3 14q3 16 15 21t24.5 1.5t21 -14.5t5.5 -27q-1 -2 -1 -4.5t-1 -4.5q4 -1 7 -1.5t7 -1.5q16 -3 21.5 -15t2 -24.5t-14.5 -21t-27 -5.5zM211 382q2 11 4.5 23t5.5 23q-12 2 -23.5 5t-23.5 5q-2 -12 -4.5 -23.5t-4.5 -22.5
q11 -3 23 -5.5t23 -4.5z" />
    <glyph glyph-name="dollar" unicode="$" horiz-adv-x="600" 
d="M61 125q14 -27 26.5 -54t24.5 -53l2 -4l2 -4q-29 5 -48.5 23.5t-19.5 49.5q0 5 0.5 9t1.5 9q3 -5 5.5 -9t4.5 -8q-2 7 -4 12l-4 10q4 11 9 19zM439 288q-2 5 -3 9t-5 4q0 -8 3.5 -16t3.5 -13q-2 1 -4 3t-5 1q17 -42 42.5 -86.5t45.5 -92.5q-3 -3 -5 -7q-5 6 -8 12.5
t-7 12.5q-2 5 -3.5 13t-9.5 5q5 -13 10.5 -25t10.5 -25l-3.5 -3.5l-3.5 -3.5q-6 15 -13.5 28.5t-18.5 18.5q2 1 2 5q-6 24 -21.5 44.5t-23.5 41.5q5 -17 10 -28t13 -23q-2 -1 -4 -3q8 -15 11.5 -27.5t12.5 -16.5q1 -2 0 -2.5t-1 -2.5q4 0 9 -5q1 -5 6 -15.5t13 -14.5
q0 -1 0.5 -2t0.5 -2q-15 -14 -32 -25t-35 -19q-32 73 -67 133q18 7 30.5 19t11.5 32q-1 16 -18 27t-43 19q-3 -26 -6.5 -52.5t-6.5 -53.5q8 2 15 4t15 4l1 -1q-2 0 -2.5 0.5t0.5 -3.5q1 -5 7.5 -17t13.5 -24.5t12.5 -22.5t5.5 -11q0 -11 8 -25t15 -23q-4 1 0 -8
q-17 -8 -36 -12q-1 2 -2 3t-2 3q-15 33 -36.5 69.5t-41.5 78.5q3 0 5.5 -0.5t5.5 -0.5q-2 5 1 7.5t-1 8.5q-4 1 -5 -1t-5 -1q-5 -1 -2.5 -4.5t0.5 -5.5q-8 13 -17 20h1q-9 6 -1 0q-2 -2 -2.5 -3.5t-1.5 -3.5q14 -46 39 -88t44 -87q-5 -1 -8.5 -1.5t-8.5 -1.5q-1 2 -4 5
q-3 20 -15 27q-5 19 -19.5 39t-16.5 42q-6 2 -9.5 8t-6.5 13t-6 13.5t-7 9.5q-2 4 -1 6.5t-2 6.5q-3 1 -4 -0.5t-3 0.5q2 9 -2.5 19t-12.5 20l4 32l4 32q-4 1 -8 1.5t-7 1.5q-47 8 -78.5 27.5t-51.5 45.5t-29 56t-10.5 58t2.5 52t11 39q15 34 39 58.5t53.5 41t63 26
t69.5 14.5q0 5 2 13q3 24 19.5 34t34.5 7.5t32 -16t12 -36.5q23 -1 45.5 -3.5t43.5 -6.5q15 -3 26.5 -12.5t18.5 -22.5t9 -28t-2 -28q-8 -32 -35 -45t-56 -7q-28 6 -69 9q-5 -38 -9.5 -75t-9.5 -75q14 -3 27 -7t27 -9q54 -23 83.5 -57.5t40.5 -71.5t8.5 -72t-11.5 -60
q-22 45 -42 84.5t-45 80.5q-4 -1 -4 -4t-5 -3zM504 247q-2 5 -3.5 10t-6.5 4q2 -5 3.5 -10.5t6.5 -3.5zM83 488q2 0 6 2q-2 3 -0.5 4.5t-0.5 3.5q-2 0 -4 1t-5 0q2 -5 3 -6t1 -5zM263 425q4 31 7.5 61.5t8.5 61.5q-29 -8 -49.5 -26t-23.5 -48v-1q0 -14 6.5 -23t15.5 -14
t19 -7.5t16 -3.5zM400 227q2 -4 4 -9.5t6 -8.5q1 5 -2.5 10.5t-7.5 7.5zM420 265q2 -4 3 -9t6 -4q0 5 -3.5 9.5t-5.5 3.5zM461 183q-1 -2 1.5 -5.5l5 -7t3 -7.5t-3.5 -7q0 5 -3 8t-6 5q2 -8 4.5 -10.5t6 -3.5l7 -2t6.5 -4q-8 10 -10.5 19.5t-10.5 14.5zM461 188
q-8 17 -15 32.5t-17 26.5q5 -14 12.5 -31t19.5 -28zM228 148q2 13 3 25t3 25q21 -50 46.5 -98.5t52.5 -96.5q-6 -1 -12 -1.5t-13 -1.5v-4q-3 -23 -18.5 -33t-33.5 -8.5t-32.5 13.5t-14.5 33h-8t-9 1q-13 26 -27.5 53.5t-30.5 56.5q2 -11 11.5 -28.5t14.5 -28.5
q4 -14 7.5 -26.5t7.5 -25.5q-5 1 -9.5 1.5t-9.5 0.5q-14 38 -28 76.5t-28 73.5q10 4 22 3q26 -4 52.5 -6.5t53.5 -3.5zM125 129q0 -4 1 -8t6 -2q-2 3 -3 7t-4 3z" />
    <glyph glyph-name="ampersand" unicode="&#x26;" horiz-adv-x="638" 
d="M553 378q19 0 29 -12.5t10 -27.5t-10 -27.5t-29 -12.5h-11v-184q-2 3 -3.5 6t-3.5 6q-3 -1 -2.5 -3t-4.5 -2q-2 3 -3 6.5t-4 3.5q0 -7 3 -13t3 -11q-2 1 -3.5 3t-3.5 0q5 -11 10.5 -23t11.5 -24v-16q-5 11 -10.5 21.5t-11.5 18.5q3 -11 8.5 -23.5t13.5 -20.5v-30
q-7 12 -14.5 23.5t-12.5 23.5q4 -14 7.5 -23t11.5 -19q-2 0 -4 -2q4 -8 6.5 -15t5.5 -12v-95q0 -17 -6 -27q-20 48 -41 91t-45 81q3 -8 5.5 -15t7.5 -9q-3 0 -2 -2q1 -4 6 -14t11 -20t10.5 -18.5t4.5 -9.5q0 -8 7 -19.5t12 -19.5q-5 1 -0.5 -5.5t4.5 -11.5q1 -2 2.5 -1
t2.5 0q-2 -4 -1 -8t3 -8t4 -9t2 -10q-4 5 -7.5 11t-8.5 9q2 -8 4.5 -14.5t5.5 -14.5q-4 -4 -12 -7q-8 16 -16 31t-16 27q-11 25 -26.5 51.5t-31.5 57.5v7q-3 -2 -11 -4l-12 -2t-13 -2q4 8 4 11q7 4 11 12.5t5 12.5q3 4 7 4q0 2 -1 2.5t0 2.5q4 1 6 4t4 8v24q-8 -15 -11 -27
q-1 -3 1 -4q-11 -6 -18.5 -21t-12.5 -30q-2 0 -4.5 -0.5t-4.5 -0.5q7 15 13.5 30t12.5 30q-7 2 -8.5 -4t-3.5 -11q-5 -10 -11.5 -20.5t-13.5 -17.5q11 30 25.5 58t28.5 55q2 -1 3.5 -1t3.5 -1q-2 -5 -6 -13l6 6v180h-7q-20 0 -29.5 12.5t-9.5 27.5t9.5 27.5t29.5 12.5h7v52
q0 29 19 43.5t41.5 14.5t41.5 -14.5t19 -43.5v-52h11zM398 80q3 3 6 3.5t5.5 1.5t4.5 3.5t3 8.5l-4.5 -4.5t-1.5 -6.5q-4 3 -3.5 6t2.5 6t4 5.5t1 4.5q-7 -5 -9 -12.5t-8 -15.5zM504 56q1 3 -2 8t-6 7q2 -4 4 -8.5t4 -6.5zM520 91q0 4 -2.5 7.5t-4.5 3.5q2 -3 2.5 -7.5
t4.5 -3.5zM421 -75q12 -23 24.5 -44.5t24.5 -43.5q-20 3 -34.5 17t-14.5 40v31zM421 -22q14 -27 29.5 -55t23.5 -58q3 -5 8 -13.5t4 -15.5h-4q-6 15 -16 31t-18 27q-3 15 -12 22q-2 7 -6 14t-9 15v33zM210 133q5 -2 11 -2.5t11 -2.5q-15 -25 -29.5 -56t-33.5 -52h-1
q-2 1 -2.5 1.5t-2.5 1.5q9 25 23.5 47.5t19.5 48.5q-5 -3 -8 -9t-8 -11q0 5 2 10t4 9t3 8t-1 8q1 2 2.5 0.5t2.5 0.5v1q2 -1 3.5 -1.5t3.5 -1.5zM197 138q-5 -12 -10.5 -24t-10.5 -25q-4 -10 -6.5 -20t-7.5 -21q-2 -5 -5 -10.5t-5 -10.5q-8 4 -15.5 8t-15.5 9
q5 14 10.5 27.5t11.5 33.5q-9 -5 -17 -20.5t-10 -22.5q-4 -6 -6 -10q-17 13 -27 25q18 38 37 77t35 80q-6 2 -7.5 -4t-3.5 -11q-5 -10 -12 -20.5t-14 -17.5q17 46 41.5 88t39.5 81q-2 2 -3.5 0t-3.5 -3q1 4 2.5 8.5l3.5 10.5q11 -11 31 -16.5t52 -3.5q5 0 10.5 0.5t10.5 0.5
q24 -1 38 -14.5t18 -31.5q-6 -8 -11 -16.5t-3 -16.5q-2 -2 -2 -0.5t-3 0.5q-2 -3 -1.5 -5t-1.5 -6q-5 -4 -7.5 -12.5t-7.5 -16.5q-2 0 -3.5 -0.5t-3.5 -0.5q-2 -1 -12 -1q6 12 11 24t9 24q-2 5 -4 6q3 2 3.5 2.5t-3.5 -2.5q-2 -2 -6 -6.5t-7 -9.5q-2 2 0 4.5t-2 3.5
q-3 0 -4 1.5t-4 0.5q-3 -5 -0.5 -7t0.5 -6q6 0 9 1q-10 -21 -19 -37q-2 0 -3.5 0.5t-3.5 0.5q-18 1 -33 0q11 19 13 27q1 2 -2 2q5 2 7.5 9t5.5 15q-15 -24 -30 -53q-73 -5 -71 -53q1 -12 9.5 -21t19.5 -14zM325 261q-2 -2 -0.5 -3t-0.5 -3q4 -2 5 -2q0 3 1 3.5t3 5.5
q-3 1 -4.5 0t-3.5 -1zM223 311q-3 -2 -5.5 -7t-2.5 -8q3 2 4.5 6.5t3.5 8.5zM207 342q-2 0 -5 -3.5t-2 -7.5q3 -1 4 3.5t3 7.5zM200 327q-8 -10 -14 -22t-12 -26q9 8 15.5 22.5t10.5 25.5zM174 274q-8 -4 -10 -11.5t-7 -15.5q5 5 10.5 4.5t8.5 11.5q-8 -4 -7 -10
q-4 3 -3.5 6t2.5 6t4 5t2 4zM107 90q2 6 7 14t9.5 16t8 16.5t2.5 14.5q-2 1 -2.5 0t-1.5 0q-4 -11 -6.5 -17l-5 -12t-5 -13t-6.5 -19zM163 212q3 4 7 4q0 1 -0.5 1.5t-0.5 2.5q8 3 11 13.5t9 22.5q-2 2 -3 2q7 10 10.5 19t8.5 23q-7 -17 -19.5 -33.5t-17.5 -36.5q-1 -3 2 -4
q-12 -6 -20 -23t-13 -33q3 -2 6.5 5t3.5 12q8 4 11.5 12.5t4.5 12.5zM184 366q-26 -44 -47 -87.5t-47 -95.5q-8 -17 -15.5 -34.5t-14.5 -35.5q-6 14 -9 28q-10 51 9 88.5t54 62.5q-29 26 -44 62.5t-7 83.5q6 39 33 69.5t62 46.5q55 25 113 25t116 -11q24 -5 36 -28t6 -46
q-7 -26 -28.5 -36.5t-45.5 -5.5q-41 8 -74 7.5t-67 -12.5q-10 -5 -21 -12.5t-12 -26.5q1 -11 3.5 -21t10.5 -18q-2 -2 -2.5 -4t-1.5 -4q-5 0 -4.5 2t-2.5 3zM88 419q-1 4 0 4.5t3 5.5q-2 1 -3.5 0t-3.5 -1q-2 -2 -0.5 -3t-0.5 -4q1 0 5 -2zM147 338q-5 1 -6 -3t-3 -8
q5 -2 6 2.5t3 8.5zM70 165q2 1 4 3t5 1q-2 3 -2 5.5t-5 4.5q0 -5 -2 -4.5t-3 -2.5q3 -3 3 -7zM245 105q3 11 7 20q3 -1 6 -1t6 -1q-8 -11 -16 -25.5t-13 -28.5q-5 7 0.5 18t9.5 18zM360 290q1 -16 -5.5 -31t-20.5 -24q7 14 13.5 27.5t12.5 27.5zM378 130q2 0 4.5 0.5
t5.5 0.5q-14 -27 -27.5 -55t-29.5 -60q-2 -4 -3 -7t-3 -7q-6 0 -8 -1q2 2 4 1q-2 3 -2.5 5.5t-4.5 4.5q-1 -4 -3 -4t-3 -3q2 -2 3 -4q-25 -1 -50 0.5t-49 6.5q14 28 30 57t33 58q51 -3 103 7z" />
    <glyph glyph-name="quotesingle" unicode="'" horiz-adv-x="249" 
d="M92 621q7 26 21 39.5t28.5 17t28.5 -3t21.5 -21.5t7 -37.5t-14.5 -50.5q-17 -35 -45 -62t-64 -40q-22 -8 -25 5.5t4 38t18.5 56t19.5 58.5z" />
    <glyph glyph-name="parenleft" unicode="(" horiz-adv-x="331" 
d="M268 615q-30 -31 -52 -69t-36 -80t-22 -86t-9 -86q-2 -44 2 -88.5t15.5 -87t32 -81.5t52.5 -71q17 -17 14.5 -36.5t-15.5 -33t-32.5 -15.5t-36.5 15q-38 39 -64 86t-42 99t-22 106t-3 107t12.5 106t27 103.5t44.5 96.5t64 85q16 18 35.5 15.5t32.5 -15.5t15.5 -32.5
t-13.5 -37.5z" />
    <glyph glyph-name="parenright" unicode=")" horiz-adv-x="329" 
d="M60 615q-16 18 -13.5 37.5t15.5 32.5t32 15.5t36 -15.5q37 -39 64 -85t44.5 -96.5t27 -103.5t12.5 -106t-3 -107t-22 -106t-42 -99t-64 -86q-17 -17 -36.5 -15t-32.5 15.5t-15.5 33t14.5 36.5q31 32 52 71t32.5 81.5t15.5 87t2 88.5q-2 42 -9.5 86t-21.5 86t-36 80
t-52 69z" />
    <glyph glyph-name="asterisk" unicode="*" horiz-adv-x="321" 
d="M239 511q13 0 19.5 -8.5t6.5 -18.5t-6.5 -18.5t-19.5 -8.5h-24q4 -5 7 -8.5t7 -8.5q8 -10 6.5 -21t-9 -18t-17.5 -8t-18 9q-2 2 -3.5 4t-3.5 4v-8q0 -13 -8.5 -19.5t-18.5 -6.5t-18.5 6.5t-8.5 19.5v17l-12 -12q-9 -9 -20 -7.5t-18 8.5t-8 18t8 20l12 12h-17
q-13 0 -19.5 8.5t-6.5 18.5t6.5 18.5t19.5 8.5h24q-3 4 -6.5 8t-6.5 8q-9 10 -7 21t9 18.5t17 8.5t19 -9q4 -6 7 -9v8q0 13 8.5 19.5t18.5 6.5t18.5 -6.5t8.5 -19.5v-16q6 5 11 11q9 9 20 8t18.5 -8t8.5 -18t-8 -20l-12 -12h16v0z" />
    <glyph glyph-name="plus" unicode="+" horiz-adv-x="543" 
d="M419 296q24 0 40 -11t24 -27.5t8 -36t-8 -36t-24 -27.5t-40 -11h-75v-75q0 -24 -11 -40t-27.5 -24t-36 -8t-36 8t-27.5 24t-11 40v75h-75q-24 0 -40 11t-24 27.5t-8 36t8 36t24 27.5t40 11h75v75q0 24 11 40t27.5 24t36 8t36 -8t27.5 -24t11 -40v-75h75v0z" />
    <glyph glyph-name="comma" unicode="," horiz-adv-x="249" 
d="M48 60q-2 31 19 43t46 7.5t44.5 -24t14.5 -52.5q-7 -45 -28 -84.5t-52 -71.5q-17 -17 -36 -18t-32 8t-16 25.5t14 33.5q23 23 26 57t0 76z" />
    <glyph glyph-name="hyphen" unicode="-" horiz-adv-x="449" 
d="M328 304q36 0 54 -23t18 -51t-18 -51t-54 -23h-205q-36 0 -54 23t-18 51t18 51t54 23h205v0z" />
    <glyph glyph-name="period" unicode="." horiz-adv-x="276" 
d="M121 148q36 0 53.5 -23t17.5 -51t-17.5 -51t-53.5 -23t-54 23t-18 51t18 51t54 23z" />
    <glyph glyph-name="slash" unicode="/" horiz-adv-x="444" 
d="M293 661q8 22 26.5 29.5t36.5 3t29 -20t3 -38.5q-60 -178 -120.5 -354t-120.5 -354q-8 -23 -26.5 -30t-36.5 -2t-29.5 20t-3.5 38q61 178 121 354t121 354z" />
    <glyph glyph-name="zero" unicode="0" horiz-adv-x="599" 
d="M366 699q18 -47 40.5 -93t47 -91t49.5 -89.5t48 -87.5q-2 -61 -17 -120t-44.5 -106.5t-74.5 -78t-107 -33.5h-10h-9q-4 1 -12 1q-12 24 -26 49.5t-28 51.5q2 -11 11.5 -28.5t14.5 -28.5q3 -11 6 -21l6 -20q-5 1 -10 1.5t-10 2.5q-18 48 -34.5 93.5t-36.5 86.5
q-32 64 -58 117.5t-59 106.5q2 11 3.5 22t3.5 22q7 38 22.5 78t39 74t55.5 59.5t74 35.5q31 8 60 6t55 -10zM100 378q2 -5 3.5 -10.5t6.5 -3.5q-2 5 -3.5 10.5t-6.5 3.5zM172 478q2 1 3 1t3 1q-2 3 -0.5 4.5t-0.5 4.5q-2 -1 -4 0.5t-5 -0.5q2 -5 3 -6t1 -5zM194 166q0 5 4 8
q-1 4 -3.5 4t-3.5 5q-5 -2 -5.5 -5.5t-2.5 -6.5q4 1 6 -1.5t5 -3.5zM214 119q0 -4 1 -7.5t6 -2.5q-2 3 -2.5 7t-4.5 3zM290 149q26 -1 45 14t31.5 37.5t20 50t11 52.5t4.5 44.5t1 25.5q0 3 -1 18.5t-4 36t-9 44t-16.5 43.5t-26.5 33t-39 14q-25 0 -42.5 -13.5t-29.5 -34
t-19.5 -44.5t-11.5 -45t-5 -36t-1 -16q0 -7 -1 -25.5t1 -43t7 -51.5t15 -50t27 -38t43 -16zM103 232q-2 5 -3.5 13t-9.5 6q23 -59 50 -114t53 -110q-29 16 -51.5 40t-39 53.5t-27.5 63.5t-17 69q3 -7 6 -12t8 -7q1 -2 0 -3t-1 -3q5 0 8 -4q2 -5 6.5 -16t13.5 -15
q0 -6 4 -14.5t9 -6.5q-7 20 -16.5 40.5t-23.5 28.5q2 1 2 4q-3 12 -8.5 22.5t-12.5 21.5q-1 10 -1.5 19t-1.5 19q7 -14 16 -22q-4 9 -7.5 18t-8.5 17v19q20 -41 43.5 -84t40.5 -89q-8 8 -16 21t-15 25zM115 148q-1 -8 3 -18t10 -20t12 -19.5t9 -16.5q-5 14 -8.5 22.5
t-6.5 16l-6 15t-7 20.5q-2 0 -3 1t-3 -1zM64 286q1 -8 4 -10.5t6 -3.5t7 -2t7 -4q-8 11 -10.5 20t-10.5 14q-1 -2 1.5 -5t4.5 -6.5t2.5 -7.5t-3.5 -8q1 5 -2 8t-6 5zM397 641q3 15 -9.5 31t-21.5 27q46 -17 83 -53h-2q-4 -1 -1.5 -4.5t-0.5 -4.5q-4 6 -8.5 11t-7.5 8
q-5 4 -4 3.5t4 -3.5q-4 -1 -4 -7q7 -27 20 -52t26.5 -50.5t26 -51.5t20.5 -53q5 -9 12 -23t1 -22q-7 20 -20 42.5t-25 37.5q-3 19 -15 27q-2 9 -7.5 18.5t-11.5 19.5t-11 20.5t-6 21.5q-6 2 -9.5 8t-6.5 13t-5.5 13.5t-6.5 9.5q-2 5 -1.5 7t-1.5 7q-4 0 -4.5 -1.5t-2.5 0.5z
M446 633q3 0 6 -0.5t6 -0.5q-2 3 0 6q18 -20 33 -44t26 -51q8 -20 14.5 -41.5t10.5 -45.5q-5 8 -9 15.5t-9 13.5q-14 34 -36 70t-42 78z" />
    <glyph glyph-name="one" unicode="1" horiz-adv-x="427" 
d="M369 542q-2 5 -3.5 9t-4.5 4q-1 -9 2.5 -17t4.5 -13q-2 1 -4 3.5t-5 0.5q7 -17 18 -40v-18q-5 8 -9 15.5t-9 13.5q3 -9 7.5 -20t10.5 -22v-33q-7 11 -13.5 21.5t-11.5 21.5q5 -17 10 -28.5t14 -22.5q-3 -1 -4 -4q2 -3 2.5 -6t2.5 -6v-167q-24 57 -49 109.5t-54 97.5
q3 -8 6 -17t9 -11q-2 -1 -2.5 -0.5t0.5 -2.5q1 -5 7.5 -17t13.5 -24.5t12.5 -23t5.5 -11.5q0 -10 8 -24t15 -24q-6 1 -0.5 -6.5t5.5 -14.5q1 -2 3 -0.5t3 -0.5q-3 -5 -1.5 -9.5t4 -10t5 -11.5t2.5 -12q-5 5 -9 13t-10 12q4 -17 11 -32.5t15 -30.5v-33q-19 29 -35 63.5
t-33 58.5q-15 34 -36.5 70t-41.5 79q3 -1 5.5 -1.5t5.5 -0.5q-2 5 1 7.5t-1 8.5q-5 2 -5.5 0t-4.5 -2q-5 -1 -2.5 -4t0.5 -5q-5 6 -9.5 11t-7.5 8h1q-5 4 -4.5 3.5l3.5 -3.5q-2 -1 -4 -7l6 -18t7 -18q-3 -5 -6.5 -9.5t-6.5 -9.5q-5 9 -8.5 19.5t-9.5 14.5q-2 5 -1.5 7
t-1.5 7q-3 0 -4 -1.5t-3 0.5q2 7 -1 15.5t-8.5 16t-11.5 14.5t-10 13q11 -29 24 -58t28 -58q-4 -5 -7 -9.5t-6 -9.5q-17 -26 -45.5 -34.5t-56.5 7.5q-12 7 -21 19t-13 26t-2.5 29t10.5 27q20 31 51 74.5t61 84t52 69.5t25 31q15 15 37 19t42 -3t34 -24t14 -44v-85
q-3 -1 -3 -3.5t-5 -2.5zM330 481l4 -10t6 -8q0 4 -3.5 10t-6.5 8zM350 519q2 -4 3 -9.5t5 -3.5q1 4 -2.5 8.5t-5.5 4.5zM357 83q4 -1 5.5 -5.5t5.5 -5.5q2 -5 3.5 -8.5t3.5 -8.5q-6 -30 -29.5 -43.5t-49.5 -11.5t-46.5 20t-20.5 52v247q32 -61 65.5 -120t62.5 -116zM270 264
q-2 8 -5.5 15.5t-9.5 11.5q-2 12 -10.5 25t-15.5 27v42q18 -38 40 -76t34 -80q2 -5 5.5 -10.5t6 -11.5t3 -12t-2.5 -10q-7 20 -20 42t-25 37z" />
    <glyph glyph-name="two" unicode="2" horiz-adv-x="578" 
d="M474 295q-12 -19 -26 -37.5t-28 -35.5q-3 5 -5.5 9t-4.5 9q0 -7 7 -21q-3 -4 -6 -7t-6 -7q-11 32 -23 62.5t-26 57.5q-5 9 -8.5 17.5t-8.5 16.5q17 26 28.5 52.5t11.5 50.5q1 32 -11.5 52.5t-32.5 29.5t-43.5 7.5t-44.5 -14.5q-2 3 -3.5 6.5t-3.5 6.5q-4 -2 -3.5 -4.5
t-4.5 -2.5q-2 5 -3.5 9t-5.5 4q0 -9 3.5 -17t3.5 -13q-2 2 -3.5 4t-4.5 1l2 -6l2 -6q-4 -4 -6 -7q-2 8 -7 8q2 -2 2.5 -6t2.5 -6l-3 -3q-8 -14 -13 -36q-2 4 -4.5 8t-5.5 5q2 -4 4 -8.5t5 -8.5q-6 -31 -5 -63q0 -25 -13 -43q-11 23 -22.5 43.5t-24.5 40.5q4 -9 6.5 -18
t9.5 -11q-2 -1 -3 -0.5t0 -2.5q2 -7 12 -24.5t18 -32.5q-14 -16 -38 -22q-11 21 -23.5 43t-24.5 47q3 -1 6 -1t6 -1q-2 5 -1 14t-3 15q-2 0 -2.5 -2t-0.5 -5t-1 -5t-3 -2q-4 -1 -1.5 -4.5t-0.5 -5.5q-4 6 -8.5 11t-7.5 8q-5 4 -4 3.5t4 -3.5q-4 -1 -4 -7q8 -28 21.5 -54
t27.5 -52q-6 0 -12.5 1t-11.5 3q-5 9 -9.5 18.5t-5.5 19.5q-6 2 -9.5 8t-6.5 12.5t-5.5 13.5t-6.5 10q-2 4 -1.5 6.5t-1.5 6.5h-3q2 39 12 77t28 71.5t45 60.5t65 44q33 15 69 20t71.5 -0.5t68 -22t57.5 -44.5q53 -60 60.5 -135t-19.5 -146q-1 0 -1 -1q-11 -29 -30 -59z
M365 618q-2 3 -0.5 4.5t-0.5 3.5q-3 0 -5 1t-4 0q1 -5 2.5 -6t1.5 -6zM400 256q0 -3 1.5 -7t6.5 -3q-2 4 -3 8t-5 2zM219 84q4 -1 5.5 -5.5t5.5 -5.5q8 -20 19 -37.5t22 -35.5h-160q-27 0 -43 18.5t-20.5 42.5t3 47.5t26.5 33.5q46 22 86 48q15 -27 29 -53.5t27 -52.5z
M385 151q1 -2 1.5 -2.5t1.5 -2.5q8 -17 16 -35t10 -38q-5 3 -8 8.5t-6 12t-6.5 12t-8.5 7.5q5 -7 5 -14.5t3 -17.5q3 -12 10.5 -25t3.5 -24q-5 15 -13.5 24t-11.5 27q-5 -2 -6 1q-8 22 -23.5 47t-28.5 46q-2 4 -5 11.5t-7.5 16t-9.5 15.5t-11 10q8 -27 15 -45t15 -38
q-5 -17 3.5 -33t15.5 -30q-1 -4 -0.5 -8t-1.5 -7q7 -18 15.5 -35t18.5 -34h-14q-11 19 -23 37.5t-23 38.5q-14 23 -24.5 42.5t-19.5 41.5q-5 13 -9 25.5t-9 24.5q-4 8 -7 17t-7 17q41 34 71 72q17 -36 34 -71.5t34 -70.5l-12 -12t-12 -11h34zM302 286q-1 -8 3 -18t9.5 -20
t12 -19.5t9.5 -16.5q-5 14 -8.5 22.5t-6.5 15.5t-6 15t-8 21q-2 -1 -2.5 0t-2.5 0zM425 151q5 1 9.5 1h9.5q11 -38 25 -72.5t28 -66.5q-5 -4 -13 -7q-7 14 -13 27t-12 25q-1 2 0 3t1 3q-9 21 -18 43t-17 44zM457 151q22 -1 37 -11.5t23 -26.5t8.5 -35t-6.5 -35
q-13 25 -23 37q2 2 4 0t0 3t-5 1t-6 1q-7 16 -15 32.5t-17 33.5zM317 328l1 2q2 -4 3 -7q-3 3 -4 5zM179 201q3 -9 -1 -15q-2 3 -2.5 5.5t-2.5 5.5q2 1 3 2t3 2zM224 235q2 1 5 4q2 -5 3 -8.5t1 -8.5q-2 2 -4.5 5.5t-4.5 7.5zM79 343q-14 8 -22.5 23t-8.5 36v4
q8 -16 15.5 -31.5t15.5 -31.5zM218 230q10 -30 28 -58.5t26 -59.5q-20 17 -37 46.5t-32 59.5z" />
    <glyph glyph-name="three" unicode="3" horiz-adv-x="598" 
d="M372 120q-5 6 -9 14t-11 11q8 -31 25 -59.5t29 -58.5q-2 -1 -3.5 -1.5t-3.5 -1.5h-1q-12 13 -22 29.5t-19 34.5t-18 35.5t-18 32.5q7 2 13.5 3.5t13.5 3.5q2 0 8 2q1 -2 3 -1t3 -1q-3 -5 -1.5 -9.5t4 -10l5 -11t2.5 -12.5zM429 268q-3 5 -4.5 13t-9.5 5q20 -50 43 -97.5
t46 -94.5l-16 -16t-17 -15q-3 4 -7 12q-2 4 -5.5 11.5t-8 16t-9.5 15.5t-11 10q8 -24 14 -41t13 -34q-17 -11 -38 -21q-3 7 -6 13t-6 14q-5 12 -9 24.5t-9 24.5q-6 16 -12.5 31t-12.5 30q13 6 23.5 16.5t12.5 25.5q2 59 -87 65q-17 33 -38 65q4 -9 6.5 -18t9.5 -11
q-2 0 -3 0.5t0 -3.5q2 -4 6.5 -12.5t10.5 -19.5h-20t-21 -1h-9q-5 11 -11 22t-11 22q2 0 5 -0.5t6 -0.5q-2 5 1 7.5t-2 8.5q-4 1 -4.5 -1t-5.5 -1q-4 -1 -1.5 -4.5t-0.5 -5.5q-4 6 -8.5 11t-7.5 8v1q-4 3 -3.5 2.5l3.5 -3.5q-4 -1 -4 -6q9 -32 24 -60q-5 0 -9 0.5t-6 0.5
q-2 1 -4 1t-4 1q-6 8 -9.5 19.5t-9.5 16.5q-2 4 -1.5 6.5t-1.5 6.5q-4 1 -4.5 -0.5t-2.5 -0.5q2 11 -3.5 21.5t-13.5 19.5q5 23 22.5 39.5t47.5 16.5h12.5t12.5 -1q39 -2 63.5 4.5t38.5 20.5q2 -8 4 -13.5t3 -9.5q-2 1 -4 3t-5 1q9 -24 22 -49t26.5 -51t27 -53t23.5 -55
q-8 8 -16 21t-15 26zM202 309q2 1 3 1t3 1q-2 3 -0.5 4.5t-0.5 4.5q-3 -1 -5 0.5t-4 -0.5q1 -5 2.5 -5.5t1.5 -5.5zM392 336q0 -2 2.5 -5.5t4.5 -7t2.5 -7.5t-3.5 -7q1 5 -2 8t-6 5q1 -8 4 -10.5t6 -3.5t6.5 -2t6.5 -4q-7 10 -9.5 19t-11.5 15zM392 341q-7 17 -14.5 32.5
t-17.5 26.5q5 -14 13 -31.5t19 -27.5zM331 380q3 -4 5 -9.5t5 -8.5q1 5 -2.5 10.5t-7.5 7.5zM360 405q1 5 -2.5 9.5t-5.5 3.5q2 -4 3 -9t5 -4zM441 184q-1 -8 3 -18t10 -20t12 -19.5t9 -16.5q-5 14 -8.5 22.5t-6.5 15.5t-6 15t-8 21q-2 0 -2.5 0.5t-2.5 -0.5zM438 208
q-8 19 -17.5 39.5t-23.5 28.5q3 1 2 5q-5 24 -21 44.5t-24 41.5q5 -17 10 -28.5t14 -22.5q-4 -2 -4 -3q7 -15 11 -27.5t13 -16.5q0 -2 -1 -3t0 -3q4 1 8 -4q1 -5 6 -15.5t14 -14.5q0 -6 4 -14.5t9 -6.5zM465 358q43 -32 66 -77.5t12 -108.5q-3 -17 -11 -35q-9 23 -17.5 44.5
t-19.5 41.5q-32 64 -57.5 117.5t-58.5 107.5q-3 -2 -3 -4.5t-5 -2.5q-2 3 -2.5 6t-1.5 5q16 19 16 47q-1 23 -14.5 33t-25.5 16q-42 14 -82.5 14.5t-89.5 -9.5q-30 -5 -56.5 8t-34.5 44q-4 13 -2 28t9 28t18 22.5t26 12.5q71 14 142.5 13.5t137.5 -30.5q43 -20 76 -57.5
t41 -85.5q9 -57 -9.5 -101.5t-53.5 -76.5zM503 524q-2 0 -4 1t-5 0q2 -5 3 -6t1 -6l6 3q-2 3 -0.5 4.5t-0.5 3.5zM425 414q2 -5 4 -10.5t7 -3.5l-4 10t-7 4zM519 201q1 5 4 9q-1 4 -3.5 3.5t-2.5 4.5q-5 -2 -6 -5t-2 -7q4 2 5.5 -1t4.5 -4zM305 128q2 -4 5.5 -10t6 -12
t3 -12t-2.5 -10q-5 17 -15 34.5t-20 32.5q4 0 7.5 0.5t7.5 0.5l4 -12zM133 63q-3 5 -4.5 13t-9.5 6q8 -19 16 -37.5t16 -36.5q-3 0 -6 0.5t-6 0.5q-7 19 -16 37t-22 26q3 1 2 4q-4 17 -13.5 32.5t-19.5 30.5q4 3 7.5 6t7.5 5q4 -8 11 -14q-2 5 -3.5 8.5t-3.5 7.5q2 1 4 1.5
t4 1.5q17 -33 35 -67.5t32 -70.5q-8 8 -16.5 21t-14.5 25zM94 118q1 -8 4 -11t6 -4t6.5 -1.5t6.5 -4.5q-7 11 -9.5 20t-11.5 14q0 -2 2.5 -5t4.5 -6.5t2.5 -7.5t-3.5 -8q1 5 -2 8zM109 55q1 -5 6 -15.5t14 -15.5q0 -7 4 -14q-8 2 -15 3t-15 2q-15 3 -26.5 12.5t-18.5 22.5
t-9 27.5t2 28.5q6 19 16 30q6 -13 14 -24q-3 -1 -4 -4q8 -14 12 -26.5t13 -16.5q0 -2 -1 -3t-1 -3q6 0 9 -4zM164 355q8 -17 15.5 -34t15.5 -34q-17 11 -24.5 29.5t-6.5 38.5zM142 158q68 -12 126 -8q20 -36 39.5 -71.5t37.5 -69.5q-29 -6 -59.5 -8t-61.5 0q1 1 1.5 2t1.5 2
q-1 5 -3.5 4.5t-2.5 4.5q-5 -2 -6 -5.5t-3 -6.5q4 0 5 -1q-6 0 -10 1l-4 8t-4 9q-20 38 -36 73t-33 67q8 0 12 -1z" />
    <glyph glyph-name="four" unicode="4" horiz-adv-x="594" 
d="M253 450q0 26 13 42.5t32 23.5q38 -91 88.5 -179.5t94.5 -173.5h-11h-69v-59q-25 52 -47.5 97.5t-50.5 90.5q-4 -1 -3.5 -3.5t-5.5 -3.5q-2 5 -3 9t-5 5q0 -9 3.5 -17t3.5 -13q-2 1 -3.5 3t-4.5 1q9 -24 22 -49t26.5 -51t27 -52.5t23.5 -54.5q-8 8 -16.5 21t-14.5 25
q-3 5 -4.5 13t-9.5 6q11 -27 22.5 -53t23.5 -52q-6 -8 -10 -10q-2 2 -2.5 5.5t-2.5 6.5q-2 0 -2.5 1t-2.5 -1q-2 -8 3 -17q-18 -11 -39.5 -11.5t-39.5 9.5l-18 40l-18 40v74h-40q-4 5 -7 11t-7 11q2 -5 4 -11t5 -11h-51l-1 1q3 0 6 -0.5t5 -0.5q-2 5 1.5 7.5t-1.5 8.5
q-4 1 -4.5 -0.5t-5.5 -1.5q-4 -1 -2 -4.5t0 -5.5q-4 7 -8.5 12t-7.5 8q-5 4 -4 3.5t4 -3.5q-3 -2 -3.5 -3.5t-1.5 -3.5q2 -5 3 -9t3 -8h-8q-8 -2 -17 0q0 2 0.5 4t-1.5 5q-4 1 -4.5 -0.5t-2.5 0.5q1 7 -2 15.5t-8.5 16t-11.5 14.5t-10 13q7 -17 13.5 -33.5t14.5 -33.5
q-22 5 -38.5 22.5t-16.5 47.5v406q0 36 23 53.5t51 17.5t51 -17.5t23 -53.5v-329h57v139zM255 225q3 -5 5 -10.5t5 -7.5q1 4 -2.5 10t-7.5 8zM284 249q1 5 -2.5 9.5t-5.5 4.5q2 -4 2.5 -9.5t5.5 -4.5zM361 52q-7 20 -16.5 40.5t-23.5 28.5q3 1 2 4q-5 24 -21 44.5t-24 41.5
q5 -17 10 -28t13 -23q-1 0 -4 -3q8 -15 12 -27.5t13 -15.5q0 -2 -1 -3t-1 -3q6 0 9 -4q1 -5 6 -16t14 -15q0 -6 4 -14.5t8 -6.5zM316 180q-1 -2 1.5 -5t5 -6.5t3 -7.5t-3.5 -8q1 5 -2 8t-6 5q1 -8 4 -10.5t6 -3.5t6.5 -2t6.5 -4q-8 11 -10.5 20t-10.5 14zM316 185
q-8 17 -15 32.5t-17 26.5q5 -14 13 -31t19 -28zM360 244q-2 5 -4 10.5t-7 3.5q2 -5 4 -10.5t7 -3.5zM510 272q-5 6 -9.5 14t-10.5 12q6 -26 19 -49.5t25 -47.5q-2 -5 -8 -13q-20 27 -36 61t-33 62h13q14 0 29 -5q2 -8 6.5 -16t4.5 -18zM274 30q-5 1 -2 -3.5t6 -10.5
q-11 9 -18 22.5t-7 31.5q2 -10 9 -21t12 -19zM511 299q19 -12 26.5 -34t2.5 -44q-3 10 -6 19.5t-7 19.5q-5 10 -8.5 19.5t-7.5 19.5zM321 480q2 9 -3 19.5t-13 19.5q16 4 33 2t31 -11t23 -24t9 -36v-37q-8 14 -15.5 28.5t-15.5 30.5q3 0 6 -0.5t5 -0.5q-2 5 -3.5 3t-5.5 4
q-4 1 0 3.5t-1 3.5q-4 -1 -2 -4.5t0 -5.5q-4 7 -8.5 12t-7.5 8q-5 3 -4 3t4 -3q-3 -2 -3.5 -3.5t-1.5 -3.5q9 -29 23.5 -57t29.5 -56v-38l-6 6q-2 9 -7.5 18.5t-11.5 19.5t-11 20.5t-6 21.5q-6 2 -9.5 8t-6.5 13t-5.5 13.5t-6.5 9.5q-3 5 -2 7t-1 6q-4 1 -4.5 -0.5t-2.5 0.5
zM442 280q5 -8 12 -22t0 -22q-6 19 -17.5 39.5t-22.5 35.5h18q3 -8 5.5 -15.5t4.5 -15.5z" />
    <glyph glyph-name="five" unicode="5" 
d="M329 154q10 3 16 7q11 -24 24.5 -47.5t20.5 -49.5q-18 15 -32.5 39.5t-28.5 50.5zM293 146q3 0 5 1q0 -5 -3 -9q-2 6 -2 8zM408 322q-3 5 -4.5 13t-9.5 6q24 -62 53.5 -121t55.5 -117l-9 -12q-5 -5 -9 -9.5t-9 -9.5q-8 15 -17 29.5t-17 28.5q-2 4 -5 11.5t-7.5 16
t-9.5 15.5t-11 10q8 -27 14.5 -45.5t14.5 -37.5q-3 -13 1.5 -25.5t10.5 -23.5q-6 -4 -12 -7.5t-13 -7.5q-12 21 -21.5 39t-18.5 38q-5 12 -8.5 24.5t-8.5 24.5q-2 3 -2.5 5.5t-2.5 5.5q14 11 23 28t10 42q0 18 -7 33t-18.5 27t-25.5 20t-28 12q-8 2 -15.5 3t-15.5 2
q-16 30 -32 55q3 -8 6 -17.5t10 -11.5q-2 0 -3 0.5t0 -2.5q1 -6 11 -24q-12 1 -24.5 0.5t-24.5 -2.5l-18 36q3 0 5.5 -0.5t5.5 -0.5q-2 5 1 7.5t-1 8.5q-4 1 -5 -0.5t-5 -1.5q-4 -1 -2 -4.5t0 -5.5q-4 7 -8.5 12t-7.5 8q-5 4 -4.5 3.5t4.5 -3.5q-3 -1 -3.5 -3t-1.5 -4
q9 -27 22 -54q-5 -1 -10 -1.5t-10 -1.5q-6 8 -10 19.5t-9 16.5q-3 5 -2 7t-1 6q-4 1 -4.5 -0.5t-2.5 0.5q1 7 -2 15.5t-8.5 16t-11.5 14.5t-10 13q11 -28 23 -55.5t26 -55.5q-14 -3 -24 -5.5t-13 -3.5q-17 -5 -34 -1.5t-30.5 14t-21.5 25.5t-8 33q1 60 1 120t2 120
q0 12 3 25t11.5 24t23 18.5t38.5 7.5q73 1 146 0.5t146 -0.5q36 0 54 -22.5t18.5 -50t-17.5 -50t-54 -22.5h-222v-39.5t-1 -39.5q36 4 72.5 3.5t71.5 -7.5q9 -24 22 -48.5t26.5 -50t26.5 -51.5t23 -53q-8 8 -16.5 21t-14.5 25zM371 390q-1 -2 1.5 -5t5 -6.5t3 -7.5t-3.5 -8
q1 5 -2.5 8t-6.5 6q2 -8 4.5 -11t6 -4t7 -1.5t6.5 -4.5q-8 11 -10.5 20t-10.5 14zM371 395q-8 17 -15 32.5t-17 26.5q5 -14 13 -31t19 -28zM310 435l4 -10t6 -8q1 4 -2.5 10t-7.5 8zM339 459q1 5 -3 9.5t-6 4.5q2 -4 3 -9.5t6 -4.5zM419 238q-1 -8 3 -18t10 -20t12 -19.5
t9 -16.5q-5 14 -8 22.5t-6 16t-6 15.5t-8 21q-2 -1 -3 0t-3 -1zM416 262q-7 20 -16.5 40.5t-23.5 28.5q2 1 2 4q-6 24 -21.5 44.5t-23.5 41.5q5 -17 10 -28t13 -23q-1 0 -4 -3q8 -15 11.5 -27t12.5 -16q1 -2 0 -3t-1 -3q6 0 9 -4q1 -5 6 -16t14 -15q0 -6 3.5 -14.5t8.5 -6.5
zM538 294q5 -31 5 -60.5t-7 -57.5q-5 9 -8 17q0 -8 7 -22l-4 -12l-4 -12q-13 35 -26 68t-27 63q-27 54 -49 100.5t-48 91.5q8 -2 15 -4.5t15 -6.5q2 -2 3 -4t4 -1q0 2 -1 3q48 -22 82 -61t43 -102zM498 256q0 4 4 8q-1 5 -3.5 4.5t-3.5 4.5q-5 -2 -5.5 -5.5t-2.5 -6.5
q4 1 6 -1.5t5 -3.5zM518 209q0 -3 1 -7t6 -3q-2 3 -2.5 7t-4.5 3zM337 36q4 0 5.5 -4.5t5.5 -5.5q2 -4 3.5 -7.5t3.5 -7.5q-1 0 -1.5 -0.5t-2.5 -0.5q-20 -4 -42.5 -6.5t-45.5 -3.5q-22 45 -42.5 86t-46.5 82q-3 -1 -3 -3.5t-5 -2.5q-2 4 -3.5 8.5t-4.5 4.5q-1 -9 2.5 -17
t4.5 -13q-2 1 -4 3.5t-5 0.5q14 -35 34 -72t40 -77q-3 1 -10 1q-3 8 -10 6q2 -4 2 -5q-5 1 -9 1t-9 1q-7 23 -22 43t-23 40q5 -17 10 -28t14 -22q-3 -1 -4 -4q3 -7 5.5 -13.5t5.5 -12.5q-38 8 -68.5 26.5t-50.5 50.5q-18 30 -13 58.5t23 45.5t45 17t53 -27l12 -9
q17 -11 38.5 -16.5t36.5 -7.5q5 0 11 -0.5t13 0.5q15 -28 29.5 -55t27.5 -54zM126 101q3 -5 5 -10t5 -8q1 4 -2.5 10t-7.5 8zM147 139q2 -4 3 -9.5t5 -3.5q1 4 -2.5 8.5t-5.5 4.5zM187 56q0 -2 2.5 -5t4.5 -6.5t2.5 -7.5t-3.5 -7q1 5 -2 7.5t-6 5.5q1 -8 4 -11t6 -4
t6.5 -1.5t6.5 -4.5q-7 11 -9.5 20t-11.5 14zM187 62q-7 16 -14.5 31.5t-16.5 26.5q5 -14 12.5 -31t18.5 -27zM221 134q2 -5 3.5 -10.5t6.5 -3.5q-2 5 -3.5 10.5t-6.5 3.5z" />
    <glyph glyph-name="six" unicode="6" horiz-adv-x="599" 
d="M542 234q-5 6 -9 14t-10 11q3 -16 10 -31t15 -30q0 -3 -1 -4q-2 -12 -4 -21q-17 28 -31.5 59t-30.5 54q-15 33 -36.5 69.5t-41.5 78.5q2 0 5 -0.5t6 -0.5q-2 5 1 7.5t-1 8.5q-5 1 -5.5 -1t-5.5 -1q-4 -1 -1.5 -4.5t0.5 -5.5q-5 6 -9.5 11t-7.5 8l1 1q-5 3 -4.5 2.5
l3.5 -3.5q-4 -1 -4 -6q8 -27 20.5 -52t26.5 -50.5t26.5 -51.5t20.5 -54q2 -4 5.5 -10t6 -12t3 -12t-2.5 -10q-7 20 -20 42.5t-25 36.5q-2 9 -5.5 16.5t-9.5 10.5q-2 9 -7.5 19t-11.5 20t-11 20.5t-6 21.5q-6 2 -9.5 8t-6.5 13t-5.5 13.5t-6.5 9.5q-2 4 -1.5 6.5t-1.5 6.5
q-4 1 -4.5 -0.5t-2.5 -0.5q2 9 -2 18t-10 17q66 -9 115 -47q1 -1 1.5 -1t1.5 -1q1 0 1 -0.5t1 -0.5h-2.5t0.5 -3q1 -5 7.5 -17t13.5 -24.5t12.5 -22.5t5.5 -11q0 -11 8 -25t15 -23q-6 1 -0.5 -7t5.5 -14q1 -2 3 -1t3 -1q-3 -5 -1.5 -9.5t4 -10l5 -11t2.5 -12.5zM306 479
q7 0 13 -0.5t12 -1.5q19 -47 42.5 -93t48.5 -91.5t50 -90t47 -87.5q-35 -57 -97 -88t-130 -27q-5 1 -10 1t-10 1l-8 16l-8 16q0 -6 3.5 -14.5t8.5 -16.5q-5 1 -10 1.5t-10 1.5q-11 30 -22 58.5t-24 54.5q-32 64 -57.5 117t-58.5 107q-4 -1 -3.5 -3.5t-5.5 -2.5q-2 4 -3 8.5
t-5 4.5q0 -9 3.5 -17t3.5 -13q-2 1 -3.5 3.5t-5.5 0.5q9 -24 22 -49t27 -51t27.5 -52.5t23.5 -54.5q-8 8 -16.5 21t-14.5 25q-3 5 -4.5 13t-9.5 6q16 -41 34 -80t37 -77q-12 5 -24 14q-4 8 -7.5 16.5t-8.5 24.5q-2 -1 -2.5 0t-2.5 0q-2 -8 1.5 -16.5t8.5 -17.5
q-27 19 -47 43.5t-33 51t-20 53t-8 49.5q-4 92 12.5 178t61.5 150.5t122.5 100.5t195.5 30q36 -2 54 -26t18 -52t-18 -50t-54 -20q-53 3 -87 -3t-55 -17.5t-31.5 -27.5t-16.5 -33q27 6 54 6zM67 301q1 4 -3 8.5t-6 4.5q2 -4 3 -9.5t6 -3.5zM144 104q-7 19 -16.5 39.5
t-23.5 28.5q2 1 2 4q-6 24 -21.5 44.5t-23.5 41.5q5 -17 10 -28t13 -23q-3 0 -4 -3q8 -15 11.5 -27t12.5 -16q1 -2 0 -3t-1 -3q6 0 9 -4q1 -5 6 -16t14 -15q0 -5 3.5 -14t8.5 -6zM99 231q-1 -2 1.5 -5t5 -6.5t3 -7.5t-3.5 -8q1 5 -2 8t-7 6q2 -8 4.5 -11t6 -4t7 -1.5
t6.5 -4.5q-8 11 -10.5 20t-10.5 14zM99 236q-8 17 -15 32.5t-17 26.5q5 -14 13 -31t19 -28zM132 309q2 -5 3.5 -10.5t6.5 -3.5q-2 5 -3.5 10.5t-6.5 3.5zM200 420q2 -5 3.5 -5.5t0.5 -5.5q2 1 3.5 1t3.5 1q-2 3 -1 4.5t-1 4.5q-2 -1 -4 0.5t-5 -0.5zM246 50q0 -3 1 -7t6 -3
q-2 3 -2.5 7t-4.5 3zM410 242q0 22 -8 41.5t-22.5 34t-33.5 23t-40 8.5t-40 -8.5t-33 -23t-22 -34t-8 -41.5t8 -41.5t22 -34t33 -23t40 -8.5q22 0 45 10q1 -3 6 -3q1 3 0 6q23 14 38 39t15 55zM465 422q38 -32 60.5 -78t24.5 -100q-20 48 -41 93t-44 85z" />
    <glyph glyph-name="seven" unicode="7" horiz-adv-x="585" 
d="M211 163q0 5 -5 10q0 3 2 9q3 -5 6 -9.5t-3 -9.5zM464 376q36 0 54 -23t18 -51t-18 -51t-54 -23h-43t-43 1q-16 -38 -26 -77t-12 -81q-2 -23 -12 -39q-5 12 -10 23l-10 22q-32 64 -57.5 117t-58.5 107q-4 -1 -4 -3.5t-5 -2.5q-2 5 -3 9t-5 4q0 -9 3.5 -17t3.5 -13
q-2 1 -3.5 3.5t-5.5 0.5q5 -13 11.5 -26.5t13.5 -27.5h-5h-4q-4 7 -7.5 13.5t-8.5 11.5q2 -5 4.5 -11.5t5.5 -13.5q-32 2 -47.5 25t-14 50t19 49t52.5 24q23 1 46 1.5t46 0.5q1 1 7.5 14t15.5 31.5t20 40t20 40t15 31.5t7 14q-68 -4 -135.5 -4.5t-133.5 14.5q-35 8 -46.5 33
t-4 51t31 44.5t59.5 14.5q21 -2 48 -3t56 -1.5t58 0t55 1.5q26 -65 60 -128.5t69 -125.5q-8 -17 -17 -34.5t-18 -34.5h12zM164 272q2 -4 3 -9.5t6 -3.5q1 4 -3 8.5t-6 4.5zM238 268q2 -5 3.5 -11t6.5 -4q-2 5 -3.5 10.5t-6.5 4.5zM310 367q4 2 7 2q-2 3 -1 4.5t-1 4.5
q-2 -1 -4 0.5t-5 -0.5q2 -5 3 -5.5t1 -5.5zM241 121q-2 5 -3.5 13t-9.5 6q14 -35 29 -69t32 -67q-8 -3 -16 -3q-3 7 -6 15t-8 22q-2 -1 -3 0t-3 0q-1 -8 3 -18t10 -20q-14 0 -28 4t-24.5 13t-16.5 22.5t-5 31.5q0 17 2 33t4 33q7 -12 12 -14q1 -2 0 -3t-1 -3q5 0 9 -4
q1 -5 6 -15.5t14 -15.5q0 -5 3.5 -14t8.5 -6q-7 19 -16.5 39.5t-23.5 28.5q2 1 2 4q-3 13 -9 25q0 3 2 9q4 -8 9.5 -7.5t11.5 -5.5q-6 9 -9 17t-8 14q2 8 4 14q16 -30 32 -61.5t27 -63.5q-8 8 -16 21t-15 25zM381 661q2 9 -2.5 19t-12.5 19q26 1 46 1.5t31 1.5q16 4 32.5 2
t30.5 -10.5t22.5 -23.5t8.5 -37q0 -16 -2 -31.5t-5 -30.5q-14 28 -27.5 53.5t-29.5 49.5q4 -8 6.5 -17.5t9.5 -11.5q-2 0 -3 0.5t0 -2.5q1 -5 7.5 -17t14 -24.5t13 -23t5.5 -11.5q0 -3 2 -9l-8 -28t-9 -28q-2 2 -2 3q-15 33 -36.5 69.5t-41.5 78.5q2 0 5 -0.5t6 -0.5
q-2 5 1 7.5t-2 8.5q-4 1 -4.5 -1t-5.5 -1q-4 -1 -1.5 -4.5t-0.5 -5.5q-4 6 -8.5 11.5t-7.5 8.5q-4 3 -3.5 3t3.5 -3q-4 -2 -4 -7q7 -26 19 -50t25 -48t25.5 -48.5t20.5 -50.5q-1 -3 -2 -5.5t-3 -5.5q-6 10 -12 19t-12 17q-3 19 -15 27q-2 9 -7.5 18.5t-11.5 19.5t-11 20.5
t-6 21.5q-6 2 -9.5 8t-6.5 13t-5.5 13.5t-6.5 9.5q-2 4 -1.5 6.5t-1.5 6.5q-4 1 -4.5 -0.5t-2.5 0.5z" />
    <glyph glyph-name="eight" unicode="8" horiz-adv-x="598" 
d="M481 388q29 -28 45.5 -64t18.5 -81q-1 1 -1 2q-15 38 -30.5 73.5t-32.5 69.5zM527 257q-5 6 -9 14t-11 11q5 -20 14.5 -39.5t20.5 -39.5q-1 -6 -1.5 -11.5t-2.5 -11.5q-20 30 -37 66.5t-35 62.5q-15 33 -37 69t-42 79q3 0 6 -0.5t6 -0.5q-2 5 1 7.5t-2 8.5q-4 1 -4.5 -1
t-5.5 -1q-4 -1 -1.5 -4.5t-0.5 -5.5q-4 6 -8.5 11t-7.5 8v1q-4 3 -3.5 2.5l3.5 -3.5q-4 -1 -4 -6q8 -27 20.5 -52t26.5 -50.5t26.5 -51.5t20.5 -54q5 -8 11.5 -22t0.5 -22q-7 20 -20 42.5t-25 36.5q-3 18 -15 27q-2 9 -7.5 18.5t-11.5 20t-11 21t-6 21.5q-6 2 -9.5 8
t-6.5 13t-5.5 13.5t-6.5 9.5q-2 4 -1.5 6.5t-1.5 6.5q24 21 24 55q0 29 -19.5 49.5t-47.5 20.5t-47.5 -20.5t-19.5 -49.5t19.5 -50t47.5 -21q18 0 32 9q41 -88 90 -173t89 -166q-32 -57 -92 -89.5t-131 -29.5q-38 1 -72 12q-7 17 -13 32t-14 29q-32 64 -57.5 117.5
t-58.5 107.5q-4 -1 -3.5 -4t-4.5 -3q-2 4 -3 7t-3 5q11 35 31.5 60t45.5 45q-14 20 -21 51t-5 62q3 37 18 70.5t40 59t58 40t72 13.5t73 -16.5t58.5 -42t38 -61t12.5 -74.5q-2 -45 -20 -85q-8 14 -16 27l-16 26q4 -9 6.5 -18t9.5 -11h-3t0 -3q2 -4 6 -11.5t9 -17.5
q-1 -2 -2 -3.5t-2 -3.5q7 -5 13 -10q7 -11 11.5 -19.5t4.5 -9.5q0 -11 8 -25t14 -23q-5 1 0.5 -7t5.5 -14q1 -2 3 -1t3 -1q-3 -5 -1.5 -9.5t4 -10l5 -11t2.5 -12.5zM121 264q2 -5 4 -10.5t7 -3.5l-4 10t-7 4zM199 374q-3 0 -5 1t-4 0q1 -5 2.5 -6t0.5 -5q3 0 7 2
q-2 3 -0.5 4.5t-0.5 3.5zM346 97q2 2 1 4.5t-2 5.5q-5 -2 -6 -4q1 -6 7 -6zM300 346q-26 0 -48.5 -8.5t-39 -23.5t-26.5 -35t-10 -43t10 -42.5t26.5 -34.5t39 -23.5t48.5 -8.5t48.5 8.5t39.5 23.5t27 34.5t10 42.5t-10 43t-27 35t-39.5 23.5t-48.5 8.5zM125 118
q-3 5 -4.5 13t-9.5 6q9 -24 19.5 -47.5t21.5 -46.5q-5 3 -10.5 7t-10.5 8h3q-8 20 -17.5 40t-23.5 28q3 2 2 5q-5 24 -21 44.5t-24 41.5q5 -17 10 -28t13 -23q-1 0 -4 -3q8 -15 12 -27.5t13 -15.5q0 -2 -1 -3t-1 -3q6 0 9 -4q1 -5 6 -16t14 -15q0 -4 2 -9t4 -9
q-34 29 -55 69t-23 90q0 11 0.5 20.5t1.5 18.5q1 -4 5 -4q1 6 -4 11q2 8 3.5 15.5t3.5 15.5q2 -7 4 -12.5t2 -9.5q-2 1 -3.5 3t-4.5 1q9 -24 22 -49t26.5 -51t27 -52.5t23.5 -54.5q-8 8 -16.5 21t-14.5 25zM88 191q-8 17 -15 32.5t-17 26.5q5 -14 13 -31t19 -28zM86 172
q1 -8 4 -10.5t6 -3.5t6.5 -2t6.5 -4q-7 11 -9.5 20t-11.5 14q-1 -2 1.5 -5t5 -7t3 -7.5t-3.5 -7.5q1 5 -2 8t-6 5z" />
    <glyph glyph-name="nine" unicode="9" horiz-adv-x="604" 
d="M523 306q4 -1 5.5 -5.5t5.5 -5.5q-4 -16 -9 -30.5t-10 -28.5q-18 -51 -45.5 -94t-69.5 -76q-17 34 -33 65t-35 63q12 15 19 35q-14 -2 -27.5 -3.5t-27.5 -1.5q-59 0 -107 23t-80.5 62t-47.5 91t-6 109q7 47 32.5 84.5t62 62.5t80.5 36.5t89 8.5q20 -51 46 -101.5
t53 -100.5t54.5 -98.5t50.5 -94.5zM370 175q2 -5 3.5 -10.5t6.5 -3.5q-2 5 -3.5 10t-6.5 4zM296 354q21 0 40 8.5t33 23t22 34t8 41.5t-8 41.5t-22 34t-33 23t-40 8.5t-40 -8.5t-33 -23t-22 -34t-8 -41.5t8 -41.5t22 -34t33 -23t40 -8.5zM442 275q2 0 6 2q-2 3 -0.5 4.5
t-0.5 3.5q-2 0 -4 1t-5 0q2 -5 3 -6t1 -5zM537 444q-5 5 -9.5 13t-10.5 12q5 -21 14.5 -40t20.5 -39q-1 -6 -1.5 -12.5t-1.5 -12.5q-21 30 -38 67t-36 63q-15 34 -36.5 70t-41.5 79q3 -1 6 -1t5 -1q-2 5 1 7.5t-1 8.5q-4 2 -5 0t-5 -2q-4 -1 -2 -4t0 -5q-4 6 -8.5 11t-7.5 8
q-5 4 -4.5 3.5t4.5 -3.5q-3 -1 -3.5 -3t-1.5 -4q8 -27 21 -52t26.5 -50.5t26 -51t20.5 -53.5q5 -9 12 -22.5t0 -21.5q-6 20 -19.5 42t-24.5 37q-3 19 -15 27q-2 9 -7.5 18.5t-11.5 20t-11 21t-6 21.5q-6 2 -9.5 8t-6.5 12.5t-5.5 13t-6.5 9.5q-3 5 -2 7t-1 7q-4 0 -4.5 -1.5
t-2.5 0.5q2 13 -7 26t-18 24q47 -5 88 -25q8 -4 15.5 -9t15.5 -10q3 -7 6 -13t8 -8q-2 -1 -3 -0.5t0 -2.5q1 -5 7.5 -17t13.5 -24.5t13 -23t6 -11.5q-1 -10 7.5 -24t14.5 -23q-3 0 -2.5 -2t2.5 -5.5t4 -7.5t2 -7q1 -2 3 -0.5t3 -0.5q-3 -5 -1.5 -9.5t4 -10t5 -11.5t2.5 -12z
M553 459q0 -7 0.5 -13.5t0.5 -14.5v1q-25 62 -51.5 118.5t-56.5 104.5q47 -35 74.5 -86t32.5 -110zM304 170q2 1 3.5 2t3.5 2q14 -29 30.5 -60.5t33.5 -64.5q-2 -2 -3.5 -2.5t-3.5 -2.5q-3 5 -9 3l3 -6q-4 -2 -7.5 -4t-7.5 -4q-2 2 -6 4q3 2 2 5q-5 24 -21 44.5t-24 41.5
q5 -17 10 -28t14 -23q-2 -1 -4 -3q7 -14 11 -26.5t12 -16.5q-31 -14 -69 -22q-13 25 -25.5 48t-26.5 45q3 -8 5.5 -17.5t9.5 -11.5q-2 0 -3 0.5t1 -3.5q1 -3 4.5 -10.5t8.5 -16.5t10.5 -18.5t9.5 -16.5q-12 -2 -23.5 -3.5t-23.5 -3.5q-11 19 -21.5 38.5t-20.5 41.5
q2 0 5 -0.5t6 -0.5q-2 5 1 7.5t-1 8.5q-5 1 -5.5 -1t-5.5 -1q-4 -1 -1.5 -4.5t-0.5 -5.5q-4 6 -8.5 11.5t-7.5 8.5h1q-5 3 -4.5 3t3.5 -3q-4 -3 -4 -7q8 -26 19 -49.5t24 -47.5h-21q-5 8 -8 16t-4 16q-6 2 -9.5 8t-6.5 13t-5.5 13.5t-6.5 9.5q-2 4 -1.5 6.5t-1.5 6.5
q-4 1 -4.5 -0.5t-2.5 0.5q2 10 -4 21t-14 21q9 8 21.5 13.5t29.5 3.5q52 -2 85.5 3.5t54.5 16.5q2 -2 4 -2v4zM275 142q3 -5 5 -10.5t5 -7.5q1 4 -2.5 10t-7.5 8zM336 97q0 -2 2.5 -5.5t4.5 -7t2.5 -7.5t-3.5 -7q1 5 -2 8t-6 5q1 -8 4 -10.5t6 -3.5t6.5 -2t6.5 -4
q-7 11 -9.5 20t-11.5 14zM304 161q5 -14 13 -31t19 -28q-7 17 -14.5 32.5t-17.5 26.5zM160 0q-26 1 -42.5 15t-23.5 33.5t-4.5 40.5t14.5 36q28 -65 60 -125h-4z" />
    <glyph glyph-name="colon" unicode=":" horiz-adv-x="241" 
d="M120 148q36 0 53.5 -23t17.5 -51t-17.5 -51t-53.5 -23t-54 23t-18 51t18 51t54 23zM120 268q-36 0 -54 23t-18 51t18 51t54 23t53.5 -23t17.5 -51t-17.5 -51t-53.5 -23z" />
    <glyph glyph-name="semicolon" unicode=";" horiz-adv-x="250" 
d="M121 212q-36 0 -53.5 23t-17.5 51t17.5 51t53.5 23t54 -23t18 -51t-18 -51t-54 -23zM59 25q-2 31 19 42.5t45.5 7t44 -24t14.5 -51.5q-6 -45 -27 -84.5t-52 -71.5q-17 -17 -36 -18.5t-32 7.5t-16 25.5t14 33.5q22 23 25 57t1 77z" />
    <glyph glyph-name="less" unicode="&#x3c;" horiz-adv-x="462" 
d="M401 -21q15 -18 11.5 -38.5t-16.5 -33.5t-31.5 -14.5t-33.5 16.5q-72 88 -140 177t-137 179q-7 8 -7 27.5t11 34.5q63 85 118.5 174t116.5 175q14 19 34 21t36 -7t22.5 -27t-7.5 -37q-58 -81 -111.5 -165.5t-111.5 -166.5q61 -80 122 -158.5t124 -156.5z" />
    <glyph glyph-name="equal" unicode="=" horiz-adv-x="541" 
d="M121 244q-24 0 -40 11t-24 27.5t-8 36t8 36t24 27.5t40 11h299q24 0 40 -11t24 -27.5t8 -36t-8 -36t-24 -27.5t-40 -11h-299zM420 148q36 0 54 -23t18 -51t-18 -51t-54 -23h-299q-36 0 -54 23t-18 51t18 51t54 23h299z" />
    <glyph glyph-name="greater" unicode="&#x3e;" horiz-adv-x="465" 
d="M61 -21q63 78 124 156.5t122 158.5q-58 82 -111.5 166.5t-111.5 165.5q-14 19 -7.5 37t22.5 27t36 7t34 -21q61 -86 116.5 -175t118.5 -174q11 -15 11 -34.5t-7 -27.5q-69 -90 -137 -179t-140 -177q-15 -18 -33.5 -16.5t-31.5 14.5t-16.5 33.5t11.5 38.5z" />
    <glyph glyph-name="question" unicode="?" horiz-adv-x="527" 
d="M184 196q7 -15 14.5 -29.5t15.5 -28.5q-13 8 -21.5 22.5t-8.5 35.5zM315 63q-5 4 -7.5 9t-8.5 7q7 -22 19 -37q-1 -8 -5 -17q-14 19 -26 38.5t-25 33.5l-2 1q23 -2 36.5 -11.5t18.5 -23.5zM255 67q5 -7 11 -16t1 -15q-6 14 -18 29.5t-23 25.5v4q8 2 15 2q5 -8 8.5 -15
t5.5 -15zM253 -5q-27 0 -42.5 11.5t-20 27t2 31.5t23.5 25q17 -23 33.5 -45.5t30.5 -44.5q-12 -5 -27 -5zM408 673q30 -24 48 -58.5t24.5 -72t0 -75.5t-25.5 -70q-8 -14 -16 -24t-16 -19t-16.5 -18t-18.5 -21q-2 5 -3.5 9t-6.5 3q2 -5 3 -9.5t4 -5.5q-4 -5 -7.5 -9t-8.5 -9
q-8 17 -17.5 33t-19.5 33q-4 -1 -3.5 -3.5t-5.5 -2.5q-2 5 -3 5h-5q0 -9 3.5 -13t3.5 -9q-2 1 -3.5 3.5t-5.5 0.5q15 -36 36 -75q-2 -2 -2.5 -5t-2.5 -6q-7 17 -14.5 31.5t-16.5 25.5q5 -14 12.5 -30.5t18.5 -26.5l-4 -12t-4 -14q-8 13 -16 25.5t-13 24.5q5 -17 10 -28
t13 -22q-3 -1 -4 -4q2 -4 3.5 -8t3.5 -8q0 -2 -0.5 -5t-0.5 -6q-2 -23 -13 -39t-27 -24q-15 32 -31 62t-33 56q3 -8 6 -17t10 -11q-2 -1 -3 -0.5t0 -2.5q1 -5 7.5 -17t13.5 -24.5t13 -23t6 -11.5q-1 -4 3 -14q-20 -7 -43 -4q-13 23 -27 48.5t-28 54.5v1q2 0 5 -0.5t5 -0.5
q-2 5 1 7.5t-1 8.5q-4 1 -5 0t-4 -2q4 26 11.5 50t21.5 46q15 25 34.5 42t37.5 40q25 30 35.5 56t9 45.5t-14 33t-33.5 18.5q-25 7 -42 -2.5t-27.5 -29t-15.5 -46.5t-6 -55q-1 -30 -23 -52t-51 -22q-32 0 -52 22t-22 52q-3 36 2.5 72t20 69t38 60.5t56.5 45.5q58 32 123 29
t118 -46zM284 293l4 -10t6 -8q1 4 -2.5 10t-7.5 8zM304 331q2 -4 3 -9.5t6 -3.5q1 4 -3 8.5t-6 4.5zM450 405q4 2 7 2q-2 3 -1 4.5t-1 4.5q-2 -1 -4 0.5t-5 -0.5q2 -5 3.5 -5.5t0.5 -5.5z" />
    <glyph glyph-name="at" unicode="@" horiz-adv-x="904" 
d="M769 150q-2 4 -3.5 8t-4.5 5q-1 -9 2.5 -17t4.5 -13q-2 1 -4 3.5t-5 0.5q12 -30 29 -62t34 -66q-1 -4 -5 -14h-4l2 -4q-2 -5 -4 -8.5t-4 -8.5q-4 6 -12 11q3 1 2 4q-5 24 -21 44.5t-24 41.5q5 -17 10 -28t14 -23q-1 0 -4 -3q7 -15 11 -27t13 -16q0 -2 -1 -3t0 -3
q5 0 8 -4v-1q-17 -35 -42 -66q-2 -2 -6 -8q-16 35 -32 67.5t-33 61.5q23 40 33.5 84.5t8.5 92.5q-2 59 -20 114t-57 100q-33 38 -77 58t-93 27q-50 6 -97 -6.5t-86.5 -39.5t-69.5 -66.5t-45 -85.5q-17 -52 -16 -107.5t19 -107t52 -94t84 -68.5q34 -18 72.5 -25.5t77.5 -5
t75.5 15.5t68.5 36q15 -29 31 -58l32 -58q-45 -30 -96.5 -47t-105.5 -20t-108 8t-102 36q-71 37 -119.5 98t-74 134.5t-27 153t22.5 153.5q22 67 64.5 123.5t99 95t124 56.5t139.5 9q69 -9 132 -38.5t110 -83.5q57 -65 82.5 -143t28.5 -163q3 -76 -17 -150q-14 27 -28 53.5
t-31 52.5q-3 -1 -3 -3.5t-5 -2.5zM834 108q-2 5 -4 10.5t-7 3.5q2 -5 4 -10.5t7 -3.5zM729 89q3 -5 5 -10t5 -8q1 4 -2.5 10t-7.5 8zM750 127q2 -4 3 -9.5t5 -4.5q1 5 -2.5 9.5t-5.5 4.5zM790 44q0 -2 2.5 -5t4.5 -6.5t2.5 -7.5t-3.5 -8q1 5 -2 8l-6 6q1 -8 4 -11t6 -4
t6.5 -1.5t6.5 -4.5q-7 11 -9.5 20t-11.5 14zM790 49q-7 17 -14.5 32.5t-17.5 26.5q5 -14 13 -31t19 -28zM689 21v-1v1zM749 -106q-5 1 0 -8l-27 -27q-3 6 -6.5 11t-6.5 10q-11 23 -24.5 47t-27.5 50q5 5 11 13q5 7 9.5 13.5t9.5 13.5q1 -5 7.5 -17t13.5 -24.5t12.5 -22.5
t5.5 -11q0 -11 8 -25t15 -23zM629 -49q4 3 7.5 6t7.5 7q16 -30 31.5 -60t25.5 -62q-2 -2 -3.5 -3t-3.5 -3q-12 21 -24 36q-2 8 -5.5 15.5t-9.5 11.5q-3 12 -11 25t-15 27zM554 134q-4 10 -6 10q0 -7 2.5 -12.5t2.5 -9.5q-2 1 -3 2.5t-3 0.5q11 -26 26 -54t29 -58
q-2 -1 -3 -2t-3 -2q-2 4 -3 9t-6 3q1 -4 5 -14q-2 -1 -8 -3q-5 7 -11 10q2 1 2 3q-4 18 -15.5 33t-17.5 30q4 -13 7.5 -21t9.5 -16q-4 -2 -3 -2q5 -11 8 -20.5t10 -11.5q0 -2 -0.5 -2.5t-0.5 -2.5q1 1 5 -1q-29 -5 -49 14q-4 -2 -7.5 -3.5t-8.5 -2.5q-12 24 -29 50
q3 -6 5 -12.5t7 -8.5q-3 0 -2 -2q1 -4 5.5 -12t9.5 -17q-8 -2 -16.5 -4t-16.5 -3q-6 11 -12 21.5t-11 22.5q3 -1 8 -1q-2 4 0.5 5.5t-0.5 5.5q-3 2 -3.5 0.5t-3.5 -1.5q-3 -1 -1.5 -3t-0.5 -4q-3 5 -6.5 8.5l-5.5 5.5q-3 -2 -3 -5q5 -14 11 -28t14 -28q-5 -1 -15 -1
q-2 6 -2 10q-8 3 -11.5 15t-9.5 17q-2 3 -1 5t-1 5q-3 0 -3.5 -1t-1.5 0q2 11 -7.5 23t-15.5 20q18 -47 42 -93q-13 1 -25.5 3.5t-23.5 7.5q-62 25 -95.5 76.5t-27.5 120.5q3 32 14.5 61t31 51.5t45.5 38t59 20.5q61 9 114 -12q11 11 27 14.5t31 -1.5t25.5 -17.5t10.5 -32.5
v-276q0 -15 -4 -23q-14 28 -27.5 54.5t-30.5 52.5q-2 -1 -2 -3t-4 -2zM602 104q-2 4 -3 7.5t-5 3.5q2 -4 3 -8.5t5 -2.5zM514 247q-14 18 -38.5 25.5t-47.5 1.5t-40.5 -25.5t-17.5 -53.5q-1 -36 16.5 -56.5t41.5 -27.5t48 -1t38 24v113zM525 90q2 -3 3.5 -7t4.5 -6
q0 3 -2.5 7t-5.5 6zM540 118q2 -3 2.5 -7t3.5 -3q1 3 -1.5 6.5t-4.5 3.5zM570 57q-1 -3 5 -8.5t-1 -10.5q1 4 -1.5 5.5t-4.5 3.5q2 -11 7 -10.5t10 -3.5q-5 7 -7 13.5t-8 10.5zM570 61q-5 12 -10.5 23.5t-13.5 19.5q4 -10 10 -22.5t14 -20.5z" />
    <glyph glyph-name="A" unicode="A" horiz-adv-x="551" 
d="M350 144q14 -35 29 -69t28 -68q2 -4 2 -5q-13 2 -25 8.5t-21 16t-14 22t-4 26.5q1 6 1 11.5t1 10.5q3 -6 6 -11.5t5 -10.5q-4 11 -6 18.5t-4 13.5q0 10 0.5 19t1.5 18zM467 490q18 -50 25.5 -101.5t9 -104t-1.5 -105.5t-6 -104q-3 -32 -24 -53q-8 19 -17.5 38.5
t-18.5 39.5q0 -11 9 -29t14 -29l6 -27q-4 -2 -8 -4.5t-9 -4.5q-15 48 -29.5 94t-32.5 87q-15 33 -27.5 63t-25.5 58h20q0 4 -0.5 24t-5 47.5t-15 58.5t-30 57.5t-50.5 44t-76 18.5h-12.5t-20.5 -0.5t-21.5 -1t-15.5 -1.5q-30 -5 -56 7t-35 44q-4 13 -2 28.5t9 29t18.5 23
t26.5 11.5q67 10 136.5 6t130.5 -40q50 -29 83 -74.5t52 -99.5zM407 164q0 3 1 5t3 4q0 4 -3 3.5t-3 4.5q-5 -1 -6 -4.5t-3 -6.5q4 1 6 -1.5t5 -4.5zM425 117q0 -4 1 -8t6 -3q-2 4 -2.5 8t-4.5 3zM74 160q-33 1 -50 23.5t-18 49t15 49.5t48 26q29 -73 65 -144.5t70 -140.5
q-15 -16 -37 -20.5t-43 1.5t-35.5 23t-14.5 45v88zM320 235q-3 5 -4 13t-9 6q8 -24 17 -47.5t19 -46.5h-101q-17 42 -35 81t-38 73q3 -8 5.5 -17.5t9.5 -11.5q-2 0 -3 0.5t0 -2.5q1 -5 7 -17.5t12.5 -25.5t11.5 -23.5t5 -11.5q-1 -9 5.5 -22t12.5 -23h-13v-64
q-6 14 -12 25.5t-13 22.5q-14 34 -33.5 71t-37.5 81q6 -2 11 -2q-2 5 1 7.5t-1 8.5q-4 2 -4.5 0t-5.5 -1q-4 -1 -2 -4.5t0 -5.5q-8 13 -13 23.5t-10 20.5q11 1 9.5 7.5t-9.5 5.5q-2 -6 -1.5 -17.5t9.5 -19.5q-5 -1 -5 -7q6 -27 17.5 -53t24.5 -52t24.5 -52t17.5 -54
q4 -9 10.5 -23t-0.5 -22q-5 20 -17.5 43t-23.5 38q-2 20 -14 28q-2 9 -6.5 19t-10 20.5t-10 21t-5.5 21.5q-6 2 -9 8.5t-5.5 13.5t-5 13.5t-6.5 9.5q-2 5 -1 7t-1 7q-4 1 -4.5 -1t-2.5 0q1 10 -3 21v120q0 36 23 54t51 18t51 -18t23 -54v-138h36q4 -10 12 -23q-1 0 -4 -3
q7 -15 10.5 -27.5t12.5 -16.5q0 -2 -1 -3t-1 -3q5 0 8 -5q1 -5 5.5 -15.5t13.5 -15.5q0 -6 3.5 -15t8.5 -6q-7 19 -15.5 40.5t-22.5 29.5q3 1 2 4q-2 16 -10.5 30.5t-16.5 28.5h35q14 -29 27 -59t23 -62q-8 8 -15.5 21.5t-12.5 26.5zM283 291q1 -8 3.5 -11t5.5 -4t6.5 -2
t6.5 -5q-7 11 -9 20t-10 15q-1 -2 1.5 -5t4.5 -7t2.5 -8t-3.5 -7q1 5 -2 8z" />
    <glyph glyph-name="B" unicode="B" horiz-adv-x="631" 
d="M424 195q5 6 6 11l12 -26t11 -27q-8 7 -15.5 19t-13.5 23zM481 373q21 -15 39.5 -33t32 -40t20.5 -46.5t4 -51.5q-4 -38 -19.5 -67.5t-38.5 -51.5q-8 19 -15.5 37t-15.5 35q-32 64 -57.5 117.5t-58.5 106.5q-4 -1 -3.5 -3.5t-5.5 -2.5q-2 5 -3 9t-5 4q0 -9 3.5 -17
t3.5 -13q-2 1 -3.5 3.5t-5.5 0.5q8 -19 18 -39t21 -40l-7 3.5l-7 3.5q-5 10 -10 19t-12 16q3 -7 6 -15.5t7 -16.5q-15 7 -38 10q-2 2 -4 3q1 -1 1 -1.5t1 -1.5q-23 3 -50 2t-57 -8v-37q-5 9 -9 16.5t-9 15.5q-2 -10 4 -16q-3 -1 -3.5 -3t-1.5 -4q4 -12 8.5 -24t10.5 -23v-43
q-7 13 -8 26q-6 2 -9.5 8t-6.5 12.5t-5.5 13.5t-6.5 10q-3 4 -2 6t-1 7q-4 0 -4.5 -1.5t-2.5 0.5q1 8 -2 16t-8.5 16t-11.5 15t-10 12q16 -42 36 -83t42 -82v-16h8q18 -34 37 -67t36 -66q-41 -4 -79.5 -4.5t-72.5 1.5q-14 1 -27.5 6t-24.5 15.5t-18 25.5t-7 35v363
q0 36 23 53.5t51 17.5t51 -17.5t23 -53.5v-14q36 1 56 20t21 42t-18.5 42t-64.5 21q-23 1 -46.5 0.5t-46.5 -2.5q-15 -2 -28.5 4.5t-23.5 17t-16 24.5t-6 28q0 33 22 52t52 22q49 5 104.5 -1t102 -27.5t78 -61t33.5 -100.5q1 -60 -26 -107q37 -13 66 -33zM356 329
q1 4 -2.5 8.5t-5.5 4.5q2 -4 3 -9.5t5 -3.5zM266 136q9 -19 17.5 -37.5t13.5 -38.5q5 -8 12 -22t0 -22q-6 20 -19.5 42t-24.5 37q-3 19 -15 27q-1 4 -2 7t-3 7h21zM412 181l4 4l4 4q14 -34 30 -67.5t32 -65.5q-4 -2 -8 -4.5t-8 -4.5q-4 9 -6.5 15.5l-5 13t-5.5 14t-7 18.5
q-2 -1 -2.5 0t-2.5 0q-2 -13 8.5 -30.5t18.5 -31.5q-5 -2 -10.5 -5t-11.5 -5q-4 8 -9 14.5t-10 9.5q2 -8 4.5 -14.5t4.5 -13.5q-11 -4 -21.5 -7t-21.5 -6q-2 5 -3.5 10.5t-3.5 10.5q-11 27 -22.5 53t-22.5 51q21 5 38 13t29 17q2 -6 6.5 -12.5t10.5 -9.5q0 -5 4 -14t9 -6
q-5 12 -10 25t-12 24zM365 52q-5 5 -9.5 13t-10.5 12q4 -17 11 -32t15 -30q-5 -1 -9 -2l-8 -2q-14 25 -25.5 49.5t-25.5 42.5q-4 8 -7.5 16.5t-8.5 17.5q11 1 21 2t20 3q3 -7 7.5 -13t7.5 -11q-3 0 -2.5 -2t2.5 -5.5t4 -7.5t2 -7q1 -2 3 -0.5t3 -0.5q-3 -5 -1.5 -9.5t4 -10
t5 -11.5t2.5 -12z" />
    <glyph glyph-name="C" unicode="C" horiz-adv-x="588" 
d="M385 148q5 -1 10 -1h10q11 -40 25 -76t29 -70q-4 0 -7.5 -0.5t-7.5 -0.5q-12 22 -21 42q-1 2 0 3t1 3q-11 24 -20.5 49t-18.5 51zM341 154q2 -6 5 -12l6 -12q8 -17 16 -35t10 -38q-5 3 -8 8.5t-6 12t-6.5 12t-8.5 7.5q5 -7 5.5 -14.5t2.5 -17.5q4 -12 11.5 -25t2.5 -24
q-5 15 -13.5 24t-11.5 27q-5 -2 -6 1q-8 22 -23 47t-28 46q-2 3 -4 8l-4 10q21 -13 37.5 -18t19.5 -6q2 0 3 -1zM56 417q0 -2 1 -4t-1 -4q0 1 -0.5 1t-0.5 1q0 2 0.5 3t0.5 3zM304 68q-1 -4 -0.5 -7.5t-1.5 -7.5q8 -22 21 -46q-5 1 -9 2t-9 2q-8 12 -14.5 24.5t-14.5 24.5
q-14 23 -24.5 42.5t-19.5 42.5q-5 12 -9 24.5t-9 24.5q-26 65 -54 124t-60 109q4 -9 6.5 -18t9.5 -11q-2 0 -3 0.5t0 -3.5q1 -5 7.5 -17t14 -24.5t13 -22.5t5.5 -11q0 -11 8 -25t14 -23q-5 1 0.5 -7t5.5 -14q1 -2 3 -1t3 -1q-3 -5 -1.5 -9.5t4 -10l5 -11t2.5 -12.5
q-5 6 -9 14t-11 11q4 -18 12 -34.5t17 -33t17 -33t13 -34.5q-16 13 -29 33.5t-25 43.5t-23 45.5t-23 39.5q-15 33 -37 69.5t-42 78.5q3 0 4.5 6t-3.5 7q-2 0 -2 -2q11 54 36.5 102.5t65.5 86.5q60 57 136 81.5t157 19.5q30 -2 52 -22t22 -52q0 -14 -6 -28t-16 -24.5
t-23.5 -16.5t-28.5 -5q-17 1 -33 1t-33 -2q-6 -1 -19.5 -5t-31 -11.5t-37.5 -19.5t-38 -30q-4 9 -9 8q2 -3 2.5 -6.5t2.5 -5.5q-4 -4 -7.5 -8t-7.5 -9q-17 31 -36 63q-3 -2 -3 -4.5t-5 -2.5q-2 5 -3.5 9t-5.5 4q0 -8 3.5 -16t3.5 -13q-2 1 -3.5 3t-4.5 1q7 -18 15.5 -36
t18.5 -37q-2 -2 -2.5 -5t-2.5 -5q-7 15 -14 29t-16 25q5 -13 12 -29t17 -27q-5 -13 -8 -23q-8 12 -15 23.5t-12 22.5q5 -17 10 -28.5t14 -22.5q-3 -1 -5 -3q3 -3 3 -7q-5 -23 -5 -46q-1 -60 20 -97t47 -58q5 -17 10.5 -31t11.5 -29q-5 -17 3.5 -33t15.5 -30zM156 466
q3 -4 5 -9.5t5 -8.5q1 5 -2.5 10.5t-7.5 7.5zM185 491q1 5 -2.5 9.5t-5.5 3.5q2 -4 3 -9t5 -4zM465 150q15 1 28.5 -5t23.5 -16.5t16 -24.5t6 -28q0 -25 -13 -42t-33 -25q-8 17 -16.5 32t-16.5 23q2 2 4 0.5t0 3.5q-2 4 -5 0t-6 1q-8 18 -17.5 37.5t-20.5 40.5q23 0 50 3z
M183 68q3 0 4 -2.5t3 -4.5q-11 8 -21 16t-20 17q-45 44 -71 102.5t-30 121.5q35 -65 70.5 -127.5t64.5 -122.5zM97 249q-3 20 -15 27q-4 17 -16.5 34.5t-17.5 36.5q0 9 0.5 18t1.5 17q19 -42 43 -82.5t37 -85.5q5 -8 11.5 -22t0.5 -22q-7 20 -20 42.5t-25 36.5z" />
    <glyph glyph-name="D" unicode="D" horiz-adv-x="592" 
d="M360 221q4 -7 7 -13t5 -11q9 -35 20.5 -68t24.5 -63q-4 -2 -7 -5t-7 -5q-2 5 -4 8.5t-4 8.5q0 2 1 2.5t1 2.5q-14 31 -26 62.5t-24 63.5q8 10 13 17zM317 177q2 -5 3.5 -8.5t3.5 -8.5q8 -17 16 -35t10 -38q-5 3 -8 9l-6 12t-6 11.5t-8 7.5q5 -6 5 -14t2 -17
q4 -13 11.5 -25.5t2.5 -23.5q-5 14 -13 23.5t-12 26.5q-3 -1 -6 2q-10 27 -31 60q11 3 19.5 8t16.5 10zM435 598q51 -54 79.5 -122.5t27.5 -143.5q0 -68 -25 -134.5t-77 -112.5q-2 3 -4 5.5t-4 4.5q2 2 4 0t0 3q-2 4 -5 0t-6 1q-11 29 -28 60t-35 66q20 31 26.5 64t5.5 54
q-1 33 -13.5 64.5t-33.5 58.5t-48 48t-56 33q-20 8 -34.5 10.5t-30.5 3.5q0 1 -2 3q-2 0 -2 -1t-1 -2h-6q-2 4 -3 7t-4 3q0 -7 1 -10q-8 0 -17.5 -0.5t-20.5 -1.5q-31 -2 -52.5 21.5t-21.5 52.5q0 32 21.5 52.5t52.5 22.5q42 3 85 -2.5t83.5 -19t77 -35.5t66.5 -53zM276 98
q-1 -3 -0.5 -7t-1.5 -8q7 -18 16 -35t19 -34l-12 -3q-12 20 -24.5 39.5t-23.5 39.5q-9 16 -17 29.5t-15 27.5q11 1 20.5 1.5t18.5 2.5q0 -14 7.5 -27.5t12.5 -25.5zM156 99q4 -1 5.5 -5.5t5.5 -5.5q10 -23 23 -44.5t26 -43.5q-26 -1 -52.5 1t-53.5 7q-8 1 -18 7.5t-19 17
t-15 24.5t-6 30v203q27 -50 54 -97.5t50 -93.5zM52 355l28 -54t22 -56q5 -9 12 -23t0 -22q-7 20 -20 42.5t-24 37.5q-2 8 -6 15.5t-9 11.5q-2 4 -3 7v41zM200 439q-4 9 -10 13q-1 -2 1.5 -5t5 -6.5t3 -7.5t-4.5 -8q1 5 -2 8l-6 6q2 -10 5.5 -12t7.5 -4v-34q-2 1 -2.5 2
t-2.5 2q2 1 2 4q-6 24 -22 44.5t-24 41.5q5 -17 10 -28t14 -22q-3 -1 -4 -4q8 -14 11.5 -26.5t12.5 -16.5q1 -2 0 -3t-1 -3q4 0 6 -2v-193q-4 10 -6.5 19.5t-7.5 19.5q-26 66 -53.5 124.5t-59.5 108.5q3 -8 6 -17t9 -11q-2 -1 -2.5 -0.5t0.5 -2.5q1 -5 7.5 -17t13.5 -24.5
t12.5 -23t5.5 -11.5q0 -10 8 -24.5t15 -23.5q-6 1 -0.5 -6.5t6.5 -14.5q1 -2 2.5 -0.5t2.5 -0.5q-2 -5 -0.5 -10t4 -10t5 -11t2.5 -13q-5 6 -9.5 14t-10.5 12q7 -29 22.5 -56t27.5 -56v-3h2q2 -5 3.5 -10t3.5 -11q-16 13 -29 33.5t-25 43.5t-23.5 45.5t-23.5 39.5
q-11 25 -25.5 50.5t-30.5 54.5v59q0 27 13 43.5t32 23.5t40 4.5t37 -14.5q6 -13 12.5 -25t13.5 -26v-6v-13zM129 497l4 -10t6 -8q0 4 -3 10t-7 8zM158 516q5 -14 12.5 -31t18.5 -28q-7 17 -14.5 32.5t-16.5 26.5z" />
    <glyph glyph-name="E" unicode="E" horiz-adv-x="590" 
d="M263 148q14 -28 26 -55q8 -17 16 -35.5t10 -38.5q-5 3 -8 9t-6 12.5t-6 12t-8 7.5q4 -7 4.5 -14.5t2.5 -17.5q2 -7 6 -14t7 -14h-11q-4 6 -7.5 12.5t-5.5 17.5q-4 -3 -6 1q-8 22 -23 47t-28 46q-4 10 -11 24h48zM134 169q-5 6 -9 14t-10 11q8 -35 28 -67.5t31 -67.5
q-16 13 -29 33.5t-25 43t-23.5 45t-23.5 39.5q-7 15 -15 30t-16 31v96q2 -6 4.5 -10.5t6.5 -5.5q-2 -1 -3 -0.5t1 -2.5q1 -5 7.5 -17t13.5 -24.5t12.5 -23t5.5 -11.5q0 -10 8 -24t15 -23q-6 1 -0.5 -7t5.5 -15q1 -2 3 -0.5t3 -0.5q-3 -5 -1.5 -9.5t4 -10t5 -11.5t2.5 -12z
M328 148q2 -5 4.5 -9.5t4.5 -8.5q9 -35 20 -67.5t24 -62.5h-19q0 1 -2 5q0 2 1 3t0 3q-14 33 -27 67.5t-26 69.5h20zM241 31q-1 -4 -0.5 -8t-1.5 -7q3 -10 7 -16h-19q-4 6 -7 11.5t-7 11.5q-14 23 -24.5 42.5t-19.5 41.5q-5 13 -9 25.5t-9 24.5q-25 63 -51.5 120t-57.5 106
v65q0 34 21 51.5t47 19.5t49.5 -12t29.5 -44h-1q0 -2 2 -6v-9v-39q-23 47 -49 88q-3 -2 -3 -4.5t-5 -2.5q-2 5 -3.5 9t-4.5 4q-1 -9 2.5 -17t4.5 -13q-2 1 -4 3.5t-5 0.5q9 -24 22 -48.5t26.5 -50.5t27 -53t23.5 -55q-8 8 -16 21t-15 26q-2 5 -4 13t-10 5q9 -22 18 -43
t19 -42h-24v-102h12q5 -15 10 -27.5t10 -26.5q-5 -17 3.5 -33t15.5 -30zM154 384q0 -2 2.5 -5t4.5 -6.5t2.5 -7.5t-3.5 -7q1 5 -2 8t-6 5q1 -8 4 -10.5t6 -3.5t6.5 -2t6.5 -4q-7 10 -9.5 19t-11.5 14zM154 390q-7 17 -14.5 32.5t-16.5 26.5q5 -14 12.5 -31.5t18.5 -27.5z
M93 429q3 -4 5 -9.5t6 -8.5q0 4 -3.5 10t-7.5 8zM122 454q1 5 -2.5 9t-5.5 4q2 -4 3 -9t5 -4zM167 308q1 -5 6 -15.5t14 -14.5q0 -6 4 -15t9 -6q-8 19 -17.5 39.5t-23.5 28.5q3 1 2 4q-5 25 -21 45.5t-24 41.5q5 -17 10 -28.5t14 -22.5q-2 -1 -4 -3q7 -15 11 -27.5t13 -16.5
q1 -2 -0.5 -3t-0.5 -3q5 0 8 -4zM120 557q-36 0 -54 23t-18 51t18 51t54 23h292q36 0 54 -23t18 -51t-18 -51t-54 -23h-292zM469 148q36 0 53.5 -23t17.5 -51t-17.5 -51t-53.5 -23h-54q-5 8 -9 15t-9 12q2 2 4 0t0 3t-5 1t-6 1q-11 26 -26 55t-32 61h137zM121 31
q4 -1 5.5 -5.5t5.5 -5.5q2 -5 4.5 -10t4.5 -10h-21q-9 0 -22.5 4t-25.5 13t-21 24t-9 37q0 25 -0.5 50t-0.5 50q21 -38 41.5 -74.5t38.5 -72.5zM331 324q0 -23 -13.5 -42t-34.5 -27q1 2 3 4q-1 4 -7.5 2t-7.5 -6q3 1 6 -2q-2 -1 -4.5 -1t-5.5 -1q-2 5 -4.5 10.5t-5.5 10.5
q-17 35 -32 66t-29 60h61q30 0 52 -21.5t22 -52.5zM67 177q2 -4 5.5 -10t6 -12t3 -12t-2.5 -10q-6 17 -16.5 36t-21.5 34v37q17 -32 26 -63z" />
    <glyph glyph-name="F" unicode="F" horiz-adv-x="399" 
d="M434 702q36 0 54 -23t18 -51t-18 -51t-54 -23h-313q-36 0 -54 23t-18 51t18 51t54 23h313zM279 325q31 0 52.5 -22t21.5 -52t-21 -51.5t-51 -22.5q-5 14 -11 26.5t-12 25.5q-32 64 -57.5 117t-58.5 107q-4 -1 -3.5 -3.5t-4.5 -2.5q-2 4 -3.5 8t-5.5 5q0 -9 3.5 -17
t3.5 -13q-2 1 -3.5 3.5t-4.5 0.5q9 -24 22 -49t26.5 -51t27 -52.5t23.5 -54.5q-8 8 -16.5 21t-14.5 25q-3 5 -4.5 13t-9.5 6q11 -29 24 -58t27 -57h-15q-2 3 -2.5 6t-2.5 7q-2 -1 -2.5 0t-2.5 -1q-1 -6 1.5 -13.5t6.5 -15.5v-50q-4 8 -9 14.5t-10 9.5q5 -17 9.5 -30.5
t9.5 -25.5v-11q0 -31 -19 -50q-7 11 -12.5 22.5t-10.5 24.5q-5 12 -9 24.5t-9 24.5q-21 51 -42.5 99t-45.5 91v142q0 36 23 53.5t51 17.5t51 -17.5t23 -53.5v-120h67zM94 386q3 -5 5 -10.5t5 -7.5q1 4 -2.5 10t-7.5 8zM123 410q1 5 -2.5 9.5t-5.5 4.5q2 -4 3 -9.5t5 -4.5z
M201 213q-8 20 -17.5 40.5t-23.5 28.5q3 1 2 4q-5 24 -21 44.5t-24 41.5q5 -17 10 -28t14 -23q-2 0 -5 -3q8 -15 12 -27t13 -16q0 -2 -1 -3t-1 -3q6 0 9 -4q1 -5 6 -16t14 -15q0 -6 4 -14.5t9 -6.5zM155 341q0 -2 2.5 -5t4.5 -6.5t2.5 -7.5t-3.5 -8q1 5 -2 8l-6 6
q1 -8 4 -11t6 -4t6.5 -1.5t6.5 -4.5q-7 11 -9.5 20t-11.5 14zM155 346q-8 17 -15 32.5t-17 26.5q5 -14 13 -31t19 -28zM188 419q2 -5 4 -10.5t7 -3.5q-2 5 -4 10.5t-7 3.5zM64 95q14 -24 27 -48.5t25 -47.5q-22 6 -37 23t-15 45v28zM67 134q5 -9 12 -23t1 -22q-3 8 -7 17
t-9 18v20q1 -2 1.5 -5t1.5 -5zM135 125q-5 6 -9 14t-11 12q4 -18 12 -34.5t17 -33t17 -33.5t13 -35q-16 13 -29 33.5t-25 43.5t-23.5 45.5t-23.5 39.5q-2 5 -4.5 9.5t-4.5 9.5v92q9 -16 18 -31.5t9 -17.5q0 -11 8 -25t14 -23q-6 1 0 -6.5t6 -14.5q1 -2 3 -1t3 -1
q-3 -5 -1.5 -9.5t4 -10l5 -11t2.5 -12.5z" />
    <glyph glyph-name="G" unicode="G" horiz-adv-x="587" 
d="M110 211q-5 5 -9 13t-11 12q4 -18 12 -34.5t17 -33t17.5 -33t13.5 -34.5q-14 12 -26.5 29.5t-23.5 38t-21.5 41t-20.5 38.5q-12 50 -11 98q0 3 0.5 6t0.5 6q7 -13 12.5 -22.5t5.5 -11.5q0 -10 8 -24t15 -23q-6 1 -0.5 -7t5.5 -15q1 -2 3 -0.5t3 -0.5q-3 -5 -1.5 -9.5
t4 -10t5 -11.5t2.5 -12zM539 272q1 -22 1 -54.5t-0.5 -63.5t-1 -53t-0.5 -23q0 -33 -22 -51.5t-52 -22.5q-13 -2 -26 -3t-26 -1q-10 21 -19.5 39.5t-19.5 29.5q2 2 4 0t0 3q-2 4 -5 0.5t-6 1.5q-8 19 -18.5 39.5t-22.5 43.5q26 -7 66 -10v76h-56q-31 0 -52.5 21.5
t-21.5 52.5v2v2v1q2 29 23.5 49t50.5 20q32 0 65 0.5t65 -0.5q38 -1 55 -28t19 -71zM389 337q1 2 0 4.5t-2 5.5q-5 -2 -6 -4q1 -6 8 -6zM117 538q-3 -1 -3 -3.5t-5 -2.5q-1 2 -1.5 3.5t-1.5 3.5q27 42 63.5 75t80.5 55.5t95 33t105 6.5q30 -2 52 -22t22 -52q0 -14 -6 -27.5
t-16 -24t-23.5 -16.5t-28.5 -6q-64 1 -108.5 -17t-74 -45.5t-45 -59t-21.5 -58.5q-21 42 -40.5 80.5t-43.5 76.5zM241 615q-2 0 -4 1t-5 -1q2 -5 3 -5.5t1 -5.5q4 2 6 2q-2 3 -0.5 4.5t-0.5 4.5zM174 490q-2 5 -4 10.5t-7 4.5q2 -5 4 -11t7 -4zM292 170q8 -5 24 -10
q12 -45 27 -84t32 -76q-5 1 -8.5 1h-8.5q-6 12 -11.5 23.5t-10.5 22.5q0 2 1 3t0 3q-12 28 -23 57.5t-22 59.5zM153 377q25 -63 55.5 -122.5t56.5 -119.5q8 -17 16 -35.5t10 -38.5q-5 3 -8 9l-6 12t-6 11.5t-8 7.5q4 -6 4.5 -13.5t2.5 -17.5q4 -13 11.5 -25.5t2.5 -23.5
q-5 14 -13.5 23.5t-11.5 26.5q-4 -1 -6 2q-8 22 -23 47t-28 46q-2 4 -5.5 11.5t-8 16t-9.5 15.5t-11 10q8 -27 15 -45t15 -38q-5 -17 3.5 -33t15.5 -30q-1 -4 -0.5 -8t-1.5 -7q2 -5 4 -9.5t4 -9.5q-7 3 -14 6.5t-14 8.5q-2 3 -3 5.5t-3 5.5q-14 23 -24.5 42.5t-19.5 41.5
q-5 12 -9 24.5t-9 25.5q-19 46 -38 89t-40 83q2 26 8 50t14 47q2 -4 4 -8.5t4 -6.5q1 3 -1.5 8.5t-5.5 7.5q12 33 30 64q2 -5 3.5 -9.5t2.5 -8.5q-2 1 -4 3.5t-5 0.5q9 -23 21.5 -47.5t26 -50t26.5 -51.5t23 -53q0 -2 1 -3q-8 8 -16 20.5t-14 24.5q-3 5 -4.5 12.5t-9.5 5.5z
M130 426q0 -2 2.5 -5t4.5 -6.5t2.5 -7.5t-3.5 -7q1 5 -2 7.5t-6 5.5q1 -8 4 -11t6 -4t6.5 -1.5t6.5 -4.5q-7 11 -9.5 20t-11.5 14zM130 432q-7 16 -14.5 31.5t-17.5 26.5q5 -14 13 -31t19 -27zM98 496q1 4 -2.5 8.5t-5.5 4.5q2 -4 3 -9.5t5 -3.5zM163 319q0 -5 4 -14t9 -6
q-8 19 -17.5 39.5t-23.5 28.5q3 1 2 4q-5 25 -21 45.5t-24 41.5q5 -17 10 -28.5t14 -22.5q-3 -1 -4 -4q7 -14 11 -26.5t13 -16.5q0 -2 -1 -3t0 -3q5 0 8 -4q1 -5 6 -15.5t14 -15.5zM179 275q-1 -8 3 -18t10 -20.5t12 -20t9 -16.5q-5 14 -8.5 22.5t-6.5 16t-6 15.5t-8 21
q-2 -1 -2.5 0t-2.5 0z" />
    <glyph glyph-name="H" unicode="H" horiz-adv-x="602" 
d="M525 39q4 -1 5.5 -5.5t5.5 -5.5l1 -1q-14 -18 -37 -24t-44.5 0t-37 23t-15.5 46v192q32 -59 63.5 -115t58.5 -110zM308 357q36 0 53.5 -23t17.5 -51t-17.5 -51t-53.5 -23h-13q-20 41 -37 77t-37 71h87zM537 498q-2 5 -3 9t-5 4q-1 -9 3 -17t4 -13q-2 1 -4 3.5t-5 0.5
q5 -13 11 -25.5t13 -26.5v-19q-12 26 -24 43q4 -12 10 -26t14 -25v-35q-8 14 -17 26.5t-14 26.5q5 -17 10 -28.5t14 -22.5q-2 -1 -4 -3q4 -8 6.5 -15t4.5 -13v-167q-25 62 -51.5 118t-57.5 104q3 -8 6 -17t9 -11q-2 -1 -2.5 -0.5t0.5 -2.5q1 -5 7.5 -17t13.5 -24.5t12.5 -23
t5.5 -11.5q0 -10 8 -24t15 -23q-6 1 -0.5 -7t6.5 -15q1 -2 2.5 -0.5t3.5 -0.5q-5 -9 2.5 -19.5t7.5 -23.5q-5 6 -9.5 14t-10.5 11q5 -20 13.5 -38t18.5 -36v-31q-21 30 -38 67.5t-36 63.5q-14 32 -34 66.5t-40 73.5v8q5 0 7 -1q-2 5 1 8t-1 8q-3 1 -4 0.5l-3 -1.5v43
q5 3 5 8q-1 1 -5 1v190q0 36 23 54t51 18t51 -18t23 -54v-137q-4 6 -5 10q-4 -2 -4 -4.5t-5 -2.5zM498 437q2 -4 4 -9.5t6 -8.5q1 4 -2.5 10t-7.5 8zM518 475q2 -4 3 -9t6 -4q0 5 -3.5 9t-5.5 4zM439 220q-3 18 -15 27q-3 10 -9 20t-12 21v41q14 -27 29.5 -54.5t26.5 -56.5
q-4 0 -5 -3q1 -6 8 -6v2q3 -7 5 -13t4 -13q5 -8 12 -22t0 -22q-7 20 -20 42.5t-24 36.5zM84 126q-3 19 -15 27q-2 8 -7.5 17.5t-11.5 19.5v40q18 -34 36.5 -68t29.5 -71q5 -9 12 -23t0 -22q-7 20 -20 42.5t-24 37.5zM181 387q-2 1 -4 3.5t-5 0.5q17 -42 43 -87.5t46 -94.5
h-9l-12 21q-2 5 -3.5 13t-9.5 6q4 -11 7.5 -20.5t8.5 -19.5h-10q-5 10 -11 17.5t-13 12.5q2 1 2 4q-6 24 -21.5 44.5t-24.5 41.5q5 -17 10 -28t14 -23q-1 0 -4 -3q8 -15 11.5 -27t12.5 -16q1 -2 0 -3t-1 -3q5 0 8 -4q1 -2 2 -5.5t3 -7.5h-22v-134q-26 64 -53 121.5
t-59 106.5q3 -8 6 -17.5t9 -11.5q-2 0 -2.5 0.5t0.5 -2.5q1 -5 7.5 -17t13.5 -24.5t12.5 -23t5.5 -11.5q0 -10 8 -24.5t15 -23.5q-6 1 -0.5 -6.5t6.5 -14.5q1 -2 2.5 -0.5t3.5 -0.5q-5 -10 2.5 -20.5t7.5 -23.5q-5 6 -9.5 14t-10.5 12q4 -18 11.5 -34.5t16.5 -33.5
q-3 -8 -10 -15q-16 28 -30 57.5t-30 51.5q-14 31 -33 64t-39 71v13q2 -1 5 -1q-2 5 1 7.5t-1 8.5q-2 1 -3 0.5t-2 -0.5v44q3 3 3 6q-2 0 -3 1v284q0 24 11 40t27.5 24t36 8t36 -8t27.5 -24t11 -40v-235q-5 6 -8 13q-4 -1 -4 -3.5t-5 -2.5q-2 4 -3 8.5t-5 4.5q0 -9 3.5 -17
t3.5 -13zM143 343l4 -10t6 -8q1 4 -2.5 10t-7.5 8zM163 381q2 -4 3 -9.5t6 -3.5q0 4 -3.5 8.5t-5.5 4.5zM204 298q-1 -2 1.5 -5t5 -6.5t3 -7.5t-3.5 -8q0 5 -3 8l-6 6q1 -8 4 -11t6 -4t7 -1.5t7 -4.5q-8 11 -10.5 20t-10.5 14zM204 303q-8 17 -15 32.5t-17 26.5
q5 -14 12.5 -31t19.5 -28zM50 165q23 -42 46 -82.5t44 -81.5q-15 -3 -31 0t-29 12t-21.5 23.5t-8.5 35.5v93z" />
    <glyph glyph-name="I" unicode="I" horiz-adv-x="459" 
d="M195 75q-5 6 -9 14t-11 11q6 -26 20 -50t26 -50h-16q-20 30 -36.5 65.5t-34.5 61.5q-2 5 -5 10.5t-6 10.5h34v21q3 -8 7.5 -15.5t9.5 -12.5q-6 1 -0.5 -7t5.5 -15q1 -2 3 -0.5t3 -0.5q-3 -5 -1.5 -9.5t4 -10l5 -11t2.5 -12.5zM128 83q2 -4 5.5 -10t6 -12t3 -12t-2.5 -10
q-7 20 -20 42.5t-25 36.5q-1 6 -3.5 11.5t-5.5 10.5q4 2 8 3.5t9 2.5q8 -15 14 -30.5t11 -32.5zM336 148q24 0 39.5 -11t24 -27t8.5 -35.5t-8 -35.5l-13.5 27t-14.5 27q1 -11 11 -28.5t15 -28.5v-1q-5 -9 -15 -19q-13 35 -25 68t-26 64h4zM363 109q0 -3 1 -7t6 -3q-2 4 -3 8
t-4 2zM252 223q-3 5 -4.5 13t-9.5 5q25 -63 55 -122t56 -118q-4 -1 -13 -1h-31q-5 8 -9.5 15.5t-8.5 14.5q-2 4 -5.5 11.5t-8 16t-9.5 15.5t-11 10q8 -27 15 -45t15 -38h-47q-2 3 -3 6.5t-3 6.5q-5 13 -9 25.5t-9 24.5q-14 33 -27.5 65t-27.5 62v141q2 -4 3.5 -8t3.5 -6
q1 4 -1.5 9t-5.5 8v227h-36q-36 0 -53.5 23t-17.5 51t17.5 51t53.5 23h215q36 0 54 -23t18 -51t-18 -51t-54 -23h-31v-355q-27 54 -50.5 101.5t-52.5 95.5q-3 -2 -3 -4.5t-5 -2.5q-2 5 -3.5 9t-5.5 4q0 -9 3.5 -17t4.5 -13l-4 4t-5 1q9 -24 22 -49t26.5 -51t27 -53t23.5 -55
q-8 8 -16 21t-15 26zM259 355l-4 10t-7 4q2 -5 4 -10.5t7 -3.5zM215 291q0 -2 2.5 -5.5t4.5 -7t2.5 -7.5t-3.5 -7q1 5 -2 8t-6 5q1 -8 4 -10.5t6 -3.5t6.5 -2t6.5 -4q-7 10 -9.5 19t-11.5 15zM215 296q-7 17 -14.5 32.5t-17.5 26.5q5 -14 13 -31.5t19 -27.5zM183 360
q1 5 -2.5 9t-5.5 4q2 -4 3 -9t5 -4zM264 139q-1 -8 3 -18t10 -20t12 -19.5t9 -16.5q-5 14 -8.5 22.5t-6.5 15.5t-6 15t-8 21q-2 -1 -2.5 0t-2.5 0zM261 163q-8 19 -17.5 39.5t-23.5 28.5q3 1 2 5q-5 24 -21 44.5t-24 41.5q5 -17 10 -28.5t14 -22.5q-4 -2 -4 -3
q7 -15 11 -27.5t13 -16.5q0 -2 -1 -3t0 -3q4 1 8 -4q1 -5 6 -15.5t14 -14.5q0 -6 4 -15t9 -6zM121 0q-29 0 -46 15.5t-22.5 37t0 44t23.5 36.5q18 -34 37 -67.5t36 -65.5h-28z" />
    <glyph glyph-name="J" unicode="J" horiz-adv-x="555" 
d="M365 685q1 9 -4 22h31q1 -3 5 -7q-3 -1 -3.5 -3t-1.5 -4q8 -27 20.5 -52t26.5 -50.5t26.5 -51t20.5 -53.5q5 -8 12 -22t0 -22q-6 20 -19.5 42.5t-24.5 36.5q-3 18 -15 27q-5 18 -19.5 38.5t-16.5 42.5q-6 2 -9.5 8t-6.5 12.5t-5.5 13.5t-6.5 10q-3 4 -2 6t-1 7
q-4 1 -4.5 -1t-2.5 0zM126 203q-2 5 -4 13t-10 5q22 -56 48.5 -108.5t50.5 -105.5q-36 11 -64 33q-10 17 -19 23q1 -2 1.5 -5t1.5 -5q-39 37 -61 89t-20 107q0 19 8 33q6 -17 17 -31q-3 -1 -4 -4q8 -14 11.5 -26.5t12.5 -16.5q1 -2 -0.5 -3t-0.5 -3q5 0 8 -4q1 -5 6 -15.5
t14 -15.5q0 -5 4 -14t9 -6q-7 19 -17 39.5t-24 28.5q3 1 3 4q-5 20 -16.5 36.5t-20.5 33.5q2 5 5 8.5t6 7.5q5 -8 9 -14t9 -11q-6 15 -13 29q2 1 3.5 2t3.5 2q18 -36 39 -74t35 -79q-8 8 -16 21t-15 26zM138 119q-1 -8 3 -18t10 -20t12 -19.5t9 -16.5q-5 14 -8.5 22.5
t-6.5 15.5t-6 15t-7 21q-2 -1 -3 0t-3 0zM87 257q1 -8 4 -11t6 -3.5t7 -1.5t7 -4q-8 10 -10.5 19t-11.5 14q0 -2 2.5 -5t4.5 -6.5t2.5 -7.5t-3.5 -7q1 5 -2 7.5t-6 5.5zM348 707q34 -79 77.5 -156t83.5 -151q-2 -42 -7.5 -86.5t-16 -87.5t-27.5 -82t-41 -69.5t-57 -50
t-76 -23.5q-9 17 -18.5 35t-19.5 37q1 -11 11 -28.5t15 -28.5q1 -5 2 -8.5t2 -7.5h-14h-6q-16 42 -31 82.5t-32 75.5q-23 45 -42 84.5t-39 77.5q15 2 29.5 -1.5t26.5 -12.5t20 -23.5t10 -33.5q2 -32 9 -51t16 -28.5t18.5 -12.5t16.5 -4q24 -1 40.5 12t28 33.5t18.5 46.5
t10.5 51.5t4.5 48t2 36.5q2 42 1.5 87.5t-2.5 90.5h-184q-36 0 -53.5 23t-17.5 51t17.5 51t53.5 23h171zM237 89q0 -3 1 -7t6 -3q-2 4 -3 8t-4 2zM470 707q27 0 44.5 -15t24 -35.5t2.5 -42.5t-19 -36q-15 33 -31.5 63t-33.5 58l6 -18t10 -11q-2 -1 -3 -0.5t0 -2.5
q1 -5 7.5 -17t13.5 -24.5t13 -23t6 -11.5q-1 -4 1 -8.5t4 -9.5q-2 -2 -6 -4q0 -14 0.5 -31.5t1.5 -38.5q-5 8 -9.5 16t-9.5 15q-15 33 -36.5 69t-41.5 79q3 -1 5.5 -1t5.5 -1q-2 5 1 8t-1 8q-4 2 -5 0t-5 -1q-4 -1 -2 -4.5t0 -5.5q-8 12 -15 26h72z" />
    <glyph glyph-name="K" unicode="K" horiz-adv-x="594" 
d="M215 469q-2 15 3.5 29.5t17.5 24.5q45 37 90.5 73.5t90.5 73.5q24 19 53 21t52 -21q1 -1 1.5 -2t1.5 -2q-1 0 -2 0.5t-3 -0.5q2 -5 3 -6t1 -5q1 0 7 2q-2 2 -2 4q7 -11 11 -24t3.5 -26t-6 -25t-15.5 -21q-18 -14 -35.5 -28.5t-35.5 -28.5q-21 40 -45 81q-4 -1 -4 -4
t-5 -3q-2 5 -3 9t-5 4q0 -8 3.5 -16t3.5 -13q-2 1 -4 3t-5 1q8 -20 18.5 -40.5t21.5 -41.5l-24 -19q-6 10 -12 19.5t-10 19.5q7 -26 18 -43q-15 -12 -29.5 -23.5t-28.5 -23.5q-1 0 -1 -0.5t-1 -0.5q-9 17 -18 33.5t-19 31.5q3 -8 6 -17.5t9 -11.5q-2 0 -2.5 0.5t0.5 -3.5
q1 -5 6.5 -15t12.5 -22q-19 -13 -42 -16q-8 15 -16.5 31t-16.5 33q3 0 5.5 -0.5t5.5 -0.5q-2 5 1 7.5t-1 8.5q-4 1 -5 -1t-5 -1q-5 -1 -2.5 -4.5t0.5 -5.5q-4 6 -8.5 11.5t-7.5 8.5q-5 3 -4.5 3t4.5 -3q-3 -2 -3.5 -3.5t-1.5 -3.5q6 -20 14.5 -39.5t19.5 -38.5q-13 2 -23 9
v4q-6 2 -9.5 8t-6.5 13t-6 13.5t-7 9.5q-2 4 -1 6.5t-2 6.5h-1zM462 541q-2 5 -3.5 10t-6.5 4q2 -5 3.5 -10.5t6.5 -3.5zM419 482q-8 17 -15 32.5t-17 26.5q5 -14 12.5 -31t19.5 -28zM387 546q0 5 -3.5 9.5t-5.5 3.5q2 -4 3 -9t6 -4zM368 503q1 5 -2.5 10.5t-7.5 7.5
q2 -4 4 -9.5t6 -8.5zM363 269q8 -8 17 -15.5t18 -15.5q11 -22 22 -43t18 -44q-23 20 -40.5 53t-34.5 65zM505 123q-1 -4 -0.5 -7.5t-0.5 -7.5q6 -18 15 -34.5t18 -33.5q-2 -3 -3.5 -5.5t-3.5 -4.5q-14 21 -27 42t-25 43q-14 23 -24.5 42.5t-20.5 42.5l-3 9q14 -14 29 -27
t30 -27q4 -8 8.5 -16t7.5 -16zM385 123q4 -1 5.5 -5t5.5 -5q13 -31 30.5 -57.5t33.5 -55.5q-22 3 -41 19q-56 51 -111 100.5t-111 99.5v-147q0 -25 -12 -41q-29 59 -53 109t-56 101q-3 -1 -3 -4t-5 -3q-2 5 -3.5 9t-4.5 5q-1 -9 2.5 -17t4.5 -13q-2 1 -4 3t-5 1
q9 -24 22 -49t26.5 -51t27 -52.5t23.5 -54.5q-8 8 -16 21t-15 25q-2 5 -3.5 13t-9.5 5l16 -38l16 -38q-16 -5 -33 -2.5t-31 11t-23 23.5t-9 37v560q0 36 23 54t51 18t51 -18t23 -54v-128q-5 7 -10 12.5t-9 10.5q5 -11 9.5 -23t9.5 -23v-62q14 -13 27.5 -25t27.5 -25
q34 -63 69 -124.5t64 -121.5zM58 198q0 5 -3.5 9.5t-5.5 3.5q2 -3 3 -8.5t6 -4.5zM135 1q-7 20 -16.5 40t-23.5 28q2 1 2 5q-6 24 -22 44.5t-24 41.5q5 -17 10 -28t14 -23q-2 -1 -4 -3q8 -15 11.5 -27.5t12.5 -15.5q1 -2 0 -3t-1 -3q5 0 8 -5q2 -5 6.5 -15.5t13.5 -14.5
q0 -6 4 -14.5t9 -6.5zM90 129q-1 -2 1.5 -5.5t4.5 -7t2.5 -7.5t-3.5 -7q1 5 -2 8t-6 5q1 -8 4 -10.5t6 -3.5t7 -2t7 -4q-8 11 -10.5 20t-10.5 14zM89 134q-7 17 -14.5 32.5t-16.5 26.5q5 -14 12.5 -31t18.5 -28zM123 207q2 -5 3.5 -10.5t6.5 -3.5q-2 5 -3.5 10t-6.5 4z
M195 307q2 0 6 2q-2 3 -0.5 4.5t-0.5 3.5q-2 0 -4 1t-5 0q2 -5 3 -6t1 -5zM316 312q9 -22 15 -43q5 -8 12 -22t0 -22q-7 20 -20 42.5t-24 36.5q-3 20 -15 27q-1 4 -2 7t-3 7q9 -8 18 -16.5t19 -16.5z" />
    <glyph glyph-name="L" unicode="L" horiz-adv-x="600" 
d="M381 34q-4 -8 1 -16t8 -18h-5q-3 5 -6 9.5t-8 6.5q2 -4 2.5 -8t2.5 -8h-21q-7 12 -13 22.5t-12 20.5q-11 24 -26 50t-31 55h50q8 -15 16 -28.5t8 -15.5q0 -10 8 -24t15 -23q-6 1 -0.5 -7t5.5 -15q1 -2 3 -0.5t3 -0.5zM438 148q15 -37 32 -72.5t34 -70.5q-5 -2 -9 -3
t-9 -1q-5 15 -9 24.5t-12 29.5q-2 -1 -2.5 0t-2.5 0q-2 -11 6.5 -26t16.5 -29h-6h-78q-32 78 -68 148h77q4 -6 9 -8q0 -2 -1 -3t0 -3q4 1 8 -4q1 -5 6 -15.5t14 -14.5q0 -6 4 -15t9 -6q-8 19 -17.5 39.5t-23.5 28.5q1 0 2 1h20zM488 147q21 -3 34.5 -14.5t20 -27.5t6 -34.5
t-8.5 -33.5q-6 15 -12.5 29t-13.5 28t-13 27t-13 26zM219 148q19 -38 39 -74.5t41 -73.5h-134q-6 16 -12.5 31.5t-14.5 29.5q-25 51 -45.5 94t-43.5 85q0 100 0.5 199t0.5 199q0 36 23 54t51 18t51 -18t23 -54v-418q-5 11 -13.5 20.5t-14.5 16.5q7 -17 13.5 -33t14.5 -32
v-44h21zM68 252q2 -5 4 -10.5t7 -3.5l-4 10t-7 4zM72 106q-3 5 -4.5 13t-9.5 5q12 -31 26 -61.5t29 -60.5q-8 1 -19 6q-1 4 -5 14q-2 -1 -2.5 0t-2.5 0v-8q-14 9 -23.5 24.5t-10.5 39.5v13q2 -7 6.5 -14t11.5 -10q0 -6 4 -15t9 -6q-6 16 -13.5 33t-17.5 28q0 9 -0.5 18.5
t-0.5 18.5q4 -2 7 -4q-2 3 -3.5 6.5t-3.5 6.5v20q14 -27 28.5 -55.5t25.5 -58.5q-8 8 -16.5 21t-14.5 26zM253 148q18 -36 38.5 -72t31.5 -76h-9q-11 21 -23 34q-3 20 -15 27q-2 9 -7.5 18.5t-11.5 20t-11 21t-6 21.5q-3 1 -8 6h21zM479 92q-8 8 -16 21t-15 26
q-1 2 -1.5 4.5t-1.5 4.5h10q13 -26 24 -56z" />
    <glyph glyph-name="M" unicode="M" horiz-adv-x="614" 
d="M477 223q-2 5 -3.5 13t-9.5 5q20 -52 45 -102t48 -100q-11 -22 -31 -31q-4 6 -7.5 11.5t-6.5 10.5q-2 4 -5.5 11.5t-8 16t-9.5 15.5t-10 10q8 -26 14.5 -44t14.5 -37q-24 -6 -50 4q-1 2 -1.5 4t-1.5 4q-5 12 -9 24.5t-9 24.5q-5 14 -10.5 26.5t-10.5 25.5v172
q2 -4 4.5 -7.5t5.5 -8.5q-2 -1 -4 -3q8 -15 11.5 -27.5t12.5 -16.5q1 -2 0 -2.5t-1 -2.5q5 0 8 -5q2 -5 6.5 -15.5t13.5 -14.5q0 -6 4 -14.5t9 -6.5q-7 20 -16.5 40t-23.5 28q2 1 2 5q-4 17 -13.5 32t-18.5 29v39q5 -11 10.5 -22t13.5 -18q-5 14 -11 26t-13 23v23
q20 -45 47 -92.5t45 -98.5q-8 8 -16 21t-15 25zM489 139q-1 -8 3 -18t10 -20t12 -19.5t9 -16.5q-5 14 -8.5 22.5t-6.5 16l-6 15t-7 20.5q-2 0 -3 1t-3 -1zM438 277q1 -8 4 -10.5t6 -3.5t7 -2t7 -4q-8 11 -10.5 20t-10.5 14q-1 -2 1.5 -5.5l5 -7t3 -7.5t-3.5 -7q0 5 -3 8
t-6 5zM564 173q-5 -2 -5 -5t-2 -6q4 0 7 -3v-26q-5 12 -10 23l-10 22q-32 64 -57.5 118t-58.5 107q-4 -1 -4 -4t-5 -3q-1 2 -1.5 4.5t-1.5 4.5v6q-1 -1 -1 -1.5t-1 -1.5q-1 1 -1.5 1t-1.5 1v-7q-7 -13 -18.5 -30.5t-25.5 -33.5t-30.5 -27t-33.5 -11q-14 0 -25.5 5.5
t-22.5 14.5v1q11 2 22 5t13 12q-8 4 -17.5 0.5t-18.5 -5.5v-11q-22 20 -36.5 47t-21.5 44q0 -78 -0.5 -163t-0.5 -165q-1 3 -3 7q0 -6 3 -12v-12q0 -13 -3 -23q-13 35 -26 68.5t-28 63.5q-25 51 -46 95t-44 86v137.5t1 137.5q0 32 18.5 49t42.5 20.5t48.5 -6t37.5 -30.5
q25 -42 52.5 -81.5t53.5 -79.5q29 39 56 79t56 78q19 26 44.5 35t49 3.5t40 -23.5t16.5 -46v-459zM68 369q2 -5 4 -10.5t7 -3.5l-4 10t-7 4zM141 469q2 0 6 2q-2 3 -0.5 4.5t-0.5 3.5q-3 0 -5 1t-4 0q1 -5 2.5 -6t1.5 -5zM182 110q0 -4 1.5 -8t6.5 -2q-2 3 -3 7t-5 3z
M474 369q2 -5 3.5 -10.5t6.5 -3.5q-2 5 -3.5 10t-6.5 4zM546 469q2 0 6 2q-2 3 -0.5 4.5t-0.5 3.5q-2 0 -4 1t-5 0q2 -5 3 -6t1 -5zM416 388q2 -6 2 -8q-2 0 -2 1v7zM72 223q-3 5 -4.5 13t-9.5 5q23 -60 52 -117t55 -114q-8 -6 -18 -9t-20 -4q-11 18 -21 33q-2 4 -5 11.5
t-7.5 16t-9.5 15.5t-11 10q8 -26 15 -44.5t15 -38.5v-1q-23 5 -39.5 22.5t-16.5 47.5v146q1 0 1 -1q1 -5 6 -15.5t14 -14.5q0 -6 4 -14.5t9 -6.5q-7 17 -15 34.5t-19 28.5v36q6 -2 9 -5q-3 5 -5 8.5t-4 8.5v19q15 -28 30 -57t26 -59q-8 8 -16.5 21t-14.5 25zM84 139
q-1 -8 3 -18t9.5 -20t11.5 -19.5t9 -16.5q-5 14 -8 22.5t-6 16l-6 15t-8 20.5q-2 0 -2.5 1t-2.5 -1zM416 93q2 -4 3.5 -8.5t1.5 -9.5q-4 4 -5 7v11zM436 21q-15 15 -19 35q5 -9 9.5 -17.5t9.5 -17.5z" />
    <glyph glyph-name="N" unicode="N" horiz-adv-x="593" 
d="M547 458q-2 2 -3 2l3 -6v-141q-27 58 -59 107q4 -8 6.5 -17t9.5 -11q-2 -1 -3 -0.5t0 -2.5q1 -5 7.5 -17t14 -24.5t13 -23t5.5 -11.5q0 -9 6 -21v-80q-6 11 -12 21t-12 18q-14 34 -36 70t-42 79q3 -1 2 2t-3 1q-4 6 -8.5 11t-7.5 8q-5 4 -4 3.5t4 -3.5q-3 -1 -3.5 -3
t-1.5 -4q8 -27 21 -52t26.5 -50.5t26 -51t20.5 -53.5q5 -8 12 -22t1 -22q-7 20 -20 42.5t-25 36.5q-3 19 -15 27q-2 9 -7.5 18.5t-11.5 20t-11 21t-6 21.5q-6 2 -9.5 8t-6.5 12.5t-5.5 13.5t-6.5 10q-3 4 -2 6t-1 7q-3 0 -4 -1v232q0 36 23 54t51 18t51 -18t23 -54v-181z
M91 23q-5 6 -9 14t-11 12q6 -20 15 -40q-16 8 -26 24t-10 39v52q3 -9 9 -18.5t11 -16.5q-6 1 -0.5 -6.5t5.5 -14.5q1 -2 3 -0.5t3 -0.5q-3 -5 -1.5 -10t4 -10t5 -11t2.5 -13zM399 385q34 -71 73.5 -140t74.5 -136v-16q0 -38 -16.5 -60t-39 -29t-46.5 2t-40 34
q-53 86 -104 172t-103 173v-225q-26 53 -48.5 99t-51.5 92q-3 -1 -3 -3.5t-5 -2.5q-2 4 -3.5 8t-5.5 5q0 -9 3.5 -17t4.5 -13q-2 1 -4 3.5t-5 0.5q9 -24 22 -49t26.5 -51t27 -52.5t23.5 -54.5q-8 8 -16 21t-15 25q-3 5 -4.5 13t-9.5 6q14 -35 29.5 -69t32.5 -68
q-3 -12 -9 -21q-6 16 -10 25.5t-12 30.5q-2 -1 -2.5 0t-2.5 -1q-2 -12 7.5 -28t17.5 -30q-8 -11 -18 -17q-5 7 -9 12t-9 8q2 -7 4 -13.5t4 -11.5q-21 -9 -45 -6q-1 2 -1.5 5t-2.5 5q-14 35 -28.5 68t-29.5 65v495q0 27 17.5 45t41.5 23.5t49.5 -4t41.5 -36.5
q50 -83 99.5 -165t99.5 -165v48zM50 284q3 -5 5 -10t5 -8q1 4 -2.5 10t-7.5 8zM79 308q1 5 -2.5 9.5t-5.5 4.5q2 -4 3 -9.5t5 -4.5zM157 112q-8 19 -17.5 39.5t-23.5 28.5q3 1 2 4q-5 24 -21 44.5t-24 41.5q5 -17 10 -28t14 -23q-4 0 -4 -3q7 -15 11 -27t13 -16q0 -2 -1 -3
t-1 -3q6 0 9 -4q1 -5 6 -16t14 -15q0 -6 4 -14.5t9 -5.5zM111 239q0 -2 2.5 -5t4.5 -6.5t2.5 -7.5t-3.5 -8q1 5 -2 8l-6 6q1 -8 4 -11t6 -4t6.5 -1.5t6.5 -4.5q-7 11 -9.5 20t-11.5 14zM111 244q-7 17 -14.5 32.5t-17.5 26.5q5 -14 13 -31t19 -28zM144 317q2 -5 4 -10.5
t7 -3.5q-2 5 -4 10.5t-7 3.5zM217 417q2 1 3 1t3 1q-2 3 -0.5 4.5t-0.5 4.5q-2 -1 -4 0.5t-5 -0.5q2 -5 3 -5.5t1 -5.5zM370 150q1 2 0 4.5t-2 5.5q-5 -2 -6 -4q1 -6 8 -6z" />
    <glyph glyph-name="O" unicode="O" horiz-adv-x="601" 
d="M397 306q13 -24 25 -49t20 -52q2 -4 5.5 -10t6 -12t3 -12t-2.5 -10q-7 20 -20 42.5t-25 36.5q-2 9 -5.5 16.5t-9.5 10.5q0 3 -2 9q2 8 2.5 15.5t2.5 14.5zM87 272q25 -63 55 -122.5t57 -119.5l3 -9q-48 25 -79 66q-3 7 -7 12.5t-8 10.5q-23 37 -36.5 80.5t-18.5 90.5
q4 -10 7 -17t10 -9q0 -2 -1 -3t-1 -3q5 1 9 -4q1 -5 6 -15.5t14 -14.5q0 -6 4 -15t8 -6q-7 19 -16.5 39.5t-23.5 28.5q3 1 2 4q-3 12 -8.5 23t-12.5 22q-1 9 -1 17.5v17.5q7 -12 15 -19q-4 8 -7.5 16t-7.5 16v8.5t1 8.5q19 -40 42 -82t40 -87q-8 8 -16.5 21t-14.5 26
q-3 5 -4.5 13t-9.5 5zM62 308q1 -8 4 -10.5t6 -3.5t6.5 -2t6.5 -4q-8 10 -10.5 19t-10.5 14q-1 -2 1.5 -5t5 -6.5t3 -7.5t-3.5 -7q1 5 -2 8t-6 5zM113 170q-1 -8 3 -18t9.5 -20t11.5 -19.5t9 -16.5q-5 14 -8 22.5t-6 15.5t-6 15t-8 21q-2 -1 -2.5 0t-2.5 0zM534 353q3 1 2 5
q-5 24 -21 44.5t-24 41.5q5 -17 10 -28t14 -23q-2 -1 -4 -3q7 -15 11 -27.5t13 -16.5q0 -2 -1 -2.5t0 -2.5q5 0 8 -5q1 -2 2.5 -7t4.5 -10q-2 -33 -8 -66t-17 -64q-26 64 -53 122t-58 107q3 -8 6 -17.5t9 -11.5q-2 0 -3 0.5t1 -3.5q1 -5 7.5 -17t13.5 -24.5t12.5 -22.5
t5.5 -11q0 -11 8 -25t15 -23q-6 1 -0.5 -7t5.5 -14q1 -2 3 -1t3 -1q-3 -5 -1.5 -9.5t4 -10l5 -11t2.5 -12.5q-5 6 -9 14t-10 11q3 -16 9.5 -30.5t14.5 -29.5q-3 -9 -8 -19q-16 27 -29.5 56t-28.5 50q-10 21 -22 43t-26 46q2 13 2 22v13q0 3 -1 18.5t-4 36t-9 44t-16.5 43.5
t-26.5 33t-39 14q-25 0 -42.5 -13.5t-29.5 -34t-19.5 -44.5t-11.5 -45t-5 -36t-1 -16q-1 -7 -1.5 -25.5t1.5 -43t7 -51.5t15 -50t27 -38t43 -16q21 0 37 9t28 24.5t20 35.5t14 41q23 -42 46 -83t43 -81q-29 -41 -71 -66.5t-99 -28.5h-10h-9q-2 0 -3 1q-14 28 -30.5 59
t-33.5 64q1 -11 11 -28.5t15 -28.5q4 -17 9 -33t10 -31q-5 0 -9.5 1t-9.5 2q-20 53 -38.5 105.5t-41.5 97.5q-31 63 -56 115t-57 104q2 7 2.5 14t2.5 14q7 38 22.5 78t39 74t55.5 59.5t74 35.5q46 11 87.5 3t75.5 -30.5t60 -57t43 -75.5q8 -18 15 -43q-4 6 -7.5 12t-7.5 13
q-3 -1 -3 -4t-5 -3q-2 5 -3.5 9t-4.5 4q-1 -8 2.5 -16t4.5 -13q-2 1 -4 3t-5 1q10 -25 23 -50.5t27 -51.5q1 -6 1 -12v-11q-6 10 -9 18.5t-11 13.5q0 -2 2.5 -5.5t4.5 -7t2.5 -7.5t-3.5 -7q1 5 -2 8t-6 5q1 -7 3.5 -10t5.5 -4t6.5 -1.5t6.5 -3.5q1 -11 1 -20.5v-20.5
q-9 10 -16 14zM97 400q2 -5 4 -10.5t7 -3.5l-4 10t-7 4zM218 130l-2 8t-5 2q0 -3 1.5 -7t5.5 -3zM169 499q3 1 7 3q-2 3 -0.5 4.5t-0.5 3.5q-3 0 -5 1t-5 -1q2 -5 3.5 -5.5t0.5 -5.5zM191 187q0 3 4 9q-1 4 -3.5 3.5t-2.5 4.5q-5 -2 -6 -5t-3 -7q4 2 6 -1t5 -4zM468 457
q3 -4 5 -9.5t5 -8.5q1 5 -2.5 10.5t-7.5 7.5zM489 495q2 -4 3 -9t5 -4q1 5 -2.5 9.5t-5.5 3.5zM529 418q-7 17 -14.5 32.5t-16.5 26.5q5 -14 12.5 -31t18.5 -28z" />
    <glyph glyph-name="P" unicode="P" horiz-adv-x="592" 
d="M472 450q-2 4 -3 8.5t-5 4.5q0 -9 3.5 -17t3.5 -13q-2 1 -3.5 3.5t-5.5 0.5q12 -31 30 -63t35 -66q-2 -6 -4 -14q-4 2 -6 1q1 -2 1.5 -4t1.5 -4q-2 -4 -3.5 -8t-3.5 -8q-6 9 -14 14q2 1 2 4q-6 24 -21.5 44.5t-23.5 41.5q5 -17 10 -28t13 -22q-3 -1 -4 -4
q8 -14 11.5 -26.5t13.5 -16.5q0 -2 -1 -3t-1 -3q6 0 9 -4q0 -1 2 -7q-10 -20 -22 -37.5t-28 -32.5q-18 41 -37 78.5t-40 71.5q11 31 7.5 65t-20.5 63t-48 50.5t-75 26.5q-23 3 -56.5 5t-67.5 -1q-15 -1 -28.5 5t-23.5 17t-16 24.5t-6 27.5q0 33 22 52.5t52 22.5
q84 7 165.5 -11t147.5 -72q49 -41 77 -100.5t27 -123.5q0 -9 -0.5 -18.5t-1.5 -18.5q-14 26 -27 51t-29 50q-4 -1 -3.5 -3.5t-5.5 -2.5zM537 408q-2 5 -3.5 10.5t-6.5 3.5q2 -5 3.5 -10.5t6.5 -3.5zM433 389q2 -5 4.5 -10t5.5 -8q1 4 -2.5 10t-7.5 8zM454 427q2 -4 2.5 -9.5
t5.5 -3.5q1 4 -2.5 8.5t-5.5 4.5zM494 344q-1 -2 1.5 -5t5 -6.5t3 -7.5t-3.5 -8q1 5 -2 8t-7 6q2 -8 4.5 -11t6 -4t7 -1.5t6.5 -4.5q-8 11 -10.5 20t-10.5 14zM494 349q-8 17 -15 32.5t-17 26.5q5 -14 13 -31t19 -28zM452 194q-4 1 -2.5 -1.5t3.5 -7.5l-6 -6t-6 -5
q-5 -4 -8.5 -7t-8.5 -5l-12 18q-11 26 -27 54t-33 59q20 20 29 45q2 -6 4.5 -11t7.5 -6q-2 -1 -3 -0.5t0 -2.5q1 -5 7.5 -17t13.5 -24.5t13 -23t6 -11.5q-1 -10 7.5 -24.5t14.5 -23.5zM73 79l16 -34t14 -35q-14 9 -22 23.5t-8 35.5v10zM324 271q4 2 7.5 4.5t7.5 5.5
q17 -33 35 -65.5t29 -67.5q-6 -4 -9 -5q-10 15 -20 29q-3 19 -15 27q-4 17 -17 34.5t-18 37.5zM250 250q18 1 33 5t29 10q17 -33 34.5 -65t35.5 -64q-42 -20 -92 -28q-29 60 -53 110t-56 101q-4 -2 -3.5 -4.5t-4.5 -2.5q-2 5 -3.5 9t-5.5 4q0 -9 3.5 -16.5t3.5 -12.5
q-2 1 -3.5 3t-4.5 1q17 -46 45.5 -94.5t48.5 -101.5h-5q-6 8 -11 17l-10 18q-3 5 -4.5 13t-9.5 5q5 -14 11 -27t12 -27h-10q-6 14 -13.5 26.5t-17.5 17.5q3 1 2 5q-5 24 -21 44.5t-24 41.5q5 -17 10 -28.5t13 -22.5q-2 -1 -4 -3q8 -15 12 -27.5t13 -16.5q0 -2 -1 -3t-1 -3
q5 1 9 -4q1 -4 4.5 -12.5t9.5 -14.5v-34q0 -25 -12 -41t-29 -24q-23 58 -48.5 110.5t-54.5 97.5q4 -9 6.5 -18t9.5 -11h-3t0 -3q1 -5 7.5 -17t14 -24.5t13 -22.5t5.5 -11q0 -11 8 -25t14 -23q-6 1 0 -7t6 -14q1 -2 3 -1t3 -1q-5 -7 0 -15t8 -18q-1 0 -2 -0.5t-2 -0.5
q-3 5 -6 9.5t-8 6.5q2 -5 2.5 -9t2.5 -9q-9 -2 -20 0q-7 12 -13.5 23.5t-13.5 21.5q-8 18 -18 36.5t-21 38.5v326q0 36 23 53.5t51 17.5t51 -17.5t23 -53.5v-194h29zM133 251q3 -4 5 -9.5t5 -8.5q1 4 -2.5 10t-7.5 8zM154 289q2 -4 3 -9t5 -4q1 5 -2.5 9.5t-5.5 3.5z
M194 207q0 -2 2.5 -5.5t4.5 -7t2.5 -7.5t-3.5 -7q1 5 -2 8t-6 5q1 -8 4 -10.5t6 -3.5t6.5 -2t6.5 -4q-7 10 -9.5 19t-11.5 15zM194 212q-8 17 -15 32.5t-17 26.5q5 -14 13 -31.5t19 -27.5z" />
    <glyph glyph-name="Q" unicode="Q" horiz-adv-x="598" 
d="M58 342q25 -63 55.5 -123t56.5 -120q8 -17 16 -35t10 -38q-5 3 -8 9l-6 12t-6 11.5t-8 7.5q4 -6 4.5 -13t2.5 -16q-15 10 -25 20q-9 19 -21 38t-22 36q-2 4 -5.5 11.5t-8 16t-9.5 15.5t-10 10q1 -5 2 -8.5t3 -7.5q-13 33 -20.5 69.5t-9.5 73.5q2 -6 6.5 -14.5t12.5 -12.5
q0 -6 4 -14.5t9 -6.5q-6 17 -14 34.5t-19 28.5v36q6 -2 9 -5q-7 10 -9 16q1 5 1 9v9q15 -28 29 -56.5t25 -57.5q-8 8 -16 21t-15 25q-2 5 -4 13t-10 6zM84 239q-1 -8 3 -18t10 -20t12 -19.5t9 -16.5q-5 14 -8.5 22.5t-6.5 16t-6 15.5t-7 21q-2 -1 -3 0t-3 -1zM417 555
q3 0 4 6t-3 7q-4 -1 -2 -4.5t0 -5.5q-4 7 -8.5 12t-7.5 8q-5 3 -4.5 3t4.5 -3q-3 -2 -3.5 -3.5t-1.5 -3.5q8 -27 21 -52t26.5 -50.5t26 -51.5t20.5 -54q5 -8 12 -22t0 -22q-6 20 -19.5 42.5t-24.5 37.5q-3 19 -15 27q-2 9 -7.5 18.5t-11.5 19.5t-11 20.5t-6 21.5
q-6 2 -9.5 8t-6.5 13t-5.5 13.5t-6.5 9.5q-3 5 -2 7t-1 6q-4 1 -4.5 -0.5t-2.5 0.5q1 7 -2 15.5t-8.5 16t-11.5 14.5t-10 12q19 -50 44 -99.5t51.5 -98.5t53.5 -97t51 -94q-14 -59 -41 -109l6 -9q9 -12 10.5 -27t-2.5 -29t-13 -26t-21 -19q-23 -14 -44.5 -10t-39.5 18
q-38 -18 -85 -21h-6q-10 21 -22 34q2 2 4 0t0 3q-2 4 -5 0t-6 1q-14 35 -35 73.5t-44 82.5q1 -11 11 -29t15 -29q9 -36 20.5 -69t25.5 -64q-5 1 -10 1.5t-10 2.5q-1 1 -3 5q0 2 1 2.5t1 2.5q-15 32 -27.5 66.5t-25 68t-25 66t-26.5 61.5q-23 46 -42.5 86.5t-40.5 79.5
q1 3 1 5.5t1 5.5q7 38 22.5 78t38.5 74.5t55 60t74 35.5q47 11 88 2.5t75.5 -31t60.5 -56.5t43 -75q13 -29 20.5 -63.5t11.5 -72.5q-20 46 -41.5 88.5t-45.5 79.5q3 -8 6 -17.5t10 -11.5q-2 0 -3 0.5t0 -2.5q1 -5 7.5 -17t13.5 -24.5t13 -23t6 -11.5q-1 -11 7.5 -25
t14.5 -23q-6 1 0 -7t6 -14q1 -2 3 -1t3 -1q-2 -4 -1.5 -8t2.5 -9q1 -4 1 -7.5v-6.5q-3 4 -5.5 8t-6.5 6q5 -19 12 -35q0 -8 -0.5 -17t-1.5 -17q-14 25 -26 50.5t-26 44.5q-15 33 -36.5 69.5t-41.5 78.5zM69 469q2 -5 3.5 -10.5t6.5 -3.5q-2 5 -3.5 10.5t-6.5 3.5zM141 569
q2 1 3 1t3 1q-2 3 -0.5 4.5t-0.5 4.5q-2 -1 -4 0.5t-5 -0.5q2 -5 3 -5.5t1 -5.5zM183 210q0 -3 1 -7t6 -3q-2 3 -3 7t-4 3zM389 261q5 11 8.5 37.5t4 59.5t-3.5 69t-15 66t-30.5 49.5t-48.5 19.5q-29 2 -51.5 -26t-37 -71.5t-18.5 -95.5t4 -98.5t29.5 -81t58.5 -43.5
q-6 8 -11 16q-5 7 -9.5 13.5t-8.5 11.5q-9 12 -10.5 27t3 29t13.5 26.5t21 19.5q29 17 54 8t48 -36z" />
    <glyph glyph-name="R" unicode="R" horiz-adv-x="618" 
d="M383 642q2 9 -2.5 19t-12.5 19q16 -5 30 -11.5t28 -14.5q6 -5 11 -7h-4q-4 -1 -1.5 -4.5t0.5 -5.5q-5 6 -9.5 11.5t-7.5 8.5h1q-5 3 -4.5 3t3.5 -3q-4 -3 -4 -7q8 -27 20.5 -52t26.5 -50.5t26.5 -51.5t20.5 -54q2 -4 5.5 -10t6 -12t3 -12t-2.5 -10q-7 20 -20 42.5
t-25 36.5q-2 9 -5.5 16.5t-9.5 10.5q-2 9 -7.5 19t-11.5 20t-11 20.5t-6 21.5q-6 2 -9.5 8t-6.5 13t-5.5 13.5t-6.5 9.5q-2 4 -1.5 6.5t-1.5 6.5q-4 1 -4.5 -0.5t-2.5 0.5zM433 634q2 0 5 -0.5t6 -0.5q-2 3 -1 4.5t2 3.5q20 -14 37.5 -31.5t30.5 -37.5t20 -43t6 -48
q0 -19 -3 -37q-7 11 -13 22t-12 20q-15 33 -36.5 69.5t-41.5 78.5zM546 124q19 -17 22.5 -37t-4 -37.5t-23.5 -30.5t-35 -17l-6 12t-7 12q1 -5 3.5 -11.5t6.5 -13.5q-5 -1 -9 -1h-8q-11 29 -22.5 57t-23.5 54q-32 64 -57.5 117t-58.5 107q-4 -1 -4 -3.5t-5 -2.5q-2 4 -3 8
t-5 5q0 -9 3.5 -17t3.5 -13q-2 1 -3.5 3.5t-5.5 0.5q9 -24 22 -49t26.5 -51t27 -52.5t23.5 -54.5q-8 8 -16 21t-14 25q-3 5 -4.5 13t-9.5 6q14 -35 29 -69t32 -67q-7 6 -13.5 11.5t-12.5 11.5q-3 5 -4 11q-2 -1 -3 0t-3 -1v-1q-39 35 -78 71.5t-78 72.5q-2 4 -4.5 7t-4.5 7
l3 -9l-2 2v-96l-22 40t-22 42q3 0 9 4.5t2 10.5q-4 1 -5 -0.5t-5 -1.5q-5 -1 -2.5 -4.5t0.5 -4.5q-4 6 -8.5 11t-7.5 8q-5 4 -4.5 3.5t4.5 -3.5q-3 -1 -3.5 -3t-1.5 -4q11 -36 29.5 -69.5t36.5 -68.5v-14q0 -12 -3 -22q-1 1 -1 2q-3 19 -15 27q-5 18 -19.5 38t-16.5 42
q-6 2 -9.5 8t-6.5 13t-6 13.5t-7 9.5q-2 5 -1 7t-1 7q-4 0 -4.5 -1.5t-2.5 0.5q1 7 -2 15.5t-8.5 16t-11.5 14.5t-10 13q23 -60 54 -119.5t63 -117.5q-12 -22 -35 -31t-46.5 -4.5t-41 22t-17.5 47.5v375q0 36 23 53.5t51 17.5t51 -17.5t23 -53.5v-26q43 -13 76 -12.5
t55.5 9.5t34 25t11.5 34q-2 23 -19.5 38t-44.5 24t-59.5 13.5t-62.5 5.5t-54.5 0t-35.5 -2q-15 -2 -28.5 4.5t-23.5 17t-16 24t-6 27.5q0 32 22 51.5t52 22.5q58 5 118.5 2t117.5 -21q32 -77 73.5 -152.5t81.5 -148.5q-20 -36 -55.5 -62.5t-87.5 -34.5q44 -41 87.5 -81
t88.5 -80zM447 412q-2 -1 -4 0.5t-5 -0.5q2 -5 3.5 -5.5t0.5 -5.5q2 1 3.5 1t3.5 1q-2 3 -1 4.5t-1 4.5zM380 287q-2 5 -3.5 10.5t-6.5 3.5q2 -5 3.5 -10.5t6.5 -3.5zM276 268l4 -10t6 -8q1 4 -2.5 10t-7.5 8zM305 292q1 5 -3 9.5t-6 4.5q2 -4 3 -9.5t6 -4.5zM382 96
q-7 19 -16.5 39.5t-23.5 28.5q2 1 2 4q-6 24 -21.5 44.5t-23.5 41.5q5 -17 10 -28t13 -23q-1 0 -4 -3q8 -15 11.5 -27t12.5 -16q1 -2 0 -3t-1 -3q5 0 9 -4q1 -5 6 -16t14 -15q0 -6 3.5 -14.5t8.5 -5.5zM337 223q-1 -2 1.5 -5t5 -6.5t3 -7.5t-3.5 -8q1 5 -2.5 8t-6.5 6
q2 -8 4.5 -11t6 -4t7 -1.5t6.5 -4.5q-8 11 -10.5 20t-10.5 14zM337 228q-8 17 -15 32.5t-17 26.5q5 -14 12.5 -31t19.5 -28zM484 42q0 -3 1 -7t6 -3q-2 3 -2.5 7t-4.5 3z" />
    <glyph glyph-name="S" unicode="S" horiz-adv-x="597" 
d="M249 149q8 -14 14.5 -29t10.5 -30q-13 11 -23.5 26t-20.5 33h19zM342 62q-1 -4 -0.5 -8t-1.5 -7q4 -10 8.5 -20t9.5 -19l-15 -3q-8 12 -15 24t-14 25q-14 23 -24.5 42.5t-19.5 41.5q-3 5 -4 11h4h19t24 2q2 -6 4.5 -12.5t5.5 -13.5q-5 -17 3.5 -33t15.5 -30zM370 166
q5 -11 10 -21t10 -21q8 -17 16 -35t10 -38q-5 3 -8 8.5t-6 12t-6.5 12t-8.5 7.5q5 -7 5 -14.5t3 -17.5q2 -9 7.5 -18.5t7.5 -18.5q-4 -2 -6 -2q-5 10 -11.5 18t-8.5 23q-5 -2 -6 1q-8 22 -23 46t-27 45q11 2 22 5t20 8zM525 297q15 -29 19.5 -59t2.5 -56.5t-9.5 -47.5
t-16.5 -32q-8 -10 -15.5 -18.5t-16.5 -16.5q-14 33 -34.5 71t-42.5 80q1 -11 11 -28.5t15 -28.5q7 -29 15.5 -55.5t18.5 -51.5q-8 -6 -12 -8q-16 37 -30 76t-28 77q2 8 1 14q0 15 -17 26q-7 17 -13.5 33t-14.5 31q-16 32 -29 60.5t-27 55.5q29 -5 57.5 -10.5t55.5 -16.5
q16 -7 33 -18.5t32 -24.5t27 -26.5t18 -25.5zM402 234q0 -3 1.5 -7t6.5 -3q-2 4 -3 8t-5 2zM344 647q4 14 -7 28.5t-21 25.5q45 5 89 2t84 -11q3 0 9 -2q1 -5 5 -8q0 4 -1 6q9 -4 17 -11q4 -13 8 -22t12 -19q-3 -1 -4 -4q2 -5 4 -9t4 -9q-1 -3 -1 -6.5t-1 -6.5
q-5 -19 -17 -31t-28 -18q-28 61 -59 108q3 -8 6 -17t9 -11q-2 -1 -2.5 -0.5t0.5 -2.5q1 -5 7.5 -17t13.5 -24.5t12.5 -23t5.5 -11.5t0.5 -1.5t0.5 -1.5q-18 -4 -41 -1q-2 1 -4 1t-4 1q-11 20 -23.5 42t-23.5 47q3 -1 5.5 -1t5.5 -1q-2 5 1 7.5t-1 8.5q-4 2 -6 6.5t-7 4.5
q-2 0 -1.5 -3.5t1.5 -7t1.5 -7t-0.5 -4.5q-4 6 -8.5 11t-8.5 8h1q-5 4 -4.5 3.5l3.5 -3.5q-2 -1 -4 -7q8 -26 20 -50.5t26 -50.5q-5 1 -11 1.5t-12 1.5q-5 8 -8 16.5t-4 17.5q-6 2 -9.5 8t-6.5 12.5l-6 13t-7 9.5q-2 5 -1 7t-2 7q-3 0 -4 -1.5t-3 0.5zM522 674q5 -5 9 -11.5
t6 -14.5q-4 7 -8 13t-7 13zM221 62q4 -1 5.5 -5.5t5.5 -5.5q12 -27 27 -51q-35 0 -69 3t-66 8q-31 4 -53 22t-22 52q0 13 6 27t16 25t24 17.5t29 4.5q12 -2 24.5 -3t24.5 -3q13 -23 25 -45.5t23 -45.5zM74 415q3 -12 8 -24t11 -24q-17 25 -24 53.5t-8 54.5t3 48.5t10 36.5
q16 36 42 61t57.5 41.5t67.5 26t74 12.5q9 -24 20 -48t23 -48q-1 0 -1 -1q1 -5 2.5 -5.5t1.5 -5.5q0 1 2 1l18 -36q-41 2 -82 -4.5t-67 -29.5q-2 10 -7 10q0 -8 3 -14q-17 -19 -20 -45v-1q-1 -20 12 -30t27 -14q4 -7 8 -9q-1 2 -3 8q8 -2 11 -3q16 -30 32 -61t28 -64
q-8 8 -16.5 21t-14.5 26q-3 5 -4.5 13t-9.5 5q11 -26 22 -51t23 -50q-25 6 -50 10t-43 7q-9 1 -20 5q-17 36 -34.5 70t-37.5 64q4 -9 6.5 -18t9.5 -11q-2 -1 -3 -0.5t0 -2.5q1 -5 7.5 -17t14 -24.5t13 -23t5.5 -11.5q0 -10 8 -23q-18 5 -33 12.5t-27 15.5l-22 40t-22 42
q3 -1 6 -1t6 -1q-2 5 -9.5 17.5t-12.5 18.5q-2 0 0.5 -3t5.5 -7.5l5 -7.5t0 -3q-4 -1 -1.5 -4.5t-0.5 -5.5q-4 6 -8.5 11t-7.5 8q-5 4 -4 3.5t4 -3.5q-4 -1 -4 -7zM261 389q1 5 -2 8t-6 5q1 -8 4 -10.5t6 -3.5t6.5 -2t6.5 -4q-7 10 -9.5 19t-11.5 14q0 -2 2.5 -5t4.5 -6.5
t2.5 -7.5t-3.5 -7zM262 360q-5 25 -21 45.5t-24 41.5q5 -17 10 -28.5t14 -22.5q-3 -1 -5 -3q8 -15 12 -27.5t13 -16.5q0 -2 -1 -3t-1 -3q5 1 9 -4q1 -5 6 -15.5t14 -14.5q0 -6 4 -15t9 -6q-8 19 -17.5 39.5t-23.5 28.5q3 1 2 4zM204 442q1 4 -2.5 10t-7.5 8q3 -4 5 -9.5
t5 -8.5z" />
    <glyph glyph-name="T" unicode="T" horiz-adv-x="552" 
d="M113 559q-22 1 -36.5 12.5t-22 28t-7 35t8.5 34.5q14 -28 28 -55.5t29 -54.5zM235 343q14 -32 32.5 -60t35.5 -58q14 -25 25.5 -45.5t22.5 -40.5v-67q0 -24 -11 -40t-27.5 -24t-36 -8t-36 8t-27.5 24t-11 40v325l12 -22t11 -22q4 0 5.5 -4.5t4.5 -5.5zM194 605
q0 -10 7.5 -23.5t14.5 -23.5h-47q-14 30 -33.5 62.5t-36.5 70.5q2 0 5 -0.5t6 -0.5q-2 5 1 7.5t-1 8.5h10h23q3 -8 6 -14.5t8 -8.5q-2 0 -3 0.5t0 -2.5q1 -5 7.5 -17t14 -24.5t13 -23t5.5 -11.5zM64 680q6 10 16 16q12 -35 31.5 -69t36.5 -69h-21q-1 3 -4 4q-2 9 -7.5 18.5
t-11.5 19.5t-11 20.5t-6 21.5q-9 4 -13.5 17t-9.5 21zM433 706q36 0 54 -23t18 -51t-18 -51t-54 -23h-55q-4 10 -8 19t-9 18q-15 30 -28 57.5t-26 53.5h126zM385 573q2 6 4 8q-1 4 -9.5 15t-8.5 16q-3 -1 -2.5 -5.5t2 -10.5t3 -11.5t1.5 -6.5q4 1 5.5 -1.5t4.5 -3.5z
M222 558q-18 41 -37 78t-40 70h87q4 -7 12 -19q-4 0 -4 -3q7 -15 11 -27.5t13 -15.5q0 -2 -1 -3t-1 -3q6 0 9 -4q1 -5 6 -16t14 -15q0 -6 4 -14.5t9 -6.5q-8 20 -17.5 40.5t-23.5 28.5q3 1 2 4q-3 15 -11 28l-16 26h20q0 -2 2.5 -5t5 -6.5t2.5 -7.5t-4 -7q1 5 -2 8t-6 5
q1 -8 4 -10.5t6 -3.5t6.5 -2t6.5 -4q-7 10 -9.5 19t-10.5 14h13q15 -27 29 -55.5t25 -57.5q-8 8 -16 21t-15 25q-3 5 -4.5 13t-9.5 6q10 -26 21 -50.5t23 -49.5h-103zM341 481q-2 4 -2.5 7t-2.5 5q15 -18 15 -44v-36q-6 9 -11 17.5t-10 16.5q-2 4 -5.5 11.5t-8 15.5t-9.5 15
t-11 10q8 -26 15 -44.5t15 -37.5q-5 -17 3.5 -33.5t15.5 -30.5q-1 -3 -0.5 -7t-1.5 -8q2 -5 4 -9t4 -9v-30q-9 14 -17.5 27.5t-16.5 27.5q-14 24 -24.5 43t-19.5 42q-5 12 -9 24.5t-9 24.5q-3 9 -6.5 17.5t-7.5 16.5q22 10 47 7t42 -20q4 -5 6.5 -10zM210 483q7 12 13 17
q11 -30 28.5 -58.5t26.5 -60.5q-20 17 -36.5 45t-31.5 57zM98 703q-2 -2 -0.5 -4.5t-0.5 -4.5l-2 4t-3 4q2 0 3 0.5t3 0.5zM229 505q3 3 5 4q2 -5 3.5 -9t0.5 -9q-2 3 -4.5 6.5t-4.5 7.5zM100 704q2 0 2.5 0.5t1.5 0.5q-1 -1 -4 -1z" />
    <glyph glyph-name="U" unicode="U" horiz-adv-x="633" 
d="M522 459q-3 5 -4.5 13t-9.5 6q17 -42 35.5 -81.5t37.5 -78.5q-2 -19 -4 -37.5t-6 -36.5q-4 6 -7.5 12t-6.5 11q-2 4 -5.5 11.5t-8 16t-9.5 15.5t-11 10q8 -27 15 -45.5t15 -37.5q-3 -11 -1 -20.5t7 -18.5l-6 -18t-7 -18q-1 1 -1 1.5t-1 1.5q-14 24 -24.5 43t-19.5 42
q-5 12 -9 24.5t-9 24.5q-11 27 -22 52.5t-22 50.5q-2 29 -5 55.5t-6 47t-5.5 33t-2.5 14.5q-4 16 -8 31.5t-9 31.5q-11 34 6 57t44 30t54.5 -3.5t38.5 -44.5q7 -20 11.5 -40.5t8.5 -41.5q5 -27 10 -64t7 -81q-29 60 -54 111t-56 101q-3 -1 -3 -3.5t-5 -2.5q-2 4 -3.5 8
t-5.5 5q0 -9 3.5 -17t4.5 -13q-2 1 -4 3.5t-5 0.5q9 -24 22 -49t26.5 -51t27 -52.5t23.5 -54.5q-8 8 -16 21t-15 25zM529 591q-2 5 -4 10.5t-7 3.5q2 -5 4 -10.5t7 -3.5zM424 572q3 -5 5 -10t5 -8q1 4 -2.5 10t-7.5 8zM485 527q0 -2 2.5 -5t4.5 -6.5t2.5 -7.5t-3.5 -8
q1 5 -2 8l-6 6q1 -8 4 -11t6 -4t6.5 -1.5t6.5 -4.5q-7 11 -9.5 20t-11.5 14zM485 532q-7 17 -14.5 32.5t-17.5 26.5q5 -14 13 -31t19 -28zM453 596q1 5 -2.5 9.5t-5.5 4.5q2 -4 3 -9.5t5 -4.5zM534 375q-1 -8 3 -18t10 -20t12 -19.5t9 -16.5q-5 14 -8.5 22.5t-6.5 16
t-6 15.5t-8 21q-2 -1 -2.5 0t-2.5 -1zM531 399q-8 20 -17.5 40.5t-23.5 28.5q3 1 2 4q-5 24 -21 44.5t-24 41.5q5 -17 10 -28t14 -23q-4 0 -4 -3q7 -15 11 -27t13 -16q0 -2 -1 -3t0 -3q5 0 8 -4q1 -5 6 -16t14 -15q0 -6 4 -14.5t9 -6.5zM55 396q25 -63 55.5 -123t56.5 -120
q8 -17 16 -35t10 -38q-5 3 -8 9l-6 12t-6.5 11.5t-8.5 7.5q5 -6 5.5 -14t2.5 -17q4 -13 11.5 -25.5t2.5 -23.5q-5 14 -13.5 23.5t-11.5 26.5q-4 -1 -6 2q-8 22 -23.5 47t-27.5 46q-2 4 -5.5 11.5t-8 16t-9.5 15.5t-11 10q8 -27 15 -45.5t15 -37.5q-4 -14 0.5 -26t11.5 -24
q-29 43 -43.5 95t-19.5 105q-3 30 -3 60q2 -6 6.5 -14.5t12.5 -12.5q0 -5 4 -14t9 -6q-6 16 -13.5 33t-18.5 28v18t1 18q2 0 6 -4q-2 3 -3 5.5t-3 5.5q1 5 1 9t1 9q14 -26 27 -53t24 -56q-8 8 -16.5 21t-14.5 25q-3 5 -4.5 13t-9.5 6zM81 294q-1 -8 3 -18t9.5 -20.5t12 -20
t9.5 -16.5q-5 14 -8.5 22.5t-6.5 16t-6 15.5t-8 21q-2 -1 -2.5 0t-2.5 0zM465 311q-5 6 -9 14t-11 12q4 -18 12 -34.5t17 -33t17.5 -33.5t13.5 -35q-21 17 -37 46t-31 58q2 20 2.5 39.5t-0.5 39.5q2 -2 2.5 -3.5t2.5 -3.5q-6 1 -0.5 -6.5t5.5 -14.5q1 -2 3 -1t3 -1
q-3 -5 -1.5 -9.5t4 -10l5 -11t2.5 -12.5zM452 173q4 0 5.5 -4.5t5.5 -5.5q8 -20 18.5 -38t21.5 -35q-28 -34 -66 -56q-26 -15 -55.5 -23.5t-59.5 -10.5q-11 26 -23.5 50.5t-23.5 37.5q2 2 4 0t0 3q-2 4 -5 0t-6 1q-14 35 -35 73.5t-44 82.5q1 -11 11 -29t15 -29
q14 -54 32 -100t38 -89q-6 0 -16 2q-8 17 -16 32.5t-15 30.5q-1 2 0 2.5t1 2.5q-29 65 -52 134.5t-52 127.5q-23 45 -41.5 84.5t-38.5 77.5q12 85 40 158q11 29 35 44.5t56 7.5q13 -4 25 -13t19.5 -22t10 -27.5t-2.5 -28.5q-7 -18 -14.5 -52.5t-14 -70t-10.5 -64t-4 -34.5
q0 -7 -1.5 -27.5t-0.5 -48t6.5 -58t18.5 -55.5t36 -42t60 -17q43 0 68.5 24.5t39.5 62.5q8 -15 15 -29.5t15 -29.5zM65 523q2 -5 4 -10.5t7 -3.5q-2 5 -4 10.5t-7 3.5zM138 623q2 1 3 1t3 1q-2 3 -0.5 4.5t-0.5 4.5q-3 -1 -4.5 0.5t-4.5 -0.5q2 -5 3 -5.5t1 -5.5zM148 316
q2 0 4.5 -3t4.5 -7t4 -7.5t4 -3.5q0 2 -2 12t0 12q-1 5 -3.5 4.5t-2.5 4.5q-5 -2 -6 -5.5t-3 -6.5zM179 264q1 -3 2 -7t6 -3q-2 3 -3 7t-5 3z" />
    <glyph glyph-name="V" unicode="V" horiz-adv-x="627" 
d="M355 196q11 -23 22 -46.5t22 -46.5q7 -14 13.5 -29t10.5 -31q-2 -2 -2.5 -3t-2.5 -2q-5 8 -9 18.5t-12 13.5q5 -7 5 -14.5t2 -17.5q2 -6 4 -9q-6 -4 -9 -7q-2 4 -3.5 8.5t-2.5 9.5q-4 -1 -6 1q-8 22 -23 47t-28 46q-2 3 -3.5 8t-4.5 10q9 4 17 21l2 -4q-1 1 -1 2t-1 2
q6 10 10 23zM231 41q4 -1 5.5 -5t5.5 -5l6 -15q-30 16 -52 43t-38.5 58.5t-28 66t-19.5 65.5l-6 27q32 -61 65.5 -119.5t61.5 -115.5zM502 706q13 0 27 -6t25 -16t17.5 -23.5t4.5 -28.5q-13 -97 -23.5 -193.5t-34.5 -191.5q-8 -32 -19.5 -68.5t-29.5 -71.5q-23 43 -48 90
q2 -11 11.5 -28.5t14.5 -28.5q3 -12 6.5 -24t7.5 -23l-12 -18q-19 49 -36.5 98.5t-37.5 93.5q10 45 18.5 98t15 104t11.5 94t8 69q4 30 22.5 52t51.5 22zM399 238q0 1 -1 5.5t-1.5 10t-1 10t0.5 5.5q-1 4 -3.5 3.5t-3.5 4.5q-5 -2 -5.5 -5t-2.5 -7q2 1 4.5 -3t5 -9.5
t4.5 -10t4 -4.5zM412 213q0 -3 1 -7t6 -3q-2 4 -2.5 8t-4.5 2zM523 305q2 5 -2 10q-3 0 -6 -3q1 -5 3.5 -5.5t4.5 -1.5zM351 41q-1 -4 -0.5 -8t-1.5 -7q4 -12 10 -23q-4 -1 -8 -1.5t-8 -1.5q-5 8 -9.5 16.5t-9.5 16.5q-14 23 -24.5 42.5t-20.5 42.5q-5 12 -9 24.5t-9 24.5
q-26 65 -53.5 124t-59.5 109l6 -18t9 -11h-2.5t0.5 -3q1 -5 7.5 -17t13.5 -24.5t12.5 -22.5t5.5 -11q0 -11 8 -25t15 -23q-6 1 -0.5 -7t6.5 -14q1 -2 2.5 -1t2.5 -1q-2 -5 -0.5 -9.5t4 -10t4.5 -11t2 -12.5q-5 6 -9 14t-10 11q4 -18 11.5 -34.5t16.5 -33t17.5 -33
t13.5 -34.5q-16 13 -29 33.5t-25 43.5t-23.5 45.5t-23.5 39.5q-15 33 -36.5 69t-41.5 79q3 -1 5.5 -1t5.5 -1q-2 5 -6 6t-6 -1q-10 13 -17 19q1 0 1 1q-5 3 -4.5 2.5l3.5 -3.5q-2 -1 -4 -7q8 -27 20.5 -52t26.5 -50.5t26.5 -51t20.5 -53.5q5 -8 12 -22t0 -22q-7 20 -20 42.5
t-24 36.5q-5 20 -16 27q-2 9 -7.5 18.5t-11.5 20t-10.5 21t-5.5 21.5q-1 0 -1.5 0.5t-1.5 0.5q-15 75 -24.5 150t-17.5 151q-2 15 4.5 28.5t17 23.5t24.5 16t28 6q33 0 52 -22t23 -52q3 -32 10.5 -89t18.5 -120q0 2 -1 3q1 -2 1 -2.5t1 -2.5q8 -48 18 -94.5t21.5 -84
t23.5 -63t24 -29.5q5 -12 8.5 -23t8.5 -23q-5 -17 3.5 -33t15.5 -30zM204 439q2 -4 4 -9.5t6 -8.5q0 4 -3.5 10t-6.5 8z" />
    <glyph glyph-name="W" unicode="W" horiz-adv-x="816" 
d="M593 384q1 8 2 16.5t2 17.5q29 -55 59 -108t55 -104q-11 -45 -28 -86t-46 -73q-14 -17 -33 -27q-5 14 -11 27l-12 26q-32 64 -58 117.5t-59 107.5q-3 -2 -3 -4.5t-5 -2.5q-2 5 -3.5 9t-4.5 4q-1 -9 2.5 -17t4.5 -13q-2 1 -4 3.5t-5 0.5q9 -24 22 -48.5t26.5 -50.5t27 -53
t23.5 -55q-8 8 -16 21t-15 26q-2 5 -4 13t-10 5q14 -35 29 -68t32 -66q-5 -1 -8.5 -1.5t-7.5 -0.5q-3 7 -6 14.5t-7 19.5q-2 -1 -3 0t-3 0q-1 -8 2.5 -16.5t8.5 -17.5q-7 0 -13 1t-13 3q-39 13 -62 43.5t-37 67.5l-3 -9q-12 23 -23.5 43.5t-24.5 40.5q3 -8 6 -17t9 -11
q-2 -1 -2.5 -0.5t0.5 -2.5t4.5 -10.5t8 -16t10 -18t9.5 -16.5q-1 0 -1 -2q-9 -20 -25 -43q-14 26 -30.5 55t-31.5 62q1 0 5.5 -4.5t9 -10t8.5 -9.5t6 -4q-1 2 -3.5 8t-5 12.5t-5 12.5t-4.5 9q-5 2 -5.5 0t-4.5 -1q-5 -1 -2.5 -4.5t0.5 -5.5q-5 6 -9.5 11t-7.5 8h1
q-5 4 -4.5 3.5l3.5 -3.5q-2 -1 -4 -7q11 -38 32 -74t39 -74q-6 -8 -13 -12q-6 11 -12 15q-2 9 -7.5 18.5t-11.5 20t-11 21t-6 21.5q-6 2 -9.5 8t-6 12.5t-5.5 13.5t-7 10q-2 3 -1.5 5t0.5 4q5 0 11 14.5t12 38.5t11.5 54.5t10.5 62t9.5 62t7.5 53.5q4 32 25.5 47.5t47 15.5
t47 -14.5t26.5 -41.5q4 -21 7.5 -47t7 -53t7 -53.5t7.5 -49.5q-1 1 -3 1q2 -4 3 -8t3 -6q6 -31 13 -50.5t16 -20.5q5 0 10 13t10 33t9.5 44t8 47t6 41.5t3.5 26.5zM334 329q1 3 -2 10q-5 -2 -6 -4q1 -6 8 -6zM417 230q2 -4 4 -9.5t6 -8.5q0 4 -3.5 10t-6.5 8zM445 255
q1 5 -2.5 9t-5.5 4q2 -4 3 -9t5 -4zM523 58q-7 19 -17 39.5t-24 28.5q3 1 3 4q-6 25 -22 45.5t-24 41.5q5 -17 10 -28.5t14 -22.5q-2 -1 -4 -3q8 -15 11.5 -27.5t12.5 -16.5q1 -2 0 -3t-1 -3q5 0 8 -4q1 -5 6 -15.5t14 -14.5q0 -6 4 -15t9 -6zM477 185q0 -2 2.5 -5t4.5 -6.5
t2.5 -7.5t-3.5 -7q1 5 -2 7.5t-6 5.5q1 -8 4 -10.5t6 -3.5t7 -2t7 -4q-8 10 -10.5 19t-11.5 14zM477 191q-7 17 -14.5 32.5t-16.5 26.5q5 -14 12.5 -31.5t18.5 -27.5zM689 710q15 0 28.5 -6t24 -16t17 -23.5t5.5 -28.5q-1 -4 -1 -8t-1 -8q-14 25 -30 51q-3 -1 -3 -3.5
t-5 -2.5q-2 5 -3.5 9t-4.5 4q-1 -9 2.5 -17t4.5 -13q-2 1 -4 3.5t-5 0.5q8 -22 20 -44.5t24 -46.5q0 -4 -0.5 -8t-0.5 -9q-2 5 -4.5 9t-7.5 6q0 -2 2.5 -5t4.5 -6.5t2.5 -7.5t-3.5 -7q1 5 -2 7.5t-6 5.5q2 -10 5 -12t8 -3l-3 -33l-2 2q2 1 2 4q-6 25 -22 45t-24 42
q5 -17 10 -28.5t14 -22.5q-3 -1 -4 -4q8 -14 11.5 -26.5t12.5 -16.5q1 -2 0 -3t-1 -3h2q-3 -35 -7 -70t-9 -70q-25 60 -51 115t-56 102q3 -8 6 -17t9 -11q-2 -1 -2.5 -0.5t0.5 -2.5q1 -5 7.5 -17t13.5 -24.5t12.5 -23t5.5 -11.5q0 -10 8 -24t15 -23q-6 1 -0.5 -7t5.5 -15
q1 -2 3 -0.5t3 -0.5q-3 -5 -1.5 -9.5t4 -10t5 -11.5t2.5 -12q-5 5 -9 13t-10 12q3 -16 9.5 -31t14.5 -29q-1 -7 -1.5 -13.5t-2.5 -13.5q-17 29 -31.5 59.5t-30.5 53.5q-11 26 -26.5 53t-31.5 57q2 33 4.5 65.5t4.5 65.5q2 31 22 52.5t52 21.5zM685 604l4 -10t6 -8
q0 4 -3.5 10t-6.5 8zM705 642q2 -4 3 -9.5t6 -3.5q0 4 -3.5 8.5t-5.5 4.5zM745 565q-7 16 -14.5 31.5t-16.5 26.5q5 -14 12.5 -31t18.5 -27zM319 61q2 -4 3 -5q-1 1 -1.5 2t-2.5 3h1zM98 369q25 -63 55.5 -123t56.5 -119l16 -36t10 -38q-5 3 -8 9l-6 12t-6 11.5t-8 7.5
q4 -6 4.5 -14t2.5 -17q4 -12 11.5 -24.5t3.5 -23.5q-1 0 -1 0.5t-1 0.5q-5 14 -13 22.5t-11 25.5q-4 -1 -6 2q-8 22 -23 47t-28 46q-2 4 -5.5 11.5t-8 16t-9.5 15.5t-10 10q8 -27 14.5 -45t14.5 -38q-1 -4 -1 -7.5v-6.5q-24 48 -37 100.5t-22 104.5q-2 9 -3 17.5t-3 17.5
q2 -2 4 -2q1 -2 -0.5 -3t-0.5 -3q5 0 8 -4q1 -5 6 -15.5t14 -15.5q0 -5 4 -14t9 -6q-7 19 -17 39.5t-24 28.5q3 1 3 4q-2 8 -5 14.5t-6 12.5q-2 11 -3 22t-3 22q3 -4 9 -10q-2 6 -5 12l-6 12q-1 6 -1 12t-1 12q19 -40 42 -81.5t39 -86.5q-8 8 -16 21t-15 25q-2 5 -4 13
t-10 6zM73 405q1 -8 4 -11t6 -4t7 -1.5t7 -4.5q-8 11 -10.5 20t-11.5 14q0 -2 2.5 -5t4.5 -6.5t2.5 -7.5t-3.5 -7q1 5 -2 7.5t-6 5.5zM124 267q-1 -8 3 -18t10 -20.5t12 -20t9 -16.5q-5 14 -8.5 22.5t-6.5 16t-6 15.5t-7 21q-2 -1 -3 0t-3 0zM625 387q-2 8 -5.5 15.5
t-9.5 11.5q-1 6 -4 12t-7 13q1 8 2 16.5t2 16.5q15 -29 30.5 -58.5t24.5 -61.5q2 -5 5.5 -10.5t6 -11.5t3 -12t-2.5 -10q-7 20 -20 42t-25 37zM271 177q-1 0 -1 -0.5t-2 0.5q1 1 1 4zM318 65q-2 -1 -3.5 -1.5t-3.5 2.5q-14 34 -35 72.5t-44 82.5q1 -11 11 -29t15 -29
q11 -44 25.5 -83t30.5 -75q-2 -1 -2.5 -1t-2.5 -1q-3 0 -5.5 -0.5t-4.5 -0.5q-5 10 -9 19t-9 18q0 2 1 3t1 3q-29 64 -52.5 133.5t-52.5 127.5q-32 64 -57.5 117t-58.5 107q-3 -1 -3 -3t-3 -3l-4 56l-4 56q-2 36 20 54t50 18t52 -18t26 -54q4 -64 10 -127.5t15 -123.5
q2 -12 5.5 -33.5t8.5 -46t10.5 -50t11.5 -44.5q-5 8 -10.5 14t-9.5 11q17 -43 37.5 -86t43.5 -85zM109 497q2 -5 3.5 -11t6.5 -4q-2 5 -3.5 10.5t-6.5 4.5zM181 596q4 2 6 2q-2 3 -0.5 4.5t-0.5 4.5q-2 -1 -4 0.5t-5 -0.5q2 -5 3 -5.5t1 -5.5zM223 237q0 -3 1 -7t6 -3
q-2 4 -3 8t-4 2z" />
    <glyph glyph-name="X" unicode="X" horiz-adv-x="591" 
d="M493 173q-25 21 -43.5 58t-37.5 71q20 -32 40.5 -64t40.5 -64v-1zM165 151q-2 5 -4 12.5t-10 5.5q11 -29 23.5 -56.5t26.5 -55.5l-9 -15q-2 5 -4.5 11t-4.5 14q-2 -1 -3 0t-3 0q-1 -7 2 -15.5t8 -17.5q-12 -20 -29.5 -28t-36.5 -6q-26 64 -54 123q11 17 21.5 35t21.5 36
q8 -14 11.5 -26t12.5 -16q1 -2 -0.5 -3t-0.5 -3q5 0 8 -4q1 -5 6 -15.5t14 -15.5q0 -5 4 -14t9 -6q-7 19 -17 39.5t-24 28.5q3 1 3 4q-3 11 -8 21t-11 20q5 8 8.5 15t8.5 14q17 -31 33.5 -63t28.5 -66q-8 8 -16 21t-15 26zM126 205q1 -8 4 -11t6 -4t7 -1.5t7 -4.5
q-8 11 -10.5 20t-11.5 14q0 -2 2.5 -5t4.5 -6.5t2.5 -7.5t-3.5 -7q1 5 -2 7.5t-6 5.5zM440 145q4 0 5.5 -4.5t5.5 -5.5q13 -31 31 -58t34 -56q-12 -9 -27 -14t-30 -3.5t-29.5 9.5t-25.5 25q-28 43 -55 86t-55 87q-16 -26 -31.5 -52t-31.5 -52q-22 44 -40 82t-38 75
q3 5 6.5 10.5t6.5 10.5q2 -4 6 -3q-2 6 -3 8q10 16 19.5 31.5t18.5 30.5q-37 62 -73.5 122.5t-72.5 122.5q-18 31 -7 58t35 41t53 10t47 -35q26 -44 52 -87.5t53 -87.5q8 -26 20.5 -51t26 -50t25.5 -50.5t20 -52.5q5 -9 12 -23t1 -22q-7 20 -20 42.5t-25 37.5q-3 19 -15 27
q-2 9 -7.5 18.5t-11.5 19.5t-11 20.5t-6 21.5q-6 2 -9.5 8t-6.5 13t-5.5 13.5t-6.5 9.5q-2 5 -1.5 7t-1.5 7q-4 0 -4.5 -1.5t-2.5 0.5q1 7 -2 15.5t-8.5 16t-11.5 14.5t-10 13q20 -52 46 -104t54 -103t55.5 -100.5t51.5 -97.5zM234 396q4 2 6 2q-2 3 -0.5 4.5t-0.5 4.5
q-2 0 -4 1t-5 -1q2 -5 3 -5.5t1 -5.5zM387 129q1 4 -2 10q-5 -2 -6 -4q1 -6 8 -6zM113 198q0 1 1 1zM403 674q12 20 30 28.5t36 7t34.5 -11.5t27 -25t11.5 -34.5t-11 -39.5q-5 -7 -8.5 -13.5t-8.5 -13.5q-2 6 -7 5q2 -2 2.5 -5t1.5 -5q-3 -5 -6 -10.5t-7 -10.5
q-16 32 -37 65q-4 -1 -3.5 -3.5t-4.5 -2.5q-2 4 -3.5 8t-5.5 5q0 -9 3.5 -17t3.5 -13q-2 1 -3.5 3.5t-4.5 0.5q7 -19 16.5 -38t20.5 -39q-2 -4 -6 -10q-8 17 -15 32t-17 26q5 -14 13 -31t19 -27l-6 -10l-6 -10q-8 12 -14.5 23t-11.5 22q5 -17 10 -28t13 -22l-1 -1l-3 -3
l1 -1q-11 -18 -21.5 -35.5t-21.5 -35.5q-14 27 -27.5 52t-28.5 48q4 -8 6.5 -17.5t9.5 -11.5q-2 0 -3 0.5t0 -2.5q1 -5 6.5 -15.5t12.5 -22t12.5 -22t7.5 -14.5q-7 -11 -13.5 -22t-12.5 -22q-15 29 -33.5 60.5t-35.5 67.5q3 0 6 -0.5t6 -0.5q-2 5 1 7.5t-2 8.5
q-4 1 -4.5 -0.5t-5.5 -1.5q-4 -1 -1.5 -4.5t-0.5 -4.5q-7 10 -14 16q26 43 52 85.5t52 85.5zM413 544q3 -5 5 -10t5 -8q1 4 -2.5 10t-7.5 8zM434 582q2 -4 3 -9.5t5 -4.5q1 5 -2.5 9.5t-5.5 4.5zM108 3q-5 5 -9 13t-10 12q1 -11 6 -21q-14 6 -24.5 17t-16.5 24.5t-5 29
t11 32.5q1 2 2 3.5t2 3.5v-1q0 -10 8 -24t15 -23q-6 1 -0.5 -7t5.5 -15q1 -2 3 -0.5t3 -0.5q-3 -5 -1.5 -9.5t4 -10t5 -11.5t2.5 -12z" />
    <glyph glyph-name="Y" unicode="Y" horiz-adv-x="636" 
d="M478 574q-2 5 -3.5 9t-5.5 4q0 -8 3.5 -16t3.5 -13q-2 1 -3.5 3t-4.5 1q9 -24 22 -49t26.5 -51t27 -52.5t23.5 -54.5q-8 8 -16.5 21t-14.5 25q-3 5 -4.5 13t-9.5 5q10 -26 21.5 -50.5t22.5 -50.5q-2 -5 -3 -9.5t-3 -9.5q-2 4 -3.5 8.5t-3.5 9.5q-2 0 -2.5 1t-2.5 -1
q-1 -11 7 -28q-6 -15 -15 -30q-2 2 -3 2q1 -1 1 -2t1 -2q-15 -24 -34 -43l-9 27q-16 38 -32 75t-33 71q5 25 4.5 52.5t-5.5 55.5q-5 30 -12 59.5t-17 58.5q-7 23 -1.5 41t18.5 30t32 17t37 2t33.5 -15.5t23.5 -34.5q20 -60 31 -125t6 -130q-24 51 -46 94.5t-49 88.5
q-4 -1 -3.5 -4t-4.5 -3zM543 533l-4 10t-7 4q2 -5 4 -10.5t7 -3.5zM438 513q3 -4 5 -9.5t5 -8.5q1 5 -2.5 10.5t-7.5 7.5zM467 538q1 5 -2.5 9.5t-5.5 3.5q2 -4 3 -9t5 -4zM545 341q-8 20 -17.5 40t-23.5 28q3 1 2 5q-5 24 -21 44.5t-24 41.5q5 -17 10 -28t13 -23
q-2 -1 -4 -3q8 -15 12 -27.5t13 -16.5q0 -2 -1 -2.5t-1 -2.5q6 0 9 -5q1 -5 6 -15.5t14 -14.5q0 -6 4 -14.5t9 -6.5zM499 469q-1 -2 1.5 -5.5l5 -7t3 -7.5t-3.5 -7q1 5 -2 8t-6 5q1 -8 4 -10.5t6 -3.5t6.5 -2t6.5 -4q-8 11 -10 20t-11 14zM499 474q-8 17 -15 32.5t-17 26.5
q5 -14 13 -31t19 -28zM479 253q-5 6 -9 14t-11 11q5 -20 14 -38.5t20 -37.5q-3 -3 -6.5 -5.5t-6.5 -5.5q-17 29 -31.5 60t-31.5 54q-2 5 -4.5 10.5t-5.5 11.5q16 22 22 51q6 -9 6 -11q-1 -11 7.5 -25t14.5 -23q-6 1 0 -7t6 -14q1 -2 3 -1t3 -1q-3 -5 -1.5 -9.5t4 -10l5 -11
t2.5 -12.5zM308 285q18 -1 32.5 2t27.5 8q18 -33 36 -65.5t35 -64.5q-11 -6 -23.5 -10.5t-26.5 -8.5v-76q0 -20 -9 -36q-5 12 -10 23l-10 22q-32 64 -57.5 117.5t-58.5 106.5q-4 -1 -3.5 -3.5t-5.5 -2.5q-2 5 -3 9t-5 4q0 -9 3.5 -17t3.5 -13q-2 1 -3.5 3.5t-5.5 0.5
q9 -24 22 -48.5t27 -50.5t27.5 -53t23.5 -55q-8 8 -16.5 21t-14.5 26q-3 5 -4.5 12.5t-9.5 5.5q14 -36 30 -71t33 -70q-5 -2 -15 -4q-4 9 -7.5 17.5t-9.5 25.5q-2 -1 -2.5 0t-2.5 0q-2 -9 3.5 -21t12.5 -23h-7q-30 0 -52 21.5t-22 52.5v75q-55 13 -95 42l-6 9q2 -4 2 -6
q-34 25 -56.5 61t-30.5 84q-14 80 -1 159.5t42 154.5q11 29 35 44.5t56 7.5q13 -4 25 -13.5t19.5 -22t10 -27.5t-2.5 -29q-12 -30 -22 -61t-15 -63q-15 -95 13 -146.5t93 -53.5zM196 236q3 -4 5 -9.5t5 -8.5q1 4 -2.5 10t-7.5 8zM225 261q1 4 -2.5 8.5t-5.5 4.5
q2 -4 2.5 -9.5t5.5 -3.5zM302 64q-7 19 -16.5 39.5t-23.5 28.5q3 2 2 4q-5 25 -21 45.5t-24 41.5q5 -17 10 -28.5t13 -22.5q-3 -1 -4 -4q8 -14 11.5 -26.5t13.5 -16.5q0 -2 -1 -3t-1 -3q6 0 9 -4q1 -5 6 -15.5t14 -15.5q0 -5 3.5 -14t8.5 -6zM257 191q-1 -2 1.5 -5t5 -6.5
t3 -7.5t-3.5 -7q1 5 -2 7.5t-7 5.5q2 -8 4.5 -11t6 -4t7 -1.5t6.5 -4.5q-8 11 -10.5 20t-10.5 14zM257 197q-8 16 -15 31.5t-17 26.5q5 -14 13 -31t19 -27zM290 270q2 -5 3.5 -11t6.5 -4q-2 5 -3.5 10.5t-6.5 4.5zM381 74q-5 -2 -5.5 -5.5t-2.5 -6.5q4 1 6 -1.5t5 -3.5
q0 3 4 9q-1 4 -3.5 3.5t-3.5 4.5zM424 217q-7 20 -20 42.5t-25 36.5q0 2 -0.5 2.5t-0.5 1.5q4 3 7.5 5.5t7.5 5.5q5 -12 10 -24.5t8 -25.5q5 -8 12 -22t1 -22z" />
    <glyph glyph-name="Z" unicode="Z" horiz-adv-x="588" 
d="M394 148q11 -22 23 -44t19 -46q-18 15 -32.5 39.5t-28.5 50.5h19zM341 132q-1 4 -2.5 8t-3.5 8h8q3 -11 -2 -16zM222 331q16 -32 33 -63.5t34 -63.5q-21 -35 -41.5 -68.5t-41.5 -68.5q-21 43 -39.5 81t-38.5 75q20 34 40.5 67.5t40.5 66.5q3 -6 6 -12.5t6 -12.5v-1h1z
M149 232q2 -5 4 -11t7 -4q-2 5 -4 10.5t-7 4.5zM383 30q4 -1 5.5 -5t5.5 -5q2 -5 4.5 -10t4.5 -10h-80q-36 0 -54 22.5t-18 50t17 51t52 24.5q17 -30 33 -59.5t30 -58.5zM504 30q-2 -4 -1.5 -8t-0.5 -7q0 -2 2 -6q-4 -2 -8 -3.5t-9 -3.5q-3 5 -5.5 10t-5.5 10
q-14 23 -24.5 42.5t-20.5 42.5q-4 10 -7 20t-7 21h47q5 -15 10 -28t11 -27q-5 -17 3.5 -33t15.5 -30zM153 85q-3 5 -4.5 13t-9.5 6q16 -42 36 -84q-12 -11 -25.5 -15.5t-28 -3.5t-28 7.5t-23.5 16.5q-5 11 -10.5 22t-10.5 22q-2 22 11 42q7 11 13.5 23t14.5 23q4 -11 13 -23
q-3 -1 -4 -4q8 -14 12 -26.5t13 -16.5q0 -2 -1 -3t-1 -3q6 0 9 -4q1 -5 6 -15.5t14 -15.5q0 -5 3.5 -14t8.5 -6q-7 19 -16.5 39.5t-23.5 28.5q3 1 2 4q-4 17 -14 32.5t-19 30.5q3 5 5.5 9t5.5 9q6 -13 15 -20q-3 6 -6 12.5t-6 12.5q2 2 2.5 4.5t2.5 4.5q19 -37 39.5 -75
t35.5 -79q-8 8 -16.5 21t-14.5 25zM114 140q1 -8 4 -11t6 -4t6.5 -1.5t6.5 -4.5q-8 11 -10.5 20t-10.5 14q-1 -2 1.5 -5t5 -6.5t3 -7.5t-3.5 -7q1 5 -2 7.5t-6 5.5zM477 147q20 -2 33.5 -12.5t20.5 -25.5t8 -32t-5 -33q-9 20 -22 41t-24 38q-2 4 -4.5 10.5t-6.5 13.5z
M138 559q-36 0 -54 23.5t-18.5 51.5t17 51.5t53.5 23.5h315q28 0 47 -11.5t28.5 -28.5t9.5 -37t-10 -38q-23 -38 -45.5 -75.5t-45.5 -75.5q-8 13 -15.5 26t-15.5 27q-4 -2 -3.5 -4.5t-5.5 -2.5q-2 5 -3 9t-5 4q0 -9 3.5 -16.5t3.5 -12.5q-2 1 -3.5 3t-5.5 1q7 -16 14.5 -32
t16.5 -33q-4 -6 -5 -9q-6 13 -12 24.5t-14 20.5q4 -11 9.5 -24.5t13.5 -24.5q-3 -5 -5.5 -9t-5.5 -8q-5 8 -10 16.5t-8 16.5q7 -25 15 -39q-11 -19 -22.5 -37t-22.5 -37q-12 23 -24 45t-25 42l6 -18t10 -11h-3t0 -3t4.5 -10.5t8.5 -16.5l10 -18t9 -16q-13 -23 -26 -43
q-14 26 -30.5 54.5t-31.5 60.5q3 0 6 -0.5t5 -0.5q-2 5 1 7.5t-1 8.5q-4 1 -5 -1t-5 -1q-4 -1 -2 -4.5t0 -5.5q-4 6 -8.5 11t-7.5 8v1q-5 3 -4 2.5t4 -3.5q-3 -1 -3.5 -2.5t-1.5 -3.5q12 -39 33 -76t39 -75q-3 -5 -5.5 -9t-5.5 -9q-5 17 -14 23q-2 9 -7.5 18.5t-11.5 20
t-11 21t-6 21.5q-6 2 -9.5 8t-6.5 13t-5.5 13.5t-6.5 9.5q-2 2 -2 6q29 48 58 95t58 95h-194zM385 453q1 5 -2.5 9.5t-5.5 3.5q2 -4 2.5 -9t5.5 -4zM366 410q1 5 -2.5 10.5t-7.5 7.5q3 -4 5 -9.5t5 -8.5z" />
    <glyph glyph-name="bracketleft" unicode="[" horiz-adv-x="337" 
d="M240 -4q24 0 36 -15.5t12 -34t-12 -34t-36 -15.5h-144q-27 0 -38.5 18.5t-9.5 38.5v686q-2 20 10 38t38 18h144q24 0 36 -15.5t12 -33.5t-12 -33.5t-36 -15.5h-93v-602h93v0z" />
    <glyph glyph-name="backslash" unicode="\" horiz-adv-x="441" 
d="M147 661q61 -178 121 -354t121 -354q7 -23 -4 -38t-29 -20t-36.5 2t-26.5 30q-60 178 -120.5 354t-120.5 354q-8 23 3 38.5t29 20t36.5 -3t26.5 -29.5z" />
    <glyph glyph-name="bracketright" unicode="]" horiz-adv-x="341" 
d="M98 -4h93v602h-93q-24 0 -36 15.5t-12 33.5t12 33.5t36 15.5h144q26 0 38 -18t10 -38v-686q2 -20 -9.5 -38.5t-38.5 -18.5h-144q-24 0 -36 15.5t-12 34t12 34t36 15.5z" />
    <glyph glyph-name="grave" unicode="`" horiz-adv-x="378" 
d="M168 660q21 -23 38 -30t42 -5q19 1 27 -6.5t6.5 -18t-11 -20.5t-24.5 -13q-37 -8 -69 0.5t-52 22.5q-22 16 -24.5 36t7 33.5t26.5 16.5t34 -16z" />
    <glyph glyph-name="a" unicode="a" 
d="M409 503q15 15 37.5 19.5t42.5 -1.5t34.5 -23t14.5 -45v-378q0 -19 -7 -32q-19 39 -37 75t-41 72q-4 -1 -3.5 -3.5t-4.5 -2.5q-2 4 -3.5 8t-5.5 5q0 -9 3.5 -17t3.5 -13q-2 1 -3.5 3.5t-4.5 0.5q14 -36 35 -74t41 -79l-9 -6q-2 6 -4 12.5t-9 4.5q2 -5 4 -9.5t4 -9.5
q-4 -2 -12 -4q-7 9 -14 13q3 1 2 4q-5 24 -21 44.5t-24 41.5q5 -17 10 -28t14 -23q-2 0 -5 -3q8 -15 12 -27t13 -16q0 -2 -1 -3t-1 -3q3 0 7 -2q-18 -3 -35.5 2t-30.5 17q-5 -2 -11 -4.5t-11 -4.5q-10 18 -19.5 35.5t-20.5 33.5q4 -8 6.5 -17.5t9.5 -11.5q-2 0 -3 0.5
t0 -2.5q2 -5 7.5 -16.5t12.5 -23.5q-11 -3 -22 -5.5t-22 -4.5q-8 14 -16 29t-16 31q1 0 5 -3.5t7.5 -7l7 -7t5.5 -3.5q-2 5 -9 11t-11 12q-4 2 -1.5 6.5t-2.5 4.5q-4 -1 -1.5 -4.5t-0.5 -5.5q-4 7 -8.5 12t-7.5 8q-5 4 -4 3.5t4 -3.5q-4 -1 -4 -7q5 -20 14 -39t19 -39h-20
q-1 3 -2 6.5t-1 6.5q-6 2 -9.5 8t-6.5 13t-5.5 13.5t-6.5 9.5q-2 5 -1.5 7t-1.5 7q-4 0 -4.5 -1.5t-2.5 0.5q1 7 -2 15.5t-8.5 16t-11.5 14.5t-10 13q13 -32 27.5 -64t30.5 -64q-34 1 -67 14q-85 35 -130.5 106t-37.5 165q4 43 19.5 82.5t42 70.5t62.5 52t81 28q40 6 80 2.5
t76 -18.5zM390 338q-20 25 -53 35t-65 2t-55.5 -34.5t-24.5 -74.5t23 -76.5t56.5 -38t66 -1.5t52.5 33v155zM405 123q3 -5 5 -10t5 -8q1 4 -2.5 10t-7.5 8zM426 161q2 -4 3 -9.5t5 -4.5q1 5 -2.5 9.5t-5.5 4.5zM466 78q0 -2 2.5 -5t4.5 -6.5t2.5 -7.5t-3.5 -8q1 5 -2 8l-6 6
q1 -8 4 -11t6 -4t6.5 -1.5t6.5 -4.5q-7 11 -9.5 20t-11.5 14zM466 83q-8 17 -15 32.5t-17 26.5q5 -14 13 -31t19 -28zM499 156q2 -5 4 -10.5t7 -3.5q-2 5 -4 10.5t-7 3.5z" />
    <glyph glyph-name="b" unicode="b" horiz-adv-x="587" 
d="M423 203q-2 5 -3.5 9t-5.5 4q0 -8 3.5 -16t4.5 -13q-2 1 -4 3t-5 1q11 -27 25.5 -55.5t30.5 -58.5l-7 -7q-5 8 -7.5 15.5t-10.5 12.5q0 -2 2.5 -5.5t4.5 -7t2.5 -7.5t-3.5 -7q1 5 -2 8t-6 5q2 -12 7 -13t11 -3q-4 -3 -7 -6t-6 -5q-8 20 -20.5 37t-20.5 35q5 -17 10 -28.5
t14 -22.5q-2 -1 -4 -3q3 -8 5.5 -14.5t5.5 -12.5q-14 -10 -29 -18t-32 -14q-11 23 -23 45t-26 42q4 -9 6.5 -18t9.5 -11q-2 0 -3 0.5t0 -3.5q2 -6 12.5 -24t18.5 -33q-5 -2 -9 -3t-9 -2l-27 -6q-11 19 -21 38.5t-20 40.5q2 0 7.5 -7t8.5 -8q-1 3 -3.5 8t-5.5 10.5t-6 9.5
t-5 4q-4 -1 0.5 -6.5t1.5 -7.5q-4 6 -8.5 11t-7.5 8v1q-4 3 -3.5 2.5l3.5 -3.5q-4 -1 -4 -6q8 -26 19 -49.5t25 -47.5q-6 -1 -11.5 -1h-10.5q-5 8 -8 16.5t-4 16.5q-6 2 -9.5 8t-6.5 13t-5.5 13.5t-6.5 9.5q-2 4 -1.5 6.5t-1.5 6.5q-4 1 -4.5 -0.5t-2.5 -0.5q2 8 -1 16
t-8.5 16t-12 15t-10.5 12q15 -37 32 -74t37 -74q-26 1 -50.5 6.5t-47.5 15.5q-16 -16 -37.5 -19.5t-41 3.5t-33.5 24.5t-14 44.5v562q0 36 23 53.5t51 17.5t51 -17.5t23 -53.5v-129q73 23 146 5q43 -11 79 -34t61.5 -55.5t40.5 -72.5t16 -84q2 -45 -11 -87t-38 -77
q-14 27 -28 53.5t-31 53.5q-3 -2 -3 -4.5t-5 -2.5zM488 162l-4 10t-7 4q2 -5 4 -10.5t7 -3.5zM383 142q3 -4 5 -9.5t5 -8.5q1 5 -2.5 10.5t-7.5 7.5zM196 181q21 -27 56 -34.5t67.5 3t55.5 38.5t21 73q-2 47 -27 74.5t-58 36t-66 -0.5t-49 -34v-156zM404 180q2 -4 3 -9t5 -4
q1 5 -2.5 9.5t-5.5 3.5zM444 103q-7 17 -14.5 32.5t-17.5 26.5q5 -14 13 -31t19 -28z" />
    <glyph glyph-name="c" unicode="c" horiz-adv-x="593" 
d="M255 163v1v-1zM505 221q12 -7 21 -19t13 -26.5t2.5 -29t-10.5 -27.5q-28 -40 -67 -67.5t-84 -40.5q-7 17 -13.5 34t-14.5 32l-19 38t-17 35q27 2 49 14t38 30q20 23 47 33t55 -6zM376 55q0 5 4 9q-1 4 -3.5 3.5t-3.5 4.5q-5 -2 -5.5 -5t-2.5 -7q4 2 6 -1t5 -4zM507 100
q2 5 -2 10q-5 -2 -6 -4q1 -4 3.5 -4.5t4.5 -1.5zM216 18q2 0 3 -1h-1zM285 122q-2 5 -3.5 13t-9.5 5q14 -35 29.5 -69.5t32.5 -68.5q-5 0 -9 -0.5t-8 -0.5q-3 8 -6 15.5t-8 21.5q-2 -1 -3 0t-3 0q-1 -8 3 -17.5t9 -19.5q-31 0 -66 8q-5 2 -10 3t-10 3q-21 50 -43.5 95
t-47.5 85l6 -18t9 -11q-2 -1 -2.5 -0.5t0.5 -2.5q1 -5 7.5 -17t13.5 -24.5t12.5 -23t5.5 -11.5q0 -10 8 -24t15 -23q-6 1 -0.5 -6.5t6.5 -14.5q-16 6 -30 14t-28 17q-14 29 -31.5 59t-34.5 65q3 -1 5.5 -1t5.5 -1q-2 5 1 8t-1 8q-4 2 -5 0t-5 -1q-5 -1 -2.5 -4.5t0.5 -5.5
q-10 13 -17 19h1q-5 4 -4.5 3.5l3.5 -3.5q-2 -1 -4 -7q8 -26 20.5 -51.5t26.5 -50.5q-29 32 -45.5 71.5t-18.5 84.5t9.5 87.5t35 78.5t58 62.5t78.5 40.5q38 11 78 11t77.5 -10.5t70.5 -32t58 -52.5q19 -24 21 -53t-21 -52q-10 -10 -23.5 -15.5t-28.5 -5.5t-29 5t-24 16
q-17 19 -33.5 30t-30.5 16t-24 6t-15 1q-13 1 -31 -2.5t-34.5 -14.5t-29 -32t-14.5 -55q0 -24 5.5 -42.5t15.5 -32.5q3 -8 6.5 -14t8.5 -13q-2 -1 -4 -3q8 -15 11.5 -27.5t12.5 -16.5q1 -2 0 -3t-1 -3q4 1 8 -4q2 -5 6.5 -15.5t13.5 -14.5q0 -6 4 -15t9 -6q-7 19 -16.5 39.5
t-23.5 28.5q2 1 2 5q-3 11 -8.5 21.5t-12.5 21.5q4 -3 7 -6t7 -5q3 -4 6 -4.5t7 -2.5t5 -2q1 -1 1.5 -1t1.5 -1q-1 0 -1 1q5 -2 13 -4q10 -19 18.5 -38.5t15.5 -39.5q-8 8 -16 21t-15 26zM359 378q-2 0 -4 1t-5 0q2 -5 3 -6t1 -6l6 3q-2 3 -0.5 4.5t-0.5 3.5zM188 234
q2 -4 4 -9.5t6 -8.5q0 4 -3 10t-7 8z" />
    <glyph glyph-name="d" unicode="d" horiz-adv-x="592" 
d="M541 148v-72q0 -21 -8.5 -35.5t-21.5 -23t-29 -11.5t-32 0q-7 17 -14 33.5t-15 31.5q-12 25 -23 48l-22 46q5 4 9 8.5t8 9.5v155q-18 25 -51 34.5t-66 1t-58 -34.5t-27 -71q-2 -34 8 -58t26.5 -39t38 -22t43.5 -7q4 -9 7.5 -15.5t9.5 -9.5q0 -2 -1 -3t0 -3q4 1 8 -4
q1 -5 6 -15.5t14 -14.5q0 -6 4 -14.5t9 -6.5q-8 19 -17.5 39.5t-23.5 28.5q3 1 2 5q-2 8 -4 14q8 1 15 3l14 4q10 -20 19 -40t17 -41q-8 8 -16 21t-15 26q-3 5 -4.5 13t-9.5 5q12 -30 25.5 -60t27.5 -59q-3 -1 -6.5 -2t-7.5 -2q-2 4 -3.5 9t-4.5 12q-2 -1 -2.5 0t-2.5 0
q-1 -5 1 -11t4 -13q-38 -9 -75 -8q-22 53 -45.5 100t-49.5 89q3 -9 5.5 -18t9.5 -11h-3t0 -3q1 -5 7.5 -17t14 -24.5t13 -22.5t5.5 -11q0 -11 8 -25t15 -23q-6 1 -0.5 -7t5.5 -14q1 -2 3 -1t3 -1q-3 -4 -1 -10q-23 2 -42 7q-6 8 -8 12q-15 33 -36.5 69t-41.5 79q2 0 5 -0.5
t6 -0.5q-2 5 -6 5.5t-7 -1.5q-4 6 -8.5 11t-7.5 8v1q-4 3 -3.5 2.5l3.5 -3.5q-4 -1 -4 -7q13 -43 37 -83t42 -83q-6 2 -11.5 4.5t-11.5 4.5q-5 9 -10 12q-2 9 -7.5 18.5t-11.5 20t-11 21t-6 21.5q-6 2 -9.5 8t-6.5 12.5t-5.5 13.5t-6.5 10q-2 4 -1.5 6.5t-1.5 6.5
q-4 1 -4.5 -1t-2.5 0q2 8 -1 16t-8.5 16t-12 15t-10.5 12q20 -50 44.5 -99t50.5 -97q-31 18 -55.5 44t-40.5 56.5t-23 65.5t-2 73q5 42 20.5 82t41 72.5t61 55t80.5 30.5q35 6 70.5 4.5t68.5 -12.5v129q0 36 23 54t51 18t51 -18t23 -54v-477v-13zM430 364q-2 3 -0.5 4.5
t-0.5 3.5q-2 0 -4 1t-5 0q2 -5 3 -6t1 -6zM445 49q1 5 4 9q-1 4 -3.5 3.5t-2.5 4.5q-5 -2 -6 -5t-2 -7q4 2 6 -1t4 -4z" />
    <glyph glyph-name="e" unicode="e" horiz-adv-x="591" 
d="M503 220q12 -8 21 -20t13.5 -26t3 -29t-10.5 -27q-36 -51 -87 -80q-17 35 -32.5 67.5t-31.5 63.5q14 12 23 24q19 24 46.5 33.5t54.5 -6.5zM377 82q-2 5 -3.5 13t-9.5 5q8 -21 17 -42t19 -41q-23 -9 -47 -13t-49 -4q-19 42 -38.5 81t-41.5 74l6 -18t9 -11h-2.5t0.5 -3
q1 -5 7.5 -17t13.5 -24.5t12.5 -22.5t5.5 -11q0 -11 8 -25t15 -23q-13 1 -25.5 2.5t-24.5 4.5q-15 29 -33 60t-35 67q3 -1 2 2t-3 1q-10 13 -17 19h1q-5 4 -4.5 3.5l3.5 -3.5q-2 -1 -4 -7q11 -35 29.5 -68t35.5 -68q-7 2 -13.5 5t-13.5 6q-8 14 -17 29t-11 32q-6 2 -9.5 8
t-6 12.5t-5.5 13.5t-7 10q-2 4 -1 6.5t-2 6.5q-3 1 -4 -1t-3 0q2 8 -1 16t-8.5 16t-11.5 15t-10 12q16 -42 36 -83.5t42 -83.5q-57 32 -91.5 86.5t-37.5 122.5q-2 45 9.5 87.5t35 78.5t58 62.5t78.5 39.5q37 12 77 12t77.5 -10.5t71 -32t58.5 -52.5q19 -24 21 -53t-21 -52
q-10 -10 -24 -15.5t-29 -6t-29 4.5t-23 17q-5 6 -10 11t-9 11q-18 24 -44.5 34.5t-53 7.5t-49 -20.5t-32.5 -48.5q20 1 40 1h40q19 0 32.5 -8.5t20 -21.5t7.5 -28.5t-5 -29.5q-8 15 -19 32q-3 -2 -3 -4.5t-5 -2.5q-2 5 -3.5 9t-4.5 4q-1 -9 2.5 -17t4.5 -13l-4 4t-5 1
q4 -10 8 -19t9 -19q-4 -3 -8 -4q-2 3 -4.5 6.5t-4.5 6.5q1 -5 5 -15q-9 -4 -23 -4q-19 0 -38 -0.5t-39 -0.5v-1q14 -31 43 -45.5t63 -8.5q1 -2 2.5 -4.5t3.5 -4.5q-2 -1 -4 -3q8 -15 11.5 -27.5t12.5 -16.5q1 -2 0 -3t-1 -3q4 1 8 -4q2 -5 6.5 -15.5t13.5 -14.5q0 -6 4 -15
t9 -6q-7 19 -16.5 39.5t-23.5 28.5q2 1 2 5q-3 12 -9 23.5t-13 22.5q4 1 7.5 2t8.5 3q2 -5 7 -11.5t-3 -11.5q1 5 -2 8t-6 5q1 -8 4 -10.5t6 -3.5t7 -2t7 -4q-7 9 -9.5 17t-8.5 14q2 1 4.5 2t5.5 2l28.5 -57t25.5 -59q-8 8 -16 21t-15 26zM309 219q0 5 -3.5 9t-5.5 4
q2 -4 3 -9t6 -4zM451 338q-2 0 -4 1t-5 0q2 -5 3 -6t1 -6l6 3q-2 3 -0.5 4.5t-0.5 3.5z" />
    <glyph glyph-name="f" unicode="f" horiz-adv-x="588" 
d="M423 249q36 0 53.5 -23t17.5 -51t-17.5 -51t-53.5 -23h-13q0 1 0.5 1.5t0.5 1.5q-1 4 -3.5 3.5t-2.5 4.5q-5 -2 -6 -5l-2 -6h-6q-2 5 -4 8.5t-4 7.5q-18 36 -33.5 68.5t-31.5 63.5h105zM317 162q-3 5 -4.5 12.5t-9.5 5.5q8 -20 16.5 -39.5t17.5 -39.5h-12l1 1
q-8 19 -17.5 39.5t-23.5 28.5q3 1 2 4q-5 21 -17.5 39t-22.5 36h21q3 -4 6 -7.5t6 -6.5q-4 10 -6 14h9q17 -32 34.5 -65.5t30.5 -68.5q-8 8 -16 21t-15 26zM278 216q1 -8 4 -11t6 -4t6.5 -1.5t6.5 -4.5q-7 11 -9.5 20t-11.5 14q0 -2 2.5 -5t4.5 -6.5t2.5 -7.5t-3.5 -7
q1 5 -2 7.5t-6 5.5zM82 111q-14 8 -22.5 22t-10.5 29.5t1.5 31.5t12.5 29q34 -74 74.5 -146t78.5 -141q-14 -18 -37 -24t-44.5 0t-37 23t-15.5 46v130zM537 499q7 -35 -11.5 -58.5t-45.5 -31t-53 3.5t-33 46q-11 50 -35.5 72t-51 20.5t-47.5 -24t-25 -60.5q-3 -27 -4 -64
t-1 -70.5t0.5 -58t0.5 -25.5h15q4 -12 8 -21t12 -18q-4 -1 -5 -4q8 -14 12 -26.5t13 -16.5q0 -2 -1 -3t-1 -3q6 0 9 -4q1 -5 6 -15.5t14 -15.5q0 -5 3 -12.5t7 -8.5h-89q-17 37 -34 70.5t-37 62.5q4 -8 6.5 -17t9.5 -11q-2 -1 -3 -0.5t0 -2.5q1 -5 7.5 -17t14 -24.5t13 -23
t5.5 -11.5q0 -8 4.5 -17.5t9.5 -17.5v-82q-8 15 -15.5 29.5t-15.5 25.5q-15 34 -36.5 70t-41.5 79q2 -1 5 -1t6 -1q-2 5 -1.5 4.5t-3.5 5.5q-5 1 -3 2.5t-3 1.5q-4 -1 -1.5 -4t-0.5 -5q-4 6 -8.5 11t-7.5 8q-4 -1 -4 -7q8 -27 20.5 -52t26.5 -50.5t26.5 -51.5t20.5 -53
q2 -5 5.5 -10.5t6 -11.5t3 -12t-2.5 -10q-7 20 -20 42t-25 37q-3 19 -15 27q-2 9 -7.5 18.5t-11.5 20t-11 21t-6 21.5q-6 2 -9.5 8t-6.5 12.5t-5.5 13t-6.5 9.5q-2 5 -1.5 7t-1.5 7q-4 0 -4.5 -1.5t-2.5 0.5q2 5 0 10q7 7 12 9v79q0 41 1 83.5t7 83t19.5 78t37.5 67.5
q19 24 46 40.5t57 24.5t61.5 7t60.5 -13q64 -25 106.5 -74.5t57.5 -116.5zM219 274q3 -4 5 -9.5t5 -8.5q1 4 -2.5 10t-7.5 8z" />
    <glyph glyph-name="g" unicode="g" 
d="M396 -170q-3 5 -4.5 13t-9.5 5q8 -20 16 -38.5t17 -37.5q-36 -13 -74 -15h-11.5t-11.5 1q-17 39 -36 76t-40 69l6 -18t10 -11h-3t0 -3q1 -5 7.5 -17t13.5 -24.5t13 -22.5t6 -11q-1 -8 4 -18.5t11 -19.5q-13 1 -25 3t-24 5q-14 26 -30.5 55t-31.5 61q3 -1 5.5 -1t5.5 -1
q-2 5 1 8t-1 9q-4 1 -5 -1t-5 -1q-5 -1 -2.5 -4.5t0.5 -5.5q-4 6 -8.5 11t-7.5 8v1q-8 5 0 -1q-3 -1 -3.5 -3t-1.5 -4q10 -32 26 -62t32 -61q-12 4 -28 12q-6 11 -12 23t-7 24q-11 4 -16 20.5t-13 23.5q-2 4 -1 6.5t-1 6.5q-4 1 -4.5 -1t-2.5 0q1 8 -2 16t-8.5 16t-11.5 15
t-10 12q14 -38 32.5 -76t38.5 -76q-56 33 -96 89q-9 12 -10.5 27t3 29t13.5 26t21 19q28 17 56 8t45 -34q6 -9 17.5 -18.5t25.5 -18t30.5 -13.5t31.5 -5h3q3 -8 6.5 -14t8.5 -13q-2 -1 -4 -3q8 -15 11.5 -27.5t12.5 -16.5q1 -2 0 -3t-1 -3q4 1 9 -4q1 -5 6 -15.5t14 -14.5
q0 -6 3.5 -15t8.5 -6q-7 19 -16.5 39.5t-23.5 28.5q2 1 2 5q-5 17 -14.5 32.5t-18.5 30.5q11 0 20 3l6 -6q-2 4 -3 7q6 2 8 3q17 -31 33.5 -63.5t28.5 -66.5q-8 8 -16 21t-14 26zM356 -116q2 -8 4.5 -10.5t6 -3.5l7 -2t6.5 -4q-8 10 -10.5 19t-10.5 15q-1 -2 1.5 -5.5l5 -7
t3 -7.5t-3.5 -7q1 5 -2.5 8t-6.5 5zM541 189q0 -34 0.5 -71.5t0.5 -74.5t-1 -72t-5 -63q-5 -38 -26.5 -66.5t-51.5 -48.5q-20 39 -36.5 74t-33.5 68q3 7 3.5 12.5t0.5 7.5v21q2 -5 3.5 -10.5t6.5 -3.5q-2 5 -3.5 10t-6.5 4v39q-11 -4 -21.5 -6.5t-21.5 -4.5l-3 6
q-4 -2 -4 -4.5t-5 -2.5q-2 5 -3 9t-5 4q0 -8 3 -15q-55 -5 -105 11q-42 14 -77 40t-59 60.5t-35 76.5t-6 88q5 43 20.5 83t41 72t61 54.5t80.5 30.5q84 15 160 -15q15 15 37 19.5t42.5 -1.5t35 -23t14.5 -45q-1 -66 -1 -131.5v-131.5zM393 336q-9 21 -27.5 33.5t-41.5 16.5
t-47.5 -1.5t-45 -19.5t-34 -38t-14.5 -58q-2 -48 23.5 -78.5t60 -41.5t70.5 -3t56 37v153zM464 75q4 2 7 3q-2 3 -1 4.5t-1 3.5q-2 0 -4 1t-5 0q2 -5 3.5 -6t0.5 -6z" />
    <glyph glyph-name="h" unicode="h" 
d="M390 150q17 -40 36 -78.5t37 -76.5h-1q-14 0 -27.5 6t-24 16t-17 23.5t-5.5 28.5q1 11 1.5 22.5t0.5 22.5q3 -3 6 -2l-6 15v23zM399 88q-1 -8 3 -18t10 -20.5t12 -20t9 -16.5q-5 14 -8.5 22.5t-6.5 16t-6 15.5t-7 21q-2 -1 -3 0t-3 0zM418 125q-8 8 -15 19.5t-13 22.5
q-1 8 -1 14t-1 13l16 -34t14 -35zM307 518q79 -11 128 -57.5t74 -112t30 -139.5t-2 -140q-2 -14 -6.5 -26t-12.5 -22q-3 5 -5.5 10.5t-5.5 10.5q2 -10 9 -23q-6 -8 -13 -12q-12 32 -23.5 62.5t-25.5 57.5q-27 54 -48.5 99t-47.5 90q-10 20 -21 35q-1 0 -3 -4q-5 5 -8 6
q-2 5 -5 5v-2q-14 8 -30 8q-3 0 -17 -2t-30 -14t-29 -37.5t-16 -72.5q-2 0 -3 -1t-4 -1q-5 -1 -2.5 -4t0.5 -5q-10 13 -17 19h1q-5 4 -4.5 3.5l3.5 -3.5q-2 -1 -4 -7q10 -32 29 -69v-40q-7 11 -12 22t-6 23q-6 2 -9.5 8t-6.5 12.5l-6 13t-7 9.5q-2 5 -1 7t-2 7q-3 0 -4 -1.5
t-3 0.5q2 8 -1 16t-8.5 16t-11.5 15t-10 12q18 -47 40.5 -93t47.5 -92v-34q0 -36 -23 -53.5t-51 -17.5t-51 17.5t-23 53.5v568q0 36 23 53.5t51 17.5t51 -17.5t23 -53.5v-143q26 14 53.5 20t55.5 2zM384 318q2 -5 3.5 -11t6.5 -4q-2 5 -3.5 10.5t-6.5 4.5zM456 417q4 2 6 2
q-2 3 -0.5 4.5t-0.5 4.5q-2 0 -4 1t-5 -1q2 -5 3 -5.5t1 -5.5zM478 105q0 5 4 9q-1 4 -3.5 3.5t-3.5 4.5q-5 -2 -5.5 -5.5t-2.5 -6.5q4 1 6 -1.5t5 -3.5zM498 58q0 -3 1 -7t6 -3q-2 4 -2.5 8t-4.5 2zM198 209q-2 4 -3.5 7.5t-3.5 7.5q2 -1 7 -1v-14z" />
    <glyph glyph-name="i" unicode="i" horiz-adv-x="246" 
d="M172 289q-2 5 -3.5 9t-4.5 4q-1 -9 2.5 -17t4.5 -13q-2 1 -4 3.5t-5 0.5q7 -17 15.5 -35t18.5 -37v-23l-2 2q-1 -1 2 -6v-12q-1 2 -2 2.5t-3 2.5q1 -8 5 -12v-16q-8 20 -20.5 37.5t-20.5 35.5q5 -17 10 -28.5t14 -22.5q-3 -1 -4 -4q7 -14 10.5 -25t10.5 -16v-47
q0 -21 -8 -35.5t-21 -23.5q-21 48 -43 92.5t-47 82.5q3 -8 6 -17t9 -11q-2 -1 -2.5 -0.5t0.5 -2.5q1 -5 7.5 -17t13.5 -24.5t12.5 -23t5.5 -11.5q0 -10 8 -24t15 -23q-6 1 -0.5 -7t6.5 -15q0 -2 2 -0.5t3 -0.5q-17 -11 -39 -11q-3 5 -6 9.5t-6 9.5q-12 28 -29.5 57.5
t-34.5 62.5v318q0 36 23 54t51 18t51 -18t23 -54v-188q-4 7 -7.5 13.5t-8.5 12.5q-3 -1 -3 -3.5t-5 -2.5zM133 228l4 -10t6 -8q0 4 -3.5 10t-6.5 8zM153 266q2 -4 3 -9.5t6 -3.5q0 4 -3.5 8.5t-5.5 4.5zM193 189q-7 16 -14.5 31.5t-16.5 26.5q5 -14 12.5 -31t18.5 -27z
M122 564q-36 0 -53.5 23t-17.5 51t17.5 51t53.5 23t54 -23t18 -51t-18 -51t-54 -23zM48 101q13 -24 25.5 -48t22.5 -49q-14 5 -24 13q-5 15 -14 21q-1 5 -3.5 10.5t-5.5 11.5q0 3 -0.5 5.5t-0.5 6.5v29z" />
    <glyph glyph-name="j" unicode="j" horiz-adv-x="249" 
d="M-122 -42q8 -12 20 -24q25 -46 50 -90.5t48 -88.5q-75 -2 -139.5 32.5t-106.5 95.5q-9 12 -10.5 27t3 29t13.5 26t21 19q27 17 55.5 8t45.5 -34zM31 -150q-5 6 -9 14t-11 12q7 -29 22.5 -55.5t27.5 -54.5q-3 -1 -5.5 -1.5t-5.5 -1.5q-22 28 -39 65t-36 66q20 -1 38 10
q2 -6 2 -9q1 -2 3 -0.5t3 -0.5q-3 -5 -1.5 -9.5t4 -10t5 -11.5t2.5 -13zM88 -2q-2 5 -4 13t-10 6q19 -48 41.5 -94.5t44.5 -91.5q-16 -19 -33 -32q-2 2 -2.5 3.5t-1.5 3.5q-2 4 -5.5 11.5t-8 16t-9.5 15.5t-11 10q7 -22 13 -38t11 -31q-16 -11 -39 -19q-2 5 -4 9t-4 9
q-5 12 -9 24.5t-9 25.5q-13 33 -29 70q14 11 22 32t8 51v15q4 -6 8 -7q0 -2 -1 -3t0 -3q5 0 8 -4q1 -5 6 -15.5t14 -15.5q0 -5 4 -14t9 -6q-8 19 -17.5 39.5t-23.5 28.5q3 1 2 4q-3 13 -9 25v16q4 -14 10.5 -13.5t12.5 -6.5q-7 11 -9.5 20t-11.5 14q0 -2 2.5 -5t4.5 -6.5
t2.5 -7.5t-3.5 -8q1 5 -2 8t-6 5v21q2 0 2 -2q0 1 -2 5v20q18 -35 37 -70.5t33 -73.5q-8 8 -16 21t-15 25zM100 -85q-1 -8 3 -18t10 -20.5t12 -20t9 -16.5q-5 14 -8.5 22.5t-6.5 16t-6 15.5t-8 21q-2 -1 -2.5 0t-2.5 0zM-24 -185q-7 20 -20 42t-25 37q-2 10 -6 17
q12 -8 24 -12q8 -18 15 -40q2 -5 5.5 -10.5t6 -11.5t3 -12t-2.5 -10zM197 446v-66.5t0.5 -102t0.5 -118t-0.5 -114t-1.5 -91t-3 -48.5q-1 -13 -6 -27q-8 20 -16 39t-17 36q-29 58 -52.5 107.5t-52.5 98.5v286q0 36 23 53.5t51 17.5t51 -17.5t23 -53.5zM85 144
q2 -5 3.5 -10.5t6.5 -3.5q-2 5 -3.5 10.5t-6.5 3.5zM157 244q4 2 6 2q-2 3 -0.5 4.5t-0.5 4.5q-2 -1 -4 0.5t-5 -0.5q2 -5 3 -5.5t1 -5.5zM178 -68q2 6 5 8q-1 5 -4 4.5t-3 4.5q-5 -2 -6 -5.5t-2 -6.5q4 1 6 -1.5t4 -3.5zM119 563q-36 0 -53.5 23t-17.5 51t17.5 51t53.5 23
t54 -23t18 -51t-18 -51t-54 -23z" />
    <glyph glyph-name="k" unicode="k" horiz-adv-x="592" 
d="M428 301q44 -40 70.5 -96.5t36.5 -115.5q5 -23 -3 -45q-1 2 -1 3t-1 3q0 -5 1 -8q-3 -11 -9 -18q-11 29 -22 57t-24 54q-32 64 -57.5 117t-58.5 107q-4 -1 -3.5 -3.5t-5.5 -2.5q-2 4 -3 8t-5 5q0 -9 3.5 -17t3.5 -13q-2 1 -3.5 3.5t-5.5 0.5q9 -24 22 -49t27 -51
t27.5 -52.5t23.5 -54.5q-8 8 -16.5 21t-14.5 25q-3 5 -4.5 13t-9.5 6q20 -52 44 -101t47 -98q-2 0 -3 -1q-21 -5 -46 3q-5 11 -12 22.5t-15 16.5q2 -9 5 -16.5t5 -14.5q-24 16 -28 41q-2 9 -4.5 20.5t-5.5 22.5t-5.5 20.5t-5.5 15.5l-10 22.5t-16.5 27t-26 23.5t-39.5 10
l-12 20l-12 20q3 -8 6 -17.5t10 -11.5q-2 0 -3 0.5t0 -2.5q1 -2 1.5 -4.5t2.5 -5.5q-27 -2 -42 -15q-5 8 -9 17t-9 18q3 0 4 6.5t-3 6.5q-4 -1 -2 -4.5t0 -4.5q-4 6 -8.5 11t-7.5 8q-5 4 -4.5 3.5t4.5 -3.5q-3 -1 -3.5 -3t-1.5 -4q5 -17 12 -33t15 -32q-5 -9 -10 -22
q-2 5 -4 11t-2 11q-6 2 -9.5 8t-6.5 13t-5.5 13.5t-6.5 9.5q-3 5 -2 7t-1 7q-4 0 -4.5 -1.5t-2.5 0.5q1 7 -2 15.5t-8.5 16t-11.5 14.5t-10 13q15 -39 33.5 -77.5t38.5 -76.5q-4 -16 -4 -30.5v-22.5v-19q0 -24 -11 -39.5t-27.5 -23.5t-36 -8t-36 8t-27.5 23.5t-11 39.5v566
q0 24 11 39.5t27.5 23.5t36 8t36 -8t27.5 -23.5t11 -39.5v-287q51 4 87.5 23.5t61 42t37.5 43t16 26.5q18 31 46.5 35t52.5 -10t35.5 -41.5t-6.5 -58.5q-18 -32 -44.5 -59.5t-57.5 -50.5zM483 436q-2 -1 -4 0.5t-5 -0.5q2 -5 3.5 -5.5t0.5 -5.5q2 1 3.5 1t3.5 1q-2 3 -1 4.5
t-1 4.5zM422 95q-1 -8 3 -18t9.5 -20t11.5 -19.5t9 -16.5q-5 14 -8 22.5t-6 16t-6 15.5t-8 21q-2 -1 -2.5 0t-2.5 -1zM312 292q2 -5 4.5 -10t5.5 -8q1 4 -2.5 10t-7.5 8zM341 316q1 5 -2.5 9.5t-5.5 4.5q2 -4 2.5 -9.5t5.5 -4.5zM418 119q-7 20 -16.5 40.5t-23.5 28.5
q2 1 2 4q-6 24 -21.5 44.5t-23.5 41.5q5 -17 10 -28t13 -23q-1 0 -4 -3q8 -15 11.5 -27t12.5 -16q1 -2 0 -3t-1 -3q6 0 9 -4q1 -5 6 -16t14 -15q0 -6 3.5 -14.5t8.5 -6.5zM373 247q-1 -2 1.5 -5t5 -6.5t3 -7.5t-3.5 -8q1 5 -2 8t-7 6q2 -8 4.5 -11t6 -4t7 -1.5t6.5 -4.5
q-8 11 -10.5 20t-10.5 14zM373 252q-8 17 -15 32.5t-17 26.5q5 -14 13 -31t19 -28zM406 325q2 -5 3.5 -10.5t6.5 -3.5q-2 5 -3.5 10.5t-6.5 3.5zM500 113q0 4 4 8q-1 5 -3.5 4.5t-3.5 4.5q-5 -2 -5.5 -5.5t-2.5 -6.5q4 1 6 -1.5t5 -3.5zM520 66q0 -3 1 -7t6 -3q-2 3 -2.5 7
t-4.5 3z" />
    <glyph glyph-name="l" unicode="l" horiz-adv-x="249" 
d="M102 321q-2 5 -3.5 9t-5.5 4q0 -9 3.5 -17t3.5 -13q-2 2 -3.5 4t-4.5 1q9 -24 22 -49t26.5 -51t27 -53t23.5 -55q-8 8 -16.5 21t-14.5 26q-3 5 -4.5 13t-9.5 5q11 -29 23.5 -56.5t25.5 -54.5q-1 -5 -3 -10l-4 -10q-2 6 -4.5 12.5t-6.5 16.5q-2 -1 -2.5 0t-2.5 0
q-1 -14 12 -36q-12 -16 -30.5 -23t-38.5 -5q-32 80 -66 146v490q0 36 23 54t51 18t51 -18t23 -54v-473q-21 45 -41.5 84.5t-45.5 80.5q-4 -2 -3.5 -4.5t-4.5 -2.5zM167 280l-4 10t-7 4q2 -5 4 -10.5t7 -3.5zM62 260q3 -4 5 -9.5t5 -8.5q1 4 -2.5 10t-7.5 8zM91 285
q1 5 -2.5 9.5t-5.5 3.5q2 -4 3 -9t5 -4zM169 88q-8 19 -17.5 39.5t-23.5 28.5q3 1 2 5q-5 24 -21 44.5t-24 41.5q5 -17 10 -28.5t14 -22.5q-3 -1 -5 -3q8 -15 12 -27.5t13 -16.5q0 -2 -1 -3t-1 -3q5 1 9 -4q1 -5 6 -15.5t14 -14.5q0 -6 4 -15t9 -6zM123 216q0 -2 2.5 -5.5
t4.5 -7t2.5 -7.5t-3.5 -7q1 5 -2 8t-6 5q1 -8 4 -10.5t6 -3.5t6.5 -2t6.5 -4q-7 10 -9.5 19t-11.5 15zM123 221q-7 17 -14.5 32.5t-17.5 26.5q5 -14 13 -31.5t19 -27.5zM93 43q-5 -8 2 -18t8 -23q-1 0 -2 1q-5 6 -8.5 12.5t-9.5 9.5q2 -5 2.5 -9t2.5 -9q-17 8 -28 24t-11 41
v61q10 -17 10 -19q0 -11 8 -25t14 -23q-5 1 0.5 -7t5.5 -14q1 -2 3 -1t3 -1z" />
    <glyph glyph-name="m" unicode="m" horiz-adv-x="825" 
d="M49 63q5 -8 8 -14t3 -7q0 -6 3 -13q-12 14 -14 34zM661 97q-8 8 -16 21t-15 25q-2 4 -3 9t-4 8v21q11 -21 20.5 -42t17.5 -42zM624 119v13t-1 12q16 -37 33 -73t34 -71q-6 1 -11.5 2t-10.5 3q-5 15 -9 24.5t-12 29.5q-2 0 -2.5 1t-2.5 -1q-2 -11 5.5 -24.5t15.5 -27.5
q-17 8 -28 24t-11 41v33q1 0 1 -0.5t1 -0.5q0 -6 4 -14.5t9 -6.5q-4 9 -7 18.5t-8 17.5zM603 517q47 -9 78 -35.5t50 -64.5t28 -83.5t12 -92t2 -90.5t-1 -79q0 -24 -10.5 -39.5t-27.5 -23.5l-18 46t-20 43q-20 42 -37.5 78.5t-36.5 71.5q-2 59 -14.5 92t-47.5 34
q-21 0 -33.5 -11t-20 -28t-10.5 -38t-3 -41v-67q-5 7 -8.5 13.5t-8.5 13.5q4 -8 6.5 -17.5t9.5 -11.5q-2 0 -3 0.5t0 -2.5q1 -2 1.5 -4t2.5 -5v-48.5t-1 -42.5q-14 26 -29 53t-30 57q3 0 6 -0.5t6 -0.5q-2 5 1 7.5t-2 8.5q-4 1 -4.5 -1t-5.5 -1q-4 -1 -1.5 -4.5t-0.5 -5.5
q-4 6 -8.5 11.5t-7.5 8.5q-4 3 -3.5 3t3.5 -3q-4 -2 -4 -7q12 -42 35 -81t42 -81q-2 -5 -4.5 -9.5t-4.5 -9.5q-3 3 -7 9q-3 19 -15 27q-2 9 -7.5 18.5t-11.5 19.5t-11 20.5t-6 21.5q-6 2 -9.5 8t-6.5 13t-5.5 13.5t-6.5 9.5q-2 5 -1.5 7t-1.5 6q-4 1 -4.5 -0.5t-2.5 0.5
q2 7 -1 15.5t-8.5 16t-12 14.5t-10.5 12q24 -61 55.5 -121t63.5 -119q-14 -14 -34 -18.5t-39 0t-34 17.5t-19 36q-2 42 -2 97.5t-2 109.5q-2 42 -12.5 67t-25.5 37t-32.5 12t-33 -9t-26 -25t-11.5 -36q-1 -17 -1.5 -44.5t-1.5 -57.5t-1.5 -59t-0.5 -51q-20 43 -40 81.5
t-44 77.5q-4 -1 -3.5 -4t-4.5 -3q-2 5 -3.5 9t-5.5 5q0 -9 3.5 -17t3.5 -13q-2 1 -3.5 3t-4.5 1q18 -46 46.5 -95t48.5 -102l-2 -4q-7 8 -13.5 19t-11.5 21q-3 5 -4.5 13t-9.5 6q7 -18 14.5 -36t15.5 -35q-2 -2 -4 -3.5t-4 -3.5q-7 20 -16.5 40t-23.5 28q3 1 2 4
q-5 24 -21 44.5t-24 41.5q5 -17 10 -28t14 -23q-2 0 -5 -3q8 -15 12 -27.5t13 -15.5q0 -2 -1 -3t-1 -3q6 0 9 -4q1 -5 6 -16t14 -15q0 -5 3 -12.5t7 -8.5q-19 -14 -43.5 -14t-44.5 12q-8 17 -15.5 33t-15.5 31v374q0 29 16 46.5t37.5 23t44.5 -1t37 -24.5q26 15 55 22t60 2
q42 -5 72.5 -22t52.5 -43q30 38 74 55.5t106 6.5zM63 189q3 -5 5 -10.5t5 -7.5q1 4 -2.5 10t-7.5 8zM84 226q2 -3 3 -8.5t5 -4.5q1 5 -2.5 9.5t-5.5 3.5zM124 144q0 -2 2.5 -5t4.5 -7t2.5 -7.5t-3.5 -7.5q1 5 -2 8t-6 5q1 -8 4 -10.5t6 -3.5t6.5 -2t6.5 -4q-7 11 -9.5 20
t-11.5 14zM124 149q-7 17 -14.5 32.5t-17.5 26.5q5 -14 13 -31t19 -28zM157 222q2 -5 4 -10.5t7 -3.5l-4 10t-7 4zM381 65q-5 -2 -6 -4q1 -6 8 -6q1 2 0 4.5t-2 5.5zM626 289q2 -5 4 -10.5t7 -3.5l-4 10t-7 4zM699 389q2 0 6 2q-2 3 -0.5 4.5t-0.5 3.5q-3 0 -4.5 1.5
t-4.5 -0.5q2 -5 3 -6t1 -5zM720 76q2 7 4 9q-1 4 -3.5 4t-2.5 5q-5 -2 -6 -5.5t-3 -6.5q4 1 6 -1.5t5 -4.5zM741 30q0 -4 1 -7.5t6 -2.5q-2 3 -3 7t-4 3z" />
    <glyph glyph-name="n" unicode="n" horiz-adv-x="604" 
d="M157 363q10 -24 21 -48.5t22 -49.5q-3 -21 -3 -36v-153q0 -36 -23 -54t-51 -18t-51 18t-23 54v378q0 30 16.5 47.5t39 22.5t45.5 -2.5t36 -27.5q28 17 59.5 24.5t63.5 3.5q72 -8 119 -47.5t74.5 -96.5t38.5 -124t11 -130q-2 3 -3 6t-4 2q0 -3 1.5 -7t5.5 -3
q0 -11 -0.5 -21t-1.5 -20q-11 32 -23 62t-26 57q-32 64 -57.5 117.5t-58.5 107.5q-4 -1 -3.5 -4t-4.5 -3q-2 5 -3.5 9t-5.5 5q0 -9 3.5 -17t3.5 -13q-2 1 -3.5 3t-4.5 1q9 -24 22 -49t26.5 -51t27 -52.5t23.5 -54.5q-8 8 -16.5 21t-14.5 25q-3 5 -4.5 13t-9.5 5
q24 -62 54 -120.5t56 -117.5q-13 -16 -32 -22q-8 13 -15 25.5t-15 23.5q-2 4 -5 11.5t-7.5 16t-9.5 15.5t-11 10q8 -26 15 -44.5t15 -38.5q-3 -11 0 -22q-15 2 -28.5 10t-22.5 21q-2 2 -2 5q-4 8 -6.5 15.5t-4.5 15.5q-2 3 0 6q2 20 2.5 40.5t-0.5 40.5q-1 28 -3.5 54.5
t-7.5 49.5q5 -10 11 -12q0 -2 -1 -2.5t-1 -2.5q6 0 9 -5q1 -5 6 -15.5t14 -14.5q0 -6 4 -14.5t9 -6.5q-8 20 -17.5 40t-23.5 28q3 1 2 5q-5 24 -21 44.5t-24 41.5q2 -6 2 -7q-27 38 -74 38q-26 0 -42.5 -15t-27.5 -37q-1 0 0 -1q-5 -9 -8 -18.5t-6 -19.5q-1 4 -5 8
q-2 4 -1.5 6.5t-1.5 6.5q-4 1 -4.5 -0.5t-2.5 0.5q1 7 -2 15.5t-8.5 16t-11.5 14.5t-10 12zM447 161q-1 -8 3 -18t9.5 -20t12 -19.5t9.5 -16.5q-5 14 -8.5 22.5t-6.5 16l-6 15t-8 20.5q-2 0 -2.5 1t-2.5 -1zM523 195q-5 -2 -6 -5t-3 -6q4 1 6 -1.5t5 -4.5q2 7 4 9
q-1 4 -3.5 3.5t-2.5 4.5zM442 377l-4 10t-7 4q2 -5 4 -10.5t7 -3.5zM398 313q0 -2 2.5 -5.5t4.5 -7t2.5 -7.5t-3.5 -7q1 5 -2 8t-6 5q1 -8 4 -10.5t6 -3.5t6.5 -2t6.5 -4q-7 11 -9.5 20t-11.5 14zM398 318q-8 17 -15 32.5t-17 26.5q5 -14 13 -31t19 -28zM366 382
q1 5 -2.5 9.5t-5.5 3.5q2 -3 3 -8.5t5 -4.5z" />
    <glyph glyph-name="o" unicode="o" horiz-adv-x="604" 
d="M362 166q5 3 8.5 6.5l7.5 7.5q14 -34 33.5 -66.5t34.5 -67.5q-4 -3 -7.5 -5.5t-7.5 -4.5l-3 3q-2 8 -5.5 15.5t-9.5 11.5q-2 9 -7.5 18.5t-11.5 19.5t-11 21t-6 22q-5 2 -8.5 7t-6.5 12zM517 304q7 -17 15.5 -34.5t17.5 -35.5q0 -6 -0.5 -11.5t-1.5 -10.5q-1 -7 -2 -13
t-3 -12q-8 14 -17.5 28t-15.5 28q5 -17 10 -28.5t14 -22.5q-3 -1 -4 -4q5 -10 8 -19q-13 -40 -41 -74q-30 67 -65 121q3 -8 6 -17t9 -11q-2 -1 -2.5 -0.5t0.5 -2.5q1 -5 7.5 -17t13.5 -24.5t12.5 -23t5.5 -11.5q0 -8 7 -22q-14 -15 -29 -29q-15 31 -34.5 64.5t-38.5 71.5
l1 1q2 0 5 -0.5t5 -0.5q-2 5 1 7.5t-1 8.5h-2q10 24 9.5 52t-12.5 52t-35.5 40t-57.5 17q-35 0 -59 -16t-36.5 -40.5t-13.5 -53t10.5 -53t35 -41.5t60.5 -18q31 0 53 11q17 -32 34.5 -65t35.5 -65l-18 -9q0 2 -2 8q-5 -2 -6 -4q2 -5 4 -5q-55 -25 -114 -19q-21 1 -44 8
q-29 59 -54 110t-56 101q-3 -1 -3 -3.5t-5 -2.5q-2 5 -3.5 9t-5.5 4q0 -9 3.5 -17t3.5 -13q-2 1 -3.5 3.5t-4.5 0.5q17 -42 42 -86.5t46 -92.5q-5 2 -13 6q-2 3 -3.5 6.5t-3.5 6.5q-3 5 -4.5 12.5t-9.5 5.5q3 -7 5.5 -13t5.5 -13q-15 9 -27 17q1 1 0 3q-5 25 -21 45.5
t-24 41.5q5 -17 10 -28.5t14 -22.5q-4 -1 -5 -4q3 -5 5.5 -10.5t4.5 -10.5q-39 33 -61.5 81t-24.5 106q0 77 22.5 129t59.5 84t82.5 45t91.5 12q55 -2 97 -21t72 -49t48 -68.5t24 -79.5q-5 12 -12 20q-3 -1 -3 -3.5t-5 -2.5q-2 5 -3.5 9t-4.5 4q-1 -9 2.5 -17t4.5 -13
q-2 1 -4 3.5t-5 0.5zM84 153q3 -4 5 -9.5t5 -8.5q1 4 -2.5 10t-7.5 8zM105 191q2 -4 3 -9.5t5 -3.5q1 4 -2.5 8.5t-5.5 4.5zM145 108q0 -2 2.5 -5t4.5 -6.5t2.5 -7.5t-3.5 -7q1 5 -2 7.5t-6 5.5q1 -8 4 -11t6 -4t6.5 -1.5t6.5 -4.5q-7 11 -9.5 20t-11.5 14zM145 114
q-7 16 -14.5 31.5t-17.5 26.5q5 -14 13 -31t19 -27zM178 187q2 -5 4 -11t7 -4q-2 5 -4 10.5t-7 4.5zM488 256l4 -10t6 -8q0 4 -3.5 10t-6.5 8zM508 294q2 -4 3 -9.5t6 -3.5q0 4 -3.5 8.5t-5.5 4.5zM517 275q5 -14 12.5 -31t18.5 -27q-7 16 -14.5 31.5t-16.5 26.5z" />
    <glyph glyph-name="p" unicode="p" horiz-adv-x="592" 
d="M480 194q-2 5 -3 9t-5 4q0 -8 3.5 -16t3.5 -13q-2 1 -3.5 3t-5.5 1q7 -17 14.5 -33t16.5 -33q-2 -2 -2.5 -4t-2.5 -4q-6 13 -12 24.5t-14 20.5q4 -11 9.5 -24.5t13.5 -24.5l-6 -8l-6 -8q-5 8 -9.5 16t-7.5 16q6 -21 13 -36q-23 -27 -58 -48q-8 15 -16.5 29.5t-17.5 28.5
l6 -18t10 -11h-3t0 -3q2 -9 15 -29q-19 -10 -41 -18q-8 14 -15 28.5t-15 29.5q3 0 5.5 -0.5t5.5 -0.5q-2 5 1 7.5t-1 8.5q-4 1 -5 -1t-5 -1q-5 -1 -2.5 -4.5t0.5 -5.5q-4 6 -8.5 11t-7.5 8v1q-8 5 0 -1q-3 -1 -3.5 -2.5t-1.5 -3.5q6 -20 15 -39.5t19 -39.5q-7 -2 -19 -4
q-2 5 -3 9t-1 9q-6 2 -9.5 8t-6.5 13t-6 13.5t-7 9.5q-2 4 -1 6.5t-1 6.5q-4 1 -4.5 -0.5t-2.5 -0.5q1 8 -2 16t-8.5 16t-11.5 15t-10 12q13 -34 29 -67.5t33 -67.5q-65 -9 -125 11v-136q0 -26 -15 -46q-14 38 -30 68q-29 58 -52 106.5t-51 96.5v344q0 27 13.5 43.5t33 23
t41 3t37.5 -16.5q39 17 82.5 21t85.5 -6q43 -11 79 -34.5t61.5 -56t40.5 -73t17 -84.5q3 -61 -22 -119q-8 13 -15 25.5t-15 26.5q-4 -2 -4 -4.5t-5 -2.5zM83 92q2 -5 4 -11t7 -4q-2 5 -4 10.5t-7 4.5zM162 194q-2 3 -0.5 4t-0.5 4q-2 0 -4 1t-5 -1q2 -5 3 -5.5t1 -5.5z
M177 -121q2 6 4 9q-1 4 -3.5 3.5t-2.5 4.5q-5 -2 -6 -5t-2 -7q4 1 6 -1.5t4 -3.5zM198 183q11 -14 30.5 -22.5t41.5 -11t45 2t41.5 16.5t31 32.5t13.5 50.5q1 50 -23 82t-57 43.5t-68 2.5t-55 -40v-156zM441 133q2 -4 4 -9.5t6 -8.5q1 5 -2.5 10.5t-7.5 7.5zM461 171
q2 -4 3 -9t6 -4q1 5 -3 9.5t-6 3.5zM87 -54q-3 5 -4.5 13t-9.5 5q16 -40 34 -78.5t37 -76.5q-5 -1 -9 -1.5t-9 -0.5q-6 15 -10 24.5t-12 30.5q-2 -1 -2.5 0t-2.5 0q-2 -11 6.5 -26t16.5 -29q-27 1 -49.5 19t-22.5 53v73q4 -4 6 -5q0 -2 -1 -3t0 -3q5 0 8 -4q1 -5 6 -15.5
t14 -15.5q0 -5 4 -14t9 -6q-8 19 -17.5 39.5t-23.5 28.5q3 1 2 4q-1 6 -3 11l-4 10v14q4 -8 10 -7.5t11 -5.5q-7 10 -9.5 19t-11.5 14q0 -2 2.5 -5t4.5 -6.5t2.5 -7.5t-3.5 -7q1 6 -6 11v21v21q17 -33 35.5 -68.5t32.5 -72.5q-8 8 -16 21t-15 26z" />
    <glyph glyph-name="q" unicode="q" horiz-adv-x="592" 
d="M180 31q-32 17 -56.5 42t-41.5 56t-25.5 66t-6.5 72q2 44 17 84.5t41 73t61.5 55.5t78.5 34t86.5 7t82.5 -21q15 13 36.5 16.5t41 -3t33.5 -23t14 -43.5v-392q-8 15 -16.5 29t-16.5 27q3 -8 6 -17t9 -11q-2 -1 -3 -0.5t1 -2.5q1 -5 6.5 -16t13.5 -23v-94q-15 32 -35.5 67
t-40.5 77q2 -1 5 -1t6 -1q-2 5 1 7.5t-1 8.5q-5 2 -5.5 0t-5.5 -2q-4 -1 -1.5 -4t0.5 -5q-5 6 -9.5 11t-7.5 8h1q-5 4 -4.5 3.5l3.5 -3.5q-4 -1 -4 -7q8 -27 20.5 -52t26.5 -50.5t26.5 -51t20.5 -53.5q2 -4 4 -7v-14v-3q-8 17 -18 32.5t-19 26.5q-2 8 -5.5 15.5t-9.5 11.5
q-2 9 -7.5 18.5t-11.5 20t-11 21t-6 21.5q-6 2 -9.5 8t-6 12.5t-5.5 13t-7 9.5q-2 5 -1.5 7t-1.5 7q-4 0 -4.5 -1.5t-2.5 0.5q2 8 -1 16t-8.5 16t-12 15t-10.5 12q30 -78 71.5 -153.5t82.5 -149.5q-8 -27 -31.5 -38.5t-48.5 -8.5t-44.5 20.5t-19.5 50.5v136
q-60 -20 -122 -11q-21 44 -41 83.5t-45 79.5q-4 -2 -4 -4.5t-5 -2.5q-2 5 -3 9t-5 4q0 -9 3.5 -17t3.5 -13q-2 1 -3.5 3.5t-5.5 0.5q13 -32 31.5 -66.5t37.5 -70.5h-1q-10 3 -19.5 6t-18.5 8q-9 17 -19.5 31.5t-16.5 30.5q5 -17 10 -28.5t13 -22.5q-2 -1 -4 -3zM455 -26
q-5 -2 -6 -4q1 -4 3.5 -4.5t4.5 -1.5q1 4 -2 10zM232 132q2 -5 3.5 -11t6.5 -4q-2 5 -3.5 10.5t-6.5 4.5zM394 338q-14 20 -34.5 31t-43 12t-45.5 -6.5t-41 -24t-29 -42t-10 -58.5q1 -45 26.5 -69t59 -30.5t67 2t50.5 29.5v156zM199 53q-1 -2 1.5 -5t5 -6.5t3 -7.5t-3.5 -7
q0 5 -3 7.5t-6 5.5q2 -8 4.5 -10.5t6 -3.5l7 -2t6.5 -4q-8 10 -10.5 19t-10.5 14zM199 59q-8 17 -15 32.5t-17 26.5q5 -14 12.5 -31.5t19.5 -27.5zM167 123q1 5 -3 9t-6 4q2 -4 3 -9t6 -4zM148 80q1 4 -2.5 10t-7.5 8q2 -4 4 -9.5t6 -8.5z" />
    <glyph glyph-name="r" unicode="r" horiz-adv-x="612" 
d="M561 338q6 -14 3.5 -28.5t-10.5 -27t-20 -22t-25 -13.5q-32 -8 -56 8t-35 44q-34 84 -103 74q-3 -1 -17.5 -4.5t-32.5 -16.5q-8 15 -19 32q-4 -1 -3.5 -3.5t-5.5 -2.5q-2 4 -3 8t-5 5q0 -9 3.5 -17t3.5 -13q-2 1 -3.5 3.5t-4.5 0.5q3 -8 6.5 -17t8.5 -17q-2 -3 -7 -8
q-2 4 -4.5 7t-4.5 6q2 -4 3.5 -8t3.5 -9q-3 -5 -6 -9.5t-6 -9.5q0 1 -0.5 1.5t-0.5 1.5q0 -1 0.5 -1.5t0.5 -2.5q-11 -21 -17.5 -50.5t-7.5 -70.5q-13 26 -26.5 51t-28.5 48q4 -8 6.5 -17.5t9.5 -11.5q-2 0 -3 0.5t0 -2.5q1 -5 7.5 -17t14 -24.5t13 -23t5.5 -11.5
q0 -2 2 -12v-82q-5 8 -10 16.5t-10 15.5q-14 34 -36 70t-42 78q3 0 6 -0.5t6 -0.5q-2 5 1 7.5t-2 8.5q-4 1 -4.5 -0.5t-5.5 -1.5q-4 -1 -2 -4.5t0 -5.5q-4 7 -8.5 12t-7.5 8q-5 4 -4 3.5t4 -3.5q-4 -1 -4 -7q7 -27 20 -52t26.5 -50.5t26 -51.5t20.5 -53q4 -7 9 -16t6 -17
q-1 -2 -2 -3t-2 -3q-8 19 -20 39.5t-23 34.5q-3 19 -15 27q-2 9 -7.5 18.5t-11.5 19.5t-11 20.5t-6 21.5q-6 2 -9.5 8t-6.5 13t-5.5 13.5t-6.5 9.5q-2 5 -1.5 7t-1.5 6q-4 1 -4.5 -0.5t-2.5 0.5q1 4 -1 14v172q0 33 20.5 51t46 20.5t49 -11t30.5 -41.5q38 29 84 41
q50 13 94 4.5t80 -33t63.5 -61.5t44.5 -82zM198 317q3 -5 5 -10t5 -8q1 4 -2.5 10t-7.5 8zM219 355q2 -4 3 -9.5t5 -4.5q1 5 -2.5 9.5t-5.5 4.5zM364 450q2 1 3.5 1t3.5 1q-2 3 -0.5 4.5t-0.5 4.5q-3 -1 -5 0.5t-5 -0.5q2 -5 3.5 -5.5t0.5 -5.5zM49 251q28 -60 60 -118.5
t64 -115.5q-16 -13 -37 -16t-40.5 3.5t-33 23.5t-13.5 44v179z" />
    <glyph glyph-name="s" unicode="s" 
d="M361 128q2 -4 5.5 -10t6 -12t3 -12t-2.5 -10q-5 15 -13.5 31.5t-18.5 30.5h14zM517 82q-5 11 -13 26t-17 20q10 -36 20 -59q-14 -17 -35 -30q-2 5 -4.5 10t-4.5 10q-5 12 -9 24.5t-9 24.5q-23 58 -47.5 110.5t-51.5 99.5q14 -2 28 -3.5t27 -3.5q16 -2 32 -6
q5 -13 9 -22.5t12 -13.5q1 -2 -0.5 -3t-0.5 -3q4 1 8 -4q1 -5 6 -15.5t14 -14.5q0 -6 4 -14.5t9 -6.5q-7 19 -17 39.5t-24 28.5q3 1 3 5q-2 5 -3.5 9.5t-3.5 9.5q22 -9 44 -23l12 -28t11 -28q-8 8 -16 21t-15 26q-2 5 -4 13t-10 5q15 -38 32.5 -75t35.5 -74q-6 -32 -22 -55z
M497 184q-1 -8 3 -18t10 -20t12 -19.5t9 -16.5q-5 14 -8.5 22.5t-6.5 15.5t-6 15t-7 21q-2 0 -3 0.5t-3 -0.5zM158 224q-23 15 -41 35q-15 18 -24.5 40t-11.5 45t3.5 46t19.5 43q33 48 87.5 70t113.5 21.5t114.5 -23t92.5 -64.5q20 -23 21.5 -52.5t-21.5 -52.5q-6 -6 -10 -8
q-16 32 -31.5 62.5t-35.5 61.5q-3 -2 -3 -4.5t-5 -2.5q-2 5 -3.5 9t-4.5 4q-1 -8 2.5 -16t4.5 -13q-2 1 -4 3t-5 1q11 -28 26 -57t32 -60q-3 0 -5.5 -0.5t-5.5 -0.5q-4 8 -6.5 14t-9.5 11q0 -2 2 -5t4.5 -6t3.5 -7t-2 -7h-2q0 5 -8 11q1 -8 5 -11q-2 1 -4.5 1t-4.5 1
q-8 14 -17.5 27t-14.5 27q5 -17 10 -28.5t14 -22.5q-1 0 -1 -1q-17 7 -26 17q-30 31 -61 43t-56.5 11t-41.5 -10.5t-16 -20.5q-5 9 -12 17t-12 14q20 -52 45.5 -103.5t54.5 -102.5q-10 0 -13 1q-18 2 -37 5.5t-37 9.5q-11 21 -22 41.5t-25 41.5q-3 -2 -3 -4.5t-5 -2.5
q-2 5 -3.5 9t-4.5 4q-1 -9 2.5 -17t4.5 -13q-2 1 -4 3.5t-5 0.5q8 -20 21 -46l-15 9q-4 6 -6 8zM231 230q-2 5 -3.5 10.5t-6.5 4.5q2 -5 3.5 -11t6.5 -4zM492 400q-2 5 -3.5 10t-6.5 4q2 -5 3.5 -10.5t6.5 -3.5zM448 341q-7 17 -14.5 32.5t-16.5 26.5q5 -14 12.5 -31.5
t18.5 -27.5zM416 405q1 5 -2.5 9.5t-5.5 3.5q2 -4 3 -9t5 -4zM398 362q0 5 -3.5 10.5t-6.5 7.5q2 -4 4 -9.5t6 -8.5zM156 236q0 4 -3.5 8.5t-5.5 4.5q2 -4 3 -9.5t6 -3.5zM428 120q-5 6 -9 14t-10 11q7 -29 23 -56.5t28 -56.5q-2 -2 -4.5 -2.5t-4.5 -2.5q-21 25 -37.5 60
t-33.5 64q11 3 11 10q0 5 -7 8t-18 5q-15 33 -36 68.5t-41 77.5q2 0 5 -0.5t6 -0.5q-1 2 -0.5 3t0.5 3q10 -2 19.5 -3.5t20.5 -2.5q3 -6 7 -7h-2.5t0.5 -3q1 -5 7.5 -17t13.5 -24.5t12.5 -22.5t5.5 -11q0 -11 8 -25t15 -23q-6 1 -0.5 -7t5.5 -14q1 -2 3 -1t3 -1
q-3 -5 -1.5 -9.5t4 -10l5 -11t2.5 -12.5zM236 346q9 -7 32 -14q13 -40 34.5 -77.5t40.5 -77.5q-5 0 -10 0.5t-10 1.5q-3 7 -10 11q-2 9 -7.5 18.5t-11.5 20t-11 21t-6 21.5q-6 2 -9.5 8t-6 13t-5.5 13.5t-7 9.5q-2 4 -1.5 6.5t-1.5 6.5q-3 1 -4 -0.5t-3 -0.5q2 8 -3 19z
M303 147q6 -1 12 -1h11q20 -35 39 -69t36 -67q-21 -5 -42.5 -7t-44.5 -1q-6 14 -11.5 26.5t-11.5 25.5q-15 30 -28.5 57.5t-26.5 53.5q18 -8 35.5 -12.5t31.5 -5.5zM315 32q0 5 4 9q-1 4 -4 3.5t-3 4.5q-5 -2 -5.5 -5t-2.5 -7q4 1 6 -1.5t5 -3.5zM224 99q-2 5 -4 13t-10 5
q11 -28 23.5 -55.5t25.5 -54.5q-4 1 -7.5 1.5t-8.5 1.5q0 2 -0.5 2.5t-0.5 2.5q-2 -1 -3 0t-3 0v-3q-26 5 -51 14.5t-48 21.5q-16 34 -32 64.5t-34 58.5q3 -8 6 -17t9 -11q-2 -1 -2.5 -0.5t0.5 -2.5q1 -5 7.5 -17t13.5 -24.5t12.5 -23t5.5 -11.5t2 -9q-42 26 -66 59
q-9 12 -10 27t3 29t13 26t21 19q22 13 43 7t36 -16q5 -10 10 -19t12 -15l-12 27q2 -2 3 -2q3 -2 5.5 -4t5.5 -4q17 -32 35 -66.5t31 -70.5q-8 8 -16 21t-15 26zM127 211q2 -4 4 -9.5t6 -8.5q0 4 -3.5 10t-6.5 8zM193 140q1 5 -2 7.5t-6 5.5q1 -8 4 -11t6 -3.5t7 -1.5t7 -4
q-8 10 -10.5 19t-11.5 14q0 -2 2.5 -5t4.5 -6.5t2.5 -7.5t-3.5 -7zM233 39q-7 19 -16.5 39.5t-23.5 28.5q2 1 2 4q-6 25 -22 45.5t-24 41.5q5 -17 10 -28.5t14 -22.5q-3 -1 -4 -4q8 -14 11.5 -26.5t12.5 -16.5q1 -2 0 -3t-1 -3q5 0 8 -4q1 -5 6 -15.5t14 -15.5q0 -5 4 -14
t9 -6zM284 328q3 0 4 -1q2 -2 0 -4q-2 2 -2.5 3t-1.5 2z" />
    <glyph glyph-name="t" unicode="t" horiz-adv-x="322" 
d="M122 173q17 -34 35.5 -68t29.5 -71q4 -7 9.5 -17t5.5 -19h-6q-8 19 -19.5 38.5t-22.5 32.5q-3 20 -15 27q-2 9 -7 18l-10 18v41zM365 565q24 0 36 -15.5t12 -34t-12 -34t-36 -15.5h-95v-127l-9 15q-3 -2 -3 -4.5t-5 -2.5q-2 5 -3.5 9t-4.5 4q-1 -9 2.5 -17t4.5 -13l-4 4
t-5 1q5 -14 12 -29t15 -29v-20q-6 14 -12.5 26.5t-14.5 22.5q4 -13 10.5 -28.5t16.5 -26.5v-36q-8 15 -18 29.5t-16 28.5q5 -17 10 -28.5t14 -22.5q-2 -1 -4 -3q5 -10 7.5 -18.5t6.5 -14.5v-116q0 -20 -8 -34q-24 59 -49.5 112t-54.5 99l6 -18t9 -11h-2.5t0.5 -3
q1 -5 7.5 -17t13.5 -24.5t12.5 -22.5t5.5 -11q0 -11 8 -25t15 -23q-6 1 -0.5 -7t5.5 -14q1 -2 3 -1t3 -1q-3 -5 -1.5 -9.5t4 -10l5 -11t2.5 -12.5q-5 6 -9 14t-10 11q2 -9 5 -18t7 -17q-6 -6 -14 -9q-11 20 -20 38t-20 33q-14 30 -33 62.5t-38 70.5v14q3 0 4 -1q-2 5 1 8
t-1 9q-3 0 -4 -1v226h-25q-24 0 -36 15.5t-12 34t12 34t36 15.5h25v72q0 36 23 54t51 18t51 -18t23 -54v-72h95zM214 286q2 -4 4 -9.5t6 -8.5q0 4 -3.5 10t-6.5 8zM234 324q2 -4 3 -9t5 -4q1 5 -2.5 9.5t-5.5 3.5zM122 107l60 -108q-24 5 -42 22t-18 49v37z" />
    <glyph glyph-name="u" unicode="u" horiz-adv-x="607" 
d="M516 424q-2 4 -3 8t-5 5q0 -9 3.5 -17t3.5 -13q-2 1 -3.5 3t-5.5 1q10 -25 23.5 -50.5t27.5 -51.5v-21q-6 9 -8.5 17t-10.5 13q-1 -2 1.5 -5t5 -6.5t3 -7.5t-3.5 -8q1 5 -2.5 8t-6.5 6q3 -14 9 -14.5t13 -4.5v-40q-4 4 -7 7.5t-7 5.5q2 1 2 4q-6 24 -21.5 44.5
t-23.5 41.5q5 -17 10 -28t13 -23q-1 0 -4 -3q8 -15 11.5 -27.5t12.5 -15.5q1 -2 0 -3t-1 -3q5 0 9 -4q0 -7 6 -16v-150q0 -16 -7 -30q-4 11 -7.5 22t-7.5 22q-26 66 -54 124.5t-60 108.5q3 -8 6 -17.5t10 -11.5q-2 0 -3 0.5t0 -2.5q1 -5 7.5 -17t13.5 -24.5t13 -23t6 -11.5
q-1 -11 7 -25t15 -23q-6 1 0 -6.5t6 -14.5q1 -2 2.5 -1t3.5 -1q-3 -5 -1.5 -9.5t4 -10l5 -11t2.5 -12.5q-5 6 -9.5 14t-10.5 12q6 -26 19 -49.5t25 -47.5q-3 -4 -11 -10q-11 15 -20.5 32.5t-18.5 35.5t-18 35t-18 30q-10 23 -23.5 46.5t-27.5 49.5q2 17 2.5 31.5t0.5 24.5
v149q0 24 11 39.5t27.5 23.5t36 8t36 -8t27.5 -23.5t11 -39.5v-80q-16 29 -32 55q-4 -1 -4 -3.5t-5 -2.5zM477 363q2 -5 4 -10.5t6 -7.5q1 4 -2.5 10t-7.5 8zM497 401q2 -4 3 -9.5t6 -4.5q1 5 -3 9.5t-6 4.5zM538 323q-8 17 -15 32.5t-17 26.5q5 -14 13 -31t19 -28zM418 146
q-3 19 -15 27q-2 6 -5 12.5t-8 14.5q6 10 9 23q15 -27 29 -55t22 -58q5 -8 12 -22t0 -22q-7 20 -20 42.5t-24 37.5zM308 149q28 -1 46 10t29 28q26 -47 51.5 -92t48.5 -90q-19 0 -36 7.5t-28 24.5q-27 -17 -62 -27t-68 -9q-2 5 -5 10.5t-6 10.5q1 -8 8 -21h-12q-2 1 -6 1
q-10 28 -20.5 54.5t-22.5 50.5q-32 64 -57.5 117.5t-58.5 106.5q-4 -1 -4 -3.5t-5 -2.5q-2 5 -3 9t-5 4q-1 -9 3 -17t4 -13q-2 1 -4 3.5t-5 0.5q9 -24 22 -48.5t26.5 -50.5t27 -53t23.5 -55q-8 8 -16 21t-15 25q-2 5 -3.5 13t-9.5 6q15 -40 33.5 -78.5t36.5 -76.5
q-6 2 -11.5 4.5t-11.5 4.5q-4 10 -7 18.5l-9 25.5q-2 -1 -3 0t-3 0q-1 -8 3.5 -18t10.5 -21q-53 28 -82 79.5t-41.5 112.5t-11.5 126.5t9 122.5q2 15 11.5 26.5t23 18t28.5 8.5t29 -1q32 -9 44 -35.5t7 -55.5q-2 -12 -4 -37t-1.5 -56t5.5 -63.5t17.5 -60t34 -46t55.5 -19.5z
M61 264l4 -10t6 -8q1 4 -2.5 10t-7.5 8zM90 289q0 4 -3.5 8.5t-5.5 4.5q2 -4 3 -9.5t6 -3.5zM167 92q-7 19 -16.5 39.5t-23.5 28.5q2 1 2 4q-6 25 -21.5 45t-24.5 42q5 -17 10 -28.5t14 -22.5q-3 -1 -4 -4q8 -14 11.5 -26.5t12.5 -16.5q1 -2 0 -3t-1 -3q5 0 8 -4
q2 -5 6.5 -15.5t13.5 -15.5q0 -5 4 -14t9 -6zM122 219q-1 -2 1.5 -5t5 -6.5t3 -7.5t-3.5 -7q0 5 -3 7.5t-6 5.5q1 -8 4 -11t6 -4t7 -1.5t7 -4.5q-8 11 -10.5 20t-10.5 14zM122 225q-8 16 -15 31.5t-17 26.5q5 -14 12.5 -31t19.5 -27zM155 298q2 -5 3.5 -11t6.5 -4
q-2 5 -3.5 10.5t-6.5 4.5zM249 85q0 5 4 8q-1 5 -3.5 4.5t-3.5 4.5q-5 -2 -5.5 -5.5t-2.5 -6.5q4 1 6 -1.5t5 -3.5zM269 38q0 -3 1 -7t6 -3q-2 4 -2.5 8t-4.5 2zM380 130q1 3 -2 10q-5 -2 -6 -4q1 -6 8 -6z" />
    <glyph glyph-name="v" unicode="v" horiz-adv-x="576" 
d="M285 147q21 1 38 18q14 -34 30.5 -67t34.5 -66q-27 -21 -56 -28q-12 24 -26.5 50t-28.5 53q2 -11 11.5 -28.5t14.5 -28.5q4 -13 7 -25t8 -25q-5 -1 -9 -1h-9q-19 51 -37 100.5t-39 93.5q-32 64 -58 117.5t-59 106.5q-3 -1 -3 -3.5t-5 -3.5q-2 5 -3.5 9t-4.5 5
q-1 -9 2.5 -17t4.5 -13q-2 1 -4 3t-5 1q9 -24 22 -49t26.5 -51t27 -52.5t23.5 -54.5q-8 8 -16 21t-15 25q-2 5 -3.5 13t-9.5 6q24 -63 54.5 -123t56.5 -120l6 -12q-28 6 -53 18q-5 7 -8.5 13.5t-7.5 12.5q-2 4 -5.5 11.5t-8 15.5t-9.5 15t-10 10q5 -18 10 -32l10 -28
q-41 31 -66 81.5t-39.5 107.5t-20 113.5t-5.5 101.5q0 24 10.5 39.5t27 23.5t35.5 8t35.5 -8t28 -23.5t11.5 -39.5v-47.5t3.5 -73.5t12 -79t25.5 -64v-1h1q19 -28 47 -29zM60 350q2 -5 4 -10.5t6 -7.5q0 4 -3.5 10t-6.5 8zM89 374q0 5 -3.5 9.5t-5.5 4.5q2 -4 3 -9.5t6 -4.5
zM169 153q-1 -8 3 -18t10 -20t12 -19.5t9 -16.5q-5 14 -8.5 22.5t-6.5 16l-6 15t-7 20.5q-2 0 -3 1t-3 -1zM166 177q-7 20 -16.5 40.5t-23.5 28.5q2 1 2 4q-6 24 -22 44.5t-24 41.5q5 -17 10 -28t14 -23q-1 0 -4 -3q8 -15 11.5 -27.5t12.5 -15.5q1 -2 0 -3t-1 -3q5 0 8 -4
q2 -5 6.5 -16t13.5 -15q0 -6 4 -14.5t9 -6.5zM121 305q-1 -2 1.5 -5t4.5 -6.5t2.5 -7.5t-3.5 -8q1 5 -2 8t-6 5q1 -8 4 -10.5t6 -3.5t7 -2t7 -4q-8 11 -10.5 20t-10.5 14zM120 310q-7 17 -14.5 32.5t-16.5 26.5q5 -14 12.5 -31t18.5 -28zM154 383q2 -5 3.5 -10.5t6.5 -3.5
q-2 5 -3.5 10.5t-6.5 3.5zM268 124q0 -3 1 -7t6 -3q-2 3 -3 7t-4 3zM527 443q0 -63 -7 -128t-28 -126q0 2 -2 2l2 -4q-6 -17 -13 -33.5t-16 -32.5q-2 -2 -2.5 -4.5t-2.5 -4.5l-12 20t-12 19q3 -8 6 -17t10 -11q-2 -1 -3 -0.5t0 -2.5q2 -7 7 -15q-7 -11 -14 -20.5t-15 -18.5
q-9 15 -17.5 31.5t-16.5 33.5q3 -1 5.5 -1t5.5 -1q-2 5 1 7.5t-1 8.5q-4 2 -5 0t-5 -2q-4 -1 -2 -4t0 -5q-4 6 -8.5 11t-7.5 8q-5 4 -4.5 3.5t4.5 -3.5q-3 -1 -3.5 -3t-1.5 -4q8 -24 19 -47.5t24 -46.5q-4 -4 -7.5 -7t-7.5 -6q-6 11 -11 21.5t-6 21.5q-6 2 -9.5 8t-6.5 12.5
t-5.5 13t-6.5 9.5q-3 5 -2 7t-1 7q-4 0 -4.5 -1.5t-2.5 0.5q2 8 -2 17t-10 17q19 24 29 64.5t14.5 81.5t5 76t0.5 49q0 24 11.5 40t28 24t35.5 8t35.5 -8t27 -24t10.5 -40zM379 216q1 3 -2 10q-5 -2 -6 -4q1 -6 8 -6z" />
    <glyph glyph-name="w" unicode="w" horiz-adv-x="827" 
d="M569 144q16 -32 30 -63q8 -17 16 -35t10 -38q-5 3 -8 9l-6 12t-6.5 11.5t-8.5 7.5q5 -6 5.5 -14t2.5 -17q1 -5 3 -8.5t4 -7.5q-6 -3 -10 -3q-7 8 -8 20q-4 -1 -6 2q-8 22 -23 47t-28 46q-2 4 -5.5 11.5t-8 16t-9.5 15.5t-11 10q8 -27 15 -45.5t15 -37.5q-5 -17 3.5 -33.5
t15.5 -30.5q-1 -3 -0.5 -7t-1.5 -8q2 -3 2.5 -5.5t2.5 -5.5q-5 0 -10.5 0.5t-10.5 1.5q-2 4 -4.5 8t-5.5 8q-14 24 -24.5 43t-19.5 42q-5 12 -9 24.5t-9 24.5q-26 66 -54 124.5t-60 108.5q4 -8 6.5 -17t9.5 -11q-2 -1 -3 -0.5t0 -2.5q1 -5 7.5 -17t14 -24.5t13 -23
t5.5 -11.5q0 -10 8 -24.5t14 -23.5q-5 2 0.5 -6t5.5 -15q1 -2 3 -0.5t3 -0.5q-3 -5 -1.5 -10t4 -10t5 -11t2.5 -13q-5 6 -9 14t-11 12q4 -18 12 -34.5t17 -33t17 -33.5t13 -35q-16 13 -29 33.5t-25 43.5t-23 45.5t-23 39.5q-10 21 -22 43t-26 46q2 32 2 58t1 39
q0 21 9.5 35.5t23.5 22.5t31 9.5t33 -2.5q11 -25 24.5 -51t27.5 -53q0 -13 -0.5 -28t0.5 -32q-8 12 -18 18q3 1 2 4q-5 24 -21 44.5t-24 41.5q5 -17 10 -28t14 -23q-2 0 -5 -3q8 -15 12 -27t13 -16q0 -2 -1 -3t-1 -3q6 0 9 -4q1 -4 3.5 -11t7.5 -12q1 -25 5 -48.5t12 -42.5
t20.5 -30.5t30.5 -11.5q5 1 13 3zM464 373q0 -2 2.5 -5t4.5 -6.5t2.5 -7.5t-3.5 -8q1 5 -2 8l-6 6q1 -8 4 -11t6 -4t6.5 -1.5t6.5 -4.5q-7 11 -9.5 20t-11.5 14zM464 378q-7 17 -14.5 32.5t-17.5 26.5q5 -14 13 -31t19 -28zM403 418q3 -5 5 -10t5 -8q1 4 -2.5 10t-7.5 8z
M432 443q1 4 -2.5 8.5t-5.5 4.5q2 -4 3 -9.5t5 -3.5zM777 437q0 -30 -3 -78.5t-13 -103.5t-28 -108t-49 -92q-14 28 -30 58t-33 63q1 -11 11 -29t15 -29q10 -41 24 -78l-6 -6t-6 -5q-16 38 -30 76.5t-28 76.5q12 27 18 65.5t8 76.5t2 69v44q0 24 11.5 40t28 24t35.5 8
t35.5 -8t27 -24t10.5 -40zM721 294q-5 -2 -6 -4q1 -6 8 -6q1 2 0 4.5t-2 5.5zM612 192q0 -3 1 -7t6 -3q-2 3 -3 7t-4 3zM344 201q-3 19 -15 27q0 2 -0.5 2.5t-0.5 2.5q2 8 2.5 16t1.5 16q14 -24 25.5 -48.5t19.5 -50.5q2 -5 5.5 -11t6 -12t3 -12t-2.5 -10q-7 20 -20 42.5
t-25 37.5zM265 141q23 2 37 23t22 52q20 -37 40.5 -73.5t39.5 -71.5q-24 -35 -57.5 -57.5t-78.5 -20.5h-2q-5 14 -11 27l-12 26q-32 64 -57.5 117t-58.5 107q-4 -1 -3.5 -3.5t-5.5 -2.5q-2 4 -3 8t-5 5q0 -9 3.5 -17t3.5 -13q-2 1 -3.5 3t-5.5 1q9 -24 22 -49t27 -51
t27.5 -52.5t23.5 -54.5q-8 8 -16.5 21t-14.5 25q-3 5 -4.5 13t-9.5 6q11 -28 22.5 -54.5t24.5 -52.5q-38 13 -65 40.5t-45 64.5t-28 80t-15 87t-7 85.5t-2 75.5q0 24 10.5 39.5t27 23.5t36 8t36 -8t27.5 -23.5t11 -39.5q0 -12 -0.5 -38.5t0 -59t3.5 -67t10.5 -63.5t21 -47.5
t34.5 -18.5zM79 203q2 -5 4.5 -10.5t5.5 -7.5q1 4 -2.5 10t-7.5 8zM108 227q1 5 -3 9.5t-6 4.5q2 -4 3 -9.5t6 -4.5zM185 30q-7 20 -16.5 40.5t-23.5 28.5q2 1 2 4q-6 24 -21.5 44.5t-23.5 41.5q5 -17 10 -28t13 -23q-1 0 -4 -3q8 -15 11.5 -27t12.5 -16q1 -2 0 -3t-1 -3
q6 0 9 -4q1 -5 6 -16t14 -15q0 -6 3.5 -14.5t8.5 -6.5zM140 158q-1 -2 1.5 -5t5 -6.5t3 -7.5t-3.5 -8q1 5 -2 8t-7 6q2 -8 4.5 -11t6 -4l7 -2t6.5 -4q-8 11 -10.5 20t-10.5 14zM140 163q-8 17 -15 32.5t-17 26.5q5 -14 13 -31t19 -28zM173 236q2 -5 3.5 -10.5t6.5 -3.5
q-2 5 -3.5 10.5t-6.5 3.5zM267 24q0 4 4 8q-1 5 -3.5 4.5t-3.5 4.5q-5 -2 -5.5 -5.5t-2.5 -6.5q4 1 6 -1.5t5 -3.5zM396 79q-5 -3 -5 -4q1 -6 7 -6q1 3 -2 10z" />
    <glyph glyph-name="x" unicode="x" horiz-adv-x="580" 
d="M389 262q30 -33 60.5 -66.5t60.5 -66.5q18 -20 20 -42t-7 -41q-17 38 -35 72.5t-38 65.5q3 -9 5.5 -18t9.5 -11h-3t1 -3q1 -5 7.5 -17t13.5 -24.5t12.5 -22.5t5.5 -11q0 -8 5 -18.5t11 -20.5q-11 -18 -30 -28q-1 1 -3 5q-15 33 -36.5 69t-41.5 79q2 0 5 -0.5t6 -0.5
q-2 5 1 7.5t-1 8.5q-5 1 -5.5 -1t-5.5 -1q-4 -1 -1.5 -4.5t-0.5 -5.5q-4 6 -8.5 11t-7.5 8l1 1q-5 3 -4.5 2.5l3.5 -3.5q-4 -1 -4 -7q7 -23 17.5 -44.5t22 -43t23 -43.5t20.5 -45q-5 -1 -8.5 -1.5t-8.5 -0.5q-2 2 -2.5 3.5t-2.5 2.5q-3 20 -15 27q-2 9 -7.5 18.5t-11.5 20
t-11 21t-6 21.5q-6 2 -9.5 8t-6.5 12.5t-5.5 13.5t-6.5 10q-2 4 -1.5 6.5t-1.5 6.5q-4 1 -4.5 -1t-2.5 0q2 8 -1 16t-8.5 16t-12 15t-10.5 12q23 -57 51.5 -113.5t59.5 -112.5q-8 3 -15.5 8t-14.5 13q-29 32 -58.5 64t-58.5 64l-58 -64l-58 -64q-7 18 -14 34.5t-15 32.5
q-11 21 -20 40.5t-18 38.5l42 46l42 46q-31 34 -61.5 68t-60.5 68q-20 23 -21.5 52.5t21.5 52.5q10 10 24 15.5t28.5 6t28.5 -5t24 -16.5q29 -33 58 -65.5t58 -65.5q29 33 58.5 66t58.5 65q10 12 24 17t28.5 5t28.5 -6t24 -16q23 -22 21.5 -51.5t-21.5 -52.5
q-31 -35 -61 -69t-61 -68zM146 381q4 2 7 2q-2 3 -1 4.5t-1 4.5q-2 0 -4 1t-5 -1q2 -5 3.5 -5.5t0.5 -5.5zM168 69q0 3 4 9q-1 4 -3.5 3.5t-3.5 4.5q-5 -2 -5.5 -5.5t-2.5 -6.5q4 1 6 -1.5t5 -3.5zM68 128q1 2 4 5q14 -34 29.5 -67t31.5 -65q-9 -2 -18 0q-5 13 -9 22t-11 29
q-2 -1 -2.5 0t-2.5 0q-2 -11 5 -24t15 -27q-17 4 -31.5 15.5t-22.5 27.5t-8.5 34.5t10.5 36.5q2 -5 6.5 -10.5t9.5 -8.5q0 -5 3.5 -14t8.5 -6q-4 12 -9 24.5t-12 23.5q1 2 3 4zM84 146q7 -14 13.5 -28.5t11.5 -28.5q-8 8 -16.5 21t-14.5 26q-1 0 -1 2q2 2 3.5 4t3.5 4z" />
    <glyph glyph-name="y" unicode="y" horiz-adv-x="606" 
d="M413 -174q-5 6 -9 14t-11 12q5 -21 15 -41t21 -40q-4 -2 -7.5 -2.5t-7.5 -2.5q-17 29 -31.5 59.5t-30.5 52.5q-2 5 -4 9l-4 8q21 3 34 18q4 -6 7.5 -11t6.5 -10q-6 1 -0.5 -6.5t5.5 -14.5q1 -2 3 -0.5t3 -0.5q-3 -5 -1.5 -9.5t4 -10t5 -11.5t2.5 -13zM313 -130
q-2 8 -5.5 15.5t-9.5 11.5q0 1 -2 7q15 -7 26 -8q7 -15 13 -30t11 -31q2 -5 5.5 -11t6 -12t3 -12t-2.5 -10q-7 20 -20 42.5t-25 37.5zM407 453q1 37 24 54t51 15.5t51 -19.5t23 -49q0 -9 -0.5 -51.5t-1 -102t-1.5 -127.5t-1.5 -125.5t-1.5 -97.5t-1 -43v-3q-6 13 -13 26
q-32 64 -57.5 117t-58.5 107q-3 -1 -3 -3.5t-5 -2.5q-2 4 -3.5 8.5t-4.5 4.5q-1 -9 2.5 -17t4.5 -13q-2 1 -4 3.5t-5 0.5q9 -24 22 -48.5t26.5 -50.5t27 -53t23.5 -55q-8 8 -16 21t-15 25q-3 5 -4.5 13t-9.5 6q15 -38 32.5 -75.5t35.5 -74.5l-6 -8l-6 -8q-4 10 -6.5 17
t-5 13.5t-6 14t-7.5 19.5q-2 -1 -2.5 0t-2.5 0q-2 -14 9.5 -32.5t19.5 -32.5q-5 -5 -9.5 -9t-9.5 -9l-10 16t-11 11q3 -10 6 -18.5t6 -16.5q-10 -7 -19.5 -12.5t-20.5 -10.5q-6 21 -13 38q-11 27 -22.5 53.5t-22.5 51.5q19 26 20 73v34q-14 -8 -30 -13t-33 -9
q-6 11 -12.5 21.5t-12.5 20.5q3 -8 5.5 -17t9.5 -11q-2 -1 -3 -0.5t0 -2.5t6 -13q-12 -2 -24.5 -3t-23.5 -1q-4 7 -7 13.5t-6 13.5q2 0 5 -0.5t6 -0.5q-2 5 1 7.5t-1 8.5q-5 2 -5.5 0t-5.5 -2q-4 -1 -1.5 -4t-0.5 -5q-4 6 -8.5 11t-7.5 8q-4 -1 -4 -7q3 -11 6.5 -20.5
t8.5 -20.5l-12 2l-12 2q-3 12 -9 16q-2 5 -1.5 7t-1.5 7q-4 0 -4.5 -1.5t-2.5 0.5q2 7 -1 15.5t-8.5 16t-12 14.5t-10.5 13q8 -21 17 -42t20 -42q-46 13 -78 41t-53 65t-32 81.5t-14.5 91t-1.5 93t8 88.5q2 15 11.5 26t23 18t28.5 9t28 -2q32 -8 44.5 -34.5t7.5 -56.5
q-2 -11 -4 -36t-1.5 -56t5.5 -63.5t17 -60t33.5 -46t55.5 -19.5q26 0 43.5 9t29 24t17 33.5t8.5 36.5q1 43 0.5 98t1.5 104zM372 87q3 -5 5 -10t5 -8q1 4 -2.5 10t-7.5 8zM401 112q1 4 -2.5 8.5t-5.5 4.5q2 -4 3 -9.5t5 -3.5zM479 -85q-8 19 -17.5 39.5t-23.5 28.5q3 1 2 4
q-5 25 -21 45t-24 41q5 -17 10 -28t14 -22q-3 -1 -4 -4q7 -14 11 -26.5t13 -16.5q0 -2 -1 -3t0 -3q5 0 8 -4q1 -5 6 -15.5t14 -15.5q0 -5 4 -14t9 -6zM433 42q0 -2 2.5 -5t4.5 -6.5t2.5 -7.5t-3.5 -8q1 5 -2 8l-6 6q1 -8 4 -11t6 -4t6.5 -1.5t6.5 -4.5q-7 11 -9.5 20
t-11.5 14zM433 47q-7 17 -14.5 32.5t-17.5 26.5q5 -14 13 -31t19 -28zM466 120q2 -5 4 -10.5t7 -3.5q-2 5 -4 10.5t-7 3.5zM539 220q2 1 3 1t3 1q-2 3 -0.5 4.5t-0.5 4.5q-2 -1 -4 0.5t-5 -0.5q2 -5 3 -5.5t1 -5.5zM234 -41q19 -28 43 -44q22 -41 44 -80.5t43 -77.5
q-2 0 -5 -0.5t-5 -0.5q-76 -2 -141 32t-107 96q-9 12 -10.5 27t2.5 29t13 26t21 19q28 17 56 7.5t46 -33.5z" />
    <glyph glyph-name="z" unicode="z" horiz-adv-x="597" 
d="M539 55q0 -2 -1 -3t0 -3h2q-5 -18 -19 -31.5t-37 -16.5q-16 34 -32.5 65.5t-35.5 59.5q4 -8 6.5 -17t9.5 -11q-2 -1 -3 -0.5t0 -2.5q1 -5 7.5 -17t14 -24.5t13 -23t5.5 -11.5q0 -7 5 -19h-1h-43q-13 24 -27.5 50.5t-28.5 55.5q6 -2 11 -2q-2 5 1 7.5t-2 8.5q-4 2 -4.5 0
t-5.5 -2q-4 -1 -1.5 -4t-0.5 -5q-4 6 -8.5 11t-7.5 8q-4 -1 -4 -7q9 -32 24.5 -61.5t32.5 -59.5h-21l-16 28t-10 29q-6 2 -9.5 8t-6.5 12.5t-5.5 13t-6.5 9.5q-2 5 -1.5 7t-1.5 7q-4 0 -4.5 -1.5t-2.5 0.5q2 8 -2 17.5t-10 17.5h161q14 0 25 -4q5 -14 9 -23t12 -19
q-3 -1 -4 -4q7 -14 11 -26.5t13 -16.5zM98 162q8 -17 16 -34.5t14 -35.5q-8 8 -16 21t-14 25q-2 4 -3.5 9t-3.5 8zM542 93q4 -16 1 -34q-2 1 -2.5 1.5t-2.5 1.5q3 1 2 4q-5 22 -18 40.5t-23 36.5q17 -6 27 -18.5t15 -28.5l-2 -1q1 5 -2 7.5t-6 5.5q2 -8 4.5 -11t6.5 -4z
M77 138q2 2 4.5 5t5.5 6q15 -38 32.5 -75t35.5 -74h-19q-6 15 -9.5 24.5t-11.5 29.5q-2 0 -3 1t-3 -1q-1 -11 7 -25.5t16 -28.5h-12q-25 0 -41 11.5t-23.5 29t-6.5 37t10 36.5q2 5 13 18q0 -2 2 -2q1 -5 6 -16t14 -15q0 -6 3.5 -14.5t8.5 -6.5q-5 15 -12.5 32t-16.5 28z
M311 123q2 -5 4 -5q14 -30 28.5 -59.5t30.5 -58.5h-152q-2 2 -2.5 4t-1.5 4q0 -5 2 -8h-17q-9 25 -18.5 48.5t-20.5 44.5q-13 25 -23.5 48t-21.5 45q19 22 42 47t46.5 50t45.5 48.5t39 42.5h-172q-36 0 -54 23t-18 51t18 51t54 23h338q27 0 44 -13.5t23.5 -33t3.5 -41
t-16 -36.5q-1 -2 -24 -27t-55.5 -61t-69 -76t-65.5 -71q-2 2 -3.5 4.5t-3.5 4.5q2 -3 2.5 -6t2.5 -5q-3 -4 -6 -7l-6 -6h17q2 -6 5 -12t5 -12q0 -1 -1 -1zM166 384q1 0 7 2q-2 3 -1 4.5t-1 4.5q-2 -1 -4 0.5t-5 -0.5q2 -5 3.5 -6t0.5 -5zM188 71q0 5 4 9q-1 4 -3.5 4t-3.5 5
q-5 -2 -5.5 -5.5t-2.5 -6.5q4 1 6 -1.5t5 -4.5zM208 25q0 -4 1 -7.5t6 -2.5q-2 3 -2.5 7t-4.5 3z" />
    <glyph glyph-name="braceleft" unicode="{" horiz-adv-x="306" 
d="M220 -15q23 -7 30.5 -25.5t2.5 -36.5t-20.5 -29.5t-38.5 -3.5q-34 10 -56.5 29.5t-36 45t-18 56t-1.5 63.5q1 14 3.5 32t4.5 37t4 37.5t2 32.5q0 9 -7 13t-15.5 8.5t-16 12.5t-8.5 24q0 13 4.5 21t11 13.5t13 9.5t9.5 9q3 7 4.5 19.5t1.5 24.5q-2 29 -6 57t-6 56
q-4 65 22 116t91 72q23 7 38.5 -4t20.5 -29t-2.5 -37t-30.5 -26q-22 -7 -30.5 -20t-9.5 -33q-2 -26 1 -53t7 -53q4 -35 2 -72.5t-19 -67.5q18 -31 19.5 -70t-3.5 -76q-3 -21 -6.5 -44.5t-2.5 -45.5t10 -39t32 -24z" />
    <glyph glyph-name="bar" unicode="|" horiz-adv-x="196" 
d="M49 643q0 24 15.5 36t34 12t34 -12t15.5 -36v-710q0 -24 -15.5 -36t-34 -12t-34 12t-15.5 36v710v0z" />
    <glyph glyph-name="braceright" unicode="}" horiz-adv-x="301" 
d="M82 -13q23 7 32 24t10 39t-2.5 45.5t-6.5 44.5q-5 37 -3.5 76t19.5 70q-17 30 -19 67.5t2 72.5q4 26 7 53t1 53q-1 20 -9.5 33t-30.5 20q-23 7 -30.5 26t-2.5 37t20.5 29t38.5 4q65 -21 91 -72t22 -116q-2 -28 -6 -56t-6 -57q0 -12 1.5 -24.5t4.5 -19.5q3 -5 9.5 -9
t13 -9.5t11 -13.5t4.5 -21q-1 -16 -8.5 -24t-16 -12.5t-15.5 -8.5t-7 -13q0 -14 2 -32.5t4 -37.5t4.5 -37t3.5 -32q3 -33 -1.5 -63.5t-18 -56t-36 -45t-56.5 -29.5q-23 -8 -38.5 3.5t-20.5 29.5t2.5 36.5t30.5 25.5z" />
    <glyph glyph-name="exclamdown" unicode="&#xa1;" horiz-adv-x="245" 
d="M164 456.007q-5 -6 -9 -13.999q-4 -8 -11 -11q6 23.999 18.5 46.9971q12.5 22.999 24.5 45.9971q-2 4 -4 7t-5 7q-19 -26.999 -34.5 -60.9971q-15.5 -33.9971 -32.5 -59.9961q3 -1 11 -1q17 0 31 6q2 7.99902 7 15.999q5 7.99902 4 17.999zM97 448.007q2 4 5.5 10
q3.5 5.99902 6 11.999t3 11.999q0.5 6 -2.5 9.99902q-5 -14.999 -13.5 -31.498q-8.5 -16.498 -18.5 -30.498q3 -2 5.5 -3.49902q2.5 -1.5 6.5 -3.5q2 5.99902 4 11.999t4 12.999zM165 429.008q17 13 23.5 32.498q6.5 19.499 4.5 39.498q-3 -8 -5.5 -16.499t-6.5 -16.499
q-4 -9.99902 -7.5 -19.499q-3.5 -9.49902 -8.5 -19.499zM163 135.026q-2 -5 -3.5 -9q-1.5 -3.99902 -4.5 -3.99902q-1 7.99902 2.5 15.999q3.5 7.99902 4.5 12.999q-2 -1 -4 -3t-5 -1q8 21.999 19.5 43.9971q11.5 21.999 23.5 44.9971v19.999q-2 -4.99902 -4.5 -8.99902
t-7.5 -7q0 2 2.5 5.5t4.5 6.99902q2 3.5 2.5 7.5t-3.5 7q1 -5 -2 -8t-6 -5q2 10 5.5 12q3.5 1.99902 8.5 2.99902v34.998q-2 -1 -3.5 -2t-3.5 -2q3 -0.999023 2 -4.99902q-5 -23.999 -21 -44.4971q-16 -20.499 -24 -41.498q5 16.999 10 27.998q5 11 14 22.999q-2 1 -4 3
q7 14.999 11 27.498t13 16.499q0 2 -1 2.5t0 2.5q4 0 7 3v1q0 27.998 -15 44.9971t-35 22.998q-18 -40.9971 -37.5 -78.4951t-40.5 -70.4951q3 7.99902 5.5 17.498q2.5 9.5 9.5 11.5q-2 0 -3 -0.5t0 3.5q1 4.99902 7.5 16.999q6.5 11.999 14 24.498t13 22.499
q5.5 9.99902 5.5 10.999q0 8.99902 6.5 21.499q6.5 12.499 13.5 22.498q-26 5 -48 -4q-10 -18.998 -21 -38.9971t-23 -40.998v-375.977q0 -35.998 23 -53.9971t51 -17.999t51 17.999t23 53.9971v244.985q-13 -23.999 -25 -42.998q-3 1 -3 4t-5 3zM123 196.022q3 4 5 9.49902
q2 5.5 5 8.5q1 -5 -2.5 -10.499q-3.5 -5.5 -7.5 -7.5zM144 158.024q2 4 3 9q1 4.99902 5 4q1 -5 -2.5 -9.5t-5.5 -3.5zM184 235.021q-7 -16.999 -14.5 -32.498t-17.5 -26.499q5 13.999 13 30.998t19 27.999zM122 564q-27 0 -43.5 -13.499t-23.5 -32.998t-3.5 -40.498
q3.5 -20.998 16.5 -36.9971q17 31.998 34 62.4961t33 60.4961q-4 1 -13 1z" />
    <glyph glyph-name="cent" unicode="&#xa2;" horiz-adv-x="585" 
d="M111 186q-3 5 -4.5 13t-9.5 5q17 -44 37 -85.5t40 -83.5q-7 5 -13.5 9.5t-13.5 9.5q-5 12 -8.5 21l-10.5 27q-2 0 -2.5 0.5t-2.5 -0.5q-1 -8 3.5 -18.5t10.5 -21.5q-38 33 -61 79t-26 100v8q2 -4 4.5 -7.5t5.5 -7.5q-3 -1 -5 -3q8 -15 12 -27.5t13 -16.5q0 -2 -1 -3
t-1 -3q5 1 9 -4q1 -5 6 -15.5t14 -14.5q0 -6 4 -14.5t9 -6.5q-8 19 -17.5 39.5t-23.5 28.5q3 1 2 5q-4 17 -13 31.5t-18 28.5q0 16 3 33q8 -22 21 -33q-5 11 -10 21.5t-10 20.5q1 4 1.5 7t1.5 7q20 -42 44 -85t41 -91q-8 8 -16 21t-15 26zM72 240q1 -8 4 -10.5t6 -3.5
t6.5 -2t6.5 -4q-7 10 -9.5 19t-11.5 15q0 -2 2.5 -5.5t4.5 -7t2.5 -7.5t-3.5 -7q1 5 -2 8t-6 5zM469 211q-2 5 -3.5 9t-4.5 4q-1 -9 2.5 -17t4.5 -13l-4 4t-5 1q10 -26 24 -52.5t28 -54.5l-3.5 -3.5l-3.5 -3.5q-2 6 -5 11.5t-9 9.5q0 -2 2.5 -5.5t4.5 -7t2.5 -7.5t-3.5 -7
q1 5 -2 8t-6 5q2 -8 4.5 -10.5t5.5 -3.5q-5 -5 -8 -7q-8 17 -19.5 33t-18.5 33q5 -17 10 -28.5t14 -22.5q-2 -1 -4 -3q2 -6 4 -11l4 -10q-26 -22 -58 -37q-24 47 -48 86q3 -9 5.5 -18t9.5 -11h-3t1 -3q2 -7 11.5 -24.5t17.5 -32.5q-21 -10 -42 -14q-11 19 -21.5 39t-21.5 43
q2 -1 5 -1t6 -1q-2 5 1 8t-1 9q-5 1 -5.5 -1t-5.5 -1q-4 -1 -1.5 -4.5t-0.5 -5.5q-4 6 -8.5 11t-7.5 8h1q-5 4 -4.5 3.5l3.5 -3.5q-4 -1 -4 -7q8 -26 20.5 -51t26.5 -51q-5 -1 -10.5 -1.5t-10.5 -0.5q-5 10 -9.5 19.5t-6.5 20.5q-6 2 -9.5 8t-6.5 12.5t-5.5 13.5t-6.5 10
q-2 4 -1.5 6.5t-1.5 6.5q-4 1 -4.5 -1t-2.5 0q2 8 -1 16t-8.5 16t-12 15t-10.5 12q32 -80 74 -156q-5 -1 -15 -1q-10 -29 -25 -42q-11 23 -24.5 48t-27.5 51q1 -11 11 -28.5t15 -28.5q3 -13 6.5 -25t7.5 -24q-11 -3 -20 4q-5 13 -9.5 26t-9.5 26v4q-1 0 -1 0.5t-1 0.5
q-12 35 -25 68t-28 62q-30 61 -54.5 111.5t-54.5 101.5q20 55 61.5 96.5t101.5 59.5q18 5 36 7.5t37 3.5q9 26 21.5 38t24 10.5t20 -16t10.5 -41.5q39 -10 74 -31.5t61 -54.5q19 -24 21 -53t-21 -52q-10 -10 -23.5 -15.5t-28.5 -5.5t-29 5t-24 16q-12 14 -24 23t-23 15
l-30 -209q42 9 70 42q20 23 47 33t55 -6q12 -7 21 -19t13 -26t2.5 -28.5t-9.5 -26.5q-13 25 -26 49.5t-29 49.5q-3 -2 -3 -4.5t-5 -2.5zM534 170l-4 10t-7 4q2 -5 4 -10.5t7 -3.5zM107 332q2 -5 4 -10.5t7 -3.5l-4 10t-7 4zM186 434q-2 3 -0.5 4.5t-0.5 3.5q-2 0 -4 1t-5 0
q2 -5 3 -6t1 -6zM201 119q1 5 4 9q-1 4 -3.5 3.5t-2.5 4.5q-5 -2 -6 -5t-3 -7q5 2 6.5 -1t4.5 -4zM222 73q0 -4 1 -8t6 -2q-2 3 -3 7t-4 3zM250 165q8 52 14.5 103.5t14.5 103.5q-13 -3 -27 -9t-25.5 -18t-19.5 -30.5t-9 -44.5q-1 -40 14.5 -65.5t37.5 -39.5zM333 164
q1 2 0 5t-2 5q-3 0 -6 -3q1 -5 3 -5.5t5 -1.5zM429 150q3 -4 5 -9.5t5 -8.5q1 4 -2.5 10t-7.5 8zM450 188q2 -4 3 -9t5 -4q1 5 -2.5 9t-5.5 4zM490 111q-7 17 -14.5 32.5t-17.5 26.5q5 -14 13 -31.5t19 -27.5z" />
    <glyph glyph-name="currency" unicode="&#xa4;" horiz-adv-x="273" 
d="M216 392q7 -7 7 -17t-7 -18q-2 -1 -6 -5q7 -17 5.5 -37t-10.5 -37l1 -1q8 -7 7.5 -17.5t-7.5 -17.5q-8 -8 -17.5 -7.5t-17.5 7.5l-4 4q-14 -6 -30 -6q-21 0 -39 10q-2 -2 -2.5 -3t-2.5 -2q-7 -8 -17.5 -7.5t-17.5 7.5q-8 8 -7.5 17.5t7.5 17.5l7 7q-13 33 0 67
q-2 1 -2.5 2t-1.5 2q-8 7 -8 17t8 18q7 7 17 7t18 -7v-1q9 5 19 7.5t22 2.5q25 0 42 -11q1 0 1 0.5t1 0.5q8 8 17.5 8t17.5 -8zM137 287q16 0 24 10.5t8 23.5t-8 23.5t-24 10.5q-15 0 -23 -10.5t-8 -23t8 -23.5t23 -11z" />
    <glyph glyph-name="dieresis" unicode="&#xa8;" horiz-adv-x="357" 
d="M136 637q18 0 26.5 -11.5t8.5 -25.5t-8.5 -25.5t-26.5 -11.5t-27 11.5t-9 25.5t9 25.5t27 11.5zM229 637q18 0 27 -11.5t9 -25.5t-9 -25.5t-27 -11.5t-27 11.5t-9 25.5t9 25.5t27 11.5z" />
    <glyph glyph-name="copyright" unicode="&#xa9;" horiz-adv-x="502" 
d="M416 177q-8 4 -14 -2q0 8 7 11t12 -1q-3 0 -6.5 -0.5t-5.5 -2.5q5 0 7 -5zM343 208q-5 6 -5 13t5 12q-2 2 -3 6t2 5q11 2 22 0t15 -10q-1 0 -2 0.5t-2 0.5l1 -1q4 -7 3.5 -14t-7.5 -12q6 0 10 4q-2 -5 -7 -7q-7 -3 -16 -3t-16 6zM349 234q-5 -4 -7 -10t3 -12
q7 -8 14.5 -7t12 6t4.5 12.5t-9 12.5h-9t-9 -2zM336 188q-2 -2 -3.5 -4t-5.5 -2q-5 0 -7 2.5t-3 2.5q-2 0 -4 -2t-6 0t-3 7t2 5v-6t2 -4q3 -1 4.5 1t6.5 2q2 -8 8 -6t9 7q5 -3 7 0q3 2 0 7q5 -3 2 -9q-6 -4 -9 -1zM329 204q-5 8 -5.5 20t-1.5 25v6q1 -5 1 -9.5t1 -10.5
q0 -16 5 -31zM300 232q5 -5 4 -14t-6 -14q-5 -6 -14 -10t-17 -3q5 2 10 3t8 5q-10 -2 -17 4t-4 17q1 10 14 15q-5 0 -9.5 -0.5t-9.5 -0.5q3 5 13 8t18 3q7 0 11 -4q3 -5 -1 -9zM282 201q7 0 11.5 3.5t6.5 8.5t1 10t-5 8q-1 0 -2 0.5t-2 0.5q-1 1 -5 1q-6 -1 -11 -3.5
t-7 -7.5q-5 -10 0 -15t13 -6zM214 152q-2 5 0.5 8.5t6.5 4.5t8 -0.5t5 -5.5q-5 -2 -8.5 -3.5t-3.5 -9.5q-2 5 0.5 8.5t5.5 5.5q-4 5 -9.5 1.5t-4.5 -9.5zM450 265q5 -7 1.5 -16t-7.5 -14q-3 -4 -8 -7.5t-10 -7.5t-12 -7.5t-15 -8.5q0 -1 0.5 -1.5t0.5 -1.5q13 7 23 -3
q6 -6 6.5 -14t-3.5 -14t-11 -9t-15 0q-3 -16 -19.5 -25.5t-32.5 -13.5q-27 -5 -55 -3q-35 1 -51 26q-6 -10 -18 -13q-12 -2 -17.5 5.5t-5.5 17t5 17.5t16 7q-1 3 -1.5 6.5t-1.5 6.5q-11 3 -20.5 7t-17.5 9q-8 7 -7 15q1 11 12.5 11t13.5 -13q-1 -3 -3 -1.5t-4.5 4t-5.5 4
t-6 -1.5q-6 -8 7 -15q10 -6 28 -11q-1 1 -1 1.5t-1 1.5q5 2 5.5 6t-4.5 7q-3 3 -6.5 4t-5.5 5q-2 3 0 5.5t4.5 5t4 5.5t-0.5 6q-4 7 -12 9.5t-12 10.5q-1 6 1.5 10.5t6.5 9.5q4 6 2 11t-7 8.5t-11.5 6.5t-9.5 6q-10 11 -10.5 25.5t4.5 25.5q2 4 6.5 8t8.5 8.5t5 9t-3 9.5
q-3 3 -8 2q-10 -2 -18 -8.5t-17 -11.5q-14 -9 -28.5 -10t-28.5 3q-10 3 -21 10.5t-14 20.5q-2 14 1.5 30t16.5 27q7 5 14.5 9t13.5 7q8 5 16 9.5t10 17.5q0 1 -0.5 1.5t-0.5 2.5v3q3 -2 8.5 -9.5t2.5 -14.5q-2 -3 -7 -7.5t-10 -7.5q-6 -5 -14 -9.5t-14.5 -10t-11 -12
t-3.5 -15.5q2 -12 13 -13t19 1q13 3 22 10t16.5 16t14 18.5t14.5 16.5q7 6 15 12t17 8q20 5 44.5 -2t36.5 -33q7 -14 1 -28t-17 -28q-4 -5 -7.5 -8.5t-1.5 -9.5q2 -5 6 -8t8 -3q15 -3 37 7q11 5 24 13.5t24 6.5q6 -1 13.5 -4.5t14 -9t12 -12.5t6.5 -14q3 -15 -1 -28t-4 -26
q0 -7 6.5 -13.5t6.5 -14.5q0 -4 -4.5 -7t-4.5 -7q1 -3 3 -6t3 -5q2 -5 -3 -10.5t-4 -7.5q4 -6 7 -9.5t0 -8.5q-3 -4 -5 -14q21 11 32.5 19.5t13.5 21.5q2 7 -2 9q-5 4 -7 -3q-1 -2 -1.5 -5.5t-2.5 -2.5q-3 0 -2 5.5t2 7.5q3 6 9 6t9 -4zM391 324q2 7 4.5 17t-0.5 18
q-2 7 -8.5 10t-12.5 1t-12.5 -7.5t-9.5 -9.5q-12 -19 -23 -38.5t-12 -37.5q6 7 14 16.5t16.5 18.5t16 14.5t13.5 4.5q8 0 14 -7zM184 489q-24 -17 -36 -36q16 13 35 24.5t37 1.5q6 -3 13.5 -11t6.5 -25q0 -17 -15 -30t-25 -29q-2 -2 -3.5 -6.5t-1.5 -7.5q-1 -5 1 -12t5 -10
q2 -2 6.5 -4t7.5 -3q8 -2 17.5 -0.5t19.5 3.5q5 1 11.5 1.5t11.5 -1.5q19 -5 27.5 -24t11.5 -39q5 23 17.5 43t16.5 25q8 13 22 21.5t25 -6.5q-1 5 -2 9t-4 9q-5 5 -14 11t-17 8q-15 6 -31 -5q-13 -8 -28 -15t-29 -5q-5 1 -12 5t-9 12q-2 5 2.5 10t8.5 10q8 9 14 20.5
t4 21.5q-1 11 -7.5 19t-15.5 13.5t-19.5 8t-18.5 2.5t-16.5 -2t-16.5 -7zM207 256q0 14 9.5 26t23.5 18q5 2 8 3.5t9 0.5q14 -2 27.5 -6t25.5 -15q-2 15 -6.5 29t-17.5 24q-11 8 -22.5 6.5t-23.5 -3.5q-8 -1 -15.5 -1t-12.5 2q-10 2 -15 11t-4 19q0 8 5.5 16t12.5 15.5
t14 14.5t10 15q6 12 2.5 23t-6.5 14q-7 8 -15.5 11.5t-17.5 1.5q-7 -2 -15 -6.5t-16.5 -10.5t-15.5 -12t-11 -11q-8 -10 -21 -17.5t-25 -9.5h-10.5t-9.5 2q-5 2 -8 7.5t-3 10.5q0 10 5.5 18t14 14t18 11.5t16.5 12.5q5 5 7 9t-5 12q1 -9 -5 -15t-14.5 -11.5t-18.5 -10.5
t-17 -12q-15 -13 -15 -30q-2 -11 1 -22t14 -18q14 -10 33.5 -11t35.5 9q5 3 12 8t13.5 8.5t13 4.5t10.5 -3q5 -6 4.5 -11t-3.5 -9.5t-7 -8.5t-7 -8q-7 -9 -7 -23.5t11 -25.5q3 -3 8 -5.5t9.5 -5.5t8 -7t3.5 -10t-6.5 -11.5t-4.5 -12.5q2 -5 7 -8.5t9 -5.5zM221 198
q4 -1 7.5 -2t7.5 -2q1 16 4.5 31.5t14.5 29.5q-11 11 -12 23.5t6 22.5q-14 -3 -25.5 -15t-13.5 -24q-1 -5 0.5 -7t3.5 -5q5 -9 -4 -17q-7 -6 -1.5 -8t10.5 -6q7 -7 3 -16q0 -2 -2 -2q0 -1 0.5 -1.5t0.5 -1.5zM235 188l-12 3q2 -7 4 -19q5 -5 8 -3v19zM385 145q4 3 8 8.5
t3 11.5q0 3 -1 6.5t-2 6.5q-2 6 -2 8l-3 12q-11 -5 -21.5 -10t-19.5 -10q-4 -2 -5.5 0t3.5 4q10 6 20.5 11t21.5 11q0 10 -1 15q0 8 -1 12q0 8 -1 13q0 7 -3 13q-2 5 -6 8.5t-7 6.5q9 5 6 15.5t-8 19.5q-9 -5 -17 -10.5t-17 -12.5q-3 -2 -6.5 -5t-5.5 -5q-4 -1 -7 2
q-8 10 -21 15.5t-24 7.5q-9 2 -12 1.5t-7 -7.5q-5 -9 -1.5 -18.5t10.5 -19.5q-10 -14 -13.5 -29.5t-4.5 -32.5q2 -1 3.5 -1t3.5 -1q14 -3 32 -5.5t35 -5.5q5 -1 5.5 -2.5t-3.5 -2.5q-19 2 -38 4.5t-38 7.5q0 -4 -1 -6q0 -3 0.5 -9.5t-1.5 -7.5t-6.5 1t-6.5 4t-2 6
q-11 1 -14.5 -10.5t1.5 -19.5q3 -5 9.5 -6t11.5 2q5 4 11 12q1 2 2 -1t3 -5q15 -19 45 -22q26 -2 51 2.5t42 17.5zM401 197q2 -4 2 -7q-1 -2 -4 -2.5t-5 -2.5q1 -5 3 -9t3 -9q7 -3 13 -0.5t9 8t2.5 12t-6.5 10.5q-9 5 -17 0zM399 193q-1 2 -2 4.5t-1 4.5q-2 0 -4 -2l2 -11
q4 2 5 4zM397 220q1 2 2.5 4.5t1.5 4.5q1 4 -1.5 6t-4.5 5q-3 4 -1 7t5 8t-0.5 8.5t-4.5 8.5q0 5 4.5 8.5t4.5 7.5q-1 5 -5.5 10.5t-6.5 11.5q-1 2 -0.5 5t0.5 5q-2 5 -7.5 7.5t-9.5 1.5q-5 -1 -11.5 -6.5t-13.5 -13t-13.5 -15t-10.5 -12.5q8 8 15 13t15 10q5 3 11 7t9 1
l-2 -2l-2 -2q5 -10 6.5 -20t-3.5 -18q12 -10 12.5 -22.5t2.5 -23.5q1 -5 1 -9.5t1 -9.5q1 1 2 1t2 1q0 4 2 12zM290 220q3 0 3 -4t-4 -4t-4 4t5 4zM293 217q-1 -1 -2 -1l-1 1l1 2q2 0 2 -2zM361 216q-4 0 -4 4t4 4t4 -4t-4 -4zM362 223l-1 -2l1 -1q1 0 2 1q0 2 -2 2z
M341 173q0 -2 -2.5 -1.5t-5.5 -0.5t-5 -2.5t-3 0.5q0 4 7 6t9 -2zM334 169q7 1 9 0l-8 -2t-8 -1t7 3zM246 117q1 0 2 -1q0 -1 0.5 -1t0.5 -1v-22q0 -1 -1 -2t-2 -1t-2 1v2q-2 0 -2 -2q-2 0 -2 -1h-3q-2 0 -3 1q-1 0 -3 2q0 1 -0.5 1.5t-0.5 1.5q-1 1 -1 4q0 4 2 8q4 2 6 2
q3 0 4 -1q1 0 3 -2v8v2q1 0 1 0.5t1 0.5zM243 96q0 1 0.5 1.5t0.5 1.5q0 2 -0.5 2.5t-0.5 1.5l-2 2q-1 0 -1 0.5t-1 0.5t-1.5 -0.5t-1.5 -0.5q0 -1 -0.5 -1t-0.5 -1q-1 -1 -1 -4q0 -2 1 -3q0 -1 1 -2t3 -1q1 0 2 1zM271 97v-2v-2l-2 -2q-1 0 -1.5 -0.5t-1.5 -0.5
q-1 -1 -4 -1q-4 0 -7 3q-2 2 -2 7q0 4 1 5q1 2 3 4q2 1 6 1h3q1 -1 1.5 -1t1.5 -1l2 -2v-2l-1 -1l-1 -1q-1 0 -1 1l-1 1l-2 2h-3q-2 0 -3 -1t-1 -5v-3l1 -2l1 -1h3h2q1 1 1 1.5t1 1.5l1 1h1h2zM292 106q-1 0 2 -3v-4v-4q-1 -1 -1 -1.5t-1 -1.5q-2 -2 -3 -2q-2 -1 -5 -1
q-2 0 -4 1q-1 0 -3 2q-1 1 -1 1.5t-1 1.5v4v4q1 3 2 3l3 3h4h5zM288 94q1 2 1 5q0 4 -1 5q-2 2 -4 2q-1 0 -1 -0.5t-1 -0.5l-2 -2v-4v-3q1 -1 1 -1.5t1 -1.5h2q3 0 4 1zM312 93q1 -1 1 -2v-1q-1 -1 -2 -1t-1 1q-1 0 -2 1l-3 5l-4 -5q-1 -1 -1 -2h-2q-1 0 -2 1v1l1 2l4 7
l-4 5q0 1 -1 2q0 1 0.5 1t0.5 1h2h1q0 -1 0.5 -1t0.5 -1l4 -4l3 4q0 1 0.5 1t0.5 1h2h1q1 -1 1 -2v-1q-1 0 -1 -1l-4 -5zM332 109q1 0 1 -1l1 -1q-1 0 -1 -1v-1l-7 -17q0 -2 -0.5 -2.5t-0.5 -1.5l-2 -2h-4h-3q-1 0 -1 2v1q1 0 1 0.5t1 0.5h1v-1q1 0 2 1l1 1v1l1 2l-6 15
q-1 1 -1 2l1 1v1h2h1q1 -1 1 -2l4 -13l4 12q1 1 1 2q1 0 1 1h1h1zM337 95q1 0 2 -1t1 -2q0 -2 -1 -2q0 -1 -2 -1q-1 0 -2 1l-1 2q0 1 0.5 1t0.5 1q1 0 1 0.5t1 0.5zM363 97v-2v-2l-2 -2q-1 0 -1.5 -0.5t-1.5 -0.5q-1 -1 -4 -1q-4 0 -7 3q-2 2 -2 7q0 4 1 5q1 2 3 4q2 1 6 1
h3q1 -1 1.5 -1t1.5 -1l2 -2v-2v-1q-1 0 -1 -0.5t-1 -0.5t-1 1l-1 1l-2 2h-2q-3 0 -4 -1t-1 -5v-3l1 -2l2 -1h2h2q1 1 1 1.5t1 1.5l1 1h1h2zM384 106q-1 0 2 -3v-4v-4q-1 -1 -1 -1.5t-1 -1.5q-2 -2 -3 -2q-2 -1 -5 -1q-2 0 -4 1q-1 0 -3 2q-1 1 -1 1.5t-1 1.5v4v4q1 3 2 3
l3 3h4h5zM380 94q1 2 1 5q0 4 -1 5q-2 2 -4 2l-2 -1l-2 -2v-4v-3q1 -1 1 -1.5t1 -1.5h2q3 0 4 1zM416 108l2 -2q0 -1 0.5 -1.5t0.5 -2.5v-10q0 -1 -1 -2t-2 -1t-2 1l-1 2v9v2v2h-2h-2l-2 -2v-4v-7q0 -2 -1 -2q0 -1 -2 -1l-1 1q-1 0 -1 2v8v3q0 1 -0.5 1t-0.5 1h-2
q-2 0 -3 -1t-1 -5v-7v-2q-1 -1 -2 -1q-2 0 -2 1q-1 0 -1 2v14q0 2 1 3h1h2q1 -1 1 -2v-1l3 3h3q2 0 3 -1q2 0 2 -2q2 2 3 2q1 1 3 1q3 0 4 -1z" />
    <glyph glyph-name="guillemotleft" unicode="&#xab;" horiz-adv-x="427" 
d="M65 481q-21 43 -13 72t27.5 38.5t43 -3t34.5 -51.5q8 -27 20 -58t18.5 -56t3.5 -38.5t-25 -5.5q-36 13 -64 40.5t-45 61.5zM325 537q8 -27 20 -58t18.5 -56t3.5 -38.5t-25 -5.5q-36 13 -64 40.5t-44 61.5q-14 29 -14.5 51.5t7 37.5t21.5 21.5t28.5 3t28 -17.5t20.5 -40z
" />
    <glyph glyph-name="acute" unicode="&#xb4;" horiz-adv-x="366" 
d="M215 660q17 19 34 16t26.5 -16.5t7 -33.5t-24.5 -36q-20 -14 -52 -22.5t-69 -0.5q-15 3 -24.5 13t-11 20.5t6 18t27.5 6.5q25 -2 42 5t38 30z" />
    <glyph glyph-name="guillemotright" unicode="&#xbb;" horiz-adv-x="420" 
d="M353 481q-17 -34 -45 -61.5t-64 -40.5q-22 -8 -25 5.5t3.5 38.5t18.5 56t20 58q11 39 34.5 51.5t43 3t27.5 -38.5t-13 -72zM93 537q11 39 34 51.5t42.5 3t27.5 -38.5t-13 -72q-16 -34 -44 -61.5t-64 -40.5q-22 -8 -25 5.5t3.5 38.5t18.5 56t20 58z" />
    <glyph glyph-name="questiondown" unicode="&#xbf;" horiz-adv-x="527" 
d="M337.012 372.012q-7 14.999 -14.5 29.498q-7.49902 14.5 -15.499 28.499q13 -8 21.499 -22.499q8.5 -14.499 8.5 -35.498zM206.02 505.004q4.99902 -4 7.49902 -9q2.5 -4.99902 8.5 -6.99902q-7 21.999 -18.999 36.998q1 7.99902 5 16.999q13.999 -18.999 25.998 -38.498
t24.998 -33.498l2 -1q-22.998 2 -36.4971 11.499q-13.5 9.5 -18.499 23.499zM266.016 501.004q-5 7 -10.999 15.999q-6 9 -1 14.999q5.99902 -13.999 17.999 -29.498q11.999 -15.499 22.998 -25.498v-4q-7.99902 -2 -14.999 -2q-5 8 -8.49902 14.999q-3.5 7 -5.5 14.999z
M268.016 573q26.998 0 42.4971 -11.5q15.499 -11.499 19.999 -26.998t-2 -31.498t-23.498 -24.998q-16.999 22.998 -33.498 45.4971q-16.499 22.498 -30.498 44.4971q11.999 5 26.998 5zM113.025 -104.959q-29.999 23.999 -47.998 58.4961q-17.998 34.498 -24.498 71.9961
t0 75.4951q6.5 37.998 25.498 69.9961q8 13.999 15.999 23.998q8 10 15.999 18.999q8 9 16.499 17.999q8.5 8.99902 18.499 20.999q2 -5 3.5 -9t6.5 -3q-2 5 -3 9.5t-4 5.5q4 4.99902 7.5 8.99902q3.49902 4 8.49902 8.99902q8 -16.999 17.499 -32.998t19.499 -32.998
q3.99902 1 3.5 3.5q-0.5 2.5 5.49902 2.5q2 -5 3 -5h5q0 9 -3.5 13q-3.5 3.99902 -3.5 8.99902q2 -1 3.5 -3.5t5.5 -0.5q-15 35.998 -35.998 74.9961q2 1.99902 2.5 4.99902t2.5 6q6.99902 -16.999 14.499 -31.498q7.49902 -14.499 16.499 -25.498q-5 13.999 -12.5 30.498
q-7.49902 16.499 -18.498 26.498q1.99902 6 3.99902 11.999q2 6 4 13.999q7.99902 -12.999 15.999 -25.498t12.999 -24.499q-4.99902 16.999 -9.99902 27.999q-5 10.999 -12.999 21.998q2.99902 1 3.99902 4q-2 4 -3.49902 8q-1.5 3.99902 -3.5 7.99902q0 2 0.5 5
t0.5 5.99902q2 22.999 12.999 38.998t26.998 23.998q14.999 -31.998 30.998 -61.9961t32.998 -55.9961q-3 7.99902 -5.99902 16.999q-3 8.99902 -10 10.999q2 1 3 0.5t0 2.5q-1 5 -7.49902 16.999q-6.5 11.999 -13.5 24.498q-6.99902 12.499 -12.999 22.999
q-5.99902 10.499 -5.99902 11.499q1 4 -3 13.999q19.998 7 42.9971 4q12.999 -22.999 26.998 -48.4971t27.999 -54.4971v-1q-2 0 -5 0.5t-5 0.5q2 -4.99902 -1 -7.49902t1 -8.5q4 -0.999023 5 0q1 1 4 2q-4 -25.998 -11.5 -49.9971q-7.49902 -23.998 -21.498 -45.9971
q-14.999 -24.998 -34.498 -41.9971t-37.498 -39.998q-24.998 -29.998 -35.498 -55.9961q-10.499 -25.998 -8.99902 -45.4971t13.999 -32.998t33.498 -18.499q24.998 -7 41.9971 2.5q16.999 9.49902 27.499 28.998q10.499 19.499 15.499 46.4971
q4.99902 26.998 5.99902 54.9971q1 29.998 22.999 51.9961q21.999 21.999 50.9971 21.999q31.998 0 51.9961 -21.999q19.999 -21.998 21.999 -51.9961q3 -35.998 -2.5 -71.9961q-5.49902 -35.998 -19.998 -68.9961q-14.5 -32.9971 -37.998 -60.4961
q-23.499 -27.498 -56.4971 -45.4971q-57.9961 -31.998 -122.992 -28.998t-117.992 45.9971zM237.018 275.018l-4 10q-2 4.99902 -6 7.99902q-1 -4 2.5 -9.99902q3.5 -6 7.5 -8zM217.019 237.021q-2 3.99902 -3 9.49902t-5.99902 3.5q-1 -4 2.99902 -8.5
q4 -4.49902 6 -4.49902zM71.0273 163.024q-4 -2 -6.99902 -2q1.99902 -2.99902 0.999023 -4.49902q-0.999023 -1.5 1 -4.5q2 1 4 -0.5t5 0.5q-2 5 -3.5 5.5t-0.5 5.49902z" />
    <glyph glyph-name="Agrave" unicode="&#xc0;" 
d="M350 144q14 -35 29 -69t28 -68q2 -4 2 -5q-13 2 -25 8.5t-21 16t-14 22t-4 26.5q1 6 1 11.5t1 10.5q3 -6 6 -11.5t5 -10.5q-4 11 -6 18.5t-4 13.5q0 10 0.5 19t1.5 18zM467 490q18 -50 25.5 -101.5t9 -104t-1.5 -105.5t-6 -104q-3 -32 -24 -53q-8 19 -17.5 38.5
t-18.5 39.5q0 -11 9 -29t14 -29l6 -27q-4 -2 -8 -4.5t-9 -4.5q-15 48 -29.5 94t-32.5 87q-15 33 -27.5 63t-25.5 58h20q0 4 -0.5 24t-5 47.5t-15 58.5t-30 57.5t-50.5 44t-76 18.5h-12.5t-20.5 -0.5t-21.5 -1t-15.5 -1.5q-30 -5 -56 7t-35 44q-4 13 -2 28.5t9 29t18.5 23
t26.5 11.5q67 10 136.5 6t130.5 -40q50 -29 83 -74.5t52 -99.5zM407 164q0 3 1 5t3 4q0 4 -3 3.5t-3 4.5q-5 -1 -6 -4.5t-3 -6.5q4 1 6 -1.5t5 -4.5zM425 117q0 -4 1 -8t6 -3q-2 4 -2.5 8t-4.5 3zM74 160q-33 1 -50 23.5t-18 49t15 49.5t48 26q29 -73 65 -144.5t70 -140.5
q-15 -16 -37 -20.5t-43 1.5t-35.5 23t-14.5 45v88zM320 235q-3 5 -4 13t-9 6q8 -24 17 -47.5t19 -46.5h-101q-17 42 -35 81t-38 73q3 -8 5.5 -17.5t9.5 -11.5q-2 0 -3 0.5t0 -2.5q1 -5 7 -17.5t12.5 -25.5t11.5 -23.5t5 -11.5q-1 -9 5.5 -22t12.5 -23h-13v-64
q-6 14 -12 25.5t-13 22.5q-14 34 -33.5 71t-37.5 81q6 -2 11 -2q-2 5 1 7.5t-1 8.5q-4 2 -4.5 0t-5.5 -1q-4 -1 -2 -4.5t0 -5.5q-8 13 -13 23.5t-10 20.5q11 1 9.5 7.5t-9.5 5.5q-2 -6 -1.5 -17.5t9.5 -19.5q-5 -1 -5 -7q6 -27 17.5 -53t24.5 -52t24.5 -52t17.5 -54
q4 -9 10.5 -23t-0.5 -22q-5 20 -17.5 43t-23.5 38q-2 20 -14 28q-2 9 -6.5 19t-10 20.5t-10 21t-5.5 21.5q-6 2 -9 8.5t-5.5 13.5t-5 13.5t-6.5 9.5q-2 5 -1 7t-1 7q-4 1 -4.5 -1t-2.5 0q1 10 -3 21v120q0 36 23 54t51 18t51 -18t23 -54v-138h36q4 -10 12 -23q-1 0 -4 -3
q7 -15 10.5 -27.5t12.5 -16.5q0 -2 -1 -3t-1 -3q5 0 8 -5q1 -5 5.5 -15.5t13.5 -15.5q0 -6 3.5 -15t8.5 -6q-7 19 -15.5 40.5t-22.5 29.5q3 1 2 4q-2 16 -10.5 30.5t-16.5 28.5h35q14 -29 27 -59t23 -62q-8 8 -15.5 21.5t-12.5 26.5zM283 291q1 -8 3.5 -11t5.5 -4t6.5 -2
t6.5 -5q-7 11 -9 20t-10 15q-1 -2 1.5 -5t4.5 -7t2.5 -8t-3.5 -7q1 5 -2 8zM236 844q21 -23 38 -30t42 -5q19 1 27 -6.5t6.5 -18t-11 -20.5t-24.5 -13q-37 -8 -69 0.5t-52 22.5q-22 16 -24.5 36t7 33.5t26.5 16.5t34 -16z" />
    <glyph glyph-name="Aacute" unicode="&#xc1;" 
d="M350 144q14 -35 29 -69t28 -68q2 -4 2 -5q-13 2 -25 8.5t-21 16t-14 22t-4 26.5q1 6 1 11.5t1 10.5q3 -6 6 -11.5t5 -10.5q-4 11 -6 18.5t-4 13.5q0 10 0.5 19t1.5 18zM467 490q18 -50 25.5 -101.5t9 -104t-1.5 -105.5t-6 -104q-3 -32 -24 -53q-8 19 -17.5 38.5
t-18.5 39.5q0 -11 9 -29t14 -29l6 -27q-4 -2 -8 -4.5t-9 -4.5q-15 48 -29.5 94t-32.5 87q-15 33 -27.5 63t-25.5 58h20q0 4 -0.5 24t-5 47.5t-15 58.5t-30 57.5t-50.5 44t-76 18.5h-12.5t-20.5 -0.5t-21.5 -1t-15.5 -1.5q-30 -5 -56 7t-35 44q-4 13 -2 28.5t9 29t18.5 23
t26.5 11.5q67 10 136.5 6t130.5 -40q50 -29 83 -74.5t52 -99.5zM407 164q0 3 1 5t3 4q0 4 -3 3.5t-3 4.5q-5 -1 -6 -4.5t-3 -6.5q4 1 6 -1.5t5 -4.5zM425 117q0 -4 1 -8t6 -3q-2 4 -2.5 8t-4.5 3zM74 160q-33 1 -50 23.5t-18 49t15 49.5t48 26q29 -73 65 -144.5t70 -140.5
q-15 -16 -37 -20.5t-43 1.5t-35.5 23t-14.5 45v88zM320 235q-3 5 -4 13t-9 6q8 -24 17 -47.5t19 -46.5h-101q-17 42 -35 81t-38 73q3 -8 5.5 -17.5t9.5 -11.5q-2 0 -3 0.5t0 -2.5q1 -5 7 -17.5t12.5 -25.5t11.5 -23.5t5 -11.5q-1 -9 5.5 -22t12.5 -23h-13v-64
q-6 14 -12 25.5t-13 22.5q-14 34 -33.5 71t-37.5 81q6 -2 11 -2q-2 5 1 7.5t-1 8.5q-4 2 -4.5 0t-5.5 -1q-4 -1 -2 -4.5t0 -5.5q-8 13 -13 23.5t-10 20.5q11 1 9.5 7.5t-9.5 5.5q-2 -6 -1.5 -17.5t9.5 -19.5q-5 -1 -5 -7q6 -27 17.5 -53t24.5 -52t24.5 -52t17.5 -54
q4 -9 10.5 -23t-0.5 -22q-5 20 -17.5 43t-23.5 38q-2 20 -14 28q-2 9 -6.5 19t-10 20.5t-10 21t-5.5 21.5q-6 2 -9 8.5t-5.5 13.5t-5 13.5t-6.5 9.5q-2 5 -1 7t-1 7q-4 1 -4.5 -1t-2.5 0q1 10 -3 21v120q0 36 23 54t51 18t51 -18t23 -54v-138h36q4 -10 12 -23q-1 0 -4 -3
q7 -15 10.5 -27.5t12.5 -16.5q0 -2 -1 -3t-1 -3q5 0 8 -5q1 -5 5.5 -15.5t13.5 -15.5q0 -6 3.5 -15t8.5 -6q-7 19 -15.5 40.5t-22.5 29.5q3 1 2 4q-2 16 -10.5 30.5t-16.5 28.5h35q14 -29 27 -59t23 -62q-8 8 -15.5 21.5t-12.5 26.5zM283 291q1 -8 3.5 -11t5.5 -4t6.5 -2
t6.5 -5q-7 11 -9 20t-10 15q-1 -2 1.5 -5t4.5 -7t2.5 -8t-3.5 -7q1 5 -2 8zM266 844q17 19 34 16t26.5 -16.5t7 -33.5t-24.5 -36q-20 -14 -52 -22.5t-69 -0.5q-15 3 -24.5 13t-11 20.5t6 18t27.5 6.5q25 -2 42 5t38 30z" />
    <glyph glyph-name="Acircumflex" unicode="&#xc2;" 
d="M350 144q14 -35 29 -69t28 -68q2 -4 2 -5q-13 2 -25 8.5t-21 16t-14 22t-4 26.5q1 6 1 11.5t1 10.5q3 -6 6 -11.5t5 -10.5q-4 11 -6 18.5t-4 13.5q0 10 0.5 19t1.5 18zM467 490q18 -50 25.5 -101.5t9 -104t-1.5 -105.5t-6 -104q-3 -32 -24 -53q-8 19 -17.5 38.5
t-18.5 39.5q0 -11 9 -29t14 -29l6 -27q-4 -2 -8 -4.5t-9 -4.5q-15 48 -29.5 94t-32.5 87q-15 33 -27.5 63t-25.5 58h20q0 4 -0.5 24t-5 47.5t-15 58.5t-30 57.5t-50.5 44t-76 18.5h-12.5t-20.5 -0.5t-21.5 -1t-15.5 -1.5q-30 -5 -56 7t-35 44q-4 13 -2 28.5t9 29t18.5 23
t26.5 11.5q67 10 136.5 6t130.5 -40q50 -29 83 -74.5t52 -99.5zM407 164q0 3 1 5t3 4q0 4 -3 3.5t-3 4.5q-5 -1 -6 -4.5t-3 -6.5q4 1 6 -1.5t5 -4.5zM425 117q0 -4 1 -8t6 -3q-2 4 -2.5 8t-4.5 3zM74 160q-33 1 -50 23.5t-18 49t15 49.5t48 26q29 -73 65 -144.5t70 -140.5
q-15 -16 -37 -20.5t-43 1.5t-35.5 23t-14.5 45v88zM320 235q-3 5 -4 13t-9 6q8 -24 17 -47.5t19 -46.5h-101q-17 42 -35 81t-38 73q3 -8 5.5 -17.5t9.5 -11.5q-2 0 -3 0.5t0 -2.5q1 -5 7 -17.5t12.5 -25.5t11.5 -23.5t5 -11.5q-1 -9 5.5 -22t12.5 -23h-13v-64
q-6 14 -12 25.5t-13 22.5q-14 34 -33.5 71t-37.5 81q6 -2 11 -2q-2 5 1 7.5t-1 8.5q-4 2 -4.5 0t-5.5 -1q-4 -1 -2 -4.5t0 -5.5q-8 13 -13 23.5t-10 20.5q11 1 9.5 7.5t-9.5 5.5q-2 -6 -1.5 -17.5t9.5 -19.5q-5 -1 -5 -7q6 -27 17.5 -53t24.5 -52t24.5 -52t17.5 -54
q4 -9 10.5 -23t-0.5 -22q-5 20 -17.5 43t-23.5 38q-2 20 -14 28q-2 9 -6.5 19t-10 20.5t-10 21t-5.5 21.5q-6 2 -9 8.5t-5.5 13.5t-5 13.5t-6.5 9.5q-2 5 -1 7t-1 7q-4 1 -4.5 -1t-2.5 0q1 10 -3 21v120q0 36 23 54t51 18t51 -18t23 -54v-138h36q4 -10 12 -23q-1 0 -4 -3
q7 -15 10.5 -27.5t12.5 -16.5q0 -2 -1 -3t-1 -3q5 0 8 -5q1 -5 5.5 -15.5t13.5 -15.5q0 -6 3.5 -15t8.5 -6q-7 19 -15.5 40.5t-22.5 29.5q3 1 2 4q-2 16 -10.5 30.5t-16.5 28.5h35q14 -29 27 -59t23 -62q-8 8 -15.5 21.5t-12.5 26.5zM283 291q1 -8 3.5 -11t5.5 -4t6.5 -2
t6.5 -5q-7 11 -9 20t-10 15q-1 -2 1.5 -5t4.5 -7t2.5 -8t-3.5 -7q1 5 -2 8zM326 804q6 -14 3.5 -28.5t-16.5 -22.5q-12 -7 -28.5 -3.5t-22.5 17.5q-2 5 -5 10.5t-5 10.5q-3 -5 -5.5 -9t-5.5 -8q-8 -13 -22 -17.5t-28 3.5q-13 8 -17.5 22.5t3.5 28.5q12 21 21 38.5t20 35.5
q5 9 15.5 13t21.5 4t21 -4.5t15 -12.5q10 -20 18.5 -39t16.5 -39z" />
    <glyph glyph-name="Atilde" unicode="&#xc3;" 
d="M350 144q14 -35 29 -69t28 -68q2 -4 2 -5q-13 2 -25 8.5t-21 16t-14 22t-4 26.5q1 6 1 11.5t1 10.5q3 -6 6 -11.5t5 -10.5q-4 11 -6 18.5t-4 13.5q0 10 0.5 19t1.5 18zM467 490q18 -50 25.5 -101.5t9 -104t-1.5 -105.5t-6 -104q-3 -32 -24 -53q-8 19 -17.5 38.5
t-18.5 39.5q0 -11 9 -29t14 -29l6 -27q-4 -2 -8 -4.5t-9 -4.5q-15 48 -29.5 94t-32.5 87q-15 33 -27.5 63t-25.5 58h20q0 4 -0.5 24t-5 47.5t-15 58.5t-30 57.5t-50.5 44t-76 18.5h-12.5t-20.5 -0.5t-21.5 -1t-15.5 -1.5q-30 -5 -56 7t-35 44q-4 13 -2 28.5t9 29t18.5 23
t26.5 11.5q67 10 136.5 6t130.5 -40q50 -29 83 -74.5t52 -99.5zM407 164q0 3 1 5t3 4q0 4 -3 3.5t-3 4.5q-5 -1 -6 -4.5t-3 -6.5q4 1 6 -1.5t5 -4.5zM425 117q0 -4 1 -8t6 -3q-2 4 -2.5 8t-4.5 3zM74 160q-33 1 -50 23.5t-18 49t15 49.5t48 26q29 -73 65 -144.5t70 -140.5
q-15 -16 -37 -20.5t-43 1.5t-35.5 23t-14.5 45v88zM320 235q-3 5 -4 13t-9 6q8 -24 17 -47.5t19 -46.5h-101q-17 42 -35 81t-38 73q3 -8 5.5 -17.5t9.5 -11.5q-2 0 -3 0.5t0 -2.5q1 -5 7 -17.5t12.5 -25.5t11.5 -23.5t5 -11.5q-1 -9 5.5 -22t12.5 -23h-13v-64
q-6 14 -12 25.5t-13 22.5q-14 34 -33.5 71t-37.5 81q6 -2 11 -2q-2 5 1 7.5t-1 8.5q-4 2 -4.5 0t-5.5 -1q-4 -1 -2 -4.5t0 -5.5q-8 13 -13 23.5t-10 20.5q11 1 9.5 7.5t-9.5 5.5q-2 -6 -1.5 -17.5t9.5 -19.5q-5 -1 -5 -7q6 -27 17.5 -53t24.5 -52t24.5 -52t17.5 -54
q4 -9 10.5 -23t-0.5 -22q-5 20 -17.5 43t-23.5 38q-2 20 -14 28q-2 9 -6.5 19t-10 20.5t-10 21t-5.5 21.5q-6 2 -9 8.5t-5.5 13.5t-5 13.5t-6.5 9.5q-2 5 -1 7t-1 7q-4 1 -4.5 -1t-2.5 0q1 10 -3 21v120q0 36 23 54t51 18t51 -18t23 -54v-138h36q4 -10 12 -23q-1 0 -4 -3
q7 -15 10.5 -27.5t12.5 -16.5q0 -2 -1 -3t-1 -3q5 0 8 -5q1 -5 5.5 -15.5t13.5 -15.5q0 -6 3.5 -15t8.5 -6q-7 19 -15.5 40.5t-22.5 29.5q3 1 2 4q-2 16 -10.5 30.5t-16.5 28.5h35q14 -29 27 -59t23 -62q-8 8 -15.5 21.5t-12.5 26.5zM283 291q1 -8 3.5 -11t5.5 -4t6.5 -2
t6.5 -5q-7 11 -9 20t-10 15q-1 -2 1.5 -5t4.5 -7t2.5 -8t-3.5 -7q1 5 -2 8zM273 828q10 12 24.5 12.5t25.5 -6.5t15.5 -20t-4.5 -28q-8 -11 -17.5 -20.5t-21 -14t-24.5 -4t-26 8.5q-5 4 -9 7t-9 7l-2 2q-12 -12 -25.5 -9.5t-23 12t-11.5 24t10 27.5q16 19 39.5 23.5
t44.5 -10.5q4 -3 7 -6t7 -5z" />
    <glyph glyph-name="Adieresis" unicode="&#xc4;" 
d="M350 144q14 -35 29 -69t28 -68q2 -4 2 -5q-13 2 -25 8.5t-21 16t-14 22t-4 26.5q1 6 1 11.5t1 10.5q3 -6 6 -11.5t5 -10.5q-4 11 -6 18.5t-4 13.5q0 10 0.5 19t1.5 18zM467 490q18 -50 25.5 -101.5t9 -104t-1.5 -105.5t-6 -104q-3 -32 -24 -53q-8 19 -17.5 38.5
t-18.5 39.5q0 -11 9 -29t14 -29l6 -27q-4 -2 -8 -4.5t-9 -4.5q-15 48 -29.5 94t-32.5 87q-15 33 -27.5 63t-25.5 58h20q0 4 -0.5 24t-5 47.5t-15 58.5t-30 57.5t-50.5 44t-76 18.5h-12.5t-20.5 -0.5t-21.5 -1t-15.5 -1.5q-30 -5 -56 7t-35 44q-4 13 -2 28.5t9 29t18.5 23
t26.5 11.5q67 10 136.5 6t130.5 -40q50 -29 83 -74.5t52 -99.5zM407 164q0 3 1 5t3 4q0 4 -3 3.5t-3 4.5q-5 -1 -6 -4.5t-3 -6.5q4 1 6 -1.5t5 -4.5zM425 117q0 -4 1 -8t6 -3q-2 4 -2.5 8t-4.5 3zM74 160q-33 1 -50 23.5t-18 49t15 49.5t48 26q29 -73 65 -144.5t70 -140.5
q-15 -16 -37 -20.5t-43 1.5t-35.5 23t-14.5 45v88zM320 235q-3 5 -4 13t-9 6q8 -24 17 -47.5t19 -46.5h-101q-17 42 -35 81t-38 73q3 -8 5.5 -17.5t9.5 -11.5q-2 0 -3 0.5t0 -2.5q1 -5 7 -17.5t12.5 -25.5t11.5 -23.5t5 -11.5q-1 -9 5.5 -22t12.5 -23h-13v-64
q-6 14 -12 25.5t-13 22.5q-14 34 -33.5 71t-37.5 81q6 -2 11 -2q-2 5 1 7.5t-1 8.5q-4 2 -4.5 0t-5.5 -1q-4 -1 -2 -4.5t0 -5.5q-8 13 -13 23.5t-10 20.5q11 1 9.5 7.5t-9.5 5.5q-2 -6 -1.5 -17.5t9.5 -19.5q-5 -1 -5 -7q6 -27 17.5 -53t24.5 -52t24.5 -52t17.5 -54
q4 -9 10.5 -23t-0.5 -22q-5 20 -17.5 43t-23.5 38q-2 20 -14 28q-2 9 -6.5 19t-10 20.5t-10 21t-5.5 21.5q-6 2 -9 8.5t-5.5 13.5t-5 13.5t-6.5 9.5q-2 5 -1 7t-1 7q-4 1 -4.5 -1t-2.5 0q1 10 -3 21v120q0 36 23 54t51 18t51 -18t23 -54v-138h36q4 -10 12 -23q-1 0 -4 -3
q7 -15 10.5 -27.5t12.5 -16.5q0 -2 -1 -3t-1 -3q5 0 8 -5q1 -5 5.5 -15.5t13.5 -15.5q0 -6 3.5 -15t8.5 -6q-7 19 -15.5 40.5t-22.5 29.5q3 1 2 4q-2 16 -10.5 30.5t-16.5 28.5h35q14 -29 27 -59t23 -62q-8 8 -15.5 21.5t-12.5 26.5zM283 291q1 -8 3.5 -11t5.5 -4t6.5 -2
t6.5 -5q-7 11 -9 20t-10 15q-1 -2 1.5 -5t4.5 -7t2.5 -8t-3.5 -7q1 5 -2 8zM205 821q18 0 26.5 -11.5t8.5 -25.5t-8.5 -25.5t-26.5 -11.5t-27 11.5t-9 25.5t9 25.5t27 11.5zM298 821q18 0 27 -11.5t9 -25.5t-9 -25.5t-27 -11.5t-27 11.5t-9 25.5t9 25.5t27 11.5z" />
    <glyph glyph-name="Aring" unicode="&#xc5;" 
d="M350 144q14 -35 29 -69t28 -68q2 -4 2 -5q-13 2 -25 8.5t-21 16t-14 22t-4 26.5q1 6 1 11.5t1 10.5q3 -6 6 -11.5t5 -10.5q-4 11 -6 18.5t-4 13.5q0 10 0.5 19t1.5 18zM467 490q18 -50 25.5 -101.5t9 -104t-1.5 -105.5t-6 -104q-3 -32 -24 -53q-8 19 -17.5 38.5
t-18.5 39.5q0 -11 9 -29t14 -29l6 -27q-4 -2 -8 -4.5t-9 -4.5q-15 48 -29.5 94t-32.5 87q-15 33 -27.5 63t-25.5 58h20q0 4 -0.5 24t-5 47.5t-15 58.5t-30 57.5t-50.5 44t-76 18.5h-12.5t-20.5 -0.5t-21.5 -1t-15.5 -1.5q-30 -5 -56 7t-35 44q-4 13 -2 28.5t9 29t18.5 23
t26.5 11.5q67 10 136.5 6t130.5 -40q50 -29 83 -74.5t52 -99.5zM407 164q0 3 1 5t3 4q0 4 -3 3.5t-3 4.5q-5 -1 -6 -4.5t-3 -6.5q4 1 6 -1.5t5 -4.5zM425 117q0 -4 1 -8t6 -3q-2 4 -2.5 8t-4.5 3zM74 160q-33 1 -50 23.5t-18 49t15 49.5t48 26q29 -73 65 -144.5t70 -140.5
q-15 -16 -37 -20.5t-43 1.5t-35.5 23t-14.5 45v88zM320 235q-3 5 -4 13t-9 6q8 -24 17 -47.5t19 -46.5h-101q-17 42 -35 81t-38 73q3 -8 5.5 -17.5t9.5 -11.5q-2 0 -3 0.5t0 -2.5q1 -5 7 -17.5t12.5 -25.5t11.5 -23.5t5 -11.5q-1 -9 5.5 -22t12.5 -23h-13v-64
q-6 14 -12 25.5t-13 22.5q-14 34 -33.5 71t-37.5 81q6 -2 11 -2q-2 5 1 7.5t-1 8.5q-4 2 -4.5 0t-5.5 -1q-4 -1 -2 -4.5t0 -5.5q-8 13 -13 23.5t-10 20.5q11 1 9.5 7.5t-9.5 5.5q-2 -6 -1.5 -17.5t9.5 -19.5q-5 -1 -5 -7q6 -27 17.5 -53t24.5 -52t24.5 -52t17.5 -54
q4 -9 10.5 -23t-0.5 -22q-5 20 -17.5 43t-23.5 38q-2 20 -14 28q-2 9 -6.5 19t-10 20.5t-10 21t-5.5 21.5q-6 2 -9 8.5t-5.5 13.5t-5 13.5t-6.5 9.5q-2 5 -1 7t-1 7q-4 1 -4.5 -1t-2.5 0q1 10 -3 21v120q0 36 23 54t51 18t51 -18t23 -54v-138h36q4 -10 12 -23q-1 0 -4 -3
q7 -15 10.5 -27.5t12.5 -16.5q0 -2 -1 -3t-1 -3q5 0 8 -5q1 -5 5.5 -15.5t13.5 -15.5q0 -6 3.5 -15t8.5 -6q-7 19 -15.5 40.5t-22.5 29.5q3 1 2 4q-2 16 -10.5 30.5t-16.5 28.5h35q14 -29 27 -59t23 -62q-8 8 -15.5 21.5t-12.5 26.5zM283 291q1 -8 3.5 -11t5.5 -4t6.5 -2
t6.5 -5q-7 11 -9 20t-10 15q-1 -2 1.5 -5t4.5 -7t2.5 -8t-3.5 -7q1 5 -2 8zM251 909q26 0 43.5 -12t26.5 -30t9 -39t-9 -39t-26.5 -30t-43.5 -12t-43.5 12t-26 30t-8.5 39t8.5 39t26 30t43.5 12zM251 801q13 0 20 8.5t7 19t-7 19t-20 8.5t-19.5 -8.5t-6.5 -19t6.5 -19
t19.5 -8.5z" />
    <glyph glyph-name="AE" unicode="&#xc6;" horiz-adv-x="943" 
d="M688 151q17 -38 35 -75.5t35 -74.5h-48q-5 9 -11 17.5t-12 11.5q2 -8 5 -15t5 -14h-48l-3 9q-15 38 -30.5 73t-31.5 68h81q3 -6 7 -12t10 -8q0 -6 4 -14.5t9 -6.5q-4 10 -8.5 20.5t-9.5 20.5h11zM698 86q-1 -8 3 -18t9.5 -20t11.5 -19.5t9 -16.5q-5 14 -8 22.5t-6 16
l-6 15t-8 20.5q-2 0 -2.5 1t-2.5 -1zM819 151q35 0 52.5 -22t18.5 -49t-15 -51t-49 -27q-5 9 -10 18.5t-10 19.5q1 -7 6 -17.5t10 -21.5h-5h-14q-12 33 -24.5 64.5t-26.5 59.5q-3 7 -6 13t-6 13h79zM796 57q0 -4 1.5 -8t6.5 -2q-2 3 -3 7t-5 3zM717 124q-5 5 -10.5 12
t-10.5 15h10q3 -7 5.5 -13.5t5.5 -13.5zM90 301q25 -63 55.5 -122.5t56.5 -119.5q5 -12 11 -24.5t10 -26.5q-2 -1 -4 -1.5t-4 -1.5q-3 7 -6.5 13t-9.5 8q4 -5 4.5 -11t1.5 -13q-10 -2 -16 -2q-8 22 -23 46t-27 44q-3 7 -10 22t-16 25v23q-27 1 -43 16t-21.5 35t-1 41.5
t19.5 36.5q2 -4 6 -5q0 -2 -1 -3t-1 -3q5 1 9 -4q1 -5 6 -15.5t14 -14.5q0 -6 4 -14.5t9 -6.5q-8 19 -17.5 39.5t-23.5 28.5q3 1 2 4q12 9 30 12q8 -17 16 -35t15 -36q-8 8 -16.5 21t-14.5 26q-3 5 -4.5 13t-9.5 5zM116 199q-1 -8 3 -18t9.5 -20t12 -19.5t9.5 -16.5
q-5 14 -8.5 22.5t-6.5 15.5t-6 15t-8 21q-2 0 -2.5 0.5t-2.5 -0.5zM629 22q-5 6 -9 14t-11 11q6 -23 18 -46h-19q-11 20 -20.5 39t-20.5 34q-14 33 -36 69.5t-42 78.5q3 0 6 -0.5t6 -0.5q-2 5 1 7.5t-2 8.5q-4 1 -4.5 -1t-5.5 -1q-4 -1 -2 -4.5t0 -5.5q-4 6 -8.5 11.5
t-7.5 8.5q-5 3 -4 3t4 -3q-4 -2 -4 -7q7 -27 20 -52t26.5 -50.5t26 -51.5t20.5 -54q4 -5 8 -13t6 -16h-7q-8 17 -18.5 34.5t-20.5 29.5q-3 20 -15 27q-2 9 -7.5 19t-11.5 20t-11 20.5t-6 21.5q-6 2 -9.5 8t-6.5 13t-5.5 13.5t-6.5 9.5q-3 4 -2 6.5t-1 6.5q-4 1 -4.5 -0.5
t-2.5 0.5q1 7 -2 15.5t-8.5 16t-11.5 14.5t-10 12q29 -73 67.5 -145t77.5 -142h-94q-15 0 -28 6t-23.5 16t-16.5 23.5t-6 28.5q0 25 -0.5 46.5t-0.5 38.5h-123v-77q-9 17 -18.5 34.5t-18.5 35.5q1 -11 11 -28.5t15 -28.5q2 -10 4.5 -19t5.5 -18q-1 -8 -3.5 -14t-5.5 -12
q-20 54 -39 107t-42 98q-16 32 -29.5 61t-27.5 56v91q0 36 23 54t51 18t51 -18t23 -54v-138h129q0 4 -0.5 24t-5 47.5t-15 58.5t-30 57.5t-50.5 44t-76 18.5q-3 0 -12.5 -0.5t-20.5 -1t-21.5 -1t-15.5 -1.5q-30 -4 -56 8t-35 44q-4 13 -2 28.5t9 28.5t18.5 22.5t26.5 11.5
q67 11 136.5 7t130.5 -40q16 -9 28 -19q3 25 21 44t50 19h293q36 0 53.5 -23t17.5 -51t-17.5 -51t-53.5 -23h-222v-159h67q30 0 52 -21.5t22 -52.5q0 -21 -11 -38q-8 15 -16.5 30.5t-18.5 30.5q-4 -1 -3.5 -4t-5.5 -3q-2 5 -3 9t-5 5q0 -9 3.5 -17t3.5 -13q-2 1 -3.5 3
t-4.5 1q6 -16 14 -32t16 -33q-2 -2 -3.5 -2.5t-3.5 -2.5q-11 25 -24 41q6 -21 19 -43q-9 -3 -18 -5q-2 4 -3.5 7.5t-3.5 7.5q2 -5 2.5 -8.5t2.5 -6.5q-3 -1 -8 -1h-67v-24q-2 4 -4.5 7t-4.5 7q2 -6 4 -11.5t5 -10.5v-70h36q8 -13 8 -15q-1 -11 7.5 -25t14.5 -23q-6 1 0 -7
t6 -14q1 -2 3 -1t3 -1q-3 -5 -1.5 -9.5t4 -10l5 -11t2.5 -12.5zM617 307q1 5 -2.5 9.5t-5.5 3.5q2 -3 3 -8.5t5 -4.5zM598 265q1 4 -2.5 10t-7.5 8q3 -5 5 -10.5t5 -7.5zM183 221q2 1 5.5 -2.5t7.5 -8t7.5 -9t5.5 -4.5q0 1 -7.5 15.5t-16 31t-16 31t-7.5 16.5q-3 -1 0.5 -11
t8 -22.5t9 -23.5t3.5 -13zM214 170l2 -8t6 -2q-2 3 -3 7t-5 3zM325 261q2 2 1 5t-2 5q-3 0 -6 -3q1 -5 3 -5.5t4 -1.5zM135 60q-4 -13 1 -25.5t11 -24.5q-15 8 -24.5 23.5t-9.5 38.5v47q6 -17 11 -30.5t11 -28.5z" />
    <glyph glyph-name="Ccedilla" unicode="&#xc7;" horiz-adv-x="590" 
d="M368 -8q13 -2 25.5 -6.5t22 -12t14.5 -18.5t3 -26q-4 -34 -30 -48t-57 -12q-5 10 -10 19t-10 19q1 -7 5.5 -17t10.5 -20h-5q-13 1 -19 11q-2 6 -5 13q-2 14 7 20q1 0 1.5 -0.5t2.5 0.5q-1 1 -1 1.5t-1 1.5q6 3 15 3q3 -1 11 -1.5t16.5 0t14.5 4t5 10.5q-1 6 -6 8t-11.5 3
t-13 0t-9.5 -1q-11 -2 -18 7t-7 18v41q-17 3 -33 8t-31 11q-26 52 -48 97.5t-51 91.5q-4 -1 -3.5 -4t-4.5 -3q-2 5 -3.5 9t-5.5 4q0 -8 3.5 -16t3.5 -13q-2 1 -3.5 3t-4.5 1q14 -35 34 -72.5t40 -76.5q-27 15 -51 36q-8 11 -16 23t-13 24q4 -10 6 -17.5t7 -14.5
q-3 3 -8.5 10.5t-11.5 15.5t-11 15t-6 8l3 -4.5l3 -4.5q-14 16 -26 40t-21 51.5t-14 57t-4 58.5q2 72 29.5 140.5t80.5 118.5q60 57 136 82t157 19q30 -2 52 -22t22 -52q0 -14 -6 -28t-16 -24.5t-23.5 -16.5t-28.5 -5q-33 3 -66 0q-6 -1 -22.5 -6t-37 -15t-43 -26t-41.5 -39
t-31.5 -54t-13.5 -72q-1 -52 14.5 -86.5t37.5 -56t44.5 -32t35.5 -14.5q22 -41 44.5 -80.5t42.5 -78.5q-12 0 -24 0.5t-24 1.5v-9zM538 60q-5 11 -13 25.5t-17 19.5q7 -20 12.5 -35t10.5 -29q-11 -20 -35 -31q-3 7 -6 13t-5 13q-5 12 -9 24.5t-9 24.5q-7 17 -13 32.5
t-13 30.5q6 1 12 1t13 1q15 2 28.5 -4t23.5 -17t16 -25t6 -28q0 -6 -2 -16zM450 97q-5 6 -9 14t-11 12q8 -31 24.5 -59t28.5 -58l-9 -3q-12 15 -23 34t-21.5 38.5t-20.5 38.5t-20 34q21 -1 44 0q1 -2 1 -6q1 -2 3 -1t3 -1q-3 -5 -1.5 -9.5t4 -10l5 -11t2.5 -12.5zM346 154
q8 -2 20 -4q5 -11 9 -22t7 -22q5 -9 12 -23t1 -22q-7 20 -20 42.5t-25 37.5q-1 3 -1.5 6.5t-2.5 6.5zM169 110q-8 17 -15 32.5t-17 26.5q5 -14 13 -31t19 -28zM169 105q0 -2 2.5 -5.5t4.5 -7t2.5 -7.5t-3.5 -7q1 5 -2 8t-6 5q1 -8 4 -10.5t6 -3.5t6.5 -2t6.5 -4
q-7 10 -9.5 19t-11.5 15zM202 183q2 -5 4 -10.5t7 -3.5l-4 10t-7 4zM129 187q2 -4 3 -9t5 -4q1 5 -2.5 9.5t-5.5 3.5zM117 133q1 -2 0 -0.5t-1 2.5t1 -2z" />
    <glyph glyph-name="Egrave" unicode="&#xc8;" horiz-adv-x="590" 
d="M263 148q14 -28 26 -55q8 -17 16 -35.5t10 -38.5q-5 3 -8 9t-6 12.5t-6 12t-8 7.5q4 -7 4.5 -14.5t2.5 -17.5q2 -7 6 -14t7 -14h-11q-4 6 -7.5 12.5t-5.5 17.5q-4 -3 -6 1q-8 22 -23 47t-28 46q-4 10 -11 24h48zM134 169q-5 6 -9 14t-10 11q8 -35 28 -67.5t31 -67.5
q-16 13 -29 33.5t-25 43t-23.5 45t-23.5 39.5q-7 15 -15 30t-16 31v96q2 -6 4.5 -10.5t6.5 -5.5q-2 -1 -3 -0.5t1 -2.5q1 -5 7.5 -17t13.5 -24.5t12.5 -23t5.5 -11.5q0 -10 8 -24t15 -23q-6 1 -0.5 -7t5.5 -15q1 -2 3 -0.5t3 -0.5q-3 -5 -1.5 -9.5t4 -10t5 -11.5t2.5 -12z
M328 148q2 -5 4.5 -9.5t4.5 -8.5q9 -35 20 -67.5t24 -62.5h-19q0 1 -2 5q0 2 1 3t0 3q-14 33 -27 67.5t-26 69.5h20zM241 31q-1 -4 -0.5 -8t-1.5 -7q3 -10 7 -16h-19q-4 6 -7 11.5t-7 11.5q-14 23 -24.5 42.5t-19.5 41.5q-5 13 -9 25.5t-9 24.5q-25 63 -51.5 120t-57.5 106
v65q0 34 21 51.5t47 19.5t49.5 -12t29.5 -44h-1q0 -2 2 -6v-9v-39q-23 47 -49 88q-3 -2 -3 -4.5t-5 -2.5q-2 5 -3.5 9t-4.5 4q-1 -9 2.5 -17t4.5 -13q-2 1 -4 3.5t-5 0.5q9 -24 22 -48.5t26.5 -50.5t27 -53t23.5 -55q-8 8 -16 21t-15 26q-2 5 -4 13t-10 5q9 -22 18 -43
t19 -42h-24v-102h12q5 -15 10 -27.5t10 -26.5q-5 -17 3.5 -33t15.5 -30zM154 384q0 -2 2.5 -5t4.5 -6.5t2.5 -7.5t-3.5 -7q1 5 -2 8t-6 5q1 -8 4 -10.5t6 -3.5t6.5 -2t6.5 -4q-7 10 -9.5 19t-11.5 14zM154 390q-7 17 -14.5 32.5t-16.5 26.5q5 -14 12.5 -31.5t18.5 -27.5z
M93 429q3 -4 5 -9.5t6 -8.5q0 4 -3.5 10t-7.5 8zM122 454q1 5 -2.5 9t-5.5 4q2 -4 3 -9t5 -4zM167 308q1 -5 6 -15.5t14 -14.5q0 -6 4 -15t9 -6q-8 19 -17.5 39.5t-23.5 28.5q3 1 2 4q-5 25 -21 45.5t-24 41.5q5 -17 10 -28.5t14 -22.5q-2 -1 -4 -3q7 -15 11 -27.5t13 -16.5
q1 -2 -0.5 -3t-0.5 -3q5 0 8 -4zM120 557q-36 0 -54 23t-18 51t18 51t54 23h292q36 0 54 -23t18 -51t-18 -51t-54 -23h-292zM469 148q36 0 53.5 -23t17.5 -51t-17.5 -51t-53.5 -23h-54q-5 8 -9 15t-9 12q2 2 4 0t0 3t-5 1t-6 1q-11 26 -26 55t-32 61h137zM121 31
q4 -1 5.5 -5.5t5.5 -5.5q2 -5 4.5 -10t4.5 -10h-21q-9 0 -22.5 4t-25.5 13t-21 24t-9 37q0 25 -0.5 50t-0.5 50q21 -38 41.5 -74.5t38.5 -72.5zM331 324q0 -23 -13.5 -42t-34.5 -27q1 2 3 4q-1 4 -7.5 2t-7.5 -6q3 1 6 -2q-2 -1 -4.5 -1t-5.5 -1q-2 5 -4.5 10.5t-5.5 10.5
q-17 35 -32 66t-29 60h61q30 0 52 -21.5t22 -52.5zM67 177q2 -4 5.5 -10t6 -12t3 -12t-2.5 -10q-6 17 -16.5 36t-21.5 34v37q17 -32 26 -63zM235 844q21 -23 38 -30t42 -5q19 1 27 -6.5t6.5 -18t-11 -20.5t-24.5 -13q-37 -8 -69 0.5t-52 22.5q-22 16 -24.5 36t7 33.5
t26.5 16.5t34 -16z" />
    <glyph glyph-name="Eacute" unicode="&#xc9;" horiz-adv-x="590" 
d="M263 148q14 -28 26 -55q8 -17 16 -35.5t10 -38.5q-5 3 -8 9t-6 12.5t-6 12t-8 7.5q4 -7 4.5 -14.5t2.5 -17.5q2 -7 6 -14t7 -14h-11q-4 6 -7.5 12.5t-5.5 17.5q-4 -3 -6 1q-8 22 -23 47t-28 46q-4 10 -11 24h48zM134 169q-5 6 -9 14t-10 11q8 -35 28 -67.5t31 -67.5
q-16 13 -29 33.5t-25 43t-23.5 45t-23.5 39.5q-7 15 -15 30t-16 31v96q2 -6 4.5 -10.5t6.5 -5.5q-2 -1 -3 -0.5t1 -2.5q1 -5 7.5 -17t13.5 -24.5t12.5 -23t5.5 -11.5q0 -10 8 -24t15 -23q-6 1 -0.5 -7t5.5 -15q1 -2 3 -0.5t3 -0.5q-3 -5 -1.5 -9.5t4 -10t5 -11.5t2.5 -12z
M328 148q2 -5 4.5 -9.5t4.5 -8.5q9 -35 20 -67.5t24 -62.5h-19q0 1 -2 5q0 2 1 3t0 3q-14 33 -27 67.5t-26 69.5h20zM241 31q-1 -4 -0.5 -8t-1.5 -7q3 -10 7 -16h-19q-4 6 -7 11.5t-7 11.5q-14 23 -24.5 42.5t-19.5 41.5q-5 13 -9 25.5t-9 24.5q-25 63 -51.5 120t-57.5 106
v65q0 34 21 51.5t47 19.5t49.5 -12t29.5 -44h-1q0 -2 2 -6v-9v-39q-23 47 -49 88q-3 -2 -3 -4.5t-5 -2.5q-2 5 -3.5 9t-4.5 4q-1 -9 2.5 -17t4.5 -13q-2 1 -4 3.5t-5 0.5q9 -24 22 -48.5t26.5 -50.5t27 -53t23.5 -55q-8 8 -16 21t-15 26q-2 5 -4 13t-10 5q9 -22 18 -43
t19 -42h-24v-102h12q5 -15 10 -27.5t10 -26.5q-5 -17 3.5 -33t15.5 -30zM154 384q0 -2 2.5 -5t4.5 -6.5t2.5 -7.5t-3.5 -7q1 5 -2 8t-6 5q1 -8 4 -10.5t6 -3.5t6.5 -2t6.5 -4q-7 10 -9.5 19t-11.5 14zM154 390q-7 17 -14.5 32.5t-16.5 26.5q5 -14 12.5 -31.5t18.5 -27.5z
M93 429q3 -4 5 -9.5t6 -8.5q0 4 -3.5 10t-7.5 8zM122 454q1 5 -2.5 9t-5.5 4q2 -4 3 -9t5 -4zM167 308q1 -5 6 -15.5t14 -14.5q0 -6 4 -15t9 -6q-8 19 -17.5 39.5t-23.5 28.5q3 1 2 4q-5 25 -21 45.5t-24 41.5q5 -17 10 -28.5t14 -22.5q-2 -1 -4 -3q7 -15 11 -27.5t13 -16.5
q1 -2 -0.5 -3t-0.5 -3q5 0 8 -4zM120 557q-36 0 -54 23t-18 51t18 51t54 23h292q36 0 54 -23t18 -51t-18 -51t-54 -23h-292zM469 148q36 0 53.5 -23t17.5 -51t-17.5 -51t-53.5 -23h-54q-5 8 -9 15t-9 12q2 2 4 0t0 3t-5 1t-6 1q-11 26 -26 55t-32 61h137zM121 31
q4 -1 5.5 -5.5t5.5 -5.5q2 -5 4.5 -10t4.5 -10h-21q-9 0 -22.5 4t-25.5 13t-21 24t-9 37q0 25 -0.5 50t-0.5 50q21 -38 41.5 -74.5t38.5 -72.5zM331 324q0 -23 -13.5 -42t-34.5 -27q1 2 3 4q-1 4 -7.5 2t-7.5 -6q3 1 6 -2q-2 -1 -4.5 -1t-5.5 -1q-2 5 -4.5 10.5t-5.5 10.5
q-17 35 -32 66t-29 60h61q30 0 52 -21.5t22 -52.5zM67 177q2 -4 5.5 -10t6 -12t3 -12t-2.5 -10q-6 17 -16.5 36t-21.5 34v37q17 -32 26 -63zM267 844q17 19 34 16t26.5 -16.5t7 -33.5t-24.5 -36q-20 -14 -52 -22.5t-69 -0.5q-15 3 -24.5 13t-11 20.5t6 18t27.5 6.5
q25 -2 42 5t38 30z" />
    <glyph glyph-name="Ecircumflex" unicode="&#xca;" horiz-adv-x="590" 
d="M263 148q14 -28 26 -55q8 -17 16 -35.5t10 -38.5q-5 3 -8 9t-6 12.5t-6 12t-8 7.5q4 -7 4.5 -14.5t2.5 -17.5q2 -7 6 -14t7 -14h-11q-4 6 -7.5 12.5t-5.5 17.5q-4 -3 -6 1q-8 22 -23 47t-28 46q-4 10 -11 24h48zM134 169q-5 6 -9 14t-10 11q8 -35 28 -67.5t31 -67.5
q-16 13 -29 33.5t-25 43t-23.5 45t-23.5 39.5q-7 15 -15 30t-16 31v96q2 -6 4.5 -10.5t6.5 -5.5q-2 -1 -3 -0.5t1 -2.5q1 -5 7.5 -17t13.5 -24.5t12.5 -23t5.5 -11.5q0 -10 8 -24t15 -23q-6 1 -0.5 -7t5.5 -15q1 -2 3 -0.5t3 -0.5q-3 -5 -1.5 -9.5t4 -10t5 -11.5t2.5 -12z
M328 148q2 -5 4.5 -9.5t4.5 -8.5q9 -35 20 -67.5t24 -62.5h-19q0 1 -2 5q0 2 1 3t0 3q-14 33 -27 67.5t-26 69.5h20zM241 31q-1 -4 -0.5 -8t-1.5 -7q3 -10 7 -16h-19q-4 6 -7 11.5t-7 11.5q-14 23 -24.5 42.5t-19.5 41.5q-5 13 -9 25.5t-9 24.5q-25 63 -51.5 120t-57.5 106
v65q0 34 21 51.5t47 19.5t49.5 -12t29.5 -44h-1q0 -2 2 -6v-9v-39q-23 47 -49 88q-3 -2 -3 -4.5t-5 -2.5q-2 5 -3.5 9t-4.5 4q-1 -9 2.5 -17t4.5 -13q-2 1 -4 3.5t-5 0.5q9 -24 22 -48.5t26.5 -50.5t27 -53t23.5 -55q-8 8 -16 21t-15 26q-2 5 -4 13t-10 5q9 -22 18 -43
t19 -42h-24v-102h12q5 -15 10 -27.5t10 -26.5q-5 -17 3.5 -33t15.5 -30zM154 384q0 -2 2.5 -5t4.5 -6.5t2.5 -7.5t-3.5 -7q1 5 -2 8t-6 5q1 -8 4 -10.5t6 -3.5t6.5 -2t6.5 -4q-7 10 -9.5 19t-11.5 14zM154 390q-7 17 -14.5 32.5t-16.5 26.5q5 -14 12.5 -31.5t18.5 -27.5z
M93 429q3 -4 5 -9.5t6 -8.5q0 4 -3.5 10t-7.5 8zM122 454q1 5 -2.5 9t-5.5 4q2 -4 3 -9t5 -4zM167 308q1 -5 6 -15.5t14 -14.5q0 -6 4 -15t9 -6q-8 19 -17.5 39.5t-23.5 28.5q3 1 2 4q-5 25 -21 45.5t-24 41.5q5 -17 10 -28.5t14 -22.5q-2 -1 -4 -3q7 -15 11 -27.5t13 -16.5
q1 -2 -0.5 -3t-0.5 -3q5 0 8 -4zM120 557q-36 0 -54 23t-18 51t18 51t54 23h292q36 0 54 -23t18 -51t-18 -51t-54 -23h-292zM469 148q36 0 53.5 -23t17.5 -51t-17.5 -51t-53.5 -23h-54q-5 8 -9 15t-9 12q2 2 4 0t0 3t-5 1t-6 1q-11 26 -26 55t-32 61h137zM121 31
q4 -1 5.5 -5.5t5.5 -5.5q2 -5 4.5 -10t4.5 -10h-21q-9 0 -22.5 4t-25.5 13t-21 24t-9 37q0 25 -0.5 50t-0.5 50q21 -38 41.5 -74.5t38.5 -72.5zM331 324q0 -23 -13.5 -42t-34.5 -27q1 2 3 4q-1 4 -7.5 2t-7.5 -6q3 1 6 -2q-2 -1 -4.5 -1t-5.5 -1q-2 5 -4.5 10.5t-5.5 10.5
q-17 35 -32 66t-29 60h61q30 0 52 -21.5t22 -52.5zM67 177q2 -4 5.5 -10t6 -12t3 -12t-2.5 -10q-6 17 -16.5 36t-21.5 34v37q17 -32 26 -63zM326 804q6 -14 3.5 -28.5t-16.5 -22.5q-12 -7 -28.5 -3.5t-22.5 17.5q-2 5 -5 10.5t-5 10.5q-3 -5 -5.5 -9t-5.5 -8
q-8 -13 -22 -17.5t-28 3.5q-13 8 -17.5 22.5t3.5 28.5q12 21 21 38.5t20 35.5q5 9 15.5 13t21.5 4t21 -4.5t15 -12.5q10 -20 18.5 -39t16.5 -39z" />
    <glyph glyph-name="Edieresis" unicode="&#xcb;" horiz-adv-x="590" 
d="M263 148q14 -28 26 -55q8 -17 16 -35.5t10 -38.5q-5 3 -8 9t-6 12.5t-6 12t-8 7.5q4 -7 4.5 -14.5t2.5 -17.5q2 -7 6 -14t7 -14h-11q-4 6 -7.5 12.5t-5.5 17.5q-4 -3 -6 1q-8 22 -23 47t-28 46q-4 10 -11 24h48zM134 169q-5 6 -9 14t-10 11q8 -35 28 -67.5t31 -67.5
q-16 13 -29 33.5t-25 43t-23.5 45t-23.5 39.5q-7 15 -15 30t-16 31v96q2 -6 4.5 -10.5t6.5 -5.5q-2 -1 -3 -0.5t1 -2.5q1 -5 7.5 -17t13.5 -24.5t12.5 -23t5.5 -11.5q0 -10 8 -24t15 -23q-6 1 -0.5 -7t5.5 -15q1 -2 3 -0.5t3 -0.5q-3 -5 -1.5 -9.5t4 -10t5 -11.5t2.5 -12z
M328 148q2 -5 4.5 -9.5t4.5 -8.5q9 -35 20 -67.5t24 -62.5h-19q0 1 -2 5q0 2 1 3t0 3q-14 33 -27 67.5t-26 69.5h20zM241 31q-1 -4 -0.5 -8t-1.5 -7q3 -10 7 -16h-19q-4 6 -7 11.5t-7 11.5q-14 23 -24.5 42.5t-19.5 41.5q-5 13 -9 25.5t-9 24.5q-25 63 -51.5 120t-57.5 106
v65q0 34 21 51.5t47 19.5t49.5 -12t29.5 -44h-1q0 -2 2 -6v-9v-39q-23 47 -49 88q-3 -2 -3 -4.5t-5 -2.5q-2 5 -3.5 9t-4.5 4q-1 -9 2.5 -17t4.5 -13q-2 1 -4 3.5t-5 0.5q9 -24 22 -48.5t26.5 -50.5t27 -53t23.5 -55q-8 8 -16 21t-15 26q-2 5 -4 13t-10 5q9 -22 18 -43
t19 -42h-24v-102h12q5 -15 10 -27.5t10 -26.5q-5 -17 3.5 -33t15.5 -30zM154 384q0 -2 2.5 -5t4.5 -6.5t2.5 -7.5t-3.5 -7q1 5 -2 8t-6 5q1 -8 4 -10.5t6 -3.5t6.5 -2t6.5 -4q-7 10 -9.5 19t-11.5 14zM154 390q-7 17 -14.5 32.5t-16.5 26.5q5 -14 12.5 -31.5t18.5 -27.5z
M93 429q3 -4 5 -9.5t6 -8.5q0 4 -3.5 10t-7.5 8zM122 454q1 5 -2.5 9t-5.5 4q2 -4 3 -9t5 -4zM167 308q1 -5 6 -15.5t14 -14.5q0 -6 4 -15t9 -6q-8 19 -17.5 39.5t-23.5 28.5q3 1 2 4q-5 25 -21 45.5t-24 41.5q5 -17 10 -28.5t14 -22.5q-2 -1 -4 -3q7 -15 11 -27.5t13 -16.5
q1 -2 -0.5 -3t-0.5 -3q5 0 8 -4zM120 557q-36 0 -54 23t-18 51t18 51t54 23h292q36 0 54 -23t18 -51t-18 -51t-54 -23h-292zM469 148q36 0 53.5 -23t17.5 -51t-17.5 -51t-53.5 -23h-54q-5 8 -9 15t-9 12q2 2 4 0t0 3t-5 1t-6 1q-11 26 -26 55t-32 61h137zM121 31
q4 -1 5.5 -5.5t5.5 -5.5q2 -5 4.5 -10t4.5 -10h-21q-9 0 -22.5 4t-25.5 13t-21 24t-9 37q0 25 -0.5 50t-0.5 50q21 -38 41.5 -74.5t38.5 -72.5zM331 324q0 -23 -13.5 -42t-34.5 -27q1 2 3 4q-1 4 -7.5 2t-7.5 -6q3 1 6 -2q-2 -1 -4.5 -1t-5.5 -1q-2 5 -4.5 10.5t-5.5 10.5
q-17 35 -32 66t-29 60h61q30 0 52 -21.5t22 -52.5zM67 177q2 -4 5.5 -10t6 -12t3 -12t-2.5 -10q-6 17 -16.5 36t-21.5 34v37q17 -32 26 -63zM205 821q18 0 26.5 -11.5t8.5 -25.5t-8.5 -25.5t-26.5 -11.5t-27 11.5t-9 25.5t9 25.5t27 11.5zM298 821q18 0 27 -11.5t9 -25.5
t-9 -25.5t-27 -11.5t-27 11.5t-9 25.5t9 25.5t27 11.5z" />
    <glyph glyph-name="Igrave" unicode="&#xcc;" horiz-adv-x="459" 
d="M195 75q-5 6 -9 14t-11 11q6 -26 20 -50t26 -50h-16q-20 30 -36.5 65.5t-34.5 61.5q-2 5 -5 10.5t-6 10.5h34v21q3 -8 7.5 -15.5t9.5 -12.5q-6 1 -0.5 -7t5.5 -15q1 -2 3 -0.5t3 -0.5q-3 -5 -1.5 -9.5t4 -10l5 -11t2.5 -12.5zM128 83q2 -4 5.5 -10t6 -12t3 -12t-2.5 -10
q-7 20 -20 42.5t-25 36.5q-1 6 -3.5 11.5t-5.5 10.5q4 2 8 3.5t9 2.5q8 -15 14 -30.5t11 -32.5zM336 148q24 0 39.5 -11t24 -27t8.5 -35.5t-8 -35.5l-13.5 27t-14.5 27q1 -11 11 -28.5t15 -28.5v-1q-5 -9 -15 -19q-13 35 -25 68t-26 64h4zM363 109q0 -3 1 -7t6 -3q-2 4 -3 8
t-4 2zM252 223q-3 5 -4.5 13t-9.5 5q25 -63 55 -122t56 -118q-4 -1 -13 -1h-31q-5 8 -9.5 15.5t-8.5 14.5q-2 4 -5.5 11.5t-8 16t-9.5 15.5t-11 10q8 -27 15 -45t15 -38h-47q-2 3 -3 6.5t-3 6.5q-5 13 -9 25.5t-9 24.5q-14 33 -27.5 65t-27.5 62v141q2 -4 3.5 -8t3.5 -6
q1 4 -1.5 9t-5.5 8v227h-36q-36 0 -53.5 23t-17.5 51t17.5 51t53.5 23h215q36 0 54 -23t18 -51t-18 -51t-54 -23h-31v-355q-27 54 -50.5 101.5t-52.5 95.5q-3 -2 -3 -4.5t-5 -2.5q-2 5 -3.5 9t-5.5 4q0 -9 3.5 -17t4.5 -13l-4 4t-5 1q9 -24 22 -49t26.5 -51t27 -53t23.5 -55
q-8 8 -16 21t-15 26zM259 355l-4 10t-7 4q2 -5 4 -10.5t7 -3.5zM215 291q0 -2 2.5 -5.5t4.5 -7t2.5 -7.5t-3.5 -7q1 5 -2 8t-6 5q1 -8 4 -10.5t6 -3.5t6.5 -2t6.5 -4q-7 10 -9.5 19t-11.5 15zM215 296q-7 17 -14.5 32.5t-17.5 26.5q5 -14 13 -31.5t19 -27.5zM183 360
q1 5 -2.5 9t-5.5 4q2 -4 3 -9t5 -4zM264 139q-1 -8 3 -18t10 -20t12 -19.5t9 -16.5q-5 14 -8.5 22.5t-6.5 15.5t-6 15t-8 21q-2 -1 -2.5 0t-2.5 0zM261 163q-8 19 -17.5 39.5t-23.5 28.5q3 1 2 5q-5 24 -21 44.5t-24 41.5q5 -17 10 -28.5t14 -22.5q-4 -2 -4 -3
q7 -15 11 -27.5t13 -16.5q0 -2 -1 -3t0 -3q4 1 8 -4q1 -5 6 -15.5t14 -14.5q0 -6 4 -15t9 -6zM121 0q-29 0 -46 15.5t-22.5 37t0 44t23.5 36.5q18 -34 37 -67.5t36 -65.5h-28zM214 844q21 -23 38 -30t42 -5q19 1 27 -6.5t6.5 -18t-11 -20.5t-24.5 -13q-37 -8 -69 0.5
t-52 22.5q-22 16 -24.5 36t7 33.5t26.5 16.5t34 -16z" />
    <glyph glyph-name="Iacute" unicode="&#xcd;" horiz-adv-x="459" 
d="M195 75q-5 6 -9 14t-11 11q6 -26 20 -50t26 -50h-16q-20 30 -36.5 65.5t-34.5 61.5q-2 5 -5 10.5t-6 10.5h34v21q3 -8 7.5 -15.5t9.5 -12.5q-6 1 -0.5 -7t5.5 -15q1 -2 3 -0.5t3 -0.5q-3 -5 -1.5 -9.5t4 -10l5 -11t2.5 -12.5zM128 83q2 -4 5.5 -10t6 -12t3 -12t-2.5 -10
q-7 20 -20 42.5t-25 36.5q-1 6 -3.5 11.5t-5.5 10.5q4 2 8 3.5t9 2.5q8 -15 14 -30.5t11 -32.5zM336 148q24 0 39.5 -11t24 -27t8.5 -35.5t-8 -35.5l-13.5 27t-14.5 27q1 -11 11 -28.5t15 -28.5v-1q-5 -9 -15 -19q-13 35 -25 68t-26 64h4zM363 109q0 -3 1 -7t6 -3q-2 4 -3 8
t-4 2zM252 223q-3 5 -4.5 13t-9.5 5q25 -63 55 -122t56 -118q-4 -1 -13 -1h-31q-5 8 -9.5 15.5t-8.5 14.5q-2 4 -5.5 11.5t-8 16t-9.5 15.5t-11 10q8 -27 15 -45t15 -38h-47q-2 3 -3 6.5t-3 6.5q-5 13 -9 25.5t-9 24.5q-14 33 -27.5 65t-27.5 62v141q2 -4 3.5 -8t3.5 -6
q1 4 -1.5 9t-5.5 8v227h-36q-36 0 -53.5 23t-17.5 51t17.5 51t53.5 23h215q36 0 54 -23t18 -51t-18 -51t-54 -23h-31v-355q-27 54 -50.5 101.5t-52.5 95.5q-3 -2 -3 -4.5t-5 -2.5q-2 5 -3.5 9t-5.5 4q0 -9 3.5 -17t4.5 -13l-4 4t-5 1q9 -24 22 -49t26.5 -51t27 -53t23.5 -55
q-8 8 -16 21t-15 26zM259 355l-4 10t-7 4q2 -5 4 -10.5t7 -3.5zM215 291q0 -2 2.5 -5.5t4.5 -7t2.5 -7.5t-3.5 -7q1 5 -2 8t-6 5q1 -8 4 -10.5t6 -3.5t6.5 -2t6.5 -4q-7 10 -9.5 19t-11.5 15zM215 296q-7 17 -14.5 32.5t-17.5 26.5q5 -14 13 -31.5t19 -27.5zM183 360
q1 5 -2.5 9t-5.5 4q2 -4 3 -9t5 -4zM264 139q-1 -8 3 -18t10 -20t12 -19.5t9 -16.5q-5 14 -8.5 22.5t-6.5 15.5t-6 15t-8 21q-2 -1 -2.5 0t-2.5 0zM261 163q-8 19 -17.5 39.5t-23.5 28.5q3 1 2 5q-5 24 -21 44.5t-24 41.5q5 -17 10 -28.5t14 -22.5q-4 -2 -4 -3
q7 -15 11 -27.5t13 -16.5q0 -2 -1 -3t0 -3q4 1 8 -4q1 -5 6 -15.5t14 -14.5q0 -6 4 -15t9 -6zM121 0q-29 0 -46 15.5t-22.5 37t0 44t23.5 36.5q18 -34 37 -67.5t36 -65.5h-28zM245 844q17 19 34 16t26.5 -16.5t7 -33.5t-24.5 -36q-20 -14 -52 -22.5t-69 -0.5q-15 3 -24.5 13
t-11 20.5t6 18t27.5 6.5q25 -2 42 5t38 30z" />
    <glyph glyph-name="Icircumflex" unicode="&#xce;" horiz-adv-x="459" 
d="M195 75q-5 6 -9 14t-11 11q6 -26 20 -50t26 -50h-16q-20 30 -36.5 65.5t-34.5 61.5q-2 5 -5 10.5t-6 10.5h34v21q3 -8 7.5 -15.5t9.5 -12.5q-6 1 -0.5 -7t5.5 -15q1 -2 3 -0.5t3 -0.5q-3 -5 -1.5 -9.5t4 -10l5 -11t2.5 -12.5zM128 83q2 -4 5.5 -10t6 -12t3 -12t-2.5 -10
q-7 20 -20 42.5t-25 36.5q-1 6 -3.5 11.5t-5.5 10.5q4 2 8 3.5t9 2.5q8 -15 14 -30.5t11 -32.5zM336 148q24 0 39.5 -11t24 -27t8.5 -35.5t-8 -35.5l-13.5 27t-14.5 27q1 -11 11 -28.5t15 -28.5v-1q-5 -9 -15 -19q-13 35 -25 68t-26 64h4zM363 109q0 -3 1 -7t6 -3q-2 4 -3 8
t-4 2zM252 223q-3 5 -4.5 13t-9.5 5q25 -63 55 -122t56 -118q-4 -1 -13 -1h-31q-5 8 -9.5 15.5t-8.5 14.5q-2 4 -5.5 11.5t-8 16t-9.5 15.5t-11 10q8 -27 15 -45t15 -38h-47q-2 3 -3 6.5t-3 6.5q-5 13 -9 25.5t-9 24.5q-14 33 -27.5 65t-27.5 62v141q2 -4 3.5 -8t3.5 -6
q1 4 -1.5 9t-5.5 8v227h-36q-36 0 -53.5 23t-17.5 51t17.5 51t53.5 23h215q36 0 54 -23t18 -51t-18 -51t-54 -23h-31v-355q-27 54 -50.5 101.5t-52.5 95.5q-3 -2 -3 -4.5t-5 -2.5q-2 5 -3.5 9t-5.5 4q0 -9 3.5 -17t4.5 -13l-4 4t-5 1q9 -24 22 -49t26.5 -51t27 -53t23.5 -55
q-8 8 -16 21t-15 26zM259 355l-4 10t-7 4q2 -5 4 -10.5t7 -3.5zM215 291q0 -2 2.5 -5.5t4.5 -7t2.5 -7.5t-3.5 -7q1 5 -2 8t-6 5q1 -8 4 -10.5t6 -3.5t6.5 -2t6.5 -4q-7 10 -9.5 19t-11.5 15zM215 296q-7 17 -14.5 32.5t-17.5 26.5q5 -14 13 -31.5t19 -27.5zM183 360
q1 5 -2.5 9t-5.5 4q2 -4 3 -9t5 -4zM264 139q-1 -8 3 -18t10 -20t12 -19.5t9 -16.5q-5 14 -8.5 22.5t-6.5 15.5t-6 15t-8 21q-2 -1 -2.5 0t-2.5 0zM261 163q-8 19 -17.5 39.5t-23.5 28.5q3 1 2 5q-5 24 -21 44.5t-24 41.5q5 -17 10 -28.5t14 -22.5q-4 -2 -4 -3
q7 -15 11 -27.5t13 -16.5q0 -2 -1 -3t0 -3q4 1 8 -4q1 -5 6 -15.5t14 -14.5q0 -6 4 -15t9 -6zM121 0q-29 0 -46 15.5t-22.5 37t0 44t23.5 36.5q18 -34 37 -67.5t36 -65.5h-28zM305 804q6 -14 3.5 -28.5t-16.5 -22.5q-12 -7 -28.5 -3.5t-22.5 17.5q-2 5 -5 10.5t-5 10.5
q-3 -5 -5.5 -9t-5.5 -8q-8 -13 -22 -17.5t-28 3.5q-13 8 -17.5 22.5t3.5 28.5q12 21 21 38.5t20 35.5q5 9 15.5 13t21.5 4t21 -4.5t15 -12.5q10 -20 18.5 -39t16.5 -39z" />
    <glyph glyph-name="Idieresis" unicode="&#xcf;" horiz-adv-x="459" 
d="M195 75q-5 6 -9 14t-11 11q6 -26 20 -50t26 -50h-16q-20 30 -36.5 65.5t-34.5 61.5q-2 5 -5 10.5t-6 10.5h34v21q3 -8 7.5 -15.5t9.5 -12.5q-6 1 -0.5 -7t5.5 -15q1 -2 3 -0.5t3 -0.5q-3 -5 -1.5 -9.5t4 -10l5 -11t2.5 -12.5zM128 83q2 -4 5.5 -10t6 -12t3 -12t-2.5 -10
q-7 20 -20 42.5t-25 36.5q-1 6 -3.5 11.5t-5.5 10.5q4 2 8 3.5t9 2.5q8 -15 14 -30.5t11 -32.5zM336 148q24 0 39.5 -11t24 -27t8.5 -35.5t-8 -35.5l-13.5 27t-14.5 27q1 -11 11 -28.5t15 -28.5v-1q-5 -9 -15 -19q-13 35 -25 68t-26 64h4zM363 109q0 -3 1 -7t6 -3q-2 4 -3 8
t-4 2zM252 223q-3 5 -4.5 13t-9.5 5q25 -63 55 -122t56 -118q-4 -1 -13 -1h-31q-5 8 -9.5 15.5t-8.5 14.5q-2 4 -5.5 11.5t-8 16t-9.5 15.5t-11 10q8 -27 15 -45t15 -38h-47q-2 3 -3 6.5t-3 6.5q-5 13 -9 25.5t-9 24.5q-14 33 -27.5 65t-27.5 62v141q2 -4 3.5 -8t3.5 -6
q1 4 -1.5 9t-5.5 8v227h-36q-36 0 -53.5 23t-17.5 51t17.5 51t53.5 23h215q36 0 54 -23t18 -51t-18 -51t-54 -23h-31v-355q-27 54 -50.5 101.5t-52.5 95.5q-3 -2 -3 -4.5t-5 -2.5q-2 5 -3.5 9t-5.5 4q0 -9 3.5 -17t4.5 -13l-4 4t-5 1q9 -24 22 -49t26.5 -51t27 -53t23.5 -55
q-8 8 -16 21t-15 26zM259 355l-4 10t-7 4q2 -5 4 -10.5t7 -3.5zM215 291q0 -2 2.5 -5.5t4.5 -7t2.5 -7.5t-3.5 -7q1 5 -2 8t-6 5q1 -8 4 -10.5t6 -3.5t6.5 -2t6.5 -4q-7 10 -9.5 19t-11.5 15zM215 296q-7 17 -14.5 32.5t-17.5 26.5q5 -14 13 -31.5t19 -27.5zM183 360
q1 5 -2.5 9t-5.5 4q2 -4 3 -9t5 -4zM264 139q-1 -8 3 -18t10 -20t12 -19.5t9 -16.5q-5 14 -8.5 22.5t-6.5 15.5t-6 15t-8 21q-2 -1 -2.5 0t-2.5 0zM261 163q-8 19 -17.5 39.5t-23.5 28.5q3 1 2 5q-5 24 -21 44.5t-24 41.5q5 -17 10 -28.5t14 -22.5q-4 -2 -4 -3
q7 -15 11 -27.5t13 -16.5q0 -2 -1 -3t0 -3q4 1 8 -4q1 -5 6 -15.5t14 -14.5q0 -6 4 -15t9 -6zM121 0q-29 0 -46 15.5t-22.5 37t0 44t23.5 36.5q18 -34 37 -67.5t36 -65.5h-28zM183 821q18 0 26.5 -11.5t8.5 -25.5t-8.5 -25.5t-26.5 -11.5t-27 11.5t-9 25.5t9 25.5t27 11.5z
M276 821q18 0 27 -11.5t9 -25.5t-9 -25.5t-27 -11.5t-27 11.5t-9 25.5t9 25.5t27 11.5z" />
    <glyph glyph-name="Eth" unicode="&#xd0;" horiz-adv-x="679" 
d="M522 598q51 -54 79.5 -122.5t27.5 -143.5q0 -68 -25 -134.5t-77 -112.5q-2 3 -4 5.5t-4 4.5q2 2 4 0t0 3q-2 4 -5 0t-6 1q-11 29 -28 60t-35 66q20 31 26.5 64t5.5 54q-1 33 -13.5 64.5t-33.5 58.5t-48 48t-56 33q-20 8 -34.5 10.5t-30.5 3.5q0 1 -2 3q-2 0 -2 -1t-1 -2
h-6q-2 4 -3 7t-4 3q0 -7 1 -10q-8 0 -17.5 -0.5t-20.5 -1.5q-31 -2 -52.5 21.5t-21.5 52.5q0 32 21.5 52.5t52.5 22.5q42 3 85 -2.5t83.5 -19t77 -35.5t66.5 -53zM325 366q36 0 54 -23t18 -51t-18 -51t-54 -23h-38v-33q-3 8 -5.5 16.5t-5.5 16.5h-23q8 -17 17 -34t17 -34v-3
h2q2 -5 3.5 -10t3.5 -11q-19 15 -33.5 40t-28.5 52h-32q3 -12 -1 -18q-2 4 -3.5 8.5t-3.5 9.5h-15q17 -31 33 -60.5t31 -58.5q4 -1 5.5 -5.5t5.5 -5.5q10 -23 23 -44.5t26 -43.5q-26 -1 -52.5 1t-53.5 7q-8 1 -18 7.5t-19 17t-15 24.5t-6 30v131h-19q-36 0 -54 23t-18 51
t18 51t54 23h34q-4 6 -7.5 13t-7.5 14v59q0 27 13 43.5t32 23.5t40 4.5t37 -14.5q6 -13 12.5 -25t13.5 -26v-19q-4 9 -10 13q-1 -2 1.5 -5t5 -6.5t3 -7.5t-4.5 -8q1 5 -2 8l-6 6q2 -10 5.5 -12t7.5 -4v-34q-2 1 -2.5 2t-2.5 2q2 1 2 4q-6 24 -22 44.5t-24 41.5q5 -17 10 -28
t14 -22q-3 -1 -4 -4q8 -14 11.5 -26.5t12.5 -16.5q1 -2 0 -3t-1 -3q4 0 6 -2v-12h38zM363 98q-1 -3 -0.5 -7t-1.5 -8q7 -18 16 -35t19 -34l-12 -3q-12 20 -24.5 39.5t-23.5 39.5q-9 16 -17 29.5t-15 27.5q11 1 20.5 1.5t18.5 2.5q0 -14 7.5 -27.5t12.5 -25.5zM404 177
q2 -5 3.5 -8.5t3.5 -8.5q8 -17 16 -35t10 -38q-5 3 -8 9l-6 12t-6 11.5t-8 7.5q5 -6 5 -14t2 -17q4 -13 11.5 -25.5t2.5 -23.5q-5 14 -13 23.5t-12 26.5q-3 -1 -6 2q-10 27 -31 60q11 3 19.5 8t16.5 10zM447 221q4 -7 7 -13t5 -11q9 -35 20.5 -68t24.5 -63q-4 -2 -7 -5
t-7 -5q-2 5 -4 8.5t-4 8.5q0 2 1 2.5t1 2.5q-14 31 -26 62.5t-24 63.5q8 10 13 17zM173 426q1 -3 4.5 -10.5t8 -16t9.5 -17.5t9 -16h7q-12 24 -24.5 47t-26.5 44q3 -8 6 -17t9 -11q-2 -1 -2.5 -0.5t0.5 -2.5zM245 516q5 -14 12.5 -31t18.5 -28q-7 17 -14.5 32.5t-16.5 26.5z
M216 497l4 -10t6 -8q0 4 -3 10t-7 8z" />
    </font>
</defs>
</svg>
