<?xml version="1.0" standalone="no"?>
<!DOCTYPE svg PUBLIC "-//W3C//DTD SVG 1.1//EN" "http://www.w3.org/Graphics/SVG/1.1/DTD/svg11.dtd" >
<svg xmlns="http://www.w3.org/2000/svg" xmlns:xlink="http://www.w3.org/1999/xlink" version="1.1">
<metadata>
Created by FontForge 20170731 at Tue Oct 14 20:26:03 2003
 By Aleksey,,,
Entworfen von Rudolf Koch fuer die Schriftgiesserei Gebr. Klingspor (Offenbach/M.), 1932
</metadata>
<defs>
<font id="Prisma" horiz-adv-x="831" >
  <font-face 
    font-family="Prisma"
    font-weight="400"
    font-stretch="normal"
    units-per-em="1000"
    panose-1="2 0 4 0 0 0 0 0 0 0"
    ascent="800"
    descent="-200"
    x-height="782"
    cap-height="782"
    bbox="-58 -247 1601 1132"
    underline-thickness="58"
    underline-position="-193"
    unicode-range="U+0020-F002"
  />
<missing-glyph horiz-adv-x="174" 
 />
    <glyph glyph-name=".notdef" horiz-adv-x="174" 
 />
    <glyph glyph-name=".null" horiz-adv-x="0" 
 />
    <glyph glyph-name="nonmarkingreturn" horiz-adv-x="333" 
 />
    <glyph glyph-name="space" unicode=" " horiz-adv-x="174" 
 />
    <glyph glyph-name="exclam" unicode="!" horiz-adv-x="225" 
d="M117 175v-175h-18v175h18zM153 175v-175h-18v175h18zM189 175v-175h-18v175h18zM225 175v-175h-18v175h18zM81 175v-175h-18v175h18zM117 782v-558h-18v558h18zM153 782v-558h-18v558h18zM189 782v-558h-18v558h18zM225 782v-558h-18v558h18zM81 782v-558h-18v558h18z
" />
    <glyph glyph-name="quotedbl" unicode="&#x22;" horiz-adv-x="433" 
d="M101 790v-196h-18v196h18zM137 790v-196h-18v196h18zM173 790v-196h-18v196h18zM209 790v-196h-18v196h18zM65 790v-196h-18v196h18zM316 790v-196h-18v196h18zM352 790v-196h-18v196h18zM388 790v-196h-18v196h18zM424 790v-196h-18v196h18zM280 790v-196h-18v196h18z
" />
    <glyph glyph-name="numbersign" unicode="#" horiz-adv-x="825" 
d="M399 746h117l-77 -216h123l76 216h118l-77 -216h144l-35 -99h-144l-46 -129h144l-35 -98h-144l-77 -217h-117l77 217h-123l-77 -217h-117l77 217h-143l35 98h143l45 129h-142l35 99h143zM358 302h123l46 129h-123z" />
    <glyph glyph-name="dollar" unicode="$" horiz-adv-x="512" 
d="M330 327q49 -31 49 -88q0 -50 -49 -89v-20q67 34 67 109q0 72 -67 109v-21zM330 367q29 -11 54 -41q31 -38 31 -87q0 -50 -31 -88q-24 -29 -54 -40v-19q35 8 66 45q37 44 37 102q0 56 -36 100q-30 35 -67 48v-20zM330 405q48 -14 82 -54q39 -47 39 -112q0 -64 -41 -113
q-34 -40 -80 -54v-18q51 12 92 58q47 55 47 127q0 71 -44 123q-39 46 -95 63v-20zM330 443q59 -13 105 -65q52 -60 52 -139t-52 -138q-45 -52 -105 -66v-19q68 16 118 72q57 64 57 151t-56 151q-49 54 -119 72v-19zM330 173q32 28 32 66q0 40 -32 65v-131zM240 768
q-74 -16 -123 -75t-49 -136q0 -78 49.5 -137t122.5 -73v18q-67 16 -110 69t-43 123t44 125t109 67v19zM240 732q-59 -15 -97.5 -63.5t-38.5 -111.5q0 -62 39.5 -111t96.5 -62v19q-51 14 -84 56.5t-33 97.5t33.5 99t83.5 56v20zM240 695q-44 -15 -72 -52.5t-28 -85.5
q0 -47 28.5 -85t71.5 -51v20q-36 13 -58.5 44.5t-22.5 71.5t22.5 72.5t58.5 44.5v21zM240 655q-28 -11 -46.5 -38.5t-18.5 -59.5q0 -69 65 -98v20q-47 24 -47 78q0 55 47 78v20zM330 480q76 -16 131 -77q62 -70 62 -164t-63 -164q-56 -63 -130 -77v-11h-18v813h18v-11
q58 -7 109 -45t76 -98l-15 -10q-23 57 -71 93q-44 34 -99 42v-19q48 -6 89 -38q45 -35 64 -87l-15 -10q-16 49 -58 82q-38 30 -80 35v-18q37 -6 70 -33q36 -30 51 -74l-14 -9q-13 40 -45 67q-29 24 -62 31v-18q27 -6 52 -28q28 -25 38 -62l-16 -9q-7 31 -32 55
q-20 20 -42 25v-20q17 -5 34 -22q20 -21 24 -47l-17 -10q-6 44 -41 61v-143zM240 614q-28 -23 -28 -57t28 -57v114zM240 800h18v-813h-18v6q-57 4 -108.5 35.5t-83.5 83.5l15 10q63 -104 177 -111v18q-104 9 -163 103l15 11q50 -87 148 -96v17q-38 4 -75 27.5t-58 61.5
l16 10q38 -72 117 -81v19q-70 10 -103 72l15 11q29 -57 88 -65v18q-49 9 -73 58l15 9q17 -39 58 -49v174q-81 14 -135.5 78.5t-54.5 149.5t54.5 150t135.5 79v14zM294 800v-813h-18v813h18z" />
    <glyph glyph-name="percent" unicode="%" horiz-adv-x="1072" 
d="M285 791q100 0 170 -70.5t70 -169.5t-70 -169.5t-170 -70.5q-99 0 -169.5 70.5t-70.5 169.5t70.5 169.5t169.5 70.5zM63 551q0 -92 65 -157t157 -65t157 65t65 157t-65 157t-157 65q-91 0 -156.5 -65t-65.5 -157zM285 347q-85 0 -144.5 59.5t-59.5 144.5t59.5 144.5
t144.5 59.5t144.5 -59.5t59.5 -144.5t-59.5 -144.5t-144.5 -59.5zM99 551q0 -77 54.5 -131.5t131.5 -54.5t131.5 54.5t54.5 131.5t-54.5 131.5t-131.5 54.5q-76 0 -131 -54.5t-55 -131.5zM285 383q-70 0 -119 49t-49 119t49 119t119 49t119 -49t49 -119t-49 -119t-119 -49z
M135 551q0 -62 44 -106t106 -44t106.5 44t44.5 106t-44.5 106t-106.5 44q-61 0 -105.5 -44t-44.5 -106zM285 419q-55 0 -93.5 38.5t-38.5 93.5t38.5 93.5t93.5 38.5t94 -38.5t39 -93.5t-39 -93.5t-94 -38.5zM171 551q0 -48 33.5 -81t80.5 -33q48 0 81.5 33t33.5 81
q0 47 -33.5 80.5t-81.5 33.5q-47 0 -80.5 -33.5t-33.5 -80.5zM847 471q99 0 169.5 -70t70.5 -169q0 -100 -70.5 -170t-169.5 -70t-169.5 70t-70.5 170q0 99 70.5 169t169.5 70zM625 232q0 -92 65 -157t157 -65t157 65t65 157q0 91 -65 156t-157 65t-157 -64.5t-65 -156.5z
M847 27q-85 0 -144.5 60t-59.5 145t59.5 144.5t144.5 59.5t144.5 -59.5t59.5 -144.5t-59.5 -145t-144.5 -60zM661 232q0 -77 54.5 -132t131.5 -55t131.5 55t54.5 132t-54.5 131.5t-131.5 54.5t-131.5 -54.5t-54.5 -131.5zM847 63q-70 0 -119 49.5t-49 119.5t49 119t119 49
t119 -49t49 -119t-49 -119.5t-119 -49.5zM697 232q0 -62 44 -106.5t106 -44.5t106 44.5t44 106.5t-44 106t-106 44t-106 -44t-44 -106zM847 99q-55 0 -93.5 39t-38.5 94q0 54 38.5 93t93.5 39t93.5 -39t38.5 -93q0 -55 -38.5 -94t-93.5 -39zM733 232q0 -48 33 -81.5
t81 -33.5q47 0 80.5 33.5t33.5 81.5q0 47 -33.5 80.5t-80.5 33.5q-48 0 -81 -33.5t-33 -80.5zM683 784l-307 -842h-19l307 842h19zM759 784l-307 -842h-19l307 842h19zM721 784l-307 -842h-19l307 842h19z" />
    <glyph glyph-name="ampersand" unicode="&#x26;" horiz-adv-x="660" 
d="M125 540q0 86 61.5 147t146.5 61q86 0 147 -61t61 -147q0 -69 -43 -125q-27 -35 -64 -57l64 -70q24 22 60 64l13 -14q-79 -97 -193 -158q-64 -34 -92 -43q-11 -3 -23 -3q-29 0 -50 21t-21 50q0 46 42 68l41 22l-13 14l-37 -20q-51 -28 -51 -82q0 -20 8 -38q22 -51 83 -51
q13 0 25 3q27 6 100 45q113 61 192 160l13 -14q-80 -98 -192 -160q-77 -42 -110 -49q-14 -3 -27 -3q-72 0 -100 62q-9 21 -9 43q0 67 61 99q11 7 33 17l-14 16l-28 -15q-72 -39 -72 -115q0 -27 12 -54q33 -73 116 -73q16 0 31 4q43 10 120 54q110 63 192 160l13 -15
q-77 -89 -193 -159q-72 -43 -129 -58q-16 -4 -33 -4q-41 0 -77 22q-39 23 -57 62q-13 29 -13 59q0 89 82 134l22 12l-12 15l-18 -10q-43 -24 -68 -65t-25 -87q0 -35 15 -67q21 -45 61.5 -69.5t88.5 -24.5q19 0 37 4q49 11 139 63q115 67 192 160l12 -14q-81 -98 -192 -160
q-106 -59 -148 -67q-19 -4 -38 -4q-53 0 -98 27q-48 27 -71 77q-17 36 -17 76q0 53 28.5 99.5t76.5 68.5l13 6l-12 14l-9 -4q-55 -25 -85.5 -74t-30.5 -106q0 -46 19 -87q54 -114 184 -114q23 0 44 4q53 11 155.5 70t191.5 161l12 -13q-24 -30 -61 -63l58 -64l-14 -13
l-58 64l-13 -11l58 -65l-13 -12l-59 65l-14 -12l59 -65l-13 -12l-60 67l-15 -11l62 -68l-14 -12l-64 71l-14 -10l65 -73l-13 -13l-68 76q-109 -66 -165 -76q-25 -5 -50 -5q-66 0 -118.5 33t-79.5 93q-20 44 -20 92q0 62 33 115.5t93 83.5l4 2q-14 13 -29 45q-20 43 -20 88z
M422 373q43 22 72 67t29 100q0 79 -55.5 134.5t-134.5 55.5t-134.5 -55.5t-55.5 -134.5q0 -73 41 -118l198 -219l15 8l-198 222q-37 41 -37 107q0 71 50.5 121.5t120.5 50.5t120.5 -50.5t50.5 -121.5q0 -104 -95 -154zM486 540q0 64 -44.5 109.5t-108.5 45.5t-108.5 -45.5
t-44.5 -109.5q0 -58 34 -96l198 -222l16 10l-201 223q-30 33 -30 85q0 56 40 96.5t96 40.5t96 -40.5t40 -96.5q0 -43 -24 -76.5t-60 -49.5l12 -14q38 19 63.5 56.5t25.5 83.5zM451 540q0 50 -34.5 84.5t-83.5 34.5t-83.5 -34.5t-34.5 -84.5q0 -46 26 -75l201 -223l15 11
l-201 223q-23 26 -23 64q0 41 29.5 71t70.5 30t70.5 -30t29.5 -71q0 -68 -75 -98l14 -15q33 13 56 43.5t23 69.5zM415 540q0 34 -24 58.5t-58 24.5t-58 -24.5t-24 -58.5q0 -32 20 -54l199 -222l14 11l-199 222q-17 19 -17 43q0 27 19 46t46 19t45.5 -19t18.5 -46
q0 -29 -22 -47q-10 -8 -41 -24l13 -13q68 26 68 84zM299 508l22 -25l30 15q28 14 28 42q0 19 -13.5 33t-32.5 14t-33 -14t-14 -33q0 -12 13 -32zM241 256q-30 -15 -30 -51q0 -22 15.5 -37t38.5 -15q9 0 18 3q25 8 83 37l-78 87z" />
    <glyph glyph-name="quotesingle" unicode="'" horiz-adv-x="221" 
d="M101 790v-196h-18v196h18zM137 790v-196h-18v196h18zM173 790v-196h-18v196h18zM209 790v-196h-18v196h18zM65 790v-196h-18v196h18z" />
    <glyph glyph-name="parenleft" unicode="(" horiz-adv-x="352" 
d="M225 187q0 -52 37.5 -89.5t89.5 -37.5v-18q-60 0 -102.5 42.5t-42.5 102.5v412q0 60 42 102.5t103 42.5v-18q-52 0 -89.5 -37t-37.5 -90v-412zM189 187q0 -67 48 -115t115 -48v-18q-74 0 -127.5 53.5t-53.5 127.5v412q0 75 53.5 128t127.5 53v-18q-67 0 -115 -47.5
t-48 -115.5v-412zM153 187q0 -82 58.5 -140.5t140.5 -58.5v-18q-89 0 -153 64t-64 153v412q0 90 64 153.5t153 63.5v-18q-82 0 -140.5 -58.5t-58.5 -140.5v-412zM117 187q0 -97 68.5 -166t166.5 -69v-18q-105 0 -179 74.5t-74 178.5v412q0 105 74 179t179 74v-18
q-98 0 -166.5 -69t-68.5 -166v-412zM81 187q0 -112 79.5 -191.5t191.5 -79.5v-17q-120 0 -204.5 84t-84.5 204v412q0 120 84.5 204.5t204.5 84.5v-18q-112 0 -191.5 -79.5t-79.5 -191.5v-412z" />
    <glyph glyph-name="parenright" unicode=")" horiz-adv-x="352" 
d="M190 599q0 53 -37 90t-90 37v18q61 0 103 -42.5t42 -102.5v-412q0 -60 -42 -102.5t-103 -42.5v18q53 0 90 37.5t37 89.5v412zM226 599q0 68 -47.5 115.5t-115.5 47.5v18q75 0 128 -53t53 -128v-412q0 -74 -53 -127.5t-128 -53.5v18q68 0 115.5 48t47.5 115v412zM262 599
q0 82 -58.5 140.5t-140.5 58.5v18q90 0 153.5 -63.5t63.5 -153.5v-412q0 -89 -63.5 -153t-153.5 -64v18q82 0 140.5 58.5t58.5 140.5v412zM298 599q0 97 -68.5 166t-166.5 69v18q105 0 179 -74t74 -179v-412q0 -104 -74 -178.5t-179 -74.5v18q98 0 166.5 69t68.5 166v412z
M334 599q0 112 -79.5 191.5t-191.5 79.5v18q120 0 204.5 -84.5t84.5 -204.5v-412q0 -120 -84.5 -204t-204.5 -84v17q112 0 191.5 79.5t79.5 191.5v412z" />
    <glyph glyph-name="asterisk" unicode="*" horiz-adv-x="308" 
d="M208 736l75 43l9 -16l-102 -58v116h18v-85zM61 630l-9 16l76 43l-76 44l9 15l103 -59zM208 643v-88h-18v118l102 -58l-9 -16zM154 821h18v-116l-102 59l9 16l75 -43v84zM154 642l-75 -44l-9 16l102 59v-118h-18v87zM237 689l73 -42l-9 -16l-101 58l101 58l9 -15z" />
    <glyph glyph-name="plus" unicode="+" horiz-adv-x="719" 
d="M437 388v-18h18v18h-18zM401 388v-18h18v18h-18zM437 334h18v18h-18v-18zM401 334h18v18h-18v-18zM365 352v-18h18v18h-18zM365 388v-18h18v18h-18zM437 298h18v18h-18v-18zM401 298h18v18h-18v-18zM365 298h18v18h-18v-18zM329 316v-18h18v18h-18zM329 352v-18h18v18
h-18zM329 388v-18h18v18h-18zM437 262h18v18h-18v-18zM401 262h18v18h-18v-18zM365 262h18v18h-18v-18zM329 262h18v18h-18v-18zM717 244h-244v-244h-18v244h-18v-244h-18v244h-18v-244h-18v244h-18v-244h-18v244h-18v-244h-18v244h-244v18h244v18h-244v18h244v18h-244v18
h244v18h-244v18h244v18h-244v18h244v244h18v-244h18v244h18v-244h18v244h18v-244h18v244h18v-244h18v244h18v-244h244v-18h-244v-18h244v-18h-244v-18h244v-18h-244v-18h244v-18h-244v-18h244v-18z" />
    <glyph glyph-name="comma" unicode="," horiz-adv-x="237" 
d="M119 175q18 -45 18 -100q0 -50 -18 -102h-20q20 40 20 102q0 56 -19 100h19zM158 175q15 -51 15 -100q0 -48 -15 -102h-20q17 45 17 102q0 62 -17 100h20zM196 175q13 -41 13 -100q0 -52 -14 -102h-18q14 60 14 102q0 58 -14 100h19zM233 175q12 -41 12 -100
q0 -61 -13 -102h-18q13 39 13 102q0 61 -13 100h19zM81 175q20 -45 20 -100q0 -60 -21 -102h-20q24 48 24 102q0 50 -23 100h20z" />
    <glyph glyph-name="hyphen" unicode="-" horiz-adv-x="466" 
d="M63 301h398v-18h-398v18zM63 337h398v-18h-398v18zM63 373h398v-18h-398v18zM63 409h398v-18h-398v18zM63 265h398v-18h-398v18z" />
    <glyph glyph-name="hyphen" unicode="&#x2010;" horiz-adv-x="466" 
d="M63 301h398v-18h-398v18zM63 337h398v-18h-398v18zM63 373h398v-18h-398v18zM63 409h398v-18h-398v18zM63 265h398v-18h-398v18z" />
    <glyph glyph-name="period" unicode="." horiz-adv-x="226" 
d="M115 175v-175h-18v175h18zM151 175v-175h-18v175h18zM187 175v-175h-18v175h18zM223 175v-175h-18v175h18zM79 175v-175h-18v175h18z" />
    <glyph glyph-name="slash" unicode="/" horiz-adv-x="436" 
d="M358 784l-286 -787h-19l286 787h19zM434 784l-286 -787h-19l286 787h19zM396 784l-286 -787h-19l286 787h19z" />
    <glyph glyph-name="zero" unicode="0" horiz-adv-x="651" 
d="M68 502q0 120 84.5 204.5t203.5 84.5q120 0 204.5 -84.5t84.5 -204.5v-222q0 -119 -84.5 -203.5t-204.5 -84.5q-119 0 -203.5 84.5t-84.5 203.5v222zM86 280q0 -112 79 -191t191 -79t191.5 79t79.5 191v222q0 112 -79.5 191.5t-191.5 79.5t-191 -79.5t-79 -191.5v-222z
M140 502q0 90 63.5 153.5t152.5 63.5q90 0 153.5 -63.5t63.5 -153.5v-222q0 -89 -63.5 -153t-153.5 -64q-89 0 -152.5 64t-63.5 153v222zM158 280q0 -82 57.5 -140.5t140.5 -58.5q82 0 140.5 58.5t58.5 140.5v222q0 82 -58.5 140.5t-140.5 58.5q-83 0 -140.5 -58.5
t-57.5 -140.5v-222zM211 502q0 60 42.5 102.5t102.5 42.5q61 0 103 -42.5t42 -102.5v-222q0 -60 -42 -102.5t-103 -42.5q-60 0 -102.5 42.5t-42.5 102.5v222zM229 280q0 -52 37.5 -89.5t89.5 -37.5q53 0 90 37.5t37 89.5v222q0 53 -37 90t-90 37q-52 0 -89.5 -37t-37.5 -90
v-222zM175 502q0 74 53.5 127.5t127.5 53.5q75 0 128 -53.5t53 -127.5v-222q0 -74 -53 -127.5t-128 -53.5q-74 0 -127.5 53.5t-53.5 127.5v222zM193 280q0 -67 48 -115t115 -48q68 0 115.5 48t47.5 115v222q0 68 -47.5 115.5t-115.5 47.5q-67 0 -115 -47.5t-48 -115.5v-222z
M122 280q0 -98 68.5 -166.5t165.5 -68.5q98 0 166.5 69t68.5 166v222q0 97 -68.5 166t-166.5 69q-97 0 -165.5 -68.5t-68.5 -166.5v-222zM104 502q0 105 74 179t178 74q105 0 179 -74t74 -179v-222q0 -104 -74 -178.5t-179 -74.5q-104 0 -178 74.5t-74 178.5v222z" />
    <glyph glyph-name="one" unicode="1" horiz-adv-x="651" 
d="M367 782v-782h-18v782h18zM403 782v-782h-18v782h18zM439 782v-782h-18v782h18zM475 782v-782h-18v782h18zM313 591l-127 -78l-9 14l136 86v21l-146 -91l-9 15l155 97v22l-165 -104l-10 16l175 109v21l-184 -115l-10 15l194 121v22l-203 -128l-10 16l213 132h18v-782h-18
v591z" />
    <glyph glyph-name="two" unicode="2" horiz-adv-x="651" 
d="M101 18h496v-18h-509zM128 54h469v-18h-483zM153 90h444v-18h-456zM180 126h417v-18h-430zM439 481q19 26 19 55q0 38 -27.5 65.5t-65.5 27.5t-65.5 -27.5t-27.5 -65.5q0 -49 43 -77l-11 -15q-50 32 -50 92q0 46 32.5 78.5t78.5 32.5t78.5 -32.5t32.5 -78.5
q0 -36 -21 -65l-227 -309h21l220 300q25 34 25 74q0 53 -38 91t-91 38t-91 -38t-38 -91q0 -69 58 -107l-11 -15q-65 44 -65 122q0 60 43 103.5t104 43.5q60 0 103.5 -43.5t43.5 -103.5q0 -47 -27 -84l-213 -290h23l205 281q30 41 30 93q0 68 -48.5 116.5t-116.5 48.5
t-116.5 -48.5t-48.5 -116.5q0 -88 73 -136l-12 -14q-79 55 -79 150q0 75 53.5 129t129.5 54q75 0 129 -54t54 -129q0 -59 -33 -104l-198 -270h21l193 261q35 47 35 113q0 83 -59 142t-142 59t-142 -59t-59 -142q0 -104 87 -165l-11 -15q-93 68 -93 180q0 90 64 154.5
t154 64.5t153.5 -64.5t63.5 -154.5q0 -72 -37 -123l-183 -251h22l177 242q40 55 40 132q0 98 -69.5 167.5t-166.5 69.5t-167 -69.5t-70 -167.5q0 -124 102 -194l-10 -14q-49 32 -79 88t-30 120q0 106 74 180.5t180 74.5q105 0 179 -74.5t74 -180.5q0 -83 -42 -141l-170 -233
h191v-18h-405z" />
    <glyph glyph-name="three" unicode="3" horiz-adv-x="651" 
d="M281 426v18h45q38 0 65.5 27t27.5 65t-27.5 65.5t-65.5 27.5q-32 0 -57 -19.5t-33 -49.5l-15 14q29 73 105 73q46 0 78.5 -32.5t32.5 -78.5q0 -45 -32.5 -77.5t-78.5 -32.5h-45zM281 408h45q53 0 91 37.5t38 90.5t-38 91t-91 38q-83 0 -119 -77l-14 12q44 83 133 83
q60 0 103.5 -43.5t43.5 -103.5q0 -46 -26.5 -82.5t-69.5 -53.5q46 -17 74.5 -56.5t28.5 -89.5q0 -64 -45 -109.5t-109 -45.5q-48 0 -87 26.5t-56 69.5l15 12q14 -40 49 -65t79 -25q56 0 96 40.5t40 96.5t-40 96t-96 40h-45v18zM227 236q5 -34 34 -58.5t65 -24.5
q41 0 70.5 30t29.5 71t-29.5 70.5t-70.5 29.5h-45v18h45q49 0 83.5 -34.5t34.5 -83.5t-34.5 -84t-83.5 -35q-40 0 -72 24t-43 62zM520 403q42 59 42 133q0 98 -69.5 167.5t-166.5 69.5q-126 0 -200 -109l-13 11q30 49 86 81q60 35 127 35q105 0 179 -74.5t74 -180.5
q0 -77 -38 -134q47 -61 47 -148q0 -109 -77 -185.5t-185 -76.5q-71 0 -131 34t-94 91l14 12q33 -54 89 -86.5t122 -32.5q101 0 172.5 71t71.5 173q0 76 -50 149zM474 401q52 59 52 135q0 83 -58.5 142t-141.5 59q-114 0 -173 -99l-12 12q62 105 185 105q90 0 153.5 -64.5
t63.5 -154.5q0 -80 -46 -134q55 -65 55 -148q0 -94 -66.5 -160.5t-159.5 -66.5q-63 0 -115 31t-82 84l13 13q27 -49 76 -79.5t108 -30.5q86 0 147 61t61 148q0 85 -60 147zM447 400q69 -56 69 -146q0 -79 -56 -135t-134 -56q-113 0 -171 105l14 13q21 -45 63.5 -72.5
t93.5 -27.5q71 0 121.5 51t50.5 122q0 50 -27 93q-23 34 -55 53q30 18 50 51q24 39 24 85q0 68 -48 116.5t-116 48.5q-47 0 -86 -24t-60 -64l-14 13q54 93 160 93q75 0 128.5 -54t53.5 -129q0 -84 -61 -136z" />
    <glyph glyph-name="four" unicode="4" horiz-adv-x="651" 
d="M408 155h-18v-155h-18v155h-306v18h582v-18h-114v-155h-18v155h-18v-155h-18v155h-18v-155h-18v155h-18v-155h-18v155zM498 724v-407h18v437zM462 664v-347h18v379zM426 605v-288h18v317zM390 545v-228h18v258zM254 317h118v198zM534 782v-465h114v-18h-582v18l279 465
h21l-279 -465h20l280 465h20l-280 -465h21l280 465h22l-281 -465h22l279 465h22l-281 -465h22l280 465h20h1zM66 209h582v-18h-582v18zM66 245h582v-18h-582v18zM66 281h582v-18h-582v18z" />
    <glyph glyph-name="five" unicode="5" horiz-adv-x="651" 
d="M298 621h-18v-267h-18v267h-18v-267h-18v267h-18v-267h-18v267h-18v-267h-18v284h375v-17h-213v-105h10q108 0 185 -76.5t77 -185.5t-77 -185.5t-185 -76.5q-135 0 -215 111l14 11q73 -104 201 -104q101 0 172.5 71t71.5 173q0 101 -71.5 172.5t-172.5 71.5h-10v-18h10
q93 0 159.5 -66.5t66.5 -159.5q0 -94 -66.5 -160.5t-159.5 -66.5q-118 0 -188 100l13 13q61 -95 175 -95q86 0 147 61t61 148q0 86 -61 147t-147 61h-10v-18h10q78 0 134 -56t56 -134q0 -79 -56 -135t-134 -56q-103 0 -161 88l14 13q48 -83 147 -83q71 0 121.5 51t50.5 122
t-50.5 121.5t-121.5 50.5h-10v-18h10q64 0 109 -45t45 -109t-45 -109.5t-109 -45.5q-43 0 -79.5 22t-54.5 56l14 11q39 -71 120 -71q56 0 96 40.5t40 96.5t-40 96t-96 40h-10v-18h10q49 0 83.5 -34.5t34.5 -83.5t-34.5 -84t-83.5 -35q-35 0 -64 18.5t-42 48.5l14 12
q26 -61 92 -61q41 0 70.5 30t29.5 71t-29.5 70.5t-70.5 29.5h-28v267zM154 782h375v-18h-375v18zM154 746h375v-18h-375v18zM154 710h375v-18h-375v18zM154 674h375v-18h-375v18z" />
    <glyph glyph-name="six" unicode="6" horiz-adv-x="651" 
d="M618 254q0 -109 -76.5 -185.5t-185.5 -76.5t-185.5 76.5t-76.5 185.5q0 72 39 137l236 391h21l-241 -399q-37 -61 -37 -129q0 -102 71.5 -173t172.5 -71q102 0 173 71t71 173q0 97 -66 168q-62 65 -148 74l-11 -17q84 -6 145.5 -70t61.5 -155q0 -94 -66 -160.5
t-160 -66.5q-93 0 -159.5 66.5t-66.5 160.5q0 62 34 118l247 410h20l-252 -419q-31 -52 -31 -109q0 -87 61 -148t147 -61t147 61t61 148q0 85 -58.5 145t-140.5 63l-11 -18q81 0 137 -56t56 -134q0 -79 -56 -135t-135 -56q-78 0 -134 56t-56 135q0 51 30 101l256 427h22
l-264 -436q-26 -43 -26 -92q0 -71 50.5 -122t121.5 -51t122 51t51 122t-51 121.5t-122 50.5h-12l-12 -19q2 0 11 1h13q64 0 109.5 -45t45.5 -109t-45 -109.5t-110 -45.5q-64 0 -109 45.5t-45 109.5q0 43 24 83l269 445h21l-274 -453q-22 -36 -22 -75q0 -56 40 -96.5
t96 -40.5t96.5 40.5t40.5 96.5t-40.5 96t-96.5 40q-22 0 -37 -5l-15 -25q24 12 52 12q49 0 84 -34.5t35 -83.5t-34.5 -84t-84.5 -35q-49 0 -83.5 35t-34.5 84q0 33 20 66l279 462h21l-163 -269q88 -11 153 -80q70 -75 70 -179zM457 254q0 41 -30 70.5t-71 29.5t-70.5 -29.5
t-29.5 -70.5t29.5 -71t70.5 -30t71 30t30 71z" />
    <glyph glyph-name="seven" unicode="7" horiz-adv-x="651" 
d="M167 0l214 621h-274v17h280l6 18h-286v18h293l6 18h-299v18h304l7 18h-311v18h317l6 18h-323v18h348l-269 -782h-19zM493 782l-269 -782h-19l269 782h19zM531 782l-269 -782h-19l269 782h19zM569 782l-269 -782h-19l269 782h19zM607 782l-269 -782h-19l269 782h19z" />
    <glyph glyph-name="eight" unicode="8" horiz-adv-x="651" 
d="M433 232q0 33 -22.5 56t-55.5 23q-32 0 -55 -23.5t-23 -55.5q0 -33 23 -56t55 -23q33 0 55.5 23t22.5 56zM595 232q0 -100 -70.5 -170t-169.5 -70t-169.5 70t-70.5 170q0 92 62 159q-62 67 -62 160q0 99 70.5 169.5t169.5 70.5t169.5 -70.5t70.5 -169.5q0 -90 -60 -160
q60 -68 60 -159zM522 405q55 63 55 146q0 92 -65 157t-157 65q-91 0 -156.5 -65t-65.5 -157t65 -157t157 -65q39 0 67.5 -29t28.5 -68q0 -40 -28 -68.5t-68 -28.5t-68 28.5t-28 68.5q0 59 49 83q-8 1 -25 6q-42 -33 -42 -89q0 -48 33.5 -81.5t80.5 -33.5q48 0 81 33.5
t33 81.5t-33 81.5t-81 33.5q-85 0 -144.5 59.5t-59.5 144.5t59.5 144.5t144.5 59.5t144.5 -59.5t59.5 -144.5q0 -78 -51 -135q5 -4 14 -11zM494 427q47 53 47 124q0 77 -54.5 131.5t-131.5 54.5q-76 0 -131 -54.5t-55 -131.5t54.5 -131.5t131.5 -54.5q54 0 93 -39.5
t39 -93.5q0 -55 -38.5 -94t-93.5 -39t-93.5 39t-38.5 94q0 57 42 97q-3 1 -9 3.5t-9 3.5q-42 -42 -42 -104t44 -106.5t106 -44.5t106 44.5t44 106.5t-44 106.5t-106 44.5q-70 0 -119 49t-49 119t49 119t119 49t119 -49t49 -119q0 -67 -43 -113q5 -4 14 -11zM463 447
q42 42 42 104t-44 106t-106 44q-61 0 -105.5 -44t-44.5 -106t44 -106t106 -44q70 0 119 -49.5t49 -119.5t-49 -119.5t-119 -49.5t-119 49.5t-49 119.5q0 67 45 114q-2 1 -15 9q-48 -48 -48 -123q0 -77 54.5 -132t131.5 -55t131.5 55t54.5 132t-54.5 132t-131.5 55
q-55 0 -93.5 38.5t-38.5 93.5t38.5 93.5t93.5 38.5t93.5 -38.5t38.5 -93.5q0 -57 -41 -96q8 -6 17 -8zM426 461q43 35 43 90q0 47 -33 80.5t-81 33.5q-47 0 -80.5 -33.5t-33.5 -80.5q0 -48 33.5 -81t80.5 -33q85 0 144.5 -60t59.5 -145t-59.5 -145t-144.5 -60t-144.5 60
t-59.5 145q0 78 51 135q-6 2 -13 11q-56 -59 -56 -146q0 -92 65 -157t157 -65t157 65t65 157t-65 157.5t-157 65.5q-40 0 -68 28t-28 68t28 68t68 28t68 -28t28 -68q0 -55 -47 -84q11 -2 22 -6zM433 551q0 32 -22.5 55t-55.5 23q-32 0 -55 -23t-23 -55q0 -33 23 -55.5
t55 -22.5q33 0 55.5 22.5t22.5 55.5z" />
    <glyph glyph-name="nine" unicode="9" horiz-adv-x="651" 
d="M91 529q0 108 76.5 185t185.5 77t185.5 -77t76.5 -185q0 -73 -39 -138l-236 -391h-21l241 400q37 61 37 129q0 101 -71.5 172.5t-172.5 71.5t-172.5 -71.5t-71.5 -172.5q0 -98 67 -168q62 -66 147 -75l11 17q-84 6 -144 69q-63 66 -63 157q0 93 66 159.5t160 66.5
t160 -66.5t66 -159.5q0 -63 -34 -119l-247 -410h-20l253 420q30 50 30 109q0 86 -61 147t-147 61t-147 -61t-61 -147t59 -145.5t141 -63.5l10 18q-81 0 -136.5 56t-55.5 135q0 78 55.5 134t134.5 56t134.5 -56t55.5 -134q0 -54 -29 -102l-257 -427h-21l263 437q26 43 26 92
q0 71 -50.5 121.5t-121.5 50.5t-121.5 -50.5t-50.5 -121.5q0 -72 50.5 -122.5t121.5 -50.5h13l11 19h-10q-8 -1 -14 -1q-64 0 -109 45t-45 110q0 64 45 109t109 45t109 -45t45 -109q0 -44 -24 -84l-268 -445h-22l274 453q22 36 22 76q0 56 -40 96t-96 40t-96 -40t-40 -96
q0 -57 40 -97t96 -40q22 0 37 5l15 25q-36 -12 -52 -12q-49 0 -83.5 35t-34.5 84t34.5 83.5t83.5 34.5t83.5 -34.5t34.5 -83.5q0 -34 -20 -67l-279 -462h-21l163 270q-88 10 -153 80q-70 75 -70 179zM253 529q0 -41 29.5 -71t70.5 -30t70.5 30t29.5 71t-29.5 70.5
t-70.5 29.5t-70.5 -29.5t-29.5 -70.5z" />
    <glyph glyph-name="colon" unicode=":" horiz-adv-x="226" 
d="M117 175v-175h-18v175h18zM153 175v-175h-18v175h18zM189 175v-175h-18v175h18zM225 175v-175h-18v175h18zM81 175v-175h-18v175h18zM117 503v-175h-18v175h18zM153 503v-175h-18v175h18zM189 503v-175h-18v175h18zM225 503v-175h-18v175h18zM81 503v-175h-18v175h18z
" />
    <glyph glyph-name="semicolon" unicode=";" horiz-adv-x="237" 
d="M117 503v-175h-18v175h18zM153 503v-175h-18v175h18zM189 503v-175h-18v175h18zM225 503v-175h-18v175h18zM81 503v-175h-18v175h18zM119 175q18 -45 18 -100q0 -50 -18 -102h-20q20 40 20 102q0 56 -19 100h19zM158 175q15 -51 15 -100q0 -48 -15 -102h-20q17 45 17 102
q0 62 -17 100h20zM196 175q13 -41 13 -100q0 -52 -14 -102h-18q14 60 14 102q0 58 -14 100h19zM233 175q12 -41 12 -100q0 -61 -13 -102h-18q13 39 13 102q0 61 -13 100h19zM81 175q20 -45 20 -100q0 -60 -21 -102h-20q24 48 24 102q0 50 -23 100h20z" />
    <glyph glyph-name="less" unicode="&#x3c;" horiz-adv-x="553" 
d="M63 389l489 182v-130l-314 -112l314 -112v-130l-489 181v121z" />
    <glyph glyph-name="equal" unicode="=" horiz-adv-x="850" 
d="M851 549v-170h-785v170h785zM851 268v-168h-785v168h785z" />
    <glyph glyph-name="greater" unicode="&#x3e;" horiz-adv-x="553" 
d="M552 268l-489 -181v130l314 112l-314 112v130l489 -182v-121z" />
    <glyph glyph-name="question" unicode="?" horiz-adv-x="383" 
d="M117 175v-175h-18v175h18zM153 175v-175h-18v175h18zM189 175v-175h-18v175h18zM225 175v-175h-18v175h18zM81 175v-175h-18v175h18zM63 758v18q53 15 100 15q95 0 162.5 -66.5t67.5 -160.5q0 -68 -37 -125q-34 -52 -89 -80q-42 -22 -42 -73v-66h-18v66q0 63 53 89
q50 25 81 74q34 53 34 115q0 87 -62 148t-150 61q-45 0 -100 -15zM63 720v19q53 16 100 16q81 0 137.5 -55.5t56.5 -135.5q0 -70 -46 -125q-33 -38 -59 -48q-15 -6 -35 -29q-28 -34 -28 -76v-66h-18v66q0 84 73 122q95 50 95 156q0 72 -51.5 122.5t-124.5 50.5
q-46 0 -100 -17zM63 683v19q54 17 100 17q66 0 112 -45t46 -110q0 -42 -23 -82t-61 -58q-27 -13 -50 -40q-34 -42 -34 -98v-66h-18v66q0 62 39 110q27 33 55 45q25 11 47 41q27 38 27 82q0 57 -41 97t-99 40q-52 0 -100 -18zM63 647v18q44 18 100 18q51 0 86.5 -34.5
t35.5 -84.5q0 -70 -64 -106q-34 -19 -60 -51q-44 -54 -44 -121v-66h-18v66q0 75 47 133q31 37 68 55q53 26 53 90q0 43 -30 72t-74 29q-58 0 -100 -18zM63 612v18q35 17 100 17q36 0 61 -24t25 -59q0 -27 -16 -50q-13 -19 -27 -25q-37 -16 -73 -59q-52 -63 -52 -144v-66h-18
v66q0 88 56 155q36 43 80 64q33 15 33 59q0 29 -20 47t-49 18q-61 0 -100 -17z" />
    <glyph glyph-name="at" unicode="@" horiz-adv-x="987" 
d="M616 178q-63 -103 -169 -102q-95 1 -143 80q-23 38 -23 97q0 78 33.5 145t90.5 110t120 48q33 3 66 -7q43 -13 63 -42q5 -5 18 -32l19 63h140l-68 -237q-25 -87 -25 -112q0 -52 60 -40q72 15 116 124q28 70 28 141q0 94 -50 165q-53 75 -162 109q-86 27 -170 23
q-223 -11 -343 -224q-52 -93 -52 -210q0 -108 45 -192q102 -190 347 -190q160 0 328 101l29 -43q-191 -121 -385 -121q-128 0 -239 56v-1q-113 56 -177.5 162.5t-64.5 232.5q0 243 205 390q135 97 329 97q119 0 210 -40v0q84 -37 138.5 -110t67.5 -163q3 -20 3 -43
q0 -77 -27 -151q-31 -87 -91 -134q-66 -52 -143 -52q-28 0 -52 9q-59 22 -72 93zM431 216q-1 -44 27 -63q13 -9 31 -9q17 0 32 9q44 21 81 120q28 74 34 129q6 50 -25 73q-25 19 -60 8q-49 -20 -88 -131q-31 -87 -32 -136z" />
    <glyph glyph-name="A" unicode="A" horiz-adv-x="819" 
d="M310 211l-8 -18h287l-7 18h-272zM323 247l-7 -18h259l-6 18h-246zM548 301l-102 259l-101 -259h203zM338 283l-7 -18h230l-6 18h-217zM604 158l-7 17h-301l-7 -17h315zM282 140l-55 -140h-19l306 782h20l305 -782h-20l-296 758l-9 -24l285 -734h-19l-276 708l-9 -24
l267 -684h-20l-257 660l-9 -25l248 -635h-20l-238 611l-9 -27l227 -584h-19l-54 140h-329zM494 782l-306 -782h-20l307 782h19zM456 782l-306 -782h-20l307 782h19zM418 782l-306 -782h-20l305 782h21zM377 782l-304 -782h-20l305 782h19z" />
    <glyph glyph-name="B" unicode="B" horiz-adv-x="514" 
d="M225 400v-18h41q50 0 85 -35t35 -85q0 -49 -35 -83.5t-85 -34.5h-41v-18h41q56 0 96.5 40t40.5 96t-40.5 97t-96.5 41h-41zM225 364v-202h41q42 0 72 29t30 71t-30 72t-72 30h-41zM422 537q0 64 -45.5 109.5t-110.5 45.5h-41v-18h41q57 0 97.5 -40.5t40.5 -96.5
q0 -50 -33 -88q-24 -29 -55 -40q47 -16 76.5 -56.5t29.5 -90.5q0 -64 -45.5 -109t-110.5 -45h-41v-18h41q72 0 122.5 50.5t50.5 121.5q0 98 -83 148q66 45 66 127zM458 537q0 79 -56.5 135t-135.5 56h-41v-18h41q73 0 123.5 -50.5t50.5 -122.5q0 -44 -22 -84
q-15 -28 -33 -42q73 -58 73 -149q0 -79 -56 -134.5t-136 -55.5h-41v-18h41q87 0 148.5 61t61.5 147q0 87 -65 150q47 57 47 125zM494 537q0 94 -66.5 160.5t-161.5 66.5h-41v-18h41q87 0 148.5 -61.5t61.5 -147.5q0 -60 -40 -124q57 -67 57 -151q0 -94 -66.5 -160
t-160.5 -66h-41v-18h41q102 0 174 71.5t72 172.5q0 87 -54 152q36 56 36 123zM225 621v-168h41q35 0 59.5 25t24.5 59t-25 59t-59 25h-41zM225 656v-18h41q42 0 72 -29.5t30 -71.5t-30 -71.5t-72 -29.5h-41v-18h41q50 0 85 35t35 84t-35 84t-85 35h-41zM479 415
q50 -69 50 -153q0 -109 -77 -185.5t-186 -76.5h-59v782h59q102 0 174 -72t72 -173q0 -64 -33 -122zM117 782v-782h-18v782h18zM153 782v-782h-18v782h18zM189 782v-782h-18v782h18zM81 782v-782h-18v782h18z" />
    <glyph glyph-name="C" unicode="C" horiz-adv-x="493" 
d="M494 625q-30 4 -48 4q-98 0 -168 -70t-70 -168t70 -168t168 -70q24 0 48 6v-19q-20 -5 -48 -5q-106 0 -181 75t-75 181q0 107 75 181.5t181 74.5q27 0 48 -4v-18zM494 661q-21 4 -48 4q-113 0 -193.5 -80.5t-80.5 -193.5t80.5 -193.5t193.5 -80.5q28 0 48 5v-18
q-20 -5 -48 -5q-121 0 -206.5 85.5t-85.5 206.5t85.5 206.5t206.5 85.5q27 0 48 -4v-18zM494 697q-19 4 -48 4q-128 0 -219 -91t-91 -219t91 -219t219 -91q27 0 48 4v-18q-21 -4 -48 -4q-136 0 -232 96t-96 232t96 232t232 96q24 0 48 -3v-19zM494 734q-24 3 -48 3
q-143 0 -244.5 -101.5t-101.5 -244.5t101.5 -244.5t244.5 -101.5q16 0 48 4v-18q-32 -4 -48 -4q-151 0 -257.5 106.5t-106.5 257.5t106.5 257.5t257.5 106.5q24 0 48 -3v-18zM494 770q-24 3 -48 3q-157 0 -269.5 -112t-112.5 -270q0 -157 112 -269t270 -112q24 0 48 3v-18
q-24 -3 -48 -3q-166 0 -282.5 116.5t-116.5 282.5t116.5 283t282.5 117q24 0 48 -3v-18z" />
    <glyph glyph-name="D" unicode="D" horiz-adv-x="601" 
d="M225 36v-18q155 3 264 111t109 262t-109 262t-264 111v-18q149 -3 252 -105t103 -250t-103 -250t-252 -105zM225 72v-18q141 3 239 100t98 237t-98 237t-239 100v-18q134 -3 226.5 -94.5t92.5 -224.5q0 -132 -93 -224t-226 -95zM225 108v-18q126 3 213.5 89.5t87.5 211.5
t-87.5 211.5t-213.5 89.5v-18q119 -3 201 -84t82 -199q0 -117 -82.5 -198.5t-200.5 -84.5zM225 144v-18q111 3 188 79t77 186t-77 186t-188 79v-18q105 -3 176.5 -73.5t71.5 -173.5t-72 -173.5t-176 -73.5zM225 621v-459q96 3 163 68.5t67 160.5t-67 160.5t-163 69.5z
M225 18zM207 0v782h18q164 0 277.5 -113.5t113.5 -277.5t-114.5 -277.5t-276.5 -113.5h-18zM117 782v-782h-18v782h18zM153 782v-782h-18v782h18zM189 782v-782h-18v782h18zM81 782v-782h-18v782h18z" />
    <glyph glyph-name="E" unicode="E" horiz-adv-x="513" 
d="M81 782v-782h-18v782h18zM189 782v-782h-18v782h18zM153 782v-782h-18v782h18zM117 782v-782h-18v782h18zM225 347v-18h217v-18h-217v-149h292v-18h-292v-18h292v-18h-292v-18h292v-18h-292v-18h292v-18h-292v-18h292v-18h-310v782h310v-18h-292v-18h292v-18h-292v-18
h292v-18h-292v-18h292v-18h-292v-18h292v-17h-292v-148h217v-18h-217v-18h217v-18h-217v-18h217v-18h-217v-18h217v-18h-217z" />
    <glyph glyph-name="F" unicode="F" horiz-adv-x="510" 
d="M81 782v-782h-18v782h18zM189 782v-782h-18v782h18zM153 782v-782h-18v782h18zM117 782v-782h-18v782h18zM225 347v-18h217v-18h-217v-311h-18v782h310v-18h-292v-18h292v-18h-292v-18h292v-18h-292v-18h292v-18h-292v-18h292v-17h-292v-148h217v-18h-217v-18h217v-18
h-217v-18h217v-18h-217v-18h217v-18h-217z" />
    <glyph glyph-name="G" unicode="G" horiz-adv-x="688" 
d="M526 382h18v-382h-18v3q-44 -11 -80 -11q-166 0 -282.5 116.5t-116.5 282.5t116.5 283t282.5 117q132 0 239 -80l-11 -14q-102 76 -228 76q-157 0 -269.5 -112t-112.5 -270q0 -157 112 -269t270 -112q20 0 80 12v19q-58 -14 -80 -14q-151 0 -257.5 106.5t-106.5 257.5
t106.5 257.5t257.5 106.5q121 0 218 -73l-11 -15q-91 70 -207 70q-143 0 -244.5 -101.5t-101.5 -244.5t101.5 -244.5t244.5 -101.5q25 0 80 16v19q-46 -17 -80 -17q-136 0 -232 96t-96 232t96 232t232 96q108 0 198 -67l-11 -14q-85 63 -187 63q-128 0 -219 -91t-91 -219
t91 -219t219 -91q31 0 80 20v23q-40 -25 -80 -25q-121 0 -206.5 85.5t-85.5 206.5t85.5 206.5t206.5 85.5q95 0 177 -59l-10 -15q-75 56 -167 56q-113 0 -193.5 -80.5t-80.5 -193.5t80.5 -193.5t193.5 -80.5q39 0 80 29v24q-31 -35 -80 -35q-106 0 -181 75t-75 181
q0 107 75 181.5t181 74.5q86 0 157 -53l-12 -16q-60 51 -145 51q-98 0 -168 -70t-70 -168t70 -168t168 -70q50 0 80 44v185zM580 382v-382h-18v382h18zM616 382v-382h-18v382h18zM652 382v-382h-18v382h18zM688 382v-382h-18v382h18z" />
    <glyph glyph-name="H" unicode="H" horiz-adv-x="695" 
d="M693 782v-782h-18v782h18zM658 782v-782h-18v782h18zM622 782v-782h-18v782h18zM586 782v-782h-18v782h18zM81 782v-782h-18v782h18zM189 782v-782h-18v782h18zM153 782v-782h-18v782h18zM117 782v-782h-18v782h18zM225 365h307v18h-307v-18zM225 329h307v18h-307v-18z
M532 473v309h18v-782h-18v311h-307v-311h-18v782h18v-309h307zM225 437h307v18h-307v-18zM532 401v18h-307v-18h307z" />
    <glyph glyph-name="I" unicode="I" horiz-adv-x="225" 
d="M117 782v-782h-18v782h18zM153 782v-782h-18v782h18zM189 782v-782h-18v782h18zM225 782v-782h-18v782h18zM81 782v-782h-18v782h18z" />
    <glyph glyph-name="J" unicode="J" horiz-adv-x="402" 
d="M294 199q0 -38 -27 -64.5t-65 -26.5h-139v18h139q30 0 52 21.5t22 51.5v583h18v-583zM366 199q0 -67 -48 -115t-116 -48h-139v18h139q60 0 103 42.5t43 102.5v583h18v-583zM240 199v583h18v-583q0 -23 -16.5 -39t-39.5 -16h-139v18h139q15 0 26.5 11t11.5 26zM384 199
v583h18v-583q0 -82 -58.5 -140.5t-141.5 -58.5h-139v18h139q75 0 128.5 53t53.5 128zM312 199v583h18v-583q0 -53 -37.5 -90t-90.5 -37h-139v18h139q45 0 77.5 32t32.5 77z" />
    <glyph glyph-name="K" unicode="K" horiz-adv-x="698" 
d="M304 504l202 278h23l-201 -278l11 -15l212 293h22l-223 -307l12 -15l233 322h22l-244 -337l11 -16l257 353h21l-267 -367l11 -15l278 382h22l-288 -397l289 -385h-21zM225 0h-18v782h18v-381l302 -401h-22l-280 371v-371zM249 428l323 -428h-22l-311 413zM272 460
l345 -460h-22l-335 444zM294 489l368 -489h-22l-358 474zM117 782v-782h-18v782h18zM153 782v-782h-18v782h18zM189 782v-782h-18v782h18zM81 782v-782h-18v782h18z" />
    <glyph glyph-name="L" unicode="L" horiz-adv-x="536" 
d="M81 782v-782h-18v782h18zM189 782v-782h-18v782h18zM153 782v-782h-18v782h18zM117 782v-782h-18v782h18zM225 162h319v-18h-319v-18h319v-18h-319v-18h319v-18h-319v-18h319v-18h-319v-18h319v-18h-337v782h18v-620z" />
    <glyph glyph-name="M" unicode="M" horiz-adv-x="1134" 
d="M668 0l226 521l-5 32l-239 -553h-20l254 585l-6 34l-267 -619h-21l282 654l-5 30l-298 -684h-19l312 719l-6 32l-325 -751h-20l-214 504l-85 -504h-17l88 535l-12 32l-96 -567h-16l99 595l-13 32l-105 -627h-18l110 659l-13 31l-116 -690h-17l120 719l-14 32l-125 -751
h-18l131 782h19l322 -761l10 21l-313 740h19l303 -716l10 22l-292 694h21l281 -670l11 24l-275 646h20l264 -623l10 22l-255 601h19l245 -579l252 579h18l131 -782h-18l-82 488l-212 -488h-20zM906 782l130 -782h-17l-131 782h18zM942 782l131 -782h-18l-131 782h18z
M978 782l131 -782h-18l-130 782h17zM1015 782l131 -782h-18l-131 782h18z" />
    <glyph glyph-name="N" unicode="N" horiz-adv-x="702" 
d="M209 782l450 -782h-21l-450 782h21zM168 782l450 -782h-22l-449 782h21zM126 782l450 -782h-21l-449 782h20zM593 187l18 -31v626h18v-657l18 -31v688h18v-720l18 -30v750h18v-782h-22l-450 782h20l290 -502v502h18v-533l18 -30v563h18v-595zM99 720l-18 32v-752h-18v782
h19l453 -782h-22l-288 501v-501h-18v532l-18 31v-563h-18v594l-18 32v-626h-18v658l-18 31v-689h-18v720z" />
    <glyph glyph-name="O" unicode="O" 
d="M446 -8q-166 0 -282.5 116.5t-116.5 282.5t116.5 283t282.5 117t283 -117t117 -283t-117 -282.5t-283 -116.5zM64 391q0 -157 112 -269t270 -112t270 112t112 269q0 158 -112 270t-270 112q-157 0 -269.5 -112t-112.5 -270zM446 27q-151 0 -257.5 106.5t-106.5 257.5
t106.5 257.5t257.5 106.5t257.5 -106.5t106.5 -257.5t-106.5 -257.5t-257.5 -106.5zM100 391q0 -143 101.5 -244.5t244.5 -101.5t244.5 101.5t101.5 244.5t-101.5 244.5t-244.5 101.5t-244.5 -101.5t-101.5 -244.5zM446 63q-136 0 -232 96t-96 232t96 232t232 96t232 -96
t96 -232t-96 -232t-232 -96zM136 391q0 -128 91 -219t219 -91t219 91t91 219t-91 219t-219 91t-219 -91t-91 -219zM446 99q-121 0 -206.5 85.5t-85.5 206.5t85.5 206.5t206.5 85.5t206.5 -85.5t85.5 -206.5t-85.5 -206.5t-206.5 -85.5zM172 391q0 -113 80.5 -193.5
t193.5 -80.5t193.5 80.5t80.5 193.5t-80.5 193.5t-193.5 80.5t-193.5 -80.5t-80.5 -193.5zM446 135q-106 0 -181 75t-75 181q0 107 75 181.5t181 74.5q107 0 181.5 -74.5t74.5 -181.5q0 -106 -74.5 -181t-181.5 -75zM208 391q0 -98 70 -168t168 -70t168 70t70 168t-70 168
t-168 70t-168 -70t-70 -168z" />
    <glyph glyph-name="P" unicode="P" horiz-adv-x="524" 
d="M117 782v-782h-18v782h18zM153 782v-782h-18v782h18zM189 782v-782h-18v782h18zM81 782v-782h-18v782h18zM225 764v-18h69q86 0 147.5 -61.5t61.5 -147.5t-61.5 -147.5t-147.5 -61.5h-69v-18h69q95 0 161 66.5t66 160.5q0 95 -66 161t-161 66h-69zM225 728v-18h69
q72 0 122.5 -51t50.5 -122t-51 -122t-122 -51h-69v-18h69q79 0 135 56t56 135t-56 135t-135 56h-69zM225 692v-18h69q57 0 97 -40.5t40 -96.5t-40.5 -96.5t-96.5 -40.5h-69v-18h69q64 0 109.5 45.5t45.5 109.5t-45.5 109.5t-109.5 45.5h-69zM225 656v-18h69q42 0 71.5 -29.5
t29.5 -71.5t-29.5 -71.5t-71.5 -29.5h-69v-18h69q49 0 84 35t35 84t-35 84t-84 35h-69zM225 621v-168h69q34 0 58.5 25t24.5 59t-24.5 59t-58.5 25h-69zM294 782q101 0 173 -72t72 -173t-72 -173t-173 -72h-69v-292h-18v782h87z" />
    <glyph glyph-name="Q" unicode="Q" 
d="M648 48q-81 -56 -202 -56q-166 0 -282.5 116.5t-116.5 282.5t116.5 283t282.5 117t283 -117t117 -283q0 -125 -78 -237l52 -61l-13 -12l-158 187q35 56 35 123q0 98 -70 168t-168 70t-168 -70t-70 -168t70 -168t168 -70q67 0 112 29l152 -181l-13 -12zM554 159
q-59 -24 -108 -24q-106 0 -181 75t-75 181q0 107 75 181.5t181 74.5q107 0 181.5 -74.5t74.5 -181.5q0 -66 -31 -121l13 -14q36 64 36 135q0 113 -80.5 193.5t-193.5 80.5t-193.5 -80.5t-80.5 -193.5t80.5 -193.5t193.5 -80.5q71 0 120 29zM577 131q-61 -32 -131 -32
q-121 0 -206.5 85.5t-85.5 206.5t85.5 206.5t206.5 85.5t206.5 -85.5t85.5 -206.5q0 -80 -42 -150l12 -15q48 70 48 165q0 128 -91 219t-219 91t-219 -91t-91 -219t91 -219t219 -91q82 0 144 36zM601 103q-73 -40 -155 -40q-136 0 -232 96t-96 232t96 232t232 96t232 -96
t96 -232q0 -102 -54 -179l13 -14q59 81 59 193q0 143 -101.5 244.5t-244.5 101.5t-244.5 -101.5t-101.5 -244.5t101.5 -244.5t244.5 -101.5q90 0 168 44zM626 75q-89 -48 -180 -48q-151 0 -257.5 106.5t-106.5 257.5t106.5 257.5t257.5 106.5t257.5 -106.5t106.5 -257.5
q0 -118 -66 -207l12 -15q72 100 72 222q0 158 -112 270t-270 112q-157 0 -269.5 -112t-112.5 -270q0 -157 112 -269t270 -112q107 0 190 50zM589 201l149 -178l-14 -11l-150 179zM615 225l150 -178l-13 -12l-149 176q6 6 12 14zM640 253l153 -183l-14 -12l-151 180
q4 6 12 15z" />
    <glyph glyph-name="R" unicode="R" horiz-adv-x="541" 
d="M271 430l174 -430h-19l-173 427q7 1 18 3zM307 441l177 -441h-20l-175 434q7 3 18 7zM338 456l185 -456h-20l-181 448q10 2 16 8zM431 323l130 -323h-19l-188 464q40 33 40 73q0 34 -24.5 59t-58.5 25h-86v-195h10l171 -426h-19l-162 401v-401h-18v782h104q101 0 173 -72
t72 -173q0 -83 -51 -149q-35 -46 -74 -65zM424 339q114 68 114 198q0 95 -66 161t-161 66h-86v-18h86q86 0 147.5 -61.5t61.5 -147.5q0 -118 -102 -180zM410 373q92 61 92 164q0 79 -56.5 135t-134.5 56h-86v-18h86q72 0 122.5 -51t50.5 -122q0 -94 -80 -146zM396 407
q70 48 70 130q0 64 -45.5 109.5t-109.5 45.5h-86v-18h86q57 0 97 -40.5t40 -96.5q0 -70 -58 -112zM383 442q47 36 47 95q0 49 -35 84t-84 35h-86v-18h86q42 0 71.5 -29.5t29.5 -71.5q0 -53 -36 -77zM117 782v-782h-18v782h18zM153 782v-782h-18v782h18zM189 782v-782h-18
v782h18zM81 782v-782h-18v782h18z" />
    <glyph glyph-name="S" unicode="S" horiz-adv-x="489" 
d="M481 636q-25 61 -79.5 99t-121.5 38q-88 0 -152 -63.5t-64 -152.5q0 -84 56.5 -144.5t139.5 -68.5q44 -4 72 -33.5t28 -71.5q0 -43 -30 -73.5t-73 -30.5q-64 0 -93 60l15 9q21 -51 78 -51q35 0 60 25.5t25 60.5q0 34 -24 59t-58 28q-89 7 -151 73.5t-62 157.5
q0 97 68 165.5t165 68.5q72 0 130.5 -40.5t85.5 -104.5zM418 600q-14 45 -52 73t-86 28q-59 0 -101.5 -42.5t-42.5 -101.5q0 -56 38 -97t93 -46q72 -6 118.5 -55.5t46.5 -119.5q0 -72 -51.5 -124t-123.5 -52q-49 0 -90 24.5t-63 65.5l15 10q45 -82 138 -82q65 0 111 46.5
t46 111.5q0 62 -43.5 107.5t-105 50.5t-104 51t-42.5 109q0 67 47 114.5t114 47.5q52 0 93.5 -31t58.5 -79zM351 561q-2 28 -22.5 48t-48.5 20q-29 0 -50 -21.5t-21 -50.5t19.5 -49.5t47.5 -22.5q93 -7 159 -75q69 -72 69 -171q0 -102 -72.5 -174.5t-174.5 -72.5
q-66 0 -122.5 32.5t-90.5 87.5l16 10q66 -112 197 -112q95 0 162 67t67 162q0 93 -62 157t-150 72q-37 3 -60.5 28t-23.5 61q0 38 26.5 64t63.5 26q33 0 58.5 -22t30.5 -53zM385 581q-7 36 -37 60t-68 24q-44 0 -76 -32t-32 -76q0 -42 28.5 -72.5t71.5 -34.5
q81 -7 138.5 -66.5t57.5 -144.5q0 -87 -62 -149.5t-149 -62.5q-117 0 -183 105l15 11q25 -44 70 -71t98 -27q80 0 136.5 57t56.5 137q0 77 -51 131.5t-129 61.5q-48 5 -81.5 41t-33.5 84q0 52 36.5 89t88.5 37q43 0 76.5 -26t44.5 -67zM449 617q-18 53 -65 86.5t-104 33.5
q-74 0 -127 -53t-53 -127q0 -70 47.5 -121t115.5 -57q56 -5 94.5 -44.5t38.5 -95.5q0 -58 -40.5 -99t-98.5 -41q-86 0 -123 74l15 11q34 -67 108 -67q50 0 85.5 36t35.5 86q0 48 -33.5 83.5t-82.5 39.5q-75 6 -126.5 62t-51.5 133q0 82 57 140t139 58q63 0 113 -35.5
t71 -92.5z" />
    <glyph glyph-name="T" unicode="T" horiz-adv-x="531" 
d="M55 782h478v-18h-478v18zM55 746h478v-18h-478v18zM55 710h478v-18h-478v18zM55 674h478v-18h-478v18zM249 621h-17v-621h-18v621h-159v17h478v-17h-158v-621h-18v621h-18v-621h-18v621h-18v-621h-18v621h-18v-621h-18v621z" />
    <glyph glyph-name="U" unicode="U" horiz-adv-x="641" 
d="M641 280q0 -119 -84.5 -203.5t-204.5 -84.5t-204.5 84.5t-84.5 203.5v502h18v-502q0 -112 79.5 -191t191.5 -79t191.5 79t79.5 191v502h18v-502zM605 280q0 -104 -74 -178.5t-179 -74.5t-179 74.5t-74 178.5v502h18v-502q0 -97 69 -166t166 -69q98 0 166.5 69t68.5 166
v502h18v-502zM569 280q0 -89 -64 -153t-153 -64t-153 64t-64 153v502h18v-502q0 -82 58 -140.5t141 -58.5q82 0 140.5 58.5t58.5 140.5v502h18v-502zM533 280q0 -74 -53.5 -127.5t-127.5 -53.5t-127.5 53.5t-53.5 127.5v502h18v-502q0 -67 48 -115t115 -48q68 0 115.5 48
t47.5 115v502h18v-502zM497 280q0 -60 -42.5 -102.5t-102.5 -42.5t-102.5 42.5t-42.5 102.5v502h18v-502q0 -52 37.5 -89.5t89.5 -37.5q53 0 90 37.5t37 89.5v502h18v-502z" />
    <glyph glyph-name="V" unicode="V" horiz-adv-x="768" 
d="M439 156l9 -25l236 651h19l-245 -677l9 -27l255 704h19l-264 -731l9 -26l275 757h19l-284 -782h-19l-282 782h19l196 -545l197 545h20l-207 -573l9 -25l216 598h19zM99 782l283 -782h-19l-283 782h19zM137 782l284 -782h-19l-285 782h20zM175 782l284 -782h-20l-283 782
h19zM61 782l283 -782h-19l-283 782h19z" />
    <glyph glyph-name="W" unicode="W" horiz-adv-x="1191" 
d="M174 782l223 -782h-18l-225 782h20zM549 782h19l-200 -545l8 -31l211 576h20l-222 -604l8 -29l233 633h19l-243 -663l8 -29l253 692h20l-264 -723l8 -29l275 752h19l174 -511l145 511h19l-153 -542l10 -31l161 573h19l-169 -602l10 -30l178 632h18l-186 -661l10 -30
l195 691h19l-204 -723l11 -29l212 752h18l-220 -782h-19l-258 754l-9 -26l247 -728h-19l-239 699l-9 -27l230 -672h-19l-221 647l-10 -26l212 -621h-20l-202 592l-9 -26l192 -566h-19l-184 539l-196 -539h-18l-226 782h19l148 -516zM136 782l226 -782h-20l-224 782h18z
M99 782l224 -782h-19l-224 782h19zM61 782l225 -782h-19l-224 782h18z" />
    <glyph glyph-name="X" unicode="X" horiz-adv-x="668" 
d="M396 499l11 -18l170 301h21l-180 -319l9 -19l191 338h20l-200 -356l10 -19l212 375h21l-222 -392l220 -390h-21l-443 782h22l129 -228l129 228h21l-140 -246l10 -19l150 265h21zM334 280l-9 18l-170 -298h-21l180 316l-11 18l-190 -334h-20l200 353l-10 18l-210 -371h-21
l221 390l-223 392h21l442 -782h-19l-129 226l-128 -226h-19l137 243l-10 19l-148 -262h-22zM112 782l443 -782h-21l-442 782h20zM153 782l443 -782h-21l-443 782h21zM195 782l442 -782h-20l-444 782h22z" />
    <glyph glyph-name="Y" unicode="Y" horiz-adv-x="690" 
d="M441 281l-241 501h19l159 -332l159 332h19l-169 -352l9 -18l179 370h19l-189 -389l9 -19l198 408h19l-208 -427l9 -18l218 445h19l-228 -464l9 -18l239 482h19l-249 -501v-281h-18v281zM423 0h-18v281l-243 501h19l242 -501v-281zM387 0h-18v281l-244 501h19l243 -501
v-281zM351 0h-18v281l-246 501h19l245 -501v-281zM315 0h-18v281l-249 501h19l248 -501v-281z" />
    <glyph glyph-name="Z" unicode="Z" horiz-adv-x="618" 
d="M59 782h549l-9 -18h-540v18zM59 746h532l-9 -18h-523v18zM59 710h514l-9 -18h-505v18zM59 674h497l-9 -18h-488v18zM510 621h-21l-302 -621h-20l302 621h-19l-303 -621h-19l302 621h-20l-303 -621h-20l302 621h-19l-302 -621h-20l302 621h-291v17h479l-233 -476h313v-18
h-321l-8 -18h329v-18h-338l-8 -18h346v-18h-356l-8 -18h364v-18h-373l-8 -18h381v-18h-411z" />
    <glyph glyph-name="bracketleft" unicode="[" horiz-adv-x="267" 
d="M117 782v-925h-18v925h18zM81 782v-925h-18v925h18zM153 -89h112v-18h-112v-18h112v-18h-130v925h130v-18h-112v-18h112v-18h-112v-817z" />
    <glyph glyph-name="backslash" unicode="\" horiz-adv-x="434" 
d="M149 784l287 -787h-20l-286 787h19zM73 784l286 -787h-19l-286 787h19zM111 784l286 -787h-19l-286 787h19z" />
    <glyph glyph-name="bracketright" unicode="]" horiz-adv-x="267" 
d="M265 782v-925h-18v925h18zM175 728h-112v18h112v18h-112v18h130v-925h-130v18h112v18h-112v18h112v817zM229 782v-925h-18v925h18z" />
    <glyph glyph-name="asciicircum" unicode="^" horiz-adv-x="458" 
d="M225 974l-139 -140h-26l140 140h25zM276 974l-139 -140h-25l139 140h25zM289 936l-13 -13l88 -89h-26l-75 76l-75 -76h-25l138 140h26l139 -140h-25l-127 127l-13 -13l113 -114h-25z" />
    <glyph glyph-name="underscore" unicode="_" horiz-adv-x="588" 
d="M663 -146h-601v70h601v-70z" />
    <glyph glyph-name="grave" unicode="`" horiz-adv-x="326" 
d="M140 974l138 -140h-25l-139 140h26zM190 974l140 -140h-26l-139 140h25zM89 974l138 -140h-25l-139 140h26z" />
    <glyph glyph-name="a" unicode="a" horiz-adv-x="819" 
d="M310 211l-8 -18h287l-7 18h-272zM323 247l-7 -18h259l-6 18h-246zM548 301l-102 259l-101 -259h203zM338 283l-7 -18h230l-6 18h-217zM604 158l-7 17h-301l-7 -17h315zM282 140l-55 -140h-19l306 782h20l305 -782h-20l-296 758l-9 -24l285 -734h-19l-276 708l-9 -24
l267 -684h-20l-257 660l-9 -25l248 -635h-20l-238 611l-9 -27l227 -584h-19l-54 140h-329zM494 782l-306 -782h-20l307 782h19zM456 782l-306 -782h-20l307 782h19zM418 782l-306 -782h-20l305 782h21zM377 782l-304 -782h-20l305 782h19z" />
    <glyph glyph-name="b" unicode="b" horiz-adv-x="514" 
d="M225 400v-18h41q50 0 85 -35t35 -85q0 -49 -35 -83.5t-85 -34.5h-41v-18h41q56 0 96.5 40t40.5 96t-40.5 97t-96.5 41h-41zM225 364v-202h41q42 0 72 29t30 71t-30 72t-72 30h-41zM422 537q0 64 -45.5 109.5t-110.5 45.5h-41v-18h41q57 0 97.5 -40.5t40.5 -96.5
q0 -50 -33 -88q-24 -29 -55 -40q47 -16 76.5 -56.5t29.5 -90.5q0 -64 -45.5 -109t-110.5 -45h-41v-18h41q72 0 122.5 50.5t50.5 121.5q0 98 -83 148q66 45 66 127zM458 537q0 79 -56.5 135t-135.5 56h-41v-18h41q73 0 123.5 -50.5t50.5 -122.5q0 -44 -22 -84
q-15 -28 -33 -42q73 -58 73 -149q0 -79 -56 -134.5t-136 -55.5h-41v-18h41q87 0 148.5 61t61.5 147q0 87 -65 150q47 57 47 125zM494 537q0 94 -66.5 160.5t-161.5 66.5h-41v-18h41q87 0 148.5 -61.5t61.5 -147.5q0 -60 -40 -124q57 -67 57 -151q0 -94 -66.5 -160
t-160.5 -66h-41v-18h41q102 0 174 71.5t72 172.5q0 87 -54 152q36 56 36 123zM225 621v-168h41q35 0 59.5 25t24.5 59t-25 59t-59 25h-41zM225 656v-18h41q42 0 72 -29.5t30 -71.5t-30 -71.5t-72 -29.5h-41v-18h41q50 0 85 35t35 84t-35 84t-85 35h-41zM479 415
q50 -69 50 -153q0 -109 -77 -185.5t-186 -76.5h-59v782h59q102 0 174 -72t72 -173q0 -64 -33 -122zM117 782v-782h-18v782h18zM153 782v-782h-18v782h18zM189 782v-782h-18v782h18zM81 782v-782h-18v782h18z" />
    <glyph glyph-name="c" unicode="c" horiz-adv-x="493" 
d="M494 625q-30 4 -48 4q-98 0 -168 -70t-70 -168t70 -168t168 -70q24 0 48 6v-19q-20 -5 -48 -5q-106 0 -181 75t-75 181q0 107 75 181.5t181 74.5q27 0 48 -4v-18zM494 661q-21 4 -48 4q-113 0 -193.5 -80.5t-80.5 -193.5t80.5 -193.5t193.5 -80.5q28 0 48 5v-18
q-20 -5 -48 -5q-121 0 -206.5 85.5t-85.5 206.5t85.5 206.5t206.5 85.5q27 0 48 -4v-18zM494 697q-19 4 -48 4q-128 0 -219 -91t-91 -219t91 -219t219 -91q27 0 48 4v-18q-21 -4 -48 -4q-136 0 -232 96t-96 232t96 232t232 96q24 0 48 -3v-19zM494 734q-24 3 -48 3
q-143 0 -244.5 -101.5t-101.5 -244.5t101.5 -244.5t244.5 -101.5q16 0 48 4v-18q-32 -4 -48 -4q-151 0 -257.5 106.5t-106.5 257.5t106.5 257.5t257.5 106.5q24 0 48 -3v-18zM494 770q-24 3 -48 3q-157 0 -269.5 -112t-112.5 -270q0 -157 112 -269t270 -112q24 0 48 3v-18
q-24 -3 -48 -3q-166 0 -282.5 116.5t-116.5 282.5t116.5 283t282.5 117q24 0 48 -3v-18z" />
    <glyph glyph-name="d" unicode="d" horiz-adv-x="601" 
d="M225 36v-18q155 3 264 111t109 262t-109 262t-264 111v-18q149 -3 252 -105t103 -250t-103 -250t-252 -105zM225 72v-18q141 3 239 100t98 237t-98 237t-239 100v-18q134 -3 226.5 -94.5t92.5 -224.5q0 -132 -93 -224t-226 -95zM225 108v-18q126 3 213.5 89.5t87.5 211.5
t-87.5 211.5t-213.5 89.5v-18q119 -3 201 -84t82 -199q0 -117 -82.5 -198.5t-200.5 -84.5zM225 144v-18q111 3 188 79t77 186t-77 186t-188 79v-18q105 -3 176.5 -73.5t71.5 -173.5t-72 -173.5t-176 -73.5zM225 621v-459q96 3 163 68.5t67 160.5t-67 160.5t-163 69.5z
M225 18zM207 0v782h18q164 0 277.5 -113.5t113.5 -277.5t-114.5 -277.5t-276.5 -113.5h-18zM117 782v-782h-18v782h18zM153 782v-782h-18v782h18zM189 782v-782h-18v782h18zM81 782v-782h-18v782h18z" />
    <glyph glyph-name="e" unicode="e" horiz-adv-x="513" 
d="M81 782v-782h-18v782h18zM189 782v-782h-18v782h18zM153 782v-782h-18v782h18zM117 782v-782h-18v782h18zM225 347v-18h217v-18h-217v-149h292v-18h-292v-18h292v-18h-292v-18h292v-18h-292v-18h292v-18h-292v-18h292v-18h-310v782h310v-18h-292v-18h292v-18h-292v-18
h292v-18h-292v-18h292v-18h-292v-18h292v-17h-292v-148h217v-18h-217v-18h217v-18h-217v-18h217v-18h-217v-18h217v-18h-217z" />
    <glyph glyph-name="f" unicode="f" horiz-adv-x="510" 
d="M81 782v-782h-18v782h18zM189 782v-782h-18v782h18zM153 782v-782h-18v782h18zM117 782v-782h-18v782h18zM225 347v-18h217v-18h-217v-311h-18v782h310v-18h-292v-18h292v-18h-292v-18h292v-18h-292v-18h292v-18h-292v-18h292v-17h-292v-148h217v-18h-217v-18h217v-18
h-217v-18h217v-18h-217v-18h217v-18h-217z" />
    <glyph glyph-name="g" unicode="g" horiz-adv-x="688" 
d="M526 382h18v-382h-18v3q-44 -11 -80 -11q-166 0 -282.5 116.5t-116.5 282.5t116.5 283t282.5 117q132 0 239 -80l-11 -14q-102 76 -228 76q-157 0 -269.5 -112t-112.5 -270q0 -157 112 -269t270 -112q20 0 80 12v19q-58 -14 -80 -14q-151 0 -257.5 106.5t-106.5 257.5
t106.5 257.5t257.5 106.5q121 0 218 -73l-11 -15q-91 70 -207 70q-143 0 -244.5 -101.5t-101.5 -244.5t101.5 -244.5t244.5 -101.5q25 0 80 16v19q-46 -17 -80 -17q-136 0 -232 96t-96 232t96 232t232 96q108 0 198 -67l-11 -14q-85 63 -187 63q-128 0 -219 -91t-91 -219
t91 -219t219 -91q31 0 80 20v23q-40 -25 -80 -25q-121 0 -206.5 85.5t-85.5 206.5t85.5 206.5t206.5 85.5q95 0 177 -59l-10 -15q-75 56 -167 56q-113 0 -193.5 -80.5t-80.5 -193.5t80.5 -193.5t193.5 -80.5q39 0 80 29v24q-31 -35 -80 -35q-106 0 -181 75t-75 181
q0 107 75 181.5t181 74.5q86 0 157 -53l-12 -16q-60 51 -145 51q-98 0 -168 -70t-70 -168t70 -168t168 -70q50 0 80 44v185zM580 382v-382h-18v382h18zM616 382v-382h-18v382h18zM652 382v-382h-18v382h18zM688 382v-382h-18v382h18z" />
    <glyph glyph-name="h" unicode="h" horiz-adv-x="695" 
d="M693 782v-782h-18v782h18zM658 782v-782h-18v782h18zM622 782v-782h-18v782h18zM586 782v-782h-18v782h18zM81 782v-782h-18v782h18zM189 782v-782h-18v782h18zM153 782v-782h-18v782h18zM117 782v-782h-18v782h18zM225 365h307v18h-307v-18zM225 329h307v18h-307v-18z
M532 473v309h18v-782h-18v311h-307v-311h-18v782h18v-309h307zM225 437h307v18h-307v-18zM532 401v18h-307v-18h307z" />
    <glyph glyph-name="i" unicode="i" horiz-adv-x="225" 
d="M117 782v-782h-18v782h18zM153 782v-782h-18v782h18zM189 782v-782h-18v782h18zM225 782v-782h-18v782h18zM81 782v-782h-18v782h18z" />
    <glyph glyph-name="j" unicode="j" horiz-adv-x="402" 
d="M294 199q0 -38 -27 -64.5t-65 -26.5h-139v18h139q30 0 52 21.5t22 51.5v583h18v-583zM366 199q0 -67 -48 -115t-116 -48h-139v18h139q60 0 103 42.5t43 102.5v583h18v-583zM240 199v583h18v-583q0 -23 -16.5 -39t-39.5 -16h-139v18h139q15 0 26.5 11t11.5 26zM384 199
v583h18v-583q0 -82 -58.5 -140.5t-141.5 -58.5h-139v18h139q75 0 128.5 53t53.5 128zM312 199v583h18v-583q0 -53 -37.5 -90t-90.5 -37h-139v18h139q45 0 77.5 32t32.5 77z" />
    <glyph glyph-name="k" unicode="k" horiz-adv-x="698" 
d="M304 504l202 278h23l-201 -278l11 -15l212 293h22l-223 -307l12 -15l233 322h22l-244 -337l11 -16l257 353h21l-267 -367l11 -15l278 382h22l-288 -397l289 -385h-21zM225 0h-18v782h18v-381l302 -401h-22l-280 371v-371zM249 428l323 -428h-22l-311 413zM272 460
l345 -460h-22l-335 444zM294 489l368 -489h-22l-358 474zM117 782v-782h-18v782h18zM153 782v-782h-18v782h18zM189 782v-782h-18v782h18zM81 782v-782h-18v782h18z" />
    <glyph glyph-name="l" unicode="l" horiz-adv-x="536" 
d="M81 782v-782h-18v782h18zM189 782v-782h-18v782h18zM153 782v-782h-18v782h18zM117 782v-782h-18v782h18zM225 162h319v-18h-319v-18h319v-18h-319v-18h319v-18h-319v-18h319v-18h-319v-18h319v-18h-337v782h18v-620z" />
    <glyph glyph-name="m" unicode="m" horiz-adv-x="1134" 
d="M668 0l226 521l-5 32l-239 -553h-20l254 585l-6 34l-267 -619h-21l282 654l-5 30l-298 -684h-19l312 719l-6 32l-325 -751h-20l-214 504l-85 -504h-17l88 535l-12 32l-96 -567h-16l99 595l-13 32l-105 -627h-18l110 659l-13 31l-116 -690h-17l120 719l-14 32l-125 -751
h-18l131 782h19l322 -761l10 21l-313 740h19l303 -716l10 22l-292 694h21l281 -670l11 24l-275 646h20l264 -623l10 22l-255 601h19l245 -579l252 579h18l131 -782h-18l-82 488l-212 -488h-20zM906 782l130 -782h-17l-131 782h18zM942 782l131 -782h-18l-131 782h18z
M978 782l131 -782h-18l-130 782h17zM1015 782l131 -782h-18l-131 782h18z" />
    <glyph glyph-name="n" unicode="n" horiz-adv-x="702" 
d="M209 782l450 -782h-21l-450 782h21zM168 782l450 -782h-22l-449 782h21zM126 782l450 -782h-21l-449 782h20zM593 187l18 -31v626h18v-657l18 -31v688h18v-720l18 -30v750h18v-782h-22l-450 782h20l290 -502v502h18v-533l18 -30v563h18v-595zM99 720l-18 32v-752h-18v782
h19l453 -782h-22l-288 501v-501h-18v532l-18 31v-563h-18v594l-18 32v-626h-18v658l-18 31v-689h-18v720z" />
    <glyph glyph-name="o" unicode="o" 
d="M446 -8q-166 0 -282.5 116.5t-116.5 282.5t116.5 283t282.5 117t283 -117t117 -283t-117 -282.5t-283 -116.5zM64 391q0 -157 112 -269t270 -112t270 112t112 269q0 158 -112 270t-270 112q-157 0 -269.5 -112t-112.5 -270zM446 27q-151 0 -257.5 106.5t-106.5 257.5
t106.5 257.5t257.5 106.5t257.5 -106.5t106.5 -257.5t-106.5 -257.5t-257.5 -106.5zM100 391q0 -143 101.5 -244.5t244.5 -101.5t244.5 101.5t101.5 244.5t-101.5 244.5t-244.5 101.5t-244.5 -101.5t-101.5 -244.5zM446 63q-136 0 -232 96t-96 232t96 232t232 96t232 -96
t96 -232t-96 -232t-232 -96zM136 391q0 -128 91 -219t219 -91t219 91t91 219t-91 219t-219 91t-219 -91t-91 -219zM446 99q-121 0 -206.5 85.5t-85.5 206.5t85.5 206.5t206.5 85.5t206.5 -85.5t85.5 -206.5t-85.5 -206.5t-206.5 -85.5zM172 391q0 -113 80.5 -193.5
t193.5 -80.5t193.5 80.5t80.5 193.5t-80.5 193.5t-193.5 80.5t-193.5 -80.5t-80.5 -193.5zM446 135q-106 0 -181 75t-75 181q0 107 75 181.5t181 74.5q107 0 181.5 -74.5t74.5 -181.5q0 -106 -74.5 -181t-181.5 -75zM208 391q0 -98 70 -168t168 -70t168 70t70 168t-70 168
t-168 70t-168 -70t-70 -168z" />
    <glyph glyph-name="p" unicode="p" horiz-adv-x="524" 
d="M117 782v-782h-18v782h18zM153 782v-782h-18v782h18zM189 782v-782h-18v782h18zM81 782v-782h-18v782h18zM225 764v-18h69q86 0 147.5 -61.5t61.5 -147.5t-61.5 -147.5t-147.5 -61.5h-69v-18h69q95 0 161 66.5t66 160.5q0 95 -66 161t-161 66h-69zM225 728v-18h69
q72 0 122.5 -51t50.5 -122t-51 -122t-122 -51h-69v-18h69q79 0 135 56t56 135t-56 135t-135 56h-69zM225 692v-18h69q57 0 97 -40.5t40 -96.5t-40.5 -96.5t-96.5 -40.5h-69v-18h69q64 0 109.5 45.5t45.5 109.5t-45.5 109.5t-109.5 45.5h-69zM225 656v-18h69q42 0 71.5 -29.5
t29.5 -71.5t-29.5 -71.5t-71.5 -29.5h-69v-18h69q49 0 84 35t35 84t-35 84t-84 35h-69zM225 621v-168h69q34 0 58.5 25t24.5 59t-24.5 59t-58.5 25h-69zM294 782q101 0 173 -72t72 -173t-72 -173t-173 -72h-69v-292h-18v782h87z" />
    <glyph glyph-name="q" unicode="q" 
d="M648 48q-81 -56 -202 -56q-166 0 -282.5 116.5t-116.5 282.5t116.5 283t282.5 117t283 -117t117 -283q0 -125 -78 -237l52 -61l-13 -12l-158 187q35 56 35 123q0 98 -70 168t-168 70t-168 -70t-70 -168t70 -168t168 -70q67 0 112 29l152 -181l-13 -12zM554 159
q-59 -24 -108 -24q-106 0 -181 75t-75 181q0 107 75 181.5t181 74.5q107 0 181.5 -74.5t74.5 -181.5q0 -66 -31 -121l13 -14q36 64 36 135q0 113 -80.5 193.5t-193.5 80.5t-193.5 -80.5t-80.5 -193.5t80.5 -193.5t193.5 -80.5q71 0 120 29zM577 131q-61 -32 -131 -32
q-121 0 -206.5 85.5t-85.5 206.5t85.5 206.5t206.5 85.5t206.5 -85.5t85.5 -206.5q0 -80 -42 -150l12 -15q48 70 48 165q0 128 -91 219t-219 91t-219 -91t-91 -219t91 -219t219 -91q82 0 144 36zM601 103q-73 -40 -155 -40q-136 0 -232 96t-96 232t96 232t232 96t232 -96
t96 -232q0 -102 -54 -179l13 -14q59 81 59 193q0 143 -101.5 244.5t-244.5 101.5t-244.5 -101.5t-101.5 -244.5t101.5 -244.5t244.5 -101.5q90 0 168 44zM626 75q-89 -48 -180 -48q-151 0 -257.5 106.5t-106.5 257.5t106.5 257.5t257.5 106.5t257.5 -106.5t106.5 -257.5
q0 -118 -66 -207l12 -15q72 100 72 222q0 158 -112 270t-270 112q-157 0 -269.5 -112t-112.5 -270q0 -157 112 -269t270 -112q107 0 190 50zM589 201l149 -178l-14 -11l-150 179zM615 225l150 -178l-13 -12l-149 176q6 6 12 14zM640 253l153 -183l-14 -12l-151 180
q4 6 12 15z" />
    <glyph glyph-name="r" unicode="r" horiz-adv-x="541" 
d="M271 430l174 -430h-19l-173 427q7 1 18 3zM307 441l177 -441h-20l-175 434q7 3 18 7zM338 456l185 -456h-20l-181 448q10 2 16 8zM431 323l130 -323h-19l-188 464q40 33 40 73q0 34 -24.5 59t-58.5 25h-86v-195h10l171 -426h-19l-162 401v-401h-18v782h104q101 0 173 -72
t72 -173q0 -83 -51 -149q-35 -46 -74 -65zM424 339q114 68 114 198q0 95 -66 161t-161 66h-86v-18h86q86 0 147.5 -61.5t61.5 -147.5q0 -118 -102 -180zM410 373q92 61 92 164q0 79 -56.5 135t-134.5 56h-86v-18h86q72 0 122.5 -51t50.5 -122q0 -94 -80 -146zM396 407
q70 48 70 130q0 64 -45.5 109.5t-109.5 45.5h-86v-18h86q57 0 97 -40.5t40 -96.5q0 -70 -58 -112zM383 442q47 36 47 95q0 49 -35 84t-84 35h-86v-18h86q42 0 71.5 -29.5t29.5 -71.5q0 -53 -36 -77zM117 782v-782h-18v782h18zM153 782v-782h-18v782h18zM189 782v-782h-18
v782h18zM81 782v-782h-18v782h18z" />
    <glyph glyph-name="s" unicode="s" horiz-adv-x="489" 
d="M481 636q-25 61 -79.5 99t-121.5 38q-88 0 -152 -63.5t-64 -152.5q0 -84 56.5 -144.5t139.5 -68.5q44 -4 72 -33.5t28 -71.5q0 -43 -30 -73.5t-73 -30.5q-64 0 -93 60l15 9q21 -51 78 -51q35 0 60 25.5t25 60.5q0 34 -24 59t-58 28q-89 7 -151 73.5t-62 157.5
q0 97 68 165.5t165 68.5q72 0 130.5 -40.5t85.5 -104.5zM418 600q-14 45 -52 73t-86 28q-59 0 -101.5 -42.5t-42.5 -101.5q0 -56 38 -97t93 -46q72 -6 118.5 -55.5t46.5 -119.5q0 -72 -51.5 -124t-123.5 -52q-49 0 -90 24.5t-63 65.5l15 10q45 -82 138 -82q65 0 111 46.5
t46 111.5q0 62 -43.5 107.5t-104.5 50.5t-104 51t-43 109q0 67 47 114.5t114 47.5q52 0 93.5 -31t58.5 -79zM351 561q-2 28 -22.5 48t-48.5 20q-29 0 -50 -21.5t-21 -50.5t19.5 -49.5t47.5 -22.5q93 -7 159 -75q69 -72 69 -171q0 -102 -72.5 -174.5t-174.5 -72.5
q-66 0 -122.5 32.5t-90.5 87.5l16 10q66 -112 197 -112q95 0 162 67t67 162q0 93 -62 157t-150 72q-37 3 -60.5 28t-23.5 61q0 38 26.5 64t63.5 26q33 0 58.5 -22t30.5 -53zM385 581q-7 36 -37 60t-68 24q-44 0 -76 -32t-32 -76q0 -42 28.5 -72.5t71.5 -34.5
q81 -7 138.5 -66.5t57.5 -144.5q0 -87 -62 -149.5t-149 -62.5q-117 0 -183 105l15 11q25 -44 70 -71t98 -27q80 0 136.5 57t56.5 137q0 77 -51 131.5t-129 61.5q-48 5 -81.5 41t-33.5 84q0 52 36.5 89t88.5 37q43 0 76.5 -26t44.5 -67zM449 617q-18 53 -65 86.5t-104 33.5
q-74 0 -127 -53t-53 -127q0 -70 47.5 -121t115.5 -57q56 -5 94.5 -44.5t38.5 -95.5q0 -58 -40.5 -99t-98.5 -41q-86 0 -123 74l15 11q34 -67 108 -67q50 0 85.5 36t35.5 86q0 48 -33.5 83.5t-82.5 39.5q-75 6 -126.5 62t-51.5 133q0 82 57 140t139 58q63 0 113 -35.5
t71 -92.5z" />
    <glyph glyph-name="t" unicode="t" horiz-adv-x="531" 
d="M55 782h478v-18h-478v18zM55 746h478v-18h-478v18zM55 710h478v-18h-478v18zM55 674h478v-18h-478v18zM249 621h-17v-621h-18v621h-159v17h478v-17h-158v-621h-18v621h-18v-621h-18v621h-18v-621h-18v621h-18v-621h-18v621z" />
    <glyph glyph-name="u" unicode="u" horiz-adv-x="641" 
d="M641 280q0 -119 -84.5 -203.5t-204.5 -84.5t-204.5 84.5t-84.5 203.5v502h18v-502q0 -112 79.5 -191t191.5 -79t191.5 79t79.5 191v502h18v-502zM605 280q0 -104 -74 -178.5t-179 -74.5t-179 74.5t-74 178.5v502h18v-502q0 -97 69 -166t166 -69q98 0 166.5 69t68.5 166
v502h18v-502zM569 280q0 -89 -64 -153t-153 -64t-153 64t-64 153v502h18v-502q0 -82 58 -140.5t141 -58.5q82 0 140.5 58.5t58.5 140.5v502h18v-502zM533 280q0 -74 -53.5 -127.5t-127.5 -53.5t-127.5 53.5t-53.5 127.5v502h18v-502q0 -67 48 -115t115 -48q68 0 115.5 48
t47.5 115v502h18v-502zM497 280q0 -60 -42.5 -102.5t-102.5 -42.5t-102.5 42.5t-42.5 102.5v502h18v-502q0 -52 37.5 -89.5t89.5 -37.5q53 0 90 37.5t37 89.5v502h18v-502z" />
    <glyph glyph-name="v" unicode="v" horiz-adv-x="768" 
d="M439 156l9 -25l236 651h19l-245 -677l9 -27l255 704h19l-264 -731l9 -26l275 757h19l-284 -782h-19l-282 782h19l196 -545l197 545h20l-207 -573l9 -25l216 598h19zM99 782l283 -782h-19l-283 782h19zM137 782l284 -782h-19l-285 782h20zM175 782l284 -782h-20l-283 782
h19zM61 782l283 -782h-19l-283 782h19z" />
    <glyph glyph-name="w" unicode="w" horiz-adv-x="1191" 
d="M174 782l223 -782h-18l-225 782h20zM549 782h19l-200 -545l8 -31l211 576h20l-222 -604l8 -29l233 633h19l-243 -663l8 -29l253 692h20l-264 -723l8 -29l275 752h19l174 -511l145 511h19l-153 -542l10 -31l161 573h19l-169 -602l10 -30l178 632h18l-186 -661l10 -30
l195 691h19l-204 -723l11 -29l212 752h18l-220 -782h-19l-258 754l-9 -26l247 -728h-19l-239 699l-9 -27l230 -672h-19l-221 647l-10 -26l212 -621h-20l-202 592l-9 -26l192 -566h-19l-184 539l-196 -539h-18l-226 782h19l148 -516zM136 782l226 -782h-20l-224 782h18z
M99 782l224 -782h-19l-224 782h19zM61 782l225 -782h-19l-224 782h18z" />
    <glyph glyph-name="x" unicode="x" horiz-adv-x="668" 
d="M396 499l11 -18l170 301h21l-180 -319l9 -19l191 338h20l-200 -356l10 -19l212 375h21l-222 -392l220 -390h-21l-443 782h22l129 -228l129 228h21l-140 -246l10 -19l150 265h21zM334 280l-9 18l-170 -298h-21l180 316l-11 18l-190 -334h-20l200 353l-10 18l-210 -371h-21
l221 390l-223 392h21l442 -782h-19l-129 226l-128 -226h-19l137 243l-10 19l-148 -262h-22zM112 782l443 -782h-21l-442 782h20zM153 782l443 -782h-21l-443 782h21zM195 782l442 -782h-20l-444 782h22z" />
    <glyph glyph-name="y" unicode="y" horiz-adv-x="690" 
d="M441 281l-241 501h19l159 -332l159 332h19l-169 -352l9 -18l179 370h19l-189 -389l9 -19l198 408h19l-208 -427l9 -18l218 445h19l-228 -464l9 -18l239 482h19l-249 -501v-281h-18v281zM423 0h-18v281l-243 501h19l242 -501v-281zM387 0h-18v281l-244 501h19l243 -501
v-281zM351 0h-18v281l-246 501h19l245 -501v-281zM315 0h-18v281l-249 501h19l248 -501v-281z" />
    <glyph glyph-name="z" unicode="z" horiz-adv-x="618" 
d="M59 782h549l-9 -18h-540v18zM59 746h532l-9 -18h-523v18zM59 710h514l-9 -18h-505v18zM59 674h497l-9 -18h-488v18zM510 621h-21l-302 -621h-20l302 621h-19l-303 -621h-19l302 621h-20l-303 -621h-20l302 621h-19l-302 -621h-20l302 621h-291v17h479l-233 -476h313v-18
h-321l-8 -18h329v-18h-338l-8 -18h346v-18h-356l-8 -18h364v-18h-373l-8 -18h381v-18h-411z" />
    <glyph glyph-name="braceleft" unicode="{" horiz-adv-x="525" 
d="M523 796v-52q-86 -9 -131 -55q-28 -29 -34 -60q-1 -9 -1 -70v-59q0 -62 -7 -89q-13 -51 -55.5 -82t-166.5 -55q128 -19 172 -56q56 -47 56 -170v-52q0 -8 -1 -22v-22q0 -69 61 -111q44 -30 108 -37v-49q-60 0 -117 14q-79 19 -117 59q-34 35 -43 79q-4 22 -4 87v59
q0 66 -3 81q-11 48 -57 77q-32 20 -120 34v59q107 18 142 53q38 39 38 142v54q0 73 10 105q18 60 77 94q67 39 193 44z" />
    <glyph glyph-name="bar" unicode="|" horiz-adv-x="144" 
d="M143 -77h-80v931h80v-931z" />
    <glyph glyph-name="braceright" unicode="}" horiz-adv-x="525" 
d="M63 796q51 -1 110 -15q85 -21 120 -56.5t44 -79.5q5 -24 5 -92v-65q0 -104 57 -146q34 -25 125 -41v-59q-97 -11 -134 -43q-45 -39 -45 -133v-70q0 -81 -14 -117q-20 -55 -87 -89q-56 -28 -181 -37v51q97 11 133 57q31 40 31 134v52q0 126 62 173q49 37 167 53
q-131 23 -174 60q-55 48 -55 173v56q0 66 -6 86q-14 45 -71 74q-33 17 -87 23v51z" />
    <glyph glyph-name="asciitilde" unicode="~" horiz-adv-x="467" 
d="M164 940q-56 0 -101 -17v19q56 16 101 16q52 0 102.5 -17.5t100.5 -17.5q57 0 102 17v-19q-50 -16 -102 -16q-50 0 -101 17.5t-102 17.5zM164 904q-50 0 -101 -19v19q52 18 101 18q51 0 102 -17.5t101 -17.5q46 0 102 15v-18q-47 -15 -102 -15q-50 0 -100.5 17.5
t-102.5 17.5zM367 851q65 0 102 14v-18q-38 -14 -102 -14q-50 0 -101 17.5t-102 17.5q-48 0 -101 -22v20q52 20 101 20q52 0 102.5 -17.5t100.5 -17.5z" />
    <glyph glyph-name="exclamdown" unicode="&#xa1;" horiz-adv-x="225" 
d="M171 607v175h18v-175h-18zM135 607v175h18v-175h-18zM99 607v175h18v-175h-18zM63 607v175h18v-175h-18zM207 607v175h18v-175h-18zM171 0v558h18v-558h-18zM135 0v558h18v-558h-18zM99 0v558h18v-558h-18zM63 0v558h18v-558h-18zM207 0v558h18v-558h-18z" />
    <glyph glyph-name="cent" unicode="&#xa2;" horiz-adv-x="401" 
d="M315 701q33 0 85 -24l-9 -16q-39 20 -76 22v-18q28 0 70 -21l-8 -16q-45 19 -62 19v-18q24 -1 55 -19l-7 -16q-24 14 -48 17v-18q26 -6 40 -16l-6 -17q-18 12 -34 14v-182q19 4 40 19l8 -17q-22 -16 -48 -20v-18q24 4 55 21l7 -15q-28 -20 -62 -24v-18q41 5 70 25l7 -17
q-34 -21 -77 -26v-18q45 3 84 27l7 -16q-44 -26 -91 -29v-19q56 6 98 31l8 -17q-47 -26 -106 -32v-31h-18v579h18v-40q53 0 98 -28l-7 -16q-47 26 -91 26v-18zM225 541q-21 -26 -21 -58t21 -58v116zM225 399q-39 34 -39 84q0 53 39 85v22q-57 -39 -57 -107q0 -69 57 -106v22
zM225 356q-75 44 -75 127q0 85 75 128v20q-42 -20 -67.5 -59.5t-25.5 -88.5q0 -48 26.5 -89t66.5 -59v21zM225 316q-48 20 -79.5 66t-31.5 101t30.5 101t80.5 67v20q-57 -22 -93 -73.5t-36 -114.5t36 -114t93 -73v20zM225 277q-65 24 -105.5 80t-40.5 126t42 128.5t104 77.5
v19q-70 -20 -117.5 -83.5t-47.5 -141.5t46.5 -139.5t118.5 -84.5v18zM243 198h-18v42q-80 23 -131 90t-51 153q0 85 51.5 153.5t130.5 90.5v50h18v-579zM279 777v-579h-18v579h18z" />
    <glyph glyph-name="sterling" unicode="&#xa3;" horiz-adv-x="581" 
d="M578 718q-61 55 -148 55q-80 0 -142.5 -50.5t-80.5 -127.5l-43 -184h18l42 181q16 70 74 116.5t132 46.5q83 0 137 -51l-11 -15q-54 48 -126 48q-67 0 -120 -42.5t-68 -106.5l-41 -177h18l40 173q13 58 61.5 96.5t109.5 38.5q70 0 115 -45l-9 -13q-49 40 -106 40
q-56 0 -98.5 -34.5t-54.5 -87.5l-39 -168h18l38 166q10 44 49.5 75t86.5 31q55 0 95 -37l-11 -15q-34 34 -84 34q-43 0 -76 -26t-42 -67l-37 -161h18l36 157q8 34 37 56.5t64 22.5q45 0 73 -31l-10 -15q-31 28 -63 28q-30 0 -53 -19t-30 -48l-35 -151h182v-18h-426v18h77
l44 189q19 83 87 137t154 54q54 0 105 -23q35 -17 53 -35zM68 375h426v-18h-426v18zM254 162h316v-18h-486l41 177h-57v18h426v-18h-203zM106 162h19l36 159h-17zM143 162h18l37 159h-18zM180 162h18l37 159h-18zM217 162h18l37 159h-18zM62 54h508v-18h-511zM71 90h499v-18
h-503zM79 126h491v-18h-495zM55 18h515v-18h-520z" />
    <glyph glyph-name="dieresis" unicode="&#xa8;" horiz-adv-x="396" 
d="M117 967v-133h-18v133h18zM153 967v-133h-18v133h18zM189 967v-133h-18v133h18zM81 967v-133h-18v133h18zM322 967v-133h-18v133h18zM358 967v-133h-18v133h18zM394 967v-133h-18v133h18zM286 967v-133h-18v133h18z" />
    <glyph glyph-name="ordfeminine" unicode="&#xaa;" horiz-adv-x="1000" 
 />
    <glyph glyph-name="twosuperior" unicode="&#xb2;" horiz-adv-x="292" 
d="M49 415h237v-8h-245zM61 432h225v-8h-232zM73 450h213v-8h-219zM86 467h200v-8h-207zM210 637q9 12 9 27q0 18 -13 31.5t-32 13.5q-18 0 -31 -13.5t-13 -31.5q0 -24 21 -37l-5 -6q-24 13 -24 43q0 22 15 38t37 16t38 -16t16 -38q0 -17 -10 -31l-109 -149h10l106 145
q12 16 12 35q0 26 -18.5 44t-44.5 18q-25 0 -43 -18t-18 -44q0 -33 28 -51l-6 -7q-31 19 -31 58q0 29 20.5 50t49.5 21q30 0 50.5 -21t20.5 -50q0 -24 -12 -40l-103 -140h12l98 135q14 19 14 45q0 33 -23.5 56t-56.5 23q-32 0 -55.5 -23t-23.5 -56q0 -40 35 -66l-5 -6
q-38 28 -38 72q0 36 26 62t61 26q37 0 62.5 -26t25.5 -62q0 -28 -16 -50l-94 -130h10l93 126q16 22 16 54q0 41 -28 69t-69 28q-39 0 -67.5 -28.5t-28.5 -68.5q0 -49 41 -79l-4 -7q-45 33 -45 86q0 44 30.5 75t73.5 31q44 0 74.5 -31t30.5 -75q0 -33 -18 -58l-88 -122h11
l84 116q21 29 21 64q0 47 -34 80.5t-81 33.5q-46 0 -79.5 -33.5t-33.5 -80.5q0 -61 49 -92l-5 -8q-52 36 -52 100q0 51 35.5 86.5t85.5 35.5q51 0 86.5 -35.5t35.5 -86.5q0 -39 -20 -67l-81 -113h91v-8h-194z" />
    <glyph glyph-name="threesuperior" unicode="&#xb3;" horiz-adv-x="288" 
d="M134 611v10h21q19 0 32 12.5t13 30.5t-13 31.5t-32 13.5q-34 0 -43 -34l-7 8q14 35 50 35q22 0 37.5 -16t15.5 -38t-15.5 -37.5t-37.5 -15.5h-21zM134 603h21q26 0 44 18t18 43q0 26 -18 44t-44 18q-38 0 -57 -37l-6 7q20 39 63 39q29 0 49.5 -21t20.5 -50q0 -46 -45 -66
q49 -17 49 -69q0 -31 -21 -52.5t-53 -21.5q-51 0 -68 45l7 6q15 -43 61 -43q27 0 46.5 19.5t19.5 46.5q0 26 -19.5 45.5t-46.5 19.5h-21v9zM108 520q2 -16 16 -27.5t31 -11.5q20 0 34 14t14 34t-14 34t-34 14h-21v9h21q23 0 39.5 -17t16.5 -40q0 -24 -16.5 -41t-39.5 -17
q-43 0 -55 42zM248 600q20 29 20 64q0 47 -33 80.5t-80 33.5q-61 0 -96 -53l-6 7q34 54 102 54q51 0 86.5 -35.5t35.5 -86.5q0 -33 -18 -65q22 -28 22 -70q0 -52 -37 -89t-89 -37q-71 0 -107 60l6 6q33 -58 101 -58q49 0 83.5 34.5t34.5 83.5q0 34 -25 71zM226 599
q26 28 26 65q0 40 -28.5 68.5t-68.5 28.5q-53 0 -83 -47l-5 5q29 51 88 51q43 0 74 -31.5t31 -74.5q0 -36 -23 -65q26 -29 26 -70q0 -45 -31.5 -77t-76.5 -32q-63 0 -95 55l7 7q28 -53 88 -53q41 0 70.5 29.5t29.5 70.5t-29 70zM214 598q32 -22 32 -69q0 -37 -26.5 -64
t-64.5 -27q-53 0 -82 49l7 7q22 -48 75 -48q35 0 59 24.5t24 58.5q0 48 -39 69q36 23 36 66q0 33 -23.5 56t-56.5 23q-48 0 -70 -42l-7 6q27 45 77 45q36 0 62 -26t26 -62q0 -37 -29 -66z" />
    <glyph glyph-name="acute" unicode="&#xb4;" horiz-adv-x="326" 
d="M278 974l-138 -140h-26l139 140h25zM227 974l-139 -140h-26l140 140h25zM329 974l-139 -140h-25l138 140h26z" />
    <glyph glyph-name="cedilla" unicode="&#xb8;" horiz-adv-x="458" 
d="M307 -31l-124 -123l-13 12l124 124zM332 -56l-124 -124l-12 13l123 124zM281 -5l-123 -124l-13 13l123 123z" />
    <glyph glyph-name="onesuperior" unicode="&#xb9;" horiz-adv-x="249" 
d="M165 782v-375h-10v375h10zM182 782v-375h-9v375h9zM199 782v-375h-9v375h9zM216 782v-375h-9v375h9zM138 690l-61 -37l-4 8l65 40v10l-69 -43l-6 6l75 48v10l-79 -50l-4 7l83 53v10l-87 -55l-6 7l93 58v11l-97 -62l-4 8l101 63h9v-375h-9v283z" />
    <glyph glyph-name="ordmasculine" unicode="&#xba;" horiz-adv-x="323" 
d="M49 648q0 57 40 97.5t98 40.5q57 0 98 -40.5t41 -97.5v-107q0 -57 -41 -97.5t-98 -40.5q-58 0 -98 40.5t-40 97.5v107zM57 541q0 -53 38 -91.5t92 -38.5t92 38.5t38 91.5v107q0 54 -38 92t-92 38t-92 -38t-38 -92v-107zM82 648q0 43 31 73.5t74 30.5t73.5 -30.5
t30.5 -73.5v-107q0 -43 -30.5 -73t-73.5 -30t-74 30t-31 73v107zM92 541q0 -39 27.5 -67t67.5 -28q39 0 67 27.5t28 67.5v107q0 40 -28 67.5t-67 27.5q-40 0 -67.5 -28t-27.5 -67v-107zM117 648q0 29 20.5 49.5t49.5 20.5t49.5 -20.5t20.5 -49.5v-107q0 -29 -20.5 -49.5
t-49.5 -20.5t-49.5 20.5t-20.5 49.5v107zM126 541q0 -25 18 -42.5t43 -17.5t42.5 17.5t17.5 42.5v107q0 26 -17.5 43.5t-42.5 17.5t-43 -17.5t-18 -43.5v-107zM100 648q0 36 26 61.5t61 25.5q36 0 61.5 -25.5t25.5 -61.5v-107q0 -35 -25.5 -60.5t-61.5 -25.5q-35 0 -61 25.5
t-26 60.5v107zM109 541q0 -32 23 -55t55 -23t55 23t23 55v107q0 32 -23 55t-55 23t-55 -23t-23 -55v-107zM74 541q0 -46 33 -79t80 -33q46 0 79 33t33 79v107q0 47 -33 80t-79 33t-79.5 -33t-33.5 -80v-107zM66 648q0 51 35 86.5t86 35.5q50 0 86 -36t36 -86v-107
q0 -50 -36 -85.5t-86 -35.5q-51 0 -86 35.5t-35 85.5v107z" />
    <glyph glyph-name="questiondown" unicode="&#xbf;" horiz-adv-x="383" 
d="M339 616v175h18v-175h-18zM303 616v175h18v-175h-18zM267 616v175h18v-175h-18zM231 616v175h18v-175h-18zM375 616v175h18v-175h-18zM393 33v-18q-53 -15 -100 -15q-95 0 -162.5 66.5t-67.5 160.5q0 68 37 125q34 52 89 80q42 22 42 73v66h18v-66q0 -63 -51.5 -88.5
t-82.5 -74.5q-34 -53 -34 -115q0 -87 62 -148t150 -61q45 0 100 15zM393 71v-19q-53 -16 -100 -16q-81 0 -137.5 55.5t-56.5 135.5q0 70 46 125q33 38 59 48q15 6 35 29q28 34 28 76v66h18v-66q0 -84 -73 -122q-95 -50 -95 -156q0 -72 51.5 -122.5t124.5 -50.5q46 0 100 17z
M393 108v-19q-54 -17 -100 -17q-66 0 -112 45t-46 110q0 42 23 82t61 58q27 13 50 40q34 42 34 98v66h18v-66q0 -62 -39 -110q-27 -33 -53.5 -44.5t-48.5 -41.5q-27 -38 -27 -82q0 -57 41 -97t99 -40q52 0 100 18zM393 144v-18q-44 -18 -100 -18q-51 0 -86.5 34.5
t-35.5 84.5q0 70 64 106q34 19 60 51q44 54 44 121v66h18v-66q0 -75 -47 -133q-31 -37 -68 -55q-53 -26 -53 -90q0 -43 30 -72t74 -29q58 0 100 18zM393 179v-18q-35 -17 -100 -17q-36 0 -61 24t-25 59q0 27 16 50q13 19 27 25q37 16 73 59q52 63 52 144v66h18v-66
q0 -88 -56 -155q-36 -43 -80 -64q-33 -15 -33 -59q0 -29 20 -47t49 -18q61 0 100 17z" />
    <glyph glyph-name="Agrave" unicode="&#xc0;" horiz-adv-x="819" 
d="M302 211l-7 -18h286l-6 18h-273zM316 247l-7 -18h259l-7 18h-245zM540 301l-101 259l-102 -259h203zM331 283l-8 -18h231l-6 18h-217zM596 158l-6 17h-301l-8 -17h315zM275 140l-55 -140h-19l305 782h20l306 -782h-20l-296 758l-10 -24l286 -734h-19l-276 708l-10 -24
l268 -684h-20l-257 660l-10 -25l249 -635h-20l-238 611l-10 -27l228 -584h-19l-54 140h-329zM486 782l-305 -782h-20l306 782h19zM448 782l-305 -782h-20l306 782h19zM410 782l-305 -782h-20l305 782h20zM370 782l-304 -782h-21l306 782h19zM351 974l138 -140h-25l-138 140
h25zM402 974l139 -140h-25l-140 140h26zM300 974l139 -140h-26l-138 140h25z" />
    <glyph glyph-name="Aacute" unicode="&#xc1;" horiz-adv-x="819" 
d="M302 211l-7 -18h286l-6 18h-273zM316 247l-7 -18h259l-7 18h-245zM540 301l-101 259l-102 -259h203zM331 283l-8 -18h231l-6 18h-217zM596 158l-6 17h-301l-8 -17h315zM275 140l-55 -140h-19l305 782h20l306 -782h-20l-296 758l-10 -24l286 -734h-19l-276 708l-10 -24
l268 -684h-20l-257 660l-10 -25l249 -635h-20l-238 611l-10 -27l228 -584h-19l-54 140h-329zM486 782l-305 -782h-20l306 782h19zM448 782l-305 -782h-20l306 782h19zM410 782l-305 -782h-20l305 782h20zM370 782l-304 -782h-21l306 782h19zM552 974l-139 -140h-25l138 140
h26zM501 974l-139 -140h-26l140 140h25zM603 974l-139 -140h-25l138 140h26z" />
    <glyph glyph-name="Acircumflex" unicode="&#xc2;" horiz-adv-x="819" 
d="M302 211l-7 -18h286l-6 18h-273zM316 247l-7 -18h259l-7 18h-245zM540 301l-101 259l-102 -259h203zM331 283l-8 -18h231l-6 18h-217zM596 158l-6 17h-301l-8 -17h315zM275 140l-55 -140h-19l305 782h20l306 -782h-20l-296 758l-10 -24l286 -734h-19l-276 708l-10 -24
l268 -684h-20l-257 660l-10 -25l249 -635h-20l-238 611l-10 -27l228 -584h-19l-54 140h-329zM486 782l-305 -782h-20l306 782h19zM448 782l-305 -782h-20l306 782h19zM410 782l-305 -782h-20l305 782h20zM370 782l-304 -782h-21l306 782h19zM392 974l-139 -140h-26l140 140
h25zM443 974l-139 -140h-25l139 140h25zM456 936l-13 -13l88 -89h-26l-75 76l-75 -76h-25l138 140h26l139 -140h-25l-127 127l-13 -13l113 -114h-25z" />
    <glyph glyph-name="Atilde" unicode="&#xc3;" horiz-adv-x="819" 
d="M302 211l-7 -18h286l-6 18h-273zM316 247l-7 -18h259l-7 18h-245zM540 301l-101 259l-102 -259h203zM331 283l-8 -18h231l-6 18h-217zM596 158l-6 17h-301l-8 -17h315zM275 140l-55 -140h-19l305 782h20l306 -782h-20l-296 758l-10 -24l286 -734h-19l-276 708l-10 -24
l268 -684h-20l-257 660l-10 -25l249 -635h-20l-238 611l-10 -27l228 -584h-19l-54 140h-329zM486 782l-305 -782h-20l306 782h19zM448 782l-305 -782h-20l306 782h19zM410 782l-305 -782h-20l305 782h20zM370 782l-304 -782h-21l306 782h19zM337 940q-57 0 -100 -17v19
q54 16 100 16q53 0 103.5 -17.5t99.5 -17.5q56 0 103 17v-19q-52 -16 -103 -16q-49 0 -100 17.5t-103 17.5zM337 904q-51 0 -100 -19v19q50 18 100 18q52 0 103 -17.5t100 -17.5q45 0 103 15v-18q-49 -15 -103 -15q-49 0 -99.5 17.5t-103.5 17.5zM540 851q66 0 103 14v-18
q-38 -14 -103 -14q-49 0 -100 17.5t-103 17.5q-49 0 -100 -22v20q50 20 100 20q53 0 103.5 -17.5t99.5 -17.5z" />
    <glyph glyph-name="Adieresis" unicode="&#xc4;" horiz-adv-x="819" 
d="M302 211l-7 -18h286l-6 18h-273zM316 247l-7 -18h259l-7 18h-245zM540 301l-101 259l-102 -259h203zM331 283l-8 -18h231l-6 18h-217zM596 158l-6 17h-301l-8 -17h315zM275 140l-55 -140h-19l305 782h20l306 -782h-20l-296 758l-10 -24l286 -734h-19l-276 708l-10 -24
l268 -684h-20l-257 660l-10 -25l249 -635h-20l-238 611l-10 -27l228 -584h-19l-54 140h-329zM486 782l-305 -782h-20l306 782h19zM448 782l-305 -782h-20l306 782h19zM410 782l-305 -782h-20l305 782h20zM370 782l-304 -782h-21l306 782h19zM318 967v-133h-18v133h18z
M354 967v-133h-18v133h18zM390 967v-133h-18v133h18zM282 967v-133h-18v133h18zM523 967v-133h-18v133h18zM559 967v-133h-18v133h18zM595 967v-133h-18v133h18zM487 967v-133h-18v133h18z" />
    <glyph glyph-name="Aring" unicode="&#xc5;" horiz-adv-x="819" 
d="M304 211l-7 -18h287l-7 18h-273zM318 247l-7 -18h259l-7 18h-245zM542 301l-101 259l-102 -259h203zM333 283l-7 -18h230l-6 18h-217zM598 158l-6 17h-301l-8 -17h315zM277 140l-55 -140h-19l305 782h21l305 -782h-20l-296 758l-10 -24l286 -734h-19l-276 708l-10 -24
l268 -684h-20l-257 660l-10 -25l249 -635h-20l-238 611l-10 -27l228 -584h-19l-54 140h-329zM488 782l-305 -782h-20l306 782h19zM450 782l-305 -782h-20l306 782h19zM412 782l-305 -782h-20l305 782h20zM372 782l-304 -782h-20l305 782h19zM443 1132q62 0 106 -44t44 -106
q0 -61 -44 -105.5t-106 -44.5t-106 44t-44 106t44 106t106 44zM311 982q0 -55 38.5 -93.5t93.5 -38.5t93.5 38.5t38.5 93.5t-38.5 93.5t-93.5 38.5t-93.5 -38.5t-38.5 -93.5zM443 1096q47 0 80.5 -33.5t33.5 -80.5t-33.5 -80.5t-80.5 -33.5q-48 0 -81 33.5t-33 80.5t33 80.5
t81 33.5zM347 982q0 -40 28 -68t68 -28t68 28t28 68t-28 68t-68 28t-68 -28t-28 -68zM443 1060q32 0 55 -23t23 -55t-23 -55t-55 -23t-55 23t-23 55t23 55t55 23zM383 982q0 -25 17.5 -42.5t42.5 -17.5t42.5 17.5t17.5 42.5t-17.5 42.5t-42.5 17.5t-42.5 -17.5t-17.5 -42.5z
" />
    <glyph glyph-name="AE" unicode="&#xc6;" horiz-adv-x="1267" 
d="M310 211l-8 -18h287l-7 18h-272zM323 247l-7 -18h259l-6 18h-246zM548 301l-102 259l-101 -259h203zM338 283l-7 -18h230l-6 18h-217zM604 158l-7 17h-301l-7 -17h315zM837 782l2 -782h-20l-296 758l-9 -24l285 -734h-19l-276 708l-9 -24l267 -684h-20l-257 660l-9 -25
l248 -635h-20l-238 611l-9 -27l227 -584h-19l-54 140h-329l-55 -140h-19l306 782h20l285 -731v731h18zM494 782l-306 -782h-20l307 782h19zM456 782l-306 -782h-20l307 782h19zM418 782l-306 -782h-20l305 782h21zM377 782l-304 -782h-20l305 782h19zM945 782v-782h-18v782
h18zM909 782v-782h-18v782h18zM873 782v-782h-18v782h18zM981 347v-18h217v-18h-217v-149h292v-18h-292v-18h292v-18h-292v-18h292v-18h-292v-18h292v-18h-292v-18h292v-18h-310v782h310v-18h-292v-18h292v-18h-292v-18h292v-18h-292v-18h292v-18h-292v-18h292v-17h-292
v-148h217v-18h-217v-18h217v-18h-217v-18h217v-18h-217v-18h217v-18h-217z" />
    <glyph glyph-name="Ccedilla" unicode="&#xc7;" horiz-adv-x="493" 
d="M497 625q-30 4 -48 4q-98 0 -168 -70t-70 -168t70 -168t168 -70q24 0 48 6v-19q-20 -5 -48 -5q-106 0 -181 75t-75 181t75 181t181 75q27 0 48 -4v-18zM497 661q-21 4 -48 4q-113 0 -193.5 -80.5t-80.5 -193.5t80.5 -193.5t193.5 -80.5q28 0 48 5v-18q-20 -5 -48 -5
q-120 0 -205.5 85.5t-85.5 206.5t85.5 206.5t205.5 85.5q27 0 48 -4v-18zM497 697q-19 4 -48 4q-128 0 -218.5 -91t-90.5 -219t90.5 -219t218.5 -91q27 0 48 4v-18q-21 -4 -48 -4q-136 0 -231.5 96t-95.5 232t95.5 232t231.5 96q24 0 48 -3v-19zM497 734q-24 3 -48 3
q-143 0 -244 -101.5t-101 -244.5t101 -244.5t244 -101.5q16 0 48 4v-18q-32 -4 -48 -4q-151 0 -257 106.5t-106 257.5t106 257.5t257 106.5q24 0 48 -3v-18zM421 -31l-124 -123l-13 12l124 124zM446 -56l-124 -124l-12 13l123 124zM395 -5l-123 -124l-13 13l116 115
q-140 26 -232.5 136.5t-92.5 255.5q0 166 116.5 283t282.5 117q24 0 48 -3v-18q-24 3 -48 3q-157 0 -269 -112t-112 -270q0 -157 112 -269t269 -112q24 0 48 3v-18q-24 -3 -48 -3q-33 0 -54 3z" />
    <glyph glyph-name="Egrave" unicode="&#xc8;" horiz-adv-x="513" 
d="M81 782v-782h-18v782h18zM189 782v-782h-18v782h18zM153 782v-782h-18v782h18zM117 782v-782h-18v782h18zM225 347v-18h217v-18h-217v-149h292v-18h-292v-18h292v-18h-292v-18h292v-18h-292v-18h292v-18h-292v-18h292v-18h-310v782h310v-18h-292v-18h292v-18h-292v-18
h292v-18h-292v-18h292v-18h-292v-18h292v-17h-292v-148h217v-18h-217v-18h217v-18h-217v-18h217v-18h-217v-18h217v-18h-217zM266 974l139 -140h-26l-138 140h25zM317 974l140 -140h-26l-139 140h25zM216 974l138 -140h-25l-139 140h26z" />
    <glyph glyph-name="Eacute" unicode="&#xc9;" horiz-adv-x="513" 
d="M81 782v-782h-18v782h18zM189 782v-782h-18v782h18zM153 782v-782h-18v782h18zM117 782v-782h-18v782h18zM225 347v-18h217v-18h-217v-149h292v-18h-292v-18h292v-18h-292v-18h292v-18h-292v-18h292v-18h-292v-18h292v-18h-310v782h310v-18h-292v-18h292v-18h-292v-18
h292v-18h-292v-18h292v-18h-292v-18h292v-17h-292v-148h217v-18h-217v-18h217v-18h-217v-18h217v-18h-217v-18h217v-18h-217zM372 974l-138 -140h-26l139 140h25zM321 974l-139 -140h-26l140 140h25zM423 974l-139 -140h-25l138 140h26z" />
    <glyph glyph-name="Ecircumflex" unicode="&#xca;" horiz-adv-x="513" 
d="M81 782v-782h-18v782h18zM189 782v-782h-18v782h18zM153 782v-782h-18v782h18zM117 782v-782h-18v782h18zM225 347v-18h217v-18h-217v-149h292v-18h-292v-18h292v-18h-292v-18h292v-18h-292v-18h292v-18h-292v-18h292v-18h-310v782h310v-18h-292v-18h292v-18h-292v-18
h292v-18h-292v-18h292v-18h-292v-18h292v-17h-292v-148h217v-18h-217v-18h217v-18h-217v-18h217v-18h-217v-18h217v-18h-217zM255 974l-140 -140h-25l139 140h26zM305 974l-138 -140h-25l138 140h25zM318 936l-13 -13l88 -89h-25l-75 76l-75 -76h-26l139 140h25l140 -140
h-26l-126 127l-13 -13l113 -114h-25z" />
    <glyph glyph-name="Edieresis" unicode="&#xcb;" horiz-adv-x="513" 
d="M81 782v-782h-18v782h18zM189 782v-782h-18v782h18zM153 782v-782h-18v782h18zM117 782v-782h-18v782h18zM225 347v-18h217v-18h-217v-149h292v-18h-292v-18h292v-18h-292v-18h292v-18h-292v-18h292v-18h-292v-18h292v-18h-310v782h310v-18h-292v-18h292v-18h-292v-18
h292v-18h-292v-18h292v-18h-292v-18h292v-17h-292v-148h217v-18h-217v-18h217v-18h-217v-18h217v-18h-217v-18h217v-18h-217zM196 967v-133h-18v133h18zM232 967v-133h-18v133h18zM267 967v-133h-18v133h18zM160 967v-133h-18v133h18zM401 967v-133h-18v133h18zM437 967
v-133h-18v133h18zM473 967v-133h-18v133h18zM365 967v-133h-18v133h18z" />
    <glyph glyph-name="Igrave" unicode="&#xcc;" horiz-adv-x="225" 
d="M117 782v-782h-18v782h18zM153 782v-782h-18v782h18zM189 782v-782h-18v782h18zM225 782v-782h-18v782h18zM81 782v-782h-18v782h18zM76 974l139 -140h-26l-138 140h25zM127 974l139 -140h-25l-140 140h26zM25 974l139 -140h-26l-138 140h25z" />
    <glyph glyph-name="Iacute" unicode="&#xcd;" horiz-adv-x="225" 
d="M117 782v-782h-18v782h18zM153 782v-782h-18v782h18zM189 782v-782h-18v782h18zM225 782v-782h-18v782h18zM81 782v-782h-18v782h18zM245 974l-138 -140h-26l139 140h25zM195 974l-140 -140h-25l139 140h26zM296 974l-138 -140h-26l139 140h25z" />
    <glyph glyph-name="Icircumflex" unicode="&#xce;" horiz-adv-x="225" 
d="M117 782v-782h-18v782h18zM153 782v-782h-18v782h18zM189 782v-782h-18v782h18zM225 782v-782h-18v782h18zM81 782v-782h-18v782h18zM107 974l-140 -140h-25l139 140h26zM158 974l-139 -140h-25l138 140h26zM170 936l-12 -13l87 -89h-25l-75 76l-75 -76h-26l139 140h25
l140 -140h-26l-126 127l-13 -13l113 -114h-25z" />
    <glyph glyph-name="Idieresis" unicode="&#xcf;" horiz-adv-x="225" 
d="M117 782v-782h-18v782h18zM153 782v-782h-18v782h18zM189 782v-782h-18v782h18zM225 782v-782h-18v782h18zM81 782v-782h-18v782h18zM26 967v-133h-18v133h18zM62 967v-133h-18v133h18zM98 967v-133h-18v133h18zM-10 967v-133h-17v133h17zM232 967v-133h-18v133h18z
M267 967v-133h-18v133h18zM303 967v-133h-18v133h18zM196 967v-133h-18v133h18z" />
    <glyph glyph-name="Eth" unicode="&#xd0;" horiz-adv-x="601" 
d="M225 36v-18q155 3 264 111t109 262t-109 262t-264 111v-18q149 -3 252 -105t103 -250t-103 -250t-252 -105zM225 72v-18q141 3 239 100t98 237t-98 237t-239 100v-18q134 -3 226.5 -94.5t92.5 -224.5q0 -132 -93 -224t-226 -95zM225 108v-18q126 3 213.5 89.5t87.5 211.5
t-87.5 211.5t-213.5 89.5v-18q119 -3 201 -84t82 -199q0 -117 -82.5 -198.5t-200.5 -84.5zM225 144v-18q111 3 188 79t77 186t-77 186t-188 79v-18q105 -3 176.5 -73.5t71.5 -173.5t-72 -173.5t-176 -73.5zM99 373h-18v-18h18v18zM135 373h-18v-18h18v18zM171 373h-18v-18
h18v18zM207 373h-18v-18h18v18zM99 409h-18v-18h18v18zM135 409h-18v-18h18v18zM171 409h-18v-18h18v18zM207 409h-18v-18h18v18zM99 445h-18v-18h18v18zM135 445h-18v-18h18v18zM171 445h-18v-18h18v18zM207 445h-18v-18h18v18zM225 319h149v-18h-149v-139q96 3 163 68.5
t67 160.5t-67 160.5t-163 69.5v-158h149v-18h-149v-18h149v-18h-149v-18h149v-18h-149v-18h149v-18h-149v-18zM189 319h18v18h-18v-18zM153 319h18v18h-18v-18zM117 319h18v18h-18v-18zM81 319h18v18h-18v-18zM0 319h63v18h-63v18h63v18h-63v18h63v18h-63v18h63v18h-63v18
h63v319h18v-319h18v319h18v-319h18v319h18v-319h18v319h18v-319h18v319h18q164 0 277.5 -113.5t113.5 -277.5t-114.5 -277.5t-276.5 -113.5h-18v301h-18v-301h-18v301h-18v-301h-18v301h-18v-301h-18v301h-18v-301h-18v301h-63v18zM225 18z" />
    <glyph glyph-name="Ntilde" unicode="&#xd1;" horiz-adv-x="702" 
d="M209 782l450 -782h-21l-450 782h21zM168 782l450 -782h-22l-449 782h21zM126 782l450 -782h-21l-449 782h20zM593 187l18 -31v626h18v-657l18 -31v688h18v-720l18 -30v750h18v-782h-22l-450 782h20l290 -502v502h18v-533l18 -30v563h18v-595zM99 720l-18 32v-752h-18v782
h19l453 -782h-22l-288 501v-501h-18v532l-18 31v-563h-18v594l-18 32v-626h-18v658l-18 31v-689h-18v720zM278 940q-57 0 -100 -17v19q54 16 100 16q53 0 103.5 -17.5t99.5 -17.5q56 0 103 17v-19q-52 -16 -103 -16q-49 0 -100 17.5t-103 17.5zM278 904q-51 0 -100 -19v19
q50 18 100 18q52 0 103 -17.5t100 -17.5q45 0 103 15v-18q-49 -15 -103 -15q-49 0 -99.5 17.5t-103.5 17.5zM481 851q66 0 103 14v-18q-40 -14 -103 -14q-49 0 -100 17.5t-103 17.5q-49 0 -100 -22v20q50 20 100 20q53 0 103.5 -17.5t99.5 -17.5z" />
    <glyph glyph-name="Ograve" unicode="&#xd2;" 
d="M446 -8q-166 0 -282.5 116.5t-116.5 282.5t116.5 283t282.5 117t283 -117t117 -283t-117 -282.5t-283 -116.5zM64 391q0 -157 112 -269t270 -112t270 112t112 269q0 158 -112 270t-270 112q-157 0 -269.5 -112t-112.5 -270zM446 27q-151 0 -257.5 106.5t-106.5 257.5
t106.5 257.5t257.5 106.5t257.5 -106.5t106.5 -257.5t-106.5 -257.5t-257.5 -106.5zM100 391q0 -143 101.5 -244.5t244.5 -101.5t244.5 101.5t101.5 244.5t-101.5 244.5t-244.5 101.5t-244.5 -101.5t-101.5 -244.5zM446 63q-136 0 -232 96t-96 232t96 232t232 96t232 -96
t96 -232t-96 -232t-232 -96zM136 391q0 -128 91 -219t219 -91t219 91t91 219t-91 219t-219 91t-219 -91t-91 -219zM446 99q-121 0 -206.5 85.5t-85.5 206.5t85.5 206.5t206.5 85.5t206.5 -85.5t85.5 -206.5t-85.5 -206.5t-206.5 -85.5zM172 391q0 -113 80.5 -193.5
t193.5 -80.5t193.5 80.5t80.5 193.5t-80.5 193.5t-193.5 80.5t-193.5 -80.5t-80.5 -193.5zM446 135q-106 0 -181 75t-75 181q0 107 75 181.5t181 74.5q107 0 181.5 -74.5t74.5 -181.5q0 -106 -74.5 -181t-181.5 -75zM208 391q0 -98 70 -168t168 -70t168 70t70 168t-70 168
t-168 70t-168 -70t-70 -168zM377 974l139 -140h-26l-138 140h25zM428 974l140 -140h-26l-139 140h25zM327 974l138 -140h-25l-139 140h26z" />
    <glyph glyph-name="Oacute" unicode="&#xd3;" 
d="M448 -8q-166 0 -282.5 116.5t-116.5 282.5t116.5 283t282.5 117t283 -117t117 -283t-117 -282.5t-283 -116.5zM67 391q0 -157 112 -269t269 -112q158 0 270 111.5t112 269.5t-112 270t-270 112q-157 0 -269 -112t-112 -270zM448 27q-151 0 -257 106.5t-106 257.5
t106 257.5t257 106.5t257.5 -106.5t106.5 -257.5t-106.5 -257.5t-257.5 -106.5zM103 391q0 -143 101 -244.5t244 -101.5q144 0 245 101.5t101 244.5t-101 244.5t-245 101.5q-143 0 -244 -101.5t-101 -244.5zM448 63q-136 0 -231.5 96t-95.5 232t95.5 232t231.5 96t232 -96
t96 -232t-96 -232t-232 -96zM138 391q0 -128 91 -219t219 -91t219 91t91 219t-91 219t-219 91t-219 -91t-91 -219zM448 99q-120 0 -206 85.5t-86 206.5t86 206.5t206 85.5q121 0 206.5 -85.5t85.5 -206.5t-85.5 -206.5t-206.5 -85.5zM174 391q0 -113 80.5 -193.5
t193.5 -80.5t193.5 80.5t80.5 193.5t-80.5 193.5t-193.5 80.5t-193.5 -80.5t-80.5 -193.5zM448 135q-106 0 -181 75t-75 181t75 181t181 75q107 0 181.5 -74.5t74.5 -181.5q0 -106 -74.5 -181t-181.5 -75zM210 391q0 -98 70 -168t168 -70t168 70t70 168t-70 168t-168 70
t-168 -70t-70 -168zM578 974l-138 -140h-26l139 140h25zM527 974l-139 -140h-25l139 140h25zM629 974l-139 -140h-25l139 140h25z" />
    <glyph glyph-name="Ocircumflex" unicode="&#xd4;" 
d="M446 -8q-166 0 -282.5 116.5t-116.5 282.5t116.5 283t282.5 117t283 -117t117 -283t-117 -282.5t-283 -116.5zM64 391q0 -157 112 -269t270 -112t270 112t112 269q0 158 -112 270t-270 112q-157 0 -269.5 -112t-112.5 -270zM446 27q-151 0 -257.5 106.5t-106.5 257.5
t106.5 257.5t257.5 106.5t257.5 -106.5t106.5 -257.5t-106.5 -257.5t-257.5 -106.5zM100 391q0 -143 101.5 -244.5t244.5 -101.5t244.5 101.5t101.5 244.5t-101.5 244.5t-244.5 101.5t-244.5 -101.5t-101.5 -244.5zM446 63q-136 0 -232 96t-96 232t96 232t232 96t232 -96
t96 -232t-96 -232t-232 -96zM136 391q0 -128 91 -219t219 -91t219 91t91 219t-91 219t-219 91t-219 -91t-91 -219zM446 99q-121 0 -206.5 85.5t-85.5 206.5t85.5 206.5t206.5 85.5t206.5 -85.5t85.5 -206.5t-85.5 -206.5t-206.5 -85.5zM172 391q0 -113 80.5 -193.5
t193.5 -80.5t193.5 80.5t80.5 193.5t-80.5 193.5t-193.5 80.5t-193.5 -80.5t-80.5 -193.5zM446 135q-106 0 -181 75t-75 181q0 107 75 181.5t181 74.5q107 0 181.5 -74.5t74.5 -181.5q0 -106 -74.5 -181t-181.5 -75zM208 391q0 -98 70 -168t168 -70t168 70t70 168t-70 168
t-168 70t-168 -70t-70 -168zM402 974l-140 -140h-25l139 140h26zM452 974l-138 -140h-25l138 140h25zM465 936l-13 -13l88 -89h-25l-75 76l-75 -76h-26l139 140h25l140 -140h-26l-127 127l-12 -13l113 -114h-25z" />
    <glyph glyph-name="Otilde" unicode="&#xd5;" 
d="M451 -8q-166 0 -282.5 116.5t-116.5 282.5t116.5 283t282.5 117t283 -117t117 -283t-117 -282.5t-283 -116.5zM70 391q0 -157 112 -269t269 -112q158 0 270 111.5t112 269.5t-112 270t-270 112q-157 0 -269 -112t-112 -270zM451 27q-150 0 -256.5 106.5t-106.5 257.5
t106.5 257.5t256.5 106.5q151 0 257.5 -106.5t106.5 -257.5t-106.5 -257.5t-257.5 -106.5zM106 391q0 -143 101 -244.5t244 -101.5q144 0 245 101.5t101 244.5t-101 244.5t-245 101.5q-143 0 -244 -101.5t-101 -244.5zM451 63q-135 0 -231 96t-96 232t96 232t231 96
q136 0 232 -96t96 -232t-96 -232t-232 -96zM142 391q0 -128 90.5 -219t218.5 -91q129 0 219.5 91t90.5 219t-90.5 219t-219.5 91q-128 0 -218.5 -91t-90.5 -219zM451 99q-120 0 -205.5 85.5t-85.5 206.5t85.5 206.5t205.5 85.5q121 0 206.5 -85.5t85.5 -206.5t-85.5 -206.5
t-206.5 -85.5zM178 391q0 -113 80 -193.5t193 -80.5q114 0 194 80.5t80 193.5t-80 193.5t-194 80.5q-113 0 -193 -80.5t-80 -193.5zM451 135q-106 0 -180.5 75t-74.5 181t74.5 181t180.5 75q107 0 181.5 -74.5t74.5 -181.5q0 -106 -74.5 -181t-181.5 -75zM214 391
q0 -98 69.5 -168t167.5 -70t168 70t70 168t-70 168t-168 70t-167.5 -70t-69.5 -168zM347 940q-58 0 -101 -17v19q56 16 101 16q52 0 102.5 -17.5t100.5 -17.5q57 0 102 17v-19q-50 -16 -102 -16q-50 0 -101 17.5t-102 17.5zM347 904q-50 0 -101 -19v19q52 18 101 18
q51 0 102 -17.5t101 -17.5q46 0 102 15v-18q-47 -15 -102 -15q-50 0 -100.5 17.5t-102.5 17.5zM550 851q65 0 102 14v-18q-38 -14 -102 -14q-50 0 -101 17.5t-102 17.5q-48 0 -101 -22v20q52 20 101 20q52 0 102.5 -17.5t100.5 -17.5z" />
    <glyph glyph-name="Odieresis" unicode="&#xd6;" 
d="M446 -8q-166 0 -282.5 116.5t-116.5 282.5t116.5 283t282.5 117t283 -117t117 -283t-117 -282.5t-283 -116.5zM64 391q0 -157 112 -269t270 -112t270 112t112 269q0 158 -112 270t-270 112q-157 0 -269.5 -112t-112.5 -270zM446 27q-151 0 -257.5 106.5t-106.5 257.5
t106.5 257.5t257.5 106.5t257.5 -106.5t106.5 -257.5t-106.5 -257.5t-257.5 -106.5zM100 391q0 -143 101.5 -244.5t244.5 -101.5t244.5 101.5t101.5 244.5t-101.5 244.5t-244.5 101.5t-244.5 -101.5t-101.5 -244.5zM446 63q-136 0 -232 96t-96 232t96 232t232 96t232 -96
t96 -232t-96 -232t-232 -96zM136 391q0 -128 91 -219t219 -91t219 91t91 219t-91 219t-219 91t-219 -91t-91 -219zM446 99q-121 0 -206.5 85.5t-85.5 206.5t85.5 206.5t206.5 85.5t206.5 -85.5t85.5 -206.5t-85.5 -206.5t-206.5 -85.5zM172 391q0 -113 80.5 -193.5
t193.5 -80.5t193.5 80.5t80.5 193.5t-80.5 193.5t-193.5 80.5t-193.5 -80.5t-80.5 -193.5zM446 135q-106 0 -181 75t-75 181q0 107 75 181.5t181 74.5q107 0 181.5 -74.5t74.5 -181.5q0 -106 -74.5 -181t-181.5 -75zM208 391q0 -98 70 -168t168 -70t168 70t70 168t-70 168
t-168 70t-168 -70t-70 -168zM329 967v-133h-18v133h18zM365 967v-133h-18v133h18zM401 967v-133h-18v133h18zM293 967v-133h-18v133h18zM534 967v-133h-18v133h18zM570 967v-133h-18v133h18zM606 967v-133h-18v133h18zM498 967v-133h-18v133h18z" />
    <glyph glyph-name="multiply" unicode="&#xd7;" horiz-adv-x="719" 
d="M379 401l13 -12l13 12l-13 13zM354 376l13 -13l12 13l-12 13zM417 363l13 13l-13 13l-12 -13zM392 338l13 12l-13 13l-13 -13zM354 325l13 -13l12 13l-12 13zM328 350l13 -12l13 12l-13 13zM443 338l13 12l-13 13l-13 -13zM417 312l13 13l-13 13l-12 -13zM392 287l13 13
l-13 12l-13 -12zM354 274l13 -13l12 13l-12 13zM328 300l13 -13l13 13l-13 12zM303 325l13 -13l12 13l-12 13zM468 312l13 13l-13 13l-12 -13zM443 287l13 13l-13 12l-13 -12zM417 261l13 13l-13 13l-12 -13zM392 236l13 13l-13 12l-13 -12zM679 498l-172 -173l172 -173
l-13 -12l-172 172l-13 -12l173 -173l-13 -13l-173 173l-12 -13l172 -172l-13 -13l-172 172l-13 -12l173 -173l-13 -13l-173 173l-12 -13l172 -172l-12 -13l-173 172l-173 -172l-12 13l172 172l-12 13l-173 -173l-13 13l173 173l-13 12l-172 -172l-13 13l172 172l-12 13
l-173 -173l-13 13l173 173l-13 12l-172 -172l-13 12l172 173l-172 173l13 12l172 -172l13 12l-173 173l13 13l173 -173l12 13l-172 172l13 13l172 -172l13 12l-173 173l13 13l173 -173l12 13l-172 172l12 13l173 -172l173 172l12 -13l-172 -172l12 -13l173 173l13 -13
l-173 -173l13 -12l172 172l13 -13l-172 -172l12 -13l173 173l13 -13l-173 -173l13 -12l172 172z" />
    <glyph glyph-name="Oslash" unicode="&#xd8;" 
d="M700 651l13 13l-14 12l-12 -12q7 -6 13 -13zM675 626l12 13q-6 6 -13 12l-13 -13zM649 600l13 13q-6 6 -13 12l-13 -12q7 -6 13 -13zM624 575l12 13q-6 6 -13 12l-12 -13q7 -5 13 -12zM275 226l336 336q-7 6 -13 12l-335 -335q6 -6 12 -13zM249 201l13 12q-7 6 -12 13
l-13 -12q6 -7 12 -13zM224 175l13 13q-7 6 -13 13l-12 -13q6 -7 12 -13zM198 150l13 12l-12 14l-13 -13q6 -7 12 -13zM173 125l13 12q-7 6 -13 13l-12 -12q6 -7 12 -13zM725 625l12 12l-12 14l-12 -12zM699 599l13 13l-12 14l-13 -13zM674 574l12 13q-5 7 -11 13l-13 -12z
M648 549l13 12l-12 14l-12 -13q6 -6 11 -13zM302 202l333 333l-12 14l-335 -335zM276 176l12 13q-7 5 -13 11l-13 -12zM250 151l13 12l-14 12l-12 -13q6 -6 13 -11zM225 125l13 13l-14 12l-13 -13zM200 100l12 12l-14 12l-12 -12zM747 596l12 13l-10 14l-13 -12q6 -7 11 -15
zM721 570l13 13q-5 8 -11 15l-13 -13q6 -7 11 -15zM695 544l13 13q-5 8 -11 15l-13 -13q6 -7 11 -15zM669 518l12 13q-4 8 -9 15l-13 -12zM333 182l322 322q-4 9 -9 16l-329 -329q7 -5 16 -9zM306 156l13 12l-16 10l-12 -13q7 -5 15 -9zM280 129l13 13q-8 5 -15 11l-13 -13
q7 -6 15 -11zM254 103l13 13q-8 5 -15 11l-13 -13q7 -6 15 -11zM229 78l12 12q-8 5 -15 11l-12 -12q7 -6 15 -11zM663 487l-313 -313q45 -21 96 -21q98 0 168 70t70 168q0 51 -21 96zM691 514l-14 -13q25 -52 25 -110q0 -107 -74.5 -181.5t-181.5 -74.5q-58 0 -110 25
l-13 -14q58 -29 123 -29q113 0 193.5 80.5t80.5 193.5q0 65 -29 123zM717 541l-13 -13q34 -64 34 -137q0 -121 -85.5 -206.5t-206.5 -85.5q-73 0 -137 34l-13 -13q70 -39 150 -39q128 0 219 91t91 219q0 80 -39 150zM744 568l-14 -14q44 -75 44 -163q0 -136 -96 -232
t-232 -96q-88 0 -163 44l-14 -14q82 -48 177 -48q143 0 244.5 101.5t101.5 244.5q0 95 -48 177zM769 593l-12 -12q53 -87 53 -190q0 -151 -106.5 -257.5t-257.5 -106.5q-103 0 -190 53l-12 -12q93 -58 202 -58q158 0 270 112t112 269q0 110 -59 202zM233 286l318 318
q-49 25 -105 25q-98 0 -168 -70t-70 -168q0 -56 25 -105zM206 259l13 13q-29 56 -29 119q0 107 74.5 181.5t181.5 74.5q63 0 119 -29l13 13q-62 34 -132 34q-113 0 -193.5 -80.5t-80.5 -193.5q0 -70 34 -132zM180 233l13 13q-39 67 -39 145q0 121 85.5 206.5t206.5 85.5
q78 0 145 -39l13 13q-73 44 -158 44q-128 0 -219 -91t-91 -219q0 -85 44 -158zM153 206l13 13q-48 79 -48 172q0 136 96 232t232 96q93 0 172 -48l13 13q-85 53 -185 53q-143 0 -244.5 -101.5t-101.5 -244.5q0 -100 53 -185zM128 181l12 12q-58 90 -58 198
q0 151 106.5 257.5t257.5 106.5q108 0 198 -58l12 12q-95 64 -210 64q-158 0 -270 -112t-112 -270q0 -115 64 -210zM151 178l-13 -12q6 -7 11 -15l13 13q-6 7 -11 14zM177 204l-13 -13l10 -14l13 12q-5 8 -10 15zM202 230l-13 -13q6 -7 11 -15l13 13q-5 7 -11 15zM228 256
l-13 -13q5 -8 11 -15l12 13q-5 7 -10 15zM568 595l-326 -326q4 -8 10 -15l331 331q-7 6 -15 10zM594 622l-13 -13q8 -5 15 -10l13 12q-7 6 -15 11zM620 648l-13 -13q8 -6 15 -11l13 13q-8 5 -15 11zM646 673l-13 -13q7 -5 15 -10l12 13zM671 699l-12 -13q7 -5 14 -11l13 13
q-7 6 -15 11zM742 770l-57 -58q7 -5 14 -11l56 56l13 -13l-55 -55q6 -6 13 -12l54 55l13 -13l-55 -55q6 -6 12 -13l56 55l13 -13l-57 -56q5 -8 11 -15l58 59l13 -13l-61 -61q63 -99 63 -216q0 -166 -117 -282.5t-283 -116.5q-117 0 -215 63l-69 -69l-12 13l65 66
q-7 5 -14 11l-64 -64l-13 13l63 62l-14 12l-61 -62l-13 13l62 62q-7 6 -13 13l-62 -62l-13 13l64 63l-12 14l-64 -65l-13 13l67 67q-68 101 -68 223q0 166 116.5 283t282.5 117q123 0 224 -68l60 60z" />
    <glyph glyph-name="Ugrave" unicode="&#xd9;" horiz-adv-x="641" 
d="M641 280q0 -119 -84.5 -203.5t-204.5 -84.5t-204.5 84.5t-84.5 203.5v502h18v-502q0 -112 79.5 -191t191.5 -79t191.5 79t79.5 191v502h18v-502zM605 280q0 -104 -74 -178.5t-179 -74.5t-179 74.5t-74 178.5v502h18v-502q0 -97 69 -166t166 -69q98 0 166.5 69t68.5 166
v502h18v-502zM569 280q0 -89 -64 -153t-153 -64t-153 64t-64 153v502h18v-502q0 -82 58 -140.5t141 -58.5q82 0 140.5 58.5t58.5 140.5v502h18v-502zM533 280q0 -74 -53.5 -127.5t-127.5 -53.5t-127.5 53.5t-53.5 127.5v502h18v-502q0 -67 48 -115t115 -48q68 0 115.5 48
t47.5 115v502h18v-502zM497 280q0 -60 -42.5 -102.5t-102.5 -42.5t-102.5 42.5t-42.5 102.5v502h18v-502q0 -52 37.5 -89.5t89.5 -37.5q53 0 90 37.5t37 89.5v502h18v-502zM309 974l138 -140h-25l-139 140h26zM359 974l140 -140h-25l-140 140h25zM258 974l138 -140h-25
l-138 140h25z" />
    <glyph glyph-name="Uacute" unicode="&#xda;" horiz-adv-x="641" 
d="M641 280q0 -119 -84.5 -203.5t-204.5 -84.5t-204.5 84.5t-84.5 203.5v502h18v-502q0 -112 79.5 -191t191.5 -79t191.5 79t79.5 191v502h18v-502zM605 280q0 -104 -74 -178.5t-179 -74.5t-179 74.5t-74 178.5v502h18v-502q0 -97 69 -166t166 -69q98 0 166.5 69t68.5 166
v502h18v-502zM569 280q0 -89 -64 -153t-153 -64t-153 64t-64 153v502h18v-502q0 -82 58 -140.5t141 -58.5q82 0 140.5 58.5t58.5 140.5v502h18v-502zM533 280q0 -74 -53.5 -127.5t-127.5 -53.5t-127.5 53.5t-53.5 127.5v502h18v-502q0 -67 48 -115t115 -48q68 0 115.5 48
t47.5 115v502h18v-502zM497 280q0 -60 -42.5 -102.5t-102.5 -42.5t-102.5 42.5t-42.5 102.5v502h18v-502q0 -52 37.5 -89.5t89.5 -37.5q53 0 90 37.5t37 89.5v502h18v-502zM425 974l-139 -140h-25l139 140h25zM374 974l-139 -140h-26l140 140h25zM476 974l-139 -140h-25
l138 140h26z" />
    <glyph glyph-name="Ucircumflex" unicode="&#xdb;" horiz-adv-x="641" 
d="M641 280q0 -119 -84.5 -203.5t-204.5 -84.5t-204.5 84.5t-84.5 203.5v502h18v-502q0 -112 79.5 -191t191.5 -79t191.5 79t79.5 191v502h18v-502zM605 280q0 -104 -74 -178.5t-179 -74.5t-179 74.5t-74 178.5v502h18v-502q0 -97 69 -166t166 -69q98 0 166.5 69t68.5 166
v502h18v-502zM569 280q0 -89 -64 -153t-153 -64t-153 64t-64 153v502h18v-502q0 -82 58 -140.5t141 -58.5q82 0 140.5 58.5t58.5 140.5v502h18v-502zM533 280q0 -74 -53.5 -127.5t-127.5 -53.5t-127.5 53.5t-53.5 127.5v502h18v-502q0 -67 48 -115t115 -48q68 0 115.5 48
t47.5 115v502h18v-502zM497 280q0 -60 -42.5 -102.5t-102.5 -42.5t-102.5 42.5t-42.5 102.5v502h18v-502q0 -52 37.5 -89.5t89.5 -37.5q53 0 90 37.5t37 89.5v502h18v-502zM318 974l-139 -140h-26l140 140h25zM369 974l-139 -140h-25l139 140h25zM382 936l-13 -13l88 -89
h-26l-75 76l-75 -76h-25l138 140h26l139 -140h-25l-127 127l-13 -13l113 -114h-25z" />
    <glyph glyph-name="Udieresis" unicode="&#xdc;" horiz-adv-x="641" 
d="M641 280q0 -119 -84.5 -203.5t-204.5 -84.5t-204.5 84.5t-84.5 203.5v502h18v-502q0 -112 79.5 -191t191.5 -79t191.5 79t79.5 191v502h18v-502zM605 280q0 -104 -74 -178.5t-179 -74.5t-179 74.5t-74 178.5v502h18v-502q0 -97 69 -166t166 -69q98 0 166.5 69t68.5 166
v502h18v-502zM569 280q0 -89 -64 -153t-153 -64t-153 64t-64 153v502h18v-502q0 -82 58 -140.5t141 -58.5q82 0 140.5 58.5t58.5 140.5v502h18v-502zM533 280q0 -74 -53.5 -127.5t-127.5 -53.5t-127.5 53.5t-53.5 127.5v502h18v-502q0 -67 48 -115t115 -48q68 0 115.5 48
t47.5 115v502h18v-502zM497 280q0 -60 -42.5 -102.5t-102.5 -42.5t-102.5 42.5t-42.5 102.5v502h18v-502q0 -52 37.5 -89.5t89.5 -37.5q53 0 90 37.5t37 89.5v502h18v-502zM238 967v-133h-18v133h18zM274 967v-133h-18v133h18zM310 967v-133h-18v133h18zM202 967v-133h-18
v133h18zM443 967v-133h-18v133h18zM479 967v-133h-18v133h18zM515 967v-133h-18v133h18zM407 967v-133h-18v133h18z" />
    <glyph glyph-name="Yacute" unicode="&#xdd;" horiz-adv-x="690" 
d="M438 281l-241 501h19l159 -332l159 332h19l-169 -352l9 -18l179 370h19l-189 -389l9 -19l198 408h19l-208 -427l9 -18l218 445h19l-228 -464l9 -18l239 482h19l-249 -501v-281h-18v281zM420 0h-18v281l-243 501h19l242 -501v-281zM384 0h-18v281l-244 501h19l243 -501
v-281zM348 0h-18v281l-246 501h19l245 -501v-281zM312 0h-18v281l-250 501h19l249 -501v-281zM430 974l-138 -140h-26l139 140h25zM379 974l-139 -140h-25l139 140h25zM481 974l-139 -140h-25l139 140h25z" />
    <glyph glyph-name="Thorn" unicode="&#xde;" horiz-adv-x="594" 
d="M117 620v-620h-18v620h18zM153 620v-620h-18v620h18zM189 620v-620h-18v620h18zM81 620v-620h-18v620h18zM225 602v-18h122q86 0 147.5 -61.5t61.5 -147.5t-61.5 -147.5t-147.5 -61.5h-122v-18h122q95 0 161 66.5t66 160.5q0 95 -66 161t-161 66h-122zM225 566v-18h122
q72 0 122.5 -51t50.5 -122t-51 -122t-122 -51h-122v-18h122q79 0 135 56t56 135t-56 135t-135 56h-122zM225 530v-18h122q57 0 97 -40.5t40 -96.5t-40.5 -96.5t-96.5 -40.5h-122v-18h122q64 0 109.5 45.5t45.5 109.5t-45.5 109.5t-109.5 45.5h-122zM225 494v-18h122
q42 0 71.5 -29.5t29.5 -71.5t-29.5 -71.5t-71.5 -29.5h-122v-18h122q49 0 84 35t35 84t-35 84t-84 35h-122zM225 459v-168h122q34 0 58.5 25t24.5 59t-24.5 59t-58.5 25h-122zM347 620q101 0 173 -72t72 -173t-72 -173t-173 -72h-122v-130h-18v620h140z" />
    <glyph glyph-name="germandbls" unicode="&#xdf;" horiz-adv-x="978" 
d="M970 636q-25 61 -79.5 99t-121.5 38q-88 0 -152 -63.5t-64 -152.5q0 -84 56.5 -144.5t139.5 -68.5q44 -4 72 -33.5t28 -71.5q0 -43 -30 -73.5t-73 -30.5q-64 0 -93 60l15 9q21 -51 78 -51q35 0 60 25.5t25 60.5q0 34 -24 59t-58 28q-89 7 -151 73.5t-62 157.5
q0 97 68 165.5t165 68.5q72 0 130.5 -40.5t85.5 -104.5zM907 600q-14 45 -52 73t-86 28q-59 0 -101.5 -42.5t-42.5 -101.5q0 -56 38 -97t93 -46q72 -6 118.5 -55.5t46.5 -119.5q0 -72 -51.5 -124t-123.5 -52q-49 0 -90 24.5t-63 65.5l15 10q45 -82 138 -82q65 0 111 46.5
t46 111.5q0 62 -43.5 107.5t-104.5 50.5t-104 51t-43 109q0 67 47 114.5t114 47.5q52 0 93.5 -31t58.5 -79zM840 561q-2 28 -22.5 48t-48.5 20q-29 0 -50 -21.5t-21 -50.5t19.5 -49.5t47.5 -22.5q93 -7 159 -75q69 -72 69 -171q0 -102 -72.5 -174.5t-174.5 -72.5
q-66 0 -122.5 32.5t-90.5 87.5l16 10q66 -112 197 -112q95 0 162 67t67 162q0 93 -62 157t-150 72q-37 3 -60.5 28t-23.5 61q0 38 26.5 64t63.5 26q33 0 58.5 -22t30.5 -53zM874 581q-7 36 -37 60t-68 24q-44 0 -76 -32t-32 -76q0 -42 28.5 -72.5t71.5 -34.5
q81 -7 138.5 -66.5t57.5 -144.5q0 -87 -62 -149.5t-149 -62.5q-117 0 -183 105l15 11q25 -44 70 -71t98 -27q80 0 136.5 57t56.5 137q0 77 -51 131.5t-129 61.5q-48 5 -81.5 41t-33.5 84q0 52 36.5 89t88.5 37q43 0 76.5 -26t44.5 -67zM938 617q-18 53 -65 86.5t-104 33.5
q-74 0 -127 -53t-53 -127q0 -70 47.5 -121t115.5 -57q56 -5 94.5 -44.5t38.5 -95.5q0 -58 -40.5 -99t-98.5 -41q-86 0 -123 74l15 11q34 -67 108 -67q50 0 85.5 36t35.5 86q0 48 -33.5 83.5t-82.5 39.5q-75 6 -126.5 62t-51.5 133q0 82 57 140t139 58q63 0 113 -35.5
t71 -92.5zM481 636q-25 61 -79.5 99t-121.5 38q-88 0 -152 -63.5t-64 -152.5q0 -84 56.5 -144.5t139.5 -68.5q44 -4 72 -33.5t28 -71.5q0 -43 -30 -73.5t-73 -30.5q-64 0 -93 60l15 9q21 -51 78 -51q35 0 60 25.5t25 60.5q0 34 -24 59t-58 28q-89 7 -151 73.5t-62 157.5
q0 97 68 165.5t165 68.5q72 0 130.5 -40.5t85.5 -104.5zM418 600q-14 45 -52 73t-86 28q-59 0 -101.5 -42.5t-42.5 -101.5q0 -56 38 -97t93 -46q72 -6 118.5 -55.5t46.5 -119.5q0 -72 -51.5 -124t-123.5 -52q-49 0 -90 24.5t-63 65.5l15 10q45 -82 138 -82q65 0 111 46.5
t46 111.5q0 62 -43.5 107.5t-104.5 50.5t-104 51t-43 109q0 67 47 114.5t114 47.5q52 0 93.5 -31t58.5 -79zM351 561q-2 28 -22.5 48t-48.5 20q-29 0 -50 -21.5t-21 -50.5t19.5 -49.5t47.5 -22.5q93 -7 159 -75q69 -72 69 -171q0 -102 -72.5 -174.5t-174.5 -72.5
q-66 0 -122.5 32.5t-90.5 87.5l16 10q66 -112 197 -112q95 0 162 67t67 162q0 93 -62 157t-150 72q-37 3 -60.5 28t-23.5 61q0 38 26.5 64t63.5 26q33 0 58.5 -22t30.5 -53zM385 581q-7 36 -37 60t-68 24q-44 0 -76 -32t-32 -76q0 -42 28.5 -72.5t71.5 -34.5
q81 -7 138.5 -66.5t57.5 -144.5q0 -87 -62 -149.5t-149 -62.5q-117 0 -183 105l15 11q25 -44 70 -71t98 -27q80 0 136.5 57t56.5 137q0 77 -51 131.5t-129 61.5q-48 5 -81.5 41t-33.5 84q0 52 36.5 89t88.5 37q43 0 76.5 -26t44.5 -67zM449 617q-18 53 -65 86.5t-104 33.5
q-74 0 -127 -53t-53 -127q0 -70 47.5 -121t115.5 -57q56 -5 94.5 -44.5t38.5 -95.5q0 -58 -40.5 -99t-98.5 -41q-86 0 -123 74l15 11q34 -67 108 -67q50 0 85.5 36t35.5 86q0 48 -33.5 83.5t-82.5 39.5q-75 6 -126.5 62t-51.5 133q0 82 57 140t139 58q63 0 113 -35.5
t71 -92.5z" />
    <glyph glyph-name="agrave" unicode="&#xe0;" horiz-adv-x="819" 
d="M302 211l-7 -18h286l-6 18h-273zM316 247l-7 -18h259l-7 18h-245zM540 301l-101 259l-102 -259h203zM331 283l-8 -18h231l-6 18h-217zM596 158l-6 17h-301l-8 -17h315zM275 140l-55 -140h-19l305 782h20l306 -782h-20l-296 758l-10 -24l286 -734h-19l-276 708l-10 -24
l268 -684h-20l-257 660l-10 -25l249 -635h-20l-238 611l-10 -27l228 -584h-19l-54 140h-329zM486 782l-305 -782h-20l306 782h19zM448 782l-305 -782h-20l306 782h19zM410 782l-305 -782h-20l305 782h20zM370 782l-304 -782h-21l306 782h19zM351 974l138 -140h-25l-138 140
h25zM402 974l139 -140h-25l-140 140h26zM300 974l139 -140h-26l-138 140h25z" />
    <glyph glyph-name="aacute" unicode="&#xe1;" horiz-adv-x="819" 
d="M302 211l-7 -18h286l-6 18h-273zM316 247l-7 -18h259l-7 18h-245zM540 301l-101 259l-102 -259h203zM331 283l-8 -18h231l-6 18h-217zM596 158l-6 17h-301l-8 -17h315zM275 140l-55 -140h-19l305 782h20l306 -782h-20l-296 758l-10 -24l286 -734h-19l-276 708l-10 -24
l268 -684h-20l-257 660l-10 -25l249 -635h-20l-238 611l-10 -27l228 -584h-19l-54 140h-329zM486 782l-305 -782h-20l306 782h19zM448 782l-305 -782h-20l306 782h19zM410 782l-305 -782h-20l305 782h20zM370 782l-304 -782h-21l306 782h19zM552 974l-139 -140h-25l138 140
h26zM501 974l-139 -140h-26l140 140h25zM603 974l-139 -140h-25l138 140h26z" />
    <glyph glyph-name="acircumflex" unicode="&#xe2;" horiz-adv-x="819" 
d="M302 211l-7 -18h286l-6 18h-273zM316 247l-7 -18h259l-7 18h-245zM540 301l-101 259l-102 -259h203zM331 283l-8 -18h231l-6 18h-217zM596 158l-6 17h-301l-8 -17h315zM275 140l-55 -140h-19l305 782h20l306 -782h-20l-296 758l-10 -24l286 -734h-19l-276 708l-10 -24
l268 -684h-20l-257 660l-10 -25l249 -635h-20l-238 611l-10 -27l228 -584h-19l-54 140h-329zM486 782l-305 -782h-20l306 782h19zM448 782l-305 -782h-20l306 782h19zM410 782l-305 -782h-20l305 782h20zM370 782l-304 -782h-21l306 782h19zM392 974l-139 -140h-26l140 140
h25zM443 974l-139 -140h-25l139 140h25zM456 936l-13 -13l88 -89h-26l-75 76l-75 -76h-25l138 140h26l139 -140h-25l-127 127l-13 -13l113 -114h-25z" />
    <glyph glyph-name="atilde" unicode="&#xe3;" horiz-adv-x="819" 
d="M302 211l-7 -18h286l-6 18h-273zM316 247l-7 -18h259l-7 18h-245zM540 301l-101 259l-102 -259h203zM331 283l-8 -18h231l-6 18h-217zM596 158l-6 17h-301l-8 -17h315zM275 140l-55 -140h-19l305 782h20l306 -782h-20l-296 758l-10 -24l286 -734h-19l-276 708l-10 -24
l268 -684h-20l-257 660l-10 -25l249 -635h-20l-238 611l-10 -27l228 -584h-19l-54 140h-329zM486 782l-305 -782h-20l306 782h19zM448 782l-305 -782h-20l306 782h19zM410 782l-305 -782h-20l305 782h20zM370 782l-304 -782h-21l306 782h19zM337 940q-57 0 -100 -17v19
q54 16 100 16q53 0 103.5 -17.5t99.5 -17.5q56 0 103 17v-19q-52 -16 -103 -16q-49 0 -100 17.5t-103 17.5zM337 904q-51 0 -100 -19v19q50 18 100 18q52 0 103 -17.5t100 -17.5q45 0 103 15v-18q-49 -15 -103 -15q-49 0 -99.5 17.5t-103.5 17.5zM540 851q66 0 103 14v-18
q-38 -14 -103 -14q-49 0 -100 17.5t-103 17.5q-49 0 -100 -22v20q50 20 100 20q53 0 103.5 -17.5t99.5 -17.5z" />
    <glyph glyph-name="adieresis" unicode="&#xe4;" horiz-adv-x="819" 
d="M302 211l-7 -18h286l-6 18h-273zM316 247l-7 -18h259l-7 18h-245zM540 301l-101 259l-102 -259h203zM331 283l-8 -18h231l-6 18h-217zM596 158l-6 17h-301l-8 -17h315zM275 140l-55 -140h-19l305 782h20l306 -782h-20l-296 758l-10 -24l286 -734h-19l-276 708l-10 -24
l268 -684h-20l-257 660l-10 -25l249 -635h-20l-238 611l-10 -27l228 -584h-19l-54 140h-329zM486 782l-305 -782h-20l306 782h19zM448 782l-305 -782h-20l306 782h19zM410 782l-305 -782h-20l305 782h20zM370 782l-304 -782h-21l306 782h19zM318 967v-133h-18v133h18z
M354 967v-133h-18v133h18zM390 967v-133h-18v133h18zM282 967v-133h-18v133h18zM523 967v-133h-18v133h18zM559 967v-133h-18v133h18zM595 967v-133h-18v133h18zM487 967v-133h-18v133h18z" />
    <glyph glyph-name="aring" unicode="&#xe5;" horiz-adv-x="819" 
d="M304 211l-7 -18h287l-7 18h-273zM318 247l-7 -18h259l-7 18h-245zM542 301l-101 259l-102 -259h203zM333 283l-7 -18h230l-6 18h-217zM598 158l-6 17h-301l-8 -17h315zM277 140l-55 -140h-19l305 782h21l305 -782h-20l-296 758l-10 -24l286 -734h-19l-276 708l-10 -24
l268 -684h-20l-257 660l-10 -25l249 -635h-20l-238 611l-10 -27l228 -584h-19l-54 140h-329zM488 782l-305 -782h-20l306 782h19zM450 782l-305 -782h-20l306 782h19zM412 782l-305 -782h-20l305 782h20zM372 782l-304 -782h-20l305 782h19zM443 1132q62 0 106 -44t44 -106
q0 -61 -44 -105.5t-106 -44.5t-106 44t-44 106t44 106t106 44zM311 982q0 -55 38.5 -93.5t93.5 -38.5t93.5 38.5t38.5 93.5t-38.5 93.5t-93.5 38.5t-93.5 -38.5t-38.5 -93.5zM443 1096q47 0 80.5 -33.5t33.5 -80.5t-33.5 -80.5t-80.5 -33.5q-48 0 -81 33.5t-33 80.5t33 80.5
t81 33.5zM347 982q0 -40 28 -68t68 -28t68 28t28 68t-28 68t-68 28t-68 -28t-28 -68zM443 1060q32 0 55 -23t23 -55t-23 -55t-55 -23t-55 23t-23 55t23 55t55 23zM383 982q0 -25 17.5 -42.5t42.5 -17.5t42.5 17.5t17.5 42.5t-17.5 42.5t-42.5 17.5t-42.5 -17.5t-17.5 -42.5z
" />
    <glyph glyph-name="ae" unicode="&#xe6;" horiz-adv-x="1267" 
d="M310 211l-8 -18h287l-7 18h-272zM323 247l-7 -18h259l-6 18h-246zM548 301l-102 259l-101 -259h203zM338 283l-7 -18h230l-6 18h-217zM604 158l-7 17h-301l-7 -17h315zM837 782l2 -782h-20l-296 758l-9 -24l285 -734h-19l-276 708l-9 -24l267 -684h-20l-257 660l-9 -25
l248 -635h-20l-238 611l-9 -27l227 -584h-19l-54 140h-329l-55 -140h-19l306 782h20l285 -731v731h18zM494 782l-306 -782h-20l307 782h19zM456 782l-306 -782h-20l307 782h19zM418 782l-306 -782h-20l305 782h21zM377 782l-304 -782h-20l305 782h19zM945 782v-782h-18v782
h18zM909 782v-782h-18v782h18zM873 782v-782h-18v782h18zM981 347v-18h217v-18h-217v-149h292v-18h-292v-18h292v-18h-292v-18h292v-18h-292v-18h292v-18h-292v-18h292v-18h-310v782h310v-18h-292v-18h292v-18h-292v-18h292v-18h-292v-18h292v-18h-292v-18h292v-17h-292
v-148h217v-18h-217v-18h217v-18h-217v-18h217v-18h-217v-18h217v-18h-217z" />
    <glyph glyph-name="ccedilla" unicode="&#xe7;" horiz-adv-x="493" 
d="M497 625q-30 4 -48 4q-98 0 -168 -70t-70 -168t70 -168t168 -70q24 0 48 6v-19q-20 -5 -48 -5q-106 0 -181 75t-75 181t75 181t181 75q27 0 48 -4v-18zM497 661q-21 4 -48 4q-113 0 -193.5 -80.5t-80.5 -193.5t80.5 -193.5t193.5 -80.5q28 0 48 5v-18q-20 -5 -48 -5
q-120 0 -205.5 85.5t-85.5 206.5t85.5 206.5t205.5 85.5q27 0 48 -4v-18zM497 697q-19 4 -48 4q-128 0 -218.5 -91t-90.5 -219t90.5 -219t218.5 -91q27 0 48 4v-18q-21 -4 -48 -4q-136 0 -231.5 96t-95.5 232t95.5 232t231.5 96q24 0 48 -3v-19zM497 734q-24 3 -48 3
q-143 0 -244 -101.5t-101 -244.5t101 -244.5t244 -101.5q16 0 48 4v-18q-32 -4 -48 -4q-151 0 -257 106.5t-106 257.5t106 257.5t257 106.5q24 0 48 -3v-18zM421 -31l-124 -123l-13 12l124 124zM446 -56l-124 -124l-12 13l123 124zM395 -5l-123 -124l-13 13l116 115
q-140 26 -232.5 136.5t-92.5 255.5q0 166 116.5 283t282.5 117q24 0 48 -3v-18q-24 3 -48 3q-157 0 -269 -112t-112 -270q0 -157 112 -269t269 -112q24 0 48 3v-18q-24 -3 -48 -3q-33 0 -54 3z" />
    <glyph glyph-name="egrave" unicode="&#xe8;" horiz-adv-x="513" 
d="M81 782v-782h-18v782h18zM189 782v-782h-18v782h18zM153 782v-782h-18v782h18zM117 782v-782h-18v782h18zM225 347v-18h217v-18h-217v-149h292v-18h-292v-18h292v-18h-292v-18h292v-18h-292v-18h292v-18h-292v-18h292v-18h-310v782h310v-18h-292v-18h292v-18h-292v-18
h292v-18h-292v-18h292v-18h-292v-18h292v-17h-292v-148h217v-18h-217v-18h217v-18h-217v-18h217v-18h-217v-18h217v-18h-217zM266 974l139 -140h-26l-138 140h25zM317 974l140 -140h-26l-139 140h25zM216 974l138 -140h-25l-139 140h26z" />
    <glyph glyph-name="eacute" unicode="&#xe9;" horiz-adv-x="513" 
d="M81 782v-782h-18v782h18zM189 782v-782h-18v782h18zM153 782v-782h-18v782h18zM117 782v-782h-18v782h18zM225 347v-18h217v-18h-217v-149h292v-18h-292v-18h292v-18h-292v-18h292v-18h-292v-18h292v-18h-292v-18h292v-18h-310v782h310v-18h-292v-18h292v-18h-292v-18
h292v-18h-292v-18h292v-18h-292v-18h292v-17h-292v-148h217v-18h-217v-18h217v-18h-217v-18h217v-18h-217v-18h217v-18h-217zM372 974l-138 -140h-26l139 140h25zM321 974l-139 -140h-26l140 140h25zM423 974l-139 -140h-25l138 140h26z" />
    <glyph glyph-name="ecircumflex" unicode="&#xea;" horiz-adv-x="513" 
d="M81 782v-782h-18v782h18zM189 782v-782h-18v782h18zM153 782v-782h-18v782h18zM117 782v-782h-18v782h18zM225 347v-18h217v-18h-217v-149h292v-18h-292v-18h292v-18h-292v-18h292v-18h-292v-18h292v-18h-292v-18h292v-18h-310v782h310v-18h-292v-18h292v-18h-292v-18
h292v-18h-292v-18h292v-18h-292v-18h292v-17h-292v-148h217v-18h-217v-18h217v-18h-217v-18h217v-18h-217v-18h217v-18h-217zM255 974l-140 -140h-25l139 140h26zM305 974l-138 -140h-25l138 140h25zM318 936l-13 -13l88 -89h-25l-75 76l-75 -76h-26l139 140h25l140 -140
h-26l-126 127l-13 -13l113 -114h-25z" />
    <glyph glyph-name="edieresis" unicode="&#xeb;" horiz-adv-x="513" 
d="M81 782v-782h-18v782h18zM189 782v-782h-18v782h18zM153 782v-782h-18v782h18zM117 782v-782h-18v782h18zM225 347v-18h217v-18h-217v-149h292v-18h-292v-18h292v-18h-292v-18h292v-18h-292v-18h292v-18h-292v-18h292v-18h-310v782h310v-18h-292v-18h292v-18h-292v-18
h292v-18h-292v-18h292v-18h-292v-18h292v-17h-292v-148h217v-18h-217v-18h217v-18h-217v-18h217v-18h-217v-18h217v-18h-217zM196 967v-133h-18v133h18zM232 967v-133h-18v133h18zM267 967v-133h-18v133h18zM160 967v-133h-18v133h18zM401 967v-133h-18v133h18zM437 967
v-133h-18v133h18zM473 967v-133h-18v133h18zM365 967v-133h-18v133h18z" />
    <glyph glyph-name="igrave" unicode="&#xec;" horiz-adv-x="225" 
d="M117 782v-782h-18v782h18zM153 782v-782h-18v782h18zM189 782v-782h-18v782h18zM225 782v-782h-18v782h18zM81 782v-782h-18v782h18zM76 974l139 -140h-26l-138 140h25zM127 974l139 -140h-25l-140 140h26zM25 974l139 -140h-26l-138 140h25z" />
    <glyph glyph-name="iacute" unicode="&#xed;" horiz-adv-x="225" 
d="M117 782v-782h-18v782h18zM153 782v-782h-18v782h18zM189 782v-782h-18v782h18zM225 782v-782h-18v782h18zM81 782v-782h-18v782h18zM245 974l-138 -140h-26l139 140h25zM195 974l-140 -140h-25l139 140h26zM296 974l-138 -140h-26l139 140h25z" />
    <glyph glyph-name="icircumflex" unicode="&#xee;" horiz-adv-x="225" 
d="M117 782v-782h-18v782h18zM153 782v-782h-18v782h18zM189 782v-782h-18v782h18zM225 782v-782h-18v782h18zM81 782v-782h-18v782h18zM107 974l-140 -140h-25l139 140h26zM158 974l-139 -140h-25l138 140h26zM170 936l-12 -13l87 -89h-25l-75 76l-75 -76h-26l139 140h25
l140 -140h-26l-126 127l-13 -13l113 -114h-25z" />
    <glyph glyph-name="idieresis" unicode="&#xef;" horiz-adv-x="225" 
d="M117 782v-782h-18v782h18zM153 782v-782h-18v782h18zM189 782v-782h-18v782h18zM225 782v-782h-18v782h18zM81 782v-782h-18v782h18zM26 967v-133h-18v133h18zM62 967v-133h-18v133h18zM98 967v-133h-18v133h18zM-10 967v-133h-17v133h17zM232 967v-133h-18v133h18z
M267 967v-133h-18v133h18zM303 967v-133h-18v133h18zM196 967v-133h-18v133h18z" />
    <glyph glyph-name="eth" unicode="&#xf0;" horiz-adv-x="601" 
d="M225 36v-18q155 3 264 111t109 262t-109 262t-264 111v-18q149 -3 252 -105t103 -250t-103 -250t-252 -105zM225 72v-18q141 3 239 100t98 237t-98 237t-239 100v-18q134 -3 226.5 -94.5t92.5 -224.5q0 -132 -93 -224t-226 -95zM225 108v-18q126 3 213.5 89.5t87.5 211.5
t-87.5 211.5t-213.5 89.5v-18q119 -3 201 -84t82 -199q0 -117 -82.5 -198.5t-200.5 -84.5zM225 144v-18q111 3 188 79t77 186t-77 186t-188 79v-18q105 -3 176.5 -73.5t71.5 -173.5t-72 -173.5t-176 -73.5zM99 373h-18v-18h18v18zM135 373h-18v-18h18v18zM171 373h-18v-18
h18v18zM207 373h-18v-18h18v18zM99 409h-18v-18h18v18zM135 409h-18v-18h18v18zM171 409h-18v-18h18v18zM207 409h-18v-18h18v18zM99 445h-18v-18h18v18zM135 445h-18v-18h18v18zM171 445h-18v-18h18v18zM207 445h-18v-18h18v18zM225 319h149v-18h-149v-139q96 3 163 68.5
t67 160.5t-67 160.5t-163 69.5v-158h149v-18h-149v-18h149v-18h-149v-18h149v-18h-149v-18h149v-18h-149v-18zM189 319h18v18h-18v-18zM153 319h18v18h-18v-18zM117 319h18v18h-18v-18zM81 319h18v18h-18v-18zM0 319h63v18h-63v18h63v18h-63v18h63v18h-63v18h63v18h-63v18
h63v319h18v-319h18v319h18v-319h18v319h18v-319h18v319h18v-319h18v319h18q164 0 277.5 -113.5t113.5 -277.5t-114.5 -277.5t-276.5 -113.5h-18v301h-18v-301h-18v301h-18v-301h-18v301h-18v-301h-18v301h-18v-301h-18v301h-63v18zM225 18z" />
    <glyph glyph-name="ntilde" unicode="&#xf1;" horiz-adv-x="702" 
d="M209 782l450 -782h-21l-450 782h21zM168 782l450 -782h-22l-449 782h21zM126 782l450 -782h-21l-449 782h20zM593 187l18 -31v626h18v-657l18 -31v688h18v-720l18 -30v750h18v-782h-22l-450 782h20l290 -502v502h18v-533l18 -30v563h18v-595zM99 720l-18 32v-752h-18v782
h19l453 -782h-22l-288 501v-501h-18v532l-18 31v-563h-18v594l-18 32v-626h-18v658l-18 31v-689h-18v720zM278 940q-57 0 -100 -17v19q54 16 100 16q53 0 103.5 -17.5t99.5 -17.5q56 0 103 17v-19q-52 -16 -103 -16q-49 0 -100 17.5t-103 17.5zM278 904q-51 0 -100 -19v19
q50 18 100 18q52 0 103 -17.5t100 -17.5q45 0 103 15v-18q-49 -15 -103 -15q-49 0 -99.5 17.5t-103.5 17.5zM481 851q66 0 103 14v-18q-40 -14 -103 -14q-49 0 -100 17.5t-103 17.5q-49 0 -100 -22v20q50 20 100 20q53 0 103.5 -17.5t99.5 -17.5z" />
    <glyph glyph-name="ograve" unicode="&#xf2;" 
d="M446 -8q-166 0 -282.5 116.5t-116.5 282.5t116.5 283t282.5 117t283 -117t117 -283t-117 -282.5t-283 -116.5zM64 391q0 -157 112 -269t270 -112t270 112t112 269q0 158 -112 270t-270 112q-157 0 -269.5 -112t-112.5 -270zM446 27q-151 0 -257.5 106.5t-106.5 257.5
t106.5 257.5t257.5 106.5t257.5 -106.5t106.5 -257.5t-106.5 -257.5t-257.5 -106.5zM100 391q0 -143 101.5 -244.5t244.5 -101.5t244.5 101.5t101.5 244.5t-101.5 244.5t-244.5 101.5t-244.5 -101.5t-101.5 -244.5zM446 63q-136 0 -232 96t-96 232t96 232t232 96t232 -96
t96 -232t-96 -232t-232 -96zM136 391q0 -128 91 -219t219 -91t219 91t91 219t-91 219t-219 91t-219 -91t-91 -219zM446 99q-121 0 -206.5 85.5t-85.5 206.5t85.5 206.5t206.5 85.5t206.5 -85.5t85.5 -206.5t-85.5 -206.5t-206.5 -85.5zM172 391q0 -113 80.5 -193.5
t193.5 -80.5t193.5 80.5t80.5 193.5t-80.5 193.5t-193.5 80.5t-193.5 -80.5t-80.5 -193.5zM446 135q-106 0 -181 75t-75 181q0 107 75 181.5t181 74.5q107 0 181.5 -74.5t74.5 -181.5q0 -106 -74.5 -181t-181.5 -75zM208 391q0 -98 70 -168t168 -70t168 70t70 168t-70 168
t-168 70t-168 -70t-70 -168zM377 974l139 -140h-26l-138 140h25zM428 974l140 -140h-26l-139 140h25zM327 974l138 -140h-25l-139 140h26z" />
    <glyph glyph-name="oacute" unicode="&#xf3;" 
d="M448 -8q-166 0 -282.5 116.5t-116.5 282.5t116.5 283t282.5 117t283 -117t117 -283t-117 -282.5t-283 -116.5zM67 391q0 -157 112 -269t269 -112q158 0 270 111.5t112 269.5t-112 270t-270 112q-157 0 -269 -112t-112 -270zM448 27q-151 0 -257 106.5t-106 257.5
t106 257.5t257 106.5t257.5 -106.5t106.5 -257.5t-106.5 -257.5t-257.5 -106.5zM103 391q0 -143 101 -244.5t244 -101.5q144 0 245 101.5t101 244.5t-101 244.5t-245 101.5q-143 0 -244 -101.5t-101 -244.5zM448 63q-136 0 -231.5 96t-95.5 232t95.5 232t231.5 96t232 -96
t96 -232t-96 -232t-232 -96zM138 391q0 -128 91 -219t219 -91t219 91t91 219t-91 219t-219 91t-219 -91t-91 -219zM448 99q-120 0 -206 85.5t-86 206.5t86 206.5t206 85.5q121 0 206.5 -85.5t85.5 -206.5t-85.5 -206.5t-206.5 -85.5zM174 391q0 -113 80.5 -193.5
t193.5 -80.5t193.5 80.5t80.5 193.5t-80.5 193.5t-193.5 80.5t-193.5 -80.5t-80.5 -193.5zM448 135q-106 0 -181 75t-75 181t75 181t181 75q107 0 181.5 -74.5t74.5 -181.5q0 -106 -74.5 -181t-181.5 -75zM210 391q0 -98 70 -168t168 -70t168 70t70 168t-70 168t-168 70
t-168 -70t-70 -168zM578 974l-138 -140h-26l139 140h25zM527 974l-139 -140h-25l139 140h25zM629 974l-139 -140h-25l139 140h25z" />
    <glyph glyph-name="ocircumflex" unicode="&#xf4;" 
d="M446 -8q-166 0 -282.5 116.5t-116.5 282.5t116.5 283t282.5 117t283 -117t117 -283t-117 -282.5t-283 -116.5zM64 391q0 -157 112 -269t270 -112t270 112t112 269q0 158 -112 270t-270 112q-157 0 -269.5 -112t-112.5 -270zM446 27q-151 0 -257.5 106.5t-106.5 257.5
t106.5 257.5t257.5 106.5t257.5 -106.5t106.5 -257.5t-106.5 -257.5t-257.5 -106.5zM100 391q0 -143 101.5 -244.5t244.5 -101.5t244.5 101.5t101.5 244.5t-101.5 244.5t-244.5 101.5t-244.5 -101.5t-101.5 -244.5zM446 63q-136 0 -232 96t-96 232t96 232t232 96t232 -96
t96 -232t-96 -232t-232 -96zM136 391q0 -128 91 -219t219 -91t219 91t91 219t-91 219t-219 91t-219 -91t-91 -219zM446 99q-121 0 -206.5 85.5t-85.5 206.5t85.5 206.5t206.5 85.5t206.5 -85.5t85.5 -206.5t-85.5 -206.5t-206.5 -85.5zM172 391q0 -113 80.5 -193.5
t193.5 -80.5t193.5 80.5t80.5 193.5t-80.5 193.5t-193.5 80.5t-193.5 -80.5t-80.5 -193.5zM446 135q-106 0 -181 75t-75 181q0 107 75 181.5t181 74.5q107 0 181.5 -74.5t74.5 -181.5q0 -106 -74.5 -181t-181.5 -75zM208 391q0 -98 70 -168t168 -70t168 70t70 168t-70 168
t-168 70t-168 -70t-70 -168zM402 974l-140 -140h-25l139 140h26zM452 974l-138 -140h-25l138 140h25zM465 936l-13 -13l88 -89h-25l-75 76l-75 -76h-26l139 140h25l140 -140h-26l-127 127l-12 -13l113 -114h-25z" />
    <glyph glyph-name="otilde" unicode="&#xf5;" 
d="M451 -8q-166 0 -282.5 116.5t-116.5 282.5t116.5 283t282.5 117t283 -117t117 -283t-117 -282.5t-283 -116.5zM70 391q0 -157 112 -269t269 -112q158 0 270 111.5t112 269.5t-112 270t-270 112q-157 0 -269 -112t-112 -270zM451 27q-150 0 -256.5 106.5t-106.5 257.5
t106.5 257.5t256.5 106.5q151 0 257.5 -106.5t106.5 -257.5t-106.5 -257.5t-257.5 -106.5zM106 391q0 -143 101 -244.5t244 -101.5q144 0 245 101.5t101 244.5t-101 244.5t-245 101.5q-143 0 -244 -101.5t-101 -244.5zM451 63q-135 0 -231 96t-96 232t96 232t231 96
q136 0 232 -96t96 -232t-96 -232t-232 -96zM142 391q0 -128 90.5 -219t218.5 -91q129 0 219.5 91t90.5 219t-90.5 219t-219.5 91q-128 0 -218.5 -91t-90.5 -219zM451 99q-120 0 -205.5 85.5t-85.5 206.5t85.5 206.5t205.5 85.5q121 0 206.5 -85.5t85.5 -206.5t-85.5 -206.5
t-206.5 -85.5zM178 391q0 -113 80 -193.5t193 -80.5q114 0 194 80.5t80 193.5t-80 193.5t-194 80.5q-113 0 -193 -80.5t-80 -193.5zM451 135q-106 0 -180.5 75t-74.5 181t74.5 181t180.5 75q107 0 181.5 -74.5t74.5 -181.5q0 -106 -74.5 -181t-181.5 -75zM214 391
q0 -98 69.5 -168t167.5 -70t168 70t70 168t-70 168t-168 70t-167.5 -70t-69.5 -168zM347 940q-58 0 -101 -17v19q56 16 101 16q52 0 102.5 -17.5t100.5 -17.5q57 0 102 17v-19q-50 -16 -102 -16q-50 0 -101 17.5t-102 17.5zM347 904q-50 0 -101 -19v19q52 18 101 18
q51 0 102 -17.5t101 -17.5q46 0 102 15v-18q-47 -15 -102 -15q-50 0 -100.5 17.5t-102.5 17.5zM550 851q65 0 102 14v-18q-38 -14 -102 -14q-50 0 -101 17.5t-102 17.5q-48 0 -101 -22v20q52 20 101 20q52 0 102.5 -17.5t100.5 -17.5z" />
    <glyph glyph-name="odieresis" unicode="&#xf6;" 
d="M446 -8q-166 0 -282.5 116.5t-116.5 282.5t116.5 283t282.5 117t283 -117t117 -283t-117 -282.5t-283 -116.5zM64 391q0 -157 112 -269t270 -112t270 112t112 269q0 158 -112 270t-270 112q-157 0 -269.5 -112t-112.5 -270zM446 27q-151 0 -257.5 106.5t-106.5 257.5
t106.5 257.5t257.5 106.5t257.5 -106.5t106.5 -257.5t-106.5 -257.5t-257.5 -106.5zM100 391q0 -143 101.5 -244.5t244.5 -101.5t244.5 101.5t101.5 244.5t-101.5 244.5t-244.5 101.5t-244.5 -101.5t-101.5 -244.5zM446 63q-136 0 -232 96t-96 232t96 232t232 96t232 -96
t96 -232t-96 -232t-232 -96zM136 391q0 -128 91 -219t219 -91t219 91t91 219t-91 219t-219 91t-219 -91t-91 -219zM446 99q-121 0 -206.5 85.5t-85.5 206.5t85.5 206.5t206.5 85.5t206.5 -85.5t85.5 -206.5t-85.5 -206.5t-206.5 -85.5zM172 391q0 -113 80.5 -193.5
t193.5 -80.5t193.5 80.5t80.5 193.5t-80.5 193.5t-193.5 80.5t-193.5 -80.5t-80.5 -193.5zM446 135q-106 0 -181 75t-75 181q0 107 75 181.5t181 74.5q107 0 181.5 -74.5t74.5 -181.5q0 -106 -74.5 -181t-181.5 -75zM208 391q0 -98 70 -168t168 -70t168 70t70 168t-70 168
t-168 70t-168 -70t-70 -168zM329 967v-133h-18v133h18zM365 967v-133h-18v133h18zM401 967v-133h-18v133h18zM293 967v-133h-18v133h18zM534 967v-133h-18v133h18zM570 967v-133h-18v133h18zM606 967v-133h-18v133h18zM498 967v-133h-18v133h18z" />
    <glyph glyph-name="divide" unicode="&#xf7;" horiz-adv-x="466" 
d="M63 301h398v-18h-398v18zM63 337h398v-18h-398v18zM63 373h398v-18h-398v18zM63 409h398v-18h-398v18zM63 265h398v-18h-398v18zM236 176v-175h-18v175h18zM272 176v-175h-18v175h18zM308 176v-175h-18v175h18zM344 176v-175h-18v175h18zM200 176v-175h-18v175h18z
M236 658v-175h-18v175h18zM272 658v-175h-18v175h18zM308 658v-175h-18v175h18zM344 658v-175h-18v175h18zM200 658v-175h-18v175h18z" />
    <glyph glyph-name="oslash" unicode="&#xf8;" 
d="M700 651l13 13l-14 12l-12 -12q7 -6 13 -13zM675 626l12 13q-6 6 -13 12l-13 -13zM649 600l13 13q-6 6 -13 12l-13 -12q7 -6 13 -13zM624 575l12 13q-6 6 -13 12l-12 -13q7 -5 13 -12zM275 226l336 336q-7 6 -13 12l-335 -335q6 -6 12 -13zM249 201l13 12q-7 6 -12 13
l-13 -12q6 -7 12 -13zM224 175l13 13q-7 6 -13 13l-12 -13q6 -7 12 -13zM198 150l13 12l-12 14l-13 -13q6 -7 12 -13zM173 125l13 12q-7 6 -13 13l-12 -12q6 -7 12 -13zM725 625l12 12l-12 14l-12 -12zM699 599l13 13l-12 14l-13 -13zM674 574l12 13q-5 7 -11 13l-13 -12z
M648 549l13 12l-12 14l-12 -13q6 -6 11 -13zM302 202l333 333l-12 14l-335 -335zM276 176l12 13q-7 5 -13 11l-13 -12zM250 151l13 12l-14 12l-12 -13q6 -6 13 -11zM225 125l13 13l-14 12l-13 -13zM200 100l12 12l-14 12l-12 -12zM747 596l12 13l-10 14l-13 -12q6 -7 11 -15
zM721 570l13 13q-5 8 -11 15l-13 -13q6 -7 11 -15zM695 544l13 13q-5 8 -11 15l-13 -13q6 -7 11 -15zM669 518l12 13q-4 8 -9 15l-13 -12zM333 182l322 322q-4 9 -9 16l-329 -329q7 -5 16 -9zM306 156l13 12l-16 10l-12 -13q7 -5 15 -9zM280 129l13 13q-8 5 -15 11l-13 -13
q7 -6 15 -11zM254 103l13 13q-8 5 -15 11l-13 -13q7 -6 15 -11zM229 78l12 12q-8 5 -15 11l-12 -12q7 -6 15 -11zM663 487l-313 -313q45 -21 96 -21q98 0 168 70t70 168q0 51 -21 96zM691 514l-14 -13q25 -52 25 -110q0 -107 -74.5 -181.5t-181.5 -74.5q-58 0 -110 25
l-13 -14q58 -29 123 -29q113 0 193.5 80.5t80.5 193.5q0 65 -29 123zM717 541l-13 -13q34 -64 34 -137q0 -121 -85.5 -206.5t-206.5 -85.5q-73 0 -137 34l-13 -13q70 -39 150 -39q128 0 219 91t91 219q0 80 -39 150zM744 568l-14 -14q44 -75 44 -163q0 -136 -96 -232
t-232 -96q-88 0 -163 44l-14 -14q82 -48 177 -48q143 0 244.5 101.5t101.5 244.5q0 95 -48 177zM769 593l-12 -12q53 -87 53 -190q0 -151 -106.5 -257.5t-257.5 -106.5q-103 0 -190 53l-12 -12q93 -58 202 -58q158 0 270 112t112 269q0 110 -59 202zM233 286l318 318
q-49 25 -105 25q-98 0 -168 -70t-70 -168q0 -56 25 -105zM206 259l13 13q-29 56 -29 119q0 107 74.5 181.5t181.5 74.5q63 0 119 -29l13 13q-62 34 -132 34q-113 0 -193.5 -80.5t-80.5 -193.5q0 -70 34 -132zM180 233l13 13q-39 67 -39 145q0 121 85.5 206.5t206.5 85.5
q78 0 145 -39l13 13q-73 44 -158 44q-128 0 -219 -91t-91 -219q0 -85 44 -158zM153 206l13 13q-48 79 -48 172q0 136 96 232t232 96q93 0 172 -48l13 13q-85 53 -185 53q-143 0 -244.5 -101.5t-101.5 -244.5q0 -100 53 -185zM128 181l12 12q-58 90 -58 198
q0 151 106.5 257.5t257.5 106.5q108 0 198 -58l12 12q-95 64 -210 64q-158 0 -270 -112t-112 -270q0 -115 64 -210zM151 178l-13 -12q6 -7 11 -15l13 13q-6 7 -11 14zM177 204l-13 -13l10 -14l13 12q-5 8 -10 15zM202 230l-13 -13q6 -7 11 -15l13 13q-5 7 -11 15zM228 256
l-13 -13q5 -8 11 -15l12 13q-5 7 -10 15zM568 595l-326 -326q4 -8 10 -15l331 331q-7 6 -15 10zM594 622l-13 -13q8 -5 15 -10l13 12q-7 6 -15 11zM620 648l-13 -13q8 -6 15 -11l13 13q-8 5 -15 11zM646 673l-13 -13q7 -5 15 -10l12 13zM671 699l-12 -13q7 -5 14 -11l13 13
q-7 6 -15 11zM742 770l-57 -58q7 -5 14 -11l56 56l13 -13l-55 -55q6 -6 13 -12l54 55l13 -13l-55 -55q6 -6 12 -13l56 55l13 -13l-57 -56q5 -8 11 -15l58 59l13 -13l-61 -61q63 -99 63 -216q0 -166 -117 -282.5t-283 -116.5q-117 0 -215 63l-69 -69l-12 13l65 66
q-7 5 -14 11l-64 -64l-13 13l63 62l-14 12l-61 -62l-13 13l62 62q-7 6 -13 13l-62 -62l-13 13l64 63l-12 14l-64 -65l-13 13l67 67q-68 101 -68 223q0 166 116.5 283t282.5 117q123 0 224 -68l60 60z" />
    <glyph glyph-name="ugrave" unicode="&#xf9;" horiz-adv-x="641" 
d="M641 280q0 -119 -84.5 -203.5t-204.5 -84.5t-204.5 84.5t-84.5 203.5v502h18v-502q0 -112 79.5 -191t191.5 -79t191.5 79t79.5 191v502h18v-502zM605 280q0 -104 -74 -178.5t-179 -74.5t-179 74.5t-74 178.5v502h18v-502q0 -97 69 -166t166 -69q98 0 166.5 69t68.5 166
v502h18v-502zM569 280q0 -89 -64 -153t-153 -64t-153 64t-64 153v502h18v-502q0 -82 58 -140.5t141 -58.5q82 0 140.5 58.5t58.5 140.5v502h18v-502zM533 280q0 -74 -53.5 -127.5t-127.5 -53.5t-127.5 53.5t-53.5 127.5v502h18v-502q0 -67 48 -115t115 -48q68 0 115.5 48
t47.5 115v502h18v-502zM497 280q0 -60 -42.5 -102.5t-102.5 -42.5t-102.5 42.5t-42.5 102.5v502h18v-502q0 -52 37.5 -89.5t89.5 -37.5q53 0 90 37.5t37 89.5v502h18v-502zM309 974l138 -140h-25l-139 140h26zM359 974l140 -140h-25l-140 140h25zM258 974l138 -140h-25
l-138 140h25z" />
    <glyph glyph-name="uacute" unicode="&#xfa;" horiz-adv-x="641" 
d="M641 280q0 -119 -84.5 -203.5t-204.5 -84.5t-204.5 84.5t-84.5 203.5v502h18v-502q0 -112 79.5 -191t191.5 -79t191.5 79t79.5 191v502h18v-502zM605 280q0 -104 -74 -178.5t-179 -74.5t-179 74.5t-74 178.5v502h18v-502q0 -97 69 -166t166 -69q98 0 166.5 69t68.5 166
v502h18v-502zM569 280q0 -89 -64 -153t-153 -64t-153 64t-64 153v502h18v-502q0 -82 58 -140.5t141 -58.5q82 0 140.5 58.5t58.5 140.5v502h18v-502zM533 280q0 -74 -53.5 -127.5t-127.5 -53.5t-127.5 53.5t-53.5 127.5v502h18v-502q0 -67 48 -115t115 -48q68 0 115.5 48
t47.5 115v502h18v-502zM497 280q0 -60 -42.5 -102.5t-102.5 -42.5t-102.5 42.5t-42.5 102.5v502h18v-502q0 -52 37.5 -89.5t89.5 -37.5q53 0 90 37.5t37 89.5v502h18v-502zM425 974l-139 -140h-25l139 140h25zM374 974l-139 -140h-26l140 140h25zM476 974l-139 -140h-25
l138 140h26z" />
    <glyph glyph-name="ucircumflex" unicode="&#xfb;" horiz-adv-x="641" 
d="M641 280q0 -119 -84.5 -203.5t-204.5 -84.5t-204.5 84.5t-84.5 203.5v502h18v-502q0 -112 79.5 -191t191.5 -79t191.5 79t79.5 191v502h18v-502zM605 280q0 -104 -74 -178.5t-179 -74.5t-179 74.5t-74 178.5v502h18v-502q0 -97 69 -166t166 -69q98 0 166.5 69t68.5 166
v502h18v-502zM569 280q0 -89 -64 -153t-153 -64t-153 64t-64 153v502h18v-502q0 -82 58 -140.5t141 -58.5q82 0 140.5 58.5t58.5 140.5v502h18v-502zM533 280q0 -74 -53.5 -127.5t-127.5 -53.5t-127.5 53.5t-53.5 127.5v502h18v-502q0 -67 48 -115t115 -48q68 0 115.5 48
t47.5 115v502h18v-502zM497 280q0 -60 -42.5 -102.5t-102.5 -42.5t-102.5 42.5t-42.5 102.5v502h18v-502q0 -52 37.5 -89.5t89.5 -37.5q53 0 90 37.5t37 89.5v502h18v-502zM318 974l-139 -140h-26l140 140h25zM369 974l-139 -140h-25l139 140h25zM382 936l-13 -13l88 -89
h-26l-75 76l-75 -76h-25l138 140h26l139 -140h-25l-127 127l-13 -13l113 -114h-25z" />
    <glyph glyph-name="udieresis" unicode="&#xfc;" horiz-adv-x="641" 
d="M641 280q0 -119 -84.5 -203.5t-204.5 -84.5t-204.5 84.5t-84.5 203.5v502h18v-502q0 -112 79.5 -191t191.5 -79t191.5 79t79.5 191v502h18v-502zM605 280q0 -104 -74 -178.5t-179 -74.5t-179 74.5t-74 178.5v502h18v-502q0 -97 69 -166t166 -69q98 0 166.5 69t68.5 166
v502h18v-502zM569 280q0 -89 -64 -153t-153 -64t-153 64t-64 153v502h18v-502q0 -82 58 -140.5t141 -58.5q82 0 140.5 58.5t58.5 140.5v502h18v-502zM533 280q0 -74 -53.5 -127.5t-127.5 -53.5t-127.5 53.5t-53.5 127.5v502h18v-502q0 -67 48 -115t115 -48q68 0 115.5 48
t47.5 115v502h18v-502zM497 280q0 -60 -42.5 -102.5t-102.5 -42.5t-102.5 42.5t-42.5 102.5v502h18v-502q0 -52 37.5 -89.5t89.5 -37.5q53 0 90 37.5t37 89.5v502h18v-502zM238 967v-133h-18v133h18zM274 967v-133h-18v133h18zM310 967v-133h-18v133h18zM202 967v-133h-18
v133h18zM443 967v-133h-18v133h18zM479 967v-133h-18v133h18zM515 967v-133h-18v133h18zM407 967v-133h-18v133h18z" />
    <glyph glyph-name="yacute" unicode="&#xfd;" horiz-adv-x="690" 
d="M438 281l-241 501h19l159 -332l159 332h19l-169 -352l9 -18l179 370h19l-189 -389l9 -19l198 408h19l-208 -427l9 -18l218 445h19l-228 -464l9 -18l239 482h19l-249 -501v-281h-18v281zM420 0h-18v281l-243 501h19l242 -501v-281zM384 0h-18v281l-244 501h19l243 -501
v-281zM348 0h-18v281l-246 501h19l245 -501v-281zM312 0h-18v281l-250 501h19l249 -501v-281zM430 974l-138 -140h-26l139 140h25zM379 974l-139 -140h-25l139 140h25zM481 974l-139 -140h-25l139 140h25z" />
    <glyph glyph-name="thorn" unicode="&#xfe;" horiz-adv-x="594" 
d="M117 620v-620h-18v620h18zM153 620v-620h-18v620h18zM189 620v-620h-18v620h18zM81 620v-620h-18v620h18zM225 602v-18h122q86 0 147.5 -61.5t61.5 -147.5t-61.5 -147.5t-147.5 -61.5h-122v-18h122q95 0 161 66.5t66 160.5q0 95 -66 161t-161 66h-122zM225 566v-18h122
q72 0 122.5 -51t50.5 -122t-51 -122t-122 -51h-122v-18h122q79 0 135 56t56 135t-56 135t-135 56h-122zM225 530v-18h122q57 0 97 -40.5t40 -96.5t-40.5 -96.5t-96.5 -40.5h-122v-18h122q64 0 109.5 45.5t45.5 109.5t-45.5 109.5t-109.5 45.5h-122zM225 494v-18h122
q42 0 71.5 -29.5t29.5 -71.5t-29.5 -71.5t-71.5 -29.5h-122v-18h122q49 0 84 35t35 84t-35 84t-84 35h-122zM225 459v-168h122q34 0 58.5 25t24.5 59t-24.5 59t-58.5 25h-122zM347 620q101 0 173 -72t72 -173t-72 -173t-173 -72h-122v-130h-18v620h140z" />
    <glyph glyph-name="ydieresis" unicode="&#xff;" horiz-adv-x="690" 
d="M438 281l-241 501h19l159 -332l159 332h19l-169 -352l9 -18l179 370h19l-189 -389l9 -19l198 408h19l-208 -427l9 -18l218 445h19l-228 -464l9 -18l239 482h19l-249 -501v-281h-18v281zM420 0h-18v281l-243 501h19l242 -501v-281zM384 0h-18v281l-244 501h19l243 -501
v-281zM348 0h-18v281l-246 501h19l245 -501v-281zM312 0h-18v281l-250 501h19l249 -501v-281zM260 967v-133h-18v133h18zM296 967v-133h-18v133h18zM332 967v-133h-18v133h18zM224 967v-133h-18v133h18zM465 967v-133h-18v133h18zM501 967v-133h-18v133h18zM537 967v-133
h-18v133h18zM429 967v-133h-18v133h18z" />
    <glyph glyph-name="Lslash" unicode="&#x141;" horiz-adv-x="571" 
d="M134 328l-18 -8v-20l18 8v20zM170 344l-18 -8v-20l18 8v20zM206 360l-18 -8v-20l18 8v20zM242 376l-18 -8v-20l18 8v20zM134 367l-18 -8v-19l18 8v19zM170 383l-18 -8v-19l18 8v19zM206 399l-18 -8v-19l18 8v19zM242 415l-18 -8v-19l18 8v19zM134 407l-18 -8v-20l18 8v20
zM170 423l-18 -8v-20l18 8v20zM206 439l-18 -8v-20l18 8v20zM242 455l-18 -8v-20l18 8v20zM224 309l18 8v20l-18 -8v-20zM188 293l18 8v20l-18 -8v-20zM152 277l18 8v20l-18 -8v-20zM116 261l18 8v20l-18 -9v-19zM65 238l33 15v19l-41 -18l-7 17l48 21v20l-55 -25l-8 17
l63 28v19l-70 -31l-7 17l77 34v20l-85 -38l-7 16l92 41v372h18v-364l18 8v356h18v-348l18 8v340h18v-332l18 8v324h18v-316l18 9v307h18v-299l37 16l7 -16l-44 -20v-20l52 23l7 -16l-59 -27v-19l66 29l8 -16l-74 -33v-20l81 36l7 -16l-88 -39v-20l96 42l7 -16l-103 -46v-143
h319v-18h-319v-18h319v-18h-319v-18h319v-18h-319v-18h319v-18h-319v-18h319v-18h-337v297l-18 -8v-289h-18v281l-18 -8v-273h-18v265l-18 -8v-257h-18v249l-18 -8v-241h-18v233l-26 -11z" />
    <glyph glyph-name="lslash" unicode="&#x142;" horiz-adv-x="571" 
d="M134 328l-18 -8v-20l18 8v20zM170 344l-18 -8v-20l18 8v20zM206 360l-18 -8v-20l18 8v20zM242 376l-18 -8v-20l18 8v20zM134 367l-18 -8v-19l18 8v19zM170 383l-18 -8v-19l18 8v19zM206 399l-18 -8v-19l18 8v19zM242 415l-18 -8v-19l18 8v19zM134 407l-18 -8v-20l18 8v20
zM170 423l-18 -8v-20l18 8v20zM206 439l-18 -8v-20l18 8v20zM242 455l-18 -8v-20l18 8v20zM224 309l18 8v20l-18 -8v-20zM188 293l18 8v20l-18 -8v-20zM152 277l18 8v20l-18 -8v-20zM116 261l18 8v20l-18 -9v-19zM65 238l33 15v19l-41 -18l-7 17l48 21v20l-55 -25l-8 17
l63 28v19l-70 -31l-7 17l77 34v20l-85 -38l-7 16l92 41v372h18v-364l18 8v356h18v-348l18 8v340h18v-332l18 8v324h18v-316l18 9v307h18v-299l37 16l7 -16l-44 -20v-20l52 23l7 -16l-59 -27v-19l66 29l8 -16l-74 -33v-20l81 36l7 -16l-88 -39v-20l96 42l7 -16l-103 -46v-143
h319v-18h-319v-18h319v-18h-319v-18h319v-18h-319v-18h319v-18h-319v-18h319v-18h-337v297l-18 -8v-289h-18v281l-18 -8v-273h-18v265l-18 -8v-257h-18v249l-18 -8v-241h-18v233l-26 -11z" />
    <glyph glyph-name="OE" unicode="&#x152;" horiz-adv-x="1279" 
d="M64 391q0 -157 112 -269t270 -112t270 112t112 269q0 158 -112 270t-270 112q-157 0 -269.5 -112t-112.5 -270zM847 792v-782h-18v265q-38 -124 -142 -203q-107 -80 -241 -80q-166 0 -282.5 116.5t-116.5 282.5t116.5 283t282.5 117q134 0 241 -80q104 -79 142 -204v285
h18zM446 27q-151 0 -257.5 106.5t-106.5 257.5t106.5 257.5t257.5 106.5t257.5 -106.5t106.5 -257.5t-106.5 -257.5t-257.5 -106.5zM100 391q0 -143 101.5 -244.5t244.5 -101.5t244.5 101.5t101.5 244.5t-101.5 244.5t-244.5 101.5t-244.5 -101.5t-101.5 -244.5zM446 63
q-136 0 -232 96t-96 232t96 232t232 96t232 -96t96 -232t-96 -232t-232 -96zM136 391q0 -128 91 -219t219 -91t219 91t91 219t-91 219t-219 91t-219 -91t-91 -219zM446 99q-121 0 -206.5 85.5t-85.5 206.5t85.5 206.5t206.5 85.5t206.5 -85.5t85.5 -206.5t-85.5 -206.5
t-206.5 -85.5zM172 391q0 -113 80.5 -193.5t193.5 -80.5t193.5 80.5t80.5 193.5t-80.5 193.5t-193.5 80.5t-193.5 -80.5t-80.5 -193.5zM446 135q-106 0 -181 75t-75 181q0 107 75 181.5t181 74.5q107 0 181.5 -74.5t74.5 -181.5q0 -106 -74.5 -181t-181.5 -75zM208 391
q0 -98 70 -168t168 -70t168 70t70 168t-70 168t-168 70t-168 -70t-70 -168zM955 792v-782h-18v782h18zM919 792v-782h-18v782h18zM883 792v-782h-18v782h18zM991 357v-18h217v-18h-217v-149h292v-18h-292v-18h292v-18h-292v-18h292v-18h-292v-18h292v-18h-292v-18h292v-18
h-310v782h310v-18h-292v-18h292v-18h-292v-18h292v-18h-292v-18h292v-18h-292v-18h292v-17h-292v-148h217v-18h-217v-18h217v-18h-217v-18h217v-18h-217v-18h217v-18h-217z" />
    <glyph glyph-name="oe" unicode="&#x153;" horiz-adv-x="1279" 
d="M64 391q0 -157 112 -269t270 -112t270 112t112 269q0 158 -112 270t-270 112q-157 0 -269.5 -112t-112.5 -270zM847 792v-782h-18v265q-38 -124 -142 -203q-107 -80 -241 -80q-166 0 -282.5 116.5t-116.5 282.5t116.5 283t282.5 117q134 0 241 -80q104 -79 142 -204v285
h18zM446 27q-151 0 -257.5 106.5t-106.5 257.5t106.5 257.5t257.5 106.5t257.5 -106.5t106.5 -257.5t-106.5 -257.5t-257.5 -106.5zM100 391q0 -143 101.5 -244.5t244.5 -101.5t244.5 101.5t101.5 244.5t-101.5 244.5t-244.5 101.5t-244.5 -101.5t-101.5 -244.5zM446 63
q-136 0 -232 96t-96 232t96 232t232 96t232 -96t96 -232t-96 -232t-232 -96zM136 391q0 -128 91 -219t219 -91t219 91t91 219t-91 219t-219 91t-219 -91t-91 -219zM446 99q-121 0 -206.5 85.5t-85.5 206.5t85.5 206.5t206.5 85.5t206.5 -85.5t85.5 -206.5t-85.5 -206.5
t-206.5 -85.5zM172 391q0 -113 80.5 -193.5t193.5 -80.5t193.5 80.5t80.5 193.5t-80.5 193.5t-193.5 80.5t-193.5 -80.5t-80.5 -193.5zM446 135q-106 0 -181 75t-75 181q0 107 75 181.5t181 74.5q107 0 181.5 -74.5t74.5 -181.5q0 -106 -74.5 -181t-181.5 -75zM208 391
q0 -98 70 -168t168 -70t168 70t70 168t-70 168t-168 70t-168 -70t-70 -168zM955 792v-782h-18v782h18zM919 792v-782h-18v782h18zM883 792v-782h-18v782h18zM991 357v-18h217v-18h-217v-149h292v-18h-292v-18h292v-18h-292v-18h292v-18h-292v-18h292v-18h-292v-18h292v-18
h-310v782h310v-18h-292v-18h292v-18h-292v-18h292v-18h-292v-18h292v-18h-292v-18h292v-17h-292v-148h217v-18h-217v-18h217v-18h-217v-18h217v-18h-217v-18h217v-18h-217z" />
    <glyph glyph-name="Scaron" unicode="&#x160;" horiz-adv-x="489" 
d="M481 636q-25 61 -79.5 99t-121.5 38q-88 0 -152 -63.5t-64 -152.5q0 -84 56.5 -144.5t139.5 -68.5q44 -4 72 -33.5t28 -71.5q0 -43 -30 -73.5t-73 -30.5q-64 0 -93 60l15 9q21 -51 78 -51q35 0 60 25.5t25 60.5q0 34 -24 59t-58 28q-89 7 -151 73.5t-62 157.5
q0 97 68 165.5t165 68.5q72 0 130.5 -40.5t85.5 -104.5zM418 600q-14 45 -52 73t-86 28q-59 0 -101.5 -42.5t-42.5 -101.5q0 -56 38 -97t93 -46q72 -6 118.5 -55.5t46.5 -119.5q0 -72 -51.5 -124t-123.5 -52q-49 0 -90 24.5t-63 65.5l15 10q45 -82 138 -82q65 0 111 46.5
t46 111.5q0 62 -43.5 107.5t-104.5 50.5t-104 51t-43 109q0 67 47 114.5t114 47.5q52 0 93.5 -31t58.5 -79zM351 561q-2 28 -22.5 48t-48.5 20q-29 0 -50 -21.5t-21 -50.5t19.5 -49.5t47.5 -22.5q93 -7 159 -75q69 -72 69 -171q0 -102 -72.5 -174.5t-174.5 -72.5
q-66 0 -122.5 32.5t-90.5 87.5l16 10q66 -112 197 -112q95 0 162 67t67 162q0 93 -62 157t-150 72q-37 3 -60.5 28t-23.5 61q0 38 26.5 64t63.5 26q33 0 58.5 -22t30.5 -53zM385 581q-7 36 -37 60t-68 24q-44 0 -76 -32t-32 -76q0 -42 28.5 -72.5t71.5 -34.5
q81 -7 138.5 -66.5t57.5 -144.5q0 -87 -62 -149.5t-149 -62.5q-117 0 -183 105l15 11q25 -44 70 -71t98 -27q80 0 136.5 57t56.5 137q0 77 -51 131.5t-129 61.5q-48 5 -81.5 41t-33.5 84q0 52 36.5 89t88.5 37q43 0 76.5 -26t44.5 -67zM449 617q-18 53 -65 86.5t-104 33.5
q-74 0 -127 -53t-53 -127q0 -70 47.5 -121t115.5 -57q56 -5 94.5 -44.5t38.5 -95.5q0 -58 -40.5 -99t-98.5 -41q-86 0 -123 74l15 11q34 -67 108 -67q50 0 85.5 36t35.5 86q0 48 -33.5 83.5t-82.5 39.5q-75 6 -126.5 62t-51.5 133q0 82 57 140t139 58q63 0 113 -35.5
t71 -92.5zM331 834l140 140h25l-139 -140h-26zM281 834l138 140h25l-138 -140h-25zM268 872l13 13l-88 89h25l75 -76l75 76h26l-139 -140h-25l-140 140h26l126 -127l13 13l-113 114h25z" />
    <glyph glyph-name="scaron" unicode="&#x161;" horiz-adv-x="489" 
d="M481 636q-25 61 -79.5 99t-121.5 38q-88 0 -152 -63.5t-64 -152.5q0 -84 56.5 -144.5t139.5 -68.5q44 -4 72 -33.5t28 -71.5q0 -43 -30 -73.5t-73 -30.5q-64 0 -93 60l15 9q21 -51 78 -51q35 0 60 25.5t25 60.5q0 34 -24 59t-58 28q-89 7 -151 73.5t-62 157.5
q0 97 68 165.5t165 68.5q72 0 130.5 -40.5t85.5 -104.5zM418 600q-14 45 -52 73t-86 28q-59 0 -101.5 -42.5t-42.5 -101.5q0 -56 38 -97t93 -46q72 -6 118.5 -55.5t46.5 -119.5q0 -72 -51.5 -124t-123.5 -52q-49 0 -90 24.5t-63 65.5l15 10q45 -82 138 -82q65 0 111 46.5
t46 111.5q0 62 -43.5 107.5t-104.5 50.5t-104 51t-43 109q0 67 47 114.5t114 47.5q52 0 93.5 -31t58.5 -79zM351 561q-2 28 -22.5 48t-48.5 20q-29 0 -50 -21.5t-21 -50.5t19.5 -49.5t47.5 -22.5q93 -7 159 -75q69 -72 69 -171q0 -102 -72.5 -174.5t-174.5 -72.5
q-66 0 -122.5 32.5t-90.5 87.5l16 10q66 -112 197 -112q95 0 162 67t67 162q0 93 -62 157t-150 72q-37 3 -60.5 28t-23.5 61q0 38 26.5 64t63.5 26q33 0 58.5 -22t30.5 -53zM385 581q-7 36 -37 60t-68 24q-44 0 -76 -32t-32 -76q0 -42 28.5 -72.5t71.5 -34.5
q81 -7 138.5 -66.5t57.5 -144.5q0 -87 -62 -149.5t-149 -62.5q-117 0 -183 105l15 11q25 -44 70 -71t98 -27q80 0 136.5 57t56.5 137q0 77 -51 131.5t-129 61.5q-48 5 -81.5 41t-33.5 84q0 52 36.5 89t88.5 37q43 0 76.5 -26t44.5 -67zM449 617q-18 53 -65 86.5t-104 33.5
q-74 0 -127 -53t-53 -127q0 -70 47.5 -121t115.5 -57q56 -5 94.5 -44.5t38.5 -95.5q0 -58 -40.5 -99t-98.5 -41q-86 0 -123 74l15 11q34 -67 108 -67q50 0 85.5 36t35.5 86q0 48 -33.5 83.5t-82.5 39.5q-75 6 -126.5 62t-51.5 133q0 82 57 140t139 58q63 0 113 -35.5
t71 -92.5zM331 834l140 140h25l-139 -140h-26zM281 834l138 140h25l-138 -140h-25zM268 872l13 13l-88 89h25l75 -76l75 76h26l-139 -140h-25l-140 140h26l126 -127l13 13l-113 114h25z" />
    <glyph glyph-name="Ydieresis" unicode="&#x178;" horiz-adv-x="690" 
d="M438 281l-241 501h19l159 -332l159 332h19l-169 -352l9 -18l179 370h19l-189 -389l9 -19l198 408h19l-208 -427l9 -18l218 445h19l-228 -464l9 -18l239 482h19l-249 -501v-281h-18v281zM420 0h-18v281l-243 501h19l242 -501v-281zM384 0h-18v281l-244 501h19l243 -501
v-281zM348 0h-18v281l-246 501h19l245 -501v-281zM312 0h-18v281l-250 501h19l249 -501v-281zM260 967v-133h-18v133h18zM296 967v-133h-18v133h18zM332 967v-133h-18v133h18zM224 967v-133h-18v133h18zM465 967v-133h-18v133h18zM501 967v-133h-18v133h18zM537 967v-133
h-18v133h18zM429 967v-133h-18v133h18z" />
    <glyph glyph-name="Zcaron" unicode="&#x17d;" horiz-adv-x="618" 
d="M59 782h549l-9 -18h-540v18zM59 746h532l-9 -18h-523v18zM59 710h514l-9 -18h-505v18zM59 674h497l-9 -18h-488v18zM510 621h-21l-302 -621h-20l302 621h-19l-303 -621h-19l302 621h-20l-303 -621h-20l302 621h-19l-302 -621h-20l302 621h-291v17h479l-233 -476h313v-18
h-321l-8 -18h329v-18h-338l-8 -18h346v-18h-356l-8 -18h364v-18h-373l-8 -18h381v-18h-411zM331 834l140 140h25l-139 -140h-26zM281 834l138 140h25l-138 -140h-25zM268 872l13 13l-88 89h25l75 -76l75 76h26l-139 -140h-25l-140 140h26l126 -127l13 13l-113 114h25z" />
    <glyph glyph-name="zcaron" unicode="&#x17e;" horiz-adv-x="618" 
d="M59 782h549l-9 -18h-540v18zM59 746h532l-9 -18h-523v18zM59 710h514l-9 -18h-505v18zM59 674h497l-9 -18h-488v18zM510 621h-21l-302 -621h-20l302 621h-19l-303 -621h-19l302 621h-20l-303 -621h-20l302 621h-19l-302 -621h-20l302 621h-291v17h479l-233 -476h313v-18
h-321l-8 -18h329v-18h-338l-8 -18h346v-18h-356l-8 -18h364v-18h-373l-8 -18h381v-18h-411zM331 834l140 140h25l-139 -140h-26zM281 834l138 140h25l-138 -140h-25zM268 872l13 13l-88 89h25l75 -76l75 76h26l-139 -140h-25l-140 140h26l126 -127l13 13l-113 114h25z" />
    <glyph glyph-name="circumflex" unicode="&#x2c6;" horiz-adv-x="458" 
d="M217 974l-140 -140h-25l139 140h26zM267 974l-138 -140h-25l138 140h25zM280 936l-13 -13l88 -89h-25l-75 76l-75 -76h-26l139 140h25l140 -140h-26l-127 127l-12 -13l113 -114h-25z" />
    <glyph glyph-name="caron" unicode="&#x2c7;" horiz-adv-x="489" 
d="M331 834l140 140h25l-139 -140h-26zM281 834l138 140h25l-138 -140h-25zM268 872l13 13l-88 89h25l75 -76l75 76h26l-139 -140h-25l-140 140h26l126 -127l13 13l-113 114h25z" />
    <glyph glyph-name="ring" unicode="&#x2da;" horiz-adv-x="332" 
d="M196 1132q62 0 106 -44t44 -106q0 -61 -44 -105.5t-106 -44.5t-106.5 44t-44.5 106t44.5 106t106.5 44zM63 982q0 -55 39 -93.5t94 -38.5q54 0 93 38.5t39 93.5t-39 93.5t-93 38.5q-55 0 -94 -38.5t-39 -93.5zM196 1096q47 0 80.5 -33.5t33.5 -80.5t-33.5 -80.5
t-80.5 -33.5q-48 0 -81.5 33.5t-33.5 80.5t33.5 80.5t81.5 33.5zM99 982q0 -40 28.5 -68t68.5 -28q39 0 67.5 28t28.5 68t-28.5 68t-67.5 28q-40 0 -68.5 -28t-28.5 -68zM196 1060q32 0 55 -23t23 -55t-23 -55t-55 -23q-33 0 -56 23t-23 55t23 55t56 23zM135 982
q0 -25 18 -42.5t43 -17.5q24 0 42 17.5t18 42.5t-18 42.5t-42 17.5q-25 0 -43 -17.5t-18 -42.5z" />
    <glyph glyph-name="tilde" unicode="&#x2dc;" horiz-adv-x="467" 
d="M160 940q-58 0 -101 -17v19q56 16 101 16q52 0 102.5 -17.5t100.5 -17.5q57 0 102 17v-19q-50 -16 -102 -16q-50 0 -101 17.5t-102 17.5zM160 904q-52 0 -101 -19v19q52 18 101 18q51 0 102 -17.5t101 -17.5q44 0 102 15v-18q-47 -15 -102 -15q-50 0 -100.5 17.5
t-102.5 17.5zM363 851q65 0 102 14v-18q-38 -14 -102 -14q-50 0 -101 17.5t-102 17.5q-48 0 -101 -22v20q52 20 101 20q52 0 102.5 -17.5t100.5 -17.5z" />
    <glyph glyph-name="endash" unicode="&#x2013;" horiz-adv-x="701" 
d="M63 301h636v-18h-636v18zM63 337h636v-18h-636v18zM63 373h636v-18h-636v18zM63 409h636v-18h-636v18zM63 265h636v-18h-636v18z" />
    <glyph glyph-name="emdash" unicode="&#x2014;" horiz-adv-x="1152" 
d="M63 301h1087v-18h-1087v18zM63 337h1087v-18h-1087v18zM63 373h1087v-18h-1087v18zM63 409h1087v-18h-1087v18zM63 265h1087v-18h-1087v18z" />
    <glyph glyph-name="quoteleft" unicode="&#x2018;" horiz-adv-x="237" 
d="M204 782q-19 -49 -19 -100q0 -59 20 -103h-20q-18 54 -18 103q0 55 18 100h19zM166 782q-17 -42 -17 -100q0 -50 17 -103h-19q-16 59 -16 103q0 52 16 100h19zM128 782q-15 -45 -15 -100q0 -37 15 -103h-18q-15 56 -15 103q0 56 14 100h19zM91 782q-14 -42 -14 -100
t14 -103h-18q-14 44 -14 103q0 53 13 100h19zM243 782q-22 -47 -22 -100q0 -55 23 -103h-20q-21 47 -21 103q0 55 20 100h20z" />
    <glyph glyph-name="quoteright" unicode="&#x2019;" horiz-adv-x="237" 
d="M119 782q18 -45 18 -100q0 -49 -18 -103h-20q20 40 20 103q0 56 -19 100h19zM158 782q15 -51 15 -100q0 -47 -15 -103h-20q17 47 17 103q0 62 -17 100h20zM196 782q13 -41 13 -100q0 -51 -14 -103h-18q14 62 14 103q0 58 -14 100h19zM233 782q12 -43 12 -100
q0 -62 -13 -103h-18q13 42 13 103t-13 100h19zM81 782q20 -45 20 -100q0 -61 -21 -103h-20q24 50 24 103q0 50 -23 100h20z" />
    <glyph glyph-name="quotesinglbase" unicode="&#x201a;" horiz-adv-x="237" 
d="M119 176q18 -45 18 -100q0 -49 -18 -103h-20q20 40 20 103q0 56 -19 100h19zM158 176q15 -51 15 -100q0 -47 -15 -103h-20q17 47 17 103q0 62 -17 100h20zM196 176q13 -41 13 -100q0 -51 -14 -103h-18q14 62 14 103q0 58 -14 100h19zM233 176q12 -43 12 -100
q0 -62 -13 -103h-18q13 42 13 103t-13 100h19zM81 176q20 -45 20 -100q0 -61 -21 -103h-20q24 50 24 103q0 50 -23 100h20z" />
    <glyph glyph-name="quotedblleft" unicode="&#x201c;" horiz-adv-x="476" 
d="M208 782q-19 -49 -19 -100q0 -59 20 -103h-20q-18 59 -18 103q0 50 18 100h19zM170 782q-17 -42 -17 -100q0 -50 17 -103h-19q-16 59 -16 103q0 46 16 100h19zM132 782q-15 -45 -15 -100q0 -37 15 -103h-18q-15 56 -15 103q0 56 14 100h19zM95 782q-14 -42 -14 -100
t14 -103h-18q-14 44 -14 103q0 53 13 100h19zM247 782q-22 -51 -22 -100q0 -52 23 -103h-20q-21 47 -21 103q0 50 20 100h20zM430 782q-19 -49 -19 -100q0 -59 20 -103h-20q-18 59 -18 103q0 50 18 100h19zM392 782q-17 -42 -17 -100q0 -50 17 -103h-19q-16 59 -16 103
q0 46 16 100h19zM354 782q-15 -45 -15 -100q0 -37 15 -103h-18q-15 56 -15 103q0 56 14 100h19zM317 782q-14 -42 -14 -100t14 -103h-18q-14 44 -14 103q0 53 13 100h19zM469 782q-22 -51 -22 -100q0 -52 23 -103h-20q-21 47 -21 103q0 50 20 100h20z" />
    <glyph glyph-name="quotedblright" unicode="&#x201d;" horiz-adv-x="476" 
d="M124 782q18 -50 18 -100q0 -44 -18 -103h-20q20 44 20 103q0 51 -19 100h19zM162 782q16 -54 16 -100q0 -44 -16 -103h-19q17 53 17 103q0 58 -17 100h19zM200 782q14 -44 14 -100q0 -47 -15 -103h-18q15 66 15 103q0 55 -15 100h19zM237 782q12 -43 12 -100
q0 -62 -13 -103h-18q14 45 14 103t-14 100h19zM86 782q20 -50 20 -100q0 -56 -21 -103h-21q24 50 24 103q0 49 -22 100h20zM346 782q18 -50 18 -100q0 -44 -18 -103h-20q20 44 20 103q0 51 -19 100h19zM384 782q16 -54 16 -100q0 -44 -16 -103h-19q17 53 17 103
q0 58 -17 100h19zM422 782q14 -44 14 -100q0 -47 -15 -103h-18q15 66 15 103q0 55 -15 100h19zM459 782q12 -43 12 -100q0 -62 -13 -103h-18q13 42 13 103t-13 100h19zM308 782q20 -50 20 -100q0 -56 -21 -103h-21q24 50 24 103q0 49 -22 100h20z" />
    <glyph glyph-name="quotedblbase" unicode="&#x201e;" horiz-adv-x="476" 
d="M124 176q18 -50 18 -100q0 -44 -18 -103h-20q20 44 20 103q0 51 -19 100h19zM162 176q16 -54 16 -100q0 -44 -16 -103h-19q17 53 17 103q0 58 -17 100h19zM200 176q14 -44 14 -100q0 -47 -15 -103h-18q15 66 15 103q0 55 -15 100h19zM237 176q12 -43 12 -100
q0 -62 -13 -103h-18q14 45 14 103t-14 100h19zM86 176q20 -50 20 -100q0 -56 -21 -103h-21q24 50 24 103q0 49 -22 100h20zM346 176q18 -50 18 -100q0 -44 -18 -103h-20q20 44 20 103q0 51 -19 100h19zM384 176q16 -54 16 -100q0 -44 -16 -103h-19q17 53 17 103
q0 58 -17 100h19zM422 176q14 -44 14 -100q0 -47 -15 -103h-18q15 66 15 103q0 55 -15 100h19zM459 176q12 -43 12 -100q0 -62 -13 -103h-18q13 42 13 103t-13 100h19zM308 176q20 -50 20 -100q0 -56 -21 -103h-21q24 50 24 103q0 49 -22 100h20z" />
    <glyph glyph-name="bullet" unicode="&#x2022;" horiz-adv-x="223" 
d="M117 415v-175h-18v175h18zM153 415v-175h-18v175h18zM189 415v-175h-18v175h18zM225 415v-175h-18v175h18zM81 415v-175h-18v175h18z" />
    <glyph glyph-name="ellipsis" unicode="&#x2026;" horiz-adv-x="678" 
d="M567 175v-175h-18v175h18zM603 175v-175h-18v175h18zM639 175v-175h-18v175h18zM675 175v-175h-18v175h18zM531 175v-175h-18v175h18zM115 175v-175h-18v175h18zM151 175v-175h-18v175h18zM187 175v-175h-18v175h18zM223 175v-175h-18v175h18zM79 175v-175h-18v175h18z
M341 175v-175h-18v175h18zM377 175v-175h-18v175h18zM413 175v-175h-18v175h18zM449 175v-175h-18v175h18zM305 175v-175h-18v175h18z" />
    <glyph glyph-name="perthousand" unicode="&#x2030;" horiz-adv-x="1587" 
d="M285 791q100 0 170 -70.5t70 -169.5t-70 -169.5t-170 -70.5q-99 0 -169.5 70.5t-70.5 169.5t70.5 169.5t169.5 70.5zM63 551q0 -92 65 -157t157 -65t157 65t65 157t-65 157t-157 65q-91 0 -156.5 -65t-65.5 -157zM285 347q-85 0 -144.5 59.5t-59.5 144.5t59.5 144.5
t144.5 59.5t144.5 -59.5t59.5 -144.5t-59.5 -144.5t-144.5 -59.5zM99 551q0 -77 54.5 -131.5t131.5 -54.5t131.5 54.5t54.5 131.5t-54.5 131.5t-131.5 54.5q-76 0 -131 -54.5t-55 -131.5zM285 383q-70 0 -119 49t-49 119t49 119t119 49t119 -49t49 -119t-49 -119t-119 -49z
M135 551q0 -62 44 -106t106 -44t106.5 44t44.5 106t-44.5 106t-106.5 44q-61 0 -105.5 -44t-44.5 -106zM285 419q-55 0 -93.5 38.5t-38.5 93.5t38.5 93.5t93.5 38.5t94 -38.5t39 -93.5t-39 -93.5t-94 -38.5zM171 551q0 -48 33.5 -81t80.5 -33q48 0 81.5 33t33.5 81
q0 47 -33.5 80.5t-81.5 33.5q-47 0 -80.5 -33.5t-33.5 -80.5zM847 471q99 0 169.5 -70t70.5 -169q0 -100 -70.5 -170t-169.5 -70t-169.5 70t-70.5 170q0 99 70.5 169t169.5 70zM625 232q0 -92 65 -157t157 -65t157 65t65 157q0 91 -65 156t-157 65t-157 -64.5t-65 -156.5z
M847 27q-85 0 -144.5 60t-59.5 145t59.5 144.5t144.5 59.5t144.5 -59.5t59.5 -144.5t-59.5 -145t-144.5 -60zM661 232q0 -77 54.5 -132t131.5 -55t131.5 55t54.5 132t-54.5 131.5t-131.5 54.5t-131.5 -54.5t-54.5 -131.5zM847 63q-70 0 -119 49.5t-49 119.5t49 119t119 49
t119 -49t49 -119t-49 -119.5t-119 -49.5zM697 232q0 -62 44 -106.5t106 -44.5t106 44.5t44 106.5t-44 106t-106 44t-106 -44t-44 -106zM847 99q-55 0 -93.5 39t-38.5 94q0 54 38.5 93t93.5 39t93.5 -39t38.5 -93q0 -55 -38.5 -94t-93.5 -39zM733 232q0 -48 33 -81.5
t81 -33.5q47 0 80.5 33.5t33.5 81.5q0 47 -33.5 80.5t-80.5 33.5q-48 0 -81 -33.5t-33 -80.5zM683 784l-307 -842h-19l307 842h19zM759 784l-307 -842h-19l307 842h19zM721 784l-307 -842h-19l307 842h19zM1361 470q99 0 169.5 -70t70.5 -169q0 -100 -70.5 -170t-169.5 -70
t-169.5 70t-70.5 170q0 99 70.5 169t169.5 70zM1139 231q0 -92 65 -157t157 -65t157 65t65 157q0 91 -65 156t-157 65t-157 -64.5t-65 -156.5zM1361 26q-85 0 -144.5 60t-59.5 145t59.5 144.5t144.5 59.5t144.5 -59.5t59.5 -144.5t-59.5 -145t-144.5 -60zM1175 231
q0 -77 54.5 -132t131.5 -55t131.5 55t54.5 132t-54.5 131.5t-131.5 54.5t-131.5 -54.5t-54.5 -131.5zM1361 62q-70 0 -119 49.5t-49 119.5t49 119t119 49t119 -49t49 -119t-49 -119.5t-119 -49.5zM1211 231q0 -62 44 -106.5t106 -44.5t106 44.5t44 106.5t-44 106t-106 44
t-106 -44t-44 -106zM1361 98q-55 0 -93.5 39t-38.5 94q0 54 38.5 93t93.5 39t93.5 -39t38.5 -93q0 -55 -38.5 -94t-93.5 -39zM1247 231q0 -48 33 -81.5t81 -33.5q47 0 80.5 33.5t33.5 81.5q0 47 -33.5 80.5t-80.5 33.5q-48 0 -81 -33.5t-33 -80.5z" />
    <glyph glyph-name="guilsinglright" unicode="&#x203a;" horiz-adv-x="1000" 
 />
    <glyph glyph-name="DST" unicode="&#xf000;" horiz-adv-x="1469" 
d="M1439 -39h-1409v842h1409v-842zM1414 564q0 30 -19 51t-46 21h-149q-37 0 -37 35v132h-57v-132q0 -88 116 -88q9 0 47.5 2t47.5 2q42 0 42 -19q0 -21 -41 -21q-9 0 -48.5 2.5t-48.5 2.5q-115 0 -115 -96v-324q0 -69 72 -86v56q-19 12 -19 43v302q0 46 35 46h147
q29 0 51 21t22 50zM1025 137v94q0 41 -26 64.5t-70 23.5h-246q-42 0 -42 37v96q0 43 42 43h244q24 0 43 -21h51q-14 76 -90 76h-247q-44 0 -71 -28.5t-27 -74.5v-89q0 -41 25.5 -66.5t66.5 -25.5h251q46 0 46 -45v-76q0 -46 -62 -46h-251q-22 0 -22 22q0 18 20 18h271v53
h-280q-29 0 -47 -21t-18 -52t20 -51t50 -20h283q39 0 62.5 24.5t23.5 64.5zM517 803h-56l2 -684q0 -7 -6.5 -14t-12.5 -7q-19 0 -19 21v151q0 45 -31 75l-179 178q-20 19 -52 19q-35 0 -59 -19t-24 -49v-331q0 -97 89 -97h82q63 0 77 73h-53q-12 -15 -25 -21h-81
q-36 0 -36 43v311q0 37 26 37q13 0 27 -13l95 -94q47 -46 87 -93q2 -40 2 -169q0 -34 20 -56t52 -22q30 0 52 22t22 53z" />
    <glyph glyph-name="fi" unicode="&#xf001;" horiz-adv-x="737" 
d="M81 782v-782h-18v782h18zM189 782v-782h-18v782h18zM153 782v-782h-18v782h18zM117 782v-782h-18v782h18zM225 347v-18h217v-18h-217v-311h-18v782h310v-18h-292v-18h292v-18h-292v-18h292v-18h-292v-18h292v-18h-292v-18h292v-17h-292v-148h217v-18h-217v-18h217v-18
h-217v-18h217v-18h-217v-18h217v-18h-217zM628 781v-782h-18v782h18zM664 781v-782h-18v782h18zM700 781v-782h-18v782h18zM736 781v-782h-18v782h18zM592 781v-782h-18v782h18z" />
    <glyph glyph-name="fl" unicode="&#xf002;" horiz-adv-x="1055" 
d="M81 782v-782h-18v782h18zM189 782v-782h-18v782h18zM153 782v-782h-18v782h18zM117 782v-782h-18v782h18zM225 347v-18h217v-18h-217v-311h-18v782h310v-18h-292v-18h292v-18h-292v-18h292v-18h-292v-18h292v-18h-292v-18h292v-17h-292v-148h217v-18h-217v-18h217v-18
h-217v-18h217v-18h-217v-18h217v-18h-217zM592 781v-782h-18v782h18zM700 781v-782h-18v782h18zM664 781v-782h-18v782h18zM628 781v-782h-18v782h18zM736 161h319v-18h-319v-18h319v-18h-319v-18h319v-18h-319v-18h319v-18h-319v-18h319v-18h-337v782h18v-620z" />
  </font>
</defs>
</svg>
