<?xml version="1.0" standalone="no"?>
<!DOCTYPE svg PUBLIC "-//W3C//DTD SVG 1.1//EN" "http://www.w3.org/Graphics/SVG/1.1/DTD/svg11.dtd" >
<svg xmlns="http://www.w3.org/2000/svg" xmlns:xlink="http://www.w3.org/1999/xlink" version="1.1">
<metadata></metadata>
<defs>
<font id="typo_roundbold_italic_demo" horiz-adv-x="1255" >
<font-face units-per-em="2048" ascent="1638" descent="-410" />
<missing-glyph horiz-adv-x="611" />
<glyph unicode="&#xd;" horiz-adv-x="260" />
<glyph horiz-adv-x="260" />
<glyph horiz-adv-x="260" />
<glyph unicode=" "  horiz-adv-x="611" />
<glyph unicode="&#x09;" horiz-adv-x="611" />
<glyph unicode="&#xa0;" horiz-adv-x="611" />
<glyph unicode="!" horiz-adv-x="480" d="M130 140q12 57 62 98q49 41 107 41q57 0 90 -41q33 -40 21 -98q-13 -59 -63 -99q-50 -41 -107 -41q-58 0 -90 41q-33 41 -20 99zM236 394l61 454l126 593q11 50 55 86q43 35 92 35h3q49 0 78 -35q28 -36 17 -86l-126 -593l-131 -454h-175z" />
<glyph unicode="&#x22;" horiz-adv-x="661" d="M296 986l34 332l27 124q10 50 54 86q43 35 92 35h3q49 0 78 -35q28 -36 18 -86l-27 -124l-106 -332h-173zM612 986l34 332l27 124q10 50 54 86q43 35 92 35h3q49 0 78 -35q28 -36 18 -86l-27 -124l-106 -332h-173z" />
<glyph unicode="#" horiz-adv-x="1412" d="M131 546l1 3q9 45 48 78q40 33 86 33h207l97 233h-175q-45 0 -71 33q-25 33 -16 78l1 2q9 45 48 78q40 33 85 33h220l103 246q18 45 63 70q31 18 64 18q12 0 25 -2l2 -1q38 -8 57 -45q12 -29 5 -61q-2 -12 -7 -24l-83 -201h226l103 246q18 45 63 70q31 18 63 18 q12 0 24 -2l3 -1q40 -8 58 -45q12 -29 5 -61q-2 -12 -7 -24l-83 -201h178q46 0 70 -33q26 -33 17 -78l-1 -2q-9 -45 -49 -78q-38 -33 -84 -33h-223l-97 -233h190q47 0 71 -33q26 -33 17 -78l-1 -3q-9 -44 -49 -77q-38 -33 -85 -33h-235l-111 -265q-17 -45 -62 -70 q-31 -18 -63 -18q-12 0 -24 2l-3 1q-40 8 -58 46q-13 28 -6 60q2 12 8 24l90 220h-226l-111 -265q-17 -45 -62 -70q-31 -18 -65 -18q-12 0 -25 2l-2 1q-38 8 -56 46q-13 28 -6 60q2 12 8 24l90 220h-162q-46 0 -72 33q-25 33 -16 77zM702 660h226l97 233h-226z" />
<glyph unicode="$" horiz-adv-x="1041" d="M145 317q-1 17 3 34q7 34 36 64q44 45 100 45h21q83 0 91 -79q8 -93 51 -115l91 428q-135 36 -195 109q-90 107 -45 317q34 161 162 288q124 123 262 155l15 71q18 82 82 82q16 0 27 -5l-395 -1858q-13 -5 -29 -5q-64 0 -47 82l15 72q-92 24 -164 109q-73 87 -81 206z M528 -148l395 1860q12 4 27 4q64 0 46 -82l-15 -71q93 -23 166 -109q73 -87 81 -207q1 -17 -2 -32q-7 -35 -37 -66q-43 -45 -99 -45h-21q-83 0 -92 79q-8 95 -52 116l-91 -427q134 -37 196 -110q90 -107 45 -318q-34 -162 -163 -288q-125 -124 -263 -155l-15 -71 q-17 -82 -81 -82q-15 0 -25 4zM543 1120q-29 -135 49 -170l74 348q-17 -7 -63 -60t-60 -118zM705 265q18 7 64 60q48 54 61 119q29 136 -50 171z" />
<glyph unicode="%" horiz-adv-x="1511" d="M350 0l930 1562h213l-930 -1562h-213zM363 1236l6 31q26 121 132 208q105 87 227 87t191 -87q68 -87 42 -208l-6 -31q-26 -122 -132 -209q-105 -87 -227 -87t-191 87q-68 87 -42 209zM545 1241q-10 -47 17 -81q26 -34 73 -34t89 34q40 33 50 81l4 21q10 47 -16 81 q-27 33 -74 33q-48 0 -88 -33q-41 -34 -51 -81zM882 296l6 30q26 122 132 209t227 87q122 0 191 -87q68 -87 42 -209l-6 -30q-26 -122 -132 -209q-105 -87 -227 -87q-121 0 -191 87q-68 87 -42 209zM1065 301q-10 -48 16 -81q27 -34 74 -34t88 34t51 81l4 20q10 47 -17 81 q-26 34 -73 34t-89 -34q-40 -33 -50 -81z" />
<glyph unicode="&#x26;" horiz-adv-x="1341" d="M198 463q49 229 226 345q-106 108 -63 314q39 182 196 311q156 129 338 129h150q150 0 269 -109l-186 -201q-65 66 -135 66h-150q-80 0 -150 -58q-69 -57 -89 -148q-19 -92 26 -149q45 -56 126 -56h304l50 235l244 89l-68 -318h113q47 0 71 -33q26 -33 16 -78v-3 q-10 -45 -50 -78q-39 -32 -85 -32h-113l-84 -395q-6 -29 10 -49q17 -20 46 -20h43q46 0 72 -33q25 -33 15 -78v-3q-10 -45 -49 -78q-40 -33 -86 -33h-23q-164 0 -214 106q-133 -106 -320 -106h-85q-191 0 -298 136t-67 327zM443 463q-19 -91 31 -155q51 -63 141 -63h85 q90 0 167 63q78 64 104 185h1l40 189h-304q-90 0 -168 -64q-77 -64 -97 -155z" />
<glyph unicode="'" horiz-adv-x="445" d="M346 986l34 332l27 124q10 50 54 86q43 35 92 35h3q49 0 78 -35q28 -36 18 -86l-27 -124l-106 -332h-173z" />
<glyph unicode="(" horiz-adv-x="707" d="M126 121l193 908q41 192 194 341q149 147 341 188q17 4 32 4q40 0 67 -28q39 -35 26 -95l-2 -8q-9 -44 -43 -77q-33 -33 -78 -42q-108 -23 -193 -103q-88 -83 -110 -186l-190 -896q-22 -103 30 -186q51 -80 150 -103q41 -9 60 -42q20 -33 10 -77l-2 -9q-12 -58 -66 -95 q-39 -26 -79 -26q-15 0 -30 3q-174 41 -261 188q-90 149 -49 341z" />
<glyph unicode=")" horiz-adv-x="707" d="M-28 -290l2 9q10 44 44 77q33 33 78 42q107 23 192 103q88 83 110 186l190 896q22 103 -30 186q-51 80 -149 103q-41 9 -60 42q-20 33 -11 77l2 8q13 60 66 95q39 28 79 28q14 0 29 -4q174 -41 262 -188q91 -149 50 -341l-193 -908q-41 -192 -195 -341 q-150 -147 -342 -188q-17 -4 -32 -4q-39 0 -66 27q-38 37 -26 95z" />
<glyph unicode="*" horiz-adv-x="977" d="M337 1086q3 17 13 35l2 2q22 42 68 64q28 12 53 12q17 0 33 -5l115 -41l28 130q9 45 49 78t85 33h2q47 0 72 -33t16 -78l-28 -130l132 39q20 6 39 6q24 0 45 -11q37 -22 41 -64v-2q2 -18 -1 -36q-6 -25 -23 -49q-29 -41 -76 -56l-132 -41l54 -105q14 -29 7 -63 q-2 -9 -5 -18q-17 -47 -57 -72l-3 -2q-36 -22 -72 -22q-8 0 -16 1q-46 7 -64 45l-54 105l-99 -105q-35 -38 -81 -45q-8 -1 -15 -1q-38 0 -69 25l-1 2q-27 22 -24 69q1 9 3 18q7 35 34 64l99 104l-116 41q-40 15 -52 55q-8 25 -2 51z" />
<glyph unicode="+" horiz-adv-x="1152" d="M216 780v2q11 50 54 86q42 36 93 36h283l60 283q11 51 54 85q42 36 93 36h2q50 0 78 -36q29 -34 18 -85l-60 -283h281q50 0 78 -36q29 -36 18 -86v-2q-11 -51 -54 -85q-44 -36 -94 -36h-281l-60 -281q-10 -50 -54 -86t-94 -36h-2q-51 0 -77 36q-28 36 -18 86l60 281h-283 q-51 0 -77 36q-29 34 -18 85z" />
<glyph unicode="," horiz-adv-x="441" d="M-2 -117q2 9 7 19l139 287q23 52 76 52h119q36 0 50 -32q8 -17 4 -35q-3 -15 -13 -30l-190 -287q-27 -41 -71 -41h-66q-34 0 -49 27q-10 19 -6 40z" />
<glyph unicode="-" horiz-adv-x="872" d="M216 780v2q11 50 54 86q42 36 93 36h529q50 0 78 -36q29 -36 18 -86v-2q-11 -51 -54 -85q-44 -36 -94 -36h-529q-51 0 -77 36q-29 34 -18 85z" />
<glyph unicode="." horiz-adv-x="1547" d="M100 -282v1710h1335v-1710h-1335zM135 -242h1264v1640h-1264v-1640zM199 438q18 24 50 24h9q28 -5 28 -40q0 -34 -33 -49q-12 -5 -27 -7v-37h-1q-5 0 -14 3v34h-5l-5 1q0 11 5 19h5q0 41 -6 41q-6 7 -6 11zM211 -108q0 5 11 16h3q8 -18 30 -18q18 0 18 20q0 15 -21 18 q-27 0 -32 12q-4 8 -4 12v8q0 34 42 34q24 -5 24 -21v-1q-1 -2 -12 -9h-3q0 7 -13 8h-1q-13 0 -20 -10v-4q0 -6 31 -6q27 -12 27 -38v-5q0 -28 -22 -38q-5 -3 -10 -3h-9q-23 0 -39 25zM224 435q1 -35 1 -47q1 0 1 -2q29 6 37 17q8 10 8 18q0 18 -15 21h-6q-26 -3 -26 -7z M288 374q0 40 32 53l11 1q23 -4 23 -22v-6q0 -20 -39 -36h-10q0 -11 17 -16q11 0 21 18h4q8 -12 8 -15q-17 -22 -30 -22h-7q-26 0 -30 45zM296 -16h15v9q0 46 5 46l15 -5q-2 -23 -2 -36v-14q13 3 15 3q2 -20 2 -24h-2q-9 -1 -15 -1q3 -63 5 -91q-12 -2 -17 -2v1q-5 61 -5 88 l-2 2h-14v24zM305 385q19 0 33 18v2q-7 2 -9 2q-16 0 -24 -19v-3zM325 911v56h9q0 -72 140 -84h177q66 0 66 -65v-103q0 -83 -103 -83h-158q-131 120 -131 279zM350 -11q17 -5 17 -6v-20q0 -67 12 -67h5q17 19 24 55q5 10 6 38h2q15 -2 15 -6q-3 -42 -3 -59v-10q0 -10 5 -20 q0 -6 -10 -18q-12 12 -12 25h-1q-11 -29 -28 -29h-3q-29 0 -29 93v24zM352 146v4q0 58 45 79l7 2h10q14 0 23 -23q-6 -6 -6 -9h-3q-9 15 -21 15q-17 0 -35 -26q-9 -19 -9 -34v-5q0 -29 24 -35q2 -1 8 -1q31 3 31 20v10q-4 3 -12 3h-10v17q28 0 33 -9q2 -7 2 -9 q-2 -25 -2 -29q0 -11 4 -26q-1 0 -8 -5h-1q-4 0 -6 22q-6 -8 -29 -12h-2q-38 0 -43 51zM353 1088v10q147 270 364 270v-242h-261q-54 0 -103 -38zM357 413q12 2 15 2v-1q0 -4 3 -19h1q10 43 28 43q19 0 28 -49q-1 0 -15 -4q-6 33 -13 33q-17 -9 -20 -75q1 -14 1 -15 q-10 -2 -15 -2q-13 69 -13 87zM409 986v37q3 19 19 19h289v-94q-35 19 -75 19h-214q-19 0 -19 19zM432 347v1q1 3 9 11h1q12 -15 28 -15q14 4 14 16q-4 15 -21 15q-28 0 -28 22v3q0 30 37 30q18 -5 18 -17v-1q0 -2 -10 -8h-1q-4 7 -13 7q-13 0 -16 -11q0 -5 29 -6 q20 -11 20 -34q0 -25 -20 -34l-8 -2h-5q-24 0 -34 23zM437 -63q0 48 34 58h4q14 0 29 -16v1q0 8 3 65q1 0 17 -4q-4 -38 -5 -92q0 -34 10 -69q-11 -10 -12 -10h-1q-3 0 -6 13h-2q0 -8 -21 -16q-33 0 -47 42q-3 12 -3 28zM446 132v15q0 33 26 46q5 2 15 2q20 -4 20 -20 q1 0 1 -2q0 -23 -35 -36q-5 -3 -15 -3v-1q0 -11 17 -17h1q10 0 23 16h3q0 -2 6 -9v-1q-14 -22 -29 -22h-6q-19 0 -27 32zM454 -64v-3q0 -34 30 -40h3q12 0 15 26v3q0 36 -21 48l-6 1h-2q-17 0 -19 -35zM457 150q23 0 39 22q-2 6 -11 6h-3q-19 0 -25 -28zM501 364q0 50 25 65 q2 1 11 3q20 0 33 -32q2 -9 2 -17v-3q0 -36 -35 -53q-5 -1 -9 -1q-27 4 -27 38zM513 172v16l11 1h2v18q0 27 3 27q8 -2 10 -2q-2 -29 -2 -42h2l12 2v-17q-1 0 -14 -2l4 -74l-2 -2h-8q-3 29 -5 75h-13zM516 365q2 -18 12 -18h3q24 7 26 35v3q-6 26 -20 26h-2q-13 0 -18 -32 q-1 -7 -1 -14zM534 22q2 14 12 14q9 0 11 -14v-1q0 -11 -8 -16h-7q-8 5 -8 17zM537 -10h12l6 -1q0 -3 -1 -8q1 -67 4 -109h-18l-1 8q-2 68 -2 110zM566 -76q0 51 30 69q10 2 11 2q25 0 41 -38q2 -11 2 -17v-9q0 -40 -39 -60q-4 -2 -13 -2q-27 0 -32 41v14zM567 538v10 q132 0 187 56h9q61 -56 187 -56v-10q-108 -37 -187 -37h-9q-80 0 -187 37zM575 409q7 2 14 2q3 -17 3 -20h1q7 41 21 41q19 0 36 -89q1 0 1 -7q-8 -7 -12 -7q-15 62 -23 80q-9 -13 -18 -70q-1 0 -5 -10h-7q-7 0 -9 57q-2 14 -2 23zM583 -82q0 -22 15 -25h4q15 0 29 29 q2 4 2 9v9q-7 31 -24 31h-2q-21 0 -24 -53zM592 154v17q6 0 10 2q-3 21 -3 52q3 29 17 29h2q13 0 15 -34v-3l-6 -1h-2q-3 21 -8 21q-6 0 -8 -19q1 -2 1 -4q0 -10 2 -39q5 3 9 3h3v-15l-11 -3q5 -57 5 -69h-11q-4 54 -4 65h-1q-5 -2 -10 -2zM634 193q2 0 11 -3q0 -74 14 -74 q19 12 28 66q1 5 1 11h1q3 0 10 -3q-3 -24 -3 -45v-12q0 -9 5 -19q-5 -7 -5 -11h-2q-7 4 -8 26h-2q-4 -15 -19 -29h-9q-20 0 -20 75v10zM652 348v8q0 30 32 35q11 -1 20 -6v1q-4 25 -17 25q-9 0 -18 -10h-3q-2 1 -8 11v2q12 14 23 14h11q27 -9 27 -45q-1 -21 -1 -35l2 -16 q-9 -8 -13 -8h-1l-2 11q-12 -8 -23 -8h-7q-22 3 -22 21zM654 -16h17q0 34 3 55h1l15 -5q-2 -28 -2 -45v-5q14 3 16 3l1 -14v-10q-16 -1 -16 -2q0 -23 5 -90q-13 -2 -17 -2v1q-5 75 -5 90h-18v24zM667 351q0 -3 10 -6q17 0 25 17q-8 7 -19 7q-16 -3 -16 -15v-3zM709 198v39h4 h6v-9q0 -61 3 -132h-11q-2 65 -2 102zM710 -40q0 33 3 33q12 -4 15 -4q-1 -23 -1 -34v-6q0 -33 12 -44h5q22 18 22 72v10h17v-1q8 -89 8 -103v-10q0 -44 -28 -60q-10 -4 -16 -4q-22 0 -29 20q-2 4 -2 9v9q0 15 4 15l14 -7l-1 -8v-4q0 -8 11 -10h4q20 0 25 33q1 4 1 12v20 l-1 13h-1q-10 -30 -29 -30h-2q-23 0 -30 50q-1 8 -1 20v9zM725 462v3v6h3l11 -1v-18q2 -70 2 -126l-7 -2h-6q-3 71 -3 138zM733 232v3q0 2 2 2h1h8v-30q0 -32 3 -111h-11q-3 66 -3 136zM782 411v11q0 25 8 44h4q0 -2 7 -12q-4 -18 -4 -30v-18q0 -44 15 -58h1q21 0 35 117h2 q12 -4 13 -4q-6 -58 -6 -86q0 -31 12 -31q2 -16 2 -20h-8q-13 0 -20 32h-1q-11 -28 -27 -28h-5q-20 0 -27 61q-1 4 -1 22zM789 154v17l11 1q-3 46 -3 52q0 30 19 30q12 0 16 -37l-8 -1h-2v1q0 15 -7 20q-8 -5 -8 -15q0 -8 3 -46v-1q5 3 10 3h1l1 -8v-7q-1 0 -12 -3l2 -3 q0 -12 4 -66h-11q0 6 -4 65q-9 -2 -12 -2zM800 -5h5q11 0 11 -3v-2q9 5 19 5q25 0 33 -44q0 -11 1 -14q-3 -52 -31 -64l-8 -1h-10l1 -8q0 -6 1 -40h-17q-5 132 -5 171zM800 725v317h383l9 -94v-18q0 -185 -131 -298h-167q-94 12 -94 93zM800 1126v242h10q132 0 279 -149 q56 -68 56 -93h-345zM816 -37q0 -3 3 -67l7 -1q22 0 26 42q-3 34 -17 34h-1q-10 0 -18 -8zM833 133v4q0 41 19 57q8 5 14 5q23 0 34 -38v-14q0 -34 -34 -50l-7 -1q-16 0 -24 20q-2 11 -2 17zM843 137q2 -23 15 -23h1q16 0 27 25q3 8 3 11q-6 31 -22 31h-4q-15 0 -20 -44z M871 347v1q8 11 10 11h1q12 -15 27 -15q14 4 14 16t-16 15q-25 0 -30 11q-2 11 -2 14q0 30 37 30q13 0 20 -18v-1q-11 -7 -14 -7q0 6 -11 7q-12 0 -17 -10v-1q0 -5 29 -6q19 -9 19 -36q0 -26 -24 -34h-8q-23 0 -35 23zM873 -81q0 54 30 74q11 2 12 2q23 0 39 -35 q4 -13 4 -24q0 -43 -38 -65q-8 -2 -14 -2q-22 0 -31 27q-2 12 -2 23zM890 -82v-5q0 -17 15 -20h2q16 0 30 26q4 8 4 18q-6 34 -28 34q-19 0 -23 -53zM905 176l8 2h2q3 -16 3 -33h1q9 54 24 54t34 -94h-1q-5 -4 -9 -4q-15 67 -24 79q-7 -7 -23 -79l-2 -1h-4q-6 0 -9 76z M941 373q0 40 30 54l12 1q24 -4 24 -23q0 -29 -42 -41h-7v-2q7 -14 16 -14q10 0 23 18h1q1 0 9 -12q0 -9 -21 -22q-4 -3 -9 -3h-7q-24 0 -29 44zM958 385h3q17 0 31 19q-6 3 -9 3h-3q-16 0 -22 -21v-1zM966 -113q1 17 11 17q9 0 12 -14v-5q-3 -13 -12 -13t-11 15zM979 172 l1 8v8l11 1h1v1q0 21 2 44q3 0 12 -2q-3 -13 -3 -29v-13h3l12 2v-17h-3l-12 -2l5 -74l-5 -2h-6q-3 62 -3 75h-15zM996 -84q0 34 19 64q12 12 18 12h8q6 0 15 -9q11 -12 11 -18q-11 -13 -12 -13q-11 15 -18 15h-2q-12 -5 -18 -28l-4 -21q0 -22 14 -24h3q11 0 34 16h1 q6 -20 6 -22q-25 -18 -47 -18q-23 0 -28 46zM1044 367v9q0 50 40 88q8 2 10 2h6q12 0 28 -28q12 -22 12 -44v-9q0 -37 -40 -58q-7 -3 -14 -3h-7q-30 0 -35 43zM1058 117v8q3 32 30 32q12 0 21 -8v3q0 25 -18 29h-3q-6 0 -17 -8h-1q-1 0 -6 7v2q10 13 19 13h11q16 0 24 -28 q2 -16 3 -18q-1 -6 -3 -26q2 -4 2 -23l-6 -4h-3l-3 12q-10 -11 -25 -11h-4q-21 3 -21 20zM1059 368q0 -21 25 -24q22 0 37 27q5 8 5 18v3q0 27 -26 53q-3 0 -3 2q-17 0 -35 -50q-3 -11 -3 -21v-8zM1068 122q3 -8 11 -8h6q14 0 22 18q-9 8 -17 8h-2q-20 -3 -20 -18zM1076 -76 q0 51 30 69q10 2 11 2q24 0 39 -35q4 -8 4 -19v-8q0 -43 -39 -62q-4 -2 -13 -2q-28 0 -32 41v14zM1092 -82q0 -25 17 -25h3q14 0 29 30q2 6 2 10v7q-8 31 -25 31h-1q-20 0 -25 -53zM1126 172v16l11 1h1l2 45q3 0 12 -2q-2 -18 -2 -34v-8h2l12 2v-8v-9q-1 0 -14 -2v-6 q0 -15 4 -68l-2 -2h-9l-4 75h-13zM1144 409q6 2 15 2q1 -19 1 -22h1q7 43 24 43q16 0 35 -96q-9 -7 -13 -7q-15 66 -24 80q-6 -12 -19 -74q-3 -6 -4 -6h-6q-7 0 -10 80zM1164 -23q13 6 17 6q2 -8 4 -31h2q9 43 24 43q17 0 27 -58h1q8 58 27 58h1q24 0 40 -118h-2 q-11 -5 -13 -5h-1q-19 98 -25 98q-10 -22 -17 -82q-3 -10 -10 -10q-8 0 -11 15q-13 76 -19 76q-16 -58 -16 -93q-10 -4 -17 -4v1zM1223 453q1 12 1 18h1l14 -1q-1 -9 -1 -13q0 -55 3 -131l-11 -2h-4q-2 58 -3 129zM1247 383v17q0 10 2 29q13 -2 14 -2q-1 -18 -1 -26v-9 q2 -35 13 -35h1q18 13 18 67h15v-3q7 -78 7 -88q0 -46 -30 -56h-5h-5q-18 0 -23 19q-1 5 -1 10q0 15 3 15h1q9 -6 12 -6l-1 -9q0 -8 9 -9h2q23 0 23 42q0 5 -1 21h-1q-8 -24 -26 -24h-1q-19 0 -25 47z" />
<glyph unicode="/" horiz-adv-x="695" d="M0 0l795 1562h232l-793 -1562h-234z" />
<glyph unicode="0" horiz-adv-x="1275" d="M214 538l104 488q47 221 239 379q191 158 412 158q222 0 347 -158q124 -158 77 -379l-104 -488q-47 -222 -238 -380q-192 -158 -414 -158q-221 0 -345 158q-125 158 -78 380zM461 544q-26 -121 41 -207t188 -86t226 86q104 86 130 207l101 476q26 121 -42 207t-189 86 t-225 -86q-103 -86 -129 -207z" />
<glyph unicode="1" horiz-adv-x="689" d="M316 1439v2q11 50 55 86q43 35 92 35h287q50 0 79 -35q27 -36 16 -86l-280 -1320q-11 -50 -53 -85q-44 -36 -94 -36h-2q-50 0 -78 36q-28 35 -17 85l254 1197h-164q-49 0 -77 35q-29 36 -18 86z" />
<glyph unicode="2" horiz-adv-x="1224" d="M126 121l20 94q39 184 197 333q109 102 318 219q254 144 299 175q129 91 147 180q18 81 -27 138q-46 58 -127 58h-402q-50 0 -78 35q-29 36 -18 86v2q11 50 55 86q43 35 93 35h402q183 0 285 -129q101 -129 62 -311q-34 -160 -189 -290q-92 -78 -309 -196 q-214 -119 -296 -184q-133 -109 -154 -207h651q51 0 77 -36q29 -36 18 -86v-2q-11 -51 -54 -85q-42 -36 -93 -36h-782q-49 0 -77 36q-29 34 -18 85z" />
<glyph unicode="3" horiz-adv-x="1035" d="M96 121v2q11 50 54 86q44 36 93 36h280q91 0 168 63q77 64 96 155q20 91 -30 155t-141 64h-236q-50 0 -78 36q-28 35 -17 85v2q11 50 53 86q44 35 94 35l236 1q81 0 150 56q69 57 86 139q18 81 -27 138q-46 58 -126 58h-280q-49 0 -77 35q-29 36 -18 86v2q11 50 55 86 q43 35 92 35h280q182 0 285 -129q101 -129 62 -311q-43 -206 -195 -314q127 -116 78 -345q-40 -191 -205 -327t-357 -136h-280q-49 0 -77 36q-29 34 -18 85z" />
<glyph unicode="4" horiz-adv-x="1253" d="M157 411l15 70q7 32 28 58l736 961q47 62 119 62h150q49 0 78 -35q28 -36 17 -86l-192 -906h115q50 0 78 -36q27 -36 17 -86l-1 -2q-10 -50 -53 -85q-43 -36 -93 -36h-115l-36 -169q-11 -51 -54 -85q-44 -36 -93 -36h-3q-49 0 -77 36q-29 34 -18 85l36 169h-558 q-49 0 -78 36q-28 34 -18 85zM476 535h387l148 699z" />
<glyph unicode="5" horiz-adv-x="1174" d="M146 121v2q11 50 54 86q44 36 93 36h399q91 0 168 63q77 64 96 155q20 91 -30 155t-141 64h-399q-49 0 -77 36q-29 34 -18 85l135 638q11 50 55 86q43 35 92 35h610q49 0 78 -35q28 -36 17 -86v-2q-11 -50 -54 -86q-44 -35 -93 -35h-486l-83 -392h275q192 0 299 -135 q107 -136 66 -328q-40 -191 -205 -327t-357 -136h-399q-49 0 -77 36q-29 34 -18 85z" />
<glyph unicode="6" horiz-adv-x="1258" d="M198 463l136 636q40 192 205 327q165 136 356 136h305q50 0 79 -35q28 -36 17 -86v-2q-11 -50 -54 -86q-44 -35 -94 -35h-305q-90 0 -167 -64q-78 -64 -97 -155l-37 -173h349q192 0 299 -135q107 -136 66 -328q-40 -191 -205 -327t-357 -136h-131q-191 0 -298 136 t-67 327zM443 463q-19 -91 31 -155q51 -63 141 -63h131q91 0 168 63q77 64 96 155q20 91 -30 155t-141 64h-349z" />
<glyph unicode="7" horiz-adv-x="960" d="M313 125l613 1193h-515q-49 0 -77 35q-29 36 -18 86v2q11 50 55 86q43 35 92 35h678q50 0 79 -35q27 -36 15 -90l-680 -1320q-10 -46 -52 -81q-44 -36 -94 -36h-2q-51 0 -77 36q-29 34 -17 89z" />
<glyph unicode="8" horiz-adv-x="1276" d="M198 463q49 229 226 345q-106 108 -63 314q39 182 196 311q156 129 338 129h150q182 0 284 -129t63 -311q-43 -206 -195 -314q126 -116 77 -345q-40 -191 -205 -327q-164 -136 -356 -136h-150q-191 0 -298 136t-67 327zM443 463q-19 -91 31 -155q51 -63 141 -63h150 q91 0 167 63q78 64 97 155q20 91 -31 155q-50 64 -140 64h-150q-90 0 -168 -64q-77 -64 -97 -155zM606 1122q-17 -82 28 -139q45 -56 126 -56h150q81 0 150 56q69 57 86 139q18 81 -27 138q-46 58 -126 58h-150q-80 0 -150 -58q-69 -57 -87 -138z" />
<glyph unicode="9" horiz-adv-x="1258" d="M207 121v2q11 50 53 86q44 36 94 36h392q91 0 168 63q77 64 96 155l38 173h-350q-191 0 -298 136t-66 327q40 192 205 327q165 136 356 136h131q192 0 299 -136q107 -135 67 -327l-136 -636q-40 -191 -205 -327t-357 -136h-392q-50 0 -78 36q-28 35 -17 85zM579 1099 q-20 -91 31 -155q50 -64 140 -64h350l47 219q19 91 -31 155q-51 64 -142 64h-131q-90 0 -167 -64q-78 -64 -97 -155z" />
<glyph unicode=":" horiz-adv-x="480" d="M130 140q12 57 62 98q49 41 107 41q57 0 90 -41q33 -40 21 -98q-13 -59 -63 -99q-50 -41 -107 -41q-58 0 -90 41q-33 41 -20 99zM315 1013q12 57 62 98t108 41q57 0 89 -41q34 -40 21 -98q-12 -59 -63 -99q-49 -41 -106 -41q-58 0 -91 41q-32 41 -20 99z" />
<glyph unicode=";" horiz-adv-x="480" d="M-2 -117q2 9 7 19l139 287q23 52 76 52h119q36 0 50 -32q8 -17 4 -35q-3 -15 -13 -30l-190 -287q-27 -41 -71 -41h-66q-34 0 -49 27q-10 19 -6 40zM315 1013q12 57 62 98t108 41q57 0 89 -41q34 -40 21 -98q-12 -59 -63 -99q-49 -41 -106 -41q-58 0 -91 41q-32 41 -20 99 z" />
<glyph unicode="&#x3c;" horiz-adv-x="1190" d="M195 680l38 181q12 57 70 79l998 358q18 7 34 7q24 0 42 -15q32 -25 22 -70l-14 -67q-12 -56 -70 -78l-838 -304l709 -305q49 -20 36 -78l-14 -67q-9 -45 -52 -70q-24 -15 -48 -15q-16 0 -31 7l-846 359q-49 20 -36 78z" />
<glyph unicode="=" horiz-adv-x="1152" d="M168 555v2q11 50 55 86q41 36 92 36h809q50 0 79 -36q28 -36 17 -86v-2q-11 -51 -54 -85q-44 -36 -94 -36h-809q-51 0 -77 36q-29 34 -18 85zM260 990l1 2q10 50 54 86q42 36 93 36h809q50 0 78 -36t18 -86l-1 -2q-10 -51 -54 -85q-43 -36 -93 -36h-809q-51 0 -78 36 q-28 34 -18 85z" />
<glyph unicode="&#x3e;" horiz-adv-x="1190" d="M118 321l14 67q13 58 70 78l840 305l-711 304q-48 22 -36 78l14 67q10 45 52 70q24 15 48 15q16 0 32 -7l846 -358q48 -22 36 -79l-38 -181q-13 -58 -70 -78l-998 -359q-19 -7 -35 -7q-24 0 -42 15q-31 25 -22 70z" />
<glyph unicode="?" horiz-adv-x="1110" d="M331 1172q4 18 14 37q76 148 221 242q148 95 307 95q197 0 307 -139q109 -140 67 -337q-35 -169 -169 -299q-131 -129 -287 -163l-27 -130q-10 -47 -53 -83q-42 -35 -91 -35h-3q-49 0 -77 35q-27 36 -17 85l50 235q10 49 53 84q41 35 90 36h5q98 0 181 68q84 69 104 167 q21 98 -33 167q-54 68 -152 68q-79 0 -151 -47q-70 -46 -109 -119q-19 -38 -56 -61q-36 -23 -76 -23h-3q-60 0 -86 48q-17 32 -9 69zM431 139q12 57 61 98q50 41 108 41q57 0 89 -41q34 -40 22 -98q-13 -59 -63 -99q-50 -41 -107 -41q-58 0 -90 41q-33 41 -20 99z" />
<glyph unicode="@" horiz-adv-x="2205" d="M225 588q88 412 442 701q356 295 773 295q416 0 646 -295q232 -289 144 -701q-53 -251 -225 -441q-170 -189 -337 -197h-17q-100 0 -153 65q-73 86 -22 322l4 20l49 223q33 154 -47 241q-49 53 -136 69q-34 7 -68 7q-53 0 -111 -17q-219 -63 -270 -300q-41 -196 110 -283 q61 -36 140 -36q9 0 20 2q87 6 205 75l51 -221q-151 -78 -283 -88q-21 -1 -42 -1q-137 0 -251 64q-125 72 -176 200q-52 130 -19 288q55 257 261 409q190 142 417 142q226 0 356 -141q143 -153 88 -410l-49 -225l-5 -24q-28 -133 -13 -148q49 3 135 109q108 132 143 296 q67 317 -110 542q-174 221 -485 221q-312 0 -583 -224q-270 -222 -337 -539q-68 -318 110 -543q175 -220 484 -220h2q180 0 401 103l49 -217q-265 -119 -500 -119h-2q-416 0 -645 294q-232 289 -144 702z" />
<glyph unicode="A" d="M136 121l196 924q46 214 230 366q184 151 397 151q214 0 334 -151q87 -110 87 -252q0 -55 -13 -114l-196 -924q-11 -51 -54 -85q-44 -36 -93 -36h-3q-49 0 -77 36q-21 25 -21 58q0 13 3 27l95 446h-545l-95 -446q-11 -51 -54 -85q-44 -36 -93 -36h-3q-49 0 -77 36 q-21 25 -21 58q0 13 3 27zM527 811h545l50 234q7 32 7 60q0 75 -45 133q-63 80 -177 80q-113 0 -210 -80q-96 -80 -120 -193z" />
<glyph unicode="B" horiz-adv-x="1164" d="M170 282l212 998q25 117 126 200q100 82 216 82h238q183 0 285 -129q73 -93 73 -214q0 -47 -11 -97q-43 -206 -195 -314q92 -84 92 -226q0 -55 -14 -119q-40 -191 -205 -327t-357 -136h-238q-116 0 -181 83q-48 60 -48 138q0 29 7 61zM415 282q-3 -16 4 -27q9 -10 25 -10 h238q91 0 168 63q77 64 96 155q6 26 6 50q0 59 -36 105q-50 64 -141 64h-275zM552 926l275 1q82 0 151 56q69 57 86 139q5 23 5 44q0 53 -32 94q-46 58 -127 58h-238q-16 0 -29 -11t-16 -27z" />
<glyph unicode="C" horiz-adv-x="1202" d="M241 781q69 323 346 552q278 229 601 229q99 0 189 -24q71 -20 71 -85q0 -15 -4 -32l-1 -3q-12 -59 -68 -96q-37 -25 -75 -25q-16 0 -32 4q-64 17 -132 17q-222 0 -412 -157q-191 -157 -238 -380q-13 -62 -13 -118q0 -148 89 -262q124 -156 346 -156q68 0 138 16 q18 4 34 4q38 0 65 -25q31 -28 31 -70q0 -13 -3 -26l-1 -2q-20 -94 -117 -118q-100 -24 -199 -24q-323 0 -503 229q-131 166 -131 381q0 82 19 171z" />
<glyph unicode="D" horiz-adv-x="1384" d="M170 282l212 998q25 117 126 200q100 82 216 82h151q323 0 503 -229q131 -166 131 -381q0 -82 -19 -171q-69 -323 -346 -552q-278 -229 -601 -229h-151q-116 0 -181 83q-48 60 -48 138q0 29 7 61zM415 282q-3 -16 4 -27q9 -10 25 -10h151q223 0 413 156q191 157 238 380 q13 62 13 118q0 148 -89 262q-124 157 -347 157h-151q-16 0 -29 -11t-16 -27z" />
<glyph unicode="E" horiz-adv-x="1008" d="M188 365l176 832q33 151 162 258q130 107 281 107h357q49 0 77 -36q21 -25 21 -58q0 -13 -3 -27v-2q-11 -50 -54 -86q-44 -36 -93 -36h-357q-50 0 -93 -35q-42 -35 -53 -85l-62 -294h477q49 0 77 -35q21 -26 21 -60q0 -13 -3 -26v-2q-11 -50 -54 -86q-44 -35 -93 -35 h-477l-62 -294q-3 -14 -3 -27q0 -33 20 -58q27 -35 77 -35h357q49 0 77 -36q21 -26 21 -60q0 -13 -3 -26v-2q-11 -51 -54 -85q-44 -36 -93 -36h-357q-151 0 -235 107q-61 77 -61 177q0 39 9 81z" />
<glyph unicode="F" horiz-adv-x="933" d="M136 121l228 1076q33 151 162 258q130 107 281 107h307q49 0 78 -35q20 -26 20 -59q0 -13 -3 -27v-2q-11 -50 -54 -86q-44 -35 -93 -35h-307q-50 0 -92 -35q-43 -35 -54 -86l-62 -294h417q49 0 77 -35q21 -26 21 -60q0 -13 -3 -26v-2q-11 -51 -54 -85q-44 -36 -93 -36 h-417l-114 -538q-11 -51 -54 -85q-44 -36 -93 -36h-3q-49 0 -77 36q-21 25 -21 58q0 13 3 27z" />
<glyph unicode="G" horiz-adv-x="1723" d="M246 781q69 323 346 552q278 229 601 229q343 0 521 -252q19 -26 19 -57q0 -12 -3 -25q-1 -7 -4 -13q-18 -55 -67 -84l-2 -2q-38 -24 -75 -24q-7 0 -14 1q-44 4 -69 39q-122 173 -358 173q-222 0 -412 -157q-191 -157 -238 -380q-13 -62 -13 -118q0 -148 89 -262 q124 -156 346 -156q199 0 376 129q177 128 236 285h-499q-50 0 -78 36q-20 25 -20 58q0 13 3 27v2q11 50 53 86q44 35 94 35h635q50 0 78 -35q21 -27 21 -61q0 -12 -3 -25v-1q-69 -323 -346 -552q-279 -229 -602 -229t-503 229q-131 166 -131 381q0 82 19 171z" />
<glyph unicode="H" horiz-adv-x="1264" d="M136 121l280 1320q11 50 55 86q43 35 92 35h3q49 0 78 -35q20 -26 20 -59q0 -13 -3 -27l-114 -538h554l114 538q11 50 55 86q43 35 92 35h3q49 0 78 -35q20 -26 20 -59q0 -13 -3 -27l-280 -1320q-11 -51 -54 -85q-44 -36 -93 -36h-3q-49 0 -77 36q-21 25 -21 58 q0 13 3 27l114 538h-554l-114 -538q-11 -51 -54 -85q-44 -36 -93 -36h-3q-49 0 -77 36q-21 25 -21 58q0 13 3 27z" />
<glyph unicode="I" horiz-adv-x="525" d="M166 121l280 1320q11 50 55 86q43 35 92 35h3q49 0 78 -35q20 -26 20 -59q0 -13 -3 -27l-280 -1320q-11 -51 -54 -85q-44 -36 -93 -36h-3q-49 0 -77 36q-21 25 -21 58q0 13 3 27z" />
<glyph unicode="J" horiz-adv-x="801" d="M36 121v2q11 50 54 86q44 36 93 36h185q51 0 94 35q42 35 53 85l228 1076q11 50 54 86q43 35 93 35h2q50 0 79 -35q19 -26 19 -58q0 -14 -3 -28l-228 -1076q-33 -151 -162 -258q-130 -107 -281 -107h-185q-49 0 -77 36q-21 25 -21 58q0 13 3 27z" />
<glyph unicode="K" horiz-adv-x="1158" d="M136 121l280 1320q11 50 55 86q43 35 92 35h3q49 0 78 -35q20 -26 20 -59q0 -13 -3 -27l-103 -488h104q137 0 253 96q118 97 147 233l34 159q11 50 55 86q42 35 92 35h3q49 0 78 -35q20 -26 20 -59q0 -13 -3 -27l-34 -159q-61 -289 -288 -435q78 -54 124 -183 q28 -79 29 -165q0 -59 -14 -122l-54 -256q-11 -50 -53 -85q-44 -36 -94 -36h-2q-50 0 -78 36q-20 25 -20 58q0 13 3 27l54 256q8 37 8 70q0 92 -56 163q-77 96 -214 96h-147l-124 -585q-11 -51 -54 -85q-44 -36 -93 -36h-3q-49 0 -77 36q-21 25 -21 58q0 13 3 27z" />
<glyph unicode="L" horiz-adv-x="908" d="M198 365l228 1076q11 50 55 86q43 35 92 35h3q49 0 78 -35q20 -26 20 -59q0 -13 -3 -27l-228 -1076q-3 -14 -3 -27q0 -33 20 -58q27 -35 77 -35h291q50 0 78 -36q21 -26 21 -60q0 -13 -3 -26v-2q-11 -51 -54 -85q-44 -36 -94 -36h-291q-151 0 -235 107q-61 77 -61 177 q0 39 9 81z" />
<glyph unicode="M" horiz-adv-x="1899" d="M136 121l204 960q42 199 213 340t370 141q238 0 325 -158q154 158 392 158q199 0 310 -141q81 -102 81 -235q0 -50 -12 -105l-204 -960q-11 -50 -53 -85q-44 -36 -94 -36h-2q-51 0 -77 36q-21 25 -21 58q0 13 3 27l204 960q6 27 6 52q0 66 -40 116q-54 69 -153 69 q-98 0 -182 -69q-83 -69 -104 -168l-204 -960q-11 -51 -54 -85q-42 -36 -93 -36h-2q-50 0 -78 36q-21 25 -21 58q0 13 3 27l204 960q6 27 6 52q0 66 -40 116q-54 69 -152 69t-182 -69q-83 -69 -104 -168l-204 -960q-11 -51 -54 -85q-44 -36 -93 -36h-3q-49 0 -77 36 q-21 25 -21 58q0 13 3 27z" />
<glyph unicode="N" d="M136 121l196 924q46 214 230 366q184 151 397 151q214 0 334 -151q87 -110 87 -252q0 -55 -13 -114l-196 -924q-11 -51 -54 -85q-44 -36 -93 -36h-3q-49 0 -77 36q-21 25 -21 58q0 13 3 27l196 924q7 32 7 60q0 75 -45 133q-63 80 -177 80q-113 0 -210 -80 q-96 -80 -120 -193l-196 -924q-11 -51 -54 -85q-44 -36 -93 -36h-3q-49 0 -77 36q-21 25 -21 58q0 13 3 27z" />
<glyph unicode="O" horiz-adv-x="1723" d="M246 781q69 323 346 552q278 229 601 229t504 -229q131 -166 131 -381q0 -82 -19 -171q-69 -323 -346 -552q-279 -229 -602 -229t-503 229q-131 166 -131 381q0 82 19 171zM491 781q-13 -62 -13 -118q0 -148 89 -262q124 -156 346 -156q223 0 413 156q191 157 238 380 q13 62 13 118q0 148 -89 262q-124 157 -347 157q-222 0 -412 -157q-191 -157 -238 -380z" />
<glyph unicode="P" horiz-adv-x="1242" d="M136 121l193 910q47 220 236 376q189 155 408 155q220 0 342 -155q89 -113 89 -259q0 -56 -13 -117q-46 -219 -236 -375q-188 -156 -408 -156h-286l-80 -379q-11 -51 -54 -85q-44 -36 -93 -36h-3q-49 0 -77 36q-21 25 -21 58q0 13 3 27zM513 745h286q119 0 221 84 q101 83 126 202q7 33 7 63q0 79 -47 140q-66 84 -185 84t-221 -84q-101 -84 -126 -203z" />
<glyph unicode="Q" horiz-adv-x="1723" d="M246 781q69 323 346 552q278 229 601 229t504 -229q131 -166 131 -381q0 -82 -19 -171q-63 -297 -309 -519q-242 -220 -514 -253l-33 -157q-11 -50 -55 -86q-43 -35 -93 -35h-2q-50 0 -78 35q-20 26 -20 59q0 13 3 27l33 157q-258 33 -407 253q-107 157 -107 351 q0 81 19 168zM491 781q-13 -60 -13 -116q0 -128 68 -232q96 -150 248 -176l45 213q10 49 54 85q42 36 93 36h2q50 0 78 -36q21 -27 21 -60q0 -12 -3 -25l-45 -213q162 26 322 175q161 151 203 349q13 62 13 118q0 148 -89 262q-124 157 -347 157q-222 0 -412 -157 q-191 -157 -238 -380z" />
<glyph unicode="R" horiz-adv-x="1190" d="M136 121l223 1051q34 161 173 275q139 115 300 115h130q207 0 322 -147q84 -107 84 -245q0 -52 -12 -109q-44 -206 -223 -353l-28 -24l19 -25q83 -106 83 -243q0 -53 -12 -110l-39 -185q-11 -51 -54 -85q-44 -36 -93 -36h-2q-49 0 -77 36q-21 25 -21 58q0 13 3 27l39 185 q6 30 6 57q0 70 -42 124q-54 69 -147 74h-295l-93 -440q-11 -50 -53 -85q-44 -36 -94 -36h-2q-51 0 -77 36q-21 25 -21 58q0 13 3 27zM525 806h276q106 0 197 74q91 75 114 181q6 29 6 56q0 72 -43 126q-59 74 -165 74h-115q-75 0 -126 -41q-40 -33 -58 -78q-5 -11 -10 -35z " />
<glyph unicode="S" horiz-adv-x="1096" d="M96 121l1 6q10 49 54 85t93 36h391q85 0 158 60t92 146q4 21 4 39q0 72 -64 117q-39 26 -224 88q-159 56 -222 127q-67 75 -67 189q0 47 11 100q40 188 201 321t349 133h269q50 0 79 -36q20 -26 20 -59q0 -12 -3 -26l-2 -6q-10 -49 -53 -85t-93 -36h-279q-86 0 -159 -60 t-91 -146q-5 -22 -4 -41q0 -72 64 -114q36 -23 224 -81q160 -51 223 -123q67 -75 67 -193q0 -50 -12 -108q-40 -188 -203 -321q-161 -133 -348 -133h-381q-49 0 -77 36q-21 26 -21 59q0 13 3 26z" />
<glyph unicode="T" horiz-adv-x="1054" d="M346 1439v2q11 50 55 86q43 35 92 35h732q50 0 78 -35q20 -26 20 -59q0 -13 -3 -27v-2q-11 -50 -54 -86q-43 -35 -93 -35h-244l-254 -1197q-11 -50 -53 -85q-44 -36 -94 -36h-2q-50 0 -78 36q-20 25 -20 58q0 13 3 27l254 1197h-244q-49 0 -77 35q-21 26 -21 60 q0 12 3 26z" />
<glyph unicode="U" d="M220 517l196 924q11 50 55 86q43 35 92 35h3q49 0 78 -35q20 -26 20 -59q0 -13 -3 -27l-196 -924q-7 -32 -7 -60q0 -75 45 -133q63 -79 176 -79q114 0 211 79q96 80 120 193l196 924q11 50 55 86q43 35 92 35h3q49 0 78 -35q20 -26 20 -59q0 -13 -3 -27l-196 -924 q-46 -214 -230 -365q-184 -152 -398 -152q-213 0 -333 152q-87 109 -87 251q0 55 13 114z" />
<glyph unicode="V" horiz-adv-x="1216" d="M326 1401q-4 22 1 43q8 36 37 68q48 50 110 50h7q87 0 98 -82l105 -1127l584 1127q45 82 131 82h7q63 0 88 -50q12 -23 12 -48q0 -10 -2 -21q-5 -20 -17 -42l-683 -1284q-71 -117 -196 -117q-124 0 -146 117z" />
<glyph unicode="W" horiz-adv-x="1899" d="M212 481l204 960q11 50 55 86q43 35 92 35h3q49 0 78 -35q20 -26 20 -59q0 -13 -3 -27l-204 -960q-6 -27 -6 -52q0 -65 40 -115q54 -69 152 -69t182 69q83 69 104 167l204 960q11 50 55 86q43 35 93 35h2q50 0 78 -35q20 -26 20 -59q0 -13 -3 -27l-204 -960 q-6 -27 -6 -52q0 -65 40 -115q54 -69 152 -69q99 0 183 69q83 69 104 167l204 960q11 50 55 86q42 35 92 35h2q50 0 79 -35q19 -26 19 -58q0 -13 -3 -28l-204 -960q-42 -199 -213 -340t-370 -141q-238 0 -324 158q-155 -158 -393 -158q-199 0 -310 141q-81 102 -81 235 q0 50 12 105z" />
<glyph unicode="X" horiz-adv-x="1235" d="M126 121l64 303q56 264 265 395q-112 96 -112 263q0 61 15 132l48 227q11 50 55 86q43 35 92 35h3q49 0 78 -35q20 -26 20 -59q0 -13 -3 -27l-48 -227q-7 -32 -7 -60q0 -75 45 -133q63 -80 176 -80q114 0 211 80q96 80 120 193l48 227q11 50 55 86q43 35 92 35h3 q49 0 78 -35q20 -26 20 -59q0 -13 -3 -27l-48 -227q-56 -264 -265 -395q112 -96 112 -263q0 -61 -15 -132l-64 -303q-11 -51 -54 -85q-44 -36 -93 -36h-3q-49 0 -77 36q-21 25 -21 58q0 13 3 27l64 303q7 32 7 60q0 75 -45 133q-63 80 -177 80q-113 0 -210 -80 q-96 -80 -120 -193l-64 -303q-11 -51 -54 -85q-44 -36 -93 -36h-3q-49 0 -77 36q-21 25 -21 58q0 13 3 27z" />
<glyph unicode="Y" horiz-adv-x="1235" d="M312 997l94 444q11 50 55 86q43 35 92 35h3q49 0 78 -35q20 -26 20 -59q0 -13 -3 -27l-94 -444q-7 -32 -7 -61q0 -75 45 -133q63 -79 176 -79q114 0 211 79q96 80 120 194l94 444q11 50 55 86q43 35 92 35h3q49 0 78 -35q20 -26 20 -59q0 -13 -3 -27l-94 -444 q-40 -188 -191 -332q-149 -141 -311 -172l-79 -372q-11 -51 -54 -85q-44 -36 -93 -36h-3q-49 0 -77 36q-21 25 -21 58q0 13 3 27l79 372q-150 31 -239 172q-61 99 -61 220q0 54 12 112z" />
<glyph unicode="Z" horiz-adv-x="1093" d="M86 215q11 55 49 105l909 998h-559q-50 0 -78 35q-20 26 -20 59q0 13 3 27v2q11 50 54 86q43 35 93 35h619q88 -1 135 -64q36 -46 36 -105q0 -22 -5 -45q-14 -65 -61 -119l-896 -984h619q51 0 77 -36q21 -26 21 -60q0 -13 -3 -26v-2q-11 -51 -54 -85q-42 -36 -93 -36 h-697q-81 8 -124 70q-30 43 -30 97q0 23 5 48z" />
<glyph unicode="[" horiz-adv-x="711" d="M13 -411l419 1973h511l-41 -191h-266l-338 -1590h266l-40 -192h-511z" />
<glyph unicode="\" horiz-adv-x="695" d="M332 1562h233l130 -1562h-233z" />
<glyph unicode="]" horiz-adv-x="711" d="M13 -411l40 192h266l338 1590h-266l41 191h511l-419 -1973h-511z" />
<glyph unicode="^" horiz-adv-x="1369" d="M440 906q3 16 14 34l391 567q33 55 94 55h154q60 0 70 -55l150 -567q4 -18 0 -35q-5 -25 -27 -48q-33 -39 -80 -39h-72q-60 0 -70 55l-104 425l-285 -425q-33 -55 -93 -55h-72q-48 0 -65 39q-11 23 -5 49z" />
<glyph unicode="_" horiz-adv-x="1007" d="M-10 -1h1027v-245h-1027v245z" />
<glyph unicode="`" horiz-adv-x="681" d="M343 1560q3 16 16 34q27 39 69 39h155q36 0 48 -28l122 -250q11 -20 6 -41q-3 -15 -14 -31q-27 -37 -69 -37h-76q-27 0 -47 23l-201 251q-14 18 -9 40z" />
<glyph unicode="a" horiz-adv-x="1352" d="M222 576q51 238 256 407t443 169t371 -169q96 -122 96 -280q0 -61 -14 -127l-96 -455q-11 -51 -54 -85q-44 -36 -93 -36h-3q-49 0 -77 36q-21 25 -21 58q0 13 3 27q-140 -121 -357 -121q-238 0 -371 169q-97 123 -97 282q0 60 14 125zM467 576q-8 -38 -8 -74 q0 -91 54 -161q77 -96 215 -96t254 96q118 97 147 235q8 38 8 74q0 91 -55 160q-76 97 -213 97q-138 0 -256 -97q-116 -97 -146 -234z" />
<glyph unicode="b" horiz-adv-x="1322" d="M222 573l184 868q11 50 55 86q43 35 92 35h3q49 0 78 -35q20 -26 20 -59q0 -13 -3 -27l-82 -389q134 100 352 100q238 0 371 -169q96 -122 96 -280q0 -61 -14 -127q-50 -238 -255 -407t-443 -169t-370 168q-98 122 -98 281q0 59 14 124zM467 573q-8 -38 -8 -73 q0 -91 54 -161q76 -97 214 -97q137 0 255 97t147 234q8 38 8 73q0 92 -55 162q-77 97 -214 97q-138 0 -255 -97t-146 -235z" />
<glyph unicode="c" horiz-adv-x="975" d="M192 576q51 238 256 407t443 169q90 0 168 -27q64 -22 64 -84q0 -15 -4 -32l-1 -5q-13 -61 -69 -97q-39 -24 -75 -24q-19 0 -38 6q-46 16 -98 16q-138 0 -255 -97t-146 -235q-8 -38 -8 -73q0 -91 54 -161q76 -97 214 -97q52 0 105 16q20 6 39 6q37 0 66 -24 q31 -27 31 -70q0 -13 -3 -28q-19 -88 -109 -116q-90 -26 -180 -26q-238 0 -371 169q-97 123 -97 282q0 60 14 125z" />
<glyph unicode="d" horiz-adv-x="1322" d="M192 576q51 238 256 407t443 169q217 0 310 -100l82 389q11 50 55 86q43 35 92 35h3q49 0 78 -35q20 -26 20 -59q0 -13 -3 -27l-184 -868q-52 -238 -256 -405q-205 -168 -442 -168q-238 0 -371 169q-97 123 -97 282q0 60 14 125zM437 573q-8 -38 -8 -73q0 -91 54 -161 q76 -97 214 -97q137 0 255 97t147 234q8 38 8 73q0 92 -55 162q-77 97 -214 97q-138 0 -255 -97t-146 -235z" />
<glyph unicode="e" horiz-adv-x="1277" d="M192 576q51 238 256 407t443 169q172 0 294 -94q121 -92 157 -242q7 -25 2 -51q-5 -21 -17 -42q-27 -47 -79 -68q-153 -63 -403 -166q-310 -128 -364 -151q55 -96 216 -96q107 0 208 63q98 62 153 160q46 82 133 82q62 0 88 -52q11 -22 11 -46q0 -10 -2 -21 q-4 -21 -17 -43q-96 -171 -266 -276q-173 -109 -359 -109q-238 0 -371 169q-97 123 -97 282q0 60 14 125zM435 566l613 251q-56 88 -210 88q-138 0 -255 -97t-146 -235z" />
<glyph unicode="f" horiz-adv-x="759" d="M126 121l212 1001q41 183 196 311q156 129 339 129h57q50 0 79 -35q19 -26 19 -58q0 -14 -3 -28v-2q-11 -50 -53 -86q-44 -35 -94 -35h-57q-82 0 -151 -57q-68 -57 -80 -110h253q50 0 78 -36q20 -25 20 -58q0 -13 -3 -27v-2q-11 -50 -54 -86t-93 -36h-253l-167 -785 q-11 -51 -54 -85q-44 -36 -93 -36h-3q-49 0 -77 36q-21 25 -21 58q0 13 3 27z" />
<glyph unicode="g" horiz-adv-x="1322" d="M103 -85q4 20 15 40q30 56 91 76l3 1q27 9 50 9q56 0 82 -56q67 -151 267 -151q125 0 247 98q126 100 154 233q-149 -165 -366 -165q-238 0 -371 169q-97 123 -97 282q0 60 14 125q51 238 256 407t443 169q237 0 370 -168q98 -122 98 -281q0 -60 -14 -125l-88 -413 q-50 -234 -268 -408q-210 -168 -430 -168q-337 0 -450 262q-8 20 -8 41q0 11 2 23zM437 576q-8 -38 -8 -74q0 -91 54 -161q77 -96 215 -96t254 96q118 97 147 235l2 6q7 34 7 66q0 93 -57 164q-76 95 -212 95q-138 0 -256 -97q-116 -97 -146 -234z" />
<glyph unicode="h" horiz-adv-x="1167" d="M126 121l280 1320q11 50 55 86q43 35 92 35h3q49 0 78 -35q20 -26 20 -59q0 -13 -3 -27l-74 -348q92 59 252 59q199 0 311 -142q81 -103 81 -237q0 -51 -12 -105l-116 -547q-11 -51 -54 -85q-42 -36 -93 -36h-2q-50 0 -78 36q-21 25 -21 58q0 13 3 27l116 547q6 28 6 53 q0 65 -39 116q-55 70 -154 70q-100 0 -185 -70q-84 -70 -105 -169l-116 -547q-11 -51 -54 -85q-44 -36 -93 -36h-3q-49 0 -77 36q-21 25 -21 58q0 13 3 27z" />
<glyph unicode="i" horiz-adv-x="520" d="M163 121l193 909q11 50 54 86q44 36 94 36h2q51 0 77 -36q21 -26 21 -60q0 -13 -3 -26l-193 -909q-11 -51 -54 -85q-42 -36 -93 -36h-2q-50 0 -78 36q-21 25 -21 58q0 13 3 27zM422 1422q12 57 62 98t108 41q57 0 89 -41q25 -29 25 -67q0 -15 -4 -31q-12 -59 -63 -99 q-50 -41 -107 -41q-58 0 -90 41q-23 30 -23 69q0 14 3 30z" />
<glyph unicode="j" horiz-adv-x="529" d="M-272 -290l1 3q10 49 54 85t93 36h58q81 0 150 57t87 139l213 1000q11 50 53 86q44 36 94 36h2q50 0 78 -36q20 -26 20 -59q0 -13 -3 -27l-213 -1000q-41 -184 -195 -312q-154 -129 -338 -129h-58q-49 0 -78 36q-21 27 -21 60q0 12 3 25zM449 1424q12 57 62 98 q49 41 107 41q57 0 90 -41q24 -29 24 -68q0 -15 -3 -30q-13 -59 -63 -99q-50 -41 -107 -41q-58 0 -90 41q-24 29 -24 68q0 15 4 31z" />
<glyph unicode="k" horiz-adv-x="1073" d="M126 121l280 1320q11 50 55 86q43 35 92 35h3q49 0 78 -35q20 -26 20 -59q0 -13 -3 -27l-147 -693h38q128 0 241 85q111 85 151 210q16 47 56 77q41 32 88 32h3q53 0 80 -40q18 -25 18 -56q0 -12 -3 -25q-1 -6 -4 -13q-77 -251 -272 -376q77 -54 124 -183q29 -80 29 -167 q0 -58 -13 -120l-11 -51q-11 -51 -54 -85q-44 -36 -93 -36h-3q-49 0 -77 36q-21 25 -21 58q0 13 3 27l11 51q7 36 7 69q0 92 -55 164q-77 96 -214 96h-82l-80 -380q-11 -51 -54 -85q-44 -36 -93 -36h-3q-49 0 -77 36q-21 25 -21 58q0 13 3 27z" />
<glyph unicode="l" horiz-adv-x="525" d="M166 121l280 1320q11 50 55 86q43 35 92 35h3q49 0 78 -35q20 -26 20 -59q0 -13 -3 -27l-280 -1320q-11 -51 -54 -85q-44 -36 -93 -36h-3q-49 0 -77 36q-21 25 -21 58q0 13 3 27z" />
<glyph unicode="m" horiz-adv-x="1879" d="M126 121l117 550q42 198 213 340q171 141 370 141q238 0 325 -158q154 158 392 158q199 0 310 -141q81 -103 80 -236q0 -50 -11 -104l-117 -550q-11 -50 -53 -85q-44 -36 -94 -36h-2q-51 0 -77 36q-21 25 -21 58q0 13 3 27l117 550q5 26 5 51q0 66 -39 116 q-54 69 -153 69q-98 0 -182 -69t-104 -167l-117 -550q-11 -51 -54 -85q-42 -36 -93 -36h-2q-50 0 -78 36q-21 25 -21 58q0 13 3 27l117 550q5 26 5 51q0 66 -39 116q-54 69 -152 69t-182 -69t-104 -167l-117 -550q-11 -51 -54 -85q-44 -36 -93 -36h-3q-49 0 -77 36 q-21 25 -21 58q0 13 3 27z" />
<glyph unicode="n" horiz-adv-x="1167" d="M126 121l116 547q42 200 215 342q172 142 372 142q199 0 311 -142q81 -103 81 -237q0 -51 -12 -105l-116 -547q-11 -51 -54 -85q-42 -36 -93 -36h-2q-50 0 -78 36q-21 25 -21 58q0 13 3 27l116 547q6 28 6 53q0 65 -39 116q-55 70 -154 70q-100 0 -185 -70 q-84 -70 -105 -169l-116 -547q-11 -51 -54 -85q-44 -36 -93 -36h-3q-49 0 -77 36q-21 25 -21 58q0 13 3 27z" />
<glyph unicode="o" horiz-adv-x="1292" d="M192 576q51 238 256 407t443 169t371 -169q96 -122 96 -280q0 -61 -14 -127q-50 -238 -255 -407t-443 -169t-371 169q-97 123 -97 282q0 60 14 125zM437 573q-8 -38 -8 -73q0 -91 54 -161q76 -97 214 -97q137 0 255 97t147 234q8 38 8 73q0 92 -55 162q-77 97 -214 97 q-138 0 -255 -97t-146 -235z" />
<glyph unicode="p" horiz-adv-x="1322" d="M38 -290l185 868q52 239 256 406q204 168 442 168t371 -169q96 -122 96 -280q0 -61 -14 -127q-50 -238 -255 -407t-443 -169q-218 0 -310 100l-83 -390q-10 -49 -54 -85q-43 -36 -92 -36h-3q-49 0 -78 36q-21 27 -21 60q0 12 3 25zM468 578q-8 -38 -8 -73q0 -91 54 -161 q77 -97 215 -97q137 0 254 97q118 97 147 234q8 38 8 73q0 92 -55 162q-76 96 -214 96t-255 -96q-117 -97 -146 -235z" />
<glyph unicode="q" horiz-adv-x="1322" d="M192 576q51 238 256 407t443 169q237 0 370 -168q97 -124 97 -283q0 -59 -13 -123l-185 -868q-10 -49 -54 -85q-43 -36 -92 -36h-3q-49 0 -78 36q-21 27 -21 60q0 12 3 25l83 390q-135 -100 -352 -100q-238 0 -371 169q-97 123 -97 282q0 60 14 125zM438 578 q-8 -38 -8 -73q0 -91 54 -161q77 -97 215 -97q137 0 254 97q118 97 147 234q8 38 8 73q0 92 -55 162q-76 96 -214 96t-255 -96q-117 -97 -146 -235z" />
<glyph unicode="r" horiz-adv-x="729" d="M126 121l125 590q41 183 195 312q157 129 340 129h57q50 0 78 -36q20 -26 20 -59q0 -13 -3 -27v-2q-11 -50 -54 -85q-43 -36 -93 -36h-57q-82 0 -151 -57q-68 -57 -87 -139l-125 -590q-11 -51 -54 -85q-44 -36 -93 -36h-3q-49 0 -77 36q-21 25 -21 58q0 13 3 27z" />
<glyph unicode="s" horiz-adv-x="851" d="M86 121v2q11 50 54 86q44 36 93 36h271q44 0 80 30q37 30 46 74q2 10 2 20q0 40 -41 63q-14 7 -158 50q-111 35 -157 92q-44 55 -44 139q0 41 10 90q30 144 154 246q125 103 269 103h184q50 0 78 -36q21 -26 21 -60q0 -13 -3 -26v-2q-11 -51 -55 -85q-43 -36 -93 -36 h-194q-44 0 -81 -30q-36 -31 -45 -74q-3 -12 -2 -23q0 -43 41 -67q17 -11 156 -50q112 -34 158 -89q45 -54 45 -139q0 -40 -10 -86q-30 -144 -154 -247q-125 -102 -269 -102h-261q-49 0 -77 36q-21 25 -21 58q0 13 3 27z" />
<glyph unicode="t" horiz-adv-x="656" d="M167 314l239 1127q11 50 55 86q43 35 92 35h3q49 0 78 -35q20 -26 20 -59q0 -13 -3 -27l-61 -289h150q49 0 77 -36q21 -26 21 -60q0 -13 -3 -26v-2q-11 -51 -55 -85q-43 -36 -92 -36h-150l-126 -593q-6 -29 9 -49q16 -20 46 -20h80q49 0 77 -36q21 -26 21 -60 q0 -13 -3 -26v-2q-11 -51 -54 -85q-44 -36 -93 -36h-80q-130 0 -203 92q-53 67 -53 153q0 33 8 69z" />
<glyph unicode="u" horiz-adv-x="1167" d="M203 483l116 547q11 50 54 86q44 36 93 36h3q49 0 77 -36q21 -26 21 -60q0 -13 -3 -26l-116 -547q-6 -28 -6 -53q0 -65 39 -116q55 -69 155 -69q99 0 184 69q84 70 105 169l116 547q11 50 54 86q44 36 94 36h2q51 0 77 -36q21 -26 21 -60q0 -13 -3 -26l-116 -547 q-43 -199 -215 -341t-371 -142q-200 0 -312 142q-81 103 -81 235q0 51 12 106z" />
<glyph unicode="v" horiz-adv-x="1147" d="M240 983q-5 25 0 48q7 34 35 66q48 55 113 55h3q80 0 95 -74q120 -559 139 -644q-1 -4 20 -95l474 739q48 74 128 74h2q65 0 89 -55q10 -20 10 -42q0 -11 -3 -23q-5 -24 -21 -49l-555 -867q-71 -116 -195 -116q-126 0 -146 116z" />
<glyph unicode="w" horiz-adv-x="1879" d="M202 481l117 549q11 50 54 86q44 36 93 36h3q49 0 77 -36q21 -26 21 -60q0 -13 -3 -26l-117 -549q-6 -27 -6 -52q0 -65 40 -115q54 -69 152 -69t182 69q83 69 104 167l117 549q11 50 54 86q44 36 94 36h2q51 0 77 -36q21 -26 21 -60q0 -13 -3 -26l-117 -549 q-6 -27 -6 -52q0 -65 40 -115q54 -69 152 -69q99 0 183 69q83 69 104 167l117 549q11 50 54 86q42 36 93 36h2q50 0 78 -36q20 -26 20 -59q0 -13 -3 -27l-117 -549q-42 -199 -213 -340t-370 -141q-238 0 -324 158q-155 -158 -393 -158q-199 0 -310 141q-81 102 -81 235 q0 50 12 105z" />
<glyph unicode="x" horiz-adv-x="1137" d="M111 121l21 99q51 239 236 361q-97 88 -97 238q0 57 14 123l19 88q11 50 54 86q44 36 93 36h3q49 0 77 -36q21 -26 21 -60q0 -13 -3 -26l-19 -88q-6 -28 -6 -53q0 -65 39 -116q55 -70 155 -70q99 0 184 70q84 70 105 169l19 88q11 50 54 86q44 36 94 36h2q51 0 77 -36 q21 -26 21 -59q0 -12 -3 -26l-19 -89q-51 -240 -237 -361q98 -89 98 -239q0 -57 -14 -122l-21 -99q-11 -51 -54 -85q-42 -36 -93 -36h-2q-50 0 -78 36q-21 25 -21 58q0 13 3 27l21 99q6 28 6 53q0 65 -39 116q-56 69 -155 69q-100 0 -184 -69q-84 -70 -105 -169l-21 -99 q-11 -51 -54 -85q-44 -36 -93 -36h-3q-49 0 -77 36q-21 25 -21 58q0 13 3 27z" />
<glyph unicode="y" horiz-adv-x="1167" d="M96 -90q5 23 20 46q31 52 84 69l5 2q23 7 44 7q22 0 42 -8q37 -17 49 -57q20 -60 76 -97q57 -38 133 -38q95 0 181 70q87 72 108 169l1 8q-91 -59 -250 -59q-200 0 -312 142q-81 103 -81 236q0 50 11 105l112 525q11 50 54 86q44 36 93 36h3q49 0 77 -36q21 -26 21 -60 q0 -12 -3 -26l-112 -525q-6 -28 -6 -53q0 -66 39 -116q56 -70 156 -70q98 0 182 70q85 70 106 169l112 525q11 50 54 86q44 36 94 36h2q51 0 77 -36q21 -26 21 -60q0 -12 -3 -26l-203 -957q-43 -198 -222 -342q-175 -142 -364 -142q-150 0 -258 74q-104 72 -141 193 q-8 27 -2 54z" />
<glyph unicode="z" horiz-adv-x="1082" d="M106 193q14 67 83 124q120 102 365 312q214 184 327 281h-462q-51 0 -78 36q-20 26 -20 59q0 12 3 26l1 3q10 49 53 85t94 36h604q121 0 145 -111q5 -22 5 -43q0 -19 -4 -36q-14 -68 -83 -124q-397 -340 -691 -593l506 -1q50 0 77 -35q21 -27 21 -61q0 -12 -3 -25l-1 -2 q-10 -50 -54 -86q-42 -35 -92 -35h-653q-118 0 -142 111q-5 22 -5 43q0 18 4 36z" />
<glyph unicode="{" horiz-adv-x="737" d="M171 567l1 9q20 90 111 116q32 9 57 26q48 34 74 92q33 76 64 219q39 187 53 233q29 90 67 145q39 57 87 91q50 35 115 53q41 10 119 11q41 0 65 -29q22 -30 14 -71l-4 -20q-9 -39 -41 -67q-33 -29 -73 -32q-63 -4 -88 -26q-31 -29 -73 -211q-57 -247 -67 -272 q-83 -220 -177 -261q86 -39 60 -303q-8 -80 -35 -207q-31 -149 -34 -169q-5 -56 14 -75q15 -15 71 -19q38 -1 60 -30q21 -29 12 -69l-4 -19q-9 -43 -45 -71q-35 -29 -76 -29q-92 1 -134 18q-66 26 -100 83q-35 57 -32 144q5 77 44 262l4 17q32 153 31 226q-2 59 -35 93 q-18 18 -44 26q-80 27 -61 116z" />
<glyph unicode="|" horiz-adv-x="645" d="M112 -416l420 1978h241l-420 -1978h-241z" />
<glyph unicode="}" horiz-adv-x="737" d="M-18 -318l4 19q9 40 42 69q34 29 72 30q58 4 81 19q27 19 45 75q6 20 37 169q27 127 53 207q88 264 191 303q-77 41 -68 261q2 25 50 272q35 182 15 211q-13 22 -76 26q-39 3 -59 32q-21 28 -12 67l4 20q8 41 45 71q35 29 76 29q78 -1 115 -11q59 -18 91 -53 q34 -34 49 -91q14 -55 5 -145q-6 -46 -45 -233q-30 -142 -29 -219q1 -58 35 -92q18 -17 45 -26q81 -26 61 -116l-1 -9q-19 -89 -110 -116q-31 -8 -57 -26q-47 -33 -72 -93q-35 -77 -70 -243q-39 -185 -68 -262q-32 -87 -91 -144t-137 -83q-50 -17 -142 -18q-41 0 -64 29 q-24 28 -15 71z" />
<glyph unicode="~" horiz-adv-x="1055" d="M182 671q0 11 2 22q3 13 9 26q12 28 32 45q116 100 268 108q13 1 25 1q51 0 105 -14q40 -10 108 -36q70 -27 95 -35q43 -12 78 -12h13q58 3 130 48q28 16 55 16q20 0 40 -9q21 -13 28 -39q7 -20 5 -49q-1 -9 -3 -17q-4 -18 -11 -33q-14 -28 -35 -45q-63 -49 -125 -73 q-64 -25 -138 -29q-12 -1 -24 -1q-58 0 -115 16q-40 11 -121 46q-86 36 -149 36h-12q-65 -3 -132 -45q-22 -15 -49 -18h-4q-22 0 -40 9q-21 11 -30 36q-9 20 -5 46z" />
<glyph unicode="&#xa1;" horiz-adv-x="480" d="M-16 -349l126 593l131 454h175l-61 -454l-126 -593q-11 -50 -54 -86q-44 -35 -93 -35h-3q-49 0 -77 35q-29 36 -18 86zM242 952q13 59 63 99q50 41 107 41q58 0 90 -41q33 -41 20 -99q-12 -57 -61 -98q-50 -41 -108 -41q-57 0 -89 41q-34 40 -22 98z" />
<glyph unicode="&#xa2;" horiz-adv-x="1132" d="M139 -408l212 452q-50 33 -103 108q-129 182 -77 426q53 249 247 426q194 178 419 178q37 0 46 -1l166 354h206l-192 -409q26 -13 65 -47q101 -99 129 -291l-256 -44q-25 75 -60 120l-304 -648h10q163 0 312 200l222 -52q-110 -190 -247 -286q-163 -104 -354 -104 q-42 0 -54 2l-180 -384h-207zM425 578q-29 -134 39 -256q7 -11 10 -16l296 634q-105 -6 -205 -105q-110 -117 -140 -257z" />
<glyph unicode="&#xa3;" horiz-adv-x="1221" d="M213 121l99 465h1q-36 0 -57 26q-20 26 -13 63l15 67q8 37 39 63q32 26 68 26h-1l57 268q40 192 205 327q165 136 357 136q157 0 262 -96q103 -94 112 -244q1 -18 -2 -34q-9 -38 -41 -71q-46 -48 -107 -48h-3q-92 0 -98 89q-4 69 -52 114q-49 46 -123 46q-91 0 -168 -64 q-78 -64 -97 -155l-57 -268h288q50 0 78 -36q27 -36 17 -85l-1 -3q-10 -49 -53 -85t-93 -36h-288l-73 -341h567q50 0 78 -36q29 -36 18 -86v-2q-11 -51 -54 -85q-44 -36 -94 -36h-691q-49 0 -77 36q-29 34 -18 85z" />
<glyph unicode="&#xa4;" horiz-adv-x="1235" d="M119 377l193 159q-49 101 -16 255q33 153 123 252l-126 159l203 167l125 -158q114 69 269 69t240 -69l192 158l131 -165l-193 -159q48 -100 15 -254q-33 -155 -123 -255l125 -159l-202 -165l-124 158q-115 -69 -269 -69q-155 0 -239 69l-192 -158zM518 791 q-24 -112 38 -190t172 -78q111 0 205.5 78t118.5 190q24 111 -37.5 189t-172.5 78q-110 0 -205 -78t-119 -189z" />
<glyph unicode="&#xa5;" horiz-adv-x="1215" d="M244 226l39 183h284l24 113h-284l41 193h256l-268 910h253l199 -736l537 736h245l-672 -910h273l-41 -193h-302l-24 -113h302l-39 -183h-302l-48 -226h-237l48 226h-284z" />
<glyph unicode="&#xa6;" horiz-adv-x="543" d="M52 -463l192 904h243l-192 -904h-243zM303 719l192 904h243l-192 -904h-243z" />
<glyph unicode="&#xa7;" horiz-adv-x="1136" d="M59 -51l235 39q2 -189 118 -252q40 -21 106 -26q13 -1 25 -1q114 0 207 74q48 38 72 88q14 28 19 53q9 43 -6 77q-22 52 -100 90q-66 30 -150 55q-219 68 -290 146q-91 102 -54 278q46 214 226 329q21 13 21 14t-1 1t-9 -4q-10 6 -43 41q-91 102 -54 278q46 214 226 329 q101 64 227 86q51 7 102 7h23q192 -6 285 -98q98 -95 89 -314l-240 -35q2 164 -94 216q-40 22 -103 22q-90 0 -168 -49q-81 -52 -102 -136l-1 -6q-9 -43 -4 -78q4 -33 25 -58q33 -43 86.5 -62t161.5 -50q241 -77 304 -203q23 -46 26 -102q3 -49 -9 -105l-4 -21 q-33 -135 -147 -241q-71 -66 -103 -81q58 -31 97 -109q23 -46 26 -102q3 -49 -9 -105l-4 -21q-33 -135 -147 -241q-101 -94 -242 -139q-97 -32 -187 -32h-16q-426 12 -420 448zM481 514q4 -33 25 -58q33 -43 83 -60q34 -12 81 -27h17q110 0 203 73q48 38 72 88q14 28 19 53 q9 43 -6 77q-22 52 -100 90q-34 16 -70 29q-22 4 -50 4q-90 0 -167 -49q-81 -52 -102 -136l-1 -6q-9 -43 -4 -78z" />
<glyph unicode="&#xa8;" horiz-adv-x="843" d="M381 1323q12 57 62 98t108 41q57 0 89 -41q34 -40 21 -98q-12 -59 -63 -99q-50 -41 -107 -41q-58 0 -90 41t-20 99zM744 1323q12 57 62 98t108 41q57 0 89 -41q34 -40 21 -98q-12 -59 -63 -99q-50 -41 -107 -41q-58 0 -90 41t-20 99z" />
<glyph unicode="&#xa9;" horiz-adv-x="1837" d="M110 757q0 210 108.5 404t301.5 298t396 104t396 -104t301 -298t108 -404q0 -208 -106 -400.5t-298 -298.5t-401 -106t-400.5 106t-298.5 298.5t-107 400.5zM243 757q0 -174 89.5 -333.5t249.5 -249t334 -89.5t334 89.5t249 249t89 333.5q0 175 -90.5 337t-251.5 249 t-330 87q-170 0 -330.5 -87t-251.5 -249t-91 -337zM502 689v166q0 181 123 309q126 129 306 129q154 0 267 -106q93 -85 123 -221l-136 -27q-19 90 -75 144q-72 70 -179 70q-119 0 -201 -86q-83 -84 -83 -206v-178q0 -121 83 -205q82 -87 201 -87q104 0 176 68q71 66 85 180 l139 -14q-23 -166 -134 -268q-112 -105 -266 -105q-180 0 -306 129q-123 128 -123 308z" />
<glyph unicode="&#xaa;" horiz-adv-x="981" d="M356 1204q32 149 170 254q135 104 296 104q162 0 253 -104q94 -105 62 -254l-58 -273q-8 -35 -41 -60q-32 -24 -67 -24h-2q-36 0 -58 24q-22 25 -14 60q-81 -84 -227 -84q-161 0 -252 104q-94 105 -62 253zM538 1204q-16 -77 31 -131q50 -55 137 -55t161 55q72 54 88 131 t-32 131q-50 56 -137 56t-161 -56q-71 -54 -87 -131z" />
<glyph unicode="&#xab;" horiz-adv-x="1132" d="M189 750q9 39 42 64l454 337h318l-545 -401l374 -401h-318l-310 338q-23 25 -15 63zM583 750q9 39 42 64l454 337h318l-545 -401l374 -401h-318l-310 338q-23 25 -15 63z" />
<glyph unicode="&#xac;" horiz-adv-x="1107" d="M278 695l38 181h847l-112 -526h-192l74 345h-655z" />
<glyph unicode="&#xad;" horiz-adv-x="872" d="M216 780v2q11 50 54 86q42 36 93 36h529q50 0 78 -36q29 -36 18 -86v-2q-11 -51 -54 -85q-44 -36 -94 -36h-529q-51 0 -77 36q-29 34 -18 85z" />
<glyph unicode="&#xae;" horiz-adv-x="1811" d="M100 757q0 210 108.5 404t301.5 298t396 104t396 -104t301 -298t108 -404q0 -208 -106 -400.5t-298 -298.5t-401 -106t-400.5 106t-298.5 298.5t-107 400.5zM233 757q0 -174 89.5 -333.5t249.5 -249t334 -89.5t334 89.5t249 249t89 333.5q0 175 -90.5 337t-251.5 249 t-330 87q-170 0 -330.5 -87t-251.5 -249t-91 -337zM615 211v1026l383 -1q113 -1 192 -81t79 -192q0 -128 -98 -211q-64 -64 -202 -64h2l308 -477h-136l-308 477h-93v-477h-127zM742 807h256q63 1 108 47q44 45 44 109q0 63 -44 108q-45 45 -108 47h-256v-311z" />
<glyph unicode="&#xaf;" horiz-adv-x="952" d="M352 1421v2q11 50 55 86q41 36 92 36h529q50 0 79 -36q28 -36 17 -86v-2q-11 -51 -54 -85q-44 -36 -94 -36h-529q-51 0 -77 36q-29 34 -18 85z" />
<glyph unicode="&#xb0;" horiz-adv-x="902" d="M364 1242q29 136 148 234t257 98h34q137 0 215 -98q77 -98 48 -234q-29 -138 -148 -236q-120 -98 -257 -98h-34q-138 0 -215 98t-48 236zM573 1242q-11 -54 19 -93q31 -39 83 -39h22q54 0 101 39q48 39 59 93q11 53 -19 92q-30 38 -85 38h-22q-53 0 -99 -38 q-48 -39 -59 -92z" />
<glyph unicode="&#xb1;" horiz-adv-x="1152" d="M95 211v2q11 50 55 86q41 36 92 36h809q50 0 79 -36q28 -36 17 -86v-2q-11 -51 -54 -85q-44 -36 -94 -36h-809q-51 0 -77 36q-29 34 -18 85zM254 960v2q11 50 55 86q41 36 92 36h283l61 283q10 51 54 85q41 36 92 36h2q50 0 79 -36q28 -34 18 -85l-61 -283h281 q50 0 79 -36q28 -36 17 -86v-2q-11 -51 -54 -85q-44 -36 -94 -36h-281l-59 -281q-11 -50 -55 -86q-43 -36 -93 -36h-2q-51 0 -78 36q-28 36 -17 86l59 281h-283q-51 0 -77 36q-29 34 -18 85z" />
<glyph unicode="&#xb2;" horiz-adv-x="819" d="M181 665l12 57q26 122 138 220q74 65 214 138q162 85 188 102q68 45 76 84q8 36 -14 61t-59 25h-261q-48 0 -75 30q-28 31 -19 74l1 1q9 43 49 74t89 31h261q135 0 209 -85q77 -89 51 -211q-23 -109 -134 -196q-63 -49 -207 -123q-134 -68 -183 -105q-73 -56 -76 -70h386 q49 0 76 -32q27 -31 18 -73l-1 -2q-9 -44 -49 -73q-40 -31 -89 -31h-508q-48 0 -74 31q-28 29 -19 73z" />
<glyph unicode="&#xb3;" horiz-adv-x="715" d="M181 665l1 2q9 42 51 75q38 30 86 30h182q43 0 81 28q36 29 45 71t-15 71q-26 28 -69 28h-153q-49 0 -74 30q-28 32 -19 75l1 1q9 42 47 73q41 31 90 31l153 1q37 0 69 24q31 25 39 61t-14 61q-21 25 -58 25h-182q-46 0 -74 29q-28 32 -19 75l1 1q9 43 49 74q42 31 88 31 h182q134 0 211 -87q75 -87 49 -209q-29 -138 -104 -187q68 -55 35 -208q-27 -128 -148 -221q-115 -89 -256 -89h-182q-48 0 -74 31q-28 29 -19 73z" />
<glyph unicode="&#xb4;" horiz-adv-x="681" d="M461 1314q5 21 23 40l229 251q25 28 61 28h154q43 0 53 -39q6 -18 3 -33q-5 -22 -28 -41l-306 -251q-30 -23 -57 -23h-77q-43 0 -53 38q-5 15 -2 30z" />
<glyph unicode="&#xb5;" horiz-adv-x="1187" d="M48 -290l281 1320q11 50 54 86q44 35 93 35h3q49 0 77 -36t18 -86l-117 -547q-21 -99 34 -169q55 -69 155 -69q99 0 184 69q83 70 104 169l117 548q11 50 54 86q44 35 93 35h3q49 0 77 -35q29 -36 18 -86l-217 -1020q-11 -51 -54 -85q-44 -36 -93 -36h-3q-49 0 -77 36 q-29 34 -18 85l10 46q-49 -57 -250 -57q-202 0 -227 57l-74 -346q-10 -51 -54 -85q-43 -36 -92 -36h-3q-49 0 -78 36q-28 34 -18 85z" />
<glyph unicode="&#xb6;" horiz-adv-x="1128" d="M347 1161q35 168 175 297q151 149 347 165h548l-44 -209h-87l-301 -1414h-209l301 1414h-62l-301 -1414h-219l150 707q-165 26 -250 155q-84 129 -48 299z" />
<glyph unicode="&#xb7;" horiz-adv-x="447" d="M266 781q11 51 54 87q44 36 96 36q50 0 78 -36q30 -35 19 -87t-55 -87q-44 -36 -94 -36q-52 0 -80 36q-29 36 -18 87z" />
<glyph unicode="&#xb8;" horiz-adv-x="700" d="M20 -416l1 8l3 8q10 35 43 59q30 24 67 24q30 -1 51 -1q89 0 126 22q20 12 22 25q2 8 -2 14q-5 8 -25 15q-13 4 -34 6q-40 5 -56 36q-13 25 -7 55q2 7 4 15l55 140h206l-46 -114q65 -7 108 -60q42 -51 28 -117q-19 -93 -120 -161q-97 -65 -258 -65h-95q-40 0 -60 30 q-19 25 -11 61z" />
<glyph unicode="&#xb9;" horiz-adv-x="497" d="M349 1456l1 1q9 43 49 74q42 31 88 31h187q47 0 75 -31q27 -31 18 -74l-169 -792q-9 -42 -51 -75q-39 -29 -86 -29h-2q-48 0 -73 29q-29 33 -20 75l146 687h-70q-46 0 -74 29q-28 32 -19 75z" />
<glyph unicode="&#xbb;" horiz-adv-x="1142" d="M54 349l544 401l-373 401h318l310 -337q23 -25 14 -64q-8 -38 -41 -63l-454 -338h-318zM458 349l544 401l-373 401h318l310 -337q23 -25 14 -64q-8 -38 -41 -63l-454 -338h-318z" />
<glyph unicode="&#xbc;" horiz-adv-x="1780" d="M349 1456l1 1q9 43 49 74q42 31 88 31h187q47 0 75 -31q27 -31 18 -74l-169 -792q-9 -42 -51 -75q-39 -29 -86 -29h-2q-48 0 -73 29q-29 33 -20 75l146 687h-70q-46 0 -74 29q-28 32 -19 75zM362 -124l894 1756h182l-892 -1756h-184zM972 278l9 42q6 27 24 50l468 576 q45 55 114 55h97q47 0 75 -31t18 -74l-108 -511h38q48 0 76 -32q25 -31 17 -73l-1 -2q-9 -42 -51 -75q-39 -29 -86 -29h-38l-15 -70q-9 -44 -50 -74t-88 -30h-1q-47 0 -76 30q-27 30 -18 74l15 70h-326q-48 0 -74 31q-28 29 -19 73zM1282 385h154l54 257z" />
<glyph unicode="&#xbd;" horiz-adv-x="1692" d="M349 1456l1 1q9 43 49 74q42 31 88 31h187q47 0 75 -31q27 -31 18 -74l-169 -792q-9 -42 -51 -75q-39 -29 -86 -29h-2q-48 0 -73 29q-29 33 -20 75l146 687h-70q-46 0 -74 29q-28 32 -19 75zM362 -124l894 1756h182l-892 -1756h-184zM935 104l12 57q26 122 138 220 q74 65 213 138q162 85 189 102q68 45 76 84q8 36 -14 61t-59 25h-261q-48 0 -75 30q-28 31 -19 74v1q10 43 50 74t89 31h261q135 0 209 -85q77 -89 51 -211q-23 -109 -134 -196q-63 -49 -207 -123q-134 -68 -183 -105q-73 -56 -76 -70h386q49 0 76 -32q26 -31 18 -73l-1 -2 q-9 -44 -49 -73q-40 -31 -89 -31h-508q-48 0 -74 31q-28 29 -19 73z" />
<glyph unicode="&#xbe;" horiz-adv-x="1998" d="M181 665l1 2q9 42 51 75q38 30 86 30h182q43 0 81 28q36 29 45 71t-15 71q-26 28 -69 28h-153q-49 0 -74 30q-28 32 -19 75l1 1q9 42 47 73q41 31 90 31l153 1q37 0 69 24q31 25 39 61t-14 61q-21 25 -58 25h-182q-46 0 -74 29q-28 32 -19 75l1 1q9 43 49 74q42 31 88 31 h182q134 0 211 -87q75 -87 49 -209q-29 -138 -104 -187q68 -55 35 -208q-27 -128 -148 -221q-115 -89 -256 -89h-182q-48 0 -74 31q-28 29 -19 73zM580 -124l894 1756h182l-892 -1756h-184zM1190 278l9 42q6 27 24 50l468 576q45 55 114 55h97q47 0 75 -31t18 -74l-108 -511 h38q48 0 76 -32q25 -31 17 -73l-1 -2q-9 -42 -51 -75q-39 -29 -86 -29h-38l-15 -70q-9 -44 -50 -74t-88 -30h-1q-47 0 -76 30q-27 30 -18 74l15 70h-326q-48 0 -74 31q-28 29 -19 73zM1500 385h154l54 257z" />
<glyph unicode="&#xbf;" horiz-adv-x="1110" d="M18 21q36 169 170 299q130 129 287 163l27 130q10 47 53 83q42 35 91 35h3q49 0 77 -35q27 -36 17 -85l-50 -235q-10 -49 -53 -84q-41 -35 -91 -36h-5q-98 0 -180 -68q-84 -69 -105 -167q-20 -98 34 -167q54 -68 152 -68q79 0 151 47q70 46 109 119q19 38 56 61 q36 23 76 23h3q60 0 85 -48q18 -32 10 -69q-4 -18 -14 -37q-77 -148 -222 -242q-147 -95 -306 -95q-197 0 -307 139q-109 140 -68 337zM555 952q13 59 63 99q50 41 107 41q58 0 90 -41q33 -41 20 -99q-12 -57 -61 -98q-50 -41 -108 -41q-57 0 -89 41q-34 40 -22 98z" />
<glyph unicode="&#xc0;" d="M136 121l196 924q46 214 230 366q184 151 397 151q214 0 334 -151q120 -152 74 -366l-196 -924q-11 -51 -54 -85q-44 -36 -93 -36h-3q-49 0 -77 36q-29 34 -18 85l95 446h-545l-95 -446q-11 -51 -54 -85q-44 -36 -93 -36h-3q-49 0 -77 36q-29 34 -18 85zM527 811h545 l50 234q24 113 -38 193q-63 80 -177 80q-113 0 -210 -80q-96 -80 -120 -193zM744 1970q3 16 16 34q27 39 69 39h155q36 0 48 -28l122 -250q11 -20 6 -41q-3 -15 -14 -31q-27 -37 -69 -37h-76q-27 0 -47 23l-201 251q-14 18 -9 40z" />
<glyph unicode="&#xc1;" d="M136 121l196 924q46 214 230 366q184 151 397 151q214 0 334 -151q120 -152 74 -366l-196 -924q-11 -51 -54 -85q-44 -36 -93 -36h-3q-49 0 -77 36q-29 34 -18 85l95 446h-545l-95 -446q-11 -51 -54 -85q-44 -36 -93 -36h-3q-49 0 -77 36q-29 34 -18 85zM527 811h545 l50 234q24 113 -38 193q-63 80 -177 80q-113 0 -210 -80q-96 -80 -120 -193zM827 1724q5 21 23 40l229 251q25 28 61 28h154q43 0 53 -39q6 -18 3 -33q-5 -22 -28 -41l-306 -251q-30 -23 -57 -23h-77q-43 0 -53 38q-5 15 -2 30z" />
<glyph unicode="&#xc2;" d="M136 121l196 924q46 214 230 366q184 151 397 151q214 0 334 -151q120 -152 74 -366l-196 -924q-11 -51 -54 -85q-44 -36 -93 -36h-3q-49 0 -77 36q-29 34 -18 85l95 446h-545l-95 -446q-11 -51 -54 -85q-44 -36 -93 -36h-3q-49 0 -77 36q-29 34 -18 85zM527 811h545 l50 234q24 113 -38 193q-63 80 -177 80q-113 0 -210 -80q-96 -80 -120 -193zM624 1701q4 21 24 40l250 251q27 26 60 26h197q34 0 47 -27l145 -250q12 -19 7 -41q-3 -15 -14 -31q-26 -38 -69 -38h-77q-28 0 -47 24l-132 165l-203 -165q-29 -24 -56 -24h-77q-43 0 -53 38 q-6 17 -2 32z" />
<glyph unicode="&#xc3;" d="M136 121l196 924q46 214 230 366q184 151 397 151q214 0 334 -151q120 -152 74 -366l-196 -924q-11 -51 -54 -85q-44 -36 -93 -36h-3q-49 0 -77 36q-29 34 -18 85l95 446h-545l-95 -446q-11 -51 -54 -85q-44 -36 -93 -36h-3q-49 0 -77 36q-29 34 -18 85zM527 811h545 l50 234q24 113 -38 193q-63 80 -177 80q-113 0 -210 -80q-96 -80 -120 -193zM608 1703q1 6 4 12q34 90 109 143q78 56 177 56q81 0 180 -52q32 -17 71 -17h8q40 1 61 24q48 54 85 54h41q35 0 50 -25q14 -21 9 -46q-2 -6 -4 -13q-76 -202 -276 -202q-82 0 -177 56 q-39 23 -84 23q-40 -1 -56 -29q-37 -51 -94 -56h-44q-33 0 -51 25q-15 21 -9 47z" />
<glyph unicode="&#xc4;" d="M136 121l196 924q46 214 230 366q184 151 397 151q214 0 334 -151q120 -152 74 -366l-196 -924q-11 -51 -54 -85q-44 -36 -93 -36h-3q-49 0 -77 36q-29 34 -18 85l95 446h-545l-95 -446q-11 -51 -54 -85q-44 -36 -93 -36h-3q-49 0 -77 36q-29 34 -18 85zM527 811h545 l50 234q24 113 -38 193q-63 80 -177 80q-113 0 -210 -80q-96 -80 -120 -193zM674 1733q12 57 62 98t108 41q57 0 89 -41q34 -40 21 -98q-12 -59 -63 -99q-49 -41 -106 -41q-58 0 -91 41q-32 41 -20 99zM1037 1733q12 57 62 98t108 41q57 0 89 -41q34 -40 21 -98 q-12 -59 -63 -99q-49 -41 -106 -41q-58 0 -91 41q-32 41 -20 99z" />
<glyph unicode="&#xc5;" d="M136 121l196 924q46 214 230 366q184 151 397 151q214 0 334 -151q120 -152 74 -366l-196 -924q-11 -51 -54 -85q-44 -36 -93 -36h-3q-49 0 -77 36q-29 34 -18 85l95 446h-545l-95 -446q-11 -51 -54 -85q-44 -36 -93 -36h-3q-49 0 -77 36q-29 34 -18 85zM527 811h545 l50 234q24 113 -38 193q-63 80 -177 80q-113 0 -210 -80q-96 -80 -120 -193zM761 1823q22 99 108 170t186 71h24q99 0 156 -71q56 -71 34 -170q-21 -100 -107 -171q-87 -71 -186 -71h-24q-100 0 -156 71t-35 171zM945 1823q-5 -26 10 -45t40 -19h13q26 0 49 19t28 45 q6 26 -9 45q-14 18 -41 18h-13q-26 0 -48 -18q-23 -19 -29 -45z" />
<glyph unicode="&#xc6;" horiz-adv-x="1819" d="M136 121l196 924q46 214 230 366q184 151 397 151q214 0 323 -137q0 1 35 30q130 107 281 107h356q50 0 78 -36q29 -36 18 -85v-3q-11 -49 -54 -85q-44 -36 -94 -36h-356q-51 0 -94 -35q-42 -35 -53 -85l-62 -294h477q50 0 78 -36q29 -36 18 -85v-3q-11 -49 -54 -85 q-44 -36 -94 -36h-477l-62 -293q-11 -51 16 -86q28 -35 79 -35h356q50 0 78 -35q29 -36 18 -86v-2q-11 -50 -55 -86q-43 -35 -93 -35h-356q-151 0 -235 107q-85 107 -52 258l19 90q0 7 2 16l21 96h-545l-95 -446q-11 -51 -54 -85q-44 -36 -93 -36h-3q-49 0 -77 36 q-29 34 -18 85zM527 811h545l50 234q24 113 -38 193q-63 80 -177 80q-113 0 -210 -80q-96 -80 -120 -193z" />
<glyph unicode="&#xc7;" horiz-adv-x="1202" d="M241 781q69 323 346 552q278 229 601 229q99 0 189 -24q87 -24 67 -117l-1 -3q-12 -59 -68 -96q-37 -25 -75 -25q-16 0 -32 4q-64 17 -132 17q-222 0 -412 -157q-191 -157 -238 -380t76 -380q124 -156 346 -156q68 0 138 16q18 4 34 4q38 0 65 -25q40 -36 28 -96l-1 -2 q-20 -94 -117 -118q-100 -24 -199 -24q-323 0 -503 229q-181 229 -112 552zM540 -391l2 8l2 8q11 35 43 59q30 24 67 24q31 -1 52 -1q89 0 125 22q20 12 23 25q1 8 -2 14q-6 8 -26 15q-12 4 -34 6q-40 5 -55 36q-14 25 -8 55q2 7 5 15l54 140h206l-46 -114q66 -7 108 -60 q43 -51 29 -117q-20 -93 -121 -161q-96 -65 -257 -65h-95q-40 0 -61 30q-19 25 -11 61z" />
<glyph unicode="&#xc8;" horiz-adv-x="1008" d="M188 365l176 832q33 151 162 258q130 107 281 107h357q49 0 77 -36q29 -34 18 -85v-2q-11 -50 -54 -86q-44 -36 -93 -36h-357q-50 0 -93 -35q-42 -35 -53 -85l-62 -294h477q49 0 77 -35q29 -36 18 -86v-2q-11 -50 -54 -86q-44 -35 -93 -35h-477l-62 -294q-11 -50 17 -85 q27 -35 77 -35h357q49 0 77 -36q29 -36 18 -86v-2q-11 -51 -54 -85q-44 -36 -93 -36h-357q-151 0 -235 107q-85 107 -52 258zM648 1970q3 16 16 34q27 39 69 39h155q36 0 48 -28l122 -250q11 -20 6 -41q-3 -15 -14 -31q-27 -37 -69 -37h-76q-27 0 -47 23l-201 251 q-14 18 -9 40z" />
<glyph unicode="&#xc9;" horiz-adv-x="1008" d="M188 365l176 832q33 151 162 258q130 107 281 107h357q49 0 77 -36q29 -34 18 -85v-2q-11 -50 -54 -86q-44 -36 -93 -36h-357q-50 0 -93 -35q-42 -35 -53 -85l-62 -294h477q49 0 77 -35q29 -36 18 -86v-2q-11 -50 -54 -86q-44 -35 -93 -35h-477l-62 -294q-11 -50 17 -85 q27 -35 77 -35h357q49 0 77 -36q29 -36 18 -86v-2q-11 -51 -54 -85q-44 -36 -93 -36h-357q-151 0 -235 107q-85 107 -52 258zM731 1724q5 21 23 40l229 251q25 28 61 28h154q43 0 53 -39q6 -18 3 -33q-5 -22 -28 -41l-306 -251q-30 -23 -57 -23h-77q-43 0 -53 38 q-5 15 -2 30z" />
<glyph unicode="&#xca;" horiz-adv-x="1008" d="M188 365l176 832q33 151 162 258q130 107 281 107h357q49 0 77 -36q29 -34 18 -85v-2q-11 -50 -54 -86q-44 -36 -93 -36h-357q-50 0 -93 -35q-42 -35 -53 -85l-62 -294h477q49 0 77 -35q29 -36 18 -86v-2q-11 -50 -54 -86q-44 -35 -93 -35h-477l-62 -294q-11 -50 17 -85 q27 -35 77 -35h357q49 0 77 -36q29 -36 18 -86v-2q-11 -51 -54 -85q-44 -36 -93 -36h-357q-151 0 -235 107q-85 107 -52 258zM578 1701q4 21 24 40l250 251q27 26 60 26h197q34 0 47 -27l145 -250q12 -19 7 -41q-3 -15 -14 -31q-26 -38 -69 -38h-77q-28 0 -47 24l-132 165 l-203 -165q-29 -24 -56 -24h-77q-43 0 -53 38q-6 17 -2 32z" />
<glyph unicode="&#xcb;" horiz-adv-x="1008" d="M188 365l176 832q33 151 162 258q130 107 281 107h357q49 0 77 -36q29 -34 18 -85v-2q-11 -50 -54 -86q-44 -36 -93 -36h-357q-50 0 -93 -35q-42 -35 -53 -85l-62 -294h477q49 0 77 -35q29 -36 18 -86v-2q-11 -50 -54 -86q-44 -35 -93 -35h-477l-62 -294q-11 -50 17 -85 q27 -35 77 -35h357q49 0 77 -36q29 -36 18 -86v-2q-11 -51 -54 -85q-44 -36 -93 -36h-357q-151 0 -235 107q-85 107 -52 258zM618 1733q12 57 62 98t108 41q57 0 89 -41q34 -40 21 -98q-12 -59 -63 -99q-49 -41 -106 -41q-58 0 -91 41q-32 41 -20 99zM981 1733q12 57 62 98 t108 41q57 0 89 -41q34 -40 21 -98q-12 -59 -63 -99q-49 -41 -106 -41q-58 0 -91 41q-32 41 -20 99z" />
<glyph unicode="&#xcc;" horiz-adv-x="563" d="M166 121l280 1320q11 50 55 86q43 35 92 35h3q49 0 78 -35q28 -36 17 -86l-280 -1320q-11 -51 -54 -85q-44 -36 -93 -36h-3q-49 0 -77 36q-29 34 -18 85zM369 1970q3 16 16 34q27 39 69 39h155q36 0 48 -28l122 -250q11 -20 6 -41q-3 -15 -14 -31q-27 -37 -69 -37h-76 q-27 0 -47 23l-201 251q-14 18 -9 40z" />
<glyph unicode="&#xcd;" horiz-adv-x="534" d="M166 121l280 1320q11 50 55 86q43 35 92 35h3q49 0 78 -35q28 -36 17 -86l-280 -1320q-11 -51 -54 -85q-44 -36 -93 -36h-3q-49 0 -77 36q-29 34 -18 85zM472 1724q5 21 23 40l229 251q25 28 61 28h154q43 0 53 -39q6 -18 3 -33q-5 -22 -28 -41l-306 -251 q-30 -23 -57 -23h-77q-43 0 -53 38q-5 15 -2 30z" />
<glyph unicode="&#xce;" horiz-adv-x="544" d="M166 121l280 1320q11 50 55 86q43 35 92 35h3q49 0 78 -35q28 -36 17 -86l-280 -1320q-11 -51 -54 -85q-44 -36 -93 -36h-3q-49 0 -77 36q-29 34 -18 85zM259 1701q4 21 24 40l250 251q27 26 60 26h197q34 0 47 -27l145 -250q12 -19 7 -41q-3 -15 -14 -31 q-26 -38 -69 -38h-77q-28 0 -47 24l-132 165l-203 -165q-29 -24 -56 -24h-77q-43 0 -53 38q-6 17 -2 32z" />
<glyph unicode="&#xcf;" horiz-adv-x="569" d="M166 121l280 1320q11 50 55 86q43 35 92 35h3q49 0 78 -35q28 -36 17 -86l-280 -1320q-11 -51 -54 -85q-44 -36 -93 -36h-3q-49 0 -77 36q-29 34 -18 85zM309 1733q12 57 62 98t108 41q57 0 89 -41q34 -40 21 -98q-12 -59 -63 -99q-49 -41 -106 -41q-58 0 -91 41 q-32 41 -20 99zM672 1733q12 57 62 98t108 41q57 0 89 -41q34 -40 21 -98q-12 -59 -63 -99q-49 -41 -106 -41q-58 0 -91 41q-32 41 -20 99z" />
<glyph unicode="&#xd0;" horiz-adv-x="1414" d="M150 659l52 245h120l80 376q25 117 126 200q100 82 216 82h151q323 0 503 -229q181 -229 112 -552t-346 -552q-278 -229 -601 -229h-151q-116 0 -181 83q-66 83 -41 199l80 377h-120zM435 282q-3 -16 4 -27q9 -10 25 -10h151q223 0 413 156q191 157 238 380t-76 380 q-124 157 -347 157h-151q-16 0 -29 -11t-16 -27l-80 -376h305l-52 -245h-305z" />
<glyph unicode="&#xd1;" d="M136 121l196 924q46 214 230 366q184 151 397 151q214 0 334 -151q120 -152 74 -366l-196 -924q-11 -51 -54 -85q-44 -36 -93 -36h-3q-49 0 -77 36q-29 34 -18 85l196 924q24 113 -38 193q-63 80 -177 80q-113 0 -210 -80q-96 -80 -120 -193l-196 -924q-11 -51 -54 -85 q-44 -36 -93 -36h-3q-49 0 -77 36q-29 34 -18 85zM608 1703q1 6 4 12q34 90 109 143q78 56 177 56q81 0 180 -52q32 -17 71 -17h8q40 1 61 24q48 54 85 54h41q35 0 50 -25q14 -21 9 -46q-2 -6 -4 -13q-76 -202 -276 -202q-82 0 -177 56q-39 23 -84 23q-40 -1 -56 -29 q-37 -51 -94 -56h-44q-33 0 -51 25q-15 21 -9 47z" />
<glyph unicode="&#xd2;" horiz-adv-x="1723" d="M246 781q69 323 346 552q278 229 601 229t504 -229t112 -552t-346 -552q-279 -229 -602 -229t-503 229q-181 229 -112 552zM491 781q-47 -223 76 -380q124 -156 346 -156q223 0 413 156q191 157 238 380t-76 380q-124 157 -347 157q-222 0 -412 -157q-191 -157 -238 -380 zM978 1970q3 16 16 34q27 39 69 39h155q36 0 48 -28l122 -250q11 -20 6 -41q-3 -15 -14 -31q-27 -37 -69 -37h-76q-27 0 -47 23l-201 251q-14 18 -9 40z" />
<glyph unicode="&#xd3;" horiz-adv-x="1723" d="M246 781q69 323 346 552q278 229 601 229t504 -229t112 -552t-346 -552q-279 -229 -602 -229t-503 229q-181 229 -112 552zM491 781q-47 -223 76 -380q124 -156 346 -156q223 0 413 156q191 157 238 380t-76 380q-124 157 -347 157q-222 0 -412 -157q-191 -157 -238 -380 zM1061 1724q5 21 23 40l229 251q25 28 61 28h154q43 0 53 -39q6 -18 3 -33q-5 -22 -28 -41l-306 -251q-30 -23 -57 -23h-77q-43 0 -53 38q-5 15 -2 30z" />
<glyph unicode="&#xd4;" horiz-adv-x="1723" d="M246 781q69 323 346 552q278 229 601 229t504 -229t112 -552t-346 -552q-279 -229 -602 -229t-503 229q-181 229 -112 552zM491 781q-47 -223 76 -380q124 -156 346 -156q223 0 413 156q191 157 238 380t-76 380q-124 157 -347 157q-222 0 -412 -157q-191 -157 -238 -380 zM858 1701q4 21 24 40l250 251q27 26 60 26h197q34 0 47 -27l145 -250q12 -19 7 -41q-3 -15 -14 -31q-26 -38 -69 -38h-77q-28 0 -47 24l-132 165l-203 -165q-29 -24 -56 -24h-77q-43 0 -53 38q-6 17 -2 32z" />
<glyph unicode="&#xd5;" horiz-adv-x="1723" d="M246 781q69 323 346 552q278 229 601 229t504 -229t112 -552t-346 -552q-279 -229 -602 -229t-503 229q-181 229 -112 552zM491 781q-47 -223 76 -380q124 -156 346 -156q223 0 413 156q191 157 238 380t-76 380q-124 157 -347 157q-222 0 -412 -157q-191 -157 -238 -380 zM842 1703q1 6 4 12q34 90 109 143q78 56 177 56q81 0 180 -52q32 -17 71 -17h8q40 1 61 24q48 54 85 54h41q35 0 50 -25q14 -21 9 -46q-2 -6 -4 -13q-76 -202 -276 -202q-82 0 -177 56q-39 23 -84 23q-40 -1 -56 -29q-37 -51 -94 -56h-44q-33 0 -51 25q-15 21 -9 47z" />
<glyph unicode="&#xd6;" horiz-adv-x="1723" d="M246 781q69 323 346 552q278 229 601 229t504 -229t112 -552t-346 -552q-279 -229 -602 -229t-503 229q-181 229 -112 552zM491 781q-47 -223 76 -380q124 -156 346 -156q223 0 413 156q191 157 238 380t-76 380q-124 157 -347 157q-222 0 -412 -157q-191 -157 -238 -380 zM908 1733q12 57 62 98t108 41q57 0 89 -41q34 -40 21 -98q-12 -59 -63 -99q-49 -41 -106 -41q-58 0 -91 41q-32 41 -20 99zM1271 1733q12 57 62 98t108 41q57 0 89 -41q34 -40 21 -98q-12 -59 -63 -99q-49 -41 -106 -41q-58 0 -91 41q-32 41 -20 99z" />
<glyph unicode="&#xd7;" horiz-adv-x="917" d="M156 496l1 3q10 48 53 83l242 200l-157 200q-28 35 -18 83l2 6q10 47 52 82l1 1q44 36 94 36h3q48 0 77 -35l156 -200l241 199q44 36 94 36q51 0 82 -39v-2q25 -33 15 -82q-11 -50 -53 -86l-242 -199l157 -199q27 -36 17 -86q-11 -50 -58 -90l-3 -1q-39 -32 -89 -32 t-78 36l-157 199l-241 -200q-44 -35 -92 -35h-6q-47 0 -74 35l-1 1q-28 36 -18 86z" />
<glyph unicode="&#xd8;" horiz-adv-x="1723" d="M246 781q69 323 346 552q278 229 601 229q130 0 212 -28l104 158h236l-162 -247q54 -37 114 -112q181 -229 112 -552t-346 -552q-279 -229 -602 -229q-127 0 -206 27l-160 -244h-237l217 331q-57 38 -117 115q-181 229 -112 552zM491 781q-47 -223 76 -380q37 -46 56 -60 l634 966q-36 11 -116 11q-222 0 -412 -157q-191 -157 -238 -380zM803 255q33 -10 110 -10q223 0 413 156q191 157 238 380t-76 380q-36 44 -54 58z" />
<glyph unicode="&#xd9;" d="M220 517l196 924q11 50 55 86q43 35 92 35h3q49 0 78 -35q28 -36 17 -86l-196 -924q-24 -113 38 -193q63 -79 176 -79q114 0 211 79q96 80 120 193l196 924q11 50 55 86q43 35 92 35h3q49 0 78 -35q28 -36 17 -86l-196 -924q-46 -214 -230 -365q-184 -152 -398 -152 q-213 0 -333 152q-120 151 -74 365zM744 1970q3 16 16 34q27 39 69 39h155q36 0 48 -28l122 -250q11 -20 6 -41q-3 -15 -14 -31q-27 -37 -69 -37h-76q-27 0 -47 23l-201 251q-14 18 -9 40z" />
<glyph unicode="&#xda;" d="M220 517l196 924q11 50 55 86q43 35 92 35h3q49 0 78 -35q28 -36 17 -86l-196 -924q-24 -113 38 -193q63 -79 176 -79q114 0 211 79q96 80 120 193l196 924q11 50 55 86q43 35 92 35h3q49 0 78 -35q28 -36 17 -86l-196 -924q-46 -214 -230 -365q-184 -152 -398 -152 q-213 0 -333 152q-120 151 -74 365zM827 1724q5 21 23 40l229 251q25 28 61 28h154q43 0 53 -39q6 -18 3 -33q-5 -22 -28 -41l-306 -251q-30 -23 -57 -23h-77q-43 0 -53 38q-5 15 -2 30z" />
<glyph unicode="&#xdb;" d="M220 517l196 924q11 50 55 86q43 35 92 35h3q49 0 78 -35q28 -36 17 -86l-196 -924q-24 -113 38 -193q63 -79 176 -79q114 0 211 79q96 80 120 193l196 924q11 50 55 86q43 35 92 35h3q49 0 78 -35q28 -36 17 -86l-196 -924q-46 -214 -230 -365q-184 -152 -398 -152 q-213 0 -333 152q-120 151 -74 365zM624 1701q4 21 24 40l250 251q27 26 60 26h197q34 0 47 -27l145 -250q12 -19 7 -41q-3 -15 -14 -31q-26 -38 -69 -38h-77q-28 0 -47 24l-132 165l-203 -165q-29 -24 -56 -24h-77q-43 0 -53 38q-6 17 -2 32z" />
<glyph unicode="&#xdc;" d="M220 517l196 924q11 50 55 86q43 35 92 35h3q49 0 78 -35q28 -36 17 -86l-196 -924q-24 -113 38 -193q63 -79 176 -79q114 0 211 79q96 80 120 193l196 924q11 50 55 86q43 35 92 35h3q49 0 78 -35q28 -36 17 -86l-196 -924q-46 -214 -230 -365q-184 -152 -398 -152 q-213 0 -333 152q-120 151 -74 365zM674 1733q12 57 62 98t108 41q57 0 89 -41q34 -40 21 -98q-12 -59 -63 -99q-49 -41 -106 -41q-58 0 -91 41q-32 41 -20 99zM1037 1733q12 57 62 98t108 41q57 0 89 -41q34 -40 21 -98q-12 -59 -63 -99q-49 -41 -106 -41q-58 0 -91 41 q-32 41 -20 99z" />
<glyph unicode="&#xdd;" horiz-adv-x="1235" d="M312 997l94 444q11 50 55 86q43 35 92 35h3q49 0 78 -35q28 -36 17 -86l-94 -444q-24 -114 38 -194q63 -79 176 -79q114 0 211 79q96 80 120 194l94 444q11 50 55 86q43 35 92 35h3q49 0 78 -35q28 -36 17 -86l-94 -444q-40 -188 -191 -332q-149 -141 -311 -172l-79 -372 q-11 -51 -54 -85q-44 -36 -93 -36h-3q-49 0 -77 36q-29 34 -18 85l79 372q-150 31 -239 172q-89 144 -49 332zM817 1724q5 21 23 40l229 251q25 28 61 28h154q43 0 53 -39q6 -18 3 -33q-5 -22 -28 -41l-306 -251q-30 -23 -57 -23h-77q-43 0 -53 38q-5 15 -2 30z" />
<glyph unicode="&#xde;" horiz-adv-x="1280" d="M166 121l280 1320q11 50 55 86q43 35 92 35h3q49 0 78 -35q28 -36 17 -86l-37 -176h336q200 0 312 -142t69 -341q-42 -200 -214 -342q-173 -142 -373 -142h-336l-37 -177q-11 -51 -54 -85q-44 -36 -93 -36h-3q-49 0 -77 36q-29 34 -18 85zM500 543h336q99 0 184 69 q85 70 106 170q21 99 -34 169q-55 69 -154 69h-336z" />
<glyph unicode="&#xdf;" horiz-adv-x="1184" d="M126 121l246 1159q25 117 126 200q100 82 216 82h238q183 0 285 -129q101 -129 62 -311q-43 -206 -195 -314q127 -116 78 -345q-40 -191 -205 -327t-357 -136h-61q-50 0 -78 36q-28 35 -17 85v2q11 50 53 86q44 36 94 36h61q91 0 168 63q77 64 96 155q20 91 -30 155 t-141 64h-57q-50 0 -78 36q-28 35 -17 85v2q11 50 53 86q44 35 94 35l57 1q82 0 151 56q69 57 86 139q18 81 -27 138q-46 58 -127 58h-238q-16 0 -29 -11t-16 -27l-246 -1159q-11 -51 -54 -85q-44 -36 -93 -36h-3q-49 0 -77 36q-29 34 -18 85z" />
<glyph unicode="&#xe0;" horiz-adv-x="1352" d="M222 576q51 238 256 407t443 169t371 -169t82 -407l-96 -455q-11 -51 -54 -85q-44 -36 -93 -36h-3q-49 0 -77 36q-29 34 -18 85q-140 -121 -357 -121q-238 0 -371 169t-83 407zM467 576q-29 -138 46 -235q77 -96 215 -96t254 96q118 97 147 235q30 137 -47 234 q-76 97 -213 97q-138 0 -256 -97q-116 -97 -146 -234zM705 1560q3 16 16 34q27 39 69 39h155q36 0 48 -28l122 -250q11 -20 6 -41q-3 -15 -14 -31q-27 -37 -69 -37h-76q-27 0 -47 23l-201 251q-14 18 -9 40z" />
<glyph unicode="&#xe1;" horiz-adv-x="1352" d="M222 576q51 238 256 407t443 169t371 -169t82 -407l-96 -455q-11 -51 -54 -85q-44 -36 -93 -36h-3q-49 0 -77 36q-29 34 -18 85q-140 -121 -357 -121q-238 0 -371 169t-83 407zM467 576q-29 -138 46 -235q77 -96 215 -96t254 96q118 97 147 235q30 137 -47 234 q-76 97 -213 97q-138 0 -256 -97q-116 -97 -146 -234zM788 1314q5 21 23 40l229 251q25 28 61 28h154q43 0 53 -39q6 -18 3 -33q-5 -22 -28 -41l-306 -251q-30 -23 -57 -23h-77q-43 0 -53 38q-5 15 -2 30z" />
<glyph unicode="&#xe2;" horiz-adv-x="1352" d="M222 576q51 238 256 407t443 169t371 -169t82 -407l-96 -455q-11 -51 -54 -85q-44 -36 -93 -36h-3q-49 0 -77 36q-29 34 -18 85q-140 -121 -357 -121q-238 0 -371 169t-83 407zM467 576q-29 -138 46 -235q77 -96 215 -96t254 96q118 97 147 235q30 137 -47 234 q-76 97 -213 97q-138 0 -256 -97q-116 -97 -146 -234zM584 1291q5 21 25 40l250 251q27 26 60 26h197q34 0 47 -27l145 -250q12 -19 7 -41q-3 -15 -14 -31q-26 -38 -69 -38h-77q-28 0 -47 24l-132 165l-203 -165q-29 -24 -56 -24h-77q-43 0 -53 38q-6 17 -3 32z" />
<glyph unicode="&#xe3;" horiz-adv-x="1352" d="M222 576q51 238 256 407t443 169t371 -169t82 -407l-96 -455q-11 -51 -54 -85q-44 -36 -93 -36h-3q-49 0 -77 36q-29 34 -18 85q-140 -121 -357 -121q-238 0 -371 169t-83 407zM467 576q-29 -138 46 -235q77 -96 215 -96t254 96q118 97 147 235q30 137 -47 234 q-76 97 -213 97q-138 0 -256 -97q-116 -97 -146 -234zM569 1293q1 6 3 12q35 90 110 143q78 56 177 56q81 0 180 -52q32 -17 71 -17h8q40 1 61 24q48 54 85 54h41q35 0 50 -25q14 -21 9 -46q-2 -6 -4 -13q-76 -202 -276 -202q-82 0 -177 56q-39 23 -84 23q-41 -1 -57 -29 q-36 -51 -93 -56h-44q-33 0 -51 25q-15 21 -9 47z" />
<glyph unicode="&#xe4;" horiz-adv-x="1352" d="M222 576q51 238 256 407t443 169t371 -169t82 -407l-96 -455q-11 -51 -54 -85q-44 -36 -93 -36h-3q-49 0 -77 36q-29 34 -18 85q-140 -121 -357 -121q-238 0 -371 169t-83 407zM467 576q-29 -138 46 -235q77 -96 215 -96t254 96q118 97 147 235q30 137 -47 234 q-76 97 -213 97q-138 0 -256 -97q-116 -97 -146 -234zM635 1323q12 57 62 98t108 41q57 0 89 -41q34 -40 21 -98q-12 -59 -63 -99q-50 -41 -107 -41q-58 0 -90 41t-20 99zM998 1323q12 57 62 98t108 41q57 0 89 -41q34 -40 21 -98q-12 -59 -63 -99q-50 -41 -107 -41 q-58 0 -90 41t-20 99z" />
<glyph unicode="&#xe5;" horiz-adv-x="1352" d="M222 576q51 238 256 407t443 169t371 -169t82 -407l-96 -455q-11 -51 -54 -85q-44 -36 -93 -36h-3q-49 0 -77 36q-29 34 -18 85q-140 -121 -357 -121q-238 0 -371 169t-83 407zM467 576q-29 -138 46 -235q77 -96 215 -96t254 96q118 97 147 235q30 137 -47 234 q-76 97 -213 97q-138 0 -256 -97q-116 -97 -146 -234zM722 1413q21 99 107 170q87 71 187 71h24q99 0 155 -71t35 -170q-21 -100 -107 -171q-87 -71 -186 -71h-24q-100 0 -156 71t-35 171zM906 1413q-5 -26 10 -45t40 -19h13q26 0 49 19t28 45q6 26 -9 45q-14 18 -41 18h-13 q-26 0 -48 -18q-23 -19 -29 -45z" />
<glyph unicode="&#xe6;" horiz-adv-x="2245" d="M222 576q51 238 256 407t443 169t371 -169q32 -41 37 -49q7 8 57 49q205 169 443 169q172 0 294 -94q121 -92 157 -242q7 -25 2 -51q-5 -21 -17 -42q-27 -47 -79 -68q-153 -63 -403 -166q-310 -128 -364 -151q55 -96 216 -96q107 0 208 63q98 62 153 160q46 82 133 82 q62 0 88 -52q16 -32 9 -67q-4 -21 -17 -43q-96 -171 -266 -276q-173 -109 -359 -109q-220 0 -311 100l5 21q-11 -51 -54 -85q-44 -36 -93 -36h-3q-49 0 -77 36q-29 34 -18 85l-5 -21q-135 -100 -352 -100q-238 0 -371 169t-83 407zM467 576q-29 -138 46 -235q77 -96 215 -96 t254 96q118 97 147 235q30 137 -47 234q-76 97 -213 97q-138 0 -256 -97q-116 -97 -146 -234zM1373 565l613 252q-56 88 -210 88q-138 0 -255 -97t-146 -235z" />
<glyph unicode="&#xe7;" horiz-adv-x="975" d="M192 576q51 238 256 407t443 169q90 0 168 -27q79 -27 60 -116l-1 -5q-13 -61 -69 -97q-39 -24 -75 -24q-19 0 -38 6q-46 16 -98 16q-138 0 -255 -97t-146 -235q-29 -137 46 -234q76 -97 214 -97q52 0 105 16q20 6 39 6q37 0 66 -24q41 -36 28 -98q-19 -88 -109 -116 q-90 -26 -180 -26q-238 0 -371 169t-83 407zM316 -407l2 8l3 8q10 35 42 59q31 24 68 24q30 -1 51 -1q89 0 126 22q20 12 22 25q2 8 -2 14q-5 8 -26 15q-12 4 -33 6q-40 5 -56 36q-13 25 -7 55q2 7 4 15l55 140h206l-46 -114q65 -7 108 -60q42 -51 28 -117 q-20 -93 -120 -161q-97 -65 -258 -65h-95q-40 0 -60 30q-19 25 -12 61z" />
<glyph unicode="&#xe8;" horiz-adv-x="1277" d="M192 576q51 238 256 407t443 169q172 0 294 -94q121 -92 157 -242q7 -25 2 -51q-5 -21 -17 -42q-27 -47 -79 -68q-153 -63 -403 -166q-310 -128 -364 -151q55 -96 216 -96q107 0 208 63q98 62 153 160q46 82 133 82q62 0 88 -52q16 -32 9 -67q-4 -21 -17 -43 q-96 -171 -266 -276q-173 -109 -359 -109q-238 0 -371 169t-83 407zM435 566l613 251q-56 88 -210 88q-138 0 -255 -97t-146 -235zM663 1560q3 16 16 34q27 39 69 39h155q36 0 48 -28l122 -250q11 -20 6 -41q-3 -15 -14 -31q-27 -37 -69 -37h-76q-27 0 -47 23l-201 251 q-14 18 -9 40z" />
<glyph unicode="&#xe9;" horiz-adv-x="1277" d="M192 576q51 238 256 407t443 169q172 0 294 -94q121 -92 157 -242q7 -25 2 -51q-5 -21 -17 -42q-27 -47 -79 -68q-153 -63 -403 -166q-310 -128 -364 -151q55 -96 216 -96q107 0 208 63q98 62 153 160q46 82 133 82q62 0 88 -52q16 -32 9 -67q-4 -21 -17 -43 q-96 -171 -266 -276q-173 -109 -359 -109q-238 0 -371 169t-83 407zM435 566l613 251q-56 88 -210 88q-138 0 -255 -97t-146 -235zM746 1314q5 21 23 40l229 251q25 28 61 28h154q43 0 53 -39q6 -18 3 -33q-5 -22 -28 -41l-306 -251q-30 -23 -57 -23h-77q-43 0 -53 38 q-5 15 -2 30z" />
<glyph unicode="&#xea;" horiz-adv-x="1277" d="M192 576q51 238 256 407t443 169q172 0 294 -94q121 -92 157 -242q7 -25 2 -51q-5 -21 -17 -42q-27 -47 -79 -68q-153 -63 -403 -166q-310 -128 -364 -151q55 -96 216 -96q107 0 208 63q98 62 153 160q46 82 133 82q62 0 88 -52q16 -32 9 -67q-4 -21 -17 -43 q-96 -171 -266 -276q-173 -109 -359 -109q-238 0 -371 169t-83 407zM435 566l613 251q-56 88 -210 88q-138 0 -255 -97t-146 -235zM541 1291q5 21 25 40l250 251q27 26 60 26h197q34 0 47 -27l145 -250q12 -19 7 -41q-3 -15 -14 -31q-26 -38 -69 -38h-77q-28 0 -47 24 l-132 165l-203 -165q-29 -24 -56 -24h-77q-43 0 -53 38q-6 17 -3 32z" />
<glyph unicode="&#xeb;" horiz-adv-x="1277" d="M192 576q51 238 256 407t443 169q172 0 294 -94q121 -92 157 -242q7 -25 2 -51q-5 -21 -17 -42q-27 -47 -79 -68q-153 -63 -403 -166q-310 -128 -364 -151q55 -96 216 -96q107 0 208 63q98 62 153 160q46 82 133 82q62 0 88 -52q16 -32 9 -67q-4 -21 -17 -43 q-96 -171 -266 -276q-173 -109 -359 -109q-238 0 -371 169t-83 407zM435 566l613 251q-56 88 -210 88q-138 0 -255 -97t-146 -235zM593 1323q12 57 62 98t108 41q57 0 89 -41q34 -40 21 -98q-12 -59 -63 -99q-50 -41 -107 -41q-58 0 -90 41t-20 99zM956 1323q12 57 62 98 t108 41q57 0 89 -41q34 -40 21 -98q-12 -59 -63 -99q-50 -41 -107 -41q-58 0 -90 41t-20 99z" />
<glyph unicode="&#xec;" horiz-adv-x="496" d="M163 121l193 909q11 50 54 86q44 36 94 36h2q51 0 77 -36q29 -36 18 -86l-193 -909q-11 -51 -54 -85q-42 -36 -93 -36h-2q-50 0 -78 36q-29 34 -18 85zM279 1560q3 16 16 34q27 39 69 39h155q36 0 48 -28l122 -250q11 -20 6 -41q-3 -15 -14 -31q-27 -37 -69 -37h-76 q-27 0 -47 23l-201 251q-14 18 -9 40z" />
<glyph unicode="&#xed;" horiz-adv-x="525" d="M163 121l193 909q11 50 54 86q44 36 94 36h2q51 0 77 -36q29 -36 18 -86l-193 -909q-11 -51 -54 -85q-42 -36 -93 -36h-2q-50 0 -78 36q-29 34 -18 85zM382 1314q5 21 23 40l229 251q25 28 61 28h154q43 0 53 -39q6 -18 3 -33q-5 -22 -28 -41l-306 -251q-30 -23 -57 -23 h-77q-43 0 -53 38q-5 15 -2 30z" />
<glyph unicode="&#xee;" horiz-adv-x="531" d="M163 121l193 909q11 50 54 86q44 36 94 36h2q51 0 77 -36q29 -36 18 -86l-193 -909q-11 -51 -54 -85q-42 -36 -93 -36h-2q-50 0 -78 36q-29 34 -18 85zM168 1291q5 21 25 40l250 251q27 26 60 26h197q34 0 47 -27l145 -250q12 -19 7 -41q-3 -15 -14 -31q-26 -38 -69 -38 h-77q-28 0 -47 24l-132 165l-203 -165q-29 -24 -56 -24h-77q-43 0 -53 38q-6 17 -3 32z" />
<glyph unicode="&#xef;" horiz-adv-x="512" d="M163 121l193 909q11 50 54 86q44 36 94 36h2q51 0 77 -36q29 -36 18 -86l-193 -909q-11 -51 -54 -85q-42 -36 -93 -36h-2q-50 0 -78 36q-29 34 -18 85zM219 1323q12 57 62 98t108 41q57 0 89 -41q34 -40 21 -98q-12 -59 -63 -99q-50 -41 -107 -41q-58 0 -90 41t-20 99z M582 1323q12 57 62 98t108 41q57 0 89 -41q34 -40 21 -98q-12 -59 -63 -99q-50 -41 -107 -41q-58 0 -90 41t-20 99z" />
<glyph unicode="&#xf0;" horiz-adv-x="1352" d="M222 576q51 238 256 407t443 169q69 0 70 4q0 1 -4 2q-9 16 -113 106l-84 -87q-29 -32 -57 -32q-21 0 -41 18l-7 5q-26 23 -20 51q5 21 28 45l72 75q-5 2 -36 19q-26 14 -27 44q-1 10 1 19q4 18 19 36l56 64q29 34 60 34q15 0 30 -7q44 -22 65 -34l78 81q30 32 59 32 q21 0 40 -18l7 -5q26 -23 20 -51q-4 -21 -27 -44l-63 -66q265 -211 326 -528q32 -158 11 -278q-3 -31 -10 -61q-50 -238 -255 -407t-443 -169t-371 169t-83 407zM467 573q-29 -137 46 -234q76 -97 214 -97q137 0 255 97t147 234q29 138 -47 235q-77 97 -214 97 q-138 0 -255 -97t-146 -235z" />
<glyph unicode="&#xf1;" horiz-adv-x="1167" d="M126 121l116 547q42 200 215 342q172 142 372 142q199 0 311 -142q111 -142 69 -342l-116 -547q-11 -51 -54 -85q-42 -36 -93 -36h-2q-50 0 -78 36q-29 34 -18 85l116 547q21 99 -33 169q-55 70 -154 70q-100 0 -185 -70q-84 -70 -105 -169l-116 -547q-11 -51 -54 -85 q-44 -36 -93 -36h-3q-49 0 -77 36q-29 34 -18 85zM477 1293q1 6 3 12q35 90 110 143q78 56 177 56q81 0 180 -52q32 -17 71 -17h8q40 1 61 24q48 54 85 54h41q35 0 50 -25q14 -21 9 -46q-2 -6 -4 -13q-76 -202 -276 -202q-82 0 -177 56q-39 23 -84 23q-41 -1 -57 -29 q-36 -51 -93 -56h-44q-33 0 -51 25q-15 21 -9 47z" />
<glyph unicode="&#xf2;" horiz-adv-x="1292" d="M192 576q51 238 256 407t443 169t371 -169t82 -407q-50 -238 -255 -407t-443 -169t-371 169t-83 407zM437 573q-29 -137 46 -234q76 -97 214 -97q137 0 255 97t147 234q29 138 -47 235q-77 97 -214 97q-138 0 -255 -97t-146 -235zM675 1560q3 16 16 34q27 39 69 39h155 q36 0 48 -28l122 -250q11 -20 6 -41q-3 -15 -14 -31q-27 -37 -69 -37h-76q-27 0 -47 23l-201 251q-14 18 -9 40z" />
<glyph unicode="&#xf3;" horiz-adv-x="1292" d="M192 576q51 238 256 407t443 169t371 -169t82 -407q-50 -238 -255 -407t-443 -169t-371 169t-83 407zM437 573q-29 -137 46 -234q76 -97 214 -97q137 0 255 97t147 234q29 138 -47 235q-77 97 -214 97q-138 0 -255 -97t-146 -235zM758 1314q5 21 23 40l229 251 q25 28 61 28h154q43 0 53 -39q6 -18 3 -33q-5 -22 -28 -41l-306 -251q-30 -23 -57 -23h-77q-43 0 -53 38q-5 15 -2 30z" />
<glyph unicode="&#xf4;" horiz-adv-x="1292" d="M192 576q51 238 256 407t443 169t371 -169t82 -407q-50 -238 -255 -407t-443 -169t-371 169t-83 407zM437 573q-29 -137 46 -234q76 -97 214 -97q137 0 255 97t147 234q29 138 -47 235q-77 97 -214 97q-138 0 -255 -97t-146 -235zM554 1291q5 21 25 40l250 251 q27 26 60 26h197q34 0 47 -27l145 -250q12 -19 7 -41q-3 -15 -14 -31q-26 -38 -69 -38h-77q-28 0 -47 24l-132 165l-203 -165q-29 -24 -56 -24h-77q-43 0 -53 38q-6 17 -3 32z" />
<glyph unicode="&#xf5;" horiz-adv-x="1292" d="M192 576q51 238 256 407t443 169t371 -169t82 -407q-50 -238 -255 -407t-443 -169t-371 169t-83 407zM437 573q-29 -137 46 -234q76 -97 214 -97q137 0 255 97t147 234q29 138 -47 235q-77 97 -214 97q-138 0 -255 -97t-146 -235zM539 1293q1 6 3 12q35 90 110 143 q78 56 177 56q81 0 180 -52q32 -17 71 -17h8q40 1 61 24q48 54 85 54h41q35 0 50 -25q14 -21 9 -46q-2 -6 -4 -13q-76 -202 -276 -202q-82 0 -177 56q-39 23 -84 23q-41 -1 -57 -29q-36 -51 -93 -56h-44q-33 0 -51 25q-15 21 -9 47z" />
<glyph unicode="&#xf6;" horiz-adv-x="1292" d="M192 576q51 238 256 407t443 169t371 -169t82 -407q-50 -238 -255 -407t-443 -169t-371 169t-83 407zM437 573q-29 -137 46 -234q76 -97 214 -97q137 0 255 97t147 234q29 138 -47 235q-77 97 -214 97q-138 0 -255 -97t-146 -235zM605 1323q12 57 62 98t108 41 q57 0 89 -41q34 -40 21 -98q-12 -59 -63 -99q-50 -41 -107 -41q-58 0 -90 41t-20 99zM968 1323q12 57 62 98t108 41q57 0 89 -41q34 -40 21 -98q-12 -59 -63 -99q-50 -41 -107 -41q-58 0 -90 41t-20 99z" />
<glyph unicode="&#xf7;" horiz-adv-x="952" d="M216 780v2q11 50 54 86q42 36 93 36h609q50 0 78 -36q29 -36 18 -86v-2q-11 -51 -54 -85q-44 -36 -94 -36h-609q-51 0 -77 36q-29 34 -18 85zM431 446q12 57 62 98q49 41 107 41q57 0 90 -41q33 -40 21 -98q-13 -59 -63 -99q-50 -41 -107 -41q-58 0 -90 41q-33 41 -20 99 zM574 1119q12 57 62 98q49 41 107 41q57 0 90 -41q33 -40 21 -98q-13 -59 -63 -99q-50 -41 -107 -41q-58 0 -90 41t-20 99z" />
<glyph unicode="&#xf8;" horiz-adv-x="1292" d="M127 -210l210 313q-26 20 -62 66q-133 169 -83 407q51 238 256 407t443 169q87 0 137 -16l145 216h236l-205 -306q23 -19 58 -63q133 -169 82 -407q-50 -238 -255 -407t-443 -169q-84 0 -131 14l-151 -224h-237zM437 573q-29 -137 46 -234q4 -5 7 -7l384 573h-36 q-138 0 -255 -97t-146 -235zM666 241q4 1 31 1q137 0 255 97t147 234q29 138 -48 235q-2 2 -2 4z" />
<glyph unicode="&#xf9;" horiz-adv-x="1167" d="M203 483l116 547q11 50 54 86q44 36 93 36h3q49 0 77 -36q29 -36 18 -86l-116 -547q-21 -99 33 -169q55 -69 155 -69q99 0 184 69q84 70 105 169l116 547q11 50 54 86q44 36 94 36h2q51 0 77 -36q29 -36 18 -86l-116 -547q-43 -199 -215 -341t-371 -142q-200 0 -312 142 t-69 341zM613 1560q3 16 16 34q27 39 69 39h155q36 0 48 -28l122 -250q11 -20 6 -41q-3 -15 -14 -31q-27 -37 -69 -37h-76q-27 0 -47 23l-201 251q-14 18 -9 40z" />
<glyph unicode="&#xfa;" horiz-adv-x="1167" d="M203 483l116 547q11 50 54 86q44 36 93 36h3q49 0 77 -36q29 -36 18 -86l-116 -547q-21 -99 33 -169q55 -69 155 -69q99 0 184 69q84 70 105 169l116 547q11 50 54 86q44 36 94 36h2q51 0 77 -36q29 -36 18 -86l-116 -547q-43 -199 -215 -341t-371 -142q-200 0 -312 142 t-69 341zM696 1314q5 21 23 40l229 251q25 28 61 28h154q43 0 53 -39q6 -18 3 -33q-5 -22 -28 -41l-306 -251q-30 -23 -57 -23h-77q-43 0 -53 38q-5 15 -2 30z" />
<glyph unicode="&#xfb;" horiz-adv-x="1167" d="M203 483l116 547q11 50 54 86q44 36 93 36h3q49 0 77 -36q29 -36 18 -86l-116 -547q-21 -99 33 -169q55 -69 155 -69q99 0 184 69q84 70 105 169l116 547q11 50 54 86q44 36 94 36h2q51 0 77 -36q29 -36 18 -86l-116 -547q-43 -199 -215 -341t-371 -142q-200 0 -312 142 t-69 341zM492 1291q5 21 25 40l250 251q27 26 60 26h197q34 0 47 -27l145 -250q12 -19 7 -41q-3 -15 -14 -31q-26 -38 -69 -38h-77q-28 0 -47 24l-132 165l-203 -165q-29 -24 -56 -24h-77q-43 0 -53 38q-6 17 -3 32z" />
<glyph unicode="&#xfc;" horiz-adv-x="1167" d="M203 483l116 547q11 50 54 86q44 36 93 36h3q49 0 77 -36q29 -36 18 -86l-116 -547q-21 -99 33 -169q55 -69 155 -69q99 0 184 69q84 70 105 169l116 547q11 50 54 86q44 36 94 36h2q51 0 77 -36q29 -36 18 -86l-116 -547q-43 -199 -215 -341t-371 -142q-200 0 -312 142 t-69 341zM543 1323q12 57 62 98t108 41q57 0 89 -41q34 -40 21 -98q-12 -59 -63 -99q-50 -41 -107 -41q-58 0 -90 41t-20 99zM906 1323q12 57 62 98t108 41q57 0 89 -41q34 -40 21 -98q-12 -59 -63 -99q-50 -41 -107 -41q-58 0 -90 41t-20 99z" />
<glyph unicode="&#xfd;" horiz-adv-x="1167" d="M96 -90q5 23 20 46q31 52 84 69l5 2q23 7 44 7q22 0 42 -8q37 -17 49 -57q20 -60 76 -97q57 -38 133 -38q95 0 181 70q87 72 108 169l1 8q-91 -59 -250 -59q-200 0 -312 142q-112 141 -70 341l112 525q11 50 54 86q44 36 93 36h3q49 0 77 -36q29 -36 18 -86l-112 -525 q-21 -99 33 -169q56 -70 156 -70q98 0 182 70q85 70 106 169l112 525q11 50 54 86q44 36 94 36h2q51 0 77 -36q29 -36 18 -86l-203 -957q-43 -198 -222 -342q-175 -142 -364 -142q-150 0 -258 74q-104 72 -141 193q-8 27 -2 54zM696 1314q5 21 23 40l229 251q25 28 61 28 h154q43 0 53 -39q6 -18 3 -33q-5 -22 -28 -41l-306 -251q-30 -23 -57 -23h-77q-43 0 -53 38q-5 15 -2 30z" />
<glyph unicode="&#xfe;" horiz-adv-x="1322" d="M38 -290l368 1731q11 50 55 86q43 35 92 35h3q49 0 78 -35q28 -36 17 -86l-82 -388q132 99 352 99q238 0 371 -169t82 -407q-50 -238 -255 -407t-443 -169q-218 0 -310 100l-83 -390q-10 -49 -54 -85q-43 -36 -92 -36h-3q-49 0 -78 36q-28 36 -18 85zM468 578 q-29 -137 46 -234q77 -97 215 -97q137 0 254 97q118 97 147 234q29 138 -47 235q-76 96 -214 96t-255 -96q-117 -97 -146 -235z" />
<glyph unicode="&#xff;" horiz-adv-x="1167" d="M96 -90q5 23 20 46q31 52 84 69l5 2q23 7 44 7q22 0 42 -8q37 -17 49 -57q20 -60 76 -97q57 -38 133 -38q95 0 181 70q87 72 108 169l1 8q-91 -59 -250 -59q-200 0 -312 142q-112 141 -70 341l112 525q11 50 54 86q44 36 93 36h3q49 0 77 -36q29 -36 18 -86l-112 -525 q-21 -99 33 -169q56 -70 156 -70q98 0 182 70q85 70 106 169l112 525q11 50 54 86q44 36 94 36h2q51 0 77 -36q29 -36 18 -86l-203 -957q-43 -198 -222 -342q-175 -142 -364 -142q-150 0 -258 74q-104 72 -141 193q-8 27 -2 54zM543 1323q12 57 62 98t108 41q57 0 89 -41 q34 -40 21 -98q-12 -59 -63 -99q-50 -41 -107 -41q-58 0 -90 41t-20 99zM906 1323q12 57 62 98t108 41q57 0 89 -41q34 -40 21 -98q-12 -59 -63 -99q-50 -41 -107 -41q-58 0 -90 41t-20 99z" />
<glyph unicode="&#x152;" horiz-adv-x="2277" d="M246 781q69 323 346 552q278 229 601 229t504 -229l9 -11q1 0 1 1t-7 12q17 42 112 120q130 107 281 107h357q49 0 77 -36q29 -34 18 -85v-2q-11 -50 -54 -86q-44 -36 -93 -36h-357q-50 0 -93 -35q-42 -35 -53 -85l-62 -294h477q49 0 77 -35q29 -36 18 -86v-2 q-11 -50 -54 -86q-44 -35 -93 -35h-477l-62 -294q-11 -50 17 -85q27 -35 77 -35h357q49 0 77 -36q29 -36 18 -86v-2q-11 -51 -54 -85q-44 -36 -93 -36h-357q-151 0 -235 107q-63 78 -62 120q13 11 13 12t-1 1l-13 -11q-279 -229 -602 -229t-503 229q-181 229 -112 552z M491 781q-47 -223 76 -380q124 -156 346 -156q223 0 413 156q170 140 225 330l22 100q25 190 -85 330q-124 157 -347 157q-222 0 -412 -157q-191 -157 -238 -380z" />
<glyph unicode="&#x153;" horiz-adv-x="2156" d="M192 576q51 238 256 407t443 169t371 -169q32 -41 37 -49q7 8 57 49q205 169 443 169q172 0 294 -94q121 -92 157 -242q7 -25 2 -51q-5 -21 -17 -42q-27 -47 -79 -68q-153 -63 -403 -166q-310 -128 -364 -151q55 -96 216 -96q107 0 208 63q98 62 153 160q46 82 133 82 q62 0 88 -52q16 -32 9 -67q-4 -21 -17 -43q-96 -171 -266 -276q-173 -109 -359 -109q-238 0 -371 169q-32 41 -37 49q-7 -8 -57 -49q-205 -169 -443 -169t-371 169t-83 407zM437 573q-29 -137 46 -234q76 -97 214 -97q137 0 255 97t147 234q29 138 -47 235q-77 97 -214 97 q-138 0 -255 -97t-146 -235zM1343 565l613 252q-56 88 -210 88q-138 0 -255 -97t-146 -235z" />
<glyph unicode="&#x178;" horiz-adv-x="1235" d="M312 997l94 444q11 50 55 86q43 35 92 35h3q49 0 78 -35q28 -36 17 -86l-94 -444q-24 -114 38 -194q63 -79 176 -79q114 0 211 79q96 80 120 194l94 444q11 50 55 86q43 35 92 35h3q49 0 78 -35q28 -36 17 -86l-94 -444q-40 -188 -191 -332q-149 -141 -311 -172l-79 -372 q-11 -51 -54 -85q-44 -36 -93 -36h-3q-49 0 -77 36q-29 34 -18 85l79 372q-150 31 -239 172q-89 144 -49 332zM664 1733q12 57 62 98t108 41q57 0 89 -41q34 -40 21 -98q-12 -59 -63 -99q-49 -41 -106 -41q-58 0 -91 41q-32 41 -20 99zM1027 1733q12 57 62 98t108 41 q57 0 89 -41q34 -40 21 -98q-12 -59 -63 -99q-49 -41 -106 -41q-58 0 -91 41q-32 41 -20 99z" />
<glyph unicode="&#x2c6;" horiz-adv-x="941" d="M379 1291q5 21 25 40l250 251q27 26 60 26h197q34 0 47 -27l145 -250q12 -19 7 -41q-3 -15 -14 -31q-26 -38 -69 -38h-77q-28 0 -47 24l-132 165l-203 -165q-29 -24 -56 -24h-77q-43 0 -53 38q-6 17 -3 32z" />
<glyph unicode="&#x2dc;" horiz-adv-x="968" d="M377 1293q1 6 3 12q35 90 110 143q78 56 177 56q81 0 180 -52q32 -17 71 -17h8q40 1 61 24q48 54 85 54h41q35 0 50 -25q14 -21 9 -46q-2 -6 -4 -13q-76 -202 -276 -202q-82 0 -177 56q-39 23 -84 23q-41 -1 -57 -29q-36 -51 -93 -56h-44q-33 0 -51 25q-15 21 -9 47z" />
<glyph unicode="&#x2000;" horiz-adv-x="1032" />
<glyph unicode="&#x2001;" horiz-adv-x="2064" />
<glyph unicode="&#x2002;" horiz-adv-x="1032" />
<glyph unicode="&#x2003;" horiz-adv-x="2064" />
<glyph unicode="&#x2004;" horiz-adv-x="688" />
<glyph unicode="&#x2005;" horiz-adv-x="516" />
<glyph unicode="&#x2006;" horiz-adv-x="344" />
<glyph unicode="&#x2007;" horiz-adv-x="344" />
<glyph unicode="&#x2008;" horiz-adv-x="258" />
<glyph unicode="&#x2009;" horiz-adv-x="412" />
<glyph unicode="&#x200a;" horiz-adv-x="114" />
<glyph unicode="&#x2010;" horiz-adv-x="872" d="M216 780v2q11 50 54 86q42 36 93 36h529q50 0 78 -36q29 -36 18 -86v-2q-11 -51 -54 -85q-44 -36 -94 -36h-529q-51 0 -77 36q-29 34 -18 85z" />
<glyph unicode="&#x2011;" horiz-adv-x="872" d="M216 780v2q11 50 54 86q42 36 93 36h529q50 0 78 -36q29 -36 18 -86v-2q-11 -51 -54 -85q-44 -36 -94 -36h-529q-51 0 -77 36q-29 34 -18 85z" />
<glyph unicode="&#x2012;" horiz-adv-x="872" d="M216 780v2q11 50 54 86q42 36 93 36h529q50 0 78 -36q29 -36 18 -86v-2q-11 -51 -54 -85q-44 -36 -94 -36h-529q-51 0 -77 36q-29 34 -18 85z" />
<glyph unicode="&#x2013;" horiz-adv-x="1197" d="M198 460l48 229h997l-48 -229h-997z" />
<glyph unicode="&#x2014;" horiz-adv-x="1597" d="M198 460l48 229h1397l-48 -229h-1397z" />
<glyph unicode="&#x2018;" horiz-adv-x="455" d="M339 1123l33 157q29 138 103 220q39 44 93 67l78 -71q-87 -85 -104 -164l-4 -22q25 0 52 -36q28 -36 18 -85l-14 -66q-11 -50 -55 -86q-43 -35 -92 -35h-12q-50 0 -79 35q-28 36 -17 86z" />
<glyph unicode="&#x2019;" horiz-adv-x="455" d="M354 1068q87 85 104 164l4 22q-25 0 -52 36q-28 36 -18 85l14 66q11 50 55 86q43 35 92 35h12q50 0 79 -35q28 -36 17 -86l-33 -157q-29 -138 -103 -220q-39 -44 -93 -67z" />
<glyph unicode="&#x201a;" horiz-adv-x="455" d="M88 -184q87 85 104 164q2 11 3 22q-25 0 -51 36q-28 36 -18 85l14 66q11 50 54 86q44 35 93 35h12q50 0 78 -35q29 -36 18 -86l-33 -157q-30 -138 -103 -220q-39 -44 -93 -67z" />
<glyph unicode="&#x201c;" horiz-adv-x="728" d="M339 1123l33 157q29 138 103 220q39 44 93 67l78 -71q-87 -85 -104 -164l-4 -22q25 0 52 -36q28 -36 18 -85l-14 -66q-11 -50 -55 -86q-43 -35 -92 -35h-12q-50 0 -79 35q-28 36 -17 86zM612 1123l33 157q29 138 103 220q39 44 93 67l78 -71q-87 -85 -104 -164l-4 -22 q25 0 52 -36q28 -36 18 -85l-14 -66q-11 -50 -55 -86q-43 -35 -92 -35h-12q-50 0 -79 35q-28 36 -17 86z" />
<glyph unicode="&#x201d;" horiz-adv-x="728" d="M354 1068q87 85 104 164l4 22q-25 0 -52 36q-28 36 -18 85l14 66q11 50 55 86q43 35 92 35h12q50 0 79 -35q28 -36 17 -86l-33 -157q-29 -138 -103 -220q-39 -44 -93 -67zM627 1068q87 85 104 164l4 22q-25 0 -52 36q-28 36 -18 85l14 66q11 50 55 86q43 35 92 35h12 q50 0 79 -35q28 -36 17 -86l-33 -157q-29 -138 -103 -220q-39 -44 -93 -67z" />
<glyph unicode="&#x201e;" horiz-adv-x="728" d="M88 -184q87 85 104 164q2 11 3 22q-25 0 -51 36q-28 36 -18 85l14 66q11 50 54 86q44 35 93 35h12q50 0 78 -35q29 -36 18 -86l-33 -157q-30 -138 -103 -220q-39 -44 -93 -67zM361 -184q87 85 104 164q2 11 3 22q-25 0 -51 36q-28 36 -18 85l14 66q11 50 54 86 q44 35 93 35h12q50 0 78 -35q29 -36 18 -86l-33 -157q-30 -138 -103 -220q-39 -44 -93 -67z" />
<glyph unicode="&#x2022;" horiz-adv-x="893" d="M256 734q30 143 153.5 244.5t266.5 101.5q144 0 223.5 -101.5t49.5 -244.5q-31 -144 -154 -245.5t-267 -101.5q-143 0 -223 101.5t-49 245.5z" />
<glyph unicode="&#x2026;" horiz-adv-x="2108" d="M130 140q12 57 62 98q49 41 107 41q57 0 90 -41q33 -40 21 -98q-13 -59 -63 -99q-50 -41 -107 -41q-58 0 -90 41q-33 41 -20 99zM813 140q12 57 62 98q49 41 107 41q57 0 90 -41q33 -40 21 -98q-13 -59 -63 -99q-50 -41 -107 -41q-58 0 -90 41q-33 41 -20 99zM1496 140 q12 57 62 98q49 41 107 41q57 0 90 -41q33 -40 21 -98q-13 -59 -63 -99q-50 -41 -107 -41q-58 0 -90 41q-33 41 -20 99z" />
<glyph unicode="&#x202f;" horiz-adv-x="412" />
<glyph unicode="&#x2039;" horiz-adv-x="738" d="M189 750q9 39 42 64l454 337h318l-545 -401l374 -401h-318l-310 338q-23 25 -15 63z" />
<glyph unicode="&#x203a;" horiz-adv-x="738" d="M54 349l544 401l-373 401h318l310 -337q23 -25 14 -64q-8 -38 -41 -63l-454 -338h-318z" />
<glyph unicode="&#x205f;" horiz-adv-x="516" />
<glyph unicode="&#x20ac;" horiz-adv-x="1436" d="M235 633l4 23q8 36 40 62q31 26 67 26h82l11 50h-82q-36 0 -58 26q-19 27 -11 63l5 23q7 36 39 62q31 26 67 26h111q108 235 353 401q249 167 520 167q99 0 189 -24q86 -24 66 -117l-1 -3q-12 -58 -67 -96q-39 -25 -77 -25q-16 0 -32 4q-62 17 -130 17q-174 0 -337 -102 q-160 -101 -226 -222h428q36 0 57 -26q20 -26 13 -62l-5 -23q-8 -36 -38 -62q-32 -27 -69 -27h-471l-3 -13q-7 -31 -7 -37h404q36 0 58 -25q20 -27 12 -63l-4 -23q-8 -36 -40 -62q-32 -27 -68 -27h-352q20 -111 134 -204q117 -95 286 -95q68 0 137 16q17 4 33 4q38 0 67 -25 q39 -36 27 -96l-1 -2q-20 -94 -116 -118q-100 -24 -199 -24q-265 0 -440 160q-173 158 -190 384h-117q-36 0 -58 26q-19 27 -11 63z" />
<glyph unicode="&#x2122;" horiz-adv-x="1318" d="M337 1492l28 131h732l57 -414l233 414h176l-146 -685h-141l85 396l-203 -358h-108l-49 358l-85 -396h-141l118 554h-204l-118 -554h-147l118 554h-205z" />
<glyph unicode="&#x25fc;" horiz-adv-x="1150" d="M0 0v1150h1150v-1150h-1150z" />
</font>
</defs>
</svg>
