<?xml version="1.0" standalone="no"?>
<!DOCTYPE svg PUBLIC "-//W3C//DTD SVG 1.1//EN" "http://www.w3.org/Graphics/SVG/1.1/DTD/svg11.dtd" >
<svg xmlns="http://www.w3.org/2000/svg" xmlns:xlink="http://www.w3.org/1999/xlink" version="1.1">
<metadata>
Created by FontForge 20170731 at Sat Jan 28 19:55:29 2017
 By Aleksey,,,
L Della Rosa, 2015 - Free for personal use
</metadata>
<defs>
<font id="derepublica" horiz-adv-x="0" >
  <font-face 
    font-family="de re publica"
    font-weight="400"
    font-stretch="normal"
    units-per-em="1000"
    panose-1="2 1 5 2 4 1 1 6 1 0"
    ascent="800"
    descent="-200"
    x-height="546"
    cap-height="714"
    bbox="-136 -474 1244.74 1080"
    underline-thickness="50"
    underline-position="-150"
    unicode-range="U+0020-A759"
  />
<missing-glyph horiz-adv-x="500" 
 />
    <glyph glyph-name=".notdef" horiz-adv-x="500" 
 />
    <glyph glyph-name=".null" 
 />
    <glyph glyph-name="nonmarkingreturn" horiz-adv-x="333" 
 />
    <glyph glyph-name="space" unicode=" " horiz-adv-x="231" 
 />
    <glyph glyph-name="exclam" unicode="!" horiz-adv-x="234" 
d="M54 397q1 42 1 97v103q0 2 -4 14l-4 11l-2 10q0 2 -4 8q-5 7 -5 8l-1 11l-2 6q0 8 3 11q1 2 7 4l4 1q3 1 6 3q6 3 12 11q13 -3 30 -3q8 0 26 3q17 3 37 3h11q2 0 8 -2q6 -3 10 -3q0 -1 -3 -3q-2 -2 -3 -2h-2l1 -1l-9 -5v-11q0 -7 -1 -13l-5 -20q-1 -7 -1 -14q0 -3 -2 -12
l-5 -19q-7 -28 -7 -37q0 -19 2 -65l11 -191q2 -50 2 -75l2 -8v-13l14 -28v-8q1 -4 5 -6l8 -3q10 -2 10 -6l-2 -5q-2 -3 -2 -5q1 -1 1 -2t-3 -1q-4 0 -13 2q-9 1 -19 3l-31 8q-2 -2 -10 -4l-21 -5q-3 0 -5 -1l-8 -2q-10 -2 -14 -4h-26q-21 0 -21 12q0 8 16 66q6 81 8 182z
M55 82q18 20 73 28h10q23 -12 33 -35q3 -9 5 -18q1 -6 1 -12q0 -44 -68 -44h-12q-25 0 -38 6q-18 8 -18 30q0 30 14 45z" />
    <glyph glyph-name="quotedbl" unicode="&#x22;" horiz-adv-x="504" 
d="M146 480q0 12 -12 27l-22 21l-39 31q-33 15 -43 42v12l16 18q6 0 10 9q1 4 2 5l2 5q4 6 9 11l33 30q1 1 7 3l7 3h17q1 0 5 -12q1 -6 3 -10q2 -5 5 -8l8 -12l35 -18q33 -24 47 -48l10 -30v-19l-5 -36l-19 -42l-9 -12q-3 -3 -8 -11l-16 -23q-3 -5 -6 -8l-9 -12l-28 -18
l-11 -2l1 5q0 7 2 13q1 8 3 14q2 8 5 12v60zM374 484q0 12 -12 27l-22 21l-39 31q-33 15 -43 42v12l16 18q6 0 10 9q1 4 2 5l2 5q4 6 9 11l33 30q1 1 7 3l7 3h17q1 0 5 -12q1 -6 3 -10q2 -5 5 -8l8 -12l35 -18q33 -24 47 -48l10 -30v-19l-5 -36l-19 -42l-9 -12q-3 -3 -8 -11
l-16 -23q-3 -5 -6 -8l-9 -12l-28 -18l-11 -2l1 5q0 7 2 13q1 8 3 14q2 8 5 12v60z" />
    <glyph glyph-name="numbersign" unicode="#" 
 />
    <glyph glyph-name="dollar" unicode="$" horiz-adv-x="588" 
 />
    <glyph glyph-name="percent" unicode="%" 
 />
    <glyph glyph-name="ampersand" unicode="&#x26;" horiz-adv-x="995" 
d="M487 354q-9 -6 -14 -11l-18 -6t-53.5 -5.5t-190.5 -17.5q-31 -3 -55 -4q0 -3 1 -7l-2 -22l2 -20l14 -40q0 -1 4 -7l29 -50q1 -1 1 -2l2 -2l3 -4l19 -24q12 -14 22 -22q13 -10 38 -29q3 -2 9 -3q2 -1 6 -1l33 -10q2 -2 3 -2q23 -5 55 -8h75q0 -17 -51 -41
q-55 -26 -103 -26q-52 0 -90 15q-8 3 -17 8l-96 41q-28 16 -34.5 24t-12.5 25l-14 18l-9 27q-3 21 -7 35q-4 13 -4 20v80l2 6l4 12q4 8 5 14q3 7 4 11l7 17q16 31 35 56q13 17 30 33l15 11l18 17q7 6 10 10l7 5l66 37l5 6l26 11l19 4q5 0 46 8q6 3 10 4h41q2 0 8 -2l51 -11
q41 -17 33 -30.5t-26.5 -11.5t-77.5 -2l-64 -5q-26 -18 -52 -18q-34 0 -65 -33l-23 -34v-11l-5 -10l-1 -10q3 1 6 1q73 8 175 12.5t127 11.5q15 6 24 15t65 33t105.5 14.5t88.5 -16t77 -1t69.5 12t35.5 13t2.5 -18.5t-28 -44t-66.5 -17q-31 1 -75 3q-8 -78 -5 -150
q3 -89 6 -122.5t29.5 -39t52 -5.5t25.5 -13t-45.5 -36t-85 -23t-71 17.5t-31.5 54.5t3 113.5l5 127.5q1 37 -4 82h-12q-40 0 -61 -4t-60 -22q-15 -6 -25 -12z" />
    <glyph glyph-name="quotesingle" unicode="'" horiz-adv-x="276" 
d="M146 480q0 12 -12 27l-22 21l-39 31q-33 15 -43 42v12l15 18q7 0 11 9l1 4q1 3 3 6q3 6 9 11l33 30q1 1 7 3l7 3h17q1 0 5 -12q1 -6 3 -10q2 -5 5 -8l8 -12l35 -18q33 -24 47 -48l10 -30v-19l-5 -36l-19 -42l-9 -12q-3 -3 -8 -11l-16 -23q-3 -5 -6 -8l-9 -12l-28 -18
l-11 -2l1 5q0 7 2 13q1 8 3 14q2 8 5 12v60z" />
    <glyph glyph-name="parenleft" unicode="(" horiz-adv-x="454" 
d="M30 345q0 82 32 167l7 15q10 11 21 29l19 29q23 35 54 52l8 7q16 29 64 43q37 11 80 11q12 0 29 -2l29 -3l18 -6q19 -10 33 -31l-12 -8l-5 -6l-15 -1l-51 -16l-60 -35l-31 -29q-18 -17 -29 -33l-22 -23q0 -10 -7 -27q-2 -7 -7 -17l-8 -19q-11 -23 -16 -38q-7 -21 -6 -35
l1 -24l-6 -14l3 -46q2 -26 5 -47l4 -9l15 -24l17 -47q19 -19 54 -38q14 -8 32 -17l32 -15q38 -18 53 -28q22 -15 22 -29l-2 -21l3 -16l-35 5q-110 12 -198 89q-88 78 -120 193z" />
    <glyph glyph-name="parenright" unicode=")" horiz-adv-x="454" 
d="M419 281q-32 -115 -120 -193q-88 -77 -198 -89l-35 -5l3 16l-2 21q0 14 22 29q15 10 53 28l32 15q18 9 32 17q35 19 54 38l17 47l15 24l4 9q3 21 5 47l2 34q1 4 1 12l-6 14l1 24q0 9 -5 25q-3 12 -12 35l-15 38q-8 22 -12 38l-22 23q-11 16 -28 33l-28 25q-2 3 -4 4
l-60 35l-51 16l-15 1l-5 6l-12 8q14 21 33 31l18 6l28 3q17 2 30 2q41 0 77 -10q50 -14 67 -44l8 -7q30 -17 54 -52l19 -29q11 -18 21 -29l7 -15q32 -85 32 -167z" />
    <glyph glyph-name="asterisk" unicode="*" horiz-adv-x="490" 
d="M242 259q-10 18 -29 27h-36q-3 0 -9 -5q-5 -5 -7 -9l-7 -6l-16 -21q-22 -32 -37 -38h-14l-35 31q-4 2 -6 4q-3 2 -5 5q-12 11 -13 26l-1 15l13 7q1 0 5 4l20 21q0 5 7 14q5 8 9 11l33 21q-16 12 -22 24q-9 17 -20 64l36 -10q35 -10 54 -29l3 16l5 5q5 10 11 16l6 6
q6 6 15 7l1 1q6 6 9 8q3 1 6 3l2 7q2 6 6 12q10 15 28 15h3l30 -26l6 -9q4 -9 11 -9l5 -6q8 -5 8 -13l1 -10q-4 -21 -30 -35l-33 -31q-8 -10 -8 -16l2 -35q3 -4 4 -8l3 -9l14 -5h8q32 0 45 14l8 6l20 24q14 27 30 34l12 -1q11 0 32 -20l7 -7q1 -2 2 -2l10 -10q11 -11 21 -17
q0 -9 -10 -19l-19 -17l-8 -4q-9 -25 -24 -38q-8 -9 -26 -18l-5 -3q16 -15 24 -27q11 -19 21 -60l-36 9q-35 10 -54 27l-5 -17q-6 -20 -33 -36l-20 -12q-3 -4 -5 -15q-3 -10 -3 -16h-21q-8 0 -17 6l-20 16l-6 8q-2 5 -4 6q-2 3 -7 4l-8 8q1 -1 -3 6l-4 7l-1 8q4 19 33 36
l29 28l7 9q3 5 3 8z" />
    <glyph glyph-name="plus" unicode="+" horiz-adv-x="410" 
d="M57 321q46 0 57 -10h4q1 1 11 1h15v84q0 24 -5 37q-8 19 -29 24l6 13q4 6 12 8l14 10q12 8 25 14q36 17 72 17h6l13 -7q12 -13 12 -106v-14q0 -23 -10 -47l-6 -14l3 -19l42 1q33 0 40 31l7 -5l14 -18q9 -14 14 -35q6 -25 6 -57l-4 -18q-7 -10 -71 -10h-9q-8 0 -17 3
l-22 9q-3 -42 -3 -87l3 -15q5 -14 12 -26l21 -31q3 -5 3 -9q0 -22 -28 -33q-9 -4 -25 -8l-21 -6l-14 2q-9 1 -28 10q-11 5 -17 9q-7 5 -7 9l-19 11q0 69 11 85l-2 48q1 20 1 40h-9q-18 0 -33 -5q-11 -4 -20 -12l-12 -12q-5 -5 -8 -5q-15 0 -23 24q-2 5 -3 11l-6 30l1 13
q0 6 7 25q3 9 6 15t6 6z" />
    <glyph glyph-name="comma" unicode="," horiz-adv-x="298" 
d="M143 -103q11 17 14 27l11 36q4 12 4 18v53q0 5 -4 7q-2 1 -7 1l-17 -3q-17 -6 -26 -16l-23 -6h-34l-11 6l-8 6l-8 12l-4 11v25q0 2 4 9t4 10l20 23q10 12 26 20q13 6 22 6q6 0 13 -5q7 -6 11 -14h46q1 0 6 3l6 3l37 11q16 8 25 8q7 0 12 -3q6 -5 6 -16v-42l-12 -73
q-7 -52 -29 -91q-18 -32 -46 -54q-21 -17 -45 -26q-9 -4 -17 -6l-11 -1l6 10q7 10 6 10z" />
    <glyph glyph-name="hyphen" unicode="-" horiz-adv-x="855" 
d="M129 176q-35 -16 -57 -11t-25 41t27 55t86.5 37.5t145 38t145 16t108.5 -14.5t74 -9t49 9.5t44 26.5t34.5 33t38 22t25 -4.5t-6.5 -34.5t-26.5 -33t-35 -20t-54.5 -22.5t-75 -21t-82.5 -1t-118.5 9.5t-113.5 1.5t-75.5 -11t-63 -25.5t-44 -82z" />
    <glyph glyph-name="period" unicode="." horiz-adv-x="212" 
d="M45 110q21 28 82 39h11q25 -17 36 -49q4 -11 6 -24q1 -9 1 -17q0 -40 -20 -53q-9 -5 -23 -7q-11 -1 -32 -1h-25q-15 1 -25 5q-26 10 -26 45q0 42 15 62z" />
    <glyph glyph-name="slash" unicode="/" horiz-adv-x="573" 
d="M390 396q-18 -46 -38 -93q-19 -43 -41 -90l-91 -183l-9 -11l-1 -3q0 -1 -1 -2h-8l-9 -8l-12 -5l-17 -5q-18 -5 -29 -7h-27q-9 0 -28 5l-18 4q-12 3 -24 4l-4 14q-2 7 -2 10q0 5 4 8q3 2 9 3h7q0 -1 5 1l20 1l6 2q5 1 6 2l15 6l16 10l41 43q13 16 28 49l12 26q7 15 13 26
l30 75q10 26 21 49l61 161q18 50 27 80q12 38 12 52l13 18q4 4 7 14q3 30 40 41q26 7 79 7h40q0 -4 -5 -8l-21 -21v2q-1 0 -8 -15l-35 -67q-8 -16 -10 -16q-1 0 -1 2q-2 -5 -7 -13l-10 -16q-12 -21 -18 -50l-14 -57z" />
    <glyph glyph-name="zero" unicode="0" horiz-adv-x="579" 
 />
    <glyph glyph-name="one" unicode="1" horiz-adv-x="312" 
 />
    <glyph glyph-name="two" unicode="2" horiz-adv-x="579" 
 />
    <glyph glyph-name="three" unicode="3" horiz-adv-x="562" 
 />
    <glyph glyph-name="four" unicode="4" horiz-adv-x="722" 
 />
    <glyph glyph-name="five" unicode="5" horiz-adv-x="705" 
 />
    <glyph glyph-name="six" unicode="6" horiz-adv-x="579" 
 />
    <glyph glyph-name="seven" unicode="7" horiz-adv-x="584" 
 />
    <glyph glyph-name="eight" unicode="8" horiz-adv-x="505" 
 />
    <glyph glyph-name="nine" unicode="9" horiz-adv-x="552" 
 />
    <glyph glyph-name="colon" unicode=":" horiz-adv-x="212" 
d="M30 54q-1 38 17 58q22 27 80 37h11q25 -17 36 -49q4 -11 6 -24q1 -9 1 -17q0 -40 -20 -53q-9 -5 -23 -7q-11 -1 -32 -1h-25q-15 1 -25 5q-26 10 -26 45v6zM39 462q21 28 82 39h11q25 -17 36 -49q4 -11 6 -24q1 -9 1 -17q0 -40 -20 -53q-9 -5 -23 -7q-11 -1 -32 -1h-25
q-15 1 -25 5q-26 10 -26 45q0 42 15 62z" />
    <glyph glyph-name="semicolon" unicode=";" horiz-adv-x="298" 
d="M143 -103q11 17 14 27l11 36q4 12 4 18v53q0 5 -4 7q-2 1 -7 1l-17 -3q-17 -6 -26 -16l-23 -6h-34l-11 6l-8 6l-8 12l-4 11v25q0 2 4 9t4 10l20 23q10 12 26 20q13 6 22 6q6 0 13 -5q7 -6 11 -14h46q1 0 6 3l6 3l37 11q16 8 25 8q7 0 12 -3q6 -5 6 -16v-42l-12 -73
q-7 -52 -29 -91q-18 -32 -46 -54q-21 -17 -45 -26q-9 -4 -17 -6l-11 -1l6 10q7 10 6 10zM83 460q21 28 82 39h11q25 -17 36 -49q4 -11 6 -24q1 -9 1 -17q0 -40 -20 -53q-9 -5 -23 -7q-11 -1 -32 -1h-25q-15 1 -25 5q-26 10 -26 45q0 42 15 62z" />
    <glyph glyph-name="less" unicode="&#x3c;" 
 />
    <glyph glyph-name="equal" unicode="=" horiz-adv-x="679" 
d="M602 556q5 -7 5 -14q0 -26 -50 -74q-19 -18 -45 -38q-20 -16 -42 -32q-32 -31 -87 -44l-43 -8q-26 -4 -37 -8q-43 -14 -63 -16l-55 -32q-5 -3 -12 -10l-10 -11q-12 -13 -21 -12l-15 -30l-1 -25l5 -30l-6 -15q-14 -22 -47 -22q-16 0 -33 8l-13 19l-2 16l3 22q20 37 49 69
q25 26 61 51l33 23l68 43q19 12 34 23l29 15q33 10 62 16q21 4 43 7l31 2q15 2 25 5h-3q40 23 51 58l5 18l14 28q2 1 6 6l7 8l9 7q5 4 9 6v-1l13 3q18 -4 23 -32v1zM644 384q5 -7 5 -14q0 -26 -50 -74q-19 -18 -45 -38q-20 -16 -42 -32q-32 -31 -87 -44l-43 -8
q-26 -4 -37 -8q-43 -14 -63 -16l-55 -32q-5 -3 -12 -10l-10 -11q-12 -13 -21 -12l-15 -30l-1 -25l5 -30l-6 -15q-18 -22 -47 -22q-16 0 -33 8l-13 19l-2 16l3 22q20 37 49 69q25 26 61 51l33 23l68 43q19 12 34 23l29 15q33 10 62 16q21 4 43 7l31 2q15 2 25 5h-3
q40 23 51 58l5 18l14 28q2 1 6 6l7 8l9 7q5 4 9 6v-1l13 3q18 -4 23 -32v1z" />
    <glyph glyph-name="greater" unicode="&#x3e;" 
 />
    <glyph glyph-name="question" unicode="?" horiz-adv-x="549" 
d="M264 142q-3 6 -3 9l-1 -1q-1 1 -1 12q0 33 3 45l1 14q1 4 1 12v11l62 65q0 1 1 1q5 6 6 6l35 46l7 136q0 2 -4 9q-3 7 -8 16l-10 17l-9 12l-7 7q-6 5 -16 12q-20 16 -32 24l-17 11q-2 0 -6 2h1q-1 1 -9 3l-7 3l-65 1l-7 -1l-35 -43q-5 -8 -5 -10l-4 -89l6 -10l7 -5
q3 -3 5 -3l27 -13q-1 -1 12 -5q3 0 6 -1l23 -7q20 -5 30 -10q14 -6 14 -10l-1 -22l-10 -11q-3 -4 -6 -6q-15 -18 -25 -27l-12 -9q-3 -1 -6 -3l-19 -10q-13 -7 -15 -7l-18 -1l-10 1l-49 39q-2 1 -7 6l-25 28l-23 32q-9 11 -9 22v24l2 21q0 1 4 8l18 35l4 20q1 4 3 7q1 4 3 8
q2 5 5 10q13 27 30 44l29 28q3 2 3 3l31 16l75 24v-1q4 2 13 4l16 5q20 5 23 5l14 1l24 -3q23 -5 32 -12l68 -39q0 -1 2 -3t3 -2q28 -31 41 -48q6 -8 12 -18l12 -22q0 -2 2 -7q1 -1 2 -5l3 -7q4 -9 7 -18q4 -12 7 -26l1 -20q-2 -6 -2 -14l-1 -7l-24 -67q-11 -31 -30 -52
q-9 -10 -23 -23l-27 -23l-90 -71l3 -13h-1l4 -25q4 -2 13 -10l10 -10l7 -11l1 -5q-2 -6 -4 -7l-3 -1q-2 -4 -4 -4l-1 -1q-3 -3 -10 -5q-8 -3 -19 -3q-22 0 -49 15q-2 2 -5 7zM251 30q2 30 14 43q16 19 61 27h8q17 -12 24 -34q2 -7 3 -16q1 -6 1 -12q-1 -30 -20 -38
q-7 -3 -20 -4h-27q-44 0 -44 32v2z" />
    <glyph glyph-name="at" unicode="@" horiz-adv-x="750" 
 />
    <glyph glyph-name="A" unicode="A" horiz-adv-x="756" 
d="M237 277l-67 -106v-20l5 -17q11 -33 50 -33q63 23 86 60q8 13 16 33l8 26l5 11q0 7 -9 36q-4 13 -8 21q-4 11 -6 11h-27l-14 -8zM232 309h4q13 8 32 28l29 37v32l-9 35l-40 111l-26 47q-8 9 -12 25q-3 12 -3 22l1 12l7 16l10 11l3 3q1 1 3 2q5 7 10 12q7 7 12 11l11 5
l29 3l17 -4q59 -35 83 -112h-1q6 -16 10 -45q2 -1 2 -3v-3q0 -3 1 -6q1 -6 1 -12q3 -13 7 -22l17 -52l7 -43q4 -4 4 -11q12 -68 22 -80q13 -68 34 -104q16 -26 60 -67l67 -48q4 -1 15 -8l23 -16q57 -19 57 -38q0 -20 -49 -34q-45 -13 -104 -13q-44 0 -86 16l-21 9l-54 55
q-15 13 -26 33l-15 25h-3q-1 0 -6 -4l-32 -25l-25 -35q-3 -1 -13 -13l-8 -8q-4 -4 -7 -5l-74 -53q-2 -3 -17 -9q-16 -6 -21 -6h-39q-61 15 -69 81l-8 64l9 12q8 17 20 33l40 37q6 7 6 11l31 21l21 21q6 4 58 45q2 3 5 4z" />
    <glyph glyph-name="B" unicode="B" horiz-adv-x="827" 
d="M235 654l23 15q3 13 73 45q29 13 39 13l45 -8l49 -15l50 -31l43 -40q14 -17 18 -28l4 -22v-15q-7 -27 -24 -47l-84 -75l-4 -7v-1l-20 -8q70 -12 119 -34q61 -27 94 -57q7 -5 14 -15l56 -80q6 -29 7.5 -38t2.5 -25l-5 -18l-4 -25q-4 -12 -11 -23q-5 -11 -10 -16l-37 -52
l-7 -3l-14 -6q-11 -3 -16 -7q-9 -3 -13 -5l-22 -8q-43 -13 -84 -19q-28 -6 -61 -8l-26 1l-33 -3q-13 0 -20 -1h-12l-105 9l-11 -1l-40 6q-26 8 -31 10q-2 1 -12 -10q-20 -20 -37 -17.5t-15 40t-9.5 187t-7.5 259.5t0 129t-13 25.5t-47 17.5q-15 13 36 38t93 32.5t51.5 5
t17.5 -55.5v-9zM254 347l-17 -10q-2 -125 0 -191v-73q5 -20 36 -33q39 -18 101 -12l53 11l9 8l14 4l26 19q16 11 25 18q4 4 7 8l22 17l13 15l15 35q1 0 1 6l4 50v4l-1 5l-4 26q-3 16 -8 26q-8 14 -22 41q-3 2 -8 6q-3 1 -7 4l-32 25q0 1 -1 2q-90 19 -158 4zM237 373l52 22
q23 12 27 14q31 17 44 28l32 27l15 18q11 9 19 25l21 22v4q-1 8 -2.5 12t-4 12.5t-5.5 12.5l-6 10l-28 34l-48 35l-30 12l-17 1l-68 -70q2 -63 0 -170q-1 -26 -1 -49z" />
    <glyph glyph-name="C" unicode="C" horiz-adv-x="738" 
d="M46 374l3 7l5 16q5 11 7 19q3 9 5 14l9 23q21 41 46 74q17 22 40 43l20 15l23 22q10 8 14 13l9 7l87 49l7 8l34 14l25 6q7 0 61 10q8 4 13 5h54q3 0 11 -2l50 -33l53 -42q5 -4 13 -14l14 -17q16 -21 19 -20v-21q0 -10 -33 -35q-37 -28 -73 -28l-32 -3l-26 7q-1 1 -8 5
l-24 17l-10 17q-7 2 -12 7l-23 16q-6 4 -13 6l-20 12q-21 23 -55 23q-45 0 -86 -44l-30 -45v-14l-7 -13l-4 -40q-2 -22 -2 -38q0 -7 1 -15l-3 -34l3 -26l18 -53q0 -2 6 -10l38 -66q1 -1 1 -2q2 -1 3 -3l4 -5l25 -32q16 -18 29 -29q17 -13 50 -38q4 -3 12 -4q3 -1 8 -1
l44 -14q2 -2 4 -2q30 -7 72 -11h99q0 -22 -67 -54q-73 -34 -136 -34q-69 0 -119 20q-10 4 -22 10l-127 54q-37 21 -45.5 32t-16.5 33l-19 24l-11 35q-4 28 -10 47q-5 17 -5 26v106z" />
    <glyph glyph-name="D" unicode="D" horiz-adv-x="742" 
d="M44 199q1 18 6 39q3 12 8 36q7 22 9 32q4 18 4 29q2 12 16 34q12 18 32 42q39 45 59 61q3 1 11 7q3 3 9 7l62 49q14 12 42 25q27 14 36 14l33 21q3 4 21 16q2 5 2 10l-1 10l-16 25q-2 5 -12 18l-13 15q-40 47 -82 86q-33 31 -61 51l-62 31l-6 7v5l7 9q1 0 12 6l14 6
l42 27q6 7 35 7h17q10 0 18 -1q19 -3 37 -10q37 -23 88 -84l27 -25q3 -5 13 -17l43 -55q11 -14 14 -18l52 -79l26 -31l16 -29q1 -1 10 -11q9 -11 26 -39q18 -37 23 -74q3 -25 3 -69q0 -28 -5 -51l-2 -42l-20 -38q0 -5 -12 -21t-27 -35l-29 -32q-14 -14 -20 -14l-46 -52
l-83 -64q-8 -13 -67 -41l-51 -15q-5 -2 -9 -2h-22q-11 0 -24 2l-46 13q-13 2 -23 2l-15 8l-27 20q-12 8 -20 13q-9 7 -11 7l-44 89q-1 3 -5 10l-12 43v17zM168 259q0 -5 3 -16l14 -44q3 -10 3 -12l37 -50l25 -23l51 -29l39 -10q9 -3 13 -3h6q78 9 118 57q1 4 8 17q7 15 8 16
l21 37l40 80v56q0 51 -6 76q-3 11 -10 28l-15 39l-21 23q-15 16 -26 29l-20 20l-22 13l-19 -1l-15 -13q-9 -6 -19 -9q-2 -1 -8 -2l-8 -1q-10 -3 -19 -9q-13 -9 -28 -25l-17 -14q-10 -8 -27 -17l-7 -4q-5 -1 -8 -4q-10 -5 -33 -47q-3 -6 -6 -10l-33 -37q-19 -28 -19 -53v-58z
" />
    <glyph glyph-name="E" unicode="E" horiz-adv-x="738" 
d="M202 409q0 -4 1 -9l-3 -29l3 -26l18 -53q0 -2 6 -10l38 -66q1 -1 1 -2q2 -1 3 -3l4 -5l25 -32q16 -18 29 -29q17 -13 50 -38q4 -3 12 -4q3 -1 8 -1l44 -14q2 -2 4 -2q30 -7 72 -11h99q0 -22 -67 -54q-73 -34 -136 -34q-69 0 -119 20q-10 4 -22 10l-127 54
q-37 21 -45.5 32t-16.5 33l-19 24l-11 35q-4 28 -10 47q-5 17 -5 26v106l3 7l5 16q5 11 7 19q3 9 5 14l9 23q21 41 46 74q17 22 40 43l20 15l23 22q10 8 14 13l9 7l87 49l7 8l34 14l25 6q7 0 61 10q8 4 13 5h54q3 0 11 -2l67 -15q54 -22 43.5 -40t-35 -15.5t-102.5 -2.5
l-84 -6q-35 -24 -69 -24q-45 0 -86 -44l-30 -45v-14l-7 -13l-1 -14q4 2 8 2q96 10 231 16t179 11.5t46.5 -3t-21 -25t-35 -27.5t-19.5 -13.5t-70.5 -7t-251.5 -23.5q-41 -3 -72 -5z" />
    <glyph glyph-name="F" unicode="F" horiz-adv-x="647" 
d="M227 663q3 -4 16 -4q21 0 113 26q6 0 18 3l25 2q33 7 50 7h33q30 0 75 -36q40 -31 40 -39q0 -7 -6 -21q-7 -15 -9 -19l-68 -57q-18 -6 -32 -6q-37 0 -77 24l-36 21q-25 13 -42 21q-11 0 -35 -3q-26 -3 -37 -3t-23 3q4 -105 3 -352q-1 -19 -1 -36h1q0 -8 17 -8
q21 0 113 27q6 0 18 2l25 3q34 6 50 6h33q30 0 75 -35q41 -32 41 -40q0 -6 -7 -21q-6 -14 -9 -18l-68 -57q-18 -7 -32 -7q-36 0 -77 24l-36 21q-25 13 -42 21q-11 0 -35 -2q-26 -3 -37 -3q-15 0 -30 4v-9q-3 -205 0 -272q1 -89 -3 -99.5t-26 -27t-41.5 -50.5t-36.5 -30.5
t-15 66t-9 251t-7 370.5t0 213t-13 41t-47 29q-14 22 36 63.5t91.5 53.5t50.5 8q7 -4 13 -55z" />
    <glyph glyph-name="G" unicode="G" horiz-adv-x="746" 
d="M512 12q-55 -21 -104 -21q-69 0 -119 20q-10 4 -22 10l-127 54q-37 21 -45.5 31.5t-16.5 33.5l-19 24l-11 35q-4 28 -10 47q-5 17 -5 26v106l3 7l5 16q5 11 7 19q3 9 5 14l9 23q21 41 46 74q17 22 40 43l20 15l23 22q10 8 14 13l9 7l87 49l7 8l34 14l25 6q7 0 61 10
q8 4 13 5h54q3 0 11 -2l50 -33l53 -43q5 -3 13 -13l14 -17q16 -21 19 -20v-21q0 -10 -33 -35q-37 -28 -73 -28l-32 -3l-26 7q-1 1 -8 5l-24 17l-10 17q-7 2 -12 7l-23 16q-6 4 -13 6l-20 12q-21 23 -55 23q-45 0 -86 -44l-30 -45v-14l-7 -13l-4 -40q-2 -22 -2 -38
q0 -7 1 -15l-3 -34l3 -27l18 -52q0 -2 6 -10l38 -66q1 -1 1 -2l3 -3l4 -5l25 -32q16 -18 29 -29q17 -13 50 -38q4 -3 12 -4q3 -1 8 -1l44 -14q2 -2 4 -2q30 -7 72 -11h1l10 73l4 1l16 28q7 6 11 8l40 20q18 9 29 9h16l25 -31v-62q0 -6 -7 -17q-6 -45 -9 -76q-1 -24 -6 -64
v-25q0 -13 -2 -26q-1 -16 -4 -21l-13 -77q-3 -1 -7 -13l-2 -11l-28 -52q-1 -7 -7 -18q-5 -13 -13 -23q-21 -32 -46 -32h-25q-22 0 -22 29q0 69 19 148l16 84l2 62q2 15 2 19z" />
    <glyph glyph-name="H" unicode="H" horiz-adv-x="824" 
d="M100 190q-14 136 -14 230q0 324 8 403l-1 26q0 6 -2 15l-3 21l-4 7q-1 2 -11 9l-33 20q-8 6 -13 9q-12 12 -20 22q0 7 72 59v-2l99 50h32q39 0 39 -65q0 -27 -1 -51l-7 -63q-1 -14 -1 -26v-70q0 -30 -5 -75q-5 -44 -5 -67v-74l46 18l61 38l45 27q39 19 91 28h12
q23 -5 75 -37q48 -31 64 -48l20 -21q0 3 2 4l69 -96q7 -14 18 -35l18 -35q19 -39 19 -58q0 6 -30 -140l-52 -89l-3 -13h-2l-21 -31q-49 -58 -81 -58q-24 0 -18 34v12q0 4 5 16l6 11h-2l46 66q9 18 9 24q0 55 -28 137l-32 57q-4 6 -7 9l-70 97l-27 34q-19 24 -50 39
q-64 -3 -74 -13l-25 -31q-8 -10 -17 -19l-29 -38l-15 -32q-4 -7 -5 -12l1 -60l6 -48v-76l-1 -20q0 -36 4 -52l5 -11l10 -12q5 -5 9 -13q6 -9 13 -22v-39q0 -32 -52 -61q-46 -25 -71 -25q-7 0 -12 1q-7 1 -14 5q-16 12 -22 38z" />
    <glyph glyph-name="I" unicode="I" horiz-adv-x="326" 
d="M29 625q-15 16 36 45.5t93 38t51.5 5.5t16.5 -64.5t4 -286t-1.5 -287t-2 -70.5t-26 -20t-42.5 -36.5t-37 -21.5t-15 47.5t-9.5 180t-7.5 266t0 153t-13 30t-47 20.5z" />
    <glyph glyph-name="J" unicode="J" horiz-adv-x="345" 
d="M109 158q-12 135 -8 265.5t0 153t-13 30t-47 20.5q-15 16 36 45.5t93 38t51.5 5.5t16.5 -64.5t4 -285.5q-3 -174 12 -354q3 -108 3 -194v-25q0 -56 -49 -128q-28 -39 -59 -61q-37 -25 -79 -25q-3 0 -3 1q0 6 7 19l7 14v7l6 6v18l4 6q4 7 6 13q10 23 10 40q0 25 1 45l6 57
q4 42 7 80q1 26 1 54q-5 11 -4 39q0 16 -1 44q0 6 -1 11z" />
    <glyph glyph-name="K" unicode="K" horiz-adv-x="805" 
d="M274 251q-28 33 -37 33q-6 0 -10 -23q0 -50 9 -89q6 -31 20 -56l9 -18q3 -3 5 -8l4 -7q9 -14 9 -22q0 -41 -39 -61q-13 -7 -36 -15l-4 -1q-2 0 -4 -1l-21 -8q-65 0 -91 61q-20 46 -20 128l9 305q0 5 2 9q-7 28 -7 70l3 103q0 51 -9 84q-12 42 -40 66q3 4 5 12l4 11
q7 12 16 16l20 18q16 13 34 25q53 30 102 30h9l17 -13q17 -21 17 -190v-25q0 -13 -4 -30l-5 -25q-1 -6 -1 -10q-5 -23 -8 -43q-4 -28 -4 -56q0 -48 4 -71q4 -18 12 -18q4 0 10 5l21 24l7 8q9 9 16 14q20 15 53 45l55 49l9 6l2 2l2 1l27 17q26 17 47 29q61 32 99 32
q106 0 106 -94q0 -41 -25 -75q-27 -36 -62 -36q-39 0 -74 41q-4 2 -7 8l-4 9v3q-2 8 -5 12q-5 5 -12 5q-3 0 -12 -5l-42 -24l-16 -8l-2 -2q-3 -2 -4 -3l-10 -5q-12 -10 -22 -19q-32 -26 -50 -58v-14q10 -18 27 -53l33 -62q20 -36 40 -62q25 -32 52 -54l47 -44
q48 -36 106 -47q22 -4 48 -6q12 -1 24 -1h24q0 -4 -8 -16l-14 -16l-41 -29l-12 -4l-15 -5q-21 -7 -35 -7l-36 2q-4 -2 -11 -2q-6 -1 -9 -1l-10 -1q-11 0 -15 1q-99 28 -157 89q-28 27 -55 69z" />
    <glyph glyph-name="L" unicode="L" horiz-adv-x="694" 
d="M60 3q0 187 7.5 320.5t4 266t-13.5 203t-17.5 102.5t-4 65t39 58t54.5 25t42.5 -32t29 -102.5t-6 -240t-13.5 -259.5t-5.5 -149t25.5 -100t91.5 -56.5t103.5 -15.5t86 2t78 2t66 5t13.5 -18.5t-76 -51.5t-119 -35t-130.5 0t-122.5 2t-132.5 9z" />
    <glyph glyph-name="M" unicode="M" horiz-adv-x="1277" 
d="M46 298q8 133 52 219q40 77 97 118q50 37 110 55l102 26q41 3 71 3h26q76 -5 185 -160q37 22 57 44l38 39l22 14q73 52 83 52h19l17 -2q19 -2 41 -11q48 -17 86 -69l41 -33l9 -11q1 -2 9 -11l6 -8q13 -14 27 -36q33 -51 40 -111q0 -2 1 -5l10 -25q3 -8 3 -14
q11 -42 15 -62t3 -39l-3 -31q-1 -10 -3 -17q-3 -13 -5 -20q-16 -59 -48 -109l-21 -31q-35 -35 -61 -45q-11 -13 -33 -18l-19 -4q-5 5 6 14l7 8l38 62q5 11 5 15l3 66l-4 58l-7 51l-5 26l-9 33q-2 9 -2 14l-7 34l-19 40l-38 50q-13 16 -28 34q-28 31 -60 56q-34 25 -79 20
h-15q-77 0 -102 -40q-23 -37 -23 -113q0 -26 2 -77l5 -90q0 -12 3 -23q1 -6 4 -13l6 -61q6 -87 6 -98v-34q-3 -1 -12 -8q-9 -5 -10 -6q-13 -9 -12 -8q-29 -21 -46 -21q-23 0 -50 30l-9 21v13l9 24l-5 43l-7 49q-3 9 -5 12l-4 45l1 43q-4 121 -14 164l-18 75l-45 59
q-33 39 -72 53q-7 3 -27 8l-43 11h-12q-135 -23 -145 -178q0 -31 6 -77l9 -43l3 -23l5 -16q9 -13 20 -41q-1 2 0 0l5 -13q3 -9 7 -14q14 -22 34 -48q18 -21 33 -32l42 -29l19 -8q11 -13 50 -16q10 -3 37 -4q18 0 0 -7q-9 -9 -18 -22l-20 -31l-10 -6h-2q-9 -5 -6 -4
q-22 -12 -24 -19l-70 -17l-22 8q-18 1 -40 10l-12 6l-21 11l-23 7l-25 22l-30 26q-7 9 -8 14l-8 16l-23 30q-9 11 -31 77q-9 21 -11 48z" />
    <glyph glyph-name="N" unicode="N" horiz-adv-x="991" 
d="M231 521v-146q-3 -218 -4.5 -298t-5.5 -87.5t-24 -28.5t-38 -37t-35 -13.5t-15 46t-1 165.5t1.5 261t-4.5 177t-18 45t-47 19q-14 16 35.5 44.5t91 37t50.5 5.5q7 -2 12 -33q46 -27 163 -156q170 -192 267 -243q70 -63 98 -91q0 24 -1 54q-4 64 0 169.5t-6 144t-18 46
t-41 20.5q-13 15 6.5 42.5t94 38.5t82 8t14 -64.5t3.5 -245.5t-1 -246.5t-1.5 -70t-2 -48t-36 -43t-57.5 11.5q-10 6 -16 22q-16 14 -34 36q-54 61 -160.5 134t-194 157t-142.5 150q-8 9 -15 17z" />
    <glyph glyph-name="O" unicode="O" horiz-adv-x="872" 
d="M38 341v9q0 119 110 241q54 62 118 97q73 39 150 39q54 0 104 -19l50 -15q191 -69 228 -281v-69l-6 -39q-10 -49 -40 -97q-25 -39 -67 -79q-33 -32 -78 -63q-16 -12 -37 -27l-33 -22l-73 -20q-35 -8 -93 -8q-77 0 -148 34l-25 24q-102 95 -126 149l-17 43q-10 26 -12 43
l-1 20q0 7 -1 13q0 8 -2 16q-1 5 -1 11zM188 474q-13 -32 -5 -56l7 -44q0 -4 2 -12l18 -45l46 -83q2 -3 25 -41l41 -44q16 -18 47 -32l44 -18q5 -4 24 -8q15 -4 48 0l60 13q22 12 30 15q8 4 13 6q8 6 15 12q8 10 20 23l14 27q28 57 28 98v23q-1 14 -3 15q-1 6 -8 18l-31 63
l-35 62q-18 29 -27 44q-7 7 -31 23q-22 16 -52 35q-35 18 -60 31q-43 4 -55 4q-19 -1 -37 -4q-8 0 -17 -2q-12 -4 -24 -12q-45 -19 -67 -58z" />
    <glyph glyph-name="P" unicode="P" horiz-adv-x="761" 
d="M260 610l31 22q4 17 87 71q36 19 51 19l56 -12l67 -29l63 -43l53 -57q19 -24 23 -40l5 -32v-20q-8 -40 -29 -66l-107 -108l-5 -8v-2l-163 -106l-6 6l-12 24v18l3 9l16 13q7 3 12 7q7 6 9 16l45 50l21 26q13 12 23 33l26 32v6q-1 10 -2.5 16t-5 17.5t-6.5 17.5l-8 15
l-35 48l-60 51l-40 16l-21 1l-88 -102q1 -78 0 -204q-4 -247 -2 -362.5t-2 -124t-28 -21.5t-45 -40t-39.5 -24t-16 52.5t-9.5 244.5t-8 339.5t0 169t-14 32.5t-51 23q-15 17 39 50t99 42.5t54.5 6t18.5 -70.5q0 -11 1 -22z" />
    <glyph glyph-name="Q" unicode="Q" horiz-adv-x="775" 
d="M552 -282q0 77 -2 121t-6 108q-1 7 -1 13l-1 52q-3 51 -3 91l2 7h-13q-4 0 -7 -3l-16 -9q-52 -37 -141 -60h-3q-36 -13 -74 -13q-21 0 -39 1q-23 4 -43 11q-54 21 -87 71l-37 60q-27 66 -27 108v6q1 90 32 175q14 35 35 74q16 33 41 70q17 27 70 71q56 45 81 51h12
q22 4 50 4q22 0 48 -4l48 -8l26 -4l26 -3q30 -4 56 -4l7 1q10 0 46 -19q42 -21 52 -39v-16q-7 -11 -7 -13q0 -12 6 -27v-18q-19 -56 -19 -133q0 -31 3 -69l11 -145q2 -41 2 -73v-9q0 -36 7 -81l1 -9q0 -5 1 -8q1 -9 1 -16q3 -18 3 -33q-5 -204 -15 -236l-14 -30l-12 -15
q-25 -28 -45 -45q-7 -25 -21 -25h-1q-33 0 -33 21v51zM174 396q0 -8 1 -21l3 -66l4 -20q18 -45 33 -69l15 -23q4 -7 8 -15q7 -10 15 -20q20 -26 44 -39l22 -11q10 -4 28 -4q45 0 111 32q58 24 70 53q5 51 9 100q2 36 4 78l-2 28v81l-2 18l-3 23l2 43q-36 62 -195 62
q-49 0 -103 -70q-52 -69 -63 -140z" />
    <glyph glyph-name="R" unicode="R" horiz-adv-x="872" 
d="M466 247q4 -3 9 -5l38 -26q34 -22 69 -46q46 -31 100 -72q21 -20 53 -39l20 -10l12 -8q33 -24 52.5 -21.5t28.5 -11.5q3 -4 4 -11l-4 -8l-11 -11l-49 -19q-6 1 -12 0h-15q-21 0 -49 8l-40 8l-48 17l-3 1q-4 3 -6 4q-9 4 -15 8l-34 23l-11 8q-41 30 -109 79l-86 59l-63 49
l100 52q3 4 4 9l44 50l21 28q12 12 22 34l25 33v7q-1 9 -2.5 15t-4.5 18.5t-6 17.5l-8 16l-36 49l-58 53l-39 15l-21 3l-88 -106q2 -64 0 -159q-3 -225 -1.5 -329t-2 -112t-26 -20t-42.5 -36.5t-37 -21.5t-15 47.5t-9.5 221.5t-7.5 307.5t0 153t-13 30t-47 20.5
q-15 16 36 45.5t93 38t51.5 5.5t17.5 -64q1 -14 1 -34l32 22q3 19 84 74q37 20 50 20l56 -12l66 -30l62 -45l52 -58q19 -24 23 -41l5 -33v-21q-8 -41 -29 -68l-105 -110l-6 -10l2 -1z" />
    <glyph glyph-name="S" unicode="S" horiz-adv-x="669" 
d="M112 107l1 8l41 71q8 4 25 -8q19 -2 21 -2q7 0 15 -8l66 -37q8 -6 16 -11l10 -5q87 -24 126 -24q78 7 60 79v0q-4 53 -29 73q-12 9 -64 18q-16 3 -48 8l-35 7l-102 6q-4 0 -24 6q-16 5 -24 9q-37 15 -56 28l-28 29q-20 17 -33 35q-7 28 -9 48q-2 13 -2 32l2 9q-3 13 8 76
l11 23q3 5 4 10l10 14l5 17q1 5 4 13l4 7l58 48l8 10l12 9q10 6 23 8l44 9q9 1 19 4l26 9q5 2 14 2h7q50 0 123 -40q62 -34 70 -67l2 -8q22 -94 -58 -85h-5q-16 0 -41 19l-92 41q-16 6 -20 6l-23 7l-29 6q-15 6 -27 2.5l-12 -3.5l-12 -10l-9 -18q-3 -4 -2 -8l-10 -22
q-7 -20 -7 -50l12 -29l3 -4q5 -8 9 -8l22 -20l28 -14l19 -6q13 -4 31 -8q15 -2 29 -5q14 -2 21 -2l121 -14q58 0 89 -21l21 -20q6 -8 14 -17q1 -1 23 -41l24 -72q11 -45 -47 -119q-58 -73 -74 -73l-21 -14q-27 -19 -45 -27q-19 -6 -53 -10l-42 -4l-21 8l-32 2q-9 2 -12 3
l-54 21q-24 11 -26 12l-44 33q-8 7 -16 15q-8 6 -12 22q0 4 -1 12z" />
    <glyph glyph-name="T" unicode="T" horiz-adv-x="693" 
d="M255 613h-16q-53 0 -81 -6t-79 -36q-29 -13 -47.5 -6.5t6.5 46.5t99.5 78t140 23.5t117 -25.5t101.5 -2t91.5 19.5t47 20.5t3.5 -29.5t-37 -69.5t-88 -28q-41 3 -99 7q-10 -125 -6 -238q4 -142 8 -195t39 -62t68.5 -9t33.5 -21t-60 -57t-112.5 -36t-94 27.5t-41.5 86.5
t4 180t7 202q1 59 -5 130z" />
    <glyph glyph-name="U" unicode="U" horiz-adv-x="906" 
d="M705 111q0 33 -1 82q-5 143 -7.5 258t-6.5 137t-13 29.5t-47 20.5q-14 15 36 43.5t91 37t50 5.5t16.5 -63t4 -278t-1.5 -279.5t-3 -100.5t-26.5 -36t-41 12t-34.5 26q-9 7 -12 17q-62 -36 -116 -37q-92 -1 -167 12t-162 68t-112.5 105t-31 125.5t-4 152.5t-1 102t-7 40.5
t-17.5 17.5t-22 5t-25 34q19 36 46.5 48.5t74 16.5t68.5 5t29 -38t7.5 -89t-2 -131t1.5 -171.5t61 -141t145.5 -70t164.5 6.5q32 10 65 28z" />
    <glyph glyph-name="V" unicode="V" horiz-adv-x="820" 
d="M520 -14q-31 66 -81 148q-21 34 -49 77l-110 167q-32 49 -58 92q-33 53 -62 102q-32 55 -61 111v5l-3 6q-2 7 -12 7l-35 -1q0 -2 -7 2t-7 14l46 7q43 7 84 7q75 0 103 -45l1 -6q4 -10 11 -23l31 -50q8 -16 14 -29l6 -14q17 -34 39 -70q19 -31 44 -66l47 -63q3 -3 7 -9
l12 -15q3 -5 6 -8q14 -19 25 -33l51 -69l42 97q14 35 22 61q24 70 24 123q0 75 -47 138v5l-4 4q-13 12 -13 30q33 0 41 -6q43 5 63 14h-1q8 3 17 3l30 -9q31 -12 31 -24l2 -3q5 -33 5 -61q0 -26 -5 -41q-2 -6 -6 -14l-20 -36q-50 -111 -90 -227q-45 -127 -70 -236l-4 -6
l-7 -13q-3 -7 -6 -11q-4 -7 -8 -12q-11 -14 -25 -22z" />
    <glyph glyph-name="W" unicode="W" horiz-adv-x="1265" 
d="M44 446q8 18 6 49q-1 35 4 47q1 2 4 6q7 14 15 25l19 31l6 15q0 6 8 15l25 26l24 23l21 7l19 11q10 5 12 7q20 9 38 10l21 8l71 -17q2 -8 25 -20q-1 1 7 -4h2l10 -6l24 -32q8 -13 20 -22q19 -7 1 -7q-28 -1 -38 -4q-27 -8 -36 -21l-18 -8l-37 -29q-16 -12 -31 -33
q-17 -26 -28 -48q-4 -5 -7 -15l-2 -13q-2 -2 0 0q-8 -29 -15 -42l-5 -16l1 -23q0 -24 -1 -28l-4 -16q-1 -47 1 -79q16 -154 152 -177h11l41 12q20 5 26 7q28 15 44 52l48 92q9 16 10 22l11 25q6 44 -2 167l-5 44l-2 46q3 2 4 11l3 50v44l-10 25l-2 13l7 21q23 30 45 30
q16 0 48 -21q-2 2 11 -8q2 -1 11 -6q10 -7 14 -8l4 -34q1 -12 2 -100l2 -62q-3 -8 -3 -13q-1 -12 0 -24l4 -92q2 -51 5 -78q7 -77 35 -115q29 -41 104 -41h14q34 1 64 28q30 25 54 56q14 18 24 34l33 52l15 40l2 35q0 5 2 14l5 34l2 27l1 51l-2 59l-9 67q-1 4 -6 16l-33 56
l-6 8q-14 10 -9 15l19 -4q23 -5 35 -19q27 -10 66 -46l22 -31q37 -51 59 -111q3 -8 6 -21q3 -6 6 -17l6 -31q2 -20 0.5 -40.5t-8.5 -62.5q0 -7 -1 -14l-8 -25q-1 -4 0 -6q0 -62 -27 -113q-13 -22 -24 -37l-5 -8q-6 -9 -8 -11l-7 -11l-37 -34q-32 -53 -78 -70q-21 -9 -40 -12
l-15 -1h-20q-10 0 -87 53l-22 14l-42 40q-22 22 -61 44q-91 -158 -165 -163h-26q-29 0 -71 4l-104 26q-59 19 -112 56q-61 42 -108 121q-53 87 -74 222v37z" />
    <glyph glyph-name="X" unicode="X" horiz-adv-x="970" 
d="M38 75q3 7 8 15q13 22 45 44q9 0 54 34q53 43 78 85l26 37q7 3 19 16l22 29q14 16 21 30q8 15 8 22l-5 11q-4 11 -10 24q-18 37 -39 70q-27 46 -58 79q-37 41 -75 60l-20 24v6q4 13 23 19l15 6q10 5 18 14q59 45 121 38q13 -14 37 -52l42 -70q25 -42 42 -61
q22 -27 35 -27q12 0 45 31l55 52q19 13 37 27q25 17 49 29q61 34 100 34q37 0 62 -19q6 -4 10 -10q3 -2 9 -8l4 -4l12 -12l27 -54v-28q-59 -75 -104 -75l-49 24q-25 13 -26 14q-4 3 -7 9l-4 13q-2 8 -5 12q-5 5 -12 5q-3 0 -12 -5q-6 -4 -21 -12l-53 -32q-12 -8 -22 -17
q-33 -29 -50 -62v-16l6 -7l24 -52q16 -33 32 -61q43 -76 89 -119q80 -67 147 -89q26 -8 55 -11q11 0 24 -1h24q0 -4 -8 -17l-14 -16l-41 -30q-33 -15 -93 -21l-100 -8q-3 0 -19 6l-22 9q-34 0 -91 88q-28 32 -66 86l-56 101l-14 8h-7l-14 -8l-33 -29l-15 -8l-42 -45
q-9 -11 -22 -33q-12 -23 -12 -29q0 -12 18 -43q19 -30 19 -46q0 -8 -3 -13q-3 -10 -13 -17q-13 -9 -38 -16q-29 -8 -73 -12h-20l-28 8q-15 0 -33 4q-19 4 -22 11v8z" />
    <glyph glyph-name="Y" unicode="Y" horiz-adv-x="975" 
d="M537 -282q0 6 1 17.5t2 32.5l3 23q1 22 2 43l4 12q1 5 2 7l14 48v7q15 47 15 110v22l-10 23l-10 21q-12 11 -16 19l-44 18q-29 12 -45 22q-22 13 -35 26l-53 57l-28 38q-4 4 -8 11q-4 5 -4 6l-18 44l-22 30l-9 15h1q0 2 -8 10l-8 8q-2 3 -3 5l2 -4q-34 44 -60 80l-9 14
q-5 5 -8 12l-14 21q-23 34 -63 65q-2 5 -10 8l-6 2q-5 2 -7 3q-17 7 -37 25q0 7 4 15q5 10 13 19q24 24 70 37l32 15l13 8q11 6 14 6h21q68 -42 71 -92l6 -11q34 -55 66 -109l70 -126l25 -51l17 -18q13 -11 22 -28l39 -29q0 -2 18 -13q25 -16 42 -18l27 6q6 13 13 29
q5 5 5 10l32 99q15 65 23 97q8 34 8 60l1 45q-4 6 -4 11q-5 4 -5 6l-45 27q-31 17 -31 47q0 23 26 36q35 20 121 13l64 -1q7 4 15 6q7 2 15 4l22 3q28 0 28 -26q0 -40 -53 -77l-23 -22q-3 -2 -4 -10q-1 -5 -1 -9v-47q0 -15 -1 -25q-2 -27 -8 -56q-15 -67 -68 -208l-9 -64
q-8 -31 -16 -61q-10 -36 -24 -69l-28 -144l-32 -98q-11 -24 -31 -48l-7 -14q-11 -16 -19 -26q-12 -18 -21 -18q-3 0 -13 4t-11 7v7z" />
    <glyph glyph-name="Z" unicode="Z" horiz-adv-x="846" 
d="M564 19q-46 11 -92 11q-84 0 -159 -28l-43 -9l-22 1q-3 5 -10 8q-3 0 -8 1l-8 2q-25 2 -41 17v13q0 7 5 23q3 9 7 16q4 8 9 12l20 48l4 9l34 85l27 78q12 35 27 69l53 112q2 9 8 23q5 16 11 20l21 50h-1l6 10q-24 8 -54 11q-11 0 -24 1l-83 2l-28 -6l-13 -25l-17 -15
q-3 -2 -28 -13l-21 -7q-12 -2 -17 -2h-11q-7 1 -15 2q-24 6 -44 16q-58 31 -58 92q9 24 17 33q4 8 12 12l24 15l30 3l23 8q10 4 19 4h10q2 0 9 -3q3 -1 11.5 -2t10.5 -2q28 -9 45 -11h19q14 -2 29 -4l22 -1h169l17 3h81l28 -3l52 1q33 2 40 3q10 -1 21 -3l8 -4q7 0 9 -4
q3 -5 3 -17v-13l-37 -49l-4 -2q-3 -1 -5 -1q-8 -3 -14 -3l-34 4l-32 -14q-13 -30 -13 -31l-22 -55q-52 -118 -86 -196l-16 -34q-8 -13 -8 -16l-16 -38l-14 -30q-5 -4 -8 -16q-5 -14 -5 -30q0 -6 2 -8l182 5l127 -7q5 0 17 -3l18 -7l10 -7l16 -25q0 -39 -5 -60
q-6 -17 -16 -27l-23 -18q-17 -14 -30 -31q-15 -8 -29 -20l-21 -17q-21 -19 -34 -19h-19q-8 0 -14 2q-8 0 -16 1q0 17 4 29l5 12l10 47z" />
    <glyph glyph-name="bracketleft" unicode="[" 
 />
    <glyph glyph-name="backslash" unicode="\" horiz-adv-x="661" 
d="M157 446l-9 28l-3 24q-6 29 -18 50l-10 16q-5 8 -7 13q0 -2 -1 -2q-2 0 -10 16l-35 67q-7 15 -8 15v-2l-21 21q-5 4 -5 8h40q53 0 79 -7q37 -11 40 -41q4 -10 7 -14l13 -18q0 -14 12 -52q9 -30 28 -80l60 -161q11 -23 21 -49l30 -75q6 -11 13 -26l12 -26q15 -33 28 -49
l41 -43q1 0 8 -5l8 -5l15 -6q1 -1 6 -2l6 -2l20 -1q5 -2 5 -1h7q6 -1 9 -3q4 -3 4 -8q0 -3 -2 -10l-4 -14q-12 -1 -24 -4l-18 -4q-19 -5 -28 -5h-27q-11 2 -29 7l-17 5l-12 5l-9 8h-8q-1 1 -1 2l-1 3l-9 11l-47 93q-26 52 -44 90q-23 48 -41 90q-21 47 -38 93z" />
    <glyph glyph-name="bracketright" unicode="]" 
 />
    <glyph glyph-name="asciicircum" unicode="^" horiz-adv-x="23" 
 />
    <glyph glyph-name="underscore" unicode="_" horiz-adv-x="810" 
 />
    <glyph glyph-name="grave" unicode="`" 
 />
    <glyph glyph-name="a" unicode="a" horiz-adv-x="573" 
d="M180 210l-51 -80v-15l4 -13q8 -26 38 -26q47 18 65 46q6 10 12 25l6 20l4 8q0 5 -7 27q-3 10 -6 16q-3 8 -5 8h-20l-11 -6zM176 234h3q10 6 24 21l22 29v24l-7 26l-30 84l-20 36q-6 7 -9 19q-2 9 -2 17l1 9l5 12l8 8l2 2l2 2q4 5 8 9q5 5 9 8l8 4l22 2l13 -3
q45 -26 63 -84h-1q5 -13 8 -35q1 -1 1 -2v-3q0 -2 1 -4q1 -5 1 -9q2 -10 5 -17l13 -39l5 -32q3 -3 3 -9q9 -52 17 -61q10 -51 26 -78q12 -20 45 -51l51 -36q3 -1 11 -7l18 -12q43 -14 43 -29t-37 -25q-34 -10 -79 -10q-33 0 -65 12l-16 7l-41 41q-11 10 -20 26l-11 19h-2
q-1 0 -5 -3l-24 -19l-19 -27q-2 -1 -10 -10l-6 -6q-3 -3 -5 -4l-56 -40q-2 -2 -13 -7q-12 -4 -16 -4h-30q-46 11 -52 61l-6 49l7 9q6 13 15 25l30 28q5 5 5 8l23 16l16 16q5 3 44 34q2 2 4 3z" />
    <glyph glyph-name="b" unicode="b" horiz-adv-x="627" 
d="M178 496l18 11q2 9 55 34q22 10 30 10l34 -6l37 -12l38 -23l32 -30q11 -13 14 -22l3 -17v-11q-5 -20 -18 -35l-64 -57l-3 -5v-1l-15 -6q53 -9 90 -26q46 -21 71 -43q6 -4 11 -11l42 -61q5 -22 6 -29t2 -19l-4 -14l-3 -18q-3 -9 -8 -18q-4 -8 -8 -12l-28 -40l-5 -2l-11 -5
q-8 -1 -12 -4q-7 -2 -10 -4l-16 -6q-33 -10 -64 -15q-21 -4 -46 -6l-20 1l-25 -2q-10 0 -15 -1h-9l-80 7l-8 -1l-30 5q-20 6 -24 7q-1 1 -9 -7q-15 -16 -28 -14t-11.5 30.5t-7 141.5t-5.5 196.5t0 98t-10 19.5t-36 13q-11 10 27.5 29t70.5 24.5t39 3.5t13 -41v-7zM193 263
l-13 -7q-2 -95 0 -146v-55q4 -15 27 -25q30 -13 77 -8l40 7l7 6l10 3l20 15q12 8 19 14q3 3 5 6l17 13l10 11l11 26q1 0 1 5l3 38v3l-1 4l-3 19q-2 12 -6 20q-6 11 -17 31q-2 2 -6 5q-2 1 -5 3l-24 19l-1 1q-68 14 -120 3zM180 282l39 17q18 9 21 11q23 13 33 21l24 20
l12 14q8 7 14 19l16 17v3q-1 6 -2 9t-3 9.5t-4 8.5l-5 8l-21 26l-36 27l-23 9l-13 1l-51 -54q1 -47 0 -128q-1 -20 -1 -38z" />
    <glyph glyph-name="c" unicode="c" horiz-adv-x="559" 
d="M35 283l2 6l4 12q4 8 5 14q3 7 4 11l7 17q16 31 35 56q13 17 30 33l15 11l18 17q7 6 10 10l7 5l66 37l5 6l26 11l19 4q5 0 46 8q6 3 10 4h41q2 0 8 -2l38 -25l40 -32q4 -3 10 -10l11 -13q12 -16 14 -15v-16q0 -8 -25 -27q-28 -21 -55 -21l-24 -2l-20 5q-1 1 -6 4l-18 13
l-8 13q-5 1 -9 5l-17 12q-5 3 -10 5l-15 9q-16 17 -42 17q-34 0 -65 -33l-23 -34v-11l-5 -10l-3 -30q-2 -17 -2 -29q0 -5 1 -11l-2 -26l2 -20l14 -40q0 -1 4 -7l29 -50q1 -1 1 -2l2 -2l3 -4l19 -24q12 -14 22 -22q13 -10 38 -29q3 -2 9 -3q2 -1 6 -1l33 -10q2 -2 3 -2
q23 -5 55 -8h75q0 -17 -51 -41q-55 -26 -103 -26q-52 0 -90 15q-8 3 -17 8l-96 41q-28 16 -34.5 24t-12.5 25l-14 18l-9 27q-3 21 -7 35q-4 13 -4 20v80z" />
    <glyph glyph-name="d" unicode="d" horiz-adv-x="562" 
d="M33 151q1 13 4 29q3 10 7 27q5 17 7 25q2 13 2 22q2 9 13 25q9 14 24 32q29 34 45 46q2 1 8 6q2 2 7 5l47 38q11 8 32 18q20 11 26 11l26 16q2 3 16 12q1 4 1 8l-1 7l-11 19q-2 4 -10 13l-10 12q-30 36 -62 65q-25 23 -46 38l-47 24l-4 6v3l5 7q1 0 9 5l10 5l32 19
q5 6 27 6h13q7 0 13 -1q15 -2 29 -7q27 -17 66 -64l21 -19q1 -3 9 -13l33 -41q8 -11 11 -14l39 -60l19 -23l13 -22q1 -1 8 -9q6 -8 19 -29q13 -28 17 -57q3 -18 3 -51q0 -22 -4 -39l-2 -32l-15 -29q0 -3 -9 -16q-9 -12 -20 -26l-22 -25q-11 -10 -15 -10l-36 -40l-62 -48
q-6 -10 -51 -31l-38 -11q-5 -2 -7 -2h-17q-8 0 -18 2l-35 9q-10 2 -17 2l-12 6l-20 15q-10 7 -15 10q-7 5 -9 5l-33 68l-4 8l-9 32v13zM127 196q0 -4 3 -12l10 -33q2 -8 2 -10l28 -37l19 -17l39 -23l29 -8q7 -1 10 -1h4q60 6 90 43q1 3 6 12q5 12 6 13l16 28l30 60v43
q0 38 -4 57q-3 9 -8 22l-11 29l-16 17q-11 12 -20 23l-15 15l-17 9l-14 -1l-12 -9q-6 -5 -14 -7q-2 -1 -6 -2h-6q-7 -2 -14 -7q-10 -7 -22 -19l-12 -10q-8 -7 -20 -14l-6 -2q-4 -1 -6 -3q-8 -4 -25 -36q-2 -5 -5 -8l-25 -28q-14 -21 -14 -40v-44z" />
    <glyph glyph-name="e" unicode="e" horiz-adv-x="559" 
d="M153 310q0 -3 1 -7l-2 -22l2 -20l14 -40q0 -1 4 -7l29 -50q1 -1 1 -2l2 -2l3 -4l19 -24q12 -14 22 -22q13 -10 38 -29q3 -2 9 -3q2 -1 6 -1l33 -10q2 -2 3 -2q23 -5 55 -8h75q0 -17 -51 -41q-55 -26 -103 -26q-52 0 -90 15q-8 3 -17 8l-96 41q-28 16 -34.5 24t-12.5 25
l-14 18l-9 27q-3 21 -7 35q-4 13 -4 20v80l2 6l4 12q4 8 5 14q3 7 4 11l7 17q16 31 35 56q13 17 30 33l15 11l18 17q7 6 10 10l7 5l66 37l5 6l26 11l19 4q5 0 46 8q6 3 10 4h41q2 0 8 -2l51 -11q41 -17 33 -30.5t-26.5 -11.5t-77.5 -2l-64 -5q-26 -18 -52 -18q-34 0 -65 -33
l-23 -34v-11l-5 -10l-1 -10q3 1 6 1q73 8 175 12.5t135.5 8.5t35.5 -2.5t-16 -19t-26.5 -20.5t-14.5 -10t-53.5 -5.5t-190.5 -17.5q-31 -3 -55 -4z" />
    <glyph glyph-name="f" unicode="f" horiz-adv-x="491" 
d="M172 502q2 -3 12 -3q16 0 86 20q5 0 14 2l18 2q26 5 39 5h24q23 0 57 -27q31 -24 31 -30q0 -5 -5 -16t-7 -14l-51 -43q-14 -5 -25 -5q-27 0 -58 18l-27 16q-19 10 -32 16q-9 0 -26 -2q-20 -2 -29 -2q-8 0 -17 2q3 -80 2 -267q-1 -14 -1 -27h1q0 -6 13 -6q16 0 86 20
q5 0 14 2l18 2q26 5 39 5h24q23 0 57 -27q31 -24 31 -30q0 -5 -5 -16t-7 -14l-51 -43q-14 -5 -25 -5q-27 0 -58 18l-27 16q-19 10 -32 16q-9 0 -26 -2q-20 -2 -29 -2q-11 0 -23 3v-7q-2 -155 0 -206q1 -67 -2 -75t-19.5 -20.5t-31 -38.5t-27.5 -23t-11.5 50t-7 190t-5.5 281
t0 161.5t-10 31t-35 21.5q-11 17 27 48.5t69.5 40.5t38.5 6q5 -3 9 -42z" />
    <glyph glyph-name="g" unicode="g" horiz-adv-x="565" 
d="M388 9q-42 -16 -79 -16q-52 0 -90 15q-8 3 -17 8l-96 41q-28 16 -34.5 24t-12.5 25l-14 18l-9 27q-3 21 -7 35q-4 13 -4 20v80l2 6l4 12q4 8 5 14q3 7 4 11l7 17q16 31 35 56q13 17 30 33l15 11l18 17q7 6 10 10l7 5l66 37l5 6l26 11l19 4q5 0 46 8q6 3 10 4h41q2 0 8 -2
l38 -25l40 -32q4 -3 10 -10l11 -13q12 -16 14 -15v-16q0 -8 -25 -27q-28 -21 -55 -21l-24 -2l-20 5q-1 1 -6 4l-18 13l-8 13q-5 1 -9 5l-17 12q-5 3 -10 5l-15 9q-16 17 -42 17q-34 0 -65 -33l-23 -34v-11l-5 -10l-3 -30q-2 -17 -2 -29q0 -5 1 -11l-2 -26l2 -20l14 -40
q0 -1 4 -7l29 -50q1 -1 1 -2l2 -2l3 -4l19 -24q12 -14 22 -22q13 -10 38 -29q3 -2 9 -3q2 -1 6 -1l33 -10q2 -2 3 -2q23 -5 55 -8h1l7 55l3 1l12 21q6 5 9 6l30 15q14 7 22 7h12l19 -23v-47q0 -5 -5 -13q-5 -34 -7 -58q-1 -18 -5 -48v-19q0 -10 -1 -20q-1 -12 -3 -16
l-10 -58q-2 -1 -5 -10l-2 -8l-21 -40q-1 -5 -5 -13q-4 -10 -10 -18q-16 -24 -35 -24h-19q-17 0 -17 22q0 52 15 112l12 64l1 47q2 11 2 14z" />
    <glyph glyph-name="h" unicode="h" horiz-adv-x="624" 
d="M75 144q-10 103 -10 174q0 246 6 305l-1 20q0 5 -2 12l-2 16l-2 4q-1 2 -9 7l-25 16q-6 4 -10 7q-9 9 -15 17q0 4 55 44v-1l75 37h24q29 0 29 -49q0 -21 -1 -38l-4 -48q-1 -11 -1 -20v-53q0 -23 -4 -57q-4 -33 -4 -51v-56l35 14l46 28l34 21q30 15 69 22h9q17 -4 57 -29
q36 -23 49 -36l15 -16q0 2 1 3l53 -72q5 -11 13 -27l14 -26q14 -30 14 -45q0 5 -23 -106l-39 -67l-2 -10h-2l-16 -24q-37 -44 -61 -44q-18 0 -14 27v9q0 3 4 11l4 9h-1l35 50q7 14 7 18q0 42 -22 104l-24 43q-3 5 -5 7l-53 73l-20 26q-15 19 -39 29q-48 -2 -55 -9l-20 -24
q-5 -7 -12 -14l-22 -29l-12 -24q-3 -6 -4 -9l1 -46l5 -36v-58l-1 -14q0 -28 3 -40l4 -9l8 -8q3 -4 6 -10q5 -7 10 -17v-29q0 -25 -39 -46q-35 -20 -54 -20q-5 0 -9 1q-6 1 -10 4q-13 9 -18 28z" />
    <glyph glyph-name="i" unicode="i" horiz-adv-x="246" 
d="M19 475q-11 12 27.5 34.5t70.5 29t39 4t12.5 -49t3 -216.5t-1 -217.5t-1.5 -53.5t-20 -15t-32 -27.5t-28 -16.5t-11.5 36t-7 136.5t-5.5 201.5t0 116t-10 22.5t-36 15.5z" />
    <glyph glyph-name="j" unicode="j" horiz-adv-x="262" 
d="M83 120q-9 102 -6 201t0 116t-10 22.5t-36 15.5q-11 12 27.5 34.5t70.5 29t39 4t12.5 -49t3.5 -216.5q-2 -132 9 -268q2 -82 2 -147v-19q0 -42 -37 -97q-21 -29 -45 -46q-28 -19 -60 -19q-2 0 -2 1q0 4 5 14l6 11v5l4 5v13l3 5q3 5 5 10q7 17 7 30q0 19 1 34l5 43
q3 32 5 61q1 19 1 41q-4 8 -3 29q0 12 -1 34q0 4 -1 8z" />
    <glyph glyph-name="k" unicode="k" horiz-adv-x="610" 
d="M208 190q-21 25 -28 25q-5 0 -8 -17q0 -38 7 -68q5 -23 15 -42l7 -14q2 -2 4 -6l3 -5q7 -11 7 -17q0 -31 -30 -46q-10 -5 -27 -11l-3 -1q-2 0 -3 -1l-16 -6q-49 0 -69 46q-15 35 -15 97l7 231q0 4 1 7q-5 21 -5 53l2 78q0 39 -7 64q-9 32 -30 50q2 3 4 9l3 8q5 9 12 12
l15 14q12 10 26 19q40 23 77 23h7l13 -10q13 -16 13 -144v-19q0 -10 -3 -23l-4 -19q-1 -4 -1 -7q-4 -18 -6 -33q-3 -21 -3 -42q0 -37 3 -54q3 -14 9 -14q3 0 8 4l16 18l5 6q7 7 12 11q15 11 40 34l42 37q2 2 7 5l1 1l2 1l20 13q20 13 36 22q46 24 75 24q80 0 80 -71
q0 -31 -19 -57q-20 -27 -47 -27q-29 0 -56 31q-3 1 -5 6l-3 7v2q-2 6 -4 9q-4 4 -9 4q-2 0 -9 -4l-32 -18q-9 -5 -12 -6l-2 -2q-2 -1 -3 -2l-7 -4q-9 -7 -17 -14q-24 -20 -38 -44v-11q8 -13 21 -40l25 -47q15 -27 30 -47q19 -24 39 -41l36 -33q36 -27 80 -36q17 -3 37 -4
q9 -1 18 -1h18q0 -3 -6 -12l-11 -12l-31 -22l-9 -3l-11 -4q-16 -5 -27 -5l-27 1q-3 -1 -8 -1q-5 -1 -7 -1l-8 -1q-8 0 -11 1q-75 21 -119 67q-21 21 -42 53z" />
    <glyph glyph-name="l" unicode="l" horiz-adv-x="526" 
d="M46 2q0 142 5.5 243t2.5 201.5t-10.5 154t-13 77.5t-2.5 49t29.5 44t41 19t32.5 -24t22 -77.5t-5 -182t-10 -196.5t-4 -113t19 -76t69.5 -42.5t78.5 -11.5t65 1.5t59 1.5t50 3.5t10 -14t-57.5 -39t-90 -26.5t-99 0t-92.5 1.5t-100 6.5z" />
    <glyph glyph-name="m" unicode="m" horiz-adv-x="967" 
d="M35 226q6 101 40 165q30 59 73 90q38 28 83 41l77 20q31 3 55 3h19q58 -4 140 -121q28 16 43 33l29 29l17 11q55 39 63 39h14l13 -1q14 -2 31 -9q36 -12 65 -51l31 -26l7 -8q1 -2 7 -9l5 -5q9 -11 20 -28q25 -38 30 -84q0 -1 1 -4l8 -19q1 -5 1 -10q9 -32 12 -47t2 -30
l-2 -23q-1 -8 -2 -13q-3 -10 -4 -16q-12 -44 -36 -82l-16 -23q-27 -27 -46 -35q-9 -9 -25 -13l-15 -3q-4 4 5 11l5 5l29 47q4 9 4 12l2 50l-3 44l-5 38l-4 20l-7 25q-2 7 -2 11l-5 26l-14 30l-29 38q-10 12 -21 26q-22 23 -46 42q-26 19 -60 15h-11q-58 0 -78 -30
q-17 -28 -17 -86q0 -20 2 -58l4 -68q0 -9 2 -18q1 -4 3 -10l5 -46q4 -65 4 -74v-26q-3 -1 -9 -6q-7 -3 -8 -4q-10 -7 -9 -6q-22 -16 -34 -16q-18 0 -38 23l-7 15v10l7 19l-4 32l-6 37q-2 7 -4 9l-3 34l1 32q-3 92 -10 125l-14 57l-34 45q-25 29 -55 40q-4 2 -20 6l-33 8h-9
q-102 -17 -110 -135q0 -23 5 -58l7 -33l2 -17l4 -12q7 -10 15 -31q-1 2 0 0l4 -10q2 -7 5 -11q11 -17 26 -36q14 -16 25 -25l32 -21l14 -6q8 -10 38 -13q8 -2 28 -3q14 0 0 -5q-7 -6 -13 -16l-16 -24l-8 -5v0q-7 -4 -5 -3q-17 -8 -19 -14l-53 -13l-16 6q-14 1 -30 8l-10 5
l-15 7l-18 6l-19 17l-22 20q-6 6 -7 10l-6 12l-17 23q-7 8 -23 58q-7 16 -9 36z" />
    <glyph glyph-name="n" unicode="n" horiz-adv-x="751" 
d="M176 395v-111q-3 -165 -4 -225.5t-4 -66.5t-18 -22t-29 -28t-26.5 -10t-11 35t-1 125.5t1 198t-3.5 134t-14 33.5t-35 15q-11 12 26.5 33.5t69 28t38.5 4.5q5 -2 9 -25q35 -21 123 -118q129 -146 203 -185q52 -47 74 -69q0 19 -1 41q-3 49 0 129t-4.5 109t-13.5 34.5
t-31 15.5q-10 12 5 32.5t71 29t62 6t11 -49t2.5 -185.5t-1 -186.5t-1 -53.5t-1.5 -36.5t-27.5 -32.5t-43.5 9q-7 5 -12 16q-12 11 -26 27q-41 47 -121.5 102t-147 119t-108.5 114q-5 7 -10 13z" />
    <glyph glyph-name="o" unicode="o" horiz-adv-x="661" 
d="M29 258v7q0 90 83 183q41 47 90 73q55 30 113 30q41 0 79 -15l38 -11q145 -52 173 -213v-52l-5 -30q-7 -37 -30 -73q-19 -30 -51 -60q-25 -24 -59 -48q-12 -9 -28 -20l-25 -17l-55 -15q-27 -6 -71 -6q-58 0 -112 26l-19 18q-77 72 -95 113l-13 32q-8 20 -9 33l-1 15
q0 5 -1 10q0 6 -1 12q-1 4 -1 8zM143 359q-10 -24 -4 -42l5 -34q0 -3 2 -9l13 -34l35 -63q2 -2 19 -31l31 -33q12 -14 36 -24l33 -14q4 -3 18 -6q12 -3 37 0l45 10q17 9 23 11l10 5q6 4 11 9q6 7 15 17l11 21q21 43 21 74v17q-1 11 -2 12q-1 4 -6 13l-24 48l-26 47l-21 33
q-5 6 -23 18q-17 12 -40 26q-26 14 -45 24q-33 3 -42 3q-14 -1 -28 -3q-6 0 -13 -2q-9 -3 -18 -9q-34 -14 -51 -44z" />
    <glyph glyph-name="p" unicode="p" horiz-adv-x="577" 
d="M197 462l24 17q3 13 65 54q28 14 39 14l42 -9l51 -22l48 -33l40 -43q14 -18 17 -30l5 -24v-16q-7 -29 -23 -49l-80 -82l-5 -7v-1l-123 -80l-4 4l-10 19v13l2 7l13 10q5 2 9 5q5 5 7 12l34 38l16 20q10 9 17 25l20 24v5q-1 8 -2 12t-3.5 13t-4.5 13l-7 11l-26 37l-46 39
l-30 12l-16 1l-67 -77q1 -60 0 -155q-3 -188 -1.5 -275t-1.5 -93.5t-21 -16.5t-34 -30.5t-30 -18.5t-12.5 39.5t-7.5 185.5t-5.5 257.5t0 128t-10.5 25t-38 17.5q-12 13 29 38t75 32t41.5 4t13.5 -53q0 -8 1 -17z" />
    <glyph glyph-name="q" unicode="q" horiz-adv-x="587" 
d="M418 -214q0 59 -1.5 92t-4.5 82v10l-1 39q-2 39 -2 69l1 5h-10q-3 0 -5 -2l-13 -7q-39 -28 -107 -45h-1q-28 -10 -57 -10q-16 0 -29 1q-18 3 -33 8q-41 16 -65 54l-28 45q-21 50 -21 82v5q1 68 24 132q11 27 27 56q12 25 31 53q13 21 53 54q42 34 61 39h9q17 3 38 3
q17 0 37 -3l36 -6l20 -3l19 -3q23 -3 43 -3l5 1q8 0 35 -14q32 -16 39 -30v-12q-5 -8 -5 -10q0 -9 4 -20v-14q-14 -42 -14 -101q0 -23 2 -52l9 -110q2 -31 2 -55v-7q0 -27 4 -61l1 -7q0 -4 1 -6q1 -7 1 -12q2 -14 2 -25q-4 -155 -11 -179l-11 -23l-9 -11q-19 -21 -34 -34
q-5 -19 -16 -19h-1q-25 0 -25 16v38zM132 300q0 -6 1 -16l2 -50l3 -15q14 -34 25 -52l11 -18q3 -5 7 -11q4 -8 11 -15q15 -20 33 -30l17 -8q7 -3 21 -3q34 0 84 24q44 18 53 40q4 39 7 76q2 27 3 59l-1 21v62l-2 13l-2 18l1 32q-27 47 -147 47q-38 0 -78 -53
q-40 -52 -48 -106z" />
    <glyph glyph-name="r" unicode="r" horiz-adv-x="661" 
d="M353 187q3 -2 7 -4l29 -19q26 -17 52 -35q35 -24 76 -55q16 -15 40 -29l15 -8l9 -6q25 -18 40 -16t22 -9q2 -3 3 -8l-3 -6l-9 -9l-37 -14q-4 1 -9 0h-11q-16 0 -37 6l-31 6l-36 13l-2 1q-3 2 -5 3q-7 3 -11 6l-26 17l-8 6q-31 23 -83 60l-65 45l-48 37l76 39q2 3 3 7
l33 38l16 21q9 9 17 26l19 25v5q-1 7 -2 11.5t-3.5 14t-4.5 13.5l-6 12l-27 37l-44 40l-30 12l-16 2l-66 -80q1 -49 0 -121q-3 -170 -1.5 -249t-1.5 -85t-20 -15t-32 -27.5t-28 -16.5t-11.5 36t-7 168t-5.5 233t0 116t-10 22.5t-36 15.5q-11 12 27.5 34.5t70.5 29t39 4
t13 -48.5q1 -11 1 -26l24 17q3 14 64 56q28 15 38 15l42 -9l50 -23l47 -34l40 -44q14 -18 17 -31l4 -25v-16q-6 -31 -22 -51l-80 -84l-4 -7l1 -1z" />
    <glyph glyph-name="s" unicode="s" horiz-adv-x="507" 
d="M85 81l1 6l31 54q6 3 19 -6q14 -2 16 -2q5 0 11 -6l50 -28l12 -8l8 -4q66 -18 95 -18q59 5 46 60v0q-3 40 -22 55q-9 7 -49 14l-36 6l-27 5l-77 5q-3 0 -18 4q-12 4 -18 7q-28 11 -43 21l-21 22q-15 13 -25 27q-5 21 -7 36q-1 10 -1 24l1 7q-2 10 6 58l9 17q2 4 3 8l7 10
l4 13q1 4 3 10l3 5l44 37l6 7l9 7q8 5 18 6l33 7q7 1 14 3l20 7q4 1 11 1h5q38 0 93 -30q47 -26 53 -51l2 -6q16 -71 -44 -64h-4q-12 0 -31 14l-70 31q-12 5 -15 5l-17 5l-22 5q-12 4 -21 1.5l-9 -2.5l-9 -8l-7 -13q-2 -3 -1 -6l-8 -17q-5 -15 -5 -38l9 -22l2 -3q4 -6 7 -6
l17 -15l21 -11l14 -4q10 -3 24 -6l22 -4q10 -2 16 -2l91 -10q44 0 68 -16l16 -15q4 -6 10 -13q1 -1 18 -31l18 -55q8 -34 -36 -90q-44 -55 -56 -55l-16 -11q-20 -14 -34 -20q-14 -5 -40 -8l-32 -3l-16 6l-24 2q-7 1 -9 2l-41 16q-18 8 -20 9l-33 25q-6 5 -12 11q-6 5 -9 17
q0 3 -1 9z" />
    <glyph glyph-name="t" unicode="t" horiz-adv-x="525" 
d="M193 464h-12q-40 0 -61 -4.5t-60 -26.5q-22 -10 -36 -5t5 35t75.5 59t106 18t88.5 -19.5t77 -1.5t69.5 15t35.5 15.5t2.5 -22.5t-28 -53t-66.5 -21q-31 2 -75 5q-8 -94 -5 -180q3 -108 6 -148t29.5 -46.5t52 -6.5t25.5 -16t-45.5 -43.5t-85 -27.5t-71 21t-31.5 65.5
t3 136.5t5 153q1 44 -4 98z" />
    <glyph glyph-name="u" unicode="u" horiz-adv-x="686" 
d="M534 84q0 25 -1 62q-4 109 -6 196t-5 103.5t-10 22t-35 15.5q-11 12 27 33.5t69 28t38 4t12.5 -48t3 -210.5t-1 -211.5t-2.5 -76t-20 -27.5t-31 9t-26 20q-7 5 -9 12q-47 -26 -88 -27q-70 -1 -127 8.5t-122.5 51.5t-85 80t-23.5 95t-3 115t-1 77.5t-5.5 31t-13.5 13
t-16.5 3.5t-18.5 26q15 27 35.5 36.5t55.5 12.5t52 4t22.5 -28.5t6 -67.5t-1.5 -99.5t0.5 -130t46 -107t110.5 -53t125 5.5q23 8 49 21z" />
    <glyph glyph-name="v" unicode="v" horiz-adv-x="614" 
d="M364 -14q-23 49 -60 111q-16 26 -37 59l-81 126q-24 37 -43 69q-25 41 -46 78q-24 41 -46 83v4l-2 5q-1 5 -9 5l-26 -1q0 -1 -5 2t-5 10l34 6q32 5 62 5q56 0 77 -34l1 -5q2 -7 8 -17l23 -38q6 -12 10 -22l4 -10q13 -26 29 -53q15 -24 33 -50l35 -48q2 -2 5 -7l9 -11
q2 -4 4 -6q11 -14 19 -25l38 -52l31 73q10 27 16 46q18 53 18 93q0 57 -35 105v4l-3 3q-9 9 -9 22q24 0 30 -4q32 3 47 10h-1q6 3 13 3l22 -7q23 -9 23 -18l1 -3q4 -25 4 -46q0 -19 -4 -31q-1 -4 -4 -10l-15 -28q-37 -83 -67 -171q-33 -96 -52 -179l-3 -4l-5 -10
q-2 -5 -4 -8q-3 -6 -6 -9q-8 -11 -19 -17z" />
    <glyph glyph-name="w" unicode="w" horiz-adv-x="958" 
d="M33 338q6 14 5 37q-1 27 3 35q1 2 2 5q6 10 12 19l14 23l5 12q0 4 6 11l19 20l18 17l16 6l14 8l10 5q15 7 28 8l16 6l54 -13q2 -6 19 -15q-1 1 6 -3h1l7 -5l18 -24q7 -10 15 -17q15 -5 1 -5q-21 -1 -28 -3q-21 -6 -28 -16l-13 -6l-29 -22q-11 -9 -23 -24q-13 -20 -21 -37
q-3 -4 -5 -11l-2 -10q-1 -2 0 0q-6 -22 -11 -32l-4 -12l1 -18q0 -18 -1 -21l-3 -12q-1 -36 1 -60q12 -116 115 -134h9l30 9q15 4 20 6q21 11 33 39l37 69q6 12 7 17l9 19q4 33 -2 127l-4 33l-1 35q2 2 3 8l2 38v33l-8 19l-1 10l5 16q18 23 34 23q13 0 36 -16q-1 1 9 -6
q2 -1 9 -5q7 -5 10 -6l3 -26q1 -9 2 -76l1 -46q-2 -6 -2 -10q-1 -9 0 -18l3 -70q2 -39 4 -59q5 -59 26 -87q22 -31 79 -31h11q25 1 48 21q23 18 41 42q11 14 18 26l25 39l11 31l2 26q0 4 1 11l4 26l2 20l1 39l-2 44l-7 51l-4 12l-25 43l-5 6q-10 7 -7 11l15 -3q17 -4 26 -14
q20 -8 50 -35l17 -24q28 -39 45 -83q2 -6 4 -16q2 -5 4 -13l5 -24q2 -15 0.5 -30.5t-6.5 -47.5q0 -5 -1 -11l-5 -19q-1 -3 0 -4q0 -47 -21 -86q-10 -16 -18 -27l-4 -6q-5 -7 -6 -9l-6 -8l-27 -26q-25 -40 -59 -53q-16 -7 -31 -9l-11 -1h-15q-8 0 -66 40l-17 11l-32 30
q-17 17 -46 34q-69 -120 -125 -124h-20q-22 0 -53 3l-79 20q-45 14 -85 42q-47 32 -82 91q-40 66 -56 169v28z" />
    <glyph glyph-name="x" unicode="x" horiz-adv-x="735" 
d="M29 57q2 5 6 12q10 16 34 33q7 0 41 26q40 32 59 64l20 28q5 2 14 12l17 22q10 12 16 23t6 16l-4 8q-3 9 -8 19q-13 28 -29 53q-21 35 -44 60q-28 31 -57 45l-15 18v5q3 9 17 15l12 4q7 4 13 10q45 34 92 29q10 -10 28 -39l32 -53q19 -32 32 -47q16 -20 26 -20q9 0 34 23
l42 40l28 20q19 13 37 22q46 26 76 26q28 0 47 -14q4 -4 7 -8q3 -2 7 -6l3 -3l9 -9l21 -41v-21q-45 -57 -79 -57l-37 18q-19 10 -20 11q-3 2 -5 7l-3 9q-2 6 -4 10q-4 4 -9 4q-2 0 -9 -4q-5 -4 -16 -10l-40 -24q-9 -6 -17 -13q-25 -22 -38 -47v-12l5 -5l18 -39
q12 -25 24 -47q33 -57 68 -90q60 -51 111 -67q20 -7 42 -9q8 0 18 -1h18q0 -3 -6 -12l-11 -12l-31 -23q-25 -12 -70 -16l-76 -6q-2 0 -14 4l-17 7q-26 0 -69 67q-21 24 -50 65l-42 76l-11 7h-5l-11 -7l-25 -21l-11 -7l-32 -34q-7 -8 -17 -25q-9 -17 -9 -21q0 -10 14 -33
t14 -35q0 -6 -2 -10q-2 -7 -10 -12q-10 -8 -29 -13q-22 -6 -55 -9h-15l-21 6q-12 0 -25 3q-15 3 -17 9v6z" />
    <glyph glyph-name="y" unicode="y" horiz-adv-x="738" 
d="M406 -214q0 5 1 13.5t2 24.5l2 18l2 32l3 9q0 4 1 6l11 36v5q11 36 11 84v16l-8 18l-7 16q-9 8 -12 14l-34 14q-21 9 -33 16q-17 10 -27 20l-40 43l-22 29q-3 3 -6 8q-2 4 -2 5l-14 33l-17 23l-7 11h1q0 2 -6 8l-6 6t-3 4l2 -3q-26 33 -45 60l-7 11q-4 4 -6 9l-11 16
q-17 26 -47 49q-2 4 -8 6l-4 2q-4 1 -6 2q-13 5 -28 19q0 5 3 11q4 8 10 15q18 18 53 28l24 11l10 6q8 5 11 5h16q51 -32 53 -70l5 -8q26 -42 50 -83l53 -95l19 -39l13 -14q9 -8 17 -21l29 -22q0 -1 14 -10q18 -12 31 -13l21 4q4 10 10 22q4 4 4 8l24 75q11 49 17 73
q6 26 6 46l1 34q-3 4 -3 8q-4 3 -4 5q-19 11 -34 20q-23 13 -23 36q0 17 19 27q27 15 92 10l48 -1q6 3 12 5q5 1 11 3l17 2q21 0 21 -20q0 -30 -40 -58l-18 -17q-2 -1 -3 -7q-1 -4 -1 -7v-36v-19q-1 -20 -6 -42q-11 -51 -51 -158l-8 -48q-5 -24 -12 -46q-7 -28 -18 -53
l-21 -109l-24 -74q-9 -18 -24 -36l-5 -11q-9 -12 -14 -20q-10 -13 -16 -13q-3 0 -10 3q-8 3 -9 5v5z" />
    <glyph glyph-name="z" unicode="z" horiz-adv-x="641" 
d="M427 15q-35 8 -70 8q-63 0 -120 -21l-33 -7l-16 1q-3 4 -8 6q-2 0 -6 1l-6 1q-19 2 -31 13v10q0 5 4 17q2 7 5 12q3 6 7 9l15 36l3 7l26 65l20 58q9 28 21 53l40 85q1 7 6 18q4 12 8 15l16 37h-1l5 8q-18 6 -41 8q-8 0 -18 1l-63 1l-21 -4l-10 -19l-13 -11q-2 -2 -21 -10
q-9 -3 -16 -5q-9 -2 -13 -2h-8l-12 2q-18 4 -33 12q-44 23 -44 70q7 18 13 25q3 6 9 9l18 11l23 2l17 6q8 3 15 3h7q2 0 7 -2q2 -1 8.5 -1.5t8.5 -1.5q21 -7 34 -8h14q11 -2 22 -3l17 -1h128l13 2h61l21 -2l40 1q25 1 30 2l16 -2l6 -3q5 0 7 -3q2 -4 2 -13v-10l-28 -38
l-3 -1q-2 -1 -4 -1q-6 -2 -10 -2l-26 3l-24 -11q-10 -22 -10 -23l-17 -41q-39 -90 -65 -149l-12 -26q-6 -10 -6 -12l-12 -29l-11 -22q-4 -3 -6 -12q-4 -11 -4 -24q0 -4 2 -6l138 4l96 -5q4 0 13 -3l13 -5l8 -5l12 -19q0 -29 -4 -45q-4 -13 -12 -20l-17 -14q-13 -11 -23 -24
q-11 -6 -22 -15l-16 -13q-16 -14 -26 -14h-14q-6 0 -11 1q-6 0 -12 1q0 13 3 22l4 9l8 36z" />
    <glyph glyph-name="braceleft" unicode="{" 
 />
    <glyph glyph-name="bar" unicode="|" 
 />
    <glyph glyph-name="braceright" unicode="}" horiz-adv-x="573" 
 />
    <glyph glyph-name="asciitilde" unicode="~" horiz-adv-x="737" 
 />
    <glyph glyph-name="sterling" unicode="&#xa3;" horiz-adv-x="795" 
 />
    <glyph glyph-name="section" unicode="&#xa7;" 
 />
    <glyph glyph-name="Agrave" unicode="&#xc0;" horiz-adv-x="757" 
d="M258 872q-3 15 -4 22q-2 9 -3 10q-3 4 -11 11l-17 16q-11 10 -19 15q-8 7 -12 7l-6 1q-8 0 -19 -2l-31 -5q-6 -1 -11 -1q-12 -2 -22 -2l-19 2q-5 0 -18 2l-15 3l-19 11l-15 15q-1 1 -2 7l-2 8l-1 14l41 36l32 16q2 2 11 5q7 3 11 3h6q0 -4 -2 -11q-10 -14 3 -27l6 -7
q5 0 14 -3l15 -4q15 -2 29 -4h20l16 3q18 4 33 7l21 4l26 -5l31 -16q20 -17 23 -20l11 -11q2 -2 5 -8l14 -31v-12q-1 -13 -6 -28q0 -7 -13 -30q-13 -24 -18 -31t-25 -36q-7 -10 -18 -19l-43 -27q-31 -15 -36 -15l-4 1v10q8 14 11 25q0 2 5 8l4 6q4 4 6 8q7 10 10 21
q5 12 6 30zM184 280l-67 -106v-20l5 -17q11 -33 50 -33q63 23 86 60q8 13 16 33l8 26l5 11q0 6 -9 35q-4 13 -8 21q-4 11 -6 11h-27l-14 -8zM179 312h4q13 7 32 27l29 37v32l-9 34l-40 111l-26 46q-8 10 -12 25q-3 12 -3 23l1 12l7 16l10 10l3 3q1 1 3 2q5 7 10 12
q7 7 12 11l11 5l29 3l17 -4q59 -35 83 -111h-1q6 -16 10 -45q2 -1 2 -3v-4q0 -2 1 -5q1 -6 1 -12q3 -13 7 -22l17 -52l7 -42q4 -4 4 -12q12 -67 22 -79q13 -67 34 -103q16 -26 60 -67l67 -48q4 -1 15 -8l23 -16q57 -18 57 -38t-49 -33q-45 -13 -104 -13q-44 0 -86 16l-21 9
l-54 54q-15 13 -26 33l-15 25h-3q-1 0 -6 -4l-32 -25l-25 -34q-3 -1 -13 -13l-8 -8q-4 -4 -7 -6l-74 -52q-2 -3 -17 -10q-16 -5 -21 -5h-39q-61 15 -69 81l-8 63l9 12q8 17 20 33l40 37q6 6 6 10l31 22l21 21q6 4 58 45q2 2 5 4z" />
    <glyph glyph-name="Aacute" unicode="&#xc1;" horiz-adv-x="756" 
d="M219 792q3 0 18 7l13 7q7 4 10 7l27 26q13 12 35 38l37 40q43 43 73 43h10q6 -1 11 -3q14 -5 14 -19q0 -7 -4 -15l-18 -34l-50 -57q-37 -45 -86 -68q-39 -20 -74 -20q-25 0 -44 7q-17 5 -17 9q0 3 6 8q5 4 11 7zM184 280l-67 -106v-20l5 -17q11 -33 50 -33q63 23 86 60
q8 13 16 33l8 26l5 11q0 6 -9 35q-4 13 -8 21q-4 11 -6 11h-27l-14 -8zM179 312h4q13 7 32 27l29 37v32l-9 34l-40 111l-26 46q-8 10 -12 25q-3 12 -3 23l1 12l7 16l10 10l3 3q1 1 3 2q5 7 10 12q7 7 12 11l11 5l29 3l17 -4q59 -35 83 -111h-1q6 -16 10 -45q2 -1 2 -3v-4
q0 -2 1 -5q1 -6 1 -12q3 -13 7 -22l17 -52l7 -42q4 -4 4 -12q12 -67 22 -79q13 -67 34 -103q16 -26 60 -67l67 -48q4 -1 15 -8l23 -16q57 -18 57 -38t-49 -33q-45 -13 -104 -13q-44 0 -86 16l-21 9l-54 54q-15 13 -26 33l-15 25h-3q-1 0 -6 -4l-32 -25l-25 -34
q-3 -1 -13 -13l-8 -8q-4 -4 -7 -6l-74 -52q-2 -3 -17 -10q-16 -5 -21 -5h-39q-61 15 -69 81l-8 63l9 12q8 17 20 33l40 37q6 6 6 10l31 22l21 21q6 4 58 45q2 2 5 4z" />
    <glyph glyph-name="Acircumflex" unicode="&#xc2;" horiz-adv-x="756" 
d="M226 813l-41 64q-16 -46 -39 -77q-29 -38 -65 -50l-13 4l-11 7l-5 9l-1 -1q-5 7 -5 12q0 3 1 5l5 11l2 8l40 27q16 19 33 53q12 23 27 59l18 49q8 20 11 20q8 0 24 -41q11 -56 49 -97t85 -47q35 0 63 23q32 26 33 67l-1 20l1 -2q31 -59 31 -98q0 -50 -29 -79
q-27 -25 -67 -27h-8q-53 0 -89 24q-24 22 -49 57zM184 280l-67 -106v-20l5 -17q11 -33 50 -33q63 23 86 60q8 13 16 33l8 26l5 11q0 6 -9 35q-4 13 -8 21q-4 11 -6 11h-27l-14 -8zM179 312h4q13 7 32 27l29 37v32l-9 34l-40 111l-26 46q-8 10 -12 25q-3 12 -3 23l1 12l7 16
l10 10l3 3q1 1 3 2q5 7 10 12q7 7 12 11l11 5l29 3l17 -4q59 -35 83 -111h-1q6 -16 10 -45q2 -1 2 -3v-4q0 -2 1 -5q1 -6 1 -12q3 -13 7 -22l17 -52l7 -42q4 -4 4 -12q12 -67 22 -79q13 -67 34 -103q16 -26 60 -67l67 -48q4 -1 15 -8l23 -16q57 -18 57 -38t-49 -33
q-45 -13 -104 -13q-44 0 -86 16l-21 9l-54 54q-15 13 -26 33l-15 25h-3q-1 0 -6 -4l-32 -25l-25 -34q-3 -1 -13 -13l-8 -8q-4 -4 -7 -6l-74 -52q-2 -3 -17 -10q-16 -5 -21 -5h-39q-61 15 -69 81l-8 63l9 12q8 17 20 33l40 37q6 6 6 10l31 22l21 21q6 4 58 45q2 2 5 4z" />
    <glyph glyph-name="Atilde" unicode="&#xc3;" horiz-adv-x="756" 
d="M397 904q1 -3 1 -6q1 -6 2 -7q-6 -70 -32 -100q-21 -26 -57 -26q-16 0 -38 5q-14 3 -39 12l-37 11q-20 5 -34 5q-21 0 -32 -11l-38 -31q6 74 28 105q17 28 48 28q16 0 37 -7q9 -3 20 -8q4 -1 10 -4l10 -4q6 -3 10 -4q6 -3 10 -4q11 -5 20 -8q23 -7 39 -7q48 0 71 65z
M184 280l-67 -106v-20l5 -17q11 -33 50 -33q63 23 86 60q8 13 16 33l8 26l5 11q0 6 -9 35q-4 13 -8 21q-4 11 -6 11h-27l-14 -8zM179 312h4q13 7 32 27l29 37v32l-9 34l-40 111l-26 46q-8 10 -12 25q-3 12 -3 23l1 12l7 16l10 10l3 3q1 1 3 2q5 7 10 12q7 7 12 11l11 5l29 3
l17 -4q59 -35 83 -111h-1q6 -16 10 -45q2 -1 2 -3v-4q0 -2 1 -5q1 -6 1 -12q3 -13 7 -22l17 -52l7 -42q4 -4 4 -12q12 -67 22 -79q13 -67 34 -103q16 -26 60 -67l67 -48q4 -1 15 -8l23 -16q57 -18 57 -38t-49 -33q-45 -13 -104 -13q-44 0 -86 16l-21 9l-54 54q-15 13 -26 33
l-15 25h-3q-1 0 -6 -4l-32 -25l-25 -34q-3 -1 -13 -13l-8 -8q-4 -4 -7 -6l-74 -52q-2 -3 -17 -10q-16 -5 -21 -5h-39q-61 15 -69 81l-8 63l9 12q8 17 20 33l40 37q6 6 6 10l31 22l21 21q6 4 58 45q2 2 5 4z" />
    <glyph glyph-name="Adieresis" unicode="&#xc4;" horiz-adv-x="756" 
d="M353 769q-31 -1 -48 14q-21 20 -29 72v10q13 19 38 29q16 6 34 6h4q31 -1 41 -18q4 -7 6 -19q1 -9 1 -27v-23q-1 -13 -5 -22q-8 -22 -35 -22h-7zM169 766q-35 1 -51 14q-23 19 -31 72l1 10q14 21 41 30q9 4 19 5q8 1 15 1q30 0 41 -17q7 -11 7 -43v-23q-1 -14 -4 -24
q-8 -25 -36 -25h-2zM184 280l-67 -106v-20l5 -17q11 -33 50 -33q63 23 86 60q8 13 16 33l8 26l5 11q0 6 -9 35q-4 13 -8 21q-4 11 -6 11h-27l-14 -8zM179 312h4q13 7 32 27l29 37v32l-9 34l-40 111l-26 46q-8 10 -12 25q-3 12 -3 23l1 12l7 16l10 10l3 3q1 1 3 2q5 7 10 12
q7 7 12 11l11 5l29 3l17 -4q59 -35 83 -111h-1q6 -16 10 -45q2 -1 2 -3v-4q0 -2 1 -5q1 -6 1 -12q3 -13 7 -22l17 -52l7 -42q4 -4 4 -12q12 -67 22 -79q13 -67 34 -103q16 -26 60 -67l67 -48q4 -1 15 -8l23 -16q57 -18 57 -38t-49 -33q-45 -13 -104 -13q-44 0 -86 16l-21 9
l-54 54q-15 13 -26 33l-15 25h-3q-1 0 -6 -4l-32 -25l-25 -34q-3 -1 -13 -13l-8 -8q-4 -4 -7 -6l-74 -52q-2 -3 -17 -10q-16 -5 -21 -5h-39q-61 15 -69 81l-8 63l9 12q8 17 20 33l40 37q6 6 6 10l31 22l21 21q6 4 58 45q2 2 5 4z" />
    <glyph glyph-name="AE" unicode="&#xc6;" horiz-adv-x="940" 
d="M176 260l-59 -86v-20l5 -17q11 -33 50 -33q63 23 86 60q8 13 16 33l8 26l5 11q0 6 -9 35q-4 13 -8 21q-4 11 -6 11h-27l-14 -8zM504 4q-39 2 -77 16l-21 9l-54 54q-15 13 -26 33l-15 25h-3q-1 0 -6 -4l-32 -25l-25 -34q-3 -1 -13 -13l-8 -8q-4 -4 -7 -6l-74 -52
q-2 -3 -17 -10q-16 -5 -21 -5h-39q-61 15 -69 81l-8 63l9 12q8 17 20 33l40 37q6 6 6 10l31 22l21 21q6 4 58 45q2 2 5 4h4q13 7 32 27l29 37v32l-9 34l-40 111l-26 46q-8 10 -12 25q-3 12 -3 23l1 12l7 16l10 10l3 3q1 1 3 2q5 7 10 12q7 7 12 11l11 5l29 3l17 -4
q59 -35 83 -111h-1q6 -16 10 -45l1 -1q5 4 10 9l20 14l23 23q10 8 14 13l9 7l87 49l7 7l34 15l25 5q7 0 61 11q8 4 13 5h54q3 0 11 -3l67 -14q54 -23 43.5 -40.5t-35 -15t-102.5 -2.5l-84 -7q-35 -24 -69 -24q-45 0 -86 -43l-30 -45v-14l-7 -14l-1 -13q4 1 8 1q96 11 231 17
t179 11t46.5 -3.5t-21 -25t-35 -27t-19 -13t-70.5 -7t-252 -23.5q-41 -4 -72 -5q0 -4 1 -9l-3 -29l3 -27l19 -53q0 -1 5 -9l38 -66q1 -1 1 -2l3 -3l4 -5l25 -32q16 -19 29 -29q17 -13 50 -38q4 -3 12 -4q3 -2 8 -2l44 -13q2 -3 4 -3q30 -6 72 -10h99q0 -23 -67 -54
q-73 -35 -136 -35q-67 0 -116 19z" />
    <glyph glyph-name="Ccedilla" unicode="&#xc7;" horiz-adv-x="734" 
d="M421 -13v-3l3 -6l-8 -44l48 -83q8 -19 23 -37q4 -7 12 -15l12 -14q26 -33 26 -58q0 -17 -11 -42l-11 -40q-3 -5 -7 -11l-8 -8l-10 -15l-8 -4q-16 -19 -48 -32q-10 -5 -26 -11l-20 -5l-53 -18l-50 -10q-15 -5 -37 -5l-15 1l-11 4q-6 0 -12 4q-7 6 -7 11l-1 5l4 7l16 13
l43 18q25 11 40 19q18 12 22 21v1q0 14 9 32l7 42q0 3 -3 11q-2 6 -2 9v1q-2 36 -25 68l-40 72v12q0 17 1 33q3 21 8 39q12 37 33 53q-6 2 -13 5q-10 4 -22 10l-127 54q-37 21 -45.5 32t-16.5 33l-19 24l-11 35q-4 28 -10 47q-5 17 -5 26v106l3 7l5 16q5 11 7 19q3 9 5 14
l9 23q21 41 46 74q17 22 40 43l20 15l23 22q10 8 14 13l9 7l87 49l7 8l34 14l25 6q7 0 61 10q8 4 13 5h54q3 0 11 -2l50 -33l53 -42q5 -4 13 -14l14 -17q16 -21 19 -20v-21q0 -10 -33 -35q-37 -28 -73 -28l-32 -3l-26 7q-1 1 -8 5l-24 17l-10 17q-7 2 -12 7l-23 16
q-6 4 -13 6l-20 12q-21 23 -55 23q-45 0 -86 -44l-30 -45v-14l-7 -13l-4 -40q-2 -22 -2 -38q0 -7 1 -15l-3 -34l3 -26l18 -53q0 -2 6 -10l38 -66q1 -1 1 -2q2 -1 3 -3l4 -5l25 -32q16 -18 29 -29q17 -13 50 -38q4 -3 12 -4q3 -1 8 -1l44 -14q2 -2 4 -2q30 -7 72 -11h99
q0 -22 -67 -54q-73 -34 -136 -34z" />
    <glyph glyph-name="Egrave" unicode="&#xc8;" horiz-adv-x="742" 
d="M186 409q0 -4 1 -9l-3 -29l3 -26l18 -53q0 -2 6 -10l38 -66q1 -1 1 -2q2 -1 3 -3l4 -5l25 -32q16 -18 29 -29q17 -13 50 -38q4 -3 12 -4q3 -1 8 -1l44 -14q2 -2 4 -2q30 -7 72 -11h99q0 -22 -67 -54q-73 -34 -136 -34q-69 0 -119 20q-10 4 -22 10l-127 54
q-37 21 -45.5 32t-16.5 33l-19 24l-11 35q-4 28 -10 47q-5 17 -5 26v106l3 7l5 16q5 11 7 19q3 9 5 14l9 23q21 41 46 74q17 22 40 43l20 15l23 22q10 8 14 13l9 7l87 49l7 8l34 14l25 6q7 0 61 10q8 4 13 5h54q3 0 11 -2l67 -15q54 -22 43.5 -40t-35 -15.5t-102.5 -2.5
l-84 -6q-35 -24 -69 -24q-45 0 -86 -44l-30 -45v-14l-7 -13l-1 -14q4 2 8 2q96 10 231 16t179 11.5t46.5 -3t-21 -25t-35 -27.5t-19.5 -13.5t-70.5 -7t-251.5 -23.5q-41 -3 -72 -5zM412 872q-3 15 -4 22q-2 9 -3 10q-3 4 -11 11l-17 16q-11 10 -19 15q-8 7 -12 7l-6 1
q-8 0 -19 -2l-31 -5q-6 -1 -11 -1q-12 -2 -22 -2l-19 2q-5 0 -18 2l-15 3l-19 11l-15 15q-1 1 -2 7l-2 8l-1 14l41 36l32 16q2 2 11 5q7 3 11 3h6q0 -4 -2 -11q-11 -14 3 -27l6 -7q5 0 14 -3l15 -4q15 -2 29 -4h19l17 3q18 4 33 7l21 4l26 -5l31 -16q20 -17 23 -20l11 -11
q2 -2 5 -8l14 -31v-12q-1 -13 -6 -28q0 -7 -13 -30q-13 -24 -18 -31t-25 -36q-7 -10 -19 -19l-42 -27q-31 -15 -36 -15l-4 1v10q8 14 11 25q0 2 5 8l4 6q4 4 6 8q7 10 10 21q5 12 6 30z" />
    <glyph glyph-name="Eacute" unicode="&#xc9;" horiz-adv-x="742" 
d="M186 409q0 -4 1 -9l-3 -29l3 -26l18 -53q0 -2 6 -10l38 -66q1 -1 1 -2q2 -1 3 -3l4 -5l25 -32q16 -18 29 -29q17 -13 50 -38q4 -3 12 -4q3 -1 8 -1l44 -14q2 -2 4 -2q30 -7 72 -11h99q0 -22 -67 -54q-73 -34 -136 -34q-69 0 -119 20q-10 4 -22 10l-127 54
q-37 21 -45.5 32t-16.5 33l-19 24l-11 35q-4 28 -10 47q-5 17 -5 26v106l3 7l5 16q5 11 7 19q3 9 5 14l9 23q21 41 46 74q17 22 40 43l20 15l23 22q10 8 14 13l9 7l87 49l7 8l34 14l25 6q7 0 61 10q8 4 13 5h54q3 0 11 -2l67 -15q54 -22 43.5 -40t-35 -15.5t-102.5 -2.5
l-84 -6q-35 -24 -69 -24q-45 0 -86 -44l-30 -45v-14l-7 -13l-1 -14q4 2 8 2q96 10 231 16t179 11.5t46.5 -3t-21 -25t-35 -27.5t-19.5 -13.5t-70.5 -7t-251.5 -23.5q-41 -3 -72 -5zM268 792q3 0 18 7l13 7q7 4 10 7l27 26q12 12 35 38l37 40q42 43 73 43h10q6 -1 11 -3
q14 -5 14 -19q0 -7 -4 -15l-18 -34l-51 -57q-36 -45 -85 -68q-39 -20 -74 -20q-25 0 -45 7q-16 5 -16 9q0 3 6 8q5 4 10 7z" />
    <glyph glyph-name="Ecircumflex" unicode="&#xca;" horiz-adv-x="737" 
d="M186 409q0 -4 1 -9l-3 -29l3 -26l18 -53q0 -2 6 -10l38 -66q1 -1 1 -2q2 -1 3 -3l4 -5l25 -32q16 -18 29 -29q17 -13 50 -38q4 -3 12 -4q3 -1 8 -1l44 -14q2 -2 4 -2q30 -7 72 -11h99q0 -22 -67 -54q-73 -34 -136 -34q-69 0 -119 20q-10 4 -22 10l-127 54
q-37 21 -45.5 32t-16.5 33l-19 24l-11 35q-4 28 -10 47q-5 17 -5 26v106l3 7l5 16q5 11 7 19q3 9 5 14l9 23q21 41 46 74q17 22 40 43l20 15l23 22q10 8 14 13l9 7l87 49l7 8l34 14l25 6q7 0 61 10q8 4 13 5h54q3 0 11 -2l67 -15q54 -22 43.5 -40t-35 -15.5t-102.5 -2.5
l-84 -6q-35 -24 -69 -24q-45 0 -86 -44l-30 -45v-14l-7 -13l-1 -14q4 2 8 2q96 10 231 16t179 11.5t46.5 -3t-21 -25t-35 -27.5t-19.5 -13.5t-70.5 -7t-251.5 -23.5q-41 -3 -72 -5zM362 830l-41 64q-16 -46 -40 -76q-28 -39 -64 -51l-13 4l-11 7l-6 9l-1 -1q-5 7 -5 12
q0 3 1 5l5 11l2 9l41 26q16 19 33 53q11 24 26 59l19 49q8 20 11 20q8 0 24 -41q11 -56 49 -97t84 -47q36 0 64 23q31 26 32 67l-1 20l1 -2q32 -59 32 -98q0 -50 -30 -79q-26 -25 -66 -27h-8q-53 0 -89 24q-25 22 -49 57z" />
    <glyph glyph-name="Edieresis" unicode="&#xcb;" horiz-adv-x="742" 
d="M186 409q0 -4 1 -9l-3 -29l3 -26l18 -53q0 -2 6 -10l38 -66q1 -1 1 -2q2 -1 3 -3l4 -5l25 -32q16 -18 29 -29q17 -13 50 -38q4 -3 12 -4q3 -1 8 -1l44 -14q2 -2 4 -2q30 -7 72 -11h99q0 -22 -67 -54q-73 -34 -136 -34q-69 0 -119 20q-10 4 -22 10l-127 54
q-37 21 -45.5 32t-16.5 33l-19 24l-11 35q-4 28 -10 47q-5 17 -5 26v106l3 7l5 16q5 11 7 19q3 9 5 14l9 23q21 41 46 74q17 22 40 43l20 15l23 22q10 8 14 13l9 7l87 49l7 8l34 14l25 6q7 0 61 10q8 4 13 5h54q3 0 11 -2l67 -15q54 -22 43.5 -40t-35 -15.5t-102.5 -2.5
l-84 -6q-35 -24 -69 -24q-45 0 -86 -44l-30 -45v-14l-7 -13l-1 -14q4 2 8 2q96 10 231 16t179 11.5t46.5 -3t-21 -25t-35 -27.5t-19.5 -13.5t-70.5 -7t-251.5 -23.5q-41 -3 -72 -5zM481 773q-31 -1 -48 14q-21 20 -29 72v10q13 19 38 29q16 6 34 6h4q31 -1 41 -18
q4 -8 6 -19q1 -9 1 -27v-23q-1 -13 -5 -22q-8 -22 -35 -22h-7zM297 770q-35 1 -51 14q-23 19 -31 72l1 10q14 21 41 30q9 4 19 5q8 1 15 1q30 0 41 -17q7 -11 7 -43v-23q-1 -14 -4 -24q-8 -25 -36 -25h-2z" />
    <glyph glyph-name="Igrave" unicode="&#xcc;" horiz-adv-x="344" 
d="M0 627q-15 16 36 45.5t93 38t51.5 5.5t16.5 -64.5t4 -286t-1 -287t-2 -70.5t-26.5 -20t-42.5 -36.5t-37 -21.5t-15 47.5t-9.5 180t-7.5 266t0 153t-13 30t-47 20.5zM127 856q-3 15 -4 22q-2 9 -3 10q-3 4 -11 11l-17 16q-11 10 -19 15q-9 7 -13 7l-6 1q-8 0 -19 -2
l-30 -5q-6 -1 -11 -1q-12 -2 -22 -2l-20 2q-5 0 -18 2l-14 3l-19 11l-15 15q-1 1 -2 7l-2 8l-1 14l41 36l31 16q2 2 11 5q8 3 12 3h6q0 -4 -2 -11q-11 -14 3 -27l6 -6q5 0 14 -4l15 -4l28 -4h20l17 3q18 4 33 8l20 3l26 -5l32 -16q20 -17 23 -20l11 -11l4 -8l14 -31v-11
q-1 -14 -6 -29q0 -7 -12 -30q-13 -24 -18 -31t-25 -36q-7 -10 -19 -19l-42 -27q-31 -15 -36 -15l-4 1v10q8 14 11 25q0 2 5 8l4 6q4 4 6 8q7 10 10 21q5 12 6 30z" />
    <glyph glyph-name="Iacute" unicode="&#xcd;" horiz-adv-x="344" 
d="M0 627q-15 16 36 45.5t93 38t51.5 5.5t16.5 -64.5t4 -286t-1.5 -287t-2 -70.5t-26 -20t-42.5 -36.5t-37 -21.5t-15 47.5t-9.5 180t-7.5 266t0 153t-13 30t-47 20.5zM100 792q3 0 18 7l13 7q7 4 10 7l26 26q13 12 36 38l37 40q42 43 73 43h10q6 -1 11 -3q13 -5 13 -19
q0 -7 -4 -15l-17 -34l-51 -57q-36 -45 -85 -68q-40 -20 -74 -20q-25 0 -45 7q-17 5 -17 9q0 3 6 8q5 4 11 7z" />
    <glyph glyph-name="Icircumflex" unicode="&#xce;" horiz-adv-x="345" 
d="M0 627q-15 16 36 45.5t93 38t51.5 5.5t16.5 -64.5t4 -286t-1 -287t-2 -70.5t-26.5 -20t-42.5 -36.5t-37 -21.5t-15 47.5t-9 180t-7 266t0 153t-13.5 30t-47.5 20.5zM97 816l-40 64q-16 -46 -40 -76q-29 -39 -64 -51l-13 4l-11 7l-6 9l-1 -1q-5 7 -5 12q0 3 1 5l5 11l2 9
l41 26q15 19 32 53q12 24 27 59l19 49q8 20 11 20q8 0 23 -41q11 -56 50 -97q37 -41 84 -47q36 0 63 23q32 26 33 67l-1 20l1 -2q32 -59 32 -98q0 -50 -30 -79q-27 -25 -66 -27h-8q-54 0 -89 24q-25 22 -50 57z" />
    <glyph glyph-name="Idieresis" unicode="&#xcf;" horiz-adv-x="344" 
d="M0 627q-15 16 36 45.5t93 38t51.5 5.5t16.5 -64.5t4 -286t-1 -287t-2 -70.5t-26.5 -20t-42.5 -36.5t-37 -21.5t-15 47.5t-9.5 180t-7.5 266t0 153t-13 30t-47 20.5zM219 769q-30 -1 -47 14q-21 20 -29 72v10q13 19 38 29q16 6 33 6h4q32 -1 42 -18q4 -7 6 -19q1 -9 1 -27
v-23q-1 -13 -5 -22q-8 -22 -36 -22h-7zM35 766q-34 1 -50 14q-23 19 -31 72l1 10q14 21 41 30q8 4 18 5q8 1 15 1q31 0 42 -17q7 -11 7 -43v-23q-1 -14 -4 -24q-8 -25 -37 -25h-2z" />
    <glyph glyph-name="Eth" unicode="&#xd0;" horiz-adv-x="741" 
d="M174 259q0 -6 4 -16l13 -44q3 -10 3 -13l37 -49l25 -22l51 -31l39 -10q9 -1 13 -1h5q79 8 119 56q1 4 8 16q6 16 8 17l21 37l40 80v56q0 50 -6 76q-4 11 -10 29l-15 38l-21 22q-14 16 -26 31l-20 19l-23 12l-18 -1l-16 -12q-8 -6 -18 -9q-3 -1 -8 -3h-8q-9 -2 -19 -9
q-13 -9 -29 -25l-16 -13q-10 -10 -26 -19l-8 -2q-5 -2 -8 -4q-10 -6 -33 -48q-2 -6 -6 -10l-33 -37q-19 -28 -19 -53v-58zM467 778q12 -12 33 -11l23 -1q13 -2 22 -3l-3 1q39 10 57 37l8 15l19 20q2 0 6 4l8 5l9 4q6 1 10 2v-1l10 -1q13 -8 11 -34q2 -7 1 -12
q-7 -24 -61 -52q-20 -10 -46 -21q-20 -8 -42 -16q-7 -3 -13 -6l47 -73l25 -30l17 -29q2 -2 11 -12q8 -11 25 -39q17 -37 22 -75q4 -24 4 -67q0 -29 -5 -52l-3 -42l-19 -38q0 -4 -12 -21q-12 -16 -27 -35l-29 -33q-14 -13 -19 -13l-48 -53l-82 -63q-8 -13 -67 -41l-50 -14
q-7 -3 -10 -3h-22q-11 0 -24 3l-46 11q-13 3 -22 3l-16 8l-27 20q-13 9 -19 13q-10 7 -12 7l-44 89q-1 3 -5 11l-12 42v17q1 17 5 39q4 13 10 35q6 23 9 33q2 17 2 29q3 12 18 33q11 19 31 43q39 44 60 60q2 2 10 8q3 3 9 7l62 50q15 10 43 24q26 14 34 14l34 21q3 4 21 16
q2 5 2 11l-2 9l-14 25q-3 5 -13 17l-13 16l-18 20q-8 1 -14 2l-54 -13q-4 -1 -12 -5l-11 -7q-13 -8 -19 -4l-22 -22l-6 -21l-4 -28l-8 -12q-17 -16 -45 -6q-13 5 -24 16l-6 21l2 14l8 19q27 26 58 46q27 16 62 28l33 10l21 6q-12 11 -23 22q-33 30 -61 50l-62 32l-5 8v4l6 9
q2 0 12 6l13 7l43 25q6 8 35 8h17q10 0 18 -1q19 -3 38 -10q35 -22 87 -84l28 -25q1 -4 12 -17z" />
    <glyph glyph-name="Ograve" unicode="&#xd2;" horiz-adv-x="876" 
d="M30 341v9q0 119 110 241q54 62 118 97q73 39 150 39q54 0 104 -19l50 -15q191 -69 228 -281v-69l-6 -39q-10 -49 -40 -97q-25 -39 -67 -79q-33 -32 -78 -63q-16 -12 -37 -27l-33 -22l-73 -20q-35 -8 -93 -8q-77 0 -148 34l-25 24q-102 95 -126 149l-17 43q-10 26 -12 43
l-1 20q0 7 -1 13q0 8 -2 16q-1 5 -1 11zM180 474q-13 -32 -5 -56l7 -44q0 -4 2 -12l18 -45l46 -83q2 -3 25 -41l41 -44q16 -18 47 -32l44 -18q5 -4 24 -8q15 -4 48 0l60 13q22 12 30 15q8 4 13 6q8 6 15 12q8 10 20 23l14 27q28 57 28 98v23q-1 14 -3 15q-1 6 -8 18l-31 63
l-35 62q-18 29 -27 44q-7 7 -31 23q-22 16 -52 35q-35 18 -60 31q-43 4 -55 4q-19 -1 -37 -4q-8 0 -17 -2q-12 -4 -24 -12q-45 -19 -67 -58zM420 886q-3 15 -4 22q-2 9 -3 10q-3 4 -11 11l-17 16q-11 10 -19 15q-9 7 -12 7l-6 1q-8 0 -19 -2l-31 -5q-6 -1 -11 -1
q-12 -2 -22 -2l-19 2q-5 0 -18 2l-15 3l-19 11l-15 15q-1 1 -2 7l-2 8l-1 14l41 36l32 16q2 2 10 5t12 3h6q0 -4 -2 -11q-11 -14 3 -27l6 -7q5 0 14 -4l15 -3q15 -2 29 -4h19l17 3q18 3 33 7l21 4l25 -6l32 -15q20 -17 23 -20l11 -11q2 -2 5 -8l14 -31v-12q-1 -13 -6 -28
q0 -7 -13 -30q-13 -24 -18 -31t-25 -36q-7 -10 -19 -19l-42 -27q-31 -15 -36 -15l-4 1v10q8 14 11 25q0 2 5 8l4 6q4 4 6 8q7 10 10 21q5 12 6 30z" />
    <glyph glyph-name="Oacute" unicode="&#xd3;" horiz-adv-x="876" 
d="M30 345v9q0 119 110 241q54 62 118 97q73 39 150 39q54 0 104 -20l50 -14q191 -69 228 -281v-69l-6 -39q-10 -49 -40 -97q-25 -39 -67 -79q-33 -32 -78 -63q-16 -12 -37 -27l-33 -22l-73 -20q-35 -8 -93 -8q-77 0 -148 34l-25 24q-102 95 -126 149l-17 43q-10 26 -12 43
l-1 20q0 7 -1 13q0 8 -2 16q-1 5 -1 11zM180 478q-13 -32 -5 -56l7 -44q0 -4 2 -12l18 -45l46 -83q2 -3 25 -41l41 -44q16 -18 47 -32l44 -18q5 -4 24 -8q15 -4 48 0l60 13q22 12 30 15q8 4 13 6q8 6 15 12q8 9 20 23l14 27q28 57 28 98v23q-1 14 -3 15q-1 6 -8 18l-31 63
l-35 62q-18 29 -27 43q-7 8 -31 24q-22 16 -52 35q-35 18 -60 31q-43 4 -55 4q-19 -1 -37 -4q-8 0 -17 -2q-12 -4 -24 -12q-45 -19 -67 -58zM344 805q2 0 17 7l13 7q7 4 10 7l27 26q13 13 35 38l37 40q43 44 73 44h10q6 -1 11 -3q14 -5 14 -20q0 -7 -4 -15l-18 -34l-50 -57
q-37 -45 -85 -68q-40 -19 -75 -19q-24 0 -44 7q-17 5 -17 9q0 2 6 7q5 4 11 7z" />
    <glyph glyph-name="Ocircumflex" unicode="&#xd4;" horiz-adv-x="880" 
d="M26 337v9q0 119 110 241q54 62 118 97q73 39 150 39q54 0 104 -19l50 -15q191 -69 228 -281v-69l-6 -39q-10 -49 -40 -97q-25 -39 -67 -79q-33 -32 -78 -63q-16 -12 -37 -27l-33 -22l-73 -20q-35 -8 -93 -8q-77 0 -148 34l-25 24q-102 95 -126 149l-17 43q-10 26 -12 43
l-1 20q0 7 -1 13q0 8 -2 16q-1 5 -1 11zM176 470q-13 -32 -5 -56l7 -44q0 -4 2 -12l18 -45l46 -83q2 -3 25 -41l41 -44q16 -18 47 -31l44 -19q5 -4 24 -8q15 -4 48 0l60 13q22 12 30 15q8 4 13 6q8 6 15 12q8 10 20 23l14 27q28 57 28 98v23q-1 14 -3 15q-1 6 -8 18l-31 63
l-35 62q-18 29 -27 44q-7 7 -31 23q-22 16 -52 35q-35 18 -60 31q-43 4 -55 4q-19 -1 -37 -4q-8 0 -17 -2q-12 -4 -24 -12q-45 -19 -67 -58zM366 821l-41 64q-16 -46 -40 -76q-28 -39 -64 -51l-13 4l-11 7l-6 9l-1 -1q-5 7 -5 12q0 3 1 5l5 11l2 9l41 26q16 19 33 53
q11 24 26 59l19 49q8 20 11 20q8 0 24 -41q11 -56 49 -97t84 -47q36 0 64 23q31 26 32 67l-1 20l1 -2q32 -59 32 -98q0 -50 -30 -79q-26 -25 -66 -27h-8q-53 0 -89 24q-25 22 -49 57z" />
    <glyph glyph-name="Otilde" unicode="&#xd5;" horiz-adv-x="868" 
d="M38 345v9q0 119 110 241q54 62 118 97q73 39 150 39q54 0 104 -20l50 -14q191 -69 228 -281v-69l-6 -39q-10 -49 -40 -97q-25 -39 -67 -79q-33 -32 -78 -63q-16 -12 -37 -27l-33 -22l-73 -20q-35 -8 -93 -8q-77 0 -148 34l-25 24q-102 95 -126 149l-17 43q-10 26 -12 43
l-1 20q0 7 -1 13q0 8 -2 16q-1 5 -1 11zM188 478q-13 -32 -5 -56l7 -44q0 -4 2 -12l18 -45l46 -83q2 -3 25 -41l41 -44q16 -18 47 -32l44 -18q5 -4 24 -8q15 -4 48 0l60 13q22 12 30 15q8 4 13 6q8 6 15 12q8 9 20 23l14 27q28 57 28 98v23q-1 14 -3 15q-1 6 -8 18l-31 63
l-35 62q-18 29 -27 43q-7 8 -31 24q-22 16 -52 35q-35 18 -60 31q-43 4 -55 4q-19 -1 -37 -4q-8 0 -17 -2q-12 -4 -24 -12q-45 -19 -67 -58zM563 908q1 -3 1 -6q1 -6 2 -7q-6 -70 -31 -100q-21 -26 -58 -26q-16 0 -37 5q-14 3 -39 12l-38 11q-19 5 -33 5q-21 0 -33 -11
l-38 -31q6 74 28 105q18 28 49 28q16 0 36 -7q9 -3 20 -8q5 -1 11 -4l10 -4q6 -3 10 -4q6 -3 10 -4q11 -5 19 -8q23 -7 39 -7q49 0 71 65z" />
    <glyph glyph-name="Odieresis" unicode="&#xd6;" horiz-adv-x="872" 
d="M29 345v9q0 119 110 241q54 62 118 97q73 39 150 39q54 0 104 -20l50 -14q191 -69 228 -281v-69l-6 -39q-10 -49 -40 -97q-25 -39 -67 -79q-33 -32 -78 -63q-16 -12 -37 -27l-33 -22l-73 -20q-35 -8 -93 -8q-77 0 -148 34l-25 24q-102 95 -126 149l-17 43q-10 26 -12 43
l-1 20q0 7 -1 13q0 8 -2 16q-1 5 -1 11zM179 478q-13 -32 -5 -56l7 -44q0 -4 2 -12l18 -45l46 -83q2 -3 25 -41l41 -44q16 -18 47 -32l44 -18q5 -4 24 -8q15 -4 48 0l60 13q22 12 30 15q8 4 13 6q8 6 15 12q8 9 20 23l14 27q28 57 28 98v23q-1 14 -3 15q-1 6 -8 18l-31 63
l-35 62q-18 29 -27 43q-7 8 -31 24q-22 16 -52 35q-35 18 -60 31q-43 4 -55 4q-19 -1 -37 -4q-8 0 -17 -2q-12 -4 -24 -12q-45 -19 -67 -58zM501 771q-31 -1 -48 15q-20 20 -28 71v10q13 20 37 30q16 6 34 6h4q32 -1 41 -18q4 -8 6 -20q1 -9 1 -26v-23q-1 -13 -5 -22
q-7 -23 -35 -23h-7zM317 768q-35 1 -51 15q-22 19 -30 71l1 10q13 22 40 31q9 4 19 5q8 1 15 1q31 0 41 -17q7 -12 7 -43v-23q-1 -14 -4 -24q-8 -26 -36 -26h-2z" />
    <glyph glyph-name="Oslash" unicode="&#xd8;" horiz-adv-x="872" 
d="M462 581l-36 18q-43 4 -55 4q-19 -1 -37 -4q-8 0 -17 -2q-12 -4 -24 -12q-45 -19 -67 -58l-30 -53q-13 -32 -5 -56l7 -44q0 -4 2 -12l18 -45l46 -83q2 -3 25 -41l16 -16l35 90q14 34 28 64l81 213q6 20 13 37zM575 499l-9 -17l-32 -60q-23 -60 -50 -122q-25 -57 -54 -119
l-36 -71l27 -11q5 -4 24 -8q15 -4 48 0l60 13q22 12 30 15q8 4 13 6q8 6 15 12q8 10 20 23l14 27q28 57 28 98v23q-1 14 -3 15q-1 6 -8 18l-31 63l-35 62zM224 28l-18 18q-102 95 -126 149l-17 43q-10 26 -12 43l-1 20q0 7 -1 13q0 8 -2 16q-1 5 -1 11v9q0 119 110 241
q54 62 118 97q73 39 150 39q39 0 76 -10v1l17 24q6 5 9 18q4 40 53 54q35 10 105 10h52q0 -6 -6 -11l-28 -28v3q-1 0 -11 -20l-46 -88q-4 -9 -8 -15q139 -76 169 -253v-69l-6 -39q-10 -49 -40 -97q-25 -39 -67 -79q-33 -32 -78 -63q-16 -12 -37 -27l-33 -22l-73 -20
q-35 -8 -93 -8q-21 0 -44 3l-25 -52l-12 -14l-1 -4q0 -2 -2 -3h-10l-12 -10l-16 -7l-22 -7q-24 -6 -39 -9h-35q-12 0 -37 7l-24 5q-16 4 -32 5l-5 19q-2 9 -2 13q0 7 5 11q4 2 12 4h9q0 -2 7 1l26 1l8 3q6 1 8 2l20 8l21 14z" />
    <glyph glyph-name="Ugrave" unicode="&#xd9;" horiz-adv-x="906" 
d="M705 111q0 33 -1 82q-5 143 -7.5 258t-6.5 137t-13 29.5t-47 20.5q-14 15 36 43.5t91 37t50 5.5t16.5 -63t4 -278t-1.5 -279.5t-3 -100.5t-26.5 -36t-41 12t-34.5 26q-9 7 -12 17q-62 -36 -116 -37q-92 -1 -167 12t-162 68t-112.5 105t-31 125.5t-4 152.5t-1 102t-7 40.5
t-17.5 17.5t-22 5t-25 34q19 36 46.5 48.5t74 16.5t68.5 5t29 -38t7.5 -89t-2 -131t1.5 -171.5t61 -141t145.5 -70t164.5 6.5q32 10 65 28zM504 860q-3 15 -4 22q-2 9 -3 10q-3 4 -11 11l-17 16q-11 10 -19 15q-9 7 -13 7l-6 1q-8 0 -19 -2l-30 -5q-6 -1 -11 -1
q-12 -2 -22 -2l-20 2q-5 0 -18 2l-14 3l-19 11l-15 15q-1 1 -2 7l-2 8l-1 14l41 36l31 16q2 2 11 5q8 3 12 3h6q0 -4 -2 -11q-11 -14 3 -27l6 -7q5 0 14 -3l15 -4l28 -4h20l17 3q18 4 33 7l20 4l26 -5l32 -16q20 -17 23 -20l11 -11l4 -8l14 -31v-12q-1 -13 -6 -28
q0 -7 -12 -30q-13 -24 -18 -31t-25 -36q-7 -10 -19 -19l-42 -27q-31 -15 -36 -15l-4 1v10q8 14 11 25q0 2 5 8l4 6q4 4 6 8q7 10 10 21q5 12 6 30z" />
    <glyph glyph-name="Uacute" unicode="&#xda;" horiz-adv-x="906" 
d="M705 111q0 33 -1 82q-5 143 -7.5 258t-6.5 137t-13 29.5t-47 20.5q-14 15 36 43.5t91 37t50 5.5t16.5 -63t4 -278t-1.5 -279.5t-3 -100.5t-26.5 -36t-41 12t-34.5 26q-9 7 -12 17q-62 -36 -116 -37q-92 -1 -167 12t-162 68t-112.5 105t-31 125.5t-4 152.5t-1 102t-7 40.5
t-17.5 17.5t-22 5t-25 34q19 36 46.5 48.5t74 16.5t68.5 5t29 -38t7.5 -89t-2 -131t1.5 -171.5t61 -141t145.5 -70t164.5 6.5q32 10 65 28zM408 800q3 0 18 7l13 7q7 4 10 7l26 25q13 13 36 39l37 40q42 43 73 43h10q6 -1 11 -3q13 -5 13 -20q0 -6 -4 -14l-17 -34l-51 -57
q-36 -45 -85 -68q-40 -20 -74 -20q-25 0 -45 7q-17 5 -17 9q0 3 6 8q5 4 11 7z" />
    <glyph glyph-name="Ucircumflex" unicode="&#xdb;" horiz-adv-x="906" 
d="M705 111q0 33 -1 82q-5 143 -7.5 258t-6.5 137t-13 29.5t-47 20.5q-14 15 36 43.5t91 37t50 5.5t16.5 -63t4 -278t-1.5 -279.5t-3 -100.5t-26.5 -36t-41 12t-34.5 26q-9 7 -12 17q-62 -36 -116 -37q-92 -1 -167 12t-162 68t-112.5 105t-31 125.5t-4 152.5t-1 102t-7 40.5
t-17.5 17.5t-22 5t-25 34q19 36 46.5 48.5t74 16.5t68.5 5t29 -38t7.5 -89t-2 -131t1.5 -171.5t61 -141t145.5 -70t164.5 6.5q32 10 65 28zM437 820l-40 64q-16 -46 -40 -76q-29 -39 -64 -51l-13 4l-11 7l-6 9l-1 -1q-5 7 -5 12q0 3 1 5l5 11l2 8l41 27q15 19 32 53
q12 23 27 59l19 49q8 20 11 20q8 0 23 -41q11 -56 50 -97q38 -41 84 -47q36 0 63 23q32 26 33 67l-1 20l1 -2q32 -59 32 -98q0 -50 -30 -79q-27 -25 -66 -27h-8q-54 0 -89 24q-25 22 -50 57z" />
    <glyph glyph-name="Udieresis" unicode="&#xdc;" horiz-adv-x="906" 
d="M705 111q0 33 -1 82q-5 143 -7.5 258t-6.5 137t-13 29.5t-47 20.5q-14 15 36 43.5t91 37t50 5.5t16.5 -63t4 -278t-1.5 -279.5t-3 -100.5t-26.5 -36t-41 12t-34.5 26q-9 7 -12 17q-62 -36 -116 -37q-92 -1 -167 12t-162 68t-112.5 105t-31 125.5t-4 152.5t-1 102t-7 40.5
t-17.5 17.5t-22 5t-25 34q19 36 46.5 48.5t74 16.5t68.5 5t29 -38t7.5 -89t-2 -131t1.5 -171.5t61 -141t145.5 -70t164.5 6.5q32 10 65 28zM580 771q-31 -1 -47 14q-21 20 -29 72v10q13 19 38 29q15 6 33 6h4q32 -1 42 -18q4 -7 6 -19q1 -9 1 -27v-23q-1 -13 -5 -22
q-8 -22 -36 -22h-7zM396 768q-35 1 -50 14q-23 19 -31 72l1 10q14 21 40 30q9 4 19 5q8 1 15 1q31 0 42 -17q7 -11 7 -43v-23q-1 -14 -4 -24q-8 -25 -37 -25h-2z" />
    <glyph glyph-name="Yacute" unicode="&#xdd;" horiz-adv-x="975" 
d="M537 -282q0 6 1 17.5t2 32.5l3 23q1 22 2 43l4 12q1 5 2 7l14 48v7q15 47 15 110v22l-10 23l-10 21q-12 11 -16 19l-44 18q-29 12 -45 22q-22 13 -35 26l-53 57l-28 38q-4 4 -8 11q-4 5 -4 6l-18 44l-22 30l-9 15h1q0 2 -8 10l-8 8q-2 3 -3 5l2 -4q-34 44 -60 80l-9 14
q-5 5 -8 12l-14 21q-23 34 -63 65q-2 5 -10 8l-6 2q-5 2 -7 3q-17 7 -37 25q0 7 4 15q5 10 13 19q24 24 70 37l32 15l13 8q11 6 14 6h21q68 -42 71 -92l6 -11q34 -55 66 -109l70 -126l25 -51l17 -18q13 -11 22 -28l39 -29q0 -2 18 -13q25 -16 42 -18l27 6q6 13 13 29
q5 5 5 10l32 99q15 65 23 97q8 34 8 60l1 45q-4 6 -4 11q-5 4 -5 6l-45 27q-31 17 -31 47q0 23 26 36q35 20 121 13l64 -1q7 4 15 6q7 2 15 4l22 3q28 0 28 -26q0 -40 -53 -77l-23 -22q-3 -2 -4 -10q-1 -5 -1 -9v-47q0 -15 -1 -25q-2 -27 -8 -56q-15 -67 -68 -208l-9 -64
q-8 -31 -16 -61q-10 -36 -24 -69l-28 -144l-32 -98q-11 -24 -31 -48l-7 -14q-11 -16 -19 -26q-12 -18 -21 -18q-3 0 -13 4t-11 7v7zM446 800q3 0 18 7l13 7q7 4 10 7l26 25q13 13 36 39l37 40q42 43 73 43h10q6 -1 11 -3q13 -5 13 -20q0 -6 -3 -14l-18 -34l-51 -57
q-36 -45 -85 -68q-40 -20 -74 -20q-25 0 -45 7q-17 5 -17 9q0 3 6 8q5 4 11 7z" />
    <glyph glyph-name="agrave" unicode="&#xe0;" horiz-adv-x="573" 
d="M210 686q-3 15 -4 22q-2 9 -3 10q-3 4 -11 11l-17 17q-11 10 -19 15q-9 7 -13 7l-6 1q-8 0 -19 -2l-31 -5q-6 -1 -11 -1q-12 -2 -22 -2l-20 2q-5 0 -18 2l-15 3l-19 11l-15 15q-1 1 -2 7l-2 8l-1 14l41 37l32 16q2 2 11 5q8 3 12 3h6q0 -4 -2 -11q-11 -14 3 -27l6 -7
q5 0 14 -4l15 -4q15 -2 29 -4h20l17 3q18 4 33 8l21 4l26 -6l32 -16q20 -17 23 -20l11 -11q2 -2 5 -8l14 -31v-12q-1 -14 -6 -29q0 -7 -13 -30q-13 -24 -18 -31t-25 -37q-7 -10 -19 -19l-43 -27q-31 -15 -36 -15l-4 1v10q8 14 11 25q0 2 5 8l4 6q4 4 6 8q7 10 10 21
q5 13 6 31zM140 212l-51 -80v-15l4 -13q8 -25 38 -25q47 17 65 45q6 10 12 25l6 20l4 8q0 5 -7 27q-3 10 -6 16q-3 8 -5 8h-20l-11 -6zM136 236h3q10 6 24 21l22 28v24l-7 26l-30 84l-20 35q-6 7 -9 19q-2 9 -2 17l1 9l5 12l8 8l2 2l2 2q4 5 8 9q5 5 9 8l8 4l22 2l13 -3
q45 -26 63 -84h-1q5 -12 8 -34q1 -1 1 -2v-3q0 -2 1 -4q1 -5 1 -9q2 -10 5 -17l13 -39l5 -32q3 -3 3 -9q9 -51 17 -60q10 -51 26 -78q12 -20 45 -51l51 -36q3 -1 11 -6l18 -12q43 -14 43 -29t-37 -25q-34 -10 -79 -10q-33 0 -65 12l-16 7l-41 41q-11 10 -20 25l-11 19h-2
q-1 0 -5 -3l-24 -19l-19 -26q-2 -1 -10 -10l-6 -6q-3 -3 -5 -4l-56 -40q-2 -2 -13 -7q-12 -4 -16 -4h-30q-46 11 -52 61l-6 48l7 9q6 13 15 25l30 28q5 5 5 8l23 16l16 16q5 3 44 34q2 2 4 3z" />
    <glyph glyph-name="aacute" unicode="&#xe1;" horiz-adv-x="573" 
d="M178 612q3 0 18 7l13 7q7 4 10 7l27 26q13 13 36 39l37 40q43 44 74 44h10q6 -1 11 -3q14 -5 14 -20q0 -7 -4 -15l-18 -34l-51 -58q-37 -45 -86 -68q-40 -20 -75 -20q-25 0 -45 7q-17 5 -17 9q0 3 6 8q5 4 11 7zM140 212l-51 -80v-15l4 -13q8 -25 38 -25q47 17 65 45
q6 10 12 25l6 20l4 8q0 5 -7 27q-3 10 -6 16q-3 8 -5 8h-20l-11 -6zM136 236h3q10 6 24 21l22 28v24l-7 26l-30 84l-20 35q-6 7 -9 19q-2 9 -2 17l1 9l5 12l8 8l2 2l2 2q4 5 8 9q5 5 9 8l8 4l22 2l13 -3q45 -26 63 -84h-1q5 -12 8 -34q1 -1 1 -2v-3q0 -2 1 -4q1 -5 1 -9
q2 -10 5 -17l13 -39l5 -32q3 -3 3 -9q9 -51 17 -60q10 -51 26 -78q12 -20 45 -51l51 -36q3 -1 11 -6l18 -12q43 -14 43 -29t-37 -25q-34 -10 -79 -10q-33 0 -65 12l-16 7l-41 41q-11 10 -20 25l-11 19h-2q-1 0 -5 -3l-24 -19l-19 -26q-2 -1 -10 -10l-6 -6q-3 -3 -5 -4
l-56 -40q-2 -2 -13 -7q-12 -4 -16 -4h-30q-46 11 -52 61l-6 48l7 9q6 13 15 25l30 28q5 5 5 8l23 16l16 16q5 3 44 34q2 2 4 3z" />
    <glyph glyph-name="acircumflex" unicode="&#xe2;" horiz-adv-x="573" 
d="M229 620l-41 64q-16 -46 -40 -77q-29 -39 -65 -51l-13 4l-11 7l-6 9l-1 -1q-5 7 -5 12q0 3 1 5l5 11l2 9l41 27q16 19 33 53q12 24 27 60l19 49q8 21 11 21q8 0 24 -42q11 -56 50 -98q38 -41 85 -47q36 0 64 23q32 26 33 68l-1 20l1 -2q32 -60 32 -99q0 -51 -30 -80
q-27 -25 -67 -27h-8q-54 0 -90 24q-25 22 -50 58zM140 212l-51 -80v-15l4 -13q8 -25 38 -25q47 17 65 45q6 10 12 25l6 20l4 8q0 5 -7 27q-3 10 -6 16q-3 8 -5 8h-20l-11 -6zM136 236h3q10 6 24 21l22 28v24l-7 26l-30 84l-20 35q-6 7 -9 19q-2 9 -2 17l1 9l5 12l8 8l2 2
l2 2q4 5 8 9q5 5 9 8l8 4l22 2l13 -3q45 -26 63 -84h-1q5 -12 8 -34q1 -1 1 -2v-3q0 -2 1 -4q1 -5 1 -9q2 -10 5 -17l13 -39l5 -32q3 -3 3 -9q9 -51 17 -60q10 -51 26 -78q12 -20 45 -51l51 -36q3 -1 11 -6l18 -12q43 -14 43 -29t-37 -25q-34 -10 -79 -10q-33 0 -65 12
l-16 7l-41 41q-11 10 -20 25l-11 19h-2q-1 0 -5 -3l-24 -19l-19 -26q-2 -1 -10 -10l-6 -6q-3 -3 -5 -4l-56 -40q-2 -2 -13 -7q-12 -4 -16 -4h-30q-46 11 -52 61l-6 48l7 9q6 13 15 25l30 28q5 5 5 8l23 16l16 16q5 3 44 34q2 2 4 3z" />
    <glyph glyph-name="atilde" unicode="&#xe3;" horiz-adv-x="573" 
d="M333 722q1 -3 1 -6q1 -6 2 -7q-6 -71 -32 -101q-21 -26 -58 -26q-16 0 -38 5q-14 3 -39 12l-38 11q-20 5 -34 5q-21 0 -33 -11l-38 -31q6 74 28 106q18 28 49 28q16 0 37 -7q9 -3 20 -8q5 -1 11 -4l10 -4q6 -3 10 -4q6 -3 10 -4q11 -5 20 -8q23 -7 39 -7q49 0 72 65z
M140 212l-51 -80v-15l4 -13q8 -25 38 -25q47 17 65 45q6 10 12 25l6 20l4 8q0 5 -7 27q-3 10 -6 16q-3 8 -5 8h-20l-11 -6zM136 236h3q10 6 24 21l22 28v24l-7 26l-30 84l-20 35q-6 7 -9 19q-2 9 -2 17l1 9l5 12l8 8l2 2l2 2q4 5 8 9q5 5 9 8l8 4l22 2l13 -3q45 -26 63 -84
h-1q5 -12 8 -34q1 -1 1 -2v-3q0 -2 1 -4q1 -5 1 -9q2 -10 5 -17l13 -39l5 -32q3 -3 3 -9q9 -51 17 -60q10 -51 26 -78q12 -20 45 -51l51 -36q3 -1 11 -6l18 -12q43 -14 43 -29t-37 -25q-34 -10 -79 -10q-33 0 -65 12l-16 7l-41 41q-11 10 -20 25l-11 19h-2q-1 0 -5 -3
l-24 -19l-19 -26q-2 -1 -10 -10l-6 -6q-3 -3 -5 -4l-56 -40q-2 -2 -13 -7q-12 -4 -16 -4h-30q-46 11 -52 61l-6 48l7 9q6 13 15 25l30 28q5 5 5 8l23 16l16 16q5 3 44 34q2 2 4 3z" />
    <glyph glyph-name="adieresis" unicode="&#xe4;" horiz-adv-x="573" 
d="M295 583q-31 -1 -48 15q-21 20 -29 72v10q13 20 38 30q16 6 34 6h4q32 -1 42 -18q4 -8 6 -20q1 -9 1 -27v-23q-1 -13 -5 -22q-8 -23 -36 -23h-7zM109 580q-35 1 -51 15q-23 19 -31 72l1 10q14 22 41 31q9 4 19 5q8 1 15 1q31 0 42 -17q7 -12 7 -44v-23q-1 -14 -4 -24
q-8 -26 -37 -26h-2zM140 212l-51 -80v-15l4 -13q8 -25 38 -25q47 17 65 45q6 10 12 25l6 20l4 8q0 5 -7 27q-3 10 -6 16q-3 8 -5 8h-20l-11 -6zM136 236h3q10 6 24 21l22 28v24l-7 26l-30 84l-20 35q-6 7 -9 19q-2 9 -2 17l1 9l5 12l8 8l2 2l2 2q4 5 8 9q5 5 9 8l8 4l22 2
l13 -3q45 -26 63 -84h-1q5 -12 8 -34q1 -1 1 -2v-3q0 -2 1 -4q1 -5 1 -9q2 -10 5 -17l13 -39l5 -32q3 -3 3 -9q9 -51 17 -60q10 -51 26 -78q12 -20 45 -51l51 -36q3 -1 11 -6l18 -12q43 -14 43 -29t-37 -25q-34 -10 -79 -10q-33 0 -65 12l-16 7l-41 41q-11 10 -20 25l-11 19
h-2q-1 0 -5 -3l-24 -19l-19 -26q-2 -1 -10 -10l-6 -6q-3 -3 -5 -4l-56 -40q-2 -2 -13 -7q-12 -4 -16 -4h-30q-46 11 -52 61l-6 48l7 9q6 13 15 25l30 28q5 5 5 8l23 16l16 16q5 3 44 34q2 2 4 3z" />
    <glyph glyph-name="ae" unicode="&#xe6;" horiz-adv-x="712" 
d="M134 197l-45 -65v-15l4 -13q8 -25 38 -25q47 17 65 45q6 10 12 25l6 20l4 8q0 5 -7 27q-3 10 -6 16q-3 8 -5 8h-20l-11 -6zM382 3q-29 1 -58 12l-16 7l-41 41q-11 10 -20 25l-11 19h-2q-1 0 -5 -3l-24 -19l-19 -26q-2 -1 -10 -10l-6 -6q-3 -3 -5 -4l-56 -40q-2 -2 -13 -7
q-12 -4 -16 -4h-30q-46 11 -52 61l-6 48l7 9q6 13 15 25l30 28q5 5 5 8l23 16l16 16q5 3 44 34q2 2 4 3h3q10 6 24 21l22 28v24l-7 26l-30 84l-20 35q-6 7 -9 19q-2 9 -2 17l1 9l5 12l8 8l2 2l2 2q4 5 8 9q5 5 9 8l8 4l22 2l13 -3q45 -26 63 -84h-1q5 -12 8 -34l1 -1
q3 4 7 7l15 11l18 17q7 6 10 10l7 5l66 37l5 6l26 11l19 4q5 0 46 8q6 3 10 4h41q2 0 8 -2l51 -11q41 -17 33 -30.5t-26.5 -11.5t-77.5 -2l-64 -5q-26 -18 -52 -18q-34 0 -65 -33l-23 -34v-11l-5 -10l-1 -10q3 1 6 1q73 8 175 12.5t135.5 8.5t35.5 -2.5t-16 -19t-26.5 -20.5
t-14.5 -10t-53.5 -5.5t-190.5 -17.5q-31 -3 -55 -4q0 -3 1 -7l-2 -22l2 -20l14 -40q0 -1 4 -7l29 -50q1 -1 1 -2l2 -2l3 -4l19 -24q12 -14 22 -22q13 -10 38 -29q3 -2 9 -3q2 -1 6 -1l33 -10q2 -2 3 -2q23 -5 55 -8h75q0 -17 -51 -41q-55 -26 -103 -26q-50 0 -88 14z" />
    <glyph glyph-name="ccedilla" unicode="&#xe7;" horiz-adv-x="556" 
d="M319 -10v-2l2 -5l-6 -33l37 -63q6 -14 17 -28q3 -5 9 -11l9 -11q20 -25 20 -44q0 -13 -8 -32l-9 -30q-2 -4 -5 -8l-6 -6l-8 -12l-6 -3q-12 -14 -36 -24q-8 -4 -20 -8l-15 -4l-40 -14l-38 -7q-11 -4 -28 -4l-11 1l-9 3q-4 0 -9 3q-5 4 -5 8l-1 4l3 5l12 10l33 14
q19 8 30 14q14 9 17 16v1q0 10 7 24l5 32q0 2 -2 8q-2 5 -2 7v1q-1 27 -19 51l-30 55v9q0 13 1 25q2 16 6 29q9 28 25 40l-10 4q-8 3 -17 8l-96 41q-28 16 -34.5 24t-12.5 25l-14 18l-9 27q-3 21 -7 35q-4 13 -4 20v80l2 6l4 12q4 8 5 14q3 7 4 11l7 17q16 31 35 56
q13 17 30 33l15 11l18 17q7 6 10 10l7 5l66 37l5 6l26 11l19 4q5 0 46 8q6 3 10 4h41q2 0 8 -2l38 -25l40 -32q4 -3 10 -10l11 -13q12 -16 14 -15v-16q0 -8 -25 -27q-28 -21 -55 -21l-24 -2l-20 5q-1 1 -6 4l-18 13l-8 13q-5 1 -9 5l-17 12q-5 3 -10 5l-15 9q-16 17 -42 17
q-34 0 -65 -33l-23 -34v-11l-5 -10l-3 -30q-2 -17 -2 -29q0 -5 1 -11l-2 -26l2 -20l14 -40q0 -1 4 -7l29 -50q1 -1 1 -2l2 -2l3 -4l19 -24q12 -14 22 -22q13 -10 38 -29q3 -2 9 -3q2 -1 6 -1l33 -10q2 -2 3 -2q23 -5 55 -8h75q0 -17 -51 -41q-55 -26 -103 -26z" />
    <glyph glyph-name="egrave" unicode="&#xe8;" horiz-adv-x="562" 
d="M141 310q0 -3 1 -7l-2 -22l2 -20l14 -40q0 -1 4 -7l29 -50q1 -1 1 -2l2 -2l3 -4l19 -24q12 -14 22 -22q13 -10 38 -29q3 -2 9 -3q2 -1 6 -1l33 -10q2 -2 3 -2q23 -5 55 -8h75q0 -17 -51 -41q-55 -26 -103 -26q-52 0 -90 15q-8 3 -17 8l-96 41q-28 16 -34.5 24t-12.5 25
l-14 18l-9 27q-3 21 -7 35q-4 13 -4 20v80l2 6l4 12q4 8 5 14q3 7 4 11l7 17q16 31 35 56q13 17 30 33l15 11l18 17q7 6 10 10l7 5l66 37l5 6l26 11l19 4q5 0 46 8q6 3 10 4h41q2 0 8 -2l51 -11q41 -17 33 -30.5t-26.5 -11.5t-77.5 -2l-64 -5q-26 -18 -52 -18q-34 0 -65 -33
l-23 -34v-11l-5 -10l-1 -10q3 1 6 1q73 8 175 12.5t135.5 8.5t35.5 -2.5t-16 -19t-26.5 -20.5t-14.5 -10t-53.5 -5.5t-190.5 -17.5q-31 -3 -55 -4zM304 686q-3 15 -4 22q-2 9 -3 10q-3 4 -11 11l-17 17q-11 10 -19 15q-9 7 -13 7l-6 1q-8 0 -19 -2l-31 -5q-6 -1 -11 -1
q-12 -2 -22 -2l-20 2q-5 0 -18 2l-15 3l-19 11l-15 15q-1 1 -2 7l-2 8l-1 14l41 37l32 16q2 2 11 5q8 3 12 3h6q0 -4 -2 -11q-11 -14 3 -27l6 -7q5 0 14 -4l15 -4q15 -2 29 -4h20l17 3q18 4 33 8l21 4l26 -6l32 -16q20 -17 23 -20l11 -11q2 -2 5 -8l14 -31v-12
q-1 -14 -6 -29q0 -7 -13 -30q-13 -24 -18 -31t-25 -37q-7 -10 -19 -19l-43 -27q-31 -15 -36 -15l-4 1v10q8 14 11 25q0 2 5 8l4 6q4 4 6 8q7 10 10 21q5 13 6 31z" />
    <glyph glyph-name="eacute" unicode="&#xe9;" horiz-adv-x="562" 
d="M141 310q0 -3 1 -7l-2 -22l2 -20l14 -40q0 -1 4 -7l29 -50q1 -1 1 -2l2 -2l3 -4l19 -24q12 -14 22 -22q13 -10 38 -29q3 -2 9 -3q2 -1 6 -1l33 -10q2 -2 3 -2q23 -5 55 -8h75q0 -17 -51 -41q-55 -26 -103 -26q-52 0 -90 15q-8 3 -17 8l-96 41q-28 16 -34.5 24t-12.5 25
l-14 18l-9 27q-3 21 -7 35q-4 13 -4 20v80l2 6l4 12q4 8 5 14q3 7 4 11l7 17q16 31 35 56q13 17 30 33l15 11l18 17q7 6 10 10l7 5l66 37l5 6l26 11l19 4q5 0 46 8q6 3 10 4h41q2 0 8 -2l51 -11q41 -17 33 -30.5t-26.5 -11.5t-77.5 -2l-64 -5q-26 -18 -52 -18q-34 0 -65 -33
l-23 -34v-11l-5 -10l-1 -10q3 1 6 1q73 8 175 12.5t135.5 8.5t35.5 -2.5t-16 -19t-26.5 -20.5t-14.5 -10t-53.5 -5.5t-190.5 -17.5q-31 -3 -55 -4zM178 612q3 0 18 7l13 7q7 4 10 7l27 26q13 13 36 39l37 40q43 44 74 44h10q6 -1 11 -3q14 -5 14 -20q0 -7 -4 -15l-18 -34
l-51 -58q-37 -45 -86 -68q-40 -20 -75 -20q-25 0 -45 7q-17 5 -17 9q0 3 6 8q5 4 11 7z" />
    <glyph glyph-name="ecircumflex" unicode="&#xea;" horiz-adv-x="559" 
d="M141 310q0 -3 1 -7l-2 -22l2 -20l14 -40q0 -1 4 -7l29 -50q1 -1 1 -2l2 -2l3 -4l19 -24q12 -14 22 -22q13 -10 38 -29q3 -2 9 -3q2 -1 6 -1l33 -10q2 -2 3 -2q23 -5 55 -8h75q0 -17 -51 -41q-55 -26 -103 -26q-52 0 -90 15q-8 3 -17 8l-96 41q-28 16 -34.5 24t-12.5 25
l-14 18l-9 27q-3 21 -7 35q-4 13 -4 20v80l2 6l4 12q4 8 5 14q3 7 4 11l7 17q16 31 35 56q13 17 30 33l15 11l18 17q7 6 10 10l7 5l66 37l5 6l26 11l19 4q5 0 46 8q6 3 10 4h41q2 0 8 -2l51 -11q41 -17 33 -30.5t-26.5 -11.5t-77.5 -2l-64 -5q-26 -18 -52 -18q-34 0 -65 -33
l-23 -34v-11l-5 -10l-1 -10q3 1 6 1q73 8 175 12.5t135.5 8.5t35.5 -2.5t-16 -19t-26.5 -20.5t-14.5 -10t-53.5 -5.5t-190.5 -17.5q-31 -3 -55 -4zM255 636l-41 64q-16 -46 -40 -77q-29 -39 -65 -51l-13 4l-11 7l-6 9l-1 -1q-5 7 -5 12q0 3 1 5l5 11l2 9l41 27q16 19 33 53
q12 24 27 60l19 49q8 21 11 21q8 0 24 -42q11 -56 50 -98q38 -41 85 -47q36 0 64 23q32 26 33 68l-1 20l1 -2q32 -60 32 -99q0 -51 -30 -80q-27 -25 -67 -27h-8q-54 0 -90 24q-25 22 -50 58z" />
    <glyph glyph-name="edieresis" unicode="&#xeb;" horiz-adv-x="562" 
d="M141 310q0 -3 1 -7l-2 -22l2 -20l14 -40q0 -1 4 -7l29 -50q1 -1 1 -2l2 -2l3 -4l19 -24q12 -14 22 -22q13 -10 38 -29q3 -2 9 -3q2 -1 6 -1l33 -10q2 -2 3 -2q23 -5 55 -8h75q0 -17 -51 -41q-55 -26 -103 -26q-52 0 -90 15q-8 3 -17 8l-96 41q-28 16 -34.5 24t-12.5 25
l-14 18l-9 27q-3 21 -7 35q-4 13 -4 20v80l2 6l4 12q4 8 5 14q3 7 4 11l7 17q16 31 35 56q13 17 30 33l15 11l18 17q7 6 10 10l7 5l66 37l5 6l26 11l19 4q5 0 46 8q6 3 10 4h41q2 0 8 -2l51 -11q41 -17 33 -30.5t-26.5 -11.5t-77.5 -2l-64 -5q-26 -18 -52 -18q-34 0 -65 -33
l-23 -34v-11l-5 -10l-1 -10q3 1 6 1q73 8 175 12.5t135.5 8.5t35.5 -2.5t-16 -19t-26.5 -20.5t-14.5 -10t-53.5 -5.5t-190.5 -17.5q-31 -3 -55 -4zM392 586q-31 -1 -48 15q-21 20 -29 72v10q13 20 38 30q16 6 34 6h4q32 -1 42 -18q4 -8 6 -20q1 -9 1 -27v-23q-1 -13 -5 -22
q-8 -23 -36 -23h-7zM206 583q-35 1 -51 15q-23 19 -31 72l1 10q14 22 41 31q9 4 19 5q8 1 15 1q31 0 42 -17q7 -12 7 -44v-23q-1 -14 -4 -24q-8 -26 -37 -26h-2z" />
    <glyph glyph-name="igrave" unicode="&#xec;" horiz-adv-x="261" 
d="M0 475q-11 12 27.5 34.5t70.5 29t39 4t12.5 -49t3 -216.5t-1 -217.5t-1.5 -53.5t-20 -15t-32 -27.5t-28 -16.5t-11.5 36t-7 136.5t-5.5 201.5t0 116t-10 22.5t-36 15.5zM112 683q-3 15 -4 22q-2 9 -3 10q-3 4 -11 11l-17 17q-11 10 -19 15q-9 7 -13 7l-6 1q-8 0 -19 -2
l-31 -5q-6 -1 -11 -1q-12 -2 -22 -2l-20 2q-5 0 -18 2l-15 3l-19 11l-15 15q-1 1 -2 7l-2 8l-1 14l41 37l32 16q2 2 11 5q8 3 12 3h6q0 -4 -2 -11q-11 -14 3 -27l6 -7q5 0 14 -4l15 -4q15 -2 29 -4h20l17 3q18 4 33 8l21 4l26 -6l32 -16q20 -17 23 -20l11 -11q2 -2 5 -8
l14 -31v-12q-1 -14 -6 -29q0 -7 -13 -30q-13 -24 -18 -31t-25 -37q-7 -10 -19 -19l-43 -27q-31 -15 -36 -15l-4 1v10q8 14 11 25q0 2 5 8l4 6q4 4 6 8q7 10 10 21q5 13 6 31z" />
    <glyph glyph-name="iacute" unicode="&#xed;" horiz-adv-x="261" 
d="M0 475q-11 12 27.5 34.5t70.5 29t39 4t12.5 -49t3 -216.5t-1 -217.5t-1.5 -53.5t-20 -15t-32 -27.5t-28 -16.5t-11.5 36t-7 136.5t-5.5 201.5t0 116t-10 22.5t-36 15.5zM93 612q3 0 18 7l13 7q7 4 10 7l27 26q13 13 36 39l37 40q43 44 74 44h10q6 -1 11 -3q14 -5 14 -20
q0 -7 -4 -15l-18 -34l-51 -58q-37 -45 -86 -68q-40 -20 -75 -20q-25 0 -45 7q-17 5 -17 9q0 3 6 8q5 4 11 7z" />
    <glyph glyph-name="icircumflex" unicode="&#xee;" horiz-adv-x="261" 
d="M0 475q-11 12 27.5 34.5t70.5 29t39 4t12.5 -49t3 -216.5t-1 -217.5t-1.5 -53.5t-20 -15t-32 -27.5t-28 -16.5t-11.5 36t-7 136.5t-5.5 201.5t0 116t-10 22.5t-36 15.5zM131 611l-41 64q-16 -46 -40 -77q-29 -39 -65 -51l-13 4l-11 7l-6 9l-1 -1q-5 7 -5 12q0 3 1 5l5 11
l2 9l41 27q16 19 33 53q12 24 27 60l19 49q8 21 11 21q8 0 24 -42q11 -56 50 -98q38 -41 85 -47q36 0 64 23q32 26 33 68l-1 20l1 -2q32 -60 32 -99q0 -51 -30 -80q-27 -25 -67 -27h-8q-54 0 -90 24q-25 22 -50 58z" />
    <glyph glyph-name="idieresis" unicode="&#xef;" horiz-adv-x="261" 
d="M0 475q-11 12 27.5 34.5t70.5 29t39 4t12.5 -49t3 -216.5t-1 -217.5t-1.5 -53.5t-20 -15t-32 -27.5t-28 -16.5t-11.5 36t-7 136.5t-5.5 201.5t0 116t-10 22.5t-36 15.5zM194 583q-31 -1 -48 15q-21 20 -29 72v10q13 20 38 30q16 6 34 6h4q32 -1 42 -18q4 -8 6 -20
q1 -9 1 -27v-23q-1 -13 -5 -22q-8 -23 -36 -23h-7zM8 580q-35 1 -51 15q-23 19 -31 72l1 10q14 22 41 31q9 4 19 5q8 1 15 1q31 0 42 -17q7 -12 7 -44v-23q-1 -14 -4 -24q-8 -26 -37 -26h-2z" />
    <glyph glyph-name="eth" unicode="&#xf0;" horiz-adv-x="561" 
d="M132 196q0 -4 3 -12l10 -33q2 -8 2 -10l28 -37l19 -17l39 -23l29 -8q7 -1 10 -1h4q60 6 90 43q1 3 6 12q5 12 6 13l16 28l30 60v43q0 38 -4 57q-3 9 -8 22l-11 29l-16 17q-11 12 -20 23l-15 15l-17 9l-14 -1l-12 -9q-6 -5 -14 -7q-2 -1 -6 -2h-6q-7 -2 -14 -7
q-10 -7 -22 -19l-12 -10q-8 -7 -20 -14l-6 -2q-4 -1 -6 -3q-8 -4 -25 -36q-2 -5 -5 -8l-25 -28q-14 -21 -14 -40v-44zM354 589q9 -8 25 -8l17 -1q10 -1 17 -2l-2 1q29 7 43 28l6 11l14 15q2 0 5 3l6 4l7 3q4 1 7 2v-1l8 -1q10 -6 8 -25q2 -6 1 -10q-5 -18 -46 -39
q-15 -8 -35 -16q-15 -6 -32 -12q-5 -3 -10 -5l36 -55l19 -23l13 -22q1 -1 8 -9q6 -8 19 -29q13 -28 17 -57q3 -18 3 -51q0 -22 -4 -39l-2 -32l-15 -29q0 -3 -9 -16q-9 -12 -20 -26l-22 -25q-11 -10 -15 -10l-36 -40l-62 -48q-6 -10 -51 -31l-38 -11q-5 -2 -7 -2h-17
q-8 0 -18 2l-35 9q-10 2 -17 2l-12 6l-20 15q-10 7 -15 10q-7 5 -9 5l-33 68l-4 8l-9 32v13q1 13 4 29q3 10 7 27q5 17 7 25q2 13 2 22q2 9 13 25q9 14 24 32q29 34 45 46q2 1 8 6q2 2 7 5l47 38q11 8 32 18q20 11 26 11l26 16q2 3 16 12q1 4 1 8l-1 7l-11 19q-2 4 -10 13
l-10 12q-6 8 -13 15q-7 1 -11 2l-41 -10q-3 -1 -9 -4l-8 -5q-10 -6 -15 -3l-16 -17l-5 -16l-3 -21l-6 -9q-13 -12 -34 -5q-10 4 -18 12l-5 16l2 11l6 14q20 20 44 35q20 12 47 21l25 8l15 5q-8 8 -17 16q-25 23 -46 38l-47 24l-4 6v3l5 7q1 0 9 5l10 5l32 19q5 6 27 6h13
q7 0 13 -1q15 -2 29 -7q27 -17 66 -64l21 -19q1 -3 9 -13z" />
    <glyph glyph-name="ograve" unicode="&#xf2;" horiz-adv-x="664" 
d="M23 258v7q0 90 83 183q41 47 90 73q55 30 113 30q41 0 79 -15l38 -11q145 -52 173 -213v-52l-5 -30q-7 -37 -30 -73q-19 -30 -51 -60q-25 -24 -59 -48q-12 -9 -28 -20l-25 -17l-55 -15q-27 -6 -71 -6q-58 0 -112 26l-19 18q-77 72 -95 113l-13 32q-8 20 -9 33l-1 15
q0 5 -1 10q0 6 -1 12q-1 4 -1 8zM137 359q-10 -24 -4 -42l5 -34q0 -3 2 -9l13 -34l35 -63q2 -2 19 -31l31 -33q12 -14 36 -24l33 -14q4 -3 18 -6q12 -3 37 0l45 10q17 9 23 11l10 5q6 4 11 9q6 7 15 17l11 21q21 43 21 74v17q-1 11 -2 12q-1 4 -6 13l-24 48l-26 47l-21 33
q-5 6 -23 18q-17 12 -40 26q-26 14 -45 24q-33 3 -42 3q-14 -1 -28 -3q-6 0 -13 -2q-9 -3 -18 -9q-34 -14 -51 -44zM313 689q-3 15 -4 22q-2 9 -3 10q-3 4 -11 11l-17 17q-11 10 -19 15q-9 7 -13 7l-6 1q-8 0 -19 -2l-31 -5q-6 -1 -11 -1q-12 -2 -22 -2l-20 2q-5 0 -18 2
l-15 3l-19 11l-15 15q-1 1 -2 7l-2 8l-1 14l41 37l32 16q2 2 11 5q8 3 12 3h6q0 -4 -2 -11q-11 -14 3 -27l6 -7q5 0 14 -4l15 -4q15 -2 29 -4h20l17 3q18 4 33 8l21 4l26 -6l32 -16q20 -17 23 -20l11 -11q2 -2 5 -8l14 -31v-12q-1 -14 -6 -29q0 -7 -13 -30q-13 -24 -18 -31
t-25 -37q-7 -10 -19 -19l-43 -27q-31 -15 -36 -15l-4 1v10q8 14 11 25q0 2 5 8l4 6q4 4 6 8q7 10 10 21q5 13 6 31z" />
    <glyph glyph-name="oacute" unicode="&#xf3;" horiz-adv-x="664" 
d="M23 261v7q0 90 83 183q41 47 90 73q55 30 113 30q41 0 79 -15l38 -11q145 -52 173 -213v-52l-5 -30q-7 -37 -30 -73q-19 -30 -51 -60q-25 -24 -59 -48q-12 -9 -28 -20l-25 -17l-55 -15q-27 -6 -71 -6q-58 0 -112 26l-19 18q-77 72 -95 113l-13 32q-8 20 -9 33l-1 15
q0 5 -1 10q0 6 -1 12q-1 4 -1 8zM137 362q-10 -24 -4 -42l5 -34q0 -3 2 -9l13 -34l35 -63q2 -2 19 -31l31 -33q12 -14 36 -24l33 -14q4 -3 18 -6q12 -3 37 0l45 10q17 9 23 11l10 5q6 4 11 9q6 7 15 17l11 21q21 43 21 74v17q-1 11 -2 12q-1 4 -6 13l-24 48l-26 47l-21 33
q-5 6 -23 18q-17 12 -40 26q-26 14 -45 24q-33 3 -42 3q-14 -1 -28 -3q-6 0 -13 -2q-9 -3 -18 -9q-34 -14 -51 -44zM235 622q3 0 18 7l13 7q7 4 10 7l27 26q13 13 36 39l37 40q43 44 74 44h10q6 -1 11 -3q14 -5 14 -20q0 -7 -4 -15l-18 -34l-51 -58q-37 -45 -86 -68
q-40 -20 -75 -20q-25 0 -45 7q-17 5 -17 9q0 3 6 8q5 4 11 7z" />
    <glyph glyph-name="ocircumflex" unicode="&#xf4;" horiz-adv-x="667" 
d="M20 255v7q0 90 83 183q41 47 90 73q55 30 113 30q41 0 79 -15l38 -11q145 -52 173 -213v-52l-5 -30q-7 -37 -30 -73q-19 -30 -51 -60q-25 -24 -59 -48q-12 -9 -28 -20l-25 -17l-55 -15q-27 -6 -71 -6q-58 0 -112 26l-19 18q-77 72 -95 113l-13 32q-8 20 -9 33l-1 15
q0 5 -1 10q0 6 -1 12q-1 4 -1 8zM134 356q-10 -24 -4 -42l5 -34q0 -3 2 -9l13 -34l35 -63q2 -2 19 -31l31 -33q12 -14 36 -24l33 -14q4 -3 18 -6q12 -3 37 0l45 10q17 9 23 11l10 5q6 4 11 9q6 7 15 17l11 21q21 43 21 74v17q-1 11 -2 12q-1 4 -6 13l-24 48l-26 47l-21 33
q-5 6 -23 18q-17 12 -40 26q-26 14 -45 24q-33 3 -42 3q-14 -1 -28 -3q-6 0 -13 -2q-9 -3 -18 -9q-34 -14 -51 -44zM258 636l-41 64q-16 -46 -40 -77q-29 -39 -65 -51l-13 4l-11 7l-6 9l-1 -1q-5 7 -5 12q0 3 1 5l5 11l2 9l41 27q16 19 33 53q12 24 27 60l19 49q8 21 11 21
q8 0 24 -42q11 -56 50 -98q38 -41 85 -47q36 0 64 23q32 26 33 68l-1 20l1 -2q32 -60 32 -99q0 -51 -30 -80q-27 -25 -67 -27h-8q-54 0 -90 24q-25 22 -50 58z" />
    <glyph glyph-name="otilde" unicode="&#xf5;" horiz-adv-x="658" 
d="M29 261v7q0 90 83 183q41 47 90 73q55 30 113 30q41 0 79 -15l38 -11q145 -52 173 -213v-52l-5 -30q-7 -37 -30 -73q-19 -30 -51 -60q-25 -24 -59 -48q-12 -9 -28 -20l-25 -17l-55 -15q-27 -6 -71 -6q-58 0 -112 26l-19 18q-77 72 -95 113l-13 32q-8 20 -9 33l-1 15
q0 5 -1 10q0 6 -1 12q-1 4 -1 8zM143 362q-10 -24 -4 -42l5 -34q0 -3 2 -9l13 -34l35 -63q2 -2 19 -31l31 -33q12 -14 36 -24l33 -14q4 -3 18 -6q12 -3 37 0l45 10q17 9 23 11l10 5q6 4 11 9q6 7 15 17l11 21q21 43 21 74v17q-1 11 -2 12q-1 4 -6 13l-24 48l-26 47l-21 33
q-5 6 -23 18q-17 12 -40 26q-26 14 -45 24q-33 3 -42 3q-14 -1 -28 -3q-6 0 -13 -2q-9 -3 -18 -9q-34 -14 -51 -44zM465 725q1 -3 1 -6q1 -6 2 -7q-6 -71 -32 -101q-21 -26 -58 -26q-16 0 -38 5q-14 3 -39 12l-38 11q-20 5 -34 5q-21 0 -33 -11l-38 -31q6 74 28 106
q18 28 49 28q16 0 37 -7q9 -3 20 -8q5 -1 11 -4l10 -4q6 -3 10 -4q6 -3 10 -4q11 -5 20 -8q23 -7 39 -7q49 0 72 65z" />
    <glyph glyph-name="odieresis" unicode="&#xf6;" horiz-adv-x="661" 
d="M22 261v7q0 90 83 183q41 47 90 73q55 30 113 30q41 0 79 -15l38 -11q145 -52 173 -213v-52l-5 -30q-7 -37 -30 -73q-19 -30 -51 -60q-25 -24 -59 -48q-12 -9 -28 -20l-25 -17l-55 -15q-27 -6 -71 -6q-58 0 -112 26l-19 18q-77 72 -95 113l-13 32q-8 20 -9 33l-1 15
q0 5 -1 10q0 6 -1 12q-1 4 -1 8zM136 362q-10 -24 -4 -42l5 -34q0 -3 2 -9l13 -34l35 -63q2 -2 19 -31l31 -33q12 -14 36 -24l33 -14q4 -3 18 -6q12 -3 37 0l45 10q17 9 23 11l10 5q6 4 11 9q6 7 15 17l11 21q21 43 21 74v17q-1 11 -2 12q-1 4 -6 13l-24 48l-26 47l-21 33
q-5 6 -23 18q-17 12 -40 26q-26 14 -45 24q-33 3 -42 3q-14 -1 -28 -3q-6 0 -13 -2q-9 -3 -18 -9q-34 -14 -51 -44zM407 585q-31 -1 -48 15q-21 20 -29 72v10q13 20 38 30q16 6 34 6h4q32 -1 42 -18q4 -8 6 -20q1 -9 1 -27v-23q-1 -13 -5 -22q-8 -23 -36 -23h-7zM221 582
q-35 1 -51 15q-23 19 -31 72l1 10q14 22 41 31q9 4 19 5q8 1 15 1q31 0 42 -17q7 -12 7 -44v-23q-1 -14 -4 -24q-8 -26 -37 -26h-2z" />
    <glyph glyph-name="oslash" unicode="&#xf8;" horiz-adv-x="661" 
d="M350 440q-15 8 -27 14q-33 3 -42 3q-14 -1 -28 -3q-6 0 -13 -2q-9 -3 -18 -9q-34 -14 -51 -44l-22 -40q-10 -24 -4 -42l5 -34q0 -3 2 -9l13 -34l35 -63q2 -2 19 -31l12 -12l27 68q10 26 21 49l61 161q5 15 10 28zM436 378l-7 -13l-24 -45q-18 -46 -38 -93
q-19 -43 -41 -90l-27 -54l20 -8q4 -3 18 -6q12 -3 37 0l45 10q17 9 23 11l10 5q6 4 11 9q6 7 15 17l11 21q21 43 21 74v17q-1 11 -2 12q-1 4 -6 13l-24 48l-26 47zM170 21l-14 14q-77 72 -95 113l-13 32q-8 20 -9 33l-1 15q0 5 -1 10q0 6 -1 12q-1 4 -1 8v7q0 90 83 183
q41 47 90 73q55 30 113 30q30 0 58 -8v1l13 18q4 4 7 14q3 30 40 41q26 7 79 7h40q0 -4 -5 -8l-21 -21v2q-1 0 -8 -15l-35 -67q-3 -7 -6 -11q105 -58 128 -192v-52l-5 -30q-7 -37 -30 -73q-19 -30 -51 -60q-25 -24 -59 -48q-12 -9 -28 -20l-25 -17l-55 -15q-27 -6 -71 -6
q-16 0 -33 2l-19 -39l-9 -11l-1 -3q0 -1 -1 -2h-8l-9 -8l-12 -5l-17 -5q-18 -5 -29 -7h-27q-9 0 -28 5l-18 4q-12 3 -24 4l-4 14q-2 7 -2 10q0 5 4 8q3 2 9 3h7q0 -1 5 1l20 1l6 2q5 1 6 2l15 6l16 10z" />
    <glyph glyph-name="ugrave" unicode="&#xf9;" horiz-adv-x="686" 
d="M534 84q0 25 -1 62q-4 109 -6 196t-5 103.5t-10 22t-35 15.5q-11 12 27 33.5t69 28t38 4t12.5 -48t3 -210.5t-1 -211.5t-2.5 -76t-20 -27.5t-31 9t-26 20q-7 5 -9 12q-47 -26 -88 -27q-70 -1 -127 8.5t-122.5 51.5t-85 80t-23.5 95t-3 115t-1 77.5t-5.5 31t-13.5 13
t-16.5 3.5t-18.5 26q15 27 35.5 36.5t55.5 12.5t52 4t22.5 -28.5t6 -67.5t-1.5 -99.5t0.5 -130t46 -107t110.5 -53t125 5.5q23 8 49 21zM397 686q-3 15 -4 22q-2 9 -3 10q-3 4 -11 11l-17 17q-11 10 -19 15q-9 7 -13 7l-6 1q-8 0 -19 -2l-31 -5q-6 -1 -11 -1q-12 -2 -22 -2
l-20 2q-5 0 -18 2l-15 3l-19 11l-15 15q-1 1 -2 7l-2 8l-1 14l41 37l32 16q2 2 11 5q8 3 12 3h6q0 -4 -2 -11q-11 -14 3 -27l6 -7q5 0 14 -4l15 -4q15 -2 29 -4h20l17 3q18 4 33 8l21 4l26 -6l32 -16q20 -17 23 -20l11 -11q2 -2 5 -8l14 -31v-12q-1 -14 -6 -29q0 -7 -13 -30
q-13 -24 -18 -31t-25 -37q-7 -10 -19 -19l-43 -27q-31 -15 -36 -15l-4 1v10q8 14 11 25q0 2 5 8l4 6q4 4 6 8q7 10 10 21q5 13 6 31z" />
    <glyph glyph-name="uacute" unicode="&#xfa;" horiz-adv-x="686" 
d="M534 84q0 25 -1 62q-4 109 -6 196t-5 103.5t-10 22t-35 15.5q-11 12 27 33.5t69 28t38 4t12.5 -48t3 -210.5t-1 -211.5t-2.5 -76t-20 -27.5t-31 9t-26 20q-7 5 -9 12q-47 -26 -88 -27q-70 -1 -127 8.5t-122.5 51.5t-85 80t-23.5 95t-3 115t-1 77.5t-5.5 31t-13.5 13
t-16.5 3.5t-18.5 26q15 27 35.5 36.5t55.5 12.5t52 4t22.5 -28.5t6 -67.5t-1.5 -99.5t0.5 -130t46 -107t110.5 -53t125 5.5q23 8 49 21zM312 618q3 0 18 7l13 7q7 4 10 7l27 26q13 13 36 39l37 40q43 44 74 44h10q6 -1 11 -3q14 -5 14 -20q0 -7 -4 -15l-18 -34l-51 -58
q-37 -45 -86 -68q-40 -20 -75 -20q-25 0 -45 7q-17 5 -17 9q0 3 6 8q5 4 11 7z" />
    <glyph glyph-name="ucircumflex" unicode="&#xfb;" horiz-adv-x="686" 
d="M534 84q0 25 -1 62q-4 109 -6 196t-5 103.5t-10 22t-35 15.5q-11 12 27 33.5t69 28t38 4t12.5 -48t3 -210.5t-1 -211.5t-2.5 -76t-20 -27.5t-31 9t-26 20q-7 5 -9 12q-47 -26 -88 -27q-70 -1 -127 8.5t-122.5 51.5t-85 80t-23.5 95t-3 115t-1 77.5t-5.5 31t-13.5 13
t-16.5 3.5t-18.5 26q15 27 35.5 36.5t55.5 12.5t52 4t22.5 -28.5t6 -67.5t-1.5 -99.5t0.5 -130t46 -107t110.5 -53t125 5.5q23 8 49 21zM323 642l-41 64q-16 -46 -40 -77q-29 -39 -65 -51l-13 4l-11 7l-6 9l-1 -1q-5 7 -5 12q0 3 1 5l5 11l2 9l41 27q16 19 33 53
q12 24 27 60l19 49q8 21 11 21q8 0 24 -42q11 -56 50 -98q38 -41 85 -47q36 0 64 23q32 26 33 68l-1 20l1 -2q32 -60 32 -99q0 -51 -30 -80q-27 -25 -67 -27h-8q-54 0 -90 24q-25 22 -50 58z" />
    <glyph glyph-name="udieresis" unicode="&#xfc;" horiz-adv-x="686" 
d="M534 84q0 25 -1 62q-4 109 -6 196t-5 103.5t-10 22t-35 15.5q-11 12 27 33.5t69 28t38 4t12.5 -48t3 -210.5t-1 -211.5t-2.5 -76t-20 -27.5t-31 9t-26 20q-7 5 -9 12q-47 -26 -88 -27q-70 -1 -127 8.5t-122.5 51.5t-85 80t-23.5 95t-3 115t-1 77.5t-5.5 31t-13.5 13
t-16.5 3.5t-18.5 26q15 27 35.5 36.5t55.5 12.5t52 4t22.5 -28.5t6 -67.5t-1.5 -99.5t0.5 -130t46 -107t110.5 -53t125 5.5q23 8 49 21zM450 580q-31 -1 -48 15q-21 20 -29 72v10q13 20 38 30q16 6 34 6h4q32 -1 42 -18q4 -8 6 -20q1 -9 1 -27v-23q-1 -13 -5 -22
q-8 -23 -36 -23h-7zM264 577q-35 1 -51 15q-23 19 -31 72l1 10q14 22 41 31q9 4 19 5q8 1 15 1q31 0 42 -17q7 -12 7 -44v-23q-1 -14 -4 -24q-8 -26 -37 -26h-2z" />
    <glyph glyph-name="yacute" unicode="&#xfd;" horiz-adv-x="738" 
d="M406 -214q0 5 1 13.5t2 24.5l2 18l2 32l3 9q0 4 1 6l11 36v5q11 36 11 84v16l-8 18l-7 16q-9 8 -12 14l-34 14q-21 9 -33 16q-17 10 -27 20l-40 43l-22 29q-3 3 -6 8q-2 4 -2 5l-14 33l-17 23l-7 11h1q0 2 -6 8l-6 6t-3 4l2 -3q-26 33 -45 60l-7 11q-4 4 -6 9l-11 16
q-17 26 -47 49q-2 4 -8 6l-4 2q-4 1 -6 2q-13 5 -28 19q0 5 3 11q4 8 10 15q18 18 53 28l24 11l10 6q8 5 11 5h16q51 -32 53 -70l5 -8q26 -42 50 -83l53 -95l19 -39l13 -14q9 -8 17 -21l29 -22q0 -1 14 -10q18 -12 31 -13l21 4q4 10 10 22q4 4 4 8l24 75q11 49 17 73
q6 26 6 46l1 34q-3 4 -3 8q-4 3 -4 5q-19 11 -34 20q-23 13 -23 36q0 17 19 27q27 15 92 10l48 -1q6 3 12 5q5 1 11 3l17 2q21 0 21 -20q0 -30 -40 -58l-18 -17q-2 -1 -3 -7q-1 -4 -1 -7v-36v-19q-1 -20 -6 -42q-11 -51 -51 -158l-8 -48q-5 -24 -12 -46q-7 -28 -18 -53
l-21 -109l-24 -74q-9 -18 -24 -36l-5 -11q-9 -12 -14 -20q-10 -13 -16 -13q-3 0 -10 3q-8 3 -9 5v5zM312 618q3 0 18 7l13 7q7 4 10 7l27 26q13 13 36 39l37 40q43 44 74 44h10q6 -1 11 -3q14 -5 14 -20q0 -7 -4 -15l-18 -34l-51 -58q-37 -45 -86 -68q-40 -20 -75 -20
q-25 0 -45 7q-17 5 -17 9q0 3 6 8q5 4 11 7z" />
    <glyph glyph-name="ydieresis" unicode="&#xff;" horiz-adv-x="738" 
d="M406 -214q0 5 1 13.5t2 24.5l2 18l2 32l3 9q0 4 1 6l11 36v5q11 36 11 84v16l-8 18l-7 16q-9 8 -12 14l-34 14q-21 9 -33 16q-17 10 -27 20l-40 43l-22 29q-3 3 -6 8q-2 4 -2 5l-14 33l-17 23l-7 11h1q0 2 -6 8l-6 6t-3 4l2 -3q-26 33 -45 60l-7 11q-4 4 -6 9l-11 16
q-17 26 -47 49q-2 4 -8 6l-4 2q-4 1 -6 2q-13 5 -28 19q0 5 3 11q4 8 10 15q18 18 53 28l24 11l10 6q8 5 11 5h16q51 -32 53 -70l5 -8q26 -42 50 -83l53 -95l19 -39l13 -14q9 -8 17 -21l29 -22q0 -1 14 -10q18 -12 31 -13l21 4q4 10 10 22q4 4 4 8l24 75q11 49 17 73
q6 26 6 46l1 34q-3 4 -3 8q-4 3 -4 5q-19 11 -34 20q-23 13 -23 36q0 17 19 27q27 15 92 10l48 -1q6 3 12 5q5 1 11 3l17 2q21 0 21 -20q0 -30 -40 -58l-18 -17q-2 -1 -3 -7q-1 -4 -1 -7v-36v-19q-1 -20 -6 -42q-11 -51 -51 -158l-8 -48q-5 -24 -12 -46q-7 -28 -18 -53
l-21 -109l-24 -74q-9 -18 -24 -36l-5 -11q-9 -12 -14 -20q-10 -13 -16 -13q-3 0 -10 3q-8 3 -9 5v5zM472 580q-31 -1 -48 15q-21 20 -29 72v10q13 20 38 30q16 6 34 6h4q32 -1 42 -18q4 -8 6 -20q1 -9 1 -27v-23q-1 -13 -5 -22q-8 -23 -36 -23h-7zM286 577q-35 1 -51 15
q-23 19 -31 72l1 10q14 22 41 31q9 4 19 5q8 1 15 1q31 0 42 -17q7 -12 7 -44v-23q-1 -14 -4 -24q-8 -26 -37 -26h-2z" />
    <glyph glyph-name="amacron" unicode="&#x101;" horiz-adv-x="573" 
d="M167 212l-51 -80v-15l4 -13q8 -25 38 -25q47 17 65 45q6 10 12 25l6 20l4 8q0 5 -7 27q-3 10 -6 16q-3 8 -5 8h-20l-11 -6zM163 236h3q10 6 24 21l22 28v24l-7 26l-30 84l-20 35q-6 7 -9 19q-2 9 -2 17l1 9l5 12l8 8l2 2l2 2q4 5 8 9q5 5 9 8l8 4l22 2l13 -3
q45 -26 63 -84h-1q5 -12 8 -34q1 -1 1 -2v-3q0 -2 1 -4q1 -5 1 -9q2 -10 5 -17l13 -39l5 -32q3 -3 3 -9q9 -51 17 -60q10 -51 26 -78q12 -20 45 -51l51 -36q3 -1 11 -6l18 -12q43 -14 43 -29t-37 -25q-34 -10 -79 -10q-33 0 -65 12l-16 7l-41 41q-11 10 -20 25l-11 19h-2
q-1 0 -5 -3l-24 -19l-19 -26q-2 -1 -10 -10l-6 -6q-3 -3 -5 -4l-56 -40q-2 -2 -13 -7q-12 -4 -16 -4h-30q-46 11 -52 61l-6 48l7 9q6 13 15 25l30 28q5 5 5 8l23 16l16 16q5 3 44 34q2 2 4 3zM99 679q2 -1 23 3l15 -3q8 -1 12 0l44 -1q27 2 69 3l57 1q34 5 59 3l8 -6
q4 -5 7 -9q8 -8 -1 -20q-5 -5 -13 -9l-37 -9l-62 -9q-48 -3 -102 -1q-53 7 -88 11q-20 5 -32 14q-11 16 -10 32q2 3 10 3q6 0 13 -2z" />
    <glyph glyph-name="abreve" unicode="&#x103;" horiz-adv-x="573" 
d="M169 212l-51 -80v-15l4 -13q8 -25 38 -25q47 17 65 45q6 10 12 25l6 20l4 8q0 5 -7 27q-3 10 -6 16q-3 8 -5 8h-20l-11 -6zM165 236h3q10 6 24 21l22 28v24l-7 26l-30 84l-20 35q-6 7 -9 19q-2 9 -2 17l1 9l5 12l8 8l2 2l2 2q4 5 8 9q5 5 9 8l8 4l22 2l13 -3
q45 -26 63 -84h-1q5 -12 8 -34q1 -1 1 -2v-3q0 -2 1 -4q1 -5 1 -9q2 -10 5 -17l13 -39l5 -32q3 -3 3 -9q9 -51 17 -60q10 -51 26 -78q12 -20 45 -51l51 -36q3 -1 11 -6l18 -12q43 -14 43 -29t-37 -25q-34 -10 -79 -10q-33 0 -65 12l-16 7l-41 41q-11 10 -20 25l-11 19h-2
q-1 0 -5 -3l-24 -19l-19 -26q-2 -1 -10 -10l-6 -6q-3 -3 -5 -4l-56 -40q-2 -2 -13 -7q-12 -4 -16 -4h-30q-46 11 -52 61l-6 48l7 9q6 13 15 25l30 28q5 5 5 8l23 16l16 16q5 3 44 34q2 2 4 3zM59 811q10 1 25 -24q10 -35 52 -56t97 -17q42 6 76 26q39 22 43 50l1 13l1 -1
q33 -34 30 -60q-3 -34 -40 -58q-33 -21 -80 -29l-10 -2q-63 -9 -103 1q-28 11 -55 30l-44 36q-1 -3 -3 -5l-4 80q11 16 14 16z" />
    <glyph glyph-name="emacron" unicode="&#x113;" horiz-adv-x="576" 
d="M155 310q0 -3 1 -7l-2 -22l2 -20l14 -40q0 -1 4 -7l29 -50q1 -1 1 -2l2 -2l3 -4l19 -24q12 -14 22 -22q13 -10 38 -29q3 -2 9 -3q2 -1 6 -1l33 -10q2 -2 3 -2q23 -5 55 -8h75q0 -17 -51 -41q-55 -26 -103 -26q-52 0 -90 15q-8 3 -17 8l-96 41q-28 16 -34.5 24t-12.5 25
l-14 18l-9 27q-3 21 -7 35q-4 13 -4 20v80l2 6l4 12q4 8 5 14q3 7 4 11l7 17q16 31 35 56q13 17 30 33l15 11l18 17q7 6 10 10l7 5l66 37l5 6l26 11l19 4q5 0 46 8q6 3 10 4h41q2 0 8 -2l51 -11q41 -17 33 -30.5t-26.5 -11.5t-77.5 -2l-64 -5q-26 -18 -52 -18q-34 0 -65 -33
l-23 -34v-11l-5 -10l-1 -10q3 1 6 1q73 8 175 12.5t135.5 8.5t35.5 -2.5t-16 -19t-26.5 -20.5t-14.5 -10t-53.5 -5.5t-190.5 -17.5q-31 -3 -55 -4zM190 679q2 -1 23 3l15 -3q8 -1 12 0l44 -1q27 2 69 3l57 1q34 5 59 3l8 -6q4 -5 7 -9q8 -8 -1 -20q-5 -5 -13 -9l-37 -9
l-62 -9q-48 -3 -102 -1q-53 7 -88 11q-20 5 -32 14q-11 16 -10 32q2 3 10 3q6 0 13 -2z" />
    <glyph glyph-name="ebreve" unicode="&#x115;" horiz-adv-x="576" 
d="M149 310q0 -3 1 -7l-2 -22l2 -20l14 -40q0 -1 4 -7l29 -50q1 -1 1 -2l2 -2l3 -4l19 -24q12 -14 22 -22q13 -10 38 -29q3 -2 9 -3q2 -1 6 -1l33 -10q2 -2 3 -2q23 -5 55 -8h75q0 -17 -51 -41q-55 -26 -103 -26q-52 0 -90 15q-8 3 -17 8l-96 41q-28 16 -34.5 24t-12.5 25
l-14 18l-9 27q-3 21 -7 35q-4 13 -4 20v80l2 6l4 12q4 8 5 14q3 7 4 11l7 17q16 31 35 56q13 17 30 33l15 11l18 17q7 6 10 10l7 5l66 37l5 6l26 11l19 4q5 0 46 8q6 3 10 4h41q2 0 8 -2l51 -11q41 -17 33 -30.5t-26.5 -11.5t-77.5 -2l-64 -5q-26 -18 -52 -18q-34 0 -65 -33
l-23 -34v-11l-5 -10l-1 -10q3 1 6 1q73 8 175 12.5t135.5 8.5t35.5 -2.5t-16 -19t-26.5 -20.5t-14.5 -10t-53.5 -5.5t-190.5 -17.5q-31 -3 -55 -4zM142 805q10 1 25 -24q10 -35 52 -56t97 -17q42 6 76 26q39 22 43 50l1 13l1 -1q33 -34 30 -60q-3 -34 -40 -58
q-33 -21 -80 -29l-10 -2q-63 -9 -103 1q-28 11 -55 30l-44 36q-1 -3 -3 -5l-4 80q11 16 14 16z" />
    <glyph glyph-name="itilde" unicode="&#x129;" horiz-adv-x="261" 
d="M25 475q-11 12 27.5 34.5t70.5 29t39 4t12.5 -49t3 -216.5t-1 -217.5t-1.5 -53.5t-20 -15t-32 -27.5t-28 -16.5t-11.5 36t-7 136.5t-5.5 201.5t0 116t-10 22.5t-36 15.5zM264 726q1 -3 1 -6q1 -6 2 -7q-6 -71 -32 -101q-21 -26 -58 -26q-16 0 -38 5q-14 3 -39 12l-38 11
q-20 5 -34 5q-21 0 -33 -11l-38 -31q6 74 28 106q18 28 49 28q16 0 37 -7q9 -3 20 -8q5 -1 11 -4l10 -4q6 -3 10 -4q6 -3 10 -4q11 -5 20 -8q23 -7 39 -7q49 0 72 65z" />
    <glyph glyph-name="imacron" unicode="&#x12b;" horiz-adv-x="261" 
d="M23 475q-12 12 26.5 34.5t71 29t39 4t12.5 -49t3 -216.5t-1.5 -217.5t-1 -53.5t-19.5 -15t-32.5 -27.5t-28.5 -16.5t-11 36t-6.5 136.5t-6 201.5t0 116t-10 22.5t-35.5 15.5zM-6 679q2 -1 24 3l15 -3q7 -1 12 0l43 -1q27 2 70 3l57 1q34 5 59 3l7 -6q5 -5 8 -9
q7 -8 -2 -20q-4 -5 -12 -9l-37 -9l-62 -9q-49 -3 -103 -1q-53 7 -87 11q-20 5 -32 14q-12 16 -11 32q3 3 10 3t13 -2z" />
    <glyph glyph-name="ibreve" unicode="&#x12d;" horiz-adv-x="280" 
d="M31 475q-11 12 27.5 34.5t70.5 29t39 4t12.5 -49t3 -216.5t-1 -217.5t-1.5 -53.5t-20 -15t-32 -27.5t-28 -16.5t-11.5 36t-7 136.5t-5.5 201.5t0 116t-10 22.5t-36 15.5zM-24 807q10 1 26 -24q9 -35 52 -56q41 -21 96 -17q42 6 76 26q40 22 44 50v13l1 -1q33 -34 31 -60
q-4 -34 -41 -58q-33 -21 -80 -29l-10 -2q-63 -9 -103 1q-28 11 -55 30l-44 36q-1 -3 -3 -5l-4 80q11 16 14 16z" />
    <glyph glyph-name="omacron" unicode="&#x14d;" horiz-adv-x="658" 
d="M23 258v7q0 90 83 183q41 47 90 73q55 30 113 30q41 0 79 -15l38 -11q145 -52 173 -213v-52l-5 -30q-7 -37 -30 -73q-19 -30 -51 -60q-25 -24 -59 -48q-12 -9 -28 -20l-25 -17l-55 -15q-27 -6 -71 -6q-58 0 -112 26l-19 18q-77 72 -95 113l-13 32q-8 20 -9 33l-1 15
q0 5 -1 10q0 6 -1 12q-1 4 -1 8zM137 359q-10 -24 -4 -42l5 -34q0 -3 2 -9l13 -34l35 -63q2 -2 19 -31l31 -33q12 -14 36 -24l33 -14q4 -3 18 -6q12 -3 37 0l45 10q17 9 23 11l10 5q6 4 11 9q6 7 15 17l11 21q21 43 21 74v17q-1 11 -2 12q-1 4 -6 13l-24 48l-26 47l-21 33
q-5 6 -23 18q-17 12 -40 26q-26 14 -45 24q-33 3 -42 3q-14 -1 -28 -3q-6 0 -13 -2q-9 -3 -18 -9q-34 -14 -51 -44zM192 679q2 -1 23 3l15 -3q8 -1 12 0l44 -1q27 2 69 3l57 1q34 5 59 3l8 -6q4 -5 7 -9q8 -8 -1 -20q-5 -5 -13 -9l-37 -9l-62 -9q-48 -3 -102 -1
q-53 7 -88 11q-20 5 -32 14q-11 16 -10 32q2 3 10 3q6 0 13 -2z" />
    <glyph glyph-name="obreve" unicode="&#x14f;" horiz-adv-x="646" 
d="M20 255v7q0 90 83 183q41 47 90 73q55 30 113 30q41 0 79 -15l38 -11q145 -52 173 -213v-52l-5 -30q-7 -37 -30 -73q-19 -30 -51 -60q-25 -24 -59 -48q-12 -9 -28 -20l-25 -17l-55 -15q-27 -6 -71 -6q-58 0 -112 26l-19 18q-77 72 -95 113l-13 32q-8 20 -9 33l-1 15
q0 5 -1 10q0 6 -1 12q-1 4 -1 8zM134 356q-10 -24 -4 -42l5 -34q0 -3 2 -9l13 -34l35 -63q2 -2 19 -31l31 -33q12 -14 36 -24l33 -14q4 -3 18 -6q12 -3 37 0l45 10q17 9 23 11l10 5q6 4 11 9q6 7 15 17l11 21q21 43 21 74v17q-1 11 -2 12q-1 4 -6 13l-24 48l-26 47l-21 33
q-5 6 -23 18q-17 12 -40 26q-26 14 -45 24q-33 3 -42 3q-14 -1 -28 -3q-6 0 -13 -2q-9 -3 -18 -9q-34 -14 -51 -44zM147 808q10 1 25 -24q10 -35 52 -56t97 -17q42 6 76 26q39 22 43 50l1 13l1 -1q33 -34 30 -60q-3 -34 -40 -58q-33 -21 -80 -29l-10 -2q-63 -9 -103 1
q-28 11 -55 30l-44 36q-1 -3 -3 -5l-4 80q11 16 14 16z" />
    <glyph glyph-name="OE" unicode="&#x152;" horiz-adv-x="1326" 
d="M175 477q-13 -31 -5 -55l7 -45q0 -4 2 -12l18 -45l46 -83q2 -2 25 -41l41 -43q16 -19 47 -32l44 -18q5 -4 24 -8q15 -4 48 0l60 13q22 12 30 14q8 4 13 7q8 5 15 12q8 9 20 22l14 28q28 57 28 98v22q-1 15 -3 16q-1 5 -8 17l-31 63l-35 62q-18 30 -27 44q-7 8 -31 24
q-22 16 -52 34q-35 19 -60 32q-43 4 -55 4q-19 -2 -37 -4q-8 0 -17 -3q-12 -4 -24 -12q-45 -18 -67 -58zM710 171q-17 -19 -38 -39q-33 -32 -78 -64q-16 -12 -37 -26l-33 -23l-73 -19q-35 -8 -93 -8q-77 0 -148 34l-25 24q-102 95 -126 149l-17 42q-10 27 -12 44l-1 19
q0 7 -1 14q0 8 -2 16q-1 5 -1 10v9q0 119 110 242q54 62 118 96q73 40 150 40q54 0 104 -20l50 -14q109 -39 168 -126l1 1l20 15l23 22q10 8 14 14l9 6l87 49l7 8l34 14l25 6q7 0 61 10q8 4 13 6h54q3 0 11 -3l67 -15q54 -22 43.5 -40t-35 -15t-102.5 -3l-84 -6
q-35 -24 -69 -24q-45 0 -86 -44l-30 -44v-15l-7 -13l-1 -13q4 1 8 1q96 11 231 16.5t179 11t46.5 -3t-21 -25t-35 -27t-19 -13.5t-70.5 -7.5t-252 -22.5q-35 -3 -62 -5v-65l-3 -18l13 -35q0 -1 5 -9l38 -66q1 -2 1 -3q2 -1 3 -3l4 -5l25 -32q16 -18 29 -29q17 -13 50 -38
q4 -3 12 -4q3 -1 8 -1l44 -13q2 -3 4 -3q30 -7 72 -11h99q0 -22 -67 -54q-73 -34 -136 -34q-69 0 -119 20q-10 4 -22 10l-93 40z" />
    <glyph glyph-name="oe" unicode="&#x153;" horiz-adv-x="1020" 
d="M146 362q-10 -24 -4 -42l5 -34q0 -3 2 -9l13 -34l35 -63q2 -2 19 -31l31 -33q12 -14 36 -24l33 -14q4 -3 18 -6q12 -3 37 0l45 10q17 9 23 11l10 5q6 4 11 9q6 7 15 17l11 21q21 43 21 74v17q-1 11 -2 12q-1 4 -6 13l-24 48l-26 47l-21 33q-5 6 -23 18q-17 12 -40 26
q-26 14 -45 24q-33 3 -42 3q-14 -1 -28 -3q-6 0 -13 -2q-9 -3 -18 -9q-34 -14 -51 -44zM551 130q-13 -15 -29 -30q-25 -24 -59 -48q-12 -9 -28 -20l-25 -17l-55 -15q-27 -6 -71 -6q-58 0 -112 26l-19 18q-77 72 -95 113l-13 32q-8 20 -9 33l-1 15q0 5 -1 10q0 6 -1 12
q-1 4 -1 8v7q0 90 83 183q41 47 90 73q55 30 113 30q41 0 79 -15l38 -11q83 -30 127 -95l1 1l15 11l18 17q7 6 10 10l7 5l66 37l5 6l26 11l19 4q5 0 46 8q6 3 10 4h41q2 0 8 -2l51 -11q41 -17 33 -30.5t-26.5 -11.5t-77.5 -2l-64 -5q-26 -18 -52 -18q-34 0 -65 -33l-23 -34
v-11l-5 -10l-1 -10q3 1 6 1q73 8 175 12.5t135.5 8.5t35.5 -2.5t-16 -19t-26.5 -20.5t-14.5 -10t-53.5 -5.5t-190.5 -17.5q-26 -3 -47 -4v-49l-2 -14l9 -26q0 -1 4 -7l29 -50q1 -1 1 -2l2 -2l3 -4l19 -24q12 -14 22 -22q13 -10 38 -29q3 -2 9 -3q2 -1 6 -1l33 -10q2 -2 3 -2
q23 -5 55 -8h75q0 -17 -51 -41q-55 -26 -103 -26q-52 0 -90 15q-8 3 -17 8l-70 30z" />
    <glyph glyph-name="utilde" unicode="&#x169;" horiz-adv-x="676" 
d="M510 725q1 -3 1 -6q1 -6 2 -7q-6 -71 -32 -101q-21 -26 -58 -26q-16 0 -38 5q-14 3 -39 12l-38 11q-20 5 -34 5q-21 0 -33 -11l-38 -31q6 74 28 106q18 28 49 28q16 0 37 -7q9 -3 20 -8q5 -1 11 -4l10 -4q6 -3 10 -4q6 -3 10 -4q11 -5 20 -8q23 -7 39 -7q49 0 72 65z
M534 84q0 25 -1 62q-4 109 -6 196t-5 103.5t-10 22t-35 15.5q-11 12 27 33.5t69 28t38 4t12.5 -48t3 -210.5t-1 -211.5t-2.5 -76t-20 -27.5t-31 9t-26 20q-7 5 -9 12q-47 -26 -88 -27q-70 -1 -127 8.5t-122.5 51.5t-85 80t-23.5 95t-3 115t-1 77.5t-5.5 31t-13.5 13
t-16.5 3.5t-18.5 26q15 27 35.5 36.5t55.5 12.5t52 4t22.5 -28.5t6 -67.5t-1.5 -99.5t0.5 -130t46 -107t110.5 -53t125 5.5q23 8 49 21z" />
    <glyph glyph-name="umacron" unicode="&#x16b;" horiz-adv-x="679" 
d="M241 682q2 -1 23 3l15 -3q8 -1 12 0l44 -1q27 2 69 3l57 1q34 5 59 3l8 -6q4 -5 7 -9q8 -8 -1 -20q-5 -5 -13 -9l-37 -9l-62 -9q-48 -3 -102 -1q-53 7 -88 11q-20 5 -32 14q-11 16 -10 32q2 3 10 3q6 0 13 -2zM534 84q0 25 -1 62q-4 109 -6 196t-5 103.5t-10 22t-35 15.5
q-11 12 27 33.5t69 28t38 4t12.5 -48t3 -210.5t-1 -211.5t-2.5 -76t-20 -27.5t-31 9t-26 20q-7 5 -9 12q-47 -26 -88 -27q-70 -1 -127 8.5t-122.5 51.5t-85 80t-23.5 95t-3 115t-1 77.5t-5.5 31t-13.5 13t-16.5 3.5t-18.5 26q15 27 35.5 36.5t55.5 12.5t52 4t22.5 -28.5
t6 -67.5t-1.5 -99.5t0.5 -130t46 -107t110.5 -53t125 5.5q23 8 49 21z" />
    <glyph glyph-name="ubreve" unicode="&#x16d;" horiz-adv-x="683" 
d="M208 808q10 1 25 -24q10 -35 52 -56t97 -17q42 6 76 26q39 22 43 50l1 13l1 -1q33 -34 30 -60q-3 -34 -40 -58q-33 -21 -80 -29l-10 -2q-63 -9 -103 1q-28 11 -55 30l-44 36q-1 -3 -3 -5l-4 80q11 16 14 16zM534 84q0 25 -1 62q-4 109 -6 196t-5 103.5t-10 22t-35 15.5
q-11 12 27 33.5t69 28t38 4t12.5 -48t3 -210.5t-1 -211.5t-2.5 -76t-20 -27.5t-31 9t-26 20q-7 5 -9 12q-47 -26 -88 -27q-70 -1 -127 8.5t-122.5 51.5t-85 80t-23.5 95t-3 115t-1 77.5t-5.5 31t-13.5 13t-16.5 3.5t-18.5 26q15 27 35.5 36.5t55.5 12.5t52 4t22.5 -28.5
t6 -67.5t-1.5 -99.5t0.5 -130t46 -107t110.5 -53t125 5.5q23 8 49 21z" />
    <glyph glyph-name="ycircumflex" unicode="&#x177;" horiz-adv-x="738" 
d="M406 -214q0 5 1 13.5t2 24.5l2 18l2 32l3 9q0 4 1 6l11 36v5q11 36 11 84v16l-8 18l-7 16q-9 8 -12 14l-34 14q-21 9 -33 16q-17 10 -27 20l-40 43l-22 29q-3 3 -6 8q-2 4 -2 5l-14 33l-17 23l-7 11h1q0 2 -6 8l-6 6t-3 4l2 -3q-26 33 -45 60l-7 11q-4 4 -6 9l-11 16
q-17 26 -47 49q-2 4 -8 6l-4 2q-4 1 -6 2q-13 5 -28 19q0 5 3 11q4 8 10 15q18 18 53 28l24 11l10 6q8 5 11 5h16q51 -32 53 -70l5 -8q26 -42 50 -83l53 -95l19 -39l13 -14q9 -8 17 -21l29 -22q0 -1 14 -10q18 -12 31 -13l21 4q4 10 10 22q4 4 4 8l24 75q11 49 17 73
q6 26 6 46l1 34q-3 4 -3 8q-4 3 -4 5q-19 11 -34 20q-23 13 -23 36q0 17 19 27q27 15 92 10l48 -1q6 3 12 5q5 1 11 3l17 2q21 0 21 -20q0 -30 -40 -58l-18 -17q-2 -1 -3 -7q-1 -4 -1 -7v-36v-19q-1 -20 -6 -42q-11 -51 -51 -158l-8 -48q-5 -24 -12 -46q-7 -28 -18 -53
l-21 -109l-24 -74q-9 -18 -24 -36l-5 -11q-9 -12 -14 -20q-10 -13 -16 -13q-3 0 -10 3q-8 3 -9 5v5zM363 685l-41 64q-16 -46 -40 -77q-29 -39 -65 -51l-13 4l-11 7l-6 9l-1 -1q-5 7 -5 12q0 3 1 5l5 11l2 9l41 27q16 19 33 53q12 24 27 60l19 49q8 21 11 21q8 0 24 -42
q11 -56 50 -98q38 -41 85 -47q36 0 64 23q32 26 33 68l-1 20l1 -2q32 -60 32 -99q0 -51 -30 -80q-27 -25 -67 -27h-8q-54 0 -90 24q-25 22 -50 58z" />
    <glyph glyph-name="Ydieresis" unicode="&#x178;" horiz-adv-x="988" 
d="M577 782q-31 -1 -48 15q-21 20 -29 72v10q13 20 38 30q16 6 34 6h4q32 -1 42 -18q4 -8 6 -20q1 -9 1 -27v-23q-1 -13 -5 -22q-8 -23 -36 -23h-7zM391 779q-35 1 -51 15q-23 19 -31 72l1 10q14 22 41 31q9 4 19 5q8 1 15 1q31 0 42 -17q7 -12 7 -44v-23q-1 -14 -4 -24
q-8 -26 -37 -26h-2zM537 -282q0 6 1 17.5t2 32.5l3 23q1 22 2 43l4 12q1 5 2 7l14 48v7q15 47 15 110v22l-10 23l-10 21q-12 11 -16 19l-44 18q-29 12 -45 22q-22 13 -35 26l-53 57l-28 38q-4 4 -8 11q-4 5 -4 6l-18 44l-22 30l-9 15h1q0 2 -8 10l-8 8q-2 3 -3 5l2 -4
q-34 44 -60 80l-9 14q-5 5 -8 12l-14 21q-23 34 -63 65q-2 5 -10 8l-6 2q-5 2 -7 3q-17 7 -37 25q0 7 4 15q5 10 13 19q24 24 70 37l32 15l13 8q11 6 14 6h21q68 -42 71 -92l6 -11q34 -55 66 -109l70 -126l25 -51l17 -18q13 -11 22 -28l39 -29q0 -2 18 -13q25 -16 42 -18
l27 6q6 13 13 29q5 5 5 10l32 99q15 65 23 97q8 34 8 60l1 45q-4 6 -4 11q-5 4 -5 6l-45 27q-31 17 -31 47q0 23 26 36q35 20 121 13l64 -1q7 4 15 6q7 2 15 4l22 3q28 0 28 -26q0 -40 -53 -77l-23 -22q-3 -2 -4 -10q-1 -5 -1 -9v-47q0 -15 -1 -25q-2 -27 -8 -56
q-15 -67 -68 -208l-9 -64q-8 -31 -16 -61q-10 -36 -24 -69l-28 -144l-32 -98q-11 -24 -31 -48l-7 -14q-11 -16 -19 -26q-12 -18 -21 -18q-3 0 -13 4t-11 7v7z" />
    <glyph glyph-name="uni1EBD" unicode="&#x1ebd;" horiz-adv-x="576" 
d="M165 310q0 -3 1 -7l-2 -22l2 -20l14 -40q0 -1 4 -7l29 -50q1 -1 1 -2l2 -2l3 -4l19 -24q12 -14 22 -22q13 -10 38 -29q3 -2 9 -3q2 -1 6 -1l33 -10q2 -2 3 -2q23 -5 55 -8h75q0 -17 -51 -41q-55 -26 -103 -26q-52 0 -90 15q-8 3 -17 8l-96 41q-28 16 -34.5 24t-12.5 25
l-14 18l-9 27q-3 21 -7 35q-4 13 -4 20v80l2 6l4 12q4 8 5 14q3 7 4 11l7 17q16 31 35 56q13 17 30 33l15 11l18 17q7 6 10 10l7 5l66 37l5 6l26 11l19 4q5 0 46 8q6 3 10 4h41q2 0 8 -2l51 -11q41 -17 33 -30.5t-26.5 -11.5t-77.5 -2l-64 -5q-26 -18 -52 -18q-34 0 -65 -33
l-23 -34v-11l-5 -10l-1 -10q3 1 6 1q73 8 175 12.5t135.5 8.5t35.5 -2.5t-16 -19t-26.5 -20.5t-14.5 -10t-53.5 -5.5t-190.5 -17.5q-31 -3 -55 -4zM469 729q1 -3 1 -6q1 -6 2 -7q-6 -71 -32 -101q-21 -26 -58 -26q-16 0 -38 5q-14 3 -39 12l-38 11q-20 5 -34 5
q-21 0 -33 -11l-38 -31q6 74 28 106q18 28 49 28q16 0 37 -7q9 -3 20 -8q5 -1 11 -4l10 -4q6 -3 10 -4q6 -3 10 -4q11 -5 20 -8q23 -7 39 -7q49 0 72 65z" />
    <glyph glyph-name="quoteleft" unicode="&#x2018;" horiz-adv-x="276" 
d="M130 593q0 -13 13 -27l13 -14l47 -38q33 -15 43 -42v-12l-15 -18q-8 0 -11 -9l-1 -2q-1 -1 -1 -2l-2 -6q-3 -6 -9 -11l-33 -30q-1 -1 -7 -3l-7 -3l-17 -1q-1 0 -5 13q-1 6 -3 10q-2 5 -5 8l-8 12l-35 18q-33 24 -47 48l-10 30v19l5 36l19 42l27 38q14 20 21 28l28 18
l11 2l-2 -18l-4 -14q-2 -8 -5 -12v-60z" />
    <glyph glyph-name="quoteright" unicode="&#x2019;" horiz-adv-x="276" 
d="M146 480q0 12 -12 27l-22 21l-39 31q-33 15 -43 42v12l15 18q7 0 11 9l1 4q1 3 3 6q3 6 9 11l33 30q1 1 7 3l7 3h17q1 0 5 -12q1 -6 3 -10q2 -5 5 -8l8 -12l35 -18q33 -24 47 -48l10 -30v-19l-5 -36l-19 -42l-9 -12q-3 -3 -8 -11l-16 -23q-3 -5 -6 -8l-9 -12l-28 -18
l-11 -2l1 5q0 7 2 13q1 8 3 14q2 8 5 12v60z" />
    <glyph glyph-name="quotesinglbase" unicode="&#x201a;" horiz-adv-x="276" 
d="M146 -52q0 12 -12 27l-22 21l-39 31q-33 15 -43 42v12l15 18q7 0 11 9l1 4q1 3 3 6q3 6 9 11l33 30q1 1 7 3l7 3h17q1 0 5 -12q1 -6 3 -10q2 -5 5 -8l8 -12l35 -18q33 -24 47 -48l10 -30v-19l-5 -36l-19 -42l-9 -12q-3 -3 -8 -11l-16 -23q-3 -5 -6 -8l-9 -12l-28 -18
l-11 -2l1 5q0 7 2 13q1 8 3 14q2 8 5 12v60z" />
    <glyph glyph-name="quotedblleft" unicode="&#x201c;" horiz-adv-x="504" 
d="M358 596q0 -12 13 -27q4 -5 11 -11l10 -10l39 -31q33 -15 43 -42v-12l-16 -18q-6 0 -10 -9q-1 -4 -2 -5l-2 -5q-4 -6 -9 -11l-33 -30q-1 -1 -7 -3l-7 -3h-17q-1 0 -5 12q-1 6 -3 10q-2 5 -5 8l-8 12l-35 18q-33 24 -47 48l-10 30v19l5 36l19 42l48 66l28 18l11 2l-2 -18
l-4 -14q-2 -8 -5 -12v-60zM130 592q0 -12 13 -27q4 -5 11 -11l10 -10l39 -31q33 -15 43 -42v-12l-16 -18q-6 0 -10 -9q-1 -4 -2 -5l-2 -5q-4 -6 -9 -11l-33 -30q-1 -1 -7 -3l-7 -3h-17q-1 0 -5 12q-1 6 -3 10q-2 5 -5 8l-8 12l-35 18q-33 24 -47 48l-10 30v19l5 36l19 42
l48 66l28 18l11 2l-2 -18l-4 -14q-2 -8 -5 -12v-60z" />
    <glyph glyph-name="quotedblright" unicode="&#x201d;" horiz-adv-x="504" 
d="M146 480q0 12 -12 27l-22 21l-39 31q-33 15 -43 42v12l16 18q6 0 10 9q1 4 2 5l2 5q4 6 9 11l33 30q1 1 7 3l7 3h17q1 0 5 -12q1 -6 3 -10q2 -5 5 -8l8 -12l35 -18q33 -24 47 -48l10 -30v-19l-5 -36l-19 -42l-9 -12q-3 -3 -8 -11l-16 -23q-3 -5 -6 -8l-9 -12l-28 -18
l-11 -2l1 5q0 7 2 13q1 8 3 14q2 8 5 12v60zM374 484q0 12 -12 27l-22 21l-39 31q-33 15 -43 42v12l16 18q6 0 10 9q1 4 2 5l2 5q4 6 9 11l33 30q1 1 7 3l7 3h17q1 0 5 -12q1 -6 3 -10q2 -5 5 -8l8 -12l35 -18q33 -24 47 -48l10 -30v-19l-5 -36l-19 -42l-9 -12q-3 -3 -8 -11
l-16 -23q-3 -5 -6 -8l-9 -12l-28 -18l-11 -2l1 5q0 7 2 13q1 8 3 14q2 8 5 12v60z" />
    <glyph glyph-name="quotedblbase" unicode="&#x201e;" horiz-adv-x="504" 
d="M146 -54q0 12 -12 27l-22 21l-39 31q-33 15 -43 42v12l16 18q6 0 10 9q1 4 2 5l2 5q4 6 9 11l33 30q1 1 7 3l7 3h17q1 0 5 -12q1 -6 3 -10q2 -5 5 -8l8 -12l35 -18q33 -24 47 -48l10 -30v-19l-5 -36l-19 -42l-9 -12q-3 -3 -8 -11l-16 -23q-3 -5 -6 -8l-9 -12l-28 -18
l-11 -2l1 5q0 7 2 13q1 8 3 14q2 8 5 12v60zM374 -50q0 12 -12 27l-22 21l-39 31q-33 15 -43 42v12l16 18q6 0 10 9q1 4 2 5l2 5q4 6 9 11l33 30q1 1 7 3l7 3h17q1 0 5 -12q1 -6 3 -10q2 -5 5 -8l8 -12l35 -18q33 -24 47 -48l10 -30v-19l-5 -36l-19 -42l-9 -12q-3 -3 -8 -11
l-16 -23q-3 -5 -6 -8l-9 -12l-28 -18l-11 -2l1 5q0 7 2 13q1 8 3 14q2 8 5 12v60z" />
    <glyph glyph-name="guilsinglleft" unicode="&#x2039;" horiz-adv-x="397" 
d="M221 114q-19 18 -42 44l-39 44q-7 7 -19 24q0 1 -2 4l-18 24q-27 32 -55 36q-1 1 -4 2q-4 1 -5 2q-7 3 -7 9q0 4 11 8q4 2 12 4l13 4q18 5 28 10q14 7 19 16q1 2 4 5q1 0 2 1q1 0 1 1l10 8l32 35q2 4 7 11l25 29l30 41q48 37 86 40q11 -1 18 -16l8 -19q2 -6 5 -12l6 -13
l-14 -7l-19 -17l-41 -47q-21 -23 -41 -43q-26 -26 -52 -49q3 -10 11 -19l14 -13l69 -79q8 -8 21 -12l14 -7l13 -3h14q31 0 31 -29q0 -3 -2 -10t-5 -10l-2 -4q-5 -11 -30 -11h-30q-20 1 -33 3l-27 5z" />
    <glyph glyph-name="guilsinglright" unicode="&#x203a;" horiz-adv-x="397" 
d="M159 104h-4l-8 -3q0 -1 -9 -2q-9 0 -22 -1q-30 -2 -48 -2q-24 0 -29 11l-2 4q-3 3 -5 10t-2 10q0 29 31 29h14l27 10q13 4 21 12l88 101q4 5 6 10q-26 23 -52 49q-20 20 -41 43l-41 47l-19 17l-14 7l6 13q3 6 5 12l8 19q7 15 18 16q38 -3 86 -40l17 -24q6 -8 14 -17
q2 -4 6 -8l18 -21q5 -7 7 -11l42 -43q0 -1 1 -1q1 -1 2 -1q3 -3 4 -5q5 -9 19 -16q10 -5 28 -10l13 -4q8 -2 12 -4q11 -4 11 -8q0 -6 -7 -9q-1 -1 -5 -2q-3 -1 -4 -2q-29 -4 -55 -36l-18 -24q-2 -3 -2 -4q-12 -17 -19 -24l-27 -30q-1 -1 -1 -2q-1 -1 -2 -1l-9 -11
q-24 -27 -42 -44z" />
    <glyph glyph-name="uniA751" unicode="&#xa751;" horiz-adv-x="542" 
d="M89 62q-17 3 -34 1q-23 -3 -39 -12t-37 -61q-21 -8 -32.5 -0.5t-7.5 37.5t23.5 41t53.5 18q29 6 72 9q-5 108 -2 193q3 109 -0.5 127.5t-10.5 25t-38 17.5q-12 13 29 38t75 32t41.5 4t13.5 -53q0 -8 1 -17l24 17q3 13 65 54q28 14 39 14l42 -9l51 -22l48 -33l40 -43
q14 -18 17 -30l5 -24v-16q-7 -29 -23 -49l-80 -82l-5 -7v-1l-123 -80l-4 4l-10 19v13l2 7l13 10q5 2 9 5q5 5 7 12l34 38l16 20q10 9 17 25l20 24v5q-1 8 -2 12t-3.5 13t-4.5 13l-7 11l-26 37l-46 39l-30 12l-16 1l-67 -77q1 -60 0 -155q-1 -90 -2 -157q23 -10 43 -23
q27 -17 39.5 -18.5t28.5 0.5t28 15.5t24 22t24.5 12t13 -7.5t-9 -27t-20 -23t-22.5 -11.5t-33 -10t-44.5 -6t-45.5 11.5q-10 5 -26 11q0 -37 1 -64q1 -87 -2 -93.5t-21 -16.5t-34 -30.5t-30 -18.5t-12.5 39.5t-7.5 185.5z" />
    <glyph glyph-name="uniA757" unicode="&#xa757;" horiz-adv-x="595" 
d="M98 297q0 -6 1 -16l2 -50l3 -15q15 -34 27 -52l12 -18q3 -5 7 -11q5 -8 12 -15q16 -20 35 -30l18 -8q8 -3 23 -3q36 0 89 24q47 18 57 40q4 39 7 76q2 27 3 59l-1 21v62l-2 13l-2 18l1 32q-29 47 -157 47q-40 0 -83 -53q-42 -52 -51 -106zM512 -125q-3 -47 -7 -59
l-11 -23l-10 -11q-20 -21 -36 -34q-6 -19 -17 -19h-1q-27 0 -27 16v38q0 59 -1 92q-1 19 -3 43q-13 4 -21 6q-21 4 -43.5 1.5t-38.5 -11.5t-37 -61q-22 -8 -33 -0.5t-7 37.5t23.5 41t53 18t85.5 10q8 0 16 1q-1 3 -1 7l-1 39q-2 39 -2 69l1 5h-10q-3 0 -6 -2l-13 -7
q-42 -28 -114 -45h-2q-29 -10 -60 -10q-17 0 -31 1q-19 3 -35 8q-44 16 -70 54l-30 45q-22 50 -22 82v5q1 68 26 132q11 27 28 56q13 25 33 53q14 21 57 54q45 34 65 39h10q18 3 40 3q18 0 39 -3l39 -6l21 -3l21 -3q24 -3 45 -3l6 1q8 0 37 -14q34 -16 42 -30v-12
q-6 -8 -6 -10q0 -9 5 -20v-14q-15 -42 -15 -101q0 -23 2 -52l9 -110q2 -31 2 -55v-7q0 -27 5 -61l1 -7q0 -4 1 -6q1 -7 1 -12q2 -14 2 -25q-1 -39 -2 -70q2 -1 5 -3q27 -17 39.5 -18.5t28.5 0.5t28 15.5t24 22t24.5 12t13 -7.5t-9 -27t-20 -23t-22.5 -11.5t-33.5 -10
t-44.5 -5.5q-18 -1 -36 6z" />
    <glyph glyph-name="uniA759" unicode="&#xa759;" horiz-adv-x="715" 
d="M98 297q0 -6 1 -16l2 -50l3 -15q15 -34 27 -52l12 -18q3 -5 7 -11q5 -8 12 -15q16 -20 35 -30l18 -8q8 -3 23 -3q36 0 89 24q47 18 57 40q4 39 7 76q2 27 3 59l-1 21v62l-2 13l-2 18l1 32q-29 47 -157 47q-40 0 -83 -53q-42 -52 -51 -106zM514 -89q-4 -79 -9 -95l-11 -23
l-10 -11q-20 -21 -36 -34q-6 -19 -17 -19h-1q-27 0 -27 16v38q0 48 -1 79q-26 -7 -51 -11q-43 -8 -59 -16.5t-34.5 -22.5t-25.5 -33.5t-16 -35.5t-22 -28.5t-20.5 -4.5t-6 28t10 33.5t20.5 26t34.5 34t50.5 39.5t63 26q22 5 54 15q-2 21 -3 45q-1 5 -1 10l-1 39q-2 39 -2 69
l1 5h-10q-3 0 -6 -2l-13 -7q-42 -28 -114 -45h-2q-29 -10 -60 -10q-17 0 -31 1q-19 3 -35 8q-44 16 -70 54l-30 45q-22 50 -22 82v5q1 68 26 132q11 27 28 56q13 25 33 53q14 21 57 54q45 34 65 39h10q18 3 40 3q18 0 39 -3l39 -6l21 -3l21 -3q24 -3 45 -3l6 1q8 0 37 -14
q34 -16 42 -30v-12q-6 -8 -6 -10q0 -9 5 -20v-14q-15 -42 -15 -101q0 -23 2 -52l9 -110q2 -31 2 -55v-7q0 -27 5 -61l1 -7q0 -4 1 -6q1 -7 1 -12q2 -14 2 -25q-1 -21 -1 -40q5 3 10 5q28 13 54 32t40 38.5t8 75.5q22 23 40.5 26t32 -23t-3.5 -50t-54.5 -55.5t-98.5 -73.5
q-16 -10 -30 -19z" />
    </font>
</defs>
</svg>
