<?xml version="1.0" standalone="no"?>
<!DOCTYPE svg PUBLIC "-//W3C//DTD SVG 1.1//EN" "http://www.w3.org/Graphics/SVG/1.1/DTD/svg11.dtd" >
<svg xmlns="http://www.w3.org/2000/svg" xmlns:xlink="http://www.w3.org/1999/xlink" version="1.1">
<metadata>
Created by FontForge 20170731 at Mon Apr 29 21:50:20 2013
 By Aleksey,,,
Copyright 2013 Adobe Systems Incorporated. All rights reserved.
</metadata>
<defs>
<font id="Quarca-NorBol" horiz-adv-x="630" >
  <font-face 
    font-family="Quarca Norm Bold"
    font-weight="700"
    font-stretch="normal"
    units-per-em="1000"
    panose-1="0 0 0 0 0 0 0 0 0 0"
    ascent="760"
    descent="-240"
    x-height="505"
    cap-height="710"
    bbox="-129 -257 1079 978"
    underline-thickness="50"
    underline-position="-200"
    unicode-range="U+0020-FB06"
  />
<missing-glyph horiz-adv-x="500" 
 />
    <glyph glyph-name="ff" unicode="ff" horiz-adv-x="657" 
d="M584 614q-40 0 -40 -39v-70h111l-20 -126h-91v-379h-135v379h-176v-379h-134v379h-94l19 126h75v50q0 77 40.5 111t141.5 34h89l-31 -126h-65q-41 0 -41 -39v-30h176v90q0 77 41 111t142 34h89l-31 -126h-66z" />
    <glyph glyph-name="fi" unicode="fi" horiz-adv-x="591" 
d="M274 614q-41 0 -41 -39v-70h311v-505h-135v379h-176v-379h-134v379h-94l19 126h75v90q0 77 40.5 111t141.5 34h89l-31 -126h-65zM400 581v149h152v-149h-152z" />
    <glyph glyph-name="fl" unicode="fl" horiz-adv-x="616" 
d="M585 120h16l10 -126h-66q-134 0 -134 125v260h-178v-379h-134v379h-94l19 126h75v90q0 77 40.5 111t141.5 34h89l-31 -126h-65q-41 0 -41 -39v-70h178v208l112 27h21v-581q0 -39 41 -39z" />
    <glyph glyph-name="ffi" unicode="ffi" horiz-adv-x="899" 
d="M584 624q-40 0 -40 -39v-80h307v-505h-134v379h-173v-379h-135v379h-176v-379h-134v379h-94l19 126h75v60q0 72 38 103.5t134 31.5h159q35 50 152 50h238l-31 -126h-205zM274 574q-41 0 -41 -39v-30h176v69h-135z" />
    <glyph glyph-name="ffl" unicode="ffl" horiz-adv-x="892" 
d="M584 624q-40 0 -40 -39v-80h307v-505h-134v379h-173v-379h-135v379h-176v-379h-134v379h-94l19 126h75v60q0 72 38 103.5t134 31.5h159q35 50 152 50h238l-31 -126h-205zM274 574q-41 0 -41 -39v-30h176v69h-135z" />
    <glyph glyph-name="f_f_j" unicode="ffj" horiz-adv-x="899" 
d="M584 624q-40 0 -40 -39v-80h307v-505h-134v379h-173v-379h-135v379h-176v-379h-134v379h-94l19 126h75v60q0 72 38 103.5t134 31.5h159q35 50 152 50h238l-31 -126h-205zM274 574q-41 0 -41 -39v-30h176v69h-135z" />
    <glyph glyph-name="f_j" unicode="fj" horiz-adv-x="591" 
d="M409 379h-176v-379h-134v379h-94l19 126h75v90q0 77 40.5 111t141.5 34h89l-31 -126h-65q-41 0 -41 -39v-70h311v-595q0 -125 -135 -125h-97l22 126h35q40 0 40 39v429zM400 583v149h152v-149h-152z" />
    <glyph glyph-name=".notdef" horiz-adv-x="500" 
 />
    <glyph glyph-name=".null" horiz-adv-x="0" 
 />
    <glyph glyph-name="nonmarkingreturn" horiz-adv-x="333" 
 />
    <glyph glyph-name="NULL" horiz-adv-x="833" 
 />
    <glyph glyph-name="NULL" horiz-adv-x="833" 
 />
    <glyph glyph-name="space" unicode=" " horiz-adv-x="178" 
 />
    <glyph glyph-name="exclam" unicode="!" horiz-adv-x="277" 
d="M193 220h-115l-29 523l154 27h20zM65 -5v149h152v-149h-152z" />
    <glyph glyph-name="quotedbl" unicode="&#x22;" horiz-adv-x="424" 
d="M21 720h181l-62 -246h-70zM227 720h181l-62 -246h-70z" />
    <glyph glyph-name="numbersign" unicode="#" horiz-adv-x="773" 
d="M42 0l72 161h-92l20 126h127l48 106h-135l20 126h171l86 191h129l-86 -191h119l86 191h130l-86 -191h99l-20 -126h-135l-47 -106h142l-20 -126h-178l-72 -161h-130l72 161h-119l-72 -161h-129zM346 393l-47 -106h119l47 106h-119z" />
    <glyph glyph-name="dollar" unicode="$" horiz-adv-x="559" 
d="M335 -70l-115 -30v100h-42q-145 0 -145 125v96h144v-46q0 -39 40 -39h125q40 0 40 39v29q0 17 -9.5 26t-31.5 18l-154 69q-88 41 -116 71t-28 98v99q0 125 145 125h32v70l115 27v-97h36q145 0 145 -125v-84h-144v34q0 39 -40 39h-104q-41 0 -41 -39v-20q0 -22 8 -31
t33 -20l154 -70q39 -18 53 -25t38 -21t31.5 -25t14.5 -28t7 -39v-131q0 -125 -145 -125h-46v-70z" />
    <glyph glyph-name="percent" unicode="%" horiz-adv-x="760" 
d="M172 0l317 710h99l-317 -710h-99zM25 627q0 83 90 83h108q90 0 90 -83v-173q0 -84 -90 -84h-108q-90 0 -90 84v173zM198 626h-56q-28 0 -28 -26v-120q0 -26 28 -26h56q26 0 26 26v120q0 26 -26 26zM447 256q0 83 90 83h109q90 0 90 -83v-173q0 -84 -90 -84h-109
q-90 0 -90 84v173zM620 255h-56q-27 0 -27 -26v-120q0 -26 27 -26h56q27 0 27 26v120q0 26 -27 26z" />
    <glyph glyph-name="ampersand" unicode="&#x26;" horiz-adv-x="677" 
d="M363 574h-84q-50 0 -50 -49v-53q0 -49 44 -49h391v-136h-86v-152q0 -135 -155 -135h-224q-154 0 -154 135v122q0 36 22 65.5t64 32.5q-22 5 -34 30t-12 48v142q0 135 154 135h131q99 0 143.5 -29.5t44.5 -105.5v-74h-144v24q0 49 -51 49zM239 136h145q50 0 50 49v102
h-153q-49 0 -70.5 -9.5t-21.5 -39.5v-53q0 -49 50 -49z" />
    <glyph glyph-name="quotesingle" unicode="'" horiz-adv-x="218" 
d="M21 720h181l-62 -246h-70z" />
    <glyph glyph-name="parenleft" unicode="(" horiz-adv-x="294" 
d="M253 614h-19q-40 0 -40 -39v-567q0 -39 40 -39h29l-10 -126h-29q-87 0 -126 27t-39 98v647q0 72 39.5 98.5t130.5 26.5h34z" />
    <glyph glyph-name="parenright" unicode=")" horiz-adv-x="294" 
d="M60 614h-19l-10 126h34q90 0 129.5 -26.5t39.5 -98.5v-647q0 -71 -38.5 -98t-125.5 -27h-29l-10 126h29q40 0 40 39v567q0 39 -40 39z" />
    <glyph glyph-name="asterisk" unicode="*" horiz-adv-x="372" 
d="M143 720h86v-75l59 38l60 -61l-85 -54l81 -50l-56 -64l-59 36v-75h-86v78l-59 -37l-53 61l77 50l-85 54l60 61l60 -37v75z" />
    <glyph glyph-name="plus" unicode="+" horiz-adv-x="510" 
d="M22 228l20 136h141v146h144v-146h161l-20 -136h-141v-150h-144v150h-161z" />
    <glyph glyph-name="comma" unicode="," horiz-adv-x="231" 
d="M60 -157h-19v300h149v-140z" />
    <glyph glyph-name="hyphen" unicode="-" horiz-adv-x="456" 
d="M418 354l-20 -126h-358l20 126h358z" />
    <glyph glyph-name="period" unicode="." horiz-adv-x="236" 
d="M42 -5v149h152v-149h-152z" />
    <glyph glyph-name="slash" unicode="/" horiz-adv-x="470" 
d="M309 750h146l-292 -790h-147z" />
    <glyph glyph-name="zero" unicode="0" horiz-adv-x="632" 
d="M59 145v420q0 145 165 145h184q165 0 165 -145v-420q0 -145 -165 -145h-184q-165 0 -165 145zM253 574q-50 0 -50 -49v-340q0 -49 50 -49h125q51 0 51 49v340q0 49 -51 49h-125z" />
    <glyph glyph-name="one" unicode="1" horiz-adv-x="316" 
d="M102 0v553l-86 -43v146l105 54h125v-710h-144z" />
    <glyph glyph-name="two" unicode="2" horiz-adv-x="550" 
d="M237 574q-50 0 -50 -49v-24h-145v64q0 145 165 145h145q164 0 164 -145v-105q0 -59 -34.5 -94.5t-110.5 -70.5l-153 -67q-41 -18 -41 -59v-33h153q50 0 50 49v36h144v-76q0 -145 -164 -145h-327v199q0 59 34.5 94.5t110.5 69.5l154 68q20 9 30 21t10 38v40q-3 44 -51 44
h-84z" />
    <glyph glyph-name="three" unicode="3" horiz-adv-x="579" 
d="M337 136q51 0 51 49v53q0 49 -44 49h-161v136h131q44 0 44 49v53q0 46 -46 49h-69q-50 0 -50 -49v-24h-144v64q0 145 165 145h133q155 0 155 -135v-142q0 -67 -46 -78q36 -3 56 -25.5t20 -62.5v-122q0 -145 -164 -145h-174q-165 0 -165 145v66h144v-26q0 -49 50 -49h114z
" />
    <glyph glyph-name="four" unicode="4" horiz-adv-x="580" 
d="M21 106v199q0 63 39 107l260 298h175l-295 -345q-35 -41 -35 -80v-43h169v185l114 27h31v-212h96l-20 -136h-76v-106h-145v106h-313z" />
    <glyph glyph-name="five" unicode="5" horiz-adv-x="544" 
d="M315 136q50 0 50 49v92q0 49 -44 49h-270v384h452l-20 -136h-288v-112h169q145 0 145 -135v-182q0 -145 -165 -145h-150q-165 0 -165 145v75h144v-35q0 -48 44 -49h98z" />
    <glyph glyph-name="six" unicode="6" horiz-adv-x="597" 
d="M552 317v-182q0 -135 -155 -135h-183q-155 0 -155 135v440q0 135 155 135h183q155 0 155 -135v-74h-144v24q0 49 -51 49h-104q-50 0 -50 -49v-83h224q125 0 125 -125zM408 257q0 49 -44 49h-161v-121q0 -49 50 -49h105q50 0 50 49v72z" />
    <glyph glyph-name="seven" unicode="7" horiz-adv-x="496" 
d="M25 574v136h459v-179q0 -56 -27 -98l-272 -433h-174l306 480q23 37 23 81v13h-315z" />
    <glyph glyph-name="eight" unicode="8" horiz-adv-x="617" 
d="M87 463v102q0 145 165 145h123q165 0 165 -145v-102q0 -45 -8 -65.5t-38 -32.5q42 -16 59 -40.5t17 -77.5v-102q0 -145 -165 -145h-183q-165 0 -165 145v102q0 53 17 77.5t59 40.5q-30 12 -38 32.5t-8 65.5zM381 297h-135q-45 0 -45 -49v-63q0 -49 50 -49h125q50 0 50 49
v63q0 49 -45 49zM281 574q-50 0 -50 -49v-43q0 -49 45 -49h75q45 0 45 49v43q0 49 -50 49h-65z" />
    <glyph glyph-name="nine" unicode="9" horiz-adv-x="589" 
d="M335 136q51 0 51 49v81h-214q-125 0 -125 125v174q0 145 165 145h153q165 0 165 -145v-420q0 -145 -165 -145h-153q-165 0 -165 145v66h144v-26q0 -48 46 -49h98zM237 574q-45 -1 -46 -44v-79q0 -49 44 -49h151v123q0 49 -51 49h-98z" />
    <glyph glyph-name="colon" unicode=":" horiz-adv-x="241" 
d="M43 -5v149h152v-149h-152zM43 335v149h152v-149h-152z" />
    <glyph glyph-name="semicolon" unicode=";" horiz-adv-x="245" 
d="M66 -157h-19v300h149v-140zM47 330v149h152v-149h-152z" />
    <glyph glyph-name="less" unicode="&#x3c;" horiz-adv-x="388" 
d="M341 0l-320 276v60l320 276v-136l-198 -170l198 -170v-136z" />
    <glyph glyph-name="equal" unicode="=" horiz-adv-x="470" 
d="M423 228l-20 -126h-355l19 126h356zM423 480l-20 -126h-355l19 126h356z" />
    <glyph glyph-name="greater" unicode="&#x3e;" horiz-adv-x="387" 
d="M367 276l-320 -276v136l198 170l-198 170v136l320 -276v-60z" />
    <glyph glyph-name="question" unicode="?" horiz-adv-x="521" 
d="M395 298l-49 -23q-21 -9 -30.5 -18t-9.5 -26v-71h-144v113q0 26 7 45.5t22.5 32.5t26 18.5t31.5 15.5l64 29q22 10 30.5 19.5t8.5 27.5v74q0 39 -40 39h-104q-41 0 -41 -39v-54h-144v104q0 125 145 125h184q145 0 145 -125v-139q0 -66 -22.5 -94t-79.5 -54zM157 -5v149
h152v-149h-152z" />
    <glyph glyph-name="at" unicode="@" horiz-adv-x="772" 
d="M223 131h445l-18 -131h-427q-165 0 -165 138v426q0 137 165 137h352q165 0 165 -137v-288q0 -98 -120 -98h-60q-56 0 -76.5 9.5t-21.5 37.5q-11 -43 -59 -43h-41q-70 0 -99 19.5t-29 86.5v78q0 81 20 115t88 34h98q28 0 46 -2.5t39 -10.5t31.5 -27t10.5 -49v-122
q0 -10 13 -10h20q11 0 11 14v229q0 33 -38 33h-350q-37 0 -37 -33v-373q0 -33 37 -33zM385 294h27q26 0 31.5 6t5.5 31v42q0 18 -7 24t-25 6h-33q-17 0 -23 -9t-6 -27v-33q0 -16 1.5 -23t8 -12t20.5 -5z" />
    <glyph glyph-name="A" unicode="A" horiz-adv-x="602" 
d="M228 710h145l234 -710h-153l-36 116h-235l-36 -116h-152zM302 499l-77 -247h152z" />
    <glyph glyph-name="B" unicode="B" horiz-adv-x="587" 
d="M52 0v710h298q165 0 165 -145v-94q0 -81 -50 -97q48 -1 69 -25.5t21 -81.5v-122q0 -145 -165 -145h-338zM196 306v-170h165q50 0 50 49v72q0 49 -45 49h-170zM196 574v-132h131q44 0 44 49v34q0 49 -51 49h-124z" />
    <glyph glyph-name="C" unicode="C" horiz-adv-x="582" 
d="M242 136h115q50 0 50 49v36h144v-76q0 -145 -164 -145h-174q-165 0 -165 145v420q0 145 165 145h174q164 0 164 -145v-74h-144v34q0 49 -50 49h-115q-50 0 -50 -49v-340q0 -49 50 -49z" />
    <glyph glyph-name="D" unicode="D" horiz-adv-x="622" 
d="M52 0v710h309q109 0 161.5 -43t52.5 -132v-360q0 -89 -52.5 -132t-161.5 -43h-309zM341 136q47 0 68.5 21.5t21.5 67.5v260q0 46 -21.5 67.5t-68.5 21.5h-145v-438h145z" />
    <glyph glyph-name="E" unicode="E" horiz-adv-x="521" 
d="M196 574v-210h247l-20 -136h-227v-92h307l-20 -136h-431v710h451l-20 -136h-287z" />
    <glyph glyph-name="F" unicode="F" horiz-adv-x="498" 
d="M196 574v-210h237l-19 -136h-218v-228h-144v710h441l-20 -136h-277z" />
    <glyph glyph-name="G" unicode="G" horiz-adv-x="602" 
d="M305 254l19 136h237v-255q0 -135 -155 -135h-204q-154 0 -154 135v440q0 135 154 135h205q154 0 154 -135v-74h-144v24q0 49 -50 49h-125q-50 0 -50 -49v-340q0 -49 50 -49h125q50 0 50 49v69h-112z" />
    <glyph glyph-name="H" unicode="H" horiz-adv-x="616" 
d="M196 0h-144v710h144v-326h224v326h144v-710h-144v248h-224v-248z" />
    <glyph glyph-name="I" unicode="I" horiz-adv-x="248" 
d="M196 0h-144v710h144v-710z" />
    <glyph glyph-name="J" unicode="J" horiz-adv-x="393" 
d="M148 136q51 0 51 49v525h144v-555q0 -155 -175 -155h-157l20 136h117z" />
    <glyph glyph-name="K" unicode="K" horiz-adv-x="584" 
d="M196 0h-144v710h144v-323l233 323h159l-255 -355l268 -355h-163l-242 324v-324z" />
    <glyph glyph-name="L" unicode="L" horiz-adv-x="480" 
d="M196 710v-574h282l-19 -136h-407v710h144z" />
    <glyph glyph-name="M" unicode="M" horiz-adv-x="711" 
d="M186 0h-134v710h145l158 -326l159 326h144v-710h-134v433l-99 -205h-139l-100 206v-434z" />
    <glyph glyph-name="N" unicode="N" 
d="M196 0h-144v710h144l220 -388q10 -19 18 -46v434h144v-710h-144l-211 368q-14 23 -27 68v-436z" />
    <glyph glyph-name="O" unicode="O" 
d="M48 145v420q0 145 165 145h204q165 0 165 -145v-420q0 -145 -165 -145h-204q-165 0 -165 145zM242 574q-50 0 -50 -49v-340q0 -49 50 -49h146q50 0 50 49v340q0 49 -50 49h-146z" />
    <glyph glyph-name="P" unicode="P" horiz-adv-x="573" 
d="M196 228v-228h-144v710h318q175 0 175 -155v-172q0 -155 -175 -155h-174zM196 574v-210h155q50 0 50 49v112q0 49 -50 49h-155z" />
    <glyph glyph-name="Q" unicode="Q" 
d="M48 145v420q0 145 165 145h204q165 0 165 -145v-420q0 -145 -165 -145h-33v-102h-134v102h-37q-165 0 -165 145zM242 136h8v75h134v-75h4q50 0 50 49v340q0 49 -50 49h-146q-50 0 -50 -49v-340q0 -49 50 -49z" />
    <glyph glyph-name="R" unicode="R" horiz-adv-x="588" 
d="M52 0v710h338q155 0 155 -135v-212q0 -117 -114 -133l159 -230h-165l-157 228h-72v-228h-144zM196 574v-210h155q50 0 50 49v112q0 49 -50 49h-155z" />
    <glyph glyph-name="S" unicode="S" horiz-adv-x="561" 
d="M341 248l-154 69q-88 41 -116 71t-28 98v99q0 125 145 125h183q145 0 145 -125v-84h-144v34q0 39 -40 39h-104q-41 0 -41 -39v-20q0 -22 8 -31t33 -20l154 -70q39 -18 53 -25t38 -21t31.5 -25t14.5 -28t7 -39v-131q0 -125 -145 -125h-203q-145 0 -145 125v96h144v-46
q0 -39 40 -39h125q40 0 40 39v29q0 17 -9.5 26t-31.5 18z" />
    <glyph glyph-name="T" unicode="T" horiz-adv-x="511" 
d="M501 574h-173v-574h-145v574h-173v136h491v-136z" />
    <glyph glyph-name="U" unicode="U" horiz-adv-x="603" 
d="M358 136q51 0 51 49v525h144v-575q0 -135 -155 -135h-193q-155 0 -155 135v575h144v-525q0 -49 50 -49h114z" />
    <glyph glyph-name="V" unicode="V" horiz-adv-x="571" 
d="M358 0h-146l-203 710h154l116 -465q1 -4 7 -64q0 40 6 64l116 465h154z" />
    <glyph glyph-name="W" unicode="W" horiz-adv-x="902" 
d="M356 0h-147l-200 710h146l112 -464q9 -31 12 -65q0 2 3.5 27t5.5 37l94 465h137l95 -465q10 -50 10 -60q3 31 11 59l112 466h146l-200 -710h-147l-91 407q-2 12 -3 47t-2 42q-3 -82 -5 -89z" />
    <glyph glyph-name="X" unicode="X" horiz-adv-x="542" 
d="M272 411l118 299h150l-150 -356l150 -354h-151l-117 278l-118 -278h-151l152 354l-155 356h149z" />
    <glyph glyph-name="Y" unicode="Y" horiz-adv-x="587" 
d="M367 0h-144v261l-231 449h149l134 -264q16 -34 19 -59q3 28 18 58l130 265h150l-225 -445v-265z" />
    <glyph glyph-name="Z" unicode="Z" horiz-adv-x="528" 
d="M498 585l-298 -449h313l-20 -136h-454l-20 125l297 449h-278l-20 136h460z" />
    <glyph glyph-name="bracketleft" unicode="[" horiz-adv-x="295" 
d="M199 0h59l10 -126h-203v837h193l10 -126h-69v-585z" />
    <glyph glyph-name="backslash" unicode="\" horiz-adv-x="690" 
d="M235 750h146l293 -790h-147z" />
    <glyph glyph-name="bracketright" unicode="]" horiz-adv-x="295" 
d="M96 585h-59l-10 126h203v-837h-193l-10 126h69v585z" />
    <glyph glyph-name="asciicircum" unicode="^" horiz-adv-x="535" 
d="M22 390l216 320h59l216 -320h-135l-111 177l-110 -177h-135z" />
    <glyph glyph-name="underscore" unicode="_" horiz-adv-x="662" 
d="M621 0l-20 -126h-559l20 126h559z" />
    <glyph glyph-name="grave" unicode="`" horiz-adv-x="237" 
d="M-129 760h140l82 -136h-90z" />
    <glyph glyph-name="a" unicode="a" horiz-adv-x="497" 
d="M340 0l-10 50q-19 -30 -42 -40t-70 -10h-64q-125 0 -125 125v73q0 115 125 115h164v33q0 39 -40 39h-65q-40 0 -40 -39v-5h-125v45q0 125 126 125h143q135 0 135 -125v-386h-112zM183 126h94q41 0 41 39v32h-135q-30 0 -30 -37v-5q0 -29 30 -29z" />
    <glyph glyph-name="b" unicode="b" horiz-adv-x="523" 
d="M292 0q-47 0 -72 9.5t-38 33.5v-43h-135v713l113 27h22v-260q39 31 109 31h55q135 0 135 -125v-251q0 -135 -145 -135h-44zM182 347v-183q3 -43 50 -43h64q50 0 50 49v171q0 49 -50 49h-64q-47 0 -50 -43z" />
    <glyph glyph-name="c" unicode="c" horiz-adv-x="492" 
d="M294 379h-77q-41 0 -41 -39v-175q0 -39 41 -39h78q21 0 30.5 7.5t9.5 26.5v20h124v-45q0 -135 -134 -135h-138q-145 0 -145 135v235q0 135 145 135h147q125 0 125 -125v-55h-124v15q0 39 -41 39z" />
    <glyph glyph-name="d" unicode="d" horiz-adv-x="523" 
d="M475 740v-740h-112l-13 56q-12 -30 -39.5 -43t-79.5 -13h-54q-135 0 -135 125v241q0 145 145 145h54q40 0 62 -8t38 -30v240l112 27h22zM290 121q48 0 51 43v183q-3 43 -51 43h-64q-50 0 -50 -49v-171q0 -49 50 -49h64z" />
    <glyph glyph-name="e" unicode="e" horiz-adv-x="487" 
d="M216 118h69q41 0 41 29v17h124v-27q0 -84 -36.5 -110.5t-139.5 -26.5h-57q-94 0 -134.5 28t-40.5 107v241q0 86 40 110.5t144 24.5h47q52 0 81.5 -4t53.5 -17.5t33 -40.5t9 -73v-60q0 -73 -26.5 -100.5t-117.5 -27.5h-130v-31q0 -39 40 -39zM295 395h-89q-30 0 -30 -29
v-62h121q29 0 29 24v39q0 28 -31 28z" />
    <glyph glyph-name="f" unicode="f" horiz-adv-x="325" 
d="M263 614q-40 0 -40 -39v-70h100l-20 -126h-80v-379h-134v379h-84l19 126h65v90q0 77 40.5 111t141.5 34h89l-31 -126h-66z" />
    <glyph glyph-name="g" unicode="g" horiz-adv-x="517" 
d="M249 102h134q135 0 135 -123v-90q0 -73 -41 -98t-138 -25h-134q-97 0 -138 25t-41 98v90q0 87 67 112q-3 12 -3 28v12q0 20 8 33q-52 25 -52 104v120q0 70 39.5 96t128.5 26h59q34 0 67 -5l83 81l87 -86l-73 -71q4 -16 4 -41v-120q0 -68 -36 -94t-120 -28h-38
q-22 -1 -22 -19v-5q0 -19 24 -20zM200 -12q-41 0 -41 -48v-11q0 -49 41 -49h144q41 0 41 49v11q0 48 -41 48h-144zM270 401h-53q-43 0 -43 -49v-49q0 -48 43 -48h53q43 0 43 48v49q0 49 -43 49z" />
    <glyph glyph-name="h" unicode="h" horiz-adv-x="517" 
d="M182 354v-354h-135v713l113 27h22v-262q30 33 100 33h54q135 0 135 -125v-386h-135v346q0 49 -50 49h-54q-47 0 -50 -41z" />
    <glyph glyph-name="i" unicode="i" horiz-adv-x="261" 
d="M79 379h-68v126h202v-505h-134v379zM69 571v149h152v-149h-152z" />
    <glyph glyph-name="j" unicode="j" horiz-adv-x="261" 
d="M79 379h-68v126h202v-595q0 -125 -135 -125h-96l20 126h37q40 0 40 39v429zM70 571v149h152v-149h-152z" />
    <glyph glyph-name="k" unicode="k" horiz-adv-x="496" 
d="M484 505l-179 -253l181 -252h-147l-157 218v-218h-135v713l113 27h22v-455l157 220h145z" />
    <glyph glyph-name="l" unicode="l" horiz-adv-x="250" 
d="M219 120h16l10 -126h-66q-135 0 -135 125v594l113 27h22v-581q0 -39 40 -39z" />
    <glyph glyph-name="m" unicode="m" horiz-adv-x="784" 
d="M46 0v478l105 27h19v-42q41 42 121 42h34q85 0 117 -50q41 50 128 50h34q135 0 135 -125v-380h-135v340q0 49 -50 49h-44q-44 0 -50 -37v-352h-135v340q0 49 -50 49h-44q-49 0 -50 -43v-346h-135z" />
    <glyph glyph-name="n" unicode="n" horiz-adv-x="515" 
d="M46 0v478l105 27h19v-41q17 26 42.5 36.5t68.5 10.5h54q135 0 135 -125v-386h-135v346q0 49 -50 49h-54q-47 0 -50 -41v-354h-135z" />
    <glyph glyph-name="o" unicode="o" horiz-adv-x="520" 
d="M187 511h146q145 0 145 -135v-241q0 -135 -145 -135h-146q-145 0 -145 135v241q0 135 145 135zM304 390h-87q-41 0 -41 -39v-191q0 -39 41 -39h87q40 0 40 39v191q0 39 -40 39z" />
    <glyph glyph-name="p" unicode="p" horiz-adv-x="522" 
d="M181 43v-263h-135v698l105 27h19v-35q41 41 120 41h55q135 0 135 -125v-251q0 -135 -145 -135h-44q-47 0 -72 9.5t-38 33.5zM231 390q-47 0 -50 -41v-185q3 -43 50 -43h64q50 0 50 49v171q0 49 -50 49h-64z" />
    <glyph glyph-name="q" unicode="q" horiz-adv-x="523" 
d="M341 0v38q-28 -38 -110 -38h-54q-135 0 -135 125v241q0 145 145 145h54q46 0 68.5 -11t41.5 -42v47h124v-482h1v-243h-134v220h-1zM341 162v185q-3 43 -51 43h-64q-50 0 -50 -49v-171q0 -49 50 -49h64q47 0 51 41z" />
    <glyph glyph-name="r" unicode="r" horiz-adv-x="357" 
d="M351 401l-119 -30q-27 -7 -38.5 -18.5t-12.5 -34.5v-318h-135v478l105 27h19v-58q23 41 58 50l104 28h9z" />
    <glyph glyph-name="s" unicode="s" horiz-adv-x="474" 
d="M277 395h-83q-30 0 -30 -29v-8q0 -13 9 -18.5t32 -10.5l112 -25q78 -17 101.5 -39.5t23.5 -86.5v-63q0 -66 -36.5 -90.5t-119.5 -24.5h-100q-94 0 -125 27.5t-31 104.5v28h124v-15q0 -29 30 -29h103q31 0 31 29v4q0 14 -8.5 19t-32.5 10l-112 24q-45 10 -70 20.5
t-37.5 29t-15 36t-2.5 53.5v44q0 71 31 98.5t125 27.5h80q95 0 125.5 -28.5t30.5 -109.5v-32h-124v25q0 29 -31 29z" />
    <glyph glyph-name="t" unicode="t" horiz-adv-x="336" 
d="M323 505l-10 -126h-90v-214q0 -39 41 -39h36l10 -126h-76q-145 0 -145 135v244h-74l10 126h64v60l124 80h10v-140h100z" />
    <glyph glyph-name="u" unicode="u" horiz-adv-x="516" 
d="M468 505v-505h-94l-13 41q-41 -41 -117 -41h-55q-144 0 -144 135v370h134v-340q0 -49 50 -49h55q47 0 50 43v346h134z" />
    <glyph glyph-name="v" unicode="v" horiz-adv-x="491" 
d="M327 0h-163l-155 505h141l96 -353l95 353h141z" />
    <glyph glyph-name="w" unicode="w" horiz-adv-x="770" 
d="M323 0h-164l-148 505h141l88 -353l76 353h137l76 -353l88 353h141l-146 -505h-164l-59 244l-5 16q-2 -12 -4 -16z" />
    <glyph glyph-name="x" unicode="x" horiz-adv-x="469" 
d="M234 312l80 193h145l-112 -253l110 -252h-145l-78 177l-77 -177h-145l110 252l-112 253h145z" />
    <glyph glyph-name="y" unicode="y" horiz-adv-x="496" 
d="M124 -99q25 0 39 13.5t26 54.5l9 31h-36l-153 505h140l94 -348l100 348h145l-176 -562q-18 -58 -37 -92t-45 -50.5t-51 -21t-68 -4.5h-83l21 126h75z" />
    <glyph glyph-name="z" unicode="z" horiz-adv-x="439" 
d="M408 404l-227 -296h238l-14 -108h-370l-14 101l227 296h-205l-14 108h365z" />
    <glyph glyph-name="braceleft" unicode="{" horiz-adv-x="319" 
d="M264 0h19l9 -126h-34q-104 0 -136.5 33.5t-32.5 129.5v115q0 45 -10.5 61t-50.5 16h-17v126h33q31 0 39.5 17t8.5 51v166q0 69 35 95.5t126 26.5h29l11 -126h-29q-27 0 -34 -14t-7 -60v-157q0 -51 -63 -63q32 -6 47.5 -23t15.5 -58v-139q0 -39 8 -55t33 -16z" />
    <glyph glyph-name="bar" unicode="|" horiz-adv-x="260" 
d="M197 -250h-134v1000l114 27h20v-1027z" />
    <glyph glyph-name="braceright" unicode="}" horiz-adv-x="319" 
d="M36 0h19q25 0 32.5 16t7.5 55v139q0 40 16 57.5t47 23.5q-63 12 -63 63v157q0 46 -6.5 60t-33.5 14h-29l10 126h30q91 0 126 -26.5t35 -95.5v-166q0 -22 2.5 -34.5t13 -23t31.5 -10.5h34v-126h-17q-40 0 -50.5 -16t-10.5 -61v-115q0 -96 -32.5 -129.5t-136.5 -33.5h-35z
" />
    <glyph glyph-name="asciitilde" unicode="~" horiz-adv-x="420" 
d="M379 337v-107q-51 41 -88 41q-21 0 -67 -30.5t-85 -30.5q-49 0 -98 36v107q52 -42 88 -42q21 0 67 31t85 31q49 0 98 -36z" />
    <glyph glyph-name="exclamdown" unicode="&#xa1;" horiz-adv-x="254" 
d="M59 331h135v-523l-115 -27h-20v550zM55 363v149h152v-149h-152z" />
    <glyph glyph-name="cent" unicode="&#xa2;" horiz-adv-x="491" 
d="M329 627v-117q72 -3 104 -29.5t32 -94.5v-45h-125v5q0 39 -40 39h-56q-28 0 -39.5 -1.5t-20 -10t-8.5 -27.5v-181q0 -19 8.5 -27.5t20 -10t39.5 -1.5h56q22 0 31 7t9 27h125v-35q0 -68 -32 -95t-104 -30v-110h-134v110h-19q-134 0 -134 125v261q0 69 36 96t117 29v89
l114 27h20z" />
    <glyph glyph-name="sterling" unicode="&#xa3;" horiz-adv-x="601" 
d="M404 403l-20 -126h-133q-9 -24 -29.5 -72.5t-28.5 -68.5h383l-20 -136h-510v137q20 39 40 87q9 24 19 53h-79l20 126h83q1 11 1 34q0 21 -12 63.5t-12 64.5q0 89 39 117t135 28h118q161 -1 161 -135v-75h-144v25q0 46 -46 49h-59q-50 0 -50 -42q0 -8 3.5 -25.5t3.5 -19.5
q5 -43 7 -84h130z" />
    <glyph glyph-name="currency" unicode="&#xa4;" horiz-adv-x="561" 
d="M435 23l-56 56l-20 -20q-42 -42 -81 -42q-34 0 -65 31l-31 30l-55 -55l-90 89l55 56l-30 30q-32 32 -32 67q0 39 42 81l20 20l-56 57l90 89l56 -57l20 20q44 44 83 44q33 0 65 -32l30 -31l56 55l88 -89l-54 -55l30 -30q31 -31 31 -66q0 -40 -42 -82l-20 -20l55 -56z
M303 143l101 100q24 25 2 47l-103 103q-21 21 -46 -3l-100 -100q-24 -24 -1 -46l103 -101q23 -24 44 0z" />
    <glyph glyph-name="yen" unicode="&#xa5;" horiz-adv-x="574" 
d="M362 0h-144v82h-116l20 126h96v30h-116l20 126h53l-158 346h159l114 -294l107 294h160l-155 -346h78l-19 -126h-99v-30h118l-19 -126h-99v-82z" />
    <glyph glyph-name="brokenbar" unicode="&#xa6;" horiz-adv-x="261" 
d="M196 -250h-134v398h134v-398zM196 777v-413h-134v386l114 27h20z" />
    <glyph glyph-name="section" unicode="&#xa7;" horiz-adv-x="504" 
d="M477 267v-51q0 -55 -15 -87t-56 -44l-20 -6l11 -7q27 -17 27 -90v-46q0 -73 -31.5 -101t-121.5 -28h-52q-93 0 -123.5 34.5t-30.5 126.5v35h118v-30q0 -56 45 -56h33q27 0 36 11.5t9 42.5v10q0 39 -42 50l-113 32q-82 23 -103 56t-21 131v51q0 55 15 86.5t56 44.5l20 6
l-11 7q-27 17 -27 90v46q0 73 32 101t122 28h51q92 0 123 -34.5t31 -126.5v-35h-118v30q0 56 -44 56h-35q-26 0 -35 -11.5t-9 -42.5v-10q0 -39 42 -51l113 -31q82 -24 103 -56.5t21 -130.5zM188 188l46 -14h50q40 0 57.5 10.5t17.5 42.5v51q0 37 -43 51l-46 14h-50
q-40 0 -57.5 -10.5t-17.5 -42.5v-51q0 -39 43 -51z" />
    <glyph glyph-name="dieresis" unicode="&#xa8;" horiz-adv-x="833" 
d="M255 775h112v-123h-112v123zM445 775h111v-123h-111v123z" />
    <glyph glyph-name="copyright" unicode="&#xa9;" horiz-adv-x="749" 
d="M691 545v-380q0 -135 -155 -135h-323q-155 0 -155 135v380q0 135 155 135h323q155 0 155 -135zM213 126h323q51 0 51 49v360q0 49 -51 49h-323q-51 0 -51 -49v-360q0 -49 51 -49zM401 437h-54q-26 0 -26 -24v-116q0 -25 26 -25h53q15 0 21 4.5t6 16.5h80v-22
q0 -81 -80 -81h-105q-87 0 -87 81v167q0 81 87 81h104q81 0 81 -81v-28h-80v3q0 24 -26 24z" />
    <glyph glyph-name="ordfeminine" unicode="&#xaa;" horiz-adv-x="310" 
d="M205 429l-6 27q-17 -27 -61 -27h-35q-69 0 -69 69v40q0 63 69 63h90v25q0 21 -22 21h-41q-22 0 -22 -21v-8h-68v23q0 69 68 69h85q74 0 74 -69v-212h-62zM119 492h52q22 0 22 21v25h-74q-16 0 -16 -15v-16q0 -15 16 -15z" />
    <glyph glyph-name="guillemotleft" unicode="&#xab;" horiz-adv-x="552" 
d="M309 69h-156l-131 183l131 183h156l-131 -183zM522 69h-156l-131 183l131 183h156l-131 -183z" />
    <glyph glyph-name="logicalnot" unicode="&#xac;" horiz-adv-x="595" 
d="M421 161v67h-379v136h505v-203h-126z" />
    <glyph glyph-name="registered" unicode="&#xae;" horiz-adv-x="749" 
d="M691 545v-380q0 -135 -155 -135h-323q-155 0 -155 135v380q0 135 155 135h323q155 0 155 -135zM213 126h323q51 0 51 49v360q0 49 -51 49h-323q-51 0 -51 -49v-360q0 -49 51 -49zM237 190v329h187q74 0 74 -62v-99q0 -48 -45 -60l78 -108h-96l-75 105h-37v-105h-86z
M323 445v-81h65q24 0 24 23v37q0 21 -24 21h-65z" />
    <glyph glyph-name="macron" unicode="&#xaf;" horiz-adv-x="373" 
d="M319 750l-20 -116h-261l20 116h261z" />
    <glyph glyph-name="degree" unicode="&#xb0;" horiz-adv-x="320" 
d="M143 779h32q70 0 90.5 -18.5t20.5 -86.5v-63q0 -69 -18.5 -87t-90.5 -18h-32q-70 0 -90.5 18.5t-20.5 86.5v63q0 69 18.5 87t90.5 18zM179 578q31 0 31 30v69q0 20 -10.5 25t-39.5 5h-19q-31 0 -31 -30v-69q0 -20 10.5 -25t39.5 -5h19z" />
    <glyph glyph-name="plusminus" unicode="&#xb1;" horiz-adv-x="528" 
d="M26 323l20 136h141v146h144v-146h161l-20 -136h-141v-150h-144v150h-161zM34 0l20 136h446l-20 -136h-446z" />
    <glyph glyph-name="twosuperior" unicode="&#xb2;" horiz-adv-x="298" 
d="M168 647h-38q-25 0 -25 -23v-6h-66v30q0 62 72 62h75q73 0 73 -62v-15q0 -25 -9.5 -39t-31.5 -27l-86 -50q-27 -13 -27 -25h70q24 0 24 23v6h67v-29q0 -63 -72 -63h-155v63q0 44 67 78l67 34q17 8 17 24q0 19 -22 19z" />
    <glyph glyph-name="threesuperior" unicode="&#xb3;" horiz-adv-x="292" 
d="M169 492q23 0 23 26q0 20 -20 20h-51l9 63h28q20 0 20 23t-24 23h-24q-23 0 -23 -23v-6h-67v29q0 63 73 63h61q72 0 72 -63v-41q0 -11 -5.5 -22.5t-15.5 -14.5q35 -2 35 -41v-36q0 -63 -73 -63h-84q-72 0 -72 63v29h67v-6q0 -23 24 -23h47z" />
    <glyph glyph-name="acute" unicode="&#xb4;" horiz-adv-x="519" 
d="M134 574h-110l82 158h155z" />
    <glyph glyph-name="mu" unicode="&#xb5;" horiz-adv-x="513" 
d="M468 505v-505h-94l-13 41q-41 -41 -117 -41h-65v-139h-134v644h134v-340q0 -49 50 -49h55q47 0 50 43v346h134z" />
    <glyph glyph-name="paragraph" unicode="&#xb6;" horiz-adv-x="655" 
d="M442 -168v693q0 46 -44 49v-742h-146v463h-77q-154 0 -154 135v145q0 135 154 135h257q155 0 155 -135v-743h-145zM215 431h37v143h-37q-50 0 -50 -49v-45q0 -49 50 -49z" />
    <glyph glyph-name="periodcentered" unicode="&#xb7;" horiz-adv-x="241" 
d="M43 221v149h152v-149h-152z" />
    <glyph glyph-name="cedilla" unicode="&#xb8;" horiz-adv-x="854" 
d="M367 -86l-30 13q-15 6 -21 14t-6 25v61h82v-36q0 -9 16 -16l27 -12q15 -7 21 -18t6 -35v-43q0 -42 -15 -53.5t-64 -11.5h-43q-53 0 -66.5 12.5t-13.5 59.5v18h76v-2q0 -7 2 -9.5t9 -2.5h23q11 0 11 11v9q0 10 -14 16z" />
    <glyph glyph-name="onesuperior" unicode="&#xb9;" horiz-adv-x="174" 
d="M40 647h-12l-10 63h40q73 0 73 -63v-218h-67v195q0 23 -24 23z" />
    <glyph glyph-name="ordmasculine" unicode="&#xba;" horiz-adv-x="304" 
d="M38 492v155q0 63 72 63h85q71 0 71 -63v-155q0 -63 -71 -63h-85q-72 0 -72 63zM129 492h48q23 0 23 23v109q0 23 -23 23h-48q-24 0 -24 -23v-109q0 -23 24 -23z" />
    <glyph glyph-name="guillemotright" unicode="&#xbb;" horiz-adv-x="553" 
d="M186 69h-157l131 183l-131 183h157l131 -183zM399 69h-156l131 183l-131 183h156l131 -183z" />
    <glyph glyph-name="onequarter" unicode="&#xbc;" horiz-adv-x="585" 
d="M60 0l317 710h100l-317 -710h-100zM47 628h-15l-13 82h52q96 0 96 -82v-287h-88v256q0 31 -32 31zM280 56v103q0 33 21 57l133 153h109l-160 -187q-14 -20 -14 -33v-11h61v38l57 12h29v-50h43l-14 -82h-29v-56h-86v56h-150z" />
    <glyph glyph-name="onehalf" unicode="&#xbd;" horiz-adv-x="674" 
d="M60 0l317 710h100l-317 -710h-100zM47 628h-15l-13 82h52q96 0 96 -82v-287h-88v256q0 31 -32 31zM517 287h-50q-33 0 -33 -31v-7h-87v39q0 81 95 81h99q96 0 96 -81v-20q0 -33 -12.5 -51t-41.5 -35l-113 -66q-36 -18 -36 -33h92q32 0 32 30v8h88v-38q0 -83 -95 -83h-204
v83q0 57 88 103l89 44q22 12 22 32q0 25 -29 25z" />
    <glyph glyph-name="threequarters" unicode="&#xbe;" horiz-adv-x="707" 
d="M185 0l317 710h100l-317 -710h-100zM405 56v103q0 33 21 57l133 153h109l-160 -187q-14 -20 -14 -33v-11h61v38l57 12h29v-50h43l-14 -82h-29v-56h-86v56h-150zM204 424q30 0 30 34q0 26 -26 26h-67l12 83h37q26 0 26 30q0 31 -32 31h-31q-30 0 -30 -31v-7h-88v38
q0 82 96 82h80q94 0 94 -82v-54q0 -14 -7.5 -30t-19.5 -19q46 -2 46 -54v-47q0 -83 -96 -83h-111q-94 0 -94 83v38h88v-8q0 -30 31 -30h62z" />
    <glyph glyph-name="questiondown" unicode="&#xbf;" horiz-adv-x="516" 
d="M173 216l-50 -23q-57 -26 -79 -54t-22 -94v-139q0 -125 145 -125h183q145 0 145 125v104h-144v-54q0 -39 -40 -39h-104q-41 0 -41 39v74q0 18 9 27t31 19l63 30q22 10 32 15.5t26 18.5t23 32.5t7 45.5v113h-144v-71q0 -17 -9.5 -26t-30.5 -18zM208 362v149h152v-149h-152
z" />
    <glyph glyph-name="Agrave" unicode="&#xc0;" horiz-adv-x="602" 
d="M228 710h145l234 -710h-153l-36 116h-235l-36 -116h-152zM302 499l-77 -247h152zM129 885h140l82 -136h-90z" />
    <glyph glyph-name="Aacute" unicode="&#xc1;" horiz-adv-x="602" 
d="M228 710h145l234 -710h-153l-36 116h-235l-36 -116h-152zM302 499l-77 -247h152zM332 750h-110l82 158h155z" />
    <glyph glyph-name="Acircumflex" unicode="&#xc2;" horiz-adv-x="602" 
d="M228 710h145l234 -710h-153l-36 116h-235l-36 -116h-152zM302 499l-77 -247h152zM263 859h75l123 -110h-127l-34 30l-35 -30h-125z" />
    <glyph glyph-name="Atilde" unicode="&#xc3;" horiz-adv-x="602" 
d="M228 710h145l234 -710h-153l-36 116h-235l-36 -116h-152zM302 499l-77 -247h152zM376 856q44 0 59 -13t15 -54v-54h-89v23q0 13 -9 13q-12 0 -27 -12l-15 -11q-19 -15 -82 -15q-44 0 -59 12t-15 55v53h89v-23q0 -13 9 -13q15 0 28 12l8 8q14 12 31 15.5t57 3.5z" />
    <glyph glyph-name="Adieresis" unicode="&#xc4;" horiz-adv-x="602" 
d="M228 710h145l234 -710h-153l-36 116h-235l-36 -116h-152zM302 499l-77 -247h152zM150 871h112v-123h-112v123zM340 871h111v-123h-111v123z" />
    <glyph glyph-name="Aring" unicode="&#xc5;" horiz-adv-x="602" 
d="M228 710h145l234 -710h-153l-36 116h-235l-36 -116h-152zM302 499l-77 -247h152zM266 919h70q52 0 67.5 -15t15.5 -70v-35q0 -56 -14 -70.5t-67 -14.5h-71q-51 0 -66 15t-15 70v35q0 56 14 70.5t66 14.5zM322 786q19 0 19 20v21q0 20 -19 20h-39q-21 0 -21 -20v-21
q0 -20 21 -20h39z" />
    <glyph glyph-name="AE" unicode="&#xc6;" horiz-adv-x="873" 
d="M548 574v-7l23 -203h224l-20 -136h-189l11 -92h258l-20 -136h-377l-13 116h-234l-63 -116h-164l394 710h477l-20 -136h-287zM404 473l-120 -221h145z" />
    <glyph glyph-name="Ccedilla" unicode="&#xc7;" horiz-adv-x="582" 
d="M317 -86l-30 13q-15 6 -21 14t-6 25v34h-47q-165 0 -165 145v420q0 145 165 145h174q164 0 164 -145v-74h-144v34q0 49 -50 49h-115q-50 0 -50 -49v-340q0 -49 50 -49h115q50 0 50 49v36h144v-76q0 -145 -164 -145h-45v-9q0 -9 16 -16l27 -12q15 -7 21 -18t6 -35v-43
q0 -42 -15 -53.5t-64 -11.5h-43q-53 0 -66.5 12.5t-13.5 59.5v18h76v-2q0 -7 2 -9.5t9 -2.5h23q11 0 11 11v9q0 10 -14 16z" />
    <glyph glyph-name="Egrave" unicode="&#xc8;" horiz-adv-x="521" 
d="M196 574v-210h247l-20 -136h-227v-92h307l-20 -136h-431v710h451l-20 -136h-287zM111 885h140l82 -136h-90z" />
    <glyph glyph-name="Eacute" unicode="&#xc9;" horiz-adv-x="521" 
d="M196 574v-210h247l-20 -136h-227v-92h307l-20 -136h-431v710h451l-20 -136h-287zM313 750h-110l82 158h155z" />
    <glyph glyph-name="Ecircumflex" unicode="&#xca;" horiz-adv-x="521" 
d="M196 574v-210h247l-20 -136h-227v-92h307l-20 -136h-431v710h451l-20 -136h-287zM244 859h75l123 -110h-127l-34 30l-35 -30h-125z" />
    <glyph glyph-name="Edieresis" unicode="&#xcb;" horiz-adv-x="521" 
d="M196 574v-210h247l-20 -136h-227v-92h307l-20 -136h-431v710h451l-20 -136h-287zM132 871h112v-123h-112v123zM322 871h111v-123h-111v123z" />
    <glyph glyph-name="Igrave" unicode="&#xcc;" horiz-adv-x="248" 
d="M196 0h-144v710h144v-710zM-49 885h140l82 -136h-90z" />
    <glyph glyph-name="Iacute" unicode="&#xcd;" horiz-adv-x="248" 
d="M196 0h-144v710h144v-710zM155 750h-110l82 158h155z" />
    <glyph glyph-name="Icircumflex" unicode="&#xce;" horiz-adv-x="248" 
d="M196 0h-144v710h144v-710zM84 859h75l123 -110h-127l-34 30l-35 -30h-125z" />
    <glyph glyph-name="Idieresis" unicode="&#xcf;" horiz-adv-x="248" 
d="M196 0h-144v710h144v-710zM-28 871h112v-123h-112v123zM162 871h111v-123h-111v123z" />
    <glyph glyph-name="Eth" unicode="&#xd0;" horiz-adv-x="644" 
d="M93 0v275h-100l20 126h80v309h338q165 0 165 -145v-420q0 -145 -165 -145h-338zM371 401l-20 -126h-114v-139h164q51 0 51 49v340q0 49 -51 49h-164v-173h134z" />
    <glyph glyph-name="Ntilde" unicode="&#xd1;" 
d="M196 0h-144v710h144l220 -388q10 -19 18 -46v434h144v-710h-144l-211 368q-14 23 -27 68v-436zM383 856q44 0 59 -13t15 -54v-54h-89v23q0 13 -9 13q-12 0 -27 -12l-15 -11q-19 -15 -82 -15q-44 0 -59 12t-15 55v53h89v-23q0 -13 9 -13q15 0 28 12l8 8q14 12 31 15.5
t57 3.5z" />
    <glyph glyph-name="Ograve" unicode="&#xd2;" 
d="M48 145v420q0 145 165 145h204q165 0 165 -145v-420q0 -145 -165 -145h-204q-165 0 -165 145zM242 574q-50 0 -50 -49v-340q0 -49 50 -49h146q50 0 50 49v340q0 49 -50 49h-146zM139 885h140l82 -136h-90z" />
    <glyph glyph-name="Oacute" unicode="&#xd3;" 
d="M48 145v420q0 145 165 145h204q165 0 165 -145v-420q0 -145 -165 -145h-204q-165 0 -165 145zM242 574q-50 0 -50 -49v-340q0 -49 50 -49h146q50 0 50 49v340q0 49 -50 49h-146zM341 750h-110l82 158h155z" />
    <glyph glyph-name="Ocircumflex" unicode="&#xd4;" 
d="M48 145v420q0 145 165 145h204q165 0 165 -145v-420q0 -145 -165 -145h-204q-165 0 -165 145zM242 574q-50 0 -50 -49v-340q0 -49 50 -49h146q50 0 50 49v340q0 49 -50 49h-146zM271 859h75l123 -110h-127l-34 30l-35 -30h-125z" />
    <glyph glyph-name="Otilde" unicode="&#xd5;" 
d="M48 145v420q0 145 165 145h204q165 0 165 -145v-420q0 -145 -165 -145h-204q-165 0 -165 145zM242 574q-50 0 -50 -49v-340q0 -49 50 -49h146q50 0 50 49v340q0 49 -50 49h-146zM330 856q44 0 59 -13t15 -54v-54h-89v23q0 13 -9 13q-12 0 -27 -12l-15 -11
q-19 -15 -82 -15q-44 0 -59 12t-15 55v53h89v-23q0 -13 9 -13q15 0 28 12l8 8q14 12 31 15.5t57 3.5z" />
    <glyph glyph-name="Odieresis" unicode="&#xd6;" 
d="M48 145v420q0 145 165 145h204q165 0 165 -145v-420q0 -145 -165 -145h-204q-165 0 -165 145zM242 574q-50 0 -50 -49v-340q0 -49 50 -49h146q50 0 50 49v340q0 49 -50 49h-146zM160 871h112v-123h-112v123zM350 871h111v-123h-111v123z" />
    <glyph glyph-name="multiply" unicode="&#xd7;" horiz-adv-x="436" 
d="M409 371l-105 -106l105 -104l-86 -87l-105 104l-104 -104l-87 87l105 104l-105 106l87 86l104 -105l105 105z" />
    <glyph glyph-name="Oslash" unicode="&#xd8;" horiz-adv-x="632" 
d="M491 760h156l-77 -123q14 -31 14 -72v-420q0 -145 -165 -145h-205q-26 0 -38 2l-32 -52h-158l76 123q-13 29 -13 72v420q0 145 165 145h205q21 0 39 -3zM244 574q-50 0 -50 -49v-241l181 290h-131zM389 136q50 0 50 49v240l-180 -289h130z" />
    <glyph glyph-name="Ugrave" unicode="&#xd9;" horiz-adv-x="603" 
d="M358 136q51 0 51 49v525h144v-575q0 -135 -155 -135h-193q-155 0 -155 135v575h144v-525q0 -49 50 -49h114zM129 885h140l82 -136h-90z" />
    <glyph glyph-name="Uacute" unicode="&#xda;" horiz-adv-x="603" 
d="M358 136q51 0 51 49v525h144v-575q0 -135 -155 -135h-193q-155 0 -155 135v575h144v-525q0 -49 50 -49h114zM333 750h-110l82 158h155z" />
    <glyph glyph-name="Ucircumflex" unicode="&#xdb;" horiz-adv-x="603" 
d="M358 136q51 0 51 49v525h144v-575q0 -135 -155 -135h-193q-155 0 -155 135v575h144v-525q0 -49 50 -49h114zM262 859h75l123 -110h-127l-34 30l-35 -30h-125z" />
    <glyph glyph-name="Udieresis" unicode="&#xdc;" horiz-adv-x="603" 
d="M358 136q51 0 51 49v525h144v-575q0 -135 -155 -135h-193q-155 0 -155 135v575h144v-525q0 -49 50 -49h114zM150 871h112v-123h-112v123zM340 871h111v-123h-111v123z" />
    <glyph glyph-name="Yacute" unicode="&#xdd;" horiz-adv-x="587" 
d="M367 0h-144v261l-231 449h149l134 -264q3 -8 8 -20.5t7.5 -20t3.5 -15.5q3 24 18 55l130 265h150l-225 -445v-265zM325 750h-110l82 158h155z" />
    <glyph glyph-name="Thorn" unicode="&#xde;" horiz-adv-x="573" 
d="M196 0h-144v750l124 27h20v-155h174q175 0 175 -155v-172q0 -155 -175 -155h-174v-140zM196 486v-210h155q50 0 50 49v112q0 49 -50 49h-155z" />
    <glyph glyph-name="germandbls" unicode="&#xdf;" horiz-adv-x="585" 
d="M47 -140v705q0 145 165 145h153q155 0 155 -135v-93q0 -21 -0.5 -30.5t-4.5 -29t-15.5 -31.5t-29.5 -17q28 -6 46 -19t24.5 -33t8 -32.5t1.5 -34.5v-6v-114q0 -135 -155 -135h-153v136h113q51 0 51 49v72q0 49 -45 49h-119v136h90q44 0 44 49v34q0 49 -51 49h-84
q-50 0 -50 -49v-665h-144z" />
    <glyph glyph-name="agrave" unicode="&#xe0;" horiz-adv-x="497" 
d="M340 0l-10 50q-19 -30 -42 -40t-70 -10h-64q-125 0 -125 125v73q0 115 125 115h164v33q0 39 -40 39h-65q-40 0 -40 -39v-5h-125v45q0 125 126 125h143q135 0 135 -125v-386h-112zM183 126h94q41 0 41 39v32h-135q-30 0 -30 -37v-5q0 -29 30 -29zM72 715h140l82 -136h-90z
" />
    <glyph glyph-name="aacute" unicode="&#xe1;" horiz-adv-x="497" 
d="M340 0l-10 50q-19 -30 -42 -40t-70 -10h-64q-125 0 -125 125v73q0 115 125 115h164v33q0 39 -40 39h-65q-40 0 -40 -39v-5h-125v45q0 125 126 125h143q135 0 135 -125v-386h-112zM183 126h94q41 0 41 39v32h-135q-30 0 -30 -37v-5q0 -29 30 -29zM288 574h-110l82 158h155
z" />
    <glyph glyph-name="acircumflex" unicode="&#xe2;" horiz-adv-x="497" 
d="M340 0l-10 50q-19 -30 -42 -40t-70 -10h-64q-125 0 -125 125v73q0 115 125 115h164v33q0 39 -40 39h-65q-40 0 -40 -39v-5h-125v45q0 125 126 125h143q135 0 135 -125v-386h-112zM183 126h94q41 0 41 39v32h-135q-30 0 -30 -37v-5q0 -29 30 -29zM205 689h75l123 -110
h-127l-34 30l-35 -30h-125z" />
    <glyph glyph-name="atilde" unicode="&#xe3;" horiz-adv-x="497" 
d="M340 0l-10 50q-19 -30 -42 -40t-70 -10h-64q-125 0 -125 125v73q0 115 125 115h164v33q0 39 -40 39h-65q-40 0 -40 -39v-5h-125v45q0 125 126 125h143q135 0 135 -125v-386h-112zM183 126h94q41 0 41 39v32h-135q-30 0 -30 -37v-5q0 -29 30 -29zM318 686q44 0 59 -13
t15 -54v-54h-89v23q0 13 -9 13q-12 0 -27 -12l-15 -11q-19 -15 -82 -15q-44 0 -59 12t-15 55v53h89v-23q0 -13 9 -13q15 0 28 12l8 8q14 12 31 15.5t57 3.5z" />
    <glyph glyph-name="adieresis" unicode="&#xe4;" horiz-adv-x="497" 
d="M340 0l-10 50q-19 -30 -42 -40t-70 -10h-64q-125 0 -125 125v73q0 115 125 115h164v33q0 39 -40 39h-65q-40 0 -40 -39v-5h-125v45q0 125 126 125h143q135 0 135 -125v-386h-112zM183 126h94q41 0 41 39v32h-135q-30 0 -30 -37v-5q0 -29 30 -29zM93 701h112v-123h-112
v123zM283 701h111v-123h-111v123z" />
    <glyph glyph-name="aring" unicode="&#xe5;" horiz-adv-x="497" 
d="M340 0l-10 50q-19 -30 -42 -40t-70 -10h-64q-125 0 -125 125v73q0 115 125 115h164v33q0 39 -40 39h-65q-40 0 -40 -39v-5h-125v45q0 125 126 125h143q135 0 135 -125v-386h-112zM183 126h94q41 0 41 39v32h-135q-30 0 -30 -37v-5q0 -29 30 -29zM208 749h70
q52 0 67.5 -15t15.5 -70v-35q0 -56 -14 -70.5t-67 -14.5h-71q-51 0 -66 15t-15 70v35q0 56 14 70.5t66 14.5zM264 616q19 0 19 20v21q0 20 -19 20h-39q-21 0 -21 -20v-21q0 -20 21 -20h39z" />
    <glyph glyph-name="ae" unicode="&#xe6;" horiz-adv-x="773" 
d="M492 126h79q41 0 41 29v9h124v-27q0 -83 -34.5 -110t-131.5 -27h-77q-66 0 -104.5 11.5t-55.5 41.5l-3 -3q-19 -30 -41.5 -40t-70.5 -10h-64q-125 0 -125 125v73q0 115 125 115h164v33q0 39 -40 39h-65q-40 0 -40 -39v-5h-125v45q0 125 126 125h144q40 0 69 -12
q36 12 106 12h77q93 0 129.5 -23t36.5 -102v-80q0 -67 -26.5 -92.5t-118.5 -25.5h-139v-29q3 -33 40 -33zM571 385h-60q-32 0 -45 -6t-14 -28v-47h121q39 0 39 23v32q0 26 -41 26zM183 126h94q41 0 41 39v32h-134q-31 0 -31 -37v-5q0 -29 30 -29z" />
    <glyph glyph-name="ccedilla" unicode="&#xe7;" horiz-adv-x="492" 
d="M257 -86l-30 13q-15 6 -21 14t-6 25v34h-13q-145 0 -145 135v235q0 135 145 135h147q125 0 125 -125v-55h-124v15q0 39 -41 39h-77q-41 0 -41 -39v-175q0 -39 41 -39h78q21 0 30.5 7.5t9.5 26.5v20h124v-45q0 -135 -134 -135h-43v-9q0 -9 16 -16l27 -12q15 -7 21 -18
t6 -35v-43q0 -42 -15 -53.5t-64 -11.5h-43q-53 0 -66.5 12.5t-13.5 59.5v18h76v-2q0 -7 2 -9.5t9 -2.5h23q11 0 11 11v9q0 10 -14 16z" />
    <glyph glyph-name="egrave" unicode="&#xe8;" horiz-adv-x="497" 
d="M216 118h69q41 0 41 29v17h124v-27q0 -84 -36.5 -110.5t-139.5 -26.5h-57q-94 0 -134.5 28t-40.5 107v241q0 86 40 110.5t144 24.5h47q52 0 81.5 -4t53.5 -17.5t33 -40.5t9 -73v-60q0 -73 -26.5 -100.5t-117.5 -27.5h-130v-31q0 -39 40 -39zM295 395h-89q-30 0 -30 -29
v-62h121q29 0 29 24v39q0 28 -31 28zM85 715h140l82 -136h-90z" />
    <glyph glyph-name="eacute" unicode="&#xe9;" horiz-adv-x="497" 
d="M216 118h69q41 0 41 29v17h124v-27q0 -84 -36.5 -110.5t-139.5 -26.5h-57q-94 0 -134.5 28t-40.5 107v241q0 86 40 110.5t144 24.5h47q52 0 81.5 -4t53.5 -17.5t33 -40.5t9 -73v-60q0 -73 -26.5 -100.5t-117.5 -27.5h-130v-31q0 -39 40 -39zM295 395h-89q-30 0 -30 -29
v-62h121q29 0 29 24v39q0 28 -31 28zM289 580h-110l82 158h155z" />
    <glyph glyph-name="ecircumflex" unicode="&#xea;" horiz-adv-x="497" 
d="M216 118h69q41 0 41 29v17h124v-27q0 -84 -36.5 -110.5t-139.5 -26.5h-57q-94 0 -134.5 28t-40.5 107v241q0 86 40 110.5t144 24.5h47q52 0 81.5 -4t53.5 -17.5t33 -40.5t9 -73v-60q0 -73 -26.5 -100.5t-117.5 -27.5h-130v-31q0 -39 40 -39zM295 395h-89q-30 0 -30 -29
v-62h121q29 0 29 24v39q0 28 -31 28zM218 689h75l123 -110h-127l-34 30l-35 -30h-125z" />
    <glyph glyph-name="edieresis" unicode="&#xeb;" horiz-adv-x="497" 
d="M216 118h69q41 0 41 29v17h124v-27q0 -84 -36.5 -110.5t-139.5 -26.5h-57q-94 0 -134.5 28t-40.5 107v241q0 86 40 110.5t144 24.5h47q52 0 81.5 -4t53.5 -17.5t33 -40.5t9 -73v-60q0 -73 -26.5 -100.5t-117.5 -27.5h-130v-31q0 -39 40 -39zM295 395h-89q-30 0 -30 -29
v-62h121q29 0 29 24v39q0 28 -31 28zM106 701h112v-123h-112v123zM296 701h111v-123h-111v123z" />
    <glyph glyph-name="igrave" unicode="&#xec;" horiz-adv-x="261" 
d="M79 379h-68v126h202v-505h-134v379zM-27 715h140l82 -136h-90z" />
    <glyph glyph-name="iacute" unicode="&#xed;" horiz-adv-x="261" 
d="M79 379h-68v126h202v-505h-134v379zM175 580h-110l82 158h155z" />
    <glyph glyph-name="icircumflex" unicode="&#xee;" horiz-adv-x="261" 
d="M79 379h-68v126h202v-505h-134v379zM105 689h75l123 -110h-127l-34 30l-35 -30h-125z" />
    <glyph glyph-name="idieresis" unicode="&#xef;" horiz-adv-x="261" 
d="M79 379h-68v126h202v-505h-134v379zM-6 701h112v-123h-112v123zM184 701h111v-123h-111v123z" />
    <glyph glyph-name="eth" unicode="&#xf0;" horiz-adv-x="506" 
d="M464 352v-227q0 -74 -40.5 -99.5t-135.5 -25.5h-82q-94 0 -134.5 25.5t-40.5 99.5v171q0 73 40 99t133 26h78q17 0 33 -9q-8 20 -15 28l-52 73l-138 -21v107l68 10l-72 101h156l54 -79l148 23v-107l-81 -13q7 -11 23 -33q58 -80 58 -149zM206 295q-41 0 -41 -39v-91
q0 -39 41 -39h84q40 0 40 39v98q0 21 -1 32h-123z" />
    <glyph glyph-name="ntilde" unicode="&#xf1;" horiz-adv-x="515" 
d="M46 0v478l105 27h19v-41q17 26 42.5 36.5t68.5 10.5h54q135 0 135 -125v-386h-135v346q0 49 -50 49h-54q-47 0 -50 -41v-354h-135zM344 686q44 0 59 -13t15 -54v-54h-89v23q0 13 -9 13q-12 0 -27 -12l-15 -11q-19 -15 -82 -15q-44 0 -59 12t-15 55v53h89v-23q0 -13 9 -13
q15 0 28 12l8 8q14 12 31 15.5t57 3.5z" />
    <glyph glyph-name="ograve" unicode="&#xf2;" horiz-adv-x="520" 
d="M187 511h146q145 0 145 -135v-241q0 -135 -145 -135h-146q-145 0 -145 135v241q0 135 145 135zM304 390h-87q-41 0 -41 -39v-191q0 -39 41 -39h87q40 0 40 39v191q0 39 -40 39zM87 715h140l82 -136h-90z" />
    <glyph glyph-name="oacute" unicode="&#xf3;" horiz-adv-x="520" 
d="M187 511h146q145 0 145 -135v-241q0 -135 -145 -135h-146q-145 0 -145 135v241q0 135 145 135zM304 390h-87q-41 0 -41 -39v-191q0 -39 41 -39h87q40 0 40 39v191q0 39 -40 39zM290 580h-110l82 158h155z" />
    <glyph glyph-name="ocircumflex" unicode="&#xf4;" horiz-adv-x="520" 
d="M187 511h146q145 0 145 -135v-241q0 -135 -145 -135h-146q-145 0 -145 135v241q0 135 145 135zM304 390h-87q-41 0 -41 -39v-191q0 -39 41 -39h87q40 0 40 39v191q0 39 -40 39zM220 689h75l123 -110h-127l-34 30l-35 -30h-125z" />
    <glyph glyph-name="otilde" unicode="&#xf5;" horiz-adv-x="520" 
d="M187 511h146q145 0 145 -135v-241q0 -135 -145 -135h-146q-145 0 -145 135v241q0 135 145 135zM304 390h-87q-41 0 -41 -39v-191q0 -39 41 -39h87q40 0 40 39v191q0 39 -40 39zM334 686q44 0 59 -13t15 -54v-54h-89v23q0 13 -9 13q-12 0 -27 -12l-15 -11q-19 -15 -82 -15
q-44 0 -59 12t-15 55v53h89v-23q0 -13 9 -13q15 0 28 12l8 8q14 12 31 15.5t57 3.5z" />
    <glyph glyph-name="odieresis" unicode="&#xf6;" horiz-adv-x="520" 
d="M187 511h146q145 0 145 -135v-241q0 -135 -145 -135h-146q-145 0 -145 135v241q0 135 145 135zM304 390h-87q-41 0 -41 -39v-191q0 -39 41 -39h87q40 0 40 39v191q0 39 -40 39zM108 701h112v-123h-112v123zM298 701h111v-123h-111v123z" />
    <glyph glyph-name="divide" unicode="&#xf7;" horiz-adv-x="511" 
d="M22 228l20 136h446l-20 -136h-446zM184 404v149h152v-149h-152zM184 19v149h152v-149h-152z" />
    <glyph glyph-name="oslash" unicode="&#xf8;" horiz-adv-x="522" 
d="M187 511h146q22 0 40 -3l31 43h127l-70 -98q17 -32 17 -77v-241q0 -135 -145 -135h-146q-25 0 -45 3l-23 -32h-128l65 92q-14 30 -14 72v241q0 135 145 135zM304 121q40 0 40 39v128l-119 -167h79zM176 351v-120l113 159h-72q-41 0 -41 -39z" />
    <glyph glyph-name="ugrave" unicode="&#xf9;" horiz-adv-x="516" 
d="M468 505v-505h-94l-13 41q-41 -41 -117 -41h-55q-144 0 -144 135v370h134v-340q0 -49 50 -49h55q47 0 50 43v346h134zM76 715h140l82 -136h-90z" />
    <glyph glyph-name="uacute" unicode="&#xfa;" horiz-adv-x="516" 
d="M468 505v-505h-94l-13 41q-41 -41 -117 -41h-55q-144 0 -144 135v370h134v-340q0 -49 50 -49h55q47 0 50 43v346h134zM279 580h-110l82 158h155z" />
    <glyph glyph-name="ucircumflex" unicode="&#xfb;" horiz-adv-x="516" 
d="M468 505v-505h-94l-13 41q-41 -41 -117 -41h-55q-144 0 -144 135v370h134v-340q0 -49 50 -49h55q47 0 50 43v346h134zM209 689h75l123 -110h-127l-34 30l-35 -30h-125z" />
    <glyph glyph-name="udieresis" unicode="&#xfc;" horiz-adv-x="516" 
d="M468 505v-505h-94l-13 41q-41 -41 -117 -41h-55q-144 0 -144 135v370h134v-340q0 -49 50 -49h55q47 0 50 43v346h134zM97 701h112v-123h-112v123zM287 701h111v-123h-111v123z" />
    <glyph glyph-name="yacute" unicode="&#xfd;" horiz-adv-x="496" 
d="M124 -99q25 0 39 13.5t26 54.5l9 31h-36l-153 505h140l94 -348l100 348h145l-176 -562q-18 -58 -37 -92t-45 -50.5t-51 -21t-68 -4.5h-83l21 126h75zM262 580h-110l82 158h155z" />
    <glyph glyph-name="thorn" unicode="&#xfe;" horiz-adv-x="523" 
d="M181 -250h-134v1000l114 27h20v-297q39 31 110 31h54q135 0 135 -125v-251q0 -135 -145 -135h-44q-47 0 -72 9.5t-38 33.5v-293zM232 390q-48 0 -51 -43v-183q3 -43 51 -43h64q50 0 50 49v171q0 49 -50 49h-64z" />
    <glyph glyph-name="ydieresis" unicode="&#xff;" horiz-adv-x="496" 
d="M124 -99q25 0 39 13.5t26 54.5l9 31h-36l-153 505h140l94 -348l100 348h145l-176 -562q-18 -58 -37 -92t-45 -50.5t-51 -21t-68 -4.5h-83l21 126h75zM81 701h112v-123h-112v123zM271 701h111v-123h-111v123z" />
    <glyph glyph-name="Amacron" unicode="&#x100;" horiz-adv-x="602" 
d="M228 710h145l234 -710h-153l-36 116h-235l-36 -116h-152zM302 499l-77 -247h152zM456 867l-20 -116h-261l20 116h261z" />
    <glyph glyph-name="amacron" unicode="&#x101;" horiz-adv-x="497" 
d="M340 0l-10 50q-19 -30 -42 -40t-70 -10h-64q-125 0 -125 125v73q0 115 125 115h164v33q0 39 -40 39h-65q-40 0 -40 -39v-5h-125v45q0 125 126 125h143q135 0 135 -125v-386h-112zM183 126h94q41 0 41 39v32h-135q-30 0 -30 -37v-5q0 -29 30 -29zM398 697l-20 -116h-261
l20 116h261z" />
    <glyph glyph-name="Abreve" unicode="&#x102;" horiz-adv-x="602" 
d="M228 710h145l234 -710h-153l-36 116h-235l-36 -116h-152zM302 499l-77 -247h152zM318 745h-31q-71 0 -91.5 18.5t-20.5 86.5v13h77v-16q0 -30 30 -30h39q30 0 30 30v16h77v-13q0 -69 -19 -87t-91 -18z" />
    <glyph glyph-name="abreve" unicode="&#x103;" horiz-adv-x="497" 
d="M340 0l-10 50q-19 -30 -42 -40t-70 -10h-64q-125 0 -125 125v73q0 115 125 115h164v33q0 39 -40 39h-65q-40 0 -40 -39v-5h-125v45q0 125 126 125h143q135 0 135 -125v-386h-112zM183 126h94q41 0 41 39v32h-135q-30 0 -30 -37v-5q0 -29 30 -29zM260 574h-31
q-71 0 -91.5 18.5t-20.5 86.5v13h77v-16q0 -30 30 -30h39q30 0 30 30v16h77v-13q0 -69 -19 -87t-91 -18z" />
    <glyph glyph-name="Aogonek" unicode="&#x104;" horiz-adv-x="602" 
d="M403 -130v21q0 33 12 50t39 34q23 14 32 25h-32l-36 116h-235l-36 -116h-152l233 710h145l234 -710h-49v-13q0 -24 -7 -34t-31 -26q-23 -16 -28.5 -22.5t-5.5 -17.5q0 -17 16 -17h86l-9 -72h-96q-80 0 -80 72zM302 499l-77 -247h152z" />
    <glyph glyph-name="aogonek" unicode="&#x105;" horiz-adv-x="497" 
d="M340 0l-10 50q-19 -30 -42 -40t-70 -10h-64q-125 0 -125 125v73q0 115 125 115h164v33q0 39 -40 39h-65q-40 0 -40 -39v-5h-125v45q0 125 126 125h143q135 0 135 -125v-386h-23v-16q0 -24 -7 -34t-31 -26q-23 -16 -28.5 -22.5t-5.5 -17.5q0 -17 16 -17h86l-9 -72h-96
q-80 0 -80 72v21q0 33 12 50t39 34q26 17 34 28h-19zM183 126h94q41 0 41 39v32h-135q-30 0 -30 -37v-5q0 -29 30 -29z" />
    <glyph glyph-name="Cacute" unicode="&#x106;" horiz-adv-x="582" 
d="M242 136h115q50 0 50 49v36h144v-76q0 -145 -164 -145h-174q-165 0 -165 145v420q0 145 165 145h174q164 0 164 -145v-74h-144v34q0 49 -50 49h-115q-50 0 -50 -49v-340q0 -49 50 -49zM331 750h-110l82 158h155z" />
    <glyph glyph-name="cacute" unicode="&#x107;" horiz-adv-x="492" 
d="M294 379h-77q-41 0 -41 -39v-175q0 -39 41 -39h78q21 0 30.5 7.5t9.5 26.5v20h124v-45q0 -135 -134 -135h-138q-145 0 -145 135v235q0 135 145 135h147q125 0 125 -125v-55h-124v15q0 39 -41 39zM290 580h-110l82 158h155z" />
    <glyph glyph-name="Ccircumflex" unicode="&#x108;" horiz-adv-x="582" 
d="M242 136h115q50 0 50 49v36h144v-76q0 -145 -164 -145h-174q-165 0 -165 145v420q0 145 165 145h174q164 0 164 -145v-74h-144v34q0 49 -50 49h-115q-50 0 -50 -49v-340q0 -49 50 -49zM262 859h75l123 -110h-127l-34 30l-35 -30h-125z" />
    <glyph glyph-name="ccircumflex" unicode="&#x109;" horiz-adv-x="492" 
d="M294 379h-77q-41 0 -41 -39v-175q0 -39 41 -39h78q21 0 30.5 7.5t9.5 26.5v20h124v-45q0 -135 -134 -135h-138q-145 0 -145 135v235q0 135 145 135h147q125 0 125 -125v-55h-124v15q0 39 -41 39zM220 689h75l123 -110h-127l-34 30l-35 -30h-125z" />
    <glyph glyph-name="Cdotaccent" unicode="&#x10a;" horiz-adv-x="582" 
d="M242 136h115q50 0 50 49v36h144v-76q0 -145 -164 -145h-174q-165 0 -165 145v420q0 145 165 145h174q164 0 164 -145v-74h-144v34q0 49 -50 49h-115q-50 0 -50 -49v-340q0 -49 50 -49zM231 897h139v-144h-139v144z" />
    <glyph glyph-name="cdotaccent" unicode="&#x10b;" horiz-adv-x="492" 
d="M294 379h-77q-41 0 -41 -39v-175q0 -39 41 -39h78q21 0 30.5 7.5t9.5 26.5v20h124v-45q0 -135 -134 -135h-138q-145 0 -145 135v235q0 135 145 135h147q125 0 125 -125v-55h-124v15q0 39 -41 39zM190 686h139v-144h-139v144z" />
    <glyph glyph-name="Ccaron" unicode="&#x10c;" horiz-adv-x="582" 
d="M242 136h115q50 0 50 49v36h144v-76q0 -145 -164 -145h-174q-165 0 -165 145v420q0 145 165 145h174q164 0 164 -145v-74h-144v34q0 49 -50 49h-115q-50 0 -50 -49v-340q0 -49 50 -49zM342 749h-85l-116 113h120l39 -47l40 47h118z" />
    <glyph glyph-name="ccaron" unicode="&#x10d;" horiz-adv-x="492" 
d="M294 379h-77q-41 0 -41 -39v-175q0 -39 41 -39h78q21 0 30.5 7.5t9.5 26.5v20h124v-45q0 -135 -134 -135h-138q-145 0 -145 135v235q0 135 145 135h147q125 0 125 -125v-55h-124v15q0 39 -41 39zM301 579h-85l-116 113h120l39 -47l40 47h118z" />
    <glyph glyph-name="Dcaron" unicode="&#x10e;" horiz-adv-x="622" 
d="M52 0v710h309q109 0 161.5 -43t52.5 -132v-360q0 -89 -52.5 -132t-161.5 -43h-309zM341 136q47 0 68.5 21.5t21.5 67.5v260q0 46 -21.5 67.5t-68.5 21.5h-145v-438h145zM351 749h-85l-116 113h120l39 -47l40 47h118z" />
    <glyph glyph-name="dcaron" unicode="&#x10f;" horiz-adv-x="523" 
d="M475 740v-740h-112l-13 56q-12 -30 -39.5 -43t-79.5 -13h-54q-135 0 -135 125v241q0 145 145 145h54q40 0 62 -8t38 -30v240l112 27h22zM290 121q48 0 51 43v183q-3 43 -51 43h-64q-50 0 -50 -49v-171q0 -49 50 -49h64zM508 760h181l-62 -246h-70z" />
    <glyph glyph-name="Dcroat" unicode="&#x110;" horiz-adv-x="628" 
d="M58 0v295h-69l20 116h49v299h308q110 0 162.5 -43t52.5 -132v-360q0 -89 -52.5 -132t-162.5 -43h-308zM347 574h-145v-163h118l-20 -116h-98v-159h145q47 0 68.5 21.5t21.5 67.5v269q-4 80 -90 80z" />
    <glyph glyph-name="dcroat" unicode="&#x111;" horiz-adv-x="522" 
d="M557 677l-20 -126h-62v-551h-112l-13 56q-12 -30 -39.5 -43t-79.5 -13h-54q-135 0 -135 125v241q0 145 145 145h54q40 0 62 -8t38 -30v78h-132l19 126h113v36l112 27h22v-63h82zM341 164v185q-4 41 -51 41h-64q-50 0 -50 -49v-171q0 -49 50 -49h64q48 0 51 43z" />
    <glyph glyph-name="Emacron" unicode="&#x112;" horiz-adv-x="521" 
d="M196 574v-210h247l-20 -136h-227v-92h307l-20 -136h-431v710h451l-20 -136h-287zM437 867l-20 -116h-261l20 116h261z" />
    <glyph glyph-name="emacron" unicode="&#x113;" horiz-adv-x="497" 
d="M216 118h69q41 0 41 29v17h124v-27q0 -84 -36.5 -110.5t-139.5 -26.5h-57q-94 0 -134.5 28t-40.5 107v241q0 86 40 110.5t144 24.5h47q52 0 81.5 -4t53.5 -17.5t33 -40.5t9 -73v-60q0 -73 -26.5 -100.5t-117.5 -27.5h-130v-31q0 -39 40 -39zM295 395h-89q-30 0 -30 -29
v-62h121q29 0 29 24v39q0 28 -31 28zM412 697l-20 -116h-261l20 116h261z" />
    <glyph glyph-name="Ebreve" unicode="&#x114;" horiz-adv-x="521" 
d="M196 574v-210h247l-20 -136h-227v-92h307l-20 -136h-431v710h451l-20 -136h-287zM299 745h-31q-71 0 -91.5 18.5t-20.5 86.5v13h77v-16q0 -30 30 -30h39q30 0 30 30v16h77v-13q0 -69 -19 -87t-91 -18z" />
    <glyph glyph-name="ebreve" unicode="&#x115;" horiz-adv-x="497" 
d="M216 118h69q41 0 41 29v17h124v-27q0 -84 -36.5 -110.5t-139.5 -26.5h-57q-94 0 -134.5 28t-40.5 107v241q0 86 40 110.5t144 24.5h47q52 0 81.5 -4t53.5 -17.5t33 -40.5t9 -73v-60q0 -73 -26.5 -100.5t-117.5 -27.5h-130v-31q0 -39 40 -39zM295 395h-89q-30 0 -30 -29
v-62h121q29 0 29 24v39q0 28 -31 28zM274 574h-31q-71 0 -91.5 18.5t-20.5 86.5v13h77v-16q0 -30 30 -30h39q30 0 30 30v16h77v-13q0 -69 -19 -87t-91 -18z" />
    <glyph glyph-name="Edotaccent" unicode="&#x116;" horiz-adv-x="521" 
d="M196 574v-210h247l-20 -136h-227v-92h307l-20 -136h-431v710h451l-20 -136h-287zM213 897h139v-144h-139v144z" />
    <glyph glyph-name="edotaccent" unicode="&#x117;" horiz-adv-x="497" 
d="M216 118h69q41 0 41 29v17h124v-27q0 -84 -36.5 -110.5t-139.5 -26.5h-57q-94 0 -134.5 28t-40.5 107v241q0 86 40 110.5t144 24.5h47q52 0 81.5 -4t53.5 -17.5t33 -40.5t9 -73v-60q0 -73 -26.5 -100.5t-117.5 -27.5h-130v-31q0 -39 40 -39zM295 395h-89q-30 0 -30 -29
v-62h121q29 0 29 24v39q0 28 -31 28zM188 696h139v-144h-139v144z" />
    <glyph glyph-name="Eogonek" unicode="&#x118;" horiz-adv-x="521" 
d="M329 -133v21q0 33 12 50t39 34q26 17 34 28h-362v710h451l-20 -136h-287v-210h247l-20 -136h-227v-92h307l-19 -129v-23q0 -24 -7 -34t-31 -26q-23 -16 -28.5 -22.5t-5.5 -17.5q0 -17 16 -17h86l-9 -72h-96q-80 0 -80 72z" />
    <glyph glyph-name="eogonek" unicode="&#x119;" horiz-adv-x="498" 
d="M133 -130v21q0 33 12 50t39 34q23 14 32 25q-93 0 -133.5 28t-40.5 107v241q0 86 40 110.5t144 24.5h47q52 0 81.5 -4t53.5 -17.5t33 -40.5t9 -73v-60q0 -73 -26.5 -100.5t-117.5 -27.5h-130v-31q0 -39 40 -39h69q41 0 41 29v17h124v-27q0 -81 -34 -108.5t-128 -28.5v-13
q0 -24 -7 -34t-31 -26q-23 -16 -28.5 -22.5t-5.5 -17.5q0 -17 16 -17h86l-9 -72h-96q-80 0 -80 72zM295 395h-89q-30 0 -30 -29v-62h121q29 0 29 24v39q0 28 -31 28z" />
    <glyph glyph-name="Ecaron" unicode="&#x11a;" horiz-adv-x="521" 
d="M196 574v-210h247l-20 -136h-227v-92h307l-20 -136h-431v710h451l-20 -136h-287zM325 749h-85l-116 113h120l39 -47l40 47h118z" />
    <glyph glyph-name="ecaron" unicode="&#x11b;" horiz-adv-x="497" 
d="M216 118h69q41 0 41 29v17h124v-27q0 -84 -36.5 -110.5t-139.5 -26.5h-57q-94 0 -134.5 28t-40.5 107v241q0 86 40 110.5t144 24.5h47q52 0 81.5 -4t53.5 -17.5t33 -40.5t9 -73v-60q0 -73 -26.5 -100.5t-117.5 -27.5h-130v-31q0 -39 40 -39zM295 395h-89q-30 0 -30 -29
v-62h121q29 0 29 24v39q0 28 -31 28zM299 579h-85l-116 113h120l39 -47l40 47h118z" />
    <glyph glyph-name="Gcircumflex" unicode="&#x11c;" horiz-adv-x="602" 
d="M305 254l19 136h237v-255q0 -135 -155 -135h-204q-154 0 -154 135v440q0 135 154 135h205q154 0 154 -135v-74h-144v24q0 49 -50 49h-125q-50 0 -50 -49v-340q0 -49 50 -49h125q50 0 50 49v69h-112zM263 859h75l123 -110h-127l-34 30l-35 -30h-125z" />
    <glyph glyph-name="gcircumflex" unicode="&#x11d;" horiz-adv-x="519" 
d="M46 385q0 71 39.5 98t129.5 27h59q37 0 70 -5l80 78l88 -88l-73 -71q4 -15 4 -39v-121q0 -70 -36.5 -96.5t-120.5 -28.5v-5h-28q-18 0 -25 -4.5t-7 -15.5v-5q0 -11 7 -15h152q135 0 135 -125v-92q0 -74 -41.5 -99.5t-138.5 -25.5h-134q-97 0 -138.5 25.5t-41.5 99.5v92
q0 88 66 113q-2 7 -2 24v12q0 27 11 38q-55 25 -55 108v121zM345 -22h-144q-40 0 -40 -49v-12q0 -49 40 -49h144q40 0 40 49v12q0 49 -40 49zM271 399h-53q-42 0 -42 -49v-51q0 -49 42 -49h53q42 0 42 49v51q0 49 -42 49zM206 689h75l123 -110h-127l-34 30l-35 -30h-125z
" />
    <glyph glyph-name="Gbreve" unicode="&#x11e;" horiz-adv-x="602" 
d="M305 254l19 136h237v-255q0 -135 -155 -135h-204q-154 0 -154 135v440q0 135 154 135h205q154 0 154 -135v-74h-144v24q0 49 -50 49h-125q-50 0 -50 -49v-340q0 -49 50 -49h125q50 0 50 49v69h-112zM319 745h-31q-71 0 -91.5 18.5t-20.5 86.5v13h77v-16q0 -30 30 -30h39
q30 0 30 30v16h77v-13q0 -69 -19 -87t-91 -18z" />
    <glyph glyph-name="gbreve" unicode="&#x11f;" horiz-adv-x="519" 
d="M46 385q0 71 39.5 98t129.5 27h59q37 0 70 -5l80 78l88 -88l-73 -71q4 -15 4 -39v-121q0 -70 -36.5 -96.5t-120.5 -28.5v-5h-28q-18 0 -25 -4.5t-7 -15.5v-5q0 -11 7 -15h152q135 0 135 -125v-92q0 -74 -41.5 -99.5t-138.5 -25.5h-134q-97 0 -138.5 25.5t-41.5 99.5v92
q0 88 66 113q-2 7 -2 24v12q0 27 11 38q-55 25 -55 108v121zM345 -22h-144q-40 0 -40 -49v-12q0 -49 40 -49h144q40 0 40 49v12q0 49 -40 49zM271 399h-53q-42 0 -42 -49v-51q0 -49 42 -49h53q42 0 42 49v51q0 49 -42 49zM263 574h-31q-71 0 -91.5 18.5t-20.5 86.5v13h77
v-16q0 -30 30 -30h39q30 0 30 30v16h77v-13q0 -69 -19 -87t-91 -18z" />
    <glyph glyph-name="Gdotaccent" unicode="&#x120;" horiz-adv-x="602" 
d="M305 254l19 136h237v-255q0 -135 -155 -135h-204q-154 0 -154 135v440q0 135 154 135h205q154 0 154 -135v-74h-144v24q0 49 -50 49h-125q-50 0 -50 -49v-340q0 -49 50 -49h125q50 0 50 49v69h-112zM232 896h139v-144h-139v144z" />
    <glyph glyph-name="gdotaccent" unicode="&#x121;" horiz-adv-x="519" 
d="M46 385q0 71 39.5 98t129.5 27h59q37 0 70 -5l80 78l88 -88l-73 -71q4 -15 4 -39v-121q0 -70 -36.5 -96.5t-120.5 -28.5v-5h-28q-18 0 -25 -4.5t-7 -15.5v-5q0 -11 7 -15h152q135 0 135 -125v-92q0 -74 -41.5 -99.5t-138.5 -25.5h-134q-97 0 -138.5 25.5t-41.5 99.5v92
q0 88 66 113q-2 7 -2 24v12q0 27 11 38q-55 25 -55 108v121zM345 -22h-144q-40 0 -40 -49v-12q0 -49 40 -49h144q40 0 40 49v12q0 49 -40 49zM271 399h-53q-42 0 -42 -49v-51q0 -49 42 -49h53q42 0 42 49v51q0 49 -42 49zM176 727h139v-144h-139v144z" />
    <glyph glyph-name="Gcommaaccent" unicode="&#x122;" horiz-adv-x="602" 
d="M305 254l19 136h237v-255q0 -135 -155 -135h-204q-154 0 -154 135v440q0 135 154 135h205q154 0 154 -135v-74h-144v24q0 49 -50 49h-125q-50 0 -50 -49v-340q0 -49 50 -49h125q50 0 50 49v69h-112z" />
    <glyph glyph-name="gcommaaccent" unicode="&#x123;" horiz-adv-x="519" 
d="M46 385q0 71 39.5 98t129.5 27h59q37 0 70 -5l80 78l88 -88l-73 -71q4 -15 4 -39v-121q0 -70 -36.5 -96.5t-120.5 -28.5v-5h-28q-18 0 -25 -4.5t-7 -15.5v-5q0 -11 7 -15h152q135 0 135 -125v-92q0 -74 -41.5 -99.5t-138.5 -25.5h-134q-97 0 -138.5 25.5t-41.5 99.5v92
q0 88 66 113q-2 7 -2 24v12q0 27 11 38q-55 25 -55 108v121zM345 -22h-144q-40 0 -40 -49v-12q0 -49 40 -49h144q40 0 40 49v12q0 49 -40 49zM271 399h-53q-42 0 -42 -49v-51q0 -49 42 -49h53q42 0 42 49v51q0 49 -42 49zM339 561h-180l48 246h70z" />
    <glyph glyph-name="Hcircumflex" unicode="&#x124;" horiz-adv-x="616" 
d="M196 0h-144v710h144v-326h224v326h144v-710h-144v248h-224v-248zM272 859h75l123 -110h-127l-34 30l-35 -30h-125z" />
    <glyph glyph-name="hcircumflex" unicode="&#x125;" horiz-adv-x="517" 
d="M182 352v-352h-135v713l113 27h22v-263q30 34 101 34h54q135 0 135 -125v-386h-135v346q0 49 -50 49h-54q-49 0 -50 -43h-1zM308 690h75l123 -110h-127l-34 30l-35 -30h-125z" />
    <glyph glyph-name="Hbar" unicode="&#x126;" horiz-adv-x="634" 
d="M204 0h-144v500h-70l20 116h50v94h144v-94h224v94h144v-94h70l-20 -116h-50v-500h-144v248h-224v-248zM204 500v-116h224v116h-224z" />
    <glyph glyph-name="hbar" unicode="&#x127;" horiz-adv-x="516" 
d="M306 675l-20 -116h-105v-82q30 34 101 34h54q135 0 135 -125v-386h-135v346q0 49 -50 49h-54q-47 0 -50 -43h-1v-352h-134v559h-80l19 116h61v38l112 27h22v-65h125z" />
    <glyph glyph-name="Itilde" unicode="&#x128;" horiz-adv-x="248" 
d="M196 0h-144v710h144v-710zM198 856q44 0 59 -13t15 -54v-54h-89v23q0 13 -9 13q-12 0 -27 -12l-15 -11q-19 -15 -82 -15q-44 0 -59 12t-15 55v53h89v-23q0 -13 9 -13q15 0 28 12l8 8q14 12 31 15.5t57 3.5z" />
    <glyph glyph-name="itilde" unicode="&#x129;" horiz-adv-x="261" 
d="M79 379h-68v126h202v-505h-134v379zM219 686q44 0 59 -13t15 -54v-54h-89v23q0 13 -9 13q-12 0 -27 -12l-15 -11q-19 -15 -82 -15q-44 0 -59 12t-15 55v53h89v-23q0 -13 9 -13q15 0 28 12l8 8q14 12 31 15.5t57 3.5z" />
    <glyph glyph-name="Imacron" unicode="&#x12a;" horiz-adv-x="248" 
d="M196 0h-144v710h144v-710zM278 867l-20 -116h-261l20 116h261z" />
    <glyph glyph-name="imacron" unicode="&#x12b;" horiz-adv-x="261" 
d="M79 379h-68v126h202v-505h-134v379zM299 697l-20 -116h-261l20 116h261z" />
    <glyph glyph-name="Ibreve" unicode="&#x12c;" horiz-adv-x="248" 
d="M196 0h-144v710h144v-710zM140 745h-31q-71 0 -91.5 18.5t-20.5 86.5v13h77v-16q0 -30 30 -30h39q30 0 30 30v16h77v-13q0 -69 -19 -87t-91 -18z" />
    <glyph glyph-name="ibreve" unicode="&#x12d;" horiz-adv-x="261" 
d="M79 379h-68v126h202v-505h-134v379zM161 574h-31q-71 0 -91.5 18.5t-20.5 86.5v13h77v-16q0 -30 30 -30h39q30 0 30 30v16h77v-13q0 -69 -19 -87t-91 -18z" />
    <glyph glyph-name="Iogonek" unicode="&#x12e;" horiz-adv-x="248" 
d="M1 -135v21q0 33 12 50t39 34q29 19 35 30h-35v710h144v-710h-40v-18q0 -24 -7 -34t-31 -26q-23 -16 -28.5 -22.5t-5.5 -17.5q0 -17 16 -17h86l-9 -72h-96q-80 0 -80 72z" />
    <glyph glyph-name="iogonek" unicode="&#x12f;" horiz-adv-x="260" 
d="M23 -130v21q0 33 12 50t39 34q23 14 32 25h-27v379h-68v126h202v-505h-35v-13q0 -24 -7 -34t-31 -26q-23 -16 -28.5 -22.5t-5.5 -17.5q0 -17 16 -17h86l-9 -72h-96q-80 0 -80 72zM69 603v149h152v-149h-152z" />
    <glyph glyph-name="Idotaccent" unicode="&#x130;" horiz-adv-x="248" 
d="M54 796h139v-86h3v-710h-144v710h2v86z" />
    <glyph glyph-name="dotlessi" unicode="&#x131;" horiz-adv-x="261" 
d="M79 379h-68v126h202v-505h-134v379z" />
    <glyph glyph-name="IJ" unicode="&#x132;" horiz-adv-x="639" 
d="M196 0h-144v710h144v-710zM394 136q51 0 51 49v525h144v-555q0 -155 -175 -155h-157l20 136h117z" />
    <glyph glyph-name="Jcircumflex" unicode="&#x134;" horiz-adv-x="393" 
d="M148 136q51 0 51 49v525h144v-555q0 -155 -175 -155h-157l20 136h117zM234 859h75l123 -110h-127l-34 30l-35 -30h-125z" />
    <glyph glyph-name="jcircumflex" unicode="&#x135;" horiz-adv-x="261" 
d="M79 379h-68v126h202v-595q0 -125 -135 -125h-96l20 126h37q40 0 40 39v429zM108 691h75l123 -110h-127l-34 30l-35 -30h-125z" />
    <glyph glyph-name="Kcommaaccent" unicode="&#x136;" horiz-adv-x="584" 
d="M196 0h-144v710h144v-323l233 323h159l-255 -355l268 -355h-163l-242 324v-324zM271 -58h99v-93l-80 -80h-19v173z" />
    <glyph glyph-name="kcommaaccent" unicode="&#x137;" horiz-adv-x="496" 
d="M484 505l-179 -253l181 -252h-147l-157 218v-218h-135v713l113 27h22v-455l157 220h145zM218 -42h104v-84l-89 -120h-15v204z" />
    <glyph glyph-name="Lacute" unicode="&#x139;" horiz-adv-x="480" 
d="M196 710v-574h282l-19 -136h-407v710h144zM173 750h-110l82 158h155z" />
    <glyph glyph-name="lacute" unicode="&#x13a;" horiz-adv-x="250" 
d="M219 120h16l10 -126h-66q-135 0 -135 125v594l113 27h22v-581q0 -39 40 -39zM150 820h-110l82 158h155z" />
    <glyph glyph-name="Lcommaaccent" unicode="&#x13b;" horiz-adv-x="480" 
d="M196 710v-574h282l-19 -136h-407v710h144zM208 -58h99v-93l-80 -80h-19v173z" />
    <glyph glyph-name="lcommaaccent" unicode="&#x13c;" horiz-adv-x="250" 
d="M219 120h16l10 -126h-66q-135 0 -135 125v594l113 27h22v-581q0 -39 40 -39zM93 -42h104v-84l-89 -120h-15v204z" />
    <glyph glyph-name="Lcaron" unicode="&#x13d;" horiz-adv-x="488" 
d="M196 710v-574h282l-19 -136h-407v710h144zM309 710h181l-62 -246h-70z" />
    <glyph glyph-name="lcaron" unicode="&#x13e;" horiz-adv-x="250" 
d="M219 120h16l10 -126h-66q-135 0 -135 125v594l113 27h22v-581q0 -39 40 -39zM213 761h181l-62 -246h-70z" />
    <glyph glyph-name="Ldot" unicode="&#x13f;" horiz-adv-x="489" 
d="M196 710v-574h282l-19 -136h-407v710h144zM328 269v149h152v-149h-152z" />
    <glyph glyph-name="ldot" unicode="&#x140;" horiz-adv-x="380" 
d="M219 120h16l10 -126h-66q-135 0 -135 125v594l113 27h22v-581q0 -39 40 -39zM224 292v149h152v-149h-152z" />
    <glyph glyph-name="Lslash" unicode="&#x141;" horiz-adv-x="511" 
d="M226 710v-266l111 65l46 -119l-157 -91v-163h282l-19 -136h-407v215l-53 -30l-45 119l98 57v349h144z" />
    <glyph glyph-name="lslash" unicode="&#x142;" horiz-adv-x="336" 
d="M281 120h16l10 -126h-66q-134 0 -134 125v175l-92 -34v127l92 34v292l112 27h22v-270l87 32v-127l-87 -32v-184q0 -39 40 -39z" />
    <glyph glyph-name="Nacute" unicode="&#x143;" 
d="M196 0h-144v710h144l220 -388q10 -19 18 -46v434h144v-710h-144l-211 368q-14 23 -27 68v-436zM340 750h-110l82 158h155z" />
    <glyph glyph-name="nacute" unicode="&#x144;" horiz-adv-x="515" 
d="M46 0v478l105 27h19v-41q17 26 42.5 36.5t68.5 10.5h54q135 0 135 -125v-386h-135v346q0 49 -50 49h-54q-47 0 -50 -41v-354h-135zM300 580h-110l82 158h155z" />
    <glyph glyph-name="Ncommaaccent" unicode="&#x145;" 
d="M196 0h-144v710h144l220 -388q10 -19 18 -46v434h144v-710h-144l-211 368q-14 23 -27 68v-436zM263 -22h104v-84l-89 -120h-15v204z" />
    <glyph glyph-name="ncommaaccent" unicode="&#x146;" horiz-adv-x="515" 
d="M46 0v478l105 27h19v-41q17 26 42.5 36.5t68.5 10.5h54q135 0 135 -125v-386h-135v346q0 49 -50 49h-54q-47 0 -50 -41v-354h-135zM210 -42h104v-84l-89 -120h-15v204z" />
    <glyph glyph-name="Ncaron" unicode="&#x147;" 
d="M196 0h-144v710h144l220 -388q10 -19 18 -46v434h144v-710h-144l-211 368q-14 23 -27 68v-436zM351 749h-85l-116 113h120l39 -47l40 47h118z" />
    <glyph glyph-name="ncaron" unicode="&#x148;" horiz-adv-x="515" 
d="M46 0v478l105 27h19v-41q17 26 42.5 36.5t68.5 10.5h54q135 0 135 -125v-386h-135v346q0 49 -50 49h-54q-47 0 -50 -41v-354h-135zM311 579h-85l-116 113h120l39 -47l40 47h118z" />
    <glyph glyph-name="napostrophe" unicode="&#x149;" horiz-adv-x="515" 
d="M46 478l105 27h19v-41q17 26 42.5 36.5t68.5 10.5h54q135 0 135 -125v-386h-135v346q0 49 -50 49h-54q-47 0 -50 -41v-354h-90l-30 -41h-15v519z" />
    <glyph glyph-name="Eng" unicode="&#x14a;" 
d="M383 -74q51 0 51 49v25l-211 368q-14 23 -27 68v-436h-144v710h144l220 -388q10 -19 18 -46v434h144v-765q0 -155 -175 -155h-157l20 136h117z" />
    <glyph glyph-name="eng" unicode="&#x14b;" horiz-adv-x="515" 
d="M295 -89q40 0 40 39v396q0 49 -50 49h-54q-47 0 -50 -41v-354h-135v478l105 27h19v-41q17 26 42.5 36.5t68.5 10.5h54q135 0 135 -125v-476q0 -125 -135 -125h-97l21 126h36z" />
    <glyph glyph-name="Omacron" unicode="&#x14c;" 
d="M48 145v420q0 145 165 145h204q165 0 165 -145v-420q0 -145 -165 -145h-204q-165 0 -165 145zM242 574q-50 0 -50 -49v-340q0 -49 50 -49h146q50 0 50 49v340q0 49 -50 49h-146zM465 867l-20 -116h-261l20 116h261z" />
    <glyph glyph-name="omacron" unicode="&#x14d;" horiz-adv-x="520" 
d="M187 511h146q145 0 145 -135v-241q0 -135 -145 -135h-146q-145 0 -145 135v241q0 135 145 135zM304 390h-87q-41 0 -41 -39v-191q0 -39 41 -39h87q40 0 40 39v191q0 39 -40 39zM414 697l-20 -116h-261l20 116h261z" />
    <glyph glyph-name="Obreve" unicode="&#x14e;" 
d="M48 145v420q0 145 165 145h204q165 0 165 -145v-420q0 -145 -165 -145h-204q-165 0 -165 145zM242 574q-50 0 -50 -49v-340q0 -49 50 -49h146q50 0 50 49v340q0 49 -50 49h-146zM328 745h-31q-71 0 -91.5 18.5t-20.5 86.5v13h77v-16q0 -30 30 -30h39q30 0 30 30v16h77
v-13q0 -69 -19 -87t-91 -18z" />
    <glyph glyph-name="obreve" unicode="&#x14f;" horiz-adv-x="520" 
d="M187 511h146q145 0 145 -135v-241q0 -135 -145 -135h-146q-145 0 -145 135v241q0 135 145 135zM304 390h-87q-41 0 -41 -39v-191q0 -39 41 -39h87q40 0 40 39v191q0 39 -40 39zM276 574h-31q-71 0 -91.5 18.5t-20.5 86.5v13h77v-16q0 -30 30 -30h39q30 0 30 30v16h77v-13
q0 -69 -19 -87t-91 -18z" />
    <glyph glyph-name="Ohungarumlaut" unicode="&#x150;" 
d="M48 145v420q0 145 165 145h204q165 0 165 -145v-420q0 -145 -165 -145h-204q-165 0 -165 145zM242 574q-50 0 -50 -49v-340q0 -49 50 -49h146q50 0 50 49v340q0 49 -50 49h-146zM272 921h119l-105 -169h-82zM398 921h118l-106 -169h-80z" />
    <glyph glyph-name="ohungarumlaut" unicode="&#x151;" horiz-adv-x="520" 
d="M187 511h146q145 0 145 -135v-241q0 -135 -145 -135h-146q-145 0 -145 135v241q0 135 145 135zM304 390h-87q-41 0 -41 -39v-191q0 -39 41 -39h87q40 0 40 39v191q0 39 -40 39zM220 750h119l-105 -169h-82zM346 750h118l-106 -169h-80z" />
    <glyph glyph-name="OE" unicode="&#x152;" horiz-adv-x="916" 
d="M591 574v-210h247l-20 -136h-227v-92h307l-20 -136h-431v1q-7 -1 -21 -1h-213q-165 0 -165 145v420q0 145 165 145h213q4 0 11 -0.5t10 -0.5v1h451l-20 -136h-287zM242 574q-50 0 -50 -49v-340q0 -49 50 -49h154q51 0 51 49v345q-3 44 -51 44h-154z" />
    <glyph glyph-name="oe" unicode="&#x153;" horiz-adv-x="801" 
d="M520 118h69q41 0 41 29v17h124v-27q0 -84 -36.5 -110.5t-139.5 -26.5h-57q-75 0 -109 14q-29 -14 -79 -14h-146q-145 0 -145 135v241q0 135 145 135h146q44 0 76 -13q39 13 121 13h47q52 0 81.5 -4t53.5 -17.5t33 -40.5t9 -73v-60q0 -73 -26.5 -100.5t-117.5 -27.5h-130
v-31q0 -39 40 -39zM304 390h-87q-41 0 -41 -39v-191q0 -39 41 -39h87q40 0 40 39v191q0 39 -40 39zM599 395h-89q-30 0 -30 -29v-62h121q29 0 29 24v39q0 28 -31 28z" />
    <glyph glyph-name="Racute" unicode="&#x154;" horiz-adv-x="588" 
d="M52 0v710h338q155 0 155 -135v-212q0 -117 -114 -133l159 -230h-165l-157 228h-72v-228h-144zM196 574v-210h155q50 0 50 49v112q0 49 -50 49h-155zM310 750h-110l82 158h155z" />
    <glyph glyph-name="racute" unicode="&#x155;" horiz-adv-x="357" 
d="M351 401l-119 -30q-27 -7 -38.5 -18.5t-12.5 -34.5v-318h-135v478l105 27h19v-58q23 41 58 50l104 28h9zM179 574h-110l82 158h155z" />
    <glyph glyph-name="Rcommaaccent" unicode="&#x156;" horiz-adv-x="588" 
d="M52 0v710h338q155 0 155 -135v-212q0 -117 -114 -133l159 -230h-165l-157 228h-72v-228h-144zM196 574v-210h155q50 0 50 49v112q0 49 -50 49h-155zM279 -42h104v-84l-89 -120h-15v204z" />
    <glyph glyph-name="rcommaaccent" unicode="&#x157;" horiz-adv-x="357" 
d="M351 401l-119 -30q-27 -7 -38.5 -18.5t-12.5 -34.5v-318h-135v478l105 27h19v-58q23 41 58 50l104 28h9zM146 -42h104v-84l-89 -120h-15v204z" />
    <glyph glyph-name="Rcaron" unicode="&#x158;" horiz-adv-x="588" 
d="M52 0v710h338q155 0 155 -135v-212q0 -117 -114 -133l159 -230h-165l-157 228h-72v-228h-144zM196 574v-210h155q50 0 50 49v112q0 49 -50 49h-155zM321 749h-85l-116 113h120l39 -47l40 47h118z" />
    <glyph glyph-name="rcaron" unicode="&#x159;" horiz-adv-x="357" 
d="M351 401l-119 -30q-27 -7 -38.5 -18.5t-12.5 -34.5v-318h-135v478l105 27h19v-58q23 41 58 50l104 28h9zM191 574h-85l-116 113h120l39 -47l40 47h118z" />
    <glyph glyph-name="Sacute" unicode="&#x15a;" horiz-adv-x="561" 
d="M341 248l-154 69q-88 41 -116 71t-28 98v99q0 125 145 125h183q145 0 145 -125v-84h-144v34q0 39 -40 39h-104q-41 0 -41 -39v-20q0 -22 8 -31t33 -20l154 -70q39 -18 53 -25t38 -21t31.5 -25t14.5 -28t7 -39v-131q0 -125 -145 -125h-203q-145 0 -145 125v96h144v-46
q0 -39 40 -39h125q40 0 40 39v29q0 17 -9.5 26t-31.5 18zM313 750h-110l82 158h155z" />
    <glyph glyph-name="sacute" unicode="&#x15b;" horiz-adv-x="474" 
d="M277 395h-83q-30 0 -30 -29v-8q0 -13 9 -18.5t32 -10.5l112 -25q78 -17 101.5 -39.5t23.5 -86.5v-63q0 -66 -36.5 -90.5t-119.5 -24.5h-100q-94 0 -125 27.5t-31 104.5v28h124v-15q0 -29 30 -29h103q31 0 31 29v4q0 14 -8.5 19t-32.5 10l-112 24q-45 10 -70 20.5
t-37.5 29t-15 36t-2.5 53.5v44q0 71 31 98.5t125 27.5h80q95 0 125.5 -28.5t30.5 -109.5v-32h-124v25q0 29 -31 29zM268 580h-110l82 158h155z" />
    <glyph glyph-name="Scircumflex" unicode="&#x15c;" horiz-adv-x="560" 
d="M341 248l-154 69q-88 41 -116 71t-28 98v99q0 125 145 125h183q145 0 145 -125v-84h-144v34q0 39 -40 39h-104q-41 0 -41 -39v-20q0 -22 8 -31t33 -20l154 -70q39 -18 53 -25t38 -21t31.5 -25t14.5 -28t7 -39v-131q0 -125 -145 -125h-203q-145 0 -145 125v96h144v-46
q0 -39 40 -39h125q40 0 40 39v29q0 17 -9.5 26t-31.5 18zM243 859h75l123 -110h-127l-34 30l-35 -30h-125z" />
    <glyph glyph-name="scircumflex" unicode="&#x15d;" horiz-adv-x="474" 
d="M277 395h-83q-30 0 -30 -29v-8q0 -13 9 -18.5t32 -10.5l112 -25q78 -17 101.5 -39.5t23.5 -86.5v-63q0 -66 -36.5 -90.5t-119.5 -24.5h-100q-94 0 -125 27.5t-31 104.5v28h124v-15q0 -29 30 -29h103q31 0 31 29v4q0 14 -8.5 19t-32.5 10l-112 24q-45 10 -70 20.5
t-37.5 29t-15 36t-2.5 53.5v44q0 71 31 98.5t125 27.5h80q95 0 125.5 -28.5t30.5 -109.5v-32h-124v25q0 29 -31 29zM198 689h75l123 -110h-127l-34 30l-35 -30h-125z" />
    <glyph glyph-name="Scedilla" unicode="&#x15e;" horiz-adv-x="561" 
d="M291 -86l-30 13q-15 6 -21 14t-6 25v34h-56q-145 0 -145 125v96h144v-46q0 -39 40 -39h125q40 0 40 39v29q0 17 -9.5 26t-31.5 18l-154 69q-88 41 -116 71t-28 98v99q0 125 145 125h183q145 0 145 -125v-84h-144v34q0 39 -40 39h-104q-41 0 -41 -39v-20q0 -22 8 -31
t33 -20l154 -70q39 -18 53 -25t38 -21t31.5 -25t14.5 -28t7 -39v-131q0 -125 -145 -125h-65v-9q0 -9 16 -16l27 -12q15 -7 21 -18t6 -35v-43q0 -42 -15 -53.5t-64 -11.5h-43q-53 0 -66.5 12.5t-13.5 59.5v18h76v-2q0 -7 2 -9.5t9 -2.5h23q11 0 11 11v9q0 10 -14 16z" />
    <glyph glyph-name="scedilla" unicode="&#x15f;" horiz-adv-x="476" 
d="M248 -86l-30 13q-15 6 -21 14t-6 25v34h-5q-94 0 -125 27.5t-31 104.5v28h124v-15q0 -29 30 -29h103q31 0 31 29v4q0 14 -8.5 19t-32.5 10l-112 24q-45 10 -70 20.5t-37.5 29t-15 36t-2.5 53.5v44q0 71 31 98.5t125 27.5h80q95 0 125.5 -28.5t30.5 -109.5v-32h-124v25
q0 29 -31 29h-83q-30 0 -30 -29v-8q0 -13 9 -18.5t32 -10.5l112 -25q78 -17 101.5 -39.5t23.5 -86.5v-63q0 -66 -36.5 -90.5t-119.5 -24.5h-13v-9q0 -9 16 -16l27 -12q15 -7 21 -18t6 -35v-43q0 -42 -15 -53.5t-64 -11.5h-43q-53 0 -66.5 12.5t-13.5 59.5v18h76v-2
q0 -7 2 -9.5t9 -2.5h23q11 0 11 11v9q0 10 -14 16z" />
    <glyph glyph-name="Scaron" unicode="&#x160;" horiz-adv-x="561" 
d="M341 248l-154 69q-88 41 -116 71t-28 98v99q0 125 145 125h183q145 0 145 -125v-84h-144v34q0 39 -40 39h-104q-41 0 -41 -39v-20q0 -22 8 -31t33 -20l154 -70q39 -18 53 -25t38 -21t31.5 -25t14.5 -28t7 -39v-131q0 -125 -145 -125h-203q-145 0 -145 125v96h144v-46
q0 -39 40 -39h125q40 0 40 39v29q0 17 -9.5 26t-31.5 18zM325 749h-85l-116 113h120l39 -47l40 47h118z" />
    <glyph glyph-name="scaron" unicode="&#x161;" horiz-adv-x="474" 
d="M277 395h-83q-30 0 -30 -29v-8q0 -13 9 -18.5t32 -10.5l112 -25q78 -17 101.5 -39.5t23.5 -86.5v-63q0 -66 -36.5 -90.5t-119.5 -24.5h-100q-94 0 -125 27.5t-31 104.5v28h124v-15q0 -29 30 -29h103q31 0 31 29v4q0 14 -8.5 19t-32.5 10l-112 24q-45 10 -70 20.5
t-37.5 29t-15 36t-2.5 53.5v44q0 71 31 98.5t125 27.5h80q95 0 125.5 -28.5t30.5 -109.5v-32h-124v25q0 29 -31 29zM279 579h-85l-116 113h120l39 -47l40 47h118z" />
    <glyph glyph-name="Tcommaaccent" unicode="&#x162;" horiz-adv-x="511" 
d="M501 574h-173v-574h-145v574h-173v136h491v-136zM203 -42h104v-84l-89 -120h-15v204z" />
    <glyph glyph-name="Tcaron" unicode="&#x164;" horiz-adv-x="511" 
d="M501 574h-173v-574h-145v574h-173v136h491v-136zM296 749h-85l-116 113h120l39 -47l40 47h118z" />
    <glyph glyph-name="tcaron" unicode="&#x165;" horiz-adv-x="347" 
d="M334 505l-10 -126h-90v-214q0 -39 41 -39h36l10 -126h-76q-145 0 -145 135v244h-74l10 126h64v60l124 80h10v-140h100zM254 749h152l-52 -207h-59z" />
    <glyph glyph-name="Tbar" unicode="&#x166;" horiz-adv-x="515" 
d="M502 574h-173v-77h94l-20 -126h-74v-371h-145v371h-100l20 126h80v77h-173v136h491v-136z" />
    <glyph glyph-name="Utilde" unicode="&#x168;" horiz-adv-x="603" 
d="M358 136q51 0 51 49v525h144v-575q0 -135 -155 -135h-193q-155 0 -155 135v575h144v-525q0 -49 50 -49h114zM376 856q44 0 59 -13t15 -54v-54h-89v23q0 13 -9 13q-12 0 -27 -12l-15 -11q-19 -15 -82 -15q-44 0 -59 12t-15 55v53h89v-23q0 -13 9 -13q15 0 28 12l8 8
q14 12 31 15.5t57 3.5z" />
    <glyph glyph-name="utilde" unicode="&#x169;" horiz-adv-x="516" 
d="M468 505v-505h-94l-13 41q-41 -41 -117 -41h-55q-144 0 -144 135v370h134v-340q0 -49 50 -49h55q47 0 50 43v346h134zM323 686q44 0 59 -13t15 -54v-54h-89v23q0 13 -9 13q-12 0 -27 -12l-15 -11q-19 -15 -82 -15q-44 0 -59 12t-15 55v53h89v-23q0 -13 9 -13q15 0 28 12
l8 8q14 12 31 15.5t57 3.5z" />
    <glyph glyph-name="Umacron" unicode="&#x16a;" horiz-adv-x="603" 
d="M358 136q51 0 51 49v525h144v-575q0 -135 -155 -135h-193q-155 0 -155 135v575h144v-525q0 -49 50 -49h114zM456 867l-20 -116h-261l20 116h261z" />
    <glyph glyph-name="umacron" unicode="&#x16b;" horiz-adv-x="516" 
d="M468 505v-505h-94l-13 41q-41 -41 -117 -41h-55q-144 0 -144 135v370h134v-340q0 -49 50 -49h55q47 0 50 43v346h134zM403 697l-20 -116h-261l20 116h261z" />
    <glyph glyph-name="Ubreve" unicode="&#x16c;" horiz-adv-x="603" 
d="M358 136q51 0 51 49v525h144v-575q0 -135 -155 -135h-193q-155 0 -155 135v575h144v-525q0 -49 50 -49h114zM318 745h-31q-71 0 -91.5 18.5t-20.5 86.5v13h77v-16q0 -30 30 -30h39q30 0 30 30v16h77v-13q0 -69 -19 -87t-91 -18z" />
    <glyph glyph-name="ubreve" unicode="&#x16d;" horiz-adv-x="516" 
d="M468 505v-505h-94l-13 41q-41 -41 -117 -41h-55q-144 0 -144 135v370h134v-340q0 -49 50 -49h55q47 0 50 43v346h134zM265 574h-31q-71 0 -91.5 18.5t-20.5 86.5v13h77v-16q0 -30 30 -30h39q30 0 30 30v16h77v-13q0 -69 -19 -87t-91 -18z" />
    <glyph glyph-name="Uring" unicode="&#x16e;" horiz-adv-x="603" 
d="M358 136q51 0 51 49v525h144v-575q0 -135 -155 -135h-193q-155 0 -155 135v575h144v-525q0 -49 50 -49h114zM266 919h70q52 0 67.5 -15t15.5 -70v-35q0 -56 -14 -70.5t-67 -14.5h-71q-51 0 -66 15t-15 70v35q0 56 14 70.5t66 14.5zM322 786q19 0 19 20v21q0 20 -19 20
h-39q-21 0 -21 -20v-21q0 -20 21 -20h39z" />
    <glyph glyph-name="uring" unicode="&#x16f;" horiz-adv-x="516" 
d="M468 505v-505h-94l-13 41q-41 -41 -117 -41h-55q-144 0 -144 135v370h134v-340q0 -49 50 -49h55q47 0 50 43v346h134zM213 749h70q52 0 67.5 -15t15.5 -70v-35q0 -56 -14 -70.5t-67 -14.5h-71q-51 0 -66 15t-15 70v35q0 56 14 70.5t66 14.5zM269 616q19 0 19 20v21
q0 20 -19 20h-39q-21 0 -21 -20v-21q0 -20 21 -20h39z" />
    <glyph glyph-name="Uhungarumlaut" unicode="&#x170;" horiz-adv-x="603" 
d="M358 136q51 0 51 49v525h144v-575q0 -135 -155 -135h-193q-155 0 -155 135v575h144v-525q0 -49 50 -49h114zM262 921h119l-105 -169h-82zM388 921h118l-106 -169h-80z" />
    <glyph glyph-name="uhungarumlaut" unicode="&#x171;" horiz-adv-x="516" 
d="M468 505v-505h-94l-13 41q-41 -41 -117 -41h-55q-144 0 -144 135v370h134v-340q0 -49 50 -49h55q47 0 50 43v346h134zM209 750h119l-105 -169h-82zM335 750h118l-106 -169h-80z" />
    <glyph glyph-name="Uogonek" unicode="&#x172;" horiz-adv-x="603" 
d="M180 -124v21q0 33 12 50t39 34q16 10 27 19h-53q-155 0 -155 135v575h144v-525q0 -49 50 -49h114q51 0 51 49v525h144v-575q0 -135 -155 -135h-63v-7q0 -24 -7 -34t-31 -26q-23 -16 -28.5 -22.5t-5.5 -17.5q0 -17 16 -17h86l-9 -72h-96q-80 0 -80 72z" />
    <glyph glyph-name="uogonek" unicode="&#x173;" horiz-adv-x="516" 
d="M282 -130v21q0 33 12 50t39 34q21 13 28 20.5t9 15.5l-9 30q-41 -41 -117 -41h-55q-144 0 -144 135v370h134v-340q0 -49 50 -49h55q47 0 50 43v346h134v-505h-31v-13q0 -24 -7 -34t-31 -26q-23 -16 -28.5 -22.5t-5.5 -17.5q0 -17 16 -17h86l-9 -72h-96q-80 0 -80 72z" />
    <glyph glyph-name="Wcircumflex" unicode="&#x174;" horiz-adv-x="902" 
d="M356 0h-147l-200 710h146l112 -464q9 -31 12 -65q0 2 3.5 27t5.5 37l94 465h137l95 -465q10 -51 10 -57q3 27 11 56l112 466h146l-200 -710h-147l-91 407q-2 12 -3 47t-2 42q-3 -82 -5 -89zM417 859h75l123 -110h-127l-34 30l-35 -30h-125z" />
    <glyph glyph-name="wcircumflex" unicode="&#x175;" horiz-adv-x="770" 
d="M323 0h-164l-148 505h141l88 -353l76 353h137l76 -353l88 353h141l-146 -505h-164l-59 244l-5 16q-2 -12 -4 -16zM345 689h75l123 -110h-127l-34 30l-35 -30h-125z" />
    <glyph glyph-name="Ycircumflex" unicode="&#x176;" horiz-adv-x="587" 
d="M367 0h-144v261l-231 449h149l134 -264q16 -34 19 -59q3 28 18 58l130 265h150l-225 -445v-265zM256 859h75l123 -110h-127l-34 30l-35 -30h-125z" />
    <glyph glyph-name="ycircumflex" unicode="&#x177;" horiz-adv-x="496" 
d="M124 -99q25 0 39 13.5t26 54.5l9 31h-36l-153 505h140l94 -348l100 348h145l-176 -562q-18 -58 -37 -92t-45 -50.5t-51 -21t-68 -4.5h-83l21 126h75zM192 689h75l123 -110h-127l-34 30l-35 -30h-125z" />
    <glyph glyph-name="Ydieresis" unicode="&#x178;" horiz-adv-x="587" 
d="M367 0h-144v261l-231 449h149l134 -264q16 -34 19 -59q3 28 18 58l130 265h150l-225 -445v-265zM143 871h112v-123h-112v123zM333 871h111v-123h-111v123z" />
    <glyph glyph-name="Zacute" unicode="&#x179;" horiz-adv-x="528" 
d="M498 585l-298 -449h313l-20 -136h-454l-20 125l297 449h-278l-20 136h460zM289 750h-110l82 158h155z" />
    <glyph glyph-name="zacute" unicode="&#x17a;" horiz-adv-x="439" 
d="M408 404l-227 -296h238l-14 -108h-370l-14 101l227 296h-205l-14 108h365zM247 580h-110l82 158h155z" />
    <glyph glyph-name="Zdotaccent" unicode="&#x17b;" horiz-adv-x="528" 
d="M498 585l-298 -449h313l-20 -136h-454l-20 125l297 449h-278l-20 136h460zM189 897h139v-144h-139v144z" />
    <glyph glyph-name="zdotaccent" unicode="&#x17c;" horiz-adv-x="439" 
d="M408 404l-227 -296h238l-14 -108h-370l-14 101l227 296h-205l-14 108h365zM147 727h139v-144h-139v144z" />
    <glyph glyph-name="Zcaron" unicode="&#x17d;" horiz-adv-x="528" 
d="M498 585l-298 -449h313l-20 -136h-454l-20 125l297 449h-278l-20 136h460zM300 749h-85l-116 113h120l39 -47l40 47h118z" />
    <glyph glyph-name="zcaron" unicode="&#x17e;" horiz-adv-x="439" 
d="M408 404l-227 -296h238l-14 -108h-370l-14 101l227 296h-205l-14 108h365zM258 579h-85l-116 113h120l39 -47l40 47h118z" />
    <glyph glyph-name="florin" unicode="&#x192;" horiz-adv-x="395" 
d="M297 614q-40 0 -40 -39v-70h100l-20 -126h-80v-423q0 -77 -41 -111t-142 -34h-89l31 126h66q40 0 40 39v403h-94l21 126h73v90q0 77 41 111t142 34h89l-31 -126h-66z" />
    <glyph glyph-name="AEacute" unicode="&#x1fc;" horiz-adv-x="873" 
d="M548 574v-7l23 -203h224l-20 -136h-189l11 -92h258l-20 -136h-377l-13 116h-234l-63 -116h-164l394 710h477l-20 -136h-287zM404 473l-120 -221h145zM530 758h-110l82 158h155z" />
    <glyph glyph-name="aeacute" unicode="&#x1fd;" horiz-adv-x="774" 
d="M492 126h79q41 0 41 29v9h124v-27q0 -83 -34.5 -110t-131.5 -27h-77q-66 0 -104.5 11.5t-55.5 41.5l-3 -3q-19 -30 -41.5 -40t-70.5 -10h-64q-125 0 -125 125v73q0 115 125 115h164v33q0 39 -40 39h-65q-40 0 -40 -39v-5h-125v45q0 125 126 125h144q40 0 69 -12
q36 12 106 12h77q93 0 129.5 -23t36.5 -102v-80q0 -67 -26.5 -92.5t-118.5 -25.5h-139v-29q3 -33 40 -33zM571 385h-60q-32 0 -45 -6t-14 -28v-47h121q39 0 39 23v32q0 26 -41 26zM183 126h94q41 0 41 39v32h-134q-31 0 -31 -37v-5q0 -29 30 -29zM427 569h-110l82 158h155z
" />
    <glyph glyph-name="Oslashacute" unicode="&#x1fe;" horiz-adv-x="638" 
d="M491 760h156l-77 -123q14 -31 14 -72v-420q0 -145 -165 -145h-205q-26 0 -38 2l-32 -52h-158l76 123q-13 29 -13 72v420q0 145 165 145h205q21 0 39 -3zM244 574q-50 0 -50 -49v-241l181 290h-131zM389 136q50 0 50 49v240l-180 -289h130zM288 750h-110l82 158h155z" />
    <glyph glyph-name="oslashacute" unicode="&#x1ff;" horiz-adv-x="527" 
d="M187 511h146q22 0 40 -3l31 43h127l-70 -98q17 -32 17 -77v-241q0 -135 -145 -135h-146q-25 0 -45 3l-23 -32h-128l65 92q-14 30 -14 72v241q0 135 145 135zM292 580h-110l82 158h155zM304 121q40 0 40 39v128l-119 -167h79zM176 351v-120l113 159h-72q-41 0 -41 -39z
" />
    <glyph glyph-name="Scommaaccent" unicode="&#x218;" horiz-adv-x="561" 
d="M341 248l-154 69q-88 41 -116 71t-28 98v99q0 125 145 125h183q145 0 145 -125v-84h-144v34q0 39 -40 39h-104q-41 0 -41 -39v-20q0 -22 8 -31t33 -20l154 -70q39 -18 53 -25t38 -21t31.5 -25t14.5 -28t7 -39v-131q0 -125 -145 -125h-203q-145 0 -145 125v96h144v-46
q0 -39 40 -39h125q40 0 40 39v29q0 17 -9.5 26t-31.5 18zM236 -42h104v-84l-89 -120h-15v204z" />
    <glyph glyph-name="scommaaccent" unicode="&#x219;" horiz-adv-x="475" 
d="M277 395h-83q-30 0 -30 -29v-8q0 -13 9 -18.5t32 -10.5l112 -25q78 -17 101.5 -39.5t23.5 -86.5v-63q0 -66 -36.5 -90.5t-119.5 -24.5h-100q-94 0 -125 27.5t-31 104.5v28h124v-15q0 -29 30 -29h103q31 0 31 29v4q0 14 -8.5 19t-32.5 10l-112 24q-45 10 -70 20.5
t-37.5 29t-15 36t-2.5 53.5v44q0 71 31 98.5t125 27.5h80q95 0 125.5 -28.5t30.5 -109.5v-32h-124v25q0 29 -31 29zM190 -42h104v-84l-89 -120h-15v204z" />
    <glyph glyph-name="dotlessj" unicode="&#x237;" horiz-adv-x="261" 
d="M79 379h-68v126h202v-595q0 -125 -135 -125h-96l20 126h37q40 0 40 39v429z" />
    <glyph glyph-name="circumflex" unicode="&#x2c6;" horiz-adv-x="597" 
d="M221 735h75l123 -110h-127l-34 30l-35 -30h-125z" />
    <glyph glyph-name="caron" unicode="&#x2c7;" horiz-adv-x="849" 
d="M302 625h-85l-116 113h120l39 -47l40 47h118z" />
    <glyph glyph-name="breve" unicode="&#x2d8;" horiz-adv-x="833" 
d="M388 574h-31q-71 0 -91.5 18.5t-20.5 86.5v13h77v-16q0 -30 30 -30h39q30 0 30 30v16h77v-13q0 -69 -19 -87t-91 -18z" />
    <glyph glyph-name="dotaccent" unicode="&#x2d9;" horiz-adv-x="832" 
d="M255 727h139v-144h-139v144z" />
    <glyph glyph-name="ring" unicode="&#x2da;" horiz-adv-x="833" 
d="M309 712h70q52 0 67.5 -15t15.5 -70v-35q0 -56 -14 -70.5t-67 -14.5h-71q-51 0 -66 15t-15 70v35q0 56 14 70.5t66 14.5zM365 579q19 0 19 20v21q0 20 -19 20h-39q-21 0 -21 -20v-21q0 -20 21 -20h39z" />
    <glyph glyph-name="ogonek" unicode="&#x2db;" horiz-adv-x="833" 
d="M258 -130v21q0 33 12 50t39 34t32.5 25.5t5.5 26.5v16h66v-56q0 -24 -7 -34t-31 -26q-23 -16 -28.5 -22.5t-5.5 -17.5q0 -17 16 -17h86l-9 -72h-96q-80 0 -80 72z" />
    <glyph glyph-name="tilde" unicode="&#x2dc;" horiz-adv-x="820" 
d="M365 727q44 0 59 -13t15 -54v-54h-89v23q0 13 -9 13q-12 0 -27 -12l-15 -11q-19 -15 -82 -15q-44 0 -59 12t-15 55v53h89v-23q0 -13 9 -13q15 0 28 12l8 8q14 12 31 15.5t57 3.5z" />
    <glyph glyph-name="hungarumlaut" unicode="&#x2dd;" horiz-adv-x="257" 
d="M92 750h119l-105 -169h-82zM218 750h118l-106 -169h-80z" />
    <glyph glyph-name="Wgrave" unicode="&#x1e80;" horiz-adv-x="902" 
d="M356 0h-147l-200 710h146l112 -464q9 -31 12 -65q0 2 3.5 27t5.5 37l94 465h137l95 -465q10 -51 10 -57q3 27 11 56l112 466h146l-200 -710h-147l-91 407q-2 12 -3 47t-2 42q-3 -82 -5 -89zM284 885h140l82 -136h-90z" />
    <glyph glyph-name="wgrave" unicode="&#x1e81;" horiz-adv-x="770" 
d="M323 0h-164l-148 505h141l88 -353l76 353h137l76 -353l88 353h141l-146 -505h-164l-59 244l-5 16q-2 -12 -4 -16zM212 715h140l82 -136h-90z" />
    <glyph glyph-name="Wacute" unicode="&#x1e82;" horiz-adv-x="902" 
d="M356 0h-147l-200 710h146l112 -464q9 -31 12 -65q0 2 3.5 27t5.5 37l94 465h137l95 -465q10 -51 10 -57q3 27 11 56l112 466h146l-200 -710h-147l-91 407q-2 12 -3 47t-2 42q-3 -82 -5 -89zM487 750h-110l82 158h155z" />
    <glyph glyph-name="wacute" unicode="&#x1e83;" horiz-adv-x="770" 
d="M323 0h-164l-148 505h141l88 -353l76 353h137l76 -353l88 353h141l-146 -505h-164l-59 244l-5 16q-2 -12 -4 -16zM415 580h-110l82 158h155z" />
    <glyph glyph-name="Wdieresis" unicode="&#x1e84;" horiz-adv-x="902" 
d="M356 0h-147l-200 710h146l112 -464q9 -31 12 -65q0 2 3.5 27t5.5 37l94 465h137l95 -465q10 -51 10 -57q3 27 11 56l112 466h146l-200 -710h-147l-91 407q-2 12 -3 47t-2 42q-3 -82 -5 -89zM305 871h112v-123h-112v123zM495 871h111v-123h-111v123z" />
    <glyph glyph-name="wdieresis" unicode="&#x1e85;" horiz-adv-x="770" 
d="M323 0h-164l-148 505h141l88 -353l76 353h137l76 -353l88 353h141l-146 -505h-164l-59 244l-5 16q-2 -12 -4 -16zM233 701h112v-123h-112v123zM423 701h111v-123h-111v123z" />
    <glyph glyph-name="Ygrave" unicode="&#x1ef2;" horiz-adv-x="587" 
d="M367 0h-144v261l-231 449h149l134 -264q16 -34 19 -59q3 28 18 58l130 265h150l-225 -445v-265zM122 885h140l82 -136h-90z" />
    <glyph glyph-name="ygrave" unicode="&#x1ef3;" horiz-adv-x="496" 
d="M124 -99q25 0 39 13.5t26 54.5l9 31h-36l-153 505h140l94 -348l100 348h145l-176 -562q-18 -58 -37 -92t-45 -50.5t-51 -21t-68 -4.5h-83l21 126h75zM60 715h140l82 -136h-90z" />
    <glyph glyph-name="endash" unicode="&#x2013;" horiz-adv-x="506" 
d="M468 354l-20 -126h-408l20 126h408z" />
    <glyph glyph-name="emdash" unicode="&#x2014;" horiz-adv-x="604" 
d="M567 354l-20 -126h-508l20 126h508z" />
    <glyph glyph-name="quoteleft" unicode="&#x2018;" horiz-adv-x="229" 
d="M206 474h-180l48 246h70z" />
    <glyph glyph-name="quoteright" unicode="&#x2019;" horiz-adv-x="218" 
d="M21 720h181l-62 -246h-70z" />
    <glyph glyph-name="quotesinglbase" unicode="&#x201a;" horiz-adv-x="241" 
d="M30 134h181l-62 -246h-70z" />
    <glyph glyph-name="quotedblleft" unicode="&#x201c;" horiz-adv-x="439" 
d="M415 474h-180l48 246h70zM206 474h-180l48 246h70z" />
    <glyph glyph-name="quotedblright" unicode="&#x201d;" horiz-adv-x="427" 
d="M230 720h181l-62 -246h-70zM21 720h181l-62 -246h-70z" />
    <glyph glyph-name="quotedblbase" unicode="&#x201e;" horiz-adv-x="440" 
d="M235 174h181l-62 -246h-70zM25 174h181l-62 -246h-70z" />
    <glyph glyph-name="dagger" unicode="&#x2020;" horiz-adv-x="416" 
d="M19 228l20 126h101v396l114 27h20v-423h123l-20 -126h-103v-478h-134v478h-121z" />
    <glyph glyph-name="daggerdbl" unicode="&#x2021;" horiz-adv-x="424" 
d="M23 354l20 126h101v270l114 27h20v-297h123l-20 -126h-103v-126h123l-20 -126h-103v-352h-134v352h-121l20 126h101v126h-121z" />
    <glyph glyph-name="bullet" unicode="&#x2022;" horiz-adv-x="519" 
d="M82 93v348h355v-348h-355z" />
    <glyph glyph-name="ellipsis" unicode="&#x2026;" horiz-adv-x="795" 
d="M320 -5v149h152v-149h-152zM600 -5v149h152v-149h-152zM44 -5v149h152v-149h-152z" />
    <glyph glyph-name="perthousand" unicode="&#x2030;" horiz-adv-x="1103" 
d="M790 257q0 83 90 83h109q90 0 90 -83v-173q0 -84 -90 -84h-109q-90 0 -90 84v173zM448 257q0 83 90 83h109q90 0 90 -83v-173q0 -84 -90 -84h-109q-90 0 -90 84v173zM565 256q-18 0 -22.5 -9t-4.5 -34v-103q0 -26 27 -26h56q17 0 21.5 9t4.5 34v103q0 26 -26 26h-56z
M907 256q-19 0 -23 -9.5t-4 -36.5v-100q0 -26 27 -26h56q18 0 22 9.5t4 36.5v100q0 26 -26 26h-56zM25 627q0 83 90 83h108q90 0 90 -83v-173q0 -84 -90 -84h-108q-90 0 -90 84v173zM198 626h-56q-28 0 -28 -26v-120q0 -26 28 -26h56q26 0 26 26v120q0 26 -26 26zM171 0
l317 710h100l-317 -710h-100z" />
    <glyph glyph-name="guilsinglleft" unicode="&#x2039;" horiz-adv-x="339" 
d="M309 69h-156l-131 183l131 183h156l-131 -183z" />
    <glyph glyph-name="guilsinglright" unicode="&#x203a;" horiz-adv-x="339" 
d="M186 69h-156l131 183l-131 183h156l131 -183z" />
    <glyph glyph-name="fraction" unicode="&#x2044;" horiz-adv-x="382" 
d="M-16 0l317 710h100l-317 -710h-100z" />
    <glyph glyph-name="foursuperior" unicode="&#x2074;" horiz-adv-x="263" 
d="M27 471v79q0 24 16 43l101 117h83l-121 -143q-11 -14 -11 -25v-8h46v29l44 9h22v-38h32l-10 -63h-22v-42h-66v42h-114z" />
    <glyph glyph-name="Euro" unicode="&#x20ac;" horiz-adv-x="692" 
d="M422 336l-20 -126h-137v-25q0 -49 50 -49h145q50 0 50 49v26h145v-76q0 -77 -44.5 -106t-145.5 -29h-190q-154 0 -154 135v75h-97l20 126h77v38h-97l20 126h77v75q0 135 154 135h190q101 0 145.5 -29t44.5 -106v-74h-145v24q0 49 -50 49h-145q-50 0 -50 -49v-25h197
l-20 -126h-177v-38h157z" />
    <glyph glyph-name="trademark" unicode="&#x2122;" horiz-adv-x="813" 
d="M760 297h-106v224l-42 -78h-81l-43 78v-224h-103v413h103l82 -146l84 146h106v-413zM354 612h-105v-315h-103v315h-102v98h310v-98z" />
    <glyph glyph-name="minus" unicode="&#x2212;" horiz-adv-x="549" 
d="M42 228l20 136h446l-20 -136h-446z" />
    <glyph glyph-name="commaaccent" unicode="&#xf6c3;" horiz-adv-x="500" 
d="M203 -42h104v-84l-89 -120h-15v204z" />
    <glyph glyph-name="s_t" unicode="&#xfb06;" horiz-adv-x="874" 
d="M277 395h-83q-30 0 -30 -29v-8q0 -13 9 -18.5t32 -10.5l112 -25q78 -17 101.5 -39.5t23.5 -86.5v-63q0 -66 -36.5 -90.5t-119.5 -24.5h-100q-94 0 -125 27.5t-31 104.5v28h124v-15q0 -29 30 -29h103q31 0 31 29v4q0 14 -8.5 19t-32.5 10l-112 24q-45 10 -70 20.5
t-37.5 29t-15 36t-2.5 53.5v44q0 71 31 98.5t125 27.5h80q95 0 125.5 -28.5t30.5 -109.5v-32h-124v25q0 29 -31 29zM860 505l-10 -126h-90v-214q0 -39 41 -39h36l10 -126h-76q-145 0 -145 135v244h-74l10 126h64v60l124 80h10v-140h100z" />
    <glyph glyph-name="g.001" horiz-adv-x="539" 
d="M44 256v124q0 71 39.5 98t129.5 27h87q34 0 50 -2l99 93l98 -106l-92 -85q2 -15 2 -47v-109q0 -122 -135 -125l-70 -2q-13 0 -19.5 -3t-7.5 -6.5t-1 -9.5v-2q0 -12 6.5 -17t25.5 -5h109q85 0 123.5 -27.5t38.5 -97.5v-62q0 -88 -35 -118.5t-130 -30.5h-153
q-106 0 -135.5 28.5t-29.5 118.5v60q0 50 12 75.5t54 37.5q-18 6 -25 13.5t-7 21.5v3q0 15 7.5 23t27.5 14q-30 7 -46.5 27.5t-19.5 40t-3 50.5zM242 -141h91q35 0 47.5 6.5t12.5 32.5v26q0 14 -4.5 22.5t-14.5 12t-17.5 4t-23.5 0.5h-97q-38 0 -48 -6.5t-10 -38.5v-20
q0 -25 14.5 -32t49.5 -7zM266 389h-47q-41 0 -41 -49v-51q0 -30 12.5 -39.5t43.5 -9.5h17q51 0 61.5 8.5t10.5 48.5v34q0 37 -11 47.5t-46 10.5z" />
    <glyph glyph-name="i.001" horiz-adv-x="343" 
d="M64 379h-48v126h59q87 0 125.5 -27.5t38.5 -97.5v-221q0 -39 40 -39h48v-126h-59q-87 0 -125.5 27.5t-38.5 97.5v221q0 39 -40 39zM99 583v149h152v-149h-152z" />
    <glyph glyph-name="G.001" horiz-adv-x="604" 
d="M325 254v136h237v-261q0 -135 -155 -135h-204q-154 0 -154 135v446q0 135 154 135h204q155 0 155 -135v-123h-144v73q0 49 -51 49h-124q-50 0 -50 -49v-346q0 -49 50 -49h125q50 0 50 49v75h-93z" />
    <glyph glyph-name="P.slt" horiz-adv-x="563" 
d="M195 0h-144v585q0 74 44.5 99.5t149.5 25.5h145q145 0 145 -125v-169q0 -104 -31.5 -146t-133.5 -42h-124q-25 0 -38 -14.5t-13 -33.5v-180zM236 574q-28 0 -34.5 -14.5t-6.5 -53.5v-172q11 20 28 25t50 5h77q41 0 41 39v118q0 34 -10.5 43.5t-39.5 9.5h-105z" />
    <glyph glyph-name="N.001" horiz-adv-x="586" 
d="M236 574q-41 0 -41 -39v-535h-144v585q0 125 145 125h194q145 0 145 -125v-585h-145v535q0 39 -40 39h-114z" />
    <glyph glyph-name="S.bd" horiz-adv-x="594" 
d="M369 288h-184q-145 0 -145 125v172q0 125 145 125h224q145 0 145 -125v-84h-145v34q0 39 -40 39h-144q-41 0 -41 -39v-72q0 -39 41 -39h184q145 0 145 -125v-182q0 -125 -145 -125h-224q-145 0 -145 125v94h144v-44q0 -39 41 -39h144q40 0 40 39v82q0 39 -40 39z" />
    <glyph glyph-name="N.bd" horiz-adv-x="618" 
d="M52 1v698h144v-76q0 -8 1 -13t6 -9.5t7.5 -5.5t12.5 -5.5t13 -5.5l185 -80v195h145v-698h-145v328q0 8 -1 13t-6 9.5t-7.5 5.5t-12.5 5.5t-13 5.5l-185 80v-447h-144z" />
    <glyph glyph-name="T.002" horiz-adv-x="546" 
d="M526 574h-184v-574h-145v574h-193l20 136h522z" />
    <glyph glyph-name="I.bd" horiz-adv-x="421" 
d="M283 136h110v-136h-365v136h110v438h-110v136h365v-136h-110v-438z" />
    <glyph glyph-name="Z.bd" horiz-adv-x="560" 
d="M388 348l-186 -130q-1 -1 -4 -3q-32 -25 -35 -40q-1 -3 -1 -6v-12q0 -19 9 -24t32 -5h320v-136h-360q-145 0 -145 125v72q0 18 6 34.5t13 27.5t24.5 26.5t27.5 23t36 26t37 26.5l185 131q4 3 10.5 7.5t9 6.5t7 5t6 5t3.5 5t3 5.5t1.5 6t0.5 8.5v12q0 29 -41 29h-285v136
h325q145 0 145 -125v-72q0 -18 -6.5 -34.5t-12.5 -27.5t-24.5 -27t-27.5 -23t-36.5 -26.5t-36.5 -26.5z" />
    <glyph glyph-name="V.bd" horiz-adv-x="659" 
d="M329 208l194 497l134 -51l-255 -657h-145l-255 657l134 51z" />
    <glyph glyph-name="X.bd" horiz-adv-x="581" 
d="M290 406l151 299l135 -51l-168 -305l168 -304l-135 -51l-151 279l-151 -279l-134 51l168 304l-168 305l134 51z" />
    <glyph glyph-name="G.002" horiz-adv-x="600" 
d="M325 254v136h237v-261q0 -135 -155 -135h-203q-155 0 -155 135v446q0 135 154 135h357l-20 -136h-297q-50 0 -50 -49v-346q0 -49 50 -49h124q50 0 50 49v75h-92z" />
    <glyph glyph-name="o.001" horiz-adv-x="833" 
 />
    <glyph glyph-name="i.002" horiz-adv-x="272" 
d="M91 379h-78v99l105 27h107v-505h-134v379zM87 603v149h152v-149h-152z" />
    <glyph glyph-name="u.bd" horiz-adv-x="524" 
d="M477 0h-124v42q-39 -42 -121 -42h-53q-135 0 -135 125v353l104 27h30v-340q0 -49 50 -49h64q47 0 51 41v321l104 27h30v-505z" />
    <glyph glyph-name="w.bd" horiz-adv-x="754" 
d="M335 0h-164l-168 505h141l108 -353l56 183h137l56 -183l109 353h140l-166 -505h-165l-42 127z" />
    <glyph glyph-name="H.slt" horiz-adv-x="607" 
d="M196 0h-144v683l114 27h30v-346h214v319l115 27h30v-710h-145v228h-214v-228z" />
    <glyph glyph-name="I.slt" horiz-adv-x="249" 
d="M196 0h-144v683l114 27h30v-710z" />
    <glyph glyph-name="J.slt" horiz-adv-x="346" 
d="M294 135q0 -135 -154 -135h-138l20 136h78q50 0 50 49v498l115 27h29v-575z" />
    <glyph glyph-name="K.slt" horiz-adv-x="570" 
d="M196 0h-144v683l114 27h30v-286l206 286h179l-255 -355l255 -355h-179l-206 285v-285z" />
    <glyph glyph-name="L.slt" horiz-adv-x="480" 
d="M196 136h282l-20 -136h-406v683l114 27h30v-574z" />
    <glyph glyph-name="N.slt" 
d="M578 0h-144l-238 421v-421h-144v683l114 27h30l238 -415v388l114 27h30v-710z" />
    <glyph glyph-name="M.slt" horiz-adv-x="710" 
d="M658 0h-144v421l-90 -193h-138l-90 193v-421h-144v683l114 27h30l160 -297l143 267l15 3q20 4 58 13.5t56 13.5h30v-710z" />
    <glyph glyph-name="U.slt" horiz-adv-x="614" 
d="M194 185q0 -49 51 -49h123q51 0 51 49v498l114 27h30v-575q0 -135 -155 -135h-203q-155 0 -155 135v548l114 27h30v-525z" />
    <glyph glyph-name="T.bd" horiz-adv-x="552" 
d="M542 574h-194v-574h-145v574h-193v136h532v-136z" />
    <glyph glyph-name="ampersand.001" horiz-adv-x="653" 
d="M546 0l-41 40q-32 -27 -53.5 -33.5t-63.5 -6.5h-188q-165 0 -165 145v133q0 103 81 132q-1 7 -1 22v133q0 145 165 145h123q165 0 165 -145v-133q0 -122 -114 -141l63 -62l32 32l91 -88l-32 -32l39 -37zM374 423q49 0 50 45v57q0 48 -46 49h-68q-50 0 -50 -49v-53
q0 -48 45 -49h69zM230 136h148q18 0 27 3l-150 148h-25q-50 0 -51 -44v-63q1 -44 51 -44z" />
    <glyph glyph-name="A.B" horiz-adv-x="618" 
d="M97 710h290l234 -710h-153l-9 29l-267 70l-31 -99h-152l188 574h-100v136zM316 499l-42 -135l90 -23zM235 239l-4 -14l182 -48l-5 17z" />
    <glyph glyph-name="B.s" horiz-adv-x="569" 
d="M52 0v710h218q155 0 155 -135v-74q0 -44 -11 -62t-39 -25q39 0 57.5 -1t47 -7.5t41.5 -19.5t23.5 -37.5t10.5 -61.5v-152q0 -135 -155 -135h-348zM196 306v-170h164q51 0 51 49v72q0 49 -45 49h-170zM196 574v-132h60q35 0 35 39v54q0 39 -41 39h-54z" />
    <glyph glyph-name="C.s" horiz-adv-x="578" 
d="M237 337h105q50 0 50 49v16h144v-66q0 -135 -155 -135h-173q-165 0 -165 145v219q0 145 165 145h173q155 0 155 -135v-74h-144v24q0 49 -50 49h-105q-50 0 -50 -49v-139q0 -49 50 -49zM536 136v-136h-492v136h492z" />
    <glyph glyph-name="D.s" horiz-adv-x="639" 
d="M2 574v136h423q175 0 175 -155v-199q0 -155 -175 -155h-328v373h-95zM588 136v-136h-492v136h492zM385 574h-144v-237h144q70 0 70 69v104q-1 64 -70 64z" />
    <glyph glyph-name="E.s.001" horiz-adv-x="523" 
d="M196 574v-75h215l-21 -136h-194v-17h186l-21 -136h-165v-74h308l-21 -136h-431v710h451l-20 -136h-287z" />
    <glyph glyph-name="F.s.001" horiz-adv-x="497" 
d="M196 574v-75h215l-21 -136h-194v-17h186l-21 -136h-165v-210h-144v710h441l-20 -136h-277z" />
    <glyph glyph-name="G.s" horiz-adv-x="555" 
d="M42 -64v139q0 109 91 135v72q-85 29 -85 134v149q0 134 142 144v1h137q155 0 155 -135v-169q0 -135 -155 -135h-60v-51h115q165 0 165 -145v-74h-1v-65q0 -145 -165 -145h-174q-165 0 -165 145zM352 84h-116q-49 0 -50 -44v-64q0 -49 50 -49h115q48 0 51 44v78
q-6 35 -50 35zM238 574q-46 -3 -46 -49v-69q0 -48 46 -49h50q50 0 50 49v69q0 46 -45 49h-55z" />
    <glyph glyph-name="H.s" horiz-adv-x="608" 
d="M196 1h-144v710h144v-253l216 -56v308h144v-710h-144v111l-216 56v-166zM196 322v-19l216 -56v19z" />
    <glyph glyph-name="I.s" horiz-adv-x="546" 
d="M519 710v-136h-176v-438h176v-136h-492v136h172v438h-172v136h492z" />
    <glyph glyph-name="J.s" horiz-adv-x="587" 
d="M536 710v-575q0 -135 -155 -135h-203q-155 0 -155 135v129h144v-79q0 -49 51 -49h123q51 0 51 49v226h-119l-10 136h129v27h-186l-10 136h340z" />
    <glyph glyph-name="K.s" horiz-adv-x="585" 
d="M421 710h160l-293 -410l265 -68v-232h-144v133l-213 55v-188h-144v710h144v-316z" />
    <glyph glyph-name="L.s" horiz-adv-x="493" 
d="M192 710v-373h282l-19 -136h-407v509h144zM464 136v-136h-416v136h416z" />
    <glyph glyph-name="M.s" horiz-adv-x="710" 
d="M196 0h-144v710h144l158 -156l159 156h145v-710h-144v310l-160 -143l-158 143v-310zM196 530v-40l158 -143l160 143v40l-160 -143z" />
    <glyph glyph-name="N.s" horiz-adv-x="618" 
d="M52 1v698h144v-76q0 -8 1 -13t6 -9.5t7.5 -5.5t12.5 -5.5t13 -5.5l185 -80v195h145v-698h-145v328q0 8 -1 13t-6 9.5t-7.5 5.5t-12.5 5.5t-13 5.5l-185 80v-447h-144z" />
    <glyph glyph-name="O.s" horiz-adv-x="597" 
d="M43 347v218q0 145 165 145h184q165 0 165 -145v-218q0 -145 -165 -145h-184q-165 0 -165 145zM546 136v-136h-502v136h502zM237 574q-50 0 -50 -49v-138q0 -49 50 -49h126q50 0 50 49v138q0 49 -50 49h-126z" />
    <glyph glyph-name="P.s" horiz-adv-x="564" 
d="M52 574v136h328q155 0 155 -135v-212q0 -135 -155 -135h-184v-228h-144v364h288q51 0 51 49v112q0 49 -51 49h-288z" />
    <glyph glyph-name="Q.s" horiz-adv-x="600" 
d="M281 202h-86q-165 0 -165 145v218q0 145 165 145h203q165 0 165 -145v-218q0 -73 -40 -109v-99zM224 574q-50 0 -50 -49v-138q0 -49 50 -49h145q47 0 50 44v143q0 49 -50 49h-145zM281 47v136l242 -63v-136z" />
    <glyph glyph-name="R.s" horiz-adv-x="583" 
d="M454 -30l-172 258h-86v-228h-144v364h140l-140 210v136h328q155 0 155 -135v-212q0 -101 -85 -126l121 -183zM340 574h-113l137 -207q27 9 27 46v112q0 49 -51 49z" />
    <glyph glyph-name="S.s" horiz-adv-x="565" 
d="M184 533q0 -10 5.5 -17.5t12.5 -11t22 -10.5l155 -67v-69l10 -4q46 -21 65 -30.5t41.5 -26t30 -34.5t7.5 -44v-94q0 -125 -145 -125h-213q-145 0 -145 125v86h144v-36q0 -39 40 -39h134q41 0 41 39v14q0 15 -8.5 22t-31.5 17l-175 78v65q-39 18 -57.5 27.5t-40 25.5
t-29.5 35t-8 44v82q0 125 146 125h193q145 0 145 -125v-84h-144v34q0 39 -40 39h-115q-40 0 -40 -39v-2z" />
    <glyph glyph-name="T.s" horiz-adv-x="564" 
d="M354 0h-145v413h-162v136h472v-136h-165v-413zM547 574h-531v136h531v-136z" />
    <glyph glyph-name="U.s" horiz-adv-x="599" 
d="M362 337q50 0 50 49v324h145v-374q0 -135 -155 -135h-204q-155 0 -155 135v374h145v-324q0 -49 50 -49h124zM547 136v-136h-503v136h503z" />
    <glyph glyph-name="V.s" horiz-adv-x="533" 
d="M339 201h-145l-168 509h149l91 -298l92 298h149zM518 136v-136h-502v136h502z" />
    <glyph glyph-name="W.s" horiz-adv-x="711" 
d="M52 710h144v-312l158 123l160 -123v312h144v-710h-145l-159 156l-158 -156h-144v710zM196 219v-30l158 143l160 -143v30l-160 143z" />
    <glyph glyph-name="X.s" horiz-adv-x="649" 
d="M462 438l192 -438h-160l-131 298l-17 -25l119 -273h-159l-59 133l-93 -133h-160l192 273l-190 437h160l129 -297l17 25l-118 272h160l57 -132l94 132h159z" />
    <glyph glyph-name="Y.s" horiz-adv-x="640" 
d="M189 489l61 -64v40l-230 245h169l133 -139l127 139h171l-225 -243v-37l54 59h171l-225 -243v-246h-145v244l-230 245h169z" />
    <glyph glyph-name="Z.s" horiz-adv-x="564" 
d="M70 423l-21 136h270l11 15h-285l-21 136h470l20 -125l-204 -296h239l-20 -136h-313l-11 -17h320l-20 -136h-464l-20 125l205 298h-156z" />
    <glyph glyph-name="E.s" horiz-adv-x="522" 
d="M195 574v-75h215l-21 -136h-338v347h451l-20 -136h-287zM482 0h-431v346h330l-21 -136h-165v-74h308z" />
    <glyph glyph-name="F.s" horiz-adv-x="497" 
d="M195 574v-75h215l-21 -136h-338v347h441l-20 -136h-277zM195 0h-144v346h330l-21 -136h-165v-210z" />
    <glyph glyph-name="H.s.001" horiz-adv-x="608" 
d="M196 1h-144v710h144v-264h216v263h144v-710h-144v146h-216v-145zM196 311v-29h216v29h-216z" />
    <glyph glyph-name="L.s.001" horiz-adv-x="496" 
d="M197 710v-412h280l-20 -136h-260v-26h282l-19 -136h-407v710h144z" />
    <glyph glyph-name="Q.s.001" horiz-adv-x="591" 
d="M364 1h-134v201h-36q-165 0 -165 145v218q0 145 165 145h203q165 0 165 -145v-218q0 -145 -165 -145h-33v-201zM223 338h7v74h134v-74h4q47 0 50 42v145q0 49 -50 49h-145q-50 0 -50 -49v-138q0 -49 50 -49z" />
    <glyph glyph-name="A.s.001" horiz-adv-x="707" 
d="M286 710h145l147 -448h131v-136h-87l42 -126h-152l-39 126h-229l-39 -126h-153l41 126h-93v136h138l103 311h-101v136h145zM359 499l-73 -237h145z" />
    <glyph glyph-name="N.s.001" 
d="M196 0h-144v710h144v-53l238 -62v115h144v-710h-144v304l-238 62v-366zM196 521v-19l238 -62v19z" />
    <glyph glyph-name="O.s.001" 
d="M48 145v420q0 145 165 145h204q165 0 165 -145v-420q0 -145 -165 -145h-204q-165 0 -165 145zM242 574q-50 0 -50 -49v-340q0 -49 50 -49h146q50 0 50 49v340q0 49 -50 49h-146zM238 273v149h152v-149h-152z" />
    <glyph glyph-name="N.s.002" 
d="M196 0h-144v710h144v-53l238 -62v115h144v-710h-144v459l-238 62v-521z" />
    <glyph glyph-name="C.spec" horiz-adv-x="671" 
d="M322 574q-51 0 -51 -49v-14l132 -34v-136l-132 34v-19l132 -34v-136l-132 34v-35q0 -49 51 -49h124q50 0 50 49v36h144v-76q0 -145 -165 -145h-183q-165 0 -165 145v112l-109 29v136l109 -29v19l-109 29v136l109 -29v17q0 145 165 145h183q165 0 165 -145v-74h-144v34
q0 49 -50 49h-124z" />
    <glyph glyph-name="A.sh" horiz-adv-x="619" 
d="M573 154l-472 123l97 297h-108v136h297zM97 257l484 -127l40 -130h-153l-9 27l-269 70l-29 -97h-152zM315 499l-42 -135l91 -23z" />
    <glyph glyph-name="H.sh" horiz-adv-x="609" 
d="M556 230l-504 130v350h144v-252l216 -55v307h144v-480zM196 1h-144v340l504 -130v-211h-144v112l-216 55v-166z" />
    <glyph glyph-name="M.sh" horiz-adv-x="711" 
d="M355 348l304 332v-680h-144v362l-160 -173l-159 173v-362h-144v680zM355 378l-303 332h144l159 -176l160 176h144z" />
    <glyph glyph-name="W.sh" horiz-adv-x="711" 
d="M659 30l-304 332l-303 -332v680h144v-362l159 173l160 -173v362h144v-680zM52 0l303 332l304 -332h-144l-160 176l-159 -176h-144z" />
    <glyph glyph-name="X.sh" horiz-adv-x="654" 
d="M249 143l-102 -143h-159l200 283l-186 427h159l310 -710h-159zM468 438l191 -438h-159l-310 710h159l57 -132l95 132h159z" />
    <glyph glyph-name="L.sh" horiz-adv-x="535" 
d="M517 93l-475 123v494h144v-396l331 -83v-138zM43 62l-1 135l475 -123v-136z" />
    <glyph glyph-name="B.sh" horiz-adv-x="574" 
d="M52 0v710h164q114 0 161.5 -22.5t47.5 -92.5v-94q0 -69 -48 -92t-161 -23h-20v-14h179q35 0 55 -1t44 -6t36.5 -15t24 -27t16 -43.5t4.5 -63.5v-51q0 -165 -155 -165h-348zM196 246v-110h164q51 0 51 49v12q0 30 -15.5 40t-48.5 10q-6 0 -18.5 -0.5t-19.5 -0.5h-113z
M196 594v-92h54q41 0 41 39v14q0 39 -41 39h-54z" />
    <glyph glyph-name="undercommaaccent" horiz-adv-x="213" 
d="M56 -58h99v-93l-80 -80h-19v173z" />
    <glyph glyph-name="O.mon2.001" horiz-adv-x="628" 
d="M241 574q-49 0 -49 -49v-340q0 -49 49 -49h26v-136h-65q-154 0 -154 135v440q0 135 154 135h224q154 0 154 -135v-440q0 -135 -154 -135h-70v136h31q49 0 49 49v340q0 49 -49 49h-146z" />
    <glyph glyph-name="P.mon2.001" horiz-adv-x="590" 
d="M52 574v136h346q164 0 164 -135v-212q0 -135 -164 -135h-202v-228h-144v484h144v-120h162q60 0 60 49v112q0 49 -60 49h-306z" />
    <glyph glyph-name="S.mon2.001" horiz-adv-x="583" 
d="M363 248l-175 70q-36 15 -50 21t-36 18t-29.5 21.5t-17 25.5t-12 35.5t-2.5 46.5v99q0 125 151 125h58v-136h-19q-45 0 -45 -39v-29q0 -16 7.5 -24t34.5 -18l228 -95q60 -25 76.5 -51.5t16.5 -92.5v-100q0 -125 -149 -125h-60v136h19q25 0 35.5 7t10.5 32v34q0 7 -1.5 12
t-3 8t-6.5 6t-7.5 4t-11 4t-12.5 5zM361 574h-22v136h50q150 0 150 -125v-84h-144v34q0 39 -34 39zM176 175q0 -39 44 -39h30v-136h-68q-150 0 -150 125v86h144v-36z" />
    <glyph glyph-name="F.mon2.001" horiz-adv-x="528" 
d="M176 0h-144v484h144v-120h278l-20 -136h-258v-228zM32 574v136h492l-20 -136h-472z" />
    <glyph glyph-name="B.mon2.001" horiz-adv-x="570" 
d="M32 574v136h321q156 0 156 -135v-124q0 -26 -12.5 -48t-38.5 -29q40 -8 61 -33t21 -54v-152q0 -135 -157 -135h-351v482h144v-40h144q45 0 45 49v34q0 49 -52 49h-281zM176 306v-170h167q52 0 52 49v72q0 49 -45 49h-174z" />
    <glyph glyph-name="I.mon2.001" horiz-adv-x="250" 
d="M197 0h-144v710h144v-710z" />
    <glyph glyph-name="E.mon2.001" horiz-adv-x="526" 
d="M487 0h-455v478h144v-114h268l-19 -136h-249v-92h332zM32 574v136h476l-20 -136h-456z" />
    <glyph glyph-name="Z.mon2.001" horiz-adv-x="553" 
d="M36 0l-20 125l277 359h176l-269 -348h336l-19 -136h-481zM526 574h-486l-20 136h485z" />
    <glyph glyph-name="A.mon2.001" horiz-adv-x="605" 
d="M153 0h-154l77 252h300l-74 247l-52 -159h-144l124 370h145l231 -710h-154l-35 116h-231z" />
    <glyph glyph-name="V.mon2.001" horiz-adv-x="598" 
d="M371 0h-145l218 710h154zM-1 710h154l97 -327l-73 -229z" />
    <glyph glyph-name="X.mon2.001" horiz-adv-x="538" 
d="M1 0l376 710h161l-167 -316l167 -394h-163l-93 225l-119 -225h-162zM158 710l52 -137l-85 -153l-127 290h160z" />
    <glyph glyph-name="N.mon2.001" horiz-adv-x="610" 
d="M414 0l-382 710h164l218 -420v420h144v-710h-144zM176 0h-144v510l144 -250v-260z" />
    <glyph glyph-name="R.mon2.001" horiz-adv-x="568" 
d="M32 574v136h325q154 0 154 -135v-212q0 -105 -93 -129l168 -234h-165l-163 228h-82v-228h-144v484h144v-120h141q50 0 50 49v112q0 49 -50 49h-285z" />
    <glyph glyph-name="G.mon2.001" horiz-adv-x="605" 
d="M192 185q0 -49 51 -49h20v-136h-60q-155 0 -155 135v440q0 135 155 135h205q156 0 156 -135v-74h-144v24q0 49 -52 49h-124q-52 0 -52 -49v-340zM326 254l20 136h218v-255q0 -78 -46 -106.5t-152 -28.5h-13v136h15q52 0 52 49v69h-94z" />
    <glyph glyph-name="C.mon2.001" horiz-adv-x="593" 
d="M243 136h17v-136h-57q-155 0 -155 135v440q0 135 155 135h204q156 0 156 -135v-74h-144v24q0 49 -51 49h-125q-51 0 -51 -49v-340q0 -49 51 -49zM407 0h-61v136h10q63 0 63 49v26h144v-76q0 -135 -156 -135z" />
    <glyph glyph-name="D.mon2.001" horiz-adv-x="573" 
d="M344 574h-312v136h352q156 0 156 -135v-440q0 -135 -156 -135h-352v484h146v-348h166q51 0 51 49v340q0 49 -51 49z" />
    <glyph glyph-name="H.mon2.001" horiz-adv-x="602" 
d="M176 0h-144v367h374v343h144v-710h-144v231h-230v-231zM176 710v-253h-144v253h144z" />
    <glyph glyph-name="U.mon2.001" horiz-adv-x="606" 
d="M246 136h13v-136h-53q-156 0 -156 135v575h144v-525q0 -49 52 -49zM360 136h-12v-136h51q157 0 157 135v575h-144v-525q0 -49 -52 -49z" />
    <glyph glyph-name="W.mon2.001" horiz-adv-x="810" 
d="M327 0h-144l150 710h144l79 -499l84 499h155l-169 -710h-163l-68 371zM15 710h154l44 -192l-72 -315z" />
    <glyph glyph-name="Y.mon2.001" horiz-adv-x="557" 
d="M352 0h-144v285l197 425h150l-203 -440v-270zM158 710l71 -163l-77 -163l-153 326h159z" />
    <glyph glyph-name="L.mon2.001" horiz-adv-x="466" 
d="M436 0h-404v136h424zM176 710v-484h-144v484h144z" />
    <glyph glyph-name="J.mon2.001" horiz-adv-x="453" 
d="M160 136q98 0 98 49v525h144v-575q0 -135 -205 -135h-187l20 136h130z" />
    <glyph glyph-name="Q.mon2.001" horiz-adv-x="628" 
d="M380 211v-75h7q49 0 49 49v340q0 49 -49 49h-31v136h70q154 0 154 -135v-440q0 -135 -154 -135h-46v-102h-134v102h-44q-154 0 -154 135v440q0 135 154 135h65v-136h-26q-49 0 -49 -49v-340q0 -49 49 -49h5v75h134z" />
    <glyph glyph-name="K.mon2.001" horiz-adv-x="550" 
d="M176 0h-144v341l351 369h180l-288 -313l288 -397h-180l-201 276l-6 -4v-272zM176 710v-101l-144 -150v251h144z" />
    <glyph glyph-name="M.mon2.001" horiz-adv-x="734" 
d="M682 0h-145v421l-93 -193h-175l-237 482h164l160 -296l161 296h165v-710zM176 0h-144v500l144 -293v-207z" />
    <glyph glyph-name="T.mon2.001" horiz-adv-x="577" 
d="M563 574h-549v136h549v-136zM361 0h-145v484h145v-484z" />
    <glyph glyph-name="O.mon2" horiz-adv-x="628" 
d="M48 135v440q0 135 154 135h224q154 0 154 -135v-440q0 -135 -154 -135h-224q-154 0 -154 135zM241 574q-49 0 -49 -49v-340q0 -49 49 -49h146q49 0 49 49v340q0 49 -49 49h-146z" />
    <glyph glyph-name="P.mon2" horiz-adv-x="590" 
d="M52 0v710h346q164 0 164 -135v-212q0 -135 -164 -135h-202v-228h-144zM196 574v-210h162q60 0 60 49v112q0 49 -60 49h-162z" />
    <glyph glyph-name="S.mon2" horiz-adv-x="584" 
d="M364 248l-176 70q-35 14 -51 21t-39 20t-32 24.5t-16.5 29.5t-7.5 40v132q0 125 151 125h197q150 0 150 -125v-84h-144v34q0 39 -45 39h-119q-45 0 -45 -39v-32q0 -7 1.5 -12t3 -8t6.5 -6t7.5 -4t11 -4t12.5 -5l174 -70q39 -16 55 -23.5t39 -20.5t31 -24t15 -28t7 -39
v-134q0 -125 -149 -125h-218q-150 0 -150 125v86h144v-36q0 -39 44 -39h141q44 0 44 39v34q0 7 -1.5 12t-3 8t-6.5 6t-7.5 4t-11 4t-12.5 5z" />
    <glyph glyph-name="F.mon2" horiz-adv-x="547" 
d="M196 574v-210h277l-20 -136h-257v-228h-144v710h491l-20 -136h-327z" />
    <glyph glyph-name="B.mon2" horiz-adv-x="592" 
d="M52 0v710h320q157 0 157 -135v-124q0 -25 -13 -47.5t-38 -29.5q40 -8 60.5 -33t20.5 -54v-152q0 -135 -157 -135h-350zM196 306v-170h166q53 0 53 49v72q0 49 -46 49h-173zM196 574v-132h144q45 0 45 49v34q0 49 -53 49h-136z" />
    <glyph glyph-name="I.mon2" horiz-adv-x="250" 
d="M197 0h-144v710h144v-710z" />
    <glyph glyph-name="E.mon2" horiz-adv-x="545" 
d="M196 574v-210h268l-20 -136h-248v-92h331l-20 -136h-455v710h475l-20 -136h-311z" />
    <glyph glyph-name="Z.mon2" horiz-adv-x="553" 
d="M525 585l-325 -449h336l-19 -136h-481l-20 125l325 449h-301l-20 136h485z" />
    <glyph glyph-name="A.mon2" horiz-adv-x="605" 
d="M230 710h145l231 -710h-154l-35 116h-230l-34 -116h-154zM302 499l-74 -247h148z" />
    <glyph glyph-name="V.mon2" horiz-adv-x="598" 
d="M371 0h-145l-227 710h154l146 -499l145 499h155z" />
    <glyph glyph-name="X.mon2" horiz-adv-x="543" 
d="M160 710l115 -299l107 299h158l-148 -356l150 -354h-164l-107 278l-108 -278h-159l150 354l-155 356h161z" />
    <glyph glyph-name="N.mon2" 
d="M196 0h-144v710h144l238 -415v415h144v-710h-144l-238 421v-421z" />
    <glyph glyph-name="R.mon2" horiz-adv-x="589" 
d="M52 0v710h325q154 0 154 -135v-212q0 -105 -93 -129l168 -234h-165l-163 228h-82v-228h-144zM196 574v-210h141q50 0 50 49v112q0 49 -50 49h-141z" />
    <glyph glyph-name="G.mon2" horiz-adv-x="605" 
d="M326 254l20 136h218v-255q0 -135 -156 -135h-205q-155 0 -155 135v440q0 135 155 135h205q156 0 156 -135v-74h-144v24q0 49 -52 49h-124q-52 0 -52 -49v-340q0 -49 51 -49h125q52 0 52 49v69h-94z" />
    <glyph glyph-name="C.mon2" horiz-adv-x="593" 
d="M243 136h125q51 0 51 49v26h144v-76q0 -135 -156 -135h-204q-155 0 -155 135v440q0 135 155 135h204q156 0 156 -135v-74h-144v24q0 49 -51 49h-125q-51 0 -51 -49v-340q0 -49 51 -49z" />
    <glyph glyph-name="D.mon2" horiz-adv-x="607" 
d="M52 0v710h351q156 0 156 -135v-440q0 -135 -156 -135h-351zM364 574h-166v-438h166q51 0 51 49v340q0 49 -51 49z" />
    <glyph glyph-name="H.mon2" horiz-adv-x="622" 
d="M196 0h-144v710h144v-343h230v343h144v-710h-144v231h-230v-231z" />
    <glyph glyph-name="U.mon2" horiz-adv-x="620" 
d="M373 136q53 0 53 49v525h144v-575q0 -135 -157 -135h-207q-156 0 -156 135v575h144v-525q0 -49 52 -49h127z" />
    <glyph glyph-name="W.mon2" horiz-adv-x="810" 
d="M347 0h-164l-168 710h154l85 -499l79 499h144l79 -499l84 499h155l-169 -710h-163l-58 318z" />
    <glyph glyph-name="Y.mon2" horiz-adv-x="557" 
d="M352 0h-144v265l-209 445h159l122 -294l115 294h160l-203 -442v-268z" />
    <glyph glyph-name="L.mon2" horiz-adv-x="539" 
d="M196 710v-574h339l-20 -136h-463v710h144z" />
    <glyph glyph-name="J.mon2" horiz-adv-x="453" 
d="M160 136q98 0 98 49v525h144v-575q0 -135 -205 -135h-187l20 136h130z" />
    <glyph glyph-name="Q.mon2" horiz-adv-x="628" 
d="M48 135v440q0 135 154 135h224q154 0 154 -135v-440q0 -135 -154 -135h-46v-102h-134v102h-44q-154 0 -154 135zM241 574q-49 0 -49 -49v-340q0 -49 49 -49h5v75h134v-75h7q49 0 49 49v340q0 49 -49 49h-146z" />
    <glyph glyph-name="K.mon2" horiz-adv-x="571" 
d="M196 0h-144v710h144v-286l207 286h179l-255 -355l255 -355h-179l-207 286v-286z" />
    <glyph glyph-name="M.mon2" horiz-adv-x="753" 
d="M701 0h-144v451l-103 -173h-155l-103 173v-451h-144v710h164l160 -296l161 296h164v-710z" />
    <glyph glyph-name="T.mon2" horiz-adv-x="577" 
d="M563 574h-202v-574h-145v574h-202v136h549v-136z" />
    <glyph glyph-name="K.mon2.002" horiz-adv-x="586" 
d="M176 0h-144v417h238l161 293h160l-184 -355l184 -355h-169l-147 281h-99v-281zM176 710v-202h-144v202h144z" />
    <glyph glyph-name="A.ae" horiz-adv-x="625" 
d="M240 710h145l227 -662l-137 -48l-38 116h-250l-37 -116l-137 48zM312 499l-81 -247h161z" />
    <glyph glyph-name="K.ae" horiz-adv-x="538" 
d="M196 0h-144v710h144v-286l215 296l129 -86l-213 -279l209 -288l-125 -77l-215 296v-286z" />
    <glyph glyph-name="M.ae" horiz-adv-x="710" 
d="M658 0h-144v421l-90 -193h-138l-90 193v-421h-144v710h144l158 -296l159 296h145v-710z" />
    <glyph glyph-name="R.ae" horiz-adv-x="581" 
d="M52 0v710h328q155 0 155 -135v-212q0 -107 -96 -129l125 -180l-119 -64l-167 238h-82v-228h-144zM196 574v-210h144q51 0 51 49v112q0 49 -51 49h-144z" />
    <glyph glyph-name="V.ae" horiz-adv-x="623" 
d="M384 0h-145l-227 662l137 48l162 -499l163 499l137 -48z" />
    <glyph glyph-name="W.ae" horiz-adv-x="968" 
d="M729 0h-145l-100 292l-100 -292h-145l-227 662l137 48l162 -499l163 499l137 -48l-52 -151l97 -300l163 499l137 -48z" />
    <glyph glyph-name="X.ae" horiz-adv-x="557" 
d="M424 735l126 -72l-186 -294l196 -309l-126 -72l-156 246l-156 -246l-125 72l195 309l-185 294l125 72l146 -231z" />
    <glyph glyph-name="Y.ae" horiz-adv-x="584" 
d="M365 0h-145v301l-210 372l126 62l156 -290l156 290l125 -62l-208 -370v-303z" />
    <glyph glyph-name="A.SC" horiz-adv-x="563" 
d="M210 604h143l214 -604h-152l-31 89h-205l-30 -89h-152zM282 390l-56 -165h112z" />
    <glyph glyph-name="B.SC" horiz-adv-x="544" 
d="M49 0v604h290q138 0 138 -115v-103q0 -55 -40 -68q42 0 59 -17t17 -56v-130q0 -115 -139 -115h-325zM193 251v-115h140q36 0 36 30v59q0 26 -26 26h-150zM193 467v-80h109q31 0 31 31v20q0 29 -33 29h-107z" />
    <glyph glyph-name="C.SC" horiz-adv-x="538" 
d="M229 136h96q39 0 39 31v23h144v-75q0 -115 -143 -115h-176q-143 0 -143 115v374q0 115 143 115h176q143 0 143 -115v-73h-144v21q0 30 -39 30h-96q-39 0 -39 -30v-270q0 -31 39 -31z" />
    <glyph glyph-name="D.SC" horiz-adv-x="575" 
d="M49 0v604h313q169 0 169 -141v-323q0 -140 -169 -140h-313zM322 136q65 0 65 56v219q0 56 -65 56h-129v-331h129z" />
    <glyph glyph-name="E.SC" horiz-adv-x="488" 
d="M193 467v-148h217l-20 -136h-197v-47h273l-20 -136h-397v604h417l-20 -137h-253z" />
    <glyph glyph-name="F.SC" horiz-adv-x="466" 
d="M193 467v-148h210l-20 -136h-190v-183h-144v604h407l-20 -137h-243z" />
    <glyph glyph-name="G.SC" horiz-adv-x="557" 
d="M282 207l20 136h216v-228q0 -115 -144 -115h-186q-143 0 -143 117v372q0 115 144 115h185q143 0 143 -117v-61h-144v10q0 31 -39 31h-105q-40 0 -40 -29v-271q0 -31 39 -31h107q39 0 39 33v38h-92z" />
    <glyph glyph-name="H.SC" horiz-adv-x="570" 
d="M193 0h-144v604h144v-262h184v262h144v-604h-144v205h-184v-205z" />
    <glyph glyph-name="I.SC" horiz-adv-x="242" 
d="M193 0h-144v604h144v-604z" />
    <glyph glyph-name="J.SC" horiz-adv-x="374" 
d="M144 136q39 0 39 31v437h144v-488q0 -116 -144 -116h-169l20 136h110z" />
    <glyph glyph-name="K.SC" horiz-adv-x="553" 
d="M193 0h-144v604h144v-272l199 272h160l-222 -302l235 -302h-162l-210 273v-273z" />
    <glyph glyph-name="L.SC" horiz-adv-x="446" 
d="M193 604v-468h248l-20 -136h-372v604h144z" />
    <glyph glyph-name="M.SC" horiz-adv-x="659" 
d="M48 604h146v-4l134 -261l137 261v4h145l-1 -2v-602h-144v316l-67 -133h-138l-66 131v-314h-145v602z" />
    <glyph glyph-name="N.SC" horiz-adv-x="583" 
d="M193 0h-144v604h144v-1l184 -305q6 -12 13 -33v339h144v-604h-144l-177 289q-11 18 -20 49v-338z" />
    <glyph glyph-name="O.SC" horiz-adv-x="584" 
d="M46 115v374q0 115 143 115h206q143 0 143 -115v-374q0 -115 -143 -115h-206q-143 0 -143 115zM229 467q-39 0 -39 -30v-270q0 -31 39 -31h126q39 0 39 31v270q0 30 -39 30h-126z" />
    <glyph glyph-name="P.SC" horiz-adv-x="535" 
d="M193 178v-178h-144v604h312q145 0 145 -117v-193q0 -116 -145 -116h-168zM193 467v-153h130q39 0 39 31v91q0 31 -39 31h-130z" />
    <glyph glyph-name="Q.SC" horiz-adv-x="584" 
d="M46 115v374q0 115 143 115h206q143 0 143 -115v-374q0 -115 -143 -115h-33v-83h-134v83h-39q-143 0 -143 115zM229 467q-39 0 -39 -30v-270q0 -31 38 -31v58h134v-58q32 2 32 31v270q0 30 -39 30h-126z" />
    <glyph glyph-name="R.SC" horiz-adv-x="551" 
d="M49 0v604h314q144 0 144 -117v-191q0 -95 -95 -113l135 -183h-165l-131 179h-58v-179h-144zM193 467v-151h130q40 0 40 31v89q0 31 -40 31h-130z" />
    <glyph glyph-name="S.SC" horiz-adv-x="519" 
d="M310 199l-131 55q-85 37 -111.5 64t-26.5 88v92q0 106 133 106h171q132 0 132 -106v-72h-144v20q0 21 -28 21h-91q-29 0 -29 -20v-11q0 -4 0.5 -7t1.5 -6t1.5 -5t3 -4t3.5 -3t5 -2.5t5 -2t6 -2.5t7 -3l131 -56q6 -2 16 -7q38 -17 54.5 -25t35 -21.5t25 -28.5t6.5 -37
v-120q0 -106 -133 -106h-188q-133 0 -133 106v84h144v-32q0 -22 30 -22h107q29 0 29 22v15q0 14 -32 26z" />
    <glyph glyph-name="T.SC" horiz-adv-x="482" 
d="M468 467h-155v-467h-145v467h-154v137h454v-137z" />
    <glyph glyph-name="U.SC" horiz-adv-x="557" 
d="M328 136q38 0 38 28v440h144v-491q0 -113 -142 -113h-180q-141 0 -141 113v491h144v-440q0 -28 38 -28h99z" />
    <glyph glyph-name="V.SC" horiz-adv-x="535" 
d="M340 0h-145l-184 604h154l97 -361q5 -19 5 -60q3 47 6 60l96 361h154z" />
    <glyph glyph-name="W.SC" horiz-adv-x="836" 
d="M338 0h-145l-182 604h146l94 -366q10 -36 11 -55q4 38 8 55l80 365l136 1l79 -366q9 -39 10 -51q1 19 8 50l95 367h147l-182 -604h-146l-76 304q-2 11 -2.5 43.5t-1.5 40.5q-4 -79 -5 -84z" />
    <glyph glyph-name="X.SC" horiz-adv-x="512" 
d="M256 357l100 247h150l-132 -303l132 -301h-151l-99 225l-99 -225h-151l133 301l-136 303h149z" />
    <glyph glyph-name="Y.SC" horiz-adv-x="549" 
d="M348 0h-144v214l-211 390h149l117 -212q14 -34 16 -48q4 25 16 47l112 213h150l-205 -386v-218z" />
    <glyph glyph-name="Z.SC" horiz-adv-x="497" 
d="M465 478l-261 -342h275l-20 -136h-417l-20 125l261 342h-242l-20 137h424z" />
    <glyph glyph-name="a.ital" horiz-adv-x="523" 
d="M475 505v-505h-112l-13 56q-12 -30 -39.5 -43t-79.5 -13h-54q-135 0 -135 125v241q0 145 145 145h54q40 0 62 -8t38 -30v32h134zM341 162v185q-3 43 -51 43h-64q-50 0 -50 -49v-171q0 -49 50 -49h64q47 0 51 41z" />
    </font>
</defs>
</svg>
