<?xml version="1.0" standalone="no"?>
<!DOCTYPE svg PUBLIC "-//W3C//DTD SVG 1.1//EN" "http://www.w3.org/Graphics/SVG/1.1/DTD/svg11.dtd" >
<svg xmlns="http://www.w3.org/2000/svg" xmlns:xlink="http://www.w3.org/1999/xlink" version="1.1">
<metadata>
Created by FontForge 20170731 at Fri Dec 13 16:27:27 2013
 By Aleksey,,,
2013 Iconian Font - www.iconian.com
</metadata>
<defs>
<font id="FederalEscortCondensedItalic" horiz-adv-x="629" >
  <font-face 
    font-family="Federal Escort Condensed Italic"
    font-weight="400"
    font-style="italic"
    font-stretch="condensed"
    units-per-em="1000"
    panose-1="0 0 0 0 0 0 0 0 0 0"
    ascent="800"
    descent="-200"
    x-height="561"
    cap-height="561"
    bbox="-92 -169 1408 794"
    underline-thickness="50"
    underline-position="-175"
    unicode-range="U+0020-2122"
  />
<missing-glyph horiz-adv-x="500" 
 />
    <glyph glyph-name=".notdef" horiz-adv-x="500" 
 />
    <glyph glyph-name=".null" horiz-adv-x="0" 
 />
    <glyph glyph-name="nonmarkingreturn" horiz-adv-x="500" 
 />
    <glyph glyph-name="space" unicode=" " horiz-adv-x="344" 
 />
    <glyph glyph-name="space" unicode="&#xa0;" horiz-adv-x="344" 
 />
    <glyph glyph-name="FL0021h" unicode="!" horiz-adv-x="272" 
d="M72 92q-13 -39 6.5 -65.5t57.5 -26.5q19 0 38.5 7t36.5 19.5t30 29t19 36.5q13 39 -6.5 65.5t-57.5 26.5q-19 0 -38.5 -7t-36.5 -19.5t-30 -29.5t-19 -36zM430 561h-224l-80 -246l-10 -88h188l46 88z" />
    <glyph glyph-name="FL0022h" unicode="&#x22;" horiz-adv-x="403" 
d="M332 369l33 101q6 19 18 35.5t27 29t32.5 19.5t35.5 7q35 0 50.5 -26.5t3.5 -64.5l-33 -101q-6 -19 -18 -35.5t-27.5 -29t-33 -19.5t-34.5 -7q-35 0 -51 26.5t-3 64.5zM144 368l32 101q6 19 18 35.5t27.5 29t33 19.5t35.5 7q34 0 50 -26.5t3 -64.5l-32 -101
q-6 -19 -18 -35.5t-27.5 -29t-33 -19.5t-34.5 -7q-35 0 -51 26.5t-3 64.5z" />
    <glyph glyph-name="FL0023h" unicode="#" horiz-adv-x="671" 
d="M384 251l19 59h68l-19 -59h-68zM741 453l35 108h-224l-35 -108h-68l35 108h-224l-35 -108h-54l-46 -143h54l-19 -59h-54l-47 -143h54l-35 -108h224l35 108h68l-35 -108h224l35 108h53l47 143h-53l19 59h53l46 143h-53z" />
    <glyph glyph-name="FL0024h" unicode="$" horiz-adv-x="614" 
d="M602 631l-31 -96h193l-48 -147h-325q-8 0 -15 -7t-9 -15l-4 -13h240q16 0 31.5 -7.5t26 -20.5t15 -31t-2.5 -39l-28 -85q-8 -24 -25 -49t-38.5 -45.5t-46 -33.5t-46.5 -13h-84l-28 -89h-179l28 89h-193l48 147h325q8 0 15 7t9 15l4 12h-238q-16 0 -30.5 11.5t-24 29.5
t-12.5 40.5t4 45.5l20 61q9 26 25.5 50.5t38 44t45 31t46.5 11.5h84l31 96h179z" />
    <glyph glyph-name="FL0025h" unicode="%" horiz-adv-x="750" 
d="M280 391l17 53q3 7 7 8h25q2 0 2 -3t-1 -5l-17 -53q-2 -6 -6 -6h-25q-4 0 -2 6zM600 111l17 53q3 6 7 8h25q2 0 2.5 -3t-0.5 -5l-17 -53q-3 -6 -7 -6h-25q-4 0 -2 6zM762 280h-183l295 281h-226l-219 -208l44 136q8 26 0 48.5t-31 22.5h-181q-11 0 -23 -6.5t-23 -16.5
t-19.5 -22.5t-12.5 -25.5l-48 -148q-8 -24 3.5 -42.5t28.5 -18.5h185l-294 -280h227l217 207l-47 -146q-8 -24 3.5 -42.5t28.5 -18.5h187q9 0 20 5t21 13.5t18.5 19.5t12.5 23l48 148q8 26 -0.5 48.5t-31.5 22.5z" />
    <glyph glyph-name="FL0026h" unicode="&#x26;" horiz-adv-x="677" 
d="M302 181q5 16 13.5 23t25.5 7h106l-9 -27q-5 -15 -13.5 -26t-16.5 -11h-89q-15 0 -18.5 10t1.5 24zM649 144l21 64h51l46 142h-380q-17 0 -21 6.5t1 23.5q5 14 15 24t25 10h258l47 147h-384q-30 0 -58 -16.5t-51 -41.5t-40.5 -55t-26.5 -57q-9 -28 -11.5 -58.5t9.5 -47.5
q-26 -21 -43 -52t-28 -63q-9 -28 -12.5 -58t2.5 -55t24 -41t52 -16h365q22 0 42.5 11t38.5 30.5t33 46t25 56.5z" />
    <glyph glyph-name="FL0027h" unicode="'" horiz-adv-x="223" 
d="M177 470l-33 -101q-13 -38 4 -64.5t54 -26.5q18 0 36 7t34 19.5t28.5 29t18.5 35.5l33 101q12 38 -5 64.5t-53 26.5q-18 0 -36.5 -7t-34.5 -19.5t-28 -29t-18 -35.5z" />
    <glyph glyph-name="FL0028h" unicode="(" horiz-adv-x="344" 
d="M334 615h186l-48 -147h-54q-8 0 -16 -11t-11 -19l-104 -322q-4 -10 -1.5 -16.5t9.5 -6.5h49l-48 -147h-186q-18 0 -33 10.5t-24.5 27.5t-12 39t5.5 46l131 403q9 26 26 51.5t38.5 46t45.5 33t47 12.5z" />
    <glyph glyph-name="FL0029h" unicode=")" horiz-adv-x="344" 
d="M224 615h186q22 0 38 -12.5t24.5 -33t9 -46t-8.5 -51.5l-131 -403q-8 -24 -24.5 -46t-37 -39t-42.5 -27.5t-40 -10.5h-186l48 147h49q7 0 13.5 6.5t10.5 16.5l104 322q3 8 2 19t-9 11h-54z" />
    <glyph glyph-name="asterisk" unicode="*" horiz-adv-x="230" 
d="M256 444l-38 -53l-46 67l43 37l-36 13l56 96l26 -26l12 50h85l-20 -50l48 24l-4 -95l-52 -12l20 -38l-89 -66z" />
    <glyph glyph-name="FL002Bh" unicode="+" horiz-adv-x="316" 
d="M329 351l31 95h-114l-31 -95h-77l-46 -143h77l-32 -97h114l32 97h77l46 143h-77z" />
    <glyph glyph-name="FL002Ch" unicode="," horiz-adv-x="236" 
d="M54 92l-34 -103q-12 -39 7.5 -65.5t57.5 -26.5q19 0 38.5 7t36.5 19.5t29.5 29t18.5 36.5l34 103q13 39 -6 65.5t-58 26.5q-19 0 -38.5 -7t-36.5 -19.5t-30 -29.5t-19 -36z" />
    <glyph glyph-name="FL002Dh" unicode="-" horiz-adv-x="316" 
d="M138 351l-46 -143h268l46 143h-268z" />
    <glyph glyph-name="FL002Eh" unicode="." horiz-adv-x="236" 
d="M54 92q6 19 19 36t30 29.5t36.5 19.5t38.5 7q39 0 58 -26.5t6 -65.5q-6 -20 -19 -36.5t-30 -29t-36.5 -19.5t-38.5 -7q-38 0 -57.5 26.5t-6.5 65.5z" />
    <glyph glyph-name="FL002Fh" unicode="/" horiz-adv-x="662" 
d="M276 0l554 561h-262l-554 -561h262z" />
    <glyph glyph-name="FL0030h" unicode="0" horiz-adv-x="614" 
d="M302 170l69 212q3 8 11 19t16 13h86q9 0 9 -12t-3 -20l-69 -212q-4 -6 -11.5 -14.5t-12.5 -8.5h-84q-11 0 -11.5 9t0.5 14zM662 561h-346q-23 0 -47 -12.5t-45.5 -33t-38.5 -46t-25 -51.5l-96 -295q-8 -24 -5.5 -46t12 -39t24.5 -27.5t33 -10.5h358q18 0 40 10.5
t42.5 27.5t37 39t24.5 46l96 295q8 26 7.5 51.5t-9 46t-24.5 33t-38 12.5z" />
    <glyph glyph-name="FL0031h" unicode="1" horiz-adv-x="362" 
d="M338 0h-224l135 414h-90l47 147h314z" />
    <glyph glyph-name="FL0032h" unicode="2" horiz-adv-x="614" 
d="M24 0l83 255q7 21 22.5 39t35 31t40 20.5t36.5 7.5h240l10 31q2 8 2 19t-8 11h-325l47 147h456q22 0 38 -11.5t25 -31t9.5 -44t-7.5 -50.5l-29 -87q-7 -23 -24.5 -45.5t-39 -40.5t-43.5 -29.5t-38 -11.5h-237l-20 -63h341l-48 -147h-566z" />
    <glyph glyph-name="FL0033h" unicode="3" horiz-adv-x="580" 
d="M421 350h-283l-45 -139h284q17 0 20.5 -7t-1.5 -23q-5 -14 -14.5 -24t-24.5 -10h-285l-48 -147h411q34 0 62.5 16t50.5 41t38 55t25 58q11 32 14.5 63t-9.5 52q23 17 40 47.5t26 58.5q9 27 10.5 57t-5.5 55t-24 41.5t-47 16.5h-410l-47 -147h284q15 0 18 -10t-2 -24
q-5 -17 -13 -23.5t-25 -6.5z" />
    <glyph glyph-name="FL0034h" unicode="4" horiz-adv-x="741" 
d="M82 180l310 326q5 6 15 15t21.5 18t23 15.5t19.5 6.5h329l-109 -337h99l-47 -143h-99l-26 -81h-223l26 81h-371zM385 224h83l36 111q0 1 -2.5 3t-4.5 4q-7 0 -13 -9z" />
    <glyph glyph-name="FL0035h" unicode="5" horiz-adv-x="614" 
d="M636 141l37 114q7 21 2.5 39t-15 31t-26 20.5t-31.5 7.5h-240l20 61h342l47 147h-566l-73 -224q-7 -23 -4 -45.5t12.5 -40.5t24 -29.5t30.5 -11.5h238l-10 -33q-3 -8 -11 -19t-16 -11h-325l-48 -147h456q22 0 46.5 13t46 33.5t38.5 45.5t25 49z" />
    <glyph glyph-name="FL0036h" unicode="6" 
d="M313 147h99q7 0 13.5 8.5t11.5 14.5l14 41h-134l-14 -41q1 -6 1 -15q0 -8 9 -8zM687 253l-42 -130q-8 -24 -24.5 -46t-37 -39t-42.5 -27.5t-40 -10.5h-373q-18 0 -33 11t-24.5 28t-12 39t5.5 45l96 295q8 26 25 51.5t38.5 46t45.5 33t47 12.5h468l-47 -147h-337
q-8 0 -16.5 -11t-10.5 -19l-3 -2h2l-7 -23h253q16 0 31.5 -8.5t26 -23t14.5 -34t-3 -40.5z" />
    <glyph glyph-name="FL0037h" unicode="7" horiz-adv-x="652" 
d="M91 0h263l409 414l47 147h-604l-47 -147h342z" />
    <glyph glyph-name="FL0038h" unicode="8" horiz-adv-x="615" 
d="M457 350h-71q-17 0 -21 6.5t1 23.5q5 13 13.5 22.5t21.5 11.5h78q15 0 18 -10t-2 -24q-5 -17 -13 -23.5t-25 -6.5zM301 181q8 26 34 30h83q13 -2 16 -9t-2 -21q-10 -30 -35 -34h-79q-15 0 -18.5 10t1.5 24zM652 561h-325q-30 0 -58 -16.5t-51 -41.5t-40.5 -55t-26.5 -57
q-9 -28 -11.5 -58.5t9.5 -47.5q-26 -21 -43 -52t-28 -63q-9 -28 -12.5 -58t2.5 -55t24 -41t52 -16h327q34 0 62.5 16t50.5 41t38 55t25 58q11 32 14.5 63t-9.5 52q23 17 40 47.5t26 58.5q9 27 10.5 57t-5.5 55t-24 41.5t-47 16.5z" />
    <glyph glyph-name="FL0039h" unicode="9" 
d="M499 414h-99q-7 0 -14 -8.5t-12 -14.5l-13 -41h134l13 41v14q0 9 -9 9zM124 308l42 130q8 24 24.5 46t37 39t42.5 27.5t40 10.5h373q18 0 33 -11t24.5 -28t11.5 -39.5t-5 -44.5l-96 -295q-8 -26 -25 -51.5t-39 -46t-46 -33t-46 -12.5h-469l48 147h338q8 0 16 11t11 19
l1 2h-1l8 23h-253q-16 0 -31.5 8.5t-26.5 23t-15 34t3 40.5z" />
    <glyph glyph-name="FL003Ah" unicode=":" horiz-adv-x="236" 
d="M54 92q6 19 19 36t30 29.5t36.5 19.5t38.5 7q39 0 58 -26.5t6 -65.5q-6 -20 -19 -36.5t-30 -29t-36.5 -19.5t-38.5 -7q-38 0 -57.5 26.5t-6.5 65.5zM128 323q6 19 19 36t30 29.5t36.5 19.5t39.5 7q38 0 57 -26.5t6 -65.5q-6 -20 -19 -36.5t-29.5 -29t-36 -19.5t-38.5 -7
q-39 0 -58.5 26.5t-6.5 65.5z" />
    <glyph glyph-name="FL003Bh" unicode=";" horiz-adv-x="236" 
d="M128 323q6 19 19 36t30 29.5t36.5 19.5t39.5 7q38 0 57 -26.5t6 -65.5q-6 -20 -19 -36.5t-29.5 -29t-36 -19.5t-38.5 -7q-39 0 -58.5 26.5t-6.5 65.5zM20 -11l34 103q6 19 19 36t30 29.5t36.5 19.5t38.5 7q39 0 58 -26.5t6 -65.5l-34 -103q-6 -20 -18.5 -36.5t-29.5 -29
t-36.5 -19.5t-38.5 -7q-38 0 -57.5 26.5t-7.5 65.5z" />
    <glyph glyph-name="FL003Ch" unicode="&#x3c;" horiz-adv-x="476" 
d="M200 0l-95 281l276 280h263l-277 -280l95 -281h-262z" />
    <glyph glyph-name="FL003Dh" unicode="=" horiz-adv-x="349" 
d="M171 453l-46 -143h301l46 143h-301zM106 251l-47 -143h301l47 143h-301z" />
    <glyph glyph-name="FL003Eh" unicode="&#x3e;" horiz-adv-x="476" 
d="M275 0l278 281l-95 280h-262l94 -280l-277 -281h262z" />
    <glyph glyph-name="FL003Fh" unicode="?" horiz-adv-x="614" 
d="M140 92q-13 -39 7 -65.5t58 -26.5q19 0 38.5 7t36 19.5t29.5 29t19 36.5q13 39 -6 65.5t-57 26.5q-19 0 -38.5 -7t-36.5 -19.5t-30.5 -29.5t-19.5 -36zM193 255l-13 -41h376q16 0 37.5 11t42.5 28t38.5 39t24.5 45l29 87q8 26 7.5 50.5t-9.5 44t-25 31t-38 11.5h-456
l-47 -147h325q8 0 8 -11t-2 -19l-10 -31h-153q-16 0 -36.5 -7.5t-40 -20.5t-35.5 -31t-23 -39z" />
    <glyph glyph-name="FL0040h" unicode="@" horiz-adv-x="830" 
d="M461 421h181q22 0 30.5 -22.5t0.5 -48.5l-21 -63h16q7 0 14 6.5t10 16.5l41 128q3 8 2 19t-9 11h-319q-8 0 -16 -11t-11 -19l-104 -322q-4 -10 -1 -16.5t9 -6.5h305l-48 -147h-441q-18 0 -33 10.5t-24.5 27.5t-12 39t5.5 46l131 403q9 26 26 51.5t38.5 46t45.5 33
t47 12.5h582q22 0 38 -12.5t24.5 -33t9 -46t-8.5 -51.5l-67 -208q-8 -24 -24.5 -46t-37 -39t-42.5 -27.5t-40 -10.5h-391q-17 0 -28.5 18.5t-3.5 42.5l48 148q4 13 12.5 25.5t19.5 22.5t23 16.5t23 6.5zM497 305l-17 -53q-2 -6 2 -6h24q4 0 7 6l17 53q1 2 1 5t-3 3h-24
q-5 -1 -7 -8z" />
    <glyph glyph-name="FL0041h" unicode="A" 
d="M374 391l-29 -90h134l29 90q0 6 0.5 14.5t-9.5 8.5h-99q-7 0 -14 -8t-12 -14v-1zM605 0h-224l51 158h-134l-51 -158h-223l142 437q7 24 24 46t37.5 39.5t42.5 28t40 10.5h373q18 0 33 -11t24.5 -28.5t11.5 -40t-5 -44.5z" />
    <glyph glyph-name="FL0042h" unicode="B" 
d="M361 350h109q17 0 25 6.5t13 23.5q5 14 2 24t-18 10h-110zM426 211h-110l-21 -64h111q15 0 24.5 10t14.5 24q5 16 1.5 23t-20.5 7zM484 0h-460l182 561h459q30 0 47 -16.5t24 -41.5t5.5 -55t-10.5 -57q-9 -28 -26 -58.5t-40 -47.5q13 -21 9.5 -52t-14.5 -63
q-9 -28 -25 -58t-38.5 -55t-50.5 -41t-62 -16z" />
    <glyph glyph-name="FL0043h" unicode="C" horiz-adv-x="562" 
d="M316 561h404l-47 -147h-273q-8 0 -16.5 -11t-10.5 -19l-70 -214q-2 -10 0.5 -16.5t9.5 -6.5h269l-48 -147h-406q-18 0 -33 10.5t-24.5 27.5t-12 39t5.5 46l96 295q8 26 25 51.5t38.5 46t45.5 33t47 12.5z" />
    <glyph glyph-name="FL0044h" unicode="D" horiz-adv-x="623" 
d="M379 403l-82 -253h82q16 0 28 9t21 23t15.5 31t11.5 32l22 68q4 13 8 29t5 29.5t-2.5 22.5t-14.5 9h-94zM24 0l182 561h487q16 0 28 -12.5t18 -32t6.5 -42.5t-6.5 -43l-104 -321q-6 -18 -19 -37.5t-29.5 -35.5t-33.5 -26.5t-31 -10.5h-498z" />
    <glyph glyph-name="FL0045h" unicode="E" horiz-adv-x="562" 
d="M316 561h404l-47 -147h-273q-8 0 -17 -12t-12 -20q-4 -11 -0.5 -21t13.5 -10h268l-46 -143h-273q-2 0 -11.5 -9t-13.5 -15q-3 -3 -3 -7q-1 -2 -1 -4t-1 -3q1 -6 4.5 -14.5t5.5 -8.5h273l-48 -147h-410q-18 0 -33 10.5t-24.5 27.5t-12 39t5.5 46l96 295q8 26 25 51.5
t38.5 46t45.5 33t47 12.5z" />
    <glyph glyph-name="FL0046h" unicode="F" horiz-adv-x="562" 
d="M316 561h404l-47 -147h-273q-8 0 -17 -12t-12 -20q-4 -11 -0.5 -21t13.5 -10h268l-46 -143h-273q-2 0 -11.5 -9t-13.5 -15l-60 -184h-224l136 418q8 26 25 51.5t38.5 46t45.5 33t47 12.5z" />
    <glyph glyph-name="FL00B9h" unicode="G" 
d="M316 561h404l-47 -147h-273q-8 0 -16.5 -11t-10.5 -19l-3 -2h2l-69 -212q1 -6 1 -15q0 -8 9 -8h99q7 0 13.5 8t11.5 14l69 213h223l-84 -259q-8 -24 -24.5 -46t-37 -39t-42.5 -27.5t-40 -10.5h-373q-18 0 -33 11t-24.5 28t-12 39t5.5 45l96 295q8 26 25 51.5t38.5 46
t45.5 33t47 12.5z" />
    <glyph glyph-name="FL0048h" unicode="H" horiz-adv-x="605" 
d="M538 561h225l-182 -561h-225l68 208h-108l-68 -208h-224l182 561h224l-68 -210h108z" />
    <glyph glyph-name="FL0049h" unicode="I" horiz-adv-x="579" 
d="M72 147l-48 -147h530l48 147h-153l87 267h154l47 147h-530l-47 -147h152l-87 -267h-153z" />
    <glyph glyph-name="FL004Ah" unicode="J" 
d="M303 170l34 103h-224l-49 -150q-8 -23 -5.5 -45t12 -39t24.5 -28t33 -11h373q18 0 40 10.5t42.5 27.5t37 39t24.5 46l142 438h-223l-127 -391q-5 -6 -11.5 -14.5t-13.5 -8.5h-99q-9 0 -9 8q0 9 -1 15z" />
    <glyph glyph-name="FL004Bh" unicode="K" horiz-adv-x="601" 
d="M310 97l-9 67l-53 -164h-224l182 561h224l-65 -202q21 30 40 60.5t47 53.5v2q4 5 17 18t32 27t41.5 26t46.5 15h170l-48 -148h-76q-11 0 -30 -11t-38.5 -27.5t-35.5 -36t-22 -37.5q-9 -29 -5.5 -56.5t16 -49t31.5 -34.5t39 -13h35l-48 -148h-186q-16 0 -28.5 10
t-22.5 24.5t-17.5 31.5t-12.5 31z" />
    <glyph glyph-name="FL004Ch" unicode="L" horiz-adv-x="562" 
d="M70 142l136 419h224l-122 -377q-7 -20 -2.5 -27.5t20.5 -9.5h260l-48 -147h-422q-21 0 -34.5 11t-19.5 30.5t-4 45t12 55.5z" />
    <glyph glyph-name="FL004Dh" unicode="M" horiz-adv-x="887" 
d="M638 0l127 391q0 6 0.5 14.5t-8.5 8.5h-51q-5 0 -11.5 -7t-11.5 -12l-1 -2l-128 -393h-224l127 391q0 6 0.5 14.5t-8.5 8.5h-50q-7 0 -14 -8.5t-12 -14.5l-127 -391h-223l142 438q8 24 24.5 46t37 39t42.5 27.5t40 10.5h631q18 0 33 -11t24.5 -28t11.5 -39.5t-5 -44.5
l-142 -438h-224z" />
    <glyph glyph-name="FL004Eh" unicode="N" 
d="M508 391l-127 -391h224l142 438q7 22 5 44.5t-11.5 39.5t-24.5 28t-33 11h-477l-182 -561h223l135 414h117q9 0 9 -9v-14z" />
    <glyph glyph-name="FL004Fh" unicode="O" 
d="M302 170l69 212q3 8 11 19t16 13h101q9 0 9.5 -12t-2.5 -20l-69 -212q-5 -6 -12.5 -14.5t-12.5 -8.5h-99q-11 0 -11.5 9t0.5 14zM677 561h-361q-23 0 -47 -12.5t-45.5 -33t-38.5 -46t-25 -51.5l-96 -295q-8 -24 -5.5 -46t12 -39t24.5 -27.5t33 -10.5h373q18 0 40 10.5
t42.5 27.5t37 39t24.5 46l96 295q8 26 7.5 51.5t-9 46t-24.5 33t-38 12.5z" />
    <glyph glyph-name="FL0050h" unicode="P" 
d="M382 414l-36 -110h106q8 0 16 5.5t15 14t12 18.5t8 18q2 7 3.5 16t1 17.5t-4 14.5t-10.5 6h-111zM24 0l182 561h460q34 0 50.5 -20.5t21 -50t0 -63.5t-13.5 -61q-12 -38 -30.5 -75.5t-42.5 -67t-53 -48t-62 -18.5h-238l-51 -157h-223z" />
    <glyph glyph-name="FL0051h" unicode="Q" horiz-adv-x="630" 
d="M455 226l-18 -56q-4 -6 -9 -14.5t-14 -8.5h-102q-2 0 -4.5 8.5t-3.5 14.5l69 212q3 8 11 20t17 12h101q8 -2 8 -13t-3 -19q-2 -2 -5 -13l-4 -13l-8 -23l-13 -42zM126 0h-156l-48 -149h312q19 0 41 10t43.5 25.5t41.5 35t35 38.5l31 40h76q18 0 40 10.5t42.5 27.5t37 39
t24.5 46l96 295q8 26 7.5 51.5t-8.5 46t-24 33t-38 12.5h-362q-23 0 -46.5 -12.5t-45 -33t-38.5 -46t-25 -51.5l-96 -295q-8 -23 -6 -44.5t11 -38.5t23.5 -28t31.5 -12z" />
    <glyph glyph-name="FL0052h" unicode="R" horiz-adv-x="647" 
d="M382 414l-36 -110h106q8 0 16 6t15 14.5t12 18.5t8 18q2 7 3.5 16t1 17.5t-4 14t-10.5 5.5h-111zM24 0l182 561h468q34 0 51 -16t21.5 -41t-0.5 -55t-14 -58q-8 -24 -21 -52t-29 -52.5t-34.5 -40.5t-37.5 -16q-2 -2 -4.5 -5.5t-3.5 -7.5q-3 -7 -2 -8l59 -209h-277
l-33 123q-5 14 -13.5 24t-22.5 10h-2l-10 -4t-5 -3l-49 -150h-223z" />
    <glyph glyph-name="FL005Ah" unicode="S" horiz-adv-x="614" 
d="M636 141l37 114q7 21 2.5 39t-15 31t-26 20.5t-31.5 7.5h-240l10 31q2 8 10.5 19t16.5 11h325l47 147h-456q-23 0 -46.5 -11.5t-44.5 -31t-38 -44t-25 -50.5l-29 -87q-7 -23 -4 -45.5t12.5 -40.5t24 -29.5t30.5 -11.5h238l-10 -33q-3 -8 -11 -19t-16 -11h-325l-48 -147
h456q22 0 46.5 13t46 33.5t38.5 45.5t25 49z" />
    <glyph glyph-name="FL0055h" unicode="T" horiz-adv-x="599" 
d="M206 561h551l-47 -147h-165l-135 -414h-224l135 414h-162z" />
    <glyph glyph-name="FL0056h" unicode="U" 
d="M303 170l127 391h-224l-142 -438q-8 -23 -5.5 -45t12 -39t24.5 -28t33 -11h477l182 561h-223l-134 -414h-117q-9 0 -9 8q0 9 -1 15z" />
    <glyph glyph-name="FL0057h" unicode="V" horiz-adv-x="739" 
d="M432 54l476 507h-263l-302 -331q-5 -5 -8 -8.5t-7 -3.5q-2 2 -5 4t-3 3l109 335h-223l-182 -561h330q8 0 19.5 6.5t23 15.5t21 18.5z" />
    <glyph glyph-name="FL0059h" unicode="W" horiz-adv-x="887" 
d="M632 561h-17l-276 -279l90 279h-224l-182 -561h283q9 0 26 11.5t37 29.5t41.5 39t39.5 40t31 33.5t16 18.5h2v-3q2 -9 9.5 -36.5t18 -57t23 -52.5t24.5 -23h288l182 561h-224l-90 -279z" />
    <glyph glyph-name="FL0058h" unicode="X" horiz-adv-x="601" 
d="M24 0h101q23 0 46.5 5t48.5 22q19 13 41 31.5t46 47.5q1 -2 1.5 -4t1.5 -5q5 -14 12.5 -31t17.5 -31.5t22.5 -24.5t28.5 -10h186l48 148h-35q-20 0 -38 16t-29.5 40.5t-15 53t4.5 52.5q4 12 17.5 29.5t30 34t31.5 28t21 11.5h99l48 148h-170q-24 -7 -46 -23.5t-39 -33
t-27 -29t-11 -12.5q-4 10 -7.5 26.5t-11 32.5t-20.5 27.5t-35 11.5h-186l-48 -148h32q2 0 10 -0.5t17.5 -3t19 -7.5t14.5 -14q14 -27 21.5 -56t14.5 -58q-10 -20 -31 -41.5t-43.5 -40.5t-42.5 -31t-27 -12h-71z" />
    <glyph glyph-name="FL007Ch" unicode="Y" horiz-adv-x="618" 
d="M552 561h224l-135 -417q-10 -30 -25 -56.5t-33.5 -46t-38.5 -30.5t-41 -11h-475l48 147h313q17 2 25.5 9.5t15.5 27.5l7 23h-242q-18 0 -33 11t-24 28t-11.5 39t4.5 45l75 231h224l-60 -187v-15q0 -9 9 -9h89q5 0 11.5 8t11.5 14z" />
    <glyph glyph-name="FL007Bh" unicode="Z" horiz-adv-x="746" 
d="M770 148l-48 -148h-292q-19 0 -34.5 9.5t-27 25.5t-19 35.5t-8.5 39.5l-29 239q-1 8 -3.5 19t-6 21.5t-9.5 17.5t-13 7h-121l47 147h285q17 0 31 -11.5t24.5 -28t16.5 -35.5t8 -34l28 -233q0 -7 2 -19t6 -23.5t10 -20t13 -8.5h140z" />
    <glyph glyph-name="FL005Bh" unicode="[" horiz-adv-x="344" 
d="M520 615h-296l-218 -669h290l48 147h-65l122 375h71z" />
    <glyph glyph-name="FL005Ch" unicode="\" horiz-adv-x="662" 
d="M385 0l-190 561h262l190 -561h-262z" />
    <glyph glyph-name="FL005Dh" unicode="]" horiz-adv-x="344" 
d="M224 615h296l-218 -669h-290l48 147h65l122 375h-71z" />
    <glyph glyph-name="FL005Eh" unicode="^" horiz-adv-x="740" 
d="M578 506l148 -507h-263l-88 334q-1 9 -6 9q-4 -2 -8.5 -4t-4.5 -3l-109 -335h-223l182 561h330q9 0 16 -6.5t12 -15.5t8.5 -18.5t5.5 -14.5z" />
    <glyph glyph-name="FL005Fh" unicode="_" horiz-adv-x="471" 
d="M495 147l-48 -147h-423l48 147h423z" />
    <glyph glyph-name="FL0061h" unicode="`" horiz-adv-x="1169" 
d="M710 414h-165l-135 -414h-224l135 414h-162l47 147h551zM443 0l476 507q5 6 15 15t21.5 18t23 15.5t19.5 6.5h330l-183 -561h-223l109 335q0 1 -3 3t-5 4q-5 0 -6 -2t-6 -7l-305 -334h-263z" />
    <glyph glyph-name="a" unicode="a" horiz-adv-x="739" 
d="M14 -1l475 507q5 6 15 15t21.5 18t23 15.5t19.5 6.5h329l-182 -561h-223l109 335q0 1 -3 3t-5 4q-6 0 -12 -9l-305 -334h-262z" />
    <glyph glyph-name="FL0062h" unicode="b" 
d="M361 350h109q17 0 25 6.5t13 23.5q5 14 2 24t-18 10h-110zM426 211h-110l-21 -64h111q15 0 24.5 10t14.5 24q5 16 1.5 23t-20.5 7zM484 0h-460l182 561h459q30 0 47 -16.5t24 -41.5t5.5 -55t-10.5 -57q-9 -28 -26 -58.5t-40 -47.5q13 -21 9.5 -52t-14.5 -63
q-9 -28 -25 -58t-38.5 -55t-50.5 -41t-62 -16z" />
    <glyph glyph-name="FL0063h" unicode="c" horiz-adv-x="562" 
d="M720 561h-404q-23 0 -47 -12.5t-45.5 -33t-38.5 -46t-25 -51.5l-96 -295q-8 -24 -5.5 -46t12 -39t24.5 -27.5t33 -10.5h406l48 147h-269q-7 0 -9.5 6.5t-0.5 16.5l70 214q2 8 10.5 19t16.5 11h273z" />
    <glyph glyph-name="d" unicode="d" horiz-adv-x="623" 
d="M379 403l-82 -253h82q16 0 28 9t21 23t15.5 31t11.5 32l22 68q4 13 8 29t5 29.5t-2.5 22.5t-14.5 9h-94zM24 0l182 561h487q16 0 28 -12.5t18 -32t6.5 -42.5t-6.5 -43l-104 -321q-6 -18 -19 -37.5t-29.5 -35.5t-33.5 -26.5t-31 -10.5h-498z" />
    <glyph glyph-name="E" unicode="e" horiz-adv-x="562" 
d="M720 561h-404q-23 0 -47 -12.5t-45.5 -33t-38.5 -46t-25 -51.5l-96 -295q-8 -24 -5.5 -46t12 -39t24.5 -27.5t33 -10.5h410l48 147h-273q-2 0 -5.5 8.5t-4.5 14.5q1 1 1 3t1 4q0 4 3 7q4 6 13.5 15t11.5 9h273l46 143h-268q-10 0 -13.5 10t0.5 21q3 8 12 20t17 12h273z
" />
    <glyph glyph-name="FL0066h" unicode="f" horiz-adv-x="562" 
d="M720 561h-404q-23 0 -47 -12.5t-45.5 -33t-38.5 -46t-25 -51.5l-136 -418h224l60 184q4 6 13.5 15t11.5 9h273l46 143h-268q-10 0 -13.5 10t0.5 21q3 8 12 20t17 12h273z" />
    <glyph glyph-name="FL0067h" unicode="g" 
d="M687 253l-42 -130q-8 -24 -24.5 -46t-37 -39t-42.5 -27.5t-40 -10.5h-373q-18 0 -33 11t-24.5 28t-12 39t5.5 45l96 295q8 26 25 51.5t38.5 46t45.5 33t47 12.5h468l-47 -147h-337q-8 0 -16.5 -11t-10.5 -19l-3 -2h2l-69 -212q1 -6 1 -15q0 -8 9 -8h99q7 0 13.5 8.5
t11.5 14.5l14 41h-89l48 148h208q16 0 31.5 -8.5t26 -23t14.5 -34t-3 -40.5z" />
    <glyph glyph-name="FL0068h" unicode="h" horiz-adv-x="605" 
d="M538 561h225l-182 -561h-225l68 208h-108l-68 -208h-224l182 561h224l-68 -210h108z" />
    <glyph glyph-name="FL0069h" unicode="i" horiz-adv-x="272" 
d="M206 561h224l-182 -561h-224z" />
    <glyph glyph-name="FL006Ah" unicode="j" horiz-adv-x="562" 
d="M585 144l135 417h-224l-122 -377q-7 -20 -16 -27.5t-26 -9.5h-260l-48 -147h423q22 0 42.5 11t38.5 30.5t32.5 46t24.5 56.5z" />
    <glyph glyph-name="FL006Bh" unicode="k" horiz-adv-x="601" 
d="M310 97l-9 67l-53 -164h-224l182 561h224l-65 -202q21 30 40 60.5t47 53.5v2q4 5 17 18t32 27t41.5 26t46.5 15h170l-48 -148h-76q-11 0 -30 -11t-38.5 -27.5t-35.5 -36t-22 -37.5q-9 -29 -5.5 -56.5t16 -49t31.5 -34.5t39 -13h35l-48 -148h-186q-16 0 -28.5 10
t-22.5 24.5t-17.5 31.5t-12.5 31z" />
    <glyph glyph-name="l" unicode="l" horiz-adv-x="562" 
d="M206 561l-136 -419q-10 -30 -12 -55.5t4 -45t19.5 -30.5t34.5 -11h422l48 147h-260q-16 2 -20.5 9.5t2.5 27.5l122 377h-224z" />
    <glyph glyph-name="FL006Dh" unicode="m" horiz-adv-x="887" 
d="M454 0h-18l-97 279l-91 -279h-224l182 561h288q12 0 24.5 -23t23 -52.5t18 -57t9.5 -36.5v-3h2q3 4 16 18.5t31 33.5t40 40t42 39t37 29.5t26 11.5h282l-182 -561h-224l91 279z" />
    <glyph glyph-name="FL0071h" unicode="n" horiz-adv-x="735" 
d="M671 561h222l-182 -561h-257q-18 0 -31.5 10t-23 25t-15.5 33.5t-10 35.5l-35 175l-91 -279h-224l182 561h275q13 0 25 -11t21 -26.5t15 -33t8 -30.5l28 -185z" />
    <glyph glyph-name="FL006Fh" unicode="o" 
d="M316 561h361q22 0 38 -12.5t24.5 -33t9 -46t-7.5 -51.5l-96 -295q-8 -24 -24.5 -46t-37 -39t-42.5 -27.5t-40 -10.5h-373q-18 0 -33 10.5t-24.5 27.5t-12 39t5.5 46l96 295q8 26 25 51.5t38.5 46t45.5 33t47 12.5zM371 382l-69 -212q-1 -5 -0.5 -14t11.5 -9h99
q5 0 12.5 8.5t12.5 14.5l69 212q3 8 2.5 20t-9.5 12h-101q-8 -2 -16 -13t-11 -19z" />
    <glyph glyph-name="FL0070h" unicode="p" 
d="M206 561l-182 -561h223l51 157h238q33 0 62 18.5t53 48t42.5 67t30.5 75.5q9 27 13.5 61t0 63.5t-21 50t-50.5 20.5h-460zM346 304l36 110h111q7 0 10.5 -6t4 -14.5t-1 -17.5t-3.5 -16q-3 -8 -8 -18t-12 -18.5t-15 -14t-16 -5.5h-106z" />
    <glyph glyph-name="FL0072h" unicode="q" 
d="M660 0h-155q18 1 39 12t41 28t36 38.5t24 44.5l96 295q8 26 7.5 51.5t-9 46t-24.5 33t-38 12.5h-361q-23 0 -47 -12.5t-45.5 -33t-38.5 -46t-25 -51.5l-96 -295q-8 -24 -5.5 -46t12 -39t24.5 -27.5t33 -10.5h77l4 -40q3 -19 10.5 -38.5t19 -35t27 -25.5t34.5 -10h312z
M303 170l18 56l22 65l13 42l8 23l4 13q4 12 3 13q3 8 11 19t16 13h101q9 0 9.5 -12t-2.5 -20l-69 -212q-5 -6 -13 -14.5t-10 -8.5h-101q-9 0 -9 8q0 9 -1 15z" />
    <glyph glyph-name="r" unicode="r" horiz-adv-x="647" 
d="M382 414l-36 -110h106q8 0 16 6t15 14.5t12 18.5t8 18q2 7 3.5 16t1 17.5t-4 14t-10.5 5.5h-111zM24 0l182 561h468q34 0 51 -16t21.5 -41t-0.5 -55t-14 -58q-8 -24 -21 -52t-29 -52.5t-34.5 -40.5t-37.5 -16q-2 -2 -4.5 -5.5t-3.5 -7.5q-3 -7 -2 -8l59 -209h-277
l-33 123q-5 14 -13.5 24t-22.5 10h-2l-10 -4t-5 -3l-49 -150h-223z" />
    <glyph glyph-name="s" unicode="s" horiz-adv-x="720" 
d="M24 0l48 148h118q7 0 17 7.5t21 18t21 22t16 19.5l182 237q7 9 25 27.5t40.5 36.5t45 31.5t39.5 13.5h281l-47 -147h-117q-7 0 -18 -7t-22.5 -17.5t-21 -21.5t-14.5 -19l-183 -239q-15 -19 -34.5 -38.5t-41 -35.5t-43.5 -26t-42 -10h-270z" />
    <glyph glyph-name="FL0074h" unicode="t" horiz-adv-x="599" 
d="M757 561h-551l-47 -147h162l-135 -414h224l135 414h165z" />
    <glyph glyph-name="FL0075h" unicode="u" 
d="M303 170l127 391h-224l-142 -438q-8 -23 -5.5 -45t12 -39t24.5 -28t33 -11h373q18 0 40 10.5t42.5 27.5t37 39t24.5 46l142 438h-223l-127 -392q-5 -6 -11.5 -14t-13.5 -8h-99q-9 0 -9 8q0 9 -1 15z" />
    <glyph glyph-name="FL0076h" unicode="v" horiz-adv-x="739" 
d="M196 561l147 -507q1 -5 5 -14.5t9 -18.5t12.5 -15.5t16.5 -6.5h329l182 561h-223l-109 -335q0 -1 -4 -3l-8 -4q-5 0 -7 12l-88 331h-262z" />
    <glyph glyph-name="FL0077h" unicode="w" horiz-adv-x="887" 
d="M430 561l-127 -391q1 -6 1 -15q0 -8 9 -8h50q5 0 11.5 7t10.5 12l2 2l127 393h225l-127 -391v-15q0 -8 9 -8h49q7 0 14 8.5t11 14.5l127 391h223l-142 -438q-8 -24 -24.5 -46t-37 -39t-42.5 -27.5t-40 -10.5h-631q-18 0 -33 11t-24.5 28t-12 39t5.5 45l142 438h224z" />
    <glyph glyph-name="x" unicode="x" horiz-adv-x="601" 
d="M125 0h-101l48 149h71q7 0 27 12t42.5 31t43.5 40.5t31 41.5q-7 29 -14.5 58t-21.5 56q-5 9 -14.5 14t-19 7.5t-17.5 3t-10 0.5h-32l48 148h186q22 0 35 -11.5t20.5 -27.5t11 -32.5t7.5 -26.5q1 0 11 12.5t27 29t39 33t46 23.5h170l-48 -148h-99q-6 0 -21 -11.5
t-31.5 -28t-30 -34t-17.5 -29.5q-8 -24 -4.5 -52.5t15 -53t29.5 -40.5t38 -16h35l-48 -148h-186q-16 0 -28.5 10t-22.5 24.5t-17.5 31.5t-12.5 31q-1 3 -1.5 5t-1.5 4q-24 -29 -46 -47.5t-41 -31.5q-25 -17 -48.5 -22t-46.5 -5z" />
    <glyph glyph-name="FL0079h" unicode="y" horiz-adv-x="601" 
d="M711 413l48 148h-175q-24 -8 -46 -24.5t-38.5 -33.5t-26.5 -30t-11 -13q-5 10 -9 27t-11.5 33.5t-20 28.5t-34.5 12h-181l-48 -148h32q2 0 9.5 -1t16.5 -4t18 -9.5t15 -18.5q6 -11 12 -20.5t10.5 -21t7 -24.5t0.5 -30l-92 -284h224l98 302q6 17 22 35t35 33.5t37 27
t26 15.5h82z" />
    <glyph glyph-name="FL007Dh" unicode="z" horiz-adv-x="719" 
d="M695 0l48 148h-117q-8 0 -13.5 8.5t-9.5 20t-6 23.5t-3 19l-27 233q-2 9 -8.5 27.5t-17 36.5t-24 31.5t-30.5 13.5h-281l-47 -147h116q8 0 13.5 -7t9.5 -17.5t6.5 -21.5t3.5 -19l29 -239q1 -19 8.5 -38.5t19 -35.5t27.5 -26t35 -10h268z" />
    <glyph glyph-name="FL0060h" unicode="{" horiz-adv-x="1190" 
d="M24 0l48 148h118q7 0 17 7.5t21 18t21 22t16 19.5l182 237q7 9 25 27.5t40.5 36.5t45 31.5t39.5 13.5h281l-47 -147h-117q-7 0 -18 -7t-22.5 -17.5t-21 -21.5t-14.5 -19l-183 -239q-15 -19 -34.5 -38.5t-41 -35.5t-43.5 -26t-42 -10h-270zM494 0l48 148h117q7 0 17.5 7.5
t21 18t20.5 22t17 19.5l182 237q7 9 25 27.5t40.5 36.5t45 31.5t39.5 13.5h281l-47 -147h-117q-7 0 -18 -7t-22.5 -17.5t-21.5 -21.5t-15 -19l-182 -239q-15 -19 -34.5 -38.5t-41 -35.5t-44 -26t-42.5 -10h-269z" />
    <glyph glyph-name="FL007Eh" unicode="|" horiz-adv-x="272" 
d="M485 730h-224l-292 -899h224z" />
    <glyph glyph-name="FL0083h" unicode="}" horiz-adv-x="1230" 
d="M24 0l48 148h118q7 0 17 7.5t21 18t21 22t16 19.5l182 237q7 9 25 27.5t40.5 36.5t45 31.5t39.5 13.5h281l-47 -147h-117q-7 0 -18 -7t-22.5 -17.5t-21 -21.5t-14.5 -19l-183 -239q-15 -19 -34.5 -38.5t-41 -35.5t-43.5 -26t-42 -10h-270zM504 0l476 507q5 6 15 15
t21.5 18t23 15.5t19.5 6.5h330l-183 -561h-224l109 335q0 1 -2.5 3t-4.5 4q-5 0 -6.5 -2t-5.5 -7l-306 -334h-262z" />
    <glyph glyph-name="FL0082h" unicode="~" horiz-adv-x="1173" 
d="M710 414h-165l-135 -414h-224l135 414h-162l47 147h551zM477 0l48 148h117q7 0 17.5 7.5t21.5 18t21 22t16 19.5l182 237q7 9 25 27.5t40.5 36.5t45 31.5t39.5 13.5h281l-47 -147h-117q-7 0 -18 -7t-22.5 -17.5t-21 -21.5t-14.5 -19l-183 -239q-15 -19 -34.5 -38.5
t-41 -35.5t-44 -26t-42.5 -10h-269z" />
    <glyph glyph-name="FL007Fh" horiz-adv-x="189" 
 />
    <glyph glyph-name="FL20ACh" horiz-adv-x="646" 
d="M141 359h94l19 59q8 26 25 51.5t38.5 46t45.5 33t47 12.5h394l-47 -147h-263q-8 0 -16.5 -11t-10.5 -19l-8 -25h145l-21 -64h-145l-11 -32h145l-20 -64h-145l-10 -29q-2 -10 0.5 -16.5t9.5 -6.5h258l-48 -147h-395q-18 0 -33 10.5t-24.5 27.5t-12 39t5.5 46l25 76h-94
l20 64h94l11 32h-94z" />
    <glyph glyph-name="FL20ACh" unicode="&#x20ac;" horiz-adv-x="646" 
d="M141 359h94l19 59q8 26 25 51.5t38.5 46t45.5 33t47 12.5h394l-47 -147h-263q-8 0 -16.5 -11t-10.5 -19l-8 -25h145l-21 -64h-145l-11 -32h145l-20 -64h-145l-10 -29q-2 -10 0.5 -16.5t9.5 -6.5h258l-48 -147h-395q-18 0 -33 10.5t-24.5 27.5t-12 39t5.5 46l25 76h-94
l20 64h94l11 32h-94z" />
    <glyph glyph-name="FL017Fh" horiz-adv-x="1190" 
d="M1166 0l48 148h-118q-7 0 -12 7.5t-9 18t-7 22t-4 19.5l-27 237q-2 9 -8.5 27.5t-17 36.5t-25 31.5t-30.5 13.5h-280l-47 -147h116q7 0 13.5 -7t10.5 -17.5t6.5 -21.5t2.5 -19l28 -239q2 -19 9 -38.5t19 -35.5t27.5 -26t34.5 -10h270zM696 0l48 148h-118q-7 0 -12 7.5
t-9 18t-6.5 22t-3.5 19.5l-28 237q-1 9 -7.5 27.5t-17 36.5t-25 31.5t-30.5 13.5h-281l-47 -147h117q7 0 13 -7t10.5 -17.5t6.5 -21.5t2 -19l29 -239q1 -19 8.5 -38.5t19 -35.5t27 -26t34.5 -10h270z" />
    <glyph glyph-name="FL017Fh" unicode="&#x17d;" horiz-adv-x="1190" 
d="M1166 0l48 148h-118q-7 0 -12 7.5t-9 18t-7 22t-4 19.5l-27 237q-2 9 -8.5 27.5t-17 36.5t-25 31.5t-30.5 13.5h-280l-47 -147h116q7 0 13.5 -7t10.5 -17.5t6.5 -21.5t2.5 -19l28 -239q2 -19 9 -38.5t19 -35.5t27.5 -26t34.5 -10h270zM696 0l48 148h-118q-7 0 -12 7.5
t-9 18t-6.5 22t-3.5 19.5l-28 237q-1 9 -7.5 27.5t-17 36.5t-25 31.5t-30.5 13.5h-281l-47 -147h117q7 0 13 -7t10.5 -17.5t6.5 -21.5t2 -19l29 -239q1 -19 8.5 -38.5t19 -35.5t27 -26t34.5 -10h270z" />
    <glyph glyph-name="FL017Eh" horiz-adv-x="720" 
d="M696 0l48 148h-118q-7 0 -12 7.5t-9 18t-6.5 22t-3.5 19.5l-28 237q-1 10 -7 28t-16.5 36t-25 31.5t-31.5 13.5h-281l-47 -147h117q7 0 13 -7t10.5 -17.5t6.5 -21.5t2 -19l29 -239q1 -19 8.5 -38.5t19 -35.5t27 -26t34.5 -10h270zM579 792h-136l48 -166h142l154 166h-135
l-57 -64z" />
    <glyph glyph-name="FL017Eh" unicode="&#x17e;" horiz-adv-x="720" 
d="M696 0l48 148h-118q-7 0 -12 7.5t-9 18t-6.5 22t-3.5 19.5l-28 237q-1 10 -7 28t-16.5 36t-25 31.5t-31.5 13.5h-281l-47 -147h117q7 0 13 -7t10.5 -17.5t6.5 -21.5t2 -19l29 -239q1 -19 8.5 -38.5t19 -35.5t27 -26t34.5 -10h270zM579 792h-136l48 -166h142l154 166h-135
l-57 -64z" />
    <glyph glyph-name="FL00A1h" unicode="&#xa1;" horiz-adv-x="272" 
d="M248 0h-224l80 246l47 88h188l-11 -88zM382 469q-6 -20 -19 -36.5t-30 -29t-36.5 -19.5t-38.5 -7q-38 0 -57.5 26.5t-6.5 65.5q6 19 19 36t30 29.5t36.5 19.5t38.5 7q38 0 57.5 -26.5t6.5 -65.5z" />
    <glyph glyph-name="FL00A2h" unicode="&#xa2;" horiz-adv-x="614" 
d="M647 176h-324q-5 0 -6 3t-1 7v7q0 4 -3 5l56 170q2 8 8 14t14 6h325l48 147h-152l31 96h-179l-31 -96h-125q-23 0 -46.5 -11.5t-45 -31t-38 -44t-25.5 -50.5l-74 -228q-8 -24 -7.5 -49t9 -45.5t24 -33.5t38.5 -13h127l-28 -89h179l28 89h150z" />
    <glyph glyph-name="FL00A3h" unicode="&#xa3;" horiz-adv-x="574" 
d="M138 351h84q2 10 4.5 20t5.5 20q9 27 26.5 57t40.5 55t51 41.5t58 16.5h175l-47 -147h-49q-15 0 -25 -10t-15 -24q-5 -17 -1 -23.5t21 -6.5h110l-45 -139h-111q-17 0 -25.5 -7t-13.5 -23q-5 -14 -1.5 -24t18.5 -10h199l-48 -147h-526l48 147h81q-1 1 2 11l4 12
q7 20 15 38h-82z" />
    <glyph glyph-name="FL00BDh" unicode="&#xa4;" horiz-adv-x="662" 
d="M12 0h262l83 83l28 -83h262l-95 281l276 280h-262l-80 -82l-29 82h-262l94 -280zM418 369h71q14 0 20.5 -14t1.5 -30l-27 -82q-5 -14 -19.5 -26t-27.5 -12h-75q-12 0 -19.5 12t-2.5 26l27 82q5 16 20.5 30t30.5 14z" />
    <glyph glyph-name="FL00A5h" unicode="&#xa5;" horiz-adv-x="601" 
d="M160 289h120q2 32 -8.5 51.5t-22.5 39.5q-6 12 -15 18.5t-18 9.5t-16.5 4t-9.5 1h-32l48 148h181q22 0 34.5 -12t20 -28.5t11.5 -33.5t9 -27q1 0 11 13t26.5 30t38.5 33.5t46 24.5h175l-48 -148h-82q-8 -4 -26 -15.5t-37 -27t-35 -33.5t-22 -35l-4 -13h119l-21 -64h-119
l-22 -67h119l-20 -64h-119l-31 -94h-224l31 94h-121l20 64h121l22 67h-121z" />
    <glyph glyph-name="FL00B8h" unicode="&#xa6;" horiz-adv-x="272" 
d="M471 685h-224l-261 -803h224z" />
    <glyph glyph-name="FL00A7h" unicode="&#xa7;" horiz-adv-x="662" 
d="M12 0h262l554 561h-262zM418 369h71q14 0 20.5 -14t1.5 -30l-27 -82q-5 -14 -19.5 -26t-27.5 -12h-75q-12 0 -19.5 12t-2.5 26l27 82q5 16 20.5 30t30.5 14z" />
    <glyph glyph-name="FL00A8h" unicode="&#xa8;" horiz-adv-x="386" 
d="M177 482q5 17 16 31.5t25 25.5t30 17.5t33 6.5q34 0 49 -23.5t4 -57.5q-12 -35 -42.5 -58.5t-63.5 -23.5t-48 23.5t-3 58.5zM523 482q-12 -35 -42.5 -58.5t-63.5 -23.5t-48 23.5t-3 58.5q11 34 40.5 57.5t63.5 23.5t49 -23.5t4 -57.5z" />
    <glyph glyph-name="copyright" unicode="&#xa9;" horiz-adv-x="218" 
d="M313 629q22 0 39 -14q16 -13 21 -41q3 -27 -7 -56q-9 -27 -29 -54q-11 -14 -22 -24t-25 -18q-24 -7 -35.5 -10.5t-12.5 -3.5q-24 0 -40 14q-15 16 -19 42q-4 24 5 54q5 15 12.5 28.5t18.5 27.5q18 26 47 41q25 14 47 14zM308 611q-19 0 -40.5 -11.5t-38.5 -34.5
q-9 -11 -15 -23t-11 -24q-7 -21 -4 -45q0 -18 16 -34q13 -12 33 -12q18 0 41 12q17 10 38 34q8 11 13.5 22.5t9.5 22.5q9 23 7 47q-3 22 -17 34q-12 12 -32 12zM301 501l12 -5q-11 -19 -25.5 -30t-30.5 -11q-21 0 -29 16.5t2 46.5q11 31 29 47t40 16q31 0 28 -35l-15 -4
q-2 23 -18 23q-15 0 -27.5 -12t-20.5 -35q-14 -45 16 -45q24 0 39 28z" />
    <glyph glyph-name="FL00AAh" unicode="&#xaa;" horiz-adv-x="338" 
d="M324 547h48q1 0 1 -3l-13 -40h-54l12 37q1 6 6 6zM309 349h118l70 215q8 24 -3 44.5t-31 20.5h-181q-9 0 -20.5 -5.5t-22 -14.5t-19.5 -21t-13 -24l-70 -215h118l25 76h54z" />
    <glyph glyph-name="FL00ABh" unicode="&#xab;" horiz-adv-x="450" 
d="M473 279l75 67l-48 101l-189 -168l80 -169l114 101zM267 279l75 67l-48 101l-189 -168l80 -169l114 101z" />
    <glyph glyph-name="FL00ACh" unicode="&#xac;" horiz-adv-x="316" 
d="M406 351h-268l-46 -143h154l-32 -97h114z" />
    <glyph glyph-name="FL00ADh" unicode="&#xad;" horiz-adv-x="284" 
d="M138 351l-46 -143h236l46 143h-236z" />
    <glyph glyph-name="registered" unicode="&#xae;" horiz-adv-x="218" 
d="M313 629q22 0 39 -14q16 -13 21 -41q3 -27 -7 -56q-9 -27 -29 -54q-11 -14 -22 -24t-25 -18q-24 -7 -35.5 -10.5t-12.5 -3.5q-24 0 -40 14q-15 16 -19 42q-4 24 5 54q5 15 12.5 28.5t18.5 27.5q18 26 47 41q25 14 47 14zM308 611q-19 0 -40.5 -11.5t-38.5 -34.5
q-9 -11 -15 -23t-11 -24q-7 -21 -4 -45q0 -18 16 -34q13 -12 33 -12q18 0 41 12q17 10 38 34q8 11 13.5 22.5t9.5 22.5q9 23 7 47q-3 22 -17 34q-12 12 -32 12zM219 458l38 119h32q20 0 24 -4q8 -5 8 -11q2 -6 -1 -18q-5 -13 -15 -22.5t-23 -10.5q6 -4 8 -10.5t4 -19.5
l5 -23h-19l-2 18q-3 23 -8 28q-1 4 -11 4h-8l-16 -50h-16zM256 524h18q14 0 20.5 5t8.5 13q5 12 -3 17q0 1 -16 1h-16z" />
    <glyph glyph-name="FL00B3h" unicode="&#xaf;" horiz-adv-x="471" 
d="M629 560l-48 -147h-423l48 147h423z" />
    <glyph glyph-name="FL00B1h" unicode="&#xb0;" horiz-adv-x="197" 
d="M176 480q-11 -35 3.5 -58.5t47.5 -23.5q16 0 33 6t31 17t25 26t17 33q11 34 -4 57.5t-49 23.5q-33 0 -63 -23.5t-41 -57.5zM226 480q3 9 13 15t22 6q11 0 17 -6t3 -15t-13 -15.5t-21 -6.5q-12 0 -18 6.5t-3 15.5z" />
    <glyph glyph-name="FL00B2h" unicode="&#xb1;" horiz-adv-x="316" 
d="M351 419l31 95h-114l-31 -95h-77l-46 -143h77l-32 -97h114l32 97h77l46 143h-77zM339 143h-268l-46 -143h268z" />
    <glyph glyph-name="FL00B6h" unicode="&#xb2;" horiz-adv-x="331" 
d="M137 349l42 128q8 23 30.5 37.5t40.5 14.5h112l3 10q1 2 1 5t-2 3h-161l26 82h225q23 0 33 -22t1 -49l-13 -42q-4 -12 -13.5 -24t-21 -21t-23 -15t-19.5 -6h-110l-6 -19h165l-27 -82h-283z" />
    <glyph glyph-name="FL00BCh" unicode="&#xb3;" horiz-adv-x="314" 
d="M337 528h-141l-26 -78h142q9 0 6 -9q-3 -10 -12 -10h-142l-27 -82h202q18 0 33 8t26.5 21t20 28t13.5 30q5 14 7 29t-3 26q10 9 17.5 23t12.5 28q4 14 5 29.5t-3 28t-13 21t-25 8.5h-202l-26 -82h142q8 0 4 -10q-2 -9 -11 -9z" />
    <glyph glyph-name="FL00B4h" unicode="&#xb4;" horiz-adv-x="662" 
d="M274 0h-262l277 281l-94 280h262l29 -82l80 82h262l-276 -280l95 -281h-262l-28 83z" />
    <glyph glyph-name="FL00B5h" unicode="&#xb5;" horiz-adv-x="618" 
d="M430 561h-225l-135 -417q-10 -30 -12 -56.5t3.5 -46t18.5 -30.5t34 -11h476l48 147h-313q-16 2 -20 9.5t3 27.5l7 23h242q18 0 40 11t43 28t37.5 39t23.5 45l75 231h-224l-60 -187q-5 -5 -10.5 -14.5t-14.5 -9.5h-90q-5 0 -7 8t-1 14z" />
    <glyph glyph-name="FL007Ah" unicode="&#xb6;" horiz-adv-x="770" 
d="M794 148l-48 -148h-312q-19 0 -34.5 10t-27 26t-19 35.5t-8.5 38.5l-27 239q-1 8 -3.5 19t-6.5 21.5t-10 17.5t-13 7h-126l47 147h290q17 0 31 -11.5t24.5 -28t16.5 -35.5t8 -34l29 -233q1 -7 3 -19t5.5 -23.5t9 -20t13.5 -8.5h158z" />
    <glyph glyph-name="FL00B7h" unicode="&#xb7;" horiz-adv-x="236" 
d="M119 295q6 19 19 36t30 29.5t36.5 19.5t39.5 7q38 0 57 -26.5t6 -65.5q-6 -20 -19 -36.5t-29.5 -29t-36 -19.5t-38.5 -7q-39 0 -58.5 26.5t-6.5 65.5z" />
    <glyph glyph-name="FL00BAh" unicode="&#xb8;" horiz-adv-x="156" 
d="M81 -157h-173l37 115h67l14 42h106z" />
    <glyph glyph-name="FL00BEh" unicode="&#xb9;" horiz-adv-x="205" 
d="M294 348h-115l64 198h-42l27 82h157z" />
    <glyph glyph-name="FL00B0h" unicode="&#xba;" horiz-adv-x="338" 
d="M320 513l-18 -53q-2 -6 3 -6h25q3 0 5 6l18 53q1 2 0.5 5t-2.5 3h-25q-4 -1 -6 -8zM283 629h181q23 0 31 -22.5t0 -48.5l-48 -148q-8 -24 -30.5 -42.5t-41.5 -18.5h-186q-17 0 -28.5 18.5t-3.5 42.5l48 148q4 13 12.5 25.5t19.5 22.5t23 16.5t23 6.5z" />
    <glyph glyph-name="FL00BBh" unicode="&#xbb;" horiz-adv-x="450" 
d="M158 279l-32 67l113 101l82 -168l-191 -169l-47 101zM365 279l-33 67l114 101l81 -168l-190 -169l-48 101z" />
    <glyph glyph-name="FL0763h" unicode="&#xbc;" horiz-adv-x="724" 
d="M14 0h227l589 561h-226l-257 -244l79 244h-157l-26 -82h43l-65 -198h88zM546 119l41 44l-14 -44h-27zM536 252l-151 -157l-19 -57h180l-12 -38h118l12 38h48l27 81h-48l52 161h-165q-10 0 -23.5 -11.5t-18.5 -17.5v1z" />
    <glyph glyph-name="FL0740h" unicode="&#xbd;" horiz-adv-x="726" 
d="M241 0h-227l295 281h-88l65 198h-43l26 82h157l-79 -244l257 244h226l-295 -281h201q23 0 33 -22t1 -49l-14 -42q-4 -12 -13 -24t-20.5 -21t-23 -15t-19.5 -6h-109l-6 -19h164l-27 -82h-283l42 128q4 12 12 21.5t18 16t20.5 10.5t19.5 4h112l4 10q1 2 1 5t-2 3h-162
l16 49z" />
    <glyph glyph-name="FL077Ch" unicode="&#xbe;" horiz-adv-x="754" 
d="M314 460q9 0 12 9q4 10 -4 10h-142l26 82h202q16 0 25 -8.5t13 -21t3 -28t-5 -29.5q-5 -14 -12.5 -28t-18.5 -23q6 -11 4 -26t-7 -29q-6 -17 -15 -34l238 227h227l-590 -561h-227l301 286q-10 -2 -16 -3.5t-11 -1.5h-202l27 82h142q9 0 12 10q3 9 -6 9h-142l25 78h141z
M565 252v-1q5 6 19 17.5t24 11.5h165l-52 -161h48l-27 -81h-48l-12 -38h-119l12 38h-180l19 57zM576 119h26l14 44z" />
    <glyph glyph-name="FL00BFh" unicode="&#xbf;" horiz-adv-x="614" 
d="M617 347l-14 -41q-7 -21 -22.5 -39t-35 -31t-39.5 -20.5t-36 -7.5h-154l-10 -31q-3 -8 -2 -19t9 -11h325l-48 -147h-456q-23 0 -39 11.5t-24.5 31t-9.5 44t8 50.5l28 87q7 22 24.5 44.5t39 39.5t43 28t37.5 11h376zM656 469q-6 -20 -19 -36.5t-30 -29t-36.5 -19.5
t-38.5 -7q-39 0 -58 26.5t-6 65.5q6 19 19 36t30 29.5t36 19.5t39 7q38 0 57.5 -26.5t6.5 -65.5z" />
    <glyph glyph-name="FL00C0h" unicode="&#xc0;" 
d="M584 777l14 -53q3 -8 4 -15t-2 -17l-4 -11q-4 -11 -8 -19t-15 -18q-25 -20 -44 -20q-20 0 -26 18l-19 50q-3 8 -4.5 14.5t2.5 17.5q5 15 13.5 29t22.5 25q13 11 21.5 13.5t19.5 2.5q20 0 25 -17zM374 391l-29 -90h134l29 90q0 6 0.5 14.5t-9.5 8.5h-99q-7 0 -14 -8
t-12 -14v-1zM605 0h-224l51 158h-134l-51 -158h-223l142 437q7 24 24 46t37.5 39.5t42.5 28t40 10.5h373q18 0 33 -11t24.5 -28.5t11.5 -40t-5 -44.5z" />
    <glyph glyph-name="FL00C1h" unicode="&#xc1;" 
d="M501 724l48 53q17 17 37 17q11 0 18.5 -2.5t12.5 -13.5q6 -11 5.5 -25t-5.5 -29q-4 -11 -9 -17.5t-13 -14.5l-51 -50q-18 -18 -38 -18t-32 20q-5 10 -4 18t5 19l4 11q3 10 8.5 17t13.5 15zM374 391l-29 -90h134l29 90q0 6 0.5 14.5t-9.5 8.5h-99q-7 0 -14 -8t-12 -14v-1z
M605 0h-224l51 158h-134l-51 -158h-223l142 437q7 24 24 46t37.5 39.5t42.5 28t40 10.5h373q18 0 33 -11t24.5 -28.5t11.5 -40t-5 -44.5z" />
    <glyph glyph-name="FL00C2h" unicode="&#xc2;" 
d="M481 626h-136l156 166h142l46 -166h-135l-16 64zM374 391l-29 -90h134l29 90q0 6 0.5 14.5t-9.5 8.5h-99q-7 0 -14 -8t-12 -14v-1zM605 0h-224l51 158h-134l-51 -158h-223l142 437q7 24 24 46t37.5 39.5t42.5 28t40 10.5h373q18 0 33 -11t24.5 -28.5t11.5 -40t-5 -44.5z
" />
    <glyph glyph-name="FL00C3h" unicode="&#xc3;" 
d="M616 626h-89l-17 63l-57 -63h-135l156 166h89l17 -63l56 63h135zM374 391l-29 -90h134l29 90q0 6 0.5 14.5t-9.5 8.5h-99q-7 0 -14 -8t-12 -14v-1zM605 0h-224l51 158h-134l-51 -158h-223l142 437q7 24 24 46t37.5 39.5t42.5 28t40 10.5h373q18 0 33 -11t24.5 -28.5
t11.5 -40t-5 -44.5z" />
    <glyph glyph-name="FL00C4h" unicode="&#xc4;" 
d="M372 709q11 34 41 57.5t64 23.5t48 -23.5t3 -57.5q-6 -18 -16.5 -33t-24.5 -26t-30.5 -17t-32.5 -6q-33 0 -48 23.5t-4 58.5zM717 709q-6 -18 -16.5 -33t-24.5 -26t-30.5 -17t-32.5 -6q-33 0 -48.5 23.5t-4.5 58.5q11 34 41.5 57.5t64.5 23.5t48 -23.5t3 -57.5zM374 391
l-29 -90h134l29 90q0 6 0.5 14.5t-9.5 8.5h-99q-7 0 -14 -8t-12 -14v-1zM605 0h-224l51 158h-134l-51 -158h-223l142 437q7 24 24 46t37.5 39.5t42.5 28t40 10.5h373q18 0 33 -11t24.5 -28.5t11.5 -40t-5 -44.5z" />
    <glyph glyph-name="FL00C5h" unicode="&#xc5;" 
d="M517 709q-3 -9 3 -15.5t17 -6.5q12 0 22 6.5t13 15.5t-3 15t-18 6q-11 0 -21 -6t-13 -15zM467 709q11 34 41 57.5t64 23.5t48.5 -23.5t3.5 -57.5q-6 -18 -16.5 -33t-25 -26t-31 -17t-32.5 -6q-33 0 -48 23.5t-4 58.5zM374 391l-29 -90h134l29 90q0 6 0.5 14.5t-9.5 8.5
h-99q-7 0 -14 -8t-12 -14v-1zM605 0h-224l51 158h-134l-51 -158h-223l142 437q7 24 24 46t37.5 39.5t42.5 28t40 10.5h373q18 0 33 -11t24.5 -28.5t11.5 -40t-5 -44.5z" />
    <glyph glyph-name="FL00C6h" unicode="&#xc6;" horiz-adv-x="1100" 
d="M605 0l9 28q18 -28 52 -28h410l48 147h-274q-2 0 -5 8.5t-4 14.5q1 1 1 3t1 4q0 4 3 7q4 6 13 15t11 9h274l46 143h-268q-11 0 -14 10t1 21q3 8 11.5 20t16.5 12h274l47 147h-405q-26 0 -54 -16.5t-51 -42.5q-7 25 -24.5 42t-40.5 17h-373q-18 0 -40 -10.5t-42.5 -28
t-37.5 -39.5t-24 -46l-142 -437h223l51 158h134l-51 -158h224zM345 301l29 91q5 6 12 14t14 8h99q10 0 9.5 -8.5t-0.5 -14.5l-29 -90h-134z" />
    <glyph glyph-name="FL00C7h" unicode="&#xc7;" horiz-adv-x="562" 
d="M325 -157h-173l37 115h67l14 42h-142q-18 0 -33 10.5t-24.5 27.5t-12 39t5.5 46l96 295q8 26 25 51.5t38.5 46t45.5 33t47 12.5h404l-47 -147h-273q-8 0 -16.5 -11t-10.5 -19l-70 -214q-2 -10 0.5 -16.5t9.5 -6.5h269l-48 -147h-158z" />
    <glyph glyph-name="FL00C8h" unicode="&#xc8;" horiz-adv-x="562" 
d="M316 561h404l-47 -147h-273q-8 0 -17 -12t-12 -20q-4 -11 -0.5 -21t13.5 -10h268l-46 -143h-273q-2 0 -11.5 -9t-13.5 -15q-3 -3 -3 -7q-1 -2 -1 -4t-1 -3q1 -6 4.5 -14.5t5.5 -8.5h273l-48 -147h-410q-18 0 -33 10.5t-24.5 27.5t-12 39t5.5 46l96 295q8 26 25 51.5
t38.5 46t45.5 33t47 12.5zM550 777l14 -53q3 -8 4 -15t-2 -17l-4 -11q-4 -11 -8 -19t-15 -18q-25 -20 -45 -20t-26 18l-18 50q-3 8 -4.5 14.5t2.5 17.5q5 15 13.5 29t21.5 25t22 13.5t19 2.5q20 0 26 -17z" />
    <glyph glyph-name="FL00C9h" unicode="&#xc9;" horiz-adv-x="562" 
d="M316 561h404l-47 -147h-273q-8 0 -17 -12t-12 -20q-4 -11 -0.5 -21t13.5 -10h268l-46 -143h-273q-2 0 -11.5 -9t-13.5 -15q-3 -3 -3 -7q-1 -2 -1 -4t-1 -3q1 -6 4.5 -14.5t5.5 -8.5h273l-48 -147h-410q-18 0 -33 10.5t-24.5 27.5t-12 39t5.5 46l96 295q8 26 25 51.5
t38.5 46t45.5 33t47 12.5zM494 724l48 53q19 17 38 17q10 0 18 -2.5t13 -13.5q10 -22 -1 -54q-4 -11 -9 -17.5t-13 -14.5l-50 -50q-18 -18 -38 -18q-21 0 -33 20q-5 10 -4 18t5 19l4 11q3 10 8.5 17t13.5 15z" />
    <glyph glyph-name="FL00CAh" unicode="&#xca;" horiz-adv-x="562" 
d="M316 561h404l-47 -147h-273q-8 0 -17 -12t-12 -20q-4 -11 -0.5 -21t13.5 -10h268l-46 -143h-273q-2 0 -11.5 -9t-13.5 -15q-3 -3 -3 -7q-1 -2 -1 -4t-1 -3q1 -6 4.5 -14.5t5.5 -8.5h273l-48 -147h-410q-18 0 -33 10.5t-24.5 27.5t-12 39t5.5 46l96 295q8 26 25 51.5
t38.5 46t45.5 33t47 12.5zM450 626h-135l156 166h141l47 -166h-135l-16 64z" />
    <glyph glyph-name="FL00CBh" unicode="&#xcb;" horiz-adv-x="562" 
d="M316 561h404l-47 -147h-273q-8 0 -17 -12t-12 -20q-4 -11 -0.5 -21t13.5 -10h268l-46 -143h-273q-2 0 -11.5 -9t-13.5 -15q-3 -3 -3 -7q-1 -2 -1 -4t-1 -3q1 -6 4.5 -14.5t5.5 -8.5h273l-48 -147h-410q-18 0 -33 10.5t-24.5 27.5t-12 39t5.5 46l96 295q8 26 25 51.5
t38.5 46t45.5 33t47 12.5zM341 709q11 34 41.5 57.5t64.5 23.5q33 0 47.5 -23.5t3.5 -57.5q-6 -18 -16.5 -33t-24.5 -26t-30.5 -17t-32.5 -6q-33 0 -48.5 23.5t-4.5 58.5zM687 709q-6 -18 -16.5 -33t-25 -26t-31 -17t-32.5 -6q-33 0 -48 23.5t-4 58.5q11 34 41.5 57.5
t63.5 23.5q34 0 48.5 -23.5t3.5 -57.5z" />
    <glyph glyph-name="FL00CCh" unicode="&#xcc;" horiz-adv-x="579" 
d="M558 777l15 -53q3 -8 4 -15t-2 -17l-4 -11q-4 -11 -8.5 -19t-15.5 -18q-25 -20 -44 -20q-20 0 -26 18l-18 50q-4 8 -5 14.5t3 17.5q5 15 13 29t22 25q13 11 22 13.5t19 2.5q20 0 25 -17zM555 0l48 147h-153l87 267h152l47 147h-530l-47 -147h154l-87 -267h-153l-48 -147
h530z" />
    <glyph glyph-name="FL00CDh" unicode="&#xcd;" horiz-adv-x="579" 
d="M72 147l-48 -147h530l48 147h-153l87 267h154l47 147h-530l-47 -147h152l-87 -267h-153zM477 724l48 53q17 17 37 17q11 0 18.5 -2.5t12.5 -13.5q6 -11 5.5 -25t-5.5 -29q-4 -11 -9 -17.5t-13 -14.5l-51 -50q-18 -18 -38 -18t-32 20q-5 10 -4 18t5 19l4 11q3 10 8.5 17
t13.5 15z" />
    <glyph glyph-name="FL00CEh" unicode="&#xce;" horiz-adv-x="579" 
d="M72 147l-48 -147h530l48 147h-153l87 267h154l47 147h-530l-47 -147h152l-87 -267h-153zM453 626h-136l156 166h142l46 -166h-135l-16 64z" />
    <glyph glyph-name="FL00CFh" unicode="&#xcf;" horiz-adv-x="579" 
d="M72 147l-48 -147h530l48 147h-153l87 267h154l47 147h-530l-47 -147h152l-87 -267h-153zM343 709q11 34 41 57.5t64 23.5t48.5 -23.5t3.5 -57.5q-6 -18 -16.5 -33t-25 -26t-31 -17t-32.5 -6q-33 0 -48 23.5t-4 58.5zM688 709q-6 -18 -16.5 -33t-24.5 -26t-30.5 -17
t-32.5 -6q-33 0 -48 23.5t-4 58.5q11 34 41 57.5t64 23.5t48 -23.5t3 -57.5z" />
    <glyph glyph-name="FL00D0h" unicode="&#xd0;" horiz-adv-x="672" 
d="M428 150h-82l19 58h44l46 143h-44l17 52h93q12 0 15.5 -9t2.5 -22.5t-5 -29.5t-8 -29l-22 -68q-5 -15 -11.5 -32t-15.5 -31t-21 -23t-28 -9zM187 351h-49l-46 -143h49l-68 -208h497q14 0 31.5 10.5t34 26.5t29.5 35.5t19 37.5l104 321q7 20 6.5 43t-6.5 42.5t-18 32
t-28 12.5h-487z" />
    <glyph glyph-name="FL00D1h" unicode="&#xd1;" 
d="M508 391l-127 -391h224l142 438q7 22 5 44.5t-11.5 39.5t-24.5 28t-33 11h-477l-182 -561h223l135 414h117q9 0 9 -9v-14zM771 792h-135l-56 -63l-17 63h-89l-156 -166h135l57 63l17 -63h89z" />
    <glyph glyph-name="FL00D2h" unicode="&#xd2;" 
d="M316 561h361q22 0 38 -12.5t24.5 -33t9 -46t-7.5 -51.5l-96 -295q-8 -24 -24.5 -46t-37 -39t-42.5 -27.5t-40 -10.5h-373q-18 0 -33 10.5t-24.5 27.5t-12 39t5.5 46l96 295q8 26 25 51.5t38.5 46t45.5 33t47 12.5zM371 382l-69 -212q-1 -5 -0.5 -14t11.5 -9h99
q5 0 12.5 8.5t12.5 14.5l69 212q3 8 2.5 20t-9.5 12h-101q-8 -2 -16 -13t-11 -19zM584 777l14 -53q3 -8 4 -15t-2 -17l-4 -11q-4 -11 -8 -19t-15 -18q-25 -20 -44 -20q-20 0 -26 18l-19 50q-3 8 -4.5 14.5t2.5 17.5q5 15 13.5 29t22.5 25q13 11 21.5 13.5t19.5 2.5
q20 0 25 -17z" />
    <glyph glyph-name="FL00D3h" unicode="&#xd3;" 
d="M316 561h361q22 0 38 -12.5t24.5 -33t9 -46t-7.5 -51.5l-96 -295q-8 -24 -24.5 -46t-37 -39t-42.5 -27.5t-40 -10.5h-373q-18 0 -33 10.5t-24.5 27.5t-12 39t5.5 46l96 295q8 26 25 51.5t38.5 46t45.5 33t47 12.5zM371 382l-69 -212q-1 -5 -0.5 -14t11.5 -9h99
q5 0 12.5 8.5t12.5 14.5l69 212q3 8 2.5 20t-9.5 12h-101q-8 -2 -16 -13t-11 -19zM501 724l48 53q17 17 37 17q11 0 18.5 -2.5t12.5 -13.5q6 -11 5.5 -25t-5.5 -29q-4 -11 -9 -17.5t-13 -14.5l-51 -50q-18 -18 -38 -18t-32 20q-5 10 -4 18t5 19l4 11q3 10 8.5 17t13.5 15z
" />
    <glyph glyph-name="FL00D4h" unicode="&#xd4;" 
d="M316 561h361q22 0 38 -12.5t24.5 -33t9 -46t-7.5 -51.5l-96 -295q-8 -24 -24.5 -46t-37 -39t-42.5 -27.5t-40 -10.5h-373q-18 0 -33 10.5t-24.5 27.5t-12 39t5.5 46l96 295q8 26 25 51.5t38.5 46t45.5 33t47 12.5zM371 382l-69 -212q-1 -5 -0.5 -14t11.5 -9h99
q5 0 12.5 8.5t12.5 14.5l69 212q3 8 2.5 20t-9.5 12h-101q-8 -2 -16 -13t-11 -19zM481 626h-136l156 166h142l46 -166h-135l-16 64z" />
    <glyph glyph-name="FL00D5h" unicode="&#xd5;" 
d="M302 170l69 212q3 8 11 19t16 13h101q9 0 9.5 -12t-2.5 -20l-69 -212q-5 -6 -12.5 -14.5t-12.5 -8.5h-99q-11 0 -11.5 9t0.5 14zM771 792h-135l-56 -63l-17 63h-89l-156 -166h135l57 63l17 -63h89zM677 561h-361q-23 0 -47 -12.5t-45.5 -33t-38.5 -46t-25 -51.5l-96 -295
q-8 -24 -5.5 -46t12 -39t24.5 -27.5t33 -10.5h373q18 0 40 10.5t42.5 27.5t37 39t24.5 46l96 295q8 26 7.5 51.5t-9 46t-24.5 33t-38 12.5z" />
    <glyph glyph-name="FL00D6h" unicode="&#xd6;" 
d="M316 561h361q22 0 38 -12.5t24.5 -33t9 -46t-7.5 -51.5l-96 -295q-8 -24 -24.5 -46t-37 -39t-42.5 -27.5t-40 -10.5h-373q-18 0 -33 10.5t-24.5 27.5t-12 39t5.5 46l96 295q8 26 25 51.5t38.5 46t45.5 33t47 12.5zM371 382l-69 -212q-1 -5 -0.5 -14t11.5 -9h99
q5 0 12.5 8.5t12.5 14.5l69 212q3 8 2.5 20t-9.5 12h-101q-8 -2 -16 -13t-11 -19zM372 709q11 34 41 57.5t64 23.5t48 -23.5t3 -57.5q-6 -18 -16.5 -33t-24.5 -26t-30.5 -17t-32.5 -6q-33 0 -48 23.5t-4 58.5zM717 709q-6 -18 -16.5 -33t-24.5 -26t-30.5 -17t-32.5 -6
q-33 0 -48.5 23.5t-4.5 58.5q11 34 41.5 57.5t64.5 23.5t48 -23.5t3 -57.5z" />
    <glyph glyph-name="FL00D7h" unicode="&#xd7;" horiz-adv-x="318" 
d="M332 279l74 67l-47 101l-77 -67l-30 68l-115 -101l32 -68l-77 -69l48 -101l77 69l33 -68l113 101z" />
    <glyph glyph-name="FL00D8h" unicode="&#xd8;" 
d="M677 561q22 0 38 -12.5t24.5 -33t9 -46t-7.5 -51.5l-96 -295q-8 -24 -24.5 -46t-37 -39t-42.5 -27.5t-40 -10.5h-373q-18 0 -33 10.5t-24.5 27.5t-12 39t5.5 46l96 295q8 26 25 51.5t38.5 46t45.5 33t47 12.5h361zM468 264l-138 -117h82q5 0 12.5 8.5t12.5 14.5zM477 414
h-79q-8 -2 -16 -13t-11 -19l-28 -86z" />
    <glyph glyph-name="FL00D9h" unicode="&#xd9;" 
d="M598 724l-14 53q-5 17 -25 17q-11 0 -19.5 -2.5t-21.5 -13.5q-14 -11 -22.5 -25t-13.5 -29q-4 -11 -2.5 -17.5t4.5 -14.5l19 -50q6 -18 26 -18q19 0 44 20q11 10 15 18t8 19l4 11q3 10 2 17t-4 15zM303 170l127 391h-224l-142 -438q-8 -23 -5.5 -45t12 -39t24.5 -28
t33 -11h477l182 561h-223l-134 -414h-117q-9 0 -9 8q0 9 -1 15z" />
    <glyph glyph-name="FL00DAh" unicode="&#xda;" 
d="M549 777l-48 -53q-8 -8 -13.5 -15t-8.5 -17l-4 -11q-4 -11 -5 -19t4 -18q12 -20 32 -20t38 18l51 50q8 8 13 14.5t9 17.5q5 15 5.5 29t-5.5 25q-5 11 -12.5 13.5t-18.5 2.5q-20 0 -37 -17zM303 170l127 391h-224l-142 -438q-8 -23 -5.5 -45t12 -39t24.5 -28t33 -11h477
l182 561h-223l-134 -414h-117q-9 0 -9 8q0 9 -1 15z" />
    <glyph glyph-name="FL00DBh" unicode="&#xdb;" 
d="M345 626h136l57 64l16 -64h135l-46 166h-142zM303 170l127 391h-224l-142 -438q-8 -23 -5.5 -45t12 -39t24.5 -28t33 -11h477l182 561h-223l-134 -414h-117q-9 0 -9 8q0 9 -1 15z" />
    <glyph glyph-name="FL00DCh" unicode="&#xdc;" 
d="M717 709q11 34 -3 57.5t-48 23.5t-64.5 -23.5t-41.5 -57.5q-11 -35 4.5 -58.5t48.5 -23.5q16 0 32.5 6t30.5 17t24.5 26t16.5 33zM372 709q-11 -35 4 -58.5t48 -23.5q16 0 32.5 6t30.5 17t24.5 26t16.5 33q11 34 -3 57.5t-48 23.5t-64 -23.5t-41 -57.5zM303 170l127 391
h-224l-142 -438q-8 -23 -5.5 -45t12 -39t24.5 -28t33 -11h477l182 561h-223l-134 -414h-117q-9 0 -9 8q0 9 -1 15z" />
    <glyph glyph-name="FL00DDh" unicode="&#xdd;" horiz-adv-x="618" 
d="M776 561h-224l-61 -189q-5 -6 -11.5 -14t-11.5 -8h-89q-9 0 -9 9v15l60 187h-224l-75 -231q-7 -23 -4.5 -45t11.5 -39t24 -28t33 -11h242l-7 -23q-7 -20 -15.5 -27.5t-25.5 -9.5h-313l-48 -147h475q21 0 41 11t38.5 30.5t33.5 46t25 56.5zM539 777l-48 -53
q-8 -8 -13.5 -15t-8.5 -17l-4 -11q-4 -11 -5 -19t4 -18q12 -20 33 -20q20 0 38 18l50 50q8 8 13 14.5t9 17.5q5 15 5.5 29t-5.5 25q-5 11 -12.5 13.5t-18.5 2.5q-20 0 -37 -17z" />
    <glyph glyph-name="FL00DEh" unicode="&#xde;" 
d="M206 561h224l-24 -76h236q34 0 50.5 -20.5t21 -50t-0.5 -63.5t-14 -61q-12 -38 -30.5 -75.5t-42.5 -67t-53 -48t-62 -18.5h-237l-26 -81h-224zM468 338h-110l-36 -110h105q8 0 16 5.5t15 14t12 18.5t8 18q2 7 3.5 16t1 17.5t-4 14.5t-10.5 6z" />
    <glyph glyph-name="FL00DFh" unicode="&#xdf;" horiz-adv-x="580" 
d="M421 350q17 0 25 6.5t13 23.5q5 14 2 24t-18 10h-60l-180 -552h-224l227 699h410q30 0 47 -16.5t24 -41.5t5.5 -55t-10.5 -57q-9 -28 -26 -58.5t-40 -47.5q13 -21 9.5 -52t-14.5 -63q-9 -28 -25 -58t-38 -55t-50.5 -41t-62.5 -16h-149l48 147h23q15 0 24.5 10t14.5 24
q5 16 1.5 23t-20.5 7h-22l45 139h21z" />
    <glyph glyph-name="FL00E0h" unicode="&#xe0;" horiz-adv-x="739" 
d="M14 -1l475 507q5 6 15 15t21.5 18t23 15.5t19.5 6.5h329l-182 -561h-223l109 335q0 1 -3 3t-5 4q-6 0 -12 -9l-305 -334h-262zM777 777l14 -53q3 -8 4 -15t-2 -17l-4 -11q-4 -11 -8 -19t-15 -18q-25 -20 -45 -20t-26 18l-18 50q-3 8 -4.5 14.5t2.5 17.5q5 15 13.5 29
t22.5 25q13 11 21.5 13.5t19.5 2.5q20 0 25 -17z" />
    <glyph glyph-name="FL00E1h" unicode="&#xe1;" horiz-adv-x="739" 
d="M14 -1l475 507q5 6 15 15t21.5 18t23 15.5t19.5 6.5h329l-182 -561h-223l109 335q0 1 -3 3t-5 4q-6 0 -12 -9l-305 -334h-262zM710 724l48 53q19 17 38 17q10 0 18 -2.5t13 -13.5q10 -22 -1 -54q-4 -11 -9 -17.5t-13 -14.5l-50 -50q-18 -18 -38 -18q-21 0 -33 20
q-5 10 -4 18t5 19l4 11q3 10 8.5 17t13.5 15z" />
    <glyph glyph-name="FL00E2h" unicode="&#xe2;" horiz-adv-x="739" 
d="M14 -1l475 507q5 6 15 15t21.5 18t23 15.5t19.5 6.5h329l-182 -561h-223l109 335q0 1 -3 3t-5 4q-6 0 -12 -9l-305 -334h-262zM685 626h-136l156 166h142l46 -166h-135l-16 64z" />
    <glyph glyph-name="FL00E3h" unicode="&#xe3;" horiz-adv-x="739" 
d="M489 506l-475 -507h262l305 334q6 9 12 9q2 -2 5 -4t3 -3l-109 -335h223l182 561h-329q-8 0 -19.5 -6.5t-23 -15.5t-21.5 -18t-15 -15zM951 792h-135l-56 -63l-17 63h-89l-156 -166h135l57 63l17 -63h89z" />
    <glyph glyph-name="FL00E4h" unicode="&#xe4;" horiz-adv-x="739" 
d="M14 -1l475 507q5 6 15 15t21.5 18t23 15.5t19.5 6.5h329l-182 -561h-223l109 335q0 1 -3 3t-5 4q-6 0 -12 -9l-305 -334h-262zM587 709q11 34 41 57.5t64 23.5t48.5 -23.5t3.5 -57.5q-6 -18 -16.5 -33t-25 -26t-31 -17t-32.5 -6q-33 0 -48 23.5t-4 58.5zM932 709
q-6 -18 -16.5 -33t-24.5 -26t-30.5 -17t-32.5 -6q-33 0 -48 23.5t-4 58.5q11 34 41 57.5t64 23.5t48 -23.5t3 -57.5z" />
    <glyph glyph-name="FL00E5h" unicode="&#xe5;" horiz-adv-x="739" 
d="M489 506l-475 -507h262l305 334q6 9 12 9q2 -2 5 -4t3 -3l-109 -335h223l182 561h-329q-8 0 -19.5 -6.5t-23 -15.5t-21.5 -18t-15 -15zM673 709q-11 -35 4.5 -58.5t48.5 -23.5q16 0 32.5 6t30.5 17t24.5 26t16.5 33q11 34 -3.5 57.5t-47.5 23.5q-34 0 -64.5 -23.5
t-41.5 -57.5zM724 709q3 9 13 15t21 6t17 -6t3 -15t-13 -15.5t-21 -6.5t-17 6.5t-3 15.5z" />
    <glyph glyph-name="FL00E6h" unicode="&#xe6;" horiz-adv-x="1033" 
d="M14 -1l475 507q5 6 15 15t21.5 18t23 15.5t19.5 6.5h623l-47 -147h-274q-8 0 -16.5 -12t-11.5 -20q-4 -11 -1 -21t14 -10h268l-46 -143h-274q-2 0 -11 -9t-14 -15q-2 -2 -2 -7q-2 -6 -3 -7q2 -6 5 -14.5t5 -8.5h274l-48 -147h-517l109 335q0 1 -3 3t-5 4q-6 0 -12 -9
l-305 -334h-262z" />
    <glyph glyph-name="FL00E7h" unicode="&#xe7;" horiz-adv-x="562" 
d="M325 -157h-173l37 115h67l14 42h-142q-18 0 -33 10.5t-24.5 27.5t-12 39t5.5 46l96 295q8 26 25 51.5t38.5 46t45.5 33t47 12.5h404l-47 -147h-273q-8 0 -16.5 -11t-10.5 -19l-70 -214q-2 -10 0.5 -16.5t9.5 -6.5h269l-48 -147h-158z" />
    <glyph glyph-name="FL00E8h" unicode="&#xe8;" horiz-adv-x="562" 
d="M316 561h404l-47 -147h-273q-8 0 -17 -12t-12 -20q-4 -11 -0.5 -21t13.5 -10h268l-46 -143h-273q-2 0 -11.5 -9t-13.5 -15q-3 -3 -3 -7q-1 -2 -1 -4t-1 -3q1 -6 4.5 -14.5t5.5 -8.5h273l-48 -147h-410q-18 0 -33 10.5t-24.5 27.5t-12 39t5.5 46l96 295q8 26 25 51.5
t38.5 46t45.5 33t47 12.5zM550 777l14 -53q3 -8 4 -15t-2 -17l-4 -11q-4 -11 -8 -19t-15 -18q-25 -20 -45 -20t-26 18l-18 50q-3 8 -4.5 14.5t2.5 17.5q5 15 13.5 29t21.5 25t22 13.5t19 2.5q20 0 26 -17z" />
    <glyph glyph-name="FL00E9h" unicode="&#xe9;" horiz-adv-x="562" 
d="M316 561h404l-47 -147h-273q-8 0 -17 -12t-12 -20q-4 -11 -0.5 -21t13.5 -10h268l-46 -143h-273q-2 0 -11.5 -9t-13.5 -15q-3 -3 -3 -7q-1 -2 -1 -4t-1 -3q1 -6 4.5 -14.5t5.5 -8.5h273l-48 -147h-410q-18 0 -33 10.5t-24.5 27.5t-12 39t5.5 46l96 295q8 26 25 51.5
t38.5 46t45.5 33t47 12.5zM494 724l48 53q19 17 38 17q10 0 18 -2.5t13 -13.5q10 -22 -1 -54q-4 -11 -9 -17.5t-13 -14.5l-50 -50q-18 -18 -38 -18q-21 0 -33 20q-5 10 -4 18t5 19l4 11q3 10 8.5 17t13.5 15z" />
    <glyph glyph-name="FL00EAh" unicode="&#xea;" horiz-adv-x="562" 
d="M316 561h404l-47 -147h-273q-8 0 -17 -12t-12 -20q-4 -11 -0.5 -21t13.5 -10h268l-46 -143h-273q-2 0 -11.5 -9t-13.5 -15q-3 -3 -3 -7q-1 -2 -1 -4t-1 -3q1 -6 4.5 -14.5t5.5 -8.5h273l-48 -147h-410q-18 0 -33 10.5t-24.5 27.5t-12 39t5.5 46l96 295q8 26 25 51.5
t38.5 46t45.5 33t47 12.5zM450 626h-135l156 166h141l47 -166h-135l-16 64z" />
    <glyph glyph-name="FL00EBh" unicode="&#xeb;" horiz-adv-x="562" 
d="M316 561h404l-47 -147h-273q-8 0 -17 -12t-12 -20q-4 -11 -0.5 -21t13.5 -10h268l-46 -143h-273q-2 0 -11.5 -9t-13.5 -15q-3 -3 -3 -7q-1 -2 -1 -4t-1 -3q1 -6 4.5 -14.5t5.5 -8.5h273l-48 -147h-410q-18 0 -33 10.5t-24.5 27.5t-12 39t5.5 46l96 295q8 26 25 51.5
t38.5 46t45.5 33t47 12.5zM341 709q11 34 41.5 57.5t64.5 23.5q33 0 47.5 -23.5t3.5 -57.5q-6 -18 -16.5 -33t-24.5 -26t-30.5 -17t-32.5 -6q-33 0 -48.5 23.5t-4.5 58.5zM687 709q-6 -18 -16.5 -33t-25 -26t-31 -17t-32.5 -6q-33 0 -48 23.5t-4 58.5q11 34 41.5 57.5
t63.5 23.5q34 0 48.5 -23.5t3.5 -57.5z" />
    <glyph glyph-name="FL00ECh" unicode="&#xec;" horiz-adv-x="272" 
d="M406 777l15 -53q3 -8 4 -15t-2 -17l-4 -11q-4 -11 -8.5 -19t-15.5 -18q-25 -20 -44 -20q-20 0 -26 18l-18 50q-4 8 -5 14.5t3 17.5q5 15 13 29t22 25q13 11 22 13.5t19 2.5q20 0 25 -17zM206 561h224l-182 -561h-224z" />
    <glyph glyph-name="FL00EDh" unicode="&#xed;" horiz-adv-x="272" 
d="M206 561h224l-182 -561h-224zM321 724l49 53q17 17 37 17q10 0 18 -2.5t13 -13.5q6 -11 5 -25t-6 -29q-4 -11 -9 -17.5t-13 -14.5l-50 -50q-18 -18 -38 -18t-32 20q-5 10 -4.5 18t4.5 19l4 11q3 10 8.5 17t13.5 15z" />
    <glyph glyph-name="FL00EEh" unicode="&#xee;" horiz-adv-x="272" 
d="M206 561h224l-182 -561h-224zM301 626h-136l156 166h142l46 -166h-135l-16 64z" />
    <glyph glyph-name="FL00EFh" unicode="&#xef;" horiz-adv-x="272" 
d="M206 561h224l-182 -561h-224zM194 709q11 34 41.5 57.5t63.5 23.5q34 0 48.5 -23.5t3.5 -57.5q-6 -18 -16.5 -33t-25 -26t-31 -17t-32.5 -6q-33 0 -48 23.5t-4 58.5zM540 709q-6 -18 -16.5 -33t-25 -26t-31 -17t-32.5 -6q-33 0 -48 23.5t-4 58.5q11 34 41 57.5t64 23.5
t48.5 -23.5t3.5 -57.5z" />
    <glyph glyph-name="FL0047h" unicode="&#xf0;" 
d="M412 147h-99q-7 0 -8.5 8.5t-2.5 14.5l14 41h134l-14 -41q-4 -6 -9.5 -14.5t-14.5 -8.5zM106 253l-42 -130q-8 -24 -6 -46t11.5 -39t25 -27.5t33.5 -10.5h373q18 0 40 11t42.5 28t37 39t24.5 45l96 295q8 26 7.5 51.5t-9 46t-24.5 33t-38 12.5h-469l-47 -147h338
q8 0 8.5 -11t-1.5 -19v-2h-1l-7 -23h-253q-16 0 -37 -8.5t-41.5 -23t-37 -34t-23.5 -40.5z" />
    <glyph glyph-name="FL00F1h" unicode="&#xf1;" horiz-adv-x="758" 
d="M916 561h-224l-93 -286l-36 185q-2 13 -7 30.5t-13.5 33t-20 26.5t-24.5 11h-292l-182 -561h224l91 279l45 -175q4 -17 10 -35.5t15 -33.5t22 -25t31 -10h272zM846 792h-135l-56 -63l-18 63h-89l-155 -166h135l57 63l16 -63h89z" />
    <glyph glyph-name="FL00F2h" unicode="&#xf2;" 
d="M316 561h361q22 0 38 -12.5t24.5 -33t9 -46t-7.5 -51.5l-96 -295q-8 -24 -24.5 -46t-37 -39t-42.5 -27.5t-40 -10.5h-373q-18 0 -33 10.5t-24.5 27.5t-12 39t5.5 46l96 295q8 26 25 51.5t38.5 46t45.5 33t47 12.5zM371 382l-69 -212q-1 -5 -0.5 -14t11.5 -9h99
q5 0 12.5 8.5t12.5 14.5l69 212q3 8 2.5 20t-9.5 12h-101q-8 -2 -16 -13t-11 -19zM584 777l14 -53q3 -8 4 -15t-2 -17l-4 -11q-4 -11 -8 -19t-15 -18q-25 -20 -44 -20q-20 0 -26 18l-19 50q-3 8 -4.5 14.5t2.5 17.5q5 15 13.5 29t22.5 25q13 11 21.5 13.5t19.5 2.5
q20 0 25 -17z" />
    <glyph glyph-name="FL00F3h" unicode="&#xf3;" 
d="M316 561h361q22 0 38 -12.5t24.5 -33t9 -46t-7.5 -51.5l-96 -295q-8 -24 -24.5 -46t-37 -39t-42.5 -27.5t-40 -10.5h-373q-18 0 -33 10.5t-24.5 27.5t-12 39t5.5 46l96 295q8 26 25 51.5t38.5 46t45.5 33t47 12.5zM371 382l-69 -212q-1 -5 -0.5 -14t11.5 -9h99
q5 0 12.5 8.5t12.5 14.5l69 212q3 8 2.5 20t-9.5 12h-101q-8 -2 -16 -13t-11 -19zM501 724l48 53q17 17 37 17q11 0 18.5 -2.5t12.5 -13.5q6 -11 5.5 -25t-5.5 -29q-4 -11 -9 -17.5t-13 -14.5l-51 -50q-18 -18 -38 -18t-32 20q-5 10 -4 18t5 19l4 11q3 10 8.5 17t13.5 15z
" />
    <glyph glyph-name="FL00F4h" unicode="&#xf4;" 
d="M316 561h361q22 0 38 -12.5t24.5 -33t9 -46t-7.5 -51.5l-96 -295q-8 -24 -24.5 -46t-37 -39t-42.5 -27.5t-40 -10.5h-373q-18 0 -33 10.5t-24.5 27.5t-12 39t5.5 46l96 295q8 26 25 51.5t38.5 46t45.5 33t47 12.5zM371 382l-69 -212q-1 -5 -0.5 -14t11.5 -9h99
q5 0 12.5 8.5t12.5 14.5l69 212q3 8 2.5 20t-9.5 12h-101q-8 -2 -16 -13t-11 -19zM481 626h-136l156 166h142l46 -166h-135l-16 64z" />
    <glyph glyph-name="FL00F5h" unicode="&#xf5;" 
d="M302 170l69 212q3 8 11 19t16 13h101q9 0 9.5 -12t-2.5 -20l-69 -212q-5 -6 -12.5 -14.5t-12.5 -8.5h-99q-11 0 -11.5 9t0.5 14zM771 792h-135l-56 -63l-17 63h-89l-156 -166h135l57 63l17 -63h89zM677 561h-361q-23 0 -47 -12.5t-45.5 -33t-38.5 -46t-25 -51.5l-96 -295
q-8 -24 -5.5 -46t12 -39t24.5 -27.5t33 -10.5h373q18 0 40 10.5t42.5 27.5t37 39t24.5 46l96 295q8 26 7.5 51.5t-9 46t-24.5 33t-38 12.5z" />
    <glyph glyph-name="FL00F6h" unicode="&#xf6;" 
d="M316 561h361q22 0 38 -12.5t24.5 -33t9 -46t-7.5 -51.5l-96 -295q-8 -24 -24.5 -46t-37 -39t-42.5 -27.5t-40 -10.5h-373q-18 0 -33 10.5t-24.5 27.5t-12 39t5.5 46l96 295q8 26 25 51.5t38.5 46t45.5 33t47 12.5zM371 382l-69 -212q-1 -5 -0.5 -14t11.5 -9h99
q5 0 12.5 8.5t12.5 14.5l69 212q3 8 2.5 20t-9.5 12h-101q-8 -2 -16 -13t-11 -19zM372 709q11 34 41 57.5t64 23.5t48 -23.5t3 -57.5q-6 -18 -16.5 -33t-24.5 -26t-30.5 -17t-32.5 -6q-33 0 -48 23.5t-4 58.5zM717 709q-6 -18 -16.5 -33t-24.5 -26t-30.5 -17t-32.5 -6
q-33 0 -48.5 23.5t-4.5 58.5q11 34 41.5 57.5t64.5 23.5t48 -23.5t3 -57.5z" />
    <glyph glyph-name="FL00F7h" unicode="&#xf7;" horiz-adv-x="366" 
d="M92 208l46 143h318l-46 -143h-318zM272 463q11 31 36 52t51 21t38 -21t1 -52q-5 -15 -14 -28.5t-21 -23.5t-25.5 -16t-26.5 -6q-26 0 -37.5 21.5t-1.5 52.5zM155 103q11 31 36 52t51 21t38 -21t1 -52q-5 -15 -14 -28.5t-21 -23.5t-25.5 -16t-26.5 -6q-26 0 -37.5 21.5
t-1.5 52.5z" />
    <glyph glyph-name="FL00F8h" unicode="&#xf8;" 
d="M677 561q22 0 38 -12.5t24.5 -33t9 -46t-7.5 -51.5l-96 -295q-8 -24 -24.5 -46t-37 -39t-42.5 -27.5t-40 -10.5h-373q-18 0 -33 10.5t-24.5 27.5t-12 39t5.5 46l96 295q8 26 25 51.5t38.5 46t45.5 33t47 12.5h361zM468 264l-138 -117h82q5 0 12.5 8.5t12.5 14.5zM477 414
h-79q-8 -2 -16 -13t-11 -19l-28 -86z" />
    <glyph glyph-name="FL00F9h" unicode="&#xf9;" 
d="M584 777l14 -53q3 -8 4 -15t-2 -17l-4 -11q-4 -11 -8 -19t-15 -18q-25 -20 -44 -20q-20 0 -26 18l-19 50q-3 8 -4.5 14.5t2.5 17.5q5 15 13.5 29t22.5 25q13 11 21.5 13.5t19.5 2.5q20 0 25 -17zM436 170l127 391h224l-142 -438q-8 -23 -24.5 -45t-37 -39t-42.5 -28
t-40 -11h-373q-18 0 -33.5 10.5t-25 27.5t-11.5 39t6 46l142 438h223l-127 -391q1 -6 2.5 -14.5t8.5 -8.5h99q9 0 14.5 8.5t9.5 14.5z" />
    <glyph glyph-name="FL00FAh" unicode="&#xfa;" 
d="M430 561l-127 -391q1 -6 1 -15q0 -8 9 -8h99q7 0 13.5 8.5t11.5 14.5l127 391h223l-142 -438q-8 -24 -24.5 -46t-37 -39t-42.5 -27.5t-40 -10.5h-373q-18 0 -33 11t-24.5 28t-12 39t5.5 45l142 438h224zM501 724l48 53q17 17 37 17q11 0 18.5 -2.5t12.5 -13.5
q6 -11 5.5 -25t-5.5 -29q-4 -11 -9 -17.5t-13 -14.5l-51 -50q-18 -18 -38 -18t-32 20q-5 10 -4 18t5 19l4 11q3 10 8.5 17t13.5 15z" />
    <glyph glyph-name="FL00FBh" unicode="&#xfb;" 
d="M430 561l-127 -391q1 -6 1 -15q0 -8 9 -8h99q7 0 13.5 8.5t11.5 14.5l127 391h223l-142 -438q-8 -24 -24.5 -46t-37 -39t-42.5 -27.5t-40 -10.5h-373q-18 0 -33 11t-24.5 28t-12 39t5.5 45l142 438h224zM481 626h-136l156 166h142l46 -166h-135l-16 64z" />
    <glyph glyph-name="FL00FCh" unicode="&#xfc;" 
d="M430 561l-127 -391q1 -6 1 -15q0 -8 9 -8h99q7 0 13.5 8.5t11.5 14.5l127 391h223l-142 -438q-8 -24 -24.5 -46t-37 -39t-42.5 -27.5t-40 -10.5h-373q-18 0 -33 11t-24.5 28t-12 39t5.5 45l142 438h224zM372 709q11 34 41 57.5t64 23.5t48 -23.5t3 -57.5
q-6 -18 -16.5 -33t-24.5 -26t-30.5 -17t-32.5 -6q-33 0 -48 23.5t-4 58.5zM717 709q-6 -18 -16.5 -33t-24.5 -26t-30.5 -17t-32.5 -6q-33 0 -48.5 23.5t-4.5 58.5q11 34 41.5 57.5t64.5 23.5t48 -23.5t3 -57.5z" />
    <glyph glyph-name="FL00FDh" unicode="&#xfd;" horiz-adv-x="601" 
d="M759 561l-48 -148h-82q-8 -4 -26 -15.5t-37 -27t-35 -33.5t-22 -35l-98 -302h-224l92 284q2 17 -0.5 30t-7 24.5t-10.5 21t-12 20.5q-6 12 -15 18.5t-18 9.5t-16.5 4t-9.5 1h-32l48 148h181q22 0 34.5 -12t20 -28.5t11.5 -33.5t9 -27q1 0 11 13t26.5 30t38.5 33.5
t46 24.5h175zM498 724l48 53q19 17 38 17q10 0 18 -2.5t13 -13.5q10 -22 -1 -54q-4 -11 -9 -17.5t-13 -14.5l-50 -50q-18 -18 -38 -18q-21 0 -33 20q-5 10 -4 18t5 19l4 11q3 10 8.5 17t13.5 15z" />
    <glyph glyph-name="FL00FEh" unicode="&#xfe;" 
d="M206 561h224l-24 -76h236q34 0 50.5 -20.5t21 -50t-0.5 -63.5t-14 -61q-12 -38 -30.5 -75.5t-42.5 -67t-53 -48t-62 -18.5h-237l-26 -81h-224zM468 338h-110l-36 -110h105q8 0 16 5.5t15 14t12 18.5t8 18q2 7 3.5 16t1 17.5t-4 14.5t-10.5 6z" />
    <glyph glyph-name="FL00FFh" unicode="&#xff;" horiz-adv-x="601" 
d="M759 561l-48 -148h-82q-8 -4 -26 -15.5t-37 -27t-35 -33.5t-22 -35l-98 -302h-224l92 284q2 17 -0.5 30t-7 24.5t-10.5 21t-12 20.5q-6 12 -15 18.5t-18 9.5t-16.5 4t-9.5 1h-32l48 148h181q22 0 34.5 -12t20 -28.5t11.5 -33.5t9 -27q1 0 11 13t26.5 30t38.5 33.5
t46 24.5h175zM354 709q11 34 41.5 57.5t63.5 23.5q34 0 48.5 -23.5t3.5 -57.5q-6 -18 -16.5 -33t-25 -26t-31 -17t-32.5 -6q-33 0 -48 23.5t-4 58.5zM700 709q-6 -18 -16.5 -33t-25 -26t-31 -17t-32.5 -6q-33 0 -48 23.5t-4 58.5q11 34 41 57.5t64 23.5t48.5 -23.5
t3.5 -57.5z" />
    <glyph glyph-name="FL0152h" unicode="&#x152;" horiz-adv-x="969" 
d="M1127 561l-47 -147h-274q-8 0 -16.5 -12t-11.5 -20q-4 -11 -1 -21t14 -10h268l-46 -143h-274q-2 0 -11 -9t-14 -15q-2 -2 -2 -7q-2 -6 -3 -7q2 -6 5 -14.5t5 -8.5h274l-48 -147h-817q-18 0 -33 10.5t-24.5 27.5t-12 39t5.5 46l96 295q8 26 25 51.5t38.5 46t45.5 33
t47 12.5h811zM565 414h-165q-8 0 -16.5 -11t-10.5 -19l-70 -214q-2 -10 0.5 -16.5t9.5 -6.5h165z" />
    <glyph glyph-name="FL0153h" unicode="&#x153;" horiz-adv-x="969" 
d="M1127 561l-47 -147h-274q-8 0 -16.5 -12t-11.5 -20q-4 -11 -1 -21t14 -10h268l-46 -143h-274q-2 0 -11 -9t-14 -15q-2 -2 -2 -7q-2 -6 -3 -7q2 -6 5 -14.5t5 -8.5h274l-48 -147h-817q-18 0 -33 10.5t-24.5 27.5t-12 39t5.5 46l96 295q8 26 25 51.5t38.5 46t45.5 33
t47 12.5h811zM565 414h-165q-8 0 -16.5 -11t-10.5 -19l-70 -214q-2 -10 0.5 -16.5t9.5 -6.5h165z" />
    <glyph glyph-name="FL0160h" unicode="&#x160;" horiz-adv-x="614" 
d="M673 255l-37 -114q-8 -24 -25 -49t-38.5 -45.5t-46 -33.5t-46.5 -13h-456l48 147h325q8 0 16 11t11 19l10 33h-238q-16 0 -30.5 11.5t-24 29.5t-12.5 40.5t4 45.5l29 87q8 26 25 50.5t38 44t44.5 31t46.5 11.5h456l-47 -147h-325q-8 0 -16.5 -11t-10.5 -19l-10 -31h240
q16 0 31.5 -7.5t26 -20.5t15 -31t-2.5 -39zM603 792h135l-156 -166h-141l-47 166h135l17 -64z" />
    <glyph glyph-name="FL0161h" unicode="&#x161;" horiz-adv-x="720" 
d="M24 0l48 148h118q7 0 17 7.5t21 18t21 22t16 19.5l182 237q7 10 25 28t40 36t45 31.5t40 13.5h281l-47 -147h-117q-7 0 -18 -7t-22.5 -17.5t-21 -21.5t-14.5 -19l-183 -239q-15 -19 -34.5 -38.5t-41.5 -35.5t-44 -26t-41 -10h-270zM655 792h136l-156 -166h-142l-46 166
h135l17 -64z" />
    <glyph glyph-name="FL0178h" unicode="&#x178;" horiz-adv-x="618" 
d="M552 561h224l-135 -417q-10 -30 -25 -56.5t-33.5 -46t-38.5 -30.5t-41 -11h-475l48 147h313q17 2 25.5 9.5t15.5 27.5l7 23h-242q-18 0 -33 11t-24 28t-11.5 39t4.5 45l75 231h224l-60 -187v-15q0 -9 9 -9h89q5 0 11.5 8t11.5 14zM364 709q11 34 41.5 57.5t64.5 23.5
t48 -23.5t3 -57.5q-6 -18 -16.5 -33t-24.5 -26t-30.5 -17t-32.5 -6q-33 0 -48.5 23.5t-4.5 58.5zM710 709q-6 -18 -16.5 -33t-24.5 -26t-30.5 -17t-32.5 -6q-33 0 -48.5 23.5t-4.5 58.5q11 34 41.5 57.5t64.5 23.5q33 0 47.5 -23.5t3.5 -57.5z" />
    <glyph glyph-name="FL00AFh" unicode="&#x192;" 
d="M705 308q-7 -21 -23 -40.5t-36.5 -34t-41.5 -23t-37 -8.5h-253l-8 -23h-2l2 -2q-3 -8 -2 -19t9 -11h337l-48 -147h-468q-23 0 -38.5 12.5t-24 33t-9 46t7.5 51.5l96 295q7 22 24 44.5t37.5 39.5t42.5 28t40 11h373q18 0 33.5 -10.5t25 -27.5t11.5 -39t-6 -46zM400 414
q-9 0 -14.5 -8.5t-10.5 -14.5l-13 -41h134l13 41q-1 6 -2 14.5t-8 8.5h-99z" />
    <glyph glyph-name="FL02C6h" unicode="&#x2c6;" horiz-adv-x="371" 
d="M277 394h-135l155 166h142l47 -166h-136l-15 64z" />
    <glyph glyph-name="FL02DCh" unicode="&#x2dc;" horiz-adv-x="426" 
d="M595 561h-135l-56 -63l-18 63h-89l-155 -166h135l57 63l16 -63h89z" />
    <glyph glyph-name="FL2013h" unicode="&#x2013;" horiz-adv-x="316" 
d="M138 351l-46 -143h268l46 143h-268z" />
    <glyph glyph-name="FL2014h" unicode="&#x2014;" horiz-adv-x="366" 
d="M138 351l-46 -143h318l46 143h-318z" />
    <glyph glyph-name="FL2018h" unicode="&#x2018;" horiz-adv-x="223" 
d="M144 369l33 101q6 19 18 35.5t28 29t34.5 19.5t36.5 7q36 0 53 -26.5t5 -64.5l-33 -101q-6 -19 -18.5 -35.5t-28.5 -29t-34 -19.5t-36 -7q-37 0 -54 26.5t-4 64.5z" />
    <glyph glyph-name="FL2019h" unicode="&#x2019;" horiz-adv-x="223" 
d="M144 369l33 101q6 19 18 35.5t28 29t34.5 19.5t36.5 7q36 0 53 -26.5t5 -64.5l-33 -101q-6 -19 -18.5 -35.5t-28.5 -29t-34 -19.5t-36 -7q-37 0 -54 26.5t-4 64.5z" />
    <glyph glyph-name="FL201Ah" unicode="&#x201a;" horiz-adv-x="236" 
d="M20 -11l34 103q6 19 19 36t30 29.5t36.5 19.5t38.5 7q39 0 58 -26.5t6 -65.5l-34 -103q-6 -20 -18.5 -36.5t-29.5 -29t-36.5 -19.5t-38.5 -7q-38 0 -57.5 26.5t-7.5 65.5z" />
    <glyph glyph-name="FL201Ch" unicode="&#x201c;" horiz-adv-x="403" 
d="M332 369l33 101q6 19 18 35.5t27 29t32.5 19.5t35.5 7q35 0 50.5 -26.5t3.5 -64.5l-33 -101q-6 -19 -18 -35.5t-27.5 -29t-33 -19.5t-34.5 -7q-35 0 -51 26.5t-3 64.5zM144 368l32 101q6 19 18 35.5t27.5 29t33 19.5t35.5 7q34 0 50 -26.5t3 -64.5l-32 -101
q-6 -19 -18 -35.5t-27.5 -29t-33 -19.5t-34.5 -7q-35 0 -51 26.5t-3 64.5z" />
    <glyph glyph-name="FL201Dh" unicode="&#x201d;" horiz-adv-x="403" 
d="M332 369l33 101q6 19 18 35.5t27 29t32.5 19.5t35.5 7q35 0 50.5 -26.5t3.5 -64.5l-33 -101q-6 -19 -18 -35.5t-27.5 -29t-33 -19.5t-34.5 -7q-35 0 -51 26.5t-3 64.5zM144 368l32 101q6 19 18 35.5t27.5 29t33 19.5t35.5 7q34 0 50 -26.5t3 -64.5l-32 -101
q-6 -19 -18 -35.5t-27.5 -29t-33 -19.5t-34.5 -7q-35 0 -51 26.5t-3 64.5z" />
    <glyph glyph-name="FL201Eh" unicode="&#x201e;" horiz-adv-x="446" 
d="M230 -11l34 103q6 19 19.5 36t30.5 29.5t36.5 19.5t38.5 7q38 0 57 -26.5t6 -65.5l-34 -103q-6 -20 -18.5 -36.5t-29 -29t-36 -19.5t-38.5 -7q-38 0 -58 26.5t-8 65.5zM20 -11l34 103q6 19 19 36t30 29.5t36.5 19.5t38.5 7q39 0 58 -26.5t6 -65.5l-34 -103
q-6 -20 -18.5 -36.5t-29.5 -29t-36.5 -19.5t-38.5 -7q-38 0 -57.5 26.5t-7.5 65.5z" />
    <glyph glyph-name="FL2020h" unicode="&#x2020;" horiz-adv-x="350" 
d="M469 561l-35 -108h39l-46 -143h-39l-101 -310h-224l101 310h-39l46 143h39l35 108h224z" />
    <glyph glyph-name="FL2021h" unicode="&#x2021;" horiz-adv-x="350" 
d="M469 561l-35 -108h39l-46 -143h-39l-19 -59h39l-47 -143h-39l-35 -108h-224l35 108h-39l47 143h39l19 59h-39l46 143h39l35 108h224z" />
    <glyph glyph-name="FL2022h" unicode="&#x2022;" 
d="M677 561q22 0 38 -12.5t24.5 -33t9 -46t-7.5 -51.5l-96 -295q-8 -24 -24.5 -46t-37 -39t-42.5 -27.5t-40 -10.5h-373q-18 0 -33 10.5t-24.5 27.5t-12 39t5.5 46l96 295q8 26 25 51.5t38.5 46t45.5 33t47 12.5h361z" />
    <glyph glyph-name="FL2026h" unicode="&#x2026;" horiz-adv-x="654" 
d="M472 92q6 19 19 36t30 29.5t36.5 19.5t38.5 7q38 0 57.5 -26.5t6.5 -65.5q-6 -20 -19 -36.5t-30 -29t-36.5 -19.5t-38.5 -7q-38 0 -57.5 26.5t-6.5 65.5zM263 92q6 19 19 36t30 29.5t36.5 19.5t38.5 7q38 0 57.5 -26.5t6.5 -65.5q-6 -20 -19 -36.5t-30 -29t-36.5 -19.5
t-38.5 -7q-38 0 -57.5 26.5t-6.5 65.5zM54 92q6 19 19 36t30 29.5t36.5 19.5t38.5 7q39 0 58 -26.5t6 -65.5q-6 -20 -19 -36.5t-30 -29t-36.5 -19.5t-38.5 -7q-38 0 -57.5 26.5t-6.5 65.5z" />
    <glyph glyph-name="FL2030h" unicode="&#x2030;" horiz-adv-x="1054" 
d="M280 391l17 53q3 7 7 8h25q2 0 2 -3t-1 -5l-17 -53q-2 -6 -6 -6h-25q-4 0 -2 6zM600 111l17 53q3 6 7 8h25q2 0 2.5 -3t-0.5 -5l-17 -53q-3 -6 -7 -6h-25q-4 0 -2 6zM762 280h-183l295 281h-226l-219 -208l44 136q8 26 0 48.5t-31 22.5h-181q-11 0 -23 -6.5t-23 -16.5
t-19.5 -22.5t-12.5 -25.5l-48 -148q-8 -24 3.5 -42.5t28.5 -18.5h185l-294 -280h227l217 207l-47 -146q-8 -24 3.5 -42.5t28.5 -18.5h187q9 0 20 5t21 13.5t18.5 19.5t12.5 23l48 148q8 26 -0.5 48.5t-31.5 22.5zM1066 280h-181q-11 0 -23 -6.5t-23 -16.5t-19.5 -22.5
t-12.5 -25.5l-48 -148q-8 -24 3.5 -42.5t28.5 -18.5h187q9 0 20 5t21 13.5t18.5 19.5t12.5 23l48 148q8 26 -0.5 48.5t-31.5 22.5zM904 111l17 53q3 6 7 8h25q2 0 2.5 -3t-0.5 -5l-17 -53q-3 -6 -7 -6h-25q-4 0 -2 6z" />
    <glyph glyph-name="FL2039h" unicode="&#x2039;" horiz-adv-x="243" 
d="M267 279l75 67l-48 101l-189 -168l80 -169l114 101z" />
    <glyph glyph-name="FL203Ah" unicode="&#x203a;" horiz-adv-x="243" 
d="M158 279l-32 67l113 101l82 -168l-191 -169l-47 101z" />
    <glyph glyph-name="FL2122h" unicode="&#x2122;" horiz-adv-x="1250" 
d="M382 414l-36 -110h106q8 0 16 5.5t15 14t12 18.5t8 18q2 7 3.5 16t1 17.5t-4 14.5t-10.5 6h-111zM24 0l182 561h460q34 0 50.5 -20.5t21 -50t0 -63.5t-13.5 -61q-12 -38 -30.5 -75.5t-42.5 -67t-53 -48t-62 -18.5h-238l-51 -157h-223zM554 0l48 148h118q7 0 17 7.5t21 18
t21 22t17 19.5l181 237q7 9 25.5 27.5t41 36.5t45 31.5t39.5 13.5h280l-47 -147h-116q-8 0 -19 -7t-22 -17.5t-21 -21.5t-15 -19l-182 -239q-15 -19 -35 -38.5t-41.5 -35.5t-43.5 -26t-42 -10h-270z" />
    <glyph glyph-name="FL017Dh" horiz-adv-x="894" 
d="M867 0v148h-147q-9 0 -18.5 7.5t-18.5 18t-17 22t-13 19.5l-131 237q-5 10 -20 28t-35.5 36t-44 31.5t-44.5 13.5h-351v-147h146q9 0 19.5 -7t20.5 -17.5t17.5 -21.5t10.5 -19l132 -239q10 -19 27 -38.5t38 -35.5t44.5 -26t47.5 -10h337zM399 792h-169l127 -166h177
l126 166h-169l-46 -64z" />
    </font>
</defs>
</svg>
