<?xml version="1.0" standalone="no"?>
<!DOCTYPE svg PUBLIC "-//W3C//DTD SVG 1.1//EN" "http://www.w3.org/Graphics/SVG/1.1/DTD/svg11.dtd" >
<svg xmlns="http://www.w3.org/2000/svg" xmlns:xlink="http://www.w3.org/1999/xlink" version="1.1">
<metadata>
Created by FontForge 20170731 at Fri Jun 28 15:10:41 2013
 By Aleksey,,,
Instruction (c) (Neale Davidson). 2012. All Rights Reserved
</metadata>
<defs>
<font id="Instruction-Italic" horiz-adv-x="1200" >
  <font-face 
    font-family="Instruction"
    font-weight="400"
    font-style="italic"
    font-stretch="normal"
    units-per-em="2048"
    panose-1="2 0 5 0 0 0 0 0 0 0"
    ascent="1638"
    descent="-410"
    x-height="1500"
    cap-height="1500"
    bbox="-58 -400 1593 2300"
    underline-thickness="150"
    underline-position="-442"
    unicode-range="U+0020-F002"
  />
<missing-glyph horiz-adv-x="1650" 
d="M0 200v1100q0 200 200 200h1100q200 0 200 -200v-1100q0 -200 -200 -200h-1100q-200 0 -200 200zM1475 201v1099q0 175 -175 175h-1100q-174 0 -175 -175v-1100q1 -175 175 -175h1101q174 0 174 176z" />
    <glyph glyph-name=".notdef" horiz-adv-x="1650" 
d="M0 200v1100q0 200 200 200h1100q200 0 200 -200v-1100q0 -200 -200 -200h-1100q-200 0 -200 200zM1475 201v1099q0 175 -175 175h-1100q-174 0 -175 -175v-1100q1 -175 175 -175h1101q174 0 174 176z" />
    <glyph glyph-name=".null" horiz-adv-x="0" 
 />
    <glyph glyph-name="nonmarkingreturn" horiz-adv-x="508" 
 />
    <glyph glyph-name="space" unicode=" " 
 />
    <glyph glyph-name="space" unicode="&#xa0;" 
 />
    <glyph glyph-name="exclam" unicode="!" 
d="M407 400q-11 -41 -48.5 -70.5t-78.5 -29.5t-62 30q-15 19 -15 44q0 12 4 26l268 1000q11 41 48.5 70.5t78.5 29.5t63 -29q14 -20 14 -45q0 -12 -4 -26zM317 171q14 -20 14 -45q0 -12 -4 -26q-11 -41 -48.5 -70.5t-78.5 -29.5t-62 30q-15 19 -15 44q0 12 4 26
q11 41 48.5 70.5t78.5 29.5t63 -29z" />
    <glyph glyph-name="quotedbl" unicode="&#x22;" 
d="M475 1400q11 41 48.5 70.5t78.5 29.5t63 -29q14 -20 14 -45q0 -12 -4 -26l-80 -300q-11 -41 -48.5 -70.5t-78.5 -29.5t-62 30q-15 19 -15 44q0 12 4 26zM875 1400q11 41 48.5 70.5t78.5 29.5t63 -29q14 -20 14 -45q0 -12 -4 -26l-80 -300q-11 -41 -48.5 -70.5
t-78.5 -29.5t-62 30q-15 19 -15 44q0 12 4 26z" />
    <glyph glyph-name="numbersign" unicode="#" 
d="M361 600l80 300h-100q-41 0 -62 30q-15 19 -15 44q0 12 4 26q11 41 48.5 70.5t78.5 29.5h100l53 200q11 41 48.5 70.5t78.5 29.5t63 -29q14 -20 14 -45q0 -12 -4 -26l-53 -200h200l53 200q11 41 48.5 70.5t78.5 29.5t63 -29q14 -20 14 -45q0 -12 -4 -26l-53 -200h100
q41 0 63 -29q14 -20 14 -45q0 -12 -4 -26q-11 -41 -48.5 -70.5t-78.5 -29.5h-100l-80 -300h100q41 0 63 -29q14 -20 14 -45q0 -12 -4 -26q-11 -41 -48.5 -70.5t-78.5 -29.5h-100l-53 -200q-11 -41 -48.5 -70.5t-78.5 -29.5t-62 30q-15 19 -15 44q0 12 4 26l53 200h-200
l-53 -200q-11 -41 -48.5 -70.5t-78.5 -29.5t-62 30q-15 19 -15 44q0 12 4 26l53 200h-100q-41 0 -62 30q-15 19 -15 44q0 12 4 26q11 41 48.5 70.5t78.5 29.5h100zM841 900h-200l-80 -300h200z" />
    <glyph glyph-name="dollar" unicode="$" 
d="M962 1350h75q135 0 205 -95q45 -63 45 -143q0 -41 -12 -87q-11 -41 -48.5 -70.5t-78.5 -29.5t-62 30q-15 19 -15 44q0 12 4 26q5 18 5 34q0 30 -18 55q-27 36 -79 36h-75l-80 -300h75q135 0 205 -95q45 -63 45 -143q0 -41 -12 -87l-20 -75h-1q-40 -119 -149 -205
q-121 -95 -256 -95h-75l-13 -50q-11 -41 -48.5 -70.5t-78.5 -29.5t-62 30q-15 19 -15 44q0 12 4 26l13 50h-75q-135 0 -204 95q-46 63 -46 143q0 41 12 87q11 41 48.5 70.5t78.5 29.5t63 -29q14 -20 14 -45q0 -12 -4 -26q-5 -18 -5 -34q0 -30 18 -54q27 -37 79 -37h75
l80 300h-75q-135 0 -204 95q-46 63 -46 143q0 41 12 87l14 50q36 135 156.5 230t255.5 95h75l13 50q11 41 48.5 70.5t78.5 29.5t63 -29q14 -20 14 -45q0 -12 -4 -26zM694 350h75q52 0 99 37q34 27 51 63h2l20 75q5 18 5 34q0 30 -18 55q-27 36 -79 36h-75zM708 1150h-75
q-52 0 -98 -36.5t-60 -88.5l-14 -50q-5 -18 -5 -34q0 -30 18 -54q27 -37 79 -37h75z" />
    <glyph glyph-name="percent" unicode="%" 
d="M853.5 336.5q46.5 36.5 60.5 88.5q5 18 5 34q0 30 -18 55q-27 36 -79 36t-98 -36.5t-60 -88.5q-5 -18 -5 -34q0 -31 18 -54q26 -37 78 -37t98.5 36.5zM678 986.5q46 36.5 60 88.5q5 18 5 34q0 31 -17 55q-27 36 -79 36t-98.5 -36.5t-60.5 -88.5q-5 -18 -5 -34
q0 -30 18 -54q27 -37 79 -37t98 36.5zM818 745q29 5 58 5q135 0 205 -95q45 -63 45 -143q0 -41 -12 -87q-36 -135 -156.5 -230t-255.5 -95t-205 95q-44 60 -45 136l-205 -231q-31 -41 -68.5 -70.5t-78.5 -29.5t-62 30q-15 19 -15 44q0 12 4 26q11 41 67 100l490 555
q-29 -5 -58 -5q-135 0 -204 95q-46 63 -46 143q0 41 12 87q36 135 156.5 230t255.5 95t205 -95q44 -60 45 -136l205 231q31 41 68.5 70.5t78.5 29.5t63 -29q14 -20 14 -45q0 -12 -4 -26q-11 -41 -67 -100z" />
    <glyph glyph-name="ampersand" unicode="&#x26;" 
d="M829.5 916q83.5 66 108.5 159q9 32 9 60q0 55 -32 99q-49 66 -142 66t-176.5 -66t-108.5 -159q-9 -32 -9 -60q0 -55 33 -99q48 -66 141 -66t176.5 66zM1015 850h113q41 0 63 -29q14 -20 14 -45q0 -12 -4 -26q-11 -41 -48.5 -70.5t-78.5 -29.5h-150l-120 -450h150
q41 0 63 -29q14 -20 14 -45q0 -12 -4 -26q-11 -41 -48.5 -70.5t-78.5 -29.5h-475q-176 0 -267 125q-60 82 -60 186q0 54 16 114q47 176 206 301q15 12 32 24q-11 12 -19 25q-61 82 -61 187q0 53 16 113q47 176 205 300.5t334 124.5t267 -124q60 -83 60 -187q0 -54 -16 -114
q-34 -126 -123 -225zM504 200h100l120 450h-124q-94 0 -177.5 -66t-108.5 -159q-9 -32 -9 -60q0 -55 33 -99q48 -66 166 -66z" />
    <glyph glyph-name="quotesingle" unicode="'" 
d="M475 1400q11 41 48.5 70.5t78.5 29.5t63 -29q14 -20 14 -45q0 -12 -4 -26l-80 -300q-11 -41 -48.5 -70.5t-78.5 -29.5t-62 30q-15 19 -15 44q0 12 4 26z" />
    <glyph glyph-name="parenleft" unicode="(" 
d="M1056 1700h150q41 0 63 -29q14 -20 14 -45q0 -12 -4 -26q-11 -41 -48.5 -70.5t-78.5 -29.5h-150q-124 0 -271 -219.5t-230 -530.5q-62 -230 -62 -411q0 -63 8 -119q29 -220 153 -220h150q41 0 63 -29q14 -20 14 -45q0 -12 -4 -26q-11 -41 -48.5 -70.5t-78.5 -29.5h-150
q-207 0 -279 278q-29 112 -29 244q0 193 63 428q106 394 327 672t428 278z" />
    <glyph glyph-name="parenright" unicode=")" 
d="M1085 1422q29 -112 29 -244q0 -193 -63 -428q-106 -394 -327 -672t-428 -278h-150q-41 0 -62 30q-15 19 -15 44q0 12 4 26q11 41 48.5 70.5t78.5 29.5h150q124 0 271 219.5t230 530.5q62 230 62 411q0 63 -8 120q-29 219 -153 219h-150q-41 0 -62 30q-15 19 -15 44
q0 12 4 26q11 41 48.5 70.5t78.5 29.5h150q207 0 279 -278z" />
    <glyph glyph-name="asterisk" unicode="*" 
d="M735 930l-130 -131q-33 -34 -76 -40q-8 -2 -17 -2q-31 0 -53 20t-22 52q0 6 1 13q0 9 2 17q8 31 34 57l132 131l-143 51q-36 12 -43 50q-3 11 -3 23q0 11 3 23q4 15 13 30q23 39 66 58q24 11 48 11q15 0 29 -5l142 -50l43 162q11 41 48.5 70.5t78.5 29.5t63 -29
q14 -20 14 -45q0 -12 -4 -26l-43 -162l168 50q16 5 31 5q24 0 44 -11q31 -19 34 -58v-6q0 -12 -3 -24q-6 -24 -23 -46q-30 -38 -72 -50l-169 -51l60 -131q7 -16 7 -33q0 -12 -3 -24q-2 -8 -5 -17q-18 -41 -58 -65q-32 -20 -63 -20q-9 0 -17 2q-39 6 -54 40z" />
    <glyph glyph-name="plus" unicode="+" 
d="M574 650h-300q-41 0 -62 30q-15 19 -15 44q0 12 4 26q11 41 48.5 70.5t78.5 29.5h300l94 350q11 41 48 70.5t78 29.5t63 -29q15 -20 15 -45q0 -12 -4 -26l-94 -350h300q41 0 63 -29q14 -20 14 -45q0 -12 -4 -26q-11 -41 -48.5 -70.5t-78.5 -29.5h-300l-94 -350
q-11 -41 -48 -70.5t-78 -29.5t-63 30q-15 19 -15 44q0 12 4 26z" />
    <glyph glyph-name="comma" unicode="," 
d="M127 100q11 41 48.5 70.5t78.5 29.5t63 -29q14 -20 14 -45q0 -12 -4 -26l-81 -300q-11 -41 -48 -70.5t-78 -29.5t-63 30q-15 19 -15 44q0 12 4 26z" />
    <glyph glyph-name="hyphen" unicode="-" 
d="M274 650q-41 0 -62 30q-15 19 -15 44q0 12 4 26q11 41 48.5 70.5t78.5 29.5h800q41 0 63 -29q14 -20 14 -45q0 -12 -4 -26q-11 -41 -48.5 -70.5t-78.5 -29.5h-800z" />
    <glyph glyph-name="hyphen" unicode="&#xad;" 
d="M274 650q-41 0 -62 30q-15 19 -15 44q0 12 4 26q11 41 48.5 70.5t78.5 29.5h800q41 0 63 -29q14 -20 14 -45q0 -12 -4 -26q-11 -41 -48.5 -70.5t-78.5 -29.5h-800z" />
    <glyph glyph-name="period" unicode="." 
d="M317 171q14 -20 14 -45q0 -12 -4 -26q-11 -41 -48.5 -70.5t-78.5 -29.5t-62 30q-15 19 -15 44q0 12 4 26q11 41 48.5 70.5t78.5 29.5t63 -29z" />
    <glyph glyph-name="slash" unicode="/" 
d="M247 100q-31 -41 -68.5 -70.5t-78.5 -29.5t-62 30q-15 19 -15 44q0 12 4 26q11 41 67 100l1061 1200q31 41 68.5 70.5t78.5 29.5t63 -29q14 -20 14 -45q0 -12 -4 -26q-11 -41 -67 -100z" />
    <glyph glyph-name="zero" unicode="0" 
d="M389 261q62 -61 165 -61q124 0 235.5 88t144.5 212l134 500q5 19 8 37zM326 463l687 776q-62 61 -165 61q-124 0 -235.5 -88t-144.5 -212l-134 -500q-5 -19 -8 -37zM1268 1254q19 -56 19 -120q0 -63 -19 -134l-134 -500q-55 -207 -241 -353.5t-393 -146.5q-161 0 -262 89
q-27 -34 -59 -59q-38 -30 -79 -30t-62 30q-15 19 -15 44q0 12 4 26q11 41 67 100l40 46q-19 57 -19 120q0 64 19 134l134 500q55 207 241 353.5t393 146.5q161 0 262 -89q27 34 60 60q37 29 78 29t63 -29q14 -20 14 -45q0 -12 -4 -26q-11 -41 -67 -100z" />
    <glyph glyph-name="one" unicode="1" 
d="M454 200l294 1100h-300q-41 0 -62 30q-15 19 -15 44q0 12 4 26q11 41 48.5 70.5t78.5 29.5h400q41 0 63 -29q14 -20 14 -45q0 -12 -4 -26l-321 -1200h300q41 0 63 -29q14 -20 14 -45q0 -12 -4 -26q-11 -41 -48.5 -70.5t-78.5 -29.5h-800q-41 0 -62 30q-15 19 -15 44
q0 12 4 26q11 41 48.5 70.5t78.5 29.5h300z" />
    <glyph glyph-name="two" unicode="2" 
d="M114 425q47 176 205 300.5t334 124.5h150q93 0 176.5 66t108.5 159q9 32 9 60q0 55 -32 99q-49 66 -142 66h-150q-93 0 -176.5 -66t-108.5 -159q-11 -41 -48.5 -70.5t-78.5 -29.5t-62 30q-15 19 -15 44q0 12 4 26q47 176 205 300.5t334 124.5h150q176 0 267 -124
q60 -83 60 -187q0 -54 -16 -114q-47 -176 -205 -300.5t-334 -124.5h-150q-93 0 -176.5 -66t-108.5 -159l-60 -225h700q41 0 63 -29q14 -20 14 -45q0 -12 -4 -26q-11 -41 -48.5 -70.5t-78.5 -29.5h-800q-41 0 -62 30q-15 19 -15 44q0 12 4 26z" />
    <glyph glyph-name="three" unicode="3" 
d="M114 425q11 41 48.5 70.5t78.5 29.5t63 -29q14 -20 14 -45q0 -12 -4 -26q-9 -32 -9 -60q0 -55 33 -99q48 -66 141 -66h150q93 0 176.5 66t108.5 159q9 32 9 60q0 55 -32 99q-49 66 -142 66h-175q-41 0 -62 30q-15 19 -15 44q0 12 4 26q11 41 48.5 70.5t78.5 29.5h175
q93 0 176.5 66t108.5 159q9 32 9 60q0 55 -32 99q-49 66 -142 66h-150q-93 0 -176.5 -66t-108.5 -159q-11 -41 -48.5 -70.5t-78.5 -29.5t-62 30q-15 19 -15 44q0 12 4 26q47 176 205 300.5t334 124.5h150q176 0 267 -124q60 -83 60 -187q0 -54 -16 -114q-47 -176 -204 -300
q-17 -13 -34 -25q11 -12 21 -24q59 -82 59 -186q0 -55 -16 -115q-47 -176 -205 -300.5t-334 -124.5h-150q-176 0 -267 125q-60 82 -60 186q0 54 16 114z" />
    <glyph glyph-name="four" unicode="4" 
d="M1175 1400l-214 -800h100q41 0 63 -29q14 -20 14 -45q0 -12 -4 -26q-11 -41 -48.5 -70.5t-78.5 -29.5h-100l-80 -300q-11 -41 -48.5 -70.5t-78.5 -29.5t-62 30q-15 19 -15 44q0 12 4 26l80 300h-500q-41 0 -62 30q-15 19 -15 44q0 12 4 26q11 41 49 71l18 22l767 821
q28 33 51 53q3 2 5 4q37 29 78 29t63 -29q14 -20 14 -44q0 -13 -4 -27zM448 600h313l126 470z" />
    <glyph glyph-name="five" unicode="5" 
d="M548 1300l-80 -300h375q176 0 267 -124q60 -83 60 -187q0 -54 -16 -114l-40 -150q-47 -176 -205 -300.5t-334 -124.5h-150q-176 0 -267 125q-60 82 -60 186q0 54 16 114q11 41 48.5 70.5t78.5 29.5t63 -29q14 -20 14 -45q0 -12 -4 -26q-9 -32 -9 -60q0 -55 33 -99
q48 -66 141 -66h150q93 0 176.5 66t108.5 159l40 151q9 31 9 60q0 54 -32 98q-49 66 -142 66h-475q-41 0 -62 30q-15 19 -15 44q0 12 4 26l134 500q11 41 48.5 70.5t78.5 29.5h800q41 0 63 -29q14 -20 14 -45q0 -12 -4 -26q-11 -41 -48.5 -70.5t-78.5 -29.5h-700z" />
    <glyph glyph-name="six" unicode="6" 
d="M803 850q176 0 267 -124q60 -83 60 -187q0 -54 -16 -114q-47 -176 -205 -300.5t-334 -124.5h-150q-176 0 -267 125q-60 82 -60 186q0 54 16 114l174 650q47 176 205 300.5t334 124.5h150q176 0 267 -124q60 -83 60 -187q0 -54 -16 -114q-11 -41 -48.5 -70.5t-78.5 -29.5
t-62 30q-15 19 -15 44q0 12 4 26q9 32 9 60q0 55 -32 99q-49 66 -142 66h-150q-93 0 -176.5 -66t-108.5 -159l-77 -288q116 63 242 63h150zM599 650q-93 0 -176.5 -66t-108.5 -159q-9 -32 -9 -60q0 -55 33 -99q48 -66 141 -66h150q93 0 176.5 66t108.5 159q9 32 9 60
q0 55 -32 99q-49 66 -142 66h-150z" />
    <glyph glyph-name="seven" unicode="7" 
d="M669 850l397 450h-618q-41 0 -62 30q-15 19 -15 44q0 12 4 26q11 41 48.5 70.5t78.5 29.5h800q41 0 63 -29q14 -20 14 -45q0 -12 -4 -26q-11 -41 -67 -100l-397 -450h117q41 0 63 -29q14 -20 14 -45q0 -12 -4 -26q-11 -41 -48.5 -70.5t-78.5 -29.5h-241l-486 -550
q-31 -41 -68.5 -70.5t-78.5 -29.5t-62 30q-15 19 -15 44q0 12 4 26q11 41 67 100l397 450h-117q-41 0 -62 30q-15 19 -15 44q0 12 4 26q11 41 48.5 70.5t78.5 29.5h241z" />
    <glyph glyph-name="eight" unicode="8" 
d="M599 650q-93 0 -176.5 -66t-108.5 -159q-9 -32 -9 -60q0 -55 33 -99q48 -66 141 -66h150q93 0 176.5 66t108.5 159q9 32 9 60q0 55 -32 99q-49 66 -142 66h-150zM1050 750q11 -12 21 -24q59 -82 59 -186q0 -55 -16 -115q-47 -176 -205 -300.5t-334 -124.5h-150
q-176 0 -267 125q-60 82 -60 186q0 54 16 114q47 176 206 301q15 12 32 24q-11 12 -19 25q-61 82 -61 187q0 53 16 113q47 176 205 300.5t334 124.5h150q176 0 267 -124q60 -83 60 -187q0 -54 -16 -114q-47 -176 -204 -300q-17 -13 -34 -25zM1088 1075q9 32 9 60
q0 55 -32 99q-49 66 -142 66h-150q-93 0 -176.5 -66t-108.5 -159q-9 -32 -9 -60q0 -55 33 -99q48 -66 141 -66h150q93 0 176.5 66t108.5 159z" />
    <glyph glyph-name="nine" unicode="9" 
d="M599 650q-176 0 -267 125q-60 82 -60 186q0 54 16 114q47 176 205 300.5t334 124.5h150q176 0 267 -124q60 -83 60 -187q0 -54 -16 -114l-174 -650q-47 -176 -205 -300.5t-334 -124.5h-150q-176 0 -267 125q-60 82 -60 186q0 54 16 114q11 41 48.5 70.5t78.5 29.5t63 -29
q14 -20 14 -45q0 -12 -4 -26q-9 -32 -9 -60q0 -55 33 -99q48 -66 141 -66h150q93 0 176.5 66t108.5 159l77 288q-116 -63 -242 -63h-150zM803 850q93 0 176.5 66t108.5 159q9 32 9 60q0 55 -32 99q-49 66 -142 66h-150q-93 0 -176.5 -66t-108.5 -159q-9 -32 -9 -60
q0 -55 33 -99q48 -66 141 -66h150z" />
    <glyph glyph-name="colon" unicode=":" 
d="M317 171q14 -20 14 -45q0 -12 -4 -26q-11 -41 -48.5 -70.5t-78.5 -29.5t-62 30q-15 19 -15 44q0 12 4 26q11 41 48.5 70.5t78.5 29.5t63 -29zM477 771q15 -20 15 -45q0 -12 -4 -26q-11 -41 -48.5 -70.5t-78.5 -29.5t-62 30q-15 19 -15 44q0 12 4 26q11 41 48 70.5
t78 29.5t63 -29z" />
    <glyph glyph-name="semicolon" unicode=";" 
d="M477 771q15 -20 15 -45q0 -12 -4 -26q-11 -41 -48.5 -70.5t-78.5 -29.5t-62 30q-15 19 -15 44q0 12 4 26q11 41 48 70.5t78 29.5t63 -29zM127 100q11 41 48.5 70.5t78.5 29.5t63 -29q14 -20 14 -45q0 -12 -4 -26l-81 -300q-11 -41 -48 -70.5t-78 -29.5t-63 30
q-15 19 -15 44q0 12 4 26z" />
    <glyph glyph-name="semicolon" unicode="&#x37e;" 
d="M477 771q15 -20 15 -45q0 -12 -4 -26q-11 -41 -48.5 -70.5t-78.5 -29.5t-62 30q-15 19 -15 44q0 12 4 26q11 41 48 70.5t78 29.5t63 -29zM127 100q11 41 48.5 70.5t78.5 29.5t63 -29q14 -20 14 -45q0 -12 -4 -26l-81 -300q-11 -41 -48 -70.5t-78 -29.5t-63 30
q-15 19 -15 44q0 12 4 26z" />
    <glyph glyph-name="less" unicode="&#x3c;" 
d="M956 320q15 -19 15 -44q0 -12 -4 -26q-11 -41 -48.5 -70.5t-78.5 -29.5t-63 29l-366 500q-14 20 -14 44q0 13 4 27q11 41 49 71l633 499q38 30 79 30t63 -29q14 -20 14 -45q0 -12 -4 -26q-11 -41 -49 -71l-544 -429z" />
    <glyph glyph-name="equal" unicode="=" 
d="M341 900q-41 0 -62 30q-15 19 -15 44q0 12 4 26q11 41 48.5 70.5t78.5 29.5h800q41 0 63 -29q14 -20 14 -45q0 -12 -4 -26q-11 -41 -48.5 -70.5t-78.5 -29.5h-800zM207 400q-41 0 -62 30q-15 19 -15 44q0 12 4 26q11 41 48.5 70.5t78.5 29.5h800q41 0 63 -29
q14 -20 14 -45q0 -12 -4 -26q-11 -41 -48.5 -70.5t-78.5 -29.5h-800z" />
    <glyph glyph-name="greater" unicode="&#x3e;" 
d="M861 750l-315 429q-15 20 -15 45q0 12 4 26q11 41 48.5 70.5t78.5 29.5t63 -30l366 -499q14 -20 14 -44q0 -13 -4 -27q-11 -41 -48 -71l-634 -500q-38 -29 -79 -29t-62 30q-15 19 -15 44q0 12 4 26q11 41 49 70z" />
    <glyph glyph-name="question" unicode="?" 
d="M214 425q47 176 205 300.5t334 124.5h50q93 0 176.5 66t108.5 159q9 32 9 60q0 55 -32 99q-49 66 -142 66h-150q-93 0 -176.5 -66t-108.5 -159q-11 -41 -48.5 -70.5t-78.5 -29.5t-62 30q-15 19 -15 44q0 12 4 26q47 176 205 300.5t334 124.5h150q176 0 267 -124
q60 -83 60 -187q0 -54 -16 -114q-47 -176 -205 -300.5t-334 -124.5h-50q-93 0 -176.5 -66t-108.5 -159l-7 -25q-11 -41 -48.5 -70.5t-78.5 -29.5t-62 30q-15 19 -15 44q0 12 4 26zM317 171q14 -20 14 -45q0 -12 -4 -26q-11 -41 -48.5 -70.5t-78.5 -29.5t-62 30
q-15 19 -15 44q0 12 4 26q11 41 48.5 70.5t78.5 29.5t63 -29z" />
    <glyph glyph-name="at" unicode="@" 
d="M928.5 644q55.5 44 72.5 106q6 21 6 40q0 37 -21 66q-33 44 -95 44t-117.5 -44t-72.5 -106q-6 -21 -6 -40q0 -37 22 -66q32 -44 94 -44t117.5 44zM1079 1071v10q0 73 -42 131q-65 88 -189 88t-235.5 -88t-144.5 -212l-134 -500q-11 -42 -11 -80q0 -74 43 -132
q64 -88 188 -88h400q41 0 63 -29q14 -20 14 -45q0 -12 -4 -26q-11 -41 -48.5 -70.5t-78.5 -29.5h-400q-207 0 -314 147q-71 96 -71 219q0 64 19 134l134 500q55 207 241 353.5t393 146.5t314 -146q71 -97 71 -220q0 -64 -19 -134l-80 -300l-3 1q-46 -114 -152 -198
q-131 -103 -276 -103t-220 103q-49 67 -49 153q0 44 13 94q39 145 169 247.5t275 102.5q77 0 134 -29z" />
    <glyph glyph-name="A" unicode="A" 
d="M345 300l-103 -180q-36 -61 -68.5 -90.5t-73.5 -29.5t-62 30q-15 19 -15 44q0 12 4 26q9 34 41 80l712 1240h2q13 28 42 50q37 30 78 30t63 -30q13 -19 13 -41v-9h2l48 -1240q4 -22 4 -41q0 -21 -5 -39q-11 -41 -48.5 -70.5t-78.5 -29.5t-57.5 29.5t-20.5 90.5l-7 180
h-470zM808 500l-21 572l-327 -572h348z" />
    <glyph glyph-name="B" unicode="B" 
d="M575 0h-475q-41 0 -62 30q-15 19 -15 44q0 12 4 26l348 1300q11 41 48.5 70.5t78.5 29.5h475q176 0 267 -124q60 -83 60 -187q0 -54 -16 -114q-47 -176 -204 -300q-17 -13 -34 -25q11 -12 21 -24q59 -82 59 -186q0 -55 -16 -115q-47 -176 -205 -300.5t-334 -124.5z
M923 1300h-375l-120 -450h375q93 0 176.5 66t108.5 159q9 32 9 60q0 55 -32 99q-49 66 -142 66zM749 650h-375l-120 -450h375q93 0 176.5 66t108.5 159q9 32 9 60q0 55 -32 99q-49 66 -142 66z" />
    <glyph glyph-name="C" unicode="C" 
d="M934 500q11 41 48.5 70.5t78.5 29.5t63 -29q14 -20 14 -45q0 -12 -4 -26q-55 -207 -241 -353.5t-393 -146.5t-314 147q-71 96 -71 219q0 64 19 134l134 500q55 207 241 353.5t393 146.5t314 -146q71 -97 71 -220q0 -64 -19 -134q-11 -41 -48.5 -70.5t-78.5 -29.5t-62 30
q-15 19 -15 44q0 12 4 26q11 42 11 80q0 74 -42 132q-65 88 -189 88t-235.5 -88t-144.5 -212l-134 -500q-11 -42 -11 -80q0 -74 43 -132q64 -88 188 -88t235.5 88t144.5 212z" />
    <glyph glyph-name="D" unicode="D" 
d="M100 0q-41 0 -62 30q-15 19 -15 44q0 12 4 26l348 1300q11 41 48.5 70.5t78.5 29.5h400q207 0 314 -146q71 -97 71 -220q0 -64 -19 -134l-134 -500q-55 -207 -241 -353.5t-393 -146.5h-400zM548 1300l-294 -1100h300q124 0 235.5 88t144.5 212l134 500q11 42 11 80
q0 74 -42 132q-65 88 -189 88h-300z" />
    <glyph glyph-name="E" unicode="E" 
d="M954 200q41 0 63 -29q14 -20 14 -45q0 -12 -4 -26q-11 -41 -48.5 -70.5t-78.5 -29.5h-800q-41 0 -62 30q-15 19 -15 44q0 12 4 26l348 1300q11 41 48.5 70.5t78.5 29.5h800q41 0 63 -29q14 -20 14 -45q0 -12 -4 -26q-11 -41 -48.5 -70.5t-78.5 -29.5h-700l-120 -450h600
q41 0 63 -29q14 -20 14 -45q0 -12 -4 -26q-11 -41 -48.5 -70.5t-78.5 -29.5h-600l-120 -450h700z" />
    <glyph glyph-name="F" unicode="F" 
d="M227 100q-11 -41 -48.5 -70.5t-78.5 -29.5t-62 30q-15 19 -15 44q0 12 4 26l348 1300q11 41 48.5 70.5t78.5 29.5h800q41 0 63 -29q14 -20 14 -45q0 -12 -4 -26q-11 -41 -48.5 -70.5t-78.5 -29.5h-700l-120 -450h600q41 0 63 -29q14 -20 14 -45q0 -12 -4 -26
q-11 -41 -48.5 -70.5t-78.5 -29.5h-600z" />
    <glyph glyph-name="G" unicode="G" 
d="M1027 100q-11 -41 -48.5 -70.5t-78.5 -29.5t-62 30q-15 19 -15 44q0 12 4 25q-156 -99 -327 -99q-207 0 -314 147q-71 96 -71 219q0 64 19 134l134 500q55 207 241 353.5t393 146.5t314 -146q71 -97 71 -220q0 -64 -19 -134q-11 -41 -48.5 -70.5t-78.5 -29.5t-62 30
q-15 19 -15 44q0 12 4 26q11 42 11 80q0 74 -42 132q-65 88 -189 88t-235.5 -88t-144.5 -212l-134 -500q-11 -42 -11 -80q0 -74 43 -132q64 -88 188 -88t235.5 88t144.5 212l13 50h-350q-41 0 -62 30q-15 19 -15 44q0 12 4 26q11 41 48.5 70.5t78.5 29.5h450q41 0 63 -29
q14 -20 14 -45q0 -12 -4 -26z" />
    <glyph glyph-name="H" unicode="H" 
d="M974 650h-600l-147 -550q-11 -41 -48.5 -70.5t-78.5 -29.5t-62 30q-15 19 -15 44q0 12 4 26l348 1300q11 41 48.5 70.5t78.5 29.5t63 -29q14 -20 14 -45q0 -12 -4 -26l-147 -550h600l147 550q11 41 48.5 70.5t78.5 29.5t63 -29q14 -20 14 -45q0 -12 -4 -26l-348 -1300
q-11 -41 -48.5 -70.5t-78.5 -29.5t-62 30q-15 19 -15 44q0 12 4 26z" />
    <glyph glyph-name="I" unicode="I" 
d="M454 200l294 1100h-300q-41 0 -62 30q-15 19 -15 44q0 12 4 26q11 41 48.5 70.5t78.5 29.5h800q41 0 63 -29q14 -20 14 -45q0 -12 -4 -26q-11 -41 -48.5 -70.5t-78.5 -29.5h-300l-294 -1100h300q41 0 63 -29q14 -20 14 -45q0 -12 -4 -26q-11 -41 -48.5 -70.5t-78.5 -29.5
h-800q-41 0 -62 30q-15 19 -15 44q0 12 4 26q11 41 48.5 70.5t78.5 29.5h300z" />
    <glyph glyph-name="J" unicode="J" 
d="M182.5 570.5q37.5 29.5 78.5 29.5t63 -29q14 -20 14 -45q0 -12 -4 -26q-11 -42 -11 -80q0 -74 43 -132q64 -88 188 -88t235.5 88t144.5 212l241 900q11 41 48.5 70.5t78.5 29.5t63 -29q14 -20 14 -45q0 -12 -4 -26l-241 -900q-55 -207 -241 -353.5t-393 -146.5t-314 147
q-71 96 -71 219q0 64 19 134q11 41 48.5 70.5z" />
    <glyph glyph-name="K" unicode="K" 
d="M582 718l-244 -203l-111 -415q-11 -41 -48.5 -70.5t-78.5 -29.5t-62 30q-15 19 -15 44q0 12 4 26l348 1300q11 41 48.5 70.5t78.5 29.5t63 -29q14 -20 14 -45q0 -12 -4 -26l-162 -606l772 641q18 19 39 36q37 29 78 29t63 -29q14 -20 14 -45q0 -12 -4 -26
q-11 -41 -48 -70q-26 -21 -44 -30l-512 -426q4 -11 7 -24l236 -650q16 -40 16 -72q0 -15 -3 -28q-11 -41 -48.5 -70.5t-78.5 -29.5t-62.5 29.5t-30.5 70.5z" />
    <glyph glyph-name="L" unicode="L" 
d="M575 1400l-321 -1200h700q41 0 63 -29q14 -20 14 -45q0 -12 -4 -26q-11 -41 -48.5 -70.5t-78.5 -29.5h-800q-41 0 -62 30q-15 19 -15 44q0 12 4 26l348 1300q11 41 48.5 70.5t78.5 29.5t63 -29q14 -20 14 -45q0 -12 -4 -26z" />
    <glyph glyph-name="M" unicode="M" 
d="M1375 1400l-348 -1300q-11 -41 -48.5 -70.5t-78.5 -29.5t-62 30q-15 19 -15 44q0 12 4 26l169 633l-375 -653h-2q-12 -28 -40 -50q-38 -30 -79 -30t-62 30q-15 20 -15 44v6h-2l-25 653l-169 -633q-11 -41 -48.5 -70.5t-78.5 -29.5t-62 30q-15 19 -15 44q0 12 4 26
l348 1300q11 41 49 71q37 29 78 29t63 -29q16 -22 16 -70q0 -10 -1 -21l35 -952l545 952q44 68 69 91q32 29 73 29t63 -29q14 -20 14 -45q0 -12 -4 -26z" />
    <glyph glyph-name="N" unicode="N" 
d="M595 1400l328 -941l252 941q11 41 48.5 70.5t78.5 29.5t63 -29q14 -20 14 -45q0 -12 -4 -26l-348 -1300q-11 -41 -48.5 -70.5t-78.5 -29.5t-62.5 29.5t-30.5 70.5l-328 941l-252 -941q-11 -41 -48.5 -70.5t-78.5 -29.5t-62 30q-15 19 -15 44q0 12 4 26l348 1300
q11 41 48.5 70.5t78.5 29.5t62.5 -29.5t30.5 -70.5z" />
    <glyph glyph-name="O" unicode="O" 
d="M1134 500q-55 -207 -241 -353.5t-393 -146.5t-314 147q-71 96 -71 219q0 64 19 134l134 500q55 207 241 353.5t393 146.5t314 -146q71 -97 71 -220q0 -64 -19 -134zM334 500q-11 -42 -11 -80q0 -74 43 -132q64 -88 188 -88t235.5 88t144.5 212l134 500q11 42 11 80
q0 74 -42 132q-65 88 -189 88t-235.5 -88t-144.5 -212z" />
    <glyph glyph-name="P" unicode="P" 
d="M749 650h-375l-147 -550q-11 -41 -48.5 -70.5t-78.5 -29.5t-62 30q-15 19 -15 44q0 12 4 26l348 1300q11 41 48.5 70.5t78.5 29.5h475q176 0 267 -124q60 -83 60 -187q0 -54 -16 -114q-47 -176 -205 -300.5t-334 -124.5zM923 1300h-375l-120 -450h375q93 0 176.5 66
t108.5 159q9 32 9 60q0 55 -32 99q-49 66 -142 66z" />
    <glyph glyph-name="Q" unicode="Q" 
d="M913 441q13 28 21 59l134 500q11 42 11 80q0 74 -42 132q-65 88 -189 88t-235.5 -88t-144.5 -212l-134 -500q-11 -42 -11 -80q0 -74 43 -132q64 -88 188 -88q98 0 188 55l-81 195q-17 41 -17 73q0 14 3 27q11 41 48.5 70.5t78.5 29.5t62.5 -29.5t30.5 -70.5zM810 89
q-149 -89 -310 -89q-207 0 -314 147q-71 96 -71 219q0 64 19 134l134 500q55 207 241 353.5t393 146.5t314 -146q71 -97 71 -220q0 -64 -19 -134l-134 -500q-38 -143 -139 -257l19 -43q16 -40 16 -72q0 -15 -3 -28q-11 -41 -48.5 -70.5t-78.5 -29.5t-62 30q-19 25 -28 59z
" />
    <glyph glyph-name="R" unicode="R" 
d="M923 1300h-375l-120 -450h375q93 0 176.5 66t108.5 159q9 32 9 60q0 55 -32 99q-49 66 -142 66zM614 650h-240l-147 -550q-11 -41 -48.5 -70.5t-78.5 -29.5t-62 30q-15 19 -15 44q0 12 4 26l348 1300q11 41 48.5 70.5t78.5 29.5h475q176 0 267 -124q60 -83 60 -187
q0 -54 -16 -114q-47 -176 -204 -300q-112 -88 -232 -114l162 -461q16 -40 16 -72q0 -15 -3 -28q-11 -41 -48.5 -70.5t-78.5 -29.5t-62.5 29.5t-30.5 70.5z" />
    <glyph glyph-name="S" unicode="S" 
d="M1288 1075q-11 -41 -48.5 -70.5t-78.5 -29.5t-62 30q-15 19 -15 44q0 12 4 26q9 32 9 60q0 55 -32 99q-49 66 -142 66h-150q-93 0 -176.5 -66t-108.5 -159q-9 -32 -9 -60q0 -55 33 -99q48 -66 141 -66h150q176 0 267 -124q60 -83 60 -187q0 -54 -16 -114
q-47 -176 -205 -300.5t-334 -124.5h-150q-176 0 -267 125q-60 82 -60 186q0 54 16 114q11 41 48.5 70.5t78.5 29.5t63 -29q14 -20 14 -45q0 -12 -4 -26q-9 -32 -9 -60q0 -55 33 -99q48 -66 141 -66h150q93 0 176.5 66t108.5 159q9 32 9 60q0 55 -32 99q-49 66 -142 66h-150
q-176 0 -267 125q-60 82 -60 186q0 54 16 114q47 176 205 300.5t334 124.5h150q176 0 267 -124q60 -83 60 -187q0 -54 -16 -114z" />
    <glyph glyph-name="T" unicode="T" 
d="M948 1300l-321 -1200q-11 -41 -48.5 -70.5t-78.5 -29.5t-62 30q-15 19 -15 44q0 12 4 26l321 1200h-300q-41 0 -62 30q-15 19 -15 44q0 12 4 26q11 41 48.5 70.5t78.5 29.5h800q41 0 63 -29q14 -20 14 -45q0 -12 -4 -26q-11 -41 -48.5 -70.5t-78.5 -29.5h-300z" />
    <glyph glyph-name="U" unicode="U" 
d="M375 1400q11 41 48.5 70.5t78.5 29.5t63 -29q14 -20 14 -45q0 -12 -4 -26l-241 -900q-11 -42 -11 -80q0 -74 43 -132q64 -88 188 -88t235.5 88t144.5 212l241 900q11 41 48.5 70.5t78.5 29.5t63 -29q14 -20 14 -45q0 -12 -4 -26l-241 -900q-55 -207 -241 -353.5
t-393 -146.5t-314 147q-71 96 -71 219q0 64 19 134z" />
    <glyph glyph-name="V" unicode="V" 
d="M500 0q-41 0 -62 30q-15 20 -15 44v6h-2l-47 1240q-4 22 -4 41q0 21 5 39q11 41 48.5 70.5t78.5 29.5t57.5 -29.5t20.5 -90.5l35 -952l545 952q36 61 68.5 90.5t73.5 29.5t63 -29q14 -20 14 -45q0 -12 -4 -26q-9 -34 -41 -80l-713 -1240h-2q-12 -28 -40 -50
q-38 -30 -79 -30z" />
    <glyph glyph-name="W" unicode="W" 
d="M701 751l-274 -651q-11 -41 -48.5 -70.5t-78.5 -29.5t-62 30q-15 19 -15 44q0 12 4 26l145 1269v6q0 11 3 25q11 41 48.5 70.5t78.5 29.5t63 -29q14 -20 14 -45q0 -12 -4 -26l-74 -650l274 650q11 41 48.5 70.5t78.5 29.5t63 -29q14 -20 14 -45q0 -12 -4 -26l-74 -650
l274 650q11 41 48.5 70.5t78.5 29.5t63 -29q14 -20 14 -45q0 -12 -4 -26q-4 -17 -13 -31l-535 -1269q-11 -41 -48.5 -70.5t-78.5 -29.5t-62 30q-15 19 -15 44q0 12 4 26z" />
    <glyph glyph-name="X" unicode="X" 
d="M648 554l-401 -454q-31 -41 -68.5 -70.5t-78.5 -29.5t-62 30q-15 19 -15 44q0 12 4 26q11 41 67 100l486 550l-192 550q-16 40 -16 72q0 15 3 28q11 41 48.5 70.5t78.5 29.5t62.5 -29.5t30.5 -70.5l158 -454l402 454q31 41 68.5 70.5t78.5 29.5t63 -29q14 -20 14 -45
q0 -12 -4 -26q-11 -41 -67 -100l-486 -550l192 -550q16 -40 16 -72q0 -15 -3 -28q-11 -41 -48.5 -70.5t-78.5 -29.5t-62.5 29.5t-30.5 70.5z" />
    <glyph glyph-name="Y" unicode="Y" 
d="M592 716l-12 34l-192 550q-16 40 -16 72q0 15 3 28q11 41 48.5 70.5t78.5 29.5t62.5 -29.5t30.5 -70.5l158 -454l402 454q31 41 68.5 70.5t78.5 29.5t63 -29q14 -20 14 -45q0 -12 -4 -26q-11 -41 -67 -100l-486 -550l-30 -34l-165 -616q-11 -41 -48.5 -70.5t-78.5 -29.5
t-62 30q-15 19 -15 44q0 12 4 26z" />
    <glyph glyph-name="Z" unicode="Z" 
d="M733 650l-397 -450h618q41 0 63 -29q14 -20 14 -45q0 -12 -4 -26q-11 -41 -48.5 -70.5t-78.5 -29.5h-800q-41 0 -62 30q-15 19 -15 44q0 12 4 26q11 41 67 100l397 450h-117q-41 0 -62 30q-15 19 -15 44q0 12 4 26q11 41 48.5 70.5t78.5 29.5h241l397 450h-618
q-41 0 -62 30q-15 19 -15 44q0 12 4 26q11 41 48.5 70.5t78.5 29.5h800q41 0 63 -29q14 -20 14 -45q0 -12 -4 -26q-11 -41 -67 -100l-397 -450h117q41 0 63 -29q14 -20 14 -45q0 -12 -4 -26q-11 -41 -48.5 -70.5t-78.5 -29.5h-241z" />
    <glyph glyph-name="bracketleft" unicode="[" 
d="M529 1600q11 41 48.5 70.5t78.5 29.5h600q41 0 63 -29q14 -20 14 -45q0 -12 -4 -26q-11 -41 -48.5 -70.5t-78.5 -29.5h-500l-402 -1500h500q41 0 63 -29q14 -20 14 -45q0 -12 -4 -26q-11 -41 -48.5 -70.5t-78.5 -29.5h-600q-41 0 -62 30q-15 19 -15 44q0 12 4 26z" />
    <glyph glyph-name="backslash" unicode="\" 
d="M388 1300q-16 40 -16 72q0 15 3 28q11 41 48.5 70.5t78.5 29.5t62.5 -29.5t30.5 -70.5l419 -1200q16 -40 16 -72q0 -15 -3 -28q-11 -41 -48.5 -70.5t-78.5 -29.5t-62.5 29.5t-30.5 70.5z" />
    <glyph glyph-name="bracketright" unicode="]" 
d="M873 -100q-11 -41 -48.5 -70.5t-78.5 -29.5h-600q-41 0 -62 30q-15 19 -15 44q0 12 4 26q11 41 48.5 70.5t78.5 29.5h500l402 1500h-500q-41 0 -62 30q-15 19 -15 44q0 12 4 26q11 41 48.5 70.5t78.5 29.5h600q41 0 63 -29q14 -20 14 -45q0 -12 -4 -26z" />
    <glyph glyph-name="asciicircum" unicode="^" 
d="M1053 2060l-418 -330q-38 -30 -79 -30t-63 30q-15 19 -15 44q0 12 4 26q11 41 49 71l508 400q36 29 77 29t64 -29l292 -400q14 -20 14 -44q0 -13 -4 -27q-11 -41 -48 -70.5t-78 -29.5t-62 30z" />
    <glyph glyph-name="underscore" unicode="_" 
d="M873 -100q41 0 63 -29q14 -20 14 -45q0 -12 -4 -26q-11 -41 -48 -70.5t-78 -29.5h-800q-41 0 -63 30q-15 19 -15 44q0 12 4 26q11 41 48.5 70.5t78.5 29.5h800z" />
    <glyph glyph-name="grave" unicode="`" 
d="M801 2130q-15 20 -15 46q0 11 3 24q11 41 48.5 70.5t78.5 29.5t64 -29l292 -400q14 -20 14 -44q0 -13 -4 -27q-11 -41 -48 -70.5t-78 -29.5t-62 30z" />
    <glyph glyph-name="a" unicode="a" 
d="M345 300l-103 -180q-36 -61 -68.5 -90.5t-73.5 -29.5t-62 30q-15 19 -15 44q0 12 4 26q9 34 41 80l712 1240h2q13 28 42 50q37 30 78 30t63 -30q13 -19 13 -41v-9h2l48 -1240q4 -22 4 -41q0 -21 -5 -39q-11 -41 -48.5 -70.5t-78.5 -29.5t-57.5 29.5t-20.5 90.5l-7 180
h-470zM808 500l-21 572l-327 -572h348z" />
    <glyph glyph-name="b" unicode="b" 
d="M575 0h-475q-41 0 -62 30q-15 19 -15 44q0 12 4 26l348 1300q11 41 48.5 70.5t78.5 29.5h475q176 0 267 -124q60 -83 60 -187q0 -54 -16 -114q-47 -176 -204 -300q-17 -13 -34 -25q11 -12 21 -24q59 -82 59 -186q0 -55 -16 -115q-47 -176 -205 -300.5t-334 -124.5z
M923 1300h-375l-120 -450h375q93 0 176.5 66t108.5 159q9 32 9 60q0 55 -32 99q-49 66 -142 66zM749 650h-375l-120 -450h375q93 0 176.5 66t108.5 159q9 32 9 60q0 55 -32 99q-49 66 -142 66z" />
    <glyph glyph-name="c" unicode="c" 
d="M934 500q11 41 48.5 70.5t78.5 29.5t63 -29q14 -20 14 -45q0 -12 -4 -26q-55 -207 -241 -353.5t-393 -146.5t-314 147q-71 96 -71 219q0 64 19 134l134 500q55 207 241 353.5t393 146.5t314 -146q71 -97 71 -220q0 -64 -19 -134q-11 -41 -48.5 -70.5t-78.5 -29.5t-62 30
q-15 19 -15 44q0 12 4 26q11 42 11 80q0 74 -42 132q-65 88 -189 88t-235.5 -88t-144.5 -212l-134 -500q-11 -42 -11 -80q0 -74 43 -132q64 -88 188 -88t235.5 88t144.5 212z" />
    <glyph glyph-name="d" unicode="d" 
d="M100 0q-41 0 -62 30q-15 19 -15 44q0 12 4 26l348 1300q11 41 48.5 70.5t78.5 29.5h400q207 0 314 -146q71 -97 71 -220q0 -64 -19 -134l-134 -500q-55 -207 -241 -353.5t-393 -146.5h-400zM548 1300l-294 -1100h300q124 0 235.5 88t144.5 212l134 500q11 42 11 80
q0 74 -42 132q-65 88 -189 88h-300z" />
    <glyph glyph-name="e" unicode="e" 
d="M954 200q41 0 63 -29q14 -20 14 -45q0 -12 -4 -26q-11 -41 -48.5 -70.5t-78.5 -29.5h-800q-41 0 -62 30q-15 19 -15 44q0 12 4 26l348 1300q11 41 48.5 70.5t78.5 29.5h800q41 0 63 -29q14 -20 14 -45q0 -12 -4 -26q-11 -41 -48.5 -70.5t-78.5 -29.5h-700l-120 -450h600
q41 0 63 -29q14 -20 14 -45q0 -12 -4 -26q-11 -41 -48.5 -70.5t-78.5 -29.5h-600l-120 -450h700z" />
    <glyph glyph-name="f" unicode="f" 
d="M227 100q-11 -41 -48.5 -70.5t-78.5 -29.5t-62 30q-15 19 -15 44q0 12 4 26l348 1300q11 41 48.5 70.5t78.5 29.5h800q41 0 63 -29q14 -20 14 -45q0 -12 -4 -26q-11 -41 -48.5 -70.5t-78.5 -29.5h-700l-120 -450h600q41 0 63 -29q14 -20 14 -45q0 -12 -4 -26
q-11 -41 -48.5 -70.5t-78.5 -29.5h-600z" />
    <glyph glyph-name="g" unicode="g" 
d="M1027 100q-11 -41 -48.5 -70.5t-78.5 -29.5t-62 30q-15 19 -15 44q0 12 4 25q-156 -99 -327 -99q-207 0 -314 147q-71 96 -71 219q0 64 19 134l134 500q55 207 241 353.5t393 146.5t314 -146q71 -97 71 -220q0 -64 -19 -134q-11 -41 -48.5 -70.5t-78.5 -29.5t-62 30
q-15 19 -15 44q0 12 4 26q11 42 11 80q0 74 -42 132q-65 88 -189 88t-235.5 -88t-144.5 -212l-134 -500q-11 -42 -11 -80q0 -74 43 -132q64 -88 188 -88t235.5 88t144.5 212l13 50h-350q-41 0 -62 30q-15 19 -15 44q0 12 4 26q11 41 48.5 70.5t78.5 29.5h450q41 0 63 -29
q14 -20 14 -45q0 -12 -4 -26z" />
    <glyph glyph-name="h" unicode="h" 
d="M974 650h-600l-147 -550q-11 -41 -48.5 -70.5t-78.5 -29.5t-62 30q-15 19 -15 44q0 12 4 26l348 1300q11 41 48.5 70.5t78.5 29.5t63 -29q14 -20 14 -45q0 -12 -4 -26l-147 -550h600l147 550q11 41 48.5 70.5t78.5 29.5t63 -29q14 -20 14 -45q0 -12 -4 -26l-348 -1300
q-11 -41 -48.5 -70.5t-78.5 -29.5t-62 30q-15 19 -15 44q0 12 4 26z" />
    <glyph glyph-name="i" unicode="i" 
d="M454 200l294 1100h-300q-41 0 -62 30q-15 19 -15 44q0 12 4 26q11 41 48.5 70.5t78.5 29.5h800q41 0 63 -29q14 -20 14 -45q0 -12 -4 -26q-11 -41 -48.5 -70.5t-78.5 -29.5h-300l-294 -1100h300q41 0 63 -29q14 -20 14 -45q0 -12 -4 -26q-11 -41 -48.5 -70.5t-78.5 -29.5
h-800q-41 0 -62 30q-15 19 -15 44q0 12 4 26q11 41 48.5 70.5t78.5 29.5h300z" />
    <glyph glyph-name="j" unicode="j" 
d="M182.5 570.5q37.5 29.5 78.5 29.5t63 -29q14 -20 14 -45q0 -12 -4 -26q-11 -42 -11 -80q0 -74 43 -132q64 -88 188 -88t235.5 88t144.5 212l241 900q11 41 48.5 70.5t78.5 29.5t63 -29q14 -20 14 -45q0 -12 -4 -26l-241 -900q-55 -207 -241 -353.5t-393 -146.5t-314 147
q-71 96 -71 219q0 64 19 134q11 41 48.5 70.5z" />
    <glyph glyph-name="k" unicode="k" 
d="M582 718l-244 -203l-111 -415q-11 -41 -48.5 -70.5t-78.5 -29.5t-62 30q-15 19 -15 44q0 12 4 26l348 1300q11 41 48.5 70.5t78.5 29.5t63 -29q14 -20 14 -45q0 -12 -4 -26l-162 -606l772 641q18 19 39 36q37 29 78 29t63 -29q14 -20 14 -45q0 -12 -4 -26
q-11 -41 -48 -70q-26 -21 -44 -30l-512 -426q4 -11 7 -24l236 -650q16 -40 16 -72q0 -15 -3 -28q-11 -41 -48.5 -70.5t-78.5 -29.5t-62.5 29.5t-30.5 70.5z" />
    <glyph glyph-name="l" unicode="l" 
d="M575 1400l-321 -1200h700q41 0 63 -29q14 -20 14 -45q0 -12 -4 -26q-11 -41 -48.5 -70.5t-78.5 -29.5h-800q-41 0 -62 30q-15 19 -15 44q0 12 4 26l348 1300q11 41 48.5 70.5t78.5 29.5t63 -29q14 -20 14 -45q0 -12 -4 -26z" />
    <glyph glyph-name="m" unicode="m" 
d="M1375 1400l-348 -1300q-11 -41 -48.5 -70.5t-78.5 -29.5t-62 30q-15 19 -15 44q0 12 4 26l169 633l-375 -653h-2q-12 -28 -40 -50q-38 -30 -79 -30t-62 30q-15 20 -15 44v6h-2l-25 653l-169 -633q-11 -41 -48.5 -70.5t-78.5 -29.5t-62 30q-15 19 -15 44q0 12 4 26
l348 1300q11 41 49 71q37 29 78 29t63 -29q16 -22 16 -70q0 -10 -1 -21l35 -952l545 952q44 68 69 91q32 29 73 29t63 -29q14 -20 14 -45q0 -12 -4 -26z" />
    <glyph glyph-name="n" unicode="n" 
d="M595 1400l328 -941l252 941q11 41 48.5 70.5t78.5 29.5t63 -29q14 -20 14 -45q0 -12 -4 -26l-348 -1300q-11 -41 -48.5 -70.5t-78.5 -29.5t-62.5 29.5t-30.5 70.5l-328 941l-252 -941q-11 -41 -48.5 -70.5t-78.5 -29.5t-62 30q-15 19 -15 44q0 12 4 26l348 1300
q11 41 48.5 70.5t78.5 29.5t62.5 -29.5t30.5 -70.5z" />
    <glyph glyph-name="o" unicode="o" 
d="M1134 500q-55 -207 -241 -353.5t-393 -146.5t-314 147q-71 96 -71 219q0 64 19 134l134 500q55 207 241 353.5t393 146.5t314 -146q71 -97 71 -220q0 -64 -19 -134zM334 500q-11 -42 -11 -80q0 -74 43 -132q64 -88 188 -88t235.5 88t144.5 212l134 500q11 42 11 80
q0 74 -42 132q-65 88 -189 88t-235.5 -88t-144.5 -212z" />
    <glyph glyph-name="p" unicode="p" 
d="M749 650h-375l-147 -550q-11 -41 -48.5 -70.5t-78.5 -29.5t-62 30q-15 19 -15 44q0 12 4 26l348 1300q11 41 48.5 70.5t78.5 29.5h475q176 0 267 -124q60 -83 60 -187q0 -54 -16 -114q-47 -176 -205 -300.5t-334 -124.5zM923 1300h-375l-120 -450h375q93 0 176.5 66
t108.5 159q9 32 9 60q0 55 -32 99q-49 66 -142 66z" />
    <glyph glyph-name="q" unicode="q" 
d="M913 441q13 28 21 59l134 500q11 42 11 80q0 74 -42 132q-65 88 -189 88t-235.5 -88t-144.5 -212l-134 -500q-11 -42 -11 -80q0 -74 43 -132q64 -88 188 -88q98 0 188 55l-81 195q-17 41 -17 73q0 14 3 27q11 41 48.5 70.5t78.5 29.5t62.5 -29.5t30.5 -70.5zM810 89
q-149 -89 -310 -89q-207 0 -314 147q-71 96 -71 219q0 64 19 134l134 500q55 207 241 353.5t393 146.5t314 -146q71 -97 71 -220q0 -64 -19 -134l-134 -500q-38 -143 -139 -257l19 -43q16 -40 16 -72q0 -15 -3 -28q-11 -41 -48.5 -70.5t-78.5 -29.5t-62 30q-19 25 -28 59z
" />
    <glyph glyph-name="r" unicode="r" 
d="M923 1300h-375l-120 -450h375q93 0 176.5 66t108.5 159q9 32 9 60q0 55 -32 99q-49 66 -142 66zM614 650h-240l-147 -550q-11 -41 -48.5 -70.5t-78.5 -29.5t-62 30q-15 19 -15 44q0 12 4 26l348 1300q11 41 48.5 70.5t78.5 29.5h475q176 0 267 -124q60 -83 60 -187
q0 -54 -16 -114q-47 -176 -204 -300q-112 -88 -232 -114l162 -461q16 -40 16 -72q0 -15 -3 -28q-11 -41 -48.5 -70.5t-78.5 -29.5t-62.5 29.5t-30.5 70.5z" />
    <glyph glyph-name="s" unicode="s" 
d="M1288 1075q-11 -41 -48.5 -70.5t-78.5 -29.5t-62 30q-15 19 -15 44q0 12 4 26q9 32 9 60q0 55 -32 99q-49 66 -142 66h-150q-93 0 -176.5 -66t-108.5 -159q-9 -32 -9 -60q0 -55 33 -99q48 -66 141 -66h150q176 0 267 -124q60 -83 60 -187q0 -54 -16 -114
q-47 -176 -205 -300.5t-334 -124.5h-150q-176 0 -267 125q-60 82 -60 186q0 54 16 114q11 41 48.5 70.5t78.5 29.5t63 -29q14 -20 14 -45q0 -12 -4 -26q-9 -32 -9 -60q0 -55 33 -99q48 -66 141 -66h150q93 0 176.5 66t108.5 159q9 32 9 60q0 55 -32 99q-49 66 -142 66h-150
q-176 0 -267 125q-60 82 -60 186q0 54 16 114q47 176 205 300.5t334 124.5h150q176 0 267 -124q60 -83 60 -187q0 -54 -16 -114z" />
    <glyph glyph-name="t" unicode="t" 
d="M948 1300l-321 -1200q-11 -41 -48.5 -70.5t-78.5 -29.5t-62 30q-15 19 -15 44q0 12 4 26l321 1200h-300q-41 0 -62 30q-15 19 -15 44q0 12 4 26q11 41 48.5 70.5t78.5 29.5h800q41 0 63 -29q14 -20 14 -45q0 -12 -4 -26q-11 -41 -48.5 -70.5t-78.5 -29.5h-300z" />
    <glyph glyph-name="u" unicode="u" 
d="M375 1400q11 41 48.5 70.5t78.5 29.5t63 -29q14 -20 14 -45q0 -12 -4 -26l-241 -900q-11 -42 -11 -80q0 -74 43 -132q64 -88 188 -88t235.5 88t144.5 212l241 900q11 41 48.5 70.5t78.5 29.5t63 -29q14 -20 14 -45q0 -12 -4 -26l-241 -900q-55 -207 -241 -353.5
t-393 -146.5t-314 147q-71 96 -71 219q0 64 19 134z" />
    <glyph glyph-name="v" unicode="v" 
d="M500 0q-41 0 -62 30q-15 20 -15 44v6h-2l-47 1240q-4 22 -4 41q0 21 5 39q11 41 48.5 70.5t78.5 29.5t57.5 -29.5t20.5 -90.5l35 -952l545 952q36 61 68.5 90.5t73.5 29.5t63 -29q14 -20 14 -45q0 -12 -4 -26q-9 -34 -41 -80l-713 -1240h-2q-12 -28 -40 -50
q-38 -30 -79 -30z" />
    <glyph glyph-name="w" unicode="w" 
d="M701 751l-274 -651q-11 -41 -48.5 -70.5t-78.5 -29.5t-62 30q-15 19 -15 44q0 12 4 26l145 1269v6q0 11 3 25q11 41 48.5 70.5t78.5 29.5t63 -29q14 -20 14 -45q0 -12 -4 -26l-74 -650l274 650q11 41 48.5 70.5t78.5 29.5t63 -29q14 -20 14 -45q0 -12 -4 -26l-74 -650
l274 650q11 41 48.5 70.5t78.5 29.5t63 -29q14 -20 14 -45q0 -12 -4 -26q-4 -17 -13 -31l-535 -1269q-11 -41 -48.5 -70.5t-78.5 -29.5t-62 30q-15 19 -15 44q0 12 4 26z" />
    <glyph glyph-name="x" unicode="x" 
d="M648 554l-401 -454q-31 -41 -68.5 -70.5t-78.5 -29.5t-62 30q-15 19 -15 44q0 12 4 26q11 41 67 100l486 550l-192 550q-16 40 -16 72q0 15 3 28q11 41 48.5 70.5t78.5 29.5t62.5 -29.5t30.5 -70.5l158 -454l402 454q31 41 68.5 70.5t78.5 29.5t63 -29q14 -20 14 -45
q0 -12 -4 -26q-11 -41 -67 -100l-486 -550l192 -550q16 -40 16 -72q0 -15 -3 -28q-11 -41 -48.5 -70.5t-78.5 -29.5t-62.5 29.5t-30.5 70.5z" />
    <glyph glyph-name="y" unicode="y" 
d="M592 716l-12 34l-192 550q-16 40 -16 72q0 15 3 28q11 41 48.5 70.5t78.5 29.5t62.5 -29.5t30.5 -70.5l158 -454l402 454q31 41 68.5 70.5t78.5 29.5t63 -29q14 -20 14 -45q0 -12 -4 -26q-11 -41 -67 -100l-486 -550l-30 -34l-165 -616q-11 -41 -48.5 -70.5t-78.5 -29.5
t-62 30q-15 19 -15 44q0 12 4 26z" />
    <glyph glyph-name="z" unicode="z" 
d="M733 650l-397 -450h618q41 0 63 -29q14 -20 14 -45q0 -12 -4 -26q-11 -41 -48.5 -70.5t-78.5 -29.5h-800q-41 0 -62 30q-15 19 -15 44q0 12 4 26q11 41 67 100l397 450h-117q-41 0 -62 30q-15 19 -15 44q0 12 4 26q11 41 48.5 70.5t78.5 29.5h241l397 450h-618
q-41 0 -62 30q-15 19 -15 44q0 12 4 26q11 41 48.5 70.5t78.5 29.5h800q41 0 63 -29q14 -20 14 -45q0 -12 -4 -26q-11 -41 -67 -100l-397 -450h117q41 0 63 -29q14 -20 14 -45q0 -12 -4 -26q-11 -41 -48.5 -70.5t-78.5 -29.5h-241z" />
    <glyph glyph-name="braceleft" unicode="{" 
d="M638 1075l34 125q55 207 241 353.5t393 146.5h50q41 0 63 -29q14 -20 14 -45q0 -12 -4 -26q-11 -41 -48.5 -70.5t-78.5 -29.5h-50q-124 0 -235.5 -88t-144.5 -212l-34 -125q-47 -176 -204 -300q-17 -13 -34 -25q11 -12 21 -24q59 -82 59 -186q0 -55 -16 -115l-34 -125
q-11 -42 -11 -80q0 -74 43 -132q64 -88 188 -88h50q41 0 63 -29q14 -20 14 -45q0 -12 -4 -26q-11 -41 -48.5 -70.5t-78.5 -29.5h-50q-207 0 -314 147q-71 96 -71 219q0 64 19 134l34 125q9 32 9 60q0 55 -32 99q-49 66 -142 66h-25q-41 0 -62 30q-15 19 -15 44q0 12 4 26
q11 41 48.5 70.5t78.5 29.5h25q93 0 176.5 66t108.5 159z" />
    <glyph glyph-name="bar" unicode="|" 
d="M529 1600q11 41 48.5 70.5t78.5 29.5t63 -29q14 -20 14 -45q0 -12 -4 -26l-456 -1700q-11 -41 -48.5 -70.5t-78.5 -29.5t-62 30q-15 19 -15 44q0 12 4 26z" />
    <glyph glyph-name="braceright" unicode="}" 
d="M938 1075q-9 -32 -9 -60q0 -55 33 -99q48 -66 141 -66h25q41 0 63 -29q14 -20 14 -45q0 -12 -4 -26q-11 -41 -48.5 -70.5t-78.5 -29.5h-25q-93 0 -176.5 -66t-108.5 -159l-34 -125q-55 -207 -241 -353.5t-393 -146.5h-50q-41 0 -62 30q-15 19 -15 44q0 12 4 26
q11 41 48.5 70.5t78.5 29.5h50q124 0 235.5 88t144.5 212l34 125q47 176 205 301q16 12 33 24q-11 12 -20 25q-60 82 -60 186q0 54 16 114l34 125q11 42 11 80q0 74 -42 132q-65 88 -189 88h-50q-41 0 -62 30q-15 19 -15 44q0 12 4 26q11 41 48.5 70.5t78.5 29.5h50
q207 0 314 -146q71 -97 71 -220q0 -64 -19 -134z" />
    <glyph glyph-name="asciitilde" unicode="~" 
d="M1141 1925q27 -25 68 -25t78.5 29.5t48.5 70.5t48.5 70.5t78.5 29.5t63 -29q14 -20 14 -45q0 -12 -4 -26q-33 -124 -144.5 -212t-235.5 -88t-180 75l-99 100q-27 25 -68 25t-78.5 -29.5t-48.5 -70.5t-48 -70.5t-78 -29.5t-63 30q-15 19 -15 44q0 12 4 26
q34 124 145.5 212t235.5 88t180 -75z" />
    <glyph glyph-name="exclamdown" unicode="&#xa1;" 
d="M395 1100q11 41 48.5 70.5t78.5 29.5t63 -29q14 -20 14 -45q0 -12 -4 -26l-268 -1000q-11 -41 -48.5 -70.5t-78.5 -29.5t-62 30q-15 19 -15 44q0 12 4 26zM486 1330q-15 19 -15 44q0 12 4 26q11 41 48.5 70.5t78.5 29.5t63 -29q14 -20 14 -45q0 -12 -4 -26
q-11 -41 -48.5 -70.5t-78.5 -29.5t-62 30z" />
    <glyph glyph-name="cent" unicode="&#xa2;" 
d="M327 475q-5 -18 -5 -34q0 -30 18 -54q27 -37 79 -37h75l214 800h-75q-52 0 -98 -36.5t-60 -88.5zM1134 500l-13 -50h-1q-40 -119 -149 -205q-121 -95 -256 -95h-75l-13 -50q-11 -41 -48.5 -70.5t-78.5 -29.5t-62 30q-15 19 -15 44q0 12 4 26l13 50h-75q-135 0 -204 95
q-46 62 -46 142q0 30 7 63h-1l154 575q36 135 156.5 230t255.5 95h75l13 50q11 41 48.5 70.5t78.5 29.5t63 -29q14 -20 14 -45q0 -12 -4 -26l-13 -50h75q135 0 205 -95q45 -63 45 -143q0 -41 -12 -87q-11 -41 -48.5 -70.5t-78.5 -29.5t-62 30q-15 19 -15 44q0 12 4 26
q5 18 5 34q0 30 -18 55q-27 36 -79 36h-75l-214 -800h75q52 0 99 37q34 27 51 63h2l13 50q11 41 48.5 70.5t78.5 29.5t63 -29q14 -20 14 -45q0 -12 -4 -26z" />
    <glyph glyph-name="sterling" unicode="&#xa3;" 
d="M1108 1150q6 21 6 40q0 37 -21 66q-33 44 -95 44t-117.5 -44t-72.5 -106l-80 -300h300q41 0 63 -29q14 -20 14 -45q0 -12 -4 -26q-11 -41 -48.5 -70.5t-78.5 -29.5h-300l-120 -450h400q41 0 63 -29q14 -20 14 -45q0 -12 -4 -26q-11 -41 -48.5 -70.5t-78.5 -29.5h-800
q-41 0 -62 30q-15 19 -15 44q0 12 4 26q11 41 48.5 70.5t78.5 29.5h200l120 450h-100q-41 0 -62 30q-15 19 -15 44q0 12 4 26q11 41 48.5 70.5t78.5 29.5h100l80 300q39 145 169 247.5t275 102.5t220 -102q49 -68 49 -154q0 -44 -13 -94q-11 -41 -48.5 -70.5t-78.5 -29.5
t-62 30q-15 19 -15 44q0 12 4 26z" />
    <glyph glyph-name="currency" unicode="&#xa4;" 
d="M765.5 661.5q46.5 36.5 60.5 88.5q5 18 5 34q0 30 -18 55q-27 36 -79 36t-98 -36.5t-60 -88.5q-5 -18 -5 -34q0 -31 18 -54q26 -37 78 -37t98.5 36.5zM895 541l119 -341q16 -40 16 -72q0 -15 -3 -28q-11 -41 -48.5 -70.5t-78.5 -29.5t-62.5 29.5t-30.5 70.5l-116 333
q-38 -8 -77 -8t-73 8l-294 -333q-31 -41 -68.5 -70.5t-78.5 -29.5t-62 30q-15 19 -15 44q0 12 4 26q11 41 67 100l301 341q-31 55 -31 121q0 42 12 88q32 120 131 209l-119 341q-16 40 -16 72q0 15 3 28q11 41 48.5 70.5t78.5 29.5t62.5 -29.5t30.5 -70.5l116 -333
q38 8 77 8t73 -8l294 333q31 41 68.5 70.5t78.5 29.5t63 -29q14 -20 14 -45q0 -12 -4 -26q-11 -41 -67 -100l-301 -341q31 -55 31 -121q0 -42 -12 -88q-32 -120 -131 -209z" />
    <glyph glyph-name="yen" unicode="&#xa5;" 
d="M654 200l-27 -100q-11 -41 -48.5 -70.5t-78.5 -29.5t-62 30q-15 19 -15 44q0 12 4 26l27 100h-200q-41 0 -63 30q-15 19 -15 44q0 12 4 26q11 41 48.5 70.5t78.5 29.5h200l54 200h-200q-41 0 -62 30q-15 19 -15 44q0 12 4 26q11 41 48 70.5t78 29.5h148l-174 500
q-16 40 -16 72q0 15 3 28q11 41 48.5 70.5t78.5 29.5t62.5 -29.5t30.5 -70.5l158 -454l402 454q31 41 68.5 70.5t78.5 29.5t63 -29q14 -20 14 -45q0 -12 -4 -26q-11 -41 -67 -100l-442 -500h148q41 0 63 -29q15 -20 15 -45q0 -12 -4 -26q-11 -41 -48.5 -70.5t-78.5 -29.5
h-200l-54 -200h200q41 0 63 -29q14 -20 14 -45q0 -12 -4 -26q-11 -41 -48 -70.5t-78 -29.5h-200z" />
    <glyph glyph-name="brokenbar" unicode="&#xa6;" 
d="M555 950q-11 -41 -48.5 -70.5t-78.5 -29.5t-62 30q-15 19 -15 44q0 12 4 26l174 650q11 41 48.5 70.5t78.5 29.5t63 -29q14 -20 14 -45q0 -12 -4 -26zM273 -100q-11 -41 -48.5 -70.5t-78.5 -29.5t-62 30q-15 19 -15 44q0 12 4 26l174 650q11 41 48.5 70.5t78.5 29.5
t63 -29q14 -20 14 -45q0 -12 -4 -26z" />
    <glyph glyph-name="section" unicode="&#xa7;" 
d="M765.5 661.5q46.5 36.5 60.5 88.5q5 18 5 34q0 30 -18 55q-27 36 -79 36t-98 -36.5t-60 -88.5q-5 -18 -5 -34q0 -31 18 -54q26 -37 78 -37t98.5 36.5zM371 730q-21 20 -39 45q-60 82 -60 186q0 54 16 114l54 200q47 176 205 300.5t334 124.5h150q176 0 267 -124
q60 -83 60 -187q0 -54 -16 -114q-11 -41 -48.5 -70.5t-78.5 -29.5t-62 30q-15 19 -15 44q0 12 4 26q9 32 9 60q0 55 -32 99q-49 66 -142 66h-150q-93 0 -176.5 -66t-108.5 -158l-54 -201q-8 -32 -8 -60q0 -37 14 -69q18 18 39 34q120 95 255 95t205 -95q46 -63 46 -142
q0 -33 -8 -68q21 -20 39 -44q60 -82 60 -187q0 -54 -16 -114l-54 -200q-47 -176 -205 -300.5t-334 -124.5h-150q-176 0 -267 125q-60 82 -60 186q0 54 16 114q11 41 48.5 70.5t78.5 29.5t63 -29q14 -20 14 -45q0 -12 -4 -26q-9 -32 -9 -60q0 -55 33 -99q48 -66 141 -66h150
q93 0 176.5 66t109.5 160l53 199q8 32 8 60q0 37 -14 69q-18 -18 -39 -34q-120 -95 -255 -95t-205 95q-46 63 -46 142q0 33 8 68z" />
    <glyph glyph-name="dieresis" unicode="&#xa8;" 
d="M872 1871q14 -20 14 -45q0 -12 -4 -26q-11 -41 -48 -70.5t-78 -29.5t-63 30q-15 19 -15 44q0 12 4 26q11 41 48.5 70.5t78.5 29.5t63 -29zM1272 1871q14 -20 14 -45q0 -12 -4 -26q-11 -41 -48 -70.5t-78 -29.5t-63 30q-15 19 -15 44q0 12 4 26q11 41 48.5 70.5t78.5 29.5
t63 -29z" />
    <glyph glyph-name="copyright" unicode="&#xa9;" horiz-adv-x="1300" 
d="M968 1000q5 21 24 35.5t39 14.5q21 0 32 -14q7 -10 7 -23q0 -6 -2 -13q-28 -103 -121 -176.5t-196 -73.5q-104 0 -157 74q-36 48 -36 109q0 32 10 67l67 250q28 104 120.5 177t196.5 73q103 0 157 -73q36 -48 36 -110q0 -31 -10 -67q-6 -20 -24.5 -35t-38.5 -15
q-21 0 -32 15q-7 10 -7 22q0 6 2 13q6 21 6 40q0 37 -21 66q-33 44 -95 44t-117.5 -44t-72.5 -106l-67 -250q-6 -21 -6 -40q0 -37 22 -66q32 -44 94 -44t117.5 44t72.5 106zM979 1600q-145 0 -285 -139t-193 -336q-23 -88 -23 -164q0 -95 36 -172q65 -139 210 -139t285 139
t192 336q24 88 24 165q0 94 -36 171q-65 139 -210 139zM1368 1603q64 -117 64 -262q0 -101 -31 -216q-74 -280 -288.5 -477.5t-441.5 -197.5q-228 0 -336 198q-64 117 -64 263q0 100 30 214q75 280 289 477.5t442 197.5t336 -197z" />
    <glyph glyph-name="ordfeminine" unicode="&#xaa;" horiz-adv-x="1650" 
d="M0 200v1100q0 200 200 200h1100q200 0 200 -200v-1100q0 -200 -200 -200h-1100q-200 0 -200 200zM1475 201v1099q0 175 -175 175h-1100q-174 0 -175 -175v-1100q1 -175 175 -175h1101q174 0 174 176z" />
    <glyph glyph-name="guillemotleft" unicode="&#xab;" 
d="M756 320q15 -19 15 -44q0 -12 -4 -26q-11 -41 -48.5 -70.5t-78.5 -29.5t-63 29l-366 500q-14 20 -14 44q0 13 4 27q11 41 48 71l634 499q38 30 79 30t63 -29q14 -20 14 -45q0 -12 -4 -26q-11 -41 -49 -71l-545 -429zM1156 320q15 -19 15 -44q0 -12 -4 -26
q-11 -41 -48.5 -70.5t-78.5 -29.5t-63 29l-366 500q-14 20 -14 44q0 13 4 27q11 41 48 71l634 499q38 30 79 30t63 -29q14 -20 14 -45q0 -12 -4 -26q-11 -41 -49 -71l-545 -429z" />
    <glyph glyph-name="logicalnot" unicode="&#xac;" horiz-adv-x="1650" 
d="M0 200v1100q0 200 200 200h1100q200 0 200 -200v-1100q0 -200 -200 -200h-1100q-200 0 -200 200zM1475 201v1099q0 175 -175 175h-1100q-174 0 -175 -175v-1100q1 -175 175 -175h1101q174 0 174 176z" />
    <glyph glyph-name="registered" unicode="&#xae;" horiz-adv-x="1300" 
d="M963 1400h-188l-60 -225h188q46 0 88 33t54 80q4 15 4 29q0 28 -16 50q-24 33 -70 33zM1011 791q138 139 190 334q24 88 24 165q0 94 -36 171q-65 139 -210 139q-125 0 -247 -104q10 4 20 4h238q88 0 134 -62q29 -41 29 -92q0 -28 -8 -58q-23 -88 -102 -150
q-56 -44 -115 -57l80 -231q8 -19 8 -35q0 -8 -2 -15q-1 -4 -3 -9zM691 1458q-137 -138 -190 -333q-23 -87 -23 -164q0 -93 35 -170q0 5 1 9l175 650zM533 754q66 -104 191 -104t246 103q-9 -3 -19 -3q-20 0 -31 15t-16 35l-96 275h-120l-74 -275q-5 -20 -23.5 -35t-39.5 -15
q-10 0 -18 4zM1368 1603q64 -117 64 -262q0 -101 -31 -216q-75 -280 -288.5 -477.5t-441.5 -197.5t-336 198q-65 116 -65 262q0 101 31 215q75 280 289 477.5t442 197.5t336 -197z" />
    <glyph glyph-name="macron" unicode="&#xaf;" horiz-adv-x="1650" 
d="M0 200v1100q0 200 200 200h1100q200 0 200 -200v-1100q0 -200 -200 -200h-1100q-200 0 -200 200zM1475 201v1099q0 175 -175 175h-1100q-174 0 -175 -175v-1100q1 -175 175 -175h1101q174 0 174 176z" />
    <glyph glyph-name="degree" unicode="&#xb0;" horiz-adv-x="1650" 
d="M0 200v1100q0 200 200 200h1100q200 0 200 -200v-1100q0 -200 -200 -200h-1100q-200 0 -200 200zM1475 201v1099q0 175 -175 175h-1100q-174 0 -175 -175v-1100q1 -175 175 -175h1101q174 0 174 176z" />
    <glyph glyph-name="plusminus" unicode="&#xb1;" horiz-adv-x="1650" 
d="M0 200v1100q0 200 200 200h1100q200 0 200 -200v-1100q0 -200 -200 -200h-1100q-200 0 -200 200zM1475 201v1099q0 175 -175 175h-1100q-174 0 -175 -175v-1100q1 -175 175 -175h1101q174 0 174 176z" />
    <glyph glyph-name="uni00B2" unicode="&#xb2;" horiz-adv-x="1650" 
d="M0 200v1100q0 200 200 200h1100q200 0 200 -200v-1100q0 -200 -200 -200h-1100q-200 0 -200 200zM1475 201v1099q0 175 -175 175h-1100q-174 0 -175 -175v-1100q1 -175 175 -175h1101q174 0 174 176z" />
    <glyph glyph-name="uni00B3" unicode="&#xb3;" horiz-adv-x="1650" 
d="M0 200v1100q0 200 200 200h1100q200 0 200 -200v-1100q0 -200 -200 -200h-1100q-200 0 -200 200zM1475 201v1099q0 175 -175 175h-1100q-174 0 -175 -175v-1100q1 -175 175 -175h1101q174 0 174 176z" />
    <glyph glyph-name="acute" unicode="&#xb4;" 
d="M835 1730q-38 -30 -79 -30t-63 30q-15 19 -15 44q0 12 4 26q11 41 49 71l508 400q36 29 77 29t63 -29q14 -20 14 -45q0 -12 -4 -26q-10 -41 -47 -70z" />
    <glyph glyph-name="mu" unicode="&#xb5;" 
d="M375 1400q11 41 48.5 70.5t78.5 29.5t63 -29q14 -20 14 -45q0 -12 -4 -26l-241 -900q-11 -42 -11 -80q0 -74 43 -132q64 -88 188 -88t235.5 88t144.5 212l241 900q11 41 48.5 70.5t78.5 29.5t63 -29q14 -20 14 -45q0 -12 -4 -26l-241 -900q-55 -207 -241 -353.5
t-393 -146.5q-171 0 -273 99q-11 -40 -48 -69q-38 -30 -79 -30t-62 30q-15 19 -15 44q0 12 4 26z" />
    <glyph glyph-name="paragraph" unicode="&#xb6;" horiz-adv-x="1024" 
d="M1314 1435l-19 -70h-127l-366 -1365h-82l366 1365h-166l-366 -1365h-84l198 738q-172 8 -248 103q-50 61 -50 148q0 45 14 97q42 157 175.5 253t311.5 96h443z" />
    <glyph glyph-name="periodcentered" unicode="&#xb7;" 
d="M477 771q15 -20 15 -45q0 -12 -4 -26q-11 -41 -48.5 -70.5t-78.5 -29.5t-62 30q-15 19 -15 44q0 12 4 26q11 41 48 70.5t78 29.5t63 -29z" />
    <glyph glyph-name="periodcentered" unicode="&#x2219;" 
d="M477 771q15 -20 15 -45q0 -12 -4 -26q-11 -41 -48.5 -70.5t-78.5 -29.5t-62 30q-15 19 -15 44q0 12 4 26q11 41 48 70.5t78 29.5t63 -29z" />
    <glyph glyph-name="cedilla" unicode="&#xb8;" 
d="M146 -200h75q93 0 177 66t109 159q11 41 48 70.5t78 29.5t63 -29q15 -20 15 -45q0 -12 -4 -26q-47 -176 -205 -300.5t-334 -124.5h-75q-41 0 -62 30q-15 19 -15 44q0 12 4 26q11 41 48 70.5t78 29.5z" />
    <glyph glyph-name="uni00B9" unicode="&#xb9;" horiz-adv-x="1650" 
d="M0 200v1100q0 200 200 200h1100q200 0 200 -200v-1100q0 -200 -200 -200h-1100q-200 0 -200 200zM1475 201v1099q0 175 -175 175h-1100q-174 0 -175 -175v-1100q1 -175 175 -175h1101q174 0 174 176z" />
    <glyph glyph-name="ordmasculine" unicode="&#xba;" horiz-adv-x="1650" 
d="M0 200v1100q0 200 200 200h1100q200 0 200 -200v-1100q0 -200 -200 -200h-1100q-200 0 -200 200zM1475 201v1099q0 175 -175 175h-1100q-174 0 -175 -175v-1100q1 -175 175 -175h1101q174 0 174 176z" />
    <glyph glyph-name="guillemotright" unicode="&#xbb;" 
d="M1061 750l-315 429q-15 20 -15 45q0 12 4 26q11 41 48.5 70.5t78.5 29.5t63 -30l366 -499q14 -20 14 -44q0 -13 -4 -27q-11 -41 -48 -71l-634 -500q-38 -29 -79 -29t-62 30q-15 19 -15 44q0 12 4 26q11 41 49 70zM661 750l-315 429q-15 20 -15 45q0 12 4 26
q11 41 48.5 70.5t78.5 29.5t63 -30l366 -499q14 -20 14 -44q0 -13 -4 -27q-11 -41 -48 -71l-634 -500q-38 -29 -79 -29t-62 30q-15 19 -15 44q0 12 4 26q11 41 49 70z" />
    <glyph glyph-name="onequarter" unicode="&#xbc;" horiz-adv-x="1650" 
d="M0 200v1100q0 200 200 200h1100q200 0 200 -200v-1100q0 -200 -200 -200h-1100q-200 0 -200 200zM1475 201v1099q0 175 -175 175h-1100q-174 0 -175 -175v-1100q1 -175 175 -175h1101q174 0 174 176z" />
    <glyph glyph-name="onehalf" unicode="&#xbd;" horiz-adv-x="1650" 
d="M0 200v1100q0 200 200 200h1100q200 0 200 -200v-1100q0 -200 -200 -200h-1100q-200 0 -200 200zM1475 201v1099q0 175 -175 175h-1100q-174 0 -175 -175v-1100q1 -175 175 -175h1101q174 0 174 176z" />
    <glyph glyph-name="threequarters" unicode="&#xbe;" horiz-adv-x="1650" 
d="M0 200v1100q0 200 200 200h1100q200 0 200 -200v-1100q0 -200 -200 -200h-1100q-200 0 -200 200zM1475 201v1099q0 175 -175 175h-1100q-174 0 -175 -175v-1100q1 -175 175 -175h1101q174 0 174 176z" />
    <glyph glyph-name="questiondown" unicode="&#xbf;" 
d="M1188 1075q-47 -176 -205 -300.5t-334 -124.5h-50q-93 0 -176.5 -66t-108.5 -159q-9 -32 -9 -60q0 -55 33 -99q48 -66 141 -66h150q93 0 176.5 66t108.5 159q11 41 48.5 70.5t78.5 29.5t63 -29q14 -20 14 -45q0 -12 -4 -26q-47 -176 -205 -300.5t-334 -124.5h-150
q-176 0 -267 125q-60 82 -60 186q0 54 16 114q47 176 205 300.5t334 124.5h50q93 0 176.5 66t108.5 159l7 25q11 41 48.5 70.5t78.5 29.5t63 -29q14 -20 14 -45q0 -12 -4 -26zM1086 1330q-15 19 -15 44q0 12 4 26q11 41 48.5 70.5t78.5 29.5t63 -29q14 -20 14 -45
q0 -12 -4 -26q-11 -41 -48.5 -70.5t-78.5 -29.5t-62 30z" />
    <glyph glyph-name="Agrave" unicode="&#xc0;" 
d="M345 300l-103 -180q-36 -61 -68.5 -90.5t-73.5 -29.5t-62 30q-15 19 -15 44q0 12 4 26q9 34 41 80l712 1240h2q13 28 42 50q37 30 78 30t63 -30q13 -19 13 -41v-9h2l48 -1240q4 -22 4 -41q0 -21 -5 -39q-11 -41 -48.5 -70.5t-78.5 -29.5t-57.5 29.5t-20.5 90.5l-7 180
h-470zM808 500l-21 572l-327 -572h348zM801 2130q-15 20 -15 46q0 11 3 24q11 41 48.5 70.5t78.5 29.5t64 -29l292 -400q14 -20 14 -44q0 -13 -4 -27q-11 -41 -48 -70.5t-78 -29.5t-62 30z" />
    <glyph glyph-name="Aacute" unicode="&#xc1;" 
d="M345 300l-103 -180q-36 -61 -68.5 -90.5t-73.5 -29.5t-62 30q-15 19 -15 44q0 12 4 26q9 34 41 80l712 1240h2q13 28 42 50q37 30 78 30t63 -30q13 -19 13 -41v-9h2l48 -1240q4 -22 4 -41q0 -21 -5 -39q-11 -41 -48.5 -70.5t-78.5 -29.5t-57.5 29.5t-20.5 90.5l-7 180
h-470zM808 500l-21 572l-327 -572h348zM835 1730q-38 -30 -79 -30t-63 30q-15 19 -15 44q0 12 4 26q11 41 49 71l508 400q36 29 77 29t63 -29q14 -20 14 -45q0 -12 -4 -26q-10 -41 -47 -70z" />
    <glyph glyph-name="Acircumflex" unicode="&#xc2;" 
d="M345 300l-103 -180q-36 -61 -68.5 -90.5t-73.5 -29.5t-62 30q-15 19 -15 44q0 12 4 26q9 34 41 80l712 1240h2q13 28 42 50q37 30 78 30t63 -30q13 -19 13 -41v-9h2l48 -1240q4 -22 4 -41q0 -21 -5 -39q-11 -41 -48.5 -70.5t-78.5 -29.5t-57.5 29.5t-20.5 90.5l-7 180
h-470zM808 500l-21 572l-327 -572h348zM1053 2060l-418 -330q-38 -30 -79 -30t-63 30q-15 19 -15 44q0 12 4 26q11 41 49 71l508 400q36 29 77 29t64 -29l292 -400q14 -20 14 -44q0 -13 -4 -27q-11 -41 -48 -70.5t-78 -29.5t-62 30z" />
    <glyph glyph-name="Atilde" unicode="&#xc3;" 
d="M345 300l-103 -180q-36 -61 -68.5 -90.5t-73.5 -29.5t-62 30q-15 19 -15 44q0 12 4 26q9 34 41 80l712 1240h2q13 28 42 50q37 30 78 30t63 -30q13 -19 13 -41v-9h2l48 -1240q4 -22 4 -41q0 -21 -5 -39q-11 -41 -48.5 -70.5t-78.5 -29.5t-57.5 29.5t-20.5 90.5l-7 180
h-470zM808 500l-21 572l-327 -572h348zM1141 1925q27 -25 68 -25t78.5 29.5t48.5 70.5t48.5 70.5t78.5 29.5t63 -29q14 -20 14 -45q0 -12 -4 -26q-33 -124 -144.5 -212t-235.5 -88t-180 75l-99 100q-27 25 -68 25t-78.5 -29.5t-48.5 -70.5t-48 -70.5t-78 -29.5t-63 30
q-15 19 -15 44q0 12 4 26q34 124 145.5 212t235.5 88t180 -75z" />
    <glyph glyph-name="Adieresis" unicode="&#xc4;" 
d="M345 300l-103 -180q-36 -61 -68.5 -90.5t-73.5 -29.5t-62 30q-15 19 -15 44q0 12 4 26q9 34 41 80l712 1240h2q13 28 42 50q37 30 78 30t63 -30q13 -19 13 -41v-9h2l48 -1240q4 -22 4 -41q0 -21 -5 -39q-11 -41 -48.5 -70.5t-78.5 -29.5t-57.5 29.5t-20.5 90.5l-7 180
h-470zM808 500l-21 572l-327 -572h348zM872 1871q14 -20 14 -45q0 -12 -4 -26q-11 -41 -48 -70.5t-78 -29.5t-63 30q-15 19 -15 44q0 12 4 26q11 41 48.5 70.5t78.5 29.5t63 -29zM1272 1871q14 -20 14 -45q0 -12 -4 -26q-11 -41 -48 -70.5t-78 -29.5t-63 30q-15 19 -15 44
q0 12 4 26q11 41 48.5 70.5t78.5 29.5t63 -29z" />
    <glyph glyph-name="Aring" unicode="&#xc5;" 
d="M345 300l-103 -180q-36 -61 -68.5 -90.5t-73.5 -29.5t-62 30q-15 19 -15 44q0 12 4 26q9 34 41 80l712 1240h2q13 28 42 50q37 30 78 30t63 -30q13 -19 13 -41v-9h2l48 -1240q4 -22 4 -41q0 -21 -5 -39q-11 -41 -48.5 -70.5t-78.5 -29.5t-57.5 29.5t-20.5 90.5l-7 180
h-470zM808 500l-21 572l-327 -572h348zM956 1700q-124 0 -188 88q-43 58 -43 132q0 38 11 80q33 124 144.5 212t235.5 88t189 -88q42 -58 42 -132q0 -38 -11 -80q-33 -124 -144.5 -212t-235.5 -88zM1087.5 1929.5q37.5 29.5 48.5 70.5q4 14 4 26q0 25 -14 45q-22 29 -63 29
t-78.5 -29.5t-48.5 -70.5q-4 -14 -4 -26q0 -25 15 -44q21 -30 62 -30t78.5 29.5z" />
    <glyph glyph-name="AE" unicode="&#xc6;" 
d="M1402 1500q41 0 63 -29q14 -20 14 -45q0 -12 -4 -26q-11 -41 -48.5 -70.5t-78.5 -29.5h-300l-120 -450h200q41 0 63 -29q14 -20 14 -45q0 -12 -4 -26q-11 -41 -48.5 -70.5t-78.5 -29.5h-200l-120 -450h300q41 0 63 -29q14 -20 14 -45q0 -12 -4 -26q-11 -41 -48.5 -70.5
t-78.5 -29.5h-400q-41 0 -62 30q-15 19 -15 44q0 12 4 26l53 200h-235l-103 -180q-36 -61 -68.5 -90.5t-73.5 -29.5t-62 30q-15 19 -15 44q0 12 4 26q9 34 41 80l712 1240h2q13 28 42 50q37 30 78 30h500zM787 1072l-327 -572h174z" />
    <glyph glyph-name="Ccedilla" unicode="&#xc7;" 
d="M499 0q-206 0 -313 147q-71 96 -71 220q0 63 19 133l134 500q55 207 241 353.5t393 146.5t314 -146q71 -97 71 -220q0 -64 -19 -134q-11 -41 -48.5 -70.5t-78.5 -29.5t-62 30q-15 19 -15 44q0 12 4 26q11 42 11 80q0 74 -42 132q-65 88 -189 88t-235.5 -88t-144.5 -212
l-134 -500q-11 -42 -11 -80q0 -74 43 -132q64 -88 188 -88t235.5 88t144.5 212q11 41 48.5 70.5t78.5 29.5t63 -29q14 -20 14 -45q0 -12 -4 -26q-55 -207 -241 -353q-90 -71 -183 -107q-1 -7 -3 -15q-47 -176 -205 -300.5t-334 -124.5h-75q-41 0 -62 30q-15 19 -15 44
q0 12 4 26q11 41 48 70.5t78 29.5h75q93 0 177 66q72 57 101 134z" />
    <glyph glyph-name="Egrave" unicode="&#xc8;" 
d="M954 200q41 0 63 -29q14 -20 14 -45q0 -12 -4 -26q-11 -41 -48.5 -70.5t-78.5 -29.5h-800q-41 0 -62 30q-15 19 -15 44q0 12 4 26l348 1300q11 41 48.5 70.5t78.5 29.5h800q41 0 63 -29q14 -20 14 -45q0 -12 -4 -26q-11 -41 -48.5 -70.5t-78.5 -29.5h-700l-120 -450h600
q41 0 63 -29q14 -20 14 -45q0 -12 -4 -26q-11 -41 -48.5 -70.5t-78.5 -29.5h-600l-120 -450h700zM801 2130q-15 20 -15 46q0 11 3 24q11 41 48.5 70.5t78.5 29.5t64 -29l292 -400q14 -20 14 -44q0 -13 -4 -27q-11 -41 -48 -70.5t-78 -29.5t-62 30z" />
    <glyph glyph-name="Eacute" unicode="&#xc9;" 
d="M954 200q41 0 63 -29q14 -20 14 -45q0 -12 -4 -26q-11 -41 -48.5 -70.5t-78.5 -29.5h-800q-41 0 -62 30q-15 19 -15 44q0 12 4 26l348 1300q11 41 48.5 70.5t78.5 29.5h800q41 0 63 -29q14 -20 14 -45q0 -12 -4 -26q-11 -41 -48.5 -70.5t-78.5 -29.5h-700l-120 -450h600
q41 0 63 -29q14 -20 14 -45q0 -12 -4 -26q-11 -41 -48.5 -70.5t-78.5 -29.5h-600l-120 -450h700zM835 1730q-38 -30 -79 -30t-63 30q-15 19 -15 44q0 12 4 26q11 41 49 71l508 400q36 29 77 29t63 -29q14 -20 14 -45q0 -12 -4 -26q-10 -41 -47 -70z" />
    <glyph glyph-name="Ecircumflex" unicode="&#xca;" 
d="M954 200q41 0 63 -29q14 -20 14 -45q0 -12 -4 -26q-11 -41 -48.5 -70.5t-78.5 -29.5h-800q-41 0 -62 30q-15 19 -15 44q0 12 4 26l348 1300q11 41 48.5 70.5t78.5 29.5h800q41 0 63 -29q14 -20 14 -45q0 -12 -4 -26q-11 -41 -48.5 -70.5t-78.5 -29.5h-700l-120 -450h600
q41 0 63 -29q14 -20 14 -45q0 -12 -4 -26q-11 -41 -48.5 -70.5t-78.5 -29.5h-600l-120 -450h700zM1053 2060l-418 -330q-38 -30 -79 -30t-63 30q-15 19 -15 44q0 12 4 26q11 41 49 71l508 400q36 29 77 29t64 -29l292 -400q14 -20 14 -44q0 -13 -4 -27q-11 -41 -48 -70.5
t-78 -29.5t-62 30z" />
    <glyph glyph-name="Edieresis" unicode="&#xcb;" 
d="M954 200q41 0 63 -29q14 -20 14 -45q0 -12 -4 -26q-11 -41 -48.5 -70.5t-78.5 -29.5h-800q-41 0 -62 30q-15 19 -15 44q0 12 4 26l348 1300q11 41 48.5 70.5t78.5 29.5h800q41 0 63 -29q14 -20 14 -45q0 -12 -4 -26q-11 -41 -48.5 -70.5t-78.5 -29.5h-700l-120 -450h600
q41 0 63 -29q14 -20 14 -45q0 -12 -4 -26q-11 -41 -48.5 -70.5t-78.5 -29.5h-600l-120 -450h700zM872 1871q14 -20 14 -45q0 -12 -4 -26q-11 -41 -48 -70.5t-78 -29.5t-63 30q-15 19 -15 44q0 12 4 26q11 41 48.5 70.5t78.5 29.5t63 -29zM1272 1871q14 -20 14 -45
q0 -12 -4 -26q-11 -41 -48 -70.5t-78 -29.5t-63 30q-15 19 -15 44q0 12 4 26q11 41 48.5 70.5t78.5 29.5t63 -29z" />
    <glyph glyph-name="Igrave" unicode="&#xcc;" 
d="M454 200l294 1100h-300q-41 0 -62 30q-15 19 -15 44q0 12 4 26q11 41 48.5 70.5t78.5 29.5h800q41 0 63 -29q14 -20 14 -45q0 -12 -4 -26q-11 -41 -48.5 -70.5t-78.5 -29.5h-300l-294 -1100h300q41 0 63 -29q14 -20 14 -45q0 -12 -4 -26q-11 -41 -48.5 -70.5t-78.5 -29.5
h-800q-41 0 -62 30q-15 19 -15 44q0 12 4 26q11 41 48.5 70.5t78.5 29.5h300zM801 2130q-15 20 -15 46q0 11 3 24q11 41 48.5 70.5t78.5 29.5t64 -29l292 -400q14 -20 14 -44q0 -13 -4 -27q-11 -41 -48 -70.5t-78 -29.5t-62 30z" />
    <glyph glyph-name="Iacute" unicode="&#xcd;" 
d="M454 200l294 1100h-300q-41 0 -62 30q-15 19 -15 44q0 12 4 26q11 41 48.5 70.5t78.5 29.5h800q41 0 63 -29q14 -20 14 -45q0 -12 -4 -26q-11 -41 -48.5 -70.5t-78.5 -29.5h-300l-294 -1100h300q41 0 63 -29q14 -20 14 -45q0 -12 -4 -26q-11 -41 -48.5 -70.5t-78.5 -29.5
h-800q-41 0 -62 30q-15 19 -15 44q0 12 4 26q11 41 48.5 70.5t78.5 29.5h300zM835 1730q-38 -30 -79 -30t-63 30q-15 19 -15 44q0 12 4 26q11 41 49 71l508 400q36 29 77 29t63 -29q14 -20 14 -45q0 -12 -4 -26q-10 -41 -47 -70z" />
    <glyph glyph-name="Icircumflex" unicode="&#xce;" 
d="M454 200l294 1100h-300q-41 0 -62 30q-15 19 -15 44q0 12 4 26q11 41 48.5 70.5t78.5 29.5h800q41 0 63 -29q14 -20 14 -45q0 -12 -4 -26q-11 -41 -48.5 -70.5t-78.5 -29.5h-300l-294 -1100h300q41 0 63 -29q14 -20 14 -45q0 -12 -4 -26q-11 -41 -48.5 -70.5t-78.5 -29.5
h-800q-41 0 -62 30q-15 19 -15 44q0 12 4 26q11 41 48.5 70.5t78.5 29.5h300zM1053 2060l-418 -330q-38 -30 -79 -30t-63 30q-15 19 -15 44q0 12 4 26q11 41 49 71l508 400q36 29 77 29t64 -29l292 -400q14 -20 14 -44q0 -13 -4 -27q-11 -41 -48 -70.5t-78 -29.5t-62 30z
" />
    <glyph glyph-name="Idieresis" unicode="&#xcf;" 
d="M454 200l294 1100h-300q-41 0 -62 30q-15 19 -15 44q0 12 4 26q11 41 48.5 70.5t78.5 29.5h800q41 0 63 -29q14 -20 14 -45q0 -12 -4 -26q-11 -41 -48.5 -70.5t-78.5 -29.5h-300l-294 -1100h300q41 0 63 -29q14 -20 14 -45q0 -12 -4 -26q-11 -41 -48.5 -70.5t-78.5 -29.5
h-800q-41 0 -62 30q-15 19 -15 44q0 12 4 26q11 41 48.5 70.5t78.5 29.5h300zM872 1871q14 -20 14 -45q0 -12 -4 -26q-11 -41 -48 -70.5t-78 -29.5t-63 30q-15 19 -15 44q0 12 4 26q11 41 48.5 70.5t78.5 29.5t63 -29zM1272 1871q14 -20 14 -45q0 -12 -4 -26
q-11 -41 -48 -70.5t-78 -29.5t-63 30q-15 19 -15 44q0 12 4 26q11 41 48.5 70.5t78.5 29.5t63 -29z" />
    <glyph glyph-name="Eth" unicode="&#xd0;" 
d="M374 650l-120 -450h300q124 0 235.5 88t144.5 212l134 500q11 42 11 80q0 74 -42 132q-65 88 -189 88h-300l-120 -450h300q41 0 63 -29q14 -20 14 -45q0 -12 -4 -26q-11 -41 -48.5 -70.5t-78.5 -29.5h-300zM100 0q-41 0 -62 30q-15 19 -15 44q0 12 4 26l348 1300
q11 41 48.5 70.5t78.5 29.5h400q207 0 314 -146q71 -97 71 -220q0 -64 -19 -134l-134 -500q-55 -207 -241 -353.5t-393 -146.5h-400z" />
    <glyph glyph-name="Ntilde" unicode="&#xd1;" 
d="M595 1400l328 -941l252 941q11 41 48.5 70.5t78.5 29.5t63 -29q14 -20 14 -45q0 -12 -4 -26l-348 -1300q-11 -41 -48.5 -70.5t-78.5 -29.5t-62.5 29.5t-30.5 70.5l-328 941l-252 -941q-11 -41 -48.5 -70.5t-78.5 -29.5t-62 30q-15 19 -15 44q0 12 4 26l348 1300
q11 41 48.5 70.5t78.5 29.5t62.5 -29.5t30.5 -70.5zM1141 1925q27 -25 68 -25t78.5 29.5t48.5 70.5t48.5 70.5t78.5 29.5t63 -29q14 -20 14 -45q0 -12 -4 -26q-33 -124 -144.5 -212t-235.5 -88t-180 75l-99 100q-27 25 -68 25t-78.5 -29.5t-48.5 -70.5t-48 -70.5t-78 -29.5
t-63 30q-15 19 -15 44q0 12 4 26q34 124 145.5 212t235.5 88t180 -75z" />
    <glyph glyph-name="Ograve" unicode="&#xd2;" 
d="M1134 500q-55 -207 -241 -353.5t-393 -146.5t-314 147q-71 96 -71 219q0 64 19 134l134 500q55 207 241 353.5t393 146.5t314 -146q71 -97 71 -220q0 -64 -19 -134zM334 500q-11 -42 -11 -80q0 -74 43 -132q64 -88 188 -88t235.5 88t144.5 212l134 500q11 42 11 80
q0 74 -42 132q-65 88 -189 88t-235.5 -88t-144.5 -212zM801 2130q-15 20 -15 46q0 11 3 24q11 41 48.5 70.5t78.5 29.5t64 -29l292 -400q14 -20 14 -44q0 -13 -4 -27q-11 -41 -48 -70.5t-78 -29.5t-62 30z" />
    <glyph glyph-name="Oacute" unicode="&#xd3;" 
d="M1134 500q-55 -207 -241 -353.5t-393 -146.5t-314 147q-71 96 -71 219q0 64 19 134l134 500q55 207 241 353.5t393 146.5t314 -146q71 -97 71 -220q0 -64 -19 -134zM334 500q-11 -42 -11 -80q0 -74 43 -132q64 -88 188 -88t235.5 88t144.5 212l134 500q11 42 11 80
q0 74 -42 132q-65 88 -189 88t-235.5 -88t-144.5 -212zM835 1730q-38 -30 -79 -30t-63 30q-15 19 -15 44q0 12 4 26q11 41 49 71l508 400q36 29 77 29t63 -29q14 -20 14 -45q0 -12 -4 -26q-10 -41 -47 -70z" />
    <glyph glyph-name="Ocircumflex" unicode="&#xd4;" 
d="M1134 500q-55 -207 -241 -353.5t-393 -146.5t-314 147q-71 96 -71 219q0 64 19 134l134 500q55 207 241 353.5t393 146.5t314 -146q71 -97 71 -220q0 -64 -19 -134zM334 500q-11 -42 -11 -80q0 -74 43 -132q64 -88 188 -88t235.5 88t144.5 212l134 500q11 42 11 80
q0 74 -42 132q-65 88 -189 88t-235.5 -88t-144.5 -212zM1053 2060l-418 -330q-38 -30 -79 -30t-63 30q-15 19 -15 44q0 12 4 26q11 41 49 71l508 400q36 29 77 29t64 -29l292 -400q14 -20 14 -44q0 -13 -4 -27q-11 -41 -48 -70.5t-78 -29.5t-62 30z" />
    <glyph glyph-name="Otilde" unicode="&#xd5;" 
d="M1134 500q-55 -207 -241 -353.5t-393 -146.5t-314 147q-71 96 -71 219q0 64 19 134l134 500q55 207 241 353.5t393 146.5t314 -146q71 -97 71 -220q0 -64 -19 -134zM334 500q-11 -42 -11 -80q0 -74 43 -132q64 -88 188 -88t235.5 88t144.5 212l134 500q11 42 11 80
q0 74 -42 132q-65 88 -189 88t-235.5 -88t-144.5 -212zM1141 1925q27 -25 68 -25t78.5 29.5t48.5 70.5t48.5 70.5t78.5 29.5t63 -29q14 -20 14 -45q0 -12 -4 -26q-33 -124 -144.5 -212t-235.5 -88t-180 75l-99 100q-27 25 -68 25t-78.5 -29.5t-48.5 -70.5t-48 -70.5
t-78 -29.5t-63 30q-15 19 -15 44q0 12 4 26q34 124 145.5 212t235.5 88t180 -75z" />
    <glyph glyph-name="Odieresis" unicode="&#xd6;" 
d="M1134 500q-55 -207 -241 -353.5t-393 -146.5t-314 147q-71 96 -71 219q0 64 19 134l134 500q55 207 241 353.5t393 146.5t314 -146q71 -97 71 -220q0 -64 -19 -134zM334 500q-11 -42 -11 -80q0 -74 43 -132q64 -88 188 -88t235.5 88t144.5 212l134 500q11 42 11 80
q0 74 -42 132q-65 88 -189 88t-235.5 -88t-144.5 -212zM872 1871q14 -20 14 -45q0 -12 -4 -26q-11 -41 -48 -70.5t-78 -29.5t-63 30q-15 19 -15 44q0 12 4 26q11 41 48.5 70.5t78.5 29.5t63 -29zM1272 1871q14 -20 14 -45q0 -12 -4 -26q-11 -41 -48 -70.5t-78 -29.5t-63 30
q-15 19 -15 44q0 12 4 26q11 41 48.5 70.5t78.5 29.5t63 -29z" />
    <glyph glyph-name="multiply" unicode="&#xd7;" 
d="M648 554l-314 -354q-31 -41 -68.5 -70.5t-78.5 -29.5t-62 30q-15 19 -15 44q0 12 4 26q11 41 66 100l400 450l-158 450q-17 41 -17 73q0 14 3 27q11 41 48.5 70.5t78.5 29.5t62.5 -29.5t30.5 -70.5l125 -354l315 354q31 41 68.5 70.5t78.5 29.5t63 -29q14 -20 14 -45
q0 -12 -4 -26q-11 -41 -66 -100l-400 -450l158 -450q17 -41 17 -73q0 -14 -3 -27q-11 -41 -48.5 -70.5t-78.5 -29.5t-62.5 29.5t-30.5 70.5z" />
    <glyph glyph-name="Oslash" unicode="&#xd8;" 
d="M389 261q62 -61 165 -61q124 0 235.5 88t144.5 212l134 500q5 19 8 37zM326 463l687 776q-62 61 -165 61q-124 0 -235.5 -88t-144.5 -212l-134 -500q-5 -19 -8 -37zM1268 1254q19 -56 19 -120q0 -63 -19 -134l-134 -500q-55 -207 -241 -353.5t-393 -146.5q-161 0 -262 89
q-27 -34 -59 -59q-38 -30 -79 -30t-62 30q-15 19 -15 44q0 12 4 26q11 41 67 100l40 46q-19 57 -19 120q0 64 19 134l134 500q55 207 241 353.5t393 146.5q161 0 262 -89q27 34 60 60q37 29 78 29t63 -29q14 -20 14 -45q0 -12 -4 -26q-11 -41 -67 -100z" />
    <glyph glyph-name="Ugrave" unicode="&#xd9;" 
d="M375 1400q11 41 48.5 70.5t78.5 29.5t63 -29q14 -20 14 -45q0 -12 -4 -26l-241 -900q-11 -42 -11 -80q0 -74 43 -132q64 -88 188 -88t235.5 88t144.5 212l241 900q11 41 48.5 70.5t78.5 29.5t63 -29q14 -20 14 -45q0 -12 -4 -26l-241 -900q-55 -207 -241 -353.5
t-393 -146.5t-314 147q-71 96 -71 219q0 64 19 134zM801 2130q-15 20 -15 46q0 11 3 24q11 41 48.5 70.5t78.5 29.5t64 -29l292 -400q14 -20 14 -44q0 -13 -4 -27q-11 -41 -48 -70.5t-78 -29.5t-62 30z" />
    <glyph glyph-name="Uacute" unicode="&#xda;" 
d="M375 1400q11 41 48.5 70.5t78.5 29.5t63 -29q14 -20 14 -45q0 -12 -4 -26l-241 -900q-11 -42 -11 -80q0 -74 43 -132q64 -88 188 -88t235.5 88t144.5 212l241 900q11 41 48.5 70.5t78.5 29.5t63 -29q14 -20 14 -45q0 -12 -4 -26l-241 -900q-55 -207 -241 -353.5
t-393 -146.5t-314 147q-71 96 -71 219q0 64 19 134zM835 1730q-38 -30 -79 -30t-63 30q-15 19 -15 44q0 12 4 26q11 41 49 71l508 400q36 29 77 29t63 -29q14 -20 14 -45q0 -12 -4 -26q-10 -41 -47 -70z" />
    <glyph glyph-name="Ucircumflex" unicode="&#xdb;" 
d="M375 1400q11 41 48.5 70.5t78.5 29.5t63 -29q14 -20 14 -45q0 -12 -4 -26l-241 -900q-11 -42 -11 -80q0 -74 43 -132q64 -88 188 -88t235.5 88t144.5 212l241 900q11 41 48.5 70.5t78.5 29.5t63 -29q14 -20 14 -45q0 -12 -4 -26l-241 -900q-55 -207 -241 -353.5
t-393 -146.5t-314 147q-71 96 -71 219q0 64 19 134zM1053 2060l-418 -330q-38 -30 -79 -30t-63 30q-15 19 -15 44q0 12 4 26q11 41 49 71l508 400q36 29 77 29t64 -29l292 -400q14 -20 14 -44q0 -13 -4 -27q-11 -41 -48 -70.5t-78 -29.5t-62 30z" />
    <glyph glyph-name="Udieresis" unicode="&#xdc;" 
d="M375 1400q11 41 48.5 70.5t78.5 29.5t63 -29q14 -20 14 -45q0 -12 -4 -26l-241 -900q-11 -42 -11 -80q0 -74 43 -132q64 -88 188 -88t235.5 88t144.5 212l241 900q11 41 48.5 70.5t78.5 29.5t63 -29q14 -20 14 -45q0 -12 -4 -26l-241 -900q-55 -207 -241 -353.5
t-393 -146.5t-314 147q-71 96 -71 219q0 64 19 134zM872 1871q14 -20 14 -45q0 -12 -4 -26q-11 -41 -48 -70.5t-78 -29.5t-63 30q-15 19 -15 44q0 12 4 26q11 41 48.5 70.5t78.5 29.5t63 -29zM1272 1871q14 -20 14 -45q0 -12 -4 -26q-11 -41 -48 -70.5t-78 -29.5t-63 30
q-15 19 -15 44q0 12 4 26q11 41 48.5 70.5t78.5 29.5t63 -29z" />
    <glyph glyph-name="Yacute" unicode="&#xdd;" 
d="M592 716l-12 34l-192 550q-16 40 -16 72q0 15 3 28q11 41 48.5 70.5t78.5 29.5t62.5 -29.5t30.5 -70.5l158 -454l402 454q31 41 68.5 70.5t78.5 29.5t63 -29q14 -20 14 -45q0 -12 -4 -26q-11 -41 -67 -100l-486 -550l-30 -34l-165 -616q-11 -41 -48.5 -70.5t-78.5 -29.5
t-62 30q-15 19 -15 44q0 12 4 26zM835 1730q-38 -30 -79 -30t-63 30q-15 19 -15 44q0 12 4 26q11 41 49 71l508 400q36 29 77 29t63 -29q14 -20 14 -45q0 -12 -4 -26q-10 -41 -47 -70z" />
    <glyph glyph-name="Thorn" unicode="&#xde;" 
d="M843 1000h-375l-121 -450h375q93 0 177 66t109 159q9 32 9 60q0 55 -32 99q-49 66 -142 66zM522 1200h375q176 0 267 -124q60 -83 60 -187q0 -54 -16 -114q-47 -176 -205 -300.5t-334 -124.5h-375l-67 -250q-11 -41 -48.5 -70.5t-78.5 -29.5t-62 30q-15 19 -15 44
q0 12 4 26l348 1300q11 41 48.5 70.5t78.5 29.5t63 -29q14 -20 14 -45q0 -12 -4 -26z" />
    <glyph glyph-name="germandbls" unicode="&#xdf;" 
d="M500 0q-41 0 -62 30q-15 19 -15 44q0 12 4 26q11 41 48.5 70.5t78.5 29.5h75q93 0 176.5 66t108.5 159q9 32 9 60q0 55 -32 99q-49 66 -142 66h-75q-41 0 -62 30q-15 19 -15 44q0 12 4 26q11 41 48.5 70.5t78.5 29.5h75q93 0 176.5 66t108.5 159q9 32 9 60q0 55 -32 99
q-49 66 -142 66h-150q-93 0 -176.5 -66t-108.5 -159l-261 -975q-11 -41 -48.5 -70.5t-78.5 -29.5t-62 30q-15 19 -15 44q0 12 4 26l261 975q47 176 205 300.5t334 124.5h150q176 0 267 -124q60 -83 60 -187q0 -54 -16 -114q-47 -176 -204 -300q-17 -13 -34 -25
q11 -12 21 -24q59 -82 59 -186q0 -55 -16 -115q-47 -176 -205 -300.5t-334 -124.5h-75z" />
    <glyph glyph-name="agrave" unicode="&#xe0;" 
d="M345 300l-103 -180q-36 -61 -68.5 -90.5t-73.5 -29.5t-62 30q-15 19 -15 44q0 12 4 26q9 34 41 80l712 1240h2q13 28 42 50q37 30 78 30t63 -30q13 -19 13 -41v-9h2l48 -1240q4 -22 4 -41q0 -21 -5 -39q-11 -41 -48.5 -70.5t-78.5 -29.5t-57.5 29.5t-20.5 90.5l-7 180
h-470zM808 500l-21 572l-327 -572h348zM801 2130q-15 20 -15 46q0 11 3 24q11 41 48.5 70.5t78.5 29.5t64 -29l292 -400q14 -20 14 -44q0 -13 -4 -27q-11 -41 -48 -70.5t-78 -29.5t-62 30z" />
    <glyph glyph-name="aacute" unicode="&#xe1;" 
d="M345 300l-103 -180q-36 -61 -68.5 -90.5t-73.5 -29.5t-62 30q-15 19 -15 44q0 12 4 26q9 34 41 80l712 1240h2q13 28 42 50q37 30 78 30t63 -30q13 -19 13 -41v-9h2l48 -1240q4 -22 4 -41q0 -21 -5 -39q-11 -41 -48.5 -70.5t-78.5 -29.5t-57.5 29.5t-20.5 90.5l-7 180
h-470zM808 500l-21 572l-327 -572h348zM835 1730q-38 -30 -79 -30t-63 30q-15 19 -15 44q0 12 4 26q11 41 49 71l508 400q36 29 77 29t63 -29q14 -20 14 -45q0 -12 -4 -26q-10 -41 -47 -70z" />
    <glyph glyph-name="acircumflex" unicode="&#xe2;" 
d="M345 300l-103 -180q-36 -61 -68.5 -90.5t-73.5 -29.5t-62 30q-15 19 -15 44q0 12 4 26q9 34 41 80l712 1240h2q13 28 42 50q37 30 78 30t63 -30q13 -19 13 -41v-9h2l48 -1240q4 -22 4 -41q0 -21 -5 -39q-11 -41 -48.5 -70.5t-78.5 -29.5t-57.5 29.5t-20.5 90.5l-7 180
h-470zM808 500l-21 572l-327 -572h348zM1053 2060l-418 -330q-38 -30 -79 -30t-63 30q-15 19 -15 44q0 12 4 26q11 41 49 71l508 400q36 29 77 29t64 -29l292 -400q14 -20 14 -44q0 -13 -4 -27q-11 -41 -48 -70.5t-78 -29.5t-62 30z" />
    <glyph glyph-name="atilde" unicode="&#xe3;" 
d="M345 300l-103 -180q-36 -61 -68.5 -90.5t-73.5 -29.5t-62 30q-15 19 -15 44q0 12 4 26q9 34 41 80l712 1240h2q13 28 42 50q37 30 78 30t63 -30q13 -19 13 -41v-9h2l48 -1240q4 -22 4 -41q0 -21 -5 -39q-11 -41 -48.5 -70.5t-78.5 -29.5t-57.5 29.5t-20.5 90.5l-7 180
h-470zM808 500l-21 572l-327 -572h348zM1141 1925q27 -25 68 -25t78.5 29.5t48.5 70.5t48.5 70.5t78.5 29.5t63 -29q14 -20 14 -45q0 -12 -4 -26q-33 -124 -144.5 -212t-235.5 -88t-180 75l-99 100q-27 25 -68 25t-78.5 -29.5t-48.5 -70.5t-48 -70.5t-78 -29.5t-63 30
q-15 19 -15 44q0 12 4 26q34 124 145.5 212t235.5 88t180 -75z" />
    <glyph glyph-name="adieresis" unicode="&#xe4;" 
d="M345 300l-103 -180q-36 -61 -68.5 -90.5t-73.5 -29.5t-62 30q-15 19 -15 44q0 12 4 26q9 34 41 80l712 1240h2q13 28 42 50q37 30 78 30t63 -30q13 -19 13 -41v-9h2l48 -1240q4 -22 4 -41q0 -21 -5 -39q-11 -41 -48.5 -70.5t-78.5 -29.5t-57.5 29.5t-20.5 90.5l-7 180
h-470zM808 500l-21 572l-327 -572h348zM872 1871q14 -20 14 -45q0 -12 -4 -26q-11 -41 -48 -70.5t-78 -29.5t-63 30q-15 19 -15 44q0 12 4 26q11 41 48.5 70.5t78.5 29.5t63 -29zM1272 1871q14 -20 14 -45q0 -12 -4 -26q-11 -41 -48 -70.5t-78 -29.5t-63 30q-15 19 -15 44
q0 12 4 26q11 41 48.5 70.5t78.5 29.5t63 -29z" />
    <glyph glyph-name="aring" unicode="&#xe5;" 
d="M345 300l-103 -180q-36 -61 -68.5 -90.5t-73.5 -29.5t-62 30q-15 19 -15 44q0 12 4 26q9 34 41 80l712 1240h2q13 28 42 50q37 30 78 30t63 -30q13 -19 13 -41v-9h2l48 -1240q4 -22 4 -41q0 -21 -5 -39q-11 -41 -48.5 -70.5t-78.5 -29.5t-57.5 29.5t-20.5 90.5l-7 180
h-470zM808 500l-21 572l-327 -572h348zM956 1700q-124 0 -188 88q-43 58 -43 132q0 38 11 80q33 124 144.5 212t235.5 88t189 -88q42 -58 42 -132q0 -38 -11 -80q-33 -124 -144.5 -212t-235.5 -88zM1087.5 1929.5q37.5 29.5 48.5 70.5q4 14 4 26q0 25 -14 45q-22 29 -63 29
t-78.5 -29.5t-48.5 -70.5q-4 -14 -4 -26q0 -25 15 -44q21 -30 62 -30t78.5 29.5z" />
    <glyph glyph-name="ae" unicode="&#xe6;" 
d="M1402 1500q41 0 63 -29q14 -20 14 -45q0 -12 -4 -26q-11 -41 -48.5 -70.5t-78.5 -29.5h-300l-120 -450h200q41 0 63 -29q14 -20 14 -45q0 -12 -4 -26q-11 -41 -48.5 -70.5t-78.5 -29.5h-200l-120 -450h300q41 0 63 -29q14 -20 14 -45q0 -12 -4 -26q-11 -41 -48.5 -70.5
t-78.5 -29.5h-400q-41 0 -62 30q-15 19 -15 44q0 12 4 26l53 200h-235l-103 -180q-36 -61 -68.5 -90.5t-73.5 -29.5t-62 30q-15 19 -15 44q0 12 4 26q9 34 41 80l712 1240h2q13 28 42 50q37 30 78 30h500zM787 1072l-327 -572h174z" />
    <glyph glyph-name="ccedilla" unicode="&#xe7;" 
d="M499 0q-206 0 -313 147q-71 96 -71 220q0 63 19 133l134 500q55 207 241 353.5t393 146.5t314 -146q71 -97 71 -220q0 -64 -19 -134q-11 -41 -48.5 -70.5t-78.5 -29.5t-62 30q-15 19 -15 44q0 12 4 26q11 42 11 80q0 74 -42 132q-65 88 -189 88t-235.5 -88t-144.5 -212
l-134 -500q-11 -42 -11 -80q0 -74 43 -132q64 -88 188 -88t235.5 88t144.5 212q11 41 48.5 70.5t78.5 29.5t63 -29q14 -20 14 -45q0 -12 -4 -26q-55 -207 -241 -353q-90 -71 -183 -107q-1 -7 -3 -15q-47 -176 -205 -300.5t-334 -124.5h-75q-41 0 -62 30q-15 19 -15 44
q0 12 4 26q11 41 48 70.5t78 29.5h75q93 0 177 66q72 57 101 134z" />
    <glyph glyph-name="egrave" unicode="&#xe8;" 
d="M954 200q41 0 63 -29q14 -20 14 -45q0 -12 -4 -26q-11 -41 -48.5 -70.5t-78.5 -29.5h-800q-41 0 -62 30q-15 19 -15 44q0 12 4 26l348 1300q11 41 48.5 70.5t78.5 29.5h800q41 0 63 -29q14 -20 14 -45q0 -12 -4 -26q-11 -41 -48.5 -70.5t-78.5 -29.5h-700l-120 -450h600
q41 0 63 -29q14 -20 14 -45q0 -12 -4 -26q-11 -41 -48.5 -70.5t-78.5 -29.5h-600l-120 -450h700zM801 2130q-15 20 -15 46q0 11 3 24q11 41 48.5 70.5t78.5 29.5t64 -29l292 -400q14 -20 14 -44q0 -13 -4 -27q-11 -41 -48 -70.5t-78 -29.5t-62 30z" />
    <glyph glyph-name="eacute" unicode="&#xe9;" 
d="M954 200q41 0 63 -29q14 -20 14 -45q0 -12 -4 -26q-11 -41 -48.5 -70.5t-78.5 -29.5h-800q-41 0 -62 30q-15 19 -15 44q0 12 4 26l348 1300q11 41 48.5 70.5t78.5 29.5h800q41 0 63 -29q14 -20 14 -45q0 -12 -4 -26q-11 -41 -48.5 -70.5t-78.5 -29.5h-700l-120 -450h600
q41 0 63 -29q14 -20 14 -45q0 -12 -4 -26q-11 -41 -48.5 -70.5t-78.5 -29.5h-600l-120 -450h700zM835 1730q-38 -30 -79 -30t-63 30q-15 19 -15 44q0 12 4 26q11 41 49 71l508 400q36 29 77 29t63 -29q14 -20 14 -45q0 -12 -4 -26q-10 -41 -47 -70z" />
    <glyph glyph-name="ecircumflex" unicode="&#xea;" 
d="M954 200q41 0 63 -29q14 -20 14 -45q0 -12 -4 -26q-11 -41 -48.5 -70.5t-78.5 -29.5h-800q-41 0 -62 30q-15 19 -15 44q0 12 4 26l348 1300q11 41 48.5 70.5t78.5 29.5h800q41 0 63 -29q14 -20 14 -45q0 -12 -4 -26q-11 -41 -48.5 -70.5t-78.5 -29.5h-700l-120 -450h600
q41 0 63 -29q14 -20 14 -45q0 -12 -4 -26q-11 -41 -48.5 -70.5t-78.5 -29.5h-600l-120 -450h700zM1053 2060l-418 -330q-38 -30 -79 -30t-63 30q-15 19 -15 44q0 12 4 26q11 41 49 71l508 400q36 29 77 29t64 -29l292 -400q14 -20 14 -44q0 -13 -4 -27q-11 -41 -48 -70.5
t-78 -29.5t-62 30z" />
    <glyph glyph-name="edieresis" unicode="&#xeb;" 
d="M954 200q41 0 63 -29q14 -20 14 -45q0 -12 -4 -26q-11 -41 -48.5 -70.5t-78.5 -29.5h-800q-41 0 -62 30q-15 19 -15 44q0 12 4 26l348 1300q11 41 48.5 70.5t78.5 29.5h800q41 0 63 -29q14 -20 14 -45q0 -12 -4 -26q-11 -41 -48.5 -70.5t-78.5 -29.5h-700l-120 -450h600
q41 0 63 -29q14 -20 14 -45q0 -12 -4 -26q-11 -41 -48.5 -70.5t-78.5 -29.5h-600l-120 -450h700zM872 1871q14 -20 14 -45q0 -12 -4 -26q-11 -41 -48 -70.5t-78 -29.5t-63 30q-15 19 -15 44q0 12 4 26q11 41 48.5 70.5t78.5 29.5t63 -29zM1272 1871q14 -20 14 -45
q0 -12 -4 -26q-11 -41 -48 -70.5t-78 -29.5t-63 30q-15 19 -15 44q0 12 4 26q11 41 48.5 70.5t78.5 29.5t63 -29z" />
    <glyph glyph-name="igrave" unicode="&#xec;" 
d="M454 200l294 1100h-300q-41 0 -62 30q-15 19 -15 44q0 12 4 26q11 41 48.5 70.5t78.5 29.5h800q41 0 63 -29q14 -20 14 -45q0 -12 -4 -26q-11 -41 -48.5 -70.5t-78.5 -29.5h-300l-294 -1100h300q41 0 63 -29q14 -20 14 -45q0 -12 -4 -26q-11 -41 -48.5 -70.5t-78.5 -29.5
h-800q-41 0 -62 30q-15 19 -15 44q0 12 4 26q11 41 48.5 70.5t78.5 29.5h300zM801 2130q-15 20 -15 46q0 11 3 24q11 41 48.5 70.5t78.5 29.5t64 -29l292 -400q14 -20 14 -44q0 -13 -4 -27q-11 -41 -48 -70.5t-78 -29.5t-62 30z" />
    <glyph glyph-name="iacute" unicode="&#xed;" 
d="M454 200l294 1100h-300q-41 0 -62 30q-15 19 -15 44q0 12 4 26q11 41 48.5 70.5t78.5 29.5h800q41 0 63 -29q14 -20 14 -45q0 -12 -4 -26q-11 -41 -48.5 -70.5t-78.5 -29.5h-300l-294 -1100h300q41 0 63 -29q14 -20 14 -45q0 -12 -4 -26q-11 -41 -48.5 -70.5t-78.5 -29.5
h-800q-41 0 -62 30q-15 19 -15 44q0 12 4 26q11 41 48.5 70.5t78.5 29.5h300zM835 1730q-38 -30 -79 -30t-63 30q-15 19 -15 44q0 12 4 26q11 41 49 71l508 400q36 29 77 29t63 -29q14 -20 14 -45q0 -12 -4 -26q-10 -41 -47 -70z" />
    <glyph glyph-name="icircumflex" unicode="&#xee;" 
d="M454 200l294 1100h-300q-41 0 -62 30q-15 19 -15 44q0 12 4 26q11 41 48.5 70.5t78.5 29.5h800q41 0 63 -29q14 -20 14 -45q0 -12 -4 -26q-11 -41 -48.5 -70.5t-78.5 -29.5h-300l-294 -1100h300q41 0 63 -29q14 -20 14 -45q0 -12 -4 -26q-11 -41 -48.5 -70.5t-78.5 -29.5
h-800q-41 0 -62 30q-15 19 -15 44q0 12 4 26q11 41 48.5 70.5t78.5 29.5h300zM1053 2060l-418 -330q-38 -30 -79 -30t-63 30q-15 19 -15 44q0 12 4 26q11 41 49 71l508 400q36 29 77 29t64 -29l292 -400q14 -20 14 -44q0 -13 -4 -27q-11 -41 -48 -70.5t-78 -29.5t-62 30z
" />
    <glyph glyph-name="idieresis" unicode="&#xef;" 
d="M454 200l294 1100h-300q-41 0 -62 30q-15 19 -15 44q0 12 4 26q11 41 48.5 70.5t78.5 29.5h800q41 0 63 -29q14 -20 14 -45q0 -12 -4 -26q-11 -41 -48.5 -70.5t-78.5 -29.5h-300l-294 -1100h300q41 0 63 -29q14 -20 14 -45q0 -12 -4 -26q-11 -41 -48.5 -70.5t-78.5 -29.5
h-800q-41 0 -62 30q-15 19 -15 44q0 12 4 26q11 41 48.5 70.5t78.5 29.5h300zM872 1871q14 -20 14 -45q0 -12 -4 -26q-11 -41 -48 -70.5t-78 -29.5t-63 30q-15 19 -15 44q0 12 4 26q11 41 48.5 70.5t78.5 29.5t63 -29zM1272 1871q14 -20 14 -45q0 -12 -4 -26
q-11 -41 -48 -70.5t-78 -29.5t-63 30q-15 19 -15 44q0 12 4 26q11 41 48.5 70.5t78.5 29.5t63 -29z" />
    <glyph glyph-name="eth" unicode="&#xf0;" 
d="M374 650l-120 -450h300q124 0 235.5 88t144.5 212l134 500q11 42 11 80q0 74 -42 132q-65 88 -189 88h-300l-120 -450h300q41 0 63 -29q14 -20 14 -45q0 -12 -4 -26q-11 -41 -48.5 -70.5t-78.5 -29.5h-300zM100 0q-41 0 -62 30q-15 19 -15 44q0 12 4 26l348 1300
q11 41 48.5 70.5t78.5 29.5h400q207 0 314 -146q71 -97 71 -220q0 -64 -19 -134l-134 -500q-55 -207 -241 -353.5t-393 -146.5h-400z" />
    <glyph glyph-name="ntilde" unicode="&#xf1;" 
d="M595 1400l328 -941l252 941q11 41 48.5 70.5t78.5 29.5t63 -29q14 -20 14 -45q0 -12 -4 -26l-348 -1300q-11 -41 -48.5 -70.5t-78.5 -29.5t-62.5 29.5t-30.5 70.5l-328 941l-252 -941q-11 -41 -48.5 -70.5t-78.5 -29.5t-62 30q-15 19 -15 44q0 12 4 26l348 1300
q11 41 48.5 70.5t78.5 29.5t62.5 -29.5t30.5 -70.5zM1141 1925q27 -25 68 -25t78.5 29.5t48.5 70.5t48.5 70.5t78.5 29.5t63 -29q14 -20 14 -45q0 -12 -4 -26q-33 -124 -144.5 -212t-235.5 -88t-180 75l-99 100q-27 25 -68 25t-78.5 -29.5t-48.5 -70.5t-48 -70.5t-78 -29.5
t-63 30q-15 19 -15 44q0 12 4 26q34 124 145.5 212t235.5 88t180 -75z" />
    <glyph glyph-name="ograve" unicode="&#xf2;" 
d="M1134 500q-55 -207 -241 -353.5t-393 -146.5t-314 147q-71 96 -71 219q0 64 19 134l134 500q55 207 241 353.5t393 146.5t314 -146q71 -97 71 -220q0 -64 -19 -134zM334 500q-11 -42 -11 -80q0 -74 43 -132q64 -88 188 -88t235.5 88t144.5 212l134 500q11 42 11 80
q0 74 -42 132q-65 88 -189 88t-235.5 -88t-144.5 -212zM801 2130q-15 20 -15 46q0 11 3 24q11 41 48.5 70.5t78.5 29.5t64 -29l292 -400q14 -20 14 -44q0 -13 -4 -27q-11 -41 -48 -70.5t-78 -29.5t-62 30z" />
    <glyph glyph-name="oacute" unicode="&#xf3;" 
d="M1134 500q-55 -207 -241 -353.5t-393 -146.5t-314 147q-71 96 -71 219q0 64 19 134l134 500q55 207 241 353.5t393 146.5t314 -146q71 -97 71 -220q0 -64 -19 -134zM334 500q-11 -42 -11 -80q0 -74 43 -132q64 -88 188 -88t235.5 88t144.5 212l134 500q11 42 11 80
q0 74 -42 132q-65 88 -189 88t-235.5 -88t-144.5 -212zM835 1730q-38 -30 -79 -30t-63 30q-15 19 -15 44q0 12 4 26q11 41 49 71l508 400q36 29 77 29t63 -29q14 -20 14 -45q0 -12 -4 -26q-10 -41 -47 -70z" />
    <glyph glyph-name="ocircumflex" unicode="&#xf4;" 
d="M1134 500q-55 -207 -241 -353.5t-393 -146.5t-314 147q-71 96 -71 219q0 64 19 134l134 500q55 207 241 353.5t393 146.5t314 -146q71 -97 71 -220q0 -64 -19 -134zM334 500q-11 -42 -11 -80q0 -74 43 -132q64 -88 188 -88t235.5 88t144.5 212l134 500q11 42 11 80
q0 74 -42 132q-65 88 -189 88t-235.5 -88t-144.5 -212zM1053 2060l-418 -330q-38 -30 -79 -30t-63 30q-15 19 -15 44q0 12 4 26q11 41 49 71l508 400q36 29 77 29t64 -29l292 -400q14 -20 14 -44q0 -13 -4 -27q-11 -41 -48 -70.5t-78 -29.5t-62 30z" />
    <glyph glyph-name="otilde" unicode="&#xf5;" 
d="M1134 500q-55 -207 -241 -353.5t-393 -146.5t-314 147q-71 96 -71 219q0 64 19 134l134 500q55 207 241 353.5t393 146.5t314 -146q71 -97 71 -220q0 -64 -19 -134zM334 500q-11 -42 -11 -80q0 -74 43 -132q64 -88 188 -88t235.5 88t144.5 212l134 500q11 42 11 80
q0 74 -42 132q-65 88 -189 88t-235.5 -88t-144.5 -212zM1141 1925q27 -25 68 -25t78.5 29.5t48.5 70.5t48.5 70.5t78.5 29.5t63 -29q14 -20 14 -45q0 -12 -4 -26q-33 -124 -144.5 -212t-235.5 -88t-180 75l-99 100q-27 25 -68 25t-78.5 -29.5t-48.5 -70.5t-48 -70.5
t-78 -29.5t-63 30q-15 19 -15 44q0 12 4 26q34 124 145.5 212t235.5 88t180 -75z" />
    <glyph glyph-name="odieresis" unicode="&#xf6;" 
d="M1134 500q-55 -207 -241 -353.5t-393 -146.5t-314 147q-71 96 -71 219q0 64 19 134l134 500q55 207 241 353.5t393 146.5t314 -146q71 -97 71 -220q0 -64 -19 -134zM334 500q-11 -42 -11 -80q0 -74 43 -132q64 -88 188 -88t235.5 88t144.5 212l134 500q11 42 11 80
q0 74 -42 132q-65 88 -189 88t-235.5 -88t-144.5 -212zM872 1871q14 -20 14 -45q0 -12 -4 -26q-11 -41 -48 -70.5t-78 -29.5t-63 30q-15 19 -15 44q0 12 4 26q11 41 48.5 70.5t78.5 29.5t63 -29zM1272 1871q14 -20 14 -45q0 -12 -4 -26q-11 -41 -48 -70.5t-78 -29.5t-63 30
q-15 19 -15 44q0 12 4 26q11 41 48.5 70.5t78.5 29.5t63 -29z" />
    <glyph glyph-name="divide" unicode="&#xf7;" horiz-adv-x="1014" 
d="M260 647l38 140h839l1 -1l-38 -139h-840zM507 408l105 84q19 14 33 14q13 0 26 -16l57 -86q5 -11 5 -20q0 -5 -1 -9q-4 -15 -22 -31l-103 -88q-26 -20 -35 -20q-16 0 -25 14l-61 101q-4 9 -4 17q0 5 1 9q4 15 24 31zM693 1101l105 84q18 14 32 14q13 0 27 -16l57 -86
q5 -11 5 -20q0 -5 -1 -9q-4 -15 -22 -31l-104 -88q-25 -20 -34 -20q-16 0 -25 14l-61 101q-4 8 -4 16q0 5 1 10q4 15 24 31z" />
    <glyph glyph-name="oslash" unicode="&#xf8;" 
d="M389 261q62 -61 165 -61q124 0 235.5 88t144.5 212l134 500q5 19 8 37zM326 463l687 776q-62 61 -165 61q-124 0 -235.5 -88t-144.5 -212l-134 -500q-5 -19 -8 -37zM1268 1254q19 -56 19 -120q0 -63 -19 -134l-134 -500q-55 -207 -241 -353.5t-393 -146.5q-161 0 -262 89
q-27 -34 -59 -59q-38 -30 -79 -30t-62 30q-15 19 -15 44q0 12 4 26q11 41 67 100l40 46q-19 57 -19 120q0 64 19 134l134 500q55 207 241 353.5t393 146.5q161 0 262 -89q27 34 60 60q37 29 78 29t63 -29q14 -20 14 -45q0 -12 -4 -26q-11 -41 -67 -100z" />
    <glyph glyph-name="ugrave" unicode="&#xf9;" 
d="M375 1400q11 41 48.5 70.5t78.5 29.5t63 -29q14 -20 14 -45q0 -12 -4 -26l-241 -900q-11 -42 -11 -80q0 -74 43 -132q64 -88 188 -88t235.5 88t144.5 212l241 900q11 41 48.5 70.5t78.5 29.5t63 -29q14 -20 14 -45q0 -12 -4 -26l-241 -900q-55 -207 -241 -353.5
t-393 -146.5t-314 147q-71 96 -71 219q0 64 19 134zM801 2130q-15 20 -15 46q0 11 3 24q11 41 48.5 70.5t78.5 29.5t64 -29l292 -400q14 -20 14 -44q0 -13 -4 -27q-11 -41 -48 -70.5t-78 -29.5t-62 30z" />
    <glyph glyph-name="uacute" unicode="&#xfa;" 
d="M375 1400q11 41 48.5 70.5t78.5 29.5t63 -29q14 -20 14 -45q0 -12 -4 -26l-241 -900q-11 -42 -11 -80q0 -74 43 -132q64 -88 188 -88t235.5 88t144.5 212l241 900q11 41 48.5 70.5t78.5 29.5t63 -29q14 -20 14 -45q0 -12 -4 -26l-241 -900q-55 -207 -241 -353.5
t-393 -146.5t-314 147q-71 96 -71 219q0 64 19 134zM835 1730q-38 -30 -79 -30t-63 30q-15 19 -15 44q0 12 4 26q11 41 49 71l508 400q36 29 77 29t63 -29q14 -20 14 -45q0 -12 -4 -26q-10 -41 -47 -70z" />
    <glyph glyph-name="ucircumflex" unicode="&#xfb;" 
d="M375 1400q11 41 48.5 70.5t78.5 29.5t63 -29q14 -20 14 -45q0 -12 -4 -26l-241 -900q-11 -42 -11 -80q0 -74 43 -132q64 -88 188 -88t235.5 88t144.5 212l241 900q11 41 48.5 70.5t78.5 29.5t63 -29q14 -20 14 -45q0 -12 -4 -26l-241 -900q-55 -207 -241 -353.5
t-393 -146.5t-314 147q-71 96 -71 219q0 64 19 134zM1053 2060l-418 -330q-38 -30 -79 -30t-63 30q-15 19 -15 44q0 12 4 26q11 41 49 71l508 400q36 29 77 29t64 -29l292 -400q14 -20 14 -44q0 -13 -4 -27q-11 -41 -48 -70.5t-78 -29.5t-62 30z" />
    <glyph glyph-name="udieresis" unicode="&#xfc;" 
d="M375 1400q11 41 48.5 70.5t78.5 29.5t63 -29q14 -20 14 -45q0 -12 -4 -26l-241 -900q-11 -42 -11 -80q0 -74 43 -132q64 -88 188 -88t235.5 88t144.5 212l241 900q11 41 48.5 70.5t78.5 29.5t63 -29q14 -20 14 -45q0 -12 -4 -26l-241 -900q-55 -207 -241 -353.5
t-393 -146.5t-314 147q-71 96 -71 219q0 64 19 134zM872 1871q14 -20 14 -45q0 -12 -4 -26q-11 -41 -48 -70.5t-78 -29.5t-63 30q-15 19 -15 44q0 12 4 26q11 41 48.5 70.5t78.5 29.5t63 -29zM1272 1871q14 -20 14 -45q0 -12 -4 -26q-11 -41 -48 -70.5t-78 -29.5t-63 30
q-15 19 -15 44q0 12 4 26q11 41 48.5 70.5t78.5 29.5t63 -29z" />
    <glyph glyph-name="yacute" unicode="&#xfd;" 
d="M592 716l-12 34l-192 550q-16 40 -16 72q0 15 3 28q11 41 48.5 70.5t78.5 29.5t62.5 -29.5t30.5 -70.5l158 -454l402 454q31 41 68.5 70.5t78.5 29.5t63 -29q14 -20 14 -45q0 -12 -4 -26q-11 -41 -67 -100l-486 -550l-30 -34l-165 -616q-11 -41 -48.5 -70.5t-78.5 -29.5
t-62 30q-15 19 -15 44q0 12 4 26zM835 1730q-38 -30 -79 -30t-63 30q-15 19 -15 44q0 12 4 26q11 41 49 71l508 400q36 29 77 29t63 -29q14 -20 14 -45q0 -12 -4 -26q-10 -41 -47 -70z" />
    <glyph glyph-name="thorn" unicode="&#xfe;" 
d="M843 1000h-375l-121 -450h375q93 0 177 66t109 159q9 32 9 60q0 55 -32 99q-49 66 -142 66zM522 1200h375q176 0 267 -124q60 -83 60 -187q0 -54 -16 -114q-47 -176 -205 -300.5t-334 -124.5h-375l-67 -250q-11 -41 -48.5 -70.5t-78.5 -29.5t-62 30q-15 19 -15 44
q0 12 4 26l348 1300q11 41 48.5 70.5t78.5 29.5t63 -29q14 -20 14 -45q0 -12 -4 -26z" />
    <glyph glyph-name="ydieresis" unicode="&#xff;" 
d="M592 716l-12 34l-192 550q-16 40 -16 72q0 15 3 28q11 41 48.5 70.5t78.5 29.5t62.5 -29.5t30.5 -70.5l158 -454l402 454q31 41 68.5 70.5t78.5 29.5t63 -29q14 -20 14 -45q0 -12 -4 -26q-11 -41 -67 -100l-486 -550l-30 -34l-165 -616q-11 -41 -48.5 -70.5t-78.5 -29.5
t-62 30q-15 19 -15 44q0 12 4 26zM872 1871q14 -20 14 -45q0 -12 -4 -26q-11 -41 -48 -70.5t-78 -29.5t-63 30q-15 19 -15 44q0 12 4 26q11 41 48.5 70.5t78.5 29.5t63 -29zM1272 1871q14 -20 14 -45q0 -12 -4 -26q-11 -41 -48 -70.5t-78 -29.5t-63 30q-15 19 -15 44
q0 12 4 26q11 41 48.5 70.5t78.5 29.5t63 -29z" />
    <glyph glyph-name="dotlessi" unicode="&#x131;" horiz-adv-x="514" 
d="M388 223q-15 -55 -15 -93q0 -80 68 -80h46l-13 -50h-442l13 50h46q100 0 147 173l116 432q3 12 3 22q0 55 -94 55h-48l12 44q240 69 310 182h48z" />
    <glyph glyph-name="circumflex" unicode="&#x2c6;" 
d="M1053 2060l-418 -330q-38 -30 -79 -30t-63 30q-15 19 -15 44q0 12 4 26q11 41 49 71l508 400q36 29 77 29t64 -29l292 -400q14 -20 14 -44q0 -13 -4 -27q-11 -41 -48 -70.5t-78 -29.5t-62 30z" />
    <glyph glyph-name="caron" unicode="&#x2c7;" 
d="M1438 2270q37 30 78 30t63 -29q14 -20 14 -45q0 -12 -4 -26q-10 -41 -48 -71l-507 -400q-37 -29 -78 -29t-62 30l-294 399q-14 20 -14 46q0 12 3 25q11 41 48.5 70.5t78.5 29.5t63 -30l242 -329z" />
    <glyph glyph-name="uni02C9" unicode="&#x2c9;" horiz-adv-x="1024" 
d="M574 1195l34 125h516l-34 -125h-516z" />
    <glyph glyph-name="breve" unicode="&#x2d8;" horiz-adv-x="1024" 
d="M580 1349h51v-6q0 -68 47 -101q49 -34 158 -34t175 33.5t102 107.5h51q-55 -133 -147.5 -201.5t-215.5 -68.5q-122 0 -178 69q-46 55 -46 151q0 24 3 50z" />
    <glyph glyph-name="dotaccent" unicode="&#x2d9;" horiz-adv-x="1024" 
d="M767 1289l89 72q7 6 15 9t15 3q6 0 11.5 -3t10.5 -9l50 -76q4 -4 5 -10v-3q0 -5 -2 -11q-4 -9 -7.5 -15t-10.5 -12l-92 -76q-15 -11 -19.5 -13.5t-7.5 -2.5q-10 0 -16 2.5t-8 8.5l-52 87q-3 4 -3 10q-1 1 -1 2q0 5 2 11t7 12.5t14 13.5z" />
    <glyph glyph-name="ring" unicode="&#x2da;" 
d="M956 1700q-124 0 -188 88q-43 58 -43 132q0 38 11 80q33 124 144.5 212t235.5 88t189 -88q42 -58 42 -132q0 -38 -11 -80q-33 -124 -144.5 -212t-235.5 -88zM1087.5 1929.5q37.5 29.5 48.5 70.5q4 14 4 26q0 25 -14 45q-22 29 -63 29t-78.5 -29.5t-48.5 -70.5
q-4 -14 -4 -26q0 -25 15 -44q21 -30 62 -30t78.5 29.5z" />
    <glyph glyph-name="ogonek" unicode="&#x2db;" 
d="M609 -229q15 -20 15 -45q0 -12 -4 -26q-11 -41 -48.5 -70.5t-78.5 -29.5h-75q-176 0 -267 125q-60 82 -60 186q0 54 16 114q11 41 48 70.5t78 29.5t63 -29q15 -20 15 -45q0 -12 -4 -26q-9 -32 -9 -61q0 -55 32 -98q48 -66 141 -66h75q41 0 63 -29z" />
    <glyph glyph-name="tilde" unicode="&#x2dc;" 
d="M1141 1925q27 -25 68 -25t78.5 29.5t48.5 70.5t48.5 70.5t78.5 29.5t63 -29q14 -20 14 -45q0 -12 -4 -26q-33 -124 -144.5 -212t-235.5 -88t-180 75l-99 100q-27 25 -68 25t-78.5 -29.5t-48.5 -70.5t-48 -70.5t-78 -29.5t-63 30q-15 19 -15 44q0 12 4 26
q34 124 145.5 212t235.5 88t180 -75z" />
    <glyph glyph-name="hungarumlaut" unicode="&#x2dd;" horiz-adv-x="1024" 
d="M506 1079l217 273q36 44 62.5 63t51.5 19q28 0 43 -20q10 -13 10 -29q0 -9 -3 -18q-4 -16 -19.5 -35t-41.5 -41l-262 -212h-58zM791 1079l217 273q36 44 62.5 63t51.5 19q28 0 43 -20q10 -13 10 -29q0 -9 -3 -18q-4 -16 -19.5 -35t-41.5 -41l-262 -212h-58z" />
    <glyph glyph-name="endash" unicode="&#x2013;" 
d="M274 650q-41 0 -62 30q-15 19 -15 44q0 12 4 26q11 41 48.5 70.5t78.5 29.5h800q41 0 63 -29q14 -20 14 -45q0 -12 -4 -26q-11 -41 -48.5 -70.5t-78.5 -29.5h-800z" />
    <glyph glyph-name="emdash" unicode="&#x2014;" 
d="M274 650q-41 0 -62 30q-15 19 -15 44q0 12 4 26q11 41 48.5 70.5t78.5 29.5h800q41 0 63 -29q14 -20 14 -45q0 -12 -4 -26q-11 -41 -48.5 -70.5t-78.5 -29.5h-800z" />
    <glyph glyph-name="quoteleft" unicode="&#x2018;" 
d="M475 1400q11 41 48.5 70.5t78.5 29.5t63 -29q14 -20 14 -45q0 -12 -4 -26l-80 -300q-11 -41 -48.5 -70.5t-78.5 -29.5t-62 30q-15 19 -15 44q0 12 4 26z" />
    <glyph glyph-name="quoteright" unicode="&#x2019;" 
d="M475 1400q11 41 48.5 70.5t78.5 29.5t63 -29q14 -20 14 -45q0 -12 -4 -26l-80 -300q-11 -41 -48.5 -70.5t-78.5 -29.5t-62 30q-15 19 -15 44q0 12 4 26z" />
    <glyph glyph-name="quotesinglbase" unicode="&#x201a;" 
d="M127 100q11 41 48.5 70.5t78.5 29.5t63 -29q14 -20 14 -45q0 -12 -4 -26l-81 -300q-11 -41 -48 -70.5t-78 -29.5t-63 30q-15 19 -15 44q0 12 4 26z" />
    <glyph glyph-name="quotedblleft" unicode="&#x201c;" 
d="M475 1400q11 41 48.5 70.5t78.5 29.5t63 -29q14 -20 14 -45q0 -12 -4 -26l-80 -300q-11 -41 -48.5 -70.5t-78.5 -29.5t-62 30q-15 19 -15 44q0 12 4 26zM875 1400q11 41 48.5 70.5t78.5 29.5t63 -29q14 -20 14 -45q0 -12 -4 -26l-80 -300q-11 -41 -48.5 -70.5
t-78.5 -29.5t-62 30q-15 19 -15 44q0 12 4 26z" />
    <glyph glyph-name="quotedblright" unicode="&#x201d;" 
d="M475 1400q11 41 48.5 70.5t78.5 29.5t63 -29q14 -20 14 -45q0 -12 -4 -26l-80 -300q-11 -41 -48.5 -70.5t-78.5 -29.5t-62 30q-15 19 -15 44q0 12 4 26zM875 1400q11 41 48.5 70.5t78.5 29.5t63 -29q14 -20 14 -45q0 -12 -4 -26l-80 -300q-11 -41 -48.5 -70.5
t-78.5 -29.5t-62 30q-15 19 -15 44q0 12 4 26z" />
    <glyph glyph-name="quotedblbase" unicode="&#x201e;" 
d="M140 150q11 41 48.5 70.5t78.5 29.5t63 -29q14 -20 14 -45q0 -12 -4 -26l-80 -300q-11 -41 -48.5 -70.5t-78.5 -29.5t-62 30q-15 19 -15 44q0 12 4 26zM540 150q11 41 48.5 70.5t78.5 29.5t63 -29q14 -20 14 -45q0 -12 -4 -26l-80 -300q-11 -41 -48.5 -70.5t-78.5 -29.5
t-62 30q-15 19 -15 44q0 12 4 26z" />
    <glyph glyph-name="dagger" unicode="&#x2020;" horiz-adv-x="1014" 
d="M760 1022q8 42 8 80q0 52 -14 98q-24 82 -24 116q0 8 1 13q13 49 57 78.5t104 29.5q57 0 87 -27q22 -21 22 -50q0 -10 -3 -22q-9 -32 -92 -137q-69 -85 -103 -179q98 8 191 54q117 57 145 57q49 0 69 -36q11 -20 11 -47q0 -22 -7 -49q-15 -57 -52.5 -94.5t-82.5 -37.5
q-32 0 -121 55q-73 46 -164 57q-13 -60 -13 -112q0 -99 49 -165q-230 -460 -373 -974h-38q131 514 147 974q129 101 185 277q-99 -10 -193 -55q-116 -57 -144 -57q-49 0 -69 36q-11 20 -11 47q0 22 7 49q15 57 53 94.5t82 37.5q32 0 122 -56q72 -46 164 -55z" />
    <glyph glyph-name="daggerdbl" unicode="&#x2021;" horiz-adv-x="1014" 
d="M578 186q97 11 194 57q119 55 151 55q45 0 63 -37q9 -20 9 -45q0 -23 -8 -50q-16 -60 -55.5 -96t-88.5 -36q-28 0 -114 57q-68 46 -162 54q-7 -39 -7 -76q0 -53 14 -103q20 -79 20 -116q0 -13 -2 -21q-12 -44 -56.5 -71.5t-101.5 -27.5q-60 0 -88 30q-20 19 -20 48
q0 14 5 30q7 28 91 129q68 81 102 178q-97 -9 -194 -55q-120 -56 -152 -56q-44 0 -61 38q-10 20 -10 46q0 22 7 48q17 60 56 96t88 36q28 0 114 -57q70 -45 163 -55q24 108 24 203q0 105 -29 195q148 171 218 397q-99 -10 -193 -55q-116 -57 -144 -57q-49 0 -69 36
q-11 20 -11 47q0 22 7 49q15 57 53 94.5t82 37.5q32 0 122 -56q72 -46 164 -55q8 42 8 80q0 52 -14 98q-24 82 -24 116q0 8 1 13q13 49 57 78.5t104 29.5q57 0 87 -27q22 -21 22 -50q0 -10 -3 -22q-9 -32 -92 -137q-69 -85 -103 -179q98 8 191 54q117 57 145 57q49 0 69 -36
q11 -20 11 -47q0 -22 -7 -49q-15 -57 -52.5 -94.5t-82.5 -37.5q-32 0 -121 55q-73 46 -164 57q-26 -110 -26 -207q0 -102 29 -190q-148 -172 -216 -398z" />
    <glyph glyph-name="bullet" unicode="&#x2022;" horiz-adv-x="1024" 
d="M408 718q33 123 143 209t233 86q122 0 186 -86q41 -57 41 -130q0 -37 -11 -79q-32 -122 -143 -209.5t-233 -87.5q-123 0 -186 87q-41 57 -41 130q0 38 11 80z" />
    <glyph glyph-name="ellipsis" unicode="&#x2026;" 
d="M317 171q14 -20 14 -45q0 -12 -4 -26q-11 -41 -48.5 -70.5t-78.5 -29.5t-62 30q-15 19 -15 44q0 12 4 26q11 41 48.5 70.5t78.5 29.5t63 -29zM717 171q14 -20 14 -45q0 -12 -4 -26q-11 -41 -48.5 -70.5t-78.5 -29.5t-62 30q-15 19 -15 44q0 12 4 26q11 41 48.5 70.5
t78.5 29.5t63 -29zM1117 171q14 -20 14 -45q0 -12 -4 -26q-11 -41 -48.5 -70.5t-78.5 -29.5t-62 30q-15 19 -15 44q0 12 4 26q11 41 48.5 70.5t78.5 29.5t63 -29z" />
    <glyph glyph-name="guilsinglleft" unicode="&#x2039;" 
d="M956 320q15 -19 15 -44q0 -12 -4 -26q-11 -41 -48.5 -70.5t-78.5 -29.5t-63 29l-366 500q-14 20 -14 44q0 13 4 27q11 41 49 71l633 499q38 30 79 30t63 -29q14 -20 14 -45q0 -12 -4 -26q-11 -41 -49 -71l-544 -429z" />
    <glyph glyph-name="guilsinglright" unicode="&#x203a;" 
d="M861 750l-315 429q-15 20 -15 45q0 12 4 26q11 41 48.5 70.5t78.5 29.5t63 -30l366 -499q14 -20 14 -44q0 -13 -4 -27q-11 -41 -48 -71l-634 -500q-38 -29 -79 -29t-62 30q-15 19 -15 44q0 12 4 26q11 41 49 70z" />
    <glyph glyph-name="fraction" unicode="&#x2044;" 
d="M247 100q-31 -41 -68.5 -70.5t-78.5 -29.5t-62 30q-15 19 -15 44q0 12 4 26q11 41 67 100l1061 1200q31 41 68.5 70.5t78.5 29.5t63 -29q14 -20 14 -45q0 -12 -4 -26q-11 -41 -67 -100z" />
    <glyph glyph-name="fraction" unicode="&#x2215;" 
d="M247 100q-31 -41 -68.5 -70.5t-78.5 -29.5t-62 30q-15 19 -15 44q0 12 4 26q11 41 67 100l1061 1200q31 41 68.5 70.5t78.5 29.5t63 -29q14 -20 14 -45q0 -12 -4 -26q-11 -41 -67 -100z" />
    <glyph glyph-name="franc" unicode="&#x20a3;" 
d="M454 200l-27 -100q-11 -41 -48.5 -70.5t-78.5 -29.5t-62 30q-15 19 -15 44q0 12 4 26l27 100h-100q-41 0 -63 30q-15 19 -15 44q0 12 4 26q11 41 48.5 70.5t78.5 29.5h100l268 1000q11 41 48.5 70.5t78.5 29.5h600q41 0 63 -29q14 -20 14 -45q0 -12 -4 -26
q-11 -41 -48.5 -70.5t-78.5 -29.5h-500l-120 -450h400q41 0 63 -29q14 -20 14 -45q0 -12 -4 -26q-11 -41 -48.5 -70.5t-78.5 -29.5h-400l-67 -250h100q41 0 63 -29q14 -20 14 -45q0 -12 -4 -26q-11 -41 -48 -70.5t-78 -29.5h-100z" />
    <glyph glyph-name="lira" unicode="&#x20a4;" 
d="M1108 1150q6 21 6 40q0 37 -21 66q-33 44 -95 44t-117.5 -44t-72.5 -106l-80 -300h300q41 0 63 -29q14 -20 14 -45q0 -12 -4 -26q-11 -41 -48.5 -70.5t-78.5 -29.5h-300l-120 -450h400q41 0 63 -29q14 -20 14 -45q0 -12 -4 -26q-11 -41 -48.5 -70.5t-78.5 -29.5h-800
q-41 0 -62 30q-15 19 -15 44q0 12 4 26q11 41 48.5 70.5t78.5 29.5h200l120 450h-100q-41 0 -62 30q-15 19 -15 44q0 12 4 26q11 41 48.5 70.5t78.5 29.5h100l80 300q39 145 169 247.5t275 102.5t220 -102q49 -68 49 -154q0 -44 -13 -94q-11 -41 -48.5 -70.5t-78.5 -29.5
t-62 30q-15 19 -15 44q0 12 4 26z" />
    <glyph glyph-name="peseta" unicode="&#x20a7;" 
d="M923 1300h-175l-120 -450h175q93 0 176.5 66t108.5 159q9 32 9 60q0 55 -32 99q-49 66 -142 66zM307 400l268 1000q11 41 48.5 70.5t78.5 29.5h275q176 0 267 -124q60 -83 60 -187q0 -54 -16 -114q-47 -176 -205 -300.5t-334 -124.5h-175l-67 -250h100q41 0 63 -29
q14 -20 14 -45q0 -12 -4 -26q-11 -41 -48 -70.5t-78 -29.5h-100l-27 -100q-11 -41 -48.5 -70.5t-78.5 -29.5t-62 30q-15 19 -15 44q0 12 4 26l27 100h-100q-41 0 -63 30q-15 19 -15 44q0 12 4 26q11 41 48.5 70.5t78.5 29.5h100z" />
    <glyph glyph-name="Euro" unicode="&#x20ac;" 
d="M443 1000l47 175q36 135 156.5 230t255.5 95h175q135 0 205 -95q45 -63 45 -143q0 -41 -12 -87q-11 -41 -48.5 -70.5t-78.5 -29.5t-62 30q-15 19 -15 44q0 12 4 26q5 18 5 34q0 30 -18 55q-27 36 -79 36h-175q-52 0 -98 -36.5t-60 -88.5l-47 -175h225q41 0 63 -29
q14 -20 14 -45q0 -12 -4 -26q-11 -41 -48.5 -70.5t-78.5 -29.5h-225l-26 -100h225q41 0 63 -29q14 -20 14 -45q0 -12 -4 -26q-11 -41 -48.5 -70.5t-78.5 -29.5h-225l-47 -175q-5 -18 -5 -34q0 -30 18 -54q27 -37 79 -37h175q52 0 99 37q34 27 50 63h2l14 50q11 41 48.5 70.5
t78.5 29.5t63 -29q14 -20 14 -45q0 -12 -4 -26l-14 -50h-1q-40 -119 -149 -205q-120 -95 -255 -95h-175q-135 0 -205 95q-46 62 -46 142q0 30 7 63h-1l54 200h-75q-41 0 -62 30q-15 19 -15 44q0 12 4 26q11 41 48.5 70.5t78.5 29.5h75l26 100h-75q-41 0 -62 30
q-15 19 -15 44q0 12 4 26q11 41 48.5 70.5t78.5 29.5h75z" />
    <glyph glyph-name="afii61352" unicode="&#x2116;" horiz-adv-x="1300" 
d="M499 1450l163 -470l127 470q5 21 23.5 35.5t39.5 14.5q20 0 31 -14q8 -10 8 -24q0 -5 -2 -12l-175 -650q-5 -20 -24 -35t-39 -15q-21 0 -31.5 15t-15.5 35l-164 471l-126 -471q-5 -20 -24 -35t-39 -15q-21 0 -31 15q-8 10 -8 23q0 6 2 12l175 650q5 21 23.5 35.5
t39.5 14.5q20 0 31 -14.5t16 -35.5zM1368 1000q-28 -103 -121 -176.5t-196 -73.5q-104 0 -157 74q-36 48 -36 109q0 32 10 67l67 250q28 104 120.5 177t196.5 73q103 0 157 -73q36 -48 36 -110q0 -31 -10 -67zM968 1000q-6 -21 -6 -40q0 -37 22 -66q32 -44 94 -44t117.5 44
t72.5 106l67 250q6 21 6 40q0 37 -21 66q-33 44 -95 44t-117.5 -44t-72.5 -106z" />
    <glyph glyph-name="trademark" unicode="&#x2122;" horiz-adv-x="1300" 
d="M675 1400l-161 -600q-5 -20 -24 -35t-39 -15q-21 0 -31 15q-8 10 -8 23q0 6 2 12l161 600h-150q-20 0 -31 15q-7 10 -7 22q0 6 2 13q5 21 23.5 35.5t39.5 14.5h400q20 0 31 -14q8 -10 8 -24q0 -5 -2 -12q-6 -20 -24.5 -35t-39.5 -15h-150zM1489 1450l-175 -650
q-5 -20 -24 -35t-39 -15q-21 0 -31 15q-8 10 -8 23q0 6 2 12l85 317l-187 -327h-1q-7 -14 -21 -25q-19 -15 -39 -15q-21 0 -31 15q-7 9 -7 20v5h-1l-13 327l-85 -317q-5 -20 -24 -35t-39 -15q-21 0 -31 15q-8 10 -8 23q0 6 2 12l175 650q5 21 24 36q18 14 39 14q20 0 32 -14
q7 -11 7 -35v-11l17 -476l273 476q22 34 35 46q15 14 36 14q20 0 31 -14q8 -10 8 -24q0 -5 -2 -12z" />
    <glyph glyph-name="partialdiff" unicode="&#x2202;" horiz-adv-x="1650" 
d="M0 200v1100q0 200 200 200h1100q200 0 200 -200v-1100q0 -200 -200 -200h-1100q-200 0 -200 200zM1475 201v1099q0 175 -175 175h-1100q-174 0 -175 -175v-1100q1 -175 175 -175h1101q174 0 174 176z" />
    <glyph glyph-name="Delta" unicode="&#x2206;" horiz-adv-x="1650" 
d="M0 200v1100q0 200 200 200h1100q200 0 200 -200v-1100q0 -200 -200 -200h-1100q-200 0 -200 200zM1475 201v1099q0 175 -175 175h-1100q-174 0 -175 -175v-1100q1 -175 175 -175h1101q174 0 174 176z" />
    <glyph glyph-name="product" unicode="&#x220f;" horiz-adv-x="1650" 
d="M0 200v1100q0 200 200 200h1100q200 0 200 -200v-1100q0 -200 -200 -200h-1100q-200 0 -200 200zM1475 201v1099q0 175 -175 175h-1100q-174 0 -175 -175v-1100q1 -175 175 -175h1101q174 0 174 176z" />
    <glyph glyph-name="summation" unicode="&#x2211;" horiz-adv-x="1650" 
d="M0 200v1100q0 200 200 200h1100q200 0 200 -200v-1100q0 -200 -200 -200h-1100q-200 0 -200 200zM1475 201v1099q0 175 -175 175h-1100q-174 0 -175 -175v-1100q1 -175 175 -175h1101q174 0 174 176z" />
    <glyph glyph-name="minus" unicode="&#x2212;" 
d="M274 650q-41 0 -62 30q-15 19 -15 44q0 12 4 26q11 41 48.5 70.5t78.5 29.5h800q41 0 63 -29q14 -20 14 -45q0 -12 -4 -26q-11 -41 -48.5 -70.5t-78.5 -29.5h-800z" />
    <glyph glyph-name="radical" unicode="&#x221a;" horiz-adv-x="1650" 
d="M0 200v1100q0 200 200 200h1100q200 0 200 -200v-1100q0 -200 -200 -200h-1100q-200 0 -200 200zM1475 201v1099q0 175 -175 175h-1100q-174 0 -175 -175v-1100q1 -175 175 -175h1101q174 0 174 176z" />
    <glyph glyph-name="infinity" unicode="&#x221e;" horiz-adv-x="1650" 
d="M0 200v1100q0 200 200 200h1100q200 0 200 -200v-1100q0 -200 -200 -200h-1100q-200 0 -200 200zM1475 201v1099q0 175 -175 175h-1100q-174 0 -175 -175v-1100q1 -175 175 -175h1101q174 0 174 176z" />
    <glyph glyph-name="integral" unicode="&#x222b;" horiz-adv-x="1650" 
d="M0 200v1100q0 200 200 200h1100q200 0 200 -200v-1100q0 -200 -200 -200h-1100q-200 0 -200 200zM1475 201v1099q0 175 -175 175h-1100q-174 0 -175 -175v-1100q1 -175 175 -175h1101q174 0 174 176z" />
    <glyph glyph-name="approxequal" unicode="&#x2248;" horiz-adv-x="1650" 
d="M0 200v1100q0 200 200 200h1100q200 0 200 -200v-1100q0 -200 -200 -200h-1100q-200 0 -200 200zM1475 201v1099q0 175 -175 175h-1100q-174 0 -175 -175v-1100q1 -175 175 -175h1101q174 0 174 176z" />
    <glyph glyph-name="lessequal" unicode="&#x2264;" horiz-adv-x="1650" 
d="M0 200v1100q0 200 200 200h1100q200 0 200 -200v-1100q0 -200 -200 -200h-1100q-200 0 -200 200zM1475 201v1099q0 175 -175 175h-1100q-174 0 -175 -175v-1100q1 -175 175 -175h1101q174 0 174 176z" />
    <glyph glyph-name="greaterequal" unicode="&#x2265;" horiz-adv-x="1650" 
d="M0 200v1100q0 200 200 200h1100q200 0 200 -200v-1100q0 -200 -200 -200h-1100q-200 0 -200 200zM1475 201v1099q0 175 -175 175h-1100q-174 0 -175 -175v-1100q1 -175 175 -175h1101q174 0 174 176z" />
    <glyph glyph-name="uniF001" unicode="&#xf001;" horiz-adv-x="1073" 
 />
    <glyph glyph-name="uniF001" unicode="&#xfb01;" horiz-adv-x="1073" 
 />
    <glyph glyph-name="uniF002" unicode="&#xf002;" horiz-adv-x="1081" 
 />
    <glyph glyph-name="uniF002" unicode="&#xfb02;" horiz-adv-x="1081" 
 />
    </font>
</defs>
</svg>
