<?xml version="1.0" standalone="no"?>
<!DOCTYPE svg PUBLIC "-//W3C//DTD SVG 1.1//EN" "http://www.w3.org/Graphics/SVG/1.1/DTD/svg11.dtd" >
<svg xmlns="http://www.w3.org/2000/svg" xmlns:xlink="http://www.w3.org/1999/xlink" version="1.1">
<metadata>
Created by FontForge 20170731 at Sun Nov  5 08:51:43 2006
 By Aleksey,,,
Copyright \(c\) Manfred Klein, 2006. All rights reserved.
</metadata>
<defs>
<font id="IrishUncialfabeta-Bold" horiz-adv-x="586" >
  <font-face 
    font-family="IrishUncialfabeta-Bold"
    font-weight="700"
    font-stretch="normal"
    units-per-em="1000"
    panose-1="2 0 8 3 8 0 0 2 0 4"
    ascent="800"
    descent="-200"
    x-height="582"
    cap-height="756"
    bbox="-128.158 -272 1023 820"
    underline-thickness="50"
    underline-position="-175"
    unicode-range="U+001A-2026"
  />
<missing-glyph horiz-adv-x="307" 
 />
    <glyph glyph-name=".notdef" horiz-adv-x="307" 
 />
    <glyph glyph-name=".null" horiz-adv-x="0" 
 />
    <glyph glyph-name="nonmarkingreturn" horiz-adv-x="333" 
 />
    <glyph glyph-name="fi" horiz-adv-x="307" 
 />
    <glyph glyph-name="space" unicode=" " horiz-adv-x="234" 
 />
    <glyph glyph-name="exclam" unicode="!" horiz-adv-x="196" 
d="M146 603q1 7 -4.5 10t-11.5 0l-89 -41q-6 -2 -6 -10v-442q0 -7 5 -9t11 0l49 20q6 2 6 10zM147 16q-4 10 -16 26q-5 8 -10 15.5t-7 15.5q-2 4 -4 5v3q0 7 -5 8.5t-11 -0.5l-63 -21q-6 -2 -6 -10q0 -2 1 -7q0 -1 0.5 -2t0.5 -2q5 -12 11.5 -29.5t11.5 -28.5l2 -5
q3 -11 14 -7l76 24q11 4 5 15z" />
    <glyph glyph-name="quotedbl" unicode="&#x22;" horiz-adv-x="347" 
d="M324 713l-16 10l-98 -44q-6 -2 -6 -9q-4 -33 -11.5 -65.5t-18.5 -64.5q-7 -24 -15 -54t-13 -58q-1 -7 4 -11t12 -1l90 42q0 1 2.5 3t2.5 4q5 30 13 56.5t17 52.5l22.5 67.5t14.5 71.5zM203 714l-15 9l-97 -44q-6 -2 -6 -10q0 -38 -9.5 -71t-21.5 -62q-9 -25 -18 -52
t-13 -56q-1 -7 4 -10.5t12 -0.5l90 41q6 2 6 8q3 26 12 52.5t20 49.5q13 32 25 68t12 78h-1z" />
    <glyph glyph-name="numbersign" unicode="#" horiz-adv-x="708" 
d="M683 494h-8q-10 0 -36 -0.5t-86 -0.5q14 47 18 76.5l4 29.5l-96 -35q-2 -1 -3 -3l-2 -4l-10 -32t-10 -33q-34 0 -65 -0.5t-63 -0.5q19 52 26 83l7 31l-102 -37q-3 -1 -5 -6l-7.5 -21.5t-18.5 -50.5h-67l-98 -46q-8 -4 -6 -12t11 -8q34 0 68.5 0.5t68.5 0.5
q-9 -23 -17.5 -44t-17.5 -47h-40l-97 -45q-8 -4 -6 -12t11 -8h107q-16 -41 -27.5 -70t-24.5 -57q-3 -8 1.5 -12.5t12.5 -1.5l98 45q8 17 16.5 39t18.5 45v-1q2 5 4 13h140q-6 -18 -9 -32t-6 -27q-4 -17 -9 -34.5t-7 -22.5q-4 -8 1 -12t13 -1l94 42q5 2 5 6q5 12 7.5 24
t6.5 27q2 7 4 14.5t4 15.5l37 -1l94 47l-13 18h-5q-4 0 -26.5 0.5t-68.5 0.5q5 16 9.5 30t10.5 33q2 7 4 14.5t4 15.5h60l84 66l-1 -1zM432 426q-8 -23 -15 -45.5t-15 -46.5h-134q10 27 17 46.5t17 45.5h130z" />
    <glyph glyph-name="dollar" unicode="$" horiz-adv-x="422" 
d="M397 216q0 17 -6 34q-12 31 -40 46t-54 23q-7 2 -13.5 4t-14.5 5h-1q-5 2 -10.5 3.5t-13.5 3.5q-13 3 -28.5 8t-30 11.5t-25.5 15t-15 19.5v-1q-3 10 -3 25q0 39 18 71h7q4 -10 13 -5l4 2l4 2q25 -4 45.5 -19t30.5 -42q4 -12 6 -25t2 -32q0 -7 5 -10t11 0l89 41q6 2 6 9
q0 35 -11 65q-14 38 -39 57.5t-58 23.5q-1 7 -0.5 9.5t0.5 10.5q0 34 6 67q2 7 -3.5 10.5t-12.5 1.5l-97 -45q-2 -1 -4 -3.5t-2 -4.5q-1 -7 -1.5 -15t-0.5 -17q0 -10 0.5 -19t1.5 -19l-82 -38q-12 -6 -22 -17.5t-17 -27t-11 -33t-4 -35.5q0 -8 1.5 -18.5t4.5 -19.5
q6 -15 18.5 -26.5t29 -20t33.5 -14.5t32 -10q8 -2 13 -3.5t10 -3.5h-1l12.5 -4t17.5 -6q26 -8 48 -17.5t32 -34.5v1q6 -18 1 -38.5t-16 -39.5q-18 4 -35.5 14.5t-33 24.5t-28.5 30.5t-22 32.5q-5 8 -13 4l-100 -46q-11 -6 -5 -15q17 -29 44 -57.5t59 -45.5q-2 -4 -2 -5
q0 -55 1 -80.5t2 -29.5l1 -4q-8 -2 -8 -11l2 -4q0 -7 4.5 -9.5t10.5 0.5l92 46l-11 8l17 2q-1 1 -1 17t-1 68l92 42q29 14 49.5 46t20.5 67z" />
    <glyph glyph-name="percent" unicode="%" horiz-adv-x="700" 
d="M421 480q0 9 -2 18.5t-5 18.5q-13 34 -34.5 44.5t-46.5 10.5q-14 0 -25.5 -1.5t-22.5 -3.5l-15 -3l-110 -49q-5 -2 -6.5 -6.5t0.5 -8.5q-18 -20 -26.5 -44.5t-8.5 -49.5q0 -11 2 -24.5t7 -24.5q11 -27 31 -46.5t47 -19.5q16 0 36 9q23 10 46 21t46 21q15 7 30 21t28 32.5
t21 40.5t8 44zM677 529l-14 17l-101 -46q-13 -17 -25 -27.5t-25 -18.5q-9 -6 -17.5 -13t-19.5 -15q-17 -15 -33.5 -30t-31.5 -30q-29 -29 -58.5 -56t-67.5 -44h-1q-45 -20 -79 -53.5t-67 -68.5q-26 -27 -52.5 -54t-56.5 -46q-2 -2 -3.5 -4.5t-1.5 -4.5v-4q0 -7 5 -10t11 0
l86 40q36 23 64 50t55 56q33 35 66.5 66.5t73.5 49.5l-5 -1l5 2q42 17 75 46.5t62 59.5q14 14 29 29.5t32 29.5q8 8 16.5 13.5t16.5 11.5q17 12 32.5 24t29.5 31zM591 189q0 19 -6 37q-12 34 -34.5 44.5t-47.5 10.5q-14 0 -25 -1.5t-22 -3.5l-15 -3l-110 -49
q-5 -2 -6.5 -6.5t0.5 -8.5q-18 -20 -26.5 -44.5t-8.5 -49.5q0 -11 2 -24.5t7 -24.5q10 -27 30 -46.5t47 -19.5q16 0 37 9q23 10 46 21t46 21h-1q15 7 30.5 21t28 32.5t20.5 40.5t8 44zM304 439q0 -43 -28 -77q-28 9 -39 43q-6 18 -6 37q0 14 4 31t12 31q18 -1 32 -9.5
t22 -28.5q3 -11 3 -27zM475 148q0 -21 -7.5 -40.5t-20.5 -36.5q-28 11 -40 43q-6 18 -6 37q0 15 4.5 31.5t12.5 30.5q18 -1 31.5 -9t21.5 -29q2 -5 3 -12t1 -15z" />
    <glyph glyph-name="ampersand" unicode="&#x26;" horiz-adv-x="867" 
d="M844 80l-12 19q-23 -11 -44.5 -20t-44.5 -20q-23 -5 -47 6q-42 19 -73.5 60.5t-59.5 92.5q7 8 10.5 14t9.5 14q15 19 29 37.5t28 35.5q5 7 0.5 13.5t-12.5 2.5l-104 -48q-11 19 -21.5 36.5t-21.5 33.5q5 2 3 2q-1 0 4 2h1q35 16 50 39t15 49q0 15 -6 32q-10 29 -32 53
t-51 32q-18 5 -43 9t-52 4t-50 -3t-44.5 -9.5t-42.5 -17t-45 -25.5q-84 -53 -124.5 -131t-40.5 -163q0 -33 11 -63q13 -38 31.5 -70t40.5 -56t47.5 -37.5t54.5 -13.5q23 0 48.5 5.5t54.5 19.5h-1q12 5 24.5 14t25 18.5t25 18t24.5 14.5q13 6 29 17t30 21q23 -41 52.5 -74
t66.5 -49q12 -5 23 -7t22 -2q26 0 55 13l104 48q10 5 21.5 11.5t31.5 21.5zM440 401q-35 27 -75 27q-20 0 -40 -6.5t-39 -16t-37.5 -20.5t-36.5 -19q-4 -2 -4.5 -5.5t1.5 -7.5t5.5 -6t7.5 0q31 15 56 15q26 0 47.5 -14.5t39.5 -38t34 -54t32 -63.5l6 -12q-15 -18 -27.5 -39
t-27 -39.5t-33 -30.5t-44.5 -12q-52 0 -90 45t-64 115v-1q-8 26 -8 52q0 31 8.5 64t23.5 64.5t34.5 59.5t40.5 49q30 2 59.5 -1t50.5 -11q23 -6 44.5 -24t30.5 -41q6 -16 5 -29z" />
    <glyph glyph-name="quotesingle" unicode="'" horiz-adv-x="224" 
d="M199 718l-14 14l-101 -46q-11 -22 -16.5 -45t-10.5 -46q-6 -26 -13.5 -52.5t-17.5 -50.5q-3 -8 2 -12.5t12 -1.5l94 44q15 29 21.5 53.5t13.5 48.5q8 26 15.5 51.5t14.5 42.5z" />
    <glyph glyph-name="parenleft" unicode="(" horiz-adv-x="288" 
d="M224 736l-9 16l-64 -44q-5 -12 -11.5 -27t-11.5 -27q-21 -49 -40.5 -105t-24.5 -116q-3 -38 -3 -84q0 -77 5.5 -149.5t12.5 -133.5q1 -2 1.5 -6t1.5 -6l-1 1q2 -8 3.5 -16t3.5 -18v2q4 -24 16 -42q4 -6 7 -3l68 46q4 2 4.5 7t-1.5 9q-5 9 -8.5 17.5t-6.5 16.5v-1
q-2 5 -2.5 14.5t-1.5 20.5q-8 62 -13.5 135t-5.5 145v42q0 22 2 44q5 65 23.5 120t41.5 108q6 16 14 34z" />
    <glyph glyph-name="parenright" unicode=")" horiz-adv-x="280" 
d="M226 428q0 47 -12 88v-1v2q-15 55 -35 115t-38 108q-4 9 -12 4l-51 -20q-4 -2 -5 -6t1 -9q10 -26 18 -57.5t15 -63.5t13 -62.5t13 -54.5q5 -19 2.5 -39t-2.5 -40q0 -70 -16 -144t-39 -143q-8 -23 -20 -45.5t-17 -43.5q-2 -8 2 -12t9 -2l80 47q3 1 5 6q5 18 16 39t19 43
q11 33 20.5 70t17 75t12 75t4.5 71z" />
    <glyph glyph-name="asterisk" unicode="*" horiz-adv-x="461" 
d="M438 586l-10 17l-106 -48q-6 -5 -13 -11t-16 -12q5 28 9 56t12 56q2 7 -3 11t-12 1l-90 -41q-3 -2 -6 -7q-9 -31 -15 -71q-11 5 -23 11t-22 13q-5 3 -11 1l-89 -41q-6 -3 -6.5 -9t5.5 -10q29 -18 57.5 -31t57.5 -22q-5 -3 -11 -6t-12 -7q-27 -15 -54.5 -30.5t-52.5 -32.5
q-2 -1 -3 -3.5t-1 -4.5v-4q0 -7 5 -10t11 0l85 40q13 6 22.5 13t23.5 15q-4 -21 -9 -43.5t-10 -44.5q-2 -8 3.5 -12t12.5 -1l95 44q4 2 6 6q3 13 5.5 27.5t4.5 28.5q17 -3 43 -5l100 46q8 4 6 12t-10 9q-27 3 -52.5 6t-51.5 8q32 19 64 40t61 46z" />
    <glyph glyph-name="plus" unicode="+" horiz-adv-x="541" 
d="M509 257q4 2 4 6t-1.5 7.5t-5 5.5t-7.5 0h-3h-18q-15 0 -48.5 -0.5t-95.5 -1.5q1 21 0.5 40t-0.5 48q0 22 0.5 46.5t0.5 51.5q0 6 -5 9t-11 0l-89 -40q-6 -2 -6 -10q0 -44 -0.5 -79t-1.5 -67l-90 -1l-98 -45q-8 -4 -5.5 -12t10.5 -8h53q41 1 71 1h59q-1 -65 -1 -100v-51
v-17v-2l-3 -9q0 -7 4.5 -9.5t10.5 -0.5q22 11 44 23t44 23q5 -1 9.5 1.5t4.5 7.5q0 2 -0.5 9t-0.5 22t-0.5 40t-0.5 64q43 0 60 3t17.5 5l0.5 2z" />
    <glyph glyph-name="comma" unicode="," horiz-adv-x="249" 
d="M224 13q0 21 -8 43q-8 18 -18.5 34.5t-26.5 31.5q-7 5 -13 2l-88 -42q-5 -2 -6.5 -7t3.5 -10q32 -32 41 -57v1q2 -8 3 -15.5t1 -15.5q0 -35 -24 -69.5t-59 -69.5q-7 -6 -1.5 -13.5t13.5 -3.5l108 49q34 32 54.5 67.5t20.5 74.5z" />
    <glyph glyph-name="hyphen" unicode="-" horiz-adv-x="425" 
d="M392 325q8 4 6 12t-11 8h-257l-97 -45q-8 -4 -6 -12.5t10 -8.5h258z" />
    <glyph glyph-name="period" unicode="." horiz-adv-x="201" 
d="M179 51v5q-9 20 -17.5 32.5t-17.5 24.5v-1l-15 20q-6 7 -14 4l-89 -40q-5 -2 -6 -6.5t3 -9.5q15 -22 22.5 -39.5t15.5 -37.5q4 -11 15 -6l97 44q6 2 6 10z" />
    <glyph glyph-name="slash" unicode="/" horiz-adv-x="437" 
d="M412 620l-15 14l-95 -44l-8.5 -22.5t-20.5 -55t-25.5 -69t-22.5 -64.5q-20 -60 -43.5 -125t-49 -131t-53 -131t-54.5 -126q-3 -7 2.5 -11.5t12.5 -1.5l95 43q25 58 51.5 122t52.5 130t50 132.5t44 129.5v-1q10 28 23.5 64.5t26 69t21 55z" />
    <glyph glyph-name="zero" unicode="0" horiz-adv-x="363" 
d="M341 327q0 18 -3.5 46.5t-10 61t-17 65.5t-25 59.5t-33 43.5t-41.5 17q-47 0 -82.5 -28.5t-59 -71.5t-35.5 -94t-12 -96q0 -50 9.5 -88.5t24.5 -68.5t33 -52.5t35 -40.5q17 -20 31 -38.5t16 -41.5q1 -8 7.5 -10t11.5 4q28 31 55 70t48.5 83t34.5 90t13 90zM257 276
q0 -42 -11.5 -80.5t-27.5 -76.5q-66 43 -100 102t-34 136q0 28 3 49.5t8 40t13 36.5t17 39q2 2 2.5 5t2.5 7q12 -2 24 -10t26 -19q28 -21 43.5 -52t23 -63t9 -62.5t1.5 -51.5z" />
    <glyph glyph-name="one" unicode="1" horiz-adv-x="222" 
d="M199 549l-9 11l-11 6q-8 -1 -16.5 -2.5t-16.5 -2.5q2 0 2 -1v0l-2 1v1q-4 2 -6.5 3.5t-6.5 1.5l-12 17l-19 8q-6 3 -12 -3q-9 -11 -19 -21.5t-18 -21.5q-10 -5 -20 -14t-10 -11l9 -16q0 -2 3 -4t5 -2q17 -4 32.5 -11.5t27.5 -19.5q0 -79 -3.5 -158t-8.5 -160v-3v2
q-17 -52 -32 -104.5t-26 -107.5q-2 -11 8 -13l12 -4q8 0 13 6q22 41 54.5 71t65.5 57q4 4 4 8q-2 37 -3.5 70.5t-2 67.5t0 70.5t2.5 78.5q1 29 2 54t2.5 49t3.5 47.5t7 49.5z" />
    <glyph glyph-name="two" unicode="2" horiz-adv-x="404" 
d="M381 90l-12 14l-28 -2t-28 -6q-21 -1 -40.5 -3.5t-39.5 -6.5q-22 -4 -45 -10.5t-46 -8.5q33 24 59 45t49 45t44.5 53t45.5 68h-4q9 7 9 16q12 16 16.5 40.5t4.5 43.5q0 41 -15 78.5t-39.5 66t-57.5 45t-69 16.5q-11 0 -23.5 -2.5t-26.5 -7.5q-14 -16 -21.5 -32t-15.5 -33
q-2 -5 -4.5 -10.5t-4.5 -10.5q-3 -7 1 -11.5t12 -2.5q90 28 129.5 3t39.5 -119q0 -35 -18 -71.5t-45.5 -71.5t-60.5 -66.5t-63 -57.5q-17 -15 -32 -30.5t-27 -26.5q-2 -2 -2 -6v-5l4 -9q0 -3 3 -5.5t6 -2.5l115 3l72 6q20 2 41 -3t41 -12q9 -3 16 -4t13.5 -2t14 -4t16.5 -11
q3 -3 6.5 1.5t3.5 8.5l2 13v9v31q0 11 0.5 23.5t3.5 24.5z" />
    <glyph glyph-name="three" unicode="3" horiz-adv-x="358" 
d="M335 267q0 25 -4 42.5t-11.5 32.5t-17.5 29.5t-22 32.5q-8 10 -17 19.5t-26 19.5q9 10 19.5 24t20.5 26t16.5 20.5l6.5 8.5q5 5 1 12l-3 8t-8 13q-8 5 -18 3l-10 -2l-108 37q-2 0 -5 -0.5t-4 -1.5l-118 -88q-5 -5 -3 -12l4 -11q2 -5 6 -6.5t9 1.5q8 5 16.5 11t16.5 11
q28 -11 59.5 -19t61.5 -8h5q-6 -8 -14 -16t-17 -15l-26.5 -26.5t-22.5 -28.5q-3 -4 -1.5 -8.5t6.5 -6.5q16 -7 33 -11q26 -8 52 -20t37 -36q0 -2 0.5 -11.5t0 -25.5t-3.5 -27q-11 -31 -34 -46.5t-47 -28.5q-19 -11 -37 -22.5t-32 -27t-22.5 -38t-8.5 -53.5q0 -11 1 -22.5
t4.5 -22.5t10.5 -19.5t18 -11.5q28 -9 59 7.5t56.5 46t41.5 64.5t15 63q-2 6 -8 8q31 20 51.5 49.5t20.5 82.5zM250 128q-1 -3 -1 -7q0 -3 -1 -6q-5 -31 -23.5 -51.5t-39.5 -31t-39 -10.5q-17 0 -21 9t11.5 27t61.5 45q13 7 26 12t26 13z" />
    <glyph glyph-name="four" unicode="4" horiz-adv-x="494" 
d="M470 333v9q0 11 -11 11q-13 0 -27 -2t-26 -5q-14 -3 -25 -5.5t-24 -1.5q1 22 5.5 51.5t12 58.5t16 56t16.5 45l-2 27q-2 13 -13 11q-8 -2 -17.5 -3.5t-17.5 -3.5l-35 13q-6 3 -12 -3q-11 -13 -27 -30t-33 -37q-31 -34 -66 -73t-66.5 -77t-56.5 -73t-36 -60q-2 -5 4 -9.5
l6 -4.5l18 1t44 3t54 3.5t48 3.5q16 2 32 2t32 2l1 -2q0 -18 3.5 -46.5t9.5 -61t14.5 -65.5t20.5 -61.5t27 -49t33 -26.5q10 -4 14 5l6 11q-2 13 -6 27.5t-7 28.5q-11 48 -20.5 100.5t-11.5 100.5q2 11 2.5 21t2.5 21q1 0 2 0.5t2 0.5l26 -7l12 3l4 2t3 3q8 15 17.5 27
t21.5 23h-1q8 7 15.5 14t13.5 16zM280 491q-1 -10 -2 -19.5t-3 -18.5q-2 -8 -3.5 -16t-1.5 -17q-1 -5 -1 -13v-12l-4 -9l-2 -20l-2 -20l-6 -4.5t-5 -3.5q-29 -1 -57 -2.5t-57 -1.5l63 69v-1q20 22 40.5 44t40.5 45z" />
    <glyph glyph-name="five" unicode="5" horiz-adv-x="467" 
d="M469 574l-11 11l-17 2q-20 -19 -41.5 -33t-46.5 -14q-26 0 -51.5 7.5t-49.5 16.5q-26 10 -54 17.5t-55 7.5q-23 0 -45 -11t-42 -22l-43 -66q-1 -5 -2.5 -11.5t-3.5 -12.5q-3 -14 -6 -27t-3 -26q0 -24 1.5 -40.5t4.5 -31t8.5 -29t13.5 -34.5v1l5 -15q3 -7 5.5 -12.5
t5.5 -12.5l-1 1q7 -25 13 -56.5t6 -55.5q0 -44 -17 -76.5t-45 -64.5v-9q0 -5 3 -8l7 -6q2 -2 6 -2.5t6 0.5q22 9 43.5 26t39 40t29.5 49t16 53v-1q2 12 3 24.5t1 26.5v17q0 9 -1 17q-5 35 -17.5 63.5t-25.5 57.5l-12.5 25t-9.5 22l-3 10q-1 0 -5 4l6 -4q-11 23 -18 56t-5 60
l13 13q18 -5 37 -11.5t37 -13.5q35 -14 70.5 -25t67.5 -11q18 0 32.5 2t27.5 5.5t26.5 9.5t30.5 14l6 7q7 6 17 16t19.5 21t16.5 21t7 18z" />
    <glyph glyph-name="six" unicode="6" horiz-adv-x="429" 
d="M406 605v14q0 9 -10 11l-43 6q-63 0 -122.5 -37t-105.5 -95.5t-74 -129.5t-28 -139q0 -44 13.5 -87.5t38 -77.5t59 -55t76.5 -21q36 0 63.5 21.5t45.5 54t27 71t9 72.5q0 61 -31 105.5t-76 69.5q-1 0 -10 1.5t-23 1.5t-26 -4h1q-18 -6 -31.5 -24.5t-21.5 -32.5
q-1 -3 -5 -7.5t-6 -8.5t-1 -7t9 -3q2 0 5.5 0.5t5.5 0.5q10 1 17 1.5t15 0.5q10 0 19 -7t18 -17t18.5 -21t18.5 -19q13 -23 22.5 -51t11 -55t-8 -48t-34.5 -29q-14 -5 -25.5 -4.5t-26.5 2.5q-31 5 -47.5 25t-24 48.5t-8.5 61t-1 63.5q0 20 4 38t10 40h-1q2 5 3.5 11.5
t3.5 11.5q2 13 4 20.5t6 18.5q10 28 24.5 50t30.5 41q39 46 94 71.5t109 36.5z" />
    <glyph glyph-name="seven" unicode="7" horiz-adv-x="414" 
d="M393 558v16q0 6 -4.5 9t-9.5 1q-11 -5 -20 -8t-17 -6q-34 -11 -67.5 -20t-72.5 -9q-42 0 -77.5 12.5t-66.5 41.5q-8 6 -14 1q-15 -12 -19.5 -21t-3 -18t5.5 -20.5t6 -27.5q10 -20 27 -30.5t36.5 -15.5t39.5 -6t36 -1q20 0 38 4.5t36 11.5q6 2 11.5 4t11.5 4
q-9 -13 -15 -21t-11 -14t-10.5 -12t-12.5 -15q-17 -21 -32.5 -41.5t-30.5 -45.5t-30 -56.5t-30 -74.5q-1 -3 -2 -6.5t-2 -6.5q-4 -16 -7.5 -33t-3.5 -35q0 -43 18 -71.5t50 -50.5l46 -13l22 5q2 0 4.5 2t2.5 4l12 21q4 6 -2 12q-32 29 -46 64t-14 82q0 56 21 108.5
t52.5 100.5t69.5 90t72 78z" />
    <glyph glyph-name="eight" unicode="8" horiz-adv-x="310" 
d="M287 229q0 15 -7 31.5t-17 32.5t-22 30.5t-21 26.5q2 11 7.5 21t10.5 19l1 4v-1q14 42 13.5 75.5t-11.5 62.5t-32 56.5t-49 57.5l-15 1q-33 -27 -55 -64.5t-30.5 -79t-3 -83.5t26.5 -79q-19 -40 -32.5 -70t-20.5 -54.5t-7 -46.5q0 -21 9 -45t27.5 -52t47.5 -66
q8 -10 16 -21.5t19 -17.5q10 -2 25 14t31 41t32 56t28.5 60.5t20.5 54t8 36.5zM198 441l-8 -44q-1 -2 -6 -7q-17 13 -34.5 24t-28.5 25.5t-10.5 35t20.5 50.5q38 -21 52 -44t15 -40zM179 93q-57 38 -74 89t12 122q5 -5 11 -9t11 -9q22 -20 39.5 -42.5t25 -47t2.5 -50.5
t-27 -53z" />
    <glyph glyph-name="nine" unicode="9" horiz-adv-x="363" 
d="M337 411q0 35 -10.5 73.5t-29 71t-45 53t-59.5 19.5q-48 -2 -80 -22t-51 -51t-27 -70.5t-8 -80.5v1q0 -24 7 -46t19 -40t27.5 -33t30.5 -25q2 -2 6 -2t6 2l10.5 6.5t18.5 14.5q10 10 18.5 26t12.5 27t5 13q2 5 0 10t-8 6q-12 1 -28 6t-29.5 14t-23 22t-9.5 31q0 24 3 44
t17 42q4 6 6 11t9 8q4 2 9 2h5q26 0 40 -11.5t31 -30.5q2 -2 4 -4.5t4 -4.5q15 -33 24.5 -65t9.5 -69q0 -31 -13 -58.5t-30 -56.5q-5 -8 -10.5 -16.5t-10.5 -17.5q-15 -25 -30 -44t-28 -35q-18 -20 -28 -40.5t-10 -49.5q-1 -10 2 -22l3 -12q2 -10 13 -8l13 4q2 1 5 4t3 7
q0 25 7 46t19 39.5t28 36t34 35.5q21 21 42 44.5t38 52t27.5 63.5t10.5 80z" />
    <glyph glyph-name="colon" unicode=":" horiz-adv-x="249" 
d="M217 302q-13 23 -28.5 36.5t-30.5 26.5l-16.5 12t-10.5 9q-6 4 -12 2l-90 -42q-6 -3 -6.5 -8t4.5 -9q23 -21 38 -40t30 -45q2 -4 6.5 -5t7.5 0l104 48q11 6 4 15zM222 54v2t-2 7q-9 23 -24 38t-33 29q-8 6 -15 11t-14 12q-2 2 -6 3t-6 -1l-89 -42q-5 -2 -6.5 -7t3.5 -10
q2 -2 4.5 -4t4.5 -4q21 -19 37.5 -37.5t24.5 -36.5l0.5 -4t1.5 -7q3 -12 14 -7l100 46q8 3 5 12z" />
    <glyph glyph-name="semicolon" unicode=";" horiz-adv-x="273" 
d="M244 292q-2 1 -13 10t-28 27.5t-28 41.5q-2 5 -6 6.5t-9 -0.5l-89 -41q-9 -4 -5 -14q12 -26 28.5 -47.5t27 -32t12.5 -11.5q6 -4 12 -2l97 44q5 3 5.5 9t-4.5 10zM226 13q0 11 -1.5 21.5t-6.5 21.5q-12 36 -45 66q-6 6 -13 2l-88 -42q-5 -2 -6.5 -7t3.5 -10
q31 -30 41 -57v1q5 -17 5 -31q0 -35 -23.5 -69.5t-60.5 -69.5q-5 -6 -0.5 -13.5t12.5 -3.5l109 49q33 32 53.5 67.5t20.5 74.5z" />
    <glyph glyph-name="less" unicode="&#x3c;" horiz-adv-x="345" 
d="M315 485q5 6 0.5 13.5t-12.5 3.5l-103 -47l-132 -139l-40 -52q-7 -8 1 -16q14 -9 27.5 -18.5t27.5 -19.5l-1 1l102 -94q2 -2 5.5 -3t5.5 1l102 48q6 3 6 8t-4 9l-108 96q-9 8 -20 13.5t-21 12.5q9 12 14 20t16 19z" />
    <glyph glyph-name="equal" unicode="=" horiz-adv-x="503" 
d="M470 326q8 4 6 12t-11 8h-306l-97 -45q-8 -4 -6 -12.5t11 -8.5h305zM428 209q8 4 6 12.5t-10 8.5h-292l-98 -46q-8 -4 -6 -12t11 -8h293z" />
    <glyph glyph-name="greater" unicode="&#x3e;" horiz-adv-x="360" 
d="M332 354q3 6 -1.5 11.5t-10.5 3.5q-1 0 -2 -1t-2 -1l-166 109q-4 3 -11 1l-88 -40q-6 -3 -6.5 -9t4.5 -10q37 -28 74 -55.5t74 -55.5l-165 -150q-7 -6 -2 -13t13 -4l119 54q32 32 64.5 63.5t65.5 62.5l37 18q5 2 6 6.5t-3 9.5z" />
    <glyph glyph-name="question" unicode="?" horiz-adv-x="377" 
d="M352 477v1q0 10 -1 18t-6 18q-6 15 -17.5 26t-26.5 18t-31.5 10.5t-31.5 3.5q-28 0 -47 -9l-10 -2t-25 -5.5t-31.5 -9.5t-29.5 -13q-12 -8 -21 -15.5t-16.5 -16t-15 -19t-17.5 -23.5q-4 -5 -2 -10.5t10 -7.5l81 -15q7 -2 11 4q2 2 6.5 16.5t9.5 28.5q2 8 5.5 16t5.5 13
q24 -2 45 -12t29 -31q2 -5 2.5 -12t-1.5 -13q-3 -29 -15 -59t-26 -60q-16 -36 -30.5 -73.5t-14.5 -79.5q0 -5 4.5 -8.5t9.5 -2.5l84 18q3 1 6 3.5t3 6.5q0 34 16 75t36 79q17 36 32.5 71.5t19.5 70.5zM273 49q-9 17 -25 36t-36 37q-2 2 -5.5 3t-5.5 -1l-60 -42
q-5 -3 -6 -7.5t4 -9.5q14 -13 23 -28.5t15 -27.5q2 -5 5 -9t5 -8q5 -9 13 -4l69 46q9 7 4 15z" />
    <glyph glyph-name="at" unicode="@" horiz-adv-x="609" 
d="M586 421q0 20 -2.5 37.5t-7.5 31.5v2q0 1 -1 1v0q-9 22 -25 38.5t-36 27.5t-43 16t-46 5q-31 0 -63 -7t-55 -18q-22 -10 -45.5 -21t-45.5 -22q-45 -21 -80.5 -54.5t-60.5 -76.5t-38.5 -92.5t-13.5 -102.5q0 -38 7 -78t21 -79q10 -27 28.5 -46t43.5 -31t53.5 -18t57.5 -6
q35 0 70 7t64 20q23 11 46 21.5t46 21.5h-1q15 6 28.5 15t28.5 24q6 6 1 14t-13 4l-104 -48l-1 -1t-1 -2q-20 -5 -40 -7t-41 -2q-30 0 -60.5 4.5t-56.5 14.5t-45.5 26t-27.5 38q-9 26 -14.5 57t-5.5 58q0 48 12 93.5t34 85.5t51.5 73.5t64.5 58.5q17 4 38 6.5t41 2.5
q25 0 49.5 -3.5t45.5 -12t37 -22t23 -32.5q3 -9 3 -24q0 -60 -14 -97t-30.5 -57.5t-30 -28l-13.5 -7.5l1 1q-1 -2 -2 -3.5l-1 -1.5v4l-3 21.5t-7.5 52.5t-9.5 65t-10 60q-4 13 -15 8l-69 -22q-9 -4 -5 -13v-6q0 -1 0.5 -2t0.5 -2l-45 -19q-20 -8 -37.5 -27.5t-30 -45
t-20 -54t-7.5 -53.5q0 -11 1.5 -22.5t5.5 -21.5q17 -51 59 -31l48 22l48 22h-1q5 2 12 7q1 -3 1 -4v0v-1v-3q1 -7 1.5 -14t1.5 -15q1 -5 6 -7.5t10 -0.5l100 45q29 20 59.5 48.5t48.5 63.5q11 23 19 62.5t8 78.5zM312 289q-6 -20 -15 -40t-20 -38q-2 6 -2 11v13q0 25 7 52.5
t21 50.5l2 -10t2 -7q2 -9 3 -16.5t2 -15.5z" />
    <glyph glyph-name="A" unicode="A" 
d="M562 569l-1 13q0 5 -4.5 8t-10.5 1q-11 -3 -20.5 -9.5t-19.5 -12.5q-7 -5 -15 -9.5t-16 -9.5l-33 18q-26 14 -55 17t-57 3q-68 0 -124 -21.5t-97 -63.5t-63.5 -103.5t-22.5 -141.5q0 -56 14 -103t41.5 -81t67.5 -53.5t92 -19.5q44 0 81.5 10.5t73.5 34.5q8 4 12 8
q-1 -8 -1 -17t-1 -17v1q-2 -9 -0.5 -19t15.5 -6q20 5 42 7.5t43 1.5l50 -1q8 0 9 9.5t-7 11.5q-15 2 -24 26.5t-13.5 60t-6 76.5t-1.5 76v139q1 7 1.5 16t0.5 17q1 26 3.5 53.5t9.5 45.5q3 7 7 10t9 6h-1q12 4 18 9q2 1 3 4t1 5zM412 285q0 -40 -3 -80.5t-13 -73.5
t-29 -53.5t-51 -20.5q-40 0 -71 21t-52.5 54.5t-33 75.5t-11.5 84q0 40 6.5 85.5t22.5 83.5t44 63.5t70 25.5q66 0 92.5 -38t26.5 -112q0 -10 0.5 -21.5t0.5 -24.5q1 -16 1 -34v-35z" />
    <glyph glyph-name="B" unicode="B" 
d="M568 295q0 29 -1.5 51t-6 42t-12 40.5t-18.5 46.5q-12 27 -30.5 48t-41.5 35.5t-48.5 22.5t-50.5 8q-48 0 -91 -8.5t-85 -33.5l1 1q-8 -4 -13.5 -8.5t-11.5 -9.5q5 23 15 50t22 57q18 45 33.5 90t15.5 80q0 3 1.5 5.5t1.5 3.5q0 2 -3 3t-12 1q-12 0 -24 -1.5t-23 -3.5
q-23 -4 -47 -4h-60q-11 0 -11 -10l-1 -7q3 -4 7 -9.5t7 -8.5q11 -15 21.5 -30.5t10.5 -32.5q0 -44 -13.5 -93.5t-29 -102t-29 -107t-13.5 -108.5v-14t1 -15l2 -32l3 -29q1 -6 6.5 -27.5t16 -48t26 -53.5t36.5 -43q19 -15 39 -23.5t40 -12.5t38.5 -5t35.5 -1q55 0 108 21
t95 60t67.5 93.5t25.5 122.5zM434 263q0 -33 -5.5 -71t-19 -70t-36.5 -53t-58 -21q-43 0 -77.5 30.5t-58.5 76t-36.5 97.5t-12.5 95q0 39 9 74t27.5 61.5t46.5 42.5t65 16q43 0 73 -28t48.5 -70t26.5 -90.5t8 -89.5z" />
    <glyph glyph-name="C" unicode="C" horiz-adv-x="552" 
d="M527 146q3 6 -0.5 11t-11.5 5q-18 1 -41.5 4t-38 5.5t-16.5 2.5l-4 -11t-10 -26t-14 -31.5t-16 -26.5q-11 -19 -27 -25t-31 -6q-39 0 -72 27.5t-56 68t-36 87.5t-13 86q0 35 5 74.5t19 72.5t37.5 55t61.5 22q28 0 53 -10t43.5 -29t29 -46t10.5 -60q0 -11 11 -11l3 -1
q8 0 8 7q4 10 15 29t23.5 37.5t25 34t20.5 20.5q13 8 -1 17q-21 13 -48.5 26t-58.5 22t-65 12t-70 -4q-115 -23 -176 -102.5t-61 -221.5q0 -71 19 -121.5t53.5 -82.5t82 -47.5t104.5 -15.5q85 0 140.5 36t102.5 116z" />
    <glyph glyph-name="D" unicode="D" horiz-adv-x="581" 
d="M558 295q0 89 -21.5 144t-56 87t-76.5 48t-84 27q-26 7 -49.5 15t-43 20t-33.5 28.5t-20 41.5q0 1 1 4q1 5 1.5 12t-2.5 13q-3 7 -10 7t-10 -7q-11 -21 -24 -42.5t-28.5 -41t-33.5 -35.5t-39 -26q-6 -2 -6 -9q0 -5 4 -7t9 -3.5t9 -1.5h7h10t10 1h-1q8 1 18.5 2t18.5 0
l69 -3q11 -1 21 -1q11 0 22 -1q-22 -8 -47.5 -21.5t-36.5 -21.5q-25 -18 -44.5 -46.5t-33 -62.5t-20.5 -69.5t-7 -68.5q0 -55 13 -105t41 -88.5t72 -61t105 -22.5q55 0 108.5 20t95 58.5t67 93t25.5 123.5zM423 266q-5 -38 -14 -84.5t-25.5 -83.5t-40.5 -55.5t-57 0.5
q-2 2 -4 2.5t-4 2.5q-72 45 -99 112.5t-27 148.5q0 39 6 80.5t22 75.5t42.5 56t67.5 22q3 0 13 -2q2 0 4 -0.5t4 -0.5l5 -1h2q33 -15 55.5 -43.5t35 -65.5t16 -79.5t-1.5 -84.5z" />
    <glyph glyph-name="E" unicode="E" horiz-adv-x="585" 
d="M599 402q5 7 -1.5 14.5t-13.5 9.5q-29 7 -51.5 10l-22.5 3q-15 41 -36 69t-48 44.5t-59.5 23.5t-71.5 7q-68 0 -119 -23.5t-86 -67t-52.5 -104t-17.5 -134.5q0 -65 20.5 -114.5t56 -82.5t83 -50t101.5 -17q82 0 158 38t134 108v8q0 11 -11 11q-21 0 -49 3.5t-44 15.5
q-5 3 -10.5 1t-6.5 -9q-3 -25 -9.5 -47t-18.5 -38.5t-29.5 -26t-41.5 -9.5q-50 0 -90 22t-68.5 59t-44 86t-15.5 103q0 33 2.5 50t10 25t20 9t32.5 1h27q11 0 42.5 -0.5t68.5 -1t74.5 -1.5t60 -1.5t24.5 -0.5h85l7 1t10 6zM378 439q-6 -3 -15 -3q-27 0 -53.5 -0.5
t-52.5 -1.5t-51 -1.5t-50 -0.5q3 22 16.5 42t32 35t39.5 24t39 9t35.5 -6t30.5 -17.5t21 -28.5t8 -40v-11z" />
    <glyph glyph-name="F" unicode="F" horiz-adv-x="536" 
d="M535 145q7 4 5.5 12t-9.5 9q-17 2 -39 2q-21 0 -40 -1q-23 -1 -45 -1.5t-45 -0.5q-19 0 -45 2t-50 4.5t-41 4.5l-17 2q0 2 -1 27t-2.5 66t-3 83t-2.5 77.5t-1 50.5v23t2 23q14 6 27 10t27 4q18 0 41.5 -4.5t45.5 -14.5t39 -25.5t23 -36.5q2 -8 9 -8.5t11 6.5
q12 20 23.5 33.5t23.5 27.5l12 12t13 14l3 12q-39 21 -72.5 34t-59.5 13q-63 0 -127 -18t-127 -40q-27 -9 -53 -17l-52 -16q-5 -2 -7 -6.5t0 -9.5q7 -9 21 -15q7 -4 16.5 -10.5t19.5 -16.5t18.5 -24.5t13.5 -35.5v1q8 -37 9 -77t1 -77v-250q0 -18 -2 -45t-4.5 -51.5
t-4.5 -42l-2 -17.5v-6q0 -5 4.5 -8t9.5 -1l13 4.5t31.5 10.5t39.5 12t37 8q8 2 9 10t-7 11q-6 3 -9 13t-4.5 24t-2 30t-1.5 30q-3 31 -1.5 55t1.5 50q10 2 13.5 1.5t11.5 0.5q42 2 79 5t73.5 9t73 17.5t77.5 31.5z" />
    <glyph glyph-name="G" unicode="G" horiz-adv-x="655" 
d="M700 -77q0 19 -13 34t-35.5 27.5t-53 23.5t-64.5 22q-53 18 -111 40t-106 56t-79 83t-31 121q0 49 26.5 77t66.5 42.5t86.5 19t87.5 6.5q14 1 29 1.5t26 2.5q28 5 58 19q14 6 31 17t27 18t11 8q3 3 3 8v5q0 5 -4 8t-9 2l-11.5 -2t-27.5 -4.5t-33 -4.5t-28 -2h-111
q-45 0 -89.5 2t-89.5 4q-20 1 -39.5 2t-38.5 2q-4 0 -10 1t-10 4l17 26q5 6 2 11.5t-11 5.5h-4q-2 0 -4.5 -1t-3.5 -3q-4 -5 -19.5 -20.5t-33.5 -32.5t-33 -30.5t-18 -14.5q-8 -3 -7.5 -10.5t8.5 -9.5q41 -11 86.5 -12.5t90.5 -1.5h30q-28 -17 -57 -38.5t-53 -47.5
t-39.5 -57t-15.5 -67q0 -47 14.5 -82.5t39 -62.5t56 -46.5t64.5 -35.5q-14 -18 -35 -38t-44.5 -39.5t-47.5 -37t-44 -32.5h1q-5 -4 -10.5 -7t-9.5 -11l-3 -12q19 -32 54 -56.5t75.5 -41t82 -25t74.5 -8.5q18 0 50.5 6.5t70 18.5t76.5 29t71 39t52 47.5t20 54.5zM576 -113
q0 -24 -11 -41.5t-27.5 -29t-37 -17.5t-38.5 -6q-31 0 -71 7.5t-79 23.5t-71.5 40t-49.5 57q14 15 32 31.5t34.5 31.5t30 27t19.5 17l20 -4t50 -11.5t64.5 -19t64.5 -27t50 -35.5t20 -44z" />
    <glyph glyph-name="H" unicode="H" horiz-adv-x="562" 
d="M574 11l-1 6q0 11 -11 11q-33 2 -43.5 20t-10.5 53q0 45 1.5 93t3.5 92q2 43 3.5 86t1.5 87q0 42 -12.5 68.5t-33.5 41t-49.5 20t-59.5 5.5q-39 0 -71 -5.5t-57 -12.5t-42 -14t-24 -11q1 8 1.5 22.5t0.5 25.5q0 45 3 92q3 46 3 93q0 15 -14 10q-16 -7 -37.5 -15.5
t-43.5 -15.5t-43.5 -11.5t-37.5 -4.5q-6 0 -10.5 -5t0.5 -9q16 -12 24 -21.5t23 -20.5q12 -9 17.5 -21t7.5 -25.5t2.5 -28.5t0.5 -30l2 -164v-59q0 -17 0.5 -42t0.5 -53q0 -39 -0.5 -81.5t-2 -78.5t-3.5 -60t-6 -27q-7 -4 -4.5 -11.5t10.5 -7.5h5q14 0 27.5 1t27.5 3
q16 2 32 -1t31 -4q7 0 10 4.5t0 10.5q-9 17 -14 43.5t-7.5 57t-3 62t-0.5 60.5v194q0 28 9.5 49.5t25 36.5t36 22.5t42.5 7.5q40 0 63.5 -19t34.5 -49.5t14 -68.5t3 -76t-1 -80.5t-3 -80.5q-2 -42 -3 -82t-1 -81q0 -11 10 -11q19 0 38 1.5t38 3.5q22 2 43.5 -1.5t42.5 -3.5
q11 0 11 10z" />
    <glyph glyph-name="I" unicode="I" horiz-adv-x="247" 
d="M230 671v5q-8 20 -16.5 32.5t-17.5 24.5v-1l-15 20q-6 8 -14 4l-89 -40q-11 -6 -4 -16q16 -22 23 -39.5l15 -37.5q2 -5 6 -6.5t9 0.5l97 44q6 2 6 10zM211 22q-15 13 -17.5 34.5t-2.5 42.5v69q0 172 9 343q1 14 3 33t5 30q2 7 -2.5 11t-10.5 2l-46 -17q-2 -1 -8.5 -2.5
t-11.5 -3.5h1q-2 -1 -4 -1h-3q-6 -3 -19.5 -6t-28.5 -6t-28 -5t-19 -3q-10 -2 -10 -11l-1 -3q0 -6 5 -8q17 -12 33 -26.5t28 -33.5q2 -20 2 -40v-39q0 -88 -3 -175q-1 -14 -1 -29q0 -14 -1 -30q0 -17 -3.5 -40.5t-7.5 -45t-7 -37l-3 -15.5l-1 -4t1 -6q3 -4 9 -4h7
q1 0 7.5 0.5t15 1t11.5 1.5h-2q2 1 4 1q5 0 11.5 0.5t11.5 0.5q6 0 12 0.5t13 0.5h6h23t20 2q6 2 7 7.5t-4 10.5z" />
    <glyph glyph-name="J" unicode="J" horiz-adv-x="219" 
d="M193 671v5q-8 20 -16.5 32.5t-17.5 24.5v-1l-12 30q-2 4 -7 5t-7 -1l-92 -50q-5 -2 -6.5 -6.5t2.5 -9.5q15 -22 22.5 -39.5t15.5 -37.5q4 -11 15 -6l97 44q6 2 6 10zM190 308q0 27 -0.5 59t-1.5 58q0 24 -0.5 46.5t-0.5 44.5q0 54 3 99q1 7 -4 10t-12 -1q-27 -17 -54 -33
t-60 -30h-1q-3 -1 -6.5 -2t-5.5 -3q-7 -2 -11.5 -4.5t-9.5 -5.5q-5 -4 -5 -11q0 -6 6 -9q37 -16 47.5 -43.5t10.5 -62.5q0 -38 1 -77t1 -77q1 -22 -0.5 -45t-1.5 -46q0 -57 -3 -112.5t-13 -107.5l-41 -97q-5 -5 -2.5 -11.5t10.5 -6.5l3 -1q2 0 4.5 1t3.5 3q4 5 8 9.5t8 9.5
q10 11 18.5 22t15.5 22l-1 -1q31 33 49.5 78.5t28.5 98t13 110t3 116.5z" />
    <glyph glyph-name="K" unicode="K" horiz-adv-x="585" 
d="M568 22q-18 3 -41.5 24.5t-50 54t-53 72t-50 78.5t-41.5 73.5t-27 57.5q9 9 28 25t42.5 35t49 39t49 38t41.5 32t27 20q7 5 4.5 11.5t-10.5 7.5q-18 2 -36.5 0.5t-35.5 -3.5q-19 -2 -36.5 -4t-34.5 -2q-11 0 -21.5 1t-22.5 4q-8 2 -11.5 -4t0.5 -13q7 -11 12 -24.5
t5 -28.5q0 -19 -18.5 -43.5t-44.5 -49.5t-53.5 -47t-46.5 -35q-2 33 -2.5 55.5t-0.5 55.5q0 80 3 163.5t17 163.5q1 5 -2.5 8.5t-8.5 3.5l-8 1q-12 -8 -31.5 -15.5t-42 -13.5t-46.5 -9.5t-46 -3.5h-8q-8 0 -10.5 -6.5t2.5 -11.5l3 -3q3 -3 7.5 -6t9.5 -7q9 -8 20 -17
t20.5 -18t15.5 -18t6 -16q0 -44 0.5 -87.5t1.5 -88.5t1.5 -88t0.5 -88q0 -71 -3.5 -141.5t-16.5 -140.5v-3q0 -6 4.5 -9t9.5 -1q8 3 17.5 4t20.5 1q16 0 33 -2t26.5 -4t10.5 -2q6 -2 10 2t3 10l-2.5 29.5t-6 71.5t-6 87t-2.5 77q0 2 0.5 6t1.5 9v1q2 2 3 2t3 2
q15 -15 26.5 -33t22.5 -38q10 -16 19.5 -32t17.5 -25q12 -23 27.5 -45t32.5 -45q4 -5 7.5 -9.5t7.5 -9.5h-1q4 -5 8 -12.5t6 -11.5q8 -16 23 -31q4 -4 8 -3q23 5 45 5h44h29q11 0 22 -2.5t22 -0.5q9 2 9.5 10.5t-8.5 10.5z" />
    <glyph glyph-name="L" unicode="L" horiz-adv-x="230" 
d="M203 16q-6 13 -9 39t-4.5 55.5t-2 57.5t-0.5 45q-1 102 1 204t4 203q1 22 2 54t2.5 62t2.5 51l1 21q1 6 -4 9.5t-10 0.5l-16 -6.5t-39 -15t-50 -16.5t-49 -11q-7 -1 -9 -8t4 -12q8 -6 19.5 -18t16.5 -23q14 -17 15.5 -43.5t1.5 -47.5q2 -131 -0.5 -259.5t-1.5 -259.5
q0 -10 -4.5 -23.5t-10.5 -26t-10.5 -21l-4.5 -8.5l-1 -4l0.5 -3t2.5 -5q2 -3 4 -5t7 -1l11.5 1t18.5 2q10 0 13 1h-2l2 2q8 -1 16 -1q9 0 17 -1q15 -1 29.5 -3t28.5 0q5 1 7.5 5t0.5 9z" />
    <glyph glyph-name="M" unicode="M" horiz-adv-x="827" 
d="M795 13q0 2 -2.5 5.5t-5.5 4.5q-4 2 -6.5 2.5t-4.5 2.5q-1 2 -1 5t-1 5q-2 6 -3 11t-1 8v139q0 17 1.5 37t3.5 42q2 25 4 53t2 55q0 78 -33.5 128t-101.5 67q-26 7 -47 5.5t-41 -9.5t-41 -20.5t-48 -28.5q-13 19 -26 31q-9 6 -22.5 11t-28.5 9t-29 6t-23 2
q-32 0 -59.5 -10t-53.5 -21q-6 -3 -15.5 -7t-18.5 -8v16t-1 17t-4 14.5t-9 8.5q-14 -6 -33 -11.5t-39.5 -10t-40.5 -7.5t-35 -3q-6 0 -10.5 -0.5t-9.5 -3.5t-5 -8t5 -9q27 -19 41 -34t20 -30.5t7 -35.5t1 -48v-42q0 -48 -3 -99q-2 -32 -3 -63.5t-1 -63.5q-1 -7 -1.5 -15
t-1.5 -16q-2 -20 -4 -41.5t-6 -39.5q-2 -7 3 -10.5t11 -1.5q8 3 21.5 4t29.5 1q17 0 32 -0.5t26 -2.5q6 -1 10 3t2 10l-5 30q-8 46 -6.5 92.5t-0.5 92.5v-1q-1 19 -1.5 39.5t-0.5 43.5q0 37 3 75t12 68t25 49t43 19q40 0 61.5 -22.5t31 -57t10.5 -74.5t1 -76q0 -17 -1 -49
t-2.5 -66.5t-3 -67t-3.5 -50.5t-3.5 -21.5t-2.5 -4t-1.5 -3.5t-0.5 -20q0 -11 10 -11l56 2l66 -2h4q11 0 11 11t-1.5 15.5t-4.5 15.5q-4 18 -9 39.5t-5 35.5v166q0 11 -0.5 22.5t-0.5 23.5q0 33 2.5 67.5t11.5 62t26.5 45.5t47.5 18q29 0 47.5 -17.5t29 -43.5t14 -58
t3.5 -60v-74l-14 -261q4 -6 10 -6l123 -2q3 0 6 -1.5t6 -1.5t4.5 3t1.5 12zM467 524q-6 -4 -10 -6q6 6 10 6z" />
    <glyph glyph-name="N" unicode="N" horiz-adv-x="612" 
d="M588 20q-23 14 -33.5 38t-14 53.5t-2.5 61.5t1 62q0 11 0.5 23t0.5 23t0.5 21.5t0.5 19.5q0 31 -3.5 60.5t-19 58.5t-47 59t-86.5 63l1 -1q-6 4 -11.5 7t-10.5 5v-1q-27 10 -50.5 14t-47 5t-48 0t-51.5 -1q-73 0 -142 -15q-7 -2 -9 -7t3 -10q7 -9 11.5 -29t6.5 -43.5
t2.5 -46t0.5 -35.5v-77q0 -81 -3 -160.5t-13 -160.5q-1 -7 4 -10t10 -1q25 9 51 11.5t53 3.5q14 1 26.5 -5.5t25.5 -4.5q7 1 9 6.5t-2 10.5q-29 32 -45 70.5t-16 85.5v207q0 8 0.5 31.5t1 50.5t1.5 51.5t2 33.5q41 -5 90 -17.5t91.5 -36t71 -58.5t28.5 -83q0 -18 -0.5 -44.5
t-1.5 -54t-2 -54t-2 -44.5q-2 -36 -3.5 -73t-1.5 -74q0 -5 3.5 -9t8.5 -2q17 8 39.5 10.5t44.5 1.5t41 -4t30 -6q8 -2 10.5 6.5t-4.5 13.5z" />
    <glyph glyph-name="O" unicode="O" horiz-adv-x="598" 
d="M579 290q0 144 -64 220.5t-193 76.5q-65 0 -118.5 -20.5t-92.5 -60.5t-60.5 -98.5t-21.5 -134.5q0 -48 13 -99t38.5 -93t63.5 -69t89 -27q66 0 128.5 14.5t110.5 49.5t77.5 93.5t29.5 147.5zM455 229q0 -33 -4 -67.5t-15.5 -62.5t-33 -46t-56.5 -18q-46 0 -82 25
t-61.5 65t-39 89t-13.5 97q0 39 5.5 81t21 77t42 58t68.5 23q49 0 81 -33t51.5 -82t27.5 -105t8 -101z" />
    <glyph glyph-name="P" unicode="P" horiz-adv-x="609" 
d="M582 329q0 67 -20 116t-55 81.5t-82.5 48t-102.5 15.5q-52 0 -105.5 -18t-90.5 -64l-95 3q-8 0 -9.5 -7t6.5 -12q21 -14 33 -35.5t18.5 -47.5t8.5 -54t2 -54v-183v-49t-0.5 -62.5t-2 -67.5t-4.5 -63t-7.5 -49.5t-10.5 -26.5q-5 -5 0.5 -13t13.5 -4q9 5 18 8.5t18 8.5
q18 10 36 18.5t35 13.5q6 2 6 10q0 17 -1 35t-1 36q0 23 0.5 48t3.5 48q4 -1 13 -3.5t20 -5.5t23.5 -6t28.5 -3q69 0 125 24t95.5 68t61 106.5t21.5 139.5zM452 278q0 -32 -2 -71.5t-12 -74t-30.5 -58.5t-56.5 -24q-11 0 -26.5 4t-29 12t-23 19.5t-9.5 26.5v8q0 4 2 9l-2 5
q0 8 -8 10t-12 -5q-11 -20 -23 -35t-26 -29v24q0 73 -3 145.5t0 145.5q1 33 7 62.5t20 52t36 36t55 13.5q41 0 69 -28.5t44.5 -70.5t23.5 -90t7 -87h-1z" />
    <glyph glyph-name="Q" unicode="Q" horiz-adv-x="588" 
d="M565 547v16q0 7 -4.5 10t-10.5 0q-7 -4 -21 -8.5t-20 -4.5h-53q-11 2 -21.5 3t-22.5 3q-22 4 -45.5 7t-45.5 3q-63 0 -117 -20t-94.5 -58.5t-63.5 -95.5t-23 -132q0 -135 61.5 -209t183.5 -74q22 0 43.5 5.5t40.5 13.5t35.5 17t30.5 17q11 7 19 10v-140q0 -32 -19 -58.5
t-42 -40.5l-1.5 -11.5t4.5 -17.5q4 -5 12 -6.5l8 -1.5q5 -5 12 -1q10 7 29 18.5t39.5 23t40 20t30.5 8.5q6 0 9.5 4.5t1.5 9.5q-13 40 -15.5 91t-2.5 93v99zM447 335q0 -12 -0.5 -24.5t-0.5 -25.5q0 -12 -0.5 -24t-0.5 -24q0 -35 -3 -68.5t-14 -59.5t-32 -42t-58 -16
q-47 0 -84.5 25t-63.5 64t-40.5 88t-14.5 97t10 87t30.5 67.5t52 44t75.5 15.5q48 0 76.5 -16.5t43.5 -45t19.5 -65.5t4.5 -77z" />
    <glyph glyph-name="R" unicode="R" horiz-adv-x="578" 
d="M732 -75q0 8 -8 10q-32 9 -77.5 31.5t-90.5 50t-82.5 54t-54.5 42.5q-11 11 -22.5 24.5t-23.5 27.5t-25.5 26.5t-29.5 20.5q12 7 32.5 9.5t29.5 6.5q29 13 56 27t48 35.5t33.5 53t12.5 78.5q0 39 -16.5 70.5t-42.5 54t-58 34.5t-63 12q-51 0 -88.5 -10.5t-75.5 -24.5
q-34 -13 -71 -23t-91 -12q-8 0 -10 -7t4 -12q23 -20 37 -36t21 -34.5t9 -42t2 -57.5q0 -36 -0.5 -77t-2.5 -78q-1 -20 -3.5 -48t-5 -53.5t-4.5 -43.5l-2 -18l1 -6q0 -5 4 -9t9 -2q2 0 12 2.5t25.5 5t25.5 2.5q11 0 24 -3t25 -5q8 -1 11.5 5.5t-1.5 11.5q-6 7 -8.5 24t-4 38
t-1.5 42v38v18h6q25 -18 60 -44.5t75 -57t82.5 -61t82.5 -54.5t74.5 -39.5t58.5 -15.5q12 0 22.5 -2.5t24.5 -1.5t23.5 4t20.5 3q10 0 10 11zM402 380q0 -48 -16.5 -80t-43.5 -51t-62 -27t-71 -8h-9t-9 2q-2 12 -1.5 23t0.5 24v119q0 27 2 57t9.5 55t21.5 41.5t39 16.5
q32 0 58 -13t44 -36.5t28 -55t10 -67.5z" />
    <glyph glyph-name="S" unicode="S" horiz-adv-x="523" 
d="M502 173q0 28 -14 49t-36.5 37.5t-52.5 30.5t-61 27t-61.5 27.5t-54.5 32t-38.5 40t-14.5 51.5q0 19 2.5 31t7.5 19.5t12.5 13t17.5 11.5q9 5 17.5 5.5t20.5 0.5h5q22 0 43 -11.5t36 -29.5t23.5 -40.5t6.5 -44.5q0 -8 6.5 -11.5t12.5 2.5q11 12 9.5 20.5t1 17t18 19
t60.5 26.5q10 4 5 15q-11 22 -32 37t-46.5 25t-51 14.5t-44.5 4.5q-34 0 -78 -6.5t-83.5 -24.5t-67 -50.5t-27.5 -83.5q0 -38 15 -64.5t40 -45t56.5 -31t63.5 -24.5q30 -11 58.5 -22.5t51 -28t36.5 -39t14 -55.5q0 -22 -7.5 -37t-19.5 -24.5t-28 -13.5t-33 -4q-18 0 -42.5 8
t-46 23t-36.5 35.5t-15 45.5v13q0 7 -5 9.5t-11 -0.5q-21 -15 -46 -23.5t-57 -10.5q-5 0 -8 -5.5l-3 -5.5q0 -36 17 -62t42.5 -43t55.5 -25t56 -8h61q33 0 76.5 11t81.5 33.5t64.5 57t26.5 81.5z" />
    <glyph glyph-name="T" unicode="T" horiz-adv-x="671" 
d="M643 543q4 7 0 12.5t-11 3.5q-83 -24 -162 -24h-15q-35 0 -73.5 0.5t-77 3.5t-75 9t-67.5 17v2l10 35l-2 3q0 8 -6.5 10.5t-11.5 -2.5q-13 -13 -33 -31.5t-39 -35t-33 -28.5l-14 -12q-7 -6 -4 -13t11 -5l14 1.5t34 4t42 4t38 1.5h80q-40 -21 -71 -44.5t-52 -55t-32 -73.5
t-11 -100q0 -30 7 -57.5t16 -55.5h-1l4 -12q21 -38 46.5 -64t55.5 -42t64 -22.5t72 -6.5q12 0 38 5.5t57 15t64 22t60 27.5t44.5 31.5t17.5 32.5q0 5 -3.5 8t-8.5 3q-22 -2 -38 -1t-40 18q-5 3 -11 0t-7 -8l-4.5 -15.5t-15.5 -33.5t-31 -33.5t-51 -15.5q-41 0 -80 19
t-69.5 51.5t-49 75.5t-18.5 90q0 66 13 111.5t39.5 73.5t67.5 40.5t97 12.5q13 0 35 -1t42 -6t35 -15.5t15 -30.5l-3 -18q-2 -10 -2 -18t7.5 -10t12.5 5q20 37 40.5 71.5t43.5 69.5z" />
    <glyph glyph-name="U" unicode="U" horiz-adv-x="656" 
d="M620 25q-26 5 -32 29t-6 51q0 60 3.5 118t8.5 116q4 59 7.5 117.5t3.5 117.5q0 8 -9 10q-14 3 -27.5 1.5t-27.5 -2.5q-18 -3 -36 -3h-6t-11 1q-10 1 -22 1.5t-23 0.5t-19 -0.5t-11 -3.5q-7 -6 -1 -14q5 -7 10.5 -13t11.5 -13q8 -10 16 -18.5t14.5 -19t10.5 -24t4 -33.5
v-31q0 -16 1 -30q1 -17 1 -34v-34q0 -46 -5 -89.5t-21.5 -78t-48 -55.5t-84.5 -21q-38 0 -71 17t-57 46t-38 67.5t-14 81.5q0 54 5.5 92t19.5 68.5t37.5 58t59.5 61.5q3 3 3 8l-1 3q0 12 -12 10q-23 -2 -46 -3t-46 -1q-31 0 -62 1.5t-62 3.5l-9 -4q-7 -3 -6.5 -10t6.5 -10
l6 -3q21 -11 36.5 -27.5t15.5 -45.5q0 -26 -7.5 -55.5t-16.5 -58.5q-12 -36 -22.5 -77.5t-10.5 -80.5q0 -45 13.5 -85t38 -69.5t58.5 -47t75 -17.5q30 0 64 8.5t67.5 22.5t65.5 32t59 36q0 -5 -0.5 -4.5t-0.5 -7.5q-1 -12 -1.5 -24.5t-0.5 -23.5v-19t1 -11q2 -7 10 -7
q14 0 26.5 1.5t24.5 3.5q11 2 23.5 3.5t22.5 1.5h9t9 -1q6 -1 12 -1.5t13 0.5q8 1 8.5 10t-7.5 11z" />
    <glyph glyph-name="V" unicode="V" horiz-adv-x="603" 
d="M597 554q3 4 -2 9.5l-5 5.5q-23 -2 -46.5 0t-43 5t-32 5.5l-12.5 2.5l-13 -1q-8 -1 -10.5 -7.5t2.5 -11.5q15 -14 30.5 -34t15.5 -40q0 -12 -7 -40t-18 -65t-25 -79l-27 -81t-24 -71t-17 -49q-9 21 -25 59t-34.5 84t-38.5 95.5t-37.5 95t-30.5 82.5t-18 57q0 3 -3.5 5.5
t-7.5 2.5q-2 0 -3 1h2q-4 1 -20.5 -1.5t-39 -5t-47.5 -2.5t-45 6q-8 2 -9.5 -8t6.5 -13q20 -7 35 -24t23 -37l205 -492l4.5 -4.5t5.5 -2.5h124q6 0 9 5t0 10l-14 29q18 90 57 186.5t79 188.5q7 17 13 33.5l12 33t13.5 33t18.5 34.5z" />
    <glyph glyph-name="W" unicode="W" horiz-adv-x="905" 
d="M899 567q3 5 0 11t-9 5q-24 -5 -46 -5q-21 0 -41 1t-40.5 3t-42.5 2h-5q-8 0 -11 -5.5t2 -11.5q3 -4 10.5 -10.5t15.5 -14.5q14 -12 26.5 -25.5t12.5 -30.5q0 -26 -4 -59t-10.5 -69.5t-15 -74t-17 -71t-16.5 -61.5t-13 -45l-14 31t-35 78.5t-46.5 104.5t-48.5 109
t-40 91.5t-21 52.5q-2 7 -10 7h-138q-8 0 -10 -7.5t5 -11.5q15 -11 29.5 -39t26.5 -56.5t19 -50.5l7 -22q-1 -2 -5 -15l-10 -32.5l-10 -32.5q-17 -56 -35 -114t-43 -107q-10 26 -19.5 50.5t-18.5 50.5l-132 387q-3 9 -13 6q-20 -7 -44.5 -5.5t-48.5 -0.5q-8 0 -14.5 1.5
t-12.5 0.5q-8 -1 -10 -7t3 -11q18 -20 35.5 -56t34 -81t32.5 -96t31 -100h-1q21 -68 40.5 -128.5t39.5 -98.5q4 -6 10 -6q13 0 24.5 4t27.5 4h-1q-10 0 -4 -1t19 -2.5t28.5 -3t24.5 -1.5q7 0 10 5t0 10q-2 4 -4 8.5t-4 9.5q28 69 55 135.5t55 135.5l141 -301q1 -2 4.5 -4.5
t5.5 -1.5q13 4 27 6t31 2h-1q-11 0 -4 -0.5t20.5 -1.5t29.5 -2t25 -1q11 0 11 11q0 1 -1 4t-2 5q-2 7 -5 14.5t-3 9.5q0 6 6 30t16 58.5t23.5 77.5t27.5 87.5t28 87t26 77.5q11 32 19.5 61.5t12.5 41.5z" />
    <glyph glyph-name="X" unicode="X" horiz-adv-x="665" 
d="M647 568q4 6 0.5 11t-10.5 5q-11 0 -22 0.5t-22 0.5q-71 3 -122 -17.5t-85.5 -50t-54 -61t-28.5 -51.5q-1 2 -8.5 16t-19.5 34.5t-20 33.5q-29 45 -61.5 73.5t-83.5 28.5q-6 0 -22.5 -2.5t-34 -6t-31.5 -8.5t-14 -11q0 -13 12 -13q13 0 25 -1q3 0 5.5 -0.5t3.5 -0.5h-1
q17 -5 35 -20t29 -32q34 -51 63 -110t50 -119q-30 -60 -66 -129.5t-79 -135.5t-91 -121.5t-102 -87.5l-15 -9q-7 -5 -4.5 -12.5t10.5 -7.5q34 0 71.5 22.5t75.5 59.5t74.5 83t69 93.5t59 90.5t44.5 74q4 -6 9 -14.5t10 -19.5q12 -23 28.5 -51.5t38.5 -53t49 -41t60 -16.5
q18 0 43.5 5t49 11t40 11l16.5 5q7 2 7 10l-2 13q0 6 -4 9t-10 1q-1 -1 -11 -4t-24.5 -7t-24.5 -4q-19 0 -39.5 15t-40.5 39t-39 54t-36 60.5t-30.5 58t-22.5 46.5q6 25 22.5 60t39 67t47.5 54.5t49 22.5q23 0 35 -21t20 -44q2 -8 8 -8q7 0 11 7q7 12 15 26t16 26
q11 16 21 32t19 32z" />
    <glyph glyph-name="Y" unicode="Y" horiz-adv-x="587" 
d="M564 575q0 5 -3.5 9t-9.5 3q-18 -2 -36 -5.5t-41 -5.5q-30 -2 -54.5 3.5t-49.5 1.5q-8 -2 -8.5 -9t6.5 -11q14 -8 25.5 -19.5t22.5 -19.5q5 -5 10.5 -8.5t10.5 -7.5q3 -44 4.5 -83.5t1.5 -83.5q0 -41 -1 -88.5t-11.5 -89t-35.5 -69t-72 -27.5q-46 0 -80 24t-56 62.5
t-33 86.5t-11 95q0 63 13 123.5t48 111.5q4 6 1 11.5t-11 5.5q-26 0 -50.5 -6t-55.5 -4q-16 1 -28 5t-27 2q-7 -1 -9 -7.5t4 -11.5q15 -12 24 -24.5t19 -27.5q-26 -54 -37 -114.5t-11 -121.5q0 -57 11 -107.5t35 -88.5t63 -60.5t95 -22.5q38 0 65.5 4.5t50.5 14.5t44 24.5
t46 34.5q-2 -48 -13 -94t-33 -82.5t-56.5 -58.5t-82.5 -22q-13 0 -29.5 4t-31 12t-24.5 21t-10 31v11q0 7 -5 10t-12 -2q-6 -5 -12 -11l-12 -12l-34 -34t-36 -32l-2 -14q9 -15 26 -23t36 -12t37.5 -5t31.5 -1q29 0 51.5 3t42.5 9t39 13.5t41 16.5q8 2 15.5 5.5t15.5 7.5
q64 56 99 119.5t51.5 132.5t20.5 142t5 149q1 54 3 108.5t9 108.5z" />
    <glyph glyph-name="Z" unicode="Z" horiz-adv-x="546" 
d="M545 68q4 6 0 12q-5 7 -14 5.5t-19 -6.5l-22 -10t-17 -6q-37 -7 -76 -11t-76 -4q-28 0 -56 0.5t-57 3.5q8 19 27 62.5t44 98t53.5 114t56 109.5t52 85t41.5 41q8 3 6.5 11.5t-10.5 8.5l-3 1h-8q-5 0 -10 -1q-17 -1 -44 -2.5t-61 -1.5q-39 0 -80.5 -2t-76 1t-57.5 13.5
t-24 34.5q-1 9 -10 9.5t-11 -7.5q-14 -51 -30 -93t-36 -88q-4 -8 4 -13.5t14 1.5q50 52 114 79t130 27h40q-4 -18 -21 -56t-41.5 -87.5t-55 -105.5t-61.5 -108.5t-60.5 -97t-51.5 -71.5q-5 -6 -2.5 -12t10.5 -6q9 0 26 0.5t35 2.5q28 2 61 3.5t68 1.5q34 0 67 -2.5t58.5 -9
t41 -17.5t15.5 -29q0 -8 -2.5 -16t-5.5 -15q-4 -7 2 -13q5 -5 11.5 -3t8.5 5q22 39 45 71t45 62q6 8 11.5 15.5t11.5 15.5z" />
    <glyph glyph-name="grave" unicode="`" horiz-adv-x="1045" 
d="M1023 251q0 103 -39.5 194.5t-107 159t-159 107t-194.5 39.5q-69 0 -133 -18t-119.5 -50.5t-101 -78t-78 -101t-50.5 -119.5t-18 -133t18 -133t50.5 -119.5t78 -101t101 -78t119.5 -50.5t133 -18t133 18t119.5 50.5t101 78t78 101t50.5 119.5t18 133zM908 251
q0 -80 -30.5 -150t-82.5 -122.5t-122.5 -82.5t-149.5 -30q-80 0 -150 30t-122.5 82.5t-82.5 122.5t-30 150t30 150t82.5 122.5t122.5 82.5t150 30q79 0 149.5 -30t122.5 -82.5t82.5 -122.5t30.5 -150zM784 331q6 2 4.5 9.5t-8.5 6.5q-20 -2 -35.5 -4t-29.5 -2h-2
q24 15 42 37.5t21 60.5q0 2 0.5 5.5t0.5 5.5q2 6 3 12.5t-2 14.5q-10 28 -35.5 45.5t-48.5 26.5h1q-6 4 -13.5 5.5t-15.5 1.5q-21 0 -43 -10l-50 -23q-6 -3 -16 -9q-1 5 -1 4t-2 4q-7 18 -22.5 25.5t-35.5 7.5q-17 0 -36.5 -4.5t-33.5 -12.5h1q-18 -8 -35 -16
q0 23 -2.5 33.5l-2.5 10.5l-51 -17q-4 -2 -4 -7l-0.5 -13t-1 -33.5t-1 -45.5t-0.5 -48v-21v-15q0 -6 -1 -13q-1 -6 -1.5 -12t-0.5 -12q0 -7 1 -14t5 -15q1 -3 4.5 -4.5t5.5 -0.5l47 19q9 3 5 11q-2 6 -3 29.5t-1 54.5q0 20 -0.5 39t0.5 37h1q6 8 11 13l10 10q10 3 19.5 5
t17.5 2q14 0 25.5 -5.5t16.5 -19.5q5 -10 6.5 -27.5t1.5 -28.5q0 -17 -1 -32.5t-2 -32.5q-2 -16 -3 -31t-1 -30q0 -4 3 -6.5t8 -0.5l51 24q2 1 4 3t2 4q0 26 3 53l2 32t1 32v15q0 9 -1 15q15 18 40 35q16 4 34 -4q9 -4 20 -10t21.5 -13.5t19 -17t12.5 -21.5q2 -6 -1 -20v1
q-1 -2 -1 -8q-2 -33 -15.5 -52t-33.5 -31q-25 -2 -28 -6l-3 -4q-12 -6 -25.5 -8.5t-25.5 -8.5l7 -15l5.5 0.5t28.5 3.5h6q9 1 20.5 1.5t26.5 2.5q13 1 28 1.5t34 2.5zM873 263q8 0 8 8q0 9 -8 9h-706q-8 0 -8 -9q0 -8 8 -8h706zM697 -70q7 3 5.5 9.5t-9.5 6.5
q-23 0 -42.5 7.5t-37 19.5t-33.5 27.5t-32 31.5l1 -1q-2 2 -2 1l-1 2q-9 9 -19 19.5t-19 18.5q19 11 37.5 25t38.5 30q14 12 27.5 22.5t26.5 18.5l-1 -1l38 18q6 3 5 8.5t-7 6.5q-10 2 -20.5 1.5t-18.5 -1.5q-10 -2 -18.5 -2.5t-15.5 2.5h-6l-48 -22q-5 -2 -5 -8q0 -5 5 -7
q15 -5 27 -5q-11 -8 -24 -17.5t-26 -19.5q-15 -11 -31 -23.5t-30 -23.5q0 33 -0.5 65.5t-0.5 57.5q0 26 -0.5 42l-0.5 16l-54 -18q-5 0 -5 -7l-0.5 -23.5t-1.5 -58t-1.5 -74.5t-0.5 -74q0 -7 -0.5 -15t-0.5 -15q-1 -5 -1.5 -12t-0.5 -12q0 -14 5 -34q4 -8 11 -4l51 21
q7 3 5 11q-3 5 -3.5 25.5t-0.5 52.5q5 -4 8.5 -8.5t5.5 -8.5l3.5 -3.5l3.5 -3.5q16 -17 33 -33.5t35.5 -29.5t40 -21t45.5 -8z" />
    <glyph glyph-name="a" unicode="a" 
d="M562 569l-1 13q0 5 -4.5 8t-10.5 1q-11 -3 -20.5 -9.5t-19.5 -12.5q-7 -5 -15 -9.5t-16 -9.5l-33 18q-26 14 -55 17t-57 3q-68 0 -124 -21.5t-97 -63.5t-63.5 -103.5t-22.5 -141.5q0 -56 14 -103t41.5 -81t67.5 -53.5t92 -19.5q44 0 81.5 10.5t73.5 34.5q8 4 12 8
q-1 -8 -1 -17t-1 -17v1q-2 -9 -0.5 -19t15.5 -6q20 5 42 7.5t43 1.5l50 -1q8 0 9 9.5t-7 11.5q-15 2 -24 26.5t-13.5 60t-6 76.5t-1.5 76v139q1 7 1.5 16t0.5 17q1 26 3.5 53.5t9.5 45.5q3 7 7 10t9 6h-1q12 4 18 9q2 1 3 4t1 5zM412 285q0 -40 -3 -80.5t-13 -73.5
t-29 -53.5t-51 -20.5q-40 0 -71 21t-52.5 54.5t-33 75.5t-11.5 84q0 40 6.5 85.5t22.5 83.5t44 63.5t70 25.5q66 0 92.5 -38t26.5 -112q0 -10 0.5 -21.5t0.5 -24.5q1 -16 1 -34v-35z" />
    <glyph glyph-name="b" unicode="b" 
d="M563 295q0 29 -1.5 51t-6 42t-12 40.5t-18.5 46.5q-12 27 -30.5 48t-41.5 35.5t-48.5 22.5t-50.5 8q-48 0 -91 -8.5t-85 -33.5l1 1q-8 -4 -13.5 -8.5t-11.5 -9.5q5 23 15 50t22 57q18 45 33.5 90t15.5 80q0 3 1.5 5.5t1.5 3.5q0 2 -3 3t-12 1q-12 0 -24 -1.5t-23 -3.5
q-23 -4 -47 -4h-60q-11 0 -11 -10l-1 -7q3 -4 7 -9.5t7 -8.5q11 -15 21.5 -30.5t10.5 -32.5q0 -44 -13.5 -93.5t-29 -102t-29 -107t-13.5 -108.5v-14t1 -15l2 -32l3 -29q1 -6 6.5 -27.5t16 -48t26 -53.5t36.5 -43q19 -15 39 -23.5t40 -12.5t38.5 -5t35.5 -1q55 0 108 21
t95 60t67.5 93.5t25.5 122.5zM429 263q0 -33 -5.5 -71t-19 -70t-36.5 -53t-58 -21q-43 0 -77.5 30.5t-58.5 76t-36.5 97.5t-12.5 95q0 39 9 74t27.5 61.5t46.5 42.5t65 16q43 0 73 -28t48.5 -70t26.5 -90.5t8 -89.5z" />
    <glyph glyph-name="c" unicode="c" horiz-adv-x="552" 
d="M527 146q3 6 -0.5 11t-11.5 5q-18 1 -41.5 4t-38 5.5t-16.5 2.5l-4 -11t-10 -26t-14 -31.5t-16 -26.5q-11 -19 -27 -25t-31 -6q-39 0 -72 27.5t-56 68t-36 87.5t-13 86q0 35 5 74.5t19 72.5t37.5 55t61.5 22q28 0 53 -10t43.5 -29t29 -46t10.5 -60q0 -11 11 -11l3 -1
q8 0 8 7q4 10 15 29t23.5 37.5t25 34t20.5 20.5q13 8 -1 17q-21 13 -48.5 26t-58.5 22t-65 12t-70 -4q-115 -23 -176 -102.5t-61 -221.5q0 -71 19 -121.5t53.5 -82.5t82 -47.5t104.5 -15.5q85 0 140.5 36t102.5 116z" />
    <glyph glyph-name="d" unicode="d" horiz-adv-x="581" 
d="M558 295q0 89 -21.5 144t-56 87t-76.5 48t-84 27q-26 7 -49.5 15t-43 20t-33.5 28.5t-20 41.5q0 1 1 4q1 5 1.5 12t-2.5 13q-3 7 -10 7t-10 -7q-11 -21 -24 -42.5t-28.5 -41t-33.5 -35.5t-39 -26q-6 -2 -6 -9q0 -5 4 -7t9 -3.5t9 -1.5h7h10t10 1h-1q8 1 18.5 2t18.5 0
l69 -3q11 -1 21 -1q11 0 22 -1q-22 -8 -47.5 -21.5t-36.5 -21.5q-25 -18 -44.5 -46.5t-33 -62.5t-20.5 -69.5t-7 -68.5q0 -55 13 -105t41 -88.5t72 -61t105 -22.5q55 0 108.5 20t95 58.5t67 93t25.5 123.5zM423 266q-5 -38 -14 -84.5t-25.5 -83.5t-40.5 -55.5t-57 0.5
q-2 2 -4 2.5t-4 2.5q-72 45 -99 112.5t-27 148.5q0 39 6 80.5t22 75.5t42.5 56t67.5 22q3 0 13 -2q2 0 4 -0.5t4 -0.5l5 -1h2q33 -15 55.5 -43.5t35 -65.5t16 -79.5t-1.5 -84.5z" />
    <glyph glyph-name="e" unicode="e" horiz-adv-x="585" 
d="M604 402q5 8 -1.5 15t-13.5 9q-29 7 -51.5 10l-22.5 3q-15 41 -36 69t-48 44.5t-59.5 23.5t-71.5 7q-68 0 -119 -23.5t-86 -67t-52.5 -104t-17.5 -134.5q0 -65 20.5 -114.5t56 -82.5t83 -50t101.5 -17q82 0 158 38t134 108v8q0 11 -11 11q-21 0 -49 3.5t-44 15.5
q-5 3 -10.5 1t-6.5 -9q-3 -25 -9.5 -47t-18.5 -38.5t-29.5 -26t-41.5 -9.5q-50 0 -90 22t-68.5 59t-44 86t-15.5 103q0 33 2.5 50t10 25t20 9t32.5 1h27q11 0 42.5 -0.5t68.5 -1t74.5 -1.5t60 -1.5t24.5 -0.5h85l7 1t10 6zM383 439q-6 -3 -15 -3q-27 0 -53.5 -0.5
t-52.5 -1.5t-51 -1.5t-50 -0.5q3 22 16.5 42t32 35t39.5 24t39 9t35.5 -6t30.5 -17.5t21 -28.5t8 -40v-11z" />
    <glyph glyph-name="f" unicode="f" horiz-adv-x="536" 
d="M535 145q7 4 5.5 12t-9.5 9q-17 2 -39 2q-21 0 -40 -1q-23 -1 -45 -1.5t-45 -0.5q-19 0 -45 2t-50 4.5t-41 4.5l-17 2q0 2 -1 27t-2.5 66t-3 83t-2.5 77.5t-1 50.5v23t2 23q14 6 27 10t27 4q18 0 41.5 -4.5t45.5 -14.5t39 -25.5t23 -36.5q2 -8 9 -8.5t11 6.5
q12 20 23.5 33.5t23.5 27.5l12 12t13 14l3 12q-39 21 -72.5 34t-59.5 13q-63 0 -127 -18t-127 -40q-27 -9 -53 -17l-52 -16q-5 -2 -7 -6.5t0 -9.5q7 -9 21 -15q7 -4 16.5 -10.5t19.5 -16.5t18.5 -24.5t13.5 -35.5v1q8 -37 9 -77t1 -77v-250q0 -18 -2 -45t-4.5 -51.5
t-4.5 -42l-2 -17.5v-6q0 -5 4.5 -8t9.5 -1l13 4.5t31.5 10.5t39.5 12t37 8q8 2 9 10t-7 11q-6 3 -9 13t-4.5 24t-2 30t-1.5 30q-3 31 -1.5 55t1.5 50q10 2 13.5 1.5t11.5 0.5q42 2 79 5t73.5 9t73 17.5t77.5 31.5z" />
    <glyph glyph-name="g" unicode="g" horiz-adv-x="614" 
d="M668 -77q0 19 -13 34t-35.5 27.5t-53 23.5t-64.5 22q-53 18 -111 40t-106 56t-79 83t-31 121q0 49 26.5 77t66 42.5t86.5 19t88 6.5q14 1 29 1.5t26 2.5q26 5 58 19q14 6 31 17t27 18t11 8q3 3 3 8v5q0 5 -4 8t-9 2l-11.5 -2t-27.5 -4.5t-33 -4.5t-28 -2h-111
q-45 0 -89.5 2t-89.5 4q-20 1 -39.5 2t-38.5 2q-4 0 -10 1t-10 4l17 26q4 6 1.5 11.5t-10.5 5.5h-4q-2 0 -4.5 -1t-3.5 -3q-4 -5 -19.5 -20.5t-33.5 -32.5t-33 -30.5t-18 -14.5q-8 -3 -7.5 -10.5t8.5 -9.5q41 -11 86.5 -12.5t90.5 -1.5h30q-28 -17 -57 -38.5t-53 -47.5
t-39.5 -57t-15.5 -67q0 -47 14.5 -82.5t39 -62.5t56 -46.5t64.5 -35.5q-14 -18 -35 -38t-44.5 -39.5t-47.5 -37t-44 -32.5h1q-5 -4 -11 -7t-9 -11q-2 -3 -2.5 -7.5l-0.5 -4.5q19 -32 54 -56.5t75.5 -41t82 -25t74.5 -8.5q18 0 50.5 6.5t70 18.5t76.5 29t71 39t52 47.5
t20 54.5zM544 -113q0 -24 -11 -41.5t-27.5 -29t-37 -17.5t-38.5 -6q-31 0 -71 7.5t-79 23.5t-71.5 40t-49.5 57q14 15 32 31.5t34.5 31.5t30 27t19.5 17l20 -4t50 -11.5t64.5 -19t64.5 -27t50 -35.5t20 -44z" />
    <glyph glyph-name="h" unicode="h" horiz-adv-x="562" 
d="M574 11l-1 6q0 11 -11 11q-33 2 -43.5 20t-10.5 53q0 45 1.5 93t3.5 92q2 43 3.5 86t1.5 87q0 42 -12.5 68.5t-33.5 41t-49.5 20t-59.5 5.5q-39 0 -71 -5.5t-57 -12.5t-42 -14t-24 -11q1 8 1.5 22.5t0.5 25.5q0 45 3 92q3 46 3 93q0 15 -14 10q-16 -7 -37.5 -15.5
t-43.5 -15.5t-43.5 -11.5t-37.5 -4.5q-6 0 -10.5 -5t0.5 -9q16 -12 24 -21.5t23 -20.5q12 -9 17.5 -21t7.5 -25.5t2.5 -28.5t0.5 -30l2 -164v-59q0 -17 0.5 -42t0.5 -53q0 -39 -0.5 -81.5t-2 -78.5t-3.5 -60t-6 -27q-7 -4 -4.5 -11.5t10.5 -7.5h5q14 0 27.5 1t27.5 3
q16 2 32 -1t31 -4q7 0 10 4.5t0 10.5q-9 17 -14 43.5t-7.5 57t-3 62t-0.5 60.5v194q0 28 9.5 49.5t25 36.5t36 22.5t42.5 7.5q40 0 63.5 -19t34.5 -49.5t14 -68.5t3 -76t-1 -80.5t-3 -80.5q-2 -42 -3 -82t-1 -81q0 -11 10 -11q19 0 38 1.5t38 3.5q22 2 43.5 -1.5t42.5 -3.5
q11 0 11 10z" />
    <glyph glyph-name="i" unicode="i" horiz-adv-x="247" 
d="M230 671v5q-8 20 -16.5 32.5t-17.5 24.5v-1l-15 20q-6 8 -14 4l-89 -40q-11 -6 -4 -16q16 -22 23 -39.5l15 -37.5q2 -5 6 -6.5t9 0.5l97 44q6 2 6 10zM211 22q-15 13 -17.5 34.5t-2.5 42.5v69q0 172 9 343q1 14 3 33t5 30q2 7 -2.5 11t-10.5 2l-46 -17q-2 -1 -8.5 -2.5
t-11.5 -3.5h1q-2 -1 -4 -1h-3q-6 -3 -19.5 -6t-28.5 -6t-28 -5t-19 -3q-10 -2 -10 -11l-1 -3q0 -6 5 -8q17 -12 33 -26.5t28 -33.5q2 -20 2 -40v-39q0 -88 -3 -175q-1 -14 -1 -29q0 -14 -1 -30q0 -17 -3.5 -40.5t-7.5 -45t-7 -37l-3 -15.5l-1 -4t1 -6q3 -4 9 -4h7
q1 0 7.5 0.5t15 1t11.5 1.5h-2q2 1 4 1q5 0 11.5 0.5t11.5 0.5q6 0 12 0.5t13 0.5h6h23t20 2q6 2 7 7.5t-4 10.5z" />
    <glyph glyph-name="j" unicode="j" horiz-adv-x="219" 
d="M193 671v5q-8 20 -16.5 32.5t-17.5 24.5v-1l-12 30q-2 4 -7 5t-7 -1l-92 -50q-5 -2 -6.5 -6.5t2.5 -9.5q15 -22 22.5 -39.5t15.5 -37.5q4 -11 15 -6l97 44q6 2 6 10zM190 308q0 27 -0.5 59t-1.5 58q0 24 -0.5 46.5t-0.5 44.5q0 54 3 99q1 7 -4 10t-12 -1q-27 -17 -54 -33
t-60 -30h-1q-3 -1 -6.5 -2t-5.5 -3q-7 -2 -11.5 -4.5t-9.5 -5.5q-5 -4 -5 -11q0 -6 6 -9q37 -16 47.5 -43.5t10.5 -62.5q0 -38 1 -77t1 -77q1 -22 -0.5 -45t-1.5 -46q0 -57 -3 -112.5t-13 -107.5l-41 -97q-5 -5 -2.5 -11.5t10.5 -6.5l3 -1q2 0 4.5 1t3.5 3q4 5 8 9.5t8 9.5
q10 11 18.5 22t15.5 22l-1 -1q31 33 49.5 78.5t28.5 98t13 110t3 116.5z" />
    <glyph glyph-name="k" unicode="k" horiz-adv-x="585" 
d="M568 22q-18 3 -41.5 24.5t-50 54t-53 72t-50 78.5t-41.5 73.5t-27 57.5q9 9 28 25t42.5 35t49 39t49 38t41.5 32t27 20q7 5 4.5 11.5t-10.5 7.5q-18 2 -36.5 0.5t-35.5 -3.5q-19 -2 -36.5 -4t-34.5 -2q-11 0 -21.5 1t-22.5 4q-8 2 -11.5 -4t0.5 -13q7 -11 12 -24.5
t5 -28.5q0 -19 -18.5 -43.5t-44.5 -49.5t-53.5 -47t-46.5 -35q-2 33 -2.5 55.5t-0.5 55.5q0 80 3 163.5t17 163.5q1 5 -2.5 8.5t-8.5 3.5l-8 1q-12 -8 -31.5 -15.5t-42 -13.5t-46.5 -9.5t-46 -3.5h-8q-8 0 -10.5 -6.5t2.5 -11.5l3 -3q3 -3 7.5 -6t9.5 -7q9 -8 20 -17
t20.5 -18t15.5 -18t6 -16q0 -44 0.5 -87.5t1.5 -88.5t1.5 -88t0.5 -88q0 -71 -3.5 -141.5t-16.5 -140.5v-3q0 -6 4.5 -9t9.5 -1q8 3 17.5 4t20.5 1q16 0 33 -2t26.5 -4t10.5 -2q6 -2 10 2t3 10l-2.5 29.5t-6 71.5t-6 87t-2.5 77q0 2 0.5 6t1.5 9v1q2 2 3 2t3 2
q15 -15 26.5 -33t22.5 -38q10 -16 19.5 -32t17.5 -25q12 -23 27.5 -45t32.5 -45q4 -5 7.5 -9.5t7.5 -9.5h-1q4 -5 8 -12.5t6 -11.5q8 -16 23 -31q4 -4 8 -3q23 5 45 5h44h29q11 0 22 -2.5t22 -0.5q9 2 9.5 10.5t-8.5 10.5z" />
    <glyph glyph-name="l" unicode="l" horiz-adv-x="230" 
d="M203 16q-6 13 -9 39t-4.5 55.5t-2 57.5t-0.5 45q-1 102 1 204t4 203q1 22 2 54t2.5 62t2.5 51l1 21q1 6 -4 9.5t-10 0.5l-16 -6.5t-39 -15t-50 -16.5t-49 -11q-7 -1 -9 -8t4 -12q8 -6 19.5 -18t16.5 -23q14 -17 15.5 -43.5t1.5 -47.5q2 -131 -0.5 -259.5t-1.5 -259.5
q0 -10 -4.5 -23.5t-10.5 -26t-10.5 -21l-4.5 -8.5l-1 -4l0.5 -3t2.5 -5q2 -3 4 -5t7 -1l11.5 1t18.5 2q10 0 13 1h-2l2 2q8 -1 16 -1q9 0 17 -1q15 -1 29.5 -3t28.5 0q5 1 7.5 5t0.5 9z" />
    <glyph glyph-name="m" unicode="m" horiz-adv-x="837" 
d="M811 13q0 2 -3 5.5t-6 4.5q-4 2 -6.5 2.5t-4.5 2.5q0 2 -0.5 5t-0.5 5q-5 13 -5 19v139q0 17 2 37t4 42q2 25 4 53t2 55q0 78 -34 128t-102 67q-26 7 -47 5.5t-41 -9.5t-41 -20.5t-48 -28.5q-13 19 -26 31q-9 6 -22.5 11t-28.5 9t-29 6t-23 2q-32 0 -59.5 -10t-53.5 -21
q-6 -3 -15.5 -7t-18.5 -8q1 7 1 16t-1.5 17t-4.5 14.5t-9 8.5q-14 -6 -33 -11.5t-39 -10t-40 -7.5t-36 -3q-5 0 -10 -0.5t-10 -3.5t-4.5 -8t5.5 -9q27 -19 41 -34t20 -30.5t6.5 -35.5t0.5 -48v-42q0 -48 -3 -99q-2 -32 -3 -63.5t-1 -63.5q0 -16 -3 -31q-2 -20 -3.5 -41.5
t-6.5 -39.5q-1 -7 3.5 -10.5t11.5 -1.5q8 3 21.5 4t29.5 1q35 0 58 -3q5 -1 9 3t2 10l-5 30q-8 46 -6 92.5t-1 92.5v-1q0 19 -1 39.5t-1 43.5q0 37 3 75t12 68t25.5 49t43.5 19q40 0 61 -22.5t30.5 -57t10.5 -74.5t1 -76q0 -17 -0.5 -49t-2 -66.5t-3.5 -67t-4 -50.5
t-3 -21.5t-2.5 -4t-2 -3.5t-0.5 -20q0 -11 11 -11l56 2l66 -2h4q11 0 11 11t-2 15.5t-5 15.5q-4 18 -9 39.5t-5 35.5v166v46q0 33 2.5 67.5t11.5 62t26.5 45.5t47.5 18q29 0 47.5 -17.5t29 -43.5t14 -58t3.5 -60v-74l-15 -261q6 -6 11 -6l123 -2q3 0 6 -1.5t5 -1.5q3 0 5 3
t2 12zM482 524q-6 -4 -10 -6q8 6 11 6h-1z" />
    <glyph glyph-name="n" unicode="n" horiz-adv-x="612" 
d="M588 20q-23 14 -33.5 38t-14 53.5t-2.5 61.5t1 62q0 11 0.5 23t0.5 23t0.5 21.5t0.5 19.5q0 31 -3.5 60.5t-19 58.5t-47 59t-86.5 63l1 -1q-6 4 -11.5 7t-10.5 5v-1q-27 10 -50.5 14t-47 5t-48 0t-51.5 -1q-73 0 -142 -15q-7 -2 -9 -7t3 -10q7 -9 11.5 -29t6.5 -43.5
t2.5 -46t0.5 -35.5v-77q0 -81 -3 -160.5t-13 -160.5q-1 -7 4 -10t10 -1q25 9 51 11.5t53 3.5q14 1 26.5 -5.5t25.5 -4.5q7 1 9 6.5t-2 10.5q-29 32 -45 70.5t-16 85.5v207q0 8 0.5 31.5t1 50.5t1.5 51.5t2 33.5q41 -5 90 -17.5t91.5 -36t71 -58.5t28.5 -83q0 -18 -0.5 -44.5
t-1.5 -54t-2 -54t-2 -44.5q-2 -36 -3.5 -73t-1.5 -74q0 -5 3.5 -9t8.5 -2q17 8 39.5 10.5t44.5 1.5t41 -4t30 -6q8 -2 10.5 6.5t-4.5 13.5z" />
    <glyph glyph-name="o" unicode="o" horiz-adv-x="598" 
d="M574 290q0 144 -64 220.5t-193 76.5q-65 0 -118.5 -20.5t-92.5 -60.5t-60.5 -98.5t-21.5 -134.5q0 -48 13 -99t38.5 -93t63.5 -69t89 -27q66 0 128.5 14.5t110.5 49.5t77.5 93.5t29.5 147.5zM450 229q0 -33 -4 -67.5t-15.5 -62.5t-33 -46t-56.5 -18q-46 0 -82 25
t-61.5 65t-39 89t-13.5 97q0 39 5.5 81t21 77t42 58t68.5 23q49 0 81 -33t51.5 -82t27.5 -105t8 -101z" />
    <glyph glyph-name="p" unicode="p" horiz-adv-x="609" 
d="M582 329q0 67 -20 116t-55 81.5t-82.5 48t-102.5 15.5q-52 0 -105.5 -18t-90.5 -64l-95 3q-8 0 -9.5 -7t6.5 -12q21 -14 33 -35.5t18.5 -47.5t8.5 -54t2 -54v-183v-49t-0.5 -62.5t-2 -67.5t-4.5 -63t-7.5 -49.5t-10.5 -26.5q-5 -5 0.5 -13t13.5 -4q9 5 18 8.5t18 8.5
q18 10 36 18.5t35 13.5q6 2 6 10q0 17 -1 35t-1 36v29q0 16 0.5 34t1 34.5t2.5 28.5q4 -1 6.5 -8.5t10 -16.5t23 -16t45.5 -7q69 0 125 24t95.5 68t61 106.5t21.5 139.5zM452 278q0 -32 -2 -71.5t-12 -74t-30.5 -58.5t-56.5 -24q-11 0 -26.5 4t-29 12t-23 19.5t-9.5 26.5v8
q0 4 2 9l-2 5q0 8 -8 10t-12 -5q-11 -20 -23 -35t-26 -29v24q0 73 -3 145.5t0 145.5q1 33 7 62.5t20 52t36 36t55 13.5q41 0 69 -28.5t44.5 -70.5t23.5 -90t7 -87h-1z" />
    <glyph glyph-name="q" unicode="q" horiz-adv-x="588" 
d="M565 547v16q0 7 -4.5 10t-10.5 0q-7 -4 -21 -8.5t-20 -4.5h-53q-11 2 -21.5 3t-22.5 3q-22 4 -45.5 7t-45.5 3q-63 0 -117 -20t-94.5 -58.5t-63.5 -95.5t-23 -132q0 -135 61.5 -209t183.5 -74q22 0 43.5 5.5t40.5 13.5t35.5 17t30.5 17q11 7 19 10v-140q0 -32 -19 -58.5
t-42 -40.5l-1.5 -11.5t4.5 -17.5q4 -5 12 -6.5l8 -1.5q5 -5 12 -1q10 7 29 18.5t39.5 23t40 20t30.5 8.5q6 0 9.5 4.5t1.5 9.5q-13 40 -15.5 91t-2.5 93v99zM447 335q0 -12 -0.5 -24.5t-0.5 -25.5q0 -12 -0.5 -24t-0.5 -24q0 -35 -3 -68.5t-14 -59.5t-32 -42t-58 -16
q-47 0 -84.5 25t-63.5 64t-40.5 88t-14.5 97t10 87t30.5 67.5t52 44t75.5 15.5q48 0 76.5 -16.5t43.5 -45t19.5 -65.5t4.5 -77z" />
    <glyph glyph-name="r" unicode="r" horiz-adv-x="578" 
d="M736 -65q0 8 -8 10q-32 9 -77.5 33t-90.5 53.5t-82.5 57.5t-54.5 44q-23 22 -46 42t-55 37q12 7 32.5 9.5t29.5 6.5q29 13 56 27t48 35.5t33.5 53t12.5 78.5q0 39 -16.5 70.5t-42.5 54t-58 34.5t-63 12q-51 0 -88.5 -10.5t-75.5 -24.5q-34 -13 -71 -23t-91 -12
q-8 0 -10 -7t4 -12q23 -20 37 -36t21 -34.5t9 -42t2 -57.5q0 -36 -0.5 -77t-2.5 -78q-1 -20 -3.5 -48t-5 -53.5t-4.5 -43.5l-2 -18l1 -6q0 -5 4 -9t9 -2q2 0 12 2.5t25.5 5t25.5 2.5q11 0 24 -3t25 -5q8 -1 11.5 5.5t-1.5 11.5q-6 7 -8.5 24t-4 38t-1.5 42v38v18h6
q25 -18 60 -44t75 -55t82.5 -58t82.5 -52.5t74.5 -38t58.5 -14.5q12 0 22.5 -2.5t24.5 -1.5t23.5 4t20.5 3q10 0 10 11zM406 380q0 -48 -16.5 -80t-43.5 -51t-62 -27t-71 -8h-9t-9 2q-2 12 -1.5 23t0.5 24v119q0 27 2 57t9.5 55t21.5 41.5t39 16.5q32 0 58 -13t44 -36.5
t28 -55t10 -67.5z" />
    <glyph glyph-name="s" unicode="s" horiz-adv-x="523" 
d="M502 173q0 28 -14 49t-36.5 37.5t-52.5 30.5t-61 27t-61.5 27.5t-54.5 32t-38.5 40t-14.5 51.5q0 19 2.5 31t7.5 19.5t12.5 13t17.5 11.5q9 5 17.5 5.5t20.5 0.5h5q22 0 43 -11.5t36 -29.5t23.5 -40.5t6.5 -44.5q0 -8 6.5 -11.5t12.5 2.5q11 12 9.5 20.5t1 17t18 19
t60.5 26.5q10 4 5 15q-11 22 -32 37t-46.5 25t-51 14.5t-44.5 4.5q-34 0 -78 -6.5t-83.5 -24.5t-67 -50.5t-27.5 -83.5q0 -38 15 -64.5t40 -45t56.5 -31t63.5 -24.5q30 -11 58.5 -22.5t51 -28t36.5 -39t14 -55.5q0 -22 -7.5 -37t-19.5 -24.5t-28 -13.5t-33 -4q-18 0 -42.5 8
t-46 23t-36.5 35.5t-15 45.5v13q0 7 -5 9.5t-11 -0.5q-21 -15 -46 -23.5t-57 -10.5q-5 0 -8 -5.5l-3 -5.5q0 -36 17 -62t42.5 -43t55.5 -25t56 -8h61q33 0 76.5 11t81.5 33.5t64.5 57t26.5 81.5z" />
    <glyph glyph-name="t" unicode="t" horiz-adv-x="671" 
d="M643 562q4 7 0 12.5t-11 3.5q-42 -13 -82 -18.5t-80 -5.5h-15q-35 0 -73.5 0.5t-77 3.5t-75 9t-67.5 17v2l10 35l-2 3q0 8 -6.5 10.5t-11.5 -2.5q-13 -13 -33 -31.5t-39 -35t-33 -28.5l-14 -12q-7 -6 -4 -13t11 -5l14 1.5t34 4t42 4t38 1.5h80q-40 -21 -71 -44.5t-52 -55
t-32 -73.5t-11 -100q0 -30 7 -57.5t16 -55.5h-1l4 -12q21 -38 46.5 -64t55.5 -42t64 -22.5t72 -6.5q12 0 38 5.5t57 15t64 22t60 27.5t44.5 31.5t17.5 32.5q0 5 -3.5 8t-8.5 3q-22 -2 -38 -1t-40 18q-5 3 -11 0t-7 -8l-4.5 -15.5t-15.5 -33.5t-31 -33.5t-51 -15.5
q-41 0 -80 19t-69.5 51.5t-49 75.5t-18.5 90q0 66 13 111.5t39.5 73.5t67.5 40.5t97 12.5q13 0 35 -1t42 -6t35 -15.5t15 -30.5l-3 -18q-2 -10 -2 -18t7.5 -10.5t12.5 5.5q20 36 40.5 71t43.5 70z" />
    <glyph glyph-name="u" unicode="u" horiz-adv-x="656" 
d="M630 25q-26 5 -32 29t-6 51q0 60 3.5 118t8.5 116q4 59 7.5 117.5t3.5 117.5q0 8 -9 10q-14 3 -27.5 1.5t-27.5 -2.5q-18 -3 -36 -3h-6t-11 1q-10 1 -21.5 1.5t-22.5 0.5t-19.5 -0.5t-11.5 -3.5q-2 -2 -2.5 -6.5t1.5 -7.5q5 -7 10.5 -13t11.5 -13q8 -10 16 -18.5
t14.5 -19t10.5 -24t4 -33.5v-31q0 -16 1 -30q1 -17 1 -34v-34q0 -46 -5 -89.5t-21.5 -78t-48 -55.5t-84.5 -21q-38 0 -71 17t-57 46t-38 67.5t-14 81.5q0 54 5.5 92t19.5 68.5t37.5 58t59.5 61.5q3 3 3 8l-1 3q0 12 -12 10q-23 -2 -46 -3t-46 -1q-31 0 -62 1.5t-62 3.5
l-9 -4q-6 -3 -6 -10t6 -10l6 -3q21 -11 36.5 -27.5t15.5 -45.5q0 -26 -7.5 -55.5t-16.5 -58.5q-12 -36 -22.5 -77.5t-10.5 -80.5q0 -45 13.5 -85t38 -69.5t58.5 -47t75 -17.5q30 0 64 8.5t67.5 22.5t65.5 32t59 36q0 -5 -0.5 -4.5t-0.5 -7.5q-1 -12 -1.5 -24.5t-0.5 -23.5
v-19t1 -11q2 -7 10 -7q14 0 26.5 1.5t24.5 3.5q11 2 23.5 3.5t22.5 1.5h9t9 -1q6 -1 12 -1.5t13 0.5q8 1 8.5 10t-7.5 11z" />
    <glyph glyph-name="v" unicode="v" horiz-adv-x="603" 
d="M597 554q3 4 -2 9.5l-5 5.5q-23 -2 -46.5 0t-43 5t-32 5.5l-12.5 2.5l-13 -1q-8 -1 -10.5 -7.5t2.5 -11.5q15 -14 30.5 -34t15.5 -40q0 -12 -7 -40t-18 -65t-25 -79l-27 -81t-24 -71t-17 -49q-9 21 -25 59t-34.5 84t-38.5 95.5t-37.5 95t-30.5 82.5t-18 57q0 3 -3.5 5.5
t-7.5 2.5q-2 0 -3 1h2q-4 1 -20.5 -1.5t-39 -5t-47.5 -2.5t-45 6q-8 2 -9.5 -8t6.5 -13q20 -7 35 -24t23 -37l205 -492l4.5 -4.5t5.5 -2.5h124q6 0 9 5t0 10l-14 29q18 90 57 186.5t79 188.5q7 17 13 33.5l12 33t13.5 33t18.5 34.5z" />
    <glyph glyph-name="w" unicode="w" horiz-adv-x="905" 
d="M899 567q3 5 0 11t-9 5q-24 -5 -46 -5q-21 0 -41 1t-40.5 3t-42.5 2h-5q-8 0 -11 -5.5t2 -11.5q3 -4 10.5 -10.5t15.5 -14.5q14 -12 26.5 -25.5t12.5 -30.5q0 -26 -4 -59t-10.5 -69.5t-15 -74t-17 -71t-16.5 -61.5t-13 -45l-14 31t-35 78.5t-46.5 104.5t-48.5 109
t-40 91.5t-21 52.5q-2 7 -10 7h-138q-8 0 -10 -7.5t5 -11.5q15 -11 29.5 -39t26.5 -56.5t19 -50.5l7 -22q-1 -2 -5 -15l-10 -32.5l-10 -32.5q-17 -56 -35 -114t-43 -107q-10 26 -19.5 50.5t-18.5 50.5l-132 387q-3 9 -13 6q-20 -7 -44.5 -5.5t-48.5 -0.5q-8 0 -14.5 1.5
t-12.5 0.5q-8 -1 -10 -7t3 -11q18 -20 35.5 -56t34 -81t32.5 -96t31 -100h-1q21 -68 40.5 -128.5t39.5 -98.5q4 -6 10 -6q13 0 24.5 4t27.5 4h-1q-10 0 -4 -1t19 -2.5t28.5 -3t24.5 -1.5q7 0 10 5t0 10q-2 4 -4 8.5t-4 9.5q28 69 55 135.5t55 135.5l141 -301q1 -2 4.5 -4.5
t5.5 -1.5q13 4 27 6t31 2h-1q-11 0 -4 -0.5t20.5 -1.5t29.5 -2t25 -1q11 0 11 11q0 1 -1 4t-2 5q-2 7 -5 14.5t-3 9.5q0 6 6 30t16 58.5t23.5 77.5t27.5 87.5t28 87t26 77.5q11 32 19.5 61.5t12.5 41.5z" />
    <glyph glyph-name="x" unicode="x" horiz-adv-x="665" 
d="M720 568q4 6 0.5 11t-10.5 5q-11 0 -22 0.5t-22 0.5q-71 3 -122 -17.5t-85.5 -50t-54 -61t-28.5 -51.5q-1 2 -8.5 16t-19.5 34.5t-20 33.5q-29 45 -61.5 73.5t-83.5 28.5q-6 0 -22.5 -2.5t-34 -6t-31.5 -8.5t-14 -11q0 -13 12 -13q13 0 25 -1q3 0 5.5 -0.5t3.5 -0.5h-1
q17 -5 35 -20t29 -32q34 -51 63 -110t50 -119q-30 -60 -66 -129.5t-79 -135.5t-91 -121.5t-102 -87.5l-15 -9q-7 -5 -4.5 -12.5t10.5 -7.5q34 0 71.5 22.5t75.5 59.5t74.5 83t69 93.5t59 90.5t44.5 74q4 -6 9 -14.5t10 -19.5q12 -23 28.5 -51.5t38.5 -53t49 -41t60 -16.5
q18 0 43.5 5t49 11t40 11l16.5 5q7 2 7 10l-2 13q0 6 -4 9t-10 1q-1 -1 -11 -4t-24.5 -7t-24.5 -4q-19 0 -39.5 15t-40.5 39t-39 54t-36 60.5t-30.5 58t-22.5 46.5q6 25 22.5 60t39 67t47.5 54.5t49 22.5q23 0 35 -21t20 -44q2 -8 8 -8q7 0 11 7q7 12 15 26t16 26
q11 16 21 32t19 32z" />
    <glyph glyph-name="y" unicode="y" horiz-adv-x="587" 
d="M564 570q0 5 -3.5 9t-9.5 3q-18 -2 -36 -5.5t-41 -5.5q-30 -2 -54.5 3.5t-49.5 1.5q-8 -2 -8.5 -9t6.5 -11q14 -8 25.5 -19.5t22.5 -19.5q5 -5 10.5 -8.5t10.5 -7.5q3 -44 4.5 -83.5t1.5 -83.5q0 -41 -1 -88.5t-11.5 -89t-35.5 -69t-72 -27.5q-46 0 -80 24t-56 62.5
t-33 86.5t-11 95q0 63 13 123.5t48 111.5q4 6 1 11.5t-11 5.5q-26 0 -50.5 -6t-55.5 -4q-16 1 -28 5t-27 2q-7 -1 -9 -7.5t4 -11.5q15 -12 24 -24.5t19 -27.5q-26 -54 -37 -114.5t-11 -121.5q0 -57 11 -107.5t35 -88.5t63 -60.5t95 -22.5q38 0 65.5 4.5t50.5 14.5t44 24.5
t46 34.5q-2 -48 -13 -94t-33 -82.5t-56.5 -58.5t-82.5 -22q-13 0 -29.5 4t-31 12t-24.5 21t-10 31v11q0 7 -5 10t-12 -2q-6 -5 -12 -11l-12 -12l-34 -34t-36 -32l-2 -14q9 -15 26 -23t36 -12t37.5 -5t31.5 -1q29 0 51.5 3t42.5 9t39 13.5t41 16.5q8 2 15.5 5.5t15.5 7.5
q64 56 99 119.5t51.5 132.5t20.5 142t5 149q1 54 3 108.5t9 108.5z" />
    <glyph glyph-name="z" unicode="z" horiz-adv-x="541" 
d="M545 68q4 6 0 12q-5 7 -14 5.5t-19 -6.5l-22 -10t-17 -6q-37 -7 -76 -11t-76 -4q-28 0 -56 0.5t-57 3.5q8 19 27 62.5t44 98t53.5 114t56 109.5t52 85t41.5 41q8 3 6.5 11.5t-10.5 8.5l-3 1h-8q-5 0 -10 -1q-17 -1 -44 -2.5t-61 -1.5q-39 0 -80.5 -2t-76 1t-57.5 13.5
t-24 34.5q-1 9 -10 9.5t-11 -7.5q-14 -51 -30 -93t-36 -88q-4 -8 4 -13.5t14 1.5q50 52 114 79t130 27h40q-4 -18 -21 -56t-41.5 -87.5t-55 -105.5t-61.5 -108.5t-60.5 -97t-51.5 -71.5q-5 -6 -2.5 -12t10.5 -6q9 0 26 0.5t35 2.5q28 2 61 3.5t68 1.5q34 0 67 -2.5t58.5 -9
t41 -17.5t15.5 -29q0 -8 -2.5 -16t-5.5 -15q-4 -7 2 -13q5 -5 11.5 -3t8.5 5q22 39 45 71t45 62q6 8 11.5 15.5t11.5 15.5z" />
    <glyph glyph-name="sterling" unicode="&#xa3;" horiz-adv-x="580" 
d="M553 40q-11 22 -32.5 37.5t-50 25t-62 13.5t-67.5 4q-36 0 -73 -4.5t-67 -12.5q19 26 34 57t27 64h55q1 0 16.5 5t28.5 9t15 5l8 -19l114 58q8 5 3.5 14t-12.5 6l-3 -0.5t-22 -1t-61 -2t-120 -2.5q7 25 10.5 48t7.5 49q3 24 8 48t15 42q26 -3 50 -17.5t43 -40.5
q6 -8 14 -4l102 47q11 5 4 16q-54 74 -120 74q-15 0 -31.5 -3.5t-33.5 -11.5h1l-112 -51q-21 -9 -33.5 -24.5t-20 -34t-11.5 -40.5t-7 -45q-1 -6 -2 -11.5t-2 -11.5q-1 -8 -2.5 -16t-3.5 -14h-7l-113 -53q-8 -3 -6.5 -11.5t10.5 -8.5q17 0 32.5 0.5t31.5 0.5h34
q-18 -58 -45 -110t-67 -91q-6 -5 -0.5 -13t13.5 -4q6 3 12.5 5.5t12.5 5.5q30 14 72.5 22t87.5 8q31 0 61.5 -4t56 -12.5t45 -21t28.5 -30.5q5 -9 15 -5l114 52q10 5 5 15z" />
    <glyph glyph-name="currency" unicode="&#xa4;" horiz-adv-x="603" 
d="M572 474q5 4 5 9t-5 9q-1 1 -2 1.5t-4 3.5q-20 17 -34 26t-36 14h1q-19 5 -44.5 8.5t-53.5 3.5q-27 0 -52.5 -5.5t-44.5 -17.5q-17 -11 -35 -22.5t-35 -22.5q-18 -12 -33.5 -38t-27.5 -58h-62l-69 -47q-6 -4 -4 -11.5t10 -7.5h108q-3 -15 -5 -33t-4 -34l-45 1l-69 -46
q-7 -5 -5 -12.5t10 -7.5q26 0 54 -0.5t54 -0.5q1 -16 3.5 -29.5t5.5 -25.5q9 -36 28 -63t44.5 -45.5t54.5 -27.5t58 -9q45 0 78 22q8 6 10 6.5t6 2.5q8 5 16.5 10t16.5 10l-1 -1l41 24l10 14q5 6 0.5 12.5t-11.5 3.5l-14 -6q-5 -3 -9 -4.5t-9 -4.5q-30 -16 -66 -16
q-25 0 -50.5 7.5t-48 23t-40 38.5t-25.5 54v3q67 0 109 2.5t66 6t32.5 6.5l8.5 3l11 -19l66 47q7 5 3 13t-12 5l-292 3q-1 33 3 67q76 0 115.5 1t56 2.5t18 2.5l1.5 1q16 11 36 20.5t37 20.5l-16 14l-3 0.5t-24.5 1.5t-69.5 1.5t-137 0.5q12 56 35 89q12 3 24 4t25 1
q23 0 47 -3.5t43 -8.5t35.5 -12t36.5 -23q2 -2 6 -2t6 2z" />
    <glyph glyph-name="brokenbar" unicode="&#xa6;" horiz-adv-x="307" 
 />
    <glyph glyph-name="section" unicode="&#xa7;" horiz-adv-x="485" 
d="M343 366q-33 66 -83 98l-10 1l-90 -41q-6 -3 -6 -9t6 -10q22 -14 34 -37t23 -49v1q0 -2 1.5 -4.5t1.5 -4.5q4 -11 15 -7l103 48q11 5 4 14h1zM458 212q-14 37 -31.5 59t-44.5 39l-11 1l-90 -41q-6 -3 -6.5 -9t6.5 -10q27 -17 38.5 -39t22.5 -52q2 -5 6 -6.5t8 0.5l97 45
q8 4 4 13h1zM340 71q0 3 -2 7t-5 11v-1q-9 27 -23 44t-35 37l-13 2l-89 -42q-5 -2 -6 -7.5t4 -10.5q20 -20 29.5 -37.5t17.5 -37.5q-2 1 -1 -0.5t1 -3.5q2 -2 3 -7t1 -7q2 -2 5.5 -4t7.5 0l99 45q3 2 5.5 5t0.5 7zM199 201q-2 4 -4.5 9.5t-2.5 9.5q-12 23 -24.5 41t-38.5 38
l-11 1l-89 -42q-6 -3 -6 -9t5 -10q22 -17 29.5 -30t13.5 -30q2 -8 6.5 -18.5t6.5 -12.5q2 -4 6.5 -5t7.5 0l97 44q3 2 4.5 6t-0.5 8zM222 19v-1v1z" />
    <glyph glyph-name="dieresis" unicode="&#xa8;" horiz-adv-x="244" 
d="M218 718q5 5 2 12t-11 7h-9t-7 -1h-2q-11 26 -28.5 35t-42.5 9q-46 0 -70 -30t-24 -79q0 -45 26.5 -67.5t62.5 -22.5q57 0 96 47q4 5 1.5 11t-9.5 7q-5 1 -12.5 2t-12.5 4q-5 4 -10.5 1t-5.5 -9q-2 -14 -7.5 -22.5t-16.5 -8.5q-28 0 -44.5 23t-16.5 53q0 15 3 17.5
t12 2.5h8h17q14 0 28.5 0.5t25.5 0.5h12l30 4zM138 734h-31q-5 0 -10 -0.5t-11 -0.5q4 9 13 14t17 5t14.5 -4t8.5 -14h-1z" />
    <glyph glyph-name="guillemotleft" unicode="&#xab;" horiz-adv-x="367" 
d="M344 383l-13 15l-96 -43q-17 -25 -29 -56t-12 -62q0 -26 8 -49q6 -18 14 -30q6 -7 14 -4l92 42q4 2 5 6.5t-1 8.5q-5 8 -8.5 14t-5.5 12q-6 16 -6 38q0 27 10.5 55t27.5 53zM173 383l-12 15l-96 -43q-18 -25 -30 -56t-12 -62q0 -24 9 -49q4 -10 6.5 -17.5t6.5 -12.5
q6 -7 14 -4l92 42q11 6 4 15q-5 8 -8.5 14t-5.5 12q-6 16 -6 38q0 27 10.5 55t27.5 53z" />
    <glyph glyph-name="logicalnot" unicode="&#xac;" horiz-adv-x="1045" 
d="M1023 251q0 103 -39.5 194.5t-107 159t-159 107t-194.5 39.5q-69 0 -133 -18t-119.5 -50.5t-101 -78t-78 -101t-50.5 -119.5t-18 -133t18 -133t50.5 -119.5t78 -101t101 -78t119.5 -50.5t133 -18t133 18t119.5 50.5t101 78t78 101t50.5 119.5t18 133zM863 354l-64 -29
q-24 -2 -44 -3t-37 -3q-20 -1 -34.5 -2t-26.5 -3h-8q-29 -4 -36 -4.5l-7 -0.5l-10 19q16 8 33.5 11.5t33.5 11.5l1 2.5t9.5 5.5t29.5 4q26 17 43 41t20 68q1 3 1 5q0 3 1 5v-1q2 8 2.5 14.5t-1.5 11.5q-6 15 -17 27.5t-24.5 22.5t-27.5 17.5t-26 12.5q-13 6 -22.5 7
t-21.5 -2q-31 -21 -52 -45q1 -8 1 -20v-19q0 -21 -1 -42t-3 -41q-2 -18 -3 -35t-1 -34q0 -7 -7 -9l-67 -31q-6 -2 -10 1t-4 8q0 19 1.5 39t3.5 40q1 21 2.5 42t1.5 42q0 15 -2.5 37.5t-7.5 35.5q-6 17 -21 24.5t-34 7.5q-21 0 -47 -8q-8 -7 -14 -14t-14 -16l-1 -1
q-1 -23 -0.5 -48t0.5 -50q0 -40 1 -70.5t4 -38.5q3 -9 -6 -14l-61 -25q-10 -4 -14 6q-5 11 -6 20t-1 18q0 8 0.5 15.5t1.5 15.5q1 9 1.5 18t0.5 18v28q0 30 0.5 62t1 58.5t1 43.5l0.5 17q0 2 2 5.5t4 4.5l66 22l3.5 -14t2.5 -43q12 5 23 10.5t23 10.5h-1q18 9 43 15t48 6
q26 0 46 -9.5t29 -33.5l2 -5q0 1 2 -5q5 4 10 7t10 5l65 30q12 6 27 9.5t29 3.5q21 0 38 -9h-1q15 -6 31 -14.5t31 -20.5t27.5 -26.5t19.5 -32.5q3 -10 2 -18.5t-3 -16.5q-2 -3 -2 -8v-6q-4 -49 -27 -78t-55 -49h3q17 0 37.5 2.5t46.5 4.5q9 1 11.5 -8t-5.5 -13zM978 266
h-917q-11 0 -11 11t11 11h917q5 0 7.5 -3.5t2.5 -7.5t-2.5 -7.5t-7.5 -3.5zM750 -166l-78 -36q-32 0 -59.5 10t-52 27t-46 38t-42.5 44l-4.5 4.5l-4.5 4.5q-4 5 -8.5 11t-10.5 11q0 -41 1 -67.5t4 -33.5q3 -9 -6 -14l-66 -28q-11 -4 -14 6q-7 21 -7 44q0 7 0.5 15t1.5 16
t1.5 19t0.5 20q0 44 1 96t1.5 97t1.5 75l1 30q0 8 7 10l70 23l0.5 -20.5t1 -53.5t0.5 -76v-85q18 14 38.5 30.5t40.5 30.5q17 13 34 25t31 23q-8 0 -17.5 1.5t-17.5 5.5q-8 3 -7.5 9.5t7.5 9.5l63 28q2 2 7 0q8 -4 20 -3t25 3q11 2 24.5 2.5t25.5 -1.5q8 -2 9.5 -9t-6.5 -11
l-49 -23l1 1q-17 -11 -34 -24.5t-36 -28.5q-26 -20 -50.5 -39t-48.5 -33q12 -10 25 -23.5t24 -25.5q2 -3 2 -2t2 -2l-1 1q20 -21 41 -41t44 -35.5t48.5 -25t55.5 -9.5q9 0 11 -8.5t-6 -12.5z" />
    <glyph glyph-name="degree" unicode="&#xb0;" horiz-adv-x="396" 
d="M373 566q0 21 -4 43t-12 43q-9 24 -28 39t-41 4h1q-47 -20 -93 -35q-22 -7 -43 -14.5t-41 -15.5t-36 -24t-28 -37t-18.5 -46t-6.5 -51q0 -15 2.5 -30t8.5 -30q14 -35 42 -50t59 -15q13 0 27.5 3t25.5 8q23 10 46 20.5t46 21.5q47 21 70 66.5t23 99.5zM256 525
q0 -32 -8.5 -60.5t-26.5 -50.5q-24 1 -46 12t-31 36q-4 12 -6 23.5t-2 24.5q0 29 10.5 57.5t27.5 50.5q6 2 13.5 4t16.5 7h-1q12 5 24 -4.5t17 -23.5q12 -36 12 -76z" />
    <glyph glyph-name="paragraph" unicode="&#xb6;" horiz-adv-x="355" 
d="M250 366q-22 48 -59 69l-9 1l-62 -28q-6 -3 -6.5 -8.5t5.5 -9.5q13 -9 20 -22.5t15 -29.5q1 -3 2.5 -6.5t3.5 -6.5q4 -9 14 -5l71 32q9 5 4 14h1zM328 261q-9 25 -21 40.5t-32 28.5l-11 1l-62 -29q-6 -3 -6 -9t6 -10q17 -11 25 -26t16 -35q2 -5 6 -6.5t8 0.5l66 31
q8 4 4 14h1zM247 165q0 2 -1 3.5t-1 3.5q0 3 -2 3q-5 16 -14 27.5t-20 22.5q-1 2 -3.5 3.5l-2.5 1.5l-13 4l-63 -29q-5 -3 -5 -8t5 -10q14 -13 19.5 -23.5t10.5 -24.5v-3q0 -2 2 -9q2 -13 14 -8l69 31q11 6 5 15zM149 254q-2 4 -3 7.5t-3 6.5q-8 16 -15.5 27.5t-27.5 25.5
l-9 1l-61 -28q-6 -3 -6.5 -9t4.5 -10q14 -11 19.5 -19.5t9.5 -19.5l-2 1q2 -5 5 -11t5 -13q2 -4 6.5 -5t8.5 0l66 31q11 4 3 15z" />
    <glyph glyph-name="periodcentered" unicode="&#xb7;" horiz-adv-x="379" 
d="M266 338q-11 27 -27.5 45.5t-35.5 29.5l-9 1l-67 -30q-6 -3 -7 -9t6 -9q17 -11 26.5 -29.5t17.5 -39.5q0 -2 -0.5 -0.5t-0.5 -0.5q5 -9 14 -5l77 34q11 4 5 13h1zM352 226q-11 26 -24.5 43t-33.5 31l-10 1l-68 -31q-6 -3 -6.5 -9t5.5 -10q20 -13 28.5 -28.5t17.5 -37.5
q3 -11 14 -6l72 33q3 2 4.5 6t-0.5 8h1zM264 123l-6 12v-1q-8 21 -18 33.5t-25 26.5l-12 2l-66 -30q-5 -2 -6 -7.5t4 -10.5q11 -12 19 -25t13 -24v-4q2 -2 2.5 -6.5t2.5 -8.5q0 -4 4 -5.5t9 0.5l74 34q5 2 6.5 5.5t-1.5 8.5zM159 217l-3 6t-3 9q-9 15 -18 29.5t-29 29.5
l-11 1l-66 -31q-6 -3 -6 -9t5 -10q16 -12 21.5 -22.5t10.5 -21.5l-2 1q2 -5 5 -11t6 -13q6 -7 14 -4l72 33q3 2 4.5 5.5t-0.5 7.5z" />
    <glyph glyph-name="periodcentered" unicode="&#x2219;" horiz-adv-x="379" 
d="M266 338q-11 27 -27.5 45.5t-35.5 29.5l-9 1l-67 -30q-6 -3 -7 -9t6 -9q17 -11 26.5 -29.5t17.5 -39.5q0 -2 -0.5 -0.5t-0.5 -0.5q5 -9 14 -5l77 34q11 4 5 13h1zM352 226q-11 26 -24.5 43t-33.5 31l-10 1l-68 -31q-6 -3 -6.5 -9t5.5 -10q20 -13 28.5 -28.5t17.5 -37.5
q3 -11 14 -6l72 33q3 2 4.5 6t-0.5 8h1zM264 123l-6 12v-1q-8 21 -18 33.5t-25 26.5l-12 2l-66 -30q-5 -2 -6 -7.5t4 -10.5q11 -12 19 -25t13 -24v-4q2 -2 2.5 -6.5t2.5 -8.5q0 -4 4 -5.5t9 0.5l74 34q5 2 6.5 5.5t-1.5 8.5zM159 217l-3 6t-3 9q-9 15 -18 29.5t-29 29.5
l-11 1l-66 -31q-6 -3 -6 -9t5 -10q16 -12 21.5 -22.5t10.5 -21.5l-2 1q2 -5 5 -11t6 -13q6 -7 14 -4l72 33q3 2 4.5 5.5t-0.5 7.5z" />
    <glyph glyph-name="guillemotright" unicode="&#xbb;" horiz-adv-x="390" 
d="M365 294q0 12 -1.5 24t-6.5 23q-8 22 -26 40q-6 6 -12 2l-89 -42q-13 -6 -2 -17q16 -16 20 -30q6 -18 6 -38q0 -34 -14 -66t-36 -47q-2 0 -3.5 -3t-1.5 -5l2 -4q0 -7 5 -10t10 0l88 40q27 18 44 56t17 77zM205 278q0 9 -1 18t-5 18q-8 21 -25 35t-46 18l-97 -45
q-8 -4 -6 -12t10 -8q25 -3 38 -12.5t18 -23.5q10 -27 -5.5 -63t-53.5 -64q-4 -3 -4 -7t2 -7t5.5 -5t7.5 0l109 51q25 18 39 47.5t14 59.5z" />
    <glyph glyph-name="Agrave" unicode="&#xc0;" horiz-adv-x="784" 
d="M755 295q7 4 5 12t-10 8h-6q-5 0 -34.5 -0.5t-94 -1t-182 -2t-298.5 -3.5l-99 -45q-8 -4 -6 -12.5t11 -8.5q155 2 261.5 4.5t175.5 5.5t106.5 6.5t54.5 6t20 4l3 1.5l4 -20z" />
    <glyph glyph-name="Atilde" unicode="&#xc3;" horiz-adv-x="385" 
d="M362 716l-14 16l-94 -44q-31 -51 -45.5 -102t-14.5 -111q0 -11 0.5 -23t1.5 -24q0 -6 5 -8.5t10 -0.5l92 42q6 3 6 11q-2 14 -2 25v25q0 54 13 100t42 94zM191 716l-14 16l-94 -44q-30 -51 -45 -102t-15 -111q0 -11 0.5 -23t1.5 -24q0 -6 5 -9t11 0l92 42q6 3 6 11
q-2 14 -2 25v25q0 54 12.5 100t41.5 94z" />
    <glyph glyph-name="Adieresis" unicode="&#xc4;" horiz-adv-x="587" 
d="M563 569l-1 13q-1 5 -5 8t-10 1q-11 -3 -20.5 -9.5t-19.5 -12.5q-7 -5 -15 -9.5t-16 -9.5l-33 18q-22 10 -43 14q48 6 80 46q5 5 2 11t-10 7q-5 1 -13 1.5t-11 3.5q-5 4 -10.5 1.5t-6.5 -8.5q-2 -14 -7.5 -22.5t-17.5 -8.5q-26 0 -43 23t-17 53q0 15 2.5 17.5t11.5 2.5h8
h17q14 0 29 0.5t26 0.5h12l25 3q10 2 10 10l2 3q0 11 -11 11q-10 0 -14 -1q-2 -1 -1 -1t-1 0q-11 23 -30 34t-43 11q-46 0 -69.5 -30t-23.5 -79q0 -32 13.5 -53.5t36.5 -29.5h-15q-68 0 -124 -21.5t-97 -63.5t-63.5 -103.5t-22.5 -141.5q0 -56 14 -103t41.5 -81t67.5 -53.5
t92 -19.5q44 0 80 10q6 2 8 8q1 -3 6.5 -2.5t10.5 2.5h-1q4 1 6.5 2t1.5 1q14 5 23.5 11.5t19.5 12.5q8 4 12 8q-1 -8 -1 -17t-1 -17v1q-2 -9 -0.5 -19t15.5 -6q20 5 42 7.5t43 1.5l50 -1q8 0 9 9.5t-7 11.5q-15 2 -24 26.5t-13.5 60t-6 76.5t-1.5 76v139q1 7 1.5 16t0.5 17
q1 26 3 53.5t10 45.5q2 7 6.5 10t9.5 6h-1q12 4 18 9q2 1 3 4t1 5zM407 734q-8 0 -15.5 -0.5t-15.5 -0.5h-20q3 9 12 14t17 5q19 0 22 -18zM413 285q0 -40 -3 -80.5t-13 -73.5t-29 -53.5t-51 -20.5q-40 0 -71 21t-52.5 54.5t-33 75.5t-11.5 84q0 40 6.5 85.5t22.5 83.5
t44 63.5t70 25.5q66 0 92.5 -38t26.5 -112v-22q0 -11 1 -24q0 -16 0.5 -33.5t0.5 -35.5z" />
    <glyph glyph-name="Otilde" unicode="&#xd5;" horiz-adv-x="399" 
d="M374 612q0 15 -2 31t-8 32q-3 8 -5 12l-4 8q-6 9 -14 5l-89 -41q-9 -5 -4 -15q2 -2 2.5 -5t2.5 -7v-1q11 -30 11 -52q0 -44 -20 -86.5t-46 -73.5q-5 -7 -0.5 -14t12.5 -3l101 47q26 30 44.5 73t18.5 90zM204 612q0 15 -2.5 31t-8.5 32q-3 8 -5 12l-4 8q-4 9 -14 5
l-88 -41q-11 -5 -4 -15q2 -2 2.5 -5t2.5 -7v-1q5 -14 7.5 -27.5t2.5 -24.5q0 -44 -20 -86.5t-46 -73.5q-5 -7 -0.5 -14t12.5 -3l102 47q26 30 44.5 73t18.5 90z" />
    <glyph glyph-name="Odieresis" unicode="&#xd6;" horiz-adv-x="596" 
d="M573 303q0 109 -36 179.5t-109 99.5q46 8 77 46q5 5 2 11t-9 7l-12.5 2.5t-12.5 3.5q-5 3 -10.5 0.5t-6.5 -8.5q-2 -14 -7.5 -22.5t-16.5 -8.5q-27 0 -43.5 23t-16.5 53q0 16 3 18t11 2h7h18t28.5 0.5t25.5 0.5h12l27 3q3 1 6 3.5t3 6.5l2 3q0 11 -10 11h-8t-8 -1
q-2 -1 -1 -1t-1 0q-11 23 -30 34t-43 11q-45 0 -69 -30t-24 -79q0 -25 8.5 -43t22.5 -29q-8 1 -17 1.5t-19 0.5q-65 0 -118.5 -20.5t-92.5 -60.5t-60.5 -98.5t-21.5 -134.5q0 -48 13 -99t38.5 -93t63.5 -69t89 -27q66 0 128.5 14.5t110.5 49t77.5 93t29.5 147.5zM433 734
q-8 0 -16 -0.5t-15 -0.5h-21q3 9 12 14t17 5t14.5 -4t8.5 -14zM449 242q0 -33 -4 -67.5t-15.5 -62.5t-33 -46t-56.5 -18q-46 0 -82 25.5t-61.5 65t-39 89t-13.5 97.5q0 39 5.5 81t21 77t42 57.5t68.5 22.5q49 0 81 -33t51.5 -82t27.5 -104.5t8 -101.5z" />
    <glyph glyph-name="Udieresis" unicode="&#xdc;" horiz-adv-x="656" 
d="M620 31q-26 5 -32 29t-6 51q0 60 3.5 118t8.5 116q4 59 7.5 117.5t3.5 117.5q0 8 -9 10q-14 3 -27.5 1.5t-27.5 -2.5q-18 -3 -36 -3h-6t-11 1q-9 1 -18.5 1.5t-19.5 0.5q28 10 52 39q4 5 1.5 11t-8.5 7t-13.5 1.5t-12.5 4.5q-5 3 -10.5 0.5t-6.5 -8.5q-2 -14 -7 -22.5
t-16 -8.5q-27 0 -43.5 23t-16.5 53q0 15 2.5 17.5t10.5 2.5h7h19t28.5 0.5t25.5 0.5h12l30 4l5 4q5 5 2.5 12t-10.5 7h-7q-4 0 -7 -1q-2 -1 -4 -1q-11 23 -30 34t-43 11q-45 0 -68.5 -30t-23.5 -79q0 -45 26 -67.5t62 -22.5h5q-2 -7 1 -10q5 -7 10.5 -13t11.5 -13
q17 -20 31 -43t14 -52v-31q0 -16 1 -30q1 -17 1 -34v-34q0 -46 -5 -89.5t-21.5 -78t-48 -55.5t-84.5 -21q-38 0 -71 17t-57 46t-38 67.5t-14 81.5q0 54 5.5 92t19.5 68.5t37.5 58t59.5 61.5q3 3 3 8l-1 3q0 12 -12 10q-23 -2 -46 -3t-46 -1q-31 0 -62 1.5t-62 3.5l-9 -4
q-7 -3 -6.5 -10t6.5 -10l6 -3q21 -11 36.5 -27.5t15.5 -45.5q0 -26 -7.5 -55.5t-16.5 -58.5q-12 -36 -22.5 -77.5t-10.5 -80.5q0 -45 13.5 -85t38 -69.5t58.5 -47t75 -17.5q30 0 64 8.5t67.5 22.5t65.5 32t59 36q0 -5 -0.5 -4.5t-0.5 -7.5q-1 -12 -1.5 -24.5t-0.5 -23.5v-19
t1 -11q2 -7 10 -7q14 0 26.5 1.5t24.5 3.5q11 2 23.5 3.5t22.5 1.5h9t9 -1q6 -1 12 -1.5t13 0.5q8 1 8.5 10t-7.5 11zM429 734h-29q-6 0 -11 -0.5t-11 -0.5q3 9 12 14t17 5t14.5 -4t7.5 -14z" />
    <glyph glyph-name="adieresis" unicode="&#xe4;" horiz-adv-x="587" 
d="M563 569l-1 13q-1 5 -5 8t-10 1q-11 -3 -20.5 -9.5t-19.5 -12.5q-7 -5 -15 -9.5t-16 -9.5l-33 18q-22 10 -43 14q48 6 80 46q5 5 2 11t-10 7q-5 1 -13 1.5t-11 3.5q-5 4 -10.5 1.5t-6.5 -8.5q-2 -14 -7.5 -22.5t-17.5 -8.5q-26 0 -43 23t-17 53q0 15 2.5 17.5t11.5 2.5h8
h17q14 0 29 0.5t26 0.5h12l25 3q10 2 10 10l2 3q0 11 -11 11q-10 0 -14 -1q-2 -1 -1 -1t-1 0q-11 23 -30 34t-43 11q-46 0 -69.5 -30t-23.5 -79q0 -32 13.5 -53.5t36.5 -29.5h-15q-68 0 -124 -21.5t-97 -63.5t-63.5 -103.5t-22.5 -141.5q0 -56 14 -103t41.5 -81t67.5 -53.5
t92 -19.5q44 0 80 10q6 2 8 8q1 -3 6.5 -2.5t10.5 2.5h-1q4 1 6.5 2t1.5 1q14 5 23.5 11.5t19.5 12.5q8 4 12 8q-1 -8 -1 -17t-1 -17v1q-2 -9 -0.5 -19t15.5 -6q20 5 42 7.5t43 1.5l50 -1q8 0 9 9.5t-7 11.5q-15 2 -24 26.5t-13.5 60t-6 76.5t-1.5 76v139q1 7 1.5 16t0.5 17
q1 26 3 53.5t10 45.5q2 7 6.5 10t9.5 6h-1q12 4 18 9q2 1 3 4t1 5zM407 734q-8 0 -15.5 -0.5t-15.5 -0.5h-20q3 9 12 14t17 5q19 0 22 -18zM413 285q0 -40 -3 -80.5t-13 -73.5t-29 -53.5t-51 -20.5q-40 0 -71 21t-52.5 54.5t-33 75.5t-11.5 84q0 40 6.5 85.5t22.5 83.5
t44 63.5t70 25.5q66 0 92.5 -38t26.5 -112v-22q0 -11 1 -24q0 -16 0.5 -33.5t0.5 -35.5z" />
    <glyph glyph-name="odieresis" unicode="&#xf6;" horiz-adv-x="596" 
d="M573 303q0 109 -36 179.5t-109 99.5q46 8 77 46q5 5 2 11t-9 7l-12.5 2.5t-12.5 3.5q-5 3 -10.5 0.5t-6.5 -8.5q-2 -14 -7.5 -22.5t-16.5 -8.5q-27 0 -43.5 23t-16.5 53q0 16 3 18t11 2h7h18t28.5 0.5t25.5 0.5h12l27 3q3 1 6 3.5t3 6.5l2 3q0 11 -10 11h-8t-8 -1
q-2 -1 -1 -1t-1 0q-11 23 -30 34t-43 11q-45 0 -69 -30t-24 -79q0 -25 8.5 -43t22.5 -29q-8 1 -17 1.5t-19 0.5q-65 0 -118.5 -20.5t-92.5 -60.5t-60.5 -98.5t-21.5 -134.5q0 -48 13 -99t38.5 -93t63.5 -69t89 -27q66 0 128.5 14.5t110.5 49t77.5 93t29.5 147.5zM433 734
q-8 0 -16 -0.5t-15 -0.5h-21q3 9 12 14t17 5t14.5 -4t8.5 -14zM449 242q0 -33 -4 -67.5t-15.5 -62.5t-33 -46t-56.5 -18q-46 0 -82 25.5t-61.5 65t-39 89t-13.5 97.5q0 39 5.5 81t21 77t42 57.5t68.5 22.5q49 0 81 -33t51.5 -82t27.5 -104.5t8 -101.5z" />
    <glyph glyph-name="udieresis" unicode="&#xfc;" horiz-adv-x="656" 
d="M620 6q-26 5 -32 29t-6 51q0 60 3.5 118t8.5 116q4 59 7.5 117.5t3.5 117.5q0 8 -9 10q-14 3 -27.5 1.5t-27.5 -2.5q-18 -3 -36 -3h-6t-11 1q-9 1 -18.5 1.5t-19.5 0.5q28 10 52 39q4 5 1.5 11t-8.5 7t-13.5 1.5t-12.5 4.5q-5 3 -10.5 0.5t-6.5 -8.5q-2 -14 -7 -22.5
t-16 -8.5q-27 0 -43.5 23t-16.5 53q0 15 2.5 17.5t10.5 2.5h7h19t28.5 0.5t25.5 0.5h12l30 4l5 4q5 5 2.5 12t-10.5 7h-7q-4 0 -7 -1q-2 -1 -4 -1q-11 23 -30 34t-43 11q-45 0 -68.5 -30t-23.5 -79q0 -45 26 -67.5t62 -22.5h5q-2 -7 1 -10q5 -7 10.5 -13t11.5 -13
q17 -20 31 -43t14 -52v-31q0 -16 1 -30q1 -17 1 -34v-34q0 -46 -5 -89.5t-21.5 -78t-48 -55.5t-84.5 -21q-38 0 -71 17t-57 46t-38 67.5t-14 81.5q0 54 5.5 92t19.5 68.5t37.5 58t59.5 61.5q3 3 3 8l-1 3q0 12 -12 10q-23 -2 -46 -3t-46 -1q-31 0 -62 1.5t-62 3.5l-9 -4
q-7 -3 -6.5 -10t6.5 -10l6 -3q21 -11 36.5 -27.5t15.5 -45.5q0 -26 -7.5 -55.5t-16.5 -58.5q-12 -36 -22.5 -77.5t-10.5 -80.5q0 -45 13.5 -85t38 -69.5t58.5 -47t75 -17.5q30 0 64 8.5t67.5 22.5t65.5 32t59 36q0 -5 -0.5 -4.5t-0.5 -7.5q-1 -12 -1.5 -24.5t-0.5 -23.5v-19
t1 -11q2 -7 10 -7q14 0 26.5 1.5t24.5 3.5q11 2 23.5 3.5t22.5 1.5h9t9 -1q6 -1 12 -1.5t13 0.5q8 1 8.5 10t-7.5 11zM429 709h-29q-6 0 -11 -0.5t-11 -0.5q3 9 12 14t17 5t14.5 -4t7.5 -14z" />
    <glyph glyph-name="OE" unicode="&#x152;" horiz-adv-x="279" 
d="M257 706l-9 18l-109 -49q-28 -20 -49.5 -50t-36.5 -66t-23 -76t-8 -80v-17q0 -8 1 -16q1 -5 5.5 -7.5t9.5 -0.5l96 44q6 3 6 11q-1 10 -1.5 18.5t-0.5 18.5q0 36 7 71.5t21.5 68.5t37 61.5t53.5 50.5z" />
    <glyph glyph-name="oe" unicode="&#x153;" horiz-adv-x="235" 
d="M211 617q0 16 -8 37v1q-5 16 -14.5 29.5t-22.5 27.5q-4 5 -12 2l-90 -42q-5 -3 -6 -8t4 -10q27 -27 34 -47q2 -7 2.5 -13.5t0.5 -13.5q0 -25 -11.5 -51.5t-28.5 -54.5q-9 -17 -18 -35t-17 -39q-2 -7 3 -11.5t12 -1.5l97 44q4 2 4 6q5 12 13.5 29.5t17.5 33.5
q15 29 27.5 58t12.5 59z" />
    <glyph glyph-name="quotedblbase" unicode="&#x201e;" horiz-adv-x="356" 
d="M332 65q0 10 -0.5 22.5t-0.5 22.5q-1 8 -1 17v18q0 14 0.5 26t1.5 26l-15 10l-91 -40q-2 -1 -3.5 -4.5t-1.5 -5.5q-1 -18 -1 -36v-37v-35q0 -36 -4 -72t-20 -70q-2 -8 2.5 -12.5t12.5 -2.5l99 45q13 33 17.5 64.5t4.5 63.5zM162 65q0 10 -0.5 22.5t-0.5 22.5q-1 8 -1 17
v18q0 14 0.5 26t1.5 26l-16 10l-90 -40q-2 -1 -4 -4.5t-2 -5.5q-1 -18 -1 -36v-37v-35q0 -36 -4.5 -72t-18.5 -70q-4 -8 1.5 -12.5t12.5 -2.5l99 45q14 33 18.5 64.5t4.5 63.5z" />
    <glyph glyph-name="dagger" unicode="&#x2020;" horiz-adv-x="472" 
d="M440 424q4 2 4.5 6t-1.5 7.5t-5.5 5.5t-7.5 0h-132v226q0 7 -5 10t-10 0l-91 -41q-5 -2 -5 -10v-185h-55l-98 -45q-8 -4 -5.5 -12.5t10.5 -8.5h148v-249v-147v-74v-25v-3l-1 -8q0 -7 4.5 -10t10.5 0q23 12 46 23.5t46 23.5l-14 9l2 4l1.5 5.5t4.5 29t5 71.5t4 134t2 216
q27 0 37.5 2.5t10.5 5.5v3z" />
    <glyph glyph-name="bullet" unicode="&#x2022;" horiz-adv-x="353" 
d="M322 404q-10 18 -22 28t-23 20q-11 7 -14.5 10t-6.5 5q-4 4 -10 2l-68 -31q-13 -7 -3 -17q16 -16 28 -29.5t23 -33.5q5 -9 15 -5l77 36q10 5 4 15zM174 404q-11 18 -22.5 28.5t-23.5 19.5q-10 8 -13.5 10.5t-6.5 4.5q-6 4 -11 2l-68 -31q-13 -7 -3 -17q17 -16 28.5 -29.5
t22.5 -33.5q5 -9 14 -5l79 36q10 5 4 15zM327 212q0 4 -3 12q-5 14 -17 25.5t-24 21.5q-5 4 -12 10.5t-11 10.5q-5 5 -12 2l-68 -32q-13 -7 -2 -18q17 -15 30.5 -29t20.5 -29q0 -3 2 -9q0 -6 5 -9t11 0l74 35q6 2 6 9zM179 212q0 1 -0.5 1.5t-0.5 1.5q0 6 -0.5 7t-2.5 3v-2
q-5 17 -17 28.5t-26 21.5q-5 5 -10.5 9.5t-10.5 9.5q-6 6 -13 2l-67 -32q-13 -7 -2 -18q17 -16 31 -30.5t22 -33.5h-1v1q0 -1 0.5 -2t0.5 -2q0 -6 5 -9t10 0l76 35q6 2 6 9z" />
    <glyph glyph-name="ellipsis" unicode="&#x2026;" horiz-adv-x="875" 
d="M842 44q8 5 3.5 14t-12.5 5l-2 4t-18 23.5t-53 59.5q-6 6 -13 3l-90 -42q-5 -2 -6.5 -6.5t3.5 -9.5q38 -41 57 -59t23.5 -19.5l4.5 -1.5q-3 -3 -2.5 -7t2.5 -7t5.5 -4.5t7.5 0.5zM507 46l-1 6l-66 79q-6 6 -13 3l-90 -42q-5 -2 -6 -7t3 -9l66 -78q5 -5 11 -3.5t8 7.5
l81 34q7 2 7 10zM205 44q8 3 4 12.5t-12 6.5l-1.5 3t-15.5 20t-46 53q-2 2 -5.5 3t-6.5 0l-90 -42q-5 -2 -6.5 -7t3.5 -10q30 -34 47 -48.5t22.5 -16.5l5.5 -2l8 -19z" />
    </font>
</defs>
</svg>
