<?xml version="1.0" standalone="no"?>
<!DOCTYPE svg PUBLIC "-//W3C//DTD SVG 1.1//EN" "http://www.w3.org/Graphics/SVG/1.1/DTD/svg11.dtd" >
<svg xmlns="http://www.w3.org/2000/svg" xmlns:xlink="http://www.w3.org/1999/xlink" version="1.1">
<metadata>
Created by FontForge 20170731 at Mon Apr 29 21:49:37 2013
 By Aleksey,,,
Copyright 2013 Adobe Systems Incorporated. All rights reserved.
</metadata>
<defs>
<font id="Quarca-ConBolIt" horiz-adv-x="421" >
  <font-face 
    font-family="Quarca Cond Bold Italic"
    font-weight="700"
    font-style="italic"
    font-stretch="condensed"
    units-per-em="1000"
    panose-1="0 0 0 0 0 0 0 0 0 0"
    ascent="760"
    descent="-240"
    x-height="505"
    cap-height="710"
    bbox="-94 -254 893.6 973"
    underline-thickness="50"
    underline-position="-200"
    unicode-range="U+0020-FB06"
  />
<missing-glyph horiz-adv-x="400" 
 />
    <glyph glyph-name="ff" unicode="ff" horiz-adv-x="536" 
d="M570 625q-29 0 -38 -46l-16 -74h90l-42 -115h-73l-82 -390h-115l82 390h-135l-82 -390h-115l82 390h-76l41 115h60l11 51q16 76 56 109.5t124 33.5h74l-51 -115h-53q-30 0 -39 -46l-7 -33h135l19 92q16 76 57 109.5t124 33.5h74l-52 -115h-53z" />
    <glyph glyph-name="fi" unicode="fi" horiz-adv-x="482" 
d="M376 390h-135l-82 -390h-115l82 390h-76l41 115h60l19 92q16 76 56.5 109.5t124.5 33.5h74l-52 -115h-53q-29 0 -38 -46l-16 -74h250l-107 -505h-115zM413 591l29 138h129l-29 -138h-129z" />
    <glyph glyph-name="fl" unicode="fl" horiz-adv-x="504" 
d="M336 192l42 198h-137l-82 -390h-115l82 390h-76l41 115h60l19 92q16 76 56.5 109.5t124.5 33.5h74l-52 -115h-53q-29 0 -38 -46l-16 -74h137l44 210l103 25h18l-117 -548h-1l-8 -39q-9 -43 23 -43h12l-16 -116h-55q-111 0 -85 123l16 75h-1z" />
    <glyph glyph-name="ffi" unicode="ffi" horiz-adv-x="731" 
d="M217 273l-58 -273h-115l82 390h-76l41 115h60l13 60q15 71 52.5 102.5t116.5 31.5h126q41 51 136 51h196l-51 -115h-168q-28 0 -37 -46l-18 -84h248l-107 -505h-114l82 390h-134l-42 -200h-1l-40 -190h-115l58 273h1l24 117h-137l-24 -117h1zM311 584q-30 0 -39 -46
l-7 -33h137l17 79h-108z" />
    <glyph glyph-name="ffl" unicode="ffl" horiz-adv-x="727" 
d="M217 273l-58 -273h-115l82 390h-76l41 115h60l13 60q15 71 52.5 102.5t116.5 31.5h126q41 51 136 51h196l-51 -115h-168q-28 0 -37 -46l-18 -84h248l-107 -505h-114l82 390h-134l-42 -200h-1l-40 -190h-115l58 273h1l24 117h-137l-24 -117h1zM311 584q-30 0 -39 -46
l-7 -33h137l17 79h-108z" />
    <glyph glyph-name="f_f_j" unicode="ffj" horiz-adv-x="731" 
d="M217 273l-58 -273h-115l82 390h-76l41 115h60l13 60q15 71 52.5 102.5t116.5 31.5h126q41 51 136 51h196l-51 -115h-168q-28 0 -37 -46l-18 -84h248l-107 -505h-114l82 390h-134l-42 -200h-1l-40 -190h-115l58 273h1l24 117h-137l-24 -117h1zM311 584q-30 0 -39 -46
l-7 -33h137l17 79h-108z" />
    <glyph glyph-name="f_j" unicode="fj" horiz-adv-x="482" 
d="M376 390h-135l-82 -390h-115l82 390h-76l41 115h60l19 92q16 76 56.5 109.5t124.5 33.5h74l-52 -115h-53q-29 0 -38 -46l-16 -74h250l-36 -170h2l-90 -422q-26 -123 -136 -123h-82l41 115h31q29 0 39 44l11 51h-2zM413 589l29 138h129l-29 -138h-129z" />
    <glyph glyph-name=".notdef" horiz-adv-x="400" 
 />
    <glyph glyph-name=".null" horiz-adv-x="0" 
 />
    <glyph glyph-name="nonmarkingreturn" horiz-adv-x="333" 
 />
    <glyph glyph-name="NULL" horiz-adv-x="666" 
 />
    <glyph glyph-name="NULL" horiz-adv-x="666" 
 />
    <glyph glyph-name="space" unicode=" " horiz-adv-x="140" 
 />
    <glyph glyph-name="exclam" unicode="!" horiz-adv-x="228" 
d="M167 206h-98l90 539l138 25h16zM14 -5l30 138h129l-30 -138h-129z" />
    <glyph glyph-name="quotedbl" unicode="&#x22;" horiz-adv-x="353" 
d="M132 720h155l-105 -238h-59zM304 720h155l-105 -238h-59z" />
    <glyph glyph-name="numbersign" unicode="#" horiz-adv-x="630" 
d="M-1 0l91 167h-73l42 116h103l59 116h-107l42 115h138l109 196h109l-108 -196h92l108 196h111l-109 -196h78l-42 -115h-109l-58 -116h112l-42 -116h-143l-91 -167h-111l92 167h-92l-91 -167h-110zM332 399l-60 -116h93l58 116h-91z" />
    <glyph glyph-name="dollar" unicode="$" horiz-adv-x="451" 
d="M220 -72l-103 -28l22 100h-15q-138 0 -109 125l20 95h123l-10 -50q-10 -46 19 -46h97q29 0 39 46l7 34q8 39 -20 60l-106 69q-32 21 -41.5 28t-26 22.5t-18.5 27.5t-2.5 31.5t5.5 47.5l20 95q26 125 127 125h41l16 72l102 25l-21 -97h11q140 0 108 -125l-18 -84h-122
l8 39q10 46 -19 46h-81q-29 0 -39 -47l-5 -23q-9 -46 19 -65l106 -70q9 -6 26.5 -17.5t23.5 -16t17 -14t14 -15.5t7 -17t3.5 -22.5t-3.5 -27.5l-27 -126q-24 -125 -126 -125h-53z" />
    <glyph glyph-name="percent" unicode="%" horiz-adv-x="614" 
d="M102 0l403 710h85l-404 -710h-84zM117 627q17 83 88 83h90q72 0 55 -83l-37 -173q-18 -84 -90 -84h-90q-71 0 -53 84zM256 632h-43q-11 0 -17 -7t-10 -23l-26 -124q-6 -30 14 -30h43q19 0 25 30l26 124q8 30 -12 30zM379 256q18 83 89 83h91q72 0 54 -83l-37 -173
q-18 -84 -90 -84h-91q-71 0 -53 84zM519 261h-44q-20 0 -26 -30l-27 -124q-6 -30 14 -30h44q18 0 24 30l27 124q6 30 -12 30z" />
    <glyph glyph-name="ampersand" unicode="&#x26;" horiz-adv-x="545" 
d="M381 586h-65q-39 0 -50 -56l-13 -61q-11 -52 23 -52h311l-26 -124h-68l-34 -158q-29 -135 -153 -135h-181q-126 0 -97 135l26 122q8 35 31.5 65t56.5 33q-15 5 -19.5 32.5t1.5 46.5l30 141q28 135 153 135h107q80 0 111 -30t15 -105l-16 -74h-123l6 29q12 56 -26 56z
M186 124h112q36 0 49 56l24 113h-115q-37 0 -57 -11t-26 -42l-13 -60q-12 -56 26 -56z" />
    <glyph glyph-name="quotesingle" unicode="'" horiz-adv-x="180" 
d="M132 720h155l-105 -238h-59z" />
    <glyph glyph-name="parenleft" unicode="(" horiz-adv-x="240" 
d="M303 625h-15q-30 0 -39 -46l-122 -570q-9 -46 21 -46h24l-34 -115h-23q-72 0 -98 27.5t-11 97.5l136 642q15 71 53.5 98t112.5 27h28z" />
    <glyph glyph-name="parenright" unicode=")" horiz-adv-x="240" 
d="M146 625h-15l16 115h28q74 0 101 -27t12 -98l-136 -642q-15 -70 -53 -97.5t-109 -27.5h-25l17 115h24q29 0 38 46l122 570q9 46 -20 46z" />
    <glyph glyph-name="asterisk" unicode="*" horiz-adv-x="299" 
d="M230 720h73l-18 -81l52 42l40 -56l-78 -57l51 -53l-60 -59l-35 40l-17 -81h-73l18 84l-53 -41l-33 56l70 53l-54 57l64 56l35 -41z" />
    <glyph glyph-name="plus" unicode="+" horiz-adv-x="414" 
d="M30 234l44 124h112l31 147h123l-31 -147h128l-43 -124h-112l-32 -151h-123l32 151h-129z" />
    <glyph glyph-name="comma" unicode="," horiz-adv-x="188" 
d="M-23 -151h-15l61 284h127l-28 -130z" />
    <glyph glyph-name="hyphen" unicode="-" horiz-adv-x="370" 
d="M378 349l-42 -115h-291l42 115h291z" />
    <glyph glyph-name="period" unicode="." horiz-adv-x="194" 
d="M-5 -5l30 138h129l-30 -138h-129z" />
    <glyph glyph-name="slash" unicode="/" horiz-adv-x="384" 
d="M370 749h125l-402 -788h-125z" />
    <glyph glyph-name="zero" unicode="0" horiz-adv-x="511" 
d="M40 144l14 67h1l76 355q30 144 147 144h149q78 0 107.5 -35.5t14.5 -108.5l-90 -422q-30 -144 -147 -144h-150q-152 0 -122 144zM393 586h-99q-36 0 -48 -56l-74 -350q-13 -56 25 -56h98q36 0 49 56l74 350q11 56 -25 56z" />
    <glyph glyph-name="one" unicode="1" horiz-adv-x="258" 
d="M45 0l108 512h1l12 54l-80 -46l29 134l97 56h106l-150 -710h-123z" />
    <glyph glyph-name="two" unicode="2" horiz-adv-x="443" 
d="M346 586h-67q-33 -3 -45 -56l-6 -29h-124l14 65q30 144 147 144h115q153 0 123 -144l-16 -74h-2l-6 -29q-13 -57 -48 -91t-107 -71l-132 -69q-36 -19 -45 -65l-9 -43h117q35 0 48 56l8 40h124l-16 -76q-30 -144 -148 -144h-282l41 194q12 57 47 92t107 72l133 69
q36 19 45 63l9 46h1q10 50 -26 50z" />
    <glyph glyph-name="three" unicode="3" horiz-adv-x="467" 
d="M174 124h87q37 0 50 56l2 11h-1l11 50q11 53 -21 53h-128l26 124h103q34 0 44 52l13 60q12 53 -22 56h-51q-37 0 -49 -56l-6 -29h-123l14 65q30 144 148 144h107q146 0 116 -135l-19 -83h-1l-12 -57q-15 -68 -52 -79q58 -6 40 -89l-10 -47h1l-16 -76q-30 -144 -147 -144
h-139q-153 0 -123 144l14 67h124l-6 -31q-13 -56 26 -56z" />
    <glyph glyph-name="four" unicode="4" horiz-adv-x="467" 
d="M3 110l41 195q13 63 54 107l271 298h149l-309 -342q-37 -41 -45 -81l-12 -53h127l40 186l102 25h26l-45 -211h75l-42 -124h-59l-23 -110h-123l23 110h-250z" />
    <glyph glyph-name="five" unicode="5" horiz-adv-x="439" 
d="M172 124h70q36 0 49 56l21 98q11 56 -21 56h-217l80 376h367l-43 -124h-228l-27 -128h133q116 0 88 -135l-22 -103h1l-16 -76q-30 -144 -147 -144h-140q-134 0 -104 144l16 75h123l-8 -39q-13 -56 25 -56z" />
    <glyph glyph-name="six" unicode="6" horiz-adv-x="482" 
d="M477 313l-38 -179q-29 -134 -146 -134h-158q-126 0 -97 134l94 441q28 135 153 135h134q73 0 100.5 -32.5t13.5 -102.5l-16 -74h-124l6 29q11 56 -25 56h-80q-37 0 -49 -55l-19 -93h160q61 0 83 -30.5t8 -94.5zM322 314h-123l-28 -135q-12 -55 25 -55h81q35 0 48 55
l17 80q12 55 -20 55z" />
    <glyph glyph-name="seven" unicode="7" horiz-adv-x="401" 
d="M108 586l26 124h372l-37 -176q-12 -59 -43 -100l-309 -434h-147l346 477q26 35 37 84l5 25h-250z" />
    <glyph glyph-name="eight" unicode="8" horiz-adv-x="498" 
d="M139 463l13 61h1l9 42q30 144 147 144h99q78 0 107.5 -35.5t14.5 -108.5l-22 -103q-10 -46 -21 -66t-37 -31q31 -14 39 -37t-2 -79l-7 -30h1l-16 -76q-30 -144 -147 -144h-149q-152 0 -122 144l23 106q11 54 29 78t55 38q-21 11 -23 34t8 63zM343 304h-107q-32 0 -43 -53
l-9 -40h1l-6 -31q-13 -56 25 -56h97q35 0 48 56l15 71q11 53 -21 53zM374 586h-48q-37 0 -49 -56l-6 -29h-1l-4 -21q-12 -52 20 -52h59q31 0 43 52l10 50q11 56 -24 56z" />
    <glyph glyph-name="nine" unicode="9" horiz-adv-x="476" 
d="M312 201l16 72h-169q-101 0 -74 126l32 148h1l4 19q30 144 147 144h124q153 0 123 -144l-16 -74h-2l-58 -272h1l-16 -76q-30 -144 -147 -144h-125q-152 0 -122 144l14 67h124l-6 -31q-11 -54 22 -56h76q36 0 49 56l4 21h-2zM359 586h-73q-37 0 -49 -56l-6 -29h-1l-10 -48
q-12 -55 20 -55h114l24 113h2l4 19q11 56 -25 56z" />
    <glyph glyph-name="colon" unicode=":" horiz-adv-x="199" 
d="M-2 -5l30 138h129l-30 -138h-129zM70 345l29 138h129l-29 -138h-129z" />
    <glyph glyph-name="semicolon" unicode=";" horiz-adv-x="202" 
d="M-17 -151h-16l62 284h127l-28 -130zM71 330l29 138h129l-29 -138h-129z" />
    <glyph glyph-name="less" unicode="&#x3c;" horiz-adv-x="310" 
d="M237 2l-197 276l11 56l315 276l-26 -125l-190 -179l113 -179z" />
    <glyph glyph-name="equal" unicode="=" horiz-adv-x="376" 
d="M376 243l-41 -112h-329l41 112h329zM420 450l-41 -112h-329l41 112h329z" />
    <glyph glyph-name="greater" unicode="&#x3e;" horiz-adv-x="309" 
d="M317 278l-315 -276l26 125l191 179l-114 179l26 125l197 -276z" />
    <glyph glyph-name="question" unicode="?" 
d="M348 304l-44 -23q-34 -18 -41 -50l-17 -77h-123l25 115q7 34 24.5 58.5t31.5 33.5t38 21l58 29q34 17 42 51l16 77q10 47 -18 47h-82q-29 0 -39 -46l-12 -57h-123l22 102q26 125 143 125h151q116 0 90 -125l-29 -136q-14 -64 -37.5 -91.5t-75.5 -53.5zM86 -5l30 138h129
l-30 -138h-129z" />
    <glyph glyph-name="at" unicode="@" horiz-adv-x="622" 
d="M169 120h361l-41 -120h-346q-135 0 -105 138l91 427q28 137 163 137h283q134 0 106 -137l-61 -287q-22 -99 -118 -99h-51q-46 0 -60.5 10t-9.5 37q-17 -43 -55 -43h-33q-55 0 -75 20.5t-6 86.5l17 80q17 79 40 112t78 33h82q16 0 28 -1.5t26.5 -6.5t20.5 -15t11 -26.5
t-2 -41.5l-27 -126q-3 -12 4 -12h16q6 0 10 21l49 234q9 41 -17 41h-281q-26 0 -35 -41l-80 -380q-9 -41 17 -41zM336 286h20q19 0 24.5 7t10.5 34l10 49q5 22 1.5 29.5t-16.5 7.5h-24q-13 0 -19 -10t-11 -32l-8 -40q-7 -23 -5 -34t17 -11z" />
    <glyph glyph-name="A" unicode="A" horiz-adv-x="488" 
d="M297 710h122l38 -710h-129l-3 121h-184l-53 -121h-128zM319 518l-122 -272h126z" />
    <glyph glyph-name="B" unicode="B" horiz-adv-x="474" 
d="M5 0l150 710h228q151 0 119 -144l-21 -93q-18 -84 -58 -99q38 -1 48.5 -27t-2.5 -85l-25 -118q-30 -144 -146 -144h-293zM194 311l-40 -187h128q35 0 47 56l15 73q13 58 -16 58h-134zM252 586l-32 -150h100q29 0 42 55l8 39q11 56 -22 56h-96z" />
    <glyph glyph-name="C" unicode="C" horiz-adv-x="469" 
d="M188 124h87q36 0 49 56l8 40h124l-16 -76q-30 -144 -147 -144h-140q-152 0 -122 144l14 67h1l76 355q30 144 147 144h139q152 0 122 -144l-16 -74h-124l8 38q11 56 -25 56h-87q-37 0 -49 -56l-74 -350q-13 -56 25 -56z" />
    <glyph glyph-name="D" unicode="D" horiz-adv-x="502" 
d="M129 586l26 124h233q195 0 156 -174l-18 -83l-60 -279q-36 -174 -194 -174h-267l26 124h1l98 462h-1zM355 231l55 260q10 49 -1.5 72t-47.5 23h-108l-98 -462h108q70 0 90 95l3 12h-1z" />
    <glyph glyph-name="E" unicode="E" 
d="M252 586l-48 -228h195l-44 -124h-178l-23 -110h244l-44 -124h-349l150 710h366l-42 -124h-227z" />
    <glyph glyph-name="F" unicode="F" horiz-adv-x="402" 
d="M252 586l-48 -228h188l-44 -124h-171l-49 -234h-123l150 710h358l-43 -124h-218z" />
    <glyph glyph-name="G" unicode="G" horiz-adv-x="486" 
d="M265 259l43 124h191l-53 -248q-26 -135 -136 -135h-165q-74 0 -101.5 33t-13.5 101l94 441q26 135 137 135h164q74 0 101.5 -32.5t13.5 -101.5l-16 -75h-123l6 30q12 55 -26 55h-95q-37 0 -49 -56l-74 -351q-13 -55 25 -55h97q36 0 49 55l17 80h-86z" />
    <glyph glyph-name="H" unicode="H" horiz-adv-x="497" 
d="M128 0h-123l150 710h123l-71 -335h170l71 335h123l-150 -710h-123l53 251h-170z" />
    <glyph glyph-name="I" unicode="I" horiz-adv-x="204" 
d="M128 0h-123l150 710h123z" />
    <glyph glyph-name="J" unicode="J" horiz-adv-x="320" 
d="M16 124h96q36 0 49 55l112 531h123l-118 -558q-17 -77 -55 -114.5t-103 -37.5h-147z" />
    <glyph glyph-name="K" unicode="K" horiz-adv-x="477" 
d="M128 0h-123l150 710h123l-68 -322l249 322h136l-275 -355l136 -355h-139l-121 322z" />
    <glyph glyph-name="L" unicode="L" horiz-adv-x="388" 
d="M278 710l-124 -586h223l-43 -124h-329l150 710h123z" />
    <glyph glyph-name="M" unicode="M" horiz-adv-x="574" 
d="M498 0h-115l88 416l-111 -182h-118l-33 185l-89 -419h-115l150 710h123l53 -333l195 333h123l-1 -3z" />
    <glyph glyph-name="N" unicode="N" horiz-adv-x="508" 
d="M128 0h-123l150 710h123l82 -425l3 -27l96 452h123l-150 -710h-123l-80 405q-5 25 -5 47z" />
    <glyph glyph-name="O" unicode="O" horiz-adv-x="509" 
d="M31 144l14 67h1l76 355q30 144 147 144h165q152 0 122 -144l-90 -422q-30 -144 -147 -144h-166q-152 0 -122 144zM399 586h-113q-37 0 -49 -56l-74 -350q-13 -56 25 -56h113q36 0 49 56l74 350q11 56 -25 56z" />
    <glyph glyph-name="P" unicode="P" horiz-adv-x="464" 
d="M178 237l-50 -237h-123l150 710h241q83 0 115 -37.5t15 -114.5l-37 -169q-31 -152 -159 -152h-152zM252 586l-48 -225h118q37 0 49 55l24 115q12 55 -25 55h-118z" />
    <glyph glyph-name="Q" unicode="Q" horiz-adv-x="508" 
d="M254 -104h-114l23 104h-10q-152 0 -122 144l14 67h1l76 355q30 144 147 144h165q152 0 122 -144l-16 -74h-2l-58 -272h2l-16 -76q-30 -144 -147 -144h-42zM188 124h1l17 79h114l-17 -79q36 2 47 56l4 21h-1l66 310h1l4 19q11 56 -25 56h-113q-37 0 -49 -56l-74 -350
q-13 -56 25 -56z" />
    <glyph glyph-name="R" unicode="R" horiz-adv-x="476" 
d="M5 0l150 710h260q145 0 115 -135l-45 -204q-25 -125 -120 -134l78 -237h-141l-77 236h-47l-50 -236h-123zM252 586l-48 -226h120q37 0 48 56l24 114q12 56 -24 56h-120z" />
    <glyph glyph-name="S" unicode="S" horiz-adv-x="452" 
d="M290 264l-106 69q-32 21 -41.5 28t-26 22.5t-18.5 27.5t-2.5 31.5t5.5 47.5l20 95q26 125 127 125h149q140 0 108 -125l-18 -84h-122l8 39q10 46 -19 46h-81q-29 0 -39 -47l-5 -23q-9 -46 19 -65l106 -70q9 -6 26.5 -17.5t23.5 -16t17 -14t14 -15.5t7 -17t3.5 -22.5
t-3.5 -27.5l-27 -126q-24 -125 -126 -125h-165q-138 0 -109 125l20 95h123l-10 -50q-10 -46 19 -46h97q29 0 39 46l7 34q8 39 -20 60z" />
    <glyph glyph-name="T" unicode="T" horiz-adv-x="416" 
d="M496 586h-138l-124 -586h-124l124 586h-138l26 124h400z" />
    <glyph glyph-name="U" unicode="U" horiz-adv-x="486" 
d="M278 124q36 0 48 57l112 529h124l-122 -574q-28 -136 -137 -136h-158q-143 0 -115 136l122 574h124l-112 -529q-12 -57 25 -57h89z" />
    <glyph glyph-name="V" unicode="V" horiz-adv-x="462" 
d="M256 0h-123l-13 710h132l-14 -484q-1 -15 -8 -61q14 52 18 61l191 484h131z" />
    <glyph glyph-name="W" unicode="W" horiz-adv-x="729" 
d="M255 0h-124l-11 710h125l-15 -480q0 -37 -4 -65q8 28 20 64l174 481h117l-29 -481q-2 -38 -6 -60q12 35 22 59l189 482h124l-310 -710h-126l21 431q1 9 3.5 24t6.5 33.5t5 26.5q-22 -83 -22 -84z" />
    <glyph glyph-name="X" unicode="X" horiz-adv-x="440" 
d="M266 406l155 304h133l-193 -356l43 -354h-127l-29 284l-152 -284h-130l195 354l-47 356h121z" />
    <glyph glyph-name="Y" unicode="Y" horiz-adv-x="477" 
d="M265 0h-122l56 265l-92 445h124l46 -271q5 -41 3 -57q10 29 27 56l159 272h131l-275 -441z" />
    <glyph glyph-name="Z" unicode="Z" horiz-adv-x="429" 
d="M495 595l-335 -471h247l-42 -124h-369l7 114l335 472h-218l8 124h374z" />
    <glyph glyph-name="bracketleft" unicode="[" horiz-adv-x="243" 
d="M127 -11h47l-16 -115h-169l178 837h161l-16 -116h-56z" />
    <glyph glyph-name="backslash" unicode="\" horiz-adv-x="560" 
d="M313 749h125l66 -788h-125z" />
    <glyph glyph-name="bracketright" unicode="]" horiz-adv-x="242" 
d="M167 595h-46l15 116h170l-178 -837h-161l16 115h55z" />
    <glyph glyph-name="asciicircum" unicode="^" horiz-adv-x="431" 
d="M63 390l242 320h50l105 -320h-115l-42 189l-124 -189h-116z" />
    <glyph glyph-name="underscore" unicode="_" horiz-adv-x="535" 
d="M467 0l-42 -115h-453l42 115h453z" />
    <glyph glyph-name="grave" unicode="`" horiz-adv-x="199" 
d="M18 756h117l37 -132h-76z" />
    <glyph glyph-name="a" unicode="a" horiz-adv-x="423" 
d="M457 505l-49 -232h1l-58 -273h-96l1 57q-18 -30 -42 -43.5t-66 -13.5h-43q-109 0 -82 125l52 243q30 143 147 143h42q31 0 46.5 -8.5t24.5 -29.5l7 32h115zM275 192l36 170q3 38 -27 38h-51q-37 0 -48 -55l-38 -179q-13 -55 25 -55h50q34 0 48 49l6 32h-1z" />
    <glyph glyph-name="b" unicode="b" horiz-adv-x="423" 
d="M204 0q-38 0 -56.5 9.5t-23.5 33.5l-9 -43h-114l151 715l102 25h18l-56 -263q37 34 96 34h25q64 0 88.5 -31t11.5 -94l-54 -252q-15 -72 -50.5 -103t-96.5 -31h-32zM189 351l-40 -191q-9 -49 26 -49h51q36 0 49 55l38 178q11 56 -24 56h-52q-35 0 -48 -49z" />
    <glyph glyph-name="c" unicode="c" horiz-adv-x="398" 
d="M285 390h-63q-28 0 -37 -46l-39 -182q-10 -47 19 -47h62q15 0 23.5 9t13.5 32l4 22h106l-9 -45q-28 -133 -120 -133h-114q-137 0 -107 135l51 236q29 135 129 135h123q120 0 91 -126l-11 -53h-107l4 17q9 46 -19 46z" />
    <glyph glyph-name="d" unicode="d" horiz-adv-x="423" 
d="M508 740l-157 -740h-96l1 57q-18 -30 -42 -43.5t-66 -13.5h-43q-109 0 -82 125l52 243q30 143 147 143h42q32 0 47.5 -8.5t24.5 -31.5l51 244l102 25h19zM270 160l41 193q4 47 -27 47h-51q-37 0 -48 -55l-38 -179q-13 -55 25 -55h50q34 0 48 49z" />
    <glyph glyph-name="e" unicode="e" horiz-adv-x="394" 
d="M162 108h55q29 0 36 37l4 18h106l-5 -26q-18 -83 -49.5 -110t-106.5 -27h-44q-88 0 -119.5 28.5t-14.5 106.5l53 243q18 84 52 108.5t109 24.5h37q95 0 124.5 -24.5t10.5 -108.5l-14 -59q-15 -72 -42 -99t-101 -27h-100l-9 -39q-9 -46 18 -46zM289 405h-72q-19 0 -27 -36
l-15 -70h94q18 0 25 31l8 40q8 35 -13 35z" />
    <glyph glyph-name="f" unicode="f" horiz-adv-x="265" 
d="M311 625q-29 0 -38 -46l-16 -74h79l-42 -115h-62l-82 -390h-114l82 390h-68l41 115h52l19 92q16 76 56.5 109.5t124.5 33.5h73l-51 -115h-54z" />
    <glyph glyph-name="g" unicode="g" horiz-adv-x="417" 
d="M194 100h102q109 0 82 -124l-18 -85q-15 -71 -50.5 -97t-104.5 -26h-107q-89 0 -120 25.5t-16 97.5l8 40h-1l9 45q19 87 79 113q0 13 4 30l2 11q7 26 15 36q-38 25 -21 104l25 116q15 69 48.5 96t97.5 27h48q38 0 65 -6l87 79l56 -79l-76 -70q1 -16 -4 -47l-14 -65h-1
l-11 -51q-14 -67 -49.5 -94t-102.5 -29h-22q-13 0 -18.5 -4.5t-8.5 -16.5l-1 -5q-2 -12 1.5 -16.5t16.5 -4.5zM239 -5h-114q-29 0 -41 -53l-3 -15q-12 -55 18 -55h114q30 0 42 55l3 15q12 53 -19 53zM226 409q-30 0 -42 -55l-12 -53q-10 -54 20 -54h42q32 0 42 54l12 53
q12 55 -20 55h-42z" />
    <glyph glyph-name="h" unicode="h" horiz-adv-x="418" 
d="M238 405q-34 0 -47 -45l-76 -360h-114l151 715l102 25h18l-56 -262q30 33 87 33h25q128 0 102 -125l-83 -386h-115l74 350q12 55 -25 55h-43z" />
    <glyph glyph-name="i" unicode="i" horiz-adv-x="214" 
d="M109 390h-54l25 115h169l-107 -505h-115zM143 580l29 138h129l-29 -138h-129z" />
    <glyph glyph-name="j" unicode="j" horiz-adv-x="214" 
d="M109 390h-54l25 115h169l-126 -592q-25 -123 -136 -123h-81l42 115h29q29 0 39 44zM143 580l29 138h129l-29 -138h-129z" />
    <glyph glyph-name="k" unicode="k" horiz-adv-x="405" 
d="M468 505l-194 -257l88 -248h-125l-76 218l-46 -218h-114l151 715l102 25h18l-97 -454l167 219h126z" />
    <glyph glyph-name="l" unicode="l" horiz-adv-x="204" 
d="M167 110h12l-16 -116h-56q-111 0 -85 123l127 598l102 25h19l-125 -587q-9 -43 22 -43z" />
    <glyph glyph-name="m" unicode="m" horiz-adv-x="632" 
d="M1 0l102 480l94 25h17l-9 -40q41 40 105 40h26q68 0 83 -50q45 50 114 50h27q109 0 82 -125l-80 -380h-115l73 344q12 55 -26 55h-35q-33 0 -46 -43l-75 -356h-114l73 344q12 55 -27 55h-35q-28 0 -42 -35l-77 -364h-115z" />
    <glyph glyph-name="n" unicode="n" horiz-adv-x="416" 
d="M0 0l102 480l94 25h17l-9 -40q34 46 98 46h26q127 0 101 -125l-83 -386h-115l74 350q12 55 -25 55h-43q-35 0 -46 -47l-76 -358h-115z" />
    <glyph glyph-name="o" unicode="o" 
d="M205 511h122q136 0 106 -135l-52 -242q-29 -134 -137 -134h-122q-127 0 -98 134l52 242q30 135 129 135zM294 400h-69q-28 0 -38 -46l-42 -197q-10 -46 18 -46h69q29 0 39 46l42 197q10 46 -19 46z" />
    <glyph glyph-name="p" unicode="p" horiz-adv-x="422" 
d="M123 41l-55 -261h-114l148 700l94 25h17l-8 -38q44 44 106 44h25q64 0 88.5 -31t11.5 -94l-54 -252q-15 -72 -50 -103t-96 -31h-33q-37 0 -55.5 9.5t-24.5 31.5zM236 400q-35 0 -47 -49l-40 -191q-10 -49 25 -49h51q36 0 49 55l38 178q11 56 -24 56h-52z" />
    <glyph glyph-name="q" unicode="q" horiz-adv-x="422" 
d="M457 505l-154 -725h-115l54 257q-30 -37 -94 -37h-43q-109 0 -82 125l52 243q30 143 147 143h42q36 0 51.5 -11t24.5 -41l10 46h107zM266 148l43 204l2 3q5 45 -27 45h-51q-37 0 -48 -55l-38 -179q-13 -55 25 -55h50q30 0 44 37z" />
    <glyph glyph-name="r" unicode="r" horiz-adv-x="290" 
d="M337 410l-102 -31q-23 -8 -34.5 -19.5t-17.5 -35.5l-68 -324h-115l102 480l94 25h17l-12 -58q26 38 56 47l89 30h7z" />
    <glyph glyph-name="s" unicode="s" horiz-adv-x="385" 
d="M275 405h-67q-22 0 -29 -35l-2 -9q-4 -16 1.5 -23t21.5 -13l85 -25q61 -18 75 -40.5t1 -84.5l-13 -61q-14 -64 -49.5 -89t-102.5 -25h-81q-77 0 -97 27.5t-4 102.5l6 29h106l-3 -17q-9 -36 12 -36h84q21 0 28 35l2 7q8 37 -23 48l-85 25q-68 20 -78.5 42t5.5 83l9 41
q14 69 45 96.5t108 27.5h67q77 0 96 -28.5t2 -107.5l-6 -31h-106l5 25q8 36 -13 36z" />
    <glyph glyph-name="t" unicode="t" horiz-adv-x="274" 
d="M336 505l-33 -115h-72l-48 -229q-10 -46 19 -46h29l-15 -115h-64q-119 0 -90 134l54 256h-58l33 115h50l14 68l123 72h8l-30 -140h80z" />
    <glyph glyph-name="u" unicode="u" horiz-adv-x="417" 
d="M452 505l-107 -505h-80l-4 42q-39 -42 -102 -42h-42q-119 0 -90 134l79 371h114l-73 -344q-12 -55 26 -55h43q33 0 46 47h1l74 352h115z" />
    <glyph glyph-name="v" unicode="v" horiz-adv-x="398" 
d="M233 0h-139l-17 505h119l-5 -366l151 366h122z" />
    <glyph glyph-name="w" unicode="w" horiz-adv-x="624" 
d="M231 0h-140l-12 505h121l-11 -366l136 366h116l-19 -366l145 366h120l-223 -505h-140l11 263v19l-7 -19z" />
    <glyph glyph-name="x" unicode="x" horiz-adv-x="381" 
d="M217 307l101 198h127l-142 -254l33 -251h-121l-20 182l-95 -182h-126l137 251l-33 254h121z" />
    <glyph glyph-name="y" unicode="y" horiz-adv-x="402" 
d="M43 -110q20 0 33.5 14t31.5 55l17 40h-33l-15 506h120l-1 -343l150 343h124l-264 -569q-25 -54 -47.5 -86.5t-47 -48.5t-46.5 -21t-57 -5h-66l40 115h61z" />
    <glyph glyph-name="z" unicode="z" horiz-adv-x="356" 
d="M382 412l-239 -313h183l-33 -99h-300l7 93l241 313h-156l9 99h296z" />
    <glyph glyph-name="braceleft" unicode="{" horiz-adv-x="257" 
d="M173 -11h15l-16 -115h-28q-84 0 -105 37t1 131l24 112q11 43 6.5 61.5t-35.5 18.5h-14l25 116h28q23 0 32.5 17t17.5 55l35 164q15 70 49.5 97.5t108.5 27.5h25l-16 -116h-24q-19 0 -27.5 -15t-18.5 -64l-33 -156q-11 -55 -66 -69q25 -7 33.5 -25.5t-0.5 -59.5l-30 -142
q-9 -37 -7 -56t20 -19z" />
    <glyph glyph-name="bar" unicode="|" horiz-adv-x="214" 
d="M74 -250h-112l211 1002l104 25h16z" />
    <glyph glyph-name="braceright" unicode="}" horiz-adv-x="258" 
d="M-8 -11h15q18 0 27 17t17 58l30 142q16 71 69 85q-47 14 -36 69l33 156q11 46 9.5 62.5t-20.5 16.5h-24l33 116h26q74 0 96 -27.5t7 -97.5l-35 -164q-5 -24 -6.5 -37.5t4.5 -24t22 -10.5h29l-25 -116h-14q-31 0 -42.5 -16.5t-21.5 -63.5l-24 -112q-20 -97 -54.5 -132.5
t-118.5 -35.5h-27z" />
    <glyph glyph-name="asciitilde" unicode="~" horiz-adv-x="342" 
d="M346 335l-21 -99q-34 40 -65 40q-18 0 -61.5 -29.5t-75.5 -29.5q-41 0 -74 35l21 99q34 -41 64 -41q17 0 60.5 30t76.5 30q40 0 75 -35z" />
    <glyph glyph-name="exclamdown" unicode="&#xa1;" horiz-adv-x="208" 
d="M82 339h115l-115 -538l-103 -25h-16zM86 374l29 138h129l-29 -138h-129z" />
    <glyph glyph-name="cent" unicode="&#xa2;" horiz-adv-x="397" 
d="M365 622l-24 -112q56 -4 76 -31.5t6 -93.5l-9 -44h-107l2 8q9 47 -18 47h-45q-28 0 -41.5 -8.5t-19.5 -38.5l-40 -187q-6 -31 3 -39t38 -8h46q27 0 37 45h107l-8 -35q-14 -66 -45.5 -93.5t-89.5 -31.5l-23 -105h-115l23 105h-14q-109 0 -82 125l55 260q15 68 49.5 95.5
t99.5 29.5l18 87l104 25h17z" />
    <glyph glyph-name="sterling" unicode="&#xa3;" horiz-adv-x="488" 
d="M378 397l-41 -115h-103q-13 -28 -43 -85t-38 -73h306l-44 -124h-413l26 125q42 75 50 90q22 44 31 67h-65l43 115h64q4 14 10 42q5 21 3.5 62.5t2.5 62.5q19 88 58 117t115 29h99q131 -1 103 -135l-16 -72h-123l6 27q12 53 -21 56h-47q-37 0 -47 -49q-3 -14 -3 -43
q-4 -37 -16 -97h103z" />
    <glyph glyph-name="currency" unicode="&#xa4;" horiz-adv-x="455" 
d="M323 33l-34 51l-20 -19q-44 -41 -74 -41q-27 0 -47 31l-19 28l-54 -50l-59 82l59 55l-19 30q-21 31 -13 66q7 38 51 78l21 20l-36 57l94 82l33 -52l21 19q45 42 77 42q28 0 47 -31l18 -29l55 50l58 -82l-59 -54l20 -30q19 -29 11 -64q-8 -40 -51 -80l-22 -22l36 -54z
M239 141l101 102q25 25 12 48l-58 105q-13 21 -37 -3l-102 -102q-23 -25 -10 -47l59 -103q14 -24 35 0z" />
    <glyph glyph-name="yen" unicode="&#xa5;" horiz-adv-x="470" 
d="M263 0h-123l20 98h-91l41 116h75l7 33h-91l40 115h47l-60 348h135l25 -299l145 299h138l-207 -348h68l-41 -115h-76l-7 -33h93l-42 -116h-76z" />
    <glyph glyph-name="brokenbar" unicode="&#xa6;" horiz-adv-x="214" 
d="M74 -250h-113l83 398h115zM293 777l-88 -413h-115l82 388l104 25h17z" />
    <glyph glyph-name="section" unicode="&#xa7;" horiz-adv-x="407" 
d="M408 271l-1 -6h1l-11 -50q-11 -56 -29.5 -87.5t-53.5 -43.5l-15 -5l7 -7q14 -16 -3 -92l-10 -46q-15 -72 -47 -99.5t-105 -27.5h-40q-76 0 -94.5 35.5t2.5 121.5l8 36h101l-7 -32q-14 -60 19 -60h25q20 0 29 12.5t16 45.5l3 13q9 43 -20 55l-81 32q-34 13 -50.5 24
t-23 32.5t-4 47t13.5 75.5l1 7h-1l10 49q12 56 30.5 87.5t51.5 43.5l17 6l-7 7q-3 3 -4.5 6t-2.5 7.5t-1.5 8.5t0 10t1 10t2 11.5t2.5 12t2.5 13t2.5 12.5l10 46q15 73 47 100.5t105 27.5h40q76 0 94.5 -36t-1.5 -121l-8 -37h-101l7 33q13 60 -19 60h-25q-19 0 -28 -12.5
t-16 -45.5l-3 -14q-9 -41 19 -53l81 -33q63 -24 73.5 -56t-9.5 -124zM158 181l33 -14h36q31 -1 47.5 11.5t23.5 46.5l12 56q9 40 -22 54l-33 15h-37q-30 0 -46.5 -12t-23.5 -46l-12 -56q-9 -41 22 -55z" />
    <glyph glyph-name="dieresis" unicode="&#xa8;" horiz-adv-x="667" 
d="M326 765h95l-24 -114h-95zM483 765h94l-24 -114h-94z" />
    <glyph glyph-name="copyright" unicode="&#xa9;" horiz-adv-x="603" 
d="M636 545l-80 -380q-30 -135 -153 -135h-263q-125 0 -95 135l80 380q29 135 153 135h263q123 0 95 -135zM159 118h263q35 0 48 57l76 361q13 56 -24 56h-263q-35 0 -48 -56l-76 -361q-13 -57 24 -57zM380 443h-43q-17 0 -23 -27l-26 -122q-6 -28 11 -28h42q11 0 16.5 5.5
t9.5 21.5h68l-4 -20q-18 -83 -83 -83h-86q-69 0 -52 81l36 167q17 81 86 81h86q65 0 48 -81l-6 -28h-69l1 6q6 27 -12 27z" />
    <glyph glyph-name="ordfeminine" unicode="&#xaa;" horiz-adv-x="250" 
d="M219 429v26q-19 -26 -55 -26h-28q-55 0 -41 68l9 41q14 63 69 63h71l6 26q5 24 -12 24h-31q-17 0 -22 -24l-2 -9h-57l5 23q15 69 69 69h69q62 0 47 -69l-45 -212h-52zM163 487h42q15 0 20 24l7 31h-57q-12 0 -15 -17l-4 -20q-4 -18 7 -18z" />
    <glyph glyph-name="guillemotleft" unicode="&#xab;" horiz-adv-x="455" 
d="M233 69h-133l-66 183l144 183h133l-144 -183zM410 69h-133l-66 183l144 183h133l-144 -183z" />
    <glyph glyph-name="logicalnot" unicode="&#xac;" horiz-adv-x="480" 
d="M335 172l13 62h-303l27 124h411l-40 -186h-108z" />
    <glyph glyph-name="registered" unicode="&#xae;" horiz-adv-x="603" 
d="M636 545l-80 -380q-30 -135 -153 -135h-263q-125 0 -95 135l80 380q29 135 153 135h263q123 0 95 -135zM159 118h263q35 0 48 57l76 361q13 56 -24 56h-263q-35 0 -48 -56l-76 -361q-13 -57 24 -57zM193 190l70 329h154q58 0 46 -62l-21 -96q-10 -49 -48 -60l40 -111h-82
l-37 108h-26l-23 -108h-73zM321 450l-19 -88h50q18 0 23 25l8 40q5 23 -12 23h-50z" />
    <glyph glyph-name="macron" unicode="&#xaf;" horiz-adv-x="302" 
d="M383 751l-39 -106h-213l39 106h213z" />
    <glyph glyph-name="degree" unicode="&#xb0;" horiz-adv-x="260" 
d="M244 775h26q58 0 71.5 -17.5t-0.5 -82.5l-13 -61q-14 -66 -33 -83.5t-79 -17.5h-25q-58 0 -71 17.5t0 83.5l13 61q14 66 33 83t78 17zM233 580q23 0 29 31l15 67q4 20 -3.5 25.5t-30.5 5.5h-15q-23 0 -29 -31l-15 -67q-4 -20 3 -25.5t30 -5.5h16z" />
    <glyph glyph-name="plusminus" unicode="&#xb1;" horiz-adv-x="426" 
d="M52 329l44 124h112l31 147h123l-31 -147h128l-43 -124h-112l-32 -151h-123l32 151h-129zM-8 6l43 124h363l-42 -124h-364z" />
    <glyph glyph-name="twosuperior" unicode="&#xb2;" horiz-adv-x="240" 
d="M237 651h-30q-20 0 -24 -25l-2 -6h-56l6 28q14 62 71 62h62q60 0 46 -62l-3 -14q-9 -42 -47 -65l-79 -51q-24 -14 -28 -30h55q18 0 24 25l1 6h56l-6 -27q-13 -63 -71 -63h-127l12 59q9 43 72 79l60 37q15 10 18 26q5 21 -10 21z" />
    <glyph glyph-name="threesuperior" unicode="&#xb3;" horiz-adv-x="234" 
d="M204 488q15 0 21 29q6 23 -7 23h-42l20 59h22q15 0 20 26q6 26 -11 26h-20q-18 0 -22 -25l-2 -6h-57l6 27q14 63 72 63h52q57 0 44 -64l-8 -38q-7 -32 -25 -39q28 -3 18 -43l-7 -33q-14 -64 -70 -64h-71q-59 0 -45 63l6 27h57l-1 -6q-6 -25 12 -25h38z" />
    <glyph glyph-name="acute" unicode="&#xb4;" horiz-adv-x="415" 
d="M196 579h-93l98 153h132z" />
    <glyph glyph-name="mu" unicode="&#xb5;" horiz-adv-x="415" 
d="M452 505l-107 -505h-79l-3 43q-40 -43 -103 -43h-47l-30 -139h-114l82 384h1l55 260h115l-73 -344q-12 -55 24 -55h43q34 0 47 47l75 352h114z" />
    <glyph glyph-name="paragraph" unicode="&#xb6;" horiz-adv-x="532" 
d="M283 -168l148 698q10 50 -17 55l-160 -753h-125l99 467h-59q-125 0 -96 135l30 141q29 135 153 135h211q127 0 98 -135l-158 -743h-124zM230 423h24l35 163h-24q-38 0 -50 -56l-11 -51q-11 -56 26 -56z" />
    <glyph glyph-name="periodcentered" unicode="&#xb7;" horiz-adv-x="199" 
d="M45 226l29 138h129l-29 -138h-129z" />
    <glyph glyph-name="cedilla" unicode="&#xb8;" horiz-adv-x="685" 
d="M239 -84l-23 12q-20 12 -14 39l13 59h71l-8 -36q-2 -10 10 -17l18 -11q19 -10 10 -52l-8 -40q-9 -41 -23.5 -52.5t-55.5 -11.5h-36q-43 0 -51.5 13t1.5 57l4 17h65l-1 -3q1 -12 4 -13h18q8 0 11 13l2 9q3 12 -7 17z" />
    <glyph glyph-name="onesuperior" unicode="&#xb9;" horiz-adv-x="140" 
d="M133 651h-9l4 59h34q58 0 45 -63l-46 -218h-56l42 197q4 25 -14 25z" />
    <glyph glyph-name="ordmasculine" unicode="&#xba;" horiz-adv-x="245" 
d="M98 492l33 155q13 63 71 63h70q58 0 44 -63l-33 -155q-13 -63 -70 -63h-70q-59 0 -45 63zM171 488h38q17 0 23 25l24 113q4 25 -12 25h-38q-19 0 -23 -25l-24 -113q-6 -25 12 -25z" />
    <glyph glyph-name="guillemotright" unicode="&#xbb;" horiz-adv-x="456" 
d="M134 69h-133l144 183l-66 183h133l66 -183zM311 69h-133l144 183l-66 183h133l66 -183z" />
    <glyph glyph-name="onequarter" unicode="&#xbc;" horiz-adv-x="468" 
d="M12 0l402 710h84l-404 -710h-82zM137 633h-11l5 77h45q77 0 59 -82l-61 -287h-74l55 259q7 33 -18 33zM196 58l21 101q6 29 29 57l140 153h92l-168 -186q-14 -17 -18 -34l-3 -13h43l9 40l52 12h24l-11 -52h33l-27 -78h-22l-12 -58h-74l12 58h-120z" />
    <glyph glyph-name="onehalf" unicode="&#xbd;" horiz-adv-x="541" 
d="M12 0l402 710h84l-404 -710h-82zM137 633h-11l5 77h45q77 0 59 -82l-61 -287h-74l55 259q7 33 -18 33zM439 292h-39q-25 0 -32 -33l-2 -8h-74l8 37q16 81 93 81h82q77 0 61 -81l-4 -18q-11 -56 -62 -86l-106 -67q-31 -20 -35 -39h72q24 0 31 33l2 8h74l-8 -36
q-18 -83 -94 -83h-167l16 78q7 33 30 56t65 48l78 48q21 14 25 34q6 28 -14 28z" />
    <glyph glyph-name="threequarters" unicode="&#xbe;" horiz-adv-x="567" 
d="M113 0l402 710h84l-404 -710h-82zM297 58l21 101q6 29 29 57l140 153h92l-168 -186q-14 -17 -18 -34l-3 -13h43l9 40l52 12h24l-11 -52h33l-27 -78h-22l-12 -58h-74l12 58h-120zM220 419q19 0 27 38q6 30 -9 30h-56l27 78h29q18 0 26 34q7 34 -15 34h-26q-23 0 -30 -33
l-2 -8h-75l8 36q18 82 95 82h68q76 0 58 -84l-11 -50q-10 -42 -32 -51q35 -3 24 -56l-9 -44q-18 -84 -93 -84h-94q-76 0 -58 83l7 36h75l-1 -8q-8 -33 17 -33h50z" />
    <glyph glyph-name="questiondown" unicode="&#xbf;" horiz-adv-x="417" 
d="M147 202l-45 -23q-51 -25 -75.5 -53t-37.5 -92l-28 -136q-27 -125 90 -125h149q117 0 144 125l22 102h-123l-13 -57q-9 -46 -37 -46h-82q-28 0 -18 47l16 77q4 20 13.5 31t27.5 20l58 29q24 12 38 21t32 33.5t25 58.5l24 115h-123l-16 -78q-7 -32 -41 -49zM210 372
l29 138h129l-29 -138h-129z" />
    <glyph glyph-name="Agrave" unicode="&#xc0;" horiz-adv-x="488" 
d="M297 710h122l38 -710h-129l-3 121h-184l-53 -121h-128zM319 518l-122 -272h126zM254 881h117l37 -132h-76z" />
    <glyph glyph-name="Aacute" unicode="&#xc1;" horiz-adv-x="488" 
d="M297 710h122l38 -710h-129l-3 121h-184l-53 -121h-128zM319 518l-122 -272h126zM394 750h-93l98 153h132z" />
    <glyph glyph-name="Acircumflex" unicode="&#xc2;" horiz-adv-x="488" 
d="M297 710h122l38 -710h-129l-3 121h-184l-53 -121h-128zM319 518l-122 -272h126zM358 857h63l77 -108h-108l-18 33l-32 -33h-106z" />
    <glyph glyph-name="Atilde" unicode="&#xc3;" horiz-adv-x="488" 
d="M297 710h122l38 -710h-129l-3 121h-184l-53 -121h-128zM319 518l-122 -272h126zM450 852q36 0 45.5 -12.5t1.5 -51.5l-11 -51h-76l5 23q3 14 -3 14q-10 0 -25 -12l-13 -13q-16 -15 -71 -15q-36 0 -46.5 12.5t-1.5 52.5l11 49h75l-5 -23q-3 -13 4 -13q14 0 25 12l8 10
q12 12 26.5 15t50.5 3z" />
    <glyph glyph-name="Adieresis" unicode="&#xc4;" horiz-adv-x="488" 
d="M297 710h122l38 -710h-129l-3 121h-184l-53 -121h-128zM319 518l-122 -272h126zM267 861h95l-25 -114h-95zM424 861h94l-25 -114h-94z" />
    <glyph glyph-name="Aring" unicode="&#xc5;" horiz-adv-x="488" 
d="M297 710h122l38 -710h-129l-3 121h-184l-53 -121h-128zM319 518l-122 -272h126zM373 915h59q43 0 52 -14.5t-2 -67.5l-8 -34q-11 -54 -25 -68.5t-57 -14.5h-60q-42 0 -51 14.5t2 68.5l8 34q11 54 25 68t57 14zM391 783q13 0 19 22l4 22q4 22 -9 22h-31q-16 0 -20 -22
l-4 -22q-6 -22 10 -22h31z" />
    <glyph glyph-name="AE" unicode="&#xc6;" horiz-adv-x="703" 
d="M534 586l-8 -31l-23 -197h177l-43 -125h-149l-13 -109h204l-43 -124h-307l14 121h-177l-77 -121h-137l463 710h387l-42 -124h-226zM384 458l-137 -213h112z" />
    <glyph glyph-name="Ccedilla" unicode="&#xc7;" horiz-adv-x="469" 
d="M200 -84l-23 12q-20 12 -14 39l8 33h-18q-152 0 -122 144l14 67h1l76 355q30 144 147 144h139q152 0 122 -144l-16 -74h-124l8 38q11 56 -25 56h-87q-37 0 -49 -56l-74 -350q-13 -56 25 -56h87q36 0 49 56l8 40h124l-16 -76q-30 -144 -147 -144h-51l-3 -10q-2 -10 10 -17
l18 -11q19 -10 10 -52l-8 -40q-9 -41 -23.5 -52.5t-55.5 -11.5h-36q-43 0 -51.5 13t1.5 57l4 17h65l-1 -3q1 -12 4 -13h18q8 0 11 13l2 9q3 12 -7 17z" />
    <glyph glyph-name="Egrave" unicode="&#xc8;" 
d="M252 586l-48 -228h195l-44 -124h-178l-23 -110h244l-44 -124h-349l150 710h366l-42 -124h-227zM237 881h117l37 -132h-76z" />
    <glyph glyph-name="Eacute" unicode="&#xc9;" 
d="M252 586l-48 -228h195l-44 -124h-178l-23 -110h244l-44 -124h-349l150 710h366l-42 -124h-227zM377 750h-93l98 153h132z" />
    <glyph glyph-name="Ecircumflex" unicode="&#xca;" 
d="M252 586l-48 -228h195l-44 -124h-178l-23 -110h244l-44 -124h-349l150 710h366l-42 -124h-227zM341 857h63l77 -108h-108l-18 33l-32 -33h-106z" />
    <glyph glyph-name="Edieresis" unicode="&#xcb;" 
d="M252 586l-48 -228h195l-44 -124h-178l-23 -110h244l-44 -124h-349l150 710h366l-42 -124h-227zM250 861h95l-25 -114h-95zM407 861h94l-25 -114h-94z" />
    <glyph glyph-name="Igrave" unicode="&#xcc;" horiz-adv-x="204" 
d="M128 0h-123l150 710h123zM110 881h117l37 -132h-76z" />
    <glyph glyph-name="Iacute" unicode="&#xcd;" horiz-adv-x="204" 
d="M128 0h-123l150 710h123zM250 750h-93l98 153h132z" />
    <glyph glyph-name="Icircumflex" unicode="&#xce;" horiz-adv-x="204" 
d="M128 0h-123l150 710h123zM216 857h63l77 -108h-108l-18 33l-32 -33h-106z" />
    <glyph glyph-name="Idieresis" unicode="&#xcf;" horiz-adv-x="204" 
d="M128 0h-123l150 710h123zM123 861h95l-25 -114h-95zM280 861h94l-25 -114h-94z" />
    <glyph glyph-name="Eth" unicode="&#xd0;" horiz-adv-x="523" 
d="M162 586l26 124h260q152 0 122 -144l-16 -74h-1l-58 -272h1l-16 -76q-30 -144 -147 -144h-294l26 124h1l33 157h-80l42 115h63l40 190h-2zM352 396l-42 -115h-88l-33 -157h126q37 0 50 56l2 12h-1l75 352q4 42 -28 42h-126l-40 -190h105z" />
    <glyph glyph-name="Ntilde" unicode="&#xd1;" horiz-adv-x="508" 
d="M128 0h-123l150 710h123l82 -425l3 -27l96 452h123l-150 -710h-123l-80 405q-5 25 -5 47zM454 852q36 0 45.5 -12.5t1.5 -51.5l-11 -51h-76l5 23q3 14 -3 14q-10 0 -25 -12l-13 -13q-16 -15 -71 -15q-36 0 -46.5 12.5t-1.5 52.5l11 49h75l-5 -23q-3 -13 4 -13q14 0 25 12
l8 10q12 12 26.5 15t50.5 3z" />
    <glyph glyph-name="Ograve" unicode="&#xd2;" horiz-adv-x="509" 
d="M31 144l14 67h1l76 355q30 144 147 144h165q152 0 122 -144l-90 -422q-30 -144 -147 -144h-166q-152 0 -122 144zM399 586h-113q-37 0 -49 -56l-74 -350q-13 -56 25 -56h113q36 0 49 56l74 350q11 56 -25 56zM259 881h117l37 -132h-76z" />
    <glyph glyph-name="Oacute" unicode="&#xd3;" horiz-adv-x="509" 
d="M31 144l14 67h1l76 355q30 144 147 144h165q152 0 122 -144l-90 -422q-30 -144 -147 -144h-166q-152 0 -122 144zM399 586h-113q-37 0 -49 -56l-74 -350q-13 -56 25 -56h113q36 0 49 56l74 350q11 56 -25 56zM398 750h-93l98 153h132z" />
    <glyph glyph-name="Ocircumflex" unicode="&#xd4;" horiz-adv-x="509" 
d="M31 144l14 67h1l76 355q30 144 147 144h165q152 0 122 -144l-90 -422q-30 -144 -147 -144h-166q-152 0 -122 144zM399 586h-113q-37 0 -49 -56l-74 -350q-13 -56 25 -56h113q36 0 49 56l74 350q11 56 -25 56zM363 857h63l77 -108h-108l-18 33l-32 -33h-106z" />
    <glyph glyph-name="Otilde" unicode="&#xd5;" horiz-adv-x="510" 
d="M31 144l14 67h1l76 355q30 144 147 144h166q78 0 107.5 -35.5t14.5 -108.5l-90 -422q-30 -144 -147 -144h-167q-152 0 -122 144zM401 586h-115q-37 0 -49 -56l-74 -350q-13 -56 25 -56h115q35 0 48 56l74 350q11 56 -24 56zM411 852q36 0 45.5 -12.5t1.5 -51.5l-11 -51
h-76l5 23q4 14 -3 14q-10 0 -25 -12l-13 -13q-16 -15 -71 -15q-36 0 -46.5 12.5t-1.5 52.5l11 49h75l-5 -23q-3 -13 4 -13q14 0 25 12l8 10q12 12 26.5 15t50.5 3z" />
    <glyph glyph-name="Odieresis" unicode="&#xd6;" horiz-adv-x="509" 
d="M31 144l14 67h1l76 355q30 144 147 144h165q152 0 122 -144l-90 -422q-30 -144 -147 -144h-166q-152 0 -122 144zM399 586h-113q-37 0 -49 -56l-74 -350q-13 -56 25 -56h113q36 0 49 56l74 350q11 56 -25 56zM272 861h95l-25 -114h-95zM429 861h94l-25 -114h-94z" />
    <glyph glyph-name="multiply" unicode="&#xd7;" horiz-adv-x="353" 
d="M377 373l-108 -107l63 -105l-91 -80l-61 106l-105 -106l-57 80l105 105l-60 107l91 79l60 -106l106 106z" />
    <glyph glyph-name="Oslash" unicode="&#xd8;" horiz-adv-x="512" 
d="M516 759h134l-89 -125q5 -29 -3 -68l-16 -74h-1l-74 -348q-30 -144 -147 -144h-167q-23 0 -41 3l-37 -52h-132l86 122q-6 29 3 71l14 67h1l76 355q30 144 147 144h166q24 0 43 -3zM393 586h-107q-36 0 -48 -56l-49 -232zM352 180l48 228l-202 -284h106q35 0 48 56z" />
    <glyph glyph-name="Ugrave" unicode="&#xd9;" horiz-adv-x="486" 
d="M278 124q36 0 48 57l112 529h124l-122 -574q-28 -136 -137 -136h-158q-143 0 -115 136l122 574h124l-112 -529q-12 -57 25 -57h89zM252 881h117l37 -132h-76z" />
    <glyph glyph-name="Uacute" unicode="&#xda;" horiz-adv-x="486" 
d="M278 124q36 0 48 57l112 529h124l-122 -574q-28 -136 -137 -136h-158q-143 0 -115 136l122 574h124l-112 -529q-12 -57 25 -57h89zM392 750h-93l98 153h132z" />
    <glyph glyph-name="Ucircumflex" unicode="&#xdb;" horiz-adv-x="486" 
d="M278 124q36 0 48 57l112 529h124l-122 -574q-28 -136 -137 -136h-158q-143 0 -115 136l122 574h124l-112 -529q-12 -57 25 -57h89zM356 857h63l77 -108h-108l-18 33l-32 -33h-106z" />
    <glyph glyph-name="Udieresis" unicode="&#xdc;" horiz-adv-x="486" 
d="M278 124q36 0 48 57l112 529h124l-122 -574q-28 -136 -137 -136h-158q-143 0 -115 136l122 574h124l-112 -529q-12 -57 25 -57h89zM265 861h95l-25 -114h-95zM422 861h94l-25 -114h-94z" />
    <glyph glyph-name="Yacute" unicode="&#xdd;" horiz-adv-x="477" 
d="M265 0h-122l56 265l-92 445h124l46 -271q5 -40 3 -55q8 25 27 54l159 272h131l-275 -441zM387 750h-93l98 153h132z" />
    <glyph glyph-name="Thorn" unicode="&#xde;" horiz-adv-x="463" 
d="M128 0h-123l159 752l112 25h17l-34 -157h118q83 0 115 -37.5t15 -114.5l-37 -169q-32 -152 -159 -152h-152zM233 496l-48 -224h118q37 0 49 55l24 114q12 55 -25 55h-118z" />
    <glyph glyph-name="germandbls" unicode="&#xdf;" horiz-adv-x="474" 
d="M-28 -140l138 654h1l11 52q30 144 147 144h144q125 0 96 -135l-20 -94q0 -2 -2.5 -12.5t-3.5 -14t-3.5 -13.5t-5 -14.5t-6 -13t-7.5 -13.5t-9 -10.5t-11.5 -9.5t-13.5 -6q22 -6 33 -19.5t12.5 -31t-1 -34t-6.5 -33.5q-1 -5 -2 -7l-24 -114q-29 -135 -152 -135h-123
l26 124h89q35 0 47 56l16 75q12 56 -18 56h-94l26 125h68q32 0 43 53l9 41q11 56 -23 56h-67q-37 0 -49 -56l-6 -29h-1l-136 -641h-122z" />
    <glyph glyph-name="agrave" unicode="&#xe0;" horiz-adv-x="402" 
d="M236 0l1 50q-22 -30 -41.5 -40t-58.5 -10h-34q-62 0 -84 30t-8 93l16 73q24 114 108 114h147l10 43q9 43 -22 43h-48q-29 0 -38 -43l-2 -7h-107l9 43q24 122 111 122h116q129 0 102 -122l-82 -389h-95zM144 115h69q28 0 38 47l9 42h-105q-14 0 -20 -10t-10 -32l-3 -12
q-8 -35 22 -35zM170 711h117l37 -132h-76z" />
    <glyph glyph-name="aacute" unicode="&#xe1;" horiz-adv-x="402" 
d="M236 0l1 50q-22 -30 -41.5 -40t-58.5 -10h-34q-62 0 -84 30t-8 93l16 73q24 114 108 114h147l10 43q9 43 -22 43h-48q-29 0 -38 -43l-2 -7h-107l9 43q24 122 111 122h116q129 0 102 -122l-82 -389h-95zM144 115h69q28 0 38 47l9 42h-105q-14 0 -20 -10t-10 -32l-3 -12
q-8 -35 22 -35zM320 575h-93l98 153h132z" />
    <glyph glyph-name="acircumflex" unicode="&#xe2;" horiz-adv-x="402" 
d="M236 0l1 50q-22 -30 -41.5 -40t-58.5 -10h-34q-62 0 -84 30t-8 93l16 73q24 114 108 114h147l10 43q9 43 -22 43h-48q-29 0 -38 -43l-2 -7h-107l9 43q24 122 111 122h116q129 0 102 -122l-82 -389h-95zM144 115h69q28 0 38 47l9 42h-105q-14 0 -20 -10t-10 -32l-3 -12
q-8 -35 22 -35zM276 687h63l77 -108h-108l-18 33l-32 -33h-106z" />
    <glyph glyph-name="atilde" unicode="&#xe3;" horiz-adv-x="402" 
d="M236 0l1 50q-22 -30 -41.5 -40t-58.5 -10h-34q-62 0 -84 30t-8 93l16 73q24 114 108 114h147l10 43q9 43 -22 43h-48q-29 0 -38 -43l-2 -7h-107l9 43q24 122 111 122h116q129 0 102 -122l-82 -389h-95zM144 115h69q28 0 38 47l9 42h-105q-14 0 -20 -10t-10 -32l-3 -12
q-8 -35 22 -35zM367 682q36 0 46 -12.5t2 -51.5l-11 -51h-76l5 23q3 14 -3 14q-10 0 -25 -12l-13 -13q-16 -15 -72 -15q-36 0 -46 12t-1 53l11 49h75l-5 -23q-3 -13 4 -13q14 0 25 12l8 10q11 12 25.5 15t50.5 3z" />
    <glyph glyph-name="adieresis" unicode="&#xe4;" horiz-adv-x="402" 
d="M236 0l1 50q-22 -30 -41.5 -40t-58.5 -10h-34q-62 0 -84 30t-8 93l16 73q24 114 108 114h147l10 43q9 43 -22 43h-48q-29 0 -38 -43l-2 -7h-107l9 43q24 122 111 122h116q129 0 102 -122l-82 -389h-95zM144 115h69q28 0 38 47l9 42h-105q-14 0 -20 -10t-10 -32l-3 -12
q-8 -35 22 -35zM182 691h95l-24 -114h-95zM339 691h94l-24 -114h-94z" />
    <glyph glyph-name="aring" unicode="&#xe5;" horiz-adv-x="402" 
d="M236 0l1 50q-22 -30 -41.5 -40t-58.5 -10h-34q-62 0 -84 30t-8 93l16 73q24 114 108 114h147l10 43q9 43 -22 43h-48q-29 0 -38 -43l-2 -7h-107l9 43q24 122 111 122h116q129 0 102 -122l-82 -389h-95zM144 115h69q28 0 38 47l9 42h-105q-14 0 -20 -10t-10 -32l-3 -12
q-8 -35 22 -35zM290 745h59q43 0 51.5 -14.5t-2.5 -67.5l-7 -34q-11 -54 -25 -68.5t-57 -14.5h-60q-42 0 -51 14.5t2 68.5l7 34q12 54 26.5 68t56.5 14zM308 613q14 0 18 22l5 22q4 22 -9 22h-31q-16 0 -20 -22l-5 -22q-4 -22 11 -22h31z" />
    <glyph glyph-name="ae" unicode="&#xe6;" horiz-adv-x="624" 
d="M385 115h63q28 0 37 38l2 10h106l-5 -26q-18 -82 -52 -109.5t-112 -27.5h-63q-54 0 -83.5 12t-36.5 43l-3 -2q-22 -32 -41.5 -42.5t-57.5 -10.5h-52q-101 0 -74 123l15 73q24 114 124 114h131l10 43q9 43 -21 43h-49q-30 0 -39 -43l-2 -7h-106l9 43q26 122 128 122h117
q31 0 55 -11q30 11 84 11h63q74 0 99.5 -23.5t9.5 -100.5l-17 -77q-14 -67 -40.5 -92t-100.5 -25h-110l-9 -38q-7 -40 21 -40zM508 396h-47q-24 0 -36 -8t-18 -33l-12 -56h94q27 0 33 30l8 34q6 33 -22 33zM136 115h78q25 0 36 40l11 49h-105q-22 0 -30 -42l-3 -12
q-8 -35 13 -35z" />
    <glyph glyph-name="ccedilla" unicode="&#xe7;" horiz-adv-x="398" 
d="M152 -84l-23 12q-20 12 -14 39l8 33q-129 3 -99 135l51 236q29 135 129 135h123q120 0 91 -126l-11 -53h-107l4 17q9 46 -19 46h-63q-28 0 -37 -46l-39 -182q-10 -47 19 -47h62q15 0 23.5 9t13.5 32l4 22h106l-9 -45q-28 -133 -120 -133h-51l-3 -10q-2 -10 10 -17l18 -11
q19 -10 10 -52l-8 -40q-9 -41 -23.5 -52.5t-55.5 -11.5h-36q-43 0 -51.5 13t1.5 57l4 17h65l-1 -3q1 -12 4 -13h18q8 0 11 13l2 9q3 12 -7 17z" />
    <glyph glyph-name="egrave" unicode="&#xe8;" horiz-adv-x="403" 
d="M162 108h55q29 0 36 37l4 18h106l-5 -26q-18 -83 -49.5 -110t-106.5 -27h-44q-88 0 -119.5 28.5t-14.5 106.5l53 243q18 84 52 108.5t109 24.5h37q95 0 124.5 -24.5t10.5 -108.5l-14 -59q-15 -72 -42 -99t-101 -27h-100l-9 -39q-9 -46 18 -46zM289 405h-72q-19 0 -27 -36
l-15 -70h94q18 0 25 31l8 40q8 35 -13 35zM182 711h117l37 -132h-76z" />
    <glyph glyph-name="eacute" unicode="&#xe9;" horiz-adv-x="403" 
d="M162 108h55q29 0 36 37l4 18h106l-5 -26q-18 -83 -49.5 -110t-106.5 -27h-44q-88 0 -119.5 28.5t-14.5 106.5l53 243q18 84 52 108.5t109 24.5h37q95 0 124.5 -24.5t10.5 -108.5l-14 -59q-15 -72 -42 -99t-101 -27h-100l-9 -39q-9 -46 18 -46zM289 405h-72q-19 0 -27 -36
l-15 -70h94q18 0 25 31l8 40q8 35 -13 35zM321 580h-93l98 153h132z" />
    <glyph glyph-name="ecircumflex" unicode="&#xea;" horiz-adv-x="403" 
d="M162 108h55q29 0 36 37l4 18h106l-5 -26q-18 -83 -49.5 -110t-106.5 -27h-44q-88 0 -119.5 28.5t-14.5 106.5l53 243q18 84 52 108.5t109 24.5h37q95 0 124.5 -24.5t10.5 -108.5l-14 -59q-15 -72 -42 -99t-101 -27h-100l-9 -39q-9 -46 18 -46zM289 405h-72q-19 0 -27 -36
l-15 -70h94q18 0 25 31l8 40q8 35 -13 35zM287 687h63l77 -108h-108l-18 33l-32 -33h-106z" />
    <glyph glyph-name="edieresis" unicode="&#xeb;" horiz-adv-x="403" 
d="M162 108h55q29 0 36 37l4 18h106l-5 -26q-18 -83 -49.5 -110t-106.5 -27h-44q-88 0 -119.5 28.5t-14.5 106.5l53 243q18 84 52 108.5t109 24.5h37q95 0 124.5 -24.5t10.5 -108.5l-14 -59q-15 -72 -42 -99t-101 -27h-100l-9 -39q-9 -46 18 -46zM289 405h-72q-19 0 -27 -36
l-15 -70h94q18 0 25 31l8 40q8 35 -13 35zM194 691h95l-24 -114h-95zM351 691h94l-24 -114h-94z" />
    <glyph glyph-name="igrave" unicode="&#xec;" horiz-adv-x="214" 
d="M109 390h-54l25 115h169l-107 -505h-115zM93 711h117l37 -132h-76z" />
    <glyph glyph-name="iacute" unicode="&#xed;" horiz-adv-x="214" 
d="M109 390h-54l25 115h169l-107 -505h-115zM233 580h-93l98 153h132z" />
    <glyph glyph-name="icircumflex" unicode="&#xee;" horiz-adv-x="214" 
d="M109 390h-54l25 115h169l-107 -505h-115zM198 687h63l77 -108h-108l-18 33l-32 -33h-106z" />
    <glyph glyph-name="idieresis" unicode="&#xef;" horiz-adv-x="214" 
d="M109 390h-54l25 115h169l-107 -505h-115zM105 691h95l-24 -114h-95zM262 691h94l-24 -114h-94z" />
    <glyph glyph-name="eth" unicode="&#xf0;" horiz-adv-x="409" 
d="M416 353l-49 -227q-15 -73 -54 -99.5t-116 -26.5h-66q-76 0 -104 26.5t-13 99.5l36 169q16 73 54.5 99.5t113.5 26.5h63q10 0 20 -8q2 17 0 35l-26 74l-114 -21l21 98l52 11l-37 100h133l27 -79l123 23l-22 -99l-65 -14q1 -3 3 -18.5t5 -23.5q1 -3 5 -16.5t5.5 -21
l4.5 -22.5t4 -27t0 -28t-4 -31zM196 306q-30 0 -39 -47l-21 -97q-10 -47 19 -47h68q28 0 38 47l31 144h-96z" />
    <glyph glyph-name="ntilde" unicode="&#xf1;" horiz-adv-x="416" 
d="M0 0l102 480l94 25h17l-9 -40q34 46 98 46h26q127 0 101 -125l-83 -386h-115l74 350q12 55 -25 55h-43q-35 0 -46 -47l-76 -358h-115zM389 682q36 0 46 -12.5t2 -51.5l-11 -51h-76l5 23q3 14 -3 14q-10 0 -25 -12l-13 -13q-16 -15 -72 -15q-36 0 -46 12t-1 53l11 49h75
l-5 -23q-3 -13 4 -13q14 0 25 12l8 10q11 12 25.5 15t50.5 3z" />
    <glyph glyph-name="ograve" unicode="&#xf2;" 
d="M205 511h122q136 0 106 -135l-52 -242q-29 -134 -137 -134h-122q-127 0 -98 134l52 242q30 135 129 135zM294 400h-69q-28 0 -38 -46l-42 -197q-10 -46 18 -46h69q29 0 39 46l42 197q10 46 -19 46zM183 711h117l37 -132h-76z" />
    <glyph glyph-name="oacute" unicode="&#xf3;" 
d="M205 511h122q136 0 106 -135l-52 -242q-29 -134 -137 -134h-122q-127 0 -98 134l52 242q30 135 129 135zM294 400h-69q-28 0 -38 -46l-42 -197q-10 -46 18 -46h69q29 0 39 46l42 197q10 46 -19 46zM323 580h-93l98 153h132z" />
    <glyph glyph-name="ocircumflex" unicode="&#xf4;" 
d="M205 511h122q136 0 106 -135l-52 -242q-29 -134 -137 -134h-122q-127 0 -98 134l52 242q30 135 129 135zM294 400h-69q-28 0 -38 -46l-42 -197q-10 -46 18 -46h69q29 0 39 46l42 197q10 46 -19 46zM288 687h63l77 -108h-108l-18 33l-32 -33h-106z" />
    <glyph glyph-name="otilde" unicode="&#xf5;" 
d="M205 511h122q136 0 106 -135l-52 -242q-29 -134 -137 -134h-122q-127 0 -98 134l52 242q30 135 129 135zM294 400h-69q-28 0 -38 -46l-42 -197q-10 -46 18 -46h69q29 0 39 46l42 197q10 46 -19 46zM381 682q36 0 46 -12.5t2 -51.5l-11 -51h-76l5 23q3 14 -3 14
q-10 0 -25 -12l-13 -13q-16 -15 -72 -15q-36 0 -46 12t-1 53l11 49h75l-5 -23q-3 -13 4 -13q14 0 25 12l8 10q11 12 25.5 15t50.5 3z" />
    <glyph glyph-name="odieresis" unicode="&#xf6;" 
d="M205 511h122q136 0 106 -135l-52 -242q-29 -134 -137 -134h-122q-127 0 -98 134l52 242q30 135 129 135zM294 400h-69q-28 0 -38 -46l-42 -197q-10 -46 18 -46h69q29 0 39 46l42 197q10 46 -19 46zM195 691h95l-24 -114h-95zM352 691h94l-24 -114h-94z" />
    <glyph glyph-name="divide" unicode="&#xf7;" horiz-adv-x="411" 
d="M29 234l44 124h363l-43 -124h-364zM193 403l29 138h129l-29 -138h-129zM115 34l29 138h129l-29 -138h-129z" />
    <glyph glyph-name="oslash" unicode="&#xf8;" horiz-adv-x="422" 
d="M205 511h122q25 0 41 -4l33 43h109l-75 -98q8 -33 -2 -76l-52 -242q-29 -134 -137 -134h-122q-21 0 -37 3l-26 -33h-107l69 90q-6 30 3 74l52 242q30 135 129 135zM232 111q29 0 39 46l25 117l-127 -163h63zM187 354l-24 -111l122 157h-60q-28 0 -38 -46z" />
    <glyph glyph-name="ugrave" unicode="&#xf9;" horiz-adv-x="417" 
d="M452 505l-107 -505h-80l-4 42q-39 -42 -102 -42h-42q-119 0 -90 134l79 371h114l-73 -344q-12 -55 26 -55h43q33 0 46 47h1l74 352h115zM174 711h117l37 -132h-76z" />
    <glyph glyph-name="uacute" unicode="&#xfa;" horiz-adv-x="417" 
d="M452 505l-107 -505h-80l-4 42q-39 -42 -102 -42h-42q-119 0 -90 134l79 371h114l-73 -344q-12 -55 26 -55h43q33 0 46 47h1l74 352h115zM314 580h-93l98 153h132z" />
    <glyph glyph-name="ucircumflex" unicode="&#xfb;" horiz-adv-x="417" 
d="M452 505l-107 -505h-80l-4 42q-39 -42 -102 -42h-42q-119 0 -90 134l79 371h114l-73 -344q-12 -55 26 -55h43q33 0 46 47h1l74 352h115zM280 687h63l77 -108h-108l-18 33l-32 -33h-106z" />
    <glyph glyph-name="udieresis" unicode="&#xfc;" horiz-adv-x="417" 
d="M452 505l-107 -505h-80l-4 42q-39 -42 -102 -42h-42q-119 0 -90 134l79 371h114l-73 -344q-12 -55 26 -55h43q33 0 46 47h1l74 352h115zM186 691h95l-24 -114h-95zM343 691h94l-24 -114h-94z" />
    <glyph glyph-name="yacute" unicode="&#xfd;" horiz-adv-x="402" 
d="M43 -110q20 0 33.5 14t31.5 55l17 40h-33l-15 506h120l-1 -343l150 343h124l-264 -569q-25 -54 -47.5 -86.5t-47 -48.5t-46.5 -21t-57 -5h-66l40 115h61zM300 580h-93l98 153h132z" />
    <glyph glyph-name="thorn" unicode="&#xfe;" horiz-adv-x="424" 
d="M61 -250h-112l211 1002l104 25h16l-64 -301q39 35 96 35h25q64 0 88.5 -31t11.5 -94l-54 -252q-15 -72 -50 -103t-96 -31h-33q-38 0 -56.5 9.5t-23.5 33.5zM238 400q-36 0 -48 -47l-41 -193q-9 -49 27 -49h50q36 0 49 55l38 178q11 56 -24 56h-51z" />
    <glyph glyph-name="ydieresis" unicode="&#xff;" horiz-adv-x="402" 
d="M43 -110q20 0 33.5 14t31.5 55l17 40h-33l-15 506h120l-1 -343l150 343h124l-264 -569q-25 -54 -47.5 -86.5t-47 -48.5t-46.5 -21t-57 -5h-66l40 115h61zM173 691h95l-24 -114h-95zM330 691h94l-24 -114h-94z" />
    <glyph glyph-name="Amacron" unicode="&#x100;" horiz-adv-x="488" 
d="M297 710h122l38 -710h-129l-3 121h-184l-53 -121h-128zM319 518l-122 -272h126zM517 858l-40 -106h-213l40 106h213z" />
    <glyph glyph-name="amacron" unicode="&#x101;" horiz-adv-x="402" 
d="M236 0l1 50q-22 -30 -41.5 -40t-58.5 -10h-34q-62 0 -84 30t-8 93l16 73q24 114 108 114h147l10 43q9 43 -22 43h-48q-29 0 -38 -43l-2 -7h-107l9 43q24 122 111 122h116q129 0 102 -122l-82 -389h-95zM144 115h69q28 0 38 47l9 42h-105q-14 0 -20 -10t-10 -32l-3 -12
q-8 -35 22 -35zM433 688l-40 -106h-213l40 106h213z" />
    <glyph glyph-name="Abreve" unicode="&#x102;" horiz-adv-x="488" 
d="M297 710h122l38 -710h-129l-3 121h-184l-53 -121h-128zM319 518l-122 -272h126zM382 745h-25q-58 0 -71 18t0 83l3 13h65l-3 -16q-7 -31 16 -31h31q23 0 30 31l3 16h65l-3 -13q-14 -66 -33 -83.5t-78 -17.5z" />
    <glyph glyph-name="abreve" unicode="&#x103;" horiz-adv-x="402" 
d="M236 0l1 50q-22 -30 -41.5 -40t-58.5 -10h-34q-62 0 -84 30t-8 93l16 73q24 114 108 114h147l10 43q9 43 -22 43h-48q-29 0 -38 -43l-2 -7h-107l9 43q24 122 111 122h116q129 0 102 -122l-82 -389h-95zM144 115h69q28 0 38 47l9 42h-105q-14 0 -20 -10t-10 -32l-3 -12
q-8 -35 22 -35zM298 574h-25q-58 0 -71 17.5t0 83.5l3 13h65l-4 -16q-6 -31 17 -31h31q23 0 29 31l4 16h65l-3 -13q-14 -66 -33 -83.5t-78 -17.5z" />
    <glyph glyph-name="Aogonek" unicode="&#x104;" horiz-adv-x="488" 
d="M259 -128l5 20q6 31 19.5 47t39.5 33q27 18 34 28h-29l-3 121h-184l-53 -121h-128l337 710h122l38 -710h-41l-3 -13q-5 -24 -13 -34.5t-31 -25.5q-22 -15 -28 -21.5t-8 -17.5q-4 -17 8 -17h71l-22 -67h-79q-66 0 -52 68zM319 518l-122 -272h126z" />
    <glyph glyph-name="aogonek" unicode="&#x105;" horiz-adv-x="403" 
d="M236 0l1 50q-22 -30 -41.5 -40t-58.5 -10h-34q-62 0 -84 30t-8 93l16 73q24 114 108 114h147l10 43q9 43 -22 43h-48q-29 0 -38 -43l-2 -7h-107l9 43q24 122 111 122h116q129 0 102 -122l-82 -389h-20l-3 -14q-6 -25 -13.5 -35t-30.5 -25t-29 -21.5t-8 -17.5
q-3 -17 9 -17h71l-22 -67h-79q-66 0 -52 68l4 20q7 31 20 47.5t39 32.5q29 19 35 29h-16zM144 115h69q28 0 38 47l9 42h-105q-14 0 -20 -10t-10 -32l-3 -12q-8 -35 22 -35z" />
    <glyph glyph-name="Cacute" unicode="&#x106;" horiz-adv-x="469" 
d="M188 124h87q36 0 49 56l8 40h124l-16 -76q-30 -144 -147 -144h-140q-152 0 -122 144l14 67h1l76 355q30 144 147 144h139q152 0 122 -144l-16 -74h-124l8 38q11 56 -25 56h-87q-37 0 -49 -56l-74 -350q-13 -56 25 -56zM390 750h-93l98 153h132z" />
    <glyph glyph-name="cacute" unicode="&#x107;" horiz-adv-x="398" 
d="M285 390h-63q-28 0 -37 -46l-39 -182q-10 -47 19 -47h62q15 0 23.5 9t13.5 32l4 22h106l-9 -45q-28 -133 -120 -133h-114q-137 0 -107 135l51 236q29 135 129 135h123q120 0 91 -126l-11 -53h-107l4 17q9 46 -19 46zM323 580h-93l98 153h132z" />
    <glyph glyph-name="Ccircumflex" unicode="&#x108;" horiz-adv-x="469" 
d="M188 124h87q36 0 49 56l8 40h124l-16 -76q-30 -144 -147 -144h-140q-152 0 -122 144l14 67h1l76 355q30 144 147 144h139q152 0 122 -144l-16 -74h-124l8 38q11 56 -25 56h-87q-37 0 -49 -56l-74 -350q-13 -56 25 -56zM354 857h63l77 -108h-108l-18 33l-32 -33h-106z" />
    <glyph glyph-name="ccircumflex" unicode="&#x109;" horiz-adv-x="398" 
d="M285 390h-63q-28 0 -37 -46l-39 -182q-10 -47 19 -47h62q15 0 23.5 9t13.5 32l4 22h106l-9 -45q-28 -133 -120 -133h-114q-137 0 -107 135l51 236q29 135 129 135h123q120 0 91 -126l-11 -53h-107l4 17q9 46 -19 46zM288 687h63l77 -108h-108l-18 33l-32 -33h-106z" />
    <glyph glyph-name="Cdotaccent" unicode="&#x10a;" horiz-adv-x="469" 
d="M188 124h87q36 0 49 56l8 40h124l-16 -76q-30 -144 -147 -144h-140q-152 0 -122 144l14 67h1l76 355q30 144 147 144h139q152 0 122 -144l-16 -74h-124l8 38q11 56 -25 56h-87q-37 0 -49 -56l-74 -350q-13 -56 25 -56zM334 886h118l-28 -133h-118z" />
    <glyph glyph-name="cdotaccent" unicode="&#x10b;" horiz-adv-x="398" 
d="M285 390h-63q-28 0 -37 -46l-39 -182q-10 -47 19 -47h62q15 0 23.5 9t13.5 32l4 22h106l-9 -45q-28 -133 -120 -133h-114q-137 0 -107 135l51 236q29 135 129 135h123q120 0 91 -126l-11 -53h-107l4 17q9 46 -19 46zM260 679h118l-28 -133h-118z" />
    <glyph glyph-name="Ccaron" unicode="&#x10c;" horiz-adv-x="469" 
d="M188 124h87q36 0 49 56l8 40h124l-16 -76q-30 -144 -147 -144h-140q-152 0 -122 144l14 67h1l76 355q30 144 147 144h139q152 0 122 -144l-16 -74h-124l8 38q11 56 -25 56h-87q-37 0 -49 -56l-74 -350q-13 -56 25 -56zM400 749h-73l-71 111h102l19 -50l40 50h100z" />
    <glyph glyph-name="ccaron" unicode="&#x10d;" horiz-adv-x="398" 
d="M285 390h-63q-28 0 -37 -46l-39 -182q-10 -47 19 -47h62q15 0 23.5 9t13.5 32l4 22h106l-9 -45q-28 -133 -120 -133h-114q-137 0 -107 135l51 236q29 135 129 135h123q120 0 91 -126l-11 -53h-107l4 17q9 46 -19 46zM333 579h-73l-71 111h102l19 -50l40 50h100z" />
    <glyph glyph-name="Dcaron" unicode="&#x10e;" horiz-adv-x="502" 
d="M129 586l26 124h233q195 0 156 -174l-18 -83l-60 -279q-36 -174 -194 -174h-267l26 124h1l98 462h-1zM355 231l55 260q10 49 -1.5 72t-47.5 23h-108l-98 -462h108q70 0 90 95l3 12h-1zM409 749h-73l-71 111h102l19 -50l40 50h100z" />
    <glyph glyph-name="dcaron" unicode="&#x10f;" horiz-adv-x="423" 
d="M508 740l-157 -740h-96l1 57q-18 -30 -42 -43.5t-66 -13.5h-43q-109 0 -82 125l52 243q30 143 147 143h42q32 0 47.5 -8.5t24.5 -31.5l51 244l102 25h19zM270 160l41 193q4 47 -27 47h-51q-37 0 -48 -55l-38 -179q-13 -55 25 -55h50q34 0 48 49zM535 760h155l-105 -238
h-59z" />
    <glyph glyph-name="Dcroat" unicode="&#x110;" horiz-adv-x="506" 
d="M10 0l64 302h-55l39 107h38l64 301h231q100 0 137.5 -43t18.5 -131l-77 -362q-18 -88 -65.5 -131t-128.5 -43h-266zM366 586h-109l-38 -177h95l-40 -107h-77l-38 -178h108q70 0 90 95l58 272q20 95 -49 95z" />
    <glyph glyph-name="dcroat" unicode="&#x111;" horiz-adv-x="423" 
d="M558 677l-41 -116h-49l-61 -288h2l-58 -273h-96l1 57q-18 -30 -42 -43.5t-66 -13.5h-43q-109 0 -82 125l52 243q30 143 147 143h42q31 0 46 -8t24 -28l19 86h-105l42 116h87l8 38l102 25h19l-14 -63h66zM274 192l38 175q-2 33 -28 33h-51q-37 0 -48 -55l-38 -179
q-13 -55 25 -55h50q33 0 47 46l7 35h-2z" />
    <glyph glyph-name="Emacron" unicode="&#x112;" 
d="M252 586l-48 -228h195l-44 -124h-178l-23 -110h244l-44 -124h-349l150 710h366l-42 -124h-227zM500 858l-40 -106h-213l40 106h213z" />
    <glyph glyph-name="emacron" unicode="&#x113;" horiz-adv-x="403" 
d="M162 108h55q29 0 36 37l4 18h106l-5 -26q-18 -83 -49.5 -110t-106.5 -27h-44q-88 0 -119.5 28.5t-14.5 106.5l53 243q18 84 52 108.5t109 24.5h37q95 0 124.5 -24.5t10.5 -108.5l-14 -59q-15 -72 -42 -99t-101 -27h-100l-9 -39q-9 -46 18 -46zM289 405h-72q-19 0 -27 -36
l-15 -70h94q18 0 25 31l8 40q8 35 -13 35zM445 688l-40 -106h-213l40 106h213z" />
    <glyph glyph-name="Ebreve" unicode="&#x114;" 
d="M252 586l-48 -228h195l-44 -124h-178l-23 -110h244l-44 -124h-349l150 710h366l-42 -124h-227zM365 745h-25q-58 0 -71 18t0 83l3 13h65l-3 -16q-7 -31 16 -31h31q23 0 30 31l3 16h65l-3 -13q-14 -66 -33 -83.5t-78 -17.5z" />
    <glyph glyph-name="ebreve" unicode="&#x115;" horiz-adv-x="403" 
d="M162 108h55q29 0 36 37l4 18h106l-5 -26q-18 -83 -49.5 -110t-106.5 -27h-44q-88 0 -119.5 28.5t-14.5 106.5l53 243q18 84 52 108.5t109 24.5h37q95 0 124.5 -24.5t10.5 -108.5l-14 -59q-15 -72 -42 -99t-101 -27h-100l-9 -39q-9 -46 18 -46zM289 405h-72q-19 0 -27 -36
l-15 -70h94q18 0 25 31l8 40q8 35 -13 35zM309 574h-25q-58 0 -71 17.5t0 83.5l3 13h65l-4 -16q-6 -31 17 -31h31q23 0 29 31l4 16h65l-3 -13q-14 -66 -33 -83.5t-78 -17.5z" />
    <glyph glyph-name="Edotaccent" unicode="&#x116;" 
d="M252 586l-48 -228h195l-44 -124h-178l-23 -110h244l-44 -124h-349l150 710h366l-42 -124h-227zM322 886h118l-28 -133h-118z" />
    <glyph glyph-name="edotaccent" unicode="&#x117;" horiz-adv-x="403" 
d="M162 108h55q29 0 36 37l4 18h106l-5 -26q-18 -83 -49.5 -110t-106.5 -27h-44q-88 0 -119.5 28.5t-14.5 106.5l53 243q18 84 52 108.5t109 24.5h37q95 0 124.5 -24.5t10.5 -108.5l-14 -59q-15 -72 -42 -99t-101 -27h-100l-9 -39q-9 -46 18 -46zM289 405h-72q-19 0 -27 -36
l-15 -70h94q18 0 25 31l8 40q8 35 -13 35zM260 688h118l-29 -133h-118z" />
    <glyph glyph-name="Eogonek" unicode="&#x118;" 
d="M198 -130l4 20q7 31 20 47.5t39 32.5q30 19 36 30h-292l150 710h366l-42 -124h-227l-48 -228h195l-44 -124h-178l-23 -110h244l-42 -117l-5 -22q-5 -25 -12.5 -35t-30.5 -25t-29 -21.5t-8 -17.5q-3 -17 9 -17h71l-23 -67h-79q-65 0 -51 68z" />
    <glyph glyph-name="eogonek" unicode="&#x119;" horiz-adv-x="403" 
d="M43 -126l4 20q7 31 20 47.5t39 32.5q23 15 33 26q-77 2 -104.5 31t-10.5 104l53 243q18 84 52 108.5t109 24.5h37q95 0 124.5 -24.5t10.5 -108.5l-14 -59q-15 -72 -42 -99t-101 -27h-100l-9 -39q-9 -46 18 -46h55q29 0 36 37l4 18h106l-5 -26q-18 -83 -49.5 -110
t-106.5 -27h-3l-3 -11q-5 -24 -13 -34.5t-31 -25.5q-22 -15 -28 -21.5t-8 -17.5q-3 -17 9 -17h71l-23 -67h-79q-65 0 -51 68zM289 405h-72q-19 0 -27 -36l-15 -70h94q18 0 25 31l8 40q8 35 -13 35z" />
    <glyph glyph-name="Ecaron" unicode="&#x11a;" 
d="M252 586l-48 -228h195l-44 -124h-178l-23 -110h244l-44 -124h-349l150 710h366l-42 -124h-227zM386 749h-73l-71 111h102l19 -50l40 50h100z" />
    <glyph glyph-name="ecaron" unicode="&#x11b;" horiz-adv-x="403" 
d="M162 108h55q29 0 36 37l4 18h106l-5 -26q-18 -83 -49.5 -110t-106.5 -27h-44q-88 0 -119.5 28.5t-14.5 106.5l53 243q18 84 52 108.5t109 24.5h37q95 0 124.5 -24.5t10.5 -108.5l-14 -59q-15 -72 -42 -99t-101 -27h-100l-9 -39q-9 -46 18 -46zM289 405h-72q-19 0 -27 -36
l-15 -70h94q18 0 25 31l8 40q8 35 -13 35zM332 579h-73l-71 111h102l19 -50l40 50h100z" />
    <glyph glyph-name="Gcircumflex" unicode="&#x11c;" horiz-adv-x="486" 
d="M265 259l43 124h191l-53 -248q-26 -135 -136 -135h-165q-74 0 -101.5 33t-13.5 101l94 441q26 135 137 135h164q74 0 101.5 -32.5t13.5 -101.5l-16 -75h-123l6 30q12 55 -26 55h-95q-37 0 -49 -56l-74 -351q-13 -55 25 -55h97q36 0 49 55l17 80h-86zM355 857h63l77 -108
h-108l-18 33l-32 -33h-106z" />
    <glyph glyph-name="gcircumflex" unicode="&#x11d;" horiz-adv-x="419" 
d="M246 509h47q27 0 54 -5l81 75l58 -80l-77 -70q0 -25 -5 -46l-25 -117q-14 -68 -50 -95.5t-104 -30.5l-1 -4h-21q-14 0 -20 -4.5t-8 -17.5l-1 -4q-3 -14 2 -18h120q109 0 82 -125l-18 -87q-16 -73 -56 -99t-119 -26h-107q-78 0 -106.5 26t-12.5 99l17 87q20 88 78 113
q-1 6 3 27l3 11q6 29 18 41q-39 27 -22 107l25 117q15 71 54 98.5t111 27.5zM239 -14h-115q-28 0 -40 -54l-3 -16q-12 -55 16 -55h115q29 0 41 55l3 16q12 54 -17 54zM227 408q-31 0 -43 -56l-11 -54q-12 -56 19 -56h42q30 0 42 56l11 54q12 56 -18 56h-42zM277 687h63
l77 -108h-108l-18 33l-32 -33h-106z" />
    <glyph glyph-name="Gbreve" unicode="&#x11e;" horiz-adv-x="486" 
d="M265 259l43 124h191l-53 -248q-26 -135 -136 -135h-165q-74 0 -101.5 33t-13.5 101l94 441q26 135 137 135h164q74 0 101.5 -32.5t13.5 -101.5l-16 -75h-123l6 30q12 55 -26 55h-95q-37 0 -49 -56l-74 -351q-13 -55 25 -55h97q36 0 49 55l17 80h-86zM379 745h-25
q-58 0 -71 18t0 83l3 13h65l-3 -16q-7 -31 16 -31h31q23 0 30 31l3 16h65l-3 -13q-14 -66 -33 -83.5t-78 -17.5z" />
    <glyph glyph-name="gbreve" unicode="&#x11f;" horiz-adv-x="419" 
d="M246 509h47q27 0 54 -5l81 75l58 -80l-77 -70q0 -25 -5 -46l-25 -117q-14 -68 -50 -95.5t-104 -30.5l-1 -4h-21q-14 0 -20 -4.5t-8 -17.5l-1 -4q-3 -14 2 -18h120q109 0 82 -125l-18 -87q-16 -73 -56 -99t-119 -26h-107q-78 0 -106.5 26t-12.5 99l17 87q20 88 78 113
q-1 6 3 27l3 11q6 29 18 41q-39 27 -22 107l25 117q15 71 54 98.5t111 27.5zM239 -14h-115q-28 0 -40 -54l-3 -16q-12 -55 16 -55h115q29 0 41 55l3 16q12 54 -17 54zM227 408q-31 0 -43 -56l-11 -54q-12 -56 19 -56h42q30 0 42 56l11 54q12 56 -18 56h-42zM300 574h-25
q-58 0 -71 17.5t0 83.5l3 13h65l-4 -16q-6 -31 17 -31h31q23 0 29 31l4 16h65l-3 -13q-14 -66 -33 -83.5t-78 -17.5z" />
    <glyph glyph-name="Gdotaccent" unicode="&#x120;" horiz-adv-x="486" 
d="M265 259l43 124h191l-53 -248q-26 -135 -136 -135h-165q-74 0 -101.5 33t-13.5 101l94 441q26 135 137 135h164q74 0 101.5 -32.5t13.5 -101.5l-16 -75h-123l6 30q12 55 -26 55h-95q-37 0 -49 -56l-74 -351q-13 -55 25 -55h97q36 0 49 55l17 80h-86zM335 885h118
l-29 -133h-118z" />
    <glyph glyph-name="gdotaccent" unicode="&#x121;" horiz-adv-x="419" 
d="M246 509h47q27 0 54 -5l81 75l58 -80l-77 -70q0 -25 -5 -46l-25 -117q-14 -68 -50 -95.5t-104 -30.5l-1 -4h-21q-14 0 -20 -4.5t-8 -17.5l-1 -4q-3 -14 2 -18h120q109 0 82 -125l-18 -87q-16 -73 -56 -99t-119 -26h-107q-78 0 -106.5 26t-12.5 99l17 87q20 88 78 113
q-1 6 3 27l3 11q6 29 18 41q-39 27 -22 107l25 117q15 71 54 98.5t111 27.5zM239 -14h-115q-28 0 -40 -54l-3 -16q-12 -55 16 -55h115q29 0 41 55l3 16q12 54 -17 54zM227 408q-31 0 -43 -56l-11 -54q-12 -56 19 -56h42q30 0 42 56l11 54q12 56 -18 56h-42zM256 716h118
l-29 -133h-118z" />
    <glyph glyph-name="Gcommaaccent" unicode="&#x122;" horiz-adv-x="486" 
d="M265 259l43 124h191l-53 -248q-26 -135 -136 -135h-165q-74 0 -101.5 33t-13.5 101l94 441q26 135 137 135h164q74 0 101.5 -32.5t13.5 -101.5l-16 -75h-123l6 30q12 55 -26 55h-95q-37 0 -49 -56l-74 -351q-13 -55 25 -55h97q36 0 49 55l17 80h-86z" />
    <glyph glyph-name="gcommaaccent" unicode="&#x123;" horiz-adv-x="419" 
d="M246 509h47q27 0 54 -5l81 75l58 -80l-77 -70q0 -25 -5 -46l-25 -117q-14 -68 -50 -95.5t-104 -30.5l-1 -4h-21q-14 0 -20 -4.5t-8 -17.5l-1 -4q-3 -14 2 -18h120q109 0 82 -125l-18 -87q-16 -73 -56 -99t-119 -26h-107q-78 0 -106.5 26t-12.5 99l17 87q20 88 78 113
q-1 6 3 27l3 11q6 29 18 41q-39 27 -22 107l25 117q15 71 54 98.5t111 27.5zM239 -14h-115q-28 0 -40 -54l-3 -16q-12 -55 16 -55h115q29 0 41 55l3 16q12 54 -17 54zM227 408q-31 0 -43 -56l-11 -54q-12 -56 19 -56h42q30 0 42 56l11 54q12 56 -18 56h-42zM361 562h-154
l92 238h60z" />
    <glyph glyph-name="Hcircumflex" unicode="&#x124;" horiz-adv-x="497" 
d="M128 0h-123l150 710h123l-71 -335h170l71 335h123l-150 -710h-123l53 251h-170zM364 857h63l77 -108h-108l-18 33l-32 -33h-106z" />
    <glyph glyph-name="hcircumflex" unicode="&#x125;" horiz-adv-x="418" 
d="M363 692h63l77 -108h-108l-18 33l-32 -33h-106l-23 -106q29 33 88 33h25q127 0 101 -125l-83 -386h-114l74 350q12 55 -25 55h-43q-36 0 -47 -47h-1l-76 -358h-114l151 715l102 25h18l-33 -156z" />
    <glyph glyph-name="Hbar" unicode="&#x126;" horiz-adv-x="511" 
d="M134 0h-123l108 510h-56l39 106h39l20 94h123l-20 -94h170l20 94h123l-20 -94h57l-39 -106h-40l-108 -510h-123l53 251h-170zM242 510l-29 -135h170l29 135h-170z" />
    <glyph glyph-name="hbar" unicode="&#x127;" horiz-adv-x="418" 
d="M370 668l-39 -102h-95l-19 -88q30 33 88 33h25q127 0 101 -125l-83 -386h-114l74 350q12 55 -25 55h-43q-36 0 -47 -47h-1l-76 -358h-114l120 566h-77l38 102h60l10 47l102 25h18l-16 -72h113z" />
    <glyph glyph-name="Itilde" unicode="&#x128;" horiz-adv-x="204" 
d="M128 0h-123l150 710h123zM309 852q36 0 45.5 -12.5t1.5 -51.5l-11 -51h-76l5 23q4 14 -3 14q-10 0 -25 -12l-13 -13q-16 -15 -71 -15q-36 0 -46.5 12.5t-1.5 52.5l11 49h75l-5 -23q-3 -13 4 -13q14 0 25 12l8 10q12 12 26.5 15t50.5 3z" />
    <glyph glyph-name="itilde" unicode="&#x129;" horiz-adv-x="214" 
d="M109 390h-54l25 115h169l-107 -505h-115zM290 682q36 0 46 -12.5t2 -51.5l-11 -51h-76l5 23q4 14 -3 14q-10 0 -25 -12l-13 -13q-16 -15 -72 -15q-36 0 -46 12t-1 53l11 49h75l-5 -23q-3 -13 4 -13q14 0 25 12l8 10q11 12 25.5 15t50.5 3z" />
    <glyph glyph-name="Imacron" unicode="&#x12a;" horiz-adv-x="204" 
d="M128 0h-123l150 710h123zM376 858l-40 -106h-213l40 106h213z" />
    <glyph glyph-name="imacron" unicode="&#x12b;" horiz-adv-x="214" 
d="M109 390h-54l25 115h169l-107 -505h-115zM358 688l-40 -106h-213l40 106h213z" />
    <glyph glyph-name="Ibreve" unicode="&#x12c;" horiz-adv-x="204" 
d="M128 0h-123l150 710h123zM238 745h-25q-58 0 -71 18t0 83l3 13h65l-3 -16q-7 -31 16 -31h31q23 0 30 31l3 16h65l-3 -13q-14 -66 -33 -83.5t-78 -17.5z" />
    <glyph glyph-name="ibreve" unicode="&#x12d;" horiz-adv-x="214" 
d="M109 390h-54l25 115h169l-107 -505h-115zM220 574h-25q-58 0 -71 17.5t0 83.5l3 13h65l-4 -16q-6 -31 17 -31h31q23 0 29 31l4 16h65l-3 -13q-14 -66 -33 -83.5t-78 -17.5z" />
    <glyph glyph-name="Iogonek" unicode="&#x12e;" horiz-adv-x="204" 
d="M-61 -131l4 20q6 31 19 47.5t39 32.5q32 22 36 31h-32l150 710h123l-150 -710h-33l-4 -16q-5 -24 -13 -34.5t-31 -25.5q-22 -15 -28 -21.5t-8 -17.5q-3 -17 8 -17h71l-22 -67h-79q-64 0 -50 68z" />
    <glyph glyph-name="iogonek" unicode="&#x12f;" horiz-adv-x="214" 
d="M-42 -126l4 20q6 31 19 47.5t39 32.5q23 15 33 26h-26l82 390h-54l25 115h169l-107 -505h-29l-3 -11q-5 -24 -13 -34.5t-31 -25.5q-22 -15 -28 -21.5t-8 -17.5q-3 -17 9 -17h71l-23 -67h-79q-64 0 -50 68zM150 612l29 138h129l-29 -138h-129z" />
    <glyph glyph-name="Idotaccent" unicode="&#x130;" horiz-adv-x="204" 
d="M175 795h118l-18 -85h3l-150 -710h-123l150 710h2z" />
    <glyph glyph-name="dotlessi" unicode="&#x131;" horiz-adv-x="214" 
d="M109 390h-54l25 115h169l-107 -505h-115z" />
    <glyph glyph-name="IJ" unicode="&#x132;" horiz-adv-x="520" 
d="M128 0h-123l150 710h123zM216 124h96q36 0 49 55l112 531h123l-118 -558q-17 -77 -55 -114.5t-103 -37.5h-147z" />
    <glyph glyph-name="Jcircumflex" unicode="&#x134;" horiz-adv-x="320" 
d="M16 124h96q36 0 49 55l112 531h123l-118 -558q-17 -77 -55 -114.5t-103 -37.5h-147zM336 857h63l77 -108h-108l-18 33l-32 -33h-106z" />
    <glyph glyph-name="jcircumflex" unicode="&#x135;" horiz-adv-x="214" 
d="M109 390h-54l25 115h169l-126 -592q-25 -123 -136 -123h-81l42 115h29q29 0 39 44zM201 689h63l77 -108h-108l-18 33l-32 -33h-106z" />
    <glyph glyph-name="Kcommaaccent" unicode="&#x136;" horiz-adv-x="477" 
d="M128 0h-123l150 710h123l-68 -322l249 322h136l-275 -355l136 -355h-139l-121 322zM171 -62h84l-18 -88l-85 -80h-16z" />
    <glyph glyph-name="kcommaaccent" unicode="&#x137;" horiz-adv-x="405" 
d="M468 505l-194 -257l88 -248h-125l-76 218l-46 -218h-114l151 715l102 25h18l-97 -454l167 219h126zM131 -45h89l-17 -80l-102 -116h-12z" />
    <glyph glyph-name="Lacute" unicode="&#x139;" horiz-adv-x="388" 
d="M278 710l-124 -586h223l-43 -124h-329l150 710h123zM267 750h-93l98 153h132z" />
    <glyph glyph-name="lacute" unicode="&#x13a;" horiz-adv-x="204" 
d="M167 110h12l-16 -116h-56q-111 0 -85 123l127 598l102 25h19l-125 -587q-9 -43 22 -43zM261 820h-93l98 153h132z" />
    <glyph glyph-name="Lcommaaccent" unicode="&#x13b;" horiz-adv-x="388" 
d="M278 710l-124 -586h223l-43 -124h-329l150 710h123zM115 -62h84l-18 -88l-85 -80h-16z" />
    <glyph glyph-name="lcommaaccent" unicode="&#x13c;" horiz-adv-x="204" 
d="M167 110h12l-16 -116h-56q-111 0 -85 123l127 598l102 25h19l-125 -587q-9 -43 22 -43zM27 -45h89l-17 -80l-102 -116h-12z" />
    <glyph glyph-name="Lcaron" unicode="&#x13d;" horiz-adv-x="394" 
d="M278 710l-124 -586h223l-43 -124h-329l150 710h123zM358 710h155l-104 -238h-59z" />
    <glyph glyph-name="lcaron" unicode="&#x13e;" horiz-adv-x="205" 
d="M167 110h12l-16 -116h-56q-111 0 -85 123l127 598l102 25h19l-125 -587q-9 -43 22 -43zM298 761h155l-104 -238h-59z" />
    <glyph glyph-name="Ldot" unicode="&#x13f;" horiz-adv-x="395" 
d="M278 710l-124 -586h223l-43 -124h-329l150 710h123zM278 266l29 138h129l-29 -138h-129z" />
    <glyph glyph-name="ldot" unicode="&#x140;" horiz-adv-x="313" 
d="M167 110h12l-16 -116h-56q-111 0 -85 123l127 598l102 25h19l-125 -587q-9 -43 22 -43zM209 297l29 138h129l-29 -138h-129z" />
    <glyph glyph-name="Lslash" unicode="&#x141;" horiz-adv-x="412" 
d="M302 710l-60 -285l115 54l17 -105l-159 -74l-37 -176h223l-43 -124h-329l50 237l-65 -30l-16 105l107 50l74 348h123z" />
    <glyph glyph-name="lslash" unicode="&#x142;" horiz-adv-x="276" 
d="M220 110h12l-16 -116h-55q-111 0 -85 123l39 183l-82 -34l25 116l82 34l63 299l102 25h19l-58 -272l74 31l-25 -116l-74 -31l-42 -199q-9 -43 21 -43z" />
    <glyph glyph-name="Nacute" unicode="&#x143;" horiz-adv-x="508" 
d="M128 0h-123l150 710h123l82 -425l3 -27l96 452h123l-150 -710h-123l-80 405q-5 25 -5 47zM397 750h-93l98 153h132z" />
    <glyph glyph-name="nacute" unicode="&#x144;" horiz-adv-x="416" 
d="M0 0l102 480l94 25h17l-9 -40q34 46 98 46h26q127 0 101 -125l-83 -386h-115l74 350q12 55 -25 55h-43q-35 0 -46 -47l-76 -358h-115zM331 580h-93l98 153h132z" />
    <glyph glyph-name="Ncommaaccent" unicode="&#x145;" horiz-adv-x="508" 
d="M128 0h-123l150 710h123l82 -425l3 -27l96 452h123l-150 -710h-123l-80 405q-5 25 -5 47zM168 -27h89l-17 -80l-102 -116h-12z" />
    <glyph glyph-name="ncommaaccent" unicode="&#x146;" horiz-adv-x="416" 
d="M0 0l102 480l94 25h17l-9 -40q34 46 98 46h26q127 0 101 -125l-83 -386h-115l74 350q12 55 -25 55h-43q-35 0 -46 -47l-76 -358h-115zM122 -45h89l-17 -80l-102 -116h-12z" />
    <glyph glyph-name="Ncaron" unicode="&#x147;" horiz-adv-x="508" 
d="M128 0h-123l150 710h123l82 -425l3 -27l96 452h123l-150 -710h-123l-80 405q-5 25 -5 47zM406 749h-73l-71 111h102l19 -50l40 50h100z" />
    <glyph glyph-name="ncaron" unicode="&#x148;" horiz-adv-x="416" 
d="M0 0l102 480l94 25h17l-9 -40q34 46 98 46h26q127 0 101 -125l-83 -386h-115l74 350q12 55 -25 55h-43q-35 0 -46 -47l-76 -358h-115zM341 579h-73l-71 111h102l19 -50l40 50h100z" />
    <glyph glyph-name="napostrophe" unicode="&#x149;" horiz-adv-x="416" 
d="M0 0l102 480l94 25h17l-9 -40q34 46 98 46h26q127 0 101 -125l-83 -386h-115l74 350q12 55 -25 55h-43q-35 0 -46 -47l-76 -358h-78l-32 -36h-12l8 36h-1z" />
    <glyph glyph-name="Eng" unicode="&#x14a;" horiz-adv-x="508" 
d="M157 -84h96q36 0 48 55l7 31l-79 403q-5 25 -5 47l-96 -452h-123l150 710h123l82 -425l3 -24l51 241h1l44 208h123l-150 -710h-1l-12 -56q-33 -152 -159 -152h-147z" />
    <glyph glyph-name="eng" unicode="&#x14b;" horiz-adv-x="416" 
d="M180 -95q30 0 40 44l85 401q12 55 -25 55h-43q-35 0 -46 -47l-76 -358h-115l102 480l94 25h17l-9 -40q34 46 98 46h26q127 0 101 -125l-83 -386l-19 -87q-25 -123 -136 -123h-82l42 115h29z" />
    <glyph glyph-name="Omacron" unicode="&#x14c;" horiz-adv-x="509" 
d="M31 144l14 67h1l76 355q30 144 147 144h165q152 0 122 -144l-90 -422q-30 -144 -147 -144h-166q-152 0 -122 144zM399 586h-113q-37 0 -49 -56l-74 -350q-13 -56 25 -56h113q36 0 49 56l74 350q11 56 -25 56zM523 858l-40 -106h-213l40 106h213z" />
    <glyph glyph-name="omacron" unicode="&#x14d;" 
d="M205 511h122q136 0 106 -135l-52 -242q-29 -134 -137 -134h-122q-127 0 -98 134l52 242q30 135 129 135zM294 400h-69q-28 0 -38 -46l-42 -197q-10 -46 18 -46h69q29 0 39 46l42 197q10 46 -19 46zM446 688l-40 -106h-213l40 106h213z" />
    <glyph glyph-name="Obreve" unicode="&#x14e;" horiz-adv-x="509" 
d="M31 144l14 67h1l76 355q30 144 147 144h165q152 0 122 -144l-90 -422q-30 -144 -147 -144h-166q-152 0 -122 144zM399 586h-113q-37 0 -49 -56l-74 -350q-13 -56 25 -56h113q36 0 49 56l74 350q11 56 -25 56zM387 745h-25q-58 0 -71 18t0 83l3 13h65l-3 -16
q-7 -31 16 -31h31q23 0 30 31l3 16h65l-3 -13q-14 -66 -33 -83.5t-78 -17.5z" />
    <glyph glyph-name="obreve" unicode="&#x14f;" 
d="M205 511h122q136 0 106 -135l-52 -242q-29 -134 -137 -134h-122q-127 0 -98 134l52 242q30 135 129 135zM294 400h-69q-28 0 -38 -46l-42 -197q-10 -46 18 -46h69q29 0 39 46l42 197q10 46 -19 46zM311 574h-25q-58 0 -71 17.5t0 83.5l3 13h65l-4 -16q-6 -31 17 -31h31
q23 0 29 31l4 16h65l-3 -13q-14 -66 -33 -83.5t-78 -17.5z" />
    <glyph glyph-name="Ohungarumlaut" unicode="&#x150;" horiz-adv-x="509" 
d="M31 144l14 67h1l76 355q30 144 147 144h165q152 0 122 -144l-90 -422q-30 -144 -147 -144h-166q-152 0 -122 144zM399 586h-113q-37 0 -49 -56l-74 -350q-13 -56 25 -56h113q36 0 49 56l74 350q11 56 -25 56zM372 914h101l-120 -163h-70zM477 914h100l-121 -163h-68z" />
    <glyph glyph-name="ohungarumlaut" unicode="&#x151;" 
d="M205 511h122q136 0 106 -135l-52 -242q-29 -134 -137 -134h-122q-127 0 -98 134l52 242q30 135 129 135zM294 400h-69q-28 0 -38 -46l-42 -197q-10 -46 18 -46h69q29 0 39 46l42 197q10 46 -19 46zM295 743h101l-119 -163h-70zM400 743h100l-120 -163h-68z" />
    <glyph glyph-name="OE" unicode="&#x152;" horiz-adv-x="737" 
d="M568 586q0 -4 -1 -10t-2 -10l-16 -74h-1l-28 -134h195l-44 -124h-178l-23 -110h244l-44 -124h-517q-152 0 -122 144l14 67h1l76 355q30 144 147 144h174q10 0 28 -2v2h366l-42 -124h-227zM408 586h-122q-37 0 -49 -56l-74 -350q-13 -56 25 -56h122q34 0 47 47l78 367
q7 48 -27 48z" />
    <glyph glyph-name="oe" unicode="&#x153;" horiz-adv-x="646" 
d="M405 108h55q29 0 36 37l4 18h106l-5 -26q-18 -83 -49.5 -110t-106.5 -27h-44q-67 0 -97 13q-25 -13 -60 -13h-122q-127 0 -98 134l52 242q30 135 129 135h122q40 0 67 -12q29 12 87 12h37q95 0 124.5 -24.5t10.5 -108.5l-14 -59q-15 -72 -42 -99t-101 -27h-100l-9 -39
q-9 -46 18 -46zM294 400h-69q-28 0 -38 -46l-42 -197q-10 -46 18 -46h69q29 0 39 46l42 197q10 46 -19 46zM532 405h-72q-19 0 -27 -36l-15 -70h94q18 0 25 31l8 40q8 35 -13 35z" />
    <glyph glyph-name="Racute" unicode="&#x154;" horiz-adv-x="476" 
d="M5 0l150 710h260q145 0 115 -135l-45 -204q-25 -125 -120 -134l78 -237h-141l-77 236h-47l-50 -236h-123zM252 586l-48 -226h120q37 0 48 56l24 114q12 56 -24 56h-120zM375 750h-93l98 153h132z" />
    <glyph glyph-name="racute" unicode="&#x155;" horiz-adv-x="290" 
d="M337 410l-102 -31q-23 -8 -34.5 -19.5t-17.5 -35.5l-68 -324h-115l102 480l94 25h17l-12 -58q26 38 56 47l89 30h7zM230 574h-93l98 153h132z" />
    <glyph glyph-name="Rcommaaccent" unicode="&#x156;" horiz-adv-x="476" 
d="M5 0l150 710h260q145 0 115 -135l-45 -204q-25 -125 -120 -134l78 -237h-141l-77 236h-47l-50 -236h-123zM252 586l-48 -226h120q37 0 48 56l24 114q12 56 -24 56h-120zM178 -45h89l-17 -80l-102 -116h-12z" />
    <glyph glyph-name="rcommaaccent" unicode="&#x157;" horiz-adv-x="290" 
d="M337 410l-102 -31q-23 -8 -34.5 -19.5t-17.5 -35.5l-68 -324h-115l102 480l94 25h17l-12 -58q26 38 56 47l89 30h7zM70 -45h89l-17 -80l-102 -116h-12z" />
    <glyph glyph-name="Rcaron" unicode="&#x158;" horiz-adv-x="476" 
d="M5 0l150 710h260q145 0 115 -135l-45 -204q-25 -125 -120 -134l78 -237h-141l-77 236h-47l-50 -236h-123zM252 586l-48 -226h120q37 0 48 56l24 114q12 56 -24 56h-120zM385 749h-73l-71 111h102l19 -50l40 50h100z" />
    <glyph glyph-name="rcaron" unicode="&#x159;" horiz-adv-x="290" 
d="M337 410l-102 -31q-23 -8 -34.5 -19.5t-17.5 -35.5l-68 -324h-115l102 480l94 25h17l-12 -58q26 38 56 47l89 30h7zM241 574h-73l-71 111h102l18 -50l41 50h100z" />
    <glyph glyph-name="Sacute" unicode="&#x15a;" horiz-adv-x="452" 
d="M290 264l-106 69q-32 21 -41.5 28t-26 22.5t-18.5 27.5t-2.5 31.5t5.5 47.5l20 95q26 125 127 125h149q140 0 108 -125l-18 -84h-122l8 39q10 46 -19 46h-81q-29 0 -39 -47l-5 -23q-9 -46 19 -65l106 -70q9 -6 26.5 -17.5t23.5 -16t17 -14t14 -15.5t7 -17t3.5 -22.5
t-3.5 -27.5l-27 -126q-24 -125 -126 -125h-165q-138 0 -109 125l20 95h123l-10 -50q-10 -46 19 -46h97q29 0 39 46l7 34q8 39 -20 60zM376 750h-93l98 153h132z" />
    <glyph glyph-name="sacute" unicode="&#x15b;" horiz-adv-x="385" 
d="M275 405h-67q-22 0 -29 -35l-2 -9q-4 -16 1.5 -23t21.5 -13l85 -25q61 -18 75 -40.5t1 -84.5l-13 -61q-14 -64 -49.5 -89t-102.5 -25h-81q-77 0 -97 27.5t-4 102.5l6 29h106l-3 -17q-9 -36 12 -36h84q21 0 28 35l2 7q8 37 -23 48l-85 25q-68 20 -78.5 42t5.5 83l9 41
q14 69 45 96.5t108 27.5h67q77 0 96 -28.5t2 -107.5l-6 -31h-106l5 25q8 36 -13 36zM305 580h-93l98 153h132z" />
    <glyph glyph-name="Scircumflex" unicode="&#x15c;" horiz-adv-x="452" 
d="M290 264l-106 69q-32 21 -41.5 28t-26 22.5t-18.5 27.5t-2.5 31.5t5.5 47.5l20 95q26 125 127 125h149q140 0 108 -125l-18 -84h-122l8 39q10 46 -19 46h-81q-29 0 -39 -47l-5 -23q-9 -46 19 -65l106 -70q9 -6 26.5 -17.5t23.5 -16t17 -14t14 -15.5t7 -17t3.5 -22.5
t-3.5 -27.5l-27 -126q-24 -125 -126 -125h-165q-138 0 -109 125l20 95h123l-10 -50q-10 -46 19 -46h97q29 0 39 46l7 34q8 39 -20 60zM341 857h63l77 -108h-108l-18 33l-32 -33h-106z" />
    <glyph glyph-name="scircumflex" unicode="&#x15d;" horiz-adv-x="385" 
d="M275 405h-67q-22 0 -29 -35l-2 -9q-4 -16 1.5 -23t21.5 -13l85 -25q61 -18 75 -40.5t1 -84.5l-13 -61q-14 -64 -49.5 -89t-102.5 -25h-81q-77 0 -97 27.5t-4 102.5l6 29h106l-3 -17q-9 -36 12 -36h84q21 0 28 35l2 7q8 37 -23 48l-85 25q-68 20 -78.5 42t5.5 83l9 41
q14 69 45 96.5t108 27.5h67q77 0 96 -28.5t2 -107.5l-6 -31h-106l5 25q8 36 -13 36zM271 687h63l77 -108h-108l-18 33l-32 -33h-106z" />
    <glyph glyph-name="Scedilla" unicode="&#x15e;" horiz-adv-x="452" 
d="M180 -84l-23 12q-20 12 -14 39l8 33h-27q-138 0 -109 125l20 95h123l-10 -50q-10 -46 19 -46h97q29 0 39 46l7 34q8 39 -20 60l-106 69q-32 21 -41.5 28t-26 22.5t-18.5 27.5t-2.5 31.5t5.5 47.5l20 95q26 125 127 125h149q140 0 108 -125l-18 -84h-122l8 39
q10 46 -19 46h-81q-29 0 -39 -47l-5 -23q-9 -46 19 -65l106 -70q9 -6 26.5 -17.5t23.5 -16t17 -14t14 -15.5t7 -17t3.5 -22.5t-3.5 -27.5l-27 -126q-24 -125 -126 -125h-67l-3 -10q-2 -10 10 -17l18 -11q19 -10 10 -52l-8 -40q-9 -41 -23.5 -52.5t-55.5 -11.5h-36
q-43 0 -51.5 13t1.5 57l4 17h65l-1 -3q1 -12 4 -13h18q8 0 11 13l2 9q3 12 -7 17z" />
    <glyph glyph-name="scedilla" unicode="&#x15f;" horiz-adv-x="386" 
d="M146 -84l-23 12q-20 12 -14 39l8 33h-2q-77 0 -97 27.5t-4 102.5l6 29h106l-3 -17q-9 -36 12 -36h84q21 0 28 35l2 7q8 37 -23 48l-85 25q-68 20 -78.5 42t5.5 83l9 41q14 69 45 96.5t108 27.5h67q77 0 96 -28.5t2 -107.5l-6 -31h-106l5 25q8 36 -13 36h-67
q-22 0 -29 -35l-2 -9q-4 -16 1.5 -23t21.5 -13l85 -25q61 -18 75 -40.5t1 -84.5l-13 -61q-14 -64 -49.5 -89t-102.5 -25h-8l-3 -10q-2 -10 10 -17l18 -11q19 -10 10 -52l-8 -40q-9 -41 -23.5 -52.5t-55.5 -11.5h-36q-43 0 -51.5 13t1.5 57l4 17h65l-1 -3q1 -12 4 -13h18
q8 0 11 13l2 9q3 12 -7 17z" />
    <glyph glyph-name="Scaron" unicode="&#x160;" horiz-adv-x="452" 
d="M290 264l-106 69q-32 21 -41.5 28t-26 22.5t-18.5 27.5t-2.5 31.5t5.5 47.5l20 95q26 125 127 125h149q140 0 108 -125l-18 -84h-122l8 39q10 46 -19 46h-81q-29 0 -39 -47l-5 -23q-9 -46 19 -65l106 -70q9 -6 26.5 -17.5t23.5 -16t17 -14t14 -15.5t7 -17t3.5 -22.5
t-3.5 -27.5l-27 -126q-24 -125 -126 -125h-165q-138 0 -109 125l20 95h123l-10 -50q-10 -46 19 -46h97q29 0 39 46l7 34q8 39 -20 60zM386 749h-73l-71 111h102l19 -50l40 50h100z" />
    <glyph glyph-name="scaron" unicode="&#x161;" horiz-adv-x="385" 
d="M275 405h-67q-22 0 -29 -35l-2 -9q-4 -16 1.5 -23t21.5 -13l85 -25q61 -18 75 -40.5t1 -84.5l-13 -61q-14 -64 -49.5 -89t-102.5 -25h-81q-77 0 -97 27.5t-4 102.5l6 29h106l-3 -17q-9 -36 12 -36h84q21 0 28 35l2 7q8 37 -23 48l-85 25q-68 20 -78.5 42t5.5 83l9 41
q14 69 45 96.5t108 27.5h67q77 0 96 -28.5t2 -107.5l-6 -31h-106l5 25q8 36 -13 36zM316 579h-73l-71 111h102l19 -50l40 50h100z" />
    <glyph glyph-name="Tcommaaccent" unicode="&#x162;" horiz-adv-x="416" 
d="M496 586h-138l-124 -586h-124l124 586h-138l26 124h400zM117 -45h89l-17 -80l-102 -116h-12z" />
    <glyph glyph-name="Tcaron" unicode="&#x164;" horiz-adv-x="416" 
d="M496 586h-138l-124 -586h-124l124 586h-138l26 124h400zM366 749h-73l-71 111h102l19 -50l40 50h100z" />
    <glyph glyph-name="tcaron" unicode="&#x165;" horiz-adv-x="284" 
d="M346 505l-33 -115h-72l-48 -229q-10 -46 19 -46h29l-15 -115h-64q-119 0 -90 134l54 256h-58l33 115h50l14 68l123 72h8l-30 -140h80zM329 746h133l-90 -204h-50z" />
    <glyph glyph-name="Tbar" unicode="&#x166;" horiz-adv-x="418" 
d="M496 586h-138l-19 -92h89l-42 -111h-71l-81 -383h-124l81 383h-93l41 111h76l19 92h-138l26 124h400z" />
    <glyph glyph-name="Utilde" unicode="&#x168;" horiz-adv-x="486" 
d="M278 124q36 0 48 57l112 529h124l-122 -574q-28 -136 -137 -136h-158q-143 0 -115 136l122 574h124l-112 -529q-12 -57 25 -57h89zM449 852q36 0 45.5 -12.5t1.5 -51.5l-11 -51h-76l5 23q4 14 -3 14q-10 0 -25 -12l-13 -13q-16 -15 -71 -15q-36 0 -46.5 12.5t-1.5 52.5
l11 49h75l-5 -23q-3 -13 4 -13q14 0 25 12l8 10q12 12 26.5 15t50.5 3z" />
    <glyph glyph-name="utilde" unicode="&#x169;" horiz-adv-x="417" 
d="M452 505l-107 -505h-80l-4 42q-39 -42 -102 -42h-42q-119 0 -90 134l79 371h114l-73 -344q-12 -55 26 -55h43q33 0 46 47h1l74 352h115zM372 682q36 0 46 -12.5t2 -51.5l-11 -51h-76l5 23q4 14 -3 14q-10 0 -25 -12l-13 -13q-16 -15 -72 -15q-36 0 -46 12t-1 53l11 49h75
l-5 -23q-3 -13 4 -13q14 0 25 12l8 10q11 12 25.5 15t50.5 3z" />
    <glyph glyph-name="Umacron" unicode="&#x16a;" horiz-adv-x="486" 
d="M278 124q36 0 48 57l112 529h124l-122 -574q-28 -136 -137 -136h-158q-143 0 -115 136l122 574h124l-112 -529q-12 -57 25 -57h89zM515 858l-40 -106h-213l40 106h213z" />
    <glyph glyph-name="umacron" unicode="&#x16b;" horiz-adv-x="417" 
d="M452 505l-107 -505h-80l-4 42q-39 -42 -102 -42h-42q-119 0 -90 134l79 371h114l-73 -344q-12 -55 26 -55h43q33 0 46 47h1l74 352h115zM437 688l-40 -106h-213l40 106h213z" />
    <glyph glyph-name="Ubreve" unicode="&#x16c;" horiz-adv-x="486" 
d="M278 124q36 0 48 57l112 529h124l-122 -574q-28 -136 -137 -136h-158q-143 0 -115 136l122 574h124l-112 -529q-12 -57 25 -57h89zM380 745h-25q-58 0 -71 18t0 83l3 13h65l-3 -16q-7 -31 16 -31h31q23 0 30 31l3 16h65l-3 -13q-14 -66 -33 -83.5t-78 -17.5z" />
    <glyph glyph-name="ubreve" unicode="&#x16d;" horiz-adv-x="417" 
d="M452 505l-107 -505h-80l-4 42q-39 -42 -102 -42h-42q-119 0 -90 134l79 371h114l-73 -344q-12 -55 26 -55h43q33 0 46 47h1l74 352h115zM302 574h-25q-58 0 -71 17.5t0 83.5l3 13h65l-4 -16q-6 -31 17 -31h31q23 0 29 31l4 16h65l-3 -13q-14 -66 -33 -83.5t-78 -17.5z
" />
    <glyph glyph-name="Uring" unicode="&#x16e;" horiz-adv-x="486" 
d="M278 124q36 0 48 57l112 529h124l-122 -574q-28 -136 -137 -136h-158q-143 0 -115 136l122 574h124l-112 -529q-12 -57 25 -57h89zM371 915h59q43 0 52 -14.5t-2 -67.5l-8 -34q-11 -54 -25 -68.5t-57 -14.5h-60q-42 0 -51 14.5t2 68.5l8 34q11 54 25 68t57 14zM389 783
q13 0 19 22l4 22q4 22 -9 22h-31q-16 0 -20 -22l-4 -22q-6 -22 10 -22h31z" />
    <glyph glyph-name="uring" unicode="&#x16f;" horiz-adv-x="417" 
d="M452 505l-107 -505h-80l-4 42q-39 -42 -102 -42h-42q-119 0 -90 134l79 371h114l-73 -344q-12 -55 26 -55h43q33 0 46 47h1l74 352h115zM294 745h59q43 0 51.5 -14.5t-2.5 -67.5l-7 -34q-11 -54 -25 -68.5t-57 -14.5h-60q-42 0 -51 14.5t2 68.5l7 34q12 54 26.5 68
t56.5 14zM312 613q14 0 18 22l5 22q4 22 -9 22h-31q-16 0 -20 -22l-5 -22q-4 -22 11 -22h31z" />
    <glyph glyph-name="Uhungarumlaut" unicode="&#x170;" horiz-adv-x="486" 
d="M278 124q36 0 48 57l112 529h124l-122 -574q-28 -136 -137 -136h-158q-143 0 -115 136l122 574h124l-112 -529q-12 -57 25 -57h89zM366 914h101l-120 -163h-70zM471 914h100l-121 -163h-68z" />
    <glyph glyph-name="uhungarumlaut" unicode="&#x171;" horiz-adv-x="417" 
d="M452 505l-107 -505h-80l-4 42q-39 -42 -102 -42h-42q-119 0 -90 134l79 371h114l-73 -344q-12 -55 26 -55h43q33 0 46 47h1l74 352h115zM286 743h101l-119 -163h-70zM391 743h100l-120 -163h-68z" />
    <glyph glyph-name="Uogonek" unicode="&#x172;" horiz-adv-x="486" 
d="M82 -121l4 20q7 31 20 47.5t39 32.5q6 4 11.5 8t10.5 7.5t7 5.5h-29q-143 0 -115 136l122 574h124l-112 -529q-12 -57 25 -57h89q36 0 48 57l112 529h124l-122 -574q-28 -136 -137 -136h-66l-2 -6q-5 -25 -13 -35t-31 -25q-22 -15 -28 -21.5t-8 -17.5q-3 -17 9 -17h71
l-23 -67h-79q-65 0 -51 68z" />
    <glyph glyph-name="uogonek" unicode="&#x173;" horiz-adv-x="417" 
d="M162 -126l4 20q7 31 20 47.5t39 32.5q32 21 39 37l-3 31q-39 -42 -102 -42h-42q-119 0 -90 134l79 371h114l-73 -344q-12 -55 26 -55h43q33 0 46 47h1l74 352h115l-107 -505h-27l-3 -11q-5 -24 -13 -34.5t-31 -25.5q-22 -15 -28 -21.5t-8 -17.5q-3 -17 9 -17h71l-23 -67
h-79q-65 0 -51 68z" />
    <glyph glyph-name="Wcircumflex" unicode="&#x174;" horiz-adv-x="729" 
d="M255 0h-124l-11 710h125l-15 -480q0 -37 -4 -65q8 28 20 64l174 481h117l-29 -481q-2 -35 -5 -57q7 23 21 56l189 482h124l-310 -710h-126l21 431q1 9 3.5 24t6.5 33.5t5 26.5q-22 -83 -22 -84zM482 857h63l77 -108h-108l-18 33l-32 -33h-106z" />
    <glyph glyph-name="wcircumflex" unicode="&#x175;" horiz-adv-x="624" 
d="M231 0h-140l-12 505h121l-11 -366l136 366h116l-19 -366l145 366h120l-223 -505h-140l11 263v19l-7 -19zM388 687h63l77 -108h-108l-18 33l-32 -33h-106z" />
    <glyph glyph-name="Ycircumflex" unicode="&#x176;" horiz-adv-x="477" 
d="M265 0h-122l56 265l-92 445h124l46 -271q5 -41 3 -57q10 29 27 56l159 272h131l-275 -441zM352 857h63l77 -108h-108l-18 33l-32 -33h-106z" />
    <glyph glyph-name="ycircumflex" unicode="&#x177;" horiz-adv-x="402" 
d="M43 -110q20 0 33.5 14t31.5 55l17 40h-33l-15 506h120l-1 -343l150 343h124l-264 -569q-25 -54 -47.5 -86.5t-47 -48.5t-46.5 -21t-57 -5h-66l40 115h61zM266 687h63l77 -108h-108l-18 33l-32 -33h-106z" />
    <glyph glyph-name="Ydieresis" unicode="&#x178;" horiz-adv-x="477" 
d="M265 0h-122l56 265l-92 445h124l46 -271q5 -41 3 -56q9 27 27 55l159 272h131l-275 -441zM261 861h95l-25 -114h-95zM418 861h94l-25 -114h-94z" />
    <glyph glyph-name="Zacute" unicode="&#x179;" horiz-adv-x="429" 
d="M495 595l-335 -471h247l-42 -124h-369l7 114l335 472h-218l8 124h374zM358 750h-93l98 153h132z" />
    <glyph glyph-name="zacute" unicode="&#x17a;" horiz-adv-x="356" 
d="M382 412l-239 -313h183l-33 -99h-300l7 93l241 313h-156l9 99h296zM288 580h-93l98 153h132z" />
    <glyph glyph-name="Zdotaccent" unicode="&#x17b;" horiz-adv-x="429" 
d="M495 595l-335 -471h247l-42 -124h-369l7 114l335 472h-218l8 124h374zM304 886h118l-28 -133h-118z" />
    <glyph glyph-name="zdotaccent" unicode="&#x17c;" horiz-adv-x="356" 
d="M382 412l-239 -313h183l-33 -99h-300l7 93l241 313h-156l9 99h296zM233 716h118l-29 -133h-118z" />
    <glyph glyph-name="Zcaron" unicode="&#x17d;" horiz-adv-x="429" 
d="M495 595l-335 -471h247l-42 -124h-369l7 114l335 472h-218l8 124h374zM370 749h-73l-71 111h102l19 -50l40 50h100z" />
    <glyph glyph-name="zcaron" unicode="&#x17e;" horiz-adv-x="356" 
d="M382 412l-239 -313h183l-33 -99h-300l7 93l241 313h-156l9 99h296zM299 579h-73l-71 111h102l19 -50l40 50h100z" />
    <glyph glyph-name="florin" unicode="&#x192;" horiz-adv-x="323" 
d="M339 625q-29 0 -38 -46l-17 -79h79l-43 -115h-61l-91 -429q-16 -77 -56 -110t-124 -33h-73l50 115h53q29 0 39 46l87 411h-77l43 115h59l20 97q16 76 56.5 109.5t124.5 33.5h73l-50 -115h-54z" />
    <glyph glyph-name="AEacute" unicode="&#x1fc;" horiz-adv-x="703" 
d="M534 586l-8 -31l-23 -197h177l-43 -125h-149l-13 -109h204l-43 -124h-307l14 121h-177l-77 -121h-137l463 710h387l-42 -124h-226zM384 458l-137 -213h112zM555 758h-93l98 153h132z" />
    <glyph glyph-name="aeacute" unicode="&#x1fd;" horiz-adv-x="625" 
d="M385 115h63q28 0 37 38l2 10h106l-5 -26q-18 -82 -52 -109.5t-112 -27.5h-63q-54 0 -83.5 12t-36.5 43l-3 -2q-22 -32 -41.5 -42.5t-57.5 -10.5h-52q-101 0 -74 123l15 73q24 114 124 114h131l10 43q9 43 -21 43h-49q-30 0 -39 -43l-2 -7h-106l9 43q26 122 128 122h117
q31 0 55 -11q30 11 84 11h63q74 0 99.5 -23.5t9.5 -100.5l-17 -77q-14 -67 -40.5 -92t-100.5 -25h-110l-9 -38q-7 -40 21 -40zM508 396h-47q-24 0 -36 -8t-18 -33l-12 -56h94q27 0 33 30l8 34q6 33 -22 33zM136 115h78q25 0 36 40l11 49h-105q-22 0 -30 -42l-3 -12
q-8 -35 13 -35zM429 570h-93l98 153h132z" />
    <glyph glyph-name="Oslashacute" unicode="&#x1fe;" horiz-adv-x="517" 
d="M516 759h134l-89 -125q5 -29 -3 -68l-16 -74h-1l-74 -348q-30 -144 -147 -144h-167q-23 0 -41 3l-37 -52h-132l86 122q-6 29 3 71l14 67h1l76 355q30 144 147 144h166q24 0 43 -3zM393 586h-107q-36 0 -48 -56l-49 -232zM352 180l48 228l-202 -284h106q35 0 48 56z
M353 750h-93l98 153h132z" />
    <glyph glyph-name="oslashacute" unicode="&#x1ff;" horiz-adv-x="426" 
d="M205 511h122q25 0 41 -4l33 43h109l-75 -98q8 -33 -2 -76l-52 -242q-29 -134 -137 -134h-122q-21 0 -37 3l-26 -33h-107l69 90q-6 30 3 74l52 242q30 135 129 135zM324 580h-93l98 153h132zM232 111q29 0 39 46l25 117l-127 -163h63zM187 354l-24 -111l122 157h-60
q-28 0 -38 -46z" />
    <glyph glyph-name="Scommaaccent" unicode="&#x218;" horiz-adv-x="452" 
d="M290 264l-106 69q-32 21 -41.5 28t-26 22.5t-18.5 27.5t-2.5 31.5t5.5 47.5l20 95q26 125 127 125h149q140 0 108 -125l-18 -84h-122l8 39q10 46 -19 46h-81q-29 0 -39 -47l-5 -23q-9 -46 19 -65l106 -70q9 -6 26.5 -17.5t23.5 -16t17 -14t14 -15.5t7 -17t3.5 -22.5
t-3.5 -27.5l-27 -126q-24 -125 -126 -125h-165q-138 0 -109 125l20 95h123l-10 -50q-10 -46 19 -46h97q29 0 39 46l7 34q8 39 -20 60zM142 -45h89l-17 -80l-102 -116h-12z" />
    <glyph glyph-name="scommaaccent" unicode="&#x219;" horiz-adv-x="386" 
d="M275 405h-67q-22 0 -29 -35l-2 -9q-4 -16 1.5 -23t21.5 -13l85 -25q61 -18 75 -40.5t1 -84.5l-13 -61q-14 -64 -49.5 -89t-102.5 -25h-81q-77 0 -97 27.5t-4 102.5l6 29h106l-3 -17q-9 -36 12 -36h84q21 0 28 35l2 7q8 37 -23 48l-85 25q-68 20 -78.5 42t5.5 83l9 41
q14 69 45 96.5t108 27.5h67q77 0 96 -28.5t2 -107.5l-6 -31h-106l5 25q8 36 -13 36zM106 -45h89l-17 -80l-102 -116h-12z" />
    <glyph glyph-name="dotlessj" unicode="&#x237;" horiz-adv-x="214" 
d="M109 390h-54l25 115h169l-126 -592q-25 -123 -136 -123h-81l42 115h29q29 0 39 44z" />
    <glyph glyph-name="circumflex" unicode="&#x2c6;" horiz-adv-x="478" 
d="M295 733h63l77 -108h-108l-18 33l-32 -33h-106z" />
    <glyph glyph-name="caron" unicode="&#x2c7;" horiz-adv-x="680" 
d="M340 625h-73l-70 111h102l18 -50l41 50h100z" />
    <glyph glyph-name="breve" unicode="&#x2d8;" horiz-adv-x="667" 
d="M397 576h-25q-58 0 -71 18t0 83l3 13h65l-3 -16q-7 -31 16 -31h31q23 0 30 31l3 16h65l-3 -13q-14 -66 -33 -83.5t-78 -17.5z" />
    <glyph glyph-name="dotaccent" unicode="&#x2d9;" horiz-adv-x="666" 
d="M319 726h118l-28 -133h-118z" />
    <glyph glyph-name="ring" unicode="&#x2da;" horiz-adv-x="667" 
d="M360 708h59q43 0 52 -14.5t-2 -67.5l-8 -34q-11 -54 -25 -68.5t-57 -14.5h-60q-42 0 -51 14.5t2 68.5l8 34q11 54 25 68t57 14zM378 576q13 0 19 22l4 22q4 22 -9 22h-31q-16 0 -20 -22l-4 -22q-6 -22 10 -22h31z" />
    <glyph glyph-name="ogonek" unicode="&#x2db;" horiz-adv-x="667" 
d="M141 -126l4 20q7 31 20 47.5t39 32.5t32 24t10 27l3 16h56l-11 -52q-5 -24 -13 -34.5t-31 -25.5q-22 -15 -28 -21.5t-8 -17.5q-3 -17 9 -17h71l-23 -67h-79q-65 0 -51 68z" />
    <glyph glyph-name="tilde" unicode="&#x2dc;" horiz-adv-x="656" 
d="M412 723q36 0 46 -12.5t2 -51.5l-11 -51h-76l5 23q2 14 -3 14q-10 0 -25 -12l-14 -13q-15 -15 -71 -15q-36 0 -46 12t-1 53l10 49h75l-5 -23q-1 -13 5 -13q14 0 24 12l8 10q12 12 26.5 15t50.5 3z" />
    <glyph glyph-name="hungarumlaut" unicode="&#x2dd;" horiz-adv-x="204" 
d="M192 748h101l-119 -163h-70zM297 748h100l-120 -163h-68z" />
    <glyph glyph-name="Wgrave" unicode="&#x1e80;" horiz-adv-x="729" 
d="M255 0h-124l-11 710h125l-15 -480q0 -37 -4 -65q8 28 20 64l174 481h117l-29 -481q-2 -35 -5 -57q7 23 21 56l189 482h124l-310 -710h-126l21 431q1 9 3.5 24t6.5 33.5t5 26.5q-22 -83 -22 -84zM378 881h117l37 -132h-76z" />
    <glyph glyph-name="wgrave" unicode="&#x1e81;" horiz-adv-x="624" 
d="M231 0h-140l-12 505h121l-11 -366l136 366h116l-19 -366l145 366h120l-223 -505h-140l11 263v19l-7 -19zM285 711h117l37 -132h-76z" />
    <glyph glyph-name="Wacute" unicode="&#x1e82;" horiz-adv-x="729" 
d="M255 0h-124l-11 710h125l-15 -480q0 -37 -4 -65q8 28 20 64l174 481h117l-29 -481q-2 -35 -5 -57q7 23 21 56l189 482h124l-310 -710h-126l21 431q1 9 3.5 24t6.5 33.5t5 26.5q-22 -83 -22 -84zM518 750h-93l98 153h132z" />
    <glyph glyph-name="wacute" unicode="&#x1e83;" horiz-adv-x="624" 
d="M231 0h-140l-12 505h121l-11 -366l136 366h116l-19 -366l145 366h120l-223 -505h-140l11 263v19l-7 -19zM424 580h-93l98 153h132z" />
    <glyph glyph-name="Wdieresis" unicode="&#x1e84;" horiz-adv-x="729" 
d="M255 0h-124l-11 710h125l-15 -480q0 -37 -4 -65q8 28 20 64l174 481h117l-29 -481q-2 -35 -5 -57q7 23 21 56l189 482h124l-310 -710h-126l21 431q1 9 3.5 24t6.5 33.5t5 26.5q-22 -83 -22 -84zM390 861h95l-25 -114h-95zM547 861h94l-25 -114h-94z" />
    <glyph glyph-name="wdieresis" unicode="&#x1e85;" horiz-adv-x="624" 
d="M231 0h-140l-12 505h121l-11 -366l136 366h116l-19 -366l145 366h120l-223 -505h-140l11 263v19l-7 -19zM297 691h95l-24 -114h-95zM454 691h94l-24 -114h-94z" />
    <glyph glyph-name="Ygrave" unicode="&#x1ef2;" horiz-adv-x="477" 
d="M265 0h-122l56 265l-92 445h124l46 -271q5 -41 3 -57q10 29 27 56l159 272h131l-275 -441zM248 881h117l37 -132h-76z" />
    <glyph glyph-name="ygrave" unicode="&#x1ef3;" horiz-adv-x="402" 
d="M43 -110q20 0 33.5 14t31.5 55l17 40h-33l-15 506h120l-1 -343l150 343h124l-264 -569q-25 -54 -47.5 -86.5t-47 -48.5t-46.5 -21t-57 -5h-66l40 115h61zM161 711h117l37 -132h-76z" />
    <glyph glyph-name="endash" unicode="&#x2013;" horiz-adv-x="409" 
d="M417 349l-42 -115h-330l42 115h330z" />
    <glyph glyph-name="emdash" unicode="&#x2014;" horiz-adv-x="510" 
d="M509 349l-41 -115h-414l43 115h412z" />
    <glyph glyph-name="quoteleft" unicode="&#x2018;" horiz-adv-x="190" 
d="M240 482h-154l92 238h60z" />
    <glyph glyph-name="quoteright" unicode="&#x2019;" horiz-adv-x="180" 
d="M132 720h155l-105 -238h-59z" />
    <glyph glyph-name="quotesinglbase" unicode="&#x201a;" horiz-adv-x="208" 
d="M20 132h155l-105 -238h-59z" />
    <glyph glyph-name="quotedblleft" unicode="&#x201c;" horiz-adv-x="366" 
d="M415 482h-154l92 238h60zM240 482h-154l92 238h60z" />
    <glyph glyph-name="quotedblright" unicode="&#x201d;" horiz-adv-x="355" 
d="M307 720h155l-105 -238h-59zM132 720h155l-105 -238h-59z" />
    <glyph glyph-name="quotedblbase" unicode="&#x201e;" horiz-adv-x="373" 
d="M195 166h155l-105 -238h-59zM22 166h155l-105 -238h-59z" />
    <glyph glyph-name="dagger" unicode="&#x2020;" horiz-adv-x="338" 
d="M28 234l43 115h79l85 403l104 25h17l-91 -428h96l-41 -115h-80l-103 -484h-115l103 484h-97z" />
    <glyph glyph-name="daggerdbl" unicode="&#x2021;" horiz-adv-x="344" 
d="M57 354l42 116h79l60 282l104 25h16l-66 -307h97l-40 -116h-81l-28 -131h97l-41 -116h-81l-76 -357h-114l76 357h-97l43 116h79l28 131h-97z" />
    <glyph glyph-name="bullet" unicode="&#x2022;" horiz-adv-x="435" 
d="M50 108l68 317h296l-68 -317h-296z" />
    <glyph glyph-name="ellipsis" unicode="&#x2026;" horiz-adv-x="642" 
d="M235 -5l30 138h129l-30 -138h-129zM459 -5l30 138h129l-30 -138h-129zM-37 -5l29 138h129l-30 -138h-128z" />
    <glyph glyph-name="perthousand" unicode="&#x2030;" horiz-adv-x="891" 
d="M657 257q18 83 90 83h89q72 0 54 -83l-37 -173q-18 -84 -89 -84h-89q-73 0 -55 84zM381 257q18 83 90 83h89q72 0 54 -83l-37 -173q-18 -84 -89 -84h-89q-73 0 -55 84zM477 262q-13 0 -18 -9t-10 -36l-24 -109q-6 -30 13 -30h44q13 0 17.5 8.5t10.5 36.5l23 109
q6 30 -12 30h-44zM753 262q-14 0 -18.5 -9t-10.5 -39l-23 -106q-6 -30 13 -30h44q14 0 18.5 9t10.5 39l23 106q6 30 -13 30h-44zM116 627q17 83 88 83h90q72 0 55 -83l-37 -173q-18 -84 -90 -84h-90q-71 0 -53 84zM255 632h-43q-20 0 -27 -30l-26 -124q-6 -30 14 -30h43
q19 0 25 30l26 124q7 30 -12 30zM104 0l402 710h84l-404 -710h-82z" />
    <glyph glyph-name="guilsinglleft" unicode="&#x2039;" horiz-adv-x="277" 
d="M233 69h-133l-66 183l144 183h133l-144 -183z" />
    <glyph glyph-name="guilsinglright" unicode="&#x203a;" horiz-adv-x="277" 
d="M135 69h-133l144 183l-66 183h133l66 -183z" />
    <glyph glyph-name="fraction" unicode="&#x2044;" horiz-adv-x="307" 
d="M-48 0l402 710h84l-404 -710h-82z" />
    <glyph glyph-name="foursuperior" unicode="&#x2074;" horiz-adv-x="212" 
d="M85 473l16 77q5 24 23 43l105 117h70l-127 -142q-12 -13 -14 -26l-2 -10h33l6 31l40 9h18l-8 -40h25l-21 -59h-17l-9 -44h-56l9 44h-91z" />
    <glyph glyph-name="Euro" unicode="&#x20ac;" horiz-adv-x="563" 
d="M378 331l-42 -115h-107l-7 -36q-12 -56 26 -56h116q36 0 49 56l6 31h124l-16 -76q-16 -76 -59 -105.5t-125 -29.5h-156q-127 0 -98 135l17 81h-78l43 115h60l9 45h-78l43 116h60l18 83q29 135 154 135h156q82 0 113 -30t15 -105l-16 -74h-124l6 29q12 56 -25 56h-116
q-38 0 -50 -56l-8 -38h157l-42 -116h-140l-9 -45h124z" />
    <glyph glyph-name="trademark" unicode="&#x2122;" horiz-adv-x="673" 
d="M663 317h-90l46 218l-51 -79h-69l-17 79l-46 -218h-88l83 393h88l39 -138l98 138h90zM388 620h-86l-64 -303h-88l64 303h-84l19 90h258z" />
    <glyph glyph-name="minus" unicode="&#x2212;" horiz-adv-x="445" 
d="M46 234l44 124h363l-43 -124h-364z" />
    <glyph glyph-name="commaaccent" unicode="&#xf6c3;" horiz-adv-x="399" 
d="M114 -45h89l-17 -80l-102 -116h-12z" />
    <glyph glyph-name="s_t" unicode="&#xfb06;" horiz-adv-x="711" 
d="M275 405h-67q-22 0 -29 -35l-2 -9q-4 -16 1.5 -23t21.5 -13l85 -25q61 -18 75 -40.5t1 -84.5l-13 -61q-14 -64 -49.5 -89t-102.5 -25h-81q-77 0 -97 27.5t-4 102.5l6 29h106l-3 -17q-9 -36 12 -36h84q21 0 28 35l2 7q8 37 -23 48l-85 25q-68 20 -78.5 42t5.5 83l9 41
q14 69 45 96.5t108 27.5h67q77 0 96 -28.5t2 -107.5l-6 -31h-106l5 25q8 36 -13 36zM773 505l-33 -115h-72l-48 -229q-10 -46 19 -46h29l-15 -115h-64q-119 0 -90 134l54 256h-58l33 115h50l14 68l123 72h8l-30 -140h80z" />
    <glyph glyph-name="g.001" horiz-adv-x="438" 
d="M52 258l26 121q15 71 54 98.5t111 27.5h45q42 0 64 -5l100 91l64 -97l-93 -84q-7 -37 -17 -77l-17 -81q-27 -123 -134 -126l-58 -2q-15 -1 -19.5 -5.5t-6.5 -13.5l-1 -4q-2 -12 1.5 -17t17.5 -5h89q68 0 93.5 -27.5t10.5 -98.5l-13 -60q-18 -85 -53 -116t-112 -31h-125
q-84 0 -104 31t0 115l12 58q11 53 25.5 78t50.5 36q-24 12 -19 34l1 5q4 15 11.5 22.5t25.5 13.5q-33 10 -37.5 45t7.5 74zM129 -148h72q24 0 36.5 9t18.5 38l6 27q1 17 2 26.5t-6.5 14t-13.5 5.5t-17 1h-78q-27 0 -36.5 -8.5t-16.5 -43.5l-5 -22q-6 -28 3.5 -37.5
t34.5 -9.5zM264 399h-38q-29 0 -41 -56l-11 -55q-7 -34 -0.5 -45t29.5 -11h12q39 0 49.5 9.5t19.5 53.5l9 40q8 40 2 52t-31 12z" />
    <glyph glyph-name="i.001" horiz-adv-x="276" 
d="M97 385h-39l25 116h49q69 0 95 -28t11 -98l-46 -219q-10 -47 19 -47h38l-25 -115h-48q-70 0 -95.5 28t-10.5 98l47 219q9 46 -20 46zM162 583l30 138h129l-30 -138h-129z" />
    <glyph glyph-name="G.001" horiz-adv-x="487" 
d="M285 260l26 124h189l-54 -254q-28 -135 -155 -135h-166q-125 0 -96 135l95 445q28 135 153 135h166q127 0 98 -135l-25 -118h-124l15 73q6 32 1 44t-23 12h-99q-37 0 -50 -62l-75 -350q-12 -55 26 -55h97q35 0 47 55l19 86h-65z" />
    <glyph glyph-name="P.slt" horiz-adv-x="455" 
d="M127 0h-123l124 584q15 73 57.5 99.5t127.5 26.5h118q117 0 91 -126l-36 -167q-21 -101 -55 -141.5t-118 -40.5h-100q-18 0 -31 -17.5t-18 -41.5zM279 586q-28 0 -41 -65q-1 -5 -2 -8l-40 -187q12 21 27.5 27t39.5 6h60q29 0 39 46l26 122q6 37 1 48t-26 11h-84z" />
    <glyph glyph-name="N.001" horiz-adv-x="472" 
d="M279 586q-28 0 -38 -48l-114 -538h-123l123 583q27 127 144 127h158q118 0 91 -127l-123 -583h-124l114 538q10 48 -18 48h-90z" />
    <glyph glyph-name="S.bd" horiz-adv-x="479" 
d="M322 295h-147q-118 0 -91 126l35 163q25 126 144 126h182q117 0 91 -126l-18 -83h-123l8 38q10 47 -19 47h-113q-29 0 -39 -47l-15 -73q-10 -46 19 -46h148q117 0 90 -126l-37 -175q-27 -126 -144 -126h-182q-118 0 -91 126l19 92h123l-10 -48q-9 -46 19 -46h113
q30 0 39 46l18 86q10 46 -19 46z" />
    <glyph glyph-name="N.bd" horiz-adv-x="497" 
d="M5 1l148 698h123l-16 -77q-1 -7 -1 -12t0.5 -8t3.5 -6t5 -4t7 -4t8 -5l120 -87l43 203h123l-148 -698h-123l70 333q1 7 1 12t-0.5 8t-3.5 6t-5 4t-7 4t-8 5l-120 87l-97 -459h-123z" />
    <glyph glyph-name="T.002" horiz-adv-x="436" 
d="M509 586h-143l-124 -586h-124l124 586h-151l43 124h417z" />
    <glyph glyph-name="I.bd" horiz-adv-x="346" 
d="M225 124h88l-26 -124h-299l25 124h88l98 462h-88l26 124h300l-26 -124h-88z" />
    <glyph glyph-name="Z.bd" horiz-adv-x="451" 
d="M351 358l-172 -139q-39 -31 -43 -51l-3 -14q-4 -22 0.5 -29.5t18.5 -7.5h259l-26 -124h-293q-115 0 -89 125l14 68q5 25 22 48t29.5 34.5t50 40t50.5 38.5l173 138q4 3 11 8.5t9 7.5t6.5 6t6 6.5t4 6.5t3.5 7.5t2 8.5l3 13q9 37 -20 37h-229l26 124h264q116 0 90 -125
l-14 -67q-5 -25 -21.5 -47.5t-31 -35t-49 -38.5t-51.5 -39z" />
    <glyph glyph-name="V.bd" horiz-adv-x="535" 
d="M271 190l260 513l105 -47l-344 -659h-123l-64 659l125 47z" />
    <glyph glyph-name="X.bd" horiz-adv-x="475" 
d="M287 402l184 302l104 -46l-199 -309l68 -308l-125 -46l-58 284l-180 -284l-104 46l199 308l-69 309l124 46z" />
    <glyph glyph-name="a.001" horiz-adv-x="402" 
d="M236 0l1 50q-22 -30 -41.5 -40t-58.5 -10h-34q-62 0 -84 30t-8 93l16 73q24 114 108 114h147l10 43q9 43 -22 43h-48q-29 0 -38 -43l-2 -7h-107l9 43q24 122 111 122h116q129 0 102 -122l-82 -389h-95zM144 115h69q28 0 38 47l9 42h-105q-14 0 -20 -10t-10 -32l-3 -12
q-8 -35 22 -35z" />
    <glyph glyph-name="G.002" horiz-adv-x="487" 
d="M283 259l26 124h193l-54 -253q-28 -135 -155 -135h-167q-64 0 -87.5 32.5t-9.5 100.5l95 447q28 135 154 135h292l-43 -124h-240q-38 0 -50 -56l-76 -356q-12 -55 27 -55h98q36 0 49 56l17 84h-69z" />
    <glyph glyph-name="o.001" horiz-adv-x="666" 
 />
    <glyph glyph-name="i.002" horiz-adv-x="224" 
d="M120 389h-64l20 92l92 24h92l-107 -505h-115zM164 612l29 138h129l-29 -138h-129z" />
    <glyph glyph-name="u.bd" horiz-adv-x="424" 
d="M352 0h-105l8 42q-39 -42 -105 -42h-43q-110 0 -83 125l76 355l94 25h26l-73 -344q-12 -55 24 -55h52q35 0 47 45l70 329l94 25h25z" />
    <glyph glyph-name="w.bd" horiz-adv-x="611" 
d="M240 0h-140l-28 505h121l5 -366l85 196h116l1 -196l161 366h120l-240 -505h-140l-7 115z" />
    <glyph glyph-name="H.slt" horiz-adv-x="488" 
d="M128 0h-123l145 685l103 25h25l-75 -353h160l70 328l103 25h26l-150 -710h-124l49 233h-160z" />
    <glyph glyph-name="I.slt" horiz-adv-x="205" 
d="M128 0h-123l145 685l103 25h25z" />
    <glyph glyph-name="J.slt" horiz-adv-x="278" 
d="M68 124q37 0 50 55l107 506l103 25h25l-122 -576q-29 -134 -154 -134h-111l42 124h60z" />
    <glyph glyph-name="K.slt" horiz-adv-x="465" 
d="M128 0h-123l145 685l103 25h25l-59 -279l216 279h153l-274 -355l124 -355h-153l-98 278z" />
    <glyph glyph-name="L.slt" horiz-adv-x="390" 
d="M180 240h-1l-25 -116h225l-43 -124h-331l121 570h1l24 115l103 25h25z" />
    <glyph glyph-name="N.slt" horiz-adv-x="509" 
d="M433 0h-123l-88 445l-94 -445h-123l145 685l103 25h25l89 -440l88 415l102 25h26z" />
    <glyph glyph-name="M.slt" horiz-adv-x="573" 
d="M497 0h-123l94 445l-109 -214h-118l-19 214l-94 -445h-123l145 685l103 25h25l59 -310l169 283l12 3q18 4 53 12.5t51 11.5h25z" />
    <glyph glyph-name="U.slt" horiz-adv-x="496" 
d="M164 181q-12 -57 25 -57h98q37 0 49 57l107 504l103 25h25l-122 -574q-28 -136 -154 -136h-166q-126 0 -98 136l117 549l103 25h25z" />
    <glyph glyph-name="T.bd" horiz-adv-x="441" 
d="M522 586h-151l-124 -586h-124l124 586h-151l26 124h426z" />
    <glyph glyph-name="ampersand.001" horiz-adv-x="526" 
d="M399 0l-24 40q-30 -25 -48.5 -32.5t-49.5 -7.5h-133q-153 0 -123 144l21 99h1l7 30q23 109 92 135q1 9 5 29l15 67h1l13 62q30 144 147 144h103q152 0 122 -144l-28 -129q-29 -137 -135 -144l41 -69l30 30l60 -81l-37 -35l26 -43zM403 468l12 58h1l1 4q11 53 -23 56h-53
q-37 0 -49 -56l-6 -29h-1l-6 -28q-12 -55 21 -56h58q34 1 46 51h-1zM178 124h116q14 0 27 6l-95 163h-12q-37 0 -49 -55l-12 -58q-13 -56 25 -56z" />
    <glyph glyph-name="A.B" horiz-adv-x="501" 
d="M192 710h238l39 -710h-130l-1 43l-192 64l-47 -107h-128l278 586h-83zM330 518l-71 -159l73 -25zM206 243l-8 -20l137 -46v22z" />
    <glyph glyph-name="B.s" horiz-adv-x="462" 
d="M5 0l150 710h181q127 0 98 -134l-17 -78q-9 -43 -21.5 -61.5t-37.5 -26.5q20 0 32.5 -0.5t29 -3t26 -7.5t19 -14.5t13 -22.5t3.5 -33t-5 -46l-32 -148q-28 -135 -152 -135h-287zM194 311l-40 -187h130q35 0 47 56l16 75q12 56 -19 56h-134zM252 586l-32 -150h45
q25 0 34 44l12 60q10 46 -17 46h-42z" />
    <glyph glyph-name="C.s" horiz-adv-x="468" 
d="M228 325h81q37 0 48 56l4 17h123l-13 -62q-29 -135 -154 -135h-124q-153 0 -122 144l35 166h1l12 55q30 144 147 144h159q125 0 97 -135l-15 -69h-123l5 24q12 56 -25 56h-81q-37 0 -49 -56l-6 -29h-1l-19 -89h1l-7 -31q-11 -56 26 -56zM425 124l-26 -124h-400l26 124
h400z" />
    <glyph glyph-name="D.s" horiz-adv-x="518" 
d="M90 586l26 124h346q142 0 108 -155l-42 -199q-33 -155 -174 -155h-270l82 385h-76zM469 124l-26 -124h-401l26 124h401zM401 586h-112l-55 -261h112q53 0 70 76l24 114q12 71 -39 71z" />
    <glyph glyph-name="E.s.001" horiz-adv-x="422" 
d="M252 586l-21 -98h168l-44 -125h-150l-5 -20h145l-44 -125h-127l-20 -94h244l-44 -124h-349l150 710h366l-43 -124h-226z" />
    <glyph glyph-name="F.s.001" horiz-adv-x="401" 
d="M252 586l-21 -98h168l-44 -125h-150l-5 -20h145l-44 -125h-127l-46 -218h-123l150 710h358l-43 -124h-218z" />
    <glyph glyph-name="G.s" horiz-adv-x="449" 
d="M89 414l23 104h1l10 48q30 144 146 144h112q127 0 98 -135l-36 -170q-30 -135 -155 -135h-49l-12 -55h75q152 0 122 -144l-16 -74h-1l-13 -59q-30 -144 -148 -144h-140q-77 0 -106.5 35.5t-15.5 108.5l26 123h1l3 10q23 113 97 136l17 79q-59 31 -39 128zM141 -82h88
q32 0 45 37l21 97h1q1 38 -29 38h-90q-37 0 -49 -55l-6 -29h-1v-1h1l-7 -32q-12 -55 26 -55zM246 394h37q33 2 45 56l17 80q12 53 -21 56h-41q-33 -3 -45 -56l-6 -29h-1l-4 -20h1l-7 -31q-11 -56 25 -56z" />
    <glyph glyph-name="H.s" horiz-adv-x="493" 
d="M128 1h-123l151 710h123l-55 -258l152 -59l67 316h124l-150 -710h-124l26 123l-153 59zM197 329l-4 -23l152 -59l5 23z" />
    <glyph glyph-name="I.s" horiz-adv-x="445" 
d="M413 124l-26 -124h-400l25 124h137l98 462h-137l26 124h401l-26 -124h-141l-98 -462h141z" />
    <glyph glyph-name="J.s" horiz-adv-x="475" 
d="M266 124q37 0 49 57l53 250h-90l19 125h98l6 30h-145l18 124h276l-122 -574q-28 -136 -154 -136h-167q-125 0 -97 136l28 128h122l-18 -83q-12 -57 26 -57h98z" />
    <glyph glyph-name="K.s" horiz-adv-x="475" 
d="M451 710h137l-322 -408l199 -68l-49 -234h-124l31 148l-153 52l-42 -200h-123l150 710h123l-64 -301z" />
    <glyph glyph-name="L.s" horiz-adv-x="398" 
d="M275 710l-81 -385h223l-43 -124h-330l108 509h123zM365 124l-26 -124h-337l26 124h337z" />
    <glyph glyph-name="M.s" horiz-adv-x="574" 
d="M128 0h-123l150 710h122l86 -178l162 178h123l-150 -710h-124l71 336l-160 -169l-86 169zM244 546l-10 -44l86 -169l160 169l10 44l-160 -169z" />
    <glyph glyph-name="N.s" horiz-adv-x="497" 
d="M5 1l148 698h123l-16 -77q-1 -7 -1 -12t0.5 -8t3.5 -6t5 -4t7 -4t8 -5l120 -87l43 203h123l-148 -698h-123l70 333q1 7 1 12t-0.5 8t-3.5 6t-5 4t-7 4t-8 5l-120 87l-97 -459h-123z" />
    <glyph glyph-name="O.s" horiz-adv-x="483" 
d="M71 346l36 170h1l11 50q30 144 147 144h149q152 0 122 -144l-16 -74h-1l-15 -70h1l-16 -76q-31 -144 -149 -144h-149q-78 0 -107.5 35.5t-13.5 108.5zM433 124l-26 -124h-410l26 124h410zM374 386l27 130h1l3 14q11 56 -25 56h-98q-36 0 -48 -56l-6 -29h-1l-19 -88h1
l-7 -32q-12 -55 26 -55h97q36 0 48 55l2 5h-1z" />
    <glyph glyph-name="P.s" horiz-adv-x="456" 
d="M129 586l26 124h268q127 0 98 -134l-44 -209q-29 -134 -155 -134h-145l-49 -233h-123l75 357h234q37 0 49 55l25 119q12 55 -25 55h-234z" />
    <glyph glyph-name="Q.s" horiz-adv-x="483" 
d="M233 202h-52q-153 0 -122 144l35 165h1l12 55q30 144 147 144h166q151 0 121 -144l-16 -74h-1l-15 -70h1l-16 -76q-18 -83 -63 -119l-19 -89zM217 326h113q36 0 48 55l32 149q11 56 -25 56h-114q-37 0 -49 -56l-6 -29h-1l-19 -88h1l-7 -32q-12 -55 27 -55zM202 55l27 124
l178 -63l-26 -125z" />
    <glyph glyph-name="R.s" horiz-adv-x="470" 
d="M316 -29l-80 262h-59l-49 -233h-123l75 357h118l-69 229l26 124h268q127 0 98 -134l-44 -209q-23 -102 -100 -126l56 -193zM363 586h-86l63 -220q15 11 23 46l25 119q12 55 -25 55z" />
    <glyph glyph-name="S.s" horiz-adv-x="458" 
d="M232 532q-4 -10 0 -18.5t7.5 -12.5t14.5 -11l100 -74l-13 -61l11 -7q63 -41 77 -58q23 -28 13 -75l-19 -90q-27 -125 -143 -125h-176q-118 0 -91 125l18 86h123l-8 -41q-10 -46 18 -46h108q29 0 39 46l3 18q4 11 1 18.5t-7 12t-12 10.5q-2 1 -3 2l-117 82l13 62
q-4 2 -11 7q-34 22 -48.5 33.5t-24.5 35t-3 54.5l17 80q26 125 144 125h159q117 0 91 -125l-18 -84h-123l8 39q10 46 -18 46h-91q-28 0 -38 -47z" />
    <glyph glyph-name="T.s" horiz-adv-x="460" 
d="M255 0h-123l92 433h-131l26 124h387l-26 -124h-133zM535 586h-435l26 124h435z" />
    <glyph glyph-name="U.s" horiz-adv-x="485" 
d="M327 325q35 0 48 57l69 328h123l-79 -373q-28 -136 -154 -136h-167q-125 0 -97 136l79 373h124l-69 -328q-13 -57 24 -57h99zM435 124l-26 -124h-409l26 124h409z" />
    <glyph glyph-name="V.s" horiz-adv-x="433" 
d="M285 201h-124l-26 509h127l2 -317l136 317h127zM412 124l-26 -124h-409l25 124h410z" />
    <glyph glyph-name="W.s" horiz-adv-x="575" 
d="M155 710h123l-72 -339l154 151l92 -151l72 339h124l-150 -710h-123l-88 178l-160 -178h-122zM171 206l-7 -34l158 169l88 -169l7 34l-88 169z" />
    <glyph glyph-name="X.s" horiz-adv-x="534" 
d="M441 440l62 -440h-136l-41 293l-19 -23l39 -270h-136l-18 125l-98 -125h-134l212 270l-61 440h135l41 -295l19 24l-38 271h136l17 -124l98 124h136z" />
    <glyph glyph-name="Y.s" horiz-adv-x="525" 
d="M230 502l31 -59l6 32l-137 235h144l75 -144l130 144h145l-232 -233l-6 -30l49 55h145l-232 -233l-57 -269h-124l56 267l-137 235h144z" />
    <glyph glyph-name="Z.s" horiz-adv-x="459" 
d="M115 442l10 124h209l15 20h-224l9 124h382l-8 -115l-237 -324h198l-43 -125h-246l-16 -22h254l-43 -124h-377l7 114l238 328h-128z" />
    <glyph glyph-name="E.s" 
d="M250 586l-21 -98h168l-43 -125h-273l73 347h366l-43 -124h-227zM353 0h-349l72 343h267l-43 -125h-128l-20 -94h244z" />
    <glyph glyph-name="F.s" horiz-adv-x="401" 
d="M250 586l-21 -98h168l-43 -125h-273l73 347h358l-43 -124h-219zM126 0h-122l72 343h267l-43 -125h-128z" />
    <glyph glyph-name="H.s.001" horiz-adv-x="492" 
d="M128 1h-123l151 710h123l-58 -272h165l57 271h123l-150 -710h-123l33 159h-165zM194 315l-6 -31h165l6 31h-165z" />
    <glyph glyph-name="L.s.001" horiz-adv-x="400" 
d="M278 710l-91 -432h221l-44 -124h-204l-6 -30h223l-43 -124h-329l150 710h123z" />
    <glyph glyph-name="Q.s.001" horiz-adv-x="478" 
d="M261 1h-114l42 201h-9q-78 0 -107.5 35.5t-13.5 108.5l35 165h1l12 55q30 144 147 144h165q78 0 107.5 -35.5t14.5 -108.5l-16 -74h-1l-15 -70h1l-16 -76q-31 -144 -148 -144h-43zM216 326l17 80h114l-17 -80q34 0 47 52l32 152q11 56 -24 56h-114q-37 0 -49 -56l-6 -29
h-1l-19 -88h1l-7 -32q-12 -55 26 -55z" />
    <glyph glyph-name="A.s.001" horiz-adv-x="567" 
d="M340 710h123l24 -452h99l-26 -125h-66l8 -133h-131l-3 133h-178l-59 -133h-128l63 133h-72l26 125h105l156 327h-83l26 124h115zM362 518l-117 -260h120z" />
    <glyph glyph-name="N.s.001" horiz-adv-x="508" 
d="M128 0h-123l150 710h123l-11 -55l168 -60l24 115h123l-150 -710h-123l68 324l-168 59zM240 530l-5 -22l169 -60l5 23z" />
    <glyph glyph-name="O.s.001" horiz-adv-x="510" 
d="M31 144l14 67h1l76 355q30 144 147 144h166q78 0 107.5 -35.5t14.5 -108.5l-90 -422q-30 -144 -147 -144h-167q-152 0 -122 144zM401 586h-115q-37 0 -49 -56l-74 -350q-13 -56 25 -56h115q35 0 48 56l74 350q11 56 -24 56zM212 280l29 138h129l-29 -138h-129z" />
    <glyph glyph-name="N.s.002" horiz-adv-x="508" 
d="M128 0h-123l150 710h123l-11 -55l168 -60l24 115h123l-150 -710h-123l100 471l-169 59z" />
    <glyph glyph-name="C.spec" horiz-adv-x="542" 
d="M446 586h-99q-37 0 -49 -56l-7 -34l93 -33l-26 -124l-93 33l-5 -23l93 -32l-27 -125l-93 33l-9 -45q-13 -56 26 -56h98q36 0 49 56l8 40h124l-16 -76q-30 -144 -148 -144h-150q-155 0 -123 144l13 57l14 64l-78 28l26 124l78 -28l5 23l-78 28l26 124l78 -28l7 30
q30 144 147 144h151q152 0 122 -144l-16 -74h-124l8 38q11 56 -25 56z" />
    <glyph glyph-name="A.sh" horiz-adv-x="502" 
d="M466 160l-363 118l141 308h-84l26 124h245zM95 255l371 -123l3 -132h-129l2 38l-198 71l-44 -109h-129zM330 518l-63 -160l57 -27z" />
    <glyph glyph-name="H.sh" horiz-adv-x="492" 
d="M466 237l-384 126l73 347h122l-54 -257l152 -58l67 315h124zM127 1h-122l72 340l384 -127l-45 -214h-124l26 124l-153 58z" />
    <glyph glyph-name="M.sh" horiz-adv-x="575" 
d="M322 335l321 343l-144 -678h-124l81 383l-166 -195l-81 195l-81 -383h-123l144 678zM329 369l-174 341h123l82 -196l166 196h123z" />
    <glyph glyph-name="W.sh" horiz-adv-x="575" 
d="M505 32l-175 343l-319 -343l144 678h123l-81 -384l164 196l83 -196l81 384h124zM5 0l318 341l176 -341h-123l-84 196l-164 -196h-123z" />
    <glyph glyph-name="X.sh" horiz-adv-x="538" 
d="M194 138l-106 -138h-134l219 282l-59 428h136l100 -710h-136zM446 439l62 -439h-136l-99 710h135l17 -127l98 127h136z" />
    <glyph glyph-name="L.sh" horiz-adv-x="434" 
d="M402 85l-362 120l107 505h122l-88 -415l248 -83zM9 59l26 124l362 -120l-26 -124z" />
    <glyph glyph-name="B.sh" horiz-adv-x="466" 
d="M5 0l150 710h134q93 0 128 -23.5t21 -92.5l-19 -89q-15 -69 -60 -92.5t-138 -23.5h-11l-3 -16h143q34 0 52.5 -2t37 -10.5t25 -25t6.5 -45t-9 -71.5l-12 -57q-34 -162 -158 -162h-287zM182 257l-28 -133h130q35 0 47 56l4 21q3 13 3.5 23t-3.5 16t-5.5 10t-12 5.5
t-12.5 2t-17 0t-17 -0.5h-89zM256 604l-23 -109h42q27 0 36 46l4 17q10 46 -17 46h-42z" />
    <glyph glyph-name="undercommaaccent" horiz-adv-x="178" 
d="M-4 -62h84l-18 -88l-85 -80h-15z" />
    <glyph glyph-name="O.mon2.001" horiz-adv-x="507" 
d="M284 586q-36 0 -48 -56l-74 -350q-13 -56 24 -56h18l-26 -124h-52q-126 0 -97 135l94 440q29 135 153 135h183q127 0 98 -135l-94 -440q-28 -135 -154 -135h-56l26 124h22q36 0 49 56l74 350q12 56 -25 56h-115z" />
    <glyph glyph-name="P.mon2.001" horiz-adv-x="479" 
d="M129 586l26 124h283q135 0 106 -134l-44 -209q-29 -134 -163 -134h-160l-49 -233h-123l106 503h123l-31 -146h126q44 0 56 55l25 119q12 55 -32 55h-249z" />
    <glyph glyph-name="S.mon2.001" horiz-adv-x="472" 
d="M308 253l-125 70q-30 17 -42 25t-27 21.5t-18 28t-3 36t7 53.5l21 98q26 125 148 125h46l-26 -124h-12q-32 0 -42 -47l-7 -34q-4 -18 -0.5 -27t20.5 -19l164 -94q44 -25 52 -51.5t-6 -89.5l-21 -99q-27 -125 -147 -125h-49l26 124h13q18 0 28 9t16 37l8 40q1 5 1.5 9t0 7
t-0.5 5.5t-2 5t-3 3.5t-4 3.5t-4.5 3t-6 3t-5.5 3.5zM380 586h-15l26 124h38q123 0 97 -125l-18 -84h-123l8 39q10 46 -13 46zM148 170q-10 -46 21 -46h22l-26 -124h-55q-122 0 -95 125l18 86h123z" />
    <glyph glyph-name="F.mon2.001" horiz-adv-x="426" 
d="M110 0h-122l106 503h122l-30 -145h223l-45 -124h-205zM112 586l26 124h400l-43 -124h-383z" />
    <glyph glyph-name="B.mon2.001" horiz-adv-x="461" 
d="M112 586l26 124h264q126 0 97 -135l-26 -122q-14 -65 -57 -79q30 -8 41 -34.5t5 -56.5l-32 -148q-28 -135 -154 -135h-288l106 501h122l-14 -65h112q33 0 44 53l9 41q11 56 -25 56h-230zM176 311l-40 -187h132q36 0 48 56l16 75q12 56 -18 56h-138z" />
    <glyph glyph-name="I.mon2.001" horiz-adv-x="205" 
d="M128 0h-123l150 710h123z" />
    <glyph glyph-name="E.mon2.001" horiz-adv-x="425" 
d="M358 0h-370l105 497h122l-29 -139h214l-44 -124h-197l-23 -110h265zM112 586l26 124h388l-44 -124h-370z" />
    <glyph glyph-name="Z.mon2.001" horiz-adv-x="448" 
d="M-5 0l6 114l296 389h151l-288 -379h265l-43 -124h-387zM515 586h-394l9 124h392z" />
    <glyph glyph-name="A.mon2.001" horiz-adv-x="490" 
d="M94 0h-131l115 246h243l-2 272l-77 -191h-123l178 383h124l36 -710h-133l-2 121h-175z" />
    <glyph glyph-name="V.mon2.001" horiz-adv-x="483" 
d="M267 0h-124l324 710h132zM113 710h130l-5 -359l-107 -210z" />
    <glyph glyph-name="X.mon2.001" horiz-adv-x="440" 
d="M-35 0l452 710h138l-203 -318l53 -392h-139l-24 221l-140 -221h-137zM248 710l3 -156l-103 -140l-36 296h136z" />
    <glyph glyph-name="N.mon2.001" horiz-adv-x="492" 
d="M294 0l-156 710h140l71 -447l95 447h122l-150 -710h-122zM111 0h-122l111 527l74 -229z" />
    <glyph glyph-name="R.mon2.001" horiz-adv-x="459" 
d="M112 586l26 124h265q126 0 97 -134l-44 -209q-23 -105 -102 -127l86 -240h-140l-82 233h-58l-49 -233h-122l105 503h123l-31 -146h108q36 0 48 55l25 119q12 55 -24 55h-231z" />
    <glyph glyph-name="G.mon2.001" horiz-adv-x="490" 
d="M162 179q-13 -55 26 -55h14l-26 -124h-48q-127 0 -99 134l94 441q29 135 156 135h166q127 0 99 -134l-16 -75h-123l6 30q12 55 -26 55h-98q-39 0 -51 -56zM284 259l43 124h176l-53 -248q-17 -77 -60.5 -106t-130.5 -29h-7l26 124h10q37 0 50 55l17 80h-71z" />
    <glyph glyph-name="C.mon2.001" horiz-adv-x="481" 
d="M188 124h11l-26 -124h-46q-127 0 -98 135l94 440q29 135 154 135h168q127 0 99 -135l-16 -74h-123l6 29q12 56 -26 56h-99q-38 0 -50 -56l-74 -350q-13 -56 26 -56zM295 0h-49l26 124h5q47 0 61 60l5 27h123l-16 -76q-28 -135 -155 -135z" />
    <glyph glyph-name="D.mon2.001" horiz-adv-x="463" 
d="M365 586h-253l26 124h287q127 0 99 -135l-94 -440q-28 -135 -155 -135h-287l106 503h124l-80 -379h129q36 0 49 56l74 350q12 56 -25 56z" />
    <glyph glyph-name="H.mon2.001" horiz-adv-x="487" 
d="M110 0h-122l76 360h300l74 350h123l-150 -710h-123l50 236h-178zM260 710l-56 -267h-122l56 267h122z" />
    <glyph glyph-name="U.mon2.001" horiz-adv-x="489" 
d="M190 124h7l-26 -124h-41q-127 0 -99 136l122 574h123l-112 -529q-12 -57 26 -57zM279 124h-6l-26 -124h40q128 0 156 136l122 574h-124l-112 -529q-12 -57 -50 -57z" />
    <glyph glyph-name="W.mon2.001" horiz-adv-x="654" 
d="M231 0h-122l271 710h122l-49 -518l172 518h132l-285 -710h-138l22 351zM125 710h131l-21 -237l-123 -288z" />
    <glyph glyph-name="Y.mon2.001" horiz-adv-x="451" 
d="M253 0h-123l61 291l247 419h127l-254 -433zM247 710l13 -180l-98 -149l-49 329h134z" />
    <glyph glyph-name="L.mon2.001" horiz-adv-x="375" 
d="M315 0h-327l26 124h343zM260 710l-107 -503h-122l107 503h122z" />
    <glyph glyph-name="J.mon2.001" horiz-adv-x="365" 
d="M117 124q75 0 88 55l112 531h123l-122 -576q-29 -134 -195 -134h-150l43 124h101z" />
    <glyph glyph-name="Q.mon2.001" horiz-adv-x="507" 
d="M318 206l-17 -82q36 0 49 56l74 350q12 56 -25 56h-22l26 124h56q127 0 98 -135l-94 -440q-28 -135 -154 -135h-34l-22 -102h-115l22 102h-34q-126 0 -97 135l94 440q29 135 153 135h52l-26 -124h-18q-36 0 -48 -56l-74 -350q-12 -56 24 -56l17 82h115z" />
    <glyph glyph-name="K.mon2.001" horiz-adv-x="446" 
d="M111 0h-122l71 341l358 369h153l-293 -317l143 -393h-153l-92 283l-6 -5zM261 710l-26 -123l-152 -137l55 260h123z" />
    <glyph glyph-name="M.mon2.001" horiz-adv-x="598" 
d="M522 0h-124l95 447l-114 -213h-151l-90 476h140l62 -305l191 305h141zM111 0h-122l108 517l66 -268z" />
    <glyph glyph-name="T.mon2.001" horiz-adv-x="468" 
d="M546 586h-447l26 124h447zM261 0h-124l106 503h124z" />
    <glyph glyph-name="O.mon2" horiz-adv-x="507" 
d="M29 135l94 440q29 135 153 135h183q127 0 98 -135l-94 -440q-28 -135 -154 -135h-183q-126 0 -97 135zM284 586q-36 0 -48 -56l-74 -350q-13 -56 24 -56h115q36 0 49 56l74 350q12 56 -25 56h-115z" />
    <glyph glyph-name="P.mon2" horiz-adv-x="479" 
d="M5 0l150 710h283q135 0 106 -134l-44 -209q-29 -134 -163 -134h-160l-49 -233h-123zM252 586l-49 -229h126q44 0 56 55l25 119q12 55 -32 55h-126z" />
    <glyph glyph-name="S.mon2" horiz-adv-x="472" 
d="M308 253l-120 72q-64 36 -79 53q-26 30 -15 79l27 128q26 125 148 125h162q121 0 95 -125l-18 -84h-123l8 39q10 46 -22 46h-94q-32 0 -42 -47l-8 -37q-1 -6 -1.5 -10.5t0.5 -8.5t2 -6t4.5 -5t4.5 -4t6.5 -4t7.5 -4l119 -74q45 -25 63 -37t28.5 -35.5t3.5 -58.5l-28 -130
q-27 -125 -147 -125h-180q-122 0 -95 125l18 86h123l-8 -41q-10 -46 21 -46h113q32 0 42 46l8 40q1 7 1 12.5v8.5t-4 7t-4.5 5t-8 5t-8.5 5z" />
    <glyph glyph-name="F.mon2" horiz-adv-x="443" 
d="M252 586l-48 -228h222l-45 -124h-204l-49 -234h-123l150 710h400l-42 -124h-261z" />
    <glyph glyph-name="B.mon2" horiz-adv-x="481" 
d="M5 0l150 710h265q126 0 97 -135l-26 -122q-6 -27 -21 -49.5t-36 -29.5q29 -8 40 -34.5t5 -56.5l-32 -148q-29 -135 -153 -135h-289zM194 311l-40 -187h131q37 0 49 56l16 75q12 56 -19 56h-137zM252 586l-32 -150h111q33 0 44 53l9 41q11 56 -24 56h-108z" />
    <glyph glyph-name="I.mon2" horiz-adv-x="205" 
d="M128 0h-123l150 710h123z" />
    <glyph glyph-name="E.mon2" horiz-adv-x="442" 
d="M252 586l-48 -228h213l-43 -124h-197l-23 -110h264l-43 -124h-370l150 710h388l-43 -124h-248z" />
    <glyph glyph-name="Z.mon2" horiz-adv-x="447" 
d="M516 595l-356 -471h265l-43 -124h-387l6 114l355 472h-235l9 124h392z" />
    <glyph glyph-name="A.mon2" horiz-adv-x="490" 
d="M297 710h124l36 -710h-133l-2 121h-176l-52 -121h-131zM319 518l-119 -272h121z" />
    <glyph glyph-name="V.mon2" horiz-adv-x="483" 
d="M267 0h-123l-31 710h130l2 -518l223 518h132z" />
    <glyph glyph-name="X.mon2" horiz-adv-x="441" 
d="M249 710l25 -303l145 303h135l-191 -356l43 -354h-140l-21 284l-143 -284h-135l193 354l-47 356h136z" />
    <glyph glyph-name="N.mon2" horiz-adv-x="509" 
d="M128 0h-123l150 710h122l89 -443l94 443h123l-150 -710h-122l-88 448z" />
    <glyph glyph-name="R.mon2" horiz-adv-x="477" 
d="M5 0l150 710h265q126 0 97 -134l-44 -209q-22 -104 -104 -128l87 -239h-140l-82 233h-57l-49 -233h-123zM252 586l-49 -229h108q36 0 48 55l25 119q12 55 -24 55h-108z" />
    <glyph glyph-name="G.mon2" horiz-adv-x="490" 
d="M284 259l43 124h176l-53 -248q-28 -135 -155 -135h-167q-127 0 -99 134l94 441q29 135 156 135h166q127 0 99 -134l-16 -75h-123l6 30q12 55 -26 55h-98q-39 0 -51 -56l-74 -351q-13 -55 26 -55h100q37 0 50 55l17 80h-71z" />
    <glyph glyph-name="C.mon2" horiz-adv-x="481" 
d="M188 124h99q37 0 50 56l6 31h123l-16 -76q-28 -135 -155 -135h-168q-127 0 -98 135l94 440q29 135 154 135h168q127 0 99 -135l-16 -74h-123l6 29q12 56 -26 56h-99q-38 0 -50 -56l-74 -350q-13 -56 26 -56z" />
    <glyph glyph-name="D.mon2" horiz-adv-x="492" 
d="M5 0l150 710h287q128 0 100 -135l-94 -440q-28 -135 -156 -135h-287zM382 586h-129l-98 -462h129q37 0 50 56l74 350q12 56 -26 56z" />
    <glyph glyph-name="H.mon2" horiz-adv-x="504" 
d="M128 0h-123l150 710h123l-74 -350h177l74 350h123l-150 -710h-123l50 236h-177z" />
    <glyph glyph-name="U.mon2" horiz-adv-x="502" 
d="M291 124q38 0 50 57l112 529h124l-122 -574q-28 -136 -156 -136h-169q-127 0 -99 136l122 574h123l-112 -529q-12 -57 26 -57h101z" />
    <glyph glyph-name="W.mon2" horiz-adv-x="654" 
d="M249 0h-139l15 710h131l-46 -518l170 518h123l-49 -518l172 518h132l-285 -710h-138l19 293z" />
    <glyph glyph-name="Y.mon2" horiz-adv-x="451" 
d="M253 0h-123l60 286l-77 424h134l31 -299l151 299h136l-250 -418z" />
    <glyph glyph-name="L.mon2" horiz-adv-x="437" 
d="M278 710l-124 -586h270l-44 -124h-375l150 710h123z" />
    <glyph glyph-name="J.mon2" horiz-adv-x="365" 
d="M117 124q75 0 88 55l112 531h123l-122 -576q-29 -134 -195 -134h-150l43 124h101z" />
    <glyph glyph-name="Q.mon2" horiz-adv-x="507" 
d="M29 135l94 440q29 135 153 135h183q127 0 98 -135l-94 -440q-28 -135 -154 -135h-33l-22 -102h-115l22 102h-35q-126 0 -97 135zM284 586q-36 0 -48 -56l-74 -350q-13 -56 24 -56h1l17 82h115l-17 -82q35 0 48 56l74 350q12 56 -25 56h-115z" />
    <glyph glyph-name="K.mon2" horiz-adv-x="464" 
d="M128 0h-123l150 710h123l-59 -279l216 279h153l-274 -355l124 -355h-153l-98 278z" />
    <glyph glyph-name="M.mon2" horiz-adv-x="614" 
d="M539 0h-123l100 474l-119 -194h-132l-37 194l-100 -474h-123l150 710h140l63 -305l191 305h140z" />
    <glyph glyph-name="T.mon2" horiz-adv-x="468" 
d="M546 586h-161l-124 -586h-124l124 586h-162l26 124h447z" />
    <glyph glyph-name="K.mon2.002" horiz-adv-x="476" 
d="M111 0h-122l86 411h196l188 299h137l-221 -356l71 -354h-145l-52 287h-77zM261 710l-45 -215h-123l45 215h123z" />
    <glyph glyph-name="A.ae" horiz-adv-x="507" 
d="M305 710h124l41 -666l-126 -44l-5 121h-194l-54 -121l-107 44zM327 518l-124 -272h132z" />
    <glyph glyph-name="K.ae" horiz-adv-x="438" 
d="M128 0h-123l150 710h123l-59 -280l226 289l95 -79l-226 -285l99 -293l-122 -71l-104 288z" />
    <glyph glyph-name="M.ae" horiz-adv-x="574" 
d="M498 0h-124l95 448l-110 -214h-119l-17 214l-95 -448h-123l150 710h122l59 -305l189 305h123z" />
    <glyph glyph-name="R.ae" horiz-adv-x="471" 
d="M5 0l150 710h268q127 0 98 -134l-44 -209q-24 -107 -108 -128l62 -189l-113 -59l-84 242h-57l-49 -233h-123zM252 586l-49 -229h111q37 0 49 55l25 119q12 55 -25 55h-111z" />
    <glyph glyph-name="V.ae" horiz-adv-x="504" 
d="M278 0h-124l-40 666l126 44l16 -518l236 518l108 -44z" />
    <glyph glyph-name="W.ae" horiz-adv-x="779" 
d="M553 0h-124l-17 278l-134 -278h-124l-40 666l126 44l16 -518l236 518l108 -44l-78 -161l9 -313l236 518l108 -44z" />
    <glyph glyph-name="X.ae" horiz-adv-x="453" 
d="M460 733l93 -66l-215 -298l93 -314l-121 -66l-71 242l-174 -242l-91 66l225 313l-89 299l121 66l67 -227z" />
    <glyph glyph-name="Y.ae" horiz-adv-x="474" 
d="M263 0h-123l67 319l-93 357l119 57l61 -294l185 294l95 -57l-243 -355z" />
    <glyph glyph-name="A.SC" horiz-adv-x="457" 
d="M260 604h121l45 -604h-130l-5 94h-159l-42 -94h-128zM279 409l-88 -190h96z" />
    <glyph glyph-name="B.SC" horiz-adv-x="438" 
d="M2 0l128 604h239q110 0 84 -115l-21 -100q-11 -58 -44 -71q33 -1 42.5 -19t-0.5 -60l-26 -124q-24 -115 -136 -115h-266zM179 256l-28 -132h108q22 0 31 37l12 60q8 35 -5 35h-118zM226 479l-21 -98h83q19 0 27 37l6 25q7 36 -13 36h-82z" />
    <glyph glyph-name="C.SC" horiz-adv-x="433" 
d="M177 124h72q29 0 37 38l6 27h123l-16 -74q-24 -115 -141 -115h-142q-116 0 -92 115l79 374q26 115 141 115h142q118 0 92 -115l-15 -72h-123l5 25q9 37 -21 37h-72q-27 0 -36 -37l-59 -280q-8 -38 20 -38z" />
    <glyph glyph-name="D.SC" horiz-adv-x="464" 
d="M2 0l128 604h255q137 0 107 -141l-69 -323q-30 -140 -166 -140h-255zM248 124q49 0 62 63l50 235q9 57 -37 57h-97l-75 -355h97z" />
    <glyph glyph-name="E.SC" horiz-adv-x="394" 
d="M226 479l-35 -166h171l-43 -124h-154l-14 -65h217l-44 -124h-322l128 604h339l-43 -125h-200z" />
    <glyph glyph-name="F.SC" horiz-adv-x="375" 
d="M226 479l-35 -166h167l-44 -124h-149l-40 -189h-123l128 604h331l-44 -125h-191z" />
    <glyph glyph-name="G.SC" horiz-adv-x="449" 
d="M237 212l43 124h174l-47 -221q-25 -115 -141 -115h-150q-117 0 -93 116l79 373q26 115 143 115h148q118 0 92 -116l-13 -62h-123l3 16q9 37 -20 37h-79q-29 0 -37 -36l-60 -282q-9 -37 20 -37h83q27 0 36 39l11 49h-69z" />
    <glyph glyph-name="H.SC" horiz-adv-x="460" 
d="M125 0h-123l128 604h123l-58 -271h138l58 271h123l-128 -604h-123l44 208h-138z" />
    <glyph glyph-name="I.SC" horiz-adv-x="199" 
d="M125 0h-123l128 604h123z" />
    <glyph glyph-name="J.SC" horiz-adv-x="305" 
d="M107 124q28 0 37 37l94 443h123l-104 -489q-24 -115 -141 -115h-141l43 124h89z" />
    <glyph glyph-name="K.SC" horiz-adv-x="451" 
d="M125 0h-123l128 604h123l-58 -271l212 271h136l-237 -302l120 -302h-138l-106 272z" />
    <glyph glyph-name="L.SC" horiz-adv-x="360" 
d="M253 604l-102 -480h196l-44 -124h-301l128 604h123z" />
    <glyph glyph-name="M.SC" horiz-adv-x="532" 
d="M129 604h125l-1 -5l46 -267l162 264l2 8h125l-3 -5l-127 -599h-123l63 300l-69 -111h-117l-23 111l-63 -300h-124l127 601v3z" />
    <glyph glyph-name="N.SC" horiz-adv-x="470" 
d="M125 0h-123l128 604h123v-1l71 -324q2 -16 2 -26l75 351h123l-128 -604h-123l-69 307q-3 13 -5 43z" />
    <glyph glyph-name="O.SC" horiz-adv-x="472" 
d="M24 115l79 374q26 115 141 115h167q118 0 92 -115l-79 -374q-24 -115 -141 -115h-167q-116 0 -92 115zM252 479q-27 0 -36 -37l-59 -280q-8 -38 20 -38h97q29 0 37 38l59 280q9 37 -21 37h-97z" />
    <glyph glyph-name="P.SC" horiz-adv-x="433" 
d="M164 187l-7 -32h1l-33 -155h-123l28 130h-1l101 474h254q120 0 94 -116l-39 -186q-25 -115 -144 -115h-131zM226 479l-35 -168h98q28 0 35 37l20 94q9 37 -20 37h-98z" />
    <glyph glyph-name="Q.SC" horiz-adv-x="472" 
d="M24 115l79 374q26 115 141 115h167q118 0 92 -115l-79 -374q-24 -115 -141 -115h-23l-19 -85h-115l19 85h-29q-116 0 -92 115zM252 479q-27 0 -36 -37l-59 -280q-7 -34 14 -38l13 62h115l-13 -61q18 6 25 37l59 280q9 37 -21 37h-97z" />
    <glyph glyph-name="R.SC" horiz-adv-x="446" 
d="M2 0l128 604h257q118 0 92 -116l-39 -185q-20 -96 -102 -112l70 -191h-141l-68 187h-35l-39 -187h-123zM226 479l-35 -167h100q27 0 36 37l19 93q9 37 -20 37h-100z" />
    <glyph glyph-name="S.SC" horiz-adv-x="419" 
d="M254 206l-89 55q-63 39 -79.5 64.5t-3.5 84.5l18 88q23 106 131 106h141q106 0 83 -106l-15 -72h-122l5 25q6 28 -13 28h-71q-19 0 -25 -28l-3 -14q-3 -18 0.5 -25t16.5 -15l89 -56q5 -3 18 -11.5t17 -11t14 -9.5t13 -10t10 -9.5t8.5 -11t5 -11.5t3.5 -13.5t-0.5 -15
t-2.5 -17.5l-24 -115q-23 -106 -130 -106h-153q-109 0 -86 106l18 83h123l-8 -36q-6 -29 15 -29h83q20 0 26 29l4 20q4 19 -17 33z" />
    <glyph glyph-name="T.SC" horiz-adv-x="392" 
d="M446 479h-123l-101 -479h-125l101 479h-122l27 125h370z" />
    <glyph glyph-name="U.SC" horiz-adv-x="450" 
d="M254 124q25 0 34 36l94 444h124l-104 -490q-24 -114 -140 -114h-146q-115 0 -91 114l104 490h123l-94 -444q-9 -36 19 -36h77z" />
    <glyph glyph-name="V.SC" horiz-adv-x="432" 
d="M242 0h-123l-19 604h131l-8 -380q0 -23 -8 -57q16 55 17 57l154 380h131z" />
    <glyph glyph-name="W.SC" horiz-adv-x="676" 
d="M240 0h-122l-19 604h124l-8 -382q-1 -8 -1 -25t-1 -26q5 23 17 51l142 381l116 1l-21 -382q0 -5 -0.5 -15t-1 -18.5t-1.5 -15.5q10 32 16 48l155 383h125l-274 -604h-125l12 328q1 10 7 40.5t7 38.5q-15 -64 -21 -79z" />
    <glyph glyph-name="X.SC" horiz-adv-x="418" 
d="M247 352l130 252h128l-169 -303l42 -301h-129l-27 231l-125 -231h-128l168 301l-43 303h127z" />
    <glyph glyph-name="Y.SC" horiz-adv-x="446" 
d="M250 0h-123l46 218l-88 386h127l44 -219q6 -31 1 -51q17 39 24 50l133 220h129l-246 -382z" />
    <glyph glyph-name="Z.SC" horiz-adv-x="404" 
d="M446 488l-283 -364h216l-42 -124h-338l6 114l283 365h-189l9 125h345z" />
    <glyph glyph-name="a.ital" horiz-adv-x="423" 
d="M457 505l-49 -232h1l-58 -273h-96l1 57q-18 -30 -42 -43.5t-66 -13.5h-43q-109 0 -82 125l52 243q30 143 147 143h42q31 0 46.5 -8.5t24.5 -29.5l7 32h115zM275 192l36 170q3 38 -27 38h-51q-37 0 -48 -55l-38 -179q-13 -55 25 -55h50q34 0 48 49l6 32h-1z" />
    </font>
</defs>
</svg>
