<?xml version="1.0" standalone="no"?>
<!DOCTYPE svg PUBLIC "-//W3C//DTD SVG 1.1//EN" "http://www.w3.org/Graphics/SVG/1.1/DTD/svg11.dtd" >
<svg xmlns="http://www.w3.org/2000/svg" xmlns:xlink="http://www.w3.org/1999/xlink" version="1.1">
<metadata>
Created by FontForge 20170731 at Mon Feb 23 06:35:25 2004
 By Aleksey,,,
(c) 2002 Ray Larabie. This font is freeware. Read attached text file for details. Info &#38; updates visit www.larabiefonts.com. Donations gratefully accepted at www.larabiefonts.com/donation.html. Also visit my commercial type foundry at www.typodermic.com. This font was updated in 2004.
</metadata>
<defs>
<font id="Junegull" horiz-adv-x="659" >
  <font-face 
    font-family="Junegull"
    font-weight="400"
    font-stretch="normal"
    units-per-em="1000"
    panose-1="2 0 0 0 0 0 0 0 0 0"
    ascent="800"
    descent="-200"
    x-height="597"
    cap-height="597"
    bbox="-15 -189 1352 789"
    underline-thickness="20"
    underline-position="-163"
    unicode-range="U+0020-2122"
  />
<missing-glyph horiz-adv-x="199" 
 />
    <glyph glyph-name=".notdef" horiz-adv-x="199" 
 />
    <glyph glyph-name=".null" horiz-adv-x="0" 
 />
    <glyph glyph-name="nonmarkingreturn" horiz-adv-x="333" 
 />
    <glyph glyph-name="visiblespace" unicode=" " horiz-adv-x="199" 
 />
    <glyph glyph-name="exclam" unicode="!" horiz-adv-x="230" 
d="M196 251q0 -39 -24 -61t-58 -22q-33 0 -57.5 22t-24.5 61v264q0 40 24.5 61t57.5 21q34 0 58 -21t24 -61v-264zM198 83q0 -34 -24 -58.5t-58 -24.5t-58.5 24.5t-24.5 58.5t24.5 58.5t58.5 24.5t58 -24.5t24 -58.5z" />
    <glyph glyph-name="quotedbl" unicode="&#x22;" horiz-adv-x="419" 
d="M197 447q0 -40 -24.5 -61t-57.5 -21q-34 0 -58.5 21t-24.5 61v108q0 39 24.5 61t58.5 22q33 0 57.5 -22t24.5 -61v-108zM386 447q0 -40 -24.5 -61t-57.5 -21q-34 0 -58.5 21t-24.5 61v108q0 39 24.5 61t58.5 22q33 0 57.5 -22t24.5 -61v-108z" />
    <glyph glyph-name="numbersign" unicode="#" horiz-adv-x="638" 
d="M613 283q-12 -32 -45 -32h-97l-9 -25h60q49 0 49 -42q0 -14 -4 -21v1l-3 -12q-12 -32 -45 -32h-96l-39 -105q-10 -31 -44 -31h-27q-48 0 -48 40q0 13 4 22l27 74h-42l-38 -105q-5 -16 -17 -23.5t-28 -7.5h-26q-49 0 -49 41q0 15 4 22l27 73h-60q-50 0 -50 41q0 13 6 25
l4 9v-1q12 32 45 32h94l9 25h-58q-49 0 -49 42q0 5 0.5 8.5t1.5 7.5l5 15v-1q9 34 44 34h97l39 104q12 32 43 32h27q50 0 50 -41q0 -9 -5 -24v1l-28 -72h41l41 109q13 27 43 27h26q50 0 50 -42q0 -5 -1.5 -10.5t-3.5 -14.5l-27 -69h61q49 0 49 -41q0 -9 -5 -24v2zM336 226
l9 25h-42l-9 -25h42z" />
    <glyph glyph-name="dollar" unicode="$" horiz-adv-x="533" 
d="M511 191q0 -191 -186 -191h-18v-13q0 -21 -12.5 -31t-27.5 -10t-27.5 10t-12.5 31v13h-116q-79 0 -79 80v3q2 83 80 83h115v50h-28q-176 5 -176 191q0 191 188 191h16v13q0 21 12.5 31t27.5 10t27.5 -10t12.5 -31v-13h86q79 0 79 -80v-3q-2 -83 -80 -83h-85v-50h28
q176 -5 176 -191zM334 166q33 0 33 25t-33 25h-27v-50h27zM200 432q-33 0 -33 -25t33 -25h27v50h-27z" />
    <glyph glyph-name="percent" unicode="%" horiz-adv-x="772" 
d="M165 17q-26 -17 -51 -17q-17 0 -31.5 7t-26 18.5t-18 27t-6.5 32.5q0 36 30 63l541 433q24 18 51 18q16 0 31.5 -7t26.5 -19t18 -27.5t7 -32.5q0 -37 -32 -63zM283 475q0 -24 -9.5 -46t-26 -38.5t-38.5 -26.5t-47 -10q-27 0 -49.5 9.5t-39 25.5t-25.5 38t-9 48
q0 25 9.5 47.5t26.5 39.5t39 26.5t48 9.5q25 0 47 -10t38.5 -27t26 -39t9.5 -47zM740 125q0 -26 -9.5 -48t-26 -38.5t-39 -26t-47.5 -9.5q-26 0 -48 9.5t-38.5 26t-26 38.5t-9.5 48q0 25 9.5 47t26 38.5t38.5 26t48 9.5q25 0 47.5 -9.5t39 -26t26 -38.5t9.5 -47zM181 477
q0 20 -19 20q-9 0 -15 -6t-6 -14t6 -14t15 -6q8 0 13.5 6t5.5 14zM638 126q0 8 -6 14.5t-14 6.5t-14 -6.5t-6 -14.5t6 -14t14 -6t14 6t6 14z" />
    <glyph glyph-name="ampersand" unicode="&#x26;" horiz-adv-x="611" 
d="M504 83q0 -22 -7.5 -37.5t-20.5 -25.5t-29 -15t-34 -5h-233q-39 0 -67 11.5t-46.5 32.5t-27 50t-8.5 63q0 57 30.5 95.5t86.5 46.5q-56 8 -86.5 45.5t-30.5 95.5q0 34 8.5 63t27 50t47 33t68.5 12h75q75 0 75 -83t-76 -83h-16q-33 0 -33 -25t33 -25h99v13q0 40 24.5 61
t58.5 21q33 0 57.5 -21t24.5 -61v-13h14q78 0 78 -83t-79 -83h-13v-133zM240 216q-33 0 -33 -25t33 -25h99v50h-99z" />
    <glyph glyph-name="quotesingle" unicode="'" horiz-adv-x="226" 
d="M195 447q0 -40 -24.5 -61t-57.5 -21q-34 0 -58.5 21t-24.5 61v108q0 39 24.5 61t58.5 22q33 0 57.5 -22t24.5 -61v-108z" />
    <glyph glyph-name="parenleft" unicode="(" horiz-adv-x="308" 
d="M172 -189q-132 223 -132 475q0 253 132 475h94q-72 -99 -108.5 -219t-36.5 -256q0 -244 147 -475h-96z" />
    <glyph glyph-name="parenright" unicode=")" horiz-adv-x="306" 
d="M38 -189q40 61 67.5 117.5t45.5 113t26 116.5t8 128q0 142 -36.5 254.5t-110.5 220.5h95q67 -112 99.5 -229t32.5 -246q0 -128 -32.5 -245.5t-99.5 -229.5h-95z" />
    <glyph glyph-name="asterisk" unicode="*" horiz-adv-x="371" 
d="M348 252q0 -6 -4.5 -10.5t-10.5 -4.5h-41l21 -39q2 -4 2 -7q0 -8 -8 -13l-75 -41q-4 -2 -7 -2q-8 0 -12 7l-25 36l-24 -36q-5 -8 -11 -8q-4 0 -8 3l-77 41q-8 5 -8 13q0 3 2 7l21 39h-46q-6 0 -10.5 4.5t-4.5 10.5v80q0 6 4.5 10.5t10.5 4.5h49l-24 37q-3 4 -3 9
q0 8 8 12l77 41q4 3 9 3q6 0 11 -8l22 -36l21 36q5 8 11 8q4 0 9 -3l77 -43q8 -5 8 -13q0 -3 -2 -7l-20 -36h43q6 0 10.5 -4.5t4.5 -10.5v-80z" />
    <glyph glyph-name="plus" unicode="+" horiz-adv-x="462" 
d="M318 162q0 -39 -24.5 -61t-57.5 -22t-57.5 22t-24.5 61v52h-59q-39 0 -61 24.5t-22 57.5q0 34 22 58.5t61 24.5h59v52q0 39 24.5 61t57.5 22t57.5 -22t24.5 -61v-52h47q39 0 61 -24.5t22 -58.5q0 -33 -22 -57.5t-61 -24.5h-47v-52z" />
    <glyph glyph-name="comma" unicode="," horiz-adv-x="224" 
d="M193 -92q0 -38 -24.5 -60t-57.5 -22t-57.5 22t-24.5 60v107q0 35 23 58.5t59 23.5t59 -23.5t23 -58.5v-107z" />
    <glyph glyph-name="hyphen" unicode="-" horiz-adv-x="498" 
d="M114 214q-39 0 -61 25t-22 58q0 34 22 59.5t61 25.5h270q39 0 61 -25.5t22 -59.5q0 -33 -22 -58t-61 -25h-270z" />
    <glyph glyph-name="period" unicode="." horiz-adv-x="214" 
d="M190 29q0 -17 -6.5 -31.5t-18 -26t-26.5 -18t-32 -6.5t-32 6.5t-26.5 18t-18 26t-6.5 31.5q0 34 24.5 58.5t58.5 24.5t58.5 -24.5t24.5 -58.5z" />
    <glyph glyph-name="slash" unicode="/" horiz-adv-x="313" 
d="M137 535q8 32 29 46.5t46 14.5q16 0 31.5 -5.5t28 -16t20 -25.5t7.5 -33q0 -12 -3 -24l-120 -431q-8 -31 -28.5 -46t-46.5 -15q-17 0 -33 5.5t-28 16t-19.5 24.5t-7.5 32q0 14 4 26z" />
    <glyph glyph-name="zero" unicode="0" 
d="M24 301q0 63 24 119t65 97.5t97 65.5t119 24t119 -24t97.5 -65.5t65.5 -97.5t24 -119t-24 -119t-65.5 -97t-97.5 -65t-119 -24t-119 24t-97 65t-65 97t-24 119zM192 299q0 -29 10.5 -54t29.5 -44t44 -29.5t54 -10.5t54.5 10.5t44 29.5t29.5 44t11 54t-11 54.5t-29.5 44
t-44 29.5t-54.5 11t-54 -11t-44 -29.5t-29.5 -44t-10.5 -54.5z" />
    <glyph glyph-name="one" unicode="1" horiz-adv-x="324" 
d="M289 84q0 -40 -24 -61t-58 -21q-33 0 -57.5 21t-24.5 61v241q-20 -11 -42 -11q-33 0 -54.5 24.5t-21.5 57.5q0 38 28 66l113 112q33 33 70 33q32 0 51.5 -24t19.5 -67v-432z" />
    <glyph glyph-name="two" unicode="2" horiz-adv-x="552" 
d="M54 0q-20 0 -21 25v166q0 92 44 141.5t132 49.5h135q33 0 33 25t-33 25h-222q-78 0 -80 83v3q0 80 79 80h212q188 0 188 -191q0 -92 -44 -141.5t-132 -49.5h-135q-33 0 -33 -25l1 -25h254q89 0 89 -83t-88 -83h-379z" />
    <glyph glyph-name="three" unicode="3" horiz-adv-x="534" 
d="M112 216q-79 0 -79 83t78 83h184q33 0 33 25t-33 25h-186q-76 0 -76 83t75 83h245q40 0 68.5 -11.5t46.5 -32t26.5 -49t8.5 -62.5q0 -60 -29.5 -98t-86.5 -46q55 -8 85.5 -46.5t30.5 -96.5q0 -34 -8.5 -62.5t-26.5 -49.5t-46 -32.5t-67 -11.5h-243q-79 0 -79 83t80 83
h182q33 0 33 25t-33 25h-183z" />
    <glyph glyph-name="four" unicode="4" horiz-adv-x="512" 
d="M477 83q0 -40 -24.5 -61t-58.5 -21q-33 0 -57.5 21t-24.5 61v133h-217q-82 0 -82 83v216q0 40 24.5 61t57.5 21q34 0 58.5 -21t24.5 -61v-133h134v133q0 40 24.5 61t57.5 21q34 0 58.5 -21t24.5 -61v-432z" />
    <glyph glyph-name="five" unicode="5" horiz-adv-x="546" 
d="M516 191q0 -191 -186 -191h-204q-89 0 -89 80v3q2 83 90 83h212q33 0 33 25t-33 25h-271q-34 4 -34 28q0 7 1 10v320q6 24 31 24h362q79 0 79 -80v-3q-2 -83 -80 -83h-227v-50h140q88 0 132 -49.5t44 -141.5z" />
    <glyph glyph-name="six" unicode="6" horiz-adv-x="538" 
d="M508 191q0 -191 -186 -191h-115q-91 0 -133.5 48.5t-42.5 146.5v214q0 189 188 189h201q79 0 79 -80v-3q-2 -83 -80 -83h-189q-32 0 -34 -35v-15h136q88 0 132 -49.5t44 -141.5zM331 166q33 0 33 25t-33 25h-109q-26 0 -26 -25t26 -25h109z" />
    <glyph glyph-name="seven" unicode="7" horiz-adv-x="525" 
d="M229 73q-14 -21 -22 -35t-16.5 -22.5t-19 -12t-29.5 -3.5q-39 0 -63.5 19.5t-24.5 57.5q0 37 35 72l208 283h-184q-39 0 -61 24.5t-22 58.5t22 58.5t61 24.5h325q34 0 56 -19.5t22 -54.5q0 -25 -15 -53z" />
    <glyph glyph-name="eight" unicode="8" horiz-adv-x="548" 
d="M179 0q-39 0 -67 11.5t-46.5 32.5t-27 50t-8.5 63q0 57 30.5 95.5t86.5 46.5q-56 8 -86.5 45.5t-30.5 95.5q0 34 8.5 63t27 50t47 33t68.5 12h186q40 0 68.5 -11.5t46.5 -32t26.5 -49t8.5 -62.5q0 -60 -29.5 -98t-86.5 -46q55 -8 85.5 -46.5t30.5 -96.5q0 -34 -8.5 -62.5
t-26.5 -49.5t-46 -32.5t-67 -11.5h-190zM239 216q-33 0 -33 -25t33 -25h70q33 0 33 25t-33 25h-70zM239 432q-33 0 -33 -25t33 -25h70q33 0 33 25t-33 25h-70z" />
    <glyph glyph-name="nine" unicode="9" horiz-adv-x="539" 
d="M30 407q0 191 186 191h115q91 0 133.5 -48.5t42.5 -146.5v-214q0 -189 -188 -189h-201q-79 0 -79 80v3q2 83 80 83h189q32 0 34 35v15h-136q-88 0 -132 49.5t-44 141.5zM207 432q-33 0 -33 -25t33 -25h109q26 0 26 25t-26 25h-109z" />
    <glyph glyph-name="colon" unicode=":" horiz-adv-x="218" 
d="M192 272q0 -34 -24.5 -58.5t-58.5 -24.5t-58.5 24.5t-24.5 58.5t24.5 58.5t58.5 24.5t58.5 -24.5t24.5 -58.5zM192 56q0 -34 -24.5 -58t-58.5 -24t-58.5 24t-24.5 58t24.5 58.5t58.5 24.5t58.5 -24.5t24.5 -58.5z" />
    <glyph glyph-name="semicolon" unicode=";" horiz-adv-x="224" 
d="M193 -64q0 -39 -24 -61t-58 -22q-33 0 -57.5 22t-24.5 61v106q0 39 24.5 61t57.5 22q34 0 58 -22t24 -61v-106zM195 259q0 -36 -24 -59.5t-58 -23.5t-58.5 23.5t-24.5 59.5q0 34 24.5 58.5t58.5 24.5t58 -24.5t24 -58.5z" />
    <glyph glyph-name="less" unicode="&#x3c;" horiz-adv-x="424" 
d="M367 141q25 -25 25 -58q0 -17 -7 -32t-18 -26.5t-26.5 -18t-31.5 -6.5q-34 0 -59 25l-216 216q-27 27 -27 58t27 58l216 216v-1q25 27 59 27q16 0 31.5 -7t26.5 -18.5t18 -27t7 -31.5q0 -33 -25 -58l-157 -158z" />
    <glyph glyph-name="equal" unicode="=" horiz-adv-x="499" 
d="M114 110q-35 0 -59 24t-24 59q0 33 22 58t61 25h270q39 0 61 -25t22 -58q0 -35 -24 -59t-59 -24h-270zM114 322q-35 0 -59 24t-24 59q0 33 22 58t61 25h270q39 0 61 -25t22 -58q0 -35 -24 -59t-59 -24h-270z" />
    <glyph glyph-name="greater" unicode="&#x3e;" horiz-adv-x="424" 
d="M173 25q-25 -25 -59 -25q-17 0 -32 6.5t-26 18t-18 26t-7 31.5q0 33 27 59h-1l157 158l-157 158h1q-27 25 -27 58q0 16 7 31.5t18 26.5t26 18t32 7q34 0 59 -25l216 -216q28 -28 28 -58q0 -32 -29 -58h1z" />
    <glyph glyph-name="question" unicode="?" horiz-adv-x="541" 
d="M323 83q0 -34 -24.5 -58.5t-58.5 -24.5t-58.5 24.5t-24.5 58.5t24.5 58.5t58.5 24.5t58.5 -24.5t24.5 -58.5zM248 216q-87 0 -87 83t86 83h86q33 0 33 25t-33 25h-216q-84 0 -86 83v3q0 80 85 80h208q186 0 186 -191t-185 -191h-77z" />
    <glyph glyph-name="at" unicode="@" horiz-adv-x="482" 
d="M324 354v-110q0 -38 33 -38q20 0 36.5 23t16.5 65q0 41 -9 75.5t-29.5 59.5t-52.5 39t-78 14q-36 0 -67.5 -12.5t-54.5 -37.5t-36.5 -62t-13.5 -86q0 -99 42 -150t112 -62l-6 -50q-50 7 -87.5 30t-62.5 57.5t-37 79.5t-12 96q0 58 18.5 104t49.5 77.5t71 48t84 16.5
q104 0 161.5 -56.5t57.5 -176.5q0 -17 -3.5 -40t-14.5 -44t-31.5 -35.5t-54.5 -14.5q-50 0 -66 37q-26 -19 -57 -19q-33 0 -58 22t-25 64t22 64.5t60 22.5q31 0 51 -14l4 13h37zM283 296q-17 18 -43 18q-49 0 -49 -46q0 -44 46 -44q29 0 46 21v51z" />
    <glyph glyph-name="A" unicode="A" horiz-adv-x="583" 
d="M255 246h80l-37 107zM380 116h-177l-25 -64q-11 -28 -30.5 -40.5t-42.5 -12.5q-17 0 -32.5 5.5t-28.5 16t-20.5 24.5t-7.5 32t7 33l197 435q13 28 35 42t45 14t44.5 -14t32.5 -42l181 -435q7 -15 7 -33q0 -17 -7.5 -31.5t-20.5 -25t-29 -16t-32 -5.5q-23 0 -43 12.5
t-30 40.5z" />
    <glyph glyph-name="B" unicode="B" horiz-adv-x="541" 
d="M193 432v-70h124q16 0 24.5 11.5t8.5 25.5q0 13 -8 23t-25 10h-124zM193 226v-60h124q17 0 25 9.5t8 20.5t-8 20.5t-25 9.5h-124zM35 299v216q0 83 75 83h265q34 0 60 -14t42.5 -37t25 -52t8.5 -59q0 -26 -6.5 -50t-19 -43t-32 -31t-44.5 -13q50 -8 74 -48.5t24 -90.5
q0 -29 -8 -58t-24.5 -51.5t-41 -36.5t-56.5 -14h-263q-79 0 -79 83v1v215z" />
    <glyph glyph-name="C" unicode="C" horiz-adv-x="496" 
d="M319 430q-35 0 -60.5 -11t-43 -29.5t-26 -42t-8.5 -48.5t8.5 -49t26 -42.5t43 -30t59.5 -11.5h61q21 0 36.5 -7t26 -19t15.5 -27t5 -30q0 -32 -21 -57.5t-62 -25.5h-60q-74 0 -130 25.5t-93.5 66.5t-56 94t-18.5 109q0 57 19.5 111t58 97t97 69t136.5 26h47q21 0 36.5 -7
t26 -19t16 -27t5.5 -31t-5.5 -31t-16 -27t-26 -19t-36.5 -7h-60z" />
    <glyph glyph-name="D" unicode="D" horiz-adv-x="532" 
d="M34 515q0 16 7.5 31t20 26.5t28 18.5t30.5 7h80q78 0 136 -26t96.5 -69t58 -97t19.5 -111q0 -56 -18.5 -109t-56 -94t-93 -66.5t-129.5 -25.5h-93q-39 0 -62.5 22.5t-23.5 60.5v432zM214 166q33 0 57.5 12t41.5 31t25.5 43.5t8.5 50.5q0 24 -8 47t-24.5 40.5t-42 28.5
t-59.5 11h-14v-264h15z" />
    <glyph glyph-name="E" unicode="E" horiz-adv-x="512" 
d="M116 0q-82 0 -82 83v432q0 83 82 83h280q39 0 61 -24.5t22 -58.5t-22 -58.5t-61 -24.5h-198v-50h158q39 0 61 -24.5t22 -58.5t-22 -58.5t-61 -24.5h-158v-50h198q39 0 61 -24.5t22 -58.5t-22 -58.5t-61 -24.5h-280z" />
    <glyph glyph-name="F" unicode="F" horiz-adv-x="489" 
d="M198 83q0 -40 -24.5 -61t-57.5 -21t-57.5 21t-24.5 61v432q0 83 82 83h280q39 0 61 -24.5t22 -58.5t-22 -58.5t-61 -24.5h-198v-50h158q39 0 61 -24.5t22 -58.5t-22 -58.5t-61 -24.5h-158v-133z" />
    <glyph glyph-name="G" unicode="G" horiz-adv-x="497" 
d="M463 83q0 -39 -24 -61t-60 -22h-60q-74 0 -130 25.5t-93.5 66.5t-56 94t-18.5 109q0 57 19.5 111t58 97t97 69t136.5 26h47q21 0 36.5 -7t26 -19t16 -27t5.5 -31t-5.5 -31t-16 -27t-26 -19t-36.5 -7h-60q-35 0 -60.5 -11t-43 -29.5t-26 -42t-8.5 -48.5q0 -23 7.5 -45
t22 -40.5t36.5 -31t51 -15.5v97q0 40 24.5 61t58.5 21q33 0 57.5 -21t24.5 -61v-181z" />
    <glyph glyph-name="H" unicode="H" horiz-adv-x="533" 
d="M498 83q0 -40 -24.5 -61t-58.5 -21q-33 0 -57.5 21t-24.5 61v133h-134v-133q0 -40 -24.5 -61t-58.5 -21q-33 0 -57.5 21t-24.5 61v432q0 40 24.5 61t57.5 21q34 0 58.5 -21t24.5 -61v-133h134v133q0 40 24.5 61t57.5 21q34 0 58.5 -21t24.5 -61v-432z" />
    <glyph glyph-name="I" unicode="I" horiz-adv-x="233" 
d="M198 83q0 -40 -24.5 -61t-57.5 -21q-34 0 -58.5 21t-24.5 61v432q0 40 24.5 61t58.5 21q33 0 57.5 -21t24.5 -61v-432z" />
    <glyph glyph-name="J" unicode="J" horiz-adv-x="431" 
d="M402 298q0 -68 -17 -123t-51 -94t-85.5 -60t-119.5 -21h-39q-39 0 -61 24.5t-22 58.5t22 58.5t61 24.5h25q30 0 53 6t38.5 20t23.5 37.5t8 58.5v227q0 40 24.5 61t57.5 21t57.5 -21t24.5 -61v-217z" />
    <glyph glyph-name="K" unicode="K" horiz-adv-x="516" 
d="M199 83q0 -40 -24.5 -61t-57.5 -21q-34 0 -58.5 21t-24.5 61v432q0 40 24.5 61t58.5 21q33 0 57.5 -21t24.5 -61v-137l134 191q14 15 29 23t35 8q17 0 32.5 -7t27.5 -18t19 -26.5t7 -31.5q0 -29 -19 -51l-146 -164l146 -167q20 -23 20 -52q0 -17 -7.5 -32t-19.5 -26
t-27.5 -18t-31.5 -7q-38 0 -64 32l-135 188v-137z" />
    <glyph glyph-name="L" unicode="L" horiz-adv-x="374" 
d="M116 0q-82 0 -82 83v432q0 40 24.5 61t57.5 21t57.5 -21t24.5 -61v-349h88q38 0 58 -24.5t20 -58.5t-20 -58.5t-58 -24.5h-170z" />
    <glyph glyph-name="M" unicode="M" horiz-adv-x="644" 
d="M200 83q0 -40 -24.5 -61t-58.5 -21q-33 0 -57.5 21t-24.5 61v423q0 48 17 69.5t62 21.5q41 0 62.5 -13t39.5 -36l109 -139l108 140q17 22 38.5 35t56.5 13q45 0 63 -21.5t18 -69.5v-423q0 -40 -24.5 -61t-58.5 -21q-33 0 -57.5 21t-24.5 61v252l-74 -98q-24 -30 -50 -30
q-27 0 -49 31l-71 97v-252z" />
    <glyph glyph-name="N" unicode="N" horiz-adv-x="533" 
d="M199 83q0 -40 -24.5 -61t-58.5 -21q-33 0 -57.5 21t-24.5 61v432q0 40 24.5 61t57.5 21h4q44 0 63 -37l150 -227v182q0 40 24.5 61t57.5 21q34 0 58.5 -21t24.5 -61v-432q0 -40 -24.5 -61t-58.5 -21q-17 0 -29 4t-20.5 10t-13.5 12t-8 10l-145 216v-170z" />
    <glyph glyph-name="O" unicode="O" 
d="M24 301q0 63 24 119t65 97.5t97 65.5t119 24t119 -24t97.5 -65.5t65.5 -97.5t24 -119t-24 -119t-65.5 -97t-97.5 -65t-119 -24t-119 24t-97 65t-65 97t-24 119zM192 299q0 -29 10.5 -54t29.5 -44t44 -29.5t54 -10.5t54.5 10.5t44 29.5t29.5 44t11 54t-11 54.5t-29.5 44
t-44 29.5t-54.5 11t-54 -11t-44 -29.5t-29.5 -44t-10.5 -54.5z" />
    <glyph glyph-name="P" unicode="P" horiz-adv-x="502" 
d="M201 85q0 -85 -83 -85q-42 0 -62.5 21.5t-20.5 61.5v432q0 83 80 83h168q54 0 93.5 -16.5t65 -43.5t38 -61.5t12.5 -70.5t-11.5 -70t-34 -60.5t-55 -43t-74.5 -16.5h-27q-75 0 -75 67q0 24 9 36.5t23 19t30 9t30 7t24 13.5t11 28q0 45 -52 45h-89v-356z" />
    <glyph glyph-name="Q" unicode="Q" horiz-adv-x="663" 
d="M474 32q-32 -17 -69 -26.5t-76 -9.5q-63 0 -119 24t-97 65t-65 97t-24 119t24 119t65 97.5t97 65.5t119 24t119 -24t97.5 -65.5t65.5 -97.5t24 -119q0 -42 -10.5 -80t-29.5 -71l10 -10q13 -13 19 -28t6 -30q0 -17 -7 -32.5t-19 -27.5t-27.5 -19t-32.5 -7q-32 0 -58 25z
M192 299q0 -29 10.5 -54t29.5 -44t44 -29.5t54 -10.5q13 0 15 1l-50 50q-25 26 -25 58q0 17 7 32.5t19 27.5t27.5 19t32.5 7q15 0 30 -6t28 -19l53 -53q1 5 1.5 10.5t0.5 10.5q0 29 -11 54.5t-29.5 44t-44 29.5t-54.5 11t-54 -11t-44 -29.5t-29.5 -44t-10.5 -54.5z" />
    <glyph glyph-name="R" unicode="R" horiz-adv-x="524" 
d="M240 211q-25 34 -25 72q0 24 9 36.5t23 19t30 9t30 7t24 13.5t11 28q0 45 -52 45h-89v-356q0 -85 -83 -85q-42 0 -62.5 21.5t-20.5 61.5v432q0 83 80 83h178q52 0 90.5 -15.5t63.5 -41t37 -58t12 -66.5q0 -51 -25.5 -96t-75.5 -68l71 -113q16 -26 16 -53q0 -18 -7 -34
t-18.5 -28t-26.5 -18.5t-31 -6.5q-18 0 -35.5 10.5t-30.5 33.5z" />
    <glyph glyph-name="S" unicode="S" horiz-adv-x="494" 
d="M467 191q0 -191 -186 -191h-164q-79 0 -79 80v3q2 83 80 83h172q17 0 25 9.5t8 20.5t-8 20.5t-25 9.5h-85q-176 0 -176 181q0 191 188 191h132q79 0 79 -80v-3q-2 -83 -80 -83h-142q-17 0 -25 -9.5t-8 -20.5t8 -20.5t25 -9.5h85q176 0 176 -181z" />
    <glyph glyph-name="T" unicode="T" horiz-adv-x="478" 
d="M322 83q0 -40 -24.5 -61t-58.5 -21q-33 0 -57.5 21t-24.5 61v349h-58q-39 0 -61 24.5t-22 58.5t22 58.5t61 24.5h279q39 0 61 -24.5t22 -58.5t-22 -58.5t-61 -24.5h-56v-349z" />
    <glyph glyph-name="U" unicode="U" horiz-adv-x="546" 
d="M515 263q0 -263 -240 -263q-244 0 -244 263v252q0 40 24.5 61t57.5 21q34 0 58.5 -21t24.5 -61v-277q0 -74 77 -74t77 74v277q0 40 24.5 61t57.5 21q34 0 58.5 -21t24.5 -61v-252z" />
    <glyph glyph-name="V" unicode="V" horiz-adv-x="565" 
d="M385 545q11 28 30.5 41t42.5 13q16 0 32 -6t29 -16.5t20.5 -25t7.5 -32.5q0 -17 -7 -32l-178 -432q-24 -55 -76 -55q-53 0 -84 55l-178 432q-7 15 -7 32q0 18 7.5 32.5t20.5 25t28.5 16.5t32.5 6q23 0 42.5 -13t30.5 -41l103 -264z" />
    <glyph glyph-name="W" unicode="W" horiz-adv-x="835" 
d="M649 545q8 30 27 43.5t42 13.5q15 0 30 -5.5t27 -16t19.5 -25.5t7.5 -33q0 -13 -5 -30l-141 -437q-9 -29 -31.5 -43t-47.5 -14q-26 0 -48.5 14.5t-32.5 42.5l-76 220l-71 -220q-9 -29 -31.5 -43t-47.5 -14q-26 0 -48.5 14.5t-32.5 42.5l-151 439q-5 17 -5 29
q0 18 7.5 32.5t19.5 25t27 16t31 5.5q23 0 42.5 -13.5t27.5 -43.5l81 -292l73 292q8 29 29.5 44t46.5 15t47 -15t30 -44l81 -292z" />
    <glyph glyph-name="X" unicode="X" horiz-adv-x="503" 
d="M314 555q13 22 30.5 32.5t37.5 10.5q16 0 32 -7t28.5 -18t20 -26.5t7.5 -31.5q0 -23 -14 -43l-118 -174l119 -175q14 -20 14 -43q0 -17 -8.5 -32t-21.5 -26t-29 -17.5t-32 -6.5q-19 0 -36 10t-29 32l-64 113l-64 -113q-12 -22 -29 -32t-36 -10q-16 0 -32 6.5t-29 17.5
t-21.5 26t-8.5 32q0 23 14 43l119 175l-118 174q-14 20 -14 43q0 16 7.5 31.5t20 26.5t28.5 18t32 7q20 0 37.5 -10.5t30.5 -32.5l63 -111z" />
    <glyph glyph-name="Y" unicode="Y" horiz-adv-x="490" 
d="M318 555q13 22 30.5 32.5t37.5 10.5q16 0 32 -7t28.5 -18t20 -26t7.5 -31q0 -21 -14 -44l-132 -213v-177q0 -40 -24.5 -61t-57.5 -21q-34 0 -58.5 21t-24.5 61v177l-133 213q-14 23 -14 44q0 16 7.5 31t20 26t28.5 18t32 7q20 0 37.5 -10.5t30.5 -32.5l73 -125z" />
    <glyph glyph-name="Z" unicode="Z" horiz-adv-x="552" 
d="M427 166q39 0 61 -24.5t22 -58.5t-22 -58.5t-61 -24.5h-304q-42 0 -66.5 19.5t-24.5 57.5q0 37 35 72l225 283h-175q-39 0 -61 24.5t-22 58.5t22 58.5t61 24.5h325q34 0 56 -19.5t22 -54.5q0 -25 -15 -53l-232 -305h154z" />
    <glyph glyph-name="bracketleft" unicode="[" horiz-adv-x="341" 
d="M116 -64q-82 0 -82 81v566q0 82 82 82h110q39 0 61 -24.5t22 -57.5t-22 -57.5t-61 -24.5h-28v-401h28q39 0 61 -24.5t22 -58.5q0 -32 -22 -56.5t-61 -24.5h-110z" />
    <glyph glyph-name="backslash" unicode="\" horiz-adv-x="313" 
d="M295 104q4 -12 4 -26q0 -18 -7.5 -32t-19.5 -24.5t-28 -16t-33 -5.5q-26 0 -46.5 15t-28.5 46l-120 431q-3 12 -3 24q0 18 7.5 33t20 25.5t28 16t31.5 5.5q25 0 46 -14.5t29 -46.5z" />
    <glyph glyph-name="bracketright" unicode="]" horiz-adv-x="341" 
d="M306 17q0 -81 -82 -81h-110q-39 0 -61 24.5t-22 56.5q0 34 22 58.5t61 24.5h28v401h-28q-39 0 -61 24.5t-22 57.5t22 57.5t61 24.5h110q82 0 82 -82v-566z" />
    <glyph glyph-name="asciicircum" unicode="^" horiz-adv-x="1414" 
d="M62 293h1v47h67v28h-18v88h18v31h-18v37h439v-46q-7 13 -24 13q-46 0 -46 -77q0 -76 48 -76q15 0 31 19v-17h24v184h374v-26h34v26h360v-524h-1290v293zM938 340v94q0 54 -47 54q-24 0 -31 -24q-9 24 -28 24q-17 0 -27 -24v23h-32v-119h-19v-28h70v28h-19v61q0 23 19 23
q15 0 15 -23v-89h51v28h-19v61q0 22 19 22q15 0 15 -22v-89h33zM986 267h-56v-189h32v122h3l9 -122h58v189h-32v-122h-3zM480 267v-189h79l11 21v62l-8 14v3l8 14v55l-11 20h-79zM826 247v-148l10 -21h67l12 21v148l-11 20h-68zM271 267v-189h38v83h11v-83h41v76l-15 21v3
l15 20v49l-11 20h-79zM256 293h33v56q7 -12 24 -12q46 0 46 76t-48 76q-14 0 -31 -20v18h-24v-194zM475 412q0 78 -55 78q-54 0 -54 -78q0 -76 54 -76q55 0 55 76zM1184 209h38v38l-10 20h-66l-11 -20v-66l12 -20l37 -9v-38h-10v28h-39v-43l11 -21h65l11 21v72l-13 21l-35 8
v33h10v-24zM256 78v69l-26 120h-41l-23 -120v-69h37v36h13v-36h40zM464 78v69l-24 120h-41l-23 -120v-69h38v36h12v-36h38zM169 293h21q55 6 55 71v123h-33v-91q0 -26 -20 -26q-19 0 -19 26v91h-32v-85q0 -64 46 -64q14 0 25 8q0 -23 -28 -23h-15v-30zM678 159h26v33h-26v35
h26v40h-64v-189h64v42h-26v39zM786 156h24v33h-24v38h24v40h-63v-189h39v78zM1064 227v-149h39v149h21v40h-81v-40h21zM685 487h-15v-23q-11 26 -33 26q-43 0 -43 -43q0 -27 22 -36q-23 -9 -23 -33q1 -42 45 -42q22 0 34.5 13t12.5 40h-15q-3 -19 -25 -19q-20 0 -20 14
q0 18 20 18h10v18h-10q-20 0 -20 17q0 16 20 16q17 0 25 -20h15v54zM1096 485h-16v-21q-12 26 -30 26q-50 0 -50 -78q0 -75 51 -75q36 0 45 58h-16q-3 -23 -25 -23q-23 0 -23 40q0 41 23 41t25 -27h16v59zM151 120h-22v147h-38v-189h60v42zM625 78v189h-39v-189h39zM740 368
h-14v65q0 20 14 20q6 0 12 -6l11 33q-8 7 -17 8q-21 0 -31 -24v23h-19v-147h44v28zM943 487v-31h15v-116h34v147h-49zM286 437q6 15 21 15q21 0 21 -38q0 -43 -22 -43q-14 0 -20 16v50zM442 412q0 -40 -22 -40q-21 0 -21 40q0 41 21 41q22 0 22 -41zM553 389q-6 -14 -20 -14
q-21 0 -21 38q0 43 22 43q13 0 19 -16v-51zM63 368v88h19v-88h-19zM864 114v119h11v-119h-11zM63 487v37h19v-37h-19zM203 142v19l6 50h2l5 -50v-19h-13zM414 142v19l5 50h3l4 -50v-19h-12zM519 161h11v-47h-11v47zM519 192v41h11v-41h-11zM309 192v41h11v-41h-11z" />
    <glyph glyph-name="underscore" unicode="_" horiz-adv-x="661" 
d="M114 -182q-38 0 -60 24.5t-22 57.5t22 57.5t60 24.5h432q39 0 61 -24.5t22 -57.5t-22 -57.5t-61 -24.5h-432z" />
    <glyph glyph-name="grave" unicode="`" horiz-adv-x="277" 
d="M47 664q-17 5 -24 15.5t-7 22.5q0 16 10.5 29t28.5 13q1 0 4 -0.5t8 -1.5l162 -43q17 -5 24 -15.5t7 -22.5q0 -16 -10.5 -29t-28.5 -13q-1 0 -4 0.5t-8 1.5z" />
    <glyph glyph-name="a" unicode="a" horiz-adv-x="583" 
d="M255 246h80l-37 107zM380 116h-177l-25 -64q-11 -28 -30.5 -40.5t-42.5 -12.5q-17 0 -32.5 5.5t-28.5 16t-20.5 24.5t-7.5 32t7 33l197 435q13 28 35 42t45 14t44.5 -14t32.5 -42l181 -435q7 -15 7 -33q0 -17 -7.5 -31.5t-20.5 -25t-29 -16t-32 -5.5q-23 0 -43 12.5
t-30 40.5z" />
    <glyph glyph-name="b" unicode="b" horiz-adv-x="541" 
d="M193 432v-70h124q16 0 24.5 11.5t8.5 25.5q0 13 -8 23t-25 10h-124zM193 226v-60h124q17 0 25 9.5t8 20.5t-8 20.5t-25 9.5h-124zM35 299v216q0 83 75 83h265q34 0 60 -14t42.5 -37t25 -52t8.5 -59q0 -26 -6.5 -50t-19 -43t-32 -31t-44.5 -13q50 -8 74 -48.5t24 -90.5
q0 -29 -8 -58t-24.5 -51.5t-41 -36.5t-56.5 -14h-263q-79 0 -79 83v1v215z" />
    <glyph glyph-name="c" unicode="c" horiz-adv-x="496" 
d="M319 430q-35 0 -60.5 -11t-43 -29.5t-26 -42t-8.5 -48.5t8.5 -49t26 -42.5t43 -30t59.5 -11.5h61q21 0 36.5 -7t26 -19t15.5 -27t5 -30q0 -32 -21 -57.5t-62 -25.5h-60q-74 0 -130 25.5t-93.5 66.5t-56 94t-18.5 109q0 57 19.5 111t58 97t97 69t136.5 26h47q21 0 36.5 -7
t26 -19t16 -27t5.5 -31t-5.5 -31t-16 -27t-26 -19t-36.5 -7h-60z" />
    <glyph glyph-name="d" unicode="d" horiz-adv-x="532" 
d="M34 515q0 16 7.5 31t20 26.5t28 18.5t30.5 7h80q78 0 136 -26t96.5 -69t58 -97t19.5 -111q0 -56 -18.5 -109t-56 -94t-93 -66.5t-129.5 -25.5h-93q-39 0 -62.5 22.5t-23.5 60.5v432zM214 166q33 0 57.5 12t41.5 31t25.5 43.5t8.5 50.5q0 24 -8 47t-24.5 40.5t-42 28.5
t-59.5 11h-14v-264h15z" />
    <glyph glyph-name="e" unicode="e" horiz-adv-x="512" 
d="M116 0q-82 0 -82 83v432q0 83 82 83h280q39 0 61 -24.5t22 -58.5t-22 -58.5t-61 -24.5h-198v-50h158q39 0 61 -24.5t22 -58.5t-22 -58.5t-61 -24.5h-158v-50h198q39 0 61 -24.5t22 -58.5t-22 -58.5t-61 -24.5h-280z" />
    <glyph glyph-name="f" unicode="f" horiz-adv-x="489" 
d="M198 83q0 -40 -24.5 -61t-57.5 -21t-57.5 21t-24.5 61v432q0 83 82 83h280q39 0 61 -24.5t22 -58.5t-22 -58.5t-61 -24.5h-198v-50h158q39 0 61 -24.5t22 -58.5t-22 -58.5t-61 -24.5h-158v-133z" />
    <glyph glyph-name="g" unicode="g" horiz-adv-x="497" 
d="M463 83q0 -39 -24 -61t-60 -22h-60q-74 0 -130 25.5t-93.5 66.5t-56 94t-18.5 109q0 57 19.5 111t58 97t97 69t136.5 26h47q21 0 36.5 -7t26 -19t16 -27t5.5 -31t-5.5 -31t-16 -27t-26 -19t-36.5 -7h-60q-35 0 -60.5 -11t-43 -29.5t-26 -42t-8.5 -48.5q0 -23 7.5 -45
t22 -40.5t36.5 -31t51 -15.5v97q0 40 24.5 61t58.5 21q33 0 57.5 -21t24.5 -61v-181z" />
    <glyph glyph-name="h" unicode="h" horiz-adv-x="533" 
d="M498 83q0 -40 -24.5 -61t-58.5 -21q-33 0 -57.5 21t-24.5 61v133h-134v-133q0 -40 -24.5 -61t-58.5 -21q-33 0 -57.5 21t-24.5 61v432q0 40 24.5 61t57.5 21q34 0 58.5 -21t24.5 -61v-133h134v133q0 40 24.5 61t57.5 21q34 0 58.5 -21t24.5 -61v-432z" />
    <glyph glyph-name="i" unicode="i" horiz-adv-x="233" 
d="M198 83q0 -40 -24.5 -61t-57.5 -21q-34 0 -58.5 21t-24.5 61v432q0 40 24.5 61t58.5 21q33 0 57.5 -21t24.5 -61v-432z" />
    <glyph glyph-name="j" unicode="j" horiz-adv-x="431" 
d="M402 298q0 -68 -17 -123t-51 -94t-85.5 -60t-119.5 -21h-39q-39 0 -61 24.5t-22 58.5t22 58.5t61 24.5h25q30 0 53 6t38.5 20t23.5 37.5t8 58.5v227q0 40 24.5 61t57.5 21t57.5 -21t24.5 -61v-217z" />
    <glyph glyph-name="k" unicode="k" horiz-adv-x="516" 
d="M199 83q0 -40 -24.5 -61t-57.5 -21q-34 0 -58.5 21t-24.5 61v432q0 40 24.5 61t58.5 21q33 0 57.5 -21t24.5 -61v-137l134 191q14 15 29 23t35 8q17 0 32.5 -7t27.5 -18t19 -26.5t7 -31.5q0 -29 -19 -51l-146 -164l146 -167q20 -23 20 -52q0 -17 -7.5 -32t-19.5 -26
t-27.5 -18t-31.5 -7q-38 0 -64 32l-135 188v-137z" />
    <glyph glyph-name="l" unicode="l" horiz-adv-x="374" 
d="M116 0q-82 0 -82 83v432q0 40 24.5 61t57.5 21t57.5 -21t24.5 -61v-349h88q38 0 58 -24.5t20 -58.5t-20 -58.5t-58 -24.5h-170z" />
    <glyph glyph-name="m" unicode="m" horiz-adv-x="644" 
d="M200 83q0 -40 -24.5 -61t-58.5 -21q-33 0 -57.5 21t-24.5 61v423q0 48 17 69.5t62 21.5q41 0 62.5 -13t39.5 -36l109 -139l108 140q17 22 38.5 35t56.5 13q45 0 63 -21.5t18 -69.5v-423q0 -40 -24.5 -61t-58.5 -21q-33 0 -57.5 21t-24.5 61v252l-74 -98q-24 -30 -50 -30
q-27 0 -49 31l-71 97v-252z" />
    <glyph glyph-name="n" unicode="n" horiz-adv-x="533" 
d="M199 83q0 -40 -24.5 -61t-58.5 -21q-33 0 -57.5 21t-24.5 61v432q0 40 24.5 61t57.5 21h4q44 0 63 -37l150 -227v182q0 40 24.5 61t57.5 21q34 0 58.5 -21t24.5 -61v-432q0 -40 -24.5 -61t-58.5 -21q-17 0 -29 4t-20.5 10t-13.5 12t-8 10l-145 216v-170z" />
    <glyph glyph-name="o" unicode="o" 
d="M24 301q0 63 24 119t65 97.5t97 65.5t119 24t119 -24t97.5 -65.5t65.5 -97.5t24 -119t-24 -119t-65.5 -97t-97.5 -65t-119 -24t-119 24t-97 65t-65 97t-24 119zM192 299q0 -29 10.5 -54t29.5 -44t44 -29.5t54 -10.5t54.5 10.5t44 29.5t29.5 44t11 54t-11 54.5t-29.5 44
t-44 29.5t-54.5 11t-54 -11t-44 -29.5t-29.5 -44t-10.5 -54.5z" />
    <glyph glyph-name="p" unicode="p" horiz-adv-x="502" 
d="M201 85q0 -85 -83 -85q-42 0 -62.5 21.5t-20.5 61.5v432q0 83 80 83h168q54 0 93.5 -16.5t65 -43.5t38 -61.5t12.5 -70.5t-11.5 -70t-34 -60.5t-55 -43t-74.5 -16.5h-27q-75 0 -75 67q0 24 9 36.5t23 19t30 9t30 7t24 13.5t11 28q0 45 -52 45h-89v-356z" />
    <glyph glyph-name="q" unicode="q" horiz-adv-x="663" 
d="M474 32q-32 -17 -69 -26.5t-76 -9.5q-63 0 -119 24t-97 65t-65 97t-24 119t24 119t65 97.5t97 65.5t119 24t119 -24t97.5 -65.5t65.5 -97.5t24 -119q0 -42 -10.5 -80t-29.5 -71l10 -10q13 -13 19 -28t6 -30q0 -17 -7 -32.5t-19 -27.5t-27.5 -19t-32.5 -7q-32 0 -58 25z
M192 299q0 -29 10.5 -54t29.5 -44t44 -29.5t54 -10.5q13 0 15 1l-50 50q-25 26 -25 58q0 17 7 32.5t19 27.5t27.5 19t32.5 7q15 0 30 -6t28 -19l53 -53q1 5 1.5 10.5t0.5 10.5q0 29 -11 54.5t-29.5 44t-44 29.5t-54.5 11t-54 -11t-44 -29.5t-29.5 -44t-10.5 -54.5z" />
    <glyph glyph-name="r" unicode="r" horiz-adv-x="524" 
d="M240 211q-25 34 -25 72q0 24 9 36.5t23 19t30 9t30 7t24 13.5t11 28q0 45 -52 45h-89v-356q0 -85 -83 -85q-42 0 -62.5 21.5t-20.5 61.5v432q0 83 80 83h178q52 0 90.5 -15.5t63.5 -41t37 -58t12 -66.5q0 -51 -25.5 -96t-75.5 -68l71 -113q16 -26 16 -53q0 -18 -7 -34
t-18.5 -28t-26.5 -18.5t-31 -6.5q-18 0 -35.5 10.5t-30.5 33.5z" />
    <glyph glyph-name="s" unicode="s" horiz-adv-x="494" 
d="M467 191q0 -191 -186 -191h-164q-79 0 -79 80v3q2 83 80 83h172q17 0 25 9.5t8 20.5t-8 20.5t-25 9.5h-85q-176 0 -176 181q0 191 188 191h132q79 0 79 -80v-3q-2 -83 -80 -83h-142q-17 0 -25 -9.5t-8 -20.5t8 -20.5t25 -9.5h85q176 0 176 -181z" />
    <glyph glyph-name="t" unicode="t" horiz-adv-x="478" 
d="M322 83q0 -40 -24.5 -61t-58.5 -21q-33 0 -57.5 21t-24.5 61v349h-58q-39 0 -61 24.5t-22 58.5t22 58.5t61 24.5h279q39 0 61 -24.5t22 -58.5t-22 -58.5t-61 -24.5h-56v-349z" />
    <glyph glyph-name="u" unicode="u" horiz-adv-x="546" 
d="M515 263q0 -263 -240 -263q-244 0 -244 263v252q0 40 24.5 61t57.5 21q34 0 58.5 -21t24.5 -61v-277q0 -74 77 -74t77 74v277q0 40 24.5 61t57.5 21q34 0 58.5 -21t24.5 -61v-252z" />
    <glyph glyph-name="v" unicode="v" horiz-adv-x="565" 
d="M385 545q11 28 30.5 41t42.5 13q16 0 32 -6t29 -16.5t20.5 -25t7.5 -32.5q0 -17 -7 -32l-178 -432q-24 -55 -76 -55q-53 0 -84 55l-178 432q-7 15 -7 32q0 18 7.5 32.5t20.5 25t28.5 16.5t32.5 6q23 0 42.5 -13t30.5 -41l103 -264z" />
    <glyph glyph-name="w" unicode="w" horiz-adv-x="835" 
d="M649 545q8 30 27 43.5t42 13.5q15 0 30 -5.5t27 -16t19.5 -25.5t7.5 -33q0 -13 -5 -30l-141 -437q-9 -29 -31.5 -43t-47.5 -14q-26 0 -48.5 14.5t-32.5 42.5l-76 220l-71 -220q-9 -29 -31.5 -43t-47.5 -14q-26 0 -48.5 14.5t-32.5 42.5l-151 439q-5 17 -5 29
q0 18 7.5 32.5t19.5 25t27 16t31 5.5q23 0 42.5 -13.5t27.5 -43.5l81 -292l73 292q8 29 29.5 44t46.5 15t47 -15t30 -44l81 -292z" />
    <glyph glyph-name="x" unicode="x" horiz-adv-x="503" 
d="M314 555q13 22 30.5 32.5t37.5 10.5q16 0 32 -7t28.5 -18t20 -26.5t7.5 -31.5q0 -23 -14 -43l-118 -174l119 -175q14 -20 14 -43q0 -17 -8.5 -32t-21.5 -26t-29 -17.5t-32 -6.5q-19 0 -36 10t-29 32l-64 113l-64 -113q-12 -22 -29 -32t-36 -10q-16 0 -32 6.5t-29 17.5
t-21.5 26t-8.5 32q0 23 14 43l119 175l-118 174q-14 20 -14 43q0 16 7.5 31.5t20 26.5t28.5 18t32 7q20 0 37.5 -10.5t30.5 -32.5l63 -111z" />
    <glyph glyph-name="y" unicode="y" horiz-adv-x="490" 
d="M318 555q13 22 30.5 32.5t37.5 10.5q16 0 32 -7t28.5 -18t20 -26t7.5 -31q0 -21 -14 -44l-132 -213v-177q0 -40 -24.5 -61t-57.5 -21q-34 0 -58.5 21t-24.5 61v177l-133 213q-14 23 -14 44q0 16 7.5 31t20 26t28.5 18t32 7q20 0 37.5 -10.5t30.5 -32.5l73 -125z" />
    <glyph glyph-name="z" unicode="z" horiz-adv-x="552" 
d="M427 166q39 0 61 -24.5t22 -58.5t-22 -58.5t-61 -24.5h-304q-42 0 -66.5 19.5t-24.5 57.5q0 37 35 72l225 283h-175q-39 0 -61 24.5t-22 58.5t22 58.5t61 24.5h325q34 0 56 -19.5t22 -54.5q0 -25 -15 -53l-232 -305h154z" />
    <glyph glyph-name="braceleft" unicode="{" horiz-adv-x="341" 
d="M116 -64q-82 0 -82 81v566q0 82 82 82h110q39 0 61 -24.5t22 -57.5t-22 -57.5t-61 -24.5h-28v-401h28q39 0 61 -24.5t22 -58.5q0 -32 -22 -56.5t-61 -24.5h-110z" />
    <glyph glyph-name="bar" unicode="|" horiz-adv-x="233" 
d="M198 83q0 -40 -24.5 -61t-57.5 -21q-34 0 -58.5 21t-24.5 61v432q0 40 24.5 61t58.5 21q33 0 57.5 -21t24.5 -61v-432z" />
    <glyph glyph-name="braceright" unicode="}" horiz-adv-x="341" 
d="M306 17q0 -81 -82 -81h-110q-39 0 -61 24.5t-22 56.5q0 34 22 58.5t61 24.5h28v401h-28q-39 0 -61 24.5t-22 57.5t22 57.5t61 24.5h110q82 0 82 -82v-566z" />
    <glyph glyph-name="asciitilde" unicode="~" horiz-adv-x="568" 
d="M104 347q-19 -10 -29 -10q-16 0 -29 11.5t-13 28.5q0 19 11.5 34.5t28.5 26.5t36.5 17t35.5 6q13 0 14 -1h2q16 0 44.5 -13.5t71.5 -25.5q16 0 25 7t16.5 15t15.5 15t22 7q16 0 28.5 -12t12.5 -29q0 -20 -13 -35t-32.5 -26t-41 -16.5t-37.5 -5.5q-20 0 -36.5 6
t-30.5 13.5t-28 13.5t-30 6q-13 0 -23.5 -5.5t-20.5 -27.5z" />
    <glyph glyph-name="exclamdown" unicode="&#xa1;" horiz-adv-x="230" 
d="M33 250q0 39 24 61t58 22q33 0 57.5 -22t24.5 -61v-264q0 -40 -24.5 -61t-57.5 -21q-34 0 -58 21t-24 61v264zM31 418q0 34 24 58.5t58 24.5t58.5 -24.5t24.5 -58.5t-24.5 -58.5t-58.5 -24.5t-58 24.5t-24 58.5z" />
    <glyph glyph-name="sterling" unicode="&#xa3;" horiz-adv-x="448" 
d="M29 257q-21 0 -31 12.5t-10 27.5t10 27.5t31 12.5h6q3 47 16 88q17 55 51 94t85.5 60t119.5 21h39q39 0 61 -24.5t22 -58.5t-22 -58.5t-61 -24.5h-25q-30 0 -53 -6t-38.5 -20t-23.5 -38q-5 -14 -7 -33h112q21 0 31 -12.5t10 -27.5t-10 -27.5t-31 -12.5h-113v-91h158
q38 0 58 -24.5t20 -58.5t-20 -58.5t-58 -24.5h-240q-82 0 -82 85v172h-5z" />
    <glyph glyph-name="currency" unicode="&#xa4;" horiz-adv-x="507" 
d="M319 430q-35 0 -60.5 -11t-43 -29.5t-26 -42t-8.5 -48.5t8.5 -49t26 -42.5t43 -30t59.5 -11.5h61q21 0 36.5 -7t26 -19t15.5 -27t5 -30q0 -32 -21 -57.5t-62 -25.5h-60q-74 0 -130 25.5t-93.5 66.5t-56 94t-18.5 109q0 57 19.5 111t58 97t97 69t136.5 26h47q21 0 36.5 -7
t26 -19t16 -27t5.5 -31t-5.5 -31t-16 -27t-26 -19t-36.5 -7h-60zM196.2 190.896q-20.6318 0 -34.7793 14.1592t-14.1475 34.8076q0 19.4688 12.9688 34.2178t35.958 14.749h159.159q22.9893 0 35.958 -14.749t12.9688 -34.2178q0 -20.6484 -14.1475 -34.8076
t-34.7793 -14.1592h-159.159zM196.2 315.969q-20.6318 0 -34.7793 14.1592t-14.1475 34.8086q0 19.4688 12.9688 34.2178t35.958 14.749h159.159q22.9893 0 35.958 -14.749t12.9688 -34.2178q0 -20.6494 -14.1475 -34.8086t-34.7793 -14.1592h-159.159z" />
    <glyph glyph-name="dieresis" unicode="&#xa8;" horiz-adv-x="322" 
d="M32 658q0 20 14 34t34 14t34 -14t14 -34t-14 -34t-34 -14t-34 14t-14 34zM192 658q0 20 14 34t34 14t34 -14t14 -34t-14 -34t-34 -14t-34 14t-14 34z" />
    <glyph glyph-name="copyright" unicode="&#xa9;" horiz-adv-x="635" 
d="M41 277q0 57 22 108t59.5 88.5t88.5 59.5t108 22t108 -22t88.5 -59.5t59.5 -88.5t22 -108t-22 -108t-59.5 -88.5t-88.5 -59.5t-108 -22t-108 22t-88.5 59.5t-59.5 88.5t-22 108zM74 276q0 -51 19.5 -96t52.5 -78t78 -52.5t96 -19.5t96 19.5t78.5 52.5t53 78t19.5 96
t-19.5 96t-53 79t-78.5 53.5t-96 19.5t-96 -19.5t-78 -53.5t-52.5 -79t-19.5 -96zM378 346q-26 36 -63 36q-35 0 -56 -29t-21 -80q0 -48 22.5 -78t55.5 -30q17 0 33.5 8.5t28.5 22.5l50 -34q-38 -62 -113 -62q-30 0 -55.5 13t-44 36.5t-29 55t-10.5 68.5t9.5 69t27.5 55.5
t44 36.5t58 13q78 0 115 -67z" />
    <glyph glyph-name="guillemotleft" unicode="&#xab;" horiz-adv-x="708" 
d="M643 141q25 -25 25 -58q0 -17 -7 -32t-18 -26.5t-26.5 -18t-31.5 -6.5q-34 0 -59 25l-216 216q-27 27 -27 58t27 58l216 216v-1q25 27 59 27q16 0 31.5 -7t26.5 -18.5t18 -27t7 -31.5q0 -33 -25 -58l-157 -158zM367 141q25 -25 25 -58q0 -17 -7 -32t-18 -26.5t-26.5 -18
t-31.5 -6.5q-34 0 -59 25l-216 216q-27 27 -27 58t27 58l216 216v-1q25 27 59 27q16 0 31.5 -7t26.5 -18.5t18 -27t7 -31.5q0 -33 -25 -58l-157 -158z" />
    <glyph glyph-name="registered" unicode="&#xae;" horiz-adv-x="540" 
d="M270 524q-42 0 -75.5 -15t-57 -39t-36 -55t-12.5 -62q0 -32 12.5 -63t36 -55t57 -39t75.5 -15q39 0 74.5 13t61.5 36.5t41.5 55t15.5 67.5q0 31 -14.5 62t-40 55t-61 39t-77.5 15zM271 142q-49 0 -90 17.5t-71 46.5t-46.5 67t-16.5 80q0 43 16.5 81.5t46.5 67.5t71 46
t90 17t91 -16.5t72.5 -45t47.5 -67t17 -83.5q0 -42 -17.5 -80t-48 -67t-72.5 -46.5t-90 -17.5zM246 418v-52h38q24 0 24 25q0 27 -24 27h-38zM270 319h-24v-84h-45v229h82q32 0 51.5 -19t19.5 -54q0 -23 -9 -37.5t-29 -27.5l41 -91h-48z" />
    <glyph glyph-name="acute" unicode="&#xb4;" horiz-adv-x="277" 
d="M68 621q-5 -1 -8 -1.5t-4 -0.5q-18 0 -28.5 13t-10.5 29q0 12 7 22.5t24 15.5l162 43q5 1 8 1.5t4 0.5q18 0 28.5 -13t10.5 -29q0 -12 -7 -22.5t-24 -15.5z" />
    <glyph glyph-name="cedilla" unicode="&#xb8;" horiz-adv-x="178" 
d="M44 23q5 37 17 46t26 9q15 0 27.5 -10t12.5 -30q0 -22 5 -36.5t11 -26t11 -22.5t5 -26q0 -18 -7.5 -36.5t-21 -34.5t-31.5 -26.5t-38 -11.5q-21 0 -31 12.5t-10 27.5t10 27.5t31 12.5h-4l11 11t6 17q0 12 -4.5 24t-10.5 24t-10.5 24t-4.5 25z" />
    <glyph glyph-name="guillemotright" unicode="&#xbb;" horiz-adv-x="742" 
d="M465 25q-25 -25 -59 -25q-17 0 -32 6.5t-26 18t-18 26t-7 31.5q0 33 27 59h-1l157 158l-157 158h1q-27 25 -27 58q0 16 7 31.5t18 26.5t26 18t32 7q34 0 59 -25l216 -216q28 -28 28 -58q0 -32 -29 -58h1zM173 25q-25 -25 -59 -25q-17 0 -32 6.5t-26 18t-18 26t-7 31.5
q0 33 27 59h-1l157 158l-157 158h1q-27 25 -27 58q0 16 7 31.5t18 26.5t26 18t32 7q34 0 59 -25l216 -216q28 -28 28 -58q0 -32 -29 -58h1z" />
    <glyph glyph-name="questiondown" unicode="&#xbf;" horiz-adv-x="541" 
d="M217 418q0 34 24.5 58.5t58.5 24.5t58.5 -24.5t24.5 -58.5t-24.5 -58.5t-58.5 -24.5t-58.5 24.5t-24.5 58.5zM292 285q87 0 87 -83t-86 -83h-86q-33 0 -33 -25t33 -25h216q84 0 86 -83v-3q0 -80 -85 -80h-208q-186 0 -186 191t185 191h77z" />
    <glyph glyph-name="Agrave" unicode="&#xc0;" horiz-adv-x="583" 
d="M255 246h80l-37 107zM380 116h-177l-25 -64q-11 -28 -30.5 -40.5t-42.5 -12.5q-17 0 -32.5 5.5t-28.5 16t-20.5 24.5t-7.5 32t7 33l197 435q13 28 35 42t45 14t44.5 -14t32.5 -42l181 -435q7 -15 7 -33q0 -17 -7.5 -31.5t-20.5 -25t-29 -16t-32 -5.5q-23 0 -43 12.5
t-30 40.5zM205 664q-17 5 -24 15.5t-7 22.5q0 16 10.5 29t28.5 13q1 0 4 -0.5t8 -1.5l162 -43q17 -5 24 -15.5t7 -22.5q0 -16 -10.5 -29t-28.5 -13q-1 0 -4 0.5t-8 1.5z" />
    <glyph glyph-name="Aacute" unicode="&#xc1;" horiz-adv-x="583" 
d="M255 246h80l-37 107zM380 116h-177l-25 -64q-11 -28 -30.5 -40.5t-42.5 -12.5q-17 0 -32.5 5.5t-28.5 16t-20.5 24.5t-7.5 32t7 33l197 435q13 28 35 42t45 14t44.5 -14t32.5 -42l181 -435q7 -15 7 -33q0 -17 -7.5 -31.5t-20.5 -25t-29 -16t-32 -5.5q-23 0 -43 12.5
t-30 40.5zM228 621q-5 -1 -8 -1.5t-4 -0.5q-18 0 -28.5 13t-10.5 29q0 12 7 22.5t24 15.5l162 43q5 1 8 1.5t4 0.5q18 0 28.5 -13t10.5 -29q0 -12 -7 -22.5t-24 -15.5z" />
    <glyph glyph-name="Acircumflex" unicode="&#xc2;" horiz-adv-x="583" 
d="M255 246h80l-37 107zM380 116h-177l-25 -64q-11 -28 -30.5 -40.5t-42.5 -12.5q-17 0 -32.5 5.5t-28.5 16t-20.5 24.5t-7.5 32t7 33l197 435q13 28 35 42t45 14t44.5 -14t32.5 -42l181 -435q7 -15 7 -33q0 -17 -7.5 -31.5t-20.5 -25t-29 -16t-32 -5.5q-23 0 -43 12.5
t-30 40.5zM263 621q-13 -13 -29 -13t-28 12t-12 28t13 29l54 50q23 20 39 20q18 0 40 -19l53 -56q11 -8 11 -23q0 -16 -12 -28t-28 -12t-29 13l-36 35z" />
    <glyph glyph-name="Atilde" unicode="&#xc3;" horiz-adv-x="583" 
d="M255 246h80l-37 107zM380 116h-177l-25 -64q-11 -28 -30.5 -40.5t-42.5 -12.5q-17 0 -32.5 5.5t-28.5 16t-20.5 24.5t-7.5 32t7 33l197 435q13 28 35 42t45 14t44.5 -14t32.5 -42l181 -435q7 -15 7 -33q0 -17 -7.5 -31.5t-20.5 -25t-29 -16t-32 -5.5q-23 0 -43 12.5
t-30 40.5zM190 629q-19 -10 -29 -10q-16 0 -29 11.5t-13 28.5q0 19 11.5 34.5t28.5 26.5t36.5 17t35.5 6q13 0 14 -1h2q16 0 44.5 -13.5t71.5 -25.5q16 0 25 7t16.5 15t15.5 15t22 7q16 0 28.5 -12t12.5 -29q0 -20 -13 -35t-32.5 -26t-41 -16.5t-37.5 -5.5q-20 0 -36.5 6
t-30.5 13.5t-28 13.5t-30 6q-13 0 -23.5 -5.5t-20.5 -27.5z" />
    <glyph glyph-name="Adieresis" unicode="&#xc4;" horiz-adv-x="583" 
d="M255 246h80l-37 107zM380 116h-177l-25 -64q-11 -28 -30.5 -40.5t-42.5 -12.5q-17 0 -32.5 5.5t-28.5 16t-20.5 24.5t-7.5 32t7 33l197 435q13 28 35 42t45 14t44.5 -14t32.5 -42l181 -435q7 -15 7 -33q0 -17 -7.5 -31.5t-20.5 -25t-29 -16t-32 -5.5q-23 0 -43 12.5
t-30 40.5zM171 658q0 20 14 34t34 14t34 -14t14 -34t-14 -34t-34 -14t-34 14t-14 34zM331 658q0 20 14 34t34 14t34 -14t14 -34t-14 -34t-34 -14t-34 14t-14 34z" />
    <glyph glyph-name="Aring" unicode="&#xc5;" horiz-adv-x="583" 
d="M255 246h80l-37 107zM380 116h-177l-25 -64q-11 -28 -30.5 -40.5t-42.5 -12.5q-17 0 -32.5 5.5t-28.5 16t-20.5 24.5t-7.5 32t7 33l197 435q13 28 35 42t45 14t44.5 -14t32.5 -42l181 -435q7 -15 7 -33q0 -17 -7.5 -31.5t-20.5 -25t-29 -16t-32 -5.5q-23 0 -43 12.5
t-30 40.5zM205 666q0 19 7.5 35.5t20 28.5t29.5 19t37 7q19 0 36.5 -7t30 -19t20 -28.5t7.5 -35.5t-7.5 -35.5t-20 -28.5t-30 -19t-36.5 -7q-20 0 -37 7t-29.5 19t-20 28.5t-7.5 35.5zM263 665q0 -16 10.5 -27t25.5 -11t26 11t11 27t-11 27t-26 11t-25.5 -11t-10.5 -27z" />
    <glyph glyph-name="AE" unicode="&#xc6;" horiz-adv-x="787" 
d="M478 0q-11 0 -20 1v-2q-23 0 -40 12q-16 12 -18 38q-4 15 -4 34v11l-2 22h-177l-42 -64q-19 -28 -42 -40.5t-46 -12.5q-17 0 -31 5.5t-24 16t-14 24.5t1 32t16 33l314 435q35 53 95 53h234q39 0 61 -24.5t22 -58.5t-22 -58.5t-61 -24.5h-118v-50h78q39 0 61 -24.5
t22 -58.5t-22 -58.5t-61 -24.5h-78v-50h118q39 0 61 -24.5t22 -58.5t-22 -58.5t-61 -24.5h-200zM396 246v124l-92 -124h92z" />
    <glyph glyph-name="Ccedilla" unicode="&#xc7;" horiz-adv-x="496" 
d="M319 430q-35 0 -60.5 -11t-43 -29.5t-26 -42t-8.5 -48.5t8.5 -49t26 -42.5t43 -30t59.5 -11.5h61q21 0 36.5 -7t26 -19t15.5 -27t5 -30q0 -32 -21 -57.5t-62 -25.5h-60q-74 0 -130 25.5t-93.5 66.5t-56 94t-18.5 109q0 57 19.5 111t58 97t97 69t136.5 26h47q21 0 36.5 -7
t26 -19t16 -27t5.5 -31t-5.5 -31t-16 -27t-26 -19t-36.5 -7h-60zM256 23q5 37 17 46t26 9q15 0 27.5 -10t12.5 -30q0 -22 5 -36.5t11 -26t11 -22.5t5 -26q0 -18 -7.5 -36.5t-21 -34.5t-31.5 -26.5t-38 -11.5q-21 0 -31 12.5t-10 27.5t10 27.5t31 12.5h-4l11 11t6 17
q0 12 -4.5 24t-10.5 24t-10.5 24t-4.5 25z" />
    <glyph glyph-name="Egrave" unicode="&#xc8;" horiz-adv-x="512" 
d="M116 0q-82 0 -82 83v432q0 83 82 83h280q39 0 61 -24.5t22 -58.5t-22 -58.5t-61 -24.5h-198v-50h158q39 0 61 -24.5t22 -58.5t-22 -58.5t-61 -24.5h-158v-50h198q39 0 61 -24.5t22 -58.5t-22 -58.5t-61 -24.5h-280zM147 664q-17 5 -24 15.5t-7 22.5q0 16 10.5 29t28.5 13
q1 0 4 -0.5t8 -1.5l162 -43q17 -5 24 -15.5t7 -22.5q0 -16 -10.5 -29t-28.5 -13q-1 0 -4 0.5t-8 1.5z" />
    <glyph glyph-name="Eacute" unicode="&#xc9;" horiz-adv-x="512" 
d="M116 0q-82 0 -82 83v432q0 83 82 83h280q39 0 61 -24.5t22 -58.5t-22 -58.5t-61 -24.5h-198v-50h158q39 0 61 -24.5t22 -58.5t-22 -58.5t-61 -24.5h-158v-50h198q39 0 61 -24.5t22 -58.5t-22 -58.5t-61 -24.5h-280zM191 621q-5 -1 -8 -1.5t-4 -0.5q-18 0 -28.5 13
t-10.5 29q0 12 7 22.5t24 15.5l162 43q5 1 8 1.5t4 0.5q18 0 28.5 -13t10.5 -29q0 -12 -7 -22.5t-24 -15.5z" />
    <glyph glyph-name="Ecircumflex" unicode="&#xca;" horiz-adv-x="512" 
d="M116 0q-82 0 -82 83v432q0 83 82 83h280q39 0 61 -24.5t22 -58.5t-22 -58.5t-61 -24.5h-198v-50h158q39 0 61 -24.5t22 -58.5t-22 -58.5t-61 -24.5h-158v-50h198q39 0 61 -24.5t22 -58.5t-22 -58.5t-61 -24.5h-280zM228 621q-13 -13 -29 -13t-28 12t-12 28t13 29l54 50
q23 20 39 20q18 0 40 -19l53 -56q11 -8 11 -23q0 -16 -12 -28t-28 -12t-29 13l-36 35z" />
    <glyph glyph-name="Edieresis" unicode="&#xcb;" horiz-adv-x="512" 
d="M116 0q-82 0 -82 83v432q0 83 82 83h280q39 0 61 -24.5t22 -58.5t-22 -58.5t-61 -24.5h-198v-50h158q39 0 61 -24.5t22 -58.5t-22 -58.5t-61 -24.5h-158v-50h198q39 0 61 -24.5t22 -58.5t-22 -58.5t-61 -24.5h-280zM122 658q0 20 14 34t34 14t34 -14t14 -34t-14 -34
t-34 -14t-34 14t-14 34zM282 658q0 20 14 34t34 14t34 -14t14 -34t-14 -34t-34 -14t-34 14t-14 34z" />
    <glyph glyph-name="Igrave" unicode="&#xcc;" horiz-adv-x="233" 
d="M198 83q0 -40 -24.5 -61t-57.5 -21q-34 0 -58.5 21t-24.5 61v432q0 40 24.5 61t58.5 21q33 0 57.5 -21t24.5 -61v-432zM30 664q-17 5 -24 15.5t-7 22.5q0 16 10.5 29t28.5 13q1 0 4 -0.5t8 -1.5l162 -43q17 -5 24 -15.5t7 -22.5q0 -16 -10.5 -29t-28.5 -13q-1 0 -4 0.5
t-8 1.5z" />
    <glyph glyph-name="Iacute" unicode="&#xcd;" horiz-adv-x="233" 
d="M198 83q0 -40 -24.5 -61t-57.5 -21q-34 0 -58.5 21t-24.5 61v432q0 40 24.5 61t58.5 21q33 0 57.5 -21t24.5 -61v-432zM41 621q-5 -1 -8 -1.5t-4 -0.5q-18 0 -28.5 13t-10.5 29q0 12 7 22.5t24 15.5l162 43q5 1 8 1.5t4 0.5q18 0 28.5 -13t10.5 -29q0 -12 -7 -22.5
t-24 -15.5z" />
    <glyph glyph-name="Icircumflex" unicode="&#xce;" horiz-adv-x="233" 
d="M198 83q0 -40 -24.5 -61t-57.5 -21q-34 0 -58.5 21t-24.5 61v432q0 40 24.5 61t58.5 21q33 0 57.5 -21t24.5 -61v-432zM84 621q-13 -13 -29 -13t-28 12t-12 28t13 29l54 50q23 20 39 20q18 0 40 -19l53 -56q11 -8 11 -23q0 -16 -12 -28t-28 -12t-29 13l-36 35z" />
    <glyph glyph-name="Idieresis" unicode="&#xcf;" horiz-adv-x="233" 
d="M198 83q0 -40 -24.5 -61t-57.5 -21q-34 0 -58.5 21t-24.5 61v432q0 40 24.5 61t58.5 21q33 0 57.5 -21t24.5 -61v-432zM-12 658q0 20 14 34t34 14t34 -14t14 -34t-14 -34t-34 -14t-34 14t-14 34zM148 658q0 20 14 34t34 14t34 -14t14 -34t-14 -34t-34 -14t-34 14t-14 34z
" />
    <glyph glyph-name="Eth" unicode="&#xd0;" horiz-adv-x="532" 
d="M34 515q0 16 7.5 31t20 26.5t28 18.5t30.5 7h80q78 0 136 -26t96.5 -69t58 -97t19.5 -111q0 -56 -18.5 -109t-56 -94t-93 -66.5t-129.5 -25.5h-93q-39 0 -62.5 22.5t-23.5 60.5v432zM214 166q33 0 57.5 12t41.5 31t25.5 43.5t8.5 50.5q0 24 -8 47t-24.5 40.5t-42 28.5
t-59.5 11h-14v-264h15zM45.8926 243.562q-22.542 0 -35.2588 14.4346q-12.7158 14.4346 -12.7158 33.4883q0 19.6318 12.7158 34.3555q12.7168 14.7236 35.2588 14.7236h156.061q22.542 0 35.2578 -14.7236q12.7168 -14.7236 12.7168 -34.3555q0 -19.0537 -12.7168 -33.4883
q-12.7158 -14.4346 -35.2578 -14.4346h-156.061z" />
    <glyph glyph-name="Ntilde" unicode="&#xd1;" horiz-adv-x="533" 
d="M199 83q0 -40 -24.5 -61t-58.5 -21q-33 0 -57.5 21t-24.5 61v432q0 40 24.5 61t57.5 21h4q44 0 63 -37l150 -227v182q0 40 24.5 61t57.5 21q34 0 58.5 -21t24.5 -61v-432q0 -40 -24.5 -61t-58.5 -21q-17 0 -29 4t-20.5 10t-13.5 12t-8 10l-145 216v-170zM139 629
q-19 -10 -29 -10q-16 0 -29 11.5t-13 28.5q0 19 11.5 34.5t28.5 26.5t36.5 17t35.5 6q13 0 14 -1h2q16 0 44.5 -13.5t71.5 -25.5q16 0 25 7t16.5 15t15.5 15t22 7q16 0 28.5 -12t12.5 -29q0 -20 -13 -35t-32.5 -26t-41 -16.5t-37.5 -5.5q-20 0 -36.5 6t-30.5 13.5t-28 13.5
t-30 6q-13 0 -23.5 -5.5t-20.5 -27.5z" />
    <glyph glyph-name="Ograve" unicode="&#xd2;" 
d="M24 301q0 63 24 119t65 97.5t97 65.5t119 24t119 -24t97.5 -65.5t65.5 -97.5t24 -119t-24 -119t-65.5 -97t-97.5 -65t-119 -24t-119 24t-97 65t-65 97t-24 119zM192 299q0 -29 10.5 -54t29.5 -44t44 -29.5t54 -10.5t54.5 10.5t44 29.5t29.5 44t11 54t-11 54.5t-29.5 44
t-44 29.5t-54.5 11t-54 -11t-44 -29.5t-29.5 -44t-10.5 -54.5zM207 664q-17 5 -24 15.5t-7 22.5q0 16 10.5 29t28.5 13q1 0 4 -0.5t8 -1.5l162 -43q17 -5 24 -15.5t7 -22.5q0 -16 -10.5 -29t-28.5 -13q-1 0 -4 0.5t-8 1.5z" />
    <glyph glyph-name="Oacute" unicode="&#xd3;" 
d="M24 301q0 63 24 119t65 97.5t97 65.5t119 24t119 -24t97.5 -65.5t65.5 -97.5t24 -119t-24 -119t-65.5 -97t-97.5 -65t-119 -24t-119 24t-97 65t-65 97t-24 119zM192 299q0 -29 10.5 -54t29.5 -44t44 -29.5t54 -10.5t54.5 10.5t44 29.5t29.5 44t11 54t-11 54.5t-29.5 44
t-44 29.5t-54.5 11t-54 -11t-44 -29.5t-29.5 -44t-10.5 -54.5zM238 621q-5 -1 -8 -1.5t-4 -0.5q-18 0 -28.5 13t-10.5 29q0 12 7 22.5t24 15.5l162 43q5 1 8 1.5t4 0.5q18 0 28.5 -13t10.5 -29q0 -12 -7 -22.5t-24 -15.5z" />
    <glyph glyph-name="Ocircumflex" unicode="&#xd4;" 
d="M24 301q0 63 24 119t65 97.5t97 65.5t119 24t119 -24t97.5 -65.5t65.5 -97.5t24 -119t-24 -119t-65.5 -97t-97.5 -65t-119 -24t-119 24t-97 65t-65 97t-24 119zM192 299q0 -29 10.5 -54t29.5 -44t44 -29.5t54 -10.5t54.5 10.5t44 29.5t29.5 44t11 54t-11 54.5t-29.5 44
t-44 29.5t-54.5 11t-54 -11t-44 -29.5t-29.5 -44t-10.5 -54.5zM290 621q-13 -13 -29 -13t-28 12t-12 28t13 29l54 50q23 20 39 20q18 0 40 -19l53 -56q11 -8 11 -23q0 -16 -12 -28t-28 -12t-29 13l-36 35z" />
    <glyph glyph-name="Otilde" unicode="&#xd5;" 
d="M24 301q0 63 24 119t65 97.5t97 65.5t119 24t119 -24t97.5 -65.5t65.5 -97.5t24 -119t-24 -119t-65.5 -97t-97.5 -65t-119 -24t-119 24t-97 65t-65 97t-24 119zM192 299q0 -29 10.5 -54t29.5 -44t44 -29.5t54 -10.5t54.5 10.5t44 29.5t29.5 44t11 54t-11 54.5t-29.5 44
t-44 29.5t-54.5 11t-54 -11t-44 -29.5t-29.5 -44t-10.5 -54.5zM199 629q-19 -10 -29 -10q-16 0 -29 11.5t-13 28.5q0 19 11.5 34.5t28.5 26.5t36.5 17t35.5 6q13 0 14 -1h2q16 0 44.5 -13.5t71.5 -25.5q16 0 25 7t16.5 15t15.5 15t22 7q16 0 28.5 -12t12.5 -29
q0 -20 -13 -35t-32.5 -26t-41 -16.5t-37.5 -5.5q-20 0 -36.5 6t-30.5 13.5t-28 13.5t-30 6q-13 0 -23.5 -5.5t-20.5 -27.5z" />
    <glyph glyph-name="Odieresis" unicode="&#xd6;" 
d="M24 301q0 63 24 119t65 97.5t97 65.5t119 24t119 -24t97.5 -65.5t65.5 -97.5t24 -119t-24 -119t-65.5 -97t-97.5 -65t-119 -24t-119 24t-97 65t-65 97t-24 119zM192 299q0 -29 10.5 -54t29.5 -44t44 -29.5t54 -10.5t54.5 10.5t44 29.5t29.5 44t11 54t-11 54.5t-29.5 44
t-44 29.5t-54.5 11t-54 -11t-44 -29.5t-29.5 -44t-10.5 -54.5zM196 658q0 20 14 34t34 14t34 -14t14 -34t-14 -34t-34 -14t-34 14t-14 34zM356 658q0 20 14 34t34 14t34 -14t14 -34t-14 -34t-34 -14t-34 14t-14 34z" />
    <glyph glyph-name="Oslash" unicode="&#xd8;" 
d="M24 301q0 63 24 119t65 97.5t97 65.5t119 24t119 -24t97.5 -65.5t65.5 -97.5t24 -119t-24 -119t-65.5 -97t-97.5 -65t-119 -24t-119 24t-97 65t-65 97t-24 119zM192 299q0 -29 10.5 -54t29.5 -44l3 -4l66 238q-13 -3 -25 -8q-25 -11 -44 -29.5t-29.5 -44t-10.5 -54.5z
M366 165q9 2 18 6q26 11 44.5 30t29.5 44t11 54t-11 54t-28 43z" />
    <glyph glyph-name="Ugrave" unicode="&#xd9;" horiz-adv-x="546" 
d="M515 263q0 -263 -240 -263q-244 0 -244 263v252q0 40 24.5 61t57.5 21q34 0 58.5 -21t24.5 -61v-277q0 -74 77 -74t77 74v277q0 40 24.5 61t57.5 21q34 0 58.5 -21t24.5 -61v-252zM157 664q-17 5 -24 15.5t-7 22.5q0 16 10.5 29t28.5 13q1 0 4 -0.5t8 -1.5l162 -43
q17 -5 24 -15.5t7 -22.5q0 -16 -10.5 -29t-28.5 -13q-1 0 -4 0.5t-8 1.5z" />
    <glyph glyph-name="Uacute" unicode="&#xda;" horiz-adv-x="546" 
d="M515 263q0 -263 -240 -263q-244 0 -244 263v252q0 40 24.5 61t57.5 21q34 0 58.5 -21t24.5 -61v-277q0 -74 77 -74t77 74v277q0 40 24.5 61t57.5 21q34 0 58.5 -21t24.5 -61v-252zM178 621q-5 -1 -8 -1.5t-4 -0.5q-18 0 -28.5 13t-10.5 29q0 12 7 22.5t24 15.5l162 43
q5 1 8 1.5t4 0.5q18 0 28.5 -13t10.5 -29q0 -12 -7 -22.5t-24 -15.5z" />
    <glyph glyph-name="Ucircumflex" unicode="&#xdb;" horiz-adv-x="546" 
d="M515 263q0 -263 -240 -263q-244 0 -244 263v252q0 40 24.5 61t57.5 21q34 0 58.5 -21t24.5 -61v-277q0 -74 77 -74t77 74v277q0 40 24.5 61t57.5 21q34 0 58.5 -21t24.5 -61v-252zM234 621q-13 -13 -29 -13t-28 12t-12 28t13 29l54 50q23 20 39 20q18 0 40 -19l53 -56
q11 -8 11 -23q0 -16 -12 -28t-28 -12t-29 13l-36 35z" />
    <glyph glyph-name="Udieresis" unicode="&#xdc;" horiz-adv-x="546" 
d="M515 263q0 -263 -240 -263q-244 0 -244 263v252q0 40 24.5 61t57.5 21q34 0 58.5 -21t24.5 -61v-277q0 -74 77 -74t77 74v277q0 40 24.5 61t57.5 21q34 0 58.5 -21t24.5 -61v-252zM145 658q0 20 14 34t34 14t34 -14t14 -34t-14 -34t-34 -14t-34 14t-14 34zM305 658
q0 20 14 34t34 14t34 -14t14 -34t-14 -34t-34 -14t-34 14t-14 34z" />
    <glyph glyph-name="Yacute" unicode="&#xdd;" horiz-adv-x="490" 
d="M318 555q13 22 30.5 32.5t37.5 10.5q16 0 32 -7t28.5 -18t20 -26t7.5 -31q0 -21 -14 -44l-132 -213v-177q0 -40 -24.5 -61t-57.5 -21q-34 0 -58.5 21t-24.5 61v177l-133 213q-14 23 -14 44q0 16 7.5 31t20 26t28.5 18t32 7q20 0 37.5 -10.5t30.5 -32.5l73 -125zM154 621
q-5 -1 -8 -1.5t-4 -0.5q-18 0 -28.5 13t-10.5 29q0 12 7 22.5t24 15.5l162 43q5 1 8 1.5t4 0.5q18 0 28.5 -13t10.5 -29q0 -12 -7 -22.5t-24 -15.5z" />
    <glyph glyph-name="Thorn" unicode="&#xde;" horiz-adv-x="502" 
d="M201 85q0 -85 -83 -85q-42 0 -63 21q-7 8 -12 17q-10 19 -10 45v432q0 40 24.5 61t58.5 21q33 0 57.5 -21t24.5 -61v-14h85q54 0 93.5 -16.5t65 -43.5t38 -61.5t12.5 -70.5t-11.5 -70t-34 -60.5t-55 -43t-74.5 -16.5h-27q-75 0 -75 67q0 24 9 36.5t23 19t30 9t30 7
t24 13.5t11 28q0 45 -52 45h-89v-259z" />
    <glyph glyph-name="germandbls" unicode="&#xdf;" horiz-adv-x="988" 
d="M467 191q0 -191 -186 -191h-164q-79 0 -79 80v3q2 83 80 83h172q17 0 25 9.5t8 20.5t-8 20.5t-25 9.5h-85q-176 0 -176 181q0 191 188 191h132q79 0 79 -80v-3q-2 -83 -80 -83h-142q-17 0 -25 -9.5t-8 -20.5t8 -20.5t25 -9.5h85q176 0 176 -181zM961 191
q0 -191 -186 -191h-164q-79 0 -79 80v3q2 83 80 83h172q17 0 25 9.5t8 20.5t-8 20.5t-25 9.5h-85q-176 0 -176 181q0 191 188 191h132q79 0 79 -80v-3q-2 -83 -80 -83h-142q-17 0 -25 -9.5t-8 -20.5t8 -20.5t25 -9.5h85q176 0 176 -181z" />
    <glyph glyph-name="agrave" unicode="&#xe0;" horiz-adv-x="583" 
d="M255 246h80l-37 107zM380 116h-177l-25 -64q-11 -28 -30.5 -40.5t-42.5 -12.5q-17 0 -32.5 5.5t-28.5 16t-20.5 24.5t-7.5 32t7 33l197 435q13 28 35 42t45 14t44.5 -14t32.5 -42l181 -435q7 -15 7 -33q0 -17 -7.5 -31.5t-20.5 -25t-29 -16t-32 -5.5q-23 0 -43 12.5
t-30 40.5zM205 664q-17 5 -24 15.5t-7 22.5q0 16 10.5 29t28.5 13q1 0 4 -0.5t8 -1.5l162 -43q17 -5 24 -15.5t7 -22.5q0 -16 -10.5 -29t-28.5 -13q-1 0 -4 0.5t-8 1.5z" />
    <glyph glyph-name="aacute" unicode="&#xe1;" horiz-adv-x="583" 
d="M255 246h80l-37 107zM380 116h-177l-25 -64q-11 -28 -30.5 -40.5t-42.5 -12.5q-17 0 -32.5 5.5t-28.5 16t-20.5 24.5t-7.5 32t7 33l197 435q13 28 35 42t45 14t44.5 -14t32.5 -42l181 -435q7 -15 7 -33q0 -17 -7.5 -31.5t-20.5 -25t-29 -16t-32 -5.5q-23 0 -43 12.5
t-30 40.5zM228 621q-5 -1 -8 -1.5t-4 -0.5q-18 0 -28.5 13t-10.5 29q0 12 7 22.5t24 15.5l162 43q5 1 8 1.5t4 0.5q18 0 28.5 -13t10.5 -29q0 -12 -7 -22.5t-24 -15.5z" />
    <glyph glyph-name="acircumflex" unicode="&#xe2;" horiz-adv-x="583" 
d="M255 246h80l-37 107zM380 116h-177l-25 -64q-11 -28 -30.5 -40.5t-42.5 -12.5q-17 0 -32.5 5.5t-28.5 16t-20.5 24.5t-7.5 32t7 33l197 435q13 28 35 42t45 14t44.5 -14t32.5 -42l181 -435q7 -15 7 -33q0 -17 -7.5 -31.5t-20.5 -25t-29 -16t-32 -5.5q-23 0 -43 12.5
t-30 40.5zM263 621q-13 -13 -29 -13t-28 12t-12 28t13 29l54 50q23 20 39 20q18 0 40 -19l53 -56q11 -8 11 -23q0 -16 -12 -28t-28 -12t-29 13l-36 35z" />
    <glyph glyph-name="atilde" unicode="&#xe3;" horiz-adv-x="583" 
d="M255 246h80l-37 107zM380 116h-177l-25 -64q-11 -28 -30.5 -40.5t-42.5 -12.5q-17 0 -32.5 5.5t-28.5 16t-20.5 24.5t-7.5 32t7 33l197 435q13 28 35 42t45 14t44.5 -14t32.5 -42l181 -435q7 -15 7 -33q0 -17 -7.5 -31.5t-20.5 -25t-29 -16t-32 -5.5q-23 0 -43 12.5
t-30 40.5zM190 629q-19 -10 -29 -10q-16 0 -29 11.5t-13 28.5q0 19 11.5 34.5t28.5 26.5t36.5 17t35.5 6q13 0 14 -1h2q16 0 44.5 -13.5t71.5 -25.5q16 0 25 7t16.5 15t15.5 15t22 7q16 0 28.5 -12t12.5 -29q0 -20 -13 -35t-32.5 -26t-41 -16.5t-37.5 -5.5q-20 0 -36.5 6
t-30.5 13.5t-28 13.5t-30 6q-13 0 -23.5 -5.5t-20.5 -27.5z" />
    <glyph glyph-name="adieresis" unicode="&#xe4;" horiz-adv-x="583" 
d="M255 246h80l-37 107zM380 116h-177l-25 -64q-11 -28 -30.5 -40.5t-42.5 -12.5q-17 0 -32.5 5.5t-28.5 16t-20.5 24.5t-7.5 32t7 33l197 435q13 28 35 42t45 14t44.5 -14t32.5 -42l181 -435q7 -15 7 -33q0 -17 -7.5 -31.5t-20.5 -25t-29 -16t-32 -5.5q-23 0 -43 12.5
t-30 40.5zM171 658q0 20 14 34t34 14t34 -14t14 -34t-14 -34t-34 -14t-34 14t-14 34zM331 658q0 20 14 34t34 14t34 -14t14 -34t-14 -34t-34 -14t-34 14t-14 34z" />
    <glyph glyph-name="aring" unicode="&#xe5;" horiz-adv-x="583" 
d="M255 246h80l-37 107zM380 116h-177l-25 -64q-11 -28 -30.5 -40.5t-42.5 -12.5q-17 0 -32.5 5.5t-28.5 16t-20.5 24.5t-7.5 32t7 33l197 435q13 28 35 42t45 14t44.5 -14t32.5 -42l181 -435q7 -15 7 -33q0 -17 -7.5 -31.5t-20.5 -25t-29 -16t-32 -5.5q-23 0 -43 12.5
t-30 40.5zM205 666q0 19 7.5 35.5t20 28.5t29.5 19t37 7q19 0 36.5 -7t30 -19t20 -28.5t7.5 -35.5t-7.5 -35.5t-20 -28.5t-30 -19t-36.5 -7q-20 0 -37 7t-29.5 19t-20 28.5t-7.5 35.5zM263 665q0 -16 10.5 -27t25.5 -11t26 11t11 27t-11 27t-26 11t-25.5 -11t-10.5 -27z" />
    <glyph glyph-name="ae" unicode="&#xe6;" horiz-adv-x="787" 
d="M478 0q-11 0 -20 1v-2q-23 0 -40 12q-16 12 -18 38q-4 15 -4 34v11l-2 22h-177l-42 -64q-19 -28 -42 -40.5t-46 -12.5q-17 0 -31 5.5t-24 16t-14 24.5t1 32t16 33l314 435q35 53 95 53h234q39 0 61 -24.5t22 -58.5t-22 -58.5t-61 -24.5h-118v-50h78q39 0 61 -24.5
t22 -58.5t-22 -58.5t-61 -24.5h-78v-50h118q39 0 61 -24.5t22 -58.5t-22 -58.5t-61 -24.5h-200zM396 246v124l-92 -124h92z" />
    <glyph glyph-name="ccedilla" unicode="&#xe7;" horiz-adv-x="496" 
d="M319 430q-35 0 -60.5 -11t-43 -29.5t-26 -42t-8.5 -48.5t8.5 -49t26 -42.5t43 -30t59.5 -11.5h61q21 0 36.5 -7t26 -19t15.5 -27t5 -30q0 -32 -21 -57.5t-62 -25.5h-60q-74 0 -130 25.5t-93.5 66.5t-56 94t-18.5 109q0 57 19.5 111t58 97t97 69t136.5 26h47q21 0 36.5 -7
t26 -19t16 -27t5.5 -31t-5.5 -31t-16 -27t-26 -19t-36.5 -7h-60zM256 23q5 37 17 46t26 9q15 0 27.5 -10t12.5 -30q0 -22 5 -36.5t11 -26t11 -22.5t5 -26q0 -18 -7.5 -36.5t-21 -34.5t-31.5 -26.5t-38 -11.5q-21 0 -31 12.5t-10 27.5t10 27.5t31 12.5h-4l11 11t6 17
q0 12 -4.5 24t-10.5 24t-10.5 24t-4.5 25z" />
    <glyph glyph-name="egrave" unicode="&#xe8;" horiz-adv-x="512" 
d="M116 0q-82 0 -82 83v432q0 83 82 83h280q39 0 61 -24.5t22 -58.5t-22 -58.5t-61 -24.5h-198v-50h158q39 0 61 -24.5t22 -58.5t-22 -58.5t-61 -24.5h-158v-50h198q39 0 61 -24.5t22 -58.5t-22 -58.5t-61 -24.5h-280zM147 664q-17 5 -24 15.5t-7 22.5q0 16 10.5 29t28.5 13
q1 0 4 -0.5t8 -1.5l162 -43q17 -5 24 -15.5t7 -22.5q0 -16 -10.5 -29t-28.5 -13q-1 0 -4 0.5t-8 1.5z" />
    <glyph glyph-name="eacute" unicode="&#xe9;" horiz-adv-x="512" 
d="M116 0q-82 0 -82 83v432q0 83 82 83h280q39 0 61 -24.5t22 -58.5t-22 -58.5t-61 -24.5h-198v-50h158q39 0 61 -24.5t22 -58.5t-22 -58.5t-61 -24.5h-158v-50h198q39 0 61 -24.5t22 -58.5t-22 -58.5t-61 -24.5h-280zM191 621q-5 -1 -8 -1.5t-4 -0.5q-18 0 -28.5 13
t-10.5 29q0 12 7 22.5t24 15.5l162 43q5 1 8 1.5t4 0.5q18 0 28.5 -13t10.5 -29q0 -12 -7 -22.5t-24 -15.5z" />
    <glyph glyph-name="ecircumflex" unicode="&#xea;" horiz-adv-x="512" 
d="M116 0q-82 0 -82 83v432q0 83 82 83h280q39 0 61 -24.5t22 -58.5t-22 -58.5t-61 -24.5h-198v-50h158q39 0 61 -24.5t22 -58.5t-22 -58.5t-61 -24.5h-158v-50h198q39 0 61 -24.5t22 -58.5t-22 -58.5t-61 -24.5h-280zM228 621q-13 -13 -29 -13t-28 12t-12 28t13 29l54 50
q23 20 39 20q18 0 40 -19l53 -56q11 -8 11 -23q0 -16 -12 -28t-28 -12t-29 13l-36 35z" />
    <glyph glyph-name="edieresis" unicode="&#xeb;" horiz-adv-x="512" 
d="M116 0q-82 0 -82 83v432q0 83 82 83h280q39 0 61 -24.5t22 -58.5t-22 -58.5t-61 -24.5h-198v-50h158q39 0 61 -24.5t22 -58.5t-22 -58.5t-61 -24.5h-158v-50h198q39 0 61 -24.5t22 -58.5t-22 -58.5t-61 -24.5h-280zM122 658q0 20 14 34t34 14t34 -14t14 -34t-14 -34
t-34 -14t-34 14t-14 34zM282 658q0 20 14 34t34 14t34 -14t14 -34t-14 -34t-34 -14t-34 14t-14 34z" />
    <glyph glyph-name="igrave" unicode="&#xec;" horiz-adv-x="233" 
d="M198 83q0 -40 -24.5 -61t-57.5 -21q-34 0 -58.5 21t-24.5 61v432q0 40 24.5 61t58.5 21q33 0 57.5 -21t24.5 -61v-432zM27 664q-17 5 -24 15.5t-7 22.5q0 16 10.5 29t28.5 13q1 0 4 -0.5t8 -1.5l162 -43q17 -5 24 -15.5t7 -22.5q0 -16 -10.5 -29t-28.5 -13q-1 0 -4 0.5
t-8 1.5z" />
    <glyph glyph-name="iacute" unicode="&#xed;" horiz-adv-x="233" 
d="M198 83q0 -40 -24.5 -61t-57.5 -21q-34 0 -58.5 21t-24.5 61v432q0 40 24.5 61t58.5 21q33 0 57.5 -21t24.5 -61v-432zM38 621q-5 -1 -8 -1.5t-4 -0.5q-18 0 -28.5 13t-10.5 29q0 12 7 22.5t24 15.5l162 43q5 1 8 1.5t4 0.5q18 0 28.5 -13t10.5 -29q0 -12 -7 -22.5
t-24 -15.5z" />
    <glyph glyph-name="icircumflex" unicode="&#xee;" horiz-adv-x="233" 
d="M198 83q0 -40 -24.5 -61t-57.5 -21q-34 0 -58.5 21t-24.5 61v432q0 40 24.5 61t58.5 21q33 0 57.5 -21t24.5 -61v-432zM81 621q-13 -13 -29 -13t-28 12t-12 28t13 29l54 50q23 20 39 20q18 0 40 -19l53 -56q11 -8 11 -23q0 -16 -12 -28t-28 -12t-29 13l-36 35z" />
    <glyph glyph-name="idieresis" unicode="&#xef;" horiz-adv-x="233" 
d="M198 83q0 -40 -24.5 -61t-57.5 -21q-34 0 -58.5 21t-24.5 61v432q0 40 24.5 61t58.5 21q33 0 57.5 -21t24.5 -61v-432zM-15 658q0 20 14 34t34 14t34 -14t14 -34t-14 -34t-34 -14t-34 14t-14 34zM145 658q0 20 14 34t34 14t34 -14t14 -34t-14 -34t-34 -14t-34 14t-14 34z
" />
    <glyph glyph-name="eth" unicode="&#xf0;" horiz-adv-x="532" 
d="M34 515q0 16 7.5 31t20 26.5t28 18.5t30.5 7h80q78 0 136 -26t96.5 -69t58 -97t19.5 -111q0 -56 -18.5 -109t-56 -94t-93 -66.5t-129.5 -25.5h-93q-39 0 -62.5 22.5t-23.5 60.5v161q-17 3 -27 14q-12 14 -12 33q0 20 12 35q10 12 27 14v175zM214 166q33 0 57.5 12
t41.5 31t25.5 43.5t8.5 50.5q0 24 -8 47t-24.5 40.5t-42 28.5t-59.5 11h-14v-89q22 0 35 -15t13 -35q0 -19 -13 -33t-35 -14v-78h15z" />
    <glyph glyph-name="ntilde" unicode="&#xf1;" horiz-adv-x="533" 
d="M199 83q0 -40 -24.5 -61t-58.5 -21q-33 0 -57.5 21t-24.5 61v432q0 40 24.5 61t57.5 21h4q44 0 63 -37l150 -227v182q0 40 24.5 61t57.5 21q34 0 58.5 -21t24.5 -61v-432q0 -40 -24.5 -61t-58.5 -21q-17 0 -29 4t-20.5 10t-13.5 12t-8 10l-145 216v-170zM139 629
q-19 -10 -29 -10q-16 0 -29 11.5t-13 28.5q0 19 11.5 34.5t28.5 26.5t36.5 17t35.5 6q13 0 14 -1h2q16 0 44.5 -13.5t71.5 -25.5q16 0 25 7t16.5 15t15.5 15t22 7q16 0 28.5 -12t12.5 -29q0 -20 -13 -35t-32.5 -26t-41 -16.5t-37.5 -5.5q-20 0 -36.5 6t-30.5 13.5t-28 13.5
t-30 6q-13 0 -23.5 -5.5t-20.5 -27.5z" />
    <glyph glyph-name="ograve" unicode="&#xf2;" 
d="M24 301q0 63 24 119t65 97.5t97 65.5t119 24t119 -24t97.5 -65.5t65.5 -97.5t24 -119t-24 -119t-65.5 -97t-97.5 -65t-119 -24t-119 24t-97 65t-65 97t-24 119zM192 299q0 -29 10.5 -54t29.5 -44t44 -29.5t54 -10.5t54.5 10.5t44 29.5t29.5 44t11 54t-11 54.5t-29.5 44
t-44 29.5t-54.5 11t-54 -11t-44 -29.5t-29.5 -44t-10.5 -54.5zM207 664q-17 5 -24 15.5t-7 22.5q0 16 10.5 29t28.5 13q1 0 4 -0.5t8 -1.5l162 -43q17 -5 24 -15.5t7 -22.5q0 -16 -10.5 -29t-28.5 -13q-1 0 -4 0.5t-8 1.5z" />
    <glyph glyph-name="oacute" unicode="&#xf3;" 
d="M24 301q0 63 24 119t65 97.5t97 65.5t119 24t119 -24t97.5 -65.5t65.5 -97.5t24 -119t-24 -119t-65.5 -97t-97.5 -65t-119 -24t-119 24t-97 65t-65 97t-24 119zM192 299q0 -29 10.5 -54t29.5 -44t44 -29.5t54 -10.5t54.5 10.5t44 29.5t29.5 44t11 54t-11 54.5t-29.5 44
t-44 29.5t-54.5 11t-54 -11t-44 -29.5t-29.5 -44t-10.5 -54.5zM238 621q-5 -1 -8 -1.5t-4 -0.5q-18 0 -28.5 13t-10.5 29q0 12 7 22.5t24 15.5l162 43q5 1 8 1.5t4 0.5q18 0 28.5 -13t10.5 -29q0 -12 -7 -22.5t-24 -15.5z" />
    <glyph glyph-name="ocircumflex" unicode="&#xf4;" 
d="M24 301q0 63 24 119t65 97.5t97 65.5t119 24t119 -24t97.5 -65.5t65.5 -97.5t24 -119t-24 -119t-65.5 -97t-97.5 -65t-119 -24t-119 24t-97 65t-65 97t-24 119zM192 299q0 -29 10.5 -54t29.5 -44t44 -29.5t54 -10.5t54.5 10.5t44 29.5t29.5 44t11 54t-11 54.5t-29.5 44
t-44 29.5t-54.5 11t-54 -11t-44 -29.5t-29.5 -44t-10.5 -54.5zM290 621q-13 -13 -29 -13t-28 12t-12 28t13 29l54 50q23 20 39 20q18 0 40 -19l53 -56q11 -8 11 -23q0 -16 -12 -28t-28 -12t-29 13l-36 35z" />
    <glyph glyph-name="otilde" unicode="&#xf5;" 
d="M24 301q0 63 24 119t65 97.5t97 65.5t119 24t119 -24t97.5 -65.5t65.5 -97.5t24 -119t-24 -119t-65.5 -97t-97.5 -65t-119 -24t-119 24t-97 65t-65 97t-24 119zM192 299q0 -29 10.5 -54t29.5 -44t44 -29.5t54 -10.5t54.5 10.5t44 29.5t29.5 44t11 54t-11 54.5t-29.5 44
t-44 29.5t-54.5 11t-54 -11t-44 -29.5t-29.5 -44t-10.5 -54.5zM199 629q-19 -10 -29 -10q-16 0 -29 11.5t-13 28.5q0 19 11.5 34.5t28.5 26.5t36.5 17t35.5 6q13 0 14 -1h2q16 0 44.5 -13.5t71.5 -25.5q16 0 25 7t16.5 15t15.5 15t22 7q16 0 28.5 -12t12.5 -29
q0 -20 -13 -35t-32.5 -26t-41 -16.5t-37.5 -5.5q-20 0 -36.5 6t-30.5 13.5t-28 13.5t-30 6q-13 0 -23.5 -5.5t-20.5 -27.5z" />
    <glyph glyph-name="odieresis" unicode="&#xf6;" 
d="M24 301q0 63 24 119t65 97.5t97 65.5t119 24t119 -24t97.5 -65.5t65.5 -97.5t24 -119t-24 -119t-65.5 -97t-97.5 -65t-119 -24t-119 24t-97 65t-65 97t-24 119zM192 299q0 -29 10.5 -54t29.5 -44t44 -29.5t54 -10.5t54.5 10.5t44 29.5t29.5 44t11 54t-11 54.5t-29.5 44
t-44 29.5t-54.5 11t-54 -11t-44 -29.5t-29.5 -44t-10.5 -54.5zM196 658q0 20 14 34t34 14t34 -14t14 -34t-14 -34t-34 -14t-34 14t-14 34zM356 658q0 20 14 34t34 14t34 -14t14 -34t-14 -34t-34 -14t-34 14t-14 34z" />
    <glyph glyph-name="oslash" unicode="&#xf8;" 
d="M24 301q0 63 24 119t65 97.5t97 65.5t119 24t119 -24t97.5 -65.5t65.5 -97.5t24 -119t-24 -119t-65.5 -97t-97.5 -65t-119 -24t-119 24t-97 65t-65 97t-24 119zM192 299q0 -29 10.5 -54t29.5 -44l3 -4l66 238q-13 -3 -25 -8q-25 -11 -44 -29.5t-29.5 -44t-10.5 -54.5z
M366 165q9 2 18 6q26 11 44.5 30t29.5 44t11 54t-11 54t-28 43z" />
    <glyph glyph-name="ugrave" unicode="&#xf9;" horiz-adv-x="546" 
d="M515 263q0 -263 -240 -263q-244 0 -244 263v252q0 40 24.5 61t57.5 21q34 0 58.5 -21t24.5 -61v-277q0 -74 77 -74t77 74v277q0 40 24.5 61t57.5 21q34 0 58.5 -21t24.5 -61v-252zM157 664q-17 5 -24 15.5t-7 22.5q0 16 10.5 29t28.5 13q1 0 4 -0.5t8 -1.5l162 -43
q17 -5 24 -15.5t7 -22.5q0 -16 -10.5 -29t-28.5 -13q-1 0 -4 0.5t-8 1.5z" />
    <glyph glyph-name="uacute" unicode="&#xfa;" horiz-adv-x="546" 
d="M515 263q0 -263 -240 -263q-244 0 -244 263v252q0 40 24.5 61t57.5 21q34 0 58.5 -21t24.5 -61v-277q0 -74 77 -74t77 74v277q0 40 24.5 61t57.5 21q34 0 58.5 -21t24.5 -61v-252zM178 621q-5 -1 -8 -1.5t-4 -0.5q-18 0 -28.5 13t-10.5 29q0 12 7 22.5t24 15.5l162 43
q5 1 8 1.5t4 0.5q18 0 28.5 -13t10.5 -29q0 -12 -7 -22.5t-24 -15.5z" />
    <glyph glyph-name="ucircumflex" unicode="&#xfb;" horiz-adv-x="546" 
d="M515 263q0 -263 -240 -263q-244 0 -244 263v252q0 40 24.5 61t57.5 21q34 0 58.5 -21t24.5 -61v-277q0 -74 77 -74t77 74v277q0 40 24.5 61t57.5 21q34 0 58.5 -21t24.5 -61v-252zM234 621q-13 -13 -29 -13t-28 12t-12 28t13 29l54 50q23 20 39 20q18 0 40 -19l53 -56
q11 -8 11 -23q0 -16 -12 -28t-28 -12t-29 13l-36 35z" />
    <glyph glyph-name="udieresis" unicode="&#xfc;" horiz-adv-x="546" 
d="M515 263q0 -263 -240 -263q-244 0 -244 263v252q0 40 24.5 61t57.5 21q34 0 58.5 -21t24.5 -61v-277q0 -74 77 -74t77 74v277q0 40 24.5 61t57.5 21q34 0 58.5 -21t24.5 -61v-252zM145 658q0 20 14 34t34 14t34 -14t14 -34t-14 -34t-34 -14t-34 14t-14 34zM305 658
q0 20 14 34t34 14t34 -14t14 -34t-14 -34t-34 -14t-34 14t-14 34z" />
    <glyph glyph-name="yacute" unicode="&#xfd;" horiz-adv-x="490" 
d="M318 555q13 22 30.5 32.5t37.5 10.5q16 0 32 -7t28.5 -18t20 -26t7.5 -31q0 -21 -14 -44l-132 -213v-177q0 -40 -24.5 -61t-57.5 -21q-34 0 -58.5 21t-24.5 61v177l-133 213q-14 23 -14 44q0 16 7.5 31t20 26t28.5 18t32 7q20 0 37.5 -10.5t30.5 -32.5l73 -125zM154 621
q-5 -1 -8 -1.5t-4 -0.5q-18 0 -28.5 13t-10.5 29q0 12 7 22.5t24 15.5l162 43q5 1 8 1.5t4 0.5q18 0 28.5 -13t10.5 -29q0 -12 -7 -22.5t-24 -15.5z" />
    <glyph glyph-name="thorn" unicode="&#xfe;" horiz-adv-x="502" 
d="M201 85q0 -85 -83 -85q-42 0 -63 21q-7 8 -12 17q-10 19 -10 45v432q0 40 24.5 61t58.5 21q33 0 57.5 -21t24.5 -61v-14h85q54 0 93.5 -16.5t65 -43.5t38 -61.5t12.5 -70.5t-11.5 -70t-34 -60.5t-55 -43t-74.5 -16.5h-27q-75 0 -75 67q0 24 9 36.5t23 19t30 9t30 7
t24 13.5t11 28q0 45 -52 45h-89v-259z" />
    <glyph glyph-name="ydieresis" unicode="&#xff;" horiz-adv-x="490" 
d="M318 555q13 22 30.5 32.5t37.5 10.5q16 0 32 -7t28.5 -18t20 -26t7.5 -31q0 -21 -14 -44l-132 -213v-177q0 -40 -24.5 -61t-57.5 -21q-34 0 -58.5 21t-24.5 61v177l-133 213q-14 23 -14 44q0 16 7.5 31t20 26t28.5 18t32 7q20 0 37.5 -10.5t30.5 -32.5l73 -125zM112 658
q0 20 14 34t34 14t34 -14t14 -34t-14 -34t-34 -14t-34 14t-14 34zM272 658q0 20 14 34t34 14t34 -14t14 -34t-14 -34t-34 -14t-34 14t-14 34z" />
    <glyph glyph-name="OE" unicode="&#x152;" horiz-adv-x="873" 
d="M553 0q-54 0 -73 36q-15 -9 -32 -16q-56 -24 -119 -24t-119 24t-97 65t-65 97t-24 119t24 119t65 97.5t97 65.5t119 24t119 -24q18 -8 34 -18q19 33 71 33h210q39 0 61 -24.5t22 -58.5t-22 -58.5t-61 -24.5h-128v-50h88q39 0 61 -24.5t22 -58.5t-22 -58.5t-61 -24.5h-88
v-50h128q39 0 61 -24.5t22 -58.5t-22 -58.5t-61 -24.5h-210zM192 299q0 -29 10.5 -54t29.5 -44t44 -29.5t54 -10.5t54.5 10.5t44 29.5t29.5 44t11 54t-11 54.5t-29.5 44t-44 29.5t-54.5 11t-54 -11t-44 -29.5t-29.5 -44t-10.5 -54.5z" />
    <glyph glyph-name="oe" unicode="&#x153;" horiz-adv-x="983" 
d="M24 301q0 63 24 119t65 97.5t97 65.5t119 24t119 -24t97.5 -65.5t65.5 -97.5t24 -119t-24 -119t-65.5 -97t-97.5 -65t-119 -24t-119 24t-97 65t-65 97t-24 119zM192 299q0 -29 10.5 -54t29.5 -44t44 -29.5t54 -10.5t54.5 10.5t44 29.5t29.5 44t11 54t-11 54.5t-29.5 44
t-44 29.5t-54.5 11t-54 -11t-44 -29.5t-29.5 -44t-10.5 -54.5zM551 0q-82 0 -82 83v432q0 83 82 83h280q39 0 61 -24.5t22 -58.5t-22 -58.5t-61 -24.5h-198v-50h158q39 0 61 -24.5t22 -58.5t-22 -58.5t-61 -24.5h-158v-50h198q39 0 61 -24.5t22 -58.5t-22 -58.5t-61 -24.5
h-280z" />
    <glyph glyph-name="Ydieresis" unicode="&#x178;" horiz-adv-x="490" 
d="M318 555q13 22 30.5 32.5t37.5 10.5q16 0 32 -7t28.5 -18t20 -26t7.5 -31q0 -21 -14 -44l-132 -213v-177q0 -40 -24.5 -61t-57.5 -21q-34 0 -58.5 21t-24.5 61v177l-133 213q-14 23 -14 44q0 16 7.5 31t20 26t28.5 18t32 7q20 0 37.5 -10.5t30.5 -32.5l73 -125zM104 658
q0 20 14 34t34 14t34 -14t14 -34t-14 -34t-34 -14t-34 14t-14 34zM264 658q0 20 14 34t34 14t34 -14t14 -34t-14 -34t-34 -14t-34 14t-14 34z" />
    <glyph glyph-name="circumflex" unicode="&#x2c6;" horiz-adv-x="252" 
d="M89 621q-13 -13 -29 -13t-28 12t-12 28t13 29l54 50q23 20 39 20q18 0 40 -19l53 -56q11 -8 11 -23q0 -16 -12 -28t-28 -12t-29 13l-36 35z" />
    <glyph glyph-name="caron" unicode="&#x2c7;" horiz-adv-x="248" 
d="M159 743q13 13 29 13t28 -12t12 -28t-13 -29l-62 -62q-12 -20 -28 -20q-18 0 -38 24l-58 63q-11 8 -11 23q0 16 12 28t28 12t29 -13l36 -35z" />
    <glyph glyph-name="dotaccent" unicode="&#x2d9;" horiz-adv-x="165" 
d="M33 658q0 20 14 34t34 14t34 -14t14 -34t-14 -34t-34 -14t-34 14t-14 34z" />
    <glyph glyph-name="nundagesh" unicode="&#x2da;" horiz-adv-x="322" 
d="M19 666q0 19 7.5 35.5t20 28.5t29.5 19t37 7q19 0 36.5 -7t30 -19t20 -28.5t7.5 -35.5t-7.5 -35.5t-20 -28.5t-30 -19t-36.5 -7q-20 0 -37 7t-29.5 19t-20 28.5t-7.5 35.5zM77 665q0 -16 10.5 -27t25.5 -11t26 11t11 27t-11 27t-26 11t-25.5 -11t-10.5 -27z" />
    <glyph glyph-name="tilde" unicode="&#x2dc;" horiz-adv-x="419" 
d="M99 629q-19 -10 -29 -10q-16 0 -29 11.5t-13 28.5q0 19 11.5 34.5t28.5 26.5t36.5 17t35.5 6q13 0 14 -1h2q16 0 44.5 -13.5t71.5 -25.5q16 0 25 7t16.5 15t15.5 15t22 7q16 0 28.5 -12t12.5 -29q0 -20 -13 -35t-32.5 -26t-41 -16.5t-37.5 -5.5q-20 0 -36.5 6t-30.5 13.5
t-28 13.5t-30 6q-13 0 -23.5 -5.5t-20.5 -27.5z" />
    <glyph glyph-name="hungarumlaut" unicode="&#x2dd;" horiz-adv-x="335" 
d="M29 658q10 36 18.5 55.5t16.5 29t16 11.5t18 2q20 0 34 -14t14 -34q-11 -36 -19 -55.5t-16 -29t-16 -11.5t-18 -2q-20 0 -34 14t-14 34zM189 658q10 36 18.5 55.5t16.5 29t16 11.5t18 2q20 0 34 -14t14 -34q-11 -37 -19.5 -57t-16 -29t-15.5 -10.5t-18 -1.5q-20 0 -34 14
t-14 34z" />
    <glyph glyph-name="endash" unicode="&#x2013;" horiz-adv-x="549" 
d="M114 214q-39 0 -61 25t-22 58q0 34 22 59.5t61 25.5h320q39 0 61 -25.5t22 -59.5q0 -33 -22 -58t-61 -25h-320z" />
    <glyph glyph-name="emdash" unicode="&#x2014;" horiz-adv-x="701" 
d="M115 214q-39 0 -61 25t-22 58q0 34 22 59.5t61 25.5h470q39 0 61 -25.5t22 -59.5q0 -33 -22 -58t-61 -25h-470z" />
    <glyph glyph-name="quoteleft" unicode="&#x2018;" horiz-adv-x="231" 
d="M209 447q9 -39 -11 -61t-53 -22q-34 0 -63 22t-38 61l-22 108q-9 40 11 61t54 21q33 0 62 -21t38 -61z" />
    <glyph glyph-name="quoteright" unicode="&#x2019;" horiz-adv-x="231" 
d="M187 447q-9 -40 -38 -61t-62 -21q-34 0 -54 21t-11 61l22 108q9 39 38 61t63 22q33 0 53 -22t11 -61z" />
    <glyph glyph-name="quotesinglbase" unicode="&#x201a;" horiz-adv-x="231" 
d="M187 0q-9 -40 -38 -61t-62 -21q-34 0 -54 21t-11 61l22 108q9 39 38 61t63 22q33 0 53 -22t11 -61z" />
    <glyph glyph-name="quotedblleft" unicode="&#x201c;" horiz-adv-x="425" 
d="M400 447q9 -39 -11 -61t-53 -22q-34 0 -63 22t-38 61l-22 108q-9 40 11 61t54 21q33 0 62 -21t38 -61zM211 447q9 -39 -11 -61t-53 -22q-34 0 -63 22t-38 61l-22 108q-9 40 11 61t54 21q33 0 62 -21t38 -61z" />
    <glyph glyph-name="quotedblright" unicode="&#x201d;" horiz-adv-x="425" 
d="M189 447q-9 -40 -38 -61t-62 -21q-34 0 -54 21t-11 61l22 108q9 39 38 61t63 22q33 0 53 -22t11 -61zM378 447q-9 -40 -38 -61t-62 -21q-34 0 -54 21t-11 61l22 108q9 39 38 61t63 22q33 0 53 -22t11 -61z" />
    <glyph glyph-name="quotedblbase" unicode="&#x201e;" horiz-adv-x="425" 
d="M189 0q-9 -40 -38 -61t-62 -21q-34 0 -54 21t-11 61l22 108q9 39 38 61t63 22q33 0 53 -22t11 -61zM378 0q-9 -40 -38 -61t-62 -21q-34 0 -54 21t-11 61l22 108q9 39 38 61t63 22q33 0 53 -22t11 -61z" />
    <glyph glyph-name="bullet" unicode="&#x2022;" horiz-adv-x="414" 
d="M24 352q0 38 14 71.5t39 58t58 39t71 14.5t71.5 -14.5t58 -39t39 -58t14.5 -71.5t-14.5 -71t-39 -58t-58 -39t-71.5 -14t-71 14t-58 39t-39 58t-14 71z" />
    <glyph glyph-name="ellipsis" unicode="&#x2026;" horiz-adv-x="642" 
d="M190 29q0 -17 -6.5 -31.5t-18 -26t-26.5 -18t-32 -6.5t-32 6.5t-26.5 18t-18 26t-6.5 31.5q0 34 24.5 58.5t58.5 24.5t58.5 -24.5t24.5 -58.5zM404 29q0 -17 -6.5 -31.5t-18 -26t-26.5 -18t-32 -6.5t-32 6.5t-26.5 18t-18 26t-6.5 31.5q0 34 24.5 58.5t58.5 24.5
t58.5 -24.5t24.5 -58.5zM618 29q0 -17 -6.5 -31.5t-18 -26t-26.5 -18t-32 -6.5t-32 6.5t-26.5 18t-18 26t-6.5 31.5q0 34 24.5 58.5t58.5 24.5t58.5 -24.5t24.5 -58.5z" />
    <glyph glyph-name="guilsinglleft" unicode="&#x2039;" horiz-adv-x="446" 
d="M367 141q25 -25 25 -58q0 -17 -7 -32t-18 -26.5t-26.5 -18t-31.5 -6.5q-34 0 -59 25l-216 216q-27 27 -27 58t27 58l216 216v-1q25 27 59 27q16 0 31.5 -7t26.5 -18.5t18 -27t7 -31.5q0 -33 -25 -58l-157 -158z" />
    <glyph glyph-name="guilsinglright" unicode="&#x203a;" horiz-adv-x="440" 
d="M173 25q-25 -25 -59 -25q-17 0 -32 6.5t-26 18t-18 26t-7 31.5q0 33 27 59h-1l157 158l-157 158h1q-27 25 -27 58q0 16 7 31.5t18 26.5t26 18t32 7q34 0 59 -25l216 -216q28 -28 28 -58q0 -32 -29 -58h1z" />
    <glyph glyph-name="Euro" unicode="&#x20ac;" horiz-adv-x="504" 
d="M328 430q-16 0 -18 1q-53 -4 -87 -41t-34 -91q0 -29 10.5 -53.5t29.5 -42t44 -27.5t54 -10h61q39 0 61 -25.5t22 -59.5q0 -33 -22 -57t-61 -24h-60q-66 0 -122 23.5t-97 64.5t-64.5 96t-23.5 117t22.5 116t64.5 94.5t101 63.5t132 23h47q39 0 61 -25.5t22 -59.5
q0 -33 -22 -58t-61 -25h-60zM197 316q-20 0 -34.5 13.5t-14.5 35.5q0 19 13 34t36 15h159q23 0 36 -15t13 -34q0 -21 -13.5 -35t-35.5 -14h-159zM197 191q-20 0 -34.5 13.5t-14.5 35.5q0 19 13 34t36 15h159q23 0 36 -15t13 -34q0 -21 -13.5 -35t-35.5 -14h-159z" />
    <glyph glyph-name="trademark" unicode="&#x2122;" horiz-adv-x="622" 
d="M254 746q0 41 41 41h194q11 0 24 -5.5t18 -25.5l60 -217q1 -4 1.5 -7t0.5 -6q0 -19 -13.5 -29t-30.5 -10q-12 0 -22.5 7.5t-14.5 23.5l-52 186h-16v-174q0 -20 -12 -30.5t-29 -10.5t-29 10.5t-12 30.5v174h-26v-174q0 -20 -12 -30.5t-29 -10.5t-29 10.5t-12 30.5v216z
M178 531q0 -20 -12.5 -30.5t-29.5 -10.5q-16 0 -28.5 10.5t-12.5 30.5v174h-29q-19 0 -30 12.5t-11 29.5t11 29.5t30 12.5h140q19 0 30 -12.5t11 -29.5t-11 -29.5t-30 -12.5h-28v-174z" />
    <glyph glyph-name="uniE003" horiz-adv-x="217" 
d="M102 31q2 2 6 4.5t7 2.5h29q16 0 16 -14q0 -5 -3 -9l-14 -21q52 -21 52 -80v-2q0 -23 -10 -41.5t-26.5 -32t-38.5 -20.5t-45 -7h-9h-14t-17 1.5t-14 5t-6 11.5v21q0 6 4.5 10.5t10.5 4.5t9.5 -1t9.5 -1h4q17 0 30.5 11t13.5 28v2q0 17 -24 19q-9 0 -10 -1h-4
q-15 0 -15 14q0 4 3 9z" />
    </font>
</defs>
</svg>
