<?xml version="1.0" standalone="no"?>
<!DOCTYPE svg PUBLIC "-//W3C//DTD SVG 1.1//EN" "http://www.w3.org/Graphics/SVG/1.1/DTD/svg11.dtd" >
<svg xmlns="http://www.w3.org/2000/svg" xmlns:xlink="http://www.w3.org/1999/xlink" version="1.1">
<metadata></metadata>
<defs>
<font id="typolineregular" horiz-adv-x="1021" >
<font-face units-per-em="2048" ascent="1638" descent="-410" />
<missing-glyph horiz-adv-x="501" />
<glyph unicode="&#xd;" horiz-adv-x="60" />
<glyph horiz-adv-x="60" />
<glyph horiz-adv-x="60" />
<glyph unicode=" "  horiz-adv-x="501" />
<glyph unicode="&#x09;" horiz-adv-x="501" />
<glyph unicode="&#xa0;" horiz-adv-x="501" />
<glyph unicode="!" horiz-adv-x="505" d="M30 190q0 78 65 133.5t158 55.5q92 0 157 -55.5t65 -133.5q0 -79 -65 -134.5t-157 -55.5q-93 0 -158 55.5t-65 134.5zM30 1519h445l-100 -1050h-245z" />
<glyph unicode="&#x22;" horiz-adv-x="763" d="M30 1316v204h294v-204l-50 -291h-194zM438 1316v204h295v-204l-51 -291h-194z" />
<glyph unicode="#" horiz-adv-x="1268" d="M30 364v238h239l36 314h-275v238h302l42 365h235l-41 -365h222l41 365h236l-41 -365h212v-238h-239l-36 -314h275v-238h-302l-41 -364h-236l41 364h-222l-41 -364h-236l41 364h-212zM505 602h222l36 314h-222z" />
<glyph unicode="$" horiz-adv-x="1071" d="M30 250v247h470v-350q0 -25 25 -25h21q25 0 25 25v350q0 11 -25 25l-265 150q-159 90 -171 99q-80 63 -80 152v345q0 103 74 177q73 74 177 74h148v110h71v-110h72v110h70v-110h148q152 -2 210 -121q41 -84 41 -253v-124h-470v350q0 25 -25 25h-21q-25 0 -25 -25v-350 q0 -11 25 -25l265 -150q158 -90 171 -99q80 -63 80 -152v-345q0 -103 -73 -177q-74 -73 -178 -73h-148v-113h-70v113h-72v-113h-71v113h-148q-104 0 -177 73q-74 74 -74 177z" />
<glyph unicode="%" horiz-adv-x="975" d="M30 0l718 1519h197l-718 -1519h-197zM30 1019v401q0 41 29 70t70 29h181q41 0 70 -29t29 -70v-401q0 -41 -29 -70t-70 -29h-181q-41 0 -70 29t-29 70zM205 978q0 -10 10 -10h9q10 0 10 10v483q0 9 -10 9h-9q-10 0 -10 -9v-483zM562 102v401q0 41 29 70t70 29h181 q41 0 70 -29t29 -70v-401q0 -41 -29 -70t-70 -29h-181q-41 0 -70 29t-29 70zM737 61q0 -10 10 -10h9q10 0 10 10v483q0 9 -10 9h-9q-10 0 -10 -9v-483z" />
<glyph unicode="&#x26;" horiz-adv-x="1280" d="M30 250v273q0 146 109 220q94 64 251 64q-309 0 -309 288v173q0 103 73 177q74 74 177 74h506q104 0 177 -74q74 -74 74 -177v-181h-471v284q0 25 -25 25h-16q-25 0 -25 -25v-476q0 -26 25 -26h70v-120h-70q-43 0 -58 -12q-17 -13 -17 -49v-491q0 -25 25 -25h116 q26 0 26 25v293q-66 -19 -121 -84v222q73 101 171 102q59 0 179 -48q121 -50 180 -50q99 0 173 99v-228q-52 -60 -112 -80v-173q0 -103 -74 -177q-73 -73 -177 -73h-606q-103 0 -177 73q-74 74 -74 177z" />
<glyph unicode="'" horiz-adv-x="354" d="M30 1316v204h294v-204l-50 -291h-194z" />
<glyph unicode="(" horiz-adv-x="651" d="M30 551q0 490 322 969h269q-301 -479 -301 -969v-3q0 -490 301 -966h-269q-322 478 -322 969z" />
<glyph unicode=")" horiz-adv-x="651" d="M30 -418q301 476 301 966v3q0 490 -301 969h269q322 -479 322 -969q0 -491 -322 -969h-269z" />
<glyph unicode="*" horiz-adv-x="978" d="M30 1115q12 93 59 174l273 -68l16 284q55 14 111 14q55 0 107 -13l13 -283l280 66q47 -81 59 -174l-266 -115l160 -244q-76 -89 -185 -131l-173 192l-164 -192q-107 42 -183 130l154 245z" />
<glyph unicode="+" horiz-adv-x="1160" d="M30 582v329h386v386h329v-386h385v-329h-385v-385h-329v385h-386z" />
<glyph unicode="," horiz-adv-x="505" d="M30 190q0 78 65 133.5t158 55.5q92 0 157 -55.5t65 -133.5q-1 -51 -21 -89l-192 -413h-109l24 323q-53 4 -99.5 56.5t-47.5 122.5z" />
<glyph unicode="-" horiz-adv-x="931" d="M30 395v329h871v-329h-871z" />
<glyph unicode="." horiz-adv-x="1427" d="M30 -158v1660h1367v-1660h-1367zM82 -106h1263v1554h-1263v-1554zM127 971h19q1 -24 11 -41q10 -18 25 -18h20q15 0 26 18q10 18 10 45q0 23 -10 43q-11 18 -26 18h-31q-27 0 -39 38q-4 16 -4 37q0 32 13 55q11 20 30 20h30q18 0 31 -20t14 -51h-20q-1 17 -8 28t-17 11 h-30q-14 0 -21 -20q-4 -11 -4 -23q0 -20 8 -30q6 -11 17 -11h29q24 0 40 -29q16 -26 16 -66t-15 -68q-17 -27 -39 -27h-20q-22 0 -38 27q-16 28 -17 64zM147 44v4q0 4 1 13h28q12 3 12 21v1q0 7 -21 13q-10 8 -10 19v4q0 21 17 33q4 2 11 2h24v-1q0 -3 -3 -17h-23 q-9 0 -10 -16q0 -5 21 -13q10 -7 10 -17v-10q0 -21 -18 -35q-7 -1 -12 -1h-27zM147 255v15q0 6 5 14v1q-4 5 -4 13v6q0 6 3 10q-4 7 -4 13v23q3 26 24 26h12q4 0 8 -1q8 1 17 4q7 -13 7 -16q-4 -4 -9 -4q3 -7 3 -20v-2q0 -34 -26 -34h-14l-6 1q-1 -2 -1 -3q0 -4 30 -13 q20 -9 20 -23v-8q-3 -27 -25 -27q0 -1 -6 -1h-4q-21 0 -28 16q-2 3 -2 10zM148 479v132q1 13 5 13h43q10 0 19 -20q3 -11 3 -21v-8q0 -42 -32 -42h-22v-54h-16zM162 260q1 -13 13 -13h8q13 0 13 12v1q0 10 -29 18v-1q-5 -6 -5 -15v-2zM162 337q0 -17 11 -17h10q10 0 10 18v3 q-1 18 -11 18h-7q-13 0 -13 -15v-7zM164 551h21q17 0 17 27v3q0 26 -16 26q0 1 -6 1h-16v-57zM230 507v47q0 28 18 34h7h11q27 0 27 -34q0 -22 -15 -30q-4 -3 -13 -3h-19v-7q0 -18 13 -18h1q13 0 25 6h1q0 -3 4 -17q-9 -6 -20 -6h-21q-13 0 -19 28zM235 136q0 3 3 18h16 q0 3 7 36h14q0 -2 -6 -36h14v-1q0 -4 -3 -17h-15v-1q-11 -68 -11 -73l6 -1h3v-1q0 -2 -2 -16h-3q-21 0 -21 13q0 8 12 79h-14zM241 303v38q0 27 18 34h26q16 0 19 -33v-1q0 -22 -17 -31q-5 -1 -8 -1h-22v-7q0 -18 12 -18h6q12 0 20 6h3l3 -18q-9 -6 -29 -6h-5q-18 0 -24 20 q-2 7 -2 17zM246 539h20q9 0 11 16q-2 16 -11 16h-8q-12 0 -12 -15v-17zM257 327h20q11 1 11 16q0 16 -13 16h-5q-13 0 -13 -18v-14zM276 1066v32h20v88h20v-88h20v-32h-20v-196q0 -15 3 -28q6 -24 26 -26v-30q-31 2 -43 42q-6 21 -6 42v196h-20zM293 68v2q0 7 14 84h16 l-14 -83q2 -10 9 -10h1q18 0 18 13l13 80h16v-1q0 -4 -18 -109h-16v2q-5 -2 -9 -2h-7q-23 0 -23 24zM306 479v109h16v-4h1q5 4 14 4h9q2 0 2 -1v-16l-8 1q-16 0 -18 -12v-81h-16zM327 359v16h15q1 15 1 23v6l1 9h13v-38h15v-16h-14v-72q1 -3 6 -3h5v-18h-5q-20 2 -20 11 q-2 4 -2 11v71h-15zM352 560q0 25 20 28h28v-17h-24q-7 -1 -7 -9v-3q0 -9 11 -12q27 -7 27 -31v-11q0 -19 -15 -26h-37v17h26q8 0 10 8v7q0 11 -9 15q-14 3 -24 13q-6 12 -6 21zM362 794v11q0 5 2 7q2 3 6 3h4q3 0 5 -1q3 -2 4 -7l-6 -1q-1 1 -3 1h-6q-2 -1 -2 -2v-11 q0 -3 2 -3l2 -1h6l1 1h6q-1 -4 -4 -5q-2 -2 -5 -2h-4q-4 0 -6 3t-2 7zM364 948v150h20v-150q0 -13 5 -25q7 -11 16 -11h24q10 0 15 11q7 12 8 25v150h19v-218h-19v9q-11 -9 -23 -9h-24q-17 0 -29 19q-12 23 -12 49zM382 69q10 70 16 70q8 15 26 15h15l2 -1l7 37h16l-26 -146 h-13h-3h-4h-13q-23 0 -23 25zM390 784v43h6v-13q1 1 3 1h4q3 0 7 -3q3 -5 3 -7v-21h-7v21v2h-9q-1 -1 -1 -2v-21h-6zM399 70q0 -7 9 -9h11q7 0 9 16l9 58l-2 1h-13q-16 0 -18 -37q-5 -21 -5 -29zM420 513v33q0 35 16 41q4 1 10 1h11q17 0 23 -14q3 -8 3 -15v-49 q0 -20 -14 -29q-3 -2 -5 -2h-22q-22 5 -22 34zM421 794v11q0 5 3 7q2 3 5 3h5q4 0 7 -3q1 -2 1 -7v-11q0 -4 -1 -7q-3 -3 -7 -3h-5q-3 0 -5 3q-3 3 -3 7zM426 794q0 -3 2 -3q0 -1 1 -1h5q1 0 4 1v16h-10q-2 -1 -2 -2v-11zM437 510q0 -14 15 -14h2q13 0 13 14v47 q-2 14 -10 14h-9q-11 -2 -11 -14v-47zM451 348v18h9v13q0 28 21 34h7v-18q-12 0 -12 -19v-10h10v-18h-10v-82h-16v82h-9zM453 794v11q0 5 2 7q2 3 5 3h5q4 0 7 -3q2 -2 2 -7v-11q0 -4 -2 -7q-3 -3 -7 -3h-5q-3 0 -5 3t-2 7zM457 794q0 -3 1 -3q1 -1 2 -1h5q1 0 3 1q1 0 1 3 v11q0 1 -1 2h-10q-1 -1 -1 -2v-11zM471 44l19 110h16v-1q0 -6 -19 -109h-16zM481 793v1h5v-1q0 -2 1 -2q1 -1 3 -1h3l1 1q2 0 2 3l-2 2l-1 2h-5q-2 0 -3 1q-2 0 -2 3q-2 1 -2 4q0 5 2 6q2 3 5 3h5q2 0 4 -3q2 -1 2 -5v-2h-5l-1 2v3h-5q-1 0 -2 -3v-1q0 -1 1 -1q0 -2 1 -2h5 q3 0 4 -3q3 -1 3 -6q0 -4 -2 -7t-5 -3h-3q-4 0 -6 3q-3 3 -3 6zM493 168v1q2 21 5 21h15q-4 -19 -4 -22h-16zM496 948v82q0 28 13 48q11 20 28 20h25q12 0 20 -11v99h20v-306h-20v9q-8 -9 -20 -9h-25q-17 0 -28 19q-13 23 -13 49zM499 479v109h16v-3q4 3 9 3h12q17 0 22 -13 q4 -6 4 -18v-78h-16v78q-2 14 -10 14h-11q-10 0 -10 -11v-81h-16zM509 794v11q0 5 2 7q2 3 5 3h6q3 0 6 -3q2 -2 2 -7v-6h-17v-5q0 -3 2 -3q0 -1 1 -1h6q1 0 2 1q1 0 1 2h5q-1 -3 -2 -7q-3 -2 -6 -2h-6q-3 0 -5 3t-2 7zM513 805h12q0 1 -1 2h-9q-2 -1 -2 -2zM515 948 q0 -13 7 -25q6 -11 15 -11h25q8 0 15 11q5 12 5 25v82q0 13 -5 24q-7 12 -15 12h-25q-9 0 -15 -12q-7 -11 -7 -24v-82zM517 296v79h16v-74q0 -17 13 -17h5q10 0 10 10v81h16v-109h-16v3q-4 -3 -7 -3h-11q-17 0 -24 19q-2 8 -2 11zM524 68q10 72 17 72q7 14 25 14h8 q23 0 23 -25q-10 -71 -16 -71q-7 -14 -28 -14h-3q-19 0 -22 10q-3 4 -4 14zM541 71q0 -9 11 -10h4q15 0 18 27q6 34 6 39q0 7 -9 9h-7q-13 0 -17 -27q-6 -35 -6 -38zM556 783h5q0 -4 1 -5l1 -2h5q1 0 2 2q1 1 1 4v2h-8q-4 0 -6 3q-1 3 -1 6v22h5v-22q0 -2 1 -2l1 -1h5 q1 0 2 1q1 0 1 2v22h7v-33q0 -6 -3 -8q-4 -3 -7 -3h-5q-4 0 -6 3q-1 2 -1 9zM575 510v6q0 24 18 33h9h9q8 0 11 -2v7q0 17 -11 17h-1q-10 0 -25 -4h-1v17q0 4 28 4h1q21 0 25 -29v-80h-16v2q-3 -2 -5 -2h-23q-14 0 -19 31zM585 794v11q0 5 4 7q2 3 5 3h4q5 0 7 -3q2 -2 2 -7 v-11q0 -4 -2 -7t-7 -3h-4q-3 0 -5 3q-4 3 -4 7zM591 513q2 -17 13 -17h5q13 0 13 18v14q-1 4 -8 4h-12q-10 0 -11 -19zM591 794q0 -3 1 -3q1 -1 2 -1h4q1 0 4 1q1 0 1 3v11q0 1 -1 2h-10q-1 -1 -1 -2v-11zM612 296v117h16v-120q0 -10 5 -10h7v-17h-7q-20 0 -20 20 q-1 0 -1 10zM617 794v21h4v-21q0 -3 1 -3l2 -1h6q1 0 3 1v24h4v-31h-4v2q0 -2 -3 -2h-6q-3 0 -5 3t-2 7zM622 136q3 15 3 18h15q8 34 8 36h14v-1l-6 -35h14v-1l-2 -17h-15q-13 -69 -13 -74h1l6 -1h3v-1q-1 -16 -3 -16h-1q-21 0 -21 13v3q0 12 12 76h-15zM633 880v218h19 v-218h-19zM633 1154v32h19v-32h-19zM647 784v31h5v-1q0 1 3 1h5v-8h-7q-1 0 -1 -2v-21h-5zM656 514v110h17v-126q1 -3 7 -3h4v-16h-13q-15 0 -15 35zM662 17q0 4 8 13h2q0 -4 9 -5q6 0 13 19l-7 110h16q1 -1 1 -2q2 -68 2 -74h2q27 74 30 76h16q-50 -129 -58 -140 q-7 -6 -11 -6h-13q-5 0 -10 9zM668 288v125h16v-127q0 -1 3 -3h8v-17h-6q-21 0 -21 22zM685 794v11q0 5 2 7q2 3 6 3h5q3 0 4 -1q3 -2 3 -7l-3 -1q-2 1 -4 1h-8v-16q2 -1 3 -1h7q1 1 2 1h3q0 -4 -3 -5q-1 -2 -4 -2h-5q-4 0 -6 3t-2 7zM685 950v80q0 28 11 49q12 20 29 20h24 q19 0 28 -20q12 -21 12 -49v-80q0 -28 -12 -51q-10 -19 -28 -19h-24q-17 0 -29 19q-11 23 -11 51zM703 950q0 -15 6 -27q7 -11 16 -11h24q9 0 15 11q7 12 7 27v80q0 14 -7 25q-6 11 -15 11h-24q-9 0 -16 -11q-6 -11 -6 -25v-80zM715 784v43h4v-13q0 1 3 1h5q3 0 6 -3 q3 -5 3 -7v-21h-6v23h-11v-23h-4zM743 793q0 5 3 7q3 3 7 3h4q1 2 1 3v1h-9v-2h-5v2q0 4 2 5q3 3 5 3h4q4 0 6 -3q2 -2 2 -6v-15q0 -1 1 -1l3 -2l-4 -5l-2 3h-1q-1 -2 -5 -2q0 -1 -1 -1t-4 1q-3 2 -5 3q-2 3 -2 6zM748 507v81h16v-78q0 -13 14 -14q13 1 13 6v86h16v-109h-16 v2q-3 -2 -5 -2h-18q-16 0 -20 28zM749 790h7q2 1 2 3v5h-5q-3 0 -4 -2v-6zM751 8v1l25 145h15q1 0 1 -1l2 1h18q13 0 18 -11q2 -6 2 -10v-6q-9 -69 -16 -69q-9 -14 -18 -14h-24q-7 -34 -7 -36h-16zM773 784v31h4v-1q1 1 5 1h4v-8h-5q-4 0 -4 -2v-21h-4zM774 348v18h9v1 q0 39 13 42q3 4 10 4h5v-18q-12 0 -12 -12v-17h10v-18h-10v-82h-16v82h-9zM777 63q3 -2 6 -2h7q19 0 19 27q1 1 7 37q-2 11 -9 11h-15q-4 0 -15 -73zM794 793q0 5 2 7q3 3 7 3h5v4h-8v-2h-5v2q0 4 2 5q2 3 5 3h4q4 0 5 -3q3 -2 3 -6v-16l3 -2l-3 -5l-2 3h-1q-1 -2 -5 -2 q-1 -1 -2 -1t-3 1q-3 2 -5 3q-2 3 -2 6zM799 793q0 -2 1 -3h6q2 1 2 3v5h-6q-1 0 -2 -2t-1 -3zM806 1154v32h142v-32h-61v-274h-19v274h-62zM821 560q3 28 18 28h30v-17h-24q-7 0 -8 -11q0 -11 17 -15q22 -8 22 -31v-8q0 -20 -15 -27h-38v17h27q10 0 10 13v1q0 15 -10 15 q-27 10 -27 22q-1 0 -2 13zM824 794v11q0 5 2 7q3 3 6 3h5q3 0 4 -1q2 -2 4 -7l-5 -1q0 1 -3 1h-8v-16q2 -1 3 -1h8v1h5q-2 -4 -4 -5q-1 -2 -4 -2h-5q-3 0 -6 3q-2 3 -2 7zM839 304v35q0 27 15 36h5h24q12 0 18 -23q1 -1 1 -6v-49q0 -21 -16 -29q-3 -2 -9 -2h-12 q-26 0 -26 38zM852 807v8h4v12h4v-12h5v-8h-5v-14q3 -3 7 -3v-6q-8 0 -10 6q-1 3 -1 6v11h-4zM853 68q10 72 16 72q8 14 25 14h8q23 0 23 -25q-10 -69 -15 -69q-7 -16 -29 -16h-3q-19 0 -23 11q-1 6 -2 13zM855 306q0 -22 12 -22h9q10 0 10 17v43q0 15 -13 15h-4 q-14 0 -14 -23v-30zM869 71q0 -9 11 -10h5q15 0 18 32q6 30 6 35q-3 8 -9 8h-7q-16 0 -19 -39q-5 -20 -5 -26zM874 794v11q0 5 3 7q2 3 5 3h5q4 0 7 -3q1 -2 1 -7v-6h-16v-5q0 -3 1 -3q1 -1 2 -1h5q3 0 3 1q1 0 1 2h4q0 -3 -1 -7q-3 -2 -7 -2h-5q-3 0 -5 3q-3 3 -3 7z M879 805h12v2h-11q-1 -1 -1 -2zM889 516v35q0 37 26 37h10q17 0 23 -14q4 -10 4 -17v-4q0 -26 -19 -31q-4 -1 -8 -1h-20v-5q0 -20 13 -20h1q14 0 25 6h2l3 -17q-8 -6 -19 -6h-21q-13 0 -19 24q-1 6 -1 13zM905 539h20q9 0 11 16q-2 16 -11 16h-8q-12 0 -12 -18v-14zM905 784 v31h6v-1q0 1 1 1h6v-8h-6q-1 0 -1 -2v-21h-6zM934 266v109h16v-2h1q0 2 5 2h22q12 0 18 -23q1 -7 1 -16v-70h-16v73q0 20 -13 20h-4q-14 0 -14 -8v-85h-16zM939 786h66q17 0 28 20q14 21 14 50v242h-20v-150q0 -14 -7 -26q-5 -11 -15 -11h-24q-11 0 -17 11q-5 12 -5 26v150 h-20v-150q0 -28 12 -50q13 -20 30 -20h24q11 0 22 11v-33q0 -16 -7 -26q-5 -12 -15 -12h-66v-32zM945 44q0 3 3 25h16v-1l-3 -24h-16zM999 70q10 70 17 70q5 14 29 14h4q14 0 20 -8v-1q-7 -14 -10 -16q-7 7 -14 7h-3q-13 0 -17 -12q-9 -44 -9 -54q0 -9 10 -9t25 6v-8v-10 q-12 -5 -28 -5q-17 0 -21 11q-3 7 -3 15zM1019 509v48q0 22 16 30q4 1 10 1h12q26 0 26 -37v-35q0 -22 -10 -31q-6 -6 -10 -6h-24q-12 0 -19 23q-1 2 -1 7zM1022 359v16h16q0 14 1 38h14v-38h15v-16h-15v-68q0 -7 6 -7h6v-18h-6q-22 0 -22 22v71h-15zM1035 514q0 -18 14 -18 h4q14 0 14 22v33q0 20 -13 20h-8q-11 0 -11 -17v-40zM1072 791v307h19v-10q10 10 21 10h25q17 0 28 -19q10 -21 10 -49v-79q0 -28 -10 -49q-11 -19 -28 -19h-25q-11 0 -21 9v-101h-19zM1081 62v7q9 69 15 69q7 16 26 16h9q14 0 19 -12q3 -8 3 -13q-11 -71 -16 -71 q-8 -14 -29 -14h-2q-20 0 -23 10q-2 6 -2 8zM1091 951q0 -15 7 -25q5 -12 14 -12h25q8 0 15 12q5 10 5 25v79q0 14 -5 25q-7 11 -15 11h-25q-9 0 -14 -11q-7 -11 -7 -25v-79zM1097 71q0 -9 10 -10h3q15 0 18 16q8 44 8 50q0 8 -10 9h-6q-16 0 -19 -40q-1 0 -4 -25zM1098 479 v109h16v-2q5 2 8 2h14q26 0 26 -39v-70h-16v72q0 20 -12 20h-9q-11 0 -11 -8v-84h-16zM1143 301q4 35 20 35h24l3 -1v10q0 11 -11 14q-11 0 -26 -5v19q11 3 29 3q25 0 25 -42v-68h-17v3q-3 -3 -8 -3h-12q-17 0 -23 15q-2 6 -4 20zM1160 302q0 -18 12 -18h7q11 2 11 13v19 q0 4 -17 4q-11 0 -13 -15v-3zM1169 44q0 6 18 110h16v-2q3 2 6 2h10q9 0 14 -5q6 5 17 5h8q18 0 18 -19v-12q0 -9 -13 -79h-15v1q0 4 13 81q0 10 -7 10h-6q-10 0 -10 -13q-13 -74 -14 -79h-15q0 4 13 82q0 10 -7 10h-6q-12 0 -12 -22q-2 -3 -12 -70h-16zM1180 512v112h16 v-121q0 -8 8 -8h4v-16h-14q-11 3 -11 10q-2 0 -3 23zM1202 950v80q0 28 11 49q12 20 29 20h25q17 0 28 -20q13 -21 13 -49v-80q0 -28 -13 -51q-11 -19 -28 -19h-25q-17 0 -29 19q-11 23 -11 51zM1209 454q2 5 5 12h2q6 -6 10 -6q8 0 10 21q-3 7 -26 107h17q16 -74 16 -77h1 l16 77h16v-4q-2 -14 -30 -130q-7 -12 -15 -12h-8q-9 0 -14 12zM1222 950q0 -15 5 -27q7 -11 15 -11h25q10 0 15 11q7 12 7 27v80q0 14 -7 25q-5 11 -15 11h-25q-8 0 -15 -11q-5 -11 -5 -25v-80zM1232 359v16h14q2 0 2 2v7v29h15v-38h13v-16h-13v-70q0 -5 5 -5h6v-18h-6 q-21 0 -21 22v71h-15z" />
<glyph unicode="/" horiz-adv-x="575" d="M30 0l318 1519h197l-318 -1519h-197z" />
<glyph unicode="0" d="M30 250v1018q0 103 74 177q73 74 177 74h459q104 0 177 -74q74 -74 74 -177v-1018q0 -103 -74 -176q-73 -74 -177 -74h-459q-104 0 -177 73q-74 74 -74 177zM475 147q0 -25 25 -25h21q25 0 25 25v1224q0 25 -25 25h-21q-25 0 -25 -25v-1224z" />
<glyph unicode="1" horiz-adv-x="724" d="M130 1100l171 419h393v-1519h-445v1100h-119z" />
<glyph unicode="2" horiz-adv-x="1427" d="M30 -158v1660h1367v-1660h-1367zM82 -106h1263v1554h-1263v-1554zM127 971h19q1 -24 11 -41q10 -18 25 -18h20q15 0 26 18q10 18 10 45q0 23 -10 43q-11 18 -26 18h-31q-27 0 -39 38q-4 16 -4 37q0 32 13 55q11 20 30 20h30q18 0 31 -20t14 -51h-20q-1 17 -8 28t-17 11 h-30q-14 0 -21 -20q-4 -11 -4 -23q0 -20 8 -30q6 -11 17 -11h29q24 0 40 -29q16 -26 16 -66t-15 -68q-17 -27 -39 -27h-20q-22 0 -38 27q-16 28 -17 64zM147 44v4q0 4 1 13h28q12 3 12 21v1q0 7 -21 13q-10 8 -10 19v4q0 21 17 33q4 2 11 2h24v-1q0 -3 -3 -17h-23 q-9 0 -10 -16q0 -5 21 -13q10 -7 10 -17v-10q0 -21 -18 -35q-7 -1 -12 -1h-27zM147 255v15q0 6 5 14v1q-4 5 -4 13v6q0 6 3 10q-4 7 -4 13v23q3 26 24 26h12q4 0 8 -1q8 1 17 4q7 -13 7 -16q-4 -4 -9 -4q3 -7 3 -20v-2q0 -34 -26 -34h-14l-6 1q-1 -2 -1 -3q0 -4 30 -13 q20 -9 20 -23v-8q-3 -27 -25 -27q0 -1 -6 -1h-4q-21 0 -28 16q-2 3 -2 10zM148 479v132q1 13 5 13h43q10 0 19 -20q3 -11 3 -21v-8q0 -42 -32 -42h-22v-54h-16zM162 260q1 -13 13 -13h8q13 0 13 12v1q0 10 -29 18v-1q-5 -6 -5 -15v-2zM162 337q0 -17 11 -17h10q10 0 10 18v3 q-1 18 -11 18h-7q-13 0 -13 -15v-7zM164 551h21q17 0 17 27v3q0 26 -16 26q0 1 -6 1h-16v-57zM230 507v47q0 28 18 34h7h11q27 0 27 -34q0 -22 -15 -30q-4 -3 -13 -3h-19v-7q0 -18 13 -18h1q13 0 25 6h1q0 -3 4 -17q-9 -6 -20 -6h-21q-13 0 -19 28zM235 136q0 3 3 18h16 q0 3 7 36h14q0 -2 -6 -36h14v-1q0 -4 -3 -17h-15v-1q-11 -68 -11 -73l6 -1h3v-1q0 -2 -2 -16h-3q-21 0 -21 13q0 8 12 79h-14zM241 303v38q0 27 18 34h26q16 0 19 -33v-1q0 -22 -17 -31q-5 -1 -8 -1h-22v-7q0 -18 12 -18h6q12 0 20 6h3l3 -18q-9 -6 -29 -6h-5q-18 0 -24 20 q-2 7 -2 17zM246 539h20q9 0 11 16q-2 16 -11 16h-8q-12 0 -12 -15v-17zM257 327h20q11 1 11 16q0 16 -13 16h-5q-13 0 -13 -18v-14zM276 1066v32h20v88h20v-88h20v-32h-20v-196q0 -15 3 -28q6 -24 26 -26v-30q-31 2 -43 42q-6 21 -6 42v196h-20zM293 68v2q0 7 14 84h16 l-14 -83q2 -10 9 -10h1q18 0 18 13l13 80h16v-1q0 -4 -18 -109h-16v2q-5 -2 -9 -2h-7q-23 0 -23 24zM306 479v109h16v-4h1q5 4 14 4h9q2 0 2 -1v-16l-8 1q-16 0 -18 -12v-81h-16zM327 359v16h15q1 15 1 23v6l1 9h13v-38h15v-16h-14v-72q1 -3 6 -3h5v-18h-5q-20 2 -20 11 q-2 4 -2 11v71h-15zM352 560q0 25 20 28h28v-17h-24q-7 -1 -7 -9v-3q0 -9 11 -12q27 -7 27 -31v-11q0 -19 -15 -26h-37v17h26q8 0 10 8v7q0 11 -9 15q-14 3 -24 13q-6 12 -6 21zM362 794v11q0 5 2 7q2 3 6 3h4q3 0 5 -1q3 -2 4 -7l-6 -1q-1 1 -3 1h-6q-2 -1 -2 -2v-11 q0 -3 2 -3l2 -1h6l1 1h6q-1 -4 -4 -5q-2 -2 -5 -2h-4q-4 0 -6 3t-2 7zM364 948v150h20v-150q0 -13 5 -25q7 -11 16 -11h24q10 0 15 11q7 12 8 25v150h19v-218h-19v9q-11 -9 -23 -9h-24q-17 0 -29 19q-12 23 -12 49zM382 69q10 70 16 70q8 15 26 15h15l2 -1l7 37h16l-26 -146 h-13h-3h-4h-13q-23 0 -23 25zM390 784v43h6v-13q1 1 3 1h4q3 0 7 -3q3 -5 3 -7v-21h-7v21v2h-9q-1 -1 -1 -2v-21h-6zM399 70q0 -7 9 -9h11q7 0 9 16l9 58l-2 1h-13q-16 0 -18 -37q-5 -21 -5 -29zM420 513v33q0 35 16 41q4 1 10 1h11q17 0 23 -14q3 -8 3 -15v-49 q0 -20 -14 -29q-3 -2 -5 -2h-22q-22 5 -22 34zM421 794v11q0 5 3 7q2 3 5 3h5q4 0 7 -3q1 -2 1 -7v-11q0 -4 -1 -7q-3 -3 -7 -3h-5q-3 0 -5 3q-3 3 -3 7zM426 794q0 -3 2 -3q0 -1 1 -1h5q1 0 4 1v16h-10q-2 -1 -2 -2v-11zM437 510q0 -14 15 -14h2q13 0 13 14v47 q-2 14 -10 14h-9q-11 -2 -11 -14v-47zM451 348v18h9v13q0 28 21 34h7v-18q-12 0 -12 -19v-10h10v-18h-10v-82h-16v82h-9zM453 794v11q0 5 2 7q2 3 5 3h5q4 0 7 -3q2 -2 2 -7v-11q0 -4 -2 -7q-3 -3 -7 -3h-5q-3 0 -5 3t-2 7zM457 794q0 -3 1 -3q1 -1 2 -1h5q1 0 3 1q1 0 1 3 v11q0 1 -1 2h-10q-1 -1 -1 -2v-11zM471 44l19 110h16v-1q0 -6 -19 -109h-16zM481 793v1h5v-1q0 -2 1 -2q1 -1 3 -1h3l1 1q2 0 2 3l-2 2l-1 2h-5q-2 0 -3 1q-2 0 -2 3q-2 1 -2 4q0 5 2 6q2 3 5 3h5q2 0 4 -3q2 -1 2 -5v-2h-5l-1 2v3h-5q-1 0 -2 -3v-1q0 -1 1 -1q0 -2 1 -2h5 q3 0 4 -3q3 -1 3 -6q0 -4 -2 -7t-5 -3h-3q-4 0 -6 3q-3 3 -3 6zM493 168v1q2 21 5 21h15q-4 -19 -4 -22h-16zM496 948v82q0 28 13 48q11 20 28 20h25q12 0 20 -11v99h20v-306h-20v9q-8 -9 -20 -9h-25q-17 0 -28 19q-13 23 -13 49zM499 479v109h16v-3q4 3 9 3h12q17 0 22 -13 q4 -6 4 -18v-78h-16v78q-2 14 -10 14h-11q-10 0 -10 -11v-81h-16zM509 794v11q0 5 2 7q2 3 5 3h6q3 0 6 -3q2 -2 2 -7v-6h-17v-5q0 -3 2 -3q0 -1 1 -1h6q1 0 2 1q1 0 1 2h5q-1 -3 -2 -7q-3 -2 -6 -2h-6q-3 0 -5 3t-2 7zM513 805h12q0 1 -1 2h-9q-2 -1 -2 -2zM515 948 q0 -13 7 -25q6 -11 15 -11h25q8 0 15 11q5 12 5 25v82q0 13 -5 24q-7 12 -15 12h-25q-9 0 -15 -12q-7 -11 -7 -24v-82zM517 296v79h16v-74q0 -17 13 -17h5q10 0 10 10v81h16v-109h-16v3q-4 -3 -7 -3h-11q-17 0 -24 19q-2 8 -2 11zM524 68q10 72 17 72q7 14 25 14h8 q23 0 23 -25q-10 -71 -16 -71q-7 -14 -28 -14h-3q-19 0 -22 10q-3 4 -4 14zM541 71q0 -9 11 -10h4q15 0 18 27q6 34 6 39q0 7 -9 9h-7q-13 0 -17 -27q-6 -35 -6 -38zM556 783h5q0 -4 1 -5l1 -2h5q1 0 2 2q1 1 1 4v2h-8q-4 0 -6 3q-1 3 -1 6v22h5v-22q0 -2 1 -2l1 -1h5 q1 0 2 1q1 0 1 2v22h7v-33q0 -6 -3 -8q-4 -3 -7 -3h-5q-4 0 -6 3q-1 2 -1 9zM575 510v6q0 24 18 33h9h9q8 0 11 -2v7q0 17 -11 17h-1q-10 0 -25 -4h-1v17q0 4 28 4h1q21 0 25 -29v-80h-16v2q-3 -2 -5 -2h-23q-14 0 -19 31zM585 794v11q0 5 4 7q2 3 5 3h4q5 0 7 -3q2 -2 2 -7 v-11q0 -4 -2 -7t-7 -3h-4q-3 0 -5 3q-4 3 -4 7zM591 513q2 -17 13 -17h5q13 0 13 18v14q-1 4 -8 4h-12q-10 0 -11 -19zM591 794q0 -3 1 -3q1 -1 2 -1h4q1 0 4 1q1 0 1 3v11q0 1 -1 2h-10q-1 -1 -1 -2v-11zM612 296v117h16v-120q0 -10 5 -10h7v-17h-7q-20 0 -20 20 q-1 0 -1 10zM617 794v21h4v-21q0 -3 1 -3l2 -1h6q1 0 3 1v24h4v-31h-4v2q0 -2 -3 -2h-6q-3 0 -5 3t-2 7zM622 136q3 15 3 18h15q8 34 8 36h14v-1l-6 -35h14v-1l-2 -17h-15q-13 -69 -13 -74h1l6 -1h3v-1q-1 -16 -3 -16h-1q-21 0 -21 13v3q0 12 12 76h-15zM633 880v218h19 v-218h-19zM633 1154v32h19v-32h-19zM647 784v31h5v-1q0 1 3 1h5v-8h-7q-1 0 -1 -2v-21h-5zM656 514v110h17v-126q1 -3 7 -3h4v-16h-13q-15 0 -15 35zM662 17q0 4 8 13h2q0 -4 9 -5q6 0 13 19l-7 110h16q1 -1 1 -2q2 -68 2 -74h2q27 74 30 76h16q-50 -129 -58 -140 q-7 -6 -11 -6h-13q-5 0 -10 9zM668 288v125h16v-127q0 -1 3 -3h8v-17h-6q-21 0 -21 22zM685 794v11q0 5 2 7q2 3 6 3h5q3 0 4 -1q3 -2 3 -7l-3 -1q-2 1 -4 1h-8v-16q2 -1 3 -1h7q1 1 2 1h3q0 -4 -3 -5q-1 -2 -4 -2h-5q-4 0 -6 3t-2 7zM685 950v80q0 28 11 49q12 20 29 20h24 q19 0 28 -20q12 -21 12 -49v-80q0 -28 -12 -51q-10 -19 -28 -19h-24q-17 0 -29 19q-11 23 -11 51zM703 950q0 -15 6 -27q7 -11 16 -11h24q9 0 15 11q7 12 7 27v80q0 14 -7 25q-6 11 -15 11h-24q-9 0 -16 -11q-6 -11 -6 -25v-80zM715 784v43h4v-13q0 1 3 1h5q3 0 6 -3 q3 -5 3 -7v-21h-6v23h-11v-23h-4zM743 793q0 5 3 7q3 3 7 3h4q1 2 1 3v1h-9v-2h-5v2q0 4 2 5q3 3 5 3h4q4 0 6 -3q2 -2 2 -6v-15q0 -1 1 -1l3 -2l-4 -5l-2 3h-1q-1 -2 -5 -2q0 -1 -1 -1t-4 1q-3 2 -5 3q-2 3 -2 6zM748 507v81h16v-78q0 -13 14 -14q13 1 13 6v86h16v-109h-16 v2q-3 -2 -5 -2h-18q-16 0 -20 28zM749 790h7q2 1 2 3v5h-5q-3 0 -4 -2v-6zM751 8v1l25 145h15q1 0 1 -1l2 1h18q13 0 18 -11q2 -6 2 -10v-6q-9 -69 -16 -69q-9 -14 -18 -14h-24q-7 -34 -7 -36h-16zM773 784v31h4v-1q1 1 5 1h4v-8h-5q-4 0 -4 -2v-21h-4zM774 348v18h9v1 q0 39 13 42q3 4 10 4h5v-18q-12 0 -12 -12v-17h10v-18h-10v-82h-16v82h-9zM777 63q3 -2 6 -2h7q19 0 19 27q1 1 7 37q-2 11 -9 11h-15q-4 0 -15 -73zM794 793q0 5 2 7q3 3 7 3h5v4h-8v-2h-5v2q0 4 2 5q2 3 5 3h4q4 0 5 -3q3 -2 3 -6v-16l3 -2l-3 -5l-2 3h-1q-1 -2 -5 -2 q-1 -1 -2 -1t-3 1q-3 2 -5 3q-2 3 -2 6zM799 793q0 -2 1 -3h6q2 1 2 3v5h-6q-1 0 -2 -2t-1 -3zM806 1154v32h142v-32h-61v-274h-19v274h-62zM821 560q3 28 18 28h30v-17h-24q-7 0 -8 -11q0 -11 17 -15q22 -8 22 -31v-8q0 -20 -15 -27h-38v17h27q10 0 10 13v1q0 15 -10 15 q-27 10 -27 22q-1 0 -2 13zM824 794v11q0 5 2 7q3 3 6 3h5q3 0 4 -1q2 -2 4 -7l-5 -1q0 1 -3 1h-8v-16q2 -1 3 -1h8v1h5q-2 -4 -4 -5q-1 -2 -4 -2h-5q-3 0 -6 3q-2 3 -2 7zM839 304v35q0 27 15 36h5h24q12 0 18 -23q1 -1 1 -6v-49q0 -21 -16 -29q-3 -2 -9 -2h-12 q-26 0 -26 38zM852 807v8h4v12h4v-12h5v-8h-5v-14q3 -3 7 -3v-6q-8 0 -10 6q-1 3 -1 6v11h-4zM853 68q10 72 16 72q8 14 25 14h8q23 0 23 -25q-10 -69 -15 -69q-7 -16 -29 -16h-3q-19 0 -23 11q-1 6 -2 13zM855 306q0 -22 12 -22h9q10 0 10 17v43q0 15 -13 15h-4 q-14 0 -14 -23v-30zM869 71q0 -9 11 -10h5q15 0 18 32q6 30 6 35q-3 8 -9 8h-7q-16 0 -19 -39q-5 -20 -5 -26zM874 794v11q0 5 3 7q2 3 5 3h5q4 0 7 -3q1 -2 1 -7v-6h-16v-5q0 -3 1 -3q1 -1 2 -1h5q3 0 3 1q1 0 1 2h4q0 -3 -1 -7q-3 -2 -7 -2h-5q-3 0 -5 3q-3 3 -3 7z M879 805h12v2h-11q-1 -1 -1 -2zM889 516v35q0 37 26 37h10q17 0 23 -14q4 -10 4 -17v-4q0 -26 -19 -31q-4 -1 -8 -1h-20v-5q0 -20 13 -20h1q14 0 25 6h2l3 -17q-8 -6 -19 -6h-21q-13 0 -19 24q-1 6 -1 13zM905 539h20q9 0 11 16q-2 16 -11 16h-8q-12 0 -12 -18v-14zM905 784 v31h6v-1q0 1 1 1h6v-8h-6q-1 0 -1 -2v-21h-6zM934 266v109h16v-2h1q0 2 5 2h22q12 0 18 -23q1 -7 1 -16v-70h-16v73q0 20 -13 20h-4q-14 0 -14 -8v-85h-16zM939 786h66q17 0 28 20q14 21 14 50v242h-20v-150q0 -14 -7 -26q-5 -11 -15 -11h-24q-11 0 -17 11q-5 12 -5 26v150 h-20v-150q0 -28 12 -50q13 -20 30 -20h24q11 0 22 11v-33q0 -16 -7 -26q-5 -12 -15 -12h-66v-32zM945 44q0 3 3 25h16v-1l-3 -24h-16zM999 70q10 70 17 70q5 14 29 14h4q14 0 20 -8v-1q-7 -14 -10 -16q-7 7 -14 7h-3q-13 0 -17 -12q-9 -44 -9 -54q0 -9 10 -9t25 6v-8v-10 q-12 -5 -28 -5q-17 0 -21 11q-3 7 -3 15zM1019 509v48q0 22 16 30q4 1 10 1h12q26 0 26 -37v-35q0 -22 -10 -31q-6 -6 -10 -6h-24q-12 0 -19 23q-1 2 -1 7zM1022 359v16h16q0 14 1 38h14v-38h15v-16h-15v-68q0 -7 6 -7h6v-18h-6q-22 0 -22 22v71h-15zM1035 514q0 -18 14 -18 h4q14 0 14 22v33q0 20 -13 20h-8q-11 0 -11 -17v-40zM1072 791v307h19v-10q10 10 21 10h25q17 0 28 -19q10 -21 10 -49v-79q0 -28 -10 -49q-11 -19 -28 -19h-25q-11 0 -21 9v-101h-19zM1081 62v7q9 69 15 69q7 16 26 16h9q14 0 19 -12q3 -8 3 -13q-11 -71 -16 -71 q-8 -14 -29 -14h-2q-20 0 -23 10q-2 6 -2 8zM1091 951q0 -15 7 -25q5 -12 14 -12h25q8 0 15 12q5 10 5 25v79q0 14 -5 25q-7 11 -15 11h-25q-9 0 -14 -11q-7 -11 -7 -25v-79zM1097 71q0 -9 10 -10h3q15 0 18 16q8 44 8 50q0 8 -10 9h-6q-16 0 -19 -40q-1 0 -4 -25zM1098 479 v109h16v-2q5 2 8 2h14q26 0 26 -39v-70h-16v72q0 20 -12 20h-9q-11 0 -11 -8v-84h-16zM1143 301q4 35 20 35h24l3 -1v10q0 11 -11 14q-11 0 -26 -5v19q11 3 29 3q25 0 25 -42v-68h-17v3q-3 -3 -8 -3h-12q-17 0 -23 15q-2 6 -4 20zM1160 302q0 -18 12 -18h7q11 2 11 13v19 q0 4 -17 4q-11 0 -13 -15v-3zM1169 44q0 6 18 110h16v-2q3 2 6 2h10q9 0 14 -5q6 5 17 5h8q18 0 18 -19v-12q0 -9 -13 -79h-15v1q0 4 13 81q0 10 -7 10h-6q-10 0 -10 -13q-13 -74 -14 -79h-15q0 4 13 82q0 10 -7 10h-6q-12 0 -12 -22q-2 -3 -12 -70h-16zM1180 512v112h16 v-121q0 -8 8 -8h4v-16h-14q-11 3 -11 10q-2 0 -3 23zM1202 950v80q0 28 11 49q12 20 29 20h25q17 0 28 -20q13 -21 13 -49v-80q0 -28 -13 -51q-11 -19 -28 -19h-25q-17 0 -29 19q-11 23 -11 51zM1209 454q2 5 5 12h2q6 -6 10 -6q8 0 10 21q-3 7 -26 107h17q16 -74 16 -77h1 l16 77h16v-4q-2 -14 -30 -130q-7 -12 -15 -12h-8q-9 0 -14 12zM1222 950q0 -15 5 -27q7 -11 15 -11h25q10 0 15 11q7 12 7 27v80q0 14 -7 25q-5 11 -15 11h-25q-8 0 -15 -11q-5 -11 -5 -25v-80zM1232 359v16h14q2 0 2 2v7v29h15v-38h13v-16h-13v-70q0 -5 5 -5h6v-18h-6 q-21 0 -21 22v71h-15z" />
<glyph unicode="3" horiz-adv-x="1067" d="M30 250v335h470v-388q0 -25 25 -25h17q25 0 25 25v527q0 25 -25 25h-78v120h78q25 0 25 26v476q0 25 -25 25h-17q-25 0 -25 -25v-346h-470v243q0 103 74 177q73 74 177 74h506q103 0 177 -74q73 -74 73 -177v-173q0 -288 -310 -288q310 0 310 -284v-273q0 -103 -73 -177 q-74 -73 -177 -73h-506q-104 0 -177 73q-74 74 -74 177z" />
<glyph unicode="4" horiz-adv-x="1008" d="M30 205v305l404 1009h445v-1009h99v-305h-99v-205h-445v205h-404zM189 523h233v586z" />
<glyph unicode="5" d="M30 250v529h445v-632q0 -25 25 -25h21q25 0 25 25v805q0 25 -25 25h-21q-25 0 -25 -25v-103h-445v670h911l-50 -349h-416v-70h265q104 0 177 -74q74 -74 74 -177v-599q0 -103 -74 -176q-73 -74 -177 -74h-459q-104 0 -177 73q-74 74 -74 177z" />
<glyph unicode="6" d="M30 250v1018q0 103 74 177q73 74 177 74h459q104 0 177 -74q74 -74 74 -177v-98h-445v201q0 25 -25 25h-21q-25 0 -25 -25v-271h265q104 0 177 -74q74 -74 74 -177v-599q0 -103 -74 -176q-73 -74 -177 -74h-459q-104 0 -177 73q-74 74 -74 177zM475 147q0 -25 25 -25h21 q25 0 25 25v805q0 25 -25 25h-21q-24 0 -25 -24v-806z" />
<glyph unicode="7" horiz-adv-x="937" d="M30 1188v331h877v-331l-405 -1188h-445l405 1188h-432z" />
<glyph unicode="8" horiz-adv-x="1067" d="M30 250v273q0 284 310 284q-310 0 -310 288v173q0 103 74 177q73 74 177 74h506q103 0 177 -74q73 -74 73 -177v-173q0 -288 -310 -288q310 0 310 -284v-273q0 -103 -73 -177q-74 -73 -177 -73h-506q-104 0 -177 73q-74 74 -74 177zM500 197q0 -25 25 -25h17q25 0 25 25 v527q0 25 -25 25h-17q-25 0 -25 -25v-527zM500 895q0 -26 25 -26h17q25 0 25 26v476q0 25 -25 25h-17q-25 0 -25 -25v-476z" />
<glyph unicode="9" d="M30 250v98h445v-201q0 -25 25 -25h21q25 0 25 25v271h-265q-104 0 -177 74q-74 74 -74 177v599q0 103 74 177q73 74 177 74h459q104 0 177 -74q74 -74 74 -177v-1018q0 -103 -74 -177q-73 -73 -177 -73h-459q-104 0 -177 73q-74 74 -74 177zM475 566q0 -25 25 -25h21 q24 0 25 24v806q0 25 -25 25h-21q-25 0 -25 -25v-805z" />
<glyph unicode=":" horiz-adv-x="505" d="M30 190q0 78 65 133.5t158 55.5q92 0 157 -55.5t65 -133.5q0 -79 -65 -134.5t-157 -55.5q-93 0 -158 55.5t-65 134.5zM30 911q0 78 65 133.5t158 55.5q92 0 157 -55.5t65 -133.5q0 -79 -65 -134.5t-157 -55.5q-93 0 -158 55.5t-65 134.5z" />
<glyph unicode=";" horiz-adv-x="505" d="M30 190q0 78 65 133.5t158 55.5q92 0 157 -55.5t65 -133.5q-1 -51 -21 -89l-192 -413h-109l24 323q-53 4 -99.5 56.5t-47.5 122.5zM30 911q0 78 65 133.5t158 55.5q92 0 157 -55.5t65 -133.5q0 -79 -65 -134.5t-157 -55.5q-93 0 -158 55.5t-65 134.5z" />
<glyph unicode="&#x3c;" horiz-adv-x="756" d="M30 651v203l696 429v-243l-504 -295l504 -291v-241z" />
<glyph unicode="=" horiz-adv-x="1160" d="M30 365v231h1100v-231h-1100zM30 895v231h1100v-231h-1100z" />
<glyph unicode="&#x3e;" horiz-adv-x="756" d="M30 213v241l504 291l-504 295v243l696 -429v-203z" />
<glyph unicode="?" horiz-adv-x="1071" d="M30 1021v124q0 169 41 253q58 119 210 121h509q104 0 178 -74q73 -74 73 -177v-345q0 -74 -25 -118q-16 -26 -71 -79q-14 -13 -59 -51q-60 -50 -82 -69q-104 -90 -104 -109v-59h-444v157q0 98 24 142q18 34 101 109q190 173 190 175v350q0 25 -25 25h-21q-25 0 -25 -25 v-350h-470zM256 0v348h444v-348h-444z" />
<glyph unicode="@" horiz-adv-x="1600" d="M50 680q0 371 217.5 605.5t569.5 234.5q344 -11 529.5 -210.5t203.5 -601.5q-9 -280 -111 -427.5t-272 -147.5q-167 0 -244 99q-76 -97 -266 -97q-234 0 -234 183v704q0 182 234 182q143 0 182 -62v54h252v-760q0 -137 82 -137q184 19 204 307v35q0 710 -564 713 q-335 0 -476 -194t-141 -474q0 -283 142.5 -482.5t474.5 -199.5q227 0 410 39l39 -154q-201 -47 -445 -47q-352 0 -569.5 233t-217.5 605zM728 369q0 -54 49 -54t49 54v600q0 55 -49 55t-49 -58v-597z" />
<glyph unicode="A" horiz-adv-x="1173" d="M30 0l247 1519h619l247 -1519h-445l-46 461h-131l-46 -461h-445zM534 581h106l-53 531z" />
<glyph unicode="B" horiz-adv-x="1071" d="M30 0v1519h760q104 0 178 -74q73 -74 73 -177v-173q0 -288 -310 -288q310 0 310 -284v-273q0 -103 -73 -177q-74 -73 -178 -73h-760zM500 172h46q25 0 25 25v527q0 25 -25 25h-46v-577zM500 869h46q25 0 25 26v476q0 25 -25 25h-46v-527z" />
<glyph unicode="C" horiz-adv-x="1071" d="M30 250v1018q0 103 74 177q73 74 177 74h509q104 0 178 -74q73 -74 73 -177v-474h-470v577q0 25 -25 25h-21q-25 0 -25 -25v-1224q0 -25 25 -25h21q25 0 25 25v577h470v-474q0 -103 -73 -177q-74 -73 -178 -73h-509q-104 0 -177 73q-74 74 -74 177z" />
<glyph unicode="D" horiz-adv-x="1071" d="M30 0v1519h760q104 0 178 -74q73 -74 73 -177v-1018q0 -103 -73 -177q-74 -73 -178 -73h-760zM500 122h46q25 0 25 25v1224q0 25 -25 25h-46v-1274z" />
<glyph unicode="E" horiz-adv-x="876" d="M30 0v1519h816v-144h-346v-468h346v-113h-346v-658h346v-136h-816z" />
<glyph unicode="F" horiz-adv-x="876" d="M30 0v1519h816v-144h-346v-468h346v-113h-346v-794h-470z" />
<glyph unicode="G" horiz-adv-x="1071" d="M30 251v1017q0 104 74 178q73 73 177 73h509q104 0 178 -73q73 -74 73 -178v-364h-470v468q0 25 -25 25h-21q-25 0 -25 -25v-1224q0 -25 25 -25h21q24 0 25 24v616h-35v71h505v-834h-131l-44 138q-21 -132 -160 -138h-425q-104 0 -177 74q-74 73 -74 177z" />
<glyph unicode="H" horiz-adv-x="1071" d="M30 0v1519h470v-700h71v700h470v-1519h-470v699h-71v-699h-470z" />
<glyph unicode="I" horiz-adv-x="530" d="M30 0v1519h470v-1519h-470z" />
<glyph unicode="J" horiz-adv-x="601" d="M30 0v136h70v1383h471v-1269q0 -103 -74 -177q-73 -73 -177 -73h-290z" />
<glyph unicode="K" horiz-adv-x="1126" d="M30 0v1519h470v-456l358 456h173l-290 -384l355 -1135h-462l-134 563v-563h-470z" />
<glyph unicode="L" horiz-adv-x="806" d="M30 0v1519h470v-1383h276v-136h-746z" />
<glyph unicode="M" horiz-adv-x="1171" d="M30 0v1519h470l86 -878l85 878h470v-1519h-470v602l-50 -441h-71l-50 441v-602h-470z" />
<glyph unicode="N" horiz-adv-x="1111" d="M30 0v1519h460l121 -790v790h470v-1519h-460l-121 789v-789h-470z" />
<glyph unicode="O" horiz-adv-x="1071" d="M30 250v1018q0 103 74 177q73 74 177 74h509q104 0 178 -74q73 -74 73 -177v-1018q0 -103 -73 -177q-74 -73 -178 -73h-509q-104 0 -177 73q-74 74 -74 177zM500 147q0 -25 25 -25h21q25 0 25 25v1224q0 25 -25 25h-21q-25 0 -25 -25v-1224z" />
<glyph unicode="P" horiz-adv-x="1071" d="M30 0v1519h760q104 0 178 -74q73 -74 73 -177v-470q0 -104 -73 -178q-74 -73 -178 -73h-290v-547h-470zM500 669h46q25 0 25 25v677q0 25 -25 25h-46v-727z" />
<glyph unicode="Q" horiz-adv-x="1071" d="M30 250v1018q0 103 74 177q73 74 177 74h509q104 0 178 -74q73 -74 73 -177v-1018q0 -103 -73 -177q-74 -73 -173 -73v-80h80v-90h-275q-45 0 -76 31q-32 32 -32 77v62h-211q-104 0 -177 73q-74 74 -74 177zM500 147q0 -25 25 -25h21q25 0 25 25v1224q0 25 -25 25h-21 q-25 0 -25 -25v-1224z" />
<glyph unicode="R" horiz-adv-x="1096" d="M30 0v1519h760q104 0 178 -74q73 -74 73 -177v-245q0 -78 -44 -142q-44 -63 -114 -91q70 -28 114 -91q44 -64 44 -142v-320q0 -162 25 -237h-470q-25 82 -25 253v446q0 17 -17 23h-54v-722h-470zM500 827h46q25 0 25 25v569q0 25 -25 25h-46v-619z" />
<glyph unicode="S" horiz-adv-x="1071" d="M30 250v247h470v-350q0 -25 25 -25h21q25 0 25 25v350q0 11 -25 25l-265 150q-159 90 -171 99q-80 63 -80 152v345q0 103 74 177q73 74 177 74h509q152 -2 210 -121q41 -84 41 -253v-124h-470v350q0 25 -25 25h-21q-25 0 -25 -25v-350q0 -11 25 -25l265 -150 q158 -90 171 -99q80 -63 80 -152v-345q0 -103 -73 -177q-74 -73 -178 -73h-509q-104 0 -177 73q-74 74 -74 177z" />
<glyph unicode="T" horiz-adv-x="1008" d="M30 1371v148h948v-148h-239v-1371h-470v1371h-239z" />
<glyph unicode="U" horiz-adv-x="1071" d="M30 250v1269h470v-1372q0 -25 25 -25h21q25 0 25 25v1372h470v-1269q0 -103 -73 -177q-74 -73 -178 -73h-509q-104 0 -177 73q-74 74 -74 177z" />
<glyph unicode="V" horiz-adv-x="1173" d="M30 1519h441l115 -1111l114 1111h443l-247 -1519h-619z" />
<glyph unicode="W" horiz-adv-x="1612" d="M30 351v1168h470v-1371q0 -26 26 -26h20q25 0 25 26v1371h470v-1371q0 -26 25 -26h20q26 0 26 26v1371h470v-1168q0 -204 -74 -277q-73 -74 -177 -74h-425q-41 2 -70 31q-29 30 -30 71q-1 -41 -30 -71q-29 -29 -70 -31h-425q-104 0 -177 74q-74 73 -74 277z" />
<glyph unicode="X" horiz-adv-x="1071" d="M30 0v551q0 104 74 177q73 74 177 74q-104 0 -177 74q-74 73 -74 177v466h470v-664q0 -25 25 -25h21q25 0 25 25v664h470v-466q0 -104 -74 -177q-73 -74 -177 -74q104 0 177 -74q74 -73 74 -177v-551h-470v731q0 25 -25 25h-21q-25 0 -25 -25v-731h-470z" />
<glyph unicode="Y" horiz-adv-x="1071" d="M30 798v721h470v-781h71v781h470v-721q0 -104 -74 -177q-73 -74 -177 -74h-19v-547h-471v547h-19q-104 0 -177 74q-74 73 -74 177z" />
<glyph unicode="Z" horiz-adv-x="1012" d="M30 0l414 1375h-409v144h947l-382 -1383h369v-136h-939z" />
<glyph unicode="[" horiz-adv-x="664" d="M30 -418v1938h604v-71h-315v-1797h315v-70h-604z" />
<glyph unicode="\" horiz-adv-x="575" d="M30 1519h197l318 -1519h-197z" />
<glyph unicode="]" horiz-adv-x="664" d="M30 -348h315v1797h-315v71h604v-1938h-604v70z" />
<glyph unicode="^" horiz-adv-x="1130" d="M30 686l438 696h203l429 -696h-243l-295 504l-291 -504h-241z" />
<glyph unicode="_" horiz-adv-x="1040" d="M-30 -1h1100v-231h-1100v231z" />
<glyph unicode="`" horiz-adv-x="715" d="M30 1520h344l131 -296h-219z" />
<glyph unicode="a" d="M30 251v248q0 103 74 177q73 73 177 73h108q88 0 157 -55v258q0 11 -8 18q-7 8 -17 8h-21q-10 0 -17 -8q-8 -7 -8 -18v-116h-395v13q0 104 74 177q73 74 177 74h409q104 0 177 -74q74 -73 74 -177v-849h-445v56q-69 -56 -157 -56h-108q-104 0 -177 74q-74 73 -74 177z M475 148q0 -11 8 -18q7 -8 17 -8h21q10 0 17 8q8 7 8 18v454q-1 10 -8 18q-7 7 -17 7h-21q-10 0 -17 -8q-8 -7 -8 -17v-454z" />
<glyph unicode="b" d="M30 0v1519h445v-456q58 37 131 37h134q104 0 177 -74q74 -73 74 -177v-599q0 -103 -74 -177q-73 -73 -177 -73h-134q-73 0 -131 36v-36h-445zM475 147q0 -25 25 -25h21q25 0 25 25v805q0 25 -25 25h-21q-25 0 -25 -25v-805z" />
<glyph unicode="c" d="M30 250v599q0 104 74 177q73 74 177 74h459q104 0 177 -74q74 -73 74 -177v-264h-445v367q0 25 -25 25h-21q-25 0 -25 -25v-805q0 -25 25 -25h21q25 0 25 25v368h445v-265q0 -103 -74 -177q-73 -73 -177 -73h-459q-104 0 -177 73q-74 74 -74 177z" />
<glyph unicode="d" d="M30 250v599q0 104 73 177q74 74 177 74h134q74 0 132 -37v456h445v-1519h-445v37q-58 -37 -132 -37h-134q-103 0 -177 73q-73 74 -73 177zM475 147q0 -25 25 -25h20q25 0 25 25v805q0 25 -25 25h-20q-25 0 -25 -25v-805z" />
<glyph unicode="e" d="M30 250v599q0 104 74 177q73 74 177 74h459q104 0 177 -74q74 -73 74 -177v-264h-516v-438q0 -25 25 -25h21q25 0 25 25v368h445v-265q0 -103 -74 -177q-73 -73 -177 -73h-459q-104 0 -177 73q-74 74 -74 177zM475 695h71v257q0 25 -25 25h-21q-25 0 -25 -25v-257z" />
<glyph unicode="f" horiz-adv-x="624" d="M30 0v1268q0 103 73 177q74 74 177 74h289q25 0 25 -26v-72q0 -25 -25 -25h-69q-25 0 -25 -25v-350h119v-110h-119v-911h-445z" />
<glyph unicode="g" d="M30 0h446v-271q0 -26 25 -26h20q25 0 25 26v367h1v41q-59 -37 -132 -37h-134q-103 0 -177 74q-74 73 -74 177v498q0 104 74 177q74 74 177 74h134q73 0 132 -38v38h444v-1268q0 -104 -73 -177q-74 -74 -177 -74h-460q-103 0 -177 74q-74 73 -74 177v168zM476 247 q0 -25 25 -25h20q25 0 25 25v705q0 25 -25 25h-20q-25 0 -25 -25v-705z" />
<glyph unicode="h" d="M30 0v1519h445v-456q58 37 132 37h134q103 0 177 -74q73 -73 73 -177v-849h-445v952q0 25 -25 25h-20q-25 0 -25 -25v-336h-1v-616h-445z" />
<glyph unicode="i" horiz-adv-x="505" d="M30 0v1100h445v-1100h-445zM53 1350q0 70 58 120t142 50q83 0 141.5 -50t58.5 -120t-58.5 -120t-141.5 -50q-84 0 -142 50t-58 120z" />
<glyph unicode="j" horiz-adv-x="509" d="M-85 -323q0 25 25 25h69q25 0 25 26v1371h445v-1268q0 -104 -73 -177q-74 -74 -177 -74h-289q-25 0 -25 25v72zM59 1350q0 70 58 120t142 50q83 0 141.5 -50t58.5 -120t-58.5 -120t-141.5 -50q-84 0 -142 50t-58 120z" />
<glyph unicode="k" horiz-adv-x="1101" d="M30 0v1519h445v-785l308 366h163l-239 -280l364 -820h-462l-134 407v-407h-445z" />
<glyph unicode="l" horiz-adv-x="505" d="M30 0v1519h445v-1519h-445z" />
<glyph unicode="m" horiz-adv-x="1537" d="M30 0v1100h445v-38q60 38 131 38h134q116 0 191 -89q76 89 191 89h134q104 0 177 -74q74 -73 74 -177v-849h-446v952q0 25 -25 25h-20q-25 0 -25 -25v-952h-445v952q0 25 -25 25h-21q-25 0 -25 -25v-952h-445z" />
<glyph unicode="n" d="M30 0v1100h444v-38q59 38 132 38h134q104 0 177 -74q74 -73 74 -177v-849h-446v952q0 25 -25 25h-20q-25 0 -25 -25l-1 -952h-444z" />
<glyph unicode="o" d="M30 250v599q0 104 74 177q73 74 177 74h459q104 0 177 -74q74 -74 74 -177v-599q0 -103 -74 -176q-73 -74 -177 -74h-459q-104 0 -177 73q-74 74 -74 177zM475 147q0 -25 25 -25h21q25 0 25 25v805q0 25 -25 25h-21q-25 0 -25 -25v-805z" />
<glyph unicode="p" d="M30 -419v1519h445v-37q58 37 132 37h134q103 0 177 -74q73 -73 73 -177v-599q0 -103 -73 -177q-74 -73 -177 -73h-134q-74 0 -132 37v-456h-445zM476 147q0 -25 25 -25h20q25 0 25 25v805q0 25 -25 25h-20q-25 0 -25 -25v-805z" />
<glyph unicode="q" d="M30 250v599q0 104 73 177q74 74 177 74h134q74 0 132 -37v37h445v-1519h-445v456q-58 -37 -132 -37h-134q-103 0 -177 73q-73 74 -73 177zM475 147q0 -25 25 -25h20q25 0 25 25v805q0 25 -25 25h-20q-25 0 -25 -25v-805z" />
<glyph unicode="r" d="M30 0v1100h445v-38q60 38 131 38h134q104 0 177 -74q74 -73 74 -177v-264h-445v367q0 25 -25 25h-21q-25 0 -25 -25v-952h-445z" />
<glyph unicode="s" horiz-adv-x="993" d="M30 181v179h422v-247q0 -25 25 -25h20q25 0 25 25v247q0 7 -18 18l-292 109q-182 68 -182 181v250q0 75 53 129q54 53 129 53h569q110 -1 152 -88q30 -60 30 -182v-90h-422v246q0 25 -25 25h-21q-24 -1 -24 -25v-246q0 -8 18 -18l292 -109q182 -68 182 -182v-250 q0 -75 -53 -128q-54 -53 -129 -53h-569q-75 0 -129 53q-53 53 -53 128z" />
<glyph unicode="t" horiz-adv-x="865" d="M30 989v111h181v419h445v-419h179v-111h-179v-989h-445v989h-181z" />
<glyph unicode="u" d="M30 250v850h445v-953q0 -25 25 -25h20q26 0 26 25v953h445v-1100h-445v37q-58 -37 -132 -37h-134q-103 0 -177 73q-73 74 -73 177z" />
<glyph unicode="v" horiz-adv-x="1010" d="M30 460v640h445v-953q0 -25 25 -25h10q35 0 35 25v953h445v-640q0 -103 -73 -187q-74 -83 -177 -173q-113 -100 -235 -100q-112 0 -225 100q-103 90 -177 173q-73 84 -73 187z" />
<glyph unicode="w" horiz-adv-x="1537" d="M30 251v849h445v-952q0 -11 8 -18q7 -8 17 -8h21q10 0 17 8q8 7 8 18v952h445v-952q0 -11 8 -18q7 -8 17 -8h21q10 0 17 8q8 7 8 18v952h445v-849q0 -104 -74 -177q-73 -74 -177 -74h-134q-115 0 -191 89q-70 -83 -162 -83q-93 0 -163 83q-76 -89 -191 -89h-134 q-104 0 -177 74q-74 73 -74 177z" />
<glyph unicode="x" d="M30 0v338q0 81 48 147q47 65 123 90q-76 26 -123 90q-48 66 -48 147v288h445v-376q0 -40 25 -40h21q25 0 25 40v376h445v-288q0 -81 -48 -147q-47 -64 -123 -90q76 -25 123 -90q48 -66 48 -147v-338h-445v426q0 40 -25 40h-21q-25 0 -25 -40v-426h-445z" />
<glyph unicode="y" horiz-adv-x="1020" d="M30 0h445v-271q0 -26 25 -26h20q25 0 25 26v367h1v41q-58 -37 -132 -37h-134q-103 0 -177 73q-73 74 -73 178v749h445v-853q0 -25 25 -25h20q25 0 25 25v237h1v616h444v-1268q0 -104 -73 -177q-74 -74 -177 -74h-460q-103 0 -177 74q-73 73 -73 177v168z" />
<glyph unicode="z" horiz-adv-x="911" d="M30 0l371 962h-364v138h844l-342 -963h338v-137h-847z" />
<glyph unicode="{" horiz-adv-x="760" d="M30 468v165q153 4 195 143q21 69 23 304q2 211 49 302q72 137 275 137h158v-109h-57q-114 0 -143 -110q-12 -44 -12 -147q0 -48 3 -109q2 -54 2 -100q0 -121 -15 -188q-35 -150 -155 -206q126 -51 159 -199q13 -58 13 -159q0 -58 -4 -130q-4 -79 -4 -137q0 -84 9 -123 q29 -113 147 -113h57v-108h-158q-204 0 -276 137q-47 91 -49 303q-1 236 -22 305q-42 139 -195 142z" />
<glyph unicode="|" horiz-adv-x="455" d="M130 -420v1939h195v-1939h-195z" />
<glyph unicode="}" horiz-adv-x="760" d="M30 -311h57q118 0 147 113q9 39 9 123q0 58 -4 137q-4 72 -4 130q0 101 13 159q33 148 159 199q-120 56 -155 206q-15 67 -15 188q0 46 2 100q3 61 3 109q0 103 -12 147q-29 110 -143 110h-57v109h158q203 0 275 -137q47 -91 49 -302q2 -235 23 -304q42 -139 195 -143 v-165q-153 -3 -195 -142q-21 -69 -22 -305q-2 -212 -49 -303q-72 -137 -276 -137h-158v108z" />
<glyph unicode="~" horiz-adv-x="812" d="M30 632v237q77 108 182 109h2q63 0 189 -52q130 -52 193 -52q106 0 186 106v-244q-84 -96 -189 -97q-63 0 -189 47q-125 45 -187 45q-105 -2 -187 -99z" />
<glyph unicode="&#xa1;" horiz-adv-x="505" d="M30 -419l100 1050h245l100 -1050h-445zM30 910q0 79 65 134.5t157 55.5q93 0 158 -55.5t65 -134.5q0 -78 -65 -133.5t-158 -55.5q-92 0 -157 55.5t-65 133.5z" />
<glyph unicode="&#xa2;" d="M30 250v599q0 104 74 177q73 74 177 74h304l41 194h97l-41 -194h58q104 0 177 -74q74 -73 74 -177v-264h-445v367q0 25 -25 25h-21q-25 0 -25 -25v-805q0 -25 25 -25h21q25 0 25 25v368h445v-265q0 -103 -74 -177q-73 -73 -177 -73h-288l-47 -225h-97l47 225h-74 q-104 0 -177 73q-74 74 -74 177z" />
<glyph unicode="&#xa3;" horiz-adv-x="984" d="M30 704v70h94v494q0 103 74 177q73 74 177 74h309q125 0 177 -24q74 -33 74 -127v-27l-270 -100v130q0 25 -25 25h-20q-26 0 -26 -25v-597h196v-70h-196v-557q0 -25 26 -25h334v-122h-579q-104 0 -177 73q-74 74 -74 177v454h-94z" />
<glyph unicode="&#xa4;" horiz-adv-x="1093" d="M30 316l159 158q-43 61 -65 138q-16 56 -16 113q0 59 17 117q22 74 64 133l-159 158l107 109l159 -159q59 41 133 62q59 19 120 19q55 0 111 -16q77 -23 137 -65l159 159l107 -109l-157 -157q41 -62 64 -137q16 -56 16 -114q0 -57 -16 -114q-23 -76 -64 -137l157 -158 l-107 -108l-159 158q-60 -43 -136 -64q-56 -16 -114 -16q-56 0 -114 16q-77 21 -137 64l-159 -158zM324 724q0 -28 9 -56q16 -59 57 -100q41 -40 99 -57q29 -8 58 -8t58 8q58 17 99 57q40 41 57 99q9 29 9 58t-9 58q-17 58 -57 99q-41 40 -100 57q-29 8 -58 8t-58 -9 q-58 -17 -98 -56q-39 -40 -56 -98q-10 -30 -10 -60z" />
<glyph unicode="&#xa5;" horiz-adv-x="1006" d="M30 1519h378l95 -502l95 502h378l-245 -770h206v-90h-234v-140h234v-90h-234v-429h-399v429h-235v90h235v140h-235v90h207z" />
<glyph unicode="&#xa6;" horiz-adv-x="455" d="M130 345h195v-765h-195v765zM130 754v765h195v-765h-195z" />
<glyph unicode="&#xa7;" horiz-adv-x="1024" d="M30 644q0 96 60 174t165 109q-71 68 -100 125.5t-29 122.5q0 128 100 222t265 94q187 0 292 -89t126 -258l-247 -19q-21 122 -63.5 155t-97.5 33q-56 0 -97.5 -34.5t-41.5 -94.5q0 -52 36 -96q56 -68 229.5 -192t228.5 -169q71 -60 104.5 -124t33.5 -139q0 -113 -73 -193 q-42 -46 -154 -93q80 -61 119.5 -131t39.5 -150q0 -88 -50 -166.5t-144 -120t-203 -41.5q-191 0 -303 95.5t-134 265.5l251 26q28 -130 98 -167q35 -19 73 -19t79 18q82 37 82 107q0 51 -36 94q-62 75 -240 205.5t-236.5 182t-95.5 121.5t-37 146zM243 664q0 -63 46 -120 t168.5 -144t179.5 -116q74 38 113 91q28 39 28 90q0 17 -3 35q-13 73 -228 220l-164 98q-51 -26 -95.5 -62t-44.5 -92z" />
<glyph unicode="&#xa8;" horiz-adv-x="817" d="M30 1328q0 60 50 102.5t120 42.5q71 0 121 -42.5t50 -102.5t-50 -102.5t-121 -42.5q-70 0 -120 42.5t-50 102.5zM446 1328q0 61 50 103t120 42q71 0 121 -42t50 -103q0 -60 -50 -102.5t-121 -42.5q-70 0 -120 42.5t-50 102.5z" />
<glyph unicode="&#xa9;" horiz-adv-x="1600" d="M30 761q0 314 225.5 536t544.5 222t544.5 -222t225.5 -536q0 -315 -225.5 -537t-544.5 -222t-544.5 222t-225.5 537zM101 761q0 -286 204.5 -487.5t494.5 -201.5q289 0 494 201.5t205 487.5q0 285 -205 486.5t-494 201.5q-290 0 -494.5 -201.5t-204.5 -486.5zM487 425 v666q0 67 48 116q46 48 113 48h325q66 0 113 -48q47 -49 47 -116v-310h-300v377q0 17 -16 17h-14q-16 0 -16 -17v-801q0 -16 16 -16h14q16 0 16 16v378h300v-310q0 -68 -47 -116t-113 -48h-325q-67 0 -113 48q-48 48 -48 116z" />
<glyph unicode="&#xaa;" horiz-adv-x="1081" d="M30 698v240q0 100 78 171t188 71h116q93 0 166 -53v249q0 10 -8 18q-8 7 -19 7h-21q-11 0 -19 -7q-8 -8 -8 -18v-112h-420v13q0 100 78 171q79 71 189 71h435q110 0 188 -71t78 -171v-821h-473v54q-73 -54 -166 -54h-116q-110 0 -188 71t-78 171zM503 599q0 -10 8 -17 q8 -8 19 -8h21q11 0 19 7q8 8 8 18v439q0 10 -8 17t-19 7h-21q-11 0 -19 -8q-8 -7 -8 -17v-438z" />
<glyph unicode="&#xab;" horiz-adv-x="1009" d="M30 633l349 466h208l-363 -474l365 -472v-1h-197zM420 632l349 467h208l-363 -474l365 -472v-2h-197z" />
<glyph unicode="&#xac;" horiz-adv-x="1014" d="M87 667v200h840v-591l-1 -1h-198v392h-641z" />
<glyph unicode="&#xad;" horiz-adv-x="931" d="M30 395v329h871v-329h-871z" />
<glyph unicode="&#xae;" horiz-adv-x="1600" d="M30 761q0 314 225.5 536t544.5 222t544.5 -222t225.5 -536q0 -315 -225.5 -537t-544.5 -222t-544.5 222t-225.5 537zM101 761q0 -286 204.5 -487.5t494.5 -201.5q289 0 494 201.5t205 487.5q0 285 -205 486.5t-494 201.5q-290 0 -494.5 -201.5t-204.5 -486.5zM482 272 v985h492q68 0 116 -48q47 -48 47 -115v-159q0 -50 -28 -92q-29 -41 -74 -59q45 -18 74 -59q28 -41 28 -92v-207q0 -105 16 -154h-304q-17 53 -17 164v289q0 11 -11 15h-35v-468h-304zM786 808h30q16 0 16 16v369q0 17 -16 17h-30v-402z" />
<glyph unicode="&#xaf;" horiz-adv-x="1160" d="M30 1036v329h871v-329h-871z" />
<glyph unicode="&#xb0;" horiz-adv-x="479" d="M30 1308q0 87 61 148q62 62 148 62q87 0 148 -62q62 -61 62 -148q0 -86 -62 -148q-61 -61 -148 -61q-86 0 -148 61q-61 62 -61 148zM173 1308q0 -25 19 -42q20 -18 47 -18q28 0 47 18q20 17 20 42t-20 43q-19 17 -47 17q-27 0 -47 -17q-19 -18 -19 -43z" />
<glyph unicode="&#xb1;" horiz-adv-x="867" d="M30 148v242h807v-242h-807zM30 772v242h283v283h242v-283h282v-242h-282v-282h-242v282h-283z" />
<glyph unicode="&#xb2;" horiz-adv-x="773" d="M30 456v206q0 63 190 261q189 198 189 247v245q0 18 -18 18h-14q-17 0 -17 -18v-245h-330v87q0 119 29 177q40 84 147 85h357q72 0 124 -52q51 -52 51 -124q0 -21 3 -72q1 -30 1 -51v-18q-4 -76 -41 -130q-97 -137 -312 -385h349v-231h-708z" />
<glyph unicode="&#xb3;" horiz-adv-x="765" d="M30 631v234h329v-271q0 -18 18 -18h11q18 0 18 18v369q0 17 -18 17h-54v84h54q18 0 18 18v333q0 18 -18 18h-11q-18 0 -18 -18v-242h-329v170q0 72 52 124q51 52 124 52h354q72 0 124 -52q51 -52 51 -124v-121q0 -201 -217 -201q217 0 217 -199v-191q0 -72 -51 -124 q-52 -51 -124 -51h-354q-73 0 -124 51q-52 52 -52 124z" />
<glyph unicode="&#xb4;" horiz-adv-x="715" d="M210 1224l131 296h344l-256 -296h-219z" />
<glyph unicode="&#xb5;" horiz-adv-x="1248" d="M30 -417v1516h412v-502q6 -182 72 -310q42 -127 130 -127q55 0 120 127q35 121 40 308v504h414v-1168h-414v293q-74 -187 -160 -187q-115 0 -202 217v-671h-412z" />
<glyph unicode="&#xb6;" horiz-adv-x="943" d="M30 1147q0 166 113.5 267.5t301.5 101.5h468v-74h-134v-1442h-87v1442h-175v-1442h-89v780q-184 8 -291 108t-107 259z" />
<glyph unicode="&#xb7;" horiz-adv-x="439" d="M30 773q0 67 55.5 114t134.5 47q78 0 133.5 -47t55.5 -114t-55.5 -114t-133.5 -47q-79 0 -134.5 47t-55.5 114z" />
<glyph unicode="&#xb8;" horiz-adv-x="473" d="M30 -453l12 127q33 -3 50 -3q18 0 41 3q59 15 59 82q0 47 -45 63q-20 8 -60 9l56 172h160l-30 -96q57 -9 109 -46q56 -47 56 -104v-9q-14 -146 -156 -191q-61 -19 -132 -19q-56 0 -120 12z" />
<glyph unicode="&#xb9;" horiz-adv-x="525" d="M30 1226l92 293h373v-1063h-312v770h-153z" />
<glyph unicode="&#xba;" horiz-adv-x="965" d="M30 698v578q0 101 70 171q68 72 166 72h433q98 0 166 -72q70 -71 70 -171v-578q0 -100 -70 -170q-68 -72 -166 -72h-433q-98 0 -166 71q-70 71 -70 171zM449 598q0 -24 24 -24h19q24 0 24 24v778q0 24 -24 24h-19q-24 0 -24 -24v-778z" />
<glyph unicode="&#xbb;" horiz-adv-x="1009" d="M30 151v2l365 472l-363 474h208l349 -467l-362 -481h-197zM420 152v1l365 472l-363 474h208l349 -466l-362 -481h-197z" />
<glyph unicode="&#xbc;" horiz-adv-x="1495" d="M30 1225l92 294h373v-1064h-312v770h-153zM348 -57l701 1648h127l-701 -1648h-127zM801 144v213l283 707h312v-707h69v-213h-69v-144h-312v144h-283zM892 367h191v466z" />
<glyph unicode="&#xbd;" horiz-adv-x="1609" d="M30 1225l92 294h373v-1064h-312v770h-153zM315 -57l701 1648h127l-701 -1648h-127zM867 0v206q0 64 189 262t189 247v245q0 17 -17 17h-14q-18 0 -18 -17v-245h-329v87q0 118 28 177q41 83 147 84h357q72 0 124 -51q51 -52 51 -124q0 -21 3 -73q2 -44 2 -69 q-4 -76 -41 -129q-97 -137 -312 -386h348v-231h-707z" />
<glyph unicode="&#xbe;" horiz-adv-x="1710" d="M30 631v234h329v-271q0 -18 18 -18h11q18 0 18 18v368q0 18 -18 18h-54v84h54q18 0 18 18v333q0 18 -18 18h-11q-18 0 -18 -18v-242h-329v170q0 72 52 124q51 52 124 52h354q72 0 124 -52q51 -52 51 -124v-121q0 -201 -217 -201q217 0 217 -199v-191q0 -72 -51 -124 q-52 -51 -124 -51h-354q-73 0 -124 51q-52 52 -52 124zM561 -57l701 1648h127l-701 -1648h-127zM1017 144v213l283 707h311v-707h69v-213h-69v-144h-311v144h-283zM1107 367h191v466z" />
<glyph unicode="&#xbf;" horiz-adv-x="1071" d="M30 -168v345q0 74 25 118q16 26 71 79q14 13 59 51q60 50 82 69q104 90 104 109v59h444v-157q0 -98 -24 -142q-18 -34 -101 -109q-190 -173 -190 -175v-350q0 -25 25 -25h21q25 0 25 25v350h470v-124q0 -169 -41 -253q-58 -119 -210 -121h-509q-104 0 -178 74 q-73 74 -73 177zM371 752v348h444v-348h-444z" />
<glyph unicode="&#xc0;" horiz-adv-x="1173" d="M30 0l247 1519h619l247 -1519h-445l-46 461h-131l-46 -461h-445zM270 1939h344l131 -296h-219zM534 581h106l-53 531z" />
<glyph unicode="&#xc1;" horiz-adv-x="1173" d="M30 0l247 1519h619l247 -1519h-445l-46 461h-131l-46 -461h-445zM428 1643l131 296h344l-256 -296h-219zM534 581h106l-53 531z" />
<glyph unicode="&#xc2;" horiz-adv-x="1173" d="M30 0l247 1519h619l247 -1519h-445l-46 461h-131l-46 -461h-445zM252 1641l229 296h203l238 -296h-241l-91 104l-95 -104h-243zM534 581h106l-53 531z" />
<glyph unicode="&#xc3;" horiz-adv-x="1173" d="M30 0l247 1519h619l247 -1519h-445l-46 461h-131l-46 -461h-445zM209 1576v7q0 276 229 276q10 0 203 -52q34 -9 56 -9q13 0 22 3q25 9 25 46q0 8 -1 16h222q-3 -135 -38 -195q-50 -88 -184 -88q0 1 -171 60q-31 11 -53 11q-12 0 -22 -4q-32 -13 -38 -71h-250zM534 581 h106l-53 531z" />
<glyph unicode="&#xc4;" horiz-adv-x="1173" d="M30 0l247 1519h619l247 -1519h-445l-46 461h-131l-46 -461h-445zM206 1747q0 60 50 102.5t120 42.5q71 0 121 -42.5t50 -102.5t-50 -102.5t-121 -42.5q-70 0 -120 42.5t-50 102.5zM534 581h106l-53 531zM622 1747q0 61 50 103t120 42q71 0 121 -42t50 -103 q0 -60 -50 -102.5t-121 -42.5q-70 0 -120 42.5t-50 102.5z" />
<glyph unicode="&#xc5;" horiz-adv-x="1173" d="M30 0h445l46 461h131l46 -461h445l-247 1519h-619zM377 1727q0 87 61 148q62 62 148 62q87 0 148 -62q62 -61 62 -148q0 -86 -62 -148q-61 -61 -148 -61q-86 0 -148 61q-61 62 -61 148zM520 1727q0 -25 19 -42q20 -18 47 -18q28 0 47 18q20 17 20 42t-20 43 q-19 17 -47 17q-27 0 -47 -17q-19 -18 -19 -43zM534 581l53 531l53 -531h-106z" />
<glyph unicode="&#xc6;" horiz-adv-x="1546" d="M30 0l197 1519h1289v-144h-346v-468h346v-113h-346v-658h346v-136h-818l-46 461h-131l-46 -461h-445zM534 581h106l-53 531z" />
<glyph unicode="&#xc7;" horiz-adv-x="1071" d="M30 250v1018q0 103 74 177q73 74 177 74h509q104 0 178 -74q73 -74 73 -177v-474h-470v577q0 25 -25 25h-21q-25 0 -25 -25v-1224q0 -25 25 -25h21q25 0 25 25v577h470v-474q0 -103 -73 -177q-74 -73 -178 -73h-186l-30 -96q57 -9 109 -46q56 -47 56 -104v-9 q-14 -146 -156 -191q-61 -19 -132 -19q-56 0 -120 12l12 127q33 -3 50 -3q18 0 41 3q59 15 59 82q0 47 -45 63q-20 8 -60 9l56 172h-163q-104 0 -177 73q-74 74 -74 177z" />
<glyph unicode="&#xc8;" horiz-adv-x="876" d="M30 0v1519h816v-144h-346v-468h346v-113h-346v-658h346v-136h-816zM121 1939h344l131 -296h-219z" />
<glyph unicode="&#xc9;" horiz-adv-x="876" d="M30 0v1519h816v-144h-346v-468h346v-113h-346v-658h346v-136h-816zM280 1643l131 296h344l-256 -296h-219z" />
<glyph unicode="&#xca;" horiz-adv-x="876" d="M30 0v1519h816v-144h-346v-468h346v-113h-346v-658h346v-136h-816zM103 1641l229 296h203l238 -296h-241l-91 104l-95 -104h-243z" />
<glyph unicode="&#xcb;" horiz-adv-x="876" d="M30 0v1519h816v-144h-346v-468h346v-113h-346v-658h346v-136h-816zM58 1747q0 60 50 102.5t120 42.5q71 0 121 -42.5t50 -102.5t-50 -102.5t-121 -42.5q-70 0 -120 42.5t-50 102.5zM474 1747q0 61 50 103t120 42q71 0 121 -42t50 -103q0 -60 -50 -102.5t-121 -42.5 q-70 0 -120 42.5t-50 102.5z" />
<glyph unicode="&#xcc;" horiz-adv-x="530" d="M-52 1939h344l131 -296h-219zM30 0v1519h470v-1519h-470z" />
<glyph unicode="&#xcd;" horiz-adv-x="530" d="M30 0v1519h470v-1519h-470zM107 1643l131 296h344l-256 -296h-219z" />
<glyph unicode="&#xce;" horiz-adv-x="530" d="M-70 1641l229 296h203l238 -296h-241l-91 104l-95 -104h-243zM30 0v1519h470v-1519h-470z" />
<glyph unicode="&#xcf;" horiz-adv-x="537" d="M-110 1747q0 60 50 102.5t120 42.5q71 0 121 -42.5t50 -102.5t-50 -102.5t-121 -42.5q-70 0 -120 42.5t-50 102.5zM35 0v1519h470v-1519h-470zM306 1747q0 61 50 103t120 42q71 0 121 -42t50 -103q0 -60 -50 -102.5t-121 -42.5q-70 0 -120 42.5t-50 102.5z" />
<glyph unicode="&#xd0;" horiz-adv-x="1127" d="M10 644v231h76v644h760q104 0 178 -74q73 -74 73 -177v-1018q0 -103 -73 -177q-74 -73 -178 -73h-760v644h-76zM556 122h46q25 0 25 25v1224q0 25 -25 25h-46v-521h33v-231h-33v-522z" />
<glyph unicode="&#xd1;" horiz-adv-x="1111" d="M30 0v1519h460l121 -790v790h470v-1519h-460l-121 789v-789h-470zM158 1576v7q0 276 229 276q10 0 203 -52q34 -9 56 -9q13 0 22 3q25 9 25 46q0 8 -1 16h222q-3 -135 -38 -195q-50 -88 -184 -88q0 1 -171 60q-31 11 -53 11q-12 0 -22 -4q-32 -13 -38 -71h-250z" />
<glyph unicode="&#xd2;" horiz-adv-x="1071" d="M30 250v1018q0 103 74 177q73 74 177 74h509q104 0 178 -74q73 -74 73 -177v-1018q0 -103 -73 -177q-74 -73 -178 -73h-509q-104 0 -177 73q-74 74 -74 177zM219 1939h344l131 -296h-219zM500 147q0 -25 25 -25h21q25 0 25 25v1224q0 25 -25 25h-21q-25 0 -25 -25v-1224z " />
<glyph unicode="&#xd3;" horiz-adv-x="1071" d="M30 250v1018q0 103 74 177q73 74 177 74h509q104 0 178 -74q73 -74 73 -177v-1018q0 -103 -73 -177q-74 -73 -178 -73h-509q-104 0 -177 73q-74 74 -74 177zM377 1643l131 296h344l-256 -296h-219zM500 147q0 -25 25 -25h21q25 0 25 25v1224q0 25 -25 25h-21 q-25 0 -25 -25v-1224z" />
<glyph unicode="&#xd4;" horiz-adv-x="1071" d="M30 250v1018q0 103 74 177q73 74 177 74h509q104 0 178 -74q73 -74 73 -177v-1018q0 -103 -73 -177q-74 -73 -178 -73h-509q-104 0 -177 73q-74 74 -74 177zM201 1641l229 296h203l238 -296h-241l-91 104l-95 -104h-243zM500 147q0 -25 25 -25h21q25 0 25 25v1224 q0 25 -25 25h-21q-25 0 -25 -25v-1224z" />
<glyph unicode="&#xd5;" horiz-adv-x="1071" d="M30 250v1018q0 103 74 177q73 74 177 74h509q104 0 178 -74q73 -74 73 -177v-1018q0 -103 -73 -177q-74 -73 -178 -73h-509q-104 0 -177 73q-74 74 -74 177zM158 1576v7q0 276 229 276q10 0 203 -52q34 -9 56 -9q13 0 22 3q25 9 25 46q0 8 -1 16h222q-3 -135 -38 -195 q-50 -88 -184 -88q0 1 -171 60q-31 11 -53 11q-12 0 -22 -4q-32 -13 -38 -71h-250zM500 147q0 -25 25 -25h21q25 0 25 25v1224q0 25 -25 25h-21q-25 0 -25 -25v-1224z" />
<glyph unicode="&#xd6;" horiz-adv-x="1071" d="M30 250v1018q0 103 74 177q73 74 177 74h509q104 0 178 -74q73 -74 73 -177v-1018q0 -103 -73 -177q-74 -73 -178 -73h-509q-104 0 -177 73q-74 74 -74 177zM155 1747q0 60 50 102.5t120 42.5q71 0 121 -42.5t50 -102.5t-50 -102.5t-121 -42.5q-70 0 -120 42.5t-50 102.5 zM500 147q0 -25 25 -25h21q25 0 25 25v1224q0 25 -25 25h-21q-25 0 -25 -25v-1224zM571 1747q0 61 50 103t120 42q71 0 121 -42t50 -103q0 -60 -50 -102.5t-121 -42.5q-70 0 -120 42.5t-50 102.5z" />
<glyph unicode="&#xd7;" horiz-adv-x="937" d="M30 493l237 237l-237 237l202 201l237 -236l236 236l202 -202l-237 -236l237 -236l-202 -202l-236 236l-237 -237z" />
<glyph unicode="&#xd8;" horiz-adv-x="1071" d="M30 250v1018q0 103 74 177q73 74 177 74h358l33 156h142l-33 -156h9q104 0 178 -74q73 -74 73 -177v-1018q0 -103 -73 -177q-74 -73 -178 -73h-327l-40 -192h-142l40 192h-40q-104 0 -177 73q-74 74 -74 177zM500 147q0 -25 25 -25h21q25 0 25 25v1224q0 25 -25 25h-21 q-25 0 -25 -25v-1224z" />
<glyph unicode="&#xd9;" horiz-adv-x="1071" d="M30 250v1269h470v-1372q0 -25 25 -25h21q25 0 25 25v1372h470v-1269q0 -103 -73 -177q-74 -73 -178 -73h-509q-104 0 -177 73q-74 74 -74 177zM219 1939h344l131 -296h-219z" />
<glyph unicode="&#xda;" horiz-adv-x="1071" d="M30 250v1269h470v-1372q0 -25 25 -25h21q25 0 25 25v1372h470v-1269q0 -103 -73 -177q-74 -73 -178 -73h-509q-104 0 -177 73q-74 74 -74 177zM377 1643l131 296h344l-256 -296h-219z" />
<glyph unicode="&#xdb;" horiz-adv-x="1071" d="M30 250v1269h470v-1372q0 -25 25 -25h21q25 0 25 25v1372h470v-1269q0 -103 -73 -177q-74 -73 -178 -73h-509q-104 0 -177 73q-74 74 -74 177zM201 1641l229 296h203l238 -296h-241l-91 104l-95 -104h-243z" />
<glyph unicode="&#xdc;" horiz-adv-x="1071" d="M30 250v1269h470v-1372q0 -25 25 -25h21q25 0 25 25v1372h470v-1269q0 -103 -73 -177q-74 -73 -178 -73h-509q-104 0 -177 73q-74 74 -74 177zM155 1747q0 60 50 102.5t120 42.5q71 0 121 -42.5t50 -102.5t-50 -102.5t-121 -42.5q-70 0 -120 42.5t-50 102.5zM571 1747 q0 61 50 103t120 42q71 0 121 -42t50 -103q0 -60 -50 -102.5t-121 -42.5q-70 0 -120 42.5t-50 102.5z" />
<glyph unicode="&#xdd;" horiz-adv-x="1071" d="M30 798v721h470v-781h71v781h470v-721q0 -104 -74 -177q-73 -74 -177 -74h-19v-547h-471v547h-19q-104 0 -177 74q-74 73 -74 177zM458 1643l131 296h344l-256 -296h-219z" />
<glyph unicode="&#xde;" horiz-adv-x="1071" d="M30 -419v1938h470v-499h290q104 0 178 -74q73 -74 73 -177v-470q0 -104 -73 -178q-74 -73 -178 -73h-290v-467h-470zM500 170h46q25 0 25 25v677q0 25 -25 25h-46v-727z" />
<glyph unicode="&#xdf;" horiz-adv-x="1196" d="M30 0v1519h760q104 0 177 -74q74 -73 74 -177v-173q0 -288 -310 -288q168 0 289 -64q146 -77 146 -219v-273q0 -102 -86 -177q-84 -74 -190 -74h-319v147h125q25 0 25 25v552q0 25 -25 25h-125v622q0 26 -26 26h-45v-1397h-470z" />
<glyph unicode="&#xe0;" d="M30 251v248q0 103 74 177q73 73 177 73h108q88 0 157 -55v258q0 11 -8 18q-7 8 -17 8h-21q-10 0 -17 -8q-8 -7 -8 -18v-116h-395v13q0 104 74 177q73 74 177 74h409q104 0 177 -74q74 -73 74 -177v-849h-445v56q-69 -56 -157 -56h-108q-104 0 -177 74q-74 73 -74 177z M224 1520h344l131 -296h-219zM475 148q0 -11 8 -18q7 -8 17 -8h21q10 0 17 8q8 7 8 18v454q-1 10 -8 18q-7 7 -17 7h-21q-10 0 -17 -8q-8 -7 -8 -17v-454z" />
<glyph unicode="&#xe1;" d="M30 251v248q0 103 74 177q73 73 177 73h108q88 0 157 -55v258q0 11 -8 18q-7 8 -17 8h-21q-10 0 -17 -8q-8 -7 -8 -18v-116h-395v13q0 104 74 177q73 74 177 74h409q104 0 177 -74q74 -73 74 -177v-849h-445v56q-69 -56 -157 -56h-108q-104 0 -177 74q-74 73 -74 177z M382 1224l131 296h344l-256 -296h-219zM475 148q0 -11 8 -18q7 -8 17 -8h21q10 0 17 8q8 7 8 18v454q-1 10 -8 18q-7 7 -17 7h-21q-10 0 -17 -8q-8 -7 -8 -17v-454z" />
<glyph unicode="&#xe2;" d="M30 251v248q0 103 74 177q73 73 177 73h108q88 0 157 -55v258q0 11 -8 18q-7 8 -17 8h-21q-10 0 -17 -8q-8 -7 -8 -18v-116h-395v13q0 104 74 177q73 74 177 74h409q104 0 177 -74q74 -73 74 -177v-849h-445v56q-69 -56 -157 -56h-108q-104 0 -177 74q-74 73 -74 177z M206 1222l229 296h203l238 -296h-241l-91 104l-95 -104h-243zM475 148q0 -11 8 -18q7 -8 17 -8h21q10 0 17 8q8 7 8 18v454q-1 10 -8 18q-7 7 -17 7h-21q-10 0 -17 -8q-8 -7 -8 -17v-454z" />
<glyph unicode="&#xe3;" d="M30 251v248q0 103 74 177q73 73 177 73h108q88 0 157 -55v258q0 11 -8 18q-7 8 -17 8h-21q-10 0 -17 -8q-8 -7 -8 -18v-116h-395v13q0 104 74 177q73 74 177 74h409q104 0 177 -74q74 -73 74 -177v-849h-445v56q-69 -56 -157 -56h-108q-104 0 -177 74q-74 73 -74 177z M163 1157v7q0 276 229 276q10 0 203 -52q34 -9 56 -9q13 0 22 3q25 9 25 46q0 8 -1 16h222q-3 -135 -38 -195q-50 -88 -184 -88q0 1 -171 60q-31 11 -53 11q-12 0 -22 -4q-32 -13 -38 -71h-250zM475 148q0 -11 8 -18q7 -8 17 -8h21q10 0 17 8q8 7 8 18v454q-1 10 -8 18 q-7 7 -17 7h-21q-10 0 -17 -8q-8 -7 -8 -17v-454z" />
<glyph unicode="&#xe4;" d="M30 251v248q0 103 74 177q73 73 177 73h108q88 0 157 -55v258q0 11 -8 18q-7 8 -17 8h-21q-10 0 -17 -8q-8 -7 -8 -18v-116h-395v13q0 104 74 177q73 74 177 74h409q104 0 177 -74q74 -73 74 -177v-849h-445v56q-69 -56 -157 -56h-108q-104 0 -177 74q-74 73 -74 177z M160 1328q0 60 50 102.5t120 42.5q71 0 121 -42.5t50 -102.5t-50 -102.5t-121 -42.5q-70 0 -120 42.5t-50 102.5zM475 148q0 -11 8 -18q7 -8 17 -8h21q10 0 17 8q8 7 8 18v454q-1 10 -8 18q-7 7 -17 7h-21q-10 0 -17 -8q-8 -7 -8 -17v-454zM576 1328q0 61 50 103t120 42 q71 0 121 -42t50 -103q0 -60 -50 -102.5t-121 -42.5q-70 0 -120 42.5t-50 102.5z" />
<glyph unicode="&#xe5;" d="M30 251v248q0 103 74 177q73 73 177 73h108q88 0 157 -55v258q0 11 -8 18q-7 8 -17 8h-21q-10 0 -17 -8q-8 -7 -8 -18v-116h-395v13q0 104 74 177q73 74 177 74h187q-72 7 -126 60q-61 62 -61 148q0 87 61 148q62 62 148 62q87 0 148 -62q62 -61 62 -148q0 -86 -62 -148 q-53 -53 -126 -60h178q104 0 177 -74q74 -73 74 -177v-849h-445v56q-69 -56 -157 -56h-108q-104 0 -177 74q-74 73 -74 177zM474 1308q0 -25 19 -42q20 -18 47 -18q28 0 47 18q20 17 20 42t-20 43q-19 17 -47 17q-27 0 -47 -17q-19 -18 -19 -43zM475 148q0 -11 8 -18 q7 -8 17 -8h21q10 0 17 8q8 7 8 18v454q-1 10 -8 18q-7 7 -17 7h-21q-10 0 -17 -8q-8 -7 -8 -17v-454z" />
<glyph unicode="&#xe6;" horiz-adv-x="1646" d="M30 250v599q0 104 74 177q73 74 177 74h108q90 0 157 -55v55h819q104 0 177 -74q74 -73 74 -177v-264h-516v-438q0 -25 25 -25h21q25 0 25 25v368h445v-265q0 -103 -74 -177q-73 -73 -177 -73h-819v54q-67 -54 -157 -54h-108q-104 0 -177 73q-74 74 -74 177zM475 147 q0 -25 25 -25h21q25 0 25 25v805q0 25 -25 25h-21q-25 0 -25 -25v-805zM1100 655h71v297q0 25 -25 25h-21q-25 0 -25 -25v-297z" />
<glyph unicode="&#xe7;" d="M30 250v599q0 104 74 177q73 74 177 74h459q104 0 177 -74q74 -73 74 -177v-264h-445v367q0 25 -25 25h-21q-25 0 -25 -25v-805q0 -25 25 -25h21q25 0 25 25v368h445v-265q0 -103 -74 -177q-73 -73 -177 -73h-161l-30 -96q57 -9 109 -46q56 -47 56 -104v-9 q-14 -146 -156 -191q-61 -19 -132 -19q-56 0 -120 12l12 127q33 -3 50 -3q18 0 41 3q59 15 59 82q0 47 -45 63q-20 8 -60 9l56 172h-138q-104 0 -177 73q-74 74 -74 177z" />
<glyph unicode="&#xe8;" d="M30 250v599q0 104 74 177q73 74 177 74h459q104 0 177 -74q74 -73 74 -177v-264h-516v-438q0 -25 25 -25h21q25 0 25 25v368h445v-265q0 -103 -74 -177q-73 -73 -177 -73h-459q-104 0 -177 73q-74 74 -74 177zM194 1520h344l131 -296h-219zM475 695h71v257q0 25 -25 25 h-21q-25 0 -25 -25v-257z" />
<glyph unicode="&#xe9;" d="M30 250v599q0 104 74 177q73 74 177 74h459q104 0 177 -74q74 -73 74 -177v-264h-516v-438q0 -25 25 -25h21q25 0 25 25v368h445v-265q0 -103 -74 -177q-73 -73 -177 -73h-459q-104 0 -177 73q-74 74 -74 177zM352 1224l131 296h344l-256 -296h-219zM475 695h71v257 q0 25 -25 25h-21q-25 0 -25 -25v-257z" />
<glyph unicode="&#xea;" d="M30 250v599q0 104 74 177q73 74 177 74h459q104 0 177 -74q74 -73 74 -177v-264h-516v-438q0 -25 25 -25h21q25 0 25 25v368h445v-265q0 -103 -74 -177q-73 -73 -177 -73h-459q-104 0 -177 73q-74 74 -74 177zM176 1222l229 296h203l238 -296h-241l-91 104l-95 -104h-243 zM475 695h71v257q0 25 -25 25h-21q-25 0 -25 -25v-257z" />
<glyph unicode="&#xeb;" d="M30 250v599q0 104 74 177q73 74 177 74h459q104 0 177 -74q74 -73 74 -177v-264h-516v-438q0 -25 25 -25h21q25 0 25 25v368h445v-265q0 -103 -74 -177q-73 -73 -177 -73h-459q-104 0 -177 73q-74 74 -74 177zM130 1328q0 60 50 102.5t120 42.5q71 0 121 -42.5t50 -102.5 t-50 -102.5t-121 -42.5q-70 0 -120 42.5t-50 102.5zM475 695h71v257q0 25 -25 25h-21q-25 0 -25 -25v-257zM546 1328q0 61 50 103t120 42q71 0 121 -42t50 -103q0 -60 -50 -102.5t-121 -42.5q-70 0 -120 42.5t-50 102.5z" />
<glyph unicode="&#xec;" horiz-adv-x="505" d="M-64 1520h344l131 -296h-219zM30 0v1100h445v-1100h-445z" />
<glyph unicode="&#xed;" horiz-adv-x="505" d="M30 0v1100h445v-1100h-445zM94 1224l131 296h344l-256 -296h-219z" />
<glyph unicode="&#xee;" horiz-adv-x="510" d="M-80 1222l229 296h203l238 -296h-241l-91 104l-95 -104h-243zM32 0v1100h445v-1100h-445z" />
<glyph unicode="&#xef;" horiz-adv-x="517" d="M-120 1328q0 60 50 102.5t120 42.5q71 0 121 -42.5t50 -102.5t-50 -102.5t-121 -42.5q-70 0 -120 42.5t-50 102.5zM38 0v1100h445v-1100h-445zM296 1328q0 61 50 103t120 42q71 0 121 -42t50 -103q0 -60 -50 -102.5t-121 -42.5q-70 0 -120 42.5t-50 102.5z" />
<glyph unicode="&#xf0;" d="M30 251v599q0 103 74 177q73 73 177 73h282q-24 95 -139 177l-96 -98l-50 49l87 89q-58 35 -144 80l123 122q91 -2 183 -36l99 100l50 -49l-76 -77q160 -62 266 -142q125 -94 125 -182v-916h-2q-13 -92 -83 -154q-72 -63 -166 -63h-459q-104 0 -177 74q-74 73 -74 177z M475 148q0 -26 25 -26h21q25 0 25 26v805q0 25 -25 25h-21q-25 0 -25 -25v-805z" />
<glyph unicode="&#xf1;" d="M30 0v1100h444v-38q59 38 132 38h134q104 0 177 -74q74 -73 74 -177v-849h-446v952q0 25 -25 25h-20q-25 0 -25 -25l-1 -952h-444zM133 1157v7q0 276 229 276q10 0 203 -52q34 -9 56 -9q13 0 22 3q25 9 25 46q0 8 -1 16h222q-3 -135 -38 -195q-50 -88 -184 -88 q0 1 -171 60q-31 11 -53 11q-12 0 -22 -4q-32 -13 -38 -71h-250z" />
<glyph unicode="&#xf2;" d="M30 250v599q0 104 74 177q73 74 177 74h459q104 0 177 -74q74 -74 74 -177v-599q0 -103 -74 -176q-73 -74 -177 -74h-459q-104 0 -177 73q-74 74 -74 177zM194 1520h344l131 -296h-219zM475 147q0 -25 25 -25h21q25 0 25 25v805q0 25 -25 25h-21q-25 0 -25 -25v-805z" />
<glyph unicode="&#xf3;" d="M30 250v599q0 104 74 177q73 74 177 74h459q104 0 177 -74q74 -74 74 -177v-599q0 -103 -74 -176q-73 -74 -177 -74h-459q-104 0 -177 73q-74 74 -74 177zM352 1224l131 296h344l-256 -296h-219zM475 147q0 -25 25 -25h21q25 0 25 25v805q0 25 -25 25h-21q-25 0 -25 -25 v-805z" />
<glyph unicode="&#xf4;" d="M30 250v599q0 104 74 177q73 74 177 74h459q104 0 177 -74q74 -74 74 -177v-599q0 -103 -74 -176q-73 -74 -177 -74h-459q-104 0 -177 73q-74 74 -74 177zM176 1222l229 296h203l238 -296h-241l-91 104l-95 -104h-243zM475 147q0 -25 25 -25h21q25 0 25 25v805 q0 25 -25 25h-21q-25 0 -25 -25v-805z" />
<glyph unicode="&#xf5;" d="M30 250v599q0 104 74 177q73 74 177 74h459q104 0 177 -74q74 -74 74 -177v-599q0 -103 -74 -176q-73 -74 -177 -74h-459q-104 0 -177 73q-74 74 -74 177zM133 1157v7q0 276 229 276q10 0 203 -52q34 -9 56 -9q13 0 22 3q25 9 25 46q0 8 -1 16h222q-3 -135 -38 -195 q-50 -88 -184 -88q0 1 -171 60q-31 11 -53 11q-12 0 -22 -4q-32 -13 -38 -71h-250zM475 147q0 -25 25 -25h21q25 0 25 25v805q0 25 -25 25h-21q-25 0 -25 -25v-805z" />
<glyph unicode="&#xf6;" d="M30 250v599q0 104 74 177q73 74 177 74h459q104 0 177 -74q74 -74 74 -177v-599q0 -103 -74 -176q-73 -74 -177 -74h-459q-104 0 -177 73q-74 74 -74 177zM130 1328q0 60 50 102.5t120 42.5q71 0 121 -42.5t50 -102.5t-50 -102.5t-121 -42.5q-70 0 -120 42.5t-50 102.5z M475 147q0 -25 25 -25h21q25 0 25 25v805q0 25 -25 25h-21q-25 0 -25 -25v-805zM546 1328q0 61 50 103t120 42q71 0 121 -42t50 -103q0 -60 -50 -102.5t-121 -42.5q-70 0 -120 42.5t-50 102.5z" />
<glyph unicode="&#xf7;" horiz-adv-x="823" d="M30 450v196h763v-196h-763zM221 226q0 67 55.5 114.5t134.5 47.5t135 -47.5t56 -114.5t-56 -114.5t-135 -47.5t-134.5 47.5t-55.5 114.5zM221 870q0 67 55.5 114.5t134.5 47.5t135 -47.5t56 -114.5t-56 -114.5t-135 -47.5t-134.5 47.5t-55.5 114.5z" />
<glyph unicode="&#xf8;" d="M30 250v599q0 104 74 177q73 74 177 74h293l41 198h97l-41 -198h69q104 0 177 -74q74 -74 74 -177v-599q0 -103 -74 -176q-73 -74 -177 -74h-300l-46 -221h-97l46 221h-62q-104 0 -177 73q-74 74 -74 177zM475 147q0 -25 25 -25h21q25 0 25 25v805q0 25 -25 25h-21 q-25 0 -25 -25v-805z" />
<glyph unicode="&#xf9;" d="M30 250v850h445v-953q0 -25 25 -25h20q26 0 26 25v953h445v-1100h-445v37q-58 -37 -132 -37h-134q-103 0 -177 73q-73 74 -73 177zM194 1520h344l131 -296h-219z" />
<glyph unicode="&#xfa;" d="M30 250v850h445v-953q0 -25 25 -25h20q26 0 26 25v953h445v-1100h-445v37q-58 -37 -132 -37h-134q-103 0 -177 73q-73 74 -73 177zM352 1224l131 296h344l-256 -296h-219z" />
<glyph unicode="&#xfb;" d="M30 250v850h445v-953q0 -25 25 -25h20q26 0 26 25v953h445v-1100h-445v37q-58 -37 -132 -37h-134q-103 0 -177 73q-73 74 -73 177zM176 1222l229 296h203l238 -296h-241l-91 104l-95 -104h-243z" />
<glyph unicode="&#xfc;" d="M30 250v850h445v-953q0 -25 25 -25h20q26 0 26 25v953h445v-1100h-445v37q-58 -37 -132 -37h-134q-103 0 -177 73q-73 74 -73 177zM130 1328q0 60 50 102.5t120 42.5q71 0 121 -42.5t50 -102.5t-50 -102.5t-121 -42.5q-70 0 -120 42.5t-50 102.5zM546 1328q0 61 50 103 t120 42q71 0 121 -42t50 -103q0 -60 -50 -102.5t-121 -42.5q-70 0 -120 42.5t-50 102.5z" />
<glyph unicode="&#xfd;" horiz-adv-x="1020" d="M30 0h445v-271q0 -26 25 -26h20q25 0 25 26v367h1v41q-58 -37 -132 -37h-134q-103 0 -177 73q-73 74 -73 178v749h445v-853q0 -25 25 -25h20q25 0 25 25v237h1v616h444v-1268q0 -104 -73 -177q-74 -74 -177 -74h-460q-103 0 -177 74q-73 73 -73 177v168zM352 1224 l131 296h344l-256 -296h-219z" />
<glyph unicode="&#xfe;" d="M30 -419v1938h445v-456q58 37 132 37h134q103 0 177 -74q73 -73 73 -177v-599q0 -103 -73 -177q-74 -73 -177 -73h-134q-74 0 -132 37v-456h-445zM476 147q0 -25 25 -25h20q25 0 25 25v805q0 25 -25 25h-20q-25 0 -25 -25v-805z" />
<glyph unicode="&#xff;" horiz-adv-x="1020" d="M30 0h445v-271q0 -26 25 -26h20q25 0 25 26v367h1v41q-58 -37 -132 -37h-134q-103 0 -177 73q-73 74 -73 178v749h445v-853q0 -25 25 -25h20q25 0 25 25v237h1v616h444v-1268q0 -104 -73 -177q-74 -74 -177 -74h-460q-103 0 -177 74q-73 73 -73 177v168zM130 1328 q0 60 50 102.5t120 42.5q71 0 121 -42.5t50 -102.5t-50 -102.5t-121 -42.5q-70 0 -120 42.5t-50 102.5zM546 1328q0 61 50 103t120 42q71 0 121 -42t50 -103q0 -60 -50 -102.5t-121 -42.5q-70 0 -120 42.5t-50 102.5z" />
<glyph unicode="&#x152;" horiz-adv-x="1422" d="M30 250v1018q0 103 74 177q73 74 177 74h1111v-144h-346v-468h346v-113h-346v-658h346v-136h-1111q-104 0 -177 73q-74 74 -74 177zM500 147q0 -25 25 -25h21q25 0 25 25v1224q0 25 -25 25h-21q-25 0 -25 -25v-1224z" />
<glyph unicode="&#x153;" horiz-adv-x="1550" d="M30 250v599q0 104 74 177q73 74 177 74h988q104 0 177 -74q74 -73 74 -177v-264h-516v-438q0 -25 25 -25h21q25 0 25 25v368h445v-265q0 -103 -74 -177q-73 -73 -177 -73h-988q-104 0 -177 73q-74 74 -74 177zM475 147q0 -25 25 -25h21q25 0 25 25v805q0 25 -25 25h-21 q-25 0 -25 -25v-805zM1004 655h71v297q0 25 -25 25h-21q-25 0 -25 -25v-297z" />
<glyph unicode="&#x178;" horiz-adv-x="1071" d="M30 798v721h470v-781h71v781h470v-721q0 -104 -74 -177q-73 -74 -177 -74h-19v-547h-471v547h-19q-104 0 -177 74q-74 73 -74 177zM158 1747q0 60 50 102.5t120 42.5q71 0 121 -42.5t50 -102.5t-50 -102.5t-121 -42.5q-70 0 -120 42.5t-50 102.5zM574 1747q0 61 50 103 t120 42q71 0 121 -42t50 -103q0 -60 -50 -102.5t-121 -42.5q-70 0 -120 42.5t-50 102.5z" />
<glyph unicode="&#x2c6;" horiz-adv-x="730" d="M30 1222l229 296h203l238 -296h-241l-91 104l-95 -104h-243z" />
<glyph unicode="&#x2dc;" horiz-adv-x="819" d="M33 1157v7q0 276 229 276q10 0 203 -52q34 -9 56 -9q13 0 22 3q25 9 25 46q0 8 -1 16h222q-3 -135 -38 -195q-50 -88 -184 -88q0 1 -171 60q-31 11 -53 11q-12 0 -22 -4q-32 -13 -38 -71h-250z" />
<glyph unicode="&#x2000;" horiz-adv-x="969" />
<glyph unicode="&#x2001;" horiz-adv-x="1939" />
<glyph unicode="&#x2002;" horiz-adv-x="969" />
<glyph unicode="&#x2003;" horiz-adv-x="1939" />
<glyph unicode="&#x2004;" horiz-adv-x="646" />
<glyph unicode="&#x2005;" horiz-adv-x="484" />
<glyph unicode="&#x2006;" horiz-adv-x="323" />
<glyph unicode="&#x2007;" horiz-adv-x="323" />
<glyph unicode="&#x2008;" horiz-adv-x="242" />
<glyph unicode="&#x2009;" horiz-adv-x="387" />
<glyph unicode="&#x200a;" horiz-adv-x="107" />
<glyph unicode="&#x2010;" horiz-adv-x="931" d="M30 395v329h871v-329h-871z" />
<glyph unicode="&#x2011;" horiz-adv-x="931" d="M30 395v329h871v-329h-871z" />
<glyph unicode="&#x2012;" horiz-adv-x="931" d="M30 395v329h871v-329h-871z" />
<glyph unicode="&#x2013;" horiz-adv-x="1111" d="M-4 458v145h1119v-145h-1119z" />
<glyph unicode="&#x2014;" horiz-adv-x="2028" d="M0 458v145h2028v-145h-2028z" />
<glyph unicode="&#x2018;" horiz-adv-x="354" d="M30 1316v204h294v-204l-50 -291h-194z" />
<glyph unicode="&#x2019;" horiz-adv-x="354" d="M30 1316v204h294v-204l-50 -291h-194z" />
<glyph unicode="&#x201a;" horiz-adv-x="354" d="M30 44v204h294v-204l-50 -291h-194z" />
<glyph unicode="&#x201c;" horiz-adv-x="766" d="M30 1316v204h294v-204l-50 -291h-194zM442 1316v204h294v-204l-50 -291h-194z" />
<glyph unicode="&#x201d;" horiz-adv-x="766" d="M30 1316v204h294v-204l-50 -291h-194zM442 1316v204h294v-204l-50 -291h-194z" />
<glyph unicode="&#x201e;" horiz-adv-x="766" d="M30 44v204h294v-204l-50 -291h-194zM442 44v204h294v-204l-50 -291h-194z" />
<glyph unicode="&#x2022;" horiz-adv-x="857" d="M30 702q0 165 116.5 281.5t282.5 116.5q165 0 281.5 -116.5t116.5 -281.5t-116.5 -282t-281.5 -117q-166 0 -282.5 117t-116.5 282z" />
<glyph unicode="&#x2026;" horiz-adv-x="1871" d="M30 190q0 78 65 133.5t158 55.5q92 0 157 -55.5t65 -133.5q0 -79 -65 -134.5t-157 -55.5q-93 0 -158 55.5t-65 134.5zM713 190q0 78 65 133.5t158 55.5q92 0 157 -55.5t65 -133.5q0 -79 -65 -134.5t-157 -55.5q-93 0 -158 55.5t-65 134.5zM1396 190q0 78 65 133.5 t158 55.5q92 0 157 -55.5t65 -133.5q0 -79 -65 -134.5t-157 -55.5q-93 0 -158 55.5t-65 134.5z" />
<glyph unicode="&#x202f;" horiz-adv-x="387" />
<glyph unicode="&#x2039;" horiz-adv-x="619" d="M30 633l349 466h208l-363 -474l365 -472v-1h-197z" />
<glyph unicode="&#x203a;" horiz-adv-x="619" d="M30 152v1l365 472l-363 474h208l349 -466l-362 -481h-197z" />
<glyph unicode="&#x205f;" horiz-adv-x="484" />
<glyph unicode="&#x20ac;" horiz-adv-x="1155" d="M30 659v70h84v70h-84v71h84v398q0 103 74 177q73 74 177 74h509q104 0 178 -74q73 -74 73 -177v-223h-470v326q0 25 -25 25h-21q-25 0 -25 -25v-501h274v-71h-274v-70h274v-70h-274v-512q0 -25 25 -25h21q25 0 25 25v326h470v-223q0 -103 -73 -177q-74 -73 -178 -73h-509 q-104 0 -177 73q-74 74 -74 177v409h-84z" />
<glyph unicode="&#x2122;" horiz-adv-x="987" d="M31 1459v60h637l39 -352l38 352h211v-608h-211v241l-23 -177h-31l-23 177v-241h-211v548h-107v-548h-212v548h-107z" />
<glyph unicode="&#x25fc;" horiz-adv-x="1100" d="M0 0v1100h1100v-1100h-1100z" />
</font>
</defs>
</svg>
