<?xml version="1.0" standalone="no"?>
<!DOCTYPE svg PUBLIC "-//W3C//DTD SVG 1.1//EN" "http://www.w3.org/Graphics/SVG/1.1/DTD/svg11.dtd" >
<svg xmlns="http://www.w3.org/2000/svg" xmlns:xlink="http://www.w3.org/1999/xlink" version="1.1">
<metadata>
Created by FontForge 20170731 at Mon Apr 29 21:49:44 2013
 By Aleksey,,,
Copyright 2013 Adobe Systems Incorporated. All rights reserved.
</metadata>
<defs>
<font id="Quarca-NorMedIt" horiz-adv-x="487" >
  <font-face 
    font-family="Quarca Norm Medium Italic"
    font-weight="600"
    font-style="italic"
    font-stretch="normal"
    units-per-em="1000"
    panose-1="0 0 0 0 0 0 0 0 0 0"
    ascent="760"
    descent="-240"
    x-height="505"
    cap-height="710"
    bbox="-98 -250 1042.06 964"
    underline-thickness="50"
    underline-position="-200"
    unicode-range="U+0020-FB06"
  />
<missing-glyph horiz-adv-x="490" 
 />
    <glyph glyph-name="ff" unicode="ff" horiz-adv-x="604" 
d="M645 642q-53 0 -65 -58l-17 -79h109l-36 -98h-94l-86 -407h-105l86 407h-186l-86 -407h-103l86 407h-91l36 98h76l11 52q16 74 60 107t133 33h78l-45 -98h-59q-56 0 -67 -57l-8 -37h186l20 95q15 73 60 106.5t134 33.5h78l-45 -98h-60z" />
    <glyph glyph-name="fi" unicode="fi" horiz-adv-x="543" 
d="M437 407h-186l-86 -407h-103l86 407h-91l36 98h76l20 95q15 73 59.5 106.5t133.5 33.5h78l-45 -98h-59q-55 0 -67 -58l-17 -79h290l-107 -505h-104zM473 607l25 121h117l-25 -121h-117z" />
    <glyph glyph-name="fl" unicode="fl" horiz-adv-x="563" 
d="M515 94h18l-13 -99h-55q-119 0 -93 118l62 294h-183l-86 -407h-103l86 407h-91l36 98h76l20 95q15 73 59.5 106.5t133.5 33.5h78l-45 -98h-59q-55 0 -67 -58l-17 -79h183l45 214l92 21h17l-127 -597q-10 -49 33 -49z" />
    <glyph glyph-name="ffi" unicode="ffi" horiz-adv-x="832" 
d="M223 273l-58 -273h-103l29 137h-1l57 270h-90l36 98h75l13 60q14 69 56.5 100.5t127.5 31.5h153q43 53 149 53h212l-45 -98h-186q-53 0 -65 -58l-19 -89h287l-107 -505h-104l86 407h-183l-46 -217h-1l-40 -190h-105l58 273h1l28 134h-188l-28 -134h1zM346 599
q-56 0 -67 -57l-8 -37h188l20 94h-133z" />
    <glyph glyph-name="ffl" unicode="ffl" horiz-adv-x="826" 
d="M223 273l-58 -273h-103l29 137h-1l57 270h-90l36 98h75l13 60q14 69 56.5 100.5t127.5 31.5h153q43 53 149 53h212l-45 -98h-186q-53 0 -65 -58l-19 -89h287l-107 -505h-104l86 407h-183l-46 -217h-1l-40 -190h-105l58 273h1l28 134h-188l-28 -134h1zM346 599
q-56 0 -67 -57l-8 -37h188l20 94h-133z" />
    <glyph glyph-name="f_f_j" unicode="ffj" horiz-adv-x="832" 
d="M223 273l-58 -273h-103l29 137h-1l57 270h-90l36 98h75l13 60q14 69 56.5 100.5t127.5 31.5h153q43 53 149 53h212l-45 -98h-186q-53 0 -65 -58l-19 -89h287l-107 -505h-104l86 407h-183l-46 -217h-1l-40 -190h-105l58 273h1l28 134h-188l-28 -134h1zM346 599
q-56 0 -67 -57l-8 -37h188l20 94h-133z" />
    <glyph glyph-name="f_j" unicode="fj" horiz-adv-x="544" 
d="M437 407h-186l-86 -407h-103l86 407h-91l36 98h76l20 95q15 73 59.5 106.5t133.5 33.5h78l-45 -98h-59q-55 0 -67 -58l-17 -79h290l-36 -170h2l-89 -417q-26 -120 -148 -120h-77l36 98h32q49 0 59 52l12 52h-2zM471 598l25 121h117l-25 -121h-117z" />
    <glyph glyph-name=".notdef" horiz-adv-x="490" 
 />
    <glyph glyph-name=".null" horiz-adv-x="0" 
 />
    <glyph glyph-name="nonmarkingreturn" horiz-adv-x="333" 
 />
    <glyph glyph-name="NULL" horiz-adv-x="816" 
 />
    <glyph glyph-name="NULL" horiz-adv-x="816" 
 />
    <glyph glyph-name="space" unicode=" " horiz-adv-x="183" 
 />
    <glyph glyph-name="exclam" unicode="!" horiz-adv-x="251" 
d="M170 183h-90l100 566l121 21h16zM31 -5l26 121h117l-26 -121h-117z" />
    <glyph glyph-name="quotedbl" unicode="&#x22;" horiz-adv-x="365" 
d="M147 720h138l-95 -226h-55zM318 720h138l-95 -226h-55z" />
    <glyph glyph-name="numbersign" unicode="#" horiz-adv-x="718" 
d="M3 0l114 177h-92l36 98h119l86 134h-134l37 98h162l132 203h101l-132 -203h130l133 203h101l-132 -203h101l-36 -98h-130l-85 -134h143l-36 -98h-172l-114 -177h-101l114 177h-130l-115 -177h-100zM368 409l-86 -134h131l85 134h-130z" />
    <glyph glyph-name="dollar" unicode="$" horiz-adv-x="536" 
d="M258 -76l-95 -24l22 100h-33q-79 0 -109.5 31t-16.5 94l20 93h111l-12 -56q-11 -56 43 -56h131q55 0 66 56l9 43q10 47 -35 69l-151 75q-70 36 -88 61t-5 86l19 88q14 64 49 95t97 31h55l17 76l94 21l-21 -97h24q80 0 111.5 -31t15.5 -95l-18 -83h-111l10 46q7 31 -4 44
t-39 13h-109q-30 0 -46 -13.5t-22 -44.5l-7 -29q-10 -49 34 -70l152 -76q69 -35 84 -52q24 -26 13 -75l-25 -119q-24 -125 -145 -125h-68z" />
    <glyph glyph-name="percent" unicode="%" horiz-adv-x="726" 
d="M131 0l460 710h80l-461 -710h-79zM126 627q17 83 104 83h97q88 0 71 -83l-37 -173q-18 -84 -106 -84h-97q-87 0 -69 84zM295 643h-59q-36 0 -45 -37l-28 -132q-7 -37 29 -37h59q36 0 43 37l28 132q9 37 -27 37zM444 256q18 83 105 83h98q88 0 70 -83l-37 -173
q-18 -84 -106 -84h-98q-87 0 -69 84zM613 272h-59q-36 0 -44 -36l-29 -133q-7 -37 30 -37h59q35 0 42 37l29 133q7 36 -28 36z" />
    <glyph glyph-name="ampersand" unicode="&#x26;" horiz-adv-x="653" 
d="M442 604h-89q-62 0 -76 -65l-16 -75q-6 -26 5 -41.5t34 -15.5h388l-22 -105h-88l-36 -167q-28 -135 -173 -135h-212q-75 0 -102.5 33.5t-13.5 101.5l26 122q7 34 36 64.5t72 33.5q-21 5 -28.5 31t-2.5 50l30 139q14 69 56 102t117 33h121q90 0 123 -30.5t18 -104.5
l-16 -74h-111l8 38q7 34 -4 49.5t-44 15.5zM208 106h155q61 0 75 65l28 131h-179q-99 0 -112 -60l-15 -71q-15 -65 48 -65z" />
    <glyph glyph-name="quotesingle" unicode="'" horiz-adv-x="194" 
d="M147 720h138l-95 -226h-55z" />
    <glyph glyph-name="parenleft" unicode="(" horiz-adv-x="271" 
d="M336 642h-20q-48 0 -60 -58l-122 -573q-13 -57 36 -57h26l-29 -99h-25q-76 0 -105 28.5t-14 97.5l135 634q15 69 56.5 97t119.5 28h31z" />
    <glyph glyph-name="parenright" unicode=")" horiz-adv-x="271" 
d="M157 642h-20l14 98h31q78 0 107.5 -28t14.5 -97l-135 -634q-15 -69 -55.5 -97.5t-116.5 -28.5h-25l14 99h25q25 0 39 13.5t21 43.5l122 573q12 58 -36 58z" />
    <glyph glyph-name="asterisk" unicode="*" horiz-adv-x="363" 
d="M264 721h69l-20 -91l81 48l37 -49l-105 -60l77 -58l-55 -51l-61 47l-20 -93h-69l21 95l-83 -48l-31 49l99 58l-79 60l58 49l61 -47z" />
    <glyph glyph-name="plus" unicode="+" horiz-adv-x="478" 
d="M40 243l38 106h143l31 148h111l-31 -148h159l-38 -106h-144l-32 -152h-111l32 152h-158z" />
    <glyph glyph-name="comma" unicode="," horiz-adv-x="211" 
d="M-1 -142h-17l54 259h116l-24 -114z" />
    <glyph glyph-name="hyphen" unicode="-" horiz-adv-x="429" 
d="M426 341l-37 -98h-333l36 98h334z" />
    <glyph glyph-name="period" unicode="." horiz-adv-x="209" 
d="M8 -5l26 121h117l-26 -121h-117z" />
    <glyph glyph-name="slash" unicode="/" horiz-adv-x="432" 
d="M426 747h113l-452 -784h-113z" />
    <glyph glyph-name="zero" unicode="0" horiz-adv-x="604" 
d="M69 201l78 367q15 72 55.5 107t112.5 35h173q87 0 119.5 -35t17.5 -107l-90 -426q-16 -73 -55.5 -107.5t-111.5 -34.5h-174q-88 0 -121 35t-17 107zM460 604h-131q-63 0 -77 -65l-78 -368q-8 -34 3.5 -49.5t44.5 -15.5h132q61 0 75 65l78 368q8 35 -3 50t-44 15z" />
    <glyph glyph-name="one" unicode="1" horiz-adv-x="285" 
d="M66 0l124 588l-95 -51l24 115l111 58h97l-41 -195h1l-109 -515h-112z" />
    <glyph glyph-name="two" unicode="2" horiz-adv-x="526" 
d="M410 604h-104q-30 -1 -46.5 -16.5t-23.5 -48.5l-8 -38h-112l14 67q15 72 55 107t112 35h141q87 0 120 -35t18 -107l-15 -74h-2l-6 -27q-12 -55 -49 -88.5t-106 -62.5l-187 -77q-52 -22 -64 -75l-12 -58h177q61 0 75 65l10 47h112l-16 -76q-16 -73 -55.5 -107.5
t-111.5 -34.5h-324l39 186q12 57 50.5 91.5t109.5 65.5l187 77q48 19 58 69l11 49h1v1q8 35 -3.5 50t-44.5 15z" />
    <glyph glyph-name="three" unicode="3" horiz-adv-x="555" 
d="M192 106h126q62 0 76 65l4 20h-1l12 54q6 29 -7 44.5t-39 15.5h-158l23 105h133q52 0 65 58l15 71q8 34 -3.5 49.5t-43.5 15.5h-75q-63 0 -77 -65l-8 -38h-111l14 67q15 72 55 107t112 35h125q163 0 133 -135l-17 -81h-1l-12 -56q-15 -69 -67 -80q35 -3 52 -25.5t8 -65.5
l-26 -125q-16 -73 -55.5 -107.5t-111.5 -34.5h-168q-88 0 -121 35t-16 107l14 69h112l-8 -40q-8 -34 3 -49.5t44 -15.5z" />
    <glyph glyph-name="four" unicode="4" horiz-adv-x="553" 
d="M12 116l40 189q13 63 62 107l318 298h135l-355 -337q-41 -39 -51 -83l-14 -68h199l39 187l93 21h24l-44 -208h99l-39 -106h-83l-24 -116h-112l24 116h-311z" />
    <glyph glyph-name="five" unicode="5" horiz-adv-x="521" 
d="M192 106h105q61 0 75 65l23 108q13 67 -45 67h-258l77 364h421l-38 -106h-294l-32 -152h178q138 0 110 -135l-21 -99h1l-16 -76q-16 -73 -55.5 -107.5t-111.5 -34.5h-161q-79 0 -108.5 35t-13.5 107l16 76h111l-10 -47q-8 -34 3.5 -49.5t43.5 -15.5z" />
    <glyph glyph-name="six" unicode="6" horiz-adv-x="569" 
d="M552 307l-37 -174q-28 -133 -164 -133h-179q-146 0 -117 133l94 442q14 69 56 102t117 33h153q83 0 116 -32t18 -103l-16 -74h-112l8 38q8 34 -3.5 49.5t-44.5 15.5h-113q-62 0 -76 -64l-22 -107h213q136 0 109 -126zM389 327h-182l-33 -157q-15 -64 47 -64h115
q61 0 75 64l20 94q13 63 -42 63z" />
    <glyph glyph-name="seven" unicode="7" horiz-adv-x="470" 
d="M114 604l22 106h432l-36 -171q-12 -58 -50 -106l-357 -433h-133l391 471q32 38 43 90l9 43h-321z" />
    <glyph glyph-name="eight" unicode="8" horiz-adv-x="589" 
d="M159 463l13 63h1l9 42q15 72 55.5 107t112.5 35h116q87 0 119.5 -35t17.5 -107l-15 -74h-1l-7 -31q-9 -43 -22 -63.5t-43 -31.5q35 -13 48 -37t2 -76l-8 -37h1l-16 -76q-16 -73 -55.5 -107.5t-110.5 -34.5h-176q-88 0 -121 35t-17 107l24 113q11 52 35 76t66 37
q-26 11 -32 33.5t4 61.5zM407 315h-139q-58 0 -71 -60l-10 -44h1l-8 -40q-8 -34 3.5 -49.5t44.5 -15.5h133q61 0 75 65l18 84q13 60 -47 60zM437 604h-73q-62 0 -76 -65l-8 -38h-1l-5 -23q-7 -31 5 -44.5t43 -13.5h78q31 0 47.5 13.5t23.5 44.5l13 61q8 35 -3 50t-44 15z
" />
    <glyph glyph-name="nine" unicode="9" horiz-adv-x="558" 
d="M389 201l18 85h-212q-123 0 -96 127l29 135h1l4 20q15 72 55.5 107t112.5 35h143q87 0 119.5 -35t17.5 -107l-15 -74h-2l-59 -276h2l-16 -76q-16 -73 -55.5 -107.5t-111.5 -34.5h-144q-88 0 -121 35t-16 107l14 69h112l-8 -40q-8 -34 3 -49.5t44 -15.5h102q61 0 75 65
l6 30h-2zM416 604h-105q-59 -1 -72 -65l-8 -38h-1l-9 -44q-15 -66 43 -66h166l25 120h2l6 28q8 35 -3 50t-44 15z" />
    <glyph glyph-name="colon" unicode=":" horiz-adv-x="214" 
d="M11 -5l26 121h117l-26 -121h-117zM86 361l26 121h117l-26 -121h-117z" />
    <glyph glyph-name="semicolon" unicode=";" horiz-adv-x="219" 
d="M3 -142h-17l54 259h116l-24 -114zM84 330l25 121h117l-25 -121h-117z" />
    <glyph glyph-name="less" unicode="&#x3c;" horiz-adv-x="381" 
d="M300 5l-256 276l11 50l373 276l-23 -108l-259 -193l177 -193z" />
    <glyph glyph-name="equal" unicode="=" horiz-adv-x="462" 
d="M347 267l-32 -88h-177l32 88h177zM376 400l-33 -87h-177l33 87h177z" />
    <glyph glyph-name="greater" unicode="&#x3e;" horiz-adv-x="380" 
d="M385 281l-372 -276l23 108l259 193l-177 193l23 108l255 -276z" />
    <glyph glyph-name="question" unicode="?" horiz-adv-x="493" 
d="M402 313l-48 -21q-29 -11 -42.5 -23.5t-18.5 -36.5l-19 -87h-111l25 118q6 26 16.5 45.5t26.5 32.5t30.5 20.5t36.5 16.5l61 26q29 12 41.5 24.5t16.5 35.5l18 82q6 31 -4 44.5t-39 13.5h-109q-57 0 -68 -57l-13 -61h-111l21 98q27 126 165 126h168q137 0 110 -126
l-28 -131q-13 -61 -39.5 -88t-85.5 -52zM129 -5l26 121h117l-26 -121h-117z" />
    <glyph glyph-name="at" unicode="@" horiz-adv-x="743" 
d="M199 102h419l-35 -102h-405q-153 0 -123 137l91 430q28 136 181 136h340q77 0 107 -33.5t16 -102.5l-60 -284q-22 -102 -133 -102h-50q-49 0 -67 11t-13 35q-21 -43 -75 -43h-41q-65 0 -88 21.5t-9 86.5l17 84q17 76 44 108t92 32h84q56 0 83.5 -20t15.5 -76l-28 -133
q-2 -6 3 -10.5t16 -4.5h20q27 0 34 34l51 242q12 53 -41 53h-340q-52 0 -63 -53l-83 -392q-12 -54 40 -54zM385 272h32q31 0 42 9.5t18 39.5l13 61q5 26 -2.5 36t-31.5 10h-38q-24 0 -35 -12t-17 -38l-11 -52q-7 -27 -1 -40.5t31 -13.5z" />
    <glyph glyph-name="A" unicode="A" horiz-adv-x="568" 
d="M341 710h113l74 -710h-117l-12 130h-249l-65 -130h-116zM364 549l-159 -313h186z" />
    <glyph glyph-name="B" unicode="B" horiz-adv-x="561" 
d="M20 0l150 710h253q92 0 128 -35.5t21 -107.5l-19 -91q-19 -87 -82 -103q98 -3 73 -118l-24 -113q-31 -142 -174 -142h-326zM200 320l-46 -214h178q68 0 83 66l16 76q16 72 -58 72h-173zM260 604l-38 -179h145q62 0 77 65l10 48q7 34 -7.5 50t-52.5 16h-134z" />
    <glyph glyph-name="C" unicode="C" horiz-adv-x="562" 
d="M212 106h128q61 0 75 65l10 47h112l-16 -76q-16 -73 -55.5 -107.5t-111.5 -34.5h-171q-87 0 -120 35t-17 107l14 69h1l76 357q15 73 55 107.5t112 34.5h171q87 0 119 -35t17 -107l-15 -74h-111l9 45q8 35 -3.5 50t-44.5 15h-128q-62 0 -76 -65l-78 -368q-8 -34 3.5 -49.5
t44.5 -15.5z" />
    <glyph glyph-name="D" unicode="D" horiz-adv-x="597" 
d="M148 604l22 106h278q110 0 153 -42t23 -130l-78 -366q-19 -88 -71.5 -130t-146.5 -42h-308l22 106h1l106 498h-1zM427 604h-166l-106 -498h165q52 0 81.5 24.5t40.5 77.5l63 299q10 51 -8.5 74t-69.5 23z" />
    <glyph glyph-name="E" unicode="E" horiz-adv-x="497" 
d="M260 604l-54 -255h253l-39 -105h-237l-29 -138h309l-37 -106h-406l150 710h420l-37 -106h-293z" />
    <glyph glyph-name="F" unicode="F" horiz-adv-x="479" 
d="M260 604l-54 -255h240l-38 -105h-225l-51 -244h-112l150 710h413l-37 -106h-286z" />
    <glyph glyph-name="G" unicode="G" horiz-adv-x="579" 
d="M311 267l39 106h226l-51 -238q-26 -135 -157 -135h-194q-158 0 -129 132l94 443q25 135 152 135h200q81 0 112.5 -32t17.5 -100l-16 -77h-112l8 39q7 34 -3.5 49t-42.5 15h-138q-61 0 -75 -67l-78 -367q-7 -34 4 -49t43 -15h134q63 0 76 62l21 99h-131z" />
    <glyph glyph-name="H" unicode="H" horiz-adv-x="591" 
d="M132 0h-112l150 710h112l-74 -349h256l74 349h111l-150 -710h-111l54 256h-256z" />
    <glyph glyph-name="I" unicode="I" horiz-adv-x="224" 
d="M132 0h-112l150 710h112z" />
    <glyph glyph-name="J" unicode="J" horiz-adv-x="363" 
d="M13 106h108q62 0 76 64l114 540h111l-119 -563q-31 -147 -174 -147h-152z" />
    <glyph glyph-name="K" unicode="K" horiz-adv-x="537" 
d="M132 0h-112l150 710h112l-70 -330l318 330h123l-341 -355l201 -355h-126l-185 330z" />
    <glyph glyph-name="L" unicode="L" horiz-adv-x="460" 
d="M282 710l-128 -604h288l-37 -106h-385l150 710h112z" />
    <glyph glyph-name="M" unicode="M" horiz-adv-x="677" 
d="M125 0h-105l150 710h117l93 -345l241 345h114l-150 -710h-104l105 497l-177 -253h-107l-70 260z" />
    <glyph glyph-name="N" unicode="N" horiz-adv-x="605" 
d="M132 0h-112l150 710h112l151 -454q7 -22 11 -55l108 509h111l-150 -710h-111l-146 433q-10 29 -16 77z" />
    <glyph glyph-name="O" unicode="O" horiz-adv-x="604" 
d="M46 142l14 69h1l76 357q15 73 55 107.5t112 34.5h196q87 0 119.5 -35t17.5 -107l-15 -74h-1l-75 -352q-16 -73 -55.5 -107.5t-110.5 -34.5h-197q-87 0 -120 35t-17 107zM471 604h-153q-62 0 -76 -65l-78 -368q-8 -34 3.5 -49.5t44.5 -15.5h153q61 0 75 65l10 47h1l68 321
q8 35 -3 50t-45 15z" />
    <glyph glyph-name="P" unicode="P" horiz-adv-x="544" 
d="M184 252l-53 -252h-111l150 710h283q175 0 144 -147l-36 -164q-31 -147 -173 -147h-204zM259 604l-53 -247h173q62 0 75 65l25 118q7 34 -4 49t-43 15h-173z" />
    <glyph glyph-name="Q" unicode="Q" horiz-adv-x="604" 
d="M295 -107h-104l23 107h-30q-88 0 -121 35t-17 107l13 59l78 367q15 72 55.5 107t112.5 35h195q87 0 119.5 -35t17.5 -107l-15 -74h-2l-59 -276h2l-16 -76q-16 -73 -55.5 -107.5t-111.5 -34.5h-62zM212 106h24l18 84h104l-18 -84h26q61 0 75 65l6 30h-1l66 310h1l6 28
q8 35 -3 50t-44 15h-153q-63 0 -77 -65l-78 -368q-8 -34 3.5 -49.5t44.5 -15.5z" />
    <glyph glyph-name="R" unicode="R" horiz-adv-x="558" 
d="M20 0l150 710h293q163 0 135 -135l-42 -191q-29 -132 -154 -135l117 -249h-128l-117 249h-90l-52 -249h-112zM260 604l-53 -249h168q63 0 77 67l25 115q14 67 -49 67h-168z" />
    <glyph glyph-name="S" unicode="S" horiz-adv-x="536" 
d="M359 274l-151 75q-70 36 -88 61t-5 86l19 88q14 64 49 95t97 31h169q80 0 111.5 -31t15.5 -95l-18 -83h-111l10 46q7 31 -4 44t-39 13h-109q-30 0 -46 -13.5t-22 -44.5l-7 -29q-10 -49 34 -70l152 -76q69 -35 84 -52q24 -26 13 -75l-25 -119q-24 -125 -145 -125h-191
q-79 0 -109.5 31t-16.5 94l20 93h111l-12 -56q-11 -56 43 -56h131q55 0 66 56l9 43q10 47 -35 69z" />
    <glyph glyph-name="T" unicode="T" horiz-adv-x="478" 
d="M560 604h-173l-128 -604h-112l128 604h-173l22 106h458z" />
    <glyph glyph-name="U" unicode="U" horiz-adv-x="580" 
d="M334 106q65 0 81 70l113 534h112l-121 -572q-30 -138 -163 -138h-175q-165 0 -135 138l122 572h111l-113 -534q-8 -37 4 -53.5t47 -16.5h117z" />
    <glyph glyph-name="V" unicode="V" horiz-adv-x="542" 
d="M292 0h-114l-50 710h119l22 -515q1 -9 -5 -56q13 46 18 56l240 515h120z" />
    <glyph glyph-name="W" unicode="W" horiz-adv-x="860" 
d="M288 0h-116l-43 710h114l15 -507q0 -48 -2 -62q2 5 23 61l212 508h106l-3 -508q0 -42 -3 -63q13 37 23 62l232 509h113l-342 -710h-116l-3 469q0 8 2 21.5t5 30.5t4 24q-15 -62 -21 -76z" />
    <glyph glyph-name="X" unicode="X" horiz-adv-x="503" 
d="M295 399l197 311h121l-230 -356l79 -354h-115l-66 295l-192 -295h-118l230 354l-83 356h109z" />
    <glyph glyph-name="Y" unicode="Y" horiz-adv-x="551" 
d="M296 0h-111l58 273l-127 437h112l79 -283q2 -12 5.5 -28.5t3.5 -25.5q7 21 29 53l198 284h119l-308 -434z" />
    <glyph glyph-name="Z" unicode="Z" horiz-adv-x="492" 
d="M558 613l-414 -507h319l-37 -106h-428l5 97l413 507h-290l6 106h431z" />
    <glyph glyph-name="bracketleft" unicode="[" horiz-adv-x="268" 
d="M131 -28h60l-14 -98h-172l178 837h163l-14 -98h-65z" />
    <glyph glyph-name="backslash" unicode="\" horiz-adv-x="646" 
d="M353 747h113l120 -784h-113z" />
    <glyph glyph-name="bracketright" unicode="]" horiz-adv-x="267" 
d="M189 613h-59l12 98h172l-178 -837h-161l13 98h65z" />
    <glyph glyph-name="asciicircum" unicode="^" horiz-adv-x="516" 
d="M69 390l277 320h49l144 -320h-107l-85 208l-171 -208h-107z" />
    <glyph glyph-name="underscore" unicode="_" horiz-adv-x="630" 
d="M549 0l-37 -98h-523l37 98h523z" />
    <glyph glyph-name="grave" unicode="`" horiz-adv-x="198" 
d="M19 750h108l55 -126h-71z" />
    <glyph glyph-name="a" unicode="a" horiz-adv-x="496" 
d="M515 505l-49 -232h1l-58 -273h-88l3 57q-38 -57 -124 -57h-59q-130 0 -104 126l52 244q30 141 167 141h59q38 0 58 -9.5t30 -31.5l8 35h104zM345 195l37 173q3 48 -51 48h-66q-61 0 -74 -63l-42 -195q-13 -63 47 -63h67q61 0 74 60l9 40h-1z" />
    <glyph glyph-name="b" unicode="b" horiz-adv-x="495" 
d="M225 0q-44 0 -67 10.5t-30 35.5l-9 -46h-104l152 719l92 21h17l-57 -268q43 39 113 39h44q76 0 104 -31t14 -95l-53 -252q-15 -71 -53.5 -102t-109.5 -31h-53zM194 357l-43 -202q-9 -60 50 -60h68q60 0 73 63l41 192q7 36 -4.5 51t-45.5 15h-64q-59 0 -75 -59z" />
    <glyph glyph-name="c" unicode="c" horiz-adv-x="467" 
d="M330 408h-75q-29 0 -44.5 -14t-21.5 -44l-41 -194q-7 -31 3.5 -44.5t38.5 -13.5h74q30 0 44.5 11t20.5 41l6 25h96l-10 -45q-14 -67 -47 -98.5t-92 -31.5h-119q-155 0 -125 134l51 238q15 69 50.5 102t99.5 33h124q73 0 100 -31.5t13 -96.5l-12 -50h-97l5 21
q7 31 -3 44.5t-39 13.5z" />
    <glyph glyph-name="d" unicode="d" horiz-adv-x="496" 
d="M566 740l-157 -740h-88l1 56q-37 -56 -123 -56h-58q-130 0 -104 126l52 244q30 141 166 141h59q38 0 58.5 -9.5t30.5 -32.5l53 250l92 21h18zM263 95q58 0 73 57l44 208q9 56 -49 56h-67q-61 0 -74 -63l-42 -195q-13 -63 47 -63h68z" />
    <glyph glyph-name="e" unicode="e" horiz-adv-x="464" 
d="M188 92h69q53 0 65 51l4 17h97l-6 -24q-16 -80 -52 -108t-121 -28h-59q-95 0 -129.5 29t-17.5 106l53 247q17 79 55 104t124 25h48q103 0 136 -25t16 -104l-14 -59q-14 -68 -46 -95t-117 -27h-136l-11 -51q-6 -29 3.5 -43.5t38.5 -14.5zM333 420h-83q-47 0 -56 -45
l-17 -83h129q25 0 37.5 9.5t17.5 30.5l9 43q5 23 -3 34t-34 11z" />
    <glyph glyph-name="f" unicode="f" horiz-adv-x="296" 
d="M348 642q-53 0 -65 -58l-17 -79h98l-37 -98h-82l-86 -407h-105l86 407h-83l36 98h68l20 95q15 73 60 106.5t134 33.5h78l-45 -98h-60z" />
    <glyph glyph-name="g" unicode="g" horiz-adv-x="489" 
d="M208 96h131q67 0 92 -30.5t12 -93.5l-17 -78q-15 -70 -53.5 -97t-118.5 -27h-132q-97 0 -131.5 26.5t-19.5 97.5l7 34l9 44q18 91 90 114q-4 10 1 32l2 10q6 27 21 38q-47 26 -30 108l23 109q15 70 52.5 98t112.5 28h57q50 0 83 -9l94 76l52 -68l-83 -67q6 -23 -2 -58
l-14 -63l-10 -46q-15 -69 -54.5 -96.5t-119.5 -29.5h-45q-29 -1 -33 -23l-1 -5q-2 -12 3 -17.5t22 -6.5zM152 7q-30 0 -45.5 -15t-22.5 -48l-5 -21q-7 -33 2.5 -48t39.5 -15h140q30 0 45.5 15t22.5 48l5 21q7 33 -2.5 48t-39.5 15h-140zM257 423q-56 0 -69 -65l-13 -59
q-13 -65 42 -65h55q57 0 70 65l13 59q13 65 -43 65h-55z" />
    <glyph glyph-name="h" unicode="h" horiz-adv-x="488" 
d="M197 370l-78 -370h-104l152 719l92 21h17l-57 -267q38 38 106 38h42q145 0 119 -125l-83 -386h-105l75 356q7 34 -3.5 49t-42.5 15h-57q-57 0 -73 -50z" />
    <glyph glyph-name="i" unicode="i" horiz-adv-x="231" 
d="M126 407h-62l21 98h166l-107 -505h-104zM157 596l26 121h117l-26 -121h-117z" />
    <glyph glyph-name="j" unicode="j" horiz-adv-x="231" 
d="M126 407h-62l21 98h166l-125 -587q-26 -120 -149 -120h-75l36 98h30q50 0 60 52zM158 596l26 121h117l-26 -121h-117z" />
    <glyph glyph-name="k" unicode="k" horiz-adv-x="451" 
d="M509 505l-242 -256l136 -249h-114l-123 225l-47 -225h-104l152 719l92 21h17l-98 -461l216 226h115z" />
    <glyph glyph-name="l" unicode="l" horiz-adv-x="227" 
d="M180 94h18l-13 -99h-55q-119 0 -93 118l128 606l92 21h17l-76 -356h1l-51 -241q-10 -49 32 -49z" />
    <glyph glyph-name="m" unicode="m" horiz-adv-x="748" 
d="M16 0l102 484l85 21h16l-9 -41q48 41 124 41h35q82 0 102 -50q50 50 135 50h35q129 0 102 -125l-80 -380h-104l74 350q13 64 -48 64h-44q-49 0 -69 -36l-80 -378h-105l74 350q13 64 -48 64h-43q-54 0 -71 -39l-79 -375h-104z" />
    <glyph glyph-name="n" unicode="n" 
d="M14 0l102 484l86 21h16l-9 -42q41 48 115 48h42q145 0 119 -125l-83 -386h-105l75 356q7 34 -3.5 49t-42.5 15h-57q-28 0 -47.5 -14.5t-24.5 -37.5l-78 -368h-105z" />
    <glyph glyph-name="o" unicode="o" horiz-adv-x="493" 
d="M240 511h125q157 0 125 -135l-52 -244q-28 -132 -156 -132h-126q-146 0 -118 132l51 244q15 69 51 102t100 33zM340 416h-83q-29 0 -44.5 -14t-21.5 -44l-44 -206q-7 -31 3 -44t39 -13h83q28 0 43.5 13.5t22.5 43.5l44 206q6 30 -3.5 44t-38.5 14z" />
    <glyph glyph-name="p" unicode="p" horiz-adv-x="495" 
d="M128 45l-56 -265h-105l149 704l86 21h16l-9 -42q47 48 123 48h43q75 0 103.5 -31t14.5 -95l-53 -252q-15 -71 -53.5 -102t-108.5 -31h-54q-82 0 -96 45zM268 416q-59 0 -74 -59l-43 -205q-9 -57 49 -57h68q60 0 73 63l41 192q7 36 -4 51t-46 15h-64z" />
    <glyph glyph-name="q" unicode="q" horiz-adv-x="495" 
d="M257 -220l55 261q-37 -41 -112 -41h-59q-130 0 -104 126l52 244q30 141 167 141h59q42 0 62 -12t31 -41l10 47h97l-154 -725h-104zM334 143l47 220q6 53 -50 53h-66q-61 0 -74 -63l-42 -195q-13 -63 47 -63h67q54 0 71 48z" />
    <glyph glyph-name="r" unicode="r" horiz-adv-x="329" 
d="M376 425l-123 -34q-28 -8 -42.5 -20.5t-21.5 -36.5l-70 -334h-105l102 484l86 21h16l-13 -61q24 34 64 46l110 31h9z" />
    <glyph glyph-name="s" unicode="s" horiz-adv-x="446" 
d="M313 420h-76q-44 0 -53 -43l-3 -12q-4 -20 5 -28t36 -17l103 -29q63 -16 80.5 -39t4.5 -83l-12 -57q-13 -63 -51 -87.5t-115 -24.5h-92q-85 0 -108 27.5t-8 100.5l6 29h97l-5 -21q-9 -45 35 -45h95q45 0 54 43l3 14q9 41 -37 55l-102 29q-73 19 -87.5 39.5t-0.5 82.5
l8 37q13 66 48 93t119 27h73q86 0 108.5 -28.5t6.5 -103.5l-6 -30h-97l5 26q11 45 -34 45z" />
    <glyph glyph-name="t" unicode="t" horiz-adv-x="310" 
d="M363 505l-28 -98h-93l-53 -251q-13 -58 39 -58h38l-12 -98h-66q-136 0 -108 133l58 274h-74l29 98h66l17 80l108 60h9l-30 -140h100z" />
    <glyph glyph-name="u" unicode="u" 
d="M507 505l-107 -505h-75l-1 44q-48 -44 -122 -44h-53q-137 0 -108 132l79 373h104l-75 -350q-13 -64 49 -64h53q29 0 49 14.5t26 37.5l77 362h104z" />
    <glyph glyph-name="v" unicode="v" horiz-adv-x="460" 
d="M258 0h-127l-45 505h108l23 -388l189 388h111z" />
    <glyph glyph-name="w" unicode="w" horiz-adv-x="725" 
d="M254 0h-129l-37 505h109l15 -388l168 388h107l1 -388l182 388h109l-249 -505h-129l-7 294l-1 25q-3 -14 -9 -25z" />
    <glyph glyph-name="x" unicode="x" horiz-adv-x="439" 
d="M244 299l138 206h115l-174 -254l67 -251h-111l-53 191l-132 -191h-115l171 251l-66 254h111z" />
    <glyph glyph-name="y" unicode="y" horiz-adv-x="465" 
d="M43 -127q27 0 46.5 14.5t39.5 54.5l28 55h-27l-44 508h109l23 -385l193 385h113l-304 -582q-47 -92 -89.5 -120t-117.5 -28h-71l36 98h65z" />
    <glyph glyph-name="z" unicode="z" horiz-adv-x="413" 
d="M436 425l-303 -340h241l-29 -85h-348l6 80l304 340h-215l8 85h342z" />
    <glyph glyph-name="braceleft" unicode="{" horiz-adv-x="307" 
d="M213 -28h19l-14 -98h-31q-96 0 -119 40.5t2 135.5l23 107q11 44 1.5 65t-51.5 21h-16l21 98h27q36 0 52.5 19.5t24.5 60.5l34 161q16 72 54 100.5t121 28.5h26l-13 -98h-25q-34 0 -48 -18.5t-25 -70.5l-33 -153q-13 -64 -78 -80q29 -8 40 -29t2 -63l-31 -146
q-10 -41 -2.5 -61t39.5 -20z" />
    <glyph glyph-name="bar" unicode="|" horiz-adv-x="237" 
d="M80 -250h-103l213 1006l93 21h16z" />
    <glyph glyph-name="braceright" unicode="}" horiz-adv-x="307" 
d="M-9 -28h19q31 0 46 19t25 62l31 146q9 42 28 63t52 29q-57 15 -44 80l33 153q12 50 5.5 69.5t-40.5 19.5h-25l29 98h25q84 0 110 -28.5t10 -100.5l-34 -161q-10 -36 -1.5 -58t43.5 -22h28l-21 -98h-17q-42 0 -59 -19t-27 -67l-23 -107q-11 -52 -22.5 -82t-32.5 -53
t-53 -32t-82 -9h-30z" />
    <glyph glyph-name="asciitilde" unicode="~" horiz-adv-x="389" 
d="M378 331l-18 -85q-36 39 -70 39q-20 0 -67 -28.5t-80 -28.5q-41 0 -78 35l18 85q37 -40 69 -40q20 0 67 29t80 29q42 0 79 -35z" />
    <glyph glyph-name="exclamdown" unicode="&#xa1;" horiz-adv-x="229" 
d="M100 352h104l-119 -563l-93 -21h-16zM105 391l25 121h117l-25 -121h-117z" />
    <glyph glyph-name="cent" unicode="&#xa2;" horiz-adv-x="466" 
d="M396 614l-22 -104q70 -2 95.5 -30.5t10.5 -96.5l-9 -42h-98l3 14q12 58 -41 58h-57q-41 0 -60 -11.5t-26 -46.5l-42 -199q-8 -36 6 -47t55 -11h56q30 0 45.5 13.5t22.5 48.5h98l-8 -35q-14 -67 -51.5 -94.5t-107.5 -30.5l-21 -97h-105l21 97h-19q-130 0 -103 125l55 258
q15 70 55.5 98t119.5 30l18 82l92 21h17z" />
    <glyph glyph-name="sterling" unicode="&#xa3;" horiz-adv-x="563" 
d="M416 388l-36 -98h-128q-27 -61 -108 -184h380l-38 -106h-478l22 106q38 53 63 95q30 50 45 89h-87l37 98h85q6 21 13 55q4 21 2.5 61t2.5 57q18 88 59.5 118.5t130.5 30.5h100q149 -1 121 -135l-15 -67h-111l7 31q13 64 -44 65h-58q-62 0 -75 -60q-1 -6 -1.5 -18.5
t-1.5 -18.5q-5 -65 -17 -118v-1h130z" />
    <glyph glyph-name="currency" unicode="&#xa4;" horiz-adv-x="525" 
d="M383 50l-40 51l-29 -25q-48 -39 -83 -39q-31 0 -52 29l-28 35l-61 -50l-54 69l61 51l-26 34q-23 29 -17 62q7 34 54 75l31 25l-39 52l84 70l39 -52l29 24q49 41 84 41q30 0 54 -30l26 -34l60 50l54 -70l-60 -51l26 -34q23 -30 16 -61q-8 -38 -55 -76l-29 -25l39 -51z
M279 139l125 104q31 25 13 50l-82 107q-18 23 -49 -2l-124 -105q-31 -25 -12 -49l83 -105q18 -25 46 0z" />
    <glyph glyph-name="yen" unicode="&#xa5;" horiz-adv-x="524" 
d="M284 0h-111l26 125h-120l36 98h105l8 38h-120l36 98h72l-84 351h123l58 -307l183 307h124l-230 -351h93l-36 -98h-108l-8 -38h123l-36 -98h-108z" />
    <glyph glyph-name="brokenbar" unicode="&#xa6;" horiz-adv-x="239" 
d="M81 -250h-104l84 398h105zM300 777l-88 -413h-105l83 392l93 21h17z" />
    <glyph glyph-name="section" unicode="&#xa7;" horiz-adv-x="481" 
d="M473 279l-3 -15h1l-11 -50q-13 -59 -37 -90.5t-71 -40.5l-25 -4l12 -7q40 -22 25 -94l-10 -46q-15 -70 -51.5 -98t-117.5 -28h-53q-85 0 -107.5 33.5t-3.5 118.5l8 38h92l-8 -36q-14 -67 43 -67h43q31 0 45.5 15t22.5 50l4 19q5 26 -4.5 38.5t-36.5 21.5l-108 36
q-67 21 -80 50.5t5 114.5l3 14h-1l11 50q12 58 36.5 90t71.5 41l24 4l-12 7q-38 23 -24 95l10 46q15 70 50.5 97.5t117.5 27.5h53q85 0 107.5 -33.5t4.5 -117.5l-8 -38h-92l8 35q14 68 -43 68h-43q-31 0 -45.5 -15t-22.5 -51l-4 -18q-6 -26 4 -38.5t36 -21.5l109 -36
q67 -22 80 -51t-5 -114zM172 171l43 -16h62q41 -1 62.5 14t28.5 52l7 31h-1l7 34q6 25 -2 38t-31 22l-45 15l-61 1q-41 0 -62 -14.5t-29 -52.5l-14 -65q-5 -25 3.5 -38t31.5 -21z" />
    <glyph glyph-name="dieresis" unicode="&#xa8;" horiz-adv-x="816" 
d="M390 750h88l-21 -100h-88zM558 750h88l-21 -100h-88z" />
    <glyph glyph-name="copyright" unicode="&#xa9;" horiz-adv-x="724" 
d="M742 545l-80 -380q-30 -135 -181 -135h-298q-153 0 -123 135l80 380q28 135 181 135h298q151 0 123 -135zM199 106h298q68 0 84 70l77 361q13 67 -55 67h-298q-71 0 -84 -67l-77 -361q-16 -70 55 -70zM449 453h-56q-34 0 -41 -32l-28 -132q-7 -33 27 -33h59
q17 0 25.5 7.5t13.5 29.5h64l-4 -17q-17 -86 -94 -86h-96q-85 0 -68 81l36 167q17 81 102 81h93q79 0 62 -81l-6 -28h-64l2 10q7 33 -27 33z" />
    <glyph glyph-name="ordfeminine" unicode="&#xaa;" horiz-adv-x="299" 
d="M257 429v25q-22 -25 -63 -25h-34q-68 0 -53 66l9 43q13 63 77 63h91l6 28q7 30 -17 30h-44q-26 0 -33 -30l-2 -11h-55l5 23q15 69 79 69h76q68 0 53 -69l-45 -212h-50zM183 480h47q29 0 34 27l9 43h-80q-19 0 -24 -21l-6 -28q-2 -12 2.5 -16.5t17.5 -4.5z" />
    <glyph glyph-name="guillemotleft" unicode="&#xab;" horiz-adv-x="491" 
d="M254 69h-122l-89 183l167 183h122l-167 -183zM435 69h-121l-90 183l168 183h121l-167 -183z" />
    <glyph glyph-name="logicalnot" unicode="&#xac;" horiz-adv-x="567" 
d="M423 189l11 54h-371l22 105h469l-33 -159h-98z" />
    <glyph glyph-name="registered" unicode="&#xae;" horiz-adv-x="724" 
d="M742 545l-80 -380q-30 -135 -181 -135h-298q-153 0 -123 135l80 380q28 135 181 135h298q151 0 123 -135zM199 106h298q68 0 84 70l77 361q13 67 -55 67h-298q-71 0 -84 -67l-77 -361q-16 -70 55 -70zM241 190l70 329h168q71 0 59 -62l-20 -91q-10 -50 -61 -60l52 -116
h-77l-50 113h-49l-24 -113h-68zM366 459l-21 -100h73q29 0 36 28l10 46q5 26 -25 26h-73z" />
    <glyph glyph-name="macron" unicode="&#xaf;" horiz-adv-x="350" 
d="M421 753l-36 -91h-239l35 91h240z" />
    <glyph glyph-name="degree" unicode="&#xb0;" horiz-adv-x="301" 
d="M261 770h31q60 0 76 -17.5t3 -76.5l-12 -57q-13 -60 -34.5 -77t-82.5 -17h-32q-60 0 -75.5 17.5t-2.5 76.5l12 57q13 60 34 77t83 17zM255 583q36 0 42 33l14 63q4 21 -5.5 27t-37.5 6h-20q-35 0 -42 -33l-14 -63q-4 -21 5.5 -27t36.5 -6h21z" />
    <glyph glyph-name="plusminus" unicode="&#xb1;" horiz-adv-x="505" 
d="M70 338l38 106h143l31 148h111l-31 -148h159l-38 -106h-144l-32 -152h-111l32 152h-158zM8 15l38 106h413l-37 -106h-414z" />
    <glyph glyph-name="twosuperior" unicode="&#xb2;" horiz-adv-x="291" 
d="M269 658h-40q-29 0 -36 -28l-1 -7h-54l5 25q14 62 84 62h66q71 0 57 -61l-2 -12q-5 -23 -17.5 -37.5t-36.5 -27.5l-95 -53q-33 -17 -37 -38h74q28 0 35 28l1 7h55l-5 -24q-14 -63 -84 -63h-141l11 52q6 28 24.5 45.5t53.5 35.5l79 42q23 13 26 30q6 24 -22 24z" />
    <glyph glyph-name="threesuperior" unicode="&#xb3;" horiz-adv-x="285" 
d="M229 481q32 0 39 34q3 14 -4.5 21.5t-21.5 7.5h-44l19 52h29q24 0 31 31q6 31 -26 31h-20q-28 0 -35 -28l-1 -7h-56l5 24q14 63 85 63h48q74 0 59 -66l-7 -33q-2 -11 -11 -24.5t-21 -17.5q36 -5 28 -45l-6 -29q-14 -66 -88 -66h-71q-71 0 -57 64l5 23h55l-1 -7
q-6 -28 23 -28h44z" />
    <glyph glyph-name="acute" unicode="&#xb4;" horiz-adv-x="509" 
d="M210 587h-86l111 144h120z" />
    <glyph glyph-name="mu" unicode="&#xb5;" horiz-adv-x="484" 
d="M507 505l-107 -505h-74l-1 44q-49 -44 -122 -44h-53q-23 0 -33 2l-30 -141h-104l82 384h1l55 260h104l-75 -350q-13 -64 49 -64h52q29 0 48.5 14t25.5 36l78 364h104z" />
    <glyph glyph-name="paragraph" unicode="&#xb6;" horiz-adv-x="611" 
d="M357 -169l150 708q8 34 -3 49.5t-44 15.5h-2l-164 -773h-114l100 474h-85q-75 0 -102.5 33t-13.5 102l29 135q14 69 56 102t117 33h229q75 0 103 -33.5t14 -101.5l-158 -744h-112zM246 411h57l41 193h-57q-62 0 -76 -65l-13 -62q-15 -66 48 -66z" />
    <glyph glyph-name="periodcentered" unicode="&#xb7;" horiz-adv-x="214" 
d="M59 234l26 121h117l-26 -121h-117z" />
    <glyph glyph-name="cedilla" unicode="&#xb8;" horiz-adv-x="832" 
d="M309 -80l-23 10q-14 5 -18.5 13t-0.5 25l11 55h66l-7 -35q-3 -12 11 -17l24 -10q26 -11 17 -51l-7 -35q-8 -38 -25 -49.5t-60 -11.5h-36q-46 0 -56.5 12t-1.5 53l3 17h61l-1 -5q-2 -9 1 -12.5t12 -3.5h22q16 0 19 16l2 10q4 14 -13 19z" />
    <glyph glyph-name="onesuperior" unicode="&#xb9;" horiz-adv-x="170" 
d="M143 658h-12l3 52h32q72 0 58 -63l-46 -218h-54l42 201q7 28 -23 28z" />
    <glyph glyph-name="ordmasculine" unicode="&#xba;" horiz-adv-x="298" 
d="M110 492l33 155q13 63 83 63h74q70 0 57 -63l-33 -155q-14 -63 -83 -63h-74q-71 0 -57 63zM192 481h47q28 0 35 28l25 121q7 28 -23 28h-47q-28 0 -35 -28l-25 -121q-7 -28 23 -28z" />
    <glyph glyph-name="guillemotright" unicode="&#xbb;" horiz-adv-x="491" 
d="M133 69h-122l167 183l-89 183h122l89 -183zM314 69h-122l168 183l-90 183h122l89 -183z" />
    <glyph glyph-name="onequarter" unicode="&#xbc;" horiz-adv-x="572" 
d="M36 0l459 710h79l-460 -710h-78zM147 642h-16l4 68h42q94 0 76 -82l-61 -287h-71l56 264q8 37 -30 37zM260 62l20 97q6 29 32 57l163 153h90l-191 -183q-19 -18 -23 -37l-4 -19h75l10 48l50 10h23l-12 -58h43l-23 -68h-34l-13 -62h-71l13 62h-148z" />
    <glyph glyph-name="onehalf" unicode="&#xbd;" horiz-adv-x="657" 
d="M36 0l459 710h79l-460 -710h-78zM147 642h-16l4 68h42q94 0 76 -82l-61 -287h-71l56 264q8 37 -30 37zM536 301h-53q-39 0 -46 -37l-2 -9h-71l7 33q17 81 110 81h87q92 0 75 -80l-3 -16q-6 -30 -22.5 -49t-48.5 -36l-125 -69q-43 -24 -49 -50h97q39 0 47 36l2 10h72
l-7 -32q-18 -83 -111 -83h-185l14 69q8 36 32.5 59t70.5 47l103 55q31 16 36 40q6 31 -30 31z" />
    <glyph glyph-name="threequarters" unicode="&#xbe;" horiz-adv-x="687" 
d="M153 0l459 710h79l-460 -710h-78zM377 62l20 97q6 29 32 57l163 153h90l-191 -183q-19 -18 -23 -37l-4 -19h75l10 48l50 10h23l-12 -58h43l-23 -68h-34l-13 -62h-71l13 62h-148zM246 410q42 0 51 44q4 19 -6 28.5t-28 9.5h-58l26 69h38q30 0 39 40q4 22 -3.5 31.5
t-29.5 9.5h-26q-38 0 -46 -37l-2 -9h-74l7 32q18 82 112 82h63q96 0 78 -86l-9 -44q-4 -16 -15 -33t-27 -22q22 -3 31.5 -19t4.5 -40l-9 -38q-17 -87 -115 -87h-93q-92 0 -74 84l6 31h72l-2 -10q-4 -19 3 -27.5t28 -8.5h58z" />
    <glyph glyph-name="questiondown" unicode="&#xbf;" horiz-adv-x="488" 
d="M165 177l-49 -20q-58 -25 -84.5 -52t-39.5 -88l-27 -131q-27 -126 108 -126h168q140 0 166 126l21 98h-112l-13 -62q-12 -57 -67 -57h-109q-30 0 -40.5 14t-3.5 45l18 82q4 23 16.5 35t41.5 24l62 26q23 10 36.5 17.5t30 20.5t27 32.5t15.5 45.5l26 118h-112l-19 -87
q-5 -24 -18 -36.5t-42 -24.5zM250 388l26 121h117l-26 -121h-117z" />
    <glyph glyph-name="Agrave" unicode="&#xc0;" horiz-adv-x="568" 
d="M341 710h113l74 -710h-117l-12 130h-249l-65 -130h-116zM364 549l-159 -313h186zM286 875h108l56 -126h-71z" />
    <glyph glyph-name="Aacute" unicode="&#xc1;" horiz-adv-x="568" 
d="M341 710h113l74 -710h-117l-12 130h-249l-65 -130h-116zM364 549l-159 -313h186zM427 750h-86l111 144h120z" />
    <glyph glyph-name="Acircumflex" unicode="&#xc2;" horiz-adv-x="568" 
d="M341 710h113l74 -710h-117l-12 130h-249l-65 -130h-116zM364 549l-159 -313h186zM397 854h60l91 -105h-100l-34 40h-3l-51 -40h-98z" />
    <glyph glyph-name="Atilde" unicode="&#xc3;" horiz-adv-x="568" 
d="M341 710h113l74 -710h-117l-12 130h-249l-65 -130h-116zM364 549l-159 -313h186zM493 846q38 0 49.5 -12t4.5 -48l-10 -45h-70l5 23q4 14 -11 14t-30 -12l-20 -14q-18 -15 -74 -15q-39 0 -49.5 11.5t-2.5 48.5l9 44h70l-5 -23q-3 -14 10 -14q17 0 32 13l13 11
q15 12 30 15t49 3z" />
    <glyph glyph-name="Adieresis" unicode="&#xc4;" horiz-adv-x="568" 
d="M341 710h113l74 -710h-117l-12 130h-249l-65 -130h-116zM364 549l-159 -313h186zM300 846h88l-21 -100h-88zM468 846h88l-21 -100h-88z" />
    <glyph glyph-name="Aring" unicode="&#xc5;" horiz-adv-x="568" 
d="M340 710h114l74 -710h-118l-12 130h-248l-65 -130h-117zM364 549l-159 -313h185zM413 910h55q48 0 60 -15t2 -64l-6 -31q-11 -50 -28.5 -64.5t-65.5 -14.5h-56q-48 0 -60 15t-1 64l6 31q10 49 28 64t66 15zM431 779q28 0 32 25l5 22q6 25 -22 25h-35q-26 0 -32 -25
l-5 -22q-4 -25 22 -25h35z" />
    <glyph glyph-name="AE" unicode="&#xc6;" horiz-adv-x="837" 
d="M933 710l-38 -106h-299l-26 -257h225l-37 -105h-198l-14 -136h255l-38 -106h-346l12 129h-253l-95 -129h-127l535 710h444zM470 524l-215 -289h185z" />
    <glyph glyph-name="Ccedilla" unicode="&#xc7;" horiz-adv-x="562" 
d="M257 -80l-23 10q-14 5 -18.5 13t-0.5 25l7 32h-39q-87 0 -120 35t-17 107l14 69h1l76 357q15 73 55 107.5t112 34.5h171q87 0 119 -35t17 -107l-15 -74h-111l9 45q8 35 -3.5 50t-44.5 15h-128q-62 0 -76 -65l-78 -368q-8 -34 3.5 -49.5t44.5 -15.5h128q61 0 75 65l10 47
h112l-16 -76q-16 -73 -55.5 -107.5t-111.5 -34.5h-66l-3 -12q-2 -12 11 -17l24 -10q26 -11 17 -51l-7 -35q-8 -38 -25 -49.5t-60 -11.5h-36q-46 0 -56.5 12t-1.5 53l3 17h61l-1 -5q-2 -9 1 -12.5t12 -3.5h22q16 0 19 16l2 10q4 14 -13 19z" />
    <glyph glyph-name="Egrave" unicode="&#xc8;" horiz-adv-x="497" 
d="M260 604l-54 -255h253l-39 -105h-237l-29 -138h309l-37 -106h-406l150 710h420l-37 -106h-293zM273 875h108l56 -126h-71z" />
    <glyph glyph-name="Eacute" unicode="&#xc9;" horiz-adv-x="497" 
d="M260 604l-54 -255h253l-39 -105h-237l-29 -138h309l-37 -106h-406l150 710h420l-37 -106h-293zM415 750h-86l111 144h120z" />
    <glyph glyph-name="Ecircumflex" unicode="&#xca;" horiz-adv-x="497" 
d="M260 604l-54 -255h253l-39 -105h-237l-29 -138h309l-37 -106h-406l150 710h420l-37 -106h-293zM385 854h60l91 -105h-100l-34 40h-3l-51 -40h-98z" />
    <glyph glyph-name="Edieresis" unicode="&#xcb;" horiz-adv-x="497" 
d="M260 604l-54 -255h253l-39 -105h-237l-29 -138h309l-37 -106h-406l150 710h420l-37 -106h-293zM288 846h88l-21 -100h-88zM456 846h88l-21 -100h-88z" />
    <glyph glyph-name="Igrave" unicode="&#xcc;" horiz-adv-x="224" 
d="M132 0h-112l150 710h112zM113 875h108l56 -126h-71z" />
    <glyph glyph-name="Iacute" unicode="&#xcd;" horiz-adv-x="224" 
d="M132 0h-112l150 710h112zM255 750h-86l111 144h120z" />
    <glyph glyph-name="Icircumflex" unicode="&#xce;" horiz-adv-x="224" 
d="M132 0h-112l150 710h112zM227 854h60l91 -105h-100l-34 40h-3l-51 -40h-98z" />
    <glyph glyph-name="Idieresis" unicode="&#xcf;" horiz-adv-x="224" 
d="M132 0h-112l150 710h112zM127 846h88l-21 -100h-88zM295 846h88l-21 -100h-88z" />
    <glyph glyph-name="Eth" unicode="&#xd0;" horiz-adv-x="601" 
d="M178 604l22 106h296q87 0 119.5 -35t17.5 -107l-15 -74h-1l-59 -276h1l-16 -76q-16 -73 -55.5 -107.5t-111.5 -34.5h-326l22 106h3l39 184h-95l36 98h80l46 216h-3zM389 388l-37 -98h-127l-39 -184h176q61 0 75 65l4 21h-1l75 352h1q5 32 -6 46t-42 14h-176l-46 -216h143
z" />
    <glyph glyph-name="Ntilde" unicode="&#xd1;" horiz-adv-x="605" 
d="M132 0h-112l150 710h112l151 -454q7 -22 11 -55l108 509h111l-150 -710h-111l-146 433q-10 29 -16 77zM509 846q38 0 49.5 -12t4.5 -48l-10 -45h-70l5 23q4 14 -11 14t-30 -12l-20 -14q-18 -15 -74 -15q-39 0 -49.5 11.5t-2.5 48.5l9 44h70l-5 -23q-3 -14 10 -14
q17 0 32 13l13 11q15 12 30 15t49 3z" />
    <glyph glyph-name="Ograve" unicode="&#xd2;" horiz-adv-x="604" 
d="M46 142l14 69h1l76 357q15 73 55 107.5t112 34.5h196q87 0 119.5 -35t17.5 -107l-15 -74h-1l-75 -352q-16 -73 -55.5 -107.5t-110.5 -34.5h-197q-87 0 -120 35t-17 107zM471 604h-153q-62 0 -76 -65l-78 -368q-8 -34 3.5 -49.5t44.5 -15.5h153q61 0 75 65l10 47h1l68 321
q8 35 -3 50t-45 15zM302 875h108l56 -126h-71z" />
    <glyph glyph-name="Oacute" unicode="&#xd3;" horiz-adv-x="604" 
d="M46 142l14 69h1l76 357q15 73 55 107.5t112 34.5h196q87 0 119.5 -35t17.5 -107l-15 -74h-1l-75 -352q-16 -73 -55.5 -107.5t-110.5 -34.5h-197q-87 0 -120 35t-17 107zM471 604h-153q-62 0 -76 -65l-78 -368q-8 -34 3.5 -49.5t44.5 -15.5h153q61 0 75 65l10 47h1l68 321
q8 35 -3 50t-45 15zM443 750h-86l111 144h120z" />
    <glyph glyph-name="Ocircumflex" unicode="&#xd4;" horiz-adv-x="604" 
d="M46 142l14 69h1l76 357q15 73 55 107.5t112 34.5h196q87 0 119.5 -35t17.5 -107l-15 -74h-1l-75 -352q-16 -73 -55.5 -107.5t-110.5 -34.5h-197q-87 0 -120 35t-17 107zM471 604h-153q-62 0 -76 -65l-78 -368q-8 -34 3.5 -49.5t44.5 -15.5h153q61 0 75 65l10 47h1l68 321
q8 35 -3 50t-45 15zM413 854h60l91 -105h-100l-34 40h-3l-51 -40h-98z" />
    <glyph glyph-name="Otilde" unicode="&#xd5;" horiz-adv-x="600" 
d="M46 142l14 69h1l76 357q15 73 55 107.5t112 34.5h191q87 0 119.5 -35t17.5 -107l-90 -426q-16 -73 -56 -107.5t-112 -34.5h-191q-87 0 -120 35t-17 107zM467 604h-149q-62 0 -76 -65l-78 -368q-8 -34 3.5 -49.5t44.5 -15.5h149q61 0 75 65l78 368q7 34 -4 49.5t-43 15.5z
M466 846q38 0 49.5 -12t4.5 -48l-10 -45h-70l5 23q3 14 -11 14q-15 0 -30 -12l-20 -14q-18 -15 -74 -15q-39 0 -49.5 11.5t-2.5 48.5l9 44h70l-5 -23q-3 -14 10 -14q17 0 32 13l13 11q15 12 30 15t49 3z" />
    <glyph glyph-name="Odieresis" unicode="&#xd6;" horiz-adv-x="604" 
d="M46 142l14 69h1l76 357q15 73 55 107.5t112 34.5h196q87 0 119.5 -35t17.5 -107l-15 -74h-1l-75 -352q-16 -73 -55.5 -107.5t-110.5 -34.5h-197q-87 0 -120 35t-17 107zM471 604h-153q-62 0 -76 -65l-78 -368q-8 -34 3.5 -49.5t44.5 -15.5h153q61 0 75 65l10 47h1l68 321
q8 35 -3 50t-45 15zM316 846h88l-21 -100h-88zM484 846h88l-21 -100h-88z" />
    <glyph glyph-name="multiply" unicode="&#xd7;" horiz-adv-x="412" 
d="M423 377l-131 -109l85 -107l-82 -68l-83 108l-128 -108l-52 68l127 107l-81 109l81 67l82 -108l129 108z" />
    <glyph glyph-name="Oslash" unicode="&#xd8;" horiz-adv-x="602" 
d="M612 757h122l-99 -120q7 -27 -2 -69l-15 -74h-1l-75 -352q-16 -73 -55.5 -107.5t-111.5 -34.5h-191q-43 0 -70 7l-44 -54h-120l94 116q-7 30 3 73l14 69h1l76 357q15 73 55 107.5t112 34.5h191q41 0 71 -8zM468 604h-149q-62 0 -76 -65l-66 -309l307 372q-8 2 -16 2z
M213 106h149q61 0 75 65l64 304l-305 -368q5 -1 17 -1z" />
    <glyph glyph-name="Ugrave" unicode="&#xd9;" horiz-adv-x="580" 
d="M334 106q65 0 81 70l113 534h112l-121 -572q-30 -138 -163 -138h-175q-165 0 -135 138l122 572h111l-113 -534q-8 -37 4 -53.5t47 -16.5h117zM292 875h108l56 -126h-71z" />
    <glyph glyph-name="Uacute" unicode="&#xda;" horiz-adv-x="580" 
d="M334 106q65 0 81 70l113 534h112l-121 -572q-30 -138 -163 -138h-175q-165 0 -135 138l122 572h111l-113 -534q-8 -37 4 -53.5t47 -16.5h117zM433 750h-86l111 144h120z" />
    <glyph glyph-name="Ucircumflex" unicode="&#xdb;" horiz-adv-x="580" 
d="M334 106q65 0 81 70l113 534h112l-121 -572q-30 -138 -163 -138h-175q-165 0 -135 138l122 572h111l-113 -534q-8 -37 4 -53.5t47 -16.5h117zM403 854h60l91 -105h-100l-34 40h-3l-51 -40h-98z" />
    <glyph glyph-name="Udieresis" unicode="&#xdc;" horiz-adv-x="580" 
d="M334 106q65 0 81 70l113 534h112l-121 -572q-30 -138 -163 -138h-175q-165 0 -135 138l122 572h111l-113 -534q-8 -37 4 -53.5t47 -16.5h117zM306 846h88l-21 -100h-88zM474 846h88l-21 -100h-88z" />
    <glyph glyph-name="Yacute" unicode="&#xdd;" horiz-adv-x="551" 
d="M296 0h-111l58 273l-127 437h112l79 -283q2 -15 5.5 -30t3.5 -21q7 19 29 50l198 284h119l-308 -434zM419 750h-86l111 144h120z" />
    <glyph glyph-name="Thorn" unicode="&#xde;" horiz-adv-x="544" 
d="M132 0h-112l160 756l101 21h16l-34 -159h171q174 0 144 -147l-36 -164q-31 -147 -173 -147h-203zM240 512l-52 -247h172q62 0 76 65l25 118q13 64 -49 64h-172z" />
    <glyph glyph-name="germandbls" unicode="&#xdf;" horiz-adv-x="554" 
d="M-14 -140l139 654h1l11 54q15 73 55 107.5t112 34.5h145q153 0 124 -135l-21 -96q-5 -25 -11 -42t-22.5 -37.5t-40.5 -26.5q26 -6 40.5 -19.5t17 -34t1.5 -35t-6 -36.5l-24 -113q-29 -135 -179 -135h-145l22 106h116q68 0 83 66l17 81q15 67 -48 67h-122l22 105h101
q55 0 68 60l11 53q7 34 -6.5 50t-50.5 16h-78q-62 0 -76 -65l-8 -38h-1l-136 -641h-111z" />
    <glyph glyph-name="agrave" unicode="&#xe0;" horiz-adv-x="473" 
d="M300 0l2 51q-23 -30 -49 -40.5t-72 -10.5h-45q-72 0 -100 29t-14 91l16 73q22 112 126 112h183l13 59q10 49 -37 49h-76q-49 0 -59 -48l-2 -11h-97l8 40q24 117 126 117h136q137 0 112 -117l-83 -394h-88zM169 98h75q31 0 48 14t24 45l12 57h-146q-26 0 -37.5 -12
t-15.5 -37l-5 -23q-6 -26 5.5 -35t39.5 -9zM199 705h108l56 -126h-71z" />
    <glyph glyph-name="aacute" unicode="&#xe1;" horiz-adv-x="473" 
d="M300 0l2 51q-23 -30 -49 -40.5t-72 -10.5h-45q-72 0 -100 29t-14 91l16 73q22 112 126 112h183l13 59q10 49 -37 49h-76q-49 0 -59 -48l-2 -11h-97l8 40q24 117 126 117h136q137 0 112 -117l-83 -394h-88zM169 98h75q31 0 48 14t24 45l12 57h-146q-26 0 -37.5 -12
t-15.5 -37l-5 -23q-6 -26 5.5 -35t39.5 -9zM349 577h-86l111 144h120z" />
    <glyph glyph-name="acircumflex" unicode="&#xe2;" horiz-adv-x="473" 
d="M300 0l2 51q-23 -30 -49 -40.5t-72 -10.5h-45q-72 0 -100 29t-14 91l16 73q22 112 126 112h183l13 59q10 49 -37 49h-76q-49 0 -59 -48l-2 -11h-97l8 40q24 117 126 117h136q137 0 112 -117l-83 -394h-88zM169 98h75q31 0 48 14t24 45l12 57h-146q-26 0 -37.5 -12
t-15.5 -37l-5 -23q-6 -26 5.5 -35t39.5 -9zM312 684h60l91 -105h-100l-34 40h-3l-51 -40h-98z" />
    <glyph glyph-name="atilde" unicode="&#xe3;" horiz-adv-x="473" 
d="M300 0l2 51q-23 -30 -49 -40.5t-72 -10.5h-45q-72 0 -100 29t-14 91l16 73q22 112 126 112h183l13 59q10 49 -37 49h-76q-49 0 -59 -48l-2 -11h-97l8 40q24 117 126 117h136q137 0 112 -117l-83 -394h-88zM169 98h75q31 0 48 14t24 45l12 57h-146q-26 0 -37.5 -12
t-15.5 -37l-5 -23q-6 -26 5.5 -35t39.5 -9zM408 676q38 0 49.5 -12t3.5 -48l-9 -45h-70l5 23q2 14 -11 14q-15 0 -30 -12l-20 -14q-20 -15 -74 -15q-39 0 -49.5 11.5t-2.5 48.5l9 44h70l-5 -23q-3 -14 10 -14q17 0 32 13l13 11q15 12 30 15t49 3z" />
    <glyph glyph-name="adieresis" unicode="&#xe4;" horiz-adv-x="473" 
d="M300 0l2 51q-23 -30 -49 -40.5t-72 -10.5h-45q-72 0 -100 29t-14 91l16 73q22 112 126 112h183l13 59q10 49 -37 49h-76q-49 0 -59 -48l-2 -11h-97l8 40q24 117 126 117h136q137 0 112 -117l-83 -394h-88zM169 98h75q31 0 48 14t24 45l12 57h-146q-26 0 -37.5 -12
t-15.5 -37l-5 -23q-6 -26 5.5 -35t39.5 -9zM213 676h88l-21 -100h-88zM381 676h88l-21 -100h-88z" />
    <glyph glyph-name="aring" unicode="&#xe5;" horiz-adv-x="473" 
d="M300 0l2 51q-23 -30 -49 -40.5t-72 -10.5h-45q-72 0 -100 29t-14 91l16 73q22 112 126 112h183l13 59q10 49 -37 49h-76q-49 0 -59 -48l-2 -11h-97l8 40q24 117 126 117h136q137 0 112 -117l-83 -394h-88zM169 98h75q31 0 48 14t24 45l12 57h-146q-26 0 -37.5 -12
t-15.5 -37l-5 -23q-6 -26 5.5 -35t39.5 -9zM327 740h55q48 0 60 -15t2 -64l-7 -31q-10 -50 -27.5 -64.5t-65.5 -14.5h-56q-47 0 -59.5 15t-2.5 64l7 31q10 49 28 64t66 15zM345 609q26 0 32 25l5 22q6 25 -22 25h-35q-26 0 -32 -25l-5 -22q-4 -25 22 -25h35z" />
    <glyph glyph-name="ae" unicode="&#xe6;" horiz-adv-x="742" 
d="M459 98h76q55 0 65 51l3 11h97l-6 -24q-16 -79 -54.5 -107.5t-126.5 -28.5h-72q-62 0 -94.5 13t-40.5 45q-24 -33 -52.5 -45.5t-75.5 -12.5h-58q-123 0 -98 120l16 73q23 112 146 112h161l14 64q7 44 -38 44h-75q-47 0 -57 -48l-2 -11h-98l8 40q26 117 141 117h134
q44 0 70 -16q41 16 107 16h72q85 0 114 -24t13 -98l-15 -73q-14 -64 -46 -89.5t-116 -25.5h-144l-9 -45q-12 -58 41 -58zM602 413h-62q-37 0 -55 -12t-25 -46l-13 -63h131q52 0 61 39l8 38q5 23 -6 33.5t-39 10.5zM162 98h80q59 0 72 59l12 57h-140q-48 0 -57 -49l-5 -23
q-6 -25 4 -34.5t34 -9.5z" />
    <glyph glyph-name="ccedilla" unicode="&#xe7;" horiz-adv-x="467" 
d="M197 -80l-23 10q-14 5 -18.5 13t-0.5 25l7 32q-79 0 -109 33t-15 101l51 238q15 69 50.5 102t99.5 33h124q73 0 100 -31.5t13 -96.5l-12 -50h-97l5 21q7 31 -3 44.5t-39 13.5h-75q-29 0 -44.5 -14t-21.5 -44l-41 -194q-7 -31 3.5 -44.5t38.5 -13.5h74q30 0 44.5 11
t20.5 41l6 25h96l-10 -45q-14 -67 -47 -98.5t-92 -31.5h-54l-3 -12q-2 -12 11 -17l24 -10q26 -11 17 -51l-7 -35q-8 -38 -25 -49.5t-60 -11.5h-36q-46 0 -56.5 12t-1.5 53l3 17h61l-1 -5q-2 -9 1 -12.5t12 -3.5h22q16 0 19 16l2 10q4 14 -13 19z" />
    <glyph glyph-name="egrave" unicode="&#xe8;" horiz-adv-x="472" 
d="M188 92h69q53 0 65 51l4 17h97l-6 -24q-16 -80 -52 -108t-121 -28h-59q-95 0 -129.5 29t-17.5 106l53 247q17 79 55 104t124 25h48q103 0 136 -25t16 -104l-14 -59q-14 -68 -46 -95t-117 -27h-136l-11 -51q-6 -29 3.5 -43.5t38.5 -14.5zM333 420h-83q-47 0 -56 -45
l-17 -83h129q25 0 37.5 9.5t17.5 30.5l9 43q5 23 -3 34t-34 11zM209 705h108l56 -126h-71z" />
    <glyph glyph-name="eacute" unicode="&#xe9;" horiz-adv-x="472" 
d="M188 92h69q53 0 65 51l4 17h97l-6 -24q-16 -80 -52 -108t-121 -28h-59q-95 0 -129.5 29t-17.5 106l53 247q17 79 55 104t124 25h48q103 0 136 -25t16 -104l-14 -59q-14 -68 -46 -95t-117 -27h-136l-11 -51q-6 -29 3.5 -43.5t38.5 -14.5zM333 420h-83q-47 0 -56 -45
l-17 -83h129q25 0 37.5 9.5t17.5 30.5l9 43q5 23 -3 34t-34 11zM350 580h-86l110 144h120z" />
    <glyph glyph-name="ecircumflex" unicode="&#xea;" horiz-adv-x="472" 
d="M188 92h69q53 0 65 51l4 17h97l-6 -24q-16 -80 -52 -108t-121 -28h-59q-95 0 -129.5 29t-17.5 106l53 247q17 79 55 104t124 25h48q103 0 136 -25t16 -104l-14 -59q-14 -68 -46 -95t-117 -27h-136l-11 -51q-6 -29 3.5 -43.5t38.5 -14.5zM333 420h-83q-47 0 -56 -45
l-17 -83h129q25 0 37.5 9.5t17.5 30.5l9 43q5 23 -3 34t-34 11zM322 684h60l91 -105h-100l-34 40h-3l-51 -40h-98z" />
    <glyph glyph-name="edieresis" unicode="&#xeb;" horiz-adv-x="472" 
d="M188 92h69q53 0 65 51l4 17h97l-6 -24q-16 -80 -52 -108t-121 -28h-59q-95 0 -129.5 29t-17.5 106l53 247q17 79 55 104t124 25h48q103 0 136 -25t16 -104l-14 -59q-14 -68 -46 -95t-117 -27h-136l-11 -51q-6 -29 3.5 -43.5t38.5 -14.5zM333 420h-83q-47 0 -56 -45
l-17 -83h129q25 0 37.5 9.5t17.5 30.5l9 43q5 23 -3 34t-34 11zM223 676h88l-21 -100h-88zM391 676h88l-21 -100h-88z" />
    <glyph glyph-name="igrave" unicode="&#xec;" horiz-adv-x="231" 
d="M126 407h-62l21 98h166l-107 -505h-104zM92 705h108l56 -126h-71z" />
    <glyph glyph-name="iacute" unicode="&#xed;" horiz-adv-x="231" 
d="M126 407h-62l21 98h166l-107 -505h-104zM234 580h-86l110 144h120z" />
    <glyph glyph-name="icircumflex" unicode="&#xee;" horiz-adv-x="231" 
d="M126 407h-62l21 98h166l-107 -505h-104zM206 684h60l91 -105h-100l-34 40h-3l-51 -40h-98z" />
    <glyph glyph-name="idieresis" unicode="&#xef;" horiz-adv-x="231" 
d="M126 407h-62l21 98h166l-107 -505h-104zM107 676h88l-21 -100h-88zM275 676h88l-21 -100h-88z" />
    <glyph glyph-name="eth" unicode="&#xf0;" horiz-adv-x="479" 
d="M472 355l-48 -227q-16 -73 -58.5 -100.5t-128.5 -27.5h-78q-86 0 -117.5 27.5t-15.5 100.5l35 165q15 72 57.5 100t127.5 28h78q19 0 42 -7q-5 30 -17 47l-35 76l-141 -22l18 85l83 13l-48 97h123l37 -80l150 24l-19 -85l-95 -16l27 -57q35 -83 23 -141zM226 323
q-55 0 -67 -58l-23 -109q-13 -58 42 -58h81q54 0 67 58l28 133q4 22 5 34h-133z" />
    <glyph glyph-name="ntilde" unicode="&#xf1;" 
d="M14 0l102 484l86 21h16l-9 -42q41 48 115 48h42q145 0 119 -125l-83 -386h-105l75 356q7 34 -3.5 49t-42.5 15h-57q-28 0 -47.5 -14.5t-24.5 -37.5l-78 -368h-105zM430 676q38 0 49.5 -12t3.5 -48l-9 -45h-70l5 23q2 14 -11 14q-15 0 -30 -12l-20 -14q-20 -15 -74 -15
q-39 0 -49.5 11.5t-2.5 48.5l9 44h70l-5 -23q-3 -14 10 -14q17 0 32 13l13 11q15 12 30 15t49 3z" />
    <glyph glyph-name="ograve" unicode="&#xf2;" horiz-adv-x="493" 
d="M240 511h125q157 0 125 -135l-52 -244q-28 -132 -156 -132h-126q-146 0 -118 132l51 244q15 69 51 102t100 33zM340 416h-83q-29 0 -44.5 -14t-21.5 -44l-44 -206q-7 -31 3 -44t39 -13h83q28 0 43.5 13.5t22.5 43.5l44 206q6 30 -3.5 44t-38.5 14zM212 705h108l56 -126
h-71z" />
    <glyph glyph-name="oacute" unicode="&#xf3;" horiz-adv-x="493" 
d="M240 511h125q157 0 125 -135l-52 -244q-28 -132 -156 -132h-126q-146 0 -118 132l51 244q15 69 51 102t100 33zM340 416h-83q-29 0 -44.5 -14t-21.5 -44l-44 -206q-7 -31 3 -44t39 -13h83q28 0 43.5 13.5t22.5 43.5l44 206q6 30 -3.5 44t-38.5 14zM353 580h-86l110 144
h120z" />
    <glyph glyph-name="ocircumflex" unicode="&#xf4;" horiz-adv-x="493" 
d="M240 511h125q157 0 125 -135l-52 -244q-28 -132 -156 -132h-126q-146 0 -118 132l51 244q15 69 51 102t100 33zM340 416h-83q-29 0 -44.5 -14t-21.5 -44l-44 -206q-7 -31 3 -44t39 -13h83q28 0 43.5 13.5t22.5 43.5l44 206q6 30 -3.5 44t-38.5 14zM325 684h60l91 -105
h-100l-34 40h-3l-51 -40h-98z" />
    <glyph glyph-name="otilde" unicode="&#xf5;" horiz-adv-x="493" 
d="M240 511h125q157 0 125 -135l-52 -244q-28 -132 -156 -132h-126q-146 0 -118 132l51 244q15 69 51 102t100 33zM340 416h-83q-29 0 -44.5 -14t-21.5 -44l-44 -206q-7 -31 3 -44t39 -13h83q28 0 43.5 13.5t22.5 43.5l44 206q6 30 -3.5 44t-38.5 14zM421 676q38 0 49.5 -12
t3.5 -48l-9 -45h-70l5 23q2 14 -11 14q-15 0 -30 -12l-20 -14q-20 -15 -74 -15q-39 0 -49.5 11.5t-2.5 48.5l9 44h70l-5 -23q-3 -14 10 -14q17 0 32 13l13 11q15 12 30 15t49 3z" />
    <glyph glyph-name="odieresis" unicode="&#xf6;" horiz-adv-x="493" 
d="M240 511h125q157 0 125 -135l-52 -244q-28 -132 -156 -132h-126q-146 0 -118 132l51 244q15 69 51 102t100 33zM340 416h-83q-29 0 -44.5 -14t-21.5 -44l-44 -206q-7 -31 3 -44t39 -13h83q28 0 43.5 13.5t22.5 43.5l44 206q6 30 -3.5 44t-38.5 14zM226 676h88l-21 -100
h-88zM394 676h88l-21 -100h-88z" />
    <glyph glyph-name="divide" unicode="&#xf7;" horiz-adv-x="492" 
d="M46 244l39 106h413l-38 -106h-414zM239 402l26 121h117l-26 -121h-117zM166 59l26 121h117l-26 -121h-117z" />
    <glyph glyph-name="oslash" unicode="&#xf8;" horiz-adv-x="496" 
d="M241 511h125q45 0 72 -10l44 48h100l-90 -98q10 -28 -1 -75l-52 -244q-14 -67 -52 -99.5t-104 -32.5h-126q-45 0 -69 10l-38 -41h-99l86 95q-7 26 2 68l51 244q15 69 51.5 102t99.5 33zM273 95q28 0 43.5 13.5t22.5 43.5l36 171l-208 -226q14 -2 23 -2h83zM341 416h-83
q-29 0 -44.5 -14t-21.5 -44l-35 -164l201 220q-10 2 -17 2z" />
    <glyph glyph-name="ugrave" unicode="&#xf9;" 
d="M507 505l-107 -505h-75l-1 44q-48 -44 -122 -44h-53q-137 0 -108 132l79 373h104l-75 -350q-13 -64 49 -64h53q29 0 49 14.5t26 37.5l77 362h104zM201 705h108l56 -126h-71z" />
    <glyph glyph-name="uacute" unicode="&#xfa;" 
d="M507 505l-107 -505h-75l-1 44q-48 -44 -122 -44h-53q-137 0 -108 132l79 373h104l-75 -350q-13 -64 49 -64h53q29 0 49 14.5t26 37.5l77 362h104zM343 580h-86l110 144h120z" />
    <glyph glyph-name="ucircumflex" unicode="&#xfb;" 
d="M507 505l-107 -505h-75l-1 44q-48 -44 -122 -44h-53q-137 0 -108 132l79 373h104l-75 -350q-13 -64 49 -64h53q29 0 49 14.5t26 37.5l77 362h104zM315 684h60l91 -105h-100l-34 40h-3l-51 -40h-98z" />
    <glyph glyph-name="udieresis" unicode="&#xfc;" 
d="M507 505l-107 -505h-75l-1 44q-48 -44 -122 -44h-53q-137 0 -108 132l79 373h104l-75 -350q-13 -64 49 -64h53q29 0 49 14.5t26 37.5l77 362h104zM215 676h88l-21 -100h-88zM383 676h88l-21 -100h-88z" />
    <glyph glyph-name="yacute" unicode="&#xfd;" horiz-adv-x="465" 
d="M43 -127q27 0 46.5 14.5t39.5 54.5l28 55h-27l-44 508h109l23 -385l193 385h113l-304 -582q-47 -92 -89.5 -120t-117.5 -28h-71l36 98h65zM326 580h-86l110 144h120z" />
    <glyph glyph-name="thorn" unicode="&#xfe;" horiz-adv-x="497" 
d="M65 -250h-102l212 1006l93 21h16l-65 -306q43 40 114 40h43q76 0 104 -31t14 -95l-53 -252q-15 -71 -53.5 -102t-108.5 -31h-54q-83 0 -97 47zM195 357h-1l-43 -202h1q-10 -60 49 -60h68q60 0 73 63l41 192q7 36 -4 51t-46 15h-64q-59 0 -74 -59z" />
    <glyph glyph-name="ydieresis" unicode="&#xff;" horiz-adv-x="465" 
d="M43 -127q27 0 46.5 14.5t39.5 54.5l28 55h-27l-44 508h109l23 -385l193 385h113l-304 -582q-47 -92 -89.5 -120t-117.5 -28h-71l36 98h65zM199 676h88l-21 -100h-88zM367 676h88l-21 -100h-88z" />
    <glyph glyph-name="Amacron" unicode="&#x100;" horiz-adv-x="568" 
d="M341 710h113l74 -710h-117l-12 130h-249l-65 -130h-116zM364 549l-159 -313h186zM565 844l-35 -91h-239l34 91h240z" />
    <glyph glyph-name="amacron" unicode="&#x101;" horiz-adv-x="473" 
d="M300 0l2 51q-23 -30 -49 -40.5t-72 -10.5h-45q-72 0 -100 29t-14 91l16 73q22 112 126 112h183l13 59q10 49 -37 49h-76q-49 0 -59 -48l-2 -11h-97l8 40q24 117 126 117h136q137 0 112 -117l-83 -394h-88zM169 98h75q31 0 48 14t24 45l12 57h-146q-26 0 -37.5 -12
t-15.5 -37l-5 -23q-6 -26 5.5 -35t39.5 -9zM478 674l-36 -91h-239l35 91h240z" />
    <glyph glyph-name="Abreve" unicode="&#x102;" horiz-adv-x="568" 
d="M341 710h113l74 -710h-117l-12 130h-249l-65 -130h-116zM364 549l-159 -313h186zM424 746h-32q-60 0 -75.5 17.5t-2.5 75.5l3 13h61l-4 -15q-6 -33 28 -33h34q37 0 43 33l4 15h61l-3 -13q-13 -59 -34.5 -76t-82.5 -17z" />
    <glyph glyph-name="abreve" unicode="&#x103;" horiz-adv-x="473" 
d="M300 0l2 51q-23 -30 -49 -40.5t-72 -10.5h-45q-72 0 -100 29t-14 91l16 73q22 112 126 112h183l13 59q10 49 -37 49h-76q-49 0 -59 -48l-2 -11h-97l8 40q24 117 126 117h136q137 0 112 -117l-83 -394h-88zM169 98h75q31 0 48 14t24 45l12 57h-146q-26 0 -37.5 -12
t-15.5 -37l-5 -23q-6 -26 5.5 -35t39.5 -9zM337 576h-32q-60 0 -75.5 17.5t-2.5 75.5l2 13h61l-3 -15q-7 -33 28 -33h34q36 0 43 33l3 15h61l-2 -13q-13 -59 -34.5 -76t-82.5 -17z" />
    <glyph glyph-name="Aogonek" unicode="&#x104;" horiz-adv-x="568" 
d="M328 -125l4 18q5 28 20 43.5t42 30.5q36 19 42 33h-25l-12 130h-249l-65 -130h-116l372 710h113l74 -710h-37l-3 -14q-6 -24 -15.5 -34.5t-35.5 -24.5q-23 -14 -30 -20.5t-9 -17.5q-4 -18 16 -18h76l-19 -58h-82q-74 0 -61 62zM364 549l-159 -313h186z" />
    <glyph glyph-name="aogonek" unicode="&#x105;" horiz-adv-x="473" 
d="M300 0l2 51q-23 -30 -49 -40.5t-72 -10.5h-45q-72 0 -100 29t-14 91l16 73q22 112 126 112h183l13 59q10 49 -37 49h-76q-49 0 -59 -48l-2 -11h-97l8 40q24 117 126 117h136q137 0 112 -117l-83 -394h-19l-3 -10q-5 -24 -14.5 -34.5t-35.5 -24.5q-23 -14 -30 -20.5
t-9 -17.5q-4 -18 16 -18h76l-19 -58h-82q-74 0 -61 62l4 18q5 28 20 43.5t42 30.5q32 18 40 29h-13zM169 98h75q31 0 48 14t24 45l12 57h-146q-26 0 -37.5 -12t-15.5 -37l-5 -23q-6 -26 5.5 -35t39.5 -9z" />
    <glyph glyph-name="Cacute" unicode="&#x106;" horiz-adv-x="562" 
d="M212 106h128q61 0 75 65l10 47h112l-16 -76q-16 -73 -55.5 -107.5t-111.5 -34.5h-171q-87 0 -120 35t-17 107l14 69h1l76 357q15 73 55 107.5t112 34.5h171q87 0 119 -35t17 -107l-15 -74h-111l9 45q8 35 -3.5 50t-44.5 15h-128q-62 0 -76 -65l-78 -368q-8 -34 3.5 -49.5
t44.5 -15.5zM436 750h-86l111 144h120z" />
    <glyph glyph-name="cacute" unicode="&#x107;" horiz-adv-x="467" 
d="M330 408h-75q-29 0 -44.5 -14t-21.5 -44l-41 -194q-7 -31 3.5 -44.5t38.5 -13.5h74q30 0 44.5 11t20.5 41l6 25h96l-10 -45q-14 -67 -47 -98.5t-92 -31.5h-119q-155 0 -125 134l51 238q15 69 50.5 102t99.5 33h124q73 0 100 -31.5t13 -96.5l-12 -50h-97l5 21
q7 31 -3 44.5t-39 13.5zM351 580h-86l110 144h120z" />
    <glyph glyph-name="Ccircumflex" unicode="&#x108;" horiz-adv-x="562" 
d="M212 106h128q61 0 75 65l10 47h112l-16 -76q-16 -73 -55.5 -107.5t-111.5 -34.5h-171q-87 0 -120 35t-17 107l14 69h1l76 357q15 73 55 107.5t112 34.5h171q87 0 119 -35t17 -107l-15 -74h-111l9 45q8 35 -3.5 50t-44.5 15h-128q-62 0 -76 -65l-78 -368q-8 -34 3.5 -49.5
t44.5 -15.5zM406 854h60l91 -105h-100l-34 40h-3l-51 -40h-98z" />
    <glyph glyph-name="ccircumflex" unicode="&#x109;" horiz-adv-x="467" 
d="M330 408h-75q-29 0 -44.5 -14t-21.5 -44l-41 -194q-7 -31 3.5 -44.5t38.5 -13.5h74q30 0 44.5 11t20.5 41l6 25h96l-10 -45q-14 -67 -47 -98.5t-92 -31.5h-119q-155 0 -125 134l51 238q15 69 50.5 102t99.5 33h124q73 0 100 -31.5t13 -96.5l-12 -50h-97l5 21
q7 31 -3 44.5t-39 13.5zM323 684h60l91 -105h-100l-34 40h-3l-51 -40h-98z" />
    <glyph glyph-name="Cdotaccent" unicode="&#x10a;" horiz-adv-x="562" 
d="M212 106h128q61 0 75 65l10 47h112l-16 -76q-16 -73 -55.5 -107.5t-111.5 -34.5h-171q-87 0 -120 35t-17 107l14 69h1l76 357q15 73 55 107.5t112 34.5h171q87 0 119 -35t17 -107l-15 -74h-111l9 45q8 35 -3.5 50t-44.5 15h-128q-62 0 -76 -65l-78 -368q-8 -34 3.5 -49.5
t44.5 -15.5zM386 868h111l-25 -116h-111z" />
    <glyph glyph-name="cdotaccent" unicode="&#x10b;" horiz-adv-x="467" 
d="M330 408h-75q-29 0 -44.5 -14t-21.5 -44l-41 -194q-7 -31 3.5 -44.5t38.5 -13.5h74q30 0 44.5 11t20.5 41l6 25h96l-10 -45q-14 -67 -47 -98.5t-92 -31.5h-119q-155 0 -125 134l51 238q15 69 50.5 102t99.5 33h124q73 0 100 -31.5t13 -96.5l-12 -50h-97l5 21
q7 31 -3 44.5t-39 13.5zM295 667h111l-24 -116h-111z" />
    <glyph glyph-name="Ccaron" unicode="&#x10c;" horiz-adv-x="562" 
d="M212 106h128q61 0 75 65l10 47h112l-16 -76q-16 -73 -55.5 -107.5t-111.5 -34.5h-171q-87 0 -120 35t-17 107l14 69h1l76 357q15 73 55 107.5t112 34.5h171q87 0 119 -35t17 -107l-15 -74h-111l9 45q8 35 -3.5 50t-44.5 15h-128q-62 0 -76 -65l-78 -368q-8 -34 3.5 -49.5
t44.5 -15.5zM447 749h-66l-86 107h95l35 -53l59 53h93z" />
    <glyph glyph-name="ccaron" unicode="&#x10d;" horiz-adv-x="467" 
d="M330 408h-75q-29 0 -44.5 -14t-21.5 -44l-41 -194q-7 -31 3.5 -44.5t38.5 -13.5h74q30 0 44.5 11t20.5 41l6 25h96l-10 -45q-14 -67 -47 -98.5t-92 -31.5h-119q-155 0 -125 134l51 238q15 69 50.5 102t99.5 33h124q73 0 100 -31.5t13 -96.5l-12 -50h-97l5 21
q7 31 -3 44.5t-39 13.5zM364 579h-66l-86 107h95l35 -53l59 53h93z" />
    <glyph glyph-name="Dcaron" unicode="&#x10e;" horiz-adv-x="597" 
d="M148 604l22 106h278q110 0 153 -42t23 -130l-78 -366q-19 -88 -71.5 -130t-146.5 -42h-308l22 106h1l106 498h-1zM427 604h-166l-106 -498h165q52 0 81.5 24.5t40.5 77.5l63 299q10 51 -8.5 74t-69.5 23zM448 749h-66l-86 107h95l35 -53l59 53h93z" />
    <glyph glyph-name="dcaron" unicode="&#x10f;" horiz-adv-x="496" 
d="M566 740l-157 -740h-88l1 56q-37 -56 -123 -56h-58q-130 0 -104 126l52 244q30 141 166 141h59q38 0 58.5 -9.5t30.5 -32.5l53 250l92 21h18zM263 95q58 0 73 57l44 208q9 56 -49 56h-67q-61 0 -74 -63l-42 -195q-13 -63 47 -63h68zM610 760h138l-95 -226h-55z" />
    <glyph glyph-name="Dcroat" unicode="&#x110;" horiz-adv-x="601" 
d="M26 0l66 314h-69l35 91h54l64 305h276q110 0 152.5 -42t23.5 -130l-78 -366q-19 -88 -71.5 -130t-147.5 -42h-305zM431 604h-166l-42 -199h111l-36 -91h-95l-44 -208h166q52 0 81 24.5t40 77.5l63 299q10 51 -8.5 74t-69.5 23z" />
    <glyph glyph-name="dcroat" unicode="&#x111;" horiz-adv-x="496" 
d="M633 676l-37 -98h-67l-64 -305h2l-58 -273h-88l3 57q-38 -57 -124 -57h-59q-130 0 -104 126l52 244q30 141 167 141h59q69 0 88 -39l22 106h-128l37 98h112l9 43l92 21h17l-14 -64h83zM344 195l38 178q0 43 -51 43h-66q-61 0 -74 -63l-42 -195q-13 -63 47 -63h67
q59 0 74 57l9 43h-2z" />
    <glyph glyph-name="Emacron" unicode="&#x112;" horiz-adv-x="497" 
d="M260 604l-54 -255h253l-39 -105h-237l-29 -138h309l-37 -106h-406l150 710h420l-37 -106h-293zM553 844l-35 -91h-239l34 91h240z" />
    <glyph glyph-name="emacron" unicode="&#x113;" horiz-adv-x="472" 
d="M188 92h69q53 0 65 51l4 17h97l-6 -24q-16 -80 -52 -108t-121 -28h-59q-95 0 -129.5 29t-17.5 106l53 247q17 79 55 104t124 25h48q103 0 136 -25t16 -104l-14 -59q-14 -68 -46 -95t-117 -27h-136l-11 -51q-6 -29 3.5 -43.5t38.5 -14.5zM333 420h-83q-47 0 -56 -45
l-17 -83h129q25 0 37.5 9.5t17.5 30.5l9 43q5 23 -3 34t-34 11zM488 674l-36 -91h-239l35 91h240z" />
    <glyph glyph-name="Ebreve" unicode="&#x114;" horiz-adv-x="497" 
d="M260 604l-54 -255h253l-39 -105h-237l-29 -138h309l-37 -106h-406l150 710h420l-37 -106h-293zM412 746h-32q-60 0 -75.5 17.5t-2.5 75.5l3 13h61l-4 -15q-6 -33 28 -33h34q37 0 43 33l4 15h61l-3 -13q-13 -59 -34.5 -76t-82.5 -17z" />
    <glyph glyph-name="ebreve" unicode="&#x115;" horiz-adv-x="472" 
d="M188 92h69q53 0 65 51l4 17h97l-6 -24q-16 -80 -52 -108t-121 -28h-59q-95 0 -129.5 29t-17.5 106l53 247q17 79 55 104t124 25h48q103 0 136 -25t16 -104l-14 -59q-14 -68 -46 -95t-117 -27h-136l-11 -51q-6 -29 3.5 -43.5t38.5 -14.5zM333 420h-83q-47 0 -56 -45
l-17 -83h129q25 0 37.5 9.5t17.5 30.5l9 43q5 23 -3 34t-34 11zM347 576h-32q-60 0 -75.5 17.5t-2.5 75.5l2 13h61l-3 -15q-7 -33 28 -33h34q36 0 43 33l3 15h61l-2 -13q-13 -59 -34.5 -76t-82.5 -17z" />
    <glyph glyph-name="Edotaccent" unicode="&#x116;" horiz-adv-x="497" 
d="M260 604l-54 -255h253l-39 -105h-237l-29 -138h309l-37 -106h-406l150 710h420l-37 -106h-293zM365 868h111l-25 -116h-111z" />
    <glyph glyph-name="edotaccent" unicode="&#x117;" horiz-adv-x="472" 
d="M188 92h69q53 0 65 51l4 17h97l-6 -24q-16 -80 -52 -108t-121 -28h-59q-95 0 -129.5 29t-17.5 106l53 247q17 79 55 104t124 25h48q103 0 136 -25t16 -104l-14 -59q-14 -68 -46 -95t-117 -27h-136l-11 -51q-6 -29 3.5 -43.5t38.5 -14.5zM333 420h-83q-47 0 -56 -45
l-17 -83h129q25 0 37.5 9.5t17.5 30.5l9 43q5 23 -3 34t-34 11zM296 675h111l-25 -116h-111z" />
    <glyph glyph-name="Eogonek" unicode="&#x118;" horiz-adv-x="497" 
d="M261 -123l4 18q6 28 21 43.5t42 30.5q34 18 40 31h-348l150 710h420l-37 -106h-293l-54 -255h253l-39 -105h-237l-29 -138h309l-37 -106h-2l-3 -12q-5 -24 -15 -34.5t-36 -24.5q-23 -14 -30 -20.5t-9 -17.5q-3 -18 17 -18h76l-20 -58h-82q-74 0 -61 62z" />
    <glyph glyph-name="eogonek" unicode="&#x119;" horiz-adv-x="472" 
d="M70 -120l4 18q6 28 21 43.5t42 30.5q33 19 38 28q-89 1 -121 30.5t-16 104.5l53 247q17 79 55 104t124 25h48q103 0 136 -25t16 -104l-14 -59q-14 -68 -46 -95t-117 -27h-136l-11 -51q-6 -29 3.5 -43.5t38.5 -14.5h69q53 0 65 51l4 17h97l-6 -24q-16 -80 -52 -108
t-121 -28h-12l-2 -9q-6 -24 -15.5 -34.5t-35.5 -24.5q-23 -14 -30 -20.5t-9 -17.5q-4 -18 16 -18h76l-19 -58h-82q-74 0 -61 62zM333 420h-83q-47 0 -56 -45l-17 -83h129q25 0 37.5 9.5t17.5 30.5l9 43q5 23 -3 34t-34 11z" />
    <glyph glyph-name="Ecaron" unicode="&#x11a;" horiz-adv-x="497" 
d="M260 604l-54 -255h253l-39 -105h-237l-29 -138h309l-37 -106h-406l150 710h420l-37 -106h-293zM426 749h-66l-86 107h95l35 -53l59 53h93z" />
    <glyph glyph-name="ecaron" unicode="&#x11b;" horiz-adv-x="472" 
d="M188 92h69q53 0 65 51l4 17h97l-6 -24q-16 -80 -52 -108t-121 -28h-59q-95 0 -129.5 29t-17.5 106l53 247q17 79 55 104t124 25h48q103 0 136 -25t16 -104l-14 -59q-14 -68 -46 -95t-117 -27h-136l-11 -51q-6 -29 3.5 -43.5t38.5 -14.5zM333 420h-83q-47 0 -56 -45
l-17 -83h129q25 0 37.5 9.5t17.5 30.5l9 43q5 23 -3 34t-34 11zM363 579h-66l-86 107h95l35 -53l59 53h93z" />
    <glyph glyph-name="Gcircumflex" unicode="&#x11c;" horiz-adv-x="579" 
d="M311 267l39 106h226l-51 -238q-26 -135 -157 -135h-194q-158 0 -129 132l94 443q25 135 152 135h200q81 0 112.5 -32t17.5 -100l-16 -77h-112l8 39q7 34 -3.5 49t-42.5 15h-138q-61 0 -75 -67l-78 -367q-7 -34 4 -49t43 -15h134q63 0 76 62l21 99h-131zM409 854h60
l91 -105h-100l-34 40h-3l-51 -40h-98z" />
    <glyph glyph-name="gcircumflex" unicode="&#x11d;" horiz-adv-x="490" 
d="M93 381q15 71 57.5 99.5t125.5 28.5h56q40 0 72 -8l88 72l55 -69l-84 -67q3 -25 -4 -56l-23 -110q-15 -71 -55 -98.5t-120 -29.5l-1 -4h-33q-19 0 -27.5 -4.5t-11.5 -19.5l-1 -4q-3 -17 6 -21h147q67 0 92 -31t11 -94l-17 -80q-15 -71 -58.5 -98t-131.5 -27h-132
q-88 0 -119.5 27t-16.5 98l17 80q20 93 94 116q-1 9 2 27l3 11q6 28 20 39q-52 25 -34 113zM291 -1h-140q-29 0 -44.5 -15t-22.5 -48l-5 -22q-7 -33 2.5 -48t38.5 -15h140q54 0 67 63l5 22q7 33 -2.5 48t-38.5 15zM313 422h-55q-55 0 -70 -66l-13 -60q-13 -66 42 -66h55
q56 0 69 66l13 60q15 66 -41 66zM314 684h60l91 -105h-100l-34 40h-3l-51 -40h-98z" />
    <glyph glyph-name="Gbreve" unicode="&#x11e;" horiz-adv-x="579" 
d="M311 267l39 106h226l-51 -238q-26 -135 -157 -135h-194q-158 0 -129 132l94 443q25 135 152 135h200q81 0 112.5 -32t17.5 -100l-16 -77h-112l8 39q7 34 -3.5 49t-42.5 15h-138q-61 0 -75 -67l-78 -367q-7 -34 4 -49t43 -15h134q63 0 76 62l21 99h-131zM436 746h-32
q-60 0 -75.5 17.5t-2.5 75.5l3 13h61l-4 -15q-6 -33 28 -33h34q37 0 43 33l4 15h61l-3 -13q-13 -59 -34.5 -76t-82.5 -17z" />
    <glyph glyph-name="gbreve" unicode="&#x11f;" horiz-adv-x="490" 
d="M93 381q15 71 57.5 99.5t125.5 28.5h56q40 0 72 -8l88 72l55 -69l-84 -67q3 -25 -4 -56l-23 -110q-15 -71 -55 -98.5t-120 -29.5l-1 -4h-33q-19 0 -27.5 -4.5t-11.5 -19.5l-1 -4q-3 -17 6 -21h147q67 0 92 -31t11 -94l-17 -80q-15 -71 -58.5 -98t-131.5 -27h-132
q-88 0 -119.5 27t-16.5 98l17 80q20 93 94 116q-1 9 2 27l3 11q6 28 20 39q-52 25 -34 113zM291 -1h-140q-29 0 -44.5 -15t-22.5 -48l-5 -22q-7 -33 2.5 -48t38.5 -15h140q54 0 67 63l5 22q7 33 -2.5 48t-38.5 15zM313 422h-55q-55 0 -70 -66l-13 -60q-13 -66 42 -66h55
q56 0 69 66l13 60q15 66 -41 66zM339 576h-32q-60 0 -75.5 17.5t-2.5 75.5l2 13h61l-3 -15q-7 -33 28 -33h34q36 0 43 33l3 15h61l-2 -13q-13 -59 -34.5 -76t-82.5 -17z" />
    <glyph glyph-name="Gdotaccent" unicode="&#x120;" horiz-adv-x="579" 
d="M311 267l39 106h226l-51 -238q-26 -135 -157 -135h-194q-158 0 -129 132l94 443q25 135 152 135h200q81 0 112.5 -32t17.5 -100l-16 -77h-112l8 39q7 34 -3.5 49t-42.5 15h-138q-61 0 -75 -67l-78 -367q-7 -34 4 -49t43 -15h134q63 0 76 62l21 99h-131zM389 867h111
l-25 -116h-111z" />
    <glyph glyph-name="gdotaccent" unicode="&#x121;" horiz-adv-x="490" 
d="M93 381q15 71 57.5 99.5t125.5 28.5h56q40 0 72 -8l88 72l55 -69l-84 -67q3 -25 -4 -56l-23 -110q-15 -71 -55 -98.5t-120 -29.5l-1 -4h-33q-19 0 -27.5 -4.5t-11.5 -19.5l-1 -4q-3 -17 6 -21h147q67 0 92 -31t11 -94l-17 -80q-15 -71 -58.5 -98t-131.5 -27h-132
q-88 0 -119.5 27t-16.5 98l17 80q20 93 94 116q-1 9 2 27l3 11q6 28 20 39q-52 25 -34 113zM291 -1h-140q-29 0 -44.5 -15t-22.5 -48l-5 -22q-7 -33 2.5 -48t38.5 -15h140q54 0 67 63l5 22q7 33 -2.5 48t-38.5 15zM313 422h-55q-55 0 -70 -66l-13 -60q-13 -66 42 -66h55
q56 0 69 66l13 60q15 66 -41 66zM291 698h111l-25 -116h-111z" />
    <glyph glyph-name="Gcommaaccent" unicode="&#x122;" horiz-adv-x="579" 
d="M311 267l39 106h226l-51 -238q-26 -135 -157 -135h-194q-158 0 -129 132l94 443q25 135 152 135h200q81 0 112.5 -32t17.5 -100l-16 -77h-112l8 39q7 34 -3.5 49t-42.5 15h-138q-61 0 -75 -67l-78 -367q-7 -34 4 -49t43 -15h134q63 0 76 62l21 99h-131z" />
    <glyph glyph-name="gcommaaccent" unicode="&#x123;" horiz-adv-x="490" 
d="M93 381q15 71 57.5 99.5t125.5 28.5h56q40 0 72 -8l88 72l55 -69l-84 -67q3 -25 -4 -56l-23 -110q-15 -71 -55 -98.5t-120 -29.5l-1 -4h-33q-19 0 -27.5 -4.5t-11.5 -19.5l-1 -4q-3 -17 6 -21h147q67 0 92 -31t11 -94l-17 -80q-15 -71 -58.5 -98t-131.5 -27h-132
q-88 0 -119.5 27t-16.5 98l17 80q20 93 94 116q-1 9 2 27l3 11q6 28 20 39q-52 25 -34 113zM291 -1h-140q-29 0 -44.5 -15t-22.5 -48l-5 -22q-7 -33 2.5 -48t38.5 -15h140q54 0 67 63l5 22q7 33 -2.5 48t-38.5 15zM313 422h-55q-55 0 -70 -66l-13 -60q-13 -66 42 -66h55
q56 0 69 66l13 60q15 66 -41 66zM386 564h-138l85 226h55z" />
    <glyph glyph-name="Hcircumflex" unicode="&#x124;" horiz-adv-x="591" 
d="M132 0h-112l150 710h112l-74 -349h256l74 349h111l-150 -710h-111l54 256h-256zM411 854h60l91 -105h-100l-34 40h-3l-51 -40h-98z" />
    <glyph glyph-name="hcircumflex" unicode="&#x125;" horiz-adv-x="488" 
d="M197 368l-78 -368h-104l152 719l92 21h17l-57 -268q38 39 107 39h41q75 0 103.5 -31t15.5 -94l-83 -386h-104l75 356q7 34 -3.5 49t-42.5 15h-58q-58 0 -72 -52h-1zM393 697h60l90 -105h-100l-33 40h-3l-52 -40h-98z" />
    <glyph glyph-name="Hbar" unicode="&#x126;" horiz-adv-x="604" 
d="M138 0h-112l111 526h-65l35 91h50l19 93h112l-19 -93h255l19 93h112l-19 -93h66l-35 -91h-51l-111 -526h-112l54 256h-255zM249 526l-35 -165h255l35 165h-255z" />
    <glyph glyph-name="hbar" unicode="&#x127;" horiz-adv-x="489" 
d="M329 658l-31 -80h-55l-22 -105q38 38 106 38h42q74 0 102.5 -31t15.5 -94l-82 -386h-105l75 356q7 34 -3.5 49t-42.5 15h-57q-57 0 -73 -50l-78 -370h-105l122 578h-27l30 80h14l13 61l92 21h18l-18 -82h69z" />
    <glyph glyph-name="Itilde" unicode="&#x128;" horiz-adv-x="224" 
d="M132 0h-112l150 710h112zM322 846q38 0 49.5 -12t4.5 -48l-10 -45h-70l5 23q3 14 -11 14q-15 0 -30 -12l-20 -14q-18 -15 -74 -15q-39 0 -49.5 11.5t-2.5 48.5l9 44h70l-5 -23q-3 -14 10 -14q17 0 32 13l13 11q15 12 30 15t49 3z" />
    <glyph glyph-name="itilde" unicode="&#x129;" horiz-adv-x="231" 
d="M126 407h-62l21 98h166l-107 -505h-104zM301 676q38 0 49.5 -12t3.5 -48l-9 -45h-70l5 23q2 14 -11 14q-15 0 -30 -12l-20 -14q-20 -15 -74 -15q-39 0 -49.5 11.5t-2.5 48.5l9 44h70l-5 -23q-3 -14 10 -14q17 0 32 13l13 11q15 12 30 15t49 3z" />
    <glyph glyph-name="Imacron" unicode="&#x12a;" horiz-adv-x="224" 
d="M132 0h-112l150 710h112zM395 844l-35 -91h-239l34 91h240z" />
    <glyph glyph-name="imacron" unicode="&#x12b;" horiz-adv-x="231" 
d="M126 407h-62l21 98h166l-107 -505h-104zM374 674l-36 -91h-239l35 91h240z" />
    <glyph glyph-name="Ibreve" unicode="&#x12c;" horiz-adv-x="224" 
d="M132 0h-112l150 710h112zM252 746h-32q-60 0 -75.5 17.5t-2.5 75.5l3 13h61l-4 -15q-6 -33 28 -33h34q37 0 43 33l4 15h61l-3 -13q-13 -59 -34.5 -76t-82.5 -17z" />
    <glyph glyph-name="ibreve" unicode="&#x12d;" horiz-adv-x="231" 
d="M126 407h-62l21 98h166l-107 -505h-104zM230 576h-32q-60 0 -75.5 17.5t-2.5 75.5l2 13h61l-3 -15q-7 -33 28 -33h34q36 0 43 33l3 15h61l-2 -13q-13 -59 -34.5 -76t-82.5 -17z" />
    <glyph glyph-name="Iogonek" unicode="&#x12e;" horiz-adv-x="224" 
d="M-59 -124l4 18q6 29 20.5 44.5t41.5 29.5q33 18 41 32h-28l150 710h112l-150 -710h-29l-3 -13q-5 -24 -15 -34.5t-36 -24.5q-23 -14 -30 -20.5t-9 -17.5q-4 -18 16 -18h76l-19 -58h-82q-73 0 -60 62z" />
    <glyph glyph-name="iogonek" unicode="&#x12f;" horiz-adv-x="231" 
d="M-43 -120l4 18q6 28 20 43.5t42 30.5q33 19 38 28h-21l86 407h-62l21 98h166l-107 -505h-26l-2 -9q-6 -24 -15.5 -34.5t-35.5 -24.5q-23 -14 -30 -20.5t-9 -17.5q-4 -18 16 -18h76l-19 -58h-82q-73 0 -60 62zM164 627l25 121h117l-25 -121h-117z" />
    <glyph glyph-name="Idotaccent" unicode="&#x130;" horiz-adv-x="224" 
d="M189 793h111l-168 -793h-112l150 710h1z" />
    <glyph glyph-name="dotlessi" unicode="&#x131;" horiz-adv-x="231" 
d="M126 407h-62l21 98h166l-107 -505h-104z" />
    <glyph glyph-name="IJ" unicode="&#x132;" horiz-adv-x="593" 
d="M132 0h-112l150 710h112zM243 106h108q62 0 76 64l114 540h111l-119 -563q-31 -147 -174 -147h-152z" />
    <glyph glyph-name="Jcircumflex" unicode="&#x134;" horiz-adv-x="363" 
d="M13 106h108q62 0 76 64l114 540h111l-119 -563q-31 -147 -174 -147h-152zM368 854h60l91 -105h-100l-34 40h-3l-51 -40h-98z" />
    <glyph glyph-name="jcircumflex" unicode="&#x135;" horiz-adv-x="231" 
d="M126 407h-62l21 98h166l-125 -587q-26 -120 -149 -120h-75l36 98h30q50 0 60 52zM207 686h60l91 -105h-100l-34 40h-3l-51 -40h-98z" />
    <glyph glyph-name="Kcommaaccent" unicode="&#x136;" horiz-adv-x="537" 
d="M132 0h-112l150 710h112l-70 -330l318 330h123l-341 -355l201 -355h-126l-185 330zM200 -69h78l-17 -79l-77 -81h-17z" />
    <glyph glyph-name="kcommaaccent" unicode="&#x137;" horiz-adv-x="451" 
d="M509 505l-242 -256l136 -249h-114l-123 225l-47 -225h-104l152 719l92 21h17l-98 -461l216 226h115zM161 -51h82l-16 -72l-91 -111h-13z" />
    <glyph glyph-name="Lacute" unicode="&#x139;" horiz-adv-x="460" 
d="M282 710l-128 -604h288l-37 -106h-385l150 710h112zM269 750h-86l111 144h120z" />
    <glyph glyph-name="lacute" unicode="&#x13a;" horiz-adv-x="227" 
d="M180 94h18l-13 -99h-55q-119 0 -93 118l128 606l92 21h17l-76 -356h1l-51 -241q-10 -49 32 -49zM269 820h-86l110 144h120z" />
    <glyph glyph-name="Lcommaaccent" unicode="&#x13b;" horiz-adv-x="460" 
d="M282 710l-128 -604h288l-37 -106h-385l150 710h112zM159 -69h78l-17 -79l-77 -81h-17z" />
    <glyph glyph-name="lcommaaccent" unicode="&#x13c;" horiz-adv-x="227" 
d="M180 94h18l-13 -99h-55q-119 0 -93 118l128 606l92 21h17l-76 -356h1l-51 -241q-10 -49 32 -49zM53 -51h82l-16 -72l-91 -111h-13z" />
    <glyph glyph-name="Lcaron" unicode="&#x13d;" horiz-adv-x="467" 
d="M282 710l-128 -604h288l-37 -106h-385l150 710h112zM432 710h138l-95 -226h-55z" />
    <glyph glyph-name="lcaron" unicode="&#x13e;" horiz-adv-x="228" 
d="M180 94h18l-13 -99h-55q-119 0 -93 118l128 606l92 21h17l-76 -356h1l-51 -241q-10 -49 32 -49zM323 762h138l-95 -226h-55z" />
    <glyph glyph-name="Ldot" unicode="&#x13f;" horiz-adv-x="469" 
d="M282 710l-128 -604h288l-37 -106h-385l150 710h112zM356 262l26 121h117l-26 -121h-117z" />
    <glyph glyph-name="ldot" unicode="&#x140;" horiz-adv-x="337" 
d="M180 94h18l-13 -99h-55q-119 0 -93 118l128 606l92 21h17l-76 -356h1l-51 -241q-10 -49 32 -49zM240 306l25 121h117l-25 -121h-117z" />
    <glyph glyph-name="Lslash" unicode="&#x141;" 
d="M309 710l-65 -309l58 30l14 -83l-94 -48l-41 -194h288l-37 -106h-385l56 266l-9 59l24 12l79 373h112z" />
    <glyph glyph-name="lslash" unicode="&#x142;" horiz-adv-x="304" 
d="M234 94h18l-14 -99h-55q-118 0 -92 118l42 200l-97 -38l21 100l97 37l65 307l92 21h17l-61 -284l98 38l-22 -99l-97 -38l-45 -214q-10 -49 33 -49z" />
    <glyph glyph-name="Nacute" unicode="&#x143;" horiz-adv-x="605" 
d="M132 0h-112l150 710h112l151 -454q7 -22 11 -55l108 509h111l-150 -710h-111l-146 433q-10 29 -16 77zM440 750h-86l111 144h120z" />
    <glyph glyph-name="nacute" unicode="&#x144;" 
d="M14 0l102 484l86 21h16l-9 -42q41 48 115 48h42q145 0 119 -125l-83 -386h-105l75 356q7 34 -3.5 49t-42.5 15h-57q-28 0 -47.5 -14.5t-24.5 -37.5l-78 -368h-105zM362 580h-86l110 144h120z" />
    <glyph glyph-name="Ncommaaccent" unicode="&#x145;" horiz-adv-x="605" 
d="M132 0h-112l150 710h112l151 -454q7 -22 11 -55l108 509h111l-150 -710h-111l-146 433q-10 29 -16 77zM213 -36h82l-15 -72l-92 -111h-13z" />
    <glyph glyph-name="ncommaaccent" unicode="&#x146;" 
d="M14 0l102 484l86 21h16l-9 -42q41 48 115 48h42q145 0 119 -125l-83 -386h-105l75 356q7 34 -3.5 49t-42.5 15h-57q-28 0 -47.5 -14.5t-24.5 -37.5l-78 -368h-105zM159 -51h82l-16 -72l-91 -111h-13z" />
    <glyph glyph-name="Ncaron" unicode="&#x147;" horiz-adv-x="605" 
d="M132 0h-112l150 710h112l151 -454q7 -22 11 -55l108 509h111l-150 -710h-111l-146 433q-10 29 -16 77zM454 749h-66l-86 107h95l35 -53l59 53h93z" />
    <glyph glyph-name="ncaron" unicode="&#x148;" 
d="M14 0l102 484l86 21h16l-9 -42q41 48 115 48h42q145 0 119 -125l-83 -386h-105l75 356q7 34 -3.5 49t-42.5 15h-57q-28 0 -47.5 -14.5t-24.5 -37.5l-78 -368h-105zM374 579h-66l-86 107h95l35 -53l59 53h93z" />
    <glyph glyph-name="napostrophe" unicode="&#x149;" 
d="M14 0l102 484l86 21h16l-9 -42q41 48 115 48h42q145 0 119 -125l-83 -386h-105l75 356q7 34 -3.5 49t-42.5 15h-57q-28 0 -47.5 -14.5t-24.5 -37.5l-78 -368h-71l-25 -29h-13l7 29h-3z" />
    <glyph glyph-name="Eng" unicode="&#x14a;" horiz-adv-x="605" 
d="M209 -98h108q62 0 75 64l8 37l-144 430q-10 29 -16 77l-108 -510h-112l150 710h112l151 -454q6 -16 10 -50l64 300h2l43 204h111l-150 -710h-2l-13 -57q-30 -147 -174 -147h-152z" />
    <glyph glyph-name="eng" unicode="&#x14b;" 
d="M226 -104q49 0 59 52l87 408q7 34 -3.5 49t-42.5 15h-57q-28 0 -47.5 -14.5t-24.5 -37.5l-78 -368h-105l102 484l86 21h16l-9 -42q41 48 115 48h42q145 0 119 -125l-83 -386l-18 -82q-26 -120 -149 -120h-76l36 98h31z" />
    <glyph glyph-name="Omacron" unicode="&#x14c;" horiz-adv-x="604" 
d="M46 142l14 69h1l76 357q15 73 55 107.5t112 34.5h196q87 0 119.5 -35t17.5 -107l-15 -74h-1l-75 -352q-16 -73 -55.5 -107.5t-110.5 -34.5h-197q-87 0 -120 35t-17 107zM471 604h-153q-62 0 -76 -65l-78 -368q-8 -34 3.5 -49.5t44.5 -15.5h153q61 0 75 65l10 47h1l68 321
q8 35 -3 50t-45 15zM581 844l-35 -91h-239l34 91h240z" />
    <glyph glyph-name="omacron" unicode="&#x14d;" horiz-adv-x="493" 
d="M240 511h125q157 0 125 -135l-52 -244q-28 -132 -156 -132h-126q-146 0 -118 132l51 244q15 69 51 102t100 33zM340 416h-83q-29 0 -44.5 -14t-21.5 -44l-44 -206q-7 -31 3 -44t39 -13h83q28 0 43.5 13.5t22.5 43.5l44 206q6 30 -3.5 44t-38.5 14zM492 674l-36 -91h-239
l35 91h240z" />
    <glyph glyph-name="Obreve" unicode="&#x14e;" horiz-adv-x="604" 
d="M46 142l14 69h1l76 357q15 73 55 107.5t112 34.5h196q87 0 119.5 -35t17.5 -107l-15 -74h-1l-75 -352q-16 -73 -55.5 -107.5t-110.5 -34.5h-197q-87 0 -120 35t-17 107zM471 604h-153q-62 0 -76 -65l-78 -368q-8 -34 3.5 -49.5t44.5 -15.5h153q61 0 75 65l10 47h1l68 321
q8 35 -3 50t-45 15zM441 746h-32q-60 0 -75.5 17.5t-2.5 75.5l3 13h61l-4 -15q-6 -33 28 -33h34q37 0 43 33l4 15h61l-3 -13q-13 -59 -34.5 -76t-82.5 -17z" />
    <glyph glyph-name="obreve" unicode="&#x14f;" horiz-adv-x="493" 
d="M240 511h125q157 0 125 -135l-52 -244q-28 -132 -156 -132h-126q-146 0 -118 132l51 244q15 69 51 102t100 33zM340 416h-83q-29 0 -44.5 -14t-21.5 -44l-44 -206q-7 -31 3 -44t39 -13h83q28 0 43.5 13.5t22.5 43.5l44 206q6 30 -3.5 44t-38.5 14zM351 576h-32
q-60 0 -75.5 17.5t-2.5 75.5l2 13h61l-3 -15q-7 -33 28 -33h34q36 0 43 33l3 15h61l-2 -13q-13 -59 -34.5 -76t-82.5 -17z" />
    <glyph glyph-name="Ohungarumlaut" unicode="&#x150;" horiz-adv-x="604" 
d="M46 142l14 69h1l76 357q15 73 55 107.5t112 34.5h196q87 0 119.5 -35t17.5 -107l-15 -74h-1l-75 -352q-16 -73 -55.5 -107.5t-110.5 -34.5h-197q-87 0 -120 35t-17 107zM471 604h-153q-62 0 -76 -65l-78 -368q-8 -34 3.5 -49.5t44.5 -15.5h153q61 0 75 65l10 47h1l68 321
q8 35 -3 50t-45 15zM430 903h95l-130 -153h-66zM539 903h94l-131 -153h-64z" />
    <glyph glyph-name="ohungarumlaut" unicode="&#x151;" horiz-adv-x="493" 
d="M240 511h125q157 0 125 -135l-52 -244q-28 -132 -156 -132h-126q-146 0 -118 132l51 244q15 69 51 102t100 33zM340 416h-83q-29 0 -44.5 -14t-21.5 -44l-44 -206q-7 -31 3 -44t39 -13h83q28 0 43.5 13.5t22.5 43.5l44 206q6 30 -3.5 44t-38.5 14zM341 732h95l-130 -153
h-66zM450 732h94l-131 -153h-64z" />
    <glyph glyph-name="OE" unicode="&#x152;" horiz-adv-x="883" 
d="M645 604l-4 -16q0 -1 -1 -8.5t-2 -11.5l-15 -74h-1l-31 -145h253l-39 -105h-237l-5 -26h1l-16 -76q-4 -18 -7 -27l-2 -9h309l-37 -106h-406v1q-8 -1 -24 -1h-198q-87 0 -120 35t-17 107l14 69h1l76 357q15 73 55 107.5t112 34.5h197q22 0 54 -4v4h420l-37 -106h-293z
M473 604h-155q-62 0 -76 -65l-78 -368q-8 -34 3.5 -49.5t44.5 -15.5h155q53 0 70 46l86 406q2 24 -10 35t-40 11z" />
    <glyph glyph-name="oe" unicode="&#x153;" horiz-adv-x="770" 
d="M486 92h69q53 0 65 51l4 17h97l-6 -24q-16 -80 -52 -108t-121 -28h-59q-82 0 -116 19q-34 -19 -85 -19h-126q-146 0 -118 132l51 244q15 69 51 102t100 33h125q59 0 90 -18q35 18 113 18h48q103 0 136 -25t16 -104l-14 -59q-14 -68 -46 -95t-117 -27h-136l-11 -51
q-6 -29 3.5 -43.5t38.5 -14.5zM340 416h-83q-29 0 -44.5 -14t-21.5 -44l-44 -206q-7 -31 3 -44t39 -13h83q28 0 43.5 13.5t22.5 43.5l44 206q6 30 -3.5 44t-38.5 14zM631 420h-83q-47 0 -56 -45l-17 -83h129q25 0 37.5 9.5t17.5 30.5l9 43q5 23 -3 34t-34 11z" />
    <glyph glyph-name="Racute" unicode="&#x154;" horiz-adv-x="558" 
d="M20 0l150 710h293q163 0 135 -135l-42 -191q-29 -132 -154 -135l117 -249h-128l-117 249h-90l-52 -249h-112zM260 604l-53 -249h168q63 0 77 67l25 115q14 67 -49 67h-168zM408 750h-86l111 144h120z" />
    <glyph glyph-name="racute" unicode="&#x155;" horiz-adv-x="329" 
d="M376 425l-123 -34q-28 -8 -42.5 -20.5t-21.5 -36.5l-70 -334h-105l102 484l86 21h16l-13 -61q24 34 64 46l110 31h9zM257 574h-86l110 144h120z" />
    <glyph glyph-name="Rcommaaccent" unicode="&#x156;" horiz-adv-x="558" 
d="M20 0l150 710h293q163 0 135 -135l-42 -191q-29 -132 -154 -135l117 -249h-128l-117 249h-90l-52 -249h-112zM260 604l-53 -249h168q63 0 77 67l25 115q14 67 -49 67h-168zM225 -51h82l-16 -72l-91 -111h-13z" />
    <glyph glyph-name="rcommaaccent" unicode="&#x157;" horiz-adv-x="329" 
d="M376 425l-123 -34q-28 -8 -42.5 -20.5t-21.5 -36.5l-70 -334h-105l102 484l86 21h16l-13 -61q24 34 64 46l110 31h9zM100 -51h82l-16 -72l-91 -111h-13z" />
    <glyph glyph-name="Rcaron" unicode="&#x158;" horiz-adv-x="558" 
d="M20 0l150 710h293q163 0 135 -135l-42 -191q-29 -132 -154 -135l117 -249h-128l-117 249h-90l-52 -249h-112zM260 604l-53 -249h168q63 0 77 67l25 115q14 67 -49 67h-168zM420 749h-66l-86 107h95l35 -53l59 53h93z" />
    <glyph glyph-name="rcaron" unicode="&#x159;" horiz-adv-x="329" 
d="M376 425l-123 -34q-28 -8 -42.5 -20.5t-21.5 -36.5l-70 -334h-105l102 484l86 21h16l-13 -61q24 34 64 46l110 31h9zM271 574h-66l-86 107h95l35 -53l59 53h93z" />
    <glyph glyph-name="Sacute" unicode="&#x15a;" horiz-adv-x="536" 
d="M359 274l-151 75q-70 36 -88 61t-5 86l19 88q14 64 49 95t97 31h169q80 0 111.5 -31t15.5 -95l-18 -83h-111l10 46q7 31 -4 44t-39 13h-109q-30 0 -46 -13.5t-22 -44.5l-7 -29q-10 -49 34 -70l152 -76q69 -35 84 -52q24 -26 13 -75l-25 -119q-24 -125 -145 -125h-191
q-79 0 -109.5 31t-16.5 94l20 93h111l-12 -56q-11 -56 43 -56h131q55 0 66 56l9 43q10 47 -35 69zM415 750h-86l111 144h120z" />
    <glyph glyph-name="sacute" unicode="&#x15b;" horiz-adv-x="446" 
d="M313 420h-76q-44 0 -53 -43l-3 -12q-4 -20 5 -28t36 -17l103 -29q63 -16 80.5 -39t4.5 -83l-12 -57q-13 -63 -51 -87.5t-115 -24.5h-92q-85 0 -108 27.5t-8 100.5l6 29h97l-5 -21q-9 -45 35 -45h95q45 0 54 43l3 14q9 41 -37 55l-102 29q-73 19 -87.5 39.5t-0.5 82.5
l8 37q13 66 48 93t119 27h73q86 0 108.5 -28.5t6.5 -103.5l-6 -30h-97l5 26q11 45 -34 45zM330 580h-86l110 144h120z" />
    <glyph glyph-name="Scircumflex" unicode="&#x15c;" horiz-adv-x="535" 
d="M359 274l-151 75q-70 36 -88 61t-5 86l19 88q14 64 49 95t97 31h169q80 0 111.5 -31t15.5 -95l-18 -83h-111l10 46q7 31 -4 44t-39 13h-109q-30 0 -46 -13.5t-22 -44.5l-7 -29q-10 -49 34 -70l152 -76q69 -35 84 -52q24 -26 13 -75l-25 -119q-24 -125 -145 -125h-191
q-79 0 -109.5 31t-16.5 94l20 93h111l-12 -56q-11 -56 43 -56h131q55 0 66 56l9 43q10 47 -35 69zM385 854h60l91 -105h-100l-34 40h-3l-51 -40h-98z" />
    <glyph glyph-name="scircumflex" unicode="&#x15d;" horiz-adv-x="446" 
d="M313 420h-76q-44 0 -53 -43l-3 -12q-4 -20 5 -28t36 -17l103 -29q63 -16 80.5 -39t4.5 -83l-12 -57q-13 -63 -51 -87.5t-115 -24.5h-92q-85 0 -108 27.5t-8 100.5l6 29h97l-5 -21q-9 -45 35 -45h95q45 0 54 43l3 14q9 41 -37 55l-102 29q-73 19 -87.5 39.5t-0.5 82.5
l8 37q13 66 48 93t119 27h73q86 0 108.5 -28.5t6.5 -103.5l-6 -30h-97l5 26q11 45 -34 45zM302 684h60l91 -105h-100l-34 40h-3l-51 -40h-98z" />
    <glyph glyph-name="Scedilla" unicode="&#x15e;" horiz-adv-x="536" 
d="M228 -80l-23 10q-14 5 -18.5 13t-0.5 25l7 32h-41q-79 0 -109.5 31t-16.5 94l20 93h111l-12 -56q-11 -56 43 -56h131q55 0 66 56l9 43q10 47 -35 69l-151 75q-70 36 -88 61t-5 86l19 88q14 64 49 95t97 31h169q80 0 111.5 -31t15.5 -95l-18 -83h-111l10 46q7 31 -4 44
t-39 13h-109q-30 0 -46 -13.5t-22 -44.5l-7 -29q-10 -49 34 -70l152 -76q69 -35 84 -52q24 -26 13 -75l-25 -119q-24 -125 -145 -125h-84l-3 -12q-2 -12 11 -17l24 -10q26 -11 17 -51l-7 -35q-8 -38 -25 -49.5t-60 -11.5h-36q-46 0 -56.5 12t-1.5 53l3 17h61l-1 -5
q-2 -9 0.5 -12.5t12.5 -3.5h22q16 0 19 16l2 10q4 14 -13 19z" />
    <glyph glyph-name="scedilla" unicode="&#x15f;" horiz-adv-x="446" 
d="M180 -80l-23 10q-14 5 -18.5 13t-0.5 25l7 32h-5q-85 0 -108 27.5t-8 100.5l6 29h97l-5 -21q-9 -45 35 -45h95q45 0 54 43l3 14q9 41 -37 55l-102 29q-73 19 -87.5 39.5t-0.5 82.5l8 37q13 66 48 93t119 27h73q86 0 108.5 -28.5t6.5 -103.5l-6 -30h-97l5 26q11 45 -34 45
h-76q-44 0 -53 -43l-3 -12q-4 -20 5 -28t36 -17l103 -29q63 -16 80.5 -39t4.5 -83l-12 -57q-13 -63 -51 -87.5t-115 -24.5h-21l-3 -12q-2 -12 11 -17l24 -10q26 -11 17 -51l-7 -35q-8 -38 -25 -49.5t-60 -11.5h-36q-46 0 -56.5 12t-1.5 53l3 17h61l-1 -5q-2 -9 0.5 -12.5
t12.5 -3.5h22q16 0 19 16l2 10q4 14 -13 19z" />
    <glyph glyph-name="Scaron" unicode="&#x160;" horiz-adv-x="536" 
d="M359 274l-151 75q-70 36 -88 61t-5 86l19 88q14 64 49 95t97 31h169q80 0 111.5 -31t15.5 -95l-18 -83h-111l10 46q7 31 -4 44t-39 13h-109q-30 0 -46 -13.5t-22 -44.5l-7 -29q-10 -49 34 -70l152 -76q69 -35 84 -52q24 -26 13 -75l-25 -119q-24 -125 -145 -125h-191
q-79 0 -109.5 31t-16.5 94l20 93h111l-12 -56q-11 -56 43 -56h131q55 0 66 56l9 43q10 47 -35 69zM426 749h-66l-86 107h95l35 -53l59 53h93z" />
    <glyph glyph-name="scaron" unicode="&#x161;" horiz-adv-x="446" 
d="M313 420h-76q-44 0 -53 -43l-3 -12q-4 -20 5 -28t36 -17l103 -29q63 -16 80.5 -39t4.5 -83l-12 -57q-13 -63 -51 -87.5t-115 -24.5h-92q-85 0 -108 27.5t-8 100.5l6 29h97l-5 -21q-9 -45 35 -45h95q45 0 54 43l3 14q9 41 -37 55l-102 29q-73 19 -87.5 39.5t-0.5 82.5
l8 37q13 66 48 93t119 27h73q86 0 108.5 -28.5t6.5 -103.5l-6 -30h-97l5 26q11 45 -34 45zM344 579h-66l-86 107h95l35 -53l59 53h93z" />
    <glyph glyph-name="Tcommaaccent" unicode="&#x162;" horiz-adv-x="478" 
d="M560 604h-173l-128 -604h-112l128 604h-173l22 106h458zM151 -51h82l-16 -72l-91 -111h-13z" />
    <glyph glyph-name="Tcaron" unicode="&#x164;" horiz-adv-x="478" 
d="M560 604h-173l-128 -604h-112l128 604h-173l22 106h458zM394 749h-66l-86 107h95l35 -53l59 53h93z" />
    <glyph glyph-name="tcaron" unicode="&#x165;" horiz-adv-x="318" 
d="M371 505l-28 -98h-93l-53 -251q-13 -58 39 -58h38l-12 -98h-66q-136 0 -108 133l58 274h-74l29 98h66l17 80l108 60h9l-30 -140h100zM355 743h121l-83 -200h-49z" />
    <glyph glyph-name="Tbar" unicode="&#x166;" horiz-adv-x="481" 
d="M560 604h-173l-25 -115h44l-32 -88h-30l-85 -401h-112l85 401h-46l32 88h32l25 115h-173l22 106h458z" />
    <glyph glyph-name="Utilde" unicode="&#x168;" horiz-adv-x="580" 
d="M334 106q65 0 81 70l113 534h112l-121 -572q-30 -138 -163 -138h-175q-165 0 -135 138l122 572h111l-113 -534q-8 -37 4 -53.5t47 -16.5h117zM499 846q38 0 49.5 -12t4.5 -48l-10 -45h-70l5 23q4 14 -11 14t-30 -12l-20 -14q-18 -15 -74 -15q-39 0 -49.5 11.5t-2.5 48.5
l9 44h70l-5 -23q-3 -14 10 -14q17 0 32 13l13 11q15 12 30 15t49 3z" />
    <glyph glyph-name="utilde" unicode="&#x169;" 
d="M507 505l-107 -505h-75l-1 44q-48 -44 -122 -44h-53q-137 0 -108 132l79 373h104l-75 -350q-13 -64 49 -64h53q29 0 49 14.5t26 37.5l77 362h104zM411 676q38 0 49.5 -12t3.5 -48l-9 -45h-70l5 23q2 14 -11 14q-15 0 -30 -12l-20 -14q-20 -15 -74 -15q-39 0 -49.5 11.5
t-2.5 48.5l9 44h70l-5 -23q-3 -14 10 -14q17 0 32 13l13 11q15 12 30 15t49 3z" />
    <glyph glyph-name="Umacron" unicode="&#x16a;" horiz-adv-x="580" 
d="M334 106q65 0 81 70l113 534h112l-121 -572q-30 -138 -163 -138h-175q-165 0 -135 138l122 572h111l-113 -534q-8 -37 4 -53.5t47 -16.5h117zM571 844l-35 -91h-239l34 91h240z" />
    <glyph glyph-name="umacron" unicode="&#x16b;" 
d="M507 505l-107 -505h-75l-1 44q-48 -44 -122 -44h-53q-137 0 -108 132l79 373h104l-75 -350q-13 -64 49 -64h53q29 0 49 14.5t26 37.5l77 362h104zM481 674l-36 -91h-239l35 91h240z" />
    <glyph glyph-name="Ubreve" unicode="&#x16c;" horiz-adv-x="580" 
d="M334 106q65 0 81 70l113 534h112l-121 -572q-30 -138 -163 -138h-175q-165 0 -135 138l122 572h111l-113 -534q-8 -37 4 -53.5t47 -16.5h117zM430 746h-32q-60 0 -75.5 17.5t-2.5 75.5l3 13h61l-4 -15q-6 -33 28 -33h34q37 0 43 33l4 15h61l-3 -13q-13 -59 -34.5 -76
t-82.5 -17z" />
    <glyph glyph-name="ubreve" unicode="&#x16d;" 
d="M507 505l-107 -505h-75l-1 44q-48 -44 -122 -44h-53q-137 0 -108 132l79 373h104l-75 -350q-13 -64 49 -64h53q29 0 49 14.5t26 37.5l77 362h104zM340 576h-32q-60 0 -75.5 17.5t-2.5 75.5l2 13h61l-3 -15q-7 -33 28 -33h34q36 0 43 33l3 15h61l-2 -13q-13 -59 -34.5 -76
t-82.5 -17z" />
    <glyph glyph-name="Uring" unicode="&#x16e;" horiz-adv-x="580" 
d="M334 106q65 0 81 70l113 534h112l-121 -572q-30 -138 -163 -138h-175q-165 0 -135 138l122 572h111l-113 -534q-8 -37 4 -53.5t47 -16.5h117zM419 910h55q48 0 60 -15t2 -64l-6 -31q-11 -50 -28.5 -64.5t-65.5 -14.5h-56q-48 0 -60 15t-1 64l6 31q10 49 28 64t66 15z
M437 779q28 0 32 25l5 22q6 25 -22 25h-35q-26 0 -32 -25l-5 -22q-4 -25 22 -25h35z" />
    <glyph glyph-name="uring" unicode="&#x16f;" 
d="M507 505l-107 -505h-75l-1 44q-48 -44 -122 -44h-53q-137 0 -108 132l79 373h104l-75 -350q-13 -64 49 -64h53q29 0 49 14.5t26 37.5l77 362h104zM330 740h55q48 0 60 -15t2 -64l-7 -31q-10 -50 -27.5 -64.5t-65.5 -14.5h-56q-47 0 -59.5 15t-2.5 64l7 31q10 49 28 64
t66 15zM348 609q26 0 32 25l5 22q6 25 -22 25h-35q-26 0 -32 -25l-5 -22q-4 -25 22 -25h35z" />
    <glyph glyph-name="Uhungarumlaut" unicode="&#x170;" horiz-adv-x="580" 
d="M334 106q65 0 81 70l113 534h112l-121 -572q-30 -138 -163 -138h-175q-165 0 -135 138l122 572h111l-113 -534q-8 -37 4 -53.5t47 -16.5h117zM421 903h95l-130 -153h-66zM530 903h94l-131 -153h-64z" />
    <glyph glyph-name="uhungarumlaut" unicode="&#x171;" 
d="M507 505l-107 -505h-75l-1 44q-48 -44 -122 -44h-53q-137 0 -108 132l79 373h104l-75 -350q-13 -64 49 -64h53q29 0 49 14.5t26 37.5l77 362h104zM330 732h95l-130 -153h-66zM439 732h94l-131 -153h-64z" />
    <glyph glyph-name="Uogonek" unicode="&#x172;" horiz-adv-x="580" 
d="M120 -115l4 18q6 28 21 43.5t42 30.5q23 13 35 23h-41q-165 0 -135 138l122 572h111l-113 -534q-8 -37 4 -53.5t47 -16.5h117q65 0 81 70l113 534h112l-121 -572q-30 -138 -163 -138h-75l-1 -4q-6 -24 -15.5 -34.5t-35.5 -24.5q-23 -14 -30 -20.5t-9 -17.5q-4 -18 16 -18
h76l-19 -58h-82q-74 0 -61 62z" />
    <glyph glyph-name="uogonek" unicode="&#x173;" 
d="M215 -119l4 18q6 28 21 43.5t42 30.5q37 21 42 37v34q-48 -44 -122 -44h-53q-137 0 -108 132l79 373h104l-75 -350q-13 -64 49 -64h53q29 0 49 14.5t26 37.5l77 362h104l-107 -505h-23l-2 -8q-5 -24 -15 -34.5t-36 -24.5q-23 -14 -30 -20.5t-9 -17.5q-4 -18 16 -18h76
l-19 -58h-82q-74 0 -61 62z" />
    <glyph glyph-name="Wcircumflex" unicode="&#x174;" horiz-adv-x="860" 
d="M288 0h-116l-43 710h114l15 -507q0 -51 -1 -61q3 9 22 60l212 508h106l-3 -508q0 -41 -3 -62q11 33 23 61l232 509h113l-342 -710h-116l-3 469q0 8 2 21.5t5 30.5t4 24q-15 -62 -21 -76zM547 854h60l91 -105h-100l-34 40h-3l-51 -40h-98z" />
    <glyph glyph-name="wcircumflex" unicode="&#x175;" horiz-adv-x="725" 
d="M254 0h-129l-37 505h109l15 -388l168 388h107l1 -388l182 388h109l-249 -505h-129l-7 294l-1 25q-3 -14 -9 -25zM439 684h60l91 -105h-100l-34 40h-3l-51 -40h-98z" />
    <glyph glyph-name="Ycircumflex" unicode="&#x176;" horiz-adv-x="551" 
d="M296 0h-111l58 273l-127 437h112l79 -283q2 -14 5.5 -30t3.5 -23q7 20 29 52l198 284h119l-308 -434zM390 854h60l91 -105h-100l-34 40h-3l-51 -40h-98z" />
    <glyph glyph-name="ycircumflex" unicode="&#x177;" horiz-adv-x="465" 
d="M43 -127q27 0 46.5 14.5t39.5 54.5l28 55h-27l-44 508h109l23 -385l193 385h113l-304 -582q-47 -92 -89.5 -120t-117.5 -28h-71l36 98h65zM298 684h60l91 -105h-100l-34 40h-3l-51 -40h-98z" />
    <glyph glyph-name="Ydieresis" unicode="&#x178;" horiz-adv-x="551" 
d="M296 0h-111l58 273l-127 437h112l79 -283q2 -12 5.5 -28.5t3.5 -25.5q7 21 29 53l198 284h119l-308 -434zM292 846h88l-21 -100h-88zM460 846h88l-21 -100h-88z" />
    <glyph glyph-name="Zacute" unicode="&#x179;" horiz-adv-x="492" 
d="M558 613l-414 -507h319l-37 -106h-428l5 97l413 507h-290l6 106h431zM384 750h-86l111 144h120z" />
    <glyph glyph-name="zacute" unicode="&#x17a;" horiz-adv-x="413" 
d="M436 425l-303 -340h241l-29 -85h-348l6 80l304 340h-215l8 85h342zM312 580h-86l110 144h120z" />
    <glyph glyph-name="Zdotaccent" unicode="&#x17b;" horiz-adv-x="492" 
d="M558 613l-414 -507h319l-37 -106h-428l5 97l413 507h-290l6 106h431zM335 868h111l-25 -116h-111z" />
    <glyph glyph-name="zdotaccent" unicode="&#x17c;" horiz-adv-x="413" 
d="M436 425l-303 -340h241l-29 -85h-348l6 80l304 340h-215l8 85h342zM262 698h111l-25 -116h-111z" />
    <glyph glyph-name="Zcaron" unicode="&#x17d;" horiz-adv-x="492" 
d="M558 613l-414 -507h319l-37 -106h-428l5 97l413 507h-290l6 106h431zM397 749h-66l-86 107h95l35 -53l59 53h93z" />
    <glyph glyph-name="zcaron" unicode="&#x17e;" horiz-adv-x="413" 
d="M436 425l-303 -340h241l-29 -85h-348l6 80l304 340h-215l8 85h342zM325 579h-66l-86 107h95l35 -53l59 53h93z" />
    <glyph glyph-name="florin" unicode="&#x192;" horiz-adv-x="360" 
d="M378 642q-54 0 -66 -58l-20 -91h99l-37 -98h-83l-93 -440q-15 -73 -59.5 -106.5t-133.5 -33.5h-77l45 98h58q54 0 66 58l90 424h-91l37 98h75l23 107q15 73 60 106.5t134 33.5h78l-45 -98h-60z" />
    <glyph glyph-name="AEacute" unicode="&#x1fc;" horiz-adv-x="837" 
d="M933 710l-38 -106h-299l-26 -257h225l-37 -105h-198l-14 -136h255l-38 -106h-346l12 129h-253l-95 -129h-127l535 710h444zM470 524l-215 -289h185zM619 758h-86l110 144h120z" />
    <glyph glyph-name="aeacute" unicode="&#x1fd;" horiz-adv-x="743" 
d="M459 98h76q55 0 65 51l3 11h97l-6 -24q-16 -79 -54.5 -107.5t-126.5 -28.5h-72q-62 0 -94.5 13t-40.5 45q-24 -33 -52.5 -45.5t-75.5 -12.5h-58q-123 0 -98 120l16 73q23 112 146 112h161l14 64q7 44 -38 44h-75q-47 0 -57 -48l-2 -11h-98l8 40q26 117 141 117h134
q44 0 70 -16q41 16 107 16h72q85 0 114 -24t13 -98l-15 -73q-14 -64 -46 -89.5t-116 -25.5h-144l-9 -45q-12 -58 41 -58zM602 413h-62q-37 0 -55 -12t-25 -46l-13 -63h131q52 0 61 39l8 38q5 23 -6 33.5t-39 10.5zM162 98h80q59 0 72 59l12 57h-140q-48 0 -57 -49l-5 -23
q-6 -25 4 -34.5t34 -9.5zM487 571h-86l110 144h120z" />
    <glyph glyph-name="Oslashacute" unicode="&#x1fe;" horiz-adv-x="607" 
d="M612 757h122l-99 -120q7 -27 -2 -69l-15 -74h-1l-75 -352q-16 -73 -55.5 -107.5t-111.5 -34.5h-191q-43 0 -70 7l-44 -54h-120l94 116q-7 30 3 73l14 69h1l76 357q15 73 55 107.5t112 34.5h191q41 0 71 -8zM468 604h-149q-62 0 -76 -65l-66 -309l307 372q-8 2 -16 2z
M213 106h149q61 0 75 65l64 304l-305 -368q5 -1 17 -1zM400 750h-86l111 144h120z" />
    <glyph glyph-name="oslashacute" unicode="&#x1ff;" horiz-adv-x="500" 
d="M241 511h125q45 0 72 -10l44 48h100l-90 -98q10 -28 -1 -75l-52 -244q-14 -67 -52 -99.5t-104 -32.5h-126q-45 0 -69 10l-38 -41h-99l86 95q-7 26 2 68l51 244q15 69 51.5 102t99.5 33zM273 95q28 0 43.5 13.5t22.5 43.5l36 171l-208 -226q14 -2 23 -2h83zM341 416h-83
q-29 0 -44.5 -14t-21.5 -44l-35 -164l201 220q-10 2 -17 2zM355 580h-86l110 144h120z" />
    <glyph glyph-name="Scommaaccent" unicode="&#x218;" horiz-adv-x="536" 
d="M359 274l-151 75q-70 36 -88 61t-5 86l19 88q14 64 49 95t97 31h169q80 0 111.5 -31t15.5 -95l-18 -83h-111l10 46q7 31 -4 44t-39 13h-109q-30 0 -46 -13.5t-22 -44.5l-7 -29q-10 -49 34 -70l152 -76q69 -35 84 -52q24 -26 13 -75l-25 -119q-24 -125 -145 -125h-191
q-79 0 -109.5 31t-16.5 94l20 93h111l-12 -56q-11 -56 43 -56h131q55 0 66 56l9 43q10 47 -35 69zM190 -51h82l-16 -72l-91 -111h-13z" />
    <glyph glyph-name="scommaaccent" unicode="&#x219;" horiz-adv-x="447" 
d="M313 420h-76q-44 0 -53 -43l-3 -12q-4 -20 5 -28t36 -17l103 -29q63 -16 80.5 -39t4.5 -83l-12 -57q-13 -63 -51 -87.5t-115 -24.5h-92q-85 0 -108 27.5t-8 100.5l6 29h97l-5 -21q-9 -45 35 -45h95q45 0 54 43l3 14q9 41 -37 55l-102 29q-73 19 -87.5 39.5t-0.5 82.5
l8 37q13 66 48 93t119 27h73q86 0 108.5 -28.5t6.5 -103.5l-6 -30h-97l5 26q11 45 -34 45zM138 -51h82l-16 -72l-91 -111h-13z" />
    <glyph glyph-name="dotlessj" unicode="&#x237;" horiz-adv-x="231" 
d="M126 407h-62l21 98h166l-125 -587q-26 -120 -149 -120h-75l36 98h30q50 0 60 52z" />
    <glyph glyph-name="circumflex" unicode="&#x2c6;" horiz-adv-x="585" 
d="M343 730h60l90 -105h-100l-33 40h-3l-52 -40h-98z" />
    <glyph glyph-name="caron" unicode="&#x2c7;" horiz-adv-x="828" 
d="M383 625h-66l-85 107h95l35 -53l59 53h93z" />
    <glyph glyph-name="breve" unicode="&#x2d8;" horiz-adv-x="817" 
d="M468 581h-32q-60 0 -75.5 17.5t-2.5 75.5l3 13h61l-4 -15q-7 -33 28 -33h34q36 0 43 33l4 15h61l-3 -13q-13 -59 -34.5 -76t-82.5 -17z" />
    <glyph glyph-name="dotaccent" unicode="&#x2d9;" horiz-adv-x="816" 
d="M380 724h111l-24 -116h-111z" />
    <glyph glyph-name="ring" unicode="&#x2da;" horiz-adv-x="817" 
d="M423 703h55q48 0 60 -15t2 -64l-6 -31q-11 -50 -28.5 -64.5t-65.5 -14.5h-56q-48 0 -60 15t-1 64l6 31q10 49 28 64t66 15zM441 572q28 0 32 25l5 22q6 25 -22 25h-35q-26 0 -32 -25l-5 -22q-4 -25 22 -25h35z" />
    <glyph glyph-name="ogonek" unicode="&#x2db;" horiz-adv-x="817" 
d="M201 -119l4 18q6 28 21 43.5t42 30.5t34 23t11 26l4 16h54l-10 -46q-5 -24 -15 -34.5t-36 -24.5q-23 -14 -30 -20.5t-9 -17.5q-4 -18 16 -18h76l-19 -58h-82q-74 0 -61 62z" />
    <glyph glyph-name="tilde" unicode="&#x2dc;" horiz-adv-x="807" 
d="M468 717q38 0 49.5 -12t3.5 -48l-9 -45h-70l4 23q4 14 -11 14q-14 0 -29 -12l-20 -14q-20 -15 -74 -15q-39 0 -49.5 11.5t-3.5 48.5l10 44h70l-5 -23q-3 -14 10 -14q15 0 32 13l13 11q15 12 30 15t49 3z" />
    <glyph glyph-name="hungarumlaut" unicode="&#x2dd;" horiz-adv-x="256" 
d="M227 745h95l-131 -153h-66zM336 745h94l-132 -153h-64z" />
    <glyph glyph-name="Wgrave" unicode="&#x1e80;" horiz-adv-x="860" 
d="M288 0h-116l-43 710h114l15 -507q0 -51 -1 -61q3 9 22 60l212 508h106l-3 -508q0 -41 -3 -62q11 33 23 61l232 509h113l-342 -710h-116l-3 469q0 8 2 21.5t5 30.5t4 24q-15 -62 -21 -76zM435 875h108l56 -126h-71z" />
    <glyph glyph-name="wgrave" unicode="&#x1e81;" horiz-adv-x="725" 
d="M254 0h-129l-37 505h109l15 -388l168 388h107l1 -388l182 388h109l-249 -505h-129l-7 294l-1 25q-3 -14 -9 -25zM328 705h108l56 -126h-71z" />
    <glyph glyph-name="Wacute" unicode="&#x1e82;" horiz-adv-x="860" 
d="M288 0h-116l-43 710h114l15 -507q0 -51 -1 -61q3 9 22 60l212 508h106l-3 -508q0 -41 -3 -62q11 33 23 61l232 509h113l-342 -710h-116l-3 469q0 8 2 21.5t5 30.5t4 24q-15 -62 -21 -76zM577 750h-86l111 144h120z" />
    <glyph glyph-name="wacute" unicode="&#x1e83;" horiz-adv-x="725" 
d="M254 0h-129l-37 505h109l15 -388l168 388h107l1 -388l182 388h109l-249 -505h-129l-7 294l-1 25q-3 -14 -9 -25zM469 580h-86l110 144h120z" />
    <glyph glyph-name="Wdieresis" unicode="&#x1e84;" horiz-adv-x="860" 
d="M288 0h-116l-43 710h114l15 -507q0 -51 -1 -61q3 9 22 60l212 508h106l-3 -508q0 -39 -2 -60q7 23 22 59l232 509h113l-342 -710h-116l-3 469q0 8 2 21.5t5 30.5t4 24q-15 -62 -21 -76zM616 846h88l-21 -100h-88zM448 846h88l-21 -100h-88z" />
    <glyph glyph-name="wdieresis" unicode="&#x1e85;" horiz-adv-x="725" 
d="M254 0h-129l-37 505h109l15 -388l168 388h107l1 -388l182 388h109l-249 -505h-129l-7 294l-1 25q-3 -14 -9 -25zM342 676h88l-21 -100h-88zM510 676h88l-21 -100h-88z" />
    <glyph glyph-name="Ygrave" unicode="&#x1ef2;" horiz-adv-x="551" 
d="M296 0h-111l58 273l-127 437h112l79 -283q2 -12 5.5 -28.5t3.5 -25.5q7 21 29 53l198 284h119l-308 -434zM278 875h108l56 -126h-71z" />
    <glyph glyph-name="ygrave" unicode="&#x1ef3;" horiz-adv-x="465" 
d="M43 -127q27 0 46.5 14.5t39.5 54.5l28 55h-27l-44 508h109l23 -385l193 385h113l-304 -582q-47 -92 -89.5 -120t-117.5 -28h-71l36 98h65zM185 705h108l56 -126h-71z" />
    <glyph glyph-name="endash" unicode="&#x2013;" horiz-adv-x="481" 
d="M477 341l-36 -98h-385l36 98h385z" />
    <glyph glyph-name="emdash" unicode="&#x2014;" 
d="M525 341l-36 -98h-473l37 98h472z" />
    <glyph glyph-name="quoteleft" unicode="&#x2018;" horiz-adv-x="202" 
d="M240 494h-138l85 226h55z" />
    <glyph glyph-name="quoteright" unicode="&#x2019;" horiz-adv-x="194" 
d="M147 720h138l-95 -226h-55z" />
    <glyph glyph-name="quotesinglbase" unicode="&#x201a;" horiz-adv-x="180" 
d="M13 129h138l-95 -226h-55z" />
    <glyph glyph-name="quotedblleft" unicode="&#x201c;" horiz-adv-x="376" 
d="M414 494h-138l85 226h55zM240 494h-138l85 226h55z" />
    <glyph glyph-name="quotedblright" unicode="&#x201d;" horiz-adv-x="367" 
d="M320 720h138l-95 -226h-55zM147 720h138l-95 -226h-55z" />
    <glyph glyph-name="quotedblbase" unicode="&#x201e;" horiz-adv-x="353" 
d="M194 153h138l-95 -226h-55zM14 153h138l-95 -226h-55z" />
    <glyph glyph-name="dagger" unicode="&#x2020;" horiz-adv-x="390" 
d="M35 243l37 98h105l88 415l93 21h16l-93 -436h125l-37 -98h-109l-105 -493h-104l105 493h-121z" />
    <glyph glyph-name="daggerdbl" unicode="&#x2021;" horiz-adv-x="396" 
d="M62 355l37 98h104l64 303l93 21h17l-69 -324h125l-37 -98h-109l-30 -141h125l-37 -98h-109l-78 -366h-105l78 366h-120l37 98h104l30 141h-120z" />
    <glyph glyph-name="bullet" unicode="&#x2022;" horiz-adv-x="434" 
d="M73 130l58 270h261l-58 -270h-261z" />
    <glyph glyph-name="ellipsis" unicode="&#x2026;" horiz-adv-x="758" 
d="M147 -5l26 121h183l-26 -121h-183zM488 -5l26 121h117l-26 -121h-117z" />
    <glyph glyph-name="perthousand" unicode="&#x2030;" horiz-adv-x="1048" 
d="M766 257q18 83 106 83h97q88 0 70 -83l-37 -173q-18 -84 -105 -84h-97q-89 0 -71 84zM441 257q18 83 106 83h97q88 0 70 -83l-37 -173q-18 -84 -105 -84h-97q-89 0 -71 84zM553 273q-22 0 -31.5 -11t-15.5 -38l-25 -120q-9 -37 28 -37h59q21 0 30 11t15 38l26 120
q7 37 -27 37h-59zM878 273q-22 0 -32 -12t-16 -39l-25 -118q-9 -37 29 -37h58q22 0 31 11.5t16 39.5l25 118q7 37 -28 37h-58zM125 627q17 83 104 83h97q88 0 71 -83l-37 -173q-18 -84 -106 -84h-97q-87 0 -69 84zM294 643h-59q-36 0 -45 -37l-28 -132q-7 -37 29 -37h59
q36 0 43 37l28 132q9 37 -27 37zM131 0l459 710h79l-460 -710h-78z" />
    <glyph glyph-name="guilsinglleft" unicode="&#x2039;" horiz-adv-x="310" 
d="M254 69h-122l-89 183l167 183h122l-167 -183z" />
    <glyph glyph-name="guilsinglright" unicode="&#x203a;" horiz-adv-x="310" 
d="M136 69h-122l167 183l-89 183h122l89 -183z" />
    <glyph glyph-name="fraction" unicode="&#x2044;" horiz-adv-x="364" 
d="M-46 0l459 710h79l-460 -710h-78z" />
    <glyph glyph-name="foursuperior" unicode="&#x2074;" horiz-adv-x="255" 
d="M95 476l15 74q5 23 25 43l123 117h68l-144 -140q-15 -14 -18 -28l-3 -14h57l7 36l39 8h17l-9 -44h33l-18 -52h-26l-10 -47h-54l10 47h-112z" />
    <glyph glyph-name="Euro" unicode="&#x20ac;" horiz-adv-x="646" 
d="M424 323l-37 -98h-145l-11 -54q-15 -65 48 -65h139q61 0 75 65l8 40h112l-16 -76q-15 -75 -61.5 -105t-137.5 -30h-170q-74 0 -102 33.5t-14 101.5l19 90h-95l37 98h79l12 57h-95l37 98h79l21 97q28 135 172 135h170q91 0 124.5 -30t18.5 -105l-16 -74h-112l8 38
q7 34 -4 49.5t-43 15.5h-139q-62 0 -76 -65l-13 -61h197l-36 -98h-182l-12 -57h161z" />
    <glyph glyph-name="trademark" unicode="&#x2122;" horiz-adv-x="707" 
d="M691 350h-83l44 208l-58 -81h-64l-25 81l-44 -208h-81l76 360h81l45 -134l102 134h83zM409 633h-95l-60 -283h-80l60 283h-92l16 77h267z" />
    <glyph glyph-name="minus" unicode="&#x2212;" horiz-adv-x="515" 
d="M58 243l39 106h413l-38 -106h-414z" />
    <glyph glyph-name="commaaccent" unicode="&#xf6c3;" horiz-adv-x="490" 
d="M161 -51h82l-16 -72l-91 -111h-13z" />
    <glyph glyph-name="s_t" unicode="&#xfb06;" horiz-adv-x="812" 
d="M313 420h-76q-44 0 -53 -43l-3 -12q-4 -20 5 -28t36 -17l103 -29q63 -16 80.5 -39t4.5 -83l-12 -57q-13 -63 -51 -87.5t-115 -24.5h-92q-85 0 -108 27.5t-8 100.5l6 29h97l-5 -21q-9 -45 35 -45h95q45 0 54 43l3 14q9 41 -37 55l-102 29q-73 19 -87.5 39.5t-0.5 82.5
l8 37q13 66 48 93t119 27h73q86 0 108.5 -28.5t6.5 -103.5l-6 -30h-97l5 26q11 45 -34 45zM865 505l-28 -98h-93l-53 -251q-13 -58 39 -58h38l-12 -98h-66q-136 0 -108 133l58 274h-74l29 98h66l17 80l108 60h9l-30 -140h100z" />
    <glyph glyph-name="g.001" horiz-adv-x="504" 
d="M66 262l25 115q15 71 57 99.5t125 28.5h51q52 0 82 -10l109 87l59 -83l-105 -81q1 -29 -10 -77l-18 -84q-14 -66 -50 -96.5t-106 -31.5l-64 -2q-18 0 -24.5 -4.5t-9.5 -14.5l-1 -6q-2 -13 3.5 -18t27.5 -5h101q82 0 112 -27t14 -100l-12 -57q-17 -81 -55 -112.5
t-127 -31.5h-140q-96 0 -118 30t-4 113l12 55q12 56 30.5 81.5t61.5 35.5q-24 10 -19 33l1 7q3 15 10.5 22t25.5 12q-41 10 -49 45t5 77zM155 -158h91q40 0 58 12t25 46l7 30q8 38 -7 48t-54 10h-92q-48 0 -61.5 -10t-22.5 -52l-6 -26q-7 -33 6.5 -45.5t55.5 -12.5zM304 414
h-48q-54 0 -67 -65l-14 -63q-8 -38 4 -52t49 -14h23q54 0 68 11.5t24 59.5l11 51q9 42 -1 57t-49 15z" />
    <glyph glyph-name="i.001" horiz-adv-x="331" 
d="M109 396h-47l21 98h54q80 0 109 -29t14 -99l-46 -216q-12 -58 42 -58h45l-21 -98h-52q-81 0 -110 28.5t-14 99.5l46 216q12 58 -41 58zM196 583l26 121h117l-26 -121h-117z" />
    <glyph glyph-name="G.001" horiz-adv-x="578" 
d="M316 270l22 105h237l-52 -244q-14 -69 -56 -102t-117 -33h-190q-75 0 -102.5 33.5t-13.5 101.5l95 444q14 68 55.5 101.5t116.5 33.5h190q76 0 103.5 -33.5t13.5 -101.5l-24 -110h-111l16 74q9 39 -5.5 52t-56.5 13h-119q-36 0 -53.5 -19t-26.5 -63l-75 -355
q-15 -66 48 -66h133q33 0 50.5 16t25.5 50l22 103h-126z" />
    <glyph glyph-name="P.slt" horiz-adv-x="532" 
d="M130 0h-111l123 582q15 73 61.5 100.5t141.5 27.5h131q72 0 98.5 -31.5t12.5 -96.5l-34 -163q-21 -96 -59 -135t-130 -39h-120q-33 0 -52 -21t-26 -54zM315 604q-35 0 -49.5 -17.5t-24.5 -61.5l-45 -212q16 23 36.5 30.5t54.5 7.5h85q55 0 67 58l27 127q9 39 -1.5 53.5
t-47.5 14.5h-102z" />
    <glyph glyph-name="N.001" horiz-adv-x="562" 
d="M315 604q-57 0 -70 -62l-115 -542h-111l123 579q27 131 166 131h175q138 0 111 -131l-123 -579h-112l115 542q7 33 -3 47.5t-40 14.5h-116z" />
    <glyph glyph-name="S.bd" horiz-adv-x="566" 
d="M386 307h-176q-72 0 -98.5 31.5t-12.5 95.5l31 148q27 128 165 128h204q71 0 98 -31.5t13 -96.5l-17 -81h-112l10 45q12 58 -42 58h-148q-55 0 -67 -58l-16 -75q-13 -59 42 -59h176q71 0 98 -31.5t13 -95.5l-35 -163q-27 -128 -165 -128h-204q-72 0 -98.5 31.5
t-12.5 96.5l19 89h111l-11 -53q-6 -30 4 -44t39 -14h148q54 0 66 58l19 91q13 58 -41 58z" />
    <glyph glyph-name="N.bd" horiz-adv-x="596" 
d="M21 1l148 698h111l-17 -79q-3 -6 -1 -11.5t1.5 -8t4.5 -6t7 -4.5t9 -4t10 -5l200 -98l46 216h112l-148 -698h-112l72 341q3 6 1 11.5t-1.5 8t-4.5 6t-7 4.5t-8.5 4t-10.5 5l-200 98l-101 -478h-111z" />
    <glyph glyph-name="T.002" horiz-adv-x="536" 
d="M609 604h-197l-128 -604h-112l128 604h-202l37 106h512z" />
    <glyph glyph-name="I.bd" horiz-adv-x="378" 
d="M231 106h108l-22 -106h-327l21 106h108l106 498h-108l22 106h328l-22 -106h-108z" />
    <glyph glyph-name="Z.bd" horiz-adv-x="533" 
d="M432 383l-250 -162q-46 -30 -51 -55l-4 -16q-6 -28 5.5 -39t44.5 -11h304l-23 -106h-333q-142 0 -115 125l13 62q2 11 6 20.5t11 19.5t11.5 17t16.5 16.5t17 14.5t20.5 15.5t20 13.5t23.5 15t23 14l249 161q28 17 37.5 27t12.5 26l3 13q11 50 -49 50h-274l22 106h303
q142 0 116 -125l-12 -58q-3 -12 -8 -23.5t-10 -20t-16.5 -19t-17 -16t-22 -17t-22.5 -15.5t-26.5 -17t-25.5 -16z" />
    <glyph glyph-name="V.bd" horiz-adv-x="621" 
d="M309 161l319 539l96 -40l-394 -662h-113l-111 662l112 40z" />
    <glyph glyph-name="X.bd" horiz-adv-x="531" 
d="M314 396l218 308l96 -40l-233 -314l100 -315l-112 -39l-92 294l-216 -294l-95 39l233 315l-98 314l111 40z" />
    <glyph glyph-name="a.001" horiz-adv-x="473" 
d="M300 0l2 51q-23 -30 -49 -40.5t-72 -10.5h-45q-72 0 -100 29t-14 91l16 73q22 112 126 112h183l13 59q10 49 -37 49h-76q-49 0 -59 -48l-2 -11h-97l8 40q24 117 126 117h136q137 0 112 -117l-83 -394h-88zM169 98h75q31 0 48 14t24 45l12 57h-146q-26 0 -37.5 -12
t-15.5 -37l-5 -23q-6 -26 5.5 -35t39.5 -9z" />
    <glyph glyph-name="G.002" horiz-adv-x="564" 
d="M327 267l23 106h216l-52 -242q-15 -68 -56 -101.5t-116 -33.5h-183q-143 0 -115 132l95 447q29 135 167 135h326l-38 -106h-278q-60 0 -74 -67l-79 -371q-8 -34 3.5 -49.5t42.5 -15.5h124q33 0 51 15.5t26 50.5l21 100h-104z" />
    <glyph glyph-name="o.001" horiz-adv-x="816" 
 />
    <glyph glyph-name="i.002" horiz-adv-x="242" 
d="M136 406h-69l17 79l93 20h84l-107 -505h-104zM179 627l25 121h117l-25 -121h-117z" />
    <glyph glyph-name="u.bd" horiz-adv-x="494" 
d="M407 0h-97l8 42q-46 -42 -124 -42h-52q-130 0 -103 125l76 359l85 21h24l-75 -350q-7 -34 4.5 -49t43.5 -15h60q61 0 74 47h1v4l72 342l86 21h24z" />
    <glyph glyph-name="w.bd" horiz-adv-x="710" 
d="M266 0h-128l-57 505h110l34 -388l112 218h107l17 -218l201 388h109l-269 -505h-129l-19 167z" />
    <glyph glyph-name="H.slt" horiz-adv-x="589" 
d="M132 0h-111l146 689l92 21h23l-77 -363h253l73 342l93 21h23l-150 -710h-112l51 241h-253z" />
    <glyph glyph-name="I.slt" horiz-adv-x="225" 
d="M132 0h-111l146 689l92 21h23z" />
    <glyph glyph-name="J.slt" horiz-adv-x="332" 
d="M90 106q61 0 75 64l93 440h1l17 79l92 21h23l-122 -577q-28 -133 -172 -133h-128l37 106h84z" />
    <glyph glyph-name="K.slt" horiz-adv-x="530" 
d="M132 0h-111l146 689l92 21h23l-65 -306l295 306h139l-342 -355l192 -355h-139l-165 306z" />
    <glyph glyph-name="L.slt" horiz-adv-x="451" 
d="M184 240h-1l-29 -134h278l-37 -106h-374l121 570h1l25 119l92 21h23z" />
    <glyph glyph-name="N.slt" horiz-adv-x="602" 
d="M510 0h-112l-164 484l-102 -484h-111l146 689l92 21h23l164 -481l98 460l92 21h24z" />
    <glyph glyph-name="M.slt" horiz-adv-x="680" 
d="M587 0h-111l102 483l-172 -248h-105l-67 249l-102 -484h-111l146 689l92 21h23l103 -330l227 307l14 3q16 3 45.5 10t42.5 10h23z" />
    <glyph glyph-name="U.slt" horiz-adv-x="583" 
d="M166 176q-16 -70 49 -70h124q33 0 52 16.5t27 53.5l109 513l92 21h23l-121 -572q-30 -138 -175 -138h-182q-147 0 -117 138l117 551l92 21h23z" />
    <glyph glyph-name="T.bd" horiz-adv-x="542" 
d="M624 604h-205l-128 -604h-112l128 604h-204l22 106h521z" />
    <glyph glyph-name="ampersand.001" horiz-adv-x="629" 
d="M42 180l13 63h1l5 23q24 111 108 134q-1 13 5 45l18 86h1l8 37q15 71 54 106t109 36h111q87 0 119.5 -35t17.5 -107l-26 -123q-15 -72 -55 -107t-110 -35l84 -106l10 9l43 36l56 -69l-42 -36l-12 -10l38 -46l-94 -81l-39 48q-37 -28 -63.5 -38t-63.5 -10h-166
q-88 0 -121 35t-16 107l8 38h-1zM200 106h153q27 0 55 15l-142 182h-23q-63 0 -76 -66l-14 -66q-8 -34 3 -49.5t44 -15.5zM478 468l14 64h1l1 7q8 34 -2.5 49t-41.5 16h-74q-56 -3 -69 -65l-8 -38h-1l-6 -27q-7 -35 3.5 -50.5t43.5 -15.5h66q58 0 74 60h-1z" />
    <glyph glyph-name="A.B" horiz-adv-x="579" 
d="M464 710l74 -710h-117l-5 58l-256 71l-65 -129h-116l317 604h-111l22 106h257zM375 549l-103 -201l122 -33zM222 251l-12 -24l196 -54l-2 27z" />
    <glyph glyph-name="B.s" horiz-adv-x="535" 
d="M21 0l150 710h188q147 0 119 -132l-18 -85q-9 -42 -23.5 -61t-43.5 -27q22 0 36.5 -1t32 -3t28.5 -6t22.5 -10t17.5 -15.5t10 -22.5t3.5 -30.5t-5.5 -39.5l-30 -142q-28 -135 -179 -135h-308zM200 320l-46 -214h168q68 0 83 66l17 81q15 67 -48 67h-174zM260 605
l-38 -180h72q48 0 59 53l15 70q12 57 -47 57h-61z" />
    <glyph glyph-name="C.s" horiz-adv-x="544" 
d="M248 306h108q33 0 50.5 16t25.5 50l4 19h111l-12 -55q-14 -68 -56 -101.5t-117 -33.5h-143q-87 0 -120 35t-17 107l36 168h1l12 57q15 73 55 107.5t112 34.5h172q75 0 102.5 -33.5t13.5 -101.5l-13 -61h-111l5 25q8 34 -3.5 49.5t-44.5 15.5h-107q-62 0 -76 -65l-8 -38
h-1l-19 -89h1l-8 -40q-8 -34 3 -50t44 -16zM489 106l-22 -106h-457l22 106h457z" />
    <glyph glyph-name="D.s" horiz-adv-x="594" 
d="M93 604l22 106h387q85 0 116.5 -38t14.5 -117l-42 -199q-17 -79 -64.5 -117t-132.5 -38h-297l86 403h-90zM531 106l-22 -106h-455l22 106h455zM452 604h-158l-63 -298h158q42 0 65.5 20.5t33.5 65.5l28 131q7 42 -8 61.5t-56 19.5z" />
    <glyph glyph-name="E.s.001" horiz-adv-x="500" 
d="M260 604l-29 -134h226l-37 -106h-211l-6 -27h198l-38 -106h-182l-27 -125h312l-38 -106h-407l150 710h422l-37 -106h-296z" />
    <glyph glyph-name="F.s.001" horiz-adv-x="478" 
d="M260 604l-29 -134h226l-37 -106h-211l-6 -27h198l-38 -106h-182l-49 -231h-111l150 710h412l-37 -106h-286z" />
    <glyph glyph-name="G.s" horiz-adv-x="527" 
d="M-5 -60l23 111h1l3 12q13 63 43.5 97t84.5 43l15 74q-84 26 -61 133l25 119h1l8 39q15 72 55 107t112 35h114q75 0 103 -33.5t14 -101.5l-37 -172q-14 -68 -56.5 -101.5t-117.5 -33.5h-58l-13 -62h104q87 0 119.5 -35t17.5 -108l-16 -74h-1l-10 -49q-15 -73 -55 -107.5
t-112 -34.5h-169q-87 0 -120 35t-17 107zM160 -96h127q31 0 48.5 14t25.5 45l17 81h2q4 29 -7.5 42.5t-42.5 13.5h-127q-62 0 -76 -65l-14 -66q-8 -34 3 -49.5t44 -15.5zM369 604h-50q-62 0 -76 -65l-8 -38h-1l-5 -22h1l-8 -40q-7 -33 2.5 -48.5t38.5 -16.5h57q61 0 75 65
l21 100q8 34 -3.5 49.5t-43.5 15.5z" />
    <glyph glyph-name="H.s" horiz-adv-x="577" 
d="M132 1h-111l151 710h111l-57 -266l228 -63l69 328h112l-150 -710h-112l30 142l-228 64zM204 339l-6 -28l227 -63l6 28z" />
    <glyph glyph-name="I.s" horiz-adv-x="502" 
d="M464 106l-22 -106h-454l22 106h169l106 498h-170l22 106h455l-22 -106h-173l-106 -498h173z" />
    <glyph glyph-name="J.s" horiz-adv-x="556" 
d="M312 106q33 0 51.5 16.5t26.5 53.5l61 288h-138l15 106h146l7 34h-197l14 106h317l-121 -572q-30 -138 -175 -138h-182q-146 0 -117 138l27 126h111l-19 -88q-16 -70 49 -70h124z" />
    <glyph glyph-name="K.s" horiz-adv-x="549" 
d="M531 710h123l-371 -406l243 -68l-50 -236h-111l34 160l-220 62l-47 -222h-111l150 710h111l-75 -354z" />
    <glyph glyph-name="L.s" horiz-adv-x="474" 
d="M276 710l-85 -404h288l-39 -105h-384l108 509h112zM428 106l-22 -106h-392l22 106h392z" />
    <glyph glyph-name="M.s" horiz-adv-x="677" 
d="M132 0h-112l150 710h116l121 -215l213 215h115l-150 -710h-111l80 378l-217 -211l-125 211zM253 571l-11 -49l126 -211l216 211l11 49l-217 -210z" />
    <glyph glyph-name="N.s" horiz-adv-x="596" 
d="M21 1l148 698h111l-17 -79q-3 -6 -1 -11.5t1.5 -8t4.5 -6t7 -4.5t9 -4t10 -5l200 -98l46 216h112l-148 -698h-112l72 341q3 6 1 11.5t-1.5 8t-4.5 6t-7 4.5t-8.5 4t-10.5 5l-200 98l-101 -478h-111z" />
    <glyph glyph-name="O.s" horiz-adv-x="567" 
d="M89 382l30 142h1l9 44q15 72 55.5 107t112.5 35h176q87 0 119.5 -35t17.5 -107l-15 -74h-2l-16 -74h1l-16 -76q-16 -73 -56 -108t-112 -35h-176q-87 0 -120 35.5t-16 107.5l8 38h-1zM458 382l30 142h1l3 15q7 34 -4 49.5t-43 15.5h-134q-62 0 -76 -65l-8 -38h-1l-19 -89
h1l-8 -39q-8 -34 3 -50t44 -16h135q61 0 75 66l2 9h-1zM498 106l-22 -106h-462l22 106h462z" />
    <glyph glyph-name="P.s" horiz-adv-x="533" 
d="M149 604l22 106h302q143 0 114 -132l-43 -205q-28 -132 -170 -132h-191l-51 -241h-111l73 347h271q62 0 76 64l27 129q14 64 -48 64h-271z" />
    <glyph glyph-name="Q.s" horiz-adv-x="578" 
d="M273 201h-64q-87 0 -120 35.5t-16 107.5l6 31h-1l29 136h1l12 57q15 72 55.5 107t112.5 35h190q87 0 119.5 -35t17.5 -107l-15 -74h-1l-16 -74h1l-16 -76q-15 -64 -47 -99l6 -2l-22 -106zM238 307h149q61 0 75 66v2h-1l29 136h1l6 28q8 35 -3 50t-44 15h-148
q-62 0 -76 -65l-8 -38h-1l-19 -89h1l-8 -39q-8 -34 3 -50t44 -16zM245 68l22 106l232 -65l-23 -106z" />
    <glyph glyph-name="R.s" horiz-adv-x="561" 
d="M421 -27l-116 268h-122l-51 -241h-111l73 347h165l-110 257l22 106h302q143 0 114 -132l-43 -205q-21 -101 -109 -125l91 -210zM420 604h-136l108 -254q39 11 49 61l27 129q14 64 -48 64z" />
    <glyph glyph-name="S.s" horiz-adv-x="535" 
d="M231 530q-3 -17 3.5 -26.5t26.5 -20.5l166 -85l-14 -66q62 -32 82.5 -54.5t10.5 -68.5l-18 -84q-27 -125 -161 -125h-190q-138 0 -111 125l18 86h111l-10 -49q-6 -29 4 -42.5t38 -13.5h131q55 0 66 56l5 24q4 20 -3 29.5t-28 19.5l-178 91l14 65q-51 27 -70.5 50.5
t-10.5 66.5l17 76q27 126 163 126h175q137 0 110 -126l-18 -83h-111l10 46q11 57 -41 57h-117q-29 0 -44.5 -13.5t-21.5 -44.5z" />
    <glyph glyph-name="T.s" horiz-adv-x="521" 
d="M280 0h-112l98 465h-157l23 106h429l-23 -106h-160zM595 604h-486l22 106h486z" />
    <glyph glyph-name="U.s" horiz-adv-x="564" 
d="M374 306q33 0 51 17t26 53l71 334h112l-78 -371q-30 -138 -176 -138h-183q-145 0 -115 138l78 371h111l-71 -334q-15 -70 50 -70h124zM496 106l-22 -106h-461l22 106h461z" />
    <glyph glyph-name="V.s" horiz-adv-x="494" 
d="M311 201h-115l-56 509h115l32 -348l180 348h116zM464 106l-22 -106h-460l21 106h461z" />
    <glyph glyph-name="W.s" horiz-adv-x="678" 
d="M170 710h112l-81 -381l212 195l130 -195l81 381h111l-150 -710h-115l-123 215l-211 -215h-116zM171 186l-9 -41l215 210l127 -210l9 41l-127 210z" />
    <glyph glyph-name="X.s" horiz-adv-x="580" 
d="M454 430l90 -430h-124l-66 313l-27 -31l60 -282h-123l-35 166l-141 -166h-122l239 282l-88 428h122l65 -312l27 31l-59 281h124l34 -164l139 164h123z" />
    <glyph glyph-name="Y.s" horiz-adv-x="580" 
d="M230 523l62 -90l9 43l-163 234h131l105 -152l164 152h132l-257 -233l-9 -42l95 88h132l-258 -233l-61 -290h-112l61 289l-162 234h131z" />
    <glyph glyph-name="Z.s" horiz-adv-x="525" 
d="M125 472l6 105h275l23 27h-296l7 106h437l-5 -97l-310 -372h260l-39 -105h-309l-24 -30h323l-38 -106h-433l5 97l312 375h-194z" />
    <glyph glyph-name="E.s" horiz-adv-x="498" 
d="M258 604l-29 -134h226l-38 -106h-322l73 346h423l-38 -106h-295zM426 0h-408l71 337h309l-37 -106h-182l-27 -125h312z" />
    <glyph glyph-name="F.s" horiz-adv-x="477" 
d="M258 604l-29 -134h226l-38 -106h-322l73 346h413l-38 -106h-285zM130 0h-112l71 337h309l-37 -106h-182z" />
    <glyph glyph-name="H.s.001" horiz-adv-x="575" 
d="M132 1h-111l151 710h111l-61 -284h240l60 283h111l-150 -710h-111l38 181h-240zM200 321l-8 -35h240l8 35h-240z" />
    <glyph glyph-name="L.s.001" horiz-adv-x="475" 
d="M282 710l-98 -464h286l-38 -106h-271l-7 -34h288l-37 -106h-384l150 710h111z" />
    <glyph glyph-name="Q.s.001" horiz-adv-x="561" 
d="M298 1h-105l42 200h-28q-87 0 -120 35.5t-16 107.5l35 167h1l12 57q15 73 55 107.5t112 34.5h190q87 0 119.5 -35t17.5 -107l-15 -74h-1l-16 -74h1l-16 -76q-16 -73 -56 -108t-112 -35h-58zM236 307h22l19 91h105l-19 -91h22q61 0 75 66v2h-1l29 136h1l6 28q8 35 -3 50
t-44 15h-148q-62 0 -76 -65l-8 -38h-1l-19 -89h1l-8 -39q-8 -34 3 -50t44 -16z" />
    <glyph glyph-name="A.s.001" horiz-adv-x="686" 
d="M402 710h113l48 -459h146l-23 -106h-113l16 -145h-117l-13 145h-240l-73 -145h-116l75 145h-113l23 106h146l186 353h-111l22 105h143zM425 549l-152 -298h177z" />
    <glyph glyph-name="N.s.001" horiz-adv-x="606" 
d="M132 0h-112l150 710h112l-10 -51l254 -72l26 123h111l-150 -710h-111l73 348l-254 71zM249 553l-6 -28l255 -71l6 28z" />
    <glyph glyph-name="O.s.001" horiz-adv-x="600" 
d="M46 142l14 69h1l76 357q15 73 55 107.5t112 34.5h191q87 0 119.5 -35t17.5 -107l-90 -426q-16 -73 -56 -107.5t-112 -34.5h-191q-87 0 -120 35t-17 107zM467 604h-149q-62 0 -76 -65l-78 -368q-8 -34 3.5 -49.5t44.5 -15.5h149q61 0 75 65l78 368q7 34 -4 49.5t-43 15.5z
M268 292l25 121h117l-25 -121h-117z" />
    <glyph glyph-name="N.s.002" horiz-adv-x="606" 
d="M132 0h-112l150 710h112l-10 -51l254 -72l26 123h111l-150 -710h-111l102 482l-255 71z" />
    <glyph glyph-name="C.spec" horiz-adv-x="640" 
d="M524 604h-123q-62 0 -76 -65l-12 -57l143 -40l-22 -106l-144 40l-6 -28l144 -40l-22 -105l-144 40l-15 -72q-8 -34 3.5 -49.5t44.5 -15.5h123q62 0 76 65l10 47h111l-16 -76q-16 -73 -55.5 -107.5t-110.5 -34.5h-166q-88 0 -121 35t-17 107l13 59h-1l15 71l-113 32
l22 105l114 -32l6 28l-114 32l23 106l114 -32l12 57q15 72 55.5 107t112.5 35h165q87 0 119.5 -35t17.5 -107l-15 -74h-112l9 45q8 35 -3 50t-45 15z" />
    <glyph glyph-name="A.sh" horiz-adv-x="580" 
d="M523 169l-397 112l169 323h-116l22 106h265zM113 252l413 -116l13 -136h-118l-6 56l-255 72l-64 -128h-117zM375 549l-102 -201l120 -33z" />
    <glyph glyph-name="H.sh" horiz-adv-x="575" 
d="M536 248l-438 121l72 341h111l-56 -265l228 -63l69 328h112zM131 1h-111l72 340l438 -121l-46 -220h-112l30 143l-228 63z" />
    <glyph glyph-name="M.sh" horiz-adv-x="678" 
d="M369 314l360 360l-143 -674h-112l88 418l-220 -232l-122 232l-88 -418h-112l143 674zM378 355l-208 355h113l122 -229l218 229h113z" />
    <glyph glyph-name="W.sh" horiz-adv-x="678" 
d="M593 36l-206 360l-360 -360l143 674h112l-88 -418l220 232l122 -232l88 418h112zM20 0l358 355l208 -355h-113l-122 229l-218 -229h-113z" />
    <glyph glyph-name="X.sh" horiz-adv-x="583" 
d="M230 173l-146 -173h-122l244 289l-87 421h124l148 -710h-124zM457 430l90 -430h-123l-148 710h123l34 -165l139 165h123z" />
    <glyph glyph-name="L.sh" horiz-adv-x="500" 
d="M461 73l-413 115l111 522h112l-94 -446l307 -84zM21 55l22 105l412 -114l-22 -106z" />
    <glyph glyph-name="B.sh" horiz-adv-x="541" 
d="M21 0l150 710h148q99 0 137.5 -25t24.5 -93l-17 -81q-14 -67 -63.5 -92.5t-148.5 -25.5h-37l-4 -19h175q31 0 51 -1.5t41 -6.5t31.5 -15t18.5 -26.5t7 -41.5t-8 -59l-14 -67q-33 -157 -184 -157h-308zM190 276l-36 -170h168q68 0 83 66l8 37q3 13 3 22.5t-2.5 16.5
t-6.5 12t-10.5 8t-14.5 5t-18 2.5t-21 0.5h-23h-14h-116zM263 619l-29 -135h61q59 0 71 57l5 21q6 30 -5 43.5t-42 13.5h-61z" />
    <glyph glyph-name="undercommaaccent" horiz-adv-x="182" 
d="M0 -69h78l-17 -79l-77 -81h-17z" />
    <glyph glyph-name="O.mon2.001" horiz-adv-x="596" 
d="M316 604q-61 0 -75 -65l-78 -368q-14 -65 47 -65h37l-22 -106h-65q-75 0 -102.5 33.5t-13.5 101.5l94 440q28 135 172 135h204q74 0 102 -33.5t14 -101.5l-94 -440q-28 -135 -172 -135h-68l22 106h40q60 0 74 65l78 368q8 34 -3.5 49.5t-42.5 15.5h-148z" />
    <glyph glyph-name="P.mon2.001" horiz-adv-x="556" 
d="M148 604l22 106h317q151 0 123 -132l-43 -205q-29 -132 -179 -132h-205l-51 -241h-112l113 533h112l-40 -186h174q71 0 85 64l27 129q7 33 -7 48.5t-50 15.5h-286z" />
    <glyph glyph-name="S.mon2.001" horiz-adv-x="552" 
d="M377 261l-157 71q-32 15 -42 20t-30.5 17.5t-25 20.5t-12 23t-6 33t6.5 42l21 96q27 126 168 126h58l-22 -106h-28q-32 0 -49 -13.5t-23 -44.5l-10 -43q-4 -20 4 -30.5t37 -23.5l201 -94q48 -23 58.5 -47t-1.5 -85l-21 -98q-27 -125 -165 -125h-57l22 106h25
q31 0 47.5 11.5t23.5 44.5l11 50q4 8 1.5 16t-2.5 11t-7 8t-11 7t-15 7zM438 604h-31l22 106h56q136 0 110 -126l-18 -83h-112l10 46q11 57 -37 57zM146 162q-11 -56 47 -56h39l-22 -106h-66q-144 0 -117 125l18 86h111z" />
    <glyph glyph-name="F.mon2.001" horiz-adv-x="504" 
d="M117 0h-111l113 533h111l-39 -184h272l-38 -105h-257zM134 604l22 106h453l-38 -106h-437z" />
    <glyph glyph-name="B.mon2.001" horiz-adv-x="540" 
d="M134 605l22 105h281q155 0 126 -135l-26 -119q-6 -28 -24.5 -51.5t-45.5 -31.5q38 -8 53 -36t8 -60l-30 -142q-28 -135 -182 -135h-310l113 532h111l-23 -107h156q56 0 69 60l11 53q15 67 -59 67h-250zM185 320l-46 -214h170q70 0 85 66l17 81q15 67 -49 67h-177z" />
    <glyph glyph-name="I.mon2.001" horiz-adv-x="225" 
d="M132 0h-111l150 710h111z" />
    <glyph glyph-name="E.mon2.001" horiz-adv-x="499" 
d="M428 0h-422l112 528h111l-38 -179h266l-38 -105h-251l-29 -138h327zM134 604l22 106h437l-38 -106h-421z" />
    <glyph glyph-name="Z.mon2.001" horiz-adv-x="522" 
d="M-4 0l4 97l395 436h136l-388 -427h347l-37 -106h-457zM589 604h-462l6 106h462z" />
    <glyph glyph-name="A.mon2.001" horiz-adv-x="573" 
d="M90 0h-118l119 236h301l-26 313l-125 -243h-112l214 404h115l73 -710h-120l-11 130h-247z" />
    <glyph glyph-name="V.mon2.001" horiz-adv-x="566" 
d="M304 0h-113l365 710h119zM119 710h119l34 -412l-94 -178z" />
    <glyph glyph-name="X.mon2.001" horiz-adv-x="492" 
d="M-30 0l509 710h124l-234 -326l82 -384h-126l-52 250l-179 -250h-124zM240 710l35 -187l-91 -119l-67 306h123z" />
    <glyph glyph-name="N.mon2.001" horiz-adv-x="584" 
d="M377 0l-221 710h127l143 -491l104 491h112l-150 -710h-115zM117 0h-110l116 554l70 -195z" />
    <glyph glyph-name="R.mon2.001" horiz-adv-x="541" 
d="M134 604l22 106h300q142 0 113 -132l-43 -205q-24 -113 -130 -129l120 -244h-128l-118 241h-102l-51 -241h-110l112 533h111l-40 -186h158q61 0 75 64l27 129q7 34 -4 49t-43 15h-269z" />
    <glyph glyph-name="G.mon2.001" horiz-adv-x="570" 
d="M163 170q-7 -33 4.5 -48.5t44.5 -15.5h28l-22 -106h-59q-144 0 -115 132l94 443q28 135 169 135h189q144 0 116 -132l-16 -77h-111l8 39q15 64 -49 64h-127q-62 0 -76 -67zM325 267l39 106h203l-51 -238q-16 -76 -62.5 -105.5t-140.5 -29.5h-24l22 106h25q63 0 76 62
l21 99h-108z" />
    <glyph glyph-name="C.mon2.001" horiz-adv-x="558" 
d="M212 106h25l-22 -106h-54q-76 0 -103.5 33.5t-13.5 101.5l94 440q14 69 56 102t117 33h181q76 0 104 -33.5t14 -101.5l-16 -74h-112l8 38q8 34 -3.5 49.5t-44.5 15.5h-124q-63 0 -77 -65l-78 -368q-8 -34 4 -49.5t45 -15.5zM342 0h-59l22 106h22q39 0 59 17.5t28 57.5
l6 30h112l-16 -76q-14 -68 -56 -101.5t-118 -33.5z" />
    <glyph glyph-name="D.mon2.001" horiz-adv-x="548" 
d="M424 604h-290l22 106h318q75 0 103.5 -33.5t14.5 -101.5l-94 -440q-28 -135 -174 -135h-318l113 533h112l-91 -427h178q62 0 76 65l78 368q8 34 -3.5 49.5t-44.5 15.5z" />
    <glyph glyph-name="H.mon2.001" horiz-adv-x="571" 
d="M117 0h-111l74 349h361l76 361h112l-150 -710h-112l51 243h-250zM267 710l-61 -289h-111l61 289h111z" />
    <glyph glyph-name="U.mon2.001" horiz-adv-x="580" 
d="M217 106h24l-22 -106h-53q-149 0 -119 138l121 572h111l-113 -534q-8 -37 4 -53.5t47 -16.5zM335 106h-23l-22 -106h52q147 0 177 138l121 572h-112l-113 -534q-8 -37 -27 -53.5t-53 -16.5z" />
    <glyph glyph-name="W.mon2.001" horiz-adv-x="767" 
d="M261 0h-110l290 707v3h112l-29 -549l216 549h120l-314 -710h-127l14 438zM134 710h120l3 -309l-107 -245z" />
    <glyph glyph-name="Y.mon2.001" horiz-adv-x="527" 
d="M284 0h-111l63 300l280 410h116l-287 -423zM244 710l50 -207l-86 -126l-86 333h122z" />
    <glyph glyph-name="L.mon2.001" horiz-adv-x="448" 
d="M386 0h-380l22 106h395zM267 710l-113 -533h-111l113 533h111z" />
    <glyph glyph-name="J.mon2.001" horiz-adv-x="434" 
d="M146 106q108 0 122 64l114 540h111l-122 -577q-28 -133 -221 -133h-175l37 106h134z" />
    <glyph glyph-name="Q.mon2.001" horiz-adv-x="596" 
d="M354 198l-20 -92h24q60 0 74 65l78 368q8 34 -3.5 49.5t-42.5 15.5h-40l22 106h68q74 0 102 -33.5t14 -101.5l-94 -440q-28 -135 -172 -135h-52l-22 -102h-104l22 102h-48q-75 0 -102.5 33.5t-13.5 101.5l94 440q28 135 172 135h65l-22 -106h-37q-61 0 -75 -65l-78 -368
q-8 -34 3.5 -49.5t43.5 -15.5h20l20 92h104z" />
    <glyph glyph-name="K.mon2.001" horiz-adv-x="515" 
d="M114 0h-111l71 341l425 369h139l-364 -324l214 -386h-139l-166 293l-8 -6zM264 710l-33 -158l-137 -117l58 275h112z" />
    <glyph glyph-name="M.mon2.001" horiz-adv-x="680" 
d="M588 0h-112l103 489l-167 -245h-129l-127 466h127l96 -319l230 319h129zM117 0h-110l114 545l63 -228z" />
    <glyph glyph-name="T.mon2.001" horiz-adv-x="541" 
d="M618 604h-511l22 106h511zM291 0h-113l113 533h113z" />
    <glyph glyph-name="O.mon2" horiz-adv-x="596" 
d="M44 135l94 440q28 135 172 135h204q74 0 102 -33.5t14 -101.5l-94 -440q-28 -135 -172 -135h-204q-75 0 -102.5 33.5t-13.5 101.5zM316 604q-61 0 -75 -65l-78 -368q-14 -65 47 -65h148q60 0 74 65l78 368q8 34 -3.5 49.5t-42.5 15.5h-148z" />
    <glyph glyph-name="P.mon2" horiz-adv-x="556" 
d="M20 0l150 710h317q151 0 123 -132l-43 -205q-29 -132 -179 -132h-205l-51 -241h-112zM260 604l-55 -257h174q71 0 85 64l27 129q7 33 -7 48.5t-50 15.5h-174z" />
    <glyph glyph-name="S.mon2" horiz-adv-x="553" 
d="M378 261l-174 79q-62 28 -85 52t-13 71l26 121q27 126 168 126h179q143 0 116 -126l-18 -83h-112l10 46q6 30 -5 43.5t-40 13.5h-122q-32 0 -48.5 -13.5t-22.5 -44.5l-10 -46q-5 -21 2 -29t30 -18l173 -79q46 -22 65 -34t29.5 -34.5t3.5 -56.5l-26 -124
q-27 -125 -165 -125h-195q-144 0 -117 125l18 86h112l-10 -49q-11 -56 46 -56h138q59 0 70 56l11 50q3 15 -1.5 24.5t-9.5 12.5t-23 12z" />
    <glyph glyph-name="F.mon2" horiz-adv-x="519" 
d="M260 604l-54 -255h272l-38 -105h-257l-51 -244h-112l150 710h454l-38 -106h-326z" />
    <glyph glyph-name="B.mon2" horiz-adv-x="558" 
d="M20 0l150 710h282q154 0 126 -135l-26 -119q-6 -28 -24.5 -51.5t-45.5 -31.5q38 -8 53 -36t8 -60l-30 -142q-28 -135 -182 -135h-311zM200 320l-46 -214h170q70 0 85 66l17 81q15 67 -49 67h-177zM260 605l-38 -180h156q56 0 69 60l11 53q15 67 -59 67h-139z" />
    <glyph glyph-name="I.mon2" horiz-adv-x="225" 
d="M132 0h-111l150 710h111z" />
    <glyph glyph-name="E.mon2" horiz-adv-x="514" 
d="M260 604l-54 -255h266l-38 -105h-251l-29 -138h326l-37 -106h-423l150 710h438l-38 -106h-310z" />
    <glyph glyph-name="Z.mon2" horiz-adv-x="521" 
d="M590 613l-447 -507h347l-37 -106h-457l4 97l447 507h-320l6 106h462z" />
    <glyph glyph-name="A.mon2" horiz-adv-x="573" 
d="M343 710h115l73 -710h-120l-11 130h-245l-65 -130h-118zM366 549l-157 -313h183z" />
    <glyph glyph-name="V.mon2" horiz-adv-x="567" 
d="M304 0h-114l-70 710h118l43 -549l275 549h120z" />
    <glyph glyph-name="X.mon2" horiz-adv-x="504" 
d="M242 710l62 -310l186 310h123l-229 -356l79 -354h-128l-57 294l-184 -294h-122l229 354l-84 356h125z" />
    <glyph glyph-name="N.mon2" horiz-adv-x="601" 
d="M132 0h-112l150 710h116l158 -487l103 487h112l-150 -710h-115l-158 491z" />
    <glyph glyph-name="R.mon2" horiz-adv-x="557" 
d="M20 0l150 710h301q141 0 113 -132l-43 -205q-24 -113 -132 -130l121 -243h-128l-118 241h-101l-51 -241h-112zM260 604l-55 -257h158q60 0 74 64l27 129q7 34 -3.5 49t-42.5 15h-158z" />
    <glyph glyph-name="G.mon2" horiz-adv-x="570" 
d="M325 267l39 106h203l-51 -238q-15 -68 -56 -101.5t-116 -33.5h-185q-144 0 -115 132l94 443q28 135 169 135h189q144 0 116 -132l-16 -77h-111l8 39q7 33 -4.5 48.5t-44.5 15.5h-127q-62 0 -76 -67l-78 -367q-7 -33 4.5 -48.5t44.5 -15.5h124q63 0 76 62l21 99h-108z" />
    <glyph glyph-name="C.mon2" horiz-adv-x="558" 
d="M212 106h124q62 0 76 65l8 40h112l-16 -76q-14 -68 -56 -101.5t-118 -33.5h-181q-76 0 -103.5 33.5t-13.5 101.5l94 440q14 69 56 102t117 33h181q76 0 104 -33.5t14 -101.5l-16 -74h-112l8 38q8 34 -3.5 49.5t-44.5 15.5h-124q-63 0 -77 -65l-78 -368q-8 -34 4 -49.5
t45 -15.5z" />
    <glyph glyph-name="D.mon2" horiz-adv-x="573" 
d="M20 0l150 710h319q147 0 118 -135l-94 -440q-28 -135 -174 -135h-319zM439 604h-178l-106 -498h178q62 0 76 65l78 368q8 34 -3.5 49.5t-44.5 15.5z" />
    <glyph glyph-name="H.mon2" horiz-adv-x="586" 
d="M132 0h-112l150 710h112l-76 -361h250l76 361h112l-150 -710h-112l51 243h-250z" />
    <glyph glyph-name="U.mon2" horiz-adv-x="590" 
d="M344 106q34 0 53 16.5t27 53.5l113 534h112l-121 -572q-30 -138 -177 -138h-185q-149 0 -119 138l121 572h111l-113 -534q-16 -70 51 -70h127z" />
    <glyph glyph-name="W.mon2" horiz-adv-x="768" 
d="M276 0h-127l-15 710h120l-16 -549l204 549h112l-29 -549l216 549h120l-314 -710h-127l12 401z" />
    <glyph glyph-name="Y.mon2" horiz-adv-x="527" 
d="M284 0h-111l60 284l-111 426h122l70 -307l195 307h123l-288 -427z" />
    <glyph glyph-name="L.mon2" horiz-adv-x="515" 
d="M282 710l-128 -604h340l-37 -106h-437l150 710h112z" />
    <glyph glyph-name="J.mon2" horiz-adv-x="434" 
d="M146 106q108 0 122 64l114 540h111l-122 -577q-28 -133 -221 -133h-175l37 106h134z" />
    <glyph glyph-name="Q.mon2" horiz-adv-x="596" 
d="M44 135l94 440q28 135 172 135h204q74 0 102 -33.5t14 -101.5l-94 -440q-28 -135 -172 -135h-52l-22 -102h-104l22 102h-48q-75 0 -102.5 33.5t-13.5 101.5zM316 604q-61 0 -75 -65l-78 -368q-14 -65 47 -65h20l20 92h104l-20 -92h24q60 0 74 65l78 368q8 34 -3.5 49.5
t-42.5 15.5h-148z" />
    <glyph glyph-name="K.mon2" horiz-adv-x="534" 
d="M132 0h-112l150 710h112l-65 -307l300 307h139l-346 -355l196 -355h-139l-170 306z" />
    <glyph glyph-name="M.mon2" horiz-adv-x="695" 
d="M603 0h-111l108 510l-169 -226h-119l-72 226l-108 -510h-112l150 710h129l95 -320l231 320h128z" />
    <glyph glyph-name="T.mon2" horiz-adv-x="541" 
d="M618 604h-199l-128 -604h-113l128 604h-199l22 106h511z" />
    <glyph glyph-name="K.mon2.002" horiz-adv-x="547" 
d="M117 0h-110l84 402h213l235 308h123l-263 -357l113 -353h-130l-98 296h-105zM267 710l-50 -236h-111l50 236h111z" />
    <glyph glyph-name="A.ae" horiz-adv-x="591" 
d="M353 710h114l80 -673l-113 -37l-15 130h-266l-68 -130l-98 37zM376 549l-166 -313h199z" />
    <glyph glyph-name="K.ae" horiz-adv-x="503" 
d="M132 0h-112l150 710h112l-65 -306l304 313l84 -66l-296 -296l166 -302l-108 -60l-170 313z" />
    <glyph glyph-name="M.ae" horiz-adv-x="677" 
d="M585 0h-111l104 491l-173 -247h-103l-66 247l-104 -491h-112l150 710h116l99 -318l235 318h115z" />
    <glyph glyph-name="R.ae" horiz-adv-x="551" 
d="M20 0l150 710h303q143 0 114 -132l-43 -205q-24 -113 -134 -130l96 -200l-103 -50l-118 248h-102l-51 -241h-112zM260 604l-55 -257h160q61 0 75 64l27 129q7 34 -4 49t-43 15h-160z" />
    <glyph glyph-name="V.ae" horiz-adv-x="589" 
d="M316 0h-115l-80 673l113 37l58 -549l291 549l99 -37l-367 -672z" />
    <glyph glyph-name="W.ae" horiz-adv-x="930" 
d="M658 0h-115l-42 343l-186 -342l1 -1h-115l-80 673l113 37l58 -549l291 549l99 -37l-86 -156l38 -356l290 549l99 -37l-366 -672z" />
    <glyph glyph-name="X.ae" horiz-adv-x="518" 
d="M531 729l85 -56l-250 -306l126 -321l-109 -56l-105 269l-220 -269l-84 56l261 320l-119 307l108 56l99 -255z" />
    <glyph glyph-name="Y.ae" horiz-adv-x="545" 
d="M293 0h-112l67 318l-125 362l107 49l98 -300l223 300l87 -49l-278 -362z" />
    <glyph glyph-name="A.SC" horiz-adv-x="529" 
d="M300 604h112l76 -604h-117l-13 103h-218l-54 -103h-116zM322 440l-124 -231h149z" />
    <glyph glyph-name="B.SC" horiz-adv-x="518" 
d="M17 0l128 604h259q139 0 113 -115l-20 -95q-13 -64 -66 -77q43 -1 59.5 -21t6.5 -65l-25 -116q-24 -115 -159 -115h-296zM184 265l-34 -159h154q55 0 65 47l13 63q11 49 -44 49h-154zM233 497l-27 -127h125q49 0 59 47l7 34q10 46 -46 46h-118z" />
    <glyph glyph-name="C.SC" horiz-adv-x="518" 
d="M198 106h110q51 0 61 47l7 34h111l-15 -72q-24 -115 -157 -115h-168q-133 0 -109 115l79 374q26 115 158 115h168q134 0 108 -115l-14 -70h-111l6 32q10 46 -41 46h-110q-51 0 -61 -46l-63 -298q-10 -47 41 -47z" />
    <glyph glyph-name="D.SC" horiz-adv-x="550" 
d="M17 0l128 604h290q82 0 113 -34.5t16 -106.5l-69 -323q-15 -71 -60.5 -105.5t-127.5 -34.5h-290zM300 106q78 0 92 72l54 254q10 65 -63 65h-150l-83 -391h150z" />
    <glyph glyph-name="E.SC" horiz-adv-x="464" 
d="M233 497l-41 -193h224l-38 -105h-208l-20 -93h276l-37 -106h-372l128 604h387l-39 -107h-260z" />
    <glyph glyph-name="F.SC" horiz-adv-x="446" 
d="M233 497l-41 -193h214l-37 -105h-199l-42 -199h-111l128 604h379l-38 -107h-253z" />
    <glyph glyph-name="G.SC" horiz-adv-x="534" 
d="M279 220l39 106h206l-45 -211q-24 -115 -157 -115h-177q-133 0 -108 114l79 375q26 115 155 115h180q132 0 108 -114l-14 -64h-111l5 25q10 46 -40 46h-119q-50 0 -60 -47l-63 -298q-10 -46 41 -46h116q51 0 61 46l14 68h-110z" />
    <glyph glyph-name="H.SC" horiz-adv-x="546" 
d="M128 0h-111l128 604h111l-61 -285h217l61 285h111l-128 -604h-111l45 213h-217z" />
    <glyph glyph-name="I.SC" horiz-adv-x="218" 
d="M128 0h-111l128 604h111z" />
    <glyph glyph-name="J.SC" horiz-adv-x="344" 
d="M117 106q50 0 60 46l96 452h112l-104 -490q-24 -114 -157 -114h-144l37 106h100z" />
    <glyph glyph-name="K.SC" horiz-adv-x="507" 
d="M128 0h-111l128 604h111l-59 -279l275 279h124l-298 -302l180 -302h-126l-165 279z" />
    <glyph glyph-name="L.SC" horiz-adv-x="427" 
d="M256 604l-106 -498h255l-37 -106h-351l128 604h111z" />
    <glyph glyph-name="M.SC" horiz-adv-x="626" 
d="M130 0h-113l128 604h114l86 -284l207 284h113l-128 -604h-111l82 387l-135 -188h-107l-55 185z" />
    <glyph glyph-name="N.SC" horiz-adv-x="559" 
d="M128 0h-111l128 604h111v-1l134 -354q6 -21 10 -51l86 406h112l-128 -604h-112l-130 337q-12 31 -15 67z" />
    <glyph glyph-name="O.SC" horiz-adv-x="559" 
d="M38 115l79 374q26 115 158 115h192q135 0 109 -115l-79 -374q-24 -115 -158 -115h-192q-133 0 -109 115zM281 497q-51 0 -61 -46l-63 -298q-10 -47 41 -47h134q51 0 61 47l63 298q5 24 -4.5 35t-36.5 11h-134z" />
    <glyph glyph-name="P.SC" horiz-adv-x="506" 
d="M170 202l-8 -40h1l-35 -162h-111l28 130h-1l101 474h289q133 0 109 -114l-38 -175q-24 -113 -157 -113h-178zM233 497l-40 -190h149q50 0 60 47l20 97q10 46 -40 46h-149z" />
    <glyph glyph-name="Q.SC" horiz-adv-x="559" 
d="M38 115l79 374q26 115 158 115h192q135 0 109 -115l-79 -374q-24 -115 -158 -115h-42l-19 -88h-104l19 88h-46q-133 0 -109 115zM198 106h17l14 67h104l-14 -67h13q51 0 61 47l63 298q5 24 -4.5 35t-36.5 11h-134q-51 0 -61 -46l-63 -298q-10 -47 41 -47z" />
    <glyph glyph-name="R.SC" horiz-adv-x="520" 
d="M17 0l128 604h289q131 0 107 -114l-38 -176q-21 -103 -130 -113l103 -201h-128l-102 200h-76l-42 -200h-111zM233 497l-40 -190h147q51 0 61 46l20 98q10 46 -41 46h-147z" />
    <glyph glyph-name="S.SC" horiz-adv-x="496" 
d="M318 217l-132 60q-66 32 -84 57.5t-6 81.5l17 81q23 107 148 107h156q125 0 102 -107l-15 -71h-111l7 32q9 39 -35 39h-96q-44 0 -52 -39l-4 -20q-4 -20 2 -28.5t27 -18.5l131 -62q63 -30 83.5 -51t11.5 -64l-23 -108q-23 -106 -146 -106h-174q-127 0 -104 106l17 81h112
l-9 -42q-7 -39 35 -39h115q44 0 51 39l6 29q4 16 -3 25t-27 18z" />
    <glyph glyph-name="T.SC" horiz-adv-x="450" 
d="M505 497h-155l-105 -497h-113l105 497h-154l23 107h422z" />
    <glyph glyph-name="U.SC" horiz-adv-x="535" 
d="M307 106q51 0 61 49l96 449h112l-104 -488q-24 -116 -157 -116h-167q-132 0 -108 116l104 488h111l-96 -449q-10 -49 42 -49h106z" />
    <glyph glyph-name="V.SC" horiz-adv-x="505" 
d="M274 0h-114l-51 604h118l25 -411q0 -22 -6 -52q16 49 18 52l198 411h119z" />
    <glyph glyph-name="W.SC" horiz-adv-x="795" 
d="M270 0h-114l-47 604h113l18 -409q2 -37 0 -50q7 20 20 50l176 408l107 1l2 -409q0 -38 -2 -50q9 27 20 49l193 410h114l-303 -604h-115l-10 366q0 1 11 71q-17 -65 -20 -71z" />
    <glyph glyph-name="X.SC" horiz-adv-x="474" 
d="M274 345l167 259h116l-202 -303l74 -301h-117l-60 242l-162 -242h-116l200 301l-76 303h115z" />
    <glyph glyph-name="Y.SC" horiz-adv-x="514" 
d="M278 0h-112l48 226l-119 378h114l75 -231q8 -31 6 -49q15 32 27 48l168 232h116l-275 -375z" />
    <glyph glyph-name="Z.SC" horiz-adv-x="462" 
d="M503 506l-355 -400h282l-37 -106h-392l5 97l355 400h-255l8 107h394z" />
    <glyph glyph-name="a.ital" horiz-adv-x="496" 
d="M515 505l-49 -232h1l-58 -273h-88l3 57q-38 -57 -124 -57h-59q-130 0 -104 126l52 244q30 141 167 141h59q38 0 58 -9.5t30 -31.5l8 35h104zM345 195l37 173q3 48 -51 48h-66q-61 0 -74 -63l-42 -195q-13 -63 47 -63h67q61 0 74 60l9 40h-1z" />
    </font>
</defs>
</svg>
