<?xml version="1.0" standalone="no"?>
<!DOCTYPE svg PUBLIC "-//W3C//DTD SVG 1.1//EN" "http://www.w3.org/Graphics/SVG/1.1/DTD/svg11.dtd" >
<svg xmlns="http://www.w3.org/2000/svg" xmlns:xlink="http://www.w3.org/1999/xlink" version="1.1">
<metadata>
Created by FontForge 20170731 at Sun Feb  9 02:28:10 2003
 By Aleksey,,,
(c) Jakob Fischer at www.pizzadude.dk - DO NOT DISTRIBUTE WITHOUT AUTHOR'S PERMISSION!
</metadata>
<defs>
<font id="LoveLetters" horiz-adv-x="452" >
  <font-face 
    font-family="Love Letters"
    font-weight="400"
    font-stretch="normal"
    units-per-em="1000"
    panose-1="0 0 4 0 0 0 0 0 0 0"
    ascent="803"
    descent="-197"
    x-height="596"
    cap-height="739"
    bbox="0 -197 1109 806"
    underline-thickness="20"
    underline-position="-163"
    unicode-range="U+0020-041C"
  />
<missing-glyph horiz-adv-x="500" 
d="M63 0v803h375v-803h-375zM125 63h250v678h-250v-678z" />
    <glyph glyph-name=".notdef" horiz-adv-x="500" 
d="M63 0v803h375v-803h-375zM125 63h250v678h-250v-678z" />
    <glyph glyph-name=".null" horiz-adv-x="0" 
 />
    <glyph glyph-name="nonmarkingreturn" 
 />
    <glyph glyph-name="space" unicode=" " 
 />
    <glyph glyph-name="exclam" unicode="!" horiz-adv-x="468" 
d="M472 271q-16 -21 -42 -21q8 0 8 1q0 3 -41 11q-58 11 -80 12q-46 9 -87 19q-68 16 -68 31q0 11 11 20t23 9q3 0 42 -11l42 -12h15q13 111 44 264q37 183 56 183q11 0 20 -11t9 -23q0 -11 -21 -108l-30 -138q-14 -63 -21 -174q20 -13 74 -17q22 -2 33 -17q6 -9 13 -18z
M456 -11q0 -7 -19 -62q-35 -101 -147 -101h-33q-50 0 -112 43q-71 49 -71 111q0 91 62.5 156t153.5 65q30 0 30 -24q0 -7 -15 -17.5t-22 -10.5q-3 0 -10 3.5t-11 3.5q23 0 -31 -27q-69 -35 -78 -49q-27 -45 -27 -94q0 -51 55 -85q48 -30 102 -30q52 0 85 31.5t33 83.5
q0 27 -22 46.5t-49 19.5q-44 0 -78 -34q1 -7 11 -15.5t17 -8.5q3 0 10 6.5t11 6.5q18 0 38 -20v-31q-28 -14 -36 -14h-34q-22 0 -47 22.5t-25 44.5q0 42 63 69q47 20 85 20q41 0 76 -34t35 -75z" />
    <glyph glyph-name="quotedbl" unicode="&#x22;" horiz-adv-x="469" 
d="M437 756q0 -5 -6 -20t-6 -22q-1 -12 2.5 -34.5t3.5 -32.5q0 -27 -6 -65q-8 -51 -25 -51q-11 0 -27.5 9.5t-16.5 19.5q0 13 17 54q2 5 2 24q0 -2 -4 30q-96 16 -96 62q0 28 33 50q29 20 59 20q16 0 43 -15t27 -29zM256 638q0 -91 -31 -91q-14 0 -29 10t-15 23l16 49l-26 2
q-27 2 -49 18q-25 18 -25 44q0 22 20.5 41.5t42.5 19.5q45 0 72 -37q24 -32 24 -79z" />
    <glyph glyph-name="numbersign" unicode="#" horiz-adv-x="469" 
d="M440 221q0 -7 -11 -13.5t-18 -6.5q4 0 -46 10q-3 -4 -3 -20q0 -63 11 -101q1 -3 6.5 -10t5.5 -11q0 -26 -37 -26q-22 0 -40 24q1 8 0 141q-29 5 -46 3l-75 -9q-3 -14 -3 -49v-46q0 -6 13 -73q-6 -14 -35 -14q-17 0 -35 8q1 56 -4 167q-20 0 -32 -4q-52 5 -52 26
q0 23 33 28q46 7 51 10q2 40 -3 80q-5 2 -15 2q-17 0 -53 -10q-18 0 -45 21v17q3 4 20.5 12.5t22.5 8.5q8 0 22.5 -2t22.5 -2q25 0 25 21q-1 12 -8 76l-8 75q0 36 2 41q6 14 35 14q27 0 27 -41q0 -6 -1.5 -19.5t-1.5 -20.5l9 -133h114l-26 211q0 7 7 13t14 6q13 0 39 -14
q17 -216 24 -216q9 0 27 5t27 5q10 0 20 -15.5t10 -26.5q0 -5 -8 -14t-13 -9q-4 0 -11.5 3.5t-11.5 3.5h-32q-4 -4 -4 -18q0 -10 2.5 -30t2.5 -30q5 0 15 -3q4 0 12.5 1.5t12.5 1.5q17 0 31 -15.5t14 -32.5zM304 263l-10 80h-116v-82q6 -11 16 -11q21 0 55 5z" />
    <glyph glyph-name="dollar" unicode="$" horiz-adv-x="378" 
d="M349 222q0 -45 -43 -85q-39 -37 -86 -48q-3 -20 6 -59q11 -49 13 -64q-11 -12 -24 -17q-16 0 -33 8q-21 9 -18 23q4 18 4 36q0 13 -3.5 39.5t-3.5 39.5q-21 13 -70 55q-55 47 -55 59q0 7 11.5 19t18.5 12q16 0 27 -8q22 -31 67 -79q2 3 2 89q0 10 -2 28.5t-2 28.5l-94 30
q-48 22 -48 74q0 41 21 63q41 44 114 87q6 16 6 35q0 7 -1.5 21.5t-1.5 21.5q0 26 32 26q27 0 28 -39q0 -7 -1 -61q91 -17 91 -92q0 -12 -10 -21.5t-22 -9.5t-22.5 9.5t-13.5 10.5q0 1 3.5 7t3.5 10q0 7 -10.5 21t-17.5 17l-3 -163q53 -10 91 -40q46 -36 46 -84zM158 357v76
q0 28 -7 69q-14 -7 -42 -34q-35 -34 -35 -57q0 -25 19 -39.5t45 -14.5h20zM288 230q0 22 -29 40q-10 6 -43 25v-158q26 7 49 36.5t23 56.5z" />
    <glyph glyph-name="percent" unicode="%" 
 />
    <glyph glyph-name="ampersand" unicode="&#x26;" 
 />
    <glyph glyph-name="quotesingle" unicode="'" 
 />
    <glyph glyph-name="parenleft" unicode="(" horiz-adv-x="314" 
d="M336 769q0 -4 -1.5 -10.5t-1.5 -10.5q-16 1 -29 -11q-96 -90 -164 -231q-72 -148 -72 -272q0 -169 134 -300q45 -44 47 -48q0 -41 -34 -41q-5 1 -22 8q-10 4 -18 5q-94 113 -127 184q-38 81 -38 188q0 141 104 352q18 37 81 120q74 98 101 98q10 0 25 -10.5t15 -20.5z
" />
    <glyph glyph-name="parenright" unicode=")" horiz-adv-x="310" 
d="M275 301q0 -59 -19 -144q-17 -79 -41 -139q-33 -82 -115 -144q-12 -12 -23 -24q-9 -8 -30 -8q-15 0 -19 1q-10 4 -18 24q16 20 56 50.5t56 50.5q32 41 57 128q35 122 35 197q0 88 -55 242q-10 29 -40 114q-7 19 -40 70q-24 37 -24 40q0 10 13 19t23 9q37 0 93 -139
q5 -13 66 -186q8 -22 16.5 -78.5t8.5 -82.5z" />
    <glyph glyph-name="asterisk" unicode="*" horiz-adv-x="410" 
d="M379 297q0 -4 -3.5 -13t-3.5 -14q-18 -4 -37 -4q-37 1 -38 0q-14 0 -16 -5q40 -42 61 -39q17 -13 17 -24q0 -14 -10 -25t-24 -11q-26 0 -35 14q-13 20 -43 32q-1 -18 7 -51l8 -33q0 -11 -10 -22t-21 -11q-14 0 -39 21q2 14 2 30q0 33 -10 72q-7 -5 -35 -48
q-26 -39 -33 -39q-10 0 -38 13v17q0 7 55 81q-10 0 -28.5 -2t-28.5 -2q-9 0 -47 13v24q27 25 56 23q42 -3 51 0q-34 33 -107 86v18q29 20 44 20q8 0 52 -39q11 -10 44 -39q0 18 -5 57l-5 39q0 9 11 18t21 9q18 0 28 -14q2 -49 10 -80q7 7 18 38q7 21 36 21q34 0 34 -26
q0 -6 -30 -45q-33 -43 -35 -47q8 0 24 4t24 4t24 3t24 3q11 0 21 -8t10 -19z" />
    <glyph glyph-name="plus" unicode="+" horiz-adv-x="356" 
d="M382 326q0 -20 -13.5 -35t-33.5 -15q-9 0 -27.5 4.5t-27.5 4.5q-32 0 -43 -9q-1 -33 -2 -95q5 -11 5 -25q0 -39 -33 -39q-22 0 -38 21q6 48 6 135q5 -1 -102 -1q-63 0 -63 33q0 11 19 21.5t31 10.5q19 0 56 -3.5t56 -3.5q2 13 2 38v54q0 83 33 83q23 0 28 -68
q2 -27 5 -97q37 1 69 7l32 6q10 0 25.5 -9t15.5 -18z" />
    <glyph glyph-name="comma" unicode="," horiz-adv-x="118" 
d="M126 -111q0 -21 -7 -49q-9 -37 -24 -37q-36 0 -36 24q0 4 1.5 12t1.5 12v21q-35 8 -40 11q-22 9 -22 30q0 23 22.5 42.5t45.5 19.5q18 0 40 -40q18 -33 18 -46z" />
    <glyph glyph-name="hyphen" unicode="-" horiz-adv-x="407" 
d="M359 277q0 -10 -14.5 -18.5t-25.5 -8.5l-27 9q-24 5 -78 2q-69 -4 -131 0q-31 2 -49 2q-5 0 -11.5 9t-6.5 15q0 12 15.5 21.5t28.5 9.5q-42 0 78 -7q63 -4 71 -3l126 10q10 1 18 -16q6 -13 6 -25z" />
    <glyph glyph-name="hyphen" unicode="&#x2010;" horiz-adv-x="407" 
d="M359 277q0 -10 -14.5 -18.5t-25.5 -8.5l-27 9q-24 5 -78 2q-69 -4 -131 0q-31 2 -49 2q-5 0 -11.5 9t-6.5 15q0 12 15.5 21.5t28.5 9.5q-42 0 78 -7q63 -4 71 -3l126 10q10 1 18 -16q6 -13 6 -25z" />
    <glyph glyph-name="period" unicode="." horiz-adv-x="112" 
d="M120 -124q0 -21 -19.5 -40.5t-40.5 -19.5t-37 9q-20 11 -20 30q0 28 17.5 48t44.5 20q55 0 55 -47z" />
    <glyph glyph-name="zero" unicode="0" horiz-adv-x="494" 
d="M459 385q0 -76 -38.5 -178t-87.5 -163q-8 -9 -32 -31l-27 -24q-14 -7 -49 -7q-59 0 -120 44t-77 100q-13 44 -13 128q0 143 68 264q16 28 62 69q6 6 32 36q17 20 37 24q5 1 31 1q9 0 46 -7q58 -11 80 -35q34 -37 61 -104t27 -117zM404 371q0 49 -33 128q-44 105 -97 100
l-23 -2q-31 -3 -34 -2q-73 -49 -115 -157q-35 -90 -35 -173q0 -189 89 -214q58 -23 67 -23q64 0 127 144q54 124 54 199z" />
    <glyph glyph-name="one" unicode="1" horiz-adv-x="330" 
d="M337 -95q0 -11 -9 -20t-20 -9q-13 0 -38.5 6t-38.5 6q-9 0 -27.5 -4.5t-27.5 -4.5q-3 0 -18 6.5t-20 7.5q-64 10 -65 11q-40 8 -61 22q2 8 19 20t25 12q12 0 46 -12.5t51 -12.5q21 92 39 243q33 276 55 417l-58 -72q-53 -65 -75 -65q-11 0 -32 14q163 168 174 232
q31 16 37 16q4 0 11.5 -2t11.5 -2l2 -5q1 -5 1 -9l-29 -176q-32 -193 -39 -252l-38 -309v-33q124 0 124 -25z" />
    <glyph glyph-name="two" unicode="2" horiz-adv-x="465" 
d="M456 593q0 -34 -7 -55q-18 -53 -134 -196q-75 -92 -129 -172l-107 -158q42 -23 132 -48t130 -46q6 22 10 139q3 86 -1 152q23 20 39 20q11 0 24 -13q-1 -7 -7 -28q-5 -17 -5 -27v-263q0 -3 3 -8.5t3 -8.5q0 -9 -10 -20.5t-19 -11.5h-18q-3 0 -48 23q-48 26 -56 29l-97 38
q-153 35 -153 51q46 69 110 167q42 65 131 180q25 31 95 121q62 80 62 147q0 41 -35 68t-77 27q-70 0 -114 -28q-53 -33 -53 -99q0 -26 14 -47t39 -21q23 0 23 14q0 4 -20 26t-20 25q0 11 27 20q9 3 14 3q19 0 40.5 -33t21.5 -53q0 -18 -36 -34q-27 -12 -47 -15
q-54 0 -84 41q-27 37 -27 93q0 14 20.5 51.5t34 49.5t56.5 27q54 19 79 19q91 0 137 -27q59 -35 59 -119z" />
    <glyph glyph-name="three" unicode="3" horiz-adv-x="482" 
d="M459 218q0 -125 -63 -220q-75 -113 -209 -113q-78 0 -128 92q-41 76 -41 153q0 68 40 120q43 58 109 58q45 0 77 -41q30 -37 30 -84q0 -35 -20 -52q-16 -13 -53 -21q-21 4 -42 7q-29 7 -34 18q-1 1 -6 10q-4 5 -4 9q0 6 13 17.5t19 11.5q16 0 32 -12l16 -12q21 0 21 22
q0 23 -18 49t-40 26q-47 0 -70 -59q-15 -39 -15 -79q0 -56 35 -117q40 -70 94 -70q105 0 161 109q41 80 41 173q0 30 -15.5 73.5t-34.5 67.5q-46 57 -125 57q-15 0 -23 -1q-41 -5 -35 -5q-37 0 -37 27l61 95q59 91 97 168q-9 5 -23 5q-26 0 -76 -11t-75 -11q-16 0 -37 -3
q-2 -1 -2 -13q0 -16 16.5 -53.5t16.5 -53.5q0 -26 -25 -26q-13 0 -31 13q-3 24 -25 84l-22 60q0 15 11.5 26.5t26.5 11.5q8 0 23 -1.5t23 -1.5q41 0 120.5 15t120.5 15q5 0 16.5 -7t11.5 -11q0 -19 -67 -136l-79 -138q12 1 24 1q98 0 160 -73q59 -69 59 -169z" />
    <glyph glyph-name="four" unicode="4" horiz-adv-x="394" 
d="M380 373q-4 -19 -7 -38q-5 -15 -17 -15l-47 9q-19 -59 -30 -186q-10 -114 -7 -190q-12 -16 -24 -16q-9 0 -25 7.5t-16 15.5q0 -6 8 18q2 46 11 142q2 21 16 104q9 53 9 84q0 14 -1 26q-19 6 -172 6q-6 0 -17 -2.5t-17 -2.5q-10 0 -25.5 13t-15.5 22q0 2 22.5 26t25.5 29
q21 35 50 133q14 47 16 79q-1 7 -7 56q22 16 36 16q27 0 27 -47q0 -67 -23.5 -142t-61.5 -129q0 -2 5 -8h169q31 195 40 339q4 7 17 13.5t21 6.5q6 0 13.5 -9t8.5 -15l-49 -335q16 -9 21 -9q41 0 46 -1z" />
    <glyph glyph-name="five" unicode="5" horiz-adv-x="476" 
d="M450 285q0 -80 -37 -154q-40 -80 -107 -114q-17 -8 -68 -24.5t-65 -16.5q-78 0 -124 71q-40 61 -40 144v72q12 85 45 125q40 47 121 47q34 0 61.5 -32.5t27.5 -67.5q0 -33 -18.5 -56t-50.5 -23q-26 0 -41 13l-20 28q3 6 20.5 17.5t23.5 11.5q3 0 8 -3t9 -3q12 0 12 13
q0 25 -28 39q-23 12 -50 12q-36 0 -55 -62q-13 -43 -13 -93q0 -61 18 -115q30 -89 94 -89q101 0 162 76q57 70 57 173q0 100 -38 164q-47 79 -140 79q-36 0 -60 -10l-26 -11q-12 0 -32 8.5t-20 18.5q0 4 5 12.5t6 11.5q10 35 10 71q0 21 -9 34q-12 12 -24 25q18 32 48 32
q11 0 33 -3t33 -3q14 0 42.5 3t42.5 3h24q4 0 12.5 3t13.5 3t16 1.5t17 1.5q5 0 25 -10v-32q-12 -13 -26 -13q-6 0 -18.5 3t-18.5 3q-23 0 -81 -6q-62 -6 -75 -11q0 -12 -3 -45l-3 -33v-18l93 13q17 0 73 -20q73 -26 110 -120q28 -71 28 -144z" />
    <glyph glyph-name="six" unicode="6" horiz-adv-x="445" 
d="M432 175q0 10 -2 11q-3 0 -42 -113q-21 -63 -37 -77q-52 -47 -111 -47q-118 0 -180 115q-48 89 -48 207q0 132 80 279q88 162 195 162q48 0 88 -28q44 -30 44 -77q0 -46 -29 -78.5t-74 -32.5q-73 0 -79 102q18 16 35 16q31 0 31 -26v-10q-1 -7 -1 -10q0 -20 22 -20
q16 0 26 20q9 17 9 34q0 64 -79 64q-44 0 -107 -86q-46 -62 -57 -92q-22 -57 -36 -114q35 12 65 24q49 19 72 19q119 0 169 -64q46 -57 46 -178zM371 165q0 90 -20 133q-32 70 -122 70q-20 0 -61 -18t-48 -18q-9 0 -24 11t-19 19q-10 -83 -10 -77q0 -84 36 -171
q49 -119 137 -119q49 0 92 62q39 57 39 108z" />
    <glyph glyph-name="seven" unicode="7" horiz-adv-x="376" 
d="M401 763q0 -4 -8 -25q-9 -24 -10 -28q-29 -110 -46 -203l-75 -410q5 -6 15 -6q4 0 11 1.5t11 1.5q28 0 28 -29q0 -35 -39 -35l-30 5q-12 -26 -16 -66l-7 -71q-1 -9 1 -23q2 -18 2 -24q0 -10 -11.5 -22.5t-21.5 -12.5q-11 0 -28.5 9t-17.5 19q17 81 35 175v18
q-33 6 -51 10q-39 8 -39 28q0 15 23 25q16 7 25 7q2 0 33 -8l19 -5l45 264l72 366q-227 -29 -227 -62q0 -31 19.5 -90.5t19.5 -90.5q0 -27 -29 -27q-12 0 -24 8t-13 19q-12 114 -29 174q-1 4 -13 17t-12 18q0 12 21 24t32 8l308 71q20 -10 23 -10q0 -3 2 -9.5t2 -10.5z" />
    <glyph glyph-name="eight" unicode="8" horiz-adv-x="482" 
d="M498 166q0 -90 -16 -135q-19 -53 -78 -112q-73 -73 -132 -73q-6 0 -16.5 -3t-16.5 -3q-96 0 -164.5 64t-68.5 160q0 74 52.5 163t117.5 122q-70 59 -70 153q0 26 11 81q8 41 74 122q70 86 104 86q4 0 17 -7l21 -11q19 -3 55 -11q71 -69 71 -169q0 -54 -24 -116
q-29 -75 -76 -110q68 -33 89 -64q15 -23 32 -67q18 -47 18 -70zM398 575q0 22 -6 57q-8 46 -20 61q-18 22 -45 29q-3 1 -12 6t-13 5q-18 0 -67 -58q-43 -51 -49 -65q-22 -53 -22 -108q0 -34 13 -67q20 -51 59 -51h41q49 0 88 76q33 64 33 115zM438 148q0 68 -50.5 126
t-117.5 58q-79 0 -147 -104q-59 -91 -59 -161q0 -77 51.5 -126.5t129.5 -49.5q96 0 150 95q43 75 43 162z" />
    <glyph glyph-name="nine" unicode="9" horiz-adv-x="519" 
d="M518 496q0 -78 -73 -236q-39 -80 -77 -159q-57 -119 -60 -151q-3 -24 -22 -52q-24 -35 -49 -30q-40 14 -40 26q0 20 29 59q3 3 29 37q18 44 60 136q15 31 58 124q-86 -42 -138 -42q-59 0 -127 36q-77 41 -94 97q-11 36 -11 98q0 58 66 151q61 86 114 121q14 9 72 32
q71 28 107 28q18 0 65 -45q40 -39 50 -57q15 -29 28 -84t13 -89zM450 504q0 43 -21 117q-3 11 -35 51q-37 47 -56 47q-104 0 -191 -112q-79 -101 -79 -192q0 -69 48.5 -112.5t118.5 -43.5q4 0 11.5 2t10.5 2q77 0 138 88q55 79 55 153z" />
    <glyph glyph-name="colon" unicode=":" horiz-adv-x="139" 
d="M149 384q0 -22 -28 -37q-23 -13 -47 -13q-19 0 -37 18t-18 37q0 22 17.5 37t39.5 15q15 0 44 -21.5t29 -35.5zM146 209q0 -13 -18 -28t-31 -15h-18q-13 0 -28 14.5t-15 27.5q0 51 48 51q20 0 41 -15.5t21 -34.5z" />
    <glyph glyph-name="semicolon" unicode=";" horiz-adv-x="186" 
d="M123 416q0 -17 -19.5 -30t-37.5 -13q-19 0 -37.5 15.5t-18.5 34.5q0 21 21 35.5t43 14.5q16 0 32.5 -20.5t16.5 -36.5zM146 217q0 -116 -51 -116q-9 0 -21.5 8.5t-12.5 17.5q0 7 7 26q9 23 10 27q-49 21 -49 52q0 20 22.5 35t43.5 15q51 0 51 -65z" />
    <glyph glyph-name="less" unicode="&#x3c;" 
 />
    <glyph glyph-name="equal" unicode="=" horiz-adv-x="380" 
d="M359 387q0 -12 -13.5 -19.5t-26.5 -7.5l-27 9q-24 5 -78 2q-69 -4 -131 0q-31 2 -49 2q-5 0 -11.5 9t-6.5 15q0 12 15.5 21.5t28.5 9.5q-42 0 78 -7q63 -4 71 -3l126 10q8 1 16 -15.5t8 -25.5zM320 215q-22 -14 -27 -14l-13 1q-6 0 -27 1l-41 1q-11 0 -71 -4l-71 -5
q-13 -1 -27 9t-14 23q0 9 12.5 19t21.5 10h161q11 0 33.5 3.5t33.5 3.5q15 0 29 -14v-34z" />
    <glyph glyph-name="A" unicode="A" horiz-adv-x="590" 
d="M632 66q-14 -20 -49 -41q-54 -33 -74 -48l-164 -119q-18 0 -39 15q-2 12 15 25q16 10 32 21q29 24 91 68q-1 3 -44 212q-13 13 -75 24q-51 9 -82 9q-4 0 -12.5 -1.5t-12.5 -1.5q-14 -73 -14 -93q0 -17 66.5 -43.5t66.5 -46.5q0 -30 -38 -30q-2 0 -25 15t-30 17
q-63 19 -125 40q-98 33 -98 55q0 12 15 20t29 8q5 0 37.5 -15t35.5 -19q11 8 14 40q5 45 6 52q-8 3 -74 11q-48 6 -72 23v19q30 22 40 22q18 0 53.5 -10.5t53.5 -10.5q12 32 31 181l25 192q0 2 7 64q10 46 41 46q6 0 32 -10.5t30 -14.5q-2 -4 -2 -14q0 -80 77 -300
q24 -67 52 -189q2 -7 20 -100q12 -61 32 -104q14 3 49 32t47 29q17 0 25 -7q0 -8 7 -22zM377 278v16l-105 354q-8 -43 -21 -149q-12 -97 -19 -123q-10 -36 -10 -61v-37h155z" />
    <glyph glyph-name="B" unicode="B" horiz-adv-x="500" 
d="M480 145q0 -17 -17 -43q-6 -27 -37 -49q-17 -10 -57 -33l-112 -68q-5 0 -15.5 -3t-15.5 -3q-36 0 -68 35q12 22 12 32q0 4 -3 13t-3 13v84q0 27 -14 121q-17 -6 -33 -6q-9 0 -25 10t-16 18q0 35 47 35q14 0 24 -3q2 4 2 17q0 -33 -16 176q-9 116 -18 194q-15 12 -42 12
q-3 0 -9.5 -2t-10.5 -2q-24 0 -35 36q30 22 43 22l30 -8q30 -8 57 -8q154 -29 227 -74q102 -63 102 -177q0 -49 -79 -119q-63 -56 -118 -83q51 -1 121 -42q79 -46 79 -95zM410 497q0 74 -81 127q-61 40 -142 57v-367q64 -3 143.5 58.5t79.5 124.5zM410 136q0 42 -68 72
q-57 25 -108 25q-13 0 -19 -2q0 -9 2 -26.5t2 -26.5v-87q0 -63 16 -81q175 71 175 126z" />
    <glyph glyph-name="C" unicode="C" horiz-adv-x="373" 
d="M374 599q0 -32 -3 -43q-7 -27 -32 -27t-25 81v11q0 47 -4 66q-9 43 -40 43q-24 0 -59 -38q-102 -111 -123 -304q-9 -85 -15 -164q-2 -30 0 -70q5 -83 22 -146q30 -108 90 -108q39 0 65 123q20 94 20 155q0 7 -6 24.5t-6 24.5q0 10 17.5 21t28.5 11t19 -13q5 -10 5 -17
q0 -122 -23 -216q-41 -167 -141 -167q-14 0 -50 30q-26 22 -34 32q-35 44 -47 106q-2 11 -11 97q-4 41 -4 46l9 201q3 58 28 145q31 105 78 176q67 100 151 100q90 0 90 -180z" />
    <glyph glyph-name="D" unicode="D" horiz-adv-x="607" 
d="M574 370q0 -72 -46 -157q-41 -76 -100 -131q-36 -33 -134 -81q-88 -43 -99 -43q-5 0 -36 10q-2 8 -10 22q15 23 15 35q0 24 -7.5 71t-7.5 71v81q0 2 -1.5 5.5t-1.5 5.5l-21 234q0 13 -13 74q-14 66 -24 66q-4 0 -13.5 -3t-13.5 -3t-20.5 7t-21.5 8v20q36 25 48 25
q4 0 14.5 -3t14.5 -3q7 0 21 1.5t21 1.5q177 0 293 -67q143 -83 143 -247zM517 355q0 119 -87 196q-83 73 -204 73q12 0 -58 8q0 -3 -2 -11t-2 -11q0 -27 16 -137q5 -31 16 -119q3 -40 11 -158q1 -18 19 -165q197 66 264 241q27 71 27 83z" />
    <glyph glyph-name="E" unicode="E" horiz-adv-x="605" 
d="M605 608q0 -9 -6 -19.5t-14 -10.5q-13 0 -37 19q0 4 1 39q2 70 -9 83l-184 -35q-39 -6 -153 -23q0 -13 -3 -36q-4 -26 -5 -36l-22 -391q-1 -16 6 -44q116 16 116 37q0 50 -9 74l-9 24q0 14 31 22q15 0 29 -10q0 -2 12 -270q0 -10 -7.5 -23t-17.5 -13q-8 0 -22.5 7.5
t-13.5 14.5q0 11 2 34t2 34q0 29 -9 43q-48 -7 -107 -26q2 -91 7 -168q2 -31 2 -46q5 -2 13 -2q22 0 64.5 11.5t64.5 11.5h179q12 0 28 12l4 111q2 50 -4 98q-8 24 -8 21q0 15 48 26q18 0 18 -57q0 -18 -2 -39l-2 -21q1 -20 0 -64t-1 -67q0 -6 6 -20t6 -19q0 -14 -10 -24.5
t-24 -10.5q8 0 -32 8q-13 1 -156 1q-54 0 -159 -21.5t-159 -21.5q-42 0 -41 36q24 22 35 22q8 0 25 -3t25 -3q6 0 18.5 8.5t12.5 14.5v188q-8 11 -20 11q-5 0 -15 -3t-15 -3q-31 0 -48 22q8 23 42 27q39 5 50 17q-2 18 -2 39q0 25 4 76t4 76v175q0 10 8 34l4 50q0 3 -4.5 17
t-4.5 20q-18 0 -56 -3l-38 -3q-8 -1 -19.5 7.5t-11.5 16.5q0 5 7.5 12.5t12.5 7.5q58 3 315 51q127 24 189 39l16 8q14 7 21 7q32 0 32 -177z" />
    <glyph glyph-name="F" unicode="F" horiz-adv-x="530" 
d="M523 385q0 -14 -10.5 -26t-24.5 -12q-39 0 -39 32q0 10 4 32t3 33l-6 106v87q0 9 -6 45t-9 39q-28 -2 -126 -33q-20 -3 -27 -6q-16 -5 -23 -15q0 -21 -4 -63l-3 -425q4 -2 17 -2q15 0 44 17v72q-6 9 -12 35q23 22 35 22q18 0 34 -23q-1 -12 4 -87l6 -89q1 -14 -9.5 -26
t-24.5 -12q-39 0 -37 53l-55 -8q-7 -2 -7 -7q-6 -41 -7 -85q-1 -45 7 -110q35 4 122 47q4 0 17 -6t14 -8q4 -8 4 -22q0 -6 -6.5 -14.5t-12.5 -9.5l-85 -17l-120 -38q-117 -37 -136 -37q-10 0 -32 23q1 28 59 34q22 2 64 12q52 12 52 24v197q-9 0 -26 -3.5t-26 -3.5
q-20 0 -35 23q15 27 44 30l48 4q5 12 10 87q5 67 5 95q0 37 -3 120q-4 77 -3 120q0 18 -1 64q-17 -3 -78 -28l-63 -26q-11 0 -41 25q0 16 145 66q60 20 181 60q21 8 107 41q33 0 47 -14q-5 -4 -5 -22q0 -20 6 -59t6 -59q-1 -113 6 -212q1 -3 6.5 -18.5t5.5 -18.5z" />
    <glyph glyph-name="G" unicode="G" horiz-adv-x="440" 
d="M471 393q0 -18 -26 -30q-21 -10 -42 -11q-1 -1 -29 -4q-10 -1 -15 -12q-3 -7 -11 -137q-19 -317 -147 -317q-31 0 -68 38q-24 24 -38 49q-30 52 -49 157q-16 89 -16 168q0 109 61 264q72 184 164 184q63 0 98 -63q27 -48 27 -101q0 -42 -18 -83q-22 -51 -58 -51
q-43 0 -71.5 33.5t-28.5 77.5q0 50 44 50q24 0 24 -20q0 -9 -4.5 -27.5t-4.5 -27.5q0 -25 33 -25q12 0 20 33q6 24 6 38q0 28 -15 67q-21 54 -50 54q-43 0 -95 -113q-77 -168 -77 -314q0 -100 28 -192q38 -125 107 -141q20 20 43 78q10 24 22 109q13 81 13 112v94
q-3 4 -8 11q-12 -2 -75 -16q-50 -11 -54 -11q-11 0 -36 25q7 19 19 22q28 7 114 22q65 11 105 30q21 10 61 10q13 0 30 -9.5t17 -20.5z" />
    <glyph glyph-name="H" unicode="H" horiz-adv-x="535" 
d="M573 -148q0 -11 -9.5 -20t-20.5 -9q-5 0 -34 4q-13 2 -21 2q-119 3 -130 4q-97 7 -117 29q27 27 50 27l29 -5q23 -4 45 -4q3 4 9 14q-5 87 -5 150q0 86 9 127l3 109v74q-13 5 -24 5l-177 -46q-5 -5 -5 -13v-290q0 -4 4 -7l4 -5q11 3 36 15q17 8 26 8q8 0 24 -12
q1 -36 -12 -42q-32 -1 -95.5 -22.5t-97.5 -21.5q-47 0 -47 23q0 21 42 26q17 2 56 5q0 7 2.5 21.5t2.5 21.5v276q-69 -9 -61 -9q-5 0 -17.5 9t-12.5 14q0 28 74 28q15 0 17 -2v293q-10 7 -22 7q-7 0 -19.5 -4t-18.5 -4q-10 0 -25 8.5t-15 17.5q0 8 13.5 17t22.5 9
q8 0 24.5 -1.5t24.5 -1.5q22 0 66.5 8.5t66.5 8.5q16 0 28 -9v-27q0 -16 -32 -16q-4 0 -12.5 1.5t-12.5 1.5q-41 0 -41 -30v-14q0 3 1 -16l12 -228q40 9 86 24q8 1 43 8q26 5 43 17q2 2 18 7q11 3 12 10q1 9 0 30q-1 18 -2 22v186q0 -12 2 26q1 20 0 36q-28 15 -59 15h-13
q-30 0 -50 32q24 16 43 19l139 -26q44 0 49 -1q41 -4 41 -22q0 -11 -11 -21.5t-22 -10.5q-2 0 -52 10q-4 1 -9 -6q-3 -57 -3 -214v-121l-9 -275q0 -15 -6 -49q-2 -5 -2 -20q0 -24 5 -72q8 -78 16 -83q8 0 23.5 -2t23.5 -2q10 0 29.5 3t29.5 3q27 0 27 -28z" />
    <glyph glyph-name="I" unicode="I" horiz-adv-x="360" 
d="M386 17q0 -12 -14 -19t-27 -7q-24 0 -148 7l-159 9q-9 0 -26 13v19q2 1 15 10t17 9q48 0 139 -12q5 5 5 20v313l10 252l-6 45q-10 5 -16 5q-13 0 -38.5 -3t-38.5 -3t-28.5 11t-15.5 23q0 9 17 17q14 7 25 7t33.5 -3t33.5 -3q8 0 50 3l49 3q8 0 27 3t28 3q10 0 22.5 -7
t12.5 -16q0 -13 -11 -25.5t-24 -12.5q-7 0 -21.5 3t-21.5 3q-28 0 -28 -29q0 -12 5 -39.5t4 -42.5q-2 -17 -7 -67l-3 -267q-9 -72 -9 -67q0 -30 5 -71q7 -58 19 -58q8 0 48 3l47 3q12 1 21 -9.5t9 -22.5z" />
    <glyph glyph-name="J" unicode="J" horiz-adv-x="495" 
d="M465 175q0 -81 -41 -156q-49 -90 -130 -111q-43 -11 -36 -11q-5 0 -27 18t-27 21q-75 45 -127 132q-29 48 -71 159q5 15 21 26.5t32 11.5q3 0 19 -10q8 -70 26 -125q7 -21 69 -92q73 -83 108 -83q41 0 80 62q34 54 36 86l10 130q5 64 -32 256q-5 26 -27 136q-5 24 -26 77
l-18 45q0 7 13.5 18t21.5 11q4 0 13.5 -3.5t14.5 -3.5q58 -232 74 -318q24 -131 24 -276z" />
    <glyph glyph-name="K" unicode="K" horiz-adv-x="658" 
d="M668 640q0 -11 -8 -21.5t-19 -10.5q-19 0 -32 17q-4 6 -20 33l-260 -307q12 -45 49 -104q18 -28 63 -100q32 -64 96 -177q14 6 53 40q35 30 48 30q25 0 25 -27q0 -7 -10 -20q-47 -23 -133 -93q-8 -8 -49.5 -48.5t-48.5 -40.5q-29 0 -29 24q0 8 22 29q12 12 26 24
q7 6 28 21q13 9 13 26q0 47 -94 203q-15 25 -103 166q-61 -69 -71 -85q-19 -31 -19 -78q0 -38 6 -57q16 0 47.5 14l31.5 14q32 0 32 -22q0 -31 -23 -36q-134 -31 -247 -53q-42 6 -42 25q0 23 37 29l48 2q15 2 46 11q7 10 13 80q5 57 5 85v501q-6 10 -33 10q-7 0 -19.5 -1.5
t-19.5 -1.5q-2 0 -32 15v21q23 16 33 15l152 -12q9 -1 25.5 2.5t23.5 3.5l27 -9v-15q0 -9 -10.5 -19t-19.5 -10l-13 4q-13 4 -52 6l-16 -346q-1 -25 5 -115q49 49 201 224q159 183 159 201q0 3 -17 27t-17 27q0 21 52 25q4 0 13 -10q4 -9 77 -136z" />
    <glyph glyph-name="L" unicode="L" horiz-adv-x="479" 
d="M501 -168q-6 -17 -11 -23t-21 -6q-27 0 -27 28q0 6 1 17.5t1 17.5q0 44 -39 46q-3 0 -47 3q-52 14 -105 10l-188 -14q-5 3 -42 18v15q33 20 47 20q7 0 19.5 -2.5t19.5 -2.5q19 0 21 15q8 57 16 165q7 91 7 103v180q0 149 9 248q-1 2 -1 21q0 20 1 57q-10 3 -42 -4l-36 -8
q-8 0 -18 8.5t-10 16.5q0 14 47 25q3 0 7.5 -1.5t7.5 -1.5q9 0 33.5 11t33.5 11q35 0 35 -25l-8 -32v-43q0 32 -4 -95q-2 -63 -2 -126v-64l-3 -181l-19 -245q-2 -27 23 -27q7 0 27 2q16 2 26 1l168 -14q16 -1 16 30v35q-1 6 -1 1q0 45 32 45q16 0 18 -50q3 -61 8 -70v-115z
" />
    <glyph glyph-name="M" unicode="M" horiz-adv-x="752" 
d="M805 -136q0 -40 -38 -40q-3 0 -14.5 5.5t-15.5 5.5l-138 23q-78 13 -95 35q16 35 49 35q6 0 26.5 -7t27.5 -8q-8 125 -17 370q-5 136 -23 271l-119 -695q-11 -10 -42 -23q-34 3 -37 20q-30 176 -82 369l-100 365q-2 -21 1 -69l3 -47v-208q0 -163 13 -205q26 -11 55 -16
q36 -3 36 -19q0 -41 -26 -41q-21 0 -137 44q-123 47 -123 64q0 11 19 21.5t31 10.5q4 0 32 -17q33 -20 46 -26l3 397l-13 212q-77 -16 -89 -16q-16 0 -38 19v20q29 22 44 22q7 0 20 -1.5t20 -1.5q18 0 44 12t32 12q5 0 15 -3t15 -3q24 0 69.5 17t58.5 17q7 0 16 -8t9 -15
q0 -31 -55 -41q-63 -11 -69 -20v-19q0 -2 34 -132q23 -87 56 -196q4 -12 56 -204l3 -11q12 -52 41 -169q35 114 50 228q7 63 33 242l37 239q-21 7 -67 11.5t-67 12.5q-6 2 -15 12t-9 16q0 16 19 24l26 8l281 -74q26 2 26 -30q0 -38 -50 -38l-22 18q-21 17 -39 15
q22 -162 31 -299q5 -78 15 -301q1 -37 2 -73q2 -43 9 -73q2 -8 69 -18.5t67 -25.5z" />
    <glyph glyph-name="N" unicode="N" horiz-adv-x="756" 
d="M810 770q0 -12 -10.5 -21.5t-22.5 -9.5q-7 0 -23 8q-18 0 -52 4q-16 -9 -19 -62q-5 -78 -7 -88l-3 -138q-2 -85 -24 -261q-7 -50 -24 -189q-1 -23 -4 -90q-3 -53 -21 -92q-14 -17 -41 -21q-16 1 -20 10q-113 279 -296 641q-6 12 -21 47l-39 86l45 -553q5 0 64 5l47 4
q8 1 16 -6.5t8 -15.5q0 -11 -8 -22t-18 -11h-242q-12 0 -29 9t-17 20q0 8 15.5 18.5t24.5 10.5q-10 0 53 -14l42 2q-12 28 -13 68q0 20 -2 71q-19 336 -59 508q-8 -1 -37 -7q-23 -5 -36 -5q-10 0 -23.5 8.5t-13.5 17.5q0 18 74 27q3 0 89 8q72 16 66 16q9 0 19 -6t10 -14
q0 -16 -15 -25.5t-31.5 -9.5t-16.5 -4q0 -10 67 -152q64 -134 85 -174q52 -95 111 -225q71 -155 109 -230q68 584 68 792q0 24 -9 46q-27 3 -52 3h-36q-27 0 -46 16v16q35 17 38 17q-45 0 49 -4l150 -6q20 2 53 2q28 -3 28 -25z" />
    <glyph glyph-name="O" unicode="O" horiz-adv-x="568" 
d="M568 347q0 -149 -76 -294q-88 -168 -215 -168q-57 0 -118 31q-147 75 -147 329q0 82 49 220q47 134 98 204q43 60 85.5 83.5t112.5 23.5q4 0 16 -5.5t15 -6.5q42 -11 49 -15q27 -10 43 -27q49 -50 72 -186q16 -94 16 -189zM511 336q0 95 -16 183q-20 109 -51 148
q-41 51 -139 51q-110 0 -204 -302q-34 -109 -34 -168q0 -78 20 -147q28 -96 87 -126q75 -38 103 -38h20q92 0 159 163q55 133 55 236z" />
    <glyph glyph-name="P" unicode="P" horiz-adv-x="650" 
d="M647 414q0 -121 -140 -220q-99 -70 -228 -107q4 -80 17 -192q85 17 113 17q29 0 29 -25q0 -12 -12 -20.5t-25 -8.5q-24 0 -71.5 -7.5t-71.5 -7.5h-80q-13 0 -34 8q-29 11 -29 23q0 11 15.5 20t27.5 9q-4 0 32 -12l44 4q2 10 2 22q-2 22 -14 148q-6 2 -22 -4
q-19 -6 -24 -6q-13 0 -24 26q0 18 29 26q17 2 35 5l-57 612q-19 0 -55 -7.5t-55 -7.5q-13 0 -31 9t-18 20q0 21 83 32q46 6 87 6q205 0 328 -76q149 -92 149 -286zM587 409q0 29 -29 130q-22 76 -124 132q-92 50 -175 50h-40v-44l58 -545q3 0 8 1t8 1q11 0 92 39
q202 97 202 236z" />
    <glyph glyph-name="Q" unicode="Q" horiz-adv-x="656" 
d="M636 423q0 -127 -79 -255t-193 -183q8 -23 37 -67q39 -59 66 -59q5 0 15 -3t15 -3q34 0 53 40q14 29 14 59q0 19 -13 34t-31 15q-13 0 -22 -11.5t-9 -25.5q0 -12 26 -18q14 -14 14 -28q0 -7 -16.5 -17t-24.5 -10q-18 0 -36.5 17.5t-18.5 35.5q0 99 98 99q34 0 60.5 -20
t26.5 -53q0 -51 -29 -100q-37 -62 -96 -62h-18q-4 0 -8.5 3.5t-5.5 3.5q-20 5 -56 23q-25 20 -26 22q-20 16 -51 75q-19 36 -22 36q-6 0 -18 -2.5t-18 -2.5q-126 0 -194 77q-65 73 -65 201q0 65 30 199q5 24 35 77q55 99 88 142q17 22 46 51q12 12 69 49.5t66 37.5t26 -7
q26 -11 37 -14q92 -28 116 -57q59 -73 65 -81q47 -71 47 -218zM586 414q0 17 -8 79t-12 71q-41 87 -81 127q-56 56 -136 56q-15 0 -52.5 -21t-47.5 -34q-11 -16 -46 -61q-63 -81 -101 -182q-41 -107 -41 -204q0 -88 45 -157q53 -80 136 -77l24 1h33q-8 26 -19 121
q-10 86 -10 100q0 8 12 15t21 7q26 0 32 -66q0 -93 17 -167q96 50 165 166.5t69 225.5z" />
    <glyph glyph-name="R" unicode="R" horiz-adv-x="823" 
d="M860 25q0 -84 -48 -144q-52 -66 -133 -66q-108 0 -198 103q-67 76 -100 179q-20 61 -68 112q-55 57 -113 57q-2 0 -2 -4v-102q0 -42 -10 -52l5 -68q49 10 66 21q9 6 31 6q23 0 23 -16q0 -10 -25 -37q-23 -3 -138 -39l-104 -32q-7 0 -21.5 7t-18.5 13q26 41 133 60
q10 89 10 128v101q-3 1 -18 1q-9 0 -34 15q-1 22 16 32q3 1 36 13l-3 300q0 44 -14 44q-13 0 -38 -3t-38 -3q-15 0 -41 22q14 30 79 30h44q-5 0 1 1h16h19q108 0 191 -37q112 -50 112 -150q0 -85 -60 -134q-38 -31 -159 -80q12 -13 56 -36q41 -22 58 -43q42 -53 97 -197
q23 -60 87 -111q67 -55 128 -55q58 0 93 52q31 45 31 106t-47 97q-43 33 -106 33q-40 0 -60.5 -27t-20.5 -68q0 -24 23.5 -43.5t48.5 -19.5q28 0 37 15q8 26 8 28q7 15 22 15q6 0 15.5 -15t9.5 -22v-32q-38 -34 -92 -34q-43 0 -81 28q-42 30 -42 71q0 144 135 144
q80 0 138 -41q64 -46 64 -123zM422 510q0 75 -79 115q-66 33 -146 29v-328l100 37q59 22 89 52q36 36 36 95z" />
    <glyph glyph-name="S" unicode="S" horiz-adv-x="556" 
d="M596 768q-35 -32 -67 -95q-8 -17 -31 -64q-28 -55 -45 -55q-9 0 -20 8.5t-11 17.5q0 3 23 42t23 43q0 24 -36 38q-29 12 -57 12q-72 0 -131 -51q-62 -53 -62 -124q0 -77 67 -134l135 -91q82 -55 106 -127q27 -27 27 -99q0 -105 -101 -178q-90 -65 -190 -65q-85 0 -154 75
t-69 160q0 79 59.5 134.5t139.5 55.5q61 0 107.5 -51t46.5 -113q0 -39 -39 -75.5t-78 -36.5q-5 0 -14 1.5t-14 1.5q-34 0 -58 33q-22 30 -22 65q0 22 3 28q7 15 37 21q14 -14 19 -57q4 -36 24 -36q4 0 13.5 -3t14.5 -3q24 0 40 20.5t16 45.5q0 47 -36 78.5t-84 31.5
q-47 0 -83.5 -45t-36.5 -94q0 -67 55.5 -129.5t122.5 -62.5q75 0 147 54q79 60 79 138q0 72 -54 134q-37 42 -123 104q-90 65 -125 103q-13 14 -22.5 44t-9.5 52q0 103 76 171q73 66 177 66q65 0 119 -39q22 26 30 65q8 5 31 14q9 0 20.5 -10t14.5 -19z" />
    <glyph glyph-name="T" unicode="T" horiz-adv-x="576" 
d="M602 753q0 -4 -5.5 -20t-6.5 -21q0 -6 1 -19t1 -19q0 -58 -27 -58q-31 0 -31 28q0 9 3.5 26.5t3.5 26.5q0 26 -26 24l-195 -15v-514l-16 -262q-2 -30 7 -54l112 3q7 0 17 -9.5t10 -16.5q0 -31 -37 -31q8 0 -32 8l-158 6q-82 3 -112 30q15 34 45 34q11 0 38.5 -10.5
t38.5 -10.5q4 0 8 4q6 20 18 40q5 2 5 1v506q0 47 3 98l2 53q-5 0 -5 7v61q0 4 2.5 4.5t2.5 1.5q0 7 -1.5 20t-1.5 20q-3 2 -21 2l-108 -14q-18 -1 -36 -3q-25 -2 -33 -9q3 -23 14 -73q1 -6 11 -26.5t10 -23.5q0 -6 -12 -14t-18 -8q-22 0 -26 17q-13 52 -29 122
q-1 4 -9.5 15.5t-8.5 15.5q0 7 15 17.5t23 10.5q4 0 13 -2.5t13 -2.5q10 0 30 5q24 6 31 7q137 17 228 25q40 3 163 12q8 1 26 8.5t24 7.5q11 0 23.5 -10t12.5 -21z" />
    <glyph glyph-name="U" unicode="U" horiz-adv-x="647" 
d="M693 712q0 -9 -9 -20t-18 -11q-16 0 -48 6t-48 6q-18 0 -23 -8q4 -52 26 -145q15 -63 20 -128l12 -150q1 -13 1 -35q0 -82 -30 -167q-48 -135 -163 -135q-6 0 -17.5 3t-17.5 3q-44 0 -116 45q-65 41 -97 81q-24 30 -58 115q-10 25 -10 105q0 81 20 166q5 21 20 79v17
q3 -1 -91 -1q-14 0 -40 19q3 24 17 30q7 3 26 3q-39 0 55 -7q82 -6 113 -7q17 1 79 4q17 1 17 -23q0 -34 -35 -34q-9 0 -28 4.5t-28 4.5q-19 0 -24 -5q-43 -131 -43 -253q0 -107 69 -198q78 -103 192 -103q4 0 14.5 3t14.5 3q60 0 85 134q14 75 14 146q0 128 -53 399
q-1 5 -19 33q-24 0 -70 -2l-46 -2q-34 -1 -55 20q6 12 26 20.5t35 8.5q6 0 17.5 -1.5t17.5 -1.5l253 6q14 0 28.5 -7t14.5 -20z" />
    <glyph glyph-name="V" unicode="V" horiz-adv-x="488" 
d="M523 753q0 -26 -34 -26q-10 0 -30 6.5t-29 6.5q-18 0 -20 -60l-3 -86q-6 -33 -5 -59q3 -55 2 -56q-4 -149 -27 -412q-2 -18 -11 -72q-8 -45 -8 -73q0 -11 1 -23q-3 -16 -18 -30.5t-31 -14.5q-20 0 -25 12q-6 32 -21 92q-43 124 -95 327q-47 186 -71 250q-11 0 -33.5 -5.5
t-33.5 -5.5q-9 0 -20 8t-11 17q0 21 75 26q33 2 99 5l52 3q8 0 14.5 -7.5t6.5 -15.5q0 -9 -8.5 -16t-17.5 -7q-8 0 -24.5 3t-24.5 3q-11 0 -16 -6l67 -263q32 -127 90 -295q15 45 15 83v67l3 57l2 56q0 5 9 87q10 92 12 128q6 106 6 233q0 37 -5 44q-11 15 -62 16
q-33 0 -44 27q18 18 40 18l150 -17q84 0 84 -25z" />
    <glyph glyph-name="W" unicode="W" horiz-adv-x="857" 
d="M866 -59q0 -24 -22 -33q-5 -2 -43 -9q-225 -90 -259 -90q-7 0 -17.5 9.5t-10.5 16.5q0 35 53 34q-9 0 43 9q-76 160 -222 484q-20 -68 -38 -198q-18 -137 -34 -198q5 -5 30 -5q6 0 17.5 1.5t17.5 1.5q9 0 16 -8.5t7 -17.5q0 -38 -32 -38q-7 0 -22 3t-22 3q-6 0 -23 -7.5
t-24 -7.5t-20.5 8t-19.5 9q-18 5 -50 5q-36 1 -50 3q-9 2 -19 10.5t-10 17.5q0 10 17 21t28 11q7 0 26 -7.5t26 -7.5h35l-43 413l-51 265l-48 -32q-48 -32 -59 -32q-17 0 -40 26q6 9 7 18q44 20 151 86q99 61 106 61q28 0 28 -25q0 -19 -8 -25q-19 -7 -47 -20
q-36 -17 -36 -37q0 -29 37 -213q12 -62 23 -163q13 -123 20 -164q44 153 44 303q0 26 -4 36q2 12 18.5 23.5t29.5 11.5q14 0 31 -19l100 -231q57 -132 111 -221q1 45 21 301q18 231 18 337q0 21 -6 46q-18 10 -71 18q-32 5 -32 29q0 26 43 26q143 -40 165 -40q9 0 27.5 -1.5
t27.5 -1.5q59 0 59 -24q0 -12 -10 -26t-22 -14q12 0 -12 6.5t-40 9.5q-33 6 -63 6q-7 -9 -9 -60l-7 -219q0 -13 -17 -202q-14 -159 -14 -275q0 -7 11 -32q43 17 96 39t58 22q29 0 29 -26z" />
    <glyph glyph-name="X" unicode="X" horiz-adv-x="632" 
d="M677 24q0 -20 -13 -27q-6 -3 -31 -8q-35 -19 -118 -87q-88 -72 -123 -94q-34 10 -34 23q0 14 14 22q97 56 97 72q0 30 -65 179q-52 118 -69 151l-116 -312q9 -4 47 -24.5t38 -27.5q0 -11 -9.5 -22.5t-20.5 -11.5q-22 0 -119.5 64.5t-97.5 79.5q0 27 35 27q7 0 41 -28
l39 -32q30 62 59 151q14 43 47 127q31 79 31 81q0 29 -80 209q-79 177 -84 177l-64 -2q-76 -2 -76 28q0 10 13.5 18t24.5 8q7 0 23.5 -5.5t22.5 -5.5l14 1q6 0 30 1l43 1q11 0 33.5 8t33.5 8q31 0 31 -23q0 -25 -29 -31q-34 -7 -39 -9l129 -306l78 180q41 95 48 144
q-9 6 -40 24q-23 14 -23 22q5 23 45 23q18 0 169 -120q0 -42 -32 -42q-11 0 -34 22q-27 26 -35 29q-16 -31 -80 -185q-65 -157 -65 -168q0 -8 64 -157l90 -209q13 4 64 43q47 37 60 37q33 0 33 -23z" />
    <glyph glyph-name="Y" unicode="Y" horiz-adv-x="634" 
d="M634 640q0 -9 -10.5 -19t-19.5 -11q-22 5 -71 44q-38 -96 -74 -205q-11 -32 -44 -179q0 -3 3.5 -11t3.5 -11q-4 -61 0 -98q1 -8 7 -72q0 -8 2.5 -23t2.5 -23v-82q0 -5 7.5 -25.5t10.5 -21.5q65 5 99 5q6 0 21 -14q-1 -48 -33 -48q6 0 -28 11l-236 -3q-12 0 -21.5 11
t-9.5 23q0 9 16 19t26 10q70 -17 76 -17q17 0 23 5v15q0 160 -16 239q-18 88 -78 189q-47 78 -184 265q-60 -49 -69 -49q-11 0 -23 8t-12 19q16 12 111 77q29 19 54 44q9 9 26 9q7 0 19 -7.5t12 -13.5q0 -19 -25 -37q-10 -4 -21 -7q-16 -6 -16 -17t92 -150l117 -177
q14 39 43 173q62 150 62 184q0 15 -32 37q-63 43 -63 51q0 6 14 13.5t21 7.5l51 -27q51 -28 65 -31q10 -17 51 -37.5t42 -22.5q8 -13 8 -20z" />
    <glyph glyph-name="Z" unicode="Z" horiz-adv-x="400" 
d="M404 -150q0 -11 -15 -19t-27 -8q28 0 -7 1q-38 1 -124 2q-30 0 -87.5 -8.5t-86.5 -8.5q-37 0 -37 25q0 4 7.5 17.5t9.5 17.5q2 11 10 36l50 164q20 67 42 165q17 76 71 254q48 159 67 254l-117 -16q-79 -11 -94 -31q10 -117 30 -156q7 -14 7 -17q0 -29 -27 -29
q-10 0 -39 24q4 30 -16 113l-21 87q0 26 40 29q20 1 24 3q36 16 78 21q15 2 65 8q10 1 64 16q44 12 48 12q7 0 19 -6.5t12 -12.5q-18 -58 -85 -294q-87 -305 -104 -394q-23 -77 -70 -231q19 -2 62 1l43 3q5 0 18 2.5t20 2.5h96q5 4 5 30q0 49 -13.5 143.5t-14.5 140.5
q0 19 -1 74q-1 10 -9 32.5t-8 34.5t15 21t28 9q30 0 31 -168q0 -58 12 -150q14 -109 15 -157q1 -5 7.5 -19.5t6.5 -17.5z" />
    <glyph glyph-name="bracketleft" unicode="[" horiz-adv-x="299" 
d="M307 2q0 -21 -22 -30q-16 1 -124 -24l-108 -25q-15 0 -43 20q13 52 13 79v343l9 276q0 11 13.5 23.5t24.5 12.5q-21 0 25 -4q42 -4 71 -6q69 -4 124 -4q11 -9 11 -23q0 -20 -17 -24q-4 -1 -30 -1q14 0 -17 3q-25 2 -48 4q-43 3 -86 3q-11 -13 -15 -77l-7 -99l4 -462
q45 7 123 27q6 2 34 13.5t33 11.5q12 0 22 -12.5t10 -24.5z" />
    <glyph glyph-name="bracketright" unicode="]" horiz-adv-x="338" 
d="M327 1q0 -21 -54 -33q-3 0 -11 5t-11 5l-115 3q-14 0 -42 -6.5t-42 -6.5q-10 0 -21.5 7.5t-11.5 17.5q0 12 19 25.5t32 13.5h176l-36 562q-1 12 -8.5 24.5t-18.5 12.5q-13 0 -67 -4l-67 -5q-12 -1 -27.5 9.5t-15.5 21.5t16 22t28 11q13 0 35 -4.5t35 -4.5q9 0 110 16
q38 0 45 -137q1 -46 8 -178q8 -78 30 -311q1 -9 7.5 -32t6.5 -34z" />
    <glyph glyph-name="a" unicode="a" horiz-adv-x="609" 
d="M652 -19q0 -42 -46 -42q-4 0 -12 1.5t-12 1.5l-219 -52q-16 12 -37 27q14 32 30 37q96 3 96 25v293q-21 18 -75 18q-126 0 -259 -33q-15 -4 -29.5 -28.5t-14.5 -41.5q0 -47 82 -79q61 -24 100 -24q7 0 20.5 -1.5t20.5 -1.5q51 0 61 78q-8 5 -28 7q-14 3 -20 5
q-12 6 -16 18q14 34 48 34q26 0 56 -16q34 -18 34 -41q0 -29 -35 -81q-40 -59 -76 -59q-12 0 -37 3t-37 3q-58 0 -140 41q-94 47 -94 104q0 107 163 142q74 16 224 16q-6 0 46 -13l-13 197q-5 83 -51 116q-40 29 -126 29q-57 0 -117 -35q-71 -41 -71 -95q0 -42 33 -67
q29 -22 73 -22q16 0 30.5 8.5t14.5 22.5q0 7 -8 28t-8 28q0 10 10.5 18t21.5 8q30 0 38 -35q4 -17 4 -57q0 -47 -27 -57l-81 -12q-159 24 -159 140q0 125 225 176q17 -1 42 1l25 2q159 13 187 -163q18 -113 18 -342v-61l-1 -62q-1 -78 12 -106q16 1 53 14.5t52 13.5
q8 0 18.5 -10.5t10.5 -18.5z" />
    <glyph glyph-name="b" unicode="b" horiz-adv-x="723" 
d="M732 164q0 -37 -4 -50q-18 -56 -146 -97q-84 -27 -126 -27l-164 16q-16 0 -19 -15q1 5 1 -25q0 -69 23 -69q9 0 28 1.5t27.5 1.5t25 3t24.5 3q40 0 40 -37q0 -30 -39 -30q-16 0 -48.5 6.5t-48.5 6.5q-12 0 -35.5 -2t-35.5 -2q-39 0 -94 9q-73 12 -73 30q0 11 16 23.5
t27 12.5t40 -11.5t44 -11.5q11 0 21 6q0 15 -1.5 45.5t-1.5 45.5q0 30 5 89.5t5 89.5v63q-10 -1 -33 -8.5t-35 -7.5q-13 0 -31 16t-14 28q11 14 110 23v207q0 113 15 179l-5 50q-21 -1 -65.5 -12t-68.5 -11q-8 0 -24.5 -3t-24.5 -3q-37 0 -37 24q0 21 28 26q22 0 50 5
l151 27q7 -1 19.5 2t17.5 3q34 0 34 -34q0 -4 -7.5 -21.5t-8.5 -23.5q-4 -43 -12 -130l-8 -83l6 -186q153 10 207 10q81 0 151 -31q94 -42 94 -121zM671 164q0 59 -102 87q-62 17 -130 17q-7 0 -154 -20q-2 -51 -7 -99l-4 -38v-43q102 -29 176 -29q24 0 62 6q159 25 159 119
z" />
    <glyph glyph-name="c" unicode="c" horiz-adv-x="475" 
d="M471 189q0 -11 -40 -32q-102 -54 -175 -54h-54q-73 0 -131 59.5t-58 132.5q0 120 123 177q89 41 208 41q20 0 67 -18q60 -23 60 -48q0 -10 -11.5 -17t-22.5 -7q-13 0 -18 5q-9 12 -15 16q-35 24 -104 24q-76 0 -141 -34q-85 -44 -85 -126q0 -61 42.5 -108.5t103.5 -47.5
h44q54 0 91 18q17 8 49 34q24 19 40 19q10 0 18.5 -11.5t8.5 -22.5z" />
    <glyph glyph-name="d" unicode="d" horiz-adv-x="605" 
d="M648 -55q0 -15 -15 -23.5t-31 -8.5q-14 0 -40.5 9.5t-40.5 9.5h-215q-29 17 -29 28q0 18 42 30q-11 0 -7 -1q12 -3 68 -9q30 -3 57 -3q18 0 18 38q0 20 -7 74.5t-12 67.5q1 23 1 46q0 27 -6 43q-9 25 -139 25q-56 0 -116 -12q-105 -21 -105 -67q0 -47 73 -79
q59 -26 98 -26h24q16 0 44 11q38 15 38 36q0 17 -33 34q-42 21 -47 27q4 13 17.5 23.5t27.5 10.5q30 0 71.5 -27t41.5 -55q0 -49 -78 -84q-62 -28 -106 -28h-27q-55 0 -125 43q-84 51 -84 114q0 16 26 45q22 25 40 36q15 9 83 23q65 14 87 14q3 0 92 -3q30 -1 95 1l-16 376
q-4 2 -14 2q-31 0 -91 -7l-68 -8q-8 0 -21 11.5t-13 19.5q4 5 26 26q94 1 144 8q9 1 30.5 11.5t32.5 10.5q43 0 43 -36q0 -10 -4 -33t-4 -34l16 -418q9 -53 16 -135l10 -112l78 -16q4 0 12.5 1.5t12.5 1.5q10 0 19.5 -11t9.5 -21z" />
    <glyph glyph-name="e" unicode="e" horiz-adv-x="485" 
d="M452 192q0 -94 -40 -170q-47 -90 -128 -90q-8 0 -25 3.5t-25 3.5q-126 0 -166 317q-1 2 -1 30q0 29 1 86q1 -1 -18 -1q-43 0 -47 41q22 23 47 23q3 0 9 -1.5t9 -1.5q-6 23 27 89q68 137 132 137q80 0 123 -36q40 -34 60 -114q42 -86 42 -94q0 -12 -15.5 -21t-28.5 -9
q12 0 -28.5 5t-45.5 5q6 0 -206 -14q-9 -14 -9 -46v-72q0 -19 8 -54l8 -35l10 -42q37 -148 139 -150q61 10 91 85q22 55 22 121q0 29 -9 55q-12 35 -35 35q-98 0 -98 -77q0 -25 11 -45q12 -23 35 -26l13 30q15 25 36 25q10 0 18.5 -11t8.5 -21q0 -29 -25 -53.5t-54 -24.5
q-101 0 -101 129q0 123 179 123q76 0 76 -134zM371 446v17q-35 90 -50 110q-28 37 -90 37q-40 0 -74 -84q-27 -67 -26 -93z" />
    <glyph glyph-name="f" unicode="f" horiz-adv-x="587" 
d="M600 569q0 -85 -64 -134q-58 -45 -146 -45q-25 0 -29 1q-14 4 -31 20q-2 9 -22 66q-14 40 -14 46q0 32 13 64q17 42 43 42q12 0 24.5 -10t12.5 -21q0 -3 -22 -36q-7 -11 -7 -33q0 -47 35 -94q66 -3 105 41q37 41 37 108q0 171 -159 171q-44 0 -93 -40q-45 -36 -66 -79
q-14 -28 -14 -88q0 -49 23 -222q24 -182 39 -207q27 0 88 5l61 5q10 1 17.5 -10t7.5 -21q0 -13 -17.5 -23.5t-31.5 -10.5q-11 0 -31.5 3t-31.5 3q-23 0 -51 -9q15 -49 24 -111q6 -41 28 -73l84 16q53 10 56 10q32 0 32 -30q0 -21 -73 -32q-12 -2 -103 -13q-54 -16 -138 -22
q-41 -3 -47 -3q-25 0 -30 1q-15 5 -25 27q4 6 24 18t26 12q7 0 21 -3t21 -3t79 9q-7 82 -38 198q-16 1 -42 0q-13 -1 -36.5 -2.5t-20.5 -1.5q-12 0 -26.5 10t-14.5 21q0 10 16 22t26 12t30.5 -6t30.5 -6q11 0 23 7q-15 49 -27 134l-24 169q-3 85 -13 109q3 13 2 54
q-1 33 12 56q50 87 111 125t160 38q81 0 132 -80q44 -69 44 -154z" />
    <glyph glyph-name="g" unicode="g" horiz-adv-x="696" 
d="M684 500q0 -72 -85 -134q-77 -56 -151 -56q-8 0 -25 -3.5t-25 -3.5h-32q-26 0 -98 15q-48 10 -79 18q-1 -6 -8 -22.5t-7 -23.5q0 -12 13.5 -25t25.5 -13q-14 0 25 1q34 1 42 1l67 1q97 26 135 26q182 0 182 -200q0 -61 -14 -90q-26 -54 -77 -90q-29 -21 -89 -49
q-83 -39 -121 -39q-6 0 -18.5 -1.5t-18.5 -1.5q-72 0 -179 40q-144 54 -144 135q0 39 69 116q31 35 123 56q74 17 134 17q69 0 122 -15q81 -23 81 -75q0 -44 -43 -86.5t-87 -42.5q-4 0 -13 -3.5t-13 -3.5h-71q-36 0 -74 10q-50 13 -50 39q0 11 16 23t27 12q6 0 15.5 -9.5
t11.5 -15.5q32 -10 45 -10h57q111 0 111 80q0 44 -146 44q-17 0 -36 -1l-19 -1q-40 -2 -113 -27q-11 -4 -48 -39q-41 -39 -41 -61q0 -64 135 -107q82 -26 143 -30q261 44 261 226q0 73 -30 107.5t-102 34.5q-41 0 -122 -11.5t-122 -11.5q-111 0 -111 73q0 15 9.5 45t9.5 45
q-100 85 -100 156q0 51 79 101q41 26 90 45q70 27 100 32q18 3 96 3q-5 0 59 -19q21 29 66 70q57 52 83 52q27 0 27 -32q0 -11 -1 -16q-88 -42 -105 -85q78 -34 109 -61q49 -43 49 -109zM619 498q0 80 -123 126q-19 7 -52 7q-30 0 -42 -1q-13 1 -33 23q-18 5 -48 5
q-52 0 -136 -42q-95 -48 -95 -98q0 -30 51 -85q30 -32 60 -48q13 -7 52 -17q50 -13 72 -13h54q81 0 149 30q91 40 91 113z" />
    <glyph glyph-name="h" unicode="h" horiz-adv-x="679" 
d="M728 -68q0 -16 -14 -27t-31 -11q-39 0 -48 -2l-153 -35q-6 -1 -31 -11t-29 -10q-5 0 -17.5 10t-12.5 14q0 16 26 25q21 4 63 13q55 12 55 31q0 27 -25 182q-28 173 -45 218q-23 60 -59 60q-68 0 -170 -83v-136q3 0 8 -24q1 -1 3 -84q2 -57 12 -72q17 1 53 11t56 10
q25 0 25 -25q0 -26 -26 -30q-33 -5 -130 -19q-31 -5 -91 -17q-56 -12 -53 -12q-19 0 -24 3q-10 4 -17 24q7 7 21 22q41 3 121 18q5 22 5 43q0 16 -4 49t-4 49v79q0 26 -2 66q-28 -31 -41 -31q-12 0 -21 9t-9 21q0 11 16 24q8 6 25 18q29 23 29 31l-14 350h-29
q-17 0 -49.5 -9.5t-49.5 -9.5q-9 0 -21 6.5t-12 14.5v14q24 13 42 15l106 14q64 16 59 16q10 0 18 -14q5 -12 5 -20q0 -4 -6 -17t-7 -17q0 -9 -2 -27t-2 -27q0 -13 10 -16v-242q131 80 166 80q100 0 132 -165q4 -23 15 -89l41 -257q20 -2 54.5 10.5t48.5 12.5q11 0 22.5 -7
t11.5 -17z" />
    <glyph glyph-name="i" unicode="i" horiz-adv-x="385" 
d="M310 582q0 -33 -42 -54q-15 -7 -63 -22q-52 1 -85 34.5t-33 85.5q0 35 34 72t68 37q12 0 24.5 -8t12.5 -19q0 -10 -43 -31q-31 -30 -31 -59q0 -57 45 -57q18 0 35 12q0 4 -22 22.5t-26 32.5q27 20 51 20q27 0 51 -20t24 -46zM413 -47q0 -13 -12 -26.5t-25 -13.5
q17 0 -20 6q-31 5 -56 8q-44 5 -89 5h-109q-63 0 -63 33q0 9 16 20.5t26 11.5q-18 0 45.5 -7t67.5 -6q6 -2 11 -2q17 0 20 29v42q0 9 1 20v11q0 69 -13 308q0 3 -9 11q-29 -3 -91 -14l-69 -12q-41 0 -41 33q0 21 57 28q-10 0 68 5q19 1 76 15l54 13q29 0 29 -40
q0 -4 -5.5 -11.5t-6.5 -10.5q-2 -7 -1 -25l10 -156v-81l3 -170h42q9 0 26.5 3.5t26.5 3.5q31 0 31 -31z" />
    <glyph glyph-name="j" unicode="j" horiz-adv-x="497" 
d="M471 160q0 -99 -66 -170q-67 -74 -165 -74q-90 0 -160 71t-70 161q0 86 50.5 135t136.5 49q47 0 83 -44.5t36 -93.5q0 -100 -92 -100q-22 0 -66 21q-47 22 -51 39q27 33 43 33q7 0 37 -21t45 -21q23 0 23 40q0 36 -24.5 64t-59.5 28q-47 0 -75 -35.5t-28 -83.5
q0 -80 56.5 -136.5t136.5 -56.5q145 0 145 216q0 65 -43 244q-49 204 -89 204q-10 0 -29.5 -3t-28 -3t-24 -2t-23.5 -2q-9 0 -19.5 9.5t-10.5 18.5q0 12 17.5 23t30.5 11q7 0 22 -2t22 -2q35 0 198 29q14 0 24.5 -9.5t10.5 -23.5q0 -16 -12 -28.5t-28 -12.5q-11 0 -31.5 1.5
t-31.5 1.5q12 -54 45.5 -158.5t45.5 -156.5q19 -83 19 -160z" />
    <glyph glyph-name="k" unicode="k" horiz-adv-x="617" 
d="M661 86q0 -14 -38 -116l-42 -113q-9 -38 -27 -38q-11 0 -35 18q33 77 48 117q-50 55 -132 121l-148 119q-24 -4 -35 -7q-22 -6 -33 -16q1 -41 3 -63q3 -36 11 -61q17 2 46 9q4 1 14.5 8.5t13.5 7.5h23q12 -24 12 -22q0 -28 -121 -55q-152 -34 -145 -34q-14 0 -37 17
q-2 14 16.5 25.5t32.5 8.5q27 4 54 9q36 10 36 30q0 -10 -6 68l-1 13q-2 16 -5 61q-6 100 -9 235q-1 55 -15 148v92q-1 4 -8 24q-84 -31 -95 -31q-8 0 -36 18q12 16 117 49q2 1 20 14q11 8 24 8q28 0 28 -27q0 -6 -3 -19t-3 -17l21 -318q27 24 107 51q77 27 116 27
q43 0 71 -16q35 -20 35 -59q0 -62 -60 -104q-34 -24 -126 -59q35 -42 106 -97q9 -7 134 -101q8 28 17 55q14 42 30 42q24 0 24 -22zM480 362q0 38 -43 38q-30 0 -39 -4q-94 -14 -142 -47q-10 -7 -30 -30q-14 -16 -20 -14q8 -21 8 -85q85 19 150 38q116 34 116 104z" />
    <glyph glyph-name="l" unicode="l" horiz-adv-x="259" 
d="M277 29q0 -34 -43 -29h-155q-3 0 -8 -3t-8 -3q-15 0 -31 8q-19 9 -19 22q0 9 3 26t3 26v509q0 92 42 92q29 0 29 -30q0 -14 -9 -45.5t-9 -48.5v-33q-1 -7 -1 -15v-252q0 -201 24 -201h87q10 0 31 4.5t31 4.5q33 0 33 -32z" />
    <glyph glyph-name="m" unicode="m" horiz-adv-x="1093" 
d="M1109 88l-346 -172q-14 0 -27 8t-13 21q0 9 51 33q31 15 81 37q-38 192 -59 293q-36 173 -105 292q-42 2 -79 -49q-4 -6 -60 -89q0 -12 -4 -38l-3 -171q-1 -41 19 -54q6 -3 64 -23q35 -12 62 -39q-17 -27 -27 -27h-19q-17 0 -47 18.5t-44 21.5q-81 16 -123 25
q-95 21 -107 36v17q41 11 38 11q14 0 118 -26q8 8 8 21l7 326q-4 25 -7 50q-5 13 -32 13q-34 0 -114.5 -69t-79.5 -101l10 -306q3 -81 15 -105q8 1 85 15l60 11q11 0 25.5 -8t14.5 -18q0 -4 -3.5 -11.5t-3.5 -8.5q0 -6 -20 -6l-207 -29q-20 0 -65 -3l-45 -3q-46 -3 -56 16
q-1 5 -1 8q0 27 45 27q18 0 37 -1l37 -2q27 -1 27 21v90q0 1 -5 78l-5 77q0 8 -4 35q-2 22 -2 36v161q0 28 -12 96q-15 -2 -63 -24t-51.5 -22t-9 -3t-9.5 -3q-17 0 -30 11t-12 27q59 29 235 97q11 0 22 -7t11 -17q0 -17 -30 -39q0 -45 9 -88q40 38 96 75q77 51 121 51
q46 0 63 -31q11 -20 17 -73q11 22 51 48.5t63 26.5q81 0 112 -84l40 -153q31 -85 57 -212q23 -112 45 -155q35 20 77 43q70 38 75 38q16 0 22 -11q4 -5 10 -30z" />
    <glyph glyph-name="n" unicode="n" horiz-adv-x="904" 
d="M969 85q-1 -16 -21 -38.5t-36 -26.5q-58 -15 -116 -53q-38 -25 -77 -51q-56 -35 -77 -35q-13 0 -35 13v18q40 21 80 41q65 39 65 68l-37 125q-26 91 -51 183q-34 112 -66 173q-57 108 -132 108q-31 0 -105 -50t-74 -78q0 -16 13 -145q32 -318 61 -318q4 0 125 20
q17 -14 17 -33q0 -32 -43 -32q-6 0 -16.5 1.5t-16.5 1.5l-307 -38q-8 2 -26 14q-7 7 -7 13q0 27 89 30q50 2 92 10q9 33 9 38q-6 42 -15 111q-28 208 -34 354q-3 85 -24 136l-154 -45q-11 0 -27.5 8.5t-16.5 18.5t75 35l82 27q64 21 79 21q18 0 32 -28q-3 -5 -3 -24
q0 -12 15 -81q81 51 94 58q56 29 105 29q100 0 186 -186q51 -111 75 -221q8 -35 29 -100q27 -82 47 -115q12 4 62 30q42 22 63 22q14 0 22 -9z" />
    <glyph glyph-name="o" unicode="o" horiz-adv-x="570" 
d="M532 287q0 -87 -79.5 -159.5t-167.5 -72.5h-39q-91 0 -160.5 74t-69.5 166q0 153 141 245q92 60 159 60q23 0 23 -24q0 -3 -2 -8.5t-2 -8.5q-110 -16 -183 -82q-81 -73 -81 -179q0 -87 53 -141t139 -54q77 0 141 50q70 53 70 128q0 54 -24 102q-31 62 -87 62
q-41 0 -78 -22q-43 -25 -43 -63q0 -32 18 -59q20 -30 50 -30q28 0 28 19q0 7 -5.5 24t-5.5 25q0 22 36 22q16 0 31.5 -24.5t15.5 -41.5q0 -27 -33.5 -51.5t-62.5 -24.5q-50 0 -91.5 39t-41.5 89q0 70 63 111q55 36 129 36q78 0 123 -75q36 -60 36 -132z" />
    <glyph glyph-name="p" unicode="p" horiz-adv-x="657" 
d="M692 615q0 -56 -102 -105q-64 -30 -198 -65q-119 -31 -127 -36q4 -44 18 -131q8 -32 30 -210q17 -135 39 -165q20 3 79 15q54 11 58 11q42 0 42 -32q0 -33 -55 -35q-22 0 -80 -2q-24 -1 -106 -16q-98 -18 -143 -18q-36 0 -43 34q11 9 33 20q44 0 132 14q4 5 3 21l-74 486
q-8 1 -28.5 -9t-22.5 -10q-14 0 -32 12.5t-18 25.5q0 15 20 23q16 7 33 7q-7 0 38 -1l-29 245q-10 5 -18 5q-15 0 -44.5 -6.5t-44.5 -6.5q-12 0 -29 9.5t-17 20.5q0 32 62 32q6 0 18 -1.5t18 -1.5q17 0 49 11t46 11q3 0 10 -3t11 -3q27 0 81.5 6.5t81.5 6.5q91 0 182 -32
q127 -45 127 -127zM608 620q0 56 -98 82q-64 17 -148 17q-101 0 -138 -13q0 -49 36 -246l97 26q251 67 251 134z" />
    <glyph glyph-name="q" unicode="q" horiz-adv-x="494" 
d="M527 -137q0 -13 -14.5 -22t-28.5 -9q-17 0 -49.5 3.5t-49.5 3.5q-10 0 -30 -5t-30 -5q-2 1 -30 3q-23 2 -51 -1q-50 -5 -81 -5q-82 0 -82 29q0 12 14.5 22t27.5 10q11 0 32.5 -4.5t32.5 -4.5t33.5 2.5t34 2.5t38.5 7q1 19 4 64l16 246l-6 107q-15 6 -30 6q-9 0 -26.5 -4
t-26.5 -4q-62 0 -130 33q-85 41 -85 103q0 80 93 155q73 59 165 89q44 0 53 25q2 6 3 57q21 7 35 7q31 0 31 -15q0 -6 -4 -19.5t-4 -20.5t2 -13q11 0 32 3t32 3q12 0 26.5 -8t14.5 -19q0 -9 -16.5 -20t-26.5 -11q-4 0 -14.5 5t-14.5 5q-6 0 -16.5 -1.5t-16.5 -1.5
q-3 -25 -8 -102q-4 -65 -4 -88q4 -32 9 -112q9 0 26.5 5t26.5 5q8 0 20 -12t12 -20q0 -16 -14 -26t-31 -10q-5 0 -16 2q-7 2 -30 -1l-20 -405q106 0 97 1q75 -5 75 -35zM317 357v294q-83 -23 -152 -71q-91 -63 -91 -136q0 -41 66 -67q53 -21 99 -21q-7 0 39 3q31 2 39 -2z
" />
    <glyph glyph-name="r" unicode="r" horiz-adv-x="600" 
d="M615 504q0 -82 -45.5 -126t-127.5 -44q-5 0 -56 10q-5 4 -13 10q-2 10 0 33q2 24 2 36q0 6 -4.5 20t-4.5 20q0 39 51 39q8 0 17 -8t9 -16q0 -11 -6.5 -32.5t-6.5 -32.5q0 -20 3 -24q4 -7 22 -7q101 0 101 120q0 48 -18 80q-22 40 -66 40q-80 0 -162 -90q-77 -84 -77 -151
v-240q0 -55 12 -144q16 1 50.5 13.5t50.5 12.5q4 0 11.5 -3t10.5 -3q4 -8 4 -20q0 -38 -19 -38q-22 0 -31 3l-238 -39q-32 14 -32 26q0 16 17 26q14 9 31 9q7 0 22 -1.5t22 -1.5q34 0 39 12q2 4 1 45l-1 58q-2 116 -2 165v165l-3 169q-7 -2 -69 -28q-56 -23 -59 -23
q-13 0 -26.5 10t-13.5 22q0 10 61 34l82 32q10 7 29 19.5t32 12.5q38 0 38 -25q0 -3 -5 -12l-7 -14q-7 -33 -7 -61q0 -24 5 -31q121 143 262 143q54 0 88 -67q27 -53 27 -103z" />
    <glyph glyph-name="s" unicode="s" horiz-adv-x="542" 
d="M581 733q-30 -29 -64 -92l-31 -62q-26 -53 -44 -53q-8 0 -18.5 8.5t-10.5 16.5q0 3 22 40.5t22 41.5q0 23 -35 37q-28 12 -55 12q-70 0 -127 -50q-60 -51 -60 -120q0 -75 64 -129l131 -89q86 -58 103 -123q26 -31 26 -97q0 -100 -98 -172q-88 -64 -183 -64q-83 0 -150 73
t-67 156q0 77 57.5 130.5t135.5 53.5q61 0 105 -49t44 -110q0 -38 -38 -73.5t-76 -35.5q-4 0 -13 1.5t-13 1.5q-34 0 -57 32q-21 29 -21 64q0 20 3 26q7 15 36 21q13 -12 18 -56q4 -34 24 -34q4 0 12.5 -3t13.5 -3q25 0 40 19t15 44q0 45 -35.5 76.5t-81.5 31.5t-81 -44.5
t-35 -91.5q0 -66 54 -125.5t119 -59.5q78 0 146 52q73 57 73 133q0 70 -52 130q-35 41 -118 101q-87 63 -120.5 99.5t-33.5 94.5q0 100 74 166q71 64 172 64q69 0 115 -38q22 25 29 63q8 5 30 13q26 0 34 -28z" />
    <glyph glyph-name="t" unicode="t" horiz-adv-x="491" 
d="M486 101q0 -93 -52 -144t-145 -51q-138 0 -172 196q-2 9 3 66q1 15 5 59v23q-7 -2 -43 -16.5t-38 -14.5q-5 0 -38 17q14 27 66 47l52 20q4 25 10.5 75t26.5 193l3 19q28 179 56 179q35 0 35 -24q0 -6 -12 -37q-12 -34 -14 -44q-27 -174 -40 -337q15 2 110 44q35 0 35 -27
q0 -22 -70 -46q-78 -26 -79 -28q-12 -14 -12 -102q0 -67 23 -126q33 -84 96 -84h23q55 0 86 39q28 35 28 92q0 29 -18 77q-22 59 -52 59q-26 0 -42 -31q-13 -25 -13 -54q0 -20 4 -27q8 -14 38 -22q0 -3 3.5 -10t3.5 -11q0 -36 -45 -36q-23 0 -44 30t-21 54q0 63 29 106
q33 50 93 50q58 0 93 -65q28 -52 28 -108z" />
    <glyph glyph-name="u" unicode="u" horiz-adv-x="695" 
d="M744 725q0 -9 -10 -20.5t-19 -11.5q-17 0 -51 6.5t-51 6.5q-18 0 -24 -9q4 -52 27 -154q16 -69 21 -136l13 -161q1 -12 1 -35q0 -83 -32 -176q-51 -148 -173 -148q-5 0 -18 3.5t-19 3.5q-47 0 -123 48q-69 43 -104 86q-25 31 -61 122q-11 28 -11 113q0 87 21 175
q5 18 21 86v17h-97q-14 0 -42 20q3 25 18 32q7 3 27 3q-37 0 66 -8t114 -7q16 1 84 4q18 1 18 -25q0 -35 -37 -35q-10 0 -30 4.5t-30 4.5q-20 0 -26 -5q-46 -148 -46 -270q0 -113 74 -211q83 -109 205 -109q4 0 14.5 3.5t15.5 3.5q64 0 91 142q15 79 15 155q0 105 -17 215
q-4 27 -40 210q0 5 -20 35q-24 0 -74 -2l-50 -2q-35 -1 -58 21q12 31 64 31q6 0 18.5 -1.5t19.5 -1.5l270 6q45 1 45 -29z" />
    <glyph glyph-name="v" unicode="v" horiz-adv-x="493" 
d="M528 739q0 -26 -33 -26q-10 0 -30.5 7t-29.5 7q-19 0 -20 -60l-2 -86q-6 -29 -5 -60l2 -56q2 -63 -27 -412q-1 -17 -11 -72q-8 -46 -8 -72q0 -12 1 -23q-11 -45 -49 -45q-21 0 -25 11q-6 39 -22 93q-28 93 -95 326q-28 105 -70 250q-11 0 -33.5 -5.5t-33.5 -5.5
q-10 0 -21 8t-11 18q0 15 92 26q67 8 135 8q7 0 13.5 -8t6.5 -15q0 -23 -26 -23q-8 0 -24 2.5t-24 2.5q-12 0 -17 -6q50 -198 72 -281q43 -156 85 -277q15 41 15 83v67q0 9 3 58l3 57q27 187 27 447q0 36 -6 43q-10 16 -61 16q-34 0 -44 28q17 17 39 17l150 -16q84 0 84 -26
z" />
    <glyph glyph-name="w" unicode="w" horiz-adv-x="1050" 
d="M1058 646q0 -27 -39 -27q-46 0 -65 -3q0 -52 24.5 -160.5t24.5 -163.5q0 -114 -43 -209q-58 -128 -169 -128h-45q-46 0 -151 99q-77 72 -96 117q-4 10 -60 130q-50 -281 -175 -281q-45 0 -100 60q-53 56 -63 103q-14 64 -14 94q0 62 15 156l14 88q0 6 -1 18.5t-1 18.5
q-23 9 -83 15q-31 3 -31 29q0 29 42 29q25 0 72 -16t72 -16q5 0 16 -3t16 -3t14 1.5t14 1.5q26 0 35 -6q13 -9 13 -33q0 -26 -42 -26q-14 0 -62 16q-10 -9 -16 -42q-7 -39 -12 -50q2 -7 2 -19q0 -16 -6 -50l-6 -34v-114q0 -32 41 -94q46 -69 82 -69q40 0 76 119
q28 93 28 126v83q0 8 -2 23t-2 23q0 40 44 40q37 0 42 -14q1 -3 7 -46q2 -19 54 -167q30 -86 115 -166q95 -89 180 -89q31 0 77 79q21 36 34 111q10 57 10 104q0 54 -15 156q-22 149 -54 149q-20 0 -60 -11.5t-57 -11.5q-11 0 -22.5 7t-11.5 17q0 20 151 47q129 23 158 23
q31 0 31 -31z" />
    <glyph glyph-name="x" unicode="x" horiz-adv-x="652" 
d="M699 90l-62 -103q-64 -106 -72 -131q-23 -17 -39 -17q-25 0 -34 28q6 6 29 43t23 42q0 42 -142 215q-46 94 -76 115l-83 -293q-1 -19 31 -38q2 -2 49 -25v-32q-18 -13 -32 -13q-5 0 -96 50q-105 58 -119 64q-25 11 -25 36q0 3 1 5q21 13 37 13q17 0 38 -15q26 -19 46 -30
q25 48 70 195q42 137 42 154q0 81 -48 159q-55 90 -130 90q21 0 -21.5 -27.5t-53.5 -27.5q-9 0 -19 8t-10 17q0 17 79 81q105 85 111 85q46 0 46 -24q0 -15 -74 -65q11 -36 141 -218q15 34 46 141q30 103 30 116q0 15 -20 26q-26 14 -28 16q-23 24 -23 33q0 11 16 18
q13 6 26 6q18 0 25 -5q10 -15 38 -40l64 -38q40 -24 63 -25q10 -14 10 -30q0 -10 -11 -20t-21 -10q-15 0 -36 13l-46 29l-90 -298q40 -63 118 -172l121 -171q23 13 39 56q13 35 39 35q7 0 20 -7.5t13 -13.5z" />
    <glyph glyph-name="y" unicode="y" horiz-adv-x="566" 
d="M605 335q0 -12 -47 -25t-47 -28q0 -32 9 -96t9 -96q0 -52 -15 -116q-18 -77 -92 -109q-80 -35 -104 -35q-18 0 -84 31q-56 26 -72 37q-29 19 -60 70q-14 23 -14 52t2 37q8 31 38 58q15 13 88 36t97 23q46 0 82 -22q43 -25 43 -68q0 -25 -16 -47t-40 -30q-56 -19 -93 -19
q-15 0 -22 10q-2 3 -12 23q5 2 16 16q7 9 21 9q5 0 16 -1.5t16 -1.5q19 0 35 7q21 9 21 25q0 50 -84 50q-48 0 -99 -26q-60 -31 -60 -74q0 -22 25 -55q22 -30 44 -45q14 -5 64 -26q47 -20 46 -20q82 0 123 50q39 47 39 130q0 17 -1 30l-14 178q-175 -66 -215 -66
q-46 0 -85 79q-21 43 -33 93q-2 20 -2 90q0 30 -6 91q-27 -2 -103 -15q-10 5 -10 18q0 21 19 26q45 11 147 30l7 1q89 16 99 16q12 0 26 -10v-26q-11 -16 -35 -16q-2 0 -6.5 1.5t-7.5 1.5q-16 0 -45 -7q-34 -8 -40 -16v-82q0 -53 15 -117q25 -106 78 -106q34 0 107 27
q57 21 83 35q-15 154 -22 204q-15 116 -41 201q-18 2 -67 6l-49 4q-3 0 -9.5 -1.5t-9.5 -1.5q-6 0 -19.5 9t-13.5 14q0 14 14 24.5t28 10.5q-28 0 25 -6l57 -6q44 -4 70 -4q60 0 87 5l27 5q9 0 17.5 -14t8.5 -24q0 -8 -6.5 -17t-13.5 -9h-19q-3 0 -11 3t-12 3q-14 0 -36 3
q-2 -2 -3 -6t-2 -5l51 -371q6 2 35 14t31 12q13 0 22.5 -10t9.5 -23z" />
    <glyph glyph-name="z" unicode="z" horiz-adv-x="566" 
d="M562 48q0 -32 -45 -32q-10 1 -78 6l-79 6q-31 2 -150 -8q-134 -12 -157 -29q-15 18 -32 23q2 3 0 7q-3 7 -3 10q0 13 49 49q144 177 205 241q83 87 196 207q-14 10 -114 17q-85 6 -149 6q-47 0 -59 -11q4 -17 26 -81q16 -47 16 -53q0 -22 -32 -24q-17 4 -32 55l-25 84
l-14 22q-9 14 -9 21q0 15 15 23.5t31 8.5l224 -6l136 -12q3 0 11 3t11 3q10 0 23.5 -15.5t13.5 -25.5q0 -14 -86 -100l-116 -116q-162 -164 -227 -264q7 -3 16 -3q10 0 29 7t27 7h194q6 0 46 -2l47 -2h19q8 1 8 14q0 39 -28 133q-1 5 -12 18t-11 16q0 14 12 27.5t26 13.5
q13 0 32 -53q10 -29 20 -69q2 -36 11 -95q1 -3 7.5 -11.5t6.5 -15.5z" />
    <glyph glyph-name="Aring" unicode="&#xc5;" horiz-adv-x="551" 
d="M568 -29q0 -13 -256 -157q-20 2 -34 12q3 11 59.5 48t56.5 50q0 29 -21 89q-16 45 -46 154q-36 18 -160 30q-10 -12 -12 -53l-4 -67q29 -11 68 -28q56 -24 56 -45q0 -17 -27 -17q-23 0 -32 10q-19 20 -61 33q-13 -1 -41 2q-9 9 -28 23q-11 8 -69 31q-11 4 -11 14
q0 7 11 14.5t19 7.5q10 -4 64 -25q4 28 10 103q-8 5 -20 5q-3 0 -10 -1.5t-10 -1.5q-11 0 -26.5 11t-15.5 21t15 17q12 6 23 6q8 0 26 -6l24 -8l49 389q-1 6 10 10q16 6 23 13q-77 31 -77 73q0 28 27 50t56 22q40 0 76 -20q42 -23 42 -60q0 -25 -20.5 -47t-45.5 -21
q-2 -5 2 -27t4 -27q3 -12 47 -166q52 -180 61 -220q39 -165 81 -269q18 10 52 37q23 18 36 18q7 0 18 -10t11 -17zM264 716q0 23 -14 37q-34 -3 -56 8q-1 -4 -8 -14t-7 -17q0 -15 14.5 -26t29.5 -11q12 0 26.5 6.5t14.5 16.5zM317 225l-101 357q-14 -47 -19 -93
q-17 -167 -29 -250q139 -14 149 -14z" />
    <glyph glyph-name="AE" unicode="&#xc6;" horiz-adv-x="792" 
d="M805 82q0 -16 -4 -21q-30 -4 -198 -73q-58 -34 -134 -66q-120 -51 -135 -51q-4 0 -13 2t-14 2l-3 5q-4 5 -4 10q0 13 57 35q61 24 70 39l-64 251q-21 4 -46 4q-53 0 -112 -16q-11 -61 -26 -184q34 -11 61 -13q3 1 7 1q12 0 25 -16v-29q-14 -7 -26 -7q-3 0 -89 25l-131 38
q-7 4 -7 16q0 8 11 15.5t20 7.5q-3 0 81 -28l27 161q0 7 -5 12q-3 0 -9 -1.5t-9 -1.5q-8 0 -17.5 9.5t-9.5 17.5q0 4 1 7q26 13 30 13q2 0 7 -1.5t7 -1.5q14 0 15 8q-1 -5 -1 18l47 387q0 13 -17.5 28t-30.5 12q-33 6 -33 18q0 9 13.5 19.5t23.5 10.5q138 -21 163 -22
l263 -6q7 0 20.5 -7t13.5 -13q2 -36 14 -133q12 -12 12 -28q0 -26 -23 -26q-28 0 -34 47q-1 12 -6 47l-12 61q-65 18 -148 20q-1 0 -150 -3q60 -186 110 -417q9 -5 20 -5t30 1q23 1 31 1q6 7 6 21q0 9 -3 26t-3 26v19q20 10 23 10t9.5 -1.5t9.5 -1.5q7 -17 11 -61l7 -77
q-10 -15 -10 -21q0 -5 5.5 -6.5t5.5 -3.5l-3 -7q-1 -2 -1 -6q0 -5 2 -14q-1 -4 0 -7q-8 -13 -22 -13q-33 0 -33 18q0 4 2.5 14.5t2.5 15.5q0 29 -62 29q-12 0 -12 -9q0 -16 30 -117t40 -122q102 49 178 83q35 10 46 15q54 22 45 73q-7 41 -6 48q2 23 33 23q4 0 11.5 -6.5
t7.5 -10.5q-1 -22 -1 -35q0 -21 1 -49q11 -22 11 -32zM349 262l-94 352l-44 -368q48 5 138 16z" />
    <glyph glyph-name="Ccedilla" unicode="&#xc7;" 
 />
    <glyph glyph-name="Oslash" unicode="&#xd8;" horiz-adv-x="488" 
d="M523 287q0 -120 -70 -214q-77 -103 -193 -103h-20q-10 3 -64 22q-7 -15 -28 -89q-8 -29 -37 -29q-9 0 -21.5 8.5t-12.5 16.5q0 4 19 49l31 73q-53 33 -85 100q-30 62 -30 129q0 111 71 215q83 121 206 121q4 0 52 -19q2 -1 5 -1t6 4q28 73 67 201q13 10 30 10
q18 0 31 -25l-84 -227q29 -31 73 -90q54 -96 54 -152zM464 280q0 49 -25.5 104t-62.5 88l-181 -439q34 -16 68 -16q89 0 148 90q53 80 53 173zM326 513q-17 11 -30 11q-4 0 -14 9.5t-14 9.5q-78 0 -143 -106q-60 -97 -60 -187q0 -52 21 -103q23 -55 61 -84z" />
    <glyph glyph-name="aring" unicode="&#xe5;" horiz-adv-x="557" 
d="M433 702q0 -97 -79 -97q-52 0 -88 26q-40 29 -40 79q0 19 16.5 46.5t34.5 27.5q156 0 156 -82zM597 -123q0 -31 -31 -31q7 0 -41 12l-99 4q-59 2 -104 11q-27 2 -47 21q16 39 41 39q10 -3 75 -19q9 13 10 45l2 66q-6 1 -26 -11.5t-21 -12.5q-9 0 -27 -3t-27 -3
q-8 0 -23 1.5t-23 1.5l-12 2q-77 13 -114 26q-77 27 -77 73q0 10 7 36.5t12 31.5q33 30 71 40q117 32 213 32q9 0 25.5 -3t25.5 -3q14 0 14 84v33v33q0 6 1 7q0 1 0 -4q0 144 -94 144q-7 0 -21 -2t-21 -2q-42 0 -98 -37q-61 -39 -61 -79q0 -26 38 -51q35 -24 62 -24
q3 1 18 9q-2 6 -18.5 29t-16.5 26q0 13 11.5 21t24.5 8q24 0 40 -25q14 -21 14 -47q0 -64 -56 -64h-25q-21 0 -91 32q-57 26 -57 93q0 41 67 94q45 36 74 49q49 23 128 23q116 0 137 -138q-1 -27 -1 -57q0 -29 1 -60l-22 -369q-2 -36 8 -51h92q13 0 27 -7q15 -10 15 -24z
M381 696q0 45 -53 45q-29 0 -39 -6q-17 -8 -17 -36t29 -44.5t57 -12.5q23 29 23 54zM411 183q-49 13 -78 13q-52 0 -121 -17q-97 -24 -97 -62q0 -34 77 -54q58 -15 111 -15q17 0 36 8q23 9 23 24q0 5 -6 15.5t-6 13.5q0 20 22 31q19 10 39 7v36z" />
    <glyph glyph-name="ae" unicode="&#xe6;" horiz-adv-x="641" 
d="M622 151q0 -49 -32 -99q-35 -57 -81 -57q-42 0 -142 84q-3 -20 -6 -39q-7 -26 -28 -26q-4 0 -14 3t-15 3q0 3 -3.5 11t-3.5 12q0 5 5 20t8 18v23q-2 2 -8 15q-8 -39 -37 -69q-31 -33 -69 -33h-28q-57 0 -99 49q-41 46 -41 104q0 10 2 31t2 31q39 72 189 72q41 0 71 -6
q8 12 8 25q0 24 -10 88q-5 39 -11 78q-8 50 -17 73q-16 40 -69 40q-39 0 -77.5 -37t-38.5 -76q0 -26 27.5 -54t53.5 -28q12 0 14 8l-1 -2q-2 2 -4 17q-4 32 -7 39l-5 7q-6 7 -6 13q0 10 11.5 16.5t22.5 6.5q16 0 31 -47q12 -38 12 -52q0 -19 -18.5 -33t-38.5 -14
q-41 0 -87 29q-54 34 -54 81q0 66 59 118q56 51 123 51q71 0 100 -66q11 -25 29 -126q66 68 121 68q58 0 96 -46q35 -43 35 -102q0 -57 -33.5 -87.5t-91.5 -30.5q-7 0 -20 1.5t-19.5 1.5t-18 3t-17.5 3t-18 -1.5t-18 -1.5q-2 -6 -2 -28q0 -55 55 -120t109 -65q20 0 33 34
q10 26 10 51q0 23 -16.5 37t-39.5 14q-15 0 -15 -14q0 -4 1.5 -13t1.5 -13q0 -27 -27 -38q-11 -2 -29 8.5t-18 21.5q0 100 65 100q39 0 81 -18q58 -25 58 -67zM535 366q0 34 -19 68q-25 44 -66 44q-46 0 -75 -64q-22 -48 -22 -88q0 -11 4 -15l101 -7q77 -5 77 62zM302 170
q-5 49 -5 91q-50 9 -91 9q-51 0 -86 -20q-43 -24 -43 -71q0 -41 29 -77q31 -39 70 -39q22 0 47 18t25 39q0 23 -31 37q-24 11 -51 11q-33 0 -33 17q0 12 13.5 24t25.5 12q14 0 67 -18q61 -21 63 -33z" />
    <glyph glyph-name="oslash" unicode="&#xf8;" horiz-adv-x="563" 
d="M579 585q0 -9 -52 -61l-57 -57q21 -17 37 -59.5t16 -72.5q0 -95 -88 -170q-83 -71 -180 -71q-13 0 -37 6t-37 6q-3 0 -30.5 -37t-42.5 -37q-21 0 -34 27q22 21 53 64q-3 3 -37 27q-24 17 -33 32q-38 64 -38 144q0 113 83 208q87 98 198 98q18 0 28 -26q-6 -13 -33 -15
q-78 3 -154 -88q-73 -87 -73 -166q0 -131 88 -166l237 280q-20 24 -59 24q-16 0 -35.5 -10.5t-21.5 -25.5q5 -12 5 -27q0 -33 -28 -33t-31 24q-4 33 -6 36q9 36 46 59t76 23q17 0 49 -12.5t41 -12.5t42 37q28 32 32 40q6 13 -2 14q4 3 22 16q15 11 23 11q10 0 21.5 -9.5
t11.5 -19.5zM467 331q0 17 -1 21q-6 26 -11 37q-11 28 -23 36q-44 -44 -115 -135q-75 -96 -113 -136q50 -14 67 -14q68 0 132 61.5t64 129.5z" />
    <glyph glyph-name="OE" unicode="&#x152;" 
 />
    <glyph glyph-name="afii10030" unicode="&#x41c;" horiz-adv-x="1000" 
 />
    <glyph glyph-name="glyph95" 
 />
    <glyph glyph-name="glyph96" 
 />
    <glyph glyph-name="glyph94" 
 />
    <glyph glyph-name="glyph95" 
 />
    <glyph glyph-name="ch257" 
 />
    <glyph glyph-name="ch258" 
 />
    <glyph glyph-name="ch259" 
 />
    <glyph glyph-name="glyph96" 
 />
  </font>
</defs>
</svg>
