<?xml version="1.0" standalone="no"?>
<!DOCTYPE svg PUBLIC "-//W3C//DTD SVG 1.1//EN" "http://www.w3.org/Graphics/SVG/1.1/DTD/svg11.dtd" >
<svg xmlns="http://www.w3.org/2000/svg" xmlns:xlink="http://www.w3.org/1999/xlink" version="1.1">
<metadata>
Created by FontForge 20170731 at Fri May 26 14:50:08 2000
 By Aleksey,,,
Copyright (c) ShyFonts Type Foundry, 1999. All rights reserved.
</metadata>
<defs>
<font id="SFSportsNightAltUpright" horiz-adv-x="1365" >
  <font-face 
    font-family="SF Sports Night AltUpright"
    font-weight="400"
    font-stretch="normal"
    units-per-em="2048"
    panose-1="0 0 4 0 0 0 0 0 0 0"
    ascent="1638"
    descent="-410"
    x-height="1365"
    cap-height="1365"
    bbox="-89 -225 2094 1497"
    underline-thickness="20"
    underline-position="-163"
    unicode-range="U+0020-00BF"
  />
<missing-glyph horiz-adv-x="1024" 
 />
    <glyph glyph-name=".notdef" horiz-adv-x="1024" 
 />
    <glyph glyph-name=".null" horiz-adv-x="0" 
 />
    <glyph glyph-name="nonmarkingreturn" horiz-adv-x="682" 
 />
    <glyph glyph-name="space" unicode=" " horiz-adv-x="796" 
 />
    <glyph glyph-name="exclam" unicode="!" horiz-adv-x="455" 
d="M398 455h-341v910h341v-910zM398 0h-341v341h341v-341z" />
    <glyph glyph-name="quotedbl" unicode="&#x22;" horiz-adv-x="853" 
d="M796 1024l-170 -228v228h-171v341h341v-341zM398 1024l-170 -228v228h-171v341h341v-341z" />
    <glyph glyph-name="quotesingle" unicode="'" horiz-adv-x="455" 
d="M398 1024l-170 -228v228h-171v341h341v-341z" />
    <glyph glyph-name="parenleft" unicode="(" horiz-adv-x="728" 
d="M671 -112h-341q-151 193 -212 374q-61 174 -61 418v3q0 247 61 424t212 372h341q-162 -191 -229 -369q-67 -177 -67 -430q0 -246 67 -425q34 -91 91 -182t138 -185z" />
    <glyph glyph-name="parenright" unicode=")" horiz-adv-x="728" 
d="M671 683q0 -245 -62 -425q-62 -179 -211 -370h-341q161 188 228 367q68 181 68 428q0 244 -66 426q-65 180 -230 370h341q153 -197 213 -375q60 -179 60 -421z" />
    <glyph glyph-name="comma" unicode="," horiz-adv-x="455" 
d="M398 0l-170 -225v225h-171v341h341v-341z" />
    <glyph glyph-name="period" unicode="." horiz-adv-x="455" 
d="M398 0h-341v341h341v-341z" />
    <glyph glyph-name="slash" unicode="/" horiz-adv-x="612" 
d="M612 1438l-277 -1568l-335 59l275 1568z" />
    <glyph glyph-name="zero" unicode="0" 
d="M1308 956h-1251v91q0 132 93 225t225 93h615q132 0 225 -93t93 -225v-91zM1308 319q0 -132 -93 -226q-93 -93 -225 -93h-615q-132 0 -225 93q-93 94 -93 226v523h409v-432h433v432h409v-523z" />
    <glyph glyph-name="one" unicode="1" horiz-adv-x="523" 
d="M466 956h-409v409h409v-409zM466 0h-409v842h409v-842z" />
    <glyph glyph-name="two" unicode="2" 
d="M1308 956h-1251v409h933q132 0 225 -93t93 -225v-91zM1308 0h-1251v523q0 132 93 225q93 94 225 94h933q0 -132 -93 -226q-93 -93 -225 -93h-524v-113h842v-410z" />
    <glyph glyph-name="three" unicode="3" 
d="M1308 956h-1251v409h933q132 0 225 -93t93 -225v-91zM1308 319q0 -132 -93 -226q-93 -93 -225 -93h-933v410h842v113h-387v319h796q0 -71 -88 -159q88 -88 88 -160v-204z" />
    <glyph glyph-name="four" unicode="4" 
d="M1308 956h-409v409h409v-409zM466 956h-409v409h409v-409zM1308 0h-409v523h-842v319h1251v-842z" />
    <glyph glyph-name="five" unicode="5" 
d="M1308 956h-1251v409h1251v-409zM1308 319q0 -132 -93 -226q-93 -93 -225 -93h-933v410h842v113h-524q-132 0 -225 93q-93 94 -93 226h933q132 0 225 -94q93 -93 93 -225v-204z" />
    <glyph glyph-name="six" unicode="6" 
d="M1308 956h-1251v91q0 132 93 225t225 93h933v-409zM1308 319q0 -132 -93 -226q-93 -93 -225 -93h-615q-132 0 -225 93q-93 94 -93 226v523h933q132 0 225 -94q93 -93 93 -225v-204zM899 410v113h-433v-113h433z" />
    <glyph glyph-name="seven" unicode="7" 
d="M1308 1365l-225 -409h-1026v409h1251zM1022 842l-464 -842h-501l462 842h503z" />
    <glyph glyph-name="eight" unicode="8" 
d="M1308 956h-1251v91q0 132 93 225t225 93h615q132 0 225 -93t93 -225v-91zM1308 319q0 -132 -93 -226q-93 -93 -225 -93h-615q-132 0 -225 93q-93 94 -93 226v204q0 71 89 160q-89 89 -89 159h1251q0 -71 -88 -159q88 -88 88 -160v-204zM899 410v113h-433v-113h433z" />
    <glyph glyph-name="nine" unicode="9" 
d="M1308 956h-1251v91q0 132 93 225t225 93h615q132 0 225 -93t93 -225v-91zM1308 319q0 -132 -93 -226q-93 -93 -225 -93h-933v410h842v113h-524q-132 0 -225 93q-93 94 -93 226h1251v-523z" />
    <glyph glyph-name="colon" unicode=":" horiz-adv-x="455" 
d="M398 614h-341v342h341v-342zM398 0h-341v341h341v-341z" />
    <glyph glyph-name="semicolon" unicode=";" horiz-adv-x="455" 
d="M398 614h-341v342h341v-342zM398 0l-170 -225v225h-171v341h341v-341z" />
    <glyph glyph-name="question" unicode="?" horiz-adv-x="1138" 
d="M1081 842q0 -114 -80 -194q-79 -79 -193 -79h-410v-114h-341v182q0 114 79 193q80 80 194 80h410v114h-683v341h751q113 0 193 -81q80 -80 80 -192v-250zM398 0h-341v341h341v-341z" />
    <glyph glyph-name="A" unicode="A" horiz-adv-x="1297" 
d="M1058 956h-1147v409h1045zM1297 0h-410l-45 182h-387l-45 -182h-410l209 842h412l-79 -319h216l-80 319h407z" />
    <glyph glyph-name="B" unicode="B" horiz-adv-x="1411" 
d="M1354 956h-1443v409h1124q132 0 225 -93q94 -93 94 -225v-91zM1354 319q0 -132 -94 -226q-93 -93 -225 -93h-978v842h1297q0 -70 -89 -159q89 -89 89 -160v-204zM944 410v113h-478v-113h478z" />
    <glyph glyph-name="C" unicode="C" 
d="M1308 956h-1397v409h1397v-409zM1308 0h-933q-132 0 -225 93q-93 94 -93 226v523h409v-432h842v-410z" />
    <glyph glyph-name="D" unicode="D" 
d="M1308 956h-1397v409h1079q132 0 225 -93t93 -225v-91zM1308 319q0 -132 -93 -226q-93 -93 -225 -93h-933v842h409v-432h433v432h409v-523z" />
    <glyph glyph-name="E" unicode="E" horiz-adv-x="1252" 
d="M1195 956h-1284v409h1284v-409zM1195 0h-1138v842h1138v-319h-729v-113h729v-410z" />
    <glyph glyph-name="F" unicode="F" horiz-adv-x="1252" 
d="M1195 956h-1284v409h1284v-409zM1195 523h-729v-523h-409v842h1138v-319z" />
    <glyph glyph-name="G" unicode="G" 
d="M1308 956h-1397v409h1397v-409zM1308 319q0 -132 -93 -226q-93 -93 -225 -93h-615q-132 0 -225 93q-93 94 -93 226v523h409v-432h433v113h-182v319h591v-523z" />
    <glyph glyph-name="H" unicode="H" 
d="M1308 956h-409v409h409v-409zM466 956h-555v409h555v-409zM1308 0h-409v523h-433v-523h-409v842h1251v-842z" />
    <glyph glyph-name="I" unicode="I" horiz-adv-x="523" 
d="M466 956h-555v409h555v-409zM466 0h-409v842h409v-842z" />
    <glyph glyph-name="J" unicode="J" 
d="M1308 956h-409v409h409v-409zM1308 319q0 -132 -93 -226q-93 -93 -225 -93h-615q-132 0 -225 93q-93 94 -93 226v204h409v-113h433v432h409v-523z" />
    <glyph glyph-name="K" unicode="K" horiz-adv-x="1308" 
d="M1308 1365l-266 -409h-478l267 409h477zM466 956h-555v409h555v-409zM1308 0h-477l-365 560v-560h-409v842h910l-102 -159z" />
    <glyph glyph-name="L" unicode="L" horiz-adv-x="1252" 
d="M466 956h-555v409h555v-409zM1195 0h-1138v842h409v-432h729v-410z" />
    <glyph glyph-name="M" unicode="M" horiz-adv-x="1593" 
d="M1536 956h-646l236 409h410v-409zM703 956h-792v409h555zM1536 0h-410v571l-330 -571l-330 571v-571h-409v842h1479v-842z" />
    <glyph glyph-name="N" unicode="N" 
d="M1308 956h-1397v409h1079q132 0 225 -93t93 -225v-91zM1308 0h-409v842h409v-842zM466 0h-409v842h409v-842z" />
    <glyph glyph-name="O" unicode="O" 
d="M1308 956h-1397v409h1079q132 0 225 -93t93 -225v-91zM1308 319q0 -132 -93 -226q-93 -93 -225 -93h-615q-132 0 -225 93q-93 94 -93 226v523h409v-432h433v432h409v-523z" />
    <glyph glyph-name="P" unicode="P" 
d="M1308 956h-1397v409h1079q132 0 225 -93t93 -225v-91zM1308 842q0 -132 -93 -226q-93 -93 -225 -93h-524v-523h-409v842h1251z" />
    <glyph glyph-name="Q" unicode="Q" horiz-adv-x="1479" 
d="M1308 956h-1397v409h1079q132 0 225 -93t93 -225v-91zM1422 0h-1047q-132 0 -225 93q-93 94 -93 226v523h409v-432h433v432h409v-432h114v-410z" />
    <glyph glyph-name="R" unicode="R" 
d="M1308 956h-1397v409h1079q132 0 225 -93t93 -225v-91zM1308 0h-409v523h-433v-523h-409v842h1251q0 -71 -88 -159q88 -88 88 -160v-523z" />
    <glyph glyph-name="S" unicode="S" 
d="M1308 956h-1397v409h1397v-409zM1308 319q0 -132 -93 -226q-93 -93 -225 -93h-933v410h842v113h-524q-132 0 -225 93q-93 94 -93 226h933q132 0 225 -94q93 -93 93 -225v-204z" />
    <glyph glyph-name="T" unicode="T" 
d="M1308 956h-1397v409h1397v-409zM887 0h-409v842h409v-842z" />
    <glyph glyph-name="U" unicode="U" 
d="M1308 956h-409v409h409v-409zM466 956h-555v409h555v-409zM1308 319q0 -132 -93 -226q-93 -93 -225 -93h-615q-132 0 -225 93q-93 94 -93 226v523h409v-432h433v432h409v-523z" />
    <glyph glyph-name="V" unicode="V" horiz-adv-x="1297" 
d="M1297 1365l-102 -409h-410l102 409h410zM512 956h-601v409h499zM1165 842l-209 -842h-615l-209 842h407l110 -432l109 432h407z" />
    <glyph glyph-name="W" unicode="W" horiz-adv-x="2002" 
d="M2002 1365l-102 -409h-410l103 409h409zM1308 956h-614l102 409h410zM1871 842l-210 -842h-523l-137 546l-136 -546h-524l-209 842h407l64 -250l61 250h672l63 -250l62 250h410zM512 956h-601v409h499z" />
    <glyph glyph-name="X" unicode="X" 
d="M1365 1365l-266 -409h-1188v409h567l205 -314l204 314h478zM1365 0h-478l-204 314l-205 -314h-478l444 683l-103 159h683l-102 -159z" />
    <glyph glyph-name="Y" unicode="Y" 
d="M1365 1365l-268 -409h-1186v409h567l205 -314l204 314h478zM1022 842l-135 -205v-637h-409v637l-134 205h678z" />
    <glyph glyph-name="Z" unicode="Z" 
d="M1308 1365l-225 -409h-1172v409h1397zM1308 0h-1251l462 842h503l-237 -432h523v-410z" />
    <glyph glyph-name="bracketleft" unicode="[" horiz-adv-x="683" 
d="M626 -112h-569v1591h569v-341h-228v-910h228v-340z" />
    <glyph glyph-name="backslash" unicode="\" horiz-adv-x="612" 
d="M612 -71l-334 -59l-278 1568l337 59z" />
    <glyph glyph-name="bracketright" unicode="]" horiz-adv-x="683" 
d="M626 -112h-569v340h227v910h-227v341h569v-1591z" />
    <glyph glyph-name="a" unicode="a" horiz-adv-x="1297" 
d="M1388 956h-1149l102 409h1047v-409zM1297 0h-410l-45 182h-387l-45 -182h-410l209 842h410l-80 -319h216l-79 319h409z" />
    <glyph glyph-name="b" unicode="b" horiz-adv-x="1411" 
d="M1502 956h-1445v409h1445v-409zM1354 319q0 -132 -94 -226q-93 -93 -225 -93h-978v842h1297q0 -70 -89 -159q89 -89 89 -160v-204zM944 410v113h-478v-113h478z" />
    <glyph glyph-name="c" unicode="c" 
d="M1456 956h-1399v91q0 132 93 225t225 93h1081v-409zM1308 0h-933q-132 0 -225 93q-93 94 -93 226v523h409v-432h842v-410z" />
    <glyph glyph-name="d" unicode="d" 
d="M1456 956h-1399v409h1399v-409zM1308 319q0 -132 -93 -226q-93 -93 -225 -93h-933v842h409v-432h433v432h409v-523z" />
    <glyph glyph-name="e" unicode="e" horiz-adv-x="1252" 
d="M1343 956h-1286v409h1286v-409zM1195 0h-1138v842h1138v-319h-729v-113h729v-410z" />
    <glyph glyph-name="f" unicode="f" horiz-adv-x="1252" 
d="M1343 956h-1286v409h1286v-409zM1195 523h-729v-523h-409v842h1138v-319z" />
    <glyph glyph-name="g" unicode="g" 
d="M1456 956h-1399v91q0 132 93 225t225 93h1081v-409zM1308 319q0 -132 -93 -226q-93 -93 -225 -93h-615q-132 0 -225 93q-93 94 -93 226v523h409v-432h433v113h-182v319h591v-523z" />
    <glyph glyph-name="h" unicode="h" 
d="M1456 956h-557v409h557v-409zM466 956h-409v409h409v-409zM1308 0h-409v523h-433v-523h-409v842h1251v-842z" />
    <glyph glyph-name="i" unicode="i" horiz-adv-x="523" 
d="M614 956h-557v409h557v-409zM466 0h-409v842h409v-842z" />
    <glyph glyph-name="j" unicode="j" 
d="M1456 956h-557v409h557v-409zM1308 319q0 -132 -93 -226q-93 -93 -225 -93h-615q-132 0 -225 93q-93 94 -93 226v204h409v-113h433v432h409v-523z" />
    <glyph glyph-name="k" unicode="k" horiz-adv-x="1252" 
d="M1343 956h-836l267 409h569v-409zM410 956h-410v409h410v-409zM1252 0h-478l-364 560v-560h-410v842h910l-102 -159z" />
    <glyph glyph-name="l" unicode="l" horiz-adv-x="1252" 
d="M466 956h-409v409h409v-409zM1195 0h-1138v842h409v-432h729v-410z" />
    <glyph glyph-name="m" unicode="m" horiz-adv-x="1593" 
d="M1684 956h-794l236 409h558v-409zM703 956h-646v409h409zM1536 0h-410v571l-330 -571l-330 571v-571h-409v842h1479v-842z" />
    <glyph glyph-name="n" unicode="n" 
d="M1456 956h-1399v409h1399v-409zM1308 0h-409v842h409v-842zM466 0h-409v842h409v-842z" />
    <glyph glyph-name="o" unicode="o" 
d="M1456 956h-1399v91q0 132 93 225t225 93h1081v-409zM1308 319q0 -132 -93 -226q-93 -93 -225 -93h-615q-132 0 -225 93q-93 94 -93 226v523h409v-432h433v432h409v-523z" />
    <glyph glyph-name="p" unicode="p" 
d="M1456 956h-1399v409h1399v-409zM1308 842q0 -132 -93 -226q-93 -93 -225 -93h-524v-523h-409v842h1251z" />
    <glyph glyph-name="q" unicode="q" horiz-adv-x="1479" 
d="M1570 956h-1513v91q0 132 93 225t225 93h1195v-409zM1422 0h-1047q-132 0 -225 93q-93 94 -93 226v523h409v-432h433v432h409v-432h114v-410z" />
    <glyph glyph-name="r" unicode="r" 
d="M1456 956h-1399v409h1399v-409zM1308 0h-409v523h-433v-523h-409v842h1251q0 -71 -88 -159q88 -88 88 -160v-523z" />
    <glyph glyph-name="s" unicode="s" 
d="M1456 956h-1399v91q0 132 93 225t225 93h1081v-409zM1308 319q0 -132 -93 -226q-93 -93 -225 -93h-933v410h842v113h-524q-132 0 -225 93q-93 94 -93 226h933q132 0 225 -94q93 -93 93 -225v-204z" />
    <glyph glyph-name="t" unicode="t" 
d="M1456 956h-1399v409h1399v-409zM887 0h-409v842h409v-842z" />
    <glyph glyph-name="u" unicode="u" 
d="M1456 956h-557v409h557v-409zM466 956h-409v409h409v-409zM1308 319q0 -132 -93 -226q-93 -93 -225 -93h-615q-132 0 -225 93q-93 94 -93 226v523h409v-432h433v432h409v-523z" />
    <glyph glyph-name="v" unicode="v" horiz-adv-x="1297" 
d="M1388 956h-603l102 409h501v-409zM512 956h-410l-102 409h410zM1165 842l-209 -842h-615l-209 842h407l110 -432l109 432h407z" />
    <glyph glyph-name="w" unicode="w" horiz-adv-x="2002" 
d="M2094 956h-604l103 409h501v-409zM1308 956h-614l102 409h410zM1871 842l-210 -842h-523l-137 546l-136 -546h-524l-209 842h410l61 -250l64 250h671l61 -250l64 250h408zM512 956h-410l-102 409h410z" />
    <glyph glyph-name="x" unicode="x" 
d="M1456 956h-1190l-266 409h478l205 -314l204 314h569v-409zM1365 0h-478l-204 314l-205 -314h-478l444 683l-103 159h683l-102 -159z" />
    <glyph glyph-name="y" unicode="y" 
d="M1456 956h-1187l-269 409h478l205 -314l204 314h569v-409zM1022 842l-135 -205v-637h-409v637l-134 205h678z" />
    <glyph glyph-name="z" unicode="z" 
d="M1456 956h-1399v409h1399v-409zM1308 0h-1251l462 842h503l-237 -432h523v-410z" />
    <glyph glyph-name="braceleft" unicode="{" horiz-adv-x="796" 
d="M740 -112h-296q-115 0 -194 79t-79 192v387q0 24 -9 45t-24 36t-36 24t-45 9v114q48 0 81 39q33 40 33 97v296q0 114 79 193q80 80 194 80h296v-341h-228v-342q0 -47 -33 -80t-81 -33q24 0 45 -9t36 -24t24 -36t9 -45v-341h228v-340z" />
    <glyph glyph-name="bar" unicode="|" horiz-adv-x="455" 
d="M398 -112h-341v1591h341v-1591z" />
    <glyph glyph-name="braceright" unicode="}" horiz-adv-x="796" 
d="M740 660q-24 0 -45 -9t-36 -24t-24 -36t-9 -45v-387q0 -112 -80 -192q-79 -79 -193 -79h-296v340h227v341q0 24 9 45t24 36t36 24t45 9q-48 0 -81 33t-33 80v342h-227v341h296q113 0 193 -80t80 -193v-296q0 -53 31 -94q31 -42 83 -42v-114z" />
    <glyph glyph-name="quotesinglbase" horiz-adv-x="455" 
d="M398 0l-170 -225v225h-171v341h341v-341z" />
    <glyph glyph-name="quotesinglbase" unicode="&#x201a;" horiz-adv-x="455" 
d="M398 0l-170 -225v225h-171v341h341v-341z" />
    <glyph glyph-name="quotedblbase" horiz-adv-x="853" 
d="M796 0l-170 -225v225h-171v341h341v-341zM398 0l-170 -225v225h-171v341h341v-341z" />
    <glyph glyph-name="quotedblbase" unicode="&#x201e;" horiz-adv-x="853" 
d="M796 0l-170 -225v225h-171v341h341v-341zM398 0l-170 -225v225h-171v341h341v-341z" />
    <glyph glyph-name="quoteleft" horiz-adv-x="455" 
d="M398 796h-341v342l171 227v-227h170v-342z" />
    <glyph glyph-name="quoteleft" unicode="&#x2018;" horiz-adv-x="455" 
d="M398 796h-341v342l171 227v-227h170v-342z" />
    <glyph glyph-name="quoteright" horiz-adv-x="455" 
d="M398 1024l-170 -228v228h-171v341h341v-341z" />
    <glyph glyph-name="quoteright" unicode="&#x2019;" horiz-adv-x="455" 
d="M398 1024l-170 -228v228h-171v341h341v-341z" />
    <glyph glyph-name="quotedblleft" horiz-adv-x="853" 
d="M796 796h-341v342l171 227v-227h170v-342zM398 796h-341v342l171 227v-227h170v-342z" />
    <glyph glyph-name="quotedblleft" unicode="&#x201c;" horiz-adv-x="853" 
d="M796 796h-341v342l171 227v-227h170v-342zM398 796h-341v342l171 227v-227h170v-342z" />
    <glyph glyph-name="quotedblright" horiz-adv-x="853" 
d="M796 1024l-170 -228v228h-171v341h341v-341zM398 1024l-170 -228v228h-171v341h341v-341z" />
    <glyph glyph-name="quotedblright" unicode="&#x201d;" horiz-adv-x="853" 
d="M796 1024l-170 -228v228h-171v341h341v-341zM398 1024l-170 -228v228h-171v341h341v-341z" />
    <glyph glyph-name="exclamdown" unicode="&#xa1;" horiz-adv-x="455" 
d="M398 1024h-341v341h341v-341zM398 0h-341v910h341v-910z" />
    <glyph glyph-name="questiondown" unicode="&#xbf;" horiz-adv-x="1138" 
d="M1081 1024h-341v341h341v-341zM1081 0h-751q-115 0 -194 81q-79 80 -79 192v250q0 114 79 193q80 80 194 80h410v114h341v-182q0 -114 -80 -194q-79 -79 -193 -79h-410v-114h683v-341z" />
  </font>
</defs>
</svg>
