<?xml version="1.0" standalone="no"?>
<!DOCTYPE svg PUBLIC "-//W3C//DTD SVG 1.1//EN" "http://www.w3.org/Graphics/SVG/1.1/DTD/svg11.dtd" >
<svg xmlns="http://www.w3.org/2000/svg" xmlns:xlink="http://www.w3.org/1999/xlink" version="1.1">
<metadata>
Created by FontForge 20170731 at Fri May 26 14:51:03 2000
 By Aleksey,,,
Copyright (c) ShyFonts Type Foundry, 1999. All rights reserved.
</metadata>
<defs>
<font id="SFSportsNightNSAltUpright" horiz-adv-x="1365" >
  <font-face 
    font-family="SF Sports Night NS AltUpright"
    font-weight="400"
    font-stretch="normal"
    units-per-em="2048"
    panose-1="0 0 4 0 0 0 0 0 0 0"
    ascent="1638"
    descent="-410"
    x-height="1365"
    cap-height="1365"
    bbox="-89 -225 2094 1497"
    underline-thickness="20"
    underline-position="-163"
    unicode-range="U+0020-00BF"
  />
<missing-glyph horiz-adv-x="1024" 
 />
    <glyph glyph-name=".notdef" horiz-adv-x="1024" 
 />
    <glyph glyph-name=".null" horiz-adv-x="0" 
 />
    <glyph glyph-name="nonmarkingreturn" horiz-adv-x="682" 
 />
    <glyph glyph-name="space" unicode=" " horiz-adv-x="796" 
 />
    <glyph glyph-name="exclam" unicode="!" horiz-adv-x="455" 
d="M398 0h-341v341h341v-341zM398 455h-341v910h341v-910z" />
    <glyph glyph-name="quotedbl" unicode="&#x22;" horiz-adv-x="853" 
d="M398 1024l-170 -228v228h-171v341h341v-341zM796 1024l-170 -228v228h-171v341h341v-341z" />
    <glyph glyph-name="quotesingle" unicode="'" horiz-adv-x="455" 
d="M398 1024l-170 -228v228h-171v341h341v-341z" />
    <glyph glyph-name="parenleft" unicode="(" horiz-adv-x="728" 
d="M671 -112h-341q-153 193 -213 371t-60 421v3q0 247 61 424t212 372h341q-81 -95 -138 -187t-91 -183q-67 -180 -67 -429q0 -246 67 -425q34 -91 91 -182t138 -185z" />
    <glyph glyph-name="parenright" unicode=")" horiz-adv-x="728" 
d="M671 683q0 -245 -62 -425q-62 -179 -211 -370h-341q161 188 228 367q68 181 68 428q0 244 -66 426q-65 180 -230 370h341q153 -197 213 -375q60 -179 60 -421z" />
    <glyph glyph-name="comma" unicode="," horiz-adv-x="455" 
d="M398 0l-170 -225v225h-171v341h341v-341z" />
    <glyph glyph-name="period" unicode="." horiz-adv-x="455" 
d="M398 0h-341v341h341v-341z" />
    <glyph glyph-name="slash" unicode="/" horiz-adv-x="612" 
d="M612 1438l-277 -1568l-335 59l275 1568z" />
    <glyph glyph-name="zero" unicode="0" 
d="M899 410v546h-433v-546h433zM1308 319q0 -132 -93 -226q-93 -93 -225 -93h-615q-132 0 -225 93q-93 94 -93 226v728q0 132 93 225t225 93h615q132 0 225 -93t93 -225v-728z" />
    <glyph glyph-name="one" unicode="1" horiz-adv-x="523" 
d="M466 0h-409v1365h409v-1365z" />
    <glyph glyph-name="two" unicode="2" 
d="M1308 0h-1251v523q0 132 93 225q93 94 225 94h524v114h-842v409h933q132 0 225 -93t93 -225v-205q0 -132 -93 -226q-93 -93 -225 -93h-524v-113h842v-410z" />
    <glyph glyph-name="three" unicode="3" 
d="M1308 319q0 -132 -93 -226q-93 -93 -225 -93h-933v410h842v113h-387v319h387v114h-842v409h933q132 0 225 -93t93 -225v-205q0 -71 -88 -159q88 -88 88 -160v-204z" />
    <glyph glyph-name="four" unicode="4" 
d="M1308 0h-409v523h-842v842h409v-523h433v523h409v-1365z" />
    <glyph glyph-name="five" unicode="5" 
d="M1308 319q0 -132 -93 -226q-93 -93 -225 -93h-933v410h842v113h-524q-132 0 -225 93q-93 94 -93 226v523h1251v-409h-842v-114h524q132 0 225 -94q93 -93 93 -225v-204z" />
    <glyph glyph-name="six" unicode="6" 
d="M899 410v113h-433v-113h433zM1308 319q0 -132 -93 -226q-93 -93 -225 -93h-615q-132 0 -225 93q-93 94 -93 226v728q0 132 93 225t225 93h933v-409h-842v-114h524q132 0 225 -94q93 -93 93 -225v-204z" />
    <glyph glyph-name="seven" unicode="7" 
d="M1308 1365l-750 -1365h-501l523 956h-523v409h1251z" />
    <glyph glyph-name="eight" unicode="8" 
d="M899 410v113h-433v-113h433zM899 842v114h-433v-114h433zM1308 319q0 -132 -93 -226q-93 -93 -225 -93h-615q-132 0 -225 93q-93 94 -93 226v204q0 71 89 160q-89 89 -89 159v205q0 132 93 225t225 93h615q132 0 225 -93t93 -225v-205q0 -71 -88 -159q88 -88 88 -160
v-204z" />
    <glyph glyph-name="nine" unicode="9" 
d="M899 842v114h-433v-114h433zM1308 319q0 -132 -93 -226q-93 -93 -225 -93h-933v410h842v113h-524q-132 0 -225 93q-93 94 -93 226v205q0 132 93 225t225 93h615q132 0 225 -93t93 -225v-728z" />
    <glyph glyph-name="colon" unicode=":" horiz-adv-x="455" 
d="M398 0h-341v341h341v-341zM398 614h-341v342h341v-342z" />
    <glyph glyph-name="semicolon" unicode=";" horiz-adv-x="455" 
d="M398 0l-170 -225v225h-171v341h341v-341zM398 614h-341v342h341v-342z" />
    <glyph glyph-name="question" unicode="?" horiz-adv-x="1138" 
d="M398 0h-341v341h341v-341zM1081 842q0 -114 -80 -194q-79 -79 -193 -79h-410v-114h-341v182q0 114 79 193q80 80 194 80h410v114h-683v341h751q113 0 193 -81q80 -80 80 -192v-250z" />
    <glyph glyph-name="A" unicode="A" horiz-adv-x="1297" 
d="M758 523l-109 433l-107 -433h216zM1297 0h-410l-45 182h-387l-45 -182h-410l239 956h-328v409h1045z" />
    <glyph glyph-name="B" unicode="B" horiz-adv-x="1411" 
d="M944 410v113h-478v-113h478zM944 842v114h-478v-114h478zM1354 319q0 -132 -94 -226q-93 -93 -225 -93h-978v956h-146v409h1124q132 0 225 -93q94 -93 94 -225v-205q0 -70 -89 -159q89 -89 89 -160v-204z" />
    <glyph glyph-name="C" unicode="C" 
d="M1308 0h-933q-132 0 -225 93q-93 94 -93 226v637h-146v409h1397v-409h-842v-546h842v-410z" />
    <glyph glyph-name="D" unicode="D" 
d="M899 410v546h-433v-546h433zM1308 319q0 -132 -93 -226q-93 -93 -225 -93h-933v956h-146v409h1079q132 0 225 -93t93 -225v-728z" />
    <glyph glyph-name="E" unicode="E" horiz-adv-x="1252" 
d="M1195 0h-1138v956h-146v409h1284v-409h-729v-114h729v-319h-729v-113h729v-410z" />
    <glyph glyph-name="F" unicode="F" horiz-adv-x="1252" 
d="M1195 523h-729v-523h-409v956h-146v409h1284v-409h-729v-114h729v-319z" />
    <glyph glyph-name="G" unicode="G" 
d="M1308 319q0 -132 -93 -226q-93 -93 -225 -93h-615q-132 0 -225 93q-93 94 -93 226v637h-146v409h1397v-409h-842v-546h433v113h-182v319h591v-523z" />
    <glyph glyph-name="H" unicode="H" 
d="M1308 0h-409v523h-433v-523h-409v956h-146v409h555v-523h433v523h409v-1365z" />
    <glyph glyph-name="I" unicode="I" horiz-adv-x="523" 
d="M466 0h-409v956h-146v409h555v-1365z" />
    <glyph glyph-name="J" unicode="J" 
d="M1308 319q0 -132 -93 -226q-93 -93 -225 -93h-615q-132 0 -225 93q-93 94 -93 226v204h409v-113h433v955h409v-1046z" />
    <glyph glyph-name="K" unicode="K" horiz-adv-x="1308" 
d="M1308 0h-477l-365 560v-560h-409v956h-146v409h555v-559l365 559h477l-443 -682z" />
    <glyph glyph-name="L" unicode="L" horiz-adv-x="1252" 
d="M1195 0h-1138v956h-146v409h555v-955h729v-410z" />
    <glyph glyph-name="M" unicode="M" horiz-adv-x="1593" 
d="M1536 0h-410v571l-330 -571l-330 571v-571h-409v956h-146v409h555l330 -571l330 571h410v-1365z" />
    <glyph glyph-name="N" unicode="N" 
d="M1308 0h-409v956h-433v-956h-409v956h-146v409h1079q132 0 225 -93t93 -225v-1047z" />
    <glyph glyph-name="O" unicode="O" 
d="M899 410v546h-433v-546h433zM1308 319q0 -132 -93 -226q-93 -93 -225 -93h-615q-132 0 -225 93q-93 94 -93 226v637h-146v409h1079q132 0 225 -93t93 -225v-728z" />
    <glyph glyph-name="P" unicode="P" 
d="M899 842v114h-433v-114h433zM1308 842q0 -132 -93 -226q-93 -93 -225 -93h-524v-523h-409v956h-146v409h1079q132 0 225 -93t93 -225v-205z" />
    <glyph glyph-name="Q" unicode="Q" horiz-adv-x="1479" 
d="M899 410v546h-433v-546h433zM1422 0h-1047q-132 0 -225 93q-93 94 -93 226v637h-146v409h1079q132 0 225 -93t93 -225v-637h114v-410z" />
    <glyph glyph-name="R" unicode="R" 
d="M899 842v114h-433v-114h433zM1308 0h-409v523h-433v-523h-409v956h-146v409h1079q132 0 225 -93t93 -225v-205q0 -71 -88 -159q88 -88 88 -160v-523z" />
    <glyph glyph-name="S" unicode="S" 
d="M1308 319q0 -132 -93 -226q-93 -93 -225 -93h-933v410h842v113h-524q-132 0 -225 93q-93 94 -93 226v114h-146v409h1397v-409h-842v-114h524q132 0 225 -94q93 -93 93 -225v-204z" />
    <glyph glyph-name="T" unicode="T" 
d="M1308 956h-421v-956h-409v956h-567v409h1397v-409z" />
    <glyph glyph-name="U" unicode="U" 
d="M1308 319q0 -132 -93 -226q-93 -93 -225 -93h-615q-132 0 -225 93q-93 94 -93 226v637h-146v409h555v-955h433v955h409v-1046z" />
    <glyph glyph-name="V" unicode="V" horiz-adv-x="1297" 
d="M1297 1365l-341 -1365h-615l-239 956h-191v409h499l239 -955l238 955h410z" />
    <glyph glyph-name="W" unicode="W" horiz-adv-x="2002" 
d="M2002 1365l-341 -1365h-523l-137 546l-136 -546h-524l-239 956h-191v409h499l193 -773l193 773h410l193 -773l194 773h409z" />
    <glyph glyph-name="X" unicode="X" 
d="M1365 0h-478l-204 314l-205 -314h-478l444 683l-178 273h-355v409h567l205 -314l204 314h478l-443 -682z" />
    <glyph glyph-name="Y" unicode="Y" 
d="M1365 1365l-478 -728v-637h-409v637l-209 319h-358v409h567l205 -314l204 314h478z" />
    <glyph glyph-name="Z" unicode="Z" 
d="M1308 0h-1251l523 956h-669v409h1397l-523 -955h523v-410z" />
    <glyph glyph-name="bracketleft" unicode="[" horiz-adv-x="683" 
d="M626 -112h-569v1591h569v-341h-228v-910h228v-340z" />
    <glyph glyph-name="backslash" unicode="\" horiz-adv-x="612" 
d="M612 -71l-334 -59l-278 1568l337 59z" />
    <glyph glyph-name="bracketright" unicode="]" horiz-adv-x="683" 
d="M626 -112h-569v340h227v910h-227v341h569v-1591z" />
    <glyph glyph-name="a" unicode="a" horiz-adv-x="1297" 
d="M755 523l-106 433l-110 -433h216zM1388 956h-330l239 -956h-410l-45 182h-387l-45 -182h-410l341 1365h1047v-409z" />
    <glyph glyph-name="b" unicode="b" horiz-adv-x="1411" 
d="M944 410v113h-478v-113h478zM944 842v114h-478v-114h478zM1502 956h-148v-114q0 -70 -89 -159q89 -89 89 -160v-204q0 -132 -94 -226q-93 -93 -225 -93h-978v1365h1445v-409z" />
    <glyph glyph-name="c" unicode="c" 
d="M1456 956h-990v-546h842v-410h-933q-132 0 -225 93q-93 94 -93 226v728q0 132 93 225t225 93h1081v-409z" />
    <glyph glyph-name="d" unicode="d" 
d="M899 410v546h-433v-546h433zM1456 956h-148v-637q0 -132 -93 -226q-93 -93 -225 -93h-933v1365h1399v-409z" />
    <glyph glyph-name="e" unicode="e" horiz-adv-x="1252" 
d="M1343 956h-877v-114h729v-319h-729v-113h729v-410h-1138v1365h1286v-409z" />
    <glyph glyph-name="f" unicode="f" horiz-adv-x="1252" 
d="M1343 956h-877v-114h729v-319h-729v-523h-409v1365h1286v-409z" />
    <glyph glyph-name="g" unicode="g" 
d="M1456 956h-990v-546h433v113h-182v319h591v-523q0 -132 -93 -226q-93 -93 -225 -93h-615q-132 0 -225 93q-93 94 -93 226v728q0 132 93 225t225 93h1081v-409z" />
    <glyph glyph-name="h" unicode="h" 
d="M1456 956h-148v-956h-409v523h-433v-523h-409v1365h409v-523h433v523h557v-409z" />
    <glyph glyph-name="i" unicode="i" horiz-adv-x="523" 
d="M614 956h-148v-956h-409v1365h557v-409z" />
    <glyph glyph-name="j" unicode="j" 
d="M1456 956h-148v-637q0 -132 -93 -226q-93 -93 -225 -93h-615q-132 0 -225 93q-93 94 -93 226v204h409v-113h433v955h557v-409z" />
    <glyph glyph-name="k" unicode="k" horiz-adv-x="1308" 
d="M1399 956h-357l-177 -273l443 -683h-477l-365 560v-560h-409v1365h409v-559l365 559h568v-409z" />
    <glyph glyph-name="l" unicode="l" horiz-adv-x="1252" 
d="M1195 0h-1138v1365h409v-955h729v-410z" />
    <glyph glyph-name="m" unicode="m" horiz-adv-x="1593" 
d="M1684 956h-148v-956h-410v571l-330 -571l-330 571v-571h-409v1365h409l330 -571l330 571h558v-409z" />
    <glyph glyph-name="n" unicode="n" 
d="M1456 956h-148v-956h-409v956h-433v-956h-409v1365h1399v-409z" />
    <glyph glyph-name="o" unicode="o" 
d="M899 410v546h-433v-546h433zM1456 956h-148v-637q0 -132 -93 -226q-93 -93 -225 -93h-615q-132 0 -225 93q-93 94 -93 226v728q0 132 93 225t225 93h1081v-409z" />
    <glyph glyph-name="p" unicode="p" 
d="M899 842v114h-433v-114h433zM1456 956h-148v-114q0 -132 -93 -226q-93 -93 -225 -93h-524v-523h-409v1365h1399v-409z" />
    <glyph glyph-name="q" unicode="q" horiz-adv-x="1479" 
d="M899 410v546h-433v-546h433zM1570 956h-262v-546h114v-410h-1047q-132 0 -225 93q-93 94 -93 226v728q0 132 93 225t225 93h1195v-409z" />
    <glyph glyph-name="r" unicode="r" 
d="M899 842v114h-433v-114h433zM1456 956h-148v-114q0 -71 -88 -159q88 -88 88 -160v-523h-409v523h-433v-523h-409v1365h1399v-409z" />
    <glyph glyph-name="s" unicode="s" 
d="M1456 956h-990v-114h524q132 0 225 -94q93 -93 93 -225v-204q0 -132 -93 -226q-93 -93 -225 -93h-933v410h842v113h-524q-132 0 -225 93q-93 94 -93 226v205q0 132 93 225t225 93h1081v-409z" />
    <glyph glyph-name="t" unicode="t" 
d="M1456 956h-569v-956h-409v956h-421v409h1399v-409z" />
    <glyph glyph-name="u" unicode="u" 
d="M1456 956h-148v-637q0 -132 -93 -226q-93 -93 -225 -93h-615q-132 0 -225 93q-93 94 -93 226v1046h409v-955h433v955h557v-409z" />
    <glyph glyph-name="v" unicode="v" horiz-adv-x="1297" 
d="M1388 956h-193l-239 -956h-615l-341 1365h410l239 -955l238 955h501v-409z" />
    <glyph glyph-name="w" unicode="w" horiz-adv-x="2002" 
d="M2094 956h-194l-239 -956h-523l-137 546l-136 -546h-524l-341 1365h410l193 -773l193 773h410l193 -773l194 773h501v-409z" />
    <glyph glyph-name="x" unicode="x" 
d="M1456 956h-357l-177 -273l443 -683h-478l-204 314l-205 -314h-478l444 683l-444 682h478l205 -314l204 314h569v-409z" />
    <glyph glyph-name="y" unicode="y" 
d="M1456 956h-359l-210 -319v-637h-409v637l-478 728h478l205 -314l204 314h569v-409z" />
    <glyph glyph-name="z" unicode="z" 
d="M1456 956h-373l-298 -546h523v-410h-1251l523 956h-523v409h1399v-409z" />
    <glyph glyph-name="braceleft" unicode="{" horiz-adv-x="796" 
d="M740 -112h-296q-115 0 -194 79t-79 192v387q0 24 -9 45t-24 36t-36 24t-45 9v114q48 0 81 39q33 40 33 97v296q0 114 79 193q80 80 194 80h296v-341h-228v-342q0 -47 -33 -80t-81 -33q24 0 45 -9t36 -24t24 -36t9 -45v-341h228v-340z" />
    <glyph glyph-name="bar" unicode="|" horiz-adv-x="455" 
d="M398 -112h-341v1591h341v-1591z" />
    <glyph glyph-name="braceright" unicode="}" horiz-adv-x="796" 
d="M740 660q-24 0 -45 -9t-36 -24t-24 -36t-9 -45v-387q0 -112 -80 -192q-79 -79 -193 -79h-296v340h227v341q0 24 9 45t24 36t36 24t45 9q-48 0 -81 33t-33 80v342h-227v341h296q113 0 193 -80t80 -193v-296q0 -53 31 -94q31 -42 83 -42v-114z" />
    <glyph glyph-name="quotesinglbase" horiz-adv-x="455" 
d="M398 0l-170 -225v225h-171v341h341v-341z" />
    <glyph glyph-name="quotesinglbase" unicode="&#x201a;" horiz-adv-x="455" 
d="M398 0l-170 -225v225h-171v341h341v-341z" />
    <glyph glyph-name="quotedblbase" horiz-adv-x="853" 
d="M398 0l-170 -225v225h-171v341h341v-341zM796 0l-170 -225v225h-171v341h341v-341z" />
    <glyph glyph-name="quotedblbase" unicode="&#x201e;" horiz-adv-x="853" 
d="M398 0l-170 -225v225h-171v341h341v-341zM796 0l-170 -225v225h-171v341h341v-341z" />
    <glyph glyph-name="quoteleft" horiz-adv-x="455" 
d="M398 796h-341v342l171 227v-227h170v-342z" />
    <glyph glyph-name="quoteleft" unicode="&#x2018;" horiz-adv-x="455" 
d="M398 796h-341v342l171 227v-227h170v-342z" />
    <glyph glyph-name="quoteright" horiz-adv-x="455" 
d="M398 1024l-170 -228v228h-171v341h341v-341z" />
    <glyph glyph-name="quoteright" unicode="&#x2019;" horiz-adv-x="455" 
d="M398 1024l-170 -228v228h-171v341h341v-341z" />
    <glyph glyph-name="quotedblleft" horiz-adv-x="853" 
d="M398 796h-341v342l171 227v-227h170v-342zM796 796h-341v342l171 227v-227h170v-342z" />
    <glyph glyph-name="quotedblleft" unicode="&#x201c;" horiz-adv-x="853" 
d="M398 796h-341v342l171 227v-227h170v-342zM796 796h-341v342l171 227v-227h170v-342z" />
    <glyph glyph-name="quotedblright" horiz-adv-x="853" 
d="M398 1024l-170 -228v228h-171v341h341v-341zM796 1024l-170 -228v228h-171v341h341v-341z" />
    <glyph glyph-name="quotedblright" unicode="&#x201d;" horiz-adv-x="853" 
d="M398 1024l-170 -228v228h-171v341h341v-341zM796 1024l-170 -228v228h-171v341h341v-341z" />
    <glyph glyph-name="exclamdown" unicode="&#xa1;" horiz-adv-x="455" 
d="M398 0h-341v910h341v-910zM398 1024h-341v341h341v-341z" />
    <glyph glyph-name="questiondown" unicode="&#xbf;" horiz-adv-x="1138" 
d="M1081 0h-751q-115 0 -194 81q-79 80 -79 192v250q0 114 79 193q80 80 194 80h410v114h341v-182q0 -114 -80 -194q-79 -79 -193 -79h-410v-114h683v-341zM1081 1024h-341v341h341v-341z" />
  </font>
</defs>
</svg>
