<?xml version="1.0" standalone="no"?>
<!DOCTYPE svg PUBLIC "-//W3C//DTD SVG 1.1//EN" "http://www.w3.org/Graphics/SVG/1.1/DTD/svg11.dtd" >
<svg xmlns="http://www.w3.org/2000/svg" xmlns:xlink="http://www.w3.org/1999/xlink" version="1.1">
<metadata>
Created by FontForge 20170731 at Fri Mar  3 02:37:05 2000
 By Aleksey,,,
Copyright (c) ShyFonts Type Foundry, 1999. All rights reserved.
</metadata>
<defs>
<font id="SFEspressoShackCondensed" horiz-adv-x="1229" >
  <font-face 
    font-family="SF Espresso Shack Condensed"
    font-weight="400"
    font-stretch="normal"
    units-per-em="2048"
    panose-1="0 0 4 0 0 0 0 0 0 0"
    ascent="1638"
    descent="-410"
    x-height="1476"
    cap-height="1640"
    bbox="-194 -407 2086 2152"
    underline-thickness="20"
    underline-position="-163"
    unicode-range="U+0020-00FF"
  />
<missing-glyph horiz-adv-x="1024" 
 />
    <glyph glyph-name=".notdef" horiz-adv-x="1024" 
 />
    <glyph glyph-name=".null" horiz-adv-x="0" 
 />
    <glyph glyph-name="nonmarkingreturn" horiz-adv-x="682" 
 />
    <glyph glyph-name="space" unicode=" " horiz-adv-x="692" 
 />
    <glyph glyph-name="exclam" unicode="!" horiz-adv-x="430" 
d="M353 533h-277v1517h277v-1517zM353 184q0 -65 -35 -121q-41 -63 -103 -63q-63 0 -103 63q-36 55 -36 121t35 122q40 63 104 63q63 0 104 -63q34 -53 34 -122z" />
    <glyph glyph-name="quotedbl" unicode="&#x22;" horiz-adv-x="662" 
d="M623 1455q0 -85 -36 -220q-45 -169 -103 -169q24 58 24 113q0 48 -24 92q-62 0 -102 63q-36 55 -36 121t35 122q40 63 103 63q65 0 104 -63q35 -56 35 -122zM315 1455q0 -85 -36 -220q-45 -169 -102 -169q24 60 24 113q0 47 -24 92q-63 0 -103 63q-36 55 -36 121t35 122
q40 63 104 63t103 -63q35 -56 35 -122z" />
    <glyph glyph-name="numbersign" unicode="#" horiz-adv-x="1127" 
d="M1050 613h-252l-35 -271h-183l35 271h-203l-36 -271h-183l36 271h-153v244h185l35 268h-220v244h252l37 271h184l-38 -271h204l35 271h183l-35 -271h152v-244h-184l-36 -268h220v-244zM683 1125h-204l-35 -268h203z" />
    <glyph glyph-name="dollar" unicode="$" horiz-adv-x="653" 
d="M615 369q0 -238 -187 -361v-312h-144v248q-87 -29 -177 -33l-61 376q86 3 152 26q94 33 94 97q0 134 -127 416q-127 284 -127 445q0 231 173 351v326h139v-254q105 36 196 39l46 -380q-74 0 -143 -26q-88 -34 -88 -97q0 -119 127 -406t127 -455z" />
    <glyph glyph-name="percent" unicode="%" horiz-adv-x="1478" 
d="M653 1230q0 -151 -75 -271q-88 -139 -232 -139q-145 0 -232 138q-76 118 -76 272q0 152 76 271q88 139 232 139q142 0 231 -140q76 -119 76 -270zM1133 1720l-525 -1924l-262 127l526 1924zM1440 410q0 -152 -76 -271q-88 -139 -231 -139q-144 0 -231 138
q-76 119 -76 272q0 150 77 271q88 139 230 139t230 -139q77 -122 77 -271zM469 1230q0 61 -31 108q-35 56 -92 56q-56 0 -92 -56q-31 -49 -31 -108q0 -58 32 -108q36 -56 91 -56q56 0 92 56q31 49 31 108zM1256 410q0 60 -31 109q-36 55 -92 55t-92 -55q-31 -49 -31 -109
q0 -59 31 -108q36 -56 92 -56q57 0 92 56q31 47 31 108z" />
    <glyph glyph-name="ampersand" unicode="&#x26;" horiz-adv-x="1168" 
d="M1091 0q-109 0 -165 17q-72 22 -142 94q-108 -111 -238 -111h-155q-169 0 -278 157q-98 140 -98 316q0 213 115 347q-115 134 -115 346q0 176 98 316q110 158 278 158h470v-369h-470q-45 0 -73 -46q-26 -41 -26 -87q0 -49 25 -87q28 -46 74 -46h700v-369h-168v-134
q0 -48 25 -88q28 -45 74 -45h69v-369zM646 499v137h-255q-45 0 -73 -46q-26 -41 -26 -88q0 -49 25 -87q28 -46 74 -46h155q45 0 74 44q26 40 26 86z" />
    <glyph glyph-name="quotesingle" unicode="'" horiz-adv-x="353" 
d="M315 1455q0 -85 -36 -220q-45 -169 -102 -169q24 60 24 113q0 47 -24 92q-63 0 -103 63q-36 55 -36 121t35 122q40 63 104 63t103 -63q35 -56 35 -122z" />
    <glyph glyph-name="parenleft" unicode="(" horiz-adv-x="600" 
d="M523 0l-216 -202q-172 237 -242 483q-65 228 -65 539q0 308 65 539q72 252 242 486l216 -205q-136 -190 -193 -389q-53 -186 -53 -431q0 -251 52 -432q56 -193 194 -388z" />
    <glyph glyph-name="parenright" unicode=")" horiz-adv-x="600" 
d="M600 820q0 -311 -65 -539q-72 -248 -243 -483l-216 202q136 190 193 388q53 186 53 432q0 245 -53 431q-59 202 -193 389l216 205q169 -233 243 -486q65 -231 65 -539z" />
    <glyph glyph-name="asterisk" unicode="*" horiz-adv-x="914" 
d="M836 978l-92 -213l-195 149v-299h-185v299l-195 -149l-93 213l195 149l-195 150l93 213l195 -150v300h185v-300l195 150l92 -213l-195 -150z" />
    <glyph glyph-name="plus" unicode="+" horiz-adv-x="845" 
d="M769 677h-238v-319h-216v319h-239v287h239v317h216v-317h238v-287z" />
    <glyph glyph-name="comma" unicode="," horiz-adv-x="353" 
d="M315 184q0 -85 -36 -218q-45 -168 -102 -168q24 60 24 113q0 48 -24 89q-63 0 -103 63q-36 55 -36 121t35 122q40 63 104 63q63 0 104 -63q34 -53 34 -122z" />
    <glyph glyph-name="hyphen" unicode="-" horiz-adv-x="845" 
d="M769 677h-693v287h693v-287z" />
    <glyph glyph-name="period" unicode="." horiz-adv-x="353" 
d="M315 184q0 -65 -35 -121q-41 -63 -103 -63q-63 0 -103 63q-36 55 -36 121t35 122q40 63 104 63q63 0 104 -63q34 -53 34 -122z" />
    <glyph glyph-name="slash" unicode="/" horiz-adv-x="788" 
d="M788 1720l-527 -1924l-261 127l526 1924z" />
    <glyph glyph-name="zero" unicode="0" 
d="M1229 820q0 -174 -53 -336q-68 -203 -206 -335q-158 -149 -355 -149q-198 0 -356 149q-138 132 -206 335q-53 162 -53 336t53 335q68 203 206 334q157 151 356 151q251 0 433 -240q181 -239 181 -580zM953 820q0 165 -85 298q-98 153 -253 153q-158 0 -254 -153
q-84 -132 -84 -298q0 -167 83 -298q96 -153 255 -153q156 0 254 153q84 132 84 298z" />
    <glyph glyph-name="one" unicode="1" horiz-adv-x="430" 
d="M353 0h-277v1640h277v-1640z" />
    <glyph glyph-name="two" unicode="2" horiz-adv-x="1142" 
d="M1142 -407h-1057v369l584 489q197 167 197 390q0 160 -82 284q-93 144 -244 144q-195 0 -284 -230l-241 174q166 427 528 427q190 0 345 -146q136 -129 202 -325q52 -153 52 -322q0 -314 -150 -519q-89 -122 -398 -366h548v-369z" />
    <glyph glyph-name="three" unicode="3" horiz-adv-x="1173" 
d="M1173 348q0 -178 -58 -330q-69 -182 -205 -297q-151 -128 -333 -128q-329 0 -501 375l219 233q83 -239 283 -239q145 0 236 124q82 112 82 262q0 146 -79 261q-89 129 -228 129h-239l239 533h-513v369h1017l-266 -592q346 -195 346 -700z" />
    <glyph glyph-name="four" unicode="4" horiz-adv-x="1153" 
d="M1076 0h-276v307h-800l442 1333l253 -150l-270 -813h375v963h276v-1640z" />
    <glyph glyph-name="five" unicode="5" horiz-adv-x="1220" 
d="M1220 348q0 -169 -52 -313q-68 -188 -207 -309q-152 -133 -341 -133q-331 0 -502 375l219 233q83 -239 289 -239q144 0 235 124q83 115 83 262q0 148 -84 264q-92 126 -236 126q-123 0 -207 -94q-72 -80 -101 -210l-278 49l151 1157h910v-369h-672l-24 -226
q107 62 232 62q183 0 332 -134q132 -117 199 -304q54 -152 54 -321z" />
    <glyph glyph-name="six" unicode="6" 
d="M1229 408q0 -171 -44 -314q-64 -205 -208 -344q-161 -157 -362 -157q-196 0 -353 148q-137 129 -206 329q-56 165 -56 342q0 290 164 558q70 112 175 278.5t247 391.5l212 -238l-111 -178q176 -23 312 -172q117 -127 179 -315q51 -158 51 -329zM953 410q0 166 -83 299
q-96 154 -253 154q-158 0 -255 -153q-85 -133 -85 -298q0 -166 83 -297q96 -151 255 -151q156 0 254 149q84 130 84 297z" />
    <glyph glyph-name="seven" unicode="7" horiz-adv-x="1058" 
d="M1173 1640l-923 -2047l-250 193l669 1485h-572v369h1076z" />
    <glyph glyph-name="eight" unicode="8" horiz-adv-x="1172" 
d="M1172 205q0 -191 -90 -336q-92 -152 -262 -226q-115 -50 -234 -50q-120 0 -235 50q-168 73 -262 227q-89 146 -89 335q0 357 227 537q-133 152 -133 389q0 216 138 362q139 147 354 147q213 0 354 -149q138 -146 138 -360q0 -237 -134 -389q228 -180 228 -537zM801 1105
q0 92 -62 151q-62 60 -153 60q-93 0 -154 -60q-62 -60 -62 -151q0 -93 61 -154t155 -61q92 0 154 60q61 61 61 155zM863 240q0 121 -79 201q-79 82 -198 82q-120 0 -199 -82q-78 -83 -78 -201q0 -123 77 -203q76 -79 200 -79q123 0 199 79q78 79 78 203z" />
    <glyph glyph-name="nine" unicode="9" 
d="M1229 818q0 -296 -164 -558l-421 -667l-213 238l112 175q-175 21 -311 169q-117 126 -179 312q-53 162 -53 335q0 182 57 346q69 199 207 327q154 145 351 145q251 0 433 -240q181 -239 181 -582zM953 818q0 165 -85 298q-98 153 -253 153q-159 0 -255 -152
q-83 -131 -83 -297q0 -164 83 -298q98 -155 254 -155q157 0 255 153q84 132 84 298z" />
    <glyph glyph-name="colon" unicode=":" horiz-adv-x="353" 
d="M315 1045q0 -65 -35 -121q-41 -63 -103 -63q-63 0 -103 63q-36 55 -36 121t35 122q40 63 104 63q63 0 104 -63q34 -53 34 -122zM315 184q0 -65 -35 -121q-41 -63 -103 -63q-63 0 -103 63q-36 55 -36 121t35 122q40 63 104 63q63 0 104 -63q34 -53 34 -122z" />
    <glyph glyph-name="semicolon" unicode=";" horiz-adv-x="353" 
d="M315 1045q0 -65 -35 -121q-41 -63 -103 -63q-63 0 -103 63q-36 55 -36 121t35 122q40 63 104 63q63 0 104 -63q34 -53 34 -122zM315 184q0 -85 -36 -218q-45 -168 -102 -168q24 60 24 113q0 48 -24 89q-63 0 -103 63q-36 55 -36 121t35 122q40 63 104 63q63 0 104 -63
q34 -53 34 -122z" />
    <glyph glyph-name="less" unicode="&#x3c;" horiz-adv-x="546" 
d="M507 410h-277l-230 410l230 410h277l-230 -410z" />
    <glyph glyph-name="equal" unicode="=" horiz-adv-x="845" 
d="M769 923h-693v286h693v-286zM769 430h-693v288h693v-288z" />
    <glyph glyph-name="greater" unicode="&#x3e;" horiz-adv-x="546" 
d="M546 820l-231 -410h-277l230 410l-230 410h277z" />
    <glyph glyph-name="question" unicode="?" horiz-adv-x="1118" 
d="M1118 1404q0 -195 -86 -350q-89 -165 -258 -248q-117 -57 -241 -57v-216h-278v580h278q116 0 196 84q80 85 80 201q0 121 -78 202t-198 81q-179 0 -253 -158l-280 158q70 165 211 265q146 104 322 104q127 0 246 -60q163 -82 253 -243q86 -154 86 -343zM533 184
q0 -67 -36 -121q-41 -63 -104 -63q-62 0 -102 63q-36 55 -36 121t35 122q40 63 103 63q65 0 104 -63q36 -54 36 -122z" />
    <glyph glyph-name="at" unicode="@" horiz-adv-x="999" 
d="M961 820q0 -131 -41 -254q-51 -152 -155 -250q-119 -111 -266 -111t-265 110q-104 98 -155 250q-41 123 -41 255q0 126 36 240q49 156 154 259q121 116 271 116q152 0 272 -117q104 -101 154 -258q36 -114 36 -240zM554 732l-55 197l-52 -197h107zM800 820q0 147 -75 264
q-85 136 -226 136t-226 -135q-74 -119 -74 -265q0 -147 75 -264q85 -136 225 -136q67 0 129 39l-42 150h-173l-26 -92l-97 47l155 567h110l160 -589q85 113 85 278z" />
    <glyph glyph-name="A" unicode="A" horiz-adv-x="921" 
d="M1113 -282l-259 -125l-179 653h-463l-67 -246l-258 127l411 1513h294zM587 574l-143 525l-143 -525h286z" />
    <glyph glyph-name="B" unicode="B" horiz-adv-x="1191" 
d="M1153 457q0 -170 -101 -307q-111 -150 -276 -150h-700v1640h668q163 0 276 -146q104 -134 104 -301q0 -218 -135 -348q164 -134 164 -388zM844 1138q0 47 -25 87q-28 46 -73 46h-393v-266h391q46 0 75 45q25 38 25 88zM875 502q0 48 -26 88q-28 46 -74 46h-422v-267h422
q46 0 75 45q25 38 25 88z" />
    <glyph glyph-name="C" unicode="C" horiz-adv-x="999" 
d="M923 0h-308q-198 0 -354 147q-140 131 -207 332q-54 160 -54 341q0 180 54 339q67 201 207 332q158 149 354 149h308v-369h-308q-138 0 -240 -133q-98 -128 -98 -318q0 -167 83 -298q96 -153 255 -153h308v-369z" />
    <glyph glyph-name="D" unicode="D" horiz-adv-x="1153" 
d="M1153 820q0 -167 -48 -320q-65 -206 -206 -344q-159 -156 -360 -156h-463v1640h463q195 0 353 -150q138 -131 206 -332q55 -159 55 -338zM876 820q0 163 -84 297q-97 154 -253 154h-186v-902h186q156 0 253 154q84 132 84 297z" />
    <glyph glyph-name="E" unicode="E" horiz-adv-x="1076" 
d="M999 0h-923v1640h923v-369h-646v-266h492v-369h-492v-267h646v-369z" />
    <glyph glyph-name="F" unicode="F" horiz-adv-x="1015" 
d="M999 1271h-646v-266h492v-369h-492v-636h-277v1640h923v-369z" />
    <glyph glyph-name="G" unicode="G" horiz-adv-x="1153" 
d="M1076 -407h-276v407h-185q-202 0 -362 155q-139 136 -205 344q-48 153 -48 321q0 167 48 319q66 208 206 345q159 156 361 156h461v-369h-461q-158 0 -254 -153q-84 -132 -84 -298q0 -167 83 -298q96 -153 255 -153h185v267h-185v369h461v-1412z" />
    <glyph glyph-name="H" unicode="H" 
d="M1153 0h-277v636h-523v-636h-277v1640h277v-635h523v635h277v-1640z" />
    <glyph glyph-name="I" unicode="I" horiz-adv-x="430" 
d="M353 0h-277v1640h277v-1640z" />
    <glyph glyph-name="J" unicode="J" horiz-adv-x="692" 
d="M615 307q0 -168 -55 -315q-63 -170 -182 -277q-136 -122 -302 -122v369q122 0 197 116q65 101 65 229v1333h277v-1333z" />
    <glyph glyph-name="K" unicode="K" 
d="M1307 -146l-195 -261l-652 864l-107 -144v-313h-277v1640h277v-805l605 805l195 -261l-497 -661z" />
    <glyph glyph-name="L" unicode="L" horiz-adv-x="999" 
d="M999 0h-923v1640h277v-1271h646v-369z" />
    <glyph glyph-name="M" unicode="M" horiz-adv-x="1314" 
d="M1391 -343l-272 -64l-183 1395l-283 -810l-283 810l-137 -1024l-269 61l211 1615h272l206 -588l207 588h271z" />
    <glyph glyph-name="N" unicode="N" 
d="M1153 0h-277l-523 966v-966h-277v1640h277l523 -965v965h277v-1640z" />
    <glyph glyph-name="O" unicode="O" 
d="M1229 820q0 -174 -53 -336q-68 -203 -206 -335q-158 -149 -355 -149q-198 0 -356 149q-138 132 -206 335q-53 162 -53 336t53 335q68 203 206 334q157 151 356 151q251 0 433 -240q181 -239 181 -580zM953 820q0 165 -85 298q-98 153 -253 153q-158 0 -254 -153
q-84 -132 -84 -298q0 -167 83 -298q96 -153 255 -153q156 0 254 153q84 132 84 298z" />
    <glyph glyph-name="P" unicode="P" horiz-adv-x="1168" 
d="M1153 1025q0 -126 -36 -240q-50 -157 -154 -258q-120 -117 -271 -117h-339v-410h-277v1640h616q146 0 265 -111q104 -98 155 -249q41 -123 41 -255zM876 1025q0 87 -47 161q-54 85 -137 85h-339v-492h339q85 0 138 84q46 73 46 162z" />
    <glyph glyph-name="Q" unicode="Q" horiz-adv-x="1268" 
d="M1268 -146l-195 -261l-323 427q-65 -20 -135 -20q-194 0 -348 142q-137 126 -207 322q-60 169 -60 356q0 186 60 354q70 196 207 322q154 144 348 144q251 0 434 -242q180 -237 180 -578q0 -380 -217 -627zM953 820q0 165 -85 298q-98 153 -253 153q-158 0 -254 -153
q-84 -132 -84 -298q0 -167 83 -298q96 -153 255 -153q156 0 254 153q84 132 84 298z" />
    <glyph glyph-name="R" unicode="R" horiz-adv-x="1191" 
d="M1163 -144l-195 -263l-615 817v-410h-277v1640h616q151 0 271 -117q104 -101 154 -258q36 -114 36 -240q0 -210 -101 -383q-116 -198 -309 -228zM876 1025q0 87 -47 161q-54 85 -137 85h-339v-492h339q85 0 138 84q46 73 46 162z" />
    <glyph glyph-name="S" unicode="S" horiz-adv-x="653" 
d="M615 369q0 -332 -353 -431q-80 -23 -155 -27l-61 376q86 3 152 26q94 33 94 97q0 134 -127 416t-127 445q0 333 352 435q81 24 156 27l46 -380q-74 0 -143 -26q-88 -34 -88 -97q0 -119 127 -406t127 -455z" />
    <glyph glyph-name="T" unicode="T" horiz-adv-x="1076" 
d="M1076 1271h-399v-1271h-278v1271h-399v369h1076v-369z" />
    <glyph glyph-name="U" unicode="U" horiz-adv-x="1153" 
d="M1115 718q0 -169 -54 -317q-62 -170 -182 -278q-135 -123 -302 -123t-303 122q-120 108 -182 278q-54 148 -54 318v922h277v-922q0 -127 65 -231q75 -118 197 -118q121 0 196 118q65 104 65 231v922h277v-922z" />
    <glyph glyph-name="V" unicode="V" horiz-adv-x="921" 
d="M1113 1925l-521 -1925h-294l-411 1512l258 128l299 -1098l410 1508z" />
    <glyph glyph-name="W" unicode="W" horiz-adv-x="1414" 
d="M1607 1925l-522 -1925h-293l-100 365l-100 -365h-294l-411 1512l258 128l300 -1100l100 364l-167 608l260 128l54 -197l54 197l259 -128l-166 -608l99 -362l408 1508z" />
    <glyph glyph-name="X" unicode="X" horiz-adv-x="1039" 
d="M1231 -196l-226 -211l-478 907l-301 -565l-226 208l358 677l-358 686l226 212l301 -576l286 546l226 -212l-344 -656z" />
    <glyph glyph-name="Y" unicode="Y" horiz-adv-x="996" 
d="M1188 1428l-967 -1835l-223 211l387 742l-459 882l223 212l406 -773l407 773z" />
    <glyph glyph-name="Z" unicode="Z" 
d="M1153 0h-1077l573 1271h-573v369h1077l-572 -1271h572v-369z" />
    <glyph glyph-name="bracketleft" unicode="[" horiz-adv-x="738" 
d="M662 -202h-586v2047h586v-369h-309v-1312h309v-366z" />
    <glyph glyph-name="backslash" unicode="\" horiz-adv-x="788" 
d="M788 -77l-262 -127l-526 1924l261 127z" />
    <glyph glyph-name="bracketright" unicode="]" horiz-adv-x="738" 
d="M662 -202h-586v366h308v1312h-308v369h586v-2047z" />
    <glyph glyph-name="asciicircum" unicode="^" horiz-adv-x="692" 
d="M653 1517l-61 -185l-246 103l-246 -103l-62 185l246 123h123z" />
    <glyph glyph-name="underscore" unicode="_" horiz-adv-x="692" 
d="M692 -407h-692v287h692v-287z" />
    <glyph glyph-name="grave" unicode="`" horiz-adv-x="596" 
d="M557 1845l-15 -102h-504v307z" />
    <glyph glyph-name="a" unicode="a" horiz-adv-x="829" 
d="M1002 -253l-235 -113l-159 587h-418l-60 -221l-230 115l368 1361h265zM530 517l-131 471l-129 -471h260z" />
    <glyph glyph-name="b" unicode="b" horiz-adv-x="1071" 
d="M1037 412q0 -155 -91 -277q-99 -135 -248 -135h-629v1476h602q146 0 247 -131q94 -121 94 -271q0 -196 -122 -313q147 -120 147 -349zM760 1023q0 43 -22 78q-25 43 -65 43h-355v-240h353q41 0 67 41q22 34 22 78zM788 451q0 42 -22 79q-26 42 -65 42h-383v-240h380
q41 0 67 41q23 35 23 78z" />
    <glyph glyph-name="c" unicode="c" horiz-adv-x="899" 
d="M830 0h-276q-180 0 -319 132q-124 115 -186 298q-49 144 -49 308q0 161 49 305q62 182 186 299q142 134 319 134h276v-332h-276q-142 0 -229 -138q-76 -118 -76 -268t76 -269q87 -137 229 -137h276v-332z" />
    <glyph glyph-name="d" unicode="d" horiz-adv-x="1037" 
d="M1037 738q0 -163 -49 -307q-62 -184 -185 -298q-140 -133 -319 -133h-415v1476h415q181 0 325 -141q127 -124 185 -310q43 -135 43 -287zM789 738q0 150 -76 268q-87 138 -229 138h-166v-812h166q142 0 229 137q76 119 76 269z" />
    <glyph glyph-name="e" unicode="e" horiz-adv-x="968" 
d="M899 0h-830v1476h830v-332h-581v-240h443v-332h-443v-240h581v-332z" />
    <glyph glyph-name="f" unicode="f" horiz-adv-x="914" 
d="M899 1144h-581v-240h443v-332h-443v-572h-249v1476h830v-332z" />
    <glyph glyph-name="g" unicode="g" horiz-adv-x="1037" 
d="M968 -366h-249v366h-165q-184 0 -326 138q-126 122 -185 310q-43 136 -43 290q0 153 43 288q58 186 185 310q145 140 326 140h414v-332h-414q-142 0 -229 -138q-76 -118 -76 -268q0 -148 76 -269q87 -137 229 -137h165v240h-165v332h414v-1270z" />
    <glyph glyph-name="h" unicode="h" horiz-adv-x="1107" 
d="M1037 0h-248v572h-471v-572h-249v1476h249v-572h471v572h248v-1476z" />
    <glyph glyph-name="i" unicode="i" horiz-adv-x="387" 
d="M318 0h-249v1476h249v-1476z" />
    <glyph glyph-name="j" unicode="j" horiz-adv-x="623" 
d="M554 276q0 -149 -50 -282q-56 -152 -164 -250q-122 -110 -271 -110v332q108 0 176 104q59 92 59 206v1200h250v-1200z" />
    <glyph glyph-name="k" unicode="k" horiz-adv-x="1107" 
d="M1176 -132l-175 -234l-586 778l-97 -129v-283h-249v1476h249v-725l545 725l174 -234l-447 -596z" />
    <glyph glyph-name="l" unicode="l" horiz-adv-x="899" 
d="M899 0h-830v1476h249v-1144h581v-332z" />
    <glyph glyph-name="m" unicode="m" horiz-adv-x="1182" 
d="M1251 -308l-244 -58l-165 1256l-255 -730l-254 730l-122 -922l-242 55l189 1453h245l184 -529l186 529h245z" />
    <glyph glyph-name="n" unicode="n" horiz-adv-x="1107" 
d="M1037 0h-248l-471 869v-869h-249v1476h249l471 -869v869h248v-1476z" />
    <glyph glyph-name="o" unicode="o" horiz-adv-x="1107" 
d="M1107 738q0 -162 -49 -306q-61 -180 -186 -299q-140 -133 -318 -133q-184 0 -326 138q-126 122 -185 310q-43 136 -43 290q0 153 43 288q58 186 185 310q145 140 326 140q175 0 318 -135q125 -119 186 -299q49 -143 49 -304zM858 738q0 150 -76 268q-87 138 -228 138
q-142 0 -229 -138q-76 -118 -76 -268q0 -148 76 -269q87 -137 229 -137q141 0 228 137q76 119 76 269z" />
    <glyph glyph-name="p" unicode="p" horiz-adv-x="1052" 
d="M1037 923q0 -203 -103 -366q-119 -188 -311 -188h-305v-369h-249v1476h554q190 0 310 -188q104 -164 104 -365zM789 923q0 79 -42 145q-49 76 -124 76h-305v-443h305q76 0 124 76q42 66 42 146z" />
    <glyph glyph-name="q" unicode="q" horiz-adv-x="1141" 
d="M1141 -132l-176 -234l-290 384q-60 -18 -121 -18q-172 0 -312 125q-122 111 -186 286q-56 156 -56 327t56 325q64 175 186 286q139 127 312 127q170 0 310 -128q123 -112 187 -286q56 -153 56 -324q0 -340 -197 -564zM858 738q0 150 -76 268q-87 138 -228 138
q-142 0 -229 -138q-76 -118 -76 -268q0 -148 76 -269q87 -137 229 -137q141 0 228 137q76 119 76 269z" />
    <glyph glyph-name="r" unicode="r" horiz-adv-x="1071" 
d="M1047 -130l-175 -236l-554 735v-369h-249v1476h554q190 0 310 -188q104 -164 104 -365q0 -189 -90 -345q-103 -181 -278 -205zM789 923q0 79 -42 145q-49 76 -124 76h-305v-443h305q76 0 124 76q42 66 42 146z" />
    <glyph glyph-name="s" unicode="s" horiz-adv-x="587" 
d="M554 332q0 -297 -318 -388q-81 -23 -139 -23l-56 337q221 11 221 111q0 121 -114 375q-114 253 -114 400q0 302 318 391q81 23 138 23l43 -340q-70 0 -130 -23q-79 -30 -79 -88q0 -105 115 -365q115 -258 115 -410z" />
    <glyph glyph-name="t" unicode="t" horiz-adv-x="968" 
d="M968 1144h-359v-1144h-250v1144h-359v332h968v-332z" />
    <glyph glyph-name="u" unicode="u" horiz-adv-x="1037" 
d="M1002 646q0 -153 -49 -287q-55 -151 -163 -250q-121 -109 -272 -109q-153 0 -272 109q-108 99 -163 250q-49 134 -49 287v830h249v-830q0 -114 58 -208q67 -106 177 -106q108 0 177 106q59 95 59 208v830h248v-830z" />
    <glyph glyph-name="v" unicode="v" horiz-adv-x="829" 
d="M1002 1733l-469 -1733h-265l-368 1361l230 115l269 -989l368 1358z" />
    <glyph glyph-name="w" unicode="w" horiz-adv-x="1273" 
d="M1445 1733l-469 -1733h-264l-89 328l-90 -328h-265l-368 1361l230 115l271 -991l89 329l-150 547l234 115l49 -177l48 177l234 -115l-150 -547l89 -327l367 1358z" />
    <glyph glyph-name="x" unicode="x" horiz-adv-x="935" 
d="M1109 -175l-204 -191l-430 817l-273 -509l-202 187l322 609l-322 617l202 191l273 -519l257 492l203 -191l-309 -590z" />
    <glyph glyph-name="y" unicode="y" horiz-adv-x="896" 
d="M1070 1285l-871 -1651l-201 191l349 664l-413 796l199 191l366 -695l367 695z" />
    <glyph glyph-name="z" unicode="z" horiz-adv-x="1107" 
d="M1037 0h-968l515 1144h-515v332h968l-514 -1144h514v-332z" />
    <glyph glyph-name="braceleft" unicode="{" horiz-adv-x="830" 
d="M754 -202h-309q-115 0 -196 106q-80 107 -80 260v349q0 87 -46 145q-45 60 -108 60v205q63 0 108 59q46 59 46 145v349q0 155 80 262q81 107 196 107h309v-369h-263q-46 0 -46 -62v-389q0 -74 -38 -135q-43 -70 -115 -70q72 0 115 -70q38 -61 38 -135v-390q0 -61 46 -61
h263v-366z" />
    <glyph glyph-name="bar" unicode="|" horiz-adv-x="430" 
d="M353 -202h-277v2047h277v-2047z" />
    <glyph glyph-name="braceright" unicode="}" horiz-adv-x="830" 
d="M815 718q-62 0 -108 -60q-45 -59 -45 -145v-349q0 -153 -82 -259q-83 -107 -196 -107h-308v366h262q46 0 46 61v390q0 75 39 135q43 70 116 70q-73 0 -116 70q-39 60 -39 135v389q0 62 -46 62h-262v369h308q114 0 196 -109q82 -107 82 -260v-349q0 -85 45 -145
q47 -59 108 -59v-205z" />
    <glyph glyph-name="asciitilde" unicode="~" horiz-adv-x="769" 
d="M731 1394q-100 -103 -232 -103q-43 0 -116 51q-73 52 -115 52q-128 0 -230 -103v247q100 102 230 102q42 0 116 -51q73 -51 115 -51q131 0 232 102v-246z" />
    <glyph glyph-name="quotesinglbase" horiz-adv-x="353" 
d="M315 184q0 -85 -36 -218q-45 -168 -102 -168q24 60 24 113q0 48 -24 89q-63 0 -103 63q-36 55 -36 121t35 122q40 63 104 63q63 0 104 -63q34 -53 34 -122z" />
    <glyph glyph-name="quotesinglbase" unicode="&#x201a;" horiz-adv-x="353" 
d="M315 184q0 -85 -36 -218q-45 -168 -102 -168q24 60 24 113q0 48 -24 89q-63 0 -103 63q-36 55 -36 121t35 122q40 63 104 63q63 0 104 -63q34 -53 34 -122z" />
    <glyph glyph-name="quotedblbase" horiz-adv-x="662" 
d="M623 184q0 -85 -36 -218q-45 -168 -103 -168q24 58 24 113q0 48 -24 89q-62 0 -102 63q-36 55 -36 121t35 122q40 63 103 63q64 0 105 -63q34 -53 34 -122zM315 184q0 -85 -36 -218q-45 -168 -102 -168q24 60 24 113q0 48 -24 89q-63 0 -103 63q-36 55 -36 121t35 122
q40 63 104 63q63 0 104 -63q34 -53 34 -122z" />
    <glyph glyph-name="quotedblbase" unicode="&#x201e;" horiz-adv-x="662" 
d="M623 184q0 -85 -36 -218q-45 -168 -103 -168q24 58 24 113q0 48 -24 89q-62 0 -102 63q-36 55 -36 121t35 122q40 63 103 63q64 0 105 -63q34 -53 34 -122zM315 184q0 -85 -36 -218q-45 -168 -102 -168q24 60 24 113q0 48 -24 89q-63 0 -103 63q-36 55 -36 121t35 122
q40 63 104 63q63 0 104 -63q34 -53 34 -122z" />
    <glyph glyph-name="ellipsis" unicode="&#x85;" horiz-adv-x="968" 
d="M930 184q0 -65 -35 -121q-41 -63 -103 -63q-63 0 -103 63q-36 55 -36 121t35 122q40 63 104 63q63 0 104 -63q34 -53 34 -122zM623 184q0 -65 -35 -121q-41 -63 -104 -63q-62 0 -102 63q-36 55 -36 121t35 122q40 63 103 63q64 0 105 -63q34 -53 34 -122zM315 184
q0 -65 -35 -121q-41 -63 -103 -63q-63 0 -103 63q-36 55 -36 121t35 122q40 63 104 63q63 0 104 -63q34 -53 34 -122z" />
    <glyph glyph-name="ellipsis" unicode="&#x2026;" horiz-adv-x="968" 
d="M930 184q0 -65 -35 -121q-41 -63 -103 -63q-63 0 -103 63q-36 55 -36 121t35 122q40 63 104 63q63 0 104 -63q34 -53 34 -122zM623 184q0 -65 -35 -121q-41 -63 -104 -63q-62 0 -102 63q-36 55 -36 121t35 122q40 63 103 63q64 0 105 -63q34 -53 34 -122zM315 184
q0 -65 -35 -121q-41 -63 -103 -63q-63 0 -103 63q-36 55 -36 121t35 122q40 63 104 63q63 0 104 -63q34 -53 34 -122z" />
    <glyph glyph-name="circumflex" horiz-adv-x="692" 
d="M653 1927l-61 -184l-246 102l-246 -102l-62 184l246 123h123z" />
    <glyph glyph-name="circumflex" unicode="&#x2c6;" horiz-adv-x="692" 
d="M653 1927l-61 -184l-246 102l-246 -102l-62 184l246 123h123z" />
    <glyph glyph-name="perthousand" horiz-adv-x="2124" 
d="M2086 410q0 -152 -76 -271q-88 -139 -231 -139q-144 0 -232 138q-76 118 -76 272q0 150 77 272q88 138 231 138q142 0 230 -139q77 -122 77 -271zM653 1230q0 -151 -75 -271q-88 -139 -232 -139q-145 0 -232 138q-76 118 -76 272q0 152 76 271q88 139 232 139
q142 0 231 -140q76 -119 76 -270zM1133 1720l-525 -1924l-262 127l526 1924zM1440 410q0 -152 -76 -271q-88 -139 -231 -139q-144 0 -231 138q-76 119 -76 272q0 150 77 271q88 139 230 139t230 -139q77 -122 77 -271zM1902 410q0 60 -31 109q-36 55 -92 55q-58 0 -92 -55
q-31 -49 -31 -109q0 -61 31 -108q35 -56 92 -56q56 0 92 56q31 47 31 108zM469 1230q0 61 -31 108q-35 56 -92 56q-56 0 -92 -56q-31 -49 -31 -108q0 -58 32 -108q36 -56 91 -56q56 0 92 56q31 49 31 108zM1256 410q0 60 -31 109q-36 55 -92 55t-92 -55q-31 -49 -31 -109
q0 -59 31 -108q36 -56 92 -56q57 0 92 56q31 47 31 108z" />
    <glyph glyph-name="perthousand" unicode="&#x2030;" horiz-adv-x="2124" 
d="M2086 410q0 -152 -76 -271q-88 -139 -231 -139q-144 0 -232 138q-76 118 -76 272q0 150 77 272q88 138 231 138q142 0 230 -139q77 -122 77 -271zM653 1230q0 -151 -75 -271q-88 -139 -232 -139q-145 0 -232 138q-76 118 -76 272q0 152 76 271q88 139 232 139
q142 0 231 -140q76 -119 76 -270zM1133 1720l-525 -1924l-262 127l526 1924zM1440 410q0 -152 -76 -271q-88 -139 -231 -139q-144 0 -231 138q-76 119 -76 272q0 150 77 271q88 139 230 139t230 -139q77 -122 77 -271zM1902 410q0 60 -31 109q-36 55 -92 55q-58 0 -92 -55
q-31 -49 -31 -109q0 -61 31 -108q35 -56 92 -56q56 0 92 56q31 47 31 108zM469 1230q0 61 -31 108q-35 56 -92 56q-56 0 -92 -56q-31 -49 -31 -108q0 -58 32 -108q36 -56 91 -56q56 0 92 56q31 49 31 108zM1256 410q0 60 -31 109q-36 55 -92 55t-92 -55q-31 -49 -31 -109
q0 -59 31 -108q36 -56 92 -56q57 0 92 56q31 47 31 108z" />
    <glyph glyph-name="Scaron" horiz-adv-x="653" 
d="M635 1968l-247 -123h-123l-245 123l62 184l245 -102l247 102zM615 369q0 -332 -353 -431q-80 -23 -155 -27l-61 376q86 3 152 26q94 33 94 97q0 134 -127 416t-127 445q0 333 352 435q81 24 156 27l46 -380q-74 0 -143 -26q-88 -34 -88 -97q0 -119 127 -406t127 -455z
" />
    <glyph glyph-name="Scaron" unicode="&#x160;" horiz-adv-x="653" 
d="M635 1968l-247 -123h-123l-245 123l62 184l245 -102l247 102zM615 369q0 -332 -353 -431q-80 -23 -155 -27l-61 376q86 3 152 26q94 33 94 97q0 134 -127 416t-127 445q0 333 352 435q81 24 156 27l46 -380q-74 0 -143 -26q-88 -34 -88 -97q0 -119 127 -406t127 -455z
" />
    <glyph glyph-name="guilsinglleft" horiz-adv-x="546" 
d="M507 410h-277l-230 410l230 410h277l-230 -410z" />
    <glyph glyph-name="guilsinglleft" unicode="&#x2039;" horiz-adv-x="546" 
d="M507 410h-277l-230 410l230 410h277l-230 -410z" />
    <glyph glyph-name="OE" horiz-adv-x="1953" 
d="M1876 0h-923v135q-155 -135 -338 -135q-200 0 -357 150q-138 131 -206 336q-52 157 -52 334q0 176 52 332q68 205 206 336q158 152 357 152q184 0 338 -136v136h923v-369h-647v-266h493v-369h-493v-267h647v-369zM953 820q0 165 -85 298q-98 153 -253 153
q-158 0 -254 -153q-84 -132 -84 -298q0 -167 83 -298q96 -153 255 -153q156 0 254 153q84 132 84 298z" />
    <glyph glyph-name="OE" unicode="&#x152;" horiz-adv-x="1953" 
d="M1876 0h-923v135q-155 -135 -338 -135q-200 0 -357 150q-138 131 -206 336q-52 157 -52 334q0 176 52 332q68 205 206 336q158 152 357 152q184 0 338 -136v136h923v-369h-647v-266h493v-369h-493v-267h647v-369zM953 820q0 165 -85 298q-98 153 -253 153
q-158 0 -254 -153q-84 -132 -84 -298q0 -167 83 -298q96 -153 255 -153q156 0 254 153q84 132 84 298z" />
    <glyph glyph-name="quoteleft" horiz-adv-x="353" 
d="M315 1250q0 -65 -35 -121q-41 -63 -103 -63q-63 0 -103 63q-36 55 -36 121q0 86 36 221q45 169 103 169q-25 -59 -25 -113q0 -49 25 -92q63 0 104 -63q34 -53 34 -122z" />
    <glyph glyph-name="quoteleft" unicode="&#x2018;" horiz-adv-x="353" 
d="M315 1250q0 -65 -35 -121q-41 -63 -103 -63q-63 0 -103 63q-36 55 -36 121q0 86 36 221q45 169 103 169q-25 -59 -25 -113q0 -49 25 -92q63 0 104 -63q34 -53 34 -122z" />
    <glyph glyph-name="quoteright" horiz-adv-x="353" 
d="M315 1455q0 -85 -36 -220q-45 -169 -102 -169q24 60 24 113q0 47 -24 92q-63 0 -103 63q-36 55 -36 121t35 122q40 63 104 63t103 -63q35 -56 35 -122z" />
    <glyph glyph-name="quoteright" unicode="&#x2019;" horiz-adv-x="353" 
d="M315 1455q0 -85 -36 -220q-45 -169 -102 -169q24 60 24 113q0 47 -24 92q-63 0 -103 63q-36 55 -36 121t35 122q40 63 104 63t103 -63q35 -56 35 -122z" />
    <glyph glyph-name="quotedblleft" horiz-adv-x="662" 
d="M623 1250q0 -65 -35 -121q-41 -63 -104 -63q-62 0 -102 63q-36 55 -36 121q0 85 36 220q44 170 102 170q-25 -60 -25 -113q0 -48 25 -92q64 0 105 -63q34 -53 34 -122zM315 1250q0 -65 -35 -121q-41 -63 -103 -63q-63 0 -103 63q-36 55 -36 121q0 86 36 221
q45 169 103 169q-25 -59 -25 -113q0 -49 25 -92q63 0 104 -63q34 -53 34 -122z" />
    <glyph glyph-name="quotedblleft" unicode="&#x201c;" horiz-adv-x="662" 
d="M623 1250q0 -65 -35 -121q-41 -63 -104 -63q-62 0 -102 63q-36 55 -36 121q0 85 36 220q44 170 102 170q-25 -60 -25 -113q0 -48 25 -92q64 0 105 -63q34 -53 34 -122zM315 1250q0 -65 -35 -121q-41 -63 -103 -63q-63 0 -103 63q-36 55 -36 121q0 86 36 221
q45 169 103 169q-25 -59 -25 -113q0 -49 25 -92q63 0 104 -63q34 -53 34 -122z" />
    <glyph glyph-name="quotedblright" horiz-adv-x="662" 
d="M623 1455q0 -85 -36 -220q-45 -169 -103 -169q24 58 24 113q0 48 -24 92q-62 0 -102 63q-36 55 -36 121t35 122q40 63 103 63q65 0 104 -63q35 -56 35 -122zM315 1455q0 -85 -36 -220q-45 -169 -102 -169q24 60 24 113q0 47 -24 92q-63 0 -103 63q-36 55 -36 121t35 122
q40 63 104 63t103 -63q35 -56 35 -122z" />
    <glyph glyph-name="quotedblright" unicode="&#x201d;" horiz-adv-x="662" 
d="M623 1455q0 -85 -36 -220q-45 -169 -103 -169q24 58 24 113q0 48 -24 92q-62 0 -102 63q-36 55 -36 121t35 122q40 63 103 63q65 0 104 -63q35 -56 35 -122zM315 1455q0 -85 -36 -220q-45 -169 -102 -169q24 60 24 113q0 47 -24 92q-63 0 -103 63q-36 55 -36 121t35 122
q40 63 104 63t103 -63q35 -56 35 -122z" />
    <glyph glyph-name="bullet" horiz-adv-x="845" 
d="M807 820q0 -188 -95 -340q-110 -173 -290 -173q-178 0 -288 173q-96 151 -96 340q0 188 95 339q110 173 289 173q180 0 290 -173q95 -149 95 -339z" />
    <glyph glyph-name="bullet" unicode="&#x2022;" horiz-adv-x="845" 
d="M807 820q0 -188 -95 -340q-110 -173 -290 -173q-178 0 -288 173q-96 151 -96 340q0 188 95 339q110 173 289 173q180 0 290 -173q95 -149 95 -339z" />
    <glyph glyph-name="endash" horiz-adv-x="769" 
d="M692 677h-616v287h616v-287z" />
    <glyph glyph-name="endash" unicode="&#x2013;" horiz-adv-x="769" 
d="M692 677h-616v287h616v-287z" />
    <glyph glyph-name="emdash" horiz-adv-x="999" 
d="M923 677h-847v287h847v-287z" />
    <glyph glyph-name="emdash" unicode="&#x2014;" horiz-adv-x="999" 
d="M923 677h-847v287h847v-287z" />
    <glyph glyph-name="tilde" horiz-adv-x="769" 
d="M731 1907q-100 -103 -232 -103q-43 0 -116 51q-73 52 -115 52q-128 0 -230 -103v246q100 102 230 102q42 0 116 -51q73 -51 115 -51q131 0 232 102v-245z" />
    <glyph glyph-name="tilde" unicode="&#x2dc;" horiz-adv-x="769" 
d="M731 1907q-100 -103 -232 -103q-43 0 -116 51q-73 52 -115 52q-128 0 -230 -103v246q100 102 230 102q42 0 116 -51q73 -51 115 -51q131 0 232 102v-245z" />
    <glyph glyph-name="trademark" horiz-adv-x="936" 
d="M898 896l-101 -25l-69 525l-107 -303l-106 303l-52 -385l-102 24l63 467h-132v-477h-103v477h-151v138h507l76 -222l77 222h103z" />
    <glyph glyph-name="trademark" unicode="&#x2122;" horiz-adv-x="936" 
d="M898 896l-101 -25l-69 525l-107 -303l-106 303l-52 -385l-102 24l63 467h-132v-477h-103v477h-151v138h507l76 -222l77 222h103z" />
    <glyph glyph-name="scaron" horiz-adv-x="587" 
d="M572 1771l-222 -110h-111l-220 110l54 166l222 -92l222 92zM554 332q0 -297 -318 -388q-81 -23 -139 -23l-56 337q221 11 221 111q0 121 -114 375q-114 253 -114 400q0 302 318 391q81 23 138 23l43 -340q-70 0 -130 -23q-79 -30 -79 -88q0 -105 115 -365
q115 -258 115 -410z" />
    <glyph glyph-name="scaron" unicode="&#x161;" horiz-adv-x="587" 
d="M572 1771l-222 -110h-111l-220 110l54 166l222 -92l222 92zM554 332q0 -297 -318 -388q-81 -23 -139 -23l-56 337q221 11 221 111q0 121 -114 375q-114 253 -114 400q0 302 318 391q81 23 138 23l43 -340q-70 0 -130 -23q-79 -30 -79 -88q0 -105 115 -365
q115 -258 115 -410z" />
    <glyph glyph-name="guilsinglright" horiz-adv-x="546" 
d="M546 820l-231 -410h-277l230 410l-230 410h277z" />
    <glyph glyph-name="guilsinglright" unicode="&#x203a;" horiz-adv-x="546" 
d="M546 820l-231 -410h-277l230 410l-230 410h277z" />
    <glyph glyph-name="oe" horiz-adv-x="1758" 
d="M1689 0h-831v121q-139 -121 -304 -121q-179 0 -322 134q-126 120 -185 302q-47 146 -47 302q0 155 47 299q61 184 186 303q142 136 321 136q165 0 304 -121v121h831v-332h-582v-240h443v-332h-443v-240h582v-332zM858 738q0 150 -76 268q-87 138 -228 138
q-142 0 -229 -138q-76 -118 -76 -268q0 -148 76 -269q87 -137 229 -137q141 0 228 137q76 119 76 269z" />
    <glyph glyph-name="oe" unicode="&#x153;" horiz-adv-x="1758" 
d="M1689 0h-831v121q-139 -121 -304 -121q-179 0 -322 134q-126 120 -185 302q-47 146 -47 302q0 155 47 299q61 184 186 303q142 136 321 136q165 0 304 -121v121h831v-332h-582v-240h443v-332h-443v-240h582v-332zM858 738q0 150 -76 268q-87 138 -228 138
q-142 0 -229 -138q-76 -118 -76 -268q0 -148 76 -269q87 -137 229 -137q141 0 228 137q76 119 76 269z" />
    <glyph glyph-name="Ydieresis" horiz-adv-x="996" 
d="M836 1896q0 -54 -29 -101q-33 -52 -85 -52q-53 0 -87 52q-29 46 -29 101t29 102q34 52 87 52q52 0 85 -53q29 -47 29 -101zM514 1896q0 -55 -31 -101q-34 -52 -86 -52t-85 52q-29 47 -29 101t29 101q33 53 85 53q51 0 86 -53q31 -46 31 -101zM1188 1428l-967 -1835
l-223 211l387 742l-459 882l223 212l406 -773l407 773z" />
    <glyph glyph-name="Ydieresis" unicode="&#x178;" horiz-adv-x="996" 
d="M836 1896q0 -54 -29 -101q-33 -52 -85 -52q-53 0 -87 52q-29 46 -29 101t29 102q34 52 87 52q52 0 85 -53q29 -47 29 -101zM514 1896q0 -55 -31 -101q-34 -52 -86 -52t-85 52q-29 47 -29 101t29 101q33 53 85 53q51 0 86 -53q31 -46 31 -101zM1188 1428l-967 -1835
l-223 211l387 742l-459 882l223 212l406 -773l407 773z" />
    <glyph glyph-name="nonbreakingspace" unicode="&#xa0;" horiz-adv-x="692" 
 />
    <glyph glyph-name="exclamdown" unicode="&#xa1;" horiz-adv-x="430" 
d="M353 1455q0 -65 -35 -121q-41 -63 -103 -63q-63 0 -103 63q-36 55 -36 121t35 122q40 63 104 63t103 -63q35 -56 35 -122zM353 -407h-277v1514h277v-1514z" />
    <glyph glyph-name="cent" unicode="&#xa2;" horiz-adv-x="815" 
d="M776 164h-253v-164h-168v209q-156 80 -241 259q-76 162 -76 352q0 188 77 351q86 179 240 260v209h168v-164h253v-295h-245q-126 0 -204 -122q-68 -107 -68 -239q0 -135 67 -239q77 -122 205 -122h245v-295z" />
    <glyph glyph-name="yen" unicode="&#xa5;" horiz-adv-x="1112" 
d="M1188 1428l-316 -602h212v-280h-366v-104h347v-284h-347v-158h-333v158h-356v284h356v104h-356v280h209l-312 602l223 212l406 -773l407 773z" />
    <glyph glyph-name="dieresis" unicode="&#xa8;" horiz-adv-x="631" 
d="M592 1896q0 -54 -29 -101q-33 -52 -87 -52q-53 0 -86 52q-29 46 -29 101t29 101q33 53 86 53q52 0 87 -53q29 -47 29 -101zM268 1896q0 -54 -29 -101q-33 -52 -85 -52q-53 0 -87 52q-29 46 -29 101t29 102q34 52 87 52q52 0 85 -53q29 -47 29 -101z" />
    <glyph glyph-name="copyright" unicode="&#xa9;" horiz-adv-x="539" 
d="M499 307q0 -112 -58 -203q-68 -104 -173 -104q-107 0 -173 104q-57 90 -57 203t57 203q66 105 173 105q105 0 173 -105q58 -91 58 -203zM419 307q0 72 -38 133q-44 68 -113 68q-68 0 -111 -69q-37 -58 -37 -132q0 -73 37 -131q43 -67 111 -67q70 0 113 67q38 59 38 131z
M327 154h-59q-52 0 -85 52q-29 47 -29 101t29 101q33 53 85 53h59v-70q-7 0 -21.5 1t-21.5 1q-79 0 -79 -86q0 -34 18.5 -58t47.5 -27q-5 1 56 1v-69z" />
    <glyph glyph-name="guillemotleft" unicode="&#xab;" horiz-adv-x="899" 
d="M861 410h-277l-231 410l231 410h277l-230 -410zM507 410h-277l-230 410l230 410h277l-230 -410z" />
    <glyph glyph-name="minus" unicode="&#xad;" horiz-adv-x="845" 
d="M769 677h-693v287h693v-287z" />
    <glyph glyph-name="registered" unicode="&#xae;" horiz-adv-x="539" 
d="M499 307q0 -112 -58 -203q-68 -104 -173 -104q-107 0 -173 104q-57 90 -57 203t57 203q66 105 173 105q105 0 173 -105q58 -91 58 -203zM322 344q0 47 -35 47h-63v-92h63q35 0 35 45zM419 307q0 72 -38 133q-44 68 -113 68q-68 0 -111 -69q-37 -58 -37 -132
q0 -97 52 -153v305h115q40 0 66 -39q22 -34 22 -76q0 -40 -19 -72q-22 -36 -58 -43l61 -82q60 58 60 160zM310 115l-86 114v-77h-49q39 -43 93 -43q25 0 42 6z" />
    <glyph glyph-name="macron" unicode="&#xaf;" horiz-adv-x="845" 
d="M769 1353h-693v287h693v-287z" />
    <glyph glyph-name="degree" unicode="&#xb0;" horiz-adv-x="381" 
d="M343 1437q0 -74 -39 -134q-44 -69 -114 -69q-71 0 -114 69q-38 61 -38 134t38 134q43 69 114 69q70 0 115 -68q38 -62 38 -135zM265 1437q0 37 -18 66q-23 35 -57 35t-57 -35q-18 -29 -18 -66q0 -39 18 -67q21 -34 57 -34q33 0 56 35q19 29 19 66z" />
    <glyph glyph-name="plusminus" unicode="&#xb1;" horiz-adv-x="845" 
d="M769 810h-238v-318h-216v318h-239v287h239v317h216v-317h238v-287zM769 0h-693v287h693v-287z" />
    <glyph glyph-name="acute" unicode="&#xb4;" horiz-adv-x="596" 
d="M557 1743h-503l-16 102l519 205v-307z" />
    <glyph glyph-name="paragraph" unicode="&#xb6;" horiz-adv-x="1307" 
d="M1307 1271h-154v-1271h-277v1271h-122v-1271h-278v410q-151 0 -271 117q-105 103 -154 259q-36 114 -36 239q0 131 41 254q51 151 155 249q118 112 265 112h831v-369zM476 779v492q-84 0 -138 -84q-46 -73 -46 -162q0 -91 46 -162q52 -84 138 -84z" />
    <glyph glyph-name="periodcentered" unicode="&#xb7;" horiz-adv-x="353" 
d="M315 820q0 -65 -35 -121q-41 -63 -103 -63q-63 0 -103 63q-36 55 -36 121t35 122q40 63 104 63q63 0 104 -63q34 -53 34 -122z" />
    <glyph glyph-name="guillemotright" unicode="&#xbb;" horiz-adv-x="899" 
d="M899 820l-230 -410h-278l232 410l-232 410h278zM546 820l-231 -410h-277l230 410l-230 410h277z" />
    <glyph glyph-name="questiondown" unicode="&#xbf;" horiz-adv-x="1118" 
d="M863 1455q0 -65 -35 -121q-41 -63 -103 -63q-63 0 -103 63q-36 55 -36 121t35 122q40 63 104 63t103 -63q35 -56 35 -122zM1118 -38q-70 -165 -211 -265q-148 -104 -321 -104q-129 0 -247 60q-164 83 -253 242q-86 152 -86 341q0 194 86 351q89 165 258 248
q115 57 242 57v215h277v-580h-277q-82 0 -152 -46q-71 -47 -102 -120q-23 -55 -23 -119q0 -121 77 -201q76 -79 200 -79q180 0 252 155z" />
    <glyph glyph-name="Agrave" unicode="&#xc0;" horiz-adv-x="921" 
d="M566 1845l-15 -102h-504v307zM1113 -282l-259 -125l-179 653h-463l-67 -246l-258 127l411 1513h294zM587 574l-143 525l-143 -525h286z" />
    <glyph glyph-name="Aacute" unicode="&#xc1;" horiz-adv-x="921" 
d="M873 1743h-503l-15 102l518 205v-307zM1113 -282l-259 -125l-179 653h-463l-67 -246l-258 127l411 1513h294zM587 574l-143 525l-143 -525h286z" />
    <glyph glyph-name="Acircumflex" unicode="&#xc2;" horiz-adv-x="921" 
d="M769 1927l-62 -184l-247 102l-245 -102l-61 184l245 123h124zM1113 -282l-259 -125l-179 653h-463l-67 -246l-258 127l411 1513h294zM587 574l-143 525l-143 -525h286z" />
    <glyph glyph-name="Atilde" unicode="&#xc3;" horiz-adv-x="921" 
d="M807 1907q-100 -103 -230 -103q-43 0 -116 51q-73 52 -115 52q-129 0 -231 -103v246q100 102 231 102q41 0 115 -51q73 -51 116 -51q129 0 230 102v-245zM1113 -282l-259 -125l-179 653h-463l-67 -246l-258 127l411 1513h294zM587 574l-143 525l-143 -525h286z" />
    <glyph glyph-name="Adieresis" unicode="&#xc4;" horiz-adv-x="921" 
d="M738 1896q0 -54 -29 -101q-34 -52 -86 -52q-53 0 -86 52q-30 46 -30 101q0 54 30 101q35 53 86 53t86 -53q29 -47 29 -101zM415 1896q0 -55 -30 -101q-34 -52 -86 -52q-53 0 -86 52q-29 47 -29 101t29 101q35 53 86 53t86 -53q30 -47 30 -101zM1113 -282l-259 -125
l-179 653h-463l-67 -246l-258 127l411 1513h294zM587 574l-143 525l-143 -525h286z" />
    <glyph glyph-name="Aring" unicode="&#xc5;" horiz-adv-x="921" 
d="M597 1950q0 -73 -38 -134q-44 -69 -115 -69t-114 69q-38 61 -38 134q0 74 38 133q43 69 114 69t115 -68q38 -61 38 -134zM1113 -282l-259 -125l-179 653h-463l-67 -246l-258 127l411 1513h294zM520 1950q0 38 -19 66q-22 34 -57 34t-57 -34q-18 -29 -18 -66q0 -39 18 -67
q21 -34 57 -34q33 0 56 35q20 31 20 66zM587 574l-143 525l-143 -525h286z" />
    <glyph glyph-name="AE" unicode="&#xc6;" horiz-adv-x="1747" 
d="M1670 0h-634l77 -282l-259 -125l-179 653h-463l-67 -246l-258 127l411 1513h294l155 -574v574h923v-369h-646v-266h491v-369h-491v-267h646v-369zM587 574l-143 525l-143 -525h286z" />
    <glyph glyph-name="Egrave" unicode="&#xc8;" horiz-adv-x="1076" 
d="M644 1845l-15 -102h-503v307zM999 0h-923v1640h923v-369h-646v-266h492v-369h-492v-267h646v-369z" />
    <glyph glyph-name="Eacute" unicode="&#xc9;" horiz-adv-x="1076" 
d="M952 1743h-504l-15 102l519 205v-307zM999 0h-923v1640h923v-369h-646v-266h492v-369h-492v-267h646v-369z" />
    <glyph glyph-name="Ecircumflex" unicode="&#xca;" horiz-adv-x="1076" 
d="M845 1927l-61 -184l-245 102l-247 -102l-62 184l246 123h124zM999 0h-923v1640h923v-369h-646v-266h492v-369h-492v-267h646v-369z" />
    <glyph glyph-name="Edieresis" unicode="&#xcb;" horiz-adv-x="1076" 
d="M815 1896q0 -54 -29 -101q-33 -52 -86 -52t-87 52q-29 46 -29 101t29 102q34 52 87 52q51 0 86 -53q29 -47 29 -101zM491 1896q0 -54 -29 -101q-33 -52 -86 -52t-86 52q-29 46 -29 101t29 101q33 53 86 53q51 0 86 -53q29 -47 29 -101zM999 0h-923v1640h923v-369h-646
v-266h492v-369h-492v-267h646v-369z" />
    <glyph glyph-name="Igrave" unicode="&#xcc;" horiz-adv-x="430" 
d="M321 1845l-15 -102h-500v307zM353 0h-277v1640h277v-1640z" />
    <glyph glyph-name="Iacute" unicode="&#xcd;" horiz-adv-x="430" 
d="M629 1743h-503l-16 102l519 205v-307zM353 0h-277v1640h277v-1640z" />
    <glyph glyph-name="Icircumflex" unicode="&#xce;" horiz-adv-x="430" 
d="M523 1927l-63 -184l-245 102l-243 -102l-62 184l244 123h123zM353 0h-277v1640h277v-1640z" />
    <glyph glyph-name="Idieresis" unicode="&#xcf;" horiz-adv-x="430" 
d="M491 1896q0 -54 -29 -101q-33 -52 -86 -52t-86 52q-29 46 -29 101t29 101q33 53 86 53q51 0 86 -53q29 -47 29 -101zM169 1896q0 -54 -29 -101q-33 -52 -86 -52t-84 52q-29 47 -29 101t29 101q32 53 84 53q51 0 86 -53q29 -47 29 -101zM353 0h-277v1640h277v-1640z" />
    <glyph glyph-name="Ntilde" unicode="&#xd1;" 
d="M961 1907q-100 -103 -230 -103q-43 0 -116 51q-73 52 -116 52q-128 0 -231 -103v246q102 102 231 102q42 0 116 -51q73 -51 116 -51q129 0 230 102v-245zM1153 0h-277l-523 966v-966h-277v1640h277l523 -965v965h277v-1640z" />
    <glyph glyph-name="Ograve" unicode="&#xd2;" 
d="M722 1845l-16 -102h-504v307zM1229 820q0 -174 -53 -336q-68 -203 -206 -335q-158 -149 -355 -149q-198 0 -356 149q-138 132 -206 335q-53 162 -53 336t53 335q68 203 206 334q157 151 356 151q251 0 433 -240q181 -239 181 -580zM953 820q0 165 -85 298
q-98 153 -253 153q-158 0 -254 -153q-84 -132 -84 -298q0 -167 83 -298q96 -153 255 -153q156 0 254 153q84 132 84 298z" />
    <glyph glyph-name="Oacute" unicode="&#xd3;" 
d="M1028 1743h-502l-16 102l518 205v-307zM1229 820q0 -174 -53 -336q-68 -203 -206 -335q-158 -149 -355 -149q-198 0 -356 149q-138 132 -206 335q-53 162 -53 336t53 335q68 203 206 334q157 151 356 151q251 0 433 -240q181 -239 181 -580zM953 820q0 165 -85 298
q-98 153 -253 153q-158 0 -254 -153q-84 -132 -84 -298q0 -167 83 -298q96 -153 255 -153q156 0 254 153q84 132 84 298z" />
    <glyph glyph-name="Ocircumflex" unicode="&#xd4;" 
d="M923 1927l-62 -184l-246 102l-246 -102l-62 184l247 123h123zM1229 820q0 -174 -53 -336q-68 -203 -206 -335q-158 -149 -355 -149q-198 0 -356 149q-138 132 -206 335q-53 162 -53 336t53 335q68 203 206 334q157 151 356 151q251 0 433 -240q181 -239 181 -580z
M953 820q0 165 -85 298q-98 153 -253 153q-158 0 -254 -153q-84 -132 -84 -298q0 -167 83 -298q96 -153 255 -153q156 0 254 153q84 132 84 298z" />
    <glyph glyph-name="Otilde" unicode="&#xd5;" 
d="M961 1907q-100 -103 -230 -103q-43 0 -116 51q-73 52 -116 52q-128 0 -231 -103v246q102 102 231 102q42 0 116 -51q73 -51 116 -51q129 0 230 102v-245zM1229 820q0 -174 -53 -336q-68 -203 -206 -335q-158 -149 -355 -149q-198 0 -356 149q-138 132 -206 335
q-53 162 -53 336t53 335q68 203 206 334q157 151 356 151q251 0 433 -240q181 -239 181 -580zM953 820q0 165 -85 298q-98 153 -253 153q-158 0 -254 -153q-84 -132 -84 -298q0 -167 83 -298q96 -153 255 -153q156 0 254 153q84 132 84 298z" />
    <glyph glyph-name="Odieresis" unicode="&#xd6;" 
d="M892 1896q0 -55 -30 -101q-34 -52 -86 -52t-85 52q-29 47 -29 101t29 101q33 53 85 53q51 0 86 -53q30 -47 30 -101zM569 1896q0 -54 -29 -101q-34 -52 -87 -52t-86 52q-29 47 -29 101t29 101q35 53 86 53q52 0 87 -53q29 -47 29 -101zM1229 820q0 -174 -53 -336
q-68 -203 -206 -335q-158 -149 -355 -149q-198 0 -356 149q-138 132 -206 335q-53 162 -53 336t53 335q68 203 206 334q157 151 356 151q251 0 433 -240q181 -239 181 -580zM953 820q0 165 -85 298q-98 153 -253 153q-158 0 -254 -153q-84 -132 -84 -298q0 -167 83 -298
q96 -153 255 -153q156 0 254 153q84 132 84 298z" />
    <glyph glyph-name="multiply" unicode="&#xd7;" horiz-adv-x="797" 
d="M719 595l-151 -204l-171 226l-168 -226l-153 204l170 225l-170 225l153 203l168 -225l171 225l151 -203l-168 -225z" />
    <glyph glyph-name="Oslash" unicode="&#xd8;" 
d="M1229 820q0 -174 -52 -331q-67 -205 -206 -338q-157 -151 -356 -151q-181 0 -332 131l-99 -131l-184 246l98 131q-98 202 -98 443q0 174 52 330q67 205 206 338q158 152 357 152q180 0 332 -132l99 132l183 -246l-98 -131q98 -202 98 -443zM743 1236q-65 35 -128 35
q-158 0 -254 -153q-84 -132 -84 -298q0 -89 25 -170zM953 820q0 83 -26 170l-440 -587q64 -34 128 -34q156 0 254 153q84 132 84 298z" />
    <glyph glyph-name="Ugrave" unicode="&#xd9;" horiz-adv-x="1153" 
d="M683 1845l-15 -102h-504v307zM1115 718q0 -169 -54 -317q-62 -170 -182 -278q-135 -123 -302 -123t-303 122q-120 108 -182 278q-54 148 -54 318v922h277v-922q0 -127 65 -231q75 -118 197 -118q121 0 196 118q65 104 65 231v922h277v-922z" />
    <glyph glyph-name="Uacute" unicode="&#xda;" horiz-adv-x="1153" 
d="M990 1743h-503l-15 102l518 205v-307zM1115 718q0 -169 -54 -317q-62 -170 -182 -278q-135 -123 -302 -123t-303 122q-120 108 -182 278q-54 148 -54 318v922h277v-922q0 -127 65 -231q75 -118 197 -118q121 0 196 118q65 104 65 231v922h277v-922z" />
    <glyph glyph-name="Ucircumflex" unicode="&#xdb;" horiz-adv-x="1153" 
d="M884 1927l-61 -184l-246 102l-247 -102l-62 184l247 123h123zM1115 718q0 -169 -54 -317q-62 -170 -182 -278q-135 -123 -302 -123t-303 122q-120 108 -182 278q-54 148 -54 318v922h277v-922q0 -127 65 -231q75 -118 197 -118q121 0 196 118q65 104 65 231v922h277v-922
z" />
    <glyph glyph-name="Udieresis" unicode="&#xdc;" horiz-adv-x="1153" 
d="M854 1896q0 -55 -30 -101q-34 -52 -86 -52q-53 0 -86 52q-29 46 -29 101t29 101q33 53 86 53q51 0 86 -53q30 -47 30 -101zM531 1896q0 -55 -30 -101q-34 -52 -86 -52q-53 0 -87 52q-29 46 -29 101t29 102q34 52 87 52q51 0 86 -53q30 -47 30 -101zM1115 718
q0 -169 -54 -317q-62 -170 -182 -278q-135 -123 -302 -123t-303 122q-120 108 -182 278q-54 148 -54 318v922h277v-922q0 -127 65 -231q75 -118 197 -118q121 0 196 118q65 104 65 231v922h277v-922z" />
    <glyph glyph-name="Yacute" unicode="&#xdd;" horiz-adv-x="996" 
d="M911 1743h-502l-16 102l518 205v-307zM1188 1428l-967 -1835l-223 211l387 742l-459 882l223 212l406 -773l407 773z" />
    <glyph glyph-name="agrave" unicode="&#xe0;" horiz-adv-x="829" 
d="M508 1661l-14 -92h-451v276zM1002 -253l-235 -113l-159 587h-418l-60 -221l-230 115l368 1361h265zM530 517l-131 471l-129 -471h260z" />
    <glyph glyph-name="aacute" unicode="&#xe1;" horiz-adv-x="829" 
d="M786 1569h-453l-14 92l467 184v-276zM1002 -253l-235 -113l-159 587h-418l-60 -221l-230 115l368 1361h265zM530 517l-131 471l-129 -471h260z" />
    <glyph glyph-name="acircumflex" unicode="&#xe2;" horiz-adv-x="829" 
d="M692 1735l-55 -166l-222 92l-222 -92l-55 166l221 110h111zM1002 -253l-235 -113l-159 587h-418l-60 -221l-230 115l368 1361h265zM530 517l-131 471l-129 -471h260z" />
    <glyph glyph-name="atilde" unicode="&#xe3;" horiz-adv-x="829" 
d="M726 1716q-92 -92 -208 -92q-40 0 -105 46q-64 46 -103 46q-113 0 -207 -92v221q92 92 207 92q38 0 103 -46t105 -46q116 0 208 92v-221zM1002 -253l-235 -113l-159 587h-418l-60 -221l-230 115l368 1361h265zM530 517l-131 471l-129 -471h260z" />
    <glyph glyph-name="adieresis" unicode="&#xe4;" horiz-adv-x="829" 
d="M665 1706q0 -51 -27 -91q-31 -46 -78 -46q-45 0 -77 47q-27 40 -27 90q0 48 26 91q31 48 78 48q48 0 78 -47q27 -41 27 -92zM373 1706q0 -51 -27 -91q-31 -46 -78 -46q-46 0 -76 47q-26 41 -26 90q0 48 26 91q28 48 76 48t78 -47q27 -41 27 -92zM1002 -253l-235 -113
l-159 587h-418l-60 -221l-230 115l368 1361h265zM530 517l-131 471l-129 -471h260z" />
    <glyph glyph-name="aring" unicode="&#xe5;" horiz-adv-x="829" 
d="M537 1755q0 -67 -35 -120q-41 -62 -103 -62q-61 0 -102 62q-35 56 -35 120q0 65 35 120q39 62 102 62q64 0 103 -61q35 -55 35 -121zM1002 -253l-235 -113l-159 587h-418l-60 -221l-230 115l368 1361h265zM467 1755q0 90 -68 90q-32 0 -51 -31q-17 -26 -17 -59t17 -59
q19 -31 51 -31q31 0 51 30q17 28 17 60zM530 517l-131 471l-129 -471h260z" />
    <glyph glyph-name="ae" unicode="&#xe6;" horiz-adv-x="1572" 
d="M1502 0h-569l69 -253l-235 -113l-159 587h-418l-60 -221l-230 115l368 1361h265l139 -517v517h830v-332h-581v-240h443v-332h-443v-240h581v-332zM530 517l-131 471l-129 -471h260z" />
    <glyph glyph-name="egrave" unicode="&#xe8;" horiz-adv-x="968" 
d="M580 1661l-14 -92h-452v276zM899 0h-830v1476h830v-332h-581v-240h443v-332h-443v-240h581v-332z" />
    <glyph glyph-name="eacute" unicode="&#xe9;" horiz-adv-x="968" 
d="M857 1569h-453l-14 92l467 184v-276zM899 0h-830v1476h830v-332h-581v-240h443v-332h-443v-240h581v-332z" />
    <glyph glyph-name="ecircumflex" unicode="&#xea;" horiz-adv-x="968" 
d="M761 1735l-55 -166l-222 92l-222 -92l-55 166l221 110h112zM899 0h-830v1476h830v-332h-581v-240h443v-332h-443v-240h581v-332z" />
    <glyph glyph-name="edieresis" unicode="&#xeb;" horiz-adv-x="968" 
d="M734 1706q0 -50 -27 -90q-32 -47 -78 -47q-47 0 -77 47q-26 41 -26 90q0 50 26 91q30 48 77 48q48 0 78 -47q27 -42 27 -92zM442 1706q0 -50 -27 -90q-30 -47 -77 -47t-77 47q-26 41 -26 90q0 50 26 91q30 48 77 48q48 0 78 -47q26 -43 26 -92zM899 0h-830v1476h830v-332
h-581v-240h443v-332h-443v-240h581v-332z" />
    <glyph glyph-name="igrave" unicode="&#xec;" horiz-adv-x="387" 
d="M289 1661l-14 -92h-449v276zM318 0h-249v1476h249v-1476z" />
    <glyph glyph-name="iacute" unicode="&#xed;" horiz-adv-x="387" 
d="M566 1569h-452l-14 92l466 184v-276zM318 0h-249v1476h249v-1476z" />
    <glyph glyph-name="icircumflex" unicode="&#xee;" horiz-adv-x="387" 
d="M470 1735l-55 -166l-222 92l-218 -92l-56 166l219 110h111zM318 0h-249v1476h249v-1476z" />
    <glyph glyph-name="idieresis" unicode="&#xef;" horiz-adv-x="387" 
d="M442 1706q0 -50 -27 -90q-30 -47 -77 -47t-77 47q-26 41 -26 90q0 50 26 91q30 48 77 48q48 0 78 -47q26 -43 26 -92zM152 1706q0 -51 -27 -91q-31 -46 -78 -46q-46 0 -74 48q-26 41 -26 89t26 91q28 48 74 48q48 0 78 -47q27 -41 27 -92zM318 0h-249v1476h249v-1476z
" />
    <glyph glyph-name="ntilde" unicode="&#xf1;" horiz-adv-x="1107" 
d="M864 1716q-92 -92 -208 -92q-38 0 -105 46q-65 46 -103 46q-115 0 -207 -92v221q89 92 207 92q38 0 103 -46q67 -46 105 -46q116 0 208 92v-221zM1037 0h-248l-471 869v-869h-249v1476h249l471 -869v869h248v-1476z" />
    <glyph glyph-name="ograve" unicode="&#xf2;" horiz-adv-x="1107" 
d="M649 1661l-14 -92h-452v276zM1107 738q0 -162 -49 -306q-61 -180 -186 -299q-140 -133 -318 -133q-184 0 -326 138q-126 122 -185 310q-43 136 -43 290q0 153 43 288q58 186 185 310q145 140 326 140q175 0 318 -135q125 -119 186 -299q49 -143 49 -304zM858 738
q0 150 -76 268q-87 138 -228 138q-142 0 -229 -138q-76 -118 -76 -268q0 -148 76 -269q87 -137 229 -137q141 0 228 137q76 119 76 269z" />
    <glyph glyph-name="oacute" unicode="&#xf3;" horiz-adv-x="1107" 
d="M926 1569h-453l-14 92l467 184v-276zM1107 738q0 -162 -49 -306q-61 -180 -186 -299q-140 -133 -318 -133q-184 0 -326 138q-126 122 -185 310q-43 136 -43 290q0 153 43 288q58 186 185 310q145 140 326 140q175 0 318 -135q125 -119 186 -299q49 -143 49 -304zM858 738
q0 150 -76 268q-87 138 -228 138q-142 0 -229 -138q-76 -118 -76 -268q0 -148 76 -269q87 -137 229 -137q141 0 228 137q76 119 76 269z" />
    <glyph glyph-name="ocircumflex" unicode="&#xf4;" horiz-adv-x="1107" 
d="M830 1735l-55 -166l-221 92l-223 -92l-54 166l221 110h111zM1107 738q0 -162 -49 -306q-61 -180 -186 -299q-140 -133 -318 -133q-184 0 -326 138q-126 122 -185 310q-43 136 -43 290q0 153 43 288q58 186 185 310q145 140 326 140q175 0 318 -135q125 -119 186 -299
q49 -143 49 -304zM858 738q0 150 -76 268q-87 138 -228 138q-142 0 -229 -138q-76 -118 -76 -268q0 -148 76 -269q87 -137 229 -137q141 0 228 137q76 119 76 269z" />
    <glyph glyph-name="otilde" unicode="&#xf5;" horiz-adv-x="1107" 
d="M864 1716q-92 -92 -208 -92q-38 0 -105 46q-65 46 -103 46q-115 0 -207 -92v221q89 92 207 92q38 0 103 -46q67 -46 105 -46q116 0 208 92v-221zM1107 738q0 -162 -49 -306q-61 -180 -186 -299q-140 -133 -318 -133q-184 0 -326 138q-126 122 -185 310q-43 136 -43 290
q0 153 43 288q58 186 185 310q145 140 326 140q175 0 318 -135q125 -119 186 -299q49 -143 49 -304zM858 738q0 150 -76 268q-87 138 -228 138q-142 0 -229 -138q-76 -118 -76 -268q0 -148 76 -269q87 -137 229 -137q141 0 228 137q76 119 76 269z" />
    <glyph glyph-name="odieresis" unicode="&#xf6;" horiz-adv-x="1107" 
d="M803 1706q0 -50 -27 -90q-32 -47 -78 -47t-76 47q-26 41 -26 90q0 50 26 91q28 48 76 48t78 -47q27 -42 27 -92zM511 1706q0 -50 -27 -90q-30 -47 -77 -47q-45 0 -77 47q-26 41 -26 90q0 50 26 91q30 48 77 48q48 0 78 -47q26 -43 26 -92zM1107 738q0 -162 -49 -306
q-61 -180 -186 -299q-140 -133 -318 -133q-184 0 -326 138q-126 122 -185 310q-43 136 -43 290q0 153 43 288q58 186 185 310q145 140 326 140q175 0 318 -135q125 -119 186 -299q49 -143 49 -304zM858 738q0 150 -76 268q-87 138 -228 138q-142 0 -229 -138
q-76 -118 -76 -268q0 -148 76 -269q87 -137 229 -137q141 0 228 137q76 119 76 269z" />
    <glyph glyph-name="divide" unicode="&#xf7;" horiz-adv-x="845" 
d="M531 1271q0 -54 -28 -95q-31 -49 -81 -49t-81 49q-26 43 -26 95t26 95q31 48 81 48q49 0 81 -48q28 -41 28 -95zM769 677h-693v287h693v-287zM531 369q0 -54 -28 -95q-31 -49 -81 -49t-81 49q-26 43 -26 95t26 95q31 49 81 49t81 -49q28 -41 28 -95z" />
    <glyph glyph-name="oslash" unicode="&#xf8;" horiz-adv-x="1107" 
d="M1107 738q0 -159 -46 -298q-61 -184 -186 -304q-142 -136 -321 -136q-163 0 -299 119l-89 -119l-166 221l89 119q-89 181 -89 398q0 159 46 297q61 184 186 304q143 137 322 137q162 0 298 -119l89 119l166 -222l-89 -118q89 -180 89 -398zM669 1113q-55 31 -115 31
q-142 0 -229 -138q-76 -118 -76 -268q0 -81 22 -153zM858 738q0 79 -23 154l-397 -530q57 -30 116 -30q141 0 228 137q76 119 76 269z" />
    <glyph glyph-name="ugrave" unicode="&#xf9;" horiz-adv-x="1037" 
d="M615 1661l-13 -92h-454v276zM1002 646q0 -153 -49 -287q-55 -151 -163 -250q-121 -109 -272 -109q-153 0 -272 109q-108 99 -163 250q-49 134 -49 287v830h249v-830q0 -114 58 -208q67 -106 177 -106q108 0 177 106q59 95 59 208v830h248v-830z" />
    <glyph glyph-name="uacute" unicode="&#xfa;" horiz-adv-x="1037" 
d="M892 1569h-454l-14 92l468 184v-276zM1002 646q0 -153 -49 -287q-55 -151 -163 -250q-121 -109 -272 -109q-153 0 -272 109q-108 99 -163 250q-49 134 -49 287v830h249v-830q0 -114 58 -208q67 -106 177 -106q108 0 177 106q59 95 59 208v830h248v-830z" />
    <glyph glyph-name="ucircumflex" unicode="&#xfb;" horiz-adv-x="1037" 
d="M795 1735l-55 -166l-222 92l-222 -92l-55 166l221 110h112zM1002 646q0 -153 -49 -287q-55 -151 -163 -250q-121 -109 -272 -109q-153 0 -272 109q-108 99 -163 250q-49 134 -49 287v830h249v-830q0 -114 58 -208q67 -106 177 -106q108 0 177 106q59 95 59 208v830h248
v-830z" />
    <glyph glyph-name="udieresis" unicode="&#xfc;" horiz-adv-x="1037" 
d="M767 1706q0 -49 -26 -90q-29 -47 -76 -47q-46 0 -78 47q-27 40 -27 90t27 92q30 47 78 47t77 -48q25 -40 25 -91zM476 1706q0 -49 -26 -90q-30 -47 -77 -47q-46 0 -78 47q-27 40 -27 90t27 92q30 47 78 47q47 0 77 -48q26 -41 26 -91zM1002 646q0 -153 -49 -287
q-55 -151 -163 -250q-121 -109 -272 -109q-153 0 -272 109q-108 99 -163 250q-49 134 -49 287v830h249v-830q0 -114 58 -208q67 -106 177 -106q108 0 177 106q59 95 59 208v830h248v-830z" />
    <glyph glyph-name="yacute" unicode="&#xfd;" horiz-adv-x="896" 
d="M821 1569h-454l-14 92l468 184v-276zM1070 1285l-871 -1651l-201 191l349 664l-413 796l199 191l366 -695l367 695z" />
    <glyph glyph-name="ydieresis" unicode="&#xff;" horiz-adv-x="896" 
d="M754 1706q0 -51 -27 -91q-31 -46 -78 -46t-77 47q-26 41 -26 90q0 50 26 91q30 48 77 48q48 0 78 -47q27 -41 27 -92zM462 1706q0 -50 -27 -90q-30 -47 -77 -47t-77 47q-26 41 -26 90q0 50 26 91q30 48 77 48q48 0 78 -47q26 -43 26 -92zM1070 1285l-871 -1651l-201 191
l349 664l-413 796l199 191l366 -695l367 695z" />
  </font>
</defs>
</svg>
