<?xml version="1.0" standalone="no"?>
<!DOCTYPE svg PUBLIC "-//W3C//DTD SVG 1.1//EN" "http://www.w3.org/Graphics/SVG/1.1/DTD/svg11.dtd" >
<svg xmlns="http://www.w3.org/2000/svg" xmlns:xlink="http://www.w3.org/1999/xlink" version="1.1">
<metadata>
Created by FontForge 20170731 at Sun Oct 20 12:07:53 2002
 By Aleksey,,,
Copyright (c) Graham Meade, 2002. All rights reserved.
</metadata>
<defs>
<font id="MechanihanRibbon-Italic" horiz-adv-x="530" >
  <font-face 
    font-family="Mechanihan Ribbon"
    font-weight="400"
    font-style="italic"
    font-stretch="normal"
    units-per-em="1000"
    panose-1="2 0 5 6 0 0 0 2 0 3"
    ascent="800"
    descent="-200"
    x-height="375"
    cap-height="714"
    bbox="-305.667 -479.409 1006.11 983.41"
    underline-thickness="20"
    underline-position="-163"
    slope="-12"
    unicode-range="U+0020-2122"
  />
<missing-glyph horiz-adv-x="429" 
 />
    <glyph glyph-name=".notdef" horiz-adv-x="429" 
 />
    <glyph glyph-name=".null" horiz-adv-x="0" 
 />
    <glyph glyph-name="nonmarkingreturn" horiz-adv-x="429" 
 />
    <glyph glyph-name="space" unicode=" " horiz-adv-x="429" 
 />
    <glyph glyph-name="space" unicode="&#xa0;" horiz-adv-x="429" 
 />
    <glyph glyph-name="exclam" unicode="!" horiz-adv-x="110" 
d="M115 230q-1 -4 -4 -4q-6 0 -19 22q-5 10 -4 13l99 477q2 10 10 0q20 -21 17 -31zM69 5q-1 -4 -7 -3q-7 3 -17 21q-5 10 -4 14l18 84q0 4 2 4q6 0 20 -21q6 -11 5 -15z" />
    <glyph glyph-name="quotedbl" unicode="&#x22;" horiz-adv-x="204" 
d="M280 540q-1 -6 -7 -3q-5 3 -16 21q-6 9 -5 13l35 167q2 10 10 0q20 -21 17 -31zM180 540q-1 -6 -7 -3q-5 3 -16 21q-6 9 -5 13l35 167q2 10 10 0q20 -21 17 -31z" />
    <glyph glyph-name="numbersign" unicode="#" horiz-adv-x="372" 
d="M406 232q-2 -4 -5 -5q-23 4 -46.5 6.5t-46.5 4.5q-4 -25 -5.5 -48t-1.5 -45q-2 -2 -6 -3q-8 4 -18 21q-6 12 0 77q-20 1 -41 0.5t-41 -1.5q-7 -26 -15 -50t-17 -46q-2 -5 -4 -1q-3 2 -7 6.5t-8 10t-6 11t0 8.5q5 15 10.5 29.5t10.5 28.5q-39 -3 -67 -9q-11 -2 -21 29
q-2 2 0 5v4q46 9 99 12q5 19 9 37.5t8 37.5q-17 2 -34.5 4t-34.5 6q-7 2 -17 20q-2 4 -3 7.5t-2 5.5q0 3 5 5q22 -4 44.5 -6.5t46.5 -4.5q6 46 9 93q0 3 5 3q8 -5 17 -20q7 -11 0 -78q20 -1 41 -0.5t42 2.5q7 23 15 47t17 48l2 2q2 0 9 -7q20 -21 15 -29q-3 -8 -8 -23
t-12 -35q17 2 33 4t33 4q8 2 21 -29q-2 -2 0 -4v-5q-26 -4 -50.5 -6.5t-48.5 -4.5q-10 -38 -18 -77q36 -3 70 -9q6 -2 16 -20q4 -6 6 -13zM282 277q2 17 5.5 35t8.5 37q-20 -1 -39.5 -0.5t-38.5 1.5q-4 -35 -12 -71q19 0 38 -0.5t38 -1.5z" />
    <glyph glyph-name="dollar" unicode="$" horiz-adv-x="491" 
d="M522 235q-9 -43 -43 -82t-79 -61q-26 -14 -54 -21l-20 -96q-1 -4 -3 -4q-8 0 -20 21q-5 9 -4 15l11 55q-42 -8 -80 -5l-17 -82q-1 -4 -3 -4q-8 0 -20 21q-5 9 -4 15l11 54q-113 23 -143 120q-1 3 -1 7q0 3 2 3q4 0 11 -10l15 -25l1 -2l1 -3l-2 -1q47 -47 123 -55l50 240
q-74 3 -107 41q-43 48 -35 89q23 116 148 163q17 7 31.5 11t27.5 6l19 92q2 5 4 5q5 0 18 -22q6 -11 5 -15l-11 -54q43 6 80 5l17 81q2 5 4 5q5 0 18 -22q6 -11 5 -15l-11 -53q42 -8 64 -33q39 -42 32 -78q-3 -14 -10 -23l-3 2q-3 0 -5 1q-23 24 -17 33q14 20 9 35
q-4 9 -34 19q-25 7 -43 9l-50 -241q72 -13 102 -68q18 -34 10 -73zM376 379l50 238q-21 -2 -41.5 -4.5t-40.5 -6.5l-47 -230q58 3 79 3zM496 266q5 28 -1 42q-25 23 -93 31l-45 -218q50 21 87 58q41 41 52 87zM262 374l47 223q-149 -44 -169 -163q-4 -16 2 -29
q31 -33 120 -31zM320 108l48 231q-13 -1 -33 -2t-47 -2l-50 -241q40 1 82 14z" />
    <glyph glyph-name="percent" unicode="%" horiz-adv-x="645" 
d="M393 532q-10 -52 -50 -96q-43 -49 -93 -49q-67 0 -98 70q-24 53 -12 107q12 52 50 96q43 49 93 49q66 0 97 -70q24 -52 13 -107zM647 670l-479 -673l-4 2q0 -1 -1 -2q-27 27 -21 36l479 673l5 -2q-1 0 1 2q27 -27 20 -36zM650 139q-11 -54 -50 -96q-43 -49 -93 -49
q-64 0 -98 72q-24 52 -12 105q12 52 50 96q43 49 93 49q67 0 98 -70q24 -53 12 -107zM366 564q10 47 -2 72q-14 29 -59 33q-49 0 -91 -45q-36 -39 -47 -92q-20 -105 61 -105q52 0 99 56q30 37 39 81zM623 171q22 105 -61 105q-50 0 -90 -45q-37 -40 -48 -92
q-20 -105 62 -105q55 0 99 56q27 33 38 81z" />
    <glyph glyph-name="ampersand" unicode="&#x26;" horiz-adv-x="505" 
d="M557 367q-13 -20 -30 -41t-39 -41q35 -59 23 -115q-15 -69 -80 -116q-60 -44 -133 -51q-11 -1 -20.5 -1.5t-19.5 -0.5q-125 0 -173 89q-32 61 -12 156q17 81 67 142q56 66 134 90q-59 48 -42 119q6 27 20.5 48.5t35 37t46 23.5t52.5 8q63 0 102 -43q39 -42 26 -105
q-11 -56 -60 -87q-44 -29 -101 -29q-71 -1 -139 -51q-66 -50 -95 -122q-23 -57 -26 -115q-3 -75 32 -96q47 -28 114 -28q86 0 153 43q76 46 93 129q7 37 -6 66q-82 -72 -191 -107q-9 -3 -22 30l-2 5q-1 1 2 2v2q108 35 190 108q3 3 5 4q42 37 70 83l4 -2q1 0 3 -2
q24 -22 19 -32zM487 597q11 51 -19 65q-44 20 -95 10q-42 -8 -74 -36t-40 -70q-14 -77 75 -77h7q26 0 50 7.5t43.5 21t33 33.5t19.5 46z" />
    <glyph glyph-name="quotesingle" unicode="'" horiz-adv-x="101" 
d="M176 540q-1 -6 -7 -3q-5 3 -16 21q-6 9 -5 13l35 167q2 10 10 0q20 -21 17 -31z" />
    <glyph glyph-name="parenleft" unicode="(" horiz-adv-x="257" 
d="M223 -136q0 -3 -5 -5q-71 10 -123 99q-61 104 -19 311l42 199q22 106 48 168q33 79 90 138q68 69 142 80q9 1 21 -30q-2 -2 0 -4v-5q-60 -9 -124 -65q-104 -94 -143 -279l-38 -187q-15 -72 -23 -118t-9 -66q-6 -183 119 -203q12 -2 22 -33z" />
    <glyph glyph-name="parenright" unicode=")" horiz-adv-x="258" 
d="M286 244q-23 -107 -48 -168q-38 -89 -103 -150q-61 -56 -129 -67q-8 -2 -20 29q2 2 0 4v5q59 9 123 65q104 94 143 279l38 187q15 72 23 118t9 66q6 183 -119 203q-6 1 -13.5 13t-8.5 20q0 3 5 5q70 -11 123 -99q61 -104 19 -311z" />
    <glyph glyph-name="asterisk" unicode="*" horiz-adv-x="415" 
d="M486 420q-10 -25 -36 -25q-9 0 -17 5q-33 24 -30 55l-75 49l-23 -114q24 -28 19 -48q-9 -32 -39 -32q-18 0 -38 32q-11 20 -8 32q7 28 35 31l17 83l-97 -50q3 -26 -22 -39q-7 -4 -15 -4q-21 0 -40 31q-10 16 -6 35q6 28 36 28q14 0 25 -12l110 56l-63 42q-13 -13 -29 -13
q-27 0 -42 41q-7 16 -1 28q11 26 35 26q27 0 44 -41q5 -12 3 -20l74 -49l24 115q-2 3 -5 7t-6 9q-11 20 -7 31q11 32 39 32q19 0 37 -32q12 -20 8 -32q-7 -28 -35 -31l-17 -83l98 50q-2 7 0 15q3 12 14 20.5t23 8.5q20 0 38 -32q11 -19 8 -33q-4 -15 -21 -26q-8 -4 -16 -4
q-15 0 -25 12l-111 -56l64 -42q13 13 28 13q10 0 18 -5l2 -2q13 -11 21 -27q10 -19 4 -35z" />
    <glyph glyph-name="plus" unicode="+" horiz-adv-x="378" 
d="M440 311q0 -3 -3 -3h-167l-34 -163q-1 -4 -3 -4q-8 0 -21 21q-5 9 -4 14l28 132h-138q-9 0 -21 26l-3 10q0 3 3 3h167l34 164q2 5 4 5q5 0 18 -22q6 -11 5 -15l-27 -132h138q13 0 24 -36z" />
    <glyph glyph-name="comma" unicode="," horiz-adv-x="132" 
d="M120 28q-17 -83 -86 -141q-4 -4 -18 14q-9 14 -8 20q0 1 2 3q37 31 61 76q-10 4 -25 25q-13 21 -9 34q8 32 37 32q19 0 39 -32q10 -17 7 -31z" />
    <glyph glyph-name="hyphen" unicode="-" horiz-adv-x="361" 
d="M389 313q-2 -2 -4 -2h-254q-9 0 -21 22l-3 9q-2 3 2 3h255q9 0 20 -23q4 -4 5 -9z" />
    <glyph glyph-name="hyphen" unicode="&#x2010;" horiz-adv-x="361" 
d="M389 313q-2 -2 -4 -2h-254q-9 0 -21 22l-3 9q-2 3 2 3h255q9 0 20 -23q4 -4 5 -9z" />
    <glyph glyph-name="period" unicode="." horiz-adv-x="134" 
d="M117 30q-9 -31 -38 -31q-20 0 -38 31q-12 18 -8 30q7 31 37 31q20 0 39 -31q11 -19 8 -30z" />
    <glyph glyph-name="slash" unicode="/" horiz-adv-x="381" 
d="M502 675l-451 -674l-4 2q-1 0 -3 2q-24 24 -19 32l451 674l5 -2q1 0 3 -2q24 -24 18 -32z" />
    <glyph glyph-name="zero" unicode="0" horiz-adv-x="507" 
d="M552 341q-20 -98 -72 -185q-63 -105 -146 -140q-34 -14 -65 -14q-56 0 -99 43q-39 38 -58 91q-39 105 -11 236q5 22 10.5 42t12.5 40q67 188 196 244q34 15 65 15q79 0 129 -80q75 -119 38 -292zM525 373q32 154 -17 244q-30 57 -102 57q-30 0 -54 -10
q-129 -53 -196 -231q-9 -23 -16.5 -47.5t-12.5 -50.5q-30 -147 19 -238q29 -56 99 -56q57 0 112 41q127 99 168 291z" />
    <glyph glyph-name="one" unicode="1" horiz-adv-x="216" 
d="M180 5q-2 -7 -7 -3q-3 2 -7.5 7t-9.5 13q-5 9 -4 14l121 583q-59 -68 -132 -112q-6 -5 -18 15q-10 19 -5 22q95 55 175 168q2 2 4 1l2 -1q23 -20 20 -34z" />
    <glyph glyph-name="two" unicode="2" horiz-adv-x="508" 
d="M488 1l-2 -2q-3 0 -16 15l2 1q-1 -1 -3 -1v1q-27 24 -113 24q-44 0 -116 -9q-51 -6 -95.5 -13.5t-83.5 -15.5q-7 -1 -16 13q-9 15 -8 22q23 106 76 181q65 92 158 123q11 4 28.5 7.5t40.5 8.5q48 9 72 18q96 37 133 106q16 28 18 60q1 20 -1 37.5t-7 32.5q-20 65 -129 65
q-81 0 -152 -44q-76 -46 -106 -123q0 -2 -2 -2t-9 7q-18 21 -15 30q32 80 107 127q70 45 154 45q154 0 183 -149q10 -53 0 -87q-17 -60 -79 -104q-56 -41 -120 -54q-10 -2 -28 -5t-46 -8q-86 -18 -153 -99q-56 -69 -85 -162q157 30 254 30q106 0 139 -37q23 -26 20 -39z" />
    <glyph glyph-name="three" unicode="3" horiz-adv-x="527" 
d="M547 204q-6 -32 -22 -63q-68 -141 -271 -141q-119 0 -169 59q-41 50 -33 89q4 2 5 3q4 -2 5 -3q19 -21 18 -31q-4 -15 2 -32l2 -2q4 -7 15 -13q45 -27 121 -30q116 -4 193 40q90 52 108 170q10 61 -7.5 91.5t-73.5 44.5q-26 7 -51.5 8.5t-49.5 -0.5q-8 -2 -22 32l-4 6
q22 3 43 9q148 42 163 134q7 43 -3 66q-5 14 -35 24q-25 7 -47 9q-63 3 -96 -7q-113 -31 -142 -157q-1 -4 -3 -4q-8 0 -21 21q-5 9 -3 14q27 123 130 159q44 16 89 16q80 0 126 -49q48 -50 32 -127q-17 -76 -114 -119q33 -12 58.5 -33t40.5 -49.5t19.5 -63t-3.5 -71.5z" />
    <glyph glyph-name="four" unicode="4" horiz-adv-x="498" 
d="M542 233q0 -2 -4 -3l-6 4l-2 3q-2 -8 -12 0q-13 9 -21 11q-22 4 -52 6t-68 1l-52 -250q-2 -10 -10 0q-19 21 -18 31l45 217q-63 -2 -126.5 -8t-129.5 -15q-8 -2 -18 15q-11 16 -4 23q48 49 120 138q66 84 115.5 159.5t81.5 145.5q2 2 3 2q3 0 9 -7q19 -21 15 -30
q-88 -189 -277 -399q60 7 114 10.5t105 5.5l29 136q1 4 3 4q6 0 21 -22q5 -8 3 -13l-21 -104q124 0 153 -47q5 -10 4 -14z" />
    <glyph glyph-name="five" unicode="5" 
d="M551 204q-6 -32 -22 -63q-68 -141 -271 -141q-119 0 -169 59q-41 50 -33 89q4 2 5 3q4 -2 5 -3q14 -17 15 -29q1 -11 2 -17.5t2 -8.5l2 -5q-1 -1 1 -5q34 -39 129 -43q112 -6 188 33q90 47 116 155q9 36 9.5 62t-8.5 45t-29 31t-51 20q-26 7 -50.5 8.5t-47.5 -0.5
q-36 -4 -60 -7t-37 -6q-58 -12 -94 -43q-4 -4 -17 13q-11 18 -9 24q14 35 26 73t20 79q16 82 24 182q1 2 6 4q81 -19 148 -28.5t123 -9.5q115 0 149 37q2 2 5 0q24 -19 22 -31q-1 -2 -1 -3t-1 -2q-36 -40 -128 -40q-3 0 -15 0.5t-32 1.5q-118 6 -250 36q1 -3 1 -13
q-3 -40 -7.5 -74.5t-11.5 -64.5q-7 -32 -14 -61t-15 -57q66 30 171 30q126 0 179 -81q43 -64 25 -149z" />
    <glyph glyph-name="six" unicode="6" horiz-adv-x="544" 
d="M566 204q-21 -102 -101 -156q-71 -48 -175 -48q-35 0 -66 6q-107 20 -137 123q-4 15 -5 35t1 46q11 110 37 205q46 165 154 244q70 52 154 52q87 0 152 -56q13 -14 18 -30q2 -5 1 -6l-2 -2q-3 0 -6 3q-61 53 -145 53q-107 0 -192 -91q-26 -28 -47 -58t-35 -64
q-21 -50 -39 -135q-6 -30 -12 -77q-4 -27 -6.5 -46t-4.5 -30q-23 -125 132 -132q116 -6 193 41q89 54 105 169q10 62 -7.5 92t-73.5 44q-36 9 -101 8q-43 0 -84 -35q-35 -30 -57 -76l-2 -2q-3 2 -8 8q-20 22 -15 30q30 66 74.5 92t110.5 23q102 -5 156 -67q54 -63 33 -163z
" />
    <glyph glyph-name="seven" unicode="7" horiz-adv-x="475" 
d="M607 676l-349 -495q-26 -36 -40.5 -57t-18.5 -28q-29 -50 -38 -91q-2 -8 -11 0q-19 22 -17 31q16 76 82 159q22 27 44.5 57.5t46.5 65.5q11 17 32.5 48.5t53.5 77.5l154 219q-146 -27 -235 -27q-120 0 -151 63q-5 9 -3 14q0 2 1 2q2 0 16 -14l-1 -2q1 1 2 1
q27 -24 113 -24q24 0 53 2t64 6q48 5 92 12.5t86 16.5q6 2 17 -15t7 -22z" />
    <glyph glyph-name="eight" unicode="8" horiz-adv-x="529" 
d="M548 201q-18 -86 -102 -145q-77 -55 -167 -55q-127 0 -187 102q-36 61 -21 134q14 66 68 116q49 46 119 67q-83 56 -63 152q15 68 78 107q56 35 126 35q77 0 127 -50t35 -126q-18 -92 -117 -129q55 -31 85 -85q33 -58 19 -123zM534 569q22 106 -116 106q-69 0 -122 -34
q-60 -37 -74 -103q-19 -100 106 -105h24q60 1 113 37q55 37 69 99zM521 233q18 85 -42 126q-42 30 -105 35q-8 -1 -15.5 -1.5t-15.5 0.5q-83 -5 -155 -57q-77 -56 -93 -135q-15 -78 36 -122q45 -39 126 -39q88 0 164 52q80 55 100 141z" />
    <glyph glyph-name="nine" unicode="9" horiz-adv-x="544" 
d="M572 299q-45 -164 -154 -243q-73 -53 -155 -53q-86 0 -151 56q-14 13 -19 30q-1 3 -1 6l3 3q1 -1 2 -1.5t3 -2.5q59 -52 145 -52q106 0 193 90q52 55 82 123q21 51 39 135q2 14 5 32.5t6 43.5q4 27 6.5 46t4.5 30q23 125 -131 132q-118 5 -193 -41q-88 -54 -106 -168
q-10 -62 8 -92t74 -44q38 -11 100 -9q43 0 84 35q36 30 57 76q2 2 3 2q4 0 8 -7q19 -23 15 -30q-48 -103 -136 -113q-25 -3 -49 -2q-99 4 -155 66q-55 62 -34 163q21 102 100 156q71 49 176 49q165 0 202 -130q9 -29 4 -81q-9 -104 -36 -205z" />
    <glyph glyph-name="colon" unicode=":" horiz-adv-x="142" 
d="M168 254q-9 -32 -37 -32q-19 0 -39 32q-11 19 -7 31q8 32 37 32q19 0 39 -32q11 -20 7 -31zM122 31q-11 -32 -38 -32q-20 0 -38 32q-11 20 -7 32q8 32 37 32q20 0 38 -33q11 -20 8 -31z" />
    <glyph glyph-name="semicolon" unicode=";" horiz-adv-x="137" 
d="M169 253q-8 -32 -38 -32q-20 0 -38 33q-11 21 -7 31q9 32 37 32q19 0 39 -32q11 -20 7 -32zM123 30q-6 -30 -34 -81q-33 -62 -55 -62q-6 0 -16 15q-9 14 -8 20q1 1 1 2l1 1q37 31 61 76q-12 5 -26 26q-12 22 -8 35q11 32 38 32q18 0 38 -33q10 -16 8 -31z" />
    <glyph glyph-name="less" unicode="&#x3c;" horiz-adv-x="376" 
d="M379 172q-1 -4 -5 -2q-60 37 -111.5 65t-96.5 47q-44 20 -73 27q-5 0 -17 20q-2 4 -2.5 7.5t-1.5 6.5l90 32q101 35 251 111q10 4 23 -28q1 -7 0 -10q-82 -42 -155 -72.5t-138 -52.5q51 -22 104.5 -51t110.5 -64q7 -4 15 -16t6 -20z" />
    <glyph glyph-name="equal" unicode="=" horiz-adv-x="405" 
d="M449 375q-44 -7 -85 -10t-81 -3q-82 0 -147 13q-8 3 -19 23q-1 2 -1.5 5t-1.5 5q2 4 5 5q64 -13 144 -13q40 0 81 3t84 10q9 2 21 -29q0 -3 1 -4zM425 247l-5 -5q-41 7 -80.5 10t-78.5 3q-38 0 -75 -3t-75 -10q-5 -1 -15 13q-8 14 -6 20v5q68 13 150 13q40 0 80.5 -3
t82.5 -10q7 -2 17 -20q2 -4 3 -7.5t2 -5.5z" />
    <glyph glyph-name="greater" unicode="&#x3e;" horiz-adv-x="372" 
d="M436 313l-91 -33q-57 -20 -119 -47.5t-131 -62.5q-10 -4 -23 28q-3 6 0 10q82 42 155 72.5t138 52.5q-54 23 -107.5 51.5t-108.5 63.5q-7 4 -14.5 16.5t-6.5 19.5q2 3 6 2q57 -36 108.5 -64t98.5 -48q46 -19 74 -27q5 0 16 -20q2 -5 3 -8.5t2 -5.5z" />
    <glyph glyph-name="question" unicode="?" horiz-adv-x="399" 
d="M494 508q-14 -65 -55 -114q-47 -57 -108 -61q-26 -2 -30 -3q-20 -3 -28 -10q-18 -15 -25 -35q-11 -30 -11 -61q-2 -2 -6 -3q-4 4 -16 21q-5 8 -5 12q-2 45 16 76q14 26 35 33q15 5 43 8q31 5 44 10q83 33 115 141q32 111 -43 136q-36 13 -82 13q-59 0 -107 -23
q-58 -29 -68 -84q-3 -15 -3 -31q-2 -2 -5 -3q-29 17 -19 64q16 82 108 108q20 5 43.5 7t52.5 0q100 -6 141 -83q27 -50 13 -118zM190 -1q-1 -5 -5 -3q-8 4 -18 21q-4 7 -3 14l17 84q1 4 3 4q8 0 20 -21q5 -10 4 -15z" />
    <glyph glyph-name="at" unicode="@" horiz-adv-x="539" 
d="M541 144q-26 -56 -100 -86q-62 -26 -129 -27q-128 -5 -189 69q-62 74 -36 199q22 109 94 176q76 70 185 70q129 0 182 -111q28 -62 15 -129q-13 -65 -56 -108q-43 -44 -110 -55q-5 -1 -13 13l-1 1q-11 15 -10 21l6 26q-70 -61 -115 -61q-10 0 -17 3q-62 26 -49 130
q8 67 18 89q15 33 50 51q32 17 67 17q48 0 86 -36l7 33q1 7 10 0q20 -20 17 -31l-43 -209q102 35 126 149q18 90 -25 127q-46 41 -124 41q-119 0 -196 -83q-52 -58 -71 -130q-40 -156 36 -199q49 -28 127 -25q72 3 129 25q75 28 103 85l2 2q4 0 10 -7q18 -23 14 -30z
M396 284l18 90q-15 11 -30 16q-32 9 -72 -3q-44 -14 -62 -43q-12 -19 -21 -74q-10 -54 -4 -84q10 -10 38 -2q74 23 133 100z" />
    <glyph glyph-name="A" unicode="A" horiz-adv-x="515" 
d="M503 2q-2 -3 -3 -3q-4 0 -11 9q-11 14 -14 25q-28 115 -48 277h-198q-48 -90 -92.5 -166.5t-87.5 -140.5l-3 2q-2 0 -4 2q-24 23 -18 32q42 64 86 139.5t92 163.5l-1 2q-2 5 3 5h1q53 98 98.5 188t85.5 174l1 1q0 1 1 2h3q12 -3 23 -35v1q5 -81 13 -169.5t19 -185.5
q1 -2 2 -5t3 -7l-3 -3q23 -180 51 -302q1 -3 1 -6zM422 349q-8 72 -15.5 142.5t-12.5 141.5q-32 -66 -67.5 -136.5t-76.5 -147.5h172z" />
    <glyph glyph-name="B" unicode="B" horiz-adv-x="512" 
d="M519 150q-41 -119 -161 -141q-48 -9 -86 -9q-77 0 -118 50q-27 35 -26 70q1 1 6 3q21 -14 21 -33q1 -51 97 -51q183 0 234 126q8 20 13.5 38t9.5 34q20 97 -41 131q-46 26 -96 26q-10 0 -20 30l-3 4q4 2 2 0l1 5q36 9 71 35t52 59q12 22 18 51q12 59 -8 76l-3 3
q-13 11 -39 16q-6 1 -30 1.5t-67 0.5h-138q-9 -76 -22 -155t-30 -163q-37 -175 -87 -352q-3 -8 -11 1q-20 21 -17 31q51 177 87 351q17 85 30.5 164.5t22.5 157.5v1q1 3 3 3h182q68 0 89 -12q40 -22 57 -66t7 -95q-17 -78 -91 -123q137 -59 104 -218q-2 -12 -5.5 -24.5
t-7.5 -25.5z" />
    <glyph glyph-name="C" unicode="C" horiz-adv-x="567" 
d="M661 563q-2 -9 -15 9q-9 13 -13 23v2q-3 9 -17 23q-52 55 -151 55q-115 0 -201 -61q-60 -42 -88 -103q-16 -34 -36 -136q-11 -57 -16.5 -101.5t-6.5 -78.5q-5 -132 49 -149q19 -6 43 -6q29 0 81 11q182 41 263 156l3 -2q-1 1 2 2l3 -3q24 -23 17 -33q-60 -85 -183 -133
q-99 -38 -163 -38q-193 0 -121 390q10 51 17 83.5t12 48.5q32 92 125 145q85 47 182 47q78 0 135 -37.5t78 -106.5q1 -3 1 -7z" />
    <glyph glyph-name="D" unicode="D" horiz-adv-x="525" 
d="M589 462q-2 -5 -9 -36q-1 -4 -1.5 -8t-1.5 -8l-40 -191q-20 -90 -52 -136q-44 -59 -127 -74q-50 -9 -86 -9q-77 0 -118 50q-27 35 -26 70q1 1 6 3q8 -5 17 -20q1 -5 6 -24q1 -11 8 -16q34 -26 116 -22q127 7 178 78q33 45 52 138l35 168q2 8 4.5 20t6.5 29t7 30t5 22
q19 102 -33 129q-34 18 -83 21q6 -1 -17 -1h-73h-155q-9 -76 -22 -155t-30 -163q-37 -175 -87 -352q-3 -8 -11 1q-20 21 -17 31q51 177 87 351q17 85 30.5 164.5t22.5 157.5v1q1 3 3 3h226q57 0 84 -10q46 -16 75.5 -53t31.5 -85q2 -38 -12 -104z" />
    <glyph glyph-name="E" unicode="E" horiz-adv-x="467" 
d="M466 7q-2 -3 -5 -5q-42 7 -87 10t-94 3t-102 -3.5t-111 -10.5q-7 0 -14 13q-11 16 -10 23q46 162 84 335l-1 1q0 1 2 3q19 91 32.5 173.5t22.5 160.5q1 4 5 4q55 -7 106 -10.5t100 -3.5q48 0 94.5 3.5t93.5 10.5q7 1 21 -30q-2 -2 0 -4v-5q-45 -7 -91.5 -10.5t-97.5 -3.5
q-49 0 -99.5 3.5t-104.5 10.5q-17 -145 -48 -298h237q9 0 20 -26l3 -10q1 -3 -2 -3h-266q-16 -71 -34 -144t-39 -150q48 5 93 7.5t87 2.5q49 0 94.5 -3.5t88.5 -10.5q10 -1 22 -33z" />
    <glyph glyph-name="F" unicode="F" horiz-adv-x="461" 
d="M601 675q-45 -7 -91.5 -10.5t-97.5 -3.5q-49 0 -99.5 3.5t-104.5 10.5q-17 -145 -48 -298h237q9 0 20 -26l3 -10q1 -3 -2 -3h-266q-18 -85 -39 -168t-44 -165q-3 -8 -11 1q-20 21 -17 31q49 168 84 335l-1 1q0 1 2 3q19 91 32.5 173.5t22.5 160.5q1 4 5 4
q55 -7 106.5 -10.5t100.5 -3.5q48 0 94 3.5t93 10.5q7 1 21 -30q-2 -2 0 -4v-5z" />
    <glyph glyph-name="G" unicode="G" horiz-adv-x="550" 
d="M533 27q-5 -26 -11 -46.5t-12 -37.5q-47 -131 -131 -238q-90 -114 -208 -184q-6 -3 -18 16q-10 19 -5 22q135 80 230 214q95 133 125 277l25 122q-50 -52 -119 -96q-106 -67 -185 -75q-69 -7 -110 46q-34 43 -40 115q-8 90 27 264q20 100 37 130q35 65 95 101
q91 58 188 58q118 0 211 -125q8 -8 12 -23q-2 -3 -5 -3q-4 2 -8 7h-1l-3 4q-18 23 -44 44q-68 56 -140 56q-85 0 -163 -42q-87 -47 -121 -123q-16 -33 -35 -136q-11 -56 -16.5 -101t-6.5 -80q-6 -131 49 -149q16 -6 35 -6q36 0 90 20q177 68 272 203l16 76h-195q-9 0 -21 26
l-3 10q1 3 3 3h227q3 0 7.5 -4t8.5 -10t6 -12t1 -9l-30 -145q-3 -14 -7 -35t-9 -49q-9 -46 -18 -85z" />
    <glyph glyph-name="H" unicode="H" 
d="M495 5l-2 -2q0 -2 -2 -2q-8 0 -12 10l-2 4q-5 6 -10 21q11 79 23 154t26 148h-362q-11 -52 -20.5 -93.5t-17.5 -73.5q-11 -48 -23 -90t-23 -77q-2 -3 -3 -3q-6 0 -14 14q-12 14 -10 22v1q13 58 42 167t42 167l-1 1q0 1 2 3q19 91 32.5 173.5t22.5 160.5v1q1 3 3 3
q6 0 12 -10l2 -4q7 -9 11 -21q-8 -73 -20.5 -148t-28.5 -154h362q23 111 43.5 194t39.5 140q1 3 3 3q6 0 14 -14q12 -14 10 -22h-1q-23 -80 -43.5 -163.5t-38.5 -171.5v-1q0 -2 -1 -3q-17 -81 -30.5 -163.5t-24.5 -170.5z" />
    <glyph glyph-name="I" unicode="I" horiz-adv-x="114" 
d="M71 5q-1 -4 -7 -3q-7 3 -17 21q-5 10 -4 14l140 673q1 4 3 4q6 0 20 -21q6 -11 5 -14z" />
    <glyph glyph-name="J" unicode="J" horiz-adv-x="486" 
d="M519 296q-17 -85 -117 -173q-59 -52 -115 -84q-76 -43 -128 -37q-117 14 -118 198q2 2 5 2q7 -4 18 -20q2 -4 3 -7l2 -6q-1 -47 5 -71q13 -57 76 -57q35 0 71 16q145 61 233 188q14 20 26.5 53.5t22.5 81.5l68 330q1 4 3 4q6 0 20 -21q6 -11 5 -14z" />
    <glyph glyph-name="K" unicode="K" horiz-adv-x="548" 
d="M521 2q-6 -5 -18 15l-198 315q-49 -45 -95.5 -84t-91.5 -71q-2 -2 -4 0q-15 -58 -26 -101t-19 -71q-3 -8 -11 1q-20 21 -17 31q51 177 87 351q17 85 30.5 164.5t22.5 157.5q1 1 6 3q4 -3 8 -8t9 -13q7 -8 5 -13q-10 -75 -23.5 -155.5t-31.5 -168.5q-11 -56 -24 -114
q37 29 74.5 61.5t77.5 69.5q2 4 6 5q64 61 150 150q51 54 93.5 100t76.5 86q3 1 5 -1q24 -21 22 -32q-1 -1 -1 -2t-1 -2q-75 -88 -155 -171t-165 -164l201 -316q1 -2 2.5 -4t3.5 -6q5 -11 1 -13z" />
    <glyph glyph-name="L" unicode="L" horiz-adv-x="465" 
d="M466 7q-2 -3 -5 -5q-42 7 -87 10t-94 3t-102 -3.5t-111 -10.5q-7 0 -14 13q-11 16 -10 23q46 162 84 335l-1 1q0 1 2 3q19 91 32.5 173.5t22.5 160.5v1q1 3 3 3q6 0 12 -10l2 -4q7 -9 11 -21q-9 -78 -22.5 -157.5t-30.5 -164.5q-16 -75 -35 -153t-42 -160q48 5 93 7.5
t87 2.5q49 0 94.5 -3.5t88.5 -10.5q10 -1 22 -33z" />
    <glyph glyph-name="M" unicode="M" horiz-adv-x="654" 
d="M620 5l-2 -2q0 -2 -2 -2q-8 0 -12 10l-2 4q-5 6 -10 21q12 93 27 180t32 172q12 57 25 111.5t27 108.5q-87 -108 -164 -209.5t-146 -198.5q0 -2 -2 -2q-8 0 -12 9l-3 4q0 2 -5.5 9t-4.5 12q-60 201 -159 422q-23 -181 -54 -335q-17 -84 -38 -162t-45 -153q-2 -3 -3 -3
q-6 0 -14 14q-12 14 -10 22v1q7 29 17.5 73t26.5 104t26.5 104t16.5 73q17 83 30 162t23 156q0 4 3 4h3q19 -15 21 -32q54 -115 95.5 -222t73.5 -208q78 109 166.5 223.5t188.5 239.5l3 -2h-1q14 -6 23 -28q1 -3 0 -7q-47 -153 -81 -321q-17 -85 -32 -172t-26 -180z" />
    <glyph glyph-name="N" unicode="N" 
d="M495 5l-4 -4q-8 0 -12 10l-2 4q-5 6 -10 21q6 66 -48 204q-35 91 -87.5 196t-123.5 226q-11 -92 -24.5 -177t-30.5 -165q-34 -165 -83 -316q-2 -3 -3 -3q-6 0 -14 14q-12 14 -10 22v1q7 29 17.5 73t26.5 104t26.5 104t16.5 73q17 84 30.5 162.5t22.5 153.5q-2 3 2 5
l-1 -1q1 1 3 1q14 0 22 -27q103 -171 170 -312t99 -254q14 90 26.5 165t25.5 136q17 80 36 152t41 138q1 3 3 3q6 0 14 -14q12 -14 10 -22h-1q-47 -162 -81 -328q-35 -167 -57 -345z" />
    <glyph glyph-name="O" unicode="O" horiz-adv-x="565" 
d="M608 335q-24 -117 -83 -200q-74 -102 -180 -126q-37 -8 -61 -8q-92 0 -146 88q-71 116 -36 284q28 138 104 230q90 110 218 110q71 0 114 -43q116 -113 70 -335zM585 388q37 214 -65 269q-33 18 -76 18q-95 0 -171 -66q-107 -94 -143 -267q-46 -226 61 -284
q33 -18 77 -18q98 0 178 74q109 100 139 274z" />
    <glyph glyph-name="P" unicode="P" horiz-adv-x="507" 
d="M589 432q-19 -57 -58 -85q-35 -24 -97 -32q-29 -4 -49 -5.5t-33 -1.5q-80 0 -122 51q-27 34 -25 70q2 2 5 3q22 -13 21 -34q0 -50 106 -50q25 0 54 3q127 10 165 97q13 31 19 58.5t7 53.5q0 59 -45 89q-38 26 -103 26h-227q0 -2 -1 -9.5t-3 -21.5q-23 -161 -51 -299
q-19 -90 -39.5 -174.5t-43.5 -165.5q-3 -8 -11 1q-20 21 -17 31q51 177 87 351q17 85 30.5 164.5t22.5 157.5l1 4l217 1q59 0 98 -16q139 -56 105 -222q-2 -11 -5.5 -22.5t-7.5 -22.5z" />
    <glyph glyph-name="Q" unicode="Q" horiz-adv-x="771" 
d="M665 -476l-3 -3q-177 1 -259 163q-69 133 -57 327q-41 -12 -77 -12q-92 0 -146 89q-38 62 -45 140q-3 6 -2 10v2q-3 62 11 132q28 138 104 230q90 111 218 111q71 0 114 -43q116 -115 70 -336q-49 -241 -217 -312q-5 -53 -4 -104.5t9 -103.5q20 -126 71 -180
q70 -72 189 -74q9 0 21 -26zM570 387q38 215 -65 270q-33 18 -76 18q-95 0 -171 -67q-107 -93 -144 -267q-6 -29 -9 -60q42 36 91 40q105 9 154 -70q43 -68 32 -175q78 46 128 139q44 80 60 172zM350 60q2 13 4 28.5t4 34.5q12 111 -50 143q-36 17 -74 17q-27 0 -58 -12
q-37 -13 -51 -35q-9 -13 -15 -21t-8 -11q9 -166 150 -166q50 0 98 22z" />
    <glyph glyph-name="R" unicode="R" horiz-adv-x="580" 
d="M561 4q0 -3 -4 -3q-40 1 -69 37q-24 30 -29 73q-10 101 -21 161q-5 27 -28 35q-4 1 -7.5 1.5t-8.5 2.5q-11 -1 -21.5 -1.5t-20.5 -0.5q-80 0 -121 50q-27 34 -25 70q2 2 5 3q22 -13 21 -34q0 -50 106 -50q25 0 54 3q127 10 165 97q13 31 19 58.5t7 53.5q0 59 -45 89
q-38 26 -103 26h-227q0 -2 -1 -9.5t-3 -21.5q-23 -161 -51 -299q-19 -90 -39.5 -174.5t-43.5 -165.5q-3 -8 -11 1q-20 21 -17 31q51 177 87 351q17 85 30.5 164.5t22.5 157.5l1 4l217 1q59 0 98 -16q139 -56 105 -222q-2 -11 -5.5 -22.5t-7.5 -22.5q-34 -103 -155 -117h-3
q28 -36 36 -93l19 -151q1 -2 1 -4t1 -4l1 -3q12 -19 49 -20q6 0 17 -20q6 -12 5 -16z" />
    <glyph glyph-name="S" unicode="S" horiz-adv-x="537" 
d="M556 217q-18 -67 -66 -118.5t-117 -75.5q-60 -22 -117 -22q-36 0 -69 10.5t-59.5 29t-45 45.5t-26.5 60q-1 3 -1 6q1 3 3 3q3 0 10 -10q13 -17 15 -24q9 -40 61 -62q42 -19 94 -19q90 0 170 50q87 52 114 140q14 44 6 71l-1 4l-2 1l-2 2q-38 38 -128 33q-10 -1 -27 -2
t-43 -3q-44 -3 -68 1q-100 13 -127 101q-9 28 -2 60q6 28 21 58q81 158 327 158q52 0 96 -39q46 -42 36 -93q-3 -12 -11 -27l-5 2q-1 0 -3 2q-23 25 -19 32q17 29 11 49q-6 16 -44 27q-33 9 -57 8q-215 -8 -293 -133q-25 -40 -33 -77q-7 -36 3.5 -53.5t44.5 -27.5
q42 -12 153 -5q8 1 15 1h15q109 0 153 -69q29 -47 18 -94z" />
    <glyph glyph-name="T" unicode="T" horiz-adv-x="494" 
d="M628 675q-58 -13 -115.5 -19.5t-116.5 -6.5l3 2l-134 -646q-1 -4 -3 -4q-8 0 -21 21q-5 9 -4 15l127 612q-51 2 -98 8.5t-92 17.5q-8 1 -19 23q-2 8 -3 11q2 4 5 5q100 -27 218 -27q113 0 232 27q9 1 21 -30q2 -2 0 -4v-5z" />
    <glyph glyph-name="U" unicode="U" horiz-adv-x="552" 
d="M570 249q-30 -147 -136 -210q-65 -39 -146 -39q-59 0 -104 24q-80 44 -98 147q-7 45 3 106q-2 -17 24 108l67 325q1 4 3 4q6 0 20 -21q6 -11 5 -14l-76 -363q-9 -44 -14 -70.5t-6 -36.5q-18 -169 155 -169q154 0 233 130q30 49 42 106l90 434q1 4 3 4q6 0 20 -21
q6 -11 5 -14z" />
    <glyph glyph-name="V" unicode="V" horiz-adv-x="513" 
d="M637 677q-52 -81 -113 -188t-132 -244q-31 -60 -61 -119.5t-59 -121.5l-2 -2q-2 -2 -3 0q-5 2 -12 13q-5 6 -10 21q-6 103 -21 242q-14 139 -30 245.5t-35 183.5q-2 4 0 6q0 3 2 3q4 0 10 -10q11 -13 14 -24q26 -110 47 -259t35 -340q20 43 45.5 92t54.5 106
q72 137 132.5 244.5t112.5 186.5l4 -2q2 0 4 -1q23 -25 17 -32z" />
    <glyph glyph-name="W" unicode="W" horiz-adv-x="813" 
d="M929 677q-101 -152 -231 -432q-36 -78 -63 -138t-44 -103q0 -1 -3 -2q-7 0 -11 9l-2 4q-5 6 -10 21q-11 201 -58 422q-157 -243 -255 -454q0 -2 -1 -2q-2 -2 -3 0q-4 0 -13 13l-3 6q-7 10 -7 15q2 110 -6 242q-14 273 -51 429q-2 4 0 6q0 3 2 3q4 0 10 -10q11 -11 14 -24
q20 -83 33 -191t20 -243q2 -43 3 -81t2 -73q49 100 109.5 205t133.5 217l3 -1q-1 1 2 1q4 -2 8 -6q15 -23 14 -27q25 -104 41 -202t24 -192q17 43 38.5 90t46.5 101q64 138 122 245.5t110 186.5l3 -2q3 0 5 -1q23 -25 17 -32z" />
    <glyph glyph-name="X" unicode="X" horiz-adv-x="543" 
d="M516 6q-1 -4 -4 -4q-11 0 -24 34q-16 177 -120 374q-105 -109 -181 -210t-125 -197q-2 -5 -11 6q-18 22 -15 29q51 97 127.5 200t182.5 212q-38 69 -77 126.5t-79 105.5q-17 20 -14 31q1 7 12 -6q45 -54 83.5 -110t72.5 -116l11 -21q73 75 141 138t134 115q5 5 17 -15
q10 -15 9 -19q-1 -1 -1 -2l-1 -1q-66 -52 -134.5 -116t-141.5 -140q118 -221 138 -414z" />
    <glyph glyph-name="Y" unicode="Y" horiz-adv-x="506" 
d="M634 675q-153 -108 -254 -264q-38 -59 -44 -85l-66 -321q-1 -4 -3 -4q-8 0 -21 21q-5 9 -4 15l68 328q2 4 3 7l-1 1q-32 198 -138 306q-10 10 -16 25q-3 8 1 9q3 1 7 -3q42 -42 84 -111q57 -94 80 -190q5 10 13 22t19 28q23 33 51.5 67.5t63.5 69.5q70 73 133 117
q6 4 16 -16q10 -19 8 -21v-1z" />
    <glyph glyph-name="Z" unicode="Z" horiz-adv-x="522" 
d="M503 4q0 -3 -4 -2q-41 25 -165 25q-62 0 -133 -6.5t-152 -19.5q-6 -2 -17 15q-10 16 -6 23q50 88 138.5 199t219.5 246q48 50 92 93.5t85 81.5q-104 -15 -225 -5q-91 8 -149 21q-6 2 -17 20q-2 5 -3 8.5t-2 5.5q2 3 5 5q114 -27 231 -27q112 0 219 27q5 2 16 -16
q12 -17 7 -22q-60 -55 -119.5 -113t-119.5 -121q-227 -238 -326 -395q187 24 297 17q75 -5 108 -24q6 -4 16 -20q6 -10 4 -16z" />
    <glyph glyph-name="bracketleft" unicode="[" horiz-adv-x="238" 
d="M209 -137q0 -3 -4 -4q-38 12 -82 12q-43 0 -85 -12q-7 -1 -17 13t-8 22l199 956q1 1 5 3q37 -12 81 -12t86 12q10 3 22 -29l2 -4q-2 -2 -2 -1v-4q-39 -13 -87 -13q-57 0 -73 10q-1 1 -7 3l-189 -910q14 2 27 3.5t27 1.5q46 0 84 -13q7 -2 14 -14t7 -20z" />
    <glyph glyph-name="backslash" unicode="\" horiz-adv-x="349" 
d="M345 -1q-6 0 -17 14q-5 8 -8 19l-171 673q-1 4 0 7q0 2 2 2q3 0 6.5 -4t7 -9.5t6.5 -11.5t4 -9l171 -673q1 -7 -1 -8z" />
    <glyph glyph-name="bracketright" unicode="]" horiz-adv-x="240" 
d="M174 -138q-2 -2 -6 -3q-35 12 -79 12q-46 0 -88 -12q-12 -4 -21 29l-1 4q1 1 2 1l-1 4q42 13 87 13q42 0 81 -11l188 908q-14 -2 -28 -3.5t-28 -1.5q-46 0 -82 13q-18 6 -22 34q1 2 5 4q36 -12 80 -12q45 0 87 12q6 1 16 -13q10 -15 9 -22z" />
    <glyph glyph-name="asciicircum" unicode="^" horiz-adv-x="292" 
d="M378 480q0 -2 -1 -3q-3 -3 -8 3q-12 12 -16 24l-58 154l-142 -180h-3q-3 -2 -3 -1l-4 3q-25 22 -17 33l153 194q3 2 16 -11q13 -19 25.5 -48t26.5 -68q5 -14 12.5 -38t18.5 -56q1 -3 0 -6z" />
    <glyph glyph-name="underscore" unicode="_" horiz-adv-x="577" 
d="M503 -187q-2 -2 -4 -2h-474q-9 0 -21 22l-3 9q-2 3 2 3h475q9 0 20 -23q4 -4 5 -9z" />
    <glyph glyph-name="grave" unicode="`" horiz-adv-x="157" 
d="M259 543q-2 -2 -5 -3q-9 5 -18 20q-5 9 -4 14q18 90 -56 131q-12 6 -19 28q-2 6 -2 7q2 4 5 2q52 -29 81 -81q31 -57 18 -118z" />
    <glyph glyph-name="a" unicode="a" horiz-adv-x="356" 
d="M320 6q-1 -4 -4 -4q-7 0 -20 21q-5 10 -4 14l12 56q-14 -14 -30.5 -27t-33.5 -24q-59 -40 -94 -40q-51 0 -74 68q-12 38 -3 104q14 92 25 116q19 39 67 64q40 21 86 21q55 0 105 -50l10 47q1 4 3 4q5 0 19 -21q6 -11 5 -15zM322 178l26 127q-38 32 -81 32q-31 0 -64 -13
q-66 -26 -86 -77q-8 -22 -17 -78q-14 -82 -2 -120q17 -14 44 -6q47 12 99 53q47 37 81 82z" />
    <glyph glyph-name="b" unicode="b" horiz-adv-x="336" 
d="M357 146q-12 -86 -85 -123q-41 -21 -87 -21q-55 0 -103 51l-10 -47q-1 -4 -3 -4q-8 0 -21 21q-5 9 -4 14l41 195q-2 1 0 3l111 532q2 8 10 0q20 -20 18 -31l-94 -450q28 26 64 52q58 40 94 40q50 0 73 -69q12 -39 4 -104q-1 -4 -2.5 -18.5t-5.5 -40.5zM333 209
q14 84 2 122q-17 14 -44 6q-99 -26 -179 -136l-26 -128q37 -32 80 -32q32 0 64 12q65 26 86 78q4 10 8 29.5t9 48.5z" />
    <glyph glyph-name="c" unicode="c" horiz-adv-x="342" 
d="M378 281q-2 -8 -14 7q-41 48 -102 48q-32 0 -68 -14q-40 -17 -59 -42q-18 -24 -32 -95q-18 -97 -5 -136q6 -6 20 -8q48 -4 103 18q58 22 89 64l5 -2q-2 0 0 2l3 -3q25 -23 18 -33q-39 -50 -117 -73q-42 -12 -67 -12q-23 0 -37 8q-65 39 -44 180l3 21t5 34q6 33 21 55
q46 75 147 75q62 0 115 -63q18 -20 16 -31z" />
    <glyph glyph-name="d" unicode="d" horiz-adv-x="332" 
d="M296 6q-1 -4 -4 -4q-7 0 -20 22q-5 10 -4 13l12 57q-15 -14 -31 -27.5t-33 -24.5q-58 -40 -94 -40q-52 0 -74 69q-12 38 -3 104q14 93 25 117q21 43 67 65q40 21 87 21q56 0 104 -51l92 440q2 8 10 0q20 -20 18 -31zM298 179l26 128q-38 32 -81 32q-33 0 -64 -12
q-65 -26 -86 -78q-7 -19 -17 -78q-14 -83 -2 -122q17 -14 44 -6q99 26 180 136z" />
    <glyph glyph-name="e" unicode="e" horiz-adv-x="345" 
d="M369 249q-17 -77 -270 -80l-1 -2q-11 -57 -5 -105q3 -17 18 -20q28 -5 67 5q91 22 131 76l4 -2q-1 0 1 2l3 -3q25 -23 18 -33q-42 -57 -128 -77q-37 -8 -56 -8q-33 0 -49 18q-51 55 -33 172q5 29 9 49t8 31q17 50 67 79q46 26 98 26q85 0 115 -77q9 -24 3 -51zM343 287
q2 10 -2 28l-1 3v1q-23 18 -66 18q-23 0 -48 -6q-90 -21 -112 -87q-5 -14 -9 -36q35 1 67.5 4.5t64.5 9.5q109 22 106 65z" />
    <glyph glyph-name="f" unicode="f" horiz-adv-x="311" 
d="M446 671q-1 -5 -3 -10.5t-4 -10.5l-5 1l-4 2q-23 24 -18 32q11 20 9 37q-17 10 -49 10q-46 0 -83 -23q-39 -25 -50 -72l-42 -203h137q13 0 24 -36q0 -3 -3 -3h-166l-82 -389q-1 -4 -3 -4q-8 0 -21 21q-5 9 -4 14l76 358h-26q-9 0 -21 26l-3 10q0 3 3 3h55l38 190
q10 44 21 71q36 77 129 77q61 0 86 -46q15 -26 9 -55z" />
    <glyph glyph-name="g" unicode="g" horiz-adv-x="338" 
d="M322 27q-5 -26 -11 -46.5t-12 -37.5q-23 -66 -55.5 -124.5t-75.5 -112.5q-88 -113 -207 -184q-7 -4 -18 16q-10 19 -5 22q132 76 230 214q94 131 124 276l8 41q-25 -25 -63 -52q-59 -40 -95 -40q-51 0 -73 69q-13 36 -4 104q12 89 27 118q22 42 66 64q40 21 87 21
q54 0 104 -51l10 48q1 4 3 4q9 0 19 -22q6 -10 5 -14l-30 -144q-3 -14 -7 -35t-9 -49q-9 -46 -18 -85zM318 176l27 128q-38 32 -82 32q-32 0 -63 -12q-64 -24 -85 -78q-8 -20 -19 -78q-13 -79 -2 -122q18 -13 46 -6q46 12 98 54q23 19 43 39t37 43z" />
    <glyph glyph-name="h" unicode="h" horiz-adv-x="324" 
d="M308 6q-1 -4 -4 -4q-5 0 -20 22q-5 9 -4 13q2 10 5 24.5t8 34.5t8.5 35t5.5 25q13 66 15 117q1 21 -5 58q-11 8 -26 8q-22 0 -48 -13q-90 -45 -149 -125l-40 -195q-1 -4 -3 -4q-8 0 -21 21q-5 9 -4 14l41 195q-2 1 0 3l111 532q2 8 10 0q20 -20 18 -31l-94 -450
q10 10 20 19t21 17q73 55 115 55q66 0 80 -87q4 -26 0 -69t-17 -105z" />
    <glyph glyph-name="i" unicode="i" horiz-adv-x="109" 
d="M162 454q-1 -4 -4 -4q-6 0 -19 22q-5 10 -5 13l12 56q1 4 3 4q5 0 19 -21q6 -11 6 -14zM69 6q-1 -4 -4 -4q-7 0 -20 22q-5 10 -4 13l70 336q1 4 3 4q6 0 20 -21q5 -12 5 -14z" />
    <glyph glyph-name="j" unicode="j" horiz-adv-x="121" 
d="M168 453q-2 -3 -3 -3q-8 0 -21 21q-5 9 -4 14l12 56q2 5 4 5q5 0 18 -22q6 -11 6 -14zM80 27q-40 -175 -154 -321q-88 -113 -207 -184q-7 -4 -18 16q-10 19 -5 22q132 79 230 214q94 131 124 277l67 321q1 4 4 4q1 -1 3 -1.5t4 -2.5q18 -22 16 -31l-30 -145
q-3 -14 -7 -35t-9 -49q-9 -46 -18 -85z" />
    <glyph glyph-name="k" unicode="k" horiz-adv-x="332" 
d="M329 1q-6 -2 -13 8q-58 75 -80 146q-18 -16 -40 -32.5t-48 -35.5q-6 -5 -18 15q-11 19 -7 23q31 22 56 41.5t45 37.5v1q3 3 5 4v-1q91 83 95 129q-10 2 -15 2q-31 0 -75 -28q-77 -48 -122 -110l-40 -195q-1 -4 -3 -4q-8 0 -21 21q-5 9 -4 14l41 195q-2 1 0 3l111 532
q2 8 10 0q20 -20 18 -31l-94 -449q91 90 157 90q35 0 54 -34q12 -22 7 -45q-10 -49 -95 -128q12 -73 63 -136q16 -23 15 -30q0 -1 -2 -3z" />
    <glyph glyph-name="l" unicode="l" horiz-adv-x="122" 
d="M121 3q0 -2 -1 -2q-1 -1 -13 8q-53 74 -38 183q7 52 27 138l31 137l62 300q2 8 10 0q20 -20 18 -31l-116 -554q-9 -44 -7 -88q1 -12 1 -20t1 -12q5 -19 11 -28q16 -21 14 -31z" />
    <glyph glyph-name="m" unicode="m" horiz-adv-x="556" 
d="M523 6q-1 -4 -3 -4q-8 0 -21 21q-5 9 -4 14q39 187 42 219q4 46 -5 73q-21 15 -52 3q-67 -26 -144 -133h-1q-2 -13 -5.5 -34t-10.5 -51l-22 -108q-1 -4 -3 -4q-8 0 -21 21q-5 9 -4 14q19 91 29 145t12 74q3 52 -4 73q-21 15 -52 3q-67 -26 -143 -132l-40 -194
q-1 -4 -3 -4q-8 0 -21 21q-5 9 -4 14l70 335q1 4 3 4q5 0 19 -21q6 -11 5 -15l-10 -47q73 83 131 82q35 -2 56 -34q19 -29 21 -66v-4q83 106 149 104q69 -2 77 -100q2 -26 -3 -66t-16 -95z" />
    <glyph glyph-name="n" unicode="n" horiz-adv-x="341" 
d="M316 6q-1 -4 -4 -4q-7 0 -20 21q-5 9 -4 14q2 10 5 24.5t8 34.5t8.5 34.5t5.5 24.5q13 64 15 116q1 21 -5 58q-11 8 -26 8q-22 0 -48 -13q-90 -45 -149 -125l-40 -193q-1 -4 -3 -4q-8 0 -21 21q-5 9 -4 14l40 193q0 2 1 3l29 139q1 4 3 4q5 0 19 -21q6 -11 5 -15l-11 -56
q17 18 41 36q71 55 114 55q66 0 81 -86q7 -51 -18 -174z" />
    <glyph glyph-name="o" unicode="o" horiz-adv-x="341" 
d="M350 173q-14 -65 -59 -115q-53 -57 -113 -57q-67 0 -101 75q-24 55 -8 128q14 66 60 115q51 57 113 57q7 0 12.5 -0.5t10.5 -1.5q56 -10 79 -78q19 -59 6 -123zM323 204q15 73 -5 113q-9 20 -49 20q-73 0 -127 -67q-34 -43 -46 -97q-14 -75 4 -112q10 -21 50 -21
q74 0 128 68q34 42 45 96z" />
    <glyph glyph-name="p" unicode="p" horiz-adv-x="336" 
d="M356 144q-11 -86 -84 -123q-41 -21 -87 -21q-54 0 -104 50l-91 -440q0 -4 -2 -4q-8 0 -21 21q-5 9 -4 15l121 587q0 2 1 3l29 140q1 4 3 4q5 0 19 -21q6 -11 5 -15l-11 -56q15 14 30.5 27.5t32.5 24.5q59 40 95 40q49 0 72 -69q13 -39 4 -105q-1 -9 -3 -23.5t-5 -34.5z
M333 207q13 81 2 121q-18 13 -45 6q-97 -25 -178 -136l-27 -128q35 -31 81 -31q31 0 63 12q65 24 86 77q7 19 18 79z" />
    <glyph glyph-name="q" unicode="q" horiz-adv-x="333" 
d="M214 -390q-2 -5 -6 -3q-6 4 -17 21q-5 10 -4 14l93 449q-16 -15 -31.5 -28t-31.5 -24q-58 -40 -95 -40q-51 0 -73 69q-13 36 -4 104q12 92 26 118q19 39 67 64q40 21 86 21q55 0 105 -51l10 48q1 4 3 4q5 0 19 -21q6 -11 5 -15zM298 177l27 127q-40 32 -82 32
q-32 0 -63 -12q-65 -26 -86 -78q-8 -18 -18 -78q-7 -41 -7 -71t5 -50q16 -14 45 -6q99 25 179 136z" />
    <glyph glyph-name="r" unicode="r" horiz-adv-x="310" 
d="M366 282q2 -2 -3 -4q-19 3 -26 39q-3 17 -20 19q-37 4 -95 -34q-69 -46 -110 -103l-40 -193q-1 -4 -3 -4q-8 0 -21 21q-5 9 -4 14l40 193q0 2 1 3l29 139q1 4 3 4q5 0 19 -21q6 -11 5 -15l-11 -55q89 89 154 89q67 0 82 -92z" />
    <glyph glyph-name="s" unicode="s" horiz-adv-x="339" 
d="M338 111q-6 -26 -29 -52q-43 -48 -117 -56q-52 -5 -92 18t-55 68q-1 3 -1 7q1 3 3 3q3 0 9 -8q11 -15 15 -23q25 -27 80 -27q39 0 81 17q46 20 65 54q15 28 14 46q-19 13 -58 13q-5 0 -14.5 -0.5t-22.5 -1.5t-22 -1h-16q-39 2 -69 26q-34 27 -30 64q8 59 68 90
q49 27 110 27q60 0 90 -36q19 -22 14 -46q-2 -8 -6 -15l-4 2l-4 2q-23 23 -18 32q3 3 5 11v1q-20 11 -44 11q-104 -2 -150 -48q-27 -26 -33 -54q-1 -5 -1 -14l1 -1q24 -16 70 -14l58 3q41 2 65 -17q47 -36 38 -81z" />
    <glyph glyph-name="t" unicode="t" horiz-adv-x="271" 
d="M271 5q-23 -3 -40 -3q-71 0 -107 50q-22 33 -27 56q-3 16 3 45l45 213h-25q-9 0 -21 26l-3 10q0 3 3 3h54l40 193q2 5 4 5q5 0 18 -22q6 -11 5 -15l-33 -161h110q9 0 20 -26q1 -2 1.5 -5t1.5 -5q1 -3 -2 -3h-139l-51 -242q-5 -25 4 -59l2 -2q26 -22 75 -22q14 0 41 3
q11 2 22 -34z" />
    <glyph glyph-name="u" unicode="u" horiz-adv-x="340" 
d="M315 6q-1 -4 -4 -4q-7 0 -20 21q-5 9 -4 14l12 56q-13 -11 -23 -19.5t-18 -15.5q-71 -55 -115 -55q-33 0 -55 28q-19 23 -25 58q-9 48 17 173l23 110q1 4 3 4q5 0 19 -21q6 -11 5 -15q-2 -10 -5 -24.5t-8 -34.5t-8 -34t-5 -24q-8 -36 -11.5 -65t-4.5 -52q-1 -14 5 -57
q11 -8 27 -8q22 0 48 13q88 43 149 124l40 194q1 4 3 4q5 0 19 -21q6 -11 5 -15z" />
    <glyph glyph-name="v" unicode="v" horiz-adv-x="318" 
d="M372 338q-124 -174 -211 -334l-2 1l-2 -3l-1 1l-3 4q-5 5 -9.5 12.5t-9.5 16.5q-8 97 -18.5 180t-24.5 153q-1 2 -1 5q1 3 3 3q4 0 11 -10q12 -13 14 -23q11 -58 20.5 -124.5t16.5 -143.5q42 75 89.5 149t101.5 149l4 -2l1 1l2 -3q25 -22 19 -32z" />
    <glyph glyph-name="w" unicode="w" horiz-adv-x="532" 
d="M577 338q-122 -172 -183 -334q-1 -4 -7 0q-19 18 -20 32q-15 165 -33 279q-54 -78 -95.5 -155.5t-70.5 -155.5q-1 -4 -7 0q-19 18 -20 32q-8 100 -19 183t-24 150q-1 2 -1 5q1 3 3 3q4 0 11 -10q12 -13 14 -23q11 -56 20 -120t17 -137q61 144 165 290l2 -3h-1
q7 -3 18 -18q6 -11 5 -15q11 -57 20 -119.5t17 -134.5q61 144 162 287l5 -2l1 1l2 -3q25 -22 19 -32z" />
    <glyph glyph-name="x" unicode="x" horiz-adv-x="352" 
d="M319 7q0 -3 -4 -4q-11 0 -24 33q-12 82 -62 169q-57 -54 -98.5 -103.5t-67.5 -97.5l-3 1q-2 2 -4 3q-23 23 -18 31q53 97 167 204q-16 23 -36.5 47.5t-45.5 50.5q-6 7 -15 24q-3 7 0 9q4 1 9 -3q51 -52 96 -121q42 38 78.5 69.5t70.5 55.5q6 4 18 -15q11 -19 7 -23
q-35 -25 -72.5 -55.5t-76.5 -68.5q68 -110 81 -206z" />
    <glyph glyph-name="y" unicode="y" horiz-adv-x="340" 
d="M324 27q-5 -26 -11 -46.5t-12 -37.5q-23 -66 -55.5 -124.5t-75.5 -112.5q-88 -113 -207 -184q-7 -4 -18 16q-10 19 -5 22q132 76 230 214q94 131 124 276l8 41q-34 -34 -74 -59q-50 -32 -81 -32q-67 0 -80 87q-9 50 17 174l23 111q1 4 3 4q9 0 19 -22q6 -10 5 -14
q-2 -10 -5 -24.5t-8 -34.5t-8 -34.5t-5 -24.5q-8 -36 -12 -65.5t-5 -52.5q0 -8 1.5 -23l3.5 -35q11 -8 27 -8q23 0 48 13q89 44 149 125l41 196q1 4 3 4q9 0 19 -22q6 -10 5 -14l-30 -144q-3 -14 -7 -35t-9 -49q-9 -46 -18 -85z" />
    <glyph glyph-name="z" unicode="z" horiz-adv-x="345" 
d="M314 4q0 -3 -4 -2q-28 14 -76 14q-42 0 -85 -3.5t-91 -10.5q-6 -2 -17 15q-10 16 -6 22q53 85 197 223q42 40 69 63q-84 -6 -175 12q-7 2 -17 20q-4 6 -6 13q2 3 5 5q64 -13 130 -13t122 13q6 2 18 -16q12 -17 6 -22q-35 -29 -68.5 -58t-64.5 -58q-108 -102 -161 -174
q10 1 25 2t35 2q110 6 144 -11q12 -6 19 -28q3 -6 1 -8z" />
    <glyph glyph-name="braceleft" unicode="{" horiz-adv-x="242" 
d="M206 -138q-1 -1 -1.5 -2t-1.5 -2q-96 1 -114 101q-5 27 7 80l43 209q12 58 9 74q-17 15 -43 15q-6 0 -12 10l-4 4q-9 17 -8 21q0 1 2 3q38 1 65 24.5t35 60.5l43 207q17 77 22 91q37 94 133 96q9 0 21 -26l3 -10l-3 -3q-94 -1 -129 -94q-2 -7 -7.5 -30.5t-14.5 -65.5
l-44 -212q-15 -46 -59 -66q24 -27 27 -58q1 -11 -1 -29t-7 -43l-51 -243q-8 -41 4 -55l1 -2q14 -18 61 -20q9 0 21 -26z" />
    <glyph glyph-name="bar" unicode="|" horiz-adv-x="114" 
d="M41 -138q-1 -4 -7 -3q-7 4 -16 21q-6 10 -5 14l199 956q1 4 3 4q6 0 20 -21q6 -11 5 -15z" />
    <glyph glyph-name="braceright" unicode="}" horiz-adv-x="243" 
d="M308 340q0 -1 -2 -3q-38 -1 -65 -24.5t-35 -60.5l-43 -207q-17 -77 -22 -91q-37 -94 -133 -96q-8 0 -20 26l-3 10l3 3q95 2 128 94q2 7 7.5 30.5t14.5 65.5l44 212q15 46 60 67q-26 28 -29 57q-2 19 9 72l51 243q8 41 -4 55l-1 2q-14 18 -61 20q-9 0 -21 26q-2 3 -3 9
q1 1 1.5 2t1.5 2q96 -1 114 -101q5 -27 -7 -80l-43 -209q-12 -58 -9 -74q16 -15 43 -15q6 0 12 -10l4 -4q9 -17 8 -21z" />
    <glyph glyph-name="asciitilde" unicode="~" horiz-adv-x="563" 
d="M671 668q-10 -52 -56 -89q-47 -36 -97 -32q-70 6 -112 92q-1 2 -2.5 6t-3.5 10l-2 3q-18 40 -75 40q-47 0 -88 -34q-41 -33 -51 -79q-3 -17 -2 -30q-2 -2 -6 -3q-30 20 -19 64q11 51 55 87q46 37 97 33q70 -6 118 -105q21 -45 78 -45q46 0 87 33q42 34 52 80q3 17 2 29
q1 3 5 3q30 -17 20 -63z" />
    <glyph glyph-name="exclamdown" unicode="&#xa1;" horiz-adv-x="110" 
d="M175 518q-1 -4 -3 -4q-8 0 -20 21q-6 7 -4 15l17 84q1 4 7 3q7 -2 17 -21q5 -10 4 -14zM47 -99q-2 -10 -10 0q-19 22 -18 31l100 477q1 6 6 3q7 -3 17 -21q5 -10 4 -13z" />
    <glyph glyph-name="cent" unicode="&#xa2;" horiz-adv-x="324" 
d="M338 143q-2 -7 -3.5 -13.5t-3.5 -13.5q-32 -88 -182 -89q-16 0 -31 4l-42 -58l-4 2q0 -1 -1 -2q-26 27 -21 36l33 45q-11 11 -18 26q-21 43 2 150q14 64 56 87q59 32 129 28q11 -1 19.5 -1.5t15.5 -2.5l43 59l3 -2l1 1q27 -26 21 -35l-28 -39q8 -5 14.5 -11.5t11.5 -14.5
q13 -19 10 -35q-4 -2 -5 -3q-1 1 -2 1.5t-3 2.5q-17 18 -18 28q-5 2 -11.5 4.5t-13.5 4.5l-168 -236q148 7 169 108q1 4 3 4q5 0 19 -21q6 -11 5 -14zM263 307q-14 1 -29 -1t-32 -6q-69 -16 -92 -55q-9 -17 -18 -60q-15 -80 -8 -109q1 -1 2 -1.5t2 -1.5l3 -2q2 0 3 -1z" />
    <glyph glyph-name="sterling" unicode="&#xa3;" horiz-adv-x="475" 
d="M459 0l-2 -2q-7 0 -17 16q-1 0 -1 1l-2 2q-17 17 -80 20q-124 5 -296 -37q-8 -2 -19 15t-6 23q89 94 119 214h-43q-9 0 -21 26l-3 10q1 3 3 3h72q6 31 6 74h-34q-10 0 -20 25l-3 10q0 3 2 3h55q-2 19 -3 37.5t-2 37.5q-3 46 4 76q7 36 34 69q75 88 181 88q83 0 139 -60
q57 -60 41 -142q-1 -1 -2 -1.5t-2 -1.5l-6 3q-18 20 -17 31q9 45 -2.5 70t-48.5 43q-42 21 -85 21q-66 0 -128 -46q-65 -46 -79 -111q-6 -27 3 -114h173q10 0 20 -25q1 -2 2 -4.5t2 -5.5q-2 -3 -4 -3h-192q1 -20 0.5 -38.5t-2.5 -35.5h151q9 0 20 -26q1 -2 2 -4.5t2 -5.5
q-2 -3 -4 -3h-176q-20 -107 -85 -199q34 7 67.5 11.5t68.5 7.5q42 4 73 4.5t51 -3.5q67 -10 90 -59q5 -10 4 -14z" />
    <glyph glyph-name="currency" unicode="&#xa4;" horiz-adv-x="380" 
d="M376 143q-1 -7 -13 7l-25 30q-50 -38 -107 -38q-56 0 -92 38l-45 -37q-6 -5 -18 14q-9 14 -8 20l1 1q0 1 1 2l43 36q-28 47 -17 100q12 54 56 94q-5 7 -11.5 16.5t-14.5 23.5q-1 3 -1 6q1 3 3 3q4 0 11 -10l24 -30q50 38 104 38q55 0 95 -38l45 37q5 5 17 -15
q12 -18 8 -22l-44 -36q28 -47 17 -100q-10 -54 -56 -94q5 -7 11.5 -16.5t14.5 -23.5q2 -5 1 -6zM381 325q8 41 -8 60q-30 35 -83 35q-51 0 -97 -33q-46 -31 -64 -81q-4 -9 -6 -17t-4 -15q-8 -41 9 -60q30 -35 84 -35q48 0 95 32q48 34 64 82q7 18 10 32z" />
    <glyph glyph-name="yen" unicode="&#xa5;" horiz-adv-x="512" 
d="M636 674q-160 -114 -254 -265l-24 -38q-15 -23 -19 -41q35 2 70.5 5t70.5 8q12 2 22 -34l-1 -5q-45 -7 -87 -10t-83 -3l-15 -71q35 -2 69.5 -5t68.5 -8q6 -2 16 -20q6 -10 5 -14q0 -2 -4 -5q-42 7 -82.5 10t-80.5 4l-37 -179q-1 -4 -3 -4q-7 0 -20 22q-5 9 -4 14l30 147
q-36 -1 -71 -4.5t-70 -9.5q-9 -2 -20 30q0 3 -1 4l1 5q82 14 169 14l15 70q-75 2 -137 13q-16 3 -22 34q0 3 5 5q76 -14 162 -14l7 34q1 2 1 3q0 2 1 4q-33 201 -139 307q-10 10 -16 25q-2 8 1 9q4 1 8 -3q43 -44 84 -110q56 -93 79 -190q4 7 12 19.5t21 29.5
q106 154 248 255q5 5 17 -15q11 -19 7 -23z" />
    <glyph glyph-name="brokenbar" unicode="&#xa6;" horiz-adv-x="112" 
d="M145 366q-1 -4 -4 -4q-7 0 -20 22q-5 10 -4 13l64 306q0 4 2 4q6 0 20 -21q6 -11 5 -14zM59 -44q0 -4 -3 -4q-7 0 -20 22q-5 10 -4 13l63 306q1 4 3 4q6 0 20 -21q6 -11 5 -14z" />
    <glyph glyph-name="section" unicode="&#xa7;" horiz-adv-x="456" 
d="M443 68q-17 -76 -105 -113q-68 -30 -153 -31q-63 -2 -94 22q-47 37 -40 77q1 8 8 18l4 -2q3 0 4 -1q23 -24 18 -32q-9 -14 -8 -20l-1 -2q1 -1 2.5 -2l4.5 -3q29 -19 76 -17q220 4 255 136q4 16 1 27v1q-27 24 -94 24q-8 0 -20.5 -0.5t-29.5 -1.5t-29 -1.5t-20 -0.5
q-60 0 -102 30q-49 34 -37 91q2 8 4.5 15.5t6.5 15.5q28 55 98 87q-51 23 -63 73q-5 15 0 33q15 77 103 114q66 29 154 30q62 2 93 -22q48 -37 41 -77q-1 -8 -9 -19l-3 3q-2 -1 -4 1q-24 24 -19 32q9 12 9 20v3q-3 0 -7 4q-29 18 -75 17q-87 -2 -150 -27q-86 -35 -106 -109
q-4 -16 -1 -27l1 -1q27 -24 95 -24q8 0 20 0.5t28 1.5q17 1 29 1.5t20 0.5q59 0 103 -30q49 -34 37 -91q-2 -8 -4.5 -15.5t-6.5 -15.5q-30 -57 -98 -87q50 -23 63 -73q4 -14 1 -33zM463 334q2 15 -2 16q-35 27 -120 23q-20 -20 -74 -24q-59 -5 -77 -15q-76 -45 -83 -109
q-2 -15 2 -16q35 -27 120 -23q23 21 73 24q59 3 79 15q76 45 82 109z" />
    <glyph glyph-name="dieresis" unicode="&#xa8;" horiz-adv-x="214" 
d="M304 599q-2 -3 -3 -3q-2 0 -3 1q-8 3 -17 19q-7 8 -5 13l12 54q0 4 2 4q5 0 20 -21q6 -9 5 -13zM191 599q-2 -3 -3 -3q-2 0 -3 1q-8 3 -17 19q-7 8 -5 13l12 54q0 4 2 4q5 0 20 -21q6 -9 5 -13z" />
    <glyph glyph-name="copyright" unicode="&#xa9;" horiz-adv-x="618" 
d="M680 421q-9 -38 -27 -72.5t-43.5 -64t-58 -53.5t-69.5 -39q-65 -27 -126 -27q-114 0 -188 86q-73 86 -50 201q8 36 26 70.5t44 64.5t58.5 54.5t68.5 39.5q63 26 127 26q165 0 227 -153q26 -67 11 -133zM654 458q15 91 -24 138q-58 73 -169 73q-140 0 -244 -113
q-54 -59 -71 -135q-21 -94 21 -145q58 -72 168 -72q67 0 133 30t115 84q59 68 71 140zM512 338q-4 -19 -54 -43q-75 -35 -131 -35q-25 0 -42 11q-64 46 -39 184q13 71 50 97q50 35 113 36q100 4 135 -77q3 -8 0 -9q-7 -4 -19 18q-28 31 -81 31q-26 0 -54 -7
q-85 -19 -106 -77q-2 -6 -5 -16.5t-5 -26.5q-15 -80 -4 -115q14 -11 37 -9q123 5 178 71q2 2 4 0v-1q25 -20 23 -32z" />
    <glyph glyph-name="ordfeminine" unicode="&#xaa;" horiz-adv-x="353" 
d="M388 338q-2 -5 -6 -3q-7 3 -17 21q-7 8 -5 13l12 57q-10 -10 -21.5 -20t-25.5 -20q-67 -49 -106 -51q-57 -2 -81 43q-23 40 -9 99q7 40 34 67q51 52 129 52q55 0 105 -50l10 47q6 31 9 47.5t4 18.5q-18 8 -66 10q-122 2 -164 -54l-3 2q1 -1 -2 -2l-2 3q-24 24 -18 33
q40 57 156 57q11 0 26.5 -1.5t37.5 -3.5q54 -12 62 -65q1 -7 -13 -77zM390 510l3 16q-37 31 -85 31q-14 0 -36 -5q-104 -26 -118 -116q-5 -37 -1 -54q2 -2 5 -2.5t5 -1.5q35 -12 73 6q91 40 154 126z" />
    <glyph glyph-name="guillemotleft" unicode="&#xab;" horiz-adv-x="280" 
d="M281 173q-2 -2 -6 -3q-6 2 -17 21q-5 10 -4 13q7 43 -36 105q-24 32 -19 37q99 81 113 137q1 4 3 4q6 0 19 -22q6 -11 5 -14q-13 -56 -109 -137q5 -8 11 -17.5t12 -20.5q35 -64 28 -103zM168 173q-2 -2 -6 -3q-6 2 -17 21q-5 10 -4 13q7 43 -36 105q-24 32 -19 37
q99 81 113 137q1 4 3 4q6 0 19 -22q6 -11 5 -14q-13 -56 -109 -137q5 -8 11 -17.5t12 -20.5q35 -64 28 -103z" />
    <glyph glyph-name="logicalnot" unicode="&#xac;" horiz-adv-x="387" 
d="M388 182q0 -4 -3 -4q-7 0 -20 22q-5 10 -4 13l20 98h-284q-9 0 -21 22l-3 9q-2 3 2 3h315q9 0 20 -23q4 -4 5 -9l-1 -1q1 -1 1 -4z" />
    <glyph glyph-name="minus" unicode="&#xad;" horiz-adv-x="416" 
d="M446 313q-2 -2 -4 -2h-314q-9 0 -21 22l-3 9q-2 3 2 3h315q9 0 20 -23q4 -4 5 -9z" />
    <glyph glyph-name="minus" unicode="&#x2212;" horiz-adv-x="416" 
d="M446 313q-2 -2 -4 -2h-314q-9 0 -21 22l-3 9q-2 3 2 3h315q9 0 20 -23q4 -4 5 -9z" />
    <glyph glyph-name="registered" unicode="&#xae;" horiz-adv-x="618" 
d="M680 421q-9 -38 -27 -72.5t-43.5 -64t-58 -53.5t-69.5 -39q-65 -27 -126 -27q-114 0 -188 86q-73 86 -50 201q8 36 26 70.5t44 64.5t58.5 54.5t68.5 39.5q63 26 127 26q165 0 227 -153q26 -67 11 -133zM654 458q15 91 -24 138q-58 73 -169 73q-140 0 -244 -113
q-54 -59 -71 -135q-21 -94 21 -145q58 -72 168 -72q67 0 133 30t115 84q59 68 71 140zM527 264q0 -3 -4 -3q-22 1 -40 18t-23 38l-12 57q-1 2 -2 6t-2 9q-2 1 -6 1.5t-9 2.5q-63 -4 -86 20q-26 29 -26 50q1 3 5 3q15 -7 21 -26q8 -5 20 -7q33 -5 74 1q55 8 68 42q13 31 9 52
l-1 2q-19 19 -96 19h-92l-1 -1q1 -2 0 -6q-2 -54 -15 -114q-6 -29 -17 -70t-27 -94q-1 -7 -9 1q-21 21 -18 31q48 157 60 288l2 4h129q75 0 105 -69q12 -26 6 -55q-12 -59 -81 -68q5 -8 11.5 -31t14.5 -60q8 -5 20 -5q5 -2 17 -21q6 -13 5 -15zM345 431q-1 2 -1 5l-4 -2
l2 -4q1 -1 3 1z" />
    <glyph glyph-name="macron" unicode="&#xaf;" horiz-adv-x="296" 
d="M398 655q0 -3 -3 -3h-198q-9 0 -21 23q-2 1 -3 9q-2 2 2 2h198q9 0 22 -22z" />
    <glyph glyph-name="macron" unicode="&#x2c9;" horiz-adv-x="296" 
d="M398 655q0 -3 -3 -3h-198q-9 0 -21 23q-2 1 -3 9q-2 2 2 2h198q9 0 22 -22z" />
    <glyph glyph-name="degree" unicode="&#xb0;" horiz-adv-x="252" 
d="M358 626q-9 -41 -38 -76q-33 -40 -71 -40q-53 0 -80 61q-18 43 -8 86q11 42 38 75q31 40 71 40q53 0 78 -61q18 -43 10 -85zM330 657q11 54 -5 65q-26 19 -57 6q-65 -27 -79 -102q-11 -56 5 -66q25 -20 57 -6q62 26 79 103z" />
    <glyph glyph-name="plusminus" unicode="&#xb1;" horiz-adv-x="385" 
d="M441 311q0 -3 -3 -3h-167l-34 -163q-1 -4 -3 -4q-8 0 -21 21q-5 9 -4 14l28 132h-138q-9 0 -21 26l-3 10q0 3 3 3h167l34 164q2 5 4 5q5 0 18 -22q6 -11 5 -15l-27 -132h138q13 0 24 -36zM395 63q-2 -2 -4 -2h-344q-9 0 -21 22l-3 9q-2 3 2 3h345q9 0 20 -23q4 -4 5 -9z
" />
    <glyph glyph-name="twosuperior" unicode="&#xb2;" horiz-adv-x="342" 
d="M374 268l-2 -2q-8 0 -18 19l4 3q3 -3 4 -6l1 -1q-1 -1 -1.5 -2t-2.5 -2l-1 1q-14 12 -56 12q-40 1 -86 -5t-100 -17q-6 -1 -16 13q-9 15 -8 22q37 165 175 190q46 7 83 29q49 27 56 66q6 27 -2 57l-2 2l-1 2h-1q-20 21 -61 21q-57 0 -103 -31q-39 -27 -55 -67q0 -1 -2 -3
l-3 3t-6 5q-18 21 -15 29q15 34 45 61t66 36q22 6 50 6q45 0 70 -22q62 -54 47 -128q-17 -74 -117 -99q-11 -2 -27 -5.5t-38 -8.5q-81 -31 -119 -132q25 5 51 8t52 5q30 2 50 1.5t30 -2.5q35 -9 55 -44q5 -10 4 -14z" />
    <glyph glyph-name="threesuperior" unicode="&#xb3;" horiz-adv-x="348" 
d="M406 388q-4 -27 -23 -53q-45 -68 -155 -68q-77 0 -115 50q-19 28 -15 53q4 2 5 3q3 -1 6.5 -4.5t12.5 -16.5q1 -1 3 -23q17 -18 62 -21q7 -1 13 -1h13q105 0 145 64q24 40 23 81q-1 5 -1 11q0 7 -1 15l-3 2q-32 24 -76 24h-10t-10 -1q-8 -2 -22 32l-4 5q112 20 125 87
q3 16 0 29q-23 17 -55 17q-8 0 -17.5 -1.5t-20.5 -3.5q-74 -17 -90 -95q-1 -4 -4 -4q-5 0 -20 21q-6 8 -4 15q11 51 46 78t86 27q65 0 95 -51q19 -33 12 -66q-9 -42 -57 -67q33 -19 49 -57.5t7 -80.5z" />
    <glyph glyph-name="acute" unicode="&#xb4;" horiz-adv-x="182" 
d="M327 713q-60 -26 -104 -70q-48 -50 -60 -105q-2 -6 -10 2q-22 20 -20 31q12 60 61 109q23 23 49 41.5t57 31.5q9 4 26 -31q2 -7 1 -9z" />
    <glyph glyph-name="mu" unicode="&#xb5;" horiz-adv-x="382" 
d="M378 -5q-2 -3 -5 -2q-48 30 -53 104q-27 -27 -54 -48q-73 -55 -115 -55q-48 0 -71 56l-80 -390q-1 -4 -3 -4q-8 0 -21 21q-5 9 -4 14l139 674q1 4 3 4q6 0 20 -21q6 -11 5 -15l-36 -174q-5 -23 -7 -61q-1 -17 5 -57v-1q11 -8 27 -8q23 0 48 13q89 44 149 125l40 195
q1 4 3 4q6 0 20 -21q6 -11 5 -15l-41 -196q-7 -37 -6 -76q1 -23 12 -30q6 -4 14 -16.5t6 -19.5z" />
    <glyph glyph-name="mu" unicode="&#x3bc;" horiz-adv-x="382" 
d="M378 -5q-2 -3 -5 -2q-48 30 -53 104q-27 -27 -54 -48q-73 -55 -115 -55q-48 0 -71 56l-80 -390q-1 -4 -3 -4q-8 0 -21 21q-5 9 -4 14l139 674q1 4 3 4q6 0 20 -21q6 -11 5 -15l-36 -174q-5 -23 -7 -61q-1 -17 5 -57v-1q11 -8 27 -8q23 0 48 13q89 44 149 125l40 195
q1 4 3 4q6 0 20 -21q6 -11 5 -15l-41 -196q-7 -37 -6 -76q1 -23 12 -30q6 -4 14 -16.5t6 -19.5z" />
    <glyph glyph-name="paragraph" unicode="&#xb6;" horiz-adv-x="470" 
d="M426 -86q0 -3 -3 -3h-57q-3 0 -7.5 4t-8.5 10t-6 12t-2 9l151 723h-75l-33 1l-158 -759h-59q-10 0 -20 25q-1 2 -2 4.5t-2 5.5q1 3 4 3l11 1h19q7 0 13 -0.5t11 -1.5l80 384q-83 2 -117 40q-60 68 -40 166q8 35 22 63q48 92 144 106q5 1 111 1h158q9 0 20 -26l3 -10
q1 -3 -2 -3h-54l-150 -720h25q9 0 21 -25zM290 371l62 299q-113 -5 -162 -78q-27 -39 -38 -88q-20 -98 35 -122q27 -11 103 -11z" />
    <glyph glyph-name="periodcentered" unicode="&#xb7;" horiz-adv-x="133" 
d="M163 254q-9 -32 -37 -32q-19 0 -39 32q-11 19 -7 31q8 32 37 32q19 0 39 -32q11 -20 7 -31z" />
    <glyph glyph-name="periodcentered" unicode="&#x2219;" horiz-adv-x="133" 
d="M163 254q-9 -32 -37 -32q-19 0 -39 32q-11 19 -7 31q8 32 37 32q19 0 39 -32q11 -20 7 -31z" />
    <glyph glyph-name="cedilla" unicode="&#xb8;" horiz-adv-x="234" 
d="M194 -106q-14 -66 -120 -66q-32 0 -66 6q-6 2 -16 20q-5 8 -5 13q0 3 5 5q34 -6 63 -6q36 0 66 11q38 16 46 48q1 5 1 15q-31 14 -79 1q-8 -2 -18 14t-6 22l45 83l5 -1q1 0 3 -2q24 -23 19 -31l-23 -41q50 0 72 -40q14 -25 8 -51z" />
    <glyph glyph-name="onesuperior" unicode="&#xb9;" horiz-adv-x="160" 
d="M178 272q-2 -6 -6 -3q-8 5 -17 20q-5 10 -4 14l66 317q-14 -14 -29.5 -26.5t-33.5 -23.5q-6 -5 -18 15q-11 20 -5 23q59 35 105 100h5q24 -20 21 -34z" />
    <glyph glyph-name="ordmasculine" unicode="&#xba;" horiz-adv-x="311" 
d="M416 626q-11 -48 -51 -82t-88 -34q-55 0 -92 46q-36 47 -23 101q10 46 51 81q40 34 88 34q56 0 91 -45t24 -101zM388 657q4 22 -1.5 38.5t-19 26t-33 11.5t-42.5 -4q-38 -10 -67 -38.5t-35 -64.5q-7 -35 10.5 -56.5t51.5 -21.5q54 0 100 44q29 29 36 65z" />
    <glyph glyph-name="guillemotright" unicode="&#xbb;" horiz-adv-x="281" 
d="M330 309q-100 -82 -113 -136q-1 -4 -3 -4q-7 0 -20 21q-5 10 -4 14q13 56 109 137q-7 11 -13 20.5t-11 17.5q-34 63 -27 103l5 4q5 -2 17 -21q5 -10 5 -14q-7 -41 37 -104q23 -33 18 -38zM216 309q-99 -82 -112 -136q-1 -4 -3 -4q-5 0 -20 21q-6 9 -4 14q13 56 109 137
q-7 11 -13 20.5t-11 17.5q-34 63 -27 103l5 4q5 -2 17 -21q5 -10 5 -14q-8 -44 36 -104q24 -33 18 -38z" />
    <glyph glyph-name="onequarter" unicode="&#xbc;" horiz-adv-x="805" 
d="M818 137q0 -2 -4 -3l-6 4q-2 0 -2 1l-2 1q-14 9 -55 9h-31l-30 -149q-1 -4 -3 -4q-8 0 -21 21q-5 9 -4 15l24 115q-35 -2 -70.5 -5t-70.5 -8q-6 -2 -17 15t-6 23q128 133 191 266l2 2q4 -2 9 -8q20 -21 15 -29q-52 -111 -150 -223q15 2 41.5 4t64.5 4l16 79q2 10 10 0
q19 -21 18 -31l-10 -47q63 0 86 -38q6 -11 5 -14zM685 672l-451 -674l-3 2q-3 0 -5 2q-23 23 -17 32l450 673l4 -2q4 0 5 -1q23 -25 17 -32zM198 270q-2 -6 -6 -3q-8 4 -18 21q-4 7 -3 13l66 318q-29 -29 -63 -49q-6 -4 -18 14q-10 19 -5 23q58 36 105 101h5q22 -21 21 -34z
" />
    <glyph glyph-name="onehalf" unicode="&#xbd;" horiz-adv-x="847" 
d="M829 -3q-2 -2 -3 -2q-8 0 -18 19l5 3q1 -2 2 -3.5t3 -3.5q-1 -2 -2 -2.5t-2 -1.5h-1q-19 11 -57 13q-38 1 -84 -5t-100 -17q-8 -2 -18 12q-9 14 -7 23q37 166 175 191q123 22 139 95q6 30 -3 57v1l-1 2l-1 2q-23 21 -64 21q-50 0 -91 -25q-46 -28 -65 -74q0 -1 -2 -3
l-3 3t-6 5q-18 21 -15 29q31 76 111 97q24 7 50 7q45 0 70 -22q63 -56 48 -129q-4 -19 -20 -39q-34 -43 -98 -60q-11 -2 -27 -5.5t-38 -8.5q-82 -31 -120 -133q26 5 52 8t52 5q30 2 50 1.5t30 -2.5q36 -9 56 -44q5 -8 3 -14zM685 672l-451 -674l-3 2q-3 0 -5 2
q-23 23 -17 32l450 673l4 -2q4 0 5 -1q23 -25 17 -32zM198 270q-2 -6 -6 -3q-8 4 -18 21q-4 7 -3 13l66 318q-29 -29 -63 -49q-6 -4 -18 14q-10 19 -5 23q58 36 105 101h5q22 -21 21 -34z" />
    <glyph glyph-name="threequarters" unicode="&#xbe;" horiz-adv-x="974" 
d="M978 137q0 -2 -4 -3l-6 4q-1 0 -2 1l-2 1q-14 9 -54 9h-32l-30 -149q-1 -4 -3 -4q-8 0 -21 21q-5 9 -4 15l24 115q-35 -2 -70.5 -5t-70.5 -8q-8 -2 -18 15q-10 16 -5 23q14 14 25 26t19 22q34 40 66 90q12 18 45 85q16 34 39 45q5 -2 8 -8q20 -21 15 -29
q-52 -111 -150 -223q15 2 41.5 4t64.5 4l16 79q2 10 10 0q19 -21 18 -31l-10 -47q64 0 87 -38q5 -10 4 -14zM817 672l-451 -674l-3 2q-3 0 -5 2q-23 23 -17 32l450 673l4 -2q4 0 5 -1q23 -25 17 -32zM407 386q-6 -27 -23 -53q-47 -69 -156 -69q-78 0 -114 50q-20 28 -15 54
q1 1 5 3q1 -1 2 -1.5t3 -2.5q6 -5 13 -17q1 -2 3 -24q22 -22 89 -22q103 0 144 65q24 39 24 81q-2 12 -3 26l-2 2q-32 24 -76 24h-10t-10 -1q-9 -2 -23 32l-3 6q110 18 125 87q3 15 0 29q-23 17 -55 17q-8 0 -17.5 -1.5t-20.5 -3.5q-73 -16 -91 -95q-1 -4 -3 -4q-5 0 -20 21
q-6 8 -4 15q10 51 45.5 78t86.5 27q65 0 94 -51q19 -32 13 -66q-9 -43 -58 -68q33 -19 49 -57.5t8 -80.5z" />
    <glyph glyph-name="questiondown" unicode="&#xbf;" horiz-adv-x="400" 
d="M342 490q0 -4 -2 -4q-8 0 -20 21q-5 10 -4 15l17 84q1 6 6 3q9 -6 18 -21q5 -8 3 -14zM388 11q-16 -82 -109 -108q-40 -11 -95 -7q-100 6 -141 83q-27 50 -13 118q13 64 54 114q47 56 109 61q24 1 30 3q18 3 28 10q16 13 25 35q11 30 11 61q2 2 5 3q4 -3 8 -8t9 -13
q5 -9 4 -12q2 -44 -15 -76q-13 -25 -35 -33q-13 -4 -44 -9q-30 -3 -43 -9q-83 -33 -115 -141q-32 -110 42 -136q36 -13 83 -13q59 0 107 23q56 29 68 84q3 17 2 31q1 1 6 3q29 -17 19 -64z" />
    <glyph glyph-name="Agrave" unicode="&#xc0;" horiz-adv-x="511" 
d="M489 773q-2 -2 -5 -3q-7 4 -18 20q-5 8 -4 14q18 90 -56 131q-12 6 -19 28q-1 2 -1 4t-1 3q2 4 5 2q52 -29 81 -81q31 -57 18 -118zM500 2l-2 -3q-4 0 -11 9q-12 15 -15 25q-27 116 -48 277h-198q-48 -90 -92.5 -166.5t-87.5 -140.5l-3 2q-2 0 -4 2q-24 23 -18 32
q42 64 86 139.5t92 163.5l-1 2q-2 5 3 5h1q53 98 98.5 188t85.5 174q2 2 2 3h3q12 -3 23 -35v1q5 -81 13 -169.5t19 -185.5q1 -2 2 -5t3 -7l-3 -3q23 -180 51 -302q1 -3 1 -6zM419 349q-8 72 -15.5 142.5t-12.5 141.5q-32 -66 -67.5 -136.5t-76.5 -147.5h172z" />
    <glyph glyph-name="Aacute" unicode="&#xc1;" horiz-adv-x="513" 
d="M537 943q-62 -26 -104 -70q-48 -50 -60 -105q-2 -5 -9 2q-22 22 -21 32q12 59 61 108q44 47 106 73q10 4 25 -31q3 -7 2 -9zM502 2l-2 -3q-4 0 -11 9q-12 15 -15 25q-27 116 -48 277h-198q-48 -90 -92.5 -166.5t-87.5 -140.5l-3 2q-2 0 -4 2q-24 23 -18 32
q42 64 86 139.5t92 163.5l-1 2q-2 5 3 5h1q53 98 98.5 188t85.5 174q2 2 2 3h3q12 -3 23 -35v1q5 -81 13 -169.5t19 -185.5q1 -2 2 -5t3 -7l-3 -3q23 -180 51 -302q1 -3 1 -6zM421 349q-8 72 -15.5 142.5t-12.5 141.5q-32 -66 -67.5 -136.5t-76.5 -147.5h172z" />
    <glyph glyph-name="Acircumflex" unicode="&#xc2;" horiz-adv-x="516" 
d="M551 776q-2 -2 -8 2q-62 46 -87 135q-54 -90 -133 -136q-6 -5 -18 15q-10 19 -5 22q96 57 146 164q3 4 9 -3q19 -19 18 -29q27 -107 59 -133q13 -11 18 -30q2 -6 1 -7zM504 2l-2 -3q-4 0 -11 9q-12 15 -15 25q-27 116 -48 277h-198q-48 -90 -92.5 -166.5t-87.5 -140.5
l-3 2q-2 0 -4 2q-24 23 -18 32q42 64 86 139.5t92 163.5l-1 2q-2 5 3 5h1q53 98 98.5 188t85.5 174q2 2 2 3h3q12 -3 23 -35v1q5 -81 13 -169.5t19 -185.5q1 -2 2 -5t3 -7l-3 -3q23 -180 51 -302q1 -3 1 -6zM423 349q-8 72 -15.5 142.5t-12.5 141.5q-32 -66 -67.5 -136.5
t-76.5 -147.5h172z" />
    <glyph glyph-name="Atilde" unicode="&#xc3;" 
d="M603 850q-8 -38 -29 -56q-25 -22 -59 -18q-48 6 -79 69q-3 7 -6 13t-6 13q-9 14 -22 18q-8 3 -19 3q-27 0 -48 -19t-27 -46q-1 -7 -1.5 -14t0.5 -15q-2 -2 -5 -3q-27 16 -19 54q8 36 30.5 57t56.5 17q48 -6 78 -67q3 -6 12 -27q15 -22 43 -22t48.5 18.5t26.5 46.5
q3 14 1 29q2 2 5 3q27 -16 19 -54zM510 2l-2 -3q-4 0 -11 9q-12 15 -15 25q-27 116 -48 277h-198q-48 -90 -92.5 -166.5t-87.5 -140.5l-3 2q-2 0 -4 2q-24 23 -18 32q42 64 86 139.5t92 163.5l-1 2q-2 5 3 5h1q53 98 98.5 188t85.5 174q2 2 2 3h3q12 -3 23 -35v1
q5 -81 13 -169.5t19 -185.5q1 -2 2 -5t3 -7l-3 -3q23 -180 51 -302q1 -3 1 -6zM429 349q-8 72 -15.5 142.5t-12.5 141.5q-32 -66 -67.5 -136.5t-76.5 -147.5h172z" />
    <glyph glyph-name="Adieresis" unicode="&#xc4;" horiz-adv-x="507" 
d="M495 802q0 -3 -2 -3q-7 0 -21 20q-7 8 -5 13l12 54q1 4 4 4q5 0 19 -21q6 -7 4 -13zM382 802q0 -3 -2 -3q-7 0 -21 20q-7 8 -5 13l12 54q1 4 4 4q5 0 19 -21q6 -7 4 -13zM499 2l-2 -3q-4 0 -11 9q-12 15 -15 25q-27 116 -48 277h-198q-48 -90 -92.5 -166.5t-87.5 -140.5
l-3 2q-2 0 -4 2q-24 23 -18 32q42 64 86 139.5t92 163.5l-1 2q-2 5 3 5h1q53 98 98.5 188t85.5 174q2 2 2 3h3q12 -3 23 -35v1q5 -81 13 -169.5t19 -185.5q1 -2 2 -5t3 -7l-3 -3q23 -180 51 -302q1 -3 1 -6zM418 349q-8 72 -15.5 142.5t-12.5 141.5q-32 -66 -67.5 -136.5
t-76.5 -147.5h172z" />
    <glyph glyph-name="Aring" unicode="&#xc5;" horiz-adv-x="523" 
d="M549 837q-9 -41 -44 -71t-75 -30q-47 0 -78 40q-31 39 -20 88q9 40 44 69q34 30 75 30q47 0 77 -39q31 -39 21 -87zM507 2l-2 -3q-4 0 -11 9q-12 15 -15 25q-27 116 -48 277h-198q-48 -90 -92.5 -166.5t-87.5 -140.5l-3 2q-2 0 -4 2q-24 23 -18 32q42 64 86 139.5
t92 163.5l-1 2q-2 5 3 5h1q53 98 98.5 188t85.5 174q2 2 2 3h3q12 -3 23 -35v1q5 -81 13 -169.5t19 -185.5q1 -2 2 -5t3 -7l-3 -3q23 -180 51 -302q1 -3 1 -6zM525 864q9 43 -21 57q-17 9 -36 9q-44 0 -82 -38q-26 -24 -30 -55q-8 -39 16.5 -57t64.5 -7q75 21 88 91z
M426 349q-8 72 -15.5 142.5t-12.5 141.5q-32 -66 -67.5 -136.5t-76.5 -147.5h172z" />
    <glyph glyph-name="AE" unicode="&#xc6;" horiz-adv-x="882" 
d="M869 0q-3 -3 -6 -5q-42 7 -86.5 10.5t-93.5 3.5q-51 0 -104 -3.5t-110 -10.5q-7 -1 -13 13q-13 16 -10 23q21 72 40.5 147t36.5 154h-181q-155 -186 -294 -336q-5 -5 -18 12t-7 25q118 126 258.5 293.5t306.5 381.5h3q80 0 157 -6l79 -5q42 0 81 3t77 8q6 2 14 -14
q8 -15 7 -20v-5q-45 -7 -91.5 -10.5t-96.5 -3.5q-49 0 -100 3t-106 10q-8 -72 -19.5 -145.5t-27.5 -151.5h237q9 0 20 -26l3 -10q1 -3 -2 -3h-266q-16 -71 -34 -144t-39 -150q48 5 92.5 7.5t86.5 2.5q49 0 95 -3.5t89 -10.5q14 -2 22 -34zM531 371q14 68 25 130.5t19 121.5
q-110 -141 -201 -252h157z" />
    <glyph glyph-name="Ccedilla" unicode="&#xc7;" horiz-adv-x="557" 
d="M654 563q-2 -9 -15 9q-9 13 -13 23v2q-3 9 -17 23q-52 55 -151 55q-115 0 -201 -61q-60 -42 -88 -103q-16 -34 -36 -136q-11 -57 -16.5 -101.5t-6.5 -78.5q-5 -132 49 -149q19 -6 43 -6q29 0 81 11q182 41 263 156l3 -2q-1 1 2 2l3 -3q24 -23 17 -33q-58 -85 -183 -133
q-55 -21 -97 -30l-13 -23q50 0 72 -40q14 -25 8 -51q-14 -66 -120 -66q-32 0 -66 6q-6 2 -17 20q-5 8 -5 13q0 3 5 5q34 -6 64 -6q36 0 66 11q38 16 46 48q1 5 1 15q-31 14 -79 1q-7 -1 -17 14q-10 16 -7 22l10 23h-14q-97 0 -128 106q-19 64 -12 149q2 29 6.5 62.5
t12.5 72.5q10 51 17 83.5t12 48.5q32 92 125 145q85 47 182 47q78 0 135 -37.5t78 -106.5q1 -3 1 -7z" />
    <glyph glyph-name="Egrave" unicode="&#xc8;" horiz-adv-x="453" 
d="M470 773q-2 -2 -5 -3q-7 4 -18 20q-5 8 -4 14q18 90 -56 131q-12 6 -19 28q-1 2 -1 4t-1 3q2 4 5 2q52 -29 81 -81q31 -57 18 -118zM453 7q-2 -3 -5 -5q-42 7 -87 10t-94 3t-102 -3.5t-111 -10.5q-7 0 -14 13q-11 16 -10 23q46 162 84 335l-1 1q0 1 2 3q19 91 32.5 173.5
t22.5 160.5q1 4 5 4q55 -7 106 -10.5t100 -3.5q48 0 94.5 3.5t93.5 10.5q7 1 21 -30q-2 -2 0 -4v-5q-45 -7 -91.5 -10.5t-97.5 -3.5q-49 0 -99.5 3.5t-104.5 10.5q-17 -145 -48 -298h237q9 0 20 -26l3 -10q1 -3 -2 -3h-266q-16 -71 -34 -144t-39 -150q48 5 93 7.5t87 2.5
q49 0 94.5 -3.5t88.5 -10.5q10 -1 22 -33z" />
    <glyph glyph-name="Eacute" unicode="&#xc9;" horiz-adv-x="454" 
d="M516 943q-62 -26 -104 -70q-48 -50 -60 -105q-2 -5 -9 2q-22 22 -21 32q12 58 62 108q45 48 105 73q10 4 25 -31q3 -7 2 -9zM454 7q-2 -3 -5 -5q-42 7 -87 10t-94 3t-102 -3.5t-111 -10.5q-7 0 -14 13q-11 16 -10 23q46 162 84 335l-1 1q0 1 2 3q19 91 32.5 173.5
t22.5 160.5q1 4 5 4q55 -7 106 -10.5t100 -3.5q48 0 94.5 3.5t93.5 10.5q7 1 21 -30q-2 -2 0 -4v-5q-45 -7 -91.5 -10.5t-97.5 -3.5q-49 0 -99.5 3.5t-104.5 10.5q-17 -145 -48 -298h237q9 0 20 -26l3 -10q1 -3 -2 -3h-266q-16 -71 -34 -144t-39 -150q48 5 93 7.5t87 2.5
q49 0 94.5 -3.5t88.5 -10.5q10 -1 22 -33z" />
    <glyph glyph-name="Ecircumflex" unicode="&#xca;" horiz-adv-x="456" 
d="M530 776q-2 -2 -8 2q-62 46 -87 135q-54 -90 -133 -136q-6 -5 -18 15q-10 19 -5 22q96 57 146 164q3 4 9 -3q19 -19 18 -29q27 -107 59 -133q13 -11 18 -30q2 -6 1 -7zM455 7q-2 -3 -5 -5q-42 7 -87 10t-94 3t-102 -3.5t-111 -10.5q-7 0 -14 13q-11 16 -10 23
q46 162 84 335l-1 1q0 1 2 3q19 91 32.5 173.5t22.5 160.5q1 4 5 4q55 -7 106 -10.5t100 -3.5q48 0 94.5 3.5t93.5 10.5q7 1 21 -30q-2 -2 0 -4v-5q-45 -7 -91.5 -10.5t-97.5 -3.5q-49 0 -99.5 3.5t-104.5 10.5q-17 -145 -48 -298h237q9 0 20 -26l3 -10q1 -3 -2 -3h-266
q-16 -71 -34 -144t-39 -150q48 5 93 7.5t87 2.5q49 0 94.5 -3.5t88.5 -10.5q10 -1 22 -33z" />
    <glyph glyph-name="Edieresis" unicode="&#xcb;" horiz-adv-x="455" 
d="M479 802q0 -3 -2 -3q-7 0 -21 20q-7 8 -5 13l12 54q1 4 4 4q5 0 19 -21q6 -7 4 -13zM366 802q0 -3 -2 -3q-7 0 -21 20q-7 8 -5 13l12 54q1 4 4 4q5 0 19 -21q6 -7 4 -13zM455 7q-2 -3 -5 -5q-42 7 -87 10t-94 3t-102 -3.5t-111 -10.5q-7 0 -14 13q-11 16 -10 23
q46 162 84 335l-1 1q0 1 2 3q19 91 32.5 173.5t22.5 160.5q1 4 5 4q55 -7 106 -10.5t100 -3.5q48 0 94.5 3.5t93.5 10.5q7 1 21 -30q-2 -2 0 -4v-5q-45 -7 -91.5 -10.5t-97.5 -3.5q-49 0 -99.5 3.5t-104.5 10.5q-17 -145 -48 -298h237q9 0 20 -26l3 -10q1 -3 -2 -3h-266
q-16 -71 -34 -144t-39 -150q48 5 93 7.5t87 2.5q49 0 94.5 -3.5t88.5 -10.5q10 -1 22 -33z" />
    <glyph glyph-name="Igrave" unicode="&#xcc;" horiz-adv-x="154" 
d="M308 773q-2 -2 -5 -3q-7 4 -18 20q-5 8 -4 14q18 90 -56 131q-12 6 -19 28q-1 2 -1 4t-1 3q2 4 5 2q52 -29 81 -81q31 -57 18 -118zM94 5q-1 -4 -7 -3q-7 3 -17 21q-5 10 -4 14l140 673q1 4 3 4q6 0 20 -21q6 -11 5 -14z" />
    <glyph glyph-name="Iacute" unicode="&#xcd;" horiz-adv-x="175" 
d="M366 943q-62 -26 -104 -70q-48 -50 -60 -105q-2 -5 -9 2q-22 21 -20 32q12 59 61 108q45 48 105 73q10 4 25 -31q3 -7 2 -9zM107 5q-1 -4 -7 -3q-7 3 -17 21q-5 10 -4 14l140 673q1 4 3 4q6 0 20 -21q6 -11 5 -14z" />
    <glyph glyph-name="Icircumflex" unicode="&#xce;" horiz-adv-x="273" 
d="M429 776q-2 -2 -8 2q-62 46 -87 135q-54 -90 -133 -136q-6 -5 -18 15q-10 19 -5 22q96 57 146 164q3 4 9 -3q19 -19 18 -29q27 -107 59 -133q13 -11 18 -30q2 -6 1 -7zM157 5q-1 -4 -7 -3q-7 3 -17 21q-5 10 -4 14l140 673q1 4 3 4q6 0 20 -21q6 -11 5 -14z" />
    <glyph glyph-name="Idieresis" unicode="&#xcf;" horiz-adv-x="158" 
d="M318 802q0 -3 -2 -3q-7 0 -21 20q-7 8 -5 13l12 54q1 4 4 4q5 0 19 -21q6 -7 4 -13zM205 802q0 -3 -2 -3q-7 0 -21 20q-7 8 -5 13l12 54q1 4 4 4q5 0 19 -21q6 -7 4 -13zM97 5q-1 -4 -7 -3q-7 3 -17 21q-5 10 -4 14l140 673q1 4 3 4q6 0 20 -21q6 -11 5 -14z" />
    <glyph glyph-name="Eth" unicode="&#xd0;" horiz-adv-x="566" 
d="M629 462q-2 -5 -9 -36q-1 -4 -1.5 -8t-1.5 -8l-40 -191q-20 -90 -52 -136q-44 -59 -127 -74q-50 -9 -86 -9q-77 0 -118 50q-27 35 -26 70q1 1 6 3q8 -5 17 -20q1 -5 6 -24q1 -11 8 -16q34 -26 116 -22q127 7 178 78q33 45 52 138l35 168q2 8 4.5 20t6.5 29t7 30t5 22
q19 102 -33 129q-34 18 -83 21q6 -1 -17 -1h-73h-155q-8 -68 -19 -137.5t-25 -142.5h159q9 0 20 -23l2 -4t2 -5q0 -2 -3 -2h-187l-1 -4q-37 -175 -87 -352q-3 -8 -11 1q-20 21 -17 31q23 82 44 162.5t38 161.5h-33q-9 0 -22 22l-3 9q0 3 3 3h62q33 160 51 315v1q1 3 3 3h226
q57 0 84 -10q46 -16 75.5 -53t31.5 -85q2 -38 -12 -104z" />
    <glyph glyph-name="Ntilde" unicode="&#xd1;" horiz-adv-x="517" 
d="M594 850q-8 -38 -29 -56q-24 -23 -59 -18q-46 6 -79 69q-3 7 -6 13t-6 13q-9 14 -22 18q-8 3 -19 3q-27 0 -48 -19t-27 -46q-1 -7 -1.5 -14t0.5 -15q-2 -2 -5 -3q-27 16 -19 54q8 36 30.5 57t56.5 17q50 -6 78 -67q3 -6 12 -27q15 -22 43 -22t48.5 18.5t26.5 46.5
q3 14 1 29q2 2 5 3q27 -16 19 -54zM489 5l-4 -4q-8 0 -12 10l-2 4q-5 6 -10 21q6 66 -48 204q-35 91 -87.5 196t-123.5 226q-11 -92 -24.5 -177t-30.5 -165q-34 -165 -83 -316q-2 -3 -3 -3q-6 0 -14 14q-12 14 -10 22v1q7 29 17.5 73t26.5 104t26.5 104t16.5 73
q17 84 30.5 162.5t22.5 153.5q-2 3 2 5l-1 -1q1 1 3 1q14 0 22 -27q103 -171 170 -312t99 -254q14 90 26.5 165t25.5 136q17 80 36 152t41 138q1 3 3 3q6 0 14 -14q12 -14 10 -22h-1q-47 -162 -81 -328q-35 -167 -57 -345z" />
    <glyph glyph-name="Ograve" unicode="&#xd2;" horiz-adv-x="547" 
d="M506 773q-2 -2 -5 -3q-7 4 -18 20q-4 7 -4 14q18 90 -56 131q-12 6 -19 28q-1 2 -1 4t-1 3q2 4 5 2q54 -29 82 -81q30 -58 17 -118zM599 335q-24 -117 -83 -200q-74 -102 -180 -126q-37 -8 -61 -8q-92 0 -146 88q-71 116 -36 284q28 138 104 230q90 110 218 110
q71 0 114 -43q116 -113 70 -335zM576 388q37 214 -65 269q-33 18 -76 18q-95 0 -171 -66q-107 -94 -143 -267q-46 -226 61 -284q33 -18 77 -18q98 0 178 74q109 100 139 274z" />
    <glyph glyph-name="Oacute" unicode="&#xd3;" horiz-adv-x="548" 
d="M553 943q-62 -26 -104 -70q-48 -50 -60 -105q-2 -5 -9 2q-22 22 -21 32q12 59 61 108q44 47 106 73q10 4 25 -31q3 -7 2 -9zM600 335q-24 -117 -83 -200q-74 -102 -180 -126q-37 -8 -61 -8q-92 0 -146 88q-71 116 -36 284q28 138 104 230q90 110 218 110q71 0 114 -43
q116 -113 70 -335zM577 388q37 214 -65 269q-33 18 -76 18q-95 0 -171 -66q-107 -94 -143 -267q-46 -226 61 -284q33 -18 77 -18q98 0 178 74q109 100 139 274z" />
    <glyph glyph-name="Ocircumflex" unicode="&#xd4;" horiz-adv-x="550" 
d="M566 776q-2 -2 -8 2q-62 46 -87 135q-54 -90 -133 -136q-6 -5 -18 15q-10 19 -5 22q96 57 146 164q3 4 9 -3q19 -19 18 -29q27 -107 59 -133q13 -11 18 -30q2 -6 1 -7zM601 335q-24 -117 -83 -200q-74 -102 -180 -126q-37 -8 -61 -8q-92 0 -146 88q-71 116 -36 284
q28 138 104 230q90 110 218 110q71 0 114 -43q116 -113 70 -335zM578 388q37 214 -65 269q-33 18 -76 18q-95 0 -171 -66q-107 -94 -143 -267q-46 -226 61 -284q33 -18 77 -18q98 0 178 74q109 100 139 274z" />
    <glyph glyph-name="Otilde" unicode="&#xd5;" horiz-adv-x="559" 
d="M616 850q-8 -38 -29 -56q-25 -22 -59 -18q-48 6 -79 69q-3 7 -6 13t-6 13q-9 14 -22 18q-8 3 -19 3q-27 0 -48 -19t-27 -46q-1 -7 -1.5 -14t0.5 -15q-2 -2 -5 -3q-27 16 -19 54q8 36 30.5 57t56.5 17q48 -6 78 -67q3 -6 12 -27q15 -22 43 -22t48.5 18.5t26.5 46.5
q3 14 1 29q2 2 5 3q27 -16 19 -54zM605 335q-24 -117 -83 -200q-74 -102 -180 -126q-37 -8 -61 -8q-92 0 -146 88q-71 116 -36 284q28 138 104 230q90 110 218 110q71 0 114 -43q116 -113 70 -335zM582 388q37 214 -65 269q-33 18 -76 18q-95 0 -171 -66q-107 -94 -143 -267
q-46 -226 61 -284q33 -18 77 -18q98 0 178 74q109 100 139 274z" />
    <glyph glyph-name="Odieresis" unicode="&#xd6;" horiz-adv-x="550" 
d="M515 802q0 -3 -2 -3q-7 0 -21 20q-7 8 -5 13l12 54q1 4 4 4q5 0 19 -21q6 -7 4 -13zM402 802q0 -3 -2 -3q-7 0 -21 20q-7 8 -5 13l12 54q1 4 4 4q5 0 19 -21q6 -7 4 -13zM601 335q-24 -117 -83 -200q-74 -102 -180 -126q-37 -8 -61 -8q-92 0 -146 88q-71 116 -36 284
q28 138 104 230q90 110 218 110q71 0 114 -43q116 -113 70 -335zM578 388q37 214 -65 269q-33 18 -76 18q-95 0 -171 -66q-107 -94 -143 -267q-46 -226 61 -284q33 -18 77 -18q98 0 178 74q109 100 139 274z" />
    <glyph glyph-name="multiply" unicode="&#xd7;" horiz-adv-x="325" 
d="M338 191q-1 -7 -13 7l-88 108l-141 -114q-1 -1 -2 -1q-3 0 -7.5 4t-8 10t-6 11.5t-2.5 8.5l1 1q0 1 1 2l137 112l-75 94q-17 21 -15 30q2 10 14 -6l87 -109l141 115q5 5 17 -14q12 -18 7 -23l-137 -112l75 -93q16 -22 15 -31z" />
    <glyph glyph-name="Oslash" unicode="&#xd8;" horiz-adv-x="561" 
d="M606 335q-24 -117 -83 -200q-74 -102 -180 -126q-37 -8 -61 -8q-66 0 -112 45l-61 -90l-3 2q-2 0 -4 2q-23 23 -18 32l59 87q-80 118 -43 294q28 138 104 230q90 110 218 110q71 0 114 -43l1 -2l64 94l5 -2q1 0 3 -2q22 -24 17 -32l-60 -90q80 -112 40 -301zM583 388
q28 165 -26 236l-376 -562q35 -22 85 -22q98 0 178 74q109 100 139 274zM527 652q-37 23 -85 23q-95 0 -171 -66q-107 -94 -143 -267q-37 -178 22 -252z" />
    <glyph glyph-name="Ugrave" unicode="&#xd9;" horiz-adv-x="529" 
d="M496 773q-2 -2 -5 -3q-7 4 -18 20q-5 8 -4 14q18 90 -56 131q-12 6 -19 28q-1 2 -1 4t-1 3q2 4 5 2q52 -29 81 -81q31 -57 18 -118zM558 249q-30 -147 -136 -210q-65 -39 -146 -39q-59 0 -104 24q-80 44 -98 147q-7 45 3 106q-2 -17 24 108l67 325q1 4 3 4q6 0 20 -21
q6 -11 5 -14l-76 -363q-9 -44 -14 -70.5t-6 -36.5q-18 -169 155 -169q154 0 233 130q30 49 42 106l90 434q1 4 3 4q6 0 20 -21q6 -11 5 -14z" />
    <glyph glyph-name="Uacute" unicode="&#xda;" 
d="M542 943q-62 -26 -104 -70q-48 -50 -60 -105q-2 -5 -9 2q-22 22 -21 32q12 58 62 108q45 48 105 73q10 4 25 -31q3 -7 2 -9zM559 249q-30 -147 -136 -210q-65 -39 -146 -39q-59 0 -104 24q-80 44 -98 147q-7 45 3 106q-2 -17 24 108l67 325q1 4 3 4q6 0 20 -21
q6 -11 5 -14l-76 -363q-9 -44 -14 -70.5t-6 -36.5q-18 -169 155 -169q154 0 233 130q30 49 42 106l90 434q1 4 3 4q6 0 20 -21q6 -11 5 -14z" />
    <glyph glyph-name="Ucircumflex" unicode="&#xdb;" horiz-adv-x="533" 
d="M557 776q-2 -2 -8 2q-62 46 -87 135q-54 -90 -133 -136q-6 -5 -18 15q-10 19 -5 22q96 57 146 164q3 4 9 -3q19 -19 18 -29q27 -107 59 -133q13 -11 18 -30q2 -6 1 -7zM561 249q-30 -147 -136 -210q-65 -39 -146 -39q-59 0 -104 24q-80 44 -98 147q-7 45 3 106
q-2 -17 24 108l67 325q1 4 3 4q6 0 20 -21q6 -11 5 -14l-76 -363q-9 -44 -14 -70.5t-6 -36.5q-18 -169 155 -169q154 0 233 130q30 49 42 106l90 434q1 4 3 4q6 0 20 -21q6 -11 5 -14z" />
    <glyph glyph-name="Udieresis" unicode="&#xdc;" horiz-adv-x="534" 
d="M506 802q0 -3 -2 -3q-7 0 -21 20q-7 8 -5 13l12 54q1 4 4 4q5 0 19 -21q6 -7 4 -13zM393 802q0 -3 -2 -3q-7 0 -21 20q-7 8 -5 13l12 54q1 4 4 4q5 0 19 -21q6 -7 4 -13zM561 249q-30 -147 -136 -210q-65 -39 -146 -39q-59 0 -104 24q-80 44 -98 147q-7 45 3 106
q-2 -17 24 108l67 325q1 4 3 4q6 0 20 -21q6 -11 5 -14l-76 -363q-9 -44 -14 -70.5t-6 -36.5q-18 -169 155 -169q154 0 233 130q30 49 42 106l90 434q1 4 3 4q6 0 20 -21q6 -11 5 -14z" />
    <glyph glyph-name="Yacute" unicode="&#xdd;" horiz-adv-x="495" 
d="M526 943q-62 -26 -104 -70q-48 -50 -60 -105q-2 -5 -9 2q-22 22 -21 32q12 58 62 108q45 48 105 73q10 4 25 -31q3 -7 2 -9zM629 675q-153 -108 -254 -264q-38 -59 -44 -85l-66 -321q-1 -4 -3 -4q-8 0 -21 21q-5 9 -4 15l68 328q2 4 3 7l-1 1q-32 198 -138 306
q-10 10 -16 25q-3 8 1 9q3 1 7 -3q42 -42 84 -111q57 -94 80 -190q5 10 13 22t19 28q23 33 51.5 67.5t63.5 69.5q70 73 133 117q6 4 16 -16q10 -19 8 -21v-1z" />
    <glyph glyph-name="Thorn" unicode="&#xde;" horiz-adv-x="322" 
d="M392 340q-6 -32 -19 -59q-39 -85 -101 -85h-155q-13 -55 -25.5 -103t-24.5 -90q-3 -8 -11 1q-21 20 -16 31q28 99 50.5 189.5t39.5 175.5q17 83 29.5 159.5t20.5 148.5q0 3 5 3q8 -6 18 -20q5 -9 4 -14q-3 -32 -8.5 -72t-13.5 -89h118q29 0 46 -14q66 -54 43 -162z
M361 357q21 90 4 105l-2 2q-10 13 -32 13h-153q-5 -29 -10.5 -58t-12.5 -60q-6 -30 -13 -61t-15 -63h126q39 0 72 44q25 34 36 78z" />
    <glyph glyph-name="germandbls" unicode="&#xdf;" horiz-adv-x="464" 
d="M479 161q-34 -163 -176 -163q-78 0 -109 76q-15 35 -7 73q1 1 5 3q1 -1 2 -1.5t3 -2.5q19 -15 18 -49q-1 -22 2 -34v-1l1 -2q1 -1 1 -2q20 -20 63 -20q136 0 171 164q13 61 -12 96q-20 31 -77 53q-40 11 -41 12q-20 5 -35 20q-28 28 -22 57q5 21 28 36q28 13 78 48
q49 45 51 84q2 29 -5 45q-25 20 -62 20q-111 0 -140 -143l-110 -527q-1 -4 -3 -4q-7 0 -20 22q-5 9 -4 14l68 330q0 1 -1 1l-1 2q-14 11 -18 26v2q-3 7 3 7h25l4 19h-18q-9 0 -20 26q-1 2 -1.5 5t-1.5 5q-2 3 2 3h47l20 96q5 26 14.5 48.5t22.5 41.5q45 65 113 65
q51 0 80 -33q45 -54 35 -105q-12 -57 -70 -99q-29 -14 -78 -48q-10 -12 -12 -20l91 -36q36 -15 70 -65q43 -63 26 -145z" />
    <glyph glyph-name="agrave" unicode="&#xe0;" horiz-adv-x="327" 
d="M332 463q-2 -2 -6 -3q-7 4 -18 20q-4 7 -4 14q20 90 -56 131q-12 7 -19 28q-1 3 -1 7q2 3 4 2q52 -29 81 -81q31 -56 19 -118zM308 6q-1 -4 -4 -4q-7 0 -20 21q-5 10 -4 14l12 56q-14 -14 -30.5 -27t-33.5 -24q-59 -40 -94 -40q-51 0 -74 68q-12 38 -3 104q14 92 25 116
q19 39 67 64q40 21 86 21q55 0 105 -50l10 47q1 4 3 4q5 0 19 -21q6 -11 5 -15zM310 178l26 127q-38 32 -81 32q-31 0 -64 -13q-66 -26 -86 -77q-8 -22 -17 -78q-14 -82 -2 -120q17 -14 44 -6q47 12 99 53q47 37 81 82z" />
    <glyph glyph-name="aacute" unicode="&#xe1;" horiz-adv-x="331" 
d="M377 633q-29 -13 -55 -30t-48 -40q-50 -50 -60 -105q-2 -5 -10 2q-22 21 -20 32q12 59 61 108q47 48 105 73q9 4 26 -31q3 -6 1 -9zM309 6q-1 -4 -4 -4q-7 0 -20 21q-5 10 -4 14l12 56q-14 -14 -30.5 -27t-33.5 -24q-59 -40 -94 -40q-51 0 -74 68q-12 38 -3 104
q14 92 25 116q19 39 67 64q40 21 86 21q55 0 105 -50l10 47q1 4 3 4q5 0 19 -21q6 -11 5 -15zM311 178l26 127q-38 32 -81 32q-31 0 -64 -13q-66 -26 -86 -77q-8 -22 -17 -78q-14 -82 -2 -120q17 -14 44 -6q47 12 99 53q47 37 81 82z" />
    <glyph glyph-name="acircumflex" unicode="&#xe2;" horiz-adv-x="333" 
d="M392 466q-2 -2 -7 2q-62 46 -87 135q-53 -89 -133 -136q-6 -5 -18 15q-10 19 -6 22q96 57 146 164q3 4 10 -3q19 -19 18 -29q25 -106 58 -133q15 -11 19 -30q1 -6 0 -7zM311 6q-1 -4 -4 -4q-7 0 -20 21q-5 10 -4 14l12 56q-14 -14 -30.5 -27t-33.5 -24q-59 -40 -94 -40
q-51 0 -74 68q-12 38 -3 104q14 92 25 116q19 39 67 64q40 21 86 21q55 0 105 -50l10 47q1 4 3 4q5 0 19 -21q6 -11 5 -15zM313 178l26 127q-38 32 -81 32q-31 0 -64 -13q-66 -26 -86 -77q-8 -22 -17 -78q-14 -82 -2 -120q17 -14 44 -6q47 12 99 53q47 37 81 82z" />
    <glyph glyph-name="atilde" unicode="&#xe3;" horiz-adv-x="353" 
d="M428 540q-8 -35 -25 -54q-23 -25 -55 -20q-40 6 -67 69q-10 23 -20 37t-26 10q-25 0 -44 -19.5t-24 -45.5q-3 -15 -2 -29q-2 -2 -5 -3q-23 16 -15 54q8 36 26 54q23 24 53 20q42 -6 67 -67q3 -6 9 -27q13 -22 39 -22t44 19t23 46q3 14 1 29q1 1 6 3q22 -17 15 -54zM321 6
q-1 -4 -4 -4q-7 0 -20 21q-5 10 -4 14l12 56q-14 -14 -30.5 -27t-33.5 -24q-59 -40 -94 -40q-51 0 -74 68q-12 38 -3 104q14 92 25 116q19 39 67 64q40 21 86 21q55 0 105 -50l10 47q1 4 3 4q5 0 19 -21q6 -11 5 -15zM323 178l26 127q-38 32 -81 32q-31 0 -64 -13
q-66 -26 -86 -77q-8 -22 -17 -78q-14 -82 -2 -120q17 -14 44 -6q47 12 99 53q47 37 81 82z" />
    <glyph glyph-name="adieresis" unicode="&#xe4;" horiz-adv-x="339" 
d="M344 492q-2 -3 -3 -3q-7 0 -21 20q-5 9 -4 13l11 54q1 4 4 4q6 0 20 -21q5 -9 4 -13zM231 492q-2 -3 -3 -3q-7 0 -21 20q-5 9 -4 13l11 54q1 4 4 4q6 0 20 -21q5 -9 4 -13zM313 6q-1 -4 -4 -4q-7 0 -20 21q-5 10 -4 14l12 56q-14 -14 -30.5 -27t-33.5 -24
q-59 -40 -94 -40q-51 0 -74 68q-12 38 -3 104q14 92 25 116q19 39 67 64q40 21 86 21q55 0 105 -50l10 47q1 4 3 4q5 0 19 -21q6 -11 5 -15zM315 178l26 127q-38 32 -81 32q-31 0 -64 -13q-66 -26 -86 -77q-8 -22 -17 -78q-14 -82 -2 -120q17 -14 44 -6q47 12 99 53
q47 37 81 82z" />
    <glyph glyph-name="aring" unicode="&#xe5;" horiz-adv-x="344" 
d="M391 527q-7 -40 -43 -71q-35 -30 -76 -30q-47 0 -78 40q-30 40 -19 88q4 20 16 38t28 31.5t35 21.5t39 8q48 0 78 -39q30 -40 20 -87zM316 6q-1 -4 -4 -4q-7 0 -20 21q-5 10 -4 14l12 56q-14 -14 -30.5 -27t-33.5 -24q-59 -40 -94 -40q-51 0 -74 68q-12 38 -3 104
q14 92 25 116q19 39 67 64q40 21 86 21q55 0 105 -50l10 47q1 4 3 4q5 0 19 -21q6 -11 5 -15zM368 554q9 43 -20 57q-20 9 -37 9q-44 0 -82 -38q-24 -24 -31 -55q-6 -39 18 -57t64 -7q73 21 88 91zM318 178l26 127q-38 32 -81 32q-31 0 -64 -13q-66 -26 -86 -77
q-8 -22 -17 -78q-14 -82 -2 -120q17 -14 44 -6q47 12 99 53q47 37 81 82z" />
    <glyph glyph-name="ae" unicode="&#xe6;" horiz-adv-x="611" 
d="M629 243q-10 -46 -113 -67q-64 -13 -159 -13v-3q-4 -17 -6 -35.5t-1 -37.5v-19t1 -12q3 -18 19 -21q23 -5 67 6q91 21 131 75l4 -2q-1 0 1 2l3 -3q25 -22 17 -33q-40 -55 -128 -76q-38 -9 -56 -9q-33 0 -49 18q-34 37 -37 90q-12 -13 -26.5 -26t-31.5 -26
q-74 -56 -128 -56q-52 0 -71.5 31.5t-9.5 82.5q15 73 85 86q16 3 32 5t33 3q24 1 63 0l61 -2l2 7q5 26 9.5 44t6.5 29q6 22 6 39q-17 8 -66 10q-121 1 -163 -54l-4 2q0 -1 -1 -2l-2 3q-25 24 -19 32q43 60 156 58q7 0 23 -1.5t41 -3.5q42 -9 57 -47q53 53 133 53
q83 0 115 -77q10 -24 5 -50zM602 280q2 15 -2 29l-1 2l-1 1q-22 19 -65 19q-24 0 -48 -6q-78 -20 -105 -72q-4 -8 -6.5 -15.5t-4.5 -15.5l-5 -20q141 1 201 36q39 22 37 42zM318 163q-48 1 -80.5 0.5t-50.5 -2.5q-87 -11 -102 -84q-2 -8 -4 -20v-7t-1 -12q7 -1 20 -3
q45 -2 75 12q86 41 143 116z" />
    <glyph glyph-name="ccedilla" unicode="&#xe7;" horiz-adv-x="335" 
d="M369 281q-2 -8 -14 7q-41 48 -102 48q-32 0 -68 -14q-40 -17 -59 -42q-18 -24 -32 -95q-18 -97 -5 -136q6 -6 20 -8q48 -4 103 18q58 22 89 64l5 -2q-1 1 0 2l3 -3q25 -23 18 -33q-39 -50 -117 -73q-8 -2 -16.5 -4t-16.5 -4l-12 -21q50 0 72 -40q14 -25 8 -51
q-14 -66 -120 -66q-32 0 -66 6q-6 2 -17 20q-5 8 -5 13q0 3 5 5q34 -6 64 -6q36 0 66 11q38 16 46 48q1 5 1 15q-31 14 -79 1q-8 -2 -18 14t-6 22l15 26q-17 2 -25 7q-65 39 -44 180l3 21t5 34q6 33 21 55q46 75 147 75q62 0 115 -63q18 -20 16 -31z" />
    <glyph glyph-name="egrave" unicode="&#xe8;" horiz-adv-x="325" 
d="M331 463q-2 -2 -6 -3q-7 4 -18 20q-2 6 -4 14q20 90 -56 131q-12 7 -19 28q-1 3 -1 7q2 3 4 2q54 -29 82 -81q30 -57 18 -118zM358 249q-17 -77 -270 -80l-1 -2q-11 -57 -5 -105q3 -17 18 -20q28 -5 67 5q91 22 131 76l4 -2q-1 0 1 2l3 -3q25 -23 18 -33
q-42 -57 -128 -77q-37 -8 -56 -8q-33 0 -49 18q-51 55 -33 172q5 29 9 49t8 31q17 50 67 79q46 26 98 26q85 0 115 -77q9 -24 3 -51zM332 287q2 10 -2 28l-1 3v1q-23 18 -66 18q-23 0 -48 -6q-90 -21 -112 -87q-5 -14 -9 -36q35 1 67.5 4.5t64.5 9.5q109 22 106 65z" />
    <glyph glyph-name="eacute" unicode="&#xe9;" horiz-adv-x="329" 
d="M377 633q-29 -13 -55 -30t-48 -40q-50 -50 -60 -105q-2 -6 -10 2q-22 21 -20 32q12 58 60 108q23 23 49 41.5t57 31.5q9 4 26 -31q3 -6 1 -9zM359 249q-17 -77 -270 -80l-1 -2q-11 -57 -5 -105q3 -17 18 -20q28 -5 67 5q91 22 131 76l4 -2q-1 0 1 2l3 -3q25 -23 18 -33
q-42 -57 -128 -77q-37 -8 -56 -8q-33 0 -49 18q-51 55 -33 172q5 29 9 49t8 31q17 50 67 79q46 26 98 26q85 0 115 -77q9 -24 3 -51zM333 287q2 10 -2 28l-1 3v1q-23 18 -66 18q-23 0 -48 -6q-90 -21 -112 -87q-5 -14 -9 -36q35 1 67.5 4.5t64.5 9.5q109 22 106 65z" />
    <glyph glyph-name="ecircumflex" unicode="&#xea;" horiz-adv-x="330" 
d="M391 466q-2 -2 -7 2q-62 46 -87 135q-53 -89 -133 -136q-6 -5 -18 15q-10 19 -6 22q96 57 146 164q3 4 10 -3q19 -19 18 -29q25 -106 58 -133q14 -10 19 -30q1 -6 0 -7zM361 249q-17 -77 -270 -80l-1 -2q-11 -57 -5 -105q3 -17 18 -20q28 -5 67 5q91 22 131 76l4 -2
q-1 0 1 2l3 -3q25 -23 18 -33q-42 -57 -128 -77q-37 -8 -56 -8q-33 0 -49 18q-51 55 -33 172q5 29 9 49t8 31q17 50 67 79q46 26 98 26q85 0 115 -77q9 -24 3 -51zM335 287q2 10 -2 28l-1 3v1q-23 18 -66 18q-23 0 -48 -6q-90 -21 -112 -87q-5 -14 -9 -36q35 1 67.5 4.5
t64.5 9.5q109 22 106 65z" />
    <glyph glyph-name="edieresis" unicode="&#xeb;" horiz-adv-x="335" 
d="M343 492q-2 -3 -3 -3q-7 0 -21 20q-5 9 -4 13l11 54q1 4 4 4q6 0 20 -21q5 -9 4 -13zM230 492q-2 -3 -3 -3q-7 0 -21 20q-5 9 -4 13l11 54q1 4 4 4q6 0 20 -21q5 -9 4 -13zM363 249q-17 -77 -270 -80l-1 -2q-11 -57 -5 -105q3 -17 18 -20q28 -5 67 5q91 22 131 76l4 -2
q-1 0 1 2l3 -3q25 -23 18 -33q-42 -57 -128 -77q-37 -8 -56 -8q-33 0 -49 18q-51 55 -33 172q5 29 9 49t8 31q17 50 67 79q46 26 98 26q85 0 115 -77q9 -24 3 -51zM337 287q2 10 -2 28l-1 3v1q-23 18 -66 18q-23 0 -48 -6q-90 -21 -112 -87q-5 -14 -9 -36q35 1 67.5 4.5
t64.5 9.5q109 22 106 65z" />
    <glyph glyph-name="igrave" unicode="&#xec;" horiz-adv-x="155" 
d="M245 463q-2 -2 -6 -3q-7 4 -18 20q-4 7 -4 14q20 90 -56 131q-12 7 -19 28q-1 3 -1 7q2 3 4 2q52 -29 81 -81q31 -56 19 -118zM95 6q-1 -4 -4 -4q-7 0 -20 22q-5 10 -4 13l70 336q1 4 3 4q6 0 20 -21q5 -12 5 -14z" />
    <glyph glyph-name="iacute" unicode="&#xed;" horiz-adv-x="178" 
d="M300 633q-29 -13 -55 -30t-48 -40q-50 -50 -60 -105q-2 -5 -10 2q-20 22 -19 32q12 58 60 108q47 48 105 73q9 4 26 -31q3 -6 1 -9zM106 6q-1 -4 -4 -4q-7 0 -20 22q-5 10 -4 13l70 336q1 4 3 4q6 0 20 -21q5 -12 5 -14z" />
    <glyph glyph-name="icircumflex" unicode="&#xee;" horiz-adv-x="273" 
d="M364 466q-2 -2 -7 2q-62 46 -87 135q-53 -89 -133 -136q-6 -5 -18 15q-10 19 -6 22q96 57 146 164q3 4 10 -3q19 -19 18 -29q25 -106 58 -133q15 -11 19 -30q1 -6 0 -7zM157 6q-1 -4 -4 -4q-7 0 -20 22q-5 10 -4 13l70 336q1 4 3 4q6 0 20 -21q5 -12 5 -14z" />
    <glyph glyph-name="idieresis" unicode="&#xef;" horiz-adv-x="175" 
d="M262 492q-2 -3 -3 -3q-7 0 -21 20q-5 9 -4 13l11 54q1 4 4 4q6 0 20 -21q5 -9 4 -13zM149 492q-2 -3 -3 -3q-7 0 -21 20q-5 9 -4 13l11 54q1 4 4 4q6 0 20 -21q5 -9 4 -13zM105 6q-1 -4 -4 -4q-7 0 -20 22q-5 10 -4 13l70 336q1 4 3 4q6 0 20 -21q5 -12 5 -14z" />
    <glyph glyph-name="eth" unicode="&#xf0;" horiz-adv-x="494" 
d="M511 198q-19 -90 -94 -146q-74 -56 -162 -56q-93 0 -154 69q-61 68 -41 162q12 60 54 107q82 93 203 93q119 0 175 -107q2 131 -45 227q-63 7 -115 -45q-4 -3 -10 3q-19 20 -17 30q0 2 1 3q53 53 114 49l4 -1q-30 49 -76 85q-16 11 -20 30q-1 5 1 7t6 -2q63 -49 108 -121
q59 -2 95 39q3 2 5 0q24 -21 21 -33q0 -3 -1 -4q-37 -42 -98 -41q35 -75 47 -157q17 -110 -1 -191zM483 227q19 86 -37 127q-46 34 -111 34q-83 0 -156 -54q-77 -56 -93 -138q-15 -78 28 -121q41 -41 120 -41q85 0 157 54q72 55 92 139z" />
    <glyph glyph-name="ntilde" unicode="&#xf1;" horiz-adv-x="336" 
d="M421 540q-8 -35 -25 -54q-23 -25 -55 -20q-40 6 -67 69q-3 7 -6 13t-5 12q-8 15 -16.5 18.5t-18.5 3.5q-25 0 -44 -19.5t-24 -45.5q-3 -12 -1 -29q-2 -2 -6 -3q-22 16 -14 54q8 35 25 54q23 24 53 20q43 -6 68 -67q1 -6 9 -27q13 -22 38 -22q26 0 44 19t23 46q3 14 1 29
q1 1 6 3q22 -17 15 -54zM313 6q-1 -4 -4 -4q-7 0 -20 21q-5 9 -4 14q2 10 5 24.5t8 34.5t8.5 34.5t5.5 24.5q13 64 15 116q1 21 -5 58q-11 8 -26 8q-22 0 -48 -13q-90 -45 -149 -125l-40 -193q-1 -4 -3 -4q-8 0 -21 21q-5 9 -4 14l40 193q0 2 1 3l29 139q1 4 3 4q5 0 19 -21
q6 -11 5 -15l-11 -56q17 18 41 36q71 55 114 55q66 0 81 -86q7 -51 -18 -174z" />
    <glyph glyph-name="ograve" unicode="&#xf2;" horiz-adv-x="321" 
d="M328 463q-2 -2 -6 -3q-7 4 -18 20q-2 6 -4 14q20 90 -56 131q-12 7 -19 28q-1 3 -1 7q2 3 4 2q54 -29 82 -81q30 -57 18 -118zM339 173q-14 -65 -59 -115q-53 -57 -113 -57q-67 0 -101 75q-24 55 -8 128q14 66 60 115q51 57 113 57q7 0 12.5 -0.5t10.5 -1.5
q56 -10 79 -78q19 -59 6 -123zM312 204q15 73 -5 113q-9 20 -49 20q-73 0 -127 -67q-34 -43 -46 -97q-14 -75 4 -112q10 -21 50 -21q74 0 128 68q34 42 45 96z" />
    <glyph glyph-name="oacute" unicode="&#xf3;" horiz-adv-x="326" 
d="M376 633q-29 -13 -55 -30t-48 -40q-50 -50 -60 -105q-2 -6 -10 2q-22 21 -20 32q12 58 60 108q23 23 49 41.5t57 31.5q9 4 26 -31q3 -6 1 -9zM342 173q-14 -65 -59 -115q-53 -57 -113 -57q-67 0 -101 75q-24 55 -8 128q14 66 60 115q51 57 113 57q7 0 12.5 -0.5
t10.5 -1.5q56 -10 79 -78q19 -59 6 -123zM315 204q15 73 -5 113q-9 20 -49 20q-73 0 -127 -67q-34 -43 -46 -97q-14 -75 4 -112q10 -21 50 -21q74 0 128 68q34 42 45 96z" />
    <glyph glyph-name="ocircumflex" unicode="&#xf4;" horiz-adv-x="337" 
d="M393 466q-2 -2 -7 2q-62 46 -87 135q-53 -89 -133 -136q-6 -5 -18 15q-10 19 -6 22q96 57 146 164q3 4 10 -3q19 -19 18 -29q25 -106 58 -133q14 -10 19 -30q1 -6 0 -7zM347 173q-14 -65 -59 -115q-53 -57 -113 -57q-67 0 -101 75q-24 55 -8 128q14 66 60 115
q51 57 113 57q7 0 12.5 -0.5t10.5 -1.5q56 -10 79 -78q19 -59 6 -123zM320 204q15 73 -5 113q-9 20 -49 20q-73 0 -127 -67q-34 -43 -46 -97q-14 -75 4 -112q10 -21 50 -21q74 0 128 68q34 42 45 96z" />
    <glyph glyph-name="otilde" unicode="&#xf5;" horiz-adv-x="338" 
d="M422 540q-8 -35 -25 -54q-23 -25 -55 -20q-40 6 -67 69q-3 7 -6 13t-5 12q-8 15 -16.5 18.5t-18.5 3.5q-25 0 -44 -19.5t-24 -45.5q-3 -12 -1 -29q-2 -2 -6 -3q-22 16 -14 54q8 35 25 54q23 24 53 20q43 -6 68 -67q1 -6 9 -27q13 -22 38 -22q26 0 44 19t23 46q3 14 1 29
q1 1 6 3q22 -17 15 -54zM348 173q-14 -65 -59 -115q-53 -57 -113 -57q-67 0 -101 75q-24 55 -8 128q14 66 60 115q51 57 113 57q7 0 12.5 -0.5t10.5 -1.5q56 -10 79 -78q19 -59 6 -123zM321 204q15 73 -5 113q-9 20 -49 20q-73 0 -127 -67q-34 -43 -46 -97q-14 -75 4 -112
q10 -21 50 -21q74 0 128 68q34 42 45 96z" />
    <glyph glyph-name="odieresis" unicode="&#xf6;" horiz-adv-x="314" 
d="M332 492q-2 -3 -3 -3q-7 0 -21 20q-5 9 -4 13l11 54q1 4 4 4q6 0 20 -21q5 -9 4 -13zM219 492q-2 -3 -3 -3q-7 0 -21 20q-5 9 -4 13l11 54q1 4 4 4q6 0 20 -21q5 -9 4 -13zM336 173q-14 -65 -59 -115q-53 -57 -113 -57q-67 0 -101 75q-24 55 -8 128q14 66 60 115
q51 57 113 57q7 0 12.5 -0.5t10.5 -1.5q56 -10 79 -78q19 -59 6 -123zM309 204q15 73 -5 113q-9 20 -49 20q-73 0 -127 -67q-34 -43 -46 -97q-14 -75 4 -112q10 -21 50 -21q74 0 128 68q34 42 45 96z" />
    <glyph glyph-name="divide" unicode="&#xf7;" horiz-adv-x="359" 
d="M311 414q-11 -32 -38 -32q-18 0 -38 32q-12 18 -8 31q8 32 38 32q20 0 38 -32q11 -20 8 -31zM419 313q-2 -2 -4 -2h-314q-9 0 -21 22l-3 9q-2 3 2 3h315q9 0 20 -23q4 -4 5 -9zM264 191q-9 -32 -37 -32q-19 0 -39 32q-11 20 -7 32q8 32 38 32q20 0 38 -33q10 -19 7 -31z
" />
    <glyph glyph-name="oslash" unicode="&#xf8;" horiz-adv-x="343" 
d="M351 173q-14 -65 -59 -115q-53 -57 -113 -57q-33 0 -59 20l-41 -60l-3 2q-2 0 -4 2q-24 24 -18 32l37 55q-40 64 -21 152q14 66 60 115q51 57 113 57q33 0 57 -15l44 65l5 -2q1 0 3 -2q23 -24 18 -32l-41 -60q8 -14 16 -34q19 -59 6 -123zM324 204q15 72 -5 112
l-185 -275q4 -1 8 -1h9q74 0 128 68q34 42 45 96zM283 336q-4 1 -13 1q-73 0 -127 -67q-34 -43 -46 -97q-14 -72 3 -108z" />
    <glyph glyph-name="ugrave" unicode="&#xf9;" horiz-adv-x="331" 
d="M333 463q-2 -2 -6 -3q-7 4 -18 20q-2 6 -4 14q20 90 -56 131q-12 7 -19 28q-1 3 -1 7q2 3 4 2q54 -29 82 -81q30 -57 18 -118zM310 6q-1 -4 -4 -4q-7 0 -20 21q-5 9 -4 14l12 56q-13 -11 -23 -19.5t-18 -15.5q-71 -55 -115 -55q-33 0 -55 28q-19 23 -25 58q-9 48 17 173
l23 110q1 4 3 4q5 0 19 -21q6 -11 5 -15q-2 -10 -5 -24.5t-8 -34.5t-8 -34t-5 -24q-8 -36 -11.5 -65t-4.5 -52q-1 -14 5 -57q11 -8 27 -8q22 0 48 13q88 43 149 124l40 194q1 4 3 4q5 0 19 -21q6 -11 5 -15z" />
    <glyph glyph-name="uacute" unicode="&#xfa;" horiz-adv-x="327" 
d="M376 633q-29 -13 -55 -30t-48 -40q-50 -50 -60 -105q-2 -6 -10 2q-22 21 -20 32q12 58 60 108q23 23 49 41.5t57 31.5q9 4 26 -31q3 -6 1 -9zM308 6q-1 -4 -4 -4q-7 0 -20 21q-5 9 -4 14l12 56q-13 -11 -23 -19.5t-18 -15.5q-71 -55 -115 -55q-33 0 -55 28q-19 23 -25 58
q-9 48 17 173l23 110q1 4 3 4q5 0 19 -21q6 -11 5 -15q-2 -10 -5 -24.5t-8 -34.5t-8 -34t-5 -24q-8 -36 -11.5 -65t-4.5 -52q-1 -14 5 -57q11 -8 27 -8q22 0 48 13q88 43 149 124l40 194q1 4 3 4q5 0 19 -21q6 -11 5 -15z" />
    <glyph glyph-name="ucircumflex" unicode="&#xfb;" horiz-adv-x="340" 
d="M394 466q-2 -2 -7 2q-62 46 -87 135q-53 -89 -133 -136q-6 -5 -18 15q-10 19 -6 22q96 57 146 164q3 4 10 -3q19 -19 18 -29q25 -106 58 -133q14 -10 19 -30q1 -6 0 -7zM314 6q-1 -4 -4 -4q-7 0 -20 21q-5 9 -4 14l12 56q-13 -11 -23 -19.5t-18 -15.5q-71 -55 -115 -55
q-33 0 -55 28q-19 23 -25 58q-9 48 17 173l23 110q1 4 3 4q5 0 19 -21q6 -11 5 -15q-2 -10 -5 -24.5t-8 -34.5t-8 -34t-5 -24q-8 -36 -11.5 -65t-4.5 -52q-1 -14 5 -57q11 -8 27 -8q22 0 48 13q88 43 149 124l40 194q1 4 3 4q5 0 19 -21q6 -11 5 -15z" />
    <glyph glyph-name="udieresis" unicode="&#xfc;" horiz-adv-x="313" 
d="M331 492q-2 -3 -3 -3q-7 0 -21 20q-5 9 -4 13l11 54q1 4 4 4q6 0 20 -21q5 -9 4 -13zM218 492q-2 -3 -3 -3q-7 0 -21 20q-5 9 -4 13l11 54q1 4 4 4q6 0 20 -21q5 -9 4 -13zM301 6q-1 -4 -4 -4q-7 0 -20 21q-5 9 -4 14l12 56q-13 -11 -23 -19.5t-18 -15.5
q-71 -55 -115 -55q-33 0 -55 28q-19 23 -25 58q-9 48 17 173l23 110q1 4 3 4q5 0 19 -21q6 -11 5 -15q-2 -10 -5 -24.5t-8 -34.5t-8 -34t-5 -24q-8 -36 -11.5 -65t-4.5 -52q-1 -14 5 -57q11 -8 27 -8q22 0 48 13q88 43 149 124l40 194q1 4 3 4q5 0 19 -21q6 -11 5 -15z" />
    <glyph glyph-name="yacute" unicode="&#xfd;" horiz-adv-x="322" 
d="M375 633q-29 -13 -55 -30t-48 -40q-50 -50 -60 -105q-2 -6 -10 2q-22 21 -20 32q12 58 60 108q23 23 49 41.5t57 31.5q9 4 26 -31q3 -6 1 -9zM312 27q-5 -26 -11 -46.5t-12 -37.5q-23 -66 -55.5 -124.5t-75.5 -112.5q-88 -113 -207 -184q-7 -4 -18 16q-10 19 -5 22
q132 76 230 214q94 131 124 276l8 41q-34 -34 -74 -59q-50 -32 -81 -32q-67 0 -80 87q-9 50 17 174l23 111q1 4 3 4q9 0 19 -22q6 -10 5 -14q-2 -10 -5 -24.5t-8 -34.5t-8 -34.5t-5 -24.5q-8 -36 -12 -65.5t-5 -52.5q0 -8 1.5 -23l3.5 -35q11 -8 27 -8q23 0 48 13
q89 44 149 125l41 196q1 4 3 4q9 0 19 -22q6 -10 5 -14l-30 -144q-3 -14 -7 -35t-9 -49q-9 -46 -18 -85z" />
    <glyph glyph-name="thorn" unicode="&#xfe;" horiz-adv-x="323" 
d="M356 170q-15 -67 -59 -116q-49 -55 -115 -55q-61 0 -92 57l-8 -35q-12 -49 -26 -102.5t-30 -113.5q-3 -8 -11 1q-20 20 -15 31q19 71 36.5 141t33.5 140q-1 3 -1 7q2 2 3 2q8 37 15.5 72.5t14.5 70.5q-1 2 1 8q24 124 36 232q0 3 5 3q8 -6 18 -20q4 -7 4 -14
q-3 -31 -8.5 -69t-13.5 -83q54 48 107 48q39 0 69 -31q25 -28 35 -66q14 -53 1 -108zM330 209q6 35 3 68q-4 45 -25 55q-10 4 -40 3q-83 -4 -138 -91q-4 -19 -7.5 -38t-7.5 -39l-8 -40t-9 -40q8 -51 57 -50q43 2 77 22q80 50 98 150z" />
    <glyph glyph-name="ydieresis" unicode="&#xff;" horiz-adv-x="321" 
d="M335 492q-2 -3 -3 -3q-7 0 -21 20q-5 9 -4 13l11 54q1 4 4 4q6 0 20 -21q5 -9 4 -13zM222 492q-2 -3 -3 -3q-7 0 -21 20q-5 9 -4 13l11 54q1 4 4 4q6 0 20 -21q5 -9 4 -13zM310 27q-5 -26 -11 -46.5t-12 -37.5q-23 -66 -55.5 -124.5t-75.5 -112.5q-88 -113 -207 -184
q-7 -4 -18 16q-10 19 -5 22q132 76 230 214q94 131 124 276l8 41q-34 -34 -74 -59q-50 -32 -81 -32q-67 0 -80 87q-9 50 17 174l23 111q1 4 3 4q9 0 19 -22q6 -10 5 -14q-2 -10 -5 -24.5t-8 -34.5t-8 -34.5t-5 -24.5q-8 -36 -12 -65.5t-5 -52.5q0 -8 1.5 -23l3.5 -35
q11 -8 27 -8q23 0 48 13q89 44 149 125l41 196q1 4 3 4q9 0 19 -22q6 -10 5 -14l-30 -144q-3 -14 -7 -35t-9 -49q-9 -46 -18 -85z" />
    <glyph glyph-name="OE" unicode="&#x152;" horiz-adv-x="817" 
d="M792 0q-3 -3 -6 -5q-109 18 -291 11q-43 -2 -82.5 -4.5t-76.5 -6.5q-4 0 -7 5q-11 -2 -22 -3t-22 -1q-97 0 -149 87q-71 116 -36 284q24 117 84 204q74 108 180 130q45 10 89 4q1 3 4 3q43 -4 82.5 -6.5t77.5 -4.5q85 -3 157 0t134 11q9 2 20 -30q0 -3 1 -4v-5
q-60 -10 -133 -12.5t-161 1.5q-7 0 -98 6q102 -103 77 -293h168q8 0 19 -26q1 -2 2 -4.5t2 -5.5q0 -3 -3 -3h-195q-40 -201 -172 -289q216 11 335 -9q15 -3 22 -34zM580 368q45 226 -62 283q-33 18 -76 18q-95 0 -171 -66q-107 -93 -144 -267q-46 -226 61 -284
q34 -18 78 -18q98 0 178 74q105 96 136 260z" />
    <glyph glyph-name="oe" unicode="&#x153;" horiz-adv-x="607" 
d="M624 243q-17 -80 -271 -80v-3q-14 -63 -6 -104q3 -18 19 -21q23 -5 67 6q91 21 131 75l3 -2q-1 1 2 2l3 -3q25 -22 17 -33q-40 -55 -128 -76q-38 -9 -56 -9q-33 0 -49 18q-29 31 -36 75q-58 -94 -140 -94q-66 0 -100 75q-25 54 -8 129q14 66 60 115q49 57 112 57
q9 0 24 -3q55 -10 81 -83q21 42 68 65q40 21 88 21q85 0 115 -77q9 -23 4 -50zM598 280q1 5 0.5 12t-2.5 17l-2 2v1q-22 19 -66 19q-24 0 -48 -6q-99 -25 -115 -101l-5 -22q139 1 201 36q38 22 37 42zM326 198q14 78 -5 112q-11 20 -50 20q-73 0 -127 -68q-35 -44 -45 -96
q-15 -77 4 -112q11 -20 50 -20q22 0 40 5q53 17 88 62q35 44 45 97z" />
    <glyph glyph-name="Scaron" unicode="&#x160;" horiz-adv-x="523" 
d="M585 940q-96 -57 -146 -164q-2 -5 -10 3q-19 19 -18 29q-26 107 -58 133q-13 10 -19 30q-1 6 0 7q1 2 7 -2q63 -50 87 -135q53 90 134 136q5 5 17 -15q13 -18 6 -22zM549 217q-18 -67 -66 -118.5t-117 -75.5q-60 -22 -117 -22q-36 0 -69 10.5t-59.5 29t-45 45.5t-26.5 60
q-1 3 -1 6q1 3 3 3q3 0 10 -10q13 -17 15 -24q9 -40 61 -62q42 -19 94 -19q94 0 177 54q88 58 111 150q9 35 2 57l-1 4l-2 1l-2 2q-38 38 -128 33q-10 -1 -27 -2t-43 -3q-44 -3 -68 1q-100 13 -127 101q-9 28 -2 60q6 28 21 58q81 158 327 158q52 0 96 -39q46 -42 36 -93
q-3 -12 -11 -27l-5 2q-1 0 -3 2q-23 25 -19 32q17 29 11 49q-6 16 -44 27q-33 9 -57 8q-215 -8 -293 -133q-25 -40 -33 -77q-7 -36 3.5 -53.5t44.5 -27.5q42 -12 153 -5q8 1 15 1h15q109 0 153 -69q29 -47 18 -94z" />
    <glyph glyph-name="scaron" unicode="&#x161;" horiz-adv-x="336" 
d="M426 630q-95 -57 -146 -164q-2 -5 -9 3q-19 19 -18 29q-27 108 -58 133q-15 11 -19 30q-2 6 -1 7q2 2 8 -2q61 -47 87 -135q54 90 133 136q6 5 17 -15q12 -19 6 -22zM336 111q-6 -26 -29 -52q-43 -48 -117 -56q-52 -5 -92 18t-55 68q-1 3 -1 7q1 3 3 3q3 0 9 -8
q11 -15 15 -23q25 -27 80 -27q39 0 81 17q46 20 65 54q15 28 14 46q-19 13 -58 13q-5 0 -14.5 -0.5t-22.5 -1.5t-22 -1h-16q-39 2 -69 26q-34 27 -30 64q8 59 68 90q49 27 110 27q60 0 90 -36q19 -22 14 -46q-2 -8 -6 -15l-4 2l-4 2q-23 23 -18 32q3 3 5 11v1q-20 11 -44 11
q-104 -2 -150 -48q-27 -26 -33 -54q-1 -5 -1 -14l1 -1q24 -16 70 -14l58 3q41 2 65 -17q47 -36 38 -81z" />
    <glyph glyph-name="Ydieresis" unicode="&#x178;" horiz-adv-x="495" 
d="M488 802q0 -3 -2 -3q-3 0 -4 1q-8 3 -17 19q-7 8 -5 13l12 54q1 7 9 0q19 -21 18 -30zM375 802q0 -3 -2 -3q-3 0 -4 1q-8 3 -17 19q-7 8 -5 13l12 54q1 4 3 4q5 0 19 -21q6 -9 5 -13zM629 675q-153 -108 -254 -264q-38 -59 -44 -85l-66 -321q-1 -4 -3 -4q-8 0 -21 21
q-5 9 -4 15l68 328q2 4 3 7l-1 1q-32 198 -138 306q-10 10 -16 25q-3 8 1 9q3 1 7 -3q42 -42 84 -111q57 -94 80 -190q5 10 13 22t19 28q23 33 51.5 67.5t63.5 69.5q70 73 133 117q6 4 16 -16q10 -19 8 -21v-1z" />
    <glyph glyph-name="florin" unicode="&#x192;" horiz-adv-x="619" 
d="M758 688q-4 -19 -17 -38l-5 1q-1 1 -2 1l-1 1q-17 25 -11 32q13 19 16 37q-14 10 -46 10q-49 0 -89 -24q-47 -26 -65 -71l-85 -203h117q14 0 17 -36q-2 -3 -4 -3h-146l-204 -486q-20 -49 -36 -71q-53 -77 -146 -77q-60 0 -76 46q-6 19 -2 38q5 22 17 38l5 -1l4 -2
q16 -24 10 -32q-13 -19 -16 -37q14 -10 46 -10q48 0 91 25t62 70l211 499h-86q-8 0 -16 26v10q0 3 3 3h115l79 190q20 49 36 71q53 77 145 77q61 0 76 -46q8 -18 3 -38z" />
    <glyph glyph-name="circumflex" unicode="&#x2c6;" horiz-adv-x="290" 
d="M389 539q-2 -2 -8 2q-63 46 -87 135q-54 -90 -133 -136q-6 -5 -18 15q-10 19 -6 22q96 57 147 164q1 4 9 -3q19 -19 18 -29q26 -107 58 -133q15 -11 19 -30q2 -6 1 -7z" />
    <glyph glyph-name="tilde" unicode="&#x2dc;" horiz-adv-x="401" 
d="M507 628q-4 -19 -11 -34t-17 -28q-23 -30 -58 -30q-60 0 -98 86q-7 16 -12 25.5t-7 14.5q-5 10 -18 14q-9 4 -21 4q-31 0 -54 -24t-30 -56q-3 -18 -2 -36q-2 -2 -6 -3q-29 20 -19 66q7 40 32 66q27 30 66 25q52 -7 85 -83q3 -8 12 -33q16 -27 47 -27t54 24t30 56
q3 20 2 36q1 1 6 3q29 -20 19 -66z" />
    <glyph glyph-name="endash" unicode="&#x2013;" horiz-adv-x="477" 
d="M507 313q-2 -2 -4 -2h-374q-9 0 -21 22l-3 9q-2 3 2 3h375q9 0 20 -23q4 -4 5 -9z" />
    <glyph glyph-name="emdash" unicode="&#x2014;" horiz-adv-x="688" 
d="M718 313q-2 -2 -4 -2h-584q-9 0 -21 22l-3 9q-2 3 2 3h585q9 0 20 -23q4 -4 5 -9z" />
    <glyph glyph-name="quoteleft" unicode="&#x2018;" horiz-adv-x="135" 
d="M225 563q-9 -31 -39 -31q-19 0 -37 31q-10 16 -9 31q18 82 87 141q5 5 17 -14q11 -14 9 -20q0 -2 -1 -3q-39 -33 -61 -75q6 -3 13 -10.5t12 -16.5t7.5 -18t1.5 -15z" />
    <glyph glyph-name="quoteright" unicode="&#x2019;" horiz-adv-x="135" 
d="M257 672q-18 -83 -87 -140q-4 -4 -17 13q-12 18 -7 23q36 30 61 76q-6 3 -12.5 10t-12 16t-8.5 18t-1 15q8 32 38 32q19 0 39 -32q9 -14 7 -31z" />
    <glyph glyph-name="quotesinglbase" unicode="&#x201a;" horiz-adv-x="132" 
d="M120 28q-17 -83 -86 -141q-4 -4 -18 14q-9 14 -8 20q0 1 2 3q37 31 61 76q-10 4 -25 25q-13 21 -9 34q8 32 37 32q19 0 39 -32q10 -17 7 -31z" />
    <glyph glyph-name="quotedblleft" unicode="&#x201c;" horiz-adv-x="279" 
d="M364 563q-9 -31 -39 -31q-19 0 -37 31q-10 16 -9 31q18 82 87 141q5 5 17 -14q11 -14 9 -20q0 -2 -1 -3q-39 -33 -61 -75q12 -6 24 -27q13 -19 10 -33zM234 563q-9 -31 -39 -31q-19 0 -37 31q-10 16 -9 31q18 82 87 141q5 5 17 -14q11 -14 9 -20q0 -2 -1 -3
q-39 -33 -61 -75q12 -6 24 -27q13 -19 10 -33z" />
    <glyph glyph-name="quotedblright" unicode="&#x201d;" horiz-adv-x="285" 
d="M393 672q-18 -83 -87 -140q-4 -4 -17 13q-12 18 -7 23q36 30 61 76q-6 3 -12.5 10t-12 16t-8.5 18t-1 15q8 32 38 32q19 0 39 -32q9 -14 7 -31zM263 672q-18 -83 -87 -140q-4 -4 -17 13q-12 18 -7 23q36 30 61 76q-6 3 -12.5 10t-12 16t-8.5 18t-1 15q8 32 38 32
q19 0 39 -32q9 -14 7 -31z" />
    <glyph glyph-name="quotedblbase" unicode="&#x201e;" horiz-adv-x="288" 
d="M265 28q-17 -83 -86 -141q-4 -4 -18 14q-9 14 -8 20q0 1 2 3q37 31 61 76q-10 4 -25 25q-13 21 -9 34q8 32 37 32q19 0 39 -32q10 -17 7 -31zM125 28q-17 -83 -86 -141q-4 -4 -18 14q-9 14 -8 20q0 1 2 3q37 31 61 76q-10 4 -25 25q-13 21 -9 34q8 32 37 32q19 0 39 -32
q10 -17 7 -31z" />
    <glyph glyph-name="dagger" unicode="&#x2020;" horiz-adv-x="328" 
d="M414 513q-2 -2 -3 -2h-123l-114 -546q-2 -5 -6 -3q-8 5 -17 21q-5 10 -4 14l107 514h-96q-9 0 -22 22l-3 9q0 3 3 3h125l26 125q1 4 3 4q5 0 19 -21q6 -11 5 -14l-19 -94h95q9 0 20 -23l2 -4t2 -5z" />
    <glyph glyph-name="daggerdbl" unicode="&#x2021;" horiz-adv-x="325" 
d="M325 93q-2 -2 -4 -2h-123l-26 -126q-2 -5 -6 -3q-8 5 -17 21q-5 10 -4 14l19 94h-96q-7 0 -15 11.5t-9 19.5q-2 3 2 3h125l81 386h-96q-9 0 -22 22l-3 9q0 3 3 3h125l26 125q1 4 3 4q5 0 19 -21q6 -11 5 -14l-19 -94h95q9 0 20 -23l2 -4t2 -5q-2 -2 -3 -2h-123l-81 -386
h95q10 0 21 -23l2 -4t2 -5z" />
    <glyph glyph-name="bullet" unicode="&#x2022;" horiz-adv-x="215" 
d="M244 248q-7 -24 -28.5 -43t-44.5 -19q-38 0 -73 62q-20 37 -14 60q6 25 26 43.5t45 18.5q39 0 75 -62q20 -38 14 -60z" />
    <glyph glyph-name="ellipsis" unicode="&#x2026;" horiz-adv-x="659" 
d="M630 30q-9 -31 -38 -31q-20 0 -38 31q-12 18 -8 30q7 31 37 31q20 0 39 -31q11 -19 8 -30zM380 30q-9 -31 -38 -31q-20 0 -38 31q-12 18 -8 30q7 31 37 31q20 0 39 -31q11 -19 8 -30zM130 30q-9 -31 -38 -31q-20 0 -38 31q-12 18 -8 30q7 31 37 31q20 0 39 -31
q11 -19 8 -30z" />
    <glyph glyph-name="perthousand" unicode="&#x2030;" horiz-adv-x="839" 
d="M853 139q-9 -48 -42 -91q-39 -54 -83 -54q-62 0 -87 75q-18 49 -6 102q10 47 42 91q39 54 83 54q61 0 88 -75q17 -49 5 -102zM362 532q-9 -46 -42 -91q-39 -54 -82 -54q-62 0 -87 75q-18 49 -6 102q10 48 42 92q38 53 82 53q61 0 87 -75q16 -50 6 -102zM582 670
l-426 -673l-5 2q-2 0 -3 1q-24 25 -19 33l427 673l4 -2q2 0 4 -1q22 -26 18 -33zM567 139q-9 -48 -42 -91q-39 -54 -83 -54q-62 0 -87 75q-18 49 -6 102q10 47 42 91q39 54 82 54q61 0 88 -75q16 -50 6 -102zM826 171q11 54 -4 88q-8 17 -38 17q-48 0 -89 -59
q-26 -36 -33 -78q-10 -54 4 -87q9 -18 39 -18q14 0 23 4q75 29 98 133zM335 564q10 54 -3 87q-8 18 -38 18q-49 0 -90 -59q-25 -37 -32 -78q-11 -57 3 -87q7 -18 38 -18q16 0 25 4q74 29 97 133zM540 171q11 54 -4 88q-8 17 -38 17q-48 0 -89 -59q-26 -36 -33 -78
q-10 -54 4 -87q9 -18 39 -18q14 0 23 4q75 29 98 133z" />
    <glyph glyph-name="guilsinglleft" unicode="&#x2039;" horiz-adv-x="156" 
d="M158 173q-2 -2 -6 -3q-6 2 -17 21q-5 10 -4 13q7 43 -36 105q-24 32 -19 37q99 81 113 137q1 4 3 4q6 0 19 -22q6 -11 5 -14q-13 -56 -109 -137q5 -8 11 -17.5t12 -20.5q35 -64 28 -103z" />
    <glyph glyph-name="guilsinglright" unicode="&#x203a;" horiz-adv-x="156" 
d="M214 309q-99 -82 -112 -136q-1 -4 -3 -4q-5 0 -20 21q-6 9 -4 14q13 56 109 137q-7 11 -13 20.5t-11 17.5q-34 63 -27 103l5 4q5 -2 17 -21q5 -10 5 -14q-8 -44 36 -104q24 -33 18 -38z" />
    <glyph glyph-name="trademark" unicode="&#x2122;" horiz-adv-x="836" 
d="M858 281q-2 -3 -4 -3q-7 0 -11 10l-3 4q-6 7 -9 21q7 54 15 105.5t19 101.5q5 23 10 45l10 44q-96 -113 -175 -217q-6 0 -14 11l-3 5q-9 10 -9 18q-18 52 -42 108.5t-55 117.5q-6 -49 -13.5 -95t-17.5 -91q-19 -95 -48 -185q-2 -3 -4 -3q-5 0 -14 13q-11 17 -9 22v1
l10 42.5t16 60.5t16 60.5l10 42.5q10 49 17 94.5t12 89.5v1q1 3 4 3t14 -14q4 -5 9 -17q32 -62 59 -120t48 -114q48 62 101.5 127.5t115.5 136.5q3 1 4 0h-1q16 -8 23 -27q2 -5 0 -8q-14 -45 -25.5 -91t-21.5 -95q-10 -48 -18.5 -98.5t-15.5 -105.5v-1zM479 669
q-74 -15 -147 -15l-77 -372q-2 -8 -10 0q-19 19 -16 31l70 341q-63 3 -111 15q-9 2 -20 23q-1 3 -1 6t-1 5q0 3 5 5q63 -16 138 -16q74 0 148 16q6 2 14 -14q8 -15 7 -20z" />
    <glyph glyph-name="breve" horiz-adv-x="337" 
d="M299 708q-2 -56 -30 -96q-32 -45 -85 -45q-69 0 -112 67q-33 51 -33 105q1 1 2 1.5t2 1.5l6 -3q24 -21 24 -30q0 -26 8 -53q11 -34 29 -41q34 -15 69 -7q42 11 65 50q21 36 21 81q0 7 10 0q24 -20 24 -31z" />
    </font>
</defs>
</svg>
