<?xml version="1.0" standalone="no"?>
<!DOCTYPE svg PUBLIC "-//W3C//DTD SVG 1.1//EN" "http://www.w3.org/Graphics/SVG/1.1/DTD/svg11.dtd" >
<svg xmlns="http://www.w3.org/2000/svg" xmlns:xlink="http://www.w3.org/1999/xlink" version="1.1">
<metadata>
Created by FontForge 20170731 at Sun Nov 27 15:29:01 2005
 By Aleksey,,,
paulo w, http://geocities.yahoo.com.br/intellectadesign
</metadata>
<defs>
<font id="timesnewvespasian" horiz-adv-x="524" >
  <font-face 
    font-family="times new vespasian"
    font-weight="400"
    font-stretch="normal"
    units-per-em="1000"
    panose-1="2 0 5 3 0 0 0 2 0 3"
    ascent="800"
    descent="-200"
    x-height="416"
    cap-height="730"
    bbox="-58 -370 1025 793"
    underline-thickness="50"
    underline-position="-150"
    unicode-range="U+0020-007A"
  />
<missing-glyph horiz-adv-x="643" 
d="M56 0v793h532v-793h-532zM532 56v682h-421v-682h421z" />
    <glyph glyph-name=".notdef" horiz-adv-x="643" 
d="M56 0v793h532v-793h-532zM532 56v682h-421v-682h421z" />
    <glyph glyph-name=".null" horiz-adv-x="0" 
 />
    <glyph glyph-name="nonmarkingreturn" horiz-adv-x="333" 
 />
    <glyph glyph-name="space" unicode=" " horiz-adv-x="684" 
 />
    <glyph glyph-name="zero" unicode="0" horiz-adv-x="854" 
d="M728 0q-60 30 -107 93q-16 23 -31 46.5t-30 51.5q-8 14 -16 29t-17 32q-22 37 -48 85q-17 21 -33 42t-32 43q-18 -23 -51 -70.5t-72 -126.5q-68 -116 -95 -207q-2 -3 -5 -3.5t-6 -2.5q13 1 24 7q-3 -7 -9 -14q-20 -5 -34 -5h-18.5t-33.5 2q-17 1 -31 1.5t-27 1.5
q-6 -1 -11.5 -1h-10.5l-1 3q-4 0 -5 3q0 5 1 8q11 8 43 18q29 16 47 35q12 16 29.5 38t39.5 54q13 19 28 38.5t28 39.5q36 50 55.5 78.5t28.5 52.5q5 6 8 12t5 11q3 12 3 25v28v24.5t-1 25.5q1 6 1 13.5v13.5q0 24 -7 45q0 3 -16 21q-32 46 -72 79q-19 15 -41.5 26t-46.5 17
q-3 0 -6 1t-5 1q-15 0 -29 -10q-4 -3 -9 -6t-11 -6h-12q-11 -4 -23.5 -12.5t-22.5 -12.5q23 41 45 61.5t41 33.5q19 8 48 12h8q7 0 14 -0.5t15 -2.5q49 -8 108 -62q17 -17 30.5 -33t27.5 -31q44 -59 61 -113q28 39 56 75.5t53 65.5q26 32 46 53.5t33 35.5q-1 1 -1 2t-1 4h1
q0 -1 -1 -1h2q5 0 15 -4t10 -7q0 1 1 1h1h1q8 0 19 1t26 6q6 3 10 4t9 3q13 -3 27 -7q-2 -6 -4.5 -14.5t-4.5 -17.5q-4 1 -18 15q-24 -11 -57 -55q-11 -5 -24 -13t-29 -19q-45 -31 -90 -89q-39 -49 -54 -83q6 -7 10.5 -15t6.5 -13l44 -55q15 -20 25 -34.5t15 -26.5
q18 -32 40 -70q20 -34 38.5 -63.5t35.5 -53.5q11 -16 20.5 -29.5t18.5 -26.5q61 -81 111 -89v-10q-7 -1 -14.5 -2t-15.5 -1q-4 -1 -8.5 -1t-10.5 -1h-31.5t-23.5 2z" />
    <glyph glyph-name="one" unicode="1" horiz-adv-x="192" 
d="M180 6q-1 -1 -7 -5h-158q-1 0 -1 2q24 2 35 15q5 13 8.5 41.5t5.5 62.5q2 54 4 116t2 135v260q0 46 -7 62q-5 29 -19 51q-21 22 -55 22l-1 1q2 4 2 5h184q2 0 4 -2t2 -4v-1q-8 -15 -15 -30.5t-13 -32.5q-2 0 -3 -1q-5 -11 -8 -43q-7 -89 -7 -236v-223q0 -91 10 -159
q12 -19 36 -35q0 -1 1 -1z" />
    <glyph glyph-name="two" unicode="2" horiz-adv-x="364" 
d="M176 6q-1 -1 -7 -5h-155q-1 0 -1 2q24 2 34 15q6 12 9.5 40t5.5 62q2 53 3.5 113.5t1.5 132.5v255q0 45 -6 60q-5 29 -19 50q-21 22 -54 22l-1 1q2 4 2 5h180q2 0 4 -2t2 -4v-1q-8 -15 -15 -30t-12 -31q-2 0 -3 -1q-5 -12 -8 -43q-6 -87 -6 -231v-218q0 -90 9 -156
q11 -19 35 -35q0 -1 1 -1zM351 6q-1 -1 -7 -5h-155q-1 0 -1 2q24 2 34 15q5 12 9 40t6 62q2 53 3.5 113.5t1.5 132.5v255q0 45 -6 60q-6 29 -19 50q-21 22 -54 22l-1 1q2 4 2 5h180q2 0 4 -2t2 -4v-1q-8 -15 -15 -30t-12 -31q-2 0 -3 -1q-5 -12 -8 -43q-7 -87 -7 -231v-218
q0 -90 10 -156q11 -19 35 -35q0 -1 1 -1z" />
    <glyph glyph-name="three" unicode="3" horiz-adv-x="596" 
d="M181 6q-1 -1 -7 -5h-159q-1 0 -1 2q24 2 35 15q5 13 9 41.5t6 63.5q2 54 3.5 116.5t1.5 135.5v262q0 46 -6 62q-6 30 -19 51q-22 22 -56 22l-1 1q2 5 2 6h185q2 0 4 -2t2 -5v-1q-8 -15 -15 -30.5t-13 -32.5q-2 0 -3 -1q-5 -11 -8 -43q-7 -90 -7 -237v-224q0 -92 10 -160
q12 -20 36 -36q0 -1 1 -1zM360 6q-1 -1 -7 -5h-159q-1 0 -1 2q24 2 35 15q5 13 9 41.5t6 63.5q2 54 3.5 116.5t1.5 135.5v262q0 46 -6 62q-5 30 -19 51q-22 22 -56 22l-1 1q2 5 2 6h185q2 0 4 -2t2 -5v-1q-8 -15 -15 -30.5t-12 -32.5q-3 0 -4 -1q-5 -11 -8 -43
q-7 -90 -7 -237v-224q0 -92 10 -160q12 -20 36 -36q0 -1 1 -1zM561 6q-1 -1 -7 -5h-159q-2 0 -2 2q25 2 36 15q5 13 9 41.5t6 63.5q2 54 3.5 116.5t1.5 135.5v262q0 46 -6 62q-6 30 -20 51q-21 22 -55 22l-1 1q2 5 2 6h185q2 0 4 -2t2 -5v-1q-9 -15 -15.5 -30.5t-12.5 -32.5
q-2 0 -3 -1q-5 -11 -9 -43q-6 -90 -6 -237v-224q0 -92 10 -160q11 -20 36 -36q0 -1 1 -1z" />
    <glyph glyph-name="four" unicode="4" horiz-adv-x="786" 
d="M736 703q-8 -17 -20 -60q-11 -36 -21.5 -68t-18.5 -63q-11 -37 -20.5 -69t-18.5 -61q-27 -78 -48 -166q-11 -32 -21 -66l-20 -68q-10 -27 -17 -47t-12 -35q-4 1 -15 25q-10 32 -22 69.5t-27 80.5q-2 6 -10.5 33t-18.5 58.5t-19.5 58.5t-10.5 32q-12 36 -23 71t-24 71
q-19 53 -35 99.5t-33 91.5q-8 18 -26 29q-4 -3 -6 -3q-6 5 -13.5 10t-15.5 12q55 22 142 35q10 -7 13 -20t5 -25q-8 -6 -12 -12t-4 -15q2 -8 5.5 -21.5t8.5 -30.5q10 -35 23.5 -79t29.5 -96q15 -36 23.5 -63t14.5 -43q4 -15 10 -35t16 -45q15 -36 27 -66.5t19 -46.5
q12 24 25.5 62t30.5 91q7 26 14.5 53.5t16.5 55.5t17 54.5t15 51.5q26 85 31 134v6q0 7 -0.5 14.5t-0.5 13.5v7q-1 3 -9 13h-27q-3 5 -6.5 10.5t-6.5 10.5q-1 2 -1 3.5t-1 3.5q29 5 65.5 9t80.5 5v-13q-20 -8 -49 -57zM221 6q-1 -1 -7 -5h-155q-1 0 -1 2q24 2 34 15
q6 12 9.5 40t5.5 62q2 53 3.5 113.5t1.5 132.5v255q0 45 -6 60q-5 29 -19 50q-21 22 -54 22l-1 1q2 4 2 5h180q2 0 4 -2t2 -4v-1q-8 -15 -15 -30t-12 -31q-2 0 -3 -1q-5 -12 -8 -43q-6 -87 -6 -231v-218q0 -90 9 -156q11 -19 35 -35q0 -1 1 -1z" />
    <glyph glyph-name="five" unicode="5" horiz-adv-x="568" 
d="M496 703q-9 -17 -20 -61q-11 -35 -21 -67.5t-20 -63.5q-10 -36 -19.5 -68.5t-18.5 -61.5q-27 -78 -47 -164q-12 -33 -22 -67l-20 -68q-9 -27 -16.5 -47t-12.5 -35q-4 1 -15 25q-10 33 -22 70t-26 80q-3 5 -11.5 32.5t-18.5 59t-19 58t-10 31.5q-12 36 -23.5 71t-23.5 71
q-18 53 -34.5 99.5t-34.5 91.5q-7 18 -26 28q-2 -2 -5 -2q-6 5 -14 10t-15 13q55 21 141 33q10 -5 13.5 -18t5.5 -26q-9 -6 -13 -12t-4 -15q2 -9 5.5 -22.5t9.5 -29.5q9 -36 22.5 -79t30.5 -95q15 -36 23 -63.5t14 -42.5q5 -16 11 -36t15 -44q16 -37 28 -67t18 -46
q13 23 26.5 61t29.5 91q7 26 14.5 53.5t16.5 55.5q9 29 17 55.5t16 50.5q26 85 30 135v5q0 7 -0.5 14.5t-0.5 13.5v6q-1 4 -9 14h-27q-3 5 -6.5 10t-5.5 11q-1 2 -1 3.5t-2 3.5q30 5 66 8.5t80 4.5v-12q-19 -8 -49 -56z" />
    <glyph glyph-name="six" unicode="6" horiz-adv-x="679" 
d="M436 658q-9 -16 -19 -57q-11 -33 -20.5 -63t-17.5 -60q-10 -33 -19 -63.5t-17 -57.5q-26 -73 -45 -154q-10 -31 -19.5 -62.5t-19.5 -63.5q-8 -25 -15 -44t-12 -33q-3 1 -14 23q-9 31 -20.5 66t-24.5 75q-2 5 -10 30.5t-17.5 55t-18 54t-9.5 30.5q-12 34 -22.5 66.5
t-22.5 66.5q-17 49 -32 92.5t-32 85.5q-6 17 -24 27q-2 -2 -5 -2q-6 4 -13.5 8.5t-13.5 12.5q52 20 132 31q9 -5 12.5 -17t5.5 -24q-9 -6 -12.5 -11.5t-3.5 -13.5q2 -9 5.5 -21.5t8.5 -27.5q8 -34 21 -74.5t28 -88.5q14 -34 22 -59.5t13 -40.5q5 -14 10.5 -32.5t14.5 -42.5
q14 -33 25.5 -62t17.5 -43q11 22 24 57.5t28 84.5q7 25 14 50.5t15 52.5q9 26 16 51t15 48q24 79 28 126v5q0 6 -0.5 13t-0.5 13v6q-1 3 -8 12h-26q-3 6 -6 10.5t-5 9.5q-1 2 -1 3.5t-1 3.5q27 5 61 8t75 4v-11q-18 -8 -45 -53zM644 6q-1 -1 -7 -5h-149q-1 0 -1 2
q23 2 33 14q5 12 8.5 39t5.5 59q2 51 3.5 109.5t1.5 127.5v245q0 43 -6 58q-5 28 -18 48q-20 21 -52 21l-1 1q2 4 2 5h173q2 0 4 -2t2 -4v-1q-8 -14 -14.5 -28.5t-11.5 -30.5q-2 0 -3 -1q-5 -11 -8 -41q-6 -84 -6 -222v-210q0 -86 9 -150q11 -18 34 -33q0 -1 1 -1z" />
    <glyph glyph-name="seven" unicode="7" horiz-adv-x="861" 
d="M435 663q-8 -16 -19 -58q-11 -32 -20.5 -62.5t-17.5 -60.5q-10 -34 -19 -64.5t-17 -57.5q-26 -74 -45 -156q-11 -31 -20.5 -62.5t-18.5 -63.5q-9 -26 -16 -45t-12 -33q-3 1 -14 23q-10 31 -21 66.5t-25 75.5q-2 5 -10 30.5t-17.5 55.5t-18 55t-9.5 30q-12 34 -22.5 67
t-22.5 67q-17 50 -32.5 94t-32.5 86q-6 17 -24 27q-2 -2 -4 -2q-7 4 -14.5 8.5t-13.5 12.5q52 20 133 32q10 -5 13 -17.5t5 -24.5q-8 -6 -12 -11.5t-4 -13.5q2 -9 5.5 -21.5t8.5 -27.5q8 -34 21 -75t29 -90q14 -34 22 -59.5t13 -40.5q4 -15 10 -33.5t15 -42.5
q14 -34 25.5 -62.5t17.5 -43.5q12 22 24.5 58t27.5 86q8 24 15 50t15 53q9 26 16 51t15 49q24 80 29 126v6q0 6 -0.5 13t-0.5 13v6q-1 3 -9 12h-25l-7 10.5t-5 10.5q-1 2 -1 3t-1 3q27 5 61 8.5t76 4.5v-12q-18 -7 -46 -53zM630 6q-1 -1 -7 -5h-149q-1 0 -1 2q23 2 33 14
q5 12 8.5 39t5.5 59q2 51 3.5 109.5t1.5 127.5v245q0 43 -6 58q-5 28 -18 48q-20 21 -52 21l-1 1q2 4 2 5h173q2 0 4 -2t2 -4v-1q-8 -14 -14.5 -28.5t-11.5 -30.5q-2 0 -3 -1q-5 -11 -8 -41q-6 -84 -6 -222v-210q0 -86 9 -150q11 -18 34 -33q0 -1 1 -1zM828 6q-1 -1 -7 -5
h-149q-1 0 -1 2q23 2 33 14q5 12 8.5 39t5.5 59q2 51 3.5 109.5t1.5 127.5v245q0 43 -6 58q-5 28 -18 48q-20 21 -52 21l-1 1q2 4 2 5h173q2 0 4 -2t2 -4v-1q-8 -14 -14.5 -28.5t-11.5 -30.5q-2 0 -3 -1q-5 -11 -8 -41q-6 -84 -6 -222v-210q0 -86 9 -150q11 -18 34 -33
q0 -1 1 -1z" />
    <glyph glyph-name="eight" unicode="8" horiz-adv-x="1054" 
d="M436 658q-9 -16 -19 -57q-11 -33 -20.5 -63t-17.5 -60q-10 -33 -19 -63.5t-17 -57.5q-26 -73 -45 -154q-10 -31 -19.5 -62.5t-19.5 -63.5q-8 -25 -15 -44t-12 -33q-3 1 -14 23q-9 31 -20.5 66t-24.5 75q-2 5 -10 30.5t-17.5 55t-18 54t-9.5 30.5q-12 34 -22.5 66.5
t-22.5 66.5q-17 49 -32 92.5t-32 85.5q-6 17 -24 27q-2 -2 -5 -2q-6 4 -13.5 8.5t-13.5 12.5q52 20 132 31q9 -5 12.5 -17t5.5 -24q-9 -6 -12.5 -11.5t-3.5 -13.5q2 -9 5.5 -21.5t8.5 -27.5q8 -34 21 -74.5t28 -88.5q14 -34 22 -59.5t13 -40.5q5 -14 10.5 -32.5t14.5 -42.5
q14 -33 25.5 -62t17.5 -43q11 22 24 57.5t28 84.5q7 25 14 50.5t15 52.5q9 26 16 51t15 48q24 79 28 126v5q0 6 -0.5 13t-0.5 13v6q-1 3 -8 12h-26q-3 6 -6 10.5t-5 9.5q-1 2 -1 3.5t-1 3.5q27 5 61 8t75 4v-11q-18 -8 -45 -53zM661 6q-1 -1 -7 -5h-149q-1 0 -1 2
q23 2 33 14q5 12 8.5 39t5.5 59q2 51 3.5 109.5t1.5 127.5v245q0 43 -6 58q-5 28 -18 48q-20 21 -52 21l-1 1q2 4 2 5h173q2 0 4 -2t2 -4v-1q-8 -14 -14.5 -28.5t-11.5 -30.5q-2 0 -3 -1q-5 -11 -8 -41q-6 -84 -6 -222v-210q0 -86 9 -150q11 -18 34 -33q0 -1 1 -1zM829 6
q-1 -1 -7 -5h-149q-1 0 -1 2q23 2 33 14q5 12 8.5 39t5.5 59q2 51 3.5 109.5t1.5 127.5v245q0 43 -6 58q-5 28 -18 48q-20 21 -52 21l-1 1q2 4 2 5h173q2 0 4 -2t2 -4v-1q-8 -14 -14.5 -28.5t-11.5 -30.5q-2 0 -3 -1q-5 -11 -8 -41q-6 -84 -6 -222v-210q0 -86 9 -150
q11 -18 34 -33q0 -1 1 -1zM1017 6q-1 -1 -7 -5h-149q-1 0 -1 2q23 2 33 14q5 12 8.5 39t5.5 59q2 51 3.5 109.5t1.5 127.5v245q0 43 -6 58q-5 28 -18 48q-20 21 -52 21l-1 1q2 4 2 5h173q2 0 4 -2t2 -4v-1q-8 -14 -14.5 -28.5t-11.5 -30.5q-2 0 -3 -1q-5 -11 -8 -41
q-6 -84 -6 -222v-210q0 -86 9 -150q11 -18 34 -33q0 -1 1 -1z" />
    <glyph glyph-name="nine" unicode="9" horiz-adv-x="946" 
d="M927 0q-55 28 -100 87q-15 22 -29 43.5t-28 48.5q-8 13 -15.5 27.5t-15.5 30.5q-21 34 -45 79q-16 20 -31 39.5t-30 40.5q-17 -22 -47.5 -66.5t-67.5 -118.5q-64 -109 -89 -195q-2 -2 -5 -2.5t-5 -2.5q11 1 21 7q-2 -7 -8 -13q-18 -5 -32 -5h-17.5t-30.5 1
q-16 2 -29.5 2.5t-24.5 1.5q-6 -1 -11.5 -1h-9.5l-1 2q-4 0 -5 4q0 4 1 6q11 9 41 18q26 15 43 32q12 15 28 36t37 50q13 19 26.5 37t26.5 37q33 46 51.5 73.5t26.5 48.5q5 6 8 12l5 10q2 12 2 24v26v23t-1 24q1 6 1 13v13q0 22 -7 41q0 4 -15 20q-30 44 -66 75
q-19 13 -39.5 23.5t-43.5 16.5q-3 0 -6 0.5t-5 0.5q-14 0 -26 -9q-5 -2 -9.5 -5l-10.5 -7h-10q-11 -3 -23 -11t-21 -12q22 38 42.5 58t38.5 31q18 8 45 12h8q5 0 12 -1l14 -2q46 -8 102 -58q16 -17 28.5 -32t25.5 -28q41 -56 57 -106q27 36 53 70t50 62q24 30 42.5 50
t31.5 33q-1 1 -1 2.5t-2 3.5h2q0 -1 -2 -1h3q4 0 13.5 -3.5t9.5 -7.5q0 1 1 1h1h1q7 0 17.5 1.5t24.5 5.5q6 3 10 4t8 3q12 -3 26 -7q-3 -5 -5 -13t-5 -17q-3 2 -16 14q-23 -10 -54 -52q-10 -4 -22.5 -11.5t-27.5 -18.5q-41 -28 -84 -83q-37 -46 -50 -78q5 -6 9 -13.5
t7 -11.5l41 -52q14 -19 23.5 -32.5t13.5 -25.5q17 -30 38 -66q19 -31 36 -58.5t33 -50.5q11 -15 19.5 -27.5t17.5 -24.5q57 -76 104 -84v-9q-7 -2 -14 -2.5t-14 -0.5q-4 -1 -8 -1t-10 -1h-29.5t-22.5 2zM219 6q-1 -1 -7 -5h-149q-1 0 -1 2q23 2 33 14q5 12 8.5 39t5.5 59
q2 51 3.5 109.5t1.5 127.5v245q0 43 -6 58q-5 28 -18 48q-20 21 -52 21l-1 1q2 4 2 5h173q2 0 4 -2t2 -4v-1q-8 -14 -14.5 -28.5t-11.5 -30.5q-2 0 -3 -1q-5 -11 -8 -41q-6 -84 -6 -222v-210q0 -86 9 -150q11 -18 34 -33q0 -1 1 -1z" />
    <glyph glyph-name="A" unicode="A" horiz-adv-x="564" 
d="M536 0q-26 0 -44.5 2t-32.5 5q-9 9 -21.5 34t-25.5 58t-25.5 69.5t-23.5 68t-18.5 53.5t-9.5 27q-125 -62 -142 -98t-34 -75.5t-31 -76.5q0 -1 0.5 -4t1.5 -8q-2 -14 -6.5 -23.5t-8.5 -20.5q-8 2 -10 7t-2 19q-8 -2 -15.5 -3t-14.5 -2h-40q8 14 24 45.5t20 83.5
q3 49 18.5 104.5t38.5 108.5t50.5 101.5t56.5 84.5q-6 23 -17.5 51t-28.5 45q-16 3 -25.5 5.5t-17 4.5t-7.5 3q25 7 46.5 11.5t51 9t64.5 6.5q1 0 2 -1q-2 -2 -2 -8q0 -5 1 -9q-4 -9 -4 -22q0 7 7.5 -23t23 -83.5t38.5 -124t54 -145.5q24 -58 38 -101.5t28 -75t34.5 -52.5
t56.5 -36q-5 -11 -18 -13t-30 -2zM317 355q-12 40 -26 84.5t-32 98.5h-7q-41 -41 -62.5 -78t-30.5 -73.5t-10.5 -75t-2.5 -81.5q30 18 52.5 34.5t41.5 32t37.5 30t39.5 28.5z" />
    <glyph glyph-name="B" unicode="B" horiz-adv-x="469" 
d="M173 0q-4 0 -7 -0.5t-7 -0.5q-9 0 -19.5 0.5t-23.5 1.5h-5q-8 1 -18.5 1.5t-21.5 1.5t-21 3.5t-16 6.5q12 15 18 35.5t8.5 57.5t3 96t0.5 150v157q0 22 0.5 49.5t-2 51.5t-10.5 40t-26 16q-17 0 -33 -4.5t-21 -9.5q-3 4 -3 10q15 5 32 11t37 6q14 0 25.5 -3.5t24.5 -15.5
q23 8 49.5 17.5t69.5 9.5q51 0 83.5 -11t51.5 -28t26.5 -37.5t7.5 -40.5q0 -24 -14 -46t-36 -41t-50 -34.5t-56 -26.5v-2q-2 0 14.5 -2t41 -9.5t54 -22.5t55 -41t42.5 -65t17 -94q0 -41 -20.5 -75.5t-53.5 -59t-75 -38.5t-85 -14h-37zM166 654q-15 -12 -21.5 -20.5t-9 -18
t-2 -24t0.5 -38.5v-62.5t2 -58.5q35 4 66.5 14t55 26.5t37.5 39t14 49.5q0 24 -11 42t-28.5 30t-39.5 17.5t-43 5.5q-6 0 -11 -0.5t-10 -1.5zM147 402q-2 -5 -5 -13t-8 -19v-20q0 -20 -0.5 -36.5t-0.5 -31.5v-210q0 -23 6 -34t16 -15t23.5 -3t28.5 1q40 0 70 16t50 40.5
t30.5 53.5t10.5 54q0 48 -22.5 86.5t-56 66.5t-72 44.5t-70.5 19.5z" />
    <glyph glyph-name="C" unicode="C" 
d="M301 3q-11 -3 -22 -3q-34 0 -79 18.5t-85 58.5t-68 101.5t-28 147.5q0 92 26.5 160.5t71.5 114.5t103.5 68.5t123.5 22.5h64q24 0 39 -6.5t22.5 -17t10 -24.5t2.5 -28q0 -10 -5 -21t-12.5 -20.5t-16.5 -15.5t-18 -6q0 7 -9 13.5t-21 12t-24.5 9t-20.5 3.5q9 13 9 37
q-17 29 -73 29q-16 0 -49.5 -14t-67 -49.5t-59 -96.5t-25.5 -154q0 -74 23 -132t60.5 -98t84 -61t93.5 -21q15 0 27.5 2.5t25.5 7.5t27 11.5t32 15.5q10 -2 21.5 -4.5t18.5 -4.5q-12 -12 -33 -22.5t-45.5 -18t-49 -11.5t-43.5 -4h-16h-15z" />
    <glyph glyph-name="D" unicode="D" horiz-adv-x="696" 
d="M244 7q-5 0 -10 -1t-10 -1q-14 0 -30 1t-36 2h-8q-11 1 -27.5 2t-33.5 3t-32 5.5t-24 9.5q9 11 16 11.5t12.5 -1t10 -1.5t7.5 11t5 37.5t3.5 76t2 127.5t0.5 192q0 34 1 76t-3.5 78.5t-17 61t-39.5 24.5q-26 0 -50 -6.5t-33 -14.5q-4 5 -4 15q23 8 48.5 17t57.5 9
q21 0 38.5 -5t37.5 -24q19 -22 52 -32t74 -15.5t87 -10.5t91 -17t86.5 -34t73 -61.5t50 -100t18.5 -149.5q0 -62 -31 -114.5t-81 -90.5t-114.5 -59t-130.5 -21h-57zM205 620q-3 -8 -8 -20t-12 -29v-30q0 -30 -0.5 -55.5t-0.5 -48.5v-320q0 -36 9 -52.5t24.5 -22.5t36 -5
t43.5 1q60 0 106 25t77 62.5t47 81.5t16 83q0 48 -16 90.5t-42.5 78t-61.5 64t-72.5 49t-75.5 33t-70 15.5z" />
    <glyph glyph-name="E" unicode="E" 
d="M301 3q-11 -3 -22 -3q-34 0 -79 18.5t-85 58.5t-68 101.5t-28 147.5q0 92 26.5 160.5t71.5 114.5t103.5 68.5t123.5 22.5h64q24 0 39 -6.5t22.5 -17t10 -24.5t2.5 -28q0 -10 -5 -21t-12.5 -20.5t-16.5 -15.5t-18 -6q0 7 -9 13.5t-21 12t-24.5 9t-20.5 3.5q9 13 9 37
q-17 29 -73 29q-14 0 -40.5 -10t-55.5 -34t-55.5 -64.5t-39.5 -101.5q36 -2 78.5 -3.5t83.5 -2.5t77.5 -2t59.5 -1q11 3 24 7t23 13h7q16 -5 29 -15q0 -18 0.5 -23t0.5 -10q-8 -8 -24 -15q-7 4 -15.5 7.5t-19.5 5.5q-20 6 -31 6q-26 -3 -63 -4.5t-78 -2t-82.5 -0.5h-75.5
q-2 -15 -3 -31t-1 -33q0 -74 23 -132t60.5 -98t84 -61t93.5 -21q15 0 27.5 2.5t25.5 7.5t27 11.5t32 15.5q10 -2 21.5 -4.5t18.5 -4.5q-12 -12 -33 -22.5t-45.5 -18t-49 -11.5t-43.5 -4h-31z" />
    <glyph glyph-name="F" unicode="F" horiz-adv-x="379" 
d="M157 583q-7 -5 -9 -14.5t-3 -18.5v-14q-1 -22 -1.5 -44.5t-0.5 -46.5v-217q6 -5 15 -6q3 -3 16 -3h7q85 3 175 27v-12q-11 -12 -21 -23.5t-21 -22.5q-16 -17 -22 -21q-20 5 -41 10.5t-40 5.5h-9q-19 -1 -29.5 -1t-12.5 -2q-2 -1 -8.5 -1.5t-11.5 -2.5v-53q0 -3 0.5 -8
t0.5 -11q1 -14 1 -26v-23v-23t-1 -30q0 -4 -0.5 -7.5t-0.5 -6.5q0 -19 3 -29q6 -12 24 -12q3 -4 6 -7.5t5 -6.5q-44 -21 -71 -27q-8 -2 -15 -4l-14 -4q-2 0 -4 0.5l-6 1.5q-5 -2 -10.5 -2.5t-10.5 -2.5q-1 0 -1 2q0 4 8 14q5 12 7 22.5t4 20.5v7q2 4 4.5 8.5t3.5 14.5
q1 17 2 35t1 39v30v109v53v46v26v22v25t-1 19v15q0 51 -1 91t-3 70q-3 10 -23 24q-5 2 -10.5 4t-10.5 4q-6 7 -6 11v2q21 9 102 10q16 1 32.5 1h34.5q56 0 100 7.5t76 24.5v-10q-6 -13 -8 -25t-3 -14q-29 -3 -49 -5l-40 -4q-5 0 -10.5 -1t-11.5 -2q-19 -2 -40.5 -4t-46.5 -4
z" />
    <glyph glyph-name="G" unicode="G" horiz-adv-x="529" 
d="M526 399q-1 -2 -1 -7t-2 -13q-3 -15 -3 -24q-2 0 -2.5 -3t-2.5 -18q-1 -7 -2.5 -15.5t-5.5 -19.5q-4 -15 -6.5 -36t-3.5 -49q-1 -20 -1 -42.5v-48.5v-39q2 -16 3.5 -30t1.5 -27q0 -16 -5 -33v-20q0 -11 0.5 -14t1 -5t1.5 -7t1 -21q-3 -63 -9 -107q-4 -35 -11.5 -63.5
t-19.5 -50.5q-26 -47 -66 -71q-7 -5 -20 -5q2 3 6 11q30 29 42 103q5 23 8.5 58t3.5 80l-2 43q11 39 7.5 58t-12 25.5t-17 3.5t-7.5 -10q-2 8 -3 15t-6 7q-4 0 -4 -9q-5 0 -24 -10q-30 -6 -56 -6h-11.5t-10.5 1q-18 2 -35 5t-34 8q-24 9 -47.5 27.5t-43.5 41.5
q-45 34 -79 112q-29 71 -33 162v44q2 67 27 119.5t64 90t88.5 58t99.5 23.5q11 1 21.5 1h21.5q30 0 57.5 -2.5t53.5 -8.5q22 -9 37.5 -21t20.5 -27q-5 -13 -10 -25.5t-13 -26.5q-17 -21 -21 -34q-11 8 -21.5 15t-22.5 14l-4 4q2 2 2.5 3t2.5 3q8 10 8 23q-11 24 -31.5 38
t-46.5 19q-26 3 -53 3q-2 0 -4 -2t-5 -4q-16 -1 -31 -3.5t-29 -5.5q-21 -7 -50 -31q-30 -25 -56 -67q-15 -25 -23.5 -54.5t-11.5 -64.5q-1 -12 -1.5 -24.5t-0.5 -26.5q-1 -9 -1 -18.5v-19.5q0 -120 68 -214q63 -82 128 -97q32 -8 64 -8q61 0 87 48v76q-12 18 -12 19
q2 4 4.5 8.5t7.5 9.5v30q-2 13 -3 24.5t-2 24.5v18t-1 17q-1 39 -17 62q-25 14 -53 23q-1 1 -1 2q2 2 6 4q6 1 12 0.5t13 0.5q6 1 11.5 1h10.5h40q5 0 9.5 0.5t9.5 0.5h7.5t8.5 1t12.5 2t15.5 3q4 0 10 2q5 0 6 -7z" />
    <glyph glyph-name="H" unicode="H" horiz-adv-x="618" 
d="M591 728q-1 -2 -1 -7t-2 -13q-3 -15 -3 -24q-2 0 -2.5 -3t-2.5 -18q-1 -7 -2.5 -15.5t-5.5 -19.5q-4 -15 -6.5 -36t-3.5 -49q-1 -20 -1 -42.5v-48.5v-149v-50.5t1 -59.5q-3 -63 -9 -107q-4 -35 -11.5 -63.5t-19.5 -50.5q-26 -47 -66 -71q-7 -5 -20 -5q2 3 6 11
q30 29 42 103q5 23 8.5 58t3.5 80v207h-371v-165q0 -86 9 -150q11 -18 34 -33q0 -1 1 -1q-1 -1 -7 -5h-149q-1 0 -1 2q23 2 33 14q5 12 8.5 39t5.5 59q2 51 3.5 109.5t1.5 127.5v245q0 43 -6 58q-5 28 -18 48q-20 21 -52 21l-1 1q2 4 2 5h173q2 0 4 -2t2 -4v-1
q-8 -14 -14.5 -28.5t-11.5 -30.5q-2 0 -3 -1q-5 -11 -8 -41q-6 -84 -6 -222v-5h371v154q-2 13 -3 24.5t-2 24.5v18t-1 17q-1 39 -17 62q-25 14 -53 23q-1 1 -1 2q2 2 6 4q6 1 12 0.5t13 0.5q6 1 11.5 1h10.5h40q5 0 9.5 0.5t9.5 0.5h7.5t8.5 1t12.5 2t15.5 3q4 0 10 2
q5 0 6 -7z" />
    <glyph glyph-name="I" unicode="I" horiz-adv-x="192" 
d="M169 6q-1 -1 -7 -5h-149q-1 0 -1 2q23 2 33 14q5 12 8.5 39t5.5 59q2 51 3.5 109.5t1.5 127.5v245q0 43 -6 58q-5 28 -18 48q-20 21 -52 21l-1 1q2 4 2 5h173q2 0 4 -2t2 -4v-1q-8 -14 -14.5 -28.5t-11.5 -30.5q-2 0 -3 -1q-5 -11 -8 -41q-6 -84 -6 -222v-210
q0 -86 9 -150q11 -18 34 -33q0 -1 1 -1z" />
    <glyph glyph-name="J" unicode="J" horiz-adv-x="194" 
d="M185 692q-1 -2 -1 -7t-2 -13q-3 -15 -3 -24q-2 0 -2.5 -3t-2.5 -18q-1 -7 -2.5 -15.5t-5.5 -19.5q-4 -15 -6.5 -36t-3.5 -49q-1 -20 -1 -42.5v-48.5v-149v-50.5t1 -59.5q-3 -63 -9 -107q-4 -35 -11.5 -63.5t-19.5 -50.5q-26 -47 -66 -71q-7 -5 -20 -5q2 3 6 11
q30 29 42 103q5 23 8.5 58t3.5 80v401q-2 13 -3 24.5t-2 24.5v18t-1 17q-1 39 -17 62q-25 14 -53 23q-1 1 -1 2q2 2 6 4q6 1 12 0.5t13 0.5q6 1 11.5 1h10.5h40q5 0 9.5 0.5t9.5 0.5h7.5t8.5 1t12.5 2t15.5 3q4 0 10 2q5 0 6 -7z" />
    <glyph glyph-name="K" unicode="K" horiz-adv-x="600" 
d="M497 -3q-10 0 -25 9q-7 4 -11.5 6.5t-9.5 5.5q-15 12 -36 36q-25 30 -47.5 63.5t-42.5 71.5q-16 29 -33 60t-37 63q-30 43 -65 57q-4 4 -8 7t-8 7v-228q-3 -11 -3 -24q3 -55 15 -88q6 -17 21 -27q5 -1 13 -7q-26 -2 -42.5 -3.5t-21.5 -1.5h-43q-21 0 -27 3q-5 0 -15 2
q-5 1 -6.5 5t-1.5 18h3q9 0 26 9q7 52 9 129v74q-1 21 -1 35v22v260v36t-1 42q0 20 -0.5 36.5t-0.5 29.5q-1 0 -3 1l-9 3q-7 0 -11 9q-6 8 -16 15.5t-30 7.5q-3 0 -6 3q2 4 9.5 6.5t15.5 4.5q5 2 13.5 2h20.5q17 2 34 3.5t34 3.5q11 2 22 2.5t23 1.5q11 1 21.5 2t17.5 5
l1 -1q-1 -10 -27 -27q-7 -8 -15 -18t-16 -21v-247q-4 0 -4 -6v-44q3 -2 5 -2q1 0 1 1v1q65 23 113 84q44 54 82 135q-2 2 -2.5 4t-1.5 4q-11 0 -20 -3l3 24h-1q2 0 8 2q2 0 3 -0.5t3 -0.5q10 0 22 3t26 8q43 11 78 13v-3q-12 -13 -14 -18q-3 -1 -13 -6q-14 -11 -27 -29
q-4 -5 -8.5 -12t-9.5 -16q-5 -8 -11 -17.5t-14 -21.5q-11 -18 -28 -38.5t-40 -42.5q-21 -17 -42 -35t-43 -37q39 -28 65 -67q14 -20 26 -40t23 -39l20 -34l20 -34q11 -17 21 -33t21 -31q25 -33 56 -61q38 -32 68 -32q2 0 8 3t14 4q0 -3 2 -7q-11 -5 -24 -11t-29 -14
q-13 -8 -22 -11.5t-14 -3.5z" />
    <glyph glyph-name="L" unicode="L" horiz-adv-x="426" 
d="M296 -3q-10 2 -18.5 3t-15.5 1q-23 0 -46.5 0.5t-49.5 0.5q-20 2 -36.5 2h-30.5q-13 0 -25 -0.5t-23 -1.5l-1 2q0 6 2 16l16 10q2 1 3.5 2t3.5 2q2 35 3 64t1 51v458q0 26 -0.5 50t-1.5 45q-1 14 -9 28q-12 10 -53 21v1q2 2 3.5 3t12.5 2q2 1 5 1.5t5 1.5q19 2 39.5 4.5
t42.5 4.5q24 5 40 7t24 4v-1q0 -8 -14 -24q-12 -6 -16 -10q-4 -32 -5.5 -67.5t-1.5 -73.5v-527q17 -35 82 -35h15t15 1q28 1 52 7t45 17q14 8 26.5 17t25.5 18q-2 -11 -4 -21t-4 -19q-23 -29 -35 -37q-3 -3 -6 -5t-7 -4q-17 -23 -40 -23q-4 0 -19 4z" />
    <glyph glyph-name="M" unicode="M" horiz-adv-x="846" 
d="M132 632q7 -3 13 -16l-6 -21q-2 -10 -2 -18q20 12 39.5 26t46.5 23q39 11 75 14q5 1 9 1h8q19 0 32 -4q46 -4 76 -34l9.5 -9.5t9.5 -11.5q20 17 41 31.5t38 18.5h11q20 4 40.5 6t40.5 4q5 1 9.5 1h9.5q7 0 13.5 -0.5t13.5 -1.5q61 -5 97 -42q44 -41 45 -94q6 -17 9 -41
t3 -58q0 -7 -0.5 -13.5t-0.5 -13.5v-40q-2 -31 -9 -74q-3 -14 -4.5 -24.5t-2.5 -16.5q-1 -5 -1 -10v-9v-4q-6 -32 -11 -61t-10 -55q1 -17 14 -41q15 -15 15 -23q0 -1 -0.5 -1.5t-0.5 -1.5q-15 0 -40 -3q-23 -1 -45 -1.5t-42 -0.5v14q5 5 9.5 12.5t4.5 10.5v7h11q8 10 20 58
q5 19 9 42t7 49q5 22 8.5 50.5t3.5 61.5v67q0 19 -3 42q-6 74 -39 124q-25 36 -62 47q-34 8 -57 8h-6.5t-6.5 -1q-8 0 -14.5 -0.5t-13.5 -0.5q-24 -4 -50 -18t-44 -37q8 -14 14 -31q3 -11 4.5 -23t3.5 -21q2 -19 3.5 -37.5t1.5 -37.5v-106q0 -23 -2 -43.5t-2 -37.5v-35
q-4 -15 -8 -34t-6 -37q-1 -6 -1 -11v-10q2 -19 7 -32q1 -1 1 -4q5 -5 10 -10.5t10 -11.5q0 -7 -5 -12h-14.5t-17.5 -1q-12 -2 -22.5 -2h-18.5h-24t-18 1q-1 1 -2 1q-1 1 -2 1t-2 1q-2 2 -2 6q0 3 1 5q4 1 11.5 13t10.5 26q2 3 2.5 6.5t1.5 6.5q10 29 18 70.5t9 95.5v158
q0 11 -0.5 22.5t-1.5 23.5q-5 76 -19 76q0 17 -5 30q-2 2 -5 4q-24 28 -62 36q-15 7 -38 7q-13 0 -22.5 -0.5t-17.5 -0.5q-31 0 -68 -24q-17 -10 -27.5 -19.5t-17.5 -19.5q-2 -7 -3 -17.5t-1 -24.5v-26v-55.5t-1 -63.5v-40.5t-0.5 -62.5t-0.5 -61.5v-38.5q0 -11 0.5 -24.5
t1.5 -29.5q4 -14 7.5 -26t5.5 -20q1 -3 2 -5t1 -4l12 -7q11 -5 13 -10q0 -8 -4 -12q-17 0 -38 -1.5t-36 -1.5q-14 0 -24 0.5t-18 0.5l-3 3q-8 3 -8 7v3q13 17 22 85q3 26 4.5 48.5t2.5 41.5v7q0 13 -1.5 26t-1.5 28q0 5 1 10q1 3 2 6.5t1 11.5v163q0 57 -1.5 100.5
t-5.5 75.5l-4.5 4.5l-7.5 7.5v1q0 1 -2 3q7 1 17.5 1.5t26.5 0.5q8 1 14 1h12h10t9 -1z" />
    <glyph glyph-name="N" unicode="N" horiz-adv-x="590" 
d="M562 662q-7 -10 -11 -71q-2 -14 -2.5 -30.5t-1.5 -34.5q-5 -115 -6.5 -243.5t-1.5 -275.5q-6 -6 -13 -7q-5 8 -13.5 19.5t-21.5 28.5t-23.5 31.5t-19.5 28.5v4q-5 2 -17 16t-25 31q-26 33 -44 57t-33 46t-29.5 45t-33.5 54q-9 11 -18 21.5t-16 21.5q-8 14 -15 29
q-17 26 -32 49t-29 44q-11 14 -18 22t-10 12v-260q0 -15 -0.5 -30t-0.5 -30v-41q0 -21 2 -42t6 -43q4 -14 7.5 -28.5t8.5 -28.5q0 -15 11 -30q13 -7 30 -10q-3 -1 -11.5 -4t-17.5 -6q-13 -2 -28.5 -3.5t-34.5 -3.5q-14 -2 -25 -4t-19 -4q-1 2 -1 6t2 8q15 15 23 59
q2 14 2.5 29t1.5 32q2 42 3 85.5t2 90.5q0 16 0.5 43t1 58t1 63.5t1 60t0.5 46.5v24q0 18 -35 27q-4 0 -10 -2q-8 6 -14.5 10t-11.5 6q4 5 12.5 16t22.5 28q20 -1 40.5 -1t40.5 -1q14 -20 34 -54.5t53 -79.5q16 -31 37 -67t57 -83q14 -23 29 -47t32 -50q20 -29 41 -59
t44 -60q31 -36 43 -46q4 56 5.5 126t2.5 157q1 18 1 37.5t1 40.5q0 11 -2.5 17.5t-2.5 9.5q0 78 -30 113q-8 -2 -11 -6l-12 12t-11 12q8 11 21 17t27 11q11 2 20.5 4t20.5 4q0 -6 8 -6h11q9 0 11 -1q2 0 2 -4q0 -6 -3 -10q-5 -5 -5 -6z" />
    <glyph glyph-name="O" unicode="O" horiz-adv-x="712" 
d="M322 0q-35 0 -73.5 12.5t-72.5 33.5q-20 13 -57 53q-5 4 -10.5 9t-10.5 10q-10 12 -18.5 25.5t-16.5 27.5q-20 35 -28.5 71.5t-8.5 78.5v15t1 16q0 17 1.5 34t3.5 34q5 33 28 75q12 23 24.5 41.5t26.5 34.5q7 9 18 18q13 16 27 29t28 25q40 32 88 40q35 8 69 8
q23 0 44.5 -1.5t44.5 -3.5q28 -8 55 -24q22 -13 46 -34.5t52 -51.5q8 -6 14.5 -11.5t11.5 -12.5q11 -16 20.5 -32t17.5 -33q15 -34 24.5 -65.5t11.5 -62.5q1 -6 1 -12v-12q0 -12 -1 -24t-3 -24q-10 -93 -61 -163q-85 -124 -271 -124h-26zM358 667q-14 0 -27 -2t-27 -4
q-4 0 -8 2q-35 -11 -68.5 -36.5t-62.5 -70.5q-30 -48 -44 -92.5t-14 -101.5q0 -103 34 -178q6 -13 12 -25t14 -23q15 -27 33.5 -47t38.5 -34q19 -11 35 -18t29 -11q20 -4 29 -5t18 -1q6 1 12.5 1t11.5 1h10.5t10.5 2q24 4 50 15q49 20 80 48q8 8 15 17t13 20q6 10 11 22
t10 26q19 54 22 94q0 18 1.5 27.5t3.5 18.5q-3 4 -3 13q0 6 3 11q-4 48 -20 103q-4 21 -11.5 43.5t-20.5 46.5q-11 20 -22 36.5t-22 29.5q-31 32 -68 52t-79 20z" />
    <glyph glyph-name="P" unicode="P" horiz-adv-x="389" 
d="M102 348q-2 -14 -3 -28.5t-1 -30.5q0 -11 1.5 -25t1.5 -25q-2 -10 -3 -21.5t-1 -27.5v-112q0 -20 5 -40q7 -4 13.5 -8.5t11.5 -12.5q0 -5 -0.5 -9t-6.5 -4q-3 -1 -5 -1q-1 0 -3 2q-8 -2 -16 -2q-2 0 -4 0.5t-4 0.5q-5 0 -9 0.5t-6 0.5q-14 0 -33 -3q-11 -2 -19 -3t-13 -1
q-2 2 -2 7q9 2 20 17q2 14 3.5 41t3.5 69q1 7 2 18t3 25v26.5t1 27.5q1 69 1.5 128.5t0.5 113.5q-2 19 -3 38t-2 47q-2 78 -20 106q-2 1 -9 1h-9q-15 0 -28 -15q-7 3 -13.5 6.5t-14.5 6.5q8 8 16 11q6 2 11.5 2.5t12.5 2.5q12 3 25 4t27 2q6 0 12 -0.5t12 -0.5q16 -3 31 -6
t30 -8q12 9 28 17q16 2 31.5 3.5t29.5 1.5q30 0 57 -6q17 -3 35 -11q22 -14 39 -36q29 -40 29 -90q0 -8 -1 -12q-5 -64 -47 -114q-56 -52 -123 -77zM152 653q-28 -9 -42 -22q-3 -25 -6 -110q-1 -45 -1.5 -80.5t-0.5 -63.5q9 -3 35 -6q33 2 52 7q51 12 81 50l6 8t6 9
q9 16 12 34q3 12 5 26q1 13 3 25q0 8 -0.5 14.5t-1.5 13.5q-4 33 -26 62q-24 31 -57 38q-6 1 -12 1h-11q-24 0 -42 -6z" />
    <glyph glyph-name="Q" unicode="Q" horiz-adv-x="712" 
d="M322 0q-35 0 -73.5 12.5t-72.5 33.5q-20 13 -57 53q-5 4 -10.5 9t-10.5 10q-10 12 -18.5 25.5t-16.5 27.5q-20 35 -28.5 71.5t-8.5 78.5v15t1 16q0 17 1.5 34t3.5 34q5 33 28 75q12 23 24.5 41.5t26.5 34.5q7 9 18 18q13 16 27 29t28 25q40 32 88 40q35 8 69 8
q23 0 44.5 -1.5t44.5 -3.5q28 -8 55 -24q22 -13 46 -34.5t52 -51.5q8 -6 14.5 -11.5t11.5 -12.5q11 -16 20.5 -32t17.5 -33q15 -34 24.5 -65.5t11.5 -62.5q1 -6 1 -12v-12q0 -12 -1 -24t-3 -24q-10 -93 -61 -163q-58 -85 -164 -112l27 -39q25 -33 56 -61q38 -32 68 -32
q2 0 8 3t14 4q0 -3 2 -7q-11 -5 -24 -11t-29 -14q-13 -8 -22 -11.5t-14 -3.5q-10 0 -25 9q-7 4 -11.5 6.5t-9.5 5.5q-15 12 -36 36q-20 24 -38 49.5t-35 54.5q-10 -1 -19 -1h-19h-26zM299 155q7 -10 15.5 -6.5t17 10t16.5 10.5t14 -5q5 -9 16 -26.5t23 -37t23 -37.5t16 -26
q1 0 5 2q49 20 80 48q8 8 15 17t13 20q6 10 11 22t10 26q19 54 22 94q0 18 1.5 27.5t3.5 18.5q-3 4 -3 13q0 6 3 11q-4 48 -20 103q-4 21 -11.5 43.5t-20.5 46.5q-11 20 -22 36.5t-22 29.5q-31 32 -68 52t-79 20q-14 0 -27 -2t-27 -4q-4 0 -8 2q-35 -11 -68.5 -36.5
t-62.5 -70.5q-30 -48 -44 -92.5t-14 -101.5q0 -103 34 -178q6 -13 12 -25t14 -23q15 -27 33.5 -47t38.5 -34q19 -11 35 -18t29 -11q20 -4 29 -5t18 -1q6 1 12.5 1t11.5 1q-4 6 -5 10q-16 29 -33 60t-37 63z" />
    <glyph glyph-name="R" unicode="R" horiz-adv-x="544" 
d="M510 -18h-28.5t-28.5 1q-24 6 -71 55q-33 35 -48 56q-7 9 -14 18.5t-14 20.5q-13 19 -25 37t-23 36q-40 61 -59 107q-19 19 -58 35q-2 -14 -3 -28.5t-1 -30.5q0 -11 1.5 -25t1.5 -25q-2 -10 -3 -21.5t-1 -27.5v-112q0 -20 5 -40q7 -4 13.5 -8.5t11.5 -12.5q0 -5 -0.5 -9
t-6.5 -4q-3 -1 -5 -1q-1 0 -3 2q-8 -2 -16 -2q-2 0 -4 0.5t-4 0.5q-5 0 -9 0.5t-6 0.5q-14 0 -33 -3q-11 -2 -19 -3t-13 -1q-2 2 -2 7q9 2 20 17q2 14 3.5 41t3.5 69q1 7 2 18t3 25v26.5t1 27.5q1 69 1.5 128.5t0.5 113.5q-2 19 -3 38t-2 47q-2 78 -20 106q-2 1 -9 1h-9
q-15 0 -28 -15q-7 3 -13.5 6.5t-14.5 6.5q8 8 16 11q6 2 11.5 2.5t12.5 2.5q12 3 25 4t27 2q6 0 12 -0.5t12 -0.5q16 -3 31 -6t30 -8q12 9 28 17q16 2 31.5 3.5t29.5 1.5q30 0 57 -6q17 -3 35 -11q22 -14 39 -36q29 -40 29 -90q0 -8 -1 -12q-5 -64 -47 -114
q-56 -52 -123 -77q22 -22 46 -53.5t50 -73.5q22 -32 45 -66q11 -16 21 -30.5t20 -27.5q55 -72 104 -85q7 -3 17 -3q12 0 27 6v-5.5t-5 -2.5q-21 -21 -51 -21zM191 653q-28 -9 -42 -22q-3 -25 -6 -110q-1 -45 -1.5 -80.5t-0.5 -63.5q9 -3 35 -6q33 2 52 7q51 12 81 50l6 8
t6 9q9 16 12 34q3 12 5 26q1 13 3 25q0 8 -0.5 14.5t-1.5 13.5q-4 33 -26 62q-24 31 -57 38q-6 1 -12 1h-11q-24 0 -42 -6z" />
    <glyph glyph-name="S" unicode="S" horiz-adv-x="405" 
d="M382 661q-3 -4 -6.5 -10t-5.5 -15l-2.5 -12.5t-4.5 -18.5q-5 -20 -11 -38t-13 -36q-5 8 -8.5 14.5t-7.5 13.5q-1 17 -8 37q-6 26 -23 41.5t-41 15.5q-8 3 -17.5 6t-17.5 3h-17t-17 -2q-20 -6 -39 -13.5t-37 -18.5q-40 -34 -40 -81q0 -79 83 -139q5 -2 9 -2.5t9 -2.5
q33 -23 66.5 -45.5t66.5 -45.5l18 -9q23 -20 37.5 -43t18.5 -49q5 -25 5 -45q0 -7 -0.5 -14t-1.5 -14q-8 -59 -59 -95q-3 -3 -6.5 -5.5t-6.5 -4.5q-54 -33 -122 -33h-24q-30 1 -69 12q-35 10 -49 24q3 8 6.5 25.5t3.5 35.5q0 41 11 65h2q9 -41 22.5 -70.5t31.5 -40.5
q21 -14 63 -20q15 -4 28 -4q47 0 83 29q39 30 39 86q0 42 -34 86q-15 17 -33 31t-39 23q-51 23 -133 88q-66 54 -72 117q-1 7 -1.5 13t-0.5 13q0 76 50 126q3 3 6.5 5.5t6.5 4.5q35 31 78 37q28 3 59 3q8 0 15.5 -0.5t15.5 -0.5q8 -1 16.5 -1.5t17.5 -2.5q32 -6 49 -9
q12 -2 24.5 -4.5t25.5 -4.5v-5z" />
    <glyph glyph-name="T" unicode="T" horiz-adv-x="518" 
d="M554 730q8 -2 14 -2q-5 -8 -10 -14.5t-10 -14.5q-8 -11 -17.5 -21.5t-20.5 -21.5h-7q-17 0 -26 4q-6 -1 -12 -1.5t-12 -0.5q-11 -2 -23 -3t-26 -2q-33 0 -91 -3q-9 -3 -9 -29q-2 -9 -2.5 -22t-1.5 -30v-28q-3 -56 -3 -91q0 -100 0.5 -169t0.5 -110q3 -87 13 -134
q3 -4 17 -6q14 -9 16 -18q-8 -3 -15 -4.5t-13 -2.5q-19 -2 -37 -3t-37 -1q-25 0 -38 5q-11 1 -11 8v3q2 -1 6 -1q2 0 23 8q7 43 9 99v351q0 39 -1.5 74t-3.5 66q0 7 1 10q-2 15 -5 22h-8h-10.5t-11.5 -1h-31q-17 0 -40 -17q-32 -12 -59 -33q-14 17 -23.5 28.5t-15.5 18.5
q66 38 128 42q27 2 57.5 3t65.5 1q114 0 191 12q23 3 50 12q19 9 33 12q2 2 3 2.5t3 2.5z" />
    <glyph glyph-name="U" unicode="U" horiz-adv-x="574" 
d="M493 2h-21q-8 -1 -13 -1h-9q-3 0 -6 0.5t-8 1.5q2 12 4.5 22.5t5.5 20.5q1 7 3 18v17q-26 -17 -56.5 -34t-62.5 -27q-1 0 -6.5 -3t-12.5 -3q-14 -3 -28.5 -5.5t-29.5 -4.5q-5 -1 -14 -1q-12 0 -22.5 2t-21.5 4h-9q-65 0 -102 46q-6 7 -11 16t-10 20q-13 26 -19 59
q-11 42 -11 93v12v42q3 103 13 144q11 63 20 108t11 78q-4 8 -10 14.5t-6 14.5v1q5 2 7 6t11 10h13q17 1 33 1.5t30 0.5h21q3 -9 3 -14q-8 0 -11 -1q-5 -5 -25 -57q-8 -26 -15 -58.5t-13 -73.5q-7 -26 -11.5 -62.5t-4.5 -81.5v-92q6 -77 30 -126q20 -44 48 -54q5 -2 11 -3.5
t13 -3.5t14.5 -2.5t15.5 -2.5l21 -3.5t16 -1.5q14 0 27.5 1.5t28.5 3.5q12 3 28 8q45 14 76 44q14 16 21.5 36t7.5 32v353v28t-1 33q-2 28 -6 50q0 3 -1 5q-6 13 -34 32v5.5t4 4.5q13 -3 29 -3q3 0 5.5 0.5t4.5 0.5q22 3 41 3h19.5t12.5 -1q18 -2 18 -7q-20 -29 -28 -123
q-1 -32 -1.5 -69.5t-0.5 -82.5q-1 -5 -2.5 -10t-1.5 -13v-159q0 -63 2 -110.5t6 -81.5q2 -1 3.5 -2t3.5 -3q0 -1 -2 -0.5t-2 -1.5v-1q0 -2 -1.5 -4t-1.5 -4h-30z" />
    <glyph glyph-name="V" unicode="V" horiz-adv-x="465" 
d="M438 623q-8 -15 -18 -54q-10 -31 -19 -59.5t-17 -56.5q-9 -32 -17.5 -60.5t-16.5 -54.5q-24 -69 -42 -146q-10 -29 -19 -59l-18 -60q-8 -24 -14.5 -42t-11.5 -31q-3 1 -13 22q-9 29 -19.5 62t-23.5 71q-2 5 -9.5 29t-16.5 52t-17 51.5t-9 28.5q-11 32 -21 63t-21 63
q-16 47 -30.5 88t-30.5 81q-6 16 -23 25q-2 -2 -4 -2q-6 4 -13 8.5t-13 11.5q49 19 125 30q9 -5 12 -16.5t5 -22.5q-8 -6 -11.5 -11t-3.5 -13l5 -20t8 -26q8 -32 20 -70.5t27 -84.5q13 -32 20.5 -56t12.5 -38q4 -14 9.5 -31.5t13.5 -39.5q14 -32 24.5 -59t16.5 -41
q11 21 23 54.5t26 80.5q7 23 13.5 47.5t14.5 49.5t15 48.5t14 45.5q23 75 27 119v5q0 6 -0.5 12.5t-0.5 12.5v5q-1 3 -8 12h-24q-3 5 -6 9.5t-5 9.5q-1 2 -1 3t-1 3q26 5 58 8t71 4v-11q-17 -7 -43 -50z" />
    <glyph glyph-name="W" unicode="W" horiz-adv-x="668" 
d="M603 621q-8 -15 -18 -54q-10 -31 -19 -59.5t-17 -56.5q-9 -32 -17.5 -60.5t-16.5 -54.5q-24 -69 -42 -146q-10 -29 -19 -59l-18 -60q-8 -24 -14.5 -42t-11.5 -31q-3 1 -13 22q-9 29 -19.5 62t-23.5 71q-2 5 -9.5 29t-16.5 52t-17 51.5t-9 28.5q-11 32 -21 63t-21 63
q-16 47 -30.5 88t-30.5 81q-6 16 -23 25q-2 -2 -4 -2q-6 4 -13 8.5t-13 11.5q49 19 125 30q9 -5 12 -16.5t5 -22.5q-8 -6 -11.5 -11t-3.5 -13l5 -20t8 -26q8 -32 20 -70.5t27 -84.5q13 -32 20.5 -56t12.5 -38q4 -14 9.5 -31.5t13.5 -39.5q14 -32 24.5 -59t16.5 -41
q11 21 23 54.5t26 80.5q7 23 13.5 47.5t14.5 49.5t15 48.5t14 45.5q23 75 27 119v5q0 6 -0.5 12.5t-0.5 12.5v5q-1 3 -8 12h-24q-3 5 -6 9.5t-5 9.5q-1 2 -1 3t-1 3q26 5 58 8t71 4v-11q-17 -7 -43 -50zM438 623q-8 -15 -18 -54q-10 -31 -19 -59.5t-17 -56.5
q-9 -32 -17.5 -60.5t-16.5 -54.5q-24 -69 -42 -146q-10 -29 -19 -59l-18 -60q-8 -24 -14.5 -42t-11.5 -31q-3 1 -13 22q-9 29 -19.5 62t-23.5 71q-2 5 -9.5 29t-16.5 52t-17 51.5t-9 28.5q-11 32 -21 63t-21 63q-16 47 -30.5 88t-30.5 81q-6 16 -23 25q-2 -2 -4 -2
q-6 4 -13 8.5t-13 11.5q49 19 125 30q9 -5 12 -16.5t5 -22.5q-8 -6 -11.5 -11t-3.5 -13l5 -20t8 -26q8 -32 20 -70.5t27 -84.5q13 -32 20.5 -56t12.5 -38q4 -14 9.5 -31.5t13.5 -39.5q14 -32 24.5 -59t16.5 -41q11 21 23 54.5t26 80.5q7 23 13.5 47.5t14.5 49.5t15 48.5
t14 45.5q23 75 27 119v5q0 6 -0.5 12.5t-0.5 12.5v5q-1 3 -8 12h-24q-3 5 -6 9.5t-5 9.5q-1 2 -1 3t-1 3q26 5 58 8t71 4v-11q-17 -7 -43 -50z" />
    <glyph glyph-name="X" unicode="X" horiz-adv-x="703" 
d="M597 0q-48 24 -87 75q-13 19 -25 38t-24 42q-7 11 -13.5 23.5t-13.5 26.5q-18 30 -39 69q-14 17 -27 34t-26 35q-15 -19 -41.5 -57.5t-58.5 -102.5q-55 -95 -77 -169q-2 -2 -4.5 -2.5t-4.5 -2.5q10 1 19 6q-2 -6 -7 -11q-16 -4 -28 -4h-15t-27 1q-14 1 -25.5 1.5
t-21.5 1.5q-5 -1 -9.5 -1h-8.5l-1 2q-3 0 -4 3q0 4 1 6q9 7 35 15q23 13 38 28q10 13 24 31t32 44q11 16 23 31.5t23 32.5q29 40 45 63.5t23 42.5q4 5 6.5 10l4.5 9q2 10 2 20.5v22.5v20t-1 21q1 5 1 11v11q0 19 -6 36q0 3 -13 17q-26 38 -58 65q-16 12 -34 21t-38 14
q-2 0 -4.5 0.5t-4.5 0.5q-12 0 -23 -8q-4 -2 -8 -4.5t-9 -5.5h-9q-9 -3 -19.5 -10t-18.5 -10q19 33 37 50t33 27q16 7 39 10h7q5 0 11 -0.5t12 -1.5q40 -7 88 -51q14 -14 25 -27t22 -25q36 -48 50 -92q23 32 45.5 61.5t43.5 53.5q21 26 37 43.5t27 28.5q-1 1 -1 2t-1 3h1
q0 -1 -1 -1h2q4 0 12 -3t8 -6q0 1 1 1h1h1q6 0 15 1t21 5q5 2 8.5 3t7.5 3q10 -3 22 -6q-2 -5 -4 -12l-4 -14q-3 1 -14 12q-20 -9 -47 -45q-9 -4 -19.5 -10.5t-23.5 -15.5q-36 -25 -73 -72q-32 -40 -44 -68q5 -5 8.5 -11.5t5.5 -10.5l36 -45q12 -16 20 -28t12 -22
q15 -26 33 -57q16 -27 31 -51t29 -44q9 -13 16.5 -24t15.5 -21q49 -66 90 -73v-8q-6 -1 -12 -1.5t-12 -0.5q-4 -1 -7.5 -1t-8.5 -1h-25.5t-19.5 2z" />
    <glyph glyph-name="Y" unicode="Y" horiz-adv-x="636" 
d="M579 646q-20 -7 -37 -22t-31 -41q-9 -18 -15 -42q-11 -26 -21.5 -56.5t-18.5 -55.5q-5 -13 -11 -33t-10 -42q-9 -27 -15 -54q-5 -7 -8.5 -15.5t-5.5 -21.5q-7 -28 -11.5 -57.5t-6.5 -55.5q-2 -31 -9 -65q-4 -17 -9.5 -34t-13.5 -36t-16 -35t-17 -30q-8 -9 -17 -18
t-17 -18q-9 -5 -10 -10q-1 -1 -8 -4q-4 0 -11.5 -0.5t-18.5 -1.5q-10 -2 -17.5 -2h-13.5q-4 1 -13.5 2.5t-25.5 2.5v9q36 3 50 24q58 0 87 35q28 67 28 130q0 2 3 5v3h-3q-13 -8 -27 -15t-23 -7q-63 34 -105 104q-44 70 -59 160q-5 14 -9 28l-8 28q-9 30 -15 62
q-3 17 -6 30.5t-8 25.5q-2 8 -4 14.5t-4 14.5q2 8 3.5 16.5t3.5 16.5q0 26 -4 38q-5 9 -27 20q-5 3 -11.5 5.5t-14.5 4.5q8 5 18.5 10.5t24.5 11.5h7.5t13.5 -2q18 6 33.5 10t28.5 7q6 -2 6 -5q-2 -3 -3 -5.5t-3 -5.5q-3 -14 -6 -26.5t-5 -26.5q-3 -15 -3 -33q0 -17 3 -35
q1 -31 6.5 -61.5t15.5 -61.5v-28q16 -73 62 -135q31 -36 75 -45q15 -5 29 -5q5 0 10 0.5t10 1.5q24 12 26 35q3 14 6 27t5 26q4 8 6 19t4 20q7 26 15 65q3 32 7 45q8 22 19 45q0 2 0.5 6t0.5 9q3 9 6.5 19t7.5 21q19 49 56 91q34 40 88 54q7 2 17 6t16 6q-1 -2 -6 -11
q-8 -14 -16.5 -28t-19.5 -28z" />
    <glyph glyph-name="Z" unicode="Z" horiz-adv-x="608" 
d="M65 586q0 2 6 25q11 26 20 46.5t14 24.5q31 3 68 3h25q71 -2 130.5 -3t107.5 -1q76 0 117 12h1q2 0 4.5 -1.5t3.5 -2.5q-2 -2 -4 -5t-5 -8q-5 -10 -12.5 -24t-16.5 -31q-12 -1 -50 -49q-26 -32 -53 -71t-57 -72q0 -9 -9.5 -18.5t-21.5 -25.5q-4 -6 -9 -11
q-14 -21 -29.5 -42t-30.5 -42q-20 -26 -33.5 -46t-24.5 -35q-35 -46 -56.5 -79t-26.5 -53q23 3 76 15q11 2 21.5 3.5t21.5 2.5q14 2 28 3t28 1q20 -1 40 -1t43 -1h44h12q14 0 27 -1.5t25 -3.5q10 -1 19.5 -1.5t18.5 -0.5q20 0 31 5q12 -9 14 -17q-3 -4 -5.5 -8t-5.5 -9
q-5 -4 -10 -10t-7 -10q-5 -5 -13.5 -12.5t-14.5 -12.5q-23 11 -68 21t-108 10h-7h-66q-15 -1 -34.5 -3.5t-43.5 -7.5q-5 -2 -9.5 -4.5t-9.5 -4.5q-42 -8 -69.5 -15.5t-36.5 -12.5q-24 0 -43 3q5 12 28 43q14 20 29.5 43.5t35.5 50.5q19 27 40.5 57t45.5 63q15 20 25 34
t16 22l1 1q0 -1 2 3q11 16 25.5 35t31.5 42q33 45 63 84.5t57 75.5q22 29 37.5 49.5t24.5 34.5q-17 -2 -33 -4t-32 -3q-32 0 -62 3h-26q-12 -1 -24.5 -1.5t-30.5 -0.5q-10 1 -18.5 1t-16.5 1q-35 -3 -51 -6q-12 -2 -22.5 -2.5t-20.5 -2.5q-22 -4 -37 -11q-25 -9 -44 -33v2z
" />
    <glyph glyph-name="a" unicode="a" horiz-adv-x="350" 
d="M354 0q-17 0 -29.5 1.5t-21.5 3.5q-6 6 -14.5 22.5t-17 38t-16.5 45.5t-15.5 45t-12.5 35.5t-6 17.5h-20q-8 4 -15 7l-14 6q-10 -13 -21.5 -33.5t-23 -44t-22.5 -49.5t-21 -51l2 -8q-2 -9 -4.5 -15t-5.5 -14q-5 2 -6.5 5t-1.5 12q-5 -1 -10 -1.5t-10 -1.5h-26
q5 9 15.5 30t13.5 55q2 33 12 69.5t25.5 71.5t33.5 67t37 56q-4 15 -11.5 33.5t-18.5 29.5q-11 2 -17 3.5t-11 3t-5 2.5q16 4 30.5 7t34 6t42.5 4h1q-1 -2 -1 -6v-6q-2 -5 -2 -14q0 5 5 -15t15 -55.5t25 -82t36 -95.5q16 -38 25 -67t18.5 -49.5t23 -34.5t36.5 -24
q-3 -7 -11.5 -8.5t-19.5 -1.5zM209 234q-8 27 -17 56t-21 65h-5q-27 -27 -41 -51.5t-20 -48.5t-7 -49.5t-2 -53.5q20 12 35 22.5t27.5 21t24.5 20t26 18.5z" />
    <glyph glyph-name="b" unicode="b" horiz-adv-x="310" 
d="M114 0q-2 0 -4 -0.5t-5 -0.5q-6 0 -13 0.5t-15 1.5h-4q-5 0 -12 0.5l-14 1t-14 2.5t-11 4q8 10 12 23.5t6 38t2 63.5v99v104q0 14 0.5 32t-1 34t-7 26.5t-17.5 10.5q-11 0 -21.5 -3t-13.5 -6q-2 3 -2 7q9 3 20.5 7t24.5 4q9 0 16.5 -2.5t16.5 -10.5q15 6 32.5 12t46.5 6
q33 0 54.5 -7t34 -18.5t17.5 -25t5 -26.5q0 -16 -9 -30.5t-23.5 -27t-33 -23t-37.5 -17.5v-1q-1 0 10 -1.5t27 -6.5t35.5 -14.5t36.5 -27t28 -43t11 -62.5q0 -27 -13.5 -49.5t-35.5 -39t-49.5 -25.5t-55.5 -9h-25zM110 432q-10 -8 -14.5 -14t-6 -12t-1.5 -15.5v-25.5v-41
t2 -39q23 3 43.5 9.5t36 17.5t25 25.5t9.5 32.5q0 16 -7.5 28t-19 20t-26 11.5t-28.5 3.5q-4 0 -7 -0.5t-6 -0.5zM97 265q-1 -3 -3 -8.5t-6 -12.5v-13v-24v-21v-138q0 -16 4 -23t10.5 -9.5t15.5 -2t19 0.5q26 0 46 10.5t33 26.5t20 35.5t7 35.5q0 32 -15 57.5t-37 44
t-47.5 29t-46.5 12.5z" />
    <glyph glyph-name="c" unicode="c" horiz-adv-x="346" 
d="M199 2q-8 -2 -15 -2q-22 0 -52 12t-56.5 38.5t-44.5 67t-18 97.5q0 61 17.5 106t47 75.5t68 45.5t81.5 15h42q16 0 26 -4.5t15 -11.5t6.5 -16t1.5 -18q0 -7 -3 -14.5t-8 -13.5t-11 -10t-12 -4q0 5 -6 9t-14 7.5t-16 6t-14 2.5q6 9 6 24q-11 20 -48 20q-11 0 -33 -9.5
t-44 -33t-39 -63.5t-17 -102q0 -48 15.5 -86.5t40 -65t55.5 -40.5t62 -14q10 0 18 2t16.5 5t18 7.5t21.5 10.5q6 -1 13.5 -3t12.5 -3q-8 -8 -22 -15t-30 -12t-32 -7.5t-29 -2.5h-10h-10z" />
    <glyph glyph-name="d" unicode="d" horiz-adv-x="454" 
d="M161 5q-3 0 -6.5 -1t-6.5 -1q-9 0 -20 1t-24 1h-5q-7 1 -18 1.5t-22 2t-21 4t-16 5.5q6 8 10.5 8t8 -1t6.5 -1t5 7.5t3.5 25t2.5 50t1 84v126.5q0 23 1 50.5t-2 52t-11.5 40.5t-26.5 16q-17 0 -32.5 -4.5t-21.5 -9.5q-3 3 -3 10q15 5 32 11t38 6q14 0 25.5 -3.5
t24.5 -15.5q13 -15 34.5 -21.5t48.5 -10t57.5 -7t60 -11.5t57 -22.5t48.5 -40.5t33 -66t12 -98q0 -41 -20.5 -76t-53.5 -60t-75.5 -38.5t-85.5 -13.5h-38zM135 409q-2 -5 -5 -13t-8 -19v-20q0 -20 -0.5 -36.5t-0.5 -32.5v-211q0 -24 6 -34.5t16.5 -14.5t24 -3.5t28.5 0.5
q40 0 70 16.5t50.5 41.5t31 54t10.5 54q0 32 -10.5 60t-28 51.5t-40.5 42.5t-47.5 32.5t-50 21.5t-46.5 10z" />
    <glyph glyph-name="e" unicode="e" horiz-adv-x="346" 
d="M199 2q-8 -2 -15 -2q-22 0 -52 12t-56.5 38.5t-44.5 67t-18 97.5q0 61 17.5 106t47 75.5t68 45.5t81.5 15h42q16 0 26 -4.5t15 -11.5t6.5 -16t1.5 -18q0 -7 -3 -14.5t-8 -13.5t-11 -10t-12 -4q0 5 -6 9t-14 7.5t-16 6t-14 2.5q6 9 6 24q-11 20 -48 20q-9 0 -26.5 -7
t-36.5 -22.5t-36.5 -42.5t-26.5 -67q24 -1 52 -2t55 -2t51 -1.5t39 -0.5q8 2 16.5 4.5t14.5 8.5h5q11 -3 19 -10q0 -12 0.5 -15t0.5 -6q-6 -6 -16 -10q-5 2 -10.5 4.5t-12.5 3.5q-13 4 -21 4q-17 -2 -41.5 -3t-51.5 -1h-54.5h-49.5q-1 -10 -2 -20.5t-1 -22.5
q0 -48 15.5 -86.5t40 -65t55.5 -40.5t62 -14q10 0 18 2t16.5 5t18 7.5t21.5 10.5q6 -1 13.5 -3t12.5 -3q-8 -8 -22 -15t-30 -12t-32 -7.5t-29 -2.5h-20z" />
    <glyph glyph-name="f" unicode="f" horiz-adv-x="250" 
d="M104 385q-5 -4 -6.5 -10t-1.5 -12v-9q-1 -15 -1.5 -29.5t-0.5 -30.5v-144q4 -3 10 -3q2 -2 11 -2h4q57 2 116 17v-8q-7 -7 -14 -15t-14 -15q-10 -11 -14 -14q-13 4 -27 7.5t-27 3.5h-6q-12 -1 -19 -1t-8 -1q-2 -1 -6 -1.5t-8 -1.5v-35q0 -2 0.5 -5t0.5 -7q1 -10 1 -17.5
v-15.5v-14.5t-1 -20.5q0 -2 -0.5 -4.5t-0.5 -4.5q0 -12 2 -19q4 -8 16 -8q2 -3 4 -5t3 -4q-29 -14 -46 -18q-6 -1 -10.5 -2.5t-9.5 -2.5h-2t-4 1q-3 -1 -7 -1.5t-7 -1.5q-1 0 -1 1q0 3 6 9q3 8 4.5 15t2.5 14v4q1 3 3 6t2 9q1 12 1.5 23.5t0.5 25.5v20v72v35v30v18v14v16.5
t-1 12.5v10q0 34 -0.5 60t-1.5 46q-2 7 -15 16q-4 1 -7.5 2.5t-6.5 2.5q-4 5 -4 8v1q14 6 67 7h22h22q37 0 66 5t51 16v-6q-4 -9 -5.5 -17t-2.5 -9q-19 -2 -32 -3.5t-26 -2.5q-4 0 -7.5 -0.5t-7.5 -1.5q-13 -1 -27 -2.5t-30 -2.5z" />
    <glyph glyph-name="g" unicode="g" horiz-adv-x="349" 
d="M347 263q-1 -1 -1 -4.5t-1 -8.5q-2 -10 -2 -16q-1 0 -1.5 -2t-1.5 -12q-1 -4 -2 -9.5t-3 -13.5q-3 -10 -4.5 -23.5t-2.5 -32.5q-1 -13 -1 -28v-32v-26q2 -10 3 -19.5t1 -17.5q0 -11 -4 -22v-13q0 -7 0.5 -9t1 -3.5t1 -5t0.5 -13.5q-2 -42 -6 -71q-3 -23 -7.5 -42
t-12.5 -33q-18 -31 -44 -47q-5 -3 -13 -3q1 2 4 7q20 19 28 68q3 15 5 38t2 53l-1 28q7 26 5 38.5t-7.5 17t-11.5 2.5t-5 -7q-1 6 -2 10.5t-4 4.5t-3 -6q-3 0 -15 -7q-20 -4 -37 -4h-8t-7 1q-12 1 -23 3t-22 6q-16 6 -31.5 18t-29.5 27q-29 23 -52 74q-19 47 -21 107v29
q1 44 17.5 79t42 59.5t58.5 38t66 15.5q7 1 14 1h14q20 0 38 -2t35 -6q15 -5 25 -13t14 -18q-4 -9 -7 -17t-9 -18q-11 -13 -13 -22q-8 5 -15 10t-14 9l-3 3l1.5 1.5t1.5 2.5q5 6 5 15q-7 16 -20.5 25t-30.5 13q-17 2 -35 2q-1 0 -2.5 -1.5t-3.5 -2.5q-10 -1 -20 -2.5
t-20 -3.5q-13 -5 -33 -21q-19 -16 -36 -44q-10 -17 -16 -36t-8 -43q0 -8 -0.5 -16t-0.5 -17q-1 -6 -1 -12.5v-12.5q0 -80 45 -142q42 -54 85 -64q21 -5 42 -5q40 0 57 32v50q-7 12 -7 13l2.5 5t4.5 6v20q-1 9 -1.5 16.5t-1.5 16.5v11t-1 12q0 25 -11 41q-16 9 -35 15v1
q1 1 4 3h7.5h8.5q4 1 7.5 1h7.5h26q3 0 6 0.5t7 0.5h4.5h5.5q3 1 8 1.5t11 2.5q2 0 6 1q3 0 4 -5z" />
    <glyph glyph-name="h" unicode="h" horiz-adv-x="421" 
d="M390 480q-1 -1 -1 -4t-1 -9q-2 -10 -2 -16q-1 0 -1.5 -2t-1.5 -11q-1 -5 -2 -10.5t-3 -13.5q-3 -9 -4.5 -23t-2.5 -33q-1 -13 -1 -28v-32v-98v-33.5t1 -39.5q-2 -41 -6 -70q-3 -23 -8 -42t-12 -33q-18 -32 -44 -47q-5 -4 -13 -4l4 8q20 19 27 68q4 15 6 38t2 53v136h-245
v-109q0 -56 6 -99q8 -11 23 -21q0 -1 1 -1q-1 -1 -5 -3h-98q-1 0 -1 1q15 1 22 9q3 8 5.5 26t3.5 39q1 34 2 72.5t1 83.5v162q0 28 -4 38q-3 19 -12 32q-13 14 -34 14h-1q2 3 2 4h114q1 0 2.5 -1.5t1.5 -2.5v-1q-5 -9 -9.5 -18.5t-7.5 -20.5q-2 0 -4 -4t-4 -23
q-4 -56 -4 -147v-3h245v101q-1 9 -1.5 16.5t-1.5 16.5v11.5t-1 11.5q0 26 -11 41q-16 9 -35 15q0 1 0.5 2t2.5 2h8h9q4 1 7.5 1h7.5h26q3 0 6 0.5t6 0.5h5.5h5.5q3 1 8 1.5t10 2.5q3 0 7 1q3 0 4 -5z" />
    <glyph glyph-name="i" unicode="i" horiz-adv-x="127" 
d="M112 4q-1 -1 -5 -3h-98q-1 0 -1 1q15 1 22 9q3 8 5.5 26t3.5 39q1 34 2 72.5t1 83.5v162q0 28 -4 38q-3 19 -12 32q-13 14 -34 14h-1q2 3 2 4h114q1 0 2.5 -1.5t1.5 -2.5v-1q-5 -9 -9.5 -18.5t-7.5 -20.5q-2 0 -4 -4t-4 -23q-4 -56 -4 -147v-139q0 -56 6 -99
q8 -11 23 -21q0 -1 1 -1z" />
    <glyph glyph-name="j" unicode="j" horiz-adv-x="128" 
d="M122 457q-1 -2 -1 -5t-1 -8q-2 -10 -2 -16q-1 0 -1.5 -2t-1.5 -12q-1 -5 -2 -10.5t-3 -12.5q-3 -10 -4.5 -24t-2.5 -32q-1 -14 -1 -28.5v-31.5v-99v-33t1 -39q-2 -42 -6 -71q-3 -23 -8 -42t-12 -33q-18 -31 -44 -47q-5 -3 -13 -3q1 2 4 7q20 19 27 68q4 15 6 38t2 53v265
q-1 8 -1.5 15.5t-1.5 16.5v12t-1 11q0 26 -11 41q-16 9 -35 15q0 1 0.5 2t3.5 2t7 0.5t9 0.5h7.5h7.5h26q3 0 6 0.5t6 0.5h5.5t5.5 1q3 0 8 1t11 2q2 0 6 1q3 0 4 -4z" />
    <glyph glyph-name="k" unicode="k" horiz-adv-x="396" 
d="M328 -2q-7 0 -16 6q-5 3 -8 4.5t-6 3.5q-10 8 -24 24q-17 19 -31.5 41.5t-28.5 47.5q-10 19 -21.5 39.5t-24.5 41.5q-20 28 -43 38q-2 2 -5 4t-5 5v-151q-2 -7 -2 -16q2 -36 10 -58q4 -11 14 -17q3 -1 8 -5q-17 -1 -28 -2t-14 -1h-28q-14 0 -18 2q-4 0 -10 1q-3 1 -4 3.5
t-1 11.5h2q5 0 17 6q4 34 6 85v49q-1 14 -1 23v15v171v24t-1 28v24v19q-1 0 -2 1q-2 1 -6 2q-5 0 -8 6q-3 5 -10 10t-20 5q-2 0 -4 2q1 3 6 4.5t11 2.5q3 2 8.5 2h13.5q11 1 22.5 2t22.5 2q7 2 14.5 2t15.5 1q7 1 14 1.5t11 2.5h1q-1 -7 -18 -18q-4 -5 -9.5 -11.5
t-10.5 -14.5v-163q-3 0 -3 -4v-29q2 -1 3 -1t1 1q43 15 75 56q29 35 54 89q-1 1 -1.5 2.5t-1.5 2.5q-7 0 -13 -2l2 16h-1q2 0 6 1h1.5h2.5q6 0 14 2t17 5q29 7 52 8v-2q-8 -8 -10 -11l-8 -4q-9 -8 -18 -20q-3 -3 -6 -7.5t-6 -10.5q-3 -5 -7 -11.5t-9 -14.5q-8 -12 -19 -25.5
t-26 -27.5q-14 -11 -28 -23t-28 -25q25 -18 43 -44q9 -13 17 -26.5t15 -25.5q7 -11 13.5 -22.5t12.5 -22.5q8 -11 14.5 -21.5t13.5 -20.5q17 -22 37 -40q25 -22 45 -22q1 0 5 2t9 3q0 -2 2 -5q-8 -3 -16.5 -7t-18.5 -9q-9 -5 -15 -7.5t-9 -2.5z" />
    <glyph glyph-name="l" unicode="l" horiz-adv-x="281" 
d="M195 -2q-6 1 -11.5 2t-10.5 1h-30.5h-32.5q-14 2 -24.5 2h-20.5q-8 0 -16 -0.5t-15 -1.5l-1 2q0 4 1 10l11 7q1 0 2 1t2 1q2 24 2.5 43t0.5 33v303q0 17 -0.5 32.5t-0.5 29.5q-1 10 -6 19q-8 6 -35 14q1 2 2 2.5t8 1.5q2 0 4 0.5t3 1.5q13 1 26.5 2.5t27.5 3.5
q16 3 26.5 4t15.5 3v-1q0 -5 -9 -16q-8 -4 -10 -6q-3 -21 -4 -44.5t-1 -48.5v-348q11 -23 54 -23h10h10q18 1 34 5t30 11q9 5 17.5 11t16.5 12q-1 -7 -2.5 -13.5t-2.5 -12.5q-15 -19 -23 -25q-2 -1 -4 -2.5t-5 -2.5q-11 -16 -26 -16q-3 0 -13 3z" />
    <glyph glyph-name="m" unicode="m" horiz-adv-x="558" 
d="M87 417q5 -2 9 -10l-4 -14q-2 -7 -2 -12q14 8 26.5 17t30.5 15q26 7 50 9q3 1 5.5 1h5.5q12 0 21 -3q30 -2 50 -22l6 -6t7 -8q13 11 27 20.5t25 12.5h7q13 3 26.5 4t27.5 3h6h6h9t9 -1q40 -3 64 -28q29 -27 30 -62q4 -11 6 -27t2 -38q0 -5 -0.5 -9t-0.5 -9v-26
q-1 -21 -6 -49q-2 -9 -3 -16t-2 -11v-6.5v-6.5v-2q-4 -21 -7.5 -40.5t-6.5 -36.5q0 -11 9 -27q10 -10 10 -15q0 -1 -0.5 -1t-0.5 -1q-10 0 -26 -2q-15 -1 -29.5 -1h-28.5v9q4 3 7 8t3 7v5h7q5 6 13 38q3 12 6 27.5t5 32.5q3 14 5.5 33t2.5 41v44q0 13 -2 28q-4 49 -26 82
q-17 23 -41 31q-22 5 -38 5h-4t-4 -1h-9.5h-9.5q-15 -3 -32.5 -12t-29.5 -25q6 -9 10 -20q2 -7 3 -15t2 -14q1 -13 2 -25t1 -25v-70q0 -15 -1.5 -28.5t-1.5 -24.5v-23l-4.5 -22.5t-4.5 -24.5v-7.5v-6.5q1 -12 4 -21q1 -1 1 -3l6.5 -6.5t6.5 -7.5q0 -5 -3 -8h-10t-11 -1
q-8 -1 -15 -1h-12h-16.5t-11.5 1q-1 0 -1.5 0.5t-1 0.5t-1.5 1t-1 4v3q3 0 8 8t7 18q1 2 1.5 4t0.5 4q7 19 12.5 46.5t5.5 63.5v104v14.5t-1 15.5q-3 50 -13 50q0 12 -3 20q-1 2 -3 3q-16 18 -41 24q-10 4 -25 4h-15h-12q-20 0 -45 -16q-11 -7 -18 -13t-11 -13
q-2 -5 -2.5 -11.5t-0.5 -16.5v-17v-36.5t-1 -41.5v-27.5v-41v-40.5v-25v-16.5t1 -19.5q3 -9 5 -17t4 -13q0 -2 1 -3.5t1 -2.5l8 -5q7 -3 8 -6q0 -6 -2 -8q-12 0 -25.5 -1t-23.5 -1h-16.5h-11.5l-2 2q-5 2 -5 5v2q8 11 14 56q2 17 3 32t2 27v5q0 9 -1 17.5t-1 18.5q0 3 1 6
q0 2 1 4.5t1 7.5v108q0 37 -1 66t-4 50q-1 1 -3 2.5t-5 5.5q0 1 -1 2q4 1 11 1.5t18 0.5h9h8h6.5h5.5z" />
    <glyph glyph-name="n" unicode="n" horiz-adv-x="389" 
d="M371 437q-5 -7 -7 -47q-2 -9 -2 -20t-1 -23q-3 -76 -4 -160.5t-1 -181.5q-4 -4 -9 -5q-3 5 -8.5 12.5t-14.5 19.5q-9 11 -15.5 20.5t-12.5 18.5v3q-4 1 -12 10q-7 10 -16 21q-17 22 -29 37.5t-22 30t-19.5 30t-21.5 35.5q-6 8 -12 14.5t-11 14.5q-5 9 -10 19
q-11 17 -21 32t-19 29q-7 9 -12 14.5t-7 8.5v-172v-20v-20v-27q0 -14 1 -27.5t4 -28.5q3 -9 5 -18.5t6 -18.5q0 -10 7 -20q8 -5 20 -7q-2 0 -7.5 -2t-11.5 -4q-9 -2 -19 -3t-23 -2q-9 -1 -16.5 -2.5l-12.5 -2.5q-1 1 -1 4q0 2 2 5q10 10 15 39q1 9 1.5 19t0.5 21
q2 28 2.5 56.5t1.5 59.5v29t0.5 38t1 41.5t0.5 40v31v15.5q0 12 -23 18q-2 0 -6 -1q-6 3 -10 6t-7 4q2 3 7.5 10.5t15.5 18.5q13 -1 26.5 -1h26.5q9 -13 22.5 -36t34.5 -53q11 -20 25 -44t38 -55q9 -15 19 -31t21 -33q13 -19 27 -38.5t29 -39.5q20 -24 28 -31q3 37 4 83.5
t2 103.5v25t1 27q0 7 -1.5 11.5t-1.5 6.5q0 51 -20 74q-6 -1 -7 -4l-8 8l-8 8q6 7 14.5 11t17.5 7q7 2 13.5 3t13.5 3q0 -4 5 -4h8q6 0 7 -1q1 0 1 -3t-2 -6q-3 -3 -3 -4z" />
    <glyph glyph-name="o" unicode="o" horiz-adv-x="470" 
d="M213 0q-24 0 -49 8t-48 22q-13 9 -37 35q-4 3 -7.5 6.5l-6.5 6.5q-7 8 -12.5 17t-10.5 18q-14 23 -19.5 47t-5.5 52v9.5t1 10.5q0 12 1 23l2 22q3 22 19 50q8 15 16 27t17 23q5 6 12 12q9 10 18 18.5t18 16.5q27 21 59 27q23 5 45 5q15 0 29.5 -1t29.5 -2q18 -6 36 -16
q15 -9 30.5 -23t34.5 -34q5 -4 9.5 -7.5t7.5 -8.5q7 -10 13.5 -20.5t11.5 -22.5q10 -22 16 -43t8 -41v-8v-8q0 -8 -0.5 -16t-1.5 -16q-7 -61 -40 -107q-57 -82 -179 -82h-17zM236 440q-9 0 -17.5 -1t-17.5 -3q-3 0 -6 2q-23 -8 -45 -24.5t-41 -46.5q-20 -32 -29 -61t-9 -67
q0 -68 22 -118l8 -16t9 -15q10 -18 22.5 -31t25.5 -23q12 -7 22.5 -11.5t19.5 -7.5q13 -2 19 -3t12 -1q4 1 8.5 1t7.5 1h6.5t7.5 1q16 2 33 10q32 13 52 31q6 6 10.5 12t8.5 13q4 6 7.5 14t6.5 18q12 35 14 62q0 11 1 17.5t3 12.5q-2 3 -2 8q0 4 2 8q-3 31 -14 68
q-2 14 -7 28.5t-14 30.5q-7 13 -14 24t-15 20q-20 21 -44.5 34t-52.5 13z" />
    <glyph glyph-name="p" unicode="p" horiz-adv-x="279" 
d="M117 230q-2 -10 -2.5 -19.5t-0.5 -19.5q0 -8 1 -17t1 -16q-1 -7 -1.5 -14.5t-0.5 -18.5v-74q0 -13 3 -26q4 -3 8.5 -6t7.5 -8v-5.5t-4 -2.5q-2 -1 -4 -1l-2 1q-5 -1 -10 -1q-1 0 -2.5 0.5t-2.5 0.5h-6.5h-3.5q-10 0 -22 -2q-7 -1 -12.5 -1.5t-8.5 -0.5q-2 1 -2 4
q6 2 14 12q1 9 2 26.5t2 45.5q1 5 1.5 12t2.5 16v18v18q1 46 1.5 85t0.5 75q-2 12 -2.5 24.5t-1.5 31.5q-1 51 -13 70q-1 1 -6 1h-6q-10 0 -18 -10q-5 2 -9.5 4t-9.5 4q5 6 11 8q4 1 7.5 1t8.5 2q8 2 16.5 2.5t17.5 1.5q4 0 8 -0.5t8 -0.5l20 -4t20 -5q8 6 19 11
q10 1 20.5 2t19.5 1q20 0 37 -4q12 -2 23 -7q15 -9 26 -24q19 -26 19 -59v-8q-4 -42 -31 -75q-37 -34 -81 -51zM150 431q-19 -6 -28 -15q-2 -16 -4 -72q-1 -30 -1 -53.5v-41.5q6 -2 23 -4q22 1 34 4q34 8 54 33q2 3 4 5.5t4 6.5q6 10 8 22q2 8 3 17q0 9 2 17q0 5 -0.5 9.5
t-1.5 8.5q-2 22 -17 41q-16 21 -37 25q-4 1 -8 1h-7q-16 0 -28 -4z" />
    <glyph glyph-name="q" unicode="q" horiz-adv-x="470" 
d="M213 0q-24 0 -49 8t-48 22q-13 9 -37 35q-4 3 -7.5 6.5l-6.5 6.5q-7 8 -12.5 17t-10.5 18q-14 23 -19.5 47t-5.5 52v9.5t1 10.5q0 12 1 23l2 22q3 22 19 50q8 15 16 27t17 23q5 6 12 12q9 10 18 18.5t18 16.5q27 21 59 27q23 5 45 5q15 0 29.5 -1t29.5 -2q18 -6 36 -16
q15 -9 30.5 -23t34.5 -34q5 -4 9.5 -7.5t7.5 -8.5q7 -10 13.5 -20.5t11.5 -22.5q10 -22 16 -43t8 -41v-8v-8q0 -8 -0.5 -16t-1.5 -16q-7 -61 -40 -107q-39 -56 -109 -74l18 -26q17 -22 37 -40q25 -21 45 -21q1 0 5 2t9 2q0 -2 2 -4q-7 -4 -16 -7.5t-19 -9.5q-9 -5 -15 -7.5
t-9 -2.5q-7 0 -16 6q-5 3 -8 4.5t-6 3.5q-10 8 -24 24q-13 16 -25 33t-23 36q-7 -1 -13 -1h-12h-17zM197 102q5 -6 10.5 -4t11 6.5t11 7t9.5 -3.5q3 -6 10.5 -17.5t15.5 -24.5t15 -24.5t10 -17.5q1 0 4 2q32 13 52 31q6 6 10.5 12t8.5 13q4 6 7.5 14t6.5 18q12 35 14 62
q0 11 1 17.5t3 12.5q-2 3 -2 8q0 4 2 8q-3 31 -14 68q-2 14 -7 28.5t-14 30.5q-7 13 -14 24t-15 20q-20 21 -44.5 34t-52.5 13q-9 0 -17.5 -1t-17.5 -3q-3 0 -6 2q-23 -8 -45 -24.5t-41 -46.5q-20 -32 -29 -61t-9 -67q0 -68 22 -118l8 -16t9 -15q10 -18 22.5 -31t25.5 -23
q12 -7 22.5 -11.5t19.5 -7.5q13 -2 19 -3t12 -1q4 1 8.5 1t7.5 1q-3 3 -3 6q-11 19 -22 39.5t-25 41.5z" />
    <glyph glyph-name="r" unicode="r" horiz-adv-x="383" 
d="M360 -12h-18.5t-18.5 1q-16 4 -47 36q-22 23 -32 37q-4 6 -9 12.5t-9 13.5q-9 12 -17 24t-15 24q-26 40 -39 71q-12 12 -38 23q-2 -10 -2.5 -19.5t-0.5 -19.5q0 -8 1 -17t1 -16q-1 -7 -1.5 -14.5t-0.5 -18.5v-74q0 -13 3 -26q4 -3 8.5 -6t7.5 -8v-5.5t-4 -2.5
q-2 -1 -4 -1l-2 1q-5 -1 -10 -1q-1 0 -2.5 0.5t-2.5 0.5h-6.5h-3.5q-10 0 -22 -2q-7 -1 -12.5 -1.5t-8.5 -0.5q-2 1 -2 4q6 2 14 12q1 9 2 26.5t2 45.5q1 5 1.5 12t2.5 16v18v18q1 46 1.5 85t0.5 75q-2 12 -2.5 24.5t-1.5 31.5q-1 51 -13 70q-1 1 -6 1h-6q-10 0 -18 -10
q-5 2 -9.5 4t-9.5 4q5 6 11 8q4 1 7.5 1t8.5 2q8 2 16.5 2.5t17.5 1.5q4 0 8 -0.5t8 -0.5l20 -4t20 -5q8 6 19 11q10 1 20.5 2t19.5 1q20 0 37 -4q12 -2 23 -7q15 -9 26 -24q19 -26 19 -59v-8q-4 -42 -31 -75q-37 -34 -81 -51q14 -14 30 -35t33 -49q14 -21 30 -43
q7 -11 13.5 -20.5t13.5 -18.5q36 -47 68 -56q5 -2 11 -2q8 0 18 4v-3.5t-3 -1.5q-14 -14 -34 -14zM150 431q-19 -6 -28 -15q-2 -16 -4 -72q-1 -30 -1 -53.5v-41.5q6 -2 23 -4q22 1 34 4q34 8 54 33q2 3 4 5.5t4 6.5q6 10 8 22q2 8 3 17q0 9 2 17q0 5 -0.5 9.5t-1.5 8.5
q-2 22 -17 41q-16 21 -37 25q-4 1 -8 1h-7q-16 0 -28 -4z" />
    <glyph glyph-name="s" unicode="s" horiz-adv-x="267" 
d="M252 436q-2 -2 -4 -6t-4 -10q0 -4 -1 -8.5t-3 -12.5q-4 -13 -8 -25l-8 -24q-4 6 -6 10t-5 9q0 11 -5 24q-4 18 -15.5 28t-26.5 10l-12 4t-11 2h-12t-11 -1q-13 -4 -25.5 -9t-24.5 -13q-26 -22 -26 -53q0 -52 54 -92q4 -1 6.5 -1.5t5.5 -1.5l44 -30l44 -30q7 -3 12 -6
q15 -13 24.5 -28.5t12.5 -32.5q3 -16 3 -29q0 -5 -0.5 -9.5t-0.5 -9.5q-5 -39 -39 -63q-2 -2 -4.5 -3.5t-4.5 -2.5q-35 -22 -80 -22h-16q-20 1 -46 8q-23 7 -32 16q2 5 4.5 16.5t2.5 23.5q0 27 7 43h1q6 -27 15 -46.5t21 -26.5q14 -10 41 -14q10 -2 19 -2q31 0 55 19
q25 20 25 57q0 27 -22 56q-10 12 -22 21t-26 15q-33 15 -87 58q-44 36 -48 77q0 5 -0.5 9t-0.5 9q0 50 33 83q2 2 4 3.5t4 2.5q24 21 52 25q18 2 39 2q5 0 10 -0.5t10 -0.5q6 -1 11.5 -1t11.5 -2q21 -4 32 -6q8 -1 16.5 -2.5t16.5 -2.5v-4z" />
    <glyph glyph-name="t" unicode="t" horiz-adv-x="387" 
d="M366 482q5 -2 9 -2q-3 -5 -6.5 -9t-6.5 -10l-12 -14t-13 -14h-5q-11 0 -17 3q-4 -1 -8 -1.5t-8 -0.5q-7 -1 -15 -1.5t-17 -1.5q-22 0 -60 -2q-6 -2 -6 -19q-2 -6 -2 -14.5t-1 -19.5v-19q-2 -37 -2 -60q0 -66 0.5 -111.5t0.5 -72.5q2 -58 8 -89q2 -2 11 -4q10 -5 11 -11
q-5 -2 -9.5 -3t-8.5 -2q-13 -1 -25 -2t-24 -1q-17 0 -25 4q-8 0 -8 5v2q2 -1 4 -1t16 5q4 29 5 66v231q0 26 -1 49t-2 44q0 5 1 6l-3 15h-6h-6.5t-7.5 -1h-21q-11 0 -26 -11q-21 -8 -39 -22q-9 12 -15.5 19.5t-10.5 11.5q44 25 85 28q17 1 37.5 2t43.5 1q75 0 126 8
q15 2 33 8q12 6 22 7q1 2 1.5 2t2.5 2z" />
    <glyph glyph-name="u" unicode="u" horiz-adv-x="379" 
d="M325 1h-13h-9h-6h-4t-5 1q1 8 2.5 15t3.5 13q1 5 2 12v11q-17 -11 -37 -22t-41 -18q-1 0 -4.5 -2t-8.5 -2q-9 -2 -18.5 -3.5t-19.5 -2.5q-3 -1 -9 -1q-8 0 -15 1.5t-14 2.5h-6q-43 0 -68 30q-4 5 -7 11t-6 13q-9 17 -13 39q-7 28 -7 61v8v28q2 68 8 95q8 42 13.5 71.5
t7.5 51.5q-3 5 -7 9.5t-4 9.5v1q4 1 5 3.5t7 6.5h9q11 1 21.5 1h19.5h14q2 -5 2 -9h-7q-3 -4 -17 -38q-5 -17 -9.5 -38.5t-8.5 -48.5q-5 -17 -8 -41t-3 -54v-61q4 -51 20 -83q13 -29 32 -36q3 -1 7 -2t9 -2q4 -2 9 -2t10 -2q8 -1 14 -2t11 -1q9 0 18 1t19 2q8 2 18 6
q30 9 50 29q10 10 15 23.5t5 21.5v233v18t-1 22q-1 18 -4 33q0 2 -1 3q-4 9 -22 21v4t3 3q8 -2 19 -2q2 0 3.5 0.5t2.5 0.5q15 1 27 1h13h8q12 -1 12 -5q-13 -19 -18 -81q-1 -21 -1 -46v-54q-1 -4 -2 -7t-1 -8v-105q0 -42 1.5 -73.5t3.5 -53.5q1 -1 2 -1.5l3 -1.5
q0 -1 -1.5 -0.5t-1.5 -1.5t-1 -3t-1 -3h-20z" />
    <glyph glyph-name="v" unicode="v" horiz-adv-x="307" 
d="M289 411q-5 -10 -12 -35q-6 -21 -12 -40t-12 -37q-6 -21 -11.5 -40t-10.5 -36q-16 -45 -28 -96q-6 -19 -12 -39l-12 -40q-5 -16 -9.5 -27.5t-7.5 -20.5q-2 1 -9 15q-6 19 -13 40.5t-15 46.5q-2 4 -6.5 19.5t-10.5 34t-11.5 34t-6.5 19.5q-7 21 -13.5 41.5t-13.5 41.5
q-11 31 -20.5 58t-20.5 53q-4 11 -15 17q-1 -2 -2 -2q-4 3 -9 6t-9 8q33 12 83 19q6 -3 8 -10.5t3 -14.5q-5 -4 -7.5 -7.5t-2.5 -8.5q2 -5 4 -13t5 -18q5 -21 13 -46t18 -56q8 -21 13 -37t9 -25q2 -9 6 -20.5t9 -26.5q9 -21 16 -38.5l11 -27.5q7 14 15 36t17 53q5 16 9 32
t10 32q5 17 9.5 32.5t9.5 29.5q15 50 18 79v3q0 4 -0.5 8.5t-0.5 8.5v3q-1 2 -5 8h-16l-4 6t-3 7q-1 1 -1 1.5t-1 2.5q17 3 38.5 5t46.5 2v-7q-11 -4 -28 -33z" />
    <glyph glyph-name="w" unicode="w" horiz-adv-x="446" 
d="M398 410q-5 -10 -12 -36q-7 -20 -12.5 -39t-11.5 -37q-6 -21 -11.5 -40t-10.5 -36q-16 -46 -28 -97q-6 -19 -12 -38.5t-12 -39.5q-6 -16 -10 -28t-7 -20q-2 0 -9 14q-6 19 -13 41t-15 47q-2 3 -7 19t-10.5 34.5t-11 34t-6.5 18.5q-7 21 -13.5 41.5t-13.5 41.5
q-11 31 -20.5 58.5t-20.5 53.5q-4 10 -15 16q-1 -1 -2 -1q-4 3 -9 6t-9 7q33 13 83 20q6 -3 8 -10.5t3 -15.5q-5 -4 -7.5 -7t-2.5 -8q1 -6 3 -14t6 -17q5 -21 13 -46.5t18 -55.5q8 -21 13 -37t9 -25q2 -9 5.5 -21t9.5 -26q9 -21 16 -39t11 -27q7 14 15 36t17 53q5 15 9 31.5
t10 32.5q5 17 9.5 32.5t9.5 29.5q15 50 18 79v3q0 4 -0.5 8.5t-0.5 7.5v4q-1 2 -5 8h-16l-4 6t-3 6q-1 2 -1 2.5t-1 1.5q17 3 38.5 5t46.5 3v-7q-11 -5 -28 -33zM289 411q-5 -10 -12 -35q-6 -21 -12 -40t-12 -37q-6 -21 -11.5 -40t-10.5 -36q-16 -45 -28 -96q-6 -19 -12 -39
l-12 -40q-5 -16 -9.5 -27.5t-7.5 -20.5q-2 1 -9 15q-6 19 -13 40.5t-15 46.5q-2 4 -6.5 19.5t-10.5 34t-11.5 34t-6.5 19.5q-7 21 -13.5 41.5t-13.5 41.5q-11 31 -20.5 58t-20.5 53q-4 11 -15 17q-1 -2 -2 -2q-4 3 -9 6t-9 8q33 12 83 19q6 -3 8 -10.5t3 -14.5
q-5 -4 -7.5 -7.5t-2.5 -8.5q2 -5 4 -13t5 -18q5 -21 13 -46t18 -56q8 -21 13 -37t9 -25q2 -9 6 -20.5t9 -26.5q9 -21 16 -38.5l11 -27.5q7 14 15 36t17 53q5 16 9 32t10 32q5 17 9.5 32.5t9.5 29.5q15 50 18 79v3q0 4 -0.5 8.5t-0.5 8.5v3q-1 2 -5 8h-16l-4 6t-3 7
q-1 1 -1 1.5t-1 2.5q17 3 38.5 5t46.5 2v-7q-11 -4 -28 -33z" />
    <glyph glyph-name="x" unicode="x" horiz-adv-x="464" 
d="M394 0q-32 16 -57 49q-9 13 -17 25.5t-16 27.5q-4 8 -8.5 16t-9.5 17q-11 20 -25 46q-10 11 -18.5 22t-16.5 23q-10 -12 -27.5 -37.5t-38.5 -67.5q-37 -63 -51 -112q-1 -1 -3 -1.5t-3 -1.5q7 1 12 4q-1 -4 -4 -7q-11 -3 -19 -3h-9.5t-17.5 1q-10 0 -17.5 0.5t-13.5 1.5
q-4 -1 -7 -1h-5l-1 1q-2 0 -3 2q0 3 1 4q6 5 23 10q15 9 25 19q7 8 16 20t21 29q8 11 15.5 21t15.5 21q19 27 29.5 42.5t15.5 27.5l3.5 7t3.5 6q1 6 1 13v15v13.5t-1 13.5q1 4 1 8v7q0 12 -4 24q0 2 -8 11q-18 25 -39 43q-10 8 -22 13.5t-25 9.5h-3.5h-2.5q-8 0 -15 -5
q-3 -1 -5.5 -2.5t-6.5 -3.5h-6q-5 -2 -12 -7t-13 -7q13 22 25 33.5t22 17.5q10 5 25 7h5q3 0 7 -0.5t8 -1.5q27 -4 58 -33q9 -9 16.5 -18t14.5 -17q24 -31 33 -60q15 21 30 40.5t29 35.5q14 17 24.5 28.5t17.5 18.5v1.5t-1 1.5h1h-1h1q3 0 8 -2t5 -4q0 1 1 1h1q4 0 10 0.5
t14 3.5q3 1 5.5 1.5t5.5 1.5q6 -2 14 -3q-1 -4 -2.5 -8.5t-2.5 -9.5q-2 1 -9 8q-13 -6 -31 -29q-6 -3 -13 -7.5t-16 -10.5q-23 -16 -48 -47q-21 -27 -29 -45q3 -3 5.5 -7.5t3.5 -7.5l24 -29q8 -11 13.5 -19t7.5 -14q10 -17 22 -38q11 -18 20.5 -33.5t19.5 -29.5
q6 -8 10.5 -15.5t10.5 -13.5q32 -44 59 -48v-6q-4 0 -8 -0.5t-8 -0.5q-2 -1 -4.5 -1h-5.5h-17t-13 1z" />
    <glyph glyph-name="y" unicode="y" horiz-adv-x="420" 
d="M382 426q-13 -4 -24.5 -14t-20.5 -27q-6 -12 -10 -28q-7 -17 -14 -37t-12 -37q-3 -8 -7 -21.5t-7 -27.5q-6 -18 -10 -36q-3 -5 -5.5 -10.5t-3.5 -13.5q-5 -19 -8 -38.5t-4 -36.5q-1 -20 -6 -43q-3 -11 -6.5 -22.5t-8.5 -23.5q-5 -13 -10.5 -23.5t-11.5 -19.5
q-5 -6 -11 -12t-11 -12q-6 -3 -7 -6q-1 -1 -5 -3q-3 0 -8 -0.5t-12 -0.5q-7 -2 -11.5 -2h-8.5q-3 1 -9.5 2t-16.5 2v6q24 2 33 15q38 0 57 24q19 44 19 85q0 2 2 4v2h-2q-9 -6 -18 -10.5t-15 -4.5q-42 23 -70 69q-29 46 -38 105q-4 10 -6.5 19t-5.5 18q-6 20 -10 41
q-2 11 -4 20t-5 17q-1 5 -2.5 9.5t-2.5 9.5q1 6 2 11.5t2 10.5q0 17 -2 25q-3 6 -18 13q-3 2 -7.5 4t-9.5 3q5 3 12 7t16 7h5.5t8.5 -1q12 4 22 6.5t19 4.5q4 -1 4 -3q-1 -2 -2 -3.5t-2 -3.5q-2 -9 -4 -17.5t-3 -17.5q-2 -10 -2 -22q0 -11 2 -23q0 -20 4 -40.5t10 -40.5v-19
q11 -48 41 -89q21 -24 50 -29q10 -4 19 -4q3 0 6.5 0.5t6.5 1.5q16 7 17 23q2 9 4 17.5t3 17.5q3 5 4.5 12t2.5 13q5 18 10 43q2 21 5 30q5 14 12 30q0 1 0.5 3.5t0.5 6.5q2 5 4 12t5 14q13 32 37 60q22 26 58 36q5 1 11.5 3.5t10.5 4.5l-4 -8q-5 -9 -11 -18t-13 -19z" />
    <glyph glyph-name="z" unicode="z" horiz-adv-x="401" 
d="M43 387q0 1 4 16q7 17 13 30.5t9 16.5q21 2 45 2h17q47 -1 86 -2t71 -1q50 0 77 8h1q1 0 2.5 -1t2.5 -1q-1 -2 -2.5 -4t-3.5 -5q-3 -6 -8 -15.5t-11 -20.5q-8 -1 -33 -32q-17 -22 -35 -47.5t-38 -47.5q0 -6 -6 -12t-14 -17q-3 -4 -6 -7q-9 -14 -19.5 -28t-20.5 -28
q-13 -17 -22 -30t-16 -23q-23 -30 -37.5 -52t-17.5 -35q15 2 50 10q8 1 14.5 2t14.5 2q9 1 18 1.5t19 0.5h26t28 -1h29h8q10 0 18.5 -1t16.5 -2q6 -1 12.5 -1.5t12.5 -0.5q13 0 20 4q8 -6 10 -12q-2 -2 -4 -4.5t-4 -6.5q-3 -2 -6.5 -6t-4.5 -7q-3 -3 -8.5 -8t-9.5 -8
q-16 7 -45.5 13.5t-71.5 6.5h-4h-44q-10 -1 -22.5 -2.5t-28.5 -4.5l-7 -3.5t-6 -2.5q-28 -5 -46 -10t-24 -9q-16 0 -28 2q3 8 18 29q10 13 20 28.5t23 33.5t27 37.5t30 41.5q10 13 16.5 22.5t10.5 14.5l1 1q0 -1 1 2q7 10 16.5 22.5t21.5 27.5q21 30 41 56t38 50
q14 19 24.5 32.5t16.5 22.5q-11 -1 -22 -2.5t-21 -1.5q-21 0 -41 2h-17q-8 -1 -16.5 -1.5t-20.5 -0.5q-6 1 -11.5 1t-11.5 1q-23 -2 -33 -4q-8 -2 -15 -2t-14 -2q-14 -2 -24 -7q-17 -6 -29 -22v2z" />
    <glyph glyph-name="NULL" horiz-adv-x="684" 
 />
    <glyph glyph-name="V.001" horiz-adv-x="465" 
d="M438 623q-8 -15 -18 -54q-10 -31 -19 -59.5t-17 -56.5q-9 -32 -17.5 -60.5t-16.5 -54.5q-24 -69 -42 -146q-10 -29 -19 -59l-18 -60q-8 -24 -14.5 -42t-11.5 -31q-3 1 -13 22q-9 29 -19.5 62t-23.5 71q-2 5 -9.5 29t-16.5 52t-17 51.5t-9 28.5q-11 32 -21 63t-21 63
q-16 47 -30.5 88t-30.5 81q-6 16 -23 25q-2 -2 -4 -2q-6 4 -13 8.5t-13 11.5q49 19 125 30q9 -5 12 -16.5t5 -22.5q-8 -6 -11.5 -11t-3.5 -13l5 -20t8 -26q8 -32 20 -70.5t27 -84.5q13 -32 20.5 -56t12.5 -38q4 -14 9.5 -31.5t13.5 -39.5q14 -32 24.5 -59t16.5 -41
q11 21 23 54.5t26 80.5q7 23 13.5 47.5t14.5 49.5t15 48.5t14 45.5q23 75 27 119v5q0 6 -0.5 12.5t-0.5 12.5v5q-1 3 -8 12h-24q-3 5 -6 9.5t-5 9.5q-1 2 -1 3t-1 3q26 5 58 8t71 4v-11q-17 -7 -43 -50z" />
    </font>
</defs>
</svg>
