<?xml version="1.0" standalone="no"?>
<!DOCTYPE svg PUBLIC "-//W3C//DTD SVG 1.1//EN" "http://www.w3.org/Graphics/SVG/1.1/DTD/svg11.dtd" >
<svg xmlns="http://www.w3.org/2000/svg" xmlns:xlink="http://www.w3.org/1999/xlink" version="1.1">
<metadata></metadata>
<defs>
<font id="a_handmade_fontregular" horiz-adv-x="905" >
<font-face units-per-em="2048" ascent="1638" descent="-410" />
<missing-glyph horiz-adv-x="508" />
<glyph unicode="&#xd;" horiz-adv-x="508" />
<glyph horiz-adv-x="0" />
<glyph horiz-adv-x="0" />
<glyph unicode=" "  horiz-adv-x="508" />
<glyph unicode="&#x09;" horiz-adv-x="508" />
<glyph unicode="&#xa0;" horiz-adv-x="508" />
<glyph unicode="!" horiz-adv-x="302" d="M72 -91q0 83 74 83q73 0 73 -83t-73 -83q-74 0 -74 83zM72 -91q0 83 74 83q73 0 73 -83t-73 -83q-74 0 -74 83zM107 499v256l7 512q1 43 45 42q43 0 42 -44v-3l-36 -509l-15 -254l-5 -128l-1 -63l1 -31l3 -29v-2q2 -14 -11 -16q-14 -3 -17 10l-5 35l-3 32l-3 64z" />
<glyph unicode="&#x22;" horiz-adv-x="445" d="M106 1245q0 -29 1 -58q1 -25 2 -30q6 -30 10 -64q6 -48 8 -106q1 -5 4 -5q6 -3 8 4q20 55 32 104q16 59 21 109q7 72 -4 125q-11 42 -34 72l-19 -27l-20 -26q-10 -16 -9 -98zM265 1245l2 -58q1 -25 2 -30q6 -30 10 -64q6 -48 8 -106q0 -5 4 -5q6 -3 8 4q20 55 32 104 q15 59 21 109q7 72 -4 125q-11 42 -34 72l-19 -27l-20 -26q-10 -16 -10 -98z" />
<glyph unicode="'" horiz-adv-x="306" d="M145 1088q-1 84 12 177q4 28 54 25q50 -1 46 -29l-1 -3q-30 -90 -44 -172l-7 -86q0 -55 17 -84q5 -8 -11 -11q-14 -2 -20 4q-23 31 -37 89z" />
<glyph unicode="(" horiz-adv-x="408" d="M99 489q-9 207 26 401q18 102 47 196q37 114 78 191q19 34 53 16q34 -19 16 -53l-1 -1l-1 -2q-40 -69 -77 -173q-31 -89 -51 -187q-40 -186 -39 -387q3 -374 146 -768q4 -12 -8 -17q-12 -4 -17 8q-157 394 -172 776z" />
<glyph unicode=")" horiz-adv-x="441" d="M116 -241l1 1l1 2q40 69 77 173q31 89 51 187q40 186 38 387q-2 374 -145 768q-4 12 8 16t17 -7q157 -395 172 -776q9 -207 -26 -401q-18 -102 -47 -196q-37 -114 -78 -191q-18 -34 -53 -16q-34 19 -16 53z" />
<glyph unicode="," horiz-adv-x="306" d="M61 103q23 79 102 56l6 -2l3 -1l5 -3l8 -4l13 -10q11 -10 20 -22q16 -20 23 -45q11 -35 6 -77q-7 -52 -38 -115q-22 -44 -56 -93q-28 -40 -64 -84q-4 -5 -9 -1q-3 2 -2 6q18 54 29 100q13 54 17 98q6 54 -3 87q-6 19 -13 22q-4 2 -5 -1l2 -5l2 -3l3 -2l2 -1l1 -1l4 -1 q-79 23 -56 102z" />
<glyph unicode="." horiz-adv-x="320" d="M70 101q0 92 93 92q92 0 92 -92q0 -93 -92 -93q-93 0 -93 93zM70 101q0 40 24 68q27 32 69 30q39 -2 67 -32q27 -28 29 -67q3 -41 -26 -70q-29 -31 -71 -30q-42 0 -68 32q-24 28 -24 69zM71 101q-1 -38 30 -63q28 -23 62 -22q36 0 60 24q27 25 28 61q3 37 -24 63 q-26 25 -65 23q-34 -1 -61 -24q-31 -26 -30 -62z" />
<glyph unicode="0" horiz-adv-x="858" d="M46 523q-24 206 44 410q32 97 83 189q24 45 54 88q34 49 63 82q21 23 43 2q21 -22 1 -44l-1 -1l-1 -1q-29 -29 -62 -72q-29 -39 -55 -81q-52 -86 -86 -177q-69 -192 -51 -391q11 -110 33 -198q28 -114 71 -183q28 -44 63 -71q36 -29 82 -40q40 -10 93 -9q40 2 87 28 q75 44 139 132q56 77 92 174q67 186 46 394q-12 107 -46 191q-39 97 -105 158q-73 68 -160 78q-46 6 -86 -7q-42 -12 -72 -42q-23 -22 -43 1q-21 24 1 45l1 2q85 74 206 54q101 -16 182 -97q72 -71 111 -177q34 -90 43 -203q16 -224 -52 -407q-38 -101 -97 -180 q-69 -92 -148 -138q-53 -30 -97 -32q-57 -2 -101 8q-52 13 -92 44q-39 30 -69 78q-47 73 -77 191q-22 89 -37 202z" />
<glyph unicode="1" horiz-adv-x="868" d="M-87 884q14 41 55 28h1l1 -1l7 -2l9 -1l21 -2l44 1q43 4 89 20q82 27 169 87q139 95 285 268q26 30 56 5q20 -17 12 -42q-49 -156 -81 -330q-33 -185 -36 -338q-3 -200 47 -332q32 -85 86 -140q55 -56 133 -80q4 -2 9 -3q11 -3 8 -13q-2 -11 -13 -9l-1 1q-181 36 -353 48 q-97 7 -175 3q-101 -5 -166 -27q-43 -14 -57 29t28 57l5 1q78 18 190 13q82 -4 182 -20q109 -18 221 -47q-16 12 -31 26q-62 57 -100 147q-58 137 -64 346q-3 158 23 348q14 98 33 189q-98 -101 -194 -168t-189 -99q-55 -19 -107 -25l-57 -2l-29 2q-19 3 -33 8 q-41 13 -28 54z" />
<glyph unicode="2" horiz-adv-x="868" d="M31 859q-7 76 33 154q33 63 94 120q53 51 120 90q68 39 138 59q85 24 152 14q45 -8 76 -30q34 -23 52 -64q25 -61 10 -154q-11 -63 -42 -142l-54 -134q-59 -142 -120 -265q-70 -142 -140 -254q-42 -66 -82 -120q-41 -53 -74 -86q59 12 124 22q83 12 158 18q88 6 161 1 q96 -6 162 -30q28 -10 18 -38q-10 -27 -38 -17h-2q-57 26 -145 37q-69 8 -154 8q-74 -1 -157 -8q-84 -7 -155 -18h-1q-9 -2 -11 7q0 6 4 9q39 35 93 108q39 53 79 119q67 112 135 255q58 122 114 264l52 135q28 75 37 135q13 82 -9 132q-14 30 -39 46q-23 16 -58 22 q-58 8 -133 -15q-64 -19 -127 -57q-134 -82 -191 -193q-33 -65 -26 -125t54 -114q19 -21 -3 -40q-21 -19 -40 3l-1 1q-57 67 -64 145z" />
<glyph unicode="3" horiz-adv-x="1035" d="M21 192q3 23 18 44q20 28 48 8q29 -20 8 -49l-1 -1q-9 -12 -5 -24q6 -17 28 -35q36 -29 99 -52q110 -38 233 -33q125 5 229 53q56 25 101 61q47 37 83 85q35 46 61 101q28 61 40 113q16 65 6 115q-11 57 -57 92q-39 31 -106 46q-51 12 -119 12q-117 -1 -237 -37 q-31 -7 -38 25q-4 18 9 30q131 126 218 223q59 67 97 119l41 62q21 37 24 60l1 10l-2 5l-3 3l-9 3q-22 6 -64 1q-59 -7 -146 -35q-133 -43 -288 -114v-1q-34 -15 -49 18q-16 34 18 49q160 73 297 116q95 29 159 37l44 3q25 0 48 -7q15 -4 27 -11q16 -10 25 -25q9 -14 11 -32 v-29q-6 -36 -33 -85l-46 -69q-40 -55 -102 -123q-66 -72 -156 -161q16 1 30 2h125q69 -3 126 -17q71 -17 118 -52q56 -42 70 -112q12 -56 -5 -129q-12 -55 -41 -119q-27 -60 -64 -110q-78 -103 -195 -161q-111 -55 -246 -64q-135 -7 -253 28q-74 22 -120 57q-36 28 -50 59 q-11 23 -7 47z" />
<glyph unicode="4" horiz-adv-x="849" d="M30 364l4 9q93 89 185 218q77 109 150 243q66 120 127 257q64 142 107 265q12 34 46 22q35 -12 23 -46l-1 -1q-49 -124 -120 -266q-20 -39 -39 -77q7 4 18 4q37 1 38 -37v-2l-15 -560q20 -2 38 -4q54 -6 94 -17l48 -16q31 -14 50 -34l1 -1q28 -28 0 -56q-28 -27 -56 1 l-3 4q-14 18 -61 34q-34 12 -83 21q-14 3 -30 5l-9 -320q-1 -10 -11 -10t-11 10l-9 326q-49 7 -107 11q-168 12 -362 6q-11 -1 -12 11zM75 380q175 17 331 18q55 0 103 -2l-15 557v2q-41 -75 -83 -145q-81 -133 -164 -240q-86 -111 -172 -190z" />
<glyph unicode="5" horiz-adv-x="951" d="M14 232q-14 33 19 47q34 14 48 -19v-1q41 -107 167 -161q115 -50 242 -31q132 18 219 104q87 84 113 219q23 119 0 255q-26 148 -113 218q-89 74 -239 65q-124 -7 -251 -60q-11 -5 -16 5l-1 5v1l-11 379q-1 23 22 24l6 -1h1q64 -16 155 -20q71 -2 158 3l159 14l157 22 q42 7 49 -34q7 -42 -34 -49h-3l-163 -14l-163 -5l-164 8q-96 9 -164 30l30 22l-11 -379l-17 10q130 59 260 69q74 6 136 -8q72 -16 126 -59q54 -41 88 -108q29 -56 44 -130q13 -63 15 -135t-9 -137q-26 -150 -121 -248q-99 -101 -248 -126q-145 -23 -278 30q-70 29 -122 76 q-58 51 -86 119z" />
<glyph unicode="6" horiz-adv-x="1099" d="M53 39q-7 -11 3 -19q11 -9 20 2q28 36 65 104l11 21q22 -40 49 -68q47 -48 112 -67q58 -17 129 -10q106 10 238 73q119 59 209 127q55 43 93 85q50 56 70 113q27 76 -9 143q-30 57 -99 95q-104 55 -248 51q-129 -5 -242 -60q-118 -58 -191 -160q-36 -48 -60 -109 l-47 -109l-2 -5l-17 67q-11 50 -14 115l-1 59l1 60l1 59l2 28l4 29q9 57 31 110q20 50 53 102q31 46 72 90q154 165 383 257l2 1l3 1q34 17 16 52q-17 34 -51 16q-111 -56 -209 -129q-108 -81 -179 -166q-87 -102 -129 -209q-22 -58 -31 -119l-4 -31l-1 -31v-120l1 -60 q2 -60 12 -121q11 -61 32 -113l-23 -51l-26 -52l-29 -50v-1zM176 193l20 40l50 108q24 56 57 98q139 185 395 188q126 1 213 -48q51 -28 71 -68q20 -39 3 -89q-15 -43 -56 -88q-33 -37 -83 -75q-42 -32 -96 -65l-101 -57q-121 -61 -214 -76q-59 -9 -108 3q-53 12 -93 49 q-33 31 -58 80z" />
<glyph unicode="7" horiz-adv-x="914" d="M42 1088q-9 28 19 38q286 90 499 135l129 22l66 6q43 1 70 -5l19 -6l20 -13q11 -11 14 -25l2 -7v-14l-5 -67l-17 -128l-39 -254l-34 -254q-17 -150 -21 -254q-3 -74 1 -127l8 -63q8 -36 21 -55q6 -9 -3 -15q-8 -5 -14 3q-15 22 -25 63l-10 65q-5 55 -4 129q1 48 4 106 q-111 131 -240 197q-73 37 -148 52q-39 8 -76 10h-38q-22 -2 -35 -5q-36 -8 -44 28q-9 36 28 45h3q19 3 47 2l45 -3q42 -5 85 -18q81 -23 156 -70q121 -75 220 -205q4 55 10 119l29 255l33 255l14 127l4 62v10h-1l-1 3q-5 4 -18 7q-22 4 -58 3l-62 -7l-124 -23 q-209 -48 -490 -143q-29 -9 -39 19z" />
<glyph unicode="8" horiz-adv-x="1104" d="M45 325q-16 88 19 175q31 81 98 148q78 78 180 122q-60 11 -113 36q-61 29 -102 72q-47 50 -55 112q-9 64 27 124q30 52 83 93q97 74 230 95q137 22 253 -20q70 -27 115 -72q57 -56 67 -130q9 -76 -34 -143q-35 -55 -97 -96q-17 -11 -35 -20q78 -10 150 -40 q94 -41 155 -108q70 -76 87 -174q18 -99 -23 -194q-36 -84 -112 -153q-135 -118 -328 -145q-192 -27 -348 52q-84 41 -140 107q-62 72 -77 159zM70 329q14 -82 72 -145q52 -57 135 -92q150 -60 323 -25q171 35 279 148q122 124 98 268q-20 143 -181 221q-141 70 -312 47 q-177 -24 -296 -131q-66 -60 -97 -131q-33 -79 -21 -160zM97 993q6 -55 49 -97q38 -37 97 -58q103 -34 224 -15q120 19 201 85q97 77 87 161q-6 87 -121 138q-96 45 -216 37q-123 -9 -214 -67q-52 -35 -80 -79q-32 -50 -27 -105z" />
<glyph unicode="9" horiz-adv-x="886" d="M40 890q2 33 11 73l20 69q26 75 68 130q46 62 111 98q63 34 141 43q67 8 144 -3q64 -9 137 -33q72 -24 131 -55q15 -7 7 -22q-2 -4 -5 -6q15 0 20 -16q22 -74 22 -142q0 -77 -27 -144q-50 -125 -180 -198l-2 -44q-4 -139 4 -304q7 -160 21 -303q3 -30 -26 -33t-32 26v1 q-12 144 -16 307q-4 167 3 308q0 9 1 18q-121 -56 -254 -50q-80 4 -144 32q-78 34 -118 98q-41 65 -37 150zM100 887q-3 -68 27 -115q31 -49 92 -76q54 -24 123 -28q133 -6 253 54q1 1 2 1q11 130 31 226q19 91 47 150q20 42 43 69q16 17 34 29q-113 45 -223 57 q-152 18 -252 -41q-105 -59 -151 -199q-24 -75 -26 -127zM644 750q88 60 129 152q50 112 11 254q-4 14 3 21q-46 -19 -79 -93q-24 -56 -41 -143q-16 -82 -23 -191z" />
<glyph unicode=":" horiz-adv-x="385" d="M100 101q0 92 93 92q92 0 92 -92q0 -93 -92 -93q-93 0 -93 93zM100 101q0 40 24 68q27 32 69 30q39 -2 67 -32q27 -28 29 -67q3 -41 -26 -70q-29 -31 -71 -30q-42 0 -68 32q-24 28 -24 69zM100 681q0 92 93 92q92 0 92 -92q0 -93 -92 -93q-93 0 -93 93zM100 681 q0 40 24 68q27 32 69 30q39 -2 67 -32q27 -28 29 -67q3 -41 -26 -70q-29 -31 -71 -30q-42 0 -68 32q-24 28 -24 69zM101 101q-1 -38 30 -63q28 -23 62 -22q36 0 60 24q27 25 28 61q3 37 -24 63q-26 25 -65 23q-34 -1 -61 -24q-31 -26 -30 -62zM101 681q-1 -38 30 -63 q28 -23 62 -22q36 0 60 24q27 25 28 61q3 37 -24 63q-26 25 -65 23q-34 -1 -61 -24q-31 -26 -30 -62z" />
<glyph unicode=";" horiz-adv-x="362" d="M100 668q0 36 22 61q24 29 62 27q35 -1 60 -28q25 -26 26 -61q3 -36 -23 -63q-27 -27 -64 -27q-38 0 -61 29q-22 25 -22 62zM101 668q0 82 83 82t83 -82q0 -84 -83 -84t-83 84zM101 668q0 -34 27 -56q25 -21 56 -20q32 0 54 21q24 23 25 55q2 33 -22 57q-23 22 -58 20 q-30 -1 -55 -22q-27 -22 -27 -55zM105 50q19 65 83 46l4 -2l3 -1l3 -2l7 -4l11 -8q9 -7 16 -17q13 -17 19 -37q9 -29 5 -64q-6 -42 -31 -93q-18 -36 -46 -76q-22 -32 -52 -69q-3 -3 -7 0q-3 2 -2 5q15 44 24 81q10 44 14 80q5 44 -3 71q-5 16 -11 19q-3 1 -3 -2l1 -4l2 -2 l2 -1l1 -2h2l3 -1q-64 19 -45 83z" />
<glyph unicode="?" horiz-adv-x="598" d="M66 1099q-5 29 2 64q10 49 39 99q28 47 64 82q46 43 94 58q32 10 63 6t59 -22q41 -27 71 -83q36 -70 56 -185q15 -89 19 -185q4 -116 -14 -189q-16 -59 -46 -91q-38 -44 -99 -38q-43 3 -93 30q-42 22 -79 54q-12 10 -2 21l12 6l10 -2l5 -5l5 -6l4 -11l4 -18l5 -34l5 -68 l4 -135q0 -16 -16 -16q-15 0 -15 16l-4 133l-5 66l-4 32l-4 15l-1 5l2 -2l5 -1l10 27q86 -64 154 -67q41 -1 64 27q21 25 31 73q13 67 4 174q-8 91 -26 176q-23 103 -57 161q-22 38 -47 52t-53 3q-60 -22 -103 -105q-20 -37 -24 -70q-3 -17 0 -27l2 -4l-1 1q44 -26 18 -70 q-27 -44 -71 -18q-19 12 -32 33q-12 19 -15 38zM150 51q0 92 93 92q92 0 92 -92q0 -93 -92 -93q-93 0 -93 93zM150 51q0 40 24 68q27 32 69 30q39 -2 67 -32q27 -28 29 -67q3 -41 -26 -70q-29 -31 -71 -30q-42 0 -68 32q-24 28 -24 69zM151 51q-1 -38 30 -63q28 -23 62 -22 q36 0 60 24q27 25 28 61q3 37 -24 63q-26 25 -65 23q-34 -1 -61 -24q-31 -26 -30 -62z" />
<glyph unicode="A" horiz-adv-x="1215" d="M27 748l2 2q31 48 69 80q45 37 98 49q29 7 59 7q68 0 145 -34q77 -36 164 -104q32 -24 65 -54l47 166l104 377l24 95l5 24l8 26l10 14q6 5 14 4l11 -5l11 -12l6 -11l21 -47l16 -46l25 -95l46 -192l40 -190l78 -385l75 -384q3 -13 -9 -15q-9 -1 -14 5v1q-103 146 -227 291 q-133 158 -253 268q-8 7 -15 14l-31 -128l-184 -762q-9 -36 -39 -36q-7 0 -16 2q-36 8 -36 39q0 7 2 16l1 4q99 325 221 751l42 148q-45 37 -86 68q-83 59 -153 87q-60 25 -109 25q-26 0 -49 -7q-66 -18 -114 -98q-13 -24 -33 -24q-12 0 -25 8q-23 14 -23 34q0 11 7 24z M657 660q19 -18 39 -38q117 -116 246 -281q99 -127 183 -253l-56 326l-76 384q-46 220 -90 381l-28 94l-16 44l-19 44q-6 11 -10 15l-2 -4l-6 -22l-5 -23l-22 -96l-92 -381z" />
<glyph unicode="B" horiz-adv-x="1104" d="M-237 1201q3 19 13 36l19 25l41 35q67 44 175 78q91 28 182 38q42 4 79 5q61 0 110 -12q57 -13 93 -41q23 -17 36 -41q14 -21 18 -50q6 -28 5 -54q0 -70 -39 -135q-44 -73 -131 -134q-60 -41 -126 -70q269 -84 476 -188q151 -78 235 -153q64 -60 88 -118q13 -32 13 -64 q0 -8 -1 -16l-3 -20l-4 -18l-11 -36q-26 -70 -80 -125q-50 -50 -121 -84q-122 -59 -281 -59q-145 0 -281 49l-131 51l-66 34q-22 13 -35 25l-10 11l-10 18l-4 17l3 21l11 20l8 6q5 4 10 6q12 5 22 5q23 0 35 -27q5 -13 5 -23q4 -3 10 -7l56 -30l123 -52q122 -48 255 -52h21 q130 0 232 45q129 57 175 172l10 29l4 16l2 14q3 26 -7 55q-18 48 -72 101q-77 73 -221 151q-215 116 -502 211q-14 4 -9 18l8 8q82 35 152 88q78 60 114 126q28 51 28 105q0 26 -6 52q-7 37 -37 58q-27 19 -72 28q-32 6 -71 6q-45 0 -98 -8q-84 -13 -167 -42 q-95 -34 -150 -75l-27 -24l-7 -11l-2 -6q1 0 4 -3l11 -7q6 -4 15 -8q28 -13 28 -37q0 -10 -5 -23q-13 -28 -37 -28q-11 0 -23 6l-2 1l-11 6l-13 7l-25 21q-14 14 -22 32q-9 22 -5 45zM75 746l5 150l13 149q5 43 44 43h9q43 -5 43 -44v-9l-1 -5l-29 -144l-22 -144l-10 -144 l3 -71q6 -44 20 -62l1 -1q9 -11 -2 -19q-10 -8 -19 1q-14 15 -23 36l-13 38l-12 75zM78 179q3 1 7 3l1 1z" />
<glyph unicode="C" horiz-adv-x="1048" d="M20 561v43l4 84q15 184 79 332q75 171 209 277q150 119 327 133q18 1 36 1q82 0 149 -27q53 -22 86 -59q20 -22 31 -48l10 -28l3 -15l1 -14v-9q0 -44 -47 -48h-7q-45 0 -50 48v1q-1 24 -18 44t-49 33q-48 21 -112 21q-13 0 -26 -1q-149 -9 -276 -106q-118 -90 -187 -239 q-62 -133 -80 -303l-5 -80l-1 -39l1 -37q7 -74 41 -146q34 -71 87 -126q64 -64 120 -105l65 -40l73 -29q62 -20 157 -30q54 -7 100 -7q31 0 59 3q85 9 155 37h1q13 5 19 -8q5 -13 -8 -19q-124 -55 -262 -55q-34 0 -69 3q-204 15 -323 98q-61 42 -132 107q-62 61 -104 140 q-42 82 -53 168z" />
<glyph unicode="D" horiz-adv-x="1081" d="M-254 1240l1 2q35 43 83 77q43 31 96 55q93 41 204 56q67 9 132 9q143 0 281 -42q225 -70 351 -226q69 -86 98 -190q22 -79 22 -162q0 -24 -2 -48q-8 -98 -42 -201q-29 -91 -78 -186q-50 -96 -112 -169q-69 -83 -153 -134q-88 -55 -190 -72q-49 -9 -101 -9q-49 0 -100 8 q-199 33 -364 157q-9 7 -2 16t16 3q165 -119 354 -143q41 -5 80 -6q57 0 110 12q94 19 173 72q76 50 137 128q54 71 97 164q88 196 91 364v14q0 92 -25 165q-28 85 -86 154q-109 129 -305 184q-117 33 -236 33q-65 0 -130 -10q-98 -15 -172 -48q-88 -40 -135 -100 q-20 -26 -44 -26q-19 0 -39 16q-26 20 -26 44q0 18 16 39zM51 1067q0 35 35 35t35 -35v-2l-19 -326l-6 -162l-1 -81l3 -81q0 -12 -11 -13q-11 0 -13 10l-8 83l-5 81l-6 164z" />
<glyph unicode="E" horiz-adv-x="1151" d="M-87 796q19 28 44 28q15 0 33 -11l14 -1l26 4q2 77 8 152q9 97 27 182q25 112 57 180l28 44l22 21q15 12 36 16h22l10 -1l21 -3l44 -2h178q164 6 358 22h7q44 0 48 -46v-9q0 -42 -46 -46h-2q-138 -5 -262 -5q-53 0 -103 1l-183 9l-47 5l-23 4l-12 2h-1l-5 -2l-10 -10 l-22 -31q-32 -59 -60 -162l-36 -174q-11 -72 -16 -139l73 19q365 128 515 128q52 0 78 -15q16 -9 7 -25q-9 -15 -24 -8l-2 1l-542 -171l-100 -37l-9 -2q0 -55 5 -108q18 -202 94 -338q46 -82 110 -124q34 -22 73 -33l85 -18q65 -11 123 -11q116 0 206 43q72 33 127 96 q47 53 88 140q18 35 47 35q14 0 31 -8q36 -17 36 -47q0 -14 -8 -31l-2 -3v-1q-54 -97 -115 -158q-73 -74 -166 -111q-94 -37 -205 -37q-84 0 -177 21l-90 25q-48 17 -89 47q-73 54 -120 151q-63 133 -82 359q-3 52 -5 103l-14 -3l-35 -3l-22 3q-16 3 -31 13q-28 20 -28 44 q0 17 13 36z" />
<glyph unicode="F" horiz-adv-x="756" d="M-200 1360q0 -13 12 -13l234 -10l-1 -2l-3 -45l-1 -42l-1 -83l2 -165l1 -23l-79 -2q-11 0 -12 -11q-1 -13 11 -13l80 -5l7 -276l23 -658q0 -12 12 -12t12 12l6 659l5 271l166 -8l157 -4h78l82 5l4 1q38 7 30 46q-8 38 -46 31l-1 -1l-73 -10l-76 -7l-155 -9l-165 -7v21 l5 164l4 81l3 41l4 37v1l1 10l207 -8l131 -4h132l132 7l130 11h2q37 4 37 38q0 4 -1 8q-4 37 -37 37q-5 0 -10 -1l-129 -17l-128 -15l-129 -7l-130 -3l-521 -9q-12 0 -12 -11z" />
<glyph unicode="G" horiz-adv-x="1355" d="M-26 412q45 58 109 113v14q0 28 3 56q14 129 93 259q61 104 166 216q87 92 198 185q94 80 218 165q17 12 33 12q22 0 40 -26q12 -18 12 -34q0 -22 -25 -40l-6 -3l-2 -1q-243 -125 -425 -301q-102 -98 -166 -200q-77 -125 -88 -237q-1 -13 -2 -25q21 15 43 31 q111 78 243 126q186 68 390 68q75 0 152 -9l68 -9l71 -16q79 -23 135 -70q68 -58 76 -144q1 -14 1 -27q0 -61 -28 -127q-54 -121 -179 -222q-111 -89 -247 -133q-103 -33 -203 -33q-39 0 -77 5q-143 19 -258 108q-52 39 -101 96q-48 56 -79 114q-39 73 -51 148 q-46 -37 -88 -80l-1 -1q-12 -11 -23 0q-11 10 -2 22zM133 505q8 -82 51 -157q64 -112 170 -187q105 -75 231 -86q23 -2 47 -2q97 0 199 37q114 42 216 126q106 90 150 190q21 48 21 89q0 9 -1 17q-5 49 -45 85q-35 32 -99 52l-60 14l-64 11q-89 12 -174 12q-174 0 -335 -50 q-172 -54 -307 -151z" />
<glyph unicode="H" horiz-adv-x="1035" d="M-100 692q-1 33 33 34h61q93 0 200 -2l9 332l4 171l3 171q1 37 38 37q37 -1 37 -38l-1 -5l-20 -169l-16 -170l-19 -330q81 -2 171 -5l234 -16l117 -15l58 -12l30 -8l18 -8l20 296l22 401q2 40 40 40h4q42 -2 41 -44l-1 -6q-37 -194 -64 -395l-45 -397q-21 -235 -25 -399 l1 -200l9 -98l10 -46l8 -20l4 -7h1q20 -8 12 -28q-7 -19 -27 -12l-18 15l-8 15l-9 27l-7 52l-3 102l5 200l23 400l5 73h-1q-16 8 -52 15l-56 7l-115 8l-232 6l-172 -1l-2 -120l2 -170l12 -169l12 -83q9 -49 22 -76v-1q12 -25 -13 -37t-37 13l-2 4q-12 41 -18 89l-7 87 l-5 172l3 291h-28l-232 -4q-33 0 -34 33z" />
<glyph unicode="I" horiz-adv-x="900" d="M-69 42q-7 32 25 40h104l97 -4l190 -16l59 -6v3q19 365 23 636v317l-9 157l-8 77l-7 37l-5 17l-2 6q-9 8 -9 17l-171 -15q-120 -16 -199 -37q-25 -7 -32 18q-6 24 19 31l5 1l204 16l203 24l204 22l208 17h4q45 0 45 -49q0 -43 -45 -45l-12 1q-86 18 -199 22l-169 -3l3 -8 l6 -22l6 -42l8 -81l4 -160l-7 -320q-11 -270 -39 -635q0 -2 -1 -4l103 -10l191 -16q30 -2 28 -32t-32 -28l-6 1q-166 45 -373 63q-86 6 -156 6h-33q-108 -1 -185 -20q-32 -7 -40 24z" />
<glyph unicode="J" horiz-adv-x="1007" d="M-46 1381q0 20 20 21l556 16l279 2q172 -1 280 -9q43 -3 43 -44v-5q-3 -43 -44 -43h-5l-2 1q-105 11 -275 21l-212 8q0 -18 2 -46l6 -75l17 -151l33 -303q15 -172 18 -307v-31q0 -163 -19 -277q-30 -177 -93 -297q-39 -75 -93 -129q-56 -58 -130 -92l-74 -28l-38 -11 q-24 -5 -46 1q-40 8 -74 46q-24 26 -45 66q-31 59 -56 146q-21 75 -33 150q-2 15 13 18q14 2 17 -13q34 -176 91 -283q45 -81 95 -91h29l35 10l68 28q127 62 197 204q57 115 82 283q14 91 14 214q0 41 -2 85q-6 131 -24 301l-39 301l-20 151l-9 77l-2 40v16l-540 9 q-20 0 -20 20z" />
<glyph unicode="K" horiz-adv-x="1016" d="M0 1380v7q0 39 42 43h7q39 0 43 -41v-3l21 -657l64 52l84 74l164 151l322 309q16 15 31 15q16 0 32 -16t16 -32t-16 -31l-3 -2l-344 -287l-175 -140l-89 -69l-72 -51q111 -47 230 -109q134 -70 242 -140q136 -89 225 -174q59 -57 95 -112q49 -75 58 -147v-9 q0 -38 -41 -42q-5 -1 -10 -1q-36 0 -41 41v3q-2 51 -37 111q-29 49 -79 103q-78 85 -204 178q-101 74 -229 151q-115 68 -222 122l3 -320l-3 -172l-6 -86l-5 -44l-4 -22l-3 -12l-7 -13q-8 -12 -20 -4q-11 7 -3 19v1l2 6l3 9l3 20l3 42l1 85l-5 170l-19 342z" />
<glyph unicode="L" horiz-adv-x="1002" d="M26 329q10 198 112 526q78 242 184 503q12 31 38 31q10 0 22 -5q30 -12 30 -37q0 -10 -5 -23l-2 -4v-1q-125 -234 -216 -482q-51 -141 -79 -252q-38 -148 -43 -258q-1 -15 -1 -28q0 -55 10 -99q14 -69 56 -103q21 -19 50 -27l29 -6l33 -3l131 -6h30q121 0 232 14l65 10 l66 12l70 9l43 -1q26 -3 48 -16l13 -7q28 -16 28 -40q0 -13 -8 -29q-16 -29 -40 -29q-14 0 -30 9l-15 13q-8 10 -38 11l-61 -1l-135 -8q-55 -2 -109 -2q-81 0 -161 5l-134 12l-34 3l-36 8q-37 12 -65 37q-49 42 -68 126q-11 46 -11 104q0 16 1 34z" />
<glyph unicode="M" horiz-adv-x="1424" d="M41 61v2l47 312l31 315q8 114 8 209q0 55 -3 104q-4 87 -17 152q-13 70 -36 110l-16 24q-9 14 -9 26q0 19 23 34q13 8 25 8q18 0 32 -18l1 -2q1 -2 3 -4q8 -12 16 -25q100 -152 247 -238q129 -76 270 -76q44 0 89 7q168 26 348 153q142 100 289 263q11 13 24 2 q8 -7 6 -18q-49 -183 -84 -408q-32 -212 -43 -413q-5 -94 -5 -183q0 -356 77 -632q3 -11 3 -20q0 -32 -38 -42q-11 -3 -20 -3q-31 0 -41 38l-1 1q-46 194 -55 424q-2 52 -2 105q0 152 15 317q19 202 60 417q36 180 78 333q-118 -131 -235 -220q-185 -140 -366 -174 q-59 -12 -118 -12q-148 0 -287 77q-80 43 -153 109q7 -49 11 -107q4 -69 4.5 -150t-4.5 -174l-27 -321l-43 -318q-8 -45 -48 -45q-6 0 -13 1q-44 8 -44 47q0 6 1 13z" />
<glyph unicode="N" horiz-adv-x="1294" d="M50 47v3l43 513l45 514l4 32l3 17l1 9l3 12l2 4v2l3 4l13 12q5 5 19 3l10 -2l4 -2l7 -5l3 -3l3 -4l2 -3l2 -4l4 -10l6 -17l9 -32l33 -124l72 -245q97 -290 202 -465q77 -126 157 -191q81 -66 165 -66q26 0 53 6q122 29 195 130q63 87 83 227q9 61 9 139q0 150 -32 365 l-42 254l-17 131l-2 70q3 48 17 82q15 35 43 35q12 0 26 -6q34 -15 34 -43q0 -12 -6 -26l-3 -7q-9 -14 -12 -43l-3 -58l7 -125l28 -255q20 -179 20 -318q0 -116 -14 -203q-25 -153 -95 -249q-83 -114 -225 -149q-32 -7 -63 -7q-39 0 -77 11q-61 18 -121 65q-88 70 -170 203 q-110 180 -212 474l-78 246l-7 25q-13 -192 -23 -415l-20 -514q-2 -52 -52 -52h-4q-53 1 -52 55z" />
<glyph unicode="O" horiz-adv-x="1396" d="M41 529q-1 19 -1 39q0 105 27 217q65 264 233 452q100 109 212 158q67 28 135 33q13 1 26 1q57 0 113 -18h1q35 -11 35 -40q0 -9 -4 -21q-12 -35 -41 -35q-9 0 -20 3l-1 1q-44 15 -90 15q-58 0 -118 -25q-95 -39 -183 -132q-157 -169 -221 -412q-28 -110 -28 -213v-20 q4 -126 53 -223q52 -104 152 -165q91 -56 219 -75q63 -9 137 -9q49 0 103 4q132 11 232 50q119 46 193 129q77 86 102 208q13 64 13 130q0 162 -78 338q-52 118 -126 205q-96 110 -193 131q-14 3 -11 17t17 11q58 -11 117 -53q48 -33 94 -85q79 -89 136 -210 q54 -118 75 -240q12 -69 12 -134q0 -62 -11 -119q-26 -134 -110 -231q-80 -95 -210 -147q-107 -43 -247 -58q-68 -6 -130 -6q-66 0 -123 7q-142 18 -245 80q-119 69 -181 190q-58 110 -65 252z" />
<glyph unicode="P" d="M-49 1122v3q15 82 79 152q53 58 129 97q119 61 244 61q33 0 66 -4q169 -20 278 -148q93 -108 129 -279l4 -19l3 -22l-2 -42q-5 -35 -18 -77q-24 -75 -62 -140l-22 -33l-13 -16l-13 -14l-54 -53q-56 -49 -125 -87q-124 -67 -280 -104q-29 -7 -57 -12q7 -164 25 -370 q1 -14 -13 -15q-13 -1 -16 12q-32 202 -51 363q-88 -14 -172 -14h-11q-14 0 -14 14t14 14q87 3 180 19q-4 33 -7 64q-12 135 -13 233l4 120l11 64l12 35l14 21l12 13l11 7l9 3l5 2l10 1h2q46 0 46 -47q1 -36 -27 -46l-6 -15l-12 -50l-13 -110q-4 -64 -4 -144q0 -40 1 -84 q1 -27 2 -55q24 6 49 12q150 41 267 109q63 37 114 84l49 51l12 14l10 12l17 29q33 60 53 130l14 67v31l-2 14l-4 17q-37 154 -121 246q-94 102 -234 115q-23 2 -45 2q-111 0 -214 -57q-138 -76 -154 -188q-6 -42 -43 -42q-5 0 -12 1q-42 6 -42 43q0 6 1 12z" />
<glyph unicode="Q" horiz-adv-x="1526" d="M1 491q16 300 206 516q205 236 496 255q25 1 51 1q261 0 476 -161q118 -88 184 -207q71 -125 75 -266v-7q0 -150 -43 -263q-51 -134 -161 -220q-37 -29 -81 -54q101 -88 227 -171q14 -9 5 -23q-8 -12 -21 -6q-82 39 -170 91q-61 36 -114 73q-41 -18 -87 -34l-130 -37 l-133 -23q-112 -15 -212 -15q-30 0 -59 1q-165 10 -270 62q-63 32 -117 85q-52 53 -82 122q-41 94 -41 233q0 24 1 48zM94 484v1q-4 -42 -4 -80q0 -93 25 -159q40 -108 152 -175q92 -52 238 -67q57 -5 118 -5q67 0 139 6q127 11 252 51q37 12 70 26l-1 1q-90 69 -147 136 q-38 44 -61 88q-30 59 -33 116v5v6q0 60 62 63h7q59 0 63 -62l-1 -11q-1 -6 -1 -12q0 -54 49 -129q42 -64 116 -137q13 -13 26 -25q43 24 77 52q102 81 144 202q33 93 33 205q0 22 -1 45q-8 126 -76 234q-65 105 -172 177q-181 124 -399 124q-35 0 -71 -3q-119 -12 -228 -74 q-100 -56 -186 -155q-168 -197 -190 -444z" />
<glyph unicode="R" horiz-adv-x="1044" d="M-232 1024q-8 22 -8 45q0 26 10 52q24 61 94 122q99 83 245 130q131 42 254 42q150 0 288 -62q140 -65 231 -145q58 -51 93 -108q42 -67 49 -139q2 -17 2 -35q0 -55 -19 -111q-20 -61 -62 -126q-73 -115 -210 -182q-138 -67 -337 -92q164 -141 345 -357 q182 -222 295 -433q8 -14 -7 -22q-14 -8 -22 6q-113 195 -303 417q-194 223 -367 360q-15 11 -28 21q-46 -4 -95 -5q-1 -66 -1 -139q0 -109 2 -233q0 -16 -16 -17q-15 0 -16 15q-17 207 -27 374h-10l-37 1l-20 2l-23 8q-31 13 -40 44t9 59l22 22l16 7l4 1l6 1l42 2l24 -4 l-4 256l7 133l12 70l7 20l12 24l15 17l14 8l20 6l22 -1l17 -7q13 -8 22 -20q13 -18 13 -33q0 -22 -25 -39q-12 -9 -24 -11l-11 -48l-16 -123l-13 -255v-15q22 -7 43 -17l51 -30q78 8 150 21q139 26 236 76q117 60 177 156q66 105 66 191q0 14 -2 27q-12 102 -116 191 q-81 69 -210 127q-116 51 -244 51q-111 0 -231 -39q-128 -42 -212 -112q-50 -43 -64 -82q-7 -17 -2 -29l7 -11q7 -7 17 -14q24 -16 24 -37q0 -14 -11 -31q-17 -25 -38 -25q-13 0 -29 10l-3 2l-15 11l-18 17q-18 20 -27 44zM93 477l3 -2l21 -4h37v7q-16 3 -33 5l-23 -1l-3 -1 l-1 -1z" />
<glyph unicode="S" horiz-adv-x="997" d="M30 203q10 28 33 28q8 0 18 -4l3 -1q79 -37 168 -71l172 -61q104 -31 174 -40q24 -3 44 -3q23 0 39 4q18 4 25 13q7 8 5 26l-4 19l-7 20l-17 42l-38 83l-80 165l-161 332q-95 208 -134 346q-14 52 -19 93q-3 26 -3 48q0 29 5 52q7 30 24 50q18 24 48 34l27 6l25 2l45 4 l182 22l185 20q30 2 54 2t43 -2q32 -4 54 -12l30 -17q16 -14 24 -33q7 -18 6 -38l-6 -32q-7 -22 -22 -50q-21 -36 -57 -81q-15 -18 -32 -18q-14 0 -28 12q-18 15 -18 31q0 13 11 28l3 3q34 37 53 66l18 33l3 13v6l-2 4l-10 7q-13 6 -35 9q-28 5 -72 5h-15l-181 -13l-184 -16 l-47 -2l-21 -2l-18 -3q-32 -10 -42 -49q-5 -20 -5 -46q0 -18 2 -38l17 -87q32 -125 128 -341l79 -165l82 -165l83 -164l39 -84l19 -43l8 -23l7 -26l1 -30q-3 -18 -13 -32q-10 -13 -25 -21l-27 -11q-25 -7 -61 -7q-18 0 -39 2q-75 7 -185 35q-142 37 -354 115q-28 10 -28 33 q0 8 4 18z" />
<glyph unicode="T" horiz-adv-x="153" d="M-549 1329q-9 26 18 35l4 1q129 22 277 36l277 19l277 11l279 11q39 1 40 -37q2 -38 -36 -40l-9 1q-115 19 -274 27q-81 4 -157 4q-38 0 -76 -1q4 -9 4 -20v-3q-16 -309 -20 -687q-1 -62 -1 -121q0 -118 4 -223l11 -171l11 -84l8 -42q6 -25 13 -36v-1q6 -9 -3 -15t-15 3 l-11 22l-7 21l-10 43l-12 86l-15 172l-10 173l-8 172l-11 344l-6 345q0 11 2 19q-131 -7 -241 -23q-155 -22 -268 -59q-26 -8 -35 18z" />
<glyph unicode="U" horiz-adv-x="1044" d="M1 623q2 92 19 192q31 184 100 374q12 35 47 22q34 -12 22 -47l-2 -3v-1q-78 -162 -120 -353q-27 -128 -27 -238q0 -70 11 -133q16 -96 61 -172q48 -81 124 -131q73 -48 169 -71q77 -18 143 -18q20 0 39 2q96 9 163 61q63 49 101 141q52 129 52 326v35q-4 165 -44 370 l-42 183q-24 94 -53 177l-1 2q-6 19 -6 34q0 44 53 63q19 6 34 6q45 0 64 -53l3 -10q41 -210 58 -385q18 -163 18 -304q0 -43 -2 -84q-4 -104 -21 -194q-19 -109 -57 -190q-49 -102 -126 -158q-80 -60 -191 -65q-14 -1 -29 -1q-34 0 -70 5l-96 18q-102 26 -179 79 q-85 59 -135 143q-46 78 -67 184q-14 71 -14 154q0 20 1 40z" />
<glyph unicode="V" d="M-33 1164q-7 17 -7 31q0 36 43 54q17 7 31 7q36 0 54 -44l4 -17q29 -275 133 -674l47 -164l54 -162l31 -80q19 -43 38 -73l11 -13l3 -1l4 5l5 8l9 18l26 80l86 331l87 333q55 204 100 332q35 100 67 164q26 51 50 83q23 27 45 42q20 12 41 15q26 4 50 -6q37 -16 37 -46 q0 -13 -6 -28q-15 -37 -46 -37q-13 0 -28 7l8 -1l1 1q-7 -3 -18 -16q-19 -22 -42 -62q-32 -57 -70 -150q-50 -123 -115 -320l-104 -327l-51 -164l-58 -162l-34 -81l-11 -20l-6 -10l-10 -11l-4 -2l-1 -1h-1l-2 -2l-12 -1l-16 7l-18 19q-22 33 -41 78l-32 81l-56 163l-53 163 l-106 328q-62 188 -117 325z" />
<glyph unicode="W" horiz-adv-x="1605" d="M-94 1277q-6 19 -6 34q0 46 55 66q19 6 35 6q47 0 65 -55l4 -14v-1q43 -308 128 -656q40 -165 90 -321l56 -157l34 -75l41 -66l12 -12l9 -5l5 2l10 12l37 71l61 154q50 150 95 320q91 343 139 655q8 53 55 53q7 0 15 -1q39 -6 50 -44l4 -12q31 -320 110 -661 q36 -159 91 -322q30 -86 64 -152q23 -43 44 -65q14 -15 25 -19q10 -3 21 5q39 35 72 136l40 160q30 166 46 332l34 336l20 171l16 89q14 61 34 99l4 8q26 52 69 52q22 0 48 -13q51 -27 51 -69q0 -22 -13 -48l-14 -20q-15 -16 -33 -56l-27 -73l-44 -159l-70 -329l-33 -165 l-37 -166l-47 -164l-35 -80q-25 -49 -56 -73q-27 -24 -58 -12q-21 7 -43 30q-24 26 -50 74l-67 157l-55 161l-49 161l-126 450l-41 -121l-104 -319l-108 -319l-63 -157l-41 -77l-16 -20q-15 -13 -34 -11l-29 12l-18 17l-49 74l-36 77l-63 157l-112 318l-105 320z" />
<glyph unicode="X" horiz-adv-x="1294" d="M17 70l1 16l4 16l9 15l12 19l22 28l44 47l90 87l181 166l269 236q-126 235 -249 497q-9 19 -9 35q0 34 40 53q19 9 35 9q33 0 53 -40l1 -3l1 -1q102 -253 207 -481l20 18l745 634q17 13 30 -2q13 -16 -1 -30l-716 -666l-39 -38q38 -80 76 -157q102 -204 189 -346 q59 -96 109 -161l64 -73q38 -36 73 -52q20 -9 11 -28q-8 -19 -26 -12q-41 14 -92 57l-71 73q-57 64 -123 161q-96 139 -211 340q-36 63 -71 128l-240 -231l-171 -172l-82 -87l-38 -44l-13 -18q-1 -34 -42 -52q-18 -8 -33 -8q-34 0 -53 42q-6 13 -6 25z" />
<glyph unicode="Y" horiz-adv-x="793" d="M-59 1204l1 5l1 3l1 2l1 5l15 23l23 15l22 4q15 -1 27 -5l17 -8q19 -10 47 -32l75 -69l134 -144l128 -146l64 -74l29 -31l391 663q16 26 38 26q13 0 29 -9q26 -16 26 -38q0 -13 -9 -29l-1 -2l-436 -669l-212 -338l-102 -170l-49 -87l-23 -44l-17 -43l-1 -2q-4 -13 -17 -9 t-10 17l18 50l21 46l46 89l95 176l196 345l-38 34l-71 67l-140 135l-143 128l-74 57q-11 7 -20 12q-14 -14 -43 -9q-40 8 -40 42q0 7 1 14z" />
<glyph unicode="Z" horiz-adv-x="1299" d="M9 0q7 31 27 66q30 52 78 106l89 94l187 174l193 167l194 165l190 168l45 43l42 44q21 25 28 45q6 19 -3 29q-11 13 -39 22l-56 13l-122 7q-105 -1 -250 -16q-247 -28 -498 -82h-1q-10 -2 -18 -2q-40 0 -50 47q-2 10 -2 18q0 40 46 51h4q290 40 512 53q104 6 188 6 q37 0 70 -1l132 -13l67 -18l34 -16l33 -29q16 -21 18 -46q1 -22 -7 -45q-12 -29 -40 -62l-48 -47l-47 -43l-196 -164l-198 -161l-194 -163q-96 -84 -185 -174q-108 -112 -152 -194q-22 -41 -22 -67q0 -16 8 -27q19 -30 92 -38l60 -4l63 1l127 3q219 7 505 35l257 20l134 1 q76 -4 141 -22q55 -15 55 -61q0 -13 -4 -28q-15 -55 -61 -55q-13 0 -28 4l-8 3q-76 29 -228 36l-125 2l-127 -3l-255 -5h-256l-128 4l-64 3l-67 7l-68 18q-43 18 -62 50q-14 23 -14 51q0 14 4 30z" />
<glyph unicode="a" horiz-adv-x="738" d="M19 262q0 -55 14 -99q17 -47 56 -83q56 -52 160 -72q47 -8 100 -8q32 0 67 3q94 7 159 56q70 52 105 139h1q2 7 0 13q-3 7 -9 9q-6 3 -12 0q-6 -2 -9 -9q-31 -82 -93 -126q-32 -23 -69 -33q-29 -9 -76 -12q-16 -1 -31 -1q-63 0 -123 16q-83 22 -128 73q-22 25 -32 59 q-6 25 -6 56v16q2 74 55 118q48 41 132 57q33 6 77 8q15 1 28 1q27 0 49 -3q74 -7 136 -59q12 -10 29 -27q10 -9 25 -29q25 -40 35 -71q0 -2 1 -4l1 -3v-2l1 2v-1l-1 -2l1 -2v-2q1 -2 0 -1v1l-1 1q0 1 8 -15q8 -3 15 -1q6 3 11 8q1 3 3 5q1 2 1 3q1 1 0 1q0 -1 -1 -3v1v2 q1 8 2 23q1 21 1 44v22q0 33 -2 66q-7 101 -31 175q-15 48 -38 83q-13 21 -30 37q-15 16 -35 30q-69 48 -161 66q-51 10 -101 10q-36 0 -71 -5q-93 -15 -166 -66l-2 -1l-4 -3q-14 -12 -16 -32t9 -35q12 -15 30 -18q19 -2 33 11q54 46 130 64q44 11 90 11q28 0 58 -4 q81 -11 142 -48q55 -30 87 -118q25 -66 35 -161q3 -29 4 -61l-9 15q-7 11 -13 19q-8 10 -15 17q-17 19 -30 31q-36 33 -71 51q-36 20 -83 28q-35 6 -84 8h-17q-34 0 -68 -3q-102 -10 -167 -59q-41 -30 -63 -78q-22 -47 -23 -99z" />
<glyph unicode="b" horiz-adv-x="891" d="M25 123l1 1q0 2 1 4q-1 -1 -1 -2v2l1 4l1 9l2 17l5 36l9 70l18 141l18 141l19 141q12 92 18 140q4 43 5 69l1 34l-1 36l1 71l1 71v80v63q0 39 42 39h2q41 0 41 -39v-2q-1 -52 -6 -143l-4 -71l-3 -70l-1 -35l-2 -38q-2 -29 -9 -72q-8 -51 -24 -141l-52 -280l-15 -81 q12 25 26 49q34 60 74 110q49 61 99 95q29 21 60 35q34 16 71 25q36 10 87 10q28 0 60 -3l18 -2l8 -2h2l6 -1q21 -3 40 -10q35 -12 68 -34q62 -41 98 -107q35 -61 37 -135v-11q0 -27 -4 -58q-2 -18 -6 -34q-5 -14 -16 -35q-33 -55 -87 -105q-58 -53 -118 -77 q-86 -28 -188 -28q-43 0 -90 5q-33 4 -69 10q-9 2 -17 4q-11 2 -19 6q-16 6 -33 15q-67 38 -108 90q-14 17 4 30q19 13 33 -4v-1q35 -46 93 -80q14 -8 27 -13q11 -5 28 -7q34 -7 66 -10q41 -5 81 -5q25 0 50 2q31 2 64 8l17 3l16 4q14 3 28 9q52 21 102 69q48 47 77 97 q7 13 10 24q3 10 4 29q3 29 -1 59q-7 56 -42 106q-32 44 -83 79q-27 16 -51 26q-15 6 -25 8l-3 1l-6 1l-9 2l-15 3q-41 9 -80 9q-65 0 -123 -25q-18 -7 -36 -18q-48 -28 -94 -82q-41 -46 -76 -102q-69 -114 -91 -228v-2q-1 -1 -1 -3v-1q0 -2 -5 -7t-9 -4l-5 1q-14 2 -12 15z " />
<glyph unicode="c" d="M18 375q-4 30 -4 58q0 111 63 194q71 98 219 145q60 19 130 24q23 2 44 2q50 0 92 -10l37 -12l38 -24l18 -24l9 -34l-5 -32l-12 -25l-28 -33l-30 -25q-22 -16 -59 -37v-1q-18 -11 -34 -11q-28 0 -47 33q-11 18 -11 34q0 27 33 46l10 5l52 20q25 12 37 24q3 4 4 1l1 -1 q-6 11 -35 21q-55 19 -119 19q-53 0 -111 -13q-130 -28 -201 -116q-60 -74 -60 -179q0 -22 3 -45q15 -143 81 -224q76 -97 203 -104q16 -1 31 -1q98 0 199 48q120 59 170 149q16 27 39 27q13 0 29 -9q28 -15 28 -39q0 -13 -9 -29l-6 -8q-85 -99 -225 -151q-102 -38 -199 -38 q-31 0 -62 4q-147 19 -227 128q-72 94 -86 243z" />
<glyph unicode="d" horiz-adv-x="895" d="M81 470q25 39 67 70q38 29 79 50q83 42 167 43q9 0 18 -1q88 -4 185 -48q69 -32 161 -91q27 -18 27 -41q0 -15 -11 -32q-18 -27 -41 -27q-15 0 -32 11l-7 5q-74 68 -135 103q-80 48 -151 56q-16 2 -33 2q-65 0 -125 -29q-37 -16 -73 -41t-57 -56q-38 -57 -39 -126 q0 -14 2 -28q8 -85 62 -150q53 -64 136 -86q41 -11 86 -11q39 0 80 8q83 16 161 56q75 41 120 114q66 107 66 279q0 25 -1 51q-7 153 -64 342q-59 184 -133 322v1q-8 16 -8 29q0 25 29 40q16 9 29 9q24 0 40 -30l4 -7q29 -84 54 -174l45 -174q45 -197 50 -356v-31 q0 -82 -13 -150q-19 -100 -64 -173q-51 -81 -135 -127q-83 -44 -172 -62q-47 -10 -92 -10q-49 0 -93 12q-96 25 -159 100q-81 98 -81 198q0 79 51 160z" />
<glyph unicode="e" horiz-adv-x="844" d="M18 241q-6 39 -6 75q0 84 34 150q48 94 144 176q71 60 197 112q64 26 110 34l61 4q36 -2 66 -18l4 -2l1 -2q21 -20 32 -42q12 -27 8 -57q-5 -26 -20 -50l-29 -38l-66 -58l-69 -49q-65 -41 -154 -78q-92 -37 -167 -52q-8 -2 -15 -2q-38 0 -48 45q-2 9 -2 17q0 38 44 46 l7 1q63 5 150 32q86 26 144 58l67 42l61 46q29 27 35 50q5 22 -19 47l6 -4q-19 12 -55 12q-16 0 -34 -2q-40 -5 -101 -26q-124 -46 -188 -98q-92 -74 -139 -160q-32 -59 -32 -138q0 -31 5 -66q9 -108 105 -170q65 -41 135 -41q32 0 65 8l107 22q47 11 101 35q51 23 94 51 l42 30l15 17q7 9 2 8q16 30 41 30q13 0 29 -8q30 -16 30 -41q0 -13 -8 -29q-4 -4 -7 -9l-7 -8l-4 -4l-17 -12l-29 -15l-56 -22l-107 -36l-55 -16l-56 -13l-109 -19q-34 -4 -62.5 -4t-53.5 4q-55 10 -108 44l-45 36q-22 21 -37 48q-25 44 -37 109z" />
<glyph unicode="f" horiz-adv-x="608" d="M19 379q5 -37 42 -32l207 25l21 -232q13 -157 13 -254v-11q0 -61 -10 -111l-16 -55l-12 -21l-5 -7h-1l-2 -2q-33 -19 -16 -53q12 -26 34 -26q10 0 22 6l10 7l6 5l9 10l12 19l14 37l13 70q2 28 2 61t-2 73l-14 129l-17 127l-29 231l73 8l52 6l50 3h2q14 0 16 15 q1 15 -15 17l-55 2h-52l-76 -1l-18 228q-3 60 -3 112q0 81 7 140q4 37 12 57l12 21l19 20q41 40 98 54q29 7 59 7q79 0 160 -50l48 -33q24 -20 33 -37q8 -15 4 -24l-9 -11l-7 -6l-7 -4l-7 -4q-25 -14 -25 -36q0 -12 9 -27q15 -25 36 -25q13 0 28 9l3 2q19 11 36 29 q18 20 25 43q9 27 4 54q-5 23 -19 44q-19 28 -55 55l-59 37q-93 50 -181 50q-47 0 -93 -14q-71 -21 -120 -74l-23 -28l-18 -35q-8 -26 -11 -69l1 -131l8 -128l21 -226l-207 -4h-4q-37 -5 -33 -42z" />
<glyph unicode="g" horiz-adv-x="728" d="M1 -212q8 65 41 127q28 57 77 109l49 46q31 26 56 41q16 10 30 10q23 0 39 -27q10 -16 10 -29q0 -23 -27 -39l-7 -4q-20 -7 -48 -24l-45 -33q-44 -37 -75 -84q-31 -48 -43 -103q-4 -16 -4 -32q0 -21 6 -42q7 -27 23 -43q17 -16 42 -19h10q42 0 96 29q90 54 170 165 q52 80 77 225q10 64 15 138q-55 -32 -120 -35h-16q-58 0 -114 25q-60 27 -108 78l-41 53l-17 28l-14 33q-11 33 -11 68q0 36 12 73q20 61 70 118q89 99 223 141q64 20 128 20h6q72 0 136 -27l2 -1q28 -13 28 -37q0 -10 -5 -23v-1q21 -17 32 -47q9 -28 9 -59v-12l-8 -65 q-13 -60 -35 -121q-38 -104 -102 -167q-13 -104 -33 -187l-33 -121q-24 -68 -55 -115q-83 -119 -178 -178q-65 -40 -119 -40h-8q-40 2 -69 28q-27 23 -40 62q-13 41 -13 77q0 11 1 21zM123 400l9 -24l13 -25l32 -46q38 -44 88 -70q52 -27 107 -27h4q54 0 104 28q8 4 15 9 q1 28 2 58q1 26 1 49q0 56 -4 90l-2 23l-3 27q-3 37 -5 90l-1 66q6 42 39 65q-22 4 -46 4q-46 0 -97 -14q-114 -31 -192 -112q-71 -72 -71 -145q0 -23 7 -46zM554 300q38 48 63 119q23 67 28 117q2 19 2 36q0 42 -14 71q-13 25 -34 25q-12 0 -26 -8l-11 -10l-3 -9l4 -56 q2 -38 2 -79q0 -95 -11 -206z" />
<glyph unicode="h" horiz-adv-x="677" d="M28 182l3 177l8 177l21 353l20 353q3 48 48 48h6q50 -2 48 -53l-1 -6q-55 -318 -90 -699q-19 -206 -22 -350l1 -87l5 -41l4 -16l11 16l20 38l35 80l67 164l70 162l40 80q25 44 51 76l36 33q23 17 49 20q28 4 55 -10q22 -11 41 -31q33 -36 54 -78q21 -45 27 -91 q2 -20 3 -42q0 -65 -23 -142l-30 -85l-32 -81q-18 -52 -19 -79q-1 -35 25 -50q24 -14 10 -37q-14 -24 -37 -10l-1 1q-28 18 -39 44q-11 25 -8 56q4 36 25 91l34 82l31 81q21 64 21 119q0 24 -4 45q-14 77 -72 144q-26 31 -54 31h-3q-29 -2 -63 -36q-51 -50 -97 -141 q-35 -67 -71 -160l-61 -166l-31 -83l-19 -41l-13 -21l-9 -11l-8 -5l-12 -5l-16 4l-10 8l-7 14l-7 25l-6 46z" />
<glyph unicode="i" horiz-adv-x="311" d="M12 187v-25q0 -81 17 -143v-2q10 -23 39 -15t19 31q-25 58 -26 152q1 79 17 159l40 157q28 88 59 153l2 6q8 34 -35 40q-7 1 -12 1q-32 0 -40 -28l-35 -162l-31 -161zM100 870q0 -80 80 -80t80 80q0 79 -80 79t-80 -79z" />
<glyph unicode="j" horiz-adv-x="404" d="M-99 -201q-1 -12 -1 -24q0 -63 27 -109q15 -29 43 -50q26 -20 54 -31q31 -12 62 -12q28 0 56 9q112 36 176 164l12 29l10 31l13 64q1 12 1 26q0 42 -9 103q-7 39 -16 122q-17 144 -17 291q0 92 7 186l-21 1l-48 -6q0 -114 9 -230q9 -132 28 -250q7 -46 12 -62l5 -19 q4 -15 9 -41q12 -55 12 -97q0 -11 -1 -21q-3 -56 -31 -112q-56 -115 -158 -145q-22 -7 -44 -7q-29 0 -56 12q-55 23 -78 66q-18 34 -18 77q0 14 2 30q8 57 38 105q31 50 71 70q22 11 41 11l19 -3l9 -4l11 -5l4 -1q36 -12 47 28q3 9 3 17q0 26 -28 35l-7 3l-9 2l-18 4l-36 -1 q-35 -5 -65 -25q-51 -34 -85 -102q-30 -64 -35 -129zM232 698q0 -57 55 -57t55 57q0 58 -55 58t-55 -58z" />
<glyph unicode="k" horiz-adv-x="594" d="M17 20q-2 -25 22 -27q25 -3 28 22l5 73l2 71l5 142v1q55 -22 126 -59q76 -42 122 -74q72 -50 112 -88q59 -53 91 -104l3 -5q21 -23 45 -2q23 21 2 45q-45 50 -112 100q-66 48 -123 81l-128 70l-104 51l99 53l122 71q71 44 118 83l54 53l24 36l10 23l2 16v16l-1 3l-2 6 q-11 26 -32 26q-9 0 -20 -5q-32 -13 -22 -47l-2 -7l-13 -25l-40 -49q-40 -41 -103 -90l-114 -79l-113 -68l10 251l13 283l17 283v5q-3 37 -37 37h-5q-37 -3 -37 -37v-5l13 -283l5 -283l-7 -282q-11 -186 -34 -278v-1z" />
<glyph unicode="l" horiz-adv-x="204" d="M14 176l3 153l28 304l39 303l40 304q5 39 53 39h9q51 -4 51 -38q0 -4 -1 -9l-1 -8q-51 -138 -75 -241q-38 -147 -63 -299q-28 -165 -31 -302l7 -151v-11q0 -140 24 -186q13 -22 -16 -31q-31 -10 -43 13l-1 3q-22 64 -23 157z" />
<glyph unicode="m" horiz-adv-x="1007" d="M24 161l2 -70l4 -36l4 -18l6 -20l5 -8l7 -6l13 -4l13 3l6 4l6 6l10 19l13 34l5 16l15 51l50 181l11 40l7 26l6 19l4 13q51 159 92 244l33 59q23 33 42 43q18 9 41 -13q22 -20 38 -51q39 -78 39 -206v-19l-1 -34l-17 -134l-16 -65l-9 -32l-10 -25l-2 -4v-2q-11 -24 14 -33 q26 -10 36 13l1 2v-1q61 141 141 271l2 3q43 71 90 125q31 35 55 51q16 11 27 12q10 1 18 -8l9 -12l8 -16l12 -35l18 -72l14 -150l-3 -151l-7 -75l-5 -37l-3 -17l-2 -9q-5 -11 -5 -20q0 -23 31 -34q12 -4 21 -4q25 0 37 28l3 12l1 7l1 11l1 60l-2 78l-11 155l-24 154l-22 77 l-16 37l-10 19l-14 19l-24 17l-31 4q-21 -3 -47 -20q-27 -19 -61 -58l-49 -64l-45 -65l-6 -9q-28 -45 -63 -105l11 100q0 11 1 21v12q0 152 -48 246q-20 36 -47 61l-15 13l-22 11q-27 9 -52 -6l-34 -27l-22 -30l-35 -64q-38 -83 -86 -241l-7 -22l-11 -36l-11 -40l-17 -57 l-40 -132l-4 -13l-17 -51l-1 -2l-1 18l2 67q8 116 38 270q25 137 61 268l2 11v5q0 52 -59 55h-6q-56 0 -59 -54l-18 -277z" />
<glyph unicode="n" horiz-adv-x="872" d="M27 382l5 -187l13 -94l13 -47l25 -46l12 -7q17 -2 19 15q7 46 15 88q32 173 82 314q41 113 89 183q66 99 137 99h9l43 -12l21 -11l20 -13q39 -27 68 -67q54 -71 80 -179q19 -80 27 -200l6 -105l5 -55l6 -32l8 -20l8 -12l15 -15q16 -10 29 -10q20 0 36 23q11 16 11 29 q0 19 -20 34q1 -1 1 0l-6 19l-8 48l-14 103q-16 126 -42 211q-36 120 -98 195q-37 45 -84 75l-25 14l-25 13q-29 12 -59 13h-10q-53 0 -101 -38q-38 -30 -73 -84q-46 -73 -88 -194q-30 -86 -57 -203l-18 -93l-10 -55q-4 14 -6 29l-5 89l8 181q17 170 52 361l1 4v9 q0 37 -40 41q-4 1 -9 1q-37 0 -41 -41q-21 -196 -25 -371z" />
<glyph unicode="o" horiz-adv-x="946" d="M23 359q-4 28 -4 55q0 136 113 245q114 113 284 135l79 4l79 -4q92 -11 158 -43q87 -44 133 -115q49 -76 50 -177v-2q-3 -178 -128 -315q-124 -136 -292 -142h-16q-155 0 -284 91q-150 106 -172 268zM57 364q10 -72 55 -136q40 -57 106 -99q102 -63 219 -63q26 0 53 3 q135 16 231 136q43 52 69 120q27 69 26 135v-1v8q0 133 -124 200q-104 58 -255 58h-15q-156 -7 -262 -99q-58 -53 -85 -117q-21 -52 -20 -106q-1 -19 2 -39z" />
<glyph unicode="p" horiz-adv-x="830" d="M38 742l53 -372l47 -372q17 -157 19 -238l-1 -92l-2 -20q-12 12 -25 4q-19 -10 -9 -29l7 -12l11 -13l12 -8q12 -5 23 1l13 12l4 9l8 28l3 25l3 95l1 48l1 51v20q0 59 -5 125l-31 375l-4 45l8 11l1 1q46 95 108 165q77 88 152 109q25 7 50 7q19 0 38 -4q40 -10 82 -42 q79 -62 121 -152q27 -56 27 -111q0 -38 -13 -76q-27 -87 -114 -156q-40 -31 -84 -51q-49 -22 -86 -22h-6l-209 1q-23 0 -22 -22q0 -22 22 -22l209 1h4q47 0 105 25q49 22 94 57q95 75 130 175q17 47 17 95q0 63 -29 126q-21 47 -57 95q-39 50 -75 80q-49 41 -101 56 q-30 8 -61 8q-28 0 -58 -7q-95 -24 -191 -119l-75 -86l-17 188v3q-7 42 -44 42q-6 0 -13 -1q-42 -6 -42 -43q0 -6 1 -13z" />
<glyph unicode="q" horiz-adv-x="807" d="M60 327q10 55 29 100q40 93 121 168q72 68 169 119q97 50 195 79q13 4 24 4q37 0 50 -44q4 -13 4 -24q0 -37 -45 -50l-12 -2q-38 -3 -90 -16l-90 -27q-96 -36 -164 -87q-80 -62 -120 -140q-38 -75 -38 -140q0 -19 3 -37q9 -45 45 -73q33 -26 83 -37q35 -7 74 -7 q54 0 115 13q57 12 88 29l77 48l12 72l36 195q16 63 35 99l9 13l15 13l14 5l16 -2l13 -6l8 -8l17 -28l9 -26q16 -52 16 -99q0 -60 -26 -112q-38 -77 -140 -142l-16 -102q-12 -82 -18 -157l-4 -59l-3 -50l-5 -97v-47l1 -14q5 -5 9 -13q16 -33 -17 -49l-10 -4h-14l-14 5l-9 7 l-8 11l-3 8l-4 19l-1 29l2 51l11 100q5 33 19 109l14 70l15 87l12 71l-51 -29q-36 -18 -98 -31q-59 -11 -112 -11q-48 0 -91 9q-58 13 -96 42q-45 34 -58 90q-7 26 -7 57q0 23 4 48zM620 234q60 50 83 107q17 43 17 85l-4 45l-7 45q-5 25 -10 35l-4 -5q-24 -30 -37 -83 l-32 -193z" />
<glyph unicode="r" horiz-adv-x="895" d="M14 197q0 79 14 187l30 185l39 183q9 37 41 37q8 0 16 -2q37 -9 37 -41q0 -8 -2 -16l-2 -5q-65 -176 -104 -351q-23 -102 -31 -179l-1 -89q2 -22 7 -39q24 129 60 238q50 155 131 265q49 66 111 106q68 45 148 55q24 3 48 3q117 0 258 -66q33 -16 33 -43q0 -13 -7 -29 q-16 -34 -44 -34q-13 0 -28 7l-7 4q-127 86 -239 86h-8q-125 -1 -228 -119q-77 -86 -138 -246q-50 -144 -64 -278l-1 -3q-3 -16 -19 -13l-10 7l-23 47l-11 48z" />
<glyph unicode="s" horiz-adv-x="798" d="M20 203q11 28 34 28q10 0 22 -5l9 -4v-1q93 -67 207 -124l111 -46l56 -14q33 -6 49 3l8 13l-1 23l-20 55l-55 107l-63 104l-66 103l-64 107l-27 59l-11 34q-5 21 -3 42l8 27l20 25l6 5l3 2l10 5l16 8l64 22q55 15 128 20q24 2 47 1q42 0 84 -5l67 -15l34 -14l18 -10 q5 -3 17 -12l18 -20q11 -15 13 -36q2 -20 -8 -38l-18 -23l-34 -23l-31 -15q-61 -23 -126 -33q-33 -5 -38 28q-5 28 22 37l1 1l55 19l52 23q18 9 29 16q-28 17 -84 25q-36 5 -84 5h-29q-56 -1 -114 -12l-53 -14l-11 -5l-3 -2h-2l-2 -1q-4 -14 5 -45l19 -53l53 -108l115 -216 l54 -112l21 -60l2 -38q-3 -24 -25 -36l-37 -10l-34 1l-62 13l-119 39l-115 46l-115 48q-28 12 -28 35q0 9 5 21zM282 678l2 1h-1z" />
<glyph unicode="t" horiz-adv-x="803" d="M-29 711q1 -15 16 -14l344 10l-2 -17l-38 -329l-23 -164l-13 -81l-8 -40l-4 -20l-2 -9l-2 -6l-2 -4q-8 -26 18 -35t35 18v1l4 13l2 11l4 21l6 42l11 82l22 165l46 328l4 25l145 -2q113 -4 178 -13l5 -1h4q45 0 47 47v5q0 43 -46 46q-26 1 -58 2q-56 0 -131 -5l-134 -11 l35 234l53 328v5v7q0 43 -46 46h-6q-45 0 -47 -47l-26 -330l-24 -249l-354 -43q-14 -2 -13 -16z" />
<glyph unicode="u" horiz-adv-x="798" d="M22 279q4 99 43 229q33 113 81 217q14 32 46 18q32 -15 17 -46v-2q-121 -238 -136 -418q-1 -18 -1 -34q0 -107 57 -156q50 -44 143 -44q27 0 57 4q121 14 202 75q84 63 119 176q27 86 27 179q0 17 -1 35l-11 108l-11 53l-7 26l-4 11l-3 7l2 -5q-8 16 -8 30q0 27 32 43 q16 8 30 8q27 0 43 -33l3 -8l1 -3l2 -6l1 -9l2 -15l3 -31l2 -60l-4 -118q-14 -138 -54 -230q-52 -119 -144 -186q-92 -68 -217 -83q-39 -6 -73 -6q-24 0 -46 3q-70 9 -114 45q-48 39 -67 106q-12 46 -12 103v17z" />
<glyph unicode="v" horiz-adv-x="649" d="M20 695q-4 11 -4 20q0 25 30 36q11 4 21 4q25 0 36 -30l2 -11q19 -194 80 -416q34 -122 70 -199l24 -45l15 -19l14 -11h3l5 3l5 3l21 15l36 34q50 58 67 188l9 103l4 106l4 106l11 109l6 30l12 32l14 18l22 14l22 5h19q62 -6 114 -27q32 -13 19 -45q-13 -31 -44 -19l-3 1 q-42 18 -92 23h-11l-3 -3q-6 -11 -12 -40l-13 -102l-7 -105q-8 -132 -24 -214q-30 -137 -90 -202l-42 -37l-23 -15l-6 -3l-8 -4q-10 -5 -22 -2l-17 9l-11 11l-18 23l-25 49l-40 100l-35 100l-66 204z" />
<glyph unicode="w" horiz-adv-x="1099" d="M32 125q-6 26 -6 58q0 63 24 146q26 84 75 184q48 96 97 174q15 23 35 23q13 0 27 -9q23 -15 23 -35q0 -13 -9 -27l-2 -4q-132 -170 -192 -324q-31 -82 -31 -141q0 -19 3 -35q8 -44 40 -70q31 -24 81 -31q13 -2 26 -2q71 0 139 57q47 40 83 97q-14 49 -18 106l4 103 q8 61 32 104l19 26q14 14 34 23l20 4l28 -4l23 -17l11 -20l7 -33v-29l-8 -53q-22 -93 -79 -186q-6 -10 -12 -19q9 -38 26 -70q46 -91 128 -103q12 -2 24 -2q65 0 147 44q82 45 119 123q32 66 32 156v15q-5 164 -99 350l-1 2q-8 16 -8 30q0 27 33 44q17 8 30 8q27 0 44 -32 l2 -4q37 -90 60 -195q21 -99 21 -178q0 -13 -1 -25q-4 -118 -52 -203q-52 -94 -155 -142q-86 -39 -161 -39q-21 0 -42 3q-58 8 -100 40q-41 30 -70 81q-11 19 -19 39q-38 -45 -78 -75q-45 -34 -90 -49q-38 -12 -76 -12l-28 2q-60 8 -99 35q-47 32 -61 91zM492 295 q0 -9 1 -18q29 67 40 132l6 43q0 19 -2 29l-5 -4l-9 -13q-16 -26 -25 -79z" />
<glyph unicode="x" horiz-adv-x="895" d="M10 45q-21 -23 1 -46q22 -22 44 1l93 96l97 91l137 120l58 -90l153 -217l83 -104l45 -49l53 -44q14 -9 24 6q9 15 -5 25l-1 1q-33 24 -86 90l-77 105l-141 222l-57 97l14 13q224 192 411 336l5 5q20 20 20 40q0 19 -18 39q-19 21 -38 21q-18 0 -37 -19 q-159 -164 -381 -375l-7 -7l-173 310l-1 2q-13 22 -31 22q-11 0 -25 -9q-21 -14 -21 -34q0 -12 8 -26l194 -312l-138 -128l-200 -179z" />
<glyph unicode="y" horiz-adv-x="728" d="M-148 -387q-15 -28 16 -42q31 -13 46 15q61 114 162 277l87 136l91 133q120 171 193 259l106 120l57 53l28 22l9 5q46 7 52 48q1 7 1 13q0 45 -55 52h-16l-7 -1l-10 -2l-13 -5l-16 -9l-23 -17l-34 -33l-57 -66l-98 -134l-178 -272l-2 -4q-31 35 -52 108q-18 66 -26 159 l-5 163l8 162v4q0 45 -49 45q-50 0 -50 -45l8 -169l22 -167q18 -96 44 -165l40 -79q18 -28 41 -48l-148 -240l-171 -274z" />
<glyph unicode="z" horiz-adv-x="789" d="M26 118l6 29q14 40 54 91q111 135 296 272q132 99 249 175q-102 12 -185 13h-19q-65 0 -115 -6l-62 -12l-26 -10l-10 -5q-20 -20 -41 -20t-42 22q-20 20 -20 41t22 41l6 6l4 3l7 4l12 6l23 9l41 11l78 8h27q55 0 121 -6q123 -13 283 -50l3 -1q32 -7 25 -40 q-4 -14 -17 -21q-211 -136 -327 -219l-156 -118q-99 -77 -145 -129q-39 -46 -49 -77q-3 -10 -3 -18q0 -25 30 -35l42 -9l48 -2l98 -3q108 0 195 9l95 13l49 9l14 2h31l16 -6l17 -10l11 -13q9 -15 9 -28q0 -20 -22 -34q-33 -22 -55 4h-10l-49 -6l-102 -6h-34q-77 0 -167 7 l-100 10l-51 6l-53 16q-34 16 -46 44z" />
<glyph unicode="&#xa1;" horiz-adv-x="251" d="M30 1026q-1 82 72 83q72 2 74 -80q1 -83 -72 -84q-72 -1 -74 81zM30 1026q-1 82 72 83q72 2 74 -80q1 -83 -72 -84q-72 -1 -74 81zM72 -311l27 504l10 252l3 126l-1 62l-1 31l-3 29v1q-3 14 11 17q13 2 16 -11l6 -33l3 -32l4 -64l5 -126l4 -253l2 -506q0 -43 -43 -43 t-43 43v3z" />
<glyph unicode="&#xbf;" horiz-adv-x="598" d="M50 144q-2 117 18 191q17 59 48 92q40 44 101 36q44 -4 95 -32q42 -24 78 -56q12 -10 2 -22l-12 -5l-10 2l-5 5l-5 7l-4 10l-4 19l-4 35l-4 69l-1 137q0 15 16 15t15 -16l1 -135l4 -67l4 -33l3 -15l2 -5l-2 2l-6 1l-10 -28q-87 68 -156 72q-41 2 -65 -27q-22 -25 -33 -73 q-14 -68 -7 -177q7 -93 24 -179q21 -105 54 -164q22 -39 47 -54q25 -14 54 -4q60 21 106 104q21 38 26 71q3 18 0 27l-1 4v-1q-44 28 -17 72q28 45 72 17q20 -12 33 -34q11 -19 14 -39q4 -29 -3 -65q-11 -49 -42 -100q-29 -46 -66 -81q-48 -43 -97 -58q-32 -9 -63 -5 q-33 5 -60 24q-42 28 -71 86q-35 71 -53 188q-13 91 -16 189zM282 1021v9l2 12l5 21l22 39q16 20 39 30q26 13 52 8l6 -2l5 -1l13 -6l18 -14q13 -14 21 -33q11 -29 11 -66q-1 -38 -13 -66q-9 -19 -22 -32l-19 -14l-12 -5l-6 -1l-3 -1l-6 -1h-4l-4 -1l-16 2l-25 9 q-22 11 -38 31q-27 35 -26 82zM339 1020q2 84 62 83q61 -1 59 -85q-1 -84 -62 -83q-60 1 -59 85zM396 974l6 -2h-3l1 -2l3 -2l7 -1l17 8q17 16 17 43q1 27 -16 44q-7 8 -17 9q-8 0 -10 -5q-2 -12 -4 -49v2l1 -43z" />
<glyph unicode="&#x2000;" horiz-adv-x="722" />
<glyph unicode="&#x2001;" horiz-adv-x="1444" />
<glyph unicode="&#x2002;" horiz-adv-x="722" />
<glyph unicode="&#x2003;" horiz-adv-x="1444" />
<glyph unicode="&#x2004;" horiz-adv-x="481" />
<glyph unicode="&#x2005;" horiz-adv-x="361" />
<glyph unicode="&#x2006;" horiz-adv-x="240" />
<glyph unicode="&#x2007;" horiz-adv-x="240" />
<glyph unicode="&#x2008;" horiz-adv-x="180" />
<glyph unicode="&#x2009;" horiz-adv-x="288" />
<glyph unicode="&#x200a;" horiz-adv-x="80" />
<glyph unicode="&#x201c;" horiz-adv-x="701" d="M106 1101q-5 -43 6 -78q7 -26 23 -46q9 -12 20 -22l14 -11l8 -4l5 -3l3 -1l6 -2q80 -23 103 57q24 80 -56 104l4 -1l1 -1l2 -1l3 -2l2 -4l2 -5q-1 -3 -5 -1q-7 3 -13 23q-10 33 -4 88q5 45 18 99q11 48 29 102q1 4 -2 6q-5 4 -9 -1q-37 -45 -65 -85q-34 -50 -57 -95 q-31 -64 -38 -116zM402 1101q-5 -43 6 -78q7 -26 23 -46q9 -12 20 -22l14 -11l8 -4l5 -3l3 -1l6 -2q80 -23 103 57q24 80 -56 104l4 -1l1 -1l2 -1l3 -2l2 -4l2 -5q-1 -3 -5 -1q-7 3 -13 23q-10 33 -4 88q5 45 18 99q11 48 29 102q1 4 -2 6q-5 4 -9 -1q-37 -45 -65 -85 q-34 -50 -57 -95q-31 -64 -38 -116z" />
<glyph unicode="&#x201d;" horiz-adv-x="793" d="M105 1339q23 79 102 56l6 -2l3 -1l5 -3l8 -4l13 -10q11 -10 20 -22q16 -20 23 -45q11 -35 6 -77q-7 -52 -38 -115q-22 -44 -56 -93q-28 -40 -64 -84q-4 -5 -9 -1q-3 2 -2 6q18 54 29 100q13 54 17 98q6 54 -3 87q-6 19 -13 22q-4 2 -5 -1l2 -5l2 -3l3 -2l2 -1l1 -1l4 -1 q-79 23 -56 102zM505 1339q23 79 102 56l6 -2l3 -1l5 -3l8 -4l13 -10q11 -10 20 -22q16 -20 23 -45q11 -35 6 -77q-7 -52 -38 -115q-22 -44 -56 -93q-28 -40 -64 -84q-4 -5 -9 -1q-3 2 -2 6q18 54 29 100q13 54 17 98q6 54 -3 87q-6 19 -13 22q-4 2 -5 -1l2 -5l2 -3l3 -2 l2 -1l1 -1l4 -1q-79 23 -56 102z" />
<glyph unicode="&#x202f;" horiz-adv-x="288" />
<glyph unicode="&#x205f;" horiz-adv-x="361" />
<glyph unicode="&#x25fc;" horiz-adv-x="805" d="M0 0v805h805v-805h-805z" />
</font>
</defs>
</svg>
