<?xml version="1.0" standalone="no"?>
<!DOCTYPE svg PUBLIC "-//W3C//DTD SVG 1.1//EN" "http://www.w3.org/Graphics/SVG/1.1/DTD/svg11.dtd" >
<svg xmlns="http://www.w3.org/2000/svg" xmlns:xlink="http://www.w3.org/1999/xlink" version="1.1">
<metadata>
Created by FontForge 20170731 at Tue Nov  4 12:07:38 2008
 By Aleksey,,,
Copyright (c) 2008 by ShyFoundry. All rights reserved. Freeware for personal use only. To purchase a commercial license, please visit our site at http://www.shyfoundry.com.
</metadata>
<defs>
<font id="SFFourcheSC" horiz-adv-x="260" >
  <font-face 
    font-family="SF Fourche SC"
    font-weight="400"
    font-stretch="normal"
    units-per-em="1000"
    panose-1="2 0 5 3 0 0 0 2 0 4"
    ascent="800"
    descent="-200"
    x-height="600"
    cap-height="700"
    bbox="-39 -200 1332 975"
    underline-thickness="50"
    underline-position="-150"
    unicode-range="U+0020-FB02"
  />
<missing-glyph horiz-adv-x="500" 
 />
    <glyph glyph-name=".notdef" horiz-adv-x="500" 
 />
    <glyph glyph-name=".null" horiz-adv-x="0" 
 />
    <glyph glyph-name="nonmarkingreturn" horiz-adv-x="500" 
 />
    <glyph glyph-name="space" unicode=" " horiz-adv-x="500" 
 />
    <glyph glyph-name="space" unicode="&#xa0;" horiz-adv-x="500" 
 />
    <glyph glyph-name="exclam" unicode="!" 
d="M60 750h140l-20 -530h-100zM60 140h140v-140h-140v140z" />
    <glyph glyph-name="quotedbl" unicode="&#x22;" horiz-adv-x="440" 
d="M240 750h140l-30 -350h-80zM60 750h140l-30 -350h-80z" />
    <glyph glyph-name="numbersign" unicode="#" horiz-adv-x="680" 
d="M184 280h-124v80h133l12 120h-115v80h124l15 140h80l-15 -140h120l15 140h80l-15 -140h126v-80h-135l-12 -120h117v-80h-126l-14 -140h-80l15 140h-121l-14 -140h-80zM393 360l13 120h-121l-12 -120h120z" />
    <glyph glyph-name="dollar" unicode="$" horiz-adv-x="710" 
d="M65 120h250v170h-55q-49 0 -89 10.5t-68 34.5t-43 63.5t-15 96.5q0 58 15 97.5t43 63.5t68 34t89 10h55v100h80v-100h250v-120h-250v-170h55q49 0 89 -10.5t68 -34.5t43 -63.5t15 -96.5q0 -59 -15 -98t-43 -63t-68 -34t-89 -10h-55v-100h-80v100h-250v120zM315 410v170
h-35q-39 0 -67 -18.5t-28 -66.5q0 -47 28 -66t67 -19h35zM430 120q39 0 67 18.5t28 66.5q0 47 -28 66t-67 19h-35v-170h35z" />
    <glyph glyph-name="percent" unicode="%" horiz-adv-x="996" 
d="M238 329q-37 0 -69.5 10t-56.5 32.5t-38 59t-14 89.5t14 89t38 58.5t56.5 32.5t69.5 10q36 0 68.5 -10t56.5 -32.5t38.5 -58.5t14.5 -89t-14.5 -89.5t-38.5 -59t-56.5 -32.5t-68.5 -10zM608 700h90l-310 -700h-90zM238 405q19 0 35.5 5.5t29 18.5t20 35.5t7.5 55.5
t-7.5 55t-20 35t-29 18.5t-35.5 5.5q-20 0 -36.5 -5.5t-29 -18.5t-19.5 -35t-7 -55t7 -55.5t19.5 -35.5t29 -18.5t36.5 -5.5zM580 181q0 53 14 89t38 58.5t56.5 32.5t69.5 10q36 0 68.5 -10t56.5 -32.5t38.5 -58.5t14.5 -89t-14.5 -89.5t-38.5 -59t-56.5 -32.5t-68.5 -10
q-37 0 -69.5 10t-56.5 32.5t-38 59t-14 89.5zM666 181q0 -33 7 -55.5t19.5 -35.5t29 -18.5t36.5 -5.5q19 0 35.5 5.5t29 18.5t20 35.5t7.5 55.5t-7.5 55t-20 35t-29 18.5t-35.5 5.5q-20 0 -36.5 -5.5t-29 -18.5t-19.5 -35t-7 -55z" />
    <glyph glyph-name="ampersand" unicode="&#x26;" horiz-adv-x="700" 
d="M50 190q0 65 25.5 104.5t69.5 60.5q-35 22 -55 59.5t-20 95.5q0 54 17.5 90t48.5 58.5t71.5 32t87.5 9.5h245v-120h-245q-35 0 -60 -19t-25 -66q0 -48 25 -66.5t60 -18.5h105v-120h-125q-35 0 -60 -20.5t-25 -71.5q0 -27 6.5 -45t18 -28.5t27 -15t33.5 -4.5h45
q36 0 68 11t56.5 37.5t39 71t16.5 111.5v74h140v-410h-140v77q-43 -50 -101 -71t-124 -21q-47 0 -87.5 10t-71.5 34t-48.5 63.5t-17.5 97.5z" />
    <glyph glyph-name="quotesingle" unicode="'" 
d="M60 750h140l-30 -350h-80z" />
    <glyph glyph-name="parenleft" unicode="(" horiz-adv-x="380" 
d="M60 550q0 42 11 70.5t29.5 46.5t43.5 25.5t54 7.5h122v-90h-95q-19 0 -32 -12t-13 -45v-546q0 -33 13 -45t32 -12h95v-90h-122q-29 0 -54 7.5t-43.5 25.5t-29.5 46.5t-11 70.5v540z" />
    <glyph glyph-name="parenright" unicode=")" horiz-adv-x="380" 
d="M155 -50q19 0 32 12t13 45v546q0 33 -13 45t-32 12h-95v90h122q28 0 53.5 -7.5t44 -25.5t29.5 -46.5t11 -70.5v-540q0 -42 -11 -70.5t-29.5 -46.5t-44 -25.5t-53.5 -7.5h-122v90h95z" />
    <glyph glyph-name="asterisk" unicode="*" horiz-adv-x="586" 
d="M60 383l163 77l-163 77l50 86l148 -103l-15 180h100l-15 -180l148 103l50 -86l-163 -77l163 -77l-50 -86l-148 102l15 -179h-100l15 179l-148 -102z" />
    <glyph glyph-name="plus" unicode="+" horiz-adv-x="600" 
d="M60 350h190v190h100v-190h190v-100h-190v-190h-100v190h-190v100z" />
    <glyph glyph-name="comma" unicode="," 
d="M200 140l-30 -280h-80l-30 280h140z" />
    <glyph glyph-name="hyphen" unicode="-" horiz-adv-x="520" 
d="M60 355h400v-110h-400v110z" />
    <glyph glyph-name="period" unicode="." 
d="M60 140h140v-140h-140v140z" />
    <glyph glyph-name="slash" unicode="/" horiz-adv-x="460" 
d="M380 740h90l-390 -880h-90z" />
    <glyph glyph-name="zero" unicode="0" horiz-adv-x="800" 
d="M90 350q0 101 24.5 171t66.5 113t98.5 62t120.5 19t120.5 -19t98.5 -62t66.5 -113t24.5 -171t-24.5 -171t-66.5 -113t-98.5 -62t-120.5 -19t-120.5 19t-98.5 62t-66.5 113t-24.5 171zM400 105q35 0 66 11.5t54 39.5t36.5 75.5t13.5 118.5t-13.5 118.5t-36.5 75.5
t-54 39.5t-66 11.5t-66 -11.5t-54 -39.5t-36.5 -75.5t-13.5 -118.5t13.5 -118.5t36.5 -75.5t54 -39.5t66 -11.5z" />
    <glyph glyph-name="one" unicode="1" horiz-adv-x="380" 
d="M120 670l140 50v-720h-140v670z" />
    <glyph glyph-name="two" unicode="2" horiz-adv-x="820" 
d="M105 205q0 57 15 96.5t43 63.5t68 34.5t89 10.5h160q39 0 67 19t28 66q0 48 -28 66.5t-67 18.5h-355v120h375q49 0 89 -10t68 -34t43 -63.5t15 -97.5q0 -57 -15 -96.5t-43 -63.5t-68 -34.5t-89 -10.5h-160q-39 0 -67 -19t-28 -66v-85h460v-120h-600v205z" />
    <glyph glyph-name="three" unicode="3" horiz-adv-x="795" 
d="M110 120h365q35 0 60 18.5t25 66.5q0 47 -25 66t-60 19h-265v120h245q35 0 60 18.5t25 66.5q0 47 -25 66t-60 19h-345v120h345q46 0 87 -9.5t72 -32t48.5 -58.5t17.5 -90q0 -58 -20 -95.5t-55 -59.5q43 -21 69 -60.5t26 -104.5q0 -54 -17.5 -90t-48.5 -58.5t-72 -32
t-87 -9.5h-365v120z" />
    <glyph glyph-name="four" unicode="4" horiz-adv-x="850" 
d="M80 280l411 420h179v-440h100v-120h-100v-140h-140v140h-450v140zM530 260v303l-290 -303h290z" />
    <glyph glyph-name="five" unicode="5" horiz-adv-x="820" 
d="M105 120h375q39 0 67 20.5t28 74.5q0 52 -28 73.5t-67 21.5h-375v390h570v-120h-430v-150h255q49 0 89 -11t68 -36.5t43 -66.5t15 -101q0 -62 -15 -103t-43 -66t-68 -35.5t-89 -10.5h-395v120z" />
    <glyph glyph-name="six" unicode="6" horiz-adv-x="825" 
d="M90 350q0 97 23.5 164t64.5 108.5t96 59.5t117 18h297v-120h-277q-30 0 -56.5 -6.5t-48.5 -21.5t-39 -40t-26 -62h286q43 0 81 -10.5t66 -35t44.5 -65.5t16.5 -101q0 -66 -16.5 -111.5t-44.5 -73.5t-66 -40.5t-81 -12.5h-136q-62 0 -117 18t-96 59.5t-64.5 108
t-23.5 164.5zM230 331q2 -62 16.5 -102.5t39 -64.5t56.5 -34t69 -10h85q19 0 37 6.5t32 20.5t22 36.5t8 54.5q0 27 -8 44.5t-22 28.5t-32 15.5t-37 4.5h-266z" />
    <glyph glyph-name="seven" unicode="7" horiz-adv-x="725" 
d="M485 580h-400v120h570v-120l-360 -580h-180z" />
    <glyph glyph-name="eight" unicode="8" horiz-adv-x="830" 
d="M95 190q0 65 25.5 104.5t69.5 60.5q-35 22 -55 59.5t-20 95.5q0 54 17.5 90t48.5 58.5t71.5 32t87.5 9.5h150q46 0 87 -9.5t72 -32t48.5 -58.5t17.5 -90q0 -58 -20 -95.5t-55 -59.5q43 -21 69 -60.5t26 -104.5q0 -54 -17.5 -90t-48.5 -58.5t-72 -32t-87 -9.5h-190
q-47 0 -87.5 9.5t-71.5 32t-48.5 58.5t-17.5 90zM490 410q35 0 60 18.5t25 66.5q0 47 -25 66t-60 19h-150q-35 0 -60 -19t-25 -66q0 -48 25 -66.5t60 -18.5h150zM235 205q0 -48 25 -66.5t60 -18.5h190q35 0 60 18.5t25 66.5q0 47 -25 66t-60 19h-190q-35 0 -60 -19t-25 -66z
" />
    <glyph glyph-name="nine" unicode="9" horiz-adv-x="825" 
d="M137 120h277q30 0 56.5 6.5t48.5 21.5t39 40t26 62h-286q-43 0 -81 10.5t-66 35t-44.5 65.5t-16.5 101q0 66 16.5 111.5t44.5 73.5t66 40.5t81 12.5h136q62 0 117 -18t96 -59.5t64.5 -108.5t23.5 -164q0 -98 -23.5 -164.5t-64.5 -108t-96 -59.5t-117 -18h-297v120z
M595 369q-2 61 -17 101.5t-39.5 65t-56.5 34.5t-68 10h-85q-20 0 -37.5 -6.5t-31.5 -20.5t-22 -36.5t-8 -54.5q0 -27 8 -44.5t22 -28.5t31.5 -15.5t37.5 -4.5h266z" />
    <glyph glyph-name="colon" unicode=":" 
d="M60 460h140v-140h-140v140zM60 140h140v-140h-140v140z" />
    <glyph glyph-name="semicolon" unicode=";" 
d="M60 460h140v-140h-140v140zM200 140l-30 -280h-80l-30 280h140z" />
    <glyph glyph-name="less" unicode="&#x3c;" horiz-adv-x="596" 
d="M60 350l432 210l44 -90l-370 -170l370 -170l-44 -90l-432 210v100z" />
    <glyph glyph-name="equal" unicode="=" horiz-adv-x="600" 
d="M60 450h480v-100h-480v100zM60 250h480v-100h-480v100z" />
    <glyph glyph-name="greater" unicode="&#x3e;" horiz-adv-x="596" 
d="M60 130l370 170l-370 170l44 90l432 -210v-100l-432 -210z" />
    <glyph glyph-name="question" unicode="?" horiz-adv-x="670" 
d="M70 220q-3 28 -3 52q0 64 17.5 101.5t46 57t64 24.5t70.5 5h110q39 0 67 19t28 66q0 48 -28 66.5t-67 18.5h-295v120h315q49 0 89 -10t68 -34t43 -63.5t15 -97.5q0 -57 -15 -96.5t-43 -63.5t-68 -34.5t-89 -10.5h-130q-16 0 -30 -4t-24 -17t-15.5 -36.5t-5.5 -62.5h-120z
M60 140h140v-140h-140v140z" />
    <glyph glyph-name="at" unicode="@" horiz-adv-x="850" 
d="M60 350q0 76 28.5 142.5t78 116t116 78t142.5 28.5t142.5 -28.5t116 -78t78 -116t28.5 -142.5t-28.5 -142.5t-78 -116t-116 -78t-142.5 -28.5t-142.5 28.5t-116 78t-78 116t-28.5 142.5zM130 350q0 -61 23 -115t63 -94t94 -63t115 -23t115 23t94 63t63 94t23 115t-23 115
t-63 94t-94 63t-115 23t-115 -23t-94 -63t-63 -94t-23 -115zM253 282q0 32 8.5 53.5t23 34.5t34 18.5t41.5 5.5h145q0 38 -25.5 53t-61.5 15h-141v68h151q32 0 60 -7t49 -23t33.5 -42t12.5 -64v-224h-223q-22 0 -41.5 6t-34 19t-23 34.5t-8.5 52.5zM331 282q0 -24 13.5 -34
t31.5 -10h129v89h-129q-18 0 -31.5 -9.5t-13.5 -35.5z" />
    <glyph glyph-name="A" unicode="A" horiz-adv-x="735" 
d="M292 700h151l312 -700h-156l-59 140h-345l-59 -140h-156zM489 260l-122 286l-121 -286h243z" />
    <glyph glyph-name="B" unicode="B" horiz-adv-x="745" 
d="M60 700h405q46 0 87 -9.5t72 -32t48.5 -58.5t17.5 -90q0 -58 -20 -95.5t-55 -59.5q43 -21 69 -60.5t26 -104.5q0 -54 -17.5 -90t-48.5 -58.5t-72 -32t-87 -9.5h-425v700zM465 410q35 0 60 18.5t25 66.5q0 47 -25 66t-60 19h-265v-170h265zM485 120q35 0 60 18.5t25 66.5
q0 47 -25 66t-60 19h-285v-170h285z" />
    <glyph glyph-name="C" unicode="C" horiz-adv-x="640" 
d="M330 0q-62 0 -116.5 18.5t-95.5 59.5t-64.5 108t-23.5 164t23.5 164t64.5 108t95.5 59.5t116.5 18.5h260v-120h-240q-37 0 -70 -11t-57.5 -37.5t-38.5 -70.5t-14 -111t14 -111t38.5 -70.5t57.5 -37.5t70 -11h240v-120h-260v0z" />
    <glyph glyph-name="D" unicode="D" horiz-adv-x="730" 
d="M60 700h340q62 0 116.5 -18.5t95.5 -59.5t64.5 -108t23.5 -164t-23.5 -164t-64.5 -108t-95.5 -59.5t-116.5 -18.5h-340v700zM380 120q37 0 70 11t57.5 37.5t38.5 70.5t14 111t-14 111t-38.5 70.5t-57.5 37.5t-70 11h-180v-460h180z" />
    <glyph glyph-name="E" unicode="E" horiz-adv-x="650" 
d="M330 0q-62 0 -116.5 18.5t-95.5 59.5t-64.5 108t-23.5 164t23.5 164t64.5 108t95.5 59.5t116.5 18.5h260v-120h-240q-33 0 -62 -8.5t-52.5 -28t-40 -52t-22.5 -81.5h417v-120h-417q6 -49 22.5 -81.5t40 -52t52.5 -28t62 -8.5h240v-120h-260v0z" />
    <glyph glyph-name="F" unicode="F" horiz-adv-x="650" 
d="M50 370q0 92 23.5 155t64.5 102t95.5 56t116.5 17h260v-120h-240q-34 0 -64.5 -8.5t-54 -28t-39.5 -52t-20 -81.5h418v-120h-420v-290h-140v370z" />
    <glyph glyph-name="G" unicode="G" horiz-adv-x="730" 
d="M330 0q-62 0 -116.5 18.5t-95.5 59.5t-64.5 108t-23.5 164t23.5 164t64.5 108t95.5 59.5t116.5 18.5h340v-120h-320q-37 0 -70 -11t-57.5 -37.5t-38.5 -70.5t-14 -111t14 -111t38.5 -70.5t57.5 -37.5t70 -11h180v170h-140v120h280v-410h-340v0z" />
    <glyph glyph-name="H" unicode="H" horiz-adv-x="720" 
d="M60 700h140v-290h320v290h140v-700h-140v290h-320v-290h-140v700z" />
    <glyph glyph-name="I" unicode="I" 
d="M60 700h140v-700h-140v700z" />
    <glyph glyph-name="J" unicode="J" horiz-adv-x="510" 
d="M20 120h120q37 0 70 8t57.5 26.5t38.5 49t14 76.5v420h140v-420q0 -79 -25.5 -132.5t-69 -86.5t-101.5 -47t-124 -14h-120v120z" />
    <glyph glyph-name="K" unicode="K" horiz-adv-x="660" 
d="M60 700h140v-319l279 319h181l-312 -350l312 -350h-181l-279 319v-319h-140v700z" />
    <glyph glyph-name="L" unicode="L" horiz-adv-x="570" 
d="M50 700h140v-420q0 -46 14 -76.5t38.5 -49t57.5 -26.5t70 -8h180v-120h-180q-66 0 -124 14t-101.5 47t-69 86.5t-25.5 132.5v420z" />
    <glyph glyph-name="M" unicode="M" horiz-adv-x="899" 
d="M60 700h202l187 -519l188 519h202v-700h-137v491l-177 -491h-151l-174 491v-491h-140v700z" />
    <glyph glyph-name="N" unicode="N" horiz-adv-x="720" 
d="M60 700h180l280 -509v509h140v-700h-180l-280 509v-509h-140v700z" />
    <glyph glyph-name="O" unicode="O" horiz-adv-x="740" 
d="M30 350q0 101 26.5 171t72.5 113t108 62t133 19q69 0 131 -19t108.5 -62t73.5 -113t27 -171t-27 -171t-73.5 -113t-108.5 -62t-131 -19q-71 0 -133 19t-108 62t-72.5 113t-26.5 171zM370 105q41 0 77.5 11.5t63.5 39.5t43 75.5t16 118.5t-16 118.5t-43 75.5t-63.5 39.5
t-77.5 11.5q-42 0 -78.5 -11.5t-63.5 -39.5t-42.5 -75.5t-15.5 -118.5t15.5 -118.5t42.5 -75.5t63.5 -39.5t78.5 -11.5z" />
    <glyph glyph-name="P" unicode="P" horiz-adv-x="730" 
d="M60 700h405q48 0 91 -12t75 -39t50.5 -71t18.5 -108q0 -69 -18.5 -115t-50.5 -74t-75 -39.5t-91 -11.5h-265v-230h-140v700zM465 350q19 0 36.5 6t30.5 19.5t20.5 36.5t7.5 58q0 60 -28 85t-67 25h-265v-230h265z" />
    <glyph glyph-name="Q" unicode="Q" horiz-adv-x="740" 
d="M300 -10q-58 8 -107.5 32t-85.5 67.5t-56.5 107.5t-20.5 153q0 101 26.5 171t72.5 113t108 62t133 19q69 0 131 -19t108.5 -62t73.5 -113t27 -171q0 -88 -21 -152t-57 -107.5t-85.5 -68t-106.5 -32.5v-130h-140v130zM300 190h140v-76q28 9 52 26t41 45.5t27 69t10 95.5
q0 71 -16 118.5t-43 75.5t-63.5 39.5t-77.5 11.5q-42 0 -78.5 -11.5t-63.5 -39.5t-42.5 -75.5t-15.5 -118.5q0 -56 9.5 -96.5t27 -69t41 -45.5t52.5 -25v76z" />
    <glyph glyph-name="R" unicode="R" horiz-adv-x="745" 
d="M60 700h415q46 0 87 -11t72 -35.5t48.5 -65t17.5 -98.5q0 -51 -12 -88.5t-33.5 -63.5t-51 -41t-63.5 -22l159 -275h-162l-148 270h-189v-270h-140v700zM475 390q35 0 60 21.5t25 78.5q0 50 -25 70t-60 20h-275v-190h275z" />
    <glyph glyph-name="S" unicode="S" horiz-adv-x="710" 
d="M65 120h365q39 0 67 18.5t28 66.5q0 47 -28 66t-67 19h-170q-49 0 -89 10.5t-68 34.5t-43 63.5t-15 96.5q0 58 15 97.5t43 63.5t68 34t89 10h385v-120h-365q-39 0 -67 -18.5t-28 -66.5q0 -47 28 -66t67 -19h170q49 0 89 -10.5t68 -34.5t43 -63.5t15 -96.5q0 -59 -15 -98
t-43 -63t-68 -34t-89 -10h-385v120z" />
    <glyph glyph-name="T" unicode="T" horiz-adv-x="632" 
d="M246 580h-250v120h640v-120h-250v-580h-140v580z" />
    <glyph glyph-name="U" unicode="U" horiz-adv-x="740" 
d="M50 700h140v-410q0 -53 14 -88.5t38.5 -57t57 -30.5t70.5 -9q37 0 69.5 9t57 30.5t39 57t14.5 88.5v410h140v-410q0 -87 -25.5 -145.5t-69 -94t-101.5 -50.5t-124 -15t-124.5 15t-102 50.5t-68.5 94t-25 145.5v410z" />
    <glyph glyph-name="V" unicode="V" horiz-adv-x="735" 
d="M-20 700h156l231 -547l232 547h156l-312 -700h-151z" />
    <glyph glyph-name="W" unicode="W" horiz-adv-x="1004" 
d="M-10 700h149l157 -490l134 490h144l133 -490l158 490h149l-235 -700h-149l-128 471l-128 -471h-149z" />
    <glyph glyph-name="X" unicode="X" horiz-adv-x="660" 
d="M249 350l-249 350h170l160 -233l160 233h170l-249 -350l249 -350h-170l-160 232l-160 -232h-170z" />
    <glyph glyph-name="Y" unicode="Y" horiz-adv-x="660" 
d="M260 296l-270 404h170l170 -273l170 273h170l-270 -404v-296h-140v296z" />
    <glyph glyph-name="Z" unicode="Z" horiz-adv-x="690" 
d="M45 120l420 460h-420v120h600v-120l-420 -460h420v-120h-600v120z" />
    <glyph glyph-name="bracketleft" unicode="[" horiz-adv-x="380" 
d="M60 700h260v-90h-140v-660h140v-90h-260v840z" />
    <glyph glyph-name="backslash" unicode="\" horiz-adv-x="460" 
d="M-10 740h90l390 -880h-90z" />
    <glyph glyph-name="bracketright" unicode="]" horiz-adv-x="380" 
d="M200 -50v660h-140v90h260v-840h-260v90h140z" />
    <glyph glyph-name="asciicircum" unicode="^" horiz-adv-x="640" 
d="M60 268l210 432h100l210 -432l-90 -44l-170 370l-170 -370z" />
    <glyph glyph-name="underscore" unicode="_" horiz-adv-x="500" 
d="M510 -80v-80h-520v80h520z" />
    <glyph glyph-name="grave" unicode="`" horiz-adv-x="337" 
d="M60 767l48 65l169 -141l-30 -41z" />
    <glyph glyph-name="a" unicode="a" horiz-adv-x="633" 
d="M248 600h137l268 -600h-151l-50 116h-271q-11 -26 -25 -58t-25 -58h-151zM402 235q-11 27 -21.5 51l-21 48t-21 48.5l-22.5 52.5l-86 -200h172z" />
    <glyph glyph-name="b" unicode="b" horiz-adv-x="653" 
d="M60 600h345q41 0 77 -8.5t62.5 -28t42 -51.5t15.5 -79q0 -45 -15 -76.5t-39 -51.5q34 -20 52 -52.5t18 -85.5q0 -47 -15.5 -79t-42 -51.5t-62 -28t-76.5 -8.5h-362v600zM405 360q26 0 43.5 13t17.5 47t-17.5 47.5t-43.5 13.5h-209v-121h209zM422 119q25 0 42.5 13
t17.5 48q0 34 -17.5 47t-42.5 13h-226v-121h226z" />
    <glyph glyph-name="c" unicode="c" horiz-adv-x="564" 
d="M288 0q-53 0 -100 15.5t-82 51t-55.5 93t-20.5 140.5t20.5 140.5t55.5 93t82 51t100 15.5h226v-119h-209q-29 0 -54 -8.5t-44 -29.5t-30 -56t-11 -87t11 -87t30 -56t44 -29.5t54 -8.5h209v-119h-226v0z" />
    <glyph glyph-name="d" unicode="d" horiz-adv-x="640" 
d="M60 600h291q54 0 101 -15.5t82 -51t55.5 -93t20.5 -140.5t-20.5 -140.5t-55.5 -93t-82 -51t-101 -15.5h-291v600zM335 119q28 0 53.5 8.5t44.5 29.5t30 56t11 87t-11 87t-30 56t-44.5 29.5t-53.5 8.5h-139v-362h139z" />
    <glyph glyph-name="e" unicode="e" horiz-adv-x="574" 
d="M288 0q-53 0 -100 15.5t-82 51t-55.5 93t-20.5 140.5t20.5 140.5t55.5 93t82 51t100 15.5h226v-119h-209q-48 0 -85.5 -27t-49.5 -94h344v-120h-344q6 -34 19 -57t30.5 -37.5t39.5 -20.5t46 -6h209v-119h-226v0z" />
    <glyph glyph-name="f" unicode="f" horiz-adv-x="574" 
d="M50 317q0 79 20.5 133t55.5 87.5t82 48t101 14.5h225v-119h-208q-51 0 -88.5 -27t-47.5 -94h344v-120h-348v-240h-136v317z" />
    <glyph glyph-name="g" unicode="g" horiz-adv-x="640" 
d="M288 0q-53 0 -100 15.5t-82 51t-55.5 93t-20.5 140.5t20.5 140.5t55.5 93t82 51t100 15.5h292v-119h-275q-29 0 -54 -8.5t-44 -29.5t-30 -56t-11 -87t11 -87t30 -56t44 -29.5t54 -8.5h139v121h-116v120h252v-360h-292v0z" />
    <glyph glyph-name="h" unicode="h" horiz-adv-x="637" 
d="M60 600h136v-240h245v240h136v-600h-136v240h-245v-240h-136v600z" />
    <glyph glyph-name="i" unicode="i" horiz-adv-x="256" 
d="M60 600h136v-600h-136v600z" />
    <glyph glyph-name="j" unicode="j" horiz-adv-x="454" 
d="M20 119h109q28 0 53.5 6t44.5 20.5t30 38t11 58.5v358h136v-358q0 -69 -22 -115t-59.5 -74.5t-87.5 -40.5t-106 -12h-109v119z" />
    <glyph glyph-name="k" unicode="k" horiz-adv-x="589" 
d="M60 600h136v-246q25 28 52.5 59.5t56 63.5t56 63.5t51.5 59.5h177l-268 -300l268 -300h-177l-216 246v-246h-136v600z" />
    <glyph glyph-name="l" unicode="l" horiz-adv-x="505" 
d="M50 600h136v-358q0 -35 11 -58.5t30 -38t44.5 -20.5t54.5 -6h159v-119h-159q-56 0 -106.5 12t-88 40.5t-59.5 74.5t-22 115v358z" />
    <glyph glyph-name="m" unicode="m" horiz-adv-x="785" 
d="M60 600h183l149 -412l150 412h183v-600h-133v363l-131 -363h-138l-127 361v-361h-136v600z" />
    <glyph glyph-name="n" unicode="n" horiz-adv-x="637" 
d="M60 600h165l216 -393v393h136v-600h-165l-216 393v-393h-136v600z" />
    <glyph glyph-name="o" unicode="o" horiz-adv-x="643" 
d="M30 300q0 87 22.5 146.5t62 96t93 53t114.5 16.5q59 0 112 -16.5t92.5 -53t63 -96t23.5 -146.5t-23.5 -146.5t-63 -96t-92.5 -53t-112 -16.5q-61 0 -114.5 16.5t-93 53t-62 96t-22.5 146.5zM322 107q32 0 60 9t49 31.5t33.5 59.5t12.5 93t-12.5 93t-33.5 59.5t-49 31.5
t-60 9t-60.5 -9t-49.5 -31.5t-33.5 -59.5t-12.5 -93t12.5 -93t33.5 -59.5t49.5 -31.5t60.5 -9z" />
    <glyph glyph-name="p" unicode="p" horiz-adv-x="640" 
d="M60 600h345q42 0 79.5 -10.5t65 -34.5t44 -62.5t16.5 -93.5q0 -60 -16.5 -100t-44 -64t-65 -34t-79.5 -10h-209v-191h-136v600zM405 310q29 0 49 19t20 70q0 45 -20 63.5t-49 18.5h-209v-171h209z" />
    <glyph glyph-name="q" unicode="q" horiz-adv-x="643" 
d="M254 -7q-49 7 -90 28t-71 58t-46.5 91.5t-16.5 129.5q0 87 22.5 146.5t62 96t93 53t114.5 16.5q59 0 112 -16.5t92.5 -53t63 -96t23.5 -146.5q0 -75 -17 -129.5t-46.5 -91.5t-70.5 -58t-89 -28v-109h-136v109zM254 177h136v-58q38 16 62.5 58t24.5 123q0 56 -12.5 93
t-33.5 59.5t-49 31.5t-60 9t-60.5 -9t-49.5 -31.5t-33.5 -59.5t-12.5 -93q0 -84 23.5 -126t64.5 -56v59z" />
    <glyph glyph-name="r" unicode="r" horiz-adv-x="662" 
d="M60 600h354q40 0 75.5 -9.5t62.5 -31.5t42.5 -57t15.5 -86q0 -43 -9.5 -74.5t-26 -53.5t-40 -36t-51.5 -21l134 -231h-158l-123 224h-140v-224h-136v600zM414 343q25 0 42.5 15.5t17.5 57.5q0 36 -17.5 50.5t-42.5 14.5h-218v-138h218z" />
    <glyph glyph-name="s" unicode="s" horiz-adv-x="624" 
d="M62 119h312q29 0 49 13t20 48q0 34 -20 47t-49 13h-141q-43 0 -77.5 9.5t-59 30.5t-38 55.5t-13.5 84.5q0 51 13.5 85.5t38 55.5t59 30t77.5 9h329v-119h-312q-29 0 -49 -13t-20 -48q0 -34 20 -47t49 -13h141q43 0 77.5 -9.5t59 -30.5t38 -55.5t13.5 -84.5
q0 -51 -13.5 -85.5t-38 -55.5t-59 -30t-77.5 -9h-329v119z" />
    <glyph glyph-name="t" unicode="t" horiz-adv-x="542" 
d="M203 481h-207v119h550v-119h-207v-481h-136v481z" />
    <glyph glyph-name="u" unicode="u" horiz-adv-x="651" 
d="M50 600h136v-350q0 -41 11 -68.5t30 -44t44.5 -23.5t54.5 -7q28 0 53.5 7t44.5 23.5t30 44t11 68.5v350h136v-350q0 -75 -22 -125t-59.5 -80.5t-87.5 -43.5t-106 -13q-57 0 -107.5 13t-88 43.5t-59 80.5t-21.5 125v350z" />
    <glyph glyph-name="v" unicode="v" horiz-adv-x="633" 
d="M-20 600h152l184 -437l186 437h151l-268 -600h-137z" />
    <glyph glyph-name="w" unicode="w" horiz-adv-x="854" 
d="M-10 600h144l122 -379l103 379h136l103 -378q31 96 61.5 189.5t60.5 188.5h144l-201 -600h-138l-98 359l-98 -359h-139z" />
    <glyph glyph-name="x" unicode="x" horiz-adv-x="585" 
d="M213 300l-213 300h165l127 -185q32 47 64 93l64 92h165l-213 -300l213 -300h-165l-128 184q-32 -47 -63.5 -92.5t-63.5 -91.5h-165z" />
    <glyph glyph-name="y" unicode="y" horiz-adv-x="581" 
d="M222 252q-56 84 -116 174.5t-116 173.5h166l135 -217q34 54 68 108.5t67 108.5h165l-233 -348v-252h-136v252z" />
    <glyph glyph-name="z" unicode="z" horiz-adv-x="607" 
d="M45 113l336 368h-336v119h517v-113l-336 -368h336v-119h-517v113z" />
    <glyph glyph-name="braceleft" unicode="{" horiz-adv-x="440" 
d="M160 198q0 33 -13 45t-32 12h-55v90h55q19 0 32 12t13 45v148q0 42 11 70.5t29.5 46.5t43.5 25.5t54 7.5h82v-90h-55q-19 0 -32 -12t-13 -45v-113q0 -60 -21.5 -93.5t-56.5 -46.5q35 -14 56.5 -47t21.5 -93v-153q0 -33 13 -45t32 -12h55v-90h-82q-29 0 -54 7.5
t-43.5 25.5t-29.5 46.5t-11 70.5v188z" />
    <glyph glyph-name="bar" unicode="|" horiz-adv-x="340" 
d="M120 750h100v-950h-100v950z" />
    <glyph glyph-name="braceright" unicode="}" horiz-adv-x="440" 
d="M115 -50q19 0 32 12t13 45v153q0 60 21 93t56 47q-35 13 -56 46.5t-21 93.5v113q0 33 -13 45t-32 12h-55v90h82q28 0 53.5 -7.5t44 -25.5t29.5 -46.5t11 -70.5v-148q0 -33 13 -45t32 -12h55v-90h-55q-19 0 -32 -12t-13 -45v-188q0 -42 -11 -70.5t-29.5 -46.5t-44 -25.5
t-53.5 -7.5h-82v90h55z" />
    <glyph glyph-name="asciitilde" unicode="~" horiz-adv-x="693" 
d="M60 316q14 5 32.5 15t41.5 19.5t49.5 17t56.5 7.5q36 0 62.5 -8.5t49.5 -18t46 -18t54 -8.5q38 0 72.5 16t66.5 33l42 -94q-17 -5 -37 -14t-42.5 -18t-48 -16t-53.5 -7q-37 0 -63 8.5t-48.5 19t-46 19t-54.5 8.5q-14 0 -33.5 -6t-39.5 -14t-37.5 -18t-27.5 -17z" />
    <glyph glyph-name="Zcaron" horiz-adv-x="690" 
d="M45 120l420 460h-420v120h600v-120l-420 -460h420v-120h-600v120zM176 891l30 41l139 -87l139 87l30 -47l-169 -135z" />
    <glyph glyph-name="Zcaron" unicode="&#x17d;" horiz-adv-x="690" 
d="M45 120l420 460h-420v120h600v-120l-420 -460h420v-120h-600v120zM176 891l30 41l139 -87l139 87l30 -47l-169 -135z" />
    <glyph glyph-name="zcaron" horiz-adv-x="607" 
d="M45 113l336 368h-336v119h517v-113l-336 -368h336v-119h-517v113zM134 791l30 41l139 -87l139 87l30 -47l-169 -135z" />
    <glyph glyph-name="zcaron" unicode="&#x17e;" horiz-adv-x="607" 
d="M45 113l336 368h-336v119h517v-113l-336 -368h336v-119h-517v113zM134 791l30 41l139 -87l139 87l30 -47l-169 -135z" />
    <glyph glyph-name="exclamdown" unicode="&#xa1;" 
d="M60 600h140v-140h-140v140zM80 380h100l20 -530h-140z" />
    <glyph glyph-name="cent" unicode="&#xa2;" horiz-adv-x="681" 
d="M318 100q-53 0 -100 15.5t-82 51t-55.5 92.5t-20.5 141t20.5 141t55.5 92.5t82 51t100 15.5h37v100h80v-100h186v-113h-186v-374h186v-113h-186v-100h-80v100h-37zM355 213v374h-20q-30 0 -56.5 -9t-46 -30.5t-31 -57.5t-11.5 -90t11.5 -90t31 -57.5t46 -30.5t56.5 -9h20
z" />
    <glyph glyph-name="sterling" unicode="&#xa3;" horiz-adv-x="700" 
d="M60 120h120v180h-100v100h100v110q0 53 18 89.5t49 59t73 32t90 9.5h170v-120h-150q-47 0 -78.5 -15.5t-31.5 -54.5v-110h180v-100h-180v-180h320v-120h-580v120z" />
    <glyph glyph-name="yen" unicode="&#xa5;" horiz-adv-x="740" 
d="M100 180h200v70h-200v70h184l-254 380h170l170 -273l170 273h170l-254 -380h184v-70h-200v-70h200v-70h-200v-110h-140v110h-200v70z" />
    <glyph glyph-name="brokenbar" unicode="&#xa6;" horiz-adv-x="340" 
d="M120 700h100v-340h-100v340zM120 250h100v-390h-100v390z" />
    <glyph glyph-name="section" unicode="&#xa7;" horiz-adv-x="653" 
d="M391 -27q34 0 57.5 14t23.5 49q0 38 -23.5 51.5t-57.5 13.5h-146q-42 0 -76.5 9t-58.5 29.5t-37 55t-13 85.5q0 48 20 77t56 43q-36 15 -56 44t-20 79t13 84t37 54.5t58.5 29.5t76.5 9h331v-113h-314q-34 0 -58 -14.5t-24 -49.5q0 -38 24 -51.5t58 -13.5h146
q42 0 76.5 -9t58.5 -30t37 -55.5t13 -85.5q0 -48 -20 -77t-55 -43q36 -15 55.5 -44.5t19.5 -77.5q0 -50 -13 -84t-37 -54.5t-58.5 -29t-76.5 -8.5h-331v113h314zM180 280q0 -38 24 -52t58 -14h129q34 0 57.5 14.5t23.5 49.5q0 38 -23.5 52t-57.5 14h-129q-34 0 -58 -14.5
t-24 -49.5z" />
    <glyph glyph-name="dieresis" unicode="&#xa8;" horiz-adv-x="400" 
d="M230 770h110v-110h-110v110zM60 770h110v-110h-110v110z" />
    <glyph glyph-name="copyright" unicode="&#xa9;" horiz-adv-x="850" 
d="M60 350q0 76 28.5 142.5t78 116t116 78t142.5 28.5t142.5 -28.5t116 -78t78 -116t28.5 -142.5t-28.5 -142.5t-78 -116t-116 -78t-142.5 -28.5t-142.5 28.5t-116 78t-78 116t-28.5 142.5zM130 350q0 -61 23 -115t63 -94t94 -63t115 -23t115 23t94 63t63 94t23 115t-23 115
t-63 94t-94 63t-115 23t-115 -23t-94 -63t-63 -94t-23 -115zM225 350q0 58 14 98t38.5 65t57.5 36t70 11h156v-72h-144q-22 0 -41.5 -6.5t-34.5 -22.5t-23.5 -42.5t-8.5 -66.5t8.5 -66.5t23.5 -42.5t34.5 -22.5t41.5 -6.5h144v-72h-156q-37 0 -70 11t-57.5 36t-38.5 65
t-14 98z" />
    <glyph glyph-name="ordfeminine" unicode="&#xaa;" horiz-adv-x="450" 
d="M167 340q-22 0 -41.5 6t-34 19t-23 34.5t-8.5 52.5q0 32 8.5 53.5t23 34.5t34 18.5t41.5 5.5h145q0 38 -25.5 53t-61.5 15h-141v68h151q32 0 60 -7t49 -23t33.5 -42t12.5 -64v-224h-223zM312 408v89h-129q-18 0 -31.5 -9.5t-13.5 -35.5q0 -24 13.5 -34t31.5 -10h129z" />
    <glyph glyph-name="guillemotleft" unicode="&#xab;" horiz-adv-x="596" 
d="M450 578l86 -50l-141 -228l141 -228l-86 -50l-160 278zM60 300l160 278l86 -50l-141 -228l141 -228l-86 -50z" />
    <glyph glyph-name="logicalnot" unicode="&#xac;" horiz-adv-x="600" 
d="M60 350h480v-250h-100v150h-380v100z" />
    <glyph glyph-name="registered" unicode="&#xae;" horiz-adv-x="850" 
d="M60 350q0 76 28.5 142.5t78 116t116 78t142.5 28.5t142.5 -28.5t116 -78t78 -116t28.5 -142.5t-28.5 -142.5t-78 -116t-116 -78t-142.5 -28.5t-142.5 28.5t-116 78t-78 116t-28.5 142.5zM130 350q0 -61 23 -115t63 -94t94 -63t115 -23t115 23t94 63t63 94t23 115t-23 115
t-63 94t-94 63t-115 23t-115 -23t-94 -63t-63 -94t-23 -115zM244 560h249q28 0 52.5 -6.5t43 -21.5t29 -39t10.5 -59q0 -62 -27.5 -91.5t-68.5 -37.5l95 -165h-97l-89 162h-113v-162h-84v420zM493 374q21 0 36 12.5t15 47.5q0 30 -15 42t-36 12h-165v-114h165z" />
    <glyph glyph-name="macron" unicode="&#xaf;" horiz-adv-x="420" 
d="M60 720h300v-60h-300v60z" />
    <glyph glyph-name="degree" unicode="&#xb0;" horiz-adv-x="390" 
d="M195 445q-28 0 -52.5 10.5t-43 29t-29 43t-10.5 52.5t10.5 52.5t29 43t43 29t52.5 10.5t52.5 -10.5t43 -29t29 -43t10.5 -52.5t-10.5 -52.5t-29 -43t-43 -29t-52.5 -10.5zM195 505q31 0 53 21.5t22 53.5q0 31 -22 53t-53 22q-32 0 -53.5 -22t-21.5 -53q0 -32 21.5 -53.5
t53.5 -21.5z" />
    <glyph glyph-name="plusminus" unicode="&#xb1;" horiz-adv-x="600" 
d="M250 410h-190v100h190v190h100v-190h190v-100h-190v-190h-100v190zM60 100h480v-100h-480v100z" />
    <glyph glyph-name="twosuperior" unicode="&#xb2;" horiz-adv-x="456" 
d="M45 403q0 69 34.5 96t94.5 27h96q23 0 40 11t17 40t-17 40t-40 11h-213v72h225q30 0 53.5 -6t40.5 -20.5t26 -38t9 -58.5q0 -69 -34.5 -96t-94.5 -27h-96q-23 0 -40 -11t-17 -40v-51h276v-72h-360v123z" />
    <glyph glyph-name="threesuperior" unicode="&#xb3;" horiz-adv-x="439" 
d="M50 352h219q21 0 36 11t15 40t-15 40t-36 11h-159v72h147q21 0 36 11t15 40t-15 40t-36 11h-207v72h207q28 0 52.5 -5.5t43 -19t29 -35.5t10.5 -54q0 -35 -12.5 -57.5t-32.5 -35.5q26 -13 41.5 -37t15.5 -62q0 -32 -10.5 -54t-29 -35.5t-43 -19t-52.5 -5.5h-219v72z" />
    <glyph glyph-name="acute" unicode="&#xb4;" horiz-adv-x="337" 
d="M60 691l169 141l48 -65l-187 -117z" />
    <glyph glyph-name="mu" unicode="&#xb5;" horiz-adv-x="670" 
d="M190 -200h-130v800h130v-353q0 -43 11.5 -71.5t31 -46t46 -24.5t56.5 -7q29 0 55 7t45.5 23t31.5 43t13 67v362h130v-600h-130v50q-27 -35 -64.5 -50t-80.5 -15t-80.5 15t-64.5 50v-250z" />
    <glyph glyph-name="mu" unicode="&#x3bc;" horiz-adv-x="670" 
d="M190 -200h-130v800h130v-353q0 -43 11.5 -71.5t31 -46t46 -24.5t56.5 -7q29 0 55 7t45.5 23t31.5 43t13 67v362h130v-600h-130v50q-27 -35 -64.5 -50t-80.5 -15t-80.5 15t-64.5 50v-250z" />
    <glyph glyph-name="paragraph" unicode="&#xb6;" horiz-adv-x="665" 
d="M235 440q-36 0 -68 6.5t-55.5 22.5t-37.5 41.5t-14 64.5q0 35 14 59t37.5 38.5t55.5 21t68 6.5h370v-80h-110v-760h-100v760h-60v-760h-100v580z" />
    <glyph glyph-name="periodcentered" unicode="&#xb7;" 
d="M60 370h140v-140h-140v140z" />
    <glyph glyph-name="cedilla" unicode="&#xb8;" horiz-adv-x="359" 
d="M60 -118q2 0 12 -4t24.5 -8.5t32.5 -8.5t35 -4q8 0 18 2t19 6t15 10.5t6 16.5q0 17 -14.5 23t-31.5 6t-32.5 -3.5t-23.5 -5.5l20 118h60l-10 -64q51 0 80 -23t29 -52q0 -24 -11.5 -41t-30 -28t-42.5 -16.5t-49 -5.5q-29 0 -56.5 6.5t-49.5 19.5v56v0z" />
    <glyph glyph-name="onesuperior" unicode="&#xb9;" horiz-adv-x="204" 
d="M60 686l84 30v-432h-84v402z" />
    <glyph glyph-name="ordmasculine" unicode="&#xba;" horiz-adv-x="471" 
d="M235 331q-36 0 -68 10t-56 32.5t-37.5 58.5t-13.5 88t13.5 88t37.5 58.5t56 32.5t68 10t68 -10t56 -32.5t38 -58.5t14 -88t-14 -88t-38 -58.5t-56 -32.5t-68 -10zM235 399q20 0 38 6t31 20t20.5 37t7.5 58t-7.5 58t-20.5 37t-31 20t-38 6t-37.5 -6t-31 -20t-21 -37
t-7.5 -58t7.5 -58t21 -37t31 -20t37.5 -6z" />
    <glyph glyph-name="guillemotright" unicode="&#xbb;" horiz-adv-x="596" 
d="M431 300l-141 228l86 50l160 -278l-160 -278l-86 50zM201 300l-141 228l86 50l160 -278l-160 -278l-86 50z" />
    <glyph glyph-name="onequarter" unicode="&#xbc;" horiz-adv-x="894" 
d="M60 686l84 30v-432h-84v402zM471 700h90l-342 -700h-90zM420 168l247 252h107v-264h60v-72h-60v-84h-84v84h-270v84zM690 156v181l-174 -181h174z" />
    <glyph glyph-name="onehalf" unicode="&#xbd;" horiz-adv-x="921" 
d="M60 686l84 30v-432h-84v402zM471 700h90l-342 -700h-90zM495 123q0 69 34.5 96t94.5 27h96q23 0 40 11t17 40t-17 40t-40 11h-213v72h225q30 0 53.5 -6t40.5 -20.5t26 -38t9 -58.5q0 -69 -34.5 -96t-94.5 -27h-96q-23 0 -40 -11t-17 -40v-51h276v-72h-360v123z" />
    <glyph glyph-name="threequarters" unicode="&#xbe;" horiz-adv-x="1104" 
d="M681 700h90l-342 -700h-90zM60 352h219q21 0 36 11t15 40t-15 40t-36 11h-159v72h147q21 0 36 11t15 40t-15 40t-36 11h-207v72h207q28 0 52.5 -5.5t43 -19t29 -35.5t10.5 -54q0 -35 -12.5 -57.5t-32.5 -35.5q26 -13 41.5 -37t15.5 -62q0 -32 -10.5 -54t-29 -35.5
t-43 -19t-52.5 -5.5h-219v72zM630 168l247 252h107v-264h60v-72h-60v-84h-84v84h-270v84zM900 156v181l-174 -181h174z" />
    <glyph glyph-name="questiondown" unicode="&#xbf;" horiz-adv-x="670" 
d="M470 600h140v-140h-140v140zM60 55q0 57 15 96.5t43 63.5t68 34.5t89 10.5h130q16 0 30 4t24 17t15.5 36.5t5.5 62.5h120q3 -29 3 -52q0 -65 -17.5 -102t-46 -56.5t-64 -24.5t-70.5 -5h-110q-39 0 -67 -19t-28 -66q0 -48 28 -66.5t67 -18.5h295v-120h-315q-49 0 -89 10
t-68 34t-43 63t-15 98z" />
    <glyph glyph-name="Agrave" unicode="&#xc0;" horiz-adv-x="735" 
d="M292 700h151l312 -700h-156l-59 140h-345l-59 -140h-156zM489 260l-122 286l-121 -286h243zM259 867l48 65l169 -141l-30 -41z" />
    <glyph glyph-name="Aacute" unicode="&#xc1;" horiz-adv-x="735" 
d="M292 700h151l312 -700h-156l-59 140h-345l-59 -140h-156zM489 260l-122 286l-121 -286h243zM259 791l169 141l48 -65l-187 -117z" />
    <glyph glyph-name="Acircumflex" unicode="&#xc2;" horiz-adv-x="735" 
d="M292 700h151l312 -700h-156l-59 140h-345l-59 -140h-156zM489 260l-122 286l-121 -286h243zM198 791l169 141l169 -135l-30 -47l-139 87l-139 -87z" />
    <glyph glyph-name="Atilde" unicode="&#xc3;" horiz-adv-x="735" 
d="M292 700h151l312 -700h-156l-59 140h-345l-59 -140h-156zM489 260l-122 286l-121 -286h243zM184 817q9 4 21 11.5t26.5 14.5t31.5 12t36 5q23 0 40 -6t31.5 -13t29 -13t34.5 -6q25 0 47 11.5t42 23.5l27 -68q-11 -3 -24 -9.5t-27 -13t-30.5 -11.5t-34.5 -5q-23 0 -39.5 6
t-31 13.5t-29.5 13.5t-35 6q-9 0 -21.5 -4t-25 -10t-24 -12.5t-17.5 -12.5z" />
    <glyph glyph-name="Adieresis" unicode="&#xc4;" horiz-adv-x="735" 
d="M292 700h151l312 -700h-156l-59 140h-345l-59 -140h-156zM489 260l-122 286l-121 -286h243zM397 870h110v-110h-110v110zM227 870h110v-110h-110v110z" />
    <glyph glyph-name="Aring" unicode="&#xc5;" horiz-adv-x="735" 
d="M292 700h151l312 -700h-156l-59 140h-345l-59 -140h-156zM489 260l-122 286l-121 -286h243zM367 745q-24 0 -44.5 9t-36.5 25t-25 36.5t-9 44.5t9 44.5t25 36.5t36.5 25t44.5 9t44.5 -9t36.5 -25t25 -36.5t9 -44.5t-9 -44.5t-25 -36.5t-36.5 -25t-44.5 -9zM367 805
q23 0 39 16t16 39t-16 39t-39 16t-39 -16t-16 -39t16 -39t39 -16z" />
    <glyph glyph-name="AE" unicode="&#xc6;" horiz-adv-x="1090" 
d="M50 370q0 92 23.5 155t64.5 102t95.5 56t116.5 17h260v-54q33 29 74 41.5t86 12.5h260v-120h-240q-33 0 -62 -8.5t-52.5 -28t-40 -52t-22.5 -81.5h417v-120h-417q6 -49 22.5 -81.5t40 -52t52.5 -28t62 -8.5h240v-120h-260q-45 0 -86 12.5t-74 41.5v-54h-140v190h-280
v-190h-140v370zM470 310v270h-100q-37 0 -70 -10t-57.5 -34t-38.5 -64.5t-14 -101.5v-60h280z" />
    <glyph glyph-name="Ccedilla" unicode="&#xc7;" horiz-adv-x="640" 
d="M230 -118q2 0 12 -4t24.5 -8.5t32.5 -8.5t35 -4q8 0 18 2t19 6t15 10.5t6 16.5q0 17 -14.5 23t-31.5 6t-32.5 -3.5t-23.5 -5.5l15 88q-58 3 -108 23.5t-87 62.5t-58.5 107t-21.5 157q0 97 23.5 164t64.5 108t95.5 59.5t116.5 18.5h260v-120h-240q-37 0 -70 -11
t-57.5 -37.5t-38.5 -70.5t-14 -111t14 -111t38.5 -70.5t57.5 -37.5t70 -11h240v-120h-225l-5 -34q51 0 80 -23t29 -52q0 -24 -11.5 -41t-30 -28t-42.5 -16.5t-49 -5.5q-29 0 -56.5 6.5t-49.5 19.5v56v0z" />
    <glyph glyph-name="Egrave" unicode="&#xc8;" horiz-adv-x="650" 
d="M330 0q-62 0 -116.5 18.5t-95.5 59.5t-64.5 108t-23.5 164t23.5 164t64.5 108t95.5 59.5t116.5 18.5h260v-120h-240q-33 0 -62 -8.5t-52.5 -28t-40 -52t-22.5 -81.5h417v-120h-417q6 -49 22.5 -81.5t40 -52t52.5 -28t62 -8.5h240v-120h-260v0zM216 867l48 65l169 -141
l-30 -41z" />
    <glyph glyph-name="Eacute" unicode="&#xc9;" horiz-adv-x="650" 
d="M330 0q-62 0 -116.5 18.5t-95.5 59.5t-64.5 108t-23.5 164t23.5 164t64.5 108t95.5 59.5t116.5 18.5h260v-120h-240q-33 0 -62 -8.5t-52.5 -28t-40 -52t-22.5 -81.5h417v-120h-417q6 -49 22.5 -81.5t40 -52t52.5 -28t62 -8.5h240v-120h-260v0zM216 791l169 141l48 -65
l-187 -117z" />
    <glyph glyph-name="Ecircumflex" unicode="&#xca;" horiz-adv-x="650" 
d="M330 0q-62 0 -116.5 18.5t-95.5 59.5t-64.5 108t-23.5 164t23.5 164t64.5 108t95.5 59.5t116.5 18.5h260v-120h-240q-33 0 -62 -8.5t-52.5 -28t-40 -52t-22.5 -81.5h417v-120h-417q6 -49 22.5 -81.5t40 -52t52.5 -28t62 -8.5h240v-120h-260v0zM156 791l169 141l169 -135
l-30 -47l-139 87l-139 -87z" />
    <glyph glyph-name="Edieresis" unicode="&#xcb;" horiz-adv-x="650" 
d="M330 0q-62 0 -116.5 18.5t-95.5 59.5t-64.5 108t-23.5 164t23.5 164t64.5 108t95.5 59.5t116.5 18.5h260v-120h-240q-33 0 -62 -8.5t-52.5 -28t-40 -52t-22.5 -81.5h417v-120h-417q6 -49 22.5 -81.5t40 -52t52.5 -28t62 -8.5h240v-120h-260v0zM355 870h110v-110h-110v110
zM185 870h110v-110h-110v110z" />
    <glyph glyph-name="Igrave" unicode="&#xcc;" 
d="M60 700h140v-700h-140v700zM24 867l48 65l169 -141l-30 -41z" />
    <glyph glyph-name="Iacute" unicode="&#xcd;" 
d="M60 700h140v-700h-140v700zM24 791l169 141l48 -65l-187 -117z" />
    <glyph glyph-name="Icircumflex" unicode="&#xce;" 
d="M60 700h140v-700h-140v700zM-37 791l169 141l169 -135l-30 -47l-139 87l-139 -87z" />
    <glyph glyph-name="Idieresis" unicode="&#xcf;" 
d="M60 700h140v-700h-140v700zM162 870h110v-110h-110v110zM-8 870h110v-110h-110v110z" />
    <glyph glyph-name="Eth" unicode="&#xd0;" horiz-adv-x="750" 
d="M80 300h-60v100h60v300h340q62 0 116.5 -18.5t95.5 -59.5t64.5 -108t23.5 -164t-23.5 -164t-64.5 -108t-95.5 -59.5t-116.5 -18.5h-340v300zM400 120q37 0 70 11t57.5 37.5t38.5 70.5t14 111t-14 111t-38.5 70.5t-57.5 37.5t-70 11h-180v-180h200v-100h-200v-180h180z
" />
    <glyph glyph-name="Ntilde" unicode="&#xd1;" horiz-adv-x="720" 
d="M60 700h180l280 -509v509h140v-700h-180l-280 509v-509h-140v700zM177 817q9 4 21 11.5t26.5 14.5t31.5 12t36 5q23 0 40 -6t31.5 -13t29 -13t34.5 -6q25 0 47 11.5t42 23.5l27 -68q-11 -3 -24 -9.5t-27 -13t-30.5 -11.5t-34.5 -5q-23 0 -39.5 6t-31 13.5t-29.5 13.5
t-35 6q-9 0 -21.5 -4t-25 -10t-24 -12.5t-17.5 -12.5z" />
    <glyph glyph-name="Ograve" unicode="&#xd2;" horiz-adv-x="740" 
d="M30 350q0 101 26.5 171t72.5 113t108 62t133 19q69 0 131 -19t108.5 -62t73.5 -113t27 -171t-27 -171t-73.5 -113t-108.5 -62t-131 -19q-71 0 -133 19t-108 62t-72.5 113t-26.5 171zM370 105q41 0 77.5 11.5t63.5 39.5t43 75.5t16 118.5t-16 118.5t-43 75.5t-63.5 39.5
t-77.5 11.5q-42 0 -78.5 -11.5t-63.5 -39.5t-42.5 -75.5t-15.5 -118.5t15.5 -118.5t42.5 -75.5t63.5 -39.5t78.5 -11.5zM261 867l48 65l169 -141l-30 -41z" />
    <glyph glyph-name="Oacute" unicode="&#xd3;" horiz-adv-x="740" 
d="M30 350q0 101 26.5 171t72.5 113t108 62t133 19q69 0 131 -19t108.5 -62t73.5 -113t27 -171t-27 -171t-73.5 -113t-108.5 -62t-131 -19q-71 0 -133 19t-108 62t-72.5 113t-26.5 171zM370 105q41 0 77.5 11.5t63.5 39.5t43 75.5t16 118.5t-16 118.5t-43 75.5t-63.5 39.5
t-77.5 11.5q-42 0 -78.5 -11.5t-63.5 -39.5t-42.5 -75.5t-15.5 -118.5t15.5 -118.5t42.5 -75.5t63.5 -39.5t78.5 -11.5zM261 791l169 141l48 -65l-187 -117z" />
    <glyph glyph-name="Ocircumflex" unicode="&#xd4;" horiz-adv-x="740" 
d="M30 350q0 101 26.5 171t72.5 113t108 62t133 19q69 0 131 -19t108.5 -62t73.5 -113t27 -171t-27 -171t-73.5 -113t-108.5 -62t-131 -19q-71 0 -133 19t-108 62t-72.5 113t-26.5 171zM370 105q41 0 77.5 11.5t63.5 39.5t43 75.5t16 118.5t-16 118.5t-43 75.5t-63.5 39.5
t-77.5 11.5q-42 0 -78.5 -11.5t-63.5 -39.5t-42.5 -75.5t-15.5 -118.5t15.5 -118.5t42.5 -75.5t63.5 -39.5t78.5 -11.5zM201 791l169 141l169 -135l-30 -47l-139 87l-139 -87z" />
    <glyph glyph-name="Otilde" unicode="&#xd5;" horiz-adv-x="740" 
d="M30 350q0 101 26.5 171t72.5 113t108 62t133 19q69 0 131 -19t108.5 -62t73.5 -113t27 -171t-27 -171t-73.5 -113t-108.5 -62t-131 -19q-71 0 -133 19t-108 62t-72.5 113t-26.5 171zM370 105q41 0 77.5 11.5t63.5 39.5t43 75.5t16 118.5t-16 118.5t-43 75.5t-63.5 39.5
t-77.5 11.5q-42 0 -78.5 -11.5t-63.5 -39.5t-42.5 -75.5t-15.5 -118.5t15.5 -118.5t42.5 -75.5t63.5 -39.5t78.5 -11.5zM187 817q9 4 21 11.5t26.5 14.5t31.5 12t36 5q23 0 40 -6t31.5 -13t29 -13t34.5 -6q25 0 47 11.5t42 23.5l27 -68q-11 -3 -24 -9.5t-27 -13t-30.5 -11.5
t-34.5 -5q-23 0 -39.5 6t-31 13.5t-29.5 13.5t-35 6q-9 0 -21.5 -4t-25 -10t-24 -12.5t-17.5 -12.5z" />
    <glyph glyph-name="Odieresis" unicode="&#xd6;" horiz-adv-x="740" 
d="M30 350q0 101 26.5 171t72.5 113t108 62t133 19q69 0 131 -19t108.5 -62t73.5 -113t27 -171t-27 -171t-73.5 -113t-108.5 -62t-131 -19q-71 0 -133 19t-108 62t-72.5 113t-26.5 171zM370 105q41 0 77.5 11.5t63.5 39.5t43 75.5t16 118.5t-16 118.5t-43 75.5t-63.5 39.5
t-77.5 11.5q-42 0 -78.5 -11.5t-63.5 -39.5t-42.5 -75.5t-15.5 -118.5t15.5 -118.5t42.5 -75.5t63.5 -39.5t78.5 -11.5zM400 870h110v-110h-110v110zM230 870h110v-110h-110v110z" />
    <glyph glyph-name="multiply" unicode="&#xd7;" horiz-adv-x="530" 
d="M60 166l146 134l-146 134l71 71l134 -147l134 147l71 -71l-147 -134l147 -134l-71 -71l-134 146l-134 -146z" />
    <glyph glyph-name="Oslash" unicode="&#xd8;" horiz-adv-x="740" 
d="M151 48q-56 42 -88.5 115t-32.5 187q0 101 26.5 171t72.5 113t108 62t133 19q40 0 78 -6t72 -20l30 51h90l-52 -89q56 -42 89 -115.5t33 -185.5q0 -101 -27 -171t-73.5 -113t-108.5 -62t-131 -19q-85 0 -151 25l-29 -50h-90zM457 579q-38 16 -87 16q-42 0 -78.5 -11.5
t-63.5 -39.5t-42.5 -75.5t-15.5 -118.5q0 -66 13 -110.5t36 -73.5zM282 120q20 -8 42 -11.5t46 -3.5q41 0 77.5 11.5t63.5 39.5t43 75.5t16 118.5q0 65 -13.5 109.5t-36.5 73.5z" />
    <glyph glyph-name="Ugrave" unicode="&#xd9;" horiz-adv-x="740" 
d="M50 700h140v-410q0 -53 14 -88.5t38.5 -57t57 -30.5t70.5 -9q37 0 69.5 9t57 30.5t39 57t14.5 88.5v410h140v-410q0 -87 -25.5 -145.5t-69 -94t-101.5 -50.5t-124 -15t-124.5 15t-102 50.5t-68.5 94t-25 145.5v410zM261 867l48 65l169 -141l-30 -41z" />
    <glyph glyph-name="Uacute" unicode="&#xda;" horiz-adv-x="740" 
d="M50 700h140v-410q0 -53 14 -88.5t38.5 -57t57 -30.5t70.5 -9q37 0 69.5 9t57 30.5t39 57t14.5 88.5v410h140v-410q0 -87 -25.5 -145.5t-69 -94t-101.5 -50.5t-124 -15t-124.5 15t-102 50.5t-68.5 94t-25 145.5v410zM261 791l169 141l48 -65l-187 -117z" />
    <glyph glyph-name="Ucircumflex" unicode="&#xdb;" horiz-adv-x="740" 
d="M50 700h140v-410q0 -53 14 -88.5t38.5 -57t57 -30.5t70.5 -9q37 0 69.5 9t57 30.5t39 57t14.5 88.5v410h140v-410q0 -87 -25.5 -145.5t-69 -94t-101.5 -50.5t-124 -15t-124.5 15t-102 50.5t-68.5 94t-25 145.5v410zM201 791l169 141l169 -135l-30 -47l-139 87l-139 -87z
" />
    <glyph glyph-name="Udieresis" unicode="&#xdc;" horiz-adv-x="740" 
d="M50 700h140v-410q0 -53 14 -88.5t38.5 -57t57 -30.5t70.5 -9q37 0 69.5 9t57 30.5t39 57t14.5 88.5v410h140v-410q0 -87 -25.5 -145.5t-69 -94t-101.5 -50.5t-124 -15t-124.5 15t-102 50.5t-68.5 94t-25 145.5v410zM400 870h110v-110h-110v110zM230 870h110v-110h-110
v110z" />
    <glyph glyph-name="Yacute" unicode="&#xdd;" horiz-adv-x="660" 
d="M260 296l-270 404h170l170 -273l170 273h170l-270 -404v-296h-140v296zM221 791l169 141l48 -65l-187 -117z" />
    <glyph glyph-name="Thorn" unicode="&#xde;" horiz-adv-x="730" 
d="M60 700h140v-120h265q48 0 91 -12t75 -39t50.5 -71t18.5 -108q0 -66 -18.5 -110t-50.5 -71t-75 -38t-91 -11h-265v-120h-140v700zM465 240q19 0 36.5 5.5t30.5 18t20.5 33.5t7.5 53q0 60 -28 85t-67 25h-265v-220h265z" />
    <glyph glyph-name="germandbls" unicode="&#xdf;" horiz-adv-x="645" 
d="M60 450q0 66 22 115t58 81.5t81 48t92 15.5q39 0 76 -11.5t66 -34.5t47 -56.5t18 -76.5q0 -44 -21.5 -89t-66.5 -84q42 -8 73.5 -26t52.5 -42.5t31.5 -54t10.5 -59.5q0 -33 -13 -65t-40 -56.5t-67.5 -39.5t-94.5 -15h-85v120h85q16 0 31.5 3.5t27.5 11t19.5 20.5t7.5 33
q0 26 -13.5 41.5t-33 25t-43 15.5t-43 14.5t-33 21t-13.5 34.5q0 24 15.5 47t34.5 45.5t34.5 44.5t15.5 45q0 34 -23.5 51.5t-51.5 17.5q-21 0 -42 -8.5t-37.5 -26t-27 -44t-10.5 -62.5v-450h-140v450z" />
    <glyph glyph-name="agrave" unicode="&#xe0;" horiz-adv-x="633" 
d="M248 600h137l268 -600h-151l-50 116h-271q-11 -26 -25 -58t-25 -58h-151zM402 235q-11 27 -21.5 51l-21 48t-21 48.5l-22.5 52.5l-86 -200h172zM208 767l48 65l169 -141l-30 -41z" />
    <glyph glyph-name="aacute" unicode="&#xe1;" horiz-adv-x="633" 
d="M248 600h137l268 -600h-151l-50 116h-271q-11 -26 -25 -58t-25 -58h-151zM402 235q-11 27 -21.5 51l-21 48t-21 48.5l-22.5 52.5l-86 -200h172zM208 691l169 141l48 -65l-187 -117z" />
    <glyph glyph-name="acircumflex" unicode="&#xe2;" horiz-adv-x="633" 
d="M248 600h137l268 -600h-151l-50 116h-271q-11 -26 -25 -58t-25 -58h-151zM402 235q-11 27 -21.5 51l-21 48t-21 48.5l-22.5 52.5l-86 -200h172zM147 691l169 141l169 -135l-30 -47l-139 87l-139 -87z" />
    <glyph glyph-name="atilde" unicode="&#xe3;" horiz-adv-x="633" 
d="M248 600h137l268 -600h-151l-50 116h-271q-11 -26 -25 -58t-25 -58h-151zM402 235q-11 27 -21.5 51l-21 48t-21 48.5l-22.5 52.5l-86 -200h172zM133 717q9 4 21 11.5t26.5 14.5t31.5 12t36 5q23 0 40 -6t31.5 -13t29 -13t34.5 -6q25 0 47 11.5t42 23.5l27 -68
q-11 -3 -24 -9.5t-27 -13t-30.5 -11.5t-34.5 -5q-23 0 -39.5 6t-31 13.5t-29.5 13.5t-35 6q-9 0 -21.5 -4t-25 -10t-24 -12.5t-17.5 -12.5z" />
    <glyph glyph-name="adieresis" unicode="&#xe4;" horiz-adv-x="633" 
d="M248 600h137l268 -600h-151l-50 116h-271q-11 -26 -25 -58t-25 -58h-151zM402 235q-11 27 -21.5 51l-21 48t-21 48.5l-22.5 52.5l-86 -200h172zM346 770h110v-110h-110v110zM176 770h110v-110h-110v110z" />
    <glyph glyph-name="aring" unicode="&#xe5;" horiz-adv-x="633" 
d="M248 600h137l268 -600h-151l-50 116h-271q-11 -26 -25 -58t-25 -58h-151zM402 235q-11 27 -21.5 51l-21 48t-21 48.5l-22.5 52.5l-86 -200h172zM316 645q-24 0 -44.5 9t-36.5 25t-25 36.5t-9 44.5t9 44.5t25 36.5t36.5 25t44.5 9t44.5 -9t36.5 -25t25 -36.5t9 -44.5
t-9 -44.5t-25 -36.5t-36.5 -25t-44.5 -9zM316 705q23 0 39 16t16 39t-16 39t-39 16t-39 -16t-16 -39t16 -39t39 -16z" />
    <glyph glyph-name="ae" unicode="&#xe6;" horiz-adv-x="942" 
d="M50 317q0 79 20.5 133t55.5 87.5t82 48t101 14.5h225v-34q27 20 57 27t66 7h225v-119h-208q-49 0 -86 -27t-49 -94h343v-120h-343q6 -34 18.5 -57t30.5 -37.5t40 -20.5t46 -6h208v-119h-225q-36 0 -66 7t-57 27v-34h-136v157h-212v-157h-136v317zM398 277v204h-72
q-29 0 -54.5 -8t-44.5 -27t-30 -50.5t-11 -78.5v-40h212z" />
    <glyph glyph-name="ccedilla" unicode="&#xe7;" horiz-adv-x="564" 
d="M192 -118q2 0 12 -4t24.5 -8.5t32.5 -8.5t35 -4q8 0 18 2t19 6t15 10.5t6 16.5q0 17 -14.5 23t-31.5 6t-32.5 -3.5t-23.5 -5.5l15 88q-50 3 -93 20.5t-75 53.5t-50.5 91.5t-18.5 134.5q0 83 20.5 140.5t55.5 93t82 51t100 15.5h226v-119h-209q-29 0 -54 -8.5t-44 -29.5
t-30 -56t-11 -87t11 -87t30 -56t44 -29.5t54 -8.5h209v-119h-187l-5 -34q51 0 80 -23t29 -52q0 -24 -11.5 -41t-30 -28t-42.5 -16.5t-49 -5.5q-29 0 -56.5 6.5t-49.5 19.5v56v0z" />
    <glyph glyph-name="egrave" unicode="&#xe8;" horiz-adv-x="574" 
d="M288 0q-53 0 -100 15.5t-82 51t-55.5 93t-20.5 140.5t20.5 140.5t55.5 93t82 51t100 15.5h226v-119h-209q-48 0 -85.5 -27t-49.5 -94h344v-120h-344q6 -34 19 -57t30.5 -37.5t39.5 -20.5t46 -6h209v-119h-226v0zM178 767l48 65l169 -141l-30 -41z" />
    <glyph glyph-name="eacute" unicode="&#xe9;" horiz-adv-x="574" 
d="M288 0q-53 0 -100 15.5t-82 51t-55.5 93t-20.5 140.5t20.5 140.5t55.5 93t82 51t100 15.5h226v-119h-209q-48 0 -85.5 -27t-49.5 -94h344v-120h-344q6 -34 19 -57t30.5 -37.5t39.5 -20.5t46 -6h209v-119h-226v0zM178 691l169 141l48 -65l-187 -117z" />
    <glyph glyph-name="ecircumflex" unicode="&#xea;" horiz-adv-x="574" 
d="M288 0q-53 0 -100 15.5t-82 51t-55.5 93t-20.5 140.5t20.5 140.5t55.5 93t82 51t100 15.5h226v-119h-209q-48 0 -85.5 -27t-49.5 -94h344v-120h-344q6 -34 19 -57t30.5 -37.5t39.5 -20.5t46 -6h209v-119h-226v0zM118 691l169 141l169 -135l-30 -47l-139 87l-139 -87z" />
    <glyph glyph-name="edieresis" unicode="&#xeb;" horiz-adv-x="574" 
d="M288 0q-53 0 -100 15.5t-82 51t-55.5 93t-20.5 140.5t20.5 140.5t55.5 93t82 51t100 15.5h226v-119h-209q-48 0 -85.5 -27t-49.5 -94h344v-120h-344q6 -34 19 -57t30.5 -37.5t39.5 -20.5t46 -6h209v-119h-226v0zM317 770h110v-110h-110v110zM147 770h110v-110h-110v110z
" />
    <glyph glyph-name="igrave" unicode="&#xec;" horiz-adv-x="256" 
d="M60 600h136v-600h-136v600zM22 767l48 65l169 -141l-30 -41z" />
    <glyph glyph-name="iacute" unicode="&#xed;" horiz-adv-x="256" 
d="M60 600h136v-600h-136v600zM22 691l169 141l48 -65l-187 -117z" />
    <glyph glyph-name="icircumflex" unicode="&#xee;" horiz-adv-x="256" 
d="M60 600h136v-600h-136v600zM-39 691l169 141l169 -135l-30 -47l-139 87l-139 -87z" />
    <glyph glyph-name="idieresis" unicode="&#xef;" horiz-adv-x="256" 
d="M60 600h136v-600h-136v600zM160 770h110v-110h-110v110zM-10 770h110v-110h-110v110z" />
    <glyph glyph-name="eth" unicode="&#xf0;" horiz-adv-x="650" 
d="M69 249h-49v102h49v249h292q54 0 101 -15.5t82 -51t55.5 -93t20.5 -140.5t-20.5 -140.5t-55.5 -93t-82 -51t-101 -15.5h-292v249zM344 119q29 0 54.5 8.5t44.5 29.5t30 56t11 87t-11 87t-30 56t-44.5 29.5t-54.5 8.5h-139v-130h166v-102h-166v-130h139z" />
    <glyph glyph-name="ntilde" unicode="&#xf1;" horiz-adv-x="637" 
d="M60 600h165l216 -393v393h136v-600h-165l-216 393v-393h-136v600zM135 717q9 4 21 11.5t26.5 14.5t31.5 12t36 5q23 0 40 -6t31.5 -13t29 -13t34.5 -6q25 0 47 11.5t42 23.5l27 -68q-11 -3 -24 -9.5t-27 -13t-30.5 -11.5t-34.5 -5q-23 0 -39.5 6t-31 13.5t-29.5 13.5
t-35 6q-9 0 -21.5 -4t-25 -10t-24 -12.5t-17.5 -12.5z" />
    <glyph glyph-name="ograve" unicode="&#xf2;" horiz-adv-x="643" 
d="M30 300q0 87 22.5 146.5t62 96t93 53t114.5 16.5q59 0 112 -16.5t92.5 -53t63 -96t23.5 -146.5t-23.5 -146.5t-63 -96t-92.5 -53t-112 -16.5q-61 0 -114.5 16.5t-93 53t-62 96t-22.5 146.5zM322 107q32 0 60 9t49 31.5t33.5 59.5t12.5 93t-12.5 93t-33.5 59.5t-49 31.5
t-60 9t-60.5 -9t-49.5 -31.5t-33.5 -59.5t-12.5 -93t12.5 -93t33.5 -59.5t49.5 -31.5t60.5 -9zM213 767l48 65l169 -141l-30 -41z" />
    <glyph glyph-name="oacute" unicode="&#xf3;" horiz-adv-x="643" 
d="M30 300q0 87 22.5 146.5t62 96t93 53t114.5 16.5q59 0 112 -16.5t92.5 -53t63 -96t23.5 -146.5t-23.5 -146.5t-63 -96t-92.5 -53t-112 -16.5q-61 0 -114.5 16.5t-93 53t-62 96t-22.5 146.5zM322 107q32 0 60 9t49 31.5t33.5 59.5t12.5 93t-12.5 93t-33.5 59.5t-49 31.5
t-60 9t-60.5 -9t-49.5 -31.5t-33.5 -59.5t-12.5 -93t12.5 -93t33.5 -59.5t49.5 -31.5t60.5 -9zM213 691l169 141l48 -65l-187 -117z" />
    <glyph glyph-name="ocircumflex" unicode="&#xf4;" horiz-adv-x="643" 
d="M30 300q0 87 22.5 146.5t62 96t93 53t114.5 16.5q59 0 112 -16.5t92.5 -53t63 -96t23.5 -146.5t-23.5 -146.5t-63 -96t-92.5 -53t-112 -16.5q-61 0 -114.5 16.5t-93 53t-62 96t-22.5 146.5zM322 107q32 0 60 9t49 31.5t33.5 59.5t12.5 93t-12.5 93t-33.5 59.5t-49 31.5
t-60 9t-60.5 -9t-49.5 -31.5t-33.5 -59.5t-12.5 -93t12.5 -93t33.5 -59.5t49.5 -31.5t60.5 -9zM152 691l169 141l169 -135l-30 -47l-139 87l-139 -87z" />
    <glyph glyph-name="otilde" unicode="&#xf5;" horiz-adv-x="643" 
d="M30 300q0 87 22.5 146.5t62 96t93 53t114.5 16.5q59 0 112 -16.5t92.5 -53t63 -96t23.5 -146.5t-23.5 -146.5t-63 -96t-92.5 -53t-112 -16.5q-61 0 -114.5 16.5t-93 53t-62 96t-22.5 146.5zM322 107q32 0 60 9t49 31.5t33.5 59.5t12.5 93t-12.5 93t-33.5 59.5t-49 31.5
t-60 9t-60.5 -9t-49.5 -31.5t-33.5 -59.5t-12.5 -93t12.5 -93t33.5 -59.5t49.5 -31.5t60.5 -9zM138 717q9 4 21 11.5t26.5 14.5t31.5 12t36 5q23 0 40 -6t31.5 -13t29 -13t34.5 -6q25 0 47 11.5t42 23.5l27 -68q-11 -3 -24 -9.5t-27 -13t-30.5 -11.5t-34.5 -5q-23 0 -39.5 6
t-31 13.5t-29.5 13.5t-35 6q-9 0 -21.5 -4t-25 -10t-24 -12.5t-17.5 -12.5z" />
    <glyph glyph-name="odieresis" unicode="&#xf6;" horiz-adv-x="643" 
d="M30 300q0 87 22.5 146.5t62 96t93 53t114.5 16.5q59 0 112 -16.5t92.5 -53t63 -96t23.5 -146.5t-23.5 -146.5t-63 -96t-92.5 -53t-112 -16.5q-61 0 -114.5 16.5t-93 53t-62 96t-22.5 146.5zM322 107q32 0 60 9t49 31.5t33.5 59.5t12.5 93t-12.5 93t-33.5 59.5t-49 31.5
t-60 9t-60.5 -9t-49.5 -31.5t-33.5 -59.5t-12.5 -93t12.5 -93t33.5 -59.5t49.5 -31.5t60.5 -9zM351 770h110v-110h-110v110zM181 770h110v-110h-110v110z" />
    <glyph glyph-name="divide" unicode="&#xf7;" horiz-adv-x="600" 
d="M245 560h110v-110h-110v110zM60 350h480v-100h-480v100zM245 150h110v-110h-110v110z" />
    <glyph glyph-name="oslash" unicode="&#xf8;" horiz-adv-x="645" 
d="M140 35q-51 35 -80.5 99.5t-29.5 165.5q0 87 23 147t62.5 97.5t92.5 54t114 16.5q65 0 119 -19l24 44h80l-41 -76q51 -36 81 -100t30 -164q0 -87 -23.5 -147t-63.5 -97.5t-93 -54t-113 -16.5q-65 0 -119 18l-23 -43h-80zM385 492q-14 5 -30 7.5t-33 2.5q-33 0 -62.5 -10
t-51.5 -33t-35 -62t-13 -97q0 -54 10.5 -91t30.5 -61zM259 108q14 -5 30 -7.5t33 -2.5q33 0 62.5 10t51.5 33t35 62t13 97q0 54 -11 90.5t-30 60.5z" />
    <glyph glyph-name="ugrave" unicode="&#xf9;" horiz-adv-x="651" 
d="M50 600h136v-350q0 -41 11 -68.5t30 -44t44.5 -23.5t54.5 -7q28 0 53.5 7t44.5 23.5t30 44t11 68.5v350h136v-350q0 -75 -22 -125t-59.5 -80.5t-87.5 -43.5t-106 -13q-57 0 -107.5 13t-88 43.5t-59 80.5t-21.5 125v350zM217 767l48 65l169 -141l-30 -41z" />
    <glyph glyph-name="uacute" unicode="&#xfa;" horiz-adv-x="651" 
d="M50 600h136v-350q0 -41 11 -68.5t30 -44t44.5 -23.5t54.5 -7q28 0 53.5 7t44.5 23.5t30 44t11 68.5v350h136v-350q0 -75 -22 -125t-59.5 -80.5t-87.5 -43.5t-106 -13q-57 0 -107.5 13t-88 43.5t-59 80.5t-21.5 125v350zM217 691l169 141l48 -65l-187 -117z" />
    <glyph glyph-name="ucircumflex" unicode="&#xfb;" horiz-adv-x="651" 
d="M50 600h136v-350q0 -41 11 -68.5t30 -44t44.5 -23.5t54.5 -7q28 0 53.5 7t44.5 23.5t30 44t11 68.5v350h136v-350q0 -75 -22 -125t-59.5 -80.5t-87.5 -43.5t-106 -13q-57 0 -107.5 13t-88 43.5t-59 80.5t-21.5 125v350zM156 691l169 141l169 -135l-30 -47l-139 87
l-139 -87z" />
    <glyph glyph-name="udieresis" unicode="&#xfc;" horiz-adv-x="651" 
d="M50 600h136v-350q0 -41 11 -68.5t30 -44t44.5 -23.5t54.5 -7q28 0 53.5 7t44.5 23.5t30 44t11 68.5v350h136v-350q0 -75 -22 -125t-59.5 -80.5t-87.5 -43.5t-106 -13q-57 0 -107.5 13t-88 43.5t-59 80.5t-21.5 125v350zM355 770h110v-110h-110v110zM185 770h110v-110
h-110v110z" />
    <glyph glyph-name="yacute" unicode="&#xfd;" horiz-adv-x="581" 
d="M222 252q-56 84 -116 174.5t-116 173.5h166l135 -217q34 54 68 108.5t67 108.5h165l-233 -348v-252h-136v252zM182 691l169 141l48 -65l-187 -117z" />
    <glyph glyph-name="thorn" unicode="&#xfe;" horiz-adv-x="640" 
d="M60 600h136v-99h209q42 0 79.5 -10.5t65 -34.5t44 -62.5t16.5 -93.5q0 -58 -16.5 -96.5t-44 -62t-65 -33t-79.5 -9.5h-209v-99h-136v600zM405 219q28 0 48.5 17t20.5 64q0 45 -20 63t-49 18h-209v-162h209z" />
    <glyph glyph-name="ydieresis" unicode="&#xff;" horiz-adv-x="581" 
d="M222 252q-56 84 -116 174.5t-116 173.5h166l135 -217q34 54 68 108.5t67 108.5h165l-233 -348v-252h-136v252zM320 770h110v-110h-110v110zM150 770h110v-110h-110v110z" />
    <glyph glyph-name="dotlessi" unicode="&#x131;" horiz-adv-x="256" 
d="M60 600h136v-600h-136v600z" />
    <glyph glyph-name="Lslash" unicode="&#x141;" horiz-adv-x="600" 
d="M80 337l-60 -21v106l60 21v257h140v-206l60 22v-106l-60 -22v-108q0 -46 14 -76.5t38.5 -49t57.5 -26.5t70 -8h180v-120h-180q-66 0 -124 14t-101.5 47t-69 86.5t-25.5 132.5v57z" />
    <glyph glyph-name="lslash" unicode="&#x142;" horiz-adv-x="524" 
d="M69 275q-11 -4 -26 -9.5t-23 -7.5v110l49 17v215h136v-167l50 19v-109l-50 -19v-82q0 -35 11 -58.5t30 -38t44 -20.5t54 -6h160v-119h-160q-56 0 -106 12t-87.5 40.5t-59.5 74.5t-22 115v33z" />
    <glyph glyph-name="OE" unicode="&#x152;" horiz-adv-x="1190" 
d="M30 350q0 101 26.5 171t72.5 113t108 62t133 19q84 0 155 -32.5t114 -106.5q38 67 98.5 95.5t132.5 28.5h260v-120h-240q-33 0 -62 -8.5t-52.5 -28t-40 -52t-22.5 -81.5h417v-120h-417q6 -49 22.5 -81.5t40 -52t52.5 -28t62 -8.5h240v-120h-260q-72 0 -132.5 28.5
t-98.5 94.5q-43 -74 -114 -106t-155 -32q-71 0 -133 19t-108 62t-72.5 113t-26.5 171zM370 105q41 0 77.5 11.5t63.5 39.5t43 75.5t16 118.5t-16 118.5t-43 75.5t-63.5 39.5t-77.5 11.5q-42 0 -78.5 -11.5t-63.5 -39.5t-42.5 -75.5t-15.5 -118.5t15.5 -118.5t42.5 -75.5
t63.5 -39.5t78.5 -11.5z" />
    <glyph glyph-name="oe" unicode="&#x153;" horiz-adv-x="1021" 
d="M30 300q0 87 22.5 146.5t62 96t93 53t114.5 16.5q69 0 126.5 -24t95.5 -81q34 51 83.5 72t108.5 21h225v-119h-209q-48 0 -85 -27t-49 -94h343v-120h-343q6 -34 18.5 -57t30.5 -37.5t39.5 -20.5t45.5 -6h209v-119h-225q-59 0 -108.5 22t-83.5 71q-38 -53 -97 -79
t-125 -26q-61 0 -114.5 16.5t-93 53t-62 96t-22.5 146.5zM322 107q32 0 60 9t49 31.5t33.5 59.5t12.5 93t-12.5 93t-33.5 59.5t-49 31.5t-60 9t-60.5 -9t-49.5 -31.5t-33.5 -59.5t-12.5 -93t12.5 -93t33.5 -59.5t49.5 -31.5t60.5 -9z" />
    <glyph glyph-name="Scaron" unicode="&#x160;" horiz-adv-x="710" 
d="M65 120h365q39 0 67 18.5t28 66.5q0 47 -28 66t-67 19h-170q-49 0 -89 10.5t-68 34.5t-43 63.5t-15 96.5q0 58 15 97.5t43 63.5t68 34t89 10h385v-120h-365q-39 0 -67 -18.5t-28 -66.5q0 -47 28 -66t67 -19h170q49 0 89 -10.5t68 -34.5t43 -63.5t15 -96.5q0 -59 -15 -98
t-43 -63t-68 -34t-89 -10h-385v120zM186 891l30 41l139 -87l139 87l30 -47l-169 -135z" />
    <glyph glyph-name="scaron" unicode="&#x161;" horiz-adv-x="624" 
d="M62 119h312q29 0 49 13t20 48q0 34 -20 47t-49 13h-141q-43 0 -77.5 9.5t-59 30.5t-38 55.5t-13.5 84.5q0 51 13.5 85.5t38 55.5t59 30t77.5 9h329v-119h-312q-29 0 -49 -13t-20 -48q0 -34 20 -47t49 -13h141q43 0 77.5 -9.5t59 -30.5t38 -55.5t13.5 -84.5
q0 -51 -13.5 -85.5t-38 -55.5t-59 -30t-77.5 -9h-329v119zM143 791l30 41l139 -87l139 87l30 -47l-169 -135z" />
    <glyph glyph-name="Ydieresis" unicode="&#x178;" horiz-adv-x="660" 
d="M260 296l-270 404h170l170 -273l170 273h170l-270 -404v-296h-140v296zM360 870h110v-110h-110v110zM190 870h110v-110h-110v110z" />
    <glyph glyph-name="florin" unicode="&#x192;" horiz-adv-x="780" 
d="M60 680h660v-660h-660v660zM449 140l20 183h41q28 0 42 12.5t17 41.5h-95l14 129h66q29 0 43 12.5t17 41.5h-120q-29 0 -43 -12.5t-17 -41.5l-39 -366h54zM306 140q29 0 43 12.5t17 41.5l19 183h-120l14 129h66l-5 -46h54l11 100h-120q-29 0 -43 -12.5t-17 -41.5
l-19 -183h120l-14 -129h-66l5 46h-54l-11 -100h120z" />
    <glyph glyph-name="circumflex" unicode="&#x2c6;" horiz-adv-x="458" 
d="M60 691l169 141l169 -135l-30 -47l-139 87l-139 -87z" />
    <glyph glyph-name="caron" unicode="&#x2c7;" horiz-adv-x="458" 
d="M60 791l30 41l139 -87l139 87l30 -47l-169 -135z" />
    <glyph glyph-name="breve" unicode="&#x2d8;" horiz-adv-x="350" 
d="M175 645q-24 0 -44.5 9t-36.5 25t-25 36.5t-9 44.5h60q0 -23 16 -39t39 -16t39 16t16 39h60q0 -24 -9 -44.5t-25 -36.5t-36.5 -25t-44.5 -9z" />
    <glyph glyph-name="dotaccent" unicode="&#x2d9;" horiz-adv-x="230" 
d="M60 770h110v-110h-110v110z" />
    <glyph glyph-name="ring" unicode="&#x2da;" horiz-adv-x="350" 
d="M175 645q-24 0 -44.5 9t-36.5 25t-25 36.5t-9 44.5t9 44.5t25 36.5t36.5 25t44.5 9t44.5 -9t36.5 -25t25 -36.5t9 -44.5t-9 -44.5t-25 -36.5t-36.5 -25t-44.5 -9zM175 705q23 0 39 16t16 39t-16 39t-39 16t-39 -16t-16 -39t16 -39t39 -16z" />
    <glyph glyph-name="ogonek" unicode="&#x2db;" horiz-adv-x="320" 
d="M60 -122q0 32 35.5 69.5t94.5 72.5h65q-18 -10 -38 -25.5t-37 -33.5t-28 -36.5t-11 -33.5q0 -17 17 -27.5t60 -10.5h19.5t22.5 2v-55q-107 0 -153.5 22t-46.5 56z" />
    <glyph glyph-name="tilde" unicode="&#x2dc;" horiz-adv-x="486" 
d="M60 717q9 4 21 11.5t26.5 14.5t31.5 12t36 5q23 0 40 -6t31.5 -13t29 -13t34.5 -6q25 0 47 11.5t42 23.5l27 -68q-11 -3 -24 -9.5t-27 -13t-30.5 -11.5t-34.5 -5q-23 0 -39.5 6t-31 13.5t-29.5 13.5t-35 6q-9 0 -21.5 -4t-25 -10t-24 -12.5t-17.5 -12.5z" />
    <glyph glyph-name="hungarumlaut" unicode="&#x2dd;" horiz-adv-x="537" 
d="M260 691l169 141l48 -65l-187 -117zM60 691l169 141l48 -65l-187 -117z" />
    <glyph glyph-name="Delta" unicode="&#x394;" horiz-adv-x="780" 
d="M60 680h660v-660h-660v660zM449 140l20 183h41q28 0 42 12.5t17 41.5h-95l14 129h66q29 0 43 12.5t17 41.5h-120q-29 0 -43 -12.5t-17 -41.5l-39 -366h54zM306 140q29 0 43 12.5t17 41.5l19 183h-120l14 129h66l-5 -46h54l11 100h-120q-29 0 -43 -12.5t-17 -41.5
l-19 -183h120l-14 -129h-66l5 46h-54l-11 -100h120z" />
    <glyph glyph-name="Delta" unicode="&#x2206;" horiz-adv-x="780" 
d="M60 680h660v-660h-660v660zM449 140l20 183h41q28 0 42 12.5t17 41.5h-95l14 129h66q29 0 43 12.5t17 41.5h-120q-29 0 -43 -12.5t-17 -41.5l-39 -366h54zM306 140q29 0 43 12.5t17 41.5l19 183h-120l14 129h66l-5 -46h54l11 100h-120q-29 0 -43 -12.5t-17 -41.5
l-19 -183h120l-14 -129h-66l5 46h-54l-11 -100h120z" />
    <glyph glyph-name="Omega" unicode="&#x3a9;" horiz-adv-x="780" 
d="M60 680h660v-660h-660v660zM449 140l20 183h41q28 0 42 12.5t17 41.5h-95l14 129h66q29 0 43 12.5t17 41.5h-120q-29 0 -43 -12.5t-17 -41.5l-39 -366h54zM306 140q29 0 43 12.5t17 41.5l19 183h-120l14 129h66l-5 -46h54l11 100h-120q-29 0 -43 -12.5t-17 -41.5
l-19 -183h120l-14 -129h-66l5 46h-54l-11 -100h120z" />
    <glyph glyph-name="Omega" unicode="&#x2126;" horiz-adv-x="780" 
d="M60 680h660v-660h-660v660zM449 140l20 183h41q28 0 42 12.5t17 41.5h-95l14 129h66q29 0 43 12.5t17 41.5h-120q-29 0 -43 -12.5t-17 -41.5l-39 -366h54zM306 140q29 0 43 12.5t17 41.5l19 183h-120l14 129h66l-5 -46h54l11 100h-120q-29 0 -43 -12.5t-17 -41.5
l-19 -183h120l-14 -129h-66l5 46h-54l-11 -100h120z" />
    <glyph glyph-name="pi" unicode="&#x3c0;" horiz-adv-x="780" 
d="M60 680h660v-660h-660v660zM449 140l20 183h41q28 0 42 12.5t17 41.5h-95l14 129h66q29 0 43 12.5t17 41.5h-120q-29 0 -43 -12.5t-17 -41.5l-39 -366h54zM306 140q29 0 43 12.5t17 41.5l19 183h-120l14 129h66l-5 -46h54l11 100h-120q-29 0 -43 -12.5t-17 -41.5
l-19 -183h120l-14 -129h-66l5 46h-54l-11 -100h120z" />
    <glyph glyph-name="endash" unicode="&#x2013;" horiz-adv-x="420" 
d="M60 355h300v-110h-300v110z" />
    <glyph glyph-name="emdash" unicode="&#x2014;" horiz-adv-x="920" 
d="M60 355h800v-110h-800v110z" />
    <glyph glyph-name="quoteleft" unicode="&#x2018;" 
d="M90 750h80l30 -350h-140z" />
    <glyph glyph-name="quoteright" unicode="&#x2019;" 
d="M60 750h140l-30 -350h-80z" />
    <glyph glyph-name="quotesinglbase" unicode="&#x201a;" 
d="M60 250h140l-30 -350h-80z" />
    <glyph glyph-name="quotedblleft" unicode="&#x201c;" horiz-adv-x="440" 
d="M270 750h80l30 -350h-140zM90 750h80l30 -350h-140z" />
    <glyph glyph-name="quotedblright" unicode="&#x201d;" horiz-adv-x="440" 
d="M240 750h140l-30 -350h-80zM60 750h140l-30 -350h-80z" />
    <glyph glyph-name="quotedblbase" unicode="&#x201e;" horiz-adv-x="440" 
d="M240 250h140l-30 -350h-80zM60 250h140l-30 -350h-80z" />
    <glyph glyph-name="dagger" unicode="&#x2020;" horiz-adv-x="560" 
d="M225 500h-165v100h163l-3 150h120l-4 -150h164v-100h-166l-14 -640h-80z" />
    <glyph glyph-name="daggerdbl" unicode="&#x2021;" horiz-adv-x="560" 
d="M60 200h172l-7 300h-165v100h163l-3 150h120l-4 -150h164v-100h-166l-7 -300h173v-100h-175l-5 -240h-80l-6 240h-174v100z" />
    <glyph glyph-name="bullet" unicode="&#x2022;" horiz-adv-x="500" 
d="M250 160q-39 0 -74 15t-60.5 40.5t-40.5 60.5t-15 74t15 73.5t40.5 60.5t60.5 41t74 15t73.5 -15t60.5 -41t41 -60.5t15 -73.5t-15 -74t-41 -60.5t-60.5 -40.5t-73.5 -15z" />
    <glyph glyph-name="ellipsis" unicode="&#x2026;" horiz-adv-x="740" 
d="M540 140h140v-140h-140v140zM300 140h140v-140h-140v140zM60 140h140v-140h-140v140z" />
    <glyph glyph-name="perthousand" unicode="&#x2030;" horiz-adv-x="1392" 
d="M238 329q-37 0 -69.5 10t-56.5 32.5t-38 59t-14 89.5t14 89t38 58.5t56.5 32.5t69.5 10q36 0 68.5 -10t56.5 -32.5t38.5 -58.5t14.5 -89t-14.5 -89.5t-38.5 -59t-56.5 -32.5t-68.5 -10zM608 700h90l-310 -700h-90zM238 405q19 0 35.5 5.5t29 18.5t20 35.5t7.5 55.5
t-7.5 55t-20 35t-29 18.5t-35.5 5.5q-20 0 -36.5 -5.5t-29 -18.5t-19.5 -35t-7 -55t7 -55.5t19.5 -35.5t29 -18.5t36.5 -5.5zM976 181q0 53 14 89t38 58.5t56.5 32.5t69.5 10q36 0 68.5 -10t56.5 -32.5t38.5 -58.5t14.5 -89t-14.5 -89.5t-38.5 -59t-56.5 -32.5t-68.5 -10
q-37 0 -69.5 10t-56.5 32.5t-38 59t-14 89.5zM580 181q0 53 14 89t38 58.5t56.5 32.5t69.5 10q36 0 68.5 -10t56.5 -32.5t38.5 -58.5t14.5 -89t-14.5 -89.5t-38.5 -59t-56.5 -32.5t-68.5 -10q-37 0 -69.5 10t-56.5 32.5t-38 59t-14 89.5zM1062 181q0 -33 7 -55.5t19.5 -35.5
t29 -18.5t36.5 -5.5q19 0 35.5 5.5t29 18.5t20 35.5t7.5 55.5t-7.5 55t-20 35t-29 18.5t-35.5 5.5q-20 0 -36.5 -5.5t-29 -18.5t-19.5 -35t-7 -55zM666 181q0 -33 7 -55.5t19.5 -35.5t29 -18.5t36.5 -5.5q19 0 35.5 5.5t29 18.5t20 35.5t7.5 55.5t-7.5 55t-20 35t-29 18.5
t-35.5 5.5q-20 0 -36.5 -5.5t-29 -18.5t-19.5 -35t-7 -55z" />
    <glyph glyph-name="guilsinglleft" unicode="&#x2039;" horiz-adv-x="366" 
d="M60 300l160 278l86 -50l-141 -228l141 -228l-86 -50z" />
    <glyph glyph-name="guilsinglright" unicode="&#x203a;" horiz-adv-x="366" 
d="M201 300l-141 228l86 50l160 -278l-160 -278l-86 50z" />
    <glyph glyph-name="fraction" unicode="&#x2044;" horiz-adv-x="412" 
d="M332 700h90l-342 -700h-90z" />
    <glyph glyph-name="zerosuperior" unicode="&#x2070;" horiz-adv-x="432" 
d="M216 271q-39 0 -72.5 11.5t-59 37.5t-40 67.5t-14.5 102.5t14.5 102.5t40 67.5t59 37.5t72.5 11.5q38 0 72 -11.5t59.5 -37.5t40 -67.5t14.5 -102.5t-14.5 -102.5t-40 -67.5t-59.5 -37.5t-72 -11.5zM216 343q21 0 39.5 7t32.5 24t22 45t8 71t-8 71t-22 45t-32.5 24
t-39.5 7t-39.5 -7t-32.5 -24t-22 -45t-8 -71t8 -71t22 -45t32.5 -24t39.5 -7z" />
    <glyph glyph-name="foursuperior" unicode="&#x2074;" horiz-adv-x="454" 
d="M20 448l247 252h107v-264h60v-72h-60v-84h-84v84h-270v84zM290 436v181l-174 -181h174z" />
    <glyph glyph-name="fivesuperior" unicode="&#x2075;" horiz-adv-x="456" 
d="M45 352h225q23 0 40 12.5t17 44.5t-17 44.5t-40 12.5h-225v234h342v-72h-258v-90h153q60 0 94.5 -28.5t34.5 -100.5q0 -37 -9 -61.5t-26 -39.5t-40.5 -21.5t-53.5 -6.5h-237v72z" />
    <glyph glyph-name="sixsuperior" unicode="&#x2076;" horiz-adv-x="447" 
d="M211 280q-38 0 -70.5 11t-57.5 35.5t-39 64.5t-14 99q0 58 14 98.5t39 65t57.5 35.5t70.5 11h178v-72h-166q-36 0 -64 -17t-39 -61h172q26 0 48.5 -6.5t39.5 -21t27 -39t10 -60.5q0 -40 -10 -67t-27 -44t-39.5 -24.5t-48.5 -7.5h-81zM274 352q23 0 41 16.5t18 54.5
q0 32 -18 44t-41 12h-160q1 -37 10 -61.5t23.5 -39t34 -20.5t41.5 -6h51z" />
    <glyph glyph-name="sevensuperior" unicode="&#x2077;" horiz-adv-x="377" 
d="M265 628h-240v72h342v-72l-216 -348h-108z" />
    <glyph glyph-name="eightsuperior" unicode="&#x2078;" horiz-adv-x="454" 
d="M170 280q-28 0 -52.5 5.5t-43 19t-29 35.5t-10.5 54q0 38 15.5 62t41.5 37q-21 13 -33 35.5t-12 57.5q0 32 10.5 54t29 35.5t43 19t52.5 5.5h90q28 0 52.5 -5.5t43 -19t29 -35.5t10.5 -54q0 -35 -12.5 -57.5t-32.5 -35.5q26 -13 41.5 -37t15.5 -62q0 -32 -10.5 -54
t-29 -35.5t-43 -19t-52.5 -5.5h-114zM272 526q21 0 36 11t15 40t-15 40t-36 11h-90q-21 0 -36 -11t-15 -40t15 -40t36 -11h90zM284 352q21 0 36 11t15 40t-15 40t-36 11h-114q-21 0 -36 -11t-15 -40t15 -40t36 -11h114z" />
    <glyph glyph-name="ninesuperior" unicode="&#x2079;" horiz-adv-x="447" 
d="M58 352h166q35 0 63 16.5t39 61.5h-171q-26 0 -48.5 6.5t-39.5 21t-27 39t-10 60.5q0 40 10 67t27 44t39.5 24.5t48.5 7.5h81q37 0 70 -11t58 -35.5t39 -65t14 -98.5q0 -59 -14 -99t-39 -64.5t-58 -35.5t-70 -11h-178v72zM333 501q-1 37 -10 61.5t-23.5 39t-34 20.5
t-41.5 6h-51q-23 0 -41 -16.5t-18 -54.5q0 -32 18 -44t41 -12h160z" />
    <glyph glyph-name="zeroinferior" unicode="&#x2080;" horiz-adv-x="432" 
d="M30 210q0 61 14.5 102.5t40 67.5t59 37.5t72.5 11.5q38 0 72 -11.5t59.5 -37.5t40 -67.5t14.5 -102.5t-14.5 -102.5t-40 -67.5t-59.5 -37.5t-72 -11.5q-39 0 -72.5 11.5t-59 37.5t-40 67.5t-14.5 102.5zM216 63q21 0 39.5 7t32.5 24t22 45t8 71t-8 71t-22 45t-32.5 24
t-39.5 7t-39.5 -7t-32.5 -24t-22 -45t-8 -71t8 -71t22 -45t32.5 -24t39.5 -7z" />
    <glyph glyph-name="oneinferior" unicode="&#x2081;" horiz-adv-x="204" 
d="M60 406l84 30v-432h-84v402z" />
    <glyph glyph-name="twoinferior" unicode="&#x2082;" horiz-adv-x="456" 
d="M45 123q0 69 34.5 96t94.5 27h96q23 0 40 11t17 40t-17 40t-40 11h-213v72h225q30 0 53.5 -6t40.5 -20.5t26 -38t9 -58.5q0 -69 -34.5 -96t-94.5 -27h-96q-23 0 -40 -11t-17 -40v-51h276v-72h-360v123z" />
    <glyph glyph-name="threeinferior" unicode="&#x2083;" horiz-adv-x="439" 
d="M50 72h219q21 0 36 11t15 40t-15 40t-36 11h-159v72h147q21 0 36 11t15 40t-15 40t-36 11h-207v72h207q28 0 52.5 -5.5t43 -19t29 -35.5t10.5 -54q0 -35 -12.5 -57.5t-32.5 -35.5q26 -13 41.5 -37t15.5 -62q0 -32 -10.5 -54t-29 -35.5t-43 -19t-52.5 -5.5h-219v72z" />
    <glyph glyph-name="fourinferior" unicode="&#x2084;" horiz-adv-x="454" 
d="M20 168l247 252h107v-264h60v-72h-60v-84h-84v84h-270v84zM290 156v181l-174 -181h174z" />
    <glyph glyph-name="fiveinferior" unicode="&#x2085;" horiz-adv-x="456" 
d="M45 72h225q23 0 40 12.5t17 44.5t-17 44.5t-40 12.5h-225v234h342v-72h-258v-90h153q60 0 94.5 -28.5t34.5 -100.5q0 -37 -9 -61.5t-26 -39.5t-40.5 -21.5t-53.5 -6.5h-237v72z" />
    <glyph glyph-name="sixinferior" unicode="&#x2086;" horiz-adv-x="447" 
d="M211 0q-38 0 -70.5 11t-57.5 35.5t-39 64.5t-14 99q0 58 14 98.5t39 65t57.5 35.5t70.5 11h178v-72h-166q-36 0 -64 -17t-39 -61h172q26 0 48.5 -6.5t39.5 -21t27 -39t10 -60.5q0 -40 -10 -67t-27 -44t-39.5 -24.5t-48.5 -7.5h-81zM114 199q1 -37 10 -61.5t23.5 -39
t34 -20.5t41.5 -6h51q23 0 41 16.5t18 54.5q0 32 -18 44t-41 12h-160z" />
    <glyph glyph-name="seveninferior" unicode="&#x2087;" horiz-adv-x="377" 
d="M265 348h-240v72h342v-72l-216 -348h-108z" />
    <glyph glyph-name="eightinferior" unicode="&#x2088;" horiz-adv-x="454" 
d="M35 114q0 38 15.5 62t41.5 37q-21 13 -33 35.5t-12 57.5q0 32 10.5 54t29 35.5t43 19t52.5 5.5h90q28 0 52.5 -5.5t43 -19t29 -35.5t10.5 -54q0 -35 -12.5 -57.5t-32.5 -35.5q26 -13 41.5 -37t15.5 -62q0 -32 -10.5 -54t-29 -35.5t-43 -19t-52.5 -5.5h-114
q-28 0 -52.5 5.5t-43 19t-29 35.5t-10.5 54zM272 246q21 0 36 11t15 40t-15 40t-36 11h-90q-21 0 -36 -11t-15 -40t15 -40t36 -11h90zM119 123q0 -29 15 -40t36 -11h114q21 0 36 11t15 40t-15 40t-36 11h-114q-21 0 -36 -11t-15 -40z" />
    <glyph glyph-name="nineinferior" unicode="&#x2089;" horiz-adv-x="447" 
d="M58 72h166q35 0 63 16.5t39 61.5h-171q-26 0 -48.5 6.5t-39.5 21t-27 39t-10 60.5q0 40 10 67t27 44t39.5 24.5t48.5 7.5h81q37 0 70 -11t58 -35.5t39 -65t14 -98.5q0 -59 -14 -99t-39 -64.5t-58 -35.5t-70 -11h-178v72zM333 221q-1 37 -10 61.5t-23.5 39t-34 20.5
t-41.5 6h-51q-23 0 -41 -16.5t-18 -54.5q0 -32 18 -44t41 -12h160z" />
    <glyph glyph-name="Euro" unicode="&#x20ac;" horiz-adv-x="760" 
d="M60 315h81q-1 8 -1 17v18v17.5t1 17.5h-111l30 70h89q12 67 39 113.5t65.5 76t86 42.5t100.5 13h260v-120h-240q-57 0 -102.5 -27.5t-65.5 -97.5h318l-30 -70h-299q-1 -8 -1 -17v-18t0.5 -18t0.5 -17h279l-30 -70h-238q20 -71 65.5 -98t102.5 -27h240v-120h-260
q-53 0 -100.5 13t-86 42.5t-65.5 76t-39 113.5h-119z" />
    <glyph glyph-name="trademark" unicode="&#x2122;" horiz-adv-x="1005" 
d="M478 700h121l112 -311l113 311h121v-420h-82v295l-106 -295h-91l-104 293v-293h-84v420zM210 628h-150v72h384v-72h-150v-348h-84v348z" />
    <glyph glyph-name="onethird" unicode="&#x2153;" horiz-adv-x="924" 
d="M60 686l84 30v-432h-84v402zM471 700h90l-342 -700h-90zM510 72h219q21 0 36 11t15 40t-15 40t-36 11h-159v72h147q21 0 36 11t15 40t-15 40t-36 11h-207v72h207q28 0 52.5 -5.5t43 -19t29 -35.5t10.5 -54q0 -35 -12.5 -57.5t-32.5 -35.5q26 -13 41.5 -37t15.5 -62
q0 -32 -10.5 -54t-29 -35.5t-43 -19t-52.5 -5.5h-219v72z" />
    <glyph glyph-name="twothirds" unicode="&#x2154;" horiz-adv-x="1149" 
d="M696 700h90l-342 -700h-90zM60 403q0 69 34.5 96t94.5 27h96q23 0 40 11t17 40t-17 40t-40 11h-213v72h225q30 0 53.5 -6t40.5 -20.5t26 -38t9 -58.5q0 -69 -34.5 -96t-94.5 -27h-96q-23 0 -40 -11t-17 -40v-51h276v-72h-360v123zM735 72h219q21 0 36 11t15 40t-15 40
t-36 11h-159v72h147q21 0 36 11t15 40t-15 40t-36 11h-207v72h207q28 0 52.5 -5.5t43 -19t29 -35.5t10.5 -54q0 -35 -12.5 -57.5t-32.5 -35.5q26 -13 41.5 -37t15.5 -62q0 -32 -10.5 -54t-29 -35.5t-43 -19t-52.5 -5.5h-219v72z" />
    <glyph glyph-name="oneeighth" unicode="&#x215b;" horiz-adv-x="929" 
d="M60 686l84 30v-432h-84v402zM471 700h90l-342 -700h-90zM485 114q0 38 15.5 62t41.5 37q-21 13 -33 35.5t-12 57.5q0 32 10.5 54t29 35.5t43 19t52.5 5.5h90q28 0 52.5 -5.5t43 -19t29 -35.5t10.5 -54q0 -35 -12.5 -57.5t-32.5 -35.5q26 -13 41.5 -37t15.5 -62
q0 -32 -10.5 -54t-29 -35.5t-43 -19t-52.5 -5.5h-114q-28 0 -52.5 5.5t-43 19t-29 35.5t-10.5 54zM581 297q0 -29 15 -40t36 -11h90q21 0 36 11t15 40t-15 40t-36 11h-90q-21 0 -36 -11t-15 -40zM569 123q0 -29 15 -40t36 -11h114q21 0 36 11t15 40t-15 40t-36 11h-114
q-21 0 -36 -11t-15 -40z" />
    <glyph glyph-name="threeeighths" unicode="&#x215c;" horiz-adv-x="1149" 
d="M691 700h90l-342 -700h-90zM60 352h219q21 0 36 11t15 40t-15 40t-36 11h-159v72h147q21 0 36 11t15 40t-15 40t-36 11h-207v72h207q28 0 52.5 -5.5t43 -19t29 -35.5t10.5 -54q0 -35 -12.5 -57.5t-32.5 -35.5q26 -13 41.5 -37t15.5 -62q0 -32 -10.5 -54t-29 -35.5
t-43 -19t-52.5 -5.5h-219v72zM705 114q0 38 15.5 62t41.5 37q-21 13 -33 35.5t-12 57.5q0 32 10.5 54t29 35.5t43 19t52.5 5.5h90q28 0 52.5 -5.5t43 -19t29 -35.5t10.5 -54q0 -35 -12.5 -57.5t-32.5 -35.5q26 -13 41.5 -37t15.5 -62q0 -32 -10.5 -54t-29 -35.5t-43 -19
t-52.5 -5.5h-114q-28 0 -52.5 5.5t-43 19t-29 35.5t-10.5 54zM801 297q0 -29 15 -40t36 -11h90q21 0 36 11t15 40t-15 40t-36 11h-90q-21 0 -36 -11t-15 -40zM789 123q0 -29 15 -40t36 -11h114q21 0 36 11t15 40t-15 40t-36 11h-114q-21 0 -36 -11t-15 -40z" />
    <glyph glyph-name="fiveeighths" unicode="&#x215d;" horiz-adv-x="1154" 
d="M696 700h90l-342 -700h-90zM60 352h225q23 0 40 12.5t17 44.5t-17 44.5t-40 12.5h-225v234h342v-72h-258v-90h153q60 0 94.5 -28.5t34.5 -100.5q0 -37 -9 -61.5t-26 -39.5t-40.5 -21.5t-53.5 -6.5h-237v72zM710 114q0 38 15.5 62t41.5 37q-21 13 -33 35.5t-12 57.5
q0 32 10.5 54t29 35.5t43 19t52.5 5.5h90q28 0 52.5 -5.5t43 -19t29 -35.5t10.5 -54q0 -35 -12.5 -57.5t-32.5 -35.5q26 -13 41.5 -37t15.5 -62q0 -32 -10.5 -54t-29 -35.5t-43 -19t-52.5 -5.5h-114q-28 0 -52.5 5.5t-43 19t-29 35.5t-10.5 54zM806 297q0 -29 15 -40t36 -11
h90q21 0 36 11t15 40t-15 40t-36 11h-90q-21 0 -36 -11t-15 -40zM794 123q0 -29 15 -40t36 -11h114q21 0 36 11t15 40t-15 40t-36 11h-114q-21 0 -36 -11t-15 -40z" />
    <glyph glyph-name="seveneighths" unicode="&#x215e;" horiz-adv-x="1069" 
d="M611 700h90l-342 -700h-90zM300 628h-240v72h342v-72l-216 -348h-108zM625 114q0 38 15.5 62t41.5 37q-21 13 -33 35.5t-12 57.5q0 32 10.5 54t29 35.5t43 19t52.5 5.5h90q28 0 52.5 -5.5t43 -19t29 -35.5t10.5 -54q0 -35 -12.5 -57.5t-32.5 -35.5q26 -13 41.5 -37
t15.5 -62q0 -32 -10.5 -54t-29 -35.5t-43 -19t-52.5 -5.5h-114q-28 0 -52.5 5.5t-43 19t-29 35.5t-10.5 54zM721 297q0 -29 15 -40t36 -11h90q21 0 36 11t15 40t-15 40t-36 11h-90q-21 0 -36 -11t-15 -40zM709 123q0 -29 15 -40t36 -11h114q21 0 36 11t15 40t-15 40t-36 11
h-114q-21 0 -36 -11t-15 -40z" />
    <glyph glyph-name="partialdiff" unicode="&#x2202;" horiz-adv-x="780" 
d="M60 680h660v-660h-660v660zM449 140l20 183h41q28 0 42 12.5t17 41.5h-95l14 129h66q29 0 43 12.5t17 41.5h-120q-29 0 -43 -12.5t-17 -41.5l-39 -366h54zM306 140q29 0 43 12.5t17 41.5l19 183h-120l14 129h66l-5 -46h54l11 100h-120q-29 0 -43 -12.5t-17 -41.5
l-19 -183h120l-14 -129h-66l5 46h-54l-11 -100h120z" />
    <glyph glyph-name="product" unicode="&#x220f;" horiz-adv-x="780" 
d="M60 680h660v-660h-660v660zM449 140l20 183h41q28 0 42 12.5t17 41.5h-95l14 129h66q29 0 43 12.5t17 41.5h-120q-29 0 -43 -12.5t-17 -41.5l-39 -366h54zM306 140q29 0 43 12.5t17 41.5l19 183h-120l14 129h66l-5 -46h54l11 100h-120q-29 0 -43 -12.5t-17 -41.5
l-19 -183h120l-14 -129h-66l5 46h-54l-11 -100h120z" />
    <glyph glyph-name="summation" unicode="&#x2211;" horiz-adv-x="780" 
d="M60 680h660v-660h-660v660zM449 140l20 183h41q28 0 42 12.5t17 41.5h-95l14 129h66q29 0 43 12.5t17 41.5h-120q-29 0 -43 -12.5t-17 -41.5l-39 -366h54zM306 140q29 0 43 12.5t17 41.5l19 183h-120l14 129h66l-5 -46h54l11 100h-120q-29 0 -43 -12.5t-17 -41.5
l-19 -183h120l-14 -129h-66l5 46h-54l-11 -100h120z" />
    <glyph glyph-name="minus" unicode="&#x2212;" horiz-adv-x="600" 
d="M60 350h480v-100h-480v100z" />
    <glyph glyph-name="radical" unicode="&#x221a;" horiz-adv-x="780" 
d="M60 680h660v-660h-660v660zM449 140l20 183h41q28 0 42 12.5t17 41.5h-95l14 129h66q29 0 43 12.5t17 41.5h-120q-29 0 -43 -12.5t-17 -41.5l-39 -366h54zM306 140q29 0 43 12.5t17 41.5l19 183h-120l14 129h66l-5 -46h54l11 100h-120q-29 0 -43 -12.5t-17 -41.5
l-19 -183h120l-14 -129h-66l5 46h-54l-11 -100h120z" />
    <glyph glyph-name="infinity" unicode="&#x221e;" horiz-adv-x="780" 
d="M60 680h660v-660h-660v660zM449 140l20 183h41q28 0 42 12.5t17 41.5h-95l14 129h66q29 0 43 12.5t17 41.5h-120q-29 0 -43 -12.5t-17 -41.5l-39 -366h54zM306 140q29 0 43 12.5t17 41.5l19 183h-120l14 129h66l-5 -46h54l11 100h-120q-29 0 -43 -12.5t-17 -41.5
l-19 -183h120l-14 -129h-66l5 46h-54l-11 -100h120z" />
    <glyph glyph-name="integral" unicode="&#x222b;" horiz-adv-x="780" 
d="M60 680h660v-660h-660v660zM449 140l20 183h41q28 0 42 12.5t17 41.5h-95l14 129h66q29 0 43 12.5t17 41.5h-120q-29 0 -43 -12.5t-17 -41.5l-39 -366h54zM306 140q29 0 43 12.5t17 41.5l19 183h-120l14 129h66l-5 -46h54l11 100h-120q-29 0 -43 -12.5t-17 -41.5
l-19 -183h120l-14 -129h-66l5 46h-54l-11 -100h120z" />
    <glyph glyph-name="approxequal" unicode="&#x2248;" horiz-adv-x="693" 
d="M60 416q14 5 32.5 15t41.5 19.5t49.5 17t56.5 7.5q36 0 62.5 -8.5t49.5 -18t46 -18t54 -8.5q38 0 72.5 16t66.5 33l42 -94q-17 -5 -37 -14t-42.5 -18t-48 -16t-53.5 -7q-37 0 -63 8.5t-48.5 19t-46 19t-54.5 8.5q-14 0 -33.5 -6t-39.5 -14t-37.5 -18t-27.5 -17zM60 216
q14 5 32.5 15t41.5 19.5t49.5 17t56.5 7.5q36 0 62.5 -8.5t49.5 -18t46 -18t54 -8.5q38 0 72.5 16t66.5 33l42 -94q-17 -5 -37 -14t-42.5 -18t-48 -16t-53.5 -7q-37 0 -63 8.5t-48.5 19t-46 19t-54.5 8.5q-14 0 -33.5 -6t-39.5 -14t-37.5 -18t-27.5 -17z" />
    <glyph glyph-name="notequal" unicode="&#x2260;" horiz-adv-x="600" 
d="M167 150h-107v100h169l61 100h-230v100h292l68 110h80l-68 -110h108v-100h-170l-61 -100h231v-100h-293l-67 -110h-80z" />
    <glyph glyph-name="lessequal" unicode="&#x2264;" horiz-adv-x="600" 
d="M62 490l432 210l44 -90l-370 -170l370 -170l-44 -90l-432 210v100zM60 100h480v-100h-480v100z" />
    <glyph glyph-name="greaterequal" unicode="&#x2265;" horiz-adv-x="600" 
d="M62 270l370 170l-370 170l44 90l432 -210v-100l-432 -210zM60 100h480v-100h-480v100z" />
    <glyph glyph-name="lozenge" unicode="&#x25ca;" horiz-adv-x="780" 
d="M60 680h660v-660h-660v660zM449 140l20 183h41q28 0 42 12.5t17 41.5h-95l14 129h66q29 0 43 12.5t17 41.5h-120q-29 0 -43 -12.5t-17 -41.5l-39 -366h54zM306 140q29 0 43 12.5t17 41.5l19 183h-120l14 129h66l-5 -46h54l11 100h-120q-29 0 -43 -12.5t-17 -41.5
l-19 -183h120l-14 -129h-66l5 46h-54l-11 -100h120z" />
    <glyph glyph-name="fi" unicode="&#xfb01;" horiz-adv-x="690" 
d="M130 487h-100v113h100v50q0 42 14 70.5t38 46.5t56.5 25.5t69.5 7.5h322v-110h-325q-19 0 -32 -8t-13 -29v-53h140v-113h-140v-487h-130v487zM500 600h130v-600h-130v600z" />
    <glyph glyph-name="fl" unicode="&#xfb02;" horiz-adv-x="690" 
d="M130 487h-100v113h100v50q0 42 14 70.5t38 46.5t56.5 25.5t69.5 7.5h322v-800h-130v690h-195q-19 0 -32 -8t-13 -29v-53h140v-113h-140v-487h-130v487z" />
    <glyph glyph-name="apple" horiz-adv-x="780" 
d="M60 680h660v-660h-660v660zM449 140l20 183h41q28 0 42 12.5t17 41.5h-95l14 129h66q29 0 43 12.5t17 41.5h-120q-29 0 -43 -12.5t-17 -41.5l-39 -366h54zM306 140q29 0 43 12.5t17 41.5l19 183h-120l14 129h66l-5 -46h54l11 100h-120q-29 0 -43 -12.5t-17 -41.5
l-19 -183h120l-14 -129h-66l5 46h-54l-11 -100h120z" />
    </font>
</defs>
</svg>
