<?xml version="1.0" standalone="no"?>
<!DOCTYPE svg PUBLIC "-//W3C//DTD SVG 1.1//EN" "http://www.w3.org/Graphics/SVG/1.1/DTD/svg11.dtd" >
<svg xmlns="http://www.w3.org/2000/svg" xmlns:xlink="http://www.w3.org/1999/xlink" version="1.1">
<metadata>
Created by FontForge 20170731 at Fri Dec 13 16:49:12 2013
 By Aleksey,,,
2013 Iconian Font - www.iconian.com
</metadata>
<defs>
<font id="FederalEscortChromeItalic" horiz-adv-x="800" >
  <font-face 
    font-family="Federal Escort Chrome Italic"
    font-weight="400"
    font-style="italic"
    font-stretch="normal"
    units-per-em="1000"
    panose-1="0 0 0 0 0 0 0 0 0 0"
    ascent="800"
    descent="-200"
    x-height="554"
    cap-height="554"
    bbox="-110 -201 1744 792"
    underline-thickness="50"
    underline-position="-175"
    unicode-range="U+0020-2122"
  />
<missing-glyph horiz-adv-x="500" 
 />
    <glyph glyph-name=".notdef" horiz-adv-x="500" 
 />
    <glyph glyph-name=".null" horiz-adv-x="0" 
 />
    <glyph glyph-name="nonmarkingreturn" horiz-adv-x="500" 
 />
    <glyph glyph-name="space" unicode=" " horiz-adv-x="384" 
 />
    <glyph glyph-name="space" unicode="&#xa0;" horiz-adv-x="384" 
 />
    <glyph glyph-name="FL0021h" unicode="!" horiz-adv-x="354" 
d="M126 216h-5l1 40h10l-3 4h-5l3 56h15l-5 7h-6l17 52h17l-8 11h-6l16 49h19l-8 13h-6l15 46h23l-12 17h-6l14 43h302l-2 -6l15 -22l-12 -37h-22v-1l14 -22l-13 -40h-19l13 -19l-14 -43h-17l12 -17l-15 -46h-13l9 -13l-31 -50h-13l7 -10l-18 -34h-133q26 -4 48 -19.5
t39 -39.5h-4l15 -22h-5l2 -4q3 -26 -2 -42q-2 -4 -3 -7t-5 -8l2 -2q-14 -20 -31 -36t-39 -27h-27l-1 -11q-29 -9 -54 -9q-27 0 -49 9l-7 11h-13q-9 6 -16 17l-3 5h-1q-25 20 -30 63h-1l1 3v3h1l5 14q3 11 9.5 21.5t15.5 21.5h-3q29 24 61.5 39.5t61.5 19.5h-82zM177 0
q27 0 47 7h-91q17 -7 44 -7zM368 227l10 18h-244l-1 -18h235zM237 184q-29 0 -58 -10.5t-51 -27.5h191q-11 17 -32 27.5t-50 10.5zM487 522l6 21h-280l-6 -21h280zM466 459l8 24h-280l-8 -24h280zM446 397l9 27h-280l-9 -27h280zM426 334l9 30h-280l-9 -30h280zM393 271
l20 34h-275l-2 -34h257zM256 20q37 19 56 47h-227q1 -27 24 -47h147zM86 83h234q2 2 4 9q4 16 3 34h-219q-6 -8 -11 -16t-8 -18z" />
    <glyph glyph-name="FL0022h" unicode="&#x22;" horiz-adv-x="518" 
d="M146 313q-1 -1 1 -3zM399 425v1h-1zM420 435h1v1zM410 515q1 1 0 1v-1zM418 482q0 1 4 7h-8l-1 -2zM381 323q-2 -2 -3 -3.5t-2 -3.5h11l-5 7h-1zM413 511l2 -2q3 -4 5.5 -8t4.5 -9v0q0 1 2 2h27l-12 17h-9q22 17 34 26.5t23 16.5h132q5 -7 12 -16.5t17 -26.5h-2l3 -4
q2 -4 5 -8.5t6 -9.5h-13v-1l14 -22l-4 -15q-1 -2 -1 -6l-7 -19h-19l13 -19l-14 -43h-16l12 -17q-5 -12 -11.5 -23.5t-15.5 -22.5h-19l9 -13q-62 -43 -109 -43q-49 0 -82 43l-6 7q-5 5 -9.5 10t-9.5 10q-2 -4 -4.5 -7.5t-4.5 -6.5h-18l9 -13q-29 -20 -58.5 -32t-52.5 -12
q-52 0 -83 44l-5 7q-11 9 -18 21h12l-5 7h-5q-2 13 0 26.5t6 25.5h17l-8 11h-6l16 49h19l-8 13h-6l8 27q2 3 3.5 6.5t7.5 12.5h29l-12 17h-9q21 17 30.5 24t16.5 12l9 7h130q13 -9 30 -43h-2zM401 305q21 -27 66 -27q44 0 83 27h-149zM164 305q21 -28 68 -28q22 0 44 7.5
t40 20.5h-152zM397 522q-6 13 -19 21h-122q-8 -5 -15.5 -10t-14.5 -11h171zM632 522q-5 9 -17 21h-126q-8 -5 -15 -10t-14 -11h172zM395 459l3 10q2 5 3 14h-206q-3 -4 -4 -8l-2 -6l-3 -10h209zM630 459l4 11q1 3 1.5 6.5t1.5 6.5h-207q-1 -1 -3 -7l-2 -6l-4 -11h209z
M610 397l9 27h-209l-9 -27h209zM375 397l9 27h-209l-9 -27h209zM390 364q-5 -14 -2 -30h194q6 8 10 15t7 15h-209zM155 364q-5 -14 -2 -30h194q11 15 17 30h-209z" />
    <glyph glyph-name="FL0023h" unicode="#" horiz-adv-x="853" 
d="M500 256h51l-3 4h-6l14 41h-54l9 -13zM865 256h45l-2 -6l15 -22l-17 -53h-6l4 -6l-18 -56h-4l2 -4l-11 -34h-67l-35 -108h-296l-15 22h-6l28 86h-41l-35 -108h-296l-15 22h-6l28 86h-39l-14 22h-6l51 159h77l-3 4h-6l14 41h-39l-15 22h-6l17 52h17l-8 11h-6l16 49h86
l-8 13h-6l15 46h23l-12 17h-6l14 43h302l-2 -6l15 -22l-12 -37h-22v-1l14 -22l-10 -31h60l-8 13h-6l15 46h23l-12 17h-6l14 43h302l-2 -6l15 -22l-12 -37h-22v-1l14 -22l-10 -31h45l-2 -6l15 -22l-14 -43h-17l12 -17l-15 -46h-80l9 -13zM751 7h-280l-2 -7h280zM386 7h-280
l-2 -7h280zM919 522l6 21h-280l-6 -21h280zM554 522l6 21h-280l-6 -21h280zM533 459l8 24h-280l-8 -24h280zM898 459l8 24h-280l-8 -24h280zM837 271l11 34h-280l-11 -34h280zM472 271l11 34h-280l-11 -34h280zM755 20l16 47h-280l-16 -47h280zM390 20l16 47h-280l-16 -47
h280zM945 397l9 27h-779l-9 -27h779zM925 334l9 30h-779l-9 -30h779zM131 83h280l8 25h85l-8 -25h280l8 25h67l6 18h-779l-6 -18h67zM884 208l12 37h-779l-12 -37h779zM863 146l13 40h-779l-13 -40h779z" />
    <glyph glyph-name="FL0024h" unicode="$" horiz-adv-x="782" 
d="M142 316l-5 7h-6l17 52h17l-8 11h-6l4 12q4 10 7.5 19t8.5 18h26l-8 13h-8q10 13 21.5 24t23.5 22h70l-12 17h-6l2 19q20 9 37.5 12.5t33.5 3.5h94l3 8h26l-13 20h-6l12 39h246l-2 -6l15 -22l-11 -33h-22l-1 -4l1 -2h239l-2 -6l15 -22l-9 -29h-22v-1l14 -22l-13 -40h-19
l13 -19l-14 -43h-153q36 -3 66 -23l-3 -5l14 -20h12q2 -5 4 -9.5t4 -9.5l7 -9q12 -21 9 -50h-10l7 -10l-17 -53h-6l4 -6l-8 -24q-2 -6 -6 -14l-9 -18h-5l2 -4q-24 -34 -50 -57l1 -2q-33 -25 -66.5 -39.5t-60.5 -14.5h-97l-29 -89h-240l-15 22h-6l22 67h-213l-15 22h-6
l55 169h127q-25 12 -48 41l-6 8q-5 5 -9 10t-9 10h8l-3 4h-4q-6 9 -8.5 23.5t-4.5 32.5h12zM485 -52h-224l-2 -8h224zM693 585l6 17h-224l-6 -17h224zM679 543h-224l-2 -8h-105q-28 0 -60 -13h626l4 13h-241zM488 -42l16 49h-224l-16 -49h224zM435 364h-280l-9 -27v-3h649
q-28 19 -63 19h-300zM893 459l8 24h-675q-8 -6 -13.5 -12t-10.5 -12h691zM873 397l9 27h-704q-7 -12 -12 -26v-1h707zM813 208l12 37h-656q14 -16 31 -25.5t35 -9.5h297v-2h281zM142 305q2 -21 10 -34h679q2 19 -8 34h-681zM805 186h-284q-10 -10 -21 -10h-406l-10 -30h705
q8 13 11 24zM59 67l-13 -38h241l-3 -9h224l3 9h105q25 0 51.5 10.5t50.5 27.5h-659zM78 126l-14 -43h673q23 20 40 43h-699z" />
    <glyph glyph-name="FL0025h" unicode="%" horiz-adv-x="951" 
d="M555 375h3l-2 3zM353 375h15l-8 11h-4zM362 409l5 17h-17zM559 554q3 -6 6.5 -12t7.5 -14l1 -2q5 -7 8 -15.5t8 -21.5h-20v-1l14 -22l-13 -40h-19l13 -19v-2l36 30h34l-8 13h-10l58 46h41l-12 17h-10l54 43h312l-7 -5l16 -23l-46 -37h-43l15 -23l-50 -40h-36l13 -19
l-53 -43h-32l12 -17l-57 -46h-26l7 -10h168q11 0 19.5 -3.5t17.5 -8.5l-3 -5l12 -18h4q1 -4 3 -10l12 -18q7 -22 1 -44l-3 -9h-6l4 -6l-18 -56h-4l2 -4l-23 -73q-5 -14 -15.5 -26.5t-23.5 -22.5h-19v-10q-23 -10 -38 -10h-233q-16 0 -30 10l-7 10h-4l-8 11q0 -1 -3 2v1l-4 8
h-4q-19 25 -10 52l23 70l-23 -18h-7l2 -4l-73 -59h1l-78 -63h-1l-24 -20h-304l-15 22h-9l24 20h-1l78 63h-1l79 63h-1l78 62h-1l62 50h-162q-13 0 -26 9t-23 24l-6 8q-13 13 -20 28h10l-5 7h-6l17 52h17l-8 11h-6l16 49h19l-8 13h-6l15 46h24l-12 17h-9q12 11 24 22.5
t24 20.5h321zM849 0q15 0 29 7h-287q11 -7 25 -7h233zM371 7h-284l-8 -7h284zM529 397l9 27h-160l-9 -27h160zM327 397l9 27h-161l-9 -27h161zM1006 522l25 21h-283l-25 -21h283zM928 459l30 24h-283l-30 -24h283zM239 543q-7 -5 -12.5 -10.5l-10.5 -10.5h345q-4 12 -11 21
h-311zM852 397l33 27h-283l-33 -27h283zM549 459l8 24h-363l-8 -24h363zM542 146l50 40h-284l-50 -40h284zM465 83l53 43h-284l-53 -43h284zM387 20l59 47h-284l-59 -47h284zM765 164q3 6 8 8h31q3 0 3.5 -3t-0.5 -5l-6 -18h160l13 40h-363l-13 -40h161zM753 126h-161
l-14 -43h363l14 43h-160l-5 -15q-3 -6 -8 -6h-31q-5 0 -3 6zM901 20q11 8 20 19t13 22l2 6h-363l-2 -6q-8 -23 6 -41h324zM708 280l30 25h-587q6 -11 17.5 -18t24.5 -7h231l-11 -9h552q-7 4 -13.5 6.5t-14.5 2.5h-229zM775 334l36 30h-283l-13 -11l3 11h-363l-7 -23l-2 -7
h629zM982 209q6 19 1 36h-602l-45 -37h646v1z" />
    <glyph glyph-name="FL0026h" unicode="&#x26;" horiz-adv-x="860" 
d="M174 259q2 -2 3 -2zM395 158h2h111q4 0 8.5 6t8.5 14h-95q-10 0 -20 -3h-15l4 -6zM951 361l-2 -6l15 -22l-10 -32h-13l9 -13l-17 -50h-10l7 -10l-17 -53h-70l4 -6l-18 -56h-5l2 -4q-8 -19 -14.5 -33.5t-14.5 -25.5q-17 -23 -33.5 -38t-33.5 -25h-22l-1 -11
q-13 -5 -24.5 -7t-23.5 -2h-457q-17 0 -30 1.5t-23 6.5l-8 12h-13q-12 9 -20 22q-14 11 -24 27t-15 42h1q-2 14 -1.5 28.5t3.5 30.5l2 10t3 11l13 39q2 8 3.5 9.5t3.5 5.5q2 3 3 6t3 5v-1q2 5 6.5 12.5t15.5 21.5h9l-3 4h-10l34 25q-8 11 -11 31h9l-5 7h-5q0 11 1 24t6 28
h16l-8 11h-6q5 14 10 26.5t10 22.5h26l-8 13h-8q12 18 19.5 28t15.5 18h36l-12 17h-11q26 18 42 28t25 15h564l-2 -6l15 -22l-12 -37h-22v-1l14 -22l-13 -40h-19l13 -19l-8 -26h-331q-19 0 -33 -17h-14q7 -3 16 -3h486zM645 0q24 0 41 7h-546q18 -7 48 -7h457zM805 414l3 10
h-629q-8 -15 -12 -27h277q14 17 38 17h323zM840 522l6 21h-549q-13 -7 -34 -21h577zM819 459l8 24h-607q-5 -6 -9.5 -12t-9.5 -12h618zM462 350q-30 0 -30 14h-274q-2 -8 -3 -15.5t0 -14.5h777l5 16h-475zM371 186h-274l-5 -16l-4 -12l-3 -12h721l13 40h-280v-2
q-5 -15 -15 -26t-19 -11h-111q-19 0 -24 10t0 24zM171 285q-5 -4 -9.5 -7t-9.5 -7h759l11 34h-763q3 -12 12 -20zM548 211l-1 -3h344l12 37h-774q-7 -9 -11.5 -18l-9.5 -19h285q9 3 23 3h132zM713 20q14 8 27.5 19.5t25.5 27.5h-681q7 -27 30 -47h598zM777 83
q6 10 11.5 20.5t10.5 22.5h-717q-3 -22 0 -43h695z" />
    <glyph glyph-name="FL0027h" unicode="'" horiz-adv-x="293" 
d="M395 554q9 -5 15.5 -16.5t13.5 -26.5q3 -5 5.5 -10.5t6.5 -11.5h-11v-1l14 -22l-4 -15q-1 -2 -1 -6l-7 -19h-19l13 -19l-14 -43h-16l12 -17q-10 -26 -28 -46h-20l9 -13q-66 -43 -112 -43q-51 0 -86 43l-8 10q-11 9 -16 18h11l-5 7h-5q-6 20 5 52h17l-8 11h-6l16 49h19
l-8 13h-6l9 28q1 4 2.5 7t8.5 11h29l-12 17h-9q37 32 58 43h137zM237 278q45 0 86 27h-156q22 -27 70 -27zM257 543q-17 -9 -31 -21h180q-6 12 -18 21h-131zM186 459h219l4 11q1 3 1.5 6.5t1.5 6.5h-217q-1 -1 -3 -7l-2 -6zM385 397l9 27h-219l-9 -27h219zM356 334
q5 7 10 14.5t8 15.5h-219q-5 -18 -1 -30h202z" />
    <glyph glyph-name="FL0028h" unicode="(" horiz-adv-x="444" 
d="M385 104h60l-2 -6l15 -22l-53 -163h-241q-7 0 -12.5 0.5t-10.5 1.5l-6 10h-17q-21 11 -37 35q-20 19 -34 49h-1q-5 15 -3 32.5t8 36.5l58 178h10l-3 4h-6l19 56h13l-5 7h-6l17 52h17l-8 11h-6l16 49h19l-8 13h-6l15 46h29l-12 17h-8q14 19 21 27l14 16h43l-13 20h-12
q25 15 42 24t25 14h1q0 1 1 1h299l-2 -6l15 -22l-11 -33h-22l-1 -4l15 -22l-12 -37h-22v-1l14 -22l-10 -31h-76q-5 0 -15 -9h-20l13 -19l-14 -43h-17l12 -17l-15 -46h-13l9 -13l-17 -50h-10l7 -10l-17 -53h-6l4 -6l-18 -56h-4l2 -4zM383 -52h-254q5 -1 10 -1.5t10 -0.5h233z
M597 585l6 17h-286q-8 -4 -16.5 -8t-16.5 -9h313zM577 522l6 21h-349q-5 -5 -9 -10.5t-8 -10.5h360zM447 397l9 27h-281l-9 -27h281zM564 483h-370l-4 -11l-4 -13h287q10 9 18 9h68zM427 334l9 30h-281l-9 -30h281zM406 271l11 34h-281l-11 -34h281zM386 208l12 37h-281
l-12 -37h281zM365 146l13 40h-281l-13 -40h281zM359 126h-281l-14 -43h363l3 10h-62q-8 0 -12 6.5t0 16.5zM386 -42l16 49h-341q12 -32 43 -49h282zM406 20l16 47h-363q-8 -23 -3 -47h350z" />
    <glyph glyph-name="FL0029h" unicode=")" horiz-adv-x="444" 
d="M525 613q8 -4 17 -13l26 -26h-6l14 -22h-3q2 -6 2 -10l12 -16q2 -6 2.5 -16t2.5 -21h-18v-3l14 -20q0 -7 -0.5 -10.5t-2.5 -8.5l-7 -21h-19l13 -19l-14 -43h-17l12 -17l-15 -46h-13l9 -13l-17 -50h-10l7 -10l-17 -53h-6l4 -6l-18 -56h-4l2 -4l-19 -59q-13 -36 -34 -59
l1 -1q-23 -23 -47.5 -39t-47.5 -26h-30l-4 -10h-1q-5 -1 -9.5 -1.5t-9.5 -0.5h-241l-15 22h-6l55 169h73q4 0 7.5 3.5t5.5 8.5l45 140h10l-3 4h-6l19 56h13l-5 7h-6l17 52h17l-8 11h-6l16 49h-61l-15 22h-6l13 37h23l-12 17h-6l14 43h26l-13 20h-6l12 39h300zM27 -52l-1 -2
h233q5 0 10.5 0.5t10.5 1.5h-253zM233 602l-6 -17h312q-10 9 -20 17h-286zM213 543l-6 -21h359q-1 5 -1.5 10.5t-2.5 10.5h-349zM536 397l9 27h-281l-9 -27h281zM194 483l-5 -15h68q6 0 11 -9h288l4 13q3 7 3 11h-369zM516 334l9 30h-281l-9 -30h281zM495 271l11 34h-281
l-11 -34h281zM475 208l12 37h-281l-12 -37h281zM454 146l13 40h-281l-13 -40h281zM434 83l14 43h-281l-3 -10q-4 -10 -12 -16.5t-16 -6.5h-62l-3 -10h363zM46 7l-16 -49h282q40 16 75 49h-341zM66 67l-16 -47h349q21 22 30 47h-363z" />
    <glyph glyph-name="asterisk" unicode="*" horiz-adv-x="302" 
d="M407 554h1l-1 1v-1zM428 448l14 -22h-58l13 -19l-70 -43h-18l-15 22h-5l-17 -22h-18l-41 43l-7 9l-9 10h-18l-14 22h-10l56 41h-11l-15 22h-7l29 43h33l-13 20h-7l26 39h16l17 -13l3 13h126l-3 -6l6 -7l40 17l1 -9l13 -20l1 -36h-14v-6l15 -20l1 -37h-69l34 -41h-5z
M276 585l-21 17h-4l-12 -17h37zM440 585v17l-41 -17h41zM253 397l22 27h-58l25 -27h11zM311 397l44 27h-60l5 -27h11zM385 585l8 17h-102l-4 -17h98zM407 459l-19 24h-169l-33 -24h221zM442 522l-1 21h-230l-13 -21h244z" />
    <glyph glyph-name="FL002Bh" unicode="+" horiz-adv-x="409" 
d="M410 364l2 -2h89l-2 -6l15 -22l-11 -33h-13l9 -13l-17 -50h-10l7 -10l-17 -53h-102l4 -6l-18 -56h-4l2 -4l-10 -31h-159l-15 22h-6l25 75h-68l-15 22h-6l19 59h10l-3 4h-6l19 56h13l-5 7h-6l13 39h96l4 13h17l-8 11h-6l16 49h165l-2 -6l15 -22l-14 -43h-17zM317 126h-143
l-5 -15h143zM405 397l9 27h-143l-9 -27h143zM323 146l13 40h-143l-13 -40h143zM394 364h-143l-4 -13h-96l-5 -17h335l5 17h-96zM460 271l11 34h-335l-11 -34h335zM452 245h-335l-12 -37h335z" />
    <glyph glyph-name="FL002Ch" unicode="," horiz-adv-x="309" 
d="M45 -89q-16 14 -26 36v1q-4 6 -4 11h3q0 9 1 16.5t3 13.5l34 103q3 11 9.5 21.5t15.5 21.5h-3q35 28 71.5 44t68.5 16t58 -16t45 -44h-4l15 -22h-5l2 -4q3 -26 -2 -42l-34 -103q-5 -17 -17 -32l1 -1q-29 -31 -67.5 -49t-73.5 -18q-29 0 -51.5 11t-36.5 31zM215 184
q-29 0 -58 -10.5t-51 -27.5h191q-11 17 -32 27.5t-50 10.5zM122 -103q34 0 66.5 14t54.5 37h-211q8 -23 31.5 -37t58.5 -14zM64 83h235l3 9q4 16 3 34h-219q-6 -8 -11 -16t-8 -18zM278 20l16 47h-235l-16 -47h235zM251 -42q12 14 17 31l6 18h-235l-6 -18q-4 -15 -4 -31h222z
" />
    <glyph glyph-name="FL002Dh" unicode="-" horiz-adv-x="409" 
d="M144 362h357l-2 -6l15 -22l-11 -33h-13l9 -13l-17 -50h-10l7 -10l-17 -53h-351l-15 22h-6l19 59h10l-3 4h-6l19 56h13l-5 7h-6zM146 334h335l5 17h-335zM460 271l11 34h-335l-11 -34h335zM440 208l12 37h-335l-12 -37h335z" />
    <glyph glyph-name="FL002Eh" unicode="." horiz-adv-x="309" 
d="M317 135l15 -22h-5l2 -4q3 -26 -2 -42q-2 -4 -3 -7t-5 -8l2 -2q-14 -20 -31 -36t-39 -27h-27l-1 -11q-29 -9 -54 -9q-27 0 -49 9l-7 11h-13q-9 6 -16 17l-3 5h-1q-25 20 -30 63h-1l1 3v3h1l5 14q3 11 9.5 21.5t15.5 21.5h-3q35 28 71.5 44t68.5 16t58 -16t45 -44h-4z
M111 7q17 -7 44 -7t47 7h-91zM297 146q-11 17 -32 27.5t-50 10.5t-58 -10.5t-51 -27.5h191zM63 67q1 -27 24 -47h147q37 19 56 47h-227zM64 83h234q2 2 4 9q4 16 3 34h-219q-6 -8 -11 -16t-8 -18z" />
    <glyph glyph-name="FL002Fh" unicode="/" horiz-adv-x="841" 
d="M6 -11h-9l24 20l72 63l7 6l68 59l69 60l67 59h17l-3 4h-9l65 56h22l-5 7h-9l60 52h30l-8 11h-9l56 49h33l-8 13h-9l53 46h41l-12 17h-9l49 43h356l-6 -5l16 -23l-44 -37h-41l15 -23l-47 -40h-34l13 -19l-49 -43h-32l12 -17l-54 -46h-23l9 -13l-58 -50h-19l7 -10l-60 -53
h-11l4 -6l-64 -56h-8l2 -4l-67 -59l-72 -63h-1l-24 -20h-348zM360 7h-328l-8 -7h328zM954 522l24 21h-328l-23 -21h327zM881 459l28 24h-328l-28 -24h328zM810 397l31 27h-328l-31 -27h328zM737 334l34 30h-328l-34 -30h328zM664 271l39 34h-328l-39 -34h328zM592 208l42 37
h-328l-42 -37h328zM520 146l46 40h-328l-46 -40h328zM448 83l49 43h-328l-49 -43h328zM375 20l55 47h-328l-55 -47h328z" />
    <glyph glyph-name="FL0030h" unicode="0" horiz-adv-x="781" 
d="M894 497q1 0 1 -1zM400 158h94q2 0 7 5t9 10l27 83h10l-3 4h-6l19 56h13l-5 7h-6l17 52h17l-4 6h-103q-9 -3 -18 -17h-18l12 -17l-15 -46h-13l9 -13l-17 -50h-10l7 -10l-17 -53h-6l4 -6zM886 511l8 -14l1 -1l6 -7h-7v-5l13 -18q2 -6 2.5 -14t1.5 -26h-15l13 -19l-14 -43
h-17l12 -17l-15 -46h-13l9 -13l-17 -50h-10l7 -10l-17 -53h-6l4 -6l-18 -56h-4l2 -4l-3 -11q-4 -11 -11 -23t-17 -25h1q-39 -41 -81 -63h-25l-1 -11q-27 -9 -47 -9h-447q-20 0 -41 9l-7 11h-11q-7 5 -13.5 11t-11.5 14q-26 21 -39 66h3q-2 26 5 45l43 133h10l-3 4h-6l19 56
h13l-5 7h-6l17 52h17l-8 11h-6l16 49h23l-8 13h-8q8 12 16.5 23.5t17.5 22.5h35l-12 17h-11q26 18 42 28t25 15h567q7 -5 16 -15.5t20 -27.5h-4zM614 0q22 0 40 7h-523q15 -7 36 -7h447zM853 334l9 30h-279l-9 -30h279zM425 334l9 30h-279l-9 -30h279zM832 271l11 34h-279
l-11 -34h279zM404 271l11 34h-279l-11 -34h279zM812 208l12 37h-279l-12 -37h279zM384 208l12 37h-279l-12 -37h279zM867 522q-9 12 -21 21h-559q-13 -7 -34 -21h614zM886 459q0 6 -1 12l-2 12h-672q-5 -6 -9 -12t-9 -12h693zM578 414q7 0 9.5 -5t3.5 -12h282l7 21l2 6h-707
l-2 -6l-7 -21h282q9 14 23 17h107zM376 186h-279l-13 -40h707l13 40h-279l-5 -16q-5 -6 -14 -14.5t-15 -8.5h-105q-13 0 -14.5 9t-0.5 14zM684 20q38 20 64 47h-672q9 -28 33 -47h575zM762 83q7 10 12.5 19.5t9.5 20.5l1 3h-707l-1 -3q-7 -20 -4 -40h689z" />
    <glyph glyph-name="FL0031h" unicode="1" horiz-adv-x="466" 
d="M163 403h-6l10 32h19l-8 13h-6l15 46h23l-12 17h-6l14 43h414l-2 -6l15 -22l-12 -37h-22v-1l14 -22l-13 -40h-19l13 -19l-14 -43h-17l12 -17l-15 -46h-13l9 -13l-17 -50h-10l7 -10l-17 -53h-6l4 -6l-18 -56h-4l2 -4l-46 -142h-296l-15 22h-6l87 267h10l-3 4h-6l19 56h13
l-5 7h-6l17 52h17l-4 6h-95zM431 7h-280l-2 -7h280zM599 522l6 21h-392l-6 -21h392zM538 334l9 30h-280l-9 -30h280zM558 397l9 27h-392l-3 -10h112l-6 -17h280zM578 459l8 24h-392l-8 -24h392zM517 271l11 34h-280l-11 -34h280zM497 208l12 37h-280l-12 -37h280zM476 146
l13 40h-280l-13 -40h280zM456 83l14 43h-280l-14 -43h280zM435 20l16 47h-280l-16 -47h280z" />
    <glyph glyph-name="FL0032h" unicode="2" horiz-adv-x="782" 
d="M857 554q6 -5 15.5 -15t23.5 -28h-5l15 -22h-8q1 -1 0.5 -2t0.5 -2l12 -19q2 -6 2.5 -17t0.5 -23h-17l13 -19l-14 -43h-17l12 -17l-15 -46h-16l9 -13q-11 -16 -22.5 -27.5l-22.5 -22.5h-19l7 -10q-34 -23 -64.5 -37t-49.5 -14h-289l-1 -2h-6l4 -6l-4 -11h405l-2 -6
l15 -22l-5 -17h-4l2 -4l-46 -142h-724l-15 22h-6l87 267h9l-3 4h-7q11 17 22 30t27 26h47l-5 7h-6l2 18q49 23 88 23h289l4 11h16l-4 6h-409l-15 22h-6l10 32h19l-8 13h-6l15 46h23l-12 17h-6l14 43h650zM745 0l2 7h-708l-2 -7h708zM378 186h-281l-13 -40h708l1 1h-427z
M874 397l9 27h-707l-3 -10h406q6 0 9 -5t3 -12h283zM214 543l-6 -21h663q-11 14 -22 21h-635zM854 334v3l9 27h-280l-3 -11h-300q-35 0 -76 -19h650zM195 483l-8 -24h702q0 6 -0.5 12t-1.5 12h-692zM117 245l-12 -37h281v2h297q17 0 41.5 9.5t47.5 25.5h-655zM806 271
q9 8 17 16.5t14 17.5h-680q-20 -17 -30 -34h679zM772 83l14 43h-708l-14 -43h708zM751 20l16 47h-708l-16 -47h708z" />
    <glyph glyph-name="FL0033h" unicode="3" horiz-adv-x="739" 
d="M508 361q21 0 30 14h15l-3 4q-2 1 -4 1.5t-5 0.5h-363l-15 22h-6l10 32h19l-8 13h-6l15 46h23l-12 17h-6l14 43h595q8 -6 17 -16t20 -27h-4l15 -22h-6l1 -6l12 -17q2 -4 2.5 -9.5t1.5 -11.5q0 -2 1 -9.5t1 -9.5h-15l13 -19q0 -6 -1.5 -14.5t-2.5 -13.5q-1 -2 -2 -7.5
t-2 -7.5h-17l12 -17q-2 -4 -6.5 -11.5t-6.5 -12.5q-2 -4 -5.5 -9t-8.5 -13h-17l9 -13q-9 -11 -16.5 -17.5t-13.5 -11.5q2 -3 4 -8t6 -13h-6l7 -10q2 -11 0.5 -24.5t-3.5 -28.5h-7l4 -6q0 -11 -3 -17l-6 -19q-1 -3 -2.5 -7t-6.5 -13h-3l2 -4q-8 -16 -16.5 -30t-21.5 -29
q-19 -22 -38.5 -37.5t-39.5 -25.5h-28l-1 -12q-23 -8 -58 -8h-522l-15 22h-6l55 169h367q23 0 31 20h-363l-15 22h-6l18 56h10l-3 4h-6l19 56h13l-5 7h-6l12 38h365zM551 0q30 0 51 7h-563l-2 -7h514zM175 424l-3 -10h355q23 0 25 -17h278q2 7 3 13t2 14h-660zM487 181
q-5 -14 -16 -24t-30 -10h-356l-1 -1h664q3 4 5 12l4 12l3 7q0 2 0.5 4.5t0.5 4.5h-273zM213 543l-6 -21h608q-4 5 -9.5 10.5t-12.5 10.5h-580zM151 350l-5 -16h655q4 7 7.5 14.5t8.5 15.5h-275q-9 -14 -37 -14h-354zM194 483l-8 -24h650q-1 6 -1.5 12t-2.5 12h-638zM754 285
q6 4 12 8.5t12 11.5h-642l-11 -34h637q-2 4 -4 7t-4 7zM461 211q12 0 20 -3h286q3 23 2 37h-652l-11 -34h355zM78 126l-14 -43h647q9 11 15.5 21.5t12.5 21.5h-661zM59 67l-16 -47h592q35 17 62 47h-638z" />
    <glyph glyph-name="FL0034h" unicode="4" horiz-adv-x="940" 
d="M586 295l2 6h-6zM520 238l2 -3h44l7 21h10l-3 4h-6l6 18l-43 -40h-17zM880 238l2 -3h108l-2 -6l15 -22l-10 -32h-6l4 -6l-18 -56h-4l2 -4l-19 -59h-123l-27 -83h-295l-15 22h-6l20 61h-436l-15 22h-6l36 110l15 15l65 59h17l-3 4h-9l62 56h22l-5 7h-9l57 52h29l-8 11h-9
l54 49h33l-8 13h-9l51 46h36l-12 17h-10q3 3 11.5 9t18 12.5t18 12.5t12.5 9h467l-2 -6l15 -22l-12 -37h-22v-1l14 -22l-13 -40h-19l13 -19l-14 -43h-17l12 -17l-15 -46h-13l9 -13l-17 -50h-10zM782 7h-279l-2 -7h279zM868 271l11 34h-279l-11 -34h279zM950 522l6 21h-452
q-8 -5 -15 -10.5t-14 -10.5h475zM519 271l36 34h-322l-37 -34h323zM929 459l8 24h-506l-27 -24h525zM786 20l16 47h-279l-16 -47h279zM909 397l9 27h-553l-30 -27h574zM889 334l9 30h-600l-32 -30h320q5 5 7 6.5t7 1.5q2 -2 6 -4t4 -3v-1h279zM492 245h-325l-41 -37h845
l5 16h-123l7 21h-279l-7 -21h-104zM84 146h866l13 40h-862l-6 -6zM930 83l14 43h-866l-14 -43h866z" />
    <glyph glyph-name="FL0035h" unicode="5" horiz-adv-x="782" 
d="M142 316l-5 7h-6l17 52h17l-8 11h-6l16 49h19l-8 13h-6l15 46h23l-12 17h-6l14 43h729l-2 -6l15 -22l-12 -37h-22v-1l14 -22l-13 -40h-19l13 -19l-8 -26h-427l-6 -17h267q19 0 37.5 -5.5t35.5 -17.5l-3 -5l14 -20h12q2 -5 4 -9.5t4 -9.5l7 -9q12 -21 9 -50h-10l7 -10
l-17 -53h-6l4 -6l-18 -56h-4l2 -4q-7 -16 -16.5 -30.5t-20.5 -28.5h1q-21 -20 -41.5 -36t-40.5 -27h-25l-1 -11q-27 -9 -48 -9h-578l-15 22h-6l55 169h417q5 0 10 7t7 12h-261q-20 0 -42 14t-42 37l-6 8q-5 5 -9 10t-9 10h8l-3 4h-4q-6 9 -8.5 23.5t-4.5 32.5h12zM607 0
q23 0 41 7h-609l-2 -7h570zM85 147l-1 -1h708l13 40h-281l-2 -9q-3 -8 -12 -19t-19 -11h-406zM879 414l3 10h-707l-9 -27h280l6 17h427zM914 522l6 21h-707l-6 -21h707zM432 353l3 11h-280l-9 -27v-3h649q-28 19 -63 19h-300zM893 459l8 24h-707l-8 -24h707zM532 210v-2h281
l12 37h-656q14 -16 31 -25.5t35 -9.5h297zM142 305q2 -21 10 -34h679q2 19 -8 34h-681zM78 126l-14 -43h693q19 24 28 43h-707zM59 67l-16 -47h635q36 19 64 47h-683z" />
    <glyph glyph-name="FL0036h" unicode="6" 
d="M383 170q3 0 1 2zM401 158h112q2 0 7 5t9 10l2 5h-123l-1 -3h-6l4 -6zM142 316l-5 7h-6l17 52h17l-8 11h-6l16 49h23l-8 13h-8q8 12 16.5 23.5t17.5 22.5h35l-12 17h-11q26 18 42 28t25 15h664l-2 -6l15 -22l-12 -37h-22v-1l14 -22l-13 -40h-19l13 -19l-8 -26h-430
q-7 0 -16 -11h282q20 0 46.5 -12.5t54.5 -34.5h-9l15 -22h-4l9 -13q5 -11 7 -23.5t1 -26.5h-10l7 -10l-17 -53h-6l4 -6l-18 -56h-4l2 -4l-3 -11q-4 -11 -11 -23t-17 -25h1q-39 -41 -81 -63h-25l-1 -11q-27 -9 -47 -9h-466q-11 0 -20.5 2t-19.5 7l-7 11h-11q-7 5 -13.5 11
t-11.5 14q-26 21 -39 66h2q-2 26 5 45l43 133h10l-3 4h-6l19 56h13zM132 7q14 -7 35 -7h466q22 0 40 7h-541zM448 397q5 7 11.5 12t13.5 5h422l3 10h-723l-2 -6l-7 -21h282zM930 522l6 21h-649q-13 -7 -34 -21h677zM909 459l8 24h-706q-5 -6 -9 -12t-9 -12h716zM435 364
h-280l-9 -30h672q-15 11 -32.5 18t-35.5 7h-316zM386 147q-11 0 -11.5 8.5t-2.5 14.5l5 16h-280l-13 -40h726l13 40h-279l-5 -16q-5 -6 -13 -14.5t-16 -8.5h-124zM136 305l-11 -34h723q2 18 -7 34h-705zM831 208l12 37h-726l-12 -37h280l1 3h167l-1 -3h279zM77 67
q9 -28 33 -47h593q38 20 64 47h-690zM804 126h-726l-1 -3q-7 -20 -4 -40h708q7 10 12.5 19.5t9.5 20.5z" />
    <glyph glyph-name="FL0037h" unicode="7" horiz-adv-x="829" 
d="M163 403h-6l10 32h19l-8 13h-6l15 46h23l-12 17h-6l14 43h777l-2 -6l15 -22l-12 -37h-22v-1l14 -22l-13 -40h-19l13 -19l-7 -21l-25 -22h-32l12 -17l-54 -46h-23l9 -13l-58 -50h-19l7 -10l-60 -53h-11l4 -6l-64 -56h-8l2 -4l-67 -59l-72 -63h-1l-24 -20h-348l-15 22h-9
l24 20l72 63l7 6l68 59l69 60l67 59h17l-3 4h-9l65 56h22l-5 7h-9l60 52h30l-4 6h-387zM449 0l8 7h-328l-8 -7h328zM834 334l34 30h-328l-34 -30h328zM761 271l39 34h-328l-39 -34h328zM689 208l42 37h-328l-42 -37h328zM617 146l46 40h-328l-46 -40h328zM930 424h-755
l-3 -10h427l-20 -17h328l20 17zM545 83l49 43h-328l-49 -43h328zM472 20l55 47h-328l-55 -47h328zM962 522l6 21h-755l-6 -21h755zM941 459l8 24h-755l-8 -24h755z" />
    <glyph glyph-name="FL0038h" unicode="8" horiz-adv-x="783" 
d="M173 259q2 -2 3 -2zM553 361q21 0 30 14h15l-3 4q-2 1 -4 1.5t-5 0.5h-96q-16 -1 -28 -17h-14q7 -3 16 -3h89zM394 158h2h97q19 3 27 20h-96q-3 -1 -7 -1.5l-4 -0.5q-1 0 -2.5 -0.5t-2.5 -0.5h-14l4 -6zM879 511l15 -22h-6l1 -6l12 -17q2 -4 2.5 -9.5t1.5 -11.5
q0 -2 1 -9.5t1 -9.5h-15l13 -19q0 -6 -1.5 -14.5t-2.5 -13.5q-1 -2 -2 -7.5t-2 -7.5h-17l12 -17q-2 -4 -6.5 -12t-6.5 -12t-5.5 -9t-8.5 -13h-17l9 -13q-9 -11 -16.5 -17.5t-13.5 -11.5q2 -3 4 -8t6 -13h-6l7 -10q2 -11 0.5 -24.5t-3.5 -28.5h-7l4 -6q0 -11 -3 -17l-6 -19
q-1 -3 -2.5 -7t-6.5 -13h-3l2 -4q-8 -16 -16.5 -30t-21.5 -29q-19 -22 -38.5 -37.5t-39.5 -25.5h-28l-1 -12q-23 -8 -58 -8h-409q-17 0 -30 1.5t-23 6.5l-8 12h-13q-12 9 -20 22q-14 11 -24 27t-15 42h1q-2 14 -1.5 28.5t3.5 30.5l2 10t3 11l13 39q2 8 3.5 9.5t3.5 5.5
q2 3 3 6t3 5q2 5 6.5 12t15.5 21h9l-3 4h-10l34 25q-8 11 -11 31h9l-5 7h-5q0 11 1 24t6 28h16l-8 11h-6q5 14 10 26.5t10 22.5h26l-8 13h-8q12 18 19.5 28t15.5 18h36l-12 17h-11q26 18 42 28t25 15h550q8 -6 17 -16t20 -27h-4zM596 0q30 0 51 7h-508q18 -7 48 -7h409z
M860 522q-4 5 -9.5 10.5t-12.5 10.5h-542q-13 -7 -34 -21h598zM881 459q-1 6 -1.5 12t-2.5 12h-658q-5 -6 -9.5 -12t-9.5 -12h681zM572 414q23 0 25 -17h278q2 7 3 13t2 14h-702q-8 -15 -12 -27h277q11 14 32 17h97zM461 350q-30 0 -30 14h-274q-2 -8 -3 -15.5t0 -14.5h692
q4 7 7.5 14.5t8.5 15.5h-275q-9 -14 -37 -14h-89zM170 285q-5 -4 -9.5 -7t-9.5 -7h656q-2 4 -4 7t-4 7q6 4 12 8.5t12 11.5h-665q3 -12 12 -20zM370 186h-274l-5 -16l-4 -12l-3 -12h709q3 4 5 12l4 12l3 7q0 2 0.5 4.5t0.5 4.5h-273l-1 -5q-10 -30 -41 -34h-98q-19 0 -24 10
t0 24zM512 211q9 -2 12 -3h288q3 23 2 37h-686q-7 -9 -11.5 -18l-9.5 -19h287q3 1 6 1.5l9 1.5h103zM680 20q35 17 62 47h-658q7 -27 30 -47h566zM756 83q9 11 15.5 21.5t12.5 21.5h-703q-3 -22 0 -43h675z" />
    <glyph glyph-name="FL0039h" unicode="9" 
d="M130 253q2 -3 3 -4zM450 364l2 -3h137l5 14h17l-4 6h-120q-4 0 -9.5 -5.5t-10.5 -11.5h-17zM909 511l15 -22h-5q0 -2 0.5 -2.5t-0.5 -2.5l13 -18q2 -8 2.5 -18t-1.5 -22h-18l13 -19l-14 -43h-17l12 -17l-15 -46h-13l9 -13l-17 -50h-10l7 -10l-17 -53h-6l4 -6l-18 -56h-5
l2 -4q-15 -37 -36 -59q-22 -23 -40.5 -37.5t-36.5 -25.5h-28l-1 -11q-13 -5 -24.5 -7t-23.5 -2h-594l-15 22h-6l55 169h433q3 0 7.5 5.5t7.5 11.5h-317q-18 5 -33.5 18t-29.5 32q-6 7 -12.5 14.5t-11.5 16.5h9l-3 4h-4q-4 13 -3 27.5t6 28.5h13l-5 7h-6l17 52h17l-8 11h-6
l16 49h18l-8 13h-7q6 11 14 23t18 23h37l-12 17h-10q26 20 39.5 28.5t25.5 14.5h595q7 -5 16 -15.5t20 -27.5h-4zM42 7l-2 -7h586q24 0 41 7h-625zM810 146l13 40h-280l-2 -7h2l-2 -2q-3 -8 -12 -19t-19 -11h-422l-1 -1h723zM890 522q-9 12 -21 21h-587q-10 -5 -18 -10
t-16 -11h642zM597 414q9 0 10.5 -5.5t1.5 -11.5h283l9 27h-726l-9 -27h282q5 6 11.5 11.5t13.5 5.5h124zM909 459q1 6 0.5 12t-1.5 12h-703q-5 -6 -9 -12l-8 -12h721zM434 364h-279l-9 -30h726l9 30h-280l-4 -14h-167zM851 271l11 34h-726q-5 -19 -1 -34h716zM831 208l12 37
h-695q17 -27 51 -37h632zM81 126l-14 -43h708q8 9 14.5 19.5t12.5 23.5h-721zM62 67l-16 -47h652q36 19 62 47h-698z" />
    <glyph glyph-name="FL003Ah" unicode=":" horiz-adv-x="309" 
d="M141 316l-5 7h-6q5 14 14.5 27.5t20.5 24.5h25l-8 11h-15q39 19 71 29.5t54 10.5q44 0 74 -22l-2 -5l14 -22l-1 -2h10q0 -2 0.5 -4.5t0.5 -4.5l14 -19q2 -7 2.5 -18t-2.5 -28h-14l9 -13q-9 -15 -18.5 -27.5t-21.5 -22.5h-46l7 -10l-1 -14q-20 -8 -38 -12t-36 -4
q-33 0 -63 16l-14 18l-4 2t-4 3v1h-3l-15 22h-4q-13 21 -9 56h14zM317 135l15 -22h-5l2 -4q3 -26 -2 -42q-2 -4 -3 -7t-5 -8l2 -2q-14 -20 -31 -36t-39 -27h-27l-1 -11q-29 -9 -54 -9q-27 0 -49 9l-7 11h-13q-9 6 -16 17l-3 5h-1q-25 20 -30 63h-1l1 3v3h1l5 14
q3 11 9.5 21.5t15.5 21.5h-3q35 28 71.5 44t68.5 16t58 -16t45 -44h-4zM111 7q17 -7 44 -7t47 7h-91zM171 245q26 -14 58 -14q33 0 67 14h-125zM353 397q-26 18 -64 18q-20 0 -39.5 -5t-36.5 -13h140zM297 146q-11 17 -32 27.5t-50 10.5t-58 -10.5t-51 -27.5h191zM379 334
q3 19 -2 30h-211q-14 -14 -20 -30h233zM137 305q-2 -20 7 -34h195q10 8 16.5 16.5t11.5 17.5h-230zM63 67q1 -27 24 -47h147q37 19 56 47h-227zM64 83h234q2 2 4 9q4 16 3 34h-219q-6 -8 -11 -16t-8 -18z" />
    <glyph glyph-name="FL003Bh" unicode=";" horiz-adv-x="309" 
d="M141 316l-5 7h-6q5 14 14.5 27.5t20.5 24.5h25l-8 11h-15q39 19 71 29.5t54 10.5q44 0 74 -22l-2 -5l14 -22l-1 -2h10q0 -2 0.5 -4.5t0.5 -4.5l14 -19q2 -7 2.5 -18t-2.5 -28h-14l9 -13q-9 -15 -18.5 -27.5t-21.5 -22.5h-46l7 -10l-1 -14q-20 -8 -38 -12t-36 -4
q-33 0 -63 16l-14 18l-4 2t-4 3v1h-3l-15 22h-4q-13 21 -9 56h14zM56 92q3 11 9.5 21.5t15.5 21.5h-3q35 28 71.5 44t68.5 16t58 -16t45 -44h-4l15 -22h-5l2 -4q3 -26 -2 -42l-34 -103q-5 -17 -17 -32l1 -1q-29 -31 -67.5 -49t-73.5 -18q-29 0 -51.5 11t-36.5 31l-3 5
q-16 14 -26 36v1q-4 6 -4 11h3q0 9 1 16.5t3 13.5zM171 245q26 -14 58 -14q33 0 67 14h-125zM353 397q-26 18 -64 18q-20 0 -39.5 -5t-36.5 -13h140zM297 146q-11 17 -32 27.5t-50 10.5t-58 -10.5t-51 -27.5h191zM379 334q3 19 -2 30h-211q-14 -14 -20 -30h233zM137 305
q-2 -20 7 -34h195q10 8 16.5 16.5t11.5 17.5h-230zM32 -52q8 -23 31.5 -37t58.5 -14q34 0 66.5 14t54.5 37h-211zM299 83l3 9q4 16 3 34h-219q-6 -8 -11 -16t-8 -18l-3 -9h235zM278 20l16 47h-235l-16 -47h235zM33 -11q-4 -15 -4 -31h222q12 14 17 31l6 18h-235z" />
    <glyph glyph-name="FL003Ch" unicode="&#x3c;" horiz-adv-x="609" 
d="M101 281l41 35h22l-5 7h-9l60 52h29l-8 11h-9l58 49h32l-8 13h-9l53 46h40l-12 17h-9l49 43h356l-6 -5l16 -23l-42 -37h-42l15 -23l-47 -40h-34l13 -19l-51 -43h-30l12 -17l-54 -46h-23l9 -13l-38 -33l11 -21l4 -6l26 -53h-1l4 -6l28 -56h-1l2 -4l31 -59l32 -63h-1
l11 -20h-348l-15 22h-4l-10 20h-1l-35 69h1l-30 57l-31 62l-29 59h4l-3 4h-4zM585 0l-4 7h-328l4 -7h328zM722 522l23 21h-328l-23 -21h328zM649 459l28 24h-328l-28 -24h328zM577 397l32 27h-328l-32 -27h328zM505 334l34 30h-328l-34 -30h328zM120 271h328l-5 10l28 24
h-328l-28 -24zM480 208l-18 37h-328l18 -37h328zM510 146l-20 40h-328l20 -40h328zM543 83l-22 43h-328l22 -43h328zM574 20l-23 47h-328l23 -47h328z" />
    <glyph glyph-name="FL003Dh" unicode="=" horiz-adv-x="450" 
d="M137 323h-6l17 52h17l-8 11h-6l16 49h398l-2 -6l15 -22l-14 -43h-17l12 -17l-15 -46h-392zM64 97h-6l51 159h398l-2 -6l15 -22l-17 -53h-6l4 -6l-18 -56h-4l2 -4l-11 -34h-392zM454 126h-376l-6 -18h376zM542 397l9 27h-376l-9 -27h376zM522 334l9 30h-376l-9 -30h376z
M481 208l12 37h-376l-12 -37h376zM460 146l13 40h-376l-13 -40h376z" />
    <glyph glyph-name="FL003Eh" unicode="&#x3e;" horiz-adv-x="609" 
d="M5 -11h-9l24 20l72 63l7 6l68 59l69 60l69 59h14l-3 4h-10l27 21l-17 35h6l-5 7h-4l-27 52h6l-8 11h-4l-24 49h7l-8 13h-4l-24 46h6l-12 17h-4l-21 43h356l10 -22l5 -6l18 -37h-1l10 -21l2 -2l21 -40h-1l7 -14l4 -5l21 -43h-2l8 -15l2 -2l24 -46h-1l7 -13l3 -7l13 -25
l-22 -18h-17l7 -10l-62 -53h-10l4 -6l-64 -56h-8l2 -4l-67 -59l-72 -63h-1l-24 -20h-348zM359 7h-328l-8 -7h328zM554 522l-11 21h-328l11 -21h328zM586 459l-12 24h-328l12 -24h328zM617 397l-13 27h-328l13 -27h328zM649 334l-16 30h-328l16 -30h328zM663 305h-328l12 -24
l-12 -10h328l12 10zM591 208l43 37h-328l-43 -37h328zM519 146l46 40h-328l-46 -40h328zM447 83l49 43h-328l-49 -43h328zM374 20l55 47h-328l-55 -47h328z" />
    <glyph glyph-name="FL003Fh" unicode="?" horiz-adv-x="782" 
d="M857 554q6 -5 15.5 -15t23.5 -28h-5l15 -22h-8q1 -1 0.5 -2t0.5 -2l12 -19q2 -6 2.5 -17t0.5 -23h-17l13 -19l-14 -43h-17l12 -17l-15 -46h-17l9 -13q-13 -17 -23.5 -29.5t-21.5 -20.5h-18l7 -10q-34 -22 -64 -34.5t-49 -12.5h-318q28 -17 48 -46h-4l15 -22h-5l2 -4
q3 -26 -2 -42q-2 -4 -3 -7t-5 -8l2 -2q-14 -20 -31 -36t-39 -27h-27l-1 -11q-29 -9 -54 -9q-27 0 -49 9l-7 11h-13q-9 6 -16 17l-3 5h-1q-25 20 -30 63h-1l1 3v3h1l5 14q3 11 9.5 21.5t15.5 21.5h-3q38 30 76 46h-41l-15 22h-6l17 53h9l-3 4h-7q11 17 22 30t27 26h47l-5 7
h-6l2 18q49 23 88 23h181l4 11h16l-4 6h-409l-15 22h-6l10 32h19l-8 13h-6l15 46h23l-12 17h-6l14 43h650zM263 0q27 0 47 7h-91q17 -7 44 -7zM323 184q-29 0 -58 -10.5t-51 -27.5h191q-11 17 -32 27.5t-50 10.5zM342 20q37 19 56 47h-227q1 -27 24 -47h147zM172 83h234
q2 2 4 9q4 16 3 34h-219q-6 -8 -11 -16t-8 -18zM176 424l-3 -10h406q6 0 9 -5t3 -12h283l9 27h-707zM863 364h-280l-3 -11h-192q-35 0 -76 -19h542v3zM214 543l-6 -21h663q-11 14 -22 21h-635zM685 214q17 0 39.5 8.5t45.5 22.5h-545l-10 -31h470zM195 483l-8 -24h702
q0 6 -0.5 12t-1.5 12h-692zM265 305q-20 -17 -30 -34h570q18 13 32 34h-572z" />
    <glyph glyph-name="FL0040h" unicode="@" horiz-adv-x="1051" 
d="M825 298l3 3h-4zM408 234l1 4h-4zM421 256h4l-3 4zM620 256h8l-3 4h-4zM428 294l2 7h-7zM441 316h7l-5 7zM842 316h9l-5 7h-2zM629 290l4 11h-11zM448 356q0 4 2 8h-11l8 -11zM778 432q17 0 31.5 -12t25.5 -34h-2l9 -13q2 -2 2 -4q0 -1 1 -3l2 -2h-9l10 -15l9 26h17
l-8 11h-6l16 49h-384q-5 0 -15 -9h-20l13 -19l-10 -32h21l-8 11h-9q26 22 48.5 34t39.5 12h226zM1182 574l14 -22h-3q2 -6 2 -10l12 -16q2 -6 2.5 -16t2.5 -21h-18v-3l14 -20q0 -7 -0.5 -10.5t-2.5 -8.5l-7 -21h-19l13 -19l-14 -43h-17l12 -17l-15 -46h-13l9 -13l-17 -50
h-10l7 -10q-19 -36 -38 -53h-8l4 -6q-60 -44 -99 -56h-547q-14 6 -21 18l-6 8q-18 11 -23 39l-1 -3h-6l4 -6l-18 -56h-4l2 -4l-1 -5h379l-2 -6l15 -22l-53 -163h-560q-7 0 -12.5 0.5t-10.5 1.5l-6 10h-17q-21 11 -37 35q-20 19 -34 49h-1q-1 2 -1 4t-1 4v1q-4 25 7 60
l58 178h10l-3 4h-6l19 56h13l-5 7h-6l17 52h17l-8 11h-6l16 49h19l-8 13h-6l15 46h29l-12 17h-8q14 19 21 27l14 16h43l-13 20h-12q25 15 42 24t25 14h1q0 1 1 1h840q8 -4 17 -13l26 -26h-6zM689 -52h-573q5 -1 10 -1.5t10 -0.5h552zM442 305l-11 -34h161l11 34h-161z
M549 421q-29 0 -58 -24h325q-13 24 -41 24h-226zM1156 397l9 27h-281l-9 -27h281zM434 397l9 27h-281l-9 -27h281zM1136 334l9 30h-281l-9 -30h281zM414 334l9 30h-281l-9 -30h281zM393 271l11 34h-281l-11 -34h281zM373 208l12 37h-281l-12 -37h281zM462 364q-2 -2 -2 -4
t-1 -4l-2 -6l-5 -16h363l5 16q1 2 1 5q0 4 1 9h-360zM352 146l13 40h-281l-13 -40h281zM1159 585q-10 9 -20 17h-835q-8 -4 -16.5 -8t-16.5 -9h888zM805 305h-160l-11 -34h481l11 34h-282q-9 -18 -25 -18h-20zM346 126h-281l-14 -43h682l3 10h-381q-8 0 -12 6.5t0 16.5z
M1176 459l4 13q3 7 3 11h-1002l-4 -11l-4 -13h287q10 9 18 9h399q6 0 11 -9h288zM1186 522q-1 5 -1.5 10.5t-2.5 10.5h-961q-5 -5 -9 -10.5t-8 -10.5h982zM406 186q1 -14 8 -24.5t18 -15.5h544q20 5 38.5 15.5t37.5 24.5h-646zM423 245l-12 -37h666q8 8 15 17t13 20h-682z
M692 -42l16 49h-660q12 -32 43 -49h601zM712 20l16 47h-682q-8 -23 -3 -47h669z" />
    <glyph glyph-name="FL0041h" unicode="A" 
d="M450 312h123l2 4h13l-5 7h-6l17 52h17l-4 6h-120q-4 0 -10 -5.5t-11 -11.5h-16l12 -17zM909 511l15 -22h-6q1 -1 0.5 -2t0.5 -2l12 -19q2 -6 2.5 -17t0.5 -23h-19l13 -19l-14 -43h-17l12 -17l-15 -46h-13l9 -13l-17 -50h-10l7 -10l-17 -53h-6l4 -6l-18 -56h-4l2 -4
l-46 -142h-296l-15 22h-6l45 136h-123l-4 -12h-4l2 -4l-46 -142h-295l-15 22h-6l87 267h10l-3 4h-6l19 56h13l-5 7h-6l17 52h17l-8 11h-6l16 49h18l-8 13h-7q6 11 14 23t18 23h38l-12 17h-10q26 20 39.5 28.5t25.5 14.5h593q8 -6 17 -16t20 -27h-4zM318 7h-279l-2 -7h279z
M765 7h-280l-2 -7h280zM425 334l9 30h-279l-9 -30h279zM872 334l9 30h-280l-9 -30h280zM343 83l14 43h-279l-14 -43h279zM790 83l14 43h-280l-14 -43h280zM890 522q-4 5 -9.5 10.5t-12.5 10.5h-585q-10 -5 -18 -10t-16 -11h641zM322 20l16 47h-279l-16 -47h279zM769 20
l16 47h-280l-16 -47h280zM892 397l9 27h-726l-9 -27h281q5 6 12 11.5t14 5.5h124q9 0 10.5 -5.5t1.5 -11.5h283zM909 459q0 6 -0.5 12t-1.5 12h-702q-5 -6 -9 -12l-8 -12h721zM415 305h-279l-11 -34h726l11 34h-280l-1 -4h-167zM831 208l12 37h-726l-12 -37h726zM810 146
l13 40h-726l-13 -40h279l4 12h167l-4 -12h280z" />
    <glyph glyph-name="FL0042h" unicode="B" 
d="M903 497q1 0 1 -1zM400 158h105q23 0 31 20h-129l-1 -3h-6l4 -6zM450 364l2 -3h117q21 0 30 14h15l-3 4q-2 1 -4 1.5t-5 0.5h-129l-6 -17h-17zM863 554q7 -5 16 -15.5t20 -27.5h-4l8 -14l1 -1l6 -7h-6l1 -6l12 -17q2 -4 2.5 -9.5t1.5 -11.5q0 -2 1 -9.5t1 -9.5h-15
l13 -19q0 -6 -1.5 -14.5t-2.5 -13.5q-1 -2 -2 -7.5t-2 -7.5h-17l12 -17q-2 -4 -6.5 -12t-6.5 -12t-5.5 -9t-8.5 -13h-17l9 -13q-9 -11 -16.5 -17.5t-13.5 -11.5q2 -3 4 -8t6 -13h-6l7 -10q2 -11 0.5 -24.5t-3.5 -28.5h-7l4 -6q0 -11 -3 -17l-6 -19q-1 -3 -2.5 -7t-6.5 -13
h-3l2 -4q-8 -16 -16.5 -30t-21.5 -29q-19 -22 -38.5 -37.5t-39.5 -25.5h-28l-1 -12q-23 -8 -58 -8h-583l-15 22h-6l87 267h10l-3 4h-6l19 56h13l-5 7h-6l17 52h17l-8 11h-6l16 49h19l-8 13h-6l15 46h23l-12 17h-6l14 43h657zM612 0q30 0 51 7h-624l-2 -7h575zM213 543
l-6 -21h669q-9 12 -21 21h-642zM891 397q2 7 3 13t2 14h-721l-9 -27h279l6 17h137q23 0 25 -17h278zM194 483l-8 -24h711q-1 6 -1.5 12t-2.5 12h-699zM434 364h-279l-9 -30h716q4 7 7.5 14.5t8.5 15.5h-275q-9 -14 -37 -14h-136zM376 186h-279l-13 -40h725q3 4 5 12l4 12
l3 7q0 2 0.5 4.5t0.5 4.5h-273l-1 -5q-5 -14 -16 -24t-30 -10h-138zM136 305l-11 -34h698q-2 4 -4 7t-4 7q6 4 12 8.5t12 11.5h-703zM522 211q12 0 20 -3h286q3 23 2 37h-713l-12 -37h279l1 3h137zM78 126l-14 -43h708q9 11 15.5 21.5t12.5 21.5h-722zM59 67l-16 -47h653
q35 17 62 47h-699z" />
    <glyph glyph-name="FL0043h" unicode="C" horiz-adv-x="717" 
d="M401 158h335l-2 -6l15 -22l-5 -17h-4l2 -4l-46 -142h-515q-20 0 -41 9l-7 11h-11q-7 5 -13.5 11t-11.5 14q-26 21 -39 66h3q-2 26 5 45l43 133h10l-3 4h-6l19 56h13l-5 7h-6l17 52h17l-8 11h-6l16 49h23l-8 13h-8q8 12 16.5 23.5t17.5 22.5h35l-12 17h-11q26 18 42 28
t25 15h584l-2 -6l15 -22l-12 -37h-22v-1l14 -22l-13 -40h-19l13 -19l-8 -26h-350q-4 0 -9.5 -5t-10.5 -12h-16l12 -17l-15 -46h-13l9 -13l-17 -50h-10l7 -10l-17 -53h-6l4 -6zM676 7h-545q15 -7 36 -7h507zM426 334l9 30h-280l-9 -30h280zM405 271l11 34h-280l-11 -34h280z
M385 208l12 37h-280l-12 -37h280zM818 424h-643l-2 -6l-7 -21h282q5 7 11.5 12t13.5 5h342zM377 186h-280l-13 -40h637l1 1h-336q-8 0 -12 6.5t-2 16.5zM850 522l6 21h-569q-13 -7 -34 -21h597zM829 459l8 24h-626q-5 -6 -9 -12t-9 -12h636zM701 83l14 43h-637l-1 -3
q-7 -20 -4 -40h628zM680 20l16 47h-620q9 -28 33 -47h571z" />
    <glyph glyph-name="FL0044h" unicode="D" horiz-adv-x="793" 
d="M402 161h70q17 0 30 10t24 26h-2q5 11 10 20.5t4 8.5l10 30h10l-3 4h-6l19 56h12l-5 7h-6q3 11 5 22t2 25h-106l-2 -6h-17l12 -17l-15 -46h-13l9 -13l-17 -50h-10l7 -10l-17 -53h-6l4 -6zM879 554q4 -3 8 -11t12 -23l3 -3q3 -5 6 -11.5t8 -16.5h-6q0 -2 0.5 -2.5
t-0.5 -2.5l13 -18q2 -8 2.5 -18t-1.5 -22h-16l13 -19l-14 -43h-17l12 -17l-15 -46h-13l9 -13l-17 -50h-10l7 -10l-17 -53h-6l4 -6l-18 -56h-4l2 -4l-7 -24q-5 -14 -18 -34v-1q-17 -20 -34 -36t-34 -27h-19v-10q-23 -10 -39 -10h-630l-15 22h-6l87 267h10l-3 4h-6l19 56h13
l-5 7h-6l17 52h17l-8 11h-6l16 49h19l-8 13h-6l15 46h23l-12 17h-6l14 43h673zM659 0q16 0 30 7h-650l-2 -7h622zM426 334l9 30h-280l-9 -30h280zM865 334l9 30h-285q0 -12 -5 -30h281zM844 271l11 34h-280l-11 -34h280zM405 271l11 34h-280l-11 -34h280zM385 208l12 37
h-280l-12 -37h280zM824 208l12 37h-280l-7 -19q-2 -5 -3.5 -9t-3.5 -9h282zM213 543l-6 -21h679q-5 12 -16 21h-657zM194 483l-8 -24h714q1 6 0.5 12t-1.5 12h-705zM565 403q9 0 17 -6h303l9 27h-719l-9 -27h280l2 6h117zM377 186h-280l-13 -40h719l13 40h-286
q-10 -16 -24.5 -26t-36.5 -10h-103zM797 126h-719l-14 -43h714q10 17 14 27zM59 67l-16 -47h671q29 18 53 47h-708z" />
    <glyph glyph-name="FL0045h" unicode="E" horiz-adv-x="717" 
d="M165 375l-8 11h-6l16 49h23l-8 13h-8q8 12 16.5 23.5t17.5 22.5h35l-12 17h-11q26 18 42 28t25 15h584l-2 -6l15 -22l-12 -37h-22v-1l14 -22l-13 -40h-19l13 -19l-8 -26h-350q-3 0 -9 -5t-11 -12h-12q2 -2 8 -2h346l-2 -6l15 -22l-11 -33h-13l9 -13l-17 -50h-10l7 -10
l-17 -53h-356l4 -6q-6 -5 -9.5 -7.5t-5.5 -3.5h339l-2 -6l15 -22l-5 -17h-4l2 -4l-46 -142h-521q-20 0 -41 9l-7 11h-11q-7 5 -13.5 11t-11.5 14q-26 21 -39 66h3q-2 26 5 45l43 133h10l-3 4h-6l19 56h13l-5 7h-6l17 52h17zM682 7h-551q15 -7 36 -7h513zM818 424h-643l-2 -6
l-7 -21h282q5 7 12 12t13 5h342zM97 186l-13 -40h643l1 1h-342q-2 0 -7 8.5t-7 14.5q1 1 1 3t1 4q0 4 3 7q0 1 1 2h-281zM850 522l6 21h-569q-13 -7 -34 -21h597zM155 364l-9 -30h643l5 17h-335q-17 0 -20 13h-284zM829 459l8 24h-626q-5 -6 -9 -12t-9 -12h636zM768 271
l11 34h-643l-11 -34h643zM760 245h-643l-12 -37h643zM707 83l14 43h-643l-1 -3q-7 -20 -4 -40h634zM686 20l16 47h-626q9 -28 33 -47h577z" />
    <glyph glyph-name="FL0046h" unicode="F" horiz-adv-x="717" 
d="M165 375l-8 11h-6l16 49h23l-8 13h-8q8 12 16.5 23.5t17.5 22.5h35l-12 17h-11q26 18 42 28t25 15h584l-2 -6l15 -22l-12 -37h-22v-1l14 -22l-13 -40h-19l13 -19l-8 -26h-350q-3 0 -9 -5t-11 -12h-12q2 -2 8 -2h346l-2 -6l15 -22l-11 -33h-13l9 -13l-17 -50h-10l7 -10
l-17 -53h-356l4 -6q-10 -8 -13 -10.5t-4 -1.5l-14 -44h-4l2 -4l-46 -142h-296l-15 22h-6l87 267h10l-3 4h-6l19 56h13l-5 7h-6l17 52h17zM319 7h-280l-2 -7h280zM97 186l-13 -40h280l13 38q0 1 1 2h-281zM818 424h-643l-2 -6l-7 -21h282q5 7 12 12t13 5h342zM344 83l14 43
h-280l-14 -43h280zM850 522l6 21h-569q-13 -7 -34 -21h597zM323 20l16 47h-280l-16 -47h280zM155 364l-9 -30h643l5 17h-335q-17 0 -20 13h-284zM829 459l8 24h-626q-5 -6 -9 -12t-9 -12h636zM768 271l11 34h-643l-11 -34h643zM760 245h-643l-12 -37h643z" />
    <glyph glyph-name="FL00B9h" unicode="G" 
d="M401 158h112q2 0 7 4.5t9 9.5l27 84h10l-3 4h-6l19 56h13l-5 7h-6l17 52h301l-2 -6l15 -22l-15 -46h-13l9 -13l-17 -50h-10l7 -10l-17 -53h-6l4 -6l-18 -56h-4l2 -4l-3 -11q-4 -11 -11 -23t-17 -25h1q-39 -41 -81 -63h-25l-1 -11q-27 -9 -47 -9h-466q-11 0 -20.5 2
t-19.5 7l-7 11h-11q-7 5 -13.5 11t-11.5 14q-26 21 -39 66h2q-2 26 5 45l43 133h10l-3 4h-6l19 56h13l-5 7h-6l17 52h17l-8 11h-6l16 49h23l-8 13h-8q8 12 16.5 23.5t17.5 22.5h35l-12 17h-11q26 18 42 28t25 15h584l-2 -6l15 -22l-12 -37h-22v-1l14 -22l-13 -40h-19l13 -19
l-8 -26h-350q-4 0 -9.5 -5t-10.5 -12h-16l12 -17l-15 -46h-13l9 -13l-17 -50h-10l7 -10l-17 -53h-6l4 -6zM132 7q14 -7 35 -7h466q22 0 40 7h-541zM872 334l9 30h-279l-9 -30h279zM426 334l9 30h-280l-9 -30h280zM851 271l11 34h-279l-11 -34h279zM405 271l11 34h-280
l-11 -34h280zM831 208l12 37h-279l-12 -37h279zM385 208l12 37h-280l-12 -37h280zM818 424h-643l-2 -6l-7 -21h282q5 7 11.5 12t13.5 5h342zM850 522l6 21h-569q-13 -7 -34 -21h597zM829 459l8 24h-626q-5 -6 -9 -12t-9 -12h636zM377 186h-280l-13 -40h726l13 40h-279
l-5 -17q-5 -6 -13 -14t-16 -8h-124q-11 0 -11.5 8.5t-2.5 14.5zM77 67q9 -28 33 -47h593q38 20 64 47h-690zM804 126h-726l-1 -3q-7 -20 -4 -40h708q7 10 12.5 19.5t9.5 20.5z" />
    <glyph glyph-name="FL0048h" unicode="H" horiz-adv-x="770" 
d="M443 -11h-6l61 186h-97l4 -6l-18 -56h-4l2 -4l-46 -142h-296l-15 22h-6l87 267h10l-3 4h-6l19 56h13l-5 7h-6l17 52h17l-8 11h-6l16 49h19l-8 13h-6l15 46h23l-12 17h-6l14 43h302l-2 -6l15 -22l-12 -37h-22v-1l14 -22l-13 -40h-19l13 -19l-14 -43h-17l2 -2h106l4 13h17
l-8 11h-6l16 49h19l-8 13h-6l15 46h23l-12 17h-6l14 43h303l-2 -6l15 -22l-12 -37h-22v-1l14 -22l-13 -40h-19l13 -19l-14 -43h-17l12 -17l-15 -46h-13l9 -13l-17 -50h-10l7 -10l-17 -53h-6l4 -6l-18 -56h-4l2 -4l-46 -142h-297zM319 7h-280l-2 -7h280zM735 7h-281l-2 -7
h281zM487 522l6 21h-280l-6 -21h280zM903 522l6 21h-281l-6 -21h281zM466 459l8 24h-280l-8 -24h280zM882 459l8 24h-281l-8 -24h281zM446 397l9 27h-280l-9 -27h280zM862 397l9 27h-281l-9 -27h281zM364 146l13 40h-280l-13 -40h280zM780 146l13 40h-281l-13 -40h281z
M344 83l14 43h-280l-14 -43h280zM760 83l14 43h-281l-14 -43h281zM323 20l16 47h-280l-16 -47h280zM739 20l16 47h-281l-16 -47h281zM435 364h-280l-9 -30h696l9 30h-281l-4 -13h-135zM821 271l11 34h-696l-11 -34h696zM813 245h-696l-12 -37h696z" />
    <glyph glyph-name="FL0049h" unicode="I" horiz-adv-x="738" 
d="M592 158h170l-2 -6l15 -22l-5 -17h-4l2 -4l-46 -142h-679l-15 22h-6l55 169h191l32 98h10l-3 4h-6l19 56h13l-5 7h-6l17 52h17l-4 6h-173l-15 22h-6l10 32h19l-8 13h-6l15 46h23l-12 17h-6l14 43h685l-2 -6l15 -22l-12 -37h-22v-1l14 -22l-13 -40h-19l13 -19l-8 -26h-193
l-6 -17h-17l12 -17l-15 -46h-13l9 -13l-17 -50h-10l7 -10l-17 -53h-6l4 -6zM702 7h-663l-2 -7h663zM617 334l9 30h-280l-9 -30h280zM596 271l11 34h-280l-11 -34h280zM576 208l12 37h-280l-12 -37h280zM836 414l3 10h-663l-3 -10h190l-6 -17h280l6 17h193zM84 146h663l1 1
h-192l12 39h-280l-12 -39h-191zM871 522l6 21h-663l-6 -21h663zM850 459l8 24h-663l-8 -24h663zM727 83l14 43h-663l-14 -43h663zM706 20l16 47h-663l-16 -47h663z" />
    <glyph glyph-name="FL004Ah" unicode="J" 
d="M420 284l-2 -6l15 -22l-6 -18h-10l7 -10l-17 -53h-6l4 -6l-4 -11h112q2 0 7 5t9 10l27 83h10l-3 4h-6l19 56h13l-5 7h-6l17 52h17l-8 11h-6l16 49h19l-8 13h-6l15 46h23l-12 17h-6l14 43h301l-2 -6l15 -22l-12 -37h-22v-1l14 -22l-13 -40h-19l13 -19l-14 -43h-17l12 -17
l-15 -46h-13l9 -13l-17 -50h-10l7 -10l-17 -53h-6l4 -6l-18 -56h-4l2 -4l-3 -11q-4 -11 -11 -23t-17 -25h1q-39 -41 -81 -63h-25l-1 -11q-27 -9 -47 -9h-466q-11 0 -20.5 2t-19.5 7l-7 11h-11q-7 5 -13.5 11t-11.5 14q-26 21 -39 66h2q-2 26 5 45l43 133h10l-3 4h-6l8 24
h302zM126 273l-1 -2h280l1 2h-280zM633 0q22 0 40 7h-541q14 -7 35 -7h466zM933 522l6 21h-279l-6 -21h279zM912 459l8 24h-279l-8 -24h279zM892 397l9 27h-279l-9 -27h279zM872 334l9 30h-279l-9 -30h279zM851 271l11 34h-279l-11 -34h279zM831 208l12 37h-279l-12 -37h279
zM385 208l12 37h-280l-12 -37h280zM377 186h-280l-13 -40h726l13 40h-279l-5 -16q-5 -6 -13 -14.5t-16 -8.5h-124q-11 0 -11.5 8.5t-2.5 14.5zM703 20q38 20 64 47h-690q9 -28 33 -47h593zM781 83q7 10 12.5 19.5t9.5 20.5l1 3h-726l-1 -3q-7 -20 -4 -40h708z" />
    <glyph glyph-name="FL004Bh" unicode="K" horiz-adv-x="765" 
d="M470 424v1q1 0 1 1h-2zM491 435h16l-8 13h-3zM165 375l-8 11h-6l16 49h19l-8 13h-6l15 46h23l-12 17h-6l14 43h302l-2 -6l15 -22l-12 -37h-22v-1l14 -22l-3 -11l16.5 15t8.5 8l1 2l14 14h44l-12 17h-11q26 17 44 27t31 16h285l-2 -6l15 -22l-12 -37h-22v-1l14 -22
l-13 -40h-19l13 -19l-9 -27h-103q-14 0 -45 -16h-39l12 -17q-36 -30 -51 -46h-19l9 -13l-4 -12q-2 -5 -3 -14.5t-2 -23.5h-6l7 -10q2 -8 6 -17q2 -4 4.5 -7t4.5 -7h1q18 -17 38 -27.5t42 -10.5h55l-2 -6l15 -22l-6 -18h-4l2 -4l-46 -142h-240q-21 0 -37 10l-7 10h-9
q-8 6 -14.5 13.5t-14.5 16.5q-21 19 -43 55l-8 12l-38 -117h-296l-15 22h-6l87 267h10l-3 4h-6l19 56h13l-5 7h-6l17 52h17zM730 7h-266q13 -7 32 -7h232zM319 7h-280l-2 -7h280zM487 522l6 21h-280l-6 -21h280zM898 522l6 21h-271q-23 -11 -39 -21h304zM466 459l8 24h-280
l-8 -24h280zM446 397l9 27h-280l-9 -27h280zM877 459l8 24h-344q-5 -6 -8 -8v-2q-5 -4 -9 -7t-9 -7h362zM720 397q31 16 47 16h95l4 11h-383q-5 -7 -10.5 -13.5t-10.5 -13.5h258zM344 83l14 43h-280l-14 -43h280zM323 20l16 47h-280l-16 -47h280zM734 20l16 47h-346
q16 -26 40 -47h290zM437 364q-1 -1 -1 -2l-1 -1q0 -1 -1 -2l1 5h-280l-9 -30h493q5 7 13.5 14.5t18.5 15.5h-234zM387 97q1 -4 3 -7t4 -7h361l14 43h-390zM136 305l-11 -34h489q1 8 2 15.5t3 14.5l1 4h-484zM117 245l-12 -37h527q-11 15 -16 37h-499zM374 146h401l1 2h-44
q-23 0 -44 10.5t-39 27.5h-552l-13 -40h280l6 18z" />
    <glyph glyph-name="FL004Ch" unicode="L" horiz-adv-x="717" 
d="M401 158h5h336l-2 -6l15 -22l-5 -17h-4l2 -4l-46 -142h-536q-12 0 -22 2t-20 7l-7 11h-10q-2 2 -4.5 4t-4.5 5l-9 13h-2q-11 8 -17 26t-10 43h1q0 15 2.5 30t7.5 29l38 119h10l-3 4h-6l19 56h13l-5 7h-6l17 52h17l-8 11h-6l16 49h19l-8 13h-6l15 46h23l-12 17h-6l14 43
h302l-2 -6l15 -22l-12 -37h-22v-1l14 -22l-13 -40h-19l13 -19l-14 -43h-17l12 -17l-15 -46h-13l9 -13l-17 -50h-10l7 -10l-17 -53h-6l4 -6zM682 7h-567q14 -7 37 -7h528zM487 522l6 21h-280l-6 -21h280zM466 459l8 24h-280l-8 -24h280zM446 397l9 27h-280l-9 -27h280z
M426 334l9 30h-280l-9 -30h280zM405 271l11 34h-280l-11 -34h280zM385 208l12 37h-280l-12 -37h280zM377 186h-280l-13 -40h643l1 1h-325q-20 2 -26.5 9.5t0.5 27.5v2zM707 83l14 43h-642q-3 -11 -5 -22t-1 -21h634zM686 20l16 47h-628q5 -31 22 -47h590z" />
    <glyph glyph-name="FL004Dh" unicode="M" horiz-adv-x="1123" 
d="M1239 497q1 0 1 -1zM1231 511l8 -14l1 -1l6 -7h-5q0 -2 0.5 -2.5t-0.5 -2.5l13 -18q2 -8 2.5 -18t-1.5 -22h-18l13 -19l-14 -43h-17l12 -17l-15 -46h-13l9 -13l-17 -50h-10l7 -10l-17 -53h-6l4 -6l-18 -56h-4l2 -4l-46 -142h-296l-15 22h-6l87 267h10l-3 4h-6l19 56h13
l-5 7h-6l17 52h17l-4 6h-59q-3 0 -9 -6l-11 -11h-16l12 -17l-15 -46h-13l9 -13l-17 -50h-10l7 -10l-17 -53h-6l4 -6l-18 -56h-4l2 -4l-46 -142h-297l-15 22h-6l87 267h10l-3 4h-6l19 56h13l-5 7h-6l17 52h18l-4 6h-58q-4 0 -9.5 -5.5t-10.5 -11.5h-17l12 -17l-15 -46h-13
l9 -13l-17 -50h-10l7 -10l-17 -53h-6l4 -6l-18 -56h-4l2 -4l-46 -142h-295l-15 22h-6l87 267h10l-3 4h-6l19 56h13l-5 7h-6l17 52h17l-8 11h-6l16 49h18l-8 13h-7q6 11 14 23t18 23h37l-12 17h-10q26 20 39.5 28.5t25.5 14.5h918q7 -5 16 -15.5t20 -27.5h-4zM317 7h-279
l-2 -7h279zM1085 0l2 7h-280l-2 -7h280zM702 7h-281l-2 -7h281zM424 334l9 30h-279l-9 -30h279zM1194 334l9 30h-280l-9 -30h280zM809 334l9 30h-281l-9 -30h281zM403 271l11 34h-279l-11 -34h279zM1173 271l11 34h-280l-11 -34h280zM788 271l11 34h-281l-11 -34h281z
M383 208l12 37h-279l-12 -37h279zM1153 208l12 37h-280l-12 -37h280zM768 208l12 37h-281l-12 -37h281zM362 146l13 40h-279l-13 -40h279zM1132 146l13 40h-280l-13 -40h280zM747 146l13 40h-281l-13 -40h281zM342 83l14 43h-279l-14 -43h279zM1112 83l14 43h-280l-14 -43
h280zM727 83l14 43h-281l-14 -43h281zM321 20l16 47h-279l-16 -47h279zM1091 20l16 47h-280l-16 -47h280zM706 20l16 47h-281l-16 -47h281zM1212 522q-9 12 -21 21h-910q-10 -5 -18 -10t-16 -11h965zM1231 459q1 6 0.5 12t-1.5 12h-1026q-5 -6 -9 -12l-8 -12h1044zM1214 397
l9 27h-1049l-9 -27h282q5 6 11.5 11.5t13.5 5.5h62q8 0 10 -5.5t2 -11.5h285q5 5 11.5 11t13.5 6h63q9 0 10.5 -5.5t1.5 -11.5h283z" />
    <glyph glyph-name="FL004Eh" unicode="N" 
d="M917 497q1 0 1 -1zM877 554q7 -5 16 -15.5t20 -27.5h-4l8 -14l1 -1l6 -7h-5q0 -2 0.5 -2.5t-0.5 -2.5l13 -18q2 -8 2.5 -18t-1.5 -22h-18l13 -19l-14 -43h-17l12 -17l-15 -46h-13l9 -13l-17 -50h-10l7 -10l-17 -53h-6l4 -6l-18 -56h-4l2 -4l-46 -142h-296l-15 22h-6
l87 267h10l-3 4h-6l19 56h13l-5 7h-6l17 52h17l-4 6h-134l-6 -17h-17l12 -17l-15 -46h-13l9 -13l-17 -50h-10l7 -10l-17 -53h-6l4 -6l-18 -56h-4l2 -4l-46 -142h-295l-15 22h-6l87 267h10l-3 4h-6l19 56h13l-5 7h-6l17 52h17l-8 11h-6l16 49h19l-8 13h-6l15 46h23l-12 17h-6
l14 43h671zM318 7h-279l-2 -7h279zM765 7h-280l-2 -7h280zM425 334l9 30h-279l-9 -30h279zM872 334l9 30h-280l-9 -30h280zM404 271l11 34h-279l-11 -34h279zM851 271l11 34h-280l-11 -34h280zM384 208l12 37h-279l-12 -37h279zM831 208l12 37h-280l-12 -37h280zM363 146
l13 40h-279l-13 -40h279zM810 146l13 40h-280l-13 -40h280zM343 83l14 43h-279l-14 -43h279zM790 83l14 43h-280l-14 -43h280zM322 20l16 47h-279l-16 -47h279zM769 20l16 47h-280l-16 -47h280zM213 543l-6 -21h683q-9 12 -21 21h-656zM597 414q9 0 10.5 -5.5t1.5 -11.5h283
l9 27h-726l-9 -27h279l6 17h146zM194 483l-8 -24h723q1 6 0.5 12t-1.5 12h-714z" />
    <glyph glyph-name="FL004Fh" unicode="O" 
d="M913 497q1 0 1 -1zM400 158h113q2 0 7 5t9 10l27 83h10l-3 4h-6l19 56h13l-5 7h-6l17 52h17l-4 6h-122q-9 -3 -18 -17h-18l12 -17l-15 -46h-13l9 -13l-17 -50h-10l7 -10l-17 -53h-6l4 -6zM905 511l8 -14l1 -1l2 -3l1 1l3 -5h-7v-5l13 -18q2 -6 2.5 -14t1.5 -26h-15
l13 -19l-14 -43h-17l12 -17l-15 -46h-13l9 -13l-17 -50h-10l7 -10l-17 -53h-6l4 -6l-18 -56h-4l2 -4l-3 -11q-4 -11 -11 -23t-17 -25h1q-39 -41 -81 -63h-25l-1 -11q-27 -9 -47 -9h-466q-20 0 -41 9l-7 11h-11q-7 5 -13.5 11t-11.5 14q-26 21 -39 66h3q-2 26 5 45l43 133h10
l-3 4h-6l19 56h13l-5 7h-6l17 52h17l-8 11h-6l16 49h23l-8 13h-8q8 12 16.5 23.5t17.5 22.5h35l-12 17h-11q26 18 42 28t25 15h586q7 -5 16 -15.5t20 -27.5h-4zM633 0q22 0 40 7h-542q15 -7 36 -7h466zM872 334l9 30h-279l-9 -30h279zM425 334l9 30h-279l-9 -30h279z
M851 271l11 34h-279l-11 -34h279zM404 271l11 34h-279l-11 -34h279zM831 208l12 37h-279l-12 -37h279zM384 208l12 37h-279l-12 -37h279zM886 522q-9 12 -21 21h-578q-13 -7 -34 -21h633zM905 459q0 6 -1 12l-2 12h-691q-5 -6 -9 -12t-9 -12h712zM597 414q7 0 9.5 -5
t3.5 -12h282l7 21l2 6h-726l-2 -6l-7 -21h282q9 14 23 17h126zM376 186h-279l-13 -40h726l13 40h-279l-5 -16q-5 -6 -14 -14.5t-15 -8.5h-124q-13 0 -14.5 9t-0.5 14zM703 20q38 20 64 47h-691q9 -28 33 -47h594zM781 83q7 10 12.5 19.5t9.5 20.5l1 3h-726l-1 -3
q-7 -20 -4 -40h708z" />
    <glyph glyph-name="FL0050h" unicode="P" 
d="M451 315h99v0q1 0 3 1h31l-5 7h-8q21 27 24 37l5 15h10l-3 4l-2 1q0 1 -2 1h-130l-6 -17h-17l12 -17zM864 554q8 -5 16 -15.5t19 -27.5h-4l15 -22h-8v-5l13 -18q2 -6 2.5 -14t1.5 -26h-13l13 -19q0 -11 -2 -21.5t-4 -21.5h-16l12 -17l-8 -23q-2 -5 -3.5 -10t-5.5 -13h-14
l9 -13q-2 -4 -7 -11.5t-7 -12.5q-4 -10 -15 -26h-15l7 -10q-12 -17 -23 -30.5t-22 -22.5h-9l4 -6q-68 -45 -122 -45h-289l-3 -11h-4l2 -4l-46 -142h-295l-15 22h-6l87 267h10l-3 4h-6l19 56h13l-5 7h-6l17 52h17l-8 11h-6l16 49h19l-8 13h-6l15 46h23l-12 17h-6l14 43h658z
M316 0l2 7h-279l-2 -7h279zM871 334q4 10 5 15l5 15h-274l-1 -4q-2 -7 -5.5 -13t-8.5 -13h279zM425 334l9 30h-279l-9 -30h279zM343 83l14 43h-279l-14 -43h279zM322 20l16 47h-279l-16 -47h279zM213 543l-6 -21h669q-5 6 -9 11t-11 10h-643zM589 414q8 0 12 -5t7 -12h282
q2 7 3 13.5t1 13.5h-719l-9 -27h279l6 17h138zM194 483l-8 -24h708q0 6 -1 12l-2 12h-697zM97 186l-13 -40h279l4 11h297q50 0 94 29h-661zM415 305h-279l-11 -34h713q5 8 9.5 16.5t9.5 17.5h-303q-1 -1 -7 -1h-132v1zM117 245l-12 -37h682q9 8 17 17.5t16 19.5h-703z" />
    <glyph glyph-name="FL0051h" unicode="Q" horiz-adv-x="802" 
d="M402 158h113q3 0 6.5 3.5t6.5 8.5q-1 0 2 3l27 83h10l-3 4h-6l19 56h13l-5 7h-6l17 52h16l-4 6h-119q-5 0 -9.5 -5t-9.5 -12h-18l12 -17l-15 -46h-13l9 -13l-17 -50h-10l7 -10l-17 -53h-6l4 -6zM874 554q6 -5 15.5 -15t23.5 -28h-5l15 -22h-8l1 -6l11 -17q3 -9 3.5 -19
t1.5 -21h-15l13 -19l-14 -43h-17l12 -17l-15 -46h-13l9 -13l-17 -50h-10l7 -10l-17 -53h-6l4 -6l-18 -56h-4l2 -4l-3 -11q-7 -21 -28 -48h1q-39 -41 -81 -63h-26l-1 -11q-13 -5 -24 -7t-22 -2h-91l-30 -35l1 -1q-2 -1 -2.5 -2t-2.5 -2l1 -1v-1h-2q-16 -15 -31.5 -28.5
t-32.5 -24.5l1 -1q-38 -23 -73.5 -38t-60.5 -15h-398l-15 22h-6l56 171h138q-27 23 -40 67h2q-2 26 5 45l43 133h10l-3 4h-6l19 56h13l-5 7h-6l17 52h17l-8 11h-6l16 49h23l-8 13h-8q8 12 16.5 23.5t17.5 22.5h35l-12 17h-11q26 18 42 28t25 15h585zM427 334l9 30h-279
l-9 -30h279zM874 334l9 30h-280l-9 -30h280zM406 271l11 34h-279l-11 -34h279zM853 271l11 34h-280l-11 -34h280zM386 208l12 37h-279l-12 -37h279zM553 208h280l12 37h-280zM289 543q-13 -7 -34 -21h633q-11 14 -22 21h-577zM312 -149q24 0 51.5 10.5t53.5 26.5h-483
l-12 -37h390zM213 483q-5 -6 -9 -12t-9 -12h712q0 12 -3 24h-691zM601 414q10 -3 10 -17h283l7 21l2 6h-726l-2 -6l-7 -21h282q5 7 11 12t14 5h126zM385 147q-2 0 -6 8.5t-6 14.5l5 16h-279l-13 -40h726l13 40h-280l-5 -16q-5 -6 -11 -14.5t-17 -8.5h-127zM-30 0l-14 -42
h546l2 2l35 40h96q22 0 39 7h-541q17 -7 31 -7h-194zM-47 -52l-17 -53h492q36 24 65 53h-540zM79 67q8 -27 32 -47h594q38 20 64 47h-690zM806 126h-726l-1 -3q-7 -20 -4 -40h708q14 19 22 40z" />
    <glyph glyph-name="FL0052h" unicode="R" horiz-adv-x="823" 
d="M451 315h99v0q1 0 3 1h31l-5 7h-8q11 14 16.5 23.5t7.5 14.5l5 14h10l-4 5h-2q0 1 -1 1h-130l-6 -17h-17l12 -17zM880 554q8 -6 16.5 -17.5t18.5 -25.5h-4l15 -22h-12q0 -2 0.5 -2.5t-0.5 -2.5l13 -18q2 -8 2.5 -18t-1.5 -22h-16l13 -19q-2 -11 -4.5 -21t-6.5 -22h-17
l12 -17q-5 -11 -9.5 -21.5t-13.5 -24.5h-13l9 -13q-2 -2 -6 -7t-6 -8q-5 -8 -11 -16t-17 -19h-15l7 -10q-40 -29 -65 -31q-2 -2 -2 -3t-1 -2q0 -3 -2 -3l11 -14h-6l4 -6l25 -56h-1l2 -4l26 -59l28 -63h-2l11 -20h-366l-15 22h-4l-15 29h2l-26 60l-14 34l-4 5q-8 7 -21 7h-2
q-6 -2 -7 -1l-1 1l-3 -11h-4l2 -4l-46 -142h-295l-15 22h-6l87 267h10l-3 4h-6l19 56h13l-5 7h-6l17 52h17l-8 11h-6l16 49h19l-8 13h-6l15 46h23l-12 17h-6l14 43h674zM316 0l2 7h-279l-2 -7h279zM481 7l4 -7h346l-4 7h-346zM866 334q5 8 8 15t6 15h-273l-1 -3
q-4 -12 -14 -27h274zM425 334l9 30h-279l-9 -30h279zM343 83l14 43h-279l-14 -43h279zM322 20l16 47h-279l-16 -47h279zM213 543l-6 -21h685q-4 5 -8.5 10.5t-11.5 10.5h-659zM450 83h345l-19 43h-345l2 -3zM822 20l-20 47h-345l19 -47h346zM589 414q8 0 12.5 -5t6.5 -12
h284q2 7 3.5 13.5t3.5 13.5h-724l-9 -27h279l6 17h138zM194 483l-8 -24h718q1 6 0.5 12t-1.5 12h-709zM415 305h-279l-11 -34h699q8 8 13.5 16.5t11.5 17.5h-295q-1 -1 -7 -1h-132v1zM117 245l-12 -37h636l-1 1q-1 1 2 8q1 7 9 13q21 0 44 15h-678zM767 146l-18 40h-652
l-13 -40h279l2 4q0 1 5.5 3t12.5 4h2q17 0 30 -11h352z" />
    <glyph glyph-name="FL005Ah" unicode="S" horiz-adv-x="782" 
d="M142 316l-5 7h-6l17 52h17l-8 11h-6l16 49h21l-8 13h-8q8 12 16.5 23.5t17.5 22.5h36l-12 17h-10q23 17 38.5 27.5t25.5 15.5h651l-2 -6l15 -22l-12 -37h-22v-1l14 -22l-13 -40h-19l13 -19l-8 -26h-414q-4 0 -9.5 -5t-10.5 -12h268q19 0 37.5 -5.5t35.5 -17.5l-3 -5
l14 -20h12q2 -5 4 -9.5t4 -9.5l7 -9q12 -21 9 -50h-10l7 -10l-17 -53h-6l4 -6l-18 -56h-4l2 -4q-7 -16 -16.5 -30.5t-20.5 -28.5h1q-21 -20 -41.5 -36t-40.5 -27h-25l-1 -11q-27 -9 -48 -9h-578l-15 22h-6l55 169h417q5 0 10 7t7 12h-261q-20 0 -42 14t-42 37l-6 8
q-5 5 -9 10t-9 10h8l-3 4h-4q-6 9 -8.5 23.5t-4.5 32.5h12zM607 0q23 0 41 7h-609l-2 -7h570zM85 147l-1 -1h708l13 40h-281l-2 -9q-3 -8 -12 -19t-19 -11h-406zM879 414l3 10h-707l-9 -27h282q5 7 11.5 12t13.5 5h406zM914 522l6 21h-636q-18 -9 -33 -21h663zM432 353l3 11
h-280l-9 -27v-3h649q-28 19 -63 19h-300zM893 459l8 24h-692q-5 -6 -9 -12t-9 -12h702zM532 210v-2h281l12 37h-656q14 -16 31 -25.5t35 -9.5h297zM142 305q2 -21 10 -34h679q2 19 -8 34h-681zM78 126l-14 -43h693q19 24 28 43h-707zM59 67l-16 -47h635q36 19 64 47h-683z
" />
    <glyph glyph-name="FL0055h" unicode="T" horiz-adv-x="763" 
d="M163 403h-6l10 32h19l-8 13h-6l15 46h23l-12 17h-6l14 43h711l-2 -6l15 -22l-12 -37h-22v-1l14 -22l-13 -40h-19l13 -19l-8 -26h-206l-6 -17h-17l12 -17l-15 -46h-13l9 -13l-17 -50h-10l7 -10l-17 -53h-6l4 -6l-18 -56h-4l2 -4l-46 -142h-296l-15 22h-6l87 267h10l-3 4
h-6l19 56h13l-5 7h-6l17 52h17l-4 6h-186zM522 7h-280l-2 -7h280zM629 334l9 30h-280l-9 -30h280zM608 271l11 34h-280l-11 -34h280zM588 208l12 37h-280l-12 -37h280zM567 146l13 40h-280l-13 -40h280zM864 424h-689l-3 -10h203l-6 -17h280l6 17h206zM547 83l14 43h-280
l-14 -43h280zM526 20l16 47h-280l-16 -47h280zM896 522l6 21h-689l-6 -21h689zM875 459l8 24h-689l-8 -24h689z" />
    <glyph glyph-name="FL0056h" unicode="U" 
d="M401 158h123l32 98h10l-3 4h-6l19 56h13l-5 7h-6l17 52h17l-8 11h-6l16 49h19l-8 13h-6l15 46h23l-12 17h-6l14 43h301l-2 -6l15 -22l-12 -37h-22v-1l14 -22l-13 -40h-19l13 -19l-14 -43h-17l12 -17l-15 -46h-13l9 -13l-17 -50h-10l7 -10l-17 -53h-6l4 -6l-18 -56h-4
l2 -4l-46 -142h-604q-11 0 -20.5 2t-19.5 7l-7 11h-11q-7 5 -13.5 11t-11.5 14q-26 21 -39 66h2q-2 26 5 45l43 133h10l-3 4h-6l19 56h13l-5 7h-6l17 52h17l-8 11h-6l16 49h19l-8 13h-6l15 46h23l-12 17h-6l14 43h302l-2 -6l15 -22l-12 -37h-22v-1l14 -22l-13 -40h-19
l13 -19l-14 -43h-17l12 -17l-15 -46h-13l9 -13l-17 -50h-10l7 -10l-17 -53h-6l4 -6zM763 0l2 7h-633q14 -7 35 -7h596zM933 522l6 21h-279l-6 -21h279zM487 522l6 21h-280l-6 -21h280zM912 459l8 24h-279l-8 -24h279zM466 459l8 24h-280l-8 -24h280zM892 397l9 27h-279
l-9 -27h279zM446 397l9 27h-280l-9 -27h280zM872 334l9 30h-279l-9 -30h279zM426 334l9 30h-280l-9 -30h280zM851 271l11 34h-279l-11 -34h279zM405 271l11 34h-280l-11 -34h280zM831 208l12 37h-279l-12 -37h279zM385 208l12 37h-280l-12 -37h280zM377 186h-280l-13 -40
h726l13 40h-279l-12 -39h-146q-11 0 -11.5 8.5t-2.5 14.5zM790 83l14 43h-726l-1 -3q-7 -20 -4 -40h717zM769 20l16 47h-708q9 -28 33 -47h659z" />
    <glyph glyph-name="FL0057h" unicode="V" horiz-adv-x="938" 
d="M432 256h14l-3 4h-9l61 56h20l-5 7h-9l56 52h28l-8 11h-9l53 49h31l-8 13h-9l48 46h39l-12 17h-9l45 43h356l-6 -5l16 -23l-40 -37h-41l15 -23l-43 -40h-34l13 -19l-47 -43h-30l12 -17l-50 -46h-23l9 -13l-55 -50h-18l7 -10l-58 -53h-11l4 -6l-60 -56h-8l2 -4l-64 -59
l-33 -30l-6 -5h-1q-8 -6 -15 -12t-22 -16h-17v-10q-25 -11 -35 -11h-420l-15 22h-6l87 268h10l-3 4h-6l19 56h13l-5 7h-6l17 52h17l-8 11h-6l16 49h19l-8 13h-6l15 46h23l-12 17h-6l14 43h301l-2 -6l15 -22l-12 -37h-22v-1l14 -22l-13 -40h-19l13 -19l-14 -43h-17l12 -17
l-15 -46h-13l9 -13zM449 -1q10 0 26 8h-436l-2 -8h412zM486 522l6 21h-279l-6 -21h279zM465 459l8 24h-279l-8 -24h279zM1054 522l22 21h-328l-21 -21h327zM445 397l9 27h-279l-9 -27h279zM985 459l26 24h-326l-25 -24h325zM425 334l9 30h-279l-9 -30h279zM917 397l30 27
h-324l-29 -27h323zM404 271l11 34h-279l-11 -34h279zM849 334l32 30h-323l-31 -30h322zM780 271l37 34h-321l-36 -34h320zM399 218q-2 2 -6 4t-4 3l7 20h-279l-12 -37h606l41 37h-319l-16 -15q-6 -5 -9.5 -8.5t-8.5 -3.5zM557 67h-498l-16 -47h455q14 9 25.5 19t19.5 15z
M574 83l47 43h-543l-14 -43h510zM643 146l43 40h-589l-13 -40h559z" />
    <glyph glyph-name="FL0059h" unicode="W" horiz-adv-x="1123" 
d="M452 316h3l-2 3zM459 338l42 37h29l-8 11h-9l58 49h32l-8 13h-9l53 46h40l-12 17h-9l51 43h61l10 -22l5 -6l18 -37h-1l10 -21l2 -2l21 -40h-1l11 -19l23 -43h-1l9 -16l1 -1l18 -36l2 5h13l-5 7h-6l17 52h17l-8 11h-6l16 49h19l-8 13h-6l15 46h23l-12 17h-6l14 43h302
l-2 -6l15 -22l-12 -37h-22v-1l14 -22l-13 -40h-19l13 -19l-14 -43h-17l12 -17l-15 -46h-13l9 -13l-17 -50h-10l7 -10l-17 -53h-6l4 -6l-18 -56h-4l2 -4l-46 -142h-368q-11 0 -37 23l-11 15q-3 3 -6.5 6t-7.5 7h3q-8 9 -16 23t-17 31q-8 14 -15 27t-13 27l-4.5 -4.5
t-7.5 -8.5h-8l2 -4q-16 -16 -32 -29.5t-35 -29.5h-1q-23 -20 -42 -34t-35 -25l1 -1q-40 -23 -54 -23h-361l-15 22h-6l87 267h10l-3 4h-6l19 56h13l-5 7h-6l17 52h17l-8 11h-6l16 49h19l-8 13h-6l15 46h23l-12 17h-6l14 43h302l-2 -6l15 -22l-12 -37h-22v-1l14 -22l-13 -40
h-19l13 -19l-14 -43h-17l12 -17zM772 522l-11 21h-52l-24 -21h87zM389 0q11 0 22 7h-373l-2 -7h353zM1085 0l2 7h-379q8 -7 17 -7h360zM804 459l-12 24h-152l-28 -24h192zM1255 522l6 21h-280l-6 -21h280zM486 522l6 21h-280l-6 -21h280zM1234 459l8 24h-280l-8 -24h280z
M465 459l8 24h-280l-8 -24h280zM837 397l-14 27h-251l-32 -27h297zM1214 397l9 27h-280l-9 -27h280zM445 397l9 27h-280l-9 -27h280zM1194 334l9 30h-280l-9 -30h280zM425 334l9 30h-280l-9 -30h280zM870 334l-16 30h-352l-34 -30h402zM58 67l-16 -47h391q14 9 30.5 21
t33.5 26h-439zM1091 20l16 47h-443q8 -14 15 -26t15 -21h397zM77 126l-14 -43h454q14 11 25.5 21.5t23.5 21.5h-489zM1112 83l14 43h-492q5 -11 10 -21.5t11 -21.5h457zM434 305l-26 -23l7 23h-280l-11 -34h1049l11 34h-280l-7 -23l-13 23h-450zM1153 208l12 37h-1049
l-12 -37h1049zM617 172v-3q1 -4 3.5 -9.5t4.5 -13.5h507l13 40h-1049l-13 -40h504q11 10 17.5 16.5l9.5 9.5h3z" />
    <glyph glyph-name="FL0058h" unicode="X" horiz-adv-x="765" 
d="M411 41q2 -3 3 -4zM512 554q2 -2 4.5 -5.5t4.5 -5.5q6 -6 12 -13t14 -19h-4l15 -22h-5l2 -4l2 -4l5.5 5.5t8.5 7.5h55l-12 17h-6l2 19l3 1t5 2q7 5 14.5 10.5t18.5 10.5h268l-2 -6l15 -22l-12 -37h-22v-1l14 -22l-13 -40h-19l13 -19l-9 -27h-131q-6 0 -29 -16h-35l12 -17
q-12 -11 -23 -22.5t-22 -23.5h-18l9 -13q-4 -13 -4.5 -25t1.5 -25h-3l7 -10q1 -2 1.5 -5t1.5 -5q3 -5 6 -10.5t8 -10.5h1q16 -17 34 -27.5t36 -10.5h55l-2 -6l15 -22l-6 -18h-4l2 -4l-46 -142h-240q-21 0 -37 10l-7 10h-9q-8 6 -14.5 13.5t-14.5 16.5q-10 8 -19 20t-19 26
l-1 -1l-12 -12q-29 -23 -46 -34.5t-31 -19.5q-6 -3 -10 -5.5t-6 -3.5h-32l-2 -12q-20 -6 -37.5 -7t-35.5 -1h-134l-15 22h-6l56 171h100q6 0 25 10t45 27q48 36 69 59h19l-3 4h-6l4 12q-1 0 0 1q-5 8 -8.5 18.5t-6.5 24.5h4l-5 7h-4q-2 5 -5 11t-5 11l-2.5 5l-3.5 7
q-2 2 -2.5 3.5t-2.5 3.5q-9 6 -19 9t-19.5 4.5t-16.5 2t-10 0.5h-48l-14 22h-6l10 33h19l-8 13h-6l15 46h23l-12 17h-6l14 43h306zM163 0q17 0 33.5 1t33.5 6h-191l-2 -7h126zM728 0l2 7h-266q13 -7 32 -7h232zM898 522l6 21h-253q-10 -5 -17 -10.5t-15 -10.5h279zM213 543
l-6 -21h317q-4 5 -9 10.5t-10 10.5h-292zM332 305l6 -16t6 -15q0 -1 -1 -1.5t-1 -1.5h276q-1 8 -0.5 16.5t2.5 17.5h-288zM305 364q5 -8 8.5 -15l7.5 -15h316q5 7 13 14.5t16 15.5h-361zM280 27q14 8 28.5 17.5t31.5 22.5h-281l-16 -47h223q3 1 6.5 3t7.5 4zM321 245
q-15 -16 -42 -37h363q-11 16 -18 37h-303zM862 413l4 11h-691l-4 -11h40q3 0 10.5 -0.5t17.5 -2t20.5 -4.5t19.5 -9h428q23 16 32 16h123zM734 20l16 47h-346q16 -26 40 -47h290zM552 463q-2 4 -4 9t-5 11h-349l-8 -24h691l8 24h-313q-9 -8 -14.5 -14zM732 148
q-20 0 -39 10.5t-35 27.5h-410q-26 -17 -46 -27t-28 -10h-89l-1 -3h691l1 2h-44zM382 106q2 -3 5 -9q1 -4 3 -7t4 -7h361l14 43h-691l-14 -43h295z" />
    <glyph glyph-name="FL007Ch" unicode="Y" horiz-adv-x="787" 
d="M165 375l-8 11h-6l16 49h19l-8 13h-6l15 46h23l-12 17h-6l14 43h302l-2 -6l15 -22l-12 -37h-22v-1l14 -22l-13 -40h-19l13 -19l-14 -43h-16l1 -3h2h112l13 14h17l-8 11h-6l16 49h19l-8 13h-6l15 46h23l-12 17h-6l14 43h303l-2 -6l15 -22l-12 -37h-22v-1l14 -22l-13 -40
h-19l13 -19l-14 -43h-17l12 -17l-15 -46h-13l9 -13l-17 -50h-10l7 -10l-17 -53h-6l4 -6l-18 -56h-3l2 -4q-2 -4 -5.5 -12t-5.5 -11q-5 -8 -8 -15.5t-14 -20.5h1q-32 -42 -67 -63h-21v-10q-24 -10 -49 -10h-602l-15 22h-6l55 169h402q22 1 30 17h-280q-20 3 -39.5 16.5
t-36.5 36.5l-4 6q-5 5 -9.5 10.5t-9.5 11.5h8l-3 4h-4q-5 13 -6.5 27.5t-0.5 28.5h13l-5 7h-6l17 52h17zM44 7l-2 -7h594q25 0 40 7h-632zM487 522l6 21h-280l-6 -21h280zM920 522l6 21h-281l-6 -21h281zM466 459l8 24h-280l-8 -24h280zM899 459l8 24h-281l-8 -24h281z
M446 397l9 27h-280l-9 -27h280zM879 397l9 27h-281l-9 -27h281zM797 146l13 40h-281v-2q-7 -20 -17 -27.5t-31 -9.5h-391l-1 -1h708zM155 364l-9 -30h713l9 30h-285q-5 -5 -10 -9.5t-9 -4.5h-112q-8 0 -10 4.5t-3 9.5h-284zM818 208l12 37h-670q11 -15 27 -24.5t34 -12.5
h597zM838 271l11 34h-709q0 -8 1 -17t4 -17h693zM83 126l-14 -43h698q7 10 12 20.5t11 22.5h-707zM64 67l-16 -47h655q29 17 53 47h-692z" />
    <glyph glyph-name="FL007Bh" unicode="Z" horiz-adv-x="946" 
d="M449 35l-5 9l1 -3zM632 554q8 -5 17 -15t23 -28h-5l12 -17h2q3 -10 7 -15q0 -3 2 -5l5 -8q2 -6 3 -8l8 -10h-2q0 -3 1 -3h-2q0 -1 2.5 -4.5t10.5 -14.5h-14l1 -2l11 -17l10 -43h-7l12 -17l11 -46h-6l9 -13l11 -50h-5l7 -10l8 -32l-1 -1q1 -2 2 -8t4 -12h-2q10 -16 20 -16
h185l-2 -6l15 -22l-6 -18h-4l2 -4l-46 -142h-372q-22 0 -43 9l-7 11h-13q-11 7 -20 16t-19 20q-9 9 -17.5 21.5t-16.5 27.5h-1q-4 11 -6.5 18.5t-3.5 15.5l-7 29v2l-14 60l-14 59h7l-3 4h-5l-12 56h8l-5 7h-5l-4 20q-3 5 -5 12.5t-5 19.5q-6 6 -11 6h-159l-15 22h-6l10 32
h19l-8 13h-6l15 46h23l-12 17h-6l14 43h426zM911 7h-404q15 -7 38 -7h364zM213 543l-6 -21h440q-8 9 -23 21h-411zM373 334h339l-8 30h-340q2 -5 3 -8.5t2 -6.5zM696 397l-6 27h-515l-3 -10h151q14 0 25 -17h348zM726 271l-8 34h-339l8 -34h339zM194 483l-8 -24h496
q-2 5 -4 11t-5 13h-479zM393 245l9 -37h338q-2 4 -1.5 6.5t-0.5 4.5l-6 26h-339zM783 148q-11 0 -20 12t-16 26h-341l9 -40h541l1 2h-174zM915 20l16 47h-491q16 -30 43 -47h432zM936 83l14 43h-530l4 -16q2 -15 7 -27h505z" />
    <glyph glyph-name="FL005Bh" unicode="[" horiz-adv-x="444" 
d="M385 104h60l-2 -6l15 -22l-53 -163h-379l-15 22h-6l104 321h10l-3 4h-6l19 56h13l-5 7h-6l17 52h17l-8 11h-6l16 49h19l-8 13h-6l15 46h23l-12 17h-6l14 43h26l-13 20h-6l12 39h392l-2 -6l15 -22l-11 -33h-22l-1 -4l15 -22l-12 -37h-22v-1l14 -22l-10 -31h-89l-3 -9h-19
l13 -19l-14 -43h-17l12 -17l-15 -46h-13l9 -13l-17 -50h-10l7 -10l-17 -53h-6l4 -6l-18 -56h-4l2 -4zM383 -52h-363l-1 -2h363zM597 585l6 17h-370l-6 -17h370zM447 397l9 27h-281l-9 -27h281zM577 522l6 21h-370l-6 -21h370zM559 468l5 15h-370l-8 -24h281l3 9h89zM427 334
l9 30h-281l-9 -30h281zM406 271l11 34h-281l-11 -34h281zM386 208l12 37h-281l-12 -37h281zM365 146l13 40h-281l-13 -40h281zM348 93l11 33h-281l-14 -43h363l3 10h-82zM406 20l16 47h-363l-16 -47h363zM386 -42l16 49h-363l-16 -49h363z" />
    <glyph glyph-name="FL005Ch" unicode="\" horiz-adv-x="841" 
d="M484 -11h-4l-10 20h-1l-35 69h1l-30 59l-30 60h1l-31 59h5l-3 4h-4l-27 56h6l-5 7h-4l-27 52h5l-8 11h-4l-24 49h7l-8 13h-4l-24 46h6l-12 17h-4l-21 43h356l10 -22l5 -6l18 -37h-1l11 -22l1 -1l21 -40h-1l7 -13l4 -6l21 -43h-1l8 -15l2 -2l24 -46h-1l3 -8l5 -5l24 -50
h-2l5 -10h1l28 -53h-1l4 -6l28 -56h-2l2 -4l31 -59l32 -63h-1l11 -20h-348zM816 0l-4 7h-328l4 -7h328zM553 522l-11 21h-328l11 -21h328zM585 459l-12 24h-328l12 -24h328zM616 397l-13 27h-328l13 -27h328zM649 334l-16 30h-328l16 -30h328zM680 271l-17 34h-328l17 -34
h328zM712 208l-19 37h-328l19 -37h328zM742 146l-20 40h-328l20 -40h328zM774 83l-22 43h-328l22 -43h328zM805 20l-23 47h-328l23 -47h328z" />
    <glyph glyph-name="FL005Dh" unicode="]" horiz-adv-x="444" 
d="M180 457h-6l13 37h23l-12 17h-6l14 43h26l-13 20h-6l12 39h392l-2 -6l15 -22l-11 -33h-22l-1 -4l15 -22l-12 -37h-22v-1l14 -22l-13 -40h-19l13 -19l-14 -43h-17l12 -17l-15 -46h-13l9 -13l-17 -50h-10l7 -10l-17 -53h-6l4 -6l-18 -56h-4l2 -4l-63 -196h-379l-15 22h-6
l55 169h82l49 152h10l-3 4h-6l19 56h13l-5 7h-6l17 52h17l-8 11h-6l16 49h-61zM390 -52h-363l-1 -2h363zM597 585l6 17h-370l-6 -17h370zM536 397l9 27h-281l-9 -27h281zM577 522l6 21h-370l-6 -21h370zM556 459l8 24h-370l-5 -15h89l-3 -9h281zM516 334l9 30h-281l-9 -30
h281zM495 271l11 34h-281l-11 -34h281zM475 208l12 37h-281l-12 -37h281zM454 146l13 40h-281l-13 -40h281zM434 83l14 43h-281l-11 -33h-82l-3 -10h363zM413 20l16 47h-363l-16 -47h363zM393 -42l16 49h-363l-16 -49h363z" />
    <glyph glyph-name="FL005Eh" unicode="^" horiz-adv-x="939" 
d="M672 554q2 -3 6.5 -9t9.5 -12.5t9 -12.5l6 -9h-4l15 -22h-4l5 -14l7 -9l18 -40h-2l4 -9l7 -10l19 -43h-3l3 -7l8 -10l20 -46h-2l1 -2l8 -11l21 -50h-2l7 -10l23 -53h-1l4 -6l25 -56h-1l2 -4l25 -55l2 -4l26 -59l1 -1l10 -24h-349l-15 22h-4l-9 21l-4 9l-22 54l-27 65h1
l-26 60h1l-24 59h5l-3 4h-4l-18 42v-1h-13l9 -13l-17 -50h-10l7 -10l-17 -53h-6l4 -6l-18 -56h-4l2 -4l-46 -142h-295l-15 22h-6l87 267h10l-3 4h-6l19 56h13l-5 7h-6l17 52h17l-8 11h-6l16 49h19l-8 13h-6l15 46h23l-12 17h-6l14 43h466zM318 7h-279l-2 -7h279zM582 7l4 -8
h329l-4 8h-329zM404 271l11 34h-279l-11 -34h279zM213 543l-6 -21h473q-4 5 -7.5 10.5t-8.5 10.5h-451zM384 208l12 37h-279l-12 -37h279zM794 271l-15 34h-319l14 -34h320zM363 146l13 40h-279l-13 -40h279zM822 208l-16 37h-321l15 -37h322zM343 83l14 43h-279l-14 -43
h279zM710 459l-11 24h-505l-8 -24h524zM849 146l-18 40h-323l17 -40h324zM322 20l16 47h-279l-16 -47h279zM877 83l-19 43h-325l18 -43h326zM738 397l-12 27h-551l-9 -27h572zM905 20l-20 47h-327l18 -47h329zM766 334l-14 30h-597l-9 -30h279v1q0 1 5.5 3t9.5 4q6 0 9 -8
h317z" />
    <glyph glyph-name="FL005Fh" unicode="_" horiz-adv-x="603" 
d="M28 -11h-6l55 169h551l-2 -6l15 -22l-5 -17h-4l2 -4l-46 -142h-545zM85 147l-1 -1h529l1 1h-529zM568 7h-529l-2 -7h529zM593 83l14 43h-529l-14 -43h529zM572 20l16 47h-529l-16 -47h529z" />
    <glyph glyph-name="FL0061h" unicode="`" horiz-adv-x="1475" 
d="M1244 294l2 7h-7zM555 7l11 11h1l65 60l63 57l68 62l64 59h16l-3 4h-9l62 56h21l-5 7h-9l57 52h29l-8 11h-9l53 49h32l-8 13h-9l50 46h39l-12 17h-9q35 30 56 43h468l-2 -6l15 -22l-12 -37h-22v-1l14 -22l-13 -40h-19l13 -19l-14 -43h-17l12 -17l-15 -46h-13l9 -13
l-17 -50h-10l7 -10l-17 -53h-6l4 -6l-18 -56h-4l2 -4l-45 -141h-295l-15 22h-6l86 266h10l-3 4h-6l7 20l-45 -42h-18l7 -10l-55 -53h-10l4 -6l-60 -56h-8l2 -4l-61 -59l-64 -59l1 -1l-24 -23h-349l-11 17l-6 -17h-296l-15 22h-6l87 267h10l-3 4h-6l19 56h13l-5 7h-6l17 52
h17l-4 6h-186l-15 22h-6l10 32h19l-8 13h-6l15 46h23l-12 17h-6l14 43h711l-2 -6l15 -22l-12 -37h-22v-1l14 -22l-13 -40h-19l13 -19l-8 -26h-206l-6 -17h-17l12 -17l-15 -46h-13l9 -13l-17 -50h-10l7 -10l-17 -53h-6l4 -6l-18 -56h-4l2 -4zM1440 7h-279l-2 -6h279zM522 7
h-280l-2 -7h280zM889 0l7 7h-328l-7 -7h328zM629 334l9 30h-280l-9 -30h280zM1526 271l11 34h-279l-11 -34h279zM608 271l11 34h-280l-11 -34h280zM1608 522l6 21h-453l-16.5 -11t-12.5 -10h476zM1506 208l12 37h-279l-12 -37h279zM588 208l12 37h-280l-12 -37h280z
M1176 271l36 34h-318l-37 -34h319zM1485 146l13 40h-279l-13 -40h279zM567 146l13 40h-280l-13 -40h280zM864 424h-689l-3 -10h203l-6 -17h280l6 17h206zM1110 208l39 37h-320l-40 -37h321zM1465 83l14 43h-279l-14 -43h279zM547 83l14 43h-280l-14 -43h280zM1587 459l8 24
h-507l-26 -24h525zM1043 146l43 40h-322l-44 -40h323zM1444 20l16 47h-279l-16 -47h279zM526 20l16 47h-280l-16 -47h280zM977 83l45 43h-323l-47 -43h325zM896 522l6 21h-689l-6 -21h689zM1567 397l9 27h-552l-29 -27h572zM909 20l51 47h-326l-52 -47h327zM875 459l8 24
h-689l-8 -24h689zM1547 334l9 30h-598l-32 -30h318l7 7t7 2q2 -2 6 -4t4 -3v-2h279z" />
    <glyph glyph-name="a" unicode="a" horiz-adv-x="938" 
d="M707 295l2 6h-6zM7 -12h-9l23 21l10 9l58 54l72 65l65 60l65 59h16l-3 4h-9l62 56h21l-5 7h-9l57 52h28l-8 11h-9l54 49h32l-8 13h-9l50 46h36l-12 17h-10q3 3 11.5 9t18 12.5t18 12.5t12.5 9h467l-2 -6l15 -22l-12 -37h-22v-1l14 -22l-13 -40h-19l13 -19l-14 -43h-17
l12 -17l-15 -46h-13l9 -13l-17 -50h-10l7 -10l-17 -53h-6l4 -6l-18 -56h-4l2 -4l-46 -142h-295l-15 22h-6l87 267h10l-3 4h-6l6 18l-43 -40h-17l7 -10l-57 -53h-11l4 -6l-58 -56h-8l2 -4l-61 -59l-64 -59l1 -1l-26 -24h-348zM903 7h-279l-2 -7h279zM352 -1l8 8h-328l-8 -8
h328zM989 271l11 34h-279l-11 -34h279zM1071 522l6 21h-452q-8 -5 -15 -10.5t-14 -10.5h475zM969 208l12 37h-279l-12 -37h279zM640 271l36 34h-318l-37 -34h319zM948 146l13 40h-279l-13 -40h279zM573 208l40 37h-320l-41 -37h321zM928 83l14 43h-279l-14 -43h279z
M1050 459l8 24h-506l-26 -24h524zM507 146l42 40h-322l-43 -40h323zM907 20l16 47h-279l-16 -47h279zM441 83l45 43h-324l-47 -43h326zM1030 397l9 27h-551l-30 -27h572zM373 20l51 47h-326l-52 -47h327zM1010 334l9 30h-597l-32 -30h317q5 5 7 6.5t7 1.5q2 -2 6 -4t4 -3v-1
h279z" />
    <glyph glyph-name="FL0062h" unicode="b" 
d="M903 497q1 0 1 -1zM400 158h105q23 0 31 20h-129l-1 -3h-6l4 -6zM450 364l2 -3h117q21 0 30 14h15l-3 4q-2 1 -4 1.5t-5 0.5h-129l-6 -17h-17zM863 554q7 -5 16 -15.5t20 -27.5h-4l8 -14l1 -1l6 -7h-6l1 -6l12 -17q2 -4 2.5 -9.5t1.5 -11.5q0 -2 1 -9.5t1 -9.5h-15
l13 -19q0 -6 -1.5 -14.5t-2.5 -13.5q-1 -2 -2 -7.5t-2 -7.5h-17l12 -17q-2 -4 -6.5 -12t-6.5 -12t-5.5 -9t-8.5 -13h-17l9 -13q-9 -11 -16.5 -17.5t-13.5 -11.5q2 -3 4 -8t6 -13h-6l7 -10q2 -11 0.5 -24.5t-3.5 -28.5h-7l4 -6q0 -11 -3 -17l-6 -19q-1 -3 -2.5 -7t-6.5 -13
h-3l2 -4q-8 -16 -16.5 -30t-21.5 -29q-19 -22 -38.5 -37.5t-39.5 -25.5h-28l-1 -12q-23 -8 -58 -8h-583l-15 22h-6l87 267h10l-3 4h-6l19 56h13l-5 7h-6l17 52h17l-8 11h-6l16 49h19l-8 13h-6l15 46h23l-12 17h-6l14 43h657zM612 0q30 0 51 7h-624l-2 -7h575zM213 543
l-6 -21h669q-9 12 -21 21h-642zM891 397q2 7 3 13t2 14h-721l-9 -27h279l6 17h137q23 0 25 -17h278zM194 483l-8 -24h711q-1 6 -1.5 12t-2.5 12h-699zM434 364h-279l-9 -30h716q4 7 7.5 14.5t8.5 15.5h-275q-9 -14 -37 -14h-136zM376 186h-279l-13 -40h725q3 4 5 12l4 12
l3 7q0 2 0.5 4.5t0.5 4.5h-273l-1 -5q-5 -14 -16 -24t-30 -10h-138zM136 305l-11 -34h698q-2 4 -4 7t-4 7q6 4 12 8.5t12 11.5h-703zM522 211q12 0 20 -3h286q3 23 2 37h-713l-12 -37h279l1 3h137zM78 126l-14 -43h708q9 11 15.5 21.5t12.5 21.5h-722zM59 67l-16 -47h653
q35 17 62 47h-699z" />
    <glyph glyph-name="FL0063h" unicode="c" horiz-adv-x="717" 
d="M167 435h23l-8 13h-8q8 12 16.5 23.5t17.5 22.5h35l-12 17h-11q26 18 42 28t25 15h584l-2 -6l15 -22l-12 -37h-22v-1l14 -22l-13 -40h-19l13 -19l-8 -26h-350q-4 0 -9.5 -5t-10.5 -12h-16l12 -17l-15 -46h-13l9 -13l-17 -50h-10l7 -10l-17 -53h-6l4 -6l-4 -11h335l-2 -6
l15 -22l-5 -17h-4l2 -4l-46 -142h-515q-20 0 -41 9l-7 11h-11q-7 5 -13.5 11t-11.5 14q-26 21 -39 66h3q-2 26 5 45l43 133h10l-3 4h-6l19 56h13l-5 7h-6l17 52h17l-8 11h-6zM674 0l2 7h-545q15 -7 36 -7h507zM426 334l9 30h-280l-9 -30h280zM405 271l11 34h-280l-11 -34
h280zM385 208l12 37h-280l-12 -37h280zM166 397h282q5 7 11.5 12t13.5 5h342l3 10h-643l-2 -6zM386 147q-8 0 -12 6.5t-2 16.5l5 16h-280l-13 -40h637l1 1h-336zM850 522l6 21h-569q-13 -7 -34 -21h597zM829 459l8 24h-626q-5 -6 -9 -12t-9 -12h636zM701 83l14 43h-637
l-1 -3q-7 -20 -4 -40h628zM680 20l16 47h-620q9 -28 33 -47h571z" />
    <glyph glyph-name="d" unicode="d" horiz-adv-x="793" 
d="M402 161h70q17 0 30 10t24 26h-2q5 11 10 20.5t4 8.5l10 30h10l-3 4h-6l19 56h12l-5 7h-6q3 11 5 22t2 25h-106l-2 -6h-17l12 -17l-15 -46h-13l9 -13l-17 -50h-10l7 -10l-17 -53h-6l4 -6zM879 554q4 -3 8 -11t12 -23l3 -3q3 -5 6 -11.5t8 -16.5h-6q0 -2 0.5 -2.5
t-0.5 -2.5l13 -18q2 -8 2.5 -18t-1.5 -22h-16l13 -19l-14 -43h-17l12 -17l-15 -46h-13l9 -13l-17 -50h-10l7 -10l-17 -53h-6l4 -6l-18 -56h-4l2 -4l-7 -24q-5 -14 -18 -34v-1q-17 -20 -34 -36t-34 -27h-19v-10q-23 -10 -39 -10h-630l-15 22h-6l87 267h10l-3 4h-6l19 56h13
l-5 7h-6l17 52h17l-8 11h-6l16 49h19l-8 13h-6l15 46h23l-12 17h-6l14 43h673zM659 0q16 0 30 7h-650l-2 -7h622zM426 334l9 30h-280l-9 -30h280zM865 334l9 30h-285q0 -12 -5 -30h281zM844 271l11 34h-280l-11 -34h280zM405 271l11 34h-280l-11 -34h280zM385 208l12 37
h-280l-12 -37h280zM824 208l12 37h-280l-7 -19q-2 -5 -3.5 -9t-3.5 -9h282zM213 543l-6 -21h679q-5 12 -16 21h-657zM194 483l-8 -24h714q1 6 0.5 12t-1.5 12h-705zM565 403q9 0 17 -6h303l9 27h-719l-9 -27h280l2 6h117zM377 186h-280l-13 -40h719l13 40h-286
q-10 -16 -24.5 -26t-36.5 -10h-103zM797 126h-719l-14 -43h714q10 17 14 27zM59 67l-16 -47h671q29 18 53 47h-708z" />
    <glyph glyph-name="E" unicode="e" horiz-adv-x="717" 
d="M809 362l-2 -6l15 -22l-11 -33h-13l9 -13l-17 -50h-10l7 -10l-17 -53h-356l4 -6q-6 -5 -9.5 -7.5t-5.5 -3.5h339l-2 -6l15 -22l-5 -17h-4l2 -4l-46 -142h-521q-20 0 -41 9l-7 11h-11q-7 5 -13.5 11t-11.5 14q-26 21 -39 66h3q-2 26 5 45l43 133h10l-3 4h-6l19 56h13l-5 7
h-6l17 52h17l-8 11h-6l16 49h23l-8 13h-8q8 12 16.5 23.5t17.5 22.5h35l-12 17h-11q26 18 42 28t25 15h584l-2 -6l15 -22l-12 -37h-22v-1l14 -22l-13 -40h-19l13 -19l-8 -26h-350q-3 0 -9 -5t-11 -12h-12q2 -2 8 -2h346zM680 0l2 7h-551q15 -7 36 -7h513zM166 397h282
q5 7 12 12t13 5h342l3 10h-643l-2 -6zM386 147q-2 0 -7 8.5t-7 14.5q1 1 1 3t1 4q0 4 3 7q0 1 1 2h-281l-13 -40h643l1 1h-342zM850 522l6 21h-569q-13 -7 -34 -21h597zM459 351q-17 0 -20 13h-284l-9 -30h643l5 17h-335zM829 459l8 24h-626q-5 -6 -9 -12t-9 -12h636z
M768 271l11 34h-643l-11 -34h643zM748 208l12 37h-643l-12 -37h300h1h342zM707 83l14 43h-643l-1 -3q-7 -20 -4 -40h634zM686 20l16 47h-626q9 -28 33 -47h577z" />
    <glyph glyph-name="FL0066h" unicode="f" horiz-adv-x="717" 
d="M167 435h23l-8 13h-8q8 12 16.5 23.5t17.5 22.5h35l-12 17h-11q26 18 42 28t25 15h584l-2 -6l15 -22l-12 -37h-22v-1l14 -22l-13 -40h-19l13 -19l-8 -26h-350q-3 0 -9 -5t-11 -12h-12q2 -2 8 -2h346l-2 -6l15 -22l-11 -33h-13l9 -13l-17 -50h-10l7 -10l-17 -53h-356l4 -6
q-10 -8 -13 -10.5t-4 -1.5l-14 -44h-4l2 -4l-46 -142h-296l-15 22h-6l87 267h10l-3 4h-6l19 56h13l-5 7h-6l17 52h17l-8 11h-6zM319 7h-280l-2 -7h280zM377 184q0 1 1 2h-281l-13 -40h280zM166 397h282q5 7 12 12t13 5h342l3 10h-643l-2 -6zM344 83l14 43h-280l-14 -43h280z
M850 522l6 21h-569q-13 -7 -34 -21h597zM323 20l16 47h-280l-16 -47h280zM459 351q-17 0 -20 13h-284l-9 -30h643l5 17h-335zM829 459l8 24h-626q-5 -6 -9 -12t-9 -12h636zM768 271l11 34h-643l-11 -34h643zM748 208l12 37h-643l-12 -37h300h1h342z" />
    <glyph glyph-name="FL0067h" unicode="g" 
d="M845 323l15 -22h-4l9 -13q5 -11 7 -23.5t1 -26.5h-10l7 -10l-17 -53h-6l4 -6l-18 -56h-4l2 -4l-3 -11q-4 -11 -11 -23t-17 -25h1q-39 -41 -81 -63h-25l-1 -11q-27 -9 -47 -9h-466q-11 0 -20.5 2t-19.5 7l-7 11h-11q-7 5 -13.5 11t-11.5 14q-26 21 -39 66h2q-2 26 5 45
l43 133h10l-3 4h-6l19 56h13l-5 7h-6l17 52h17l-8 11h-6l16 49h23l-8 13h-8q8 12 16.5 23.5t17.5 22.5h35l-12 17h-11q26 18 42 28t25 15h664l-2 -6l15 -22l-12 -37h-22v-1l14 -22l-13 -40h-19l13 -19l-8 -26h-430q-4 0 -9.5 -5t-10.5 -12h-16l12 -17l-15 -46h-13l9 -13
l-17 -50h-10l7 -10l-17 -53h-6l4 -6l-4 -11h112q2 0 7 5t9 10l2 5h-83l-15 22h-6l18 56h10l-3 4h-6l19 56h13l-5 7h-6l15 47h271q20 0 46.5 -12.5t54.5 -34.5h-9zM132 7q14 -7 35 -7h466q22 0 40 7h-541zM818 334q-15 11 -32.5 18t-35.5 7h-260l-8 -25h336zM426 334l9 30
h-280l-9 -30h280zM405 271l11 34h-280l-11 -34h280zM385 208l12 37h-280l-12 -37h280zM448 397q5 7 11.5 12t13.5 5h422l3 10h-723l-2 -6l-7 -21h282zM472 305l-11 -34h387q2 18 -7 34h-369zM930 522l6 21h-649q-13 -7 -34 -21h677zM831 208l12 37h-390l-11 -34h111l-1 -3
h279zM909 459l8 24h-706q-5 -6 -9 -12t-9 -12h716zM377 186h-280l-13 -40h726l13 40h-279l-5 -16q-5 -6 -13 -14.5t-16 -8.5h-124q-11 0 -11.5 8.5t-2.5 14.5zM77 67q9 -28 33 -47h593q38 20 64 47h-690zM804 126h-726l-1 -3q-7 -20 -4 -40h708q7 10 12.5 19.5t9.5 20.5z
" />
    <glyph glyph-name="FL0068h" unicode="h" horiz-adv-x="770" 
d="M443 -11h-6l61 186h-97l4 -6l-18 -56h-4l2 -4l-46 -142h-296l-15 22h-6l87 267h10l-3 4h-6l19 56h13l-5 7h-6l17 52h17l-8 11h-6l16 49h19l-8 13h-6l15 46h23l-12 17h-6l14 43h302l-2 -6l15 -22l-12 -37h-22v-1l14 -22l-13 -40h-19l13 -19l-14 -43h-17l2 -2h106l4 13h17
l-8 11h-6l16 49h19l-8 13h-6l15 46h23l-12 17h-6l14 43h303l-2 -6l15 -22l-12 -37h-22v-1l14 -22l-13 -40h-19l13 -19l-14 -43h-17l12 -17l-15 -46h-13l9 -13l-17 -50h-10l7 -10l-17 -53h-6l4 -6l-18 -56h-4l2 -4l-46 -142h-297zM319 7h-280l-2 -7h280zM735 7h-281l-2 -7
h281zM487 522l6 21h-280l-6 -21h280zM903 522l6 21h-281l-6 -21h281zM466 459l8 24h-280l-8 -24h280zM882 459l8 24h-281l-8 -24h281zM446 397l9 27h-280l-9 -27h280zM862 397l9 27h-281l-9 -27h281zM364 146l13 40h-280l-13 -40h280zM780 146l13 40h-281l-13 -40h281z
M344 83l14 43h-280l-14 -43h280zM760 83l14 43h-281l-14 -43h281zM323 20l16 47h-280l-16 -47h280zM739 20l16 47h-281l-16 -47h281zM435 364h-280l-9 -30h696l9 30h-281l-4 -13h-135zM821 271l11 34h-696l-11 -34h696zM813 245h-696l-12 -37h696z" />
    <glyph glyph-name="FL0069h" unicode="i" horiz-adv-x="354" 
d="M28 -11h-6l87 267h10l-3 4h-6l19 56h13l-5 7h-6l17 52h17l-8 11h-6l16 49h19l-8 13h-6l15 46h23l-12 17h-6l14 43h302l-2 -6l15 -22l-12 -37h-22v-1l14 -22l-13 -40h-19l13 -19l-14 -43h-17l12 -17l-15 -46h-13l9 -13l-17 -50h-10l7 -10l-17 -53h-6l4 -6l-18 -56h-4l2 -4
l-46 -142h-296zM319 7h-280l-2 -7h280zM487 522l6 21h-280l-6 -21h280zM466 459l8 24h-280l-8 -24h280zM446 397l9 27h-280l-9 -27h280zM426 334l9 30h-280l-9 -30h280zM405 271l11 34h-280l-11 -34h280zM385 208l12 37h-280l-12 -37h280zM364 146l13 40h-280l-13 -40h280z
M344 83l14 43h-280l-14 -43h280zM323 20l16 47h-280l-16 -47h280z" />
    <glyph glyph-name="FL006Ah" unicode="j" horiz-adv-x="717" 
d="M28 -11h-6l55 169h335q17 1 24.5 6.5t12.5 19.5l23 72h10l-3 4h-6l19 56h13l-5 7h-6l17 52h17l-8 11h-6l16 49h19l-8 13h-6l15 46h23l-12 17h-6l14 43h302l-2 -6l15 -22l-12 -37h-22v-1l14 -22l-13 -40h-19l13 -19l-14 -43h-17l12 -17l-15 -46h-13l9 -13l-17 -50h-10
l7 -10l-17 -53h-6l4 -6l-18 -56h-5l2 -4q-8 -19 -14.5 -33.5t-14.5 -25.5q-17 -23 -33.5 -38t-33.5 -25h-22l-1 -11q-13 -5 -24.5 -7t-23.5 -2h-537zM566 0q24 0 41 7h-568l-2 -7h529zM850 522l6 21h-280l-6 -21h280zM829 459l8 24h-280l-8 -24h280zM809 397l9 27h-280
l-9 -27h280zM789 334l9 30h-280l-9 -30h280zM768 271l11 34h-280l-11 -34h280zM748 208l12 37h-280l-12 -37h280zM85 147l-1 -1h643l13 40h-280v-2q-7 -20 -17.5 -27.5t-32.5 -9.5h-325zM78 126l-14 -43h634q6 10 11.5 20.5t10.5 22.5h-642zM59 67l-16 -47h591
q14 8 27.5 19.5t25.5 27.5h-628z" />
    <glyph glyph-name="FL006Bh" unicode="k" horiz-adv-x="765" 
d="M470 424v1q1 0 1 1h-2zM491 435h16l-8 13h-3zM165 375l-8 11h-6l16 49h19l-8 13h-6l15 46h23l-12 17h-6l14 43h302l-2 -6l15 -22l-12 -37h-22v-1l14 -22l-3 -11l16.5 15t8.5 8l1 2l14 14h44l-12 17h-11q26 17 44 27t31 16h285l-2 -6l15 -22l-12 -37h-22v-1l14 -22
l-13 -40h-19l13 -19l-9 -27h-103q-14 0 -45 -16h-39l12 -17q-36 -30 -51 -46h-19l9 -13l-4 -12q-2 -5 -3 -14.5t-2 -23.5h-6l7 -10q2 -8 6 -17q2 -4 4.5 -7t4.5 -7h1q18 -17 38 -27.5t42 -10.5h55l-2 -6l15 -22l-6 -18h-4l2 -4l-46 -142h-240q-21 0 -37 10l-7 10h-9
q-8 6 -14.5 13.5t-14.5 16.5q-21 19 -43 55l-8 12l-38 -117h-296l-15 22h-6l87 267h10l-3 4h-6l19 56h13l-5 7h-6l17 52h17zM730 7h-266q13 -7 32 -7h232zM319 7h-280l-2 -7h280zM487 522l6 21h-280l-6 -21h280zM898 522l6 21h-271q-23 -11 -39 -21h304zM466 459l8 24h-280
l-8 -24h280zM446 397l9 27h-280l-9 -27h280zM877 459l8 24h-344q-5 -6 -8 -8v-2q-5 -4 -9 -7t-9 -7h362zM720 397q31 16 47 16h95l4 11h-383q-5 -7 -10.5 -13.5t-10.5 -13.5h258zM344 83l14 43h-280l-14 -43h280zM323 20l16 47h-280l-16 -47h280zM734 20l16 47h-346
q16 -26 40 -47h290zM437 364q-1 -1 -1 -2l-1 -1q0 -1 -1 -2l1 5h-280l-9 -30h493q5 7 13.5 14.5t18.5 15.5h-234zM387 97q1 -4 3 -7t4 -7h361l14 43h-390zM136 305l-11 -34h489q1 8 2 15.5t3 14.5l1 4h-484zM117 245l-12 -37h527q-11 15 -16 37h-499zM374 146h401l1 2h-44
q-23 0 -44 10.5t-39 27.5h-552l-13 -40h280l6 18z" />
    <glyph glyph-name="l" unicode="l" horiz-adv-x="717" 
d="M401 158h5h336l-2 -6l15 -22l-5 -17h-4l2 -4l-46 -142h-536q-12 0 -22 2t-20 7l-7 11h-10q-2 2 -4.5 4t-4.5 5l-9 13h-2q-11 8 -17 26t-10 43h1q0 15 2.5 30t7.5 29l38 119h10l-3 4h-6l19 56h13l-5 7h-6l17 52h17l-8 11h-6l16 49h19l-8 13h-6l15 46h23l-12 17h-6l14 43
h302l-2 -6l15 -22l-12 -37h-22v-1l14 -22l-13 -40h-19l13 -19l-14 -43h-17l12 -17l-15 -46h-13l9 -13l-17 -50h-10l7 -10l-17 -53h-6l4 -6zM680 0l2 7h-567q14 -7 37 -7h528zM487 522l6 21h-280l-6 -21h280zM466 459l8 24h-280l-8 -24h280zM446 397l9 27h-280l-9 -27h280z
M426 334l9 30h-280l-9 -30h280zM405 271l11 34h-280l-11 -34h280zM385 208l12 37h-280l-12 -37h280zM403 147q-20 2 -26.5 9.5t0.5 27.5v2h-280l-13 -40h643l1 1h-325zM707 83l14 43h-642q-3 -11 -5 -22t-1 -21h634zM686 20l16 47h-628q5 -31 22 -47h590z" />
    <glyph glyph-name="FL006Dh" unicode="m" horiz-adv-x="1123" 
d="M615 554l9 -13q2 -3 5 -6.5t6 -7.5l11 -16h-4l12 -17h2l0.5 -3.5t2.5 -5.5q2 -6 4 -8q0 -2 3 -6t16 -23h-5q2 -2 4.5 -6.5t10.5 -15.5h-6q0 -1 0.5 -1.5t0.5 -1.5l9 -14l1 1l2 2q1 0 4 4l19 19h33l-8 13h-9l55 46h41l-12 17h-10q11 8 22.5 16.5t19.5 13.5l17 13h406
l-2 -6l15 -22l-12 -37h-22v-1l14 -22l-13 -40h-19l13 -19l-14 -43h-17l12 -17l-15 -46h-13l9 -13l-17 -50h-10l7 -10l-17 -53h-6l4 -6l-18 -56h-4l2 -4l-46 -142h-296l-15 22h-6l68 209l-26 -23h-12l4 -6l-64 -56h-7l2 -4l-69 -59h1l-72 -63h-1l-24 -20h-28l-15 22h-4
l-10 20l-5 9l-32 60h1l-30 59l-32 60l-14 26l-15 -48h-6l4 -6l-18 -56h-4l2 -4l-46 -142h-296l-15 22h-6l87 267h10l-3 4h-6l19 56h13l-5 7h-6l17 52h17l-8 11h-6l16 49h19l-8 13h-6l15 46h23l-12 17h-6l14 43h409zM582 7h-34l4 -7h22zM319 7h-280l-2 -7h280zM1088 7h-280
l-2 -7h280zM597 20l55 47h-135l24 -47h56zM1256 522l6 21h-390l-14 -10t-15 -11h413zM670 83l50 43h-233l22 -43h161zM213 543l-6 -21h416q-5 6 -9 11l-8 10h-393zM385 208l12 37h-280l-12 -37h280zM1154 208l12 37h-280l-12 -37h280zM1235 459l8 24h-450l-29 -24h471z
M194 483l-8 -24h472l-12 24h-452zM1133 146l13 40h-280l-13 -40h280zM364 146l13 40h-280l-13 -40h280zM742 146l46 40h-333l21 -40h266zM1113 83l14 43h-280l-14 -43h280zM344 83l14 43h-280l-14 -43h280zM1092 20l16 47h-280l-16 -47h280zM323 20l16 47h-280l-16 -47h280z
M1215 397l9 27h-499q-9 -8 -16 -15l-12 -12h518zM175 424l-9 -27h518q-2 5 -4.5 12t-5.5 15h-499zM815 208l42 37h-432l19 -37h371zM1195 334l9 30h-1049l-9 -30h1049zM411 271h476l10 8l-3 -8h280l11 34h-1049l-11 -34h280l3 8z" />
    <glyph glyph-name="FL0071h" unicode="n" horiz-adv-x="933" 
d="M716 316h7l-5 7h-4zM611 554q3 -3 8 -9t11 -12.5t11.5 -12.5t7.5 -9h-5l12 -17h2q3 -6 3 -8l-1 1q1 -4 5 -10l7 -11q4 -8 6.5 -15t4.5 -14l-4 -11l1 -3l11 -16l11 -43h-6l1 -2l11 -15l5 -21l16 49h17l-8 11h-6l16 49h19l-8 13h-6l15 46h23l-12 17h-6l14 43h300l-2 -6
l15 -22l-12 -37h-22v-1l14 -22l-13 -40h-19l13 -19l-14 -43h-17l12 -17l-15 -46h-13l9 -13l-17 -50h-10l7 -10l-17 -53h-6l4 -6l-18 -56h-4l2 -4l-46 -142h-330q-11 0 -20.5 2t-19.5 7l-7 11h-10q-6 5 -12 10.5t-11 12.5q-10 9 -20.5 24t-21.5 38h-2l-9 25l-14 40l-20 60h2
l-5 13l-11 -35h-6l4 -6l-18 -56h-4l2 -4l-46 -142h-296l-15 22h-6l87 267h10l-3 4h-6l19 56h13l-5 7h-6l17 52h17l-8 11h-6l16 49h19l-8 13h-6l15 46h23l-12 17h-6l14 43h405zM319 7h-280l-2 -7h280zM898 7h-359q14 -7 35 -7h322zM1066 522l6 21h-278l-6 -21h278zM1045 459
l8 24h-278l-8 -24h278zM1025 397l9 27h-278l-9 -27h278zM1005 334l9 30h-278l-9 -30h278zM213 543l-6 -21h417q-5 5 -10 10.5t-10 10.5h-391zM385 208l12 37h-280l-12 -37h280zM194 483l-8 -24h471v1q-1 5 -3 10.5t-5 12.5h-455zM364 146l13 40h-280l-13 -40h280zM344 83
l14 43h-280l-14 -43h280zM323 20l16 47h-280l-16 -47h280zM674 397l-7 27h-492l-9 -27h508zM692 334l-9 30h-528l-9 -30h546zM902 20l16 47h-436q14 -29 36 -47h384zM923 83l14 43h-479l8 -22l8 -21h449zM964 208l12 37h-557l13 -37h532zM943 146l13 40h-518l13 -40h492z
M410 271h574l11 34h-278l-10 -30l-8 30h-563l-11 -34h280l3 8z" />
    <glyph glyph-name="FL006Fh" unicode="o" 
d="M913 497q1 0 1 -1zM400 158h113q2 0 7 5t9 10l27 83h10l-3 4h-6l19 56h13l-5 7h-6l17 52h17l-4 6h-122q-9 -3 -18 -17h-18l12 -17l-15 -46h-13l9 -13l-17 -50h-10l7 -10l-17 -53h-6l4 -6zM873 554q7 -5 16 -15.5t20 -27.5h-4l8 -14l1 -1l6 -7h-7v-5l13 -18q2 -6 2.5 -14
t1.5 -26h-15l13 -19l-14 -43h-17l12 -17l-15 -46h-13l9 -13l-17 -50h-10l7 -10l-17 -53h-6l4 -6l-18 -56h-4l2 -4l-3 -11q-4 -11 -11 -23t-17 -25h1q-39 -41 -81 -63h-25l-1 -11q-27 -9 -47 -9h-466q-20 0 -41 9l-7 11h-11q-7 5 -13.5 11t-11.5 14q-26 21 -39 66h3
q-2 26 5 45l43 133h10l-3 4h-6l19 56h13l-5 7h-6l17 52h17l-8 11h-6l16 49h23l-8 13h-8q8 12 16.5 23.5t17.5 22.5h35l-12 17h-11q26 18 42 28t25 15h586zM131 7q15 -7 36 -7h466q22 0 40 7h-542zM872 334l9 30h-279l-9 -30h279zM425 334l9 30h-279l-9 -30h279zM851 271
l11 34h-279l-11 -34h279zM404 271l11 34h-279l-11 -34h279zM831 208l12 37h-279l-12 -37h279zM384 208l12 37h-279l-12 -37h279zM287 543q-13 -7 -34 -21h633q-9 12 -21 21h-578zM211 483q-5 -6 -9 -12t-9 -12h712q0 6 -1 12l-2 12h-691zM175 424l-2 -6l-7 -21h282
q9 14 23 17h126q7 0 9.5 -5t3.5 -12h282l7 21l2 6h-726zM376 186h-279l-13 -40h726l13 40h-279l-5 -16q-5 -6 -14 -14.5t-15 -8.5h-124q-13 0 -14.5 9t-0.5 14zM76 67q9 -28 33 -47h594q38 20 64 47h-691zM804 126h-726l-1 -3q-7 -20 -4 -40h708q7 10 12.5 19.5t9.5 20.5z
" />
    <glyph glyph-name="FL0070h" unicode="p" 
d="M610 375l-3 4l-2 1q0 1 -2 1h-130l-6 -17h-17l12 -17l-11 -32h99v0q1 0 3 1h31l-5 7h-8q21 27 24 37l5 15h10zM864 554q8 -5 16 -15.5t19 -27.5h-4l15 -22h-8v-5l13 -18q2 -6 2.5 -14t1.5 -26h-13l13 -19q0 -11 -2 -21.5t-4 -21.5h-16l12 -17l-8 -23q-2 -5 -3.5 -10
t-5.5 -13h-14l9 -13q-2 -4 -7 -11.5t-7 -12.5l-1 -1q-2 -5 -5 -11t-9 -14h-15l7 -10q-12 -17 -23 -30.5t-22 -22.5h-9l4 -6q-68 -45 -122 -45h-289l-3 -11h-4l2 -4l-46 -142h-295l-15 22h-6l87 267h10l-3 4h-6l19 56h13l-5 7h-6l17 52h17l-8 11h-6l16 49h19l-8 13h-6l15 46
h23l-12 17h-6l14 43h658zM318 7h-279l-2 -7h279zM607 364l-1 -4q-2 -7 -5.5 -13t-8.5 -13h279q4 10 5 15l5 15h-274zM425 334l9 30h-279l-9 -30h279zM343 83l14 43h-279l-14 -43h279zM322 20l16 47h-279l-16 -47h279zM213 543l-6 -21h669q-5 6 -9 11t-11 10h-643zM175 424
l-9 -27h279l6 17h138q8 0 12 -5t7 -12h282q2 7 3 13.5t1 13.5h-719zM194 483l-8 -24h708q0 6 -1 12l-2 12h-697zM664 157q50 0 94 29h-661l-13 -40h279l4 11h297zM415 305h-279l-11 -34h713q5 8 9.5 16.5t9.5 17.5h-303q-1 -1 -7 -1h-132v1zM117 245l-12 -37h682
q9 8 17 17.5t16 19.5h-703z" />
    <glyph glyph-name="FL0072h" unicode="q" 
d="M913 497q1 0 1 -1zM401 158h115q-1 0 4 5.5t10 10.5l7 23l19 59h10l-3 4h-6l19 56h13l-5 7h-6l17 52h17l-4 6h-122q-9 -3 -18 -17h-17l12 -17l-15 -46h-13l9 -13l-17 -50h-10l7 -10l-17 -53h-6l4 -6zM873 554q7 -5 16 -15.5t20 -27.5h-4l8 -14l1 -1l6 -7h-7v-5l13 -18
q2 -6 2.5 -14t1.5 -26h-15l13 -19l-14 -43h-17l12 -17l-15 -46h-13l9 -13l-17 -50h-10l7 -10l-17 -53h-6l4 -6l-18 -56h-4l2 -4l-3 -11q-8 -23 -28 -47l1 -1q-11 -12 -22 -21.5t-22 -17.5h90l-2 -6l14 -22l-53 -165h-398q-23 0 -47 12.5t-45 31.5q-2 1 -1 2q-3 2 -4.5 3.5
l-3.5 3.5l-9 13h-1q-1 2 -2 2.5t-2 2.5q-3 2 -5.5 5t-5.5 5h2q-17 26 -26 60h1l-3 8h-75q-20 0 -41 9l-7 11h-11q-7 5 -13.5 11t-11.5 14q-26 21 -39 66h3q-2 26 5 45l43 133h10l-3 4h-6l19 56h13l-5 7h-6l17 52h17l-8 11h-6l16 49h23l-8 13h-8q8 12 16.5 23.5t17.5 22.5h35
l-12 17h-11q26 18 42 28t25 15h586zM872 334l9 30h-279l-9 -30h279zM155 364l-9 -30h280l9 30h-280zM851 271l11 34h-279l-11 -34h279zM136 305l-11 -34h280l11 34h-280zM831 208l12 37h-279l-12 -37h279zM117 245l-12 -37h280l12 37h-280zM287 543q-13 -7 -34 -21h633
q-9 12 -21 21h-578zM784 -149l12 37h-484q16 -16 36.5 -26.5t45.5 -10.5h390zM211 483q-5 -6 -9 -12t-9 -12h712q0 6 -1 12l-2 12h-691zM901 424h-726l-2 -6l-7 -21h282q9 14 23 17h126q7 0 9.5 -5t3.5 -12h282l7 21zM377 186h-280l-13 -40h726l13 40h-279l-5 -16
q-5 -6 -14.5 -14.5t-11.5 -8.5h-127q-11 0 -11.5 8.5t-2.5 14.5zM638 0q14 0 34 7h-541q15 -7 36 -7h96l9 -40v-2h546l14 42h-194zM798 -105l17 53h-540q9 -29 30 -53h493zM76 67q9 -28 33 -47h593q17 9 34 21t31 26h-691zM804 126h-726l-1 -3q-7 -20 -4 -40h707
q16 19 23 40z" />
    <glyph glyph-name="r" unicode="r" horiz-adv-x="823" 
d="M451 315h99v0q1 0 3 1h31l-5 7h-8q11 14 16.5 23.5t7.5 14.5l5 14h10l-4 5h-2q0 1 -1 1h-130l-6 -17h-17l12 -17zM880 554q8 -6 16.5 -17.5t18.5 -25.5h-4l15 -22h-12q0 -2 0.5 -2.5t-0.5 -2.5l13 -18q2 -8 2.5 -18t-1.5 -22h-16l13 -19q-2 -11 -4.5 -21t-6.5 -22h-17
l12 -17q-5 -11 -9.5 -21.5t-13.5 -24.5h-13l9 -13q-2 -2 -6 -7t-6 -8q-5 -8 -11 -16t-17 -19h-15l7 -10q-40 -29 -65 -31q-2 -2 -2 -3t-1 -2q0 -3 -2 -3l11 -14h-6l4 -6l25 -56h-1l2 -4l26 -59l28 -63h-2l11 -20h-366l-15 22h-4l-15 29h2l-26 60l-14 34l-4 5q-8 7 -21 7h-2
q-6 -2 -7 -1l-1 1l-3 -11h-4l2 -4l-46 -142h-295l-15 22h-6l87 267h10l-3 4h-6l19 56h13l-5 7h-6l17 52h17l-8 11h-6l16 49h19l-8 13h-6l15 46h23l-12 17h-6l14 43h674zM316 0l2 7h-279l-2 -7h279zM481 7l4 -7h346l-4 7h-346zM866 334q5 8 8 15t6 15h-273l-1 -3
q-4 -12 -14 -27h274zM425 334l9 30h-279l-9 -30h279zM343 83l14 43h-279l-14 -43h279zM322 20l16 47h-279l-16 -47h279zM213 543l-6 -21h685q-4 5 -8.5 10.5t-11.5 10.5h-659zM450 83h345l-19 43h-345l2 -3zM822 20l-20 47h-345l19 -47h346zM589 414q8 0 12.5 -5t6.5 -12
h284q2 7 3.5 13.5t3.5 13.5h-724l-9 -27h279l6 17h138zM194 483l-8 -24h718q1 6 0.5 12t-1.5 12h-709zM415 305h-279l-11 -34h699q8 8 13.5 16.5t11.5 17.5h-295q-1 -1 -7 -1h-132v1zM117 245l-12 -37h636l-1 1q-1 1 2 8q1 7 9 13q21 0 44 15h-678zM767 146l-18 40h-652
l-13 -40h279l2 4q0 1 5.5 3t12.5 4h2q17 0 30 -11h352z" />
    <glyph glyph-name="s" unicode="s" horiz-adv-x="914" 
d="M473 375l-8 11h-8l43 49h27l-8 13h-8l15 15q8 6 16.5 14t19.5 17h41l-12 17h-10l6.5 4.5t10.5 6.5q8 5 18.5 11.5t14.5 8.5q6 4 15 9l2 1q0 1 2 2h418l-2 -6l15 -22l-12 -37h-22v-1l14 -22l-13 -40h-19l13 -19l-8 -26h-154q-12 0 -35 -17h-37l12 -17l-6 -7.5t-8 -11.5
l-7 -8l-17 -19h-21l9 -13l-43 -50h-17l7 -10l-45 -53h-9l4 -6l-49 -56h-6l2 -4l-25 -28q-12 -13 -31 -31q-25 -22 -48.5 -37.5t-43.5 -25.5h-27l-1 -11q-27 -9 -50 -9h-345l-15 22h-6l56 170h158q8 0 23 12t31 26h10q4 11 6 15t5 6v0q0 1 1 2l31 36h15l-3 4h-8l50 56h20
l-5 7h-8l44 52h25zM374 0q25 0 43 7h-378l-2 -7h337zM1047 522l6 21h-403q-8 -5 -17 -10.5t-17 -10.5h431zM451 364l-25 -30h337l13 15q2 3 5 6.5t7 8.5h-337zM1015 424h-511l-24 -27h347q23 17 39 17h146zM708 271l29 34h-337l-30 -34h338zM1026 459l8 24h-472
q-17 -14 -27 -24h491zM653 208l32 37h-338l-26 -30q-2 -2 -3 -3.5t-3 -3.5h338zM598 146l35 40h-342q-16 -14 -32 -26t-27 -12h-147l-1 -2h514zM59 67l-16 -47h406q19 9 37.5 21t35.5 26h-463zM581 126h-503l-14 -43h476q15 13 27 27z" />
    <glyph glyph-name="FL0074h" unicode="t" horiz-adv-x="763" 
d="M163 403h-6l10 32h19l-8 13h-6l15 46h23l-12 17h-6l14 43h711l-2 -6l15 -22l-12 -37h-22v-1l14 -22l-13 -40h-19l13 -19l-8 -26h-206l-6 -17h-17l12 -17l-15 -46h-13l9 -13l-17 -50h-10l7 -10l-17 -53h-6l4 -6l-18 -56h-4l2 -4l-46 -142h-296l-15 22h-6l87 267h10l-3 4
h-6l19 56h13l-5 7h-6l17 52h17l-4 6h-186zM522 7h-280l-2 -7h280zM629 334l9 30h-280l-9 -30h280zM608 271l11 34h-280l-11 -34h280zM588 208l12 37h-280l-12 -37h280zM567 146l13 40h-280l-13 -40h280zM369 397h280l6 17h206l3 10h-689l-3 -10h203zM547 83l14 43h-280
l-14 -43h280zM526 20l16 47h-280l-16 -47h280zM896 522l6 21h-689l-6 -21h689zM875 459l8 24h-689l-8 -24h689z" />
    <glyph glyph-name="FL0075h" unicode="u" 
d="M401 158h112q2 0 7 4.5t9 9.5l27 84h10l-3 4h-6l19 56h13l-5 7h-6l17 52h17l-8 11h-6l16 49h19l-8 13h-6l15 46h23l-12 17h-6l14 43h301l-2 -6l15 -22l-12 -37h-22v-1l14 -22l-13 -40h-19l13 -19l-14 -43h-17l12 -17l-15 -46h-13l9 -13l-17 -50h-10l7 -10l-17 -53h-6
l4 -6l-18 -56h-4l2 -4l-3 -11q-4 -11 -11 -23t-17 -25h1q-39 -41 -81 -63h-25l-1 -11q-27 -9 -47 -9h-466q-11 0 -20.5 2t-19.5 7l-7 11h-11q-7 5 -13.5 11t-11.5 14q-26 21 -39 66h2q-2 26 5 45l43 133h10l-3 4h-6l19 56h13l-5 7h-6l17 52h17l-8 11h-6l16 49h19l-8 13h-6
l15 46h23l-12 17h-6l14 43h302l-2 -6l15 -22l-12 -37h-22v-1l14 -22l-13 -40h-19l13 -19l-14 -43h-17l12 -17l-15 -46h-13l9 -13l-17 -50h-10l7 -10l-17 -53h-6l4 -6zM633 0q22 0 40 7h-541q14 -7 35 -7h466zM933 522l6 21h-279l-6 -21h279zM487 522l6 21h-280l-6 -21h280z
M912 459l8 24h-279l-8 -24h279zM466 459l8 24h-280l-8 -24h280zM892 397l9 27h-279l-9 -27h279zM446 397l9 27h-280l-9 -27h280zM872 334l9 30h-279l-9 -30h279zM426 334l9 30h-280l-9 -30h280zM851 271l11 34h-279l-11 -34h279zM405 271l11 34h-280l-11 -34h280zM831 208
l12 37h-279l-12 -37h279zM385 208l12 37h-280l-12 -37h280zM377 186h-280l-13 -40h726l13 40h-279l-5 -17q-5 -6 -13 -14t-16 -8h-124q-11 0 -11.5 8.5t-2.5 14.5zM703 20q38 20 64 47h-690q9 -28 33 -47h593zM781 83q7 10 12.5 19.5t9.5 20.5l1 3h-726l-1 -3q-7 -20 -4 -40
h708z" />
    <glyph glyph-name="FL0076h" unicode="v" horiz-adv-x="938" 
d="M681 238l5 -7l8 25h10l-3 4h-6l19 56h13l-5 7h-6l17 52h17l-8 11h-6l16 49h19l-8 13h-6l15 46h23l-12 17h-6l14 43h301l-2 -6l15 -22l-12 -37h-22v-1l14 -22l-13 -40h-19l13 -19l-14 -43h-17l12 -17l-15 -46h-13l9 -13l-17 -50h-10l7 -10l-17 -53h-6l4 -6l-18 -56h-4
l2 -4l-46 -143h-420q-12 0 -28 11l-7 10h-5q-4 4 -6.5 7t-5.5 7l-5 8h-2q-12 13 -18.5 25t-8.5 18h1l-12 26l-25 57l-27 62l-27 59h5l-3 4h-4l-24 56h6l-5 7h-4l-23 52h7l-8 11h-4l-22 49h7l-8 13h-4l-20 46h8l-12 17h-4l-19 43h354l7 -17l8 -11l16 -37h-4l5 -13l7 -10
l17 -40h-3l4 -8l7 -11l18 -43h-4l2 -4l9 -13l19 -46h-3l9 -13l20 -50h-3zM901 -1l2 8h-437q13 -8 23 -8h412zM1071 522l6 21h-279l-6 -21h279zM1050 459l8 24h-279l-8 -24h279zM551 522l-10 21h-327l10 -21h327zM1030 397l9 27h-279l-9 -27h279zM576 459l-10 24h-325l10 -24
h325zM1010 334l9 30h-279l-9 -30h279zM602 397l-11 27h-324l12 -27h323zM989 271l11 34h-279l-11 -34h279zM628 334l-13 30h-322l14 -30h321zM654 271l-14 34h-321l15 -34h320zM681 218q-5 0 -6.5 3.5t-3.5 8.5l-6 15h-319l17 -37h606l12 37h-279l-7 -20q0 -1 -5 -3t-9 -4z
M431 54q2 -5 7 -15t13 -19h456l16 47h-498zM928 83l14 43h-543l19 -43h510zM948 146l13 40h-589l17 -40h559z" />
    <glyph glyph-name="FL0077h" unicode="w" horiz-adv-x="1123" 
d="M787 158h49q2 0 7 5t9 10l27 83h10l-3 4h-6l19 56h13l-5 7h-6l17 52h17l-8 11h-6l16 49h19l-8 13h-6l15 46h23l-12 17h-6l14 43h301l-2 -6l15 -22l-12 -37h-22v-1l14 -22l-13 -40h-19l13 -19l-14 -43h-17l12 -17l-15 -46h-13l9 -13l-17 -50h-10l7 -10l-17 -53h-6l4 -6
l-18 -56h-4l2 -4l-3 -11q-4 -11 -11 -23t-17 -25h1q-39 -41 -81 -63h-25l-1 -11q-27 -9 -47 -9h-789q-11 0 -20.5 2t-19.5 7l-7 11h-11q-7 5 -13.5 11t-11.5 14q-26 21 -39 66h2q-2 26 5 45l43 133h10l-3 4h-6l19 56h13l-5 7h-6l17 52h17l-8 11h-6l16 49h19l-8 13h-6l15 46
h23l-12 17h-6l14 43h302l-2 -6l15 -22l-12 -37h-22v-1l14 -22l-13 -40h-19l13 -19l-14 -43h-17l12 -17l-15 -46h-13l9 -13l-17 -50h-10l7 -10l-17 -53h-6l4 -6l-4 -11h51q2 0 7 4.5t8 8.5l27 85h10l-3 4h-6l19 56h13l-5 7h-6l17 52h17l-8 11h-6l16 49h19l-8 13h-6l15 46h23
l-12 17h-6l14 43h303l-2 -6l15 -22l-12 -37h-22v-1l14 -22l-13 -40h-19l13 -19l-14 -43h-17l12 -17l-15 -46h-13l9 -13l-17 -50h-10l7 -10l-17 -53h-6l4 -6zM1256 522l6 21h-279l-6 -21h279zM132 7q14 -7 35 -7h789q22 0 40 7h-864zM487 522l6 21h-280l-6 -21h280zM873 522
l6 21h-281l-6 -21h281zM1235 459l8 24h-279l-8 -24h279zM466 459l8 24h-280l-8 -24h280zM852 459l8 24h-281l-8 -24h281zM1215 397l9 27h-279l-9 -27h279zM446 397l9 27h-280l-9 -27h280zM832 397l9 27h-281l-9 -27h281zM1195 334l9 30h-279l-9 -30h279zM426 334l9 30h-280
l-9 -30h280zM812 334l9 30h-281l-9 -30h281zM1174 271l11 34h-279l-11 -34h279zM405 271l11 34h-280l-11 -34h280zM791 271l11 34h-281l-11 -34h281zM1154 208l12 37h-279l-12 -37h279zM385 208l12 37h-280l-12 -37h280zM771 208l12 37h-281l-12 -37h281zM377 186h-280
l-13 -40h1049l13 40h-279l-5 -16q-5 -6 -13 -14.5t-16 -8.5h-62q-11 0 -11.5 8.5t-1.5 14.5l5 16h-281l-5 -18l-2 -2l-12 -12t-14 -7h-63q-11 0 -11.5 8.5t-2.5 14.5zM1127 126h-1049l-1 -3q-7 -20 -4 -40h1031q7 10 12.5 19.5t9.5 20.5zM77 67q9 -28 33 -47h916
q38 20 64 47h-1013z" />
    <glyph glyph-name="x" unicode="x" horiz-adv-x="765" 
d="M512 554q2 -2 4.5 -5.5t4.5 -5.5q6 -6 12 -13t14 -19h-4l15 -22h-5q2 -6 3 -8l2 1l12 12h56l-12 17h-6l2 19l3 1t5 2q7 5 14.5 10.5t18.5 10.5h268l-2 -6l15 -22l-12 -37h-22v-1l14 -22l-13 -40h-19l13 -19l-9 -27h-131q-6 0 -29 -16h-35l12 -17q-12 -11 -23 -22.5
t-22 -23.5h-18l9 -13q-4 -13 -4.5 -25t1.5 -25h-3l7 -10q1 -2 1.5 -5t2.5 -6q3 -5 5.5 -10t7.5 -10h1q16 -17 34 -27.5t36 -10.5h55l-2 -6l15 -22l-6 -18h-4l2 -4l-46 -142h-240q-21 0 -37 10l-7 10h-9q-8 6 -14.5 13.5t-14.5 16.5q-10 8 -19 20t-19 26l-1 -1l-12 -12
q-29 -23 -46 -34.5t-31 -19.5q-6 -3 -10 -5.5t-6 -3.5h-32l-2 -12q-20 -6 -37.5 -7t-35.5 -1h-134l-15 22h-6l56 171h100q6 0 25 10t45 27q48 36 69 59h19l-3 4h-6l4 12q-1 0 0 1q-5 8 -8.5 18.5t-6.5 24.5h4l-5 7h-4q-2 5 -5 11t-5 11l-2.5 5l-3.5 7q-2 2 -2.5 3.5
t-2.5 3.5q-9 6 -19 9t-19.5 4.5t-16.5 2t-10 0.5h-48l-14 22h-6l10 33h19l-8 13h-6l15 46h23l-12 17h-6l14 43h306zM163 0q17 0 33.5 1t33.5 6h-191l-2 -7h126zM730 7h-266q13 -7 32 -7h232zM898 522l6 21h-253q-10 -5 -17 -10.5t-15 -10.5h279zM213 543l-6 -21h317
q-4 5 -9 10.5t-10 10.5h-292zM618 271q-1 8 -0.5 16.5t2.5 17.5h-288l6 -16t6 -15q0 -1 -1 -1.5t-1 -1.5h276zM637 334q5 7 13 14.5t16 15.5h-361q5 -8 8.5 -15l7.5 -15h316zM59 67l-16 -47h223q3 1 6.5 3t7.5 4q14 8 28.5 17.5t31.5 22.5h-281zM642 208q-11 16 -18 37h-303
q-15 -16 -42 -37h363zM707 397q23 16 32 16h123l4 11h-691l-4 -11h40q3 0 10.5 -0.5t17.5 -2t20.5 -4.5t19.5 -9h428zM734 20l16 47h-346q16 -26 40 -47h290zM194 483l-8 -24h691l8 24h-313l-20 -20q-2 4 -4 9t-5 11h-349zM775 146l1 2h-44q-20 0 -39 10.5t-35 27.5h-410
q-26 -17 -46 -27t-28 -10h-89l-1 -3h691zM755 83l14 43h-691l-14 -43h295l23 23q2 -3 5 -9q1 -4 3 -7t4 -7h361z" />
    <glyph glyph-name="FL0079h" unicode="y" horiz-adv-x="765" 
d="M504 554q2 -2 4.5 -5.5t4.5 -5.5q6 -6 12 -13t14 -19h-4l12 -17h1l-1 -2l3 -3h-2q1 -4 5 -10q3 3 7 7.5t8 7.5h38l-12 17h-10q20 15 33.5 23.5t25.5 16.5l4 3h272l-2 -6l15 -22l-12 -37h-22v-1l14 -22l-13 -40h-19l13 -19l-9 -27h-108l-32 -16h-41l12 -17
q-22 -17 -35 -27.5t-21 -18.5h-20l9 -13l-17 -50h-10l7 -10l-17 -53h-6l4 -6l-18 -56h-4l2 -4l-46 -142h-296l-15 22h-6l87 267h10l-3 4h-6l7 21q-1 3 -1 8v13t1 14h2l-4 6h-1l-1 1h-3q-6 13 -15 22q-6 8 -8.5 11.5t-5.5 7.5h-3q-18 11 -35 13.5t-22 2.5h-48l-14 22h-6
l10 33h19l-8 13h-6l15 46h23l-12 17h-6l14 43h298zM523 7h-280l-2 -7h280zM898 522l6 21h-258q-8 -5 -16 -10.5t-15 -10.5h283zM213 543l-6 -21h309q-4 5 -9 10.5t-10 10.5h-284zM329 271h280l10 31l1 3h-288q1 -5 1 -11v-10zM641 334q8 8 15.5 15t18.5 15h-374q6 -8 11 -15
t10 -15h319zM589 208l12 37h-280l-12 -37h280zM568 146l13 40h-280l-13 -40h280zM548 83l14 43h-280l-14 -43h280zM527 20l16 47h-280l-16 -47h280zM866 424h-691l-4 -11h40q5 0 23 -2.5t36 -13.5h458q22 12 32 16h102zM547 460q-3 5 -5.5 10.5t-5.5 12.5h-342l-8 -24h691
l8 24h-315q-10 -10 -16 -16.5t-7 -6.5z" />
    <glyph glyph-name="FL007Dh" unicode="z" horiz-adv-x="913" 
d="M625 554q3 -5 5.5 -7.5l4.5 -4.5q3 -3 8 -7.5t16 -12.5q4 -4 8 -6l-3 -4l17 -23h-6q5 -8 8.5 -14.5t6.5 -14.5q5 -9 9 -17t7 -17h-9l1 -2l11 -17l10 -43h-7l12 -17l9 -46h-5l9 -13l11 -50h-5l7 -10l8 -33q0 -6 7 -20h-3q10 -16 20 -16h157l-2 -6l15 -22l-6 -18h-4l2 -4
l-46 -142h-343q-22 0 -43 9l-7 11h-14q-20 11 -35 34q-11 9 -19.5 22t-17.5 29h-1q-5 11 -7.5 19.5t-3.5 14.5l-7 29v2l-14 60l-14 59h7l-3 4h-5l-12 56h8l-5 7h-5l-4 20q-3 5 -5 12.5t-5 19.5h1q-6 6 -13 6h-153l-15 22h-6l10 32h19l-8 13h-6l15 46h23l-12 17h-6l14 43h419
zM878 7h-375q15 -7 38 -7h335zM213 543l-6 -21h431q-5 5 -11 10.5t-11 10.5h-403zM368 334h338l-7 30h-340q2 -5 3 -8.5t2 -6.5zM317 414q15 0 26 -17h348l-6 27h-510l-3 -10h145zM720 271l-8 34h-338l8 -34h338zM194 483l-8 -24h490l-12 24h-470zM726 245h-338l9 -37h338
q-3 6 -3 11zM778 148q-13 0 -21 12t-15 26h-341l9 -40h513l1 2h-146zM882 20l16 47h-462q8 -14 18 -26t24 -21h404zM419 110q0 -11 8 -27h476l14 43h-502z" />
    <glyph glyph-name="FL0060h" unicode="{" horiz-adv-x="1501" 
d="M473 375l-8 11h-8l43 49h27l-8 13h-8l15 15q8 6 16.5 14t19.5 17h41l-12 17h-10l6.5 4.5t10.5 6.5q8 5 18.5 11.5t14.5 8.5q6 4 15 9l2 1q0 1 2 2h418l-2 -6l15 -22l-12 -37h-22v-1l14 -22l-13 -40h-19l13 -19l-8 -26h-154q-12 0 -35 -17h-37l12 -17l-6 -7.5t-8 -11.5
l-7 -8l-17 -19h-21l9 -13l-43 -50h-17l7 -10l-45 -53h-9l4 -6l-49 -56h-6l2 -4l-25 -28q-12 -13 -31 -31q-25 -22 -48.5 -37.5t-43.5 -25.5h-27l-1 -11q-27 -9 -50 -9h-345l-15 22h-6l56 170h158q8 0 23 12t31 26h10q4 11 6 15t5 6v0q0 1 1 2l31 36h15l-3 4h-8l50 56h20
l-5 7h-8l44 52h25zM1060 375l-8 11h-8l43 49h27l-8 13h-8l15 15q8 6 16.5 14t19.5 17h41l-12 17h-10l6.5 4.5t10.5 6.5q8 5 18.5 11.5t14.5 8.5q6 4 15 9l2 1q0 1 2 2h418l-2 -6l15 -22l-12 -37h-22v-1l14 -22l-13 -40h-19l13 -19l-8 -26h-154q-12 0 -35 -17h-37l12 -17
l-6 -7.5t-8 -11.5l-7 -8l-17 -19h-21l9 -13l-43 -50h-17l7 -10l-45 -53h-9l4 -6l-49 -56h-6l2 -4l-25 -28q-12 -13 -31 -31q-25 -22 -48.5 -37.5t-43.5 -25.5h-27l-1 -11q-27 -9 -50 -9h-345l-15 22h-6l56 170h158q8 0 23 12t31 26h10q4 11 6 15t5 6v0q0 1 1 2l31 36h15
l-3 4h-8l50 56h20l-5 7h-8l44 52h25zM961 0q25 0 43 7h-378l-2 -7h337zM374 0q25 0 43 7h-378l-2 -7h337zM1047 522l6 21h-403q-8 -5 -17 -10.5t-17 -10.5h431zM1634 522l6 21h-403q-8 -5 -17 -10.5t-17 -10.5h431zM1038 364l-25 -30h337l13 15q2 3 5 6.5t7 8.5h-337z
M451 364l-25 -30h337l13 15q2 3 5 6.5t7 8.5h-337zM1602 424h-511l-24 -27h347q23 17 39 17h146zM1015 424h-511l-24 -27h347q23 17 39 17h146zM1295 271l29 34h-337l-30 -34h338zM708 271l29 34h-337l-30 -34h338zM1613 459l8 24h-472q-17 -14 -27 -24h491zM1026 459l8 24
h-472q-17 -14 -27 -24h491zM653 208l32 37h-338l-26 -30q-2 -2 -3 -3.5t-3 -3.5h338zM1240 208l32 37h-338l-26 -30q-2 -2 -3 -3.5t-3 -3.5h338zM598 146l35 40h-342q-16 -14 -32 -26t-27 -12h-147l-1 -2h514zM1185 146l35 40h-342q-16 -14 -32 -26t-27 -12h-147l-1 -2h514z
M646 67l-16 -47h406q19 9 37.5 21t35.5 26h-463zM59 67l-16 -47h406q19 9 37.5 21t35.5 26h-463zM1168 126h-503l-14 -43h476q15 13 27 27zM581 126h-503l-14 -43h476q15 13 27 27z" />
    <glyph glyph-name="FL007Eh" unicode="|" horiz-adv-x="354" 
d="M259 699h-6l11 33h302l-2 -6l15 -22l-9 -27h-296zM239 637h-6l12 36h302l-2 -6l15 -22l-10 -30h-296zM-26 -179h-6l141 435h10l-3 4h-6l19 56h13l-5 7h-6l17 52h17l-8 11h-6l16 49h19l-8 13h-6l15 46h23l-12 17h-6l14 43h26l-13 20h-6l12 39h302l-2 -6l15 -22l-11 -33
h-22l-1 -4l15 -22l-12 -37h-22v-1l14 -22l-13 -40h-19l13 -19l-14 -43h-17l12 -17l-15 -46h-13l9 -13l-17 -50h-10l7 -10l-17 -53h-6l4 -6l-18 -56h-4l2 -4l-100 -310h-296zM548 710l3 11h-280l-3 -11h280zM528 648l4 14h-280l-4 -14h280zM507 585l6 17h-280l-6 -17h280z
M487 522l6 21h-280l-6 -21h280zM466 459l8 24h-280l-8 -24h280zM446 397l9 27h-280l-9 -27h280zM426 334l9 30h-280l-9 -30h280zM405 271l11 34h-280l-11 -34h280zM385 208l12 37h-280l-12 -37h280zM364 146l13 40h-280l-13 -40h280zM344 83l14 43h-280l-14 -43h280zM323 20
l16 47h-280l-16 -47h280zM303 -42l16 49h-280l-16 -49h280zM283 -105l17 53h-280l-17 -53h280zM262 -168l19 56h-280l-19 -56h280z" />
    <glyph glyph-name="FL0083h" unicode="}" horiz-adv-x="1551" 
d="M1320 294l2 7h-7zM473 375l-8 11h-8l43 49h27l-8 13h-8l15 15q8 6 16.5 14t19.5 17h41l-12 17h-10l6.5 4.5t10.5 6.5q8 5 18.5 11.5t14.5 8.5q6 4 15 9l2 1q0 1 2 2h418l-2 -6l15 -22l-12 -37h-22v-1l14 -22l-13 -40h-19l13 -19l-8 -26h-154q-12 0 -35 -17h-37l12 -17
l-6 -7.5t-8 -11.5l-7 -8l-17 -19h-21l9 -13l-43 -50h-17l7 -10l-45 -53h-9l4 -6l-49 -56h-6l2 -4l-25 -28q-12 -13 -31 -31q-25 -22 -48.5 -37.5t-43.5 -25.5h-27l-1 -11q-27 -9 -50 -9h-345l-15 22h-6l56 170h158q8 0 23 12t31 26h10q4 11 6 15t5 6v0q0 1 1 2l31 36h15
l-3 4h-8l50 56h20l-5 7h-8l44 52h25zM620 -11h-8l30 29h1l65 60l63 57l68 62l64 59h16l-3 4h-9l62 56h21l-5 7h-9l57 52h29l-8 11h-9l53 49h32l-8 13h-9l50 46h39l-12 17h-9q35 30 56 43h468l-2 -6l15 -22l-12 -37h-22v-1l14 -22l-13 -40h-19l13 -19l-14 -43h-17l12 -17
l-15 -46h-13l9 -13l-17 -50h-10l7 -10l-17 -53h-6l4 -6l-18 -56h-4l2 -4l-45 -141h-295l-15 22h-6l86 266h10l-3 4h-6l7 20l-45 -42h-18l7 -10l-55 -53h-10l4 -6l-60 -56h-8l2 -4l-61 -59l-64 -59l1 -1l-24 -23h-349zM1516 7h-279l-2 -6h279zM965 0l7 7h-328l-7 -7h328z
M374 0q25 0 43 7h-378l-2 -7h337zM1047 522l6 21h-403q-8 -5 -17 -10.5t-17 -10.5h431zM1602 271l11 34h-279l-11 -34h279zM1684 522l6 21h-453l-16.5 -11t-12.5 -10h476zM451 364l-25 -30h337l13 15q2 3 5 6.5t7 8.5h-337zM1582 208l12 37h-279l-12 -37h279zM1252 271
l36 34h-318l-37 -34h319zM1015 424h-511l-24 -27h347q23 17 39 17h146zM1561 146l13 40h-279l-13 -40h279zM708 271l29 34h-337l-30 -34h338zM1026 459l8 24h-472q-17 -14 -27 -24h491zM1186 208l39 37h-320l-40 -37h321zM1541 83l14 43h-279l-14 -43h279zM1663 459l8 24
h-507l-26 -24h525zM653 208l32 37h-338l-26 -30q-2 -2 -3 -3.5t-3 -3.5h338zM1119 146l43 40h-322l-44 -40h323zM1520 20l16 47h-279l-16 -47h279zM1053 83l45 43h-323l-47 -43h325zM598 146l35 40h-342q-16 -14 -32 -26t-27 -12h-147l-1 -2h514zM1643 397l9 27h-552
l-29 -27h572zM985 20l51 47h-326l-52 -47h327zM1623 334l9 30h-598l-32 -30h318l7 7t7 2q2 -2 6 -4t4 -3v-2h279zM59 67l-16 -47h406q19 9 37.5 21t35.5 26h-463zM581 126h-503l-14 -43h476q15 13 27 27z" />
    <glyph glyph-name="FL0082h" unicode="~" horiz-adv-x="1480" 
d="M163 403h-6l10 32h19l-8 13h-6l15 46h23l-12 17h-6l14 43h711l-2 -6l15 -22l-12 -37h-22v-1l14 -22l-13 -40h-19l13 -19l-8 -26h-206l-6 -17h-17l12 -17l-15 -46h-13l9 -13l-17 -50h-10l7 -10l-17 -53h-6l4 -6l-18 -56h-4l2 -4l-46 -142h-296l-15 22h-6l87 267h10l-3 4
h-6l19 56h13l-5 7h-6l17 52h17l-4 6h-186zM1039 375l-8 11h-8l43 49h27l-8 13h-8l15 15q8 6 16.5 14t19.5 17h41l-12 17h-10l6.5 4.5t10.5 6.5q8 5 18.5 11.5t14.5 8.5q6 4 15 9l2 1q0 1 2 2h418l-2 -6l15 -22l-12 -37h-22v-1l14 -22l-13 -40h-19l13 -19l-8 -26h-154
q-12 0 -35 -17h-37l12 -17l-6 -7.5t-8 -11.5l-7 -8l-17 -19h-21l9 -13l-43 -50h-17l7 -10l-45 -53h-9l4 -6l-49 -56h-6l2 -4l-25 -28q-12 -13 -31 -31q-25 -22 -48.5 -37.5t-43.5 -25.5h-27l-1 -11q-27 -9 -50 -9h-345l-15 22h-6l56 170h158q8 0 23 12t31 26h10q4 11 6 15
t5 6v0q0 1 1 2l31 36h15l-3 4h-8l50 56h20l-5 7h-8l44 52h25zM522 7h-280l-2 -7h280zM940 0q25 0 43 7h-378l-2 -7h337zM629 334l9 30h-280l-9 -30h280zM1613 522l6 21h-403q-8 -5 -17 -10.5t-17 -10.5h431zM608 271l11 34h-280l-11 -34h280zM1017 364l-25 -30h337l13 15
q2 3 5 6.5t7 8.5h-337zM588 208l12 37h-280l-12 -37h280zM1581 424h-511l-24 -27h347q23 17 39 17h146zM567 146l13 40h-280l-13 -40h280zM1274 271l29 34h-337l-30 -34h338zM1592 459l8 24h-472q-17 -14 -27 -24h491zM864 424h-689l-3 -10h203l-6 -17h280l6 17h206zM547 83
l14 43h-280l-14 -43h280zM1219 208l32 37h-338l-26 -30q-2 -2 -3 -3.5t-3 -3.5h338zM526 20l16 47h-280l-16 -47h280zM1164 146l35 40h-342q-16 -14 -32 -26t-27 -12h-147l-1 -2h514zM896 522l6 21h-689l-6 -21h689zM875 459l8 24h-689l-8 -24h689zM625 67l-16 -47h406
q19 9 37.5 21t35.5 26h-463zM1147 126h-503l-14 -43h476q15 13 27 27z" />
    <glyph glyph-name="FL007Fh" horiz-adv-x="236" 
 />
    <glyph glyph-name="FL20ACh" horiz-adv-x="821" 
d="M146 370h118l2 5h17l-8 11h-6l16 49h23l-8 13h-8q8 12 16.5 23.5t17.5 22.5h35l-12 17h-11q26 18 42 28t25 15h570l-2 -6l15 -22l-12 -37h-22v-1l14 -22l-13 -40h-19l13 -19l-8 -26h-336q-7 0 -16 -11h158l-2 -6l15 -22l-13 -41h-13l9 -13l-9 -26h-181l-2 -6h159l-2 -6
l15 -22l-17 -53h-187l4 -6l-4 -11h321l-2 -6l15 -22l-5 -17h-4l2 -4l-46 -142h-501q-20 0 -41 9l-7 11h-11q-7 5 -13.5 11t-11.5 14q-26 21 -39 66h3q-2 26 5 45l17 52h-90l-15 22h-6l19 59h128l-3 4h-6l1 2h-90l-15 22h-6l11 32h13l-5 7h-6zM780 7h-531q15 -7 36 -7h493z
M566 397q5 7 11.5 12t13.5 5h328l3 10h-629l-2 -6l-7 -21h282zM495 186h-280l-13 -40h623l1 1h-322q-8 0 -12 6.5t-2 16.5zM954 522l6 21h-555q-13 -7 -34 -21h583zM715 305h-579l-3 -10h118l-8 -24h280l8 24h181zM933 459l8 24h-612q-5 -6 -9 -12t-9 -12h622zM146 334h579
l8 25h-181l1 5h-280l-1 -5h-118zM684 208l12 37h-579l-12 -37h579zM805 83l14 43h-623l-1 -3q-7 -20 -4 -40h614zM784 20l16 47h-606q9 -28 33 -47h557z" />
    <glyph glyph-name="FL20ACh" unicode="&#x20ac;" horiz-adv-x="821" 
d="M146 370h118l2 5h17l-8 11h-6l16 49h23l-8 13h-8q8 12 16.5 23.5t17.5 22.5h35l-12 17h-11q26 18 42 28t25 15h570l-2 -6l15 -22l-12 -37h-22v-1l14 -22l-13 -40h-19l13 -19l-8 -26h-336q-7 0 -16 -11h158l-2 -6l15 -22l-13 -41h-13l9 -13l-9 -26h-181l-2 -6h159l-2 -6
l15 -22l-17 -53h-187l4 -6l-4 -11h321l-2 -6l15 -22l-5 -17h-4l2 -4l-46 -142h-501q-20 0 -41 9l-7 11h-11q-7 5 -13.5 11t-11.5 14q-26 21 -39 66h3q-2 26 5 45l17 52h-90l-15 22h-6l19 59h128l-3 4h-6l1 2h-90l-15 22h-6l11 32h13l-5 7h-6zM780 7h-531q15 -7 36 -7h493z
M566 397q5 7 11.5 12t13.5 5h328l3 10h-629l-2 -6l-7 -21h282zM495 186h-280l-13 -40h623l1 1h-322q-8 0 -12 6.5t-2 16.5zM954 522l6 21h-555q-13 -7 -34 -21h583zM715 305h-579l-3 -10h118l-8 -24h280l8 24h181zM933 459l8 24h-612q-5 -6 -9 -12t-9 -12h622zM146 334h579
l8 25h-181l1 5h-280l-1 -5h-118zM684 208l12 37h-579l-12 -37h579zM805 83l14 43h-623l-1 -3q-7 -20 -4 -40h614zM784 20l16 47h-606q9 -28 33 -47h557z" />
    <glyph glyph-name="FL017Fh" horiz-adv-x="1501" 
d="M1210 554q6 -5 23 -23q3 -4 9.5 -10t10.5 -10h-6l12 -17h1q2 -5 3.5 -9.5t3.5 -9.5l7 -9q7 -13 11.5 -22.5t7.5 -17.5h-9l1 -2l11 -17l10 -43h-8l12 -17l11 -46h-6l9 -13l11 -50h-5l7 -10l7 -29q-1 -1 1 -2h-1l1 -5v-1l11 -16h-7q10 -16 20 -16h158l-2 -6l15 -22l-6 -18
h-4l2 -4l-46 -142h-345q-22 0 -43 9l-7 11h-13q-10 7 -19.5 15.5t-17.5 19.5q-8 9 -17 21t-19 29l-2 3q0 1 -0.5 1.5t-0.5 1.5q-3 9 -5.5 16t-2.5 12l-7 29v2l-14 60l-14 59h7l-3 4h-5l-12 56h8l-5 7h-5l-4 20q-5 8 -5 29q-8 9 -16 9h-154l-15 22h-6l10 32h19l-8 13h-6
l15 46h23l-12 17h-6l14 43h417zM623 554q6 -5 23 -23q3 -4 9.5 -10t10.5 -10h-6l12 -17h1q2 -5 3.5 -9.5t3.5 -9.5l7 -9q7 -13 11.5 -22.5t7.5 -17.5h-9l1 -2l11 -17l10 -43h-8l12 -17l11 -46h-6l9 -13l11 -50h-5l7 -10l7 -29q-1 -1 1 -2h-1l1 -5v-1l11 -16h-7
q10 -16 20 -16h158l-2 -6l15 -22l-6 -18h-4l2 -4l-46 -142h-345q-22 0 -43 9l-7 11h-13q-10 7 -19.5 15.5t-17.5 19.5q-8 9 -17 21t-19 29l-2 3q0 1 -0.5 1.5t-0.5 1.5q-3 8 -5.5 15t-2.5 12l-7 30l-14 62l-14 59h7l-3 4h-5l-12 56h8l-5 7h-5l-4 20q-5 8 -5 29q-8 9 -16 9
h-154l-15 22h-6l10 32h19l-8 13h-6l15 46h23l-12 17h-6l14 43h417zM879 7h-377q15 -7 38 -7h337zM1466 7h-377q15 -7 38 -7h337zM800 543l-6 -21h431l-10.5 10.5t-12.5 10.5h-402zM213 543l-6 -21h431l-10.5 10.5t-12.5 10.5h-402zM955 334h338l-8 30h-337q1 -5 1.5 -8.5
t1.5 -6.5zM368 334h338l-8 30h-337q1 -5 1.5 -8.5t1.5 -6.5zM318 414q15 0 26 -17h347l-6 27h-510l-3 -10h146zM905 414q15 0 26 -17h347l-6 27h-510l-3 -10h146zM1307 271l-8 34h-338l8 -34h338zM720 271l-8 34h-338l8 -34h338zM194 483l-8 -24h490q-2 5 -4.5 11t-6.5 13
h-471zM781 483l-8 -24h490q-2 5 -4.5 11t-6.5 13h-471zM1313 245h-338l9 -37h338q-2 3 -2 7zM726 245h-338l9 -37h338q-2 3 -2 7zM1365 148q-11 0 -20 12t-16 26h-341l9 -40h514l1 2h-147zM778 148q-11 0 -20 12t-16 26h-341l9 -40h514l1 2h-147zM883 20l16 47h-463
q15 -27 42 -47h405zM1470 20l16 47h-463q15 -27 42 -47h405zM419 110q0 -11 8 -27h477l14 43h-503zM1006 110q0 -11 8 -27h477l14 43h-503z" />
    <glyph glyph-name="FL017Fh" unicode="&#x17d;" horiz-adv-x="1501" 
d="M1210 554q6 -5 23 -23q3 -4 9.5 -10t10.5 -10h-6l12 -17h1q2 -5 3.5 -9.5t3.5 -9.5l7 -9q7 -13 11.5 -22.5t7.5 -17.5h-9l1 -2l11 -17l10 -43h-8l12 -17l11 -46h-6l9 -13l11 -50h-5l7 -10l7 -29q-1 -1 1 -2h-1l1 -5v-1l11 -16h-7q10 -16 20 -16h158l-2 -6l15 -22l-6 -18
h-4l2 -4l-46 -142h-345q-22 0 -43 9l-7 11h-13q-10 7 -19.5 15.5t-17.5 19.5q-8 9 -17 21t-19 29l-2 3q0 1 -0.5 1.5t-0.5 1.5q-3 9 -5.5 16t-2.5 12l-7 29v2l-14 60l-14 59h7l-3 4h-5l-12 56h8l-5 7h-5l-4 20q-5 8 -5 29q-8 9 -16 9h-154l-15 22h-6l10 32h19l-8 13h-6
l15 46h23l-12 17h-6l14 43h417zM623 554q6 -5 23 -23q3 -4 9.5 -10t10.5 -10h-6l12 -17h1q2 -5 3.5 -9.5t3.5 -9.5l7 -9q7 -13 11.5 -22.5t7.5 -17.5h-9l1 -2l11 -17l10 -43h-8l12 -17l11 -46h-6l9 -13l11 -50h-5l7 -10l7 -29q-1 -1 1 -2h-1l1 -5v-1l11 -16h-7
q10 -16 20 -16h158l-2 -6l15 -22l-6 -18h-4l2 -4l-46 -142h-345q-22 0 -43 9l-7 11h-13q-10 7 -19.5 15.5t-17.5 19.5q-8 9 -17 21t-19 29l-2 3q0 1 -0.5 1.5t-0.5 1.5q-3 8 -5.5 15t-2.5 12l-7 30l-14 62l-14 59h7l-3 4h-5l-12 56h8l-5 7h-5l-4 20q-5 8 -5 29q-8 9 -16 9
h-154l-15 22h-6l10 32h19l-8 13h-6l15 46h23l-12 17h-6l14 43h417zM879 7h-377q15 -7 38 -7h337zM1466 7h-377q15 -7 38 -7h337zM800 543l-6 -21h431l-10.5 10.5t-12.5 10.5h-402zM213 543l-6 -21h431l-10.5 10.5t-12.5 10.5h-402zM955 334h338l-8 30h-337q1 -5 1.5 -8.5
t1.5 -6.5zM368 334h338l-8 30h-337q1 -5 1.5 -8.5t1.5 -6.5zM318 414q15 0 26 -17h347l-6 27h-510l-3 -10h146zM905 414q15 0 26 -17h347l-6 27h-510l-3 -10h146zM1307 271l-8 34h-338l8 -34h338zM720 271l-8 34h-338l8 -34h338zM194 483l-8 -24h490q-2 5 -4.5 11t-6.5 13
h-471zM781 483l-8 -24h490q-2 5 -4.5 11t-6.5 13h-471zM1313 245h-338l9 -37h338q-2 3 -2 7zM726 245h-338l9 -37h338q-2 3 -2 7zM1365 148q-11 0 -20 12t-16 26h-341l9 -40h514l1 2h-147zM778 148q-11 0 -20 12t-16 26h-341l9 -40h514l1 2h-147zM883 20l16 47h-463
q15 -27 42 -47h405zM1470 20l16 47h-463q15 -27 42 -47h405zM419 110q0 -11 8 -27h477l14 43h-503zM1006 110q0 -11 8 -27h477l14 43h-503z" />
    <glyph glyph-name="FL017Eh" horiz-adv-x="914" 
d="M501 762h-4l-14 30h196l4 -12l11 -16l8 -24h-187zM722 762h-9l32 30h195l-5 -5l15 -23l-26 -24h-188zM556 637h-4l-16 36h276l-6 -5l16 -23l-33 -30h-218zM529 699h-4l-16 33h368l-6 -5l16 -23l-31 -27h-312zM626 554l16 -16l14 -14q2 -2 5.5 -6.5t5.5 -6.5h-4l15 -22h-2
q4 -10 5 -14l7 -9q7 -13 11.5 -22.5t7.5 -17.5h-10l1 -2l11 -17l10 -43h-8l12 -17l11 -46h-6l9 -13l11 -50h-5l7 -10l7 -29q-1 -1 1 -2h-1l1 -5v-1l11 -16h-7q10 -16 20 -16h158l-2 -6l15 -22l-6 -18h-4l2 -4l-46 -142h-345q-22 0 -43 9l-7 11h-13q-10 7 -19.5 15.5
t-17.5 19.5q-8 9 -17 21t-19 29l-2 3q0 1 -0.5 1.5t-0.5 1.5q-3 9 -5.5 16t-2.5 12l-7 29l-14 62l-14 59h7l-3 4h-5l-12 56h8l-5 7h-5l-4 20q-5 8 -5 29q-8 9 -16 9h-154l-15 22h-6l10 32h19l-8 13h-6l15 46h23l-12 17h-6l14 43h420zM906 773l9 8h-168l-9 -8h168zM673 773
l-2 8h-169l3 -8h168zM879 7h-377q15 -7 38 -7h337zM771 648l15 14h-232l7 -14h210zM838 710l12 11h-322l6 -11h304zM213 543l-6 -21h433q-7 6 -11.5 11t-11.5 10h-404zM368 334h338l-8 30h-337q1 -5 1.5 -8.5t1.5 -6.5zM318 414q15 0 26 -17h347l-6 27h-510l-3 -10h146z
M720 271l-8 34h-338l8 -34h338zM194 483l-8 -24h491q-2 5 -4.5 11t-6.5 13h-472zM726 245h-338l9 -37h338q-2 3 -2 7zM778 148q-11 0 -20 12t-16 26h-341l9 -40h514l1 2h-147zM883 20l16 47h-463q15 -27 42 -47h405zM419 110q0 -11 8 -27h477l14 43h-503z" />
    <glyph glyph-name="FL017Eh" unicode="&#x17e;" horiz-adv-x="914" 
d="M501 762h-4l-14 30h196l4 -12l11 -16l8 -24h-187zM722 762h-9l32 30h195l-5 -5l15 -23l-26 -24h-188zM556 637h-4l-16 36h276l-6 -5l16 -23l-33 -30h-218zM529 699h-4l-16 33h368l-6 -5l16 -23l-31 -27h-312zM626 554l16 -16l14 -14q2 -2 5.5 -6.5t5.5 -6.5h-4l15 -22h-2
q4 -10 5 -14l7 -9q7 -13 11.5 -22.5t7.5 -17.5h-10l1 -2l11 -17l10 -43h-8l12 -17l11 -46h-6l9 -13l11 -50h-5l7 -10l7 -29q-1 -1 1 -2h-1l1 -5v-1l11 -16h-7q10 -16 20 -16h158l-2 -6l15 -22l-6 -18h-4l2 -4l-46 -142h-345q-22 0 -43 9l-7 11h-13q-10 7 -19.5 15.5
t-17.5 19.5q-8 9 -17 21t-19 29l-2 3q0 1 -0.5 1.5t-0.5 1.5q-3 9 -5.5 16t-2.5 12l-7 29l-14 62l-14 59h7l-3 4h-5l-12 56h8l-5 7h-5l-4 20q-5 8 -5 29q-8 9 -16 9h-154l-15 22h-6l10 32h19l-8 13h-6l15 46h23l-12 17h-6l14 43h420zM906 773l9 8h-168l-9 -8h168zM673 773
l-2 8h-169l3 -8h168zM879 7h-377q15 -7 38 -7h337zM771 648l15 14h-232l7 -14h210zM838 710l12 11h-322l6 -11h304zM213 543l-6 -21h433q-7 6 -11.5 11t-11.5 10h-404zM368 334h338l-8 30h-337q1 -5 1.5 -8.5t1.5 -6.5zM318 414q15 0 26 -17h347l-6 27h-510l-3 -10h146z
M720 271l-8 34h-338l8 -34h338zM194 483l-8 -24h491q-2 5 -4.5 11t-6.5 13h-472zM726 245h-338l9 -37h338q-2 3 -2 7zM778 148q-11 0 -20 12t-16 26h-341l9 -40h514l1 2h-147zM883 20l16 47h-463q15 -27 42 -47h405zM419 110q0 -11 8 -27h477l14 43h-503z" />
    <glyph glyph-name="FL00A1h" unicode="&#xa1;" horiz-adv-x="354" 
d="M462 511l15 -22h-14v-1l14 -22l-2 -8q0 -5 -3 -14q0 -2 -1 -3t-2 -3l-4 -12h-25l13 -19q-17 -16 -31 -27t-26 -16h-152q-3 3 -7 6.5t-7 8.5l-5 7h-1q-13 11 -30 49h19l-8 13h-5q-2 8 -1.5 12t2.5 9t4.5 10.5t8.5 14.5h28l-12 17h-10q20 15 36 26.5t27 16.5h148
q8 -6 16.5 -17.5t18.5 -25.5h-4zM28 -11h-6l87 267h13l-3 4h-7l35 56h268l-2 -8l15 -20l-6 -50h-5l7 -10l-17 -53h-6l4 -6l-18 -56h-4l2 -4l-46 -142h-296zM319 7h-280l-2 -7h280zM443 522q-4 5 -8.5 10.5t-11.5 10.5h-140q-10 -5 -17.5 -10.5t-14.5 -10.5h192zM212 424
q6 -16 20 -27h148q17 8 38 27h-206zM447 469q2 4 2 7t1 7h-232q-3 -4 -6 -14l-1.5 -6t-0.5 -4h233q1 2 2 4.5t2 5.5zM398 271l3 34h-250l-20 -34h267zM385 208l12 37h-280l-12 -37h280zM364 146l13 40h-280l-13 -40h280zM344 83l14 43h-280l-14 -43h280zM323 20l16 47h-280
l-16 -47h280z" />
    <glyph glyph-name="FL00A2h" unicode="&#xa2;" horiz-adv-x="782" 
d="M155 398q4 10 7.5 19t8.5 18h26l-8 13h-8q10 13 21.5 24t23.5 22h70l-12 17h-6l2 19q20 9 37.5 12.5t33.5 3.5h146l3 8h26l-13 20h-6l12 39h246l-2 -6l15 -22l-11 -33h-22l-1 -4l1 -2h187l-2 -6l15 -22l-9 -29h-22v-1l14 -22l-13 -40h-19l13 -19l-14 -43h-443l12 -17
l-15 -46h-13l9 -13l-17 -50h-10l7 -10l-13 -41h405l-2 -6l15 -22l-15 -46h-4l2 -4l-36 -113h-188l-29 -89h-240l-15 22h-6l22 67h-122q-29 0 -52 14.5t-41 39.5l-1 1q-10 10 -22 27h4q-7 14 -9 28.5t-4 30.5h1q0 9 2 17l4 16l28 86h10l-3 4h-6l19 56h13l-5 7h-6l17 52h17
l-8 11h-6zM540 -52h-224l-2 -8h224zM745 585l6 17h-224l-6 -17h224zM427 334l9 30h-281l-9 -30h281zM406 271l11 34h-281l-11 -34h281zM729 535l2 8h-224l-2 -8h-157q-28 0 -60 -13h626l4 13h-189zM386 208l12 37h-281l-12 -37h281zM543 -42l16 49h-224l-16 -49h224z
M893 459l8 24h-675q-8 -6 -13.5 -12t-10.5 -12h691zM166 397h707l9 27h-704q-7 -12 -12 -26v-1zM396 176q-8 0 -9 10h-290l-5 -16q-2 -6 -3 -12l-2 -12h705l10 30h-406zM342 29l-3 -9h224l3 9h188l13 38h-659q12 -17 31 -27.5t45 -10.5h158zM772 83l14 43h-699l4 -22t7 -21
h674z" />
    <glyph glyph-name="FL00A3h" unicode="&#xa3;" horiz-adv-x="731" 
d="M144 362h101q0 3 -0.5 6t0.5 7h21l-8 11h-6q5 14 10 26.5t10 22.5h26l-8 13h-8q12 18 19.5 28t15.5 18h36l-12 17h-11q26 18 42 28t25 15h302l-2 -6l15 -22l-12 -37h-22v-1l14 -22l-13 -40h-19l13 -19l-8 -26h-69q-19 0 -33 -17h-14q7 -3 16 -3h149l-2 -6l15 -22l-10 -32
h-13l9 -13l-17 -50h-10l7 -10l-16 -50h-147q-10 0 -20 -3h-15l4 -6l-4 -11h2h259l-2 -6l15 -22l-5 -17h-4l2 -4l-46 -142h-673l-15 22h-6l55 169h100l6 17h-72l-15 22h-6l19 59h10l-3 4h-6l19 56h13l-5 7h-6zM696 7h-657l-2 -7h657zM678 522l6 21h-287q-13 -7 -34 -21h315z
M657 459l8 24h-345q-5 -6 -9.5 -12t-9.5 -12h356zM544 397q14 17 38 17h61l3 10h-367q-8 -15 -12 -27h277zM197 186l-5 -16l-4 -12q-3 -10 -2 -11h-101l-1 -1h657l1 1h-248q-19 0 -24 10t0 24l1 5h-274zM146 334h549l5 16h-138q-30 0 -30 14h-275v-6q0 -3 -1 -7h-105z
M674 271l11 34h-549l-11 -34h549zM666 245h-549l-12 -37h388q9 3 23 3h139zM721 83l14 43h-657l-14 -43h657zM700 20l16 47h-657l-16 -47h657z" />
    <glyph glyph-name="FL00BDh" unicode="&#xa4;" horiz-adv-x="841" 
d="M437 218q2 -2 4 -2l-2 -5l9 -14h95l2 19q13 5 23.5 12t12.5 15l4 13h10l-3 4h-6l19 56h12l-5 7h-6q3 24 -14 34l3 7h-107l12 -17l-1 -13q-11 -5 -20 -13t-15 -20h-13l9 -13l-17 -50h-10l7 -10zM232 494l-12 17h-4l-21 43h356l10 -22l5 -6l15 -32h38l-12 17h-9l49 43h356
l-6 -5l16 -23l-42 -37h-42l15 -23l-47 -40h-34l13 -19l-51 -43h-30l12 -17l-54 -46h-23l9 -13l-38 -33l11 -21l4 -6l26 -53h-1l4 -6l28 -56h-1l2 -4l31 -59l32 -63h-1l11 -20h-348l-15 22h-4l-10 20h-1l-16 31l-61 -53h-1l-24 -20h-348l-15 22h-9l24 20l72 63l7 6l68 59
l69 60l69 59h14l-3 4h-10l27 21l-17 35h6l-5 7h-4l-27 52h6l-8 11h-4l-24 49h7l-8 13h-4l-24 46h6zM350 0l8 7h-328l-8 -7h328zM816 0l-4 7h-328l4 -7h328zM679 271l-5 10l28 24h-90l-11 -34h78zM334 271h87l11 34h-98l12 -24zM736 334l34 30h-165q16 -11 15 -30h116z
M304 364l16 -30h123q10 19 33 30h-172zM711 208l-18 37h-100l-1 -2q-4 -11 -15 -20.5t-24 -14.5h158zM413 245h-108l-43 -37h167q-10 5 -15.5 14.5t-1.5 20.5zM953 522l23 21h-328l-23 -21h328zM553 522l-11 21h-328l11 -21h328zM808 397l32 27h-565l13 -27h520zM805 20
l-23 47h-328l23 -47h328zM373 20l55 47h-328l-55 -47h328zM245 483l12 -24h623l28 24h-329l-4 -4l-3 4h-327zM741 146l-20 40h-485l-46 -40h551zM774 83l-22 43h-585l-49 -43h656z" />
    <glyph glyph-name="FL00A5h" unicode="&#xa5;" horiz-adv-x="765" 
d="M504 554q2 -2 4.5 -5.5t4.5 -5.5q6 -6 12 -13t14 -19h-4l12 -17h1l-1 -2l3 -3h-2q1 -4 5 -10q3 3 7 7.5t8 7.5h38l-12 17h-10q20 15 33.5 23.5t25.5 16.5l4 3h272l-2 -6l15 -22l-12 -37h-22v-1l14 -22l-13 -40h-19l13 -19l-9 -27h-108l-32 -16h-41l12 -17
q-22 -17 -35 -27.5t-21 -18.5h-20v-1h138l-1 -6l14 -22l-11 -34h-10l7 -10l-12 -36h-148l-5 -17h-6l4 -6h126l-2 -6l15 -22l-9 -28h-4l2 -4l-15 -48h-148l-31 -94h-296l-15 22h-6l24 72h-123l-15 22h-6l28 86h151l7 23h-123l-14 22h-6l13 42h10l-3 4h-6l13 40h141l1 2
q-2 7 2 14h3l-4 6h-1l-1 1h-3q-6 13 -15 22q-6 8 -8.5 11.5t-5.5 7.5h-3q-18 11 -35 13.5t-22 2.5h-48l-14 22h-6l10 33h19l-8 13h-6l15 46h23l-12 17h-6l14 43h298zM523 7h-280l-2 -7h280zM898 522l6 21h-258q-8 -5 -16 -10.5t-15 -10.5h283zM213 543l-6 -21h309
q-4 5 -9 10.5t-10 10.5h-284zM641 334q8 8 15.5 15t18.5 15h-374q6 -8 11 -15t10 -15h319zM527 20l16 47h-280l-16 -47h280zM581 186h-280l-9 -28h-151l-4 -12h579l4 12h-148zM178 271h579l6 18h-148l4 13l1 3h-289q1 -4 1 -8t1 -8h-149zM728 397q22 12 32 16h102l4 11h-691
l-4 -11h40q5 0 23 -2.5t36 -13.5h458zM194 483l-8 -24h691l8 24h-315q-10 -10 -16 -16.5t-7 -6.5q-3 5 -5.5 10.5t-5.5 12.5h-342zM749 245h-579l-7 -20h151l-5 -17h280l5 17h148zM710 126h-579l-10 -32h151l-4 -11h280l4 11h148z" />
    <glyph glyph-name="FL00B8h" unicode="&#xa6;" horiz-adv-x="354" 
d="M239 637h-6l12 36h302l-2 -6l15 -22l-10 -30h-296zM-10 -129h-6l125 385h10l-3 4h-6l19 56h13l-5 7h-6l17 52h17l-8 11h-6l16 49h19l-8 13h-6l15 46h23l-12 17h-6l14 43h26l-13 20h-6l12 39h302l-2 -6l15 -22l-11 -33h-22l-1 -4l15 -22l-12 -37h-22v-1l14 -22l-13 -40
h-19l13 -19l-14 -43h-17l12 -17l-15 -46h-13l9 -13l-17 -50h-10l7 -10l-17 -53h-6l4 -6l-18 -56h-4l2 -4l-84 -260h-296zM281 -112h-280l-2 -6h280zM528 648l4 14h-280l-4 -14h280zM507 585l6 17h-280l-6 -17h280zM487 522l6 21h-280l-6 -21h280zM466 459l8 24h-280l-8 -24
h280zM446 397l9 27h-280l-9 -27h280zM426 334l9 30h-280l-9 -30h280zM405 271l11 34h-280l-11 -34h280zM385 208l12 37h-280l-12 -37h280zM364 146l13 40h-280l-13 -40h280zM344 83l14 43h-280l-14 -43h280zM323 20l16 47h-280l-16 -47h280zM303 -42l16 49h-280l-16 -49h280
zM283 -105l17 53h-280l-17 -53h280z" />
    <glyph glyph-name="FL00A7h" unicode="&#xa7;" horiz-adv-x="841" 
d="M437 218q2 -2 4 -2l-2 -5l9 -14h95l2 19q13 5 23.5 12t12.5 15l4 13h10l-3 4h-6l19 56h12l-5 7h-6q3 24 -14 34l3 7h-107l12 -17l-1 -13q-11 -5 -20 -13t-15 -20h-13l9 -13l-17 -50h-10l7 -10zM470 375l-8 11h-9l56 49h33l-8 13h-9l53 46h41l-12 17h-9l49 43h356l-6 -5
l16 -23l-44 -37h-41l15 -23l-47 -40h-34l13 -19l-49 -43h-32l12 -17l-54 -46h-23l9 -13l-58 -50h-19l7 -10l-60 -53h-11l4 -6l-64 -56h-8l2 -4l-67 -59l-72 -63h-1l-24 -20h-348l-15 22h-9l24 20l72 63l7 6l68 59l69 60l67 59h17l-3 4h-9l65 56h22l-5 7h-9l60 52h30z
M441 364l-34 -30h36q10 19 33 30h-35zM590 208l42 37h-39l-1 -2q-4 -11 -15 -20.5t-24 -14.5h37zM350 0l8 7h-328l-8 -7h328zM421 271l11 34h-59l-39 -34h87zM662 271l39 34h-89l-11 -34h61zM735 334l34 30h-164q16 -11 15 -30h115zM413 245h-109l-42 -37h167
q-10 5 -15.5 14.5t-1.5 20.5zM952 522l24 21h-328l-23 -21h327zM879 459l28 24h-328l-28 -24h328zM808 397l31 27h-328l-31 -27h328zM518 146l46 40h-328l-46 -40h328zM446 83l49 43h-328l-49 -43h328zM373 20l55 47h-328l-55 -47h328z" />
    <glyph glyph-name="FL00A8h" unicode="&#xa8;" horiz-adv-x="496" 
d="M424 435l-8 13h-5q-2 6 -2 8q-4 -13 -17 -30h-27l13 -19q-58 -40 -104 -40t-80 40l-7 11q-10 7 -17 17h18l-8 13h-5q-4 15 3 34l4 12h27l-12 17h-9q14 13 26 24t27 19h137q6 -7 13 -16.5t12 -24.5q1 0 0.5 -0.5t0.5 -0.5q3 -5 6.5 -10.5t5.5 -12.5h-18v-1l12 -19
q2 8 4 13l4 12h27l-12 17h-9q14 13 26 24t27 19h137q6 -7 13 -16.5t12 -24.5q1 0 0.5 -0.5t0.5 -0.5q3 -5 6.5 -10.5t5.5 -12.5h-18v-1l14 -22l-3 -9q-3 -12 -17 -31h-27l13 -19q-58 -40 -104 -40t-80 40l-7 11q-10 7 -17 17h18zM197 424q21 -24 63 -24q43 0 78 24h-141z
M433 424q21 -24 63 -24q43 0 78 24h-141zM386 522q-6 12 -15 21h-131q-8 -5 -14.5 -10.5t-11.5 -10.5h172zM622 522q-6 12 -15 21h-131q-8 -5 -14.5 -10.5t-11.5 -10.5h172zM621 483h-196v-1q-5 -16 -4 -23h188q7 10 12 23v1zM189 482q-5 -16 -4 -23h188q7 10 12 23v1h-196
v-1z" />
    <glyph glyph-name="copyright" unicode="&#xa9;" horiz-adv-x="286" 
d="M354 439q-3 -3 -6 -4h8zM249 505q-4 -8 -4 -11h13zM251 540l6 12h-10q-1 -1 -1 -2t-1 -2zM242 448q2 -2 3 -5.5t4 -7.5h17q0 2 -1 3l-8 12q-16 10 -22 39h-9v-2l14 -21q-1 -4 -1 -11q4 -4 6 -7h-3zM344 531h-6l7 23h21l-2 -7l15 -21l-3 -16l-7 -1h-11zM421 613
q4 -3 7 -9.5t8 -16.5l4 -7q4 -5 5.5 -12t6.5 -15v-1h-14q1 -2 0.5 -2.5t0.5 -2.5l14 -21q-2 -20 -7 -37h-24v-1l15 -22l-16 -20q-4 -4 -7 -10q-5 -6 -11 -10h-37l13 -19q-8 -6 -16 -11t-12 -7h-2v1q-7 0 -24 0.5t-30 0.5l-5 -16q-15 0 -29 3.5t-25 11.5l-1 1q-3 2 -7 6.5
t-7 9.5l-2 2l-3 3l1 2q-5 3 -10 8.5t-9 12.5h4l-8 13h-4q-5 7 -4 11q-3 15 -2 35h21l-12 17h-6q5 13 9.5 23t9.5 20h34l-13 20h-9q16 16 26.5 25.5t17.5 13.5h45l-1 -8l14 -20l-1 -14q-15 -6 -30 -17h17q-2 -2 -4 -6l15 -22q-8 -11 -12.5 -19.5t-7.5 -17.5h-14q5 -5 16 -5
q13 0 27 10h47q-2 -2 -3.5 -3t-2.5 -3l3 -7l2 1q1 3 6 8v-1q0 2 3 5h27l-12 17h-6q0 3 2 9l3 9q0 1 1 1.5t1 1.5v6t-2 16h12q-1 2 -2.5 2.5t-1.5 2.5l-2 1q-1 2 -3.5 3.5t-4.5 3.5l-7 5l-12 17l-10 6l10 18h47zM357 543h-5v-1h1zM221 522q3 10 9 21h-19q-6 -11 -9 -21h19z
M407 543q1 -5 0 -10.5t-2 -10.5h19q3 10 3 21h-20zM275 522q3 11 10 21h-21q-6 -11 -9 -21h20zM268 585q15 11 30 17h-33q-7 -4 -12 -8t-10 -9h25zM378 602l5 -3q5 -3 8 -6.5t7 -7.5h24q-2 5 -4 9t-6 8h-34zM221 459q-4 5 -4 14q-2 4 -2 10h-20q0 -10 3 -19v-3q-1 -1 0 -2
h23zM385 483q-3 -3 -4 -5.5t-4 -4.5q-5 -4 -8.5 -7.5l-6.5 -6.5h23l2 2l3 3q4 5 7.5 9.5t7.5 9.5h-20zM222 424q0 -2 3 -2q22 -14 51 -14q-3 0 59 14q1 0 5 2h-118zM327 483q-13 -10 -31 -10t-24 10h-23q3 -18 19 -24h46q19 6 35 24h-22z" />
    <glyph glyph-name="FL00AAh" unicode="&#xaa;" horiz-adv-x="437" 
d="M378 494h47l-12 17h-6l13 41h-46l-1 -4l15 -22zM588 613q1 -2 1.5 -2.5t0.5 -1.5t2 -5q1 -1 1 -3q0 -1 0.5 -1.5t0.5 -1.5l9 -13v-5l3 -3q2 -4 3 -8.5t3 -16.5h-22l-1 -4l15 -22l-12 -37h-22v-1l14 -22l-13 -40h-19l13 -19l-14 -43h-17l12 -17l-10 -31h-164l-15 22h-6
l12 37h17l-8 11h-6l13 40h-43l13 -19l-14 -43h-17l12 -17l-10 -31h-163l-15 22h-6l12 37h17l-8 11h-6l16 49h19l-8 13h-6l15 46h23l-12 17h-6l14 43h25l-13 20h-8q8 11 13 16.5t10 10.5l2 1q0 1 1 2q3 2 6 5q0 1 4 4h342zM302 364h-147l-5 -15h147zM513 349l5 15h-148
l-5 -15h148zM360 543h-147l-6 -21h147l6 19v2zM570 522l6 21h-148l-6 -21h148zM313 397l9 27h-147l-9 -27h147zM529 397l9 27h-148l-9 -27h148zM248 602q-5 -5 -9 -8.5t-8 -8.5h354q-1 5 -2.5 8.5t-2.5 8.5h-332zM549 459l8 24h-363l-8 -24h363z" />
    <glyph glyph-name="FL00ABh" unicode="&#xab;" horiz-adv-x="576" 
d="M383 299l3 2h-3v-2zM680 346l-2 -2l15 -23l-26 -20h-26l9 -13l-44 -33l31 -44l-3 -2l15 -23l-14 -11h-12l4 -6l-74 -56h-8l2 -4l-47 -36l-16 23l-2 -2l-110 162h3l-3 4h-3l-5 7l-16 -12l31 -44l-3 -2l15 -23l-14 -11h-12l4 -6l-74 -56h-8l2 -4l-47 -36l-16 23l-2 -2
l-110 162h4l-3 4h-4l-12 19l49 37h24l-5 7h-10l69 52h31l-8 11h-10l67 49h56l33 -49h-4l8 -11h4l19 -29l-2 -2l7 -12l57 43h31l-8 11h-10l67 49h56l33 -49h-4l8 -11h4zM250 126h-32l11 -16zM508 126h-32l11 -16zM372 397l-18 27h-46l-37 -27h101zM630 397l-18 27h-46
l-37 -27h101zM276 146l53 40h-152l27 -40h72zM534 146l53 40h-152l27 -40h72zM394 364h-167l-39 -30h203l15 12zM652 364h-167l-39 -30h203l15 12zM352 305h-203l-34 -26l5 -8h203l-5 8zM610 305h-203l-34 -26l5 -8h203l-5 8zM340 245h-202l25 -37h196l4 3zM598 245h-202
l25 -37h196l4 3z" />
    <glyph glyph-name="FL00ACh" unicode="&#xac;" horiz-adv-x="409" 
d="M501 362l-2 -6l15 -22l-11 -33h-13l9 -13l-17 -50h-10l7 -10l-17 -53h-6l4 -6l-18 -56h-4l2 -4l-10 -31h-159l-15 22h-6l25 75h-164l-15 22h-6l19 59h10l-3 4h-6l19 56h13l-5 7h-6l13 39h357zM413 126h-143l-5 -15h143zM151 351l-5 -17h335l5 17h-335zM419 146l13 40
h-143l-13 -40h143zM460 271l11 34h-335l-11 -34h335zM440 208l12 37h-335l-12 -37h335z" />
    <glyph glyph-name="FL00ADh" unicode="&#xad;" horiz-adv-x="369" 
d="M144 362h317l-2 -6l15 -22l-11 -33h-13l9 -13l-17 -50h-10l7 -10l-17 -53h-311l-15 22h-6l19 59h10l-3 4h-6l19 56h13l-5 7h-6zM146 334h295l5 17h-295zM420 271l11 34h-295l-11 -34h295zM400 208l12 37h-295l-12 -37h295z" />
    <glyph glyph-name="registered" unicode="&#xae;" horiz-adv-x="286" 
d="M226 489v-2l11 -16l6 18h-17zM247 552q-1 -1 -1 -2t-1 -2l12 -16l6 20h-16zM252 511q-2 -5 -4 -9t-3 -8h23l-12 17h-4zM288 435h34l-8 13h-5l-5 20q-2 4 -2 9v3l3 9h-21v-1l14 -22zM349 390q-7 0 -24 0.5t-30 0.5l-5 -16q-15 0 -29 3.5t-25 11.5l-1 1q-3 2 -7 6.5t-7 9.5
l-2 2l-3 3l1 2q-5 3 -10 8.5t-9 12.5h4l-8 13h-4q-5 7 -4 11q-3 15 -2 35h21l-12 17h-6q5 13 9.5 23t9.5 20h34l-13 20h-9q16 16 26.5 25.5t17.5 13.5h45l-1 -8l14 -20l-1 -14q-15 -6 -30 -17h16l-2 -6l9 -13q11 0 14.5 2t4.5 5l4 12h42l-2 -6l15 -22q-9 -24 -26 -37h-16v-1
l13 -18l10 10q0 1 1 2q1 3 6 8q1 1 1.5 2t1.5 2h27l-12 17h-6q0 3 2 9l3 9q0 1 1 1.5t1 1.5v6t-2 16h12q-1 2 -2.5 2.5t-1.5 2.5l-2 1q-1 2 -3.5 3.5t-4.5 3.5l-7 5l-12 17l-10 6l10 18h47q4 -3 7 -9.5t8 -16.5l4 -7q4 -5 6 -12t6 -16h-14q1 -2 0.5 -2.5t0.5 -2.5l14 -21
q-2 -20 -7 -37h-24v-1l15 -22l-16 -20q-4 -4 -7 -10q-5 -6 -11 -10h-37l13 -19q-8 -6 -16 -11t-12 -7h-2v1zM221 522q3 10 9 21h-19q-6 -11 -9 -21h19zM407 543q1 -5 0 -10.5t-2 -10.5h19q3 10 3 21h-20zM263 459l8 24h-19l-8 -24h19zM268 585q15 11 30 17h-33q-7 -4 -12 -8
t-10 -9h25zM378 602l5 -3q5 -3 8 -6.5t7 -7.5h24q-2 5 -4 9t-6 8h-34zM221 459q-4 5 -4 14q-2 4 -2 10h-20q0 -10 3 -19v-3q-1 -1 0 -2h23zM385 483q-3 -3 -4 -5.5t-4 -4.5q-5 -4 -8.5 -7.5l-6.5 -6.5h23l2 2l3 3q4 5 7.5 9.5t7.5 9.5h-20zM314 483q0 -4 2 -7l3 -17h24
l-7 22v2h-22zM290 543h-19l-6 -21h82q12 9 15 21h-20v-1q-2 -8 -10 -13t-25 -5h-23zM222 424q0 -2 3 -2q22 -14 51 -14q-3 0 59 14q1 0 5 2h-118z" />
    <glyph glyph-name="FL00B3h" unicode="&#xaf;" horiz-adv-x="603" 
d="M163 402h-6l10 33h19l-8 13h-6l15 46h23l-12 17h-6l14 43h551l-2 -6l15 -22l-12 -37h-22v-1l14 -22l-13 -40h-19l13 -19l-9 -27h-545zM704 424h-529l-4 -11h529zM736 522l6 21h-529l-6 -21h529zM715 459l8 24h-529l-8 -24h529z" />
    <glyph glyph-name="FL00B1h" unicode="&#xb0;" horiz-adv-x="260" 
d="M286 435h9l-4 7zM278 461l4 -7l4 16q8 2 14.5 4.5t7.5 5.5l3 9h-46v-1l14 -22zM375 554q6 -6 12.5 -16t14.5 -27q2 -5 5.5 -10t6.5 -12h-16v-1l14 -22l-3 -11q-5 -14 -15 -29h-26l13 -19q-29 -20 -56.5 -31t-50.5 -11t-44 11t-38 31l-7 9q-5 5 -8.5 9.5t-8.5 9.5h18
l-8 13h-5q-1 16 4 32l5 14h27l-12 17h-9q19 16 28 23t14 11l12 9h133zM252 483h-63l-1 -3q-4 -11 -4 -21h83q-22 5 -16 21zM385 483h-65l-1 -3q-3 -8 -11 -13.5t-19 -7.5h85q5 7 10 21zM259 398q22 0 42.5 7t38.5 19h-145q11 -12 26.5 -19t37.5 -7zM243 543q-8 -5 -14.5 -10
t-13.5 -11h169q-6 14 -16 21h-125z" />
    <glyph glyph-name="FL00B2h" unicode="&#xb1;" horiz-adv-x="409" 
d="M29 -11h-6l49 148h357l-2 -6l14 -22l-46 -142h-351zM449 430h74l-2 -6l15 -22l-13 -38h-17l12 -17l-15 -46h-13l9 -13l-15 -45h-96l-2 -5h-10l7 -10l-17 -53h-6l4 -6l-8 -23h-159l-14 22h-6l9 29l15 46h-68l-15 22h-6l17 51h13l-5 7h-6l17 52h17l-8 11h-6l15 44h96l1 5
h19l-8 13h-6l15 46h165l-2 -6l14 -22zM336 186h-143l-2 -7h143zM375 7h-335l-2 -7h335zM425 459l8 24h-143l-8 -24h143zM344 208l12 37h-143l-12 -37h143zM414 424h-143l-2 -5h-96l-7 -22h335l7 22h-96zM481 334l9 30h-335l-9 -30h335zM221 271h143l2 5h96l9 29h-335l-9 -29
h96zM400 83l14 43h-335l-14 -43h335zM379 20l16 47h-335l-16 -47h335z" />
    <glyph glyph-name="FL00B6h" unicode="&#xb2;" horiz-adv-x="428" 
d="M578 613q5 -7 7 -17l8 -11q7 -9 8 -33h-20l-1 -4l15 -22l-12 -37h-28l15 -23q-11 -10 -20.5 -18t-18.5 -13h12l-2 -6l15 -22l-14 -43h-17l12 -17l-10 -31h-370l-15 22h-6l12 37h17l-8 11h-6l16 49h19l-8 13h-6l15 46h63l-12 17h-6l2 19q30 10 45 10h126q-3 2 -8 12h-163
l-14 22h-6l12 39h352zM561 522l6 21h-148v-4l-3 -10h-140q-14 0 -34 -7h319zM504 349l5 15h-354l-5 -15h354zM234 602l-6 -17h347q-2 11 -5 17h-336zM499 459q19 9 36 24h-341l-2 -6l-6 -18h313zM520 397l9 27h-354l-9 -27h354z" />
    <glyph glyph-name="FL00BCh" unicode="&#xb3;" horiz-adv-x="407" 
d="M551 613q1 -2 1.5 -2.5t0.5 -1.5t2 -5q1 -1 1 -3q0 -1 0.5 -1.5t0.5 -1.5l9 -13v-5l3 -3q2 -4 3 -8.5t3 -16.5h-16l-1 -4l15 -22l-3 -9q-2 -5 -4 -9.5t-4 -9.5l-3 -9h-34l1 -6l12 -17q7 -18 2 -40h-18l13 -19q-5 -13 -11 -24t-13 -19h-24l12 -17q-47 -31 -81 -31h-261
l-15 22h-6l12 37h17l-8 11h-6l16 49h19l-8 13h-6l15 46h23l-12 17h-6l9 28h186l4 13h-158l-14 22h-6l12 39h326zM209 528l-2 -6h330l4 10l4 10v1h-146v-6q-2 -9 -14 -9h-176zM403 349q31 0 54 15h-302l-5 -15h253zM233 602l-6 -17h321q-1 5 -2.5 8.5t-2.5 8.5h-310zM194 483
l-8 -24h331q2 13 -2 24h-321zM175 424l-9 -27h326q7 10 15 27h-332z" />
    <glyph glyph-name="FL00B4h" unicode="&#xb4;" horiz-adv-x="841" 
d="M232 494l-12 17h-4l-21 43h356l10 -22l5 -6l15 -32h38l-12 17h-9l49 43h356l-6 -5l16 -23l-42 -37h-42l15 -23l-47 -40h-34l13 -19l-51 -43h-30l12 -17l-54 -46h-23l9 -13l-38 -33l11 -21l4 -6l26 -53h-1l4 -6l28 -56h-1l2 -4l31 -59l32 -63h-1l11 -20h-348l-15 22h-4
l-10 20h-1l-16 31l-61 -53h-1l-24 -20h-348l-15 22h-9l24 20l72 63l7 6l68 59l69 60l69 59h14l-3 4h-10l27 21l-17 35h6l-5 7h-4l-27 52h6l-8 11h-4l-24 49h7l-8 13h-4l-24 46h6zM484 7l4 -7h328l-4 7h-328zM358 7h-328l-8 -7h328zM953 522l23 21h-328l-23 -21h328zM553 522
l-11 21h-328l11 -21h328zM679 271l-5 10l28 24h-368l12 -24l-12 -10h345zM736 334l34 30h-466l16 -30h416zM808 397l32 27h-565l13 -27h520zM805 20l-23 47h-328l23 -47h328zM373 20l55 47h-328l-55 -47h328zM245 483l12 -24h623l28 24h-329l-4 -4l-3 4h-327zM711 208
l-18 37h-388l-43 -37h449zM741 146l-20 40h-485l-46 -40h551zM774 83l-22 43h-585l-49 -43h656z" />
    <glyph glyph-name="FL00B5h" unicode="&#xb5;" horiz-adv-x="787" 
d="M565 361q2 0 6.5 4.5t8.5 9.5h17l-8 11h-6l16 49h19l-8 13h-6l15 46h23l-12 17h-6l14 43h302l-2 -6l15 -22l-12 -37h-22v-1l14 -22l-13 -40h-19l13 -19l-14 -43h-17l12 -17l-15 -46h-13l9 -13q-9 -13 -18.5 -25t-23.5 -25h-17l7 -10q-60 -45 -109 -53h-314l4 -6l-4 -11h3
h402l-2 -6l15 -22l-5 -17h-4l2 -4l-46 -142h-602q-12 0 -22 2t-20 7l-7 11h-9q-3 2 -7 8l-9 14h-3q-10 8 -15.5 24.5t-10.5 38.5h-1v3v3q2 13 3.5 27t5.5 30l39 121h10l-3 4h-6l19 56h13l-5 7h-6l17 52h17l-8 11h-6l16 49h19l-8 13h-6l15 46h23l-12 17h-6l14 43h303l-2 -6
l15 -22l-12 -37h-22v-1l14 -22l-13 -40h-19l13 -19l-14 -43h-17q1 -1 0 -1l1 -1v-1h1h112zM744 0l2 7h-633q14 -7 37 -7h594zM919 522l6 21h-280l-6 -21h280zM487 522l6 21h-281l-6 -21h281zM898 459l8 24h-280l-8 -24h280zM466 459l8 24h-281l-8 -24h281zM878 397l9 27
h-280l-9 -27h280zM446 397l9 27h-281l-9 -27h281zM401 147q-20 2 -25.5 9.5t1.5 27.5v2h-281l-13 -40h708l1 1h-391zM450 350q-5 0 -7.5 4.5t-4.5 9.5h-284l-9 -30h713l9 30h-284q-4 -5 -9 -9.5t-12 -4.5h-112zM116 245l-12 -37h596q44 6 85 37h-669zM135 305l-11 -34h692
q9 8 15.5 16.5t12.5 17.5h-709zM771 83l14 43h-707q-6 -24 -6 -43h699zM750 20l16 47h-692q2 -14 7 -26.5t14 -20.5h655z" />
    <glyph glyph-name="FL007Ah" unicode="&#xb6;" horiz-adv-x="977" 
d="M709 445l-1 1zM640 554l16 -16l14 -14q2 -2 5.5 -6.5t5.5 -6.5h-4l15 -22h-4q2 -4 6 -10q0 -3 2 -5l5 -8q2 -6 3 -8l8 -10h-2q0 -3 1 -3h-2q0 -1 2.5 -4.5t10.5 -14.5h-14l1 -2l11 -17l10 -43h-7l12 -17l11 -46h-6l9 -13l11 -50h-4l7 -10l8 -33q0 -6 7 -20h-3
q10 -16 19 -16h209l-2 -6l15 -22l-6 -18h-4l2 -4l-46 -142h-398q-22 0 -43 9l-7 11h-13q-10 7 -19.5 15.5t-17.5 19.5q-8 9 -17 21t-19 29l-2 3q0 1 -0.5 1.5t-0.5 1.5q-3 8 -5.5 15t-2.5 12l-7 30l-14 62l-12 59h6l-3 4h-5l-10 56h7l-5 7h-5l-4 20q-2 3 -3.5 8.5t-2.5 20.5
q-9 9 -15 9h-166l-15 22h-6l10 32h19l-8 13h-6l15 46h23l-12 17h-6l14 43h434zM942 7h-430q15 -7 38 -7h390zM213 543l-6 -21h447q-7 6 -11.5 11t-11.5 10h-418zM380 334h338l-8 30h-338q1 -5 2 -8.5t2 -6.5zM702 397l-6 27h-521l-3 -10h158q14 0 25 -17h347zM732 271l-8 34
h-338l7 -34h339zM194 483l-8 -24h502q-2 5 -4 11t-5 13h-485zM399 245l8 -37h341q-3 6 -3 11l-6 26h-340zM790 148q-11 0 -19.5 12t-15.5 26h-344l9 -40h567l1 2h-198zM946 20l16 47h-516q15 -27 42 -47h458zM967 83l14 43h-556l4 -16q0 -11 8 -27h530z" />
    <glyph glyph-name="FL00B7h" unicode="&#xb7;" horiz-adv-x="309" 
d="M121 295q1 4 3 8t8 13h13l-5 7h-9q17 17 32.5 29.5t29.5 22.5h164q16 -16 25 -40q5 -8 8.5 -17t7.5 -17h-10l9 -13q-1 -2 -2 -7t-2 -7l-1 -4q-3 -8 -7 -15.5t-11 -16.5h-13l7 -10q-25 -20 -48 -34t-44 -19h-81q-32 11 -51 42l-4 4q-14 15 -25 35h10l-3 4h-5q-3 15 4 35z
M135 245q14 -27 48 -37h77q39 10 72 37h-197zM369 334q-3 8 -7 16t-12 14h-157q-23 -15 -37 -30h213zM132 295q-5 -17 -4 -24h227q7 10 12 24q1 2 1 4q0 3 1 6h-233q-2 -4 -4 -10z" />
    <glyph glyph-name="FL00BAh" unicode="&#xb8;" horiz-adv-x="209" 
d="M185 5l14 -22l-56 -173h-232l-15 22h-6l42 127h83l17 52h155zM158 -42l14 42h-133l-14 -42h133zM136 -112h-216l-15 -45h216zM138 -105l17 53h-216l-17 -53h216z" />
    <glyph glyph-name="FL00BEh" unicode="&#xb9;" horiz-adv-x="270" 
d="M194 337h-6l13 38h17l-8 11h-6l16 49h19l-8 13h-6l15 46h23l-12 17h-6l13 41h-25l-14 22h-6l12 39h218l-2 -6l15 -22l-11 -33h-22l-1 -4l15 -22l-12 -37h-22v-1l14 -22l-13 -40h-19l13 -19l-14 -43h-17l12 -17l-11 -32h-159zM351 364h-143l-5 -16h143zM403 522l6 21h-143
l-6 -21h143zM423 585l6 17h-196l-6 -17h196zM382 459l8 24h-143l-8 -24h143zM362 397l9 27h-143l-9 -27h143z" />
    <glyph glyph-name="FL00B0h" unicode="&#xba;" horiz-adv-x="437" 
d="M368 488l13 -20l7 21h-20v-1zM380 460l-8 -25h24l-8 13h-6l2 8l-3 4h-1zM587 613q1 -2 1.5 -2.5t0.5 -1.5t2 -5q1 -1 1 -3q0 -1 0.5 -1.5t0.5 -1.5l9 -13v-5l3 -3q2 -4 3 -8.5t3 -16.5h-21l-1 -4l15 -22l-12 -37h-22v-1l14 -22l-13 -40h-19l13 -19l-7 -22q-3 -8 -10 -21
h-25l12 -17q-47 -31 -72 -31h-233q-25 0 -52 31l-8 10q-4 4 -7.5 8.5t-8.5 9.5h14l-8 11h-5q1 8 2 14t2 10l8 25h19l-8 13h-6l15 46h23l-12 17h-6l14 43h27l-13 20h-8q8 11 18.5 21.5l17.5 17.5h339zM549 459l8 24h-160l-8 -23q0 -1 -1 -1h161zM355 483h-161l-8 -24h161v1z
M180 364q13 -15 35 -15h233q22 0 45 15h-313zM250 602q-9 -8 -17 -17h351q-1 5 -2.5 8.5t-2.5 8.5h-329zM570 522l6 21h-363l-6 -21h363zM538 424h-363l-5 -14q-1 -2 -1 -6q0 -3 -1 -7h359q4 6 6 13z" />
    <glyph glyph-name="FL00BBh" unicode="&#xbb;" horiz-adv-x="576" 
d="M342 200l-33 -25h-12l4 -6l-74 -56h-8l2 -4l-47 -36l-16 23l-2 -2l-79 117l58 45h18l-3 4h-10l26 19l-25 37h4l-5 7h-4l-16 23l39 29h32l-8 11h-10l65 49h56l33 -49h-4l8 -11h4l35 -52h-4l5 -7h5l25 -37l-3 -2l7 -12l19 14l-25 37h4l-5 7h-4l-16 23l39 29h32l-8 11h-10
l65 49h56l33 -49h-4l8 -11h4l35 -52h-4l5 -7h5l25 -37l-3 -2l16 -23l-22 -16h-20l7 -10l-70 -53h-12l4 -6l-74 -56h-8l2 -4l-47 -36l-16 23l-2 -2zM440 126h-32l11 -16zM182 126h-32l11 -16zM304 397l-18 27h-46l-36 -27h100zM562 397l-18 27h-46l-36 -27h100zM208 146
l53 40h-152l27 -40h72zM466 146l53 40h-152l27 -40h72zM145 334h202l-21 30h-166l-24 -18zM403 334h202l-21 30h-166l-24 -18zM171 271h203l11 8l-18 26h-203l18 -26zM429 271h203l11 8l-18 26h-203l18 -26zM291 208l49 37h-203l-44 -34l2 -3h196zM549 208l49 37h-203
l-44 -34l2 -3h196z" />
    <glyph glyph-name="FL0763h" unicode="&#xbc;" horiz-adv-x="919" 
d="M566 198l4 -9l2 1zM450 357l8 7h-12zM897 130h38l-2 -6l15 -22l-31 -97h-60l-13 -38h-164l-15 22h-6l6 16h-197l-15 22h-6l17 52l-37 -29h1l-78 -63h-1l-24 -20h-304l-15 22h-9l24 20h-1l78 63h-1l79 63h-1l78 62h-1l63 51h-48l-15 22h-6l15 46h13l-5 7h-6l17 52h17
l-8 11h-6l16 49h19l-7 11h-33l-15 22h-6l9 26h23l-12 17h-6l14 43h218l-2 -6l15 -22l-12 -37h-22v-1l14 -22l-13 -40h-19l13 -19l-12 -39l8 7h30l-8 11h-10l61 49h34l-8 13h-10l58 46h41l-12 17h-10l54 43h312l-7 -5l16 -23l-46 -37h-43l15 -23l-50 -40h-35l13 -19l-54 -43
h-32l12 -17l-57 -46h-24l7 -10h208l-2 -6l14 -22l-8 -25h-10l7 -10l-17 -53h-6l4 -6zM824 7h-148l-2 -7h148zM707 280q-5 0 -11.5 -2.5t-13.5 -6.5h228l3 9h-206zM308 0l8 7h-284l-8 -7h284zM318 459h143l8 24h-196l-1 -4h53zM441 397l9 27h-143l-9 -27h143zM482 522l6 21
h-196l-6 -21h196zM421 334l9 30h-143l-9 -30h143zM951 522l25 21h-283l-25 -21h283zM873 459l30 24h-283l-30 -24h283zM797 397l34 27h-284l-33 -27h283zM720 334l36 30h-283l-37 -30h284zM890 208l12 37h-254l-41 -37h283zM565 208l45 37h-284l-45 -37h284zM487 146l50 40
h-284l-50 -40h284zM410 83l53 43h-284l-53 -43h284zM721 146h148l13 40h-301l-45 -40h172l19 17zM358 271h284l42 34h-416l-8 -24h110zM332 20l59 47h-284l-59 -47h284zM680 20h148l6 18h60l10 29h-433l-10 -29h225zM687 126h-173l-34 -31l-4 -12h433l12 36h-60l2 7h-148
l-2 -7h-33z" />
    <glyph glyph-name="FL0740h" unicode="&#xbd;" horiz-adv-x="922" 
d="M450 357l8 7h-12zM522 -11h-6l48 146h-3q10 13 22.5 22.5t25.5 17.5h-3l-9 13l-16 -13h-11l4 -6l-69 -56h-7l2 -4l-73 -59h1l-78 -63h-1l-24 -20h-304l-15 22h-9l24 20h-1l78 63h-1l79 63h-1l78 62h-1l63 51h-48l-15 22h-6l15 46h13l-5 7h-6l17 52h17l-8 11h-6l16 49h19
l-7 11h-33l-15 22h-6l9 26h23l-12 17h-6l14 43h218l-2 -6l15 -22l-12 -37h-22v-1l14 -22l-13 -40h-19l13 -19l-12 -39l8 7h30l-8 11h-10l61 49h34l-8 13h-10l58 46h41l-12 17h-10l54 43h312l-7 -5l16 -23l-46 -37h-43v-1l15 -22l-50 -40h-36l13 -19l-53 -43h-32l12 -17
l-57 -46h-26l7 -10h190q12 0 21.5 -3.5t18.5 -8.5l-3 -5l12 -18h5q1 -4 3 -10l12 -18q7 -22 1 -44l-3 -9h-6l4 -6l-9 -27q-2 -6 -6.5 -13.5t-11.5 -15.5h-4l2 -4q-13 -10 -25 -18t-24 -13h26l-2 -6l15 -22l-27 -83h-370zM316 7h-284l-8 -7h284zM887 7h-354l-2 -7h354z
M461 459l8 24h-196l-1 -4h53l-7 -20h143zM441 397l9 27h-143l-9 -27h143zM482 522l6 21h-196l-6 -21h196zM421 334l9 30h-143l-9 -30h143zM951 522l25 21h-283l-25 -21h283zM873 459l30 24h-283l-30 -24h283zM797 397l33 27h-283l-33 -27h283zM720 334l36 30h-283l-37 -30
h284zM564 208l46 37h-284l-45 -37h283zM572 126l-14 -43h148l6 18h137q11 0 26 7t30 18h-333zM487 146l49 40h-283l-50 -40h284zM945 186h-147l-2 -6h-140q-17 0 -38.5 -9t-35.5 -25h344q10 10 13 21zM410 83l53 43h-284l-53 -43h284zM612 245l-12 -37h353v1q6 19 1 36h-342
zM332 20l59 47h-284l-59 -47h284zM935 271q-7 4 -14.5 6.5t-16.5 2.5h-251l30 25h-415l-8 -24h110l-12 -10h577zM891 20l16 47h-354l-16 -47h354z" />
    <glyph glyph-name="FL077Ch" unicode="&#xbe;" horiz-adv-x="956" 
d="M603 198l4 -9l2 1zM523 554q3 -5 5.5 -11t6.5 -14l3 -3q4 -6 8 -14.5t7 -22.5h-17q0 -3 1 -4l12 -19q2 -6 1.5 -9.5t-2.5 -7.5l-2 -4l-2 -4l-5 -15h-22l13 -19l-14 -11q2 -7 4 -21h19l-8 11h-10l62 49h34l-8 13h-10l58 46h41l-12 17h-10l54 43h312l-7 -5l16 -23l-46 -37
h-43v-1l15 -22l-50 -40h-35l13 -19l-54 -43h-32l12 -17l-57 -46h-24l7 -10h208l-2 -6l14 -22l-8 -25h-10l7 -10l-17 -53h-6l4 -6l-13 -39h38l-2 -6l15 -22l-31 -97h-60l-13 -38h-164l-15 22h-6l6 16h-197l-15 22h-6l17 52l-37 -29h1l-78 -63h-1l-24 -20h-304l-15 22h-9
l24 20h-1l78 63h-1l79 63h-1l78 62h-1l63 51h-217l-15 22h-6l15 46h13l-5 7h-6l17 51h18l-9 12h-6l16 49h19l-8 13h-6l15 46h23l-12 17h-6l14 43h317zM861 7h-148l-2 -7h148zM947 271l3 9h-206q-5 0 -11.5 -2.5t-13.5 -6.5h228zM353 7h-284l-8 -7h284zM186 460v-1h331l6 15
q2 8 2 9h-331l-1 -4h177q11 0 7 -10q-3 -9 -15 -9h-176zM988 522l25 21h-283l-25 -21h283zM213 543l-6 -21h318q-3 9 -11 21h-301zM910 459l30 24h-283l-30 -24h283zM834 397l34 27h-284l-34 -27h284zM175 424l-9 -27h329q1 13 -6 26l2 1h-316zM927 208l12 37h-254l-41 -37
h283zM602 208l45 37h-284l-45 -37h284zM524 146l50 40h-284l-50 -40h284zM447 83l53 43h-284l-53 -43h284zM906 146l13 40h-301l-45 -40h172l19 17l-6 -17h148zM369 20l59 47h-284l-59 -47h284zM941 67h-433l-10 -29h225l-6 -18h148l6 18h60zM679 271l42 34h-585l-8 -24h253
q5 0 13 1.5t20 3.5l-19 -15h284zM724 126h-173l-34 -31l-4 -12h433l12 36h-60l2 7h-148l-2 -7h-33zM338 364q-1 -1 -6 -1h-177l-9 -29h611l36 30h-284l-36 -30q4 7 8 14.5t7 15.5h-150z" />
    <glyph glyph-name="FL00BFh" unicode="&#xbf;" horiz-adv-x="782" 
d="M804 511l15 -22h-14v-1l14 -22l-2 -8q0 -5 -3 -14q0 -2 -1 -3t-2 -3l-4 -12h-25l13 -19q-17 -16 -31 -27t-26 -16h-152q-3 3 -7 6.5t-7 8.5l-5 7h-1q-13 11 -30 49h19l-8 13h-5q-2 8 -1.5 12t2.5 9t4.5 10.5t8.5 14.5h28l-12 17h-10q20 15 36 26.5t27 16.5h148
q8 -6 16.5 -17.5t18.5 -25.5h-4zM764 358l-2 -6l15 -22l-9 -29h-13l9 -13q-5 -13 -12.5 -26t-18.5 -24h-16l7 -10q-38 -25 -73.5 -39t-59.5 -14h-190l4 -6l-4 -11h405l-2 -6l15 -22l-5 -17h-4l2 -4l-46 -142h-578q-24 0 -45 9l-7 11h-12l-12 10t-11 13q-12 11 -22.5 28
t-16.5 40h2q-3 24 6 59h1l28 87q2 8 6 15.5t9 16.5h12l-3 4h-8q20 20 35 33.5t27 22.5h52l-5 7h-6l2 18q19 9 35 13t28 4h481zM785 522q-4 5 -8.5 10.5t-11.5 10.5h-140q-10 -5 -17.5 -10.5t-14.5 -10.5h192zM746 7h-612q15 -7 40 -7h570zM554 424q6 -16 20 -27h148
q17 8 38 27h-206zM789 469q2 4 2 7t1 7h-232q-3 -4 -6 -14l-1.5 -6t-0.5 -4h233q1 2 2 4.5t2 5.5zM280 347q-11 0 -24 -3t-27 -10h517l4 13h-470zM377 186h-280l-13 -40h707l1 1h-406q-10 0 -12 11t1 19zM178 305q-11 -8 -20.5 -16.5t-18.5 -17.5h576q16 16 21 34h-558z
M120 245q-7 -9 -10 -21l-5 -16h472q23 0 52 10t55 27h-564zM771 83l14 43h-707q-5 -25 -2 -43h695zM750 20l16 47h-686q9 -30 31 -47h639z" />
    <glyph glyph-name="FL00C0h" unicode="&#xc0;" 
d="M683 788l7 -18l7 -9l9 -21h-121l-14 22h-8q12 15 15 18t8 7h1l6 5h87zM709 673q-2 -2 -4 -6l15 -22q-8 -11 -15 -18.5t-10 -11.5h-104l-15 22h-4l-19 36h156zM450 312h123l2 4h13l-5 7h-6l17 52h17l-4 6h-120q-4 0 -10 -5.5t-11 -11.5h-16l12 -17zM706 732q2 -3 2.5 -6.5
t2.5 -7.5l10 -14q2 -5 4 -12t4 -15h-173l-15 22h-5q0 6 1 12.5t6 20.5h163zM909 511l15 -22h-6q1 -1 0.5 -2t0.5 -2l12 -19q2 -6 2.5 -17t0.5 -23h-19l13 -19l-14 -43h-17l12 -17l-15 -46h-13l9 -13l-17 -50h-10l7 -10l-17 -53h-6l4 -6l-18 -56h-4l2 -4l-46 -142h-296
l-15 22h-6l45 136h-123l-4 -12h-4l2 -4l-46 -142h-295l-15 22h-6l87 267h10l-3 4h-6l19 56h13l-5 7h-6l17 52h17l-8 11h-6l16 49h18l-8 13h-7q6 11 14 23t18 23h38l-12 17h-10q26 20 39.5 28.5t25.5 14.5h593q8 -6 17 -16t20 -27h-4zM672 781h-77l-4 -3q-3 -2 -4 -2.5
t-3 -2.5h92l-2 4zM572 662l8 -14h97q3 3 6 6.5t6 7.5h-117zM550 721q-1 -3 -1 -11h153q-1 2 -2 4.5t-3 6.5h-147zM318 7h-279l-2 -7h279zM765 7h-280l-2 -7h280zM425 334l9 30h-279l-9 -30h279zM872 334l9 30h-280l-9 -30h280zM343 83l14 43h-279l-14 -43h279zM790 83l14 43
h-280l-14 -43h280zM890 522q-4 5 -9.5 10.5t-12.5 10.5h-585q-10 -5 -18 -10t-16 -11h641zM322 20l16 47h-279l-16 -47h279zM769 20l16 47h-280l-16 -47h280zM892 397l9 27h-726l-9 -27h281q5 6 12 11.5t14 5.5h124q9 0 10.5 -5.5t1.5 -11.5h283zM909 459q0 6 -0.5 12
t-1.5 12h-702q-5 -6 -9 -12l-8 -12h721zM415 305h-279l-11 -34h726l11 34h-280l-1 -4h-167zM831 208l12 37h-726l-12 -37h726zM810 146l13 40h-726l-13 -40h279l4 12h167l-4 -12h280z" />
    <glyph glyph-name="FL00C1h" unicode="&#xc1;" 
d="M738 762l14 -22h-128l-14 22h-9l20 19q0 1 7 7l5 4h88l21 -30h-4zM541 637h-4q-5 11 -7 20.5t-1 15.5h156l-6 -5l16 -23l-36 -30h-103zM450 312h123l2 4h13l-5 7h-6l17 52h17l-4 6h-120q-4 0 -10 -5.5t-11 -11.5h-16l12 -17zM738 732l-4 -6l16 -22l-10 -15q-2 -6 -10 -12
h-176l-15 22h-10q25 19 28 22l2 1q0 1 2 3q1 3 7 7h170zM909 511l15 -22h-6q1 -1 0.5 -2t0.5 -2l12 -19q2 -6 2.5 -17t0.5 -23h-19l13 -19l-14 -43h-17l12 -17l-15 -46h-13l9 -13l-17 -50h-10l7 -10l-17 -53h-6l4 -6l-18 -56h-4l2 -4l-46 -142h-296l-15 22h-6l45 136h-123
l-4 -12h-4l2 -4l-46 -142h-295l-15 22h-6l87 267h10l-3 4h-6l19 56h13l-5 7h-6l17 52h17l-8 11h-6l16 49h18l-8 13h-7q6 11 14 23t18 23h38l-12 17h-10q26 20 39.5 28.5t25.5 14.5h593q8 -6 17 -16t20 -27h-4zM718 773l-3 5l-2 3h-78q-2 -1 -2.5 -2t-2.5 -2l-4 -4h92z
M642 648l16 14h-117q0 -2 0.5 -5.5t3.5 -8.5h97zM570 721q-3 -3 -5 -6t-5 -5h152q3 3 3 4q1 2 1 3q0 2 2 4h-148zM318 7h-279l-2 -7h279zM765 7h-280l-2 -7h280zM425 334l9 30h-279l-9 -30h279zM872 334l9 30h-280l-9 -30h280zM343 83l14 43h-279l-14 -43h279zM790 83l14 43
h-280l-14 -43h280zM890 522q-4 5 -9.5 10.5t-12.5 10.5h-585q-10 -5 -18 -10t-16 -11h641zM322 20l16 47h-279l-16 -47h279zM769 20l16 47h-280l-16 -47h280zM892 397l9 27h-726l-9 -27h281q5 6 12 11.5t14 5.5h124q9 0 10.5 -5.5t1.5 -11.5h283zM909 459q0 6 -0.5 12
t-1.5 12h-702q-5 -6 -9 -12l-8 -12h721zM415 305h-279l-11 -34h726l11 34h-280l-1 -4h-167zM831 208l12 37h-726l-12 -37h726zM810 146l13 40h-726l-13 -40h279l4 12h167l-4 -12h280z" />
    <glyph glyph-name="FL00C2h" unicode="&#xc2;" 
d="M615 668l9 -14l-6 17zM450 312h123l2 4h13l-5 7h-6l17 52h17l-4 6h-120q-4 0 -10 -5.5t-11 -11.5h-16l12 -17zM532 762h-9l32 30h204l8 -17l7 -11l10 -24h-238zM464 699h-9l35 33h296l5 -15l10 -13l10 -27h-332zM396 637h-9l38 36h388l4 -13l11 -15l11 -30h-189l-15 22
h-4l-3 6l-28 -28h-189zM909 511l15 -22h-6q1 -1 0.5 -2t0.5 -2l12 -19q2 -6 2.5 -17t0.5 -23h-19l13 -19l-14 -43h-17l12 -17l-15 -46h-13l9 -13l-17 -50h-10l7 -10l-17 -53h-6l4 -6l-18 -56h-4l2 -4l-46 -142h-296l-15 22h-6l45 136h-123l-4 -12h-4l2 -4l-46 -142h-295
l-15 22h-6l87 267h10l-3 4h-6l19 56h13l-5 7h-6l17 52h17l-8 11h-6l16 49h18l-8 13h-7q6 11 14 23t18 23h38l-12 17h-10q26 20 39.5 28.5t25.5 14.5h593q8 -6 17 -16t20 -27h-4zM754 773l-3 8h-194l-9 -8h206zM318 7h-279l-2 -7h279zM765 7h-280l-2 -7h280zM581 648l14 14
h-168l-14 -14h168zM809 648l-6 14h-168l6 -14h168zM782 710l-5 11h-286l-11 -11h302zM425 334l9 30h-279l-9 -30h279zM872 334l9 30h-280l-9 -30h280zM343 83l14 43h-279l-14 -43h279zM790 83l14 43h-280l-14 -43h280zM890 522q-4 5 -9.5 10.5t-12.5 10.5h-585
q-10 -5 -18 -10t-16 -11h641zM322 20l16 47h-279l-16 -47h279zM769 20l16 47h-280l-16 -47h280zM892 397l9 27h-726l-9 -27h281q5 6 12 11.5t14 5.5h124q9 0 10.5 -5.5t1.5 -11.5h283zM909 459q0 6 -0.5 12t-1.5 12h-702q-5 -6 -9 -12l-8 -12h721zM415 305h-279l-11 -34h726
l11 34h-280l-1 -4h-167zM831 208l12 37h-726l-12 -37h726zM810 146l13 40h-726l-13 -40h279l4 12h167l-4 -12h280z" />
    <glyph glyph-name="FL00C3h" unicode="&#xc3;" 
d="M580 668l9 -14l-6 17zM498 762h-9l32 30h138l8 -17l7 -11l10 -24h-172zM450 312h123l2 4h13l-5 7h-6l17 52h17l-4 6h-120q-4 0 -10 -5.5t-11 -11.5h-16l12 -17zM702 762h-9l32 30h195l-5 -5l15 -23l-26 -24h-188zM430 699h-9l35 33h398l-6 -5l16 -23l-28 -27h-391z
M362 637h-9l38 36h399l-6 -5l17 -23l-31 -30h-155l-15 22h-4l-3 6l-28 -28h-188zM909 511l15 -22h-6q1 -1 0.5 -2t0.5 -2l12 -19q2 -6 2.5 -17t0.5 -23h-19l13 -19l-14 -43h-17l12 -17l-15 -46h-13l9 -13l-17 -50h-10l7 -10l-17 -53h-6l4 -6l-18 -56h-4l2 -4l-46 -142h-296
l-15 22h-6l45 136h-123l-4 -12h-4l2 -4l-46 -142h-295l-15 22h-6l87 267h10l-3 4h-6l19 56h13l-5 7h-6l17 52h17l-8 11h-6l16 49h18l-8 13h-7q6 11 14 23t18 23h38l-12 17h-10q26 20 39.5 28.5t25.5 14.5h593q8 -6 17 -16t20 -27h-4zM654 773l-3 8h-128l-9 -8h140zM886 773
l9 8h-168l-9 -8h168zM318 7h-279l-2 -7h279zM765 7h-280l-2 -7h280zM751 648l14 14h-165l6 -14h145zM546 648l14 14h-167l-14 -14h167zM818 710l11 11h-372l-11 -11h372zM425 334l9 30h-279l-9 -30h279zM872 334l9 30h-280l-9 -30h280zM343 83l14 43h-279l-14 -43h279z
M790 83l14 43h-280l-14 -43h280zM890 522q-4 5 -9.5 10.5t-12.5 10.5h-585q-10 -5 -18 -10t-16 -11h641zM322 20l16 47h-279l-16 -47h279zM769 20l16 47h-280l-16 -47h280zM892 397l9 27h-726l-9 -27h281q5 6 12 11.5t14 5.5h124q9 0 10.5 -5.5t1.5 -11.5h283zM909 459
q0 6 -0.5 12t-1.5 12h-702q-5 -6 -9 -12l-8 -12h721zM415 305h-279l-11 -34h726l11 34h-280l-1 -4h-167zM831 208l12 37h-726l-12 -37h726zM810 146l13 40h-726l-13 -40h279l4 12h167l-4 -12h280z" />
    <glyph glyph-name="FL00C4h" unicode="&#xc4;" 
d="M448 762h-12q23 14 35 20.5t20 9.5h96q2 -1 4.5 -3t4.5 -3t3 -2t3 -2q-2 -4 4 -8l6 -6l-1 -3l16 -25h-165zM684 762h-12q23 14 35 20.5t20 9.5h96q2 -1 4.5 -3t4.5 -3t3 -2t3 -2q-2 -4 4 -8l6 -6l-1 -3l16 -25h-1h-164zM450 312h123l2 4h13l-5 7h-6l17 52h17l-4 6h-120
q-4 0 -10 -5.5t-11 -11.5h-16l12 -17zM840 673q-3 -2 -6 -5l16 -23q-12 -10 -21.5 -17.5t-16.5 -12.5h-138q-6 2 -8 7q-3 1 -3 5l-7 10h-1q-8 3 -10 7t-3 8h1q-5 3 -6 7q-7 7 -4 14h207zM604 673q-3 -2 -6 -5l16 -23q-12 -10 -21.5 -17.5t-16.5 -12.5h-138q-6 2 -8 7
q-3 1 -3 5l-7 10h-1q-8 3 -10 7t-3 8h1q-5 3 -6 7q-7 7 -4 14h207zM406 699h-6q3 10 6 17t9 16h213l-2 -6l13 -19q3 11 12 25h213l-2 -6l15 -22l-5 -14q0 -2 -1 -6.5t-2 -6.5h-212l-15 22h-3l-3 -9q0 -2 -1 -6.5t-2 -6.5h-212zM909 511l15 -22h-6q1 -1 0.5 -2t0.5 -2l12 -19
q2 -6 2.5 -17t0.5 -23h-19l13 -19l-14 -43h-17l12 -17l-15 -46h-13l9 -13l-17 -50h-10l7 -10l-17 -53h-6l4 -6l-18 -56h-4l2 -4l-46 -142h-296l-15 22h-6l45 136h-123l-4 -12h-4l2 -4l-46 -142h-295l-15 22h-6l87 267h10l-3 4h-6l19 56h13l-5 7h-6l17 52h17l-8 11h-6l16 49
h18l-8 13h-7q6 11 14 23t18 23h38l-12 17h-10q26 20 39.5 28.5t25.5 14.5h593q8 -6 17 -16t20 -27h-4zM593 773q-3 2 -5.5 4t-5.5 4h-92q-12 -5 -18 -8h121zM829 773q-3 2 -5.5 4t-5.5 4h-92q-12 -5 -18 -8h121zM318 7h-279l-2 -7h279zM765 7h-280l-2 -7h280zM416 662
q2 -4 3.5 -7.5t6.5 -6.5h134q5 3 9 6.5t9 7.5h-162zM652 662q2 -4 3.5 -7.5t6.5 -6.5h134q5 3 9 6.5t9 7.5h-162zM611 710q1 3 1 5q0 3 1 6h-194q-3 -4 -4 -11h196zM847 710q1 3 1 5q0 3 1 6h-194q-3 -4 -4 -11h196zM425 334l9 30h-279l-9 -30h279zM872 334l9 30h-280
l-9 -30h280zM343 83l14 43h-279l-14 -43h279zM790 83l14 43h-280l-14 -43h280zM890 522q-4 5 -9.5 10.5t-12.5 10.5h-585q-10 -5 -18 -10t-16 -11h641zM322 20l16 47h-279l-16 -47h279zM769 20l16 47h-280l-16 -47h280zM892 397l9 27h-726l-9 -27h281q5 6 12 11.5t14 5.5
h124q9 0 10.5 -5.5t1.5 -11.5h283zM909 459q0 6 -0.5 12t-1.5 12h-702q-5 -6 -9 -12l-8 -12h721zM415 305h-279l-11 -34h726l11 34h-280l-1 -4h-167zM831 208l12 37h-726l-12 -37h726zM810 146l13 40h-726l-13 -40h279l4 12h167l-4 -12h280z" />
    <glyph glyph-name="FL00C5h" unicode="&#xc5;" 
d="M591 762h-6l6 19v3l8 3q5 2 10 5h97q2 -1 4.5 -3t4.5 -3t3 -2t3 -2q-2 -4 4 -8l6 -6l-1 -3l16 -25h-141zM450 312h123l2 4h13l-5 7h-6l17 52h17l-4 6h-120q-4 0 -10 -5.5t-11 -11.5h-16l12 -17zM723 673q-3 -2 -6 -5l16 -23q-12 -10 -21.5 -17.5t-16.5 -12.5h-138
q-6 2 -8 7q-3 1 -3 5l-7 10h-1q-8 3 -10 7t-3 8h1q-5 3 -6 7q-7 7 -4 14h207zM525 699h-6q3 10 6 17t9 16h213l-2 -6l15 -22l-5 -14q0 -2 -1 -6.5t-2 -6.5h-80l-15 22h-6q2 12 -19 30l-3 -2l16 -23q-23 -16 -26 -27h-79zM909 511l15 -22h-6q1 -1 0.5 -2t0.5 -2l12 -19
q2 -6 2.5 -17t0.5 -23h-19l13 -19l-14 -43h-17l12 -17l-15 -46h-13l9 -13l-17 -50h-10l7 -10l-17 -53h-6l4 -6l-18 -56h-4l2 -4l-46 -142h-296l-15 22h-6l45 136h-123l-4 -12h-4l2 -4l-46 -142h-295l-15 22h-6l87 267h10l-3 4h-6l19 56h13l-5 7h-6l17 52h17l-8 11h-6l16 49
h18l-8 13h-7q6 11 14 23t18 23h38l-12 17h-10q26 20 39.5 28.5t25.5 14.5h593q8 -6 17 -16t20 -27h-4zM538 721q-3 -4 -4 -11h63q2 6 8 11h-67zM730 710q1 3 1 5q0 3 1 6h-70q3 -2 3 -11h65zM712 773q-3 2 -5.5 4t-5.5 4h-92q-6 -2 -9.5 -4t-8.5 -4h121zM318 7h-279l-2 -7
h279zM765 7h-280l-2 -7h280zM535 662q2 -4 3.5 -7.5t6.5 -6.5h134q5 3 9 6.5t9 7.5h-162zM425 334l9 30h-279l-9 -30h279zM872 334l9 30h-280l-9 -30h280zM343 83l14 43h-279l-14 -43h279zM790 83l14 43h-280l-14 -43h280zM890 522q-4 5 -9.5 10.5t-12.5 10.5h-585
q-10 -5 -18 -10t-16 -11h641zM322 20l16 47h-279l-16 -47h279zM769 20l16 47h-280l-16 -47h280zM892 397l9 27h-726l-9 -27h281q5 6 12 11.5t14 5.5h124q9 0 10.5 -5.5t1.5 -11.5h283zM909 459q0 6 -0.5 12t-1.5 12h-702q-5 -6 -9 -12l-8 -12h721zM415 305h-279l-11 -34h726
l11 34h-280l-1 -4h-167zM831 208l12 37h-726l-12 -37h726zM810 146l13 40h-726l-13 -40h279l4 12h167l-4 -12h280z" />
    <glyph glyph-name="FL00C6h" unicode="&#xc6;" horiz-adv-x="1389" 
d="M450 312h123l2 4h13l-5 7h-6l17 52h17l-4 6h-120q-4 0 -10 -5.5t-11 -11.5h-16l12 -17zM1481 362l-2 -6l15 -22l-11 -33h-13l9 -13l-17 -50h-10l7 -10l-17 -53h-356l4 -6q-6 -5 -9.5 -7.5t-5.5 -3.5h339l-2 -6l15 -22l-5 -17h-4l2 -4l-46 -142h-521q-23 0 -44 9l-7 11
h-10l-7 -20h-296l-15 22h-6l45 136h-123l-4 -12h-4l2 -4l-46 -142h-295l-15 22h-6l87 267h10l-3 4h-6l19 56h13l-5 7h-6l17 52h17l-8 11h-6l16 49h18l-8 13h-7q6 11 14 23t18 23h38l-12 17h-10q26 20 39.5 28.5t25.5 14.5h593q5 -4 12.5 -12t18.5 -21q17 13 29.5 20.5
t21.5 12.5h585l-2 -6l15 -22l-12 -37h-22v-1l14 -22l-13 -40h-19l13 -19l-8 -26h-350q-3 0 -9 -5t-11 -12h-12q2 -2 8 -2h346zM318 7h-279l-2 -7h279zM765 7h-280l-2 -7h280zM1352 0l2 7h-554q15 -7 39 -7h513zM425 334l9 30h-279l-9 -30h279zM343 83l14 43h-279l-14 -43
h279zM1522 522l6 21h-570q-18 -9 -33 -21h597zM283 543q-10 -5 -18 -10t-16 -11h641q-11 14 -22 21h-585zM322 20l16 47h-279l-16 -47h279zM1131 351q-17 0 -20 13h-510l-9 -30h869l5 17h-335zM1487 414l3 10h-1315l-9 -27h281q5 6 12 11.5t14 5.5h124q9 0 10.5 -5.5
t1.5 -11.5h511q5 7 12 12t13 5h342zM1501 459l8 24h-1304q-5 -6 -9 -12l-8 -12h1313zM1058 147q-2 0 -7 8.5t-7 14.5q1 1 1 3t1 4q0 4 3 7q0 1 1 2h-953l-13 -40h279l4 12h167l-4 -12h869l1 1h-342zM1379 83l14 43h-869l-14 -43h869zM772 28q2 -3 7 -8h579l16 47h-869
l-16 -47h280zM415 305h-279l-11 -34h1315l11 34h-869l-1 -4h-167zM1432 245h-1315l-12 -37h1315z" />
    <glyph glyph-name="FL00C7h" unicode="&#xc7;" horiz-adv-x="717" 
d="M122 -13q-7 5 -13.5 11t-11.5 14q-26 21 -39 66h3q-2 26 5 45l43 133h10l-3 4h-6l19 56h13l-5 7h-6l17 52h17l-8 11h-6l16 49h23l-8 13h-8q8 12 16.5 23.5t17.5 22.5h35l-12 17h-11q26 18 42 28t25 15h584l-2 -6l15 -22l-12 -37h-22v-1l14 -22l-13 -40h-19l13 -19l-8 -26
h-350q-4 0 -9.5 -5t-10.5 -12h-16l12 -17l-15 -46h-13l9 -13l-17 -50h-10l7 -10l-17 -53h-6l4 -6l-4 -11h335l-2 -6l15 -22l-5 -17h-4l2 -4l-46 -142h-197l-51 -157h-232l-15 22h-6l42 127h83l2 8h-141q-20 0 -41 9l-7 11h-11zM426 334l9 30h-280l-9 -30h280zM463 -42l14 42
h197l2 7h-545q15 -7 36 -7h177l-14 -42h133zM405 271l11 34h-280l-11 -34h280zM441 -112h-216l-15 -45h216zM385 208l12 37h-280l-12 -37h280zM448 397q5 7 11.5 12t13.5 5h342l3 10h-643l-2 -6l-7 -21h282zM443 -105l17 53h-216l-17 -53h216zM377 186h-280l-13 -40h637l1 1
h-336q-8 0 -12 6.5t-2 16.5zM850 522l6 21h-569q-13 -7 -34 -21h597zM829 459l8 24h-626q-5 -6 -9 -12t-9 -12h636zM701 83l14 43h-637l-1 -3q-7 -20 -4 -40h628zM680 20l16 47h-620q9 -28 33 -47h571z" />
    <glyph glyph-name="FL00C8h" unicode="&#xc8;" horiz-adv-x="717" 
d="M640 788l7 -18l7 -9l9 -21h-121l-14 22h-8q12 15 15 18t8 7h1l6 5h87zM666 673q-2 -2 -4 -6l15 -22q-8 -11 -15 -18.5t-10 -11.5h-104l-15 22h-4l-19 36h156zM663 732q2 -3 2.5 -6.5t2.5 -7.5l10 -14q2 -5 4 -12t4 -15h-173l-15 22h-5q0 6 1 12.5t6 20.5h163zM165 375
l-8 11h-6l16 49h23l-8 13h-8q8 12 16.5 23.5t17.5 22.5h35l-12 17h-11q26 18 42 28t25 15h584l-2 -6l15 -22l-12 -37h-22v-1l14 -22l-13 -40h-19l13 -19l-8 -26h-350q-3 0 -9 -5t-11 -12h-12q2 -2 8 -2h346l-2 -6l15 -22l-11 -33h-13l9 -13l-17 -50h-10l7 -10l-17 -53h-356
l4 -6q-6 -5 -9.5 -7.5t-5.5 -3.5h339l-2 -6l15 -22l-5 -17h-4l2 -4l-46 -142h-521q-20 0 -41 9l-7 11h-11q-7 5 -13.5 11t-11.5 14q-26 21 -39 66h3q-2 26 5 45l43 133h10l-3 4h-6l19 56h13l-5 7h-6l17 52h17zM629 781h-77l-4 -3q-3 -2 -4 -2.5t-3 -2.5h92l-2 4zM529 662
l8 -14h97q3 3 6 6.5t6 7.5h-117zM507 721q-1 -3 -1 -11h153q-1 2 -2 4.5t-3 6.5h-147zM682 7h-551q15 -7 36 -7h513zM818 424h-643l-2 -6l-7 -21h282q5 7 12 12t13 5h342zM97 186l-13 -40h643l1 1h-342q-2 0 -7 8.5t-7 14.5q1 1 1 3t1 4q0 4 3 7q0 1 1 2h-281zM850 522l6 21
h-569q-13 -7 -34 -21h597zM155 364l-9 -30h643l5 17h-335q-17 0 -20 13h-284zM829 459l8 24h-626q-5 -6 -9 -12t-9 -12h636zM768 271l11 34h-643l-11 -34h643zM760 245h-643l-12 -37h643zM707 83l14 43h-643l-1 -3q-7 -20 -4 -40h634zM686 20l16 47h-626q9 -28 33 -47h577z
" />
    <glyph glyph-name="FL00C9h" unicode="&#xc9;" horiz-adv-x="717" 
d="M730 762l14 -22h-128l-14 22h-9l20 19q0 1 7 7l5 4h88l21 -30h-4zM533 637h-4q-5 11 -7 20.5t-1 15.5h156l-6 -5l16 -23l-36 -30h-103zM730 732l-4 -6l16 -22l-10 -15q-2 -6 -10 -12h-176l-15 22h-10q25 19 28 22l2 1q0 1 2 3q1 3 7 7h170zM165 375l-8 11h-6l16 49h23
l-8 13h-8q8 12 16.5 23.5t17.5 22.5h35l-12 17h-11q26 18 42 28t25 15h584l-2 -6l15 -22l-12 -37h-22v-1l14 -22l-13 -40h-19l13 -19l-8 -26h-350q-3 0 -9 -5t-11 -12h-12q2 -2 8 -2h346l-2 -6l15 -22l-11 -33h-13l9 -13l-17 -50h-10l7 -10l-17 -53h-356l4 -6
q-6 -5 -9.5 -7.5t-5.5 -3.5h339l-2 -6l15 -22l-5 -17h-4l2 -4l-46 -142h-521q-20 0 -41 9l-7 11h-11q-7 5 -13.5 11t-11.5 14q-26 21 -39 66h3q-2 26 5 45l43 133h10l-3 4h-6l19 56h13l-5 7h-6l17 52h17zM710 773l-3 5l-2 3h-78q-2 -1 -2.5 -2t-2.5 -2l-4 -4h92zM634 648
l16 14h-117q0 -2 0.5 -5.5t3.5 -8.5h97zM562 721q-3 -3 -5 -6t-5 -5h152q3 3 3 4q1 2 1 3q0 2 2 4h-148zM682 7h-551q15 -7 36 -7h513zM818 424h-643l-2 -6l-7 -21h282q5 7 12 12t13 5h342zM97 186l-13 -40h643l1 1h-342q-2 0 -7 8.5t-7 14.5q1 1 1 3t1 4q0 4 3 7q0 1 1 2
h-281zM850 522l6 21h-569q-13 -7 -34 -21h597zM155 364l-9 -30h643l5 17h-335q-17 0 -20 13h-284zM829 459l8 24h-626q-5 -6 -9 -12t-9 -12h636zM768 271l11 34h-643l-11 -34h643zM748 208l12 37h-643l-12 -37h300h1h342zM707 83l14 43h-643l-1 -3q-7 -20 -4 -40h634z
M686 20l16 47h-626q9 -28 33 -47h577z" />
    <glyph glyph-name="FL00CAh" unicode="&#xca;" horiz-adv-x="717" 
d="M577 668l9 -14l-6 17zM494 762h-9l32 30h204l8 -17l7 -11l10 -24h-238zM426 699h-9l35 33h296l5 -15l10 -13l10 -27h-332zM358 637h-9l38 36h388l4 -13l11 -15l11 -30h-189l-15 22h-4l-3 6l-28 -28h-189zM165 375l-8 11h-6l16 49h23l-8 13h-8q8 12 16.5 23.5t17.5 22.5
h35l-12 17h-11q26 18 42 28t25 15h584l-2 -6l15 -22l-12 -37h-22v-1l14 -22l-13 -40h-19l13 -19l-8 -26h-350q-3 0 -9 -5t-11 -12h-12q2 -2 8 -2h346l-2 -6l15 -22l-11 -33h-13l9 -13l-17 -50h-10l7 -10l-17 -53h-356l4 -6q-6 -5 -9.5 -7.5t-5.5 -3.5h339l-2 -6l15 -22
l-5 -17h-4l2 -4l-46 -142h-521q-20 0 -41 9l-7 11h-11q-7 5 -13.5 11t-11.5 14q-26 21 -39 66h3q-2 26 5 45l43 133h10l-3 4h-6l19 56h13l-5 7h-6l17 52h17zM716 773l-3 8h-194l-9 -8h206zM543 648l14 14h-168l-14 -14h168zM771 648l-6 14h-168l6 -14h168zM744 710l-5 11
h-286l-11 -11h302zM682 7h-551q15 -7 36 -7h513zM818 424h-643l-2 -6l-7 -21h282q5 7 12 12t13 5h342zM97 186l-13 -40h643l1 1h-342q-2 0 -7 8.5t-7 14.5q1 1 1 3t1 4q0 4 3 7q0 1 1 2h-281zM850 522l6 21h-569q-13 -7 -34 -21h597zM155 364l-9 -30h643l5 17h-335
q-17 0 -20 13h-284zM829 459l8 24h-626q-5 -6 -9 -12t-9 -12h636zM768 271l11 34h-643l-11 -34h643zM760 245h-643l-12 -37h643zM707 83l14 43h-643l-1 -3q-7 -20 -4 -40h634zM686 20l16 47h-626q9 -28 33 -47h577z" />
    <glyph glyph-name="FL00CBh" unicode="&#xcb;" horiz-adv-x="717" 
d="M410 762h-12q23 14 35 20.5t20 9.5h96q2 -1 4.5 -3t4.5 -3t3 -2t3 -2q-2 -4 4 -8l6 -6l-1 -3l16 -25h-165zM646 762h-12q23 14 35 20.5t20 9.5h96q2 -1 4.5 -3t4.5 -3t3 -2t3 -2q-2 -4 4 -8l6 -6l-1 -3l16 -25h-165zM802 673q-3 -2 -6 -5l16 -23q-12 -10 -21.5 -17.5
t-16.5 -12.5h-138q-6 2 -8 7q-3 1 -3 5l-7 10h-1q-8 3 -10 7t-3 8h1q-5 3 -6 7q-7 7 -4 14h207zM566 673q-3 -2 -6 -5l16 -23q-12 -10 -21.5 -17.5t-16.5 -12.5h-138q-6 2 -8 7q-3 1 -3 5l-7 10h-1q-8 3 -10 7t-3 8h1q-5 3 -6 7q-7 7 -4 14h207zM368 699h-6q3 10 6 17t9 16
h213l-2 -6l13 -19q3 11 12 25h213l-2 -6l15 -22l-5 -14q0 -2 -1 -6.5t-2 -6.5h-212l-15 22h-3l-3 -9q0 -2 -1 -6.5t-2 -6.5h-212zM165 375l-8 11h-6l16 49h23l-8 13h-8q8 12 16.5 23.5t17.5 22.5h35l-12 17h-11q26 18 42 28t25 15h584l-2 -6l15 -22l-12 -37h-22v-1l14 -22
l-13 -40h-19l13 -19l-8 -26h-350q-3 0 -9 -5t-11 -12h-12q2 -2 8 -2h346l-2 -6l15 -22l-11 -33h-13l9 -13l-17 -50h-10l7 -10l-17 -53h-356l4 -6q-6 -5 -9.5 -7.5t-5.5 -3.5h339l-2 -6l15 -22l-5 -17h-4l2 -4l-46 -142h-521q-20 0 -41 9l-7 11h-11q-7 5 -13.5 11t-11.5 14
q-26 21 -39 66h3q-2 26 5 45l43 133h10l-3 4h-6l19 56h13l-5 7h-6l17 52h17zM791 773q-3 2 -5.5 4t-5.5 4h-92q-12 -5 -18 -8h121zM555 773q-3 2 -5.5 4t-5.5 4h-92q-12 -5 -18 -8h121zM378 662q2 -4 3.5 -7.5t6.5 -6.5h134q5 3 9 6.5t9 7.5h-162zM614 662q2 -4 3.5 -7.5
t6.5 -6.5h134q5 3 9 6.5t9 7.5h-162zM809 710q1 3 1 5q0 3 1 6h-194q-3 -4 -4 -11h196zM573 710q1 3 1 5q0 3 1 6h-194q-3 -4 -4 -11h196zM682 7h-551q15 -7 36 -7h513zM818 424h-643l-2 -6l-7 -21h282q5 7 12 12t13 5h342zM97 186l-13 -40h643l1 1h-342q-2 0 -7 8.5
t-7 14.5q1 1 1 3t1 4q0 4 3 7q0 1 1 2h-281zM850 522l6 21h-569q-13 -7 -34 -21h597zM155 364l-9 -30h643l5 17h-335q-17 0 -20 13h-284zM829 459l8 24h-626q-5 -6 -9 -12t-9 -12h636zM768 271l11 34h-643l-11 -34h643zM760 245h-643l-12 -37h643zM707 83l14 43h-643l-1 -3
q-7 -20 -4 -40h634zM686 20l16 47h-626q9 -28 33 -47h577z" />
    <glyph glyph-name="FL00CCh" unicode="&#xcc;" horiz-adv-x="738" 
d="M651 788l7 -18l7 -9l9 -21h-121l-14 22h-8q12 15 15 18t8 7h1l6 5h87zM677 673q-2 -2 -4 -6l15 -22q-8 -11 -15 -18.5t-10 -11.5h-104l-15 22h-4l-19 36h156zM674 732q2 -3 2.5 -6.5t2.5 -7.5l10 -14q2 -5 4 -12t4 -15h-173l-15 22h-5q0 6 1 12.5t6 20.5h163zM594 158
h169l-2 -6l15 -22l-5 -17h-4l2 -4l-46 -142h-679l-15 22h-6l55 169h192l32 98h10l-3 4h-6l19 56h13l-5 7h-6l17 52h17l-4 6h-176l-15 22h-6l10 32h19l-8 13h-6l15 46h23l-12 17h-6l14 43h685l-2 -6l15 -22l-12 -37h-22v-1l14 -22l-13 -40h-19l13 -19l-8 -26h-190l-6 -17h-17
l12 -17l-15 -46h-13l9 -13l-17 -50h-10l7 -10l-17 -53h-6l4 -6zM640 781h-77l-4 -3q-3 -2 -4 -2.5t-3 -2.5h92l-2 4zM540 662l8 -14h97q3 3 6 6.5t6 7.5h-117zM518 721q-1 -3 -1 -11h153q-1 2 -2 4.5t-3 6.5h-147zM703 7h-663l-2 -7h663zM619 334l9 30h-280l-9 -30h280z
M598 271l11 34h-280l-11 -34h280zM578 208l12 37h-280l-12 -37h280zM835 414l3 10h-663l-3 -10h193l-6 -17h280l6 17h190zM558 147l12 39h-280l-12 -39h-192l-1 -1h663l1 1h-191zM870 522l6 21h-663l-6 -21h663zM849 459l8 24h-663l-8 -24h663zM728 83l14 43h-663l-14 -43
h663zM707 20l16 47h-663l-16 -47h663z" />
    <glyph glyph-name="FL00CDh" unicode="&#xcd;" horiz-adv-x="738" 
d="M708 762l14 -22h-128l-14 22h-9l20 19q0 1 7 7l5 4h88l21 -30h-4zM511 637h-4q-5 11 -7 20.5t-1 15.5h156l-6 -5l16 -23l-36 -30h-103zM708 732l-4 -6l16 -22l-10 -15q-2 -6 -10 -12h-176l-15 22h-10q25 19 28 22l2 1q0 1 2 3q1 3 7 7h170zM592 158h170l-2 -6l15 -22
l-5 -17h-4l2 -4l-46 -142h-679l-15 22h-6l55 169h191l32 98h10l-3 4h-6l19 56h13l-5 7h-6l17 52h17l-4 6h-173l-15 22h-6l10 32h19l-8 13h-6l15 46h23l-12 17h-6l14 43h685l-2 -6l15 -22l-12 -37h-22v-1l14 -22l-13 -40h-19l13 -19l-8 -26h-193l-6 -17h-17l12 -17l-15 -46
h-13l9 -13l-17 -50h-10l7 -10l-17 -53h-6l4 -6zM688 773l-3 5l-2 3h-78q-2 -1 -2.5 -2t-2.5 -2l-4 -4h92zM612 648l16 14h-117q0 -2 0.5 -5.5t3.5 -8.5h97zM540 721q-3 -3 -5 -6t-5 -5h152q3 3 3 4q1 2 1 3q0 2 2 4h-148zM702 7h-663l-2 -7h663zM617 334l9 30h-280l-9 -30
h280zM596 271l11 34h-280l-11 -34h280zM576 208l12 37h-280l-12 -37h280zM836 414l3 10h-663l-3 -10h190l-6 -17h280l6 17h193zM84 146h663l1 1h-192l12 39h-280l-12 -39h-191zM871 522l6 21h-663l-6 -21h663zM850 459l8 24h-663l-8 -24h663zM727 83l14 43h-663l-14 -43h663
zM706 20l16 47h-663l-16 -47h663z" />
    <glyph glyph-name="FL00CEh" unicode="&#xce;" horiz-adv-x="738" 
d="M580 668l9 -14l-6 17zM497 762h-9l32 30h204l8 -17l7 -11l10 -24h-238zM429 699h-9l35 33h296l5 -15l10 -13l10 -27h-332zM361 637h-9l38 36h388l4 -13l11 -15l11 -30h-189l-15 22h-4l-3 6l-28 -28h-189zM592 158h170l-2 -6l15 -22l-5 -17h-4l2 -4l-46 -142h-679l-15 22
h-6l55 169h191l32 98h10l-3 4h-6l19 56h13l-5 7h-6l17 52h17l-4 6h-173l-15 22h-6l10 32h19l-8 13h-6l15 46h23l-12 17h-6l14 43h685l-2 -6l15 -22l-12 -37h-22v-1l14 -22l-13 -40h-19l13 -19l-8 -26h-193l-6 -17h-17l12 -17l-15 -46h-13l9 -13l-17 -50h-10l7 -10l-17 -53
h-6l4 -6zM719 773l-3 8h-194l-9 -8h206zM546 648l14 14h-168l-14 -14h168zM774 648l-6 14h-168l6 -14h168zM747 710l-5 11h-286l-11 -11h302zM702 7h-663l-2 -7h663zM617 334l9 30h-280l-9 -30h280zM596 271l11 34h-280l-11 -34h280zM576 208l12 37h-280l-12 -37h280z
M836 414l3 10h-663l-3 -10h190l-6 -17h280l6 17h193zM84 146h663l1 1h-192l12 39h-280l-12 -39h-191zM871 522l6 21h-663l-6 -21h663zM850 459l8 24h-663l-8 -24h663zM727 83l14 43h-663l-14 -43h663zM706 20l16 47h-663l-16 -47h663z" />
    <glyph glyph-name="FL00CFh" unicode="&#xcf;" horiz-adv-x="738" 
d="M648 762h-12q23 14 35 20.5t20 9.5h96q2 -1 4.5 -3t4.5 -3t3 -2t3 -2q-2 -4 4 -8l6 -6l-1 -3l16 -25h-165zM412 762h-12q23 14 35 20.5t20 9.5h96q2 -1 4.5 -3t4.5 -3t3 -2t3 -2q-2 -4 4 -8l6 -6l-1 -3l16 -25h-165zM804 673q-3 -2 -6 -5l16 -23q-12 -10 -21.5 -17.5
t-16.5 -12.5h-138q-6 2 -8 7q-3 1 -3 5l-7 10h-1q-8 3 -10 7t-3 8h1q-5 3 -6 7q-7 7 -4 14h207zM568 673q-3 -2 -6 -5l16 -23q-12 -10 -21.5 -17.5t-16.5 -12.5h-138q-6 2 -8 7q-3 1 -3 5l-7 10h-1q-8 3 -10 7t-3 8h1q-5 3 -6 7q-7 7 -4 14h207zM370 699h-6q3 10 6 17t9 16
h213l-2 -6l13 -19q3 11 12 25h213l-2 -6l15 -22l-5 -14q0 -2 -1 -6.5t-2 -6.5h-212l-15 22h-3l-3 -9q0 -2 -1 -6.5t-2 -6.5h-212zM592 158h170l-2 -6l15 -22l-5 -17h-4l2 -4l-46 -142h-679l-15 22h-6l55 169h191l32 98h10l-3 4h-6l19 56h13l-5 7h-6l17 52h17l-4 6h-173
l-15 22h-6l10 32h19l-8 13h-6l15 46h23l-12 17h-6l14 43h685l-2 -6l15 -22l-12 -37h-22v-1l14 -22l-13 -40h-19l13 -19l-8 -26h-193l-6 -17h-17l12 -17l-15 -46h-13l9 -13l-17 -50h-10l7 -10l-17 -53h-6l4 -6zM557 773q-3 2 -5.5 4t-5.5 4h-92q-12 -5 -18 -8h121zM793 773
q-3 2 -5.5 4t-5.5 4h-92q-12 -5 -18 -8h121zM616 662q2 -4 3.5 -7.5t6.5 -6.5h134q5 3 9 6.5t9 7.5h-162zM380 662q2 -4 3.5 -7.5t6.5 -6.5h134q5 3 9 6.5t9 7.5h-162zM575 710q1 3 1 5q0 3 1 6h-194q-3 -4 -4 -11h196zM811 710q1 3 1 5q0 3 1 6h-194q-3 -4 -4 -11h196z
M702 7h-663l-2 -7h663zM617 334l9 30h-280l-9 -30h280zM596 271l11 34h-280l-11 -34h280zM576 208l12 37h-280l-12 -37h280zM836 414l3 10h-663l-3 -10h190l-6 -17h280l6 17h193zM84 146h663l1 1h-192l12 39h-280l-12 -39h-191zM871 522l6 21h-663l-6 -21h663zM850 459l8 24
h-663l-8 -24h663zM727 83l14 43h-663l-14 -43h663zM706 20l16 47h-663l-16 -47h663z" />
    <glyph glyph-name="FL00D0h" unicode="&#xd0;" horiz-adv-x="854" 
d="M463 161h70q17 0 30 10t24 26h-2q5 11 10 20.5t4 8.5l10 30h10l-3 4h-6l19 56h12l-5 7h-6q3 11 5 22t2 25h-106l-2 -6h-17l2 -2h48l-2 -6l15 -22l-11 -33h-13l9 -13l-17 -50h-10l7 -10l-17 -53h-61l4 -6zM940 554q4 -3 8 -11t12 -23l3 -3q3 -5 6 -11.5t8 -16.5h-6
q0 -2 0.5 -2.5t-0.5 -2.5l13 -18q2 -8 2.5 -18t-1.5 -22h-16l13 -19l-14 -43h-17l12 -17l-15 -46h-13l9 -13l-17 -50h-10l7 -10l-17 -53h-6l4 -6l-18 -56h-4l2 -4l-7 -24q-5 -14 -18 -34v-1q-17 -20 -34 -36t-34 -27h-19v-10q-23 -10 -39 -10h-630l-15 22h-6l61 186h-33
l-15 22h-6l19 59h10l-3 4h-6l19 56h13l-5 7h-6l13 39h61l4 13h17l-8 11h-6l16 49h19l-8 13h-6l15 46h23l-12 17h-6l14 43h673zM720 0q16 0 30 7h-650l-2 -7h622zM926 334l9 30h-285q0 -12 -5 -30h281zM905 271l11 34h-280l-11 -34h280zM151 351l-5 -17h396l5 17h-55l4 13
h-280l-4 -13h-61zM885 208l12 37h-280l-7 -19q-2 -5 -3.5 -9t-3.5 -9h282zM521 271l11 34h-396l-11 -34h396zM274 543l-6 -21h679q-5 12 -16 21h-657zM513 245h-396l-12 -37h396zM255 483l-8 -24h714q1 6 0.5 12t-1.5 12h-705zM626 403q9 0 17 -6h303l9 27h-719l-9 -27h280
l2 6h117zM427 150l11 36h-280l-13 -40h719l13 40h-286q-10 -16 -24.5 -26t-36.5 -10h-103zM858 126h-719l-14 -43h714q10 17 14 27zM120 67l-16 -47h671q29 18 53 47h-708z" />
    <glyph glyph-name="FL00D1h" unicode="&#xd1;" 
d="M917 497q1 0 1 -1zM580 668l9 -14l-6 17zM498 762h-9l32 30h138l8 -17l7 -11l10 -24h-172zM702 762h-9l32 30h195l-5 -5l15 -23l-26 -24h-188zM430 699h-9l35 33h398l-6 -5l16 -23l-28 -27h-391zM362 637h-9l38 36h399l-6 -5l17 -23l-31 -30h-155l-15 22h-4l-3 6l-28 -28
h-188zM877 554q7 -5 16 -15.5t20 -27.5h-4l8 -14l1 -1l6 -7h-5q0 -2 0.5 -2.5t-0.5 -2.5l13 -18q2 -8 2.5 -18t-1.5 -22h-18l13 -19l-14 -43h-17l12 -17l-15 -46h-13l9 -13l-17 -50h-10l7 -10l-17 -53h-6l4 -6l-18 -56h-4l2 -4l-46 -142h-296l-15 22h-6l87 267h10l-3 4h-6
l19 56h13l-5 7h-6l17 52h17l-4 6h-134l-6 -17h-17l12 -17l-15 -46h-13l9 -13l-17 -50h-10l7 -10l-17 -53h-6l4 -6l-18 -56h-4l2 -4l-46 -142h-295l-15 22h-6l87 267h10l-3 4h-6l19 56h13l-5 7h-6l17 52h17l-8 11h-6l16 49h19l-8 13h-6l15 46h23l-12 17h-6l14 43h671z
M654 773l-3 8h-128l-9 -8h140zM886 773l9 8h-168l-9 -8h168zM318 7h-279l-2 -7h279zM765 7h-280l-2 -7h280zM751 648l14 14h-165l6 -14h145zM546 648l14 14h-167l-14 -14h167zM818 710l11 11h-372l-11 -11h372zM425 334l9 30h-279l-9 -30h279zM872 334l9 30h-280l-9 -30h280
zM404 271l11 34h-279l-11 -34h279zM851 271l11 34h-280l-11 -34h280zM384 208l12 37h-279l-12 -37h279zM831 208l12 37h-280l-12 -37h280zM363 146l13 40h-279l-13 -40h279zM810 146l13 40h-280l-13 -40h280zM343 83l14 43h-279l-14 -43h279zM790 83l14 43h-280l-14 -43h280
zM322 20l16 47h-279l-16 -47h279zM769 20l16 47h-280l-16 -47h280zM213 543l-6 -21h683q-9 12 -21 21h-656zM597 414q9 0 10.5 -5.5t1.5 -11.5h283l9 27h-726l-9 -27h279l6 17h146zM194 483l-8 -24h723q1 6 0.5 12t-1.5 12h-714z" />
    <glyph glyph-name="FL00D2h" unicode="&#xd2;" 
d="M683 788l7 -18l7 -9l9 -21h-121l-14 22h-8q12 15 15 18t8 7h1l6 5h87zM709 673q-2 -2 -4 -6l15 -22q-8 -11 -15 -18.5t-10 -11.5h-104l-15 22h-4l-19 36h156zM706 732q2 -3 2.5 -6.5t2.5 -7.5l10 -14q2 -5 4 -12t4 -15h-173l-15 22h-5q0 6 1 12.5t6 20.5h163zM400 158
h113q2 0 7 5t9 10l27 83h10l-3 4h-6l19 56h13l-5 7h-6l17 52h17l-4 6h-121q-8 -1 -19 -17h-18l12 -17l-15 -46h-13l9 -13l-17 -50h-10l7 -10l-17 -53h-6l4 -6zM873 554q7 -5 16 -15.5t20 -27.5h-4l15 -22h-7v-5l13 -18q2 -6 2.5 -14t1.5 -26h-15l13 -19l-14 -43h-17l12 -17
l-15 -46h-13l9 -13l-17 -50h-10l7 -10l-17 -53h-6l4 -6l-18 -56h-4l2 -4l-3 -11q-4 -11 -11 -23t-17 -25h1q-39 -41 -81 -63h-25l-1 -11q-27 -9 -47 -9h-466q-20 0 -41 9l-7 11h-11q-7 5 -13.5 11t-11.5 14q-26 21 -39 66h3q-2 26 5 45l43 133h10l-3 4h-6l19 56h13l-5 7h-6
l17 52h17l-8 11h-6l16 49h23l-8 13h-8q8 12 16.5 23.5t17.5 22.5h35l-12 17h-11q26 18 42 28t25 15h586zM672 781h-77l-4 -3q-3 -2 -4 -2.5t-3 -2.5h92l-2 4zM572 662l8 -14h97q3 3 6 6.5t6 7.5h-117zM550 721q-1 -3 -1 -11h153q-1 2 -2 4.5t-3 6.5h-147zM131 7q15 -7 36 -7
h466q22 0 40 7h-542zM872 334l9 30h-279l-9 -30h279zM425 334l9 30h-279l-9 -30h279zM851 271l11 34h-279l-11 -34h279zM404 271l11 34h-279l-11 -34h279zM831 208l12 37h-279l-12 -37h279zM384 208l12 37h-279l-12 -37h279zM287 543q-13 -7 -34 -21h633q-9 12 -21 21h-578z
M211 483q-5 -6 -9 -12t-9 -12h712q0 6 -1 12l-2 12h-691zM175 424l-2 -6l-7 -21h282q9 14 23 17h126q7 0 9.5 -5t3.5 -12h282l7 21l2 6h-726zM376 186h-279l-13 -40h726l13 40h-279l-5 -16q-5 -6 -14 -14.5t-15 -8.5h-124q-13 0 -14.5 9t-0.5 14zM76 67q9 -28 33 -47h594
q38 20 64 47h-691zM804 126h-726l-1 -3q-7 -20 -4 -40h708q7 10 12.5 19.5t9.5 20.5z" />
    <glyph glyph-name="FL00D3h" unicode="&#xd3;" 
d="M738 762l14 -22h-128l-14 22h-9l20 19q0 1 6 6q1 2 2.5 2.5t3.5 2.5h88l21 -30h-4zM541 637h-4q-5 11 -7 20.5t-1 15.5h156l-6 -5l16 -23l-36 -30h-103zM738 732l-4 -6l16 -22l-10 -15q-2 -6 -10 -12h-176l-15 22h-10q25 19 28 22l2 1q0 1 2 3q1 3 7 7h170zM400 158h113
q2 0 7 5t9 10l27 83h10l-3 4h-6l19 56h13l-5 7h-6l17 52h17l-4 6h-122q-9 -3 -18 -17h-18l12 -17l-15 -46h-13l9 -13l-17 -50h-10l7 -10l-17 -53h-6l4 -6zM873 554q7 -5 16 -15.5t20 -27.5h-4l15 -22h-7v-5l13 -18q2 -6 2.5 -14t1.5 -26h-15l13 -19l-14 -43h-17l12 -17
l-15 -46h-13l9 -13l-17 -50h-10l7 -10l-17 -53h-6l4 -6l-18 -56h-4l2 -4l-3 -11q-4 -11 -11 -23t-17 -25h1q-39 -41 -81 -63h-25l-1 -11q-27 -9 -47 -9h-466q-20 0 -41 9l-7 11h-11q-7 5 -13.5 11t-11.5 14q-26 21 -39 66h3q-2 26 5 45l43 133h10l-3 4h-6l19 56h13l-5 7h-6
l17 52h17l-8 11h-6l16 49h23l-8 13h-8q8 12 16.5 23.5t17.5 22.5h35l-12 17h-11q26 18 42 28t25 15h586zM718 773l-3 5l-2 3h-78q-2 -1 -2.5 -2t-2.5 -2l-4 -4h92zM642 648l16 14h-117q0 -2 0.5 -5.5t3.5 -8.5h97zM570 721q-3 -3 -5 -6t-5 -5h152q3 3 3 4q1 2 1 3q0 2 2 4
h-148zM131 7q15 -7 36 -7h466q22 0 40 7h-542zM425 334l9 30h-279l-9 -30h279zM872 334l9 30h-279l-9 -30h279zM851 271l11 34h-279l-11 -34h279zM404 271l11 34h-279l-11 -34h279zM831 208l12 37h-279l-12 -37h279zM384 208l12 37h-279l-12 -37h279zM287 543
q-13 -7 -34 -21h633q-9 12 -21 21h-578zM211 483q-5 -6 -9 -12t-9 -12h712q0 6 -1 12l-2 12h-691zM175 424l-2 -6l-7 -21h282q9 14 23 17h126q7 0 9.5 -5t3.5 -12h282l7 21l2 6h-726zM376 186h-279l-13 -40h726l13 40h-279l-5 -16q-5 -6 -14 -14.5t-15 -8.5h-124
q-13 0 -14.5 9t-0.5 14zM76 67q9 -28 33 -47h594q38 20 64 47h-691zM804 126h-726l-1 -3q-7 -20 -4 -40h708q7 10 12.5 19.5t9.5 20.5z" />
    <glyph glyph-name="FL00D4h" unicode="&#xd4;" 
d="M615 668l9 -14l-6 17zM532 762h-9l32 30h204l8 -17l7 -11l10 -24h-238zM464 699h-9l35 33h296l5 -15l10 -13l10 -27h-332zM396 637h-9l38 36h388l4 -13l11 -15l11 -30h-189l-15 22h-4l-3 6l-28 -28h-189zM400 158h113q2 0 7 5t9 10l27 83h10l-3 4h-6l19 56h13l-5 7h-6
l17 52h17l-4 6h-122q-9 -3 -18 -17h-18l12 -17l-15 -46h-13l9 -13l-17 -50h-10l7 -10l-17 -53h-6l4 -6zM873 554q7 -5 16 -15.5t20 -27.5h-4l15 -22h-7v-5l13 -18q2 -6 2.5 -14t1.5 -26h-15l13 -19l-14 -43h-17l12 -17l-15 -46h-13l9 -13l-17 -50h-10l7 -10l-17 -53h-6l4 -6
l-18 -56h-4l2 -4l-3 -11q-4 -11 -11 -23t-17 -25h1q-39 -41 -81 -63h-25l-1 -11q-27 -9 -47 -9h-466q-20 0 -41 9l-7 11h-11q-7 5 -13.5 11t-11.5 14q-26 21 -39 66h3q-2 26 5 45l43 133h10l-3 4h-6l19 56h13l-5 7h-6l17 52h17l-8 11h-6l16 49h23l-8 13h-8q8 12 16.5 23.5
t17.5 22.5h35l-12 17h-11q26 18 42 28t25 15h586zM754 773l-3 8h-194l-9 -8h206zM581 648l14 14h-168l-14 -14h168zM809 648l-6 14h-168l6 -14h168zM782 710l-5 11h-286l-11 -11h302zM131 7q15 -7 36 -7h466q22 0 40 7h-542zM872 334l9 30h-279l-9 -30h279zM425 334l9 30
h-279l-9 -30h279zM851 271l11 34h-279l-11 -34h279zM404 271l11 34h-279l-11 -34h279zM831 208l12 37h-279l-12 -37h279zM384 208l12 37h-279l-12 -37h279zM287 543q-13 -7 -34 -21h633q-9 12 -21 21h-578zM211 483q-5 -6 -9 -12t-9 -12h712q0 6 -1 12l-2 12h-691zM175 424
l-2 -6l-7 -21h282q9 14 23 17h126q7 0 9.5 -5t3.5 -12h282l7 21l2 6h-726zM376 186h-279l-13 -40h726l13 40h-279l-5 -16q-5 -6 -14 -14.5t-15 -8.5h-124q-13 0 -14.5 9t-0.5 14zM76 67q9 -28 33 -47h594q38 20 64 47h-691zM804 126h-726l-1 -3q-7 -20 -4 -40h708
q7 10 12.5 19.5t9.5 20.5z" />
    <glyph glyph-name="FL00D5h" unicode="&#xd5;" 
d="M580 668l9 -14l-6 17zM498 762h-9l32 30h138l8 -17l7 -11l10 -24h-172zM702 762h-9l32 30h195l-5 -5l15 -23l-26 -24h-188zM430 699h-9l35 33h398l-6 -5l16 -23l-28 -27h-391zM362 637h-9l38 36h399l-6 -5l17 -23l-31 -30h-155l-15 22h-4l-3 6l-28 -28h-188zM400 158h113
q2 0 7 5t9 10l27 83h10l-3 4h-6l19 56h13l-5 7h-6l17 52h17l-4 6h-121q-8 -1 -19 -17h-18l12 -17l-15 -46h-13l9 -13l-17 -50h-10l7 -10l-17 -53h-6l4 -6zM905 511l15 -22h-7v-5l13 -18q2 -6 2.5 -14t1.5 -26h-15l13 -19l-14 -43h-17l12 -17l-15 -46h-13l9 -13l-17 -50h-10
l7 -10l-17 -53h-6l4 -6l-18 -56h-4l2 -4l-3 -11q-4 -11 -11 -23t-17 -25h1q-39 -41 -81 -63h-25l-1 -11q-27 -9 -47 -9h-466q-20 0 -41 9l-7 11h-11q-7 5 -13.5 11t-11.5 14q-26 21 -39 66h3q-2 26 5 45l43 133h10l-3 4h-6l19 56h13l-5 7h-6l17 52h17l-8 11h-6l16 49h23
l-8 13h-8q8 12 16.5 23.5t17.5 22.5h35l-12 17h-11q26 18 42 28t25 15h586q7 -5 16 -15.5t20 -27.5h-4zM654 773l-3 8h-128l-9 -8h140zM886 773l9 8h-168l-9 -8h168zM751 648l14 14h-165l6 -14h145zM546 648l14 14h-167l-14 -14h167zM633 0q22 0 40 7h-542q15 -7 36 -7h466z
M818 710l11 11h-372l-11 -11h372zM872 334l9 30h-279l-9 -30h279zM425 334l9 30h-279l-9 -30h279zM851 271l11 34h-279l-11 -34h279zM404 271l11 34h-279l-11 -34h279zM831 208l12 37h-279l-12 -37h279zM384 208l12 37h-279l-12 -37h279zM886 522q-9 12 -21 21h-578
q-13 -7 -34 -21h633zM905 459q0 6 -1 12l-2 12h-691q-5 -6 -9 -12t-9 -12h712zM597 414q7 0 9.5 -5t3.5 -12h282l7 21l2 6h-726l-2 -6l-7 -21h282q9 14 23 17h126zM376 186h-279l-13 -40h726l13 40h-279l-5 -16q-5 -6 -14 -14.5t-15 -8.5h-124q-13 0 -14.5 9t-0.5 14z
M703 20q38 20 64 47h-691q9 -28 33 -47h594zM781 83q7 10 12.5 19.5t9.5 20.5l1 3h-726l-1 -3q-7 -20 -4 -40h708z" />
    <glyph glyph-name="FL00D6h" unicode="&#xd6;" 
d="M448 762h-12q23 14 35 20.5t20 9.5h96q2 -1 4.5 -3t4.5 -3t3 -2t3 -2q-2 -4 4 -8l6 -6l-1 -3l16 -25h-165zM684 762h-12q23 14 35 20.5t20 9.5h96q2 -1 4.5 -3t4.5 -3t3 -2t3 -2q-2 -4 4 -8l6 -6l-1 -3l16 -25h-1h-164zM840 673q-3 -2 -6 -5l16 -23q-12 -10 -21.5 -17.5
t-16.5 -12.5h-138q-6 2 -8 7q-3 1 -3 5l-7 10h-1q-8 3 -10 7t-3 8h1q-5 3 -6 7q-7 7 -4 14h207zM604 673q-3 -2 -6 -5l16 -23q-12 -10 -21.5 -17.5t-16.5 -12.5h-138q-6 2 -8 7q-3 1 -3 5l-7 10h-1q-8 3 -10 7t-3 8h1q-5 3 -6 7q-7 7 -4 14h207zM406 699h-6q3 10 6 17t9 16
h213l-2 -6l13 -19q3 11 12 25h213l-2 -6l15 -22l-5 -14q0 -2 -1 -6.5t-2 -6.5h-212l-15 22h-3l-3 -9q0 -2 -1 -6.5t-2 -6.5h-212zM400 158h113q2 0 7 5t9 10l27 83h10l-3 4h-6l19 56h13l-5 7h-6l17 52h17l-4 6h-122q-9 -3 -18 -17h-18l12 -17l-15 -46h-13l9 -13l-17 -50h-10
l7 -10l-17 -53h-6l4 -6zM873 554q7 -5 16 -15.5t20 -27.5h-4l12 -17q-1 1 -2 1l-1 1l6 -7h-7v-5l13 -18q2 -6 2.5 -14t1.5 -26h-15l13 -19l-14 -43h-17l12 -17l-15 -46h-13l9 -13l-17 -50h-10l7 -10l-17 -53h-6l4 -6l-18 -56h-4l2 -4l-3 -11q-4 -11 -11 -23t-17 -25h1
q-39 -41 -81 -63h-25l-1 -11q-27 -9 -47 -9h-466q-20 0 -41 9l-7 11h-11q-7 5 -13.5 11t-11.5 14q-26 21 -39 66h3q-2 26 5 45l43 133h10l-3 4h-6l19 56h13l-5 7h-6l17 52h17l-8 11h-6l16 49h23l-8 13h-8q8 12 16.5 23.5t17.5 22.5h35l-12 17h-11q26 18 42 28t25 15h586z
M829 773q-3 2 -5.5 4t-5.5 4h-92q-12 -5 -18 -8h121zM593 773q-3 2 -5.5 4t-5.5 4h-92q-12 -5 -18 -8h121zM416 662q2 -4 3.5 -7.5t6.5 -6.5h134q5 3 9 6.5t9 7.5h-162zM652 662q2 -4 3.5 -7.5t6.5 -6.5h134q5 3 9 6.5t9 7.5h-162zM847 710q1 3 1 5q0 3 1 6h-194
q-3 -4 -4 -11h196zM611 710q1 3 1 5q0 3 1 6h-194q-3 -4 -4 -11h196zM131 7q15 -7 36 -7h466q22 0 40 7h-542zM872 334l9 30h-279l-9 -30h279zM425 334l9 30h-279l-9 -30h279zM851 271l11 34h-279l-11 -34h279zM404 271l11 34h-279l-11 -34h279zM831 208l12 37h-279l-12 -37
h279zM384 208l12 37h-279l-12 -37h279zM287 543q-13 -7 -34 -21h633q-9 12 -21 21h-578zM211 483q-5 -6 -9 -12t-9 -12h712q0 6 -1 12l-2 12h-691zM175 424l-2 -6l-7 -21h282q9 14 23 17h126q7 0 9.5 -5t3.5 -12h282l7 21l2 6h-726zM376 186h-279l-13 -40h726l13 40h-279
l-5 -16q-5 -6 -14 -14.5t-15 -8.5h-124q-13 0 -14.5 9t-0.5 14zM76 67q9 -28 33 -47h594q38 20 64 47h-691zM804 126h-726l-1 -3q-7 -20 -4 -40h708q7 10 12.5 19.5t9.5 20.5z" />
    <glyph glyph-name="FL00D7h" unicode="&#xd7;" horiz-adv-x="412" 
d="M503 346l-2 -2l15 -23l-26 -20h-26l9 -13l-44 -33l31 -44l-3 -2l15 -23l-14 -11h-12l4 -6l-74 -56h-8l2 -4l-47 -36l-16 23l-2 -2l-31 45l-34 -26h-7l2 -4l-49 -37l-15 23l-3 -2l-79 117l60 46h18l-3 4h-10l26 19l-25 37h4l-5 7h-4l-16 24l37 28h31l-8 11h-10l67 49h57
l26 -39l53 39h56l33 -49h-4l8 -11h4zM331 126h-32l11 -16zM196 126h-34l11 -17zM453 397l-18 27h-46l-37 -27h101zM318 397l-18 27h-47l-37 -27h102zM433 305h-255l18 -26l-11 -8h219l-5 8zM285 146h72l53 40h-289l27 -40h73l43 32zM475 364h-303l-22 -17l9 -13h313l15 12z
M421 245h-270l-46 -35l2 -2h333l4 3z" />
    <glyph glyph-name="FL00D8h" unicode="&#xd8;" 
d="M486 158h27q2 0 7 5t9 10l7 20l-25 -18h-13l4 -6zM461 345l40 30h33l-4 6h-44q-9 -3 -18 -17h-18l12 -17zM873 554q7 -5 16 -15.5t20 -27.5h-4l15 -22h-7v-5l13 -18q2 -6 2.5 -14t1.5 -26h-15l13 -19l-14 -43h-17l12 -17l-15 -46h-13l9 -13l-17 -50h-10l7 -10l-17 -53h-6
l4 -6l-18 -56h-4l2 -4l-3 -11q-4 -11 -11 -23t-17 -25h1q-39 -41 -81 -63h-25l-1 -11q-27 -9 -47 -9h-466q-20 0 -41 9l-7 11h-11q-7 5 -13.5 11t-11.5 14q-26 21 -39 66h3q-2 26 5 45l43 133h10l-3 4h-6l19 56h13l-5 7h-6l17 52h17l-8 11h-6l16 49h23l-8 13h-8
q8 12 16.5 23.5t17.5 22.5h35l-12 17h-11q26 18 42 28t25 15h586zM131 7q15 -7 36 -7h466q22 0 40 7h-542zM425 334l9 30h-279l-9 -30h279zM831 208l12 37h-279l-12 -37h279zM872 334l9 30h-379l-39 -30h409zM287 543q-13 -7 -34 -21h633q-9 12 -21 21h-578zM493 208l51 37
h-427l-12 -37h388zM211 483q-5 -6 -9 -12t-9 -12h712q0 6 -1 12l-2 12h-691zM547 397h345l7 21l2 6h-726l-2 -6l-7 -21h282q9 14 23 17h99zM851 271l11 34h-438l-12 -9l3 9h-279l-11 -34h726zM461 186h-364l-13 -40h726l13 40h-279l-5 -16q-5 -6 -14 -14.5t-15 -8.5h-102z
M76 67q9 -28 33 -47h594q38 20 64 47h-691zM804 126h-726l-1 -3q-7 -20 -4 -40h708q7 10 12.5 19.5t9.5 20.5z" />
    <glyph glyph-name="FL00D9h" unicode="&#xd9;" 
d="M680 792l3 -4l7 -18l7 -9l9 -21h-121l-14 22h-8q12 15 15 18t8 7h1l6 5h87zM709 673q-2 -2 -4 -6l15 -22q-8 -11 -15 -18.5t-10 -11.5h-104l-15 22h-4l-19 36h156zM541 699h-5q0 6 1 12.5t6 20.5h163q2 -3 2.5 -6.5t2.5 -7.5l10 -14q2 -5 4 -12t4 -15h-173zM401 158h123
l32 98h10l-3 4h-6l19 56h13l-5 7h-6l17 52h17l-8 11h-6l16 49h19l-8 13h-6l15 46h23l-12 17h-6l14 43h301l-2 -6l15 -22l-12 -37h-22v-1l14 -22l-13 -40h-19l13 -19l-14 -43h-17l12 -17l-15 -46h-13l9 -13l-17 -50h-10l7 -10l-17 -53h-6l4 -6l-18 -56h-4l2 -4l-46 -142h-604
q-11 0 -20.5 2t-19.5 7l-7 11h-11q-7 5 -13.5 11t-11.5 14q-26 21 -39 66h2q-2 26 5 45l43 133h10l-3 4h-6l19 56h13l-5 7h-6l17 52h17l-8 11h-6l16 49h19l-8 13h-6l15 46h23l-12 17h-6l14 43h302l-2 -6l15 -22l-12 -37h-22v-1l14 -22l-13 -40h-19l13 -19l-14 -43h-17
l12 -17l-15 -46h-13l9 -13l-17 -50h-10l7 -10l-17 -53h-6l4 -6zM595 781l-4 -3q-3 -2 -4 -2.5t-3 -2.5h92l-2 4l-2 4h-77zM572 662l8 -14h97q3 3 6 6.5t6 7.5h-117zM702 710q-1 2 -2 4.5t-3 6.5h-147q-1 -3 -1 -11h153zM763 0l2 7h-633q14 -7 35 -7h596zM933 522l6 21h-279
l-6 -21h279zM487 522l6 21h-280l-6 -21h280zM912 459l8 24h-279l-8 -24h279zM466 459l8 24h-280l-8 -24h280zM892 397l9 27h-279l-9 -27h279zM446 397l9 27h-280l-9 -27h280zM872 334l9 30h-279l-9 -30h279zM426 334l9 30h-280l-9 -30h280zM851 271l11 34h-279l-11 -34h279z
M405 271l11 34h-280l-11 -34h280zM831 208l12 37h-279l-12 -37h279zM385 208l12 37h-280l-12 -37h280zM377 186h-280l-13 -40h726l13 40h-279l-12 -39h-146q-11 0 -11.5 8.5t-2.5 14.5zM790 83l14 43h-726l-1 -3q-7 -20 -4 -40h717zM769 20l16 47h-708q9 -28 33 -47h659z
" />
    <glyph glyph-name="FL00DAh" unicode="&#xda;" 
d="M621 781q0 1 6 6q1 2 2.5 2.5t3.5 2.5h88l21 -30h-4l14 -22h-128l-14 22h-9zM541 637h-4q-5 11 -7 20.5t-1 15.5h156l-6 -5l16 -23l-36 -30h-103zM539 699h-10q25 19 28 22l2 1q0 1 2 3q1 3 7 7h170l-4 -6l16 -22l-10 -15q-2 -6 -10 -12h-176zM401 158h123l32 98h10l-3 4
h-6l19 56h13l-5 7h-6l17 52h17l-8 11h-6l16 49h19l-8 13h-6l15 46h23l-12 17h-6l14 43h301l-2 -6l15 -22l-12 -37h-22v-1l14 -22l-13 -40h-19l13 -19l-14 -43h-17l12 -17l-15 -46h-13l9 -13l-17 -50h-10l7 -10l-17 -53h-6l4 -6l-18 -56h-4l2 -4l-46 -142h-604q-11 0 -20.5 2
t-19.5 7l-7 11h-11q-7 5 -13.5 11t-11.5 14q-26 21 -39 66h2q-2 26 5 45l43 133h10l-3 4h-6l19 56h13l-5 7h-6l17 52h17l-8 11h-6l16 49h19l-8 13h-6l15 46h23l-12 17h-6l14 43h302l-2 -6l15 -22l-12 -37h-22v-1l14 -22l-13 -40h-19l13 -19l-14 -43h-17l12 -17l-15 -46h-13
l9 -13l-17 -50h-10l7 -10l-17 -53h-6l4 -6zM626 773h92l-3 5l-2 3h-78q-2 -1 -2.5 -2t-2.5 -2zM642 648l16 14h-117q0 -2 0.5 -5.5t3.5 -8.5h97zM712 710q3 3 3 4q1 2 1 3q0 2 2 4h-148q-3 -3 -5 -6t-5 -5h152zM763 0l2 7h-633q14 -7 35 -7h596zM933 522l6 21h-279l-6 -21
h279zM487 522l6 21h-280l-6 -21h280zM912 459l8 24h-279l-8 -24h279zM466 459l8 24h-280l-8 -24h280zM892 397l9 27h-279l-9 -27h279zM446 397l9 27h-280l-9 -27h280zM872 334l9 30h-279l-9 -30h279zM426 334l9 30h-280l-9 -30h280zM851 271l11 34h-279l-11 -34h279z
M405 271l11 34h-280l-11 -34h280zM831 208l12 37h-279l-12 -37h279zM385 208l12 37h-280l-12 -37h280zM377 186h-280l-13 -40h726l13 40h-279l-12 -39h-146q-11 0 -11.5 8.5t-2.5 14.5zM790 83l14 43h-726l-1 -3q-7 -20 -4 -40h717zM769 20l16 47h-708q9 -28 33 -47h659z
" />
    <glyph glyph-name="FL00DBh" unicode="&#xdb;" 
d="M615 668l9 -14l-6 17zM532 762h-9l32 30h204l8 -17l7 -11l10 -24h-238zM464 699h-9l35 33h296l5 -15l10 -13l10 -27h-332zM396 637h-9l38 36h388l4 -13l11 -15l11 -30h-189l-15 22h-4l-3 6l-28 -28h-189zM401 158h123l32 98h10l-3 4h-6l19 56h13l-5 7h-6l17 52h17l-8 11
h-6l16 49h19l-8 13h-6l15 46h23l-12 17h-6l14 43h301l-2 -6l15 -22l-12 -37h-22v-1l14 -22l-13 -40h-19l13 -19l-14 -43h-17l12 -17l-15 -46h-13l9 -13l-17 -50h-10l7 -10l-17 -53h-6l4 -6l-18 -56h-4l2 -4l-46 -142h-604q-11 0 -20.5 2t-19.5 7l-7 11h-11q-7 5 -13.5 11
t-11.5 14q-26 21 -39 66h2q-2 26 5 45l43 133h10l-3 4h-6l19 56h13l-5 7h-6l17 52h17l-8 11h-6l16 49h19l-8 13h-6l15 46h23l-12 17h-6l14 43h302l-2 -6l15 -22l-12 -37h-22v-1l14 -22l-13 -40h-19l13 -19l-14 -43h-17l12 -17l-15 -46h-13l9 -13l-17 -50h-10l7 -10l-17 -53
h-6l4 -6zM754 773l-3 8h-194l-9 -8h206zM581 648l14 14h-168l-14 -14h168zM809 648l-6 14h-168l6 -14h168zM782 710l-5 11h-286l-11 -11h302zM763 0l2 7h-633q14 -7 35 -7h596zM933 522l6 21h-279l-6 -21h279zM487 522l6 21h-280l-6 -21h280zM912 459l8 24h-279l-8 -24h279z
M466 459l8 24h-280l-8 -24h280zM892 397l9 27h-279l-9 -27h279zM446 397l9 27h-280l-9 -27h280zM872 334l9 30h-279l-9 -30h279zM426 334l9 30h-280l-9 -30h280zM851 271l11 34h-279l-11 -34h279zM405 271l11 34h-280l-11 -34h280zM831 208l12 37h-279l-12 -37h279zM385 208
l12 37h-280l-12 -37h280zM377 186h-280l-13 -40h726l13 40h-279l-12 -39h-146q-11 0 -11.5 8.5t-2.5 14.5zM790 83l14 43h-726l-1 -3q-7 -20 -4 -40h717zM769 20l16 47h-708q9 -28 33 -47h659z" />
    <glyph glyph-name="FL00DCh" unicode="&#xdc;" 
d="M823 792q2 -1 4.5 -3t4.5 -3t3 -2t3 -2q-2 -4 4 -8l6 -6l-1 -3l16 -25h-165l-14 22h-12q23 14 35 20.5t20 9.5h96zM587 792q2 -1 4.5 -3t4.5 -3t3 -2t3 -2q-2 -4 4 -8l6 -6l-1 -3l16 -25h-165l-14 22h-12q23 14 35 20.5t20 9.5h96zM656 637h-1q-8 3 -10 7t-3 8h1
q-5 3 -6 7q-7 7 -4 14h207q-3 -2 -6 -5l16 -23q-12 -10 -21.5 -17.5t-16.5 -12.5h-138q-6 2 -8 7q-3 1 -3 5zM430 622q-3 1 -3 5l-7 10h-1q-8 3 -10 7t-3 8h1q-5 3 -6 7q-7 7 -4 14h207q-3 -2 -6 -5l16 -23q-12 -10 -21.5 -17.5t-16.5 -12.5h-138q-6 2 -8 7zM864 732l-2 -6
l15 -22l-5 -14q0 -2 -1 -6.5t-2 -6.5h-212l-15 22h-3l-3 -9q0 -2 -1 -6.5t-2 -6.5h-212l-15 22h-6q3 10 6 17t9 16h213l-2 -6l13 -19q3 11 12 25h213zM401 158h123l32 98h10l-3 4h-6l19 56h13l-5 7h-6l17 52h17l-8 11h-6l16 49h19l-8 13h-6l15 46h23l-12 17h-6l14 43h301
l-2 -6l15 -22l-12 -37h-22v-1l14 -22l-13 -40h-19l13 -19l-14 -43h-17l12 -17l-15 -46h-13l9 -13l-17 -50h-10l7 -10l-17 -53h-6l4 -6l-18 -56h-4l2 -4l-46 -142h-604q-11 0 -20.5 2t-19.5 7l-7 11h-11q-7 5 -13.5 11t-11.5 14q-26 21 -39 66h2q-2 26 5 45l43 133h10l-3 4
h-6l19 56h13l-5 7h-6l17 52h17l-8 11h-6l16 49h19l-8 13h-6l15 46h23l-12 17h-6l14 43h302l-2 -6l15 -22l-12 -37h-22v-1l14 -22l-13 -40h-19l13 -19l-14 -43h-17l12 -17l-15 -46h-13l9 -13l-17 -50h-10l7 -10l-17 -53h-6l4 -6zM726 781q-12 -5 -18 -8h121q-3 2 -5.5 4
t-5.5 4h-92zM490 781q-12 -5 -18 -8h121q-3 2 -5.5 4t-5.5 4h-92zM560 648q5 3 9 6.5t9 7.5h-162q2 -4 3.5 -7.5t6.5 -6.5h134zM796 648q5 3 9 6.5t9 7.5h-162q2 -4 3.5 -7.5t6.5 -6.5h134zM419 721q-3 -4 -4 -11h196q1 3 1 5q0 3 1 6h-194zM655 721q-3 -4 -4 -11h196
q1 3 1 5q0 3 1 6h-194zM763 0l2 7h-633q14 -7 35 -7h596zM933 522l6 21h-279l-6 -21h279zM487 522l6 21h-280l-6 -21h280zM912 459l8 24h-279l-8 -24h279zM466 459l8 24h-280l-8 -24h280zM892 397l9 27h-279l-9 -27h279zM446 397l9 27h-280l-9 -27h280zM872 334l9 30h-279
l-9 -30h279zM426 334l9 30h-280l-9 -30h280zM851 271l11 34h-279l-11 -34h279zM405 271l11 34h-280l-11 -34h280zM831 208l12 37h-279l-12 -37h279zM385 208l12 37h-280l-12 -37h280zM377 186h-280l-13 -40h726l13 40h-279l-12 -39h-146q-11 0 -11.5 8.5t-2.5 14.5zM790 83
l14 43h-726l-1 -3q-7 -20 -4 -40h717zM769 20l16 47h-708q9 -28 33 -47h659z" />
    <glyph glyph-name="FL00DDh" unicode="&#xdd;" horiz-adv-x="787" 
d="M609 781q0 1 6 6q1 2 2.5 2.5t3.5 2.5h88l21 -30h-4l14 -22h-128l-14 22h-9zM529 637h-4q-5 11 -7 20.5t-1 15.5h156l-6 -5l16 -23l-36 -30h-103zM527 699h-10q25 19 28 22l2 1q0 1 2 3q1 3 7 7h170l-4 -6l16 -22l-10 -15q-2 -6 -10 -12h-176zM567 361l13 14h17l-8 11h-6
l16 49h19l-8 13h-6l15 46h23l-12 17h-6l14 43h303l-2 -6l15 -22l-12 -37h-22v-1l14 -22l-13 -40h-19l13 -19l-14 -43h-17l12 -17l-15 -46h-13l9 -13l-17 -50h-10l7 -10l-17 -53h-6l4 -6l-18 -56h-3l2 -4q-2 -4 -5.5 -12t-5.5 -11q-5 -8 -8 -15.5t-14 -20.5h1
q-32 -42 -67 -63h-21v-10q-24 -10 -49 -10h-602l-15 22h-6l55 169h402q22 1 30 17h-280q-20 3 -39.5 16.5t-36.5 36.5l-4 6q-5 5 -9.5 10.5t-9.5 11.5h8l-3 4h-4q-5 13 -6.5 27.5t-0.5 28.5h13l-5 7h-6l17 52h17l-8 11h-6l16 49h19l-8 13h-6l15 46h23l-12 17h-6l14 43h302
l-2 -6l15 -22l-12 -37h-22v-1l14 -22l-13 -40h-19l13 -19l-14 -43h-16l1 -3h2h112zM614 773h92l-3 5l-2 3h-78q-2 -1 -2.5 -2t-2.5 -2zM630 648l16 14h-117q0 -2 0.5 -5.5t3.5 -8.5h97zM700 710q3 3 3 4q1 2 1 3q0 2 2 4h-148q-3 -3 -5 -6t-5 -5h152zM636 0q25 0 40 7h-632
l-2 -7h594zM487 522l6 21h-280l-6 -21h280zM920 522l6 21h-281l-6 -21h281zM466 459l8 24h-280l-8 -24h280zM899 459l8 24h-281l-8 -24h281zM446 397l9 27h-280l-9 -27h280zM879 397l9 27h-281l-9 -27h281zM90 147l-1 -1h708l13 40h-281v-2q-7 -20 -17 -27.5t-31 -9.5h-391z
M452 350q-8 0 -10 4.5t-3 9.5h-284l-9 -30h713l9 30h-285q-5 -5 -10 -9.5t-9 -4.5h-112zM818 208l12 37h-670q11 -15 27 -24.5t34 -12.5h597zM838 271l11 34h-709q0 -8 1 -17t4 -17h693zM83 126l-14 -43h698q7 10 12 20.5t11 22.5h-707zM64 67l-16 -47h655q29 17 53 47h-692
z" />
    <glyph glyph-name="FL00DEh" unicode="&#xde;" 
d="M567 256l-3 4h-7q5 9 9.5 17t3.5 7q3 6 3 21h-124l-1 -4h-13l9 -13l-16 -49h98q11 0 28 17h13zM210 494l-12 17h-6l14 43h302l-2 -6l15 -22l-10 -32h288q16 -4 35 -16t39 -30h-6l14 -22h-8q2 -6 2 -7l9 -12q5 -13 5.5 -17t1.5 -9h1q-1 -1 0.5 -6t4.5 -10q-1 -1 0 -1h-13
l12 -17q-1 -5 -1 -11t-1 -10q-3 -10 -1 -25h-15l9 -13q0 -7 -1.5 -12t-3.5 -11l-3 -10q-1 -6 -9 -17h-9l7 -10q-5 -14 -12.5 -27t-14.5 -26h-6l4 -6q-10 -15 -20.5 -28.5t-24.5 -27.5h-5l2 -4q-59 -51 -112 -59h-313l-27 -83h-296l-15 22h-6l87 267h10l-3 4h-6l19 56h13
l-5 7h-6l17 52h17l-8 11h-6l16 49h19l-8 13h-6l15 46h23zM319 7h-280l-2 -7h280zM487 522l6 21h-280l-6 -21h280zM584 305q1 -6 0 -11.5t-3 -9.5q-2 -7 -6 -13h275q2 3 4 9l3 10q4 9 4 15h-277zM405 271l11 34h-280l-11 -34h280zM323 20l16 47h-280l-16 -47h280zM194 483
l-8 -24h654q-9 8 -20.5 14.5t-26.5 9.5h-599zM175 424l-9 -27h702q-2 7 -2.5 13.5t-3.5 13.5h-687zM564 338q5 0 12 -4h292q0 8 0.5 15t0.5 15h-714l-9 -30h280l1 4h137zM556 245q-19 -17 -34 -17h-131l6 17h-280l-12 -37h716q5 9 9.5 18l9.5 19h-284zM78 126l-14 -43h600
q50 8 91 43h-677zM97 186l-13 -40h691q9 9 17 19t15 21h-710z" />
    <glyph glyph-name="FL00DFh" unicode="&#xdf;" horiz-adv-x="739" 
d="M508 361q21 0 30 14h15l-3 4q-2 1 -4 1.5t-5 0.5h-67l-6 -17h-17l12 -17l-15 -46h-13l9 -13l-17 -50h-10l7 -10l-17 -53h-6l4 -6l-18 -56h-4l2 -4l-91 -280h-296l-14 22h-6l131 405h10l-3 4h-6l19 56h13l-5 7h-6l17 52h17l-8 11h-6l16 49h19l-8 13h-6l15 46h23l-12 17h-6
l14 43h595q8 -6 17 -16t20 -27h-4l15 -22h-6l1 -6l12 -17q2 -4 2.5 -9.5t1.5 -11.5q0 -2 1 -9.5t1 -9.5h-15l13 -19q0 -6 -1.5 -14.5t-2.5 -13.5q-1 -2 -2 -7.5t-2 -7.5h-17l12 -17q-2 -4 -6.5 -11.5t-6.5 -11.5v-1q-2 -4 -5.5 -9t-8.5 -13h-17l9 -13q-9 -11 -16.5 -17.5
t-13.5 -11.5q2 -3 4 -8t6 -13h-6l7 -10q2 -11 0.5 -24.5t-3.5 -28.5h-7l4 -6q0 -11 -3 -17l-6 -19q-1 -3 -2.5 -7t-6.5 -13h-3l2 -4q-8 -16 -16.5 -30t-21.5 -29q-19 -22 -38.5 -37.5t-39.5 -25.5h-28l-1 -12q-23 -8 -58 -8h-195l-15 22h-6l55 169h40q23 0 31 20h-36l-15 22
h-6l18 56h10l-3 4h-6l19 56h13l-5 7h-6l12 38h38zM366 7l-2 -7h187q30 0 51 7h-236zM281 -112h-280l-9 -26h280zM426 334l9 30h-280l-9 -30h280zM478 350l-5 -16h328q4 7 7.5 14.5t8.5 15.5h-275q-9 -14 -37 -14h-27zM405 271l11 34h-280l-11 -34h280zM385 208l12 37h-280
l-12 -37h280zM463 305l-11 -34h310q-2 4 -4 7t-4 7q6 4 12 8.5t12 11.5h-315zM364 146l13 40h-280l-13 -40h280zM488 186l-1 -5q-5 -14 -16 -24t-30 -10h-29l-1 -1h337q3 4 5 12l4 12l3 7q0 2 0.5 4.5t0.5 4.5h-273zM344 83l14 43h-280l-14 -43h280zM444 245l-11 -34h28
q12 0 20 -3h286q3 23 2 37h-325zM213 543l-6 -21h608q-4 5 -9.5 10.5t-12.5 10.5h-580zM323 20l16 47h-280l-16 -47h280zM303 -42l16 49h-280l-16 -49h280zM386 67l-16 -47h265q35 17 62 47h-311zM405 126l-14 -43h320q9 11 15.5 21.5t12.5 21.5h-334zM283 -105l17 53h-280
l-17 -53h280zM194 483l-8 -24h650q-1 6 -1.5 12t-2.5 12h-638zM830 397q2 7 3 13t2 14h-660l-9 -27h280l6 17h75q23 0 25 -17h278z" />
    <glyph glyph-name="FL00E0h" unicode="&#xe0;" horiz-adv-x="938" 
d="M707 295l2 6h-6zM924 788l7 -18l7 -9l9 -21h-121l-14 22h-8q12 15 15 18t8 7h1l6 5h87zM950 673q-2 -2 -4 -6l15 -22q-8 -11 -15 -18.5t-10 -11.5h-104l-15 22h-4l-19 36h156zM947 732q2 -3 2.5 -6.5t2.5 -7.5l10 -14q2 -5 4 -12t4 -15h-173l-15 22h-5q0 6 1 12.5t6 20.5
h163zM7 -12h-9l23 21l10 9l58 54l72 65l65 60l65 59h16l-3 4h-9l62 56h21l-5 7h-9l57 52h28l-8 11h-9l54 49h32l-8 13h-9l50 46h36l-12 17h-10q3 3 11.5 9t18 12.5t18 12.5t12.5 9h467l-2 -6l15 -22l-12 -37h-22v-1l14 -22l-13 -40h-19l13 -19l-14 -43h-17l12 -17l-15 -46
h-13l9 -13l-17 -50h-10l7 -10l-17 -53h-6l4 -6l-18 -56h-4l2 -4l-46 -142h-295l-15 22h-6l87 267h10l-3 4h-6l6 18l-43 -40h-17l7 -10l-57 -53h-11l4 -6l-58 -56h-8l2 -4l-61 -59l-64 -59l1 -1l-26 -24h-348zM913 781h-77l-4 -3q-3 -2 -4 -2.5t-3 -2.5h92l-2 4zM813 662
l8 -14h97q3 3 6 6.5t6 7.5h-117zM791 721q-1 -3 -1 -11h153q-1 2 -2 4.5t-3 6.5h-147zM903 7h-279l-2 -7h279zM352 -1l8 8h-328l-8 -8h328zM989 271l11 34h-279l-11 -34h279zM1071 522l6 21h-452q-8 -5 -15 -10.5t-14 -10.5h475zM969 208l12 37h-279l-12 -37h279zM640 271
l36 34h-318l-37 -34h319zM948 146l13 40h-279l-13 -40h279zM573 208l40 37h-320l-41 -37h321zM928 83l14 43h-279l-14 -43h279zM1050 459l8 24h-506l-26 -24h524zM507 146l42 40h-322l-43 -40h323zM907 20l16 47h-279l-16 -47h279zM441 83l45 43h-324l-47 -43h326zM1030 397
l9 27h-551l-30 -27h572zM373 20l51 47h-326l-52 -47h327zM1010 334l9 30h-597l-32 -30h317q5 5 7 6.5t7 1.5q2 -2 6 -4t4 -3v-1h279z" />
    <glyph glyph-name="FL00E1h" unicode="&#xe1;" horiz-adv-x="938" 
d="M707 295l2 6h-6zM1000 762l14 -22h-128l-14 22h-9l20 19q0 1 7 7l5 4h88l21 -30h-4zM803 637h-4q-5 11 -7 20.5t-1 15.5h156l-6 -5l16 -23l-36 -30h-103zM1000 732l-4 -6l16 -22l-10 -15q-2 -6 -10 -12h-176l-15 22h-10q25 19 28 22l2 1q0 1 2 3q1 3 7 7h170zM7 -12h-9
l23 21l10 9l58 54l72 65l65 60l65 59h16l-3 4h-9l62 56h21l-5 7h-9l57 52h28l-8 11h-9l54 49h32l-8 13h-9l50 46h36l-12 17h-10q3 3 11.5 9t18 12.5t18 12.5t12.5 9h467l-2 -6l15 -22l-12 -37h-22v-1l14 -22l-13 -40h-19l13 -19l-14 -43h-17l12 -17l-15 -46h-13l9 -13
l-17 -50h-10l7 -10l-17 -53h-6l4 -6l-18 -56h-4l2 -4l-46 -142h-295l-15 22h-6l87 267h10l-3 4h-6l6 18l-43 -40h-17l7 -10l-57 -53h-11l4 -6l-58 -56h-8l2 -4l-61 -59l-64 -59l1 -1l-26 -24h-348zM980 773l-3 5l-2 3h-78q-2 -1 -2.5 -2t-2.5 -2l-4 -4h92zM904 648l16 14
h-117q0 -2 0.5 -5.5t3.5 -8.5h97zM832 721q-3 -3 -5 -6t-5 -5h152q3 3 3 4q1 2 1 3q0 2 2 4h-148zM903 7h-279l-2 -7h279zM352 -1l8 8h-328l-8 -8h328zM989 271l11 34h-279l-11 -34h279zM1071 522l6 21h-452q-8 -5 -15 -10.5t-14 -10.5h475zM969 208l12 37h-279l-12 -37h279
zM640 271l36 34h-318l-37 -34h319zM948 146l13 40h-279l-13 -40h279zM573 208l40 37h-320l-41 -37h321zM928 83l14 43h-279l-14 -43h279zM1050 459l8 24h-506l-26 -24h524zM507 146l42 40h-322l-43 -40h323zM907 20l16 47h-279l-16 -47h279zM441 83l45 43h-324l-47 -43h326z
M1030 397l9 27h-551l-30 -27h572zM373 20l51 47h-326l-52 -47h327zM1010 334l9 30h-597l-32 -30h317q5 5 7 6.5t7 1.5q2 -2 6 -4t4 -3v-1h279z" />
    <glyph glyph-name="FL00E2h" unicode="&#xe2;" horiz-adv-x="938" 
d="M707 295l2 6h-6zM870 668l9 -14l-6 17zM787 762h-9l32 30h204l8 -17l7 -11l10 -24h-238zM719 699h-9l35 33h296l5 -15l10 -13l10 -27h-332zM651 637h-9l38 36h388l4 -13l11 -15l11 -30h-189l-15 22h-4l-3 6l-28 -28h-189zM7 -12h-9l23 21l10 9l58 54l72 65l65 60l65 59
h16l-3 4h-9l62 56h21l-5 7h-9l57 52h28l-8 11h-9l54 49h32l-8 13h-9l50 46h36l-12 17h-10q3 3 11.5 9t18 12.5t18 12.5t12.5 9h467l-2 -6l15 -22l-12 -37h-22v-1l14 -22l-13 -40h-19l13 -19l-14 -43h-17l12 -17l-15 -46h-13l9 -13l-17 -50h-10l7 -10l-17 -53h-6l4 -6
l-18 -56h-4l2 -4l-46 -142h-295l-15 22h-6l87 267h10l-3 4h-6l6 18l-43 -40h-17l7 -10l-57 -53h-11l4 -6l-58 -56h-8l2 -4l-61 -59l-64 -59l1 -1l-26 -24h-348zM1009 773l-3 8h-194l-9 -8h206zM903 7h-279l-2 -7h279zM836 648l14 14h-168l-14 -14h168zM1064 648l-6 14h-168
l6 -14h168zM352 -1l8 8h-328l-8 -8h328zM1037 710l-5 11h-286l-11 -11h302zM989 271l11 34h-279l-11 -34h279zM1071 522l6 21h-452q-8 -5 -15 -10.5t-14 -10.5h475zM969 208l12 37h-279l-12 -37h279zM640 271l36 34h-318l-37 -34h319zM948 146l13 40h-279l-13 -40h279z
M573 208l40 37h-320l-41 -37h321zM928 83l14 43h-279l-14 -43h279zM1050 459l8 24h-506l-26 -24h524zM507 146l42 40h-322l-43 -40h323zM907 20l16 47h-279l-16 -47h279zM441 83l45 43h-324l-47 -43h326zM1030 397l9 27h-551l-30 -27h572zM373 20l51 47h-326l-52 -47h327z
M1010 334l9 30h-597l-32 -30h317q5 5 7 6.5t7 1.5q2 -2 6 -4t4 -3v-1h279z" />
    <glyph glyph-name="FL00E3h" unicode="&#xe3;" horiz-adv-x="938" 
d="M707 295l2 6h-6zM805 668l9 -14l-6 17zM723 762h-9l32 30h138l8 -17l7 -11l10 -24h-172zM927 762h-9l32 30h195l-5 -5l15 -23l-26 -24h-188zM655 699h-9l35 33h398l-6 -5l16 -23l-28 -27h-391zM587 637h-9l38 36h399l-6 -5l17 -23l-31 -30h-155l-15 22h-4l-3 6l-28 -28
h-188zM7 -12h-9l23 21l10 9l58 54l72 65l65 60l65 59h16l-3 4h-9l62 56h21l-5 7h-9l57 52h28l-8 11h-9l54 49h32l-8 13h-9l50 46h39l-12 17h-9q35 30 56 43h467l-2 -6l15 -22l-12 -37h-22v-1l14 -22l-13 -40h-19l13 -19l-14 -43h-17l12 -17l-15 -46h-13l9 -13l-17 -50h-10
l7 -10l-17 -53h-6l4 -6l-18 -56h-4l2 -4l-46 -142h-295l-15 22h-6l87 267h10l-3 4h-6l6 18l-43 -40h-17l7 -10l-57 -53h-11l4 -6l-58 -56h-8l2 -4l-61 -59l-64 -59l1 -1l-26 -24h-348zM879 773l-3 8h-128l-9 -8h140zM1111 773l9 8h-168l-9 -8h168zM903 7h-279l-2 -7h279z
M976 648l14 14h-165l6 -14h145zM771 648l14 14h-167l-14 -14h167zM360 7h-328l-8 -8h328zM1043 710l11 11h-372l-11 -11h372zM989 271l11 34h-279l-11 -34h279zM1071 522l6 21h-452l-16.5 -11t-12.5 -10h475zM969 208l12 37h-279l-12 -37h279zM640 271l36 34h-318l-37 -34
h319zM948 146l13 40h-279l-13 -40h279zM573 208l40 37h-320l-41 -37h321zM928 83l14 43h-279l-14 -43h279zM1050 459l8 24h-506l-26 -24h524zM507 146l42 40h-322l-43 -40h323zM907 20l16 47h-279l-16 -47h279zM441 83l45 43h-324l-47 -43h326zM1030 397l9 27h-551l-30 -27
h572zM373 20l51 47h-326l-52 -47h327zM721 342q2 -2 6 -4t4 -3v-1h279l9 30h-597l-32 -30h317q5 5 7 6.5t7 1.5z" />
    <glyph glyph-name="FL00E4h" unicode="&#xe4;" horiz-adv-x="938" 
d="M707 295l2 6h-6zM953 762h-12q23 14 35 20.5t20 9.5h99l2 -3l4 -2t9 -5l-3 -5l16 -22l-7 -15h-149zM717 762h-12q23 14 35 20.5t20 9.5h96q2 -1 4.5 -3t4.5 -3t3 -2t3 -2q-2 -4 4 -8l6 -6l-1 -3l16 -25h-165zM873 673q-3 -2 -6 -5l16 -23q-12 -10 -21.5 -17.5
t-16.5 -12.5h-138q-6 2 -8 7q-3 1 -3 5l-7 10h-1q-8 3 -10 7t-3 8h1q-5 3 -6 7q-7 7 -4 14h207zM1109 673q-3 -2 -6 -5l16 -23q-12 -10 -21.5 -17.5t-16.5 -12.5h-138q-6 2 -8 7q-3 1 -3 5l-7 10h-1q-8 3 -10 7t-3 8h1q-5 3 -6 7q-7 7 -4 14h207zM675 699h-6q3 10 6 17t9 16
h213l-2 -6l13 -19q3 11 12 25h213l-2 -6l15 -22l-5 -14q0 -2 -1 -6.5t-2 -6.5h-212l-15 22h-3l-3 -9q0 -2 -1 -6.5t-2 -6.5h-212zM7 -12h-9l23 21l10 9l58 54l72 65l65 60l65 59h16l-3 4h-9l62 56h21l-5 7h-9l57 52h28l-8 11h-9l54 49h32l-8 13h-9l50 46h36l-12 17h-10
q3 3 11.5 9t18 12.5t18 12.5t12.5 9h467l-2 -6l15 -22l-12 -37h-22v-1l14 -22l-13 -40h-19l13 -19l-14 -43h-17l12 -17l-15 -46h-13l9 -13l-17 -50h-10l7 -10l-17 -53h-6l4 -6l-18 -56h-4l2 -4l-46 -142h-295l-15 22h-6l87 267h10l-3 4h-6l6 18l-43 -40h-17l7 -10l-57 -53
h-11l4 -6l-58 -56h-8l2 -4l-61 -59l-64 -59l1 -1l-26 -24h-348zM862 773q-3 2 -5.5 4t-5.5 4h-92q-12 -5 -18 -8h121zM1099 773l-6 4l-6 4h-92q-12 -5 -18 -8h122zM903 7h-279l-2 -7h279zM921 662q2 -4 3.5 -7.5t6.5 -6.5h134q5 3 9 6.5t9 7.5h-162zM685 662q2 -4 3.5 -7.5
t6.5 -6.5h134q5 3 9 6.5t9 7.5h-162zM1116 710q1 3 1 5q0 3 1 6h-194q-3 -4 -4 -11h196zM880 710q1 3 1 5q0 3 1 6h-194q-3 -4 -4 -11h196zM352 -1l8 8h-328l-8 -8h328zM989 271l11 34h-279l-11 -34h279zM1071 522l6 21h-452q-8 -5 -15 -10.5t-14 -10.5h475zM969 208l12 37
h-279l-12 -37h279zM640 271l36 34h-318l-37 -34h319zM948 146l13 40h-279l-13 -40h279zM573 208l40 37h-320l-41 -37h321zM928 83l14 43h-279l-14 -43h279zM1050 459l8 24h-506l-26 -24h524zM507 146l42 40h-322l-43 -40h323zM907 20l16 47h-279l-16 -47h279zM441 83l45 43
h-324l-47 -43h326zM1030 397l9 27h-551l-30 -27h572zM373 20l51 47h-326l-52 -47h327zM1010 334l9 30h-597l-32 -30h317q5 5 7 6.5t7 1.5q2 -2 6 -4t4 -3v-1h279z" />
    <glyph glyph-name="FL00E5h" unicode="&#xe5;" horiz-adv-x="938" 
d="M707 295l2 6h-6zM964 792q2 -1 4.5 -3t4.5 -3t3 -2t3 -2q-2 -4 4 -8l6 -6l-1 -3l16 -25h-165l-14 22h-12q23 14 35 20.5t20 9.5h96zM807 622q-3 1 -3 5l-7 10h-1q-8 3 -10 7t-3 8h1q-5 3 -6 7q-7 7 -4 14h207q-3 -2 -6 -5l16 -23q-12 -10 -21.5 -17.5t-16.5 -12.5h-138
q-6 2 -8 7zM783 699h-6q3 10 6 17t9 16h213l-2 -6l15 -22l-5 -14q0 -2 -1 -6.5t-2 -6.5h-80l-15 22h-6q2 12 -19 30l-3 -2l16 -23q-23 -16 -26 -27h-79zM7 -12h-9l23 21l10 9l58 54l72 65l65 60l65 59h16l-3 4h-9l62 56h21l-5 7h-9l57 52h28l-8 11h-9l54 49h32l-8 13h-9
l50 46h39l-12 17h-9q35 30 56 43h467l-2 -6l15 -22l-12 -37h-22v-1l14 -22l-13 -40h-19l13 -19l-14 -43h-17l12 -17l-15 -46h-13l9 -13l-17 -50h-10l7 -10l-17 -53h-6l4 -6l-18 -56h-4l2 -4l-46 -142h-295l-15 22h-6l87 267h10l-3 4h-6l6 18l-43 -40h-17l7 -10l-57 -53h-11
l4 -6l-58 -56h-8l2 -4l-61 -59l-64 -59l1 -1l-26 -24h-348zM855 710q2 6 8 11h-67q-3 -4 -4 -11h63zM920 721q3 -2 3 -11h65q1 3 1 5q0 3 1 6h-70zM867 781q-12 -5 -18 -8h121q-3 2 -5.5 4t-5.5 4h-92zM903 7h-279l-2 -7h279zM937 648q5 3 9 6.5t9 7.5h-162q2 -4 3.5 -7.5
t6.5 -6.5h134zM360 7h-328l-8 -8h328zM989 271l11 34h-279l-11 -34h279zM1071 522l6 21h-452l-16.5 -11t-12.5 -10h475zM969 208l12 37h-279l-12 -37h279zM640 271l36 34h-318l-37 -34h319zM948 146l13 40h-279l-13 -40h279zM573 208l40 37h-320l-41 -37h321zM928 83l14 43
h-279l-14 -43h279zM1050 459l8 24h-506l-26 -24h524zM507 146l42 40h-322l-43 -40h323zM907 20l16 47h-279l-16 -47h279zM441 83l45 43h-324l-47 -43h326zM1030 397l9 27h-551l-30 -27h572zM373 20l51 47h-326l-52 -47h327zM721 342q2 -2 6 -4t4 -3v-1h279l9 30h-597
l-32 -30h317q5 5 7 6.5t7 1.5z" />
    <glyph glyph-name="FL00E6h" unicode="&#xe6;" horiz-adv-x="1305" 
d="M707 295l2 6h-6zM449 375l-8 11h-9l54 49h32l-8 13h-9l50 46h36l-12 17h-10q3 3 11.5 9t18 12.5t18 12.5t12.5 9h834l-2 -6l15 -22l-12 -37h-22v-1l14 -22l-13 -40h-19l13 -19l-8 -26h-350q-3 0 -9 -5t-11 -12h-12q2 -2 8 -2h346l-2 -6l15 -22l-11 -33h-13l9 -13l-17 -50
h-10l7 -10l-17 -53h-356l4 -6q-6 -5 -9.5 -7.5t-5.5 -3.5h339l-2 -6l15 -22l-5 -17h-4l2 -4l-46 -142h-662l-15 22h-6l87 267h10l-3 4h-6l6 18l-43 -40h-17l7 -10l-57 -53h-11l4 -6l-58 -56h-8l2 -4l-61 -59l-64 -59l1 -1l-26 -24h-348l-15 22h-9l23 21l10 9l58 54l72 65
l65 60l65 59h16l-3 4h-9l62 56h21l-5 7h-9l57 52h28zM352 -1l8 8h-328l-8 -8h328zM1270 7h-646l-2 -7h646zM640 271l36 34h-318l-37 -34h319zM573 208l40 37h-320l-41 -37h321zM682 186l-13 -40h646l1 1h-342q-2 0 -7 8.5t-7 14.5q1 1 1 3t1 4q0 4 3 7q0 1 1 2h-284z
M507 146l42 40h-322l-43 -40h323zM441 83l45 43h-324l-47 -43h326zM373 20l51 47h-326l-52 -47h327zM1438 522l6 21h-819q-8 -5 -15 -10.5t-14 -10.5h842zM1406 424h-918l-30 -27h578q5 7 12 12t13 5h342zM1417 459l8 24h-873l-26 -24h891zM1356 271l11 34h-646l-11 -34h646
zM1348 245h-646l-12 -37h303h1h342zM422 364l-32 -30h317q5 5 7 6.5t7 1.5q2 -2 6 -4t4 -3v-1h646l5 17h-335q-17 0 -20 13h-605zM1295 83l14 43h-646l-14 -43h646zM1274 20l16 47h-646l-16 -47h646z" />
    <glyph glyph-name="FL00E7h" unicode="&#xe7;" horiz-adv-x="717" 
d="M122 -13q-7 5 -13.5 11t-11.5 14q-26 21 -39 66h3q-2 26 5 45l43 133h10l-3 4h-6l19 56h13l-5 7h-6l17 52h17l-8 11h-6l16 49h23l-8 13h-8q8 12 16.5 23.5t17.5 22.5h35l-12 17h-11q26 18 42 28t25 15h584l-2 -6l15 -22l-12 -37h-22v-1l14 -22l-13 -40h-19l13 -19l-8 -26
h-350q-4 0 -9.5 -5t-10.5 -12h-16l12 -17l-15 -46h-13l9 -13l-17 -50h-10l7 -10l-17 -53h-6l4 -6l-4 -11h335l-2 -6l15 -22l-5 -17h-4l2 -4l-46 -142h-197l-51 -157h-232l-15 22h-6l42 127h83l2 8h-141q-20 0 -41 9l-7 11h-11zM426 334l9 30h-280l-9 -30h280zM463 -42l14 42
h197l2 7h-545q15 -7 36 -7h177l-14 -42h133zM405 271l11 34h-280l-11 -34h280zM441 -112h-216l-15 -45h216zM385 208l12 37h-280l-12 -37h280zM448 397q5 7 11.5 12t13.5 5h342l3 10h-643l-2 -6l-7 -21h282zM443 -105l17 53h-216l-17 -53h216zM377 186h-280l-13 -40h637l1 1
h-336q-8 0 -12 6.5t-2 16.5zM850 522l6 21h-569q-13 -7 -34 -21h597zM829 459l8 24h-626q-5 -6 -9 -12t-9 -12h636zM701 83l14 43h-637l-1 -3q-7 -20 -4 -40h628zM680 20l16 47h-620q9 -28 33 -47h571z" />
    </font>
</defs>
</svg>
