<?xml version="1.0" standalone="no"?>
<!DOCTYPE svg PUBLIC "-//W3C//DTD SVG 1.1//EN" "http://www.w3.org/Graphics/SVG/1.1/DTD/svg11.dtd" >
<svg xmlns="http://www.w3.org/2000/svg" xmlns:xlink="http://www.w3.org/1999/xlink" version="1.1">
<metadata></metadata>
<defs>
<font id="labritregular" horiz-adv-x="1438" >
<font-face units-per-em="2048" ascent="1638" descent="-410" />
<missing-glyph horiz-adv-x="512" />
<glyph horiz-adv-x="0" />
<glyph unicode="&#xd;" horiz-adv-x="1023" />
<glyph unicode=" "  horiz-adv-x="512" />
<glyph unicode="&#x09;" horiz-adv-x="512" />
<glyph unicode="&#xa0;" horiz-adv-x="512" />
<glyph unicode="!" horiz-adv-x="503" d="M15 362l64 42q72 46 72 134v677q0 181 267 268l63 21q-25 -10 -63.5 -50t-50.5 -65.5t-14 -84.5q4 -16 4 -56v-710q0 -74 -99 -114q-13 -5 -243 -62zM80 67v84q0 70 73 69h118q73 0 73 -69v-84q0 -69 -73 -69h-118q-73 0 -73 69z" />
<glyph unicode="&#x22;" horiz-adv-x="570" d="M15 1487l39 -21q169 -87 169 -265v-407q-130 9 -130 128v311q0 40 3 56q-2 60 -8 81q-6 20 -32 62q-27 44 -41 55zM340 794v407q0 179 168 265l40 21q-14 -10 -41 -55q-26 -42 -32 -62q-7 -22 -8 -81q3 -16 3 -56v-311q0 -119 -130 -128z" />
<glyph unicode="#" horiz-adv-x="899" d="M15 549l79 107h182l11 117h-250l80 105h180l26 250l98 -69l-18 -181h116l25 250l101 -69l-18 -181h250l-79 -105h-182l-11 -117h249l-79 -107h-181l-25 -250l-100 69l17 181h-116l-25 -250l-98 69l18 181h-250zM381 656h116l12 117h-117z" />
<glyph unicode="$" horiz-adv-x="1109" d="M15 -114q3 212 98 288q68 55 222 56q28 0 54 -3l3 491l-89 22q-245 90 -245 280q0 140 132 224q95 60 208 68q-3 50 -13 73q-9 21 -45 60q-39 43 -58 53l57 -20q159 -57 192 -171q184 -23 286 -141l-182 -149q-44 76 -92 125l1 -73l-1 -222l297 -82q246 -106 246 -330 q0 -152 -163 -296q-106 -94 -260 -226l-50 32q-26 17 -75 49v-45q0 -87 65 -132l59 -42q-136 36 -174 53q-99 43 -99 121v127q-54 15 -111 15q-107 0 -163 -40q-62 -45 -100 -165zM139 1083q0 -129 246 -193l8 -3l1 346q-24 5 -48 5q-80 0 -136 -32q-71 -41 -71 -123z M538 180l8 -4q39 -21 185 -138q274 203 274 334q0 177 -246 246q-140 39 -217 61z" />
<glyph unicode="%" horiz-adv-x="1861" d="M14 1077q0 -105 56 -190q113 -180 356 -180q242 0 350 207q49 94 49 208q0 117 -38 189q-72 125 -179 188l-26 -18l-125 -60l45 -18q141 -55 200 -201q19 -84 19 -116q0 -41 -19 -124q-26 -125 -125 -188q-37 -25 -110 -32q-231 0 -297 169q-32 92 -33 152q0 129 51 240 q31 64 115 104l146 70l-166 -39q-72 -19 -154 -103q-68 -70 -96 -157q-19 -53 -19 -101zM301 -27q118 33 184 50.5t76 21.5q113 45 149 121q117 231 201 400t142.5 289t95.5 199t60.5 129t36.5 77.5t25.5 47t28 37t39.5 46.5q78 88 166 125l-67 -25q-295 -98 -387 -280 l-533 -1053q-47 -90 -135 -139zM1026 381q0 -106 55 -189q117 -180 357 -180q244 0 350 205q51 94 51 209q0 117 -41 189q-72 127 -176 190l-26 -21l-128 -59l48 -18q139 -55 198 -201q18 -84 19 -115q0 -45 -19 -125q-27 -125 -123 -186q-39 -27 -112 -35q-236 0 -298 170 q-32 90 -32 151q0 123 53 240q28 65 113 107l145 68l-28 -7q-62 -14 -95.5 -22.5t-42.5 -9.5q-86 -29 -153 -103q-115 -121 -115 -258z" />
<glyph unicode="&#x26;" horiz-adv-x="1316" d="M14 266q0 -147 117 -235q102 -78 258 -78q279 0 534 238q66 -43 121.5 -94.5t89 -110t40.5 -122.5t-21 -135q-33 -82 -89 -117.5t-134 -35.5q-109 0 -167.5 73.5t-58.5 182.5q0 55 19 115l-39 16q-19 -61 -18 -127q0 -68 19 -127t60.5 -104t104.5 -62q104 -28 186 0.5 t138.5 90t87 144.5t32.5 163q6 53 -10.5 116.5t-48 122t-76.5 105.5t-94 69q115 191 146 400q-58 -119 -125.5 -225.5t-145.5 -200.5q-239 -286 -465 -287q-114 0 -182 76q-68 74 -68 188q0 178 180 313q111 80 195 139.5t142 98.5q180 137 180 325q0 119 -94 212 q-82 79 -207 110q-158 -145 -255.5 -236.5t-151.5 -143.5t-74.5 -73.5t-20.5 -27.5l2 -10q102 -92 166.5 -149.5t101.5 -89t51.5 -42t18.5 -10.5q-133 -61 -219.5 -125t-136.5 -123t-69.5 -111.5t-19.5 -95.5zM295 1112q66 66 125 120t112 97q21 12 45 12q68 0 133 -92 q62 -90 62 -170q0 -98 -162 -245q-4 -2 -28.5 16t-58 48t-71.5 64.5t-72 66.5t-57.5 54.5t-27.5 28.5z" />
<glyph unicode="'" horiz-adv-x="245" d="M15 794v407q0 179 168 265l40 21q-14 -10 -41 -55q-26 -42 -32 -62q-7 -22 -8 -81q3 -16 3 -56v-311q0 -119 -130 -128z" />
<glyph unicode="(" horiz-adv-x="627" d="M15 575q0 453 264 778q133 164 326 274l-70 -131q-108 -74 -159 -149q-40 -59 -91 -201q-78 -214 -78 -571q0 -339 71 -551q44 -132 104 -215q52 -71 153 -150l70 -138q-387 223 -524 639q-66 199 -66 415z" />
<glyph unicode=")" horiz-adv-x="627" d="M15 -479l70 138q101 79 153 150q60 82 104 215q71 213 71 551q0 355 -78 571q-52 144 -91 201q-51 75 -159 149l-70 131q193 -110 326 -274q264 -326 264 -778q0 -217 -65 -415q-137 -416 -525 -639z" />
<glyph unicode="*" horiz-adv-x="753" d="M15 1177l46 -23q36 -16 61 -16l171 6l-40 60q-24 36 -24 86q0 36 15 100l17 40q-9 -60 5 -108q3 -9 14 -27q5 -5 12 -16l70 -104l43 76q35 61 168 100l46 6q-60 -22 -98 -58q-7 -7 -17 -24q-2 -7 -9 -18l-62 -109l92 3q74 2 177 -86l29 -34q-51 38 -103 50q-9 2 -31 2 q-7 -2 -22 -2l-148 -4l86 -128q17 -26 8 -68q-1 8 -37 -103l-3 49q-2 37 -14 57l-100 149l-68 -119q-15 -27 -59 -42q6 4 -113 -21l43 26q33 20 45 41l89 155l-145 -4q-32 -1 -68 26q7 -3 -76 82z" />
<glyph unicode="+" horiz-adv-x="867" d="M15 666l69 105h293v362l105 -69v-293h362l-69 -105h-293v-362l-105 69v293h-362z" />
<glyph unicode="," horiz-adv-x="380" d="M14 -318q102 35 156.5 53.5t62.5 22.5q93 45 103 121l21 187v104q0 76 -72 76h-119q-74 0 -74 -76v-90q0 -76 74 -76h39l-5 -70q-4 -43 -44 -112q-39 -66 -80 -94z" />
<glyph unicode="-" horiz-adv-x="696" d="M14 395h613l69 107h-612z" />
<glyph unicode="." horiz-adv-x="301" d="M14 74q0 -76 74 -76h119q72 0 72 76v90q0 76 -72 75h-119q-74 0 -74 -75v-90z" />
<glyph unicode="/" horiz-adv-x="1157" d="M14 -27q113 33 172.5 50.5t69.5 21.5q109 47 141 121l508 1086q20 39 23 54q33 66 51 85q73 86 155 125l-65 -25q-273 -98 -359 -280l-493 -1053q-41 -90 -127 -139z" />
<glyph unicode="0" horiz-adv-x="841" d="M55 139q27 -10 61 -33.5t71.5 -52t75.5 -58.5t73 -53q39 41 98.5 75t124 58.5t124.5 38t101 13.5q8 105 2.5 214t-5.5 230q0 160 4 287t-7 223l-293 189q-125 -125 -223 -160q-111 -37 -207 -37q-2 -80 0.5 -199.5t3 -251t1.5 -259t-5 -224.5zM214 816q-3 110 7 208 q96 23 164 70l227 -117q10 -113 6.5 -216.5t-3.5 -217.5q0 -117 4 -211t-7 -170q-33 -2 -83 -17.5t-97 -44.5l-209 97q-10 70 -8 164t2 216q0 129 -3 239z" />
<glyph unicode="1" horiz-adv-x="851" d="M6 -41q0 -43 34 -82t87 -39q39 0 49 12q-19 -2 -41 8.5t-40.5 27t-31 38t-10.5 41.5q4 96 109 96q21 0 62.5 -9t87 -20.5t86 -20.5t63.5 -9q80 0 132 14.5t90 42t70.5 68.5t75.5 96q-121 -84 -214 -84q-21 0 -49 5.5t-66 23.5v1069q-98 -25 -163 -48.5t-108.5 -52 t-72.5 -64.5t-56 -85q10 10 56 39q35 22 81 31.5t93 5.5l-2 -842q-8 2 -23 2q-59 0 -113.5 -17.5t-95.5 -51t-65.5 -83t-24.5 -112.5z" />
<glyph unicode="2" horiz-adv-x="936" d="M14 -92q2 -58 27 -102t65.5 -72.5t93 -44t109.5 -15.5q47 -2 105.5 8.5t128.5 31.5l-27 24q-47 -16 -84 -20t-86 -4q-111 0 -184 42q-47 27 -75 57.5t-28 84.5q0 58 24.5 99.5t64.5 67t92.5 39t107.5 15.5q111 2 211 -33t217 -123l138 133q-33 35 -86.5 58.5t-115 39 t-122.5 22.5t-109 7q-119 -2 -207 -32.5t-160 -92.5q31 160 234 287q125 76 211 133.5t143.5 108.5t92 98t55.5 103q43 106 43 211q-139 0 -254 47t-219 155q-28 -45 -69.5 -92t-89.5 -88t-100.5 -71.5t-101.5 -43.5q60 -4 94.5 -6t45.5 -2q244 7 350 131q4 -10 22.5 -22.5 t41 -21.5t44 -15.5t29.5 -3.5q0 -113 -102 -258q-27 -37 -87.5 -100.5t-128 -133.5t-128 -133t-87.5 -101q-96 -133 -104 -258q-35 -58 -35 -114z" />
<glyph unicode="3" horiz-adv-x="880" d="M14 141q127 4 230 -35q127 -47 180 -133q150 121 389 150v377q-79 54 -138.5 94.5t-98.5 68.5q94 37 122 50q72 27 130 29v323q-248 47 -377 176q-152 -96 -166 -104q-82 -41 -195 -60q32 -61 201 -61q129 0 256 92l74 -43v-301q-41 -27 -73 -43.5t-60.5 -30.5 t-57.5 -29.5t-64 -37.5q152 -127 275 -195v-281l-103 -41q-111 105 -276 105q-180 0 -248 -70z" />
<glyph unicode="4" horiz-adv-x="1009" d="M39 414h555v-248q-73 -2 -143 -35t-123.5 -85t-86 -118.5t-32.5 -136.5q4 -119 71.5 -194.5t188.5 -79.5q86 -2 199 45l-23 33q-41 -22 -74.5 -33t-79.5 -11q-111 0 -172 65t-61 175q0 118 117 190q31 21 56.5 30t64.5 9q98 2 187 -45t193 -167l121 184q-16 19 -41.5 43 t-56.5 47t-64.5 42.5t-70.5 27.5v262h176v55h-176v692q-41 28 -71.5 54t-51.5 46l-602 -718v-129zM200 645l361 444l35 -38l-2 -582h-391q2 51 2 82v49t-1 28.5t-4 16.5z" />
<glyph unicode="5" horiz-adv-x="859" d="M14 121q125 4 230 -33q125 -45 180 -135q147 123 389 152v440q-104 79 -183 149t-145 117l-327 -123q27 99 41 201t18 215q62 -28 105 -48t72.5 -31t50 -17.5t34.5 -7.5q37 -7 80 -5t89.5 8t93.5 16.5t87 20.5q4 8 7.5 13.5t5.5 7.5q-14 10 -30 41.5t-31 67.5t-29.5 68 t-24.5 42q-49 -53 -99.5 -85t-96.5 -50.5t-83.5 -23.5t-60.5 -5q-16 0 -34.5 4.5t-43 12.5t-58.5 22t-83 37v-4l-4 4q-4 -168 -23.5 -308.5t-54.5 -256.5l-14 -43l272 104q51 -45 86 -76.5t65.5 -58.5t64.5 -51.5t81 -52.5v-320l-103 -43q-111 105 -276 105q-180 0 -248 -70 z" />
<glyph unicode="6" horiz-adv-x="872" d="M61 114q94 -47 162 -83.5t123 -71.5q258 131 457 203v510l-227 129q-76 -47 -119 -72t-76 -42t-65.5 -31.5t-85.5 -39.5l-3 416q92 33 131 62q99 -31 150 -31q80 0 132 14.5t90 42t70.5 68.5t75.5 96q-121 -84 -214 -84q-94 0 -177 61q-43 -45 -98 -78.5t-113.5 -60.5 t-115 -46t-97.5 -34v-928zM232 215v322q78 39 156.5 71.5t127.5 73.5l117 -98v-404q-82 -28 -164 -80z" />
<glyph unicode="7" horiz-adv-x="911" d="M-8 1094q61 -31 168 -55q70 -16 155.5 -13.5t170.5 19t161 44t127 60.5q-65 -55 -117.5 -106.5t-95.5 -109t-76.5 -126t-64.5 -154.5q-65 -188 -106.5 -301.5t-71 -181.5t-54 -103.5t-57.5 -68.5q-90 -100 -90 -205q0 -104 72 -188q112 -125 305 -123q108 2 272 55 l-33 41q-53 -22 -97 -32.5t-105 -12.5q-135 -4 -223 47q-129 70 -130 215q0 78 29 131.5t113 92.5q74 39 132 126t102 184t73 188t45 142q133 435 342 594l-12 35q-106 -61 -216 -97t-219.5 -40t-216 26.5t-204.5 102.5z" />
<glyph unicode="8" horiz-adv-x="897" d="M64 156q43 -26 91 -55t94 -57t89 -50t76 -37q152 123 389 151v375q-80 54 -139.5 96t-98.5 70q45 16 75 28.5t56.5 22t54 15.5t66.5 10q2 118 2 186v105v51v27q-168 76 -255 117.5t-101 49.5q-152 -123 -389 -151v-375q79 -53 138.5 -95t98.5 -71q-64 -24 -103.5 -38.5 t-66.5 -22.5t-44 -11t-33 -3v-338zM244 805v281l104 42q86 -41 151.5 -74.5t112.5 -58.5l-2 -247q-94 -27 -164 -76q-111 86 -202 133zM264 248v223q99 28 166 76q53 -41 103.5 -74t97.5 -59v-281l-102 -43q-131 78 -197 117t-68 41z" />
<glyph unicode="9" horiz-adv-x="851" d="M14 -80q121 84 216 84q92 0 175 -62q41 45 97.5 79t115 60.5t114 45.5t96.5 35v927q-94 47 -161 84.5t-122 71.5q-259 -131 -457 -203v-510l227 -128q73 47 114.5 76.5t73.5 48t65.5 31.5t93.5 28l-3 -408q-47 -16 -76.5 -33.5t-50.5 -33.5q-102 28 -149 28 q-80 0 -132 -14t-91 -41.5t-70.5 -69t-75.5 -96.5zM256 1024q82 27 166 80l240 -115l-3 -321q-80 -28 -144 -63.5t-111 -75.5l-146 92z" />
<glyph unicode=":" horiz-adv-x="301" d="M15 73v91q0 75 73 75h118q73 0 73 -75v-91q0 -75 -73 -75h-118q-73 0 -73 75zM15 823v91q0 75 73 75h118q73 0 73 -75v-91q0 -75 -73 -75h-118q-73 0 -73 75z" />
<glyph unicode=";" horiz-adv-x="380" d="M15 -325l62 46q37 27 78 93q44 70 47 113l3 70h-38q-73 0 -74 75v91q0 75 74 75h117q73 0 73 -75v-91v-11v-3l-21 -187q-8 -74 -103 -121q-15 -8 -218 -75zM88 823v91q0 75 74 75h117q73 0 73 -75v-91q0 -75 -73 -75h-117q-73 0 -74 75z" />
<glyph unicode="&#x3c;" horiz-adv-x="799" d="M15 669l1 2l-1 2l1 -1l77 171l684 219l-79 -175l-677 -216l677 -217l79 -174l-684 218l-77 171h-1zM16 669l5 2l-5 1v-1v-2z" />
<glyph unicode="=" horiz-adv-x="867" d="M15 549l69 107h760l-69 -107h-760zM15 773l69 105h760l-69 -105h-760z" />
<glyph unicode="&#x3e;" horiz-adv-x="799" d="M15 280l78 174l677 217l-677 216l-78 175l683 -219l77 -171l2 1l-1 -2l1 -2h-2l-77 -171zM770 671l5 -2l1 2l-1 1z" />
<glyph unicode="?" horiz-adv-x="760" d="M15 1077q138 247 385 247q176 0 287 -158q50 -72 50 -150q0 -194 -188 -289l-135 -69q-28 -14 -112 -107q-35 -38 -35 -219q-74 116 -73 202q2 113 91 195q48 44 127 99q106 73 132 93q101 79 101 183q0 93 -95 150q-42 25 -84 25q-119 0 -210 -117q-33 -43 -41 -59 q-6 -13 -28 -79zM147 73v91q0 75 74 75h118q73 0 72 -75v-91q0 -75 -72 -75h-118q-73 0 -74 75z" />
<glyph unicode="@" horiz-adv-x="1323" d="M15 594q0 36 5 73q18 118 94 231q145 218 410 308q128 43 257 43q241 0 391 -126q128 -107 128 -269q1 -38 -7 -80q-15 -89 -73 -176q-39 -59 -89 -103v-2q-68 -75 -164 -106q-36 -12 -122 -11q-39 0 -68 37l-2 -1q-32 38 -41 85l-1 2q-3 19 -3 39q0 11 1 23l-219 -149 q-136 28 -136 119q0 100 159 209q165 68 247 159l-26 25q-85 -45 -231 -45q-41 0 -72 7l2 44q21 -5 51 -5q81 0 183 33q113 37 162 89l80 -68l-58 -339q-10 -58 7 -97q31 -48 33 -50q15 -14 51 -14q33 0 84 19q56 21 73 46l65 98q39 73 47 132q3 25 3 48q0 215 -222 329 q-114 59 -240 57q-148 -1 -280 -68q-276 -141 -336 -483q-7 -38 -7 -74q0 -83 35 -156q53 -109 172 -172q109 -58 239 -60q187 -4 369 62q111 41 184 91q-64 -81 -271 -148q-182 -59 -291 -58q-256 0 -423 142q-150 128 -150 310zM495 626q-8 -44 29 -76q33 -28 79 -31 l137 92l42 240q-101 -94 -207 -129q-72 -51 -80 -96z" />
<glyph unicode="A" horiz-adv-x="1410" d="M-58 -176q2 -82 46 -146q82 -114 239 -118h8q92 0 217 45l-24 26q-92 -35 -189 -35q-106 0 -175 50q-90 60 -91 178q0 140 140 204q67 31 151 31h12q206 0 359 -135l45 -38l131 149q-62 55 -196 118q-108 25 -222 25q-19 -2 -37 -3t-34 -3l110 279h561 q29 -88 47.5 -141.5t30.5 -88.5t19.5 -55.5t15.5 -42t20.5 -49t30.5 -74.5h258q-125 94 -180 250q-99 279 -168.5 477.5t-117.5 334.5t-76.5 218t-45 127t-21.5 61.5t-7 20.5l-29 14l-512 -1341q-106 -24 -184 -90q-132 -112 -132 -242v-6zM487 612l230 611l215 -611h-445z " />
<glyph unicode="B" horiz-adv-x="1241" d="M33 -346q119 -141 344 -145h9q127 0 316 53l-36 34q-126 -42 -265 -42h-6q-150 0 -256 59q-127 74 -127 217q0 172 201 250q96 39 219 39h14q296 0 516 -166l66 -49l186 184l-45 35q-6 64 -6 113q0 4 1 12t1 41v102v193q0 165 -256 212v5q123 92 180 170q80 111 80 248 q0 55 -22 116q-58 145 -203 150h-5q-118 0 -226 -88q0 2 -50 2q-26 0 -106 34q-144 66 -225 66q-70 0 -132 -37q-137 -82 -147 -248q6 -80 47 -139l23 14q-32 53 -33 107q0 65 31 113q32 51 100 51q58 0 160 -51q62 -33 102 -42q-164 -78 -164 -220v-719q0 -65 -8 -90 q-6 -16 -16 -31q-76 -27 -137 -74q-191 -137 -191 -298q0 -102 66 -181zM426 244q53 66 53 139v678q0 82 11 119q16 53 65 79q80 10 162 76q125 80 159 80q76 0 101 -76q18 -47 18 -151q0 -351 -260 -424l-2 -35l164 47q108 -61 109 -205v-366q-16 8 -34 14t-36 14 q-70 13 -132 20t-124 8h-25l-99 -3q-62 -4 -130 -14z" />
<glyph unicode="C" horiz-adv-x="1222" d="M53 657v-9q0 -252 117 -429q174 -266 498 -266q338 0 551 324l-21 26q-49 -49 -95 -88t-95 -66.5t-103.5 -43t-120.5 -17.5h-20q-263 0 -414 207q-43 62 -71.5 133.5t-44 149t-19.5 156.5q-2 32 -2 63q0 47 4 94l512 447q67 -82 193 -83q114 20 170 70q61 53 89 123 l-9 20q-82 -53 -156 -53q-129 0 -180 49l-43 31l-549 -486q10 61 35.5 121t62.5 112t82 95t98 74l-2 27q-318 -154 -418 -488q-47 -158 -49 -293z" />
<glyph unicode="D" horiz-adv-x="1230" d="M-20 1485q61 -219 335 -219q14 0 56 8q45 6 51 4q-147 -47 -148 -217v-623q0 -108 -59 -143v-37q219 41 219 225v265v184v115v65t-1 29.5t-1 11.5q2 55 12 78q35 64 154 66q100 16 144.5 21t66.5 5q94 0 151.5 -55.5t61.5 -149.5q0 -102 1 -164.5t2 -100.5t1 -58v-33 q0 -319 -100 -553q152 133 207 352q39 154 39 412v184q0 121 -47 196q-88 131 -347 132q-31 0 -60.5 -2t-58.5 -6q-141 -22 -225 -36t-131 -20t-68.5 -8t-37.5 -2h-7q-137 0 -163 74h-47zM-16 -170q2 -101 57 -176q100 -141 297 -145h8q109 0 275 53l-31 34 q-112 -42 -228 -42h-5q-133 0 -224 59q-111 74 -111 217q0 174 175 250q84 39 190 39q59 0 121.5 -11.5t124.5 -33t117 -53t98 -68.5l57 -49l164 186q-78 67 -246 143q-141 29 -261 29h-15q-250 -4 -400 -129q-163 -135 -163 -294v-9z" />
<glyph unicode="E" horiz-adv-x="1271" d="M14 1077q0 -49 29 -100q8 -21 39 -31q6 -4 45 -12q-80 20 -80 161q0 127 105 195q82 51 205 51q55 0 190 -36l-35 -19q-146 -84 -146 -197v-698q0 -88 -55 -114l17 -44q201 90 201 240v266q119 94 237 95q68 0 133 -56q55 -45 74 -53l147 112q-88 117 -205 119h-16 q-29 0 -61 -5q-42 -7 -93 -21q-139 -41 -216 -113v183q0 73 0.5 117t3 67.5t5.5 35.5q15 43 50 72q13 -4 26 -7t27 -7q93 -26 155 -42.5t106 -26t75.5 -12.5t61.5 -3q121 35 165 78q57 55 96 176q-43 -63 -172 -63q-49 0 -137 14t-217 43q-197 43 -276 43h-7 q-182 -10 -313 -103q-164 -115 -164 -305zM125 -170q2 -101 57 -176q100 -141 297 -145h8q109 0 275 53l-31 34q-112 -42 -228 -42h-5q-133 0 -224 59q-110 73 -110 214q0 177 174 253q80 39 191 39q59 0 121.5 -11.5t123 -33t115.5 -53t100 -68.5l58 -49l164 186 q-78 67 -246 143q-141 29 -262 29h-15q-250 -4 -399 -129q-164 -136 -164 -295v-8z" />
<glyph unicode="F" horiz-adv-x="1087" d="M14 1077q0 -49 29 -100q8 -21 39 -31q8 -4 49 -12q-84 16 -84 161q0 127 105 195q82 51 205 51q76 0 284 -63q93 -26 155 -42.5t106 -26t75.5 -12.5t61.5 -3q121 35 165 78q57 55 96 176q-43 -63 -172 -63q-49 0 -137 14t-217 43q-197 43 -276 43h-7q-182 -10 -313 -103 q-164 -115 -164 -305zM125 -170q2 -101 57 -176q100 -141 297 -145h8q109 0 275 53l-31 34q-112 -42 -228 -42h-5q-133 0 -224 59q-110 73 -110 214q0 38 11 52.5t34 38.5q45 64 119 96q144 64 149 70q51 45 52 170v485q119 94 237 95q74 0 133 -56h1q6 0 59 66 q28 35 44.5 55.5t22.5 28.5q-43 25 -111 28q-8 0 -17 1q-30 0 -62 -6q-42 -7 -91 -21q-144 -41 -216 -113v123q0 51 0.5 86t3 56.5t5.5 35.5q16 47 52 74l-14 27l-64 -38q-146 -84 -146 -196v-764q0 -74 -26 -113q-13 -8 -25 -17t-26 -19q-51 -41 -82 -70t-41 -43 q-41 -51 -41 -122v-7z" />
<glyph unicode="G" horiz-adv-x="1446" d="M64 653q4 -305 231 -508q213 -192 483 -192q137 0 273 59q321 146 323 461v5q0 169 -127 294q-76 73 -181 103q-82 24 -168 24q-22 0 -46 -2q-109 -8 -207 -52t-162 -120l133 -187q64 70 111 111t91 65.5t91 36t113 23.5q153 0 178 -145q6 -32 6 -73q0 -29 -3 -62 q-7 -80 -28.5 -161t-58.5 -154t-86 -113q-86 -74 -234 -74q-528 0 -528 661q0 65 4.5 127t12.5 119l534 424q70 -59 150 -59q129 0 229 69l140 152q-113 -82 -218 -82q-92 0 -145 19.5t-84 70.5l-592 -506q64 309 274 420v43q-319 -164 -448 -485q-61 -147 -61 -290v-22z " />
<glyph unicode="H" horiz-adv-x="1435" d="M14 -145q0 -295 272 -295q90 0 220 35l-131 -19q-156 2 -225 41q-102 55 -103 215q0 199 209 203h6q121 0 273 -74l153 152q-137 57 -223 73q10 4 18 7.5t15 6.5q78 41 78 115v371h549l1 -520q0 -74 76 -113q33 -18 139 -51v31q-55 38 -55 122v11v1131q43 16 61 41v6 q75 49 128 161q-105 -86 -185 -86q-43 0 -131 41q-86 43 -131 43q-114 0 -182 -76q-64 -70 -64 -186q0 -58 39 -102q21 -21 55 -21q33 0 44 13h-3q-34 0 -73 41q-31 33 -31 73q7 96 94 96q41 0 127 -28q29 -10 51.5 -16.5t39.5 -10.5v-442h-549v211v126q0 47 2 68t6 33 q16 45 34 64q58 39 105 92q16 26 19 28l-19 27q-69 -69 -125 -69h-2q-49 0 -141 32q-105 37 -162 37q-154 0 -240 -149q-39 -71 -39 -127v-5q4 -112 99 -151l12 25q-78 61 -78 134q0 119 121 119q49 0 135 -32.5t140 -32.5q20 0 30 2q-58 -65 -57 -164v-797q0 -86 -47 -127 q-80 -10 -148 -38q-207 -90 -207 -295z" />
<glyph unicode="I" horiz-adv-x="716" d="M14 -137q0 -143 91 -197q58 -38 191 -38h7q78 0 193 12l-124 -5q-10 -2 -36 -1q-289 0 -289 206q0 96 70 154q55 45 145 49q125 0 279 -76l151 154q-137 57 -223 73q10 4 19.5 7.5t15.5 7.5q76 39 76 113v373v259v166q0 64 1 98.5t2 48t5 21.5q8 20 16 35.5t20 29.5 q75 80 124 150q-72 -71 -148 -71q-49 0 -141 32q-102 37 -162 37q-152 0 -239 -149q-39 -71 -39 -127v-5q6 -121 153 -165l-43 37q-78 72 -78 137q0 118 119 118h2q45 0 137 -34q86 -33 137 -33q10 0 31 4q-58 -70 -57 -164v-798q0 -84 -48 -125q-79 -10 -147 -39 q-211 -92 -211 -295z" />
<glyph unicode="J" horiz-adv-x="952" d="M14 -6q0 -146 131 -232q82 -53 220 -57h11q119 0 230 41q242 94 242 398v1150q0 55 16 92q20 22 39.5 48.5t38.5 54.5l-22 16q-83 -81 -162 -81h-2q-45 0 -135 38q-105 43 -187 43q-62 0 -129 -30q-164 -78 -164 -226q0 -72 33 -123q37 -57 105 -57v37q-102 16 -103 129 q0 127 139 127q45 0 76 -10q86 -35 137.5 -54.5t82 -26.5t46.5 -7q19 0 38 3q-4 -16 -5.5 -29t-1.5 -42v-1055q0 -391 -338 -391q-114 0 -184 45q-141 88 -141 266v15q-10 -45 -11 -82z" />
<glyph unicode="K" horiz-adv-x="1515" d="M14 -147q0 -144 91 -197q59 -39 198 -39q78 0 193 12l-124 -4h-36q-289 0 -289 205q0 98 70 156q53 43 145 47h12q117 0 267 -74l151 152q-137 58 -223 74q10 4 19.5 8t15.5 6q76 39 76 112v344l149 197l436 -801q31 -53 93 -53q16 0 26 2q15 4 51 4q24 0 58 -2h16 q56 0 90 12l-69 21q-58 35 -78.5 54t-30.5 38l-484 866l230 295q66 -53 147 -53q33 0 67 11.5t63.5 27.5t52 34.5t35.5 35.5q53 70 65 139l-14 18q-72 -68 -145 -80q-49 -10 -88 -10q-63 0 -103 25l-52 22l-515 -680v246v145q0 53 2 75t6 34q8 21 16 36t20 30q74 80 124 149 q-72 -72 -148 -72q-49 0 -141 33q-102 37 -162 37q-152 0 -239 -150q-39 -71 -39 -125v-5q6 -121 153 -166l-43 36q-78 72 -78 138q0 119 121 119q45 0 137 -35q86 -33 137 -33q10 0 31 4q-58 -70 -57 -164v-799q0 -84 -48 -125q-79 -10 -147 -39q-211 -92 -211 -294z" />
<glyph unicode="L" horiz-adv-x="1247" d="M14 1223q0 -53 41 -101q19 -22 56 -22q31 0 41 12h-3l-71 41q-31 30 -31 66v8q4 96 92 96q41 0 127 -28.5t127 -28.5h21q13 0 22 1q-71 -78 -71 -190v-770q0 -39 -23 -122q-28 -101 -59 -126q-136 -128 -136 -276q0 -102 56 -178q105 -139 299 -143h8q109 0 274 53 l-30 33q-114 -43 -236 -44q-131 0 -221 60q-112 73 -112 217q0 176 173 252q84 35 191 39q123 0 246 -45q127 -45 217 -123l55 -48l166 185q-41 35 -101.5 70.5t-144.5 74.5q-135 29 -261 29h-16q-135 -4 -245 -43q59 125 59 242v782q0 92 56 129q74 47 127 160 q-100 -82 -183 -82q-41 0 -133 41q-88 41 -131 41q-117 0 -180 -74q-66 -72 -66 -188z" />
<glyph unicode="M" horiz-adv-x="1847" d="M14 1157q66 102 117 138t105 36q108 0 190 -78v-1050q-111 -35 -193 -101q-163 -135 -163 -293v-9q4 -101 57 -177q102 -141 297 -145h6q187 0 336 121l-90 -33q-117 -43 -233 -43q-133 0 -224 59q-111 74 -111 218q0 174 175 249q80 39 190 39h12q286 0 568 -184 q2 -2 4 -2q10 0 32.5 22.5t46 51t43 57t25.5 39.5q-307 160 -553 160h-18q-41 0 -79 -4.5t-77 -12.5v997q29 -32 62.5 -76t68.5 -104q45 -71 115 -197t164 -313q39 -76 80 -150.5t86 -152.5l504 971l-3 -1037q0 -37 21.5 -64.5t60.5 -47.5q35 -21 138 -51v30q-55 39 -56 133 v1131q20 8 38 16.5t28 26.5q37 25 66.5 67t56.5 97q-102 -84 -183 -84q-41 0 -133 41q-86 43 -131 43q-114 0 -182 -76q-64 -70 -64 -186q0 -55 41 -103q19 -20 54 -20q33 0 43 12h-3q-34 0 -73 41q-29 33 -29 69q0 101 92 101q41 0 127 -29q16 -4 30 -9t28 -9l-422 -801 l-265 510q-258 502 -505 502q-147 0 -248 -147q-64 -94 -70 -189z" />
<glyph unicode="N" horiz-adv-x="1529" d="M14 1149q66 102 117 138t105 36q108 0 190 -78v-1051q-111 -35 -193 -100q-163 -135 -163 -294v-9q2 -101 57 -176q102 -141 297 -145q113 0 283 55l-31 32q-112 -42 -228 -42h-5q-133 0 -224 59q-111 74 -111 217q0 174 175 250q80 39 190 39h10q142 0 275 -53h4 q10 0 32.5 22.5t46 51t43 56.5t25.5 40q-72 14 -140 21q-53 5 -106 5h-30q-39 0 -77 -4t-79 -12v997q58 -60 131 -180q74 -114 141.5 -245.5t137 -266.5t140.5 -267t151 -249l106 -2l2 1290q86 10 119 60q72 49 125 159q-102 -84 -183 -84q-18 0 -55 13.5t-77 29t-75.5 28.5 t-53.5 13q-115 0 -183 -76q-66 -72 -66 -186q0 -55 42 -102q19 -21 55 -21q31 0 41 13h-3l-71 41q-31 30 -31 65v8q4 47 27 70t68 26q11 1 22 1q27 0 53 -7q36 -10 70.5 -22.5t63 -22.5t51.5 -8v-1043q-373 715 -388 744q-258 502 -505 502q-64 0 -119 -27 q-80 -39 -139 -129q-54 -88 -60 -180z" />
<glyph unicode="O" horiz-adv-x="1468" d="M55 684v-11q-1 -148 51 -277q54 -134 148 -233t219 -157q117 -54 248 -53h18q203 0 361 117q78 58 136 138.5t95 173.5q37 94 55 194q17 91 17 180v20q0 125 -19.5 222t-62.5 180t-112.5 157t-172.5 150h-30l-187 -107q108 -39 188 -110.5t133.5 -162.5t80 -194.5 t26.5 -206.5q0 -106 -22.5 -226t-73.5 -224t-135 -177t-207 -83q-38 -6 -74 -5q-95 1 -173 41q-106 56 -178.5 156t-108.5 226t-36 245q0 92 11.5 198t42.5 204t87 180t149 127l202 98q-201 -51 -231 -65q-100 -45 -182 -125t-140.5 -178.5t-90.5 -206t-32 -205.5z" />
<glyph unicode="P" horiz-adv-x="1267" d="M59 -295q82 -115 240 -119h15q91 0 210 43l-24 29q-92 -35 -189 -35q-104 0 -176 47q-90 61 -90 178q0 140 140 205q43 19 86.5 24t88.5 9q194 -6 344 -137l47 -39l132 151q-62 55 -197 119q-43 10 -86 15t-86 8q41 82 41 184v311v216q0 86 1 136t1 76q0 29 1 39t3 16 q8 27 26.5 46.5t43.5 33.5q82 10 159 77q123 81 162 81h1q43 0 66 -21.5t35.5 -55t15.5 -73.5t3 -79q0 -340 -262 -424l-168 -53q86 2 146.5 9t102.5 17t67.5 24.5t41.5 29.5q117 90 178.5 188t65.5 239q0 54 -15.5 102t-45 85t-72.5 59.5t-94 22.5q-123 0 -229 -88h-50 q-27 0 -106 35q-141 65 -223 65h-2q-70 0 -131 -37q-139 -84 -148 -247q2 -43 29 -101q27 -64 61 -88q-33 72 -43 106.5t-10 63.5q0 66 31 113q37 51 100 51q58 0 160 -51q61 -28 102 -41q-164 -78 -164 -222v-323t-1 -221t-1 -139q0 -49 -1 -76t-2 -36t-3 -14 q-8 -16 -18.5 -27.5t-24.5 -23.5q-139 -43 -199 -92q-131 -113 -131 -244q0 -82 45 -147z" />
<glyph unicode="Q" horiz-adv-x="1415" d="M43 684q0 -174 71 -332t205 -262q-87 -101 -87 -222q0 -97 57 -179q102 -141 299 -146q113 0 282 56l-30 32q-114 -43 -236 -43q-131 0 -221 60q-112 73 -112 217q0 119 89 196q164 -108 367 -108q170 0 307 82q31 -19 61 -47l58 -47l166 184q-28 27 -107 69 q96 129 136.5 272.5t42.5 309.5q0 223 -68 375q-41 90 -119 173t-211 161l-186 -107q84 -37 127 -64.5t72 -54.5q53 -49 95 -116.5t71.5 -141t46 -150.5t16.5 -147q0 -41 -6 -102t-18.5 -127.5t-31 -129t-45.5 -106.5q-86 37 -189 51q-62 9 -125 9q-41 0 -82 -3 q-103 -10 -196 -44.5t-161 -95.5q-37 43 -66 109.5t-48 139t-29.5 140t-10.5 112.5q0 260 88 488q25 61 70 110.5t100.5 89.5t116 69.5t117.5 49.5q-147 -14 -271 -84.5t-214 -178t-140.5 -242t-50.5 -275.5zM428 106q101 47 207 47h9q97 0 231 -42q47 -15 112 -50 q-65 -49 -191 -67q-237 0 -368 112z" />
<glyph unicode="R" horiz-adv-x="1339" d="M80 -344q121 -144 344 -146q131 0 325 56l-34 33q-133 -43 -271 -43q-156 0 -258 59q-127 74 -127 217q0 172 199 248q78 8 130 34.5t83 67.5t43 93.5t12 111.5v311t1.5 215.5t1.5 134.5q0 51 0.5 79t1.5 38t4 16q14 49 67 80q84 10 162 77q123 81 158 81h1 q43 0 68 -21.5t36.5 -54t14.5 -73.5t3 -80q0 -350 -263 -424l-137 -62l299 74q108 -61 109 -205q2 -156 2 -245v-136q0 -45 2 -63t8 -33q16 -41 45 -57q41 -20 87 -30.5t87 -10.5h16q9 0 17 2q-43 31 -75 79q-29 44 -28 80v7v420q0 166 -258 213v4q123 92 181 170 q80 113 80 247q0 51 -16.5 100.5t-45.5 86.5t-71 59.5t-93 22.5q-125 0 -231 -88q-53 0 -85 9t-71 26q-53 25 -99 42q-45 17 -89 23q-19 3 -37 3q-23 0 -47 -5q-40 -8 -83.5 -34.5t-77.5 -65.5t-51.5 -85.5t-17.5 -96.5q0 -49 23 -101q14 -33 31.5 -54.5t34.5 -33.5 q-33 72 -43.5 106.5t-10.5 63.5q0 64 31.5 114t99.5 50q58 0 160 -51q62 -28 102 -41q-164 -78 -164 -222v-718q0 -66 -8 -91q-6 -18 -25.5 -32.5t-43 -26.5t-47 -22.5t-37.5 -22.5q-191 -137 -191 -298q0 -102 66 -181z" />
<glyph unicode="S" horiz-adv-x="1247" d="M14 27q74 77 155 103q55 18 113 18q27 0 56 -4q88 -12 181 -57.5t194 -111.5l53 -34q105 94 187.5 158.5t139 124t87 127t32.5 165.5q0 125 -64.5 221.5t-193.5 143.5q-121 43 -249 76.5t-235 71.5t-179 86t-78 116q-1 8 -1 16q0 35 14 61q18 32 49.5 53t71.5 31.5 t83 10.5q168 0 307 -246l191 166q-66 82 -167.5 120t-236.5 42h-15q-79 1 -145 -19q-72 -22 -125 -64t-82.5 -102.5t-29.5 -136.5q0 -119 63.5 -199.5t194.5 -111.5q248 -57 395.5 -109.5t224 -101.5t99 -97t22.5 -98q0 -145 -289 -368q-64 74 -143 122q-78 48 -166 68 q-64 15 -129 16q-24 0 -48 -2q-89 -8 -171 -44q-127 -60 -166 -211z" />
<glyph unicode="T" horiz-adv-x="1351" d="M14 1077q0 -49 29 -100q8 -21 39 -31q8 -4 49 -12q-84 16 -84 161q0 127 105 195q82 51 205 51q76 0 284 -63q93 -26 155 -42.5t106 -26t75.5 -12.5t61.5 -3q121 35 165 78q57 55 96 176q-43 -63 -172 -63q-49 0 -137 14t-217 43q-197 43 -276 43h-7q-182 -10 -313 -103 q-164 -115 -164 -305zM147 553q4 -166 62 -285q154 -315 545 -315q358 0 552 369l23 75q-23 -37 -53.5 -72.5t-64.5 -70.5q-84 -80 -142 -107q-115 -47 -209 -55q-12 4 -20 4q-291 0 -447 258q-80 135 -84 341v11q0 93 33 199q62 188 190 291l64 63q-449 -202 -449 -699v-7z " />
<glyph unicode="U" horiz-adv-x="1603" d="M14 1235q0 -54 41 -101q19 -20 56 -20q31 0 41 12h-3q-34 0 -71 39q-31 35 -31 72q0 100 94 101q41 0 125 -32q86 -28 129 -28h27q14 0 27 2q-14 -21 -31 -45t-35 -57q-53 -92 -82 -194q-27 -96 -27 -205v-15q0 -141 3 -230.5t8.5 -142.5t11.5 -79.5t12 -40.5 q76 -160 236 -244q139 -72 295 -72q37 0 76.5 5t76.5 13t65 18.5t37 18.5q13 2 23 3t19 1h12q119 0 268 -73l152 151q-137 58 -223 74q22 10 32 16q78 41 78 113v360v246v152v81q0 29 -1 36.5t-1 9.5q2 28 4 48.5t6 32.5q16 43 37 64q76 84 123 150q-72 -72 -147 -72 q-43 0 -142 35q-105 34 -159 34h-3q-151 0 -239 -149q-39 -70 -39 -126v-5q6 -121 153 -166l-42 39q-78 72 -78 137q0 119 120 119q45 0 138 -35q86 -33 137 -33q21 0 30 2q-57 -66 -56 -163v-797q0 -86 -48 -127q-37 -4 -83 -17.5t-90 -28t-80.5 -23.5t-51.5 -5 q-227 2 -356 124t-142 397q-2 43 -5 106q-2 34 -2 71q-1 30 1 62q2 70 9.5 138.5t23.5 123.5q61 192 190 293q16 35 25.5 54.5t18.5 35.5q-10 -10 -22.5 -18.5t-22.5 -16.5q-14 -6 -26.5 -13t-25.5 -15q-43 -20 -86 -21q-43 0 -131 41q-86 43 -131 43q-115 0 -182 -75 q-66 -72 -66 -189z" />
<glyph unicode="V" horiz-adv-x="1267" d="M-19 1503q119 -96 172 -251l377 -1123q-22 -4 -24 -6q-135 -43 -191 -92q-124 -110 -124 -238v-10q0 -84 42 -146q76 -114 228 -118h8q91 0 209 43l-23 28q-89 -34 -175 -34h-5q-100 0 -172 47q-84 61 -84 180q0 139 133 205q37 16 67 22t60 6q31 0 62.5 -3t73.5 -5 q127 -27 237 -125l43 -39l127 152q-31 28 -78 57t-110 61q-37 8 -78 13.5t-86 7.5l405 1159q66 12 92 53q68 48 121 163q-100 -84 -176 -85q-39 0 -125 41q-84 43 -127 44q-111 0 -176 -78q-60 -72 -60 -187q0 -57 39 -102q19 -20 54 -21q28 0 39 12h-3q-32 0 -69 39 q-29 37 -29 72q0 100 90 101q39 0 121 -29t123 -29h23l-365 -1011q-82 245 -139 418t-95 289t-59.5 182.5t-33 103t-15.5 51t-6 23.5q-14 45 -28.5 84.5t-31.5 74.5h-258z" />
<glyph unicode="W" horiz-adv-x="1820" d="M-22 1491q117 -94 169 -248q86 -256 146.5 -436t101.5 -302t64.5 -194.5t38 -112.5t19.5 -56.5t9 -27.5q-8 -6 -18 -13t-21 -17q-153 -135 -153 -291v-10q4 -102 53 -176q96 -141 281 -145q108 0 266 55l-29 32q-109 -43 -221 -43q-125 0 -209 60q-106 70 -106 217 q0 170 163 248q78 35 181 39h11q243 0 423 -166l53 -48l158 185q-41 33 -105 73l408 1176q33 8 57.5 17.5t38.5 30.5q35 24 61.5 67t51.5 98q-94 -82 -172 -82q-39 0 -125 41t-123 41q-112 0 -174 -78q-57 -70 -57 -184q0 -55 36 -100q19 -21 54 -21q29 0 38 13h-6 q-32 0 -65 39q-27 36 -27 71q0 98 89 98q39 0 118 -28q39 -14 72 -21.5t71 -7.5l-356 -1005q-76 227 -128 386.5t-88 268t-56.5 175t-34 108t-21.5 67t-17 51t-22.5 62t-38.5 100.5h-251q117 -92 168 -248l108 -327l-227 -650q-90 274 -153.5 470t-107.5 330t-70.5 214 t-42 124t-22 59.5t-7.5 21.5h-254zM676 186l221 635l211 -633q-111 25 -227 25h-17q-113 -4 -188 -27z" />
<glyph unicode="X" horiz-adv-x="1282" d="M14 -59q0 -55 41 -103q19 -21 56 -20q31 0 41 12h-3l-71 41q-31 30 -31 66v8q4 96 92 96q43 0 127 -31q86 -29 127 -29q70 0 116 15.5t77.5 44.5t58.5 70t62 92q-102 -84 -183 -84q-31 0 -88 25l226 497l270 -520q58 -113 100 -117l121 -4q52 -2 82.5 -2t38.5 2 q-29 0 -107 90q-12 14 -25.5 30.5t-31.5 45t-46 77t-69.5 127.5t-100 193.5t-138.5 276.5l209 465q33 -29 96 -29h8q80 2 133 62q47 57 72 134l8 21q-102 -78 -141 -78q-58 0 -92.5 1t-61.5 40l-18 29l-250 -559q-71 147 -116.5 236.5t-73 140t-43 74.5t-27.5 38 q-58 70 -168 70q-53 0 -111 -31q-131 -70 -153 -235q35 33 57 54t36.5 32.5t23.5 16.5t16 7q20 4 70 4q92 0 165 -152l221 -462l-250 -545q-73 28 -106 29q-117 0 -180 -76q-66 -72 -66 -186z" />
<glyph unicode="Y" horiz-adv-x="1440" d="M-10 1159l35 68q80 111 184 111q72 0 127 -28t100 -71t79 -96.5t62 -106.5q51 -92 97.5 -179t89.5 -173v-219v-146v-89v-48q0 -14 1 -18l1 -4q-162 -16 -260 -102q-129 -115 -129 -249q4 -86 45 -145q80 -115 233 -119q88 0 224 45l-25 29q-90 -37 -184 -37 q-105 0 -174 49q-88 58 -88 178q0 140 135 205q67 31 152 31h10q99 0 189 -37q95 -39 206 -137l129 149q-59 58 -193 119q-53 14 -113 21v555l300 573q107 10 141 59q74 50 125 163q-49 -37 -84 -57t-69 -25q-11 -1 -22 -1q-23 0 -48 6q-37 9 -88 33q-86 43 -130 44 q-114 0 -181 -77q-62 -73 -62 -188q0 -20 5 -42t17.5 -40t30 -29.5t41.5 -11.5q31 0 41 12q-18 -2 -37.5 9.5t-35 29t-24.5 38t-7 38.5q6 96 92 97q41 0 127 -29q49 -18 86 -25l-252 -481q-35 78 -56.5 124t-27.5 58q-251 506 -502 506q-145 0 -244 -149q-63 -94 -69 -191z M1292 1421l2 3q0 -2 -2 -3z" />
<glyph unicode="Z" horiz-adv-x="1204" d="M41 -346q112 -141 331 -145h9q121 0 305 53l-35 34q-124 -42 -254 -42h-6q-67 0 -133.5 15t-119 48t-84.5 86t-32 127q0 174 193 250q87 37 185 42q20 1 40 1q77 1 154 -15q96 -20 184.5 -61t157.5 -94l64 -49l181 186q-78 65 -182 106q-103 42 -217 58q-75 11 -151 11 q-39 -1 -78 -3q-115 -8 -213 -39q45 41 98 115t104.5 156.5t93.5 165t66 141.5q199 475 451 647l-10 37q-278 -139 -520 -139q-54 0 -115.5 11t-121.5 31.5t-114.5 49t-95.5 63.5l-106 -202q27 -19 74.5 -36.5t102 -30.5t104.5 -20.5t83 -7.5q61 0 137 13.5t150.5 34 t137.5 43t97 40.5q-59 -43 -106 -82t-84 -73q-78 -74 -143.5 -168.5t-118.5 -210.5q-84 -180 -134.5 -288.5t-79 -168t-41.5 -84t-22 -37.5q-55 -80 -122 -139q-125 -119 -125 -250q0 -100 61 -180z" />
<glyph unicode="[" horiz-adv-x="300" d="M15 53v1150q0 106 53 165q46 52 153 90l57 20q-22 -10 -58 -49.5t-46.5 -64.5t-13.5 -84q4 -15 5 -56v-1337q0 -41 -5 -56q4 -84 61 -146q38 -42 57 -51l-57 20q-106 38 -152 89q-54 61 -54 166v144z" />
<glyph unicode="\" horiz-adv-x="1327" d="M14 1644q102 -47 183 -134q20 -22 55 -91q8 -25 27 -61l585 -1178q39 -80 162 -131q10 -4 80 -23t199 -54l-88 48q-100 58 -146 150l-567 1145q-102 199 -416 305z" />
<glyph unicode="]" horiz-adv-x="300" d="M15 -366q20 10 57 51q55 61 60 146q-4 15 -4 56v1337q0 41 4 56q-4 87 -58 147q-36 40 -59 51l57 -20q107 -38 153 -90q53 -60 52 -165v-1294q0 -105 -54 -166q-46 -51 -151 -89z" />
<glyph unicode="^" horiz-adv-x="531" d="M15 1217l166 281h165l162 -283h-69l-133 232q-10 -13 -17 -23l-129 -208z" />
<glyph unicode="_" horiz-adv-x="1440" d="M15 -650l69 105h1333l-69 -105h-1333z" />
<glyph unicode="`" horiz-adv-x="480" d="M15 1276l56 -1q239 -5 284 -102l103 -221q-61 -9 -90 -9q-89 1 -111 46l-78 169q-10 22 -10 31q-18 32 -31 42q-51 38 -123 45z" />
<glyph unicode="a" horiz-adv-x="772" d="M55 713l3 -623l155 -117q98 54 155.5 82.5t74.5 36.5l18 10q4 -16 8 -29.5t8 -25.5q19 -45 61 -94l211 170l-32 41l-64 -51q-31 43 -41 110v516l-223 129q-245 -135 -334 -155zM213 192v496q51 25 78.5 40t36.5 20l127 -89v-493l-3 -2v-4q-80 -37 -116 -62z" />
<glyph unicode="b" horiz-adv-x="684" d="M0 1147l88 45l2 -1090l98 -83q-96 -90 -122 -160q-24 -65 -23 -119v-8q2 -121 86 -191q76 -70 195 -70q96 0 198 46l-22 34q-82 -42 -168 -42h-4q-233 0 -234 223v5q0 85 64 157q28 28 50 47.5t36 33.5l2 -2q31 27 196.5 88.5t206.5 61.5v604l-162 125l-241 -195l2 696 q-67 -41 -128.5 -75.5t-119.5 -63.5v-67zM246 194v396l153 123l92 -66v-481q-72 -19 -128 -49z" />
<glyph unicode="c" horiz-adv-x="600" d="M0 676l16 -47l74 26v-563l162 -119l338 230l-29 41l-207 -130l-104 86v521l92 30l88 -79l127 70l-123 125z" />
<glyph unicode="d" horiz-adv-x="782" d="M67 90l156 -117l248 129q14 -22 24.5 -40.5t19.5 -37t20.5 -35.5t27.5 -36l197 170l-33 41l-64 -51q-31 43 -40 110v1006l104 -49v72l-246 86h-2l2 -3v-536l-82 68q-88 -49 -145 -80t-93 -46.5t-56.5 -20.5t-37.5 -5v-625zM223 192v474q114 47 162 76l80 -83v-493l-2 -2 v-4q-28 -8 -59.5 -18.5t-63.5 -22.5z" />
<glyph unicode="e" horiz-adv-x="614" d="M58 74l157 -101l361 242l-29 45l-228 -158l-104 64v141l400 266l-238 295q-153 -76 -233 -114.5t-86 -40.5v-639zM215 369v332q22 8 37.5 13t24.5 9l163 -201z" />
<glyph unicode="f" horiz-adv-x="601" d="M-64 -239q2 -41 7.5 -76t19.5 -64q70 -131 231 -135h7q84 0 192 45l-22 33q-84 -43 -172 -43q-111 0 -172.5 64.5t-61.5 175.5q0 47 21.5 89t57.5 73.5t82 50.5q42 16 85 16h10h11q54 0 92 -17v728q20 -8 36.5 -10.5t32.5 -4.5q28 -2 51 4t46.5 22.5t52 42.5t69.5 64 q-12 -8 -31.5 -15.5t-41 -12t-42 -7t-34.5 -2.5q-35 4 -66.5 22.5t-72.5 45.5v352q20 10 33.5 17.5t17.5 9.5l66.5 -38t60.5 -32l116 147l-161 87l-437 -354l7 -70l141 106v-164q-39 -6 -78 -38q-15 -16 -41.5 -49.5t-67.5 -80.5q66 35 90.5 43.5t39.5 8.5q27 0 57 -11 l-2 -688q-99 -53 -164.5 -142t-65.5 -193z" />
<glyph unicode="g" horiz-adv-x="718" d="M66 108l247 -116l142 78q86 -88 109.5 -165t23.5 -149q0 -58 -16.5 -112t-53.5 -95q-74 -84 -170 -84q-18 0 -37 3q-111 19 -161 93q-39 58 -39 135q0 21 3 44q15 84 74 162l-30 26q-82 -121 -82 -237q0 -102 64.5 -168t164.5 -84q38 -6 66 -6h8q31 0 58.5 7t56 23.5 t69.5 40.5q106 69 147 257q6 27 6 73q0 57 -9 141q-39 96 -80 162v588l-162 127q-22 -20 -121.5 -70.5t-277.5 -132.5v-541zM223 205v434q51 22 99.5 46.5t68.5 35.5l78 -66v-493l-51 -45z" />
<glyph unicode="h" horiz-adv-x="811" d="M-49 -479q88 -74 217 -74q245 0 287 293l-41 -2q-10 -114 -72 -182q-65 -78 -172 -78q-233 0 -237 237v6q0 150 102 226q61 43 217 84v577l153 123l93 -68v-481q6 -115 92 -209l205 171l-33 41l-64 -54q-53 78 -53 313q0 21 2 63t3 88t3 88t2 62l-161 125l-242 -196v696 q-67 -41 -129 -75t-117 -62v-70l90 48v-1103q-241 -94 -241 -378q0 -131 96 -209z" />
<glyph unicode="i" horiz-adv-x="411" d="M14 670l105 43v-513q10 -125 84 -210l201 170l-33 40l-64 -50q-31 43 -33 130v572l-258 -115zM55 1108l137 -155l136 151l-137 155z" />
<glyph unicode="j" horiz-adv-x="399" d="M-246 -286q0 -66 27.5 -120.5t77 -90t115.5 -47.5q25 -4 52 -4q42 0 88 11q105 29 180 107t95 213q6 31 6 80q0 56 -8 135q-51 129 -110 201l-3 653l-255 -115l-3 -67l103 43v-596l-5 -3q88 -106 121 -183.5t33 -151.5q0 -53 -17.5 -110.5t-53.5 -96.5q-74 -85 -169 -85 q-18 0 -38 3q-51 8 -92.5 33t-68 60.5t-36.5 81.5q-5 21 -5 43q0 26 7 54q16 88 72 162l-31 27q-82 -121 -82 -237zM55 1108l139 -155l134 151l-137 155z" />
<glyph unicode="k" horiz-adv-x="790" d="M-162 -301q0 -43 18.5 -87t53.5 -79q88 -88 242 -88h9q55 -1 101 21q49 24 88 65q36 41 54 96q15 45 15 119q0 16 -1 33l-37 -9q8 -25 8 -56q0 -78 -43 -130q-44 -54 -106 -78q-52 -20 -109 -20q-11 0 -23 1q-70 5 -127 40q-49 31 -64 86q-9 33 -9 68q0 23 4 47 q10 60 39.5 113.5t70.5 82.5q55 39 228 96l4 390l88 73q76 -65 127 -237q55 -187 121 -258l6 6h2l180 164l-33 41l-55 -47q-55 53 -119 205q-61 147 -133 212l228 224v69l-416 -371v895q-86 -51 -147.5 -85.5t-98.5 -53.5v-69l88 45v-1137q-111 -53 -180 -160 q-73 -108 -74 -227z" />
<glyph unicode="l" horiz-adv-x="372" d="M-123 -256q0 -35 8.5 -69.5t24.5 -59.5q47 -74 82 -102q39 -33 113 -56q62 -16 109 -16q17 0 32 2q61 8 107 42t75 81q45 70 45 168v22q0 13 -2 23l-39 -9q4 -23 4 -47q0 -54 -20 -106q-37 -90 -123 -125q-40 -14 -85 -13.5t-95 13.5q-113 33 -141 151q-6 25 -6 50 q0 37 14 75q61 160 268 232l59 20v1365q-58 -35 -118 -69t-128 -69v-69l89 45v-1094q-33 -15 -67 -35t-71 -47q-84 -106 -106 -161q-28 -80 -29 -142z" />
<glyph unicode="m" horiz-adv-x="1173" d="M0 680l35 -39l70 57q36 -40 36 -147v-6v-473l-121 -92l38 -47l241 173v429l152 161l51 -43v-663q8 10 160 115v448l159 142l55 -46l-1 -483q4 -60 27.5 -112t62.5 -95l208 170l-34 41l-62 -51q-19 25 -30 40t-13 19v576l-111 98l-261 -229v135l-124 98l-239 -250 q-4 100 -14 137q-19 64 -76 113z" />
<glyph unicode="n" horiz-adv-x="841" d="M4 680l35 -39l69 57q37 -41 37 -153v-473l-120 -92l36 -47l242 173v429l188 163l54 -45v-483q10 -121 86 -207l211 170l-33 41l-64 -51q-19 27 -31 41t-12 18v576l-110 98l-289 -250q-4 100 -14 137q-18 64 -76 113z" />
<glyph unicode="o" horiz-adv-x="616" d="M27 108l158 -135q149 62 397 199v549l-154 131q-117 -57 -216 -107t-185 -92v-545zM185 203v459q92 39 133 71l108 -88v-485q-84 -35 -117 -55z" />
<glyph unicode="p" horiz-adv-x="761" d="M14 674l35 -39l57 51q51 -54 52 -154v-923q-20 -19 -38 -43.5t-32 -56.5l25 -13q0 8 20 35q53 72 182 84v461q78 -51 144 -101q6 13 44 38.5t84 54t84 53t44 32.5l2 580l-162 119l-240 -215q-6 114 -100 215zM315 225v342l154 137l90 -65v-510q-31 -15 -55 -35z" />
<glyph unicode="q" horiz-adv-x="661" d="M43 82l164 -107l236 183v-482q-16 -14 -31 -36.5t-28 -46t-23.5 -45t-14.5 -33.5h47q22 43 59 73q68 62 152 78v1059l-147 127q-383 -182 -414 -205v-565zM200 172v485q47 22 88.5 43t76.5 37l81 -90v-417l-149 -117z" />
<glyph unicode="r" horiz-adv-x="634" d="M14 674l35 -41l64 53q47 -58 47 -154v-427q0 -47 18.5 -79t59.5 -53q53 -24 96 -40.5t72.5 -41t46 -62.5t16.5 -106q0 -84 -37 -135q-37 -52 -93 -72q-40 -14 -86 -14q-19 0 -39 2q-70 8 -138 41l-48 11q16 -16 40 -37t59 -35q70 -29 115 -29q123 0 196 76q35 39 56.5 93 t21.5 118q0 94 -50 172t-148 137v537l54 75q-2 -4 22 -23t51.5 -41.5t52 -42t26.5 -19.5q2 -2 17.5 21.5t33 53t33 53t15.5 19.5q-105 102 -174 168l-131 -176q-8 76 -95 176z" />
<glyph unicode="s" horiz-adv-x="747" d="M-4 -35q43 31 92 53q50 21 102 26q13 1 26 1q39 0 76 -11q50 -15 95 -59q84 47 156.5 87t136.5 75v326h-469v225q10 10 19 18.5t18 16.5q19 -16 48.5 -26.5t59 -18.5t53 -11.5t29.5 -3.5q72 0 141.5 47.5t124 115t85.5 143.5q25 62 25 113q0 11 -1 22q1 8 1 16 q0 46 -20 91q-22 53 -62 94.5t-91 67.5t-103 26q-92 0 -173 -70q-86 -70 -111 -162q43 68 127 125q88 64 160 64q90 0 157 -72q70 -70 70 -158q0 -76 -40 -152.5t-103.5 -127t-141.5 -56.5q-6 0 -13 -1q-71 0 -140 61q-22 -7 -67.5 -31t-90.5 -49t-81 -44t-38 -16v-335h465 v-238q-10 -4 -16 -7t-11 -5q-65 20 -145 20q-78 0 -149.5 -20t-127 -60t-73.5 -100zM254 1165v2v-2z" />
<glyph unicode="t" horiz-adv-x="600" d="M4 756q43 25 72.5 36t52.5 13t40 -2t34 -13v-313v-211v-127v-67q0 -21 1 -25l1 -4q-53 -35 -84 -68q-31 -35 -52.5 -60.5t-35 -51t-18.5 -56t-5 -73.5q4 -84 31 -139q72 -135 230 -138h7q82 0 189 45l-23 35q-41 -22 -77.5 -32.5t-81.5 -10.5q-111 0 -172.5 64.5 t-61.5 175.5q0 45 17.5 86t47 71.5t70.5 50t88 21.5q37 0 74 37q12 20 12 49l3 658q35 -10 53 -11q74 0 176 97l41 38q-12 -8 -31.5 -15t-41.5 -12t-41.5 -7t-33.5 -2q-19 4 -58.5 19t-63.5 36v375q-58 -35 -118 -69t-128 -69v-67l86 45v-142q-45 -4 -90 -38 q-15 -16 -41.5 -49t-67.5 -80zM633 831q2 1 4 3z" />
<glyph unicode="u" horiz-adv-x="880" d="M14 696l35 -41l62 52q27 -12 37 -34t12 -26v-575l108 -99l291 250q4 -101 12 -139q19 -64 76 -111l209 174l-33 41l-69 -57q-39 37 -39 154v444l122 92l-36 47l-242 -173v-400l-188 -164l-56 43v483q1 9 1 17q0 26 -10 48q-13 28 -33.5 53.5t-45 47t-42.5 44.5z" />
<glyph unicode="v" horiz-adv-x="718" d="M49 307l230 -329l325 348v403l123 92l-37 47l-244 -173v-445l-106 -119l-133 176v426l121 92l-37 48l-242 -175v-391z" />
<glyph unicode="w" horiz-adv-x="1140" d="M4 659l35 -41l61 52q16 -13 30 -29.5t17 -38.5l3 -518l163 -142l209 220v-78l187 -148l333 306l-2 489q78 119 78 301q0 154 -94 273q-102 127 -254 127q-117 0 -205 -70q-98 -72 -98 -185q0 -133 110 -263l27 30q-51 53 -73.5 101.5t-22.5 109.5q0 94 72 160 q69 63 160 63h3q72 0 123 -18.5t86 -71.5q34 -53 50 -123q12 -53 12 -107q0 -18 -1 -36q-5 -72 -28.5 -138.5t-67.5 -111.5q-14 -16 -22 -24.5t-12 -12.5v-547l-87 -92l-118 92v613l-158 -117v-424l2 -4l-137 -145l-80 77v430l-4 5q-10 121 -86 206z" />
<glyph unicode="x" horiz-adv-x="772" d="M37 721l35 -41l61 51l160 -305q-49 -16 -90 -56t-72 -91.5t-47.5 -108t-16.5 -104.5q0 -121 70 -197q70 -80 191 -80q99 0 196 45l-22 41q-41 -22 -84 -29.5t-88 -7.5q-66 0 -114 42t-66 102q-10 33 -11 68q1 28 7 56q14 64 71 111q13 13 148 78l173 -314l211 171l-32 40 l-64 -53l-170 295q47 18 89.5 59.5t73 92.5t47.5 107t17 106q0 121 -69 196q-72 80 -189 80q-96 0 -198 -45l23 -35q82 43 172 44q184 0 184 -216v-18q-4 -90 -80 -154q-41 -35 -143 -84l-162 324z" />
<glyph unicode="y" horiz-adv-x="776" d="M70 698l2 -626l110 -99l289 250q4 -101 12 -139q16 -53 47 -87t59.5 -71t50.5 -86q19 -43 19 -115v-20q-2 -55 -16 -104.5t-45 -91.5q-43 -60 -98 -81q-37 -15 -79 -15q-19 0 -40 3q-90 16 -144.5 72.5t-54.5 146.5q0 115 76 215l-28 27q-41 -62 -63.5 -129t-22.5 -125 q0 -100 64 -166.5t167 -85.5q26 -4 51 -4q71 0 135 34q86 46 143.5 128t79.5 187q9 46 9 92q0 58 -15 116q-58 145 -112 207q-39 39 -39 154v444l122 92l-36 47l-242 -173v-400l-188 -164l-53 43l-3 559l123 92l-37 48z" />
<glyph unicode="z" horiz-adv-x="784" d="M-43 -191q-2 -25 4 -6t20.5 54t35 73.5t49.5 55.5q126 74 238 74q44 0 84 -11q148 -39 261 -186l121 141q-144 174 -371 174q-105 0 -208 -49q143 190 242 328.5t164.5 237t102.5 162t55.5 106.5t22.5 69t4 51q0 111 -78 201q-83 92 -188 92h-2q-141 0 -275 -151l35 -21 q37 51 86.5 84t103.5 43q21 4 41 4q33 0 65 -10q52 -16 96 -64q39 -41 55 -90q12 -37 12 -76q0 -12 -1 -24q-5 -51 -29.5 -98t-65.5 -86q-102 -96 -219 -97q-119 0 -346 105l-33 -185q12 -10 56 -19t95.5 -16t96.5 -12.5t61 -5.5q96 0 190 47q-139 -186 -234 -315 t-159.5 -217t-100.5 -142.5t-54 -92t-24.5 -65.5t-8.5 -63z" />
<glyph unicode="{" horiz-adv-x="427" d="M15 526l59 42q65 46 65 133l-2 516q0 106 53 164q46 52 153 90l57 20q-22 -10 -58 -49.5t-46.5 -64t-12.5 -83.5q4 -14 4 -56l2 -548q0 -73 -91 -113q-12 -5 -183 -51zM20 526q171 -46 183 -51q91 -40 91 -112l-2 -548q0 -42 -4 -56q4 -84 60 -147q38 -42 57 -51l-57 21 q-107 38 -153 89q-53 60 -53 165l2 516q0 87 -65 133z" />
<glyph unicode="|" horiz-adv-x="284" d="M59 -266l156 -70v1769l-156 70v-1769z" />
<glyph unicode="}" horiz-adv-x="427" d="M15 -439q81 47 106 115q9 23 11 83q-4 14 -4 56l-2 548q0 73 91 112q12 5 183 51l-59 -41q-65 -46 -65 -133l1 -516q0 -106 -52 -165q-46 -52 -153 -89zM20 1491l57 -20q107 -38 153 -90q53 -60 52 -164l-2 -516q0 -87 66 -133l59 -42q-171 46 -183 51q-91 40 -91 113 l2 548q0 42 4 56q-4 85 -59 146q-37 42 -58 51z" />
<glyph unicode="~" horiz-adv-x="1006" d="M15 462q58 60 153 143q78 48 152 48q32 0 65 -9l102 -30l66 -24q18 -7 77 -29q82 -22 123 -23q30 -1 116 18q91 19 115 33l-65 -45q-159 -112 -281 -112q-71 0 -175 34l-123 41q-54 18 -109 17q-62 0 -120 -23zM374 496z" />
<glyph unicode="&#xa1;" horiz-adv-x="503" d="M15 -194q25 10 64 50q38 39 50 66q12 25 14 83q-4 16 -4 57v710q0 74 99 114q13 5 243 62l-65 -42q-72 -46 -71 -134v-678q0 -181 -268 -268zM152 1159v84q0 69 73 69h117q73 0 74 -69v-84q0 -70 -74 -70h-117q-73 0 -73 70z" />
<glyph unicode="&#xa2;" horiz-adv-x="626" d="M20 934l17 -47l74 27v-564l161 -118l13 7v-169l98 -70v305l227 156l-28 41l-207 -130l-104 87v520l92 30l88 -79l126 70l-122 125l-109 -50v213l-98 70v-326z" />
<glyph unicode="&#xa3;" horiz-adv-x="1315" d="M15 -166q-3 164 193 303q70 50 158 80q78 47 78 118l1 312h-89q-40 0 -56 5q-83 -3 -146 -60q-42 -38 -52 -57l21 57q87 244 265 244h58l1 255q1 141 225 289q159 106 294 105q96 0 277 -104l-199 -158q-10 97 -109 153q-48 28 -89 26q-88 -4 -147 -53q-64 -53 -64 -140 v-373h343q87 0 132 65l42 59q-56 -210 -61 -222q-40 -91 -113 -91h-344l-1 -175q-1 -143 -78 -213q64 7 122 8q160 2 325 -28q196 -75 290 -145l-194 -185l-67 48q-106 77 -259 123q-147 44 -283 43q-124 -1 -224 -39q-205 -77 -205 -250q0 -144 131 -217q106 -59 261 -59 q143 0 276 43l109 23q-192 -114 -405 -111q-230 3 -351 145q-65 76 -66 176z" />
<glyph unicode="&#xa4;" horiz-adv-x="1416" d="M15 553l69 108h144q1 57 10 116h-119l69 105h70q8 33 19 68q101 335 417 488l3 -27q-149 -88 -229 -257q-28 -60 -32 -71q-9 -24 -18 -73l549 486l42 -31q54 -49 181 -49q77 0 156 51l11 -20q-27 -67 -90 -123q-52 -45 -172 -69q-124 0 -192 82l-61 -49l-449 -397l-1 -9 h742l-69 -105h-677q1 -60 9 -116h628l-69 -108h-540q14 -57 33 -111q32 -86 77 -148q156 -214 433 -206q83 2 137 22q148 55 277 193l20 -27q-211 -323 -551 -323q-322 0 -497 267q-94 142 -112 333h-218z" />
<glyph unicode="&#xa5;" horiz-adv-x="1823" d="M15 1160q7 96 81 190q117 149 292 149q298 0 597 -505q7 -11 102 -182l299 480q-44 8 -103 25q-99 30 -150 29q-105 0 -110 -97q-2 -39 36 -75q45 -43 88 -40q-11 -13 -49 -12q-42 0 -65 21q-48 47 -48 101q0 125 84 198q79 67 206 66q54 0 155 -41.5t155 -41.5 q94 -1 215 83q-62 -112 -148 -160l1 -5q-44 -46 -168 -54l-302 -486h272q90 0 140 -74q7 -10 76 -183l-51 49q-55 53 -165 54h-327v-112h322q90 0 140 -74q7 -10 76 -182l-51 49q-56 53 -165 53h-322v-115h-1v-109q67 -5 135 -19q156 -62 231 -119l-155 -151l-53 40 q-183 138 -432 135q-99 -1 -178 -31q-163 -64 -163 -205q0 -118 104 -178q85 -49 208 -48q113 0 220 35l29 -28q-163 -45 -265 -44q-183 2 -279 119q-51 62 -53 144q-2 133 154 247q122 89 308 104q-1 5 0 10v100h-1v113h-219q-220 0 -329 201l-25 46q12 -16 67 -48 q78 -45 178 -48q20 3 70 3h258v112h-214q-222 0 -329 200l-25 47q14 -18 67 -49q77 -45 178 -47q20 3 70 3h179q-121 197 -148 233q-85 114 -155 182q-83 119 -284 118q-125 0 -221 -110zM1567 1420l3 3l-1 1z" />
<glyph unicode="&#xa6;" horiz-adv-x="142" d="M15 -44v678l105 -69v-678zM15 811v678l105 -69v-678z" />
<glyph unicode="&#xa7;" horiz-adv-x="815" d="M15 -72q88 179 363 178q99 0 132 -19q5 3 27 12v276h-421l7 4h-11v337h-4v370q127 68 294 161q92 -70 168 -69q45 0 116 21q83 25 106 58q-88 -179 -364 -179q-99 0 -132 19q-5 -3 -27 -11v-282h422l-7 -4h11v-338h4v-364q-127 -68 -294 -161q-92 70 -168 70 q-45 0 -116 -22q-83 -25 -106 -57zM272 712l1 -245h262l-2 245h-261z" />
<glyph unicode="&#xa8;" horiz-adv-x="565" d="M15 1143l95 123l97 -126l-94 -124zM350 1143l95 123l97 -126l-94 -124z" />
<glyph unicode="&#xa9;" horiz-adv-x="1558" d="M15 718q0 336 210 551.5t546 215.5q342 0 553 -212t211 -555q0 -330 -209 -547q-212 -219 -542 -218q-337 0 -553 214t-216 551zM140 718q0 -272 175 -459q179 -192 449 -195l7 4q283 3 460 184.5t177 465.5q0 287 -174 468q-177 184 -463 184q-276 0 -455 -189 q-176 -186 -176 -463zM300 672q1 90 36 190q77 218 320 318l2 -18q-113 -57 -175 -167q-22 -39 -25 -46q-7 -17 -13 -48l419 316l33 -20q42 -32 138 -32q59 0 119 33l9 -13q-21 -44 -69 -80q-40 -30 -131 -45q-95 0 -147 54l-47 -32l-343 -258q-4 -29 -4 -59q0 -124 47 -233 q25 -58 58 -96q121 -139 331 -134q61 1 105 14q111 33 211 125l17 -17q-162 -210 -422 -210q-246 0 -381 173q-91 117 -88 285z" />
<glyph unicode="&#xaa;" horiz-adv-x="605" d="M15 996q0 91 118 192q138 66 199 153l-19 18q-73 -43 -207 -43q-39 0 -74 7l-8 59q32 -8 57 -7q74 0 162 33q97 36 137 92l93 -74l1 -344q0 -62 27 -104l47 38l34 -40l-170 -132q-59 64 -69 146l-172 -144q-156 34 -156 150zM125 1068q0 -39 36 -69q33 -27 73 -32l108 90 v219q-75 -84 -161 -117q-56 -49 -56 -91z" />
<glyph unicode="&#xab;" horiz-adv-x="788" d="M15 662l1 2l-1 3l1 -1l137 176l306 213l-78 -185l-360 -206l360 -205l78 -186l-306 213l-137 177zM316 662l1 2l-1 3l2 -1l142 176l306 213l-79 -185l-364 -206l364 -205l79 -186l-306 213l-142 177z" />
<glyph unicode="&#xac;" horiz-adv-x="867" d="M15 666l69 105h760l-1 -1v-299l-105 69v126h-723z" />
<glyph unicode="&#xad;" horiz-adv-x="696" d="M14 395h613l69 107h-612z" />
<glyph unicode="&#xae;" horiz-adv-x="1558" d="M15 718q0 336 210 551.5t546 215.5q342 0 553 -212t211 -555q0 -330 -209 -547q-212 -219 -542 -218q-286 0 -483 169q-14 5 -19 16q-267 229 -267 580zM140 718q0 -239 163 -430q94 77 193 109q19 20 19 78v468q0 95 125 143q-36 8 -79 26q-82 34 -121 34 q-101 0 -101 -106q0 -38 25 -71l16 -40q-60 39 -68 123q8 107 111 160q48 25 102 25q64 0 172 -43q58 -23 81 -23h38q81 59 176 57q112 -1 156 -97q18 -40 18 -77q0 -88 -62 -161q-45 -53 -138 -110v-3q197 -31 196 -139v-273h1q10 -37 42 -86l27 -16q176 186 176 452 q0 287 -174 468q-177 184 -463 184q-276 0 -455 -189q-176 -186 -176 -463zM330 259q184 -192 434 -195l7 4q272 3 455 192h-9q-61 0 -123 26q-22 10 -34 37q-16 37 -19 43l-2 -1v3l1 266q1 93 -83 133l-229 -49l105 41q198 48 198 275q0 69 -13 100q-20 49 -78 49 q-26 0 -122 -53q-61 -43 -123 -49q-38 -19 -50 -52q-8 -22 -7 -78v-439q0 -64 -30 -114q-52 -89 -176 -86q-65 -21 -102 -53z" />
<glyph unicode="&#xb0;" horiz-adv-x="403" d="M15 847l59 41q65 46 65 133v10l-3 79q-4 105 43 156q38 44 145 82l57 20q-22 -10 -58 -49.5t-46.5 -64t-13.5 -83.5q2 -10 5 -56v-11l4 -38l-1 -72q-1 -73 -91 -113q-43 -7 -165 -34z" />
<glyph unicode="&#xb1;" horiz-adv-x="867" d="M15 157l69 105h760l-69 -105h-760zM15 666l69 105h293v362l105 -69v-293h362l-69 -105h-293v-362l-105 69v293h-362z" />
<glyph unicode="&#xb2;" horiz-adv-x="576" d="M15 690q-1 36 20 69q7 76 64 155q37 51 128 140t128 140q62 85 63 154q-16 -1 -45.5 12.5t-37.5 26.5q-64 -76 -210 -79q-14 -1 -84 4q124 33 216 177l15 -14q104 -106 270 -106q0 -147 -97 -236q-53 -49 -103 -80l-127 -77q-122 -75 -141 -172q8 8 22 18q75 55 198 57 q65 1 137 -12q83 -34 122 -64l-81 -81l-28 21q-97 74 -229 73q-53 0 -94 -17q-87 -34 -87 -109q0 -121 165 -121q60 0 117 19l15 -15q-83 -24 -140 -24q-97 1 -148 64q-27 33 -28 77z" />
<glyph unicode="&#xb3;" horiz-adv-x="525" d="M15 839q40 42 148 41q100 0 166 -63l62 25v169q-74 40 -165 116q37 27 70 50q27 19 82 35v181l-43 26q-76 -55 -155 -56q-100 0 -120 37q69 11 116 35q10 5 100 63q80 -78 226 -105v-195q-37 -2 -77 -17q-18 -7 -74 -29q47 -34 143 -99v-225q-142 -16 -234 -90 q-33 53 -108 80q-64 22 -137 21z" />
<glyph unicode="&#xb4;" horiz-adv-x="480" d="M-84 956l103 221q45 97 284 102l56 1q-72 -7 -123 -45q-14 -10 -31 -42q1 -9 -10 -31l-78 -169q-21 -45 -110 -46q-29 0 -91 9z" />
<glyph unicode="&#xb6;" horiz-adv-x="889" d="M15 1287q32 25 413 206h278l159 -126l2 -1540q-80 -15 -152 -78q-39 -35 -60 -73h-46q15 43 61 119q14 24 35 43l1 1515l-131 -4l1 -1522q-80 -15 -152 -78q-39 -35 -60 -73h-45q15 43 61 119q14 24 35 43l-1 960l-235 -182l-162 107z" />
<glyph unicode="&#xb7;" horiz-adv-x="301" d="M15 679v91q0 75 73 75h118q73 0 73 -75v-91q0 -75 -73 -75h-118q-73 0 -73 75z" />
<glyph unicode="&#xb8;" horiz-adv-x="487" d="M15 -353q131 -22 180 -22q82 0 121 32q12 9 12 31q0 119 -175 119l84 211h45l-60 -174q242 0 242 -143q0 -173 -247 -173q-94 0 -202 119z" />
<glyph unicode="&#xb9;" horiz-adv-x="526" d="M15 730q0 74 51 117q48 41 122 41q7 0 15 -1v505q-7 0 -18 1q-49 -2 -86 -24q-27 -16 -32 -24l12 23q44 85 124 99v3l102 26v-642q46 -16 69 -16q57 0 129 50q-37 -67 -88 -96v-3q-31 -33 -132 -33q-31 0 -90 17.5t-89 17.5q-62 0 -66 -58q-1 -23 21 -44q27 -26 53 -25 q-7 -8 -30 -7q-25 0 -39 13q-28 27 -28 60z" />
<glyph unicode="&#xba;" horiz-adv-x="2242" />
<glyph unicode="&#xbb;" horiz-adv-x="788" d="M15 273l78 186l365 205l-365 206l-78 185l305 -213l143 -176l1 1l-1 -3l1 -2l-1 1l-143 -177zM322 273l78 186l359 205l-359 206l-78 185l305 -213l137 -176l2 1l-1 -3l1 -2l-2 1l-137 -177z" />
<glyph unicode="&#xbc;" horiz-adv-x="1398" d="M15 730q0 74 51 117q48 41 122 41q7 0 15 -1v505q-7 0 -18 1q-49 -2 -86 -24q-27 -16 -32 -24l12 23q44 85 124 99v3l102 26v-642q46 -16 69 -16q57 0 129 50q-37 -67 -88 -96v-3q-31 -33 -132 -33q-31 0 -90 17.5t-89 17.5q-62 0 -66 -58q-1 -23 21 -44q27 -26 53 -25 q-7 -8 -30 -7q-25 0 -39 13q-28 27 -28 60zM94 -26l76 45q81 48 126 138l521 1053q98 197 332 281l64 24q-82 -37 -156 -124q-20 -24 -50 -84q-5 -22 -23 -57l-536 -1085q-38 -76 -141 -119q-33 -15 -213 -72zM801 318v78l361 431q25 -24 74 -60v-416l105 1v-33l-105 -1 v-158q15 -3 31 -7q73 -46 108 -88l-72 -111l-25 29q-88 102 -203 100q-47 -1 -84 -23q-70 -43 -70 -115q0 -144 141 -143q53 0 102 25l14 -20q-65 -28 -119 -27q-95 2 -137 82q-17 33 -18 83q-1 45 15 77q11 24 51 69q64 72 164 78v149h-333zM893 383q0 -8 5 -20q3 -8 0 -12 h236l3 350l-23 23l-216 -267q4 -17 0 -41z" />
<glyph unicode="&#xbd;" horiz-adv-x="1382" d="M15 730q0 74 51 117q48 41 122 41q7 0 15 -1v505q-7 0 -18 1q-49 -2 -86 -24q-27 -16 -32 -24l12 23q44 85 124 99v3l102 26v-642q46 -16 69 -16q57 0 129 50q-37 -67 -88 -96v-3q-31 -33 -132 -33q-31 0 -90 17.5t-89 17.5q-62 0 -66 -58q-1 -23 21 -44q27 -26 53 -25 q-7 -8 -30 -7q-25 0 -39 13q-28 27 -28 60zM94 -26l76 45q81 48 126 138l521 1053q98 197 332 281l64 24q-82 -37 -156 -124q-20 -24 -50 -84q-5 -22 -23 -57l-536 -1085q-38 -76 -141 -119q-33 -15 -213 -72zM821 -37q-1 36 20 70q7 76 64 154q37 51 128.5 140t128.5 141 q62 85 62 154q-15 -1 -45 12.5t-38 26.5q-64 -76 -209 -79q-14 -1 -85 4q124 33 217 177l14 -15q104 -106 270 -106q0 -147 -96 -236q-53 -49 -103 -79l-127 -77q-122 -75 -141 -172q8 8 22 17q75 55 197 57q65 1 137 -12q83 -33 122 -63l-81 -81l-28 21q-97 74 -229 72 q-53 0 -95 -16q-86 -34 -86 -110q0 -121 166 -120q60 0 116 18l15 -14q-83 -24 -140 -24q-97 1 -148 64q-27 33 -28 76z" />
<glyph unicode="&#xbe;" horiz-adv-x="1407" d="M15 839q40 42 148 41q100 0 166 -63l62 25v169q-74 40 -165 116q37 27 70 50q27 19 82 35v181l-43 26q-76 -55 -155 -56q-100 0 -120 37q69 11 116 35q10 5 100 63q80 -78 226 -105v-195q-37 -2 -77 -17q-18 -7 -74 -29q47 -34 143 -99v-225q-142 -16 -234 -90 q-33 53 -108 80q-64 22 -137 21zM103 -26l76 45q81 48 126 138l521 1053q97 197 332 281l64 24q-82 -37 -156 -124q-20 -24 -50 -84q-5 -22 -22 -57l-537 -1085q-38 -76 -140 -119q-33 -15 -214 -72zM810 318v78l361 431q25 -24 74 -60v-416l106 1v-33l-106 -1v-158 q15 -3 31 -7q73 -46 109 -88l-73 -111l-25 29q-88 102 -203 100q-47 -1 -84 -23q-70 -43 -70 -115q0 -144 140 -143q53 0 103 25l14 -20q-65 -28 -119 -27q-95 2 -137 82q-18 33 -18 83q-1 45 14 77q11 24 52 69q63 72 164 78v149h-333zM902 383q0 -8 5 -20q3 -8 0 -12h236 l3 350l-23 23l-216 -267q4 -17 0 -41z" />
<glyph unicode="&#xbf;" horiz-adv-x="760" d="M15 114q0 194 188 289l136 69q28 14 111 107q35 38 35 219q74 -116 73 -202q-2 -113 -91 -195q-48 -44 -127 -99q-106 -73 -132 -93q-101 -79 -101 -183q0 -93 95 -150q42 -25 84 -25q119 0 210 117q33 43 41 59q6 13 28 79l172 -53q-138 -247 -385 -247q-176 0 -287 158 q-50 72 -50 150zM341 966v91q0 75 73 75h117q73 0 74 -75v-91q0 -75 -74 -75h-117q-73 0 -73 75z" />
<glyph unicode="&#xc0;" d="M-56 -177q-2 134 131 248q76 65 184 91l511 1341l30 -14q9 -26 112 -320l324 -920q55 -155 179 -249h-268q-21 40 -63 158q-18 49 -43 136l-47 157h-562l-109 -278q34 4 71 4q113 2 221 -23q133 -62 197 -118l-132 -152l-45 40q-157 138 -369 136q-84 -1 -153 -32 q-140 -64 -139 -205q0 -118 90 -178q72 -48 177 -48q97 0 188 35l25 -28q-128 -45 -227 -44q-156 2 -238 119q-44 63 -45 144zM487 612h446l-215 611zM589 1902l56 -1q239 -5 285 -102l102 -221q-61 -9 -90 -9q-89 1 -110 46l-78 169q-10 22 -10 31q-18 32 -31 42 q-51 38 -124 45z" />
<glyph unicode="&#xc1;" d="M-56 -177q-2 134 131 248q76 65 184 91l511 1341l30 -14q9 -26 112 -320l324 -920q55 -155 179 -249h-268q-21 40 -63 158q-18 49 -43 136l-47 157h-562l-109 -278q34 4 71 4q113 2 221 -23q133 -62 197 -118l-132 -152l-45 40q-157 138 -369 136q-84 -1 -153 -32 q-140 -64 -139 -205q0 -118 90 -178q72 -48 177 -48q97 0 188 35l25 -28q-128 -45 -227 -44q-156 2 -238 119q-44 63 -45 144zM487 612h446l-215 611zM524 1582l103 221q45 97 284 102l56 1q-72 -7 -123 -45q-14 -10 -32 -42q1 -9 -10 -31l-78 -169q-21 -45 -110 -46 q-29 0 -90 9z" />
<glyph unicode="&#xc2;" d="M-56 -177q-2 134 131 248q76 65 184 91l511 1341l30 -14q9 -26 112 -320l324 -920q55 -155 179 -249h-268q-21 40 -63 158q-18 49 -43 136l-47 157h-562l-109 -278q34 4 71 4q113 2 221 -23q133 -62 197 -118l-132 -152l-45 40q-157 138 -369 136q-84 -1 -153 -32 q-140 -64 -139 -205q0 -118 90 -178q72 -48 177 -48q97 0 188 35l25 -28q-128 -45 -227 -44q-156 2 -238 119q-44 63 -45 144zM487 612h446l-215 611zM540 1590l167 282l164 -1l163 -282l-69 -1l-135 233q-9 -13 -16 -24l-129 -208z" />
<glyph unicode="&#xc3;" d="M-56 -177q-2 134 131 248q76 65 184 91l511 1341l30 -14q9 -26 112 -320l324 -920q55 -155 179 -249h-268q-21 40 -63 158q-18 49 -43 136l-47 157h-562l-109 -278q34 4 71 4q113 2 221 -23q133 -62 197 -118l-132 -152l-45 40q-157 138 -369 136q-84 -1 -153 -32 q-140 -64 -139 -205q0 -118 90 -178q72 -48 177 -48q97 0 188 35l25 -28q-128 -45 -227 -44q-156 2 -238 119q-44 63 -45 144zM487 612h446l-215 611zM513 1670q82 95 108 129q50 39 94 40q25 0 48 -12l64 -33l80 -51q5 -3 8 -6q55 -26 78 -27q28 -2 79 10t73 28l-45 -41 q-102 -95 -176 -94q-49 0 -122 41l-77 44q-41 23 -83 23q-30 0 -65 -18z" />
<glyph unicode="&#xc4;" d="M-56 -177q-2 134 131 248q76 65 184 91l511 1341l30 -14q9 -26 112 -320l324 -920q55 -155 179 -249h-268q-21 40 -63 158q-18 49 -43 136l-47 157h-562l-109 -278q34 4 71 4q113 2 221 -23q133 -62 197 -118l-132 -152l-45 40q-157 138 -369 136q-84 -1 -153 -32 q-140 -64 -139 -205q0 -118 90 -178q72 -48 177 -48q97 0 188 35l25 -28q-128 -45 -227 -44q-156 2 -238 119q-44 63 -45 144zM487 612h446l-215 611zM522 1769l95 123l97 -127l-94 -123zM857 1769l96 123l96 -127l-94 -123z" />
<glyph unicode="&#xc5;" d="M-56 -177q-2 134 131 248q76 65 184 91l511 1341l30 -14q9 -26 112 -320l324 -920q55 -155 179 -249h-268q-21 40 -63 158q-18 49 -43 136l-47 157h-562l-109 -278q34 4 71 4q113 2 221 -23q133 -62 197 -118l-132 -152l-45 40q-157 138 -369 136q-84 -1 -153 -32 q-140 -64 -139 -205q0 -118 90 -178q72 -48 177 -48q97 0 188 35l25 -28q-128 -45 -227 -44q-156 2 -238 119q-44 63 -45 144zM487 612h446l-215 611zM589 1696l1 189q113 58 273 136l126 -90l2 -191q-116 -61 -271 -136zM710 1753l54 -60q29 16 97 38v148l-90 61 q-8 -12 -61 -32v-155z" />
<glyph unicode="&#xc6;" horiz-adv-x="2200" d="M15 -177q-2 134 154 248q90 65 216 91l360 801h-1q-33 10 -47 32q-32 48 -33 99q0 192 194 307q52 31 106 51l23 51l35 -14l7 -16q92 26 196 30q92 4 332 -43q302 -59 418 -58q151 0 203 64q-50 -126 -114 -177q-56 -44 -195 -78q-134 0 -272 35l-196 49q-237 60 -326 64 l213 -512q94 67 236 101q116 27 199 25q140 -3 243 -119l-174 -112q-26 13 -86 54q-78 54 -158 54q-118 0 -235 -66l210 -505q128 -3 259 -27q196 -76 290 -145l-195 -185l-66 48q-38 28 -83 52l-16 12q-4 -1 -23 8q-59 28 -137 51q-149 44 -284 43q-124 -1 -224 -39 q-205 -77 -205 -250q0 -144 131 -217q106 -59 262 -59q143 0 276 43l36 -34q-199 -55 -332 -54q-230 3 -352 145q-65 76 -66 176q-1 42 15 92q-153 123 -415 121q-99 -1 -179 -32q-164 -64 -165 -205q0 -118 106 -178q84 -48 209 -48q114 0 221 35l29 -28q-151 -45 -267 -44 q-183 2 -280 119q-52 62 -53 144zM461 173q40 4 83 4q133 2 261 -23q34 -13 120 -53q26 24 63 49q132 93 326 119l-9 25l-55 157h-661zM654 612h525l-254 611zM703 1112q0 -99 47 -138l164 367q-49 -13 -89 -34q-123 -65 -122 -195z" />
<glyph unicode="&#xc7;" horiz-adv-x="1408" d="M15 657q2 137 57 293q118 335 491 488l4 -27q-175 -88 -270 -257q-33 -59 -37 -71q-10 -25 -21 -73l645 486l50 -31q64 -49 212 -49q90 0 184 51l13 -20q-32 -67 -106 -123q-61 -45 -202 -69q-146 0 -226 82l-72 -49l-528 -397q-5 -45 -6 -90q0 -193 72 -359 q38 -87 90 -148q183 -214 509 -206q97 2 162 22q175 55 325 193l25 -27q-239 -311 -619 -323l-47 -137q242 0 242 -143q0 -173 -247 -173q-94 0 -203 119q131 -22 180 -22q84 0 121 32l16 10q-4 5 -4 21q0 119 -175 119l70 174q-365 6 -568 267q-140 180 -137 437z" />
<glyph unicode="&#xc8;" horiz-adv-x="1300" d="M-9 1077q0 192 165 306q135 94 312 102q78 4 282 -42q257 -59 355 -59q128 0 172 64q-42 -125 -97 -176q-48 -44 -165 -79q-114 0 -231 35l-167 50q-28 8 -53 15q-35 -28 -48 -72q-9 -28 -15 -96q3 -22 3 -65v-244q80 76 218 114q99 27 169 26q119 -3 206 -119l-147 -113 q-22 12 -74 54q-67 54 -133 55q-120 0 -239 -94v-266q0 -152 -200 -240l-15 43q55 27 55 115v698q0 113 145 197l34 19q-135 36 -191 36q-121 0 -204 -52q-105 -66 -104 -194q0 -140 78 -161q-37 9 -43 12q-28 10 -40 32q-27 48 -28 99zM101 -170q-2 164 165 303 q151 125 398 129q133 2 277 -28q167 -75 246 -145l-165 -184l-56 48q-90 77 -216.5 122t-245.5 44q-105 -1 -190 -39q-174 -77 -174 -250q0 -144 111 -217q90 -59 222 -59q122 0 235 42l31 -34q-169 -55 -283 -53q-196 3 -298 145q-55 76 -57 176zM434 1902l56 -1 q239 -5 284 -102l103 -221q-61 -9 -90 -9q-89 1 -111 46l-78 169q-10 22 -10 31q-18 32 -31 42q-51 38 -123 45z" />
<glyph unicode="&#xc9;" horiz-adv-x="1300" d="M-9 1077q0 192 165 306q135 94 312 102q78 4 282 -42q257 -59 355 -59q128 0 172 64q-42 -125 -97 -176q-48 -44 -165 -79q-114 0 -231 35l-167 50q-28 8 -53 15q-35 -28 -48 -72q-9 -28 -15 -96q3 -22 3 -65v-244q80 76 218 114q99 27 169 26q119 -3 206 -119l-147 -113 q-22 12 -74 54q-67 54 -133 55q-120 0 -239 -94v-266q0 -152 -200 -240l-15 43q55 27 55 115v698q0 113 145 197l34 19q-135 36 -191 36q-121 0 -204 -52q-105 -66 -104 -194q0 -140 78 -161q-37 9 -43 12q-28 10 -40 32q-27 48 -28 99zM101 -170q-2 164 165 303 q151 125 398 129q133 2 277 -28q167 -75 246 -145l-165 -184l-56 48q-90 77 -216.5 122t-245.5 44q-105 -1 -190 -39q-174 -77 -174 -250q0 -144 111 -217q90 -59 222 -59q122 0 235 42l31 -34q-169 -55 -283 -53q-196 3 -298 145q-55 76 -57 176zM428 1577l103 222 q45 97 285 102l55 1q-72 -7 -123 -45q-14 -10 -31 -42q1 -9 -10 -32l-78 -169q-21 -45 -110 -45q-29 0 -91 8z" />
<glyph unicode="&#xca;" horiz-adv-x="1300" d="M-9 1077q0 192 165 306q135 94 312 102q78 4 282 -42q257 -59 355 -59q128 0 172 64q-42 -125 -97 -176q-48 -44 -165 -79q-114 0 -231 35l-167 50q-28 8 -53 15q-35 -28 -48 -72q-9 -28 -15 -96q3 -22 3 -65v-244q80 76 218 114q99 27 169 26q119 -3 206 -119l-147 -113 q-22 12 -74 54q-67 54 -133 55q-120 0 -239 -94v-266q0 -152 -200 -240l-15 43q55 27 55 115v698q0 113 145 197l34 19q-135 36 -191 36q-121 0 -204 -52q-105 -66 -104 -194q0 -140 78 -161q-37 9 -43 12q-28 10 -40 32q-27 48 -28 99zM101 -170q-2 164 165 303 q151 125 398 129q133 2 277 -28q167 -75 246 -145l-165 -184l-56 48q-90 77 -216.5 122t-245.5 44q-105 -1 -190 -39q-174 -77 -174 -250q0 -144 111 -217q90 -59 222 -59q122 0 235 42l31 -34q-169 -55 -283 -53q-196 3 -298 145q-55 76 -57 176zM423 1590l166 282l165 -1 l162 -282l-69 -1l-134 233q-9 -13 -16 -24l-130 -208z" />
<glyph unicode="&#xcb;" horiz-adv-x="1300" d="M-9 1077q0 192 165 306q135 94 312 102q78 4 282 -42q257 -59 355 -59q128 0 172 64q-42 -125 -97 -176q-48 -44 -165 -79q-114 0 -231 35l-167 50q-28 8 -53 15q-35 -28 -48 -72q-9 -28 -15 -96q3 -22 3 -65v-244q80 76 218 114q99 27 169 26q119 -3 206 -119l-147 -113 q-22 12 -74 54q-67 54 -133 55q-120 0 -239 -94v-266q0 -152 -200 -240l-15 43q55 27 55 115v698q0 113 145 197l34 19q-135 36 -191 36q-121 0 -204 -52q-105 -66 -104 -194q0 -140 78 -161q-37 9 -43 12q-28 10 -40 32q-27 48 -28 99zM101 -170q-2 164 165 303 q151 125 398 129q133 2 277 -28q167 -75 246 -145l-165 -184l-56 48q-90 77 -216.5 122t-245.5 44q-105 -1 -190 -39q-174 -77 -174 -250q0 -144 111 -217q90 -59 222 -59q122 0 235 42l31 -34q-169 -55 -283 -53q-196 3 -298 145q-55 76 -57 176zM428 1769l96 123l97 -127 l-95 -123zM764 1769l95 123l97 -127l-94 -123z" />
<glyph unicode="&#xcc;" horiz-adv-x="811" d="M43 -137q0 203 212 294q72 31 146 40q47 41 47 125v798q0 95 58 163q-16 -3 -31 -2q-48 0 -137.5 33.5t-137.5 33.5q-120 0 -120 -119q0 -67 78 -137l43 -38q-148 47 -153 166q-2 61 38 131q87 150 240 150q58 0 161 -36q96 -33 142 -34q76 0 147 72q-51 -74 -123 -150 q-25 -26 -38 -64q-8 -24 -10 -82q4 -16 4 -56v-829q0 -73 -78 -113q-10 -5 -33 -15q84 -14 223 -73l-152 -153q-157 76 -279 74q-89 -1 -145 -47q-69 -58 -69 -154q0 -206 289 -207q22 0 36 1l123 5q-115 -12 -192 -12q-138 0 -200 37q-89 54 -89 198zM205 1902l56 -1 q239 -5 285 -102l103 -221q-61 -9 -91 -9q-89 1 -110 46l-78 169q-10 22 -10 31q-18 32 -31 42q-51 38 -124 45z" />
<glyph unicode="&#xcd;" horiz-adv-x="780" d="M32 -137q0 203 212 294q72 31 147 40q47 41 46 125v798q0 95 58 163q-16 -3 -31 -2q-48 0 -137.5 33.5t-137.5 33.5q-120 0 -120 -119q0 -67 78 -137l43 -38q-148 47 -153 166q-2 61 38 131q87 150 240 150q58 0 162 -36q96 -33 141 -34q76 0 147 72q-51 -74 -123 -150 q-25 -26 -38 -64q-8 -24 -10 -82q4 -16 4 -56v-829q0 -73 -78 -113q-10 -5 -33 -15q84 -14 223 -73l-152 -153q-157 76 -279 74q-89 -1 -145 -47q-69 -58 -69 -154q0 -206 289 -207q22 0 36 1l123 5q-115 -12 -191 -12q-138 0 -201 37q-89 54 -89 198zM222 1582l103 221 q45 97 284 102l56 1q-72 -7 -123 -45q-14 -10 -32 -42q1 -9 -9 -31l-79 -169q-21 -45 -110 -46q-29 0 -90 9z" />
<glyph unicode="&#xce;" horiz-adv-x="811" d="M49 -137q0 203 211 294q72 31 147 40q47 41 47 125v798q0 95 58 163q-16 -3 -32 -2q-48 0 -137.5 33.5t-137.5 33.5q-120 0 -120 -119q0 -67 79 -137l42 -38q-148 47 -153 166q-2 61 38 131q87 150 241 150q58 0 161 -36q96 -33 142 -34q75 0 146 72q-51 -74 -123 -150 q-25 -26 -37 -64q-8 -24 -11 -82q4 -16 4 -56v-829q0 -73 -77 -113q-10 -5 -34 -15q84 -14 223 -73l-152 -153q-157 76 -279 74q-89 -1 -145 -47q-69 -58 -69 -154q0 -206 290 -207q22 0 35 1l123 5q-115 -12 -191 -12q-138 0 -201 37q-89 54 -88 198zM189 1590l166 282 l165 -1l162 -282l-69 -1l-134 233q-9 -13 -16 -24l-129 -208z" />
<glyph unicode="&#xcf;" horiz-adv-x="805" d="M38 -137q0 203 211 294q72 31 147 40q47 41 47 125v798q0 95 58 163q-16 -3 -32 -2q-48 0 -137.5 33.5t-137.5 33.5q-120 0 -120 -119q0 -67 79 -137l43 -38q-148 47 -154 166q-2 61 39 131q87 150 240 150q58 0 161 -36q96 -33 142 -34q75 0 146 72q-51 -74 -123 -150 q-25 -26 -37 -64q-8 -24 -11 -82q4 -16 4 -56v-829q0 -73 -77 -113q-10 -5 -34 -15q84 -14 223 -73l-152 -153q-157 76 -279 74q-89 -1 -145 -47q-69 -58 -69 -154q0 -206 290 -207q22 0 35 1l123 5q-115 -12 -191 -12q-138 0 -200 37q-89 54 -89 198zM189 1769l95 123 l97 -127l-94 -123zM524 1769l95 123l97 -127l-94 -123z" />
<glyph unicode="&#xd0;" horiz-adv-x="1441" d="M15 624q0 123 84 195q80 68 206 68q25 0 57 -7v182q0 171 173 217q-10 2 -58 -6q-55 -8 -66 -8q-314 0 -393 238l35 -31q27 -64 216 -61q75 1 160 13l386 52q68 9 139 9q303 0 407 -132q57 -73 57 -195v-186q0 -255 -46 -410q-65 -222 -244 -353q119 234 119 553 q0 67 -4 144q-2 32 0 84l1 53l-3 74q-5 102 -79 157q-67 50 -172 50q-53 0 -162 -15l-85 -12q-144 -5 -180 -65q-14 -22 -15 -78q2 -22 2 -92v-246q39 -12 64 -12q95 0 215 83q-62 -111 -148 -160v-5q-40 -42 -131 -52v-187q0 -181 -316 -224l58 35q70 33 70 144v244l-51 15 q-103 29 -148 29q-105 0 -110 -97q-2 -39 35 -74q45 -43 88 -40q-11 -13 -49 -13q-42 0 -65 22q-48 46 -47 100zM20 -170q-3 164 194 303q177 125 468 129q156 2 326 -28q196 -75 290 -145l-195 -184l-66 48q-106 77 -259 123q-147 44 -284 43q-124 -1 -224 -39 q-205 -77 -205 -250q0 -144 131 -217q106 -59 262 -59q140 0 276 42l120 38q-208 -128 -416 -125q-230 3 -351 145q-65 76 -67 176zM1244 1049z" />
<glyph unicode="&#xd1;" horiz-adv-x="1516" d="M-22 1148q7 95 60 181q56 90 139 129q60 28 118 27q248 0 507 -502q14 -27 386 -744v1044h-7q-44 0 -127 29t-127 29q-89 0 -93 -96q-2 -39 30 -74q38 -43 75 -40q-9 -13 -42 -13q-36 0 -55 21q-41 45 -41 101q0 116 65 188q67 75 182 75q45 0 131.5 -41.5t131.5 -41.5 q81 0 183 83q-53 -111 -126 -160v-5q-35 -43 -116 -53l-4 -1292l-108 3q-26 36 -141 239q-105 182 -149 279q-126 272 -278 510q-75 118 -131 181v-997q78 15 155 16q135 2 277 -28q-20 -35 -66 -92q-60 -77 -81 -77h-4q-137 55 -286 54q-106 -1 -191 -39 q-174 -77 -174 -251q0 -144 111 -217q90 -59 223 -59q122 0 235 43l30 -34q-169 -55 -282 -54q-196 3 -299 145q-54 76 -56 176q-2 164 165 303q82 68 190 100v1051q-79 79 -189 79q-106 0 -187 -110zM458 1670q82 95 108 129q50 39 94 40q25 0 48 -12l64 -33l80 -51l8 -6 q55 -26 78 -27q28 -2 79 10t73 28l-44 -41q-102 -95 -177 -94q-49 0 -122 41l-77 44q-41 23 -82 23q-30 0 -65 -18z" />
<glyph unicode="&#xd2;" horiz-adv-x="1452" d="M43 684q0 96 29 199q61 222 245 403q78 77 171 112q27 10 230 67l-203 -99q-142 -70 -200 -221q-89 -231 -88 -488q0 -123 57 -312q74 -246 285 -319q95 -33 227 -33q129 21 194 71q169 131 216 387q30 162 29 253q0 68 -29 236q-104 305 -347 415l-53 24l187 106h31 q217 -157 299 -334q68 -149 68 -375q0 -217 -75 -401q-80 -194 -229 -305q-157 -117 -361 -117q-190 0 -345.5 94.5t-246.5 263.5t-91 373zM527 1902l56 -1q239 -5 284 -102l103 -221q-61 -9 -90 -9q-89 1 -110 46l-79 169q-10 22 -10 31q-18 32 -31 42q-51 38 -123 45z" />
<glyph unicode="&#xd3;" horiz-adv-x="1440" d="M38 684q0 96 28 199q61 222 246 403q78 77 171 112q27 10 230 67l-203 -99q-142 -70 -200 -221q-89 -231 -89 -488q0 -123 58 -312q74 -246 285 -319q95 -33 227 -33q129 21 194 71q169 131 215 387q30 162 30 253q0 68 -30 236q-104 305 -346 415l-53 24l187 106h30 q217 -157 299 -334q69 -149 69 -375q0 -217 -76 -401q-80 -194 -229 -305q-157 -117 -360 -117q-190 0 -346 94.5t-246.5 263.5t-90.5 373zM489 1582l103 221q45 97 284 102l56 1q-72 -7 -124 -45q-14 -10 -31 -42q1 -9 -10 -31l-78 -169q-21 -45 -110 -46q-29 0 -90 9z" />
<glyph unicode="&#xd4;" horiz-adv-x="1452" d="M43 684q0 96 29 199q61 222 245 403q78 77 171 112q27 10 230 67l-203 -99q-142 -70 -200 -221q-89 -231 -88 -488q0 -123 57 -312q74 -246 285 -319q95 -33 227 -33q129 21 194 71q169 131 216 387q30 162 29 253q0 68 -29 236q-104 305 -347 415l-53 24l187 106h31 q217 -157 299 -334q68 -149 68 -375q0 -217 -75 -401q-80 -194 -229 -305q-157 -117 -361 -117q-190 0 -345.5 94.5t-246.5 263.5t-91 373zM538 1590l166 282l165 -1l162 -282l-69 -1l-134 233q-9 -13 -16 -24l-130 -208z" />
<glyph unicode="&#xd5;" horiz-adv-x="1440" d="M49 684q0 96 28 199q61 222 246 403q78 77 171 112q27 10 230 67l-203 -99q-142 -70 -200 -221q-89 -231 -89 -488q0 -123 58 -312q74 -246 285 -319q95 -33 227 -33q129 21 194 71q169 131 215 387q30 162 30 253q0 68 -30 236q-104 305 -346 415l-53 24l187 106h30 q217 -157 299 -334q69 -149 69 -375q0 -217 -76 -401q-80 -194 -229 -305q-157 -117 -360 -117q-190 0 -346 94.5t-246.5 263.5t-90.5 373zM445 1670q82 95 108 129q50 39 94 40q25 0 48 -12l64 -33l80 -51q5 -3 8 -6q55 -26 78 -27q28 -2 79 10t73 28l-45 -41 q-102 -95 -176 -94q-49 0 -122 41l-77 44q-41 23 -82 23q-30 0 -66 -18z" />
<glyph unicode="&#xd6;" horiz-adv-x="1458" d="M54 684q0 96 29 199q61 222 245 403q78 77 171 112q27 10 230 67l-203 -99q-142 -70 -200 -221q-89 -231 -88 -488q0 -123 57 -312q74 -246 285 -319q95 -33 227 -33q129 21 194 71q169 131 216 387q30 162 29 253q0 68 -29 236q-104 305 -347 415l-53 24l187 106h31 q217 -157 299 -334q68 -149 68 -375q0 -217 -75 -401q-80 -194 -229 -305q-157 -117 -361 -117q-190 0 -345.5 94.5t-246.5 263.5t-91 373zM516 1769l95 123l97 -127l-94 -123zM851 1769l95 123l97 -127l-94 -123z" />
<glyph unicode="&#xd7;" horiz-adv-x="736" d="M15 302l79 27q28 9 47 33l163 198l-150 179q-11 13 -14 20q-17 19 -29 27q-46 30 -94 42l3 13q94 -19 142 -35q88 -30 124 -73l80 -97l108 131q44 54 160 70l2 -13q-26 -6 -55 -27q-8 -6 -21 -21q-3 -6 -12 -17l-141 -171l184 -220q25 -29 122 -61l-3 -13l-150 25 q-63 10 -91 44l-124 149l-138 -167q-19 -24 -57 -31q-4 -1 -135 -12z" />
<glyph unicode="&#xd8;" horiz-adv-x="1507" d="M15 -99l51 25q57 27 110 98l86 113q-77 74 -131 174q-91 169 -90 373q0 96 28 199q61 222 245 403q78 77 171 112q27 10 230 67l-202 -99q-142 -70 -200 -221q-89 -231 -89 -488q0 -123 58 -312q19 -64 48 -118l734 970q-87 104 -207 158l-53 24l186 106h31 q91 -66 159 -135q110 145 267 177l37 8q-51 -17 -116 -79q-18 -16 -56 -64q-10 -17 -31 -46l-46 -59q53 -66 85 -136q68 -149 69 -375q0 -217 -76 -401q-80 -194 -229 -305q-157 -117 -360 -117q-226 0 -399 131l-67 -88q-44 -59 -109 -78q-12 -3 -134 -17zM378 155 q134 -162 416 -162q129 21 194 71q169 131 215 387q29 162 29 253q0 68 -29 236q-36 105 -88 187z" />
<glyph unicode="&#xd9;" horiz-adv-x="1630" d="M-1 1236q0 116 65 188q67 75 181 75q45 0 131.5 -42t131.5 -42q41 0 87 21q24 15 50 29q23 15 46 34q-17 -35 -35 -64l-8 -27q-130 -102 -191 -291q-35 -108 -34 -212q2 -193 8 -292q12 -199 48 -258q156 -257 430 -257q12 0 19 -4q72 5 171 41l14 5q9 3 24 10q4 2 10 1 q43 13 87 18q47 41 46 125v798q0 95 58 163q-16 -3 -31 -2q-48 0 -137.5 33.5t-137.5 33.5q-120 0 -120 -119q0 -67 78 -137l43 -38q-149 47 -153 166q-2 61 38 131q87 150 240 150q58 0 162 -36q95 -33 141 -34q76 0 147 72q-49 -71 -124 -150q-24 -25 -37 -64 q-8 -24 -10 -82q4 -16 4 -56v-829q0 -73 -78 -113q-10 -5 -33 -14q83 -14 223 -74l-152 -153q-158 76 -279 74q-18 0 -41 -3q-56 -29 -94 -37l-89 -18q-8 -2 -75 -1q-157 0 -294 72q-157 83 -235 244q-28 59 -29 236l-2 257q-2 231 105 414q36 62 65 103q-25 -2 -55 -3 q-44 0 -126.5 29.5t-126.5 29.5q-89 0 -93 -96q-2 -39 29 -75q38 -43 75 -40q-9 -13 -42 -12q-36 0 -55 21q-41 46 -40 101zM610 1902l56 -1q239 -5 284 -102l103 -221q-61 -9 -90 -9q-89 1 -110 46l-78 169q-10 22 -10 31q-18 32 -32 42q-51 38 -123 45z" />
<glyph unicode="&#xda;" horiz-adv-x="1630" d="M-1 1236q0 116 65 188q67 75 181 75q45 0 131.5 -42t131.5 -42q41 0 87 21q24 15 50 29q23 15 46 34q-17 -35 -35 -64l-8 -27q-130 -102 -191 -291q-35 -108 -34 -212q2 -193 8 -292q12 -199 48 -258q156 -257 430 -257q12 0 19 -4q72 5 171 41l14 5q9 3 24 10q4 2 10 1 q43 13 87 18q47 41 46 125v798q0 95 58 163q-16 -3 -31 -2q-48 0 -137.5 33.5t-137.5 33.5q-120 0 -120 -119q0 -67 78 -137l43 -38q-149 47 -153 166q-2 61 38 131q87 150 240 150q58 0 162 -36q95 -33 141 -34q76 0 147 72q-49 -71 -124 -150q-24 -25 -37 -64 q-8 -24 -10 -82q4 -16 4 -56v-829q0 -73 -78 -113q-10 -5 -33 -14q83 -14 223 -74l-152 -153q-158 76 -279 74q-18 0 -41 -3q-56 -29 -94 -37l-89 -18q-8 -2 -75 -1q-157 0 -294 72q-157 83 -235 244q-28 59 -29 236l-2 257q-2 231 105 414q36 62 65 103q-25 -2 -55 -3 q-44 0 -126.5 29.5t-126.5 29.5q-89 0 -93 -96q-2 -39 29 -75q38 -43 75 -40q-9 -13 -42 -12q-36 0 -55 21q-41 46 -40 101zM621 1582l103 221q45 97 284 102l56 1q-72 -7 -123 -45q-14 -10 -31 -42q1 -9 -10 -31l-78 -169q-21 -45 -110 -46q-29 0 -91 9z" />
<glyph unicode="&#xdb;" horiz-adv-x="1630" d="M-1 1236q0 116 65 188q67 75 181 75q45 0 131.5 -42t131.5 -42q41 0 87 21q24 15 50 29q23 15 46 34q-17 -35 -35 -64l-8 -27q-130 -102 -191 -291q-35 -108 -34 -212q2 -193 8 -292q12 -199 48 -258q156 -257 430 -257q12 0 19 -4q72 5 171 41l14 5q9 3 24 10q4 2 10 1 q43 13 87 18q47 41 46 125v798q0 95 58 163q-16 -3 -31 -2q-48 0 -137.5 33.5t-137.5 33.5q-120 0 -120 -119q0 -67 78 -137l43 -38q-149 47 -153 166q-2 61 38 131q87 150 240 150q58 0 162 -36q95 -33 141 -34q76 0 147 72q-49 -71 -124 -150q-24 -25 -37 -64 q-8 -24 -10 -82q4 -16 4 -56v-829q0 -73 -78 -113q-10 -5 -33 -14q83 -14 223 -74l-152 -153q-158 76 -279 74q-18 0 -41 -3q-56 -29 -94 -37l-89 -18q-8 -2 -75 -1q-157 0 -294 72q-157 83 -235 244q-28 59 -29 236l-2 257q-2 231 105 414q36 62 65 103q-25 -2 -55 -3 q-44 0 -126.5 29.5t-126.5 29.5q-89 0 -93 -96q-2 -39 29 -75q38 -43 75 -40q-9 -13 -42 -12q-36 0 -55 21q-41 46 -40 101zM643 1590l166 282l165 -1l163 -282l-69 -1l-135 233q-9 -13 -16 -24l-129 -208z" />
<glyph unicode="&#xdc;" horiz-adv-x="1630" d="M-1 1236q0 116 65 188q67 75 181 75q45 0 131.5 -42t131.5 -42q41 0 87 21q24 15 50 29q23 15 46 34q-17 -35 -35 -64l-8 -27q-130 -102 -191 -291q-35 -108 -34 -212q2 -193 8 -292q12 -199 48 -258q156 -257 430 -257q12 0 19 -4q72 5 171 41l14 5q9 3 24 10q4 2 10 1 q43 13 87 18q47 41 46 125v798q0 95 58 163q-16 -3 -31 -2q-48 0 -137.5 33.5t-137.5 33.5q-120 0 -120 -119q0 -67 78 -137l43 -38q-149 47 -153 166q-2 61 38 131q87 150 240 150q58 0 162 -36q95 -33 141 -34q76 0 147 72q-49 -71 -124 -150q-24 -25 -37 -64 q-8 -24 -10 -82q4 -16 4 -56v-829q0 -73 -78 -113q-10 -5 -33 -14q83 -14 223 -74l-152 -153q-158 76 -279 74q-18 0 -41 -3q-56 -29 -94 -37l-89 -18q-8 -2 -75 -1q-157 0 -294 72q-157 83 -235 244q-28 59 -29 236l-2 257q-2 231 105 414q36 62 65 103q-25 -2 -55 -3 q-44 0 -126.5 29.5t-126.5 29.5q-89 0 -93 -96q-2 -39 29 -75q38 -43 75 -40q-9 -13 -42 -12q-36 0 -55 21q-41 46 -40 101zM643 1769l95 123l97 -127l-94 -123zM978 1769l96 123l97 -127l-95 -123z" />
<glyph unicode="&#xdd;" horiz-adv-x="1478" d="M-43 1160q6 95 68 190q98 149 244 149q249 0 502 -505q13 -26 85 -182l251 480q-36 8 -86 25q-84 30 -126 29q-88 0 -92 -97q-2 -40 29 -75q37 -43 75 -40q-9 -13 -42 -12q-36 0 -54 21q-40 46 -40 101q0 116 63 189q66 76 180 75q44 0 130 -41.5t130 -41.5q79 -1 181 83 q-52 -112 -125 -160l1 -5q-37 -46 -141 -54l-299 -574v-447h-1v-109q56 -5 113 -19q131 -62 193 -119l-130 -151l-43 40q-153 138 -363 135q-84 -1 -150 -31q-136 -64 -136 -205q0 -117 87 -178q71 -49 175 -48q95 0 184 35l25 -28q-137 -45 -222 -44q-154 2 -235 119 q-43 61 -44 144q-2 134 129 247q101 89 259 104q-1 5 -1 10v100l-1 413q-85 171 -186 353q-48 87 -129 182q-70 119 -240 118q-105 0 -185 -110zM518 1582l103 221q45 97 284 102l56 1q-72 -7 -124 -45q-14 -10 -31 -42q1 -9 -10 -31l-78 -169q-21 -45 -110 -46q-29 0 -90 9 zM1259 1420q2 2 2 3t-1 1z" />
<glyph unicode="&#xde;" horiz-adv-x="786" d="M15 -263q0 191 191 310l-2 12l1 1074q0 89 -52 144l-58 -52l-34 39l200 179q100 -107 101 -216l1 -236l239 189l162 -120l-2 -579q-24 -21 -132 -87q-100 -61 -124 -91q-67 51 -144 101l1 -297h1q0 -93 -84 -128l-154 -61q-83 -53 -83 -181q0 -110 62 -174 q63 -66 172 -65q89 0 172 42l22 -34q-104 -45 -188 -44q-123 0 -196 76q-72 75 -72 199zM362 552l188 -130q23 19 56 34v511l-89 65l-155 -137v-343z" />
<glyph unicode="&#xdf;" horiz-adv-x="1435" d="M15 -394q0 192 177 306q160 103 367 103q119 0 266 -43q171 -51 251 -51q146 0 145 139q0 6 -0.5 18t-0.5 17v328q0 36 -30 121q-26 73 -44 105q-12 21 -75 66q-77 35 -180 82q75 18 104 40q37 35 75 69q136 119 136 281q0 106 -20 153q-29 71 -104 71q-31 0 -105 -76 q-94 -67 -190 -75q-58 -30 -76 -81q-12 -35 -12 -119v-605q0 -70 -57 -167q-76 -129 -191 -132q12 13 28 54q21 54 22 98q0 15 4.5 45t4.5 46v647q0 146 193 221q-49 11 -121 41q-123 52 -187 52q-71 0 -113 -46.5t-42 -117.5q0 -78 142 -194l15 -16q-85 27 -146 109 q-49 66 -53 119q12 165 172 247q74 38 155 38q98 0 265 -66q88 -35 125 -35q63 0 59 -1q63 61 101 77q21 9 71 11q169 8 239 -149q28 -61 28 -118q0 -136 -95 -247q-26 -30 -147 -83q-147 -64 -186 -87v-5q145 -22 287 -151q136 -123 136 -210v-190v-29q1 -36 -1 -115l-3 -3 q-2 -83 -37 -181q-33 -89 -65 -116q-53 -44 -180 -79q-125 0 -249 35q-25 7 -181 50q-231 64 -308 64q-131 0 -221 -52q-113 -65 -113 -195q0 -140 85 -160q-41 9 -50 12q-28 11 -41 31q-30 48 -29 99z" />
<glyph unicode="&#xe0;" horiz-adv-x="763" d="M42 713q91 21 338 155l223 -129v-516q8 -63 41 -110l63 51l33 -40l-211 -171q-43 49 -61 94q-10 25 -17 55l-19 -9q-35 -16 -228 -120l-157 117zM143 1276l56 -1q239 -5 284 -102l103 -221q-61 -9 -90 -9q-89 1 -110 46l-79 169q-10 22 -10 31q-18 32 -31 42 q-51 38 -123 45zM203 689l1 -496l122 -96q38 26 117 63v4l3 2v493l-127 88q-14 -9 -116 -58z" />
<glyph unicode="&#xe1;" horiz-adv-x="763" d="M42 713q91 21 338 155l223 -129v-516q8 -63 41 -110l63 51l33 -40l-211 -171q-43 49 -61 94q-10 25 -17 55l-19 -9q-35 -16 -228 -120l-157 117zM159 956l103 221q45 97 285 102l56 1q-72 -7 -124 -45q-14 -10 -31 -42q1 -9 -10 -31l-78 -169q-21 -45 -110 -46 q-29 0 -91 9zM203 689l1 -496l122 -96q38 26 117 63v4l3 2v493l-127 88q-14 -9 -116 -58z" />
<glyph unicode="&#xe2;" horiz-adv-x="778" d="M42 713q91 21 338 155l223 -129v-516q8 -63 41 -110l63 51l33 -40l-211 -171q-43 49 -61 94q-10 25 -17 55l-19 -9q-35 -16 -228 -120l-157 117zM110 964l166 282l165 -1l163 -282l-69 -1l-135 233q-9 -13 -15 -24l-130 -208zM203 689l1 -496l122 -96q38 26 117 63v4l3 2 v493l-127 88q-14 -9 -116 -58z" />
<glyph unicode="&#xe3;" horiz-adv-x="763" d="M42 713q91 21 338 155l223 -129v-516q8 -63 41 -110l63 51l33 -40l-211 -171q-43 49 -61 94q-10 25 -17 55l-19 -9q-35 -16 -228 -120l-157 117zM61 1044q82 95 108 129q50 39 94 40q25 0 48 -12l64 -33l80 -51q5 -3 8 -6q55 -26 78 -27q28 -2 79 10t73 28l-44 -41 q-102 -95 -177 -95q-49 0 -122 42l-77 44q-41 23 -82 23q-30 0 -66 -18zM203 689l1 -496l122 -96q38 26 117 63v4l3 2v493l-127 88q-14 -9 -116 -58z" />
<glyph unicode="&#xe4;" horiz-adv-x="763" d="M42 713q91 21 338 155l223 -129v-516q8 -63 41 -110l63 51l33 -40l-211 -171q-43 49 -61 94q-10 25 -17 55l-19 -9q-35 -16 -228 -120l-157 117zM88 1143l95 123l97 -127l-94 -123zM203 689l1 -496l122 -96q38 26 117 63v4l3 2v493l-127 88q-14 -9 -116 -58zM423 1143 l96 123l97 -127l-95 -123z" />
<glyph unicode="&#xe5;" horiz-adv-x="742" d="M37 713q91 21 337 155l224 -129v-516q8 -63 40 -110l63 51l34 -40l-211 -171q-43 49 -62 94q-10 25 -16 55l-19 -9q-35 -16 -229 -120l-156 117zM143 1070l1 189q113 58 273 136l126 -90l1 -191q-116 -61 -271 -136zM198 193l122 -96q38 26 117 63v4l3 2v493l-127 88 q-14 -9 -115 -58v-496zM264 1127l54 -60q29 16 97 38v148l-91 60q-8 -12 -60 -31v-155z" />
<glyph unicode="&#xe6;" horiz-adv-x="1024" d="M15 170q0 122 153 257q188 95 270 221l-37 34q-95 -62 -275 -62q-50 0 -90 9l-8 62q28 -8 65 -8q100 0 218 46q130 51 180 123l101 -85l172 85l238 -295l-397 -264v-4q0 -13 -2 -26v-97l102 -63l228 157l29 -45l-359 -242l-149 192q-1 -2 -2 -2q-2 1 -3 8l-4 6l-235 -204 q-196 44 -195 197zM143 269q0 -58 50 -101q47 -42 107 -47l145 125v331q-104 -127 -224 -174q-78 -71 -78 -134zM604 685l1 -331l222 151l-164 202q-16 -7 -59 -22z" />
<glyph unicode="&#xe7;" horiz-adv-x="627" d="M15 675l434 192l65 -58l57 -68l-126 -69l-88 80l-92 -31l-2 -521l106 -84l206 128l30 -42l-296 -199l-39 -115q242 0 242 -143q0 -173 -247 -173q-94 0 -203 119q131 -22 181 -22q82 0 121 32q12 9 11 31q0 119 -175 119l53 131l-149 110v564l-73 -27z" />
<glyph unicode="&#xe8;" horiz-adv-x="643" d="M36 1281l56 -1q239 -5 284 -102l103 -222q-61 -9 -90 -8q-89 1 -110 45l-79 169q-10 22 -9 32q-18 32 -32 42q-51 38 -123 45zM37 73v640q10 3 319 156l238 -296l-400 -265v-142l103 -63l228 157l29 -45l-360 -242zM194 369l224 152l-163 202q-16 -7 -61 -22v-332z" />
<glyph unicode="&#xe9;" horiz-adv-x="633" d="M42 73l1 640q10 3 319 156l237 -296l-399 -265v-142l103 -63l227 157l29 -45l-359 -242zM80 960l103 221q45 97 284 102l56 1q-72 -7 -123 -44q-14 -10 -31 -43q1 -9 -10 -31l-79 -169q-21 -45 -110 -46q-29 0 -90 9zM200 369l224 152l-164 202q-16 -7 -60 -22v-332z" />
<glyph unicode="&#xea;" horiz-adv-x="648" d="M42 73l1 640q10 3 319 156l237 -296l-399 -265v-142l103 -63l227 157l29 -45l-359 -242zM42 968l166 282l164 -1l163 -282l-69 -1l-134 233q-9 -13 -16 -24l-130 -208zM200 369l224 152l-164 202q-16 -7 -60 -22v-332z" />
<glyph unicode="&#xeb;" horiz-adv-x="638" d="M48 73v640q10 3 319 156l238 -296l-400 -265v-142l103 -63l228 157l29 -45l-360 -242zM54 1143l95 123l97 -127l-94 -123zM205 369l224 152l-163 202q-16 -7 -61 -22v-332zM389 1143l95 123l97 -127l-94 -123z" />
<glyph unicode="&#xec;" horiz-adv-x="419" d="M-61 1280q64 -6 119 -45q16 -10 30 -41q0 -6 10 -31l78 -170q20 -45 110 -45q15 0 37.5 2t53.5 6l-103 222q-47 96 -284 102h-51zM-58 -217q0 -121 72 -199q74 -76 197 -75q86 0 188 45l-22 32q-41 -22 -76 -32.5t-80 -10.5q-108 0 -172 68q-61 63 -61 172q0 65 16 109 t68 71q61 20 100 35.5t70 26.5q100 33 100 127v724l-207 -67v-717q-193 -119 -193 -309z" />
<glyph unicode="&#xed;" horiz-adv-x="426" d="M-58 -217q0 -121 72 -199q74 -76 197 -75q86 0 188 45l-22 32q-41 -22 -76 -32.5t-80 -10.5q-108 0 -172 68q-61 63 -61 172q0 65 16 109t68 71q61 20 100 35.5t70 26.5q100 33 100 127v724l-207 -67v-717q-193 -119 -193 -309zM6 967q31 -4 53.5 -6t36.5 -2q90 0 111 44 l78 170q10 25 10 31q15 31 31 41q51 39 118 45h-51q-238 -6 -285 -102z" />
<glyph unicode="&#xee;" horiz-adv-x="456" d="M-61 965l145 -3l129 210q4 4 8 10t9 12l135 -232h67l-161 283h-166zM-58 -217q0 -121 72 -199q74 -76 197 -75q86 0 188 45l-22 32q-41 -22 -76 -32.5t-80 -10.5q-108 0 -172 68q-61 63 -61 172q0 65 16 109t68 71q61 20 100 35.5t70 26.5q100 33 100 127v724l-207 -67 v-717q-193 -119 -193 -309z" />
<glyph unicode="&#xef;" horiz-adv-x="436" d="M-58 -217q0 -121 72 -199q74 -76 197 -75q86 0 188 45l-22 32q-41 -22 -76 -32.5t-80 -10.5q-108 0 -172 68q-61 63 -61 172q0 65 16 109t68 71q61 20 100 35.5t70 26.5q100 33 100 127v724l-207 -67v-717q-193 -119 -193 -309zM-55 1143l98 -127l94 123l-96 127z M280 1143l99 -127l94 123l-98 127z" />
<glyph unicode="&#xf0;" horiz-adv-x="852" d="M15 1128q121 -83 215 -83q51 0 128 30q99 39 126 46v215l244 -86l1 -70l-106 49v-107q206 -28 206 -213q0 -49 -31 -85q-33 -37 -81 -37q-38 0 -49 12q43 -3 83 34t40 81q0 96 -110 96q-27 0 -57 -5l1 -782q8 -63 41 -110l62 51l34 -40l-211 -171q-43 49 -61 94 q-10 25 -17 55l-40 -12q-106 -32 -207 -117l-157 117l-5 623q65 0 174 61l164 93l82 -35v135q-58 -15 -101 -16q-119 0 -125 -1q2 -1 13 -1q-70 3 -101 36l-7 5q-104 59 -148 138zM226 193l116 -74q63 25 122 41v4l4 2v493l-81 83q-50 -31 -161 -75v-474z" />
<glyph unicode="&#xf1;" horiz-adv-x="911" d="M40 681l209 175q58 -49 76 -112q12 -39 14 -138l289 250l109 -98v-229h2v-260l1 1q2 -44 8 -88q1 -9 37 -60l63 52l34 -41l-211 -170q-77 87 -87 208l-3 103v9v11v360l-54 44l-188 -163v-428l-157 -115l-86 -59l-37 47l122 92v472q0 116 -38 154l-70 -58zM147 1044 q82 95 108 129q50 39 94 40q25 0 48 -12l64 -33l80 -51q5 -3 8 -6q55 -26 78 -27q28 -2 79 10t73 28l-44 -41q-102 -95 -177 -95q-49 0 -122 42l-77 44q-41 23 -82 23q-30 0 -66 -18z" />
<glyph unicode="&#xf2;" horiz-adv-x="643" d="M37 109l1 544q172 84 401 199l153 -132l2 -547q-249 -137 -399 -200zM73 1276l56 -1q239 -5 284 -102l103 -221q-61 -9 -90 -9q-89 1 -111 46l-78 169q-10 22 -10 31q-18 32 -31 42q-51 38 -123 45zM195 202l125 -98q34 22 117 55v485l-109 89q-39 -30 -133 -71v-460z " />
<glyph unicode="&#xf3;" horiz-adv-x="648" d="M48 109l1 544q172 84 401 199l153 -132l2 -547q-249 -137 -399 -200zM122 956l103 221q45 97 284 102l56 1q-72 -7 -123 -45q-14 -10 -31 -42q1 -9 -10 -31l-78 -169q-21 -45 -110 -46q-29 0 -91 9zM206 202l125 -98q34 22 117 55v485l-109 89q-39 -30 -133 -71v-460z " />
<glyph unicode="&#xf4;" horiz-adv-x="633" d="M42 109l1 544q172 84 402 199l153 -132l2 -547q-249 -137 -400 -200zM66 964l166 282l165 -1l163 -282l-69 -1l-134 233q-9 -13 -16 -24l-130 -208zM200 202l125 -98q35 22 118 55v485l-110 89q-39 -30 -133 -71v-460z" />
<glyph unicode="&#xf5;" horiz-adv-x="658" d="M33 1044q82 95 108 129q50 39 95 40q25 0 48 -12l64 -33l80 -51q5 -3 8 -6q55 -26 78 -27q28 -2 79 10t73 28l-45 -41q-102 -95 -176 -95q-49 0 -122 42l-77 44q-41 23 -83 23q-30 0 -65 -18zM53 109l1 544q172 84 402 199l153 -132l2 -547q-249 -137 -400 -200zM211 202 l125 -98q35 22 118 55v485l-110 89q-39 -30 -133 -71v-460z" />
<glyph unicode="&#xf6;" horiz-adv-x="643" d="M42 109l1 544q172 84 402 199l153 -132l2 -547q-249 -137 -400 -200zM55 1143l96 123l97 -127l-95 -123zM200 202l125 -98q35 22 118 55v485l-110 89q-39 -30 -133 -71v-460zM391 1143l95 123l97 -127l-94 -123z" />
<glyph unicode="&#xf7;" horiz-adv-x="867" d="M15 666l69 105h760l-69 -105h-760zM301 398v91q0 75 74 75h117q73 0 73 -75v-91q0 -75 -73 -75h-117q-73 0 -74 75zM301 962v91q0 75 74 75h117q73 0 73 -75v-91q0 -75 -73 -75h-117q-73 0 -74 75z" />
<glyph unicode="&#xf8;" horiz-adv-x="799" d="M-67 -71l51 25q60 29 110 98l38 53l-5 4l1 544q172 84 402 199l90 -77q100 122 248 151l37 8q-51 -17 -117 -78q-18 -16 -55 -65q-10 -16 -32 -46l-19 -25l3 -547q-249 -137 -400 -200l-90 78l-19 -27q-42 -58 -109 -78q-12 -3 -134 -17zM284 664l1 -349l240 331l-103 91 q-42 -30 -138 -73zM298 192l112 -88q34 22 117 55v348z" />
<glyph unicode="&#xf9;" horiz-adv-x="890" d="M26 696l211 170q77 -87 86 -208h1l2 -104q0 -2 1 -8v-11v-360l54 -45l188 164v401l157 115l86 59l36 -48l-122 -91v-445q0 -116 39 -155l69 58l34 -40l-209 -175q-58 49 -76 112q-12 39 -14 137l-289 -249l-110 98v229h-1v259h-1q-2 44 -8 87q-1 9 -38 61l-63 -52z M193 1276l56 -1q239 -5 284 -102l103 -221q-61 -9 -90 -9q-89 1 -111 46l-78 169q-10 22 -10 31q-18 32 -31 42q-51 38 -123 45z" />
<glyph unicode="&#xfa;" horiz-adv-x="890" d="M26 696l211 170q77 -87 86 -208h1l2 -104q0 -2 1 -8v-11v-360l54 -45l188 164v401l157 115l86 59l36 -48l-122 -91v-445q0 -116 39 -155l69 58l34 -40l-209 -175q-58 49 -76 112q-12 39 -14 137l-289 -249l-110 98v229h-1v259h-1q-2 44 -8 87q-1 9 -38 61l-63 -52z M259 956l103 221q45 97 284 102l56 1q-72 -7 -124 -45q-14 -10 -31 -42q1 -9 -10 -31l-78 -169q-21 -45 -110 -46q-29 0 -90 9z" />
<glyph unicode="&#xfb;" horiz-adv-x="890" d="M26 696l211 170q77 -87 86 -208h1l2 -104q0 -2 1 -8v-11v-360l54 -45l188 164v401l157 115l86 59l36 -48l-122 -91v-445q0 -116 39 -155l69 58l34 -40l-209 -175q-58 49 -76 112q-12 39 -14 137l-289 -249l-110 98v229h-1v259h-1q-2 44 -8 87q-1 9 -38 61l-63 -52z M248 964l166 282l164 -1l163 -282l-69 -1l-134 233q-9 -13 -16 -24l-130 -208z" />
<glyph unicode="&#xfc;" horiz-adv-x="890" d="M26 696l211 170q77 -87 86 -208h1l2 -104q0 -2 1 -8v-11v-360l54 -45l188 164v401l157 115l86 59l36 -48l-122 -91v-445q0 -116 39 -155l69 58l34 -40l-209 -175q-58 49 -76 112q-12 39 -14 137l-289 -249l-110 98v229h-1v259h-1q-2 44 -8 87q-1 9 -38 61l-63 -52z M204 1143l95 123l97 -127l-94 -123zM539 1143l95 123l97 -127l-94 -123z" />
<glyph unicode="&#xfd;" horiz-adv-x="772" d="M47 300v398l157 115l86 60l37 -48l-122 -92v-107v-9v-11v-431l54 -45l189 164l-1 401l157 115l86 59l37 -48l-122 -91v-445q0 -112 38 -155q53 -59 112 -206q16 -149 3 -214q-38 -191 -146 -257q-86 -53 -129 -64q-56 -15 -130 -1q-83 15 -131 53q-99 77 -99 199 q0 114 82 238l30 -28q-56 -74 -72 -162q-5 -28 -5 -53q0 -72 40 -127q53 -73 160 -92q21 -4 39 -4q108 0 177 96q62 86 62 197q0 139 -99 268q-58 49 -76 112q-12 39 -13 137l-290 -249l-109 98v229h-2zM181 960l103 221q45 97 284 102l56 1q-72 -7 -123 -44 q-14 -10 -32 -43q1 -9 -9 -31l-79 -169q-21 -45 -110 -46q-29 0 -90 9z" />
<glyph unicode="&#xfe;" horiz-adv-x="739" d="M15 1165l199 179q101 -108 101 -215l1 -467l239 189l162 -119l-2 -580q-24 -21 -131 -86q-100 -61 -125 -92q-67 51 -144 101v-461q-130 -12 -182 -85q-20 -27 -20 -33l-26 12q30 64 71 99v1428q0 89 -51 143l-59 -51zM315 223l189 -130q23 19 56 34v511l-90 65 l-155 -137v-343z" />
<glyph unicode="&#xff;" horiz-adv-x="752" d="M42 300v398l157 115l86 60l37 -48l-123 -92v-107q0 -1 1 -9v-11v-431l54 -45l188 164l-1 401l158 115l86 59l36 -48l-122 -91v-445q0 -112 39 -155q53 -59 111 -206q16 -149 3 -214q-38 -191 -146 -257q-86 -53 -128 -64q-56 -15 -130 -1q-83 15 -132 53q-99 77 -99 199 q0 114 83 238l30 -28q-56 -74 -72 -162q-5 -28 -5 -53q0 -72 39 -127q53 -73 161 -92q21 -4 39 -4q108 0 177 96q62 86 61 197q0 139 -98 268q-58 49 -76 112q-12 39 -14 137l-289 -249l-110 98v229h-1zM127 1143l95 123l97 -127l-94 -123zM462 1143l96 123l97 -127 l-95 -123z" />
<glyph unicode="&#x152;" horiz-adv-x="1906" d="M15 684q0 96 28 199q61 222 246 403q78 77 171 112q27 10 230 67l-203 -99q-142 -70 -200 -221q-89 -231 -89 -488q0 -123 58 -312q75 -246 285 -319q88 -30 205 -33q41 77 126 148q151 125 399 130q133 2 276 -28q167 -76 246 -146l-165 -184l-56 48q-89 77 -216 122 t-246 44q-220 -2 -317 -135q1 -3 -7 -10q-40 -61 -40 -144q0 -144 111 -217q90 -59 223 -59q122 0 235 43l30 -34q-169 -55 -282 -54q-196 3 -299 145q-55 76 -56 176q-1 58 19 112q-2 1 -5 1q0 2 8 7q-230 0 -378 90q-163 99 -252 273q-85 166 -85 363zM598 1085 q0 192 164 306q135 94 312 103q78 4 282 -43q257 -59 355 -59q129 0 173 64q-42 -125 -97 -176q-48 -44 -166 -79q-114 0 -231 35l-166 50q-28 8 -53 15q-35 -28 -49 -71q-9 -28 -15 -97q3 -22 3 -65v-244q80 76 218 114q99 27 170 26q119 -3 205 -119l-147 -113 q-22 12 -73 55q-67 54 -134 54q-120 0 -239 -94v-266q0 -152 -200 -239l-15 42q55 27 55 115v698q0 113 145 197l34 19q-135 36 -190 37q-121 0 -204 -52q-105 -66 -105 -195q0 -140 79 -160q-37 9 -43 11q-28 10 -41 32q-27 48 -27 99z" />
<glyph unicode="&#x153;" horiz-adv-x="991" d="M15 109l1 544q172 84 401 199l100 -86l214 105l238 -295l-397 -264v-139l-2 -2v-2l103 -63l227 157l29 -45l-359 -242l-158 100v14q-201 -101 -239 -117zM173 202l125 -98q33 21 114 55v487l-106 87q-39 -30 -133 -71v-460zM570 703l2 -331l222 152l-164 202 q-16 -7 -60 -23z" />
<glyph unicode="&#x178;" horiz-adv-x="1536" d="M15 1160q6 95 68 190q98 149 245 149q249 0 501 -505q13 -26 85 -182l251 480q-36 8 -86 25q-84 30 -126 29q-88 0 -92 -97q-2 -40 29 -75q37 -43 75 -40q-9 -13 -42 -12q-36 0 -54 21q-40 46 -40 101q0 116 63 189q66 76 180 75q44 0 130 -41.5t130 -41.5q79 -1 181 83 q-52 -112 -124 -160v-5q-37 -46 -141 -54l-299 -574v-447h-1v-109q56 -5 113 -19q131 -62 193 -119l-129 -151l-44 40q-153 138 -363 135q-84 -1 -150 -31q-136 -64 -136 -205q0 -117 87 -178q71 -49 175 -48q95 0 184 35l25 -28q-136 -45 -222 -44q-154 2 -235 119 q-43 61 -44 144q-2 134 129 247q102 89 259 104q-1 5 -1 10v100l-1 413q-85 171 -186 353q-48 87 -129 182q-70 119 -240 118q-105 0 -185 -110zM469 1769l96 123l97 -127l-95 -123zM805 1769l95 123l97 -127l-94 -123zM1317 1420q2 2 2 3t-1 1z" />
<glyph unicode="&#x2c6;" horiz-adv-x="531" d="M15 964l166 282l165 -1l162 -282l-69 -1l-133 233q-10 -13 -17 -24l-129 -208z" />
<glyph unicode="&#x2dc;" horiz-adv-x="669" d="M15 1044q82 95 108 129q50 39 94 40q25 0 48 -12l64 -33l80 -51l8 -6q55 -25 78 -27q28 -2 79 10t73 28l-44 -41q-102 -95 -177 -95q-49 0 -122 42l-77 44q-41 23 -82 23q-30 0 -66 -18z" />
<glyph unicode="&#x2000;" horiz-adv-x="1010" />
<glyph unicode="&#x2001;" horiz-adv-x="2021" />
<glyph unicode="&#x2002;" horiz-adv-x="1010" />
<glyph unicode="&#x2003;" horiz-adv-x="2021" />
<glyph unicode="&#x2004;" horiz-adv-x="673" />
<glyph unicode="&#x2005;" horiz-adv-x="505" />
<glyph unicode="&#x2006;" horiz-adv-x="336" />
<glyph unicode="&#x2007;" horiz-adv-x="336" />
<glyph unicode="&#x2008;" horiz-adv-x="252" />
<glyph unicode="&#x2009;" horiz-adv-x="404" />
<glyph unicode="&#x200a;" horiz-adv-x="112" />
<glyph unicode="&#x2010;" horiz-adv-x="696" d="M14 395h613l69 107h-612z" />
<glyph unicode="&#x2011;" horiz-adv-x="696" d="M14 395h613l69 107h-612z" />
<glyph unicode="&#x2012;" horiz-adv-x="696" d="M14 395h613l69 107h-612z" />
<glyph unicode="&#x2013;" horiz-adv-x="921" d="M15 666l69 105h815l-69 -105h-815z" />
<glyph unicode="&#x2014;" horiz-adv-x="1190" d="M15 666l69 105h1083l-69 -105h-1083z" />
<glyph unicode="&#x2018;" horiz-adv-x="380" d="M15 1015v91v11q-1 2 0 3l21 187q8 74 103 121q15 8 218 75l-62 -46q-37 -27 -79 -93q-44 -70 -46 -112l-3 -71h38q73 0 74 -75v-91q0 -75 -74 -75h-117q-73 0 -73 75z" />
<glyph unicode="&#x2019;" horiz-adv-x="380" d="M15 940l62 46q37 26 78 92q44 70 47 113l3 71h-38q-73 0 -74 75v91q0 75 74 75h117q73 0 73 -75v-91v-11v-3l-21 -187q-8 -74 -103 -121q-15 -8 -218 -75z" />
<glyph unicode="&#x201a;" horiz-adv-x="380" d="M15 -318l62 46q37 27 78 93q44 70 47 113l3 70h-38q-73 0 -74 75v91q0 75 74 75h117q73 0 73 -75v-91v-11v-3l-21 -187q-8 -74 -103 -121q-15 -8 -218 -75z" />
<glyph unicode="&#x201c;" horiz-adv-x="741" d="M15 1015v91v11q-1 2 0 3l21 187q8 74 103 121q15 8 218 75l-62 -46q-37 -27 -79 -93q-44 -70 -46 -112l-3 -71h38q73 0 74 -75v-91q0 -75 -74 -75h-117q-73 0 -73 75zM376 1015v91q0 6 1 11q-1 2 -1 3l21 187q8 74 103 121q16 8 219 75l-62 -46q-37 -27 -79 -93 q-44 -70 -46 -112l-3 -71h38q73 0 73 -75v-91q0 -75 -73 -75h-118q-73 0 -73 75z" />
<glyph unicode="&#x201d;" horiz-adv-x="741" d="M15 940l62 46q37 26 78 92q44 70 47 113l3 71h-38q-73 0 -74 75v91q0 75 74 75h117q73 0 73 -75v-91v-11v-3l-21 -187q-8 -74 -103 -121q-15 -8 -218 -75zM376 940l62 46q37 26 79 92q44 70 46 113l3 71h-38q-73 0 -73 75v91q0 75 73 75h118q73 0 73 -75v-91q0 -6 -1 -11 q1 -1 1 -3l-21 -187q-8 -74 -104 -121q-15 -8 -218 -75z" />
<glyph unicode="&#x201e;" horiz-adv-x="741" d="M15 -318l62 46q37 27 78 93q44 70 47 113l3 70h-38q-73 0 -74 75v91q0 75 74 75h117q73 0 73 -75v-91v-11v-3l-21 -187q-8 -74 -103 -121q-15 -8 -218 -75zM376 -318l62 46q37 27 79 93q44 70 46 113l3 70h-38q-73 0 -73 75v91q0 75 73 75h118q73 0 73 -75v-91 q0 -6 -1 -11q1 -1 1 -3l-21 -187q-8 -74 -104 -121q-15 -8 -218 -75z" />
<glyph unicode="&#x2022;" horiz-adv-x="523" d="M15 663v174q0 144 135 144h216q134 0 134 -144v-174q0 -144 -134 -144h-216q-135 0 -135 144z" />
<glyph unicode="&#x2026;" horiz-adv-x="1232" d="M15 73v91q0 75 73 75h118q73 0 73 -75v-91q0 -75 -73 -75h-118q-73 0 -73 75zM491 73v91q0 75 74 75h117q73 0 73 -75v-91q0 -75 -73 -75h-117q-73 0 -74 75zM946 73v91q0 75 73 75h118q73 0 73 -75v-91q0 -75 -73 -75h-118q-73 0 -73 75z" />
<glyph unicode="&#x202f;" horiz-adv-x="404" />
<glyph unicode="&#x2039;" horiz-adv-x="482" d="M15 662l1 2l-1 3l1 -1l137 176l306 213l-78 -185l-360 -206l360 -205l78 -186l-306 213l-137 177z" />
<glyph unicode="&#x203a;" horiz-adv-x="482" d="M15 273l78 186l359 205l-359 206l-78 185l305 -213l137 -176l2 1l-1 -3l1 -2l-2 1l-137 -177z" />
<glyph unicode="&#x205f;" horiz-adv-x="505" />
<glyph unicode="&#x2122;" horiz-adv-x="1579" d="M15 850q0 62 142 98q116 30 269 33q67 1 243 -14q221 -19 306 -18q111 0 149 20q-37 -41 -84 -56q-42 -14 -142 -26q-99 0 -200 11l-143 16q-183 20 -246 20q-105 0 -176 -16q-90 -21 -90 -62q0 -47 73 -52q-35 3 -43 4q-25 3 -35 10q-24 15 -23 32zM130 681 q-2 162 386 227l-54 -20q-112 -33 -165 -93q-31 -35 -29 -69q2 -65 74 -109q134 -83 384 -82q10 0 17 -2q83 2 180 19q123 19 225 79l-20 -24q-166 -118 -476 -118q-338 0 -471 101q-50 39 -51 91zM542 825l180 56q50 -16 66 -36q10 -13 12 -44l207 80l103 -31v-44l228 74 l94 -32v-73h1v-84h2q2 -13 6 -28q1 -3 33 -19l54 17l29 -14l-182 -54q-66 28 -75 66l-2 2q-1 4 -1 38v115l-46 15l-141 -46v-7h2v-136q-130 -34 -136 -38v3v211l-46 14l-130 -52v-138l-210 -56l-31 16l105 29v152q0 37 -33 49l-60 -18z" />
<glyph unicode="&#x25fc;" horiz-adv-x="1076" d="M0 0v1076h1076v-1076h-1076z" />
</font>
</defs>
</svg>
