<?xml version="1.0" standalone="no"?>
<!DOCTYPE svg PUBLIC "-//W3C//DTD SVG 1.1//EN" "http://www.w3.org/Graphics/SVG/1.1/DTD/svg11.dtd" >
<svg xmlns="http://www.w3.org/2000/svg" xmlns:xlink="http://www.w3.org/1999/xlink" version="1.1">
<metadata>
Created by FontForge 20170731 at Fri Jun 28 15:21:50 2013
 By Aleksey,,,
Instruction (c) (Neale Davidson). 2012. All Rights Reserved
</metadata>
<defs>
<font id="Instruction-Bold" horiz-adv-x="1200" >
  <font-face 
    font-family="Instruction"
    font-weight="400"
    font-stretch="normal"
    units-per-em="2048"
    panose-1="2 0 5 0 0 0 0 0 0 0"
    ascent="1638"
    descent="-410"
    x-height="1520"
    cap-height="1520"
    bbox="0 -420 1500 2320"
    underline-thickness="150"
    underline-position="-442"
    unicode-range="U+0020-F002"
  />
<missing-glyph horiz-adv-x="1650" 
d="M0 200v1100q0 200 200 200h1100q200 0 200 -200v-1100q0 -200 -200 -200h-1100q-200 0 -200 200zM1475 201v1099q0 175 -175 175h-1100q-174 0 -175 -175v-1100q1 -175 175 -175h1101q174 0 174 176z" />
    <glyph glyph-name=".notdef" horiz-adv-x="1650" 
d="M0 200v1100q0 200 200 200h1100q200 0 200 -200v-1100q0 -200 -200 -200h-1100q-200 0 -200 200zM1475 201v1099q0 175 -175 175h-1100q-174 0 -175 -175v-1100q1 -175 175 -175h1101q174 0 174 176z" />
    <glyph glyph-name=".null" horiz-adv-x="0" 
 />
    <glyph glyph-name="nonmarkingreturn" horiz-adv-x="508" 
 />
    <glyph glyph-name="space" unicode=" " 
 />
    <glyph glyph-name="space" unicode="&#xa0;" 
 />
    <glyph glyph-name="exclam" unicode="!" 
d="M350 400q0 -48 -36 -84t-89 -36t-89 36t-36 84v1000q0 48 36 84t89 36t89 -36t36 -84v-1000zM314 184q36 -36 36 -84t-36 -84t-89 -36t-89 36t-36 84t36 84t89 36t89 -36z" />
    <glyph glyph-name="quotedbl" unicode="&#x22;" 
d="M100 1400q0 48 36 84t89 36t89 -36t36 -84v-300q0 -48 -36 -84t-89 -36t-89 36t-36 84v300zM500 1400q0 48 36 84t89 36t89 -36t36 -84v-300q0 -48 -36 -84t-89 -36t-89 36t-36 84v300z" />
    <glyph glyph-name="numbersign" unicode="#" 
d="M200 620v260h-75q-53 0 -89 36t-36 84t36 84t89 36h75v180q0 48 36 84t89 36t89 -36t36 -84v-180h150v180q0 48 36 84t89 36t89 -36t36 -84v-180h75q53 0 89 -36t36 -84t-36 -84t-89 -36h-75v-260h75q53 0 89 -36t36 -84t-36 -84t-89 -36h-75v-180q0 -48 -36 -84t-89 -36
t-89 36t-36 84v180h-150v-180q0 -48 -36 -84t-89 -36t-89 36t-36 84v180h-75q-53 0 -89 36t-36 84t36 84t89 36h75zM600 880h-150v-260h150v260z" />
    <glyph glyph-name="dollar" unicode="$" 
d="M650 1370h50q147 0 248.5 -101.5t101.5 -243.5q0 -48 -36 -84t-89 -36t-89 36t-36 84q0 45 -30 75t-70 30h-50v-260h50q147 0 248.5 -101.5t101.5 -243.5v-95h-2q-7 -106 -100 -199q-101 -101 -248 -101h-50v-30q0 -48 -36 -84t-89 -36t-89 36t-36 84v30h-50
q-147 0 -248.5 101.5t-101.5 243.5q0 48 36 84t89 36t89 -36t36 -84q0 -45 30 -75t70 -30h50v260h-50q-147 0 -248.5 101.5t-101.5 243.5v50q0 142 101.5 243.5t248.5 101.5h50v30q0 48 36 84t89 36t89 -36t36 -84v-30zM650 370h50q40 0 71 31q21 21 31 69h-2v55
q0 45 -30 75t-70 30h-50v-260zM400 1130h-50q-40 0 -70 -30t-30 -75v-50q0 -45 30 -75t70 -30h50v260z" />
    <glyph glyph-name="percent" unicode="%" 
d="M770 350q30 30 30 75t-30 75t-70 30t-70 -30t-30 -75t30 -75t70 -30t70 30zM420 1000q30 30 30 75t-30 75t-70 30t-70 -30t-30 -75t30 -75t70 -30t70 30zM688 774l-8 -2q0 -2 20 -2q147 0 248.5 -101.5t101.5 -243.5t-101.5 -243.5t-248.5 -101.5t-248 101q-65 65 -73 91
l-111 -180q-21 -43 -55.5 -77.5t-87.5 -34.5t-89 36t-36 84q0 46 43 109l319 517l8 2q0 2 -20 2q-147 0 -248.5 101.5t-101.5 243.5t101.5 243.5t248.5 101.5t248 -101q65 -65 73 -91l111 180q21 43 55.5 77.5t87.5 34.5t89 -36t36 -84q0 -46 -43 -109z" />
    <glyph glyph-name="ampersand" unicode="&#x26;" 
d="M590.5 929.5q59.5 59.5 59.5 145.5t-59.5 145.5t-140.5 59.5t-140.5 -59.5t-59.5 -145.5t59.5 -145.5t140.5 -59.5t140.5 59.5zM853 870h72q53 0 89 -36t36 -84t-36 -84t-89 -36h-125v-410h125q53 0 89 -36t36 -84t-36 -84t-89 -36h-475q-188 0 -319 131t-131 314
t132 315l10 10l-12 13q-130 129 -130 312t131 314t319 131t319 -131t131 -314q0 -131 -47 -205zM475 220h75v410h-99q-82 0 -141.5 -59.5t-59.5 -145.5t59.5 -145.5t165.5 -59.5z" />
    <glyph glyph-name="quotesingle" unicode="'" 
d="M100 1400q0 48 36 84t89 36t89 -36t36 -84v-300q0 -48 -36 -84t-89 -36t-89 36t-36 84v300z" />
    <glyph glyph-name="parenleft" unicode="(" 
d="M625 1720h150q53 0 89 -36t36 -84t-36 -84t-89 -36h-150q-106 0 -190.5 -211t-84.5 -519t84.5 -519t190.5 -211h150q53 0 89 -36t36 -84t-36 -84t-89 -36h-150q-223 0 -374 286t-151 684t151 684t374 286z" />
    <glyph glyph-name="parenright" unicode=")" 
d="M749 1434q151 -286 151 -684t-151 -684t-374 -286h-150q-53 0 -89 36t-36 84t36 84t89 36h150q106 0 190.5 211t84.5 519t-84.5 519t-190.5 211h-150q-53 0 -89 36t-36 84t36 84t89 36h150q223 0 374 -286z" />
    <glyph glyph-name="asterisk" unicode="*" 
d="M511 890l-73 -101q-30 -42 -81 -49q-10 -3 -23 -3q-41 0 -75 25q-40 29 -47 77q-2 10 -2 20q0 36 22 67l82 111l-129 42q-49 16 -71 62q-14 25 -14 53q0 17 6 36q15 46 61 69q28 14 59 14q20 0 39 -6l121 -39v132q0 48 36 84t89 36t89 -36t36 -84v-132l121 39q19 6 39 6
q31 0 59 -14q46 -23 61 -69q6 -19 6 -36q0 -28 -14 -55q-22 -45 -71 -60l-129 -42l82 -111q22 -31 22 -67q0 -9 -1 -19q-8 -49 -48 -78q-34 -25 -75 -25q-13 0 -23 3q-51 7 -81 49z" />
    <glyph glyph-name="plus" unicode="+" 
d="M400 630h-275q-53 0 -89 36t-36 84t36 84t89 36h275v330q0 48 36 84t89 36t89 -36t36 -84v-330h275q53 0 89 -36t36 -84t-36 -84t-89 -36h-275v-330q0 -48 -36 -84t-89 -36t-89 36t-36 84v330z" />
    <glyph glyph-name="comma" unicode="," 
d="M100 100q0 48 36 84t89 36t89 -36t36 -84v-300q0 -48 -36 -84t-89 -36t-89 36t-36 84v300z" />
    <glyph glyph-name="hyphen" unicode="-" 
d="M125 630q-53 0 -89 36t-36 84t36 84t89 36h800q53 0 89 -36t36 -84t-36 -84t-89 -36h-800z" />
    <glyph glyph-name="hyphen" unicode="&#xad;" 
d="M125 630q-53 0 -89 36t-36 84t36 84t89 36h800q53 0 89 -36t36 -84t-36 -84t-89 -36h-800z" />
    <glyph glyph-name="period" unicode="." 
d="M314 184q36 -36 36 -84t-36 -84t-89 -36t-89 36t-36 84t36 84t89 36t89 -36z" />
    <glyph glyph-name="slash" unicode="/" 
d="M268 92q-21 -43 -55.5 -77.5t-87.5 -34.5t-89 36t-36 84q0 46 43 109l739 1199q21 43 55.5 77.5t87.5 34.5t89 -36t36 -84q0 -46 -43 -109z" />
    <glyph glyph-name="zero" unicode="0" 
d="M250 546l426 689q-58 45 -151 45q-112 0 -193.5 -81.5t-81.5 -198.5v-454zM800 954l-426 -689q58 -45 151 -45q112 0 193.5 81.5t81.5 198.5v454zM985 1254q65 -109 65 -254v-500q0 -214 -153 -367t-372 -153q-170 0 -277 76q-5 -11 -34 -40q-36 -36 -89 -36t-89 36
t-36 84q0 46 43 109l22 37q-65 109 -65 254v500q0 214 153 367t372 153q170 0 277 -76q5 11 35 41q35 35 88 35t89 -36t36 -84q0 -46 -43 -109z" />
    <glyph glyph-name="one" unicode="1" 
d="M400 220v1060h-275q-53 0 -89 36t-36 84t36 84t89 36h400q53 0 89 -36t36 -84v-1180h275q53 0 89 -36t36 -84t-36 -84t-89 -36h-800q-53 0 -89 36t-36 84t36 84t89 36h275z" />
    <glyph glyph-name="two" unicode="2" 
d="M0 425q0 183 131 314t319 131h150q81 0 140.5 59.5t59.5 145.5t-59.5 145.5t-140.5 59.5h-150q-81 0 -140.5 -59.5t-59.5 -145.5q0 -48 -36 -84t-89 -36t-89 36t-36 84q0 183 131 314t319 131h150q188 0 319 -131t131 -314t-131 -314t-319 -131h-150q-81 0 -140.5 -59.5
t-59.5 -145.5v-205h675q53 0 89 -36t36 -84t-36 -84t-89 -36h-800q-53 0 -89 36t-36 84v325z" />
    <glyph glyph-name="three" unicode="3" 
d="M0 425q0 48 36 84t89 36t89 -36t36 -84q0 -86 59.5 -145.5t140.5 -59.5h150q81 0 140.5 59.5t59.5 145.5t-59.5 145.5t-140.5 59.5h-175q-53 0 -89 36t-36 84t36 84t89 36h175q81 0 140.5 59.5t59.5 145.5t-59.5 145.5t-140.5 59.5h-150q-81 0 -140.5 -59.5t-59.5 -145.5
q0 -48 -36 -84t-89 -36t-89 36t-36 84q0 183 131 314t319 131h150q188 0 319 -131t131 -314t-131 -314l-11 -11l12 -11q130 -131 130 -314t-131 -314t-319 -131h-150q-188 0 -319 131t-131 314z" />
    <glyph glyph-name="four" unicode="4" 
d="M850 1400v-780h75q53 0 89 -36t36 -84t-36 -84t-89 -36h-75v-280q0 -48 -36 -84t-89 -36t-89 36t-36 84v280h-475q-53 0 -89 36t-36 84t33 81l11 20l548 822q19 34 39 56l6 6q35 35 88 35t90 -37q35 -35 35 -83zM354 620h246v370z" />
    <glyph glyph-name="five" unicode="5" 
d="M250 1280v-260h350q188 0 319 -131t131 -314v-150q0 -183 -131 -314t-319 -131h-150q-188 0 -319 131t-131 314q0 48 36 84t89 36t89 -36t36 -84q0 -86 59.5 -145.5t140.5 -59.5h150q81 0 140.5 59.5t59.5 145.5v151q0 85 -59.5 144.5t-140.5 59.5h-475q-53 0 -89 36
t-36 84v500q0 48 36 84t89 36h800q53 0 89 -36t36 -84t-36 -84t-89 -36h-675z" />
    <glyph glyph-name="six" unicode="6" 
d="M600 870q188 0 319 -131t131 -314t-131 -314t-319 -131h-150q-188 0 -319 131t-131 314v650q0 183 131 314t319 131h150q188 0 319 -131t131 -314q0 -48 -36 -84t-89 -36t-89 36t-36 84q0 86 -59.5 145.5t-140.5 59.5h-150q-81 0 -140.5 -59.5t-59.5 -145.5v-247
q65 42 200 42h150zM450 630q-81 0 -140.5 -59.5t-59.5 -145.5t59.5 -145.5t140.5 -59.5h150q81 0 140.5 59.5t59.5 145.5t-59.5 145.5t-140.5 59.5h-150z" />
    <glyph glyph-name="seven" unicode="7" 
d="M451 870l252 410h-578q-53 0 -89 36t-36 84t36 84t89 36h800q53 0 89 -36t36 -84q0 -46 -43 -109l-259 -421h77q53 0 89 -36t36 -84t-36 -84t-89 -36h-226l-331 -538q-21 -43 -55.5 -77.5t-87.5 -34.5t-89 36t-36 84q0 46 43 109l259 421h-77q-53 0 -89 36t-36 84t36 84
t89 36h226z" />
    <glyph glyph-name="eight" unicode="8" 
d="M450 630q-81 0 -140.5 -59.5t-59.5 -145.5t59.5 -145.5t140.5 -59.5h150q81 0 140.5 59.5t59.5 145.5t-59.5 145.5t-140.5 59.5h-150zM920 739q130 -131 130 -314t-131 -314t-319 -131h-150q-188 0 -319 131t-131 314t132 315l10 10l-12 13q-130 129 -130 312t131 314
t319 131h150q188 0 319 -131t131 -314t-131 -314l-11 -11zM800 1075q0 86 -59.5 145.5t-140.5 59.5h-150q-81 0 -140.5 -59.5t-59.5 -145.5t59.5 -145.5t140.5 -59.5h150q81 0 140.5 59.5t59.5 145.5z" />
    <glyph glyph-name="nine" unicode="9" 
d="M450 630q-188 0 -319 131t-131 314t131 314t319 131h150q188 0 319 -131t131 -314v-650q0 -183 -131 -314t-319 -131h-150q-188 0 -319 131t-131 314q0 48 36 84t89 36t89 -36t36 -84q0 -86 59.5 -145.5t140.5 -59.5h150q81 0 140.5 59.5t59.5 145.5v247
q-65 -42 -200 -42h-150zM600 870q81 0 140.5 59.5t59.5 145.5t-59.5 145.5t-140.5 59.5h-150q-81 0 -140.5 -59.5t-59.5 -145.5t59.5 -145.5t140.5 -59.5h150z" />
    <glyph glyph-name="colon" unicode=":" 
d="M314 184q36 -36 36 -84t-36 -84t-89 -36t-89 36t-36 84t36 84t89 36t89 -36zM314 784q36 -36 36 -84t-36 -84t-89 -36t-89 36t-36 84t36 84t89 36t89 -36z" />
    <glyph glyph-name="semicolon" unicode=";" 
d="M314 784q36 -36 36 -84t-36 -84t-89 -36t-89 36t-36 84t36 84t89 36t89 -36zM100 100q0 48 36 84t89 36t89 -36t36 -84v-300q0 -48 -36 -84t-89 -36t-89 36t-36 84v300z" />
    <glyph glyph-name="semicolon" unicode="&#x37e;" 
d="M314 784q36 -36 36 -84t-36 -84t-89 -36t-89 36t-36 84t36 84t89 36t89 -36zM100 100q0 48 36 84t89 36t89 -36t36 -84v-300q0 -48 -36 -84t-89 -36t-89 36t-36 84v300z" />
    <glyph glyph-name="less" unicode="&#x3c;" 
d="M914 333q36 -35 36 -83t-36 -84t-89 -36t-90 36l-501 501q-34 35 -34 83t37 85l499 499q36 36 89 36t89 -36t36 -84t-37 -85l-415 -415z" />
    <glyph glyph-name="equal" unicode="=" 
d="M125 880q-53 0 -89 36t-36 84t36 84t89 36h800q53 0 89 -36t36 -84t-36 -84t-89 -36h-800zM125 380q-53 0 -89 36t-36 84t36 84t89 36h800q53 0 89 -36t36 -84t-36 -84t-89 -36h-800z" />
    <glyph glyph-name="greater" unicode="&#x3e;" 
d="M653 750l-417 417q-36 35 -36 83t36 84t89 36t90 -38l501 -499q34 -35 34 -83t-34 -83l-501 -501q-37 -36 -90 -36t-89 36t-36 84t36 83z" />
    <glyph glyph-name="question" unicode="?" 
d="M100 425q0 183 131 314t319 131h50q81 0 140.5 59.5t59.5 145.5t-59.5 145.5t-140.5 59.5h-150q-81 0 -140.5 -59.5t-59.5 -145.5q0 -48 -36 -84t-89 -36t-89 36t-36 84q0 183 131 314t319 131h150q188 0 319 -131t131 -314t-131 -314t-319 -131h-50q-81 0 -140.5 -59.5
t-59.5 -145.5v-25q0 -48 -36 -84t-89 -36t-89 36t-36 84v25zM314 184q36 -36 36 -84t-36 -84t-89 -36t-89 36t-36 84t36 84t89 36t89 -36z" />
    <glyph glyph-name="at" unicode="@" 
d="M762.5 657.5q37.5 37.5 37.5 92.5t-37.5 92.5t-87.5 37.5t-87.5 -37.5t-37.5 -92.5t37.5 -92.5t87.5 -37.5t87.5 37.5zM783 1109q-7 33 -64 89q-82 82 -194 82t-193.5 -81.5t-81.5 -198.5v-500q0 -117 81.5 -198.5t193.5 -81.5h400q53 0 89 -36t36 -84t-36 -84t-89 -36
h-400q-219 0 -372 153t-153 367v500q0 214 153 367t372 153t372 -153t153 -367v-330l-7 2q-12 -93 -102 -183q-109 -109 -266 -109t-266 109t-109 261t109 261t266 109q83 0 108 -11z" />
    <glyph glyph-name="A" unicode="A" 
d="M310 280l-51 -165q-21 -64 -50.5 -99.5t-83.5 -35.5q-53 0 -89 36t-36 84q0 37 21 85l384 1255q3 16 31 42q36 38 89 38t89 -36q28 -28 31 -44l384 -1255q21 -48 21 -85q0 -48 -36 -84t-89 -36q-54 0 -83.5 35.5t-50.5 99.5l-51 165h-430zM667 520l-142 468l-142 -468
h284z" />
    <glyph glyph-name="B" unicode="B" 
d="M600 -20h-475q-53 0 -89 36t-36 84v1300q0 48 36 84t89 36h475q188 0 319 -131t131 -314t-131 -314l-11 -11l12 -11q130 -131 130 -314t-131 -314t-319 -131zM600 1280h-350v-410h350q81 0 140.5 59.5t59.5 145.5t-59.5 145.5t-140.5 59.5zM600 630h-350v-410h350
q81 0 140.5 59.5t59.5 145.5t-59.5 145.5t-140.5 59.5z" />
    <glyph glyph-name="C" unicode="C" 
d="M800 500q0 48 36 84t89 36t89 -36t36 -84q0 -214 -153 -367t-372 -153t-372 153t-153 367v500q0 214 153 367t372 153t372 -153t153 -367q0 -48 -36 -84t-89 -36t-89 36t-36 84q0 117 -81.5 198.5t-193.5 81.5t-193.5 -81.5t-81.5 -198.5v-500q0 -117 81.5 -198.5
t193.5 -81.5t193.5 81.5t81.5 198.5z" />
    <glyph glyph-name="D" unicode="D" 
d="M125 -20q-53 0 -89 36t-36 84v1300q0 48 36 84t89 36h400q219 0 372 -153t153 -367v-500q0 -214 -153 -367t-372 -153h-400zM250 1280v-1060h275q112 0 193.5 81.5t81.5 198.5v500q0 117 -81.5 198.5t-193.5 81.5h-275z" />
    <glyph glyph-name="E" unicode="E" 
d="M925 220q53 0 89 -36t36 -84t-36 -84t-89 -36h-800q-53 0 -89 36t-36 84v1300q0 48 36 84t89 36h800q53 0 89 -36t36 -84t-36 -84t-89 -36h-675v-410h575q53 0 89 -36t36 -84t-36 -84t-89 -36h-575v-410h675z" />
    <glyph glyph-name="F" unicode="F" 
d="M250 100q0 -48 -36 -84t-89 -36t-89 36t-36 84v1300q0 48 36 84t89 36h800q53 0 89 -36t36 -84t-36 -84t-89 -36h-675v-410h575q53 0 89 -36t36 -84t-36 -84t-89 -36h-575v-530z" />
    <glyph glyph-name="G" unicode="G" 
d="M1050 100q0 -48 -36 -84t-89 -36t-89 38l-36 34q-94 -72 -275 -72q-219 0 -372 153t-153 367v500q0 214 153 367t372 153t372 -153t153 -367q0 -48 -36 -84t-89 -36t-89 36t-36 84q0 117 -81.5 198.5t-193.5 81.5t-193.5 -81.5t-81.5 -198.5v-500q0 -117 81.5 -198.5
t193.5 -81.5t193.5 81.5t81.5 198.5v30h-325q-53 0 -89 36t-36 84t36 84t89 36h450q53 0 89 -36t36 -84v-550z" />
    <glyph glyph-name="H" unicode="H" 
d="M800 630h-550v-530q0 -48 -36 -84t-89 -36t-89 36t-36 84v1300q0 48 36 84t89 36t89 -36t36 -84v-530h550v530q0 48 36 84t89 36t89 -36t36 -84v-1300q0 -48 -36 -84t-89 -36t-89 36t-36 84v530z" />
    <glyph glyph-name="I" unicode="I" 
d="M400 220v1060h-275q-53 0 -89 36t-36 84t36 84t89 36h800q53 0 89 -36t36 -84t-36 -84t-89 -36h-275v-1060h275q53 0 89 -36t36 -84t-36 -84t-89 -36h-800q-53 0 -89 36t-36 84t36 84t89 36h275z" />
    <glyph glyph-name="J" unicode="J" 
d="M36 584q36 36 89 36t89 -36t36 -84q0 -117 81.5 -198.5t193.5 -81.5t193.5 81.5t81.5 198.5v900q0 48 36 84t89 36t89 -36t36 -84v-900q0 -214 -153 -367t-372 -153t-372 153t-153 367q0 48 36 84z" />
    <glyph glyph-name="K" unicode="K" 
d="M411 680l-161 -171v-409q0 -48 -36 -84t-89 -36t-89 36t-36 84v1300q0 48 36 84t89 36t89 -36t36 -84v-546l554 592q13 19 33 39q35 35 88 35t89 -36t36 -84t-36 -84q-22 -21 -36 -30l-387 -414q1 -1 7 -14l409 -649q43 -63 43 -109q0 -48 -36 -84t-89 -36t-87.5 34.5
t-55.5 77.5z" />
    <glyph glyph-name="L" unicode="L" 
d="M250 1400v-1180h675q53 0 89 -36t36 -84t-36 -84t-89 -36h-800q-53 0 -89 36t-36 84v1300q0 48 36 84t89 36t89 -36t36 -84z" />
    <glyph glyph-name="M" unicode="M" 
d="M1050 1400v-1300q0 -48 -36 -84t-89 -36t-89 36t-36 84v467l-155 -507q-3 -16 -31 -44q-36 -36 -89 -36t-89 38q-28 26 -31 42l-155 507v-467q0 -48 -36 -84t-89 -36t-89 36t-36 84v1300q0 48 37 85q35 35 88 35t90 -37q31 -31 45 -99l265 -872l266 873q27 71 48 97
q32 38 86 38q53 0 89 -36t36 -84z" />
    <glyph glyph-name="N" unicode="N" 
d="M268 1408l532 -863v855q0 48 36 84t89 36t89 -36t36 -84v-1300q0 -48 -36 -84t-89 -36t-87.5 34.5t-55.5 77.5l-532 863v-855q0 -48 -36 -84t-89 -36t-89 36t-36 84v1300q0 48 36 84t89 36t87.5 -34.5t55.5 -77.5z" />
    <glyph glyph-name="O" unicode="O" 
d="M1050 500q0 -214 -153 -367t-372 -153t-372 153t-153 367v500q0 214 153 367t372 153t372 -153t153 -367v-500zM250 500q0 -117 81.5 -198.5t193.5 -81.5t193.5 81.5t81.5 198.5v500q0 117 -81.5 198.5t-193.5 81.5t-193.5 -81.5t-81.5 -198.5v-500z" />
    <glyph glyph-name="P" unicode="P" 
d="M600 630h-350v-530q0 -48 -36 -84t-89 -36t-89 36t-36 84v1300q0 48 36 84t89 36h475q188 0 319 -131t131 -314t-131 -314t-319 -131zM600 1280h-350v-410h350q81 0 140.5 59.5t59.5 145.5t-59.5 145.5t-140.5 59.5z" />
    <glyph glyph-name="Q" unicode="Q" 
d="M800 512v488q0 117 -81.5 198.5t-193.5 81.5t-193.5 -81.5t-81.5 -198.5v-500q0 -117 81.5 -198.5t193.5 -81.5q89 0 143 39l-125 182q-43 63 -43 109q0 48 36 84t89 36t87.5 -34.5t55.5 -77.5zM802 56q-107 -76 -277 -76q-219 0 -372 153t-153 367v500q0 214 153 367
t372 153t372 -153t153 -367v-500q0 -147 -67 -256l24 -35q43 -63 43 -109q0 -48 -36 -84t-89 -36t-89 38q-29 27 -34 38z" />
    <glyph glyph-name="R" unicode="R" 
d="M600 1280h-350v-410h350q81 0 140.5 59.5t59.5 145.5t-59.5 145.5t-140.5 59.5zM450 630h-200v-530q0 -48 -36 -84t-89 -36t-89 36t-36 84v1300q0 48 36 84t89 36h475q188 0 319 -131t131 -314t-131 -314q-92 -91 -183 -113l271 -439q43 -63 43 -109q0 -48 -36 -84
t-89 -36t-87.5 34.5t-55.5 77.5z" />
    <glyph glyph-name="S" unicode="S" 
d="M1050 1075q0 -48 -36 -84t-89 -36t-89 36t-36 84q0 86 -59.5 145.5t-140.5 59.5h-150q-81 0 -140.5 -59.5t-59.5 -145.5t59.5 -145.5t140.5 -59.5h150q188 0 319 -131t131 -314t-131 -314t-319 -131h-150q-188 0 -319 131t-131 314q0 48 36 84t89 36t89 -36t36 -84
q0 -86 59.5 -145.5t140.5 -59.5h150q81 0 140.5 59.5t59.5 145.5t-59.5 145.5t-140.5 59.5h-150q-188 0 -319 131t-131 314t131 314t319 131h150q188 0 319 -131t131 -314z" />
    <glyph glyph-name="T" unicode="T" 
d="M650 1280v-1180q0 -48 -36 -84t-89 -36t-89 36t-36 84v1180h-275q-53 0 -89 36t-36 84t36 84t89 36h800q53 0 89 -36t36 -84t-36 -84t-89 -36h-275z" />
    <glyph glyph-name="U" unicode="U" 
d="M0 1400q0 48 36 84t89 36t89 -36t36 -84v-900q0 -117 81.5 -198.5t193.5 -81.5t193.5 81.5t81.5 198.5v900q0 48 36 84t89 36t89 -36t36 -84v-900q0 -214 -153 -367t-372 -153t-372 153t-153 367v900z" />
    <glyph glyph-name="V" unicode="V" 
d="M525 -20q-53 0 -89 38q-28 26 -31 42l-384 1255q-21 48 -21 85q0 48 36 84t89 36q54 0 83.5 -35.5t50.5 -99.5l266 -873l266 873q21 64 50.5 99.5t83.5 35.5q53 0 89 -36t36 -84q0 -37 -21 -85l-384 -1255q-3 -16 -31 -44q-36 -36 -89 -36z" />
    <glyph glyph-name="W" unicode="W" 
d="M525 587l-75 -488q0 -47 -36 -83t-89 -36t-89 36t-36 83l-195 1266q-5 15 -5 35q0 48 36 84t89 36t89 -36t36 -83l75 -487l75 487q0 47 36 83t89 36t89 -36t36 -83l75 -487l75 487q0 47 36 83t89 36t89 -36t36 -84q0 -20 -5 -35l-195 -1266q0 -47 -36 -83t-89 -36t-89 36
t-36 83z" />
    <glyph glyph-name="X" unicode="X" 
d="M525 509l-257 -417q-21 -43 -55.5 -77.5t-87.5 -34.5t-89 36t-36 84q0 46 43 109l333 541l-333 541q-43 63 -43 109q0 48 36 84t89 36t87.5 -34.5t55.5 -77.5l257 -417l257 417q21 43 55.5 77.5t87.5 34.5t89 -36t36 -84q0 -46 -43 -109l-333 -541l333 -541
q43 -63 43 -109q0 -48 -36 -84t-89 -36t-87.5 34.5t-55.5 77.5z" />
    <glyph glyph-name="Y" unicode="Y" 
d="M400 712l-18 29l-339 550q-43 63 -43 109q0 48 36 84t89 36t87.5 -34.5t55.5 -77.5l257 -417l257 417q21 43 55.5 77.5t87.5 34.5t89 -36t36 -84q0 -46 -43 -109l-339 -550l-18 -29v-612q0 -48 -36 -84t-89 -36t-89 36t-36 84v612z" />
    <glyph glyph-name="Z" unicode="Z" 
d="M599 630l-252 -410h578q53 0 89 -36t36 -84t-36 -84t-89 -36h-800q-53 0 -89 36t-36 84q0 46 43 109l259 421h-77q-53 0 -89 36t-36 84t36 84t89 36h226l252 410h-578q-53 0 -89 36t-36 84t36 84t89 36h800q53 0 89 -36t36 -84q0 -46 -43 -109l-259 -421h77q53 0 89 -36
t36 -84t-36 -84t-89 -36h-226z" />
    <glyph glyph-name="bracketleft" unicode="[" 
d="M100 1600q0 48 36 84t89 36h600q53 0 89 -36t36 -84t-36 -84t-89 -36h-475v-1460h475q53 0 89 -36t36 -84t-36 -84t-89 -36h-600q-53 0 -89 36t-36 84v1700z" />
    <glyph glyph-name="backslash" unicode="\" 
d="M43 1291q-43 63 -43 109q0 48 36 84t89 36t87.5 -34.5t55.5 -77.5l739 -1199q43 -63 43 -109q0 -48 -36 -84t-89 -36t-87.5 34.5t-55.5 77.5z" />
    <glyph glyph-name="bracketright" unicode="]" 
d="M950 -100q0 -48 -36 -84t-89 -36h-600q-53 0 -89 36t-36 84t36 84t89 36h475v1460h-475q-53 0 -89 36t-36 84t36 84t89 36h600q53 0 89 -36t36 -84v-1700z" />
    <glyph glyph-name="asciicircum" unicode="^" 
d="M526 2028l-312 -312q-36 -36 -89 -36t-89 36t-36 84t37 85l400 400q35 35 88 35t90 -36l401 -401q34 -35 34 -83t-36 -84t-89 -36t-90 38z" />
    <glyph glyph-name="underscore" unicode="_" 
d="M925 -80q53 0 89 -36t36 -84t-36 -84t-89 -36h-800q-53 0 -89 36t-36 84t36 84t89 36h800z" />
    <glyph glyph-name="grave" unicode="`" 
d="M236 2117q-36 35 -36 83t36 84t89 36t90 -36l401 -401q34 -35 34 -83t-36 -84t-89 -36t-90 38z" />
    <glyph glyph-name="a" unicode="a" 
d="M310 280l-51 -165q-21 -64 -50.5 -99.5t-83.5 -35.5q-53 0 -89 36t-36 84q0 37 21 85l384 1255q3 16 31 42q36 38 89 38t89 -36q28 -28 31 -44l384 -1255q21 -48 21 -85q0 -48 -36 -84t-89 -36q-54 0 -83.5 35.5t-50.5 99.5l-51 165h-430zM667 520l-142 468l-142 -468
h284z" />
    <glyph glyph-name="b" unicode="b" 
d="M600 -20h-475q-53 0 -89 36t-36 84v1300q0 48 36 84t89 36h475q188 0 319 -131t131 -314t-131 -314l-11 -11l12 -11q130 -131 130 -314t-131 -314t-319 -131zM600 1280h-350v-410h350q81 0 140.5 59.5t59.5 145.5t-59.5 145.5t-140.5 59.5zM600 630h-350v-410h350
q81 0 140.5 59.5t59.5 145.5t-59.5 145.5t-140.5 59.5z" />
    <glyph glyph-name="c" unicode="c" 
d="M800 500q0 48 36 84t89 36t89 -36t36 -84q0 -214 -153 -367t-372 -153t-372 153t-153 367v500q0 214 153 367t372 153t372 -153t153 -367q0 -48 -36 -84t-89 -36t-89 36t-36 84q0 117 -81.5 198.5t-193.5 81.5t-193.5 -81.5t-81.5 -198.5v-500q0 -117 81.5 -198.5
t193.5 -81.5t193.5 81.5t81.5 198.5z" />
    <glyph glyph-name="d" unicode="d" 
d="M125 -20q-53 0 -89 36t-36 84v1300q0 48 36 84t89 36h400q219 0 372 -153t153 -367v-500q0 -214 -153 -367t-372 -153h-400zM250 1280v-1060h275q112 0 193.5 81.5t81.5 198.5v500q0 117 -81.5 198.5t-193.5 81.5h-275z" />
    <glyph glyph-name="e" unicode="e" 
d="M925 220q53 0 89 -36t36 -84t-36 -84t-89 -36h-800q-53 0 -89 36t-36 84v1300q0 48 36 84t89 36h800q53 0 89 -36t36 -84t-36 -84t-89 -36h-675v-410h575q53 0 89 -36t36 -84t-36 -84t-89 -36h-575v-410h675z" />
    <glyph glyph-name="f" unicode="f" 
d="M250 100q0 -48 -36 -84t-89 -36t-89 36t-36 84v1300q0 48 36 84t89 36h800q53 0 89 -36t36 -84t-36 -84t-89 -36h-675v-410h575q53 0 89 -36t36 -84t-36 -84t-89 -36h-575v-530z" />
    <glyph glyph-name="g" unicode="g" 
d="M1050 100q0 -48 -36 -84t-89 -36t-89 38l-36 34q-94 -72 -275 -72q-219 0 -372 153t-153 367v500q0 214 153 367t372 153t372 -153t153 -367q0 -48 -36 -84t-89 -36t-89 36t-36 84q0 117 -81.5 198.5t-193.5 81.5t-193.5 -81.5t-81.5 -198.5v-500q0 -117 81.5 -198.5
t193.5 -81.5t193.5 81.5t81.5 198.5v30h-325q-53 0 -89 36t-36 84t36 84t89 36h450q53 0 89 -36t36 -84v-550z" />
    <glyph glyph-name="h" unicode="h" 
d="M800 630h-550v-530q0 -48 -36 -84t-89 -36t-89 36t-36 84v1300q0 48 36 84t89 36t89 -36t36 -84v-530h550v530q0 48 36 84t89 36t89 -36t36 -84v-1300q0 -48 -36 -84t-89 -36t-89 36t-36 84v530z" />
    <glyph glyph-name="i" unicode="i" 
d="M400 220v1060h-275q-53 0 -89 36t-36 84t36 84t89 36h800q53 0 89 -36t36 -84t-36 -84t-89 -36h-275v-1060h275q53 0 89 -36t36 -84t-36 -84t-89 -36h-800q-53 0 -89 36t-36 84t36 84t89 36h275z" />
    <glyph glyph-name="j" unicode="j" 
d="M36 584q36 36 89 36t89 -36t36 -84q0 -117 81.5 -198.5t193.5 -81.5t193.5 81.5t81.5 198.5v900q0 48 36 84t89 36t89 -36t36 -84v-900q0 -214 -153 -367t-372 -153t-372 153t-153 367q0 48 36 84z" />
    <glyph glyph-name="k" unicode="k" 
d="M411 680l-161 -171v-409q0 -48 -36 -84t-89 -36t-89 36t-36 84v1300q0 48 36 84t89 36t89 -36t36 -84v-546l554 592q13 19 33 39q35 35 88 35t89 -36t36 -84t-36 -84q-22 -21 -36 -30l-387 -414q1 -1 7 -14l409 -649q43 -63 43 -109q0 -48 -36 -84t-89 -36t-87.5 34.5
t-55.5 77.5z" />
    <glyph glyph-name="l" unicode="l" 
d="M250 1400v-1180h675q53 0 89 -36t36 -84t-36 -84t-89 -36h-800q-53 0 -89 36t-36 84v1300q0 48 36 84t89 36t89 -36t36 -84z" />
    <glyph glyph-name="m" unicode="m" 
d="M1050 1400v-1300q0 -48 -36 -84t-89 -36t-89 36t-36 84v467l-155 -507q-3 -16 -31 -44q-36 -36 -89 -36t-89 38q-28 26 -31 42l-155 507v-467q0 -48 -36 -84t-89 -36t-89 36t-36 84v1300q0 48 37 85q35 35 88 35t90 -37q31 -31 45 -99l265 -872l266 873q27 71 48 97
q32 38 86 38q53 0 89 -36t36 -84z" />
    <glyph glyph-name="n" unicode="n" 
d="M268 1408l532 -863v855q0 48 36 84t89 36t89 -36t36 -84v-1300q0 -48 -36 -84t-89 -36t-87.5 34.5t-55.5 77.5l-532 863v-855q0 -48 -36 -84t-89 -36t-89 36t-36 84v1300q0 48 36 84t89 36t87.5 -34.5t55.5 -77.5z" />
    <glyph glyph-name="o" unicode="o" 
d="M1050 500q0 -214 -153 -367t-372 -153t-372 153t-153 367v500q0 214 153 367t372 153t372 -153t153 -367v-500zM250 500q0 -117 81.5 -198.5t193.5 -81.5t193.5 81.5t81.5 198.5v500q0 117 -81.5 198.5t-193.5 81.5t-193.5 -81.5t-81.5 -198.5v-500z" />
    <glyph glyph-name="p" unicode="p" 
d="M600 630h-350v-530q0 -48 -36 -84t-89 -36t-89 36t-36 84v1300q0 48 36 84t89 36h475q188 0 319 -131t131 -314t-131 -314t-319 -131zM600 1280h-350v-410h350q81 0 140.5 59.5t59.5 145.5t-59.5 145.5t-140.5 59.5z" />
    <glyph glyph-name="q" unicode="q" 
d="M800 512v488q0 117 -81.5 198.5t-193.5 81.5t-193.5 -81.5t-81.5 -198.5v-500q0 -117 81.5 -198.5t193.5 -81.5q89 0 143 39l-125 182q-43 63 -43 109q0 48 36 84t89 36t87.5 -34.5t55.5 -77.5zM802 56q-107 -76 -277 -76q-219 0 -372 153t-153 367v500q0 214 153 367
t372 153t372 -153t153 -367v-500q0 -147 -67 -256l24 -35q43 -63 43 -109q0 -48 -36 -84t-89 -36t-89 38q-29 27 -34 38z" />
    <glyph glyph-name="r" unicode="r" 
d="M600 1280h-350v-410h350q81 0 140.5 59.5t59.5 145.5t-59.5 145.5t-140.5 59.5zM450 630h-200v-530q0 -48 -36 -84t-89 -36t-89 36t-36 84v1300q0 48 36 84t89 36h475q188 0 319 -131t131 -314t-131 -314q-92 -91 -183 -113l271 -439q43 -63 43 -109q0 -48 -36 -84
t-89 -36t-87.5 34.5t-55.5 77.5z" />
    <glyph glyph-name="s" unicode="s" 
d="M1050 1075q0 -48 -36 -84t-89 -36t-89 36t-36 84q0 86 -59.5 145.5t-140.5 59.5h-150q-81 0 -140.5 -59.5t-59.5 -145.5t59.5 -145.5t140.5 -59.5h150q188 0 319 -131t131 -314t-131 -314t-319 -131h-150q-188 0 -319 131t-131 314q0 48 36 84t89 36t89 -36t36 -84
q0 -86 59.5 -145.5t140.5 -59.5h150q81 0 140.5 59.5t59.5 145.5t-59.5 145.5t-140.5 59.5h-150q-188 0 -319 131t-131 314t131 314t319 131h150q188 0 319 -131t131 -314z" />
    <glyph glyph-name="t" unicode="t" 
d="M650 1280v-1180q0 -48 -36 -84t-89 -36t-89 36t-36 84v1180h-275q-53 0 -89 36t-36 84t36 84t89 36h800q53 0 89 -36t36 -84t-36 -84t-89 -36h-275z" />
    <glyph glyph-name="u" unicode="u" 
d="M0 1400q0 48 36 84t89 36t89 -36t36 -84v-900q0 -117 81.5 -198.5t193.5 -81.5t193.5 81.5t81.5 198.5v900q0 48 36 84t89 36t89 -36t36 -84v-900q0 -214 -153 -367t-372 -153t-372 153t-153 367v900z" />
    <glyph glyph-name="v" unicode="v" 
d="M525 -20q-53 0 -89 38q-28 26 -31 42l-384 1255q-21 48 -21 85q0 48 36 84t89 36q54 0 83.5 -35.5t50.5 -99.5l266 -873l266 873q21 64 50.5 99.5t83.5 35.5q53 0 89 -36t36 -84q0 -37 -21 -85l-384 -1255q-3 -16 -31 -44q-36 -36 -89 -36z" />
    <glyph glyph-name="w" unicode="w" 
d="M525 587l-75 -488q0 -47 -36 -83t-89 -36t-89 36t-36 83l-195 1266q-5 15 -5 35q0 48 36 84t89 36t89 -36t36 -83l75 -487l75 487q0 47 36 83t89 36t89 -36t36 -83l75 -487l75 487q0 47 36 83t89 36t89 -36t36 -84q0 -20 -5 -35l-195 -1266q0 -47 -36 -83t-89 -36t-89 36
t-36 83z" />
    <glyph glyph-name="x" unicode="x" 
d="M525 509l-257 -417q-21 -43 -55.5 -77.5t-87.5 -34.5t-89 36t-36 84q0 46 43 109l333 541l-333 541q-43 63 -43 109q0 48 36 84t89 36t87.5 -34.5t55.5 -77.5l257 -417l257 417q21 43 55.5 77.5t87.5 34.5t89 -36t36 -84q0 -46 -43 -109l-333 -541l333 -541
q43 -63 43 -109q0 -48 -36 -84t-89 -36t-87.5 34.5t-55.5 77.5z" />
    <glyph glyph-name="y" unicode="y" 
d="M400 712l-18 29l-339 550q-43 63 -43 109q0 48 36 84t89 36t87.5 -34.5t55.5 -77.5l257 -417l257 417q21 43 55.5 77.5t87.5 34.5t89 -36t36 -84q0 -46 -43 -109l-339 -550l-18 -29v-612q0 -48 -36 -84t-89 -36t-89 36t-36 84v612z" />
    <glyph glyph-name="z" unicode="z" 
d="M599 630l-252 -410h578q53 0 89 -36t36 -84t-36 -84t-89 -36h-800q-53 0 -89 36t-36 84q0 46 43 109l259 421h-77q-53 0 -89 36t-36 84t36 84t89 36h226l252 410h-578q-53 0 -89 36t-36 84t36 84t89 36h800q53 0 89 -36t36 -84q0 -46 -43 -109l-259 -421h77q53 0 89 -36
t36 -84t-36 -84t-89 -36h-226z" />
    <glyph glyph-name="braceleft" unicode="{" 
d="M350 1075v125q0 214 153 367t372 153h50q53 0 89 -36t36 -84t-36 -84t-89 -36h-50q-112 0 -193.5 -81.5t-81.5 -198.5v-125q0 -183 -131 -314l-11 -11l12 -11q130 -131 130 -314v-125q0 -117 81.5 -198.5t193.5 -81.5h50q53 0 89 -36t36 -84t-36 -84t-89 -36h-50
q-219 0 -372 153t-153 367v125q0 86 -59.5 145.5t-140.5 59.5h-25q-53 0 -89 36t-36 84t36 84t89 36h25q81 0 140.5 59.5t59.5 145.5z" />
    <glyph glyph-name="bar" unicode="|" 
d="M100 1600q0 48 36 84t89 36t89 -36t36 -84v-1700q0 -48 -36 -84t-89 -36t-89 36t-36 84v1700z" />
    <glyph glyph-name="braceright" unicode="}" 
d="M759.5 929.5q59.5 -59.5 140.5 -59.5h25q53 0 89 -36t36 -84t-36 -84t-89 -36h-25q-81 0 -140.5 -59.5t-59.5 -145.5v-125q0 -214 -153 -367t-372 -153h-50q-53 0 -89 36t-36 84t36 84t89 36h50q112 0 193.5 81.5t81.5 198.5v125q0 183 130 314l12 11l-11 11
q-131 131 -131 314v125q0 117 -81.5 198.5t-193.5 81.5h-50q-53 0 -89 36t-36 84t36 84t89 36h50q219 0 372 -153t153 -367v-125q0 -86 59.5 -145.5z" />
    <glyph glyph-name="asciitilde" unicode="~" 
d="M667 1939q27 -19 58 -19q29 0 52 23t23 57q0 48 36 84t89 36t89 -36t36 -84q0 -131 -94.5 -225.5t-230.5 -94.5t-218 82l-124 99q-27 19 -58 19q-29 0 -52 -23t-23 -57q0 -48 -36 -84t-89 -36t-89 36t-36 84q0 131 94.5 225.5t230.5 94.5t218 -82z" />
    <glyph glyph-name="exclamdown" unicode="&#xa1;" 
d="M100 1100q0 48 36 84t89 36t89 -36t36 -84v-1000q0 -48 -36 -84t-89 -36t-89 36t-36 84v1000zM136 1316q-36 36 -36 84t36 84t89 36t89 -36t36 -84t-36 -84t-89 -36t-89 36z" />
    <glyph glyph-name="cent" unicode="&#xa2;" 
d="M250 475q0 -45 30 -75t70 -30h50v760h-50q-40 0 -70 -30t-30 -75v-550zM1050 500v-70h-2q-7 -106 -100 -199q-101 -101 -248 -101h-50v-30q0 -48 -36 -84t-89 -36t-89 36t-36 84v30h-50q-147 0 -248 101q-93 93 -100 199h-2v595q0 142 101.5 243.5t248.5 101.5h50v30
q0 48 36 84t89 36t89 -36t36 -84v-30h50q147 0 248.5 -101.5t101.5 -243.5q0 -48 -36 -84t-89 -36t-89 36t-36 84q0 45 -30 75t-70 30h-50v-760h50q40 0 71 31q21 21 31 69h-2v30q0 48 36 84t89 36t89 -36t36 -84z" />
    <glyph glyph-name="sterling" unicode="&#xa3;" 
d="M800 1150q0 55 -37.5 92.5t-87.5 37.5t-87.5 -37.5t-37.5 -92.5v-280h275q53 0 89 -36t36 -84t-36 -84t-89 -36h-275v-410h375q53 0 89 -36t36 -84t-36 -84t-89 -36h-800q-53 0 -89 36t-36 84t36 84t89 36h175v410h-75q-53 0 -89 36t-36 84t36 84t89 36h75v280
q0 152 109 261t266 109t266 -109t109 -261q0 -48 -36 -84t-89 -36t-89 36t-36 84z" />
    <glyph glyph-name="currency" unicode="&#xa4;" 
d="M595 675q30 30 30 75t-30 75t-70 30t-70 -30t-30 -75t30 -75t70 -30t70 30zM804 539l203 -330q43 -63 43 -109q0 -48 -36 -84t-89 -36t-87.5 34.5t-55.5 77.5l-195 317q-20 -4 -62 -4t-62 4l-195 -317q-21 -43 -55.5 -77.5t-87.5 -34.5t-89 36t-36 84q0 46 43 109
l203 330q-71 85 -71 211t71 211l-203 330q-43 63 -43 109q0 48 36 84t89 36t87.5 -34.5t55.5 -77.5l195 -317q20 4 62 4t62 -4l195 317q21 43 55.5 77.5t87.5 34.5t89 -36t36 -84q0 -46 -43 -109l-203 -330q71 -85 71 -211t-71 -211z" />
    <glyph glyph-name="yen" unicode="&#xa5;" 
d="M650 180v-80q0 -48 -36 -84t-89 -36t-89 36t-36 84v80h-175q-53 0 -89 36t-36 84t36 84t89 36h175v160h-175q-53 0 -89 36t-36 84t36 84t89 36h108l-290 471q-43 63 -43 109q0 48 36 84t89 36t87.5 -34.5t55.5 -77.5l257 -417l257 417q21 43 55.5 77.5t87.5 34.5t89 -36
t36 -84q0 -46 -43 -109l-290 -471h108q53 0 89 -36t36 -84t-36 -84t-89 -36h-175v-160h175q53 0 89 -36t36 -84t-36 -84t-89 -36h-175z" />
    <glyph glyph-name="brokenbar" unicode="&#xa6;" 
d="M350 950q0 -48 -36 -84t-89 -36t-89 36t-36 84v650q0 48 36 84t89 36t89 -36t36 -84v-650zM350 -100q0 -48 -36 -84t-89 -36t-89 36t-36 84v650q0 48 36 84t89 36t89 -36t36 -84v-650z" />
    <glyph glyph-name="section" unicode="&#xa7;" 
d="M595 675q30 30 30 75t-30 75t-70 30t-70 -30t-30 -75t30 -75t70 -30t70 30zM176 721q-20 16 -46 42q-130 129 -130 312v200q0 183 131 314t319 131h150q188 0 319 -131t131 -314q0 -48 -36 -84t-89 -36t-89 36t-36 84q0 86 -59.5 145.5t-140.5 59.5h-150
q-81 0 -140.5 -59.5t-59.5 -144.5v-201q0 -68 16 -90l-2 -3q1 0 13 12q101 101 248 101t248 -101q95 -95 101 -215q20 -15 46 -40q130 -131 130 -314v-200q0 -183 -131 -314t-319 -131h-150q-188 0 -319 131t-131 314q0 48 36 84t89 36t89 -36t36 -84q0 -86 59.5 -145.5
t140.5 -59.5h150q81 0 140.5 59.5t59.5 146.5v199q0 68 -16 90l2 3q-1 0 -13 -12q-101 -101 -248 -101t-248 101q-95 95 -101 215z" />
    <glyph glyph-name="dieresis" unicode="&#xa8;" 
d="M414 1884q36 -36 36 -84t-36 -84t-89 -36t-89 36t-36 84t36 84t89 36t89 -36zM814 1884q36 -36 36 -84t-36 -84t-89 -36t-89 36t-36 84t36 84t89 36t89 -36z" />
    <glyph glyph-name="copyright" unicode="&#xa9;" horiz-adv-x="1300" 
d="M700 1000q0 28 21.5 49t53.5 21q33 0 54 -21t21 -49q0 -110 -79.5 -190t-195.5 -80q-115 0 -195 80t-80 190v250q0 111 80 190.5t195 79.5q116 0 195.5 -79.5t79.5 -190.5q0 -27 -21 -48.5t-54 -21.5q-32 0 -53.5 21.5t-21.5 48.5q0 55 -37.5 92.5t-87.5 37.5
t-87.5 -37.5t-37.5 -92.5v-250q0 -55 37.5 -92.5t87.5 -37.5t87.5 37.5t37.5 92.5zM575 1580q-131 0 -228 -131.5t-97 -323.5t97 -323.5t228 -131.5t228 131.5t97 323.5t-97 323.5t-228 131.5zM983 1615.5q167 -204.5 167 -490.5t-167 -490.5t-408 -204.5t-408 204.5
t-167 490.5t167 490.5t408 204.5t408 -204.5z" />
    <glyph glyph-name="ordfeminine" unicode="&#xaa;" horiz-adv-x="1650" 
d="M0 200v1100q0 200 200 200h1100q200 0 200 -200v-1100q0 -200 -200 -200h-1100q-200 0 -200 200zM1475 201v1099q0 175 -175 175h-1100q-174 0 -175 -175v-1100q1 -175 175 -175h1101q174 0 174 176z" />
    <glyph glyph-name="guillemotleft" unicode="&#xab;" 
d="M714 333q36 -35 36 -83t-36 -84t-89 -36t-90 36l-501 501q-34 35 -34 83t34 83l501 499q37 38 90 38t89 -36t36 -84t-36 -83l-417 -417zM1114 333q36 -35 36 -83t-36 -84t-89 -36t-90 36l-501 501q-34 35 -34 83t34 83l501 499q37 38 90 38t89 -36t36 -84t-36 -83
l-417 -417z" />
    <glyph glyph-name="logicalnot" unicode="&#xac;" horiz-adv-x="1650" 
d="M0 200v1100q0 200 200 200h1100q200 0 200 -200v-1100q0 -200 -200 -200h-1100q-200 0 -200 200zM1475 201v1099q0 175 -175 175h-1100q-174 0 -175 -175v-1100q1 -175 175 -175h1101q174 0 174 176z" />
    <glyph glyph-name="registered" unicode="&#xae;" horiz-adv-x="1300" 
d="M613 1380h-163v-185h163q34 0 60.5 26.5t26.5 66.5q0 39 -26.5 65.5t-60.5 26.5zM442 693q21 -23 133 -23t142 32q61 23 61 27q0 1 -3 1q-32 0 -52 20t-31 42l-162 263h-80v-255q0 -27 -21 -48.5t-54 -21.5q-3 0 -3 -1q0 -5 70 -36zM272 1345q-22 -30 -22 -220t30 -231
q19 -94 20 -94v650q-1 0 -28 -105zM870 894q30 41 30 231q0 192 -97 323.5t-228 131.5q-112 0 -133 -23q-70 -31 -70 -36q0 -1 3 -1h238q100 0 168.5 -68.5t68.5 -163.5t-69 -164q-48 -47 -83 -56l129 -209q23 -33 23 -59q1 0 20 94zM1150 1125q0 -286 -167 -490.5
t-408 -204.5t-408 204.5t-167 490.5t167 490.5t408 204.5t408 -204.5t167 -490.5z" />
    <glyph glyph-name="macron" unicode="&#xaf;" horiz-adv-x="1650" 
d="M0 200v1100q0 200 200 200h1100q200 0 200 -200v-1100q0 -200 -200 -200h-1100q-200 0 -200 200zM1475 201v1099q0 175 -175 175h-1100q-174 0 -175 -175v-1100q1 -175 175 -175h1101q174 0 174 176z" />
    <glyph glyph-name="degree" unicode="&#xb0;" horiz-adv-x="1650" 
d="M0 200v1100q0 200 200 200h1100q200 0 200 -200v-1100q0 -200 -200 -200h-1100q-200 0 -200 200zM1475 201v1099q0 175 -175 175h-1100q-174 0 -175 -175v-1100q1 -175 175 -175h1101q174 0 174 176z" />
    <glyph glyph-name="plusminus" unicode="&#xb1;" horiz-adv-x="1650" 
d="M0 200v1100q0 200 200 200h1100q200 0 200 -200v-1100q0 -200 -200 -200h-1100q-200 0 -200 200zM1475 201v1099q0 175 -175 175h-1100q-174 0 -175 -175v-1100q1 -175 175 -175h1101q174 0 174 176z" />
    <glyph glyph-name="uni00B2" unicode="&#xb2;" horiz-adv-x="1650" 
d="M0 200v1100q0 200 200 200h1100q200 0 200 -200v-1100q0 -200 -200 -200h-1100q-200 0 -200 200zM1475 201v1099q0 175 -175 175h-1100q-174 0 -175 -175v-1100q1 -175 175 -175h1101q174 0 174 176z" />
    <glyph glyph-name="uni00B3" unicode="&#xb3;" horiz-adv-x="1650" 
d="M0 200v1100q0 200 200 200h1100q200 0 200 -200v-1100q0 -200 -200 -200h-1100q-200 0 -200 200zM1475 201v1099q0 175 -175 175h-1100q-174 0 -175 -175v-1100q1 -175 175 -175h1101q174 0 174 176z" />
    <glyph glyph-name="acute" unicode="&#xb4;" 
d="M414 1716q-36 -36 -89 -36t-89 36t-36 84t37 85l400 400q35 35 88 35t89 -36t36 -84t-36 -84z" />
    <glyph glyph-name="mu" unicode="&#xb5;" 
d="M0 1400q0 48 36 84t89 36t89 -36t36 -84v-900q0 -117 81.5 -198.5t193.5 -81.5t193.5 81.5t81.5 198.5v900q0 48 36 84t89 36t89 -36t36 -84v-900q0 -214 -153 -367t-372 -153q-181 0 -275 72l-36 -36q-36 -36 -89 -36t-89 36t-36 84v1300z" />
    <glyph glyph-name="paragraph" unicode="&#xb6;" horiz-adv-x="1024" 
d="M979 1455v-110h-127v-1365h-132v1365h-116v-1365h-134v739q-161 8 -269 108.5t-108 258.5q0 164 114.5 266.5t303.5 102.5h468z" />
    <glyph glyph-name="periodcentered" unicode="&#xb7;" 
d="M314 784q36 -36 36 -84t-36 -84t-89 -36t-89 36t-36 84t36 84t89 36t89 -36z" />
    <glyph glyph-name="periodcentered" unicode="&#x2219;" 
d="M314 784q36 -36 36 -84t-36 -84t-89 -36t-89 36t-36 84t36 84t89 36t89 -36z" />
    <glyph glyph-name="cedilla" unicode="&#xb8;" 
d="M225 -180h75q81 0 140.5 59.5t59.5 145.5q0 48 36 84t89 36t89 -36t36 -84q0 -183 -131 -314t-319 -131h-75q-53 0 -89 36t-36 84t36 84t89 36z" />
    <glyph glyph-name="uni00B9" unicode="&#xb9;" horiz-adv-x="1650" 
d="M0 200v1100q0 200 200 200h1100q200 0 200 -200v-1100q0 -200 -200 -200h-1100q-200 0 -200 200zM1475 201v1099q0 175 -175 175h-1100q-174 0 -175 -175v-1100q1 -175 175 -175h1101q174 0 174 176z" />
    <glyph glyph-name="ordmasculine" unicode="&#xba;" horiz-adv-x="1650" 
d="M0 200v1100q0 200 200 200h1100q200 0 200 -200v-1100q0 -200 -200 -200h-1100q-200 0 -200 200zM1475 201v1099q0 175 -175 175h-1100q-174 0 -175 -175v-1100q1 -175 175 -175h1101q174 0 174 176z" />
    <glyph glyph-name="guillemotright" unicode="&#xbb;" 
d="M853 750l-417 417q-36 35 -36 83t36 84t89 36t90 -38l501 -499q34 -35 34 -83t-34 -83l-501 -501q-37 -36 -90 -36t-89 36t-36 84t36 83zM453 750l-417 417q-36 35 -36 83t36 84t89 36t90 -38l501 -499q34 -35 34 -83t-34 -83l-501 -501q-37 -36 -90 -36t-89 36t-36 84
t36 83z" />
    <glyph glyph-name="onequarter" unicode="&#xbc;" horiz-adv-x="1650" 
d="M0 200v1100q0 200 200 200h1100q200 0 200 -200v-1100q0 -200 -200 -200h-1100q-200 0 -200 200zM1475 201v1099q0 175 -175 175h-1100q-174 0 -175 -175v-1100q1 -175 175 -175h1101q174 0 174 176z" />
    <glyph glyph-name="onehalf" unicode="&#xbd;" horiz-adv-x="1650" 
d="M0 200v1100q0 200 200 200h1100q200 0 200 -200v-1100q0 -200 -200 -200h-1100q-200 0 -200 200zM1475 201v1099q0 175 -175 175h-1100q-174 0 -175 -175v-1100q1 -175 175 -175h1101q174 0 174 176z" />
    <glyph glyph-name="threequarters" unicode="&#xbe;" horiz-adv-x="1650" 
d="M0 200v1100q0 200 200 200h1100q200 0 200 -200v-1100q0 -200 -200 -200h-1100q-200 0 -200 200zM1475 201v1099q0 175 -175 175h-1100q-174 0 -175 -175v-1100q1 -175 175 -175h1101q174 0 174 176z" />
    <glyph glyph-name="questiondown" unicode="&#xbf;" 
d="M950 1075q0 -183 -131 -314t-319 -131h-50q-81 0 -140.5 -59.5t-59.5 -145.5t59.5 -145.5t140.5 -59.5h150q81 0 140.5 59.5t59.5 145.5q0 48 36 84t89 36t89 -36t36 -84q0 -183 -131 -314t-319 -131h-150q-188 0 -319 131t-131 314t131 314t319 131h50q81 0 140.5 59.5
t59.5 145.5v25q0 48 36 84t89 36t89 -36t36 -84v-25zM736 1316q-36 36 -36 84t36 84t89 36t89 -36t36 -84t-36 -84t-89 -36t-89 36z" />
    <glyph glyph-name="Agrave" unicode="&#xc0;" 
d="M310 280l-51 -165q-21 -64 -50.5 -99.5t-83.5 -35.5q-53 0 -89 36t-36 84q0 37 21 85l384 1255q3 16 31 42q36 38 89 38t89 -36q28 -28 31 -44l384 -1255q21 -48 21 -85q0 -48 -36 -84t-89 -36q-54 0 -83.5 35.5t-50.5 99.5l-51 165h-430zM667 520l-142 468l-142 -468
h284zM236 2117q-36 35 -36 83t36 84t89 36t90 -36l401 -401q34 -35 34 -83t-36 -84t-89 -36t-90 38z" />
    <glyph glyph-name="Aacute" unicode="&#xc1;" 
d="M310 280l-51 -165q-21 -64 -50.5 -99.5t-83.5 -35.5q-53 0 -89 36t-36 84q0 37 21 85l384 1255q3 16 31 42q36 38 89 38t89 -36q28 -28 31 -44l384 -1255q21 -48 21 -85q0 -48 -36 -84t-89 -36q-54 0 -83.5 35.5t-50.5 99.5l-51 165h-430zM667 520l-142 468l-142 -468
h284zM414 1716q-36 -36 -89 -36t-89 36t-36 84t37 85l400 400q35 35 88 35t89 -36t36 -84t-36 -84z" />
    <glyph glyph-name="Acircumflex" unicode="&#xc2;" 
d="M310 280l-51 -165q-21 -64 -50.5 -99.5t-83.5 -35.5q-53 0 -89 36t-36 84q0 37 21 85l384 1255q3 16 31 42q36 38 89 38t89 -36q28 -28 31 -44l384 -1255q21 -48 21 -85q0 -48 -36 -84t-89 -36q-54 0 -83.5 35.5t-50.5 99.5l-51 165h-430zM667 520l-142 468l-142 -468
h284zM526 2028l-312 -312q-36 -36 -89 -36t-89 36t-36 84t37 85l400 400q35 35 88 35t90 -36l401 -401q34 -35 34 -83t-36 -84t-89 -36t-90 38z" />
    <glyph glyph-name="Atilde" unicode="&#xc3;" 
d="M310 280l-51 -165q-21 -64 -50.5 -99.5t-83.5 -35.5q-53 0 -89 36t-36 84q0 37 21 85l384 1255q3 16 31 42q36 38 89 38t89 -36q28 -28 31 -44l384 -1255q21 -48 21 -85q0 -48 -36 -84t-89 -36q-54 0 -83.5 35.5t-50.5 99.5l-51 165h-430zM667 520l-142 468l-142 -468
h284zM667 1939q27 -19 58 -19q29 0 52 23t23 57q0 48 36 84t89 36t89 -36t36 -84q0 -131 -94.5 -225.5t-230.5 -94.5t-218 82l-124 99q-27 19 -58 19q-29 0 -52 -23t-23 -57q0 -48 -36 -84t-89 -36t-89 36t-36 84q0 131 94.5 225.5t230.5 94.5t218 -82z" />
    <glyph glyph-name="Adieresis" unicode="&#xc4;" 
d="M310 280l-51 -165q-21 -64 -50.5 -99.5t-83.5 -35.5q-53 0 -89 36t-36 84q0 37 21 85l384 1255q3 16 31 42q36 38 89 38t89 -36q28 -28 31 -44l384 -1255q21 -48 21 -85q0 -48 -36 -84t-89 -36q-54 0 -83.5 35.5t-50.5 99.5l-51 165h-430zM667 520l-142 468l-142 -468
h284zM414 1884q36 -36 36 -84t-36 -84t-89 -36t-89 36t-36 84t36 84t89 36t89 -36zM814 1884q36 -36 36 -84t-36 -84t-89 -36t-89 36t-36 84t36 84t89 36t89 -36z" />
    <glyph glyph-name="Aring" unicode="&#xc5;" 
d="M310 280l-51 -165q-21 -64 -50.5 -99.5t-83.5 -35.5q-53 0 -89 36t-36 84q0 37 21 85l384 1255q3 16 31 42q36 38 89 38t89 -36q28 -28 31 -44l384 -1255q21 -48 21 -85q0 -48 -36 -84t-89 -36q-54 0 -83.5 35.5t-50.5 99.5l-51 165h-430zM667 520l-142 468l-142 -468
h284zM525 1680q-136 0 -230.5 94.5t-94.5 225.5t94.5 225.5t230.5 94.5t230.5 -94.5t94.5 -225.5t-94.5 -225.5t-230.5 -94.5zM577 1943q23 23 23 57t-23 57t-52 23t-52 -23t-23 -57t23 -57t52 -23t52 23z" />
    <glyph glyph-name="AE" unicode="&#xc6;" 
d="M1025 1520q53 0 89 -36t36 -84t-36 -84t-89 -36h-275v-410h175q53 0 89 -36t36 -84t-36 -84t-89 -36h-175v-410h275q53 0 89 -36t36 -84t-36 -84t-89 -36h-400q-53 0 -89 36t-36 84v180h-190l-51 -165q-21 -64 -50.5 -99.5t-83.5 -35.5q-53 0 -89 36t-36 84q0 37 21 85
l384 1255q3 16 31 42q36 38 89 38h500zM500 905l-117 -385h117v385z" />
    <glyph glyph-name="Ccedilla" unicode="&#xc7;" 
d="M497 -20q-191 0 -344 155q-153 151 -153 365v500q0 214 153 367t372 153t372 -153t153 -367q0 -48 -36 -84t-89 -36t-89 36t-36 84q0 117 -81.5 198.5t-193.5 81.5t-193.5 -81.5t-81.5 -198.5v-500q0 -117 81.5 -198.5t193.5 -81.5t193.5 81.5t81.5 198.5q0 48 36 84
t89 36t89 -36t36 -84q0 -214 -153 -367q-73 -73 -146 -104q0 2 -1 2v-6q0 -183 -131 -314t-319 -131h-75q-53 0 -89 36t-36 84t36 84t89 36h75q81 0 141 60q51 51 56 100z" />
    <glyph glyph-name="Egrave" unicode="&#xc8;" 
d="M925 220q53 0 89 -36t36 -84t-36 -84t-89 -36h-800q-53 0 -89 36t-36 84v1300q0 48 36 84t89 36h800q53 0 89 -36t36 -84t-36 -84t-89 -36h-675v-410h575q53 0 89 -36t36 -84t-36 -84t-89 -36h-575v-410h675zM236 2117q-36 35 -36 83t36 84t89 36t90 -36l401 -401
q34 -35 34 -83t-36 -84t-89 -36t-90 38z" />
    <glyph glyph-name="Eacute" unicode="&#xc9;" 
d="M925 220q53 0 89 -36t36 -84t-36 -84t-89 -36h-800q-53 0 -89 36t-36 84v1300q0 48 36 84t89 36h800q53 0 89 -36t36 -84t-36 -84t-89 -36h-675v-410h575q53 0 89 -36t36 -84t-36 -84t-89 -36h-575v-410h675zM414 1716q-36 -36 -89 -36t-89 36t-36 84t37 85l400 400
q35 35 88 35t89 -36t36 -84t-36 -84z" />
    <glyph glyph-name="Ecircumflex" unicode="&#xca;" 
d="M925 220q53 0 89 -36t36 -84t-36 -84t-89 -36h-800q-53 0 -89 36t-36 84v1300q0 48 36 84t89 36h800q53 0 89 -36t36 -84t-36 -84t-89 -36h-675v-410h575q53 0 89 -36t36 -84t-36 -84t-89 -36h-575v-410h675zM526 2028l-312 -312q-36 -36 -89 -36t-89 36t-36 84t37 85
l400 400q35 35 88 35t90 -36l401 -401q34 -35 34 -83t-36 -84t-89 -36t-90 38z" />
    <glyph glyph-name="Edieresis" unicode="&#xcb;" 
d="M925 220q53 0 89 -36t36 -84t-36 -84t-89 -36h-800q-53 0 -89 36t-36 84v1300q0 48 36 84t89 36h800q53 0 89 -36t36 -84t-36 -84t-89 -36h-675v-410h575q53 0 89 -36t36 -84t-36 -84t-89 -36h-575v-410h675zM414 1884q36 -36 36 -84t-36 -84t-89 -36t-89 36t-36 84
t36 84t89 36t89 -36zM814 1884q36 -36 36 -84t-36 -84t-89 -36t-89 36t-36 84t36 84t89 36t89 -36z" />
    <glyph glyph-name="Igrave" unicode="&#xcc;" 
d="M400 220v1060h-275q-53 0 -89 36t-36 84t36 84t89 36h800q53 0 89 -36t36 -84t-36 -84t-89 -36h-275v-1060h275q53 0 89 -36t36 -84t-36 -84t-89 -36h-800q-53 0 -89 36t-36 84t36 84t89 36h275zM236 2117q-36 35 -36 83t36 84t89 36t90 -36l401 -401q34 -35 34 -83
t-36 -84t-89 -36t-90 38z" />
    <glyph glyph-name="Iacute" unicode="&#xcd;" 
d="M400 220v1060h-275q-53 0 -89 36t-36 84t36 84t89 36h800q53 0 89 -36t36 -84t-36 -84t-89 -36h-275v-1060h275q53 0 89 -36t36 -84t-36 -84t-89 -36h-800q-53 0 -89 36t-36 84t36 84t89 36h275zM414 1716q-36 -36 -89 -36t-89 36t-36 84t37 85l400 400q35 35 88 35
t89 -36t36 -84t-36 -84z" />
    <glyph glyph-name="Icircumflex" unicode="&#xce;" 
d="M400 220v1060h-275q-53 0 -89 36t-36 84t36 84t89 36h800q53 0 89 -36t36 -84t-36 -84t-89 -36h-275v-1060h275q53 0 89 -36t36 -84t-36 -84t-89 -36h-800q-53 0 -89 36t-36 84t36 84t89 36h275zM526 2028l-312 -312q-36 -36 -89 -36t-89 36t-36 84t37 85l400 400
q35 35 88 35t90 -36l401 -401q34 -35 34 -83t-36 -84t-89 -36t-90 38z" />
    <glyph glyph-name="Idieresis" unicode="&#xcf;" 
d="M400 220v1060h-275q-53 0 -89 36t-36 84t36 84t89 36h800q53 0 89 -36t36 -84t-36 -84t-89 -36h-275v-1060h275q53 0 89 -36t36 -84t-36 -84t-89 -36h-800q-53 0 -89 36t-36 84t36 84t89 36h275zM414 1884q36 -36 36 -84t-36 -84t-89 -36t-89 36t-36 84t36 84t89 36
t89 -36zM814 1884q36 -36 36 -84t-36 -84t-89 -36t-89 36t-36 84t36 84t89 36t89 -36z" />
    <glyph glyph-name="Eth" unicode="&#xd0;" 
d="M250 630v-410h275q112 0 193.5 81.5t81.5 198.5v500q0 117 -81.5 198.5t-193.5 81.5h-275v-410h275q53 0 89 -36t36 -84t-36 -84t-89 -36h-275zM125 -20q-53 0 -89 36t-36 84v1300q0 48 36 84t89 36h400q219 0 372 -153t153 -367v-500q0 -214 -153 -367t-372 -153h-400z
" />
    <glyph glyph-name="Ntilde" unicode="&#xd1;" 
d="M268 1408l532 -863v855q0 48 36 84t89 36t89 -36t36 -84v-1300q0 -48 -36 -84t-89 -36t-87.5 34.5t-55.5 77.5l-532 863v-855q0 -48 -36 -84t-89 -36t-89 36t-36 84v1300q0 48 36 84t89 36t87.5 -34.5t55.5 -77.5zM667 1939q27 -19 58 -19q29 0 52 23t23 57q0 48 36 84
t89 36t89 -36t36 -84q0 -131 -94.5 -225.5t-230.5 -94.5t-218 82l-124 99q-27 19 -58 19q-29 0 -52 -23t-23 -57q0 -48 -36 -84t-89 -36t-89 36t-36 84q0 131 94.5 225.5t230.5 94.5t218 -82z" />
    <glyph glyph-name="Ograve" unicode="&#xd2;" 
d="M1050 500q0 -214 -153 -367t-372 -153t-372 153t-153 367v500q0 214 153 367t372 153t372 -153t153 -367v-500zM250 500q0 -117 81.5 -198.5t193.5 -81.5t193.5 81.5t81.5 198.5v500q0 117 -81.5 198.5t-193.5 81.5t-193.5 -81.5t-81.5 -198.5v-500zM236 2117
q-36 35 -36 83t36 84t89 36t90 -36l401 -401q34 -35 34 -83t-36 -84t-89 -36t-90 38z" />
    <glyph glyph-name="Oacute" unicode="&#xd3;" 
d="M1050 500q0 -214 -153 -367t-372 -153t-372 153t-153 367v500q0 214 153 367t372 153t372 -153t153 -367v-500zM250 500q0 -117 81.5 -198.5t193.5 -81.5t193.5 81.5t81.5 198.5v500q0 117 -81.5 198.5t-193.5 81.5t-193.5 -81.5t-81.5 -198.5v-500zM414 1716
q-36 -36 -89 -36t-89 36t-36 84t37 85l400 400q35 35 88 35t89 -36t36 -84t-36 -84z" />
    <glyph glyph-name="Ocircumflex" unicode="&#xd4;" 
d="M1050 500q0 -214 -153 -367t-372 -153t-372 153t-153 367v500q0 214 153 367t372 153t372 -153t153 -367v-500zM250 500q0 -117 81.5 -198.5t193.5 -81.5t193.5 81.5t81.5 198.5v500q0 117 -81.5 198.5t-193.5 81.5t-193.5 -81.5t-81.5 -198.5v-500zM526 2028l-312 -312
q-36 -36 -89 -36t-89 36t-36 84t37 85l400 400q35 35 88 35t90 -36l401 -401q34 -35 34 -83t-36 -84t-89 -36t-90 38z" />
    <glyph glyph-name="Otilde" unicode="&#xd5;" 
d="M1050 500q0 -214 -153 -367t-372 -153t-372 153t-153 367v500q0 214 153 367t372 153t372 -153t153 -367v-500zM250 500q0 -117 81.5 -198.5t193.5 -81.5t193.5 81.5t81.5 198.5v500q0 117 -81.5 198.5t-193.5 81.5t-193.5 -81.5t-81.5 -198.5v-500zM667 1939
q27 -19 58 -19q29 0 52 23t23 57q0 48 36 84t89 36t89 -36t36 -84q0 -131 -94.5 -225.5t-230.5 -94.5t-218 82l-124 99q-27 19 -58 19q-29 0 -52 -23t-23 -57q0 -48 -36 -84t-89 -36t-89 36t-36 84q0 131 94.5 225.5t230.5 94.5t218 -82z" />
    <glyph glyph-name="Odieresis" unicode="&#xd6;" 
d="M1050 500q0 -214 -153 -367t-372 -153t-372 153t-153 367v500q0 214 153 367t372 153t372 -153t153 -367v-500zM250 500q0 -117 81.5 -198.5t193.5 -81.5t193.5 81.5t81.5 198.5v500q0 117 -81.5 198.5t-193.5 81.5t-193.5 -81.5t-81.5 -198.5v-500zM414 1884
q36 -36 36 -84t-36 -84t-89 -36t-89 36t-36 84t36 84t89 36t89 -36zM814 1884q36 -36 36 -84t-36 -84t-89 -36t-89 36t-36 84t36 84t89 36t89 -36z" />
    <glyph glyph-name="multiply" unicode="&#xd7;" 
d="M525 509l-197 -317q-21 -43 -55.5 -77.5t-87.5 -34.5t-89 36t-36 84q0 46 43 109l273 441l-273 441q-43 63 -43 109q0 48 36 84t89 36t87.5 -34.5t55.5 -77.5l197 -317l197 317q21 43 55.5 77.5t87.5 34.5t89 -36t36 -84q0 -46 -43 -109l-273 -441l273 -441
q43 -63 43 -109q0 -48 -36 -84t-89 -36t-87.5 34.5t-55.5 77.5z" />
    <glyph glyph-name="Oslash" unicode="&#xd8;" 
d="M250 546l426 689q-58 45 -151 45q-112 0 -193.5 -81.5t-81.5 -198.5v-454zM800 954l-426 -689q58 -45 151 -45q112 0 193.5 81.5t81.5 198.5v454zM985 1254q65 -109 65 -254v-500q0 -214 -153 -367t-372 -153q-170 0 -277 76q-5 -11 -34 -40q-36 -36 -89 -36t-89 36
t-36 84q0 46 43 109l22 37q-65 109 -65 254v500q0 214 153 367t372 153q170 0 277 -76q5 11 35 41q35 35 88 35t89 -36t36 -84q0 -46 -43 -109z" />
    <glyph glyph-name="Ugrave" unicode="&#xd9;" 
d="M0 1400q0 48 36 84t89 36t89 -36t36 -84v-900q0 -117 81.5 -198.5t193.5 -81.5t193.5 81.5t81.5 198.5v900q0 48 36 84t89 36t89 -36t36 -84v-900q0 -214 -153 -367t-372 -153t-372 153t-153 367v900zM236 2117q-36 35 -36 83t36 84t89 36t90 -36l401 -401q34 -35 34 -83
t-36 -84t-89 -36t-90 38z" />
    <glyph glyph-name="Uacute" unicode="&#xda;" 
d="M0 1400q0 48 36 84t89 36t89 -36t36 -84v-900q0 -117 81.5 -198.5t193.5 -81.5t193.5 81.5t81.5 198.5v900q0 48 36 84t89 36t89 -36t36 -84v-900q0 -214 -153 -367t-372 -153t-372 153t-153 367v900zM414 1716q-36 -36 -89 -36t-89 36t-36 84t37 85l400 400q35 35 88 35
t89 -36t36 -84t-36 -84z" />
    <glyph glyph-name="Ucircumflex" unicode="&#xdb;" 
d="M0 1400q0 48 36 84t89 36t89 -36t36 -84v-900q0 -117 81.5 -198.5t193.5 -81.5t193.5 81.5t81.5 198.5v900q0 48 36 84t89 36t89 -36t36 -84v-900q0 -214 -153 -367t-372 -153t-372 153t-153 367v900zM526 2028l-312 -312q-36 -36 -89 -36t-89 36t-36 84t37 85l400 400
q35 35 88 35t90 -36l401 -401q34 -35 34 -83t-36 -84t-89 -36t-90 38z" />
    <glyph glyph-name="Udieresis" unicode="&#xdc;" 
d="M0 1400q0 48 36 84t89 36t89 -36t36 -84v-900q0 -117 81.5 -198.5t193.5 -81.5t193.5 81.5t81.5 198.5v900q0 48 36 84t89 36t89 -36t36 -84v-900q0 -214 -153 -367t-372 -153t-372 153t-153 367v900zM414 1884q36 -36 36 -84t-36 -84t-89 -36t-89 36t-36 84t36 84t89 36
t89 -36zM814 1884q36 -36 36 -84t-36 -84t-89 -36t-89 36t-36 84t36 84t89 36t89 -36z" />
    <glyph glyph-name="Yacute" unicode="&#xdd;" 
d="M400 712l-18 29l-339 550q-43 63 -43 109q0 48 36 84t89 36t87.5 -34.5t55.5 -77.5l257 -417l257 417q21 43 55.5 77.5t87.5 34.5t89 -36t36 -84q0 -46 -43 -109l-339 -550l-18 -29v-612q0 -48 -36 -84t-89 -36t-89 36t-36 84v612zM414 1716q-36 -36 -89 -36t-89 36
t-36 84t37 85l400 400q35 35 88 35t89 -36t36 -84t-36 -84z" />
    <glyph glyph-name="Thorn" unicode="&#xde;" 
d="M600 980h-350v-410h350q81 0 140.5 59.5t59.5 145.5t-59.5 145.5t-140.5 59.5zM250 1220h350q188 0 319 -131t131 -314t-131 -314t-319 -131h-350v-230q0 -48 -36 -84t-89 -36t-89 36t-36 84v1300q0 48 36 84t89 36t89 -36t36 -84v-180z" />
    <glyph glyph-name="germandbls" unicode="&#xdf;" 
d="M525 -20q-53 0 -89 36t-36 84t36 84t89 36h75q81 0 140.5 59.5t59.5 145.5t-59.5 145.5t-140.5 59.5h-75q-53 0 -89 36t-36 84t36 84t89 36h75q81 0 140.5 59.5t59.5 145.5t-59.5 145.5t-140.5 59.5h-150q-81 0 -140.5 -59.5t-59.5 -145.5v-975q0 -48 -36 -84t-89 -36
t-89 36t-36 84v975q0 183 131 314t319 131h150q188 0 319 -131t131 -314t-131 -314l-11 -11l12 -11q130 -131 130 -314t-131 -314t-319 -131h-75z" />
    <glyph glyph-name="agrave" unicode="&#xe0;" 
d="M310 280l-51 -165q-21 -64 -50.5 -99.5t-83.5 -35.5q-53 0 -89 36t-36 84q0 37 21 85l384 1255q3 16 31 42q36 38 89 38t89 -36q28 -28 31 -44l384 -1255q21 -48 21 -85q0 -48 -36 -84t-89 -36q-54 0 -83.5 35.5t-50.5 99.5l-51 165h-430zM667 520l-142 468l-142 -468
h284zM236 2117q-36 35 -36 83t36 84t89 36t90 -36l401 -401q34 -35 34 -83t-36 -84t-89 -36t-90 38z" />
    <glyph glyph-name="aacute" unicode="&#xe1;" 
d="M310 280l-51 -165q-21 -64 -50.5 -99.5t-83.5 -35.5q-53 0 -89 36t-36 84q0 37 21 85l384 1255q3 16 31 42q36 38 89 38t89 -36q28 -28 31 -44l384 -1255q21 -48 21 -85q0 -48 -36 -84t-89 -36q-54 0 -83.5 35.5t-50.5 99.5l-51 165h-430zM667 520l-142 468l-142 -468
h284zM414 1716q-36 -36 -89 -36t-89 36t-36 84t37 85l400 400q35 35 88 35t89 -36t36 -84t-36 -84z" />
    <glyph glyph-name="acircumflex" unicode="&#xe2;" 
d="M310 280l-51 -165q-21 -64 -50.5 -99.5t-83.5 -35.5q-53 0 -89 36t-36 84q0 37 21 85l384 1255q3 16 31 42q36 38 89 38t89 -36q28 -28 31 -44l384 -1255q21 -48 21 -85q0 -48 -36 -84t-89 -36q-54 0 -83.5 35.5t-50.5 99.5l-51 165h-430zM667 520l-142 468l-142 -468
h284zM526 2028l-312 -312q-36 -36 -89 -36t-89 36t-36 84t37 85l400 400q35 35 88 35t90 -36l401 -401q34 -35 34 -83t-36 -84t-89 -36t-90 38z" />
    <glyph glyph-name="atilde" unicode="&#xe3;" 
d="M310 280l-51 -165q-21 -64 -50.5 -99.5t-83.5 -35.5q-53 0 -89 36t-36 84q0 37 21 85l384 1255q3 16 31 42q36 38 89 38t89 -36q28 -28 31 -44l384 -1255q21 -48 21 -85q0 -48 -36 -84t-89 -36q-54 0 -83.5 35.5t-50.5 99.5l-51 165h-430zM667 520l-142 468l-142 -468
h284zM667 1939q27 -19 58 -19q29 0 52 23t23 57q0 48 36 84t89 36t89 -36t36 -84q0 -131 -94.5 -225.5t-230.5 -94.5t-218 82l-124 99q-27 19 -58 19q-29 0 -52 -23t-23 -57q0 -48 -36 -84t-89 -36t-89 36t-36 84q0 131 94.5 225.5t230.5 94.5t218 -82z" />
    <glyph glyph-name="adieresis" unicode="&#xe4;" 
d="M310 280l-51 -165q-21 -64 -50.5 -99.5t-83.5 -35.5q-53 0 -89 36t-36 84q0 37 21 85l384 1255q3 16 31 42q36 38 89 38t89 -36q28 -28 31 -44l384 -1255q21 -48 21 -85q0 -48 -36 -84t-89 -36q-54 0 -83.5 35.5t-50.5 99.5l-51 165h-430zM667 520l-142 468l-142 -468
h284zM414 1884q36 -36 36 -84t-36 -84t-89 -36t-89 36t-36 84t36 84t89 36t89 -36zM814 1884q36 -36 36 -84t-36 -84t-89 -36t-89 36t-36 84t36 84t89 36t89 -36z" />
    <glyph glyph-name="aring" unicode="&#xe5;" 
d="M310 280l-51 -165q-21 -64 -50.5 -99.5t-83.5 -35.5q-53 0 -89 36t-36 84q0 37 21 85l384 1255q3 16 31 42q36 38 89 38t89 -36q28 -28 31 -44l384 -1255q21 -48 21 -85q0 -48 -36 -84t-89 -36q-54 0 -83.5 35.5t-50.5 99.5l-51 165h-430zM667 520l-142 468l-142 -468
h284zM525 1680q-136 0 -230.5 94.5t-94.5 225.5t94.5 225.5t230.5 94.5t230.5 -94.5t94.5 -225.5t-94.5 -225.5t-230.5 -94.5zM577 1943q23 23 23 57t-23 57t-52 23t-52 -23t-23 -57t23 -57t52 -23t52 23z" />
    <glyph glyph-name="ae" unicode="&#xe6;" 
d="M1025 1520q53 0 89 -36t36 -84t-36 -84t-89 -36h-275v-410h175q53 0 89 -36t36 -84t-36 -84t-89 -36h-175v-410h275q53 0 89 -36t36 -84t-36 -84t-89 -36h-400q-53 0 -89 36t-36 84v180h-190l-51 -165q-21 -64 -50.5 -99.5t-83.5 -35.5q-53 0 -89 36t-36 84q0 37 21 85
l384 1255q3 16 31 42q36 38 89 38h500zM500 905l-117 -385h117v385z" />
    <glyph glyph-name="ccedilla" unicode="&#xe7;" 
d="M497 -20q-191 0 -344 155q-153 151 -153 365v500q0 214 153 367t372 153t372 -153t153 -367q0 -48 -36 -84t-89 -36t-89 36t-36 84q0 117 -81.5 198.5t-193.5 81.5t-193.5 -81.5t-81.5 -198.5v-500q0 -117 81.5 -198.5t193.5 -81.5t193.5 81.5t81.5 198.5q0 48 36 84
t89 36t89 -36t36 -84q0 -214 -153 -367q-73 -73 -146 -104q0 2 -1 2v-6q0 -183 -131 -314t-319 -131h-75q-53 0 -89 36t-36 84t36 84t89 36h75q81 0 141 60q51 51 56 100z" />
    <glyph glyph-name="egrave" unicode="&#xe8;" 
d="M925 220q53 0 89 -36t36 -84t-36 -84t-89 -36h-800q-53 0 -89 36t-36 84v1300q0 48 36 84t89 36h800q53 0 89 -36t36 -84t-36 -84t-89 -36h-675v-410h575q53 0 89 -36t36 -84t-36 -84t-89 -36h-575v-410h675zM236 2117q-36 35 -36 83t36 84t89 36t90 -36l401 -401
q34 -35 34 -83t-36 -84t-89 -36t-90 38z" />
    <glyph glyph-name="eacute" unicode="&#xe9;" 
d="M925 220q53 0 89 -36t36 -84t-36 -84t-89 -36h-800q-53 0 -89 36t-36 84v1300q0 48 36 84t89 36h800q53 0 89 -36t36 -84t-36 -84t-89 -36h-675v-410h575q53 0 89 -36t36 -84t-36 -84t-89 -36h-575v-410h675zM414 1716q-36 -36 -89 -36t-89 36t-36 84t37 85l400 400
q35 35 88 35t89 -36t36 -84t-36 -84z" />
    <glyph glyph-name="ecircumflex" unicode="&#xea;" 
d="M925 220q53 0 89 -36t36 -84t-36 -84t-89 -36h-800q-53 0 -89 36t-36 84v1300q0 48 36 84t89 36h800q53 0 89 -36t36 -84t-36 -84t-89 -36h-675v-410h575q53 0 89 -36t36 -84t-36 -84t-89 -36h-575v-410h675zM526 2028l-312 -312q-36 -36 -89 -36t-89 36t-36 84t37 85
l400 400q35 35 88 35t90 -36l401 -401q34 -35 34 -83t-36 -84t-89 -36t-90 38z" />
    <glyph glyph-name="edieresis" unicode="&#xeb;" 
d="M925 220q53 0 89 -36t36 -84t-36 -84t-89 -36h-800q-53 0 -89 36t-36 84v1300q0 48 36 84t89 36h800q53 0 89 -36t36 -84t-36 -84t-89 -36h-675v-410h575q53 0 89 -36t36 -84t-36 -84t-89 -36h-575v-410h675zM414 1884q36 -36 36 -84t-36 -84t-89 -36t-89 36t-36 84
t36 84t89 36t89 -36zM814 1884q36 -36 36 -84t-36 -84t-89 -36t-89 36t-36 84t36 84t89 36t89 -36z" />
    <glyph glyph-name="igrave" unicode="&#xec;" 
d="M400 220v1060h-275q-53 0 -89 36t-36 84t36 84t89 36h800q53 0 89 -36t36 -84t-36 -84t-89 -36h-275v-1060h275q53 0 89 -36t36 -84t-36 -84t-89 -36h-800q-53 0 -89 36t-36 84t36 84t89 36h275zM236 2117q-36 35 -36 83t36 84t89 36t90 -36l401 -401q34 -35 34 -83
t-36 -84t-89 -36t-90 38z" />
    <glyph glyph-name="iacute" unicode="&#xed;" 
d="M400 220v1060h-275q-53 0 -89 36t-36 84t36 84t89 36h800q53 0 89 -36t36 -84t-36 -84t-89 -36h-275v-1060h275q53 0 89 -36t36 -84t-36 -84t-89 -36h-800q-53 0 -89 36t-36 84t36 84t89 36h275zM414 1716q-36 -36 -89 -36t-89 36t-36 84t37 85l400 400q35 35 88 35
t89 -36t36 -84t-36 -84z" />
    <glyph glyph-name="icircumflex" unicode="&#xee;" 
d="M400 220v1060h-275q-53 0 -89 36t-36 84t36 84t89 36h800q53 0 89 -36t36 -84t-36 -84t-89 -36h-275v-1060h275q53 0 89 -36t36 -84t-36 -84t-89 -36h-800q-53 0 -89 36t-36 84t36 84t89 36h275zM526 2028l-312 -312q-36 -36 -89 -36t-89 36t-36 84t37 85l400 400
q35 35 88 35t90 -36l401 -401q34 -35 34 -83t-36 -84t-89 -36t-90 38z" />
    <glyph glyph-name="idieresis" unicode="&#xef;" 
d="M400 220v1060h-275q-53 0 -89 36t-36 84t36 84t89 36h800q53 0 89 -36t36 -84t-36 -84t-89 -36h-275v-1060h275q53 0 89 -36t36 -84t-36 -84t-89 -36h-800q-53 0 -89 36t-36 84t36 84t89 36h275zM414 1884q36 -36 36 -84t-36 -84t-89 -36t-89 36t-36 84t36 84t89 36
t89 -36zM814 1884q36 -36 36 -84t-36 -84t-89 -36t-89 36t-36 84t36 84t89 36t89 -36z" />
    <glyph glyph-name="eth" unicode="&#xf0;" 
d="M250 630v-410h275q112 0 193.5 81.5t81.5 198.5v500q0 117 -81.5 198.5t-193.5 81.5h-275v-410h275q53 0 89 -36t36 -84t-36 -84t-89 -36h-275zM125 -20q-53 0 -89 36t-36 84v1300q0 48 36 84t89 36h400q219 0 372 -153t153 -367v-500q0 -214 -153 -367t-372 -153h-400z
" />
    <glyph glyph-name="ntilde" unicode="&#xf1;" 
d="M268 1408l532 -863v855q0 48 36 84t89 36t89 -36t36 -84v-1300q0 -48 -36 -84t-89 -36t-87.5 34.5t-55.5 77.5l-532 863v-855q0 -48 -36 -84t-89 -36t-89 36t-36 84v1300q0 48 36 84t89 36t87.5 -34.5t55.5 -77.5zM667 1939q27 -19 58 -19q29 0 52 23t23 57q0 48 36 84
t89 36t89 -36t36 -84q0 -131 -94.5 -225.5t-230.5 -94.5t-218 82l-124 99q-27 19 -58 19q-29 0 -52 -23t-23 -57q0 -48 -36 -84t-89 -36t-89 36t-36 84q0 131 94.5 225.5t230.5 94.5t218 -82z" />
    <glyph glyph-name="ograve" unicode="&#xf2;" 
d="M1050 500q0 -214 -153 -367t-372 -153t-372 153t-153 367v500q0 214 153 367t372 153t372 -153t153 -367v-500zM250 500q0 -117 81.5 -198.5t193.5 -81.5t193.5 81.5t81.5 198.5v500q0 117 -81.5 198.5t-193.5 81.5t-193.5 -81.5t-81.5 -198.5v-500zM236 2117
q-36 35 -36 83t36 84t89 36t90 -36l401 -401q34 -35 34 -83t-36 -84t-89 -36t-90 38z" />
    <glyph glyph-name="oacute" unicode="&#xf3;" 
d="M1050 500q0 -214 -153 -367t-372 -153t-372 153t-153 367v500q0 214 153 367t372 153t372 -153t153 -367v-500zM250 500q0 -117 81.5 -198.5t193.5 -81.5t193.5 81.5t81.5 198.5v500q0 117 -81.5 198.5t-193.5 81.5t-193.5 -81.5t-81.5 -198.5v-500zM414 1716
q-36 -36 -89 -36t-89 36t-36 84t37 85l400 400q35 35 88 35t89 -36t36 -84t-36 -84z" />
    <glyph glyph-name="ocircumflex" unicode="&#xf4;" 
d="M1050 500q0 -214 -153 -367t-372 -153t-372 153t-153 367v500q0 214 153 367t372 153t372 -153t153 -367v-500zM250 500q0 -117 81.5 -198.5t193.5 -81.5t193.5 81.5t81.5 198.5v500q0 117 -81.5 198.5t-193.5 81.5t-193.5 -81.5t-81.5 -198.5v-500zM526 2028l-312 -312
q-36 -36 -89 -36t-89 36t-36 84t37 85l400 400q35 35 88 35t90 -36l401 -401q34 -35 34 -83t-36 -84t-89 -36t-90 38z" />
    <glyph glyph-name="otilde" unicode="&#xf5;" 
d="M1050 500q0 -214 -153 -367t-372 -153t-372 153t-153 367v500q0 214 153 367t372 153t372 -153t153 -367v-500zM250 500q0 -117 81.5 -198.5t193.5 -81.5t193.5 81.5t81.5 198.5v500q0 117 -81.5 198.5t-193.5 81.5t-193.5 -81.5t-81.5 -198.5v-500zM667 1939
q27 -19 58 -19q29 0 52 23t23 57q0 48 36 84t89 36t89 -36t36 -84q0 -131 -94.5 -225.5t-230.5 -94.5t-218 82l-124 99q-27 19 -58 19q-29 0 -52 -23t-23 -57q0 -48 -36 -84t-89 -36t-89 36t-36 84q0 131 94.5 225.5t230.5 94.5t218 -82z" />
    <glyph glyph-name="odieresis" unicode="&#xf6;" 
d="M1050 500q0 -214 -153 -367t-372 -153t-372 153t-153 367v500q0 214 153 367t372 153t372 -153t153 -367v-500zM250 500q0 -117 81.5 -198.5t193.5 -81.5t193.5 81.5t81.5 198.5v500q0 117 -81.5 198.5t-193.5 81.5t-193.5 -81.5t-81.5 -198.5v-500zM414 1884
q36 -36 36 -84t-36 -84t-89 -36t-89 36t-36 84t36 84t89 36t89 -36zM814 1884q36 -36 36 -84t-36 -84t-89 -36t-89 36t-36 84t36 84t89 36t89 -36z" />
    <glyph glyph-name="divide" unicode="&#xf7;" horiz-adv-x="1014" 
d="M87 627v180h876l14 -14v-166h-890zM403 420l83 85q23 21 48 21q24 0 50 -23l82 -88q16 -22 16 -40q0 -21 -19 -42l-80 -89q-28 -28 -49 -28q-28 0 -49 22l-89 102q-14 19 -14 37q0 22 21 43zM403 1113l83 85q23 21 48 21q24 0 50 -23l82 -88q16 -22 16 -40q0 -21 -19 -42
l-80 -89q-28 -28 -49 -28q-28 0 -49 22l-89 102q-14 19 -14 37q0 22 21 43z" />
    <glyph glyph-name="oslash" unicode="&#xf8;" 
d="M250 546l426 689q-58 45 -151 45q-112 0 -193.5 -81.5t-81.5 -198.5v-454zM800 954l-426 -689q58 -45 151 -45q112 0 193.5 81.5t81.5 198.5v454zM985 1254q65 -109 65 -254v-500q0 -214 -153 -367t-372 -153q-170 0 -277 76q-5 -11 -34 -40q-36 -36 -89 -36t-89 36
t-36 84q0 46 43 109l22 37q-65 109 -65 254v500q0 214 153 367t372 153q170 0 277 -76q5 11 35 41q35 35 88 35t89 -36t36 -84q0 -46 -43 -109z" />
    <glyph glyph-name="ugrave" unicode="&#xf9;" 
d="M0 1400q0 48 36 84t89 36t89 -36t36 -84v-900q0 -117 81.5 -198.5t193.5 -81.5t193.5 81.5t81.5 198.5v900q0 48 36 84t89 36t89 -36t36 -84v-900q0 -214 -153 -367t-372 -153t-372 153t-153 367v900zM236 2117q-36 35 -36 83t36 84t89 36t90 -36l401 -401q34 -35 34 -83
t-36 -84t-89 -36t-90 38z" />
    <glyph glyph-name="uacute" unicode="&#xfa;" 
d="M0 1400q0 48 36 84t89 36t89 -36t36 -84v-900q0 -117 81.5 -198.5t193.5 -81.5t193.5 81.5t81.5 198.5v900q0 48 36 84t89 36t89 -36t36 -84v-900q0 -214 -153 -367t-372 -153t-372 153t-153 367v900zM414 1716q-36 -36 -89 -36t-89 36t-36 84t37 85l400 400q35 35 88 35
t89 -36t36 -84t-36 -84z" />
    <glyph glyph-name="ucircumflex" unicode="&#xfb;" 
d="M0 1400q0 48 36 84t89 36t89 -36t36 -84v-900q0 -117 81.5 -198.5t193.5 -81.5t193.5 81.5t81.5 198.5v900q0 48 36 84t89 36t89 -36t36 -84v-900q0 -214 -153 -367t-372 -153t-372 153t-153 367v900zM526 2028l-312 -312q-36 -36 -89 -36t-89 36t-36 84t37 85l400 400
q35 35 88 35t90 -36l401 -401q34 -35 34 -83t-36 -84t-89 -36t-90 38z" />
    <glyph glyph-name="udieresis" unicode="&#xfc;" 
d="M0 1400q0 48 36 84t89 36t89 -36t36 -84v-900q0 -117 81.5 -198.5t193.5 -81.5t193.5 81.5t81.5 198.5v900q0 48 36 84t89 36t89 -36t36 -84v-900q0 -214 -153 -367t-372 -153t-372 153t-153 367v900zM414 1884q36 -36 36 -84t-36 -84t-89 -36t-89 36t-36 84t36 84t89 36
t89 -36zM814 1884q36 -36 36 -84t-36 -84t-89 -36t-89 36t-36 84t36 84t89 36t89 -36z" />
    <glyph glyph-name="yacute" unicode="&#xfd;" 
d="M400 712l-18 29l-339 550q-43 63 -43 109q0 48 36 84t89 36t87.5 -34.5t55.5 -77.5l257 -417l257 417q21 43 55.5 77.5t87.5 34.5t89 -36t36 -84q0 -46 -43 -109l-339 -550l-18 -29v-612q0 -48 -36 -84t-89 -36t-89 36t-36 84v612zM414 1716q-36 -36 -89 -36t-89 36
t-36 84t37 85l400 400q35 35 88 35t89 -36t36 -84t-36 -84z" />
    <glyph glyph-name="thorn" unicode="&#xfe;" 
d="M600 980h-350v-410h350q81 0 140.5 59.5t59.5 145.5t-59.5 145.5t-140.5 59.5zM250 1220h350q188 0 319 -131t131 -314t-131 -314t-319 -131h-350v-230q0 -48 -36 -84t-89 -36t-89 36t-36 84v1300q0 48 36 84t89 36t89 -36t36 -84v-180z" />
    <glyph glyph-name="ydieresis" unicode="&#xff;" 
d="M400 712l-18 29l-339 550q-43 63 -43 109q0 48 36 84t89 36t87.5 -34.5t55.5 -77.5l257 -417l257 417q21 43 55.5 77.5t87.5 34.5t89 -36t36 -84q0 -46 -43 -109l-339 -550l-18 -29v-612q0 -48 -36 -84t-89 -36t-89 36t-36 84v612zM414 1884q36 -36 36 -84t-36 -84
t-89 -36t-89 36t-36 84t36 84t89 36t89 -36zM814 1884q36 -36 36 -84t-36 -84t-89 -36t-89 36t-36 84t36 84t89 36t89 -36z" />
    <glyph glyph-name="dotlessi" unicode="&#x131;" horiz-adv-x="514" 
d="M378 223q0 -153 75 -153h71v-90h-492v90h71q75 0 75 153v432q0 57 -86 57h-73v78q226 70 267 188h92v-755z" />
    <glyph glyph-name="circumflex" unicode="&#x2c6;" 
d="M526 2028l-312 -312q-36 -36 -89 -36t-89 36t-36 84t37 85l400 400q35 35 88 35t90 -36l401 -401q34 -35 34 -83t-36 -84t-89 -36t-90 38z" />
    <glyph glyph-name="caron" unicode="&#x2c7;" 
d="M835 2282q37 38 90 38t89 -36t36 -84t-34 -83l-401 -401q-37 -36 -90 -36t-90 38l-399 399q-36 35 -36 83t36 84t89 36t90 -38l311 -309z" />
    <glyph glyph-name="uni02C9" unicode="&#x2c9;" horiz-adv-x="1024" 
d="M254 1175v165h566v-165h-566z" />
    <glyph glyph-name="breve" unicode="&#x2d8;" horiz-adv-x="1024" 
d="M219 1369h100q19 -82 69.5 -111.5t151.5 -29.5t151 29t69 112h100q-25 -161 -105 -235.5t-215 -74.5q-133 0 -214 75t-107 235z" />
    <glyph glyph-name="dotaccent" unicode="&#x2d9;" horiz-adv-x="1024" 
d="M428 1302l68 71q10 10 22 15t25 5q12 0 23.5 -5.5t21.5 -14.5l70 -75q8 -7 11.5 -17t3.5 -21q-1 -11 -4 -20t-12 -18l-72 -76q-14 -14 -22.5 -19t-19.5 -5q-16 0 -28.5 5t-19.5 16l-74 85q-7 7 -10 15.5t-3 19.5q0 9 4.5 19t15.5 20z" />
    <glyph glyph-name="ring" unicode="&#x2da;" 
d="M525 1680q-136 0 -230.5 94.5t-94.5 225.5t94.5 225.5t230.5 94.5t230.5 -94.5t94.5 -225.5t-94.5 -225.5t-230.5 -94.5zM577 1943q23 23 23 57t-23 57t-52 23t-52 -23t-23 -57t23 -57t52 -23t52 23z" />
    <glyph glyph-name="ogonek" unicode="&#x2db;" 
d="M714 -216q36 -36 36 -84t-36 -84t-89 -36h-75q-188 0 -319 131t-131 314q0 48 36 84t89 36t89 -36t36 -84q0 -86 59.5 -145.5t140.5 -59.5h75q53 0 89 -36z" />
    <glyph glyph-name="tilde" unicode="&#x2dc;" 
d="M667 1939q27 -19 58 -19q29 0 52 23t23 57q0 48 36 84t89 36t89 -36t36 -84q0 -131 -94.5 -225.5t-230.5 -94.5t-218 82l-124 99q-27 19 -58 19q-29 0 -52 -23t-23 -57q0 -48 -36 -84t-89 -36t-89 36t-36 84q0 131 94.5 225.5t230.5 94.5t218 -82z" />
    <glyph glyph-name="hungarumlaut" unicode="&#x2dd;" horiz-adv-x="1024" 
d="M217 1059l159 301q25 47 52 70.5t63 23.5q39 0 66 -26.5t27 -60.5q0 -20 -12.5 -42t-33.5 -46l-213 -220h-108zM502 1059l159 301q25 47 52 70.5t63 23.5q39 0 66 -26.5t27 -60.5q0 -20 -12.5 -42t-33.5 -46l-213 -220h-108z" />
    <glyph glyph-name="endash" unicode="&#x2013;" 
d="M125 630q-53 0 -89 36t-36 84t36 84t89 36h800q53 0 89 -36t36 -84t-36 -84t-89 -36h-800z" />
    <glyph glyph-name="emdash" unicode="&#x2014;" 
d="M125 630q-53 0 -89 36t-36 84t36 84t89 36h800q53 0 89 -36t36 -84t-36 -84t-89 -36h-800z" />
    <glyph glyph-name="quoteleft" unicode="&#x2018;" 
d="M100 1400q0 48 36 84t89 36t89 -36t36 -84v-300q0 -48 -36 -84t-89 -36t-89 36t-36 84v300z" />
    <glyph glyph-name="quoteright" unicode="&#x2019;" 
d="M100 1400q0 48 36 84t89 36t89 -36t36 -84v-300q0 -48 -36 -84t-89 -36t-89 36t-36 84v300z" />
    <glyph glyph-name="quotesinglbase" unicode="&#x201a;" 
d="M100 100q0 48 36 84t89 36t89 -36t36 -84v-300q0 -48 -36 -84t-89 -36t-89 36t-36 84v300z" />
    <glyph glyph-name="quotedblleft" unicode="&#x201c;" 
d="M100 1400q0 48 36 84t89 36t89 -36t36 -84v-300q0 -48 -36 -84t-89 -36t-89 36t-36 84v300zM500 1400q0 48 36 84t89 36t89 -36t36 -84v-300q0 -48 -36 -84t-89 -36t-89 36t-36 84v300z" />
    <glyph glyph-name="quotedblright" unicode="&#x201d;" 
d="M100 1400q0 48 36 84t89 36t89 -36t36 -84v-300q0 -48 -36 -84t-89 -36t-89 36t-36 84v300zM500 1400q0 48 36 84t89 36t89 -36t36 -84v-300q0 -48 -36 -84t-89 -36t-89 36t-36 84v300z" />
    <glyph glyph-name="quotedblbase" unicode="&#x201e;" 
d="M100 150q0 48 36 84t89 36t89 -36t36 -84v-300q0 -48 -36 -84t-89 -36t-89 36t-36 84v300zM500 150q0 48 36 84t89 36t89 -36t36 -84v-300q0 -48 -36 -84t-89 -36t-89 36t-36 84v300z" />
    <glyph glyph-name="dagger" unicode="&#x2020;" horiz-adv-x="1014" 
d="M484 1045q-6 69 -50 147q-59 105 -59 137q0 57 43.5 92.5t113.5 35.5q67 0 112 -33t45 -86q0 -36 -57 -145q-44 -82 -51 -149q60 5 136 48q107 61 143 61q62 0 98 -43t36 -109q0 -62 -33 -107t-92 -45q-39 0 -150 58q-80 44 -139 51q7 -146 111 -249q-108 -467 -114 -999
h-88q-6 532 -116 999q104 103 112 249q-61 -6 -138 -48q-107 -61 -143 -61q-62 0 -97.5 43t-35.5 109q0 62 33 107t91 45q39 0 151 -59q80 -44 138 -49z" />
    <glyph glyph-name="daggerdbl" unicode="&#x2021;" horiz-adv-x="1014" 
d="M579 209q59 7 139 51q111 58 150 58q59 0 92 -45t33 -107q0 -66 -36 -109t-98 -43q-36 0 -143 61q-76 43 -136 48q7 -67 51 -149q57 -109 57 -145q0 -53 -45 -86t-112 -33q-70 0 -113.5 35.5t-43.5 92.5q0 32 59 137q44 78 50 147q-58 -5 -138 -49q-112 -59 -151 -59
q-58 0 -91 45t-33 107q0 66 35.5 109t97.5 43q36 0 143 -61q77 -42 138 -48q-8 198 -113 375q105 176 113 374q-61 -6 -138 -48q-107 -61 -143 -61q-62 0 -97.5 43t-35.5 109q0 62 33 107t91 45q39 0 151 -59q80 -44 138 -49q-6 69 -50 147q-59 105 -59 137q0 57 43.5 92.5
t113.5 35.5q67 0 112 -33t45 -86q0 -36 -57 -145q-44 -82 -51 -149q60 5 136 48q107 61 143 61q62 0 98 -43t36 -109q0 -62 -33 -107t-92 -45q-39 0 -150 58q-80 44 -139 51q7 -198 112 -374q-105 -177 -112 -375z" />
    <glyph glyph-name="bullet" unicode="&#x2022;" horiz-adv-x="1024" 
d="M216 718q0 130 93.5 222.5t228.5 92.5q134 0 227 -93t93 -222t-94 -223t-228 -94q-135 0 -227.5 93.5t-92.5 223.5z" />
    <glyph glyph-name="ellipsis" unicode="&#x2026;" 
d="M314 184q36 -36 36 -84t-36 -84t-89 -36t-89 36t-36 84t36 84t89 36t89 -36zM714 184q36 -36 36 -84t-36 -84t-89 -36t-89 36t-36 84t36 84t89 36t89 -36zM1114 184q36 -36 36 -84t-36 -84t-89 -36t-89 36t-36 84t36 84t89 36t89 -36z" />
    <glyph glyph-name="guilsinglleft" unicode="&#x2039;" 
d="M914 333q36 -35 36 -83t-36 -84t-89 -36t-90 36l-501 501q-34 35 -34 83t37 85l499 499q36 36 89 36t89 -36t36 -84t-37 -85l-415 -415z" />
    <glyph glyph-name="guilsinglright" unicode="&#x203a;" 
d="M653 750l-417 417q-36 35 -36 83t36 84t89 36t90 -38l501 -499q34 -35 34 -83t-34 -83l-501 -501q-37 -36 -90 -36t-89 36t-36 84t36 83z" />
    <glyph glyph-name="fraction" unicode="&#x2044;" 
d="M268 92q-21 -43 -55.5 -77.5t-87.5 -34.5t-89 36t-36 84q0 46 43 109l739 1199q21 43 55.5 77.5t87.5 34.5t89 -36t36 -84q0 -46 -43 -109z" />
    <glyph glyph-name="fraction" unicode="&#x2215;" 
d="M268 92q-21 -43 -55.5 -77.5t-87.5 -34.5t-89 36t-36 84q0 46 43 109l739 1199q21 43 55.5 77.5t87.5 34.5t89 -36t36 -84q0 -46 -43 -109z" />
    <glyph glyph-name="franc" unicode="&#x20a3;" 
d="M450 180v-80q0 -48 -36 -84t-89 -36t-89 36t-36 84v80h-75q-53 0 -89 36t-36 84t36 84t89 36h75v980q0 48 36 84t89 36h600q53 0 89 -36t36 -84t-36 -84t-89 -36h-475v-410h375q53 0 89 -36t36 -84t-36 -84t-89 -36h-375v-210h75q53 0 89 -36t36 -84t-36 -84t-89 -36h-75
z" />
    <glyph glyph-name="lira" unicode="&#x20a4;" 
d="M800 1150q0 55 -37.5 92.5t-87.5 37.5t-87.5 -37.5t-37.5 -92.5v-280h275q53 0 89 -36t36 -84t-36 -84t-89 -36h-275v-410h375q53 0 89 -36t36 -84t-36 -84t-89 -36h-800q-53 0 -89 36t-36 84t36 84t89 36h175v410h-75q-53 0 -89 36t-36 84t36 84t89 36h75v280
q0 152 109 261t266 109t266 -109t109 -261q0 -48 -36 -84t-89 -36t-89 36t-36 84z" />
    <glyph glyph-name="peseta" unicode="&#x20a7;" 
d="M600 1280h-150v-410h150q81 0 140.5 59.5t59.5 145.5t-59.5 145.5t-140.5 59.5zM200 420v980q0 48 36 84t89 36h275q188 0 319 -131t131 -314t-131 -314t-319 -131h-150v-210h75q53 0 89 -36t36 -84t-36 -84t-89 -36h-75v-80q0 -48 -36 -84t-89 -36t-89 36t-36 84v80h-75
q-53 0 -89 36t-36 84t36 84t89 36h75z" />
    <glyph glyph-name="Euro" unicode="&#x20ac;" 
d="M175 1020v155q0 142 101.5 243.5t248.5 101.5h175q147 0 248.5 -101.5t101.5 -243.5q0 -48 -36 -84t-89 -36t-89 36t-36 84q0 45 -30 75t-70 30h-175q-40 0 -70 -30t-30 -75v-155h200q53 0 89 -36t36 -84t-36 -84t-89 -36h-200v-60h200q53 0 89 -36t36 -84t-36 -84
t-89 -36h-200v-155q0 -45 30 -75t70 -30h175q40 0 71 31q21 21 31 69h-2v30q0 48 36 84t89 36t89 -36t36 -84v-70h-2q-7 -106 -100 -199q-101 -101 -248 -101h-175q-147 0 -248 101q-93 93 -100 199h-2v200h-50q-53 0 -89 36t-36 84t36 84t89 36h50v60h-50q-53 0 -89 36
t-36 84t36 84t89 36h50z" />
    <glyph glyph-name="afii61352" unicode="&#x2116;" horiz-adv-x="1300" 
d="M158 1458l242 -392v384q0 28 21.5 49t53.5 21q33 0 54 -21t21 -49v-650q0 -27 -21 -48.5t-54 -21.5q-32 0 -52 20t-31 42l-242 393v-385q0 -27 -21 -48.5t-54 -21.5q-32 0 -53.5 21.5t-21.5 48.5v650q0 28 21.5 49t53.5 21q33 0 52.5 -19.5t30.5 -42.5zM1150 1000
q0 -110 -79.5 -190t-195.5 -80q-115 0 -195 80t-80 190v250q0 111 80 190.5t195 79.5q116 0 195.5 -79.5t79.5 -190.5v-250zM750 1000q0 -55 37.5 -92.5t87.5 -37.5t87.5 37.5t37.5 92.5v250q0 55 -37.5 92.5t-87.5 37.5t-87.5 -37.5t-37.5 -92.5v-250z" />
    <glyph glyph-name="trademark" unicode="&#x2122;" horiz-adv-x="1300" 
d="M350 1380v-580q0 -27 -21 -48.5t-54 -21.5q-32 0 -53.5 21.5t-21.5 48.5v580h-125q-32 0 -53.5 21.5t-21.5 48.5q0 28 21.5 49t53.5 21h400q33 0 54 -21t21 -49q0 -27 -21 -48.5t-54 -21.5h-125zM1150 1450v-650q0 -27 -21 -48.5t-54 -21.5q-32 0 -53.5 21.5t-21.5 48.5
v151l-55 -181h1q0 -2 -17 -19q-21 -21 -54 -21q-32 0 -53 21q-17 17 -17 19l-55 181v-151q0 -27 -21 -48.5t-54 -21.5q-32 0 -53.5 21.5t-21.5 48.5v650q0 28 21 49q23 21 54 21q32 0 55 -22q18 -18 25 -54l120 -396l121 397q14 37 26 52q20 23 53 23t54 -21t21 -49z" />
    <glyph glyph-name="partialdiff" unicode="&#x2202;" horiz-adv-x="1650" 
d="M0 200v1100q0 200 200 200h1100q200 0 200 -200v-1100q0 -200 -200 -200h-1100q-200 0 -200 200zM1475 201v1099q0 175 -175 175h-1100q-174 0 -175 -175v-1100q1 -175 175 -175h1101q174 0 174 176z" />
    <glyph glyph-name="Delta" unicode="&#x2206;" horiz-adv-x="1650" 
d="M0 200v1100q0 200 200 200h1100q200 0 200 -200v-1100q0 -200 -200 -200h-1100q-200 0 -200 200zM1475 201v1099q0 175 -175 175h-1100q-174 0 -175 -175v-1100q1 -175 175 -175h1101q174 0 174 176z" />
    <glyph glyph-name="product" unicode="&#x220f;" horiz-adv-x="1650" 
d="M0 200v1100q0 200 200 200h1100q200 0 200 -200v-1100q0 -200 -200 -200h-1100q-200 0 -200 200zM1475 201v1099q0 175 -175 175h-1100q-174 0 -175 -175v-1100q1 -175 175 -175h1101q174 0 174 176z" />
    <glyph glyph-name="summation" unicode="&#x2211;" horiz-adv-x="1650" 
d="M0 200v1100q0 200 200 200h1100q200 0 200 -200v-1100q0 -200 -200 -200h-1100q-200 0 -200 200zM1475 201v1099q0 175 -175 175h-1100q-174 0 -175 -175v-1100q1 -175 175 -175h1101q174 0 174 176z" />
    <glyph glyph-name="minus" unicode="&#x2212;" 
d="M125 630q-53 0 -89 36t-36 84t36 84t89 36h800q53 0 89 -36t36 -84t-36 -84t-89 -36h-800z" />
    <glyph glyph-name="radical" unicode="&#x221a;" horiz-adv-x="1650" 
d="M0 200v1100q0 200 200 200h1100q200 0 200 -200v-1100q0 -200 -200 -200h-1100q-200 0 -200 200zM1475 201v1099q0 175 -175 175h-1100q-174 0 -175 -175v-1100q1 -175 175 -175h1101q174 0 174 176z" />
    <glyph glyph-name="infinity" unicode="&#x221e;" horiz-adv-x="1650" 
d="M0 200v1100q0 200 200 200h1100q200 0 200 -200v-1100q0 -200 -200 -200h-1100q-200 0 -200 200zM1475 201v1099q0 175 -175 175h-1100q-174 0 -175 -175v-1100q1 -175 175 -175h1101q174 0 174 176z" />
    <glyph glyph-name="integral" unicode="&#x222b;" horiz-adv-x="1650" 
d="M0 200v1100q0 200 200 200h1100q200 0 200 -200v-1100q0 -200 -200 -200h-1100q-200 0 -200 200zM1475 201v1099q0 175 -175 175h-1100q-174 0 -175 -175v-1100q1 -175 175 -175h1101q174 0 174 176z" />
    <glyph glyph-name="approxequal" unicode="&#x2248;" horiz-adv-x="1650" 
d="M0 200v1100q0 200 200 200h1100q200 0 200 -200v-1100q0 -200 -200 -200h-1100q-200 0 -200 200zM1475 201v1099q0 175 -175 175h-1100q-174 0 -175 -175v-1100q1 -175 175 -175h1101q174 0 174 176z" />
    <glyph glyph-name="lessequal" unicode="&#x2264;" horiz-adv-x="1650" 
d="M0 200v1100q0 200 200 200h1100q200 0 200 -200v-1100q0 -200 -200 -200h-1100q-200 0 -200 200zM1475 201v1099q0 175 -175 175h-1100q-174 0 -175 -175v-1100q1 -175 175 -175h1101q174 0 174 176z" />
    <glyph glyph-name="greaterequal" unicode="&#x2265;" horiz-adv-x="1650" 
d="M0 200v1100q0 200 200 200h1100q200 0 200 -200v-1100q0 -200 -200 -200h-1100q-200 0 -200 200zM1475 201v1099q0 175 -175 175h-1100q-174 0 -175 -175v-1100q1 -175 175 -175h1101q174 0 174 176z" />
    <glyph glyph-name="uniF001" unicode="&#xf001;" horiz-adv-x="1073" 
 />
    <glyph glyph-name="uniF001" unicode="&#xfb01;" horiz-adv-x="1073" 
 />
    <glyph glyph-name="uniF002" unicode="&#xf002;" horiz-adv-x="1081" 
 />
    <glyph glyph-name="uniF002" unicode="&#xfb02;" horiz-adv-x="1081" 
 />
    </font>
</defs>
</svg>
