<?xml version="1.0" standalone="no"?>
<!DOCTYPE svg PUBLIC "-//W3C//DTD SVG 1.1//EN" "http://www.w3.org/Graphics/SVG/1.1/DTD/svg11.dtd" >
<svg xmlns="http://www.w3.org/2000/svg" xmlns:xlink="http://www.w3.org/1999/xlink" version="1.1">
<metadata></metadata>
<defs>
<font id="revorioumregular" horiz-adv-x="665" >
<font-face units-per-em="2048" ascent="1536" descent="-512" />
<missing-glyph horiz-adv-x="276" />
<glyph horiz-adv-x="0" />
<glyph unicode="&#xd;" horiz-adv-x="245" />
<glyph unicode=" "  horiz-adv-x="276" />
<glyph unicode="&#x09;" horiz-adv-x="276" />
<glyph unicode="&#xa0;" horiz-adv-x="276" />
<glyph unicode="0" d="M485 39q16 6 10 -3t-16 -22l-35 -34q-123 -82 -253 -128.5t-263 -70t-266 -32.5t-262 -17q-141 -10 -283.5 -14.5t-282 -8.5t-273.5 -10t-259 -21q-80 -10 -141.5 -33.5t-105.5 -54t-69.5 -64.5t-31.5 -65q-12 -53 15.5 -76.5t62.5 -23.5t65.5 17.5t38.5 48.5q4 27 -3 38 t-17 11q-20 0 -39 -19.5t-23 -36.5q-25 23 -14 58q6 25 26.5 45t55.5 20q37 0 55.5 -20.5t10.5 -59.5q-6 -23 -22.5 -47t-44.5 -44.5t-68 -33t-93 -12.5t-110.5 18.5t-101.5 52.5t-67.5 82t-11.5 107q14 63 78 133q51 57 133 93t186.5 56.5t228.5 29t259 8.5 q236 0 485.5 -13.5t491.5 -13.5q174 0 327.5 12.5t282.5 47.5q16 4 29.5 9t30.5 9q-2 0 -4 2q70 16 129 33q51 14 97 27.5t62 19.5zM-623 807q-47 16 -44 48t51 48q51 16 119.5 5t142 -30.5t146.5 -39t134 -19.5q20 0 55 3t52 22q12 14 7 25.5t-15.5 14.5t-22.5 -1t-16 -19 q0 10 8 19q4 6 15 12t28 4q18 0 24.5 -13.5t0 -31.5t-25 -34.5t-50.5 -22.5q-14 -4 -31.5 -4h-38.5l14 -7v-251h-49q4 4 4 10v121q-2 6 -4 10l-4 8l-6 6h14v103q-100 10 -196.5 39.5t-184.5 39.5q-39 4 -72.5 3t-49.5 -13q-8 -10 -9.5 -20.5t9.5 -18.5q8 -8 21 -8t24.5 3 t14.5 10.5t-7 15.5q-8 4 -15.5 6t-17.5 -2q14 14 31.5 13t27 -9t8.5 -21.5t-20 -21.5q-12 -4 -32 -6t-40 4zM-434 412l4 24q-14 -27 -22.5 -54.5t-12.5 -31.5q-4 4 -12 32t-23 54l8 -24v-158h-59q2 2 6 4q8 4 8 12v107q0 8 -2 13t-4 9t-4 7h10v81q0 2 -8 11l-6 6h37 q23 -29 34 -56.5t15 -46.5q4 18 17.5 46t33.5 57h39q-4 -2 -8 -6q-6 -6 -6 -11v-233h-62l17 14v144zM383 123q-12 18 -30.5 36.5t-35.5 18.5q4 0 11 4q12 8 14 17v227q-10 -27 -19.5 -49.5t-11.5 -26.5q-4 4 -13 32t-22 54l7 -18v-164h-58q2 2 6 4q8 4 9 12v107 q0 16 -5.5 22.5t-9.5 6.5h15v81q0 2 -9 11l-6 6h37q18 -29 30.5 -56.5t18.5 -46.5q2 10 8.5 25.5t14.5 32.5q14 25 27.5 48t21.5 46v-430zM63 696q27 8 56 13q25 4 53.5 3t52.5 -10q31 -10 47.5 -30.5t18.5 -45t-9.5 -47t-35.5 -36.5q-14 -10 -36 -14.5t-44.5 -1.5t-43 11.5 t-32.5 24.5t-10 32.5t18 29.5q27 16 66 10q16 -6 25.5 -17.5t11.5 -23.5t-4.5 -21.5t-22.5 -9.5q-10 0 -20.5 3t-14.5 14q4 -2 11 -2q10 0 14 12q0 6 -7 11t-17.5 5t-19.5 -5t-11 -15q-4 -16 8 -27.5t30.5 -15.5t40 -2t33.5 14q23 23 19 61.5t-39 55.5q-16 6 -36 10t-42 0 q4 -2 6 -7t-4 -9q2 8 -6 10t-19.5 2t-21.5 -2t-15 -4v-97q0 -16 2.5 -25t12.5 -15h-60v127q-10 0 -18 -1.5t-18 -1.5q4 -4 6 -4h4v-120h-45v131q-18 8 -10 34q-4 -10 1 -15t9 -5v88q0 4 -8 12l-7 6h60v-104l26 4v90q0 10 -10 10q10 2 26.5 11.5t28.5 25.5v-121l-14 -6h14z M-166 446q12 0 12 11v26h-32l6 -2v-75q35 4 49 -5q14 -8 6 -34q4 18 -16.5 18t-38.5 -4v-107h20l6 -10v35q0 10 -12 10q10 4 27.5 14.5t27.5 26.5v-96h-127q2 2 7 4q6 6 6 10v103l-21 -4h-24.5t-22.5 4t-15 12t1 25q-6 -18 14 -23q2 2 2 12v86h-31l9 -2v-227h-60l8 4 q8 4 11 12v111q0 10 -8 18l-7 7h15v81l-11 11q-4 4 -8 6h127v-117q6 4 11.5 4t9.5 4v92q0 2 -8 11q-4 4 -9 6h131v-96q-10 16 -27.5 25t-27.5 13zM43 254v123q-2 8 -4 13t-4 9l-6 7h14v81l-10 11l-6 6h57v-234q2 -8 10 -12q4 -2 6 -4h-16h-41zM43 238q59 0 87 -19.5 t34 -40.5q2 -18 -13.5 -32.5t-38 -19.5t-46 2t-37.5 34q-8 14 -13 33q4 2 10.5 3t10.5 3q6 2 10 2q-14 0 -24.5 -2t-24.5 -2q-57 -6 -131 -19.5t-151.5 -23t-154.5 -10.5t-143 18q10 -10 25 -10v-82q-10 41 -34.5 51t-41.5 10q4 2 8 6q8 8 9 15v20q-4 4 -11.5 7t-15.5 7 q-12 6 -28.5 16.5t-30 25t-22.5 29.5t-5 32q4 10 19.5 18t37.5 -4q-29 12 -33 -5t13 -40q14 -16 33.5 -28.5t42.5 -22.5v137q0 10 -2.5 16.5t-4.5 10.5q-4 6 -6 8h13v100q0 4 -3.5 8.5t-7.5 8.5q0 -23 -5 -46.5t-19 -50.5q-23 -53 -79 -80.5t-110 -21.5q-33 0 -58.5 15.5 t-44 39t-26.5 53t-8 60.5q2 41 23.5 70.5t52.5 43t64.5 10.5t62.5 -28q31 -27 37 -58.5t-4.5 -58t-34 -41t-53.5 -4.5q29 25 29.5 52.5t-13.5 48t-39 28t-45 -11.5q-18 -12 -29.5 -35.5t-11.5 -50t12.5 -50.5t40.5 -36q39 -20 84 -10q-25 10 -24 18q23 -10 47 -4t28 6 q35 27 53.5 71t2.5 97q-18 55 -66.5 80t-105.5 17l16 28v127q0 10 -12 10q29 4 64.5 23.5t52.5 38.5q4 -23 27.5 -41.5t35.5 -20.5q-10 0 -10 -10v-127l-47 21q-8 2 -17.5 6t-17.5 4h8h21v139q-14 -8 -26.5 -15t-29.5 -16h6v-118q86 -16 133 -80v72q-25 0 -26.5 16t14.5 22 q-8 -10 -2 -14t14 0v82q0 4 -8 12q-4 4 -8 6h131v-96q-31 33 -55 37q10 0 10 10v29h-35l9 -4v-66q33 6 47 -4q16 -10 6 -33q4 16 -18.5 15.5t-45.5 -4.5l11 -4v-111h22l4 -10v39q0 10 -10 10q10 4 25.5 12t29.5 25v-96h-86q4 -10 4 -31h72v-309q63 -12 141 -9.5t155 12 t145.5 19.5t113.5 16h2l2 5l-45 149q-6 12 0 21q0 -20 14 -23q2 2 2 12v86h-26l6 -2v-227h-43v127q0 10 -8 18l-6 7h14v81q0 2 -8 11l-6 6h122v-137q-16 -4 -30 0l18 -11q4 -16 15.5 -46.5t21.5 -65.5q-12 -4 -14 -4q-4 -2 -6 -2h20zM80 141q8 -8 18.5 -7t18.5 7t9 17.5 t-11 23.5q-8 10 -24.5 13.5t-33.5 7.5q4 -18 9.5 -35t13.5 -27zM164 498q-4 4 -8 6h61v-250h-108v127q0 10 -9 18l-6 7h15v81l-11 11q-4 4 -8 6h60v-225l-15 -5h4h31l4 -10v223zM-270 535h-127l6 6q8 8 8 12v109h-10q-6 -2 -21 -3l15 -4v-116q-23 -20 -39.5 -44t-26.5 -46 q-8 23 -23.5 46t-37.5 44v123q0 14 -9 22l-6 6h15v78q0 4 -3 6t-8 6q-4 4 -8 6h64v-254l-11 7q4 -8 13.5 -20.5t13.5 -20.5q8 14 16 24v2l5 -10v148q-29 6 -21 38q-4 -14 3 -17t18 -7v96q0 8 -17 14h62v-104q2 4 16 4v82q0 4 -8 12l-6 6h127v-96q-10 16 -26.5 25.5 t-25.5 11.5q10 0 11 10v29h-37l10 -4v-66q35 6 47 0q16 -10 8 -34q0 10 -4 14t-24.5 2t-36.5 -6l10 -2v-115h25l2 -10v39q0 10 -11 10q8 4 24.5 12t27.5 25v-96zM-176 586v180q0 20 -21 20h62v-251h-45l-27 124l2 -28v-96h-43v127q0 14 -8 22l-6 6h14v78q0 4 -3 6t-7 6t-8 6 h51l35 -165zM104 111q-4 0 -4 -5v-4v-24h-2l-14 20v4h-4v-6v-8v-6v-4h4h-6v4v20v4v5h6l10 -23h4v-2v6v6v4v4q-4 0 -4 3v2h10zM12 111l-4 -5v-4v-14v-2q0 -4 -2 -4v-4h-4l-4 -2q-2 0 -2 1t-4 1h-4v4v6v14v4h-2v5h10q-2 0 -4 -2v-3v-4v-16v-4l4 -4h2h4v4q4 0 4 4v2v14v4 q-4 0 -4 3v2h10zM287 78h-6q0 2 -2 4h-3v4l-2 2h-2v4h-2h-4v-10q0 -4 4 -4h-10h2v4v20v4v3l-2 2h12q8 0 9 -5l2 -2v-2q0 -6 -2 -6v-2q0 -2 -5 -2l5 -4v-2l2 -4v-4h4zM274 92l2 4l3 2h2q0 2 -2 4h-3v4h-6h-4v-14h4h2h2zM190 106q0 -4 2.5 -4t2.5 -4v-6v-6v-2q0 -2 -5 -2v-2 q0 -2 -4 -2h-2h-8h-6v4v20v4v5h10h6q0 -4 2 -5h2zM190 92q0 6 -4 10v2l-2 2h-4h-4v-28h8v4h2v4h4v2v4zM373 111v-5h-4v-2q0 -2 -2 -2l-5 -10v-10v-4h-10h4v4v10l-8 10v4h-4v5h12l-4 -5l4 -4l2 -10l9 10v4q0 4 -5 5h11zM-354 111q6 0 10 -5v-8v-2v-2q0 -2 -4 -2h-4h-2h-4v-10 v-4h4h-11v4h3v20v4h-3v5h11zM-348 98v4q0 4 -4 4h-2h-4v-14h4h2v2l4 2v2zM-170 111v-9h-4v4h-2h-8v-10h4h4v2h2v-10h-2v4h-4h-4v-10v-4h4h-10v4v20v4v5h20zM-258 86h2l-2 -8h-23h5v4v20v4q-4 0 -5 3v2h25v-9h-2q0 2 -2 4h-2h-4h-6v-10h6q4 0 4 2v-10v2l-4 2h-6v-14h6h4 q0 4 4 4v4zM-80 102v-10v-6q-4 -4 -4 -6t-4 -2l-2 -2h-4l-4 2q-2 0 -6 4v4q0 2 -2.5 2t-2.5 4t2.5 5t2.5 5t2 4h2q0 4 4 5h2h6zM-88 86q4 2 4 6t-2 5t-2 5v2l-2 2h-4h-4l-2 -4v-4v-6v-10q2 -4 6 -4t6 4v4zM-428 111q-2 0 -2 -2v-3q-2 0 -4 -2v-2l-6 -10v-10v-4h2h-11h5v4v10 l-7 10l-4 4v5h11q-2 0 -5 -2v-3v-4l9 -10l2 10q0 4 2 4h2h-4v5h10zM-545 111h29v-9h-4q0 2 -2 4h-2h-2v-24v-4h-11h2v4v24h-2h-4v-4h-4v9z" />
<glyph unicode="1" horiz-adv-x="659" d="M485 39q16 6 10 -3t-16 -22l-35 -34q-123 -82 -253 -128.5t-263 -70t-266 -32.5t-262 -17q-141 -10 -283.5 -14.5t-282 -8.5t-273.5 -10t-259 -21q-80 -10 -141.5 -33.5t-105.5 -54t-69.5 -64.5t-31.5 -65q-12 -53 15.5 -76.5t62.5 -23.5t65.5 17.5t38.5 48.5q4 27 -3 38 t-17 11q-20 0 -39 -19.5t-23 -36.5q-25 23 -14 58q6 25 26.5 45t55.5 20q37 0 55.5 -20.5t10.5 -59.5q-6 -23 -22.5 -47t-44.5 -44.5t-68 -33t-93 -12.5t-110.5 18.5t-101.5 52.5t-67.5 82t-11.5 107q14 63 78 133q51 57 133 93t186.5 56.5t228.5 29t259 8.5 q236 0 485.5 -13.5t491.5 -13.5q174 0 327.5 12.5t282.5 47.5q16 4 29.5 9t30.5 9q-2 0 -4 2q70 16 129 33q51 14 97 27.5t62 19.5zM-623 807q-47 16 -44 48t51 48q51 16 119.5 5t142 -30.5t146.5 -39t134 -19.5q20 0 55 3t52 22q12 14 7 25.5t-15.5 14.5t-22.5 -1t-16 -19 q0 10 8 19q4 6 15 12t28 4q18 0 24.5 -13.5t0 -31.5t-25 -34.5t-50.5 -22.5q-14 -4 -31.5 -4h-38.5l14 -7v-251h-49q4 4 4 10v121q-2 6 -4 10l-4 8l-6 6h14v103q-100 10 -196.5 39.5t-184.5 39.5q-39 4 -72.5 3t-49.5 -13q-8 -10 -9.5 -20.5t9.5 -18.5q8 -8 21 -8t24.5 3 t14.5 10.5t-7 15.5q-8 4 -15.5 6t-17.5 -2q14 14 31.5 13t27 -9t8.5 -21.5t-20 -21.5q-12 -4 -32 -6t-40 4zM-434 412l4 24q-14 -27 -22.5 -54.5t-12.5 -31.5q-4 4 -12 32t-23 54l8 -24v-158h-59q2 2 6 4q8 4 8 12v107q0 8 -2 13t-4 9t-4 7h10v81q0 2 -8 11l-6 6h37 q23 -29 34 -56.5t15 -46.5q4 18 17.5 46t33.5 57h39q-4 -2 -8 -6q-6 -6 -6 -11v-233h-62l17 14v144zM383 123q-12 18 -30.5 36.5t-35.5 18.5q4 0 11 4q12 8 14 17v227q-10 -27 -19.5 -49.5t-11.5 -26.5q-4 4 -13 32t-22 54l7 -18v-164h-58q2 2 6 4q8 4 9 12v107 q0 16 -5.5 22.5t-9.5 6.5h15v81q0 2 -9 11l-6 6h37q18 -29 30.5 -56.5t18.5 -46.5q2 10 8.5 25.5t14.5 32.5q14 25 27.5 48t21.5 46v-430zM63 696q27 8 56 13q25 4 53.5 3t52.5 -10q31 -10 47.5 -30.5t18.5 -45t-9.5 -47t-35.5 -36.5q-14 -10 -36 -14.5t-44.5 -1.5t-43 11.5 t-32.5 24.5t-10 32.5t18 29.5q27 16 66 10q16 -6 25.5 -17.5t11.5 -23.5t-4.5 -21.5t-22.5 -9.5q-10 0 -20.5 3t-14.5 14q4 -2 11 -2q10 0 14 12q0 6 -7 11t-17.5 5t-19.5 -5t-11 -15q-4 -16 8 -27.5t30.5 -15.5t40 -2t33.5 14q23 23 19 61.5t-39 55.5q-16 6 -36 10t-42 0 q4 -2 6 -7t-4 -9q2 8 -6 10t-19.5 2t-21.5 -2t-15 -4v-97q0 -16 2.5 -25t12.5 -15h-60v127q-10 0 -18 -1.5t-18 -1.5q4 -4 6 -4h4v-120h-45v131q-18 8 -10 34q-4 -10 1 -15t9 -5v88q0 4 -8 12l-7 6h60v-104l26 4v90q0 10 -10 10q10 2 26.5 11.5t28.5 25.5v-121l-14 -6h14z M-166 446q12 0 12 11v26h-32l6 -2v-75q35 4 49 -5q14 -8 6 -34q4 18 -16.5 18t-38.5 -4v-107h20l6 -10v35q0 10 -12 10q10 4 27.5 14.5t27.5 26.5v-96h-127q2 2 7 4q6 6 6 10v103l-21 -4h-24.5t-22.5 4t-15 12t1 25q-6 -18 14 -23q2 2 2 12v86h-31l9 -2v-227h-60l8 4 q8 4 11 12v111q0 10 -8 18l-7 7h15v81l-11 11q-4 4 -8 6h127v-117q6 4 11.5 4t9.5 4v92q0 2 -8 11q-4 4 -9 6h131v-96q-10 16 -27.5 25t-27.5 13zM43 254v123q-2 8 -4 13t-4 9l-6 7h14v81l-10 11l-6 6h57v-234q2 -8 10 -12q4 -2 6 -4h-16h-41zM43 238q59 0 87 -19.5 t34 -40.5q2 -18 -13.5 -32.5t-38 -19.5t-46 2t-37.5 34q-8 14 -13 33q4 2 10.5 3t10.5 3q6 2 10 2q-14 0 -24.5 -2t-24.5 -2q-57 -6 -131 -19.5t-151.5 -23t-154.5 -10.5t-143 18q10 -10 25 -10v-82q-10 41 -34.5 51t-41.5 10q4 2 8 6q8 8 9 15v20q-4 4 -11.5 7t-15.5 7 q-12 6 -28.5 16.5t-30 25t-22.5 29.5t-5 32q4 10 19.5 18t37.5 -4q-29 12 -33 -5t13 -40q14 -16 33.5 -28.5t42.5 -22.5v137q0 10 -2.5 16.5t-4.5 10.5q-4 6 -6 8h13v100q0 4 -3.5 8.5t-7.5 8.5q0 -23 -5 -46.5t-19 -50.5q-23 -53 -79 -80.5t-110 -21.5q-33 0 -58.5 15.5 t-44 39t-26.5 53t-8 60.5q2 41 23.5 70.5t52.5 43t64.5 10.5t62.5 -28q31 -27 37 -58.5t-4.5 -58t-34 -41t-53.5 -4.5q29 25 29.5 52.5t-13.5 48t-39 28t-45 -11.5q-18 -12 -29.5 -35.5t-11.5 -50t12.5 -50.5t40.5 -36q39 -20 84 -10q-25 10 -24 18q23 -10 47 -4t28 6 q35 27 53.5 71t2.5 97q-18 55 -66.5 80t-105.5 17l16 28v127q0 10 -12 10q29 4 64.5 23.5t52.5 38.5q4 -23 27.5 -41.5t35.5 -20.5q-10 0 -10 -10v-127l-47 21q-8 2 -17.5 6t-17.5 4h8h21v139q-14 -8 -26.5 -15t-29.5 -16h6v-118q86 -16 133 -80v72q-25 0 -26.5 16t14.5 22 q-8 -10 -2 -14t14 0v82q0 4 -8 12q-4 4 -8 6h131v-96q-31 33 -55 37q10 0 10 10v29h-35l9 -4v-66q33 6 47 -4q16 -10 6 -33q4 16 -18.5 15.5t-45.5 -4.5l11 -4v-111h22l4 -10v39q0 10 -10 10q10 4 25.5 12t29.5 25v-96h-86q4 -10 4 -31h72v-309q63 -12 141 -9.5t155 12 t145.5 19.5t113.5 16h2l2 5l-45 149q-6 12 0 21q0 -20 14 -23q2 2 2 12v86h-26l6 -2v-227h-43v127q0 10 -8 18l-6 7h14v81q0 2 -8 11l-6 6h122v-137q-16 -4 -30 0l18 -11q4 -16 15.5 -46.5t21.5 -65.5q-12 -4 -14 -4q-4 -2 -6 -2h20zM80 141q8 -8 18.5 -7t18.5 7t9 17.5 t-11 23.5q-8 10 -24.5 13.5t-33.5 7.5q4 -18 9.5 -35t13.5 -27zM164 498q-4 4 -8 6h61v-250h-108v127q0 10 -9 18l-6 7h15v81l-11 11q-4 4 -8 6h60v-225l-15 -5h4h31l4 -10v223zM-270 535h-127l6 6q8 8 8 12v109h-10q-6 -2 -21 -3l15 -4v-116q-23 -20 -39.5 -44t-26.5 -46 q-8 23 -23.5 46t-37.5 44v123q0 14 -9 22l-6 6h15v78q0 4 -3 6t-8 6q-4 4 -8 6h64v-254l-11 7q4 -8 13.5 -20.5t13.5 -20.5q8 14 16 24v2l5 -10v148q-29 6 -21 38q-4 -14 3 -17t18 -7v96q0 8 -17 14h62v-104q2 4 16 4v82q0 4 -8 12l-6 6h127v-96q-10 16 -26.5 25.5 t-25.5 11.5q10 0 11 10v29h-37l10 -4v-66q35 6 47 0q16 -10 8 -34q0 10 -4 14t-24.5 2t-36.5 -6l10 -2v-115h25l2 -10v39q0 10 -11 10q8 4 24.5 12t27.5 25v-96zM-176 586v180q0 20 -21 20h62v-251h-45l-27 124l2 -28v-96h-43v127q0 14 -8 22l-6 6h14v78q0 4 -3 6t-7 6t-8 6 h51l35 -165zM104 111q-4 0 -4 -5v-4v-24h-2l-14 20v4h-4v-6v-8v-6v-4h4h-6v4v20v4v5h6l10 -23h4v-2v6v6v4v4q-4 0 -4 3v2h10zM12 111l-4 -5v-4v-14v-2q0 -4 -2 -4v-4h-4l-4 -2q-2 0 -2 1t-4 1h-4v4v6v14v4h-2v5h10q-2 0 -4 -2v-3v-4v-16v-4l4 -4h2h4v4q4 0 4 4v2v14v4 q-4 0 -4 3v2h10zM287 78h-6q0 2 -2 4h-3v4l-2 2h-2v4h-2h-4v-10q0 -4 4 -4h-10h2v4v20v4v3l-2 2h12q8 0 9 -5l2 -2v-2q0 -6 -2 -6v-2q0 -2 -5 -2l5 -4v-2l2 -4v-4h4zM274 92l2 4l3 2h2q0 2 -2 4h-3v4h-6h-4v-14h4h2h2zM190 106q0 -4 2.5 -4t2.5 -4v-6v-6v-2q0 -2 -5 -2v-2 q0 -2 -4 -2h-2h-8h-6v4v20v4v5h10h6q0 -4 2 -5h2zM190 92q0 6 -4 10v2l-2 2h-4h-4v-28h8v4h2v4h4v2v4zM373 111v-5h-4v-2q0 -2 -2 -2l-5 -10v-10v-4h-10h4v4v10l-8 10v4h-4v5h12l-4 -5l4 -4l2 -10l9 10v4q0 4 -5 5h11zM-354 111q6 0 10 -5v-8v-2v-2q0 -2 -4 -2h-4h-2h-4v-10 v-4h4h-11v4h3v20v4h-3v5h11zM-348 98v4q0 4 -4 4h-2h-4v-14h4h2v2l4 2v2zM-170 111v-9h-4v4h-2h-8v-10h4h4v2h2v-10h-2v4h-4h-4v-10v-4h4h-10v4v20v4v5h20zM-258 86h2l-2 -8h-23h5v4v20v4q-4 0 -5 3v2h25v-9h-2q0 2 -2 4h-2h-4h-6v-10h6q4 0 4 2v-10v2l-4 2h-6v-14h6h4 q0 4 4 4v4zM-80 102v-10v-6q-4 -4 -4 -6t-4 -2l-2 -2h-4l-4 2q-2 0 -6 4v4q0 2 -2.5 2t-2.5 4t2.5 5t2.5 5t2 4h2q0 4 4 5h2h6zM-88 86q4 2 4 6t-2 5t-2 5v2l-2 2h-4h-4l-2 -4v-4v-6v-10q2 -4 6 -4t6 4v4zM-428 111q-2 0 -2 -2v-3q-2 0 -4 -2v-2l-6 -10v-10v-4h2h-11h5v4v10 l-7 10l-4 4v5h11q-2 0 -5 -2v-3v-4l9 -10l2 10q0 4 2 4h2h-4v5h10zM-545 111h29v-9h-4q0 2 -2 4h-2h-2v-24v-4h-11h2v4v24h-2h-4v-4h-4v9z" />
<glyph unicode="2" d="M485 39q16 6 10 -3t-16 -22l-35 -34q-123 -82 -253 -128.5t-263 -70t-266 -32.5t-262 -17q-141 -10 -283.5 -14.5t-282 -8.5t-273.5 -10t-259 -21q-80 -10 -141.5 -33.5t-105.5 -54t-69.5 -64.5t-31.5 -65q-12 -53 15.5 -76.5t62.5 -23.5t65.5 17.5t38.5 48.5q4 27 -3 38 t-17 11q-20 0 -39 -19.5t-23 -36.5q-25 23 -14 58q6 25 26.5 45t55.5 20q37 0 55.5 -20.5t10.5 -59.5q-6 -23 -22.5 -47t-44.5 -44.5t-68 -33t-93 -12.5t-110.5 18.5t-101.5 52.5t-67.5 82t-11.5 107q14 63 78 133q51 57 133 93t186.5 56.5t228.5 29t259 8.5 q236 0 485.5 -13.5t491.5 -13.5q174 0 327.5 12.5t282.5 47.5q16 4 29.5 9t30.5 9q-2 0 -4 2q70 16 129 33q51 14 97 27.5t62 19.5zM-623 807q-47 16 -44 48t51 48q51 16 119.5 5t142 -30.5t146.5 -39t134 -19.5q20 0 55 3t52 22q12 14 7 25.5t-15.5 14.5t-22.5 -1t-16 -19 q0 10 8 19q4 6 15 12t28 4q18 0 24.5 -13.5t0 -31.5t-25 -34.5t-50.5 -22.5q-14 -4 -31.5 -4h-38.5l14 -7v-251h-49q4 4 4 10v121q-2 6 -4 10l-4 8l-6 6h14v103q-100 10 -196.5 39.5t-184.5 39.5q-39 4 -72.5 3t-49.5 -13q-8 -10 -9.5 -20.5t9.5 -18.5q8 -8 21 -8t24.5 3 t14.5 10.5t-7 15.5q-8 4 -15.5 6t-17.5 -2q14 14 31.5 13t27 -9t8.5 -21.5t-20 -21.5q-12 -4 -32 -6t-40 4zM-434 412l4 24q-14 -27 -22.5 -54.5t-12.5 -31.5q-4 4 -12 32t-23 54l8 -24v-158h-59q2 2 6 4q8 4 8 12v107q0 8 -2 13t-4 9t-4 7h10v81q0 2 -8 11l-6 6h37 q23 -29 34 -56.5t15 -46.5q4 18 17.5 46t33.5 57h39q-4 -2 -8 -6q-6 -6 -6 -11v-233h-62l17 14v144zM383 123q-12 18 -30.5 36.5t-35.5 18.5q4 0 11 4q12 8 14 17v227q-10 -27 -19.5 -49.5t-11.5 -26.5q-4 4 -13 32t-22 54l7 -18v-164h-58q2 2 6 4q8 4 9 12v107 q0 16 -5.5 22.5t-9.5 6.5h15v81q0 2 -9 11l-6 6h37q18 -29 30.5 -56.5t18.5 -46.5q2 10 8.5 25.5t14.5 32.5q14 25 27.5 48t21.5 46v-430zM63 696q27 8 56 13q25 4 53.5 3t52.5 -10q31 -10 47.5 -30.5t18.5 -45t-9.5 -47t-35.5 -36.5q-14 -10 -36 -14.5t-44.5 -1.5t-43 11.5 t-32.5 24.5t-10 32.5t18 29.5q27 16 66 10q16 -6 25.5 -17.5t11.5 -23.5t-4.5 -21.5t-22.5 -9.5q-10 0 -20.5 3t-14.5 14q4 -2 11 -2q10 0 14 12q0 6 -7 11t-17.5 5t-19.5 -5t-11 -15q-4 -16 8 -27.5t30.5 -15.5t40 -2t33.5 14q23 23 19 61.5t-39 55.5q-16 6 -36 10t-42 0 q4 -2 6 -7t-4 -9q2 8 -6 10t-19.5 2t-21.5 -2t-15 -4v-97q0 -16 2.5 -25t12.5 -15h-60v127q-10 0 -18 -1.5t-18 -1.5q4 -4 6 -4h4v-120h-45v131q-18 8 -10 34q-4 -10 1 -15t9 -5v88q0 4 -8 12l-7 6h60v-104l26 4v90q0 10 -10 10q10 2 26.5 11.5t28.5 25.5v-121l-14 -6h14z M-166 446q12 0 12 11v26h-32l6 -2v-75q35 4 49 -5q14 -8 6 -34q4 18 -16.5 18t-38.5 -4v-107h20l6 -10v35q0 10 -12 10q10 4 27.5 14.5t27.5 26.5v-96h-127q2 2 7 4q6 6 6 10v103l-21 -4h-24.5t-22.5 4t-15 12t1 25q-6 -18 14 -23q2 2 2 12v86h-31l9 -2v-227h-60l8 4 q8 4 11 12v111q0 10 -8 18l-7 7h15v81l-11 11q-4 4 -8 6h127v-117q6 4 11.5 4t9.5 4v92q0 2 -8 11q-4 4 -9 6h131v-96q-10 16 -27.5 25t-27.5 13zM43 254v123q-2 8 -4 13t-4 9l-6 7h14v81l-10 11l-6 6h57v-234q2 -8 10 -12q4 -2 6 -4h-16h-41zM43 238q59 0 87 -19.5 t34 -40.5q2 -18 -13.5 -32.5t-38 -19.5t-46 2t-37.5 34q-8 14 -13 33q4 2 10.5 3t10.5 3q6 2 10 2q-14 0 -24.5 -2t-24.5 -2q-57 -6 -131 -19.5t-151.5 -23t-154.5 -10.5t-143 18q10 -10 25 -10v-82q-10 41 -34.5 51t-41.5 10q4 2 8 6q8 8 9 15v20q-4 4 -11.5 7t-15.5 7 q-12 6 -28.5 16.5t-30 25t-22.5 29.5t-5 32q4 10 19.5 18t37.5 -4q-29 12 -33 -5t13 -40q14 -16 33.5 -28.5t42.5 -22.5v137q0 10 -2.5 16.5t-4.5 10.5q-4 6 -6 8h13v100q0 4 -3.5 8.5t-7.5 8.5q0 -23 -5 -46.5t-19 -50.5q-23 -53 -79 -80.5t-110 -21.5q-33 0 -58.5 15.5 t-44 39t-26.5 53t-8 60.5q2 41 23.5 70.5t52.5 43t64.5 10.5t62.5 -28q31 -27 37 -58.5t-4.5 -58t-34 -41t-53.5 -4.5q29 25 29.5 52.5t-13.5 48t-39 28t-45 -11.5q-18 -12 -29.5 -35.5t-11.5 -50t12.5 -50.5t40.5 -36q39 -20 84 -10q-25 10 -24 18q23 -10 47 -4t28 6 q35 27 53.5 71t2.5 97q-18 55 -66.5 80t-105.5 17l16 28v127q0 10 -12 10q29 4 64.5 23.5t52.5 38.5q4 -23 27.5 -41.5t35.5 -20.5q-10 0 -10 -10v-127l-47 21q-8 2 -17.5 6t-17.5 4h8h21v139q-14 -8 -26.5 -15t-29.5 -16h6v-118q86 -16 133 -80v72q-25 0 -26.5 16t14.5 22 q-8 -10 -2 -14t14 0v82q0 4 -8 12q-4 4 -8 6h131v-96q-31 33 -55 37q10 0 10 10v29h-35l9 -4v-66q33 6 47 -4q16 -10 6 -33q4 16 -18.5 15.5t-45.5 -4.5l11 -4v-111h22l4 -10v39q0 10 -10 10q10 4 25.5 12t29.5 25v-96h-86q4 -10 4 -31h72v-309q63 -12 141 -9.5t155 12 t145.5 19.5t113.5 16h2l2 5l-45 149q-6 12 0 21q0 -20 14 -23q2 2 2 12v86h-26l6 -2v-227h-43v127q0 10 -8 18l-6 7h14v81q0 2 -8 11l-6 6h122v-137q-16 -4 -30 0l18 -11q4 -16 15.5 -46.5t21.5 -65.5q-12 -4 -14 -4q-4 -2 -6 -2h20zM80 141q8 -8 18.5 -7t18.5 7t9 17.5 t-11 23.5q-8 10 -24.5 13.5t-33.5 7.5q4 -18 9.5 -35t13.5 -27zM164 498q-4 4 -8 6h61v-250h-108v127q0 10 -9 18l-6 7h15v81l-11 11q-4 4 -8 6h60v-225l-15 -5h4h31l4 -10v223zM-270 535h-127l6 6q8 8 8 12v109h-10q-6 -2 -21 -3l15 -4v-116q-23 -20 -39.5 -44t-26.5 -46 q-8 23 -23.5 46t-37.5 44v123q0 14 -9 22l-6 6h15v78q0 4 -3 6t-8 6q-4 4 -8 6h64v-254l-11 7q4 -8 13.5 -20.5t13.5 -20.5q8 14 16 24v2l5 -10v148q-29 6 -21 38q-4 -14 3 -17t18 -7v96q0 8 -17 14h62v-104q2 4 16 4v82q0 4 -8 12l-6 6h127v-96q-10 16 -26.5 25.5 t-25.5 11.5q10 0 11 10v29h-37l10 -4v-66q35 6 47 0q16 -10 8 -34q0 10 -4 14t-24.5 2t-36.5 -6l10 -2v-115h25l2 -10v39q0 10 -11 10q8 4 24.5 12t27.5 25v-96zM-176 586v180q0 20 -21 20h62v-251h-45l-27 124l2 -28v-96h-43v127q0 14 -8 22l-6 6h14v78q0 4 -3 6t-7 6t-8 6 h51l35 -165zM104 111q-4 0 -4 -5v-4v-24h-2l-14 20v4h-4v-6v-8v-6v-4h4h-6v4v20v4v5h6l10 -23h4v-2v6v6v4v4q-4 0 -4 3v2h10zM12 111l-4 -5v-4v-14v-2q0 -4 -2 -4v-4h-4l-4 -2q-2 0 -2 1t-4 1h-4v4v6v14v4h-2v5h10q-2 0 -4 -2v-3v-4v-16v-4l4 -4h2h4v4q4 0 4 4v2v14v4 q-4 0 -4 3v2h10zM287 78h-6q0 2 -2 4h-3v4l-2 2h-2v4h-2h-4v-10q0 -4 4 -4h-10h2v4v20v4v3l-2 2h12q8 0 9 -5l2 -2v-2q0 -6 -2 -6v-2q0 -2 -5 -2l5 -4v-2l2 -4v-4h4zM274 92l2 4l3 2h2q0 2 -2 4h-3v4h-6h-4v-14h4h2h2zM190 106q0 -4 2.5 -4t2.5 -4v-6v-6v-2q0 -2 -5 -2v-2 q0 -2 -4 -2h-2h-8h-6v4v20v4v5h10h6q0 -4 2 -5h2zM190 92q0 6 -4 10v2l-2 2h-4h-4v-28h8v4h2v4h4v2v4zM373 111v-5h-4v-2q0 -2 -2 -2l-5 -10v-10v-4h-10h4v4v10l-8 10v4h-4v5h12l-4 -5l4 -4l2 -10l9 10v4q0 4 -5 5h11zM-354 111q6 0 10 -5v-8v-2v-2q0 -2 -4 -2h-4h-2h-4v-10 v-4h4h-11v4h3v20v4h-3v5h11zM-348 98v4q0 4 -4 4h-2h-4v-14h4h2v2l4 2v2zM-170 111v-9h-4v4h-2h-8v-10h4h4v2h2v-10h-2v4h-4h-4v-10v-4h4h-10v4v20v4v5h20zM-258 86h2l-2 -8h-23h5v4v20v4q-4 0 -5 3v2h25v-9h-2q0 2 -2 4h-2h-4h-6v-10h6q4 0 4 2v-10v2l-4 2h-6v-14h6h4 q0 4 4 4v4zM-80 102v-10v-6q-4 -4 -4 -6t-4 -2l-2 -2h-4l-4 2q-2 0 -6 4v4q0 2 -2.5 2t-2.5 4t2.5 5t2.5 5t2 4h2q0 4 4 5h2h6zM-88 86q4 2 4 6t-2 5t-2 5v2l-2 2h-4h-4l-2 -4v-4v-6v-10q2 -4 6 -4t6 4v4zM-428 111q-2 0 -2 -2v-3q-2 0 -4 -2v-2l-6 -10v-10v-4h2h-11h5v4v10 l-7 10l-4 4v5h11q-2 0 -5 -2v-3v-4l9 -10l2 10q0 4 2 4h2h-4v5h10zM-545 111h29v-9h-4q0 2 -2 4h-2h-2v-24v-4h-11h2v4v24h-2h-4v-4h-4v9z" />
<glyph unicode="3" d="M485 39q16 6 10 -3t-16 -22l-35 -34q-123 -82 -253 -128.5t-263 -70t-266 -32.5t-262 -17q-141 -10 -283.5 -14.5t-282 -8.5t-273.5 -10t-259 -21q-80 -10 -141.5 -33.5t-105.5 -54t-69.5 -64.5t-31.5 -65q-12 -53 15.5 -76.5t62.5 -23.5t65.5 17.5t38.5 48.5q4 27 -3 38 t-17 11q-20 0 -39 -19.5t-23 -36.5q-25 23 -14 58q6 25 26.5 45t55.5 20q37 0 55.5 -20.5t10.5 -59.5q-6 -23 -22.5 -47t-44.5 -44.5t-68 -33t-93 -12.5t-110.5 18.5t-101.5 52.5t-67.5 82t-11.5 107q14 63 78 133q51 57 133 93t186.5 56.5t228.5 29t259 8.5 q236 0 485.5 -13.5t491.5 -13.5q174 0 327.5 12.5t282.5 47.5q16 4 29.5 9t30.5 9q-2 0 -4 2q70 16 129 33q51 14 97 27.5t62 19.5z" />
<glyph unicode="4" d="M485 39q16 6 10 -3t-16 -22l-35 -34q-123 -82 -253 -128.5t-263 -70t-266 -32.5t-262 -17q-141 -10 -283.5 -14.5t-282 -8.5t-273.5 -10t-259 -21q-80 -10 -141.5 -33.5t-105.5 -54t-69.5 -64.5t-31.5 -65q-12 -53 15.5 -76.5t62.5 -23.5t65.5 17.5t38.5 48.5q4 27 -3 38 t-17 11q-20 0 -39 -19.5t-23 -36.5q-25 23 -14 58q6 25 26.5 45t55.5 20q37 0 55.5 -20.5t10.5 -59.5q-6 -23 -22.5 -47t-44.5 -44.5t-68 -33t-93 -12.5t-110.5 18.5t-101.5 52.5t-67.5 82t-11.5 107q14 63 78 133q51 57 133 93t186.5 56.5t228.5 29t259 8.5 q236 0 485.5 -13.5t491.5 -13.5q174 0 327.5 12.5t282.5 47.5q16 4 29.5 9t30.5 9q-2 0 -4 2q70 16 129 33q51 14 97 27.5t62 19.5zM-623 807q-47 16 -44 48t51 48q51 16 119.5 5t142 -30.5t146.5 -39t134 -19.5q20 0 55 3t52 22q12 14 7 25.5t-15.5 14.5t-22.5 -1t-16 -19 q0 10 8 19q4 6 15 12t28 4q18 0 24.5 -13.5t0 -31.5t-25 -34.5t-50.5 -22.5q-14 -4 -31.5 -4h-38.5l14 -7v-251h-49q4 4 4 10v121q-2 6 -4 10l-4 8l-6 6h14v103q-100 10 -196.5 39.5t-184.5 39.5q-39 4 -72.5 3t-49.5 -13q-8 -10 -9.5 -20.5t9.5 -18.5q8 -8 21 -8t24.5 3 t14.5 10.5t-7 15.5q-8 4 -15.5 6t-17.5 -2q14 14 31.5 13t27 -9t8.5 -21.5t-20 -21.5q-12 -4 -32 -6t-40 4zM-434 412l4 24q-14 -27 -22.5 -54.5t-12.5 -31.5q-4 4 -12 32t-23 54l8 -24v-158h-59q2 2 6 4q8 4 8 12v107q0 8 -2 13t-4 9t-4 7h10v81q0 2 -8 11l-6 6h37 q23 -29 34 -56.5t15 -46.5q4 18 17.5 46t33.5 57h39q-4 -2 -8 -6q-6 -6 -6 -11v-233h-62l17 14v144zM383 123q-12 18 -30.5 36.5t-35.5 18.5q4 0 11 4q12 8 14 17v227q-10 -27 -19.5 -49.5t-11.5 -26.5q-4 4 -13 32t-22 54l7 -18v-164h-58q2 2 6 4q8 4 9 12v107 q0 16 -5.5 22.5t-9.5 6.5h15v81q0 2 -9 11l-6 6h37q18 -29 30.5 -56.5t18.5 -46.5q2 10 8.5 25.5t14.5 32.5q14 25 27.5 48t21.5 46v-430zM63 696q27 8 56 13q25 4 53.5 3t52.5 -10q31 -10 47.5 -30.5t18.5 -45t-9.5 -47t-35.5 -36.5q-14 -10 -36 -14.5t-44.5 -1.5t-43 11.5 t-32.5 24.5t-10 32.5t18 29.5q27 16 66 10q16 -6 25.5 -17.5t11.5 -23.5t-4.5 -21.5t-22.5 -9.5q-10 0 -20.5 3t-14.5 14q4 -2 11 -2q10 0 14 12q0 6 -7 11t-17.5 5t-19.5 -5t-11 -15q-4 -16 8 -27.5t30.5 -15.5t40 -2t33.5 14q23 23 19 61.5t-39 55.5q-16 6 -36 10t-42 0 q4 -2 6 -7t-4 -9q2 8 -6 10t-19.5 2t-21.5 -2t-15 -4v-97q0 -16 2.5 -25t12.5 -15h-60v127q-10 0 -18 -1.5t-18 -1.5q4 -4 6 -4h4v-120h-45v131q-18 8 -10 34q-4 -10 1 -15t9 -5v88q0 4 -8 12l-7 6h60v-104l26 4v90q0 10 -10 10q10 2 26.5 11.5t28.5 25.5v-121l-14 -6h14z M-166 446q12 0 12 11v26h-32l6 -2v-75q35 4 49 -5q14 -8 6 -34q4 18 -16.5 18t-38.5 -4v-107h20l6 -10v35q0 10 -12 10q10 4 27.5 14.5t27.5 26.5v-96h-127q2 2 7 4q6 6 6 10v103l-21 -4h-24.5t-22.5 4t-15 12t1 25q-6 -18 14 -23q2 2 2 12v86h-31l9 -2v-227h-60l8 4 q8 4 11 12v111q0 10 -8 18l-7 7h15v81l-11 11q-4 4 -8 6h127v-117q6 4 11.5 4t9.5 4v92q0 2 -8 11q-4 4 -9 6h131v-96q-10 16 -27.5 25t-27.5 13zM43 254v123q-2 8 -4 13t-4 9l-6 7h14v81l-10 11l-6 6h57v-234q2 -8 10 -12q4 -2 6 -4h-16h-41zM43 238q59 0 87 -19.5 t34 -40.5q2 -18 -13.5 -32.5t-38 -19.5t-46 2t-37.5 34q-8 14 -13 33q4 2 10.5 3t10.5 3q6 2 10 2q-14 0 -24.5 -2t-24.5 -2q-57 -6 -131 -19.5t-151.5 -23t-154.5 -10.5t-143 18q10 -10 25 -10v-82q-10 41 -34.5 51t-41.5 10q4 2 8 6q8 8 9 15v20q-4 4 -11.5 7t-15.5 7 q-12 6 -28.5 16.5t-30 25t-22.5 29.5t-5 32q4 10 19.5 18t37.5 -4q-29 12 -33 -5t13 -40q14 -16 33.5 -28.5t42.5 -22.5v137q0 10 -2.5 16.5t-4.5 10.5q-4 6 -6 8h13v100q0 4 -3.5 8.5t-7.5 8.5q0 -23 -5 -46.5t-19 -50.5q-23 -53 -79 -80.5t-110 -21.5q-33 0 -58.5 15.5 t-44 39t-26.5 53t-8 60.5q2 41 23.5 70.5t52.5 43t64.5 10.5t62.5 -28q31 -27 37 -58.5t-4.5 -58t-34 -41t-53.5 -4.5q29 25 29.5 52.5t-13.5 48t-39 28t-45 -11.5q-18 -12 -29.5 -35.5t-11.5 -50t12.5 -50.5t40.5 -36q39 -20 84 -10q-25 10 -24 18q23 -10 47 -4t28 6 q35 27 53.5 71t2.5 97q-18 55 -66.5 80t-105.5 17l16 28v127q0 10 -12 10q29 4 64.5 23.5t52.5 38.5q4 -23 27.5 -41.5t35.5 -20.5q-10 0 -10 -10v-127l-47 21q-8 2 -17.5 6t-17.5 4h8h21v139q-14 -8 -26.5 -15t-29.5 -16h6v-118q86 -16 133 -80v72q-25 0 -26.5 16t14.5 22 q-8 -10 -2 -14t14 0v82q0 4 -8 12q-4 4 -8 6h131v-96q-31 33 -55 37q10 0 10 10v29h-35l9 -4v-66q33 6 47 -4q16 -10 6 -33q4 16 -18.5 15.5t-45.5 -4.5l11 -4v-111h22l4 -10v39q0 10 -10 10q10 4 25.5 12t29.5 25v-96h-86q4 -10 4 -31h72v-309q63 -12 141 -9.5t155 12 t145.5 19.5t113.5 16h2l2 5l-45 149q-6 12 0 21q0 -20 14 -23q2 2 2 12v86h-26l6 -2v-227h-43v127q0 10 -8 18l-6 7h14v81q0 2 -8 11l-6 6h122v-137q-16 -4 -30 0l18 -11q4 -16 15.5 -46.5t21.5 -65.5q-12 -4 -14 -4q-4 -2 -6 -2h20zM80 141q8 -8 18.5 -7t18.5 7t9 17.5 t-11 23.5q-8 10 -24.5 13.5t-33.5 7.5q4 -18 9.5 -35t13.5 -27zM164 498q-4 4 -8 6h61v-250h-108v127q0 10 -9 18l-6 7h15v81l-11 11q-4 4 -8 6h60v-225l-15 -5h4h31l4 -10v223zM-270 535h-127l6 6q8 8 8 12v109h-10q-6 -2 -21 -3l15 -4v-116q-23 -20 -39.5 -44t-26.5 -46 q-8 23 -23.5 46t-37.5 44v123q0 14 -9 22l-6 6h15v78q0 4 -3 6t-8 6q-4 4 -8 6h64v-254l-11 7q4 -8 13.5 -20.5t13.5 -20.5q8 14 16 24v2l5 -10v148q-29 6 -21 38q-4 -14 3 -17t18 -7v96q0 8 -17 14h62v-104q2 4 16 4v82q0 4 -8 12l-6 6h127v-96q-10 16 -26.5 25.5 t-25.5 11.5q10 0 11 10v29h-37l10 -4v-66q35 6 47 0q16 -10 8 -34q0 10 -4 14t-24.5 2t-36.5 -6l10 -2v-115h25l2 -10v39q0 10 -11 10q8 4 24.5 12t27.5 25v-96zM-176 586v180q0 20 -21 20h62v-251h-45l-27 124l2 -28v-96h-43v127q0 14 -8 22l-6 6h14v78q0 4 -3 6t-7 6t-8 6 h51l35 -165zM104 111q-4 0 -4 -5v-4v-24h-2l-14 20v4h-4v-6v-8v-6v-4h4h-6v4v20v4v5h6l10 -23h4v-2v6v6v4v4q-4 0 -4 3v2h10zM12 111l-4 -5v-4v-14v-2q0 -4 -2 -4v-4h-4l-4 -2q-2 0 -2 1t-4 1h-4v4v6v14v4h-2v5h10q-2 0 -4 -2v-3v-4v-16v-4l4 -4h2h4v4q4 0 4 4v2v14v4 q-4 0 -4 3v2h10zM287 78h-6q0 2 -2 4h-3v4l-2 2h-2v4h-2h-4v-10q0 -4 4 -4h-10h2v4v20v4v3l-2 2h12q8 0 9 -5l2 -2v-2q0 -6 -2 -6v-2q0 -2 -5 -2l5 -4v-2l2 -4v-4h4zM274 92l2 4l3 2h2q0 2 -2 4h-3v4h-6h-4v-14h4h2h2zM190 106q0 -4 2.5 -4t2.5 -4v-6v-6v-2q0 -2 -5 -2v-2 q0 -2 -4 -2h-2h-8h-6v4v20v4v5h10h6q0 -4 2 -5h2zM190 92q0 6 -4 10v2l-2 2h-4h-4v-28h8v4h2v4h4v2v4zM373 111v-5h-4v-2q0 -2 -2 -2l-5 -10v-10v-4h-10h4v4v10l-8 10v4h-4v5h12l-4 -5l4 -4l2 -10l9 10v4q0 4 -5 5h11zM-354 111q6 0 10 -5v-8v-2v-2q0 -2 -4 -2h-4h-2h-4v-10 v-4h4h-11v4h3v20v4h-3v5h11zM-348 98v4q0 4 -4 4h-2h-4v-14h4h2v2l4 2v2zM-170 111v-9h-4v4h-2h-8v-10h4h4v2h2v-10h-2v4h-4h-4v-10v-4h4h-10v4v20v4v5h20zM-258 86h2l-2 -8h-23h5v4v20v4q-4 0 -5 3v2h25v-9h-2q0 2 -2 4h-2h-4h-6v-10h6q4 0 4 2v-10v2l-4 2h-6v-14h6h4 q0 4 4 4v4zM-80 102v-10v-6q-4 -4 -4 -6t-4 -2l-2 -2h-4l-4 2q-2 0 -6 4v4q0 2 -2.5 2t-2.5 4t2.5 5t2.5 5t2 4h2q0 4 4 5h2h6zM-88 86q4 2 4 6t-2 5t-2 5v2l-2 2h-4h-4l-2 -4v-4v-6v-10q2 -4 6 -4t6 4v4zM-428 111q-2 0 -2 -2v-3q-2 0 -4 -2v-2l-6 -10v-10v-4h2h-11h5v4v10 l-7 10l-4 4v5h11q-2 0 -5 -2v-3v-4l9 -10l2 10q0 4 2 4h2h-4v5h10zM-545 111h29v-9h-4q0 2 -2 4h-2h-2v-24v-4h-11h2v4v24h-2h-4v-4h-4v9z" />
<glyph unicode="5" d="M485 39q16 6 10 -3t-16 -22l-35 -34q-123 -82 -253 -128.5t-263 -70t-266 -32.5t-262 -17q-141 -10 -283.5 -14.5t-282 -8.5t-273.5 -10t-259 -21q-80 -10 -141.5 -33.5t-105.5 -54t-69.5 -64.5t-31.5 -65q-12 -53 15.5 -76.5t62.5 -23.5t65.5 17.5t38.5 48.5q4 27 -3 38 t-17 11q-20 0 -39 -19.5t-23 -36.5q-25 23 -14 58q6 25 26.5 45t55.5 20q37 0 55.5 -20.5t10.5 -59.5q-6 -23 -22.5 -47t-44.5 -44.5t-68 -33t-93 -12.5t-110.5 18.5t-101.5 52.5t-67.5 82t-11.5 107q14 63 78 133q51 57 133 93t186.5 56.5t228.5 29t259 8.5 q236 0 485.5 -13.5t491.5 -13.5q174 0 327.5 12.5t282.5 47.5q16 4 29.5 9t30.5 9q-2 0 -4 2q70 16 129 33q51 14 97 27.5t62 19.5zM-623 807q-47 16 -44 48t51 48q51 16 119.5 5t142 -30.5t146.5 -39t134 -19.5q20 0 55 3t52 22q12 14 7 25.5t-15.5 14.5t-22.5 -1t-16 -19 q0 10 8 19q4 6 15 12t28 4q18 0 24.5 -13.5t0 -31.5t-25 -34.5t-50.5 -22.5q-14 -4 -31.5 -4h-38.5l14 -7v-251h-49q4 4 4 10v121q-2 6 -4 10l-4 8l-6 6h14v103q-100 10 -196.5 39.5t-184.5 39.5q-39 4 -72.5 3t-49.5 -13q-8 -10 -9.5 -20.5t9.5 -18.5q8 -8 21 -8t24.5 3 t14.5 10.5t-7 15.5q-8 4 -15.5 6t-17.5 -2q14 14 31.5 13t27 -9t8.5 -21.5t-20 -21.5q-12 -4 -32 -6t-40 4zM-434 412l4 24q-14 -27 -22.5 -54.5t-12.5 -31.5q-4 4 -12 32t-23 54l8 -24v-158h-59q2 2 6 4q8 4 8 12v107q0 8 -2 13t-4 9t-4 7h10v81q0 2 -8 11l-6 6h37 q23 -29 34 -56.5t15 -46.5q4 18 17.5 46t33.5 57h39q-4 -2 -8 -6q-6 -6 -6 -11v-233h-62l17 14v144zM383 123q-12 18 -30.5 36.5t-35.5 18.5q4 0 11 4q12 8 14 17v227q-10 -27 -19.5 -49.5t-11.5 -26.5q-4 4 -13 32t-22 54l7 -18v-164h-58q2 2 6 4q8 4 9 12v107 q0 16 -5.5 22.5t-9.5 6.5h15v81q0 2 -9 11l-6 6h37q18 -29 30.5 -56.5t18.5 -46.5q2 10 8.5 25.5t14.5 32.5q14 25 27.5 48t21.5 46v-430zM63 696q27 8 56 13q25 4 53.5 3t52.5 -10q31 -10 47.5 -30.5t18.5 -45t-9.5 -47t-35.5 -36.5q-14 -10 -36 -14.5t-44.5 -1.5t-43 11.5 t-32.5 24.5t-10 32.5t18 29.5q27 16 66 10q16 -6 25.5 -17.5t11.5 -23.5t-4.5 -21.5t-22.5 -9.5q-10 0 -20.5 3t-14.5 14q4 -2 11 -2q10 0 14 12q0 6 -7 11t-17.5 5t-19.5 -5t-11 -15q-4 -16 8 -27.5t30.5 -15.5t40 -2t33.5 14q23 23 19 61.5t-39 55.5q-16 6 -36 10t-42 0 q4 -2 6 -7t-4 -9q2 8 -6 10t-19.5 2t-21.5 -2t-15 -4v-97q0 -16 2.5 -25t12.5 -15h-60v127q-10 0 -18 -1.5t-18 -1.5q4 -4 6 -4h4v-120h-45v131q-18 8 -10 34q-4 -10 1 -15t9 -5v88q0 4 -8 12l-7 6h60v-104l26 4v90q0 10 -10 10q10 2 26.5 11.5t28.5 25.5v-121l-14 -6h14z M-166 446q12 0 12 11v26h-32l6 -2v-75q35 4 49 -5q14 -8 6 -34q4 18 -16.5 18t-38.5 -4v-107h20l6 -10v35q0 10 -12 10q10 4 27.5 14.5t27.5 26.5v-96h-127q2 2 7 4q6 6 6 10v103l-21 -4h-24.5t-22.5 4t-15 12t1 25q-6 -18 14 -23q2 2 2 12v86h-31l9 -2v-227h-60l8 4 q8 4 11 12v111q0 10 -8 18l-7 7h15v81l-11 11q-4 4 -8 6h127v-117q6 4 11.5 4t9.5 4v92q0 2 -8 11q-4 4 -9 6h131v-96q-10 16 -27.5 25t-27.5 13zM43 254v123q-2 8 -4 13t-4 9l-6 7h14v81l-10 11l-6 6h57v-234q2 -8 10 -12q4 -2 6 -4h-16h-41zM43 238q59 0 87 -19.5 t34 -40.5q2 -18 -13.5 -32.5t-38 -19.5t-46 2t-37.5 34q-8 14 -13 33q4 2 10.5 3t10.5 3q6 2 10 2q-14 0 -24.5 -2t-24.5 -2q-57 -6 -131 -19.5t-151.5 -23t-154.5 -10.5t-143 18q10 -10 25 -10v-82q-10 41 -34.5 51t-41.5 10q4 2 8 6q8 8 9 15v20q-4 4 -11.5 7t-15.5 7 q-12 6 -28.5 16.5t-30 25t-22.5 29.5t-5 32q4 10 19.5 18t37.5 -4q-29 12 -33 -5t13 -40q14 -16 33.5 -28.5t42.5 -22.5v137q0 10 -2.5 16.5t-4.5 10.5q-4 6 -6 8h13v100q0 4 -3.5 8.5t-7.5 8.5q0 -23 -5 -46.5t-19 -50.5q-23 -53 -79 -80.5t-110 -21.5q-33 0 -58.5 15.5 t-44 39t-26.5 53t-8 60.5q2 41 23.5 70.5t52.5 43t64.5 10.5t62.5 -28q31 -27 37 -58.5t-4.5 -58t-34 -41t-53.5 -4.5q29 25 29.5 52.5t-13.5 48t-39 28t-45 -11.5q-18 -12 -29.5 -35.5t-11.5 -50t12.5 -50.5t40.5 -36q39 -20 84 -10q-25 10 -24 18q23 -10 47 -4t28 6 q35 27 53.5 71t2.5 97q-18 55 -66.5 80t-105.5 17l16 28v127q0 10 -12 10q29 4 64.5 23.5t52.5 38.5q4 -23 27.5 -41.5t35.5 -20.5q-10 0 -10 -10v-127l-47 21q-8 2 -17.5 6t-17.5 4h8h21v139q-14 -8 -26.5 -15t-29.5 -16h6v-118q86 -16 133 -80v72q-25 0 -26.5 16t14.5 22 q-8 -10 -2 -14t14 0v82q0 4 -8 12q-4 4 -8 6h131v-96q-31 33 -55 37q10 0 10 10v29h-35l9 -4v-66q33 6 47 -4q16 -10 6 -33q4 16 -18.5 15.5t-45.5 -4.5l11 -4v-111h22l4 -10v39q0 10 -10 10q10 4 25.5 12t29.5 25v-96h-86q4 -10 4 -31h72v-309q63 -12 141 -9.5t155 12 t145.5 19.5t113.5 16h2l2 5l-45 149q-6 12 0 21q0 -20 14 -23q2 2 2 12v86h-26l6 -2v-227h-43v127q0 10 -8 18l-6 7h14v81q0 2 -8 11l-6 6h122v-137q-16 -4 -30 0l18 -11q4 -16 15.5 -46.5t21.5 -65.5q-12 -4 -14 -4q-4 -2 -6 -2h20zM80 141q8 -8 18.5 -7t18.5 7t9 17.5 t-11 23.5q-8 10 -24.5 13.5t-33.5 7.5q4 -18 9.5 -35t13.5 -27zM164 498q-4 4 -8 6h61v-250h-108v127q0 10 -9 18l-6 7h15v81l-11 11q-4 4 -8 6h60v-225l-15 -5h4h31l4 -10v223zM-270 535h-127l6 6q8 8 8 12v109h-10q-6 -2 -21 -3l15 -4v-116q-23 -20 -39.5 -44t-26.5 -46 q-8 23 -23.5 46t-37.5 44v123q0 14 -9 22l-6 6h15v78q0 4 -3 6t-8 6q-4 4 -8 6h64v-254l-11 7q4 -8 13.5 -20.5t13.5 -20.5q8 14 16 24v2l5 -10v148q-29 6 -21 38q-4 -14 3 -17t18 -7v96q0 8 -17 14h62v-104q2 4 16 4v82q0 4 -8 12l-6 6h127v-96q-10 16 -26.5 25.5 t-25.5 11.5q10 0 11 10v29h-37l10 -4v-66q35 6 47 0q16 -10 8 -34q0 10 -4 14t-24.5 2t-36.5 -6l10 -2v-115h25l2 -10v39q0 10 -11 10q8 4 24.5 12t27.5 25v-96zM-176 586v180q0 20 -21 20h62v-251h-45l-27 124l2 -28v-96h-43v127q0 14 -8 22l-6 6h14v78q0 4 -3 6t-7 6t-8 6 h51l35 -165zM104 111q-4 0 -4 -5v-4v-24h-2l-14 20v4h-4v-6v-8v-6v-4h4h-6v4v20v4v5h6l10 -23h4v-2v6v6v4v4q-4 0 -4 3v2h10zM12 111l-4 -5v-4v-14v-2q0 -4 -2 -4v-4h-4l-4 -2q-2 0 -2 1t-4 1h-4v4v6v14v4h-2v5h10q-2 0 -4 -2v-3v-4v-16v-4l4 -4h2h4v4q4 0 4 4v2v14v4 q-4 0 -4 3v2h10zM287 78h-6q0 2 -2 4h-3v4l-2 2h-2v4h-2h-4v-10q0 -4 4 -4h-10h2v4v20v4v3l-2 2h12q8 0 9 -5l2 -2v-2q0 -6 -2 -6v-2q0 -2 -5 -2l5 -4v-2l2 -4v-4h4zM274 92l2 4l3 2h2q0 2 -2 4h-3v4h-6h-4v-14h4h2h2zM190 106q0 -4 2.5 -4t2.5 -4v-6v-6v-2q0 -2 -5 -2v-2 q0 -2 -4 -2h-2h-8h-6v4v20v4v5h10h6q0 -4 2 -5h2zM190 92q0 6 -4 10v2l-2 2h-4h-4v-28h8v4h2v4h4v2v4zM373 111v-5h-4v-2q0 -2 -2 -2l-5 -10v-10v-4h-10h4v4v10l-8 10v4h-4v5h12l-4 -5l4 -4l2 -10l9 10v4q0 4 -5 5h11zM-354 111q6 0 10 -5v-8v-2v-2q0 -2 -4 -2h-4h-2h-4v-10 v-4h4h-11v4h3v20v4h-3v5h11zM-348 98v4q0 4 -4 4h-2h-4v-14h4h2v2l4 2v2zM-170 111v-9h-4v4h-2h-8v-10h4h4v2h2v-10h-2v4h-4h-4v-10v-4h4h-10v4v20v4v5h20zM-258 86h2l-2 -8h-23h5v4v20v4q-4 0 -5 3v2h25v-9h-2q0 2 -2 4h-2h-4h-6v-10h6q4 0 4 2v-10v2l-4 2h-6v-14h6h4 q0 4 4 4v4zM-80 102v-10v-6q-4 -4 -4 -6t-4 -2l-2 -2h-4l-4 2q-2 0 -6 4v4q0 2 -2.5 2t-2.5 4t2.5 5t2.5 5t2 4h2q0 4 4 5h2h6zM-88 86q4 2 4 6t-2 5t-2 5v2l-2 2h-4h-4l-2 -4v-4v-6v-10q2 -4 6 -4t6 4v4zM-428 111q-2 0 -2 -2v-3q-2 0 -4 -2v-2l-6 -10v-10v-4h2h-11h5v4v10 l-7 10l-4 4v5h11q-2 0 -5 -2v-3v-4l9 -10l2 10q0 4 2 4h2h-4v5h10zM-545 111h29v-9h-4q0 2 -2 4h-2h-2v-24v-4h-11h2v4v24h-2h-4v-4h-4v9z" />
<glyph unicode="6" d="M485 39q16 6 10 -3t-16 -22l-35 -34q-123 -82 -253 -128.5t-263 -70t-266 -32.5t-262 -17q-141 -10 -283.5 -14.5t-282 -8.5t-273.5 -10t-259 -21q-80 -10 -141.5 -33.5t-105.5 -54t-69.5 -64.5t-31.5 -65q-12 -53 15.5 -76.5t62.5 -23.5t65.5 17.5t38.5 48.5q4 27 -3 38 t-17 11q-20 0 -39 -19.5t-23 -36.5q-25 23 -14 58q6 25 26.5 45t55.5 20q37 0 55.5 -20.5t10.5 -59.5q-6 -23 -22.5 -47t-44.5 -44.5t-68 -33t-93 -12.5t-110.5 18.5t-101.5 52.5t-67.5 82t-11.5 107q14 63 78 133q51 57 133 93t186.5 56.5t228.5 29t259 8.5 q236 0 485.5 -13.5t491.5 -13.5q174 0 327.5 12.5t282.5 47.5q16 4 29.5 9t30.5 9q-2 0 -4 2q70 16 129 33q51 14 97 27.5t62 19.5zM-623 807q-47 16 -44 48t51 48q51 16 119.5 5t142 -30.5t146.5 -39t134 -19.5q20 0 55 3t52 22q12 14 7 25.5t-15.5 14.5t-22.5 -1t-16 -19 q0 10 8 19q4 6 15 12t28 4q18 0 24.5 -13.5t0 -31.5t-25 -34.5t-50.5 -22.5q-14 -4 -31.5 -4h-38.5l14 -7v-251h-49q4 4 4 10v121q-2 6 -4 10l-4 8l-6 6h14v103q-100 10 -196.5 39.5t-184.5 39.5q-39 4 -72.5 3t-49.5 -13q-8 -10 -9.5 -20.5t9.5 -18.5q8 -8 21 -8t24.5 3 t14.5 10.5t-7 15.5q-8 4 -15.5 6t-17.5 -2q14 14 31.5 13t27 -9t8.5 -21.5t-20 -21.5q-12 -4 -32 -6t-40 4zM-434 412l4 24q-14 -27 -22.5 -54.5t-12.5 -31.5q-4 4 -12 32t-23 54l8 -24v-158h-59q2 2 6 4q8 4 8 12v107q0 8 -2 13t-4 9t-4 7h10v81q0 2 -8 11l-6 6h37 q23 -29 34 -56.5t15 -46.5q4 18 17.5 46t33.5 57h39q-4 -2 -8 -6q-6 -6 -6 -11v-233h-62l17 14v144zM383 123q-12 18 -30.5 36.5t-35.5 18.5q4 0 11 4q12 8 14 17v227q-10 -27 -19.5 -49.5t-11.5 -26.5q-4 4 -13 32t-22 54l7 -18v-164h-58q2 2 6 4q8 4 9 12v107 q0 16 -5.5 22.5t-9.5 6.5h15v81q0 2 -9 11l-6 6h37q18 -29 30.5 -56.5t18.5 -46.5q2 10 8.5 25.5t14.5 32.5q14 25 27.5 48t21.5 46v-430zM63 696q27 8 56 13q25 4 53.5 3t52.5 -10q31 -10 47.5 -30.5t18.5 -45t-9.5 -47t-35.5 -36.5q-14 -10 -36 -14.5t-44.5 -1.5t-43 11.5 t-32.5 24.5t-10 32.5t18 29.5q27 16 66 10q16 -6 25.5 -17.5t11.5 -23.5t-4.5 -21.5t-22.5 -9.5q-10 0 -20.5 3t-14.5 14q4 -2 11 -2q10 0 14 12q0 6 -7 11t-17.5 5t-19.5 -5t-11 -15q-4 -16 8 -27.5t30.5 -15.5t40 -2t33.5 14q23 23 19 61.5t-39 55.5q-16 6 -36 10t-42 0 q4 -2 6 -7t-4 -9q2 8 -6 10t-19.5 2t-21.5 -2t-15 -4v-97q0 -16 2.5 -25t12.5 -15h-60v127q-10 0 -18 -1.5t-18 -1.5q4 -4 6 -4h4v-120h-45v131q-18 8 -10 34q-4 -10 1 -15t9 -5v88q0 4 -8 12l-7 6h60v-104l26 4v90q0 10 -10 10q10 2 26.5 11.5t28.5 25.5v-121l-14 -6h14z M-166 446q12 0 12 11v26h-32l6 -2v-75q35 4 49 -5q14 -8 6 -34q4 18 -16.5 18t-38.5 -4v-107h20l6 -10v35q0 10 -12 10q10 4 27.5 14.5t27.5 26.5v-96h-127q2 2 7 4q6 6 6 10v103l-21 -4h-24.5t-22.5 4t-15 12t1 25q-6 -18 14 -23q2 2 2 12v86h-31l9 -2v-227h-60l8 4 q8 4 11 12v111q0 10 -8 18l-7 7h15v81l-11 11q-4 4 -8 6h127v-117q6 4 11.5 4t9.5 4v92q0 2 -8 11q-4 4 -9 6h131v-96q-10 16 -27.5 25t-27.5 13zM43 254v123q-2 8 -4 13t-4 9l-6 7h14v81l-10 11l-6 6h57v-234q2 -8 10 -12q4 -2 6 -4h-16h-41zM43 238q59 0 87 -19.5 t34 -40.5q2 -18 -13.5 -32.5t-38 -19.5t-46 2t-37.5 34q-8 14 -13 33q4 2 10.5 3t10.5 3q6 2 10 2q-14 0 -24.5 -2t-24.5 -2q-57 -6 -131 -19.5t-151.5 -23t-154.5 -10.5t-143 18q10 -10 25 -10v-82q-10 41 -34.5 51t-41.5 10q4 2 8 6q8 8 9 15v20q-4 4 -11.5 7t-15.5 7 q-12 6 -28.5 16.5t-30 25t-22.5 29.5t-5 32q4 10 19.5 18t37.5 -4q-29 12 -33 -5t13 -40q14 -16 33.5 -28.5t42.5 -22.5v137q0 10 -2.5 16.5t-4.5 10.5q-4 6 -6 8h13v100q0 4 -3.5 8.5t-7.5 8.5q0 -23 -5 -46.5t-19 -50.5q-23 -53 -79 -80.5t-110 -21.5q-33 0 -58.5 15.5 t-44 39t-26.5 53t-8 60.5q2 41 23.5 70.5t52.5 43t64.5 10.5t62.5 -28q31 -27 37 -58.5t-4.5 -58t-34 -41t-53.5 -4.5q29 25 29.5 52.5t-13.5 48t-39 28t-45 -11.5q-18 -12 -29.5 -35.5t-11.5 -50t12.5 -50.5t40.5 -36q39 -20 84 -10q-25 10 -24 18q23 -10 47 -4t28 6 q35 27 53.5 71t2.5 97q-18 55 -66.5 80t-105.5 17l16 28v127q0 10 -12 10q29 4 64.5 23.5t52.5 38.5q4 -23 27.5 -41.5t35.5 -20.5q-10 0 -10 -10v-127l-47 21q-8 2 -17.5 6t-17.5 4h8h21v139q-14 -8 -26.5 -15t-29.5 -16h6v-118q86 -16 133 -80v72q-25 0 -26.5 16t14.5 22 q-8 -10 -2 -14t14 0v82q0 4 -8 12q-4 4 -8 6h131v-96q-31 33 -55 37q10 0 10 10v29h-35l9 -4v-66q33 6 47 -4q16 -10 6 -33q4 16 -18.5 15.5t-45.5 -4.5l11 -4v-111h22l4 -10v39q0 10 -10 10q10 4 25.5 12t29.5 25v-96h-86q4 -10 4 -31h72v-309q63 -12 141 -9.5t155 12 t145.5 19.5t113.5 16h2l2 5l-45 149q-6 12 0 21q0 -20 14 -23q2 2 2 12v86h-26l6 -2v-227h-43v127q0 10 -8 18l-6 7h14v81q0 2 -8 11l-6 6h122v-137q-16 -4 -30 0l18 -11q4 -16 15.5 -46.5t21.5 -65.5q-12 -4 -14 -4q-4 -2 -6 -2h20zM80 141q8 -8 18.5 -7t18.5 7t9 17.5 t-11 23.5q-8 10 -24.5 13.5t-33.5 7.5q4 -18 9.5 -35t13.5 -27zM164 498q-4 4 -8 6h61v-250h-108v127q0 10 -9 18l-6 7h15v81l-11 11q-4 4 -8 6h60v-225l-15 -5h4h31l4 -10v223zM-270 535h-127l6 6q8 8 8 12v109h-10q-6 -2 -21 -3l15 -4v-116q-23 -20 -39.5 -44t-26.5 -46 q-8 23 -23.5 46t-37.5 44v123q0 14 -9 22l-6 6h15v78q0 4 -3 6t-8 6q-4 4 -8 6h64v-254l-11 7q4 -8 13.5 -20.5t13.5 -20.5q8 14 16 24v2l5 -10v148q-29 6 -21 38q-4 -14 3 -17t18 -7v96q0 8 -17 14h62v-104q2 4 16 4v82q0 4 -8 12l-6 6h127v-96q-10 16 -26.5 25.5 t-25.5 11.5q10 0 11 10v29h-37l10 -4v-66q35 6 47 0q16 -10 8 -34q0 10 -4 14t-24.5 2t-36.5 -6l10 -2v-115h25l2 -10v39q0 10 -11 10q8 4 24.5 12t27.5 25v-96zM-176 586v180q0 20 -21 20h62v-251h-45l-27 124l2 -28v-96h-43v127q0 14 -8 22l-6 6h14v78q0 4 -3 6t-7 6t-8 6 h51l35 -165zM104 111q-4 0 -4 -5v-4v-24h-2l-14 20v4h-4v-6v-8v-6v-4h4h-6v4v20v4v5h6l10 -23h4v-2v6v6v4v4q-4 0 -4 3v2h10zM12 111l-4 -5v-4v-14v-2q0 -4 -2 -4v-4h-4l-4 -2q-2 0 -2 1t-4 1h-4v4v6v14v4h-2v5h10q-2 0 -4 -2v-3v-4v-16v-4l4 -4h2h4v4q4 0 4 4v2v14v4 q-4 0 -4 3v2h10zM287 78h-6q0 2 -2 4h-3v4l-2 2h-2v4h-2h-4v-10q0 -4 4 -4h-10h2v4v20v4v3l-2 2h12q8 0 9 -5l2 -2v-2q0 -6 -2 -6v-2q0 -2 -5 -2l5 -4v-2l2 -4v-4h4zM274 92l2 4l3 2h2q0 2 -2 4h-3v4h-6h-4v-14h4h2h2zM190 106q0 -4 2.5 -4t2.5 -4v-6v-6v-2q0 -2 -5 -2v-2 q0 -2 -4 -2h-2h-8h-6v4v20v4v5h10h6q0 -4 2 -5h2zM190 92q0 6 -4 10v2l-2 2h-4h-4v-28h8v4h2v4h4v2v4zM373 111v-5h-4v-2q0 -2 -2 -2l-5 -10v-10v-4h-10h4v4v10l-8 10v4h-4v5h12l-4 -5l4 -4l2 -10l9 10v4q0 4 -5 5h11zM-354 111q6 0 10 -5v-8v-2v-2q0 -2 -4 -2h-4h-2h-4v-10 v-4h4h-11v4h3v20v4h-3v5h11zM-348 98v4q0 4 -4 4h-2h-4v-14h4h2v2l4 2v2zM-170 111v-9h-4v4h-2h-8v-10h4h4v2h2v-10h-2v4h-4h-4v-10v-4h4h-10v4v20v4v5h20zM-258 86h2l-2 -8h-23h5v4v20v4q-4 0 -5 3v2h25v-9h-2q0 2 -2 4h-2h-4h-6v-10h6q4 0 4 2v-10v2l-4 2h-6v-14h6h4 q0 4 4 4v4zM-80 102v-10v-6q-4 -4 -4 -6t-4 -2l-2 -2h-4l-4 2q-2 0 -6 4v4q0 2 -2.5 2t-2.5 4t2.5 5t2.5 5t2 4h2q0 4 4 5h2h6zM-88 86q4 2 4 6t-2 5t-2 5v2l-2 2h-4h-4l-2 -4v-4v-6v-10q2 -4 6 -4t6 4v4zM-428 111q-2 0 -2 -2v-3q-2 0 -4 -2v-2l-6 -10v-10v-4h2h-11h5v4v10 l-7 10l-4 4v5h11q-2 0 -5 -2v-3v-4l9 -10l2 10q0 4 2 4h2h-4v5h10zM-545 111h29v-9h-4q0 2 -2 4h-2h-2v-24v-4h-11h2v4v24h-2h-4v-4h-4v9z" />
<glyph unicode="7" d="M485 39q16 6 10 -3t-16 -22l-35 -34q-123 -82 -253 -128.5t-263 -70t-266 -32.5t-262 -17q-141 -10 -283.5 -14.5t-282 -8.5t-273.5 -10t-259 -21q-80 -10 -141.5 -33.5t-105.5 -54t-69.5 -64.5t-31.5 -65q-12 -53 15.5 -76.5t62.5 -23.5t65.5 17.5t38.5 48.5q4 27 -3 38 t-17 11q-20 0 -39 -19.5t-23 -36.5q-25 23 -14 58q6 25 26.5 45t55.5 20q37 0 55.5 -20.5t10.5 -59.5q-6 -23 -22.5 -47t-44.5 -44.5t-68 -33t-93 -12.5t-110.5 18.5t-101.5 52.5t-67.5 82t-11.5 107q14 63 78 133q51 57 133 93t186.5 56.5t228.5 29t259 8.5 q236 0 485.5 -13.5t491.5 -13.5q174 0 327.5 12.5t282.5 47.5q16 4 29.5 9t30.5 9q-2 0 -4 2q70 16 129 33q51 14 97 27.5t62 19.5zM-623 807q-47 16 -44 48t51 48q51 16 119.5 5t142 -30.5t146.5 -39t134 -19.5q20 0 55 3t52 22q12 14 7 25.5t-15.5 14.5t-22.5 -1t-16 -19 q0 10 8 19q4 6 15 12t28 4q18 0 24.5 -13.5t0 -31.5t-25 -34.5t-50.5 -22.5q-14 -4 -31.5 -4h-38.5l14 -7v-251h-49q4 4 4 10v121q-2 6 -4 10l-4 8l-6 6h14v103q-100 10 -196.5 39.5t-184.5 39.5q-39 4 -72.5 3t-49.5 -13q-8 -10 -9.5 -20.5t9.5 -18.5q8 -8 21 -8t24.5 3 t14.5 10.5t-7 15.5q-8 4 -15.5 6t-17.5 -2q14 14 31.5 13t27 -9t8.5 -21.5t-20 -21.5q-12 -4 -32 -6t-40 4zM-434 412l4 24q-14 -27 -22.5 -54.5t-12.5 -31.5q-4 4 -12 32t-23 54l8 -24v-158h-59q2 2 6 4q8 4 8 12v107q0 8 -2 13t-4 9t-4 7h10v81q0 2 -8 11l-6 6h37 q23 -29 34 -56.5t15 -46.5q4 18 17.5 46t33.5 57h39q-4 -2 -8 -6q-6 -6 -6 -11v-233h-62l17 14v144zM383 123q-12 18 -30.5 36.5t-35.5 18.5q4 0 11 4q12 8 14 17v227q-10 -27 -19.5 -49.5t-11.5 -26.5q-4 4 -13 32t-22 54l7 -18v-164h-58q2 2 6 4q8 4 9 12v107 q0 16 -5.5 22.5t-9.5 6.5h15v81q0 2 -9 11l-6 6h37q18 -29 30.5 -56.5t18.5 -46.5q2 10 8.5 25.5t14.5 32.5q14 25 27.5 48t21.5 46v-430zM63 696q27 8 56 13q25 4 53.5 3t52.5 -10q31 -10 47.5 -30.5t18.5 -45t-9.5 -47t-35.5 -36.5q-14 -10 -36 -14.5t-44.5 -1.5t-43 11.5 t-32.5 24.5t-10 32.5t18 29.5q27 16 66 10q16 -6 25.5 -17.5t11.5 -23.5t-4.5 -21.5t-22.5 -9.5q-10 0 -20.5 3t-14.5 14q4 -2 11 -2q10 0 14 12q0 6 -7 11t-17.5 5t-19.5 -5t-11 -15q-4 -16 8 -27.5t30.5 -15.5t40 -2t33.5 14q23 23 19 61.5t-39 55.5q-16 6 -36 10t-42 0 q4 -2 6 -7t-4 -9q2 8 -6 10t-19.5 2t-21.5 -2t-15 -4v-97q0 -16 2.5 -25t12.5 -15h-60v127q-10 0 -18 -1.5t-18 -1.5q4 -4 6 -4h4v-120h-45v131q-18 8 -10 34q-4 -10 1 -15t9 -5v88q0 4 -8 12l-7 6h60v-104l26 4v90q0 10 -10 10q10 2 26.5 11.5t28.5 25.5v-121l-14 -6h14z M-166 446q12 0 12 11v26h-32l6 -2v-75q35 4 49 -5q14 -8 6 -34q4 18 -16.5 18t-38.5 -4v-107h20l6 -10v35q0 10 -12 10q10 4 27.5 14.5t27.5 26.5v-96h-127q2 2 7 4q6 6 6 10v103l-21 -4h-24.5t-22.5 4t-15 12t1 25q-6 -18 14 -23q2 2 2 12v86h-31l9 -2v-227h-60l8 4 q8 4 11 12v111q0 10 -8 18l-7 7h15v81l-11 11q-4 4 -8 6h127v-117q6 4 11.5 4t9.5 4v92q0 2 -8 11q-4 4 -9 6h131v-96q-10 16 -27.5 25t-27.5 13zM43 254v123q-2 8 -4 13t-4 9l-6 7h14v81l-10 11l-6 6h57v-234q2 -8 10 -12q4 -2 6 -4h-16h-41zM43 238q59 0 87 -19.5 t34 -40.5q2 -18 -13.5 -32.5t-38 -19.5t-46 2t-37.5 34q-8 14 -13 33q4 2 10.5 3t10.5 3q6 2 10 2q-14 0 -24.5 -2t-24.5 -2q-57 -6 -131 -19.5t-151.5 -23t-154.5 -10.5t-143 18q10 -10 25 -10v-82q-10 41 -34.5 51t-41.5 10q4 2 8 6q8 8 9 15v20q-4 4 -11.5 7t-15.5 7 q-12 6 -28.5 16.5t-30 25t-22.5 29.5t-5 32q4 10 19.5 18t37.5 -4q-29 12 -33 -5t13 -40q14 -16 33.5 -28.5t42.5 -22.5v137q0 10 -2.5 16.5t-4.5 10.5q-4 6 -6 8h13v100q0 4 -3.5 8.5t-7.5 8.5q0 -23 -5 -46.5t-19 -50.5q-23 -53 -79 -80.5t-110 -21.5q-33 0 -58.5 15.5 t-44 39t-26.5 53t-8 60.5q2 41 23.5 70.5t52.5 43t64.5 10.5t62.5 -28q31 -27 37 -58.5t-4.5 -58t-34 -41t-53.5 -4.5q29 25 29.5 52.5t-13.5 48t-39 28t-45 -11.5q-18 -12 -29.5 -35.5t-11.5 -50t12.5 -50.5t40.5 -36q39 -20 84 -10q-25 10 -24 18q23 -10 47 -4t28 6 q35 27 53.5 71t2.5 97q-18 55 -66.5 80t-105.5 17l16 28v127q0 10 -12 10q29 4 64.5 23.5t52.5 38.5q4 -23 27.5 -41.5t35.5 -20.5q-10 0 -10 -10v-127l-47 21q-8 2 -17.5 6t-17.5 4h8h21v139q-14 -8 -26.5 -15t-29.5 -16h6v-118q86 -16 133 -80v72q-25 0 -26.5 16t14.5 22 q-8 -10 -2 -14t14 0v82q0 4 -8 12q-4 4 -8 6h131v-96q-31 33 -55 37q10 0 10 10v29h-35l9 -4v-66q33 6 47 -4q16 -10 6 -33q4 16 -18.5 15.5t-45.5 -4.5l11 -4v-111h22l4 -10v39q0 10 -10 10q10 4 25.5 12t29.5 25v-96h-86q4 -10 4 -31h72v-309q63 -12 141 -9.5t155 12 t145.5 19.5t113.5 16h2l2 5l-45 149q-6 12 0 21q0 -20 14 -23q2 2 2 12v86h-26l6 -2v-227h-43v127q0 10 -8 18l-6 7h14v81q0 2 -8 11l-6 6h122v-137q-16 -4 -30 0l18 -11q4 -16 15.5 -46.5t21.5 -65.5q-12 -4 -14 -4q-4 -2 -6 -2h20zM80 141q8 -8 18.5 -7t18.5 7t9 17.5 t-11 23.5q-8 10 -24.5 13.5t-33.5 7.5q4 -18 9.5 -35t13.5 -27zM164 498q-4 4 -8 6h61v-250h-108v127q0 10 -9 18l-6 7h15v81l-11 11q-4 4 -8 6h60v-225l-15 -5h4h31l4 -10v223zM-270 535h-127l6 6q8 8 8 12v109h-10q-6 -2 -21 -3l15 -4v-116q-23 -20 -39.5 -44t-26.5 -46 q-8 23 -23.5 46t-37.5 44v123q0 14 -9 22l-6 6h15v78q0 4 -3 6t-8 6q-4 4 -8 6h64v-254l-11 7q4 -8 13.5 -20.5t13.5 -20.5q8 14 16 24v2l5 -10v148q-29 6 -21 38q-4 -14 3 -17t18 -7v96q0 8 -17 14h62v-104q2 4 16 4v82q0 4 -8 12l-6 6h127v-96q-10 16 -26.5 25.5 t-25.5 11.5q10 0 11 10v29h-37l10 -4v-66q35 6 47 0q16 -10 8 -34q0 10 -4 14t-24.5 2t-36.5 -6l10 -2v-115h25l2 -10v39q0 10 -11 10q8 4 24.5 12t27.5 25v-96zM-176 586v180q0 20 -21 20h62v-251h-45l-27 124l2 -28v-96h-43v127q0 14 -8 22l-6 6h14v78q0 4 -3 6t-7 6t-8 6 h51l35 -165zM104 111q-4 0 -4 -5v-4v-24h-2l-14 20v4h-4v-6v-8v-6v-4h4h-6v4v20v4v5h6l10 -23h4v-2v6v6v4v4q-4 0 -4 3v2h10zM12 111l-4 -5v-4v-14v-2q0 -4 -2 -4v-4h-4l-4 -2q-2 0 -2 1t-4 1h-4v4v6v14v4h-2v5h10q-2 0 -4 -2v-3v-4v-16v-4l4 -4h2h4v4q4 0 4 4v2v14v4 q-4 0 -4 3v2h10zM287 78h-6q0 2 -2 4h-3v4l-2 2h-2v4h-2h-4v-10q0 -4 4 -4h-10h2v4v20v4v3l-2 2h12q8 0 9 -5l2 -2v-2q0 -6 -2 -6v-2q0 -2 -5 -2l5 -4v-2l2 -4v-4h4zM274 92l2 4l3 2h2q0 2 -2 4h-3v4h-6h-4v-14h4h2h2zM190 106q0 -4 2.5 -4t2.5 -4v-6v-6v-2q0 -2 -5 -2v-2 q0 -2 -4 -2h-2h-8h-6v4v20v4v5h10h6q0 -4 2 -5h2zM190 92q0 6 -4 10v2l-2 2h-4h-4v-28h8v4h2v4h4v2v4zM373 111v-5h-4v-2q0 -2 -2 -2l-5 -10v-10v-4h-10h4v4v10l-8 10v4h-4v5h12l-4 -5l4 -4l2 -10l9 10v4q0 4 -5 5h11zM-354 111q6 0 10 -5v-8v-2v-2q0 -2 -4 -2h-4h-2h-4v-10 v-4h4h-11v4h3v20v4h-3v5h11zM-348 98v4q0 4 -4 4h-2h-4v-14h4h2v2l4 2v2zM-170 111v-9h-4v4h-2h-8v-10h4h4v2h2v-10h-2v4h-4h-4v-10v-4h4h-10v4v20v4v5h20zM-258 86h2l-2 -8h-23h5v4v20v4q-4 0 -5 3v2h25v-9h-2q0 2 -2 4h-2h-4h-6v-10h6q4 0 4 2v-10v2l-4 2h-6v-14h6h4 q0 4 4 4v4zM-80 102v-10v-6q-4 -4 -4 -6t-4 -2l-2 -2h-4l-4 2q-2 0 -6 4v4q0 2 -2.5 2t-2.5 4t2.5 5t2.5 5t2 4h2q0 4 4 5h2h6zM-88 86q4 2 4 6t-2 5t-2 5v2l-2 2h-4h-4l-2 -4v-4v-6v-10q2 -4 6 -4t6 4v4zM-428 111q-2 0 -2 -2v-3q-2 0 -4 -2v-2l-6 -10v-10v-4h2h-11h5v4v10 l-7 10l-4 4v5h11q-2 0 -5 -2v-3v-4l9 -10l2 10q0 4 2 4h2h-4v5h10zM-545 111h29v-9h-4q0 2 -2 4h-2h-2v-24v-4h-11h2v4v24h-2h-4v-4h-4v9z" />
<glyph unicode="8" d="M485 39q16 6 10 -3t-16 -22l-35 -34q-123 -82 -253 -128.5t-263 -70t-266 -32.5t-262 -17q-141 -10 -283.5 -14.5t-282 -8.5t-273.5 -10t-259 -21q-80 -10 -141.5 -33.5t-105.5 -54t-69.5 -64.5t-31.5 -65q-12 -53 15.5 -76.5t62.5 -23.5t65.5 17.5t38.5 48.5q4 27 -3 38 t-17 11q-20 0 -39 -19.5t-23 -36.5q-25 23 -14 58q6 25 26.5 45t55.5 20q37 0 55.5 -20.5t10.5 -59.5q-6 -23 -22.5 -47t-44.5 -44.5t-68 -33t-93 -12.5t-110.5 18.5t-101.5 52.5t-67.5 82t-11.5 107q14 63 78 133q51 57 133 93t186.5 56.5t228.5 29t259 8.5 q236 0 485.5 -13.5t491.5 -13.5q174 0 327.5 12.5t282.5 47.5q16 4 29.5 9t30.5 9q-2 0 -4 2q70 16 129 33q51 14 97 27.5t62 19.5zM-623 807q-47 16 -44 48t51 48q51 16 119.5 5t142 -30.5t146.5 -39t134 -19.5q20 0 55 3t52 22q12 14 7 25.5t-15.5 14.5t-22.5 -1t-16 -19 q0 10 8 19q4 6 15 12t28 4q18 0 24.5 -13.5t0 -31.5t-25 -34.5t-50.5 -22.5q-14 -4 -31.5 -4h-38.5l14 -7v-251h-49q4 4 4 10v121q-2 6 -4 10l-4 8l-6 6h14v103q-100 10 -196.5 39.5t-184.5 39.5q-39 4 -72.5 3t-49.5 -13q-8 -10 -9.5 -20.5t9.5 -18.5q8 -8 21 -8t24.5 3 t14.5 10.5t-7 15.5q-8 4 -15.5 6t-17.5 -2q14 14 31.5 13t27 -9t8.5 -21.5t-20 -21.5q-12 -4 -32 -6t-40 4zM-434 412l4 24q-14 -27 -22.5 -54.5t-12.5 -31.5q-4 4 -12 32t-23 54l8 -24v-158h-59q2 2 6 4q8 4 8 12v107q0 8 -2 13t-4 9t-4 7h10v81q0 2 -8 11l-6 6h37 q23 -29 34 -56.5t15 -46.5q4 18 17.5 46t33.5 57h39q-4 -2 -8 -6q-6 -6 -6 -11v-233h-62l17 14v144zM383 123q-12 18 -30.5 36.5t-35.5 18.5q4 0 11 4q12 8 14 17v227q-10 -27 -19.5 -49.5t-11.5 -26.5q-4 4 -13 32t-22 54l7 -18v-164h-58q2 2 6 4q8 4 9 12v107 q0 16 -5.5 22.5t-9.5 6.5h15v81q0 2 -9 11l-6 6h37q18 -29 30.5 -56.5t18.5 -46.5q2 10 8.5 25.5t14.5 32.5q14 25 27.5 48t21.5 46v-430zM63 696q27 8 56 13q25 4 53.5 3t52.5 -10q31 -10 47.5 -30.5t18.5 -45t-9.5 -47t-35.5 -36.5q-14 -10 -36 -14.5t-44.5 -1.5t-43 11.5 t-32.5 24.5t-10 32.5t18 29.5q27 16 66 10q16 -6 25.5 -17.5t11.5 -23.5t-4.5 -21.5t-22.5 -9.5q-10 0 -20.5 3t-14.5 14q4 -2 11 -2q10 0 14 12q0 6 -7 11t-17.5 5t-19.5 -5t-11 -15q-4 -16 8 -27.5t30.5 -15.5t40 -2t33.5 14q23 23 19 61.5t-39 55.5q-16 6 -36 10t-42 0 q4 -2 6 -7t-4 -9q2 8 -6 10t-19.5 2t-21.5 -2t-15 -4v-97q0 -16 2.5 -25t12.5 -15h-60v127q-10 0 -18 -1.5t-18 -1.5q4 -4 6 -4h4v-120h-45v131q-18 8 -10 34q-4 -10 1 -15t9 -5v88q0 4 -8 12l-7 6h60v-104l26 4v90q0 10 -10 10q10 2 26.5 11.5t28.5 25.5v-121l-14 -6h14z M-166 446q12 0 12 11v26h-32l6 -2v-75q35 4 49 -5q14 -8 6 -34q4 18 -16.5 18t-38.5 -4v-107h20l6 -10v35q0 10 -12 10q10 4 27.5 14.5t27.5 26.5v-96h-127q2 2 7 4q6 6 6 10v103l-21 -4h-24.5t-22.5 4t-15 12t1 25q-6 -18 14 -23q2 2 2 12v86h-31l9 -2v-227h-60l8 4 q8 4 11 12v111q0 10 -8 18l-7 7h15v81l-11 11q-4 4 -8 6h127v-117q6 4 11.5 4t9.5 4v92q0 2 -8 11q-4 4 -9 6h131v-96q-10 16 -27.5 25t-27.5 13zM43 254v123q-2 8 -4 13t-4 9l-6 7h14v81l-10 11l-6 6h57v-234q2 -8 10 -12q4 -2 6 -4h-16h-41zM43 238q59 0 87 -19.5 t34 -40.5q2 -18 -13.5 -32.5t-38 -19.5t-46 2t-37.5 34q-8 14 -13 33q4 2 10.5 3t10.5 3q6 2 10 2q-14 0 -24.5 -2t-24.5 -2q-57 -6 -131 -19.5t-151.5 -23t-154.5 -10.5t-143 18q10 -10 25 -10v-82q-10 41 -34.5 51t-41.5 10q4 2 8 6q8 8 9 15v20q-4 4 -11.5 7t-15.5 7 q-12 6 -28.5 16.5t-30 25t-22.5 29.5t-5 32q4 10 19.5 18t37.5 -4q-29 12 -33 -5t13 -40q14 -16 33.5 -28.5t42.5 -22.5v137q0 10 -2.5 16.5t-4.5 10.5q-4 6 -6 8h13v100q0 4 -3.5 8.5t-7.5 8.5q0 -23 -5 -46.5t-19 -50.5q-23 -53 -79 -80.5t-110 -21.5q-33 0 -58.5 15.5 t-44 39t-26.5 53t-8 60.5q2 41 23.5 70.5t52.5 43t64.5 10.5t62.5 -28q31 -27 37 -58.5t-4.5 -58t-34 -41t-53.5 -4.5q29 25 29.5 52.5t-13.5 48t-39 28t-45 -11.5q-18 -12 -29.5 -35.5t-11.5 -50t12.5 -50.5t40.5 -36q39 -20 84 -10q-25 10 -24 18q23 -10 47 -4t28 6 q35 27 53.5 71t2.5 97q-18 55 -66.5 80t-105.5 17l16 28v127q0 10 -12 10q29 4 64.5 23.5t52.5 38.5q4 -23 27.5 -41.5t35.5 -20.5q-10 0 -10 -10v-127l-47 21q-8 2 -17.5 6t-17.5 4h8h21v139q-14 -8 -26.5 -15t-29.5 -16h6v-118q86 -16 133 -80v72q-25 0 -26.5 16t14.5 22 q-8 -10 -2 -14t14 0v82q0 4 -8 12q-4 4 -8 6h131v-96q-31 33 -55 37q10 0 10 10v29h-35l9 -4v-66q33 6 47 -4q16 -10 6 -33q4 16 -18.5 15.5t-45.5 -4.5l11 -4v-111h22l4 -10v39q0 10 -10 10q10 4 25.5 12t29.5 25v-96h-86q4 -10 4 -31h72v-309q63 -12 141 -9.5t155 12 t145.5 19.5t113.5 16h2l2 5l-45 149q-6 12 0 21q0 -20 14 -23q2 2 2 12v86h-26l6 -2v-227h-43v127q0 10 -8 18l-6 7h14v81q0 2 -8 11l-6 6h122v-137q-16 -4 -30 0l18 -11q4 -16 15.5 -46.5t21.5 -65.5q-12 -4 -14 -4q-4 -2 -6 -2h20zM80 141q8 -8 18.5 -7t18.5 7t9 17.5 t-11 23.5q-8 10 -24.5 13.5t-33.5 7.5q4 -18 9.5 -35t13.5 -27zM164 498q-4 4 -8 6h61v-250h-108v127q0 10 -9 18l-6 7h15v81l-11 11q-4 4 -8 6h60v-225l-15 -5h4h31l4 -10v223zM-270 535h-127l6 6q8 8 8 12v109h-10q-6 -2 -21 -3l15 -4v-116q-23 -20 -39.5 -44t-26.5 -46 q-8 23 -23.5 46t-37.5 44v123q0 14 -9 22l-6 6h15v78q0 4 -3 6t-8 6q-4 4 -8 6h64v-254l-11 7q4 -8 13.5 -20.5t13.5 -20.5q8 14 16 24v2l5 -10v148q-29 6 -21 38q-4 -14 3 -17t18 -7v96q0 8 -17 14h62v-104q2 4 16 4v82q0 4 -8 12l-6 6h127v-96q-10 16 -26.5 25.5 t-25.5 11.5q10 0 11 10v29h-37l10 -4v-66q35 6 47 0q16 -10 8 -34q0 10 -4 14t-24.5 2t-36.5 -6l10 -2v-115h25l2 -10v39q0 10 -11 10q8 4 24.5 12t27.5 25v-96zM-176 586v180q0 20 -21 20h62v-251h-45l-27 124l2 -28v-96h-43v127q0 14 -8 22l-6 6h14v78q0 4 -3 6t-7 6t-8 6 h51l35 -165zM104 111q-4 0 -4 -5v-4v-24h-2l-14 20v4h-4v-6v-8v-6v-4h4h-6v4v20v4v5h6l10 -23h4v-2v6v6v4v4q-4 0 -4 3v2h10zM12 111l-4 -5v-4v-14v-2q0 -4 -2 -4v-4h-4l-4 -2q-2 0 -2 1t-4 1h-4v4v6v14v4h-2v5h10q-2 0 -4 -2v-3v-4v-16v-4l4 -4h2h4v4q4 0 4 4v2v14v4 q-4 0 -4 3v2h10zM287 78h-6q0 2 -2 4h-3v4l-2 2h-2v4h-2h-4v-10q0 -4 4 -4h-10h2v4v20v4v3l-2 2h12q8 0 9 -5l2 -2v-2q0 -6 -2 -6v-2q0 -2 -5 -2l5 -4v-2l2 -4v-4h4zM274 92l2 4l3 2h2q0 2 -2 4h-3v4h-6h-4v-14h4h2h2zM190 106q0 -4 2.5 -4t2.5 -4v-6v-6v-2q0 -2 -5 -2v-2 q0 -2 -4 -2h-2h-8h-6v4v20v4v5h10h6q0 -4 2 -5h2zM190 92q0 6 -4 10v2l-2 2h-4h-4v-28h8v4h2v4h4v2v4zM373 111v-5h-4v-2q0 -2 -2 -2l-5 -10v-10v-4h-10h4v4v10l-8 10v4h-4v5h12l-4 -5l4 -4l2 -10l9 10v4q0 4 -5 5h11zM-354 111q6 0 10 -5v-8v-2v-2q0 -2 -4 -2h-4h-2h-4v-10 v-4h4h-11v4h3v20v4h-3v5h11zM-348 98v4q0 4 -4 4h-2h-4v-14h4h2v2l4 2v2zM-170 111v-9h-4v4h-2h-8v-10h4h4v2h2v-10h-2v4h-4h-4v-10v-4h4h-10v4v20v4v5h20zM-258 86h2l-2 -8h-23h5v4v20v4q-4 0 -5 3v2h25v-9h-2q0 2 -2 4h-2h-4h-6v-10h6q4 0 4 2v-10v2l-4 2h-6v-14h6h4 q0 4 4 4v4zM-80 102v-10v-6q-4 -4 -4 -6t-4 -2l-2 -2h-4l-4 2q-2 0 -6 4v4q0 2 -2.5 2t-2.5 4t2.5 5t2.5 5t2 4h2q0 4 4 5h2h6zM-88 86q4 2 4 6t-2 5t-2 5v2l-2 2h-4h-4l-2 -4v-4v-6v-10q2 -4 6 -4t6 4v4zM-428 111q-2 0 -2 -2v-3q-2 0 -4 -2v-2l-6 -10v-10v-4h2h-11h5v4v10 l-7 10l-4 4v5h11q-2 0 -5 -2v-3v-4l9 -10l2 10q0 4 2 4h2h-4v5h10zM-545 111h29v-9h-4q0 2 -2 4h-2h-2v-24v-4h-11h2v4v24h-2h-4v-4h-4v9z" />
<glyph unicode="9" d="M485 39q16 6 10 -3t-16 -22l-35 -34q-123 -82 -253 -128.5t-263 -70t-266 -32.5t-262 -17q-141 -10 -283.5 -14.5t-282 -8.5t-273.5 -10t-259 -21q-80 -10 -141.5 -33.5t-105.5 -54t-69.5 -64.5t-31.5 -65q-12 -53 15.5 -76.5t62.5 -23.5t65.5 17.5t38.5 48.5q4 27 -3 38 t-17 11q-20 0 -39 -19.5t-23 -36.5q-25 23 -14 58q6 25 26.5 45t55.5 20q37 0 55.5 -20.5t10.5 -59.5q-6 -23 -22.5 -47t-44.5 -44.5t-68 -33t-93 -12.5t-110.5 18.5t-101.5 52.5t-67.5 82t-11.5 107q14 63 78 133q51 57 133 93t186.5 56.5t228.5 29t259 8.5 q236 0 485.5 -13.5t491.5 -13.5q174 0 327.5 12.5t282.5 47.5q16 4 29.5 9t30.5 9q-2 0 -4 2q70 16 129 33q51 14 97 27.5t62 19.5zM-623 807q-47 16 -44 48t51 48q51 16 119.5 5t142 -30.5t146.5 -39t134 -19.5q20 0 55 3t52 22q12 14 7 25.5t-15.5 14.5t-22.5 -1t-16 -19 q0 10 8 19q4 6 15 12t28 4q18 0 24.5 -13.5t0 -31.5t-25 -34.5t-50.5 -22.5q-14 -4 -31.5 -4h-38.5l14 -7v-251h-49q4 4 4 10v121q-2 6 -4 10l-4 8l-6 6h14v103q-100 10 -196.5 39.5t-184.5 39.5q-39 4 -72.5 3t-49.5 -13q-8 -10 -9.5 -20.5t9.5 -18.5q8 -8 21 -8t24.5 3 t14.5 10.5t-7 15.5q-8 4 -15.5 6t-17.5 -2q14 14 31.5 13t27 -9t8.5 -21.5t-20 -21.5q-12 -4 -32 -6t-40 4zM-434 412l4 24q-14 -27 -22.5 -54.5t-12.5 -31.5q-4 4 -12 32t-23 54l8 -24v-158h-59q2 2 6 4q8 4 8 12v107q0 8 -2 13t-4 9t-4 7h10v81q0 2 -8 11l-6 6h37 q23 -29 34 -56.5t15 -46.5q4 18 17.5 46t33.5 57h39q-4 -2 -8 -6q-6 -6 -6 -11v-233h-62l17 14v144zM383 123q-12 18 -30.5 36.5t-35.5 18.5q4 0 11 4q12 8 14 17v227q-10 -27 -19.5 -49.5t-11.5 -26.5q-4 4 -13 32t-22 54l7 -18v-164h-58q2 2 6 4q8 4 9 12v107 q0 16 -5.5 22.5t-9.5 6.5h15v81q0 2 -9 11l-6 6h37q18 -29 30.5 -56.5t18.5 -46.5q2 10 8.5 25.5t14.5 32.5q14 25 27.5 48t21.5 46v-430zM63 696q27 8 56 13q25 4 53.5 3t52.5 -10q31 -10 47.5 -30.5t18.5 -45t-9.5 -47t-35.5 -36.5q-14 -10 -36 -14.5t-44.5 -1.5t-43 11.5 t-32.5 24.5t-10 32.5t18 29.5q27 16 66 10q16 -6 25.5 -17.5t11.5 -23.5t-4.5 -21.5t-22.5 -9.5q-10 0 -20.5 3t-14.5 14q4 -2 11 -2q10 0 14 12q0 6 -7 11t-17.5 5t-19.5 -5t-11 -15q-4 -16 8 -27.5t30.5 -15.5t40 -2t33.5 14q23 23 19 61.5t-39 55.5q-16 6 -36 10t-42 0 q4 -2 6 -7t-4 -9q2 8 -6 10t-19.5 2t-21.5 -2t-15 -4v-97q0 -16 2.5 -25t12.5 -15h-60v127q-10 0 -18 -1.5t-18 -1.5q4 -4 6 -4h4v-120h-45v131q-18 8 -10 34q-4 -10 1 -15t9 -5v88q0 4 -8 12l-7 6h60v-104l26 4v90q0 10 -10 10q10 2 26.5 11.5t28.5 25.5v-121l-14 -6h14z M-166 446q12 0 12 11v26h-32l6 -2v-75q35 4 49 -5q14 -8 6 -34q4 18 -16.5 18t-38.5 -4v-107h20l6 -10v35q0 10 -12 10q10 4 27.5 14.5t27.5 26.5v-96h-127q2 2 7 4q6 6 6 10v103l-21 -4h-24.5t-22.5 4t-15 12t1 25q-6 -18 14 -23q2 2 2 12v86h-31l9 -2v-227h-60l8 4 q8 4 11 12v111q0 10 -8 18l-7 7h15v81l-11 11q-4 4 -8 6h127v-117q6 4 11.5 4t9.5 4v92q0 2 -8 11q-4 4 -9 6h131v-96q-10 16 -27.5 25t-27.5 13zM43 254v123q-2 8 -4 13t-4 9l-6 7h14v81l-10 11l-6 6h57v-234q2 -8 10 -12q4 -2 6 -4h-16h-41zM43 238q59 0 87 -19.5 t34 -40.5q2 -18 -13.5 -32.5t-38 -19.5t-46 2t-37.5 34q-8 14 -13 33q4 2 10.5 3t10.5 3q6 2 10 2q-14 0 -24.5 -2t-24.5 -2q-57 -6 -131 -19.5t-151.5 -23t-154.5 -10.5t-143 18q10 -10 25 -10v-82q-10 41 -34.5 51t-41.5 10q4 2 8 6q8 8 9 15v20q-4 4 -11.5 7t-15.5 7 q-12 6 -28.5 16.5t-30 25t-22.5 29.5t-5 32q4 10 19.5 18t37.5 -4q-29 12 -33 -5t13 -40q14 -16 33.5 -28.5t42.5 -22.5v137q0 10 -2.5 16.5t-4.5 10.5q-4 6 -6 8h13v100q0 4 -3.5 8.5t-7.5 8.5q0 -23 -5 -46.5t-19 -50.5q-23 -53 -79 -80.5t-110 -21.5q-33 0 -58.5 15.5 t-44 39t-26.5 53t-8 60.5q2 41 23.5 70.5t52.5 43t64.5 10.5t62.5 -28q31 -27 37 -58.5t-4.5 -58t-34 -41t-53.5 -4.5q29 25 29.5 52.5t-13.5 48t-39 28t-45 -11.5q-18 -12 -29.5 -35.5t-11.5 -50t12.5 -50.5t40.5 -36q39 -20 84 -10q-25 10 -24 18q23 -10 47 -4t28 6 q35 27 53.5 71t2.5 97q-18 55 -66.5 80t-105.5 17l16 28v127q0 10 -12 10q29 4 64.5 23.5t52.5 38.5q4 -23 27.5 -41.5t35.5 -20.5q-10 0 -10 -10v-127l-47 21q-8 2 -17.5 6t-17.5 4h8h21v139q-14 -8 -26.5 -15t-29.5 -16h6v-118q86 -16 133 -80v72q-25 0 -26.5 16t14.5 22 q-8 -10 -2 -14t14 0v82q0 4 -8 12q-4 4 -8 6h131v-96q-31 33 -55 37q10 0 10 10v29h-35l9 -4v-66q33 6 47 -4q16 -10 6 -33q4 16 -18.5 15.5t-45.5 -4.5l11 -4v-111h22l4 -10v39q0 10 -10 10q10 4 25.5 12t29.5 25v-96h-86q4 -10 4 -31h72v-309q63 -12 141 -9.5t155 12 t145.5 19.5t113.5 16h2l2 5l-45 149q-6 12 0 21q0 -20 14 -23q2 2 2 12v86h-26l6 -2v-227h-43v127q0 10 -8 18l-6 7h14v81q0 2 -8 11l-6 6h122v-137q-16 -4 -30 0l18 -11q4 -16 15.5 -46.5t21.5 -65.5q-12 -4 -14 -4q-4 -2 -6 -2h20zM80 141q8 -8 18.5 -7t18.5 7t9 17.5 t-11 23.5q-8 10 -24.5 13.5t-33.5 7.5q4 -18 9.5 -35t13.5 -27zM164 498q-4 4 -8 6h61v-250h-108v127q0 10 -9 18l-6 7h15v81l-11 11q-4 4 -8 6h60v-225l-15 -5h4h31l4 -10v223zM-270 535h-127l6 6q8 8 8 12v109h-10q-6 -2 -21 -3l15 -4v-116q-23 -20 -39.5 -44t-26.5 -46 q-8 23 -23.5 46t-37.5 44v123q0 14 -9 22l-6 6h15v78q0 4 -3 6t-8 6q-4 4 -8 6h64v-254l-11 7q4 -8 13.5 -20.5t13.5 -20.5q8 14 16 24v2l5 -10v148q-29 6 -21 38q-4 -14 3 -17t18 -7v96q0 8 -17 14h62v-104q2 4 16 4v82q0 4 -8 12l-6 6h127v-96q-10 16 -26.5 25.5 t-25.5 11.5q10 0 11 10v29h-37l10 -4v-66q35 6 47 0q16 -10 8 -34q0 10 -4 14t-24.5 2t-36.5 -6l10 -2v-115h25l2 -10v39q0 10 -11 10q8 4 24.5 12t27.5 25v-96zM-176 586v180q0 20 -21 20h62v-251h-45l-27 124l2 -28v-96h-43v127q0 14 -8 22l-6 6h14v78q0 4 -3 6t-7 6t-8 6 h51l35 -165zM104 111q-4 0 -4 -5v-4v-24h-2l-14 20v4h-4v-6v-8v-6v-4h4h-6v4v20v4v5h6l10 -23h4v-2v6v6v4v4q-4 0 -4 3v2h10zM12 111l-4 -5v-4v-14v-2q0 -4 -2 -4v-4h-4l-4 -2q-2 0 -2 1t-4 1h-4v4v6v14v4h-2v5h10q-2 0 -4 -2v-3v-4v-16v-4l4 -4h2h4v4q4 0 4 4v2v14v4 q-4 0 -4 3v2h10zM287 78h-6q0 2 -2 4h-3v4l-2 2h-2v4h-2h-4v-10q0 -4 4 -4h-10h2v4v20v4v3l-2 2h12q8 0 9 -5l2 -2v-2q0 -6 -2 -6v-2q0 -2 -5 -2l5 -4v-2l2 -4v-4h4zM274 92l2 4l3 2h2q0 2 -2 4h-3v4h-6h-4v-14h4h2h2zM190 106q0 -4 2.5 -4t2.5 -4v-6v-6v-2q0 -2 -5 -2v-2 q0 -2 -4 -2h-2h-8h-6v4v20v4v5h10h6q0 -4 2 -5h2zM190 92q0 6 -4 10v2l-2 2h-4h-4v-28h8v4h2v4h4v2v4zM373 111v-5h-4v-2q0 -2 -2 -2l-5 -10v-10v-4h-10h4v4v10l-8 10v4h-4v5h12l-4 -5l4 -4l2 -10l9 10v4q0 4 -5 5h11zM-354 111q6 0 10 -5v-8v-2v-2q0 -2 -4 -2h-4h-2h-4v-10 v-4h4h-11v4h3v20v4h-3v5h11zM-348 98v4q0 4 -4 4h-2h-4v-14h4h2v2l4 2v2zM-170 111v-9h-4v4h-2h-8v-10h4h4v2h2v-10h-2v4h-4h-4v-10v-4h4h-10v4v20v4v5h20zM-258 86h2l-2 -8h-23h5v4v20v4q-4 0 -5 3v2h25v-9h-2q0 2 -2 4h-2h-4h-6v-10h6q4 0 4 2v-10v2l-4 2h-6v-14h6h4 q0 4 4 4v4zM-80 102v-10v-6q-4 -4 -4 -6t-4 -2l-2 -2h-4l-4 2q-2 0 -6 4v4q0 2 -2.5 2t-2.5 4t2.5 5t2.5 5t2 4h2q0 4 4 5h2h6zM-88 86q4 2 4 6t-2 5t-2 5v2l-2 2h-4h-4l-2 -4v-4v-6v-10q2 -4 6 -4t6 4v4zM-428 111q-2 0 -2 -2v-3q-2 0 -4 -2v-2l-6 -10v-10v-4h2h-11h5v4v10 l-7 10l-4 4v5h11q-2 0 -5 -2v-3v-4l9 -10l2 10q0 4 2 4h2h-4v5h10zM-545 111h29v-9h-4q0 2 -2 4h-2h-2v-24v-4h-11h2v4v24h-2h-4v-4h-4v9z" />
<glyph unicode="@" horiz-adv-x="1099" d="M834 1313q129 0 210.5 -71t123.5 -178.5t43 -236.5t-32.5 -245.5t-100 -205.5t-160.5 -116q-39 -10 -80 -9t-76 21q-37 20 -62 70q-70 -51 -131 -53t-102 31.5t-53.5 97t18.5 147.5q16 43 39 83t49 69q25 27 57.5 48t69.5 30.5t74 4.5t67 -34q6 29 17.5 73t5.5 70 q-6 20 -19.5 26.5t-31 4.5t-33.5 -10t-29 -17q-37 -27 -59 -77l-84 114q6 -6 24.5 2.5t24.5 14.5q53 41 115.5 57t128.5 -12q72 -29 94.5 -94.5t5.5 -135.5l-90 -411q-6 -23 0 -33t20.5 -10t32 9t31.5 25q31 31 53.5 83.5t37 108.5t22.5 108.5t10 80.5q8 92 -1 173 t-38 141.5t-78 96.5t-119 38q-74 2 -134 -24.5t-109 -70.5t-87 -101.5t-67 -116.5q-29 -55 -49.5 -116t-36.5 -126q-14 -66 -20.5 -154t8 -174t53.5 -156.5t113 -101.5q47 -18 97 -13t91 22.5t65.5 42t18.5 42.5l127 -2q-74 -78 -165 -128t-202 -50q-129 0 -207.5 67.5 t-117.5 168t-42 218.5t19 218q23 109 81.5 227.5t143.5 219t193.5 165t231.5 64.5zM760 633q6 33 -6.5 62.5t-46.5 29.5q-43 0 -76 -49q-14 -23 -26.5 -54.5t-21 -65.5t-11.5 -68.5t1 -61.5q0 -12 4.5 -21.5t8.5 -17.5q12 -16 28 -16q20 0 60 20q18 12 31.5 31.5t19.5 50.5z " />
<glyph unicode="A" horiz-adv-x="905" d="M831 84q0 -53 7.5 -85t48.5 -50q-41 0 -77 -14.5t-61.5 -33t-41 -35t-17.5 -22.5q0 -2 2 -2l-4 16q-4 15 -18.5 33.5t-42 36t-74.5 21.5h-12q29 10 56.5 35.5t31.5 50.5q4 20 2 37l-2 350q-61 -55 -133 -55q-45 0 -78 24.5t-21 73.5q10 47 49 68.5t70 21.5q20 0 30.5 -8 t13.5 -20.5t1 -23.5t-4 -18q0 20 -25 21q-29 0 -36 -31q-8 -33 9 -44t34 -11q29 0 50 22.5t29 53.5q8 41 -1 67.5t-31.5 43t-54 23.5t-66.5 9l-279 -623q-6 -29 6.5 -46t22.5 -23h-2q-25 -2 -48.5 -17.5t-41.5 -35.5q-20 -20 -41 -52q-6 27 -16 49q-10 18 -26.5 36t-45.5 22 h-4q12 0 40.5 26.5t41.5 55.5l274 612q-31 2 -62.5 15.5t-54 38t-33 60.5t0.5 85q10 49 49 90t92 41q8 0 21.5 -3t23.5 -10.5t15 -21.5t-1 -39q-4 -16 -18 -38.5t-53 -22.5q-12 0 -29.5 7t-11.5 36q4 12 14 22t25 10q33 0 26 -34q0 2 -4 -7.5t-20 -9.5q0 -2 2 -2h8 q10 0 25.5 6t21.5 31q4 18 -4 36.5t-41 18.5q-31 0 -59.5 -23.5t-38.5 -64.5q-8 -35 4 -58.5t35.5 -37.5t53 -21.5t54.5 -9.5l234 523q-6 51 -52 69q51 2 87 18.5t58.5 36t33.5 34.5l12 16q2 -25 20 -50q14 -18 41 -35.5t78 -19.5h4q-23 -10 -50.5 -29.5t-33.5 -46.5l4 -417 q0 -6 14.5 -30t57.5 -24l-31 -18q-12 -10 -23.5 -24.5t-15.5 -37.5zM506 733q23 -12 54.5 -13t66.5 -24l-2 299z" />
<glyph unicode="B" horiz-adv-x="942" d="M1030 496q-10 -10 -20.5 -22.5t-14.5 -31.5q-2 -33 -12 -69q-29 -123 -84 -208t-122.5 -139.5t-140.5 -78t-134 -23.5q-162 0 -213 119q2 -41 12 -59.5t39 -34.5h-4q-51 -4 -87 -20.5t-59 -34.5q-29 -23 -43 -50l-4 16q-4 15 -17 34.5t-42 36t-78 18.5q39 16 62.5 42.5 t35.5 82.5l140 622q4 23 -5.5 39.5t-23.5 26.5q-16 12 -39 22q25 0 43.5 8.5t30.5 18.5t18 18.5t8 8.5l89 395q8 33 -7.5 58.5t-42.5 37.5h119q51 2 87 19.5t59 35.5q27 20 43 50q-2 0 -2 -2q0 -4 6 -17.5t20.5 -30t33.5 -33t48 -24.5q92 -18 139 -79.5t25 -166.5 q-25 -102 -106.5 -163.5t-182.5 -98.5q166 -10 260 -76.5t123 -177.5q4 -18 12 -26q8 -10 21.5 -18.5t36.5 -8.5zM680 963q43 70 59 131q16 72 -12.5 116.5t-93.5 44.5q-33 0 -72 -12q-29 -123 -51.5 -223t-44.5 -193q49 4 107.5 32t107.5 104zM739 238q35 59 47 122 q8 35 3 54.5t-15 28t-23.5 9.5t-21.5 1q41 23 48 48t11 34q-23 88 -104.5 148t-237.5 60q-18 -86 -37.5 -173t-41.5 -187q39 39 86 56.5t88 17.5q59 0 93 -33t23 -80q-8 -37 -40.5 -64.5t-71.5 -27.5q-43 0 -50.5 20.5t-2.5 40.5l4 13q2 2 2 6q-4 -10 4 -17.5t20 -7.5 q10 0 22.5 8.5t16.5 26.5q12 53 -39 53q-23 0 -50.5 -11t-54 -32.5t-50 -51.5t-35.5 -67q-23 -106 12 -159.5t107 -53.5q70 0 149.5 53.5t138.5 164.5z" />
<glyph unicode="C" horiz-adv-x="858" d="M950 1315q33 -6 54.5 -11.5t44.5 -5.5q39 0 106 29l-70 -143q-47 -92 -83.5 -163t-70.5 -119t-70 -71.5t-79 -23.5q-27 0 -44 11t-26.5 28.5t-10.5 36t4 30.5q10 43 41.5 72t64.5 29q23 0 35 -10.5t8 -30.5q-2 -18 -25 -43q2 2 2 6q2 8 -3 15t-15 7q-14 0 -23.5 -16 t-13.5 -29q-10 -51 27 -51q27 0 73 60.5t70 164.5q14 63 -15.5 109.5t-101.5 46.5q-68 0 -124 -32.5t-102 -90t-82 -132.5t-62 -159q-2 -10 4 -29.5t39 -29.5q-18 0 -29 -8q-31 -16 -45 -45q-6 -23 -11 -42.5t-9 -41.5q-16 -78 -24.5 -160t3.5 -180q14 -129 56 -181.5 t98 -52.5q39 0 78.5 22.5t75.5 59.5t62.5 84t37.5 94q8 37 6 72t-19 66q-8 14 -8 20q4 10 8 10q10 0 24.5 -15t26 -44t15.5 -71t-8 -97q-23 -104 -87.5 -180t-164.5 -111q-66 -51 -91.5 -88t-27.5 -37q0 18 -8 37q-14 39 -58 76q-98 20 -149 93t-68.5 169t-8.5 203.5 t30 200.5q4 25 11 48t13 46q0 18 -8 30.5t-18 20.5q-6 4 -13.5 8t-15.5 8q47 0 70.5 23.5t27.5 30.5q25 57 60 124.5t82 132t108.5 120t143.5 90.5q41 23 70.5 45t45.5 41q20 20 31 43l3 -14q3 -15 13.5 -33.5t30 -37t53.5 -28.5z" />
<glyph unicode="D" horiz-adv-x="909" d="M1028 838q0 -16 6 -25q10 -27 51 -29q-20 -8 -28 -14q-12 -8 -23.5 -20.5t-17.5 -30.5q-2 -4 -2 -6t-4 -6q-16 -74 -37 -143.5t-51 -139.5q-33 -74 -85.5 -155t-120 -149.5t-145 -113.5t-161.5 -45q-43 0 -72 14.5t-47 36.5q4 -23 17.5 -37t31.5 -26h-4q-53 -4 -88 -20.5 t-58 -34.5q-29 -23 -43 -50l-4 16q-4 15 -17 34.5t-42 36t-78 18.5q39 16 62.5 42.5t35.5 82.5l140 622q4 23 -5.5 39.5t-23.5 26.5q-16 12 -39 22q25 0 43.5 8.5t30.5 18.5t18 18.5t8 8.5l86 395q8 35 -6 59.5t-41 36.5q51 2 87 18.5t58.5 36t33.5 34.5l12 16q4 -27 18 -48 q12 -18 37 -34.5t72 -20.5q10 0 20.5 1t20.5 1q98 0 166.5 -40t111.5 -107.5t60.5 -158.5t11.5 -191zM408 37q63 0 123.5 52t113.5 137t95 194.5t67 224.5q4 12 5 24.5t5 26.5q4 23 -5 38.5t-24 25.5q-16 12 -38 22q35 0 56 14.5t32 26.5q8 92 2 173t-31 142.5t-70 97.5 t-114 36q-16 0 -38 -3t-30 -36q-27 -117 -48.5 -212t-41.5 -187q2 -10 15.5 -31t58.5 -21l-43 -18q-16 -10 -34 -23.5t-26 -31.5l-98 -441q53 33 119 33q72 0 96.5 -34t15.5 -72q-8 -35 -39.5 -63t-66.5 -28q-31 0 -45 27q-6 6 -10 27q4 -2 18 -2q25 0 42 14t22 33 q4 23 -15.5 33t-38.5 10q-23 0 -44 -11.5t-38.5 -26.5t-29 -32.5t-13.5 -32.5q-4 -16 -2 -35.5t13.5 -35t32 -25.5t51.5 -10z" />
<glyph unicode="E" horiz-adv-x="903" d="M1200 1329q-25 0 -50.5 -34.5t-54 -86t-61.5 -113t-68.5 -112.5t-76.5 -86t-88 -35q-27 0 -43.5 11.5t-24.5 26.5t-10 33.5t2 33.5q10 41 40 71.5t64 30.5q20 0 34 -10t9 -33q-4 -16 -24 -41q2 2 2 6q4 8 -1 15.5t-15 7.5q-14 0 -24.5 -16.5t-14.5 -30.5q-4 -20 3 -34.5 t23 -14.5q10 0 26.5 9t34 30.5t34 56.5t28.5 86q14 61 -3 99t-67 38h-317v-4l-94 -416q12 4 33.5 9t44.5 5q41 0 86 -14q59 -18 83.5 -27.5t37.5 -9.5q27 0 40 21q-8 -20 -28 -45q-16 -16 -40 -30.5t-56 -14.5q-45 0 -88.5 18.5t-88.5 18.5q-18 0 -31.5 -12.5t-17.5 -28.5 l-141 -631h403q37 16 68 69.5t41 106.5q12 55 2 78.5t-29 23.5q-16 0 -33.5 -15t-23.5 -40q-6 -35 16 -35q23 0 27 23q2 -18 0 -31q-6 -23 -21.5 -33t-33.5 -10q-31 0 -48.5 24.5t-7.5 63.5q8 37 41 74t95 37q41 0 61 -26t24.5 -73t-6 -111.5t-28.5 -142.5l-35 -153 q-27 35 -76 45t-108 10q-86 0 -143.5 1t-94.5 6t-59.5 14.5t-38.5 25.5q4 -20 18.5 -33.5t30.5 -25.5h-2q-51 -2 -87 -18.5t-58.5 -36t-34.5 -34.5l-11 -16q-2 25 -20 50q-14 18 -42 34.5t-77 20.5q39 16 62.5 42.5t35.5 82.5q35 160 69 313.5t69 308.5q4 23 -4.5 39.5 t-22.5 26.5q-16 12 -39 22q25 0 43.5 8.5t30.5 17.5t18 18l6 10l88 395q8 35 -6 59.5t-41 36.5h265q47 4 78.5 21.5t52.5 35.5q23 23 39 46l4 -16q4 -15 17 -33.5t42 -35t78 -18.5h309z" />
<glyph unicode="F" horiz-adv-x="903" d="M365 1264q-6 45 -52 65h267q45 6 76.5 22.5t52 34t31.5 32.5l10 14q2 -25 20 -50q14 -18 42 -34.5t77 -20.5l311 2q-35 -20 -65.5 -63t-59 -95.5t-58.5 -106.5t-62.5 -99t-70.5 -74t-85 -29q-29 0 -45.5 13.5t-24.5 32t-8 36t2 25.5q10 41 40 70.5t66 29.5q20 0 32.5 -10 t8.5 -31q-2 -10 -7 -20.5t-17 -22.5q2 0 2 2t2 6q2 6 -3 13.5t-16 7.5q-12 0 -24 -17.5t-14 -29.5q-4 -20 3 -34.5t23 -14.5q8 0 26.5 11t39 36.5t41 66.5t35.5 103q6 25 -1.5 44t-21.5 31.5t-31.5 19.5t-32.5 7h-317l-96 -420q12 4 34.5 9t45.5 5q41 0 84 -14 q59 -18 84.5 -27.5t38.5 -9.5q25 0 38 21q-12 -25 -30 -45q-16 -16 -40 -31.5t-57 -13.5q-43 0 -86 18.5t-86 18.5q-20 0 -31.5 -12.5t-19.5 -28.5l-147 -662q-8 -37 9 -58.5t40 -37.5h-2q-53 -4 -89 -20.5t-59 -34.5q-29 -23 -43 -50q-2 25 -20 50q-14 18 -43 34.5 t-78 20.5q27 12 43 25.5t26.5 31t18.5 41t19 55.5q33 150 64.5 298.5t66.5 295.5q4 23 -4.5 39.5t-22.5 26.5q-16 12 -39 22q25 0 43.5 8.5t30.5 17.5t18 18l6 10l88 395q2 10 3.5 15.5t-0.5 15.5z" />
<glyph unicode="G" horiz-adv-x="927" d="M1061 598q-47 -35 -68 -80q0 -47 -12 -92q-16 -72 -50 -141.5t-82 -131t-107.5 -109.5t-127.5 -75q-2 0 -4 -1t-4 -1q-66 -51 -90 -87t-27 -36q0 18 -8 37q-6 16 -18 36t-35 38q-100 20 -154.5 91t-75 169t-12 214t32.5 226q8 37 5 60.5t-11 39t-19.5 21.5t-19.5 6 q41 0 64.5 19.5t31.5 29.5q6 20 23.5 62.5t46.5 93.5t66.5 106.5t85 102.5t102.5 81t117 42q33 20 54 39.5t36 36.5q12 16 24 35l3 -14q3 -13 12.5 -31.5t29 -38t52.5 -27.5q23 -6 58.5 -12.5t63.5 -6.5q25 0 52.5 5.5t58.5 19.5l-70 -137q-51 -111 -80.5 -186.5t-55 -123 t-57.5 -67.5t-87 -20q-39 0 -61.5 14t-33 33.5t-11.5 41t3 35.5q10 43 41 71t64 28q23 0 35 -10.5t8 -30.5q-2 -18 -25 -43q2 2 2 6q2 8 -3 15t-13 7q-14 0 -23.5 -15t-13.5 -30q-6 -25 7.5 -45t35.5 -20q27 0 65 47t60 152q8 39 7 74.5t-14 62t-40 43t-68 16.5 q-72 0 -131 -37t-105 -96t-81 -135t-59 -156q4 -10 13 -24.5t38 -18.5q-16 -2 -33 -12q-12 -8 -24.5 -20.5t-18.5 -32.5q-35 -166 -34 -289t22.5 -204t56.5 -121t70 -40q53 0 96 27t75.5 69t55.5 95t35 106q4 20 8 43t6 45q-41 -16 -85 -31.5t-85 -15.5q-20 0 -43.5 7.5 t-42 23.5t-28 42t-1.5 62q12 55 47 81t60 26q23 0 39 -10q4 -2 7 -4t7 -5q-2 2 -12 3q-20 0 -38.5 -16.5t-23.5 -37.5q-6 -25 10.5 -36t39.5 -11q33 0 78 13.5t94 30t97 29.5t83 13q27 0 41 -8z" />
<glyph unicode="H" horiz-adv-x="1017" d="M940 16q4 -25 18.5 -40t32.5 -27h-2q-51 -2 -87 -18.5t-58.5 -36t-33.5 -34.5l-11 -16q-2 25 -21 50q-14 18 -42.5 34.5t-78.5 20.5q27 12 43.5 25.5t26.5 31t18.5 41t18.5 55.5l86 392q-25 -18 -53.5 -29.5t-61.5 -11.5q-47 0 -80.5 22.5t-21.5 73.5q10 45 49 68.5 t70 23.5q23 0 32 -9t12 -21.5t1 -24t-4 -17.5q0 20 -25 21q-29 0 -37 -31q-8 -33 9.5 -44t33.5 -11q29 0 52.5 23.5t29.5 54.5q10 47 -5 75.5t-54 44t-98.5 20.5t-135.5 5l-143 -649l-8 -33q-8 -39 8 -59.5t41 -36.5h-4q-51 -4 -87 -20.5t-59 -34.5q-29 -23 -43 -50l-4 16 q-4 15 -17.5 34.5t-42 36t-77.5 18.5q23 10 43 26.5t35 38.5q8 12 22.5 69.5t34.5 145.5q23 100 50.5 228.5t58.5 269.5q-33 2 -67 14.5t-59.5 36t-37.5 60t0 90.5q12 49 48 89t95 40q8 0 20.5 -2t22.5 -10.5t15.5 -21.5t1.5 -36q-4 -18 -19.5 -41.5t-54.5 -23.5 q-14 0 -30.5 8t-8.5 37q10 31 37 30q12 0 20 -8t4 -24v-2q0 -14 -22 -15q0 -2 2 -2h10q8 0 23.5 6t19.5 31q4 18 -3 36.5t-38 18.5q-33 0 -61.5 -25.5t-36.5 -62.5q-8 -33 3 -56.5t32.5 -38.5t50.5 -23.5t55 -10.5l64 291q8 33 14 62.5t14 58.5q8 33 -7 58.5t-42 37.5 q51 2 87 18.5t58.5 36t34.5 34.5l11 16q2 -25 20 -50q14 -18 42 -35.5t77 -19.5h4q-31 -16 -55.5 -36.5t-34.5 -59.5q-27 -119 -50.5 -219.5t-43.5 -192.5q98 0 186 -12t133 -66q25 109 50.5 223.5t60.5 266.5q8 35 -7.5 59.5t-41.5 36.5q51 2 88 19.5t59 35.5q27 20 43 50 l4 -16q4 -15 17.5 -34.5t42 -36t77.5 -18.5h2q-29 -16 -55 -37.5t-35 -58.5l-90 -395q0 -6 14.5 -30t59.5 -24l-43 -20q-16 -10 -34.5 -24.5t-26.5 -32.5l-148 -662q-2 -6 -2 -29z" />
<glyph unicode="I" horiz-adv-x="364" d="M365 1264q-8 43 -52 65q51 2 88 18.5t60 34.5q27 20 43 50l4 -16q4 -15 17.5 -33.5t42 -35t77.5 -18.5h2q-29 -16 -54.5 -36.5t-35.5 -59.5l-92 -397q0 -6 14.5 -30t59.5 -24l-43 -18q-16 -10 -34 -24.5t-26 -32.5l-147 -664q-8 -35 9 -57.5t40 -36.5h-2 q-51 -2 -87 -18.5t-58.5 -36t-34.5 -34.5l-11 -16q-2 25 -20 50q-14 18 -43 34.5t-78 20.5q25 10 41 21.5t27.5 28.5t19.5 42t19 61q33 147 64.5 296t66.5 298q4 23 -5.5 38.5t-23.5 25.5q-16 12 -39 22q25 0 43.5 8.5t30.5 18.5t19 18.5t7 10.5l88 395q2 10 3.5 15.5 t-0.5 15.5z" />
<glyph unicode="J" horiz-adv-x="790" d="M825 535q-35 -158 -80 -285t-109.5 -218t-154.5 -140.5t-213 -49.5q-78 0 -129 31t-78.5 78t-32.5 102.5t7 106.5q8 37 24.5 74.5t44 70.5t65.5 53.5t87 20.5q53 0 88 -36t23 -91q-14 -59 -51 -85t-68 -26q-35 0 -57.5 21.5t-16.5 50.5q4 16 21 37l-5 -4 q-2 -10 10.5 -20.5t28.5 -10.5t25.5 14.5t13.5 26.5q4 27 -8 47.5t-35 20.5t-59.5 -37t-56.5 -123q-10 -49 -3 -90t28.5 -71t53 -47t72.5 -17q70 0 122 33.5t91 91t67.5 132t49.5 156.5l78 344q2 10 -7.5 25.5t-23.5 30.5q-16 14 -37 30q25 0 43.5 8.5t30.5 18.5t19 18.5 t7 10.5l86 395q8 35 -7 58.5t-40 37.5q51 2 87 18.5t59 34.5q27 20 43 50l4 -16q4 -15 17.5 -33.5t42 -35t77.5 -18.5h2q-29 -16 -55.5 -38.5t-34.5 -57.5l-90 -397q0 -6 14.5 -30t59.5 -24l-43 -18q-16 -10 -34 -24.5t-26 -32.5z" />
<glyph unicode="K" horiz-adv-x="886" d="M791 125q4 -14 8 -40t12 -52.5t23.5 -49t39.5 -30.5l-2 -2q-53 -10 -87.5 -27.5t-56 -34t-30.5 -29.5l-10 -14q-12 29 -35 52q-18 20 -49 35.5t-76 15.5q23 10 40.5 21.5t21.5 33.5q2 10 3 20.5t-1 24.5q-14 66 -26.5 135.5t-22.5 128.5q-12 23 -40 29t-46 6h-15 q41 16 55.5 41t18.5 37q2 2 2 6l-39 197l-82 -101l-108 -481q-8 -35 8 -58.5t39 -37.5h-2q-53 -2 -88 -18.5t-58 -34.5q-27 -23 -43 -52q-2 25 -20 50q-14 18 -43 34.5t-78 20.5q47 18 67.5 51t37.5 102q35 150 65.5 297.5t65.5 296.5q6 23 -3.5 39.5t-23.5 26.5 q-16 12 -37 20q25 0 42.5 8.5t29.5 18.5t18 18.5t8 10.5l86 395q4 12 5 12q2 4 2 19l-2 -2q-2 23 -15.5 39t-34.5 26q51 2 87 19.5t59 35.5q27 20 43 50l4 -16q4 -15 17.5 -33.5t42 -35t77.5 -18.5h2q-29 -16 -55.5 -38.5t-36.5 -57.5l-106 -473l389 485q8 10 18 24.5 t14 24.5q4 12 -3 19.5t-17 15.5q35 2 57.5 17.5t38.5 33.5q20 23 29 48l2 -16q2 -15 11 -33.5t28.5 -34t56.5 -15.5h2q-41 -12 -66.5 -41.5t-68.5 -83.5q-92 -113 -165 -204t-130 -162l66 -332q2 -2 14 -14.5t41 -12.5q12 0 43 11l-33 -41q-12 -16 -23.5 -34t-15.5 -30v-8z " />
<glyph unicode="L" horiz-adv-x="819" d="M836 299q-2 -45 -13.5 -111.5t-25.5 -128.5l-35 -153l-6 6q-2 2 -6 2l-50 31q-16 6 -39.5 11t-64.5 5q-96 0 -149.5 1t-83 5t-44 14.5t-32.5 26.5q4 -20 18 -34.5t33 -24.5h-4q-51 -4 -87 -20.5t-59 -34.5q-29 -23 -43 -50l-4 16q-4 15 -17 34.5t-42 36t-78 18.5 q41 16 63.5 43.5t34.5 81.5q35 154 70 308.5t70 313.5q4 23 -5.5 38.5t-23.5 25.5q-16 12 -39 22q25 0 43.5 8.5t30.5 18.5t18 18.5t8 10.5l88 395q8 35 -8 58.5t-41 37.5q51 2 87 18.5t58.5 35t33.5 33.5l12 16q2 -25 20 -50q14 -18 42 -34.5t77 -18.5h4 q-31 -16 -55.5 -36.5t-34.5 -59.5l-92 -397q0 -4 3 -12.5t10 -17.5t21.5 -16.5t39.5 -7.5l-43 -18q-16 -10 -34 -24.5t-26 -32.5l-139 -631h356q39 16 68 69.5t41 108.5t1 77.5t-28 22.5q-16 0 -33.5 -15t-23.5 -40q-6 -35 16 -35q20 0 25 23q2 -18 0 -31q-6 -23 -21.5 -33 t-31.5 -10q-33 0 -49.5 25.5t-6.5 64.5q8 35 42 72t93 37q31 0 61 -28t30 -85z" />
<glyph unicode="M" horiz-adv-x="1112" d="M465 836q0 -6 14.5 -30t59.5 -24l-43 -18q-16 -10 -34 -24.5t-26 -32.5l-147 -662q-8 -39 9 -59.5t40 -36.5h-2q-51 -2 -87 -18.5t-58.5 -36t-34.5 -34.5l-11 -16q-2 25 -20 50q-14 18 -43 34.5t-78 20.5q35 14 60.5 40.5t35.5 73.5l142 633q4 23 -5.5 38.5t-23.5 25.5 q-16 12 -39 22q25 0 43.5 8.5t30.5 18.5t19 18.5t7 10.5l88 395q8 35 -8 58.5t-41 37.5q51 2 88 19.5t60 35.5q27 20 43 50l4 -16q4 -15 17.5 -34.5t42 -36t77.5 -18.5h2q-18 -10 -47 -29.5t-33 -42.5l166 -575q92 137 185.5 277.5t191.5 281.5q6 31 -10.5 53.5t-38.5 34.5 q51 2 87 19.5t58 35.5q27 20 43 50l4 -16q4 -15 17.5 -34.5t42 -36t78.5 -18.5h2q-29 -16 -55.5 -38.5t-34.5 -57.5l-91 -397q0 -4 3.5 -12.5t10.5 -17.5t21.5 -16.5t38.5 -7.5l-43 -18q-16 -10 -33.5 -24.5t-25.5 -32.5q-37 -166 -74 -331t-76 -331q-8 -35 9.5 -58.5 t39.5 -37.5h-2q-51 -2 -87 -18.5t-58.5 -36t-33.5 -34.5l-11 -16q-2 25 -21 50q-14 18 -41.5 34.5t-76.5 20.5q23 10 44 26.5t33 38.5l160 682q2 18 -8 43l-199 -290q0 -2 -2 -3.5t-2 -3.5l-6 -47q-10 -47 -32.5 -86t-52.5 -68.5t-64.5 -46t-71.5 -16.5q-35 0 -61.5 13.5 t-44 36t-23.5 50t0 58.5q10 37 42 62.5t64 25.5q43 0 62.5 -29.5t15.5 -56.5q-4 -10 -13 -18.5t-20 -16.5q-8 -8 -20 -12q12 8 12 16q4 10 -3 22.5t-21 12.5q-23 0 -37.5 -20.5t-18.5 -32.5q-4 -33 12.5 -45.5t39.5 -12.5q18 0 40.5 11.5t43 29t35 39t18.5 43.5q4 61 -8 105 q-37 137 -77 275t-81 280z" />
<glyph unicode="N" horiz-adv-x="966" d="M891 45q-8 -39 8 -59.5t41 -36.5h-4q-51 -4 -87 -20.5t-58 -34.5q-29 -23 -43 -50l-4 16q-5 15 -18 34.5t-42 36t-78 18.5q31 14 52.5 33.5t37.5 54.5q-72 -68 -145 -68q-31 0 -58.5 11.5t-46 33t-26.5 49t0 62.5t41 62.5t67 27.5q39 0 60.5 -27.5t15.5 -54.5 q-8 -27 -31 -39q-6 -6 -22 -14q8 2 12 16q4 12 -2 23.5t-22 11.5q-23 0 -37.5 -20.5t-18.5 -30.5q-4 -29 12.5 -44.5t41.5 -15.5t48 13.5t41.5 34t33 45t20.5 47.5q0 31 -6 55l-182 727l-203 -897q-8 -39 9 -59.5t40 -36.5h-2q-51 -2 -87 -18.5t-58.5 -36t-34.5 -34.5 l-11 -16q-2 25 -20 50q-14 18 -42 34.5t-77 20.5q43 20 65.5 50t39.5 103q35 150 65.5 297.5t65.5 296.5q4 23 -5.5 39.5t-23.5 26.5q-8 6 -18.5 11t-20.5 9q25 0 43.5 8.5t30.5 18.5t19 19l7 10l88 395q8 35 -7 58.5t-40 37.5q51 2 87 19.5t59 35.5q27 20 43 50l4 -16 q4 -15 17.5 -34.5t42 -36t77.5 -18.5h2q-29 -16 -55.5 -37.5t-34.5 -60.5l-6 -23l217 -848q18 86 37.5 168t38.5 168q4 23 -5.5 39.5t-23.5 26.5q-8 6 -18.5 11t-20.5 9q25 0 43.5 8.5t30.5 19.5t18 19.5t9 8.5l88 395q8 35 -8.5 58.5t-41.5 37.5q51 2 87 18.5t58.5 36 t33.5 34.5l12 16q2 -25 20 -50q14 -18 42 -35.5t77 -19.5h4q-31 -16 -55.5 -36.5t-34.5 -59.5l-92 -397q0 -6 14.5 -30t59.5 -24l-43 -18q-16 -10 -33.5 -24.5t-26.5 -32.5z" />
<glyph unicode="O" horiz-adv-x="1011" d="M1090 676q-16 -51 -27.5 -94t-24 -86t-28 -87t-39.5 -96q-35 -72 -73 -123t-83 -91t-98 -72.5t-117 -67.5q-39 -20 -62.5 -39.5t-39.5 -36.5q-20 -20 -29 -35q-4 16 -12 35q-10 16 -27.5 36t-46.5 42q-16 12 -31.5 20.5t-32.5 22.5q-74 57 -103.5 138t-32.5 173.5 t11.5 188.5t30.5 184q6 35 -1 58.5t-48 37.5q41 0 63.5 18.5t30.5 28.5q18 55 47 116t71 121t96.5 113.5t121.5 94.5q23 14 41.5 22.5t40.5 20.5q41 20 66.5 40.5t42.5 37.5q23 25 28 37l2 -10q2 -11 10.5 -26.5t25 -36t44.5 -40.5q20 -14 37 -23.5t37 -25.5 q49 -41 77.5 -94.5t43 -111.5t16.5 -118.5t-4 -116.5q2 -10 17.5 -28.5t56.5 -18.5q-53 -16 -70.5 -43.5t-27.5 -64.5zM418 686q-4 -16 -7 -31.5t-8 -31.5q-12 -55 -24 -114.5t-17 -107.5q-6 -41 -1.5 -100t20.5 -113.5t49 -93.5t86 -39q59 0 113.5 42t100.5 113t81 161 t57 186q6 29 16.5 63.5t14.5 66.5t-5 57.5t-40 33.5q35 6 52.5 23.5t21.5 27.5q12 82 8 154t-23.5 126t-53.5 85t-81 31q-20 0 -55 -14.5t-71 -40t-65.5 -61.5t-39.5 -81q-14 -66 19.5 -98.5t74.5 -32.5q45 0 76 27.5t37 56.5q8 33 -12.5 49.5t-41.5 16.5q-8 0 -10 -3 q-10 -6 -16 -13t-10 -13l-9 -14q4 10 14.5 13t14.5 3q16 0 19.5 -15.5t1.5 -23.5q-4 -14 -16.5 -26.5t-33.5 -12.5q-31 0 -35 19.5t-2 29.5q12 47 42 61.5t47 14.5q31 0 46 -10t21 -24.5t5 -29t-3 -22.5q-8 -37 -28.5 -60.5t-44 -38t-48 -19.5t-39.5 -5q-37 0 -72.5 16.5 t-58.5 47.5q-10 -23 -17 -45.5t-15 -47.5q0 -10 9 -27.5t40 -23.5q-37 -10 -56.5 -36.5t-27.5 -55.5z" />
<glyph unicode="P" horiz-adv-x="749" d="M287 45q-6 -35 7 -58.5t42 -37.5q-61 0 -111.5 -26.5t-81.5 -80.5q-10 55 -51 79t-90 28q76 27 94 104l142 641q6 23 -5 37q-6 10 -12 16.5t-12 12.5q-10 6 -19.5 11t-21.5 9q43 0 71.5 21.5t39.5 66.5l79 365q6 35 -8 55q-4 12 -15 21.5t-24 19.5h135q25 0 48.5 5 t42.5 12q16 12 30.5 19t24.5 15q12 12 23.5 24.5t21.5 29.5q-14 -8 16 -45q16 -16 35 -34t43 -30q80 -18 128 -72.5t61 -132.5q16 -78 8 -139t-37 -135q-35 -92 -88 -162t-121 -117t-144.5 -75.5t-156.5 -38.5zM553 1233q-37 -172 -76 -340t-76 -336q74 14 141.5 79.5 t115 153t65.5 181.5t-8 166q-18 51 -54 82.5t-83 27.5q-25 -10 -25 -14z" />
<glyph unicode="Q" horiz-adv-x="1064" d="M934 -25q43 0 59.5 -32.5t5.5 -75.5q-12 -53 -59 -94t-109 -41q-66 0 -127 55t-96 178q-23 -12 -36 -22.5t-27 -20.5q-16 -14 -29.5 -27.5l-23.5 -23.5l-23 -25l-3 12q-3 13 -13.5 32.5t-34 43t-64.5 46.5l-2 2q-72 37 -109.5 106.5t-51 159.5t-5 192.5t30.5 202.5 q12 53 11 88t-52 53q41 0 63.5 19.5t28.5 30.5q23 57 52.5 118.5t69.5 119.5t93.5 110.5t122.5 93.5q23 14 42.5 22.5t39.5 20.5q78 41 107.5 78t31.5 37q4 -16 13 -35q8 -16 23.5 -37t43.5 -41q16 -16 36 -24.5t40 -24.5q49 -41 76.5 -95.5t41 -112.5t15.5 -118.5 t-2 -111.5q2 -10 17.5 -30t56.5 -20q-61 -16 -78.5 -50t-28.5 -79q-20 -88 -57 -192.5t-92 -204.5q-45 -78 -100.5 -133t-94.5 -84q4 -14 15.5 -40t28 -50.5t36 -43t39.5 -18.5q25 0 37 10.5t16 20.5q2 10 -3 19.5t-15 9.5q-14 0 -27 -15q2 8 13 19q8 8 19 14t30 8h8z M399 555q63 -8 108.5 -43t77 -84t54.5 -109.5t41 -119.5q35 49 67.5 108.5t61.5 123t51.5 127t34.5 122.5q8 33 3 61.5t-44 36.5q35 6 51.5 24.5t24.5 28.5q12 80 7 152t-24.5 126t-53.5 85t-79 31q-47 0 -94 -31t-91 -84t-81 -125t-61 -154q0 -10 9 -28.5t42 -24.5 q-45 -10 -62.5 -41.5t-25.5 -66.5zM508 55q0 2 10 10.5t23.5 18.5t23.5 18.5t10 12.5q-6 37 -21 96t-37.5 119.5t-52.5 108.5t-67 63q-4 -23 -6 -63t0 -88t9.5 -98t21.5 -92t34.5 -71t51.5 -35z" />
<glyph unicode="R" horiz-adv-x="892" d="M829 -20q6 -16 17.5 -19.5t23.5 -7.5q-10 -2 -30.5 -6t-47 -16.5t-55 -34t-53.5 -54.5q-43 106 -156 107q12 6 20.5 9t20.5 9q25 16 30 28.5t-1 37.5l-57 237q-6 23 -41 29q-12 4 -23.5 4h-21.5h-13q18 10 32.5 19.5t21.5 25.5q6 10 11 20.5t9 16.5h2l-2 4l-24 115 q-6 39 -21 53q-16 -6 -35.5 -8t-38.5 -8l-104 -496q-6 -18 -4 -32.5t8 -24.5q6 -16 17.5 -23.5t23.5 -15.5q-59 0 -109.5 -26.5t-85.5 -80.5q-10 55 -51 79t-90 28q51 16 70 47q16 35 37 106l131 592q4 12 2 19.5t-6 17.5q-6 10 -10.5 16.5t-14.5 12.5q-23 16 -43 20 q45 0 71.5 19.5t32.5 38.5l84 395q6 16 5 29.5t-5 25.5q-8 12 -19 21.5t-24 19.5h138q25 0 46 5t40 12q16 12 32.5 19t24.5 15q16 12 25.5 24.5t19.5 29.5q-14 -6 12 -45q16 -16 35 -34t43 -30q92 -23 135 -81t56 -124q18 -92 1.5 -172t-57.5 -145.5t-103.5 -115.5 t-133.5 -81q18 -10 34.5 -25.5t22.5 -31.5q10 -23 16.5 -44.5t12.5 -43.5q39 -39 98 -12q-16 -18 -31.5 -34t-26 -32t-13.5 -35.5t5 -44.5zM553 1233q-31 -147 -65.5 -292.5t-65.5 -289.5q53 10 109.5 40t101.5 79t73.5 114.5t26.5 149.5q0 41 -10 80t-30.5 68.5t-50.5 48 t-67 16.5q-22 -10 -22 -14z" />
<glyph unicode="S" horiz-adv-x="907" d="M891 367q-16 -59 -51 -120t-84 -114t-109.5 -96t-124.5 -68q-45 -23 -91 -57.5t-64 -67.5l-19 37q-10 16 -27.5 34.5t-44.5 35.5q-12 4 -24 9t-23 11h-2q-45 25 -74.5 65t-44 87t-16.5 99t8 100q14 68 48 121t77 87.5t90 53t91 18.5q51 0 83.5 -18.5t50 -46t21.5 -58 t-2 -55.5q-10 -47 -41 -88t-76 -70q2 76 -30.5 113t-69.5 37q-63 0 -88 -84q-14 -47 -10 -97.5t24.5 -91.5t57 -66.5t90.5 -25.5q41 0 80 22.5t72.5 60.5t58 87t37.5 101q10 47 8 92t-25 84q-14 0 -34.5 -7.5t-43.5 -29.5l9 16q6 18 12 41q10 29 2 49q-47 43 -102.5 82 t-99.5 87t-66.5 110.5t-1.5 150.5q29 131 104.5 217t159.5 111q33 10 58.5 27.5t43.5 36.5q10 10 19.5 22t17.5 23q-2 -2 12.5 -35t57.5 -76q53 -25 83.5 -69t18.5 -99q-6 -33 -27.5 -60.5t-46 -53t-46 -51t-27.5 -54.5q-8 -35 7 -46t31 -11q35 0 68 28.5t43 69.5 q6 27 -16 27q-27 0 -37 -31q0 -10 10 -10l12 4l6 4q-4 -12 -13 -21.5t-23 -9.5q-16 0 -27.5 10.5t-7.5 30.5q6 27 27.5 41t41.5 14q27 0 43.5 -21.5t10.5 -47.5q-6 -25 -22.5 -48.5t-40 -43t-52.5 -30.5t-57 -11q-55 0 -91 37.5t-26 91.5q12 47 46 99t46 97q4 25 -6 39 t-51 14q-66 0 -116 -45t-71 -131q-12 -51 4.5 -92t51 -80t85 -76.5t105.5 -82.5q4 0 8 -1.5t11 -1.5q16 0 36.5 7.5t44.5 31.5q-8 -12 -10 -18q-8 -12 -14 -43q-6 -25 0 -45q53 -57 77.5 -119.5t6.5 -148.5z" />
<glyph unicode="T" horiz-adv-x="770" d="M678 496q-47 0 -70.5 -23.5t-27.5 -32.5l-88 -395q-8 -39 8 -59.5t41 -36.5h-4q-51 -4 -87 -20.5t-59 -34.5q-29 -23 -43 -50l-4 16q-4 15 -17.5 34.5t-42 36t-77.5 18.5q31 14 57.5 37.5t32.5 58.5l90 395l-3 10q-3 9 -10 19t-21.5 18.5t-39.5 8.5q12 4 24.5 9t22.5 11 q18 10 36 26.5t22 39.5q37 160 72.5 316.5t70.5 315.5h-141q-37 -16 -69 -69t-44 -109q-12 -53 -1 -76.5t30 -23.5q16 0 34.5 16.5t22.5 38.5q8 35 -16 35q-20 0 -25 -16v-4q-4 16 0 28q4 23 20.5 34t35.5 11q31 0 48 -25.5t7 -64.5q-8 -35 -43 -72.5t-92 -37.5 q-41 0 -61.5 24.5t-24.5 70.5t6 111.5t28 147.5l21 96l154 2q16 -4 30.5 -3t42.5 1q49 4 84 20.5t56.5 35t31.5 33.5l11 16q2 -29 18 -50q12 -18 39 -34.5t74 -20.5h229l-20 -96q-20 -82 -40 -147.5t-44.5 -111.5t-54 -70.5t-72.5 -24.5q-57 0 -76 36.5t-10 71.5 q10 41 36.5 66.5t59.5 25.5q16 0 26.5 -10t6.5 -33q-4 -12 -13 -30v4q4 16 -16 16t-31 -35q-4 -23 6.5 -39t26.5 -16q18 0 38.5 23.5t33.5 76.5q12 55 6 108.5t-35 69.5h-139l-148 -643q-2 -20 9.5 -33.5t25.5 -23.5z" />
<glyph unicode="U" horiz-adv-x="897" d="M549 -49q-37 -10 -62.5 -28.5t-42.5 -35.5q-18 -18 -32 -43q0 -2 -3 16.5t-16.5 40t-42 40t-78.5 18.5h2q-47 12 -77.5 40t-47 63.5t-19.5 77.5t7 83l105 473q4 23 -5.5 39.5t-23.5 26.5q-8 6 -18.5 11t-20.5 9q25 0 43.5 8.5t30.5 18.5t19 19l7 10l88 395q8 37 -7 59.5 t-40 36.5q51 2 87 19.5t59 35.5q27 20 43 50l4 -16q4 -15 17.5 -34.5t42 -36t77.5 -18.5h2q-29 -16 -55.5 -38.5t-34.5 -57.5q-25 -106 -44 -191.5t-36.5 -160t-33 -143t-33 -145.5t-37 -166t-43.5 -202q-8 -35 -2 -62.5t21.5 -47t37 -30.5t43.5 -11q39 0 77 5t69.5 21.5 t55 46t34.5 78.5q25 113 44 203t36.5 166t34 145.5t32.5 143t35.5 158.5t44.5 192q8 35 -9.5 57.5t-39.5 38.5h2q51 2 87 18.5t58.5 36t33.5 34.5l11 16q2 -25 21 -50q14 -18 40.5 -35.5t78.5 -19.5q-31 -14 -55.5 -36.5t-33.5 -59.5l-88 -395l1 -10q1 -9 8.5 -19t23 -18.5 t39.5 -8.5q-12 -4 -24.5 -9t-22.5 -11q-18 -10 -35.5 -26.5t-21.5 -39.5l-109 -473q-10 -49 -35.5 -95t-64.5 -83t-92.5 -62.5t-116.5 -31.5z" />
<glyph unicode="V" horiz-adv-x="991" d="M602 227q123 219 207 370t139.5 249t88 156.5t51 91t28.5 52t23 42.5q6 14 11 27.5t9 27.5q6 23 0 45.5t-18.5 40t-31.5 28.5t-40 11q-27 0 -50.5 -16.5t-29.5 -42.5q-4 -14 1 -34t32 -20q14 0 24.5 11.5t14.5 23.5q2 12 -6 19q10 -2 20 -13q8 -6 14.5 -17t2.5 -26 q-6 -29 -41 -57.5t-72 -28.5q-41 0 -59.5 29t-10.5 66q8 33 28.5 62.5t48.5 52t60.5 34.5t65.5 12q23 0 52.5 -11t53 -37.5t35 -72t-3.5 -112.5q-10 -43 -37 -94l-581 -1035q-10 -47 4 -70.5t43 -41.5h-4q-53 -4 -88 -20.5t-58 -34.5q-29 -23 -43 -50l-4 16q-4 15 -17 34.5 t-42 36t-78 18.5q47 23 70 53q-4 80 -9.5 174t-10.5 188.5t-10 179.5t-7 144q-2 20 -16.5 32.5t-30.5 18.5q-18 8 -45 9q25 6 42 18t26 24.5t13.5 22.5t4.5 12l-25 439q0 23 -15.5 39t-33.5 26q51 2 87 18.5t58.5 35t33.5 33.5l11 16q2 -25 21 -50q14 -18 40.5 -34.5 t78.5 -18.5h4q-27 -16 -48.5 -31.5t-33.5 -40.5l20 -383q2 -4 15.5 -18t44.5 -14h13t15 4q-25 -14 -36 -27q-14 -12 -26.5 -28.5t-16.5 -34.5q-2 -2 -3 -6z" />
<glyph unicode="W" horiz-adv-x="1392" d="M995 227l537 961q6 14 12 27.5t10 27.5q8 45 -20.5 85t-69.5 40q-29 0 -52 -16.5t-30 -44.5q-4 -12 3.5 -32t31.5 -20q14 0 23.5 10.5t13.5 22.5q4 16 -6 21q10 -2 20 -13q8 -6 14.5 -16t2.5 -25q-6 -29 -39 -58.5t-74 -29.5t-59.5 30t-9.5 67q8 33 28.5 62.5t48 51 t60.5 33.5t65 12q20 0 51 -10t55.5 -36.5t36 -70.5t-5.5 -114q-4 -23 -12 -46.5t-24 -49.5l-580 -1035l-4 -16q-8 -39 8.5 -59.5t40.5 -36.5h-4q-51 -4 -87 -20.5t-58 -34.5q-29 -23 -43 -50l-5 16q-4 15 -17 34.5t-42 36t-78 18.5q20 10 39 22.5t33 30.5l-18 340l-158 -281 l-4 -16q-8 -39 9 -59.5t40 -36.5h-2q-53 -4 -89 -20.5t-59 -34.5q-29 -23 -43 -50l-4 16q-4 15 -17 34.5t-42 36t-78 18.5q20 10 38.5 22.5t33.5 30.5q-4 80 -9.5 174t-10.5 188.5t-10 179.5t-7 144q-2 20 -16.5 32.5t-30.5 18.5q-18 8 -45 9q25 6 41 18t25 25.5t13 23.5 l5 10l-23 439q-8 43 -51 65q51 2 88 18.5t59 34.5q27 20 43 50l5 -16q4 -15 17 -33.5t42 -35t78 -18.5h2q-25 -14 -47.5 -30.5t-32.5 -41.5l18 -383q2 -4 15.5 -18t44.5 -14q18 0 30 4q-2 0 -13 -8.5t-25.5 -21.5t-27.5 -30.5t-18 -35.5l27 -523l328 586q12 29 20 57 q8 43 -19.5 83t-70.5 40q-27 0 -50.5 -16t-29.5 -45q-4 -14 3.5 -32.5t29.5 -18.5q14 0 24.5 11t14.5 21q4 16 -6 21q12 -2 22 -12q8 -6 13.5 -16.5t1.5 -26.5q-6 -27 -40 -56.5t-75 -29.5t-58.5 29.5t-9.5 64.5q8 33 28 62.5t47.5 51t59 35t64.5 13.5q23 0 50.5 -9.5 t51 -32t37 -62.5t6.5 -101q2 0 3.5 1t5.5 1l-9 -4l-4 -27q-6 -23 -14 -46.5t-22 -47.5l-31 -53z" />
<glyph unicode="X" horiz-adv-x="1114" d="M664 672l-8 40q-9 40 -22 100t-29.5 133t-32 138.5t-26.5 116.5t-14 68q-6 23 -15 36t-32 25q51 2 87 18.5t58.5 35t33.5 33.5l12 16q2 -25 20 -50q14 -18 42 -34.5t77 -18.5h4q-41 -23 -54 -36t-15 -23q-2 -6 -2 -19l69 -323l207 327q37 57 78 92t79 53.5t67.5 25 t45.5 6.5q59 0 80 -43t8 -97q-6 -31 -21 -60.5t-36.5 -53t-47.5 -39t-50 -15.5q-49 0 -62.5 33t-5.5 64q8 37 26.5 53t41.5 16q8 0 24 -4q4 -2 11 -2h-5q-10 0 -20 -10t-14 -23q-4 -10 3 -20t29 -10q29 0 45.5 19.5t20.5 35.5q4 27 -11.5 48.5t-43.5 21.5q-51 0 -107 -80 l-49 -80q-2 -2 -7 -10.5t-29.5 -46t-75 -118.5t-142.5 -229q23 -109 39 -181.5t33.5 -149t40 -178t57.5 -265.5q10 -43 47 -59q-51 -2 -87 -18.5t-58.5 -36t-33.5 -34.5l-11 -16q-2 25 -21 50q-14 18 -42.5 34.5t-78.5 20.5h-2q41 20 54.5 34.5t15.5 24.5q2 6 2 19l-109 499 l-305 -506q-37 -59 -79 -94t-79.5 -52t-67.5 -22.5t-44 -5.5q-59 0 -80.5 41t-11.5 95q6 31 22.5 61.5t39 54t48 39t50.5 15.5q49 0 62 -32t7 -65q-10 -37 -30.5 -53t-40.5 -16q-6 0 -23 4l-8 4h4q10 0 19.5 10t11.5 21q4 12 -3.5 21t-29.5 9q-29 0 -44.5 -19.5t-19.5 -35.5 q-6 -27 9.5 -48.5t44.5 -21.5q37 0 69 31q4 4 9.5 11.5t20.5 29t43 66.5t76 121.5t119 194.5t173 288z" />
<glyph unicode="Y" horiz-adv-x="1056" d="M438 514q16 10 32.5 24.5t25.5 34.5q-18 82 -29.5 134.5t-20 90.5t-16.5 71.5t-17.5 78.5t-23.5 110.5t-37 168.5l-10 41q-4 23 -15.5 37t-29.5 24q51 2 87 18.5t58 34.5q27 20 43 50l5 -16q4 -15 17 -33.5t42 -35t78 -18.5h2q-39 -20 -52.5 -34.5t-17.5 -24.5 q-2 -4 -1 -9.5t1 -9.5l4 -22q27 -123 53.5 -239t49.5 -238l307 503q35 57 76 92t79.5 53.5t69.5 25t47 6.5q59 0 78.5 -42t9.5 -96q-6 -31 -22.5 -60.5t-39 -54t-48 -39t-49.5 -14.5q-49 0 -62.5 32t-5.5 65q8 39 28.5 53t41.5 14q8 0 24 -4q4 -2 10 -2h-4q-10 0 -20 -10 t-15 -23q-4 -10 3.5 -20t29.5 -10q29 0 45.5 19.5t20.5 35.5q4 27 -11.5 48.5t-44.5 21.5q-25 0 -52 -19.5t-54 -60.5l-416 -680l-4 -15q-2 -20 9.5 -33.5t25.5 -23.5l35 -18q-47 0 -70.5 -23.5t-28.5 -32.5l-88 -395q-8 -39 9.5 -59.5t40.5 -36.5h-3q-53 -4 -88.5 -20.5 t-58.5 -34.5q-29 -23 -43 -50l-4 16q-4 15 -17.5 34.5t-42 36t-77.5 18.5q31 14 56.5 36.5t33.5 59.5l90 395l-2 10q-2 9 -10.5 19t-22.5 18.5t-39 8.5z" />
<glyph unicode="Z" horiz-adv-x="905" d="M786 436q6 0 13.5 1t13.5 1q80 0 99.5 -50t2.5 -124q-6 -29 -18 -60.5t-24.5 -62t-23.5 -59.5t-15 -49q-4 -18 -7.5 -38t-9.5 -48l-190 2h-119q-41 -8 -69.5 -24.5t-46 -34t-26.5 -30.5l-10 -12q-2 18 -16 43q-10 16 -31.5 33t-58.5 25h-258q111 172 229.5 349t237.5 357 q8 37 -8.5 65t-22.5 32q18 -6 35 -7q29 0 49 11.5t25 15.5l36 53q74 111 141.5 213.5t135.5 200.5h-131h-133q-47 -8 -81 -28.5t-50 -90.5q-6 -29 -10.5 -64.5t-1.5 -66.5t13.5 -51t32.5 -20q18 0 35 13t21 36q4 16 -1 31.5t-18 15.5q-23 0 -24 -21q-4 -4 0 -8 q-12 29 -10 43q4 20 23.5 30.5t39.5 10.5q35 0 52.5 -29.5t6.5 -70.5q-2 -10 -11 -27.5t-24.5 -35t-38 -31t-51.5 -13.5q-47 0 -73.5 35t-40 86t-18.5 112.5t-10 113t-15 86t-33 34.5h311q51 2 86 18.5t57.5 35t34.5 33.5l11 16q4 -27 16 -46q12 -18 35.5 -34.5t67.5 -22.5 h202q-80 -119 -163 -246t-175 -262l-61 -92q-2 0 -2 -2t-1 -4t-1 -4q-2 -12 2 -32.5t39 -31.5q-29 -4 -49 -12q-20 -6 -41 -17.5t-35 -27.5l-49 -74q-76 -113 -153 -228.5t-157 -232.5h230q49 0 98 5.5t91 23t73 50t43 87.5q10 41 5 79t-28 38q-12 0 -32.5 -16.5 t-26.5 -40.5q-6 -37 14 -37t25 18q0 2 2 4q0 -25 -2 -34q-8 -31 -31.5 -48.5t-52.5 -17.5q-31 0 -58.5 26.5t-13.5 82.5q6 29 24.5 54t43 47t53 35t55.5 17z" />
<glyph unicode="[" horiz-adv-x="493" d="M436 1477q6 35 0 57q-4 10 -4 20.5t-4 14.5h33h295h28l-55 -115h-31h-94l-379 -1585h92h33l15 -113h-33h-297h-33q20 16 30.5 35t20.5 57q16 57 28.5 118t29.5 126q10 57 33.5 162.5t54 237t65.5 275.5t68 279.5t60.5 249t43.5 181.5z" />
<glyph unicode="\" horiz-adv-x="649" d="M350 1352q-4 33 -25.5 52t-35.5 30h284q0 -2 -10 -4q-10 -8 -18 -20.5t-8 -31.5q4 -152 11 -340t15 -383.5t17.5 -385t19.5 -341.5q2 -33 21.5 -53t37.5 -31h-43h-237l8 6q23 18 29 50q-6 152 -14.5 340t-16.5 384.5t-17.5 386t-17.5 341.5z" />
<glyph unicode="]" horiz-adv-x="538" d="M350 -152q-4 -16 -4 -31.5t4 -25.5t4 -20.5t4 -14.5h-32h-295h-29l55 115h31h94l379 1585h-92h-33l-14 113h33h297h32q-20 -16 -30.5 -34.5t-20.5 -57.5q-16 -57 -28.5 -118t-28.5 -126q-10 -57 -34 -162.5t-54.5 -237t-65.5 -275.5t-67.5 -279.5t-60.5 -249t-44 -181.5z " />
<glyph unicode="^" horiz-adv-x="489" d="M553 1401h12v0l152 -217l-23 -80l-162 166l-235 -166l8 80z" />
<glyph unicode="_" horiz-adv-x="860" d="M707 -246h-69.5t-119 1t-143.5 1h-143.5h-121h-73.5q18 37 34.5 70t32.5 68h670q-18 -35 -34.5 -69t-32.5 -71z" />
<glyph unicode="`" horiz-adv-x="239" d="M377 1085l35 -190h-84l-66 190h103h12z" />
<glyph unicode="a" horiz-adv-x="626" d="M547 12q4 -23 16 -37t29 -24h-158q-16 0 -34.5 14.5t-28.5 34.5q-37 -27 -81 -40t-87 -13q-63 0 -98 27.5t-51.5 65.5t-18.5 76t0 56q4 16 6 29.5t6 27.5q35 156 120 226.5t191 70.5q29 0 49.5 -7t34.5 -15q8 -4 15.5 -9.5t13.5 -11.5l25 121v-2q10 41 -7.5 62.5 t-48.5 21.5q-35 0 -75.5 -29.5t-65.5 -91.5l-98 133q2 -2 12 -2q23 0 45.5 18.5t42.5 30.5q72 41 143 41q49 0 93.5 -17t75 -53t42 -88.5t-3.5 -119.5l-4 -21q2 -8 12.5 -26.5t38.5 -18.5l-30 -16q-12 -8 -25.5 -20.5t-19.5 -28.5l-74 -338q-2 -6 -2 -13.5v-13.5zM397 162 l43 184q8 37 -11 65.5t-54 28.5q-29 0 -51.5 -17t-40 -46t-29.5 -65t-21 -72q-8 -37 -11 -73t0 -65.5t14.5 -47t31.5 -17.5q10 0 28.5 5t38 17.5t36 33t22.5 50.5v2z" />
<glyph unicode="b" horiz-adv-x="694" d="M793 444q-16 -6 -27 -14q-10 -8 -21.5 -17.5t-19.5 -23.5q-20 -90 -55 -170t-81 -140.5t-99.5 -96t-108.5 -35.5q-43 0 -82 13t-63 40q-18 -20 -45 -34.5t-44 -14.5h-157q31 16 53.5 36.5t36.5 78.5q20 92 37.5 169.5t34.5 147.5q-2 16 -9.5 26.5t-15.5 18.5q-4 4 -10 8 t-13 8q27 0 44.5 14.5t25.5 24.5l152 684q8 35 -6.5 55.5t-38.5 32.5h307q-29 -14 -51.5 -33.5t-30.5 -54.5l-100 -432q27 27 60.5 39t88.5 12q61 0 100 -20.5t59.5 -58t27 -90t3.5 -115.5l-2 -13q2 -8 11.5 -26.5t38.5 -18.5zM549 375q35 160 22.5 235.5t-67.5 75.5 q-29 0 -63.5 -19.5t-61.5 -48.5q-25 -117 -52.5 -241.5t-64.5 -288.5q12 -14 28.5 -23.5t39.5 -9.5q25 0 52.5 15.5t56 52.5t57 98.5t53.5 153.5z" />
<glyph unicode="c" horiz-adv-x="577" d="M399 754q76 35 131 34q39 0 76 -17t61.5 -49t35 -76t-2.5 -97q-8 -33 -23 -64.5t-40 -56.5t-57.5 -40t-75.5 -15q-47 0 -70 22q-6 4 -12 9.5t-10 13.5q25 0 46 14t37.5 37t28 50.5t17.5 51.5q10 47 0.5 78t-37.5 33q-37 -6 -67.5 -35t-55.5 -75t-45.5 -105t-34.5 -125 q-10 -49 -17.5 -100.5t-6 -95.5t13.5 -72.5t43 -30.5q8 0 24.5 6t33 19.5t31.5 37t23 58.5q4 12 2 18t1 15l155 -39q-41 -94 -114.5 -151.5t-167.5 -57.5q-98 0 -145.5 41t-62 104.5t-5 140t23.5 148.5q0 16 -5 27.5t-11 19.5l-17 16q27 2 44.5 17.5t21.5 25.5q35 86 94 156 t139 109z" />
<glyph unicode="d" horiz-adv-x="686" d="M727 481q4 -10 14.5 -24.5t36.5 -14.5l-28 -16q-12 -8 -24.5 -18.5t-20.5 -26.5l-64 -289q-10 -45 -11 -69.5t4 -38t16.5 -19.5t23.5 -14h-160q-16 0 -34.5 14.5t-28.5 34.5q-25 -23 -66 -39t-88 -16q-72 0 -114 33.5t-60.5 90t-17.5 128t18 147.5q12 53 -3.5 74.5 t-21.5 23.5q25 0 42.5 15.5t25.5 25.5q55 141 134 222t173 81q86 0 137 -45q6 25 12.5 51.5t16.5 72.5t25.5 118t40.5 184q8 35 -7.5 54.5t-38.5 33.5h308q-29 -12 -51.5 -32.5t-30.5 -55.5zM590 649q-29 31 -68 31q-25 0 -55.5 -17.5t-62 -60.5t-61.5 -114.5t-54 -178.5 q-31 -139 -9.5 -199.5t66.5 -60.5q31 0 62.5 18.5t58.5 47.5z" />
<glyph unicode="e" horiz-adv-x="616" d="M526 797q82 -4 127 -54.5t54 -124.5q8 -78 -22 -157.5t-85 -140t-130 -92t-157 -15.5q-4 0 -10 1t-20 5v-4q0 -2 -1 -2t-1 -2v-2q-8 -80 3 -119t32.5 -48t47 4t47 38t34 52.5t6.5 45.5v15l145 -39q-27 -72 -77 -121t-109.5 -72.5t-119 -20.5t-104.5 35.5t-69.5 97 t-10.5 165.5q6 53 13.5 85.5t9.5 53t-6 36t-29 34.5q25 2 38 10t23.5 22.5t19.5 34t24 45.5q23 41 52.5 84t68 77t88.5 54.5t118 18.5zM295 295q41 -8 79 11.5t68.5 54t55 80.5t37.5 94q16 57 14 108t-35 55q-37 2 -70.5 -34.5t-60.5 -88t-45.5 -103.5t-24.5 -79 q0 -4 -4 -19.5t-7 -32.5t-6 -31.5t-1 -14.5z" />
<glyph unicode="f" horiz-adv-x="503" d="M49 -4q18 29 29 70l69 315q0 16 -7 26.5t-15 18.5l-21 16q25 2 43.5 15.5t22.5 23.5q16 68 26.5 113t20.5 94q-23 -2 -40 -5t-27 -13q10 33 24 53q10 20 26.5 37.5t37.5 17.5l34 152q35 160 128.5 245t215.5 85q70 0 123 -41q16 -12 30.5 -31t37.5 -19q10 0 12 2 l-155 -133q4 61 -26 91t-65 30q-29 0 -54 -21.5t-36 -62.5l-67 -299q33 -6 63 -6q2 0 12.5 1t23.5 5t25.5 12.5t16.5 22.5q23 -27 14 -66q-6 -29 -32.5 -51t-71.5 -26q-16 0 -35.5 1t-40.5 3l-43 -191q2 -10 13.5 -23.5t35.5 -15.5q-20 -8 -28 -14q-10 -8 -22.5 -19.5 t-18.5 -25.5q-14 -57 -27.5 -121.5t-30.5 -142.5q-8 -31 -18 -61.5t-27.5 -54t-42 -38t-61.5 -14.5h-131q16 10 31.5 19.5t27.5 25.5z" />
<glyph unicode="g" horiz-adv-x="692" d="M733 473q14 -25 43 -24q-8 -4 -14 -8.5t-10 -8.5q-10 -8 -20.5 -19.5t-16.5 -27.5q-33 -147 -61.5 -267t-57.5 -255q0 -2 -6 -30t-22.5 -68.5t-44 -89t-68.5 -89.5t-99.5 -67.5t-134.5 -26.5h-47q-31 0 -78 7t-87 31t-61.5 71t-2.5 127q2 10 14 37.5t36.5 56t60.5 51.5 t87 23q27 0 43.5 -9.5t25.5 -23t11 -28.5t0 -25q-6 -25 -24 -43l-19 -17q4 16 -21.5 30.5t-56.5 14.5q-27 0 -47 -13t-28 -46q-6 -35 5 -60.5t33.5 -44t50 -28t56.5 -9.5q78 0 124 32t73.5 86.5t44 128t35.5 157.5q-72 -47 -144 -47q-78 0 -121 38t-59 98t-12 138t22 158v2 q0 16 -5 27.5t-11 19.5l-19 17q29 0 46.5 16t21.5 27q25 57 62.5 111t86 96t106.5 68t124 26q49 0 72.5 -17.5t25.5 -17.5q2 6 12.5 12t20.5 10t20.5 7.5t12.5 3.5h157q-27 -16 -43 -31t-27.5 -36.5t-19.5 -52t-18 -79.5zM301 84q20 -31 59 -31q25 0 53.5 11.5t57.5 27.5 q25 113 51.5 230.5t61.5 271.5q23 92 -68 92q-25 0 -53.5 -21.5t-58 -65.5t-57.5 -114.5t-50 -169.5q-35 -155 4 -231z" />
<glyph unicode="h" horiz-adv-x="679" d="M250 33q-6 -29 9 -49.5t36 -32.5h-305q16 10 32.5 19.5t28.5 25.5l6 10q2 0 15.5 48t29 111.5t29.5 126t21 91.5q-2 16 -9.5 26.5t-15.5 18.5q-4 4 -10 8t-13 8q27 0 44.5 14.5t23.5 24.5l154 684q8 35 -6.5 55.5t-38.5 32.5h307q-29 -14 -51.5 -33.5t-30.5 -54.5 l-98 -424q51 43 129 43q57 0 97 -28.5t61.5 -71.5t26.5 -95t-5 -102q2 -8 12 -26.5t39 -18.5q-16 -6 -27 -14q-10 -8 -21 -17.5t-20 -23.5l-75 -350q-8 -33 6 -53.5t37 -34.5h-158q-33 0 -51.5 29.5t-12.5 58.5l78 344q-2 16 -8 26.5t-14 18.5q-8 6 -23 16q23 0 40.5 13.5 t23.5 23.5q20 117 -0.5 161t-53.5 44q-25 0 -54 -19.5t-56 -48.5l-25 -100q-6 -31 0 -52.5t45 -21.5l-28 -16q-12 -8 -24.5 -18.5t-18.5 -26.5q-20 -86 -39 -175t-39 -175z" />
<glyph unicode="i" horiz-adv-x="337" d="M266 12q4 -23 16.5 -37t28.5 -24h-307q47 18 65.5 50t32.5 91l64 287q0 16 -7 28.5t-16 20.5q-4 4 -10 8l-12 8q27 0 45 15.5t22 25.5l50 222q4 20 -5.5 34.5t-21.5 24.5q-8 4 -16.5 10t-18.5 10h338l-41 -18q-16 -10 -32.5 -23.5t-22.5 -29.5l-51 -228q4 -10 12 -26.5 t37 -16.5l-31 -16q-12 -8 -24.5 -20.5t-18.5 -28.5l-74 -340q-2 -6 -2 -13.5v-13.5zM354 821l-106 135l168 138l104 -138z" />
<glyph unicode="j" horiz-adv-x="339" d="M516 786l-41 -18q-16 -10 -32.5 -22.5t-22.5 -30.5l-49 -228q2 -8 12 -24.5t39 -16.5l-31 -16q-12 -8 -25.5 -20.5t-19.5 -28.5l-123 -553q-37 -160 -131 -244t-211 -84q-72 0 -125 41q-16 12 -29.5 30.5t-35.5 18.5q-4 0 -7 -1t-8 -1l158 133q-4 -61 24.5 -91.5 t63.5 -30.5q29 0 54.5 21.5t35.5 62.5q10 47 29.5 137t43.5 192.5t46.5 202.5t36.5 166q0 16 -7 28.5t-16 20.5l-20 16q29 0 46 15.5t22 25.5l49 220q4 20 -5.5 34.5t-21.5 24.5q-8 4 -16.5 10t-18.5 10h336zM418 1096l104 -135l-166 -136l-104 136z" />
<glyph unicode="k" horiz-adv-x="681" d="M627 39q-8 -33 6 -53.5t37 -34.5h-158q-33 0 -51.5 29.5t-11.5 58.5l77 344q-2 16 -9 26.5t-15 18.5l-21 16q23 0 39.5 13.5t24.5 23.5q8 45 -21.5 72t-68.5 27q-35 0 -59.5 -22.5t-39.5 -43.5q-6 -29 1.5 -49.5t43.5 -20.5l-30 -16q-12 -8 -23.5 -18.5t-17.5 -26.5 l-80 -350q-6 -29 11.5 -50.5t35.5 -31.5h-305q14 10 31.5 19.5t27.5 25.5l6 10q4 0 17.5 49t29 113.5t29.5 127t21 87.5q-4 16 -11.5 26.5t-15.5 18.5l-21 16q27 0 43.5 14.5t22.5 24.5q39 176 76 338t78 346q8 35 -6.5 55.5t-38.5 32.5h307q-29 -14 -51.5 -33.5 t-30.5 -54.5q-16 -74 -30.5 -135t-29 -123.5t-31 -132t-36.5 -158.5l272 433q4 4 5 10t3 10q6 25 -7 38t-15 13h235l-16 -5t-36.5 -15t-42 -24.5t-34.5 -35.5q-57 -88 -117.5 -181t-121.5 -193q33 0 68.5 -9.5t66.5 -30t52.5 -55t27.5 -84.5q2 -8 12 -26.5t39 -18.5 q-16 -6 -27 -14q-10 -8 -22 -17.5t-21 -23.5z" />
<glyph unicode="l" horiz-adv-x="337" d="M344 1194q-6 37 -47 59h307q-29 -14 -51.5 -33.5t-32.5 -54.5l-153 -673q2 -6 14 -28t55 -22l-41 -18q-16 -10 -31.5 -22.5t-23.5 -30.5l-72 -332q-8 -33 6.5 -53.5t36.5 -34.5h-307q20 8 35.5 18.5t26 25.5t18.5 38.5t16 58.5q14 66 19.5 91.5t8.5 43t9 43t23 92.5 q4 20 -5.5 35t-21.5 25q-8 4 -16 10t-19 10q23 0 40.5 7.5t28.5 16.5t17 17.5t6 10.5l150 671q6 21 4 29z" />
<glyph unicode="m" horiz-adv-x="1122" d="M264 35q4 -37 13.5 -52.5t33.5 -31.5h-307q14 8 27.5 16t26 22.5t22.5 39t20 67.5l2 10q12 51 19.5 85t13.5 62t12.5 57.5t16.5 72.5q0 14 -7 25.5t-16 19.5l-20 16q25 0 43 14.5t22 24.5q16 63 27.5 116.5t26.5 113.5q2 18 -8.5 31.5t-22.5 23.5l-33 18h258l-12 -53 q23 23 50.5 36t70.5 17h53q53 -6 87 -33.5t54 -70.5q47 41 93.5 69.5t111.5 34.5h53q102 -12 139 -95t25 -202q2 -8 12.5 -26.5t38.5 -18.5q-16 -6 -26 -14t-21.5 -17.5t-19.5 -23.5l-78 -348q-8 -31 8.5 -52.5t36.5 -35.5h-158q-33 2 -52 30.5t-13 57.5l76 342 q0 16 -7.5 26.5t-15.5 18.5l-20 16q25 0 41 13.5t24 23.5q10 57 8 96t-12 63t-27.5 33t-35.5 9q-47 0 -87 -34t-69 -70q0 -16 -2 -39t0 -44.5t13 -36t40 -14.5l-29 -16q-12 -8 -24 -19.5t-19 -27.5q-10 -39 -18 -79t-16 -81l-41 -182q-8 -31 8 -52.5t37 -35.5h-308 q20 12 34 17t24 20.5t21.5 50.5t27.5 108l29 121q8 39 14 69t10 46q0 14 -7 25.5t-15 19.5l-21 16q23 0 38 11.5t28 27.5q18 117 -5.5 159t-62.5 42q-31 0 -63.5 -19.5t-59.5 -48.5q-10 -49 -16 -66.5t-8 -31.5q-6 -29 -1 -51.5t44 -22.5l-29 -16q-12 -8 -24.5 -19.5 t-18.5 -27.5q-14 -66 -30.5 -136.5t-35.5 -156.5l-10 -49q0 -2 -2 -4z" />
<glyph unicode="n" horiz-adv-x="722" d="M397 623q-4 -18 -12 -42t-12 -46q-8 -35 -3 -63t44 -28l-29 -16q-12 -8 -24.5 -19.5t-18.5 -27.5q-18 -86 -37.5 -172t-40.5 -174q-6 -31 10.5 -50.5t36.5 -33.5h-307q25 12 39 19t25.5 25.5t22.5 57.5t28 115q20 88 29.5 141t9.5 82t-9.5 39t-27.5 14q25 0 43 14.5 t22 24.5q16 63 27.5 116.5t26.5 113.5q2 18 -8.5 31.5t-22.5 23.5l-33 18h207q29 -4 36 -22.5t3 -32.5q23 23 50.5 37t70.5 18h53q102 -12 139 -95t25 -202q2 -8 12 -26.5t39 -18.5q-16 -6 -27 -14q-10 -8 -22 -17.5t-21 -23.5l-75 -350q-8 -33 7 -53.5t38 -34.5h-158 q-35 2 -53.5 30.5t-12.5 57.5l76 344q0 16 -7 26.5t-15 18.5l-21 16q25 0 41.5 13.5t24.5 23.5q10 59 8 99.5t-12.5 65t-27.5 34.5t-36 10q-29 0 -62.5 -19t-58.5 -48z" />
<glyph unicode="o" horiz-adv-x="702" d="M510 -4q-35 -27 -81 -40t-93 -13q-82 0 -129 36.5t-67.5 97t-18.5 139.5t20 163q2 18 -7 37.5t-34 32.5q27 2 47.5 20t28.5 29q23 63 56.5 118.5t78.5 97.5t99.5 65.5t119.5 23.5q68 0 111 -24.5t67.5 -66.5t33 -96.5t6.5 -115.5q2 -10 14 -29.5t41 -21.5 q-25 -8 -46.5 -27t-27.5 -45q-29 -123 -81 -221.5t-138 -159.5zM557 379q12 59 17.5 115.5t0 99.5t-22.5 69.5t-48 26.5t-59.5 -26.5t-53 -69.5t-45 -99.5t-33.5 -115.5q-12 -59 -17 -116.5t-1 -103.5t20.5 -74t46.5 -28q31 0 61 28t55.5 74t46 103.5t32.5 116.5z" />
<glyph unicode="p" horiz-adv-x="694" d="M215 678q10 51 -1 71.5t-38 36.5h158q18 0 36.5 -14t28.5 -37q37 27 81 38t87 11q92 0 133 -74.5t37 -211.5q2 -6 15.5 -27.5t42.5 -24.5q-8 -4 -15.5 -8t-13.5 -8q-10 -8 -22.5 -19.5t-18.5 -27.5q-18 -80 -48 -158t-74 -140t-102.5 -100t-133.5 -38q-57 0 -83 15 t-42 40q-23 -96 -43.5 -190.5t-48.5 -221.5q-8 -31 7 -52t38 -36h-306q29 12 52.5 33t31.5 55q27 127 48.5 225.5t41 186.5t39 175t43.5 192q-4 25 -10 44t-33 33q29 2 47.5 20.5t22.5 25.5zM268 119q12 -29 37 -48.5t55 -19.5q47 0 94.5 60.5t77.5 197.5q25 106 27 178 t-10 115t-34.5 61.5t-49.5 18.5q-39 0 -78 -31q-37 -166 -65.5 -290.5t-53.5 -241.5z" />
<glyph unicode="q" horiz-adv-x="694" d="M535 -438q6 -37 47 -60h-308q27 14 51.5 34t32.5 54q14 61 25.5 112.5t23 98.5t21.5 93.5t23 99.5q-78 -47 -160 -47q-55 0 -93 33.5t-56.5 93t-19.5 138.5t17 169q0 31 -18 49l-21 16q29 2 47.5 20.5t20.5 25.5q23 61 53.5 114t71.5 93t90 63.5t109 23.5q51 0 82.5 -15 t48.5 -38q18 23 44.5 38t43.5 15h159q-29 -16 -45 -29.5t-28.5 -37t-23.5 -64.5t-28 -110q-8 -39 -2.5 -67.5t45.5 -31.5q-31 -12 -46 -29.5t-29 -39.5q-25 -109 -44.5 -196t-39 -176t-41 -187.5t-49.5 -227.5q-4 -10 -4 -14v-14zM471 86q27 119 55.5 245t63.5 290 q-16 27 -40 46t-52 19q-47 0 -94.5 -59.5t-77.5 -196.5q-25 -106 -27 -178t10.5 -116t36 -62.5t47.5 -18.5q37 0 78 31z" />
<glyph unicode="r" horiz-adv-x="434" d="M264 35q-6 -31 10.5 -50.5t36.5 -33.5h-307q33 16 55.5 37.5t32.5 66.5l76 342q0 29 -25 39q-6 4 -24 8q41 4 59.5 34t30.5 85q10 37 16 75t15 75q2 18 -8.5 31.5t-22.5 23.5l-33 18h80q74 0 123 -6t43 -49q23 23 50.5 36t70.5 19h53q16 -4 32.5 -9t33.5 -11l-127 -174 q6 37 -14.5 57.5t-49.5 20.5q-18 0 -37.5 -9.5t-34.5 -29.5l-30 -135q2 -10 14 -30t35 -22q-8 -2 -15.5 -4t-15.5 -6q-12 -6 -23.5 -15t-17.5 -26z" />
<glyph unicode="s" horiz-adv-x="589" d="M526 385q35 -53 55.5 -111.5t8.5 -117.5q-6 -31 -27.5 -67t-60.5 -66.5t-95.5 -52t-132.5 -21.5q-35 0 -75.5 9t-74.5 29.5t-53.5 54.5t-9.5 83q12 53 54.5 91t89.5 38q31 0 51 -18.5t25 -47.5q-29 0 -46.5 -15t-21.5 -38q-6 -31 12.5 -67.5t65.5 -36.5q12 0 31.5 5 t39 16t36 29.5t22.5 47.5q6 25 -1 50.5t-21.5 47t-33 34.5t-36.5 13q-27 0 -37 -10l10 15q6 6 14 32q2 6 3 13.5t-3 15.5l-2 6q-12 20 -35.5 48t-44 64t-33 78t-1.5 91q8 41 33.5 70.5t60.5 50t75 29.5t78 9q43 0 88.5 -19t73.5 -19q14 0 19 2q6 0 8 2l-154 -185 q4 8 7.5 16.5t7.5 18.5q10 47 -15.5 80t-60.5 33q-25 0 -44.5 -16.5t-25.5 -43.5q-6 -31 7.5 -67.5t36 -68.5t50 -54.5t50.5 -22.5q39 0 61 15l-12 -15q-4 -6 -10.5 -15t-8.5 -19q-2 -5 2 -23z" />
<glyph unicode="t" horiz-adv-x="415" d="M397 -39q-10 -4 -22.5 -6t-67.5 -4q-72 6 -109.5 42t-51 91t-8.5 125t22 143q4 10 5 20.5t5 20.5q-4 10 -15.5 29.5t-35.5 21.5q16 4 28 11q12 6 24.5 15t21.5 26q4 16 14 67t26 129h-51l-6 94h80q18 86 37.5 161t32.5 132q10 49 13 78t0 46.5t-13.5 28.5t-28.5 23h158 q29 0 43 -13t19 -33.5t2 -46t-9 -50.5l-76 -326h101l8 -92h-129l-47 -202q2 -29 26 -39q6 -4 25 -9q-27 -2 -46.5 -22.5t-27.5 -30.5q-10 -57 -20.5 -116.5t-9.5 -108.5t18.5 -80t62.5 -31q10 0 16.5 2t16.5 6z" />
<glyph unicode="u" horiz-adv-x="722" d="M217 690q4 23 4 36t-4 22.5t-14 17.5t-27 20h242l-64 -292q0 -29 25 -39q6 -4 24 -9q-43 -4 -60 -32.5t-26 -63.5l-32 -168q-12 -55 7 -88t54 -40t76 8.5t70 56.5l61 276q-2 10 -13.5 29.5t-35.5 21.5q16 4 28 11q12 6 24.5 15t21.5 26l32 157q8 41 9.5 62.5t-3 34 t-14.5 18.5t-24 16h307q-18 -10 -34.5 -19t-29.5 -26q-18 -20 -33 -77q-10 -41 -17 -85t-17 -85q0 -16 8 -25.5t18 -13.5q6 -4 25 -9q-27 -2 -47.5 -22.5t-24.5 -30.5q-8 -33 -19.5 -79t-22.5 -97t-22.5 -101t-21.5 -93q-2 -18 8.5 -32t22.5 -24q8 -4 15 -8t18 -8h-183 q-6 0 -10 -1t-8 -1q-33 0 -42 12t-3 43q-27 -27 -75 -40t-99 -13q-74 0 -115 23.5t-58.5 65.5t-13 97.5t20.5 118.5l29 139q-2 10 -13.5 29.5t-36.5 21.5q16 4 29 11q12 6 23.5 15t21.5 26q10 51 19.5 98t19.5 94z" />
<glyph unicode="v" horiz-adv-x="694" d="M477 786q-2 0 -12 -4t-23.5 -13t-26 -22.5t-16.5 -31.5l11 -563l266 563q8 37 -11.5 54t-21.5 17h223q-10 -4 -19 -10t-20 -10q-16 -10 -31.5 -24.5t-25.5 -34.5q-25 -53 -46.5 -101.5t-53.5 -113.5q-2 -10 3 -26.5t36 -16.5l-35 -19q-16 -10 -31.5 -21.5t-26.5 -27.5 q-8 -18 -33.5 -70.5t-54 -111t-52 -110.5t-27.5 -73q-8 -41 28 -65h-307q20 10 37.5 26.5t21.5 38.5q6 29 7.5 71t-1 91t-5.5 101.5t-5 101.5q-8 33 -32 49l-25 16q29 2 41 18.5t14 27.5q0 59 -1 111t-1 104q0 20 -7 34.5t-15 24.5l-23 20h301z" />
<glyph unicode="w" horiz-adv-x="999" d="M719 602l6 -457l270 570q8 37 -7 54t-17 17h203q-18 0 -41 -26.5t-48.5 -68.5t-51 -95t-48.5 -107q-2 -10 5 -25t36 -15q-10 -4 -18.5 -8.5t-16.5 -8.5q-14 -8 -29.5 -19.5t-25.5 -27.5q-6 -14 -20.5 -44t-33 -67.5t-38 -79.5t-36.5 -79t-28.5 -64.5t-13.5 -38.5 q-4 -43 31 -61h-310q20 10 38 26.5t22 38.5q4 16 4 40v38l-4 146q-6 -14 -22.5 -47t-33 -69t-31 -67.5t-16.5 -44.5q-4 -45 29 -61h-307q20 10 37.5 26.5t21.5 38.5q4 18 4 70.5t-1 113t-3 113t-2 70.5q-10 33 -33 47l-26 16q29 0 42 15.5t15 25.5q-2 51 -2 105.5t-3 98.5 t-11 70.5t-25 24.5h293q-2 0 -12 -4t-23.5 -13t-26 -22.5t-16.5 -31.5l8 -570l218 457h98z" />
<glyph unicode="x" horiz-adv-x="677" d="M231 707q-4 20 -14 34.5t-20 24.5l-25 20h287q-6 0 -34 -17t-36 -54l68 -213l164 213q8 35 -11.5 53t-23.5 18h227q-10 -4 -19.5 -10t-19.5 -10q-16 -10 -32.5 -24.5t-28.5 -34.5l-230 -297q18 -55 39 -128t43.5 -140.5t47 -121t53.5 -69.5h-273q20 10 34.5 24.5 t18.5 36.5l-77 242l-179 -229q-4 -12 -4 -13q-4 -16 2.5 -27.5t14.5 -19.5t22 -14h-225q27 6 69 49t90 103.5t96 126t87 116.5l-23 66q-10 12 -22 18t-23 10q-16 4 -24 4q20 0 31.5 20.5t13.5 29.5z" />
<glyph unicode="y" horiz-adv-x="679" d="M662 715q4 12 4 14q6 29 -10.5 43t-18.5 14h59h160q-4 0 -29.5 -16t-48.5 -49l-127 -252q4 -8 13.5 -15.5t27.5 -7.5q-14 -2 -26 -12q-10 -6 -24.5 -15t-25.5 -20l-139 -272l-254 -526q-4 -4 -4 -7.5t-2 -7.5q-6 -29 11.5 -43t19.5 -14h-221q4 0 29.5 16.5t47.5 48.5 l179 359q4 12 4 10l-41 416q-4 16 -16.5 28.5t-22.5 20.5l-29 16q27 2 38 14.5t15 22.5q2 4 -2 54l-18 174q-6 39 -25 59l-18 18h270q-6 0 -32.5 -15t-36.5 -54l53 -488l156 312z" />
<glyph unicode="z" horiz-adv-x="540" d="M238 786h497l-41 -18q-16 -10 -33.5 -25.5t-29.5 -35.5q-23 -39 -52.5 -93.5t-70.5 -126.5q-4 -10 3 -24t34 -17q-10 -4 -18.5 -7t-16.5 -7q-37 -20 -59 -45l-24 -41t-54.5 -95t-62 -111.5t-50.5 -92.5h121q20 0 49 2t58.5 8t55 17.5t38.5 31.5l-80 -155h-520 q33 16 51 35.5t45 54.5l190 338q8 31 0 49t-12 18q20 2 43 16.5t33 26.5q33 57 59.5 105.5t54.5 97.5h-86q-20 0 -49.5 -2t-60.5 -8t-56.5 -17.5t-37.5 -31.5z" />
<glyph unicode="&#x2000;" horiz-adv-x="784" />
<glyph unicode="&#x2001;" horiz-adv-x="1569" />
<glyph unicode="&#x2002;" horiz-adv-x="784" />
<glyph unicode="&#x2003;" horiz-adv-x="1569" />
<glyph unicode="&#x2004;" horiz-adv-x="523" />
<glyph unicode="&#x2005;" horiz-adv-x="392" />
<glyph unicode="&#x2006;" horiz-adv-x="261" />
<glyph unicode="&#x2007;" horiz-adv-x="261" />
<glyph unicode="&#x2008;" horiz-adv-x="196" />
<glyph unicode="&#x2009;" horiz-adv-x="313" />
<glyph unicode="&#x200a;" horiz-adv-x="87" />
<glyph unicode="&#x202f;" horiz-adv-x="313" />
<glyph unicode="&#x205f;" horiz-adv-x="392" />
<glyph unicode="&#x25fc;" horiz-adv-x="788" d="M0 788h788v-788h-788v788z" />
</font>
</defs>
</svg>
