<?xml version="1.0" standalone="no"?>
<!DOCTYPE svg PUBLIC "-//W3C//DTD SVG 1.1//EN" "http://www.w3.org/Graphics/SVG/1.1/DTD/svg11.dtd" >
<svg xmlns="http://www.w3.org/2000/svg" xmlns:xlink="http://www.w3.org/1999/xlink" version="1.1">
<metadata>
Created by FontForge 20170731 at Mon Jul  1 21:01:39 2013
 By Aleksey,,,
2013 Iconian Fonts - www.iconian.com
</metadata>
<defs>
<font id="AirstrikeGradient" horiz-adv-x="755" >
  <font-face 
    font-family="Airstrike Gradient"
    font-weight="400"
    font-stretch="normal"
    units-per-em="1000"
    panose-1="0 0 0 0 0 0 0 0 0 0"
    ascent="800"
    descent="-200"
    x-height="530"
    cap-height="530"
    bbox="-155 -142 1324 721"
    underline-thickness="50"
    underline-position="-175"
    unicode-range="U+0020-20AC"
  />
<missing-glyph horiz-adv-x="500" 
 />
    <glyph glyph-name=".notdef" horiz-adv-x="500" 
 />
    <glyph glyph-name=".null" horiz-adv-x="0" 
 />
    <glyph glyph-name="nonmarkingreturn" horiz-adv-x="500" 
 />
    <glyph glyph-name="space" unicode=" " horiz-adv-x="279" 
 />
    <glyph glyph-name="space" unicode="&#xa0;" horiz-adv-x="279" 
 />
    <glyph glyph-name="FL0021h" unicode="!" horiz-adv-x="248" 
d="M103 208h192l14 37h-192zM126 271h192l13 34h-192zM221 67h-152q-2 -4 -2 -9v-11q0 -18 8 -27h108q27 19 38 47zM149 334h192l11 30h-192zM77 83h150q0 2 0.5 5t0.5 6q0 19 -13 32h-94q-29 -18 -44 -43zM172 397h192l10 27h-192zM195 459h192l9 24h-192zM90 171h192l5 15
h-192zM218 522h192l3 8h-192zM158 7h-68q11 -7 32 -7q19 0 36 7z" />
    <glyph glyph-name="FL0022h" unicode="&#x22;" horiz-adv-x="326" 
d="M182 397h107q12 13 18 27h-123q-1 -6 -1.5 -12.5t-0.5 -14.5zM327 397h107q5 7 10 13.5t8 13.5h-123q-1 -6 -1.5 -12.5t-0.5 -14.5zM323 467q2 5 4 16h-121q-5 -8 -8 -16l-3 -8h125zM468 467q2 5 4 16h-121q-5 -8 -8 -16l-3 -8h125zM209 340h8q6 0 17 6.5t23 17.5h-72
q3 -11 8.5 -17.5t15.5 -6.5zM354 340h8q6 0 17 6.5t23 17.5h-72q3 -11 8.5 -17.5t15.5 -6.5zM283 531q-18 0 -36 -9h65q-5 4 -12.5 6.5t-16.5 2.5zM428 531q-18 0 -36 -9h65q-5 4 -12.5 6.5t-16.5 2.5z" />
    <glyph glyph-name="FL0023h" unicode="#" horiz-adv-x="747" 
d="M101 146h617l43 40h-617zM373 102h77l-7 -19h192l7 19h30l25 24h-617l-25 -24h126l-7 -19h192zM815 237h-124l3 8h-192l-3 -8h-77l3 8h-192l-3 -8h-32l-31 -29h617zM170 334h617l32 30h-617zM518 289l-7 -18h192l7 18h30l17 16h-617l-17 -16h126l-7 -18h192l7 18h77z
M883 424h-617l-29 -27h617zM151 20h192l17 47h-192zM420 20h192l17 47h-192zM311 459h192l9 24h-192zM580 459h192l9 24h-192zM529 530h-192l-3 -8h192zM798 530h-192l-3 -8h192zM605 0l2 7h-192l-2 -7h192zM144 0h192l2 7h-192z" />
    <glyph glyph-name="FL0024h" unicode="$" horiz-adv-x="660" 
d="M653 67h-568q-10 -13 -18.5 -25t-15.5 -22h555q27 18 47 47zM683 126h-550q-7 -7 -16 -18t-20 -25h566q6 11 11 21.5t9 21.5zM676 245h-515q6 -26 25 -37h500q-2 9 -4 18.5t-6 18.5zM635 305h-478v-10v-24h506q-5 10 -12.5 18t-15.5 16zM736 424h-557q-4 -7 -7 -13.5
t-6 -13.5h543zM789 483h-566q-5 -6 -10.5 -12t-10.5 -12h567l10 12zM397 0h152q19 0 34 7h-540q-2 -3 -4 -7h232l-16 -42h126zM503 174v-12q0 -11 -2 -16h187q1 5 1.5 11t0.5 11v6q0 8 -1 12h-188q2 -8 2 -12zM233 -105h126l19 53h-126zM157 353v-19h211q-6 3 -9 6
q-2 2 -6 5.5t-4 4.5v5q0 5 1 9h-193v-11zM824 530h-234l4 13h-126l-4 -13h-150q-17 0 -36 -8h541q2 2 2.5 4t2.5 4zM324 146h126l14 40h-126zM393 334h126l10 30h-126zM220 -141h126l10 29h-126zM483 585h126l6 17h-126zM506 648h126l5 14h-126z" />
    <glyph glyph-name="FL0025h" unicode="%" horiz-adv-x="788" 
d="M777 67h-301q7 -31 33 -47h213q33 19 55 47zM809 120l2 6h-114q-1 -2 -3 -4q-8 -14 -24.5 -26t-25.5 -12h-26q-13 0 -23.5 14t-10.5 28h-109v-5q-3 -19 -1 -38h316q11 17 19 37zM520 208h291q-8 22 -31 37h-216q-23 -14 -44 -37zM495 364h-125q-20 -15 -30 -15h-26
q-14 0 -24 15h-121q0 -17 3 -30h303q11 13 20 30zM109 20h171l57 47h-171zM185 83h172l52 43h-172zM446 305h-262q9 -14 23 -21.5t32 -12.5h145q34 9 62 34zM204 459h307q-2 7 -3.5 13t-4.5 11h-277q-6 -6 -11.5 -12t-10.5 -12zM261 146h172l49 40h-172zM336 208h172l45 37
h-172zM413 271h172l41 34h-172zM489 334h172l36 30h-172zM816 186h-140q16 -2 21 -11t5 -22v-7h113q4 21 1 40zM565 397h172l33 27h-172zM481 146h109l1 2q8 14 21.5 25t25.5 13h-136q-13 -18 -21 -40zM640 459h173l29 24h-173zM511 408q1 4 1 8t1 8h-114v-6q0 -13 -1 -15
l-3 -6h114q2 8 2 11zM281 397l6 16q2 2 3.5 5t3.5 6h-112q-4 -10 -5 -14q-2 -5 -4 -13h108zM716 522h173l10 8h-173zM85 0h171l8 7h-171zM286 522h166q-29 8 -60 8h-66q-19 0 -40 -8zM692 7h-153q25 -7 62 -7h50q21 0 41 7z" />
    <glyph glyph-name="FL0026h" unicode="&#x26;" horiz-adv-x="800" 
d="M61 61q0 -29 19 -41h541q34 16 55 47h-615v-6zM63 83h622q5 9 10.5 20t10.5 23h-632q-8 -26 -11 -43zM113 208h658l39 37h-462l-33 -29l10 29h-168q-10 -7 -21.5 -15.5t-22.5 -21.5zM378 271h460l36 34h-456zM678 424h-494q-4 -10 -5 -15l-5 -12h478q7 7 13 13.5t13 13.5
zM727 483h-503q-12 -12 -21 -24h505q5 6 9.5 12t9.5 12zM81 146h221q-2 3 -4 6.5t-4 5.5l9 28h-204q-5 -11 -10 -21.5t-8 -18.5zM726 186h-203q-2 -6 -4 -11t-3 -7l-2 -5q-1 -1 -2.5 -3l-1.5 -2q-3 -2 -8 -5.5t-10 -6.5h221q4 9 7.5 19t5.5 21zM161 271h174l12 34h-193
q0 -21 7 -34zM155 334h202l11 30h-207zM761 530h-366q-26 0 -47 -2t-38 -6h445q2 2 6 8zM202 0h284q58 0 93 7h-465q29 -7 88 -7z" />
    <glyph glyph-name="FL0027h" unicode="'" horiz-adv-x="181" 
d="M182 397h107q12 13 18 27h-123q-1 -6 -1.5 -12.5t-0.5 -14.5zM323 467q2 5 4 16h-121q-5 -8 -8 -16l-3 -8h125zM209 340h8q6 0 17 6.5t23 17.5h-72q3 -11 8.5 -17.5t15.5 -6.5zM283 531q-18 0 -36 -9h65q-5 4 -12.5 6.5t-16.5 2.5z" />
    <glyph glyph-name="FL0028h" unicode="(" horiz-adv-x="410" 
d="M363 126h-232q8 -25 19 -43h256v2q-6 7 -17.5 17t-25.5 24zM404 67h-243q21 -28 49 -47h178q5 13 9.5 25t6.5 22zM314 186h-194q1 -11 2 -21t3 -19h218q-8 9 -16 19t-13 21zM119 208h186q-1 4 -1 12v1q0 7 6 24h-188q-3 -20 -3 -37zM129 271h190q0 2 1 3l8 24q1 2 1 3
q0 2 1 4h-190q-4 -9 -6.5 -17.5t-4.5 -16.5zM236 459h261q6 6 11.5 12t11.5 12h-260zM188 397h204q10 8 20.5 13.5t21.5 5.5h17q3 2 9 8h-253q-5 -7 -9.5 -13.5t-9.5 -13.5zM152 334h192q7 15 18 30h-195zM311 522h241q5 5 8.5 10.5t8.5 10.5h-212q-23 -7 -46 -21zM382 7
h-152q36 -21 72 -30t59 -14q5 11 10.5 22t10.5 22z" />
    <glyph glyph-name="FL0029h" unicode=")" horiz-adv-x="409" 
d="M371 67h-261q-11 -11 -21.5 -23t-21.5 -24h257l24 22t23 25zM307 7h-251q-8 -11 -17 -21.5t-17 -22.5h170q29 0 58.5 12t56.5 32zM414 126h-202q-12 -13 -25 -20.5t-25 -7.5h-17l-18 -15h257q8 11 15.5 21.5t14.5 21.5zM446 186h-191q-11 -22 -26 -40h197q5 10 10 19.5
t10 20.5zM468 245h-190q-2 -4 -4 -12l-6 -17q-2 -6 -3 -8h190q4 9 7 18.5t6 18.5zM229 397h233q-2 7 -5.5 13.5t-6.5 13.5h-257q16 -11 36 -27zM477 305h-186q0 -3 0.5 -6t0.5 -5q-1 -3 -2.5 -9l-3.5 -14h187q2 9 3 17.5t1 16.5zM280 334h196q-1 8 -1.5 15t-2.5 15h-212
q13 -17 20 -30zM195 459h230q-6 7 -12 12.5t-13 11.5h-196q-3 -7 -5 -13t-4 -11zM221 522h114q-16 7 -31.5 12t-29.5 9h-43q-2 -5 -5 -10.5t-5 -10.5z" />
    <glyph glyph-name="FL0419h" unicode="*" horiz-adv-x="246" 
d="M216 522h192v21h-178zM201 459h169l-16 24h-118zM380 595h-87l-3 -10h85zM289 398l42 26h-46zM240 398l22 26h-44z" />
    <glyph glyph-name="FL002Bh" unicode="+" horiz-adv-x="461" 
d="M103 208h331l39 37h-331zM169 271h331l36 34h-331zM219 146h135l14 40h-135zM287 334h135l11 30h-135zM202 98h135l10 28h-135zM310 397h135l10 27h-135z" />
    <glyph glyph-name="FL002Ch" unicode="," horiz-adv-x="208" 
d="M38 28q-1 -2 -1 -8h149q2 2 4 8l14 39h-152zM41 -42h92q27 24 46 49h-142v-8q0 -10 1 -20.5t3 -20.5zM210 94q0 19 -13 32h-94q-29 -18 -44 -43h149q2 8 2 11zM72 -72h9q7 0 17 5.5t22 14.5h-75q8 -20 27 -20z" />
    <glyph glyph-name="FL002Dh" unicode="-" horiz-adv-x="361" 
d="M103 208h231l39 37h-231zM169 271h231l36 34h-231z" />
    <glyph glyph-name="FL002Eh" unicode="." horiz-adv-x="208" 
d="M203 67h-152q-2 -4 -2 -9v-11q0 -18 8 -27h108q27 19 38 47zM59 83h150q0 2 0.5 5t0.5 6q0 19 -13 32h-94q-29 -18 -44 -43zM140 7h-68q11 -7 32 -7q19 0 36 7z" />
    <glyph glyph-name="FL002Fh" unicode="/" horiz-adv-x="657" 
d="M40 20h213l54 47h-214zM111 83h214l49 43h-214zM182 146h214l46 40h-214zM253 208h214l42 37h-214zM324 271h214l39 34h-214zM396 334h214l34 30h-214zM467 397h214l31 27h-214zM537 459h214l27 24h-214zM832 530h-214l-9 -8h214zM231 0l8 7h-213l-8 -7h213z" />
    <glyph glyph-name="FL0030h" unicode="0" horiz-adv-x="721" 
d="M715 126h-594q4 -12 8.5 -23t11.5 -20h530q12 10 23 20.5t21 22.5zM651 67h-498q29 -32 73 -47h342q45 16 83 47zM190 397h605q-3 13 -9 27h-572zM252 459h511q-5 7 -11.5 13t-13.5 11h-454l-16 -12zM759 186h-208q-14 -13 -29 -23t-29 -17h239q16 21 27 40zM116 146h240
q-22 14 -36 40h-207q0 -22 3 -40zM786 245h-189q-2 -3 -3.5 -6.5t-3.5 -6.5l-8 -12t-9 -12h198q9 19 15 37zM113 208h197q-6 18 -6 36v1h-187v-2q-2 -10 -3 -18.5t-1 -16.5zM797 287q1 5 1.5 9t0.5 9h-190q0 -8 -0.5 -16t-1.5 -16l-1 -2h188q1 4 1.5 7.5t1.5 8.5zM123 271
h185q2 10 11 27q2 4 4 7h-188q-8 -19 -12 -34zM149 334h195q15 16 33 30h-211q-5 -8 -9 -15t-8 -15zM801 364h-205q8 -11 11 -30h195v8q0 5 -0.5 11t-0.5 11zM368 522h276q-20 4 -42 6t-45 2h-132q-27 0 -57 -8zM528 7h-252q41 -7 93 -7h100q31 0 59 7z" />
    <glyph glyph-name="FL0031h" unicode="1" horiz-adv-x="325" 
d="M112 20h192l17 47h-192zM135 83h192l15 43h-192zM158 146h192l14 40h-192zM167 397h274l10 27h-265q-16 -20 -19 -27zM180 208h192l14 37h-192zM203 271h192l13 34h-192zM214 459h250l9 24h-238zM226 334h192l11 30h-192zM274 522h213l3 8h-205q-3 -2 -5.5 -4t-5.5 -4z
M297 0l2 7h-192l-2 -7h192z" />
    <glyph glyph-name="FL0032h" unicode="2" horiz-adv-x="661" 
d="M68 20h518q19 21 41 47h-571v-3q0 -28 12 -44zM57 83h584q11 14 20 25.5t14 17.5h-606q-9 -23 -12 -43zM643 245h-476q-11 -9 -21.5 -18.5t-19.5 -18.5h447q17 7 35 16.5t35 20.5zM790 424h-596q-6 -8 -10.5 -14.5t-9.5 -12.5h609q2 7 4 13.5t3 13.5zM718 305h-460
q-27 -14 -57 -34h478q23 18 39 34zM789 483h-544q-6 -6 -11.5 -12t-10.5 -12h570q-1 6 -1.5 12t-2.5 12zM284 174q6 8 10 12h-188q-8 -8 -12 -15q-5 -6 -8.5 -12.5t-6.5 -12.5h189zM760 352q2 3 3.5 6t3.5 6h-191q-1 -4 -6 -9l-4 -5q0 -1 -6 -4.5t-10 -5.5q-2 -2 -5.5 -3
t-6.5 -3h207q9 9 15 18zM733 530h-442l-8 -8h480q-13 8 -30 8zM112 0h455l7 7h-492q11 -7 30 -7z" />
    <glyph glyph-name="FL0033h" unicode="3" horiz-adv-x="671" 
d="M659 67h-585q-8 -11 -16.5 -23t-16.5 -24h563q34 16 55 47zM689 126h-568q-10 -11 -18.5 -21.5t-17.5 -21.5h583q5 9 10.5 20t10.5 23zM694 245h-402l-42 -37h461q-1 13 -6.5 21.5t-10.5 15.5zM177 397h585q-1 6 -1.5 12.5t-2.5 14.5h-563zM738 305h-377l-39 -34h387
q16 13 29 34zM219 459h528l-6 12t-7 12h-498q-5 -6 -9 -12zM475 146h221q8 18 13 40h-207q0 -14 -3 -18l-2 -5q-1 -1 -2.5 -3l-1.5 -2q-3 -2 -8 -5.5t-10 -6.5zM552 334h201q6 15 9 30h-191l-1 -2q-2 -4 -7.5 -12.5t-10.5 -15.5zM562 7h-529q-2 -2 -3 -3.5t-2 -3.5h441
q58 0 93 7zM269 522h426q-16 8 -33 8h-385l-4 -4z" />
    <glyph glyph-name="FL0034h" unicode="4" horiz-adv-x="654" 
d="M541 294l-9 -23h192l13 34h-598l-13 -34h392zM103 208h353l36 37h-375zM441 20h192l17 47h-192zM464 83h192l15 43h-192zM487 146h192l14 40h-192zM509 208h192l14 37h-192zM555 334h192l11 30h-192zM149 334h190l11 30h-190zM578 397h192l10 27h-192zM172 397h190l10 27
h-190zM601 459h192l9 24h-192zM195 459h190l9 24h-190zM819 530h-192l-3 -8h192zM411 530h-190l-3 -8h190zM626 0l2 7h-192l-2 -7h192z" />
    <glyph glyph-name="FL0035h" unicode="5" horiz-adv-x="654" 
d="M646 67h-568q-10 -13 -18.5 -25t-15.5 -22h555q27 18 47 47zM676 126h-550q-7 -7 -16 -18t-20 -25h566q6 11 11 21.5t9 21.5zM236 208h442q-3 9 -6 18.5t-8 18.5h-475q21 -22 47 -37zM169 271h479q-14 21 -32 34h-462q4 -17 15 -34zM730 424h-553l-10 -27h535
q7 7 14 13.5t14 13.5zM782 483h-583l-9 -24h572l10 12zM486 146h195q1 5 1.5 11t0.5 11v4q0 3 -0.5 6.5t-0.5 7.5h-188q2 -8 2 -12q0 -13 -10 -28zM149 334h210q-6 4 -7 6q-2 2 -6 5.5t-4 4.5v5l3 9h-190l-4 -11q-1 -5 -1.5 -9.5t-0.5 -9.5zM213 522h599q2 2 2.5 4t2.5 4
h-601zM576 7h-540q-2 -3 -4 -7h510q19 0 34 7z" />
    <glyph glyph-name="FL0036h" unicode="6" horiz-adv-x="636" 
d="M129 208h558q3 18 3 33v4h-563v-2v-18t2 -17zM648 126h-494q15 -26 33 -43h428q9 10 17 21zM128 271h558q-6 19 -21 34h-530q-2 -9 -3.5 -17.5t-3.5 -16.5zM600 67h-395q20 -17 44 -28t51 -19h236q17 8 33 20.5t31 26.5zM176 397h504l30 27h-515q-5 -7 -9.5 -13.5
t-9.5 -13.5zM227 459h516l21 24h-508q-8 -6 -15 -12zM144 146h234q-16 13 -32 40h-214q4 -22 12 -40zM680 186h-195q2 -8 4 -12l-19 -28h191q5 10 10 19.5t9 20.5zM144 334h194q5 8 10.5 15.5t11.5 14.5h-203q-4 -8 -7 -15t-6 -15zM333 522h462q2 2 6 8h-413q-26 0 -55 -8z
M503 7h-143q24 -4 48.5 -5.5t49.5 -1.5q24 0 45 7z" />
    <glyph glyph-name="FL0037h" unicode="7" horiz-adv-x="611" 
d="M167 397h487l27 27h-495q-16 -20 -19 -27zM214 459h501l24 24h-504zM75 20h203l47 47h-205zM135 83h206l43 43h-207zM196 146h208l40 40h-209zM256 208h210l37 37h-212zM316 271h213l33 34h-213zM377 334h214l30 30h-215zM274 522h504l8 8h-501q-3 -2 -5.5 -4t-5.5 -4z
M56 0h202l7 7h-203z" />
    <glyph glyph-name="FL0038h" unicode="8" horiz-adv-x="702" 
d="M690 67h-629v-6q0 -29 19 -41h555q34 16 55 47zM720 126h-646q-4 -12 -6.5 -22.5t-4.5 -20.5h636q5 9 10.5 20t10.5 23zM725 245h-377l-33 -29l10 29h-168q-10 -7 -21.5 -15.5t-22.5 -21.5h629q-1 13 -6.5 21.5t-10.5 15.5zM174 397h620q-1 6 -1 13t-2 14h-607
q-4 -10 -5 -15zM203 459h577q-5 12 -12 24h-544q-12 -12 -21 -24zM769 305h-351l-40 -34h362q16 13 29 34zM81 146h221q-2 3 -4 6.5t-4 5.5l1 3q0 1 0.5 1.5t0.5 1.5l-1 2l7 20h-203q-5 -11 -10 -21.5t-8 -18.5zM740 186h-203q-2 -6 -4 -11t-3 -7l-2 -5q-1 -1 -2.5 -3
l-1.5 -2q-3 -2 -8 -5.5t-10 -6.5h221l2 5q6 15 11 35zM161 271h174l12 34h-193q0 -21 7 -34zM155 334h202l11 30h-207zM792 364h-191v-2q-2 -5 -8 -14.5t-10 -13.5h200q1 1 1 2t1 3q2 7 4 13t3 12zM310 522h417q-16 8 -34 8h-298q-26 0 -47 -2t-38 -6zM593 7h-479
q29 -7 88 -7h298q58 0 93 7z" />
    <glyph glyph-name="FL0039h" unicode="9" horiz-adv-x="636" 
d="M596 67h-514q-10 -11 -19.5 -23t-19.5 -24h483q19 8 36.5 20.5t33.5 26.5zM646 126h-506q-11 -11 -22 -21.5t-22 -21.5h515q10 10 18.5 20.5t16.5 22.5zM697 245h-549q13 -25 45 -37h495q6 18 9 37zM701 305h-562v-16q0 -13 1 -18h560q1 4 1 13v3v18zM176 397h514
q-3 13 -9 27h-486q-5 -7 -9.5 -13.5t-9.5 -13.5zM225 459h435q-11 14 -25 24h-383zM679 186h-195q-18 -27 -39 -40h214q6 10 11 19.5t9 20.5zM697 364h-229q5 -7 10 -14.5t10 -15.5h211q0 8 -0.5 15t-1.5 15zM145 335q0 -1 -1 -1v0h206q-5 5 -6.5 10.5t-3.5 11.5l5 8h-188
q-7 -14 -12 -29zM491 7h-458q-3 -3 -5 -7h413q26 0 50 7zM323 522h199q-29 4 -65 6t-78 2h-8q-24 0 -48 -8z" />
    <glyph glyph-name="FL003Ah" unicode=":" horiz-adv-x="209" 
d="M204 67h-152q-2 -4 -2 -9v-11q0 -18 8 -27h108q27 19 38 47zM60 83h150q0 2 0.5 5t0.5 6q0 19 -13 32h-94q-29 -18 -44 -43zM149 334h152q4 9 4 21q0 2 -0.5 4.5t-0.5 4.5h-135q-13 -15 -20 -30zM285 305h-141q2 -24 18 -34h81q5 2 9 4.5t8 5.5q14 10 25 24zM141 7h-68
q11 -7 32 -7q19 0 36 7zM219 397h58q-12 5 -27 5q-14 0 -31 -5z" />
    <glyph glyph-name="FL003Bh" unicode=";" horiz-adv-x="209" 
d="M38 28q-1 -2 -1 -8h149q2 2 4 8l14 39h-152zM41 -42h92q27 24 46 49h-142v-8q0 -10 1 -20.5t3 -20.5zM210 94q0 19 -13 32h-94q-29 -18 -44 -43h149q2 8 2 11zM305 355q0 2 -0.5 4.5t-0.5 4.5h-135q-13 -15 -20 -30h152q2 6 3 11t1 10zM162 271h79q26 11 43 32l0.5 0.5
t0.5 1.5h-141q2 -24 18 -34zM72 -72h9q7 0 17 5.5t22 14.5h-75q8 -20 27 -20zM250 402q-14 0 -31 -5h58q-12 5 -27 5z" />
    <glyph glyph-name="FL003Ch" unicode="&#x3c;" horiz-adv-x="454" 
d="M215 20h213l-19 47h-214zM189 83h213l-17 43h-214zM163 146h214l-16 40h-214zM138 208h214l-15 37h-214zM120 271h214l39 34h-214zM192 334h214l34 30h-214zM263 397h214l31 27h-214zM333 459h214l27 24h-214zM405 522h214l9 8h-214zM223 0h213l-3 7h-213z" />
    <glyph glyph-name="FL003Dh" unicode="=" horiz-adv-x="432" 
d="M102 146h302l43 40h-302zM171 334h302l32 30h-302zM168 208h302l31 29h-302zM238 397h302l29 27h-302zM358 102l25 24h-302l-25 -24h302zM426 289l17 16h-302l-17 -16h302z" />
    <glyph glyph-name="FL003Eh" unicode="&#x3e;" horiz-adv-x="454" 
d="M40 20h214l53 47h-214zM111 83h214l49 43h-214zM183 146h214l45 40h-214zM253 208h214l42 37h-214zM317 271h214l-14 34h-214zM291 334h214l-12 30h-214zM265 397h214l-11 27h-214zM240 459h214l-9 24h-214zM212 530l3 -8h214l-3 8h-214zM231 0l8 7h-213l-8 -7h213z" />
    <glyph glyph-name="FL003Fh" unicode="?" horiz-adv-x="654" 
d="M167 397h609q2 7 4 13.5t3 13.5h-596q-6 -8 -10.5 -14.5t-9.5 -12.5zM171 208h395q17 7 35 16.5t35 20.5h-424q-11 -9 -21.5 -18.5t-19.5 -18.5zM246 271h426q23 18 39 34h-409q-29 -15 -56 -34zM216 459h570q-1 6 -1 12t-2 12h-545q-6 -6 -11.5 -12t-10.5 -12zM242 67
h-152q-2 -4 -2 -9v-11q0 -18 8 -27h108q27 19 38 47zM531 334h207q9 9 15 18l4 6l4 6h-192q-1 -4 -6 -9l-4 -5q0 -1 -6 -4.5t-10 -5.5q-2 -2 -5.5 -3t-6.5 -3zM98 83h150q0 2 0.5 5t0.5 6q0 19 -13 32h-94q-29 -18 -44 -43zM276 522h481q-13 8 -31 8h-442zM139 170h155v1
q1 2 5.5 6t13.5 9h-162q-3 -5 -6.5 -8.5t-5.5 -7.5zM179 7h-68q11 -7 32 -7q19 0 36 7z" />
    <glyph glyph-name="FL0040h" unicode="@" horiz-adv-x="751" 
d="M377 208h399q20 16 32 37h-438q0 -22 7 -37zM209 20h258q7 17 11 28.5t6 18.5h-324q21 -28 49 -47zM830 424h-624q-5 -7 -9.5 -13.5t-9.5 -13.5h204q11 8 21 13.5t21 5.5h128q33 -6 53 -19h221q-1 7 -2 13.5t-3 13.5zM797 483h-538l-24 -24h580q-8 13 -18 24zM149 83h262
q-4 0 -6 2q-6 7 -17.5 17t-25.5 24h-232q8 -25 19 -43zM124 146h218q-8 9 -16 19t-13 21h-194q1 -11 2 -21t3 -19zM659 543h-306q-23 -8 -43 -21h430q-20 8 -40.5 13t-40.5 8zM360 -37h87q5 13 8.5 24t6.5 20h-233q36 -21 72 -30t59 -14zM118 208h186q-1 4 -1 12v1q0 6 6 24
h-188q-3 -20 -3 -37zM824 278q2 7 3.5 13.5t3.5 13.5h-185q-1 -3 -3 -7q-8 -19 -27 -27h205q2 4 3 7zM127 271h191l9 27q1 2 1 3q0 2 1 4h-190q-2 -4 -2 -6q-3 -8 -5.5 -14.5t-4.5 -13.5zM151 334h192q5 8 9.5 15t9.5 15h-195q-5 -8 -8.5 -15zM838 360v3v1h-195q7 -16 7 -30
h186q1 6 1.5 12.5t0.5 13.5zM371 275q-1 -1 -1 -4h79q5 9 13 15.5t18 6.5q16 0 16 -14q0 1 -0.5 -1t-1.5 -7h65q0 1 2 3q5 22 5 29v2h-178q-13 -16 -17 -30zM441 168h170q38 0 69 3.5t57 14.5h-343q8 -7 19.5 -11.5t27.5 -6.5zM521 364h-37q-33 -7 -65 -30h140
q-13 24 -38 30z" />
    <glyph glyph-name="FL0041h" unicode="A" 
d="M538 113l5 -30h181l-7 43h-604l-34 -43h439q16 21 20 30zM506 67h-439l-37 -47h436q10 10 20 22t20 25zM325 397h351l-4 27h-326zM555 20h179l-8 47h-180zM128 146h208l30 40h-206zM177 208h206l27 37h-204zM536 146h178l-6 40h-178zM226 271h204l25 34h-202zM373 459
h290q-2 6 -3.5 12t-3.5 12h-265q-7 -7 -9 -13zM527 208h177l-5 37h-178zM517 271h178l-5 34h-178zM275 334h202l22 30h-200zM508 334h177l-4 30h-178zM453 7h-431q0 3 -2 -7h423q2 1 4.5 2.5t5.5 4.5zM433 522h203q-8 8 -16 8h-168q-8 0 -19 -8zM737 0l-1 7h-178l1 -7h178z
" />
    <glyph glyph-name="FL0042h" unicode="B" horiz-adv-x="689" 
d="M674 67h-622l-17 -47h580q19 8 33 19.5t26 27.5zM707 126h-634l-15 -43h627q5 9 11 20t11 23zM308 242l1 3h-192l-14 -37h624q-5 23 -16 37h-400zM778 424h-596l-10 -27h609zM761 483h-557l-9 -24h576q-2 6 -4.5 12t-5.5 12zM750 305h-371l-39 -34h376q9 7 17.5 15
t16.5 19zM727 186h-203q0 -5 -2 -7l-2 -5q-1 -1 -5 -8.5l-4 -7.5q-3 -2 -8 -5.5t-10 -6.5h221q4 9 7.5 19t5.5 21zM81 146h192l15 40h-193zM126 271h192l13 34h-192zM779 364h-190l-1 -2q-2 -4 -7.5 -12.5t-10.5 -15.5h198q8 14 11 30zM149 334h192l11 30h-192zM221 530
l-3 -8h503q-19 8 -41 8h-459zM573 7h-543l-2 -7h459q52 0 86 7z" />
    <glyph glyph-name="FL0043h" unicode="C" horiz-adv-x="631" 
d="M651 126h-497q15 -26 33 -43h432q8 11 16 21.5t16 21.5zM606 67h-401q20 -17 44 -28t51 -19h261q24 21 45 47zM176 397h504l30 27h-515q-5 -7 -9.5 -13.5t-9.5 -13.5zM227 459h516l21 24h-508q-8 -6 -15 -12zM341 186h-209q4 -22 12 -40h239q-11 7 -22 17.5t-20 22.5z
M127 243v-18t2 -17h198q-5 9 -8 18.5t-5 18.5h-187v-2zM128 271h186q1 6 3 12.5t4 14.5q1 2 1 3q0 2 1 4h-188q-2 -9 -3.5 -17.5t-3.5 -16.5zM144 334h195q9 15 23 30h-205q-4 -8 -7 -15t-6 -15zM333 522h462q2 2 6 8h-413q-26 0 -55 -8zM546 7h-186q24 -4 48.5 -5.5
t49.5 -1.5h80q3 2 8 7z" />
    <glyph glyph-name="FL0044h" unicode="D" horiz-adv-x="658" 
d="M620 126h-547l-15 -43h514q13 9 25 20t23 23zM549 67h-497l-17 -47h408q60 17 106 47zM770 413q0 2 -0.5 5t-0.5 6h-587l-10 -27h597q1 4 1 8v8zM753 483h-549l-9 -24h569q-2 6 -4.5 12t-6.5 12zM671 186h-231q-41 -26 -85 -40h284q8 9 16 19t16 21zM81 146h194l14 40
h-194zM709 241q2 2 3 4h-202q-8 -10 -18 -19t-21 -18h216q5 8 10.5 16t11.5 17zM103 208h194l14 37h-194zM746 305h-200l-3 -9q-6 -14 -15 -25h200q11 17 18 34zM126 271h194l13 34h-194zM764 364h-203q1 -3 1 -9q0 -5 -1 -10.5t-3 -10.5h199q2 8 3.5 15t3.5 15zM149 334
h194l11 30h-194zM656 530h-435l-3 -8h488q-22 8 -50 8zM277 0q28 0 54 1.5t50 5.5h-351l-2 -7h249z" />
    <glyph glyph-name="FL0045h" unicode="E" horiz-adv-x="625" 
d="M602 67h-550l-17 -47h520q11 10 23.5 22t23.5 25zM646 126h-573l-15 -43h559q2 2 4 5t4 5t9 13t12 20zM103 208h400l39 37h-229l-7 -7l2 7h-191zM710 424h-528l-10 -27h506q6 3 14 10t18 17zM760 483h-556l-9 -24h546q5 6 9.5 12t9.5 12zM340 271h229l36 34h-230zM81 146
h191l14 40h-191zM126 271h192l12 34h-191zM149 334h192l11 30h-192zM221 530l-3 -8h569l2 4l2 4h-570zM540 7h-510l-2 -7h503l2.5 1.5t6.5 5.5z" />
    <glyph glyph-name="FL0046h" unicode="F" horiz-adv-x="621" 
d="M103 208h400l39 37h-229l-7 -7l2 7h-191zM710 424h-528l-10 -27h506q6 3 14 10t18 17zM760 483h-556l-9 -24h546q5 6 9.5 12t9.5 12zM35 20h191l17 47h-191zM58 83h191l15 43h-191zM340 271h229l36 34h-230zM81 146h191l14 40h-191zM126 271h192l12 34h-191zM149 334h192
l11 30h-192zM221 530l-3 -8h569l2 4l2 4h-570zM219 0l2 7h-191l-2 -7h191z" />
    <glyph glyph-name="FL0047h" unicode="G" horiz-adv-x="640" 
d="M187 83h451l17 43h-501q15 -26 33 -43zM300 20h314l18 47h-427q20 -17 44 -28t51 -19zM710 424h-514q-5 -7 -10 -13.5t-10 -13.5h504zM764 483h-508q-8 -6 -14.5 -12t-13.5 -12h515zM390 208h296l14 37h-283q-9 -12 -16 -21.5t-11 -15.5zM437 271h273l12 34h-256
q-8 -8 -15 -16.5t-14 -17.5zM340 186h-208q4 -22 12 -40h238q-11 7 -22 17.5t-20 22.5zM481 146h181l15 40h-182zM314 245h-187v-2v-18t2 -17h197q-9 17 -12 37zM321 298q1 2 1 3q0 2 1 4h-188q-5 -18 -6 -34h185q1 6 3 12.5t4 14.5zM359 364h-201l-7.5 -15t-6.5 -15h194
q5 8 10 15.5t11 14.5zM801 530h-413q-26 0 -55 -8h462q2 2 6 8zM458 0h149l2 7h-249q24 -4 48.5 -5.5t49.5 -1.5z" />
    <glyph glyph-name="FL0048h" unicode="H" horiz-adv-x="654" 
d="M103 208h598l14 37h-391l-24 -25l9 25h-192zM349 271h375l13 34h-355zM35 20h192l17 47h-192zM443 20h190l17 47h-190zM58 83h192l15 43h-192zM466 83h190l15 43h-190zM81 146h192l14 40h-192zM489 146h190l14 40h-190zM126 271h192l13 34h-192zM149 334h192l11 30h-192z
M557 334h190l11 30h-190zM172 397h192l10 27h-192zM580 397h190l10 27h-190zM195 459h192l9 24h-192zM603 459h190l9 24h-190zM218 522h192l3 8h-192zM626 522h190l3 8h-190zM28 0h192l2 7h-192zM626 0l2 7h-190l-2 -7h190z" />
    <glyph glyph-name="FL0049h" unicode="I" horiz-adv-x="616" 
d="M35 20h517q10 9 20.5 21t21.5 26h-521q-11 -14 -20.5 -26t-17.5 -21zM86 83h521q9 12 17 23t13 20h-508q-10 -8 -21 -19.5t-22 -23.5zM167 397h506q6 3 14 10t18 17h-519q-16 -20 -19 -27zM214 459h522q5 6 9.5 12t9.5 12h-520zM265 146h192l14 40h-192zM287 208h192
l14 37h-192zM310 271h192l13 34h-192zM333 334h192l11 30h-192zM274 522h508l2 4l2 4h-501q-3 -2 -5.5 -4t-5.5 -4zM23 0h499q7 0 15 7h-511q-3 -5 -3 -6v-1z" />
    <glyph glyph-name="FL004Ah" unicode="J" horiz-adv-x="573" 
d="M35 20h438q37 16 67 47h-474q-8 -12 -15.5 -23.5t-15.5 -23.5zM78 83h476q14 18 28 43h-467q-11 -11 -20 -21.5t-17 -21.5zM364 146h228q5 9 9.5 19t9.5 21h-201q-10 -12 -21.5 -22.5t-24.5 -17.5zM425 208h195q3 9 6.5 18t7.5 19h-190l-4 -12q-5 -10 -15 -25zM454 271
h189l12 34h-189zM477 334h189l11 30h-189zM500 397h189l10 27h-190zM522 459h190l9 24h-190zM23 0h336q20 0 37.5 1.5t33.5 5.5h-403q-2 -3 -4 -7zM545 522h190l3 8h-190z" />
    <glyph glyph-name="FL004Bh" unicode="K" horiz-adv-x="698" 
d="M307 238l24 -30h235l-27 37h-422l-14 -37h193zM126 271h407l44 34h-233l-18 -13l5 13h-192zM486 20h216l-34 47h-221zM434 83h223l-31 43h-227zM382 146h229l-29 40h-233zM35 20h192l17 47h-192zM58 83h192l16 43h-193zM81 146h192l15 40h-193zM384 334h231l39 30h-228z
M472 397h225l35 27h-223zM149 334h192l11 30h-192zM558 459h220l31 24h-218zM172 397h192l10 27h-192zM195 459h192l9 24h-192zM646 522h214l11 8h-214zM218 522h192l3 8h-192zM712 7h-215l6 -7h214zM28 0h192l2 7h-192z" />
    <glyph glyph-name="FL004Ch" unicode="L" horiz-adv-x="560" 
d="M532 67h-480l-17 -47h454q11 11 21.5 22.5t21.5 24.5zM579 126h-506l-15 -43h487q11 14 20 25t14 18zM81 146h191l14 40h-191zM103 208h191l14 37h-191zM126 271h191l13 34h-191zM149 334h191l11 30h-191zM172 397h191l10 27h-191zM195 459h191l9 24h-191zM28 0h439
q2 2 4 3.5t4 3.5h-445zM412 530h-191l-3 -8h191z" />
    <glyph glyph-name="FL004Dh" unicode="M" horiz-adv-x="836" 
d="M328 298l5 -27h179l-6 34h-367l-13 -34h192zM714 271h192l13 34h-367l-32 -34h179l25 27zM345 208h297l33 37h-337zM578 334h351l11 30h-334zM149 334h351l-6 30h-334zM356 146h229l37 40h-273zM35 20h192l17 47h-192zM623 20h192l17 47h-192zM636 397h316l10 27h-301z
M172 397h316l-5 27h-301zM58 83h192l15 43h-192zM646 83h192l15 43h-192zM368 83h160l39 43h-207zM669 146h192l14 40h-192zM81 146h192l14 40h-192zM691 208h192l14 37h-192zM103 208h192l14 37h-192zM693 459h282l9 24h-269zM195 459h281l-4 24h-268zM379 20h91l43 47
h-142zM751 522h247l3 8h-242zM218 522h246l-1 8h-242zM808 0l2 7h-192l-2 -7h192zM220 0l2 7h-192l-2 -7h192zM452 0l6 7h-76l1 -7h69z" />
    <glyph glyph-name="FL004Eh" unicode="N" horiz-adv-x="654" 
d="M517 245h-179l7 -37h356l14 37h-190l-5 -13zM356 146h323l14 40h-344zM368 83h288l15 43h-311zM328 298l5 -27h179l-6 34h-367l-13 -34h192zM380 20h253l17 47h-279zM149 334h351l-6 30h-334zM35 20h192l17 47h-192zM172 397h316l-5 27h-301zM58 83h192l15 43h-192z
M81 146h192l14 40h-192zM103 208h192l14 37h-192zM195 459h281l-4 24h-268zM534 271h190l13 34h-190zM557 334h190l11 30h-190zM580 397h190l10 27h-190zM603 459h190l9 24h-190zM218 522h246l-1 8h-242zM626 0l2 7h-245l1 -7h242zM626 522h190l3 8h-190zM28 0h192l2 7h-192
z" />
    <glyph glyph-name="FL004Fh" unicode="O" horiz-adv-x="721" 
d="M723 126h-602q4 -12 8.5 -23t11.5 -20h540q24 21 42 43zM661 67h-508q29 -32 73 -47h350q46 17 85 47zM184 397h614q-2 7 -3.5 13.5t-3.5 13.5h-584q-6 -7 -12 -13.5t-11 -13.5zM245 459h526q-11 13 -24 24h-469q-9 -6 -17 -12zM763 186h-212q-14 -13 -30 -23t-30 -17
h247q12 18 25 40zM116 146h240q-22 14 -36 40h-207q0 -22 3 -40zM787 245h-190q-2 -3 -3.5 -6.5t-3.5 -6.5q-5 -11 -17 -24h201q4 9 7 18t6 19zM113 208h197q-6 18 -6 36v1h-187v-2q-2 -10 -3 -18.5t-1 -16.5zM797 287l3 18h-191q0 -8 -0.5 -16t-1.5 -16l-1 -2h188
q1 4 1.5 7.5t1.5 8.5zM122 271h186q2 10 11 27q2 4 4 7h-190q-7 -19 -11 -34zM145 334h199q15 16 33 30h-215q-5 -8 -9 -15t-8 -15zM803 364h-207q8 -11 11 -30h195q1 5 1 8v9v13zM365 522h289q-22 4 -46 6t-51 2h-132q-28 0 -60 -8zM532 7h-256q41 -7 93 -7h100q34 0 63 7z
" />
    <glyph glyph-name="FL0050h" unicode="P" horiz-adv-x="675" 
d="M709 245h-398l-3 -3l1 3h-192l-14 -37h544q35 14 62 37zM777 424h-595l-10 -27h608q0 12 -3 27zM757 483h-553l-9 -24h573q-2 6 -5 12zM760 305h-381l-39 -34h396q7 8 13 16.5t11 17.5zM35 20h192l17 47h-192zM58 83h192l16 43h-193zM81 146h192l15 40h-193zM126 271h192
l13 34h-192zM779 364h-190l-1 -2q-2 -4 -7.5 -12.5t-10.5 -15.5h203q4 13 6 30zM149 334h192l11 30h-192zM218 522h499q-18 8 -37 8h-459zM28 0h192l2 7h-192z" />
    <glyph glyph-name="FL0051h" unicode="Q" horiz-adv-x="714" 
d="M712 126h-587q10 -26 24 -43h522q22 19 41 43zM245 20h432l-24 47h-490q33 -32 82 -47zM184 397h606q-2 7 -5 13.5t-6 13.5h-573q-6 -7 -11.5 -13.5t-10.5 -13.5zM782 245h-185q-2 -3 -3.5 -6.5t-3.5 -6.5q-2 -5 -4.5 -9t-4.5 -8l-16 30h-210l17 -37h394q5 9 9 18t7 19z
M755 186h-373l18 -40h328q16 21 27 40zM244 459h512q-11 12 -26 24h-454q-8 -5 -16 -11.5t-16 -12.5zM119 146h237q-22 14 -36 40h-206q0 -20 5 -40zM684 7h-386q23 -4 47 -5.5t50 -1.5h90l17 -28h200zM114 208h196q-6 18 -6 36v1h-187v-2q-3 -18 -3 -35zM122 271h186
q2 10 11 27q2 4 4 7h-191q-3 -8 -5.5 -17t-4.5 -17zM793 287q1 5 1.5 9t0.5 9h-187v-10v-12q0 -9 -1 -10l-1 -2h184q1 4 1.5 7.5t1.5 8.5zM145 334h199q15 16 33 30h-216q-5 -8 -8.5 -15zM797 364h-209q10 -14 15 -30h195v5v12q0 7 -1 13zM363 522h274q-38 8 -80 8h-132
q-16 0 -31 -2t-31 -6z" />
    <glyph glyph-name="FL0052h" unicode="R" horiz-adv-x="693" 
d="M698 245h-386l-5 -5l2 5h-192l-14 -37h479q31 5 60.5 13.5t55.5 23.5zM773 424h-591l-10 -27h604q0 7 -1 13.5t-2 13.5zM752 483h-548l-9 -24h569q-5 12 -12 24zM759 305h-388l-34 -34h396q8 8 14.5 16t11.5 18zM481 20h216l-46 47h-221zM413 83h223l-42 43h-228z
M345 146h229l-39 40h-234zM35 20h192l17 47h-192zM58 83h192l15 43h-192zM286 182l5 4h-196l-14 -40h192zM126 271h192l13 34h-192zM776 364h-193q-1 -8 -4 -16.5t-10 -13.5h202q2 7 3 14.5t2 15.5zM149 334h192l11 30h-192zM218 522h491q-19 8 -42 8h-446zM710 7h-215l8 -7
h214zM28 0h192l2 7h-192z" />
    <glyph glyph-name="FL0053h" unicode="S" horiz-adv-x="660" 
d="M51 20h555q27 18 47 47h-568q-10 -13 -18.5 -25t-15.5 -22zM97 83h566q6 11 11 21.5t9 21.5h-550q-7 -7 -16 -18t-20 -25zM676 245h-478q21 -26 48 -37h440q-2 9 -4 18.5t-6 18.5zM635 305h-470q6 -17 15 -34h483q-5 10 -12.5 18t-15.5 16zM736 424h-557
q-4 -7 -6.5 -13.5t-5.5 -13.5h542zM789 483h-566l-10 -12l-10 -12h566l10 12zM503 174v-12q0 -11 -2 -16h187q1 5 1.5 11t0.5 11v6q0 8 -1 12h-188q2 -8 2 -12zM359 340q-2 2 -6 5.5t-4 4.5v5q0 5 1 9h-192v-11v-10q0 -4 1 -9h209q-6 3 -9 6zM824 530h-510q-17 0 -36 -8h541
q2 2 2.5 4t2.5 4zM39 0h510q19 0 34 7h-540q-2 -3 -4 -7z" />
    <glyph glyph-name="FL0054h" unicode="T" horiz-adv-x="616" 
d="M167 397h506q6 3 14 10t18 17h-519q-16 -20 -19 -27zM214 459h522q5 6 9.5 12t9.5 12h-520zM219 20h192l17 47h-192zM242 83h192l15 43h-192zM265 146h192l14 40h-192zM287 208h192l14 37h-192zM310 271h192l13 34h-192zM333 334h192l11 30h-192zM274 522h508l2 4l2 4
h-501q-3 -2 -5.5 -4t-5.5 -4zM212 0h192l2 7h-192z" />
    <glyph glyph-name="FL0055h" unicode="U" horiz-adv-x="682" 
d="M118 83h538q16 19 31 43h-578q2 -25 9 -43zM188 20h386q36 16 67 47h-515q18 -31 62 -47zM718 186h-201q-10 -12 -22.5 -22.5t-27.5 -17.5h231q5 9 10 19t10 21zM108 147v-1h228q-18 12 -24 40h-201q-3 -23 -3 -39zM115 208h195v1q0 10 5 32q0 1 -0.5 1.5t0.5 2.5h-191
q-2 -10 -4.5 -19t-4.5 -18zM743 245h-190l-4 -12q-5 -10 -15 -25h193l8 18t8 19zM132 271h190q2 6 5 14.5t6 19.5h-192q-3 -9 -5 -17.5t-4 -16.5zM757 283l8 22h-190l-12 -34h189q2 3 2.5 6t2.5 6zM353 364h-191l-11 -30h192q2 7 4.5 14.5t5.5 15.5zM586 334h189l11 30h-189
zM373 424h-190l-10 -27h191zM609 397h189l10 27h-190zM631 459h190l9 24h-190zM195 459h190q2 5 4 11.5t4 12.5h-189zM351 0h117q18 0 35 1.5t32 5.5h-294q23 -4 50 -5.5t60 -1.5zM847 530h-190l-3 -8h190zM410 530h-189l-3 -8h189q1 2 1.5 4t1.5 4z" />
    <glyph glyph-name="FL0056h" unicode="V" horiz-adv-x="741" 
d="M433 173l-2 13h-171l6 -40h358l31 40h-212zM277 83h300l32 43h-340l4 -25q1 -4 1.5 -8.5t2.5 -9.5zM561 62l4 5h-284q6 -27 17 -47h223q13 11 24 23t16 19zM460 208h211l28 37h-211zM508 271h211l26 34h-210zM257 208h171l-5 37h-171zM557 334h210l23 30h-209zM248 271
h171l-4 34h-172zM606 397h209l20 27h-208zM239 334h172l-4 30h-172zM654 459h208l18 24h-207zM230 397h172l-3 27h-173zM221 459h173l-3 24h-174zM704 522h206l6 8h-206zM211 530l1 -8h174l-1 8h-174zM505 7h-198q7 -7 16 -7h165q9 0 17 7z" />
    <glyph glyph-name="FL0077h" unicode="W" horiz-adv-x="872" 
d="M531 208h308l24 37h-652v-37h300l17 24q1 -7 1.5 -12.5t1.5 -11.5zM717 286l-2 19h-315l-22 -34h502l22 34h-173zM537 146h262l26 40h-292q1 -11 2 -21t2 -19zM211 146h257l28 40h-285v-40zM544 83h214l28 43h-247q2 -12 3 -23t2 -20zM211 83h213l30 43h-243v-35v-8z
M410 63l3 4h-202q1 -13 2.5 -25t4.5 -22h161q9 11 17 23.5t14 19.5zM419 334h294l-2 30h-273zM745 63l2 4h-201q4 -29 9 -47h157q10 11 19 23.5t14 19.5zM460 397h249l-2 27h-230zM211 271h165v34h-165v-34zM747 334h173l20 30h-174zM211 334h165v30h-165v-30zM787 397h174
l18 27h-175zM500 459h204l-1 24h-188zM211 397h165v27h-165v-27zM826 459h175l16 24h-176zM211 459h165v24h-165v-24zM866 522h176l5 8h-176zM211 522h165v8h-165v-8zM541 522h159v8h-154zM367 7h-143q4 -7 10 -7h119q7 0 14 7zM700 7h-141q4 -7 10 -7h118q6 0 13 7z" />
    <glyph glyph-name="FL0058h" unicode="X" horiz-adv-x="658" 
d="M183 146h398l-16 40h-337zM468 424h-214l11 -27h416l31 27h-215l-21 -19zM291 334h319l34 30h-365zM253 208h303l-15 37h-246zM40 20h213l54 47h-214zM419 20h213l-19 47h-214zM393 83h213l-17 43h-214zM111 83h214l49 43h-214zM317 271h221l39 34h-274zM537 459h214
l27 24h-214zM240 459h214l-10 24h-213zM609 522h214l9 8h-214zM212 530l3 -8h214l-3 8h-214zM637 7h-213l3 -7h213zM231 0l8 7h-213l-8 -7h213z" />
    <glyph glyph-name="FL0059h" unicode="Y" horiz-adv-x="656" 
d="M467 424h-213l11 -27h415l31 27h-215l-21 -19zM290 334h319l34 30h-365zM239 20h192l17 47h-192zM316 271h221l39 34h-274zM262 83h192l16 43h-192zM285 146h192l15 40h-192zM308 208h192l13 37h-192zM536 459h214l27 24h-214zM240 459h213l-10 24h-213zM608 522h214l9 8
h-214zM211 530l3 -8h214l-3 8h-214zM232 0h192l2 7h-192z" />
    <glyph glyph-name="FL005Ah" unicode="Z" horiz-adv-x="616" 
d="M594 67h-501l-49 -47h508q10 9 20.5 21t21.5 26zM637 126h-483l-45 -43h498q9 12 17 23t13 20zM167 397h480l28 27h-489q-16 -20 -19 -27zM214 459h497l25 24h-501zM175 146h209l42 40h-209zM240 208h209l39 37h-209zM306 271h209l35 34h-209zM372 334h209l31 30h-209z
M274 522h503l9 8h-501q-3 -2 -5.5 -4t-5.5 -4zM23 0h499q7 0 15 7h-507z" />
    <glyph glyph-name="FL005Bh" unicode="[" horiz-adv-x="412" 
d="M406 67h-354l-17 -47h337q4 5 7.5 9t6.5 8q2 2 8 11.5t12 18.5zM360 7h-329l-18 -49h297q11 10 24 22.5t26 26.5zM58 83h191l16 43h-191zM81 146h191l15 40h-191zM104 208h191l13 37h-191zM560 543h-335l-8 -21h326q5 5 9 10.5t8 10.5zM508 483h-305l-8 -24h191l1 3h90
q10 0 31 21zM127 271h191l12 34h-191zM150 334h191l11 30h-191zM173 397h191l9 27h-191zM245 597l-5 -12h350q3 4 7 12h-352zM299 -52h-290l-1 -4h285z" />
    <glyph glyph-name="FL005Ch" unicode="\" horiz-adv-x="657" 
d="M418 20h213l-19 47h-214zM392 83h213l-17 43h-214zM366 146h214l-16 40h-214zM341 208h214l-15 37h-214zM316 271h213l-14 34h-213zM290 334h214l-12 30h-214zM264 397h214l-11 27h-214zM239 459h214l-9 24h-214zM211 530l3 -8h214l-3 8h-214zM426 0h213l-3 7h-213z" />
    <glyph glyph-name="FL005Dh" unicode="]" horiz-adv-x="412" 
d="M20 -42h348l18 49h-331q-11 -13 -19.5 -25.5t-15.5 -23.5zM66 20h325l17 47h-297q-10 -8 -22 -20.5t-23 -26.5zM223 83h191l15 43h-191zM360 459h191l9 24h-351q-5 -8 -8.5 -14t-4.5 -8h165zM246 146h191l14 40h-191zM268 208h191l14 37h-191zM238 522h336l7 21h-323
q-5 -5 -10 -10.5t-10 -10.5zM291 271h191l13 34h-191zM314 334h191l11 30h-191zM337 397h191l10 27h-191zM302 585h295l4 11h-285q-3 0 -14 -11zM363 -57l2 5h-352q-1 -1 -1 -2t-1 -3h352z" />
    <glyph glyph-name="FL005Eh" unicode="^" 
d="M30 20h217l35 47h-215zM79 83h214l32 43h-212zM325 397h351l-4 27h-326zM128 146h211l30 40h-209zM556 20h178l-8 47h-177zM177 208h208l27 37h-206zM546 83h178l-7 43h-177zM537 146h177l-6 40h-177zM226 271h205l25 34h-203zM656 483h-265q-7 -7 -9 -13l-9 -11h290
q-2 6 -3.5 12t-3.5 12zM527 208h177l-5 37h-177zM275 334h202l22 30h-200zM518 271h177l-5 34h-177zM508 334h177l-4 30h-177zM620 530h-168q-8 0 -19 -8h203q-8 8 -16 8zM20 0h213l5 7h-216q0 3 -2 -7zM559 0h178l-1 7h-178z" />
    <glyph glyph-name="FL005Fh" unicode="_" horiz-adv-x="462" 
d="M39 20h332l50 47h-332zM106 83h332l45 43h-332zM350 0l7 7h-332l-7 -7h332z" />
    <glyph glyph-name="FL0060h" unicode="`" horiz-adv-x="170" 
d="M203 480q-3 -6 -2.5 -11t2.5 -10h99q-1 5 -1.5 9.5t-0.5 9.5l-2 5h-94q-1 -1 -1 -3zM261 399q9 0 11 2l6 4q6 2 10 7.5t7 11.5h-80q8 -11 21 -18t25 -7zM268 530q-6 0 -28 -8h43q-5 8 -15 8z" />
    <glyph glyph-name="a" unicode="a" 
d="M538 113l5 -30h181l-7 43h-604l-34 -43h439q16 21 20 30zM506 67h-439l-37 -47h436q10 10 20 22t20 25zM325 397h351l-4 27h-326zM555 20h179l-8 47h-180zM128 146h208l30 40h-206zM177 208h206l27 37h-204zM536 146h178l-6 40h-178zM226 271h204l25 34h-202zM373 459
h290q-2 6 -3.5 12t-3.5 12h-265q-7 -7 -9 -13zM527 208h177l-5 37h-178zM517 271h178l-5 34h-178zM275 334h202l22 30h-200zM508 334h177l-4 30h-178zM453 7h-431q0 3 -2 -7h423q2 1 4.5 2.5t5.5 4.5zM433 522h203q-8 8 -16 8h-168q-8 0 -19 -8zM737 0l-1 7h-178l1 -7h178z
" />
    <glyph glyph-name="FL0062h" unicode="b" horiz-adv-x="689" 
d="M674 67h-622l-17 -47h580q19 8 33 19.5t26 27.5zM707 126h-634l-15 -43h627q5 9 11 20t11 23zM308 242l1 3h-192l-14 -37h624q-5 23 -16 37h-400zM778 424h-596l-10 -27h609zM761 483h-557l-9 -24h576q-2 6 -4.5 12t-5.5 12zM750 305h-371l-39 -34h376q9 7 17.5 15
t16.5 19zM727 186h-203q0 -5 -2 -7l-2 -5q-1 -1 -5 -8.5l-4 -7.5q-3 -2 -8 -5.5t-10 -6.5h221q4 9 7.5 19t5.5 21zM81 146h192l15 40h-193zM126 271h192l13 34h-192zM779 364h-190l-1 -2q-2 -4 -7.5 -12.5t-10.5 -15.5h198q8 14 11 30zM149 334h192l11 30h-192zM221 530
l-3 -8h503q-19 8 -41 8h-459zM573 7h-543l-2 -7h459q52 0 86 7z" />
    <glyph glyph-name="c" unicode="c" horiz-adv-x="631" 
d="M651 126h-497q15 -26 33 -43h432q8 11 16 21.5t16 21.5zM606 67h-401q20 -17 44 -28t51 -19h261q24 21 45 47zM176 397h504l30 27h-515q-5 -7 -9.5 -13.5t-9.5 -13.5zM227 459h516l21 24h-508q-8 -6 -15 -12zM341 186h-209q4 -22 12 -40h239q-11 7 -22 17.5t-20 22.5z
M127 243v-18t2 -17h198q-5 9 -8 18.5t-5 18.5h-187v-2zM128 271h186q1 6 3 12.5t4 14.5q1 2 1 3q0 2 1 4h-188q-2 -9 -3.5 -17.5t-3.5 -16.5zM144 334h195q9 15 23 30h-205q-4 -8 -7 -15t-6 -15zM333 522h462q2 2 6 8h-413q-26 0 -55 -8zM546 7h-186q24 -4 48.5 -5.5
t49.5 -1.5h80q3 2 8 7z" />
    <glyph glyph-name="FL0064h" unicode="d" horiz-adv-x="658" 
d="M618 126h-545l-15 -43h511q13 9 25 20t24 23zM547 67h-495l-17 -47h408q58 17 104 47zM770 413q0 2 -0.5 5t-0.5 6h-587l-10 -27h597q1 4 1 8v8zM753 483h-549l-9 -24h569q-2 6 -4.5 12t-6.5 12zM669 186h-228q-20 -13 -41.5 -23t-42.5 -17h279q8 9 16.5 19t16.5 21z
M81 146h194l14 40h-194zM707 239q1 2 2 3t2 3h-201q-8 -10 -17.5 -19t-20.5 -18h213q5 8 11 15.5t11 15.5zM103 208h194l14 37h-194zM745 305h-198l-3 -9q-3 -8 -6.5 -14t-7.5 -11h198q5 8 9 16.5t8 17.5zM126 271h194l13 34h-194zM764 364h-203q1 -3 1 -9q0 -12 -4 -21h198
q2 8 4 15t4 15zM149 334h194l11 30h-194zM656 530h-435l-3 -8h488q-22 8 -50 8zM277 0q29 0 55 1.5t50 5.5h-352l-2 -7h249z" />
    <glyph glyph-name="e" unicode="e" horiz-adv-x="625" 
d="M602 67h-550l-17 -47h520q11 10 23.5 22t23.5 25zM646 126h-573l-15 -43h559q2 2 4 5t4 5t9 13t12 20zM103 208h400l39 37h-229l-7 -7l2 7h-191zM710 424h-528l-10 -27h506q6 3 14 10t18 17zM760 483h-556l-9 -24h546q5 6 9.5 12t9.5 12zM340 271h229l36 34h-230zM81 146
h191l14 40h-191zM126 271h192l12 34h-191zM149 334h192l11 30h-192zM221 530l-3 -8h569l2 4l2 4h-570zM540 7h-510l-2 -7h503l2.5 1.5t6.5 5.5z" />
    <glyph glyph-name="FL0066h" unicode="f" horiz-adv-x="621" 
d="M103 208h400l39 37h-229l-7 -7l2 7h-191zM710 424h-528l-10 -27h506q6 3 14 10t18 17zM760 483h-556l-9 -24h546q5 6 9.5 12t9.5 12zM35 20h191l17 47h-191zM58 83h191l15 43h-191zM340 271h229l36 34h-230zM81 146h191l14 40h-191zM126 271h192l12 34h-191zM149 334h192
l11 30h-192zM221 530l-3 -8h569l2 4l2 4h-570zM219 0l2 7h-191l-2 -7h191z" />
    <glyph glyph-name="FL0067h" unicode="g" horiz-adv-x="640" 
d="M187 83h451l17 43h-501q15 -26 33 -43zM300 20h314l18 47h-427q20 -17 44 -28t51 -19zM710 424h-514q-5 -7 -10 -13.5t-10 -13.5h504zM764 483h-508q-8 -6 -14.5 -12t-13.5 -12h515zM390 208h296l14 37h-283q-9 -12 -16 -21.5t-11 -15.5zM437 271h273l12 34h-256
q-8 -8 -15 -16.5t-14 -17.5zM340 186h-208q4 -22 12 -40h238q-11 7 -22 17.5t-20 22.5zM481 146h181l15 40h-182zM314 245h-187v-2v-18t2 -17h197q-9 17 -12 37zM321 298q1 2 1 3q0 2 1 4h-188q-5 -18 -6 -34h185q1 6 3 12.5t4 14.5zM359 364h-201l-7.5 -15t-6.5 -15h194
q5 8 10 15.5t11 14.5zM801 530h-413q-26 0 -55 -8h462q2 2 6 8zM458 0h149l2 7h-249q24 -4 48.5 -5.5t49.5 -1.5z" />
    <glyph glyph-name="h" unicode="h" horiz-adv-x="654" 
d="M103 208h598l14 37h-391l-24 -25l9 25h-192zM349 271h375l13 34h-355zM35 20h192l17 47h-192zM443 20h190l17 47h-190zM58 83h192l15 43h-192zM466 83h190l15 43h-190zM81 146h192l14 40h-192zM489 146h190l14 40h-190zM126 271h192l13 34h-192zM149 334h192l11 30h-192z
M557 334h190l11 30h-190zM172 397h192l10 27h-192zM580 397h190l10 27h-190zM195 459h192l9 24h-192zM603 459h190l9 24h-190zM218 522h192l3 8h-192zM626 522h190l3 8h-190zM28 0h192l2 7h-192zM626 0l2 7h-190l-2 -7h190z" />
    <glyph glyph-name="FL0069h" unicode="i" horiz-adv-x="252" 
d="M37 20h192l17 47h-192zM60 83h192l15 43h-192zM83 146h192l14 40h-192zM105 208h192l14 37h-192zM128 271h192l13 34h-192zM151 334h192l11 30h-192zM174 397h192l10 27h-192zM197 459h192l9 24h-192zM220 522h192l3 8h-192zM30 0h192l2 7h-192z" />
    <glyph glyph-name="FL006Ah" unicode="j" horiz-adv-x="573" 
d="M35 20h438q37 16 67 47h-474q-8 -12 -15.5 -23.5t-15.5 -23.5zM78 83h476q14 18 28 43h-467q-11 -11 -20 -21.5t-17 -21.5zM364 146h228q5 9 9.5 19t9.5 21h-201q-10 -12 -21.5 -22.5t-24.5 -17.5zM425 208h195q3 9 6.5 18t7.5 19h-190l-4 -12q-5 -10 -15 -25zM454 271
h189l12 34h-189zM477 334h189l11 30h-189zM500 397h189l10 27h-190zM522 459h190l9 24h-190zM23 0h336q20 0 37.5 1.5t33.5 5.5h-403q-2 -3 -4 -7zM545 522h190l3 8h-190z" />
    <glyph glyph-name="FL006Bh" unicode="k" horiz-adv-x="698" 
d="M307 238l24 -30h235l-27 37h-422l-14 -37h193zM126 271h407l44 34h-233l-18 -13l5 13h-192zM486 20h216l-34 47h-221zM434 83h223l-31 43h-227zM382 146h229l-29 40h-233zM35 20h192l17 47h-192zM58 83h192l16 43h-193zM81 146h192l15 40h-193zM384 334h231l39 30h-228z
M472 397h225l35 27h-223zM149 334h192l11 30h-192zM558 459h220l31 24h-218zM172 397h192l10 27h-192zM195 459h192l9 24h-192zM646 522h214l11 8h-214zM218 522h192l3 8h-192zM712 7h-215l6 -7h214zM28 0h192l2 7h-192z" />
    <glyph glyph-name="FL006Ch" unicode="l" horiz-adv-x="560" 
d="M532 67h-480l-17 -47h454q11 11 21.5 22.5t21.5 24.5zM579 126h-506l-15 -43h487q11 14 20 25t14 18zM81 146h191l14 40h-191zM103 208h191l14 37h-191zM126 271h191l13 34h-191zM149 334h191l11 30h-191zM172 397h191l10 27h-191zM195 459h191l9 24h-191zM28 0h439
q2 2 4 3.5t4 3.5h-445zM412 530h-191l-3 -8h191z" />
    <glyph glyph-name="FL006Dh" unicode="m" horiz-adv-x="836" 
d="M328 298l5 -27h179l-6 34h-367l-13 -34h192zM714 271h192l13 34h-367l-32 -34h179l25 27zM345 208h297l33 37h-337zM578 334h351l11 30h-334zM149 334h351l-6 30h-334zM356 146h229l37 40h-273zM35 20h192l17 47h-192zM623 20h192l17 47h-192zM636 397h316l10 27h-301z
M172 397h316l-5 27h-301zM58 83h192l15 43h-192zM646 83h192l15 43h-192zM368 83h160l39 43h-207zM669 146h192l14 40h-192zM81 146h192l14 40h-192zM691 208h192l14 37h-192zM103 208h192l14 37h-192zM693 459h282l9 24h-269zM195 459h281l-4 24h-268zM379 20h91l43 47
h-142zM751 522h247l3 8h-242zM218 522h246l-1 8h-242zM808 0l2 7h-192l-2 -7h192zM220 0l2 7h-192l-2 -7h192zM452 0l6 7h-76l1 -7h69z" />
    <glyph glyph-name="FL006Eh" unicode="n" horiz-adv-x="654" 
d="M517 245h-179l7 -37h356l14 37h-190l-5 -13zM356 146h323l14 40h-344zM368 83h288l15 43h-311zM328 298l5 -27h179l-6 34h-367l-13 -34h192zM380 20h253l17 47h-279zM149 334h351l-6 30h-334zM35 20h192l17 47h-192zM172 397h316l-5 27h-301zM58 83h192l15 43h-192z
M81 146h192l14 40h-192zM103 208h192l14 37h-192zM195 459h281l-4 24h-268zM534 271h190l13 34h-190zM557 334h190l11 30h-190zM580 397h190l10 27h-190zM603 459h190l9 24h-190zM218 522h246l-1 8h-242zM626 0l2 7h-245l1 -7h242zM626 522h190l3 8h-190zM28 0h192l2 7h-192
z" />
    <glyph glyph-name="FL006Fh" unicode="o" horiz-adv-x="738" 
d="M738 126h-617q4 -12 8.5 -23t11.5 -20h554q24 19 43 43zM676 67h-523q29 -32 73 -47h365q46 17 85 47zM185 397h628q-3 13 -9 27h-596q-6 -7 -12 -13.5t-11 -13.5zM246 459h537q-11 13 -24 24h-480zM779 186h-212q-15 -13 -30.5 -23t-29.5 -17h246q8 10 14 19.5t12 20.5z
M116 146h240q-22 14 -36 40h-207q0 -22 3 -40zM804 245h-190q-2 -3 -3.5 -6.5t-3.5 -6.5q-5 -11 -17 -24h200q4 9 7.5 18t6.5 19zM113 208h197q-6 18 -6 36v1h-187v-2q-2 -10 -3 -18.5t-1 -16.5zM814 287l3 18h-191q0 -8 -0.5 -16t-1.5 -16l-1 -2h188q1 4 1.5 7.5t1.5 8.5z
M122 271h186q2 10 11 27q2 4 4 7h-190q-4 -8 -6.5 -17t-4.5 -17zM146 334h198q15 16 33 30h-215q-5 -8 -8.5 -15zM818 364h-205q8 -11 11 -30h195v11v9q0 5 -1 10zM365 522h299q-43 8 -90 8h-149q-28 0 -60 -8zM549 7h-273q41 -7 93 -7h117q34 0 63 7z" />
    <glyph glyph-name="p" unicode="p" horiz-adv-x="675" 
d="M709 245h-398l-3 -3l1 3h-192l-14 -37h544q35 14 62 37zM776 424h-594l-10 -27h608q0 6 -1 12.5t-3 14.5zM754 483h-550l-9 -24h571q-5 12 -12 24zM760 305h-381l-38 -34h395q7 8 13 16.5t11 17.5zM35 20h192l17 47h-192zM58 83h192l16 43h-193zM81 146h192l15 40h-193z
M126 271h192l13 34h-192zM779 364h-190l-1 -2q-2 -4 -7.5 -12.5t-10.5 -15.5h203q4 13 6 30zM149 334h192l11 30h-192zM218 522h496q-16 8 -34 8h-459zM28 0h192l2 7h-192z" />
    <glyph glyph-name="FL0071h" unicode="q" horiz-adv-x="711" 
d="M712 126h-587q10 -26 24 -43h522q22 19 41 43zM245 20h432l-24 47h-490q33 -32 82 -47zM186 397h604q-2 7 -5 13.5t-6 13.5h-570q-6 -7 -12 -13.5t-11 -13.5zM782 245h-185q-2 -3 -3.5 -6.5t-3.5 -6.5q-2 -5 -4.5 -9t-4.5 -8l-16 30h-210l17 -37h394q5 9 9 18t7 19z
M755 186h-373l18 -40h328q16 21 27 40zM246 459h510q-11 12 -26 24h-451zM119 146h237q-22 14 -36 40h-206q0 -20 5 -40zM684 7h-386q23 -4 47 -5.5t50 -1.5h90l17 -28h200zM114 208h196q-6 18 -6 36v1h-187v-2q-3 -18 -3 -35zM123 271h185q2 10 11 27q2 4 4 7h-190
q-3 -8 -5.5 -17t-4.5 -17zM793 287q1 5 1.5 9t0.5 9h-187v-10v-12q0 -9 -1 -10l-1 -2h184q1 4 1.5 7.5t1.5 8.5zM146 334h198q15 16 33 30h-214q-5 -8 -9 -15t-8 -15zM797 364h-209q10 -14 15 -30h195v5v12q0 7 -1 13zM365 522h272q-38 8 -80 8h-132q-28 0 -60 -8z" />
    <glyph glyph-name="r" unicode="r" horiz-adv-x="699" 
d="M698 245h-386l-5 -5l2 5h-192l-14 -37h479q31 5 60.5 13.5t55.5 23.5zM774 424h-592l-10 -27h604q0 7 -0.5 13.5t-1.5 13.5zM755 483h-551l-9 -24h570q-2 6 -4.5 12t-5.5 12zM759 305h-388l-33 -34h395q8 8 14.5 16t11.5 18zM481 20h216l-46 47h-221zM413 83h223l-42 43
h-228zM345 146h229l-39 40h-234zM35 20h192l17 47h-192zM58 83h192l15 43h-192zM286 182l5 4h-196l-14 -40h192zM126 271h192l13 34h-192zM776 364h-193q-1 -8 -4 -16.5t-10 -13.5h202q2 7 3 14.5t2 15.5zM149 334h192l11 30h-192zM218 522h493q-19 8 -44 8h-446zM710 7
h-215l8 -7h214zM28 0h192l2 7h-192z" />
    <glyph glyph-name="FL201Ch" unicode="s" horiz-adv-x="660" 
d="M51 20h555q27 18 47 47h-568q-10 -13 -18.5 -25t-15.5 -22zM97 83h566q6 11 11 21.5t9 21.5h-550q-7 -7 -16 -18t-20 -25zM677 245h-479q21 -26 48 -37h441q-2 9 -4.5 18.5t-5.5 18.5zM636 305h-471q6 -17 15 -34h484q-5 10 -12.5 18t-15.5 16zM736 424h-557
q-4 -7 -6.5 -13.5t-5.5 -13.5h542zM789 483h-566l-10 -12l-10 -12h566l10 12zM503 174v-12q0 -11 -2 -16h187q1 5 1.5 11t0.5 11v6q0 8 -1 12h-188q2 -8 2 -12zM359 340q-2 2 -6 5.5t-4 4.5v5q0 5 1 9h-192v-11v-10q0 -4 1 -9h209q-6 3 -9 6zM824 530h-510q-17 0 -36 -8h541
q2 2 2.5 4t2.5 4zM39 0h510q19 0 34 7h-540q-2 -3 -4 -7z" />
    <glyph glyph-name="FL0074h" unicode="t" horiz-adv-x="616" 
d="M167 397h506q6 3 14 10t18 17h-519q-16 -20 -19 -27zM214 459h522q5 6 9.5 12t9.5 12h-520zM219 20h192l17 47h-192zM242 83h192l15 43h-192zM265 146h192l14 40h-192zM287 208h192l14 37h-192zM310 271h192l13 34h-192zM333 334h192l11 30h-192zM274 522h508l2 4l2 4
h-501q-3 -2 -5.5 -4t-5.5 -4zM212 0h192l2 7h-192z" />
    <glyph glyph-name="FL2022h" unicode="u" horiz-adv-x="682" 
d="M117 83h539q16 19 31 43h-580q1 -12 3.5 -23t6.5 -20zM188 20h386q36 16 67 47h-516q19 -30 63 -47zM106 150v-4h233q-20 13 -27 40h-204q-2 -11 -2 -19v-17zM718 186h-201q-10 -12 -22.5 -22.5t-27.5 -17.5h231q5 9 10 19t10 21zM112 208h198v1q0 10 5 32q0 1 -0.5 1.5
t0.5 2.5h-193q-3 -10 -5.5 -19t-4.5 -18zM743 245h-190l-4 -12q-5 -10 -15 -25h193l8 18t8 19zM131 271h191q2 6 5 14.5t6 19.5h-192q-3 -9 -5 -17.5t-5 -16.5zM757 283l8 22h-190l-12 -34h189q2 3 2.5 6t2.5 6zM353 364h-191l-11 -30h192q2 7 4.5 14.5t5.5 15.5zM586 334
h189l11 30h-189zM373 424h-190l-10 -27h191zM609 397h189l10 27h-190zM631 459h190l9 24h-190zM195 459h190q2 5 4 11.5t4 12.5h-189zM351 0h117q18 0 35 1.5t32 5.5h-292q23 -4 49.5 -5.5t58.5 -1.5zM847 530h-190l-3 -8h190zM410 530h-189l-3 -8h189q1 2 1.5 4t1.5 4z" />
    <glyph glyph-name="FL0076h" unicode="v" horiz-adv-x="741" 
d="M433 173l-2 13h-171l6 -40h358l31 40h-212zM277 83h300l32 43h-340l4 -25q1 -4 1.5 -8.5t2.5 -9.5zM561 62l4 5h-284q6 -27 17 -47h223q13 11 24 23t16 19zM460 208h211l28 37h-211zM508 271h211l26 34h-210zM257 208h171l-5 37h-171zM557 334h210l23 30h-209zM248 271
h171l-4 34h-172zM606 397h209l20 27h-208zM239 334h172l-4 30h-172zM654 459h208l18 24h-207zM230 397h172l-3 27h-173zM221 459h173l-3 24h-174zM704 522h206l6 8h-206zM211 530l1 -8h174l-1 8h-174zM505 7h-198q7 -7 16 -7h165q9 0 17 7z" />
    <glyph glyph-name="FL0057h" unicode="w" horiz-adv-x="872" 
d="M173 20h678l17 47h-760q10 -14 26 -26.5t39 -20.5zM99 83h775l15 43h-801q0 -23 11 -43zM309 186h-213q-3 -11 -5 -20.5t-3 -19.5h263q-15 2 -26.5 10t-15.5 30zM396 146h190l15 40h-190zM707 146h190l14 40h-189zM316 245h-198l-14 -37h204q0 5 2.5 15.5t5.5 21.5z
M419 208h190l13 37h-190zM730 208h189l14 37h-190zM127 271h195l12 34h-194zM442 271h190l12 34h-190zM753 271h189l13 34h-190zM150 334h194l10 30h-193zM465 334h190l11 30h-190zM776 334h189l11 30h-189zM173 397h192l9 27h-191zM488 397h190l9 27h-190zM799 397h189
l10 27h-190zM821 459h190l9 24h-190zM510 459h190l9 24h-190zM196 459h190l8 24h-189zM844 0l2 7h-625q35 -7 88 -7h535zM844 522h190l3 8h-190zM533 522h190l3 8h-190zM219 522h188l3 8h-188z" />
    <glyph glyph-name="FL0079h" unicode="x" horiz-adv-x="658" 
d="M183 146h398l-16 40h-337zM468 424h-214l11 -27h416l31 27h-215l-21 -19zM291 334h319l34 30h-365zM253 208h303l-15 37h-246zM40 20h213l54 47h-214zM419 20h213l-19 47h-214zM393 83h213l-17 43h-214zM111 83h214l49 43h-214zM317 271h221l39 34h-274zM537 459h214
l27 24h-214zM240 459h214l-10 24h-213zM609 522h214l9 8h-214zM212 530l3 -8h214l-3 8h-214zM637 7h-213l3 -7h213zM231 0l8 7h-213l-8 -7h213z" />
    <glyph glyph-name="FL007Bh" unicode="y" horiz-adv-x="656" 
d="M467 424h-213l11 -27h415l31 27h-215l-21 -19zM290 334h319l34 30h-365zM239 20h192l17 47h-192zM316 271h221l39 34h-274zM262 83h192l16 43h-192zM285 146h192l15 40h-192zM308 208h192l13 37h-192zM536 459h214l27 24h-214zM240 459h213l-10 24h-213zM608 522h214l9 8
h-214zM211 530l3 -8h214l-3 8h-214zM232 0h192l2 7h-192z" />
    <glyph glyph-name="FL007Ah" unicode="z" horiz-adv-x="616" 
d="M594 67h-501l-49 -47h508q10 9 20.5 21t21.5 26zM637 126h-483l-45 -43h498q9 12 17 23t13 20zM167 397h480l28 27h-489q-16 -20 -19 -27zM214 459h497l25 24h-501zM175 146h209l42 40h-209zM240 208h209l39 37h-209zM306 271h209l35 34h-209zM372 334h209l31 30h-209z
M274 522h503l9 8h-501q-3 -2 -5.5 -4t-5.5 -4zM23 0h499q7 0 15 7h-507z" />
    <glyph glyph-name="FL007Dh" unicode="{" horiz-adv-x="555" 
d="M529 37q2 2 8 11.5t12 18.5h-354l-17 -47h337q4 5 7.5 9t6.5 8zM503 7h-329l-18 -49h297q11 10 24 22.5t26 26.5zM103 208h335l13 37h-309zM169 271h292l12 34h-268zM201 83h191l16 43h-191zM224 146h191l15 40h-192zM703 543h-335l-8 -21h326q5 5 9 10.5t8 10.5z
M530 462h90q10 0 31 21h-305l-8 -24h191zM292 334h192l11 30h-192zM315 397h192l9 27h-191zM388 597l-5 -12h350q3 4 7 12h-352zM436 -56l6 4h-290l-1 -4h285z" />
    <glyph glyph-name="FL007Ch" unicode="|" horiz-adv-x="248" 
d="M-10 -105h192l19 53h-192zM12 -42h192l18 49h-192zM35 20h192l17 47h-192zM58 83h192l15 43h-192zM81 146h192l14 40h-192zM103 208h192l14 37h-192zM126 271h192l13 34h-192zM149 334h192l11 30h-192zM-23 -141h192l10 29h-191zM172 397h192l10 27h-192zM195 459h192
l8 24h-192zM217 522h192l8 21h-192zM240 585h192l6 17h-192zM263 648h192l5 14h-192z" />
    <glyph glyph-name="FL007Eh" unicode="}" horiz-adv-x="555" 
d="M20 -42h348l18 49h-331q-11 -13 -19.5 -25.5t-15.5 -23.5zM66 20h325l17 47h-297q-10 -8 -22 -20.5t-23 -26.5zM291 271h293l36 34h-316zM460 210h59l37 35h-274l-14 -37h191zM223 83h191l15 43h-191zM196 461h165l-1 -2h191l9 24h-351q-5 -8 -8.5 -14t-4.5 -8zM246 146
h191l14 40h-191zM663 345h-153l7 19h-192l-11 -30h337zM238 522h336l7 21h-323q-5 -5 -10 -10.5t-10 -10.5zM337 397h192l10 27h-192zM601 596h-285q-3 0 -14 -11h295zM363 -57l2 5h-352q-1 -1 -1 -2t-1 -3h352z" />
    <glyph glyph-name="FL0080h" unicode="~" horiz-adv-x="413" 
d="M163 271h185l-16 34h-136zM397 209q11 11 19 19.5t16 16.5h-172l18 -37h117q1 0 2 1zM102 208h98l35 37h-97zM491 305h-99l-32 -34h98q11 11 19 19.5t14 14.5z" />
    <glyph glyph-name="FL007Fh" horiz-adv-x="175" 
 />
    <glyph glyph-name="FL00A1h" unicode="&#xa1;" horiz-adv-x="248" 
d="M35 20h192l17 47h-192zM58 83h192l15 43h-192zM81 146h192l14 40h-192zM103 208h192l14 37h-192zM126 271h192l13 34h-192zM351 359h-192l-10 -25h192zM369 460q4 11 4 23h-144q-7 -10 -12 -23q0 -1 -1 -1v0h152v0q1 0 1 1zM346 424h-132q4 -18 21 -27h71q24 10 40 27z
M220 0l2 7h-192l-2 -7h192zM280 522h72q-14 8 -33 8q-20 0 -39 -8z" />
    <glyph glyph-name="FL00A2h" unicode="&#xa2;" horiz-adv-x="631" 
d="M186 83h433q8 11 16 21.5t16 21.5h-497q7 -12 14.5 -23t17.5 -20zM299 20h262q24 21 45 47h-402q20 -17 44 -28t51 -19zM144 146h354l14 40h-126l-12 -34q-19 14 -34 34h-208q5 -23 12 -40zM176 397h504l30 27h-515q-5 -7 -9.5 -13.5t-9.5 -13.5zM227 459h516l21 24h-508
q-8 -6 -15 -12zM129 208h197q-5 9 -8 18.5t-4 18.5h-187v-2v-19q0 -8 2 -16zM546 7h-225l-18 -49h126l16 42h93q3 2 8 7zM280 -105h126l20 53h-126zM128 271h186q1 6 3 12.5t4 14.5q1 2 1 3q0 2 1 4h-188q-2 -9 -3.5 -17.5t-3.5 -16.5zM144 334h194q5 8 10 15.5t11 14.5
h-202q-4 -8 -7 -15t-6 -15zM333 522h462q2 2 6 8h-163l4 13h-126l-4 -13h-124q-26 0 -55 -8zM394 208h126l14 37h-126zM417 271h126l13 34h-126zM440 334h126l11 30h-126zM267 -142h126l11 30h-126zM532 585h126l6 17h-126zM554 648h126l5 14h-126z" />
    <glyph glyph-name="FL00A3h" unicode="&#xa3;" horiz-adv-x="674" 
d="M659 67h-570l-50 -47h618q1 12 1.5 24t0.5 23zM654 126h-503l-45 -43h553q-1 12 -2 22.5t-3 20.5zM108 208h534l-15 37h-480zM175 271h441l-14 34h-391zM224 146h221q-2 3 -4 6.5t-4 5.5l-0.5 2t-1.5 3l2 5q2 2 4 7t6 11h-207q-5 -8 -7 -15t-4 -13zM340 397h269
q2 7 2.5 13.5t1.5 13.5h-249q-14 -15 -24 -27zM303 334h201q0 8 1 15.5t3 12.5l1 2h-193q-3 -6 -5.5 -12.5t-5.5 -12.5q-2 -4 -2 -5zM402 459h212v24h-183q-8 -6 -15 -12zM656 0v7h-631l-7 -7h638zM499 522h110q0 2 -0.5 4t-0.5 4h-70q-17 0 -39 -8z" />
    <glyph glyph-name="FL00A4h" unicode="&#xa4;" horiz-adv-x="658" 
d="M383 109l10 -26h213l-18 43h-427l-49 -43h213l30 26h28zM603 186h-397q4 -10 7 -14l-1 -1l-29 -25h397l-5 14q8 6 15 12t13 14zM468 424h-213l11 -27h415l30 27h-213l-1 -1h-28zM238 334h148q8 4 15.5 6.5t15.5 2.5h54q12 0 20.5 -2.5t14.5 -6.5h144q-2 8 -4.5 14.5
t-5.5 12.5l3 3h-377l-15 -15t-13 -15zM40 20h214l53 47h-213zM419 20h213l-20 47h-212zM537 459h214l27 24h-214zM241 459h213l-9 24h-214zM200 208h146q-15 15 -20 37h-126q-2 -11 -1.5 -20t1.5 -17zM642 245h-127q-13 -21 -39 -37h145q14 19 21 37zM652 279q1 7 1.5 13.5
t0.5 12.5h-129q2 -8 2 -17t-1 -17h124q1 2 1 4t1 4zM204 271h123q2 3 3.5 6.5t3.5 7.5q7 11 15 20h-131q-5 -9 -8.5 -17.5t-5.5 -16.5zM609 522h214l9 8h-214zM212 530l3 -8h214l-3 8h-214zM231 0l8 7h-213l-8 -7h213zM637 7h-213l3 -7h213z" />
    <glyph glyph-name="FL00A5h" unicode="&#xa5;" horiz-adv-x="656" 
d="M126 83h415l67 43h-415zM190 208h415l57 37h-415zM467 424h-214l11 -27h416l31 27h-215l-21 -19zM487 173h63l20 13h-415l-20 -13h160l-10 -27h192zM290 334h319l34 30h-365zM447 63h63l6 4h-415l-6 -4h160l-16 -43h192zM315 271h222l39 34h-274zM536 459h214l27 24h-214
zM239 459h214l-10 24h-213zM831 530h-214l-9 -8h214zM211 530l3 -8h214l-3 8h-214zM232 0h192l2 7h-192z" />
    <glyph glyph-name="FL00A6h" unicode="&#xa6;" horiz-adv-x="248" 
d="M-10 -105h192l19 53h-192zM12 -42h192l18 49h-192zM35 20h192l17 47h-192zM58 83h192l15 43h-192zM81 146h192l14 40h-192zM103 208h192l14 37h-192zM126 271h192l13 34h-192zM149 334h192l11 30h-192zM-23 -141h192l10 29h-191zM172 397h192l10 27h-192zM195 459h192
l8 24h-192zM217 522h192l8 21h-192zM240 585h192l6 17h-192zM263 648h192l5 14h-192z" />
    <glyph glyph-name="FL00A7h" unicode="&#xa7;" horiz-adv-x="658" 
d="M604 186h-398q4 -10 7 -14l-30 -26h364q8 3 14.5 6.5t13.5 7.5q15 12 29 26zM238 334h148q8 4 15.5 6.5t15.5 2.5h54q12 0 20.5 -2.5t14.5 -6.5h144q-2 8 -4.5 14.5t-5.5 12.5l3 3h-377l-15 -15t-13 -15zM496 126h-335l-49 -43h213l30 26h28q62 0 113 17zM40 20h214
l53 47h-213zM320 397h361l30 27h-213l-1 -1h-28q-39 0 -76.5 -5.5t-72.5 -20.5zM537 459h214l27 24h-214zM200 208h146q-15 15 -20 37h-126q-2 -11 -1.5 -20t1.5 -17zM642 245h-127q-13 -21 -39 -37h145q14 19 21 37zM204 271h124l6 14q7 11 15 20h-131q-4 -6 -6.5 -12
t-4.5 -12q-1 -4 -3 -10zM652 279q1 7 1.5 13.5t0.5 12.5h-129q2 -8 2 -17t-1 -17h123q1 2 3 8zM609 522h214l9 8h-214zM231 0l8 7h-213l-8 -7h213z" />
    <glyph glyph-name="FL00A8h" unicode="&#xa8;" horiz-adv-x="364" 
d="M507 471l3 12h-125q-4 -8 -5 -12q-3 -6 -3 -12h124zM199 471q-3 -6 -3 -12h124l6 12l3 12h-125q-4 -8 -5 -12zM423 412q23 0 43 12h-78q12 -12 35 -12zM241 412q23 0 43 12h-78q12 -12 35 -12zM466 530q-18 0 -37 -8h66q-11 8 -29 8zM284 530q-18 0 -36 -8h65
q-11 8 -29 8z" />
    <glyph glyph-name="copyright" unicode="&#xa9;" horiz-adv-x="278" 
d="M281 522h24q13 8 28 8q13 0 19 -8h23q-3 15 -17 21h-42q-20 -6 -35 -21zM387 424h-24q-16 -15 -31 -20q-5 -2 -9.5 -3.5t-9.5 -3.5h41q18 10 33 27zM214 397h39q-8 3 -13 7q-11 8 -17 20h-23q4 -16 14 -27zM355 594q-21 0 -46 -9h86q-20 9 -40 9zM251 459h20q0 9 6 24
h-20q-3 -7 -4 -13t-2 -11zM197 459h20q1 10 6 24h-19l-4 -12t-3 -12zM426 483h-19q-6 -14 -12 -24h19q4 6 7 11.5t5 12.5zM430 543h-22q2 -3 2.5 -6.5t1.5 -6.5q0 -2 0.5 -4t0.5 -4h20q0 7 -2 17q0 2 -1 4zM225 522h19l4 4l4 4q3 3 6 6.5t7 6.5h-23q-1 -2 -3 -4
q-4 -5 -7.5 -9t-6.5 -8zM316 424h-47q8 -4 23 -4q13 0 24 4zM345 466q-2 -2 -2.5 -3.5t-2.5 -3.5h20v0q0 1 1 2z" />
    <glyph glyph-name="FL00ABh" unicode="&#xab;" horiz-adv-x="308" 
d="M118 213l5 -5h98l10 27l-13 10h-101l-5 -14q-2 -5 1 -10t5 -8zM253 214l7 -6h96l10 28l-11 9h-103l-5 -13q-2 -5 1 -10t5 -8zM185 272l48 33h-90q-6 -6 -8 -12l-9 -22h60zM320 273l47 32h-90q-6 -8 -7 -11l-9 -23h61zM314 334h87l11 30h-52zM180 334h87l10 30h-51z
M194 146h3l15 40h-63zM332 146h1l15 40h-63zM429 409l-19 -12h14zM293 408l-17 -11h13z" />
    <glyph glyph-name="FL00ACh" unicode="&#xac;" horiz-adv-x="473" 
d="M103 208h418l13 37h-392zM169 271h375l12 34h-351zM363 146h135l15 40h-136zM346 98h135l10 28h-135z" />
    <glyph glyph-name="FL00ADh" unicode="&#xad;" horiz-adv-x="318" 
d="M103 208h188l39 37h-188zM169 271h188l36 34h-188z" />
    <glyph glyph-name="registered" unicode="&#xae;" horiz-adv-x="278" 
d="M281 522h18l2 4h21q19 0 20 -1t2 -1.5t2 -1.5h23q0 2 -0.5 3t-0.5 3q0 7 -10 11q-4 4 -29 4h-40zM343 483h-76l-9 -24h19l6 15h11q10 0 13 -4q4 -2 7 -11h22q-4 13 -14 18q12 0 21 6zM387 424h-25q-8 -6 -15 -11t-15 -8q-6 -3 -11.5 -4.5t-10.5 -3.5h42q10 5 18.5 12
t16.5 15zM215 397h41q-10 3 -16 8q-12 10 -17 19h-22q4 -16 14 -27zM356 595q-11 0 -23 -2.5t-27 -7.5h92q-20 10 -42 10zM198 459h20q0 5 1 11t3 13h-19q-2 -6 -3 -12zM425 483h-19q-2 -6 -4.5 -12t-7.5 -12h20l6 12t5 12zM431 543h-23q2 -4 4 -12q0 -2 0.5 -4.5t0.5 -4.5
h21q0 10 -3 21zM225 522h19q2 2 4 4.5t4 4.5l12 12h-22q-1 -1 -1 -2l-1 -1z" />
    <glyph glyph-name="FL00AFh" unicode="&#xaf;" horiz-adv-x="462" 
d="M164 397h332l28 27h-332zM229 459h332l26 24h-332zM296 522h332l9 8h-332z" />
    <glyph glyph-name="FL00B0h" unicode="&#xb0;" horiz-adv-x="183" 
d="M199 471q-3 -6 -3 -12h124l6 12l3 12h-125q-4 -8 -5 -12zM241 412q23 0 43 12h-78q12 -12 35 -12zM284 530q-18 0 -36 -8h65q-11 8 -29 8z" />
    <glyph glyph-name="FL00B1h" unicode="&#xb1;" horiz-adv-x="461" 
d="M38 20h331l50 47h-331zM105 83h331l45 43h-331zM122 271h331l36 34h-331zM189 334h331l32 30h-331zM241 208h135l13 37h-135zM309 397h135l10 27h-135zM332 459h135l9 24h-135zM225 164h135l8 22h-135zM17 0h331l7 7h-331z" />
    <glyph glyph-name="FL00B4h" unicode="&#xb4;" horiz-adv-x="170" 
d="M318 483h-95l-5 -5q-5 -5 -9 -9.5t-8 -9.5h100q11 11 16 21q0 2 1 3zM262 424h-80q-4 -14 4 -19l4 -4q2 -2 9 -2q12 0 30.5 7.5t32.5 17.5zM266 522h44q-11 8 -22 8t-22 -8z" />
    <glyph glyph-name="FL00B5h" unicode="&#xb5;" horiz-adv-x="837" 
d="M692 147l2 -1h69l17 40h-649l-4 -2l118 -33l-8 -5h454zM180 334h476h6h197l-15 11l61 17h6l-1 2h-652l-6 -14l-68 7zM735 218q-16 0 -28 27h-20l-10 -27l-15 -1l10 28h-18l-9 -27l-10 5q-2 16 -6 22h-19q-9 -6 -22 -22h-20q3 5 5.5 11t6.5 11h-18l-8 -20l-26 -8l12 28
h-20l-11 -31q-19 0 -32 31h-15l-11 -30l-16 -3l11 33h-21q-22 -31 -39 -31q-5 -1 -9 -1.5t-7 -0.5q-28 0 -26 18q2 4 2.5 7.5t2.5 7.5h-59q-7 -20 13 -20q5 0 9.5 0.5t9.5 1.5l-5 -18q-2 -1 -6 -1h435l15 10l13 -6l-5 -4h92q0 13 -7 37h-109zM576 109l24 -26h23l46 43h-465
l-16 -10l149 -7l-20 -26h68l66 14l4 -14h65zM307 424h-20l-13 -27h555l-32 9l27 18h-460l-11 -10q-7 -4 -16 -4q-13 0 -30 14zM486 459h231l15 24h-17l-131 -21l5 21h-51zM914 282l-1 12l-15 11h-84l-17 -34h47q0 1 -1 2t-1 3zM182 208h99q-10 9 -7 37h-16l-10 -25l-25 -8
l15 33h-80l40 -30zM138 271h112l15 34h-77l10 -29zM386 305h-24l-1 -2q-1 1 -2 1t-2 1h-12q-11 -3 -24 -15q-10 -9 -17 -19h57q12 20 25 34zM427 275q3 10 1 12q0 15 -12 15q-15 0 -38 -31h47q1 1 1 2t1 2zM495 271h15l14 34h-44zM623 305h-36l-14 -34h23q6 8 12.5 16.5
t14.5 17.5zM723 271h12l14 34h-40zM754 271h24l14 34h-25zM529 271h23l15 34h-25zM405 459h52l-18 24h-6zM663 271h18l12 34h-18q0 -2 -0.5 -3t-0.5 -2zM307 305h-24l-14 -34h13q8 20 25 34zM647 272l2 33h-4l-28 -33h30zM452 290q-3 -5 -5.5 -9.5t-5.5 -9.5h14l12 34h-16
q1 -5 1 -15zM409 245h-41q0 -12 11 -12q7 0 28 9l1 1q0 1 1 2zM445 48l41 19h-30zM753 121l2 5h-14zM305 66l4 1h-4v-1zM696 271h1v1z" />
    <glyph glyph-name="FL00B7h" unicode="&#xb6;" horiz-adv-x="616" 
d="M226 230q-2 -18 26 -18q3 0 7 0.5t9 1.5q17 0 39 31h-16q-1 -1 -1 -2l-1 -1q-21 -9 -28 -9q-11 0 -11 12h-19q-2 -4 -2.5 -7.5t-2.5 -7.5zM309 275q-1 -1 -1 -2t-1 -2h16q3 5 5.5 9.5t5.5 9.5q0 10 -1 15h-65q-13 -14 -25 -34h17q23 31 38 31q12 0 12 -15q2 -2 -1 -12z
M529 272h-30l28 33h-22q-8 -9 -14.5 -17.5t-12.5 -16.5h67l11 29q0 1 0.5 2t0.5 3h-26zM163 208h30q4 0 6 1l5 18q-5 -1 -9.5 -1.5t-9.5 -0.5q-20 0 -13 20h-16q-3 -28 7 -37zM579 272v-1h26l-14 34h-16l-12 -34h15zM164 271h22q7 10 17 19q13 12 24 15h-38q-17 -14 -25 -34
zM337 271h40l-15 34h-13zM391 214l11 31h-43q13 -31 32 -31zM660 271h19l17 34h-22zM434 271h21l14 34h-20zM617 218l10 27h-38q12 -27 28 -27zM392 271h19l13 34h-18zM132 271h19l14 34h-18zM617 271h19l13 34h-18zM130 220l10 25h-20l-15 -33zM450 223h20q13 16 22 22h-30
q-4 -5 -6.5 -11t-5.5 -11zM436 225l8 20h-22l-12 -28zM333 215l11 30h-16l-11 -33zM527 218l9 27h-25q4 -6 6 -22zM559 218l10 27h-15l-10 -28zM656 212l-13 6l-15 -10h23zM243 303l1 2h-4q2 -2 3 -2z" />
    <glyph glyph-name="FL00B9h" unicode="&#xb7;" horiz-adv-x="183" 
d="M131 282q-2 -3 -4 -11h126q2 2 2.5 5t2.5 6q4 7 4 19v4h-118q-8 -9 -13 -23zM172 223q32 0 59 22h-101q11 -22 42 -22zM215 341q-9 0 -17.5 -2t-16.5 -5h62q-14 7 -28 7z" />
    <glyph glyph-name="FL00B8h" unicode="&#xb8;" horiz-adv-x="176" 
d="M-140 -105h250l19 53h-199zM150 6h-119l-11 -30h-53l-24 -18h189zM-155 -116h261l1 4h-256z" />
    <glyph glyph-name="FL00BBh" unicode="&#xbb;" horiz-adv-x="308" 
d="M103 208h76l25 16q5 4 12 9.5t13 11.5h-90l-29 -20zM238 208h75l26 17q5 4 11.5 9t12.5 11h-90l-28 -19zM391 339l-29 25h-67l-11 -30h110q-1 2 -1.5 2.5t-1.5 2.5zM256 338l-30 26h-66l-11 -30h109q-1 1 -1 2t-1 2zM189 279l-12 -8h66l12 34h-99zM324 280l-13 -9h67
l13 34h-98zM95 186l-14 -40h3l62 40h-51zM218 146l61 40h-49l-15 -40h3zM307 397h17l-13 11zM172 397h15l-11 10z" />
    <glyph glyph-name="FL00BFh" unicode="&#xbf;" horiz-adv-x="654" 
d="M674 126h-606q-3 -11 -5 -21.5t-2 -21.5h580q9 11 17.5 21.5t15.5 21.5zM627 67h-566q2 -29 15 -47h507q21 21 44 47zM580 245h-422q-11 -9 -20.5 -18.5t-17.5 -18.5h379q37 9 81 37zM658 305h-414q-27 -15 -54 -34h427q11 8 21 16.5t20 17.5zM296 186h-195q-3 -3 -7 -9
q-11 -16 -18 -31h197v1q0 7 3 15t8 13l4 5zM708 360h-155v-1q-2 -3 -17.5 -13.5t-46.5 -10.5h-149q-4 0 -7.5 -0.5t-8.5 -0.5h362q14 14 22 26zM754 460q5 17 5 23h-145q-7 -10 -12 -23q0 -1 -1 -1v0h152v0q1 0 1 1zM563 0l7 7h-479q11 -7 30 -7h442zM731 424h-132
q4 -18 21 -27h71q24 10 40 27zM665 522h72q-13 8 -33 8t-39 -8z" />
    <glyph glyph-name="FL00C0h" unicode="&#xc0;" 
d="M538 113l5 -30h181l-7 43h-604l-34 -43h439q16 21 20 30zM506 67h-439l-37 -47h436q10 10 20 22t20 25zM325 397h351l-4 27h-326zM555 20h179l-8 47h-180zM128 146h208l30 40h-206zM177 208h206l27 37h-204zM536 146h178l-6 40h-178zM226 271h204l25 34h-202zM656 483
h-265q-7 -7 -9 -13l-9 -11h290q-2 6 -3.5 12t-3.5 12zM527 208h177l-5 37h-178zM517 271h178l-5 34h-178zM275 334h202l22 30h-200zM508 334h177l-4 30h-178zM20 0h423q2 1 4.5 2.5t5.5 4.5h-431q0 3 -2 -7zM620 530h-168q-8 0 -19 -8h203q-8 8 -16 8zM503 648h100
q-1 4 -1.5 7t-0.5 7h-99q-1 -6 1 -14zM559 0h178l-1 7h-178zM562 586q9 0 11 2l6 4q8 3 12 10h-67q18 -16 38 -16zM569 717q-4 0 -10 -2l-15 -5h40q-7 7 -15 7z" />
    <glyph glyph-name="FL00C1h" unicode="&#xc1;" 
d="M538 113l5 -30h181l-7 43h-604l-34 -43h439q16 21 20 30zM506 67h-439l-37 -47h436q10 10 20 22t20 25zM325 397h351l-4 27h-326zM555 20h179l-8 47h-180zM128 146h208l30 40h-206zM177 208h206l27 37h-204zM536 146h178l-6 40h-178zM226 271h204l25 34h-202zM656 483
h-265q-7 -7 -9 -13l-9 -11h290q-2 6 -3.5 12t-3.5 12zM527 208h177l-5 37h-178zM517 271h178l-5 34h-178zM275 334h202l22 30h-200zM508 334h177l-4 30h-178zM20 0h423q2 1 4.5 2.5t5.5 4.5h-431q0 3 -2 -7zM620 530h-168q-8 0 -19 -8h203q-8 8 -16 8zM520 648h99l6.5 6.5
t5.5 7.5h-99q-3 -4 -6 -7t-6 -7zM559 0h178l-1 7h-178zM504 593l3 -4q2 -2 10 -2q9 0 21.5 4t25.5 11h-65q2 -7 5 -9zM605 718q-11 0 -22 -8h44q-11 8 -22 8z" />
    <glyph glyph-name="FL00C2h" unicode="&#xc2;" 
d="M538 113l5 -30h181l-7 43h-604l-34 -43h439q16 21 20 30zM506 67h-439l-37 -47h436q10 10 20 22t20 25zM325 397h351l-4 27h-326zM555 20h179l-8 47h-180zM128 146h208l30 40h-206zM177 208h206l27 37h-204zM536 146h178l-6 40h-178zM226 271h204l25 34h-202zM656 483
h-265q-7 -7 -9 -13l-9 -11h290q-2 6 -3.5 12t-3.5 12zM527 208h177l-5 37h-178zM517 271h178l-5 34h-178zM275 334h202l22 30h-200zM508 334h177l-4 30h-178zM20 0h423q2 1 4.5 2.5t5.5 4.5h-431q0 3 -2 -7zM567 652l2 -4h86l-7 14h-159l-14 -14h88zM620 530h-168
q-8 0 -19 -8h203q-8 8 -16 8zM559 0h178l-1 7h-178zM510 593l8 9h-90l-9 -9q-2 -2 91 0zM601 593h82l-5 9h-82z" />
    <glyph glyph-name="FL00C3h" unicode="&#xc3;" 
d="M538 113l5 -30h181l-7 43h-604l-34 -43h439q16 21 20 30zM506 67h-439l-37 -47h436q10 10 20 22t20 25zM325 397h351l-4 27h-326zM555 20h179l-8 47h-180zM128 146h208l30 40h-206zM177 208h206l27 37h-204zM536 146h178l-6 40h-178zM226 271h204l25 34h-202zM656 483
h-265q-7 -7 -9 -13l-9 -11h290q-2 6 -3.5 12t-3.5 12zM527 208h177l-5 37h-178zM517 271h178l-5 34h-178zM275 334h202l22 30h-200zM508 334h177l-4 30h-178zM633 651l-6 11h-168l-14 -14h89l4 4l2 -4h179q5 4 8 7l7 7h-90zM20 0h423q2 1 4.5 2.5t5.5 4.5h-431q0 3 -2 -7z
M620 530h-168q-8 0 -19 -8h203q-8 8 -16 8zM559 0h178l-1 7h-178zM571 593h82q4 0 9 3t9 6h-105zM480 593l9 9h-91l-9 -9h91z" />
    <glyph glyph-name="FL00C4h" unicode="&#xc4;" 
d="M538 113l5 -30h181l-7 43h-604l-34 -43h439q16 21 20 30zM506 67h-439l-37 -47h436q10 10 20 22t20 25zM325 397h351l-4 27h-326zM555 20h179l-8 47h-180zM128 146h208l30 40h-206zM177 208h206l27 37h-204zM536 146h178l-6 40h-178zM226 271h204l25 34h-202zM656 483
h-265q-7 -7 -9 -13l-9 -11h290q-2 6 -3.5 12t-3.5 12zM527 208h177l-5 37h-178zM517 271h178l-5 34h-178zM275 334h202l22 30h-200zM508 334h177l-4 30h-178zM20 0h423q2 1 4.5 2.5t5.5 4.5h-431q0 3 -2 -7zM727 653q2 6 2 9h-125q-2 -3 -4 -9q-1 -2 -1 -3t-1 -2h127
q0 1 2 5zM419 653q-1 -2 -1 -3t-1 -2h127q0 1 2 5q2 6 2 9h-125q-2 -3 -4 -9zM620 530h-168q-8 0 -19 -8h203q-8 8 -16 8zM559 0h178l-1 7h-178zM460 594q17 0 36 8h-66q13 -8 30 -8zM642 594q17 0 35 8h-65q9 -8 30 -8zM503 712q-5 0 -9 -0.5t-9 -1.5h34q-4 1 -7.5 1.5
t-8.5 0.5zM685 712q-5 0 -9 -0.5t-9 -1.5h34q-4 1 -7.5 1.5t-8.5 0.5z" />
    <glyph glyph-name="FL00C5h" unicode="&#xc5;" 
d="M538 113l5 -30h181l-7 43h-604l-34 -43h439q16 21 20 30zM506 67h-439l-37 -47h436q10 10 20 22t20 25zM325 397h351l-4 27h-326zM555 20h179l-8 47h-180zM128 146h208l30 40h-206zM177 208h206l27 37h-204zM536 146h178l-6 40h-178zM226 271h204l25 34h-202zM656 483
h-265q-7 -7 -9 -13l-9 -11h290q-2 6 -3.5 12t-3.5 12zM527 208h177l-5 37h-178zM517 271h178l-5 34h-178zM275 334h202l22 30h-200zM508 334h177l-4 30h-178zM20 0h423q2 1 4.5 2.5t5.5 4.5h-431q0 3 -2 -7zM511 653q-1 -2 -1 -3t-1 -2h127q0 1 2 5q2 6 2 9h-125
q-2 -3 -4 -9zM620 530h-168q-8 0 -19 -8h203q-8 8 -16 8zM559 0h178l-1 7h-178zM552 594q17 0 36 8h-66q13 -8 30 -8zM595 712q-5 0 -9 -0.5t-9 -1.5h34q-4 1 -7.5 1.5t-8.5 0.5z" />
    <glyph glyph-name="FL00C6h" unicode="&#xc6;" horiz-adv-x="1163" 
d="M538 113l5 -30h607q2 2 4 5t4 5t9 13t12 20h-1066l-34 -43h439q16 21 20 30zM1135 67h-589l9 -47h533q11 10 23.5 22t23.5 25zM506 67h-439l-37 -47h436q10 10 20 22t20 25zM527 208h509l39 37h-229l-7 -7l2 7h-320zM1243 424h-528l-10 -27h506q6 3 14 10t18 17z
M1293 483h-556l-9 -24h546q5 6 9.5 12t9.5 12zM517 271h334l12 34h-351zM536 146h269l14 40h-289zM681 364h-178l5 -30h366l11 30h-192l-8 -24zM325 397h351l-4 27h-326zM128 146h208l30 40h-206zM873 271h229l36 34h-230zM177 208h206l27 37h-204zM226 271h204l25 34h-202z
M657 483h-266q-7 -7 -9 -13l-9 -11h292l-4 12zM275 334h202l22 30h-200zM754 530l-3 -8h569l2 4l2 4h-570zM559 0h505l2.5 1.5t6.5 5.5h-515zM20 0h423q2 1 4.5 2.5t5.5 4.5h-431q0 3 -2 -7zM620 530h-168q-8 0 -19 -8h202q-8 8 -15 8z" />
    <glyph glyph-name="FL00C7h" unicode="&#xc7;" horiz-adv-x="631" 
d="M186 83h433q8 11 16 21.5t16 21.5h-497q7 -12 14.5 -23t17.5 -20zM299 20h262q24 21 45 47h-402q41 -32 95 -47zM176 397h504l30 27h-514q-5 -7 -10 -13.5t-10 -13.5zM228 459h515l21 24h-508q-8 -6 -14.5 -12t-13.5 -12zM123 -105h250l19 53h-199zM144 146h239
q-11 7 -22 17.5t-20 22.5h-209q4 -22 12 -40zM206 -42h189l16 43q3 -1 12 -1h115q3 2 8 7h-252l-11 -31h-53zM129 208h198q-5 9 -8 18.5t-5 18.5h-187v-2v-18t2 -17zM129 271h185q1 6 3 12.5t4 14.5q1 2 1 3q0 2 1 4h-188q-5 -18 -6 -34zM144 334h194q5 8 10 15.5t11 14.5
h-201l-7.5 -15t-6.5 -15zM333 522h462q2 2 6 8h-413q-26 0 -55 -8zM108 -116h261l1 4h-257z" />
    <glyph glyph-name="FL00C8h" unicode="&#xc8;" horiz-adv-x="625" 
d="M602 67h-550l-17 -47h520q11 10 23.5 22t23.5 25zM625 93q2 2 9 13t12 20h-573l-15 -43h559q2 2 4 5t4 5zM103 208h400l39 37h-229l-7 -7l2 7h-191zM710 424h-528l-10 -27h506q6 3 14 10t18 17zM760 483h-556l-9 -24h546q5 6 9.5 12t9.5 12zM340 271h229l36 34h-230z
M81 146h191l14 40h-191zM126 271h192l12 34h-191zM149 334h192l11 30h-192zM791 530h-570l-3 -8h569l2 4zM28 0h503l2.5 1.5t6.5 5.5h-510zM461 648h99q0 4 -0.5 7t-1.5 7h-99q0 -6 2 -14zM532 721h-14q-5 -2 -20 -7q-2 -2 -3.5 -2.5t-3.5 -1.5h52q-3 8 -11 11zM519 591
q1 0 11 2l6 4q3 1 7 5h-55q14 -11 31 -11z" />
    <glyph glyph-name="FL00C9h" unicode="&#xc9;" horiz-adv-x="625" 
d="M602 67h-550l-17 -47h520q11 10 23.5 22t23.5 25zM625 93q2 2 9 13t12 20h-573l-15 -43h559q2 2 4 5t4 5zM103 208h400l39 37h-229l-7 -7l2 7h-191zM710 424h-528l-10 -27h506q6 3 14 10t18 17zM760 483h-556l-9 -24h546q5 6 9.5 12t9.5 12zM340 271h229l36 34h-230z
M81 146h191l14 40h-191zM126 271h192l12 34h-191zM149 334h192l11 30h-192zM791 530h-570l-3 -8h569l2 4zM28 0h503l2.5 1.5t6.5 5.5h-510zM473 648h99l6.5 6.5t6.5 7.5h-100q-3 -4 -6 -7t-6 -7zM585 715q-3 2 -5.5 3t-5.5 3h-22q-10 -5 -17 -11h54q-1 2 -2 2.5t-2 2.5z
M462 598l3 -4q2 -2 9 -2q14 0 36 10h-52q1 -3 4 -4z" />
    <glyph glyph-name="FL00CAh" unicode="&#xca;" horiz-adv-x="625" 
d="M602 67h-550l-17 -47h520q11 10 23.5 22t23.5 25zM625 93q2 2 9 13t12 20h-573l-15 -43h559q2 2 4 5t4 5zM103 208h400l39 37h-229l-7 -7l2 7h-191zM710 424h-528l-10 -27h506q6 3 14 10t18 17zM760 483h-556l-9 -24h546q5 6 9.5 12t9.5 12zM340 271h229l36 34h-230z
M81 146h191l14 40h-191zM126 271h192l12 34h-191zM149 334h192l11 30h-192zM791 530h-570l-3 -8h569l2 4zM28 0h503l2.5 1.5t6.5 5.5h-510zM528 655l4 -7h84l-7 14h-164l-14 -14h90zM469 596l6 6h-91l-6 -6h91zM560 596h82l-3 6h-82zM570 713h-62q-4 0 -10 -3h81q-5 3 -9 3z
" />
    <glyph glyph-name="FL00CBh" unicode="&#xcb;" horiz-adv-x="625" 
d="M602 67h-550l-17 -47h520q11 10 23.5 22t23.5 25zM625 93q2 2 9 13t12 20h-573l-15 -43h559q2 2 4 5t4 5zM103 208h400l39 37h-229l-7 -7l2 7h-191zM710 424h-528l-10 -27h506q6 3 14 10t18 17zM760 483h-556l-9 -24h546q5 6 9.5 12t9.5 12zM340 271h229l36 34h-230z
M81 146h191l14 40h-191zM126 271h192l12 34h-191zM149 334h192l11 30h-192zM791 530h-570l-3 -8h569l2 4zM28 0h503l2.5 1.5t6.5 5.5h-510zM391 653q-1 -2 -1 -3t-1 -2h127q0 1 2 5q2 6 2 9h-125q-2 -3 -4 -9zM699 653q2 6 2 9h-125q-2 -3 -4 -9q-1 -2 -1 -3t-1 -2h127
q0 1 2 5zM432 594q17 0 36 8h-66q13 -8 30 -8zM614 594q17 0 35 8h-65q9 -8 30 -8zM657 712q-5 0 -9 -0.5t-9 -1.5h34q-4 1 -7.5 1.5t-8.5 0.5zM475 712q-5 0 -9 -0.5t-9 -1.5h34q-4 1 -7.5 1.5t-8.5 0.5z" />
    <glyph glyph-name="FL00CCh" unicode="&#xcc;" horiz-adv-x="248" 
d="M35 20h192l17 47h-192zM58 83h192l15 43h-192zM81 146h192l14 40h-192zM103 208h192l14 37h-192zM126 271h192l13 34h-192zM149 334h192l11 30h-192zM172 397h192l10 27h-192zM195 459h192l9 24h-192zM221 530l-3 -8h192l3 8h-192zM295 648h100q-1 4 -1.5 7t-1.5 7h-99
q0 -10 2 -14zM220 0l2 7h-192l-2 -7h192zM354 587q8 0 10 2l7 4q7 3 11 9h-65q17 -15 37 -15zM360 718q-6 0 -28 -8h44q-6 8 -16 8z" />
    <glyph glyph-name="FL00CDh" unicode="&#xcd;" horiz-adv-x="248" 
d="M35 20h192l17 47h-192zM58 83h192l15 43h-192zM81 146h192l14 40h-192zM103 208h192l14 37h-192zM126 271h192l13 34h-192zM149 334h192l11 30h-192zM172 397h192l10 27h-192zM195 459h192l9 24h-192zM413 530h-192l-3 -8h192zM306 648h100l6.5 6.5t6.5 7.5h-100
q-3 -4 -6.5 -7t-6.5 -7zM220 0l2 7h-192l-2 -7h192zM293 595l3 -4q2 -2 9 -2q8 0 19.5 3.5t22.5 9.5h-59q1 -3 5 -7zM394 720q-11 0 -24 -10h48q-2 0 -2 2q-11 8 -22 8z" />
    <glyph glyph-name="FL00CEh" unicode="&#xce;" horiz-adv-x="248" 
d="M35 20h192l17 47h-192zM58 83h192l15 43h-192zM81 146h192l14 40h-192zM103 208h192l14 37h-192zM126 271h192l13 34h-192zM149 334h192l11 30h-192zM172 397h192l10 27h-192zM195 459h192l9 24h-192zM358 654l3 -6h85l-7 14h-162l-14 -14h89zM413 530h-192l-3 -8h192z
M220 0l2 7h-192l-2 -7h192zM300 595l7 7h-91l-7 -7h91zM391 595h82l-4 7h-82zM400 712h-62q-2 0 -8 -2h77q-4 2 -7 2z" />
    <glyph glyph-name="FL00CFh" unicode="&#xcf;" horiz-adv-x="248" 
d="M35 20h192l17 47h-192zM58 83h192l15 43h-192zM81 146h192l14 40h-192zM103 208h192l14 37h-192zM126 271h192l13 34h-192zM149 334h192l11 30h-192zM172 397h192l10 27h-192zM195 459h192l9 24h-192zM518 653q2 6 2 9h-125q-2 -3 -4 -9q-1 -2 -1 -3t-1 -2h127q0 1 2 5z
M210 653q-1 -2 -1 -3t-1 -2h127q0 1 2 5q2 6 2 9h-125q-2 -3 -4 -9zM413 530h-192l-3 -8h192zM220 0l2 7h-192l-2 -7h192zM251 594q17 0 36 8h-66q13 -8 30 -8zM433 594q17 0 35 8h-65q9 -8 30 -8zM476 712q-5 0 -9 -0.5t-9 -1.5h34q-4 1 -7.5 1.5t-8.5 0.5zM294 712
q-5 0 -9 -0.5t-9 -1.5h34q-4 1 -7.5 1.5t-8.5 0.5z" />
    <glyph glyph-name="FL00D0h" unicode="&#xd0;" horiz-adv-x="773" 
d="M715 126h-532l-15 -43h496q13 9 25.5 20t25.5 23zM641 67h-479l-17 -47h393q55 16 103 47zM880 424h-588l-10 -27h597q1 7 1 13v14zM862 483h-548l-9 -24h568q-2 6 -5 12zM103 208h341l39 37h-341zM169 271h341l36 34h-341zM772 186h-226q-41 -26 -84 -40h273
q9 9 18.5 19t18.5 21zM191 146h194l14 40h-194zM817 243l0.5 0.5t0.5 1.5h-194q-9 -9 -20 -18.5t-24 -18.5h210q7 8 13.5 17t13.5 18zM854 305h-191q-1 -3 -3 -7q-7 -14 -16 -27h192q11 17 18 34zM874 364h-203q1 -3 1 -9q0 -5 -0.5 -10.5t-1.5 -10.5h196q2 8 4 15t4 15z
M259 334h194l11 30h-194zM766 530h-435l-3 -8h486q-22 8 -48 8zM387 0q25 0 48 1.5t46 5.5h-341l-2 -7h249z" />
    <glyph glyph-name="FL00D1h" unicode="&#xd1;" horiz-adv-x="654" 
d="M517 245h-179l7 -37h356l14 37h-190l-5 -13zM356 146h323l14 40h-344zM368 83h288l15 43h-311zM328 298l5 -27h179l-6 34h-367l-13 -34h192zM380 20h253l17 47h-279zM149 334h351l-6 30h-334zM35 20h192l17 47h-192zM172 397h316l-5 27h-301zM58 83h192l15 43h-192z
M81 146h192l14 40h-192zM103 208h192l14 37h-192zM195 459h281l-4 24h-268zM534 271h190l13 34h-190zM557 334h190l11 30h-190zM580 397h190l10 27h-190zM603 459h190l9 24h-190zM592 651l-6 11h-168l-14 -14h89l4 4l2 -4h179q5 4 8 7l7 7h-90zM221 530l-3 -8h246l-1 8h-242
zM384 0h242l2 7h-245zM819 530h-190l-3 -8h190zM220 0l2 7h-192l-2 -7h192zM530 593h82q4 0 9 3t9 6h-105zM439 593l9 9h-91l-9 -9h91z" />
    <glyph glyph-name="FL00D2h" unicode="&#xd2;" horiz-adv-x="721" 
d="M140 83h531q12 10 23 20.5t21 22.5h-595q4 -12 8.5 -23t11.5 -20zM226 20h342q45 16 83 47h-499q27 -31 74 -47zM785 424h-571q-14 -14 -24 -27h605q-2 7 -4.5 13.5t-5.5 13.5zM738 483h-453l-33 -24h511q-11 14 -25 24zM320 186h-208q0 -11 1 -21t3 -19h240
q-22 14 -36 40zM493 146h239q16 21 27 40h-208q-14 -13 -29 -23t-29 -17zM590 232l-8 -12t-9 -12h198q9 19 15 37h-189q-2 -3 -3.5 -6.5t-3.5 -6.5zM304 245h-188v-2q-2 -9 -2.5 -18t-1.5 -17h198q-6 18 -6 37zM797 287q1 5 1.5 9t0.5 9h-190q-1 -9 -1 -17q0 -7 -1 -15
l-0.5 -0.5t-0.5 -1.5h188q1 4 1.5 7.5t1.5 8.5zM319 298q2 4 4 7h-189q-8 -19 -12 -34h186q2 10 11 27zM377 364h-211q-11 -15 -18 -30h196q15 16 33 30zM607 334h194q1 8 0.5 15t-1.5 15h-204q8 -15 11 -30zM557 530h-132q-27 0 -56 -8h276q-43 8 -88 8zM369 0h100
q31 0 59 7h-251q21 -4 44 -5.5t48 -1.5zM532 648h99q0 4 -0.5 7t-1.5 7h-99q0 -6 2 -14zM590 589q9 0 11 2l7 4q4 1 8 7h-60q16 -13 34 -13zM597 720q-6 0 -28 -8q-2 -2 -4 -2h49q-7 10 -17 10z" />
    <glyph glyph-name="FL00D3h" unicode="&#xd3;" horiz-adv-x="721" 
d="M140 83h531q12 10 23 20.5t21 22.5h-595q4 -12 8.5 -23t11.5 -20zM226 20h342q45 16 83 47h-499q27 -31 74 -47zM785 424h-571q-14 -14 -24 -27h605q-2 7 -4.5 13.5t-5.5 13.5zM738 483h-453l-33 -24h511q-11 14 -25 24zM320 186h-208q0 -11 1 -21t3 -19h240
q-22 14 -36 40zM493 146h239q16 21 27 40h-208q-14 -13 -29 -23t-29 -17zM590 232l-8 -12t-9 -12h198q9 19 15 37h-189q-2 -3 -3.5 -6.5t-3.5 -6.5zM304 245h-188v-2q-2 -9 -2.5 -18t-1.5 -17h198q-6 18 -6 37zM797 287q1 5 1.5 9t0.5 9h-190q-1 -9 -1 -17q0 -7 -1 -15
l-0.5 -0.5t-0.5 -1.5h188q1 4 1.5 7.5t1.5 8.5zM319 298q2 4 4 7h-189q-8 -19 -12 -34h186q2 10 11 27zM377 364h-211q-11 -15 -18 -30h196q15 16 33 30zM607 334h194q1 8 0.5 15t-1.5 15h-204q8 -15 11 -30zM557 530h-132q-27 0 -56 -8h276q-43 8 -88 8zM369 0h100
q31 0 59 7h-251q21 -4 44 -5.5t48 -1.5zM539 648h100l6.5 6.5t6.5 7.5h-100q-3 -4 -6.5 -7t-6.5 -7zM526 595l3 -4q2 -2 9 -2q8 0 19.5 3.5t22.5 9.5h-59q1 -3 5 -7zM627 720q-11 0 -24 -10h48q-2 0 -2 2q-11 8 -22 8z" />
    <glyph glyph-name="FL00D4h" unicode="&#xd4;" horiz-adv-x="721" 
d="M140 83h531q12 10 23 20.5t21 22.5h-595q4 -12 8.5 -23t11.5 -20zM226 20h342q45 16 83 47h-499q27 -31 74 -47zM785 424h-571q-14 -14 -24 -27h605q-2 7 -4.5 13.5t-5.5 13.5zM738 483h-453l-33 -24h511q-11 14 -25 24zM320 186h-208q0 -11 1 -21t3 -19h240
q-22 14 -36 40zM493 146h239q16 21 27 40h-208q-14 -13 -29 -23t-29 -17zM590 232l-8 -12t-9 -12h198q9 19 15 37h-189q-2 -3 -3.5 -6.5t-3.5 -6.5zM304 245h-188v-2q-2 -9 -2.5 -18t-1.5 -17h198q-6 18 -6 37zM797 287q1 5 1.5 9t0.5 9h-190q-1 -9 -1 -17q0 -7 -1 -15
l-0.5 -0.5t-0.5 -1.5h188q1 4 1.5 7.5t1.5 8.5zM319 298q2 4 4 7h-189q-8 -19 -12 -34h186q2 10 11 27zM377 364h-211q-11 -15 -18 -30h196q15 16 33 30zM607 334h194q1 8 0.5 15t-1.5 15h-204q8 -15 11 -30zM580 653l2 -5h85l-7 14h-161l-14 -14h90zM557 530h-132
q-27 0 -56 -8h276q-43 8 -88 8zM369 0h100q31 0 59 7h-251q21 -4 44 -5.5t48 -1.5zM521 594l8 8h-91l-8 -8h91zM612 594h82l-4 8h-83zM622 711h-62q-2 0 -2.5 -0.5t-2.5 -0.5h72q-2 0 -3 0.5t-2 0.5z" />
    <glyph glyph-name="FL00D5h" unicode="&#xd5;" horiz-adv-x="721" 
d="M140 83h531q12 10 23 20.5t21 22.5h-595q4 -12 8.5 -23t11.5 -20zM226 20h342q45 16 83 47h-499q27 -31 74 -47zM785 424h-571q-14 -14 -24 -27h605q-2 7 -4.5 13.5t-5.5 13.5zM738 483h-453l-33 -24h511q-11 14 -25 24zM116 146h240q-22 14 -36 40h-208q0 -11 1 -21
t3 -19zM759 186h-208q-14 -13 -29 -23t-29 -17h239q16 21 27 40zM786 245h-189q-2 -3 -3.5 -6.5t-3.5 -6.5l-8 -12t-9 -12h198q9 19 15 37zM112 208h198q-6 18 -6 37h-188v-2q-2 -9 -2.5 -18t-1.5 -17zM797 287q1 5 1.5 9t0.5 9h-190q-1 -9 -1 -17q0 -7 -1 -15l-0.5 -0.5
t-0.5 -1.5h188q1 4 1.5 7.5t1.5 8.5zM122 271h186q2 10 11 27q2 4 4 7h-189q-8 -19 -12 -34zM148 334h196q15 16 33 30h-211q-11 -15 -18 -30zM800 364h-204q8 -15 11 -30h194q1 8 0.5 15t-1.5 15zM628 651l-6 11h-168l-14 -14h89l4 4l2 -4h179q5 4 8 7l7 7h-90zM557 530
h-132q-27 0 -56 -8h276q-43 8 -88 8zM369 0h100q31 0 59 7h-251q21 -4 44 -5.5t48 -1.5zM566 593h82q4 0 9 3t9 6h-105zM475 593l9 9h-91l-9 -9h91z" />
    <glyph glyph-name="FL00D6h" unicode="&#xd6;" horiz-adv-x="721" 
d="M140 83h531q12 10 23 20.5t21 22.5h-595q4 -12 8.5 -23t11.5 -20zM226 20h342q45 16 83 47h-499q27 -31 74 -47zM785 424h-571q-14 -14 -24 -27h605q-2 7 -4.5 13.5t-5.5 13.5zM738 483h-453l-33 -24h511q-11 14 -25 24zM320 186h-208q0 -11 1 -21t3 -19h240
q-22 14 -36 40zM493 146h239q16 21 27 40h-208q-14 -13 -29 -23t-29 -17zM590 232l-8 -12t-9 -12h198q9 19 15 37h-189q-2 -3 -3.5 -6.5t-3.5 -6.5zM304 245h-188v-2q-2 -9 -2.5 -18t-1.5 -17h198q-6 18 -6 37zM797 287q1 5 1.5 9t0.5 9h-190q-1 -9 -1 -17q0 -7 -1 -15
l-0.5 -0.5t-0.5 -1.5h188q1 4 1.5 7.5t1.5 8.5zM319 298q2 4 4 7h-189q-8 -19 -12 -34h186q2 10 11 27zM377 364h-211q-11 -15 -18 -30h196q15 16 33 30zM607 334h194q1 8 0.5 15t-1.5 15h-204q8 -15 11 -30zM557 530h-132q-27 0 -56 -8h276q-43 8 -88 8zM745 653q2 6 2 9
h-125q-2 -3 -4 -9q-1 -2 -1 -3t-1 -2h127q0 1 2 5zM437 653q-1 -2 -1 -3t-1 -2h127q0 1 2 5q2 6 2 9h-125q-2 -3 -4 -9zM369 0h100q31 0 59 7h-251q21 -4 44 -5.5t48 -1.5zM478 594q17 0 36 8h-66q13 -8 30 -8zM660 594q17 0 35 8h-65q13 -8 30 -8zM521 712q-5 0 -9 -0.5
t-9 -1.5h34q-4 1 -7.5 1.5t-8.5 0.5zM703 712q-5 0 -9 -0.5t-9 -1.5h34q-4 1 -7.5 1.5t-8.5 0.5z" />
    <glyph glyph-name="FL00D7h" unicode="&#xd7;" horiz-adv-x="399" 
d="M165 208h219l-19 37h-154zM227 271h141l42 34h-200zM88 146h125l51 40h-126zM291 146h124l-20 40h-124zM306 364h-125l15 -30h126zM322 334h124l37 30h-124zM187 125l1 1h-124l-1 -1h124zM425 126h-124l1 -1h124zM164 398v-1h124v1h-124zM400 397h124l1 1h-124z" />
    <glyph glyph-name="FL00D8h" unicode="&#xd8;" horiz-adv-x="721" 
d="M140 83h531q12 10 23 20.5t21 22.5h-595q4 -12 8.5 -23t11.5 -20zM226 20h342q45 16 83 47h-499q27 -31 74 -47zM785 424h-571q-14 -14 -24 -27h605q-2 7 -4.5 13.5t-5.5 13.5zM112 208h328l52 37h-137l-47 -33q-5 18 -5 33h-187v-2q-2 -9 -2.5 -18t-1.5 -17zM738 483
h-453l-33 -24h511q-11 14 -25 24zM116 146h240h-1v1l54 39h-297q0 -11 1 -21t3 -19zM800 364h-276l-43 -30h320q1 8 0.5 15t-1.5 15zM759 186h-208q-14 -13 -29 -23t-29 -17h239q16 21 27 40zM786 245h-189q-2 -3 -3.5 -6.5t-3.5 -6.5l-8 -12t-9 -12h198q9 19 15 37z
M607 273l-0.5 -0.5t-0.5 -1.5h188q1 4 1.5 7.5t1.5 8.5t1.5 9t0.5 9h-191q1 -8 0.5 -16t-1.5 -16zM122 271h186q2 10 11 27q2 4 4 7h-189q-8 -19 -12 -34zM148 334h196q15 16 33 30h-211q-11 -15 -18 -30zM392 271h137l47 34h-136zM557 530h-132q-27 0 -56 -8h276
q-43 8 -88 8zM369 0h100q31 0 59 7h-251q21 -4 44 -5.5t48 -1.5z" />
    <glyph glyph-name="FL00D9h" unicode="&#xd9;" horiz-adv-x="682" 
d="M120 83h536q16 19 31 43h-578q1 -24 11 -43zM197 20h377q36 16 67 47h-511q22 -30 67 -47zM108 146h228q-17 13 -22 40h-203q-2 -11 -2.5 -21t-0.5 -19zM718 186h-201q-10 -12 -22.5 -22.5t-27.5 -17.5h231q5 9 10 19t10 21zM115 208h197q0 15 3 33q0 1 -0.5 1.5t0.5 2.5
h-191q-2 -10 -4.5 -19t-4.5 -18zM743 245h-190l-4 -12q-5 -10 -15 -25h193l8 18t8 19zM132 271h190q2 6 5 14.5t6 19.5h-192q-3 -9 -5 -17.5t-4 -16.5zM757 283l8 22h-190l-12 -34h189q2 3 2.5 6t2.5 6zM353 364h-191l-11 -30h192q2 7 4.5 14.5t5.5 15.5zM586 334h189l11 30
h-189zM373 424h-190l-10 -27h191zM609 397h189l10 27h-190zM631 459h190l9 24h-190zM195 459h190q2 5 4 11.5t4 12.5h-189zM351 0h117q18 0 35 1.5t32 5.5h-286q23 -4 48 -5.5t54 -1.5zM847 530h-190l-3 -8h190zM410 530h-189l-3 -8h189q1 2 1.5 4t1.5 4zM513 648h100
q-1 4 -1.5 7t-0.5 7h-100q0 -6 2 -14zM572 588q1 0 11 2l6 4q6 3 10 8h-62q16 -14 35 -14zM579 719q-6 0 -28 -8q-1 -1 -2 -1v0h46q-7 9 -16 9z" />
    <glyph glyph-name="FL00DAh" unicode="&#xda;" horiz-adv-x="682" 
d="M120 83h536q16 19 31 43h-578q1 -24 11 -43zM197 20h377q36 16 67 47h-511q22 -30 67 -47zM108 146h228q-17 13 -22 40h-203q-2 -11 -2.5 -21t-0.5 -19zM718 186h-201q-10 -12 -22.5 -22.5t-27.5 -17.5h231q5 9 10 19t10 21zM115 208h197q0 15 3 33q0 1 -0.5 1.5t0.5 2.5
h-191q-2 -10 -4.5 -19t-4.5 -18zM743 245h-190l-4 -12q-5 -10 -15 -25h193l8 18t8 19zM132 271h190q2 6 5 14.5t6 19.5h-192q-3 -9 -5 -17.5t-4 -16.5zM757 283l8 22h-190l-12 -34h189q2 3 2.5 6t2.5 6zM353 364h-191l-11 -30h192q2 7 4.5 14.5t5.5 15.5zM586 334h189l11 30
h-189zM373 424h-190l-10 -27h191zM609 397h189l10 27h-190zM631 459h190l9 24h-190zM195 459h190q2 5 4 11.5t4 12.5h-189zM351 0h117q18 0 35 1.5t32 5.5h-286q23 -4 48 -5.5t54 -1.5zM847 530h-190l-3 -8h190zM410 530h-189l-3 -8h189q1 2 1.5 4t1.5 4zM527 648h99
l6.5 6.5t5.5 7.5h-98q-3 -4 -6.5 -7t-6.5 -7zM512 594l4 -4q0 -2 9 -2q8 0 20 4t24 10h-62q1 -6 5 -8zM614 719q-6 0 -11.5 -2.5t-11.5 -6.5h46q-1 0 -1 1q-11 8 -22 8z" />
    <glyph glyph-name="FL00DBh" unicode="&#xdb;" horiz-adv-x="682" 
d="M120 83h536q16 19 31 43h-578q1 -24 11 -43zM197 20h377q36 16 67 47h-511q22 -30 67 -47zM108 146h228q-17 13 -22 40h-203q-2 -11 -2.5 -21t-0.5 -19zM718 186h-201q-10 -12 -22.5 -22.5t-27.5 -17.5h231q5 9 10 19t10 21zM115 208h197q0 15 3 33q0 1 -0.5 1.5t0.5 2.5
h-191q-2 -10 -4.5 -19t-4.5 -18zM743 245h-190l-4 -12q-5 -10 -15 -25h193l8 18t8 19zM132 271h190q2 6 5 14.5t6 19.5h-192q-3 -9 -5 -17.5t-4 -16.5zM757 283l8 22h-190l-12 -34h189q2 3 2.5 6t2.5 6zM353 364h-191l-11 -30h192q2 7 4.5 14.5t5.5 15.5zM586 334h189l11 30
h-189zM373 424h-190l-10 -27h191zM609 397h189l10 27h-190zM631 459h190l9 24h-190zM195 459h190q2 5 4 11.5t4 12.5h-189zM563 653l3 -5h85l-7 14h-161l-14 -14h89zM351 0h117q18 0 35 1.5t32 5.5h-286q23 -4 48 -5.5t54 -1.5zM847 530h-190l-3 -8h190zM410 530h-189l-3 -8
h189q1 2 1.5 4t1.5 4zM505 594l8 8h-91l-8 -8h91zM596 594h82l-4 8h-83zM605 711h-62q-2 0 -2.5 -0.5t-2.5 -0.5h72q-2 1 -5 1z" />
    <glyph glyph-name="FL00DCh" unicode="&#xdc;" horiz-adv-x="682" 
d="M120 83h536q16 19 31 43h-578q1 -24 11 -43zM197 20h377q36 16 67 47h-511q22 -30 67 -47zM108 146h228q-17 13 -22 40h-203q-2 -11 -2.5 -21t-0.5 -19zM718 186h-201q-10 -12 -22.5 -22.5t-27.5 -17.5h231q5 9 10 19t10 21zM115 208h197q0 15 3 33q0 1 -0.5 1.5t0.5 2.5
h-191q-2 -10 -4.5 -19t-4.5 -18zM743 245h-190l-4 -12q-5 -10 -15 -25h193l8 18t8 19zM132 271h190q2 6 5 14.5t6 19.5h-192q-3 -9 -5 -17.5t-4 -16.5zM757 283l8 22h-190l-12 -34h189q2 3 2.5 6t2.5 6zM353 364h-191l-11 -30h192q2 7 4.5 14.5t5.5 15.5zM586 334h189l11 30
h-189zM373 424h-190l-10 -27h191zM609 397h189l10 27h-190zM631 459h190l9 24h-190zM195 459h190q2 5 4 11.5t4 12.5h-189zM422 652l-2 -4h127l2 4q2 6 2 10h-125q-1 -2 -2 -5t-2 -5zM730 652q2 6 2 10h-125q-2 -2 -2.5 -5t-1.5 -5l-2 -4h127zM351 0h117q18 0 35 1.5t32 5.5
h-286q23 -4 48 -5.5t54 -1.5zM847 530h-190l-3 -8h190zM410 530h-189l-3 -8h189q1 2 1.5 4t1.5 4zM646 593q20 0 38 9h-70q12 -9 32 -9zM464 593q20 0 38 9h-69q10 -9 31 -9zM689 711q-9 0 -14 -1h26q-4 1 -12 1zM507 711q-9 0 -14 -1h26q-4 1 -12 1z" />
    <glyph glyph-name="FL00DDh" unicode="&#xdd;" horiz-adv-x="656" 
d="M467 424h-213l11 -27h415l31 27h-215l-21 -19zM290 334h319l34 30h-365zM239 20h192l17 47h-192zM316 271h221l39 34h-274zM262 83h192l16 43h-192zM285 146h192l15 40h-192zM308 208h192l13 37h-192zM536 459h214l27 24h-214zM240 459h213l-10 24h-213zM831 530h-214
l-9 -8h214zM211 530l3 -8h214l-3 8h-214zM517 648h99l6.5 6.5t5.5 7.5h-98q-3 -4 -6.5 -7t-6.5 -7zM424 0l2 7h-192l-2 -7h192zM502 594l4 -4q0 -2 9 -2q8 0 20 4t24 10h-62q1 -6 5 -8zM604 719q-6 0 -11.5 -2.5t-11.5 -6.5h46q-1 0 -1 1q-11 8 -22 8z" />
    <glyph glyph-name="FL00DEh" unicode="&#xde;" horiz-adv-x="680" 
d="M253 92h281q55 0 111 34h-572l-15 -43h192zM725 364h-565l-11 -30h587q-2 8 -5 15t-6 15zM712 186h-391l-45 -40h398q20 16 38 40zM327 294h205q2 0 9.5 -8.5t10.5 -13.5v-1h192q1 4 1 12q-1 5 -1 10q0 6 -2 12h-603l-13 -34h193zM672 424h-490l-10 -27h533
q-14 18 -33 27zM740 245h-198q-5 -7 -9 -12.5t-5 -5.5h-160l-22 -19h379q5 8 8.5 17.5t6.5 19.5zM35 20h192l17 47h-192zM81 146h192l15 40h-193zM103 208h193l13 37h-192zM195 459h192l9 24h-192zM413 530h-192l-3 -8h192zM28 0h192l2 7h-192z" />
    <glyph glyph-name="FL00DFh" unicode="&#xdf;" horiz-adv-x="671" 
d="M659 67h-373q-8 -11 -16.5 -23t-16.5 -24h351q34 16 55 47zM689 126h-356q-10 -11 -18.5 -21.5t-17.5 -21.5h371q5 9 10.5 20t10.5 23zM172 397h590q-1 6 -1.5 12.5t-2.5 14.5h-569q-5 -7 -8.5 -13.5t-7.5 -12.5zM215 459h532l-6 12t-7 12h-499l-10 -12zM694 245h-278
l-42 -37h337q-1 13 -6.5 21.5t-10.5 15.5zM-10 -105h192l19 53h-192zM13 -42h191l18 49h-191zM35 20h192l17 47h-192zM738 305h-253l-39 -34h263q16 13 29 34zM709 186h-207q0 -14 -3 -18l-2 -5q-1 -1 -2.5 -3l-1.5 -2q-3 -2 -8 -5.5t-10 -6.5h221q8 18 13 40zM58 83h192
l15 43h-191zM81 146h192l14 40h-191zM104 208h191l14 37h-192zM127 271h191l13 34h-192zM762 364h-191l-1 -2q-2 -4 -7.5 -12.5t-10.5 -15.5h201q6 15 9 30zM150 334h191l11 30h-191zM-23 -141h192l10 29h-191zM269 522h426q-16 8 -33 8h-385l-4 -4zM562 7h-317
q-2 -2 -3 -3.5t-2 -3.5h229q58 0 93 7z" />
    <glyph glyph-name="FL00E0h" unicode="&#xe0;" 
d="M538 113l5 -30h181l-7 43h-604l-34 -43h439q16 21 20 30zM506 67h-439l-37 -47h436q10 10 20 22t20 25zM325 397h351l-4 27h-326zM555 20h179l-8 47h-180zM128 146h208l30 40h-206zM177 208h206l27 37h-204zM536 146h178l-6 40h-178zM226 271h204l25 34h-202zM656 483
h-265q-7 -7 -9 -13l-9 -11h290q-2 6 -3.5 12t-3.5 12zM527 208h177l-5 37h-178zM517 271h178l-5 34h-178zM275 334h202l22 30h-200zM508 334h177l-4 30h-178zM20 0h423q2 1 4.5 2.5t5.5 4.5h-431q0 3 -2 -7zM620 530h-168q-8 0 -19 -8h203q-8 8 -16 8zM503 648h100
q-1 4 -1.5 7t-0.5 7h-99q-1 -6 1 -14zM559 0h178l-1 7h-178zM562 586q9 0 11 2l6 4q8 3 12 10h-67q18 -16 38 -16zM569 717q-4 0 -10 -2l-15 -5h40q-7 7 -15 7z" />
    <glyph glyph-name="FL00E1h" unicode="&#xe1;" 
d="M538 113l5 -30h181l-7 43h-604l-34 -43h439q16 21 20 30zM506 67h-439l-37 -47h436q10 10 20 22t20 25zM325 397h351l-4 27h-326zM555 20h179l-8 47h-180zM128 146h208l30 40h-206zM177 208h206l27 37h-204zM536 146h178l-6 40h-178zM226 271h204l25 34h-202zM656 483
h-265q-7 -7 -9 -13l-9 -11h290q-2 6 -3.5 12t-3.5 12zM527 208h177l-5 37h-178zM517 271h178l-5 34h-178zM275 334h202l22 30h-200zM508 334h177l-4 30h-178zM20 0h423q2 1 4.5 2.5t5.5 4.5h-431q0 3 -2 -7zM620 530h-168q-8 0 -19 -8h203q-8 8 -16 8zM520 648h99l6.5 6.5
t5.5 7.5h-99q-3 -4 -6 -7t-6 -7zM559 0h178l-1 7h-178zM504 593l3 -4q2 -2 10 -2q9 0 21.5 4t25.5 11h-65q2 -7 5 -9zM605 718q-11 0 -22 -8h44q-11 8 -22 8z" />
    <glyph glyph-name="FL00E2h" unicode="&#xe2;" 
d="M538 113l5 -30h181l-7 43h-604l-34 -43h439q16 21 20 30zM506 67h-439l-37 -47h436q10 10 20 22t20 25zM325 397h351l-4 27h-326zM555 20h179l-8 47h-180zM128 146h208l30 40h-206zM177 208h206l27 37h-204zM536 146h178l-6 40h-178zM226 271h204l25 34h-202zM656 483
h-265q-7 -7 -9 -13l-9 -11h290q-2 6 -3.5 12t-3.5 12zM527 208h177l-5 37h-178zM517 271h178l-5 34h-178zM275 334h202l22 30h-200zM508 334h177l-4 30h-178zM20 0h423q2 1 4.5 2.5t5.5 4.5h-431q0 3 -2 -7zM567 652l2 -4h86l-7 14h-159l-14 -14h88zM620 530h-168
q-8 0 -19 -8h203q-8 8 -16 8zM559 0h178l-1 7h-178zM510 593l8 9h-90l-9 -9q-2 -2 91 0zM601 593h82l-5 9h-82z" />
    <glyph glyph-name="FL00E3h" unicode="&#xe3;" 
d="M538 113l5 -30h181l-7 43h-604l-34 -43h439q16 21 20 30zM506 67h-439l-37 -47h436q10 10 20 22t20 25zM325 397h351l-4 27h-326zM555 20h179l-8 47h-180zM128 146h208l30 40h-206zM177 208h206l27 37h-204zM536 146h178l-6 40h-178zM226 271h204l25 34h-202zM656 483
h-265q-7 -7 -9 -13l-9 -11h290q-2 6 -3.5 12t-3.5 12zM527 208h177l-5 37h-178zM517 271h178l-5 34h-178zM275 334h202l22 30h-200zM508 334h177l-4 30h-178zM633 651l-6 11h-168l-14 -14h89l4 4l2 -4h179q5 4 8 7l7 7h-90zM20 0h423q2 1 4.5 2.5t5.5 4.5h-431q0 3 -2 -7z
M620 530h-168q-8 0 -19 -8h203q-8 8 -16 8zM559 0h178l-1 7h-178zM571 593h82q4 0 9 3t9 6h-105zM480 593l9 9h-91l-9 -9h91z" />
    <glyph glyph-name="FL00E4h" unicode="&#xe4;" 
d="M538 113l5 -30h181l-7 43h-604l-34 -43h439q16 21 20 30zM506 67h-439l-37 -47h436q10 10 20 22t20 25zM325 397h351l-4 27h-326zM555 20h179l-8 47h-180zM128 146h208l30 40h-206zM177 208h206l27 37h-204zM536 146h178l-6 40h-178zM226 271h204l25 34h-202zM656 483
h-265q-7 -7 -9 -13l-9 -11h290q-2 6 -3.5 12t-3.5 12zM527 208h177l-5 37h-178zM517 271h178l-5 34h-178zM275 334h202l22 30h-200zM508 334h177l-4 30h-178zM20 0h423q2 1 4.5 2.5t5.5 4.5h-431q0 3 -2 -7zM727 653q2 6 2 9h-125q-2 -3 -4 -9q-1 -2 -1 -3t-1 -2h127
q0 1 2 5zM419 653q-1 -2 -1 -3t-1 -2h127q0 1 2 5q2 6 2 9h-125q-2 -3 -4 -9zM620 530h-168q-8 0 -19 -8h203q-8 8 -16 8zM559 0h178l-1 7h-178zM460 594q17 0 36 8h-66q13 -8 30 -8zM642 594q17 0 35 8h-65q9 -8 30 -8zM503 712q-5 0 -9 -0.5t-9 -1.5h34q-4 1 -7.5 1.5
t-8.5 0.5zM685 712q-5 0 -9 -0.5t-9 -1.5h34q-4 1 -7.5 1.5t-8.5 0.5z" />
    <glyph glyph-name="FL00E5h" unicode="&#xe5;" 
d="M538 113l5 -30h181l-7 43h-604l-34 -43h439q16 21 20 30zM506 67h-439l-37 -47h436q10 10 20 22t20 25zM325 397h351l-4 27h-326zM555 20h179l-8 47h-180zM128 146h208l30 40h-206zM177 208h206l27 37h-204zM536 146h178l-6 40h-178zM226 271h204l25 34h-202zM656 483
h-265q-7 -7 -9 -13l-9 -11h290q-2 6 -3.5 12t-3.5 12zM527 208h177l-5 37h-178zM517 271h178l-5 34h-178zM275 334h202l22 30h-200zM508 334h177l-4 30h-178zM20 0h423q2 1 4.5 2.5t5.5 4.5h-431q0 3 -2 -7zM511 653q-1 -2 -1 -3t-1 -2h127q0 1 2 5q2 6 2 9h-125
q-2 -3 -4 -9zM620 530h-168q-8 0 -19 -8h203q-8 8 -16 8zM559 0h178l-1 7h-178zM552 594q17 0 36 8h-66q13 -8 30 -8zM595 712q-5 0 -9 -0.5t-9 -1.5h34q-4 1 -7.5 1.5t-8.5 0.5z" />
    <glyph glyph-name="FL00E6h" unicode="&#xe6;" horiz-adv-x="1163" 
d="M538 113l5 -30h607q2 2 4 5t4 5t9 13t12 20h-1066l-34 -43h439q16 21 20 30zM1135 67h-589l9 -47h533q11 10 23.5 22t23.5 25zM506 67h-439l-37 -47h436q10 10 20 22t20 25zM527 208h509l39 37h-229l-7 -7l2 7h-320zM1243 424h-528l-10 -27h506q6 3 14 10t18 17z
M1293 483h-556l-9 -24h546q5 6 9.5 12t9.5 12zM517 271h334l12 34h-351zM536 146h269l14 40h-289zM681 364h-178l5 -30h366l11 30h-192l-8 -24zM325 397h351l-4 27h-326zM128 146h208l30 40h-206zM873 271h229l36 34h-230zM177 208h206l27 37h-204zM226 271h204l25 34h-202z
M657 483h-266q-7 -7 -9 -13l-9 -11h292l-4 12zM275 334h202l22 30h-200zM754 530l-3 -8h569l2 4l2 4h-570zM559 0h505l2.5 1.5t6.5 5.5h-515zM20 0h423q2 1 4.5 2.5t5.5 4.5h-431q0 3 -2 -7zM620 530h-168q-8 0 -19 -8h202q-8 8 -15 8z" />
    <glyph glyph-name="FL00E7h" unicode="&#xe7;" horiz-adv-x="631" 
d="M186 83h433q8 11 16 21.5t16 21.5h-497q7 -12 14.5 -23t17.5 -20zM299 20h262q24 21 45 47h-402q41 -32 95 -47zM176 397h504l30 27h-514q-5 -7 -10 -13.5t-10 -13.5zM228 459h515l21 24h-508q-8 -6 -14.5 -12t-13.5 -12zM123 -105h250l19 53h-199zM144 146h239
q-11 7 -22 17.5t-20 22.5h-209q4 -22 12 -40zM206 -42h189l16 43q3 -1 12 -1h115q3 2 8 7h-252l-11 -31h-53zM129 208h198q-5 9 -8 18.5t-5 18.5h-187v-2v-18t2 -17zM129 271h185q1 6 3 12.5t4 14.5q1 2 1 3q0 2 1 4h-188q-5 -18 -6 -34zM144 334h194q5 8 10 15.5t11 14.5
h-201l-7.5 -15t-6.5 -15zM333 522h462q2 2 6 8h-413q-26 0 -55 -8zM108 -116h261l1 4h-257z" />
    <glyph glyph-name="FL00E8h" unicode="&#xe8;" horiz-adv-x="625" 
d="M602 67h-550l-17 -47h520q11 10 23.5 22t23.5 25zM625 93q2 2 9 13t12 20h-573l-15 -43h559q2 2 4 5t4 5zM103 208h400l39 37h-229l-7 -7l2 7h-191zM710 424h-528l-10 -27h506q6 3 14 10t18 17zM760 483h-556l-9 -24h546q5 6 9.5 12t9.5 12zM340 271h229l36 34h-230z
M81 146h191l14 40h-191zM126 271h192l12 34h-191zM149 334h192l11 30h-192zM791 530h-570l-3 -8h569l2 4zM28 0h503l2.5 1.5t6.5 5.5h-510zM461 648h99q0 4 -0.5 7t-1.5 7h-99q0 -6 2 -14zM532 721h-14q-5 -2 -20 -7q-2 -2 -3.5 -2.5t-3.5 -1.5h52q-3 8 -11 11zM519 591
q1 0 11 2l6 4q3 1 7 5h-55q14 -11 31 -11z" />
    <glyph glyph-name="FL00E9h" unicode="&#xe9;" horiz-adv-x="625" 
d="M602 67h-550l-17 -47h520q11 10 23.5 22t23.5 25zM625 93q2 2 9 13t12 20h-573l-15 -43h559q2 2 4 5t4 5zM103 208h400l39 37h-229l-7 -7l2 7h-191zM710 424h-528l-10 -27h506q6 3 14 10t18 17zM760 483h-556l-9 -24h546q5 6 9.5 12t9.5 12zM340 271h229l36 34h-230z
M81 146h191l14 40h-191zM126 271h192l12 34h-191zM149 334h192l11 30h-192zM791 530h-570l-3 -8h569l2 4zM28 0h503l2.5 1.5t6.5 5.5h-510zM473 648h99l6.5 6.5t6.5 7.5h-100q-3 -4 -6 -7t-6 -7zM585 715q-3 2 -5.5 3t-5.5 3h-22q-10 -5 -17 -11h54q-1 2 -2 2.5t-2 2.5z
M462 598l3 -4q2 -2 9 -2q14 0 36 10h-52q1 -3 4 -4z" />
    <glyph glyph-name="FL00EAh" unicode="&#xea;" horiz-adv-x="625" 
d="M602 67h-550l-17 -47h520q11 10 23.5 22t23.5 25zM625 93q2 2 9 13t12 20h-573l-15 -43h559q2 2 4 5t4 5zM103 208h400l39 37h-229l-7 -7l2 7h-191zM710 424h-528l-10 -27h506q6 3 14 10t18 17zM760 483h-556l-9 -24h546q5 6 9.5 12t9.5 12zM340 271h229l36 34h-230z
M81 146h191l14 40h-191zM126 271h192l12 34h-191zM149 334h192l11 30h-192zM791 530h-570l-3 -8h569l2 4zM28 0h503l2.5 1.5t6.5 5.5h-510zM528 655l4 -7h84l-7 14h-164l-14 -14h90zM469 596l6 6h-91l-6 -6h91zM560 596h82l-3 6h-82zM570 713h-62q-4 0 -10 -3h81q-5 3 -9 3z
" />
    <glyph glyph-name="FL00EBh" unicode="&#xeb;" horiz-adv-x="625" 
d="M602 67h-550l-17 -47h520q11 10 23.5 22t23.5 25zM625 93q2 2 9 13t12 20h-573l-15 -43h559q2 2 4 5t4 5zM103 208h400l39 37h-229l-7 -7l2 7h-191zM710 424h-528l-10 -27h506q6 3 14 10t18 17zM760 483h-556l-9 -24h546q5 6 9.5 12t9.5 12zM340 271h229l36 34h-230z
M81 146h191l14 40h-191zM126 271h192l12 34h-191zM149 334h192l11 30h-192zM791 530h-570l-3 -8h569l2 4zM28 0h503l2.5 1.5t6.5 5.5h-510zM391 653q-1 -2 -1 -3t-1 -2h127q0 1 2 5q2 6 2 9h-125q-2 -3 -4 -9zM699 653q2 6 2 9h-125q-2 -3 -4 -9q-1 -2 -1 -3t-1 -2h127
q0 1 2 5zM432 594q17 0 36 8h-66q13 -8 30 -8zM614 594q17 0 35 8h-65q9 -8 30 -8zM657 712q-5 0 -9 -0.5t-9 -1.5h34q-4 1 -7.5 1.5t-8.5 0.5zM475 712q-5 0 -9 -0.5t-9 -1.5h34q-4 1 -7.5 1.5t-8.5 0.5z" />
    <glyph glyph-name="FL00ECh" unicode="&#xec;" horiz-adv-x="248" 
d="M35 20h192l17 47h-192zM58 83h192l15 43h-192zM81 146h192l14 40h-192zM103 208h192l14 37h-192zM126 271h192l13 34h-192zM149 334h192l11 30h-192zM172 397h192l10 27h-192zM195 459h192l9 24h-192zM221 530l-3 -8h192l3 8h-192zM295 648h100q-1 4 -1.5 7t-1.5 7h-99
q0 -10 2 -14zM220 0l2 7h-192l-2 -7h192zM354 587q8 0 10 2l7 4q7 3 11 9h-65q17 -15 37 -15zM360 718q-6 0 -28 -8h44q-6 8 -16 8z" />
    <glyph glyph-name="FL00EDh" unicode="&#xed;" horiz-adv-x="248" 
d="M35 20h192l17 47h-192zM58 83h192l15 43h-192zM81 146h192l14 40h-192zM103 208h192l14 37h-192zM126 271h192l13 34h-192zM149 334h192l11 30h-192zM172 397h192l10 27h-192zM195 459h192l9 24h-192zM413 530h-192l-3 -8h192zM306 648h100l6.5 6.5t6.5 7.5h-100
q-3 -4 -6.5 -7t-6.5 -7zM220 0l2 7h-192l-2 -7h192zM293 595l3 -4q2 -2 9 -2q8 0 19.5 3.5t22.5 9.5h-59q1 -3 5 -7zM394 720q-11 0 -24 -10h48q-2 0 -2 2q-11 8 -22 8z" />
    <glyph glyph-name="FL00EEh" unicode="&#xee;" horiz-adv-x="248" 
d="M35 20h192l17 47h-192zM58 83h192l15 43h-192zM81 146h192l14 40h-192zM103 208h192l14 37h-192zM126 271h192l13 34h-192zM149 334h192l11 30h-192zM172 397h192l10 27h-192zM195 459h192l9 24h-192zM358 654l3 -6h85l-7 14h-162l-14 -14h89zM413 530h-192l-3 -8h192z
M220 0l2 7h-192l-2 -7h192zM300 595l7 7h-91l-7 -7h91zM391 595h82l-4 7h-82zM400 712h-62q-2 0 -8 -2h77q-4 2 -7 2z" />
    <glyph glyph-name="FL00EFh" unicode="&#xef;" horiz-adv-x="248" 
d="M35 20h192l17 47h-192zM58 83h192l15 43h-192zM81 146h192l14 40h-192zM103 208h192l14 37h-192zM126 271h192l13 34h-192zM149 334h192l11 30h-192zM172 397h192l10 27h-192zM195 459h192l9 24h-192zM518 653q2 6 2 9h-125q-2 -3 -4 -9q-1 -2 -1 -3t-1 -2h127q0 1 2 5z
M210 653q-1 -2 -1 -3t-1 -2h127q0 1 2 5q2 6 2 9h-125q-2 -3 -4 -9zM413 530h-192l-3 -8h192zM220 0l2 7h-192l-2 -7h192zM251 594q17 0 36 8h-66q13 -8 30 -8zM433 594q17 0 35 8h-65q9 -8 30 -8zM476 712q-5 0 -9 -0.5t-9 -1.5h34q-4 1 -7.5 1.5t-8.5 0.5zM294 712
q-5 0 -9 -0.5t-9 -1.5h34q-4 1 -7.5 1.5t-8.5 0.5z" />
    <glyph glyph-name="FL00F0h" unicode="&#xf0;" horiz-adv-x="646" 
d="M690 243l0.5 0.5t0.5 1.5h-562l-12 -18t-12 -19h557q8 8 14.5 17t13.5 18zM85 83h429q32 18 63 43h-494q-1 -21 2 -43zM727 305h-528q-13 -8 -24.5 -16t-21.5 -18h556q11 17 18 34zM119 20h235q33 8 65.5 19t64.5 28h-395q10 -31 30 -47zM753 424h-514q2 -7 5 -13.5
t6 -13.5h503q1 13 0 27zM736 483h-508q1 -6 1.5 -12.5t1.5 -11.5h516q-2 6 -5 12zM643 186h-213q-17 -12 -32.5 -22.5t-29.5 -17.5h234q11 9 20.5 19t20.5 21zM86 146h190l2 28q4 3 7 6l6 6h-195q-7 -19 -10 -40zM748 364h-202q3 -14 0 -30h193q6 15 9 30zM639 530h-413v-8
h461q-22 8 -48 8zM183 0q24 0 50 1.5t52 5.5h-143q17 -7 41 -7z" />
    <glyph glyph-name="FL00F1h" unicode="&#xf1;" horiz-adv-x="654" 
d="M517 245h-179l7 -37h356l14 37h-190l-5 -13zM356 146h323l14 40h-344zM368 83h288l15 43h-311zM328 298l5 -27h179l-6 34h-367l-13 -34h192zM380 20h253l17 47h-279zM149 334h351l-6 30h-334zM35 20h192l17 47h-192zM172 397h316l-5 27h-301zM58 83h192l15 43h-192z
M81 146h192l14 40h-192zM103 208h192l14 37h-192zM195 459h281l-4 24h-268zM534 271h190l13 34h-190zM557 334h190l11 30h-190zM580 397h190l10 27h-190zM603 459h190l9 24h-190zM592 651l-6 11h-168l-14 -14h89l4 4l2 -4h179q5 4 8 7l7 7h-90zM221 530l-3 -8h246l-1 8h-242
zM384 0h242l2 7h-245zM819 530h-190l-3 -8h190zM220 0l2 7h-192l-2 -7h192zM530 593h82q4 0 9 3t9 6h-105zM439 593l9 9h-91l-9 -9h91z" />
    <glyph glyph-name="FL00F2h" unicode="&#xf2;" horiz-adv-x="721" 
d="M140 83h531q12 10 23 20.5t21 22.5h-595q4 -12 8.5 -23t11.5 -20zM226 20h342q45 16 83 47h-499q27 -31 74 -47zM785 424h-571q-14 -14 -24 -27h605q-2 7 -4.5 13.5t-5.5 13.5zM738 483h-453l-33 -24h511q-11 14 -25 24zM320 186h-208q0 -11 1 -21t3 -19h240
q-22 14 -36 40zM493 146h239q16 21 27 40h-208q-14 -13 -29 -23t-29 -17zM590 232l-8 -12t-9 -12h198q9 19 15 37h-189q-2 -3 -3.5 -6.5t-3.5 -6.5zM304 245h-188v-2q-2 -9 -2.5 -18t-1.5 -17h198q-6 18 -6 37zM797 287q1 5 1.5 9t0.5 9h-190q-1 -9 -1 -17q0 -7 -1 -15
l-0.5 -0.5t-0.5 -1.5h188q1 4 1.5 7.5t1.5 8.5zM319 298q2 4 4 7h-189q-8 -19 -12 -34h186q2 10 11 27zM377 364h-211q-11 -15 -18 -30h196q15 16 33 30zM607 334h194q1 8 0.5 15t-1.5 15h-204q8 -15 11 -30zM557 530h-132q-27 0 -56 -8h276q-43 8 -88 8zM369 0h100
q31 0 59 7h-251q21 -4 44 -5.5t48 -1.5zM532 648h99q0 4 -0.5 7t-1.5 7h-99q0 -6 2 -14zM590 589q9 0 11 2l7 4q4 1 8 7h-60q16 -13 34 -13zM597 720q-6 0 -28 -8q-2 -2 -4 -2h49q-7 10 -17 10z" />
    <glyph glyph-name="FL00F3h" unicode="&#xf3;" horiz-adv-x="721" 
d="M140 83h531q12 10 23 20.5t21 22.5h-595q4 -12 8.5 -23t11.5 -20zM226 20h342q45 16 83 47h-499q27 -31 74 -47zM785 424h-571q-14 -14 -24 -27h605q-2 7 -4.5 13.5t-5.5 13.5zM738 483h-453l-33 -24h511q-11 14 -25 24zM320 186h-208q0 -11 1 -21t3 -19h240
q-22 14 -36 40zM493 146h239q16 21 27 40h-208q-14 -13 -29 -23t-29 -17zM590 232l-8 -12t-9 -12h198q9 19 15 37h-189q-2 -3 -3.5 -6.5t-3.5 -6.5zM304 245h-188v-2q-2 -9 -2.5 -18t-1.5 -17h198q-6 18 -6 37zM797 287q1 5 1.5 9t0.5 9h-190q-1 -9 -1 -17q0 -7 -1 -15
l-0.5 -0.5t-0.5 -1.5h188q1 4 1.5 7.5t1.5 8.5zM319 298q2 4 4 7h-189q-8 -19 -12 -34h186q2 10 11 27zM377 364h-211q-11 -15 -18 -30h196q15 16 33 30zM607 334h194q1 8 0.5 15t-1.5 15h-204q8 -15 11 -30zM557 530h-132q-27 0 -56 -8h276q-43 8 -88 8zM369 0h100
q31 0 59 7h-251q21 -4 44 -5.5t48 -1.5zM539 648h100l6.5 6.5t6.5 7.5h-100q-3 -4 -6.5 -7t-6.5 -7zM526 595l3 -4q2 -2 9 -2q8 0 19.5 3.5t22.5 9.5h-59q1 -3 5 -7zM627 720q-11 0 -24 -10h48q-2 0 -2 2q-11 8 -22 8z" />
    <glyph glyph-name="FL00F4h" unicode="&#xf4;" horiz-adv-x="721" 
d="M140 83h531q12 10 23 20.5t21 22.5h-595q4 -12 8.5 -23t11.5 -20zM226 20h342q45 16 83 47h-499q27 -31 74 -47zM785 424h-571q-14 -14 -24 -27h605q-2 7 -4.5 13.5t-5.5 13.5zM738 483h-453l-33 -24h511q-11 14 -25 24zM320 186h-208q0 -11 1 -21t3 -19h240
q-22 14 -36 40zM493 146h239q16 21 27 40h-208q-14 -13 -29 -23t-29 -17zM590 232l-8 -12t-9 -12h198q9 19 15 37h-189q-2 -3 -3.5 -6.5t-3.5 -6.5zM304 245h-188v-2q-2 -9 -2.5 -18t-1.5 -17h198q-6 18 -6 37zM797 287q1 5 1.5 9t0.5 9h-190q-1 -9 -1 -17q0 -7 -1 -15
l-0.5 -0.5t-0.5 -1.5h188q1 4 1.5 7.5t1.5 8.5zM319 298q2 4 4 7h-189q-8 -19 -12 -34h186q2 10 11 27zM377 364h-211q-11 -15 -18 -30h196q15 16 33 30zM607 334h194q1 8 0.5 15t-1.5 15h-204q8 -15 11 -30zM580 653l2 -5h85l-7 14h-161l-14 -14h90zM557 530h-132
q-27 0 -56 -8h276q-43 8 -88 8zM369 0h100q31 0 59 7h-251q21 -4 44 -5.5t48 -1.5zM521 594l8 8h-91l-8 -8h91zM612 594h82l-4 8h-83zM622 711h-62q-2 0 -2.5 -0.5t-2.5 -0.5h72q-2 0 -3 0.5t-2 0.5z" />
    <glyph glyph-name="FL00F5h" unicode="&#xf5;" horiz-adv-x="721" 
d="M141 83h530q12 10 23 20.5t21 22.5h-595q7 -25 21 -43zM226 20h342q45 16 83 47h-498q29 -32 73 -47zM786 424h-572q-14 -14 -24 -27h605q-3 13 -9 27zM738 483h-453l-33 -24h511q-5 7 -11.5 13t-13.5 11zM116 146h240q-22 14 -36 40h-208q0 -24 4 -40zM759 186h-208
q-14 -13 -29 -23t-29 -17h239q16 21 27 40zM786 245h-189q-2 -3 -3.5 -6.5t-3.5 -6.5l-8 -12t-9 -12h198q9 19 15 37zM116 240q-2 -7 -3 -15t-1 -17h198q-6 18 -6 36v1h-188v-2v-3zM797 287q1 5 1.5 9t0.5 9h-190q0 -8 -0.5 -16t-1.5 -16l-0.5 -0.5t-0.5 -1.5h188
q1 4 1.5 7.5t1.5 8.5zM122 271h186q2 10 11 27q2 4 4 7h-189q-8 -19 -12 -34zM148 334h196q15 16 33 30h-211q-11 -15 -18 -30zM802 342q0 5 -0.5 11t-0.5 11h-205q8 -11 11 -30h195v8zM628 651l-6 11h-168l-14 -14h89l4 4l2 -4h179q5 4 8 7l7 7h-90zM557 530h-132
q-27 0 -56 -8h275q-20 4 -42 6t-45 2zM369 0h100q31 0 59 7h-252q21 -4 44 -5.5t49 -1.5zM566 593h82q4 0 9 3t9 6h-105zM475 593l9 9h-91l-9 -9h91z" />
    <glyph glyph-name="FL00F6h" unicode="&#xf6;" horiz-adv-x="721" 
d="M140 83h531q12 10 23 20.5t21 22.5h-595q4 -12 8.5 -23t11.5 -20zM226 20h342q45 16 83 47h-499q27 -31 74 -47zM785 424h-571q-14 -14 -24 -27h605q-2 7 -4.5 13.5t-5.5 13.5zM738 483h-453l-33 -24h511q-11 14 -25 24zM320 186h-208q0 -11 1 -21t3 -19h240
q-22 14 -36 40zM493 146h239q16 21 27 40h-208q-14 -13 -29 -23t-29 -17zM590 232l-8 -12t-9 -12h198q9 19 15 37h-189q-2 -3 -3.5 -6.5t-3.5 -6.5zM304 245h-188v-2q-2 -9 -2.5 -18t-1.5 -17h198q-6 18 -6 37zM797 287q1 5 1.5 9t0.5 9h-190q-1 -9 -1 -17q0 -7 -1 -15
l-0.5 -0.5t-0.5 -1.5h188q1 4 1.5 7.5t1.5 8.5zM319 298q2 4 4 7h-189q-8 -19 -12 -34h186q2 10 11 27zM377 364h-211q-11 -15 -18 -30h196q15 16 33 30zM607 334h194q1 8 0.5 15t-1.5 15h-204q8 -15 11 -30zM557 530h-132q-27 0 -56 -8h276q-43 8 -88 8zM745 653q2 6 2 9
h-125q-2 -3 -4 -9q-1 -2 -1 -3t-1 -2h127q0 1 2 5zM437 653q-1 -2 -1 -3t-1 -2h127q0 1 2 5q2 6 2 9h-125q-2 -3 -4 -9zM369 0h100q31 0 59 7h-251q21 -4 44 -5.5t48 -1.5zM478 594q17 0 36 8h-66q13 -8 30 -8zM660 594q17 0 35 8h-65q13 -8 30 -8zM521 712q-5 0 -9 -0.5
t-9 -1.5h34q-4 1 -7.5 1.5t-8.5 0.5zM703 712q-5 0 -9 -0.5t-9 -1.5h34q-4 1 -7.5 1.5t-8.5 0.5z" />
    <glyph glyph-name="FL00F7h" unicode="&#xf7;" horiz-adv-x="432" 
d="M103 208h302l39 37h-302zM169 271h302l36 34h-302zM328 108q2 5 2.5 9t1.5 9h-122q-6 -9 -9 -18q-6 -13 -4 -25h116q5 5 8.5 11.5t6.5 13.5zM315 417q-4 -9 -4 -20h120q7 10 11 20q1 2 1 3q0 2 1 4h-126q-1 -3 -3 -7zM287 167q-31 0 -58 -21h99q-11 21 -41 21zM244 49
q29 0 52 18h-92q11 -18 40 -18zM399 476q-14 0 -27 -4.5t-24 -12.5h90q-6 8 -15.5 12.5t-23.5 4.5zM356 358q16 0 31 6h-57q10 -6 26 -6z" />
    <glyph glyph-name="FL00F8h" unicode="&#xf8;" horiz-adv-x="721" 
d="M140 83h531q12 10 23 20.5t21 22.5h-595q4 -12 8.5 -23t11.5 -20zM226 20h342q45 16 83 47h-499q27 -31 74 -47zM785 424h-571q-14 -14 -24 -27h605q-2 7 -4.5 13.5t-5.5 13.5zM112 208h328l52 37h-137l-47 -33q-5 18 -5 33h-187v-2q-2 -9 -2.5 -18t-1.5 -17zM738 483
h-453l-33 -24h511q-11 14 -25 24zM116 146h240h-1v1l54 39h-297q0 -11 1 -21t3 -19zM800 364h-276l-43 -30h320q1 8 0.5 15t-1.5 15zM759 186h-208q-14 -13 -29 -23t-29 -17h239q16 21 27 40zM786 245h-189q-2 -3 -3.5 -6.5t-3.5 -6.5l-8 -12t-9 -12h198q9 19 15 37z
M607 273l-0.5 -0.5t-0.5 -1.5h188q1 4 1.5 7.5t1.5 8.5t1.5 9t0.5 9h-191q1 -8 0.5 -16t-1.5 -16zM122 271h186q2 10 11 27q2 4 4 7h-189q-8 -19 -12 -34zM148 334h196q15 16 33 30h-211q-11 -15 -18 -30zM392 271h137l47 34h-136zM557 530h-132q-27 0 -56 -8h276
q-43 8 -88 8zM369 0h100q31 0 59 7h-251q21 -4 44 -5.5t48 -1.5z" />
    <glyph glyph-name="FL00F9h" unicode="&#xf9;" horiz-adv-x="682" 
d="M120 83h536q16 19 31 43h-578q1 -24 11 -43zM197 20h377q36 16 67 47h-511q22 -30 67 -47zM108 146h228q-17 13 -22 40h-203q-2 -11 -2.5 -21t-0.5 -19zM718 186h-201q-10 -12 -22.5 -22.5t-27.5 -17.5h231q5 9 10 19t10 21zM115 208h197q0 15 3 33q0 1 -0.5 1.5t0.5 2.5
h-191q-2 -10 -4.5 -19t-4.5 -18zM743 245h-190l-4 -12q-5 -10 -15 -25h193l8 18t8 19zM132 271h190q2 6 5 14.5t6 19.5h-192q-3 -9 -5 -17.5t-4 -16.5zM757 283l8 22h-190l-12 -34h189q2 3 2.5 6t2.5 6zM353 364h-191l-11 -30h192q2 7 4.5 14.5t5.5 15.5zM586 334h189l11 30
h-189zM373 424h-190l-10 -27h191zM609 397h189l10 27h-190zM631 459h190l9 24h-190zM195 459h190q2 5 4 11.5t4 12.5h-189zM351 0h117q18 0 35 1.5t32 5.5h-286q23 -4 48 -5.5t54 -1.5zM847 530h-190l-3 -8h190zM410 530h-189l-3 -8h189q1 2 1.5 4t1.5 4zM513 648h100
q-1 4 -1.5 7t-0.5 7h-100q0 -6 2 -14zM572 588q1 0 11 2l6 4q6 3 10 8h-62q16 -14 35 -14zM579 719q-6 0 -28 -8q-1 -1 -2 -1v0h46q-7 9 -16 9z" />
    <glyph glyph-name="FL00FAh" unicode="&#xfa;" horiz-adv-x="682" 
d="M120 83h536q16 19 31 43h-578q1 -24 11 -43zM197 20h377q36 16 67 47h-511q22 -30 67 -47zM108 146h228q-17 13 -22 40h-203q-2 -11 -2.5 -21t-0.5 -19zM718 186h-201q-10 -12 -22.5 -22.5t-27.5 -17.5h231q5 9 10 19t10 21zM115 208h197q0 15 3 33q0 1 -0.5 1.5t0.5 2.5
h-191q-2 -10 -4.5 -19t-4.5 -18zM743 245h-190l-4 -12q-5 -10 -15 -25h193l8 18t8 19zM132 271h190q2 6 5 14.5t6 19.5h-192q-3 -9 -5 -17.5t-4 -16.5zM757 283l8 22h-190l-12 -34h189q2 3 2.5 6t2.5 6zM353 364h-191l-11 -30h192q2 7 4.5 14.5t5.5 15.5zM586 334h189l11 30
h-189zM373 424h-190l-10 -27h191zM609 397h189l10 27h-190zM631 459h190l9 24h-190zM195 459h190q2 5 4 11.5t4 12.5h-189zM351 0h117q18 0 35 1.5t32 5.5h-286q23 -4 48 -5.5t54 -1.5zM847 530h-190l-3 -8h190zM410 530h-189l-3 -8h189q1 2 1.5 4t1.5 4zM527 648h99
l6.5 6.5t5.5 7.5h-98q-3 -4 -6.5 -7t-6.5 -7zM512 594l4 -4q0 -2 9 -2q8 0 20 4t24 10h-62q1 -6 5 -8zM614 719q-6 0 -11.5 -2.5t-11.5 -6.5h46q-1 0 -1 1q-11 8 -22 8z" />
    <glyph glyph-name="FL00FBh" unicode="&#xfb;" horiz-adv-x="682" 
d="M120 83h536q16 19 31 43h-578q1 -24 11 -43zM197 20h377q36 16 67 47h-511q22 -30 67 -47zM108 146h228q-17 13 -22 40h-203q-2 -11 -2.5 -21t-0.5 -19zM718 186h-201q-10 -12 -22.5 -22.5t-27.5 -17.5h231q5 9 10 19t10 21zM115 208h197q0 15 3 33q0 1 -0.5 1.5t0.5 2.5
h-191q-2 -10 -4.5 -19t-4.5 -18zM743 245h-190l-4 -12q-5 -10 -15 -25h193l8 18t8 19zM132 271h190q2 6 5 14.5t6 19.5h-192q-3 -9 -5 -17.5t-4 -16.5zM757 283l8 22h-190l-12 -34h189q2 3 2.5 6t2.5 6zM353 364h-191l-11 -30h192q2 7 4.5 14.5t5.5 15.5zM586 334h189l11 30
h-189zM373 424h-190l-10 -27h191zM609 397h189l10 27h-190zM631 459h190l9 24h-190zM195 459h190q2 5 4 11.5t4 12.5h-189zM563 653l3 -5h85l-7 14h-161l-14 -14h89zM351 0h117q18 0 35 1.5t32 5.5h-286q23 -4 48 -5.5t54 -1.5zM847 530h-190l-3 -8h190zM410 530h-189l-3 -8
h189q1 2 1.5 4t1.5 4zM505 594l8 8h-91l-8 -8h91zM596 594h82l-4 8h-83zM605 711h-62q-2 0 -2.5 -0.5t-2.5 -0.5h72q-2 1 -5 1z" />
    <glyph glyph-name="FL00FCh" unicode="&#xfc;" horiz-adv-x="682" 
d="M120 83h536q16 19 31 43h-578q1 -24 11 -43zM197 20h377q36 16 67 47h-511q22 -30 67 -47zM108 146h228q-17 13 -22 40h-203q-2 -11 -2.5 -21t-0.5 -19zM718 186h-201q-10 -12 -22.5 -22.5t-27.5 -17.5h231q5 9 10 19t10 21zM115 208h197q0 15 3 33q0 1 -0.5 1.5t0.5 2.5
h-191q-2 -10 -4.5 -19t-4.5 -18zM743 245h-190l-4 -12q-5 -10 -15 -25h193l8 18t8 19zM132 271h190q2 6 5 14.5t6 19.5h-192q-3 -9 -5 -17.5t-4 -16.5zM757 283l8 22h-190l-12 -34h189q2 3 2.5 6t2.5 6zM353 364h-191l-11 -30h192q2 7 4.5 14.5t5.5 15.5zM586 334h189l11 30
h-189zM373 424h-190l-10 -27h191zM609 397h189l10 27h-190zM631 459h190l9 24h-190zM195 459h190q2 5 4 11.5t4 12.5h-189zM422 652l-2 -4h127l2 4q2 6 2 10h-125q-1 -2 -2 -5t-2 -5zM730 652q2 6 2 10h-125q-2 -2 -2.5 -5t-1.5 -5l-2 -4h127zM351 0h117q18 0 35 1.5t32 5.5
h-286q23 -4 48 -5.5t54 -1.5zM847 530h-190l-3 -8h190zM410 530h-189l-3 -8h189q1 2 1.5 4t1.5 4zM646 593q20 0 38 9h-70q12 -9 32 -9zM464 593q20 0 38 9h-69q10 -9 31 -9zM689 711q-9 0 -14 -1h26q-4 1 -12 1zM507 711q-9 0 -14 -1h26q-4 1 -12 1z" />
    <glyph glyph-name="FL00FDh" unicode="&#xfd;" horiz-adv-x="656" 
d="M467 424h-213l11 -27h415l31 27h-215l-21 -19zM290 334h319l34 30h-365zM239 20h192l17 47h-192zM316 271h221l39 34h-274zM262 83h192l16 43h-192zM285 146h192l15 40h-192zM308 208h192l13 37h-192zM536 459h214l27 24h-214zM240 459h213l-10 24h-213zM831 530h-214
l-9 -8h214zM211 530l3 -8h214l-3 8h-214zM517 648h99l6.5 6.5t5.5 7.5h-98q-3 -4 -6.5 -7t-6.5 -7zM424 0l2 7h-192l-2 -7h192zM502 594l4 -4q0 -2 9 -2q8 0 20 4t24 10h-62q1 -6 5 -8zM604 719q-6 0 -11.5 -2.5t-11.5 -6.5h46q-1 0 -1 1q-11 8 -22 8z" />
    <glyph glyph-name="FL00FEh" unicode="&#xfe;" horiz-adv-x="680" 
d="M253 92h281q55 0 111 34h-572l-15 -43h192zM725 364h-565l-11 -30h587q-2 8 -5 15t-6 15zM712 186h-391l-45 -40h398q20 16 38 40zM327 294h205q2 0 9.5 -8.5t10.5 -13.5v-1h192q1 4 1 12q-1 5 -1 10q0 6 -2 12h-603l-13 -34h193zM672 424h-490l-10 -27h533
q-14 18 -33 27zM740 245h-198q-5 -7 -9 -12.5t-5 -5.5h-160l-22 -19h379q5 8 8.5 17.5t6.5 19.5zM35 20h192l17 47h-192zM81 146h192l15 40h-193zM103 208h193l13 37h-192zM195 459h192l9 24h-192zM413 530h-192l-3 -8h192zM28 0h192l2 7h-192z" />
    <glyph glyph-name="FL00FFh" unicode="&#xff;" horiz-adv-x="656" 
d="M467 424h-213l11 -27h415l31 27h-215l-21 -19zM290 334h319l34 30h-365zM239 20h192l17 47h-192zM316 271h221l39 34h-274zM262 83h192l16 43h-192zM285 146h192l15 40h-192zM308 208h192l13 37h-192zM536 459h214l27 24h-214zM240 459h213l-10 24h-213zM414 652l-2 -4
h127l2 4q2 6 2 10h-125q-1 -2 -2 -5t-2 -5zM722 652q2 6 2 10h-125q-2 -2 -2.5 -5t-1.5 -5l-2 -4h127zM831 530h-214l-9 -8h214zM211 530l3 -8h214l-3 8h-214zM424 0l2 7h-192l-2 -7h192zM638 593q20 0 38 9h-70q12 -9 32 -9zM456 593q20 0 38 9h-69q10 -9 31 -9zM499 711
q-9 0 -14 -1h26q-4 1 -12 1zM681 711q-9 0 -14 -1h26q-4 1 -12 1z" />
    <glyph glyph-name="FL0152h" unicode="&#x152;" horiz-adv-x="1055" 
d="M187 83h860q2 2 4 5t4 5t9 13t12 20h-922q15 -26 33 -43zM300 20h685q11 10 23.5 22t23.5 25h-827q20 -17 44 -28t51 -19zM1140 424h-944q-5 -7 -10 -13.5t-10 -13.5h932q6 3 14 10t18 17zM1190 483h-934q-8 -6 -14.5 -12t-13.5 -12h943q5 6 9.5 12t9.5 12zM533 208h400
l39 37h-229l-7 -7l2 7h-191zM144 146h239q-11 7 -22 17.5t-20 22.5h-209q4 -22 12 -40zM770 271h229l36 34h-230zM511 146h191l14 40h-191zM127 243v-18t2 -17h198q-5 9 -8 18.5t-5 18.5h-187v-2zM1221 530h-833q-26 0 -55 -8h884l2 4zM556 271h192l12 34h-191zM129 271h185
q1 6 3 12.5t4 14.5q1 2 1 3q0 2 1 4h-188q-5 -18 -6 -34zM144 334h194q5 8 10 15.5t11 14.5h-201l-7.5 -15t-6.5 -15zM579 334h192l11 30h-192zM458 0h503l2.5 1.5t6.5 5.5h-610q24 -4 48.5 -5.5t49.5 -1.5z" />
    <glyph glyph-name="FL0153h" unicode="&#x153;" horiz-adv-x="1055" 
d="M187 83h860q2 2 4 5t4 5t9 13t12 20h-922q15 -26 33 -43zM300 20h685q11 10 23.5 22t23.5 25h-827q20 -17 44 -28t51 -19zM1140 424h-945q-5 -7 -9.5 -13.5t-9.5 -13.5h932q6 3 14 10t18 17zM1190 483h-934q-8 -6 -15 -12l-14 -12h944q5 6 9.5 12t9.5 12zM533 208h400
l39 37h-229l-7 -7l2 7h-191zM144 146h239q-11 7 -22 17.5t-20 22.5h-209q4 -22 12 -40zM770 271h229l36 34h-230zM511 146h191l14 40h-191zM127 243v-18t2 -17h198q-5 9 -8 18.5t-5 18.5h-187v-2zM1221 530h-833q-26 0 -55 -8h884l2 4zM556 271h192l12 34h-191zM128 271h186
q1 6 3 12.5t4 14.5q1 2 1 3q0 2 1 4h-188q-2 -9 -3.5 -17.5t-3.5 -16.5zM144 334h194q5 8 10 15.5t11 14.5h-202q-4 -8 -7 -15t-6 -15zM579 334h192l11 30h-192zM458 0h503l2.5 1.5t6.5 5.5h-610q24 -4 48.5 -5.5t49.5 -1.5z" />
    <glyph glyph-name="FL0160h" unicode="&#x160;" horiz-adv-x="660" 
d="M51 20h555q27 18 47 47h-568q-10 -13 -18.5 -25t-15.5 -22zM97 83h566q6 11 11 21.5t9 21.5h-550q-7 -7 -16 -18t-20 -25zM674 245h-476q21 -26 48 -37h440q-5 20 -12 37zM631 305h-466q6 -17 15 -34h480q-11 17 -29 34zM736 424h-557q-4 -7 -6.5 -13.5t-5.5 -13.5h542z
M789 483h-566l-10 -12l-10 -12h566l10 12zM503 174v-12q0 -11 -2 -16h187q1 5 1.5 11t0.5 11v4v6q0 4 -1 8h-188q2 -8 2 -12zM359 340q-2 2 -6 5.5t-4 4.5v5q0 5 1 9h-192v-11v-10q0 -4 1 -9h209q-6 3 -9 6zM824 530h-510q-17 0 -36 -8h541q2 2 2.5 4t2.5 4zM39 0h510
q19 0 34 7h-540q-2 -3 -4 -7zM548 649l-7 13h-85l7 -14h173l15 14h-90zM506 591h62q5 0 10.5 4t10.5 7h-100q9 -11 17 -11z" />
    <glyph glyph-name="FL0161h" unicode="&#x161;" horiz-adv-x="660" 
d="M51 20h555q27 18 47 47h-568q-10 -13 -18.5 -25t-15.5 -22zM97 83h566q6 11 11 21.5t9 21.5h-550q-7 -7 -16 -18t-20 -25zM674 245h-476q21 -26 48 -37h440q-5 20 -12 37zM631 305h-466q6 -17 15 -34h480q-11 17 -29 34zM736 424h-557q-4 -7 -6.5 -13.5t-5.5 -13.5h542z
M789 483h-566l-10 -12l-10 -12h566l10 12zM503 174v-12q0 -11 -2 -16h187q1 5 1.5 11t0.5 11v4v6q0 4 -1 8h-188q2 -8 2 -12zM359 340q-2 2 -6 5.5t-4 4.5v5q0 5 1 9h-192v-11v-10q0 -4 1 -9h209q-6 3 -9 6zM824 530h-510q-17 0 -36 -8h541q2 2 2.5 4t2.5 4zM39 0h510
q19 0 34 7h-540q-2 -3 -4 -7zM548 649l-7 13h-85l7 -14h173l15 14h-90zM506 591h62q5 0 10.5 4t10.5 7h-100q9 -11 17 -11z" />
    <glyph glyph-name="FL0178h" unicode="&#x178;" horiz-adv-x="656" 
d="M467 424h-213l11 -27h415l31 27h-215l-21 -19zM290 334h319l34 30h-365zM239 20h192l17 47h-192zM316 271h221l39 34h-274zM262 83h192l16 43h-192zM285 146h192l15 40h-192zM308 208h192l13 37h-192zM536 459h214l27 24h-214zM240 459h213l-10 24h-213zM414 652l-2 -4
h127l2 4q2 6 2 10h-125q-1 -2 -2 -5t-2 -5zM722 652q2 6 2 10h-125q-2 -2 -2.5 -5t-1.5 -5l-2 -4h127zM831 530h-214l-9 -8h214zM211 530l3 -8h214l-3 8h-214zM424 0l2 7h-192l-2 -7h192zM638 593q20 0 38 9h-70q12 -9 32 -9zM456 593q20 0 38 9h-69q10 -9 31 -9zM499 711
q-9 0 -14 -1h26q-4 1 -12 1zM681 711q-9 0 -14 -1h26q-4 1 -12 1z" />
    <glyph glyph-name="FL017Dh" unicode="&#x17d;" horiz-adv-x="616" 
d="M594 67h-501l-49 -47h508q10 9 20.5 21t21.5 26zM637 126h-483l-45 -43h498q9 12 17 23t13 20zM167 397h480l28 27h-489q-16 -20 -19 -27zM214 459h497l25 24h-501zM175 146h209l42 40h-209zM240 208h209l39 37h-209zM306 271h209l35 34h-209zM372 334h209l31 30h-209z
M786 530h-501q-3 -2 -5.5 -4t-5.5 -4h503zM522 0q6 0 14 7h-506l-7 -7h499zM548 649l-7 13h-85l7 -14h173l15 14h-90zM506 591h62q5 0 10.5 4t10.5 7h-100q9 -11 17 -11z" />
    <glyph glyph-name="FL017Eh" unicode="&#x17e;" horiz-adv-x="616" 
d="M594 67h-501l-49 -47h508q10 9 20.5 21t21.5 26zM637 126h-483l-45 -43h498q9 12 17 23t13 20zM167 397h480l28 27h-489q-16 -20 -19 -27zM214 459h497l25 24h-501zM175 146h209l42 40h-209zM240 208h209l39 37h-209zM306 271h209l35 34h-209zM372 334h209l31 30h-209z
M786 530h-501q-3 -2 -5.5 -4t-5.5 -4h503zM522 0q6 0 14 7h-506l-7 -7h499zM548 649l-7 13h-85l7 -14h173l15 14h-90zM506 591h62q5 0 10.5 4t10.5 7h-100q9 -11 17 -11z" />
    <glyph glyph-name="FL00B6h" unicode="&#x192;" horiz-adv-x="876" 
d="M186 103l136 -13l-4 -7h18l20 26l-149 7l16 10h-28zM139 165l80 -18l-1 -1h38l8 5l-118 33l4 2h-20q-8 -21 9 -21zM363 230q-2 -18 26 -18q3 0 7 0.5t9 1.5q17 0 39 31h-16q-1 -1 -1 -2l-1 -1q-21 -9 -28 -9q-11 0 -11 12h-19q-2 -4 -2.5 -7.5t-2.5 -7.5zM463 29l78 38
h-36l-41 -19l11 19h-16l-11 -32zM196 294l-63 -12l-2 -11h26l60 5l-10 29h-15zM446 275q-1 -1 -1 -2t-1 -2h16q3 5 5.5 9.5t5.5 9.5q0 10 -1 15h-65q-13 -14 -25 -34h17q23 31 38 31q12 0 12 -15q2 -2 -1 -12zM666 272h-30l28 33h-22q-8 -9 -14.5 -17.5t-12.5 -16.5h67
l11 29q0 1 0.5 2t0.5 3h-26zM176 220l-18 -12h43l16 7l-40 30h-39zM620 483h-12l-5 -21l131 21h-98l-14 -3zM876 424h-33l-27 -18l32 -9h59l-50 17q12 2 19 10zM203 357l68 -7l6 14h-85l-12 -26l1 -4h18zM317 48l114 19h-103l-4 -1v1h-15l-4 -8zM760 102q17 0 26 14l4 10
h-16l-2 -5l-12 5h-46q14 -11 24 -17.5t22 -6.5zM899 338q35 5 47 26h-17l1 -2h-6l-61 -17l15 -11h29q-4 1 -8 4zM483 483h-25l18 -24h29l52 24h-28l-32 -15zM933 282l-72 -6q0 -2 1 -3t1 -2h75l13 18l2 2q2 7 -5 14h-31l15 -11zM300 208h30q4 0 6 1l5 18q-5 -1 -9.5 -1.5
t-9.5 -0.5q-20 0 -13 20h-16q-3 -28 7 -37zM714 126h-26l-46 -43h22zM588 90l3 -7h28l-24 26l-56 -26h34zM716 272v-1h26l-14 34h-16l-12 -34h15zM301 271h22q7 10 17 19q13 12 24 15h-38q-17 -14 -25 -34zM474 271h40l-15 34h-13zM528 214l11 31h-43q13 -31 32 -31z
M756 462l11 21h-16l-15 -24h149l-1 3h-128zM797 271h19l17 34h-22zM782 146h17l18 40h-18zM571 271h21l14 34h-20zM754 218l10 27h-38q12 -27 28 -27zM529 271h19l13 34h-18zM754 271h19l13 34h-18zM269 271h19l14 34h-18zM267 220l10 25h-20l-15 -33zM271 397h22l13 27h-22
q-3 -6 -6 -12.5t-7 -14.5zM400 459h24l28 24h-24q-6 -5 -13 -11t-15 -13zM897 215l-9 30h-15q7 -24 7 -37h17q1 6 0 7zM587 223h20q13 16 22 22h-30q-4 -5 -6.5 -11t-5.5 -11zM356 410q9 0 16 4l11 10h-57q17 -14 30 -14zM573 225l8 20h-22l-12 -28zM404 83h70l-4 14z
M470 215l11 30h-16l-11 -33zM664 218l9 27h-25q4 -6 6 -22zM696 218l10 27h-15l-10 -28zM607 53l29 6l9 8h-45zM868 177q8 3 16 9h-53zM793 212l-13 6l-15 -10h23zM612 522h5l-1 2zM380 303l1 2h-5q1 -1 2 -1t2 -1zM710 146h3l-2 1z" />
    <glyph glyph-name="FL02C6h" unicode="&#x2c6;" horiz-adv-x="301" 
d="M319 472l7 -13h84l-12 24h-157l-25 -24h90zM260 413l11 11h-91l-11 -11h91zM351 413h82l-6 11h-82zM361 530h-62q-4 0 -8.5 -2.5t-8.5 -5.5h93q-8 8 -14 8z" />
    <glyph glyph-name="FL02DCh" unicode="&#x2dc;" horiz-adv-x="389" 
d="M413 471l-7 12h-165l-25 -24h90l13 13l7 -13h165l24 24h-90zM351 413h82q5 0 10.5 4t10.5 7h-109zM260 413l11 11h-91l-11 -11h91zM299 530q-4 0 -8.5 -2.5t-8.5 -5.5h103l-4 8h-82zM562 530h-90l-8 -8h91q4 4 5.5 6z" />
    <glyph glyph-name="FL2013h" unicode="&#x2013;" horiz-adv-x="361" 
d="M103 208h231l39 37h-231zM169 271h231l36 34h-231z" />
    <glyph glyph-name="FL2014h" unicode="&#x2014;" horiz-adv-x="432" 
d="M103 208h302l39 37h-302zM169 271h302l36 34h-302z" />
    <glyph glyph-name="FL2018h" unicode="&#x2018;" horiz-adv-x="181" 
d="M172 397h124l3 6l7 21h-125l-7 -21q-2 -4 -2 -6zM314 483h-98l-10 -12t-9 -12h117v24zM213 339q15 0 30 7t28 18h-99q8 -25 41 -25zM288 530h-8q-7 0 -20 -8h44q-6 8 -16 8z" />
    <glyph glyph-name="FL2019h" unicode="&#x2019;" horiz-adv-x="181" 
d="M182 397h107q12 13 18 27h-123q-1 -6 -1.5 -13t-0.5 -14zM323 467q2 4 2.5 8t1.5 8h-121q-5 -8 -8 -16l-3 -8h125zM209 340h8q6 0 17 6.5t23 17.5h-72q2 -11 8 -17.5t16 -6.5zM283 531q-18 0 -36 -9h66q-12 9 -30 9z" />
    <glyph glyph-name="FL201Ah" unicode="&#x201a;" horiz-adv-x="208" 
d="M38 28q0 -2 -0.5 -4t-0.5 -4h149q2 2 4 8l14 39h-152zM40 -42h93q27 24 46 49h-143q0 -11 0.5 -24.5t3.5 -24.5zM197 126h-94q-29 -18 -44 -43h150q4 25 -12 43zM72 -72h9q7 0 17 5.5t22 14.5h-76q5 -9 11 -14.5t17 -5.5z" />
    <glyph glyph-name="FL201Eh" unicode="&#x201c;" horiz-adv-x="326" 
d="M173 397h124l3 6l7 21h-125l-7 -21q-2 -4 -2 -6zM318 397h124l3 6l7 21h-125l-7 -21q-2 -4 -2 -6zM315 483h-98l-10 -12t-9 -12h117v24zM460 483h-98l-10 -12t-9 -12h117v24zM359 339q15 0 30 7t28 18h-99q8 -25 41 -25zM214 339q15 0 30 7t28 18h-99q8 -25 41 -25z
M434 530h-8q-7 0 -20 -8h44q-6 8 -16 8zM289 530h-8q-7 0 -20 -8h44q-6 8 -16 8z" />
    <glyph glyph-name="FL201Dh" unicode="&#x201d;" horiz-adv-x="326" 
d="M327 397h107q12 13 18 27h-123q-1 -6 -1.5 -13t-0.5 -14zM182 397h107q12 13 18 27h-123q-1 -6 -1.5 -13t-0.5 -14zM323 467q2 4 2.5 8t1.5 8h-121q-5 -8 -8 -16l-3 -8h125zM468 467q2 4 2.5 8t1.5 8h-121q-5 -8 -8 -16l-3 -8h125zM209 340h8q6 0 17 6.5t23 17.5h-72
q2 -11 8 -17.5t16 -6.5zM354 340h8q6 0 17 6.5t23 17.5h-72q2 -11 8 -17.5t16 -6.5zM283 531q-18 0 -36 -9h66q-12 9 -30 9zM428 531q-18 0 -36 -9h66q-12 9 -30 9z" />
    <glyph glyph-name="FL201Fh" unicode="&#x201e;" horiz-adv-x="381" 
d="M211 28q0 -2 -0.5 -4t-0.5 -4h149q2 2 4 8l14 39h-152zM38 28q0 -2 -0.5 -4t-0.5 -4h149q2 2 4 8l14 39h-152zM40 -42h93q27 24 46 49h-143q0 -11 0.5 -24.5t3.5 -24.5zM213 -42h93q27 24 46 49h-143q0 -11 0.5 -24.5t3.5 -24.5zM370 126h-94q-29 -18 -44 -43h150
q4 25 -12 43zM197 126h-94q-29 -18 -44 -43h150q4 25 -12 43zM72 -72h9q7 0 17 5.5t22 14.5h-76q5 -9 11 -14.5t17 -5.5zM245 -72h9q7 0 17 5.5t22 14.5h-76q5 -9 11 -14.5t17 -5.5z" />
    <glyph glyph-name="FL2020h" unicode="&#x2020;" horiz-adv-x="432" 
d="M171 334h302l32 30h-302zM128 20h192l17 47h-192zM418 289h8l17 16h-302l-17 -16h102l-7 -18h192zM151 83h192l15 43h-192zM569 424h-302l-29 -27h302zM174 146h192l14 40h-192zM196 208h192l14 37h-192zM288 459h192l9 24h-192zM506 530h-192l-3 -8h192zM121 0h192l2 7
h-192z" />
    <glyph glyph-name="FL2021h" unicode="&#x2021;" horiz-adv-x="432" 
d="M102 146h302l43 40h-302zM350 102h8l25 24h-302l-25 -24h102l-7 -19h192zM501 237h-102l3 8h-192l-3 -8h-8l-31 -29h302zM171 334h302l32 30h-302zM128 20h192l17 47h-192zM418 289h8l17 16h-302l-17 -16h102l-7 -18h192zM569 424h-302l-29 -27h302zM288 459h192l9 24
h-192zM506 530h-192l-3 -8h192zM121 0h192l2 7h-192z" />
    <glyph glyph-name="FL2023h" unicode="&#x2022;" horiz-adv-x="356" 
d="M129 208h263q5 6 9 12l8 12q2 3 3.5 6.5t3.5 6.5h-293q0 -19 6 -37zM426 273q1 8 1 15q0 8 1 17h-286q-2 -3 -4 -7q-9 -17 -11 -27h298zM175 146h137q14 7 29 17t29 23h-231q14 -26 36 -40zM415 364h-219q-18 -14 -33 -30h263q-3 15 -11 30z" />
    <glyph glyph-name="FL2026h" unicode="&#x2026;" horiz-adv-x="561" 
d="M557 67h-152q-10 -27 5 -47h108q13 9 23.5 21t15.5 26zM204 67h-152q-10 -27 5 -47h108q13 9 23.5 21t15.5 26zM379 67h-152q-10 -27 5 -47h108q13 9 23.5 21t15.5 26zM234 83h150q4 25 -12 43h-94q-29 -18 -44 -43zM412 83h150q4 25 -12 43h-94q-29 -18 -44 -43zM59 83
h150q4 25 -12 43h-94q-29 -18 -44 -43zM316 7h-69q11 -7 32 -7q20 0 37 7zM141 7h-69q11 -7 32 -7q20 0 37 7zM494 7h-69q11 -7 32 -7q20 0 37 7z" />
    <glyph glyph-name="FL2030h" unicode="&#x2030;" horiz-adv-x="1138" 
d="M777 67h-301q7 -31 33 -47h213q33 19 55 47zM1122 67h-301q7 -31 33 -47h213q33 19 55 47zM809 120l2 6h-114q-1 -2 -3 -4q-8 -14 -24.5 -26t-25.5 -12h-26q-13 0 -23.5 14t-10.5 28h-109v-5q-3 -19 -1 -38h316q11 17 19 37zM1154 120l2 6h-114q-1 -2 -3 -4
q-8 -14 -24.5 -26t-25.5 -12h-26q-13 0 -23.5 14t-10.5 28h-109v-5q-3 -19 -1 -38h316q11 17 19 37zM865 208h291q-8 22 -31 37h-216q-23 -14 -44 -37zM520 208h291q-8 22 -31 37h-216q-23 -14 -44 -37zM495 364h-125q-20 -15 -30 -15h-26q-14 0 -24 15h-121q0 -17 3 -30
h303q11 13 20 30zM109 20h171l57 47h-171zM185 83h172l52 43h-172zM446 305h-262q9 -14 23 -21.5t32 -12.5h145q34 9 62 34zM204 459h307q-2 7 -3.5 13t-4.5 11h-277q-6 -6 -11.5 -12t-10.5 -12zM261 146h172l49 40h-172zM336 208h172l45 37h-172zM413 271h172l41 34h-172z
M489 334h172l36 30h-172zM1161 186h-140q16 -2 21 -11t5 -22v-7h113q4 21 1 40zM816 186h-140q16 -2 21 -11t5 -22v-7h113q4 21 1 40zM565 397h172l33 27h-172zM481 146h109l1 2q8 14 21.5 25t25.5 13h-136q-13 -18 -21 -40zM826 146h109l1 2q8 14 21.5 25t25.5 13h-136
q-13 -18 -21 -40zM640 459h173l29 24h-173zM511 408q1 4 1 8t1 8h-114v-6q0 -13 -1 -15l-3 -6h114q2 8 2 11zM281 397l6 16q2 2 3.5 5t3.5 6h-112q-4 -10 -5 -14q-2 -5 -4 -13h108zM716 522h173l10 8h-173zM85 0h171l8 7h-171zM286 522h166q-29 8 -60 8h-66q-19 0 -40 -8z
M692 7h-153q25 -7 62 -7h50q21 0 41 7zM1037 7h-153q25 -7 62 -7h50q21 0 41 7z" />
    <glyph glyph-name="FL2039h" unicode="&#x2039;" horiz-adv-x="173" 
d="M118 214l7 -6h96l10 28l-11 9h-103l-5 -13q-2 -5 1 -10t5 -8zM185 273l47 32h-90q-6 -8 -7 -11l-9 -23h61zM179 334h87l11 30h-52zM197 146h1l15 40h-63zM294 409l-19 -12h14z" />
    <glyph glyph-name="FL203Ah" unicode="&#x203a;" horiz-adv-x="173" 
d="M102 208h76l25 16q5 4 12 9.5t13 11.5h-90l-29 -20zM255 338l-30 26h-66l-11 -30h109q-1 1 -1 2t-1 2zM188 279l-12 -8h66l12 34h-99zM94 186l-14 -40h3l62 40h-51zM176 407h-1l-4 -10h17l-12 11v-1z" />
    <glyph glyph-name="FL20ACh" unicode="&#x20ac;" horiz-adv-x="740" 
d="M295 83h433q8 11 16 21.5t16 21.5h-497q14 -25 32 -43zM408 20h262q24 21 45 47h-402q20 -17 44 -28t51 -19zM618 244h-195v1h-187v-1h-33l-56 -36h415zM819 424h-514q-5 -7 -9.5 -13.5t-9.5 -13.5h503zM423 274h110l48 31h-415l-48 -31h120v-3h184zM493 164l34 22h-415
l-34 -22h170l6 -18h236q-11 6 -20 18h23zM873 483h-507q-8 -6 -15 -12l-14 -12h515zM658 354h-197q4 6 8 10h-202q-2 -3 -3 -5.5t-2 -4.5h-19l-31 -20h415zM910 530h-413q-26 0 -55 -8h462q2 2 6 8zM567 0h80q3 2 8 7h-188q24 -4 49 -5.5t51 -1.5z" />
    </font>
</defs>
</svg>
