<?xml version="1.0" standalone="no"?>
<!DOCTYPE svg PUBLIC "-//W3C//DTD SVG 1.1//EN" "http://www.w3.org/Graphics/SVG/1.1/DTD/svg11.dtd" >
<svg xmlns="http://www.w3.org/2000/svg" xmlns:xlink="http://www.w3.org/1999/xlink" version="1.1">
<metadata>
Created by FontForge 20170731 at Sun Jul 23 21:23:57 2000
 By Aleksey,,,
Copyright (c) ShyFonts Type Foundry, 2000. All rights reserved.
</metadata>
<defs>
<font id="SFOrsonCasualLight-Oblique" horiz-adv-x="1331" >
  <font-face 
    font-family="SF Orson Casual Light"
    font-weight="400"
    font-style="oblique"
    font-stretch="normal"
    units-per-em="2048"
    panose-1="0 0 4 0 0 0 0 0 0 0"
    ascent="1638"
    descent="-410"
    x-height="1178"
    cap-height="1348"
    bbox="-43.2821 -323 2315.04 1877"
    underline-thickness="20"
    underline-position="-163"
    slope="-12"
    unicode-range="U+0020-2122"
  />
<missing-glyph horiz-adv-x="1024" 
 />
    <glyph glyph-name=".notdef" horiz-adv-x="1024" 
 />
    <glyph glyph-name=".null" horiz-adv-x="0" 
 />
    <glyph glyph-name="nonmarkingreturn" horiz-adv-x="682" 
 />
    <glyph glyph-name="space" unicode=" " horiz-adv-x="734" 
 />
    <glyph glyph-name="exclam" unicode="!" horiz-adv-x="375" 
d="M350 401q-5 -24 -27 -42t-46 -18t-38 18t-9 42l189 888q3 12 10 22.5t17 18.5t22 13t24 5q24 0 38 -18t9 -41zM281 77q-5 -24 -26.5 -42t-45.5 -18t-38.5 18t-9.5 42t27 42t46 18t38 -18t9 -42z" />
    <glyph glyph-name="quotedbl" unicode="&#x22;" horiz-adv-x="649" 
d="M772 1101q-5 -24 -27 -42t-46 -18t-38 18t-9 42l40 188q3 12 10 22.5t17 18.5t22 13t24 5q24 0 38 -18t9 -41zM499 1101q-5 -24 -27 -42t-46 -18t-38 18t-9 42l40 188q3 12 10 22.5t17 18.5t22 13t24 5q24 0 38 -18t9 -41z" />
    <glyph glyph-name="numbersign" unicode="#" horiz-adv-x="1246" 
d="M1280 683q-5 -24 -27 -42t-46 -18h-225l-62 -203q-18 -62 -78 -62q-24 0 -36 18t-5 42l61 205h-221l-62 -203q-18 -62 -78 -62q-24 0 -36 18t-6 42l62 205h-184q-24 0 -38 18t-9 42t27 41.5t46 17.5h194l68 222h-215q-24 0 -38 18t-9 42t26.5 42t45.5 18h223l63 203
q16 61 80 61q22 0 34 -18.5t6 -40.5l-63 -205h222l62 203q19 61 80 61q22 0 34.5 -18.5t5.5 -40.5l-63 -205h186q24 0 38.5 -18t9.5 -42t-27 -42t-46 -18h-194l-68 -222h215q24 0 38 -17.5t9 -41.5zM966 964h-222l-67 -222h222z" />
    <glyph glyph-name="dollar" unicode="$" horiz-adv-x="980" 
d="M950 381q-29 -132 -135 -232t-243 -127l-25 -114q-5 -24 -26.5 -42t-45.5 -18q-62 0 -41 101l6.5 26t11.5 47q-186 44 -217 174q-4 19 -3 31q5 24 26 42t45 18q28 0 46 -26q6 -12 12.5 -24t12.5 -24q28 -41 103 -70l103 485q-125 27 -190 126q-65 97 -36 231
q29 132 134 231q106 100 244 127l25 116q5 24 27 42t46 18t38 -18t9 -42l-25 -116q186 -44 217 -174q2 -11 2.5 -18.5t-0.5 -12.5q-5 -24 -26 -41.5t-45 -17.5q-27 0 -45 25q-6 12 -12.5 24t-13.5 24q-27 41 -102 70l-103 -485q124 -27 189 -126q65 -101 37 -230zM606 749
l101 473q-197 -68 -233 -237q-35 -168 132 -236zM830 381q35 167 -132 235l-101 -473q197 69 233 238z" />
    <glyph glyph-name="percent" unicode="%" horiz-adv-x="1372" 
d="M1337 358q-30 -140 -152 -241q-121 -100 -261 -100q-152 0 -224 114q-65 110 -32 265l3.5 17.5t3.5 14.5q3 15 6 23l-422 -402q-22 -20 -50 -20q-59 0 -45 60q5 21 22 37l597 569q-108 -29 -155 -29q-141 0 -220 100t-49 241q30 140 151 240q124 101 263 101
q152 0 223 -116q66 -107 33 -263q-4 -17 -7 -30.5t-6 -22.5l421 400q22 20 50 20q59 0 45 -59q-4 -21 -21 -38l-598 -568q108 29 156 29q138 0 218 -101t50 -241zM922 1007q19 90 -33 156q-51 66 -142 66t-170 -66q-78 -66 -98 -156q-19 -89 32 -157q53 -65 142 -65
q90 0 170 65q80 66 99 157zM1218 358q19 91 -33 156q-53 66 -142 66q-92 0 -171 -66q-78 -64 -98 -156q-19 -88 32 -156q53 -65 143 -65q88 0 170 65q79 66 99 156z" />
    <glyph glyph-name="ampersand" unicode="&#x26;" horiz-adv-x="992" 
d="M897 77q-5 -24 -26.5 -42t-45.5 -18q-39 0 -51 56q-123 -56 -215 -56q-167 0 -264 117q-97 116 -62 282q53 243 308 367q-113 106 -81 255q27 126 140 218q116 92 242 92q58 0 132 -34q33 34 64 34q24 0 38 -18t9 -41l-56 -262q-3 -12 -10 -22.5t-16.5 -18.5t-21.5 -13
t-24 -5q-24 0 -38.5 18t-9.5 41l31 145q-56 57 -124 57q-78 0 -151 -59q-70 -58 -87 -137q-18 -81 28 -139t127 -58h85q24 0 38 -18t9 -41q-5 -24 -27 -42t-46 -18h-85q-119 0 -222 -87q-103 -85 -129 -203q-26 -119 42 -204q68 -86 186 -86q95 0 225 88l30 144
q6 24 27.5 41.5t45.5 17.5t38.5 -17.5t8.5 -41.5z" />
    <glyph glyph-name="quotesingle" unicode="'" horiz-adv-x="375" 
d="M499 1101q-5 -24 -27 -42t-46 -18t-38 18t-9 42l40 188q3 12 10 22.5t17 18.5t22 13t24 5q24 0 38 -18t9 -41z" />
    <glyph glyph-name="parenleft" unicode="(" horiz-adv-x="597" 
d="M466 -92q-5 -24 -26 -42t-45 -18q-27 0 -47 38q-159 319 -58 797q105 494 397 798q35 38 64 38q58 0 45 -60q-5 -21 -61 -94q-19 -23 -38 -47l-38 -48q-174 -235 -249 -587q-77 -362 -3 -591q8 -24 18.5 -47t19.5 -45q26 -71 21 -92z" />
    <glyph glyph-name="parenright" unicode=")" horiz-adv-x="597" 
d="M631 683q-101 -478 -396 -797q-35 -38 -62 -38q-24 0 -38.5 18t-9.5 42q4 20 61 92q19 22 38.5 45t39.5 47q172 230 248 591q73 349 0 587l-18 48t-18 47q-25 73 -21 94q13 60 71 60q28 0 48 -38q162 -305 57 -798z" />
    <glyph glyph-name="asterisk" unicode="*" horiz-adv-x="833" 
d="M912 893q-14 -62 -75 -62q-13 0 -23 9l-136 123q-12 -100 -18 -152t-7 -57q-2 -11 -9 -20.5t-17 -17t-21.5 -12t-23.5 -4.5q-22 0 -37 16t-11 38q2 6 18 57.5t47 151.5l-188 -123q-14 -9 -27 -9q-63 0 -49 62q8 38 37 49l223 82l-188 82q-25 10 -16 49q14 62 75 62
q12 0 23 -9l136 -123q11 100 17 151.5t7 57.5q5 22 27 38t44 16q23 0 38 -15t10 -38q-1 -7 -17 -58.5t-47 -151.5l188 123q13 9 27 9q61 0 48 -63q-7 -37 -37 -48l-222 -82l187 -82q25 -10 17 -49z" />
    <glyph glyph-name="plus" unicode="+" horiz-adv-x="905" 
d="M939 683q-5 -24 -27 -42t-46 -18h-205l-43 -205q-5 -24 -27 -42t-46 -18t-37.5 18t-8.5 42l43 205h-205q-24 0 -38 18t-9 42t27 41.5t46 17.5h205l43 205q5 24 26.5 42t45.5 18t38 -18t9 -42l-43 -205h205q24 0 38 -17.5t9 -41.5z" />
    <glyph glyph-name="comma" unicode="," horiz-adv-x="375" 
d="M245 -92q-5 -24 -26.5 -42t-45.5 -18t-38.5 18t-9.5 42l40 186q5 24 27 42t46 18t38 -18t9 -42z" />
    <glyph glyph-name="hyphen" unicode="-" horiz-adv-x="905" 
d="M939 683q-5 -24 -27 -42t-46 -18h-529q-24 0 -38 18t-9 42t27 41.5t46 17.5h529q24 0 38 -17.5t9 -41.5z" />
    <glyph glyph-name="period" unicode="." horiz-adv-x="375" 
d="M281 77q-5 -24 -26.5 -42t-45.5 -18t-38.5 18t-9.5 42t27 42t46 18t38 -18t9 -42z" />
    <glyph glyph-name="slash" unicode="/" horiz-adv-x="529" 
d="M810 1442q-1 -1 -1 -2t-1 -3q0 -1 -2 -7l-647 -1517q-23 -48 -69 -48q-23 0 -37 18t-9 42q0 3 1 5q1 1 3 7l647 1517q19 48 68 48q24 0 38 -18t9 -42z" />
    <glyph glyph-name="zero" unicode="0" horiz-adv-x="1587" 
d="M1621 683q-58 -274 -296 -470q-236 -196 -510 -196q-275 0 -429 196t-96 470q59 273 296 469q238 196 512 196q273 0 427 -196t96 -469zM1502 683q48 223 -80 384q-128 162 -350 162q-226 0 -419 -162q-195 -161 -243 -384q-47 -225 79 -385q128 -161 351 -161
q222 0 418 161q196 160 244 385z" />
    <glyph glyph-name="one" unicode="1" horiz-adv-x="461" 
d="M323 77q-5 -24 -26.5 -42t-45.5 -18q-23 0 -37.5 18t-9.5 42l258 1212q3 12 10 22.5t17 18.5t21.5 13t23.5 5q24 0 38 -18t9 -41z" />
    <glyph glyph-name="two" unicode="2" horiz-adv-x="1111" 
d="M973 77q-5 -24 -26 -42t-45 -18h-659q-24 0 -38.5 18t-9.5 42q5 21 26 41l669 594q122 107 146 220q29 136 -55 218q-76 79 -215 79q-95 0 -210 -70t-122 -70q-24 0 -37 18t-8 42q7 37 79 87q160 112 324 112q188 0 294 -112q108 -119 69 -304q-33 -156 -198 -304
l-539 -491h509q24 0 37.5 -18t8.5 -42z" />
    <glyph glyph-name="three" unicode="3" horiz-adv-x="992" 
d="M969 416q-34 -165 -182 -282q-146 -117 -312 -117q-145 0 -250 102q-45 45 -38 79q13 61 71 61q11 0 87 -61t155 -61q118 0 222 86q104 85 130 204q25 116 -43 203t-186 87h-85q-24 0 -38 18t-9 42q3 12 10 22.5t17 18.5t22 13t24 5h85q80 0 150 58t88 139q17 80 -29 138
t-126 58q-61 0 -131 -46q-69 -45 -84 -45q-59 0 -45 60q14 63 122 109q97 41 164 41q126 0 201 -92q75 -91 49 -218q-32 -149 -192 -255q206 -125 153 -367z" />
    <glyph glyph-name="four" unicode="4" horiz-adv-x="1212" 
d="M1074 77q-5 -24 -26.5 -42t-45.5 -18q-23 0 -37.5 18t-9.5 42l80 375h-734q-24 0 -38 18t-9 42q4 19 24 43l515 597q23 26 56 26q24 0 37 -19t8 -43q-3 -17 -14 -31l-442 -513h623l152 717q3 12 10 22.5t17 18.5t21.5 13t23.5 5q24 0 38 -18t9 -41z" />
    <glyph glyph-name="five" unicode="5" horiz-adv-x="1213" 
d="M1212 512q-44 -204 -220 -349q-178 -146 -379 -146q-175 0 -305 126q-49 49 -42 86q5 24 26.5 41.5t44.5 17.5t56 -39q88 -112 245 -112q154 0 288 110q133 112 166 265q33 155 -55 264q-87 111 -240 111q-234 0 -351 -163q-17 -29 -54 -84q-32 -39 -61 -39q-61 0 -46 58
l1 5l193 623q16 61 73 61h607q24 0 38 -18t9 -41q-5 -24 -27 -42t-46 -18h-556l-117 -360q195 138 363 138q201 0 317 -147q114 -149 72 -348z" />
    <glyph glyph-name="six" unicode="6" horiz-adv-x="1246" 
d="M1244 512q-44 -204 -220 -349q-178 -146 -380 -146t-318 146t-72 349q37 178 184 319l522 497q23 20 49 20q24 0 38 -18t9 -41q-4 -21 -25 -40l-264 -256q76 9 103 9q197 0 307 -146q109 -145 67 -344zM1124 512q33 155 -54 265q-86 110 -241 110t-289 -110
q-133 -109 -166 -265q-33 -155 53 -265q87 -110 242 -110q154 0 288 110t167 265z" />
    <glyph glyph-name="seven" unicode="7" horiz-adv-x="1118" 
d="M1366 1289q-5 -20 -20 -38l-1038 -1208q-23 -26 -57 -26q-23 0 -36.5 19t-8.5 43q3 16 15 30l962 1120h-760q-24 0 -38 18t-9 42q3 12 10 22.5t17 18.5t22 13t24 5h871q23 0 37 -18t9 -41z" />
    <glyph glyph-name="eight" unicode="8" horiz-adv-x="1075" 
d="M1052 416q-34 -165 -182 -282q-146 -117 -311 -117q-167 0 -263 118q-97 118 -62 283q51 242 309 365q-116 104 -83 255q27 126 140 218q116 92 242 92q127 0 201 -92q75 -91 48 -218q-33 -151 -191 -255q204 -123 152 -367zM971 1033q17 80 -29 138t-126 58
q-81 0 -151 -58q-71 -59 -87 -138q-18 -81 28 -139t127 -58q80 0 150 58t88 139zM936 427q25 117 -44 203q-68 87 -185 87q-119 0 -222 -87q-103 -85 -129 -203q-26 -119 42 -204q68 -86 186 -86q117 0 221 86q106 86 131 204z" />
    <glyph glyph-name="nine" unicode="9" horiz-adv-x="1246" 
d="M1316 853q-37 -179 -183 -319l-523 -496q-21 -21 -48 -21q-24 0 -38.5 18t-9.5 42q4 18 25 39l264 256q-39 -4 -64.5 -6t-38.5 -2q-199 0 -307 145q-109 145 -67 344q44 204 220 349q179 146 381 146q203 0 317 -146q116 -146 72 -349zM1196 853q33 156 -54 266
q-86 110 -241 110t-289 -110q-133 -109 -166 -266q-33 -155 54 -265t242 -110q154 0 288 110q133 109 166 265z" />
    <glyph glyph-name="colon" unicode=":" horiz-adv-x="375" 
d="M426 759q-3 -12 -10 -22.5t-16.5 -18.5t-21.5 -13t-24 -5q-24 0 -38.5 18t-9.5 41q5 24 27 42t46 18t38 -18t9 -42zM281 77q-5 -24 -26.5 -42t-45.5 -18t-38.5 18t-9.5 42t27 42t46 18t38 -18t9 -42z" />
    <glyph glyph-name="semicolon" unicode=";" horiz-adv-x="375" 
d="M426 759q-3 -12 -10 -22.5t-16.5 -18.5t-21.5 -13t-24 -5q-24 0 -38.5 18t-9.5 41q5 24 27 42t46 18t38 -18t9 -42zM245 -92q-5 -24 -26.5 -42t-45.5 -18t-38.5 18t-9.5 42l40 186q5 24 27 42t46 18t38 -18t9 -42z" />
    <glyph glyph-name="less" unicode="&#x3c;" horiz-adv-x="905" 
d="M863 323q-14 -60 -73 -60q-16 0 -20 3l-438 354q-47 37 -42 63q6 25 69 63l588 353q4 4 17 4q64 0 52 -60q-8 -32 -52 -57l-520 -303l391 -304q34 -25 28 -56z" />
    <glyph glyph-name="equal" unicode="=" horiz-adv-x="905" 
d="M975 853q-5 -24 -26.5 -41.5t-45.5 -17.5h-529q-24 0 -38.5 17.5t-9.5 41.5t27 42t46 18h529q24 0 38 -18t9 -42zM903 512q-5 -24 -27 -42t-46 -18h-529q-24 0 -38 18t-9 42t27 42t46 18h529q24 0 38 -18t9 -42z" />
    <glyph glyph-name="greater" unicode="&#x3e;" horiz-adv-x="905" 
d="M939 683q-4 -25 -68 -63l-589 -354q-6 -3 -21 -3q-61 0 -47 60q6 31 51 56l520 304l-391 303q-35 25 -27 57q12 60 75 60q13 0 17 -4l439 -353q47 -38 41 -63z" />
    <glyph glyph-name="question" unicode="?" horiz-adv-x="940" 
d="M1038 985q-32 -151 -161 -256q-128 -106 -277 -106q-111 0 -154 -70q-27 -42 -50 -152q-5 -24 -27 -42t-46 -18t-38 18t-9 42l7 34q38 173 102 236q74 71 241 71q99 0 185 72q87 72 108 171q21 98 -35 171q-55 73 -155 73q-80 0 -141 -39q-29 -18 -87 -72
q-44 -39 -69 -39q-24 0 -37 17.5t-8 41.5q2 12 15 31q56 82 159 131q99 48 194 48q147 0 231 -108q84 -106 52 -255zM327 77q-5 -24 -26.5 -42t-45.5 -18t-38.5 18t-9.5 42t27 42t46 18t38 -18t9 -42z" />
    <glyph glyph-name="at" unicode="@" horiz-adv-x="1587" 
d="M1621 683q-58 -274 -296 -470q-236 -196 -510 -196q-275 0 -429 196t-96 470q59 273 296 469q238 196 512 196q273 0 427 -196t96 -469zM1502 683q48 223 -80 384q-128 162 -350 162q-226 0 -419 -162q-195 -161 -243 -384q-47 -225 79 -385q128 -161 351 -161
q222 0 418 161q196 160 244 385zM1392 983l-178 -597q-3 -12 -11.5 -23t-20 -20t-24 -14t-24.5 -5q-53 0 -42 53q1 2 6.5 21.5t17.5 57.5q-149 -132 -281 -132q-135 0 -212 95q-75 94 -46 231q33 156 176 273q142 118 299 118q130 0 201 -131q32 131 98 131q20 0 33.5 -17
t8.5 -38zM1187 701q20 93 -31 157q-49 64 -143 64q-103 0 -197 -78q-92 -79 -115 -180q-19 -90 31 -156q49 -64 142 -64q100 0 197 77q93 77 116 180z" />
    <glyph glyph-name="A" unicode="A" horiz-adv-x="1140" 
d="M1156 77q-3 -12 -10 -23t-17 -19t-21 -13t-22 -5q-42 0 -50 38l-59 303h-628l-187 -303q-23 -38 -66 -38q-22 0 -36.5 18t-9.5 42q3 15 9 22l746 1201q30 48 69 48q38 0 47 -48l237 -1201q1 -7 -2 -22zM954 478l-127 652l-402 -652h529z" />
    <glyph glyph-name="B" unicode="B" horiz-adv-x="1118" 
d="M1173 379q-32 -150 -162 -256q-127 -106 -277 -106h-628l283 1331h594q148 0 232 -107t53 -255q-37 -175 -230 -295q177 -113 135 -312zM1149 986q21 99 -36 171t-156 72h-474l-103 -487h474q99 0 186 72q88 73 109 172zM1054 379q21 99 -36 171q-57 73 -156 73h-508
l-103 -486h508q97 0 186 71q88 72 109 171z" />
    <glyph glyph-name="C" unicode="C" horiz-adv-x="1282" 
d="M1267 254q-9 -43 -112 -104q-224 -133 -426 -133q-274 0 -428 196t-96 470q59 273 296 469q238 196 511 196q202 0 369 -133q77 -62 68 -104q-5 -24 -26.5 -42t-45.5 -18t-47 26q-10 10 -19.5 20t-17.5 21q-110 111 -307 111q-223 0 -419 -162q-195 -161 -243 -384
q-47 -225 79 -385q129 -161 351 -161q196 0 354 110q13 10 28 22t29.5 22t29 16.5t26.5 6.5q24 0 37.5 -18t8.5 -42z" />
    <glyph glyph-name="D" unicode="D" horiz-adv-x="1306" 
d="M1425 683q-59 -274 -297 -470q-236 -196 -510 -196h-512l283 1331h512q273 0 427 -196q155 -198 97 -469zM1306 683q48 223 -80 384q-128 162 -351 162h-392l-232 -1092h392q223 0 419 161q196 160 244 385z" />
    <glyph glyph-name="E" unicode="E" horiz-adv-x="1075" 
d="M1023 77q-5 -24 -26.5 -42t-45.5 -18h-785q-24 0 -38.5 18t-9.5 42l258 1212q3 12 10 22.5t17 18.5t22 13t24 5h785q24 0 38 -18t9 -41q-5 -24 -27 -42t-46 -18h-725l-103 -487h555q23 0 37 -17.5t9 -41.5t-27 -42t-45 -18h-555l-103 -486h725q24 0 38 -18t9 -42z" />
    <glyph glyph-name="F" unicode="F" horiz-adv-x="1033" 
d="M1281 1289q-5 -24 -27 -42t-46 -18h-725l-103 -487h555q23 0 37 -17.5t9 -41.5t-27 -42t-45 -18h-555l-116 -546q-5 -24 -26.5 -42t-45.5 -18t-38.5 18t-9.5 42l258 1212q3 12 10 22.5t17 18.5t22 13t24 5h785q24 0 38 -18t9 -41z" />
    <glyph glyph-name="G" unicode="G" horiz-adv-x="1304" 
d="M1252 77q-5 -24 -26.5 -42t-45.5 -18q-47 0 -46 58q0 7 5 31.5t14 67.5q-205 -157 -424 -157q-274 0 -428 196t-96 470q59 273 296 469q238 196 511 196q199 0 369 -133q79 -60 68 -104q-5 -24 -26.5 -42t-45.5 -18q-13 0 -24 6.5t-21.5 16.5t-19.5 21.5t-18 22.5
q-105 111 -308 111q-223 0 -419 -162q-195 -161 -243 -384q-47 -225 79 -385q129 -161 351 -161q214 0 426 165l68 321h-485q-23 0 -37 18t-9 42t27 41.5t45 17.5h545q24 0 38 -17.5t9 -41.5z" />
    <glyph glyph-name="H" unicode="H" 
d="M1279 77q-5 -24 -26.5 -42t-45.5 -18t-38.5 18t-9.5 42l116 546h-921l-116 -546q-5 -24 -26.5 -42t-45.5 -18t-38.5 18t-9.5 42l258 1212q3 12 10 22.5t17 18.5t22 13t24 5q24 0 38 -18t9 -41l-116 -547h921l116 547q3 12 10 22.5t17 18.5t22 13t24 5q24 0 38 -18t9 -41z
" />
    <glyph glyph-name="I" unicode="I" horiz-adv-x="290" 
d="M238 77q-5 -24 -26.5 -42t-45.5 -18t-38.5 18t-9.5 42l258 1212q3 12 10 22.5t17 18.5t22 13t24 5q24 0 38 -18t9 -41z" />
    <glyph glyph-name="J" unicode="J" horiz-adv-x="986" 
d="M1023 495q-42 -200 -219 -339q-173 -139 -377 -139q-180 0 -307 125q-47 47 -39 80q5 24 27 41t46 17q4 0 99 -72q95 -71 199 -71q150 0 286 104q135 105 166 254l169 794q3 12 10 22.5t17 18.5t21.5 13t23.5 5q24 0 38 -18t9 -41z" />
    <glyph glyph-name="K" unicode="K" horiz-adv-x="1033" 
d="M1023 77q-12 -60 -70 -60q-30 0 -42 21l-345 553l-274 -262l-54 -252q-5 -24 -26.5 -42t-45.5 -18t-38.5 18t-9.5 42l258 1212q3 12 10 22.5t17 18.5t22 13t24 5q24 0 38 -18t9 -41l-165 -775l854 814q23 20 51 20q59 0 45 -59q-5 -23 -23 -40l-594 -566l354 -567
q10 -15 5 -39z" />
    <glyph glyph-name="L" unicode="L" horiz-adv-x="1033" 
d="M1023 77q-5 -24 -26.5 -42t-45.5 -18h-785q-24 0 -38.5 18t-9.5 42l258 1212q3 12 10 22.5t17 18.5t22 13t24 5q24 0 38 -18t9 -41l-245 -1152h725q24 0 38 -18t9 -42z" />
    <glyph glyph-name="M" unicode="M" horiz-adv-x="1417" 
d="M1364 77q-5 -24 -26.5 -42t-44.5 -18q-24 0 -38.5 18t-9.5 42l216 1014l-615 -716q-36 -42 -50 -42q-13 0 -32 42l-310 716l-216 -1014q-5 -24 -26.5 -42t-45.5 -18t-38.5 18t-9.5 42l258 1212q3 12 10 22.5t17 18.5t22 13t24 5q37 0 47 -25l343 -789l678 789
q22 25 59 25q23 0 37 -18t9 -41z" />
    <glyph glyph-name="N" unicode="N" 
d="M1279 77q-5 -24 -26.5 -42t-45.5 -18t-45 31l-702 1073l-222 -1044q-5 -24 -26.5 -42t-45.5 -18t-38.5 18t-9.5 42l258 1212q3 12 10 22.5t17 18.5t22 13t24 5q26 0 37 -17l709 -1087l222 1045q3 12 10 22.5t17 18.5t22 13t24 5q24 0 38 -18t9 -41z" />
    <glyph glyph-name="O" unicode="O" horiz-adv-x="1417" 
d="M1536 683q-59 -274 -297 -470q-236 -196 -510 -196t-428 196t-96 470q59 273 296 469q238 196 511 196t427 -196q155 -198 97 -469zM1416 683q48 225 -78 385q-128 161 -352 161t-420 -161q-194 -161 -242 -385q-48 -226 78 -386t352 -160q227 0 420 160q194 161 242 386
z" />
    <glyph glyph-name="P" unicode="P" horiz-adv-x="1118" 
d="M1284 901q-40 -184 -200 -317q-159 -132 -343 -132h-423l-80 -375q-5 -24 -26.5 -42t-45.5 -18t-38.5 18t-9.5 42l271 1271h543q184 0 286 -132q105 -131 66 -315zM1165 901q28 135 -48 231q-76 97 -211 97h-423l-139 -657h423q136 0 251 97q119 98 147 232z" />
    <glyph glyph-name="Q" unicode="Q" horiz-adv-x="1417" 
d="M1536 683q-60 -282 -321 -492l123 -157q14 -17 9 -41q-6 -24 -27.5 -42t-44.5 -18q-27 0 -39 18l-132 168q-192 -102 -375 -102q-274 0 -428 196t-96 470q59 273 296 469q238 196 511 196t427 -196q155 -198 97 -469zM1416 683q48 225 -78 385q-128 161 -352 161
q-223 0 -419 -162q-195 -161 -243 -384q-47 -225 79 -385q129 -161 351 -161q128 0 282 68l-111 140q-13 15 -8 42q5 24 26.5 41t45.5 17q25 0 39 -17l121 -153q217 172 267 408z" />
    <glyph glyph-name="R" unicode="R" horiz-adv-x="1118" 
d="M1108 77q-5 -24 -26.5 -42t-44.5 -18q-24 0 -38 17l-330 418h-351l-80 -375q-5 -24 -26.5 -42t-45.5 -18t-38.5 18t-9.5 42l271 1271h543q184 0 286 -132q105 -131 66 -315q-34 -159 -162 -281q-123 -117 -288 -159l266 -342q14 -17 8 -42zM1165 901q28 135 -48 231
q-76 97 -211 97h-423l-139 -657h423q136 0 251 97q119 98 147 232z" />
    <glyph glyph-name="S" unicode="S" horiz-adv-x="809" 
d="M864 381q-31 -147 -162 -257q-130 -107 -276 -107q-95 0 -171 48q-82 49 -105 131q-6 16 -3 31q5 24 26 42t45 18q28 0 48 -33q4 -7 9.5 -17t13.5 -24q54 -76 162 -76q99 0 185 72q88 73 109 172t-36 170q-56 72 -155 72q-150 0 -234 106q-82 106 -51 256q31 148 161 255
q129 108 279 108q92 0 169 -48q84 -50 106 -131q5 -19 2 -31q-5 -24 -26 -41.5t-45 -17.5q-28 0 -48 32q-3 7 -9 17t-14 24q-56 77 -161 77q-100 0 -186 -73q-88 -72 -109 -171t36 -171t156 -72q147 0 231 -107t53 -254z" />
    <glyph glyph-name="T" unicode="T" horiz-adv-x="1195" 
d="M1469 1289q-5 -24 -27 -42t-46 -18h-461l-245 -1152q-5 -24 -26.5 -42t-45.5 -18q-23 0 -37.5 18t-9.5 42l245 1152h-461q-24 0 -38 18t-9 42q3 12 10 22.5t17 18.5t22 13t24 5h1041q24 0 38 -18t9 -41z" />
    <glyph glyph-name="U" unicode="U" 
d="M1390 597q-51 -239 -258 -410q-206 -170 -445 -170q-237 0 -374 170q-135 171 -84 410l147 692q3 12 10 22.5t17 18.5t22 13t24 5q24 0 38 -18t9 -41l-147 -692q-40 -189 66 -325q106 -135 297 -135q189 0 353 135q165 136 205 325l147 692q3 12 10 22.5t17 18.5t22 13
t24 5q24 0 38 -18t9 -41z" />
    <glyph glyph-name="V" unicode="V" horiz-adv-x="1140" 
d="M1414 1289q-3 -13 -8 -23l-747 -1201q-30 -48 -68 -48q-39 0 -48 48l-236 1201q-2 9 1 23q5 23 26 41t45 18q43 0 50 -37l208 -1075l666 1075q22 37 66 37q24 0 37 -18t8 -41z" />
    <glyph glyph-name="W" unicode="W" horiz-adv-x="1652" 
d="M1926 1289q-3 -13 -8 -23l-747 -1201q-30 -48 -68 -48q-39 0 -48 48l-95 485l-301 -485q-30 -48 -68 -48q-39 0 -48 48l-236 1201q-2 9 1 23q3 12 10 22.5t17 18.5t21.5 13t22.5 5q43 0 50 -37l208 -1075l291 471l-109 559q-2 9 1 23q3 12 10 22.5t17 18.5t21.5 13
t22.5 5q43 0 50 -37l86 -444l276 444q22 37 66 37q22 0 36 -18t9 -41q-3 -13 -8 -23l-348 -559l91 -471l666 1075q22 37 66 37q22 0 36 -18t9 -41z" />
    <glyph glyph-name="X" unicode="X" horiz-adv-x="1224" 
d="M1214 77q-5 -24 -26.5 -42t-45.5 -18q-28 0 -40 21l-348 554l-582 -554q-21 -21 -50 -21q-58 0 -46 60q4 20 21 37l599 569l-357 568q-10 15 -5 38q14 59 71 59q29 0 41 -20l346 -555l584 555q23 20 49 20q24 0 38 -18t9 -41q-4 -20 -24 -40l-596 -566l356 -567
q10 -20 6 -39z" />
    <glyph glyph-name="Y" unicode="Y" horiz-adv-x="1172" 
d="M1446 1289q-4 -20 -24 -40l-619 -587l-125 -585q-5 -24 -26.5 -42t-45.5 -18q-23 0 -37.5 18t-9.5 42l125 587l-370 587q-10 16 -6 38q14 59 71 59q29 0 41 -20l346 -555l584 555q23 20 50 20q24 0 37.5 -18t8.5 -41z" />
    <glyph glyph-name="Z" unicode="Z" horiz-adv-x="1224" 
d="M1214 77q-5 -24 -26.5 -42t-45.5 -18h-1020q-58 0 -46 60q4 20 21 37l1174 1115h-891q-23 0 -37 18t-9 42q3 12 10 22.5t17 18.5t21.5 13t23.5 5h1019q24 0 38 -18t9 -41q-4 -21 -32 -47l-1164 -1105h891q24 0 38 -18t9 -42z" />
    <glyph glyph-name="bracketleft" unicode="[" horiz-adv-x="649" 
d="M518 -92q-5 -24 -26.5 -42t-45.5 -18h-273q-24 0 -38.5 18t-9.5 42l330 1551q5 24 27 42t46 18h273q24 0 38 -18t9 -42t-27 -42t-46 -18h-213l-304 -1431h213q24 0 38.5 -18t8.5 -42z" />
    <glyph glyph-name="backslash" unicode="\" horiz-adv-x="529" 
d="M487 -75q-5 -24 -26.5 -42t-45.5 -18q-49 0 -47 48l-3 1517v7q1 2 1 3t1 2q5 24 26.5 42t44.5 18q46 0 48 -48l3 -1517q0 -6 -1 -7q-1 -2 -1 -5z" />
    <glyph glyph-name="bracketright" unicode="]" horiz-adv-x="649" 
d="M518 -92q-5 -24 -26.5 -42t-45.5 -18h-273q-24 0 -38.5 18t-9.5 42q6 24 27.5 42t45.5 18h213l304 1431h-213q-24 0 -38 18t-9 42t27 42t46 18h273q24 0 38 -18t9 -42z" />
    <glyph glyph-name="asciicircum" unicode="^" horiz-adv-x="959" 
d="M937 418q-14 -60 -73 -60q-34 0 -46 38l-146 428l-329 -428q-29 -38 -62 -38q-61 0 -47 60q3 15 10 22l394 514q41 53 73 53t50 -53l176 -514q3 -8 0 -22z" />
    <glyph glyph-name="underscore" unicode="_" horiz-adv-x="905" 
d="M1014 77q-5 -24 -26 -42t-45 -18h-939q-22 0 -36.5 18t-9.5 42q3 12 10 23t17 19t21.5 13t22.5 5h939q24 0 37.5 -18t8.5 -42z" />
    <glyph glyph-name="grave" unicode="`" horiz-adv-x="527" 
d="M741 1529q-13 -61 -71 -61q-30 0 -45 29l-105 225q-6 13 -2 31q12 59 70 59q33 0 45 -27l107 -225q5 -15 1 -31z" />
    <glyph glyph-name="a" unicode="a" horiz-adv-x="1289" 
d="M1236 77q-5 -24 -26.5 -42t-44.5 -18q-24 0 -38.5 18t-9.5 42l42 196q-244 -256 -515 -256q-237 0 -374 170q-134 173 -83 410q49 237 257 410q207 171 446 171q271 0 407 -256l42 196q5 24 26.5 42t45.5 18q23 0 37.5 -18t9.5 -42zM1228 597q40 189 -67 325
q-106 136 -296 136t-354 -136q-165 -135 -205 -325q-40 -188 67 -325q106 -135 296 -135q187 0 354 135q165 136 205 325z" />
    <glyph glyph-name="b" unicode="b" horiz-adv-x="1289" 
d="M1390 597q-51 -239 -258 -410q-206 -170 -445 -170q-272 0 -407 256l-42 -196q-5 -24 -26.5 -42t-45.5 -18t-38.5 18t-9.5 42l258 1212q3 12 10 22.5t17 18.5t22 13t24 5q24 0 38 -18t9 -41l-78 -367q243 256 515 256q239 0 373 -171q135 -171 84 -410zM1270 597
q40 189 -67 325q-106 136 -295 136q-191 0 -355 -136q-164 -135 -204 -325q-40 -189 66 -325q106 -135 297 -135q189 0 353 135q165 136 205 325z" />
    <glyph glyph-name="c" unicode="c" horiz-adv-x="1137" 
d="M1273 966q-5 -24 -26 -42t-45 -18q-25 0 -48 22q-7 11 -15.5 20.5t-17.5 19.5q-89 90 -256 90q-190 0 -354 -136q-165 -135 -205 -325q-40 -188 67 -325q106 -135 296 -135q166 0 294 90l51 39q33 24 57 24t37 -18.5t8 -42.5q-9 -41 -102 -96q-197 -116 -370 -116
q-237 0 -374 170q-134 173 -83 410q49 237 257 410q207 171 446 171q173 0 322 -116q70 -55 61 -96z" />
    <glyph glyph-name="d" unicode="d" horiz-adv-x="1289" 
d="M1236 77q-5 -24 -26.5 -42t-44.5 -18q-24 0 -38.5 18t-9.5 42l42 196q-244 -256 -515 -256q-237 0 -374 170q-134 173 -83 410q49 237 257 410q207 171 446 171q271 0 407 -256l78 367q3 12 10 22.5t17 18.5t22 13t24 5q23 0 37 -18t9 -41zM1228 597q40 189 -67 325
q-106 136 -296 136t-354 -136q-165 -135 -205 -325q-40 -188 67 -325q106 -135 296 -135q187 0 354 135q165 136 205 325z" />
    <glyph glyph-name="e" unicode="e" horiz-adv-x="1137" 
d="M1273 966q-5 -26 -26 -43l-838 -691q118 -95 260 -95q166 0 294 90l51 39q33 24 57 24t37 -18.5t8 -42.5q-9 -41 -102 -96q-197 -116 -370 -116q-237 0 -373 171q-133 172 -84 409q49 238 258 409q208 172 445 172q167 0 322 -116q70 -55 61 -96zM1133 954
q-116 104 -268 104q-192 0 -355 -135t-204 -326q-33 -155 45 -288z" />
    <glyph glyph-name="f" unicode="f" horiz-adv-x="759" 
d="M1051 1289q-5 -24 -27 -42t-46 -18h-316l-83 -393h188q24 0 38 -18t9 -41q-5 -24 -27 -42t-46 -18h-188l-136 -640q-5 -24 -26.5 -42t-45.5 -18t-38 18t-9 42l136 640h-188q-24 0 -38 18t-9 42q3 12 10 22.5t17 18.5t22 13t24 5h188l96 453q3 12 10 22.5t16.5 18.5
t21.5 13t24 5h376q24 0 38 -18t9 -41z" />
    <glyph glyph-name="g" unicode="g" horiz-adv-x="1289" 
d="M1164 -263q-5 -24 -27 -42t-45 -18h-700q-24 0 -38 18t-9 42t27 42t46 18h640l101 476q-244 -256 -515 -256q-237 0 -374 170q-134 173 -83 410q49 237 257 410q207 171 446 171q271 0 407 -256l42 196q5 24 26.5 42t45.5 18q23 0 37.5 -18t9.5 -42zM1228 597
q40 189 -67 325q-106 136 -296 136t-354 -136q-165 -135 -205 -325q-40 -188 67 -325q106 -135 296 -135q187 0 354 135q165 136 205 325z" />
    <glyph glyph-name="h" unicode="h" 
d="M1279 77q-5 -24 -26.5 -42t-45.5 -18t-38.5 18t-9.5 42l111 520q40 189 -67 325q-106 136 -295 136q-191 0 -355 -136q-164 -135 -204 -325l-111 -520q-5 -24 -26.5 -42t-45.5 -18t-38.5 18t-9.5 42l258 1212q3 12 10 22.5t17 18.5t22 13t24 5q24 0 38 -18t9 -41
l-78 -366q252 255 530 255q234 0 362 -174q130 -171 80 -407z" />
    <glyph glyph-name="i" unicode="i" horiz-adv-x="290" 
d="M238 77q-5 -24 -26.5 -42t-45.5 -18t-38.5 18t-9.5 42l222 1041q5 24 26.5 42t45.5 18t38.5 -18t9.5 -42z" />
    <glyph glyph-name="j" unicode="j" horiz-adv-x="290" 
d="M166 -263q-5 -24 -27 -42t-46 -18t-38 18t-9 42l294 1381q5 24 26.5 42t45.5 18t38.5 -18t9.5 -42z" />
    <glyph glyph-name="k" unicode="k" horiz-adv-x="1014" 
d="M1004 77q-12 -60 -70 -60q-23 0 -40 17l-375 478l-228 -188l-53 -247q-5 -24 -26.5 -42t-45.5 -18t-38.5 18t-9.5 42l258 1212q3 12 10 22.5t17 18.5t22 13t24 5q24 0 38 -18t9 -41l-169 -794l807 666q23 17 46 17q58 0 46 -60q-6 -27 -25 -43l-579 -478l376 -478
q12 -15 6 -42z" />
    <glyph glyph-name="l" unicode="l" horiz-adv-x="290" 
d="M238 77q-5 -24 -26.5 -42t-45.5 -18t-38.5 18t-9.5 42l258 1212q3 12 10 22.5t17 18.5t22 13t24 5q24 0 38 -18t9 -41z" />
    <glyph glyph-name="m" unicode="m" horiz-adv-x="1758" 
d="M1706 77q-5 -24 -26.5 -42t-45.5 -18t-38.5 18t-9.5 42l144 674q26 125 -46 216q-70 91 -196 91t-236 -91q-111 -93 -136 -216l-144 -674q-5 -24 -26.5 -42t-45.5 -18t-38.5 18t-9.5 42l144 674q26 125 -46 216q-70 91 -196 91t-236 -91q-111 -93 -136 -216l-144 -674
q-5 -24 -26.5 -42t-45.5 -18t-38.5 18t-9.5 42l222 1041q5 24 26.5 42t45.5 18q50 0 46 -57q0 -4 -4 -26.5t-13 -65.5q172 149 338 149q248 0 311 -263q176 263 423 263q176 0 275 -126q100 -125 62 -301z" />
    <glyph glyph-name="n" unicode="n" 
d="M1279 77q-5 -24 -26.5 -42t-45.5 -18t-38.5 18t-9.5 42l111 520q40 189 -67 325q-106 136 -295 136q-191 0 -355 -136q-164 -135 -204 -325l-111 -520q-5 -24 -26.5 -42t-45.5 -18t-38.5 18t-9.5 42l222 1041q5 24 26.5 42t45.5 18t38.5 -18t9.5 -42l-42 -195
q252 255 530 255q234 0 362 -174q130 -171 80 -407z" />
    <glyph glyph-name="o" unicode="o" horiz-adv-x="1246" 
d="M1347 597q-51 -239 -258 -410q-206 -170 -445 -170q-237 0 -374 170q-134 173 -83 410q49 237 257 410q207 171 446 171t373 -171q135 -171 84 -410zM1228 597q40 189 -67 325q-106 136 -296 136t-354 -136q-165 -135 -205 -325q-40 -188 67 -325q106 -135 296 -135
q187 0 354 135q165 136 205 325z" />
    <glyph glyph-name="p" unicode="p" horiz-adv-x="1289" 
d="M1390 597q-51 -239 -258 -410q-206 -170 -445 -170q-271 0 -407 256l-114 -536q-5 -24 -27 -42t-46 -18t-38 18t-9 42l294 1381q5 24 26.5 42t45.5 18t38.5 -18t9.5 -42l-42 -196q243 256 515 256q239 0 373 -171q135 -171 84 -410zM1270 597q40 189 -67 325
q-106 136 -295 136q-191 0 -355 -136q-164 -135 -204 -325q-40 -189 66 -325q106 -135 297 -135q189 0 353 135q165 136 205 325z" />
    <glyph glyph-name="q" unicode="q" horiz-adv-x="1289" 
d="M1164 -263q-5 -24 -27 -42t-45 -18q-24 0 -38 18t-9 42l114 536q-244 -256 -515 -256q-237 0 -374 170q-134 173 -83 410q49 237 257 410q207 171 446 171q271 0 407 -256l42 196q5 24 26.5 42t45.5 18q23 0 37.5 -18t9.5 -42zM1228 597q40 189 -67 325
q-106 136 -296 136t-354 -136q-165 -135 -205 -325q-40 -188 67 -325q106 -135 296 -135q187 0 354 135q165 136 205 325z" />
    <glyph glyph-name="r" unicode="r" horiz-adv-x="768" 
d="M980 1118q-5 -24 -26.5 -42t-45.5 -18q-191 0 -355 -136q-164 -135 -204 -325l-111 -520q-5 -24 -26.5 -42t-45.5 -18t-38.5 18t-9.5 42l222 1041q5 24 26.5 42t45.5 18t38.5 -18t9.5 -42l-42 -195q129 131 238 188q127 67 277 67q24 0 38 -18t9 -42z" />
    <glyph glyph-name="s" unicode="s" horiz-adv-x="724" 
d="M770 338q-28 -132 -142 -226q-116 -95 -245 -95q-83 0 -153 41q-71 44 -91 118q-3 19 -1 32q3 11 10 21.5t17 18.5t21.5 13t22.5 5q21 0 71 -65q49 -64 128 -64q81 0 154 59q73 62 89 142q16 82 -30 141q-47 59 -128 59q-133 0 -206 93q-73 94 -45 226q29 132 141 226
q116 95 246 95q82 0 153 -44q70 -43 90 -115q5 -18 2 -31q-5 -24 -27 -42t-46 -18q-21 0 -69 65q-47 65 -128 65q-84 0 -154 -60q-71 -59 -89 -141q-17 -84 29 -141q47 -59 129 -59q132 0 205 -94q74 -96 46 -225z" />
    <glyph glyph-name="t" unicode="t" horiz-adv-x="759" 
d="M793 77q-5 -24 -26.5 -42t-45.5 -18h-376q-24 0 -38 18t-9 42l209 981h-188q-24 0 -38 18t-9 42t26.5 42t45.5 18h188l24 111q3 12 10 22.5t16.5 18.5t21.5 13t24 5q24 0 38 -18t9 -41l-24 -111h188q24 0 38.5 -18t9.5 -42t-27 -42t-46 -18h-188l-196 -921h316
q24 0 38 -18t9 -42z" />
    <glyph glyph-name="u" unicode="u" 
d="M1279 77q-5 -24 -26.5 -42t-45.5 -18t-38.5 18t-9.5 42l42 194q-252 -254 -530 -254q-233 0 -364 173q-128 174 -78 407l111 521q5 24 26.5 42t45.5 18t38.5 -18t9.5 -42l-111 -521q-40 -189 66 -325q106 -135 297 -135q189 0 353 135q165 136 205 325l111 521
q5 24 26.5 42t45.5 18t38.5 -18t9.5 -42z" />
    <glyph glyph-name="v" unicode="v" horiz-adv-x="1079" 
d="M1317 1118q-3 -11 -11 -24l-674 -1026q-1 -4 -4 -8.5t-7 -11.5q-18 -31 -61 -31q-42 0 -48 31q0 4 -1 8.5t-2 11.5l-237 1026q-3 13 0 24q5 24 26.5 42t45.5 18q39 0 47 -36l213 -915l603 915q22 36 62 36q24 0 38.5 -18t9.5 -42z" />
    <glyph glyph-name="w" unicode="w" horiz-adv-x="1591" 
d="M1829 1118q-3 -11 -11 -24l-674 -1026q-1 -4 -4 -8.5t-7 -11.5q-18 -31 -61 -31q-42 0 -48 31q0 4 -1 8.5t-2 11.5l-101 439l-288 -439q-1 -4 -4 -8.5t-7 -11.5q-18 -31 -61 -31q-42 0 -48 31q0 4 -1 8.5t-2 11.5l-237 1026q-3 13 0 24q5 24 26.5 42t45.5 18q39 0 47 -36
l214 -913l282 425l-103 440q-3 13 0 24q5 24 26.5 42t45.5 18q39 0 47 -36l79 -342l225 342q22 36 62 36q24 0 38.5 -18t9.5 -42q-3 -11 -11 -24l-290 -440l101 -425l602 913q22 36 62 36q24 0 38.5 -18t9.5 -42z" />
    <glyph glyph-name="x" unicode="x" horiz-adv-x="1075" 
d="M1066 77q-5 -24 -26.5 -42t-45.5 -18q-28 0 -41 21l-291 467l-490 -467q-21 -21 -50 -21q-58 0 -46 60q4 20 21 37l508 483l-302 483q-10 15 -5 38q12 60 70 60q28 0 42 -21l291 -468l490 468q22 21 49 21q24 0 38.5 -18t9.5 -42q-4 -21 -25 -39l-505 -482l301 -481
q12 -19 7 -39z" />
    <glyph glyph-name="y" unicode="y" 
d="M1207 -263q-5 -24 -27 -42t-46 -18h-700q-23 0 -37 18t-9 42t27 42t45 18h640l101 474q-252 -254 -530 -254q-233 0 -364 173q-128 174 -78 407l111 521q5 24 26.5 42t45.5 18t38.5 -18t9.5 -42l-111 -521q-40 -189 66 -325q106 -135 297 -135q189 0 353 135
q165 136 205 325l111 521q5 24 26.5 42t45.5 18t38.5 -18t9.5 -42z" />
    <glyph glyph-name="z" unicode="z" horiz-adv-x="1075" 
d="M1066 77q-5 -24 -26.5 -42t-45.5 -18h-872q-58 0 -46 60q4 20 21 37l990 944h-743q-23 0 -37 18t-9 42t26.5 42t44.5 18h871q24 0 38.5 -18t9.5 -42q-4 -21 -31 -46l-981 -935h743q24 0 38 -18t9 -42z" />
    <glyph glyph-name="braceleft" unicode="{" horiz-adv-x="922" 
d="M791 -92q-5 -24 -26.5 -42t-45.5 -18h-273q-24 0 -38.5 18t-9.5 42l152 715h-213q-24 0 -38 18t-9 42t27 41.5t46 17.5h213l152 717q5 24 27 42t46 18h273q24 0 38 -18t9 -42t-27 -42t-46 -18h-213l-136 -640q-12 -59 -72 -59l-7 -34q60 0 47 -60l-136 -638h213
q24 0 38.5 -18t8.5 -42z" />
    <glyph glyph-name="bar" unicode="|" horiz-adv-x="375" 
d="M245 -92q-5 -24 -26.5 -42t-45.5 -18t-38.5 18t-9.5 42l330 1551q5 24 27 42t46 18t38 -18t9 -42z" />
    <glyph glyph-name="braceright" unicode="}" horiz-adv-x="922" 
d="M956 683q-5 -24 -27 -42t-46 -18h-213l-152 -715q-5 -24 -26.5 -42t-45.5 -18h-273q-24 0 -38.5 18t-9.5 42q6 24 27.5 42t45.5 18h213l136 638q13 60 73 60l7 34q-60 0 -48 59l136 640h-213q-24 0 -38 18t-9 42t27 42t46 18h273q24 0 38 -18t9 -42l-152 -717h213
q24 0 38 -17.5t9 -41.5z" />
    <glyph glyph-name="asciitilde" unicode="~" horiz-adv-x="1041" 
d="M1075 683q-8 -38 -126 -81q-107 -39 -155 -39q-49 0 -119 60q-71 60 -129 60q-55 0 -152 -45q-99 -44 -116 -44q-6 0 -5 10l17 79q7 36 126 80q106 39 155 39q50 0 119 -60q71 -59 129 -59q52 0 152 44q102 44 116 44q6 0 5 -10z" />
    <glyph glyph-name="nonbreakingspace" unicode="&#xa0;" horiz-adv-x="734" 
 />
    <glyph glyph-name="exclamdown" unicode="&#xa1;" horiz-adv-x="375" 
d="M503 1118q-5 -24 -27 -42t-46 -18t-38 18t-9 42t26.5 42t45.5 18t38.5 -18t9.5 -42zM245 -92q-5 -24 -26.5 -42t-45.5 -18t-38.5 18t-9.5 42l189 886q3 12 10 22.5t16.5 18.5t21.5 13t24 5q24 0 38.5 -18t9.5 -41z" />
    <glyph glyph-name="cent" unicode="&#xa2;" horiz-adv-x="1265" 
d="M1377 1051q-5 -24 -26.5 -41.5t-45.5 -17.5t-46 22q-9 10 -17.5 19.5t-17.5 19.5q-50 50 -155 79l-385 -902q26 -4 48 -6t40 -2q168 0 294 90q14 11 26.5 20.5t25.5 19.5q35 23 56 23q24 0 37 -18.5t8 -42.5q-9 -40 -101 -96q-197 -116 -371 -116q-47 0 -114 12l-84 -201
q-23 -48 -69 -48q-24 0 -38 18t-9 42q0 2 1.5 4.5t3.5 7.5l89 213q-143 74 -209 217q-65 144 -28 316q51 240 262 411q206 166 450 169l82 191q19 48 68 48q24 0 38.5 -18t9.5 -42q-9 -41 -37 -97l-22 -48t-24 -48q85 -26 164 -73q110 -68 96 -125zM951 1143
q-190 -16 -346 -147t-195 -313q-57 -268 169 -413z" />
    <glyph glyph-name="sterling" unicode="&#xa3;" horiz-adv-x="1169" 
d="M1074 77q-5 -24 -26.5 -42t-45.5 -18h-546q-24 0 -38 18t-9 42l136 640h-188q-24 0 -38 18t-9 42q3 12 10 22.5t17 18.5t22 13t24 5h188l96 453q3 12 10 22.5t16.5 18.5t21.5 13t24 5h376q24 0 37.5 -18t8.5 -41q-5 -24 -26.5 -42t-45.5 -18h-316l-83 -393h188
q24 0 37.5 -18t8.5 -41q-5 -24 -26.5 -42t-45.5 -18h-188l-123 -580h486q24 0 38 -18t9 -42z" />
    <glyph glyph-name="currency" unicode="&#xa4;" horiz-adv-x="1246" 
d="M1209 220q-14 -60 -72 -60q-25 0 -39 17l-130 164q-139 -85 -274 -85t-238 85l-198 -164q-22 -17 -47 -17q-60 0 -46 60q5 26 26 43l199 164q-60 123 -32 256q29 135 141 256l-130 164q-13 15 -8 42q13 60 72 60q26 0 40 -17l129 -164q139 85 274 85t238 -85l199 164
q20 17 46 17q59 0 46 -60q-4 -25 -26 -42l-198 -164q60 -121 31 -256q-29 -136 -140 -256l129 -164q13 -16 8 -43zM1092 683q27 126 -45 216q-70 91 -197 91t-236 -91q-109 -90 -136 -216t44 -218q72 -90 198 -90q125 0 235 90q110 92 137 218z" />
    <glyph glyph-name="yen" unicode="&#xa5;" horiz-adv-x="1172" 
d="M1446 1289q-4 -20 -24 -40l-632 -600h217q24 0 37.5 -18t8.5 -42t-26.5 -42t-45.5 -18h-207l-47 -222h207q24 0 38 -18t9 -42q-3 -12 -10 -22.5t-16.5 -18.5t-21.5 -13t-24 -5h-207l-24 -111q-5 -24 -26.5 -42t-45.5 -18q-23 0 -37.5 18t-9.5 42l24 111h-203
q-24 0 -38 18t-9 41q5 24 26.5 42t45.5 18h203l47 222h-203q-24 0 -38 18t-9 42t27 42t46 18h216l-380 602q-10 16 -6 38q14 59 71 59q29 0 41 -20l346 -555l584 555q23 20 50 20q24 0 37.5 -18t8.5 -41z" />
    <glyph glyph-name="brokenbar" unicode="&#xa6;" horiz-adv-x="375" 
d="M445 845q-5 -24 -27 -42t-46 -18t-38 18t-9 42l130 614q5 24 27 42t46 18t38 -18t9 -42zM245 -92q-5 -24 -26.5 -42t-45.5 -18t-38.5 18t-9.5 42l131 613q3 12 10 22.5t16.5 18.5t21.5 13t24 5q24 0 38.5 -18t9.5 -41z" />
    <glyph glyph-name="dieresis" unicode="&#xa8;" horiz-adv-x="683" 
d="M897 1527q-3 -12 -10 -22.5t-17 -18.5t-22 -13t-24 -5q-24 0 -38 18t-9 41q5 24 26.5 42t45.5 18t38.5 -18t9.5 -42zM590 1527q-3 -12 -10 -22.5t-17 -18.5t-22 -13t-24 -5q-24 0 -38 18t-9 41q5 24 26.5 42t45.5 18t38.5 -18t9.5 -42z" />
    <glyph glyph-name="copyright" unicode="&#xa9;" horiz-adv-x="1587" 
d="M1621 683q-58 -274 -296 -470q-236 -196 -510 -196q-275 0 -429 196t-96 470q59 273 296 469q238 196 512 196q273 0 427 -196t96 -469zM1502 683q48 223 -80 384q-128 162 -350 162q-226 0 -419 -162q-195 -161 -243 -384q-47 -225 79 -385q128 -161 351 -161
q222 0 418 161q196 160 244 385zM1181 473q-4 -20 -28 -45q-46 -46 -128 -75t-145 -29q-147 0 -231 106q-83 107 -52 253q31 145 159 252q128 106 276 106q63 0 133 -29q69 -29 96 -75q14 -24 9 -44q-13 -58 -72 -58q-16 0 -69 43q-56 44 -122 44q-98 0 -184 -71
q-85 -70 -106 -168q-21 -99 34 -169t154 -70q66 0 139 43q74 44 90 44q59 0 47 -58z" />
    <glyph glyph-name="guillemotleft" unicode="&#xab;" horiz-adv-x="1468" 
d="M1373 77q-12 -60 -72 -60q-16 0 -20 3l-439 354q-47 38 -41 63q4 25 68 63l589 353q4 4 18 4q63 0 50 -60q-6 -30 -50 -56l-521 -304l391 -304q35 -26 27 -56zM810 77q-12 -60 -72 -60q-15 0 -21 3l-438 354q-47 38 -41 63q4 25 68 63l588 353q5 4 18 4q64 0 51 -60
q-6 -30 -51 -56l-520 -304l390 -304q35 -26 28 -56z" />
    <glyph glyph-name="minus" unicode="&#xad;" horiz-adv-x="905" 
d="M939 683q-5 -24 -27 -42t-46 -18h-529q-24 0 -38 18t-9 42t27 41.5t46 17.5h529q24 0 38 -17.5t9 -41.5z" />
    <glyph glyph-name="registered" unicode="&#xae;" horiz-adv-x="1587" 
d="M1621 683q-58 -274 -296 -470q-236 -196 -510 -196q-275 0 -429 196t-96 470q59 273 296 469q238 196 512 196q273 0 427 -196t96 -469zM1502 683q48 223 -80 384q-128 162 -350 162q-226 0 -419 -162q-195 -161 -243 -384q-47 -225 79 -385q128 -161 351 -161
q222 0 418 161q196 160 244 385zM1175 341q-9 -46 -57 -46q-21 0 -31 12l-180 232h-179l-43 -198q-9 -46 -55 -46q-48 0 -39 46l156 731h319q109 0 170 -79q61 -77 38 -187q-38 -176 -242 -255l137 -176q11 -14 6 -34zM1180 806q15 71 -25 120q-41 50 -110 50h-225l-72 -341
h225q69 0 131 50q61 51 76 121z" />
    <glyph glyph-name="glyph188" unicode="&#xaf;" horiz-adv-x="905" 
d="M1272 1289q-5 -24 -26.5 -42t-45.5 -18h-939q-22 0 -36 18t-9 42q3 12 10 22.5t17 18.5t21.5 13t22.5 5h939q24 0 37.5 -18t8.5 -41z" />
    <glyph glyph-name="degree" unicode="&#xb0;" horiz-adv-x="563" 
d="M706 1195q-14 -63 -68 -109q-56 -45 -118 -45q-63 0 -99 45q-35 47 -22 109q14 64 68 108q55 45 119 45q63 0 98 -45q35 -46 22 -108zM655 1195q8 42 -15 72t-65 30q-21 0 -42 -8t-38 -22t-29 -32.5t-16 -39.5q-8 -43 14.5 -73t66.5 -30q21 0 41 8t37.5 22t29.5 33t16 40
z" />
    <glyph glyph-name="plusminus" unicode="&#xb1;" horiz-adv-x="905" 
d="M939 683q-5 -24 -27 -42t-46 -18h-205l-43 -205q-5 -24 -27 -42t-46 -18t-37.5 18t-8.5 42l43 205h-205q-24 0 -38 18t-9 42t27 41.5t46 17.5h205l43 205q5 24 26.5 42t45.5 18t38 -18t9 -42l-43 -205h205q24 0 38 -17.5t9 -41.5zM810 77q-5 -24 -26.5 -42t-45.5 -18
h-529q-24 0 -38.5 18t-9.5 42t27 42t46 18h529q24 0 38 -18t9 -42z" />
    <glyph glyph-name="acute" unicode="&#xb4;" horiz-adv-x="527" 
d="M789 1753q-4 -17 -15 -31l-202 -225q-26 -29 -57 -29q-58 0 -45 61q4 19 16 31l200 225q25 27 57 27q58 0 46 -59z" />
    <glyph glyph-name="paragraph" unicode="&#xb6;" horiz-adv-x="1411" 
d="M1574 1289q-5 -24 -26.5 -42t-45.5 -18h-188l-281 -1321q-5 -24 -26.5 -42t-45.5 -18t-38 18t-9 42l281 1321h-205l-281 -1321q-5 -24 -26.5 -42t-45.5 -18t-38.5 18t-9.5 42l116 544q-192 0 -301 129q-108 129 -67 320q39 184 197 315q160 132 345 132h649
q24 0 37.5 -18t8.5 -41zM731 572l139 657q-142 0 -263 -94q-122 -95 -150 -234q-30 -141 50 -236q82 -93 224 -93z" />
    <glyph glyph-name="periodcentered" unicode="&#xb7;" horiz-adv-x="375" 
d="M410 683q-5 -24 -27 -42t-46 -18t-38 18t-9 42t27 41.5t46 17.5t38 -17.5t9 -41.5z" />
    <glyph glyph-name="guillemotright" unicode="&#xbb;" horiz-adv-x="1468" 
d="M1450 437q-6 -26 -69 -63l-589 -354q-5 -3 -20 -3q-60 0 -48 60q7 31 52 56l520 304l-390 304q-35 26 -29 56q13 60 76 60q13 0 16 -4l439 -353q46 -38 42 -63zM887 437q-6 -26 -69 -63l-589 -354q-5 -3 -20 -3q-60 0 -48 60q8 31 51 56l521 304l-391 304q-34 25 -28 56
q13 60 76 60q13 0 16 -4l439 -353q46 -38 42 -63z" />
    <glyph glyph-name="questiondown" unicode="&#xbf;" horiz-adv-x="940" 
d="M1021 1118q-5 -24 -26.5 -42t-45.5 -18t-38 18t-9 42t26.5 42t45.5 18t38 -18t9 -42zM841 56q-1 -9 -14 -30q-54 -77 -158 -128q-103 -50 -194 -50q-148 0 -234 107q-83 106 -51 255t160 255q131 107 279 107q109 0 154 70q27 42 50 152q3 12 10 22.5t16.5 18.5t21.5 13
t24 5q24 0 38 -18t9 -41l-8 -35q-36 -171 -101 -235q-74 -72 -240 -72q-99 0 -186 -72q-86 -71 -107 -170q-21 -98 34 -171q59 -71 156 -71q79 0 141 37q27 16 87 72q43 39 68 39q24 0 37 -18t8 -42z" />
    <glyph glyph-name="Agrave" unicode="&#xc0;" horiz-adv-x="1140" 
d="M1156 77q-3 -12 -10 -23t-17 -19t-21 -13t-22 -5q-42 0 -50 38l-59 303h-628l-187 -303q-23 -38 -66 -38q-22 0 -36.5 18t-9.5 42q3 15 9 22l746 1201q30 48 69 48q38 0 47 -48l237 -1201q1 -7 -2 -22zM954 478l-127 652l-402 -652h529zM1046 1529q-13 -61 -71 -61
q-30 0 -45 29l-105 225q-6 13 -2 31q12 59 70 59q33 0 45 -27l107 -225q5 -15 1 -31z" />
    <glyph glyph-name="Aacute" unicode="&#xc1;" horiz-adv-x="1140" 
d="M1156 77q-3 -12 -10 -23t-17 -19t-21 -13t-22 -5q-42 0 -50 38l-59 303h-628l-187 -303q-23 -38 -66 -38q-22 0 -36.5 18t-9.5 42q3 15 9 22l746 1201q30 48 69 48q38 0 47 -48l237 -1201q1 -7 -2 -22zM954 478l-127 652l-402 -652h529zM1094 1753q-4 -17 -15 -31
l-202 -225q-26 -29 -57 -29q-58 0 -45 61q4 19 16 31l200 225q25 27 57 27q58 0 46 -59z" />
    <glyph glyph-name="Acircumflex" unicode="&#xc2;" horiz-adv-x="1140" 
d="M1156 77q-3 -12 -10 -23t-17 -19t-21 -13t-22 -5q-42 0 -50 38l-59 303h-628l-187 -303q-23 -38 -66 -38q-22 0 -36.5 18t-9.5 42q3 15 9 22l746 1201q30 48 69 48q38 0 47 -48l237 -1201q1 -7 -2 -22zM954 478l-127 652l-402 -652h529zM1164 1545q-12 -60 -71 -60
q-30 0 -49 39l-93 189l-173 -189q-35 -39 -64 -39q-60 0 -48 60q5 17 8 20l237 258q51 54 75 54t51 -54l129 -258q2 -6 -2 -20z" />
    <glyph glyph-name="Atilde" unicode="&#xc3;" horiz-adv-x="1140" 
d="M1156 77q-3 -12 -10 -23t-17 -19t-21 -13t-22 -5q-42 0 -50 38l-59 303h-628l-187 -303q-23 -38 -66 -38q-22 0 -36.5 18t-9.5 42q3 15 9 22l746 1201q30 48 69 48q38 0 47 -48l237 -1201q1 -7 -2 -22zM954 478l-127 652l-402 -652h529zM1214 1587q-6 -32 -93 -75
q-86 -44 -119 -44q-35 0 -83 59q-48 60 -97 60q-43 0 -119 -45q-77 -44 -86 -44q-4 0 -2 6l1 6l3 6l15 71q7 31 93 75q85 45 121 45q35 0 82 -60q46 -60 97 -60q43 0 119 44q75 45 87 45z" />
    <glyph glyph-name="Adieresis" unicode="&#xc4;" horiz-adv-x="1140" 
d="M1156 77q-3 -12 -10 -23t-17 -19t-21 -13t-22 -5q-42 0 -50 38l-59 303h-628l-187 -303q-23 -38 -66 -38q-22 0 -36.5 18t-9.5 42q3 15 9 22l746 1201q30 48 69 48q38 0 47 -48l237 -1201q1 -7 -2 -22zM954 478l-127 652l-402 -652h529zM1126 1527q-3 -12 -10 -22.5
t-17 -18.5t-22 -13t-24 -5q-24 0 -38 18t-9 41q5 24 26.5 42t45.5 18t38.5 -18t9.5 -42zM819 1527q-3 -12 -10 -22.5t-17 -18.5t-22 -13t-24 -5q-24 0 -38 18t-9 41q5 24 26.5 42t45.5 18t38.5 -18t9.5 -42z" />
    <glyph glyph-name="Aring" unicode="&#xc5;" horiz-adv-x="1140" 
d="M1156 77q-3 -12 -10 -23t-17 -19t-21 -13t-22 -5q-42 0 -50 38l-59 303h-628l-187 -303q-23 -38 -66 -38q-22 0 -36.5 18t-9.5 42q3 15 9 22l746 1201q30 48 69 48q38 0 47 -48l237 -1201q1 -7 -2 -22zM954 478l-127 652l-402 -652h529zM1085 1621q-14 -63 -69 -108
q-54 -45 -117 -45t-99 45t-22 108q14 64 68 108q55 46 118 46t99 -46q35 -46 22 -108zM1034 1621q8 43 -15 73t-66 30q-21 0 -41.5 -8t-37.5 -22t-29 -33t-16 -40q-5 -21 -1 -39.5t15 -32.5t28.5 -22t38.5 -8t41 8t37 22t29 32.5t17 39.5z" />
    <glyph glyph-name="AE" unicode="&#xc6;" horiz-adv-x="1824" 
d="M1772 77q-5 -24 -26.5 -42t-45.5 -18h-614q-42 0 -50 38l-59 303h-628l-187 -303q-23 -38 -66 -38q-22 0 -36.5 18t-9.5 42q3 15 9 22l746 1201q30 48 69 48q38 0 47 -48l181 -923l194 912q3 12 10 22.5t17 18.5t22 13t24 5h614q24 0 38 -18t9 -41q-5 -24 -27 -42
t-46 -18h-554l-103 -487h384q24 0 37.5 -17.5t8.5 -41.5t-26.5 -42t-45.5 -18h-384l-103 -486h554q24 0 38 -18t9 -42zM954 478l-127 652l-402 -652h529z" />
    <glyph glyph-name="Egrave" unicode="&#xc8;" horiz-adv-x="1075" 
d="M1023 77q-5 -24 -26.5 -42t-45.5 -18h-785q-24 0 -38.5 18t-9.5 42l258 1212q3 12 10 22.5t17 18.5t22 13t24 5h785q24 0 38 -18t9 -41q-5 -24 -27 -42t-46 -18h-725l-103 -487h555q23 0 37 -17.5t9 -41.5t-27 -42t-45 -18h-555l-103 -486h725q24 0 38 -18t9 -42z
M1014 1529q-13 -61 -71 -61q-30 0 -45 29l-105 225q-6 13 -2 31q12 59 70 59q33 0 45 -27l107 -225q5 -15 1 -31z" />
    <glyph glyph-name="Eacute" unicode="&#xc9;" horiz-adv-x="1075" 
d="M1023 77q-5 -24 -26.5 -42t-45.5 -18h-785q-24 0 -38.5 18t-9.5 42l258 1212q3 12 10 22.5t17 18.5t22 13t24 5h785q24 0 38 -18t9 -41q-5 -24 -27 -42t-46 -18h-725l-103 -487h555q23 0 37 -17.5t9 -41.5t-27 -42t-45 -18h-555l-103 -486h725q24 0 38 -18t9 -42z
M1062 1753q-4 -17 -15 -31l-202 -225q-26 -29 -57 -29q-58 0 -45 61q4 19 16 31l200 225q25 27 57 27q58 0 46 -59z" />
    <glyph glyph-name="Ecircumflex" unicode="&#xca;" horiz-adv-x="1075" 
d="M1023 77q-5 -24 -26.5 -42t-45.5 -18h-785q-24 0 -38.5 18t-9.5 42l258 1212q3 12 10 22.5t17 18.5t22 13t24 5h785q24 0 38 -18t9 -41q-5 -24 -27 -42t-46 -18h-725l-103 -487h555q23 0 37 -17.5t9 -41.5t-27 -42t-45 -18h-555l-103 -486h725q24 0 38 -18t9 -42z
M1131 1545q-12 -60 -71 -60q-30 0 -49 39l-93 189l-173 -189q-35 -39 -64 -39q-60 0 -48 60q5 17 8 20l237 258q51 54 75 54t51 -54l129 -258q2 -6 -2 -20z" />
    <glyph glyph-name="Edieresis" unicode="&#xcb;" horiz-adv-x="1075" 
d="M1023 77q-5 -24 -26.5 -42t-45.5 -18h-785q-24 0 -38.5 18t-9.5 42l258 1212q3 12 10 22.5t17 18.5t22 13t24 5h785q24 0 38 -18t9 -41q-5 -24 -27 -42t-46 -18h-725l-103 -487h555q23 0 37 -17.5t9 -41.5t-27 -42t-45 -18h-555l-103 -486h725q24 0 38 -18t9 -42z
M1093 1527q-3 -12 -10 -22.5t-17 -18.5t-22 -13t-24 -5q-24 0 -38 18t-9 41q5 24 26.5 42t45.5 18t38.5 -18t9.5 -42zM786 1527q-3 -12 -10 -22.5t-17 -18.5t-22 -13t-24 -5q-24 0 -38 18t-9 41q5 24 26.5 42t45.5 18t38.5 -18t9.5 -42z" />
    <glyph glyph-name="Igrave" unicode="&#xcc;" horiz-adv-x="290" 
d="M238 77q-5 -24 -26.5 -42t-45.5 -18t-38.5 18t-9.5 42l258 1212q3 12 10 22.5t17 18.5t22 13t24 5q24 0 38 -18t9 -41zM623 1529q-13 -61 -71 -61q-30 0 -45 29l-105 225q-6 13 -2 31q12 59 70 59q33 0 45 -27l107 -225q5 -15 1 -31z" />
    <glyph glyph-name="Iacute" unicode="&#xcd;" horiz-adv-x="290" 
d="M238 77q-5 -24 -26.5 -42t-45.5 -18t-38.5 18t-9.5 42l258 1212q3 12 10 22.5t17 18.5t22 13t24 5q24 0 38 -18t9 -41zM671 1753q-4 -17 -15 -31l-202 -225q-26 -29 -57 -29q-58 0 -45 61q4 19 16 31l200 225q25 27 57 27q58 0 46 -59z" />
    <glyph glyph-name="Icircumflex" unicode="&#xce;" horiz-adv-x="290" 
d="M238 77q-5 -24 -26.5 -42t-45.5 -18t-38.5 18t-9.5 42l258 1212q3 12 10 22.5t17 18.5t22 13t24 5q24 0 38 -18t9 -41zM740 1545q-12 -60 -71 -60q-30 0 -49 39l-93 189l-173 -189q-35 -39 -64 -39q-60 0 -48 60q5 17 8 20l237 258q51 54 75 54t51 -54l129 -258
q2 -6 -2 -20z" />
    <glyph glyph-name="Idieresis" unicode="&#xcf;" horiz-adv-x="290" 
d="M238 77q-5 -24 -26.5 -42t-45.5 -18t-38.5 18t-9.5 42l258 1212q3 12 10 22.5t17 18.5t22 13t24 5q24 0 38 -18t9 -41zM702 1527q-3 -12 -10 -22.5t-17 -18.5t-22 -13t-24 -5q-24 0 -38 18t-9 41q5 24 26.5 42t45.5 18t38.5 -18t9.5 -42zM395 1527q-3 -12 -10 -22.5
t-17 -18.5t-22 -13t-24 -5q-24 0 -38 18t-9 41q5 24 26.5 42t45.5 18t38.5 -18t9.5 -42z" />
    <glyph glyph-name="Ntilde" unicode="&#xd1;" 
d="M1279 77q-5 -24 -26.5 -42t-45.5 -18t-45 31l-702 1073l-222 -1044q-5 -24 -26.5 -42t-45.5 -18t-38.5 18t-9.5 42l258 1212q3 12 10 22.5t17 18.5t22 13t24 5q26 0 37 -17l709 -1087l222 1045q3 12 10 22.5t17 18.5t22 13t24 5q24 0 38 -18t9 -41zM1309 1587
q-6 -32 -93 -75q-86 -44 -119 -44q-35 0 -83 59q-48 60 -97 60q-43 0 -119 -45q-77 -44 -86 -44q-4 0 -2 6l1 6l3 6l15 71q7 31 93 75q85 45 121 45q35 0 82 -60q46 -60 97 -60q43 0 119 44q75 45 87 45z" />
    <glyph glyph-name="Ograve" unicode="&#xd2;" horiz-adv-x="1417" 
d="M1536 683q-59 -274 -297 -470q-236 -196 -510 -196t-428 196t-96 470q59 273 296 469q238 196 511 196t427 -196q155 -198 97 -469zM1416 683q48 225 -78 385q-128 161 -352 161t-420 -161q-194 -161 -242 -385q-48 -226 78 -386t352 -160q227 0 420 160q194 161 242 386
zM1185 1529q-13 -61 -71 -61q-30 0 -45 29l-105 225q-6 13 -2 31q12 59 70 59q33 0 45 -27l107 -225q5 -15 1 -31z" />
    <glyph glyph-name="Oacute" unicode="&#xd3;" horiz-adv-x="1417" 
d="M1536 683q-59 -274 -297 -470q-236 -196 -510 -196t-428 196t-96 470q59 273 296 469q238 196 511 196t427 -196q155 -198 97 -469zM1416 683q48 225 -78 385q-128 161 -352 161t-420 -161q-194 -161 -242 -385q-48 -226 78 -386t352 -160q227 0 420 160q194 161 242 386
zM1233 1753q-4 -17 -15 -31l-202 -225q-26 -29 -57 -29q-58 0 -45 61q4 19 16 31l200 225q25 27 57 27q58 0 46 -59z" />
    <glyph glyph-name="Ocircumflex" unicode="&#xd4;" horiz-adv-x="1417" 
d="M1536 683q-59 -274 -297 -470q-236 -196 -510 -196t-428 196t-96 470q59 273 296 469q238 196 511 196t427 -196q155 -198 97 -469zM1416 683q48 225 -78 385q-128 161 -352 161t-420 -161q-194 -161 -242 -385q-48 -226 78 -386t352 -160q227 0 420 160q194 161 242 386
zM1302 1545q-12 -60 -71 -60q-30 0 -49 39l-93 189l-173 -189q-35 -39 -64 -39q-60 0 -48 60q5 17 8 20l237 258q51 54 75 54t51 -54l129 -258q2 -6 -2 -20z" />
    <glyph glyph-name="Otilde" unicode="&#xd5;" horiz-adv-x="1417" 
d="M1536 683q-59 -274 -297 -470q-236 -196 -510 -196t-428 196t-96 470q59 273 296 469q238 196 511 196t427 -196q155 -198 97 -469zM1416 683q48 225 -78 385q-128 161 -352 161t-420 -161q-194 -161 -242 -385q-48 -226 78 -386t352 -160q227 0 420 160q194 161 242 386
zM1352 1587q-6 -32 -93 -75q-86 -44 -119 -44q-35 0 -83 59q-48 60 -97 60q-43 0 -119 -45q-77 -44 -86 -44q-4 0 -2 6l1 6l3 6l15 71q7 31 93 75q85 45 121 45q35 0 82 -60q46 -60 97 -60q43 0 119 44q75 45 87 45z" />
    <glyph glyph-name="Odieresis" unicode="&#xd6;" horiz-adv-x="1417" 
d="M1536 683q-59 -274 -297 -470q-236 -196 -510 -196t-428 196t-96 470q59 273 296 469q238 196 511 196t427 -196q155 -198 97 -469zM1416 683q48 225 -78 385q-128 161 -352 161t-420 -161q-194 -161 -242 -385q-48 -226 78 -386t352 -160q227 0 420 160q194 161 242 386
zM1264 1527q-3 -12 -10 -22.5t-17 -18.5t-22 -13t-24 -5q-24 0 -38 18t-9 41q5 24 26.5 42t45.5 18t38.5 -18t9.5 -42zM957 1527q-3 -12 -10 -22.5t-17 -18.5t-22 -13t-24 -5q-24 0 -38 18t-9 41q5 24 26.5 42t45.5 18t38.5 -18t9.5 -42z" />
    <glyph glyph-name="multiply" unicode="&#xd7;" horiz-adv-x="799" 
d="M878 893q-5 -24 -26 -41l-205 -169l133 -169q12 -16 7 -41q-14 -62 -74 -62q-23 0 -37 17l-133 169l-205 -169q-22 -17 -44 -17q-60 0 -46 62q5 24 23 41l205 169l-133 169q-13 16 -8 41q12 59 74 59q25 0 37 -15l133 -169l205 169q19 15 44 15q62 0 50 -59z" />
    <glyph glyph-name="Oslash" unicode="&#xd8;" horiz-adv-x="1417" 
d="M1708 1289q-6 -27 -26 -43l-199 -155q100 -186 53 -408q-59 -274 -297 -470q-236 -196 -510 -196q-246 0 -406 169l-197 -152q-23 -17 -45 -17q-60 0 -48 60q6 27 26 42l199 156q-100 186 -53 408q59 273 296 469q238 196 511 196q246 0 406 -169l196 152q25 17 47 17
q61 0 47 -59zM1313 1097q-137 132 -327 132q-223 0 -419 -162q-195 -161 -243 -384q-38 -173 39 -326zM1416 683q37 171 -38 326l-951 -741q137 -131 327 -131q223 0 419 161q196 160 243 385z" />
    <glyph glyph-name="Ugrave" unicode="&#xd9;" 
d="M1390 597q-51 -239 -258 -410q-206 -170 -445 -170q-237 0 -374 170q-135 171 -84 410l147 692q3 12 10 22.5t17 18.5t22 13t24 5q24 0 38 -18t9 -41l-147 -692q-40 -189 66 -325q106 -135 297 -135q189 0 353 135q165 136 205 325l147 692q3 12 10 22.5t17 18.5t22 13
t24 5q24 0 38 -18t9 -41zM1142 1529q-13 -61 -71 -61q-30 0 -45 29l-105 225q-6 13 -2 31q12 59 70 59q33 0 45 -27l107 -225q5 -15 1 -31z" />
    <glyph glyph-name="Uacute" unicode="&#xda;" 
d="M1390 597q-51 -239 -258 -410q-206 -170 -445 -170q-237 0 -374 170q-135 171 -84 410l147 692q3 12 10 22.5t17 18.5t22 13t24 5q24 0 38 -18t9 -41l-147 -692q-40 -189 66 -325q106 -135 297 -135q189 0 353 135q165 136 205 325l147 692q3 12 10 22.5t17 18.5t22 13
t24 5q24 0 38 -18t9 -41zM1190 1753q-4 -17 -15 -31l-202 -225q-26 -29 -57 -29q-58 0 -45 61q4 19 16 31l200 225q25 27 57 27q58 0 46 -59z" />
    <glyph glyph-name="Ucircumflex" unicode="&#xdb;" 
d="M1390 597q-51 -239 -258 -410q-206 -170 -445 -170q-237 0 -374 170q-135 171 -84 410l147 692q3 12 10 22.5t17 18.5t22 13t24 5q24 0 38 -18t9 -41l-147 -692q-40 -189 66 -325q106 -135 297 -135q189 0 353 135q165 136 205 325l147 692q3 12 10 22.5t17 18.5t22 13
t24 5q24 0 38 -18t9 -41zM1259 1545q-12 -60 -71 -60q-30 0 -49 39l-93 189l-173 -189q-35 -39 -64 -39q-60 0 -48 60q5 17 8 20l237 258q51 54 75 54t51 -54l129 -258q2 -6 -2 -20z" />
    <glyph glyph-name="Udieresis" unicode="&#xdc;" 
d="M1390 597q-51 -239 -258 -410q-206 -170 -445 -170q-237 0 -374 170q-135 171 -84 410l147 692q3 12 10 22.5t17 18.5t22 13t24 5q24 0 38 -18t9 -41l-147 -692q-40 -189 66 -325q106 -135 297 -135q189 0 353 135q165 136 205 325l147 692q3 12 10 22.5t17 18.5t22 13
t24 5q24 0 38 -18t9 -41zM1221 1527q-3 -12 -10 -22.5t-17 -18.5t-22 -13t-24 -5q-24 0 -38 18t-9 41q5 24 26.5 42t45.5 18t38.5 -18t9.5 -42zM914 1527q-3 -12 -10 -22.5t-17 -18.5t-22 -13t-24 -5q-24 0 -38 18t-9 41q5 24 26.5 42t45.5 18t38.5 -18t9.5 -42z" />
    <glyph glyph-name="Yacute" unicode="&#xdd;" horiz-adv-x="1172" 
d="M1446 1289q-4 -20 -24 -40l-619 -587l-125 -585q-5 -24 -26.5 -42t-45.5 -18q-23 0 -37.5 18t-9.5 42l125 587l-370 587q-10 16 -6 38q14 59 71 59q29 0 41 -20l346 -555l584 555q23 20 50 20q24 0 37.5 -18t8.5 -41zM1110 1753q-4 -17 -15 -31l-202 -225
q-26 -29 -57 -29q-58 0 -45 61q4 19 16 31l200 225q25 27 57 27q58 0 46 -59z" />
    <glyph glyph-name="Thorn" unicode="&#xde;" horiz-adv-x="1118" 
d="M1237 683q-39 -186 -199 -317q-159 -132 -343 -132h-423l-34 -157q-5 -24 -26.5 -42t-45.5 -18t-38.5 18t-9.5 42l258 1212q3 12 10 22.5t17 18.5t22 13t24 5q24 0 38 -18t9 -41l-34 -159h423q183 0 287 -132q104 -131 65 -315zM1118 683q29 134 -48 230q-75 97 -210 97
h-423l-140 -657h423q136 0 252 97q118 98 146 233z" />
    <glyph glyph-name="germandbls" unicode="&#xdf;" horiz-adv-x="853" 
d="M909 381q-31 -150 -160 -258q-127 -106 -279 -106q-24 0 -38.5 18t-9.5 42q13 60 90 60v1q94 7 175 78q82 70 102 165q21 99 -36 170q-56 72 -155 72q-24 0 -38 18t-9 42t27 41.5t46 17.5q99 0 185 72q87 72 108 171q21 96 -35 170t-153 74q-101 0 -189 -72
q-87 -72 -109 -172l-265 -1248q-5 -24 -27 -42t-46 -18t-38 18t-9 42l265 1248q33 152 161 257q128 106 281 106q152 0 234 -106q83 -106 50 -257q-37 -178 -226 -302q136 -122 98 -302z" />
    <glyph glyph-name="agrave" unicode="&#xe0;" horiz-adv-x="1289" 
d="M1236 77q-5 -24 -26.5 -42t-44.5 -18q-24 0 -38.5 18t-9.5 42l42 196q-244 -256 -515 -256q-237 0 -374 170q-134 173 -83 410q49 237 257 410q207 171 446 171q271 0 407 -256l42 196q5 24 26.5 42t45.5 18q23 0 37.5 -18t9.5 -42zM1228 597q40 189 -67 325
q-106 136 -296 136t-354 -136q-165 -135 -205 -325q-40 -188 67 -325q106 -135 296 -135q187 0 354 135q165 136 205 325zM1084 1359q-13 -61 -71 -61q-30 0 -45 29l-105 225q-6 13 -2 31q12 59 70 59q33 0 45 -27l107 -225q5 -15 1 -31z" />
    <glyph glyph-name="aacute" unicode="&#xe1;" horiz-adv-x="1289" 
d="M1236 77q-5 -24 -26.5 -42t-44.5 -18q-24 0 -38.5 18t-9.5 42l42 196q-244 -256 -515 -256q-237 0 -374 170q-134 173 -83 410q49 237 257 410q207 171 446 171q271 0 407 -256l42 196q5 24 26.5 42t45.5 18q23 0 37.5 -18t9.5 -42zM1228 597q40 189 -67 325
q-106 136 -296 136t-354 -136q-165 -135 -205 -325q-40 -188 67 -325q106 -135 296 -135q187 0 354 135q165 136 205 325zM1132 1583q-4 -17 -15 -31l-202 -225q-26 -29 -57 -29q-58 0 -45 61q4 19 16 31l200 225q25 27 57 27q58 0 46 -59z" />
    <glyph glyph-name="acircumflex" unicode="&#xe2;" horiz-adv-x="1289" 
d="M1236 77q-5 -24 -26.5 -42t-44.5 -18q-24 0 -38.5 18t-9.5 42l42 196q-244 -256 -515 -256q-237 0 -374 170q-134 173 -83 410q49 237 257 410q207 171 446 171q271 0 407 -256l42 196q5 24 26.5 42t45.5 18q23 0 37.5 -18t9.5 -42zM1228 597q40 189 -67 325
q-106 136 -296 136t-354 -136q-165 -135 -205 -325q-40 -188 67 -325q106 -135 296 -135q187 0 354 135q165 136 205 325zM1201 1375q-12 -60 -71 -60q-30 0 -49 39l-93 189l-173 -189q-35 -39 -64 -39q-60 0 -48 60q5 17 8 20l237 258q51 54 75 54t51 -54l129 -258
q2 -6 -2 -20z" />
    <glyph glyph-name="atilde" unicode="&#xe3;" horiz-adv-x="1289" 
d="M1236 77q-5 -24 -26.5 -42t-44.5 -18q-24 0 -38.5 18t-9.5 42l42 196q-244 -256 -515 -256q-237 0 -374 170q-134 173 -83 410q49 237 257 410q207 171 446 171q271 0 407 -256l42 196q5 24 26.5 42t45.5 18q23 0 37.5 -18t9.5 -42zM1228 597q40 189 -67 325
q-106 136 -296 136t-354 -136q-165 -135 -205 -325q-40 -188 67 -325q106 -135 296 -135q187 0 354 135q165 136 205 325zM1251 1417q-6 -32 -93 -75q-86 -44 -119 -44q-35 0 -83 59q-48 60 -97 60q-43 0 -119 -45q-77 -44 -86 -44q-4 0 -2 6l1 6l3 6l15 71q7 31 93 75
q85 45 121 45q35 0 82 -60q46 -60 97 -60q43 0 119 44q75 45 87 45z" />
    <glyph glyph-name="adieresis" unicode="&#xe4;" horiz-adv-x="1289" 
d="M1236 77q-5 -24 -26.5 -42t-44.5 -18q-24 0 -38.5 18t-9.5 42l42 196q-244 -256 -515 -256q-237 0 -374 170q-134 173 -83 410q49 237 257 410q207 171 446 171q271 0 407 -256l42 196q5 24 26.5 42t45.5 18q23 0 37.5 -18t9.5 -42zM1228 597q40 189 -67 325
q-106 136 -296 136t-354 -136q-165 -135 -205 -325q-40 -188 67 -325q106 -135 296 -135q187 0 354 135q165 136 205 325zM1163 1357q-3 -12 -10 -22.5t-17 -18.5t-22 -13t-24 -5q-24 0 -38 18t-9 41q5 24 26.5 42t45.5 18t38.5 -18t9.5 -42zM856 1357q-3 -12 -10 -22.5
t-17 -18.5t-22 -13t-24 -5q-24 0 -38 18t-9 41q5 24 26.5 42t45.5 18t38.5 -18t9.5 -42z" />
    <glyph glyph-name="aring" unicode="&#xe5;" horiz-adv-x="1289" 
d="M1236 77q-5 -24 -26.5 -42t-44.5 -18q-24 0 -38.5 18t-9.5 42l42 196q-244 -256 -515 -256q-237 0 -374 170q-134 173 -83 410q49 237 257 410q207 171 446 171q271 0 407 -256l42 196q5 24 26.5 42t45.5 18q23 0 37.5 -18t9.5 -42zM1228 597q40 189 -67 325
q-106 136 -296 136t-354 -136q-165 -135 -205 -325q-40 -188 67 -325q106 -135 296 -135q187 0 354 135q165 136 205 325zM1123 1451q-14 -63 -69 -108q-54 -45 -117 -45t-99 45t-22 108q14 64 68 108q55 46 118 46t99 -46q35 -46 22 -108zM1072 1451q8 43 -15 73t-66 30
q-21 0 -41.5 -8t-37.5 -22t-29 -33t-16 -40q-5 -21 -1 -39.5t15 -32.5t28.5 -22t38.5 -8t41 8t37 22t29 32.5t17 39.5z" />
    <glyph glyph-name="ae" unicode="&#xe6;" horiz-adv-x="2178" 
d="M2314 966q-5 -26 -26 -43l-838 -691q118 -95 260 -95q166 0 294 90q13 10 25.5 19.5t26.5 19.5q33 24 56 24q24 0 37 -18.5t8 -42.5q-9 -43 -101 -96q-200 -116 -371 -116q-255 0 -413 227l-36 -167q-5 -24 -26.5 -42t-44.5 -18q-24 0 -38.5 18t-9.5 42l42 196
q-244 -256 -515 -256q-237 0 -374 170q-134 173 -83 410q49 237 257 410q207 171 446 171q271 0 407 -256l42 196q5 24 26.5 42t45.5 18q23 0 37.5 -18t9.5 -42l-36 -167q254 227 509 227q168 0 323 -116q69 -53 60 -96zM2174 954q-115 104 -265 104q-192 0 -355 -135
q-163 -136 -203 -326q-34 -160 41 -288zM1228 597q40 189 -67 325q-106 136 -296 136t-354 -136q-165 -135 -205 -325q-40 -188 67 -325q106 -135 296 -135q187 0 354 135q165 136 205 325z" />
    <glyph glyph-name="egrave" unicode="&#xe8;" horiz-adv-x="1137" 
d="M1273 966q-5 -26 -26 -43l-838 -691q118 -95 260 -95q166 0 294 90l51 39q33 24 57 24t37 -18.5t8 -42.5q-9 -41 -102 -96q-197 -116 -370 -116q-237 0 -373 171q-133 172 -84 409q49 238 258 409q208 172 445 172q167 0 322 -116q70 -55 61 -96zM1133 954
q-116 104 -268 104q-192 0 -355 -135t-204 -326q-33 -155 45 -288zM1009 1359q-13 -61 -71 -61q-30 0 -45 29l-105 225q-6 13 -2 31q12 59 70 59q33 0 45 -27l107 -225q5 -15 1 -31z" />
    <glyph glyph-name="eacute" unicode="&#xe9;" horiz-adv-x="1137" 
d="M1273 966q-5 -26 -26 -43l-838 -691q118 -95 260 -95q166 0 294 90l51 39q33 24 57 24t37 -18.5t8 -42.5q-9 -41 -102 -96q-197 -116 -370 -116q-237 0 -373 171q-133 172 -84 409q49 238 258 409q208 172 445 172q167 0 322 -116q70 -55 61 -96zM1133 954
q-116 104 -268 104q-192 0 -355 -135t-204 -326q-33 -155 45 -288zM1057 1583q-4 -17 -15 -31l-202 -225q-26 -29 -57 -29q-58 0 -45 61q4 19 16 31l200 225q25 27 57 27q58 0 46 -59z" />
    <glyph glyph-name="ecircumflex" unicode="&#xea;" horiz-adv-x="1137" 
d="M1273 966q-5 -26 -26 -43l-838 -691q118 -95 260 -95q166 0 294 90l51 39q33 24 57 24t37 -18.5t8 -42.5q-9 -41 -102 -96q-197 -116 -370 -116q-237 0 -373 171q-133 172 -84 409q49 238 258 409q208 172 445 172q167 0 322 -116q70 -55 61 -96zM1133 954
q-116 104 -268 104q-192 0 -355 -135t-204 -326q-33 -155 45 -288zM1126 1375q-12 -60 -71 -60q-30 0 -49 39l-93 189l-173 -189q-35 -39 -64 -39q-60 0 -48 60q5 17 8 20l237 258q51 54 75 54t51 -54l129 -258q2 -6 -2 -20z" />
    <glyph glyph-name="edieresis" unicode="&#xeb;" horiz-adv-x="1137" 
d="M1273 966q-5 -26 -26 -43l-838 -691q118 -95 260 -95q166 0 294 90l51 39q33 24 57 24t37 -18.5t8 -42.5q-9 -41 -102 -96q-197 -116 -370 -116q-237 0 -373 171q-133 172 -84 409q49 238 258 409q208 172 445 172q167 0 322 -116q70 -55 61 -96zM1133 954
q-116 104 -268 104q-192 0 -355 -135t-204 -326q-33 -155 45 -288zM1088 1357q-3 -12 -10 -22.5t-17 -18.5t-22 -13t-24 -5q-24 0 -38 18t-9 41q5 24 26.5 42t45.5 18t38.5 -18t9.5 -42zM781 1357q-3 -12 -10 -22.5t-17 -18.5t-22 -13t-24 -5q-24 0 -38 18t-9 41
q5 24 26.5 42t45.5 18t38.5 -18t9.5 -42z" />
    <glyph glyph-name="igrave" unicode="&#xec;" horiz-adv-x="290" 
d="M238 77q-5 -24 -26.5 -42t-45.5 -18t-38.5 18t-9.5 42l222 1041q5 24 26.5 42t45.5 18t38.5 -18t9.5 -42zM587 1359q-13 -61 -71 -61q-30 0 -45 29l-105 225q-6 13 -2 31q12 59 70 59q33 0 45 -27l107 -225q5 -15 1 -31z" />
    <glyph glyph-name="iacute" unicode="&#xed;" horiz-adv-x="290" 
d="M238 77q-5 -24 -26.5 -42t-45.5 -18t-38.5 18t-9.5 42l222 1041q5 24 26.5 42t45.5 18t38.5 -18t9.5 -42zM635 1583q-4 -17 -15 -31l-202 -225q-26 -29 -57 -29q-58 0 -45 61q4 19 16 31l200 225q25 27 57 27q58 0 46 -59z" />
    <glyph glyph-name="icircumflex" unicode="&#xee;" horiz-adv-x="290" 
d="M238 77q-5 -24 -26.5 -42t-45.5 -18t-38.5 18t-9.5 42l222 1041q5 24 26.5 42t45.5 18t38.5 -18t9.5 -42zM704 1375q-12 -60 -71 -60q-30 0 -49 39l-93 189l-173 -189q-35 -39 -64 -39q-60 0 -48 60q5 17 8 20l237 258q51 54 75 54t51 -54l129 -258q2 -6 -2 -20z" />
    <glyph glyph-name="idieresis" unicode="&#xef;" horiz-adv-x="290" 
d="M238 77q-5 -24 -26.5 -42t-45.5 -18t-38.5 18t-9.5 42l222 1041q5 24 26.5 42t45.5 18t38.5 -18t9.5 -42zM666 1357q-3 -12 -10 -22.5t-17 -18.5t-22 -13t-24 -5q-24 0 -38 18t-9 41q5 24 26.5 42t45.5 18t38.5 -18t9.5 -42zM359 1357q-3 -12 -10 -22.5t-17 -18.5
t-22 -13t-24 -5q-24 0 -38 18t-9 41q5 24 26.5 42t45.5 18t38.5 -18t9.5 -42z" />
    <glyph glyph-name="ntilde" unicode="&#xf1;" 
d="M1279 77q-5 -24 -26.5 -42t-45.5 -18t-38.5 18t-9.5 42l111 520q40 189 -67 325q-106 136 -295 136q-191 0 -355 -136q-164 -135 -204 -325l-111 -520q-5 -24 -26.5 -42t-45.5 -18t-38.5 18t-9.5 42l222 1041q5 24 26.5 42t45.5 18t38.5 -18t9.5 -42l-42 -195
q252 255 530 255q234 0 362 -174q130 -171 80 -407zM1273 1417q-6 -32 -93 -75q-86 -44 -119 -44q-35 0 -83 59q-48 60 -97 60q-43 0 -119 -45q-77 -44 -86 -44q-4 0 -2 6l1 6l3 6l15 71q7 31 93 75q85 45 121 45q35 0 82 -60q46 -60 97 -60q43 0 119 44q75 45 87 45z" />
    <glyph glyph-name="ograve" unicode="&#xf2;" horiz-adv-x="1246" 
d="M1347 597q-51 -239 -258 -410q-206 -170 -445 -170q-237 0 -374 170q-134 173 -83 410q49 237 257 410q207 171 446 171t373 -171q135 -171 84 -410zM1228 597q40 189 -67 325q-106 136 -296 136t-354 -136q-165 -135 -205 -325q-40 -188 67 -325q106 -135 296 -135
q187 0 354 135q165 136 205 325zM1063 1359q-13 -61 -71 -61q-30 0 -45 29l-105 225q-6 13 -2 31q12 59 70 59q33 0 45 -27l107 -225q5 -15 1 -31z" />
    <glyph glyph-name="oacute" unicode="&#xf3;" horiz-adv-x="1246" 
d="M1347 597q-51 -239 -258 -410q-206 -170 -445 -170q-237 0 -374 170q-134 173 -83 410q49 237 257 410q207 171 446 171t373 -171q135 -171 84 -410zM1228 597q40 189 -67 325q-106 136 -296 136t-354 -136q-165 -135 -205 -325q-40 -188 67 -325q106 -135 296 -135
q187 0 354 135q165 136 205 325zM1111 1583q-4 -17 -15 -31l-202 -225q-26 -29 -57 -29q-58 0 -45 61q4 19 16 31l200 225q25 27 57 27q58 0 46 -59z" />
    <glyph glyph-name="ocircumflex" unicode="&#xf4;" horiz-adv-x="1246" 
d="M1347 597q-51 -239 -258 -410q-206 -170 -445 -170q-237 0 -374 170q-134 173 -83 410q49 237 257 410q207 171 446 171t373 -171q135 -171 84 -410zM1228 597q40 189 -67 325q-106 136 -296 136t-354 -136q-165 -135 -205 -325q-40 -188 67 -325q106 -135 296 -135
q187 0 354 135q165 136 205 325zM1181 1375q-12 -60 -71 -60q-30 0 -49 39l-93 189l-173 -189q-35 -39 -64 -39q-60 0 -48 60q5 17 8 20l237 258q51 54 75 54t51 -54l129 -258q2 -6 -2 -20z" />
    <glyph glyph-name="otilde" unicode="&#xf5;" horiz-adv-x="1246" 
d="M1347 597q-51 -239 -258 -410q-206 -170 -445 -170q-237 0 -374 170q-134 173 -83 410q49 237 257 410q207 171 446 171t373 -171q135 -171 84 -410zM1228 597q40 189 -67 325q-106 136 -296 136t-354 -136q-165 -135 -205 -325q-40 -188 67 -325q106 -135 296 -135
q187 0 354 135q165 136 205 325zM1231 1417q-6 -32 -93 -75q-86 -44 -119 -44q-35 0 -83 59q-48 60 -97 60q-43 0 -119 -45q-77 -44 -86 -44q-4 0 -2 6l1 6l3 6l15 71q7 31 93 75q85 45 121 45q35 0 82 -60q46 -60 97 -60q43 0 119 44q75 45 87 45z" />
    <glyph glyph-name="odieresis" unicode="&#xf6;" horiz-adv-x="1246" 
d="M1347 597q-51 -239 -258 -410q-206 -170 -445 -170q-237 0 -374 170q-134 173 -83 410q49 237 257 410q207 171 446 171t373 -171q135 -171 84 -410zM1228 597q40 189 -67 325q-106 136 -296 136t-354 -136q-165 -135 -205 -325q-40 -188 67 -325q106 -135 296 -135
q187 0 354 135q165 136 205 325zM1143 1357q-3 -12 -10 -22.5t-17 -18.5t-22 -13t-24 -5q-24 0 -38 18t-9 41q5 24 26.5 42t45.5 18t38.5 -18t9.5 -42zM836 1357q-3 -12 -10 -22.5t-17 -18.5t-22 -13t-24 -5q-24 0 -38 18t-9 41q5 24 26.5 42t45.5 18t38.5 -18t9.5 -42z" />
    <glyph glyph-name="divide" unicode="&#xf7;" horiz-adv-x="905" 
d="M730 947q-5 -24 -26.5 -42t-45.5 -18t-38 18t-9 42t26.5 42t45.5 18t38 -18t9 -42zM939 683q-5 -24 -27 -42t-46 -18h-529q-24 0 -38 18t-9 42t27 41.5t46 17.5h529q24 0 38 -17.5t9 -41.5zM618 418q-5 -24 -27 -42t-46 -18t-37.5 18t-8.5 42t26.5 42t45.5 18t38 -18
t9 -42z" />
    <glyph glyph-name="oslash" unicode="&#xf8;" horiz-adv-x="1246" 
d="M1501 1118q-6 -27 -27 -43l-169 -131q81 -163 42 -347q-51 -239 -258 -410q-206 -170 -445 -170q-210 0 -352 145l-166 -128q-23 -17 -45 -17q-60 0 -48 60q6 27 26 42l170 132q-81 163 -42 346q49 237 257 410q207 171 446 171q210 0 352 -145l166 128q23 17 45 17
q60 0 48 -60zM1137 952q-113 106 -272 106q-190 0 -354 -136q-165 -135 -205 -325q-29 -134 30 -264zM1228 597q28 132 -30 265l-802 -620q115 -105 273 -105q187 0 354 135q165 136 205 325z" />
    <glyph glyph-name="ugrave" unicode="&#xf9;" 
d="M1279 77q-5 -24 -26.5 -42t-45.5 -18t-38.5 18t-9.5 42l42 194q-252 -254 -530 -254q-233 0 -364 173q-128 174 -78 407l111 521q5 24 26.5 42t45.5 18t38.5 -18t9.5 -42l-111 -521q-40 -189 66 -325q106 -135 297 -135q189 0 353 135q165 136 205 325l111 521
q5 24 26.5 42t45.5 18t38.5 -18t9.5 -42zM1106 1359q-13 -61 -71 -61q-30 0 -45 29l-105 225q-6 13 -2 31q12 59 70 59q33 0 45 -27l107 -225q5 -15 1 -31z" />
    <glyph glyph-name="uacute" unicode="&#xfa;" 
d="M1279 77q-5 -24 -26.5 -42t-45.5 -18t-38.5 18t-9.5 42l42 194q-252 -254 -530 -254q-233 0 -364 173q-128 174 -78 407l111 521q5 24 26.5 42t45.5 18t38.5 -18t9.5 -42l-111 -521q-40 -189 66 -325q106 -135 297 -135q189 0 353 135q165 136 205 325l111 521
q5 24 26.5 42t45.5 18t38.5 -18t9.5 -42zM1154 1583q-4 -17 -15 -31l-202 -225q-26 -29 -57 -29q-58 0 -45 61q4 19 16 31l200 225q25 27 57 27q58 0 46 -59z" />
    <glyph glyph-name="ucircumflex" unicode="&#xfb;" 
d="M1279 77q-5 -24 -26.5 -42t-45.5 -18t-38.5 18t-9.5 42l42 194q-252 -254 -530 -254q-233 0 -364 173q-128 174 -78 407l111 521q5 24 26.5 42t45.5 18t38.5 -18t9.5 -42l-111 -521q-40 -189 66 -325q106 -135 297 -135q189 0 353 135q165 136 205 325l111 521
q5 24 26.5 42t45.5 18t38.5 -18t9.5 -42zM1223 1375q-12 -60 -71 -60q-30 0 -49 39l-93 189l-173 -189q-35 -39 -64 -39q-60 0 -48 60q5 17 8 20l237 258q51 54 75 54t51 -54l129 -258q2 -6 -2 -20z" />
    <glyph glyph-name="udieresis" unicode="&#xfc;" 
d="M1279 77q-5 -24 -26.5 -42t-45.5 -18t-38.5 18t-9.5 42l42 194q-252 -254 -530 -254q-233 0 -364 173q-128 174 -78 407l111 521q5 24 26.5 42t45.5 18t38.5 -18t9.5 -42l-111 -521q-40 -189 66 -325q106 -135 297 -135q189 0 353 135q165 136 205 325l111 521
q5 24 26.5 42t45.5 18t38.5 -18t9.5 -42zM1185 1357q-3 -12 -10 -22.5t-17 -18.5t-22 -13t-24 -5q-24 0 -38 18t-9 41q5 24 26.5 42t45.5 18t38.5 -18t9.5 -42zM878 1357q-3 -12 -10 -22.5t-17 -18.5t-22 -13t-24 -5q-24 0 -38 18t-9 41q5 24 26.5 42t45.5 18t38.5 -18
t9.5 -42z" />
    <glyph glyph-name="yacute" unicode="&#xfd;" 
d="M1207 -263q-5 -24 -27 -42t-46 -18h-700q-23 0 -37 18t-9 42t27 42t45 18h640l101 474q-252 -254 -530 -254q-233 0 -364 173q-128 174 -78 407l111 521q5 24 26.5 42t45.5 18t38.5 -18t9.5 -42l-111 -521q-40 -189 66 -325q106 -135 297 -135q189 0 353 135
q165 136 205 325l111 521q5 24 26.5 42t45.5 18t38.5 -18t9.5 -42zM1154 1583q-4 -17 -15 -31l-202 -225q-26 -29 -57 -29q-58 0 -45 61q4 19 16 31l200 225q25 27 57 27q58 0 46 -59z" />
    <glyph glyph-name="thorn" unicode="&#xfe;" horiz-adv-x="1118" 
d="M1201 512q-39 -183 -200 -317q-159 -132 -343 -132h-423l-33 -155q-5 -24 -26.5 -42t-45.5 -18t-38.5 18t-9.5 42l258 1210q5 24 26.5 42t45.5 18t38.5 -18t9.5 -42l-34 -159h423q183 0 287 -132q104 -131 65 -315zM1082 512q28 135 -48 231q-75 97 -210 97h-423
l-140 -657h423q136 0 252 97q118 98 146 232z" />
    <glyph glyph-name="ydieresis" unicode="&#xff;" 
d="M1207 -263q-5 -24 -27 -42t-46 -18h-700q-23 0 -37 18t-9 42t27 42t45 18h640l101 474q-252 -254 -530 -254q-233 0 -364 173q-128 174 -78 407l111 521q5 24 26.5 42t45.5 18t38.5 -18t9.5 -42l-111 -521q-40 -189 66 -325q106 -135 297 -135q189 0 353 135
q165 136 205 325l111 521q5 24 26.5 42t45.5 18t38.5 -18t9.5 -42zM1185 1357q-3 -12 -10 -22.5t-17 -18.5t-22 -13t-24 -5q-24 0 -38 18t-9 41q5 24 26.5 42t45.5 18t38.5 -18t9.5 -42zM878 1357q-3 -12 -10 -22.5t-17 -18.5t-22 -13t-24 -5q-24 0 -38 18t-9 41
q5 24 26.5 42t45.5 18t38.5 -18t9.5 -42z" />
    <glyph glyph-name="dotlessi" unicode="&#x131;" horiz-adv-x="290" 
d="M238 77q-5 -24 -26.5 -42t-45.5 -18t-38.5 18t-9.5 42l222 1041q5 24 26.5 42t45.5 18t38.5 -18t9.5 -42z" />
    <glyph glyph-name="OE" unicode="&#x152;" horiz-adv-x="2074" 
d="M2021 77q-5 -24 -26.5 -42t-44.5 -18h-615q-24 0 -38.5 18t-9.5 42l48 223q-289 -283 -606 -283q-274 0 -428 196t-96 470q59 273 296 469q238 196 511 196q317 0 485 -283l48 224q3 12 10 22.5t17 18.5t22 13t24 5h615q23 0 37 -18t9 -41q-5 -24 -27 -42t-45 -18h-555
l-103 -487h384q24 0 38 -17.5t9 -41.5t-27 -42t-46 -18h-384l-103 -486h555q23 0 37 -18t9 -42zM1416 683q48 225 -78 385q-128 161 -352 161q-227 0 -420 -162q-194 -161 -242 -384q-48 -226 78 -386t352 -160q227 0 420 160q194 161 242 386z" />
    <glyph glyph-name="oe" unicode="&#x153;" horiz-adv-x="2178" 
d="M2314 966q-5 -26 -26 -43l-838 -691q118 -95 260 -95q165 0 294 90q13 10 25.5 19.5t26.5 19.5q33 24 56 24q24 0 37 -18.5t8 -42.5q-9 -40 -101 -96q-197 -116 -371 -116q-163 0 -285 89q-116 86 -167 234q-116 -150 -266 -234q-160 -89 -323 -89q-237 0 -374 170
q-134 173 -83 410q49 237 257 410q207 171 446 171q164 0 285 -89q115 -86 168 -234q112 148 265 234q160 89 323 89q171 0 323 -116q69 -56 60 -96zM2174 954q-116 104 -268 104q-192 0 -355 -135t-204 -326q-33 -155 45 -288zM1228 597q40 189 -67 325q-106 136 -296 136
t-354 -136q-165 -135 -205 -325q-40 -188 67 -325q106 -135 296 -135q187 0 354 135q165 136 205 325z" />
    <glyph glyph-name="Scaron" unicode="&#x160;" horiz-adv-x="809" 
d="M864 381q-31 -147 -162 -257q-130 -107 -276 -107q-95 0 -171 48q-82 49 -105 131q-6 16 -3 31q5 24 26 42t45 18q28 0 48 -33q4 -7 9.5 -17t13.5 -24q54 -76 162 -76q99 0 185 72q88 73 109 172t-36 170q-56 72 -155 72q-150 0 -234 106q-82 106 -51 256q31 148 161 255
q129 108 279 108q92 0 169 -48q84 -50 106 -131q5 -19 2 -31q-5 -24 -26 -41.5t-45 -17.5q-28 0 -48 32q-3 7 -9 17t-14 24q-56 77 -161 77q-100 0 -186 -73q-88 -72 -109 -171t36 -171t156 -72q147 0 231 -107t53 -254zM1056 1818q-3 -17 -7 -21l-238 -258q-50 -54 -74 -54
t-52 54l-128 258q-2 5 1 21q14 59 73 59q28 0 48 -39l93 -189l173 189q36 39 65 39q60 0 46 -59z" />
    <glyph glyph-name="scaron" unicode="&#x161;" horiz-adv-x="724" 
d="M770 338q-28 -132 -142 -226q-116 -95 -245 -95q-83 0 -153 41q-71 44 -91 118q-3 19 -1 32q3 11 10 21.5t17 18.5t21.5 13t22.5 5q21 0 71 -65q49 -64 128 -64q81 0 154 59q73 62 89 142q16 82 -30 141q-47 59 -128 59q-133 0 -206 93q-73 94 -45 226q29 132 141 226
q116 95 246 95q82 0 153 -44q70 -43 90 -115q5 -18 2 -31q-5 -24 -27 -42t-46 -18q-21 0 -69 65q-47 65 -128 65q-84 0 -154 -60q-71 -59 -89 -141q-17 -84 29 -141q47 -59 129 -59q132 0 205 -94q74 -96 46 -225zM979 1648q-3 -17 -7 -21l-238 -258q-50 -54 -74 -54t-52 54
l-128 258q-2 5 1 21q14 59 73 59q28 0 48 -39l93 -189l173 189q36 39 65 39q60 0 46 -59z" />
    <glyph glyph-name="Ydieresis" unicode="&#x178;" horiz-adv-x="1172" 
d="M1446 1289q-4 -20 -24 -40l-619 -587l-125 -585q-5 -24 -26.5 -42t-45.5 -18q-23 0 -37.5 18t-9.5 42l125 587l-370 587q-10 16 -6 38q14 59 71 59q29 0 41 -20l346 -555l584 555q23 20 50 20q24 0 37.5 -18t8.5 -41zM1141 1527q-3 -12 -10 -22.5t-17 -18.5t-22 -13
t-24 -5q-24 0 -38 18t-9 41q5 24 26.5 42t45.5 18t38.5 -18t9.5 -42zM834 1527q-3 -12 -10 -22.5t-17 -18.5t-22 -13t-24 -5q-24 0 -38 18t-9 41q5 24 26.5 42t45.5 18t38.5 -18t9.5 -42z" />
    <glyph glyph-name="Zcaron" unicode="&#x17d;" horiz-adv-x="1224" 
d="M1214 77q-5 -24 -26.5 -42t-45.5 -18h-1020q-58 0 -46 60q4 20 21 37l1174 1115h-891q-23 0 -37 18t-9 42q3 12 10 22.5t17 18.5t21.5 13t23.5 5h1019q24 0 38 -18t9 -41q-4 -21 -32 -47l-1164 -1105h891q24 0 38 -18t9 -42zM1263 1818q-3 -17 -7 -21l-238 -258
q-50 -54 -74 -54t-52 54l-128 258q-2 5 1 21q14 59 73 59q28 0 48 -39l93 -189l173 189q36 39 65 39q60 0 46 -59z" />
    <glyph glyph-name="zcaron" unicode="&#x17e;" horiz-adv-x="1075" 
d="M1066 77q-5 -24 -26.5 -42t-45.5 -18h-872q-58 0 -46 60q4 20 21 37l990 944h-743q-23 0 -37 18t-9 42t26.5 42t44.5 18h871q24 0 38.5 -18t9.5 -42q-4 -21 -31 -46l-981 -935h743q24 0 38 -18t9 -42zM1153 1648q-3 -17 -7 -21l-238 -258q-50 -54 -74 -54t-52 54
l-128 258q-2 5 1 21q14 59 73 59q28 0 48 -39l93 -189l173 189q36 39 65 39q60 0 46 -59z" />
    <glyph glyph-name="circumflex" unicode="&#x2c6;" horiz-adv-x="754" 
d="M971 1545q-12 -60 -71 -60q-30 0 -49 39l-93 189l-173 -189q-35 -39 -64 -39q-60 0 -48 60q5 17 8 20l237 258q51 54 75 54t51 -54l129 -258q2 -6 -2 -20z" />
    <glyph glyph-name="caron" unicode="&#x2c7;" horiz-adv-x="754" 
d="M1029 1818q-3 -17 -7 -21l-238 -258q-50 -54 -74 -54t-52 54l-128 258q-2 5 1 21q14 59 73 59q28 0 48 -39l93 -189l173 189q36 39 65 39q60 0 46 -59z" />
    <glyph glyph-name="macron" unicode="&#x2c9;" horiz-adv-x="734" 
d="M948 1527q-3 -12 -10 -22.5t-17 -18.5t-22 -13t-24 -5h-358q-24 0 -38 18t-9 41q5 24 26.5 42t45.5 18h358q24 0 38.5 -18t9.5 -42z" />
    <glyph glyph-name="ring" unicode="&#x2da;" horiz-adv-x="563" 
d="M797 1621q-14 -63 -69 -108q-54 -45 -117 -45t-99 45t-22 108q14 64 68 108q55 46 118 46t99 -46q35 -46 22 -108zM746 1621q8 43 -15 73t-66 30q-21 0 -41.5 -8t-37.5 -22t-29 -33t-16 -40q-5 -21 -1 -39.5t15 -32.5t28.5 -22t38.5 -8t41 8t37 22t29 32.5t17 39.5z" />
    <glyph glyph-name="tilde" unicode="&#x2dc;" horiz-adv-x="836" 
d="M1062 1587q-6 -32 -93 -75q-86 -44 -119 -44q-35 0 -83 59q-48 60 -97 60q-43 0 -119 -45q-77 -44 -86 -44q-4 0 -2 6l1 6l3 6l15 71q7 31 93 75q85 45 121 45q35 0 82 -60q46 -60 97 -60q43 0 119 44q75 45 87 45z" />
    <glyph glyph-name="endash" unicode="&#x2013;" horiz-adv-x="734" 
d="M768 683q-5 -24 -27 -42t-46 -18h-358q-24 0 -38 18t-9 42t27 41.5t46 17.5h358q24 0 38 -17.5t9 -41.5z" />
    <glyph glyph-name="emdash" unicode="&#x2014;" horiz-adv-x="1075" 
d="M1109 683q-5 -24 -27 -42t-45 -18h-700q-24 0 -38 18t-9 42t27 41.5t46 17.5h700q23 0 37 -17.5t9 -41.5z" />
    <glyph glyph-name="quoteleft" unicode="&#x2018;" horiz-adv-x="476" 
d="M606 1133q-13 -61 -71 -61q-35 0 -45 27l-69 157q-6 14 -2 33q14 59 71 59q35 0 45 -25l70 -157q5 -15 1 -33z" />
    <glyph glyph-name="quoteright" unicode="&#x2019;" horiz-adv-x="476" 
d="M639 1289q-5 -20 -15 -33l-136 -157q-23 -27 -57 -27q-58 0 -45 61q5 20 16 33l135 157q22 25 57 25q59 0 45 -59z" />
    <glyph glyph-name="quotesinglbase" unicode="&#x201a;" horiz-adv-x="476" 
d="M385 94q-5 -20 -15 -33l-136 -155q-23 -27 -57 -27q-58 0 -45 61q5 20 16 33l135 155q23 26 57 26q58 0 45 -60z" />
    <glyph glyph-name="quotedblleft" unicode="&#x201c;" horiz-adv-x="800" 
d="M930 1133q-13 -61 -71 -61q-35 0 -45 27l-69 157q-6 14 -2 33q14 59 71 59q34 0 46 -25l69 -157q5 -15 1 -33zM606 1133q-13 -61 -71 -61q-35 0 -45 27l-69 157q-6 14 -2 33q14 59 71 59q35 0 45 -25l70 -157q5 -15 1 -33z" />
    <glyph glyph-name="quotedblright" unicode="&#x201d;" horiz-adv-x="800" 
d="M963 1289q-5 -20 -15 -33l-135 -157q-24 -27 -58 -27q-58 0 -45 61q5 20 16 33l135 157q22 25 57 25q59 0 45 -59zM639 1289q-5 -20 -15 -33l-136 -157q-23 -27 -57 -27q-58 0 -45 61q5 20 16 33l135 157q22 25 57 25q59 0 45 -59z" />
    <glyph glyph-name="quotedblbase" unicode="&#x201e;" horiz-adv-x="800" 
d="M709 94q-5 -20 -15 -33l-135 -155q-24 -27 -58 -27q-58 0 -45 61q5 20 16 33l135 155q23 26 57 26q58 0 45 -60zM385 94q-5 -20 -15 -33l-136 -155q-23 -27 -57 -27q-58 0 -45 61q5 20 16 33l135 155q23 26 57 26q58 0 45 -60z" />
    <glyph glyph-name="dagger" unicode="&#x2020;" horiz-adv-x="870" 
d="M960 947q-5 -24 -26 -42t-45 -18h-188l-209 -979q-5 -24 -26.5 -42t-45.5 -18t-38 18t-9 42l209 979h-188q-24 0 -38.5 18t-9.5 42t27 42t46 18h188l60 282q3 12 10 22.5t16.5 18.5t21.5 13t24 5q24 0 38 -18t9 -41l-60 -282h188q24 0 37.5 -18t8.5 -42z" />
    <glyph glyph-name="daggerdbl" unicode="&#x2021;" horiz-adv-x="870" 
d="M888 606q-5 -24 -26.5 -42t-45.5 -18h-188l-136 -638q-5 -24 -26.5 -42t-45.5 -18t-38 18t-9 42l136 638h-188q-24 0 -38 18t-9 42t27 42t46 18h188l47 221h-188q-24 0 -38.5 18t-9.5 42t27 42t46 18h188l60 282q3 12 10 22.5t16.5 18.5t21.5 13t24 5q24 0 38 -18t9 -41
l-60 -282h188q24 0 37.5 -18t8.5 -42t-26 -42t-45 -18h-188l-47 -221h188q24 0 37.5 -18t8.5 -42z" />
    <glyph glyph-name="bullet" unicode="&#x2022;" horiz-adv-x="1109" 
d="M1143 683q-37 -174 -189 -302q-152 -125 -328 -125q-174 0 -275 125q-98 128 -61 302q37 175 189 300q153 126 329 126t274 -126t61 -300z" />
    <glyph glyph-name="ellipsis" unicode="&#x2026;" horiz-adv-x="990" 
d="M895 77q-5 -24 -26.5 -42t-45.5 -18t-38.5 18t-9.5 42t27 42t46 18t38 -18t9 -42zM588 77q-5 -24 -26.5 -42t-45.5 -18t-38.5 18t-9.5 42t27 42t46 18t38 -18t9 -42zM281 77q-5 -24 -26.5 -42t-45.5 -18t-38.5 18t-9.5 42t27 42t46 18t38 -18t9 -42z" />
    <glyph glyph-name="perthousand" unicode="&#x2030;" horiz-adv-x="1935" 
d="M1900 358q-30 -140 -152 -241q-121 -100 -261 -100q-165 0 -251 149q-147 -149 -312 -149q-152 0 -224 114q-65 110 -32 265l3.5 17.5t3.5 14.5q3 15 6 23l-422 -402q-22 -20 -50 -20q-59 0 -45 60q5 21 22 37l597 569q-108 -29 -155 -29q-141 0 -220 100t-49 241
q30 140 151 240q124 101 263 101q152 0 223 -116q66 -107 33 -263q-4 -17 -7 -30.5t-6 -22.5l421 400q22 20 50 20q59 0 45 -59q-4 -21 -21 -38l-598 -568q108 29 156 29q163 0 249 -149q152 149 314 149q138 0 218 -101t50 -241zM1781 358q19 91 -33 156q-51 66 -142 66
t-170 -66q-80 -65 -99 -156q-20 -90 33 -156q53 -65 142 -65q90 0 170 65q79 66 99 156zM922 1007q19 90 -33 156q-51 66 -142 66t-170 -66q-78 -66 -98 -156q-19 -89 32 -157q53 -65 142 -65q90 0 170 65q80 66 99 157zM1218 358q19 91 -33 156q-53 66 -142 66
q-92 0 -171 -66q-78 -64 -98 -156q-19 -88 32 -156q53 -65 143 -65q88 0 170 65q79 66 99 156z" />
    <glyph glyph-name="guilsinglleft" unicode="&#x2039;" horiz-adv-x="905" 
d="M877 391q-14 -60 -73 -60q-13 0 -21 5l-453 285q-47 29 -40 62q8 33 66 61l575 285q10 5 23 5q61 0 47 -59q-8 -36 -49 -55l-479 -237l378 -238q33 -20 26 -54z" />
    <glyph glyph-name="guilsinglright" unicode="&#x203a;" horiz-adv-x="905" 
d="M939 683q-8 -34 -66 -62l-575 -285q-12 -5 -23 -5q-61 0 -47 60q8 35 50 54l478 238l-377 237q-35 20 -27 55q14 59 73 59q11 0 21 -5l453 -285q48 -29 40 -61z" />
    <glyph glyph-name="Euro" unicode="&#x20ac;" horiz-adv-x="1666" 
d="M1609 254q-9 -44 -113 -104q-227 -133 -425 -133q-209 0 -353 120q-144 123 -178 315h-239q-24 0 -38 18t-9 42t27 42t46 18h206q2 35 5.5 63t7.5 48t12.5 47.5t21.5 63.5h-121q-24 0 -38.5 17.5t-9.5 41.5t27 42t46 18h154q118 195 312 315q195 120 404 120
q198 0 368 -133q80 -60 69 -104q-5 -24 -27 -42t-46 -18q-28 0 -50 24q-8 11 -17 21.5t-17 21.5q-105 111 -306 111q-160 0 -308 -87q-148 -85 -256 -229h676q24 0 38 -18t9 -42t-26.5 -41.5t-45.5 -17.5h-714q-12 -32 -21 -60t-14 -51q-11 -47 -12 -111h629q23 0 37 -18
t9 -42t-27 -42t-45 -18h-591q47 -144 158 -229q113 -86 272 -86q201 0 353 110q13 11 26 21.5t27 21.5q33 24 60 24q24 0 38 -18t9 -42z" />
    <glyph glyph-name="trademark" unicode="&#x2122;" horiz-adv-x="1143" 
d="M1215 857q-8 -38 -44 -38q-38 0 -30 38l70 327l-199 -227q-15 -18 -27 -18t-22 24l-100 221l-70 -327q-8 -38 -46 -38q-37 0 -29 38l89 418h-120l-89 -418q-8 -38 -45 -38q-38 0 -30 38l89 418h-158q-38 0 -30 36q7 37 46 37h390q21 0 29 -17l120 -275l238 275
q17 17 37 17q35 0 28 -37z" />
    </font>
</defs>
</svg>
