<?xml version="1.0" standalone="no"?>
<!DOCTYPE svg PUBLIC "-//W3C//DTD SVG 1.1//EN" "http://www.w3.org/Graphics/SVG/1.1/DTD/svg11.dtd" >
<svg xmlns="http://www.w3.org/2000/svg" xmlns:xlink="http://www.w3.org/1999/xlink" version="1.1">
<metadata>
Created by FontForge 20170731 at Thu Jan  4 14:29:10 2001
 By Aleksey,,,
(c) 2001 Levi
</metadata>
<defs>
<font id="Olympus" horiz-adv-x="116" >
  <font-face 
    font-family="Olympus"
    font-weight="400"
    font-stretch="normal"
    units-per-em="1000"
    panose-1="0 0 4 0 0 0 0 0 0 0"
    ascent="800"
    descent="-200"
    x-height="443"
    cap-height="513"
    bbox="-37 -213 960 800"
    underline-thickness="20"
    underline-position="-163"
    unicode-range="U+0020-007C"
  />
<missing-glyph horiz-adv-x="500" 
d="M63 0v800h375v-800h-375zM125 63h250v675h-250v-675z" />
    <glyph glyph-name=".notdef" horiz-adv-x="500" 
d="M63 0v800h375v-800h-375zM125 63h250v675h-250v-675z" />
    <glyph glyph-name=".null" horiz-adv-x="0" 
 />
    <glyph glyph-name="nonmarkingreturn" horiz-adv-x="500" 
 />
    <glyph glyph-name="space" unicode=" " horiz-adv-x="500" 
 />
    <glyph glyph-name="exclam" unicode="!" 
d="M46 133q0 -23 -23 -23t-23 20v403q0 24 23 24t23 -24v-400zM46 -8q0 -23 -23 -23t-23 20v58q0 23 23 23t23 -23v-55z" />
    <glyph glyph-name="quotedbl" unicode="&#x22;" horiz-adv-x="204" 
d="M134 531l-13 -102q-6 -22 -26 -20q-21 3 -21 26l17 101q0 24 26 21q22 -7 17 -26zM60 531l-14 -102q-5 -22 -26 -20q-20 3 -20 26l16 101q0 24 26 21q23 -7 18 -26z" />
    <glyph glyph-name="ampersand" unicode="&#x26;" horiz-adv-x="589" 
d="M494 -20q-5 0 -17 8l-90 90l-139 -119q-13 -11 -29 0l-209 145q-10 7 -10 19q0 10 7 16l168 148l-121 122q-7 6 -7 16q0 9 7 16l144 145q7 6 16 6q10 0 16 -6l148 -148q7 -7 5 -18q-1 -11 -8 -17l-133 -116l148 -148l69 58q9 8 15 8q7 0 16 -9.5t9 -17.5q0 -5 -11 -16
l-66 -55l87 -87q10 -6 10 -14q0 -7 -9 -16.5t-16 -9.5zM329 423l-116 113l-110 -110l107 -107zM355 110l-148 145l-148 -130l171 -119z" />
    <glyph glyph-name="quotesingle" unicode="'" horiz-adv-x="130" 
d="M60 531l-14 -102q-5 -22 -26 -20q-20 3 -20 26l16 101q0 24 26 21q23 -7 18 -26z" />
    <glyph glyph-name="parenleft" unicode="(" horiz-adv-x="345" 
d="M268 -32q7 -10 7 -15q0 -8 -13 -17q-8 -5 -15 -5q-9 0 -17 11l-226 328q-4 4 -4 13q0 8 4 13l229 275q7 11 16 11q8 0 17 -8.5t9 -17.5q0 -6 -7 -17l-217 -258z" />
    <glyph glyph-name="parenright" unicode=")" horiz-adv-x="345" 
d="M271 270l-226 -328q-8 -11 -17 -11q-7 0 -15 5q-13 9 -13 17q0 5 7 15l218 313l-218 258q-7 11 -7 17q0 9 9.5 17.5t17.5 8.5t15 -11l229 -275q4 -5 4 -13q0 -9 -4 -13z" />
    <glyph glyph-name="plus" unicode="+" horiz-adv-x="448" 
d="M377 290q3 -21 -20 -26l-142 -15l-3 -133q0 -23 -23 -23q-24 0 -23 23l3 130l-142 -14q-24 0 -27 20q-2 21 21 26l148 15v119q0 23 23 23t23 -23v-116l136 14q24 0 26 -20z" />
    <glyph glyph-name="comma" unicode="," horiz-adv-x="142" 
d="M72 38l-26 -177q-5 -23 -26 -20q-20 2 -20 26l29 176q0 24 26 21q22 -7 17 -26z" />
    <glyph glyph-name="hyphen" unicode="-" horiz-adv-x="450" 
d="M380 232q0 -22 -23 -23l-334 -15q-20 -1 -23 23q0 23 23 24l331 14q23 1 26 -23z" />
    <glyph glyph-name="hyphen" unicode="&#x2010;" horiz-adv-x="450" 
d="M380 232q0 -22 -23 -23l-334 -15q-20 -1 -23 23q0 23 23 24l331 14q23 1 26 -23z" />
    <glyph glyph-name="period" unicode="." 
d="M46 -8q2 -23 -23 -23q-23 -3 -23 20v58q0 23 20 23q22 0 23 -23z" />
    <glyph glyph-name="slash" unicode="/" horiz-adv-x="311" 
d="M241 507l-198 -501q-9 -15 -16 -15q-13 0 -25 10q-6 5 -2 22l197 502q8 16 19 16q6 0 13 -2q18 -7 12 -32z" />
    <glyph glyph-name="zero" unicode="0" horiz-adv-x="470" 
d="M400 281l-183 -246q-6 -9 -17 -9q-14 0 -20 12l-180 243q-6 19 3 29l180 212q6 7 17 7t17 -7l183 -212q12 -13 0 -29zM354 296l-154 176l-151 -176l151 -209z" />
    <glyph glyph-name="one" unicode="1" horiz-adv-x="266" 
d="M196 23q0 -23 -23 -23t-23 23v461l-110 -96q-10 -8 -15 -8q-8 0 -16.5 10t-8.5 18q0 6 11 15l148 128q5 5 13 5q24 0 24 -23v-510z" />
    <glyph glyph-name="two" unicode="2" horiz-adv-x="391" 
d="M321 374l-229 -333l220 8q20 5 23 -20q0 -22 -23 -23l-264 -15q-25 -1 -25 23q0 8 5 15l243 354l-197 176q-10 8 -10 16q0 7 8 16.5t15 9.5q5 0 16 -10l215 -188q6 -4 7 -15q0 -9 -4 -14z" />
    <glyph glyph-name="three" unicode="3" horiz-adv-x="393" 
d="M313 423l-165 -124l159 -157q8 -7 8 -17q0 -15 -13 -21l-270 -116q-6 -4 -12 -4q-10 0 -17 16q-3 7 -3 13q0 9 15 19l237 101l-156 154q-7 7 -6 17q0 11 9 15l156 119l-232 98q-15 7 -15 15q0 6 4 14q6 17 16 17q5 0 13 -5l269 -113q13 -5 13 -21q0 -13 -10 -20z" />
    <glyph glyph-name="four" unicode="4" horiz-adv-x="454" 
d="M384 23q0 -23 -24 -23q-23 0 -23 23v183l-313 -38q-9 -1 -16.5 6t-7.5 17q0 3 1 6l107 321q5 16 17 16q5 0 12 -2q21 -9 14 -29l-95 -286l302 38q8 2 17 -5t9 -18v-209z" />
    <glyph glyph-name="five" unicode="5" horiz-adv-x="404" 
d="M331 545q3 -7 3 -12q0 -11 -18 -17l-255 -84l264 -336q5 -7 5 -15q0 -15 -14 -20l-200 -78q-6 -5 -12 -5q-10 0 -17 16q-3 8 -3 14q0 8 15 18l171 67l-264 336q-6 6 -6 15q0 15 15 20l287 95q23 8 29 -14z" />
    <glyph glyph-name="six" unicode="6" horiz-adv-x="498" 
d="M424 153l-162 -171q-6 -7 -18 -7q-11 0 -17 7l-226 267q-12 14 0 32l263 280q10 10 15 10q7 0 17 -9.5t10 -16.5q0 -6 -10 -16l-92 -98l220 -246q5 -7 5 -16t-5 -16zM375 168l-203 228l-124 -133l200 -232z" />
    <glyph glyph-name="seven" unicode="7" horiz-adv-x="405" 
d="M333 417l-209 -411q-9 -14 -17 -14q-6 0 -15 5q-14 6 -14 15q0 6 5 14l195 389l-261 92q-17 9 -17 18q0 13 7.5 22t23.5 4l287 -102q17 -8 17 -24q0 -4 -2 -8z" />
    <glyph glyph-name="eight" unicode="8" horiz-adv-x="529" 
d="M451 133l-191 -174q-4 -4 -14 -4t-15 4l-223 195q-8 7 -8 16q0 11 11 18l168 113l-148 105q-8 4 -9 16t6 19l163 145q15 13 31 2l186 -150q8 -7 8 -18q0 -13 -11 -17l-148 -102l192 -133q10 -5 10 -19q0 -10 -8 -16zM356 423l-148 116l-128 -113l140 -96zM399 148
l-182 127l-157 -107l186 -159z" />
    <glyph glyph-name="nine" unicode="9" horiz-adv-x="467" 
d="M397 386l-176 -344q-5 -14 -14 -14q-6 0 -15 5q-16 7 -16 18q0 5 4 11l69 135l-243 180q-17 12 -6 29l125 182q4 7 15 9q10 2 17 -3l231 -179q15 -12 9 -29zM348 388l-200 154l-99 -142l221 -162z" />
    <glyph glyph-name="colon" unicode=":" 
d="M46 -8q2 -23 -23 -23q-23 -3 -23 20v58q0 23 20 23q22 0 23 -23zM46 154q2 -23 -23 -23q-23 -3 -23 20v58q0 23 20 23q22 0 23 -23z" />
    <glyph glyph-name="semicolon" unicode=";" horiz-adv-x="142" 
d="M72 38l-26 -177q-5 -23 -26 -20q-20 2 -20 26l29 176q0 24 26 21q22 -7 17 -26zM79 154q1 -23 -23 -23q-23 -3 -23 20v58q0 23 20 23q22 0 23 -23z" />
    <glyph glyph-name="equal" unicode="=" horiz-adv-x="447" 
d="M333 293q0 -24 -23 -23l-287 8q-23 1 -23 23q3 21 23 21l287 -6q23 -1 23 -23zM377 145q2 -20 -20 -26l-331 -32q-23 0 -26 20q0 20 20 26l334 32q13 0 16 -1q7 -4 7 -19z" />
    <glyph glyph-name="question" unicode="?" horiz-adv-x="379" 
d="M302 453l-150 -196v-82q0 -23 -24 -23t-23 23l3 90q0 10 6 18l133 179l-232 110q-15 7 -15 16q0 6 4 16q5 14 15 14q5 0 17 -6l261 -121q12 -6 12 -20q0 -10 -7 -18zM154 -8q0 -23 -23 -23t-23 20v58q0 23 23 23t23 -23v-55z" />
    <glyph glyph-name="A" unicode="A" horiz-adv-x="674" 
d="M609 26q5 -6 5 -12q0 -10 -16 -17q-9 -3 -14 -3q-11 0 -15 15l-76 153h-359l-116 -188q-8 -14 -18 -14q-7 0 -14 5q-14 10 -14 19q0 4 5 13l342 551q6 9 19 9q15 0 22 -12zM470 209l-133 278l-174 -278h307z" />
    <glyph glyph-name="B" unicode="B" horiz-adv-x="480" 
d="M400 139q10 -6 10 -18q0 -17 -16 -22l-365 -134q-4 -1 -7 -1q-22 0 -22 24v554q0 22 21 22q4 0 8 -2l328 -139q12 -5 12 -20q0 -12 -10 -17l-150 -114zM339 128l-182 124q-9 6 -9 19q0 12 9 19l144 107l-258 110v-487z" />
    <glyph glyph-name="C" unicode="C" horiz-adv-x="551" 
d="M452 6q0 -23 -23 -23t-23 23v66q-68 -40 -145 -40q-104 0 -181 65q-80 70 -80 173q0 101 80 169q77 65 181 65q77 0 145 -40v52q0 23 23 23t23 -23v-96q0 -22 -24 -22q-8 0 -14 5q-64 58 -153 58q-84 0 -148 -53q-67 -57 -67 -138q0 -84 67 -140q63 -52 148 -52
q90 0 153 55q6 7 14 7q24 0 24 -24v-110z" />
    <glyph glyph-name="D" unicode="D" horiz-adv-x="571" 
d="M490 270l-455 -276q-5 -3 -11 -3q-24 0 -24 24v518q0 23 24 23q6 0 11 -2l455 -247q11 -6 11 -18q0 -13 -11 -19zM432 287l-386 209v-444z" />
    <glyph glyph-name="E" unicode="E" horiz-adv-x="494" 
d="M391 -12q-7 -16 -17 -16q-5 0 -12 5l-322 142q-14 5 -14 20q0 12 8 18l160 110l-183 95q-11 5 -11 18q0 14 11 20l348 191q10 6 15 6q9 0 17 -14q5 -9 5 -15q0 -8 -14 -17l-310 -168l177 -93q12 -5 12 -20q0 -11 -9 -18l-157 -110l284 -125q15 -6 15 -15q0 -5 -3 -14z
" />
    <glyph glyph-name="F" unicode="F" horiz-adv-x="476" 
d="M406 536q0 -23 -20 -23h-340v-174h255q21 0 21 -23t-21 -23h-255v-299q0 -23 -23 -23t-23 23v542q0 9 7 16t16 7h363q20 0 20 -23z" />
    <glyph glyph-name="G" unicode="G" horiz-adv-x="557" 
d="M487 -104q0 -24 -23 -24t-23 24v162q-75 -46 -160 -46q-110 0 -194 72q-87 76 -87 186q0 109 87 184q83 71 194 71q92 0 160 -47v61q0 23 23 23t23 -23v-104q0 -24 -22 -24q-9 0 -16 6q-67 61 -168 61q-91 0 -161 -57q-74 -62 -74 -151q0 -92 74 -154q70 -58 161 -58
q93 0 160 58v90q0 23 23 23t23 -23v-310z" />
    <glyph glyph-name="H" unicode="H" horiz-adv-x="584" 
d="M478 23q0 -23 -23 -23q-20 0 -20 23v244h-389v-279q0 -23 -23 -23t-23 23v540q0 23 23 23t23 -23v-215h389v206q0 23 20 23q23 0 23 -23v-496z" />
    <glyph glyph-name="I" unicode="I" horiz-adv-x="128" 
d="M46 29q0 -23 -23 -23t-23 23v461q0 23 23 23t23 -23v-461z" />
    <glyph glyph-name="J" unicode="J" horiz-adv-x="563" 
d="M481 23q0 -8 -7 -15.5t-16 -7.5h-435q-9 0 -16 7.5t-7 15.5v247q0 23 23 23t23 -23v-224h389v426q0 24 23 24t23 -24v-449z" />
    <glyph glyph-name="K" unicode="K" horiz-adv-x="501" 
d="M405 -53q-5 0 -14 7l-348 261v-186q0 -23 -23 -23q-20 0 -20 23v461q0 23 20 23q23 0 23 -23v-194l345 237q11 7 16 7q9 0 16 -10.5t7 -16.5q0 -5 -13 -17l-347 -241l353 -264q11 -10 11 -15q0 -8 -9 -18.5t-17 -10.5z" />
    <glyph glyph-name="L" unicode="L" horiz-adv-x="496" 
d="M426 17q0 -23 -23 -23h-380q-9 0 -16 7.5t-7 15.5v513q0 24 23 24t23 -24v-489h357q23 0 23 -24z" />
    <glyph glyph-name="M" unicode="M" horiz-adv-x="796" 
d="M710 55q4 -9 4 -13q0 -10 -15 -16q-9 -3 -14 -3q-11 0 -15 18l-148 394l-157 -238q-7 -10 -18 -10q-12 0 -19 10l-151 220l-131 -492q-5 -19 -19 -19t-22.5 7t-4.5 23l145 542q4 17 23 17q13 0 20 -11l157 -235l165 247q6 9 18 9q17 0 23 -15z" />
    <glyph glyph-name="N" unicode="N" horiz-adv-x="589" 
d="M507 104q0 -22 -23 -22q-8 0 -14 5l-424 336v-458q0 -23 -23 -23t-23 23v507q0 23 24 23q8 0 14 -5l423 -339v371q0 23 23 23t23 -23v-418z" />
    <glyph glyph-name="O" unicode="O" horiz-adv-x="614" 
d="M528 249q0 -108 -78 -185.5t-186 -77.5q-109 0 -186.5 77.5t-77.5 185.5q0 109 77.5 186.5t186.5 77.5q113 0 188.5 -75.5t75.5 -188.5zM484 249q0 87 -66.5 154t-153.5 67q-90 0 -154 -65t-64 -156q0 -89 64.5 -153t153.5 -64q91 0 155.5 64t64.5 153zM310 249
q0 -18 -13.5 -32t-32.5 -14q-18 0 -32.5 14.5t-14.5 31.5q0 19 14.5 33t32.5 14q19 0 32.5 -13.5t13.5 -33.5z" />
    <glyph glyph-name="P" unicode="P" horiz-adv-x="424" 
d="M354 386q0 -75 -52 -127.5t-125 -52.5h-131v-220q0 -24 -23 -24t-23 24l3 556q0 7 7.5 13.5t15.5 6.5h151q74 0 125.5 -51.5t51.5 -124.5zM310 386q0 54 -39.5 93.5t-93.5 39.5h-131v-267h131q54 0 93.5 39.5t39.5 94.5z" />
    <glyph glyph-name="Q" unicode="Q" horiz-adv-x="614" 
d="M528 249q0 -109 -78 -186.5t-186 -77.5q-29 0 -44 3h-3l-84 -70l215 -84q15 -10 15 -18q0 -5 -4 -14q-6 -15 -17 -15q-5 0 -12 4l-249 101q-13 6 -13 22q0 10 7 16l90 72q-74 31 -119.5 99t-45.5 148q0 109 77.5 186.5t186.5 77.5q107 0 185.5 -78.5t78.5 -185.5z
M481 249q0 90 -64 153.5t-153 63.5t-153.5 -64t-64.5 -153q0 -91 64 -154.5t154 -63.5q91 0 154 63.5t63 154.5z" />
    <glyph glyph-name="R" unicode="R" horiz-adv-x="486" 
d="M391 70q9 -9 9 -16q0 -8 -10.5 -16t-18.5 -8t-14 13l-125 172q-26 -9 -58 -9h-131v-220q0 -24 -20 -24q-23 0 -23 24v556q0 7 8.5 13.5t17.5 6.5h148q74 0 127 -51.5t53 -124.5q0 -99 -82 -151zM307 386q0 54 -38.5 93.5t-94.5 39.5h-131v-267h131q56 0 94.5 39.5
t38.5 94.5z" />
    <glyph glyph-name="S" unicode="S" horiz-adv-x="426" 
d="M349 577q7 -8 7 -15q0 -4 -13 -17l-275 -183l220 -211q8 -8 8 -18q0 -13 -11 -20l-249 -156q-8 -8 -14 -8q-7 0 -15 13q-7 10 -7 17t13 15l223 142l-220 212q-8 5 -8 16q0 13 10 19l299 203q11 5 15 5q9 0 17 -14z" />
    <glyph glyph-name="T" unicode="T" horiz-adv-x="716" 
d="M646 513q0 -23 -23 -23h-266v-499q0 -23 -24 -23q-23 0 -23 23v499h-287q-23 0 -23 23t23 23h600q23 0 23 -23zM203 -159z" />
    <glyph glyph-name="U" unicode="U" horiz-adv-x="759" 
d="M718 470q0 -24 -24 -24h-72v-208q0 -106 -80.5 -175t-186.5 -69t-184 68q-82 70 -82 176v208h-73q-23 0 -23 24q0 23 23 23h96q9 0 16 -7.5t7 -15.5v-232q0 -86 69 -143q65 -54 151 -54q87 0 152 54q69 57 69 143v232q0 8 7 15.5t16 7.5h95q24 0 24 -23z" />
    <glyph glyph-name="V" unicode="V" horiz-adv-x="678" 
d="M617 461l-284 -461q-7 -11 -19 -11t-19 11l-310 441q-6 8 -6 14q0 10 12 17q9 8 16 8q9 0 16 -13l289 -415l264 432q14 14 19 14q6 0 13 -5q14 -10 14 -19q0 -4 -5 -13z" />
    <glyph glyph-name="W" unicode="W" horiz-adv-x="1002" 
d="M952 461l-281 -461q-6 -11 -18 -11t-19 11l-160 226l-139 -226q-7 -11 -20 -11t-20 11l-308 441q-8 8 -8 15q0 8 10.5 16t18.5 8q7 0 14 -13l290 -415l133 215l-121 174q-8 8 -8 14q0 10 13 17q10 8 16 8q7 0 16 -13l110 -157l108 174q8 14 17 14q6 0 14 -5q13 -9 13 -17
q0 -4 -7 -15l-116 -191l151 -218l264 432q8 14 17 14q6 0 15 -5q13 -10 13 -18q0 -6 -8 -14z" />
    <glyph glyph-name="X" unicode="X" horiz-adv-x="562" 
d="M492 550q0 -12 -16 -17q-60 -17 -124 -78q-88 -82 -134 -154l-6 -11l203 -267q9 -8 9 -14q0 -8 -10 -16.5t-18 -8.5q-7 0 -15 10l-195 255l-171 -261q-8 -12 -15 -12q-8 0 -18 7.5t-10 14.5q0 5 6 14l179 278l-150 194q-6 8 -6 13q0 8 9.5 17.5t17.5 9.5q6 0 16 -11
l139 -183q67 93 140 160t139 87q17 5 23.5 -5t6.5 -22z" />
    <glyph glyph-name="Y" unicode="Y" horiz-adv-x="605" 
d="M563 526q0 -11 -17 -16q-138 -40 -241 -200v-319q0 -20 -23 -20t-23 20v316q-3 3 -3 9q-103 172 -279 243q-14 10 -14 17q0 12 9 24q8 9 23 3q186 -75 287 -244q107 152 249 195q18 5 25 -5.5t7 -22.5z" />
    <glyph glyph-name="Z" unicode="Z" horiz-adv-x="499" 
d="M429 12q0 -20 -20 -26l-385 -18q-24 -1 -24 24q0 6 3 11l293 440l-258 47q-23 4 -20 26q5 20 26 20l293 -55q18 -3 18 -21q0 -7 -4 -14l-284 -429l339 15q23 1 23 -20z" />
    <glyph glyph-name="a" unicode="a" horiz-adv-x="519" 
d="M480 49q-8 -3 -14 -3q-12 0 -16 15l-59 117h-282l-91 -145q-8 -13 -19 -13q-8 0 -17.5 7.5t-9.5 15.5q0 5 5 13l274 432q6 10 18 10q15 0 23 -13l199 -406q4 -6 4 -12q0 -11 -15 -18zM268 427l-129 -203h229z" />
    <glyph glyph-name="b" unicode="b" horiz-adv-x="380" 
d="M322 130l-292 -105q-4 -1 -8 -1q-22 0 -22 24v434q0 22 22 22q4 0 8 -2l262 -109q13 -5 13 -19q0 -12 -9 -19l-116 -84l148 -101q10 -7 10 -18q0 -17 -16 -22zM127 251q-9 6 -9 18q0 13 9 19l109 79l-191 80v-367l220 78z" />
    <glyph glyph-name="c" unicode="c" horiz-adv-x="442" 
d="M348 38q-23 0 -23 23v44q-53 -28 -111 -28q-85 0 -148 52q-66 56 -66 139q0 81 66 136q63 52 148 52q58 0 111 -28v32q0 23 23 23q24 0 24 -23v-74q0 -23 -24 -23q-9 0 -15 5q-50 44 -119 44q-66 0 -115 -40q-52 -43 -52 -104q0 -63 52 -105q49 -40 115 -40q70 0 119 42
q6 6 14 6q25 0 25 -24v-86q0 -23 -24 -23z" />
    <glyph glyph-name="d" unicode="d" horiz-adv-x="453" 
d="M35 51q-5 -3 -11 -3q-24 0 -24 23v406q0 23 24 23q6 0 11 -3l364 -193q12 -6 12 -18q0 -13 -12 -20zM47 439v-330l293 175z" />
    <glyph glyph-name="e" unicode="e" horiz-adv-x="396" 
d="M292 39l-257 111q-14 6 -14 21q0 11 8 17l121 82l-139 71q-11 6 -11 19t11 19l278 150q10 5 15 5q10 0 18 -13q4 -9 4 -14q0 -9 -13 -18l-240 -128l133 -68q12 -5 12 -19q0 -12 -9 -19l-118 -81l219 -94q15 -7 15 -17q0 -5 -3 -12q-7 -17 -17 -17q-6 0 -13 5z" />
    <glyph glyph-name="f" unicode="f" horiz-adv-x="386" 
d="M313 454h-266v-126h199q21 0 21 -23t-21 -23h-199v-229q0 -23 -23 -23q-24 0 -24 23v425q0 23 24 23h289q22 0 22 -23q0 -24 -22 -24z" />
    <glyph glyph-name="g" unicode="g" horiz-adv-x="470" 
d="M376 -59q-24 0 -24 24v118q-58 -32 -122 -32q-90 0 -158 58q-72 61 -72 149q0 89 72 149q68 57 158 57q70 0 122 -33v39q0 23 24 23t24 -23v-82q0 -23 -23 -23q-9 0 -16 6q-52 46 -131 46q-71 0 -127 -45t-56 -114t57 -117q54 -44 126 -44q71 0 122 43v68q0 23 24 23
t24 -23v-243q0 -24 -24 -24z" />
    <glyph glyph-name="h" unicode="h" horiz-adv-x="463" 
d="M369 51q-21 0 -21 23v186h-301v-213q0 -23 -23 -23q-24 0 -24 23v422q0 23 24 23q23 0 23 -23v-163h301v156q0 23 21 23q24 0 24 -23v-388q0 -23 -24 -23z" />
    <glyph glyph-name="i" unicode="i" horiz-adv-x="117" 
d="M24 57q-24 0 -24 23v359q0 23 24 23q23 0 23 -23v-359q0 -23 -23 -23z" />
    <glyph glyph-name="j" unicode="j" horiz-adv-x="465" 
d="M371 50h-347q-24 0 -24 23v192q0 23 24 23q23 0 23 -23v-169h301v327q0 23 23 23q24 0 24 -23v-350q0 -23 -24 -23z" />
    <glyph glyph-name="k" unicode="k" horiz-adv-x="425" 
d="M329 6q-6 0 -14 6l-270 199v-136q0 -23 -24 -23q-21 0 -21 23v362q0 23 21 23q24 0 24 -23v-143l268 181q9 6 16 6q9 0 16 -12q13 -15 0 -27l-5 -5l-273 -185l278 -202q10 -10 10 -17q0 -8 -9.5 -17.5t-16.5 -9.5z" />
    <glyph glyph-name="l" unicode="l" horiz-adv-x="421" 
d="M327 50h-303q-24 0 -24 23v402q0 23 24 23q23 0 23 -23v-379h280q24 0 24 -23t-24 -23z" />
    <glyph glyph-name="m" unicode="m" horiz-adv-x="648" 
d="M566 60q-8 -3 -13 -3q-13 0 -17 18l-115 299l-120 -178q-7 -10 -19 -10t-19 10l-115 164l-101 -376q-5 -18 -21 -18q-14 0 -22 7.5t-4 22.5l116 424q4 17 23 17q14 0 21 -11l121 -177l128 187q6 9 18 9q18 0 23 -15l128 -340q10 -21 -12 -30z" />
    <glyph glyph-name="n" unicode="n" horiz-adv-x="486" 
d="M378 117l-331 257v-349q0 -23 -23 -23q-24 0 -24 23v398q0 22 24 22q8 0 14 -5l331 -259v281q0 23 23 23q24 0 24 -23v-328q0 -22 -23 -22q-9 0 -15 5z" />
    <glyph glyph-name="o" unicode="o" horiz-adv-x="502" 
d="M216 38q-89 0 -152.5 62t-63.5 149t63.5 149t152.5 62q92 0 154 -60.5t62 -150.5q0 -87 -63.5 -149t-152.5 -62zM216 417q-69 0 -119 -49.5t-50 -118.5q0 -67 50 -116t119 -49q71 0 121 49t50 116q0 66 -51.5 117t-119.5 51z" />
    <glyph glyph-name="p" unicode="p" horiz-adv-x="347" 
d="M146 213h-99v-168q0 -23 -23 -23q-24 0 -24 23l2 437q0 7 7.5 13.5t16.5 6.5h120q62 0 104.5 -41.5t42.5 -101.5t-43 -103t-104 -43zM146 458h-99v-199h99q42 0 72 29.5t30 70.5q0 40 -30 69.5t-72 29.5z" />
    <glyph glyph-name="q" unicode="q" horiz-adv-x="502" 
d="M216 15q-23 0 -35 3l-60 -49l165 -63q14 -9 14 -19q0 -28 -21 -28q-6 0 -12 4l-199 80q-13 5 -13 21q0 11 7 17l66 52q-58 26 -93 79t-35 116q0 87 63.5 149.5t152.5 62.5q88 0 152 -63t64 -149q0 -88 -63.5 -150.5t-152.5 -62.5zM216 394q-69 0 -119 -49t-50 -117
q0 -70 49.5 -118t119.5 -48q71 0 120 48t49 118q0 68 -49.5 117t-119.5 49z" />
    <glyph glyph-name="r" unicode="r" horiz-adv-x="384" 
d="M302 76q-9 0 -16 12l-97 131q-21 -6 -45 -6h-99v-168q0 -23 -21 -23q-24 0 -24 23v437q0 7 8.5 13.5t17.5 6.5h118q62 0 105.5 -41.5t43.5 -101.5q0 -76 -63 -119l92 -126q8 -7 8 -15t-10 -15.5t-18 -7.5zM144 458h-99v-199h99q43 0 72.5 29.5t29.5 70.5t-29.5 70
t-72.5 29z" />
    <glyph glyph-name="s" unicode="s" horiz-adv-x="364" 
d="M294 494q-2 -3 -11 -12l-216 -140q64 -57 127 -114q53 -49 53 -69q0 -10 -11 -16l-199 -123q-8 -7 -14 -7q-9 0 -17 13q-6 9 -6 15q0 9 13 17l173 108l-172 161q-7 6 -7 16q0 14 10 19l239 160q10 5 16 5q9 0 17.5 -12.5t4.5 -20.5z" />
    <glyph glyph-name="t" unicode="t" horiz-adv-x="597" 
d="M504 420h-209v-386q0 -24 -23 -24q-24 0 -24 24v386h-224q-24 0 -24 24q0 23 24 23h480q23 0 23 -23q0 -24 -23 -24z" />
    <glyph glyph-name="u" unicode="u" horiz-adv-x="620" 
d="M550 397h-53v-158q0 -84 -65.5 -139.5t-152.5 -55.5t-151 54q-67 57 -67 141v158h-53q-24 0 -24 23t24 23h76q24 0 24 -23v-181q0 -65 53 -108q50 -41 118 -41q67 0 119 42t52 107v181q0 23 24 23h76q24 0 24 -23t-24 -23z" />
    <glyph glyph-name="v" unicode="v" horiz-adv-x="554" 
d="M276 51q-6 -11 -19 -11q-12 0 -19 11l-248 344q-6 7 -6 14q0 10 10 17t17 7q10 0 17 -13l227 -317l208 331q3 4 12 11q9 5 21.5 -3t12.5 -18q0 -5 -6 -13z" />
    <glyph glyph-name="w" unicode="w" horiz-adv-x="825" 
d="M547 51q-6 -11 -19 -11q-12 0 -19 11l-124 170l-107 -170q-7 -11 -20 -11t-21 11l-245 343q-8 8 -8 16t10 15.5t18 7.5q9 0 16 -13l227 -317l101 158l-95 133q-8 8 -8 15q0 10 13 17q9 7 16 7q8 0 17 -12l84 -117l81 130q9 13 18 13q6 0 15 -5q18 -12 10 -26q-2 -2 -4 -5
l-91 -147l114 -161l207 331q9 13 18 13q6 0 15 -5q13 -9 13 -18q0 -7 -7 -14z" />
    <glyph glyph-name="x" unicode="x" horiz-adv-x="455" 
d="M386 473q-47 -13 -98 -60q-69 -64 -106 -119l-3 -7l160 -206q8 -8 8 -15q0 -8 -9 -16t-18 -8q-8 0 -16 10l-151 195l-133 -199q-8 -12 -17 -12q-8 0 -17.5 7.5t-9.5 14.5q0 5 5 14l142 215l-118 149q-6 8 -6 14q0 8 9.5 16.5t17.5 8.5q6 0 17 -10l107 -138
q118 159 221 190q23 6 30 -18q5 -20 -15 -26z" />
    <glyph glyph-name="y" unicode="y" horiz-adv-x="525" 
d="M470 464q-3 -4 -14 -7q-107 -31 -189 -153v-249q0 -21 -23 -21q-24 0 -24 21v246q-2 3 -2 7q-81 133 -220 188q-14 10 -14 18q0 24 18 28q5 1 14 -3q147 -58 228 -186q86 115 198 148q22 6 29 -15q5 -14 -1 -22z" />
    <glyph glyph-name="z" unicode="z" horiz-adv-x="423" 
d="M333 39l-309 -14q-24 -1 -24 24q0 6 3 11l230 338l-198 35q-24 5 -21 27q5 19 20 20q-1 -1 7 -1l234 -43q19 -3 19 -21q0 -7 -4 -13l-222 -328l262 11q23 1 23 -21q0 -19 -20 -25z" />
    <glyph glyph-name="bar" unicode="|" 
d="M46 -8q0 -23 -23 -23t-23 20v556q0 23 23 23t23 -23v-553z" />
  </font>
</defs>
</svg>
