<?xml version="1.0" standalone="no"?>
<!DOCTYPE svg PUBLIC "-//W3C//DTD SVG 1.1//EN" "http://www.w3.org/Graphics/SVG/1.1/DTD/svg11.dtd" >
<svg xmlns="http://www.w3.org/2000/svg" xmlns:xlink="http://www.w3.org/1999/xlink" version="1.1">
<metadata>
Created by FontForge 20170731 at Fri Mar 23 16:39:30 2012
 By Aleksey,,,
Kingthings Hand Kevin King; Kingthings. 2002. All Rights Reserved.
</metadata>
<defs>
<font id="KingthingsHand" horiz-adv-x="1122" >
  <font-face 
    font-family="Kingthings Hand"
    font-weight="400"
    font-stretch="normal"
    units-per-em="2048"
    panose-1="2 0 0 0 0 0 0 0 0 0"
    ascent="1638"
    descent="-410"
    x-height="964"
    cap-height="1403.5"
    bbox="-238.293 -432.321 1880.12 1721.24"
    underline-thickness="48"
    underline-position="-236"
    unicode-range="U+0020-201D"
  />
<missing-glyph horiz-adv-x="500" 
d="M256 0v1280h1024v-1280h-1024zM288 32h960v1216h-960v-1216z" />
    <glyph glyph-name=".notdef" horiz-adv-x="500" 
d="M256 0v1280h1024v-1280h-1024zM288 32h960v1216h-960v-1216z" />
    <glyph glyph-name=".null" horiz-adv-x="0" 
 />
    <glyph glyph-name="nonmarkingreturn" horiz-adv-x="390" 
 />
    <glyph glyph-name="space" unicode=" " horiz-adv-x="632" 
 />
    <glyph glyph-name="exclam" unicode="!" horiz-adv-x="400" 
d="M349.5 144.5q-0.5 164.5 -147 164t-148 -159.5t147 -164t148 159.5zM347 510l-1 766q-20 123 -137 123t-139 -117v-773q16 -118 140 -116.5t137 117.5z" />
    <glyph glyph-name="quotedbl" unicode="&#x22;" horiz-adv-x="692" 
d="M718.5 1301q11.5 125 -96.5 148q-23 37 65 104q33 64 -26 81q-79 -9 -169 -86.5t-92.5 -197t56.5 -165.5t155 -27.5t107.5 143.5zM382.5 1301q11.5 125 -96.5 148q-23 37 65 104q33 64 -26 81q-79 -9 -169 -86.5t-92.5 -197t56.5 -165.5t155 -27.5t107.5 143.5z" />
    <glyph glyph-name="numbersign" unicode="#" horiz-adv-x="1234" 
d="M464 595h194l83 255h-184zM290 595l91 255h-176q-102 14 -91 108q16 93 128 81h176l59 230q20 75 74 75t76 -19t24 -50.5t-57 -235.5h185l70 234q18 71 83 74.5t85.5 -16.5t3.5 -95l-60 -197h170q75 0 75 -58q0 -133 -84 -129l-200 -2l-77 -255h178q66 -5 80.5 -45.5
t-9 -92t-104.5 -51.5h-183l-66 -255q-19 -78 -105 -78q-79 0 -84 73q64 248 64 260h-194q-19 -94 -72 -262q-22 -54 -67 -64.5t-82.5 6t-26.5 86.5l72 234h-118q-69 4 -87.5 46t5.5 96t95 47h149z" />
    <glyph glyph-name="dollar" unicode="$" horiz-adv-x="964" 
d="M424 214q-96 16 -146 84q-73 98 -160 88t-80 -124.5t205 -218.5q88 -47 182 -57v-163q6 -114 83 -110.5t79 108.5v174q37 7 75 21q222 77 259.5 277t-21.5 311t-159 162q-65 32 -155 55l-1 376q56 -21 88 -66q53 -75 136 -48t52 133.5t-231 169.5q-23 7 -45 12v105
q-3 111 -83.5 106.5t-79.5 -113.5v-94q-89 -15 -173 -70q-182 -117 -184 -319t142 -283q110 -62 217 -86v-430zM423 854q-110 32 -146 108q-45 94 28 179q48 56 118 71v-358zM685 559q61 -57 36 -198q-20 -113 -134 -142l-1 393q63 -19 99 -53z" />
    <glyph glyph-name="percent" unicode="%" horiz-adv-x="1236" 
d="M954 1291l-512 -1332q-53 -113 -133 -74.5t-35 156.5l502 1307q40 91 92 105.5t86.5 -29.5t-0.5 -133zM41 1140q-27 -257 54.5 -351.5t198.5 -95.5t201 93t58 354t-255.5 258.5t-256.5 -258.5zM427.5 1053q5.5 -218 -130 -220t-135 218t130 220t135 -218zM701 440
q-27 -257 54.5 -351.5t198.5 -95.5t201 93t58 354t-255.5 258.5t-256.5 -258.5zM1087.5 353q5.5 -218 -130 -220t-135 218t130 220t135 -218z" />
    <glyph glyph-name="ampersand" unicode="&#x26;" horiz-adv-x="1098" 
d="M527 1321q-240 2 -334 -105t-89.5 -279t206.5 -254q-239 -60 -277 -213.5t4 -268.5t159 -166t307 -43l1 -239q0 -134 140.5 -139.5t135.5 149.5l-2 235l233 -2q124 46 115 164t-133 134l-225 -2l1 228q173 -11 174 150.5t-181 159.5l-2 214h183q136 14 137 139t-127 139
h-203l1 264q3 141 -119 135t-105 -129v-271zM520 1048l1 -234q-171 -7 -165 120.5t164 113.5zM511 513l1 -220q-226 -15 -237 106t236 114z" />
    <glyph glyph-name="quotesingle" unicode="'" horiz-adv-x="371" 
d="M41.5 1485q-11.5 -125 96.5 -148q23 -37 -65 -104q-33 -64 26 -81q79 9 169 86.5t92.5 197t-56.5 165.5t-155 27.5t-107.5 -143.5z" />
    <glyph glyph-name="parenleft" unicode="(" horiz-adv-x="616" 
d="M26 671q-8 -390 260 -675q123 -123 210.5 -114.5t96 93.5t-65.5 146q-244 229 -245.5 546t217.5 517q118 82 106.5 161.5t-93.5 80.5t-198 -84q-280 -281 -288 -671z" />
    <glyph glyph-name="parenright" unicode=")" horiz-adv-x="610" 
d="M594 671q8 -390 -260 -675q-123 -123 -210.5 -114.5t-96 93.5t65.5 146q244 229 245.5 546t-217.5 517q-118 82 -106.5 161.5t93.5 80.5t198 -84q280 -281 288 -671z" />
    <glyph glyph-name="asterisk" unicode="*" horiz-adv-x="593" 
d="M244 1181q-96 133 -146.5 94t93.5 -149q-168 14 -163.5 -37.5t166.5 -40.5q-132 -113 -90.5 -150.5t144.5 94.5q-10 -200 50.5 -196.5t40.5 191.5q110 -132 143 -86t-95 151q183 -11 176 40.5t-189 33.5q134 97 101 139t-152 -86q5 196 -42.5 192t-36.5 -190z" />
    <glyph glyph-name="plus" unicode="+" horiz-adv-x="813" 
d="M682 758l-170 1v171q-1 118 -102.5 117t-103.5 -113v-173h-176q-101 -4 -101.5 -113t98.5 -113l178 -1v-183q-8 -119 102 -118.5t106 121.5l2 181l161 -1q109 7 114.5 107.5t-108.5 116.5z" />
    <glyph glyph-name="comma" unicode="," horiz-adv-x="427" 
d="M71.5 165q-11.5 -125 96.5 -148q23 -37 -65 -104q-33 -64 26 -81q79 9 169 86.5t92.5 197t-56.5 165.5t-155 27.5t-107.5 -143.5z" />
    <glyph glyph-name="hyphen" unicode="-" horiz-adv-x="805" 
d="M156 769q-99 -12 -117 -70.5t10.5 -104t83.5 -47.5h540q54 0 88.5 43.5t8.5 108t-126 70.5h-488z" />
    <glyph glyph-name="hyphen" unicode="&#x2010;" horiz-adv-x="805" 
d="M156 769q-99 -12 -117 -70.5t10.5 -104t83.5 -47.5h540q54 0 88.5 43.5t8.5 108t-126 70.5h-488z" />
    <glyph glyph-name="period" unicode="." horiz-adv-x="417" 
d="M379.5 144.5q-0.5 164.5 -157 164t-158 -159.5t157 -164t158 159.5z" />
    <glyph glyph-name="slash" unicode="/" horiz-adv-x="670" 
d="M693 1279l-479 -1497q-30 -104 -94.5 -114t-96.5 33.5t0 161.5l480 1481q35 118 99.5 128t100.5 -37t-10 -156z" />
    <glyph glyph-name="zero" unicode="0" horiz-adv-x="1158" 
d="M68 882.5q-54 -512.5 109 -701t395.5 -190t400 185t116.5 705.5t-509 516t-512 -515.5zM839 709q11 -435 -259 -439t-269 434.5t259 439t269 -434.5z" />
    <glyph glyph-name="one" unicode="1" horiz-adv-x="563" 
d="M62 1143q-61 -59 -14 -136.5t124 -50.5l66 45v-883q-8 -129 127.5 -129.5t130.5 129.5v1162q5 86 -56 113t-128 -36z" />
    <glyph glyph-name="two" unicode="2" horiz-adv-x="1032" 
d="M96 1148q-49 -132 8 -190t125 -41.5t96.5 107t136 134.5t195.5 -60t-69 -253l-549 -598q-59 -88 -16 -170t153 -78h692q134 3 133 135t-138 134l-451 -1l359 423q111 135 147 233.5t10 210t-122 182t-207 93t-246 -23.5t-257 -237z" />
    <glyph glyph-name="three" unicode="3" horiz-adv-x="1005" 
d="M139 1397q-101 -11 -93.5 -136t129.5 -116h391l-338 -316q-69 -76 -6.5 -151.5t145.5 -21.5q130 73 235.5 30t132 -133.5t-27.5 -196t-208.5 -116.5t-260.5 153q-90 93 -161.5 36t-42.5 -168q75 -163 244 -232t340 -20t288 206t75 398t-340 312l265 260
q38 102 -0.5 161.5t-129.5 50.5h-637z" />
    <glyph glyph-name="four" unicode="4" horiz-adv-x="1142" 
d="M395 1320l-371 -801q-28 -69 -13 -112.5t86 -65.5h454l1 -246q32 -110 130.5 -107t130.5 96l2 262h203q108 11 105.5 137.5t-105.5 127.5l-212 -1l1 257q12 116 -120 118t-131 -122l-2 -254l-230 2l306 612q55 145 -67 192.5t-168 -95.5z" />
    <glyph glyph-name="five" unicode="5" horiz-adv-x="1040" 
d="M269 1399q-94 -11 -135 -121l-64 -569l176 -75q110 90 298 69.5t202.5 -211.5t-183.5 -233t-348 174q-114 59 -182 -32t16 -191q120 -157 286.5 -197t293.5 -14.5t218 104.5t136 198.5t25 258t-95 233.5t-204 139t-375 -8l21 204l405 -1q127 3 131.5 137.5t-132.5 133.5z
" />
    <glyph glyph-name="six" unicode="6" horiz-adv-x="1072" 
d="M549 1369q-227 -96 -342.5 -257t-155.5 -350t-19 -368.5t151.5 -284.5t313 -118.5t325.5 62t202 229t21.5 297.5t-144 234t-284 99.5t-289.5 -88.5q48 125 132 201t227 124q131 28 147.5 113t-60.5 127.5t-225 -20.5zM779.5 550q54.5 -110 -8 -207.5t-224 -95t-213.5 100
t-1 211.5t221.5 107.5t225 -116.5z" />
    <glyph glyph-name="seven" unicode="7" horiz-adv-x="888" 
d="M25 1265q2 -134 111 -132h442q-74 -153 -108 -251t-55 -172t-53 -227.5t-48 -321.5q-22 -155 118.5 -170.5t158.5 122.5q17 205 41 356.5t80 332t166 442.5q11 65 -8 107.5t-87 48.5h-618q-142 -1 -140 -135z" />
    <glyph glyph-name="eight" unicode="8" horiz-adv-x="1062" 
d="M191 1297q-105 -120 -94 -288t107 -236q-178 -116 -176 -337t124.5 -327.5t361.5 -111.5t373 97.5t139.5 345t-199.5 333.5q92 109 104.5 254.5t-87 265.5t-324 122t-329.5 -118zM717 1042q10 -136 -202.5 -139.5t-207 137t202.5 139.5t207 -137zM758 534.5
q63 -102.5 12 -201.5t-240.5 -101.5t-242.5 100t-1.5 205.5t230.5 101.5t242 -104z" />
    <glyph glyph-name="nine" unicode="9" horiz-adv-x="1116" 
d="M527 10q246 77 393.5 267t171 371.5t-6.5 356.5t-160.5 280t-313 118.5t-325.5 -62t-202 -229t-21.5 -297.5t144 -234t305.5 -95t314 108q-37 -125 -144.5 -213t-280.5 -136q-131 -28 -147.5 -113t60.5 -127.5t213 5.5zM328.5 844q-54.5 110 8 207.5t224 95t213.5 -100
t1 -211.5t-221.5 -107.5t-225 116.5z" />
    <glyph glyph-name="colon" unicode=":" horiz-adv-x="404" 
d="M359.5 144.5q-0.5 164.5 -157 164t-158 -159.5t157 -164t158 159.5zM359.5 614.5q-0.5 164.5 -157 164t-158 -159.5t157 -164t158 159.5z" />
    <glyph glyph-name="semicolon" unicode=";" horiz-adv-x="399" 
d="M46.5 148q-11.5 -125 96.5 -148q23 -37 -65 -104q-33 -64 26 -81q79 9 169 86.5t92.5 197t-56.5 165.5t-155 27.5t-107.5 -143.5zM359.5 614.5q-0.5 164.5 -157 164t-158 -159.5t157 -164t158 159.5z" />
    <glyph glyph-name="less" unicode="&#x3c;" horiz-adv-x="572" 
d="M483 939.5q53 -15.5 61.5 -66.5t-54.5 -115l-227 -247l241 -268q46 -49 41 -97t-52 -72.5t-121 25.5l-298 331q-48 46 -46.5 82t29.5 57l305 313q68 73 121 57.5z" />
    <glyph glyph-name="equal" unicode="=" horiz-adv-x="870" 
d="M132 630q-87 -2 -102.5 -61t8 -93t71.5 -38l680 -1q54 1 76.5 42t8.5 93t-114 58h-628zM127 887q-87 -2 -103 -61.5t8 -93t72 -37.5l680 -1q54 1 76.5 42t8.5 93t-114 58h-628z" />
    <glyph glyph-name="greater" unicode="&#x3e;" horiz-adv-x="583" 
d="M97 939.5q-53 -15.5 -61.5 -66.5t54.5 -115l227 -247l-241 -268q-46 -49 -41 -97t52 -72.5t121 25.5l291 314q46 48 52.5 80.5t-28.5 75.5l-305 313q-68 73 -121 57.5z" />
    <glyph glyph-name="question" unicode="?" horiz-adv-x="856" 
d="M470 1391.5q182 -13.5 287 -123.5t67.5 -358t-290.5 -281l-3 -172q-11 -115 -78 -141.5t-142 8.5t-68 130l-1 228q-5 133 138 145q126 -3 176 49t39.5 136t-92.5 117t-161.5 13.5t-124 -73.5t-122 -32t-73 111.5t135 173t312.5 70zM244.5 164.5q-29.5 -72.5 4 -138.5
t133 -66.5t133 65.5t4.5 136.5t-137 73t-137.5 -70z" />
    <glyph glyph-name="at" unicode="@" horiz-adv-x="1483" 
d="M732.5 1291q-133.5 -15 -285 -79t-271.5 -217.5t-148 -367t-0.5 -372.5t162.5 -311t420 -174t335.5 80.5t-6.5 160t-135 18t-193.5 -20.5t-224.5 88.5t-151.5 292t69.5 411t351 256.5t429.5 -55.5t194 -330t-76.5 -269.5t-141 -38.5t-66 153t1 392.5q-127 9 -262.5 4
t-251 -130.5t-99 -322t181 -271.5t318.5 73q155 -177 308 -97t220 205.5t63 344.5t-140.5 369t-302 186.5t-299 21.5zM810 726l-3 -299q-51 -84 -139 -73t-106.5 130.5t50 193.5t198.5 48z" />
    <glyph glyph-name="A" unicode="A" horiz-adv-x="1276" 
d="M409.5 947.5q-122.5 -203.5 -108 -541.5t190.5 -441t414 -100q179 -6 167 -145.5t-194 -134.5q-415 -2 -625.5 201t-224 494t31.5 511t218.5 404t499.5 207l243 1q210 17 213.5 -127.5t-128.5 -138.5v-228h69q111 5 111 -118t-111 -120l-74 -3v-563
q-17 -110 -130.5 -113.5t-124.5 115.5v563h-295q-109 15 -115 116.5t99 124.5h314l2 233q-320 7 -442.5 -196.5z" />
    <glyph glyph-name="B" unicode="B" horiz-adv-x="1156" 
d="M22.5 1262.5q-7.5 -131.5 151.5 -126.5l2 -861q-176 -22 -160.5 -160t198.5 -120h485q250 25 356.5 173t73.5 380.5t-260 288.5q153 158 57 351.5t-296 205.5l-431 2q-169 -2 -176.5 -133.5zM719 1013.5q-10 -119.5 -105 -146.5l-183 3l-1 269h145q154 -6 144 -125.5z
M886.5 551q36.5 -109 -18.5 -189.5t-174 -80.5h-252l2 373l216 3q190 3 226.5 -106z" />
    <glyph glyph-name="C" unicode="C" horiz-adv-x="1024" 
d="M445 1377.5q-142 -32.5 -261.5 -159t-148 -364.5t23.5 -439t179 -303.5t308 -115.5t282.5 43t144 118.5t-6.5 147t-174.5 20t-250 -37t-184.5 111t-65 282t54.5 315t202 132t200 -30t123 -26.5t75.5 120.5t-85 152.5t-185 58.5t-232 -25z" />
    <glyph glyph-name="D" unicode="D" horiz-adv-x="1215" 
d="M30.5 1273.5q2.5 -138.5 166.5 -153.5l-2 -865q-157 -2 -158.5 -133.5t180.5 -126.5l378 2q260 -8 395.5 126t182.5 311t22 394.5t-185 394t-433 180.5l-323 -2q-226 11 -223.5 -127.5zM907.5 884.5q77.5 -227.5 6 -422t-234.5 -200.5h-211l-1 857l175 -1
q188 -6 265.5 -233.5z" />
    <glyph glyph-name="E" unicode="E" horiz-adv-x="1095" 
d="M122 1152.5q-112 -219.5 82 -410.5q-203 -166 -160 -381.5t194.5 -291.5t357.5 -68.5t326.5 78t142.5 169t-50.5 141.5t-147 -16t-164.5 -84.5t-227.5 -11t-162.5 114.5t27 165.5t211 54.5t213 17.5t50.5 127.5t-111 101.5t-236.5 4t-130.5 136t139.5 147t273.5 -47.5
t179.5 55.5t-92.5 190.5t-371 51.5t-343.5 -243z" />
    <glyph glyph-name="F" unicode="F" 
d="M155 1396q-144 -11 -147.5 -134t150.5 -134h544l-1 -203l-205 -2q-148 -5 -149.5 -129.5t138.5 -128.5l216 3l-1 -290q-13 -118 -175 -137.5t-290 116.5q-73 54 -132.5 -2t-31.5 -155q195 -262 527 -198.5t341 352.5l1 315q143 7 139.5 127.5t-133.5 126.5l2 201l95 2
q132 -2 130 131t-126 138z" />
    <glyph glyph-name="G" unicode="G" horiz-adv-x="1101" 
d="M456 1378.5q-113 -36.5 -247.5 -163.5t-169 -376t25 -436t200 -292.5t298.5 -115.5t249 47q-3 -116 72 -210q94 -107 194.5 -51t49.5 161q-66 60 -68 150v560q25 169 -142 161h-434q-117 -11 -112.5 -127t106.5 -121l332 -2l-2 -283q-188 -49 -282.5 -12.5t-168.5 121.5
t-82 292t81.5 317.5t232 126t200 -30.5t123 -27t75.5 121t-85 153t-214 62.5t-232 -25z" />
    <glyph glyph-name="H" unicode="H" horiz-adv-x="1113" 
d="M847 1289l2 -415l-409 1v410q-1 110 -120.5 109t-121.5 -106v-411h-95q-94 -4 -94.5 -136t92.5 -136l96 -1v-511q2 -111 125 -105.5t119 108.5l2 509l415 -1v-512q-5 -109 114.5 -106.5t125.5 102.5l-1 1209q4 97 -123 96.5t-127 -104.5z" />
    <glyph glyph-name="I" unicode="I" horiz-adv-x="615" 
d="M180.5 1403q-136.5 -3 -139.5 -141t141 -135v-870l-66 1q-113 -30 -104.5 -147t110.5 -110l370 1q111 0 116.5 124.5t-100.5 132.5h-72l1 870q154 -11 155.5 130.5t-137 144t-275 -0.5z" />
    <glyph glyph-name="J" unicode="J" horiz-adv-x="1085" 
d="M155 1387q-126 2 -126 -126t131 -128h425l1 -674q-14 -211 -122 -226t-160 28.5t-119 70t-125 -34.5t1 -154.5t251.5 -136t353 41t187.5 321.5l-2 768l157 -1q137 12 141 129.5t-140 120.5z" />
    <glyph glyph-name="K" unicode="K" horiz-adv-x="1013" 
d="M34 1304l-1 -1214q0 -104 129 -104t131 105v523q138 6 221 -50t129 -306t116 -383t146.5 -182t128.5 -62t132 5t89 98t-65 104t-147.5 114t-132.5 412.5t-345 401.5l353 455q48 124 -61 169.5t-182 -61.5l-309 -414l-69 -63l1 457q-7 99 -133.5 98.5t-130.5 -103.5z" />
    <glyph glyph-name="L" unicode="L" horiz-adv-x="874" 
d="M19 1287v-1153q3 -129 94 -132l650 -1q103 6 105 146t-105 139l-470 1v1001q0 107 -131.5 109.5t-142.5 -110.5z" />
    <glyph glyph-name="M" unicode="M" horiz-adv-x="1585" 
d="M60 1311l3 -1206q4 -119 143.5 -115t139.5 98l1 972q14 108 152.5 107t164.5 -105l-3 -968q16 -108 140.5 -106t142.5 116l-4 961q25 113 157 113t156 -103l-3 -965q22 -120 142.5 -118t131.5 124l-2 957q-20 282 -264 323.5t-414 -109.5q-72 113 -238 118.5t-260 -84.5
q-14 86 -139.5 84.5t-146.5 -94.5z" />
    <glyph glyph-name="N" unicode="N" horiz-adv-x="1180" 
d="M55 1324l3 -1215q1 -129 147 -130t146 131l-1 806q65 206 268 215t250 -299.5t-89.5 -566t-136 -401.5t53.5 -201.5t113.5 -64t101.5 38t9 160t46.5 246.5t138 313t48.5 463t-155 427t-338.5 151t-318.5 -163l-1 93q-14 99 -139 99.5t-146 -102.5z" />
    <glyph glyph-name="O" unicode="O" horiz-adv-x="1268" 
d="M48 882.5q-54 -512.5 143 -706.5t445 -192t453 197.5t147 707.5t-596 509t-592 -515.5zM979 724q11 -420 -339 -424t-349 419.5t339 424t349 -419.5z" />
    <glyph glyph-name="P" unicode="P" horiz-adv-x="1114" 
d="M158 111v1028l-62 -1q-129 2 -134 117t142 135l302 -1q193 15 356.5 -9.5t278.5 -228t29.5 -451.5t-298.5 -290.5t-353 40.5l-2 -338q-19 -111 -136 -109.5t-123 108.5zM707 647q128 44 146 157.5t-18.5 206.5t-164.5 122.5t-251 16.5v-463q160 -84 288 -40z" />
    <glyph glyph-name="Q" unicode="Q" horiz-adv-x="1251" 
d="M35 875.5q-61 -505.5 136 -699.5t561 -153l95 -227q72 -119 178 -63.5t44 186.5l-81 190q299 203 244.5 747.5t-585.5 534.5t-592 -515.5zM952 763q25 -366 -103 -412l-43 101l-51 140q-67 103 -161 63.5t-66 -154.5l97 -215q-337 22 -334.5 427.5t319.5 410.5t342 -361z
" />
    <glyph glyph-name="R" unicode="R" horiz-adv-x="1092" 
d="M33 1122l84 1v-1028q4 -104 127.5 -104.5t142.5 98.5v434q216 5 285 -101.5t185 -379.5t178.5 -339t131 -77t116 21t55 102.5t-62 110t-111 105.5t-232.5 490q-68 177 -174 197q121 43 192 232t-52.5 375t-585.5 129l-283 2q-105 -1 -102 -135t106 -133zM710 961.5
q-8 -200.5 -332 -164.5l-1 327q341 38 333 -162.5z" />
    <glyph glyph-name="S" unicode="S" horiz-adv-x="995" 
d="M248.5 1332q-181.5 -117 -186.5 -324t184.5 -286.5t314.5 -134.5t118.5 -181.5t-162 -141.5t-247.5 96t-193 66.5t-71.5 -170t245.5 -217.5t430.5 -10t265.5 294t-35 319.5t-197 156.5t-241 98t-149 118.5t34.5 113.5t132.5 43t182.5 -62t182.5 -9.5t47.5 141.5
t-253 148.5t-403 -58.5z" />
    <glyph glyph-name="T" unicode="T" 
d="M912 1398q112 -1 138.5 -49t22.5 -140l-1 -552q7 -120 -23 -240t-167.5 -256t-384 -160.5t-469.5 200.5q-78 128 -8.5 205.5t178.5 10.5q71 -87 230 -119t264.5 63t107.5 338v431l-602 -3q-130 10 -127.5 133.5t125.5 136.5z" />
    <glyph glyph-name="U" unicode="U" horiz-adv-x="1247" 
d="M1194 4.5q34 29.5 40.5 91t-41 94.5t-43.5 106v985q-5 129 -151 130t-146 -131l1 -806q-65 -206 -264.5 -209.5t-238 179t21.5 372t49 337t-71.5 212.5t-154.5 27t-62 -161t12 -237.5t-62.5 -239t-45.5 -306t129.5 -316t327 -139.5t368.5 163q86 -172 191.5 -176.5
t139.5 25z" />
    <glyph glyph-name="V" unicode="V" horiz-adv-x="1194" 
d="M496.5 1331q-2.5 -105 69.5 -130.5t177 47t176 -33.5t-108 -355l-231 -326l-321 811q-83 96 -181 38t-36 -200l452 -1138q57 -86 143.5 -39.5t70.5 122.5q-26 65 32 192l407 601q82 185 46.5 348t-199.5 237.5t-329.5 2.5t-168 -177z" />
    <glyph glyph-name="W" unicode="W" horiz-adv-x="1725" 
d="M20 1190l423 -1091q46 -140 178.5 -103t91.5 194l-434 1110q-71 148 -196 97.5t-63 -207.5zM944 1341q4 -95 98 -112t192.5 45.5t191.5 -62t-123 -386.5l-251 -320l-323 788q-91 146 -220 93t-61 -205l475 -1118q61 -109 171.5 -69.5t94.5 132.5q-28 65 26 202l394 545
q124 185 79.5 372.5t-215 260.5t-352 1t-177.5 -167z" />
    <glyph glyph-name="X" unicode="X" horiz-adv-x="997" 
d="M494 945l-236 377q-96 122 -186.5 49.5t-24.5 -195.5l275 -421l-280 -543q-64 -148 46.5 -201t203.5 77l210 429l245 -435q89 -137 183 -61t41 179l-311 566l254 426q71 137 -35.5 190.5t-177.5 -59.5z" />
    <glyph glyph-name="Y" unicode="Y" horiz-adv-x="1070" 
d="M395.5 1369q58.5 -121 181.5 -33.5t229 -13.5t-145 -342l-99 -88l-319 459q-93 104 -186 30t-31 -192l385 -557l1 -533q-7 -105 130 -107.5t141 110.5l-3 538l331 381q96 131 53.5 317t-206.5 260t-342.5 -17t-120 -212z" />
    <glyph glyph-name="Z" unicode="Z" horiz-adv-x="1059" 
d="M82.5 1329.5q-49.5 -75.5 0 -153t171.5 -69.5h387l-548 -734q-102 -153 -51.5 -269t198.5 -106q283 72 390 -149t428 -211q251 14 242.5 156t-203.5 124q-213 -14 -289 192t-416 184l536 752q92 120 107.5 193t-37.5 121t-136 41h-598q-132 4 -181.5 -71.5z" />
    <glyph glyph-name="bracketleft" unicode="[" horiz-adv-x="460" 
d="M298 1618l-190 2q-75 -26 -72 -113v-1830q-1 -100 96 -97l200 1q111 0 116.5 99.5t-100.5 107.5h-91l1 1610l59 1q105 -7 111 103.5t-130 115.5z" />
    <glyph glyph-name="backslash" unicode="\" horiz-adv-x="608" 
d="M-9 1279l479 -1497q30 -104 94.5 -114t96.5 33.5t0 161.5l-480 1481q-35 118 -99.5 128t-100.5 -37t10 -156z" />
    <glyph glyph-name="bracketright" unicode="]" horiz-adv-x="470" 
d="M166 1618l190 2q75 -26 72 -113v-1830q1 -100 -96 -97l-200 1q-111 0 -116.5 99.5t100.5 107.5h91l-1 1610l-59 1q-105 -7 -111 103.5t130 115.5z" />
    <glyph glyph-name="underscore" unicode="_" horiz-adv-x="792" 
d="M16 -301q-68 2 -86.5 -34.5t6 -66t87.5 -25.5h760q44 -3 68 25.5t5 65.5t-71 35h-769z" />
    <glyph glyph-name="a" unicode="a" horiz-adv-x="998" 
d="M87 751q41 -112 157.5 -53t291.5 53t142 -165q-221 100 -418.5 32.5t-220.5 -243t63 -275.5t303.5 -105.5t264.5 71.5q11 -85 140 -77t123 128l4 586q-13 140 -130.5 228.5t-311 74.5t-321.5 -78.5t-87 -176.5zM673 393v-131q-234 -101 -336 -17.5t-6.5 163.5t342.5 -15z
" />
    <glyph glyph-name="b" unicode="b" horiz-adv-x="1059" 
d="M66 1332l-2 -1268q18 -68 120.5 -74.5t138.5 67.5q64 -86 288.5 -64t343 261.5t28.5 472.5t-303 277t-353 -42l-2 379q-34 70 -133 67t-126 -76zM621 749.5q128 -45.5 146 -162.5t-18.5 -212.5t-166 -130.5t-244.5 70v394q155 87 283 41.5z" />
    <glyph glyph-name="c" unicode="c" horiz-adv-x="859" 
d="M702 50q-128 -80 -339.5 -28t-293.5 244.5t-6.5 427.5t298.5 299t363 -22q128 -57 97 -166t-142 -104q-192 85 -294 21.5t-107.5 -196.5t104.5 -202.5t274 16.5q143 48 180.5 -85t-134.5 -205z" />
    <glyph glyph-name="d" unicode="d" horiz-adv-x="1041" 
d="M1001 1322l2 -1258q-18 -68 -120.5 -74.5t-138.5 67.5q-64 -86 -305.5 -64t-338.5 239.5t-11.5 472.5t298.5 299t353 -42l2 359q24 90 136 88t123 -87zM452 759.5q-128 -45.5 -146 -162.5t18.5 -212.5t166 -130.5t244.5 70v394q-155 87 -283 41.5z" />
    <glyph glyph-name="e" unicode="e" horiz-adv-x="961" 
d="M419 -3q-234 45 -329.5 249.5t-14.5 444t320 304t403 -8t122 -190t-157 -66.5q-140 83 -285.5 51t-163.5 -149l351 1q92 -23 91 -113.5t-94 -125.5h-351q31 -112 168.5 -155.5t282.5 61.5q155 59 184 -59.5t-132 -203.5t-395 -40z" />
    <glyph glyph-name="f" unicode="f" horiz-adv-x="725" 
d="M144 904l-60 2q-100 -14 -98.5 -125.5t85.5 -127.5l86 1l3 -525q-5 -150 141.5 -147.5t127.5 155.5l-1 516l143 8q94 -9 102 118.5t-117 129.5h-148q-55 140 -20.5 219t175.5 15q123 -69 159 32t-33 166t-203.5 73.5t-264 -115t-77.5 -395.5z" />
    <glyph glyph-name="g" unicode="g" horiz-adv-x="1036" 
d="M552 -420q209 -1 320 91.5t115 286.5l-4 964q-18 68 -120.5 74.5t-138.5 -67.5q-64 86 -288.5 64t-343 -261.5t-28.5 -472.5t303 -277t353 42l-1 -104q-15 -72 -111.5 -92t-282.5 52q-125 41 -169 -45.5t37 -170.5q150 -83 359 -84zM432 226.5q-128 45.5 -146 162.5
t18.5 212.5t166 130.5t244.5 -70v-394q-155 -87 -283 -41.5z" />
    <glyph glyph-name="h" unicode="h" horiz-adv-x="1076" 
d="M82 1318l3 -1216q4 -116 138 -112t134 96l1 559q13 106 196.5 113.5t209 -131t-51.5 -280t-103.5 -312.5t49.5 -311t176 -143.5t124.5 78t-64 197t39 357t107.5 409.5t-107.5 272t-247 119t-329.5 -113l1 420q-14 92 -139.5 93.5t-136.5 -95.5z" />
    <glyph glyph-name="i" unicode="i" horiz-adv-x="429" 
d="M82 904v-796q20 -123 137 -123t139 117v803q-16 118 -140 116.5t-136 -117.5zM78.5 1246.5q0.5 -164.5 147 -164t148 159.5t-147 164t-148 -159.5z" />
    <glyph glyph-name="j" unicode="j" horiz-adv-x="611" 
d="M142 1002q-109 -23 -105.5 -143.5t123.5 -140.5l112 -3l5 -532q-6 -123 -114 -132.5t-150.5 -80.5t-18 -136t115.5 -82.5t263.5 67.5t178.5 287l-2 723q15 183 -90 172zM248.5 1246.5q0.5 -164.5 147 -164t148 159.5t-147 164t-148 -159.5z" />
    <glyph glyph-name="k" unicode="k" horiz-adv-x="1007" 
d="M59 1272l1 -1180q11 -110 130 -112t139 103l1 179q103 56 278 -171l308 -417q134 -98 226.5 9t-37.5 215q-234 254 -403 509q148 36 193 178.5t-21 266t-224 152t-320 -53.5l-1 325q-17 127 -137.5 121.5t-132.5 -124.5zM650.5 639.5q-7.5 -105.5 -122.5 -113.5t-191 4
l-1 173q87 85 204.5 63.5t110 -127z" />
    <glyph glyph-name="l" unicode="l" horiz-adv-x="448" 
d="M85 1291l1 -1183q20 -123 137 -123t139 117v1190q-16 118 -140 116.5t-137 -117.5z" />
    <glyph glyph-name="m" unicode="m" horiz-adv-x="1498" 
d="M49 911l3 -806q4 -119 138 -115t134 98l1 572q13 108 146 107t158 -105l-3 -568q16 -108 135.5 -106t136.5 116l-4 561q24 113 150.5 113t149.5 -103l-2 -565q21 -120 136.5 -118t126.5 124l-2 557q-20 282 -254 323.5t-397 -109.5q-69 113 -228.5 118.5t-249.5 -84.5
q-13 86 -133.5 84.5t-141.5 -94.5z" />
    <glyph glyph-name="n" unicode="n" horiz-adv-x="1022" 
d="M52 890l3 -788q4 -116 138 -112t134 96l1 559q13 106 175.5 105t216.5 -123t-55.5 -377.5t-81 -412t148 -147.5t105.5 156.5t80 377.5t74 398t-107.5 262t-247 99t-309.5 -83q-13 84 -133.5 82.5t-141.5 -92.5z" />
    <glyph glyph-name="o" unicode="o" horiz-adv-x="981" 
d="M45.5 631q-40.5 -369 107.5 -508.5t334 -138t340 142t110.5 509t-447.5 366.5t-444.5 -371zM701.5 522.5q10.5 -260.5 -210.5 -268t-219 256.5t210.5 268t219 -256.5z" />
    <glyph glyph-name="p" unicode="p" horiz-adv-x="1048" 
d="M68 -296l-2 1238q18 88 120.5 89.5t138.5 -82.5q64 96 305.5 74t338.5 -239.5t11.5 -472.5t-298.5 -299t-353 42l-2 -349q-19 -114 -136 -112.5t-123 111.5zM617 256.5q128 45.5 146 162.5t-18.5 212.5t-166 130.5t-244.5 -70v-394q155 -87 283 -41.5z" />
    <glyph glyph-name="q" unicode="q" horiz-adv-x="1044" 
d="M990 -296v1248q-16 68 -118.5 74.5t-138.5 -67.5q-64 86 -305.5 64t-338.5 -239.5t-28 -469.5t298.5 -299t369.5 39l2 -359q34 -80 133 -77t126 86zM447 263.5q-122 42.5 -146 162.5t6.5 221.5t166 130.5t250.5 -76v-394q-155 -87 -277 -44.5z" />
    <glyph glyph-name="r" unicode="r" horiz-adv-x="1024" 
d="M77 932v-835q4 -101 127.5 -101.5t142.5 75.5v189q174 27 273 -88.5t232 -285.5l88 -124q108 -125 176.5 -136t116 20t50 99.5t-43 105t-172.5 167.5l-150 173q-93 144 -184 182q106 23 156 108q121 244 -17 424.5t-541 58.5q-14 62 -141 58t-113 -90zM683 651
q5 -197 -345 -141l-1 253q341 85 346 -112z" />
    <glyph glyph-name="s" unicode="s" horiz-adv-x="903" 
d="M239.5 977q-168.5 -86 -173 -249.5t132.5 -235.5t288.5 -91.5t145.5 -92.5t-115.5 -83t-222 59.5t-196.5 39t-71 -130.5t248.5 -171t399.5 -7t211.5 227t-31 249.5t-173.5 115t-198 40t-132 69t36.5 83.5t163.5 -13t174 -33t93 103.5t-197.5 152t-383 -31.5z" />
    <glyph glyph-name="t" unicode="t" horiz-adv-x="922" 
d="M196 1290l1 -291h-95q-112 -24 -113 -131.5t112 -140.5h84v-348q-1 -257 170.5 -338t325 -31t203.5 139.5t-26 152.5t-140.5 5.5t-169 -31.5t-112.5 155l1 292h273q121 3 123 130.5t-116 150.5h-271l1 264q24 169 -112.5 173.5t-138.5 -151.5z" />
    <glyph glyph-name="u" unicode="u" horiz-adv-x="1027" 
d="M974 86l-3 806q-4 119 -138 115t-134 -98l-1 -572q-13 -109 -182.5 -119t-211.5 126t-14.5 277.5t63.5 245t-71 133t-159 -92t-79 -267t-8 -299t106.5 -249t247 -101t309.5 84.5q13 -86 133.5 -84.5t141.5 94.5z" />
    <glyph glyph-name="v" unicode="v" horiz-adv-x="989" 
d="M301 1098.5q73 -119.5 194.5 -20t222.5 24t-52 -318.5l-201 -356l-242 548q-93 69 -186 -5t-31 -185l372 -772q77 -70 192 5q16 132 54 209l307 556q98 160 64.5 321t-197.5 230t-367 -24t-130 -212.5z" />
    <glyph glyph-name="w" unicode="w" horiz-adv-x="1376" 
d="M-7 777l356 -731q77 -96 183.5 -38.5t44.5 175.5l-356 744q-68 106 -177.5 55.5t-50.5 -205.5zM681 1098.5q73 -119.5 194.5 -20t222.5 24t-52 -318.5l-201 -356l-242 548q-93 69 -186 -5t-31 -185l372 -772q77 -70 192 5q16 132 54 209l307 556q98 160 64.5 321
t-197.5 230t-367 -24t-130 -212.5z" />
    <glyph glyph-name="x" unicode="x" horiz-adv-x="987" 
d="M487 691l-247 273q-94 66 -163 -16.5t3 -182.5l217 -236l-252 -331q-63 -136 39 -186.5t178 36.5l224 309l259 -326q88 -80 178 -6.5t6 179.5l-254 329l222 258q62 105 -14.5 173t-170.5 0z" />
    <glyph glyph-name="y" unicode="y" horiz-adv-x="1012" 
d="M856 -330q94 92 100 218l-3 1006q-4 116 -138 112t-134 -96l-1 -549q-13 -106 -165.5 -105t-202.5 116t19.5 291.5t54 257t-129.5 78.5t-111.5 -96t-62.5 -222.5t-45 -296.5t107.5 -272t237 -119t299.5 63v-89q17 -137 -138 -142.5t-247 75.5q-134 61 -182 -56.5
t91 -183.5q107 -84 332 -83t319 93z" />
    <glyph glyph-name="z" unicode="z" horiz-adv-x="956" 
d="M145 996q-121 -11 -113.5 -136t149.5 -116l321 1l-198 -257q-69 -76 -16.5 -151.5t135.5 -42.5q71 38 160 -6t100.5 -162t-63 -195.5t-257.5 -94.5t-365 50q-119 111 -194 41.5t-17 -173.5q108 -126 289 -155.5t383.5 0.5t339.5 198t127 410.5t-299 328.5l195 248
q38 102 -0.5 161.5t-129.5 50.5h-547z" />
    <glyph glyph-name="braceleft" unicode="{" horiz-adv-x="561" 
d="M159 1181v-384q-13 -102 -124 -178q99 -132 103 -225l-1 -396q16 -193 165 -249t206.5 -5t30.5 108t-106.5 60t-85.5 135v388q16 123 -84 174q116 43 102 228l-2 347q5 110 98 124q84 31 58.5 118.5t-182.5 34.5q-159 -87 -178 -280z" />
    <glyph glyph-name="braceright" unicode="}" horiz-adv-x="533" 
d="M403 1181v-384q13 -102 124 -178q-99 -132 -103 -225l1 -396q-16 -193 -165 -249t-206.5 -5t-30.5 108t106.5 60t85.5 135v388q-16 123 84 174q-116 43 -102 228l2 347q-5 110 -98 124q-84 31 -58.5 118.5t182.5 34.5q159 -87 178 -280z" />
    <glyph glyph-name="sterling" unicode="&#xa3;" horiz-adv-x="1154" 
d="M955 -12q144 11 147.5 134t-150.5 134h-434l1 203l165 2q148 5 149.5 129.5t-138.5 128.5l-176 -3l1 290q13 118 155 137.5t270 -116.5q73 -54 132.5 2t31.5 155q-195 262 -507 198.5t-321 -352.5l-1 -315q-143 -7 -139.5 -127.5t133.5 -126.5l-2 -201l-95 -2
q-132 2 -130 -131t126 -138z" />
    <glyph glyph-name="section" unicode="&#xa7;" horiz-adv-x="999" 
d="M224 1068l-42 -296l-59 -2q-89 -8 -93.5 -104.5t68.5 -99.5l67 -1l-60 -454q-6 -108 98 -119l605 -1q166 7 165 137.5t-185 118.5l-405 4l37 317l167 -1q105 5 111.5 97.5t-74.5 106.5l-174 3l24 227q28 128 114 139.5t148 -58.5q103 -66 167.5 22.5t-25.5 149.5
q-126 107 -362 84.5t-292 -270.5z" />
    <glyph glyph-name="minus" unicode="&#xad;" horiz-adv-x="808" 
d="M156 769q-99 -12 -117 -70.5t10.5 -104t83.5 -47.5h540q54 0 88.5 43.5t8.5 108t-126 70.5h-488z" />
    <glyph glyph-name="minus" unicode="&#x2212;" horiz-adv-x="808" 
d="M156 769q-99 -12 -117 -70.5t10.5 -104t83.5 -47.5h540q54 0 88.5 43.5t8.5 108t-126 70.5h-488z" />
    <glyph glyph-name="onequarter" unicode="&#xbc;" horiz-adv-x="1023" 
d="M744 1291l-512 -1332q-53 -113 -133 -74.5t-35 156.5l502 1307q40 91 92 105.5t86.5 -29.5t-0.5 -133zM54 1274q-30 -29 -6.5 -67.5t61.5 -25.5l33 22v-437q-4 -64 63 -64t65 64v576q2 42 -28 55.5t-64 -17.5zM617 647l-192 -415q-15 -35 -7 -57.5t45 -34.5h235v-127
q17 -57 68 -55.5t67 49.5l1 136h105q56 6 54.5 71.5t-54.5 65.5h-110l1 133q6 60 -62 61t-68 -63l-1 -132l-119 1l158 317q29 75 -34 99.5t-87 -49.5z" />
    <glyph glyph-name="onehalf" unicode="&#xbd;" horiz-adv-x="1023" 
d="M734 1291l-512 -1332q-53 -113 -133 -74.5t-35 156.5l502 1307q40 91 92 105.5t86.5 -29.5t-0.5 -133zM44 1274q-30 -29 -6.5 -67.5t61.5 -25.5l33 22v-437q-4 -64 63 -64t65 64v576q2 42 -28 55.5t-64 -17.5zM536 590q-25 -68 4.5 -98t64.5 -21.5t49.5 55.5t69.5 69.5
t100.5 -31t-35.5 -130.5l-282 -308q-30 -45 -8 -87.5t78 -39.5h356q69 1 68.5 69t-70.5 69l-232 -1l184 218q57 70 75.5 120.5t5.5 108t-62.5 94t-106.5 48t-126.5 -12.5t-132.5 -122z" />
    <glyph glyph-name="threequarters" unicode="&#xbe;" horiz-adv-x="1195" 
d="M934 1291l-512 -1332q-53 -113 -133 -74.5t-35 156.5l502 1307q40 91 92 105.5t86.5 -29.5t-0.5 -133zM807 647l-192 -415q-15 -35 -7 -57.5t45 -34.5h235v-127q17 -57 68 -55.5t67 49.5l1 136h105q56 6 54.5 71.5t-54.5 65.5h-110l1 133q6 60 -62 61t-68 -63l-1 -132
l-119 1l158 317q29 75 -34 99.5t-87 -49.5zM95 1398q-50 -6 -46.5 -68.5t64.5 -57.5h196l-169 -158q-35 -38 -3.5 -76t72.5 -11q65 37 118 15.5t66.5 -67t-13.5 -98t-104.5 -58t-130.5 76.5q-45 46 -81 17.5t-21 -83.5q37 -82 121.5 -116.5t170.5 -10t144.5 103t37.5 199
t-170 156.5l132 130q19 51 0 81t-65 25h-319z" />
    <glyph glyph-name="AE" unicode="&#xc6;" horiz-adv-x="1885" 
d="M409.5 947.5q-122.5 -203.5 -108 -541.5t190.5 -441t414 -100q179 -6 167 -145.5t-194 -134.5q-415 -2 -625.5 201t-224 494t31.5 511t218.5 404t499.5 207l243 1l288 -3l-203 -263l-8 -971l179 -159q-412 -54 -431 131v462h-295q-109 15 -115 116.5t99 124.5h314l2 303
q-320 7 -442.5 -196.5zM1646.5 1344q139.5 -75 92.5 -190.5t-179.5 -55.5t-273.5 47.5t-139.5 -147t130.5 -136t236.5 -4t111 -101.5t-50.5 -127.5t-213 -17.5t-211 -54.5t-27 -165.5t162.5 -114.5t227.5 11t164.5 84.5t147 16t50.5 -141.5t-142.5 -169t-326.5 -78
t-357.5 68.5t-194.5 291.5t160 381.5q-194 121 -82 375.5t343.5 278t371 -51.5z" />
    <glyph glyph-name="Ccedilla" unicode="&#xc7;" horiz-adv-x="1004" 
d="M445 1377.5q-142 -32.5 -261.5 -159t-148 -364.5t23.5 -439t179 -303.5t308 -115.5t282.5 43t144 118.5t-6.5 147t-174.5 20t-250 -37t-184.5 111t-65 282t54.5 315t202 132t200 -30t123 -26.5t75.5 120.5t-85 152.5t-185 58.5t-232 -25zM519 70l-27 -210l51 -23
q31 27 85 21t58 -64.5t-52.5 -71.5t-99.5 53q-33 18 -52.5 -9.5t4.5 -58.5q35 -48 82.5 -60t84 -4.5t62.5 32t38.5 61t7 78.5t-27 71t-58.5 42.5t-107 -2.5l18 145h-67z" />
    <glyph glyph-name="multiply" unicode="&#xd7;" horiz-adv-x="705" 
d="M349 789l-174 185q-66 46 -124.5 -12t-7.5 -128l152 -159l-177 -240q-44 -95 37.5 -130.5t135.5 25.5l157 224l183 -236q62 -56 135 -4.5t14 125.5l-179 239l157 174q43 74 -20.5 122t-130.5 0z" />
    <glyph glyph-name="Udieresis" unicode="&#xdc;" horiz-adv-x="384" 
d="M976 -157zM26.5 478.5q0.5 -164.5 147 -164t148 159.5t-147 164t-148 -159.5z" />
    <glyph glyph-name="atilde" unicode="&#xe3;" horiz-adv-x="1593" 
d="M83 881q5 -114 117 -113h309l-429 -503q-83 -109 -46.5 -192t117.5 -78l720 1q103 36 100.5 149.5t-117.5 120.5h-443l386 500l355 -1l-198 -277q-69 -76 -16.5 -151.5t135.5 -42.5q71 38 160 -6t100.5 -162t-63 -205.5t-287.5 -104.5t-395 90q-119 111 -194 41.5
t-17 -173.5q108 -126 289 -175.5t413.5 -19.5t369.5 208t127 420.5t-299 328.5l195 248q38 102 -0.5 161.5t-129.5 54.5h-1133q-131 -5 -126 -119z" />
    <glyph glyph-name="adieresis" unicode="&#xe4;" horiz-adv-x="985" 
d="M83 881q5 -114 117 -113h309l-429 -503q-83 -109 -46.5 -192t117.5 -78l720 1q103 36 100.5 149.5t-117.5 120.5h-443l386 480q80 91 46.5 175t-101.5 79h-533q-131 -5 -126 -119z" />
    <glyph glyph-name="ae" unicode="&#xe6;" horiz-adv-x="1619" 
d="M87 751q41 -112 157.5 -53t291.5 53t142 -165q-221 100 -418.5 32.5t-220.5 -243t63 -275.5t303.5 -105.5t264.5 71.5q11 -85 140 -77t123 128l4 586q-13 140 -130.5 228.5t-311 74.5t-321.5 -78.5t-87 -176.5zM673 393v-131q-234 -101 -336 -17.5t-6.5 163.5t342.5 -15z
M1586 240.5q-29 118.5 -184 59.5q-145 -105 -282.5 -61.5t-168.5 155.5h351q93 35 94 125.5t-91 113.5l-351 -1q18 117 163.5 149t285.5 -51q115 -51 157 66.5t-122 190t-403 8t-320 -304t14.5 -444t329.5 -249.5t395 40t132 203.5z" />
    <glyph glyph-name="ccedilla" unicode="&#xe7;" horiz-adv-x="860" 
d="M416 70l-18 -145q70 16 107 2.5t58.5 -42.5t27 -71t-7 -78.5t-38.5 -61t-62.5 -32t-84 4.5t-82.5 60q-24 31 -4.5 58.5t52.5 9.5q43 -66 99.5 -53t52.5 71.5t-58 64.5t-85 -21l-51 23l27 210h67zM702 50q-128 -80 -339.5 -28t-293.5 244.5t-6.5 427.5t298.5 299t363 -22
q128 -57 97 -166t-142 -104q-192 85 -294 21.5t-107.5 -196.5t104.5 -202.5t274 16.5q143 48 180.5 -85t-134.5 -205z" />
    <glyph glyph-name="divide" unicode="&#xf7;" horiz-adv-x="878" 
d="M147 548l600 1q93 15 93 103t-88 105h-606q-89 -12 -88 -105.5t89 -103.5zM561.5 924q-0.5 129 -123.5 128.5t-124 -125t123.5 -128.5t124 125zM561.5 384q-0.5 129 -123.5 128.5t-124 -125t123.5 -128.5t124 125z" />
    <glyph glyph-name="Lslash" unicode="&#x141;" horiz-adv-x="602" 
d="M-19 1279l479 -1497q30 -104 94.5 -114t96.5 33.5t0 161.5l-480 1481q-35 118 -99.5 128t-100.5 -37t10 -156z" />
    <glyph glyph-name="quoteleft" unicode="&#x2018;" horiz-adv-x="399" 
d="M372.5 1299q11.5 125 -96.5 148q-23 37 65 104q33 64 -26 81q-79 -9 -169 -86.5t-92.5 -197t56.5 -165.5t155 -27.5t107.5 143.5z" />
    <glyph glyph-name="quoteright" unicode="&#x2019;" horiz-adv-x="412" 
d="M51.5 1485q-11.5 -125 96.5 -148q23 -37 -65 -104q-33 -64 26 -81q79 9 169 86.5t92.5 197t-56.5 165.5t-155 27.5t-107.5 -143.5z" />
    <glyph glyph-name="quotedblleft" unicode="&#x201c;" horiz-adv-x="728" 
d="M708.5 1301q11.5 125 -96.5 148q-23 37 65 104q33 64 -26 81q-79 -9 -169 -86.5t-92.5 -197t56.5 -165.5t155 -27.5t107.5 143.5zM372.5 1301q11.5 125 -96.5 148q-23 37 65 104q33 64 -26 81q-79 -9 -169 -86.5t-92.5 -197t56.5 -165.5t155 -27.5t107.5 143.5z" />
    <glyph glyph-name="quotedblright" unicode="&#x201d;" horiz-adv-x="715" 
d="M41.5 1481q-11.5 -125 96.5 -148q23 -37 -65 -104q-33 -64 26 -81q79 9 169 86.5t92.5 197t-56.5 165.5t-155 27.5t-107.5 -143.5zM377.5 1481q-11.5 -125 96.5 -148q23 -37 -65 -104q-33 -64 26 -81q79 9 169 86.5t92.5 197t-56.5 165.5t-155 27.5t-107.5 -143.5z" />
    </font>
</defs>
</svg>
