<?xml version="1.0" standalone="no"?>
<!DOCTYPE svg PUBLIC "-//W3C//DTD SVG 1.1//EN" "http://www.w3.org/Graphics/SVG/1.1/DTD/svg11.dtd" >
<svg xmlns="http://www.w3.org/2000/svg" xmlns:xlink="http://www.w3.org/1999/xlink" version="1.1">
<metadata>
Created by FontForge 20170731 at Thu Oct 18 17:56:53 2012
 By Aleksey,,,
The Quick (c) (TattooWoo.com). 2012. All Rights Reserved
</metadata>
<defs>
<font id="TheQuick" horiz-adv-x="1014" >
  <font-face 
    font-family="The Quick"
    font-weight="400"
    font-stretch="normal"
    units-per-em="2048"
    panose-1="2 0 5 0 0 0 0 0 0 0"
    ascent="1638"
    descent="-410"
    x-height="1022"
    cap-height="1298"
    bbox="-1327 -418 2450 1717"
    underline-thickness="150"
    underline-position="-442"
    unicode-range="U+0020-F002"
  />
<missing-glyph horiz-adv-x="1024" 
d="M100 0v1434h824v-1434h-824zM150 50h724v1334h-724v-1334zM325 1148q31 28 58 43q53 30 112 30q92 0 148 -47.5t56 -127.5q0 -49 -23 -98.5t-87 -129.5q-63 -80 -99 -132t-36 -99q0 -38 24 -133h-32q-35 97 -35 148q0 76 81.5 218t81.5 217q0 57 -33 90t-91 33
q-38 0 -69 -17q-26 -15 -56 -40v45zM389 334l57 58q11 10 20 10q10 0 22 -11l56 -60q9 -11 9 -20q0 -11 -10 -22l-56 -62q-14 -14 -21 -14q-11 0 -20 10l-61 71q-7 9 -7 18q0 10 11 22z" />
    <glyph glyph-name=".notdef" horiz-adv-x="1024" 
d="M100 0v1434h824v-1434h-824zM150 50h724v1334h-724v-1334zM325 1148q31 28 58 43q53 30 112 30q92 0 148 -47.5t56 -127.5q0 -49 -23 -98.5t-87 -129.5q-63 -80 -99 -132t-36 -99q0 -38 24 -133h-32q-35 97 -35 148q0 76 81.5 218t81.5 217q0 57 -33 90t-91 33
q-38 0 -69 -17q-26 -15 -56 -40v45zM389 334l57 58q11 10 20 10q10 0 22 -11l56 -60q9 -11 9 -20q0 -11 -10 -22l-56 -62q-14 -14 -21 -14q-11 0 -20 10l-61 71q-7 9 -7 18q0 10 11 22z" />
    <glyph glyph-name=".null" horiz-adv-x="0" 
 />
    <glyph glyph-name="nonmarkingreturn" horiz-adv-x="508" 
 />
    <glyph glyph-name="space" unicode=" " horiz-adv-x="508" 
 />
    <glyph glyph-name="space" unicode="&#xa0;" horiz-adv-x="508" 
 />
    <glyph glyph-name="exclam" unicode="!" horiz-adv-x="672" 
d="M313 328l-49 1036q0 46 21 69t62 23q42 0 62.5 -23t20.5 -69l-80 -1036h-37zM223 167l82 84q15 14 29 14q13 0 31 -16l80 -86q12 -16 12 -29q0 -15 -14 -31l-80 -88q-20 -20 -29 -20q-16 0 -29 14l-88 101q-10 13 -10 26q0 15 16 31z" />
    <glyph glyph-name="quotedbl" unicode="&#x22;" horiz-adv-x="672" 
d="M197 1108h-30l-62 359q-4 23 -4 33q0 37 20.5 57t59.5 20t60.5 -19.5t21.5 -56.5q0 -8 -4 -34zM509 1108h-30l-62 359q-4 23 -4 33q0 37 20.5 57t59.5 20t60.5 -19.5t21.5 -56.5q0 -8 -4 -34z" />
    <glyph glyph-name="numbersign" unicode="#" horiz-adv-x="1336" 
d="M596 859l-85 -290h242l86 290h-243zM673 1434h93l-141 -477h242l142 477h92l-141 -477h259l-29 -97h-259l-83 -290h279l-30 -98h-280l-140 -472h-92l139 472h-240l-142 -472h-92l140 472h-273l30 98h271l86 290h-295l29 97h295z" />
    <glyph glyph-name="dollar" unicode="$" 
d="M577 1552v-102q68 -8 141 -35q10 -6 19 -6q25 0 41 45h50l103 -282h-49q-60 134 -168 179q-74 30 -137 39v-540q241 -93 322.5 -183t81.5 -264q0 -197 -119.5 -300t-284.5 -120v-239h-73v237q-188 3 -266 38q-10 6 -19 6q-25 0 -41 -45h-50v331h49q50 -183 152.5 -226
t174.5 -43v635q-214 67 -299 153q-92 91 -92 249q0 166 125 271q105 88 266 102v100h73zM577 655v-610q125 17 211.5 96t86.5 219q0 116 -69 183q-62 59 -229 112zM504 873v520q-119 -5 -199 -72q-86 -73 -86 -182q0 -98 55 -153q52 -54 230 -113z" />
    <glyph glyph-name="percent" unicode="%" horiz-adv-x="1610" 
d="M449 1459q98 0 190.5 -49t144.5 -139.5t52 -190.5q0 -99 -50.5 -188.5t-143 -140t-193.5 -50.5q-100 0 -192.5 50.5t-143.5 140t-51 188.5q0 100 52 190.5t144.5 139.5t190.5 49zM206 1066q13 -92 55.5 -173.5t106.5 -124.5q57 -40 114 -40q7 0 13 1q63 3 115 53t73 136
q13 54 13 111q0 32 -4 65q-12 93 -56 175.5t-107 124.5q-58 38 -115 38h-11q-61 -3 -113 -52t-73 -135q-15 -58 -15 -117q0 -31 4 -62zM297 -29l940 1461h84l-938 -1461h-86zM1161 738q97 0 190 -49.5t145 -140t52 -189.5q0 -100 -50.5 -189.5t-143 -139.5t-193.5 -50
t-193 50t-143 139.5t-51 189.5q0 99 52 189.5t144.5 140t190.5 49.5zM918 344q13 -92 55.5 -173.5t106.5 -124.5q59 -39 116 -39h11q63 3 115 53t73 136q13 54 13 111q0 32 -4 65q-12 93 -56 175.5t-107 124.5q-58 38 -115 38h-11q-61 -3 -113 -52t-73 -135
q-15 -58 -15 -117q0 -31 4 -62z" />
    <glyph glyph-name="ampersand" unicode="&#x26;" horiz-adv-x="1683" 
d="M1051 196l-554 683q-118 0 -179.5 -86t-61.5 -204q0 -91 35.5 -181.5t101.5 -164.5q72 -83 165 -127t194 -44q88 0 169 33.5t130 90.5zM1394 0q-56 0 -139 25t-167 132q-67 -74 -175 -123.5t-241 -49.5q-229 0 -374.5 150.5t-145.5 385.5q0 161 76 266.5t225 151.5
q-42 61 -62.5 116t-20.5 111q0 105 77 197t182 92q68 0 142 -39q9 -6 18 -6q23 0 38 45h46l96 -281h-46q-55 133 -155 178q-85 37 -141 37q-65 0 -106 -45.5t-41 -117.5q0 -131 102 -267l531 -670q98 146 121 244q17 78 17 130q0 97 -62 97h-90v50h443v-50h-90
q-95 0 -145 -227q-31 -132 -155 -292q109 -136 248 -136h16q143 17 192 128l49 -1l-103 -231h-160z" />
    <glyph glyph-name="quotesingle" unicode="'" horiz-adv-x="346" 
d="M197 1108h-30l-62 359q-4 23 -4 33q0 37 20.5 57t59.5 20t60.5 -19.5t21.5 -56.5q0 -8 -4 -34z" />
    <glyph glyph-name="parenleft" unicode="(" horiz-adv-x="758" 
d="M252 601q2 277 99.5 530t268.5 442h80q-172 -242 -230 -438q-57 -193 -57 -523v-22q0 -330 57 -522q58 -196 230 -438h-80q-171 189 -268.5 441.5t-99.5 529.5z" />
    <glyph glyph-name="parenright" unicode=")" horiz-adv-x="758" 
d="M138 -370h-80q172 242 230 438q57 192 57 522v22q0 330 -57 523q-58 196 -230 438h80q171 -189 268.5 -442t99.5 -530q-2 -277 -99.5 -529.5t-268.5 -441.5z" />
    <glyph glyph-name="asterisk" unicode="*" horiz-adv-x="1024" 
d="M498 1294q-4 71 -37 130q-37 66 -37 84q0 32 23.5 51.5t62.5 19.5q37 0 61.5 -18t24.5 -47q0 -21 -36 -89q-33 -61 -37 -130q66 25 113 75q51 55 69 61q11 3 21 3q18 0 35 -10q26 -17 38 -53q6 -19 6 -36q0 -15 -4 -28q-10 -30 -38 -38q-6 -2 -19 -2q-25 0 -76 9
q-28 5 -55 5q-41 0 -81 -11q44 -55 105 -83q68 -32 79 -47q13 -18 13 -38q0 -9 -2 -17q-8 -30 -39 -53q-29 -22 -59 -22q-1 0 -1 1q-31 0 -48 23q-12 17 -22 94q-10 67 -47 125q-38 -58 -46 -124q-9 -75 -20 -90q-19 -25 -49 -27h-5q-28 0 -57 21q-30 21 -39 51q-4 10 -4 20
q0 17 11 32q13 17 83 51q61 29 105 82q-41 11 -80 11q-27 0 -53 -5q-54 -11 -78 -11q-9 0 -14 2q-30 9 -41 38q-6 13 -6 29q0 17 6 36q11 35 36 53q17 12 34 12q9 0 18 -3q20 -6 74 -62q47 -49 112 -75z" />
    <glyph glyph-name="plus" unicode="+" 
d="M437 647h-350v140h350v369l1 1h139v-370h349l1 -1v-139h-350v-370h-140v370z" />
    <glyph glyph-name="comma" unicode="," horiz-adv-x="557" 
d="M238 258q44 0 88.5 -65.5t44.5 -151.5q0 -109 -71 -226.5t-139 -117.5v43q73 43 87 190q0 119 -129 161v42z" />
    <glyph glyph-name="hyphen" unicode="-" horiz-adv-x="670" 
d="M156 409q-40 0 -40 28v83q0 29 41 29h356q41 0 41 -29v-83q0 -28 -40 -28h-358z" />
    <glyph glyph-name="hyphen" unicode="&#xad;" horiz-adv-x="670" 
d="M156 409q-40 0 -40 28v83q0 29 41 29h356q41 0 41 -29v-83q0 -28 -40 -28h-358z" />
    <glyph glyph-name="period" unicode="." horiz-adv-x="557" 
d="M145 167l82 84q15 14 29 14q13 0 31 -16l80 -86q12 -16 12 -29q0 -15 -14 -31l-80 -88q-20 -20 -29 -20q-16 0 -29 14l-88 101q-10 13 -10 26q0 15 16 31z" />
    <glyph glyph-name="slash" unicode="/" horiz-adv-x="569" 
d="M93 -50h-80l541 1484h80z" />
    <glyph glyph-name="zero" unicode="0" 
d="M507 1459q108 0 211 -96t161 -274t58 -372t-56.5 -370t-159 -274t-214.5 -98t-214.5 98t-159 274t-56.5 370t57.5 372t160.5 274t212 96zM237 689q14 -180 61.5 -340t118.5 -244q65 -78 129 -78q6 0 12 1q70 7 127.5 104.5t81.5 265.5q15 107 15 220q0 62 -5 126
q-14 181 -62.5 343t-119.5 244q-65 76 -128 76q-6 0 -11 -1q-68 -7 -126 -102.5t-82 -264.5q-16 -110 -16 -225q0 -62 5 -125z" />
    <glyph glyph-name="one" unicode="1" 
d="M234 0v50h96q103 0 103 235v794q0 129 -117 129h-98v50q292 63 327 176h50v-1149q0 -235 103 -235h96v-50h-560z" />
    <glyph glyph-name="two" unicode="2" 
d="M722 1036q0 148 -86 245t-186 97q-170 0 -275 -131h-22v49q39 50 115 104t185 54q183 0 306.5 -121t123.5 -297q0 -262 -627 -916h422q130 0 209 112h49l-103 -232h-719l1 50q607 675 607 986z" />
    <glyph glyph-name="three" unicode="3" 
d="M435 22q151 0 218 116.5t67 280.5q0 104 -44.5 205.5t-176.5 148.5v19q81 45 144 120.5t63 209.5q0 110 -55 189.5t-166 92.5q-68 0 -123.5 -45t-55.5 -111h-42v159q0 20 73.5 33.5t155.5 13.5q155 0 257 -84t102 -249q0 -87 -61 -166t-193 -139q93 -14 195 -134.5
t102 -278.5q0 -163 -144 -294t-325 -131q-152 0 -247.5 39t-95.5 88v100h49q0 -83 86 -133t217 -50z" />
    <glyph glyph-name="four" unicode="4" 
d="M600 438v686l-424 -686h424zM737 338v-171q0 -117 72 -117h76v-50h-442v50h76q81 0 81 120v168h-557v35l660 1061h34v-996h19q133 0 193 132h49l-103 -232h-158z" />
    <glyph glyph-name="five" unicode="5" 
d="M229 852l144 582h396q103 0 112 52h50l-63 -172h-429l-104 -415q226 0 388 -124.5t162 -300.5q0 -234 -143.5 -365t-324.5 -131q-152 0 -248 39q-92 37 -92 82v106h46q0 -88 86 -135.5t217 -47.5q151 0 217.5 116.5t66.5 347.5q0 159 -110 265t-285 106q-40 0 -86 -5z
" />
    <glyph glyph-name="six" unicode="6" 
d="M558 11q101 0 163 98.5t62 247.5q0 203 -100 333.5t-216 130.5q-91 0 -163 -101.5t-72 -250.5q0 -153 95.5 -305.5t230.5 -152.5zM801 1459v-48q-177 -12 -326.5 -179.5t-233.5 -467.5q96 93 266 93q108 0 211 -57t161 -162.5t58 -221.5t-56.5 -220.5t-144 -162.5
t-169.5 -58q-243 0 -366.5 162.5t-123.5 372.5q0 320 209 634.5t515 314.5z" />
    <glyph glyph-name="seven" unicode="7" 
d="M737 1314h-399q-133 0 -192 -112h-50l103 232h719l-1 -50q-370 -866 -370 -1205q0 -129 67 -129h117v-50h-411v50h67q72 0 72 131q19 296 278 1133z" />
    <glyph glyph-name="eight" unicode="8" 
d="M552 830q121 25 156 124q27 75 27 140q0 20 -3 39q-12 81 -52.5 154t-99.5 110q-55 33 -106 33h-9q-57 -3 -105.5 -46t-68.5 -119q-13 -49 -13 -100q0 -28 4 -57q12 -80 51.5 -152t218.5 -126zM472 785q-114 -21 -181 -157q-56 -115 -56 -206q0 -18 2 -35
q14 -104 61.5 -196.5t118.5 -140.5q64 -44 128 -44h13q70 4 127.5 60t81.5 153q15 62 15 127q0 36 -5 73q-11 112 -73.5 212.5t-231.5 153.5zM636 811q42 -14 82 -35q103 -56 161 -158.5t58 -214.5t-56.5 -213.5t-159 -158t-214.5 -56.5t-214.5 56.5t-159 158t-56.5 213.5
t57.5 214.5t160.5 158.5q41 21 82 35q-24 9 -48 21q-86 44 -133 123t-47 166t48 167t133.5 123t176.5 43q90 0 176 -43t134 -123t48 -167t-47 -166t-132 -123q-25 -13 -50 -21z" />
    <glyph glyph-name="nine" unicode="9" 
d="M456 1423q-101 0 -162.5 -98.5t-61.5 -247.5q0 -203 100 -333.5t215 -130.5q91 0 163.5 101.5t72.5 250.5q0 153 -96 305.5t-231 152.5zM213 -25v48q177 12 326.5 179.5t233.5 467.5q-95 -93 -266 -93q-108 0 -211 57t-161 162.5t-58 221.5t56.5 220.5t144 162.5
t169.5 58q243 0 366.5 -162.5t123.5 -372.5q0 -320 -209 -634.5t-515 -314.5z" />
    <glyph glyph-name="colon" unicode=":" horiz-adv-x="557" 
d="M145 167l82 84q15 14 29 14q13 0 31 -16l80 -86q12 -16 12 -29q0 -15 -14 -31l-80 -88q-20 -20 -29 -20q-16 0 -29 14l-88 101q-10 13 -10 26q0 15 16 31zM145 860l82 84q15 14 29 14q13 0 31 -16l80 -86q12 -16 12 -29q0 -15 -14 -31l-80 -88q-20 -20 -29 -20
q-16 0 -29 14l-88 101q-10 13 -10 26q0 15 16 31z" />
    <glyph glyph-name="semicolon" unicode=";" horiz-adv-x="557" 
d="M145 859l82 84q15 14 29 14q13 0 31 -16l80 -86q12 -16 12 -29q0 -15 -14 -31l-80 -88q-20 -20 -29 -20q-16 0 -29 14l-88 101q-10 13 -10 26q0 15 16 31zM238 258q44 0 88.5 -65.5t44.5 -151.5q0 -109 -71 -226.5t-139 -117.5v43q73 43 87 190q0 119 -129 161v42z" />
    <glyph glyph-name="semicolon" unicode="&#x37e;" horiz-adv-x="557" 
d="M145 859l82 84q15 14 29 14q13 0 31 -16l80 -86q12 -16 12 -29q0 -15 -14 -31l-80 -88q-20 -20 -29 -20q-16 0 -29 14l-88 101q-10 13 -10 26q0 15 16 31zM238 258q44 0 88.5 -65.5t44.5 -151.5q0 -109 -71 -226.5t-139 -117.5v43q73 43 87 190q0 119 -129 161v42z" />
    <glyph glyph-name="less" unicode="&#x3c;" 
d="M927 1074l-625 -359l625 -355v-167l-840 481v83l840 484v-167z" />
    <glyph glyph-name="equal" unicode="=" 
d="M87 631h840v-140h-840v140zM87 943h840v-140h-840v140z" />
    <glyph glyph-name="greater" unicode="&#x3e;" 
d="M87 1241l840 -484v-83l-840 -481v167l625 355l-625 359v167z" />
    <glyph glyph-name="question" unicode="?" horiz-adv-x="748" 
d="M132 1330q128 104 242 104q132 0 212 -68t80 -182q0 -69 -32.5 -140t-124.5 -186q-90 -113 -141.5 -187.5t-51.5 -142.5q0 -63 35 -189h-47q-50 138 -50 211q0 109 116.5 312t116.5 309q0 82 -47 129t-130 47q-84 0 -178 -81v64zM223 167l82 84q15 14 29 14q13 0 31 -16
l80 -86q12 -16 12 -29q0 -15 -14 -31l-80 -88q-20 -20 -29 -20q-16 0 -29 14l-88 101q-10 13 -10 26q0 15 16 31z" />
    <glyph glyph-name="at" unicode="@" horiz-adv-x="2019" 
d="M972 622q-83 -10 -151 -80t-68 -199q0 -107 64 -194t183 -87q97 5 126 167v476q-54 -63 -154 -83zM1360 29q-63 1 -100.5 18t-61.5 54q-29 -37 -82 -64.5t-133 -27.5q-144 0 -256.5 100.5t-112.5 233.5q1 87 53 166.5t132.5 115t173.5 49.5q67 16 110 42.5t43 74.5
q-2 69 -41 125t-129 56q-72 0 -121.5 -59t-50.5 -125h-45v159q0 20 72 40q73 20 178 20q109 -2 193.5 -64.5t84.5 -157.5v-589q0 -117 94 -117q185 35 267 191.5t82 382.5q-20 335 -232 540q-197 188 -480 188q-205 0 -392.5 -137.5t-269.5 -355.5q-67 -178 -67 -361
q0 -313 129.5 -511.5t305 -290.5t318.5 -92q274 0 575 208v-75q-263 -184 -571 -184q-240 0 -461 122.5t-343 342t-122 461.5t124 464.5t345.5 342t456.5 119.5q362 0 609 -230t247 -566q0 -270 -176 -439q-175 -168 -346 -170z" />
    <glyph glyph-name="A" unicode="A" horiz-adv-x="1003" 
d="M851 1023h11q8 -10 33 -17q5 3 8 3q27 -17 27 -54h-3l3 -6v-2q0 -3 -19 -14q11 -11 11 -65v-22l3 -16q0 -3 -3 -3l3 -27v-60l-3 -16l3 -6q-3 -31 -8 -43q-6 -65 -6 -82q0 -91 49 -245q11 -46 11 -49q0 -7 -44 -16q0 5 -38 57q-21 32 -35 109q-2 14 -8 14
q-71 -86 -144 -131q-154 -84 -253 -84q0 -3 -19 -3h-33q-143 0 -263 84q-93 81 -128 193q0 14 -3 33q8 76 24 76l-2 6q34 101 166 184q171 114 418 177q81 22 142 22h89l6 -3q1 6 5 6zM778 908q-5 3 -8 3q-6 -4 -76 -11q-257 -67 -386 -144q-170 -98 -207 -206
q-11 -41 -11 -55v-11q11 -45 101 -95q51 -16 87 -24l5 2l25 -8l5 3q24 -2 24 -6l6 3h60q69 0 190 52q70 38 141 106q75 81 90 149v25q0 17 14 155v24q0 7 2 11q0 3 -2 3l2 19v14h-2q-12 0 -60 -9z" />
    <glyph glyph-name="B" unicode="B" horiz-adv-x="1128" 
d="M90 1348q40 0 83 -39q3 -5 3 -8q-3 -24 -3 -28q3 -5 3 -8h-3q6 -15 6 -58v-56l-3 -16q0 -3 3 -3l-3 -28v-94q0 -22 3 -52l-3 -6l3 -17v-11h3q170 100 379 100q133 0 269 -53q0 -4 66 -33q140 -78 186 -227q11 -39 19 -86h-3l3 -5v-11q0 -105 -116 -200q-124 -68 -252 -99
q-101 -36 -416 -64l-102 -14q-3 0 -3 3l-28 -3h-19q-3 0 -3 3l-5 -3h-28q-31 0 -50 50q-4 0 -17 19q-4 0 -11 11l-5 -2q-14 6 -14 24q1 42 6 42q0 3 -3 3l3 11l24 413q-2 189 -2 340v8q0 3 2 3q0 3 -2 3q9 183 16 183zM486 897v2q-120 -21 -166 -44q-138 -76 -138 -113
q0 -6 2 -6l-2 -14v-66q0 -3 -3 -3q0 -3 3 -3q-6 -23 -6 -61v-30q0 -6 -6 -6q3 -5 3 -8q0 -66 -11 -136l3 -5q-2 -25 -6 -25q4 -26 6 -33q435 44 526 80q236 69 291 163q36 47 36 114q0 59 -175 149q-119 46 -166 47q0 3 -2 3q-76 3 -92 3q-64 0 -97 -8z" />
    <glyph glyph-name="C" unicode="C" horiz-adv-x="1035" 
d="M813 1027q141 -7 141 -37v-25q0 -8 -11 -8v-5l2 -6q-10 -5 -19 -5v2q-16 -2 -16 -16q-9 0 -19 -8l-16 3q0 -7 -130 -22q-199 -43 -323 -97q-344 -168 -344 -318q12 -39 100 -81q87 -35 171 -35v-3l6 3q3 0 43 -5h73q83 0 298 27q0 2 33 5l5 -3l73 17q15 -3 25 -3h8v5
l27 -2h46v-6q-16 0 -16 -5h13l6 2l2 -5l-5 -3h-14q-9 0 -37 -5l-6 3q-5 -3 -8 -3v-3h8v-5h-3q-6 0 -10 3q-22 -3 -22 -9v-2q13 2 13 5l14 -3q14 0 30 11q0 -5 16 -8v-3l-32 -5l2 -5v-6q-6 0 -11 -3q-22 9 -40 9l-6 -3q0 3 -2 3v-6h5v-3h-8q-5 3 -8 3l-3 -5q1 -6 5 -6
q3 0 9 3l16 -3h13q0 11 6 11q0 -8 8 -8q4 0 24 5l3 -5q0 -5 -13 -8l-14 3q-9 -8 -57 -14q-3 0 -3 3q-12 -6 -27 -6v-5h6q29 3 62 3q0 -4 11 -6l3 6q-3 0 -3 2q5 3 8 3q8 -3 8 -5q2 2 19 2v-8h24v-5h-18v-3h32l5 3v-3q0 -6 -178 -32l-17 -6v3q-80 -14 -141 -19q-2 0 -2 3
q-27 -3 -52 -9l-5 3l-38 -5v2l-6 -2l-5 2q-11 -5 -30 -5h-76q-6 0 -11 3l-5 -3q-59 3 -70 5q-5 -2 -11 -2q-33 4 -33 8q-2 0 -2 -3q-100 16 -160 52q-90 48 -114 130q-16 30 -30 103l3 5q0 3 -3 3q0 78 68 162q182 188 517 274q157 41 190 41l5 -3q7 3 28 5zM157 778h2
q6 0 6 6h-3q-5 -1 -5 -6zM991 410h14v-6h-14v6zM921 369v-3l3 -5q5 3 8 3v5h-11zM902 361v-8h-14v5zM981 353h2v-3q0 -5 -5 -5l-3 5zM829 345v-6h3q5 3 8 3v5q-5 -2 -11 -2zM842 347q0 -4 17 -8v3q0 5 -6 5h-11zM924 317q2 0 2 -2q19 2 19 8v3q-21 -3 -21 -9zM758 317
q1 -5 6 -5q14 3 24 3q0 5 -5 5h-11z" />
    <glyph glyph-name="D" unicode="D" horiz-adv-x="1169" 
d="M921 1427h8q76 -24 76 -41q0 -6 -5 -6l-5 -117q2 -6 2 -9l-2 -5q2 -15 2 -25v-8l-2 -16q2 -5 2 -8q-5 -1 -5 -6l5 -3q-2 -27 -2 -40v-25q0 -6 -3 -11q5 -15 8 -76h-3l3 -6l-3 -5q6 -1 6 -6v-3q0 -2 -3 -2q3 -9 8 -41h-8q11 -13 11 -33q-6 -1 -6 -6q9 0 9 -5t-9 -5v-3
q11 0 11 -25q-2 0 -2 -3q7 0 16 -87h-5v-3q6 -6 16 -62q-3 -5 -3 -11l3 -11q-6 -1 -6 -6q11 -10 11 -52q-5 -1 -5 -5v-3q11 0 11 -33q-3 0 -3 -2q7 0 8 -36q-5 -1 -5 -5q11 -2 11 -9l-6 -8q7 0 14 -46q3 0 3 -8q-3 0 -3 -3q4 -3 19 -63q3 0 3 -8h-3l47 -128q5 -1 5 -6v-5
l-19 -28q-57 11 -63 19q-5 -2 -8 -2q-47 9 -47 46q-13 33 -30 101q-63 -67 -144 -109q-136 -82 -377 -82h-8q-7 0 -11 3q-3 0 -3 -3q-103 0 -221 41q-115 56 -167 161q-28 53 -30 112q0 60 90 186q90 118 161 147q170 95 224 107q115 27 191 35q19 0 33 3q170 -12 170 -22h5
q-8 130 -8 148q0 262 27 262q2 0 14 14zM896 908q0 -3 -13 -11l-121 8q-136 0 -289 -55q-175 -77 -235 -142q-76 -79 -126 -180q-13 -25 -16 -57q23 -58 117 -96q31 -8 115 -22l6 3q0 -6 87 -8q106 2 117 8v-3q144 22 222 66q94 47 172 136l11 19q-17 105 -36 304
q-7 30 -11 30z" />
    <glyph glyph-name="E" unicode="E" horiz-adv-x="1248" 
d="M906 1030q6 -4 10 -4q3 0 3 4l41 -7q3 0 3 3l35 -6l7 3q150 -44 184 -92q26 -31 26 -48q0 -11 -3 -28q6 -37 6 -77q0 -45 -67 -79q-64 -48 -169 -74v4q0 -7 -86 -13h-38q-10 0 -16 -3l-19 3h-51q-33 0 -251 13q-10 0 -32 54q-11 0 -22 60q-3 0 -3 3v4q0 19 57 19
q104 -10 191 -13q3 0 3 3q18 -3 26 -3q228 0 280 38q51 14 92 51q-95 45 -201 45h-12q-203 0 -494 -99q-142 -61 -242 -166q-64 -70 -73 -137q14 -38 73 -70q76 -38 217 -38q169 0 544 70l13 -3l6 3q12 0 29 -22v-3q0 -7 -6 -7q12 -18 12 -22l-3 -16l6 -35q0 -41 -28 -41
l-293 -45v3q-115 -22 -252 -22l-19 -3q-154 12 -203 35q-70 33 -112 89q-73 114 -73 194q0 79 99 191q6 0 28 29q158 149 478 216l95 23q6 -3 10 -3q0 10 194 19zM559 947h3q58 9 58 19h-4q-57 -13 -57 -19zM623 966v-3l12 -3v6h-12zM435 918v-3h9q7 0 7 6h-7q-6 -3 -9 -3z
M371 890v-4q5 0 13 13h-3q-5 0 -10 -9zM311 864h6q5 0 10 10v3q-16 -9 -16 -13zM288 851h4q5 4 12 4v6h-3q-13 -5 -13 -10zM260 842q0 -7 -7 -7v-6q5 0 10 10v3h-3z" />
    <glyph glyph-name="F" unicode="F" horiz-adv-x="308" 
d="M723 1717q156 -9 156 -28q0 -16 4 -32q-4 -16 -4 -28l4 -8l-4 -8q4 -8 4 -12q-68 -29 -68 -36l-20 4h-8q-12 -12 -76 -12h-4q-8 -8 -52 -12l-180 -76q-60 -37 -152 -144h-4v-8l300 12h16q110 0 156 -8l8 4l24 -4q109 4 132 8v-4l8 4q70 0 336 8q8 4 12 4t4 -4l40 4
q80 0 132 -8l16 4l64 -4l40 8q4 0 4 -4l20 4h36l40 4q0 -7 36 -12v-4q-7 -37 -16 -48q8 -1 8 -8q-14 -7 -20 -24q4 -7 4 -16q-10 0 -44 -56q-53 -28 -104 -28l-8 4q-3 0 -32 -4l-48 4q-4 0 -4 -4l-20 4h-120l-512 -16q-34 0 -220 4q-274 -16 -364 -16q-16 0 -36 -276l4 -24
v-64q0 -28 4 -32q-4 -27 -4 -44v-80q12 -304 20 -304q-6 -72 -20 -72q-33 27 -52 52q-25 0 -60 84v56q-8 129 -8 140v108l-4 24q8 32 8 192v20q0 14 -4 36q12 103 12 180h-4q-41 4 -64 4h-20q-9 0 -16 4q-4 0 -4 -4q-76 5 -76 12q-4 0 -4 -4q-64 0 -64 60q-16 23 -24 68
q0 4 4 4l-4 28v12q12 20 24 20q206 -16 228 -16h68q46 165 216 300q188 108 360 108z" />
    <glyph glyph-name="G" unicode="G" horiz-adv-x="1149" 
d="M1028 1044q4 0 4 -4l6 4q31 0 51 -142q2 -1 13 -67q0 -3 -3 -3q6 -35 10 -176q-3 -6 -3 -10q0 -3 3 -3q-10 -129 -27 -168v-95q0 -16 3 -33l-6 -98l3 -7q-10 -36 -17 -215h-3q0 -4 3 -4q-13 -130 -44 -188q-71 -113 -215 -176q-143 -74 -273 -74q0 -3 -10 -3q-64 3 -84 7
q-4 0 -4 -4l-16 4h-58q-115 0 -212 23l-7 -3h-6q-9 7 -14 7q-3 0 -3 -4q-59 10 -209 24q-4 0 -10 -3q-36 3 -44 6q-3 0 -3 -3l-17 3h-44q-53 0 -71 7l-6 -3l-17 3q-4 0 -10 -3q-239 21 -239 43q-51 85 -51 108v7q5 0 20 10l17 3v-3l7 3q98 -22 586 -43q0 -9 252 -31
q41 -3 61 -3q3 0 3 3l17 -3h51q11 0 17 -3l20 3q21 0 44 -3q135 13 208 53q165 84 196 132q77 70 77 300q4 0 7 30q-3 5 -3 17h-4q-64 -51 -249 -81q-27 0 -40 -7q-129 -7 -152 -7q-203 0 -377 78q-63 33 -84 81q-44 81 -51 151l3 7l-3 24q3 37 10 37l-3 6v7q32 95 121 185
q125 108 371 206q133 47 208 47q79 17 169 17h23q58 -6 58 -41q6 -20 6 -27l-6 -3l3 -7v-6q-36 -54 -88 -54q-21 -13 -198 -34q-101 -15 -300 -114q-105 -47 -212 -155q-71 -93 -71 -142v-20q86 -67 168 -67q50 -17 203 -27q168 0 333 43q148 66 148 95q10 0 24 87v51
q13 134 17 148q0 3 -4 3l4 41v33q0 59 -4 152q7 35 10 44q-3 6 -3 10z" />
    <glyph glyph-name="H" unicode="H" horiz-adv-x="1048" 
d="M113 1353q9 0 32 -13q-3 -15 -3 -22q0 -14 6 -126q2 -5 2 -8h-2l2 -6q0 -99 8 -132h-2q4 -11 8 -43q0 -2 -3 -2q5 -38 5 -57l-5 -2q0 2 -3 2v-5q8 0 8 -5v-44l46 41q72 58 231 83q88 11 95 11q211 0 304 -51q83 -34 126 -119q35 -93 35 -258q-5 -175 -11 -175l3 -5
q-5 -58 -8 -135l3 -26q0 -27 -33 -30q-94 17 -94 30v2q2 35 5 35l-2 6q0 2 2 2q0 3 -2 3l2 13q11 246 11 294l3 16q-3 4 -3 13v3q0 3 3 3q-3 5 -3 8q0 250 -107 290q-24 6 -146 14q-166 -16 -207 -33q-49 -14 -115 -59q-108 -90 -108 -215q-3 -16 -5 -16q0 -3 2 -3
q-24 -191 -24 -333l3 -25q0 -3 -16 -37l-14 -3l-81 19q-13 11 -13 19h3q0 2 -3 2l3 19v6q0 40 2 110q0 3 -2 3l2 13q0 187 11 253q0 3 -3 3l3 13q0 165 6 301q-9 22 -9 27v49l-2 16q2 5 2 8q0 5 -2 5l2 27v35q0 28 -2 59l5 62l-3 6q8 64 38 64h14z" />
    <glyph glyph-name="I" unicode="I" horiz-adv-x="242" 
d="M65 1298q54 -5 76 -5h62q24 0 157 -6l6 -3q2 0 2 3l14 -3q3 0 9 3l17 -6l3 6q19 -5 67 -8q5 2 8 2l6 -2q1 0 11 2q15 -2 28 -2v-6h9v6h11v-9h6v6h5v-6q0 -5 -8 -5v-3h5v-6l-11 3l-14 -3v3q-5 -3 -8 -3v-3h22v-5h9l8 5h6q6 -5 11 -5v-6q-48 -6 -48 -8l-3 -6l14 -3h20
q3 0 3 -2l5 2h3v-5h-45q-18 -14 -28 -14h-3l-5 2v-5l19 -3h23q3 0 3 -3l5 3h3v-6l-25 -2v-6l17 3q11 -2 11 -6l6 3q5 0 5 -8h31v-6h-3l-25 -3l-6 3q-43 -6 -61 -11q-3 0 -3 3l-14 -3q-3 0 -9 3q-3 0 -8 -3q-24 3 -39 3h-6q-9 0 -14 -3l-17 3h-31q-6 0 -11 2q-5 -2 -11 -2
h-31q-3 0 -3 2l-6 -2h-11q-13 0 -28 -3q-5 0 -5 3q-18 -3 -152 -6q-5 -3 -8 -3q-21 0 -51 112q14 31 25 31zM514 1239v-5h-19q1 -6 5 -6h23q5 0 5 6v5h-14zM495 1214v-3h17v3h-17zM161 1029q22 -7 22 -11v-113q0 -24 3 -50q-8 -89 -8 -115v-6q0 -8 2 -8l-2 -14
q-6 -245 -17 -413q3 -15 3 -31q-7 -42 -23 -42q-17 6 -28 6l-6 -3q-64 8 -64 25l-3 25q3 88 14 205q0 7 -3 11q17 259 31 365q-3 6 -3 9h3q0 3 -3 3q6 146 34 146q0 7 48 11z" />
    <glyph glyph-name="J" unicode="J" horiz-adv-x="264" 
d="M433 1252q10 -2 10 -5q2 3 44 5l13 -2v-8q-12 0 -15 -3l2 -5v-2l-13 -3h-10v5h5v3h-34v-5l5 2h8v-5q-10 -7 -10 -13l-34 -8q-5 3 -8 3l-5 -8h39v-5q-4 0 -18 -8l2 -5l-18 -5q-5 2 -8 2q-5 -2 -8 -2v-3q13 0 13 -3l13 3h13v-3q0 -7 -28 -7h-3v-6l13 3h3l18 -3l-3 6
q6 0 6 10h5v-10h-5v-6l18 3h10v-5h-20v-8h-3q-5 0 -5 5l-6 -3l-5 3l-15 -3v6h-3v-3q3 -4 3 -10q-4 0 -11 -6l-8 6q0 -11 -57 -11q-79 -2 -250 -18q-16 0 -26 63q-2 0 -2 7v3q0 3 2 3l-8 15q3 13 6 13l-3 5q0 10 18 24h8q5 0 50 -5h10q21 0 55 2l5 -2q4 2 10 2h8q6 0 10 -2
q5 2 11 2h8q7 0 7 -2l14 2h13q16 0 33 -2l37 5l18 -3q61 3 76 5zM513 1252h8v-5q-4 0 -10 -5l-3 5q1 5 5 5zM354 1174h11v6h-5q-6 -1 -6 -6zM380 1153v-2h11v2h-11zM341 1151q6 -6 6 -11h2v3q-2 5 -2 8h-6zM451 1153q5 0 5 -5v-2l-13 2l-8 -5h-2v8zM412 1151v-3q0 -3 -8 -8
q-5 0 -5 6q6 0 13 5zM427 1148v-5l-10 -3v6zM118 1026q42 -7 80 -34l-8 -75q3 -14 3 -32v-2q0 -3 -3 -3l3 -5v-29q0 -20 3 -36l-11 -219l3 -5q-21 -281 -34 -367q0 -3 3 -3q-21 -214 -50 -294q-64 -185 -213 -268q-73 -31 -123 -44q-104 -21 -190 -21h-104q-17 0 -52 -2v2
l-5 -2q-11 0 -21 2q-10 -2 -18 -2q-3 0 -3 2l-13 -2h-65q-10 0 -21 -3l-314 26q-292 39 -292 57v16q0 14 60 16l205 -29q0 2 3 2q0 -10 346 -28h3q11 0 28 2l6 -2q2 0 8 2q12 0 31 -2l88 2q90 -2 115 -2q121 15 164 34q137 45 213 166l21 45q31 66 49 166q58 476 58 692
q5 0 5 92q-3 52 -3 57q0 2 3 2l-3 13q0 112 29 112z" />
    <glyph glyph-name="K" unicode="K" horiz-adv-x="909" 
d="M106 1404v-2l5 2h8q45 0 74 -24v-16q0 -3 -3 -3q0 -3 3 -3q-3 -27 -6 -27l3 -5v-46q0 -10 3 -14q-3 -11 -6 -62q3 -6 3 -8q-3 -5 -3 -14l3 -5q-3 -6 -3 -9l3 -13h-3l3 -6q-3 -75 -3 -97l-2 -6q0 -2 2 -2l-2 -19q-3 -105 -3 -157q162 51 374 111q3 5 168 59l228 71
q58 19 73 19q40 0 40 -11q0 -3 -2 -3l2 -5q-14 -24 -16 -25l3 -5q-27 -33 -65 -46q-174 -54 -540 -184q-65 -19 -78 -19v-6q215 -223 317 -363q29 -32 54 -71q88 -98 114 -121v-19l3 -19q-5 0 -8 -14l-28 3h-10q-91 86 -149 170q-87 112 -215 261q-7 0 -108 114
q-33 35 -38 37l-127 -37v-11q0 -44 -17 -339q0 -10 6 -76q-3 -5 -3 -11q3 -5 3 -8q-3 -5 -3 -8l3 -6l-3 -16l3 -19q-9 -38 -22 -38q-33 6 -51 6h-22q-5 0 -5 8l-11 -3q-17 6 -17 22q0 5 3 5l-3 11q-2 84 -2 108q0 3 -3 9q19 261 46 881l-3 19q0 2 3 2l-3 14v27q5 62 33 62z
" />
    <glyph glyph-name="L" unicode="L" horiz-adv-x="237" 
d="M189 1504v-120q-14 -209 -14 -276v-8l3 -15q-3 0 -3 -2q3 0 3 -3v-9l-3 -5q3 0 3 -3v-52l-3 -19q3 0 3 -6q0 -12 -3 -23q3 -27 3 -51v-20l-3 -28q3 0 3 -3q-3 -5 -3 -12v-37l3 -14q-3 0 -3 -3l3 -14q0 -16 -3 -45q3 -159 8 -231l-2 -6q2 -16 5 -82q-3 -67 -3 -137v-22
q0 -15 -5 -15q0 -4 -34 -11l-12 6q0 -3 -3 -3h-17l-14 3l-3 -6q-10 3 -25 3q-17 0 -17 51v182l-3 14q3 0 3 3l-6 63l3 5q-3 5 -3 12v48l-3 14q3 0 3 3l-3 17l3 6q0 3 -3 9q3 93 3 145v267l3 14q-3 0 -3 9v17q0 12 3 31q-3 5 -3 12l3 5l-3 6q17 222 20 293l-3 45q28 23 80 23
q34 0 45 -25z" />
    <glyph glyph-name="M" unicode="M" horiz-adv-x="1671" 
d="M536 1022q96 0 216 -79q76 -73 100 -146h3q115 136 164 149q112 55 252 67q94 -18 140 -46q137 -70 173 -173q37 -82 52 -222q0 -3 -3 -3q3 -30 3 -45v-46q0 -7 -3 -12q0 -3 3 -3q-9 -121 -18 -179q3 -12 3 -22q0 -12 -18 -24h-3q-122 20 -122 52q-3 6 -3 9q15 77 21 270
q0 168 -64 289q-29 55 -106 55q-148 -22 -231 -73q-117 -92 -149 -189q-24 -56 -33 -167h-3q0 -3 3 -3l-3 -21v-33q0 -10 -3 -10l3 -15v-58q0 -6 -3 -12q0 -3 3 -3l-3 -15v-3l3 -18q-3 -6 -3 -9q3 -6 3 -9h-3q6 -10 6 -16q-13 -33 -33 -33q-116 32 -116 58v39q0 10 3 15
l-3 13q0 24 3 39q-4 211 -9 237h3q-5 12 -18 100l-24 82q-47 113 -76 113h-34q-105 0 -225 -70q-100 -79 -109 -119q-64 -90 -64 -246q-6 -11 -30 -164l3 -6q-3 -16 -3 -27v-9l3 -16q-15 -28 -21 -33h-19q-109 26 -109 52v188l15 273v25q0 7 3 12l-3 6l3 6q0 3 -3 3l3 31v42
q1 46 6 46q0 3 -3 3l3 21v49q12 25 31 30q100 -25 100 -67q4 -28 6 -36q-2 -4 -6 -49h6q139 127 237 137q49 14 103 18z" />
    <glyph glyph-name="N" unicode="N" horiz-adv-x="1072" 
d="M89 1056q75 -15 75 -28q3 -108 3 -168q0 -4 -3 -4l3 -6v-3q0 -3 -3 -3l3 -6l-3 -7l6 -3h3q86 109 172 153q100 44 172 44q95 0 253 -65q80 -42 140 -110q62 -57 103 -212q13 -76 16 -131h-3q3 -6 3 -10q0 -63 -6 -193h-3q3 -5 6 -35q-8 0 -16 -31l-6 -3h-9
q-116 25 -116 50q-3 6 -3 9q9 93 9 178v22q0 3 3 3q-3 6 -3 10q0 189 -84 321q-74 88 -115 88q-34 12 -79 12h-9q-204 0 -371 -268q-54 -147 -72 -316v-43l3 -32q-20 -37 -25 -37h-6q-119 16 -119 50v6q19 360 19 431l3 22q0 3 -3 3q0 3 3 9q5 297 25 297q6 3 34 6z" />
    <glyph glyph-name="O" unicode="O" horiz-adv-x="1112" 
d="M628 1025l6 -3q3 0 3 3q59 0 94 -32l76 -9l6 3q147 -34 211 -106q56 -62 56 -211h-3l3 -6q-3 -15 -3 -17l3 -15q-9 -76 -53 -191q-29 -64 -120 -105q-206 -94 -384 -94q0 -3 -12 -3q-104 3 -144 12q-5 -3 -11 -3q-11 6 -91 23q-174 60 -229 173q-47 108 -47 179v3
q0 3 3 3l-3 6q7 64 53 135q82 93 126 108q68 54 229 109q92 38 231 38zM576 855q-3 0 -3 3q-67 -12 -74 -12v3q-4 -3 -32 -6l-15 3q-143 -19 -199 -64q-80 -44 -147 -121q-41 -71 -41 -111v-3q29 -68 94 -103q130 -70 273 -70v-3q6 3 9 3q9 0 14 -3l74 6q3 0 3 -3q32 6 76 6
q0 6 79 17q139 44 197 80q67 29 96 105q38 109 38 159q-107 123 -299 123h-17q-96 0 -126 -9zM904 474h3q6 0 6 5v3q-4 0 -9 -8z" />
    <glyph glyph-name="P" unicode="P" horiz-adv-x="1271" 
d="M430 1022l17 -3h4q113 0 171 3q62 -3 155 -3q216 -29 336 -96q130 -86 130 -305v-7q0 -100 -113 -179q-91 -93 -261 -133q-315 -69 -432 -69h-31q-3 0 -3 3l-7 -3q-123 14 -199 14q-9 -29 -31 -189q0 -3 4 -3l-14 -100q0 -3 3 -3q-7 -35 -13 -161v-18q0 -7 -4 -13
q0 -4 4 -4q0 -71 -31 -82q-134 39 -134 69q9 38 24 271q69 501 69 593q0 145 27 391q24 17 38 17q25 -14 37 -14l223 21h21q10 0 10 3zM451 861q-51 0 -117 -10v3l-7 -3q-3 0 -3 3q-7 -3 -10 -3q-76 0 -76 -17q-10 -110 -10 -148v-41q0 -12 -4 -31q0 -3 4 -3l-4 -18v-54
q0 -76 -6 -76q0 -3 3 -3q-4 -54 -7 -59q4 -6 4 -10h30q63 -10 179 -10h20q56 0 388 72q115 36 189 92q133 94 133 162q-18 52 -147 103q-63 24 -151 41v3q-4 0 -4 -3q-55 10 -137 10h-17q-3 0 -3 3q-7 -3 -11 -3l-13 3q-7 -3 -11 -3q-6 3 -10 3l-7 -3q-6 3 -13 3l-7 -3
q-4 0 -4 3l-24 -3h-133q-4 0 -4 3q-7 -3 -10 -3z" />
    <glyph glyph-name="Q" unicode="Q" horiz-adv-x="1208" 
d="M687 1027h58q13 0 128 -29q5 3 8 3l6 -3l6 3q81 -4 139 -40q48 -27 85 -85q46 -33 46 -229v-6q0 -155 -104 -250q-52 -47 -166 -93q-78 -21 -79 -26q35 -59 140 -87q103 -18 224 -24q27 0 389 41h20l6 -3q10 6 18 6h40l18 -3q5 3 8 3q0 -4 15 -14q-9 -6 -15 -6v-3h6v-6
h-11l3 -6l-6 -3q0 3 -3 3q-3 -5 -3 -11h-6v2l3 6h-9l-14 -11h-12v5h-20q0 -14 -35 -14v-6l29 3h15v-6q-7 0 -44 -6q0 -4 17 -8l15 6q12 -12 12 -21l5 3h27v-6h-9q-28 -8 -44 -8v-3h12v-6q-9 0 -9 -6h3q6 3 9 3l3 -6l11 6l3 -6q-260 -43 -444 -58v3l-6 -3q-102 5 -102 12
q-3 0 -3 -3q-146 14 -200 40q-84 37 -131 143q-18 37 -18 46q-185 -20 -238 -20q-23 3 -70 3v3q-3 0 -3 -3q-168 20 -247 67q-25 0 -81 72q-58 122 -58 204q0 144 270 305q119 67 259 110q25 9 134 26zM873 972v-6l29 -2h5v2q-23 6 -34 6zM785 879h-17q-44 0 -70 -6l-6 3
q-91 -14 -145 -26q-3 6 -3 9q-119 -19 -302 -148q-101 -86 -125 -137l-17 -38v-11q0 -110 206 -143q21 -5 102 -14h87q13 0 192 20l-12 76v3q0 16 20 29q35 0 47 -53q7 -18 14 -46q167 45 227 90q85 64 113 157q12 36 12 104q-13 54 -108 99q-46 24 -142 32h-41q-9 0 -14 3z
M1689 205h12v-6h-12v6zM1660 182v-9h6v9h-6zM1584 109h9v6h-3q-6 -1 -6 -6z" />
    <glyph glyph-name="R" unicode="R" horiz-adv-x="1059" 
d="M450 1025h59q54 -2 210 -65q69 -34 232 -93v-3q6 3 10 3l46 -34q11 -21 28 -37q-5 -11 -34 -19q-6 3 -9 3q0 -6 -7 -6q-53 0 -266 96q-106 43 -198 43q-73 -4 -155 -46q-55 -40 -68 -53q-78 -106 -102 -303q0 -3 3 -3q-3 -14 -9 -121q0 -3 3 -3l-3 -16v-52q0 -3 -3 -3
l3 -7v-15q0 -7 -3 -12q3 -6 3 -13q-14 -40 -28 -40q-124 28 -124 53v18q6 143 6 158v62q-9 98 -9 136q0 48 9 226l-3 16h3q-3 6 -3 9q3 79 3 90q22 21 41 21q7 0 40 -15q52 -15 52 -53l4 -43q-4 0 -4 -3h4q117 98 204 111q46 13 65 13z" />
    <glyph glyph-name="S" unicode="S" horiz-adv-x="915" 
d="M715 1023q77 -5 77 -19l2 -23q-2 0 -14 -21q-12 -12 -28 -12l-23 2q0 -11 -52 -21q-98 -8 -98 -14q-215 -42 -329 -94l-40 -21q-30 -15 -98 -70q-21 -15 -31 -28q0 -6 49 -12h17q47 0 143 2l5 -2l4 2q13 -2 22 -2l11 2q3 0 3 -2l11 2h24l14 3q2 0 2 -3l12 3h68q8 0 12 2
l14 -2h58q278 -2 324 -120q12 -42 12 -89v-33q0 -62 -49 -94q-56 -47 -111 -66q-115 -35 -194 -35q0 -4 -165 -12q0 -2 -63 -7h-40l-28 -2v2l-5 -2q-82 3 -82 9q-2 0 -2 -2l-42 7l-14 -2q-2 0 -15 2q-4 -2 -7 -2q-4 0 -16 4q-4 -2 -9 -2q-10 4 -36 87q-2 0 -2 2q4 11 17 19
q87 0 152 -14h40q7 0 7 -2l12 2h42q17 0 52 5l4 -3q44 10 172 14q0 3 30 5v-2q187 30 249 84q47 35 47 61q-52 52 -129 66q-72 9 -153 9h-23q-10 0 -19 3q-9 -3 -19 -3h-16q-10 0 -10 3l-16 -3h-300q-10 0 -31 5l-5 -2q-58 12 -91 56q-26 76 -26 94q0 50 164 157
q91 49 211 84q110 26 202 40v-2q3 0 3 2z" />
    <glyph glyph-name="T" unicode="T" horiz-adv-x="301" 
d="M110 1716h26q37 0 85 -42v-19q0 -89 6 -139h-3l3 -6q0 -8 -3 -13l3 -6q0 -7 -3 -7q7 -42 7 -136v-45h111q7 0 12 4l7 -4q16 4 19 4q2 0 19 -4l6 4q13 -4 22 -4q7 0 7 4l22 -4h114l19 -3q6 3 9 3v-3q4 0 4 3q24 -3 31 -6q0 6 10 6q3 0 3 -3l16 3h60l32 4v-4l6 4h175
q29 0 82 3l6 -3q22 3 35 3h54l19 -3q12 6 35 6h3q114 0 273 9l6 -3l48 7q3 0 3 -4l22 4h13q8 0 19 -7q1 7 6 7l16 -4q1 7 6 7v-7h10v7h9q16 0 38 6l13 -3q13 3 22 3q1 -6 7 -6h6q10 9 70 9q1 -6 6 -6h3q0 10 7 10q7 -7 12 -7l7 3l6 -3q3 0 9 3l19 -3h7v10h31q4 0 4 -3l6 3
h19q3 0 3 -3l7 3q25 -3 31 -7q16 2 16 10h3l10 -6q1 6 6 6h6q9 0 19 -6q16 8 16 12h7q6 0 6 -9h35l13 9v-3l-4 -6l38 6q6 -3 13 -3l13 6q1 -6 6 -6q10 3 10 6l15 -3h4l16 3v-9h6v3l-3 6l6 3h6q4 0 4 -3q6 3 9 3t10 -3l19 3l12 -3l7 3q5 -3 12 -3l3 7q16 -3 26 -16h12v6
q-15 0 -15 6v4q25 -4 25 -10q-13 -16 -22 -16l-7 3l-6 -3q-16 4 -16 10v3h7v3h-4q-6 -3 -9 -3q-6 3 -10 3q0 -6 -6 -6l3 -7v-3h-16v3l4 7h-7l-9 -7v4l3 6h-6l-16 -3v-3h6v-7h-9l3 -6l16 3h47v-6h-19q-50 0 -60 -10l-13 6l-16 -3v3q-6 0 -57 -15h-3v-4h25v-6h-38q0 7 -15 10
q0 3 -10 6v-10h-6q0 13 -7 13h-16q-6 -1 -6 -6v-3l19 -7v-6q-11 0 -28 -3q-6 3 -13 3l-3 -6h51v-7h-58l-22 -3q0 3 -3 3l3 7v15q0 7 -6 7h-6q-13 -16 -13 -22h-29v3l4 6h-19l3 -6v-3h-13v-4q5 0 38 -3l6 3q6 -3 16 -3v-6h-41q-7 0 -13 -3q-6 3 -9 3q-44 -6 -57 -6l3 -7l16 3
q3 0 3 -3l6 3h35l19 4l7 -4l110 10l7 -10v-3q-11 3 -13 3l-16 -3q-6 3 -9 3q-13 -6 -19 -6l-22 3q-24 -6 -26 -6l-19 3l-6 -3q-6 3 -13 3q0 -4 -9 -9h-7l-9 6h-3l-10 -6h-6q-3 0 -3 3l-7 -3h-19v-4q0 -5 13 -12q6 3 9 3v3h-9v6l16 -3h16v-6h-7v-3q13 0 13 -7q-16 -6 -22 -6
v-3h6v-6h-6q-7 0 -7 9h-15q-8 0 -13 -3h-10v-10q-6 0 -6 10q-8 0 -9 -13l-134 -13l-6 4q-135 -13 -548 -32h-29q-254 0 -409 -10h-292q-92 0 -114 -6q-3 0 -3 3q-13 -3 -22 -3q-3 -100 -3 -120h-4l4 -7v-28q0 -10 -4 -10l4 -16v-34q0 -10 -4 -10l4 -16v-41q0 -26 -4 -60
l4 -7l-4 -6q0 -11 4 -16q-4 -18 -7 -168l-3 -6q3 -6 3 -13h-3l3 -6q0 -7 -3 -13l3 -6l-6 -13q6 -1 6 -6q0 -4 -3 -10q0 -3 3 -9q-3 -22 -3 -35l3 -7q-3 -6 -3 -9q3 -22 3 -35h-3q3 -6 3 -9l-3 -19l3 -13l-3 -19l3 -6l-3 -7l3 -6l-3 -7q3 -6 3 -9h-3l3 -6v-19q0 -18 3 -45
q-7 -13 -15 -41h-4q-14 0 -50 6q-3 0 -3 -3q-77 4 -77 26v202q0 65 -3 178l3 6q0 4 -3 4l3 12q0 114 10 488h-38q-63 0 -63 7q-23 -7 -64 -7q-73 0 -73 23q-16 49 -22 98v9q0 4 3 4l-3 6q6 11 19 16q35 -3 60 -3q19 0 57 6q50 -6 86 -6h32q6 0 6 6q0 48 -6 342q8 61 28 61z
M2437 1361h13v-7q-5 0 -13 -9h-6v6h-10l4 -6v-7q-24 -6 -29 -6v3l-6 -3h-10v6q7 0 16 13q3 0 3 -3zM2146 1338v-3h3q6 3 9 3v7h-6q-6 -1 -6 -7zM2101 1342v-7h10q0 7 -7 7h-3zM2047 1332v-6l7 -4h19v4q-7 0 -13 3h-9v3h-4zM2282 1332h13v-6h-13v6zM2146 1316h3v-9h-3
q-7 0 -7 6zM2174 1316h3v-3q0 -6 -6 -6h-3v3q1 6 6 6zM1981 1310q0 -5 12 -13h13q0 4 -19 13h-6zM2009 1307v-4q0 -6 10 -6h3v3q-5 0 -13 7zM1746 1303q0 -3 -3 -9h3q6 3 10 3q0 6 -7 6h-3zM1882 1297v-3h13v3h-13zM1768 1284h4q21 4 34 4v6q-38 -3 -38 -10zM1756 1284v-3h6
v10q-6 -1 -6 -7zM1974 1288v-4h7q6 4 9 4v3h-3q-5 -3 -13 -3zM2092 1294h9v-6h-9v6zM2108 1294h9v-6h-9v6zM1848 1278h15v6h-9q-6 -1 -6 -6zM1791 1275h22v6h-16q-6 -1 -6 -6zM1819 1281v-3h16v3h-16zM1765 1278v-3h16v3h-16zM1489 1275v-6h10q0 6 -6 6h-4zM1648 1275v-6h16
v3zM1718 1262q-6 3 -13 3q0 -6 -22 -6v-3h12q17 3 19 3q4 0 4 -3l63 6q5 -3 16 -3v3l6 -3l16 3q0 7 -6 7q-11 0 -16 -4q-3 0 -10 4q-53 -4 -69 -7zM1661 1262l-4 -6v-3h4q6 0 6 6zM1632 1259q0 -6 10 -6q6 3 9 3v3h-19zM1591 1256v-6h16q6 0 6 6h-22zM2006 1259l3 -6l-6 -3
l-3 6zM2019 1253h6q6 -1 6 -7h-3l-6 4q0 -7 -6 -7l-4 7zM1791 1240h15v6h-9q-6 -1 -6 -6zM1914 1250h19v-4q-3 -9 -19 -9h-9q-7 0 -7 6q8 0 16 7zM1943 1250h38v-7q-15 0 -19 -3q-5 3 -19 3v7zM1730 1243l3 -6q5 3 19 3v3h-22zM1657 1237q4 -6 4 -10h6q0 10 9 10v3h-12z
M1876 1243h19v-3q0 -5 -9 -9h-4q-6 0 -6 6v6zM1762 1237v-6h10q0 6 -7 6h-3zM1844 1234v-10h7v10h-7zM1974 1237h4l6 -3q6 3 9 3v-6h-19v6zM1936 1234h19v-3q-5 0 -12 -7q-7 0 -7 7v3zM1743 1218v-6h16q3 0 3 -4q6 4 13 4l-3 6l-7 -3h-3q-6 0 -6 6q-6 -3 -13 -3zM1914 1221
h26v-6h-26v6zM1664 1212l-3 -7h9q0 7 -6 7z" />
    <glyph glyph-name="U" unicode="U" horiz-adv-x="836" 
d="M74 1024q43 -4 82 -30l2 -5q-7 -28 -25 -229v-56q0 -13 2 -38h-2q2 -5 2 -8q0 -130 51 -231q4 0 31 -43q68 -69 96 -69q11 -7 76 -15h59q113 20 142 56q36 48 74 170q10 43 20 214q0 63 -15 233v23q0 4 13 13q17 0 48 -23l5 3l43 -39q0 -16 5 -22l-2 -6q20 -87 20 -223
q-10 -204 -30 -236q-56 -164 -107 -183q-80 -43 -160 -43q-4 -3 -13 -3q-2 0 -2 3l-13 -3h-54q-74 8 -188 43q-108 41 -170 155q-48 83 -48 318q22 266 38 266q13 8 20 8z" />
    <glyph glyph-name="V" unicode="V" horiz-adv-x="1202" 
d="M1095 1039q47 0 96 -34q0 -32 -105 -128q-131 -170 -300 -357q-74 -94 -261 -283h-2l-32 6q-3 0 -8 -3q-69 0 -82 42q-207 334 -207 346q-89 160 -136 275q-41 55 -51 90q17 20 31 20h23q28 0 37 -14q0 -4 82 -130q183 -311 224 -369q68 -105 82 -133h3q159 164 232 261
q90 96 266 317q93 94 102 94h6z" />
    <glyph glyph-name="W" unicode="W" horiz-adv-x="1580" 
d="M1411 1029q41 0 100 -47q15 -18 15 -21q-2 -35 -6 -35q12 -85 12 -115q0 -10 -3 -15q3 -21 6 -86q-3 -56 -3 -121q0 -1 -3 -11l3 -6q-20 -112 -92 -195q-82 -88 -236 -130q-60 -12 -65 -12l-6 3q-5 -3 -12 -3l-5 3q-3 0 -3 -3q-122 12 -201 44q-82 49 -133 112v6h-9
q-76 -106 -195 -153l-65 -15q-6 3 -9 3t-9 -3q-208 25 -280 77q-108 84 -160 165q-44 103 -44 234l3 41l-3 6l3 6l-3 6l50 224q16 36 56 36q36 0 48 -18q-39 -223 -39 -234v-53q0 -6 3 -12l-3 -5q3 -6 3 -12l-3 -6q3 -6 3 -9h-3q15 -118 39 -160q14 -42 115 -141
q87 -68 147 -68h36q7 5 38 12q144 87 189 203q45 137 45 222v44q0 79 -6 110l3 5q-3 26 -6 86l23 15q37 -18 45 -18q0 3 3 3q3 -9 6 -9t3 3q9 0 38 -15q24 0 24 -76q0 -78 2 -160q-2 -57 -2 -109q-3 -16 -3 -18l3 -6q0 -3 -3 -9q0 -76 53 -192q87 -85 153 -85q54 4 166 59
q109 65 139 156q23 59 23 213l-3 6q3 5 3 12l-3 6q0 3 3 3q-4 47 -6 53q0 3 3 3q-6 75 -6 168q5 38 24 38z" />
    <glyph glyph-name="X" unicode="X" horiz-adv-x="1152" 
d="M101 1022q18 0 89 -53q56 -33 188 -139q64 -44 154 -114q5 -3 8 -3q22 23 245 173q192 121 221 121h5q5 -1 5 -5l5 3h3q5 -1 5 -5l-8 -11q3 -4 3 -7q-17 -7 -18 -13h5l8 5q2 0 2 -2l13 7v-2l-3 -15q10 0 10 -5q-10 -4 -10 -8v-3q8 -9 8 -15q-4 0 -13 -12v-3h10
q-18 -25 -121 -84q-6 0 -51 -30q-89 -59 -220 -152h-3v-5q204 -143 329 -203q108 -61 127 -76q28 -62 28 -96q0 -7 -13 -13q-5 3 -7 3q-16 -8 -23 -8q-17 26 -134 89q-134 68 -388 246h-5q-29 -19 -48 -38q-8 0 -51 -36q-161 -106 -375 -261q0 -5 -28 -15q-13 0 -48 63
q-10 27 -10 31q0 8 144 109q48 34 294 200l28 23q-83 58 -215 164q-73 50 -109 79q-16 0 -43 89l2 5q-5 8 -5 15q10 5 10 7z" />
    <glyph glyph-name="Y" unicode="Y" horiz-adv-x="1005" 
d="M67 1027h16q35 -9 81 -53q-7 -34 -13 -120q0 -3 3 -3l-3 -31v-19q8 -88 18 -138l-2 -6q5 -10 5 -18h-3q22 -124 71 -199q30 -47 76 -79q82 -31 160 -31q100 0 207 55q57 35 102 110l31 65q21 189 21 362q0 20 -2 73q17 13 26 13q4 0 50 -41q39 -30 39 -42q-2 -11 -5 -11
l13 -89v-18q0 -6 2 -11q0 -2 -2 -2l2 -27v-23q0 -9 -2 -13l5 -42l-3 -5l3 -32q0 -16 -31 -149l-3 -16l3 -5q-14 -224 -45 -325q-20 -88 -105 -225q-16 -40 -139 -152q-48 -36 -94 -60q-33 -22 -152 -58q-104 -31 -215 -50q-4 3 -10 3q0 -5 -8 -5q-3 0 -3 2l-13 -2h-21
q-6 0 -10 2q-17 -5 -87 -13q0 5 -5 5q0 -10 -31 -10v2l-5 -2l-14 2q-17 -7 -36 -7h-8q-2 0 -21 5l-37 -8h-5q-6 0 -10 3l-6 -3q-28 8 -39 8l-13 -5q-17 7 -45 7q-8 -5 -15 -5l-13 3l-6 -3q-14 4 -21 8q-16 -5 -21 -5q0 5 -7 5q-8 -3 -8 -5q-19 0 -19 10h-2q-7 -5 -11 -5
q-5 3 -8 3q0 -3 -2 -3q-3 5 -3 8l-8 -5q-8 0 -13 2l-16 -2h-7q-9 0 -13 2l-16 -2h-19q-2 0 -2 2l-5 -2q-3 0 -8 2l-16 -2q-4 0 -24 5q-4 -3 -10 -3v3l-5 -3q-7 0 -16 6l-16 -3h-2q-5 5 -21 5v-5h-5q-6 0 -6 8h-8l-7 -5v5h-3q-3 0 -3 -3l-5 3h-8v-5h-8v7h-10v-5h-3l-8 5h-5
l3 -5l-5 -2q-11 6 -11 10h-8v-5h-10q-19 0 -19 5l-5 -3h-10q-6 0 -6 6q-5 -3 -7 -3q-77 13 -84 18h-3q-4 -2 -10 -2q0 7 -50 18q-3 5 -3 8h-8q-26 0 -52 29q5 2 8 2l-3 6q0 5 21 8q7 -3 26 -6l13 3q141 -18 276 -26q2 0 2 2l19 -2h60q2 0 2 -3l6 3q7 -3 7 -6q6 3 8 3
q215 -7 215 -13l5 3l6 -3q2 0 2 3l13 -3h61q2 0 2 -3l5 3h50q110 13 278 24q259 52 348 104q198 109 288 357q14 17 42 165v10h-2q-56 -42 -105 -55v3q-45 -18 -115 -26l-13 2q-12 0 -34 -2q-117 13 -202 49q-149 67 -199 171q-40 48 -63 178q-21 176 -21 212q7 173 26 173z
M-949 -304v-5h13v5h-13z" />
    <glyph glyph-name="Z" unicode="Z" horiz-adv-x="1513" 
d="M281 1023h65q248 -12 289 -12q20 3 32 3q3 0 3 -3l14 3h15q62 0 190 -3v-3l5 3h24q3 0 3 -3l6 3h11q9 0 9 -3q6 0 6 3q110 3 166 3h56q62 0 189 -3v-3l6 3h6l18 -3q5 3 8 3t3 -3l21 3h17q44 -8 44 -17l-3 -6q0 -3 3 -3l-3 -15l3 -14q-6 -1 -6 -6v-9q1 -6 6 -6l-3 -14v-9
l3 -15q-3 0 -12 -23h-32q-8 0 -134 -61q0 -11 -105 -53q-85 -49 -120 -49q-75 -40 -96 -59q-88 -44 -248 -105q0 3 17 15h-6q-68 -29 -75 -29v-6h8q0 7 53 20v-6q-245 -90 -353 -143q-58 -23 -65 -23q0 -4 73 -15q3 0 3 3q70 -6 129 -6q25 0 134 3q6 3 9 3l6 -3l96 6
q3 0 3 -3l14 3h181q146 0 146 -17l6 -9l-3 -6l-6 3h-2l11 -12v-8l-26 -3v-3q16 -6 23 -6v-6h-14q-3 0 -3 -3q-15 3 -15 6l-6 -3l-14 3v-6q14 0 14 -3l6 3l26 -14v-3h-11l-15 -3v-6l15 -3v-3q0 -6 -9 -6q-6 3 -9 3q0 -9 15 -9v-5h-15q-21 -6 -49 -9q-3 0 -3 3l-21 -3h-35
q-6 0 -11 3q-6 -3 -9 -3q-5 0 -35 3l-6 -3q-6 3 -9 3l-11 -3l-6 3l-15 -3l-6 3l-17 -3v3l-6 -3h-9q-3 0 -3 3l-6 -3h-49q-12 0 -32 -3q-3 0 -3 3l-15 -3q-60 0 -169 -6l-298 15l-6 3q-5 -3 -11 -3h-6q-9 0 -9 3l-15 -3h-8q-16 0 -41 3l-6 -3q-102 9 -102 35q-32 74 -41 87
q0 25 73 47q440 190 700 286q239 106 374 181v3h-3q-30 -3 -47 -3q-2 0 -2 3l-6 -3q-130 -1 -149 -6l-18 3h-93q-3 0 -3 3q-3 0 -3 -3l-20 3q-183 -3 -225 -3q-145 6 -210 15q-3 0 -3 -3l-21 3q-1 0 -38 -3v3l-5 -3h-33q-16 0 -40 3q-3 0 -3 -3l-21 3q-116 -6 -125 -6
q-3 0 -3 3q-3 0 -3 -3q-50 0 -50 35q-17 20 -23 58q-3 0 -3 3t3 9l-3 17l9 12q168 3 262 3zM1116 722h3q6 0 6 6h-3q-6 -1 -6 -6zM959 646h6q14 9 20 9v6h-3q-23 -10 -23 -15zM944 643v-2h3q6 2 9 2v3h-3q-6 -3 -9 -3zM900 626v-6l27 9v6h-3q-15 -9 -24 -9zM763 568v-6h3
q6 0 6 6h-9zM544 483q1 -6 6 -6h3q0 6 -6 6h-3zM500 463v-3h6q6 3 9 3v2h-6q-6 -2 -9 -2zM460 442v-3q11 5 11 9h-6q-5 -1 -5 -6zM1061 282l-3 -6q9 -6 17 -6h3v6q-8 0 -17 6zM1055 261v-6h6q6 0 6 6h-12z" />
    <glyph glyph-name="bracketleft" unicode="[" horiz-adv-x="758" 
 />
    <glyph glyph-name="backslash" unicode="\" horiz-adv-x="569" 
 />
    <glyph glyph-name="bracketright" unicode="]" horiz-adv-x="758" 
 />
    <glyph glyph-name="asciicircum" unicode="^" 
 />
    <glyph glyph-name="underscore" unicode="_" horiz-adv-x="1024" 
d="M0 -100h1024v-60h-1024v60z" />
    <glyph glyph-name="grave" unicode="`" horiz-adv-x="1024" 
d="M673 1079h-69l-330 202q-31 20 -46.5 40t-15.5 42q0 31 20.5 51t53.5 20q20 0 40.5 -12t55.5 -47z" />
    <glyph glyph-name="a" unicode="a" horiz-adv-x="1003" 
d="M851 1023h11q8 -10 33 -17q5 3 8 3q27 -17 27 -54h-3l3 -6v-2q0 -3 -19 -14q11 -11 11 -65v-22l3 -16q0 -3 -3 -3l3 -27v-60l-3 -16l3 -6q-3 -31 -8 -43q-6 -65 -6 -82q0 -91 49 -245q11 -46 11 -49q0 -7 -44 -16q0 5 -38 57q-21 32 -35 109q-2 14 -8 14
q-71 -86 -144 -131q-154 -84 -253 -84q0 -3 -19 -3h-33q-143 0 -263 84q-93 81 -128 193q0 14 -3 33q8 76 24 76l-2 6q34 101 166 184q171 114 418 177q81 22 142 22h89l6 -3q1 6 5 6zM778 908q-5 3 -8 3q-6 -4 -76 -11q-257 -67 -386 -144q-170 -98 -207 -206
q-11 -41 -11 -55v-11q11 -45 101 -95q51 -16 87 -24l5 2l25 -8l5 3q24 -2 24 -6l6 3h60q69 0 190 52q70 38 141 106q75 81 90 149v25q0 17 14 155v24q0 7 2 11q0 3 -2 3l2 19v14h-2q-12 0 -60 -9z" />
    <glyph glyph-name="b" unicode="b" horiz-adv-x="1128" 
d="M90 1348q40 0 83 -39q3 -5 3 -8q-3 -24 -3 -28q3 -5 3 -8h-3q6 -15 6 -58v-56l-3 -16q0 -3 3 -3l-3 -28v-94q0 -22 3 -52l-3 -6l3 -17v-11h3q170 100 379 100q133 0 269 -53q0 -4 66 -33q140 -78 186 -227q11 -39 19 -86h-3l3 -5v-11q0 -105 -116 -200q-124 -68 -252 -99
q-101 -36 -416 -64l-102 -14q-3 0 -3 3l-28 -3h-19q-3 0 -3 3l-5 -3h-28q-31 0 -50 50q-4 0 -17 19q-4 0 -11 11l-5 -2q-14 6 -14 24q1 42 6 42q0 3 -3 3l3 11l24 413q-2 189 -2 340v8q0 3 2 3q0 3 -2 3q9 183 16 183zM486 897v2q-120 -21 -166 -44q-138 -76 -138 -113
q0 -6 2 -6l-2 -14v-66q0 -3 -3 -3q0 -3 3 -3q-6 -23 -6 -61v-30q0 -6 -6 -6q3 -5 3 -8q0 -66 -11 -136l3 -5q-2 -25 -6 -25q4 -26 6 -33q435 44 526 80q236 69 291 163q36 47 36 114q0 59 -175 149q-119 46 -166 47q0 3 -2 3q-76 3 -92 3q-64 0 -97 -8z" />
    <glyph glyph-name="c" unicode="c" horiz-adv-x="1035" 
d="M813 1027q141 -7 141 -37v-25q0 -8 -11 -8v-5l2 -6q-10 -5 -19 -5v2q-16 -2 -16 -16q-9 0 -19 -8l-16 3q0 -7 -130 -22q-199 -43 -323 -97q-344 -168 -344 -318q12 -39 100 -81q87 -35 171 -35v-3l6 3q3 0 43 -5h73q83 0 298 27q0 2 33 5l5 -3l73 17q15 -3 25 -3h8v5
l27 -2h46v-6q-16 0 -16 -5h13l6 2l2 -5l-5 -3h-14q-9 0 -37 -5l-6 3q-5 -3 -8 -3v-3h8v-5h-3q-6 0 -10 3q-22 -3 -22 -9v-2q13 2 13 5l14 -3q14 0 30 11q0 -5 16 -8v-3l-32 -5l2 -5v-6q-6 0 -11 -3q-22 9 -40 9l-6 -3q0 3 -2 3v-6h5v-3h-8q-5 3 -8 3l-3 -5q1 -6 5 -6
q3 0 9 3l16 -3h13q0 11 6 11q0 -8 8 -8q4 0 24 5l3 -5q0 -5 -13 -8l-14 3q-9 -8 -57 -14q-3 0 -3 3q-12 -6 -27 -6v-5h6q29 3 62 3q0 -4 11 -6l3 6q-3 0 -3 2q5 3 8 3q8 -3 8 -5q2 2 19 2v-8h24v-5h-18v-3h32l5 3v-3q0 -6 -178 -32l-17 -6v3q-80 -14 -141 -19q-2 0 -2 3
q-27 -3 -52 -9l-5 3l-38 -5v2l-6 -2l-5 2q-11 -5 -30 -5h-76q-6 0 -11 3l-5 -3q-59 3 -70 5q-5 -2 -11 -2q-33 4 -33 8q-2 0 -2 -3q-100 16 -160 52q-90 48 -114 130q-16 30 -30 103l3 5q0 3 -3 3q0 78 68 162q182 188 517 274q157 41 190 41l5 -3q7 3 28 5zM157 778h2
q6 0 6 6h-3q-5 -1 -5 -6zM991 410h14v-6h-14v6zM921 369v-3l3 -5q5 3 8 3v5h-11zM902 361v-8h-14v5zM981 353h2v-3q0 -5 -5 -5l-3 5zM829 345v-6h3q5 3 8 3v5q-5 -2 -11 -2zM842 347q0 -4 17 -8v3q0 5 -6 5h-11zM924 317q2 0 2 -2q19 2 19 8v3q-21 -3 -21 -9zM758 317
q1 -5 6 -5q14 3 24 3q0 5 -5 5h-11z" />
    <glyph glyph-name="d" unicode="d" horiz-adv-x="1169" 
d="M921 1427h8q76 -24 76 -41q0 -6 -5 -6l-5 -117q2 -6 2 -9l-2 -5q2 -15 2 -25v-8l-2 -16q2 -5 2 -8q-5 -1 -5 -6l5 -3q-2 -27 -2 -40v-25q0 -6 -3 -11q5 -15 8 -76h-3l3 -6l-3 -5q6 -1 6 -6v-3q0 -2 -3 -2q3 -9 8 -41h-8q11 -13 11 -33q-6 -1 -6 -6q9 0 9 -5t-9 -5v-3
q11 0 11 -25q-2 0 -2 -3q7 0 16 -87h-5v-3q6 -6 16 -62q-3 -5 -3 -11l3 -11q-6 -1 -6 -6q11 -10 11 -52q-5 -1 -5 -5v-3q11 0 11 -33q-3 0 -3 -2q7 0 8 -36q-5 -1 -5 -5q11 -2 11 -9l-6 -8q7 0 14 -46q3 0 3 -8q-3 0 -3 -3q4 -3 19 -63q3 0 3 -8h-3l47 -128q5 -1 5 -6v-5
l-19 -28q-57 11 -63 19q-5 -2 -8 -2q-47 9 -47 46q-13 33 -30 101q-63 -67 -144 -109q-136 -82 -377 -82h-8q-7 0 -11 3q-3 0 -3 -3q-103 0 -221 41q-115 56 -167 161q-28 53 -30 112q0 60 90 186q90 118 161 147q170 95 224 107q115 27 191 35q19 0 33 3q170 -12 170 -22h5
q-8 130 -8 148q0 262 27 262q2 0 14 14zM896 908q0 -3 -13 -11l-121 8q-136 0 -289 -55q-175 -77 -235 -142q-76 -79 -126 -180q-13 -25 -16 -57q23 -58 117 -96q31 -8 115 -22l6 3q0 -6 87 -8q106 2 117 8v-3q144 22 222 66q94 47 172 136l11 19q-17 105 -36 304
q-7 30 -11 30z" />
    <glyph glyph-name="e" unicode="e" horiz-adv-x="1248" 
d="M906 1030q6 -4 10 -4q3 0 3 4l41 -7q3 0 3 3l35 -6l7 3q150 -44 184 -92q26 -31 26 -48q0 -11 -3 -28q6 -37 6 -77q0 -45 -67 -79q-64 -48 -169 -74v4q0 -7 -86 -13h-38q-10 0 -16 -3l-19 3h-51q-33 0 -251 13q-10 0 -32 54q-11 0 -22 60q-3 0 -3 3v4q0 19 57 19
q104 -10 191 -13q3 0 3 3q18 -3 26 -3q228 0 280 38q51 14 92 51q-95 45 -201 45h-12q-203 0 -494 -99q-142 -61 -242 -166q-64 -70 -73 -137q14 -38 73 -70q76 -38 217 -38q169 0 544 70l13 -3l6 3q12 0 29 -22v-3q0 -7 -6 -7q12 -18 12 -22l-3 -16l6 -35q0 -41 -28 -41
l-293 -45v3q-115 -22 -252 -22l-19 -3q-154 12 -203 35q-70 33 -112 89q-73 114 -73 194q0 79 99 191q6 0 28 29q158 149 478 216l95 23q6 -3 10 -3q0 10 194 19zM559 947h3q58 9 58 19h-4q-57 -13 -57 -19zM623 966v-3l12 -3v6h-12zM435 918v-3h9q7 0 7 6h-7q-6 -3 -9 -3z
M371 890v-4q5 0 13 13h-3q-5 0 -10 -9zM311 864h6q5 0 10 10v3q-16 -9 -16 -13zM288 851h4q5 4 12 4v6h-3q-13 -5 -13 -10zM260 842q0 -7 -7 -7v-6q5 0 10 10v3h-3z" />
    <glyph glyph-name="f" unicode="f" horiz-adv-x="308" 
d="M723 1717q156 -9 156 -28q0 -16 4 -32q-4 -16 -4 -28l4 -8l-4 -8q4 -8 4 -12q-68 -29 -68 -36l-20 4h-8q-12 -12 -76 -12h-4q-8 -8 -52 -12l-180 -76q-60 -37 -152 -144h-4v-8l300 12h16q110 0 156 -8l8 4l24 -4q109 4 132 8v-4l8 4q70 0 336 8q8 4 12 4t4 -4l40 4
q80 0 132 -8l16 4l64 -4l40 8q4 0 4 -4l20 4h36l40 4q0 -7 36 -12v-4q-7 -37 -16 -48q8 -1 8 -8q-14 -7 -20 -24q4 -7 4 -16q-10 0 -44 -56q-53 -28 -104 -28l-8 4q-3 0 -32 -4l-48 4q-4 0 -4 -4l-20 4h-120l-512 -16q-34 0 -220 4q-274 -16 -364 -16q-16 0 -36 -276l4 -24
v-64q0 -28 4 -32q-4 -27 -4 -44v-80q12 -304 20 -304q-6 -72 -20 -72q-33 27 -52 52q-25 0 -60 84v56q-8 129 -8 140v108l-4 24q8 32 8 192v20q0 14 -4 36q12 103 12 180h-4q-41 4 -64 4h-20q-9 0 -16 4q-4 0 -4 -4q-76 5 -76 12q-4 0 -4 -4q-64 0 -64 60q-16 23 -24 68
q0 4 4 4l-4 28v12q12 20 24 20q206 -16 228 -16h68q46 165 216 300q188 108 360 108z" />
    <glyph glyph-name="g" unicode="g" horiz-adv-x="1149" 
d="M1028 1044q4 0 4 -4l6 4q31 0 51 -142q2 -1 13 -67q0 -3 -3 -3q6 -35 10 -176q-3 -6 -3 -10q0 -3 3 -3q-10 -129 -27 -168v-95q0 -16 3 -33l-6 -98l3 -7q-10 -36 -17 -215h-3q0 -4 3 -4q-13 -130 -44 -188q-71 -113 -215 -176q-143 -74 -273 -74q0 -3 -10 -3q-64 3 -84 7
q-4 0 -4 -4l-16 4h-58q-115 0 -212 23l-7 -3h-6q-9 7 -14 7q-3 0 -3 -4q-59 10 -209 24q-4 0 -10 -3q-36 3 -44 6q-3 0 -3 -3l-17 3h-44q-53 0 -71 7l-6 -3l-17 3q-4 0 -10 -3q-239 21 -239 43q-51 85 -51 108v7q5 0 20 10l17 3v-3l7 3q98 -22 586 -43q0 -9 252 -31
q41 -3 61 -3q3 0 3 3l17 -3h51q11 0 17 -3l20 3q21 0 44 -3q135 13 208 53q165 84 196 132q77 70 77 300q4 0 7 30q-3 5 -3 17h-4q-64 -51 -249 -81q-27 0 -40 -7q-129 -7 -152 -7q-203 0 -377 78q-63 33 -84 81q-44 81 -51 151l3 7l-3 24q3 37 10 37l-3 6v7q32 95 121 185
q125 108 371 206q133 47 208 47q79 17 169 17h23q58 -6 58 -41q6 -20 6 -27l-6 -3l3 -7v-6q-36 -54 -88 -54q-21 -13 -198 -34q-101 -15 -300 -114q-105 -47 -212 -155q-71 -93 -71 -142v-20q86 -67 168 -67q50 -17 203 -27q168 0 333 43q148 66 148 95q10 0 24 87v51
q13 134 17 148q0 3 -4 3l4 41v33q0 59 -4 152q7 35 10 44q-3 6 -3 10z" />
    <glyph glyph-name="h" unicode="h" horiz-adv-x="1048" 
d="M113 1353q9 0 32 -13q-3 -15 -3 -22q0 -14 6 -126q2 -5 2 -8h-2l2 -6q0 -99 8 -132h-2q4 -11 8 -43q0 -2 -3 -2q5 -38 5 -57l-5 -2q0 2 -3 2v-5q8 0 8 -5v-44l46 41q72 58 231 83q88 11 95 11q211 0 304 -51q83 -34 126 -119q35 -93 35 -258q-5 -175 -11 -175l3 -5
q-5 -58 -8 -135l3 -26q0 -27 -33 -30q-94 17 -94 30v2q2 35 5 35l-2 6q0 2 2 2q0 3 -2 3l2 13q11 246 11 294l3 16q-3 4 -3 13v3q0 3 3 3q-3 5 -3 8q0 250 -107 290q-24 6 -146 14q-166 -16 -207 -33q-49 -14 -115 -59q-108 -90 -108 -215q-3 -16 -5 -16q0 -3 2 -3
q-24 -191 -24 -333l3 -25q0 -3 -16 -37l-14 -3l-81 19q-13 11 -13 19h3q0 2 -3 2l3 19v6q0 40 2 110q0 3 -2 3l2 13q0 187 11 253q0 3 -3 3l3 13q0 165 6 301q-9 22 -9 27v49l-2 16q2 5 2 8q0 5 -2 5l2 27v35q0 28 -2 59l5 62l-3 6q8 64 38 64h14z" />
    <glyph glyph-name="i" unicode="i" horiz-adv-x="242" 
d="M65 1298q54 -5 76 -5h62q24 0 157 -6l6 -3q2 0 2 3l14 -3q3 0 9 3l17 -6l3 6q19 -5 67 -8q5 2 8 2l6 -2q1 0 11 2q15 -2 28 -2v-6h9v6h11v-9h6v6h5v-6q0 -5 -8 -5v-3h5v-6l-11 3l-14 -3v3q-5 -3 -8 -3v-3h22v-5h9l8 5h6q6 -5 11 -5v-6q-48 -6 -48 -8l-3 -6l14 -3h20
q3 0 3 -2l5 2h3v-5h-45q-18 -14 -28 -14h-3l-5 2v-5l19 -3h23q3 0 3 -3l5 3h3v-6l-25 -2v-6l17 3q11 -2 11 -6l6 3q5 0 5 -8h31v-6h-3l-25 -3l-6 3q-43 -6 -61 -11q-3 0 -3 3l-14 -3q-3 0 -9 3q-3 0 -8 -3q-24 3 -39 3h-6q-9 0 -14 -3l-17 3h-31q-6 0 -11 2q-5 -2 -11 -2
h-31q-3 0 -3 2l-6 -2h-11q-13 0 -28 -3q-5 0 -5 3q-18 -3 -152 -6q-5 -3 -8 -3q-21 0 -51 112q14 31 25 31zM514 1239v-5h-19q1 -6 5 -6h23q5 0 5 6v5h-14zM495 1214v-3h17v3h-17zM161 1029q22 -7 22 -11v-113q0 -24 3 -50q-8 -89 -8 -115v-6q0 -8 2 -8l-2 -14
q-6 -245 -17 -413q3 -15 3 -31q-7 -42 -23 -42q-17 6 -28 6l-6 -3q-64 8 -64 25l-3 25q3 88 14 205q0 7 -3 11q17 259 31 365q-3 6 -3 9h3q0 3 -3 3q6 146 34 146q0 7 48 11z" />
    <glyph glyph-name="j" unicode="j" horiz-adv-x="264" 
d="M433 1252q10 -2 10 -5q2 3 44 5l13 -2v-8q-12 0 -15 -3l2 -5v-2l-13 -3h-10v5h5v3h-34v-5l5 2h8v-5q-10 -7 -10 -13l-34 -8q-5 3 -8 3l-5 -8h39v-5q-4 0 -18 -8l2 -5l-18 -5q-5 2 -8 2q-5 -2 -8 -2v-3q13 0 13 -3l13 3h13v-3q0 -7 -28 -7h-3v-6l13 3h3l18 -3l-3 6
q6 0 6 10h5v-10h-5v-6l18 3h10v-5h-20v-8h-3q-5 0 -5 5l-6 -3l-5 3l-15 -3v6h-3v-3q3 -4 3 -10q-4 0 -11 -6l-8 6q0 -11 -57 -11q-79 -2 -250 -18q-16 0 -26 63q-2 0 -2 7v3q0 3 2 3l-8 15q3 13 6 13l-3 5q0 10 18 24h8q5 0 50 -5h10q21 0 55 2l5 -2q4 2 10 2h8q6 0 10 -2
q5 2 11 2h8q7 0 7 -2l14 2h13q16 0 33 -2l37 5l18 -3q61 3 76 5zM513 1252h8v-5q-4 0 -10 -5l-3 5q1 5 5 5zM354 1174h11v6h-5q-6 -1 -6 -6zM380 1153v-2h11v2h-11zM341 1151q6 -6 6 -11h2v3q-2 5 -2 8h-6zM451 1153q5 0 5 -5v-2l-13 2l-8 -5h-2v8zM412 1151v-3q0 -3 -8 -8
q-5 0 -5 6q6 0 13 5zM427 1148v-5l-10 -3v6zM118 1026q42 -7 80 -34l-8 -75q3 -14 3 -32v-2q0 -3 -3 -3l3 -5v-29q0 -20 3 -36l-11 -219l3 -5q-21 -281 -34 -367q0 -3 3 -3q-21 -214 -50 -294q-64 -185 -213 -268q-73 -31 -123 -44q-104 -21 -190 -21h-104q-17 0 -52 -2v2
l-5 -2q-11 0 -21 2q-10 -2 -18 -2q-3 0 -3 2l-13 -2h-65q-10 0 -21 -3l-314 26q-292 39 -292 57v16q0 14 60 16l205 -29q0 2 3 2q0 -10 346 -28h3q11 0 28 2l6 -2q2 0 8 2q12 0 31 -2l88 2q90 -2 115 -2q121 15 164 34q137 45 213 166l21 45q31 66 49 166q58 476 58 692
q5 0 5 92q-3 52 -3 57q0 2 3 2l-3 13q0 112 29 112z" />
    <glyph glyph-name="k" unicode="k" horiz-adv-x="909" 
d="M106 1404v-2l5 2h8q45 0 74 -24v-16q0 -3 -3 -3q0 -3 3 -3q-3 -27 -6 -27l3 -5v-46q0 -10 3 -14q-3 -11 -6 -62q3 -6 3 -8q-3 -5 -3 -14l3 -5q-3 -6 -3 -9l3 -13h-3l3 -6q-3 -75 -3 -97l-2 -6q0 -2 2 -2l-2 -19q-3 -105 -3 -157q162 51 374 111q3 5 168 59l228 71
q58 19 73 19q40 0 40 -11q0 -3 -2 -3l2 -5q-14 -24 -16 -25l3 -5q-27 -33 -65 -46q-174 -54 -540 -184q-65 -19 -78 -19v-6q215 -223 317 -363q29 -32 54 -71q88 -98 114 -121v-19l3 -19q-5 0 -8 -14l-28 3h-10q-91 86 -149 170q-87 112 -215 261q-7 0 -108 114
q-33 35 -38 37l-127 -37v-11q0 -44 -17 -339q0 -10 6 -76q-3 -5 -3 -11q3 -5 3 -8q-3 -5 -3 -8l3 -6l-3 -16l3 -19q-9 -38 -22 -38q-33 6 -51 6h-22q-5 0 -5 8l-11 -3q-17 6 -17 22q0 5 3 5l-3 11q-2 84 -2 108q0 3 -3 9q19 261 46 881l-3 19q0 2 3 2l-3 14v27q5 62 33 62z
" />
    <glyph glyph-name="l" unicode="l" horiz-adv-x="237" 
d="M189 1504v-120q-14 -209 -14 -276v-8l3 -15q-3 0 -3 -2q3 0 3 -3v-9l-3 -5q3 0 3 -3v-52l-3 -19q3 0 3 -6q0 -12 -3 -23q3 -27 3 -51v-20l-3 -28q3 0 3 -3q-3 -5 -3 -12v-37l3 -14q-3 0 -3 -3l3 -14q0 -16 -3 -45q3 -159 8 -231l-2 -6q2 -16 5 -82q-3 -67 -3 -137v-22
q0 -15 -5 -15q0 -4 -34 -11l-12 6q0 -3 -3 -3h-17l-14 3l-3 -6q-10 3 -25 3q-17 0 -17 51v182l-3 14q3 0 3 3l-6 63l3 5q-3 5 -3 12v48l-3 14q3 0 3 3l-3 17l3 6q0 3 -3 9q3 93 3 145v267l3 14q-3 0 -3 9v17q0 12 3 31q-3 5 -3 12l3 5l-3 6q17 222 20 293l-3 45q28 23 80 23
q34 0 45 -25z" />
    <glyph glyph-name="m" unicode="m" horiz-adv-x="1671" 
d="M536 1022q96 0 216 -79q76 -73 100 -146h3q115 136 164 149q112 55 252 67q94 -18 140 -46q137 -70 173 -173q37 -82 52 -222q0 -3 -3 -3q3 -30 3 -45v-46q0 -7 -3 -12q0 -3 3 -3q-9 -121 -18 -179q3 -12 3 -22q0 -12 -18 -24h-3q-122 20 -122 52q-3 6 -3 9q15 77 21 270
q0 168 -64 289q-29 55 -106 55q-148 -22 -231 -73q-117 -92 -149 -189q-24 -56 -33 -167h-3q0 -3 3 -3l-3 -21v-33q0 -10 -3 -10l3 -15v-58q0 -6 -3 -12q0 -3 3 -3l-3 -15v-3l3 -18q-3 -6 -3 -9q3 -6 3 -9h-3q6 -10 6 -16q-13 -33 -33 -33q-116 32 -116 58v39q0 10 3 15
l-3 13q0 24 3 39q-4 211 -9 237h3q-5 12 -18 100l-24 82q-47 113 -76 113h-34q-105 0 -225 -70q-100 -79 -109 -119q-64 -90 -64 -246q-6 -11 -30 -164l3 -6q-3 -16 -3 -27v-9l3 -16q-15 -28 -21 -33h-19q-109 26 -109 52v188l15 273v25q0 7 3 12l-3 6l3 6q0 3 -3 3l3 31v42
q1 46 6 46q0 3 -3 3l3 21v49q12 25 31 30q100 -25 100 -67q4 -28 6 -36q-2 -4 -6 -49h6q139 127 237 137q49 14 103 18z" />
    <glyph glyph-name="n" unicode="n" horiz-adv-x="1072" 
d="M89 1056q75 -15 75 -28q3 -108 3 -168q0 -4 -3 -4l3 -6v-3q0 -3 -3 -3l3 -6l-3 -7l6 -3h3q86 109 172 153q100 44 172 44q95 0 253 -65q80 -42 140 -110q62 -57 103 -212q13 -76 16 -131h-3q3 -6 3 -10q0 -63 -6 -193h-3q3 -5 6 -35q-8 0 -16 -31l-6 -3h-9
q-116 25 -116 50q-3 6 -3 9q9 93 9 178v22q0 3 3 3q-3 6 -3 10q0 189 -84 321q-74 88 -115 88q-34 12 -79 12h-9q-204 0 -371 -268q-54 -147 -72 -316v-43l3 -32q-20 -37 -25 -37h-6q-119 16 -119 50v6q19 360 19 431l3 22q0 3 -3 3q0 3 3 9q5 297 25 297q6 3 34 6z" />
    <glyph glyph-name="o" unicode="o" horiz-adv-x="1112" 
d="M628 1025l6 -3q3 0 3 3q59 0 94 -32l76 -9l6 3q147 -34 211 -106q56 -62 56 -211h-3l3 -6q-3 -15 -3 -17l3 -15q-9 -76 -53 -191q-29 -64 -120 -105q-206 -94 -384 -94q0 -3 -12 -3q-104 3 -144 12q-5 -3 -11 -3q-11 6 -91 23q-174 60 -229 173q-47 108 -47 179v3
q0 3 3 3l-3 6q7 64 53 135q82 93 126 108q68 54 229 109q92 38 231 38zM576 855q-3 0 -3 3q-67 -12 -74 -12v3q-4 -3 -32 -6l-15 3q-143 -19 -199 -64q-80 -44 -147 -121q-41 -71 -41 -111v-3q29 -68 94 -103q130 -70 273 -70v-3q6 3 9 3q9 0 14 -3l74 6q3 0 3 -3q32 6 76 6
q0 6 79 17q139 44 197 80q67 29 96 105q38 109 38 159q-107 123 -299 123h-17q-96 0 -126 -9zM904 474h3q6 0 6 5v3q-4 0 -9 -8z" />
    <glyph glyph-name="p" unicode="p" horiz-adv-x="1271" 
d="M430 1022l17 -3h4q113 0 171 3q62 -3 155 -3q216 -29 336 -96q130 -86 130 -305v-7q0 -100 -113 -179q-91 -93 -261 -133q-315 -69 -432 -69h-31q-3 0 -3 3l-7 -3q-123 14 -199 14q-9 -29 -31 -189q0 -3 4 -3l-14 -100q0 -3 3 -3q-7 -35 -13 -161v-18q0 -7 -4 -13
q0 -4 4 -4q0 -71 -31 -82q-134 39 -134 69q9 38 24 271q69 501 69 593q0 145 27 391q24 17 38 17q25 -14 37 -14l223 21h21q10 0 10 3zM451 861q-51 0 -117 -10v3l-7 -3q-3 0 -3 3q-7 -3 -10 -3q-76 0 -76 -17q-10 -110 -10 -148v-41q0 -12 -4 -31q0 -3 4 -3l-4 -18v-54
q0 -76 -6 -76q0 -3 3 -3q-4 -54 -7 -59q4 -6 4 -10h30q63 -10 179 -10h20q56 0 388 72q115 36 189 92q133 94 133 162q-18 52 -147 103q-63 24 -151 41v3q-4 0 -4 -3q-55 10 -137 10h-17q-3 0 -3 3q-7 -3 -11 -3l-13 3q-7 -3 -11 -3q-6 3 -10 3l-7 -3q-6 3 -13 3l-7 -3
q-4 0 -4 3l-24 -3h-133q-4 0 -4 3q-7 -3 -10 -3z" />
    <glyph glyph-name="q" unicode="q" horiz-adv-x="1208" 
d="M687 1027h58q13 0 128 -29q5 3 8 3l6 -3l6 3q81 -4 139 -40q48 -27 85 -85q46 -33 46 -229v-6q0 -155 -104 -250q-52 -47 -166 -93q-78 -21 -79 -26q35 -59 140 -87q103 -18 224 -24q27 0 389 41h20l6 -3q10 6 18 6h40l18 -3q5 3 8 3q0 -4 15 -14q-9 -6 -15 -6v-3h6v-6
h-11l3 -6l-6 -3q0 3 -3 3q-3 -5 -3 -11h-6v2l3 6h-9l-14 -11h-12v5h-20q0 -14 -35 -14v-6l29 3h15v-6q-7 0 -44 -6q0 -4 17 -8l15 6q12 -12 12 -21l5 3h27v-6h-9q-28 -8 -44 -8v-3h12v-6q-9 0 -9 -6h3q6 3 9 3l3 -6l11 6l3 -6q-260 -43 -444 -58v3l-6 -3q-102 5 -102 12
q-3 0 -3 -3q-146 14 -200 40q-84 37 -131 143q-18 37 -18 46q-185 -20 -238 -20q-23 3 -70 3v3q-3 0 -3 -3q-168 20 -247 67q-25 0 -81 72q-58 122 -58 204q0 144 270 305q119 67 259 110q25 9 134 26zM873 972v-6l29 -2h5v2q-23 6 -34 6zM785 879h-17q-44 0 -70 -6l-6 3
q-91 -14 -145 -26q-3 6 -3 9q-119 -19 -302 -148q-101 -86 -125 -137l-17 -38v-11q0 -110 206 -143q21 -5 102 -14h87q13 0 192 20l-12 76v3q0 16 20 29q35 0 47 -53q7 -18 14 -46q167 45 227 90q85 64 113 157q12 36 12 104q-13 54 -108 99q-46 24 -142 32h-41q-9 0 -14 3z
M1689 205h12v-6h-12v6zM1660 182v-9h6v9h-6zM1584 109h9v6h-3q-6 -1 -6 -6z" />
    <glyph glyph-name="r" unicode="r" horiz-adv-x="1059" 
d="M450 1025h59q54 -2 210 -65q69 -34 232 -93v-3q6 3 10 3l46 -34q11 -21 28 -37q-5 -11 -34 -19q-6 3 -9 3q0 -6 -7 -6q-53 0 -266 96q-106 43 -198 43q-73 -4 -155 -46q-55 -40 -68 -53q-78 -106 -102 -303q0 -3 3 -3q-3 -14 -9 -121q0 -3 3 -3l-3 -16v-52q0 -3 -3 -3
l3 -7v-15q0 -7 -3 -12q3 -6 3 -13q-14 -40 -28 -40q-124 28 -124 53v18q6 143 6 158v62q-9 98 -9 136q0 48 9 226l-3 16h3q-3 6 -3 9q3 79 3 90q22 21 41 21q7 0 40 -15q52 -15 52 -53l4 -43q-4 0 -4 -3h4q117 98 204 111q46 13 65 13z" />
    <glyph glyph-name="s" unicode="s" horiz-adv-x="915" 
d="M715 1023q77 -5 77 -19l2 -23q-2 0 -14 -21q-12 -12 -28 -12l-23 2q0 -11 -52 -21q-98 -8 -98 -14q-215 -42 -329 -94l-40 -21q-30 -15 -98 -70q-21 -15 -31 -28q0 -6 49 -12h17q47 0 143 2l5 -2l4 2q13 -2 22 -2l11 2q3 0 3 -2l11 2h24l14 3q2 0 2 -3l12 3h68q8 0 12 2
l14 -2h58q278 -2 324 -120q12 -42 12 -89v-33q0 -62 -49 -94q-56 -47 -111 -66q-115 -35 -194 -35q0 -4 -165 -12q0 -2 -63 -7h-40l-28 -2v2l-5 -2q-82 3 -82 9q-2 0 -2 -2l-42 7l-14 -2q-2 0 -15 2q-4 -2 -7 -2q-4 0 -16 4q-4 -2 -9 -2q-10 4 -36 87q-2 0 -2 2q4 11 17 19
q87 0 152 -14h40q7 0 7 -2l12 2h42q17 0 52 5l4 -3q44 10 172 14q0 3 30 5v-2q187 30 249 84q47 35 47 61q-52 52 -129 66q-72 9 -153 9h-23q-10 0 -19 3q-9 -3 -19 -3h-16q-10 0 -10 3l-16 -3h-300q-10 0 -31 5l-5 -2q-58 12 -91 56q-26 76 -26 94q0 50 164 157
q91 49 211 84q110 26 202 40v-2q3 0 3 2z" />
    <glyph glyph-name="t" unicode="t" horiz-adv-x="301" 
d="M110 1716h26q37 0 85 -42v-19q0 -89 6 -139h-3l3 -6q0 -8 -3 -13l3 -6q0 -7 -3 -7q7 -42 7 -136v-45h111q7 0 12 4l7 -4q16 4 19 4q2 0 19 -4l6 4q13 -4 22 -4q7 0 7 4l22 -4h114l19 -3q6 3 9 3v-3q4 0 4 3q24 -3 31 -6q0 6 10 6q3 0 3 -3l16 3h60l32 4v-4l6 4h175
q29 0 82 3l6 -3q22 3 35 3h54l19 -3q12 6 35 6h3q114 0 273 9l6 -3l48 7q3 0 3 -4l22 4h13q8 0 19 -7q1 7 6 7l16 -4q1 7 6 7v-7h10v7h9q16 0 38 6l13 -3q13 3 22 3q1 -6 7 -6h6q10 9 70 9q1 -6 6 -6h3q0 10 7 10q7 -7 12 -7l7 3l6 -3q3 0 9 3l19 -3h7v10h31q4 0 4 -3l6 3
h19q3 0 3 -3l7 3q25 -3 31 -7q16 2 16 10h3l10 -6q1 6 6 6h6q9 0 19 -6q16 8 16 12h7q6 0 6 -9h35l13 9v-3l-4 -6l38 6q6 -3 13 -3l13 6q1 -6 6 -6q10 3 10 6l15 -3h4l16 3v-9h6v3l-3 6l6 3h6q4 0 4 -3q6 3 9 3t10 -3l19 3l12 -3l7 3q5 -3 12 -3l3 7q16 -3 26 -16h12v6
q-15 0 -15 6v4q25 -4 25 -10q-13 -16 -22 -16l-7 3l-6 -3q-16 4 -16 10v3h7v3h-4q-6 -3 -9 -3q-6 3 -10 3q0 -6 -6 -6l3 -7v-3h-16v3l4 7h-7l-9 -7v4l3 6h-6l-16 -3v-3h6v-7h-9l3 -6l16 3h47v-6h-19q-50 0 -60 -10l-13 6l-16 -3v3q-6 0 -57 -15h-3v-4h25v-6h-38q0 7 -15 10
q0 3 -10 6v-10h-6q0 13 -7 13h-16q-6 -1 -6 -6v-3l19 -7v-6q-11 0 -28 -3q-6 3 -13 3l-3 -6h51v-7h-58l-22 -3q0 3 -3 3l3 7v15q0 7 -6 7h-6q-13 -16 -13 -22h-29v3l4 6h-19l3 -6v-3h-13v-4q5 0 38 -3l6 3q6 -3 16 -3v-6h-41q-7 0 -13 -3q-6 3 -9 3q-44 -6 -57 -6l3 -7l16 3
q3 0 3 -3l6 3h35l19 4l7 -4l110 10l7 -10v-3q-11 3 -13 3l-16 -3q-6 3 -9 3q-13 -6 -19 -6l-22 3q-24 -6 -26 -6l-19 3l-6 -3q-6 3 -13 3q0 -4 -9 -9h-7l-9 6h-3l-10 -6h-6q-3 0 -3 3l-7 -3h-19v-4q0 -5 13 -12q6 3 9 3v3h-9v6l16 -3h16v-6h-7v-3q13 0 13 -7q-16 -6 -22 -6
v-3h6v-6h-6q-7 0 -7 9h-15q-8 0 -13 -3h-10v-10q-6 0 -6 10q-8 0 -9 -13l-134 -13l-6 4q-135 -13 -548 -32h-29q-254 0 -409 -10h-292q-92 0 -114 -6q-3 0 -3 3q-13 -3 -22 -3q-3 -100 -3 -120h-4l4 -7v-28q0 -10 -4 -10l4 -16v-34q0 -10 -4 -10l4 -16v-41q0 -26 -4 -60
l4 -7l-4 -6q0 -11 4 -16q-4 -18 -7 -168l-3 -6q3 -6 3 -13h-3l3 -6q0 -7 -3 -13l3 -6l-6 -13q6 -1 6 -6q0 -4 -3 -10q0 -3 3 -9q-3 -22 -3 -35l3 -7q-3 -6 -3 -9q3 -22 3 -35h-3q3 -6 3 -9l-3 -19l3 -13l-3 -19l3 -6l-3 -7l3 -6l-3 -7q3 -6 3 -9h-3l3 -6v-19q0 -18 3 -45
q-7 -13 -15 -41h-4q-14 0 -50 6q-3 0 -3 -3q-77 4 -77 26v202q0 65 -3 178l3 6q0 4 -3 4l3 12q0 114 10 488h-38q-63 0 -63 7q-23 -7 -64 -7q-73 0 -73 23q-16 49 -22 98v9q0 4 3 4l-3 6q6 11 19 16q35 -3 60 -3q19 0 57 6q50 -6 86 -6h32q6 0 6 6q0 48 -6 342q8 61 28 61z
M2437 1361h13v-7q-5 0 -13 -9h-6v6h-10l4 -6v-7q-24 -6 -29 -6v3l-6 -3h-10v6q7 0 16 13q3 0 3 -3zM2146 1338v-3h3q6 3 9 3v7h-6q-6 -1 -6 -7zM2101 1342v-7h10q0 7 -7 7h-3zM2047 1332v-6l7 -4h19v4q-7 0 -13 3h-9v3h-4zM2282 1332h13v-6h-13v6zM2146 1316h3v-9h-3
q-7 0 -7 6zM2174 1316h3v-3q0 -6 -6 -6h-3v3q1 6 6 6zM1981 1310q0 -5 12 -13h13q0 4 -19 13h-6zM2009 1307v-4q0 -6 10 -6h3v3q-5 0 -13 7zM1746 1303q0 -3 -3 -9h3q6 3 10 3q0 6 -7 6h-3zM1882 1297v-3h13v3h-13zM1768 1284h4q21 4 34 4v6q-38 -3 -38 -10zM1756 1284v-3h6
v10q-6 -1 -6 -7zM1974 1288v-4h7q6 4 9 4v3h-3q-5 -3 -13 -3zM2092 1294h9v-6h-9v6zM2108 1294h9v-6h-9v6zM1848 1278h15v6h-9q-6 -1 -6 -6zM1791 1275h22v6h-16q-6 -1 -6 -6zM1819 1281v-3h16v3h-16zM1765 1278v-3h16v3h-16zM1489 1275v-6h10q0 6 -6 6h-4zM1648 1275v-6h16
v3zM1718 1262q-6 3 -13 3q0 -6 -22 -6v-3h12q17 3 19 3q4 0 4 -3l63 6q5 -3 16 -3v3l6 -3l16 3q0 7 -6 7q-11 0 -16 -4q-3 0 -10 4q-53 -4 -69 -7zM1661 1262l-4 -6v-3h4q6 0 6 6zM1632 1259q0 -6 10 -6q6 3 9 3v3h-19zM1591 1256v-6h16q6 0 6 6h-22zM2006 1259l3 -6l-6 -3
l-3 6zM2019 1253h6q6 -1 6 -7h-3l-6 4q0 -7 -6 -7l-4 7zM1791 1240h15v6h-9q-6 -1 -6 -6zM1914 1250h19v-4q-3 -9 -19 -9h-9q-7 0 -7 6q8 0 16 7zM1943 1250h38v-7q-15 0 -19 -3q-5 3 -19 3v7zM1730 1243l3 -6q5 3 19 3v3h-22zM1657 1237q4 -6 4 -10h6q0 10 9 10v3h-12z
M1876 1243h19v-3q0 -5 -9 -9h-4q-6 0 -6 6v6zM1762 1237v-6h10q0 6 -7 6h-3zM1844 1234v-10h7v10h-7zM1974 1237h4l6 -3q6 3 9 3v-6h-19v6zM1936 1234h19v-3q-5 0 -12 -7q-7 0 -7 7v3zM1743 1218v-6h16q3 0 3 -4q6 4 13 4l-3 6l-7 -3h-3q-6 0 -6 6q-6 -3 -13 -3zM1914 1221
h26v-6h-26v6zM1664 1212l-3 -7h9q0 7 -6 7z" />
    <glyph glyph-name="u" unicode="u" horiz-adv-x="836" 
d="M74 1024q43 -4 82 -30l2 -5q-7 -28 -25 -229v-56q0 -13 2 -38h-2q2 -5 2 -8q0 -130 51 -231q4 0 31 -43q68 -69 96 -69q11 -7 76 -15h59q113 20 142 56q36 48 74 170q10 43 20 214q0 63 -15 233v23q0 4 13 13q17 0 48 -23l5 3l43 -39q0 -16 5 -22l-2 -6q20 -87 20 -223
q-10 -204 -30 -236q-56 -164 -107 -183q-80 -43 -160 -43q-4 -3 -13 -3q-2 0 -2 3l-13 -3h-54q-74 8 -188 43q-108 41 -170 155q-48 83 -48 318q22 266 38 266q13 8 20 8z" />
    <glyph glyph-name="v" unicode="v" horiz-adv-x="1202" 
d="M1095 1039q47 0 96 -34q0 -32 -105 -128q-131 -170 -300 -357q-74 -94 -261 -283h-2l-32 6q-3 0 -8 -3q-69 0 -82 42q-207 334 -207 346q-89 160 -136 275q-41 55 -51 90q17 20 31 20h23q28 0 37 -14q0 -4 82 -130q183 -311 224 -369q68 -105 82 -133h3q159 164 232 261
q90 96 266 317q93 94 102 94h6z" />
    <glyph glyph-name="w" unicode="w" horiz-adv-x="1580" 
d="M1411 1029q41 0 100 -47q15 -18 15 -21q-2 -35 -6 -35q12 -85 12 -115q0 -10 -3 -15q3 -21 6 -86q-3 -56 -3 -121q0 -1 -3 -11l3 -6q-20 -112 -92 -195q-82 -88 -236 -130q-60 -12 -65 -12l-6 3q-5 -3 -12 -3l-5 3q-3 0 -3 -3q-122 12 -201 44q-82 49 -133 112v6h-9
q-76 -106 -195 -153l-65 -15q-6 3 -9 3t-9 -3q-208 25 -280 77q-108 84 -160 165q-44 103 -44 234l3 41l-3 6l3 6l-3 6l50 224q16 36 56 36q36 0 48 -18q-39 -223 -39 -234v-53q0 -6 3 -12l-3 -5q3 -6 3 -12l-3 -6q3 -6 3 -9h-3q15 -118 39 -160q14 -42 115 -141
q87 -68 147 -68h36q7 5 38 12q144 87 189 203q45 137 45 222v44q0 79 -6 110l3 5q-3 26 -6 86l23 15q37 -18 45 -18q0 3 3 3q3 -9 6 -9t3 3q9 0 38 -15q24 0 24 -76q0 -78 2 -160q-2 -57 -2 -109q-3 -16 -3 -18l3 -6q0 -3 -3 -9q0 -76 53 -192q87 -85 153 -85q54 4 166 59
q109 65 139 156q23 59 23 213l-3 6q3 5 3 12l-3 6q0 3 3 3q-4 47 -6 53q0 3 3 3q-6 75 -6 168q5 38 24 38z" />
    <glyph glyph-name="x" unicode="x" horiz-adv-x="1152" 
d="M101 1022q18 0 89 -53q56 -33 188 -139q64 -44 154 -114q5 -3 8 -3q22 23 245 173q192 121 221 121h5q5 -1 5 -5l5 3h3q5 -1 5 -5l-8 -11q3 -4 3 -7q-17 -7 -18 -13h5l8 5q2 0 2 -2l13 7v-2l-3 -15q10 0 10 -5q-10 -4 -10 -8v-3q8 -9 8 -15q-4 0 -13 -12v-3h10
q-18 -25 -121 -84q-6 0 -51 -30q-89 -59 -220 -152h-3v-5q204 -143 329 -203q108 -61 127 -76q28 -62 28 -96q0 -7 -13 -13q-5 3 -7 3q-16 -8 -23 -8q-17 26 -134 89q-134 68 -388 246h-5q-29 -19 -48 -38q-8 0 -51 -36q-161 -106 -375 -261q0 -5 -28 -15q-13 0 -48 63
q-10 27 -10 31q0 8 144 109q48 34 294 200l28 23q-83 58 -215 164q-73 50 -109 79q-16 0 -43 89l2 5q-5 8 -5 15q10 5 10 7z" />
    <glyph glyph-name="y" unicode="y" horiz-adv-x="1005" 
d="M67 1027h16q35 -9 81 -53q-7 -34 -13 -120q0 -3 3 -3l-3 -31v-19q8 -88 18 -138l-2 -6q5 -10 5 -18h-3q22 -124 71 -199q30 -47 76 -79q82 -31 160 -31q100 0 207 55q57 35 102 110l31 65q21 189 21 362q0 20 -2 73q17 13 26 13q4 0 50 -41q39 -30 39 -42q-2 -11 -5 -11
l13 -89v-18q0 -6 2 -11q0 -2 -2 -2l2 -27v-23q0 -9 -2 -13l5 -42l-3 -5l3 -32q0 -16 -31 -149l-3 -16l3 -5q-14 -224 -45 -325q-20 -88 -105 -225q-16 -40 -139 -152q-48 -36 -94 -60q-33 -22 -152 -58q-104 -31 -215 -50q-4 3 -10 3q0 -5 -8 -5q-3 0 -3 2l-13 -2h-21
q-6 0 -10 2q-17 -5 -87 -13q0 5 -5 5q0 -10 -31 -10v2l-5 -2l-14 2q-17 -7 -36 -7h-8q-2 0 -21 5l-37 -8h-5q-6 0 -10 3l-6 -3q-28 8 -39 8l-13 -5q-17 7 -45 7q-8 -5 -15 -5l-13 3l-6 -3q-14 4 -21 8q-16 -5 -21 -5q0 5 -7 5q-8 -3 -8 -5q-19 0 -19 10h-2q-7 -5 -11 -5
q-5 3 -8 3q0 -3 -2 -3q-3 5 -3 8l-8 -5q-8 0 -13 2l-16 -2h-7q-9 0 -13 2l-16 -2h-19q-2 0 -2 2l-5 -2q-3 0 -8 2l-16 -2q-4 0 -24 5q-4 -3 -10 -3v3l-5 -3q-7 0 -16 6l-16 -3h-2q-5 5 -21 5v-5h-5q-6 0 -6 8h-8l-7 -5v5h-3q-3 0 -3 -3l-5 3h-8v-5h-8v7h-10v-5h-3l-8 5h-5
l3 -5l-5 -2q-11 6 -11 10h-8v-5h-10q-19 0 -19 5l-5 -3h-10q-6 0 -6 6q-5 -3 -7 -3q-77 13 -84 18h-3q-4 -2 -10 -2q0 7 -50 18q-3 5 -3 8h-8q-26 0 -52 29q5 2 8 2l-3 6q0 5 21 8q7 -3 26 -6l13 3q141 -18 276 -26q2 0 2 2l19 -2h60q2 0 2 -3l6 3q7 -3 7 -6q6 3 8 3
q215 -7 215 -13l5 3l6 -3q2 0 2 3l13 -3h61q2 0 2 -3l5 3h50q110 13 278 24q259 52 348 104q198 109 288 357q14 17 42 165v10h-2q-56 -42 -105 -55v3q-45 -18 -115 -26l-13 2q-12 0 -34 -2q-117 13 -202 49q-149 67 -199 171q-40 48 -63 178q-21 176 -21 212q7 173 26 173z
M-949 -304v-5h13v5h-13z" />
    <glyph glyph-name="z" unicode="z" horiz-adv-x="1513" 
d="M281 1023h65q248 -12 289 -12q20 3 32 3q3 0 3 -3l14 3h15q62 0 190 -3v-3l5 3h24q3 0 3 -3l6 3h11q9 0 9 -3q6 0 6 3q110 3 166 3h56q62 0 189 -3v-3l6 3h6l18 -3q5 3 8 3t3 -3l21 3h17q44 -8 44 -17l-3 -6q0 -3 3 -3l-3 -15l3 -14q-6 -1 -6 -6v-9q1 -6 6 -6l-3 -14v-9
l3 -15q-3 0 -12 -23h-32q-8 0 -134 -61q0 -11 -105 -53q-85 -49 -120 -49q-75 -40 -96 -59q-88 -44 -248 -105q0 3 17 15h-6q-68 -29 -75 -29v-6h8q0 7 53 20v-6q-245 -90 -353 -143q-58 -23 -65 -23q0 -4 73 -15q3 0 3 3q70 -6 129 -6q25 0 134 3q6 3 9 3l6 -3l96 6
q3 0 3 -3l14 3h181q146 0 146 -17l6 -9l-3 -6l-6 3h-2l11 -12v-8l-26 -3v-3q16 -6 23 -6v-6h-14q-3 0 -3 -3q-15 3 -15 6l-6 -3l-14 3v-6q14 0 14 -3l6 3l26 -14v-3h-11l-15 -3v-6l15 -3v-3q0 -6 -9 -6q-6 3 -9 3q0 -9 15 -9v-5h-15q-21 -6 -49 -9q-3 0 -3 3l-21 -3h-35
q-6 0 -11 3q-6 -3 -9 -3q-5 0 -35 3l-6 -3q-6 3 -9 3l-11 -3l-6 3l-15 -3l-6 3l-17 -3v3l-6 -3h-9q-3 0 -3 3l-6 -3h-49q-12 0 -32 -3q-3 0 -3 3l-15 -3q-60 0 -169 -6l-298 15l-6 3q-5 -3 -11 -3h-6q-9 0 -9 3l-15 -3h-8q-16 0 -41 3l-6 -3q-102 9 -102 35q-32 74 -41 87
q0 25 73 47q440 190 700 286q239 106 374 181v3h-3q-30 -3 -47 -3q-2 0 -2 3l-6 -3q-130 -1 -149 -6l-18 3h-93q-3 0 -3 3q-3 0 -3 -3l-20 3q-183 -3 -225 -3q-145 6 -210 15q-3 0 -3 -3l-21 3q-1 0 -38 -3v3l-5 -3h-33q-16 0 -40 3q-3 0 -3 -3l-21 3q-116 -6 -125 -6
q-3 0 -3 3q-3 0 -3 -3q-50 0 -50 35q-17 20 -23 58q-3 0 -3 3t3 9l-3 17l9 12q168 3 262 3zM1116 722h3q6 0 6 6h-3q-6 -1 -6 -6zM959 646h6q14 9 20 9v6h-3q-23 -10 -23 -15zM944 643v-2h3q6 2 9 2v3h-3q-6 -3 -9 -3zM900 626v-6l27 9v6h-3q-15 -9 -24 -9zM763 568v-6h3
q6 0 6 6h-9zM544 483q1 -6 6 -6h3q0 6 -6 6h-3zM500 463v-3h6q6 3 9 3v2h-6q-6 -2 -9 -2zM460 442v-3q11 5 11 9h-6q-5 -1 -5 -6zM1061 282l-3 -6q9 -6 17 -6h3v6q-8 0 -17 6zM1055 261v-6h6q6 0 6 6h-12z" />
    <glyph glyph-name="braceleft" unicode="{" 
d="M240 698q172 5 223 71t51 133v468q0 74 77 141.5t185 67.5h108v-50h-90q-61 0 -107 -33.5t-47 -91.5v-500q0 -83 -60.5 -158.5t-142.5 -76.5v-2q82 -1 143 -76t61 -158l-1 -500q1 -58 47 -91.5t107 -33.5h90v-50h-108q-108 0 -184.5 67.5t-77.5 141.5v468q0 66 -51 132
t-223 71v60z" />
    <glyph glyph-name="bar" unicode="|" 
d="M427 1577h160v-1995h-160v1995z" />
    <glyph glyph-name="braceright" unicode="}" 
d="M774 638q-172 -5 -223 -71t-51 -132v-468q-1 -74 -77.5 -141.5t-184.5 -67.5h-108v50h90q61 0 107 33.5t47 91.5l-1 500q0 83 61 158t144 76v2q-83 1 -143.5 76.5t-60.5 158.5v500q-1 58 -47 91.5t-107 33.5h-90v50h108q108 0 185 -67.5t77 -141.5v-468q0 -67 51 -133
t223 -71v-60z" />
    <glyph glyph-name="asciitilde" unicode="~" 
d="M923 878v-156q-63 -72 -122 -97.5t-116 -25.5q-60 0 -177.5 48.5t-176.5 48.5q-51 0 -107.5 -28t-129.5 -112v156q64 73 123 99t114 26q64 0 181.5 -49.5t172.5 -49.5q52 0 108.5 28t129.5 112z" />
    <glyph glyph-name="exclamdown" unicode="&#xa1;" horiz-adv-x="672" 
 />
    <glyph glyph-name="cent" unicode="&#xa2;" horiz-adv-x="1139" 
 />
    <glyph glyph-name="sterling" unicode="&#xa3;" 
d="M748 1347q-72 31 -160 31h-2q-100 0 -190 -101q-84 -93 -84 -241q0 -15 1 -30q0 -135 53 -273h360v-60h-334q14 -30 31 -60q35 -63 35 -138q0 -161 -162 -375h402q130 0 189 132l49 -1l-103 -231h-719l1 50q187 238 187 418q0 77 -34 143q-17 32 -31 62h-161v60h135
q-58 143 -58 253q0 226 123.5 347t306.5 121h4q75 0 185.5 -14t110.5 -34v-161h-58q-5 61 -77 102z" />
    <glyph glyph-name="currency" unicode="&#xa4;" 
d="M350 560q41 -40 99 -57q29 -8 58 -8t58 8q58 17 99 57q40 41 57 99q9 29 9 58t-9 58q-17 58 -57 99q-41 40 -100 57q-29 8 -58 8t-58 -9q-58 -17 -98 -56q-39 -40 -56 -98q-10 -30 -10 -60q0 -28 9 -56q16 -59 57 -100zM240 903l-118 118l80 81l118 -118q44 30 99 46
q44 14 89 14q41 0 83 -12q57 -17 102 -48l118 118l80 -81l-117 -117q31 -46 48 -102q12 -42 12 -85q0 -42 -12 -85q-17 -56 -48 -102l117 -117l-80 -81l-118 118q-45 -32 -101 -48q-42 -12 -85 -12q-42 0 -85 12q-57 16 -102 48l-118 -118l-80 81l118 117q-32 46 -48 103
q-12 42 -12 84q0 44 13 87q16 55 47 99z" />
    <glyph glyph-name="yen" unicode="&#xa5;" horiz-adv-x="1262" 
d="M547 225l-2 242q0 19 -1.5 35t-4.5 32l-484 1q-14 0 -21 6.5t-7 19.5t6.5 19t21.5 6h467l-121 172h-344q-17 0 -23.5 5.5t-6.5 18.5q0 14 6 19.5t22 5.5h307q-43 57 -108 155q-131 197 -227 197q-7 0 -13 5.5t-6 11.5q0 19 10.5 27.5t32.5 8.5q27 0 123 -8t164 -8h88
q33 0 41 -6.5t8 -26.5q0 -8 -15 -14t-38 -6q-6 0 -18.5 2t-18.5 2q-24 0 -37.5 -9.5t-13.5 -25.5q0 -18 16.5 -52t46.5 -77l158 -221q13 -19 33 -53q41 -70 71 -70q9 0 16.5 5t14.5 15l277 396q8 12 13 26.5t5 24.5q0 18 -10 27t-37 14q-15 2 -41 4q-47 3 -47 25
q0 15 8 22.5t25 7.5q3 0 15 -1q56 -7 108 -7h139q30 0 65 1t37 1q11 0 18.5 -4.5t8.5 -11.5q0 -28 -38 -34q-18 -3 -27 -5q-63 -15 -147 -117q-7 -9 -12 -15l-169 -206h323q15 0 24 -6t9 -17q0 -15 -6 -20.5t-23 -5.5h-366q-46 -57 -96.5 -112.5t-52.5 -59.5h511
q18 0 25.5 -5.5t7.5 -17.5q0 -14 -7 -21t-22 -7h-530q0 -11 -1 -30.5t-1 -29.5l2 -215q0 -114 5.5 -150t20.5 -44q30 -17 107.5 -19t77.5 -31q0 -12 -10 -20t-25 -8q-2 0 -35.5 4t-64.5 4q-91 0 -208.5 -4t-142.5 -4q-31 0 -40 4t-9 16t8 18.5t37 12.5q9 2 25 5q74 16 92 32
q17 13 24 47t7 102z" />
    <glyph glyph-name="brokenbar" unicode="&#xa6;" 
d="M427 371h160v-789h-160v789zM427 1578h160v-789h-160v789z" />
    <glyph glyph-name="section" unicode="&#xa7;" 
d="M545 321q56 16 97 53q73 65 73 166q0 5 -1 10h-2q-1 14 -4 27q-22 61 -113 127q-59 29 -126 29q-78 0 -125 -44.5t-47 -117.5q0 -123 248 -250zM466 -346q113 6 185 69q72 64 72 165q0 125 -316 276q-123 64 -175.5 137t-52.5 177q0 148 89 237q67 65 170 82l-40 19
q-123 64 -175.5 137t-52.5 177q0 148 89 237q82 79 216 86q8 1 17 1h3q66 0 163 -16.5t97 -41.5v-194h-51q-5 81 -80 132q-70 47 -149 51h-15q-78 0 -125 -44.5t-47 -117.5q0 -132 287 -269q149 -67 204.5 -143.5t55.5 -187.5q0 -171 -101 -282q-47 -39 -99 -64
q108 -56 154 -118q55 -77 55 -187q0 -171 -101 -283q-124 -102 -277 -105v1q-6 -1 -13 -1h-3q-66 0 -163 16.5t-97 41.5v194h51q5 -81 80 -132q68 -45 145 -50z" />
    <glyph glyph-name="dieresis" unicode="&#xa8;" horiz-adv-x="1024" 
d="M223 1289l71 72q13 12 25 12q11 0 27 -14l69 -73q10 -14 10 -25q0 -13 -12 -27l-69 -75q-17 -17 -25 -17q-14 0 -25 12l-76 86q-9 12 -9 23q0 13 14 26zM588 1289l71 72q13 12 25 12q11 0 27 -13l69 -74q10 -14 10 -25q0 -13 -12 -26l-69 -76q-17 -17 -25 -17
q-14 0 -25 12l-76 87q-9 11 -9 22q0 13 14 26z" />
    <glyph glyph-name="copyright" unicode="&#xa9;" horiz-adv-x="1674" 
d="M840 1456q145 0 280 -56.5t239 -160.5q102 -101 158.5 -238t56.5 -283q0 -147 -56.5 -282t-162.5 -240q-105 -105 -239 -159.5t-283 -54.5q-146 0 -278 55.5t-238 160.5q-106 104 -161.5 237.5t-55.5 282.5q0 148 55.5 283t159.5 238q102 104 238.5 160.5t286.5 56.5z
M357 1197q-95 -96 -146 -219.5t-51 -259.5q0 -137 51 -259t148 -219q98 -96 219 -147t256 -51q137 0 259.5 50.5t219.5 145.5q97 98 149 221.5t52 258.5q0 134 -52 259.5t-145 219.5q-96 96 -220 147.5t-258 51.5q-137 0 -262 -51.5t-220 -147.5zM865 223q-142 0 -264 68
t-186 185t-64 243t65.5 244t187.5 184.5t254 66.5q38 0 75 -6.5t76 -20.5q5 -1 9 -1q19 0 26 30h42l72 -198h-44q-52 94 -131 124q-72 26 -147 26h-15q-86 -8 -166.5 -71t-121.5 -177q-33 -90 -33 -184q0 -25 2 -50q11 -121 69.5 -224t149.5 -152q72 -40 166 -42
q124 0 194 56t70 126h53v-100q0 -46 -96.5 -86.5t-242.5 -40.5z" />
    <glyph glyph-name="ordfeminine" unicode="&#xaa;" horiz-adv-x="648" 
 />
    <glyph glyph-name="guillemotleft" unicode="&#xab;" horiz-adv-x="944" 
d="M174 479l342 303h14v-37l-205 -266l205 -266v-37h-14zM487 479l342 303h14v-37l-205 -266l205 -266v-37h-14z" />
    <glyph glyph-name="logicalnot" unicode="&#xac;" 
d="M87 767h840v-491l-1 -1h-98v392h-741v100z" />
    <glyph glyph-name="registered" unicode="&#xae;" horiz-adv-x="1674" 
d="M751 1099v-374l3 -8q23 -56 56 -81q29 -22 56 -22h6q31 4 61.5 38.5t46.5 97.5q13 50 13 103q0 13 -1 27q-4 67 -28 124.5t-56.5 76t-63.5 18.5h-93zM984 576l82 -116q100 -141 150 -141h34v-50h-346v50h45q30 0 30 22q0 29 -69 114l-75 102q-42 0 -84 42v-159
q0 -121 36 -121h53v-50h-316v50h43q37 0 37 121v538q0 121 -37 121h-43v70h356q64 -1 125 -42q60 -41 92.5 -114t32.5 -152q0 -78 -32 -150.5t-114 -134.5zM840 1456q145 0 280 -56.5t239 -160.5q102 -101 158.5 -238t56.5 -283q0 -147 -56.5 -282t-162.5 -240
q-105 -105 -239 -159.5t-283 -54.5q-146 0 -278 55.5t-238 160.5q-106 104 -161.5 237.5t-55.5 282.5q0 148 55.5 283t159.5 238q102 104 238.5 160.5t286.5 56.5zM357 1197q-95 -96 -146 -219.5t-51 -259.5q0 -137 51 -259t148 -219q98 -96 219 -147t256 -51
q137 0 259.5 50.5t219.5 145.5q97 98 149 221.5t52 258.5q0 134 -52 259.5t-145 219.5q-96 96 -220 147.5t-258 51.5q-137 0 -262 -51.5t-220 -147.5z" />
    <glyph glyph-name="macron" unicode="&#xaf;" horiz-adv-x="670" 
 />
    <glyph glyph-name="degree" unicode="&#xb0;" horiz-adv-x="674" 
d="M339 1372q-86 0 -147.5 -61t-61.5 -148t61 -147t148 -60t147 60t60 147t-60.5 148t-146.5 61zM339 1442q115 0 196 -81.5t81 -196.5q0 -114 -82 -196t-197 -82q-117 0 -197 81t-80 197t81.5 197t197.5 81z" />
    <glyph glyph-name="plusminus" unicode="&#xb1;" 
 />
    <glyph glyph-name="uni00B2" unicode="&#xb2;" 
 />
    <glyph glyph-name="uni00B3" unicode="&#xb3;" 
 />
    <glyph glyph-name="acute" unicode="&#xb4;" horiz-adv-x="1024" 
d="M607 1375q35 35 55.5 47t40.5 12q33 0 53.5 -20t20.5 -51q0 -22 -15.5 -42t-46.5 -40l-330 -203h-69z" />
    <glyph glyph-name="mu" unicode="&#xb5;" horiz-adv-x="1180" 
 />
    <glyph glyph-name="paragraph" unicode="&#xb6;" horiz-adv-x="1024" 
d="M929 1435v-70h-127v-1365h-82v1365h-166v-1365h-84v738q-174 8 -275.5 102.5t-101.5 245.5q0 157 107.5 253t285.5 96h443z" />
    <glyph glyph-name="periodcentered" unicode="&#xb7;" horiz-adv-x="508" 
d="M145 740l82 84q15 14 29 14q13 0 31 -16l80 -86q12 -16 12 -29q0 -15 -14 -31l-80 -88q-20 -20 -29 -20q-16 0 -29 14l-88 101q-10 13 -10 26q0 15 16 31z" />
    <glyph glyph-name="periodcentered" unicode="&#x2219;" horiz-adv-x="508" 
d="M145 740l82 84q15 14 29 14q13 0 31 -16l80 -86q12 -16 12 -29q0 -15 -14 -31l-80 -88q-20 -20 -29 -20q-16 0 -29 14l-88 101q-10 13 -10 26q0 15 16 31z" />
    <glyph glyph-name="cedilla" unicode="&#xb8;" horiz-adv-x="1024" 
d="M360 -290q85 -52 152 -52q66 0 94.5 21.5t28.5 66.5t-49 64q-40 16 -102 16q-16 0 -34 -2l48 176h63l-37 -104q32 4 62 5q86 0 134 -40.5t48 -113.5q0 -76 -58.5 -120.5t-160.5 -44.5q-109 0 -189 32v96z" />
    <glyph glyph-name="uni00B9" unicode="&#xb9;" 
 />
    <glyph glyph-name="ordmasculine" unicode="&#xba;" horiz-adv-x="718" 
 />
    <glyph glyph-name="guillemotright" unicode="&#xbb;" horiz-adv-x="944" 
d="M115 176h-14v37l205 266l-205 266v37h14l342 -303zM428 176h-14v37l205 266l-205 266v37h14l342 -303z" />
    <glyph glyph-name="onequarter" unicode="&#xbc;" horiz-adv-x="1708" 
 />
    <glyph glyph-name="onehalf" unicode="&#xbd;" horiz-adv-x="1964" 
 />
    <glyph glyph-name="threequarters" unicode="&#xbe;" horiz-adv-x="1708" 
 />
    <glyph glyph-name="questiondown" unicode="&#xbf;" horiz-adv-x="748" 
 />
    <glyph glyph-name="Agrave" unicode="&#xc0;" horiz-adv-x="1540" 
 />
    <glyph glyph-name="Aacute" unicode="&#xc1;" horiz-adv-x="1540" 
 />
    <glyph glyph-name="Acircumflex" unicode="&#xc2;" horiz-adv-x="1540" 
 />
    <glyph glyph-name="Atilde" unicode="&#xc3;" horiz-adv-x="1540" 
 />
    <glyph glyph-name="Adieresis" unicode="&#xc4;" horiz-adv-x="1540" 
 />
    <glyph glyph-name="Aring" unicode="&#xc5;" horiz-adv-x="1540" 
 />
    <glyph glyph-name="AE" unicode="&#xc6;" horiz-adv-x="2118" 
 />
    <glyph glyph-name="Ccedilla" unicode="&#xc7;" horiz-adv-x="1399" 
 />
    <glyph glyph-name="Egrave" unicode="&#xc8;" horiz-adv-x="1151" 
 />
    <glyph glyph-name="Eacute" unicode="&#xc9;" horiz-adv-x="1151" 
 />
    <glyph glyph-name="Ecircumflex" unicode="&#xca;" horiz-adv-x="1151" 
 />
    <glyph glyph-name="Edieresis" unicode="&#xcb;" horiz-adv-x="1151" 
 />
    <glyph glyph-name="Igrave" unicode="&#xcc;" horiz-adv-x="657" 
 />
    <glyph glyph-name="Iacute" unicode="&#xcd;" horiz-adv-x="657" 
 />
    <glyph glyph-name="Icircumflex" unicode="&#xce;" horiz-adv-x="657" 
 />
    <glyph glyph-name="Idieresis" unicode="&#xcf;" horiz-adv-x="657" 
 />
    <glyph glyph-name="Eth" unicode="&#xd0;" horiz-adv-x="1518" 
 />
    <glyph glyph-name="Ntilde" unicode="&#xd1;" horiz-adv-x="1554" 
 />
    <glyph glyph-name="Ograve" unicode="&#xd2;" horiz-adv-x="1614" 
 />
    <glyph glyph-name="Oacute" unicode="&#xd3;" horiz-adv-x="1614" 
 />
    <glyph glyph-name="Ocircumflex" unicode="&#xd4;" horiz-adv-x="1614" 
 />
    <glyph glyph-name="Otilde" unicode="&#xd5;" horiz-adv-x="1614" 
 />
    <glyph glyph-name="Odieresis" unicode="&#xd6;" horiz-adv-x="1614" 
 />
    <glyph glyph-name="multiply" unicode="&#xd7;" 
d="M507 618l-247 -247l-99 99l247 247l-247 248l99 98l247 -247l248 247l98 -99l-247 -247l247 -247l-99 -99z" />
    <glyph glyph-name="Oslash" unicode="&#xd8;" horiz-adv-x="1614" 
 />
    <glyph glyph-name="Ugrave" unicode="&#xd9;" horiz-adv-x="1501" 
 />
    <glyph glyph-name="Uacute" unicode="&#xda;" horiz-adv-x="1501" 
 />
    <glyph glyph-name="Ucircumflex" unicode="&#xdb;" horiz-adv-x="1501" 
 />
    <glyph glyph-name="Udieresis" unicode="&#xdc;" horiz-adv-x="1501" 
 />
    <glyph glyph-name="Yacute" unicode="&#xdd;" horiz-adv-x="1233" 
 />
    <glyph glyph-name="Thorn" unicode="&#xde;" horiz-adv-x="1120" 
 />
    <glyph glyph-name="germandbls" unicode="&#xdf;" horiz-adv-x="1251" 
 />
    <glyph glyph-name="agrave" unicode="&#xe0;" horiz-adv-x="922" 
 />
    <glyph glyph-name="aacute" unicode="&#xe1;" horiz-adv-x="922" 
 />
    <glyph glyph-name="acircumflex" unicode="&#xe2;" horiz-adv-x="922" 
 />
    <glyph glyph-name="atilde" unicode="&#xe3;" horiz-adv-x="922" 
 />
    <glyph glyph-name="adieresis" unicode="&#xe4;" horiz-adv-x="922" 
 />
    <glyph glyph-name="aring" unicode="&#xe5;" horiz-adv-x="922" 
 />
    <glyph glyph-name="ae" unicode="&#xe6;" horiz-adv-x="1454" 
 />
    <glyph glyph-name="ccedilla" unicode="&#xe7;" horiz-adv-x="905" 
 />
    <glyph glyph-name="egrave" unicode="&#xe8;" horiz-adv-x="909" 
 />
    <glyph glyph-name="eacute" unicode="&#xe9;" horiz-adv-x="909" 
 />
    <glyph glyph-name="ecircumflex" unicode="&#xea;" horiz-adv-x="909" 
 />
    <glyph glyph-name="edieresis" unicode="&#xeb;" horiz-adv-x="909" 
 />
    <glyph glyph-name="igrave" unicode="&#xec;" horiz-adv-x="514" 
 />
    <glyph glyph-name="iacute" unicode="&#xed;" horiz-adv-x="514" 
 />
    <glyph glyph-name="icircumflex" unicode="&#xee;" horiz-adv-x="514" 
 />
    <glyph glyph-name="idieresis" unicode="&#xef;" horiz-adv-x="514" 
 />
    <glyph glyph-name="eth" unicode="&#xf0;" horiz-adv-x="1139" 
 />
    <glyph glyph-name="ntilde" unicode="&#xf1;" horiz-adv-x="1108" 
 />
    <glyph glyph-name="ograve" unicode="&#xf2;" horiz-adv-x="1010" 
 />
    <glyph glyph-name="oacute" unicode="&#xf3;" horiz-adv-x="1010" 
 />
    <glyph glyph-name="ocircumflex" unicode="&#xf4;" horiz-adv-x="1010" 
 />
    <glyph glyph-name="otilde" unicode="&#xf5;" horiz-adv-x="1010" 
 />
    <glyph glyph-name="odieresis" unicode="&#xf6;" horiz-adv-x="1010" 
 />
    <glyph glyph-name="divide" unicode="&#xf7;" 
d="M87 647v140h839l1 -1v-139h-840zM398 408l82 84q15 14 29 14q13 0 31 -16l80 -86q12 -16 12 -29q0 -15 -14 -31l-80 -88q-20 -20 -29 -20q-16 0 -29 14l-88 101q-10 13 -10 26q0 15 16 31zM398 1101l82 84q15 14 29 14q13 0 31 -16l80 -86q12 -16 12 -29q0 -15 -14 -31
l-80 -88q-20 -20 -29 -20q-16 0 -29 14l-88 101q-10 13 -10 26q0 15 16 31z" />
    <glyph glyph-name="oslash" unicode="&#xf8;" horiz-adv-x="1010" 
 />
    <glyph glyph-name="ugrave" unicode="&#xf9;" horiz-adv-x="1059" 
 />
    <glyph glyph-name="uacute" unicode="&#xfa;" horiz-adv-x="1059" 
 />
    <glyph glyph-name="ucircumflex" unicode="&#xfb;" horiz-adv-x="1059" 
 />
    <glyph glyph-name="udieresis" unicode="&#xfc;" horiz-adv-x="1059" 
 />
    <glyph glyph-name="yacute" unicode="&#xfd;" horiz-adv-x="868" 
 />
    <glyph glyph-name="thorn" unicode="&#xfe;" horiz-adv-x="1010" 
 />
    <glyph glyph-name="ydieresis" unicode="&#xff;" horiz-adv-x="868" 
 />
    <glyph glyph-name="dotlessi" unicode="&#x131;" horiz-adv-x="514" 
d="M328 223q0 -173 100 -173h46v-50h-442v50h46q100 0 100 173v432q0 77 -111 77h-48v44q222 69 261 182h48v-735z" />
    <glyph glyph-name="circumflex" unicode="&#x2c6;" horiz-adv-x="1024" 
d="M221 1079l232 355h118l232 -355h-58l-233 216l-233 -216h-58z" />
    <glyph glyph-name="caron" unicode="&#x2c7;" horiz-adv-x="1024" 
d="M221 1434h58l233 -214l233 214h58l-232 -356h-118z" />
    <glyph glyph-name="uni02C9" unicode="&#x2c9;" horiz-adv-x="1024" 
d="M254 1195v125h516v-125h-516z" />
    <glyph glyph-name="breve" unicode="&#x2d8;" horiz-adv-x="1024" 
d="M219 1349h51q17 -73 75 -107t167 -34t166 33.5t74 107.5h51q-20 -133 -94 -201.5t-197 -68.5q-122 0 -197 69t-96 201z" />
    <glyph glyph-name="dotaccent" unicode="&#x2d9;" horiz-adv-x="1024" 
d="M422 1289l69 72q6 6 13 9t14 3q6 0 12.5 -3t12.5 -9l71 -76q5 -4 7 -10t2 -14q-1 -9 -3 -15t-8 -12l-71 -76q-12 -11 -16 -13.5t-7 -2.5q-10 0 -16.5 2.5t-10.5 8.5l-75 87q-4 4 -6 9.5t-2 13.5q0 6 3 12.5t11 13.5z" />
    <glyph glyph-name="ring" unicode="&#x2da;" horiz-adv-x="1024" 
d="M411 1257q0 -42 29 -71t71 -29t71 29t29 71q0 40 -29.5 69.5t-70.5 29.5t-70.5 -29.5t-29.5 -69.5zM335 1257q0 75 51 126t125 51q76 0 127.5 -51.5t51.5 -125.5q0 -75 -51.5 -126.5t-127.5 -51.5q-74 0 -125 51.5t-51 126.5z" />
    <glyph glyph-name="ogonek" unicode="&#x2db;" horiz-adv-x="1024" 
d="M640 0q-71 -62 -110.5 -119.5t-39.5 -112.5q0 -47 27 -75t73 -28q40 0 69.5 15.5t49.5 48.5l28 -16q-36 -63 -90.5 -97t-119.5 -34q-70 0 -114 35.5t-44 90.5q0 76 60.5 156.5t161.5 135.5h49z" />
    <glyph glyph-name="tilde" unicode="&#x2dc;" horiz-adv-x="1024" 
d="M808 1382q-20 -103 -68.5 -154t-126.5 -51h-4q-50 0 -113 23q-66 24 -114 24q-39 0 -60.5 -20.5t-33.5 -71.5h-54q19 106 68 158.5t129 52.5q46 -1 113 -24q64 -23 112 -23h4q36 0 58 20t36 66h54z" />
    <glyph glyph-name="hungarumlaut" unicode="&#x2dd;" horiz-adv-x="1024" 
d="M217 1079l144 273q24 44 45.5 63t46.5 19q28 0 48 -20t20 -47q0 -16 -10.5 -35t-30.5 -41l-205 -212h-58zM502 1079l144 273q24 44 45.5 63t46.5 19q28 0 48 -20t20 -47q0 -16 -10.5 -35t-30.5 -41l-205 -212h-58z" />
    <glyph glyph-name="endash" unicode="&#x2013;" horiz-adv-x="1108" 
d="M56 419v120h996v-120h-996z" />
    <glyph glyph-name="emdash" unicode="&#x2014;" horiz-adv-x="2048" 
d="M0 419v120h2048v-120h-2048z" />
    <glyph glyph-name="quoteleft" unicode="&#x2018;" horiz-adv-x="557" 
d="M319 1016q-44 0 -88.5 65.5t-44.5 151.5q0 109 71 226.5t139 117.5v-43q-73 -43 -87 -190q0 -119 129 -161v-42z" />
    <glyph glyph-name="quoteright" unicode="&#x2019;" horiz-adv-x="557" 
d="M238 1577q44 0 88.5 -65.5t44.5 -151.5q0 -109 -71 -226.5t-139 -117.5v43q73 43 87 190q0 119 -129 161v42z" />
    <glyph glyph-name="quotesinglbase" unicode="&#x201a;" horiz-adv-x="557" 
d="M238 281q44 0 88.5 -65.5t44.5 -151.5q0 -109 -71 -226.5t-139 -117.5v43q73 43 87 190q0 119 -129 161v42z" />
    <glyph glyph-name="quotedblleft" unicode="&#x201c;" horiz-adv-x="910" 
d="M319 1016q-44 0 -88.5 65.5t-44.5 151.5q0 109 71 226.5t139 117.5v-43q-73 -43 -87 -190q0 -119 129 -161v-42zM672 1016q-44 0 -88.5 65.5t-44.5 151.5q0 109 71 226.5t139 117.5v-43q-73 -43 -87 -190q0 -119 129 -161v-42z" />
    <glyph glyph-name="quotedblright" unicode="&#x201d;" horiz-adv-x="910" 
d="M238 1577q44 0 88.5 -65.5t44.5 -151.5q0 -109 -71 -226.5t-139 -117.5v43q73 43 87 190q0 119 -129 161v42zM591 1577q44 0 88.5 -65.5t44.5 -151.5q0 -109 -71 -226.5t-139 -117.5v43q73 43 87 190q0 119 -129 161v42z" />
    <glyph glyph-name="quotedblbase" unicode="&#x201e;" horiz-adv-x="910" 
d="M238 281q44 0 88.5 -65.5t44.5 -151.5q0 -109 -71 -226.5t-139 -117.5v43q73 43 87 190q0 119 -129 161v42zM591 281q44 0 88.5 -65.5t44.5 -151.5q0 -109 -71 -226.5t-139 -117.5v43q73 43 87 190q0 119 -129 161v42z" />
    <glyph glyph-name="dagger" unicode="&#x2020;" 
d="M486 1022q-8 97 -54 178q-57 101 -57 129q0 49 36 78.5t96 29.5q57 0 94.5 -27.5t37.5 -71.5q0 -32 -55 -137q-46 -85 -55 -179q96 8 177 54q101 57 129 57q49 0 79 -36t30 -96q0 -57 -27.5 -94.5t-72.5 -37.5q-32 0 -136 55q-85 46 -179 57q8 -176 110 -277
q-106 -460 -112 -974h-38q-6 514 -114 974q102 101 111 277q-96 -10 -178 -55q-101 -57 -129 -57q-49 0 -78.5 36t-29.5 96q0 57 27.5 94.5t71.5 37.5q32 0 137 -56q85 -46 179 -55z" />
    <glyph glyph-name="daggerdbl" unicode="&#x2021;" 
d="M528 186q94 11 179 57q104 55 136 55q45 0 72.5 -37.5t27.5 -94.5q0 -60 -30 -96t-79 -36q-28 0 -129 57q-81 46 -177 54q9 -94 55 -179q55 -105 55 -137q0 -44 -37.5 -71.5t-94.5 -27.5q-60 0 -96 29.5t-36 78.5q0 28 57 129q46 81 54 178q-94 -9 -179 -55
q-105 -56 -137 -56q-44 0 -71.5 37.5t-27.5 94.5q0 60 29.5 96t78.5 36q28 0 129 -57q82 -45 178 -55q-9 226 -111 398q102 171 111 397q-96 -10 -178 -55q-101 -57 -129 -57q-49 0 -78.5 36t-29.5 96q0 57 27.5 94.5t71.5 37.5q32 0 137 -56q85 -46 179 -55q-8 97 -54 178
q-57 101 -57 129q0 49 36 78.5t96 29.5q57 0 94.5 -27.5t37.5 -71.5q0 -32 -55 -137q-46 -85 -55 -179q96 8 177 54q101 57 129 57q49 0 79 -36t30 -96q0 -57 -27.5 -94.5t-72.5 -37.5q-32 0 -136 55q-85 46 -179 57q8 -226 110 -397q-102 -172 -110 -398z" />
    <glyph glyph-name="bullet" unicode="&#x2022;" horiz-adv-x="1024" 
d="M216 718q0 123 87 209t210 86q122 0 208.5 -86.5t86.5 -208.5t-87.5 -209.5t-209.5 -87.5q-123 0 -209 87t-86 210z" />
    <glyph glyph-name="ellipsis" unicode="&#x2026;" horiz-adv-x="2048" 
d="M145 167l82 84q15 14 29 14q13 0 31 -16l80 -86q12 -16 12 -29q0 -15 -14 -31l-80 -88q-20 -20 -29 -20q-16 0 -29 14l-88 101q-10 13 -10 26q0 15 16 31zM828 167l82 84q15 14 29 14q13 0 31 -16l80 -86q12 -16 12 -29q0 -15 -14 -31l-80 -88q-20 -20 -29 -20
q-16 0 -29 14l-88 101q-10 13 -10 26q0 15 16 31zM1511 167l82 84q15 14 29 14q13 0 31 -16l80 -86q12 -16 12 -29q0 -15 -14 -31l-80 -88q-20 -20 -29 -20q-16 0 -29 14l-88 101q-10 13 -10 26q0 15 16 31z" />
    <glyph glyph-name="guilsinglleft" unicode="&#x2039;" horiz-adv-x="631" 
d="M174 479l342 303h14v-37l-205 -266l205 -266v-37h-14z" />
    <glyph glyph-name="guilsinglright" unicode="&#x203a;" horiz-adv-x="631" 
d="M115 176h-14v37l205 266l-205 266v37h14l342 -303z" />
    <glyph glyph-name="fraction" unicode="&#x2044;" horiz-adv-x="342" 
d="M-342 -29l940 1461h84l-938 -1461h-86z" />
    <glyph glyph-name="fraction" unicode="&#x2215;" horiz-adv-x="342" 
d="M-342 -29l940 1461h84l-938 -1461h-86z" />
    <glyph glyph-name="franc" unicode="&#x20a3;" 
d="M247 357h-194v60h194v732q0 235 -103 235h-96v50h915l103 -231h-49q-59 182 -190 182l-316 -1q-102 0 -102 -235v-352h361q100 0 100 63v58h50v-342h-50v60q0 62 -100 62h-361v-281h194v-60h-194v-72q0 -235 102 -235h97v-50h-560v50h96q103 0 103 235v72z" />
    <glyph glyph-name="lira" unicode="&#x20a4;" 
d="M748 1347q-72 31 -160 31h-2q-100 0 -190 -101q-84 -93 -84 -241q0 -15 1 -30q0 -106 33 -213h380v-60h-360q12 -30 26 -60h352v-60h-321q35 -63 35 -138q0 -161 -162 -375h402q130 0 189 132l49 -1l-103 -231h-719l1 50q187 238 187 418q0 77 -34 143l-2 2h-172v60h143
q-14 31 -26 60h-135v60h113q-36 107 -36 193q0 226 123.5 347t310.5 121q75 0 185.5 -14t110.5 -34v-161h-58q-5 61 -77 102z" />
    <glyph glyph-name="peseta" unicode="&#x20a7;" horiz-adv-x="2028" 
d="M409 1384v-662q3 -9 7 -17q41 -102 108 -153q57 -44 116 -44q10 0 19 1q68 8 127 75t87 177q22 87 22 179q0 24 -1 47q-7 116 -49.5 218.5t-108.5 144.5q-56 35 -112 35q-10 0 -21 -1h-194zM1496 908h-179v-685q0 -81 34 -119q28 -31 81 -37l-71 192l49 1
q55 -130 114 -174q57 -44 127 -44h7q92 0 151 52q59 53 59 136q0 102 -259 226q-101 52 -144 112t-43 145q0 121 73 194zM1039 910q-7 -101 -48 -194q-50 -114 -141 -177.5t-190 -63.5q-100 0 -191 64q-33 22 -60 51v-305q0 -235 102 -235h97v-50h-560v50h96q103 0 103 235
v864q0 235 -103 235h-96v50h618q92 -2 181 -62q91 -62 143 -177q50 -113 51 -237h10q216 0 216 355h50v-355h259q42 19 110 20h2q54 0 133.5 -13.5t79.5 -33.5v-159h-42q-4 66 -65.5 108t-133.5 42q-64 0 -102.5 -36.5t-38.5 -96.5q0 -108 235 -220q122 -55 167.5 -117.5
t45.5 -153.5q0 -140 -83 -231q-102 -84 -228 -86q-58 0 -105 11q-28 6 -56 6q-18 0 -36 -3q-28 -5 -59 -5q-124 0 -173.5 57t-57.5 176h-1v687h-129z" />
    <glyph glyph-name="Euro" unicode="&#x20ac;" 
d="M140 372q-62 135 -76 281h-108l17 60h87v29q0 16 1 31h-71l17 60h58q14 145 76 281q81 178 226 274t298 96q43 0 87 -8q40 -10 82 -29q8 -6 16 -6q20 0 34 45h41l84 -281l-40 -1q-49 134 -138 178q-43 22 -81 32v3q-50 16 -101 16q-17 0 -34 -2q-120 -12 -226 -113.5
t-157 -273.5q-32 -104 -39 -211h706l-17 -60h-692q0 -30 2 -60h674l-17 -60h-652q17 -158 83 -298q74 -157 193 -236q102 -68 216 -69q186 3 256 91q74 91 74 185h48v-143q0 -70 -111 -127q-105 -54 -267 -56q-181 0 -325.5 98t-223.5 274z" />
    <glyph glyph-name="afii61352" unicode="&#x2116;" horiz-adv-x="2271" 
 />
    <glyph glyph-name="trademark" unicode="&#x2122;" horiz-adv-x="1497" 
 />
    <glyph glyph-name="partialdiff" unicode="&#x2202;" 
d="M232 537q0 -41 5 -79q14 -122 61.5 -230t118.5 -165q64 -53 128 -53q6 0 13 1q70 5 127.5 70.5t80.5 179.5q16 73 16 149q0 42 -5 85q-14 122 -62.5 231.5t-119.5 165.5q-65 50 -128 50h-11q-68 -5 -126 -69.5t-82 -178.5q-16 -84 -16 -157zM937 477q0 -132 -56.5 -251
t-159 -185t-214.5 -66t-214.5 66t-159 185t-56.5 251q0 131 58 251t161 185t211 65q109 0 212 -65q29 -18 54 -41q-84 235 -233.5 377t-326.5 155v55q306 0 515 -285t209 -697z" />
    <glyph glyph-name="Delta" unicode="&#x2206;" horiz-adv-x="1081" 
d="M514 1195l-406 -1072h801zM547 1434l526 -1434h-1067z" />
    <glyph glyph-name="product" unicode="&#x220f;" horiz-adv-x="1515" 
d="M511 1384q-102 0 -102 -235v-1281q0 -235 102 -235h97v-51h-560v51h96q103 0 103 235v1281q0 235 -103 235h-96v50h1419v-50h-97q-102 0 -102 -235v-1281q0 -235 102 -235h97v-50h-560v50h96q103 0 103 235v1281q0 235 -103 235h-492z" />
    <glyph glyph-name="summation" unicode="&#x2211;" horiz-adv-x="1206" 
d="M1059 548l-788 -914h635q130 0 189 182h49l-103 -232h-921v50q62 0 106 53l663 781l-663 859q-44 57 -106 57v50h921l103 -232h-49q-59 182 -189 182h-485z" />
    <glyph glyph-name="minus" unicode="&#x2212;" 
d="M87 647v140h839l1 -1v-139h-840z" />
    <glyph glyph-name="radical" unicode="&#x221a;" 
d="M181 0l-164 359l74 35l85 -185l728 1470h150v-60h-72z" />
    <glyph glyph-name="infinity" unicode="&#x221e;" 
d="M439 755q-15 103 -74 133q-46 22 -84 22q-12 0 -23 -2q-49 -10 -92.5 -44.5t-65.5 -84.5q-20 -46 -20 -90v-8q2 -48 27.5 -89t71.5 -58q29 -11 61 -11q16 0 33 3q47 10 90.5 43.5t75.5 185.5zM466 687q12 -96 94 -153q69 -48 123 -48q11 0 21 2q62 12 117.5 52t84.5 101
q26 54 26 108v11q-2 60 -35.5 108.5t-91.5 68.5q-37 13 -76 13q-22 0 -44 -4q-67 -9 -127 -62t-92 -197zM450 827q9 35 21 69q34 88 95 137t128 49t128 -48t95 -135t34 -182t-34 -182t-95 -135t-128 -48t-128 49t-95 136q-12 35 -21 70q-5 -21 -12 -41q-27 -73 -74 -113
t-99 -40t-100 41t-73.5 113.5t-25.5 149.5q0 76 25.5 149t73.5 114t100 41t99 -40t74 -112q7 -21 12 -42z" />
    <glyph glyph-name="integral" unicode="&#x222b;" horiz-adv-x="665" 
d="M-12 -281q-60 0 -60 29v159h36q1 -43 34.5 -64.5t63.5 -21.5h1q82 0 115 162q32 162 40 316l70 734l8 62q27 238 135 429.5t234 191.5q60 0 60 -29v-159h-36q-1 43 -35 64.5t-63 21.5q-71 0 -116 -155.5t-49 -363.5l-73 -767q-20 -231 -130.5 -420t-234.5 -189z" />
    <glyph glyph-name="approxequal" unicode="&#x2248;" 
d="M923 1053v-156q-63 -72 -122 -97.5t-116 -25.5q-60 0 -177.5 48.5t-176.5 48.5q-51 0 -107.5 -28t-129.5 -112v156q64 73 123 99t114 26q64 0 181.5 -49.5t172.5 -49.5q52 0 108.5 28t129.5 112zM923 705v-156q-63 -72 -122 -97.5t-116 -25.5q-60 0 -177.5 48.5
t-176.5 48.5q-51 0 -107.5 -28t-129.5 -112v156q64 73 123 99t114 26q64 0 181.5 -49.5t172.5 -49.5q52 0 108.5 28t129.5 112z" />
    <glyph glyph-name="lessequal" unicode="&#x2264;" 
d="M927 1074l-625 -359l625 -355v-167l-840 481v83l840 484v-167zM87 1v140h839l1 -1v-139h-840z" />
    <glyph glyph-name="greaterequal" unicode="&#x2265;" 
d="M87 1241l840 -484v-83l-840 -481v167l625 355l-625 359v167zM87 2v140h839l1 -1v-139h-840z" />
    <glyph glyph-name="uniF001" unicode="&#xf001;" horiz-adv-x="1073" 
 />
    <glyph glyph-name="uniF001" unicode="&#xfb01;" horiz-adv-x="1073" 
 />
    <glyph glyph-name="uniF002" unicode="&#xf002;" horiz-adv-x="1081" 
 />
    <glyph glyph-name="uniF002" unicode="&#xfb02;" horiz-adv-x="1081" 
 />
    <glyph glyph-name="NULL" horiz-adv-x="0" 
 />
  </font>
</defs>
</svg>
