<?xml version="1.0" standalone="no"?>
<!DOCTYPE svg PUBLIC "-//W3C//DTD SVG 1.1//EN" "http://www.w3.org/Graphics/SVG/1.1/DTD/svg11.dtd" >
<svg xmlns="http://www.w3.org/2000/svg" xmlns:xlink="http://www.w3.org/1999/xlink" version="1.1">
<metadata>
Created by FontForge 20170731 at Mon Apr 29 21:49:43 2013
 By Aleksey,,,
Copyright 2013 Adobe Systems Incorporated. All rights reserved.
</metadata>
<defs>
<font id="Quarca-NorRegIt" horiz-adv-x="203" >
  <font-face 
    font-family="Quarca Norm Regular Italic"
    font-weight="500"
    font-style="italic"
    font-stretch="normal"
    units-per-em="1000"
    panose-1="0 0 0 0 0 0 0 0 0 0"
    ascent="760"
    descent="-240"
    x-height="505"
    cap-height="710"
    bbox="-98 -264 1001 949"
    underline-thickness="50"
    underline-position="-200"
    unicode-range="U+0020-FB06"
  />
<missing-glyph horiz-adv-x="490" 
 />
    <glyph glyph-name="ff" unicode="ff" horiz-adv-x="558" 
d="M620 672q-37 0 -57.5 -18.5t-28.5 -58.5l-19 -90h109l-26 -68h-98l-92 -437h-72l92 437h-203l-92 -437h-72l92 437h-88l26 68h77l12 55q14 69 55 101.5t119 32.5h67l-30 -67h-55q-70 0 -87 -78l-9 -44h203l21 100q15 70 56 102.5t119 32.5h67l-31 -68h-55z" />
    <glyph glyph-name="fi" unicode="fi" horiz-adv-x="502" 
d="M427 437h-202l-92 -437h-72l92 437h-88l26 68h77l21 100q15 70 56 102.5t119 32.5h67l-31 -68h-55q-37 0 -57.5 -18.5t-28.5 -58.5l-19 -90h275l-107 -505h-73zM464 635l20 91h81l-20 -91h-81z" />
    <glyph glyph-name="fl" unicode="fl" horiz-adv-x="516" 
d="M369 201l50 236h-194l-92 -437h-72l92 437h-88l26 68h77l21 100q15 70 56 102.5t119 32.5h67l-31 -68h-55q-37 0 -57.5 -18.5t-28.5 -58.5l-19 -90h194l47 221l63 14h13l-131 -615q-13 -61 36 -61h20l-9 -67h-43q-103 0 -80 109l20 95h-1z" />
    <glyph glyph-name="ffi" unicode="ffi" horiz-adv-x="775" 
d="M191 273l-58 -273h-72l28 134h-1l64 303h-87l26 68h76l12 59q14 67 54 98.5t115 31.5h151q42 56 138 56h187l-32 -68h-169q-37 0 -57 -18t-29 -59l-21 -100h273l-107 -505h-72l92 437h-201l-52 -247h-1l-40 -190h-72l58 273h1l34 164h-205l-34 -164h1zM335 627
q-70 0 -87 -78l-9 -44h205l26 122h-135z" />
    <glyph glyph-name="ffl" unicode="ffl" horiz-adv-x="768" 
d="M191 273l-58 -273h-72l28 134h-1l64 303h-87l26 68h76l12 59q14 67 54 98.5t115 31.5h151q42 56 138 56h187l-32 -68h-169q-37 0 -57 -18t-29 -59l-21 -100h273l-107 -505h-72l92 437h-201l-52 -247h-1l-40 -190h-72l58 273h1l34 164h-205l-34 -164h1zM335 627
q-70 0 -87 -78l-9 -44h205l26 122h-135z" />
    <glyph glyph-name="f_f_j" unicode="ffj" horiz-adv-x="775" 
d="M191 273l-58 -273h-72l28 134h-1l64 303h-87l26 68h76l12 59q14 67 54 98.5t115 31.5h151q42 56 138 56h187l-32 -68h-169q-37 0 -57 -18t-29 -59l-21 -100h273l-107 -505h-72l92 437h-201l-52 -247h-1l-40 -190h-72l58 273h1l34 164h-205l-34 -164h1zM335 627
q-70 0 -87 -78l-9 -44h205l26 122h-135z" />
    <glyph glyph-name="f_j" unicode="fj" horiz-adv-x="502" 
d="M427 437h-202l-92 -437h-72l92 437h-88l26 68h77l21 100q15 70 56 102.5t119 32.5h67l-31 -68h-55q-37 0 -57.5 -18.5t-28.5 -58.5l-19 -90h275l-36 -170h2l-87 -408q-25 -115 -138 -115h-55l25 68h26q59 0 73 67l12 53h-2zM460 614l19 91h81l-19 -91h-81z" />
    <glyph glyph-name=".notdef" horiz-adv-x="490" 
 />
    <glyph glyph-name=".null" horiz-adv-x="0" 
 />
    <glyph glyph-name="nonmarkingreturn" horiz-adv-x="333" 
 />
    <glyph glyph-name="NULL" horiz-adv-x="816" 
 />
    <glyph glyph-name="NULL" horiz-adv-x="816" 
 />
    <glyph glyph-name="space" unicode=" " horiz-adv-x="194" 
 />
    <glyph glyph-name="exclam" unicode="!" horiz-adv-x="226" 
d="M137 143h-63l117 613l81 14h12zM36 -5l20 91h81l-20 -91h-81z" />
    <glyph glyph-name="quotedbl" unicode="&#x22;" horiz-adv-x="304" 
d="M156 720h93l-73 -204h-40zM291 720h93l-73 -204h-40z" />
    <glyph glyph-name="numbersign" unicode="#" horiz-adv-x="671" 
d="M-1 0l126 195h-94l24 68h113l107 163h-136l25 68h156l139 216h71l-139 -216h146l140 216h71l-140 -216h107l-26 -68h-125l-106 -163h148l-24 -68h-168l-126 -195h-71l126 195h-147l-126 -195h-71zM346 426l-107 -163h148l105 163h-146z" />
    <glyph glyph-name="dollar" unicode="$" horiz-adv-x="520" 
d="M236 -83l-67 -17l22 100h-46q-144 0 -115 125l19 90h77l-14 -68q-16 -75 55 -75h142q71 0 87 75l12 60q7 33 -1.5 51.5t-38.5 32.5l-168 81q-58 29 -74.5 54.5t-4.5 79.5l16 77q14 66 48 96.5t96 30.5h60l18 82l66 15l-21 -97h34q75 0 104 -30.5t13 -96.5l-17 -82h-77
l13 60q9 42 -5.5 59.5t-51.5 17.5h-118q-40 0 -60 -18t-30 -62l-8 -39q-7 -31 1.5 -49t36.5 -31l170 -83q56 -27 74 -51.5t7 -74.5l-22 -105q-27 -125 -142 -125h-72z" />
    <glyph glyph-name="percent" unicode="%" horiz-adv-x="704" 
d="M129 0l460 710h58l-461 -710h-57zM129 627q17 83 105 83h86q88 0 71 -83l-37 -173q-18 -84 -106 -84h-86q-88 0 -70 84zM299 661h-63q-48 0 -58 -48l-31 -146q-10 -48 38 -48h63q47 0 57 48l31 146q10 48 -37 48zM429 257q18 83 106 83h86q88 0 70 -83l-37 -173
q-18 -84 -105 -84h-86q-89 0 -71 84zM599 291h-63q-48 0 -58 -48l-31 -147q-10 -48 38 -48h63q47 0 57 48l31 147q10 48 -37 48z" />
    <glyph glyph-name="ampersand" unicode="&#x26;" horiz-adv-x="639" 
d="M441 638h-97q-40 0 -61.5 -20t-31.5 -64l-21 -98q-6 -30 7 -48t38 -18h394l-15 -72h-93l-39 -183q-15 -69 -53.5 -102t-111.5 -33h-203q-73 0 -98 33t-10 102l26 122q7 33 37 64t73 34q-22 6 -29.5 32.5t-2.5 50.5l29 137q15 69 53 102t111 33h114q82 0 110 -31t13 -104
l-16 -74h-76l11 53q9 43 -4 63.5t-54 20.5zM185 72h172q40 0 62 20.5t31 63.5l34 162h-215q-109 0 -123 -71l-19 -91q-9 -43 4 -63.5t54 -20.5z" />
    <glyph glyph-name="quotesingle" unicode="'" horiz-adv-x="169" 
d="M156 720h93l-73 -204h-40z" />
    <glyph glyph-name="parenleft" unicode="(" horiz-adv-x="252" 
d="M326 672h-20q-31 0 -49 -18.5t-26 -58.5l-124 -581q-8 -40 2 -58.5t41 -18.5h22l-20 -68h-20q-66 0 -90.5 29.5t-10.5 95.5l132 620q14 67 51.5 96.5t104.5 29.5h28z" />
    <glyph glyph-name="parenright" unicode=")" horiz-adv-x="252" 
d="M159 672h-20l10 68h28q67 0 91.5 -29.5t10.5 -96.5l-132 -620q-14 -66 -51 -95.5t-102 -29.5h-21l9 68h21q32 0 50 18.5t26 58.5l124 581q8 41 -2.5 59t-41.5 18z" />
    <glyph glyph-name="asterisk" unicode="*" horiz-adv-x="360" 
d="M273 722h49l-23 -109l98 59l26 -35l-115 -68l86 -66l-38 -37l-76 59l-24 -112h-49l25 114l-102 -60l-23 35l113 67l-86 67l41 36l75 -59z" />
    <glyph glyph-name="plus" unicode="+" horiz-adv-x="452" 
d="M47 260l26 72h148l32 151h76l-32 -151h160l-25 -72h-150l-33 -154h-76l33 154h-159z" />
    <glyph glyph-name="comma" unicode="," horiz-adv-x="193" 
d="M11 -126h-14l42 214h80l-18 -84z" />
    <glyph glyph-name="hyphen" unicode="-" horiz-adv-x="407" 
d="M399 328l-25 -68h-313l25 68h313z" />
    <glyph glyph-name="period" unicode="." horiz-adv-x="184" 
d="M14 -5l20 91h81l-20 -91h-81z" />
    <glyph glyph-name="slash" unicode="/" horiz-adv-x="397" 
d="M426 744h78l-451 -779h-78z" />
    <glyph glyph-name="zero" unicode="0" horiz-adv-x="584" 
d="M61 140l15 71h1l77 360q15 72 52.5 105.5t108.5 33.5h165q80 0 108 -34t13 -105l-92 -431q-15 -73 -52 -106.5t-108 -33.5h-166q-81 0 -109 34t-13 106zM463 638h-142q-41 0 -63.5 -20.5t-31.5 -63.5l-84 -398q-9 -44 3.5 -64t54.5 -20h143q40 0 61.5 20t31.5 64l84 398
q10 46 -2.5 65t-54.5 19z" />
    <glyph glyph-name="one" unicode="1" horiz-adv-x="257" 
d="M68 0l133 626l-99 -59l17 80l107 63h68l-40 -191h1l-110 -519h-77z" />
    <glyph glyph-name="two" unicode="2" horiz-adv-x="511" 
d="M419 638h-117q-41 0 -63.5 -20.5t-31.5 -63.5l-11 -53h-77l15 70q15 72 53 105.5t109 33.5h140q81 0 109 -34t13 -105l-16 -74h-2l-5 -22q-11 -52 -42 -83t-88 -54l-210 -87q-63 -26 -78 -92l-18 -87h208q40 0 61.5 20t31.5 64l12 59h77l-16 -75q-15 -73 -52 -106.5
t-108 -33.5h-305l36 171q12 56 46.5 89.5t94.5 59.5l212 88q53 22 65 81l11 51h1l3 14q10 46 -3 65t-55 19z" />
    <glyph glyph-name="three" unicode="3" horiz-adv-x="540" 
d="M169 72h143q40 0 61.5 20t31.5 64l7 35h-1l13 62q8 35 -9.5 53t-50.5 18h-159l16 73h141q64 0 78 66l19 91q9 44 -4 64t-54 20h-91q-41 0 -63.5 -20.5t-31.5 -63.5l-11 -53h-77l15 70q15 72 52.5 105.5t109.5 33.5h117q78 0 106.5 -33t14.5 -102l-18 -78l-11 -53
q-15 -71 -74 -82q83 -8 65 -95l-11 -52h1l-16 -75q-15 -73 -52 -106.5t-108 -33.5h-166q-81 0 -109 34t-13 106l16 71h76l-11 -55q-9 -44 3.5 -64t54.5 -20z" />
    <glyph glyph-name="four" unicode="4" horiz-adv-x="535" 
d="M20 128l37 177q13 62 61 107l318 298h93l-345 -327q-42 -39 -53 -87l-20 -96h239l40 190l64 15h17l-44 -205h104l-25 -72h-94l-27 -128h-77l27 128h-315z" />
    <glyph glyph-name="five" unicode="5" horiz-adv-x="506" 
d="M171 72h121q40 0 61.5 20t31.5 64l26 124q19 88 -58 88h-251l72 342h396l-26 -72h-309l-42 -198h192q136 0 108 -134l-20 -91h1l-16 -75q-15 -73 -52 -106.5t-108 -33.5h-153q-76 0 -101.5 34t-10.5 106l16 75h76l-12 -59q-9 -44 4 -64t54 -20z" />
    <glyph glyph-name="six" unicode="6" horiz-adv-x="550" 
d="M527 297l-35 -165q-28 -132 -155 -132h-167q-74 0 -99.5 33t-10.5 99l94 443q15 69 54 102t112 33h145q77 0 107 -31t15 -104l-16 -74h-77l11 54q10 43 -3.5 63t-55.5 20h-125q-77 0 -94 -82l-29 -134h227q66 0 90.5 -31t11.5 -94zM392 350h-209l-42 -197q-17 -81 56 -81
h131q75 0 92 82l25 117q17 79 -53 79z" />
    <glyph glyph-name="seven" unicode="7" horiz-adv-x="451" 
d="M119 638l15 72h410l-34 -163q-14 -66 -54 -115l-355 -432h-91l380 460q35 43 47 101l16 77h-334z" />
    <glyph glyph-name="eight" unicode="8" horiz-adv-x="570" 
d="M162 463l14 66h1l9 42q15 72 52.5 105.5t108.5 33.5h110q81 0 109 -34t13 -105l-16 -74h-1l-7 -34q-9 -41 -22.5 -61.5t-41.5 -29.5q70 -20 50 -109l-10 -48h1l-16 -75q-15 -73 -52 -106.5t-108 -33.5h-171q-80 0 -108 34t-13 106l12 57h-1l14 66q12 53 38.5 76.5
t66.5 32.5q-28 9 -34.5 30.5t2.5 60.5zM404 334h-148q-75 0 -90 -71l-11 -52h1l-11 -55q-9 -44 3 -64t55 -20h147q40 0 61.5 20t31.5 64l22 107q15 71 -61 71zM440 638h-86q-41 0 -64 -20.5t-32 -63.5l-17 -81q-8 -38 7 -52t57 -14h83q42 0 63 14t29 52l17 81q10 46 -2.5 65
t-54.5 19z" />
    <glyph glyph-name="nine" unicode="9" horiz-adv-x="536" 
d="M396 201l23 106h-216q-66 0 -88 32t-7 99l23 112h1l5 21q15 72 52.5 105.5t108.5 33.5h135q80 0 108 -34t13 -105l-16 -74h-2l-60 -282h2l-16 -75q-15 -73 -52 -106.5t-108 -33.5h-136q-81 0 -109 34t-13 106l16 71h76l-11 -55q-9 -44 3 -64t53 -20h114q40 0 62 20t32 64
l9 45h-2zM415 638h-114q-39 -1 -61 -21.5t-31 -62.5l-11 -53h-1l-8 -38q-9 -44 3.5 -64t51.5 -20h190l28 132h2l9 43q10 46 -3 65t-55 19z" />
    <glyph glyph-name="colon" unicode=":" horiz-adv-x="188" 
d="M16 -5l20 91h81l-20 -91h-81zM99 391l19 91h81l-19 -91h-81z" />
    <glyph glyph-name="semicolon" unicode=";" horiz-adv-x="194" 
d="M12 -126h-14l42 214h80l-18 -84zM89 330l19 91h81l-19 -91h-81z" />
    <glyph glyph-name="less" unicode="&#x3c;" horiz-adv-x="382" 
d="M302 11l-255 276l8 38l372 276l-16 -78l-293 -217l200 -217z" />
    <glyph glyph-name="equal" unicode="=" horiz-adv-x="464" 
d="M237 267l17 46h24l-2 -4h1l-16 -45h-24v3z" />
    <glyph glyph-name="greater" unicode="&#x3e;" horiz-adv-x="381" 
d="M387 287l-373 -276l16 78l294 217l-201 217l16 78l256 -276z" />
    <glyph glyph-name="question" unicode="?" horiz-adv-x="472" 
d="M389 330l-44 -18q-37 -15 -52 -31t-22 -48l-22 -105h-76l26 124q11 51 35.5 75.5t72.5 43.5l54 22q34 14 48.5 30t20.5 45l19 90q10 44 -3 62t-53 18h-118q-74 0 -90 -77l-15 -69h-76l19 91q14 66 53 96.5t108 30.5h154q66 0 91 -31t11 -96l-26 -122q-11 -56 -36 -82.5
t-79 -48.5zM142 -5l20 91h81l-20 -91h-81z" />
    <glyph glyph-name="at" unicode="@" horiz-adv-x="726" 
d="M185 70h400l-24 -70h-388q-75 0 -101 33.5t-12 102.5l93 434q14 69 54.5 102.5t115.5 33.5h334q74 0 100.5 -33t11.5 -103l-60 -280q-22 -105 -127 -105h-38q-43 0 -60 12t-13 33q-21 -44 -86 -44h-42q-62 0 -82.5 24t-7.5 87l19 90q15 69 42.5 100t90.5 31h71
q57 0 80.5 -23.5t10.5 -80.5l-30 -145q-2 -7 5.5 -14t23.5 -7h20q44 0 56 57l55 255q8 39 -4.5 57.5t-49.5 18.5h-337q-37 0 -57.5 -18.5t-28.5 -57.5l-88 -414q-8 -39 4 -57.5t49 -18.5zM364 248h39q38 0 54 13.5t23 48.5l18 82q8 35 -2.5 49.5t-41.5 14.5h-46
q-31 0 -46.5 -15.5t-23.5 -50.5l-15 -74q-9 -34 0 -51t41 -17z" />
    <glyph glyph-name="A" unicode="A" horiz-adv-x="541" 
d="M343 710h81l68 -710h-81l-12 146h-268l-74 -146h-80zM363 604l-196 -386h226z" />
    <glyph glyph-name="B" unicode="B" horiz-adv-x="543" 
d="M26 0l150 710h228q91 0 127 -35t20 -107l-19 -86q-19 -94 -93 -110q107 -5 80 -130l-22 -102q-30 -140 -175 -140h-296zM174 335l-56 -263h197q91 0 109 85l17 81q11 50 -10 73.5t-76 23.5h-181zM238 638l-49 -231h165q87 0 103 82l14 62q10 45 -10.5 66t-73.5 21h-149z
" />
    <glyph glyph-name="C" unicode="C" horiz-adv-x="551" 
d="M190 72h148q40 0 61.5 20t31.5 64l12 59h77l-16 -75q-15 -73 -52 -106.5t-108 -33.5h-172q-80 0 -108 34t-13 106l92 431q15 72 52.5 105.5t109.5 33.5h170q81 0 108.5 -34t12.5 -105l-16 -74h-77l12 57q10 46 -2.5 65t-54.5 19h-147q-41 0 -63.5 -20.5t-31.5 -63.5
l-84 -398q-9 -44 3.5 -64t54.5 -20z" />
    <glyph glyph-name="D" unicode="D" horiz-adv-x="581" 
d="M161 638l15 72h271q100 0 137 -41.5t18 -128.5l-78 -370q-19 -87 -69 -128.5t-140 -41.5h-289l15 72h1l120 566h-1zM435 638h-196l-120 -566h194q59 0 92 28.5t46 89.5l70 330q13 62 -6.5 90t-79.5 28z" />
    <glyph glyph-name="E" unicode="E" horiz-adv-x="480" 
d="M238 638l-65 -305h264l-25 -72h-254l-40 -189h318l-25 -72h-385l150 710h394l-26 -72h-306z" />
    <glyph glyph-name="F" unicode="F" horiz-adv-x="466" 
d="M238 638l-65 -305h249l-25 -72h-239l-55 -261h-77l150 710h389l-25 -72h-302z" />
    <glyph glyph-name="G" unicode="G" horiz-adv-x="564" 
d="M305 281l27 73h220l-47 -219q-13 -67 -49.5 -101t-104.5 -34h-186q-143 0 -116 129l95 446q28 135 145 135h200q72 0 100 -31.5t14 -97.5l-17 -80h-77l12 55q9 43 -3.5 62.5t-51.5 19.5h-158q-39 0 -61 -21t-32 -67l-84 -396q-9 -43 5 -62.5t53 -19.5h148q41 0 63.5 19
t30.5 59l28 131h-154z" />
    <glyph glyph-name="H" unicode="H" horiz-adv-x="575" 
d="M103 0h-77l150 710h77l-79 -373h297l79 373h77l-150 -710h-77l56 265h-297z" />
    <glyph glyph-name="I" unicode="I" horiz-adv-x="201" 
d="M103 0h-77l150 710h77z" />
    <glyph glyph-name="J" unicode="J" horiz-adv-x="336" 
d="M3 72h99q76 0 93 82l118 556h76l-121 -571q-30 -139 -162 -139h-128z" />
    <glyph glyph-name="K" unicode="K" horiz-adv-x="496" 
d="M103 0h-77l150 710h77l-71 -336l343 336h84l-359 -355l216 -355h-87l-205 335z" />
    <glyph glyph-name="L" unicode="L" horiz-adv-x="448" 
d="M253 710l-135 -638h301l-26 -72h-367l150 710h77z" />
    <glyph glyph-name="M" unicode="M" horiz-adv-x="655" 
d="M99 0h-73l150 710h85l104 -366l259 366h83l-150 -710h-72l121 573l-220 -311h-74l-90 317z" />
    <glyph glyph-name="N" unicode="N" horiz-adv-x="590" 
d="M103 0h-77l150 710h77l172 -504q10 -27 18 -73l122 577h77l-150 -710h-77l-166 482q-10 28 -24 96z" />
    <glyph glyph-name="O" unicode="O" horiz-adv-x="588" 
d="M51 140l92 431q15 72 52.5 105.5t109.5 33.5h189q81 0 108.5 -34t12.5 -105l-92 -431q-15 -73 -52 -106.5t-108 -33.5h-191q-80 0 -108 34t-13 106zM477 638h-166q-41 0 -63.5 -20.5t-31.5 -63.5l-84 -398q-9 -44 3.5 -64t54.5 -20h167q40 0 61.5 20t31.5 64l84 398
q10 46 -2.5 65t-54.5 19z" />
    <glyph glyph-name="P" unicode="P" horiz-adv-x="523" 
d="M161 278l-15 -67h1l-44 -211h-77l150 710h271q156 0 126 -138l-34 -156q-30 -138 -159 -138h-219zM237 638l-61 -288h197q75 0 92 82l27 124q9 43 -5 62.5t-53 19.5h-197z" />
    <glyph glyph-name="Q" unicode="Q" horiz-adv-x="588" 
d="M52 140l92 431q15 72 52.5 105.5t108.5 33.5h190q80 0 108 -34t13 -105l-16 -74h-2l-60 -282h2l-16 -75q-15 -73 -52 -106.5t-108 -33.5h-71l-25 -113h-72l25 113h-48q-80 0 -108.5 34t-12.5 106zM191 72h45l20 95h72l-20 -95h50q40 0 61.5 20t31.5 64l9 45h-2l66 310h2
l9 43q10 46 -2.5 65t-54.5 19h-166q-41 0 -63.5 -20.5t-31.5 -63.5l-84 -398q-9 -44 3 -64t55 -20z" />
    <glyph glyph-name="R" unicode="R" horiz-adv-x="534" 
d="M26 0l150 710h269q153 0 124 -135l-36 -168q-29 -135 -160 -135h-11l129 -272h-89l-128 272h-114l-57 -272h-77zM238 638l-62 -294h186q42 0 65.5 21t33.5 67l25 118q10 46 -5 67t-57 21h-186z" />
    <glyph glyph-name="S" unicode="S" horiz-adv-x="520" 
d="M368 291l-168 81q-58 29 -74.5 54.5t-4.5 79.5l16 77q14 66 48 96.5t96 30.5h157q75 0 104 -30.5t13 -96.5l-17 -82h-77l13 60q9 42 -5.5 59.5t-51.5 17.5h-118q-40 0 -60 -18t-30 -62l-8 -39q-7 -31 1.5 -49t36.5 -31l170 -83q56 -27 74 -51.5t7 -74.5l-22 -105
q-27 -125 -142 -125h-181q-144 0 -115 125l19 90h77l-14 -68q-16 -75 55 -75h142q71 0 87 75l12 60q7 33 -1.5 51.5t-38.5 32.5z" />
    <glyph glyph-name="T" unicode="T" horiz-adv-x="451" 
d="M539 638h-176l-135 -638h-77l135 638h-176l15 72h429z" />
    <glyph glyph-name="U" unicode="U" horiz-adv-x="566" 
d="M322 72q44 0 70 22t36 71l115 545h77l-121 -569q-15 -71 -54.5 -106t-109.5 -35h-158q-154 0 -124 141l121 569h77l-115 -545q-11 -49 4 -71t60 -22h122z" />
    <glyph glyph-name="V" unicode="V" horiz-adv-x="521" 
d="M266 0h-82l-49 710h81l30 -571q0 -1 -3 -47q7 25 17 47l272 571h82z" />
    <glyph glyph-name="W" unicode="W" horiz-adv-x="831" 
d="M258 0h-83l-39 710h78l20 -554q2 -42 0 -63q11 34 22 62l236 555h75l-1 -555q0 -49 -2 -63q9 27 24 62l257 556h78l-339 -710h-82l-3 537q0 16 8 61q-18 -60 -18 -61z" />
    <glyph glyph-name="X" unicode="X" horiz-adv-x="470" 
d="M278 386l216 324h83l-239 -356l87 -354h-78l-79 313l-212 -313h-81l238 354l-92 356h75z" />
    <glyph glyph-name="Y" unicode="Y" horiz-adv-x="522" 
d="M264 0h-76l60 286l-123 424h78l85 -303q10 -50 10 -52q10 23 31 51l213 304h81l-298 -422z" />
    <glyph glyph-name="Z" unicode="Z" horiz-adv-x="462" 
d="M535 643l-442 -571h333l-25 -72h-407l3 67l441 571h-309l4 72h406z" />
    <glyph glyph-name="bracketleft" unicode="[" horiz-adv-x="242" 
d="M97 -58h62l-9 -68h-140l177 836h130l-8 -67h-63z" />
    <glyph glyph-name="backslash" unicode="\" horiz-adv-x="612" 
d="M354 744h78l119 -779h-78z" />
    <glyph glyph-name="bracketright" unicode="]" horiz-adv-x="242" 
d="M196 643h-62l9 67h139l-177 -836h-129l9 68h62z" />
    <glyph glyph-name="asciicircum" unicode="^" horiz-adv-x="505" 
d="M71 390l274 320h38l143 -320h-77l-101 243l-200 -243h-77z" />
    <glyph glyph-name="underscore" unicode="_" horiz-adv-x="608" 
d="M521 0l-26 -68h-494l25 68h495z" />
    <glyph glyph-name="grave" unicode="`" horiz-adv-x="157" 
d="M39 738h77l60 -114h-52z" />
    <glyph glyph-name="a" unicode="a" horiz-adv-x="476" 
d="M490 505l-49 -232h1l-58 -273h-62l6 57q-39 -57 -119 -57h-64q-128 0 -102 127l53 248q15 68 52.5 102t107.5 34h66q69 0 87 -46l9 40h72zM353 201l39 182q3 63 -62 63h-71q-76 0 -93 -80l-46 -220q-18 -81 56 -81h73q33 0 58 19.5t34 55.5l13 61h-1z" />
    <glyph glyph-name="b" unicode="b" horiz-adv-x="476" 
d="M196 0q-79 0 -93 49l-10 -49h-72l154 726l62 14h13l-58 -274q41 45 111 45h54q73 0 99.5 -31.5t12.5 -95.5l-54 -252q-15 -69 -50.5 -100.5t-103.5 -31.5h-65zM172 372l-49 -228q-15 -79 58 -79h74q73 0 91 81l45 214q10 47 -4 66.5t-58 19.5h-67q-71 0 -90 -74z" />
    <glyph glyph-name="c" unicode="c" horiz-adv-x="448" 
d="M326 441h-73q-38 0 -58.5 -19t-29.5 -61l-45 -215q-10 -43 3 -60.5t51 -17.5h72q42 0 60.5 15t26.5 55l6 31h67l-9 -45q-14 -66 -46 -95t-93 -29h-99q-75 0 -102.5 32.5t-12.5 100.5l51 240q15 70 49.5 102.5t100.5 32.5h100q72 0 97 -31.5t10 -98.5l-10 -44h-68l6 27
q9 42 -3.5 61t-50.5 19z" />
    <glyph glyph-name="d" unicode="d" horiz-adv-x="476" 
d="M540 740l-157 -740h-62l5 56q-37 -56 -118 -56h-64q-127 0 -101 127l53 248q15 68 52.5 102t106.5 34h66q70 0 88 -48l56 263l62 14h13zM248 65q33 0 58 19.5t34 55.5l50 232q5 35 -11 54.5t-50 19.5h-71q-75 0 -92 -80l-46 -220q-18 -81 55 -81h73z" />
    <glyph glyph-name="e" unicode="e" horiz-adv-x="448" 
d="M172 64h72q38 0 58.5 18t28.5 57l4 17h67l-5 -20q-16 -77 -50 -106.5t-112 -29.5h-64q-85 0 -114 30.5t-13 104.5l54 254q15 71 51.5 96.5t115.5 25.5h52q90 0 119 -25.5t14 -96.5l-12 -58q-14 -63 -45.5 -89.5t-111.5 -26.5h-147l-15 -72q-9 -41 2.5 -60t50.5 -19z
M328 448h-78q-36 0 -54.5 -15.5t-25.5 -48.5l-22 -106h142q38 0 56.5 14t24.5 45l10 48q7 32 -5 47.5t-48 15.5z" />
    <glyph glyph-name="f" unicode="f" horiz-adv-x="269" 
d="M341 672q-37 0 -57.5 -18.5t-28.5 -58.5l-19 -90h100l-26 -68h-89l-92 -437h-72l92 437h-84l26 68h73l21 100q15 70 56 102.5t118 32.5h68l-32 -68h-54z" />
    <glyph glyph-name="g" unicode="g" horiz-adv-x="469" 
d="M97 378q14 70 49.5 99.5t108.5 29.5h56q51 0 84 -12l86 69l36 -47l-79 -64q10 -26 0 -75l-13 -59h-1l-8 -39q-15 -71 -54 -100.5t-119 -29.5h-36q-28 0 -39 -5t-15 -22l-1 -5q-4 -16 3.5 -22t28.5 -7h129q69 0 93 -30.5t10 -93.5l-14 -66q-14 -68 -50.5 -96t-111.5 -28
h-133q-86 0 -115 28t-16 96l5 23l8 43q20 94 93 116q-8 10 -3 36l2 8q6 29 26 41q-50 26 -31 114zM145 27q-39 0 -59 -18.5t-28 -59.5l-7 -33q-9 -41 3 -59.5t51 -18.5h141q39 0 59 18.5t29 59.5l7 33q8 41 -4 59.5t-51 18.5h-141zM311 447h-57q-39 0 -60.5 -20t-30.5 -63
l-15 -70q-18 -84 55 -84h57q38 0 59.5 20.5t30.5 63.5l15 70q9 44 -3 63.5t-51 19.5z" />
    <glyph glyph-name="h" unicode="h" horiz-adv-x="467" 
d="M175 387l-82 -387h-72l154 726l62 14h13l-58 -272q39 43 106 43h52q70 0 96 -31t13 -94l-83 -386h-72l78 368q9 43 -4.5 61.5t-51.5 18.5h-63q-33 0 -57 -18t-31 -43z" />
    <glyph glyph-name="i" unicode="i" 
d="M130 437h-57l15 68h129l-107 -505h-72zM163 623l19 91h81l-19 -91h-81z" />
    <glyph glyph-name="j" unicode="j" 
d="M130 437h-57l15 68h129l-123 -578q-25 -115 -137 -115h-55l25 68h26q59 0 73 67zM164 623l19 91h81l-19 -91h-81z" />
    <glyph glyph-name="k" unicode="k" horiz-adv-x="411" 
d="M467 505l-257 -256l151 -249h-80l-139 232l-49 -232h-72l154 726l62 14h13l-100 -468l237 233h80z" />
    <glyph glyph-name="l" unicode="l" horiz-adv-x="207" 
d="M154 64h21l-9 -67h-44q-103 0 -80 109l132 620l62 14h13l-76 -358h1l-55 -257q-13 -61 35 -61z" />
    <glyph glyph-name="m" unicode="m" horiz-adv-x="724" 
d="M21 0l104 491l59 14h12l-9 -40q48 40 122 40h37q82 0 99 -52q51 52 133 52h37q65 0 89 -31t10 -94l-80 -380h-73l76 362q10 42 -4.5 61t-53.5 19h-43q-32 0 -55.5 -12.5t-33.5 -31.5q0 -9 -3 -18l-80 -380h-72l76 362q10 42 -4.5 61t-53.5 19h-44q-33 0 -56.5 -13.5
t-31.5 -32.5l-84 -396h-73z" />
    <glyph glyph-name="n" unicode="n" horiz-adv-x="466" 
d="M20 0l104 491l59 14h12l-9 -43q41 49 112 49h51q70 0 96 -31t13 -94l-82 -386h-73l78 368q9 43 -4 61.5t-51 18.5h-63q-33 0 -57.5 -18t-31.5 -43l-82 -387h-72z" />
    <glyph glyph-name="o" unicode="o" horiz-adv-x="473" 
d="M245 511h104q75 0 102.5 -33.5t12.5 -101.5l-53 -247q-27 -129 -151 -129h-106q-138 0 -111 129l52 247q15 70 50 102.5t100 32.5zM335 446h-81q-39 0 -59 -19t-29 -61l-47 -222q-9 -43 4 -61t50 -18h81q37 0 58 18t30 61l47 222q9 41 -3.5 60.5t-50.5 19.5z" />
    <glyph glyph-name="p" unicode="p" horiz-adv-x="475" 
d="M102 50l-57 -270h-72l151 711l59 14h12l-10 -47q41 53 118 53h54q73 0 99 -31.5t12 -95.5l-53 -252q-15 -69 -51 -100.5t-103 -31.5h-65q-80 0 -94 50zM262 446q-35 0 -59.5 -20.5t-32.5 -56.5l-48 -225q-15 -79 59 -79h73q74 0 92 81l45 214q10 47 -4.5 66.5t-58.5 19.5
h-66z" />
    <glyph glyph-name="q" unicode="q" horiz-adv-x="476" 
d="M490 505l-154 -725h-73l51 243h1l5 24q-38 -47 -111 -47h-64q-128 0 -102 127l53 248q15 68 52.5 102t107.5 34h66q73 0 90 -53l10 47h68zM338 129l53 250q4 31 -12.5 49t-48.5 18h-71q-76 0 -93 -80l-46 -220q-18 -81 56 -81h73q65 0 89 64z" />
    <glyph glyph-name="r" unicode="r" horiz-adv-x="305" 
d="M356 451l-123 -37q-57 -17 -69 -71l-72 -343h-72l104 491l59 14h12l-14 -66q23 32 61 43l114 35h9z" />
    <glyph glyph-name="s" unicode="s" horiz-adv-x="423" 
d="M304 448h-69q-62 0 -74 -58l-3 -17q-6 -29 4 -40t44 -23l102 -34q52 -15 68.5 -38t5.5 -78l-11 -51q-13 -59 -47.5 -84t-105.5 -25h-85q-77 0 -99 27.5t-7 95.5l6 31h68l-6 -27q-7 -34 4 -49t44 -15h89q33 0 50 14t23 44l6 25q6 30 -4 45.5t-37 24.5l-99 34
q-63 20 -78.5 40t-3.5 77l6 30q13 61 45.5 87.5t108.5 26.5h66q77 0 98 -28t7 -97l-6 -28h-67l5 26q14 64 -48 64z" />
    <glyph glyph-name="t" unicode="t" horiz-adv-x="286" 
d="M335 505l-20 -68h-98l-62 -292q-8 -41 4 -59t48 -18h39l-8 -68h-57q-128 0 -101 130l65 307h-76l21 68h70l22 102l72 38h8l-30 -140h103z" />
    <glyph glyph-name="u" unicode="u" horiz-adv-x="465" 
d="M480 505l-107 -505h-55l4 48q-47 -48 -122 -48h-51q-131 0 -103 129l80 376h72l-77 -362q-9 -42 5.5 -61t53.5 -19h53q35 0 61 19t32 44h2l1 7l78 372h73z" />
    <glyph glyph-name="v" unicode="v" horiz-adv-x="436" 
d="M227 0h-90l-44 505h74l30 -426l212 426h76z" />
    <glyph glyph-name="w" unicode="w" horiz-adv-x="690" 
d="M221 0h-90l-37 505h76l20 -426l188 426h76l4 -426l204 426h76l-249 -505h-91l-9 349q-2 15 -1 27q-5 -16 -11 -27z" />
    <glyph glyph-name="x" unicode="x" horiz-adv-x="415" 
d="M230 284l158 221h81l-187 -256l81 -249h-77l-69 207l-155 -207h-81l184 249l-77 256h78z" />
    <glyph glyph-name="y" unicode="y" horiz-adv-x="441" 
d="M17 -157q32 0 54.5 15t43.5 55l40 81h-18l-44 511h75l30 -426l216 426h78l-314 -604q-38 -74 -75 -100t-105 -26h-60l24 68h55z" />
    <glyph glyph-name="z" unicode="z" horiz-adv-x="392" 
d="M420 449l-331 -389h257l-19 -60h-331l3 56l332 389h-237l6 60h324z" />
    <glyph glyph-name="braceleft" unicode="{" horiz-adv-x="299" 
d="M201 -58h20l-9 -68h-28q-62 0 -89 20t-26 62t15 107l21 99q13 48 0.5 72t-57.5 24h-17l15 68h21q43 0 63.5 22.5t30.5 69.5l34 156q16 77 51 106.5t113 29.5h20l-8 -67h-21q-43 0 -61 -22.5t-31 -82.5l-32 -149q-16 -78 -81 -97q30 -11 38.5 -35t-0.5 -71l-32 -152
q-11 -46 0 -69t50 -23z" />
    <glyph glyph-name="bar" unicode="|" horiz-adv-x="215" 
d="M53 -250h-71l215 1013l63 14h12z" />
    <glyph glyph-name="braceright" unicode="}" horiz-adv-x="299" 
d="M-20 -58h21q39 0 59 22t30 70l32 152q10 46 29.5 70.5t53.5 35.5q-57 18 -40 97l32 149q14 58 4.5 81.5t-52.5 23.5h-21l19 67h21q78 0 101 -29.5t7 -106.5l-34 -156q-10 -47 1 -69.5t54 -22.5h22l-15 -68h-17q-46 0 -66.5 -22.5t-31.5 -73.5l-21 -99
q-23 -108 -56 -148.5t-123 -40.5h-27z" />
    <glyph glyph-name="asciitilde" unicode="~" horiz-adv-x="363" 
d="M344 325l-13 -61q-31 36 -60 36q-19 0 -61 -26t-69 -26q-37 0 -66 33l13 61q29 -37 59 -37q19 0 61.5 26.5t69.5 26.5q38 0 66 -33z" />
    <glyph glyph-name="exclamdown" unicode="&#xa1;" horiz-adv-x="206" 
d="M110 374h72l-129 -607l-63 -14h-12zM117 421l19 91h81l-19 -91h-81z" />
    <glyph glyph-name="cent" unicode="&#xa2;" horiz-adv-x="447" 
d="M368 599l-19 -88q71 -2 95.5 -31.5t9.5 -98.5l-8 -40h-68l5 23q9 40 -3 59.5t-51 19.5h-58q-46 0 -69 -17.5t-32 -61.5l-46 -218q-10 -45 6 -61.5t61 -16.5h57q42 0 61.5 19.5t30.5 72.5h68l-8 -35q-14 -66 -52 -95t-107 -30l-18 -83h-73l18 83h-20q-128 0 -101 125
l54 256q16 71 55.5 100.5t118.5 29.5h1l16 74l63 14h13z" />
    <glyph glyph-name="sterling" unicode="&#xa3;" horiz-adv-x="532" 
d="M383 372l-25 -68h-129q-40 -106 -129 -232h385l-26 -72h-453l15 73q45 61 70 104q32 55 59 127h-95l26 68h90q1 7 4.5 21t4.5 17q4 26 7 39q4 23 4.5 59t3.5 49q18 87 56 120t122 33h81q74 0 100 -33.5t12 -101.5l-13 -58h-77l8 37q9 42 -3.5 62.5t-51.5 21.5h-60
q-40 0 -61.5 -19.5t-30.5 -61.5q-1 -5 -2 -16.5t-1 -12.5q0 -3 -7.5 -57.5t-14.5 -86.5l-2 -12h133z" />
    <glyph glyph-name="currency" unicode="&#xa4;" horiz-adv-x="495" 
d="M368 79l-35 46l-36 -30q-44 -37 -76 -37q-27 0 -48 27l-32 40l-54 -44l-37 48l53 45l-28 38q-21 28 -15 58q8 34 48 67l38 31l-34 47l58 48l35 -46l35 29q44 37 76 37q28 0 49 -27l29 -38l55 44l37 -48l-54 -45l31 -40q21 -26 15 -55q-7 -34 -51 -70l-36 -30l36 -46z
M265 134l131 109q16 13 19 28q3 14 -6 26l-86 111q-20 25 -52 -2l-130 -109q-32 -28 -11 -52l85 -111q21 -24 50 0z" />
    <glyph glyph-name="yen" unicode="&#xa5;" horiz-adv-x="480" 
d="M243 0h-76l36 172h-127l25 68h117l9 46h-127l25 68h96l-87 356h85l68 -320l201 320h84l-234 -356h112l-26 -68h-121l-9 -46h132l-26 -68h-121z" />
    <glyph glyph-name="brokenbar" unicode="&#xa6;" horiz-adv-x="218" 
d="M54 -250h-71l84 399h72zM273 777l-88 -413h-72l85 399l63 14h12z" />
    <glyph glyph-name="section" unicode="&#xa7;" horiz-adv-x="466" 
d="M453 291l-5 -27h1l-11 -51q-13 -63 -39.5 -94t-79.5 -37l-31 -3l16 -7q58 -26 43 -99l-10 -46q-14 -66 -48 -93.5t-108 -27.5h-56q-79 0 -100.5 32t-5.5 108l9 42h65l-9 -42q-17 -80 55 -80h53q38 0 57 18.5t28 59.5l6 28q6 31 -6 44.5t-45 26.5l-116 41q-57 19 -69 43
t3 98l6 27h-1l11 51q13 63 39.5 94t79.5 37l30 3l-15 7q-59 24 -43 99l10 46q14 66 48 93.5t107 27.5h56q79 0 101 -32t6 -108l-9 -42h-64l9 42q8 40 -5 59.5t-52 19.5h-53q-38 0 -56 -18t-27 -59l-6 -28q-6 -31 5.5 -45t44.5 -26l115 -41q57 -19 69 -43t-3 -98zM151 152
l47 -18l77 -1q44 0 66.5 19t31.5 63l8 37h-1l9 43q7 31 -1.5 45t-35.5 24l-46 18l-77 1q-44 0 -66.5 -19t-32.5 -64l-7 -36h1l-10 -43q-6 -31 2.5 -45t34.5 -24z" />
    <glyph glyph-name="dieresis" unicode="&#xa8;" horiz-adv-x="816" 
d="M404 722h63l-16 -75h-63zM551 722h63l-16 -75h-63z" />
    <glyph glyph-name="copyright" unicode="&#xa9;" horiz-adv-x="712" 
d="M724 545l-80 -380q-30 -135 -181 -135h-275q-153 0 -123 135l80 380q29 135 181 135h275q151 0 123 -135zM199 84h275q93 0 113 93l77 361q10 46 -8.5 67t-65.5 21h-275q-93 0 -112 -88l-77 -361q-10 -48 7.5 -70.5t65.5 -22.5zM448 471h-58q-46 0 -55 -40l-32 -152
q-9 -41 37 -41h66q20 0 31 12t18 43h46l-3 -12q-18 -91 -92 -91h-88q-85 0 -68 81l36 167q17 81 102 81h82q79 0 62 -81l-6 -28h-48l3 17q5 24 -3 34t-30 10z" />
    <glyph glyph-name="ordfeminine" unicode="&#xaa;" horiz-adv-x="293" 
d="M258 429l2 23q-22 -23 -61 -23h-34q-68 0 -55 64l10 45q14 63 75 63h94l7 32q8 39 -19 39h-49q-17 0 -25 -9t-13 -30l-3 -15h-42l5 23q15 69 76 69h69q62 0 47 -69l-45 -212h-39zM180 467h42q39 0 46 33l13 63h-88q-25 0 -32 -27l-8 -42q-7 -27 27 -27z" />
    <glyph glyph-name="guillemotleft" unicode="&#xab;" horiz-adv-x="432" 
d="M223 69h-86l-89 183l167 183h86l-168 -183zM372 69h-85l-90 183l168 183h85l-168 -183z" />
    <glyph glyph-name="logicalnot" unicode="&#xac;" horiz-adv-x="549" 
d="M436 219l9 40h-371l15 72h440l-24 -112h-69z" />
    <glyph glyph-name="registered" unicode="&#xae;" horiz-adv-x="712" 
d="M724 545l-80 -380q-30 -135 -181 -135h-275q-153 0 -123 135l80 380q29 135 181 135h275q151 0 123 -135zM199 84h275q93 0 113 93l77 361q10 46 -8.5 67t-65.5 21h-275q-93 0 -112 -88l-77 -361q-10 -48 7.5 -70.5t65.5 -22.5zM246 190l70 329h150q71 0 59 -62l-18 -82
q-12 -55 -67 -60l50 -125h-57l-48 122h-63l-26 -122h-50zM356 475l-25 -121h83q37 0 45 34l12 55q6 32 -32 32h-83z" />
    <glyph glyph-name="macron" unicode="&#xaf;" horiz-adv-x="332" 
d="M401 756l-23 -64h-220l23 64h220z" />
    <glyph glyph-name="degree" unicode="&#xb0;" horiz-adv-x="285" 
d="M251 760h32q49 0 64 -17t5 -65l-11 -51q-11 -48 -31.5 -64.5t-70.5 -16.5h-32q-50 0 -64.5 16.5t-4.5 64.5l11 51q10 49 31 65.5t71 16.5zM247 589q41 0 48 36l12 56q4 21 -5.5 28.5t-36.5 7.5h-22q-41 0 -49 -36l-12 -56q-4 -21 6 -28.5t37 -7.5h22z" />
    <glyph glyph-name="plusminus" unicode="&#xb1;" horiz-adv-x="491" 
d="M85 355l26 72h148l32 151h76l-32 -151h160l-25 -72h-150l-33 -154h-76l33 154h-159zM19 32l27 72h384l-26 -72h-385z" />
    <glyph glyph-name="twosuperior" unicode="&#xb2;" horiz-adv-x="288" 
d="M274 671h-43q-37 0 -44 -34l-2 -8h-41l4 19q14 62 83 62h58q32 0 47 -16t9 -44l-2 -9q-8 -36 -54 -64l-96 -57q-35 -20 -42 -52h80q36 0 43 34l2 8h42l-4 -18q-14 -63 -84 -63h-128l8 39q7 32 24 49.5t49 35.5l87 51q25 14 30 37q6 30 -26 30z" />
    <glyph glyph-name="threesuperior" unicode="&#xb3;" horiz-adv-x="282" 
d="M221 468q44 0 53 44q4 20 -7.5 29.5t-29.5 9.5h-37l14 39h31q30 0 39 41q9 40 -36 40h-14q-38 0 -45 -34l-2 -8h-42l4 18q13 63 84 63h34q77 0 62 -68l-5 -25q-10 -37 -37 -48q18 -3 26 -17t4 -33l-4 -20q-15 -70 -92 -70h-56q-72 0 -58 64l4 17h42l-2 -7q-6 -35 30 -35
h40z" />
    <glyph glyph-name="acute" unicode="&#xb4;" horiz-adv-x="509" 
d="M202 602h-61l107 129h84z" />
    <glyph glyph-name="mu" unicode="&#xb5;" horiz-adv-x="462" 
d="M480 505l-107 -505h-54l4 48q-47 -48 -122 -48h-51q-36 0 -58 9l-31 -148h-72l82 384h1l55 260h72l-77 -362q-9 -42 5 -61t53 -19h53q36 0 62 19t32 44h1l1 7l79 372h72z" />
    <glyph glyph-name="paragraph" unicode="&#xb6;" horiz-adv-x="575" 
d="M351 -170l154 724q9 44 -4 64t-54 20h-12l-172 -808h-78l104 487h-98q-73 0 -97.5 33t-9.5 102l26 123q15 69 53 102t111 33h204q73 0 98.5 -33t10.5 -102l-159 -745h-77zM222 389h82l53 249h-82q-41 0 -63 -20.5t-31 -63.5l-17 -81q-9 -44 4 -64t54 -20z" />
    <glyph glyph-name="periodcentered" unicode="&#xb7;" horiz-adv-x="187" 
d="M68 248l20 91h81l-20 -91h-81z" />
    <glyph glyph-name="cedilla" unicode="&#xb8;" horiz-adv-x="826" 
d="M315 -74l-21 7q-26 7 -19 37l11 49h48l-8 -34q-2 -15 10 -19l26 -8q26 -9 19 -47l-6 -27q-7 -34 -23.5 -46t-54.5 -12h-29q-39 0 -50 12.5t-3 45.5l3 16h46l-1 -8q-6 -21 17 -21h20q24 0 29 21l2 11q4 18 -16 23z" />
    <glyph glyph-name="onesuperior" unicode="&#xb9;" horiz-adv-x="169" 
d="M147 671h-13l2 39h24q72 0 58 -63l-46 -218h-42l44 208q7 34 -27 34z" />
    <glyph glyph-name="ordmasculine" unicode="&#xba;" horiz-adv-x="297" 
d="M115 492l33 155q14 63 83 63h62q71 0 58 -63l-33 -155q-14 -63 -84 -63h-62q-70 0 -57 63zM188 468h47q36 0 43 34l29 135q7 34 -29 34h-47q-36 0 -43 -34l-29 -135q-4 -18 2.5 -26t26.5 -8z" />
    <glyph glyph-name="guillemotright" unicode="&#xbb;" horiz-adv-x="432" 
d="M101 69h-85l167 183l-89 183h85l90 -183zM250 69h-85l167 183l-89 183h85l90 -183z" />
    <glyph glyph-name="onequarter" unicode="&#xbc;" horiz-adv-x="571" 
d="M48 0l460 710h57l-460 -710h-57zM149 659h-17l3 51h31q94 0 76 -82l-61 -287h-55l58 273q10 45 -35 45zM271 70l19 89q6 30 33 57l163 153h68l-186 -178q-18 -18 -23 -42l-6 -28h92l13 59l39 8h17l-14 -67h47l-18 -51h-40l-14 -70h-55l14 70h-149z" />
    <glyph glyph-name="onehalf" unicode="&#xbd;" horiz-adv-x="653" 
d="M48 0l460 710h57l-460 -710h-57zM149 659h-17l3 51h31q94 0 76 -82l-61 -287h-55l58 273q10 45 -35 45zM545 318h-57q-49 0 -58 -45l-3 -10h-53l6 25q16 81 109 81h76q43 0 61.5 -20.5t10.5 -57.5l-2 -12q-11 -49 -70 -84l-127 -75q-47 -29 -55 -68h106q47 0 56 44l2 11
h55l-5 -24q-18 -83 -110 -83h-168l11 52q8 41 30.5 64.5t64.5 46.5l114 67q34 19 40 49q7 39 -34 39z" />
    <glyph glyph-name="threequarters" unicode="&#xbe;" horiz-adv-x="681" 
d="M160 0l460 710h57l-460 -710h-57zM383 70l19 89q6 30 33 57l163 153h68l-186 -178q-18 -18 -23 -42l-6 -28h92l13 59l39 8h17l-14 -67h47l-18 -51h-40l-14 -70h-55l14 70h-149zM232 393q57 0 70 57q6 26 -9.5 39t-39.5 13h-49l19 51h41q39 0 51 54q5 27 -6 39.5t-41 12.5
h-18q-50 0 -60 -45l-2 -10h-55l5 24q18 82 110 82h45q101 0 81 -89l-7 -33q-3 -17 -16.5 -36t-30.5 -27q23 -4 33 -22t5 -43l-5 -27q-20 -92 -121 -92h-74q-93 0 -75 84l5 23h55l-2 -9q-5 -24 4 -35t35 -11h52z" />
    <glyph glyph-name="questiondown" unicode="&#xbf;" horiz-adv-x="468" 
d="M149 135l-45 -18q-54 -22 -78.5 -49t-36.5 -82l-25 -122q-14 -66 10 -97t90 -31h154q69 0 108.5 31t53.5 97l19 90h-76l-15 -68q-16 -77 -89 -77h-118q-41 0 -54 17.5t-3 61.5l19 91q6 29 21 45t49 29l52 22q48 19 73.5 44t36.5 75l26 125h-77l-22 -106q-7 -33 -22 -48.5
t-51 -29.5zM256 416l19 91h81l-19 -91h-81z" />
    <glyph glyph-name="Agrave" unicode="&#xc0;" horiz-adv-x="541" 
d="M343 710h81l68 -710h-81l-12 146h-268l-74 -146h-80zM363 604l-196 -386h226zM293 863h77l60 -114h-52z" />
    <glyph glyph-name="Aacute" unicode="&#xc1;" horiz-adv-x="541" 
d="M343 710h81l68 -710h-81l-12 146h-268l-74 -146h-80zM363 604l-196 -386h226zM403 750h-61l106 129h84z" />
    <glyph glyph-name="Acircumflex" unicode="&#xc2;" horiz-adv-x="541" 
d="M343 710h81l68 -710h-81l-12 146h-268l-74 -146h-80zM363 604l-196 -386h226zM391 848h45l84 -99h-72l-43 52h-4l-65 -52h-71z" />
    <glyph glyph-name="Atilde" unicode="&#xc3;" horiz-adv-x="541" 
d="M343 710h81l68 -710h-81l-12 146h-268l-74 -146h-80zM363 604l-196 -386h226zM471 835q33 0 43 -11t3 -41l-8 -35h-50l5 22q3 16 -14 16q-16 0 -32 -12l-23 -18q-20 -15 -63 -15q-35 0 -44 10.5t-2 41.5l7 35h50l-4 -23q-5 -15 14 -15t35 14l17 14q22 17 66 17z" />
    <glyph glyph-name="Adieresis" unicode="&#xc4;" horiz-adv-x="541" 
d="M343 710h81l68 -710h-81l-12 146h-268l-74 -146h-80zM363 604l-196 -386h226zM303 818h63l-16 -75h-63zM450 818h63l-16 -75h-63z" />
    <glyph glyph-name="Aring" unicode="&#xc5;" horiz-adv-x="541" 
d="M343 710h80l69 -710h-81l-12 146h-268l-74 -146h-80zM363 604l-196 -386h226zM406 900h38q45 0 58 -15.5t4 -57.5l-5 -27q-10 -43 -29 -57.5t-64 -14.5h-39q-44 0 -57.5 15t-3.5 57l5 27q9 42 28.5 57.5t64.5 15.5zM455 802l5 23q6 31 -29 31h-31q-35 0 -42 -31l-5 -23
q-6 -31 29 -31h31q35 0 42 31z" />
    <glyph glyph-name="AE" unicode="&#xc6;" horiz-adv-x="815" 
d="M911 710l-26 -72h-318l-32 -309h232l-26 -72h-213l-18 -185h257l-26 -72h-319l14 144h-282l-106 -144h-89l535 710h417zM481 583l-274 -367h236z" />
    <glyph glyph-name="Ccedilla" unicode="&#xc7;" horiz-adv-x="551" 
d="M258 -74l-21 7q-26 7 -19 37l7 30h-53q-80 0 -108 34t-13 106l92 431q15 72 52.5 105.5t109.5 33.5h170q81 0 108.5 -34t12.5 -105l-16 -74h-77l12 57q10 46 -2.5 65t-54.5 19h-147q-41 0 -63.5 -20.5t-31.5 -63.5l-84 -398q-9 -44 3.5 -64t54.5 -20h148q40 0 61.5 20
t31.5 64l12 59h77l-16 -75q-15 -73 -52 -106.5t-108 -33.5h-71l-4 -15q-2 -15 10 -19l26 -8q26 -9 19 -47l-6 -27q-7 -34 -23.5 -46t-54.5 -12h-29q-39 0 -50 12.5t-3 45.5l3 16h46l-1 -8q-6 -21 17 -21h20q25 0 29 21l2 11q4 18 -16 23z" />
    <glyph glyph-name="Egrave" unicode="&#xc8;" horiz-adv-x="480" 
d="M238 638l-65 -305h264l-25 -72h-254l-40 -189h318l-25 -72h-385l150 710h394l-26 -72h-306zM288 863h77l60 -114h-52z" />
    <glyph glyph-name="Eacute" unicode="&#xc9;" horiz-adv-x="480" 
d="M238 638l-65 -305h264l-25 -72h-254l-40 -189h318l-25 -72h-385l150 710h394l-26 -72h-306zM397 750h-61l106 129h84z" />
    <glyph glyph-name="Ecircumflex" unicode="&#xca;" horiz-adv-x="480" 
d="M238 638l-65 -305h264l-25 -72h-254l-40 -189h318l-25 -72h-385l150 710h394l-26 -72h-306zM386 848h45l84 -99h-72l-43 52h-4l-65 -52h-71z" />
    <glyph glyph-name="Edieresis" unicode="&#xcb;" horiz-adv-x="480" 
d="M238 638l-65 -305h264l-25 -72h-254l-40 -189h318l-25 -72h-385l150 710h394l-26 -72h-306zM298 818h63l-16 -75h-63zM445 818h63l-16 -75h-63z" />
    <glyph glyph-name="Igrave" unicode="&#xcc;" horiz-adv-x="201" 
d="M103 0h-77l150 710h77zM123 863h77l60 -114h-52z" />
    <glyph glyph-name="Iacute" unicode="&#xcd;" horiz-adv-x="201" 
d="M103 0h-77l150 710h77zM233 750h-61l106 129h84z" />
    <glyph glyph-name="Icircumflex" unicode="&#xce;" horiz-adv-x="201" 
d="M103 0h-77l150 710h77zM222 848h45l84 -99h-72l-43 52h-4l-65 -52h-71z" />
    <glyph glyph-name="Idieresis" unicode="&#xcf;" horiz-adv-x="201" 
d="M103 0h-77l150 710h77zM133 818h63l-16 -75h-63zM280 818h63l-16 -75h-63z" />
    <glyph glyph-name="Eth" unicode="&#xd0;" horiz-adv-x="567" 
d="M180 638l15 72h277q80 0 108 -34t13 -105l-16 -74h-1l-60 -282h1l-16 -75q-15 -73 -52 -106.5t-108 -33.5h-296l15 72h4l50 235h-92l25 68h81l56 263h-4zM360 375l-25 -68h-144l-50 -235h193q41 0 62.5 20t31.5 64l7 36h-1l75 352h1l2 10q10 46 -3 65t-55 19h-193
l-56 -263h155z" />
    <glyph glyph-name="Ntilde" unicode="&#xd1;" horiz-adv-x="590" 
d="M103 0h-77l150 710h77l172 -504q10 -27 18 -73l122 577h77l-150 -710h-77l-166 482q-10 28 -24 96zM497 835q33 0 43 -11t3 -41l-8 -35h-50l5 22q3 16 -14 16q-16 0 -32 -12l-23 -18q-20 -15 -63 -15q-35 0 -44 10.5t-2 41.5l7 35h50l-4 -23q-5 -15 14 -15t35 14l17 14
q22 17 66 17z" />
    <glyph glyph-name="Ograve" unicode="&#xd2;" horiz-adv-x="588" 
d="M51 140l92 431q15 72 52.5 105.5t109.5 33.5h189q81 0 108.5 -34t12.5 -105l-92 -431q-15 -73 -52 -106.5t-108 -33.5h-191q-80 0 -108 34t-13 106zM477 638h-166q-41 0 -63.5 -20.5t-31.5 -63.5l-84 -398q-9 -44 3.5 -64t54.5 -20h167q40 0 61.5 20t31.5 64l84 398
q10 46 -2.5 65t-54.5 19zM318 863h77l60 -114h-52z" />
    <glyph glyph-name="Oacute" unicode="&#xd3;" horiz-adv-x="588" 
d="M51 140l92 431q15 72 52.5 105.5t109.5 33.5h189q81 0 108.5 -34t12.5 -105l-92 -431q-15 -73 -52 -106.5t-108 -33.5h-191q-80 0 -108 34t-13 106zM477 638h-166q-41 0 -63.5 -20.5t-31.5 -63.5l-84 -398q-9 -44 3.5 -64t54.5 -20h167q40 0 61.5 20t31.5 64l84 398
q10 46 -2.5 65t-54.5 19zM427 750h-61l106 129h84z" />
    <glyph glyph-name="Ocircumflex" unicode="&#xd4;" horiz-adv-x="588" 
d="M51 140l92 431q15 72 52.5 105.5t109.5 33.5h189q81 0 108.5 -34t12.5 -105l-92 -431q-15 -73 -52 -106.5t-108 -33.5h-191q-80 0 -108 34t-13 106zM477 638h-166q-41 0 -63.5 -20.5t-31.5 -63.5l-84 -398q-9 -44 3.5 -64t54.5 -20h167q40 0 61.5 20t31.5 64l84 398
q10 46 -2.5 65t-54.5 19zM415 848h45l84 -99h-72l-43 52h-4l-65 -52h-71z" />
    <glyph glyph-name="Otilde" unicode="&#xd5;" horiz-adv-x="578" 
d="M51 140l92 431q15 72 52.5 105.5t109.5 33.5h178q81 0 109 -34t13 -105l-92 -431q-15 -72 -52.5 -106t-108.5 -34h-180q-80 0 -108 34t-13 106zM466 638h-155q-41 0 -63.5 -20.5t-31.5 -63.5l-84 -398q-9 -44 3.5 -64t54.5 -20h156q40 0 61.5 20t31.5 64l12 59h1l72 339
q10 46 -3 65t-55 19zM463 835q33 0 43 -11t3 -41l-8 -35h-50l5 22q3 16 -14 16q-16 0 -32 -12l-23 -18q-20 -15 -63 -15q-35 0 -44 10.5t-2 41.5l7 35h50l-4 -23q-3 -7 0 -11t14 -4q19 0 35 14l17 14q22 17 66 17z" />
    <glyph glyph-name="Odieresis" unicode="&#xd6;" horiz-adv-x="588" 
d="M51 140l92 431q15 72 52.5 105.5t109.5 33.5h189q81 0 108.5 -34t12.5 -105l-92 -431q-15 -73 -52 -106.5t-108 -33.5h-191q-80 0 -108 34t-13 106zM477 638h-166q-41 0 -63.5 -20.5t-31.5 -63.5l-84 -398q-9 -44 3.5 -64t54.5 -20h167q40 0 61.5 20t31.5 64l84 398
q10 46 -2.5 65t-54.5 19zM328 818h63l-16 -75h-63zM475 818h63l-16 -75h-63z" />
    <glyph glyph-name="multiply" unicode="&#xd7;" horiz-adv-x="394" 
d="M397 384l-133 -112l86 -111l-56 -47l-86 111l-132 -111l-36 47l132 111l-85 112l56 47l85 -112l133 112z" />
    <glyph glyph-name="Oslash" unicode="&#xd8;" horiz-adv-x="580" 
d="M620 754h84l-95 -114q5 -32 -3 -69l-16 -74h-1l-76 -357q-15 -73 -52 -106.5t-108 -33.5h-180q-53 0 -83 15l-50 -60h-82l92 111q-7 29 2 74l92 431q15 72 52.5 105.5t108.5 33.5h180q51 0 85 -16zM467 638h-155q-41 0 -63.5 -20.5t-31.5 -63.5l-81 -384l378 457
q-17 11 -47 11zM191 72h156q40 0 61.5 20t31.5 64l12 59h1l68 319l-376 -452q14 -10 46 -10z" />
    <glyph glyph-name="Ugrave" unicode="&#xd9;" horiz-adv-x="566" 
d="M322 72q44 0 70 22t36 71l115 545h77l-121 -569q-15 -71 -54.5 -106t-109.5 -35h-158q-154 0 -124 141l121 569h77l-115 -545q-11 -49 4 -71t60 -22h122zM306 863h77l60 -114h-52z" />
    <glyph glyph-name="Uacute" unicode="&#xda;" horiz-adv-x="566" 
d="M322 72q44 0 70 22t36 71l115 545h77l-121 -569q-15 -71 -54.5 -106t-109.5 -35h-158q-154 0 -124 141l121 569h77l-115 -545q-11 -49 4 -71t60 -22h122zM415 750h-61l106 129h84z" />
    <glyph glyph-name="Ucircumflex" unicode="&#xdb;" horiz-adv-x="566" 
d="M322 72q44 0 70 22t36 71l115 545h77l-121 -569q-15 -71 -54.5 -106t-109.5 -35h-158q-154 0 -124 141l121 569h77l-115 -545q-11 -49 4 -71t60 -22h122zM403 848h45l84 -99h-72l-43 52h-4l-65 -52h-71z" />
    <glyph glyph-name="Udieresis" unicode="&#xdc;" horiz-adv-x="566" 
d="M322 72q44 0 70 22t36 71l115 545h77l-121 -569q-15 -71 -54.5 -106t-109.5 -35h-158q-154 0 -124 141l121 569h77l-115 -545q-11 -49 4 -71t60 -22h122zM316 818h63l-16 -75h-63zM463 818h63l-16 -75h-63z" />
    <glyph glyph-name="Yacute" unicode="&#xdd;" horiz-adv-x="522" 
d="M264 0h-76l60 286l-123 424h78l85 -303q2 -17 6.5 -32t4.5 -17q9 20 30 48l213 304h81l-298 -422zM393 750h-61l106 129h84z" />
    <glyph glyph-name="Thorn" unicode="&#xde;" horiz-adv-x="523" 
d="M103 0h-77l162 763l68 14h12l-35 -163h194q156 0 125 -139l-32 -155q-30 -139 -160 -139h-219zM218 542l-62 -289h197q76 0 93 82l26 125q9 43 -4.5 62.5t-52.5 19.5h-197z" />
    <glyph glyph-name="germandbls" unicode="&#xdf;" horiz-adv-x="530" 
d="M-8 -140l138 654h1l12 57q15 72 52.5 105.5t108.5 33.5h117q153 0 124 -135l-21 -99q-19 -87 -77 -104q78 -18 55 -124l-24 -113q-29 -135 -178 -135h-140l15 72h122q92 0 110 85l19 92q19 86 -67 86h-128l15 72h117q70 0 85 71l16 73q10 46 -9 66.5t-70 20.5h-74
q-41 0 -63.5 -20.5t-31.5 -63.5l-11 -53h-1l-136 -641h-76z" />
    <glyph glyph-name="agrave" unicode="&#xe0;" horiz-adv-x="455" 
d="M302 0l5 53q-21 -31 -49.5 -42t-72.5 -11h-49q-68 0 -95 27.5t-14 86.5l15 73q12 56 42.5 82.5t83.5 26.5h186l19 89q13 59 -43 59h-92q-59 0 -72 -59l-3 -16h-68l7 34q23 108 121 108h130q119 0 96 -108l-85 -403h-62zM158 68h66q43 0 66.5 19t32.5 61l18 85h-164
q-31 0 -47.5 -15t-23.5 -48l-8 -42q-8 -35 7 -47.5t53 -12.5zM213 693h77l60 -114h-52z" />
    <glyph glyph-name="aacute" unicode="&#xe1;" horiz-adv-x="455" 
d="M302 0l5 53q-21 -31 -49.5 -42t-72.5 -11h-49q-68 0 -95 27.5t-14 86.5l15 73q12 56 42.5 82.5t83.5 26.5h186l19 89q13 59 -43 59h-92q-59 0 -72 -59l-3 -16h-68l7 34q23 108 121 108h130q119 0 96 -108l-85 -403h-62zM158 68h66q43 0 66.5 19t32.5 61l18 85h-164
q-31 0 -47.5 -15t-23.5 -48l-8 -42q-8 -35 7 -47.5t53 -12.5zM328 580h-61l106 129h84z" />
    <glyph glyph-name="acircumflex" unicode="&#xe2;" horiz-adv-x="455" 
d="M302 0l5 53q-21 -31 -49.5 -42t-72.5 -11h-49q-68 0 -95 27.5t-14 86.5l15 73q12 56 42.5 82.5t83.5 26.5h186l19 89q13 59 -43 59h-92q-59 0 -72 -59l-3 -16h-68l7 34q23 108 121 108h130q119 0 96 -108l-85 -403h-62zM158 68h66q43 0 66.5 19t32.5 61l18 85h-164
q-31 0 -47.5 -15t-23.5 -48l-8 -42q-8 -35 7 -47.5t53 -12.5zM313 678h45l84 -99h-72l-43 52h-4l-65 -52h-71z" />
    <glyph glyph-name="atilde" unicode="&#xe3;" horiz-adv-x="455" 
d="M302 0l5 53q-21 -31 -49.5 -42t-72.5 -11h-49q-68 0 -95 27.5t-14 86.5l15 73q12 56 42.5 82.5t83.5 26.5h186l19 89q13 59 -43 59h-92q-59 0 -72 -59l-3 -16h-68l7 34q23 108 121 108h130q119 0 96 -108l-85 -403h-62zM158 68h66q43 0 66.5 19t32.5 61l18 85h-164
q-31 0 -47.5 -15t-23.5 -48l-8 -42q-8 -35 7 -47.5t53 -12.5zM392 665q33 0 43 -11t3 -41l-8 -35h-50l5 22q3 16 -15 16q-15 0 -31 -12l-23 -18q-20 -15 -63 -15q-35 0 -44 10.5t-2 41.5l7 35h50l-5 -23q-2 -8 1 -11.5t14 -3.5q19 0 35 14l17 14q20 17 66 17z" />
    <glyph glyph-name="adieresis" unicode="&#xe4;" horiz-adv-x="455" 
d="M302 0l5 53q-21 -31 -49.5 -42t-72.5 -11h-49q-68 0 -95 27.5t-14 86.5l15 73q12 56 42.5 82.5t83.5 26.5h186l19 89q13 59 -43 59h-92q-59 0 -72 -59l-3 -16h-68l7 34q23 108 121 108h130q119 0 96 -108l-85 -403h-62zM158 68h66q43 0 66.5 19t32.5 61l18 85h-164
q-31 0 -47.5 -15t-23.5 -48l-8 -42q-8 -35 7 -47.5t53 -12.5zM223 648h63l-16 -75h-63zM370 648h63l-16 -75h-63z" />
    <glyph glyph-name="aring" unicode="&#xe5;" horiz-adv-x="455" 
d="M302 0l5 53q-21 -31 -49.5 -42t-72.5 -11h-49q-68 0 -95 27.5t-14 86.5l15 73q12 56 42.5 82.5t83.5 26.5h186l19 89q13 59 -43 59h-92q-59 0 -72 -59l-3 -16h-68l7 34q23 108 121 108h130q119 0 96 -108l-85 -403h-62zM158 68h66q43 0 66.5 19t32.5 61l18 85h-164
q-31 0 -47.5 -15t-23.5 -48l-8 -42q-8 -35 7 -47.5t53 -12.5zM327 730h38q45 0 58 -15.5t4 -57.5l-6 -27q-9 -43 -28 -57.5t-64 -14.5h-39q-44 0 -57.5 15t-4.5 57l6 27q9 42 28.5 57.5t64.5 15.5zM376 632l5 23q6 31 -29 31h-31q-36 0 -42 -31l-5 -23q-7 -31 29 -31h31
q35 0 42 31z" />
    <glyph glyph-name="ae" unicode="&#xe6;" horiz-adv-x="723" 
d="M444 68h73q72 0 88 74l3 14h67l-5 -20q-16 -76 -52.5 -106t-116.5 -30h-69q-108 0 -122 60q-40 -60 -133 -60h-52q-62 0 -86.5 27.5t-11.5 86.5l15 73q23 109 145 109h161l20 92q10 56 -43 56h-90q-56 0 -69 -59l-3 -16h-68l7 34q23 108 130 108h125q51 0 73 -24
q38 24 110 24h69q78 0 104.5 -25t11.5 -93l-14 -66q-13 -61 -45 -86.5t-111 -25.5h-151l-14 -68q-9 -40 3 -59.5t51 -19.5zM597 443h-65q-44 0 -65.5 -17.5t-30.5 -61.5l-18 -86h145q37 0 56.5 13.5t26.5 44.5l9 45q7 32 -6 47t-52 15zM153 68h66q40 0 63 16.5t33 54.5
l20 94h-149q-66 0 -80 -63l-9 -42q-8 -35 6.5 -47.5t49.5 -12.5z" />
    <glyph glyph-name="ccedilla" unicode="&#xe7;" horiz-adv-x="448" 
d="M197 -74l-21 7q-26 7 -19 37l7 30h-5q-75 0 -102.5 32.5t-12.5 100.5l51 240q15 70 49.5 102.5t100.5 32.5h100q72 0 97 -31.5t10 -98.5l-10 -44h-68l6 27q9 42 -3.5 61t-50.5 19h-73q-38 0 -58.5 -19t-29.5 -61l-45 -215q-10 -43 3 -60.5t51 -17.5h72q42 0 60.5 15
t26.5 55l6 31h67l-9 -45q-14 -66 -46 -95t-93 -29h-46l-4 -15q-2 -15 10 -19l26 -8q26 -9 19 -47l-6 -27q-7 -34 -23.5 -46t-54.5 -12h-29q-39 0 -50 12.5t-3 45.5l3 16h46l-1 -8q-6 -21 17 -21h20q24 0 29 21l2 11q4 18 -16 23z" />
    <glyph glyph-name="egrave" unicode="&#xe8;" horiz-adv-x="453" 
d="M172 64h72q38 0 58.5 18t28.5 57l4 17h67l-5 -20q-16 -77 -50 -106.5t-112 -29.5h-64q-85 0 -114 30.5t-13 104.5l54 254q15 71 51.5 96.5t115.5 25.5h52q90 0 119 -25.5t14 -96.5l-12 -58q-14 -63 -45.5 -89.5t-111.5 -26.5h-147l-15 -72q-9 -41 2.5 -60t50.5 -19z
M328 448h-78q-36 0 -54.5 -15.5t-25.5 -48.5l-22 -106h142q38 0 56.5 14t24.5 45l10 48q7 32 -5 47.5t-48 15.5zM219 693h77l60 -114h-52z" />
    <glyph glyph-name="eacute" unicode="&#xe9;" horiz-adv-x="453" 
d="M172 64h72q38 0 58.5 18t28.5 57l4 17h67l-5 -20q-16 -77 -50 -106.5t-112 -29.5h-64q-85 0 -114 30.5t-13 104.5l54 254q15 71 51.5 96.5t115.5 25.5h52q90 0 119 -25.5t14 -96.5l-12 -58q-14 -63 -45.5 -89.5t-111.5 -26.5h-147l-15 -72q-9 -41 2.5 -60t50.5 -19z
M328 448h-78q-36 0 -54.5 -15.5t-25.5 -48.5l-22 -106h142q38 0 56.5 14t24.5 45l10 48q7 32 -5 47.5t-48 15.5zM328 580h-61l106 129h84z" />
    <glyph glyph-name="ecircumflex" unicode="&#xea;" horiz-adv-x="453" 
d="M172 64h72q38 0 58.5 18t28.5 57l4 17h67l-5 -20q-16 -77 -50 -106.5t-112 -29.5h-64q-85 0 -114 30.5t-13 104.5l54 254q15 71 51.5 96.5t115.5 25.5h52q90 0 119 -25.5t14 -96.5l-12 -58q-14 -63 -45.5 -89.5t-111.5 -26.5h-147l-15 -72q-9 -41 2.5 -60t50.5 -19z
M328 448h-78q-36 0 -54.5 -15.5t-25.5 -48.5l-22 -106h142q38 0 56.5 14t24.5 45l10 48q7 32 -5 47.5t-48 15.5zM318 678h45l84 -99h-72l-43 52h-4l-65 -52h-71z" />
    <glyph glyph-name="edieresis" unicode="&#xeb;" horiz-adv-x="453" 
d="M172 64h72q38 0 58.5 18t28.5 57l4 17h67l-5 -20q-16 -77 -50 -106.5t-112 -29.5h-64q-85 0 -114 30.5t-13 104.5l54 254q15 71 51.5 96.5t115.5 25.5h52q90 0 119 -25.5t14 -96.5l-12 -58q-14 -63 -45.5 -89.5t-111.5 -26.5h-147l-15 -72q-9 -41 2.5 -60t50.5 -19z
M328 448h-78q-36 0 -54.5 -15.5t-25.5 -48.5l-22 -106h142q38 0 56.5 14t24.5 45l10 48q7 32 -5 47.5t-48 15.5zM229 648h63l-16 -75h-63zM376 648h63l-16 -75h-63z" />
    <glyph glyph-name="igrave" unicode="&#xec;" 
d="M130 437h-57l15 68h129l-107 -505h-72zM95 693h77l60 -114h-52z" />
    <glyph glyph-name="iacute" unicode="&#xed;" 
d="M130 437h-57l15 68h129l-107 -505h-72zM206 580h-61l106 129h84z" />
    <glyph glyph-name="icircumflex" unicode="&#xee;" 
d="M130 437h-57l15 68h129l-107 -505h-72zM195 678h45l84 -99h-72l-43 52h-4l-65 -52h-71z" />
    <glyph glyph-name="idieresis" unicode="&#xef;" 
d="M130 437h-57l15 68h129l-107 -505h-72zM106 648h63l-16 -75h-63zM253 648h63l-16 -75h-63z" />
    <glyph glyph-name="eth" unicode="&#xf0;" horiz-adv-x="459" 
d="M447 357l-48 -227q-15 -71 -54.5 -100.5t-118.5 -29.5h-76q-79 0 -106.5 29.5t-12.5 100.5l34 161q16 71 55 100.5t118 29.5h79q21 0 57 -4q-5 25 -26 68l-38 78l-143 -23l13 61l102 16l-46 93h88l37 -80l150 24l-13 -61l-111 -18l39 -85q33 -76 21 -133zM223 353
q-38 0 -59 -19t-29 -60l-27 -127q-9 -41 3.5 -60t50.5 -19h81q38 0 58.5 19t29.5 60l36 170q2 12 4 36h-148z" />
    <glyph glyph-name="ntilde" unicode="&#xf1;" horiz-adv-x="466" 
d="M20 0l104 491l59 14h12l-9 -43q41 49 112 49h51q70 0 96 -31t13 -94l-82 -386h-73l78 368q9 43 -4 61.5t-51 18.5h-63q-33 0 -57.5 -18t-31.5 -43l-82 -387h-72zM409 665q33 0 43 -11t3 -41l-8 -35h-50l5 22q3 16 -15 16q-15 0 -31 -12l-23 -18q-20 -15 -63 -15
q-35 0 -44 10.5t-2 41.5l7 35h50l-5 -23q-2 -8 1 -11.5t14 -3.5q19 0 35 14l17 14q20 17 66 17z" />
    <glyph glyph-name="ograve" unicode="&#xf2;" horiz-adv-x="473" 
d="M245 511h104q75 0 102.5 -33.5t12.5 -101.5l-53 -247q-27 -129 -151 -129h-106q-138 0 -111 129l52 247q15 70 50 102.5t100 32.5zM335 446h-81q-39 0 -59 -19t-29 -61l-47 -222q-9 -43 4 -61t50 -18h81q37 0 58 18t30 61l47 222q9 41 -3.5 60.5t-50.5 19.5zM223 693h77
l60 -114h-52z" />
    <glyph glyph-name="oacute" unicode="&#xf3;" horiz-adv-x="473" 
d="M245 511h104q75 0 102.5 -33.5t12.5 -101.5l-53 -247q-27 -129 -151 -129h-106q-138 0 -111 129l52 247q15 70 50 102.5t100 32.5zM335 446h-81q-39 0 -59 -19t-29 -61l-47 -222q-9 -43 4 -61t50 -18h81q37 0 58 18t30 61l47 222q9 41 -3.5 60.5t-50.5 19.5zM333 580h-61
l106 129h84z" />
    <glyph glyph-name="ocircumflex" unicode="&#xf4;" horiz-adv-x="473" 
d="M245 511h104q75 0 102.5 -33.5t12.5 -101.5l-53 -247q-27 -129 -151 -129h-106q-138 0 -111 129l52 247q15 70 50 102.5t100 32.5zM335 446h-81q-39 0 -59 -19t-29 -61l-47 -222q-9 -43 4 -61t50 -18h81q37 0 58 18t30 61l47 222q9 41 -3.5 60.5t-50.5 19.5zM322 678h45
l84 -99h-72l-43 52h-4l-65 -52h-71z" />
    <glyph glyph-name="otilde" unicode="&#xf5;" horiz-adv-x="473" 
d="M245 511h104q75 0 102.5 -33.5t12.5 -101.5l-53 -247q-27 -129 -151 -129h-106q-138 0 -111 129l52 247q15 70 50 102.5t100 32.5zM335 446h-81q-39 0 -59 -19t-29 -61l-47 -222q-9 -43 4 -61t50 -18h81q37 0 58 18t30 61l47 222q9 41 -3.5 60.5t-50.5 19.5zM403 665
q33 0 43 -11t3 -41l-8 -35h-50l5 22q3 16 -15 16q-15 0 -31 -12l-23 -18q-20 -15 -63 -15q-35 0 -44 10.5t-2 41.5l7 35h50l-5 -23q-2 -8 1 -11.5t14 -3.5q19 0 35 14l17 14q20 17 66 17z" />
    <glyph glyph-name="odieresis" unicode="&#xf6;" horiz-adv-x="473" 
d="M245 511h104q75 0 102.5 -33.5t12.5 -101.5l-53 -247q-27 -129 -151 -129h-106q-138 0 -111 129l52 247q15 70 50 102.5t100 32.5zM335 446h-81q-39 0 -59 -19t-29 -61l-47 -222q-9 -43 4 -61t50 -18h81q37 0 58 18t30 61l47 222q9 41 -3.5 60.5t-50.5 19.5zM234 648h63
l-16 -75h-63zM381 648h63l-16 -75h-63z" />
    <glyph glyph-name="divide" unicode="&#xf7;" horiz-adv-x="482" 
d="M62 262l26 72h384l-25 -72h-385zM251 399l20 91h81l-20 -91h-81zM188 102l20 91h81l-20 -91h-81z" />
    <glyph glyph-name="oslash" unicode="&#xf8;" horiz-adv-x="476" 
d="M247 511h104q57 0 88 -20l51 55h71l-92 -99q5 -34 -3 -71l-53 -247q-27 -129 -151 -129h-106q-58 0 -85 20l-51 -54h-69l91 99q-5 23 3 64l52 247q15 70 50 102.5t100 32.5zM256 65q37 0 58 18t30 61l47 219l-264 -283q12 -15 48 -15h81zM337 446h-81q-39 0 -59 -19
t-29 -61l-45 -215l260 281q-14 14 -46 14z" />
    <glyph glyph-name="ugrave" unicode="&#xf9;" horiz-adv-x="465" 
d="M480 505l-107 -505h-55l4 48q-47 -48 -122 -48h-51q-131 0 -103 129l80 376h72l-77 -362q-9 -42 5.5 -61t53.5 -19h53q35 0 61 19t32 44h2l1 7l78 372h73zM213 693h77l60 -114h-52z" />
    <glyph glyph-name="uacute" unicode="&#xfa;" horiz-adv-x="465" 
d="M480 505l-107 -505h-55l4 48q-47 -48 -122 -48h-51q-131 0 -103 129l80 376h72l-77 -362q-9 -42 5.5 -61t53.5 -19h53q35 0 61 19t32 44h2l1 7l78 372h73zM322 580h-61l106 129h84z" />
    <glyph glyph-name="ucircumflex" unicode="&#xfb;" horiz-adv-x="465" 
d="M480 505l-107 -505h-55l4 48q-47 -48 -122 -48h-51q-131 0 -103 129l80 376h72l-77 -362q-9 -42 5.5 -61t53.5 -19h53q35 0 61 19t32 44h2l1 7l78 372h73zM313 678h45l84 -99h-72l-43 52h-4l-65 -52h-71z" />
    <glyph glyph-name="udieresis" unicode="&#xfc;" horiz-adv-x="465" 
d="M480 505l-107 -505h-55l4 48q-47 -48 -122 -48h-51q-131 0 -103 129l80 376h72l-77 -362q-9 -42 5.5 -61t53.5 -19h53q35 0 61 19t32 44h2l1 7l78 372h73zM223 648h63l-16 -75h-63zM370 648h63l-16 -75h-63z" />
    <glyph glyph-name="yacute" unicode="&#xfd;" horiz-adv-x="441" 
d="M17 -157q32 0 54.5 15t43.5 55l40 81h-18l-44 511h75l30 -426l216 426h78l-314 -604q-38 -74 -75 -100t-105 -26h-60l24 68h55zM306 580h-61l106 129h84z" />
    <glyph glyph-name="thorn" unicode="&#xfe;" horiz-adv-x="477" 
d="M39 -250h-71l215 1013l63 14h12l-67 -312q41 46 113 46h54q73 0 99 -31.5t12 -95.5l-53 -252q-15 -69 -51 -100.5t-103 -31.5h-65q-80 0 -94 50zM263 446q-35 0 -59.5 -20.5t-32.5 -56.5l-48 -225q-15 -79 59 -79h73q74 0 92 81l45 214q10 47 -4 66.5t-59 19.5h-66z" />
    <glyph glyph-name="ydieresis" unicode="&#xff;" horiz-adv-x="441" 
d="M17 -157q32 0 54.5 15t43.5 55l40 81h-18l-44 511h75l30 -426l216 426h78l-314 -604q-38 -74 -75 -100t-105 -26h-60l24 68h55zM207 648h63l-16 -75h-63zM354 648h63l-16 -75h-63z" />
    <glyph glyph-name="Amacron" unicode="&#x100;" horiz-adv-x="541" 
d="M343 710h81l68 -710h-81l-12 146h-268l-74 -146h-80zM363 604l-196 -386h226zM530 817l-23 -64h-220l23 64h220z" />
    <glyph glyph-name="amacron" unicode="&#x101;" horiz-adv-x="455" 
d="M302 0l5 53q-21 -31 -49.5 -42t-72.5 -11h-49q-68 0 -95 27.5t-14 86.5l15 73q12 56 42.5 82.5t83.5 26.5h186l19 89q13 59 -43 59h-92q-59 0 -72 -59l-3 -16h-68l7 34q23 108 121 108h130q119 0 96 -108l-85 -403h-62zM158 68h66q43 0 66.5 19t32.5 61l18 85h-164
q-31 0 -47.5 -15t-23.5 -48l-8 -42q-8 -35 7 -47.5t53 -12.5zM450 647l-24 -64h-220l24 64h220z" />
    <glyph glyph-name="Abreve" unicode="&#x102;" horiz-adv-x="541" 
d="M343 710h81l68 -710h-81l-12 146h-268l-74 -146h-80zM363 604l-196 -386h226zM410 747h-31q-50 0 -64.5 16.5t-4.5 64.5l3 12h45l-3 -14q-4 -19 3.5 -27.5t29.5 -8.5h31q42 0 49 36l3 14h45l-3 -12q-10 -48 -31 -64.5t-72 -16.5z" />
    <glyph glyph-name="abreve" unicode="&#x103;" horiz-adv-x="455" 
d="M302 0l5 53q-21 -31 -49.5 -42t-72.5 -11h-49q-68 0 -95 27.5t-14 86.5l15 73q12 56 42.5 82.5t83.5 26.5h186l19 89q13 59 -43 59h-92q-59 0 -72 -59l-3 -16h-68l7 34q23 108 121 108h130q119 0 96 -108l-85 -403h-62zM158 68h66q43 0 66.5 19t32.5 61l18 85h-164
q-31 0 -47.5 -15t-23.5 -48l-8 -42q-8 -35 7 -47.5t53 -12.5zM330 577h-31q-50 0 -64.5 16.5t-4.5 64.5l3 12h45l-3 -14q-4 -19 3.5 -27.5t29.5 -8.5h31q42 0 49 36l3 14h45l-3 -12q-10 -48 -31 -64.5t-72 -16.5z" />
    <glyph glyph-name="Aogonek" unicode="&#x104;" horiz-adv-x="541" 
d="M327 -120l3 14q5 24 18 37.5t38 26.5q22 12 30 19.5t12 22.5h-17l-12 146h-268l-74 -146h-80l366 710h81l68 -710h-23l-4 -15q-5 -24 -15.5 -35t-35.5 -24q-20 -11 -27 -17.5t-9 -17.5t3 -15t19 -4h65l-15 -43h-68q-32 0 -46.5 12t-8.5 39zM363 604l-196 -386h226z" />
    <glyph glyph-name="aogonek" unicode="&#x105;" horiz-adv-x="455" 
d="M302 0l5 53q-21 -31 -49.5 -42t-72.5 -11h-49q-68 0 -95 27.5t-14 86.5l15 73q12 56 42.5 82.5t83.5 26.5h186l19 89q13 59 -43 59h-92q-59 0 -72 -59l-3 -16h-68l7 34q23 108 121 108h130q119 0 96 -108l-85 -403h-12l-1 -3q-6 -24 -16.5 -35t-35.5 -24
q-20 -11 -26.5 -17.5t-8.5 -17.5t3 -15t19 -4h65l-15 -43h-68q-32 0 -46.5 12t-8.5 39l3 14q8 39 55 64q32 17 39 30h-8zM158 68h66q43 0 66.5 19t32.5 61l18 85h-164q-31 0 -47.5 -15t-23.5 -48l-8 -42q-8 -35 7 -47.5t53 -12.5z" />
    <glyph glyph-name="Cacute" unicode="&#x106;" horiz-adv-x="551" 
d="M190 72h148q40 0 61.5 20t31.5 64l12 59h77l-16 -75q-15 -73 -52 -106.5t-108 -33.5h-172q-80 0 -108 34t-13 106l92 431q15 72 52.5 105.5t109.5 33.5h170q81 0 108.5 -34t12.5 -105l-16 -74h-77l12 57q10 46 -2.5 65t-54.5 19h-147q-41 0 -63.5 -20.5t-31.5 -63.5
l-84 -398q-9 -44 3.5 -64t54.5 -20zM422 750h-61l106 129h84z" />
    <glyph glyph-name="cacute" unicode="&#x107;" horiz-adv-x="448" 
d="M326 441h-73q-38 0 -58.5 -19t-29.5 -61l-45 -215q-10 -43 3 -60.5t51 -17.5h72q42 0 60.5 15t26.5 55l6 31h67l-9 -45q-14 -66 -46 -95t-93 -29h-99q-75 0 -102.5 32.5t-12.5 100.5l51 240q15 70 49.5 102.5t100.5 32.5h100q72 0 97 -31.5t10 -98.5l-10 -44h-68l6 27
q9 42 -3.5 61t-50.5 19zM328 580h-61l106 129h84z" />
    <glyph glyph-name="Ccircumflex" unicode="&#x108;" horiz-adv-x="551" 
d="M190 72h148q40 0 61.5 20t31.5 64l12 59h77l-16 -75q-15 -73 -52 -106.5t-108 -33.5h-172q-80 0 -108 34t-13 106l92 431q15 72 52.5 105.5t109.5 33.5h170q81 0 108.5 -34t12.5 -105l-16 -74h-77l12 57q10 46 -2.5 65t-54.5 19h-147q-41 0 -63.5 -20.5t-31.5 -63.5
l-84 -398q-9 -44 3.5 -64t54.5 -20zM410 848h45l84 -99h-72l-43 52h-4l-65 -52h-71z" />
    <glyph glyph-name="ccircumflex" unicode="&#x109;" horiz-adv-x="448" 
d="M326 441h-73q-38 0 -58.5 -19t-29.5 -61l-45 -215q-10 -43 3 -60.5t51 -17.5h72q42 0 60.5 15t26.5 55l6 31h67l-9 -45q-14 -66 -46 -95t-93 -29h-99q-75 0 -102.5 32.5t-12.5 100.5l51 240q15 70 49.5 102.5t100.5 32.5h100q72 0 97 -31.5t10 -98.5l-10 -44h-68l6 27
q9 42 -3.5 61t-50.5 19zM318 678h45l84 -99h-72l-43 52h-4l-65 -52h-71z" />
    <glyph glyph-name="Cdotaccent" unicode="&#x10a;" horiz-adv-x="551" 
d="M190 72h148q40 0 61.5 20t31.5 64l12 59h77l-16 -75q-15 -73 -52 -106.5t-108 -33.5h-172q-80 0 -108 34t-13 106l92 431q15 72 52.5 105.5t109.5 33.5h170q81 0 108.5 -34t12.5 -105l-16 -74h-77l12 57q10 46 -2.5 65t-54.5 19h-147q-41 0 -63.5 -20.5t-31.5 -63.5
l-84 -398q-9 -44 3.5 -64t54.5 -20zM391 834h81l-18 -84h-81z" />
    <glyph glyph-name="cdotaccent" unicode="&#x10b;" horiz-adv-x="448" 
d="M326 441h-73q-38 0 -58.5 -19t-29.5 -61l-45 -215q-10 -43 3 -60.5t51 -17.5h72q42 0 60.5 15t26.5 55l6 31h67l-9 -45q-14 -66 -46 -95t-93 -29h-99q-75 0 -102.5 32.5t-12.5 100.5l51 240q15 70 49.5 102.5t100.5 32.5h100q72 0 97 -31.5t10 -98.5l-10 -44h-68l6 27
q9 42 -3.5 61t-50.5 19zM294 646h81l-18 -84h-81z" />
    <glyph glyph-name="Ccaron" unicode="&#x10c;" horiz-adv-x="551" 
d="M190 72h148q40 0 61.5 20t31.5 64l12 59h77l-16 -75q-15 -73 -52 -106.5t-108 -33.5h-172q-80 0 -108 34t-13 106l92 431q15 72 52.5 105.5t109.5 33.5h170q81 0 108.5 -34t12.5 -105l-16 -74h-77l12 57q10 46 -2.5 65t-54.5 19h-147q-41 0 -63.5 -20.5t-31.5 -63.5
l-84 -398q-9 -44 3.5 -64t54.5 -20zM435 749h-45l-81 100h68l44 -59l69 59h68z" />
    <glyph glyph-name="ccaron" unicode="&#x10d;" horiz-adv-x="448" 
d="M326 441h-73q-38 0 -58.5 -19t-29.5 -61l-45 -215q-10 -43 3 -60.5t51 -17.5h72q42 0 60.5 15t26.5 55l6 31h67l-9 -45q-14 -66 -46 -95t-93 -29h-99q-75 0 -102.5 32.5t-12.5 100.5l51 240q15 70 49.5 102.5t100.5 32.5h100q72 0 97 -31.5t10 -98.5l-10 -44h-68l6 27
q9 42 -3.5 61t-50.5 19zM342 579h-45l-81 100h68l44 -59l69 59h68z" />
    <glyph glyph-name="Dcaron" unicode="&#x10e;" horiz-adv-x="581" 
d="M161 638l15 72h271q100 0 137 -41.5t18 -128.5l-78 -370q-19 -87 -69 -128.5t-140 -41.5h-289l15 72h1l120 566h-1zM435 638h-196l-120 -566h194q59 0 92 28.5t46 89.5l70 330q13 62 -6.5 90t-79.5 28zM425 749h-45l-81 100h68l44 -59l69 59h68z" />
    <glyph glyph-name="dcaron" unicode="&#x10f;" horiz-adv-x="476" 
d="M540 740l-157 -740h-62l5 56q-37 -56 -118 -56h-64q-127 0 -101 127l53 248q15 68 52.5 102t106.5 34h66q70 0 88 -48l56 263l62 14h13zM248 65q33 0 58 19.5t34 55.5l50 232q5 35 -11 54.5t-50 19.5h-71q-75 0 -92 -80l-46 -220q-18 -81 55 -81h73zM593 759h93l-73 -204
h-40z" />
    <glyph glyph-name="Dcroat" unicode="&#x110;" horiz-adv-x="584" 
d="M30 0l71 335h-69l23 63h59l66 312h270q100 0 137 -41.5t18 -128.5l-78 -370q-19 -87 -69 -128.5t-140 -41.5h-288zM437 638h-195l-51 -240h106l-24 -63h-95l-56 -263h194q59 0 92 28.5t46 89.5l70 330q13 62 -7 90t-80 28z" />
    <glyph glyph-name="dcroat" unicode="&#x111;" horiz-adv-x="476" 
d="M609 675l-24 -68h-74l-71 -334h2l-58 -273h-62l6 57q-39 -57 -119 -57h-64q-128 0 -102 127l53 248q15 68 52.5 102t107.5 34h66q67 0 87 -45l30 141h-127l24 68h117l11 51l62 14h13l-14 -65h84zM352 201l40 188q0 57 -62 57h-71q-76 0 -93 -80l-46 -220q-18 -81 56 -81
h73q33 0 58.5 20.5t34.5 58.5l12 57h-2z" />
    <glyph glyph-name="Emacron" unicode="&#x112;" horiz-adv-x="480" 
d="M238 638l-65 -305h264l-25 -72h-254l-40 -189h318l-25 -72h-385l150 710h394l-26 -72h-306zM524 817l-23 -64h-220l23 64h220z" />
    <glyph glyph-name="emacron" unicode="&#x113;" horiz-adv-x="453" 
d="M172 64h72q38 0 58.5 18t28.5 57l4 17h67l-5 -20q-16 -77 -50 -106.5t-112 -29.5h-64q-85 0 -114 30.5t-13 104.5l54 254q15 71 51.5 96.5t115.5 25.5h52q90 0 119 -25.5t14 -96.5l-12 -58q-14 -63 -45.5 -89.5t-111.5 -26.5h-147l-15 -72q-9 -41 2.5 -60t50.5 -19z
M328 448h-78q-36 0 -54.5 -15.5t-25.5 -48.5l-22 -106h142q38 0 56.5 14t24.5 45l10 48q7 32 -5 47.5t-48 15.5zM455 647l-24 -64h-220l24 64h220z" />
    <glyph glyph-name="Ebreve" unicode="&#x114;" horiz-adv-x="480" 
d="M238 638l-65 -305h264l-25 -72h-254l-40 -189h318l-25 -72h-385l150 710h394l-26 -72h-306zM404 747h-31q-50 0 -64.5 16.5t-4.5 64.5l3 12h45l-3 -14q-4 -19 3.5 -27.5t29.5 -8.5h31q42 0 49 36l3 14h45l-3 -12q-10 -48 -31 -64.5t-72 -16.5z" />
    <glyph glyph-name="ebreve" unicode="&#x115;" horiz-adv-x="453" 
d="M172 64h72q38 0 58.5 18t28.5 57l4 17h67l-5 -20q-16 -77 -50 -106.5t-112 -29.5h-64q-85 0 -114 30.5t-13 104.5l54 254q15 71 51.5 96.5t115.5 25.5h52q90 0 119 -25.5t14 -96.5l-12 -58q-14 -63 -45.5 -89.5t-111.5 -26.5h-147l-15 -72q-9 -41 2.5 -60t50.5 -19z
M328 448h-78q-36 0 -54.5 -15.5t-25.5 -48.5l-22 -106h142q38 0 56.5 14t24.5 45l10 48q7 32 -5 47.5t-48 15.5zM335 577h-31q-50 0 -64.5 16.5t-4.5 64.5l3 12h45l-3 -14q-4 -19 3.5 -27.5t29.5 -8.5h31q42 0 49 36l3 14h45l-3 -12q-10 -48 -31 -64.5t-72 -16.5z" />
    <glyph glyph-name="Edotaccent" unicode="&#x116;" horiz-adv-x="480" 
d="M238 638l-65 -305h264l-25 -72h-254l-40 -189h318l-25 -72h-385l150 710h394l-26 -72h-306zM367 834h81l-18 -84h-81z" />
    <glyph glyph-name="edotaccent" unicode="&#x117;" horiz-adv-x="453" 
d="M172 64h72q38 0 58.5 18t28.5 57l4 17h67l-5 -20q-16 -77 -50 -106.5t-112 -29.5h-64q-85 0 -114 30.5t-13 104.5l54 254q15 71 51.5 96.5t115.5 25.5h52q90 0 119 -25.5t14 -96.5l-12 -58q-14 -63 -45.5 -89.5t-111.5 -26.5h-147l-15 -72q-9 -41 2.5 -60t50.5 -19z
M328 448h-78q-36 0 -54.5 -15.5t-25.5 -48.5l-22 -106h142q38 0 56.5 14t24.5 45l10 48q7 32 -5 47.5t-48 15.5zM295 650h81l-18 -84h-81z" />
    <glyph glyph-name="Eogonek" unicode="&#x118;" horiz-adv-x="480" 
d="M267 -113l3 14q9 39 56 64q21 11 28.5 17.5t11.5 17.5h-340l150 710h394l-26 -72h-306l-65 -305h264l-25 -72h-254l-40 -189h318l-25 -72h-3l-2 -8q-6 -24 -16.5 -35t-35.5 -24q-20 -11 -26.5 -17.5t-8.5 -17.5t3 -15t19 -4h65l-15 -43h-68q-31 0 -46 12t-10 39z" />
    <glyph glyph-name="eogonek" unicode="&#x119;" horiz-adv-x="453" 
d="M75 -110l3 14q5 23 18.5 37t37.5 27q34 19 39 32h-2q-85 0 -114 30.5t-13 104.5l54 254q15 71 51.5 96.5t115.5 25.5h52q90 0 119 -25.5t14 -96.5l-12 -58q-14 -63 -45.5 -89.5t-111.5 -26.5h-147l-15 -72q-9 -41 2.5 -60t50.5 -19h72q38 0 58.5 18t28.5 57l4 17h67
l-5 -20q-16 -77 -50 -106.5t-112 -29.5h-20l-2 -5q-5 -24 -15.5 -35t-35.5 -24q-20 -11 -27 -17.5t-9 -17.5t3 -15t19 -4h65l-15 -43h-68q-32 0 -46.5 12t-8.5 39zM328 448h-78q-36 0 -54.5 -15.5t-25.5 -48.5l-22 -106h142q38 0 56.5 14t24.5 45l10 48q7 32 -5 47.5
t-48 15.5z" />
    <glyph glyph-name="Ecaron" unicode="&#x11a;" horiz-adv-x="480" 
d="M238 638l-65 -305h264l-25 -72h-254l-40 -189h318l-25 -72h-385l150 710h394l-26 -72h-306zM410 749h-45l-81 100h68l44 -59l69 59h68z" />
    <glyph glyph-name="ecaron" unicode="&#x11b;" horiz-adv-x="453" 
d="M172 64h72q38 0 58.5 18t28.5 57l4 17h67l-5 -20q-16 -77 -50 -106.5t-112 -29.5h-64q-85 0 -114 30.5t-13 104.5l54 254q15 71 51.5 96.5t115.5 25.5h52q90 0 119 -25.5t14 -96.5l-12 -58q-14 -63 -45.5 -89.5t-111.5 -26.5h-147l-15 -72q-9 -41 2.5 -60t50.5 -19z
M328 448h-78q-36 0 -54.5 -15.5t-25.5 -48.5l-22 -106h142q38 0 56.5 14t24.5 45l10 48q7 32 -5 47.5t-48 15.5zM342 579h-45l-81 100h68l44 -59l69 59h68z" />
    <glyph glyph-name="Gcircumflex" unicode="&#x11c;" horiz-adv-x="564" 
d="M305 281l27 73h220l-47 -219q-13 -67 -49.5 -101t-104.5 -34h-186q-143 0 -116 129l95 446q28 135 145 135h200q72 0 100 -31.5t14 -97.5l-17 -80h-77l12 55q9 43 -3.5 62.5t-51.5 19.5h-158q-39 0 -61 -21t-32 -67l-84 -396q-9 -43 5 -62.5t53 -19.5h148q41 0 63.5 19
t30.5 59l28 131h-154zM415 848h45l84 -99h-72l-43 52h-4l-65 -52h-71z" />
    <glyph glyph-name="gcircumflex" unicode="&#x11d;" horiz-adv-x="470" 
d="M267 507h55q45 0 76 -11l83 67l37 -48l-79 -64q8 -29 -1 -74l-21 -99q-16 -71 -54.5 -100.5t-115.5 -30.5l-1 -2h-39q-22 0 -31 -5.5t-13 -22.5l-1 -5q-4 -22 11 -26h142q68 0 91.5 -30.5t9.5 -94.5l-14 -67q-15 -69 -54.5 -97t-120.5 -28h-132q-80 0 -107.5 28t-13.5 97
l14 67q22 99 99 118q-2 14 2 32l2 8q6 26 21 40q-56 25 -36 119l21 99q14 70 53.5 100t116.5 30zM145 23q-39 0 -59 -18.5t-28 -60.5l-8 -34q-8 -41 4 -59.5t51 -18.5h140q39 0 59 18.5t28 59.5l8 34q8 41 -4 60t-51 19h-140zM253 446q-39 0 -59.5 -19.5t-29.5 -63.5
l-15 -71q-10 -43 2.5 -63.5t51.5 -20.5h57q38 0 59 20t31 64l15 71q9 43 -3.5 63t-51.5 20h-57zM313 678h45l84 -99h-72l-43 52h-4l-65 -52h-71z" />
    <glyph glyph-name="Gbreve" unicode="&#x11e;" horiz-adv-x="564" 
d="M305 281l27 73h220l-47 -219q-13 -67 -49.5 -101t-104.5 -34h-186q-143 0 -116 129l95 446q28 135 145 135h200q72 0 100 -31.5t14 -97.5l-17 -80h-77l12 55q9 43 -3.5 62.5t-51.5 19.5h-158q-39 0 -61 -21t-32 -67l-84 -396q-9 -43 5 -62.5t53 -19.5h148q41 0 63.5 19
t30.5 59l28 131h-154zM434 747h-31q-50 0 -64.5 16.5t-4.5 64.5l3 12h45l-3 -14q-4 -19 3.5 -27.5t29.5 -8.5h31q42 0 49 36l3 14h45l-3 -12q-10 -48 -31 -64.5t-72 -16.5z" />
    <glyph glyph-name="gbreve" unicode="&#x11f;" horiz-adv-x="470" 
d="M267 507h55q45 0 76 -11l83 67l37 -48l-79 -64q8 -29 -1 -74l-21 -99q-16 -71 -54.5 -100.5t-115.5 -30.5l-1 -2h-39q-22 0 -31 -5.5t-13 -22.5l-1 -5q-4 -22 11 -26h142q68 0 91.5 -30.5t9.5 -94.5l-14 -67q-15 -69 -54.5 -97t-120.5 -28h-132q-80 0 -107.5 28t-13.5 97
l14 67q22 99 99 118q-2 14 2 32l2 8q6 26 21 40q-56 25 -36 119l21 99q14 70 53.5 100t116.5 30zM145 23q-39 0 -59 -18.5t-28 -60.5l-8 -34q-8 -41 4 -59.5t51 -18.5h140q39 0 59 18.5t28 59.5l8 34q8 41 -4 60t-51 19h-140zM253 446q-39 0 -59.5 -19.5t-29.5 -63.5
l-15 -71q-10 -43 2.5 -63.5t51.5 -20.5h57q38 0 59 20t31 64l15 71q9 43 -3.5 63t-51.5 20h-57zM331 577h-31q-50 0 -64.5 16.5t-4.5 64.5l3 12h45l-3 -14q-4 -19 3.5 -27.5t29.5 -8.5h31q42 0 49 36l3 14h45l-3 -12q-10 -48 -31 -64.5t-72 -16.5z" />
    <glyph glyph-name="Gdotaccent" unicode="&#x120;" horiz-adv-x="564" 
d="M305 281l27 73h220l-47 -219q-13 -67 -49.5 -101t-104.5 -34h-186q-143 0 -116 129l95 446q28 135 145 135h200q72 0 100 -31.5t14 -97.5l-17 -80h-77l12 55q9 43 -3.5 62.5t-51.5 19.5h-158q-39 0 -61 -21t-32 -67l-84 -396q-9 -43 5 -62.5t53 -19.5h148q41 0 63.5 19
t30.5 59l28 131h-154zM396 834h81l-18 -84h-81z" />
    <glyph glyph-name="gdotaccent" unicode="&#x121;" horiz-adv-x="470" 
d="M267 507h55q45 0 76 -11l83 67l37 -48l-79 -64q8 -29 -1 -74l-21 -99q-16 -71 -54.5 -100.5t-115.5 -30.5l-1 -2h-39q-22 0 -31 -5.5t-13 -22.5l-1 -5q-4 -22 11 -26h142q68 0 91.5 -30.5t9.5 -94.5l-14 -67q-15 -69 -54.5 -97t-120.5 -28h-132q-80 0 -107.5 28t-13.5 97
l14 67q22 99 99 118q-2 14 2 32l2 8q6 26 21 40q-56 25 -36 119l21 99q14 70 53.5 100t116.5 30zM145 23q-39 0 -59 -18.5t-28 -60.5l-8 -34q-8 -41 4 -59.5t51 -18.5h140q39 0 59 18.5t28 59.5l8 34q8 41 -4 60t-51 19h-140zM253 446q-39 0 -59.5 -19.5t-29.5 -63.5
l-15 -71q-10 -43 2.5 -63.5t51.5 -20.5h57q38 0 59 20t31 64l15 71q9 43 -3.5 63t-51.5 20h-57zM292 664h81l-18 -84h-81z" />
    <glyph glyph-name="Gcommaaccent" unicode="&#x122;" horiz-adv-x="564" 
d="M305 281l27 73h220l-47 -219q-13 -67 -49.5 -101t-104.5 -34h-186q-143 0 -116 129l95 446q28 135 145 135h200q72 0 100 -31.5t14 -97.5l-17 -80h-77l12 55q9 43 -3.5 62.5t-51.5 19.5h-158q-39 0 -61 -21t-32 -67l-84 -396q-9 -43 5 -62.5t53 -19.5h148q41 0 63.5 19
t30.5 59l28 131h-154z" />
    <glyph glyph-name="gcommaaccent" unicode="&#x123;" horiz-adv-x="470" 
d="M267 507h55q45 0 76 -11l83 67l37 -48l-79 -64q8 -29 -1 -74l-21 -99q-16 -71 -54.5 -100.5t-115.5 -30.5l-1 -2h-39q-22 0 -31 -5.5t-13 -22.5l-1 -5q-4 -22 11 -26h142q68 0 91.5 -30.5t9.5 -94.5l-14 -67q-15 -69 -54.5 -97t-120.5 -28h-132q-80 0 -107.5 28t-13.5 97
l14 67q22 99 99 118q-2 14 2 32l2 8q6 26 21 40q-56 25 -36 119l21 99q14 70 53.5 100t116.5 30zM145 23q-39 0 -59 -18.5t-28 -60.5l-8 -34q-8 -41 4 -59.5t51 -18.5h140q39 0 59 18.5t28 59.5l8 34q8 41 -4 60t-51 19h-140zM253 446q-39 0 -59.5 -19.5t-29.5 -63.5
l-15 -71q-10 -43 2.5 -63.5t51.5 -20.5h57q38 0 59 20t31 64l15 71q9 43 -3.5 63t-51.5 20h-57zM354 567h-93l66 204h40z" />
    <glyph glyph-name="Hcircumflex" unicode="&#x124;" horiz-adv-x="575" 
d="M103 0h-77l150 710h77l-79 -373h297l79 373h77l-150 -710h-77l56 265h-297zM410 849h45l84 -99h-72l-43 52h-4l-65 -52h-71z" />
    <glyph glyph-name="hcircumflex" unicode="&#x125;" horiz-adv-x="467" 
d="M175 387l-82 -387h-72l154 726l62 14h13l-58 -272q40 43 107 43h51q70 0 96 -31t13 -94l-82 -386h-73l78 368q9 43 -4 61.5t-51 18.5h-63q-33 0 -57.5 -18t-31.5 -43zM369 704h45l84 -99h-72l-43 52h-4l-65 -52h-71z" />
    <glyph glyph-name="Hbar" unicode="&#x126;" horiz-adv-x="583" 
d="M107 0h-77l117 554h-62l25 63h51l19 93h77l-19 -93h297l19 93h77l-19 -93h64l-24 -63h-54l-117 -554h-77l56 265h-297zM224 554l-46 -217h297l46 217h-297z" />
    <glyph glyph-name="hbar" unicode="&#x127;" horiz-adv-x="467" 
d="M238 639l-16 -41h-1l-28 -130q40 43 107 43h51q70 0 96 -31t13 -94l-82 -386h-72l78 368q9 43 -4.5 61.5t-51.5 18.5h-63q-34 0 -58 -19t-31 -44h-1l-81 -385h-72l154 726l62 14h13l-22 -101h9z" />
    <glyph glyph-name="Itilde" unicode="&#x128;" horiz-adv-x="201" 
d="M103 0h-77l150 710h77zM302 835q33 0 43 -11t3 -41l-8 -35h-50l5 22q3 16 -14 16q-16 0 -32 -12l-23 -18q-20 -15 -63 -15q-35 0 -44 10.5t-2 41.5l7 35h50l-4 -23q-3 -7 0 -11t14 -4q19 0 35 14l17 14q22 17 66 17z" />
    <glyph glyph-name="itilde" unicode="&#x129;" 
d="M130 437h-57l15 68h129l-107 -505h-72zM274 665q33 0 43 -11t3 -41l-8 -35h-50l5 22q3 16 -15 16q-15 0 -31 -12l-23 -18q-20 -15 -63 -15q-35 0 -44 10.5t-2 41.5l7 35h50l-5 -23q-2 -8 1 -11.5t14 -3.5q19 0 35 14l17 14q20 17 66 17z" />
    <glyph glyph-name="Imacron" unicode="&#x12a;" horiz-adv-x="201" 
d="M103 0h-77l150 710h77zM362 817l-23 -64h-220l23 64h220z" />
    <glyph glyph-name="imacron" unicode="&#x12b;" 
d="M130 437h-57l15 68h129l-107 -505h-72zM334 647l-24 -64h-220l24 64h220z" />
    <glyph glyph-name="Ibreve" unicode="&#x12c;" horiz-adv-x="201" 
d="M103 0h-77l150 710h77zM240 747h-31q-50 0 -64.5 16.5t-4.5 64.5l3 12h45l-3 -14q-4 -19 3.5 -27.5t29.5 -8.5h31q42 0 49 36l3 14h45l-3 -12q-10 -48 -31 -64.5t-72 -16.5z" />
    <glyph glyph-name="ibreve" unicode="&#x12d;" 
d="M130 437h-57l15 68h129l-107 -505h-72zM212 577h-31q-50 0 -64.5 16.5t-4.5 64.5l3 12h45l-3 -14q-4 -19 3.5 -27.5t29.5 -8.5h31q42 0 49 36l3 14h45l-3 -12q-10 -48 -31 -64.5t-72 -16.5z" />
    <glyph glyph-name="Iogonek" unicode="&#x12e;" horiz-adv-x="201" 
d="M-54 -113l3 14q9 40 55 64q21 11 29 17.5t12 17.5h-19l150 710h77l-150 -710h-17l-2 -8q-6 -24 -16.5 -35t-35.5 -24q-20 -11 -26.5 -17.5t-8.5 -17.5t3 -15t19 -4h65l-15 -43h-68q-31 0 -45.5 12t-9.5 39z" />
    <glyph glyph-name="iogonek" unicode="&#x12f;" 
d="M-45 -110l3 14q8 39 55 64q34 19 39 32h-14l92 437h-57l15 68h129l-107 -505h-16l-2 -5q-5 -24 -15.5 -35t-35.5 -24q-20 -11 -27 -17.5t-9 -17.5t3 -15t19 -4h65l-15 -43h-68q-31 0 -45.5 12t-8.5 39zM170 654l19 91h81l-19 -91h-81z" />
    <glyph glyph-name="Idotaccent" unicode="&#x130;" horiz-adv-x="201" 
d="M103 0h-77l149 705h-1l18 84h81l-18 -84h-3z" />
    <glyph glyph-name="dotlessi" unicode="&#x131;" 
d="M130 437h-57l15 68h129l-107 -505h-72z" />
    <glyph glyph-name="IJ" unicode="&#x132;" horiz-adv-x="553" 
d="M103 0h-77l150 710h77zM220 72h99q76 0 93 82l118 556h76l-121 -571q-30 -139 -162 -139h-128z" />
    <glyph glyph-name="Jcircumflex" unicode="&#x134;" horiz-adv-x="336" 
d="M3 72h99q76 0 93 82l118 556h76l-121 -571q-30 -139 -162 -139h-128zM359 848h45l84 -99h-72l-43 52h-4l-65 -52h-71z" />
    <glyph glyph-name="jcircumflex" unicode="&#x135;" 
d="M130 437h-57l15 68h129l-123 -578q-25 -115 -137 -115h-55l25 68h26q59 0 73 67zM195 679h45l84 -99h-72l-43 52h-4l-65 -52h-71z" />
    <glyph glyph-name="Kcommaaccent" unicode="&#x136;" horiz-adv-x="496" 
d="M103 0h-77l150 710h77l-71 -336l343 336h84l-359 -355l216 -355h-87l-205 335zM179 -81h56l-13 -63l-57 -83h-14z" />
    <glyph glyph-name="kcommaaccent" unicode="&#x137;" horiz-adv-x="411" 
d="M467 505l-257 -256l151 -249h-80l-139 232l-49 -232h-72l154 726l62 14h13l-100 -468l237 233h80zM151 -61h59l-13 -59l-65 -101h-12z" />
    <glyph glyph-name="Lacute" unicode="&#x139;" horiz-adv-x="448" 
d="M253 710l-135 -638h301l-26 -72h-367l150 710h77zM242 750h-61l106 129h84z" />
    <glyph glyph-name="lacute" unicode="&#x13a;" horiz-adv-x="207" 
d="M154 64h21l-9 -67h-44q-103 0 -80 109l132 620l62 14h13l-76 -358h1l-55 -257q-13 -61 35 -61zM251 820h-61l106 129h84z" />
    <glyph glyph-name="Lcommaaccent" unicode="&#x13b;" horiz-adv-x="448" 
d="M253 710l-135 -638h301l-26 -72h-367l150 710h77zM163 -81h56l-13 -63l-57 -83h-14z" />
    <glyph glyph-name="lcommaaccent" unicode="&#x13c;" horiz-adv-x="207" 
d="M154 64h21l-9 -67h-44q-103 0 -80 109l132 620l62 14h13l-76 -358h1l-55 -257q-13 -61 35 -61zM61 -61h59l-13 -59l-65 -101h-12z" />
    <glyph glyph-name="Lcaron" unicode="&#x13d;" horiz-adv-x="453" 
d="M253 710l-135 -638h301l-26 -72h-367l150 710h77zM447 710h93l-72 -204h-40z" />
    <glyph glyph-name="lcaron" unicode="&#x13e;" horiz-adv-x="208" 
d="M154 64h21l-9 -67h-44q-103 0 -80 109l132 620l62 14h13l-76 -358h1l-55 -257q-13 -61 35 -61zM308 762h93l-72 -204h-40z" />
    <glyph glyph-name="Ldot" unicode="&#x13f;" horiz-adv-x="456" 
d="M253 710l-135 -638h301l-26 -72h-367l150 710h77zM373 254l20 91h81l-20 -91h-81z" />
    <glyph glyph-name="ldot" unicode="&#x140;" horiz-adv-x="297" 
d="M154 64h21l-9 -67h-44q-103 0 -80 109l132 620l62 14h13l-76 -358h1l-55 -257q-13 -61 35 -61zM233 322l19 91h81l-19 -91h-81z" />
    <glyph glyph-name="Lslash" unicode="&#x141;" horiz-adv-x="472" 
d="M277 710l-135 -638h301l-26 -72h-367l150 710h77zM187 346l6 -35l-5 38z" />
    <glyph glyph-name="lslash" unicode="&#x142;" horiz-adv-x="274" 
d="M197 64h21l-9 -67h-44q-102 0 -79 109l49 229l-96 -43l14 69l96 43l69 322l62 14h13l-64 -301l103 46l-15 -68l-103 -46l-52 -246q-13 -61 35 -61z" />
    <glyph glyph-name="Nacute" unicode="&#x143;" horiz-adv-x="590" 
d="M103 0h-77l150 710h77l172 -504q10 -27 18 -73l122 577h77l-150 -710h-77l-166 482q-10 28 -24 96zM424 750h-61l106 129h84z" />
    <glyph glyph-name="nacute" unicode="&#x144;" horiz-adv-x="466" 
d="M20 0l104 491l59 14h12l-9 -43q41 49 112 49h51q70 0 96 -31t13 -94l-82 -386h-73l78 368q9 43 -4 61.5t-51 18.5h-63q-33 0 -57.5 -18t-31.5 -43l-82 -387h-72zM339 580h-61l106 129h84z" />
    <glyph glyph-name="Ncommaaccent" unicode="&#x145;" horiz-adv-x="590" 
d="M103 0h-77l150 710h77l172 -504q10 -27 18 -73l122 577h77l-150 -710h-77l-166 482q-10 28 -24 96zM209 -52h59l-12 -59l-66 -101h-12z" />
    <glyph glyph-name="ncommaaccent" unicode="&#x146;" horiz-adv-x="466" 
d="M20 0l104 491l59 14h12l-9 -43q41 49 112 49h51q70 0 96 -31t13 -94l-82 -386h-73l78 368q9 43 -4 61.5t-51 18.5h-63q-33 0 -57.5 -18t-31.5 -43l-82 -387h-72zM157 -61h59l-13 -59l-65 -101h-12z" />
    <glyph glyph-name="Ncaron" unicode="&#x147;" horiz-adv-x="590" 
d="M103 0h-77l150 710h77l172 -504q10 -27 18 -73l122 577h77l-150 -710h-77l-166 482q-10 28 -24 96zM441 749h-45l-81 100h68l44 -59l69 59h68z" />
    <glyph glyph-name="ncaron" unicode="&#x148;" horiz-adv-x="466" 
d="M20 0l104 491l59 14h12l-9 -43q41 49 112 49h51q70 0 96 -31t13 -94l-82 -386h-73l78 368q9 43 -4 61.5t-51 18.5h-63q-33 0 -57.5 -18t-31.5 -43l-82 -387h-72zM353 579h-45l-81 100h68l44 -59l69 59h68z" />
    <glyph glyph-name="napostrophe" unicode="&#x149;" horiz-adv-x="466" 
d="M20 0l104 491l59 14h12l-9 -43q41 49 112 49h51q70 0 96 -31t13 -94l-82 -386h-73l78 368q9 43 -4 61.5t-51 18.5h-63q-33 0 -57.5 -18t-31.5 -43l-82 -387h-49l-11 -16h-12l3 16h-3z" />
    <glyph glyph-name="Eng" unicode="&#x14a;" horiz-adv-x="590" 
d="M212 -126h99q76 0 93 82l10 46l-165 480q-10 28 -24 96l-122 -578h-77l150 710h77l172 -504q9 -26 17 -70l80 376h1l42 198h77l-150 -710h-2l-13 -59q-30 -139 -163 -139h-128z" />
    <glyph glyph-name="eng" unicode="&#x14b;" horiz-adv-x="466" 
d="M218 -120q59 0 73 67l90 421q9 43 -4 61.5t-51 18.5h-63q-34 0 -58.5 -19t-31.5 -44l-81 -385h-72l104 491l59 14h12l-9 -43q41 49 112 49h51q70 0 96 -31t13 -94l-98 -459q-25 -115 -138 -115h-55l25 68h26z" />
    <glyph glyph-name="Omacron" unicode="&#x14c;" horiz-adv-x="588" 
d="M51 140l92 431q15 72 52.5 105.5t109.5 33.5h189q81 0 108.5 -34t12.5 -105l-92 -431q-15 -73 -52 -106.5t-108 -33.5h-191q-80 0 -108 34t-13 106zM477 638h-166q-41 0 -63.5 -20.5t-31.5 -63.5l-84 -398q-9 -44 3.5 -64t54.5 -20h167q40 0 61.5 20t31.5 64l84 398
q10 46 -2.5 65t-54.5 19zM554 817l-23 -64h-220l23 64h220z" />
    <glyph glyph-name="omacron" unicode="&#x14d;" horiz-adv-x="473" 
d="M245 511h104q75 0 102.5 -33.5t12.5 -101.5l-53 -247q-27 -129 -151 -129h-106q-138 0 -111 129l52 247q15 70 50 102.5t100 32.5zM335 446h-81q-39 0 -59 -19t-29 -61l-47 -222q-9 -43 4 -61t50 -18h81q37 0 58 18t30 61l47 222q9 41 -3.5 60.5t-50.5 19.5zM461 647
l-24 -64h-220l24 64h220z" />
    <glyph glyph-name="Obreve" unicode="&#x14e;" horiz-adv-x="588" 
d="M51 140l92 431q15 72 52.5 105.5t109.5 33.5h189q81 0 108.5 -34t12.5 -105l-92 -431q-15 -73 -52 -106.5t-108 -33.5h-191q-80 0 -108 34t-13 106zM477 638h-166q-41 0 -63.5 -20.5t-31.5 -63.5l-84 -398q-9 -44 3.5 -64t54.5 -20h167q40 0 61.5 20t31.5 64l84 398
q10 46 -2.5 65t-54.5 19zM434 747h-31q-50 0 -64.5 16.5t-4.5 64.5l3 12h45l-3 -14q-4 -19 3.5 -27.5t29.5 -8.5h31q42 0 49 36l3 14h45l-3 -12q-10 -48 -31 -64.5t-72 -16.5z" />
    <glyph glyph-name="obreve" unicode="&#x14f;" horiz-adv-x="473" 
d="M245 511h104q75 0 102.5 -33.5t12.5 -101.5l-53 -247q-27 -129 -151 -129h-106q-138 0 -111 129l52 247q15 70 50 102.5t100 32.5zM335 446h-81q-39 0 -59 -19t-29 -61l-47 -222q-9 -43 4 -61t50 -18h81q37 0 58 18t30 61l47 222q9 41 -3.5 60.5t-50.5 19.5zM340 577h-31
q-50 0 -64.5 16.5t-4.5 64.5l3 12h45l-3 -14q-4 -19 3.5 -27.5t29.5 -8.5h31q42 0 49 36l3 14h45l-3 -12q-10 -48 -31 -64.5t-72 -16.5z" />
    <glyph glyph-name="Ohungarumlaut" unicode="&#x150;" horiz-adv-x="588" 
d="M51 140l92 431q15 72 52.5 105.5t109.5 33.5h189q81 0 108.5 -34t12.5 -105l-92 -431q-15 -73 -52 -106.5t-108 -33.5h-191q-80 0 -108 34t-13 106zM477 638h-166q-41 0 -63.5 -20.5t-31.5 -63.5l-84 -398q-9 -44 3.5 -64t54.5 -20h167q40 0 61.5 20t31.5 64l84 398
q10 46 -2.5 65t-54.5 19zM439 882h68l-121 -134h-49zM530 882h68l-121 -134h-48z" />
    <glyph glyph-name="ohungarumlaut" unicode="&#x151;" horiz-adv-x="473" 
d="M245 511h104q75 0 102.5 -33.5t12.5 -101.5l-53 -247q-27 -129 -151 -129h-106q-138 0 -111 129l52 247q15 70 50 102.5t100 32.5zM335 446h-81q-39 0 -59 -19t-29 -61l-47 -222q-9 -43 4 -61t50 -18h81q37 0 58 18t30 61l47 222q9 41 -3.5 60.5t-50.5 19.5zM345 711h68
l-121 -134h-49zM436 711h68l-121 -134h-48z" />
    <glyph glyph-name="OE" unicode="&#x152;" horiz-adv-x="864" 
d="M622 638l-9 -43q-1 -4 -2 -12t-2 -12l-16 -74h-1l-35 -164h264l-25 -72h-254l-40 -189h318l-25 -72h-385l1 6q-24 -6 -54 -6h-185q-80 0 -108 34t-13 106l92 431q15 72 52.5 105.5t109.5 33.5h182q45 0 71 -10l2 10h394l-26 -72h-306zM470 638h-159q-41 0 -63.5 -20.5
t-31.5 -63.5l-84 -398q-9 -44 3.5 -64t54.5 -20h160q68 0 88 63l94 440q3 34 -11 48.5t-51 14.5z" />
    <glyph glyph-name="oe" unicode="&#x153;" horiz-adv-x="751" 
d="M469 64h72q38 0 58.5 18t28.5 57l4 17h67l-5 -20q-16 -77 -50 -106.5t-112 -29.5h-64q-83 0 -112 28q-35 -28 -96 -28h-106q-138 0 -111 129l52 247q15 70 50 102.5t100 32.5h104q67 0 96 -27q36 27 117 27h52q90 0 119 -25.5t14 -96.5l-12 -58q-14 -63 -45.5 -89.5
t-111.5 -26.5h-147l-15 -72q-9 -41 2.5 -60t50.5 -19zM335 446h-81q-39 0 -59 -19t-29 -61l-47 -222q-9 -43 4 -61t50 -18h81q37 0 58 18t30 61l47 222q9 41 -3.5 60.5t-50.5 19.5zM625 448h-78q-36 0 -54.5 -15.5t-25.5 -48.5l-22 -106h142q38 0 56.5 14t24.5 45l10 48
q7 32 -5 47.5t-48 15.5z" />
    <glyph glyph-name="Racute" unicode="&#x154;" horiz-adv-x="534" 
d="M26 0l150 710h269q153 0 124 -135l-36 -168q-29 -135 -160 -135h-11l129 -272h-89l-128 272h-114l-57 -272h-77zM238 638l-62 -294h186q42 0 65.5 21t33.5 67l25 118q10 46 -5 67t-57 21h-186zM387 750h-61l106 129h84z" />
    <glyph glyph-name="racute" unicode="&#x155;" horiz-adv-x="305" 
d="M356 451l-123 -37q-57 -17 -69 -71l-72 -343h-72l104 491l59 14h12l-14 -66q23 32 61 43l114 35h9zM252 574h-61l106 129h84z" />
    <glyph glyph-name="Rcommaaccent" unicode="&#x156;" horiz-adv-x="534" 
d="M26 0l150 710h269q153 0 124 -135l-36 -168q-29 -135 -160 -135h-11l129 -272h-89l-128 272h-114l-57 -272h-77zM238 638l-62 -294h186q42 0 65.5 21t33.5 67l25 118q10 46 -5 67t-57 21h-186zM220 -61h59l-13 -59l-65 -101h-12z" />
    <glyph glyph-name="rcommaaccent" unicode="&#x157;" horiz-adv-x="305" 
d="M356 451l-123 -37q-57 -17 -69 -71l-72 -343h-72l104 491l59 14h12l-14 -66q23 32 61 43l114 35h9zM102 -61h59l-13 -59l-65 -101h-12z" />
    <glyph glyph-name="Rcaron" unicode="&#x158;" horiz-adv-x="534" 
d="M26 0l150 710h269q153 0 124 -135l-36 -168q-29 -135 -160 -135h-11l129 -272h-89l-128 272h-114l-57 -272h-77zM238 638l-62 -294h186q42 0 65.5 21t33.5 67l25 118q10 46 -5 67t-57 21h-186zM400 749h-45l-81 100h68l44 -59l69 59h68z" />
    <glyph glyph-name="rcaron" unicode="&#x159;" horiz-adv-x="305" 
d="M356 451l-123 -37q-57 -17 -69 -71l-72 -343h-72l104 491l59 14h12l-14 -66q23 32 61 43l114 35h9zM267 574h-45l-81 100h68l44 -59l69 59h68z" />
    <glyph glyph-name="Sacute" unicode="&#x15a;" horiz-adv-x="520" 
d="M368 291l-168 81q-58 29 -74.5 54.5t-4.5 79.5l16 77q14 66 48 96.5t96 30.5h157q75 0 104 -30.5t13 -96.5l-17 -82h-77l13 60q9 42 -5.5 59.5t-51.5 17.5h-118q-40 0 -60 -18t-30 -62l-8 -39q-7 -31 1.5 -49t36.5 -31l170 -83q56 -27 74 -51.5t7 -74.5l-22 -105
q-27 -125 -142 -125h-181q-144 0 -115 125l19 90h77l-14 -68q-16 -75 55 -75h142q71 0 87 75l12 60q7 33 -1.5 51.5t-38.5 32.5zM398 750h-61l106 129h84z" />
    <glyph glyph-name="sacute" unicode="&#x15b;" horiz-adv-x="423" 
d="M304 448h-69q-62 0 -74 -58l-3 -17q-6 -29 4 -40t44 -23l102 -34q52 -15 68.5 -38t5.5 -78l-11 -51q-13 -59 -47.5 -84t-105.5 -25h-85q-77 0 -99 27.5t-7 95.5l6 31h68l-6 -27q-7 -34 4 -49t44 -15h89q33 0 50 14t23 44l6 25q6 30 -4 45.5t-37 24.5l-99 34
q-63 20 -78.5 40t-3.5 77l6 30q13 61 45.5 87.5t108.5 26.5h66q77 0 98 -28t7 -97l-6 -28h-67l5 26q14 64 -48 64zM308 580h-61l106 129h84z" />
    <glyph glyph-name="Scircumflex" unicode="&#x15c;" horiz-adv-x="519" 
d="M368 291l-168 81q-58 29 -74.5 54.5t-4.5 79.5l16 77q14 66 48 96.5t96 30.5h157q75 0 104 -30.5t13 -96.5l-17 -82h-77l13 60q9 42 -5.5 59.5t-51.5 17.5h-118q-40 0 -60 -18t-30 -62l-8 -39q-7 -31 1.5 -49t36.5 -31l170 -83q56 -27 74 -51.5t7 -74.5l-22 -105
q-27 -125 -142 -125h-181q-144 0 -115 125l19 90h77l-14 -68q-16 -75 55 -75h142q71 0 87 75l12 60q7 33 -1.5 51.5t-38.5 32.5zM386 848h45l84 -99h-72l-43 52h-4l-65 -52h-71z" />
    <glyph glyph-name="scircumflex" unicode="&#x15d;" horiz-adv-x="423" 
d="M304 448h-69q-62 0 -74 -58l-3 -17q-6 -29 4 -40t44 -23l102 -34q52 -15 68.5 -38t5.5 -78l-11 -51q-13 -59 -47.5 -84t-105.5 -25h-85q-77 0 -99 27.5t-7 95.5l6 31h68l-6 -27q-7 -34 4 -49t44 -15h89q33 0 50 14t23 44l6 25q6 30 -4 45.5t-37 24.5l-99 34
q-63 20 -78.5 40t-3.5 77l6 30q13 61 45.5 87.5t108.5 26.5h66q77 0 98 -28t7 -97l-6 -28h-67l5 26q14 64 -48 64zM298 678h45l84 -99h-72l-43 52h-4l-65 -52h-71z" />
    <glyph glyph-name="Scedilla" unicode="&#x15e;" horiz-adv-x="520" 
d="M226 -74l-21 7q-26 7 -19 37l7 30h-48q-144 0 -115 125l19 90h77l-14 -68q-16 -75 55 -75h142q71 0 87 75l12 60q7 33 -1.5 51.5t-38.5 32.5l-168 81q-58 29 -74.5 54.5t-4.5 79.5l16 77q14 66 48 96.5t96 30.5h157q75 0 104 -30.5t13 -96.5l-17 -82h-77l13 60
q9 42 -5.5 59.5t-51.5 17.5h-118q-40 0 -60 -18t-30 -62l-8 -39q-7 -31 1.5 -49t36.5 -31l170 -83q56 -27 74 -51.5t7 -74.5l-22 -105q-27 -125 -142 -125h-85l-4 -15q-2 -15 10 -19l26 -8q26 -9 19 -47l-6 -27q-7 -34 -23.5 -46t-54.5 -12h-29q-39 0 -50 12.5t-3 45.5l3 16
h46l-1 -8q-6 -21 17 -21h20q24 0 29 21l2 11q4 18 -16 23z" />
    <glyph glyph-name="scedilla" unicode="&#x15f;" horiz-adv-x="423" 
d="M172 -74l-21 7q-26 7 -19 37l7 30h-6q-77 0 -99 27.5t-7 95.5l6 31h68l-6 -27q-7 -34 4 -49t44 -15h89q33 0 50 14t23 44l6 25q6 30 -4 45.5t-37 24.5l-99 34q-63 20 -78.5 40t-3.5 77l6 30q13 61 45.5 87.5t108.5 26.5h66q77 0 98 -28t7 -97l-6 -28h-67l5 26
q14 64 -48 64h-69q-62 0 -74 -58l-3 -17q-6 -29 4 -40t44 -23l102 -34q52 -15 68.5 -38t5.5 -78l-11 -51q-13 -59 -47.5 -84t-105.5 -25h-31l-4 -15q-2 -15 10 -19l26 -8q26 -9 19 -47l-6 -27q-7 -34 -23.5 -46t-54.5 -12h-29q-39 0 -50 12.5t-3 45.5l3 16h46l-1 -8
q-6 -21 17 -21h20q25 0 29 21l2 11q4 18 -16 23z" />
    <glyph glyph-name="Scaron" unicode="&#x160;" horiz-adv-x="520" 
d="M368 291l-168 81q-58 29 -74.5 54.5t-4.5 79.5l16 77q14 66 48 96.5t96 30.5h157q75 0 104 -30.5t13 -96.5l-17 -82h-77l13 60q9 42 -5.5 59.5t-51.5 17.5h-118q-40 0 -60 -18t-30 -62l-8 -39q-7 -31 1.5 -49t36.5 -31l170 -83q56 -27 74 -51.5t7 -74.5l-22 -105
q-27 -125 -142 -125h-181q-144 0 -115 125l19 90h77l-14 -68q-16 -75 55 -75h142q71 0 87 75l12 60q7 33 -1.5 51.5t-38.5 32.5zM410 749h-45l-81 100h68l44 -59l69 59h68z" />
    <glyph glyph-name="scaron" unicode="&#x161;" horiz-adv-x="423" 
d="M304 448h-69q-62 0 -74 -58l-3 -17q-6 -29 4 -40t44 -23l102 -34q52 -15 68.5 -38t5.5 -78l-11 -51q-13 -59 -47.5 -84t-105.5 -25h-85q-77 0 -99 27.5t-7 95.5l6 31h68l-6 -27q-7 -34 4 -49t44 -15h89q33 0 50 14t23 44l6 25q6 30 -4 45.5t-37 24.5l-99 34
q-63 20 -78.5 40t-3.5 77l6 30q13 61 45.5 87.5t108.5 26.5h66q77 0 98 -28t7 -97l-6 -28h-67l5 26q14 64 -48 64zM322 579h-45l-81 100h68l44 -59l69 59h68z" />
    <glyph glyph-name="Tcommaaccent" unicode="&#x162;" horiz-adv-x="451" 
d="M539 638h-176l-135 -638h-77l135 638h-176l15 72h429zM147 -61h59l-13 -59l-65 -101h-12z" />
    <glyph glyph-name="Tcaron" unicode="&#x164;" horiz-adv-x="451" 
d="M539 638h-176l-135 -638h-77l135 638h-176l15 72h429zM371 749h-45l-81 100h68l44 -59l69 59h68z" />
    <glyph glyph-name="tcaron" unicode="&#x165;" horiz-adv-x="292" 
d="M340 505l-20 -68h-98l-62 -292q-8 -41 4 -59t48 -18h39l-8 -68h-57q-128 0 -101 130l65 307h-76l21 68h70l22 102l72 38h8l-30 -140h103zM335 737h87l-67 -190h-37z" />
    <glyph glyph-name="Tbar" unicode="&#x166;" horiz-adv-x="453" 
d="M539 638h-176l-135 -638h-77l135 638h-176l15 72h429z" />
    <glyph glyph-name="Utilde" unicode="&#x168;" horiz-adv-x="566" 
d="M322 72q44 0 70 22t36 71l115 545h77l-121 -569q-15 -71 -54.5 -106t-109.5 -35h-158q-154 0 -124 141l121 569h77l-115 -545q-11 -49 4 -71t60 -22h122zM483 835q33 0 43 -11t3 -41l-8 -35h-50l5 22q3 16 -14 16q-16 0 -32 -12l-23 -18q-20 -15 -63 -15q-35 0 -44 10.5
t-2 41.5l7 35h50l-4 -23q-5 -15 14 -15t35 14l17 14q22 17 66 17z" />
    <glyph glyph-name="utilde" unicode="&#x169;" horiz-adv-x="465" 
d="M480 505l-107 -505h-55l4 48q-47 -48 -122 -48h-51q-131 0 -103 129l80 376h72l-77 -362q-9 -42 5.5 -61t53.5 -19h53q35 0 61 19t32 44h2l1 7l78 372h73zM392 665q33 0 43 -11t3 -41l-8 -35h-50l5 22q3 16 -15 16q-15 0 -31 -12l-23 -18q-20 -15 -63 -15q-35 0 -44 10.5
t-2 41.5l7 35h50l-5 -23q-2 -8 1 -11.5t14 -3.5q19 0 35 14l17 14q20 17 66 17z" />
    <glyph glyph-name="Umacron" unicode="&#x16a;" horiz-adv-x="566" 
d="M322 72q44 0 70 22t36 71l115 545h77l-121 -569q-15 -71 -54.5 -106t-109.5 -35h-158q-154 0 -124 141l121 569h77l-115 -545q-11 -49 4 -71t60 -22h122zM543 817l-23 -64h-220l23 64h220z" />
    <glyph glyph-name="umacron" unicode="&#x16b;" horiz-adv-x="465" 
d="M480 505l-107 -505h-55l4 48q-47 -48 -122 -48h-51q-131 0 -103 129l80 376h72l-77 -362q-9 -42 5.5 -61t53.5 -19h53q35 0 61 19t32 44h2l1 7l78 372h73zM450 647l-24 -64h-220l24 64h220z" />
    <glyph glyph-name="Ubreve" unicode="&#x16c;" horiz-adv-x="566" 
d="M322 72q44 0 70 22t36 71l115 545h77l-121 -569q-15 -71 -54.5 -106t-109.5 -35h-158q-154 0 -124 141l121 569h77l-115 -545q-11 -49 4 -71t60 -22h122zM422 747h-31q-50 0 -64.5 16.5t-4.5 64.5l3 12h45l-3 -14q-4 -19 3.5 -27.5t29.5 -8.5h31q42 0 49 36l3 14h45
l-3 -12q-10 -48 -31 -64.5t-72 -16.5z" />
    <glyph glyph-name="ubreve" unicode="&#x16d;" horiz-adv-x="465" 
d="M480 505l-107 -505h-55l4 48q-47 -48 -122 -48h-51q-131 0 -103 129l80 376h72l-77 -362q-9 -42 5.5 -61t53.5 -19h53q35 0 61 19t32 44h2l1 7l78 372h73zM330 577h-31q-50 0 -64.5 16.5t-4.5 64.5l3 12h45l-3 -14q-4 -19 3.5 -27.5t29.5 -8.5h31q42 0 49 36l3 14h45
l-3 -12q-10 -48 -31 -64.5t-72 -16.5z" />
    <glyph glyph-name="Uring" unicode="&#x16e;" horiz-adv-x="566" 
d="M322 72q44 0 70 22t36 71l115 545h77l-121 -569q-15 -71 -54.5 -106t-109.5 -35h-158q-154 0 -124 141l121 569h77l-115 -545q-11 -49 4 -71t60 -22h122zM420 900h38q45 0 58 -15.5t4 -57.5l-5 -27q-10 -43 -29 -57.5t-64 -14.5h-39q-44 0 -57.5 15t-3.5 57l5 27
q9 42 28.5 57.5t64.5 15.5zM469 802l5 23q6 31 -29 31h-31q-35 0 -42 -31l-5 -23q-6 -31 29 -31h31q35 0 42 31z" />
    <glyph glyph-name="uring" unicode="&#x16f;" horiz-adv-x="465" 
d="M480 505l-107 -505h-55l4 48q-47 -48 -122 -48h-51q-131 0 -103 129l80 376h72l-77 -362q-9 -42 5.5 -61t53.5 -19h53q35 0 61 19t32 44h2l1 7l78 372h73zM327 730h38q45 0 58 -15.5t4 -57.5l-6 -27q-9 -43 -28 -57.5t-64 -14.5h-39q-44 0 -57.5 15t-4.5 57l6 27
q9 42 28.5 57.5t64.5 15.5zM376 632l5 23q6 31 -29 31h-31q-36 0 -42 -31l-5 -23q-7 -31 29 -31h31q35 0 42 31z" />
    <glyph glyph-name="Uhungarumlaut" unicode="&#x170;" horiz-adv-x="566" 
d="M322 72q44 0 70 22t36 71l115 545h77l-121 -569q-15 -71 -54.5 -106t-109.5 -35h-158q-154 0 -124 141l121 569h77l-115 -545q-11 -49 4 -71t60 -22h122zM428 882h68l-121 -134h-49zM519 882h68l-121 -134h-48z" />
    <glyph glyph-name="uhungarumlaut" unicode="&#x171;" horiz-adv-x="465" 
d="M480 505l-107 -505h-55l4 48q-47 -48 -122 -48h-51q-131 0 -103 129l80 376h72l-77 -362q-9 -42 5.5 -61t53.5 -19h53q35 0 61 19t32 44h2l1 7l78 372h73zM335 711h68l-121 -134h-49zM426 711h68l-121 -134h-48z" />
    <glyph glyph-name="Uogonek" unicode="&#x172;" horiz-adv-x="566" 
d="M128 -106l3 14q5 24 18 37.5t38 26.5q30 16 37 28h-47q-154 0 -124 141l121 569h77l-115 -545q-11 -49 4 -71t60 -22h122q44 0 70 22t36 71l115 545h77l-121 -569q-15 -71 -54.5 -106t-109.5 -35h-68l-1 -1q-5 -24 -15.5 -35t-35.5 -24q-20 -11 -27 -17.5t-9 -17.5t3 -15
t19 -4h65l-15 -43h-68q-32 0 -46.5 12t-8.5 39z" />
    <glyph glyph-name="uogonek" unicode="&#x173;" horiz-adv-x="465" 
d="M221 -107l3 14q8 39 55 64q32 17 39 30l4 47q-47 -48 -122 -48h-51q-131 0 -103 129l80 376h72l-77 -362q-9 -42 5.5 -61t53.5 -19h53q35 0 61 19t32 44h2l1 7l78 372h73l-107 -505h-13l-1 -2q-5 -24 -15.5 -35t-35.5 -24q-20 -11 -27 -17.5t-9 -17.5t3 -15t19 -4h65
l-15 -43h-68q-32 0 -46.5 12t-8.5 39z" />
    <glyph glyph-name="Wcircumflex" unicode="&#x174;" horiz-adv-x="831" 
d="M258 0h-83l-39 710h78l20 -554q2 -41 0 -62q9 26 22 61l236 555h75l-1 -555q0 -49 -2 -63q9 27 24 62l257 556h78l-339 -710h-82l-3 537q0 16 8 61q-18 -60 -18 -61zM538 848h45l84 -99h-72l-43 52h-4l-65 -52h-71z" />
    <glyph glyph-name="wcircumflex" unicode="&#x175;" horiz-adv-x="690" 
d="M221 0h-90l-37 505h76l20 -426l188 426h76l4 -426l204 426h76l-249 -505h-91l-9 349q-2 11 -1 23q-5 -16 -11 -23zM428 678h45l84 -99h-72l-43 52h-4l-65 -52h-71z" />
    <glyph glyph-name="Ycircumflex" unicode="&#x176;" horiz-adv-x="522" 
d="M264 0h-76l60 286l-123 424h78l85 -303q2 -12 4.5 -23t4 -17t1.5 -11q11 23 31 50l213 304h81l-298 -422zM382 848h45l84 -99h-72l-43 52h-4l-65 -52h-71z" />
    <glyph glyph-name="ycircumflex" unicode="&#x177;" horiz-adv-x="441" 
d="M17 -157q32 0 54.5 15t43.5 55l40 81h-18l-44 511h75l30 -426l216 426h78l-314 -604q-38 -74 -75 -100t-105 -26h-60l24 68h55zM296 678h45l84 -99h-72l-43 52h-4l-65 -52h-71z" />
    <glyph glyph-name="Ydieresis" unicode="&#x178;" horiz-adv-x="522" 
d="M264 0h-76l60 286l-123 424h78l85 -303q10 -50 10 -52q10 23 31 51l213 304h81l-298 -422zM294 818h63l-16 -75h-63zM441 818h63l-16 -75h-63z" />
    <glyph glyph-name="Zacute" unicode="&#x179;" horiz-adv-x="462" 
d="M535 643l-442 -571h333l-25 -72h-407l3 67l441 571h-309l4 72h406zM359 750h-61l106 129h84z" />
    <glyph glyph-name="zacute" unicode="&#x17a;" horiz-adv-x="392" 
d="M420 449l-331 -389h257l-19 -60h-331l3 56l332 389h-237l6 60h324zM292 580h-61l106 129h84z" />
    <glyph glyph-name="Zdotaccent" unicode="&#x17b;" horiz-adv-x="462" 
d="M535 643l-442 -571h333l-25 -72h-407l3 67l441 571h-309l4 72h406zM329 834h81l-18 -84h-81z" />
    <glyph glyph-name="zdotaccent" unicode="&#x17c;" horiz-adv-x="392" 
d="M420 449l-331 -389h257l-19 -60h-331l3 56l332 389h-237l6 60h324zM261 664h81l-18 -84h-81z" />
    <glyph glyph-name="Zcaron" unicode="&#x17d;" horiz-adv-x="462" 
d="M535 643l-442 -571h333l-25 -72h-407l3 67l441 571h-309l4 72h406zM373 749h-45l-81 100h68l44 -59l69 59h68z" />
    <glyph glyph-name="zcaron" unicode="&#x17e;" horiz-adv-x="392" 
d="M420 449l-331 -389h257l-19 -60h-331l3 56l332 389h-237l6 60h324zM306 579h-45l-81 100h68l44 -59l69 59h68z" />
    <glyph glyph-name="florin" unicode="&#x192;" horiz-adv-x="328" 
d="M367 672q-37 0 -57.5 -18.5t-28.5 -58.5l-24 -115h100l-26 -68h-89l-97 -458q-15 -69 -56.5 -101.5t-118.5 -32.5h-66l30 67h53q72 0 88 78l95 447h-89l26 68h78l26 125q15 70 56 102.5t118 32.5h68l-31 -68h-55z" />
    <glyph glyph-name="AEacute" unicode="&#x1fc;" horiz-adv-x="815" 
d="M911 710l-26 -72h-318l-32 -309h232l-26 -72h-213l-18 -185h257l-26 -72h-319l14 144h-282l-106 -144h-89l535 710h417zM481 583l-274 -367h236zM589 759h-61l106 129h84z" />
    <glyph glyph-name="aeacute" unicode="&#x1fd;" horiz-adv-x="724" 
d="M444 68h73q72 0 88 74l3 14h67l-5 -20q-16 -76 -52.5 -106t-116.5 -30h-69q-108 0 -122 60q-40 -60 -133 -60h-52q-62 0 -86.5 27.5t-11.5 86.5l15 73q23 109 145 109h161l20 92q10 56 -43 56h-90q-56 0 -69 -59l-3 -16h-68l7 34q23 108 130 108h125q51 0 73 -24
q38 24 110 24h69q78 0 104.5 -25t11.5 -93l-14 -66q-13 -61 -45 -86.5t-111 -25.5h-151l-14 -68q-9 -40 3 -59.5t51 -19.5zM597 443h-65q-44 0 -65.5 -17.5t-30.5 -61.5l-18 -86h145q37 0 56.5 13.5t26.5 44.5l9 45q7 32 -6 47t-52 15zM153 68h66q40 0 63 16.5t33 54.5
l20 94h-149q-66 0 -80 -63l-9 -42q-8 -35 6.5 -47.5t49.5 -12.5zM470 574h-61l106 129h84z" />
    <glyph glyph-name="Oslashacute" unicode="&#x1fe;" horiz-adv-x="584" 
d="M620 754h84l-95 -114q5 -32 -3 -69l-16 -74h-1l-76 -357q-15 -73 -52 -106.5t-108 -33.5h-180q-53 0 -83 15l-50 -60h-82l92 111q-7 29 2 74l92 431q15 72 52.5 105.5t108.5 33.5h180q51 0 85 -16zM467 638h-155q-41 0 -63.5 -20.5t-31.5 -63.5l-81 -384l378 457
q-17 11 -47 11zM191 72h156q40 0 61.5 20t31.5 64l12 59h1l68 319l-376 -452q14 -10 46 -10zM395 750h-61l106 129h84z" />
    <glyph glyph-name="oslashacute" unicode="&#x1ff;" horiz-adv-x="480" 
d="M247 511h104q57 0 88 -20l51 55h71l-92 -99q5 -34 -3 -71l-53 -247q-27 -129 -151 -129h-106q-58 0 -85 20l-51 -54h-69l91 99q-5 23 3 64l52 247q15 70 50 102.5t100 32.5zM256 65q37 0 58 18t30 61l47 219l-264 -283q12 -15 48 -15h81zM337 446h-81q-39 0 -59 -19
t-29 -61l-45 -215l260 281q-14 14 -46 14zM335 580h-61l106 129h84z" />
    <glyph glyph-name="Scommaaccent" unicode="&#x218;" horiz-adv-x="520" 
d="M368 291l-168 81q-58 29 -74.5 54.5t-4.5 79.5l16 77q14 66 48 96.5t96 30.5h157q75 0 104 -30.5t13 -96.5l-17 -82h-77l13 60q9 42 -5.5 59.5t-51.5 17.5h-118q-40 0 -60 -18t-30 -62l-8 -39q-7 -31 1.5 -49t36.5 -31l170 -83q56 -27 74 -51.5t7 -74.5l-22 -105
q-27 -125 -142 -125h-181q-144 0 -115 125l19 90h77l-14 -68q-16 -75 55 -75h142q71 0 87 75l12 60q7 33 -1.5 51.5t-38.5 32.5zM193 -61h59l-13 -59l-65 -101h-12z" />
    <glyph glyph-name="scommaaccent" unicode="&#x219;" horiz-adv-x="424" 
d="M304 448h-69q-62 0 -74 -58l-3 -17q-6 -29 4 -40t44 -23l102 -34q52 -15 68.5 -38t5.5 -78l-11 -51q-13 -59 -47.5 -84t-105.5 -25h-85q-77 0 -99 27.5t-7 95.5l6 31h68l-6 -27q-7 -34 4 -49t44 -15h89q33 0 50 14t23 44l6 25q6 30 -4 45.5t-37 24.5l-99 34
q-63 20 -78.5 40t-3.5 77l6 30q13 61 45.5 87.5t108.5 26.5h66q77 0 98 -28t7 -97l-6 -28h-67l5 26q14 64 -48 64zM135 -61h59l-13 -59l-65 -101h-12z" />
    <glyph glyph-name="dotlessj" unicode="&#x237;" 
d="M130 437h-57l15 68h129l-123 -578q-25 -115 -137 -115h-55l25 68h26q59 0 73 67z" />
    <glyph glyph-name="circumflex" unicode="&#x2c6;" horiz-adv-x="585" 
d="M349 724h45l84 -99h-72l-43 52h-4l-65 -52h-71z" />
    <glyph glyph-name="caron" unicode="&#x2c7;" horiz-adv-x="823" 
d="M373 625h-45l-80 100h68l44 -59l69 59h68z" />
    <glyph glyph-name="breve" unicode="&#x2d8;" horiz-adv-x="817" 
d="M468 588h-31q-50 0 -64 16.5t-4 64.5l2 12h45l-3 -14q-7 -36 34 -36h31q41 0 48 36l3 14h45l-2 -12q-10 -48 -31.5 -64.5t-72.5 -16.5z" />
    <glyph glyph-name="dotaccent" unicode="&#x2d9;" horiz-adv-x="816" 
d="M395 720h81l-18 -84h-81z" />
    <glyph glyph-name="ring" unicode="&#x2da;" horiz-adv-x="817" 
d="M430 693h38q45 0 58 -15.5t4 -57.5l-5 -27q-10 -43 -29 -57.5t-64 -14.5h-39q-44 0 -57.5 15t-3.5 57l5 27q9 42 28.5 57.5t64.5 15.5zM479 595l5 23q6 31 -29 31h-31q-35 0 -42 -31l-5 -23q-6 -31 29 -31h31q35 0 42 31z" />
    <glyph glyph-name="ogonek" unicode="&#x2db;" horiz-adv-x="817" 
d="M217 -107l3 14q8 39 55 64q25 13 32 20.5t11 24.5l3 16h41l-7 -34q-5 -24 -15.5 -35t-35.5 -24q-20 -11 -27 -17.5t-9 -17.5t3 -15t19 -4h65l-15 -43h-68q-32 0 -46.5 12t-8.5 39z" />
    <glyph glyph-name="tilde" unicode="&#x2dc;" horiz-adv-x="811" 
d="M459 706q33 0 42.5 -10.5t3.5 -41.5l-8 -35h-50l5 22q3 16 -15 16q-15 0 -31 -12l-23 -18q-20 -15 -63 -15q-35 0 -44 10.5t-2 41.5l7 35h50l-5 -23q-2 -8 1 -11.5t14 -3.5q17 0 35 14l17 14q20 17 66 17z" />
    <glyph glyph-name="hungarumlaut" unicode="&#x2dd;" horiz-adv-x="260" 
d="M244 739h68l-121 -134h-49zM335 739h68l-121 -134h-48z" />
    <glyph glyph-name="Wgrave" unicode="&#x1e80;" horiz-adv-x="831" 
d="M258 0h-83l-39 710h78l20 -554q2 -41 0 -62q9 26 22 61l236 555h75l-1 -555q0 -47 -2 -61q6 18 24 60l257 556h78l-339 -710h-82l-3 537q0 16 8 61q-18 -60 -18 -61zM440 863h77l60 -114h-52z" />
    <glyph glyph-name="wgrave" unicode="&#x1e81;" horiz-adv-x="690" 
d="M221 0h-90l-37 505h76l20 -426l188 426h76l4 -426l204 426h76l-249 -505h-91l-9 349q-2 11 -1 23q-5 -16 -11 -23zM331 693h77l60 -114h-52z" />
    <glyph glyph-name="Wacute" unicode="&#x1e82;" horiz-adv-x="831" 
d="M258 0h-83l-39 710h78l20 -554q2 -41 0 -62q9 26 22 61l236 555h75l-1 -555q0 -49 -1 -60q5 16 23 59l257 556h78l-339 -710h-82l-3 537q0 16 8 61q-18 -60 -18 -61zM550 750h-61l106 129h84z" />
    <glyph glyph-name="wacute" unicode="&#x1e83;" horiz-adv-x="690" 
d="M221 0h-90l-37 505h76l20 -426l188 426h76l4 -426l204 426h76l-249 -505h-91l-9 349q-2 11 -1 23q-5 -16 -11 -23zM440 580h-61l106 129h84z" />
    <glyph glyph-name="Wdieresis" unicode="&#x1e84;" horiz-adv-x="831" 
d="M258 0h-83l-39 710h78l20 -554q2 -41 0 -62q9 26 22 61l236 555h75l-1 -555q0 -47 -2 -61q6 18 24 60l257 556h78l-339 -710h-82l-3 537q0 16 8 61q-18 -60 -18 -61zM596 818h63l-16 -75h-63zM449 818h63l-16 -75h-63z" />
    <glyph glyph-name="wdieresis" unicode="&#x1e85;" horiz-adv-x="690" 
d="M221 0h-90l-37 505h76l20 -426l188 426h76l4 -426l204 426h76l-249 -505h-91l-9 349q-2 11 -1 23q-5 -16 -11 -23zM488 648h63l-16 -75h-63zM341 648h63l-16 -75h-63z" />
    <glyph glyph-name="Ygrave" unicode="&#x1ef2;" horiz-adv-x="522" 
d="M264 0h-76l60 286l-123 424h78l85 -303q2 -12 4.5 -23t4 -17t1.5 -11q11 23 31 50l213 304h81l-298 -422zM284 863h77l60 -114h-52z" />
    <glyph glyph-name="ygrave" unicode="&#x1ef3;" horiz-adv-x="441" 
d="M17 -157q32 0 54.5 15t43.5 55l40 81h-18l-44 511h75l30 -426l216 426h78l-314 -604q-38 -74 -75 -100t-105 -26h-60l24 68h55zM197 693h77l60 -114h-52z" />
    <glyph glyph-name="endash" unicode="&#x2013;" horiz-adv-x="462" 
d="M454 328l-25 -68h-368l25 68h368z" />
    <glyph glyph-name="emdash" unicode="&#x2014;" horiz-adv-x="364" 
d="M445 328l-25 -68h-443l24 68h444z" />
    <glyph glyph-name="quoteleft" unicode="&#x2018;" horiz-adv-x="175" 
d="M208 516h-93l67 204h40z" />
    <glyph glyph-name="quoteright" unicode="&#x2019;" horiz-adv-x="169" 
d="M156 720h93l-73 -204h-40z" />
    <glyph glyph-name="quotesinglbase" unicode="&#x201a;" horiz-adv-x="114" 
d="M1 123h93l-73 -204h-40z" />
    <glyph glyph-name="quotedblleft" unicode="&#x201c;" horiz-adv-x="312" 
d="M345 516h-93l67 204h40zM208 516h-93l67 204h40z" />
    <glyph glyph-name="quotedblright" unicode="&#x201d;" horiz-adv-x="305" 
d="M292 720h93l-73 -204h-40zM156 720h93l-73 -204h-40z" />
    <glyph glyph-name="quotedblbase" unicode="&#x201e;" horiz-adv-x="261" 
d="M151 130h93l-72 -204h-40zM0 130h93l-72 -204h-40z" />
    <glyph glyph-name="dagger" unicode="&#x2020;" horiz-adv-x="368" 
d="M41 260l25 68h111l93 435l63 14h12l-96 -449h130l-25 -68h-119l-109 -510h-72l109 510h-122z" />
    <glyph glyph-name="daggerdbl" unicode="&#x2021;" horiz-adv-x="372" 
d="M63 355l25 68h111l73 340l63 14h12l-76 -354h130l-24 -68h-120l-33 -156h130l-24 -67h-120l-82 -382h-72l82 382h-122l25 67h111l33 156h-122z" />
    <glyph glyph-name="bullet" unicode="&#x2022;" horiz-adv-x="347" 
d="M82 169l42 194h172l-42 -194h-172z" />
    <glyph glyph-name="ellipsis" unicode="&#x2026;" horiz-adv-x="733" 
d="M140 -5l20 91h81l-20 -91h-81zM414 -5l20 91h81l-20 -91h-81zM312 -5l20 91h81l-20 -91h-81z" />
    <glyph glyph-name="perthousand" unicode="&#x2030;" horiz-adv-x="1009" 
d="M735 257q18 83 106 83h86q88 0 70 -83l-37 -173q-18 -84 -105 -84h-86q-89 0 -71 84zM422 257q18 83 107 83h85q88 0 70 -83l-37 -173q-18 -84 -105 -84h-85q-90 0 -72 84zM529 291q-26 0 -39.5 -13t-19.5 -42l-30 -139q-10 -48 38 -48h63q26 0 39.5 13t19.5 42l29 139
q10 48 -37 48h-63zM842 291q-27 0 -40 -13.5t-20 -43.5l-29 -137q-10 -48 38 -48h63q26 0 39.5 13.5t19.5 43.5l29 137q5 25 -3.5 36.5t-33.5 11.5h-63zM129 627q17 83 105 83h85q88 0 71 -83l-37 -173q-18 -84 -106 -84h-85q-88 0 -70 84zM299 661h-64q-48 0 -58 -48
l-31 -146q-10 -48 38 -48h64q46 0 56 48l31 146q10 48 -36 48zM129 0l460 710h57l-460 -710h-57z" />
    <glyph glyph-name="guilsinglleft" unicode="&#x2039;" horiz-adv-x="283" 
d="M223 69h-86l-89 183l167 183h86l-168 -183z" />
    <glyph glyph-name="guilsinglright" unicode="&#x203a;" horiz-adv-x="283" 
d="M104 69h-86l168 183l-90 183h86l89 -183z" />
    <glyph glyph-name="fraction" unicode="&#x2044;" horiz-adv-x="353" 
d="M-41 0l460 710h57l-460 -710h-57z" />
    <glyph glyph-name="foursuperior" unicode="&#x2074;" horiz-adv-x="252" 
d="M99 482l14 68q5 24 26 43l123 117h51l-140 -136q-15 -13 -18 -32l-5 -21h70l10 45l30 6h13l-11 -51h36l-14 -39h-30l-11 -53h-42l11 53h-113z" />
    <glyph glyph-name="Euro" unicode="&#x20ac;" horiz-adv-x="607" 
d="M394 309l-24 -68h-158l-18 -85q-9 -43 4 -63.5t54 -20.5h135q41 0 63 20t31 64l11 55h77l-16 -76q-16 -73 -57 -104t-124 -31h-151q-73 0 -98 33t-10 102l23 106h-94l25 68h83l17 77h-94l25 68h83l26 121q15 69 53 102t111 33h151q83 0 112 -31t13 -104l-16 -74h-77
l11 53q9 43 -4 63.5t-54 20.5h-135q-41 0 -63 -20.5t-31 -63.5l-21 -100h202l-24 -68h-192l-17 -77h168z" />
    <glyph glyph-name="trademark" unicode="&#x2122;" horiz-adv-x="602" 
d="M596 409h-58l41 191l-60 -85h-45l-25 85l-41 -191h-56l64 301h56l38 -123l92 123h58zM371 657h-85l-53 -248h-56l53 248h-83l11 53h224z" />
    <glyph glyph-name="minus" unicode="&#x2212;" horiz-adv-x="487" 
d="M65 260l26 72h384l-25 -72h-385z" />
    <glyph glyph-name="commaaccent" unicode="&#xf6c3;" horiz-adv-x="490" 
d="M169 -61h59l-13 -59l-65 -101h-12z" />
    <glyph glyph-name="s_t" unicode="&#xfb06;" horiz-adv-x="759" 
d="M304 448h-69q-62 0 -74 -58l-3 -17q-6 -29 4 -40t44 -23l102 -34q52 -15 68.5 -38t5.5 -78l-11 -51q-13 -59 -47.5 -84t-105.5 -25h-85q-77 0 -99 27.5t-7 95.5l6 31h68l-6 -27q-7 -34 4 -49t44 -15h89q33 0 50 14t23 44l6 25q6 30 -4 45.5t-37 24.5l-99 34
q-63 20 -78.5 40t-3.5 77l6 30q13 61 45.5 87.5t108.5 26.5h66q77 0 98 -28t7 -97l-6 -28h-67l5 26q14 64 -48 64zM808 505l-20 -68h-98l-62 -292q-8 -41 4 -59t48 -18h39l-8 -68h-57q-128 0 -101 130l65 307h-76l21 68h70l22 102l72 38h8l-30 -140h103z" />
    <glyph glyph-name="g.001" horiz-adv-x="476" 
d="M72 269l22 105q15 70 54.5 100.5t116.5 30.5h47q59 0 84 -18l101 79l40 -56l-97 -77q4 -21 -8 -79l-19 -89q-15 -72 -48 -101t-105 -30l-57 -1q-34 0 -37 -20l-3 -11q-3 -14 4 -18.5t33 -4.5h95q81 0 108.5 -26.5t11.5 -102.5l-11 -51q-16 -74 -52 -107t-119 -33h-129
q-89 0 -108.5 31.5t-2.5 108.5l11 50q13 64 33.5 88.5t62.5 32.5q-19 8 -14 30l2 11q3 14 9 20.5t20 10.5q-40 10 -49.5 44t4.5 83zM136 -177h94q50 0 71.5 17.5t30.5 61.5l7 35q11 50 -6.5 64.5t-65.5 14.5h-90q-60 0 -76.5 -14t-28.5 -68l-6 -32q-9 -43 5 -61t65 -18z
M299 442h-47q-39 0 -59.5 -20t-29.5 -64l-17 -76q-10 -47 4.5 -65.5t59.5 -18.5h31q59 0 75.5 15t28.5 72l15 70q10 48 -2.5 67.5t-58.5 19.5z" />
    <glyph glyph-name="i.001" horiz-adv-x="325" 
d="M109 414h-45l15 68h48q75 0 101 -30.5t11 -100.5l-45 -210q-9 -40 3.5 -59.5t51.5 -19.5h44l-15 -68h-46q-76 0 -102 30t-11 100l45 211q9 40 -3.5 59.5t-51.5 19.5zM212 583l20 91h81l-20 -91h-81z" />
    <glyph glyph-name="G.001" horiz-adv-x="560" 
d="M292 287l15 72h243l-48 -227q-15 -69 -53.5 -102t-111.5 -33h-179q-73 0 -97.5 33t-9.5 102l94 443q15 69 53 102t111 33h179q73 0 98 -33t10 -102l-21 -96h-77l16 75q11 54 -7.5 69t-79.5 15h-117q-48 0 -67.5 -26t-33.5 -93l-78 -366q-9 -43 4 -63t54 -20h147
q41 0 62.5 20t30.5 63l29 134h-166z" />
    <glyph glyph-name="P.slt" horiz-adv-x="508" 
d="M102 0h-77l123 579q15 72 57.5 101.5t129.5 29.5h119q70 0 94.5 -32t10.5 -99l-34 -156q-18 -86 -54 -122.5t-120 -36.5h-118q-44 0 -66 -28t-32 -78zM313 638q-44 0 -64.5 -21.5t-30.5 -70.5l-55 -256q30 46 100 46h96q38 0 58.5 19t29.5 61l29 136q9 47 -3 66.5
t-59 19.5h-101z" />
    <glyph glyph-name="N.001" horiz-adv-x="549" 
d="M312 638q-39 0 -61.5 -21.5t-32.5 -67.5l-116 -549h-77l121 573q30 137 163 137h158q136 0 106 -137l-121 -573h-77l116 549q10 46 -3.5 67.5t-53.5 21.5h-122z" />
    <glyph glyph-name="S.bd" horiz-adv-x="548" 
d="M384 328h-171q-71 0 -95 31.5t-9 98.5l26 121q14 67 51 99t108 32h187q70 0 94.5 -32t10.5 -99l-17 -78h-76l12 58q9 41 -3.5 60t-51.5 19h-156q-38 0 -58.5 -19t-29.5 -60l-17 -80q-8 -41 4.5 -60t50.5 -19h172q70 0 94 -32t10 -99l-31 -142q-14 -67 -51.5 -99
t-107.5 -32h-187q-71 0 -95 32t-10 99l18 84h76l-13 -63q-9 -41 3.5 -60t50.5 -19h156q38 0 59 19t30 60l21 100q9 41 -4 60.5t-51 19.5z" />
    <glyph glyph-name="N.bd" horiz-adv-x="585" 
d="M27 0l148 699h76l-17 -81q-1 -6 -1.5 -10t1.5 -7.5t3 -6t5 -5t6 -3.5t8.5 -3.5t9.5 -3.5l241 -120l51 240h77l-148 -699h-77l75 355q3 6 1 11.5t-1.5 8t-4.5 6t-7 4.5t-8.5 4t-10.5 5l-242 120l-109 -514h-76z" />
    <glyph glyph-name="T.002" horiz-adv-x="536" 
d="M619 638h-217l-135 -638h-78l135 638h-217l26 72h511z" />
    <glyph glyph-name="I.bd" horiz-adv-x="337" 
d="M186 72h108l-15 -72h-292l15 72h107l120 566h-108l15 72h293l-15 -72h-108z" />
    <glyph glyph-name="Z.bd" horiz-adv-x="515" 
d="M449 421l-297 -196q-47 -32 -54 -61l-4 -22q-8 -39 7.5 -56t60.5 -17h292l-15 -73h-310q-142 0 -116 125l11 52q6 27 28 52.5t39 37.5t53 35l293 194q46 30 53 59l3 14q7 38 -10 55.5t-59 17.5h-268l15 72h286q142 0 116 -125l-9 -43q-2 -9 -5 -17.5t-8.5 -16.5
t-10 -14.5t-13 -14t-13.5 -12t-16 -12.5t-15.5 -11t-17.5 -12t-16 -11z" />
    <glyph glyph-name="V.bd" horiz-adv-x="592" 
d="M283 109l347 585l66 -27l-397 -668h-79l-113 668l78 27z" />
    <glyph glyph-name="X.bd" horiz-adv-x="486" 
d="M289 385l226 317l65 -27l-236 -323l102 -328l-78 -27l-95 312l-227 -312l-65 28l238 327l-97 323l77 27z" />
    <glyph glyph-name="a.001" horiz-adv-x="455" 
d="M302 0l5 53q-21 -31 -49.5 -42t-72.5 -11h-49q-68 0 -95 27.5t-14 86.5l15 73q12 56 42.5 82.5t83.5 26.5h186l19 89q13 59 -43 59h-92q-59 0 -72 -59l-3 -16h-68l7 34q23 108 121 108h130q119 0 96 -108l-85 -403h-62zM158 68h66q43 0 66.5 19t32.5 61l18 85h-164
q-31 0 -47.5 -15t-23.5 -48l-8 -42q-8 -35 7 -47.5t53 -12.5z" />
    <glyph glyph-name="G.002" horiz-adv-x="535" 
d="M316 281l16 73h196l-47 -222q-15 -68 -53 -101.5t-109 -33.5h-166q-131 0 -104 129l96 449q29 135 153 135h297l-26 -72h-262q-39 0 -60.5 -21t-31.5 -67l-84 -398q-10 -44 3 -63t52 -19h126q43 0 65.5 20t31.5 65l26 126h-119z" />
    <glyph glyph-name="o.001" horiz-adv-x="816" 
 />
    <glyph glyph-name="i.002" horiz-adv-x="212" 
d="M138 435h-60l12 58l76 12h60l-107 -505h-73zM182 654l19 91h81l-19 -91h-81z" />
    <glyph glyph-name="u.bd" horiz-adv-x="470" 
d="M377 0h-68l8 40q-47 -40 -121 -40h-52q-65 0 -89 31t-10 94l78 366l58 14h17l-77 -362q-9 -42 5 -61t53 -19h58q35 0 60.5 15.5t31.5 36.5h4l3 15l-1 12l74 349l58 14h17z" />
    <glyph glyph-name="w.bd" horiz-adv-x="676" 
d="M235 0h-90l-57 505h77l40 -426l131 256h75l21 -256l222 426h76l-269 -505h-91l-23 215z" />
    <glyph glyph-name="H.slt" horiz-adv-x="582" 
d="M103 0h-76l147 696l63 14h16l-81 -382h304l78 368l63 14h17l-150 -710h-77l54 256h-304z" />
    <glyph glyph-name="I.slt" horiz-adv-x="202" 
d="M103 0h-76l147 696l63 14h16z" />
    <glyph glyph-name="J.slt" horiz-adv-x="323" 
d="M278 240h-1l-24 -110q-27 -130 -160 -130h-121l25 72h93q39 0 60.5 19.5t30.5 62.5l97 456h1l18 86l63 14h17z" />
    <glyph glyph-name="K.slt" horiz-adv-x="494" 
d="M103 0h-76l147 696l63 14h16l-69 -326l332 326h96l-362 -355l212 -355h-96l-194 325z" />
    <glyph glyph-name="L.slt" horiz-adv-x="427" 
d="M155 240h-1l-36 -168h281l-26 -72h-346l121 570h1l26 126l63 14h16z" />
    <glyph glyph-name="N.slt" horiz-adv-x="583" 
d="M485 0h-77l-188 553l-117 -553h-76l147 696l63 14h16l188 -553l114 539l63 14h17z" />
    <glyph glyph-name="M.slt" horiz-adv-x="660" 
d="M562 0h-77l117 551l-221 -309h-71l-90 311l-117 -553h-76l147 696l63 14h16l115 -366l258 350l16 4q10 2 54 12h16z" />
    <glyph glyph-name="U.slt" horiz-adv-x="561" 
d="M136 165q-11 -49 3.5 -71t56.5 -22h126q42 0 65.5 22t34.5 71l112 531l63 14h17l-121 -569q-30 -141 -168 -141h-162q-140 0 -110 141l118 555l63 14h17z" />
    <glyph glyph-name="T.bd" horiz-adv-x="544" 
d="M632 638h-222l-135 -638h-77l135 638h-223l15 72h522z" />
    <glyph glyph-name="ampersand.001" horiz-adv-x="616" 
d="M509 0l-46 58q-39 -31 -68.5 -44.5t-63.5 -13.5h-169q-81 0 -109 34t-13 106l22 103h1l2 10q24 115 113 134q-6 30 3 73l18 83h1l6 28q14 65 45 98t89 39v2h116q81 0 109 -34t13 -105l-16 -74h-1l-8 -37q-15 -73 -52 -106.5t-108 -33.5h-29l126 -159l25 22l44 38l39 -48
l-43 -37l-26 -23l45 -57zM179 72h163q37 0 83 35l-166 213h-25q-41 0 -64 -20.5t-32 -63.5l-17 -80q-9 -44 3.5 -64t54.5 -20zM478 468l16 76h1l2 10q10 45 -3 64t-53 20h-67q-41 0 -63.5 -20.5t-31.5 -63.5l-11 -53h-1l-5 -25q-9 -42 1 -62.5t48 -21.5h77q72 0 91 76h-1z
" />
    <glyph glyph-name="A.B" horiz-adv-x="548" 
d="M431 710l69 -710h-81l-7 90l-265 72l-82 -162h-80l329 638h-125l15 72h227zM371 604l-139 -274l164 -45zM197 263l-17 -34l225 -61l-4 39z" />
    <glyph glyph-name="B.s" horiz-adv-x="507" 
d="M27 0l150 710h158q142 0 115 -129l-21 -97q-8 -40 -24 -61t-45 -28q90 -1 125 -26.5t18 -103.5l-28 -130q-28 -135 -179 -135h-269zM174 335l-56 -263h176q91 0 109 85l19 92q10 45 -6 65.5t-61 20.5h-181zM238 639l-49 -232h86q66 0 80 67l19 87q8 40 -8 59t-58 19h-70z
" />
    <glyph glyph-name="C.s" horiz-adv-x="518" 
d="M99 406l22 105h1l13 60q15 72 52.5 105.5t108.5 33.5h152q73 0 98 -33t10 -102l-10 -46h-76l5 25q9 44 -4 64t-54 20h-114q-41 0 -64 -20.5t-32 -63.5l-11 -53h-1l-19 -90h1l-12 -55q-9 -44 4 -63.5t55 -19.5h116q41 0 62.5 20t30.5 63l5 23h76l-9 -44
q-15 -69 -53.5 -102t-111.5 -33h-134q-81 0 -108.5 34.5t-11.5 105.5l14 66h-1zM455 72l-15 -72h-427l15 72h427z" />
    <glyph glyph-name="D.s" horiz-adv-x="557" 
d="M100 638l15 72h353q84 0 112.5 -37.5t10.5 -117.5l-42 -200q-17 -80 -61 -117.5t-128 -37.5h-267l93 438h-86zM487 72l-15 -72h-422l15 72h422zM437 638h-175l-77 -365h175q51 0 78.5 24.5t38.5 78.5l34 160q11 53 -6.5 77.5t-67.5 24.5z" />
    <glyph glyph-name="E.s.001" horiz-adv-x="485" 
d="M238 638l-43 -201h245l-26 -72h-234l-8 -38h216l-26 -72h-205l-39 -183h324l-25 -72h-390l150 710h399l-26 -72h-312z" />
    <glyph glyph-name="F.s.001" horiz-adv-x="467" 
d="M238 638l-43 -201h245l-26 -72h-234l-8 -38h216l-26 -72h-205l-54 -255h-76l150 710h389l-26 -72h-302z" />
    <glyph glyph-name="G.s" horiz-adv-x="506" 
d="M122 469l17 79h1l5 23q15 72 52.5 105.5t108.5 33.5h93q73 0 98.5 -33t10.5 -102l-37 -175q-15 -69 -54 -102t-112 -33h-56l-16 -75h116q80 0 107.5 -34t12.5 -105l-15 -74h-1l-7 -32q-15 -72 -52.5 -105.5t-108.5 -33.5h-166q-81 0 -108.5 34t-12.5 105l18 87h1l4 19
q14 66 46.5 99.5t93.5 38.5l17 80q-93 19 -69 135l14 65h-1zM137 -122h143q67 0 87 64l18 86h2l2 6q10 46 -3 65t-55 19h-141q-42 0 -64.5 -20t-31.5 -64l-16 -72q-9 -44 4 -64t55 -20zM369 638h-61q-38 -1 -59.5 -21.5t-30.5 -62.5l-11 -53h-1l-5 -25h1l-12 -55
q-9 -44 2 -63.5t52 -20.5h61q41 0 62.5 20t30.5 64l28 133q9 44 -4 64t-53 20z" />
    <glyph glyph-name="H.s" horiz-adv-x="554" 
d="M103 0h-76l150 710h76l-59 -279l261 -72l74 351h76l-150 -710h-76l37 177l-261 71zM179 358l-8 -37l260 -72l9 38z" />
    <glyph glyph-name="I.s" horiz-adv-x="462" 
d="M421 72l-15 -72h-421l15 72h171l120 566h-172l15 72h422l-15 -72h-174l-120 -566h174z" />
    <glyph glyph-name="J.s" horiz-adv-x="533" 
d="M294 72q42 0 65.5 22t34.5 71l76 358h-164l9 72h170l9 43h-216l9 72h299l-121 -569q-30 -141 -168 -141h-162q-71 0 -97.5 35t-12.5 106l27 123h77l-21 -99q-11 -49 3.5 -71t56.5 -22h126z" />
    <glyph glyph-name="K.s" horiz-adv-x="519" 
d="M534 710h85l-367 -401l240 -68l-51 -241h-77l40 189l-246 70l-55 -259h-76l150 710h76l-80 -378l11 -4z" />
    <glyph glyph-name="L.s" horiz-adv-x="462" 
d="M244 710l-92 -437h301l-26 -73h-367l108 510h76zM406 72l-15 -72h-374l15 72h374z" />
    <glyph glyph-name="M.s" horiz-adv-x="655" 
d="M103 0h-77l150 710h84l122 -279l240 279h85l-150 -710h-77l96 452l-250 -284l-127 284zM233 616l-12 -59l127 -285l250 285l12 59l-249 -284z" />
    <glyph glyph-name="N.s" horiz-adv-x="585" 
d="M27 0l148 699h76l-17 -81q-1 -6 -1.5 -10t1.5 -7.5t3 -6t5 -5t6 -3.5t8.5 -3.5t9.5 -3.5l241 -120l51 240h77l-148 -699h-77l75 355q3 6 1 11.5t-1.5 8t-4.5 6t-7 4.5t-8.5 4t-10.5 5l-242 120l-109 -514h-76z" />
    <glyph glyph-name="O.s" horiz-adv-x="545" 
d="M125 539h1l7 32q15 72 52.5 105.5t108.5 33.5h170q80 0 108 -34t13 -105l-16 -74h-1l-17 -81h1l-16 -76q-15 -72 -52.5 -105.5t-108.5 -33.5h-171q-81 0 -108.5 34t-12.5 105zM465 376l35 163h1l3 15q10 46 -2.5 65t-54.5 19h-146q-41 0 -64 -20.5t-32 -63.5l-11 -53h-1
l-19 -89h1l-12 -55q-9 -44 4 -64t55 -20h148q40 0 61.5 20t30.5 64l4 19h-1zM463 72l-15 -72h-426l15 72h426z" />
    <glyph glyph-name="P.s" horiz-adv-x="511" 
d="M162 638l15 72h280q130 0 103 -129l-42 -196q-27 -129 -157 -129h-204l-54 -256h-76l69 328h258q77 0 94 82l31 146q9 43 -5.5 62.5t-53.5 19.5h-258z" />
    <glyph glyph-name="Q.s" horiz-adv-x="565" 
d="M263 201h-63q-81 0 -108.5 34t-12.5 105l36 171h1l13 60q15 72 52 105.5t109 33.5h178q81 0 108.5 -34t12.5 -105l-16 -74h-1l-17 -81h1l-16 -76q-20 -90 -73 -120l50 -13l-15 -72zM218 273h156q40 0 61.5 20t30.5 64l42 197q10 46 -2.5 65t-54.5 19h-155
q-41 0 -63.5 -20.5t-31.5 -63.5l-11 -53h-1l-19 -89h1l-12 -55q-9 -44 4 -64t55 -20zM240 91l15 72l239 -66l-15 -72z" />
    <glyph glyph-name="R.s" horiz-adv-x="548" 
d="M441 -25l-118 281h-166l-54 -256h-76l69 328h196l-130 310l15 72h280q130 0 103 -129l-42 -196q-21 -102 -106 -123l102 -242zM420 638h-165l129 -307q49 13 64 79l31 146q9 43 -5.5 62.5t-53.5 19.5z" />
    <glyph glyph-name="S.s" horiz-adv-x="512" 
d="M200 527q-5 -21 2 -33t29 -23l197 -105l-13 -64q40 -21 53.5 -42.5t4.5 -62.5l-15 -72q-27 -125 -153 -125h-167q-133 0 -106 125l18 86h77l-13 -64q-8 -39 5 -57t50 -18h130q71 0 87 75l8 37q5 26 -2 37t-30 22l-206 104l15 68q-34 20 -47 41t-5 58l14 69
q28 127 157 127h158q66 0 91 -30.5t11 -96.5l-17 -82h-76l13 60q16 77 -52 77h-123q-40 0 -59.5 -18t-29.5 -62z" />
    <glyph glyph-name="T.s" horiz-adv-x="484" 
d="M244 0h-77l110 522h-156l16 73h391l-16 -73h-158zM564 638h-447l15 72h447z" />
    <glyph glyph-name="U.s" horiz-adv-x="536" 
d="M354 273q42 0 65 22t34 71l73 344h76l-78 -368q-30 -142 -168 -142h-163q-139 0 -109 142l78 368h77l-73 -344q-10 -49 4.5 -71t56.5 -22h127zM459 72l-15 -72h-426l15 72h426z" />
    <glyph glyph-name="V.s" horiz-adv-x="461" 
d="M278 200h-82l-56 510h80l40 -404l209 404h81zM423 72l-15 -72h-425l14 72h426z" />
    <glyph glyph-name="W.s" horiz-adv-x="656" 
d="M176 710h77l-97 -458l247 276l130 -276l97 458h77l-150 -710h-85l-122 279l-240 -279h-84zM134 150l-11 -54l248 284l129 -284l11 54l-128 284z" />
    <glyph glyph-name="X.s" horiz-adv-x="514" 
d="M388 420l84 -420h-86l-67 334l-30 -38l60 -296h-86l-42 209l-165 -209h-83l231 294l-82 416h85l65 -329l31 38l-57 291h85l40 -204l161 204h85z" />
    <glyph glyph-name="Y.s" horiz-adv-x="524" 
d="M201 560l80 -123l11 50l-149 223h89l110 -166l177 166h89l-239 -221l-10 -50l129 121h89l-239 -221l-72 -339h-77l71 337l-148 223h89z" />
    <glyph glyph-name="Z.s" horiz-adv-x="492" 
d="M128 525l5 73h287l31 40h-314l5 72h410l-4 -67l-356 -454h282l-27 -72h-312l-35 -45h333l-26 -72h-407l3 67l359 458h-234z" />
    <glyph glyph-name="E.s" horiz-adv-x="481" 
d="M235 638l-43 -201h245l-26 -72h-310l73 345h398l-25 -72h-312zM413 0h-389l69 327h292l-26 -72h-205l-39 -183h324z" />
    <glyph glyph-name="F.s" horiz-adv-x="464" 
d="M235 638l-43 -201h245l-26 -72h-310l73 345h388l-25 -72h-302zM100 0h-76l69 327h292l-26 -72h-205z" />
    <glyph glyph-name="H.s.001" horiz-adv-x="551" 
d="M103 0h-76l150 710h76l-64 -305h273l64 305h76l-150 -710h-76l46 219h-273zM173 333l-9 -42h273l9 42h-273z" />
    <glyph glyph-name="L.s.001" horiz-adv-x="462" 
d="M254 710l-110 -521h299l-27 -73h-288l-9 -44h301l-26 -72h-367l150 710h77z" />
    <glyph glyph-name="Q.s.001" horiz-adv-x="540" 
d="M270 0h-72l42 201h-43q-81 0 -108.5 34t-12.5 105l36 171h1l13 60q15 72 52 105.5t109 33.5h178q81 0 108.5 -34t12.5 -105l-16 -74h-1l-17 -81h1l-16 -76q-15 -72 -52.5 -105.5t-108.5 -33.5h-64zM215 273h41l23 109h72l-23 -109h43q40 0 61.5 20t30.5 64l3 13h-1
l30 141h1l9 43q10 46 -2.5 65t-54.5 19h-155q-41 0 -63.5 -20.5t-31.5 -63.5l-11 -53h-1l-19 -89h1l-12 -55q-9 -44 3.5 -64t55.5 -20z" />
    <glyph glyph-name="A.s.001" horiz-adv-x="678" 
d="M702 239l-15 -72h-144l17 -167h-80l-14 167h-256l-84 -167h-80l85 167h-138l15 72h160l206 398h-123l15 73h226l44 -471h166zM431 604l-185 -365h214z" />
    <glyph glyph-name="N.s.001" horiz-adv-x="591" 
d="M103 0h-77l150 710h77l-10 -50l294 -82l28 132h77l-150 -710h-77l84 396l-295 82zM227 588l-8 -38l295 -82l8 38z" />
    <glyph glyph-name="O.s.001" horiz-adv-x="578" 
d="M51 140l92 431q15 72 52.5 105.5t109.5 33.5h178q81 0 109 -34t13 -105l-92 -431q-15 -72 -52.5 -106t-108.5 -34h-180q-80 0 -108 34t-13 106zM466 638h-155q-41 0 -63.5 -20.5t-31.5 -63.5l-84 -398q-9 -44 3.5 -64t54.5 -20h156q40 0 61.5 20t31.5 64l12 59h1l72 339
q10 46 -3 65t-55 19zM282 313l19 91h81l-19 -91h-81z" />
    <glyph glyph-name="N.s.002" horiz-adv-x="591" 
d="M103 0h-77l150 710h77l-10 -50l294 -82l28 132h77l-150 -710h-77l107 506l-295 82z" />
    <glyph glyph-name="C.spec" horiz-adv-x="619" 
d="M526 638h-124q-41 0 -63.5 -20.5t-31.5 -63.5l-11 -53h-1l-11 -51l169 -47l-15 -72l-169 47l-8 -38l169 -47l-16 -72l-169 47l-12 -57h1l-11 -55q-9 -44 3 -64t54 -20h126q40 0 62 20t32 64l12 59h76l-16 -75q-15 -73 -52 -106.5t-108 -33.5h-149q-81 0 -109 34t-12 106
l13 61h-1l19 87l-128 35l16 73l127 -36l8 38l-127 35l15 72l127 -35l9 41h1l13 60q15 72 52.5 105.5t108.5 33.5h148q81 0 108.5 -34t12.5 -105l-16 -74h-76l12 57q10 46 -3 65t-55 19z" />
    <glyph glyph-name="A.sh" horiz-adv-x="548" 
d="M483 186l-352 99l182 353h-127l15 72h232zM114 246l373 -103l12 -143h-80l-8 89l-266 72l-80 -161h-80zM370 604l-138 -274l162 -45z" />
    <glyph glyph-name="H.sh" horiz-adv-x="551" 
d="M509 267l-404 111l70 332h76l-59 -280l261 -71l74 351h76zM101 0h-76l72 342l404 -112l-48 -230h-76l37 177l-261 72z" />
    <glyph glyph-name="M.sh" horiz-adv-x="655" 
d="M350 276l348 392l-141 -668h-76l102 480l-253 -298l-125 298l-102 -480h-77l141 668zM362 330l-186 380h79l126 -288l247 288h79z" />
    <glyph glyph-name="W.sh" horiz-adv-x="655" 
d="M565 42l-181 392l-350 -392l142 668h77l-102 -480l253 298l125 -298l102 480h76zM26 0l346 380l185 -380h-79l-125 288l-248 -288h-79z" />
    <glyph glyph-name="X.sh" horiz-adv-x="515" 
d="M221 214l-165 -214h-84l233 297l-82 413h86l141 -710h-86zM389 420l84 -420h-85l-141 710h85l40 -207l161 207h85z" />
    <glyph glyph-name="L.sh" horiz-adv-x="471" 
d="M429 52l-382 105l117 553h77l-106 -502l309 -83zM25 48l14 72l382 -105l-16 -73z" />
    <glyph glyph-name="B.sh" horiz-adv-x="513" 
d="M27 0l150 710h134q86 0 120.5 -27.5t20.5 -93.5l-15 -67q-13 -65 -59 -93t-132 -28h-58l-6 -25h174q25 0 42.5 -1t35.5 -4.5t29.5 -10t21.5 -17t13.5 -25.5t3.5 -36.5t-6 -48.5l-18 -85q-31 -148 -182 -148h-269zM168 308l-50 -236h176q91 0 109 85l14 65q3 13 4 23.5
t-1.5 19t-4 14.5t-8.5 10.5t-11 8t-16 5.5l-18 3t-22 1.5t-23.5 0.5h-27.5h-121zM240 647l-39 -182h70q43 0 66.5 18t31.5 58l7 29q8 40 -7.5 58.5t-58.5 18.5h-70z" />
    <glyph glyph-name="undercommaaccent" horiz-adv-x="150" 
d="M-8 -81h56l-13 -63l-57 -83h-13z" />
    <glyph glyph-name="O.mon2.001" horiz-adv-x="572" 
d="M308 638q-40 0 -61.5 -20t-30.5 -64l-84 -398q-9 -44 3.5 -64t52.5 -20h52l-15 -72h-68q-72 0 -97 33t-10 102l94 440q15 69 53 102t110 33h186q72 0 97 -33t10 -102l-94 -440q-15 -69 -53 -102t-110 -33h-68l15 72h52q40 0 61.5 20t30.5 64l84 398q9 44 -3.5 64
t-52.5 20h-154z" />
    <glyph glyph-name="P.mon2.001" horiz-adv-x="529" 
d="M161 638l15 72h290q140 0 113 -129l-42 -196q-27 -129 -167 -129h-213l-54 -256h-77l124 586h77l-55 -258h191q87 0 104 82l31 146q17 82 -69 82h-268z" />
    <glyph glyph-name="S.mon2.001" horiz-adv-x="529" 
d="M383 274l-159 74q-73 34 -91 52q-30 31 -17 90l19 93q14 65 53.5 96t108.5 31h59l-15 -72h-39q-43 0 -64 -18t-31 -62l-12 -59q-6 -25 4.5 -37.5t45.5 -28.5l197 -93q43 -20 53.5 -42t-0.5 -76l-21 -97q-27 -125 -157 -125h-54l15 72h32q40 0 62 16.5t31 58.5l14 68
q6 26 -1.5 37t-32.5 22zM435 638h-43l15 72h66q60 0 83 -34t11 -93l-17 -82h-77l13 60q16 77 -51 77zM115 147q-16 -75 59 -75h51l-15 -72h-65q-139 0 -112 125l18 86h77z" />
    <glyph glyph-name="F.mon2.001" horiz-adv-x="488" 
d="M93 0h-76l124 586h76l-54 -253h274l-26 -72h-263zM152 638l15 72h420l-26 -72h-409z" />
    <glyph glyph-name="B.mon2.001" horiz-adv-x="518" 
d="M152 639l15 71h243q154 0 126 -135l-24 -113q-17 -75 -75 -90q40 -9 54.5 -40t6.5 -67l-28 -130q-28 -135 -180 -135h-273l124 587h76l-38 -180h174q71 0 86 71l16 73q10 46 -10 67t-72 21h-221zM164 335l-56 -263h179q94 0 112 85l19 92q10 45 -6.5 65.5t-62.5 20.5
h-185z" />
    <glyph glyph-name="I.mon2.001" 
d="M104 0h-77l150 710h77z" />
    <glyph glyph-name="E.mon2.001" horiz-adv-x="480" 
d="M411 0h-394l124 584h76l-54 -251h271l-25 -72h-261l-40 -189h329zM152 638l15 72h403l-26 -72h-392z" />
    <glyph glyph-name="Z.mon2.001" horiz-adv-x="497" 
d="M-8 0l3 67l447 519h92l-443 -514h367l-25 -72h-441zM573 638h-444l4 72h444z" />
    <glyph glyph-name="A.mon2.001" horiz-adv-x="548" 
d="M61 0h-82l111 218h307l-31 386l-172 -335h-77l230 441h82l69 -710h-83l-12 146h-270z" />
    <glyph glyph-name="V.mon2.001" horiz-adv-x="543" 
d="M276 0h-78l365 710h82zM125 710h82l45 -505l-65 -121z" />
    <glyph glyph-name="X.mon2.001" horiz-adv-x="451" 
d="M-25 0l499 710h85l-239 -339l83 -371h-86l-63 277l-194 -277h-85zM206 710l51 -241l-62 -83l-73 324h84z" />
    <glyph glyph-name="N.mon2.001" horiz-adv-x="566" 
d="M384 0l-217 710h88l165 -569l121 569h77l-150 -710h-84zM94 0h-76l126 602l49 -135z" />
    <glyph glyph-name="R.mon2.001" horiz-adv-x="523" 
d="M153 638l15 72h278q130 0 103 -129l-42 -196q-26 -123 -144 -129l126 -256h-89l-126 256h-126l-54 -256h-76l124 586h76l-55 -258h181q76 0 93 82l31 146q9 43 -5 62.5t-53 19.5h-257z" />
    <glyph glyph-name="G.mon2.001" horiz-adv-x="542" 
d="M131 154q-9 -43 5 -62.5t53 -19.5h40l-15 -72h-59q-133 0 -106 129l95 446q28 135 155 135h176q134 0 106 -129l-17 -80h-76l12 55q18 82 -59 82h-134q-39 0 -60.5 -21t-31.5 -67zM311 281l27 73h192l-47 -219q-15 -72 -57 -103.5t-125 -31.5h-36l15 72h35q79 0 95 78
l28 131h-127z" />
    <glyph glyph-name="C.mon2.001" horiz-adv-x="529" 
d="M190 72h35l-15 -72h-51q-73 0 -98.5 33t-10.5 102l94 440q15 69 53.5 102t111.5 33h158q73 0 98.5 -33t10.5 -102l-16 -74h-77l11 53q9 44 -4 64t-54 20h-126q-41 0 -63 -20.5t-31 -63.5l-84 -398q-9 -44 4 -64t54 -20zM317 0h-58l15 72h37q48 0 69.5 24t33.5 81l7 34h77
l-16 -76q-15 -69 -53.5 -102t-111.5 -33z" />
    <glyph glyph-name="D.mon2.001" horiz-adv-x="531" 
d="M425 638h-273l15 72h289q73 0 98.5 -33t10.5 -102l-94 -440q-15 -69 -53.5 -102t-111.5 -33h-289l124 586h77l-109 -514h196q41 0 63 20.5t31 63.5l84 398q9 44 -4 64t-54 20z" />
    <glyph glyph-name="H.mon2.001" horiz-adv-x="548" 
d="M93 0h-76l69 329h356l81 381h77l-150 -710h-77l54 257h-280zM243 710l-70 -329h-76l70 329h76z" />
    <glyph glyph-name="U.mon2.001" horiz-adv-x="563" 
d="M198 72h37l-15 -72h-55q-142 0 -112 141l121 569h77l-115 -545q-11 -48 4 -70.5t58 -22.5zM323 72h-37l-15 -72h55q140 0 170 141l121 569h-77l-115 -545q-11 -48 -35 -70.5t-67 -22.5z" />
    <glyph glyph-name="W.mon2.001" horiz-adv-x="737" 
d="M235 0h-76l285 710h77l-28 -604l248 604h82l-314 -710h-89l18 519zM141 710h82l7 -437l-74 -168z" />
    <glyph glyph-name="Y.mon2.001" horiz-adv-x="504" 
d="M255 0h-76l67 316l275 394h80l-281 -404zM214 710l70 -255l-60 -86l-94 341h84z" />
    <glyph glyph-name="L.mon2.001" horiz-adv-x="438" 
d="M379 0h-362l15 72h373zM243 710l-124 -586h-76l124 586h76z" />
    <glyph glyph-name="J.mon2.001" horiz-adv-x="422" 
d="M143 72q63 0 95.5 19.5t41.5 62.5l118 556h77l-123 -580q-27 -130 -209 -130h-168l26 72h142z" />
    <glyph glyph-name="Q.mon2.001" horiz-adv-x="572" 
d="M321 183l-23 -111h44q39 0 61 20.5t31 63.5l84 398q9 44 -3.5 64t-52.5 20h-52l15 72h68q72 0 97 -33t10 -102l-94 -440q-15 -69 -53 -102t-110 -33h-60l-22 -102h-73l22 102h-53q-72 0 -97 33t-10 102l94 440q15 69 53 102t110 33h68l-15 -72h-52q-39 0 -61 -20.5
t-31 -63.5l-84 -398q-9 -44 3.5 -64t52.5 -20h37l23 111h73z" />
    <glyph glyph-name="K.mon2.001" horiz-adv-x="486" 
d="M86 0h-76l72 341l428 369h95l-382 -336l232 -374h-95l-199 312l-11 -8zM236 710l-46 -220l-94 -82l64 302h76z" />
    <glyph glyph-name="M.mon2.001" horiz-adv-x="633" 
d="M535 0h-77l119 563l-206 -301h-80l-124 448h88l98 -344l242 344h90zM94 0h-76l125 594l44 -156z" />
    <glyph glyph-name="T.mon2.001" horiz-adv-x="511" 
d="M594 638h-479l15 72h479zM258 0h-77l124 586h77z" />
    <glyph glyph-name="O.mon2" horiz-adv-x="572" 
d="M50 135l94 440q15 69 53 102t110 33h186q72 0 97 -33t10 -102l-94 -440q-15 -69 -53 -102t-110 -33h-186q-72 0 -97 33t-10 102zM308 638q-40 0 -61.5 -20t-30.5 -64l-84 -398q-9 -44 3.5 -64t52.5 -20h154q40 0 61.5 20t30.5 64l84 398q9 44 -3.5 64t-52.5 20h-154z" />
    <glyph glyph-name="P.mon2" horiz-adv-x="529" 
d="M26 0l150 710h290q140 0 113 -129l-42 -196q-27 -129 -167 -129h-213l-54 -256h-77zM238 638l-66 -310h191q87 0 104 82l31 146q17 82 -69 82h-191z" />
    <glyph glyph-name="S.mon2" horiz-adv-x="529" 
d="M383 274l-194 90q-49 23 -67.5 45.5t-9.5 65.5l23 108q14 65 53.5 96t108.5 31h162q69 0 95.5 -30.5t12.5 -96.5l-17 -82h-77l13 60q16 77 -56 77h-128q-43 0 -64 -18t-31 -62l-13 -60q-5 -24 2.5 -35.5t30.5 -21.5l193 -90q54 -25 71.5 -46.5t7.5 -67.5l-24 -112
q-27 -125 -158 -125h-172q-139 0 -112 125l18 86h77l-13 -64q-16 -75 60 -75h137q75 0 91 75l14 68q6 27 -1.5 37.5t-32.5 21.5z" />
    <glyph glyph-name="F.mon2" horiz-adv-x="497" 
d="M238 638l-65 -305h273l-26 -72h-262l-55 -261h-77l150 710h420l-25 -72h-333z" />
    <glyph glyph-name="B.mon2" horiz-adv-x="529" 
d="M26 0l150 710h243q155 0 127 -135l-24 -113q-17 -74 -75 -90q40 -9 54.5 -40t6.5 -67l-28 -130q-28 -135 -181 -135h-273zM174 335l-56 -263h178q94 0 112 85l19 92q10 45 -6.5 65.5t-62.5 20.5h-184zM238 639l-49 -232h173q71 0 86 71l16 73q10 46 -10 67t-71 21h-145z
" />
    <glyph glyph-name="I.mon2" 
d="M104 0h-77l150 710h77z" />
    <glyph glyph-name="E.mon2" horiz-adv-x="490" 
d="M238 638l-65 -305h271l-25 -72h-261l-40 -189h329l-26 -72h-395l150 710h404l-26 -72h-316z" />
    <glyph glyph-name="Z.mon2" horiz-adv-x="496" 
d="M574 643l-483 -571h367l-25 -72h-441l3 67l482 571h-348l4 72h444z" />
    <glyph glyph-name="A.mon2" horiz-adv-x="548" 
d="M347 710h82l69 -710h-83l-12 146h-268l-74 -146h-82zM366 604l-195 -386h226z" />
    <glyph glyph-name="V.mon2" horiz-adv-x="544" 
d="M277 0h-81l-70 710h82l50 -604l306 604h83z" />
    <glyph glyph-name="X.mon2" horiz-adv-x="471" 
d="M208 710l76 -323l209 323h84l-240 -356l89 -354h-89l-72 311l-205 -311h-85l238 354l-92 356h87z" />
    <glyph glyph-name="N.mon2" horiz-adv-x="580" 
d="M103 0h-77l150 710h84l175 -566l120 566h77l-150 -710h-83l-176 569z" />
    <glyph glyph-name="R.mon2" horiz-adv-x="532" 
d="M26 0l150 710h279q130 0 103 -129l-42 -196q-26 -123 -145 -129l126 -256h-89l-126 256h-125l-54 -256h-77zM238 638l-66 -310h180q76 0 93 82l31 146q9 43 -5 62.5t-53 19.5h-180z" />
    <glyph glyph-name="G.mon2" horiz-adv-x="542" 
d="M311 281l27 73h192l-47 -219q-14 -68 -52.5 -101.5t-110.5 -33.5h-165q-133 0 -106 129l95 446q28 135 155 135h176q134 0 106 -129l-17 -80h-76l12 55q9 43 -5 62.5t-54 19.5h-134q-39 0 -60.5 -21t-31.5 -67l-84 -396q-9 -43 5 -62.5t53 -19.5h126q79 0 95 78l28 131
h-127z" />
    <glyph glyph-name="C.mon2" horiz-adv-x="529" 
d="M190 72h126q41 0 63 20t31 64l11 55h77l-16 -76q-15 -69 -53.5 -102t-111.5 -33h-158q-73 0 -98.5 33t-10.5 102l94 440q15 69 53.5 102t111.5 33h158q73 0 98.5 -33t10.5 -102l-16 -74h-77l11 53q9 44 -4 64t-54 20h-126q-41 0 -63 -20t-31 -64l-84 -398q-9 -44 4 -64
t54 -20z" />
    <glyph glyph-name="D.mon2" horiz-adv-x="547" 
d="M26 0l150 710h289q73 0 98.5 -33t10.5 -102l-94 -440q-15 -69 -53.5 -102t-111.5 -33h-289zM435 638h-196l-120 -566h196q41 0 63 20.5t31 63.5l84 398q9 44 -4 64t-54 20z" />
    <glyph glyph-name="H.mon2" horiz-adv-x="557" 
d="M103 0h-77l150 710h77l-81 -381h280l81 381h76l-150 -710h-76l54 257h-280z" />
    <glyph glyph-name="U.mon2" horiz-adv-x="567" 
d="M327 72q43 0 67.5 22t34.5 71l115 545h77l-121 -569q-30 -141 -170 -141h-165q-142 0 -112 141l121 569h77l-115 -545q-10 -49 4.5 -71t57.5 -22h129z" />
    <glyph glyph-name="W.mon2" horiz-adv-x="737" 
d="M244 0h-89l-14 710h82l-7 -604l228 604h78l-28 -604l248 604h83l-315 -710h-89l17 496z" />
    <glyph glyph-name="Y.mon2" horiz-adv-x="504" 
d="M255 0h-76l64 302l-113 408h84l85 -320l218 320h84l-282 -407z" />
    <glyph glyph-name="L.mon2" horiz-adv-x="498" 
d="M253 710l-135 -638h350l-26 -72h-416l150 710h77z" />
    <glyph glyph-name="J.mon2" horiz-adv-x="422" 
d="M143 72q63 0 95.5 19.5t41.5 62.5l118 556h77l-123 -580q-27 -130 -209 -130h-168l26 72h142z" />
    <glyph glyph-name="Q.mon2" horiz-adv-x="572" 
d="M50 135l94 440q15 69 53 102t110 33h186q72 0 97 -33t10 -102l-94 -440q-15 -69 -53 -102t-110 -33h-60l-22 -102h-72l22 102h-54q-72 0 -97 33t-10 102zM308 638q-40 0 -61.5 -20t-30.5 -64l-84 -398q-9 -44 3.5 -64t52.5 -20h38l23 111h72l-23 -111h44q40 0 61.5 20
t30.5 64l84 398q9 44 -3.5 64t-52.5 20h-154z" />
    <glyph glyph-name="K.mon2" horiz-adv-x="504" 
d="M103 0h-77l150 710h77l-69 -327l342 327h96l-371 -355l221 -355h-96l-204 326z" />
    <glyph glyph-name="M.mon2" horiz-adv-x="644" 
d="M545 0h-76l122 575l-203 -285h-82l-81 285l-122 -575h-77l150 710h91l96 -346l243 346h89z" />
    <glyph glyph-name="T.mon2" horiz-adv-x="511" 
d="M594 638h-201l-135 -638h-77l135 638h-201l15 72h479z" />
    <glyph glyph-name="K.mon2.002" horiz-adv-x="514" 
d="M94 0h-76l80 385h190l252 325h84l-272 -359l123 -351h-89l-111 312h-115zM244 710l-58 -273h-77l58 273h77z" />
    <glyph glyph-name="A.ae" horiz-adv-x="566" 
d="M356 710h82l79 -685l-77 -25l-16 146h-292l-77 -146l-66 25l367 683v2zM375 603l-205 -385h246z" />
    <glyph glyph-name="K.ae" horiz-adv-x="474" 
d="M103 0h-77l150 710h77l-69 -326l337 330l57 -45l-328 -314l191 -318l-73 -42l-196 330z" />
    <glyph glyph-name="M.ae" horiz-adv-x="655" 
d="M557 0h-77l120 569l-221 -307h-65l-91 307l-120 -569h-77l150 710h84l109 -343l253 343h85z" />
    <glyph glyph-name="R.ae" horiz-adv-x="528" 
d="M26 0l150 710h280q131 0 104 -129l-42 -196q-26 -125 -147 -129l108 -225l-71 -36l-125 261h-126l-54 -256h-77zM238 638l-66 -310h181q77 0 94 82l31 146q9 43 -5.5 62.5t-53.5 19.5h-181z" />
    <glyph glyph-name="V.ae" horiz-adv-x="563" 
d="M287 0h-82l-79 685l78 25l64 -603l320 603l67 -25l-369 -684z" />
    <glyph glyph-name="W.ae" horiz-adv-x="909" 
d="M633 0h-83v1l-47 402l-217 -402l1 -1h-82l-79 685l78 25l64 -603l320 603l67 -25l-86 -159l44 -419l321 603l67 -25l-369 -684z" />
    <glyph glyph-name="X.ae" horiz-adv-x="486" 
d="M525 722l58 -38l-254 -318l125 -335l-74 -39l-112 297l-237 -297l-57 39l266 334l-119 319l75 38l104 -281z" />
    <glyph glyph-name="Y.ae" horiz-adv-x="514" 
d="M260 0h-77l70 334l-122 354l74 34l103 -310l235 310l60 -34l-272 -353z" />
    <glyph glyph-name="A.SC" horiz-adv-x="501" 
d="M303 604h79l70 -604h-81l-13 119h-238l-62 -119h-79zM320 495l-162 -304h193z" />
    <glyph glyph-name="B.SC" horiz-adv-x="500" 
d="M23 0l128 604h229q71 0 100 -29t16 -86l-18 -86q-15 -72 -79 -87q94 -3 72 -101l-21 -100q-24 -115 -158 -115h-269zM159 280l-44 -208h173q75 0 90 66l14 68q16 74 -72 74h-161zM212 531l-38 -179h144q73 0 86 64l10 48q7 35 -10 51t-61 16h-131z" />
    <glyph glyph-name="C.SC" horiz-adv-x="507" 
d="M176 72h129q35 0 53 16t26 50l10 47h77l-15 -70q-12 -59 -47.5 -87t-101.5 -28h-163q-66 0 -89 28t-11 87l79 374q13 58 48.5 86.5t100.5 28.5h163q66 0 89.5 -28.5t10.5 -86.5l-14 -67h-77l10 44q7 34 -5 49.5t-47 15.5h-129q-65 0 -78 -65l-70 -328q-15 -66 51 -66z
" />
    <glyph glyph-name="D.SC" horiz-adv-x="535" 
d="M23 0l128 604h269q81 0 109 -34t13 -107l-69 -323q-15 -72 -57.5 -106t-123.5 -34h-269zM290 72q93 0 112 91l59 277q10 47 -8 69t-66 22h-175l-97 -459h175z" />
    <glyph glyph-name="E.SC" horiz-adv-x="447" 
d="M212 531l-51 -243h235l-27 -72h-224l-30 -144h285l-26 -72h-351l128 604h360l-26 -73h-273z" />
    <glyph glyph-name="F.SC" horiz-adv-x="433" 
d="M212 531l-51 -243h223l-27 -72h-212l-45 -216h-77l128 604h356l-27 -73h-268z" />
    <glyph glyph-name="G.SC" horiz-adv-x="519" 
d="M273 235l27 72h199l-41 -192q-12 -58 -47 -86.5t-100 -28.5h-169q-123 0 -100 111l80 378q26 115 141 115h180q121 0 97 -111l-14 -67h-76l9 41q7 34 -5.5 49t-45.5 15h-138q-62 0 -76 -68l-70 -327q-13 -64 52 -64h130q66 0 80 62l21 101h-134z" />
    <glyph glyph-name="H.SC" horiz-adv-x="530" 
d="M100 0h-77l128 604h77l-66 -309h258l66 309h77l-128 -604h-77l46 221h-258z" />
    <glyph glyph-name="I.SC" horiz-adv-x="195" 
d="M100 0h-77l128 604h77z" />
    <glyph glyph-name="J.SC" horiz-adv-x="318" 
d="M99 72q64 0 77 64l100 468h76l-105 -493q-23 -111 -145 -111h-121l26 72h92z" />
    <glyph glyph-name="K.SC" horiz-adv-x="466" 
d="M100 0h-77l128 604h77l-60 -284l299 284h85l-316 -302l195 -302h-87l-184 284z" />
    <glyph glyph-name="L.SC" horiz-adv-x="414" 
d="M228 604l-113 -532h267l-25 -72h-334l128 604h77z" />
    <glyph glyph-name="M.SC" horiz-adv-x="604" 
d="M100 0h-77l128 604h83l95 -305l225 305h83l-128 -604h-77l98 465l-181 -248h-74l-77 248z" />
    <glyph glyph-name="N.SC" horiz-adv-x="543" 
d="M100 0h-77l128 604h77l-1 -3l157 -406q7 -20 14 -68l102 477h76l-128 -604h-76l-151 391q-13 34 -22 79z" />
    <glyph glyph-name="O.SC" horiz-adv-x="542" 
d="M44 115l79 374q13 58 48.5 86.5t100.5 28.5h181q67 0 90 -28.5t10 -86.5l-79 -374q-12 -59 -47 -87t-102 -28h-181q-66 0 -89 28t-11 87zM273 531q-65 0 -78 -65l-70 -328q-15 -66 51 -66h148q35 0 52.5 15.5t25.5 50.5l70 328q7 34 -4.5 49.5t-46.5 15.5h-148z" />
    <glyph glyph-name="P.SC" horiz-adv-x="485" 
d="M148 228l-48 -228h-77l128 604h270q120 0 96 -111l-33 -155q-22 -110 -143 -110h-193zM212 531l-49 -231h172q66 0 79 64l22 103q13 64 -52 64h-172z" />
    <glyph glyph-name="Q.SC" horiz-adv-x="542" 
d="M44 115l79 374q13 58 48.5 86.5t100.5 28.5h181q67 0 90 -28.5t10 -86.5l-79 -374q-12 -59 -47 -87t-102 -28h-54l-20 -94h-72l20 94h-55q-66 0 -89 28t-11 87zM176 72h38l16 78h72l-16 -78h38q35 0 52.5 15.5t25.5 50.5l70 328q7 34 -4.5 49.5t-46.5 15.5h-148
q-65 0 -78 -65l-70 -328q-15 -66 51 -66z" />
    <glyph glyph-name="R.SC" horiz-adv-x="496" 
d="M23 0l128 604h266q120 0 96 -111l-33 -158q-24 -112 -144 -112h-3l115 -223h-88l-114 223h-99l-47 -223h-77zM212 531l-50 -235h168q64 0 78 64l23 107q7 34 -5.5 49t-45.5 15h-168z" />
    <glyph glyph-name="S.SC" horiz-adv-x="480" 
d="M327 236l-149 67q-54 26 -69.5 49.5t-5.5 73.5l15 70q22 108 140 108h142q62 0 86.5 -26.5t12.5 -81.5l-15 -70h-76l10 46q13 59 -50 59h-104q-35 0 -52 -13.5t-24 -47.5l-6 -30q-5 -24 2 -35.5t32 -23.5l152 -69q53 -25 69.5 -47t7.5 -65l-20 -94q-23 -106 -138 -106
h-163q-121 0 -98 106l17 79h76l-12 -55q-12 -58 49 -58h125q60 0 72 58l10 46q5 24 -2.5 36t-33.5 24z" />
    <glyph glyph-name="T.SC" horiz-adv-x="423" 
d="M484 531h-158l-112 -531h-77l112 531h-158l16 73h393z" />
    <glyph glyph-name="U.SC" horiz-adv-x="521" 
d="M299 72q67 0 83 72l98 460h76l-103 -485q-26 -119 -151 -119h-155q-127 0 -101 119l103 485h77l-98 -460q-16 -72 53 -72h118z" />
    <glyph glyph-name="V.SC" horiz-adv-x="484" 
d="M247 0h-81l-51 604h81l33 -467q0 -15 -2 -35q5 18 14 35l231 467h81z" />
    <glyph glyph-name="W.SC" horiz-adv-x="765" 
d="M240 0h-81l-44 604h79l23 -456q2 -41 1 -53q11 32 20 53l199 455l75 1l6 -456q0 -38 -2 -50q7 21 21 49l218 457h79l-300 -604h-81l-10 434q0 3 7 56q-13 -47 -17 -56z" />
    <glyph glyph-name="X.SC" horiz-adv-x="441" 
d="M254 332l188 272h79l-211 -303l82 -301h-81l-72 260l-182 -260h-79l207 301l-83 303h79z" />
    <glyph glyph-name="Y.SC" horiz-adv-x="486" 
d="M246 0h-77l50 239l-114 365h79l80 -251q8 -28 7 -48q13 27 28 47l185 252h79l-266 -363z" />
    <glyph glyph-name="Z.SC" horiz-adv-x="432" 
d="M480 536l-383 -464h296l-25 -72h-371l4 67l383 464h-275l6 73h370z" />
    <glyph glyph-name="a.ital" horiz-adv-x="476" 
d="M490 505l-49 -232h1l-58 -273h-62l6 57q-39 -57 -119 -57h-64q-128 0 -102 127l53 248q15 68 52.5 102t107.5 34h66q69 0 87 -46l9 40h72zM353 201l39 182q3 63 -62 63h-71q-76 0 -93 -80l-46 -220q-18 -81 56 -81h73q33 0 58 19.5t34 55.5l13 61h-1z" />
    </font>
</defs>
</svg>
