<?xml version="1.0" standalone="no"?>
<!DOCTYPE svg PUBLIC "-//W3C//DTD SVG 1.1//EN" "http://www.w3.org/Graphics/SVG/1.1/DTD/svg11.dtd" >
<svg xmlns="http://www.w3.org/2000/svg" xmlns:xlink="http://www.w3.org/1999/xlink" version="1.1">
<metadata>
Created by FontForge 20170731 at Mon Jun  9 21:06:01 2014
 By Aleksey,,,
2013 Iconian Fonts - www.iconian.com
</metadata>
<defs>
<font id="SingaporeSlingItalic" horiz-adv-x="785" >
  <font-face 
    font-family="Singapore Sling Italic"
    font-weight="400"
    font-style="italic"
    font-stretch="normal"
    units-per-em="1000"
    panose-1="0 0 0 0 0 0 0 0 0 0"
    ascent="800"
    descent="-200"
    x-height="609"
    cap-height="609"
    bbox="-57 -170 1256 771"
    underline-thickness="50"
    underline-position="-175"
    unicode-range="U+0020-2122"
  />
<missing-glyph horiz-adv-x="500" 
 />
    <glyph glyph-name=".notdef" horiz-adv-x="500" 
 />
    <glyph glyph-name=".null" horiz-adv-x="0" 
 />
    <glyph glyph-name="nonmarkingreturn" horiz-adv-x="500" 
 />
    <glyph glyph-name="space" unicode=" " horiz-adv-x="470" 
 />
    <glyph glyph-name="space" unicode="&#xa0;" horiz-adv-x="470" 
 />
    <glyph glyph-name="FL0021h" unicode="!" horiz-adv-x="246" 
d="M82 107h136l-27 -107h-136zM204 609h136l-101 -419h-136z" />
    <glyph glyph-name="FL0022h" unicode="&#x22;" horiz-adv-x="422" 
d="M385 609l-55 -224l160 89l31 135h-136zM199 609l-55 -224l160 89l31 135h-136z" />
    <glyph glyph-name="FL0023h" unicode="#" horiz-adv-x="722" 
d="M785 462h-105l36 147h-136l-36 -147h-139l36 147h-136l-36 -147h-106l-28 -116h106l-16 -66h-106l-28 -116h106l-41 -164h136l41 164h139l-41 -164h136l41 164h105l28 116h-105l16 66h105zM516 346l-16 -66h-139l16 66h139z" />
    <glyph glyph-name="FL0024h" unicode="$" horiz-adv-x="655" 
d="M79 107l-27 -107h207l-26 -102h130l26 102h72q34 0 66 17t58 43t44 58t25 61q9 36 4.5 68.5t-21.5 57t-45.5 39.5t-67.5 15h-46l36 143h214l24 107h-214l26 102h-130l-26 -102h-31q-39 0 -76 -14t-67 -38t-52 -57.5t-32 -72.5q-8 -34 -4 -65.5t19.5 -56t43 -39
t66.5 -14.5h46l-35 -145h-207zM451 252h33q29 0 40.5 -23.5t4.5 -51.5q-3 -12 -11 -24t-19.5 -22.5t-24.5 -17t-25 -6.5h-33zM384 502l-36 -143h-39q-8 0 -15.5 6.5t-13 16.5t-7.5 22t1 23q3 12 10 25t17 24.5t21.5 18.5t23.5 7h38z" />
    <glyph glyph-name="FL0025h" unicode="%" horiz-adv-x="653" 
d="M313 103q-9 -35 -3.5 -65t22.5 -52t44 -34.5t62 -12.5t68 12.5t61 34.5t48 52t29 65t4 65.5t-22 53t-44.5 35.5t-62.5 13q-51 0 -100 -28l357 367h-160l-141 -145q5 10 8.5 19.5t7.5 20.5q8 35 2.5 65.5t-22.5 53t-44 35.5t-62 13t-68 -13t-61 -36t-48 -53.5t-28 -64.5
q-9 -35 -3.5 -65t22.5 -52t44 -34.5t62 -12.5q25 0 48 6.5t46 17.5l-355 -364h161l144 149q-5 -11 -9.5 -22.5t-6.5 -23.5zM273 503q5 21 23 37t40 16q23 0 34.5 -16t6.5 -37q-6 -23 -24.5 -37t-40.5 -14q-21 0 -32.5 15t-6.5 36zM426 102q5 21 23 37t40 16q23 0 34.5 -16
t6.5 -37q-5 -23 -24 -37t-41 -14q-21 0 -32.5 15t-6.5 36z" />
    <glyph glyph-name="FL0026h" unicode="&#x26;" horiz-adv-x="734" 
d="M312 379q-28 2 -39.5 20.5t-5.5 42.5q5 21 24.5 35.5t47.5 14.5h271l28 117h-271q-41 0 -77.5 -12.5t-66 -34.5t-50 -53t-29.5 -67q-8 -35 -3 -68.5t24 -58.5q-33 -32 -53.5 -59t-28.5 -62q-9 -36 -6 -71t19 -62.5t46 -44t76 -16.5h247q45 0 83.5 16.5t68 44t50 62.5
t29.5 71q5 22 4 39.5t-8 35.5h57l28 110h-465zM287 269h239q29 -3 40.5 -26t5.5 -48q-3 -11 -10 -24.5t-17.5 -25.5t-23.5 -20t-27 -8h-247q-14 0 -23 8t-14 20t-5.5 25.5t2.5 24.5q6 25 28.5 47.5t51.5 26.5z" />
    <glyph glyph-name="FL0027h" unicode="'" horiz-adv-x="236" 
d="M199 609l-55 -224l160 89l31 135h-136z" />
    <glyph glyph-name="FL0028h" unicode="(" horiz-adv-x="362" 
d="M111 304q16 64 47.5 119.5t76.5 96.5t102 65t124 24l-24 -107q-24 0 -55.5 -17t-62 -44.5t-54.5 -63t-33 -72.5q-10 -37 -5.5 -72.5t19.5 -63.5t39 -45t53 -17l-27 -107q-67 0 -111.5 27.5t-68.5 71.5t-28.5 98t8.5 107z" />
    <glyph glyph-name="FL0029h" unicode=")" horiz-adv-x="362" 
d="M403 304q16 64 11 119.5t-30.5 96.5t-72 65t-112.5 24l-24 -107q23 0 46 -17t39.5 -44.5t23.5 -63t-2 -72.5q-10 -37 -32 -72.5t-50.5 -63.5t-60.5 -45t-61 -17l-27 -107q67 0 125.5 27.5t104.5 71.5t77.5 98t44.5 107z" />
    <glyph glyph-name="asterisk" unicode="*" horiz-adv-x="320" 
d="M428 541l-5 83l-88 -38l32 86h-87l-8 -85l-65 37l-49 -83l78 -14l-75 -61l58 -53l60 76l20 -76l84 53l-41 60z" />
    <glyph glyph-name="FL002Bh" unicode="+" horiz-adv-x="411" 
d="M381 476h-116l-25 -97h-97l-29 -116h97l-23 -98h116l23 98h98l29 116h-98z" />
    <glyph glyph-name="FL002Ch" unicode="," horiz-adv-x="236" 
d="M77 107l-56 -224l158 89l34 135h-136z" />
    <glyph glyph-name="FL002Dh" unicode="-" horiz-adv-x="396" 
d="M143 379h296l-29 -116h-296z" />
    <glyph glyph-name="FL002Eh" unicode="." horiz-adv-x="236" 
d="M77 107h136l-27 -107h-136z" />
    <glyph glyph-name="FL002Fh" unicode="/" horiz-adv-x="653" 
d="M776 609h-160l-592 -609h161z" />
    <glyph glyph-name="FL0030h" unicode="0" horiz-adv-x="732" 
d="M110 301q-18 -70 -7 -130t45 -104t88 -69t123 -25q70 0 136.5 25t122 69t96 104t58.5 130q17 70 6.5 131t-44 106t-88 71t-124.5 26q-69 0 -135.5 -26.5t-122.5 -71.5t-96.5 -106t-57.5 -130zM233 301q10 42 35.5 80t60.5 67.5t77 46.5t86 17q38 0 64 -12l-313 -321
q-28 52 -10 122zM650 301q-12 -45 -38.5 -82.5t-61.5 -64.5t-77.5 -42.5t-85.5 -15.5q-33 0 -55 9l308 319q26 -55 10 -123z" />
    <glyph glyph-name="FL0031h" unicode="1" horiz-adv-x="311" 
d="M146 492l117 117h147l-149 -609h-137l121 492h-99z" />
    <glyph glyph-name="FL0032h" unicode="2" horiz-adv-x="661" 
d="M635 107h-422l16 70q3 14 11 27.5t19 24t24.5 17t28.5 6.5h197q39 0 73.5 14.5t62.5 39t47.5 56t27.5 65.5q10 39 4.5 72.5t-24.5 57.5t-49.5 38t-69.5 14h-375l-24 -107h382q12 0 19.5 -8t11 -19.5t4 -24.5t-2.5 -23q-2 -8 -9.5 -19.5t-18 -22.5t-21 -18.5t-18.5 -7.5
h-215q-39 0 -75 -15t-65 -39.5t-50 -57t-30 -68.5l-44 -179h558z" />
    <glyph glyph-name="FL0033h" unicode="3" horiz-adv-x="654" 
d="M231 269h266q29 -3 40.5 -26t5.5 -48q-3 -11 -10 -24.5t-17.5 -25.5t-23.5 -20t-27 -8h-386l-29 -117h386q45 0 83.5 16.5t68 44t50 62.5t29.5 71q8 35 0.5 62t-22.5 59q29 25 51 58.5t30 68.5q9 36 3.5 67t-24 53t-49 34.5t-71.5 12.5h-386l-28 -117h386
q28 0 39.5 -14.5t6.5 -35.5q-6 -24 -26.5 -42.5t-48.5 -20.5h-341z" />
    <glyph glyph-name="FL0034h" unicode="4" horiz-adv-x="677" 
d="M640 609l-57 -234h-305l57 234h-136l-84 -342h441l-65 -267h136l149 609h-136z" />
    <glyph glyph-name="FL0035h" unicode="5" horiz-adv-x="660" 
d="M77 107h377q12 0 25 6.5t24.5 17t19.5 22.5t11 24q7 28 -4.5 51.5t-40.5 23.5h-377l87 357h558l-24 -107h-434l-36 -143h266q39 0 67.5 -15t45.5 -39.5t21.5 -57t-4.5 -68.5q-7 -29 -25 -61t-44 -58t-58 -43t-66 -17h-416z" />
    <glyph glyph-name="FL0036h" unicode="6" horiz-adv-x="701" 
d="M111 304q-13 -53 -8.5 -107t28.5 -98t68 -71.5t110 -27.5h342l92 375h-478q17 25 39.5 48t46.5 40.5t47 28t42 10.5h336l24 107h-297q-69 0 -133 -24t-116.5 -65t-89.5 -96.5t-53 -119.5zM584 267l-38 -160h-198q-26 0 -48 13.5t-38.5 35.5t-26 51t-9.5 60h358z" />
    <glyph glyph-name="FL0037h" unicode="7" horiz-adv-x="620" 
d="M220 0l476 509l23 100h-520l-24 -107h344l-469 -502h170z" />
    <glyph glyph-name="FL0038h" unicode="8" horiz-adv-x="690" 
d="M144 442q-8 -35 -3 -68.5t24 -58.5q-33 -32 -53.5 -59t-28.5 -62q-9 -36 -6 -71t19.5 -62.5t47 -44t75.5 -16.5h254q45 0 83 16.5t68 44t50 62.5t29 71q8 35 0.5 62t-22.5 59q29 25 51 58.5t30 68.5q9 36 3.5 67t-23.5 53t-48.5 34.5t-71.5 12.5h-254q-41 0 -77.5 -12.5
t-66 -34.5t-50.5 -53t-30 -67zM533 269q29 -3 40.5 -26t5.5 -48q-3 -11 -10 -24.5t-17.5 -25.5t-23.5 -20t-27 -8h-254q-14 0 -23 8t-14 20t-5.5 25.5t2.5 24.5q6 25 28.5 47.5t51.5 26.5h246zM312 379q-28 2 -39.5 20.5t-5.5 42.5q5 21 24.5 35.5t47.5 14.5h254
q28 0 39.5 -14.5t6.5 -35.5q-6 -24 -26.5 -42.5t-48.5 -20.5h-252z" />
    <glyph glyph-name="FL0039h" unicode="9" horiz-adv-x="701" 
d="M742 305q13 53 8 107t-29.5 98t-69 71.5t-110.5 27.5h-342l-92 -375h478q-17 -25 -39 -48t-45 -40.5t-46 -28t-42 -10.5h-336l-27 -107h297q69 0 133.5 23.5t117 65t90.5 97t54 119.5zM266 342l41 160h198q25 0 46.5 -13.5t37.5 -35.5t25.5 -51t9.5 -60h-358z" />
    <glyph glyph-name="FL003Ah" unicode=":" horiz-adv-x="236" 
d="M77 107h136l-27 -107h-136zM143 379h136l-27 -107h-136z" />
    <glyph glyph-name="FL003Bh" unicode=";" horiz-adv-x="236" 
d="M116 272h136l27 107h-136zM77 107l-56 -224l158 89l34 135h-136z" />
    <glyph glyph-name="FL003Ch" unicode="&#x3c;" horiz-adv-x="432" 
d="M555 609h-160l-294 -304l145 -305h161l-146 305z" />
    <glyph glyph-name="FL003Dh" unicode="=" horiz-adv-x="446" 
d="M163 462l-28 -116h346l28 116h-346zM122 297l-28 -116h346l28 116h-346z" />
    <glyph glyph-name="FL003Eh" unicode="&#x3e;" horiz-adv-x="432" 
d="M175 609h160l148 -304l-297 -305h-161l298 305z" />
    <glyph glyph-name="FL003Fh" unicode="?" horiz-adv-x="643" 
d="M151 179q9 36 25.5 68.5t43 57t63.5 39.5t88 15h151q8 0 18.5 7.5t21 18.5t18 22.5t9.5 19.5q3 10 2.5 23t-4 24.5t-11 19.5t-19.5 8h-382l24 107h375q39 0 69.5 -14t49.5 -38t24.5 -57.5t-4.5 -72.5q-8 -34 -27.5 -65.5t-47.5 -56t-62.5 -39t-73.5 -14.5h-132
q-24 0 -39.5 -11.5t-25.5 -25.5t-14 -25.5t-5 -11.5zM134 107h136l-27 -107h-136z" />
    <glyph glyph-name="at" unicode="@" horiz-adv-x="733" 
d="M678 189q37 38 61 77.5t38 91.5q14 60 4 110.5t-40 87t-77.5 57.5t-107.5 21h-33q-89 0 -158.5 -27.5t-120.5 -73t-84.5 -105.5t-49.5 -125l-4 -16q-16 -65 -10.5 -122t35 -100t85 -67.5t138.5 -24.5h18q45 0 88 7.5t89 26.5q36 14 82 44t98 70l12 12h-130q16 11 32.5 25
t34.5 31zM393 70q-61 0 -101.5 15.5t-63 45t-28 71.5t4.5 95q16 63 45 106t71 75q40 32 88.5 49t108.5 17q32 0 61 -9t49 -23h-83l-5 -13q-8 13 -18 19t-33 6q-51 0 -88.5 -23t-78.5 -72q-59 -67 -86 -160q0 -27 5 -56.5t17.5 -53.5t33 -39.5t51.5 -15.5q17 0 22.5 1.5
t10.5 4.5l1 1h2l-1 -2l22 12q4 1 8 4q7 1 13 6q7 -15 20 -25.5t39 -10.5q39 0 72 10q-90 -35 -159 -35zM394 202l-1 -1q-5 -8 -11 -8q-8 0 -14.5 5.5t-10.5 13.5q-7 25 -1 37q6 26 18 53.5t29 56.5q20 33 37 48t38 15q4 0 4 -1l-3 -8q13 -13 5 -37q-10 -47 -42 -106z
M672 358q-7 -23 -17 -46.5t-24 -43.5q-37 -38 -58.5 -52t-35.5 -16l122 286q15 -23 18 -56t-5 -72z" />
    <glyph glyph-name="FL0041h" unicode="A" 
d="M511 479l47 -201h-194l143 201h4zM25 0h146l184 263l47 -94h172l40 -169h146l-151 609h-137z" />
    <glyph glyph-name="FL0042h" unicode="B" horiz-adv-x="655" 
d="M199 609l-149 -609h387q45 0 83.5 16.5t68 44t50 62.5t29.5 71q8 35 -1 69t-27 55q29 21 54 55t33 69q9 36 3.5 67t-24 53t-49 34.5t-71.5 12.5h-387zM276 362l47 -93h175q29 -3 40.5 -26t5.5 -48q-3 -11 -10 -24.5t-17.5 -25.5t-23.5 -20t-27 -8h-251zM307 492h251
q28 0 39.5 -14.5t6.5 -35.5q-6 -24 -26.5 -42.5t-48.5 -20.5h-250z" />
    <glyph glyph-name="FL0043h" unicode="C" horiz-adv-x="662" 
d="M111 304q14 59 46.5 114t79 97.5t104 68t120.5 25.5h300l-24 -107h-297q-26 0 -58 -17t-62.5 -44.5t-54.5 -63t-33 -72.5q-10 -37 -4 -72.5t23 -63.5t42.5 -45t54.5 -17h291l-27 -107h-303q-66 0 -110 27.5t-68 71.5t-28.5 98t8.5 107z" />
    <glyph glyph-name="FL0044h" unicode="D" horiz-adv-x="701" 
d="M512 502q20 0 43 -17.5t40.5 -45.5t26 -63t-0.5 -71q-10 -37 -34 -72.5t-54.5 -63.5t-63.5 -45t-62 -17h-198l71 288h-132l-98 -395h343q66 0 123.5 27.5t103.5 71.5t77.5 98t44.5 107q16 64 8.5 119.5t-36.5 96.5t-78.5 65t-118.5 24h-318l-24 -107h337z" />
    <glyph glyph-name="FL0045h" unicode="E" horiz-adv-x="592" 
d="M199 609l-24 -107h492l24 107h-492zM50 0h492l27 107h-492zM115 267h492l27 108h-492z" />
    <glyph glyph-name="FL0046h" unicode="F" horiz-adv-x="592" 
d="M50 0h136l65 268h311l27 106h-447zM199 609l-24 -107h492l24 107h-492z" />
    <glyph glyph-name="FL0047h" unicode="G" horiz-adv-x="701" 
d="M111 304q16 64 47.5 119.5t78 96.5t108 65t136.5 24h319l-24 -107h-336q-26 0 -58 -17.5t-62.5 -45.5t-54.5 -63t-33 -71q-10 -37 -4 -72.5t23 -63.5t42.5 -45t54.5 -17h198l71 288h132l-98 -395h-342q-66 0 -110 27.5t-68 71.5t-28.5 98t8.5 107z" />
    <glyph glyph-name="FL0068h" unicode="H" horiz-adv-x="620" 
d="M583 609l-57 -234h-248l57 234h-136l-149 -609h136l65 267h248l-65 -267h136l149 609h-136z" />
    <glyph glyph-name="FL0049h" unicode="I" horiz-adv-x="581" 
d="M531 0l27 107h-172l98 395h172l24 107h-481l-24 -107h173l-98 -395h-173l-27 -107h481z" />
    <glyph glyph-name="FL004Ah" unicode="J" horiz-adv-x="544" 
d="M54 117l60 -117h212q45 0 80 13.5t61.5 37t43.5 54t25 63.5l107 441h-260l-24 -107h123l-77 -309q-3 -12 -10.5 -25.5t-19 -25t-26 -18.5t-32.5 -7h-263z" />
    <glyph glyph-name="FL004Bh" unicode="K" horiz-adv-x="619" 
d="M335 609h-136l-149 -609h136l71 289l176 -289h161l-178 307l327 302h-161l-318 -289z" />
    <glyph glyph-name="FL004Ch" unicode="L" horiz-adv-x="522" 
d="M199 609h136l-122 -502h311l-117 -107h-357z" />
    <glyph glyph-name="FL004Dh" unicode="M" horiz-adv-x="1069" 
d="M198 609l-149 -609h136l121 492h211q34 0 46.5 -20.5t4.5 -55.5l-103 -416h136l121 492h211q15 0 26 -7t17.5 -18.5t8.5 -25t-1 -25.5l-103 -416h137l108 441q9 33 7 63.5t-17 54t-43.5 37t-73.5 13.5h-175l-97 -99q-5 45 -41.5 72t-102.5 27h-175l-96 -91l22 91h-136z
" />
    <glyph glyph-name="FL004Eh" unicode="N" horiz-adv-x="677" 
d="M199 609h136l-22 -91l96 91h199q45 0 73.5 -13.5t43.5 -37t17 -54t-7 -63.5l-108 -441h-137l103 416q8 38 0 57t-51 19h-235l-121 -492h-136z" />
    <glyph glyph-name="FL004Fh" unicode="O" horiz-adv-x="732" 
d="M110 301q17 69 57.5 130t96.5 106t122.5 71.5t135.5 26.5q70 0 124.5 -26t88 -71t44 -106t-6.5 -131q-18 -70 -58.5 -130t-96 -104t-122 -69t-136.5 -25q-69 0 -123 25t-88 69t-45 104t7 130zM233 301q-11 -42 -4 -79.5t28 -65t54.5 -44t75.5 -16.5q43 0 85.5 15.5
t77.5 42.5t61.5 64.5t38.5 82.5q10 42 3 80.5t-28 67.5t-55 46t-78 17t-86 -17t-77 -46.5t-60.5 -67.5t-35.5 -80z" />
    <glyph glyph-name="FL0050h" unicode="P" horiz-adv-x="630" 
d="M199 609h363q48 0 77.5 -19t44.5 -49.5t16.5 -68t-7.5 -73.5q-8 -33 -28 -68.5t-48.5 -65.5t-63.5 -49.5t-72 -19.5h-174l-50 91l-71 -287h-136zM307 492l-45 -188h220q15 0 29.5 10t26.5 24.5t20.5 31t11.5 29.5q3 10 3 26q0 12 -2.5 23.5t-7.5 21.5t-12 16t-17 6h-227z
" />
    <glyph glyph-name="FL0071h" unicode="Q" horiz-adv-x="732" 
d="M392 -170l-114 89l14 60q-55 11 -96 40t-65 71.5t-30 96t9 114.5q17 70 57 131t95 106t122 71t138 26q69 0 123 -26.5t87.5 -71.5t45 -106t-5.5 -130q-15 -62 -48.5 -115.5t-79.5 -95.5t-101.5 -70.5t-114.5 -39.5zM485 210l-24 -103q33 11 63.5 29.5t55 43.5t42.5 55.5
t27 65.5q10 42 3 80t-28 67.5t-55 46.5t-77 17q-45 0 -87.5 -17t-77.5 -46t-60 -67.5t-35 -80.5q-18 -70 9 -122t84 -72l48 194z" />
    <glyph glyph-name="FL0061h" unicode="R" horiz-adv-x="633" 
d="M199 609h363q46 0 76.5 -16.5t46 -44t18 -62.5t-6.5 -72q-17 -72 -57 -122t-106 -67l118 -225h-163l-183 314h172q15 0 31 10t29 24.5t22.5 31t12.5 29.5q3 10 2 24.5t-5.5 27.5t-13 22t-21.5 9h-363z" />
    <glyph glyph-name="FL0053h" unicode="S" horiz-adv-x="655" 
d="M79 107h370q12 0 25 6.5t24.5 17t19.5 22.5t11 24q7 28 -4.5 51.5t-40.5 23.5h-209q-39 0 -66.5 14.5t-43 39t-19.5 56t4 65.5q10 39 32 72.5t52 57.5t67 38t76 14h375l-24 -107h-382q-12 0 -23.5 -7t-21.5 -18.5t-17 -24.5t-10 -25q-3 -11 -1 -23t7.5 -22t13 -16.5
t15.5 -6.5h215q39 0 67.5 -15t45.5 -39.5t21.5 -57t-4.5 -68.5q-7 -29 -25 -61t-44 -58t-58 -43t-66 -17h-409z" />
    <glyph glyph-name="FL0054h" unicode="T" horiz-adv-x="620" 
d="M199 609l-24 -107h192l-125 -502h136l125 502h192l24 107h-520z" />
    <glyph glyph-name="FL0055h" unicode="U" horiz-adv-x="677" 
d="M627 0h-136l22 91l-96 -91h-199q-45 0 -73 13.5t-42.5 37t-16.5 54t6 63.5l107 441h137l-101 -416q-11 -39 -2 -57.5t52 -18.5h235l120 492h136z" />
    <glyph glyph-name="FL0056h" unicode="V" 
d="M436 156h-8l-108 453h-146l152 -609h136l447 609h-146z" />
    <glyph glyph-name="FL0057h" unicode="W" horiz-adv-x="1069" 
d="M1019 0l149 609h-136l-120 -492h-211q-34 0 -46.5 20.5t-3.5 55.5l101 416h-136l-120 -492h-211q-15 0 -26 7t-17 18.5t-8 25t1 25.5l101 416h-137l-107 -441q-8 -33 -6 -63.5t16.5 -54t42.5 -37t73 -13.5h175l97 99q5 -45 41.5 -72t102.5 -27h175l96 91l-22 -91h136z
" />
    <glyph glyph-name="FL0058h" unicode="X" horiz-adv-x="654" 
d="M777 609h-160l-189 -194l-93 194h-160l148 -304l-298 -305h161l189 194l93 -194h161l-146 305z" />
    <glyph glyph-name="FL0059h" unicode="Y" horiz-adv-x="667" 
d="M628 609l-60 -250h-241q-16 0 -30 19t-8 49l44 182h-134l-44 -182q-8 -34 -4 -65.5t19.5 -56t43 -39t66.5 -14.5h262l-19 -76q-3 -12 -9.5 -24t-15.5 -22t-20.5 -16.5t-23.5 -6.5h-370l-27 -107h409q34 0 66.5 17.5t59 44.5t45 58.5t24.5 59.5l105 429h-138z" />
    <glyph glyph-name="FL005Ah" unicode="Z" horiz-adv-x="620" 
d="M570 0l27 107h-344l442 395l24 107h-520l-24 -107h344l-442 -395l-27 -107h520z" />
    <glyph glyph-name="FL005Bh" unicode="[" horiz-adv-x="360" 
d="M310 0l27 107h-124l98 395h124l24 107h-260l-149 -609h260z" />
    <glyph glyph-name="FL005Ch" unicode="\" horiz-adv-x="653" 
d="M174 609h160l294 -609h-161z" />
    <glyph glyph-name="FL005Dh" unicode="]" horiz-adv-x="360" 
d="M50 0l27 107h124l98 395h-124l24 107h260l-149 -609h-260z" />
    <glyph glyph-name="FL005Eh" unicode="^" 
d="M499 453h8l106 -453h146l-152 609h-136l-447 -609h146z" />
    <glyph glyph-name="FL005Fh" unicode="_" horiz-adv-x="446" 
d="M78 116l-28 -116h346l28 116h-346z" />
    <glyph glyph-name="FL0060h" unicode="`" horiz-adv-x="217" 
d="M319 515l-20 94h-125l48 -94h97z" />
    <glyph glyph-name="a" unicode="a" 
d="M472 609h137l151 -609h-146l-39 168h-284l-120 -168h-146zM506 479l-145 -203h201l-51 203h-5z" />
    <glyph glyph-name="FL0062h" unicode="b" horiz-adv-x="655" 
d="M199 609l-149 -609h387q45 0 83.5 16.5t68 44t50 62.5t29.5 71q8 35 -2 65t-28 59q29 20 55 54.5t34 69.5q9 36 3.5 67t-24 53t-49 34.5t-71.5 12.5h-387zM276 362l47 -93h175q29 -3 40.5 -26t5.5 -48q-3 -11 -10 -24.5t-17.5 -25.5t-23.5 -20t-27 -8h-251zM307 492h251
q28 0 39.5 -14.5t6.5 -35.5q-6 -24 -26.5 -42.5t-48.5 -20.5h-250z" />
    <glyph glyph-name="FL0063h" unicode="c" horiz-adv-x="662" 
d="M111 304q14 59 46.5 114t79 97.5t104 68t120.5 25.5h300l-24 -107h-297q-26 0 -58 -17t-62.5 -44.5t-54.5 -63t-33 -72.5q-10 -37 -4 -72.5t23 -63.5t42.5 -45t54.5 -17h291l-27 -107h-303q-66 0 -110 27.5t-68 71.5t-28.5 98t8.5 107z" />
    <glyph glyph-name="FL0064h" unicode="d" horiz-adv-x="701" 
d="M742 304q16 64 11.5 119.5t-31 96.5t-77.5 65t-128 24h-318l-149 -609h343q66 0 123.5 27.5t103.5 71.5t77.5 98t44.5 107zM512 502q21 0 44 -15.5t40.5 -42t25.5 -62.5t-1 -77q-10 -37 -34 -72.5t-54.5 -63.5t-63.5 -45t-62 -17h-198l98 395h205z" />
    <glyph glyph-name="E" unicode="e" horiz-adv-x="592" 
d="M199 609h492l-24 -107h-356l-33 -127h311l-27 -108h-311l-38 -160h356l-27 -107h-492z" />
    <glyph glyph-name="FL0066h" unicode="f" horiz-adv-x="592" 
d="M199 609h492l-24 -107h-356l-33 -128h311l-27 -106h-311l-65 -268h-136z" />
    <glyph glyph-name="g" unicode="g" horiz-adv-x="701" 
d="M111 304q16 64 49 119.5t82.5 96.5t115 65t145.5 24h297l-24 -107h-336q-22 0 -54 -17.5t-63 -45.5t-56.5 -63t-34.5 -71q-10 -37 -4 -72.5t23 -63.5t42.5 -45t54.5 -17h198l71 288h132l-98 -395h-342q-66 0 -110 27.5t-68 71.5t-28.5 98t8.5 107z" />
    <glyph glyph-name="FL0048h" unicode="h" horiz-adv-x="677" 
d="M640 609l-57 -234h-305l57 234h-136l-149 -609h136l65 267h305l-65 -267h136l149 609h-136z" />
    <glyph glyph-name="i" unicode="i" horiz-adv-x="246" 
d="M204 609h136l-149 -609h-136z" />
    <glyph glyph-name="FL006Ah" unicode="j" horiz-adv-x="544" 
d="M54 117l60 -117h212q45 0 80 13.5t61.5 37t43.5 54t25 63.5l107 441h-137l-101 -416q-3 -12 -10.5 -25.5t-19 -25t-26 -18.5t-32.5 -7h-263z" />
    <glyph glyph-name="FL006Bh" unicode="k" horiz-adv-x="619" 
d="M335 609h-136l-149 -609h136l71 289l176 -289h161l-178 307l327 302h-161l-318 -289z" />
    <glyph glyph-name="l" unicode="l" horiz-adv-x="547" 
d="M199 609h136l-122 -502h311l-27 -107h-447z" />
    <glyph glyph-name="FL006Dh" unicode="m" horiz-adv-x="1069" 
d="M198 609l-149 -609h136l121 492h211q34 0 46.5 -20.5t4.5 -55.5l-103 -416h136l121 492h211q15 0 26 -7t17.5 -18.5t8.5 -25t-1 -25.5l-103 -416h137l108 441q9 33 7 63.5t-17 54t-43.5 37t-73.5 13.5h-175l-97 -99q-5 45 -41.5 72t-102.5 27h-175l-96 -91l22 91h-136z
" />
    <glyph glyph-name="FL006Eh" unicode="n" horiz-adv-x="677" 
d="M199 609h136l-22 -91l96 91h199q45 0 73.5 -13.5t43.5 -37t17 -54t-7 -63.5l-108 -441h-137l103 416q8 38 0 57t-51 19h-235l-121 -492h-136z" />
    <glyph glyph-name="o" unicode="o" horiz-adv-x="732" 
d="M110 301q17 69 57.5 130t96.5 106t122.5 71.5t135.5 26.5q70 0 124.5 -26t88 -71t44 -106t-6.5 -131q-18 -70 -58.5 -130t-96 -104t-122 -69t-136.5 -25q-69 0 -123 25t-88 69t-45 104t7 130zM233 301q-11 -42 -4 -79.5t28 -65t54.5 -44t75.5 -16.5q43 0 85.5 15.5
t77.5 42.5t61.5 64.5t38.5 82.5q10 42 3 80.5t-28 67.5t-55 46t-78 17t-86 -17t-77 -46.5t-60.5 -67.5t-35.5 -80z" />
    <glyph glyph-name="p" unicode="p" horiz-adv-x="630" 
d="M199 609h363q48 0 77.5 -19t44.5 -49.5t16.5 -68t-7.5 -73.5q-8 -33 -28 -68.5t-48.5 -65.5t-63.5 -49.5t-72 -19.5h-174l-50 91l-71 -287h-136zM307 492l-45 -188h220q15 0 29.5 10t26.5 24.5t20.5 31t11.5 29.5q3 10 3 26q0 12 -2.5 23.5t-7.5 21.5t-12 16t-17 6h-227z
" />
    <glyph glyph-name="FL0051h" unicode="q" horiz-adv-x="732" 
d="M110 301q-18 -70 -7 -130t45 -104t88 -69t123 -25q13 0 25.5 1t26.5 3l57 -147l103 148l-18 46q79 43 137.5 114.5t81.5 162.5q17 70 6.5 131t-44 106t-88 71t-124.5 26q-69 0 -135.5 -26.5t-122.5 -71.5t-96.5 -106t-57.5 -130zM343 151l20 -54q-36 4 -64.5 22
t-46.5 45.5t-23.5 62.5t4.5 74q10 42 35.5 80t60.5 67.5t77 46.5t86 17t78 -17t55 -46t28 -67.5t-3 -80.5q-14 -57 -51 -101.5t-85 -70.5l-67 172z" />
    <glyph glyph-name="R" unicode="r" horiz-adv-x="642" 
d="M199 609h370q49 0 79.5 -17t45.5 -45t16 -63.5t-8 -71.5q-8 -32 -25 -63t-40 -57t-51.5 -45t-59.5 -27l127 -220h-161l-193 320h199q10 0 22 10t22.5 23.5t18.5 27.5t10 22q3 10 4 25.5t-1.5 29.5t-10 24t-22.5 10h-234l-121 -492h-136z" />
    <glyph glyph-name="S" unicode="s" horiz-adv-x="655" 
d="M79 107h370q12 0 25 6.5t24.5 17t19.5 22.5t11 24q7 28 -4.5 51.5t-40.5 23.5h-209q-39 0 -66.5 14.5t-43 39t-19.5 56t4 65.5q10 39 32 72.5t52 57.5t67 38t76 14h375l-24 -107h-382q-12 0 -23.5 -7t-21.5 -18.5t-17 -24.5t-10 -25q-3 -11 -1 -23t7.5 -22t13 -16.5
t15.5 -6.5h215q39 0 67.5 -15t45.5 -39.5t21.5 -57t-4.5 -68.5q-7 -29 -25 -61t-44 -58t-58 -43t-66 -17h-409z" />
    <glyph glyph-name="FL0074h" unicode="t" horiz-adv-x="620" 
d="M199 609l-24 -107h192l-125 -502h136l125 502h192l24 107h-520z" />
    <glyph glyph-name="FL0075h" unicode="u" horiz-adv-x="677" 
d="M627 0h-136l22 91l-96 -91h-199q-45 0 -73 13.5t-42.5 37t-16.5 54t6 63.5l107 441h137l-101 -416q-11 -39 -2 -57.5t52 -18.5h235l120 492h136z" />
    <glyph glyph-name="FL0076h" unicode="v" 
d="M435 156h-8l-107 453h-146l152 -609h136l447 609h-146z" />
    <glyph glyph-name="FL0077h" unicode="w" horiz-adv-x="1069" 
d="M1019 0l149 609h-136l-120 -492h-211q-34 0 -46.5 20.5t-3.5 55.5l101 416h-136l-120 -492h-211q-15 0 -26 7t-17 18.5t-8 25t1 25.5l101 416h-137l-107 -441q-8 -33 -6 -63.5t16.5 -54t42.5 -37t73 -13.5h175l97 99q5 -45 41.5 -72t102.5 -27h175l96 91l-22 -91h136z
" />
    <glyph glyph-name="FL0078h" unicode="x" horiz-adv-x="654" 
d="M777 609h-160l-189 -194l-93 194h-160l148 -304l-298 -305h161l189 194l93 -194h161l-146 305z" />
    <glyph glyph-name="FL0079h" unicode="y" horiz-adv-x="652" 
d="M329 288l-71 -288h136l71 288l311 321h-160l-189 -194l-93 194h-160z" />
    <glyph glyph-name="FL007Ah" unicode="z" horiz-adv-x="620" 
d="M570 0l27 107h-344l442 395l24 107h-520l-24 -107h344l-442 -395l-27 -107h520z" />
    <glyph glyph-name="FL007Bh" unicode="{" horiz-adv-x="360" 
d="M296 -55l27 107h-124l123 504h124l27 107h-260l-177 -718h260z" />
    <glyph glyph-name="FL007Ch" unicode="|" horiz-adv-x="246" 
d="M230 711l-201 -813h136l201 813h-136z" />
    <glyph glyph-name="FL007Dh" unicode="}" horiz-adv-x="360" 
d="M62 -55l27 107h124l123 504h-124l27 107h260l-177 -718h-260z" />
    <glyph glyph-name="FL007Eh" unicode="~" horiz-adv-x="429" 
d="M244 609l-92 -94h125l41 50l25 -50h118l92 94h-125l-42 -51l-24 51h-118z" />
    <glyph glyph-name="FL007Fh" horiz-adv-x="182" 
 />
    <glyph glyph-name="FL20ACh" horiz-adv-x="776" 
d="M138 290l-28 -116h135q6 -36 21.5 -67.5t40.5 -55.5t60.5 -37.5t81.5 -13.5h277l27 107h-265q-30 0 -56 18.5t-43 48.5h190l28 116h-240q5 17 6.5 24.5t3.5 13.5h239l30 116h-183q29 26 61 42t56 16h271l24 107h-274q-94 0 -168 -45t-122 -120h-134l-30 -116h108l-9 -38
h-108z" />
    <glyph glyph-name="FL20ACh" unicode="&#x20ac;" horiz-adv-x="776" 
d="M138 290l-28 -116h135q6 -36 21.5 -67.5t40.5 -55.5t60.5 -37.5t81.5 -13.5h277l27 107h-265q-30 0 -56 18.5t-43 48.5h190l28 116h-240q5 17 6.5 24.5t3.5 13.5h239l30 116h-183q29 26 61 42t56 16h271l24 107h-274q-94 0 -168 -45t-122 -120h-134l-30 -116h108l-9 -38
h-108z" />
    <glyph glyph-name="FL017Dh" horiz-adv-x="620" 
d="M570 0l27 107h-344l442 395l24 107h-520l-24 -107h344l-442 -395l-27 -107h520zM344 771l47 -94h176l93 94h-125l-47 -59l-19 59h-125z" />
    <glyph glyph-name="FL017Dh" unicode="&#x17d;" horiz-adv-x="620" 
d="M570 0l27 107h-344l442 395l24 107h-520l-24 -107h344l-442 -395l-27 -107h520zM344 771l47 -94h176l93 94h-125l-47 -59l-19 59h-125z" />
    <glyph glyph-name="FL017Eh" horiz-adv-x="620" 
d="M570 0l27 107h-344l442 395l24 107h-520l-24 -107h344l-442 -395l-27 -107h520zM344 771l47 -94h176l93 94h-125l-47 -59l-19 59h-125z" />
    <glyph glyph-name="FL017Eh" unicode="&#x17e;" horiz-adv-x="620" 
d="M570 0l27 107h-344l442 395l24 107h-520l-24 -107h344l-442 -395l-27 -107h520zM344 771l47 -94h176l93 94h-125l-47 -59l-19 59h-125z" />
    <glyph glyph-name="FL00A1h" unicode="&#xa1;" horiz-adv-x="246" 
d="M316 502h-136l24 107h136zM191 0h-136l104 419h136z" />
    <glyph glyph-name="FL00A2h" unicode="&#xa2;" horiz-adv-x="672" 
d="M121 304q-13 -53 -8.5 -107t28.5 -98t68 -71.5t110 -27.5h3l-26 -102h130l26 102h170l27 107h-170l98 395h170l24 107h-170l26 102h-130l-26 -102q-63 0 -120.5 -25.5t-104 -68t-79 -97.5t-46.5 -114zM447 502l-98 -395q-28 3 -51.5 21t-39 45.5t-20.5 62t4 69.5
q9 37 32.5 72t53 62.5t61.5 44.5t58 18z" />
    <glyph glyph-name="FL00A3h" unicode="&#xa3;" horiz-adv-x="583" 
d="M143 379l-28 -111h115q-13 -17 -22.5 -35t-14.5 -39q-11 -41 -6 -78h-109l-28 -116h483l28 116h-205q-14 0 -23 8.5t-13.5 20.5t-5 25.5t2.5 24.5q6 23 26 46t48 28h123l28 110h-120q-28 2 -39.5 20.5t-5.5 42.5q5 21 24.5 35.5t47.5 14.5h33l28 117h-33
q-41 0 -77.5 -12.5t-66 -34.5t-50 -53t-29.5 -67q-3 -17 -4.5 -32.5t0.5 -30.5h-107z" />
    <glyph glyph-name="FL00A4h" unicode="&#xa4;" horiz-adv-x="654" 
d="M208 306q14 62 61 112l-94 191h160l53 -111q31 10 64 10q37 0 57 -10l108 111h160l-184 -192q7 -23 8.5 -51.5t-5.5 -59.5q-16 -64 -60 -112l93 -194h-161l-56 115q-15 -4 -29.5 -6t-29.5 -2t-29 1.5t-26 6.5l-112 -115h-161l188 193q-10 24 -12 52.5t7 60.5zM341 304
q-8 -25 5.5 -43t38.5 -18q26 0 48 17t30 44q6 26 -7 45.5t-39 19.5t-48 -19.5t-28 -45.5z" />
    <glyph glyph-name="FL00A5h" unicode="&#xa5;" horiz-adv-x="652" 
d="M197 178l-28 -116h104l-15 -62h136l15 62h106l28 116h-106l15 58h106l28 116h-60l250 257h-160l-189 -194l-93 194h-160l123 -257h-57l-28 -116h104l-15 -58h-104z" />
    <glyph glyph-name="FL00A6h" unicode="&#xa6;" horiz-adv-x="246" 
d="M121 271h136l-66 -271h-136zM204 609h136l-63 -255h-136z" />
    <glyph glyph-name="FL00A7h" unicode="&#xa7;" horiz-adv-x="654" 
d="M208 306q14 62 61 112q21 27 46 44t49.5 26.5t47.5 13.5t40 6q37 0 57 -10l108 111h160l-184 -192q7 -23 8.5 -51.5t-5.5 -59.5q-16 -64 -60 -112q-26 -29 -50.5 -45.5t-48 -25.5t-44.5 -12t-40 -4q-15 0 -29 1.5t-26 6.5l-112 -115h-161l188 193q-10 24 -12 52.5t7 60.5
zM341 304q-8 -25 5.5 -43t38.5 -18q26 0 48 17t30 44q6 26 -7 45.5t-39 19.5t-48 -19.5t-28 -45.5z" />
    <glyph glyph-name="FL00A8h" unicode="&#xa8;" horiz-adv-x="416" 
d="M515 609h-125l-22 -94h125zM177 515h125l22 94h-125z" />
    <glyph glyph-name="FL00A9h" unicode="&#xa9;" horiz-adv-x="282" 
d="M306 671q-30 0 -55 -13q-62 -31 -76 -93q-9 -29 -1 -52q8 -14 14 -21t17 -18q40 -14 50 -14l13.5 1.5t40.5 12.5l9 6q11 7 19 13t19 20q14 15 20.5 28t10.5 24q2 12 1.5 25t-5.5 27q-3 11 -10 21.5t-21 19.5q-16 13 -46 13zM303 655h2q16 0 29.5 -7.5t22.5 -19.5
t12.5 -27t0.5 -30l-1 -6q-5 -20 -23.5 -42t-40.5 -33q-13 -7 -24 -8.5t-20 -1.5q-6 0 -15.5 2t-22.5 7l-8 1q-17 16 -23 34q-2 10 -3 20t3 21q5 22 22 45q37 45 89 45zM309 550q-6 -13 -17 -19.5t-23 -6.5q-36 0 -25 41q10 45 48 45q11 0 16.5 -5t9.5 -16l18 4
q-3 17 -12 24.5t-28 7.5q-58 0 -71 -60q-16 -61 42 -61q39 0 57 41z" />
    <glyph glyph-name="FL00AAh" unicode="&#xaa;" horiz-adv-x="424" 
d="M302 515h71l-16 76zM338 671h74l78 -304h-84l-19 81h-131l-57 -81h-83z" />
    <glyph glyph-name="FL00ABh" unicode="&#xab;" horiz-adv-x="514" 
d="M354 389l-64 82l-186 -150l114 -152l102 82l-52 70zM585 390l-64 82l-186 -150l114 -152l102 82l-52 70z" />
    <glyph glyph-name="FL00ACh" unicode="&#xac;" horiz-adv-x="411" 
d="M143 379l-29 -116h194l-23 -98h117l52 214h-311z" />
    <glyph glyph-name="FL00ADh" unicode="&#xad;" horiz-adv-x="326" 
d="M143 379h226l-29 -116h-226z" />
    <glyph glyph-name="registered" unicode="&#xae;" horiz-adv-x="282" 
d="M306 671q-14 0 -28 -3.5t-27 -11.5q-29 -14 -50 -39l-3 -2q-9 -13 -13.5 -23t-9.5 -27q-9 -29 -1 -52q12 -26 31 -39q20 -14 50 -14l15 1.5t39 12.5q32 15 47 39q14 15 20.5 28t10.5 24q2 12 1.5 25t-5.5 27q-3 11 -10 21t-21 18q-17 15 -46 15zM303 655h2
q16 0 29.5 -7.5t22.5 -19.5t12.5 -27t0.5 -30l-1 -6l-7 -12.5t-18 -29.5q-14 -20 -39 -33q-13 -7 -23 -8.5t-21 -1.5l-9 1t-29 6l-8 3q-7 9 -13.5 17t-9.5 16q-2 20 -1 31l1 11q5 22 22 45q37 45 89 45zM220 507h18l11 48h11q9 0 13 -4q4 -5 7.5 -11t5.5 -14l4 -19h24l-9 22
q-7 15 -8.5 20t-9.5 10q33 2 41 31q1 9 -3 18q-2 3 -4.5 4t-4.5 4q-5 5 -30 5h-38zM254 571l8 35h20q17 0 19 -2q10 -4 8 -15q-4 -11 -10.5 -14.5t-23.5 -3.5h-21z" />
    <glyph glyph-name="FL00AFh" unicode="&#xaf;" horiz-adv-x="446" 
d="M199 609l-28 -116h346l28 116h-346z" />
    <glyph glyph-name="FL00B0h" unicode="&#xb0;" horiz-adv-x="225" 
d="M200 610h125l-23 -94h-125zM273 575h-38l-6 -24h38z" />
    <glyph glyph-name="FL00B1h" unicode="&#xb1;" horiz-adv-x="411" 
d="M381 476h-116l-25 -97h-97l-29 -116h97l-23 -98h116l23 98h98l29 116h-98zM78 116l-28 -116h311l28 116h-311z" />
    <glyph glyph-name="FL00B2h" unicode="&#xb2;" horiz-adv-x="382" 
d="M435 430h-202l7 27q3 12 11.5 21.5t20.5 9.5h94q20 0 38 7.5t32 20t24 29t14 33.5q10 40 -10.5 66.5t-60.5 26.5h-186l-15 -63h189q8 0 11.5 -11t0.5 -19q0 -3 -3 -7.5t-7 -9t-8 -7.5t-7 -3h-104q-42 0 -72 -28t-39 -65l-22 -91h279z" />
    <glyph glyph-name="FL00B3h" unicode="&#xb3;" horiz-adv-x="369" 
d="M230 496h129q11 -2 16.5 -10.5t1.5 -19.5q-2 -8 -10.5 -20t-18.5 -12h-191l-16 -67h191q23 0 42.5 8.5t34.5 22.5t25 31.5t14 36.5q5 17 2 30.5t-11 27.5q14 13 24.5 28.5t13.5 32.5q10 37 -10 61.5t-62 24.5h-191l-15 -67h191q10 0 14.5 -5.5t1.5 -13.5q-2 -9 -9 -16
t-18 -9h-174z" />
    <glyph glyph-name="FL00B4h" unicode="&#xb4;" horiz-adv-x="217" 
d="M151 515l64 94h125l-92 -94h-97z" />
    <glyph glyph-name="FL00B5h" unicode="&#xb5;" horiz-adv-x="667" 
d="M336 609l-63 -255q28 5 42 5h202q7 0 18 5.5t21.5 14.5t19 21.5t11.5 26.5l44 182h134l-44 -182q-8 -34 -27.5 -65.5t-47.5 -56t-62.5 -39t-73.5 -14.5h-209q-15 0 -28.5 -6.5t-24.5 -17t-19 -24t-11 -27.5q-3 -12 -0.5 -24t9.5 -22.5t17 -17t22 -6.5h370l-27 -107h-409
q-35 0 -58 17.5t-36 44.5t-16 58.5t3 59.5l105 429h138z" />
    <glyph glyph-name="FL2122h" unicode="&#xb6;" horiz-adv-x="967" 
d="M1012 281l-83 -6q40 -55 36 -70l-1 -0.5t-2 -5.5l-82 12l-26 -83l-75 25l-81 -71l-49 36l-143 -59l13 23l-13 22l-165 -26l28 40l-174 6l59 32l-145 33l78 29l-96 53l83 4l-32 52l2 26l80 -8l32 83q31 -24 56 -24q9 0 17 3l86 68l40 -35l128 52l12 -4l-3 -36l171 23
l-23 -41h170l-60 -35l139 -29l6 -12h-8l-68 -17l89 -49zM898 324l-26 4l-22 -79l19 -2zM863 215l-16 7l-18 -11l12 -12zM816 221l24 103l-18 4l-21 -73l-47 69l-24 -104l20 2l11 50q27 -51 55 -51zM711 222l18 76q-5 33 -22 33q-14 0 -18 -4q-49 -49 -71 -102h25q9 12 18 18
t15 6q8 0 12.5 -6t9.5 -18zM632 328l-23 -4l-36 -104l28 7zM551 217l24 102l-16 5l-21 -70l-51 65l-24 -104l20 3l11 49q30 -50 57 -50zM468 290q0 34 -37 34h-14q-45 -26 -63 -93q6 -16 36 -16q5 0 8.5 0.5l10.5 1.5q31 0 59 73zM368 326q-84 -11 -96 -59l-1 -7q-2 -6 1 -6
q-2 -47 30 -47q5 0 9 1.5t14 3.5l5 17q-5 -1 -10.5 -1.5t-11.5 -0.5q-25 0 -17 20q4 22 25 43q21 15 34 15q7 0 7 -1l1.5 -0.5t3.5 -2.5zM274 324l-19 -3l-36 -106l24 8zM701 272h-35l31 35zM442 274q-3 -10 -5 -16t-9 -14q-14 -5 -22.5 -7t-11.5 -2q-17 0 -10 25l1 7
q21 32 40 32q11 0 19 -12q-2 -5 -1.5 -8t-0.5 -5z" />
    <glyph glyph-name="FL00B7h" unicode="&#xb7;" horiz-adv-x="236" 
d="M143 379h136l-27 -107h-136z" />
    <glyph glyph-name="FL00B8h" unicode="&#xb8;" horiz-adv-x="188" 
d="M49 0l-19 -73h-69l-18 -82h158l37 155h-89z" />
    <glyph glyph-name="FL00B9h" unicode="&#xb9;" horiz-adv-x="199" 
d="M162 367l58 237h-46l64 67h75l-73 -304h-78z" />
    <glyph glyph-name="FL00BAh" unicode="&#xba;" horiz-adv-x="401" 
d="M273 503q-5 -21 6.5 -36t32.5 -15q22 0 40.5 14t24.5 37q5 21 -6.5 37t-34.5 16q-22 0 -40 -16t-23 -37zM160 504q8 34 28 64.5t48 53.5t61 36t68 13t62 -13t44 -35.5t22.5 -53t-2.5 -65.5q-9 -35 -29.5 -65t-48 -52t-61 -34.5t-67.5 -12.5q-35 0 -62 12.5t-44 34.5
t-22.5 52t3.5 65z" />
    <glyph glyph-name="FL00BBh" unicode="&#xbb;" horiz-adv-x="514" 
d="M354 389l100 82l114 -150l-188 -152l-62 82l86 70zM123 390l100 82l114 -150l-188 -152l-62 82l86 70z" />
    <glyph glyph-name="FL00BCh" unicode="&#xbc;" horiz-adv-x="722" 
d="M237 305l73 304h-75l-64 -67h46l-58 -237h78zM705 609h-126l-554 -609h123zM671 304l-28 -111h-134l28 111h-77l-46 -178h211l-30 -126h77l76 304h-77z" />
    <glyph glyph-name="FL00BDh" unicode="&#xbd;" horiz-adv-x="713" 
d="M237 305l73 304h-75l-64 -67h46l-58 -237h78zM705 609h-126l-554 -609h123zM675 63h-202l7 27q4 12 12 21.5t20 9.5h94q20 0 38 7.5t32 20t24 29t14 33.5q11 40 -8.5 66.5t-59.5 26.5h-186l-18 -63h189q8 0 11.5 -11t0.5 -19q0 -3 -3 -7.5t-7 -9t-8 -7.5t-7 -3h-104
q-42 0 -71.5 -28t-39.5 -65l-22 -91h279z" />
    <glyph glyph-name="FL00BEh" unicode="&#xbe;" horiz-adv-x="817" 
d="M804 609h-126l-554 -609h123zM766 304l-28 -111h-134l28 111h-77l-46 -178h211l-30 -126h77l76 304h-77zM216 434h129q25 -4 17 -30q-2 -8 -10.5 -20t-18.5 -12h-191l-16 -67h191q23 0 42 8.5t34 22.5t25 31.5t15 36.5q5 17 1.5 30.5t-10.5 27.5q29 29 38 61
q10 37 -10 61.5t-62 24.5h-191l-15 -67h191q10 0 14.5 -5.5t1.5 -13.5q-5 -20 -29 -25h-174z" />
    <glyph glyph-name="FL00BFh" unicode="&#xbf;" horiz-adv-x="643" 
d="M642 430q-9 -36 -25 -68.5t-42.5 -57t-63.5 -39.5t-88 -15h-151q-8 0 -19 -7.5t-21.5 -18.5t-18.5 -22.5t-10 -19.5q-2 -10 -1.5 -23t4.5 -24.5t12 -19.5t20 -8h382l-27 -107h-375q-39 0 -69 14t-48.5 38t-24.5 57.5t3 72.5q9 34 28.5 65.5t47.5 56t62 39t73 14.5h132
q24 0 39.5 11.5t25.5 25.5t14 25.5t5 11.5zM661 502h-136l24 107h136z" />
    <glyph glyph-name="FL00C0h" unicode="&#xc0;" 
d="M626 677l-19 94h-125l47 -94h97zM511 479l44 -194h-187l139 194h4zM25 0h146l184 263l47 -94h172l40 -169h146l-151 609h-137z" />
    <glyph glyph-name="FL00C1h" unicode="&#xc1;" 
d="M589 677l93 94h-125l-65 -94h97zM511 479l44 -194h-187l139 194h4zM25 0h146l184 263l47 -94h172l40 -169h146l-151 609h-137z" />
    <glyph glyph-name="FL00C2h" unicode="&#xc2;" 
d="M715 677l-47 94h-176l-93 -94h125l48 59l18 -59h125zM511 479l44 -194h-187l139 194h4zM25 0h146l184 263l47 -94h172l40 -169h146l-151 609h-137z" />
    <glyph glyph-name="FL00C3h" unicode="&#xc3;" 
d="M460 771l-93 -94h125l39 50l27 -50h118l93 94h-125l-42 -51l-24 51h-118zM511 479l44 -194h-187l139 194h4zM25 0h146l184 263l47 -94h172l40 -169h146l-151 609h-137z" />
    <glyph glyph-name="FL00C4h" unicode="&#xc4;" 
d="M738 771h-125l-23 -94h125zM399 677h125l23 94h-125zM511 479l44 -194h-187l139 194h4zM25 0h146l184 263l47 -94h172l40 -169h146l-151 609h-137z" />
    <glyph glyph-name="FL00C5h" unicode="&#xc5;" 
d="M472 609h137l151 -609h-146l-40 169h-172l-47 94l-184 -263h-146zM507 479l-139 -194h187l-44 194h-4zM517 771h125l-23 -94h-125zM591 736h-38l-6 -24h38z" />
    <glyph glyph-name="FL00C6h" unicode="&#xc6;" horiz-adv-x="1156" 
d="M25 0h146l184 263l47 -94h172l40 -169h492l27 107h-399l-40 156h476l29 116h-492l-21 -83l-77 313h-137zM763 609l-24 -107h492l24 107h-492zM511 479l44 -194h-187l139 194h4z" />
    <glyph glyph-name="FL00C7h" unicode="&#xc7;" horiz-adv-x="662" 
d="M111 304q-13 -53 -8.5 -107t28.5 -98t68 -71.5t110 -27.5h43l-19 -73h-69l-18 -82h158l37 155h171l27 107h-291q-29 0 -54.5 17t-42.5 45t-23 63.5t4 72.5q9 37 33 72.5t54.5 63t62.5 44.5t58 17h297l24 107h-300q-63 0 -120.5 -25.5t-104 -68t-79 -97.5t-46.5 -114z" />
    <glyph glyph-name="FL00C8h" unicode="&#xc8;" horiz-adv-x="592" 
d="M525 677l-19 94h-125l47 -94h97zM569 107h-492l-27 -107h492zM199 609l-24 -107h492l24 107h-492zM115 267h492l27 108h-492z" />
    <glyph glyph-name="FL00C9h" unicode="&#xc9;" horiz-adv-x="592" 
d="M199 609l-24 -107h492l24 107h-492zM50 0h492l27 107h-492zM498 677l93 94h-125l-65 -94h97zM115 267h492l27 108h-492z" />
    <glyph glyph-name="FL00CAh" unicode="&#xca;" horiz-adv-x="592" 
d="M199 609l-24 -107h492l24 107h-492zM50 0h492l27 107h-492zM622 677l-47 94h-176l-93 -94h125l48 59l18 -59h125zM115 267h492l27 108h-492z" />
    <glyph glyph-name="FL00CBh" unicode="&#xcb;" horiz-adv-x="592" 
d="M199 609l-24 -107h492l24 107h-492zM50 0h492l27 107h-492zM645 771h-125l-23 -94h125zM306 677h125l23 94h-125zM115 267h492l27 108h-492z" />
    <glyph glyph-name="FL00CCh" unicode="&#xcc;" horiz-adv-x="581" 
d="M49 0l27 107h172l98 395h-172l24 107h481l-24 -107h-173l-98 -395h173l-27 -107h-481zM426 677l-47 94h125l19 -94h-97z" />
    <glyph glyph-name="FL00CDh" unicode="&#xcd;" horiz-adv-x="581" 
d="M531 0l27 107h-172l98 395h172l24 107h-481l-24 -107h173l-98 -395h-173l-27 -107h481zM488 677l93 94h-125l-65 -94h97z" />
    <glyph glyph-name="FL00CEh" unicode="&#xce;" horiz-adv-x="581" 
d="M531 0l27 107h-172l98 395h172l24 107h-481l-24 -107h173l-98 -395h-173l-27 -107h481zM615 677l-47 94h-176l-93 -94h125l48 59l18 -59h125z" />
    <glyph glyph-name="FL00CFh" unicode="&#xcf;" horiz-adv-x="581" 
d="M531 0l27 107h-172l98 395h172l24 107h-481l-24 -107h173l-98 -395h-173l-27 -107h481zM638 771h-125l-23 -94h125zM299 677h125l23 94h-125z" />
    <glyph glyph-name="FL00D0h" unicode="&#xd0;" horiz-adv-x="813" 
d="M143 379l-29 -116h112l-64 -263h343q66 0 123.5 27.5t103.5 71.5t77.5 98t44.5 107q16 64 8.5 119.5t-36.5 96.5t-78.5 65t-118.5 24h-318l-56 -230h-112zM419 502h205q20 0 43 -17.5t40.5 -45.5t26 -63t-0.5 -71q-10 -37 -34 -72.5t-54.5 -63.5t-63.5 -45t-62 -17h-198
l37 156h125l29 116h-125z" />
    <glyph glyph-name="FL00D1h" unicode="&#xd1;" horiz-adv-x="677" 
d="M50 0h136l121 492h235q43 0 51 -19t0 -57l-103 -416h137l108 441q9 33 7 63.5t-17 54t-43.5 37t-73.5 13.5h-199l-96 -91l22 91h-136zM411 771l-93 -94h125l39 50l27 -50h118l93 94h-125l-42 -51l-24 51h-118z" />
    <glyph glyph-name="FL00D2h" unicode="&#xd2;" horiz-adv-x="732" 
d="M233 301q10 42 35.5 80t60.5 67.5t77 46.5t86 17t78 -17t55 -46t28 -67.5t-3 -80.5q-12 -45 -38.5 -82.5t-61.5 -64.5t-77.5 -42.5t-85.5 -15.5q-42 0 -75.5 16.5t-54.5 44t-28 65t4 79.5zM110 301q-18 -70 -7 -130t45 -104t88 -69t123 -25q70 0 136.5 25t122 69t96 104
t58.5 130q17 70 6.5 131t-44 106t-88 71t-124.5 26q-69 0 -135.5 -26.5t-122.5 -71.5t-96.5 -106t-57.5 -130zM595 677l-19 94h-125l47 -94h97z" />
    <glyph glyph-name="FL00D3h" unicode="&#xd3;" horiz-adv-x="732" 
d="M233 301q10 42 35.5 80t60.5 67.5t77 46.5t86 17t78 -17t55 -46t28 -67.5t-3 -80.5q-12 -45 -38.5 -82.5t-61.5 -64.5t-77.5 -42.5t-85.5 -15.5q-42 0 -75.5 16.5t-54.5 44t-28 65t4 79.5zM110 301q-18 -70 -7 -130t45 -104t88 -69t123 -25q70 0 136.5 25t122 69t96 104
t58.5 130q17 70 6.5 131t-44 106t-88 71t-124.5 26q-69 0 -135.5 -26.5t-122.5 -71.5t-96.5 -106t-57.5 -130zM568 677l93 94h-125l-65 -94h97z" />
    <glyph glyph-name="FL00D4h" unicode="&#xd4;" horiz-adv-x="732" 
d="M233 301q10 42 35.5 80t60.5 67.5t77 46.5t86 17t78 -17t55 -46t28 -67.5t-3 -80.5q-12 -45 -38.5 -82.5t-61.5 -64.5t-77.5 -42.5t-85.5 -15.5q-42 0 -75.5 16.5t-54.5 44t-28 65t4 79.5zM110 301q-18 -70 -7 -130t45 -104t88 -69t123 -25q70 0 136.5 25t122 69t96 104
t58.5 130q17 70 6.5 131t-44 106t-88 71t-124.5 26q-69 0 -135.5 -26.5t-122.5 -71.5t-96.5 -106t-57.5 -130zM691 677l-47 94h-176l-93 -94h125l48 59l18 -59h125z" />
    <glyph glyph-name="FL00D5h" unicode="&#xd5;" horiz-adv-x="732" 
d="M110 301q-18 -70 -7 -130t45 -104t88 -69t123 -25q70 0 136.5 25t122 69t96 104t58.5 130q17 70 6.5 131t-44 106t-88 71t-124.5 26q-69 0 -135.5 -26.5t-122.5 -71.5t-96.5 -106t-57.5 -130zM233 301q10 42 35.5 80t60.5 67.5t77 46.5t86 17t78 -17t55 -46t28 -67.5
t-3 -80.5q-12 -45 -38.5 -82.5t-61.5 -64.5t-77.5 -42.5t-85.5 -15.5q-42 0 -75.5 16.5t-54.5 44t-28 65t4 79.5zM436 771l-93 -94h125l39 50l27 -50h118l93 94h-125l-42 -51l-24 51h-118z" />
    <glyph glyph-name="FL00D6h" unicode="&#xd6;" horiz-adv-x="732" 
d="M233 301q10 42 35.5 80t60.5 67.5t77 46.5t86 17t78 -17t55 -46t28 -67.5t-3 -80.5q-12 -45 -38.5 -82.5t-61.5 -64.5t-77.5 -42.5t-85.5 -15.5q-42 0 -75.5 16.5t-54.5 44t-28 65t4 79.5zM110 301q-18 -70 -7 -130t45 -104t88 -69t123 -25q70 0 136.5 25t122 69t96 104
t58.5 130q17 70 6.5 131t-44 106t-88 71t-124.5 26q-69 0 -135.5 -26.5t-122.5 -71.5t-96.5 -106t-57.5 -130zM715 771h-125l-23 -94h125zM376 677h125l23 94h-125z" />
    <glyph glyph-name="FL00D7h" unicode="&#xd7;" horiz-adv-x="353" 
d="M424 389l-64 82l-84 -68l-53 68l-100 -82l51 -68l-87 -70l62 -82l86 70l53 -70l102 82l-52 70z" />
    <glyph glyph-name="FL00D8h" unicode="&#xd8;" horiz-adv-x="732" 
d="M808 609h-154q-26 13 -61.5 19.5t-70.5 6.5q-69 0 -135.5 -26.5t-122.5 -71.5t-96.5 -106t-57.5 -130q-16 -64 -8.5 -119.5t35.5 -98.5l-81 -83h161q32 -11 67.5 -19t74.5 -8q70 0 136.5 25t122 69t96 104t58.5 130q17 69 7.5 129t-42.5 105zM650 301
q-12 -45 -38.5 -82.5t-61.5 -64.5t-77.5 -42.5t-85.5 -15.5q-37 0 -65 12l314 323q31 -54 14 -130zM233 301q10 42 35.5 80t60.5 67.5t77 46.5t86 17q26 0 56 -8l-308 -316q-23 51 -7 113z" />
    <glyph glyph-name="FL00D9h" unicode="&#xd9;" horiz-adv-x="677" 
d="M627 0l149 609h-136l-120 -492h-235q-43 0 -52 18.5t2 57.5l101 416h-137l-107 -441q-8 -33 -6 -63.5t16.5 -54t42.5 -37t73 -13.5h199l96 91l-22 -91h136zM567 677l-19 94h-125l47 -94h97z" />
    <glyph glyph-name="FL00DAh" unicode="&#xda;" horiz-adv-x="677" 
d="M627 0l149 609h-136l-120 -492h-235q-43 0 -52 18.5t2 57.5l101 416h-137l-107 -441q-8 -33 -6 -63.5t16.5 -54t42.5 -37t73 -13.5h199l96 91l-22 -91h136zM540 677l93 94h-125l-65 -94h97z" />
    <glyph glyph-name="FL00DBh" unicode="&#xdb;" horiz-adv-x="677" 
d="M627 0l149 609h-136l-120 -492h-235q-43 0 -52 18.5t2 57.5l101 416h-137l-107 -441q-8 -33 -6 -63.5t16.5 -54t42.5 -37t73 -13.5h199l96 91l-22 -91h136zM663 677l-47 94h-176l-93 -94h125l48 59l18 -59h125z" />
    <glyph glyph-name="FL00DCh" unicode="&#xdc;" horiz-adv-x="677" 
d="M686 771h-125l-23 -94h125zM347 677h125l23 94h-125zM776 609h-136l-120 -492h-235q-43 0 -52 18.5t2 57.5l101 416h-137l-107 -441q-8 -33 -6 -63.5t16.5 -54t42.5 -37t73 -13.5h199l96 91l-22 -91h136z" />
    <glyph glyph-name="FL00DDh" unicode="&#xdd;" horiz-adv-x="667" 
d="M538 677l93 94h-125l-65 -94h97zM628 609l-60 -250h-241q-16 0 -30 19t-8 49l44 182h-134l-44 -182q-8 -34 -4 -65.5t19.5 -56t43 -39t66.5 -14.5h262l-19 -76q-3 -12 -9.5 -24t-15.5 -22t-20.5 -16.5t-23.5 -6.5h-370l-27 -107h409q34 0 66.5 17.5t59 44.5t45 58.5
t24.5 59.5l105 429h-138z" />
    <glyph glyph-name="FL00DEh" unicode="&#xde;" horiz-adv-x="630" 
d="M198 609l-149 -609h137l47 187l48 -93h174q37 0 72 20t63.5 50t49 66t28.5 69q9 36 5.5 73.5t-20 68t-45 49.5t-69.5 19h-228l23 100h-136zM283 392h227q10 0 17.5 -6t12 -16t6.5 -21.5t2 -23.5q0 -16 -3 -26q-3 -13 -11.5 -29.5t-20.5 -31t-27 -24.5t-30 -10h-220z" />
    <glyph glyph-name="FL00DFh" unicode="&#xdf;" horiz-adv-x="654" 
d="M199 609l-183 -745h136l155 628h250q28 0 39.5 -14.5t6.5 -35.5q-6 -24 -26.5 -42.5t-48.5 -20.5h-142l-28 -110h139q29 -3 40.5 -26t5.5 -48q-3 -11 -10 -24.5t-17.5 -25.5t-23.5 -20t-27 -8h-142l-29 -117h142q45 0 83.5 16.5t68 44t50 62.5t29.5 71q8 35 0.5 62
t-22.5 59q29 25 51 58.5t30 68.5q9 36 3.5 67t-24 53t-49 34.5t-71.5 12.5h-386z" />
    <glyph glyph-name="FL00E0h" unicode="&#xe0;" 
d="M512 479l43 -194h-187l137 194h7zM25 0h146l120 168h284l39 -168h146l-151 609h-137zM626 677l-19 94h-125l47 -94h97z" />
    <glyph glyph-name="FL00E1h" unicode="&#xe1;" 
d="M512 479l43 -194h-187l137 194h7zM25 0h146l120 168h284l39 -168h146l-151 609h-137zM589 677l93 94h-125l-65 -94h97z" />
    <glyph glyph-name="FL00E2h" unicode="&#xe2;" 
d="M512 479l43 -194h-187l137 194h7zM25 0h146l120 168h284l39 -168h146l-151 609h-137zM715 677l-47 94h-176l-93 -94h125l48 59l18 -59h125z" />
    <glyph glyph-name="FL00E3h" unicode="&#xe3;" 
d="M512 479l43 -194h-187l137 194h7zM25 0h146l120 168h284l39 -168h146l-151 609h-137zM460 771l-93 -94h125l39 50l27 -50h118l93 94h-125l-42 -51l-24 51h-118z" />
    <glyph glyph-name="FL00E4h" unicode="&#xe4;" 
d="M512 479l43 -194h-187l137 194h7zM25 0h146l120 168h284l39 -168h146l-151 609h-137zM738 771h-125l-23 -94h125zM399 677h125l23 94h-125z" />
    <glyph glyph-name="FL00E5h" unicode="&#xe5;" 
d="M517 771h125l-23 -94h-125zM472 609h137l151 -609h-146l-39 168h-284l-120 -168h-146zM505 479l-137 -194h187l-43 194h-7zM591 736h-38l-6 -24h38z" />
    <glyph glyph-name="FL00E6h" unicode="&#xe6;" horiz-adv-x="1157" 
d="M764 609l-77 -315l-78 315h-137l-447 -609h146l120 168h284l39 -168h493l27 107h-356l37 156h311l29 116h-311l32 123h356l24 107h-492zM506 479h5l44 -194h-187z" />
    <glyph glyph-name="FL00E7h" unicode="&#xe7;" horiz-adv-x="662" 
d="M111 304q-13 -53 -8.5 -107t28.5 -98t68 -71.5t110 -27.5h43l-19 -73h-69l-18 -82h158l37 155h171l27 107h-291q-29 0 -54.5 17t-42.5 45t-23 63.5t4 72.5q9 37 33 72.5t54.5 63t62.5 44.5t58 17h297l24 107h-300q-63 0 -120.5 -25.5t-104 -68t-79 -97.5t-46.5 -114z" />
    <glyph glyph-name="FL00E8h" unicode="&#xe8;" horiz-adv-x="592" 
d="M428 677l-47 94h125l19 -94h-97zM199 609h492l-24 -107h-356l-33 -127h311l-27 -108h-311l-38 -160h356l-27 -107h-492z" />
    <glyph glyph-name="FL00E9h" unicode="&#xe9;" horiz-adv-x="592" 
d="M401 677l65 94h125l-93 -94h-97zM199 609h492l-24 -107h-356l-33 -127h311l-27 -108h-311l-38 -160h356l-27 -107h-492z" />
    <glyph glyph-name="FL00EAh" unicode="&#xea;" horiz-adv-x="592" 
d="M497 677l-18 59l-48 -59h-125l93 94h176l47 -94h-125zM199 609h492l-24 -107h-356l-33 -127h311l-27 -108h-311l-38 -160h356l-27 -107h-492z" />
    <glyph glyph-name="FL00EBh" unicode="&#xeb;" horiz-adv-x="592" 
d="M329 771h125l-23 -94h-125zM622 677h-125l23 94h125zM199 609h492l-24 -107h-356l-33 -127h311l-27 -108h-311l-38 -160h356l-27 -107h-492z" />
    <glyph glyph-name="FL00ECh" unicode="&#xec;" horiz-adv-x="246" 
d="M55 0h136l149 609h-136zM360 677l-19 94h-125l47 -94h97z" />
    <glyph glyph-name="FL00EDh" unicode="&#xed;" horiz-adv-x="246" 
d="M55 0h136l149 609h-136zM313 677l93 94h-125l-65 -94h97z" />
    <glyph glyph-name="FL00EEh" unicode="&#xee;" horiz-adv-x="246" 
d="M55 0h136l149 609h-136zM448 677l-47 94h-176l-93 -94h125l48 59l18 -59h125z" />
    <glyph glyph-name="FL00EFh" unicode="&#xef;" horiz-adv-x="246" 
d="M55 0h136l149 609h-136zM471 771h-125l-23 -94h125zM132 677h125l23 94h-125z" />
    <glyph glyph-name="FL00F0h" unicode="&#xf0;" horiz-adv-x="701" 
d="M742 304q-13 -53 -44.5 -107t-77.5 -98t-104 -71.5t-124 -27.5h-342l93 379h478q-4 25 -14.5 47.5t-25.5 39t-33 26.5t-37 10h-336l24 107h297q69 0 122 -24t86 -65t43.5 -96.5t-5.5 -119.5zM246 263l-37 -156h198q24 0 52.5 12.5t55.5 34t50.5 49.5t38.5 60h-358z" />
    <glyph glyph-name="FL00F1h" unicode="&#xf1;" horiz-adv-x="677" 
d="M50 0h136l121 492h235q43 0 51 -19t0 -57l-103 -416h137l108 441q9 33 7 63.5t-17 54t-43.5 37t-73.5 13.5h-199l-96 -91l22 91h-136zM411 771l-93 -94h125l39 50l27 -50h118l93 94h-125l-42 -51l-24 51h-118z" />
    <glyph glyph-name="FL00F2h" unicode="&#xf2;" horiz-adv-x="732" 
d="M233 301q10 42 35.5 80t60.5 67.5t77 46.5t86 17t78 -17t55 -46t28 -67.5t-3 -80.5q-12 -45 -38.5 -82.5t-61.5 -64.5t-77.5 -42.5t-85.5 -15.5q-42 0 -75.5 16.5t-54.5 44t-28 65t4 79.5zM110 301q-18 -70 -7 -130t45 -104t88 -69t123 -25q70 0 136.5 25t122 69t96 104
t58.5 130q17 70 6.5 131t-44 106t-88 71t-124.5 26q-69 0 -135.5 -26.5t-122.5 -71.5t-96.5 -106t-57.5 -130zM595 677l-19 94h-125l47 -94h97z" />
    <glyph glyph-name="FL00F3h" unicode="&#xf3;" horiz-adv-x="732" 
d="M233 301q10 42 35.5 80t60.5 67.5t77 46.5t86 17t78 -17t55 -46t28 -67.5t-3 -80.5q-12 -45 -38.5 -82.5t-61.5 -64.5t-77.5 -42.5t-85.5 -15.5q-42 0 -75.5 16.5t-54.5 44t-28 65t4 79.5zM110 301q-18 -70 -7 -130t45 -104t88 -69t123 -25q70 0 136.5 25t122 69t96 104
t58.5 130q17 70 6.5 131t-44 106t-88 71t-124.5 26q-69 0 -135.5 -26.5t-122.5 -71.5t-96.5 -106t-57.5 -130zM568 677l93 94h-125l-65 -94h97z" />
    <glyph glyph-name="FL00F4h" unicode="&#xf4;" horiz-adv-x="732" 
d="M233 301q10 42 35.5 80t60.5 67.5t77 46.5t86 17t78 -17t55 -46t28 -67.5t-3 -80.5q-12 -45 -38.5 -82.5t-61.5 -64.5t-77.5 -42.5t-85.5 -15.5q-42 0 -75.5 16.5t-54.5 44t-28 65t4 79.5zM110 301q-18 -70 -7 -130t45 -104t88 -69t123 -25q70 0 136.5 25t122 69t96 104
t58.5 130q17 70 6.5 131t-44 106t-88 71t-124.5 26q-69 0 -135.5 -26.5t-122.5 -71.5t-96.5 -106t-57.5 -130zM691 677l-47 94h-176l-93 -94h125l48 59l18 -59h125z" />
    <glyph glyph-name="FL00F5h" unicode="&#xf5;" horiz-adv-x="732" 
d="M110 301q-18 -70 -7 -130t45 -104t88 -69t123 -25q70 0 136.5 25t122 69t96 104t58.5 130q17 70 6.5 131t-44 106t-88 71t-124.5 26q-69 0 -135.5 -26.5t-122.5 -71.5t-96.5 -106t-57.5 -130zM233 301q10 42 35.5 80t60.5 67.5t77 46.5t86 17t78 -17t55 -46t28 -67.5
t-3 -80.5q-12 -45 -38.5 -82.5t-61.5 -64.5t-77.5 -42.5t-85.5 -15.5q-42 0 -75.5 16.5t-54.5 44t-28 65t4 79.5zM436 771l-93 -94h125l39 50l27 -50h118l93 94h-125l-42 -51l-24 51h-118z" />
    <glyph glyph-name="FL00F6h" unicode="&#xf6;" horiz-adv-x="732" 
d="M233 301q10 42 35.5 80t60.5 67.5t77 46.5t86 17t78 -17t55 -46t28 -67.5t-3 -80.5q-12 -45 -38.5 -82.5t-61.5 -64.5t-77.5 -42.5t-85.5 -15.5q-42 0 -75.5 16.5t-54.5 44t-28 65t4 79.5zM110 301q-18 -70 -7 -130t45 -104t88 -69t123 -25q70 0 136.5 25t122 69t96 104
t58.5 130q17 70 6.5 131t-44 106t-88 71t-124.5 26q-69 0 -135.5 -26.5t-122.5 -71.5t-96.5 -106t-57.5 -130zM715 771h-125l-23 -94h125zM376 677h125l23 94h-125z" />
    <glyph glyph-name="FL00F7h" unicode="&#xf7;" horiz-adv-x="504" 
d="M143 379l-29 -116h404l29 116h-404zM372 219h-122l-25 -94h122zM300 419h122l22 94h-122z" />
    <glyph glyph-name="FL00F8h" unicode="&#xf8;" horiz-adv-x="732" 
d="M110 301q-18 -70 -7 -130t45 -104t88 -69t123 -25q70 0 136.5 25t122 69t96 104t58.5 130q17 70 6.5 131t-44 106t-88 71t-124.5 26q-69 0 -135.5 -26.5t-122.5 -71.5t-96.5 -106t-57.5 -130zM233 301q10 42 35.5 80t60.5 67.5t77 46.5t86 17q38 0 64 -12l-313 -321
q-28 52 -10 122zM650 301q-12 -45 -38.5 -82.5t-61.5 -64.5t-77.5 -42.5t-85.5 -15.5q-33 0 -55 9l308 319q26 -55 10 -123z" />
    <glyph glyph-name="FL00F9h" unicode="&#xf9;" horiz-adv-x="677" 
d="M627 0l149 609h-136l-120 -492h-235q-43 0 -52 18.5t2 57.5l101 416h-137l-107 -441q-8 -33 -6 -63.5t16.5 -54t42.5 -37t73 -13.5h199l96 91l-22 -91h136zM567 677l-19 94h-125l47 -94h97z" />
    <glyph glyph-name="FL00FAh" unicode="&#xfa;" horiz-adv-x="677" 
d="M627 0l149 609h-136l-120 -492h-235q-43 0 -52 18.5t2 57.5l101 416h-137l-107 -441q-8 -33 -6 -63.5t16.5 -54t42.5 -37t73 -13.5h199l96 91l-22 -91h136zM540 677l93 94h-125l-65 -94h97z" />
    <glyph glyph-name="FL00FBh" unicode="&#xfb;" horiz-adv-x="677" 
d="M627 0l149 609h-136l-120 -492h-235q-43 0 -52 18.5t2 57.5l101 416h-137l-107 -441q-8 -33 -6 -63.5t16.5 -54t42.5 -37t73 -13.5h199l96 91l-22 -91h136zM663 677l-47 94h-176l-93 -94h125l48 59l18 -59h125z" />
    <glyph glyph-name="FL00FCh" unicode="&#xfc;" horiz-adv-x="677" 
d="M686 771h-125l-23 -94h125zM347 677h125l23 94h-125zM776 609h-136l-120 -492h-235q-43 0 -52 18.5t2 57.5l101 416h-137l-107 -441q-8 -33 -6 -63.5t16.5 -54t42.5 -37t73 -13.5h199l96 91l-22 -91h136z" />
    <glyph glyph-name="FL00FDh" unicode="&#xfd;" horiz-adv-x="652" 
d="M329 288l-71 -288h136l71 288l311 321h-160l-189 -194l-93 194h-160zM527 677l93 94h-125l-65 -94h97z" />
    <glyph glyph-name="FL00FEh" unicode="&#xfe;" horiz-adv-x="630" 
d="M198 609l-149 -609h137l47 187l48 -93h174q37 0 72 20t63.5 50t49 66t28.5 69q9 36 5.5 73.5t-20 68t-45 49.5t-69.5 19h-228l23 100h-136zM283 392h227q10 0 17.5 -6t12 -16t6.5 -21.5t2 -23.5q0 -16 -3 -26q-3 -13 -11.5 -29.5t-20.5 -31t-27 -24.5t-30 -10h-220z" />
    <glyph glyph-name="FL00FFh" unicode="&#xff;" horiz-adv-x="652" 
d="M329 288l-71 -288h136l71 288l311 321h-160l-189 -194l-93 194h-160zM671 771h-125l-23 -94h125zM332 677h125l23 94h-125z" />
    <glyph glyph-name="FL0152h" unicode="&#x152;" horiz-adv-x="1021" 
d="M111 304q-13 -53 -8.5 -107t28.5 -98t68 -71.5t110 -27.5h662l27 107h-650q-29 0 -54.5 17t-42.5 45t-23 63.5t4 72.5q9 37 33 72.5t54.5 63t62.5 44.5t58 17h656l24 107h-659q-63 0 -120.5 -25.5t-104 -68t-79 -97.5t-46.5 -114zM544 263h491l29 116h-491z" />
    <glyph glyph-name="FL0153h" unicode="&#x153;" horiz-adv-x="1021" 
d="M111 304q-13 -53 -8.5 -107t28.5 -98t68 -71.5t110 -27.5h662l27 107h-356l37 156h311l29 116h-311l32 123h356l24 107h-659q-63 0 -120.5 -25.5t-104 -68t-79 -97.5t-46.5 -114zM604 502l-98 -395h-158q-29 0 -54.5 17t-42.5 45t-23 63.5t4 72.5q9 37 33 72.5t54.5 63
t62.5 44.5t58 17h164z" />
    <glyph glyph-name="FL0160h" unicode="&#x160;" horiz-adv-x="655" 
d="M52 0h409q34 0 66 17t58 43t44 58t25 61q9 36 4.5 68.5t-21.5 57t-45.5 39.5t-67.5 15h-215q-8 0 -15.5 6.5t-13 16.5t-7.5 22t1 23q3 12 10 25t17 24.5t21.5 18.5t23.5 7h382l24 107h-375q-39 0 -76 -14t-67 -38t-52 -57.5t-32 -72.5q-8 -34 -4 -65.5t19.5 -56t43 -39
t66.5 -14.5h209q29 0 40.5 -23.5t4.5 -51.5q-3 -12 -11 -24t-19.5 -22.5t-24.5 -17t-25 -6.5h-370zM362 771l47 -94h176l93 94h-125l-47 -59l-19 59h-125z" />
    <glyph glyph-name="FL0161h" unicode="&#x161;" horiz-adv-x="655" 
d="M52 0h409q34 0 66 17t58 43t44 58t25 61q9 36 4.5 68.5t-21.5 57t-45.5 39.5t-67.5 15h-215q-8 0 -15.5 6.5t-13 16.5t-7.5 22t1 23q3 12 10 25t17 24.5t21.5 18.5t23.5 7h382l24 107h-375q-39 0 -76 -14t-67 -38t-52 -57.5t-32 -72.5q-8 -34 -4 -65.5t19.5 -56t43 -39
t66.5 -14.5h209q29 0 40.5 -23.5t4.5 -51.5q-3 -12 -11 -24t-19.5 -22.5t-24.5 -17t-25 -6.5h-370zM362 771l47 -94h176l93 94h-125l-47 -59l-19 59h-125z" />
    <glyph glyph-name="FL0178h" unicode="&#x178;" horiz-adv-x="667" 
d="M683 771h-125l-23 -94h125zM344 677h125l23 94h-125zM628 609l-60 -250h-241q-16 0 -30 19t-8 49l44 182h-134l-44 -182q-8 -34 -4 -65.5t19.5 -56t43 -39t66.5 -14.5h262l-19 -76q-3 -12 -9.5 -24t-15.5 -22t-20.5 -16.5t-23.5 -6.5h-370l-27 -107h409q34 0 66.5 17.5
t59 44.5t45 58.5t24.5 59.5l105 429h-138z" />
    <glyph glyph-name="FL0192h" unicode="&#x192;" horiz-adv-x="754" 
d="M783 324l-26 4l-22 -79l19 -2zM748 215l-16 7l-18 -11l12 -12zM701 221l24 103l-18 4l-21 -73l-47 69l-24 -104l20 2l11 50q27 -51 55 -51zM596 222l18 76q-5 33 -22 33q-14 0 -18 -4q-49 -49 -71 -102h25q9 12 18 18t15 6q8 0 12.5 -6t9.5 -18zM517 328l-23 -4l-36 -104
l28 7zM436 217l24 102l-16 5l-21 -70l-51 65l-24 -104l20 3l11 49q30 -50 57 -50zM353 290q0 34 -37 34h-14q-45 -26 -63 -93q6 -16 36 -16q5 0 8.5 0.5l10.5 1.5q31 0 59 73zM253 326q-84 -11 -96 -59l-1 -7q-2 -6 1 -6q-2 -47 30 -47q5 0 9 1.5t14 3.5l5 17
q-5 -1 -10.5 -1.5t-11.5 -0.5q-25 0 -17 20q4 22 25 43q21 15 34 15q7 0 7 -1l1.5 -0.5t3.5 -2.5zM159 324l-19 -3l-36 -106l24 8zM586 272h-35l31 35zM327 274q-3 -10 -5 -16t-9 -14q-14 -5 -22.5 -7t-11.5 -2q-17 0 -10 25l1 7q21 32 40 32q11 0 19 -12q-2 -5 -1.5 -8
t-0.5 -5z" />
    <glyph glyph-name="FL02C6h" unicode="&#x2c6;" horiz-adv-x="366" 
d="M468 516l-47 94h-176l-93 -94h125l47 59l19 -59h125z" />
    <glyph glyph-name="FL02DCh" unicode="&#x2dc;" horiz-adv-x="429" 
d="M244 609l-92 -94h125l41 50l25 -50h118l92 94h-125l-42 -51l-24 51h-118z" />
    <glyph glyph-name="FL2013h" unicode="&#x2013;" horiz-adv-x="396" 
d="M143 379h296l-29 -116h-296z" />
    <glyph glyph-name="FL2014h" unicode="&#x2014;" horiz-adv-x="452" 
d="M143 379l-29 -116h352l29 116h-352z" />
    <glyph glyph-name="FL2018h" unicode="&#x2018;" horiz-adv-x="236" 
d="M280 385l55 224l-157 -89l-34 -135h136z" />
    <glyph glyph-name="FL2019h" unicode="&#x2019;" horiz-adv-x="236" 
d="M199 609l-55 -224l160 89l31 135h-136z" />
    <glyph glyph-name="FL201Ah" unicode="&#x201a;" horiz-adv-x="236" 
d="M77 107l-56 -224l158 89l34 135h-136z" />
    <glyph glyph-name="FL201Ch" unicode="&#x201c;" horiz-adv-x="422" 
d="M280 385l55 224l-157 -89l-34 -135h136zM466 385l55 224l-157 -89l-34 -135h136z" />
    <glyph glyph-name="FL201Dh" unicode="&#x201d;" horiz-adv-x="422" 
d="M385 609l-55 -224l160 89l31 135h-136zM199 609l-55 -224l160 89l31 135h-136z" />
    <glyph glyph-name="FL201Eh" unicode="&#x201e;" horiz-adv-x="422" 
d="M263 107l-56 -224l158 89l34 135h-136zM77 107l-56 -224l158 89l34 135h-136z" />
    <glyph glyph-name="FL2020h" unicode="&#x2020;" horiz-adv-x="447" 
d="M510 462h-105l36 147h-136l-36 -147h-106l-28 -116h106l-85 -346h136l85 346h105z" />
    <glyph glyph-name="FL2021h" unicode="&#x2021;" horiz-adv-x="447" 
d="M510 462h-105l36 147h-136l-36 -147h-106l-28 -116h106l-16 -66h-106l-28 -116h106l-41 -164h136l41 164h105l28 116h-105l16 66h105z" />
    <glyph glyph-name="FL2022h" unicode="&#x2022;" horiz-adv-x="487" 
d="M110 301q-11 -42 -4 -79.5t28 -65t54.5 -44t75.5 -16.5q43 0 85.5 15.5t77.5 42.5t61.5 64.5t38.5 82.5q10 42 3 80.5t-28 67.5t-55 46t-78 17t-86 -17t-77 -46.5t-60.5 -67.5t-35.5 -80z" />
    <glyph glyph-name="FL2026h" unicode="&#x2026;" horiz-adv-x="608" 
d="M449 107h136l-27 -107h-136zM263 107h136l-27 -107h-136zM77 107h136l-27 -107h-136z" />
    <glyph glyph-name="FL2030h" unicode="&#x2030;" horiz-adv-x="978" 
d="M314 103q-9 -35 -3.5 -65t22.5 -52t44 -34.5t62 -12.5q30 0 59.5 10t55 27t45.5 41t32 52q0 -57 35.5 -93t96.5 -36q35 0 68 12.5t61 34.5t48 52t29 65t4 65.5t-22 53t-44.5 35.5t-62.5 13q-30 0 -59.5 -10t-55 -28t-46.5 -42.5t-34 -52.5q2 57 -33 94.5t-96 37.5
q-51 0 -100 -28l357 367h-160l-141 -145q5 10 8.5 19.5t7.5 20.5q8 35 2.5 65.5t-22.5 53t-44 35.5t-62 13t-68 -13t-61 -36t-48 -53.5t-28 -64.5q-9 -35 -3.5 -65t22.5 -52t44 -34.5t62 -12.5q25 0 48 6.5t46 17.5l-355 -364h161l144 149q-5 -11 -9.5 -22.5t-6.5 -23.5z
M274 503q5 21 23 37t40 16q23 0 34.5 -16t6.5 -37q-6 -23 -24.5 -37t-40.5 -14q-21 0 -32.5 15t-6.5 36zM427 102q5 21 23 37t40 16q23 0 34.5 -16t6.5 -37q-5 -23 -24 -37t-41 -14q-21 0 -32.5 15t-6.5 36zM751 103q5 21 23.5 37t40.5 16q23 0 34 -16t6 -37q-5 -23 -24 -37
t-41 -14q-21 0 -32.5 15t-6.5 36z" />
    <glyph glyph-name="FL2039h" unicode="&#x2039;" horiz-adv-x="283" 
d="M354 389l-64 82l-186 -150l114 -152l102 82l-52 70z" />
    <glyph glyph-name="FL203Ah" unicode="&#x203a;" horiz-adv-x="283" 
d="M122 389l100 82l114 -150l-188 -152l-62 82l86 70z" />
    <glyph glyph-name="mu" unicode="&#x2122;" horiz-adv-x="1008" 
d="M1054 290q6 16 -72 45q47 6 55 33l1 7l-120 32q27 1 33 33l-10 12h-149l13 36l-44 4l-134 -23l1 6l5 17l-17 20l-128 -53l-50 33q-20 -8 -40 -23t-53 -45l-64 21h-3q-30 0 -51 -83l-73 8l-11 -35l24 -43l-72 -11l1 -27l62 -31l-47 -29q-6 -23 13 -23l98 -18l-23 -20
l-5 -21l159 -13l-15 -29l17 -11l165 23l-8 -34l16 -7l135 58l32 -34l32 5l78 63l8 -2q15 -10 26 -15t27 -5q19 0 25 13l27 70l59 -13q21 8 24 25l1 4l1 8l-26 45h56l19 26zM1032 281l-83 -6q40 -55 36 -70l-1 -0.5t-2 -5.5l-82 12l-26 -83l-75 25l-81 -71l-49 36l-143 -59
l13 23l-13 22l-165 -26l28 40l-174 6l59 32l-145 33l78 29l-96 53l83 4l-32 52l2 26l80 -8l32 83q31 -24 56 -24q9 0 17 3l86 68l40 -35l128 52l12 -4l-3 -36l171 23l-23 -41h170l-60 -35l139 -29l6 -12h-8l-68 -17l89 -49zM918 324l-26 4l-22 -79l19 -2zM883 215l-16 7
l-18 -11l12 -12zM836 221l24 103l-18 4l-21 -73l-47 69l-24 -104l20 2l11 50q27 -51 55 -51zM731 222l18 76q-5 33 -22 33q-14 0 -18 -4q-49 -49 -71 -102h25q9 12 18 18t15 6q8 0 12.5 -6t9.5 -18zM652 328l-23 -4l-36 -104l28 7zM571 217l24 102l-16 5l-21 -70l-51 65
l-24 -104l20 3l11 49q30 -50 57 -50zM488 290q0 34 -37 34h-14q-45 -26 -63 -93q6 -16 36 -16q5 0 8.5 0.5l10.5 1.5q31 0 59 73zM388 326q-84 -11 -96 -59l-1 -7q-2 -6 1 -6q-2 -47 30 -47q5 0 9 1.5t14 3.5l5 17q-5 -1 -10.5 -1.5t-11.5 -0.5q-25 0 -17 20q4 22 25 43
q21 15 34 15q7 0 7 -1l1.5 -0.5t3.5 -2.5zM294 324l-19 -3l-36 -106l24 8zM721 272h-35l31 35zM462 274q-3 -10 -5 -16t-9 -14q-14 -5 -22.5 -7t-11.5 -2q-17 0 -10 25l1 7q21 32 40 32q11 0 19 -12q-2 -5 -1.5 -8t-0.5 -5z" />
    </font>
</defs>
</svg>
