<?xml version="1.0" standalone="no"?>
<!DOCTYPE svg PUBLIC "-//W3C//DTD SVG 1.1//EN" "http://www.w3.org/Graphics/SVG/1.1/DTD/svg11.dtd" >
<svg xmlns="http://www.w3.org/2000/svg" xmlns:xlink="http://www.w3.org/1999/xlink" version="1.1">
<metadata>
Created by FontForge 20170731 at Thu Feb 12 19:04:57 2015
 By Aleksey,,,
 Vonique 64 (c)Sharkshock Productions 2015. All Rights Reserved
</metadata>
<defs>
<font id="Vonique64-Italic" horiz-adv-x="110" >
  <font-face 
    font-family="Vonique 64"
    font-weight="400"
    font-style="italic"
    font-stretch="normal"
    units-per-em="2048"
    panose-1="2 0 5 0 0 0 0 9 0 0"
    ascent="1638"
    descent="-410"
    x-height="1432"
    cap-height="1434"
    bbox="-89 -934 2993 1938"
    underline-thickness="150"
    underline-position="-442"
    slope="-11"
    unicode-range="U+0020-F002"
  />
<missing-glyph horiz-adv-x="1024" 
d="M100 0l279 1434h824l-279 -1434h-824zM160 50h724l259 1334h-724zM548 1148q37 28 67 43q58 30 117 30q92 0 139 -47.5t31 -127.5q-9 -49 -41.5 -98.5t-112.5 -129.5q-79 -80 -125 -132t-55 -99q-7 -38 -2 -133h-32q-16 97 -6 148q15 76 124 218t124 217q11 57 -16 90
t-85 33q-38 0 -72 -17q-29 -15 -64 -40zM454 334l68 58q13 10 22 10q10 0 20 -11l44 -60q7 -11 5 -20q-2 -11 -14 -22l-68 -62q-17 -14 -24 -14q-11 0 -18 10l-47 71q-5 9 -3 18q2 10 15 22z" />
    <glyph glyph-name=".notdef" horiz-adv-x="1024" 
d="M100 0l279 1434h824l-279 -1434h-824zM160 50h724l259 1334h-724zM548 1148q37 28 67 43q58 30 117 30q92 0 139 -47.5t31 -127.5q-9 -49 -41.5 -98.5t-112.5 -129.5q-79 -80 -125 -132t-55 -99q-7 -38 -2 -133h-32q-16 97 -6 148q15 76 124 218t124 217q11 57 -16 90
t-85 33q-38 0 -72 -17q-29 -15 -64 -40zM454 334l68 58q13 10 22 10q10 0 20 -11l44 -60q7 -11 5 -20q-2 -11 -14 -22l-68 -62q-17 -14 -24 -14q-11 0 -18 10l-47 71q-5 9 -3 18q2 10 15 22z" />
    <glyph glyph-name=".null" horiz-adv-x="0" 
 />
    <glyph glyph-name="nonmarkingreturn" horiz-adv-x="508" 
 />
    <glyph glyph-name="space" unicode=" " horiz-adv-x="508" 
 />
    <glyph glyph-name="space" unicode="&#xa0;" horiz-adv-x="508" 
 />
    <glyph glyph-name="exclam" unicode="!" horiz-adv-x="291" 
d="M191 265h-102l229 1174h102zM181.5 138.5q21.5 -26.5 13.5 -64.5q-7 -37 -38.5 -63.5t-68.5 -26.5q-38 0 -59.5 26.5t-14.5 63.5q8 38 39.5 64.5t69.5 26.5q37 0 58.5 -26.5z" />
    <glyph glyph-name="quotedbl" unicode="&#x22;" horiz-adv-x="434" 
d="M301 991h-108l86 442h109zM516 991h-108l86 442h109z" />
    <glyph glyph-name="numbersign" unicode="#" horiz-adv-x="1110" 
d="M857 911h-296l-132 -303h297zM960 911l-132 -303h198l-19 -99h-222l-199 -459h-103l200 459h-297l-199 -459h-103l200 459h-185l19 99h209l132 303h-190l20 99h213l156 359h102l-155 -359h296l156 359h102l-155 -359h193l-20 -99h-217z" />
    <glyph glyph-name="dollar" unicode="$" horiz-adv-x="1104" 
d="M621 891q-69 12 -118 62q-9 9 -12 13q-65 80 -44 193q22 113 119 193q74 62 160 76l20 106h109l-21 -108q72 -16 120 -74q64 -80 42 -193h-99q14 72 -28 123q-22 28 -55 41l-66 -341q59 -7 112 -29q132 -54 195 -178q65 -126 35 -280q-39 -203 -213 -346
q-148 -122 -318 -141l-19 -99h-109l19 98q-171 15 -273 139q-118 141 -82 341h99q-27 -159 66 -271q81 -95 209 -109zM706 1327q-44 -12 -84 -45q-61 -51 -75 -123q-13 -71 28 -122q26 -33 66 -45zM729 883l-151 -775q130 18 243 111q138 115 169 276q32 162 -62 277
q-77 93 -199 111z" />
    <glyph glyph-name="percent" unicode="%" horiz-adv-x="1449" 
d="M463 175h-107l783 1091h106zM1375.5 655.5q73.5 -91.5 48.5 -220.5t-134.5 -221t-239.5 -92q-129 0 -202.5 92t-48.5 221t134.5 220.5t238.5 91.5q130 0 203.5 -91.5zM1158 663q-93 0 -171.5 -66t-97.5 -159q-18 -93 35.5 -159.5t146.5 -66.5q94 0 172.5 66.5t96.5 159.5
q19 93 -34.5 159t-147.5 66zM778.5 1259q73.5 -91 48.5 -221q-25 -129 -134.5 -221t-239.5 -92q-129 0 -202.5 92t-48.5 221q25 130 134.5 221t238.5 91q130 0 203.5 -91zM561 1266q-93 0 -171.5 -65.5t-96.5 -159.5q-18 -93 35 -159t146 -66t172.5 66t97.5 159
q18 94 -36 159.5t-147 65.5z" />
    <glyph glyph-name="ampersand" unicode="&#x26;" horiz-adv-x="1407" 
d="M744 961q7 0 3 0q-3 0 4 0l-2 1h-2h-1zM1462 851l-29 -35q-80 -102 -216 -154q3 -67 -10 -133q-45 -230 -239 -393q-192 -162 -421 -162t-359 162q-130 163 -85 393q29 151 133 282q98 126 239 200q-21 66 -6 141q25 128 132 219q108 91 235 91t199 -91q73 -91 48 -219
q-8 -42 -29 -84h-127q28 40 37 84q15 78 -29 134q-44 55 -122 55q-77 0 -144 -55q-66 -56 -81 -134q-1 -6 -2 -19q-4 -132 101 -155q-47 -9 -153 -63q2 1 -1 -1q4 2 -10 -5q-11 -5 -27 -13q-103 -59 -177 -154q-75 -99 -97 -213q-35 -179 67 -307q102 -127 281 -127t331 127
q152 128 187 307q10 51 7 104q-22 -2 -43 -2h-120q-157 0 -264 -115h-132l27 33q163 194 390 194h120q143 0 257 109h131z" />
    <glyph glyph-name="quotesingle" unicode="'" horiz-adv-x="471" 
d="M411 1525h-113l321 409h120z" />
    <glyph glyph-name="parenleft" unicode="(" horiz-adv-x="525" 
d="M268 988q141 266 354 445l58 -71q-204 -172 -330 -417q-243 -474 79 -874l-86 -71q-201 251 -198 540q3 220 123 448z" />
    <glyph glyph-name="parenright" unicode=")" horiz-adv-x="525" 
d="M480 540q-109 -289 -409 -540l-57 71q478 400 419 874q-30 245 -168 417l85 71q144 -179 181 -445q32 -228 -51 -448z" />
    <glyph glyph-name="asterisk" unicode="*" horiz-adv-x="818" 
d="M908 1028h-230l130 -163l-86 -72l-131 162l-45 -230h-102l45 230l-195 -163l-58 73l194 163h-230l20 102h230l-130 163l86 72l131 -162l45 230h102l-45 -230l195 162l58 -72l-194 -163h230z" />
    <glyph glyph-name="plus" unicode="+" horiz-adv-x="885" 
d="M567 660h336l-20 -103h-336l-65 -336h-103l65 336h-336l20 103h336l65 336h103z" />
    <glyph glyph-name="comma" unicode="," horiz-adv-x="384" 
d="M94 -98h-113l204 256h120z" />
    <glyph glyph-name="hyphen" unicode="-" horiz-adv-x="885" 
d="M883 557h-775l20 103h775z" />
    <glyph glyph-name="hyphen" unicode="&#xad;" horiz-adv-x="885" 
d="M883 557h-775l20 103h775z" />
    <glyph glyph-name="period" unicode="." horiz-adv-x="291" 
d="M181.5 138.5q21.5 -26.5 13.5 -64.5q-7 -37 -38.5 -63.5t-68.5 -26.5q-38 0 -59.5 26.5t-14.5 63.5q8 38 39.5 64.5t69.5 26.5q37 0 58.5 -26.5z" />
    <glyph glyph-name="slash" unicode="/" horiz-adv-x="960" 
d="M115 0h-115l1023 1432h115z" />
    <glyph glyph-name="zero" unicode="0" horiz-adv-x="1282" 
d="M248 719q-50 -261 54 -446q104 -184 301 -184q198 0 374 184q176 185 226 446q51 261 -53 446q-104 184 -302 184q-197 0 -373 -184q-176 -185 -227 -446zM139 719q60 306 274 522q214 217 456 217q243 0 372 -217q130 -216 70 -522q-59 -306 -273 -522
q-213 -217 -456 -217q-242 0 -372 217q-130 216 -71 522z" />
    <glyph glyph-name="one" unicode="1" horiz-adv-x="312" 
d="M480 1430l-278 -1430h-104l258 1327h-98l20 105h200v-2h2z" />
    <glyph glyph-name="two" unicode="2" horiz-adv-x="981" 
d="M891 104l-20 -104h-871l844 1097q3 2 5 6q18 30 24 61q14 72 -27 123t-114 51q-8 0 -17 -1h-3h-3q-9 -2 -12 -2l-7 -2t-9 -2q-1 0 -8 -2q-5 -2 -9 -4q-4 -1 -8 -3q-5 -2 -9 -3q-2 -1 -7 -4l-8 -4q-3 -2 -8 -5q-2 -1 -7 -4q-3 -3 -8 -6q-4 -3 -6 -5l-8 -6l-5 -5
q-5 -4 -8 -7q-1 -1 -4 -5q-5 -5 -8 -9l-3 -3q-5 -6 -8 -11h-1q-21 -29 -30 -60q-4 -10 -6 -20q-1 -9 -2 -19q0 2 0 -3q-1 -9 -1 -15q1 -1 1 -3q0 -8 2 -16l-1 -1l4 -16h-118q-3 37 4 73q2 6 6 20q30 111 127 188q98 76 210 76q119 0 187 -84q63 -68 52 -158t-78 -172
l-708 -931h684z" />
    <glyph glyph-name="three" unicode="3" horiz-adv-x="1145" 
d="M1048 857q124 -150 83 -363t-224 -364q-181 -150 -397 -150q-194 0 -316 127q-121 125 -113 312h113q0 -141 95 -233q95 -94 243 -94q170 0 313 118q142 118 174 284q24 126 -29 230q-53 115 -186 193l-64 49l94 83q77 79 88 133q14 73 -28 124q-42 52 -116 52
q-8 0 -17 -1q2 0 -7 -1q-8 -1 -11 -2q0 1 -7 -1q-6 -2 -10 -3q-2 0 -8 -2l-9 -3t-7 -3q-6 -3 -9 -4t-8 -4q-3 -2 -8 -4q-3 -2 -8 -5q-2 -1 -6 -4q-5 -3 -8 -6q-4 -2 -7 -5q-5 -4 -8 -6q-3 -3 -6 -5q-5 -5 -7 -8q-1 0 -5 -4q-5 -6 -8 -9q1 1 -2 -3q-5 -6 -8 -11l-2 -1
q-20 -29 -30 -60q-3 -11 -5 -21q-2 -9 -3 -19q0 1 0 -3q0 -9 -1 -16q1 0 1 -2q0 -9 2 -16q0 -3 0 -1q1 -9 3 -17h-119q-2 38 5 74q1 6 5 21q30 112 127 189q99 78 213 78q120 0 188 -84q69 -85 46 -204q-25 -126 -118 -204q72 -47 132 -121z" />
    <glyph glyph-name="four" unicode="4" horiz-adv-x="1182" 
d="M977 1108l-613 -585h498zM1168 523l-22 -114h-177l-80 -409h-126l80 409h-763l3 2h-2l1087 1021l-177 -909h177z" />
    <glyph glyph-name="five" unicode="5" horiz-adv-x="1236" 
d="M769 1098q236 0 371 -161q137 -161 93 -388q-44 -228 -245 -389q-198 -160 -435 -160q-197 0 -329 117q-130 115 -144 294h112q21 -134 125 -217q105 -86 257 -86q193 0 355 130q160 129 196 311q35 183 -76 312t-303 129v1h-297v3v0l85 435v0v3h456l-20 -104h-352
l-44 -230h195v0z" />
    <glyph glyph-name="six" unicode="6" horiz-adv-x="1346" 
d="M1084 1434l-322 -249q125 21 265 -26q145 -48 231 -168q134 -186 74 -437t-278 -421q-219 -170 -468 -159t-383 197q-134 185 -74 437q60 251 279 421l522 405h154zM998 210q177 138 226 343q50 205 -60 356q-109 151 -311 160q-203 10 -382 -129q-178 -139 -227 -343
q-49 -205 60 -357q109 -150 312 -160q204 -9 382 130z" />
    <glyph glyph-name="seven" unicode="7" horiz-adv-x="1168" 
d="M1336 1432l-88 -105l-1104 -1327h-125l1104 1327h-865l20 105h1058z" />
    <glyph glyph-name="eight" unicode="8" horiz-adv-x="1148" 
d="M535 83q169 0 311 118q143 117 175 283q32 165 -65 283q-96 117 -265 117t-311 -117q-142 -118 -174 -283q-32 -166 64 -283q97 -118 265 -118zM782 1350q-73 0 -135 -51t-76 -124q-14 -72 27 -124q43 -51 116 -51t134 51q63 52 77 124q14 73 -28 124t-115 51zM896 960
q136 -57 201 -185q66 -131 35 -291q-41 -212 -222 -362q-182 -151 -397 -151t-337 151q-123 150 -82 362t223 362q90 75 199 114q-82 86 -56 215q23 119 123 203q101 84 220 84q120 0 188 -84q69 -84 46 -203q-26 -129 -141 -215z" />
    <glyph glyph-name="nine" unicode="9" horiz-adv-x="1346" 
d="M425 0l321 249q-125 -21 -265 26q-144 48 -231 168q-134 186 -74 437q61 251 279 421q219 170 468 159q248 -11 382 -197q134 -185 74 -437q-59 -251 -279 -421l-521 -405h-154zM511 1224q-178 -138 -227 -342q-50 -206 60 -357q109 -151 312 -160t382 129
q177 139 226 343q49 206 -60 357t-312 160t-381 -130z" />
    <glyph glyph-name="colon" unicode=":" horiz-adv-x="291" 
d="M261.5 548.5q21.5 -26.5 13.5 -64.5q-7 -37 -38.5 -63.5t-68.5 -26.5q-38 0 -59.5 26.5t-14.5 63.5q8 38 39.5 64.5t69.5 26.5q37 0 58.5 -26.5zM351.5 1013.5q21.5 -26.5 14.5 -64.5q-8 -37 -39.5 -63.5t-68.5 -26.5q-38 0 -59.5 26.5t-13.5 63.5q7 38 38.5 64.5
t69.5 26.5q37 0 58.5 -26.5z" />
    <glyph glyph-name="semicolon" unicode=";" horiz-adv-x="396" 
d="M456.5 1013.5q21.5 -26.5 13.5 -64.5q-7 -37 -38.5 -63.5t-69.5 -26.5t-59.5 26.5t-14.5 63.5q8 38 39.5 64.5t69.5 26.5t59.5 -26.5zM173 309h-113l204 256h120z" />
    <glyph glyph-name="semicolon" unicode="&#x37e;" horiz-adv-x="396" 
d="M456.5 1013.5q21.5 -26.5 13.5 -64.5q-7 -37 -38.5 -63.5t-69.5 -26.5t-59.5 26.5t-14.5 63.5q8 38 39.5 64.5t69.5 26.5t59.5 -26.5zM173 309h-113l204 256h120z" />
    <glyph glyph-name="less" unicode="&#x3c;" horiz-adv-x="1084" 
d="M1017 220l-876 504l1072 505l-24 -125q-81 -38 -424 -199q-309 -146 -383 -181q182 -104 659 -379z" />
    <glyph glyph-name="equal" unicode="=" horiz-adv-x="885" 
d="M854 407h-775l20 103h775zM908 687h-775l20 103h775z" />
    <glyph glyph-name="greater" unicode="&#x3e;" horiz-adv-x="1084" 
d="M67 345q584 275 806 379q-60 35 -313 181q-281 161 -345 199l24 125l876 -505l-1072 -504z" />
    <glyph glyph-name="question" unicode="?" horiz-adv-x="1285" 
d="M1255 1303q141 -165 96 -400q-43 -217 -227 -379q-183 -160 -410 -181l-16 -83h-108l37 190h48v0q198 0 362 133q166 133 203 320q36 187 -77 320t-312 133q-197 0 -363 -132q-165 -133 -200 -316l-1 -1v-2h-111v2l1 1q44 228 248 394q204 165 447 165t383 -164z
M684.5 138.5q21.5 -26.5 13.5 -64.5q-7 -37 -38.5 -63.5t-69.5 -26.5t-59.5 26.5t-14.5 63.5q8 38 39.5 64.5t69.5 26.5t59.5 -26.5z" />
    <glyph glyph-name="at" unicode="@" horiz-adv-x="1620" 
d="M825 365q131 0 240 92q110 92 136 223q25 130 -49 222q-74 93 -205 93q-130 0 -240 -93q-110 -92 -135 -222q-26 -131 48 -223q75 -92 205 -92zM1037 1456q313 0 491 -221t117 -533l-1 -5q-49 -260 -171 -362q-56 -47 -121 -47q-35 2 -71 25q-69 43 -88 145
q-74 -89 -175 -140q-104 -53 -213 -53q-171 0 -269 122q-98 121 -64 293q33 171 178 293q145 121 316 121q200 0 296 -158h89l-50 -256q-32 -165 11 -242q24 -43 63 -50q20 0 40 17q86 72 129 291l1 6q53 270 -102 462t-426 192q-270 0 -499 -192t-282 -462
q-41 -210 48 -381t274 -239l-51 -94q-214 78 -315 275q-103 197 -56 439q61 312 325 533t576 221z" />
    <glyph glyph-name="A" unicode="A" horiz-adv-x="1601" 
d="M1510 -2h-127l-396 1188l-854 -1188h-133l937 1302v1l98 134l44 -130z" />
    <glyph glyph-name="B" unicode="B" horiz-adv-x="1213" 
d="M583 103q115 1 233 54q230 105 279 360q50 256 -140 360q-97 54 -211 54h-459l-161 -828h459zM362 1327l-57 -292h496q113 0 174 64q35 36 44 81q18 90 -63 127q-44 20 -99 20h-495zM988 984q282 -123 215 -467q-62 -320 -355 -450q-151 -67 -285 -67h-459v0h-104
l279 1435h599q105 0 178 -52q99 -68 72 -203q-25 -128 -140 -196z" />
    <glyph glyph-name="C" unicode="C" horiz-adv-x="1536" 
d="M1553 515q-110 -232 -337 -384q-229 -154 -482 -154q-307 0 -482 217q-175 218 -115 525q59 306 319 524q260 217 567 217q257 0 427 -159q169 -155 183 -394h-112q-21 194 -162 320q-144 127 -357 127q-264 0 -486 -186t-273 -449q-52 -264 98 -450t414 -186
q208 0 399 123q187 120 287 309h112z" />
    <glyph glyph-name="D" unicode="D" horiz-adv-x="1443" 
d="M1112 273q196 155 252 443q56 289 -80 444q-100 114 -295 150q-101 19 -178 13h-2h-447l-236 -1214h449q330 0 537 164zM1373 1239q164 -187 99 -523t-303 -523q-167 -132 -400 -175q-122 -23 -220 -17h-444v0h-105l279 1431h189l359 -1q140 0 225 -17q204 -42 321 -175z
" />
    <glyph glyph-name="E" unicode="E" horiz-adv-x="1206" 
d="M1171 408h-818l21 105h818zM1354 1328h-987l-237 -1222h987l-21 -106h-1096l279 1435h1096z" />
    <glyph glyph-name="F" unicode="F" horiz-adv-x="1206" 
d="M1171 408h-818l21 105h818zM1354 1328h-987l-258 -1327l-109 -1l279 1435h1096z" />
    <glyph glyph-name="G" unicode="G" horiz-adv-x="1575" 
d="M1554 504q-118 -230 -341 -377q-228 -150 -474 -150q-308 0 -483 218q-176 218 -116 526t320 526t568 218q258 0 430 -159q168 -157 183 -401h-118q-22 196 -163 320q-143 126 -354 126q-261 0 -480 -184q-221 -185 -272 -446t98 -445q148 -185 409 -185q166 0 329 85
q156 82 269 220h-788l21 108h962z" />
    <glyph glyph-name="H" unicode="H" horiz-adv-x="1307" 
d="M1476 1434l-279 -1434h-105l79 408h-987l-79 -408h-105l279 1434h105l-179 -922h987l179 922h105z" />
    <glyph glyph-name="I" unicode="I" horiz-adv-x="215" 
d="M105 0h-105l279 1434h105z" />
    <glyph glyph-name="J" unicode="J" horiz-adv-x="1488" 
d="M1657 1434l-324 -1667q-56 -291 -301 -497q-245 -204 -535 -204q-241 0 -403 147q-157 145 -183 327h115q32 -136 163 -248q134 -116 329 -116q244 0 451 173q206 172 254 418l324 1667h110z" />
    <glyph glyph-name="K" unicode="K" horiz-adv-x="1476" 
d="M104 -5h-105l280 1438h105zM526 520l758 -941h-148l-758 941l1098 917h149z" />
    <glyph glyph-name="L" unicode="L" horiz-adv-x="1201" 
d="M1111 105l-20 -105h-1091l279 1433h105l-259 -1328h986z" />
    <glyph glyph-name="M" unicode="M" horiz-adv-x="1416" 
d="M1584 1433l-277 -1433h-111l192 987l-738 -987l-351 977l-190 -977h-109l279 1436l428 -1176z" />
    <glyph glyph-name="N" unicode="N" horiz-adv-x="1406" 
d="M1575 1433l-279 -1433h-1l-84 103l-877 1077l-229 -1180h-105l279 1433l84 -105l877 -1077l230 1182h105z" />
    <glyph glyph-name="O" unicode="O" horiz-adv-x="1584" 
d="M754 87q262 0 484 185q221 186 272 448t-98 448q-150 185 -412 185t-484 -185q-221 -186 -272 -448t98 -448q150 -185 412 -185zM1021 1457q305 0 479 -216t114 -521q-59 -305 -317 -521t-563 -216t-479 216t-115 521q60 305 318 521t563 216z" />
    <glyph glyph-name="P" unicode="P" horiz-adv-x="1104" 
d="M732 1433q135 0 259 -67q243 -131 181 -451q-63 -321 -357 -452q-150 -66 -285 -66h-348l-77 -397h-105l279 1433h453zM363 1329l-161 -829h348q114 1 233 55q230 103 280 360q50 256 -139 360q-99 54 -213 54h-348z" />
    <glyph glyph-name="Q" unicode="Q" horiz-adv-x="1608" 
d="M337 0l16 -33q14 -32 47 -64q68 -59 168 -59h287q138 0 230 -84q46 -43 65 -89l14 -33l-62 -34l-37 -20l-14 33q-14 32 -49 63q-66 59 -167 59h-287q-138 0 -229 84q-48 44 -67 89l-13 34l62 33zM754 87q262 0 484 185q221 186 272 448t-98 448q-150 185 -412 185
t-484 -185q-221 -186 -272 -448t98 -448q150 -185 412 -185zM1021 1457q305 0 479 -216t114 -521q-59 -305 -317 -521t-563 -216t-479 216t-115 521q60 305 318 521t563 216z" />
    <glyph glyph-name="R" unicode="R" horiz-adv-x="1106" 
d="M1174 914q-53 -271 -274 -408q-139 -86 -316 -106l334 -400h-155l-331 396l-85 104h206q114 0 234 54q229 104 279 360q49 256 -139 360q-98 54 -213 54h-351l-161 -828v0l-20 -104v0l-77 -396h-105l278 1432h105v0h351q135 0 259 -67q243 -131 181 -451z" />
    <glyph glyph-name="S" unicode="S" horiz-adv-x="1143" 
d="M888 961q137 -56 202 -185q68 -131 37 -291q-41 -211 -222 -359q-181 -150 -394 -150q-212 0 -333 147q-123 146 -86 354h103q-28 -165 70 -281q98 -117 266 -117q171 0 315 120q145 119 177 286q33 169 -65 288q-98 120 -269 120q-106 0 -172 68q-10 10 -13 14
q-68 83 -45 200q23 118 123 201q99 83 217 83t186 -83q67 -83 44 -201v0h-103v0q15 75 -29 128q-43 53 -118 53t-138 -53t-78 -128q-14 -73 29 -126q42 -53 117 -53q95 0 179 -35z" />
    <glyph glyph-name="T" unicode="T" horiz-adv-x="1189" 
d="M1337 1327h-488l-258 -1327h-105l258 1327h-486l20 105h1079z" />
    <glyph glyph-name="U" unicode="U" horiz-adv-x="1418" 
d="M1450 731q-63 -304 -296 -519t-501 -215q-269 0 -418 216q-149 215 -93 520l137 702h101l-137 -702q-47 -258 79 -440t353 -182t424 181q196 181 250 439v0l137 704h101z" />
    <glyph glyph-name="V" unicode="V" horiz-adv-x="1601" 
d="M279 1435h127l396 -1187l854 1187h133l-937 -1302v-1l-98 -134l-43 130z" />
    <glyph glyph-name="W" unicode="W" horiz-adv-x="1895" 
d="M1088 5l-106 318l-230 -319l-473 1429h121l397 -1197l147 203l-330 994h121l292 -878l632 878h120l-714 -994l68 -203l861 1197h121z" />
    <glyph glyph-name="X" unicode="X" horiz-adv-x="1340" 
d="M766 459l171 -459h-124l-130 350l-266 -350h-125l350 459l-363 975h124l323 -865l658 865h125z" />
    <glyph glyph-name="Y" unicode="Y" horiz-adv-x="1248" 
d="M605 450l-326 984h115l284 -874l625 874h114l-707 -984l-88 -450h-105z" />
    <glyph glyph-name="Z" unicode="Z" horiz-adv-x="1195" 
d="M229 105h874l-20 -105h-1075l1136 1327h-886l20 105h1085z" />
    <glyph glyph-name="bracketleft" unicode="[" horiz-adv-x="303" 
d="M278 1432h98v-2h95l-20 -105h-95l-238 -1220h95l-20 -105h-193z" />
    <glyph glyph-name="backslash" unicode="\" horiz-adv-x="960" 
d="M278 1432h115l467 -1432h-115z" />
    <glyph glyph-name="bracketright" unicode="]" horiz-adv-x="303" 
d="M193 0h-193l20 105h95l238 1220h-95l20 105h95v2h98z" />
    <glyph glyph-name="asciicircum" unicode="^" horiz-adv-x="539" 
d="M199 1026l296 415l133 -415h-107l-61 228l-154 -228h-107z" />
    <glyph glyph-name="underscore" unicode="_" horiz-adv-x="885" 
d="M755 -103h-775l20 103h775z" />
    <glyph glyph-name="grave" unicode="`" horiz-adv-x="471" 
d="M328 1934h120l161 -409h-113z" />
    <glyph glyph-name="a" unicode="a" horiz-adv-x="1584" 
d="M754 87q262 0 484 185q221 186 272 448t-98 448q-150 185 -412 185t-484 -185q-221 -186 -272 -448t98 -448q150 -185 412 -185zM1443 348q-62 -79 -146 -149q-258 -216 -563 -216t-479 216t-115 521q60 305 318 521t563 216t479 -216t114 -521l-139 -718h-99z" />
    <glyph glyph-name="b" unicode="b" horiz-adv-x="1213" 
d="M583 103q115 1 233 54q230 105 279 360q50 256 -140 360q-97 54 -211 54h-459l-161 -828h459zM362 1327l-57 -292h496q113 0 174 64q35 36 44 81q18 90 -63 127q-44 20 -99 20h-495zM988 984q282 -123 215 -467q-62 -320 -355 -450q-151 -67 -285 -67h-459v0h-104
l279 1435h599q105 0 178 -52q99 -68 72 -203q-25 -128 -140 -196z" />
    <glyph glyph-name="c" unicode="c" horiz-adv-x="1536" 
d="M1553 515q-110 -232 -337 -384q-229 -154 -482 -154q-307 0 -482 217q-175 218 -115 525q59 306 319 524q260 217 567 217q257 0 427 -159q169 -155 183 -394h-112q-21 194 -162 320q-144 127 -357 127q-264 0 -486 -186t-273 -449q-52 -264 98 -450t414 -186
q208 0 399 123q187 120 287 309h112z" />
    <glyph glyph-name="d" unicode="d" horiz-adv-x="1443" 
d="M1112 273q196 155 252 443q56 289 -80 444q-100 114 -295 150q-101 19 -178 13h-2h-447l-236 -1214h449q330 0 537 164zM1373 1239q164 -187 99 -523t-303 -523q-167 -132 -400 -175q-122 -23 -220 -17h-444v0h-105l279 1431h189l359 -1q140 0 225 -17q204 -42 321 -175z
" />
    <glyph glyph-name="e" unicode="e" horiz-adv-x="1581" 
d="M332 934q-68 -116 -87 -215q-43 -256 102 -437q146 -180 401 -186q203 6 388 125q182 117 280 303h117q-110 -233 -332 -382q-226 -152 -474 -152q-302 0 -475 213q-171 214 -112 516q58 301 313 515q255 213 557 213q252 0 420 -156q165 -153 179 -356zM1462 1032
q-40 115 -137 197q-137 113 -335 113q-247 0 -454 -166q-83 -66 -139 -144h1065z" />
    <glyph glyph-name="f" unicode="f" horiz-adv-x="1201" 
d="M184 407l-79 -407h-105l278 1432h1091l-20 -105h-1v-2h-985l-158 -813h986l-21 -105h-986z" />
    <glyph glyph-name="g" unicode="g" horiz-adv-x="1687" 
d="M1648 392h-161q-131 -189 -331 -303q-205 -117 -420 -117q-309 0 -484 218q-176 218 -116 527q60 308 320 526q261 218 570 218q258 0 429 -159q168 -157 183 -398h-115q-21 196 -162 320q-146 127 -357 127q-262 0 -485 -186q-221 -186 -272 -448q-51 -263 98 -449
q151 -185 413 -185q199 0 389 118q182 115 287 296l235 2z" />
    <glyph glyph-name="h" unicode="h" horiz-adv-x="1307" 
d="M1476 1434l-279 -1434h-105l79 408h-987l-79 -408h-105l279 1434h105l-179 -922h987l179 922h105z" />
    <glyph glyph-name="i" unicode="i" horiz-adv-x="215" 
d="M105 0h-105l279 1434h105z" />
    <glyph glyph-name="j" unicode="j" horiz-adv-x="821" 
d="M989 1432l-139 -716q-57 -295 -306 -505q-249 -209 -544 -211l22 113q248 2 458 178q209 176 257 425v0l139 716h113z" />
    <glyph glyph-name="k" unicode="k" horiz-adv-x="1286" 
d="M341 453l394 -454h-156l-326 376l-1 -1l-62 70l-86 -444h-104l279 1434h104l-192 -984l1117 984h147z" />
    <glyph glyph-name="l" unicode="l" horiz-adv-x="1201" 
d="M1111 105l-20 -105h-1091l279 1433h105l-259 -1328h986z" />
    <glyph glyph-name="m" unicode="m" horiz-adv-x="1416" 
d="M1584 1433l-277 -1433h-111l192 987l-738 -987l-351 977l-190 -977h-109l279 1436l428 -1176z" />
    <glyph glyph-name="n" unicode="n" horiz-adv-x="1418" 
d="M136 701q63 304 296 519t501 215q269 0 418 -216q149 -215 92 -520l-136 -702h-101l136 702q48 258 -78 440q-127 182 -354 182t-423 -181t-250 -439v0l-137 -704h-101z" />
    <glyph glyph-name="o" unicode="o" horiz-adv-x="1584" 
d="M754 87q262 0 484 185q221 186 272 448t-98 448q-150 185 -412 185t-484 -185q-221 -186 -272 -448t98 -448q150 -185 412 -185zM1021 1457q305 0 479 -216t114 -521q-59 -305 -317 -521t-563 -216t-479 216t-115 521q60 305 318 521t563 216z" />
    <glyph glyph-name="p" unicode="p" horiz-adv-x="1104" 
d="M732 1433q135 0 259 -67q243 -131 181 -451q-63 -321 -357 -452q-150 -66 -285 -66h-348l-77 -397h-105l279 1433h453zM363 1329l-161 -829h348q114 1 233 55q230 103 280 360q50 256 -139 360q-99 54 -213 54h-348z" />
    <glyph glyph-name="q" unicode="q" horiz-adv-x="1609" 
d="M753 100q260 0 480 184q220 185 271 446q50 259 -98 444q-149 184 -409 184t-481 -184q-220 -185 -270 -444q-51 -261 97 -446q150 -184 410 -184zM1135 103h335l-20 -106h-717q-304 0 -477 215q-173 214 -114 518q59 303 316 517q255 215 559 215q303 0 476 -215
q173 -214 114 -517q-59 -304 -316 -518q-76 -64 -156 -109z" />
    <glyph glyph-name="r" unicode="r" horiz-adv-x="1106" 
d="M553 500q114 0 234 54q229 104 279 360q49 256 -139 360q-98 54 -213 54h-351l-161 -828h351zM1174 914q-53 -271 -274 -408q-139 -86 -316 -106l334 -400h-155l-331 396h-250l-77 -396h-105l278 1432h456q135 0 259 -67q243 -131 181 -451z" />
    <glyph glyph-name="s" unicode="s" horiz-adv-x="1143" 
d="M888 961q137 -56 202 -185q68 -131 37 -291q-41 -211 -222 -359q-181 -150 -394 -150q-212 0 -333 147q-123 146 -86 354h103q-28 -165 70 -281q98 -117 266 -117q171 0 315 120q145 119 177 286q33 169 -65 288q-98 120 -269 120q-106 0 -172 68q-10 10 -13 14
q-68 83 -45 200q23 118 123 201q99 83 217 83t186 -83q67 -83 44 -201v0h-103v0q15 75 -29 128q-43 53 -118 53t-138 -53t-78 -128q-14 -73 29 -126q42 -53 117 -53q95 0 179 -35z" />
    <glyph glyph-name="t" unicode="t" horiz-adv-x="1189" 
d="M1337 1327h-488l-258 -1327h-105l258 1327h-486l20 105h1079z" />
    <glyph glyph-name="u" unicode="u" horiz-adv-x="1418" 
d="M1450 731q-63 -304 -296 -519t-501 -215q-269 0 -418 216q-149 215 -93 520l137 702h101l-137 -702q-47 -258 79 -440t353 -182t424 181q196 181 250 439v0l137 704h101z" />
    <glyph glyph-name="v" unicode="v" horiz-adv-x="1598" 
d="M279 1434h125l396 -1188l855 1188h131l-937 -1301v-1l-97 -132l-42 128z" />
    <glyph glyph-name="w" unicode="w" horiz-adv-x="1960" 
d="M1169 100v0l-72 -100l-33 100l-75 226l-163 -226v0l-72 -100l-33 100l-442 1334h105l409 -1234l163 226l72 100l33 -100l75 -226l888 1234h105z" />
    <glyph glyph-name="x" unicode="x" horiz-adv-x="1340" 
d="M766 459l171 -459h-124l-130 350l-266 -350h-125l350 459l-363 975h124l323 -865l658 865h125z" />
    <glyph glyph-name="y" unicode="y" horiz-adv-x="1315" 
d="M1488 1436l-229 -1178l-32 -163q-57 -279 -272 -478q-216 -198 -462 -198q-202 0 -336 140q-136 139 -146 361l-1 11h109l1 -7q17 -174 126 -281t270 -107q201 0 381 164q177 164 225 395l30 163l8 42q-105 -135 -252 -217q-149 -81 -301 -81q-248 0 -386 199
q-137 199 -85 479l147 756h105l-148 -755q-43 -200 64 -400q120 -171 324 -171q193 0 375 152q177 161 223 381l155 794z" />
    <glyph glyph-name="z" unicode="z" horiz-adv-x="1195" 
d="M229 105h874l-20 -105h-1075l1136 1327h-886l20 105h1085z" />
    <glyph glyph-name="braceleft" unicode="{" horiz-adv-x="467" 
d="M210 98q0 -19 32 -40q45 -30 119 -39l-20 -99q-165 40 -211 110q-13 18 -15 68l97 497q12 62 -72 123q107 61 119 123l98 502q9 41 54 80q79 68 241 93l-19 -98q-77 -10 -134 -40q-40 -21 -48 -40l-97 -497q-15 -77 -95 -123q63 -46 48 -123z" />
    <glyph glyph-name="bar" unicode="|" horiz-adv-x="215" 
d="M23 -423h-105l415 2135h105z" />
    <glyph glyph-name="braceright" unicode="}" horiz-adv-x="467" 
d="M282 595q15 77 96 123q-63 46 -48 123l97 497q-2 19 -34 40q-45 30 -118 40l19 98q152 -25 205 -93q30 -39 23 -80l-98 -502q-12 -62 72 -123q-108 -61 -120 -123l-96 -497q-22 -50 -42 -68q-73 -70 -254 -110l19 99q77 9 134 39q40 21 49 40z" />
    <glyph glyph-name="asciitilde" unicode="~" horiz-adv-x="1143" 
d="M115 594q121 165 315 165q152 0 243 -125q72 -98 187 -98q111 12 169 72l122 1q-121 -165 -315 -165q-152 0 -243 126q-74 97 -185 97q-133 -2 -164 -73h-129z" />
    <glyph glyph-name="exclamdown" unicode="&#xa1;" horiz-adv-x="291" 
d="M269 1174h102l-228 -1174h-102zM279.5 1300.5q-21.5 26.5 -14.5 64.5q8 37 39.5 63.5t68.5 26.5q38 0 59.5 -26.5t13.5 -63.5q-7 -38 -38.5 -64.5t-69.5 -26.5q-37 0 -58.5 26.5z" />
    <glyph glyph-name="cent" unicode="&#xa2;" horiz-adv-x="1050" 
d="M309 388l473 662q-46 13 -99 13q-158 0 -292 -111q-133 -112 -163 -269q-31 -158 58 -270q12 -13 23 -25zM378 337q68 -35 157 -35q124 0 238 74q112 72 177 195h99q-79 -168 -224 -265q-147 -99 -309 -99q-113 0 -198 46l-181 -253h-105l216 302q-22 20 -42 44
q-112 140 -73 337q38 196 204 336q167 139 364 139q77 0 143 -23l211 297h105l-239 -334q29 -18 54 -42q108 -100 118 -271h-98q-15 127 -99 202q-16 15 -35 26z" />
    <glyph glyph-name="sterling" unicode="&#xa3;" horiz-adv-x="1142" 
d="M444 650q7 -18 12 -32q27 -87 -5 -149q-10 -19 -134 -187q-12 -16 -111 -186h765l-19 -96h-904q68 186 189 342q93 119 105 140q21 40 7 86q-9 29 -34 82h-189l18 89h134q-21 58 -25 99q-11 114 61 240q100 179 237 276q138 97 288 96q139 -1 244 -84t124 -206
q22 -145 -89 -272h-147q147 104 126 236q-13 91 -95 153q-82 63 -185 64q-116 1 -221 -76q-105 -78 -188 -224q-53 -94 -44 -174q5 -45 41 -128h192l-18 -89h-135z" />
    <glyph glyph-name="currency" unicode="&#xa4;" horiz-adv-x="731" 
d="M267 924l-71 87l88 73l71 -89q70 42 150 42q85 0 141 -47l113 94l58 -73l-113 -95q29 -63 13 -143q-14 -80 -69 -143l77 -94l-87 -73l-75 93q-75 -46 -160 -46q-80 0 -134 42l-106 -89l-59 73l105 87q-34 66 -18 151q17 84 76 150zM373 888q-55 -46 -67 -109.5t25 -109.5
q36 -45 100 -45t118 45q54 46 66 109.5t-24 109.5q-36 45 -100 45t-118 -45z" />
    <glyph glyph-name="yen" unicode="&#xa5;" horiz-adv-x="1248" 
d="M569 556l-290 878h115l284 -874l625 874h114l-631 -878h194l-20 -103h-248l-2 -3l-22 -114h250l-20 -103h-250l-46 -233h-105l46 233h-258l20 103h258l22 114l-2 3h-256l20 103h202z" />
    <glyph glyph-name="brokenbar" unicode="&#xa6;" 
 />
    <glyph glyph-name="section" unicode="&#xa7;" horiz-adv-x="925" 
d="M390 -37q-163 0 -257 113q-93 113 -65 273h79q-22 -127 54 -217q75 -89 205 -89q131 0 241 91q111 92 136 221t-50 221t-206 92q-81 0 -133 52q-6 7 -10 11q-51 64 -34 154q18 91 94 155q14 11 32 22q-7 6 -13 12l-10 10q-52 64 -34 155q18 90 94 154t167 64
q219 0 177 -218v-1h-79v1q27 138 -113 138q-58 0 -107 -41q-49 -40 -60 -97q-11 -58 22 -98q26 -32 68 -39l24 1q120 0 174 -48q211 -120 146 -347q-39 -135 -75 -185q23 -80 6 -168q-31 -162 -171 -277q-138 -115 -302 -115zM692 78q140 115 171 277q17 88 -6 168
q36 50 75 185q65 227 -146 347q-54 48 -174 48l-24 -1q-42 7 -68 39q-33 40 -22 98q11 57 60 97q49 41 107 41q140 0 113 -138v-1h79v1q42 218 -177 218q-91 0 -167 -64t-94 -154q-18 -91 34 -155l10 -10q6 -6 13 -12q-18 -11 -32 -22q-76 -64 -94 -155q-17 -90 34 -154
q4 -4 10 -11q52 -52 133 -52q131 0 206 -92t50 -221t-136 -221q-110 -91 -241 -91q-130 0 -205 89q-76 90 -54 217h-79q-28 -160 65 -273q94 -113 257 -113q164 0 302 115zM806 625q32 13 46 83q25 130 -50 221q-75 92 -206 92q-11 0 -22 1q-46 -7 -85 -39q-48 -40 -60 -98
q-11 -57 22 -97q33 -41 91 -41q73 0 137 -27q77 -31 127 -95zM679 720q-64 27 -137 27q-58 0 -91 41q-33 40 -22 97q12 58 60 98q39 32 85 39q11 -1 22 -1q131 0 206 -92q75 -91 50 -221q-14 -70 -46 -83q-50 64 -127 95z" />
    <glyph glyph-name="dieresis" unicode="&#xa8;" horiz-adv-x="548" 
d="M473.5 1637.5q21.5 -26.5 13.5 -64.5q-7 -37 -38.5 -63.5t-68.5 -26.5q-38 0 -59.5 26.5t-14.5 63.5q8 38 39.5 64.5t69.5 26.5q37 0 58.5 -26.5zM730.5 1637.5q21.5 -26.5 13.5 -64.5q-7 -37 -38.5 -63.5t-68.5 -26.5q-38 0 -59.5 26.5t-14.5 63.5q8 38 39.5 64.5
t69.5 26.5q37 0 58.5 -26.5z" />
    <glyph glyph-name="copyright" unicode="&#xa9;" horiz-adv-x="1551" 
d="M1299 629q-78 -166 -217 -259q-143 -96 -299 -96q-189 0 -298 134q-108 134 -71 324t197 324q161 134 350 134q159 0 264 -98q104 -96 115 -265h-102q-14 122 -94 193q-81 72 -202 72q-149 0 -275 -105q-126 -106 -155 -255t55 -255q86 -105 235 -105q118 0 227 70
q106 68 168 187h102zM1468 1226q170 -211 112 -510q-58 -298 -310 -509t-551 -211q-298 0 -468 211t-112 509q58 299 310 510t550 211q299 0 469 -211zM985 1335q-254 0 -469 -180t-264 -435q-50 -254 95 -434t399 -180q255 0 470 180t265 434q49 255 -96 435t-400 180z" />
    <glyph glyph-name="ordfeminine" unicode="&#xaa;" 
 />
    <glyph glyph-name="guillemotleft" unicode="&#xab;" horiz-adv-x="1172" 
d="M756 385l-613 353l751 354l-23 -115q-61 -29 -285 -134q-201 -95 -221 -105q96 -54 414 -237zM1136 385l-613 353l751 354l-23 -115q-61 -29 -285 -134q-201 -95 -221 -105q96 -54 414 -237z" />
    <glyph glyph-name="logicalnot" unicode="&#xac;" 
 />
    <glyph glyph-name="registered" unicode="&#xae;" horiz-adv-x="1551" 
d="M1466 1216q170 -211 112 -510q-58 -298 -310 -509t-551 -211q-298 0 -468 211t-112 509q58 299 310 510t550 211q299 0 469 -211zM983 1325q-254 0 -469 -180t-264 -435q-50 -254 95 -434t399 -180q255 0 470 180t265 434q49 255 -96 435t-400 180zM859 607q63 0 129 30
q122 56 149 195t-74 195q-54 30 -117 30h-188l-87 -450h188zM1230 832q-32 -165 -167 -248q-84 -52 -159 -61l198 -235h-133l-192 229h-124l-44 -229h-91l167 859h279q82 0 156 -40q148 -80 110 -275z" />
    <glyph glyph-name="macron" unicode="&#xaf;" horiz-adv-x="1045" 
d="M1194 1330h-935l20 103h935z" />
    <glyph glyph-name="degree" unicode="&#xb0;" horiz-adv-x="448" 
d="M558 1388.5q40 -49.5 27 -119.5q-14 -70 -73 -119.5t-129 -49.5t-110 49.5t-26 119.5q13 70 72 119.5t129 49.5t110 -49.5zM428 1332q-25 0 -45.5 -17.5t-25.5 -41.5q-4 -25 9.5 -42t38.5 -17q24 0 45 17t25 42q5 24 -9 41.5t-38 17.5z" />
    <glyph glyph-name="plusminus" unicode="&#xb1;" 
 />
    <glyph glyph-name="uni00B2" unicode="&#xb2;" 
 />
    <glyph glyph-name="uni00B3" unicode="&#xb3;" 
 />
    <glyph glyph-name="acute" unicode="&#xb4;" horiz-adv-x="471" 
d="M411 1525h-113l321 409h120z" />
    <glyph glyph-name="mu" unicode="&#xb5;" horiz-adv-x="1412" 
d="M227 653q-16 -207 90 -362q127 -183 355 -183t425 182q198 183 252 442l137 702h95l-137 -702q-63 -303 -294 -518q-232 -214 -499 -214q-268 0 -416 215q-42 61 -68 130l-108 -556h-100l320 1646h100z" />
    <glyph glyph-name="paragraph" unicode="&#xb6;" horiz-adv-x="730" 
d="M522 905l-97 -496h-102l99 507q-75 18 -129 67q-87 77 -66 187q22 109 138.5 187t260.5 78v-1h273l-18 -90h-74l-182 -935h-102l182 935h-97l-85 -439h-1z" />
    <glyph glyph-name="periodcentered" unicode="&#xb7;" horiz-adv-x="291" 
d="M302.5 759.5q21.5 -26.5 13.5 -64.5q-7 -37 -38.5 -63.5t-68.5 -26.5q-38 0 -59.5 26.5t-14.5 63.5q8 38 39.5 64.5t69.5 26.5q37 0 58.5 -26.5z" />
    <glyph glyph-name="periodcentered" unicode="&#x2219;" horiz-adv-x="291" 
d="M302.5 759.5q21.5 -26.5 13.5 -64.5q-7 -37 -38.5 -63.5t-68.5 -26.5q-38 0 -59.5 26.5t-14.5 63.5q8 38 39.5 64.5t69.5 26.5q37 0 58.5 -26.5z" />
    <glyph glyph-name="cedilla" unicode="&#xb8;" horiz-adv-x="400" 
d="M-55 -312q59 0 106 23.5t54 56.5q6 33 -32 56.5t-97 23.5h-6l30 153h106l-11 -58q77 -15 119 -64q43 -50 30 -114q-15 -76 -97 -130q-83 -54 -185 -54q-21 0 -43 3l20 104h6z" />
    <glyph glyph-name="uni00B9" unicode="&#xb9;" 
 />
    <glyph glyph-name="ordmasculine" unicode="&#xba;" 
 />
    <glyph glyph-name="guillemotright" unicode="&#xbb;" horiz-adv-x="1172" 
d="M478 501q389 183 506 237q-16 10 -181 105q-183 105 -233 134l22 115l614 -354l-751 -353zM98 501q389 183 506 237q-16 10 -181 105q-183 105 -233 134l22 115l614 -354l-751 -353z" />
    <glyph glyph-name="onequarter" unicode="&#xbc;" 
 />
    <glyph glyph-name="onehalf" unicode="&#xbd;" 
 />
    <glyph glyph-name="threequarters" unicode="&#xbe;" 
 />
    <glyph glyph-name="questiondown" unicode="&#xbf;" horiz-adv-x="1285" 
d="M201 146q-141 165 -95 400q42 217 226 379q183 160 411 181l16 83h108l-37 -190h-48v0q-198 0 -363 -133q-166 -133 -202 -320q-37 -187 76 -320q114 -133 313 -133q197 0 362 132q165 133 201 316v1v2h111v-2v-1q-45 -228 -249 -394q-204 -165 -447 -165t-383 164z
M938 1481.5q21 -26.5 14 -64.5q-7 -37 -39 -63.5t-70 -26.5t-59 26.5t-14 63.5q7 38 39 64.5t70 26.5t59 -26.5z" />
    <glyph glyph-name="Agrave" unicode="&#xc0;" horiz-adv-x="1615" 
d="M1231 511l-238 722l-521 -722h759zM1266 406h-869l-292 -406h-105l959 1332v1l72 99l33 -100l441 -1332h-105zM796 1705h120l105 -256h-113z" />
    <glyph glyph-name="Aacute" unicode="&#xc1;" horiz-adv-x="1615" 
d="M1231 511l-238 722l-521 -722h759zM1266 406h-869l-292 -406h-105l959 1332v1l72 99l33 -100l441 -1332h-105zM1150 1449h-113l203 256h120z" />
    <glyph glyph-name="Acircumflex" unicode="&#xc2;" horiz-adv-x="1615" 
d="M880 1460l205 249l109 -249h-102l-35 97l-75 -97h-102zM1231 511l-238 722l-521 -722h759zM1266 406h-869l-292 -406h-105l959 1332v1l72 99l33 -100l441 -1332h-105z" />
    <glyph glyph-name="Atilde" unicode="&#xc3;" horiz-adv-x="1615" 
d="M1231 511l-238 722l-521 -722h759zM1266 406h-869l-292 -406h-105l959 1332v1l72 99l33 -100l441 -1332h-105zM728 1559q95 129 216 129q94 0 150 -77q37 -51 95 -51q55 6 89 42h107q-94 -129 -215 -129q-95 0 -151 78q-38 50 -94 50q-63 -1 -81 -42h-116z" />
    <glyph glyph-name="Adieresis" unicode="&#xc4;" horiz-adv-x="1615" 
d="M1231 511l-238 722l-521 -722h759zM1266 406h-869l-292 -406h-105l959 1332v1l72 99l33 -100l441 -1332h-105zM1010.5 1637.5q21.5 -26.5 14.5 -64.5q-7 -37 -39 -63.5t-69 -26.5q-38 0 -59 26.5t-14 63.5q7 38 38.5 64.5t69.5 26.5q37 0 58.5 -26.5zM1267.5 1637.5
q21.5 -26.5 14.5 -64.5q-7 -37 -39 -63.5t-69 -26.5q-38 0 -59 26.5t-14 63.5q7 38 38.5 64.5t69.5 26.5q37 0 58.5 -26.5z" />
    <glyph glyph-name="Aring" unicode="&#xc5;" horiz-adv-x="1615" 
d="M1231 511l-238 722l-521 -722h759zM1266 406h-869l-292 -406h-105l959 1332v1l72 99l33 -100l441 -1332h-105zM1156 1677.5q27 -33.5 17 -80.5q-9 -47 -49 -80t-87 -33t-73.5 33t-17.5 80q10 47 49.5 80.5t86.5 33.5t74 -33.5zM1068 1639q-16 0 -30 -11.5t-17 -27.5
q-3 -17 6 -28.5t25 -11.5q17 0 31 11.5t17 28.5q3 16 -6 27.5t-26 11.5z" />
    <glyph glyph-name="AE" unicode="&#xc6;" horiz-adv-x="1660" 
d="M1031 513h615l-21 -105h-615l-58 -302h619l-21 -106h-724l78 408h-461l-308 -408h-135l1099 1425l2 9l728 1l-20 -105h-619zM924 513l131 674l-530 -674h399z" />
    <glyph glyph-name="Ccedilla" unicode="&#xc7;" horiz-adv-x="1545" 
d="M710 -10q-290 6 -458 213q-171 214 -112 516q58 301 313 515q255 213 557 213q252 0 420 -156q165 -153 180 -392h-117q-21 191 -158 313q-141 123 -347 123q-256 0 -472 -180q-215 -181 -264 -436q-50 -256 95 -437q146 -180 402 -180q202 0 387 119q182 117 280 303
h117q-110 -233 -332 -382q-185 -124 -384 -147l-10 -52q77 -15 119 -64q43 -50 30 -114q-15 -76 -97 -130q-83 -54 -185 -54q-21 0 -43 3l20 104h6q59 0 106 23.5t54 56.5q6 33 -32 56.5t-97 23.5h-6z" />
    <glyph glyph-name="Egrave" unicode="&#xc8;" horiz-adv-x="1204" 
d="M364 1330l-159 -817h989l-21 -105h-989l-59 -303h989l-20 -105h-989v0h-105l279 1437h105v-2h989l-20 -105h-989zM746 1705h120l105 -256h-113z" />
    <glyph glyph-name="Eacute" unicode="&#xc9;" horiz-adv-x="1204" 
d="M364 1330l-159 -817h989l-21 -105h-989l-59 -303h989l-20 -105h-989v0h-105l279 1437h105v-2h989l-20 -105h-989zM850 1449h-113l203 256h120z" />
    <glyph glyph-name="Ecircumflex" unicode="&#xca;" horiz-adv-x="1204" 
d="M364 1330l-159 -817h989l-21 -105h-989l-59 -303h989l-20 -105h-989v0h-105l279 1437h105v-2h989l-20 -105h-989zM730 1460l205 249l109 -249h-102l-35 97l-75 -97h-102z" />
    <glyph glyph-name="Edieresis" unicode="&#xcb;" horiz-adv-x="1204" 
d="M364 1330l-159 -817h989l-21 -105h-989l-59 -303h989l-20 -105h-989v0h-105l279 1437h105v-2h989l-20 -105h-989zM840.5 1637.5q21.5 -26.5 14.5 -64.5q-7 -37 -39 -63.5t-69 -26.5q-38 0 -59 26.5t-14 63.5q7 38 38.5 64.5t69.5 26.5q37 0 58.5 -26.5zM1097.5 1637.5
q21.5 -26.5 14.5 -64.5q-7 -37 -39 -63.5t-69 -26.5q-38 0 -59 26.5t-14 63.5q7 38 38.5 64.5t69.5 26.5q37 0 58.5 -26.5z" />
    <glyph glyph-name="Igrave" unicode="&#xcc;" horiz-adv-x="384" 
d="M268 0h-105l279 1434h105zM339 1743h120l104 -256h-113z" />
    <glyph glyph-name="Iacute" unicode="&#xcd;" horiz-adv-x="384" 
d="M109 0h-105l279 1434h105zM404 1497h-113l204 256h120z" />
    <glyph glyph-name="Icircumflex" unicode="&#xce;" horiz-adv-x="423" 
d="M209 0h-105l279 1434h105zM290 1490l205 249l108 -249h-101l-36 97l-75 -97h-101z" />
    <glyph glyph-name="Idieresis" unicode="&#xcf;" horiz-adv-x="548" 
d="M268 0h-105l279 1434h105zM476.5 1657.5q21.5 -26.5 14.5 -64.5q-8 -37 -39.5 -63.5t-68.5 -26.5q-38 0 -59.5 26.5t-13.5 63.5q7 38 38.5 64.5t69.5 26.5q37 0 58.5 -26.5zM733.5 1657.5q21.5 -26.5 14.5 -64.5q-8 -37 -39.5 -63.5t-68.5 -26.5q-38 0 -59.5 26.5
t-13.5 63.5q7 38 38.5 64.5t69.5 26.5q37 0 58.5 -26.5z" />
    <glyph glyph-name="Eth" unicode="&#xd0;" horiz-adv-x="1632" 
d="M622 788l-20 -102h-175l-112 -577h449q330 0 537 164q196 155 252 443q56 289 -80 444q-100 114 -295 150q-101 19 -178 13h-449l-104 -535h175zM343 788l125 644h189l359 -1q140 0 225 -17q204 -42 320 -175q165 -187 100 -523t-303 -523q-167 -132 -400 -175
q-122 -23 -220 -17h-549l133 685h-189l20 102h190z" />
    <glyph glyph-name="Ntilde" unicode="&#xd1;" horiz-adv-x="1406" 
d="M1575 1433l-279 -1433h-1l-84 103l-877 1077l-229 -1180h-105l279 1433l84 -105l877 -1077l230 1182h105zM678 1559q95 129 216 129q94 0 150 -77q37 -51 95 -51q55 6 89 42h107q-94 -129 -215 -129q-95 0 -151 78q-38 50 -94 50q-63 -1 -81 -42h-116z" />
    <glyph glyph-name="Ograve" unicode="&#xd2;" horiz-adv-x="1594" 
d="M760 92q260 0 479 184q220 184 271 444q50 260 -98 444t-408 184t-480 -184t-270 -444q-51 -260 97 -444q149 -184 409 -184zM1026 1462q307 0 483 -217q174 -218 115 -525q-60 -307 -319 -525q-261 -217 -568 -217t-482 217q-175 218 -115 525q59 307 319 525
q260 217 567 217zM878 1716h120l82 -202h-113z" />
    <glyph glyph-name="Oacute" unicode="&#xd3;" horiz-adv-x="1594" 
d="M760 92q260 0 479 184q220 184 271 444q50 260 -98 444t-408 184t-480 -184t-270 -444q-51 -260 97 -444q149 -184 409 -184zM1026 1462q307 0 483 -217q174 -218 115 -525q-60 -307 -319 -525q-261 -217 -568 -217t-482 217q-175 218 -115 525q59 307 319 525
q260 217 567 217zM1094 1514h-113l160 202h120z" />
    <glyph glyph-name="Ocircumflex" unicode="&#xd4;" horiz-adv-x="1594" 
d="M760 92q260 0 479 184q220 184 271 444q50 260 -98 444t-408 184t-480 -184t-270 -444q-51 -260 97 -444q149 -184 409 -184zM1026 1462q307 0 483 -217q174 -218 115 -525q-60 -307 -319 -525q-261 -217 -568 -217t-482 217q-175 218 -115 525q59 307 319 525
q260 217 567 217zM890 1483l186 226l99 -226h-92l-32 88l-69 -88h-92z" />
    <glyph glyph-name="Otilde" unicode="&#xd5;" horiz-adv-x="1594" 
d="M760 92q260 0 479 184q220 184 271 444q50 260 -98 444t-408 184t-480 -184t-270 -444q-51 -260 97 -444q149 -184 409 -184zM1026 1462q307 0 483 -217q174 -218 115 -525q-60 -307 -319 -525q-261 -217 -568 -217t-482 217q-175 218 -115 525q59 307 319 525
q260 217 567 217zM728 1559q95 129 216 129q94 0 150 -77q37 -51 95 -51q55 6 89 42h107q-94 -129 -215 -129q-95 0 -151 78q-38 50 -94 50q-63 -1 -81 -42h-116z" />
    <glyph glyph-name="Odieresis" unicode="&#xd6;" horiz-adv-x="1594" 
d="M760 92q260 0 479 184q220 184 271 444q50 260 -98 444t-408 184t-480 -184t-270 -444q-51 -260 97 -444q149 -184 409 -184zM1026 1462q307 0 483 -217q174 -218 115 -525q-60 -307 -319 -525q-261 -217 -568 -217t-482 217q-175 218 -115 525q59 307 319 525
q260 217 567 217zM1010.5 1637.5q21.5 -26.5 13.5 -64.5q-7 -37 -38.5 -63.5t-68.5 -26.5q-38 0 -59.5 26.5t-14.5 63.5q8 38 39.5 64.5t69.5 26.5q37 0 58.5 -26.5zM1267.5 1637.5q21.5 -26.5 13.5 -64.5q-7 -37 -38.5 -63.5t-68.5 -26.5q-38 0 -59.5 26.5t-14.5 63.5
q8 38 39.5 64.5t69.5 26.5q37 0 58.5 -26.5z" />
    <glyph glyph-name="multiply" unicode="&#xd7;" horiz-adv-x="731" 
d="M442 681l285 238l58 -73l-284 -237l192 -238l-87 -73l-192 238l-283 -238l-59 73l284 238l-192 237l88 73z" />
    <glyph glyph-name="Oslash" unicode="&#xd8;" horiz-adv-x="1594" 
d="M1026 1462q307 0 483 -217q174 -218 115 -525q-60 -307 -319 -525q-261 -217 -568 -217t-482 217q-175 218 -115 525q59 307 319 525q260 217 567 217zM337 -107h-122l1187 1661h122zM760 92q260 0 479 184q220 184 271 444q50 260 -98 444t-408 184t-480 -184t-270 -444
q-51 -260 97 -444q149 -184 409 -184z" />
    <glyph glyph-name="Ugrave" unicode="&#xd9;" horiz-adv-x="1412" 
d="M1444 731v0q-63 -303 -295 -517q-231 -214 -498 -214q-268 0 -417 215q-148 214 -92 518l136 699h95l-136 -699v0q-47 -259 79 -442q128 -183 356 -183t425 182t252 441v0l136 701h95zM796 1705h120l104 -256h-113z" />
    <glyph glyph-name="Uacute" unicode="&#xda;" horiz-adv-x="1412" 
d="M1444 731v0q-63 -303 -295 -517q-231 -214 -498 -214q-268 0 -417 215q-148 214 -92 518l136 699h95l-136 -699v0q-47 -259 79 -442q128 -183 356 -183t425 182t252 441v0l136 701h95zM929 1449h-113l204 256h120z" />
    <glyph glyph-name="Ucircumflex" unicode="&#xdb;" horiz-adv-x="1412" 
d="M1444 731v0q-63 -303 -295 -517q-231 -214 -498 -214q-268 0 -417 215q-148 214 -92 518l136 699h95l-136 -699v0q-47 -259 79 -442q128 -183 356 -183t425 182t252 441v0l136 701h95zM789 1460l206 249l108 -249h-102l-35 97l-75 -97h-102z" />
    <glyph glyph-name="Udieresis" unicode="&#xdc;" horiz-adv-x="1412" 
d="M1444 731v0q-63 -303 -295 -517q-231 -214 -498 -214q-268 0 -417 215q-148 214 -92 518l136 699h95l-136 -699v0q-47 -259 79 -442q128 -183 356 -183t425 182t252 441v0l136 701h95zM920.5 1637.5q21.5 -26.5 13.5 -64.5q-7 -37 -38.5 -63.5t-68.5 -26.5
q-38 0 -59.5 26.5t-14.5 63.5q8 38 39.5 64.5t69.5 26.5q37 0 58.5 -26.5zM1177.5 1637.5q21.5 -26.5 13.5 -64.5q-7 -37 -38.5 -63.5t-68.5 -26.5q-38 0 -59.5 26.5t-14.5 63.5q8 38 39.5 64.5t69.5 26.5q37 0 58.5 -26.5z" />
    <glyph glyph-name="Yacute" unicode="&#xdd;" horiz-adv-x="1248" 
d="M605 450l-326 984h115l284 -874l625 874h114l-707 -984l-88 -450h-105zM890 1449h-113l204 256h120z" />
    <glyph glyph-name="Thorn" unicode="&#xde;" horiz-adv-x="1105" 
d="M323 1119l-161 -829h348q114 1 233 55q230 103 280 360q49 256 -139 360q-99 54 -213 54h-348zM337 1223h354q135 0 259 -67q244 -131 182 -451q-63 -321 -357 -452q-150 -66 -285 -66h-348l-36 -187h-105v2h-1l279 1433h100z" />
    <glyph glyph-name="germandbls" unicode="&#xdf;" horiz-adv-x="1105" 
d="M807 1448q226 3 338 -133q86 -105 53 -273q-19 -95 -117 -169q-56 -42 -208 -101t-27 -111t167 -91q74 -68 55 -167q-27 -137 -138 -257q-146 -156 -351 -156q-196 0 -287 82q-92 82 -63 232h104q-22 -118 68 -171q68 -40 198 -40q162 0 270 125q77 88 96 185
q10 51 -37 90q-32 28 -122 69q-76 34 -101 56q-42 36 -33 85q10 53 70 95q35 25 130 68q107 50 151 81q62 44 72 95q24 124 -36 199q-54 65 -167 91q-58 13 -104 12q-256 0 -392 -144q-71 -74 -89 -152l-204 -1050h-103l204 1051q22 100 110 201q173 198 493 198z" />
    <glyph glyph-name="agrave" unicode="&#xe0;" horiz-adv-x="1615" 
d="M754 87q262 0 484 185q221 186 272 448t-98 448q-150 185 -412 185t-484 -185q-221 -186 -272 -448t98 -448q150 -185 412 -185zM1443 348q-62 -79 -146 -149q-258 -216 -563 -216t-479 216t-115 521q60 305 318 521t563 216t479 -216t114 -521l-139 -718h-99zM888 1934
h120l162 -409h-113z" />
    <glyph glyph-name="aacute" unicode="&#xe1;" horiz-adv-x="1615" 
d="M754 87q262 0 484 185q221 186 272 448t-98 448q-150 185 -412 185t-484 -185q-221 -186 -272 -448t98 -448q150 -185 412 -185zM1443 348q-62 -79 -146 -149q-258 -216 -563 -216t-479 216t-115 521q60 305 318 521t563 216t479 -216t114 -521l-139 -718h-99zM1042 1525
h-113l320 409h120z" />
    <glyph glyph-name="acircumflex" unicode="&#xe2;" horiz-adv-x="1615" 
d="M754 87q262 0 484 185q221 186 272 448t-98 448q-150 185 -412 185t-484 -185q-221 -186 -272 -448t98 -448q150 -185 412 -185zM1443 348q-62 -79 -146 -149q-258 -216 -563 -216t-479 216t-115 521q60 305 318 521t563 216t479 -216t114 -521l-139 -718h-99zM888 1500
l205 249l108 -249h-101l-35 97l-76 -97h-101z" />
    <glyph glyph-name="atilde" unicode="&#xe3;" horiz-adv-x="1615" 
d="M754 87q262 0 484 185q221 186 272 448t-98 448q-150 185 -412 185t-484 -185q-221 -186 -272 -448t98 -448q150 -185 412 -185zM1443 348q-62 -79 -146 -149q-258 -216 -563 -216t-479 216t-115 521q60 305 318 521t563 216t479 -216t114 -521l-139 -718h-99zM731 1559
q95 129 216 129q94 0 150 -77q38 -51 96 -51q55 6 89 42h107q-94 -129 -215 -129q-95 0 -151 78q-38 50 -94 50q-64 -1 -82 -42h-116z" />
    <glyph glyph-name="adieresis" unicode="&#xe4;" horiz-adv-x="1615" 
d="M754 87q262 0 484 185q221 186 272 448t-98 448q-150 185 -412 185t-484 -185q-221 -186 -272 -448t98 -448q150 -185 412 -185zM1443 348q-62 -79 -146 -149q-258 -216 -563 -216t-479 216t-115 521q60 305 318 521t563 216t479 -216t114 -521l-139 -718h-99z
M1007 1637.5q21 -26.5 14 -64.5q-7 -37 -38.5 -63.5t-68.5 -26.5q-38 0 -59.5 26.5t-14.5 63.5q7 38 39 64.5t70 26.5q37 0 58 -26.5zM1264 1637.5q21 -26.5 14 -64.5q-7 -37 -38.5 -63.5t-68.5 -26.5q-38 0 -59.5 26.5t-14.5 63.5q7 38 39 64.5t70 26.5q37 0 58 -26.5z" />
    <glyph glyph-name="aring" unicode="&#xe5;" horiz-adv-x="1615" 
d="M754 87q262 0 484 185q221 186 272 448t-98 448q-150 185 -412 185t-484 -185q-221 -186 -272 -448t98 -448q150 -185 412 -185zM1443 348q-62 -79 -146 -149q-258 -216 -563 -216t-479 216t-115 521q60 305 318 521t563 216t479 -216t114 -521l-139 -718h-99z
M1161 1687.5q27 -33.5 18 -80.5t-49 -80t-87 -33t-73.5 33t-17.5 80t48.5 80.5t86.5 33.5t74 -33.5zM1073 1649q-16 0 -30 -11.5t-17 -27.5q-3 -17 6.5 -28.5t25.5 -11.5q17 0 30.5 11.5t16.5 28.5q3 16 -6 27.5t-26 11.5z" />
    <glyph glyph-name="ae" unicode="&#xe6;" horiz-adv-x="2928" 
d="M2855 1004q-39 126 -139 216q-142 124 -350 124q-258 0 -476 -182q-88 -73 -148 -158h1113zM760 92q260 0 479 184q220 184 271 444q50 260 -98 444t-408 184t-480 -184t-270 -444q-51 -260 97 -444q149 -184 409 -184zM1443 334q-61 -74 -138 -139q-261 -217 -568 -217
t-482 217q-175 218 -115 525q59 307 319 525q260 217 567 217t483 -217q84 -106 114 -232q78 125 202 229q258 215 563 215q255 0 424 -158q166 -154 181 -395h-118l1 1h-1192q-35 -69 -54 -145q-2 -20 -6 -40q-4 -19 -9 -38q-32 -233 103 -401q148 -182 406 -182
q204 0 391 120q183 118 283 306h118q-112 -235 -336 -386q-227 -153 -478 -153q-305 0 -479 215q-49 60 -79 127l-63 -328h-103z" />
    <glyph glyph-name="ccedilla" unicode="&#xe7;" horiz-adv-x="1545" 
d="M710 -10q-290 6 -458 213q-171 214 -112 516q58 301 313 515q255 213 557 213q252 0 420 -156q165 -153 180 -392h-117q-21 191 -158 313q-141 123 -347 123q-256 0 -472 -180q-215 -181 -264 -436q-50 -256 95 -437q146 -180 402 -180q202 0 387 119q182 117 280 303
h117q-110 -233 -332 -382q-185 -124 -384 -147l-10 -52q77 -15 119 -64q43 -50 30 -114q-15 -76 -97 -130q-83 -54 -185 -54q-21 0 -43 3l20 104h6q59 0 106 23.5t54 56.5q6 33 -32 56.5t-97 23.5h-6z" />
    <glyph glyph-name="egrave" unicode="&#xe8;" horiz-adv-x="1581" 
d="M332 934q-68 -116 -87 -215q-43 -256 102 -437q146 -180 401 -186q203 6 388 125q182 117 280 303h117q-110 -233 -332 -382q-226 -152 -474 -152q-302 0 -475 213q-171 214 -112 516q58 301 313 515q255 213 557 213q252 0 420 -156q165 -153 179 -356zM1462 1032
q-40 115 -137 197q-137 113 -335 113q-247 0 -454 -166q-83 -66 -139 -144h1065zM851 1934h120l161 -409h-113z" />
    <glyph glyph-name="eacute" unicode="&#xe9;" horiz-adv-x="1581" 
d="M332 934q-68 -116 -87 -215q-43 -256 102 -437q146 -180 401 -186q203 6 388 125q182 117 280 303h117q-110 -233 -332 -382q-226 -152 -474 -152q-302 0 -475 213q-171 214 -112 516q58 301 313 515q255 213 557 213q252 0 420 -156q165 -153 179 -356zM1462 1032
q-40 115 -137 197q-137 113 -335 113q-247 0 -454 -166q-83 -66 -139 -144h1065zM1004 1525h-113l321 409h120z" />
    <glyph glyph-name="ecircumflex" unicode="&#xea;" horiz-adv-x="1581" 
d="M332 934q-68 -116 -87 -215q-43 -256 102 -437q146 -180 401 -186q203 6 388 125q182 117 280 303h117q-110 -233 -332 -382q-226 -152 -474 -152q-302 0 -475 213q-171 214 -112 516q58 301 313 515q255 213 557 213q252 0 420 -156q165 -153 179 -356zM1462 1032
q-40 115 -137 197q-137 113 -335 113q-247 0 -454 -166q-83 -66 -139 -144h1065zM851 1500l205 249l108 -249h-101l-36 97l-75 -97h-101z" />
    <glyph glyph-name="edieresis" unicode="&#xeb;" horiz-adv-x="1581" 
d="M332 934q-68 -116 -87 -215q-43 -256 102 -437q146 -180 401 -186q203 6 388 125q182 117 280 303h117q-110 -233 -332 -382q-226 -152 -474 -152q-302 0 -475 213q-171 214 -112 516q58 301 313 515q255 213 557 213q252 0 420 -156q165 -153 179 -356zM1462 1032
q-40 115 -137 197q-137 113 -335 113q-247 0 -454 -166q-83 -66 -139 -144h1065zM969.5 1637.5q21.5 -26.5 14.5 -64.5q-7 -37 -39 -63.5t-69 -26.5q-38 0 -59 26.5t-14 63.5q7 38 38.5 64.5t69.5 26.5q37 0 58.5 -26.5zM1226.5 1637.5q21.5 -26.5 14.5 -64.5
q-7 -37 -39 -63.5t-69 -26.5q-38 0 -59 26.5t-14 63.5q7 38 38.5 64.5t69.5 26.5q37 0 58.5 -26.5z" />
    <glyph glyph-name="igrave" unicode="&#xec;" horiz-adv-x="384" 
d="M268 0h-105l279 1434h105zM333 1713h120l104 -256h-113z" />
    <glyph glyph-name="iacute" unicode="&#xed;" horiz-adv-x="215" 
d="M105 0h-105l279 1434h105zM411 1525h-113l321 409h120z" />
    <glyph glyph-name="icircumflex" unicode="&#xee;" horiz-adv-x="340" 
d="M209 0h-105l279 1434h105zM295 1520l206 249l107 -249h-101l-35 97l-76 -97h-101z" />
    <glyph glyph-name="idieresis" unicode="&#xef;" horiz-adv-x="395" 
d="M267 0h-105l279 1434h105zM480.5 1677.5q21.5 -26.5 14.5 -64.5q-8 -37 -39.5 -63.5t-68.5 -26.5q-38 0 -59.5 26.5t-13.5 63.5q7 38 38.5 64.5t69.5 26.5q37 0 58.5 -26.5zM737.5 1677.5q21.5 -26.5 14.5 -64.5q-8 -37 -39.5 -63.5t-68.5 -26.5q-38 0 -59.5 26.5
t-13.5 63.5q7 38 38.5 64.5t69.5 26.5q37 0 58.5 -26.5z" />
    <glyph glyph-name="eth" unicode="&#xf0;" horiz-adv-x="1603" 
d="M1455 591q100 251 1 465q-100 214 -341 265t-481 -90q-242 -141 -342 -392q-99 -251 0 -465q100 -213 341 -265q241 -51 482 90q241 142 340 392zM1476 1254q114 -128 139 -308q26 -185 -50 -378q-119 -297 -406 -465q-285 -168 -571 -107q-287 61 -404 314
q-119 254 0 552q107 269 358 436q248 165 515 150q-117 65 -248 110l-37 -85l-87 22l38 90q-48 14 -97 25l46 109q47 -12 98 -26l45 98l87 -22l-46 -103q429 -145 620 -412z" />
    <glyph glyph-name="ntilde" unicode="&#xf1;" horiz-adv-x="1443" 
d="M140 718v0q64 310 300 529q238 219 511 219q274 0 426 -220q153 -219 95 -530l-139 -716h-97l139 716h-1q50 265 -81 452q-130 187 -364 187q-233 0 -435 -186q-202 -187 -256 -451l-140 -718h-98zM650 1619q95 129 216 129q94 0 150 -77q37 -51 95 -51q55 6 89 42h107
q-94 -129 -215 -129q-95 0 -151 78q-38 50 -94 50q-63 -1 -81 -42h-116z" />
    <glyph glyph-name="ograve" unicode="&#xf2;" horiz-adv-x="1584" 
d="M754 87q262 0 484 185q221 186 272 448t-98 448q-150 185 -412 185t-484 -185q-221 -186 -272 -448t98 -448q150 -185 412 -185zM1021 1457q305 0 479 -216t114 -521q-59 -305 -317 -521t-563 -216t-479 216t-115 521q60 305 318 521t563 216zM872 1934h120l162 -409
h-113z" />
    <glyph glyph-name="oacute" unicode="&#xf3;" horiz-adv-x="1584" 
d="M754 87q262 0 484 185q221 186 272 448t-98 448q-150 185 -412 185t-484 -185q-221 -186 -272 -448t98 -448q150 -185 412 -185zM1021 1457q305 0 479 -216t114 -521q-59 -305 -317 -521t-563 -216t-479 216t-115 521q60 305 318 521t563 216zM1027 1525h-113l320 409
h120z" />
    <glyph glyph-name="ocircumflex" unicode="&#xf4;" horiz-adv-x="1584" 
d="M754 87q262 0 484 185q221 186 272 448t-98 448q-150 185 -412 185t-484 -185q-221 -186 -272 -448t98 -448q150 -185 412 -185zM1021 1457q305 0 479 -216t114 -521q-59 -305 -317 -521t-563 -216t-479 216t-115 521q60 305 318 521t563 216zM877 1520l205 249l108 -249
h-101l-35 97l-76 -97h-101z" />
    <glyph glyph-name="otilde" unicode="&#xf5;" horiz-adv-x="1584" 
d="M754 87q262 0 484 185q221 186 272 448t-98 448q-150 185 -412 185t-484 -185q-221 -186 -272 -448t98 -448q150 -185 412 -185zM1021 1457q305 0 479 -216t114 -521q-59 -305 -317 -521t-563 -216t-479 216t-115 521q60 305 318 521t563 216zM722 1589q95 129 216 129
q94 0 150 -77q37 -51 95 -51q56 6 90 42h107q-95 -129 -216 -129q-95 0 -150 78q-39 50 -95 50q-63 -1 -81 -42h-116z" />
    <glyph glyph-name="odieresis" unicode="&#xf6;" horiz-adv-x="1584" 
d="M754 87q262 0 484 185q221 186 272 448t-98 448q-150 185 -412 185t-484 -185q-221 -186 -272 -448t98 -448q150 -185 412 -185zM1021 1457q305 0 479 -216t114 -521q-59 -305 -317 -521t-563 -216t-479 216t-115 521q60 305 318 521t563 216zM995 1657.5
q21 -26.5 14 -64.5q-7 -37 -39 -63.5t-69 -26.5q-38 0 -59 26.5t-14 63.5q7 38 39 64.5t70 26.5q37 0 58 -26.5zM1252 1657.5q21 -26.5 14 -64.5q-7 -37 -39 -63.5t-69 -26.5q-38 0 -59 26.5t-14 63.5q7 38 39 64.5t70 26.5q37 0 58 -26.5z" />
    <glyph glyph-name="divide" unicode="&#xf7;" horiz-adv-x="885" 
d="M883 557h-775l20 103h775zM628 868.5q21 -26.5 14 -64.5q-7 -37 -38.5 -63.5t-68.5 -26.5q-38 0 -59.5 26.5t-14.5 63.5q7 38 39 64.5t70 26.5q37 0 58 -26.5zM554 472.5q21 -26.5 14 -64.5q-7 -37 -38.5 -63.5t-68.5 -26.5q-38 0 -59.5 26.5t-14.5 63.5q7 38 39 64.5
t70 26.5q37 0 58 -26.5z" />
    <glyph glyph-name="oslash" unicode="&#xf8;" horiz-adv-x="1594" 
d="M1026 1462q307 0 483 -217q174 -218 115 -525q-60 -307 -319 -525q-261 -217 -568 -217t-482 217q-175 218 -115 525q59 307 319 525q260 217 567 217zM337 -107h-122l1187 1661h122zM760 92q260 0 479 184q220 184 271 444q50 260 -98 444t-408 184t-480 -184t-270 -444
q-51 -260 97 -444q149 -184 409 -184z" />
    <glyph glyph-name="ugrave" unicode="&#xf9;" horiz-adv-x="1412" 
d="M1444 731v0q-63 -303 -295 -517q-231 -214 -498 -214q-268 0 -417 215q-148 214 -92 518l136 699h95l-136 -699v0q-47 -259 79 -442q128 -183 356 -183t425 182t252 441v0l136 701h95zM796 1705h120l104 -256h-113z" />
    <glyph glyph-name="uacute" unicode="&#xfa;" horiz-adv-x="1412" 
d="M1444 731v0q-63 -303 -295 -517q-231 -214 -498 -214q-268 0 -417 215q-148 214 -92 518l136 699h95l-136 -699v0q-47 -259 79 -442q128 -183 356 -183t425 182t252 441v0l136 701h95zM939 1449h-113l204 256h120z" />
    <glyph glyph-name="ucircumflex" unicode="&#xfb;" horiz-adv-x="1412" 
d="M1450 731q-63 -304 -296 -519t-501 -215q-269 0 -418 216q-149 215 -93 520l137 702h101l-137 -702q-47 -258 79 -440t353 -182t424 181q196 181 250 439v0l137 704h101zM789 1500l206 249l107 -249h-101l-35 97l-76 -97h-101z" />
    <glyph glyph-name="udieresis" unicode="&#xfc;" horiz-adv-x="1412" 
d="M1444 731v0q-63 -303 -295 -517q-231 -214 -498 -214q-268 0 -417 215q-148 214 -92 518l136 699h95l-136 -699v0q-47 -259 79 -442q128 -183 356 -183t425 182t252 441v0l136 701h95zM920.5 1637.5q21.5 -26.5 13.5 -64.5q-7 -37 -38.5 -63.5t-68.5 -26.5
q-38 0 -59.5 26.5t-14.5 63.5q8 38 39.5 64.5t69.5 26.5q37 0 58.5 -26.5zM1177.5 1637.5q21.5 -26.5 13.5 -64.5q-7 -37 -38.5 -63.5t-68.5 -26.5q-38 0 -59.5 26.5t-14.5 63.5q8 38 39.5 64.5t69.5 26.5q37 0 58.5 -26.5z" />
    <glyph glyph-name="yacute" unicode="&#xfd;" horiz-adv-x="1248" 
d="M605 450l-326 984h115l284 -874l625 874h114l-707 -984l-88 -450h-105zM890 1449h-113l204 256h120z" />
    <glyph glyph-name="thorn" unicode="&#xfe;" horiz-adv-x="1104" 
d="M732 1433q135 0 259 -67q243 -131 181 -451q-63 -321 -357 -452q-150 -66 -285 -66h-348l-77 -397h-105l279 1433h453zM363 1329l-161 -829h348q114 1 233 55q230 103 280 360q50 256 -139 360q-99 54 -213 54h-348z" />
    <glyph glyph-name="ydieresis" unicode="&#xff;" horiz-adv-x="1437" 
d="M1598 1436l8 -1l-229 -1179l-35 -180q-64 -307 -300 -526q-237 -218 -508 -218q-222 0 -371 154q-149 153 -161 397v8h114v-5q20 -193 141 -313q122 -119 301 -119q224 0 424 183q197 182 250 439l33 180l11 59q-122 -159 -286 -249q-163 -89 -330 -89q-273 0 -425 219
q-151 219 -94 527l138 712h109l-139 -710q-47 -223 72 -445q133 -191 360 -191q215 0 419 170q195 179 248 424l146 753h104zM921 1637.5q21 -26.5 14 -64.5q-7 -37 -39 -63.5t-69 -26.5q-38 0 -59 26.5t-14 63.5q7 38 39 64.5t70 26.5q37 0 58 -26.5zM1178 1637.5
q21 -26.5 14 -64.5q-7 -37 -39 -63.5t-69 -26.5q-38 0 -59 26.5t-14 63.5q7 38 39 64.5t70 26.5q37 0 58 -26.5z" />
    <glyph glyph-name="dotlessi" unicode="&#x131;" horiz-adv-x="215" 
d="M105 0h-105l279 1434h105z" />
    <glyph glyph-name="OE" unicode="&#x152;" horiz-adv-x="1897" 
d="M1035 1462v1h1036l-22 -114h-648q58 -44 108 -104q174 -218 115 -525q-20 -99 -59 -188h325l-22 -114h-365q-78 -121 -198 -223q-72 -60 -147 -103h647l-23 -114h-1049q-303 1 -478 217q-175 218 -115 525q59 307 319 525q260 217 567 217h9zM760 92q260 0 479 184
q220 184 271 444q50 260 -98 444t-408 184t-480 -184t-270 -444q-51 -260 97 -444q149 -184 409 -184z" />
    <glyph glyph-name="oe" unicode="&#x153;" horiz-adv-x="2928" 
d="M2855 1004q-39 126 -139 216q-142 124 -350 124q-258 0 -476 -182q-88 -73 -148 -158h1113zM760 92q260 0 479 184q220 184 271 444q50 260 -98 444t-408 184t-480 -184t-270 -444q-51 -260 97 -444q149 -184 409 -184zM1623 1013q78 125 202 229q258 215 563 215
q255 0 424 -158q166 -154 181 -395h-118l1 1h-1192q-35 -69 -54 -145q-2 -20 -6 -40q-4 -19 -9 -38q-32 -233 103 -401q148 -182 406 -182q204 0 391 120q183 118 283 306h118q-112 -235 -336 -386q-227 -153 -478 -153q-305 0 -479 215q-83 104 -113 228
q-79 -128 -205 -234q-261 -217 -568 -217t-482 217q-175 218 -115 525q59 307 319 525q260 217 567 217t483 -217q84 -106 114 -232z" />
    <glyph glyph-name="circumflex" unicode="&#x2c6;" horiz-adv-x="423" 
d="M292 1500l205 249l108 -249h-101l-35 97l-76 -97h-101z" />
    <glyph glyph-name="caron" unicode="&#x2c7;" horiz-adv-x="423" 
d="M650 1734l-205 -250l-108 250h102l35 -97l75 97h101z" />
    <glyph glyph-name="uni02C9" unicode="&#x2c9;" horiz-adv-x="684" 
d="M866 1500h-574l20 103h574z" />
    <glyph glyph-name="breve" unicode="&#x2d8;" horiz-adv-x="409" 
d="M525 1663h97l-1 -4q-12 -62 -64 -105.5t-114 -43.5t-97.5 43.5t-23.5 105.5l1 4h97q-4 -22 8.5 -37t34.5 -15q21 0 39.5 15t22.5 37z" />
    <glyph glyph-name="dotaccent" unicode="&#x2d9;" horiz-adv-x="291" 
d="M475.5 1647.5q21.5 -26.5 13.5 -64.5q-7 -37 -38.5 -63.5t-68.5 -26.5q-38 0 -59.5 26.5t-14.5 63.5q8 38 39.5 64.5t69.5 26.5q37 0 58.5 -26.5z" />
    <glyph glyph-name="ring" unicode="&#x2da;" horiz-adv-x="337" 
d="M521 1687.5q27 -33.5 18 -80.5t-49 -80t-87 -33t-73.5 33t-17.5 80t48.5 80.5t86.5 33.5t74 -33.5zM433 1649q-16 0 -29.5 -11.5t-16.5 -27.5q-4 -17 5.5 -28.5t25.5 -11.5q17 0 30.5 11.5t17.5 28.5q3 16 -6.5 27.5t-26.5 11.5z" />
    <glyph glyph-name="ogonek" unicode="&#x2db;" horiz-adv-x="516" 
d="M69 -294q55 0 99.5 22.5t49.5 52.5q6 31 -29.5 53t-90.5 22h-6l28 144h99l-10 -54q72 -14 112 -60q40 -47 28 -107q-14 -72 -92 -122q-77 -51 -173 -51q-19 0 -40 3l19 97h6z" />
    <glyph glyph-name="tilde" unicode="&#x2dc;" horiz-adv-x="759" 
d="M303 1559q95 129 216 129q94 0 150 -77q37 -51 95 -51q55 6 89 42h107q-94 -129 -215 -129q-95 0 -151 78q-38 50 -94 50q-63 -1 -81 -42h-116z" />
    <glyph glyph-name="hungarumlaut" unicode="&#x2dd;" horiz-adv-x="554" 
d="M580 1529h-113l204 256h120zM410 1529h-113l204 256h120z" />
    <glyph glyph-name="endash" unicode="&#x2013;" 
 />
    <glyph glyph-name="emdash" unicode="&#x2014;" 
 />
    <glyph glyph-name="quoteleft" unicode="&#x2018;" horiz-adv-x="384" 
d="M279 1436h120l104 -256h-113z" />
    <glyph glyph-name="quoteright" unicode="&#x2019;" horiz-adv-x="384" 
d="M342 1180h-113l204 256h120z" />
    <glyph glyph-name="quotesinglbase" unicode="&#x201a;" horiz-adv-x="384" 
d="M94 -98h-113l204 256h120z" />
    <glyph glyph-name="quotedblleft" unicode="&#x201c;" horiz-adv-x="434" 
d="M301 991h-108l86 442h109zM516 991h-108l86 442h109z" />
    <glyph glyph-name="quotedblright" unicode="&#x201d;" horiz-adv-x="434" 
d="M301 991h-108l86 442h109zM516 991h-108l86 442h109z" />
    <glyph glyph-name="quotedblbase" unicode="&#x201e;" horiz-adv-x="434" 
d="M52 -288h-108l86 442h109zM267 -288h-108l86 442h109z" />
    <glyph glyph-name="dagger" unicode="&#x2020;" 
 />
    <glyph glyph-name="daggerdbl" unicode="&#x2021;" horiz-adv-x="2928" 
 />
    <glyph glyph-name="bullet" unicode="&#x2022;" horiz-adv-x="406" 
d="M420 862.5q35 -43.5 23 -104.5t-64 -104.5t-113 -43.5t-96 43.5t-23 104.5t64 104.5t113 43.5t96 -43.5z" />
    <glyph glyph-name="ellipsis" unicode="&#x2026;" 
 />
    <glyph glyph-name="guilsinglleft" unicode="&#x2039;" horiz-adv-x="792" 
d="M756 385l-613 353l751 354l-23 -115q-61 -29 -285 -134q-201 -95 -221 -105q96 -54 414 -237z" />
    <glyph glyph-name="guilsinglright" unicode="&#x203a;" horiz-adv-x="792" 
d="M98 501q389 183 506 237q-16 10 -181 105q-183 105 -233 134l22 115l614 -354l-751 -353z" />
    <glyph glyph-name="fraction" unicode="&#x2044;" horiz-adv-x="960" 
d="M105 0h-105l1023 1432h105z" />
    <glyph glyph-name="fraction" unicode="&#x2215;" horiz-adv-x="960" 
d="M105 0h-105l1023 1432h105z" />
    <glyph glyph-name="franc" unicode="&#x20a3;" horiz-adv-x="1379" 
d="M229 265l227 1167h1091l-21 -105h-1v-2h-985l-158 -813h986l-20 -105h-986l-28 -142h212l-20 -103h-212l-31 -162h-105l31 162h-178l20 103h178z" />
    <glyph glyph-name="lira" unicode="&#x20a4;" horiz-adv-x="1142" 
d="M317 282q-12 -16 -111 -186h765l-19 -96h-904q68 186 189 342q93 119 105 140q21 40 7 86q-10 32 -39 94q-50 109 -57 176q-11 114 61 240q100 179 237 276q138 97 288 96q139 -1 244 -84t124 -206q22 -145 -89 -272h-147q147 104 126 236q-13 91 -95 153q-82 63 -185 64
q-116 1 -221 -76q-105 -78 -188 -224q-53 -94 -44 -174q5 -50 48 -145q31 -67 44 -104q27 -87 -5 -149q-10 -19 -134 -187zM605 780h-453l17 89h453zM564 570h-453l17 89h453z" />
    <glyph glyph-name="peseta" unicode="&#x20a7;" 
 />
    <glyph glyph-name="Euro" unicode="&#x20ac;" horiz-adv-x="1843" 
d="M541 528q16 -137 104 -246q146 -180 402 -180q202 0 387 119q182 117 280 303h117q-110 -233 -332 -382q-226 -152 -474 -152q-302 0 -474 213q-114 143 -126 325h-322l50 102h273q3 44 12 89q8 40 19 79h-302l50 102h289q83 187 257 334q256 213 558 213q252 0 419 -156
q166 -153 180 -392h-117q-21 191 -158 313q-140 123 -346 123q-256 0 -472 -180q-134 -113 -205 -255h350l-50 -102h-340q-12 -39 -20 -79q-9 -46 -11 -89h369l-50 -102h-317z" />
    <glyph glyph-name="afii61352" unicode="&#x2116;" 
 />
    <glyph glyph-name="trademark" unicode="&#x2122;" horiz-adv-x="1248" 
d="M597 593h-218l-115 -593h-47l115 593h-217l9 47h482zM866 94l-187 548l-125 -642h49l88 455l154 -455v0v0l4 5v-1l329 455l-90 -459h50l124 641z" />
    <glyph glyph-name="partialdiff" unicode="&#x2202;" horiz-adv-x="1328" 
d="M792 1339h-218l-124 -640h-97l124 640h-217l19 97h532zM1500 1450l-144 -741h-90l78 398l-299 -418l-147 416l-77 -396h-89l144 742l200 -586z" />
    <glyph glyph-name="Delta" unicode="&#x2206;" horiz-adv-x="1615" 
d="M1231 511l-238 722l-521 -722h759zM1266 406h-869l-292 -406h-105l959 1332v1l72 99l33 -100l441 -1332h-105zM1206 1529h-113l321 409h120z" />
    <glyph glyph-name="product" unicode="&#x220f;" 
 />
    <glyph glyph-name="summation" unicode="&#x2211;" horiz-adv-x="1105" 
d="M323 1119l-161 -829h348q114 1 233 55q230 103 280 360q49 256 -139 360q-99 54 -213 54h-348zM337 1223h354q135 0 259 -67q244 -131 182 -451q-63 -321 -357 -452q-150 -66 -285 -66h-348l-36 -187h-105v2h-1l279 1433h100z" />
    <glyph glyph-name="minus" unicode="&#x2212;" horiz-adv-x="885" 
d="M883 557h-775l20 103h775z" />
    <glyph glyph-name="radical" unicode="&#x221a;" horiz-adv-x="1608" 
d="M1502 0h-131l-393 1178l-846 -1178h-137l933 1297v1l100 137l44 -133z" />
    <glyph glyph-name="infinity" unicode="&#x221e;" horiz-adv-x="2017" 
d="M562 299q158 0 285 85q128 84 152 203q23 120 -73 205q-94 84 -252 84t-287 -84q-127 -85 -150 -205q-24 -119 71 -203q96 -85 254 -85zM544 198q-206 0 -330 116q-123 116 -91 279q32 164 200 279q168 116 374 116t330 -116q124 -115 92 -279q-32 -163 -201 -279
q-168 -116 -374 -116zM1440 299q157 0 285 85q127 84 151 203q23 120 -72 205q-95 84 -252 84q-158 0 -287 -84q-127 -85 -150 -205q-24 -119 71 -203q96 -85 254 -85zM1422 198q-206 0 -330 116q-123 116 -91 279q32 164 200 279q168 116 374 116t330 -116
q124 -115 92 -279q-32 -163 -201 -279q-168 -116 -374 -116z" />
    <glyph glyph-name="integral" unicode="&#x222b;" 
 />
    <glyph glyph-name="approxequal" unicode="&#x2248;" horiz-adv-x="1143" 
d="M139 714q121 165 315 165q152 0 243 -125q71 -98 186 -98q112 12 169 72l123 1q-121 -165 -315 -165q-152 0 -243 126q-74 97 -185 97q-133 -2 -164 -73h-129zM96 494q121 165 315 165q152 0 243 -125q72 -98 187 -98q111 12 169 72l122 1q-121 -165 -315 -165
q-152 0 -243 126q-74 97 -185 97q-133 -2 -164 -73h-129z" />
    <glyph glyph-name="lessequal" unicode="&#x2264;" horiz-adv-x="1584" 
d="M754 87q262 0 484 185q221 186 272 448t-98 448q-150 185 -412 185t-484 -185q-221 -186 -272 -448t98 -448q150 -185 412 -185zM1614 716q-60 -302 -317 -517q-258 -216 -563 -216t-479 216t-115 521q60 305 318 521t563 216t479 -216q56 -70 88 -149l121 626h99z" />
    <glyph glyph-name="greaterequal" unicode="&#x2265;" horiz-adv-x="1204" 
d="M364 1330l-159 -817h989l-21 -105h-989l-59 -303h989l-20 -105h-1094l279 1437l1094 -2l-20 -105h-989z" />
    <glyph glyph-name="uniF001" unicode="&#xf001;" horiz-adv-x="1581" 
d="M318 897q-48 -82 -66 -178q-50 -256 95 -437q146 -180 402 -180q202 0 387 119q182 117 280 303h117q-110 -233 -332 -382q-226 -152 -474 -152q-302 0 -475 213q-171 214 -112 516q58 301 313 515q255 213 557 213q252 0 420 -156q165 -153 188 -394h-1300zM1473 998
q-39 125 -138 214q-141 123 -347 123q-256 0 -472 -180q-86 -73 -145 -157h1102z" />
    <glyph glyph-name="uniF001" unicode="&#xfb01;" horiz-adv-x="1581" 
d="M318 897q-48 -82 -66 -178q-50 -256 95 -437q146 -180 402 -180q202 0 387 119q182 117 280 303h117q-110 -233 -332 -382q-226 -152 -474 -152q-302 0 -475 213q-171 214 -112 516q58 301 313 515q255 213 557 213q252 0 420 -156q165 -153 188 -394h-1300zM1473 998
q-39 125 -138 214q-141 123 -347 123q-256 0 -472 -180q-86 -73 -145 -157h1102z" />
    <glyph glyph-name="uniF002" unicode="&#xf002;" horiz-adv-x="1615" 
d="M1231 511l-238 722l-521 -722h759zM1266 406h-869l-292 -406h-105l959 1332v1l72 99l33 -100l441 -1332h-105z" />
    <glyph glyph-name="uniF002" unicode="&#xfb02;" horiz-adv-x="1615" 
d="M1231 511l-238 722l-521 -722h759zM1266 406h-869l-292 -406h-105l959 1332v1l72 99l33 -100l441 -1332h-105z" />
    </font>
</defs>
</svg>
