<?xml version="1.0" standalone="no"?>
<!DOCTYPE svg PUBLIC "-//W3C//DTD SVG 1.1//EN" "http://www.w3.org/Graphics/SVG/1.1/DTD/svg11.dtd" >
<svg xmlns="http://www.w3.org/2000/svg" xmlns:xlink="http://www.w3.org/1999/xlink" version="1.1">
<metadata>
Created by FontForge 20170731 at Mon Jun  9 21:10:53 2014
 By Aleksey,,,
2013 Iconian Fonts - www.iconian.com
</metadata>
<defs>
<font id="SingaporeSlingCondensed" horiz-adv-x="586" >
  <font-face 
    font-family="Singapore Sling Condensed"
    font-weight="400"
    font-stretch="condensed"
    units-per-em="1000"
    panose-1="0 0 0 0 0 0 0 0 0 0"
    ascent="800"
    descent="-200"
    x-height="609"
    cap-height="609"
    bbox="-28 -170 886 771"
    underline-thickness="50"
    underline-position="-175"
    unicode-range="U+0020-2122"
  />
<missing-glyph horiz-adv-x="500" 
 />
    <glyph glyph-name=".notdef" horiz-adv-x="500" 
 />
    <glyph glyph-name=".null" horiz-adv-x="0" 
 />
    <glyph glyph-name="nonmarkingreturn" horiz-adv-x="500" 
 />
    <glyph glyph-name="space" unicode=" " horiz-adv-x="398" 
 />
    <glyph glyph-name="space" unicode="&#xa0;" horiz-adv-x="398" 
 />
    <glyph glyph-name="FL0021h" unicode="!" horiz-adv-x="197" 
d="M44 107h109v-107h-109v107zM44 609h109v-419h-109v419z" />
    <glyph glyph-name="FL0022h" unicode="&#x22;" horiz-adv-x="338" 
d="M189 609v-224l109 89v135h-109zM40 609v-224l109 89v135h-109z" />
    <glyph glyph-name="FL0023h" unicode="#" horiz-adv-x="578" 
d="M538 462h-84v147h-109v-147h-111v147h-109v-147h-85v-116h85v-66h-85v-116h85v-164h109v164h111v-164h109v164h84v116h-84v66h84v116zM345 346v-66h-111v66h111z" />
    <glyph glyph-name="FL0024h" unicode="$" horiz-adv-x="524" 
d="M42 107v-107h165v-102h104v102h58q27 0 49 17t37.5 43t24 58t8.5 61q0 36 -10 68.5t-28.5 57t-44.5 39.5t-57 15h-37v143h171v107h-171v102h-104v-102h-25q-32 0 -58.5 -14t-46 -38t-30.5 -57.5t-11 -72.5q0 -34 9.5 -65.5t27 -56t42 -39t55.5 -14.5h37v-145h-165z
M311 252h27q23 0 37 -23.5t14 -51.5q0 -12 -4.5 -24t-11.5 -22.5t-16.5 -17t-18.5 -6.5h-27v145zM207 502v-143h-31q-6 0 -13.5 6.5t-13.5 16.5t-10 22t-4 23q0 12 3 25t8.5 24.5t13 18.5t17.5 7h30z" />
    <glyph glyph-name="FL0025h" unicode="%" horiz-adv-x="522" 
d="M230 103q0 -35 10.5 -65t28.5 -52t42 -34.5t51 -12.5q28 0 52 12.5t42 34.5t28 52t10 65t-10 65.5t-27.5 53t-42 35.5t-52.5 13q-43 0 -74 -28l214 367h-128l-85 -145q4 17 4 40q0 35 -10 65.5t-28 53t-42 35.5t-52 13t-52 -13t-42 -36t-28.5 -53.5t-10.5 -64.5
q0 -35 10.5 -65t28.5 -52t42 -34.5t52 -12.5q20 0 37 6.5t33 17.5l-212 -364h129l86 149q-4 -17 -4 -46zM118 503q0 21 12.5 37t29.5 16q19 0 30.5 -16t11.5 -37q0 -23 -12.5 -37t-29.5 -14t-29.5 15t-12.5 36zM320 102q0 21 12 37t30 16t29.5 -16t11.5 -37q0 -23 -12 -37
t-29 -14t-29.5 15t-12.5 36z" />
    <glyph glyph-name="FL0026h" unicode="&#x26;" horiz-adv-x="587" 
d="M175 379q-22 2 -35 20.5t-13 42.5q0 21 12.5 35.5t34.5 14.5h217v117h-217q-33 0 -59.5 -12.5t-45.5 -34.5t-29.5 -53t-10.5 -67q0 -35 10.5 -68.5t30.5 -58.5q-20 -32 -31 -59t-11 -62q0 -36 9.5 -71t27.5 -62.5t45.5 -44t63.5 -16.5h198q36 0 63.5 16.5t46 44
t27.5 62.5t9 71q0 22 -4 39.5t-12 35.5h45v110h-372zM178 269h191q23 -3 36.5 -26t13.5 -48q0 -11 -3 -24.5t-9 -25.5t-15 -20t-20 -8h-198q-11 0 -19.5 8t-14.5 20t-9.5 25.5t-3.5 24.5q0 25 13.5 48t37.5 26z" />
    <glyph glyph-name="FL0027h" unicode="'" horiz-adv-x="189" 
d="M40 609v-224l109 89v135h-109z" />
    <glyph glyph-name="FL0028h" unicode="(" horiz-adv-x="290" 
d="M28 304q0 64 14.5 119.5t43 96.5t70 65t94.5 24v-107q-19 0 -41 -16.5t-40.5 -44.5t-31 -63.5t-12.5 -72.5t10.5 -72.5t28 -63.5t40 -45t45.5 -17v-107q-54 0 -95 27.5t-69 71.5t-42.5 98t-14.5 107z" />
    <glyph glyph-name="FL0029h" unicode=")" horiz-adv-x="290" 
d="M262 304q0 64 -14.5 119.5t-43 96.5t-70 65t-94.5 24v-107q19 0 40.5 -16.5t40.5 -44.5t31.5 -63.5t12.5 -72.5t-11 -72.5t-28.5 -63.5t-40 -45t-44.5 -17v-107q54 0 95 27.5t69 71.5t42.5 98t14.5 107z" />
    <glyph glyph-name="asterisk" unicode="*" horiz-adv-x="256" 
d="M236 541l-21 83l-61 -38l8 86h-69l9 -85l-60 37l-22 -83l66 -14l-48 -61l56 -53l33 76l31 -76l57 53l-45 60z" />
    <glyph glyph-name="FL002Bh" unicode="+" horiz-adv-x="329" 
d="M210 476h-92v-97h-78v-116h78v-98h92v98h79v116h-79v97z" />
    <glyph glyph-name="FL002Ch" unicode="," horiz-adv-x="189" 
d="M40 107v-224l109 89v135h-109z" />
    <glyph glyph-name="FL002Dh" unicode="-" horiz-adv-x="317" 
d="M40 379h237v-116h-237v116z" />
    <glyph glyph-name="FL002Eh" unicode="." horiz-adv-x="189" 
d="M40 107h109v-107h-109v107z" />
    <glyph glyph-name="FL002Fh" unicode="/" horiz-adv-x="522" 
d="M502 609h-128l-355 -609h129z" />
    <glyph glyph-name="FL0030h" unicode="0" 
d="M28 301q0 -70 20.5 -130t56.5 -104t84 -69t104 -25t104.5 25t84 69t56 104t20.5 130t-20 131t-55.5 106t-84 71t-105.5 26q-56 0 -104 -26.5t-84 -71.5t-56.5 -106t-20.5 -130zM126 301q0 42 13 80t36 67.5t53 46.5t65 17q28 0 54 -12l-188 -321q-16 26 -24.5 57t-8.5 65
zM460 301q0 -45 -13.5 -82.5t-36.5 -64.5t-54 -42.5t-65 -15.5q-25 0 -47 9l184 319q15 -26 23.5 -57.5t8.5 -65.5z" />
    <glyph glyph-name="FL0031h" unicode="1" horiz-adv-x="249" 
d="M20 492l71 117h118v-609h-110v492h-79z" />
    <glyph glyph-name="FL0032h" unicode="2" horiz-adv-x="529" 
d="M486 107h-337v70q0 28 14 51.5t37 23.5h158q31 0 55.5 14.5t42 39t27 56t9.5 65.5q0 39 -11 72.5t-30.5 57.5t-46.5 38t-58 14h-300v-107h305q10 0 17.5 -8t13 -19.5t8.5 -24.5t3 -23q0 -8 -4 -19.5t-10 -22.5t-13.5 -18.5t-13.5 -7.5h-172q-32 0 -57.5 -15t-44 -39.5
t-28.5 -57t-10 -68.5v-179h446v107z" />
    <glyph glyph-name="FL0033h" unicode="3" horiz-adv-x="523" 
d="M133 269h213q23 -3 36.5 -26t13.5 -48q0 -11 -3.5 -24.5t-9.5 -25.5t-15 -20t-19 -8h-309v-117h309q36 0 63.5 16.5t46 44t27.5 62.5t9 71q0 35 -11 62t-30 59q19 25 29.5 58.5t10.5 68.5q0 36 -10.5 67t-29.5 53t-45.5 34.5t-59.5 12.5h-309v-117h309q22 0 34.5 -14.5
t12.5 -35.5q0 -24 -12.5 -42.5t-35.5 -20.5h-273z" />
    <glyph glyph-name="FL0034h" unicode="4" horiz-adv-x="542" 
d="M393 609v-234h-244v234h-109v-342h353v-267h109v609h-109z" />
    <glyph glyph-name="FL0035h" unicode="5" horiz-adv-x="528" 
d="M40 107h302q9 0 18.5 6.5t16.5 17t11.5 22.5t4.5 24q0 28 -14 51.5t-37 23.5h-302v357h446v-107h-347v-143h213q31 0 57 -15t44.5 -39.5t28.5 -57t10 -68.5q0 -29 -8.5 -61t-24 -58t-37.5 -43t-49 -17h-333v107z" />
    <glyph glyph-name="FL0036h" unicode="6" horiz-adv-x="561" 
d="M28 304q0 -53 14.5 -107t42 -98t68.5 -71.5t94 -27.5h274v375h-383q9 25 22 48t28.5 40.5t32 28t31.5 10.5h269v107h-238q-56 0 -102.5 -24t-80.5 -65t-53 -96.5t-19 -119.5zM415 267v-160h-158q-20 0 -40 13.5t-37.5 35.5t-31 51t-19.5 60h286z" />
    <glyph glyph-name="FL0037h" unicode="7" horiz-adv-x="496" 
d="M176 0l280 509v100h-416v-107h275l-275 -502h136z" />
    <glyph glyph-name="FL0038h" unicode="8" horiz-adv-x="552" 
d="M29 442q0 -35 10.5 -68.5t30.5 -58.5q-20 -32 -31 -59t-11 -62q0 -36 9.5 -71t28 -62.5t46 -44t63.5 -16.5h203q36 0 63.5 16.5t46 44t27.5 62.5t9 71q0 35 -11 62t-31 59q20 25 30.5 58.5t10.5 68.5q0 36 -10.5 67t-29 53t-45.5 34.5t-60 12.5h-203q-32 0 -59 -12.5
t-46.5 -34.5t-30 -53t-10.5 -67zM374 269q24 -3 37.5 -26t13.5 -48q0 -11 -3.5 -24.5t-9.5 -25.5t-15 -20t-19 -8h-204q-11 0 -19.5 8t-14.5 20t-9.5 25.5t-3.5 24.5q0 25 13.5 48t37.5 26h196zM175 379q-22 2 -35 20.5t-13 42.5q0 21 12.5 35.5t34.5 14.5h204
q22 0 34.5 -14.5t12.5 -35.5q0 -24 -13 -42.5t-35 -20.5h-202z" />
    <glyph glyph-name="FL0039h" unicode="9" horiz-adv-x="561" 
d="M533 305q0 53 -14.5 107t-42.5 98t-69 71.5t-93 27.5h-274v-375h382q-9 -25 -22 -48t-28 -40.5t-31.5 -28t-31.5 -10.5h-269v-107h238q55 0 102 23.5t81 65t53 97t19 119.5zM146 342v160h158q20 0 40.5 -13.5t38 -35.5t30.5 -51t19 -60h-286z" />
    <glyph glyph-name="FL003Ah" unicode=":" horiz-adv-x="189" 
d="M40 107h109v-107h-109v107zM40 379h109v-107h-109v107z" />
    <glyph glyph-name="FL003Bh" unicode=";" horiz-adv-x="189" 
d="M40 272h109v107h-109v-107zM40 107v-224l109 89v135h-109z" />
    <glyph glyph-name="FL003Ch" unicode="&#x3c;" horiz-adv-x="346" 
d="M325 609h-128l-177 -304l177 -305h129l-178 305z" />
    <glyph glyph-name="FL003Dh" unicode="=" horiz-adv-x="357" 
d="M40 462v-116h277v116h-277zM40 297v-116h277v116h-277z" />
    <glyph glyph-name="FL003Eh" unicode="&#x3e;" horiz-adv-x="346" 
d="M21 609h128l177 -304l-177 -305h-129l178 305z" />
    <glyph glyph-name="FL003Fh" unicode="?" horiz-adv-x="514" 
d="M86 179q0 36 6.5 68.5t23 57t43 39.5t67.5 15h120q6 0 13.5 7.5t13.5 18.5t10 22.5t4 19.5q0 10 -3 23t-8 24.5t-13 19.5t-17 8h-306v107h300q31 0 58 -14t46.5 -38t30.5 -57.5t11 -72.5q0 -34 -9.5 -65.5t-27 -56t-42 -39t-55.5 -14.5h-106q-19 0 -29 -11.5t-14.5 -25.5
t-6 -25.5t-2.5 -11.5zM86 107h108v-107h-108v107z" />
    <glyph glyph-name="at" unicode="@" 
d="M505 189q23 38 34 77.5t11 91.5q0 60 -18 110.5t-49 87t-73 57.5t-90 21h-26q-71 0 -121.5 -27.5t-82.5 -73t-47 -105.5t-15 -125v-16q0 -65 15.5 -122t48 -100t81.5 -67.5t116 -24.5h14q36 0 69 7.5t66 26.5q26 14 57 44t65 70l6 12h-104q12 11 22 25t21 31zM302 70
q-51 0 -85.5 15.5t-59.5 44.5q-24 29 -37.5 72.5t-13.5 94.5q0 63 14.5 106t41.5 75q26 32 61.5 49t83.5 17q26 0 50.5 -9t44.5 -23h-67l-1 -13q-9 13 -17.5 19t-27.5 6q-41 0 -67 -23t-49 -72q-36 -65 -36 -160q5 -27 14.5 -56.5t24 -53.5t34 -39.5t44.5 -15.5
q14 0 17.5 1.5t7.5 4.5v1h2v-2l16 12q1 1 2 1.5t3 2.5q5 2 8 6q9 -15 22 -25.5t34 -10.5q33 0 54 10q-62 -35 -118 -35zM275 202v-1q-2 -3 -2.5 -5.5t-5.5 -2.5q-7 0 -12.5 5.5t-9.5 13.5q-5 11 -7.5 21t-2.5 16q0 53 16 110q10 33 20.5 48t27.5 15q3 0 3 -1v-8
q12 -12 12 -37q0 -23 -3 -50t-10 -56zM466 358q0 -23 -3 -46.5t-10 -43.5q-23 -38 -37.5 -52t-25.5 -16l41 286q17 -23 26 -56t9 -72z" />
    <glyph glyph-name="FL0041h" unicode="A" horiz-adv-x="628" 
d="M314 479l77 -201h-155l75 201h3zM20 0h117l96 263l55 -94h138l65 -169h117l-240 609h-110z" />
    <glyph glyph-name="FL0042h" unicode="B" horiz-adv-x="524" 
d="M40 609v-609h310q36 0 63.5 16.5t45.5 44t27.5 62.5t9.5 71q0 35 -14 69t-32 55q18 21 31.5 55t13.5 69q0 36 -10.5 67t-29.5 53t-45.5 34.5t-59.5 12.5h-310zM149 362l57 -93h140q24 -3 37.5 -26t13.5 -48q0 -11 -3.5 -24.5t-9.5 -25.5t-15 -20t-19 -8h-201v245z
M149 492h201q22 0 34.5 -14.5t12.5 -35.5q0 -24 -13 -42.5t-35 -20.5h-200v113z" />
    <glyph glyph-name="FL0043h" unicode="C" horiz-adv-x="530" 
d="M28 304q0 59 15.5 114t44.5 97.5t70 68t92 25.5h240v-107h-238q-20 0 -42.5 -16.5t-41.5 -44.5t-31 -63.5t-12 -72.5t12 -72.5t31 -63.5t42.5 -45t46.5 -17h233v-107h-243q-53 0 -94 27.5t-68.5 71.5t-42 98t-14.5 107z" />
    <glyph glyph-name="FL0044h" unicode="D" horiz-adv-x="561" 
d="M310 502q16 0 38 -17.5t41.5 -45.5t33 -63t13.5 -71q0 -37 -12 -72.5t-31 -63.5t-42.5 -45t-46.5 -17h-158v288h-106v-395h274q52 0 93 27.5t69 71.5t42.5 98t14.5 107q0 64 -16.5 119.5t-47.5 96.5t-75.5 65t-99.5 24h-254v-107h270z" />
    <glyph glyph-name="FL0045h" unicode="E" horiz-adv-x="474" 
d="M40 609v-107h394v107h-394zM40 0h394v107h-394v-107zM40 267h394v108h-394v-108z" />
    <glyph glyph-name="FL0046h" unicode="F" horiz-adv-x="474" 
d="M40 0h109v268h249v106h-358v-374zM40 609v-107h394v107h-394z" />
    <glyph glyph-name="FL0047h" unicode="G" horiz-adv-x="561" 
d="M28 304q0 64 14.5 119.5t44.5 96.5t74.5 65t104.5 24h255v-107h-269q-20 0 -42.5 -17.5t-41.5 -45.5t-31 -63t-12 -71q0 -37 12 -72.5t31 -63.5t42.5 -45t46.5 -17h158v288h106v-395h-274q-53 0 -94 27.5t-68.5 71.5t-42 98t-14.5 107z" />
    <glyph glyph-name="FL0068h" unicode="H" horiz-adv-x="496" 
d="M347 609v-234h-198v234h-109v-609h109v267h198v-267h109v609h-109z" />
    <glyph glyph-name="FL0049h" unicode="I" horiz-adv-x="465" 
d="M425 0v107h-138v395h138v107h-385v-107h138v-395h-138v-107h385z" />
    <glyph glyph-name="FL004Ah" unicode="J" horiz-adv-x="435" 
d="M20 117l71 -117h170q36 0 61 13.5t41.5 37t24 54t7.5 63.5v441h-208v-107h99v-309q0 -12 -3.5 -25.5t-10 -25t-17 -18.5t-25.5 -7h-210z" />
    <glyph glyph-name="FL004Bh" unicode="K" horiz-adv-x="495" 
d="M149 609h-109v-609h109v289l197 -289h129l-203 307l203 302h-129l-197 -289v289z" />
    <glyph glyph-name="FL004Ch" unicode="L" horiz-adv-x="418" 
d="M40 609h109v-502h249l-72 -107h-286v609z" />
    <glyph glyph-name="FL004Dh" unicode="M" horiz-adv-x="855" 
d="M39 609v-609h109v492h169q27 0 41 -20.5t14 -55.5v-416h109v492h169q12 0 22 -7t17.5 -18.5t11.5 -25t4 -25.5v-416h109v441q0 33 -7.5 63.5t-24 54t-41.5 37t-61 13.5h-140l-59 -99q-13 45 -46.5 72t-87.5 27h-140l-59 -91v91h-109z" />
    <glyph glyph-name="FL004Eh" unicode="N" horiz-adv-x="542" 
d="M40 609h109v-91l59 91h159q36 0 61.5 -13.5t42 -37t24 -54t7.5 -63.5v-441h-110v416q0 38 -10.5 57t-44.5 19h-188v-492h-109v609z" />
    <glyph glyph-name="FL004Fh" unicode="O" 
d="M28 301q0 69 20.5 130t56.5 106t84 71.5t104 26.5q57 0 105.5 -26t84 -71t55.5 -106t20 -131t-20.5 -130t-56 -104t-84 -69t-104.5 -25t-104 25t-84 69t-56.5 104t-20.5 130zM126 301q0 -42 13.5 -79.5t36 -65t52.5 -44t63 -16.5q34 0 65 15.5t54 42.5t36.5 64.5
t13.5 82.5q0 42 -12.5 80.5t-35 67.5t-53 46t-66.5 17q-35 0 -65 -17t-53 -46.5t-36 -67.5t-13 -80z" />
    <glyph glyph-name="FL0050h" unicode="P" horiz-adv-x="504" 
d="M40 609h290q38 0 65.5 -19t45.5 -49.5t26.5 -68t8.5 -73.5q0 -33 -9 -68.5t-26 -65.5t-41 -49.5t-54 -19.5h-140l-57 91v-287h-109v609zM149 492v-188h176q12 0 22 10t17 24.5t10.5 31t3.5 29.5q0 10 -3.5 26t-9.5 31t-15 25.5t-20 10.5h-181z" />
    <glyph glyph-name="FL0071h" unicode="Q" 
d="M347 -170l-109 89v60q-46 11 -84.5 40t-66.5 71.5t-43.5 96t-15.5 114.5q0 70 20 131t55.5 106t84 71t105.5 26q55 0 103 -26.5t84 -71.5t57 -106t21 -130q0 -62 -16 -115.5t-44 -95.5t-67 -70.5t-84 -39.5v-150zM347 210v-103q51 22 81.5 73.5t30.5 120.5q0 42 -13 80
t-35.5 67.5t-53 46.5t-64.5 17q-36 0 -66.5 -17t-53 -46t-35 -67.5t-12.5 -80.5q0 -70 30.5 -122t81.5 -72v194z" />
    <glyph glyph-name="FL0061h" unicode="R" horiz-adv-x="506" 
d="M40 609h290q37 0 64.5 -16.5t45.5 -44t27 -62.5t9 -72q0 -72 -21.5 -122t-72.5 -67l139 -225h-131l-208 314h138q12 0 23 10t18.5 24.5t12 31t4.5 29.5q0 10 -3.5 24.5t-10 27.5t-15.5 22t-19 9h-290v117z" />
    <glyph glyph-name="FL0053h" unicode="S" horiz-adv-x="524" 
d="M42 107h296q9 0 18.5 6.5t16.5 17t11.5 22.5t4.5 24q0 28 -14 51.5t-37 23.5h-168q-31 0 -55.5 14.5t-42 39t-27 56t-9.5 65.5q0 39 11 72.5t30.5 57.5t46 38t58.5 14h300v-107h-305q-10 0 -17.5 -7t-13 -18.5t-8.5 -24.5t-3 -25q0 -11 4 -23t10 -22t13.5 -16.5
t13.5 -6.5h172q31 0 57 -15t44.5 -39.5t28.5 -57t10 -68.5q0 -29 -8.5 -61t-24 -58t-37.5 -43t-49 -17h-327v107z" />
    <glyph glyph-name="FL0054h" unicode="T" horiz-adv-x="496" 
d="M40 609v-107h154v-502h108v502h154v107h-416z" />
    <glyph glyph-name="FL0055h" unicode="U" horiz-adv-x="542" 
d="M502 0h-109v91l-59 -91h-160q-36 0 -61 13.5t-41.5 37t-24 54t-7.5 63.5v441h110v-416q0 -39 10 -57.5t45 -18.5h188v492h109v-609z" />
    <glyph glyph-name="FL0056h" unicode="V" horiz-adv-x="628" 
d="M318 156h-6l-175 453h-117l241 -609h109l238 609h-117z" />
    <glyph glyph-name="FL0057h" unicode="W" horiz-adv-x="855" 
d="M815 0v609h-109v-492h-168q-27 0 -41.5 20.5t-14.5 55.5v416h-108v-492h-169q-12 0 -22 7t-17.5 18.5t-11.5 25t-4 25.5v416h-110v-441q0 -33 7.5 -63.5t24 -54t41.5 -37t61 -13.5h140l60 99q12 -45 45.5 -72t87.5 -27h140l59 91v-91h109z" />
    <glyph glyph-name="FL0058h" unicode="X" horiz-adv-x="523" 
d="M502 609h-128l-112 -194l-113 194h-128l177 -304l-178 -305h129l113 194l112 -194h129l-177 305z" />
    <glyph glyph-name="FL0059h" unicode="Y" horiz-adv-x="534" 
d="M383 609v-250h-193q-6 0 -13.5 5.5t-14 14.5t-11 21.5t-4.5 26.5v182h-107v-182q0 -34 9.5 -65.5t27 -56t42 -39t55.5 -14.5h210v-76q0 -12 -3 -24t-8.5 -22t-13 -16.5t-17.5 -6.5h-296v-107h327q27 0 49.5 17.5t38.5 44.5t24.5 58.5t8.5 59.5v429h-111z" />
    <glyph glyph-name="FL005Ah" unicode="Z" horiz-adv-x="496" 
d="M456 0v107h-275l275 395v107h-416v-107h275l-275 -395v-107h416z" />
    <glyph glyph-name="FL005Bh" unicode="[" horiz-adv-x="288" 
d="M248 0v107h-99v395h99v107h-208v-609h208z" />
    <glyph glyph-name="FL005Ch" unicode="\" horiz-adv-x="522" 
d="M20 609h128l354 -609h-128z" />
    <glyph glyph-name="FL005Dh" unicode="]" horiz-adv-x="288" 
d="M40 0v107h99v395h-99v107h208v-609h-208z" />
    <glyph glyph-name="FL005Eh" unicode="^" horiz-adv-x="628" 
d="M310 453h6l174 -453h117l-241 609h-108l-239 -609h117z" />
    <glyph glyph-name="FL005Fh" unicode="_" horiz-adv-x="357" 
d="M40 116v-116h277v116h-277z" />
    <glyph glyph-name="FL0060h" unicode="`" horiz-adv-x="174" 
d="M154 515l-34 94h-100l56 -94h78z" />
    <glyph glyph-name="a" unicode="a" horiz-adv-x="628" 
d="M258 609h110l240 -609h-117l-65 168h-227l-62 -168h-117zM310 479l-76 -203h160l-80 203h-4z" />
    <glyph glyph-name="FL0062h" unicode="b" horiz-adv-x="524" 
d="M40 609v-609h310q36 0 63.5 16.5t45.5 44t27.5 62.5t9.5 71q0 35 -14 65t-34 59q20 20 33.5 54.5t13.5 69.5q0 36 -10.5 67t-29.5 53t-45.5 34.5t-59.5 12.5h-310zM149 362l57 -93h140q24 -3 37.5 -26t13.5 -48q0 -11 -3.5 -24.5t-9.5 -25.5t-15 -20t-19 -8h-201v245z
M149 492h201q22 0 34.5 -14.5t12.5 -35.5q0 -24 -13 -42.5t-35 -20.5h-200v113z" />
    <glyph glyph-name="FL0063h" unicode="c" horiz-adv-x="530" 
d="M28 304q0 59 15.5 114t44.5 97.5t70 68t92 25.5h240v-107h-238q-20 0 -42.5 -16.5t-41.5 -44.5t-31 -63.5t-12 -72.5t12 -72.5t31 -63.5t42.5 -45t46.5 -17h233v-107h-243q-53 0 -94 27.5t-68.5 71.5t-42 98t-14.5 107z" />
    <glyph glyph-name="FL0064h" unicode="d" horiz-adv-x="561" 
d="M533 304q0 64 -14 119.5t-43.5 96.5t-74.5 65t-107 24h-254v-609h274q52 0 93 27.5t69 71.5t42.5 98t14.5 107zM310 502q16 0 38 -15.5t41.5 -42t33 -62.5t13.5 -77q0 -37 -12 -72.5t-31 -63.5t-42.5 -45t-46.5 -17h-158v395h164z" />
    <glyph glyph-name="E" unicode="e" horiz-adv-x="474" 
d="M40 609h394v-107h-285v-127h249v-108h-249v-160h285v-107h-394v609z" />
    <glyph glyph-name="FL0066h" unicode="f" horiz-adv-x="474" 
d="M40 609h394v-107h-285v-128h249v-106h-249v-268h-109v609z" />
    <glyph glyph-name="g" unicode="g" horiz-adv-x="561" 
d="M28 304q0 64 16 119.5t48 96.5t79.5 65t111.5 24h238v-107h-269q-18 0 -40 -17.5t-41.5 -45.5t-32.5 -63t-13 -71q0 -37 12 -72.5t31 -63.5t42.5 -45t46.5 -17h158v288h106v-395h-274q-53 0 -94 27.5t-68.5 71.5t-42 98t-14.5 107z" />
    <glyph glyph-name="FL0048h" unicode="h" horiz-adv-x="542" 
d="M393 609v-234h-244v234h-109v-609h109v267h244v-267h109v609h-109z" />
    <glyph glyph-name="i" unicode="i" horiz-adv-x="197" 
d="M44 609h109v-609h-109v609z" />
    <glyph glyph-name="FL006Ah" unicode="j" horiz-adv-x="435" 
d="M20 117l71 -117h170q36 0 61 13.5t41.5 37t24 54t7.5 63.5v441h-109v-416q0 -12 -3.5 -25.5t-10 -25t-17 -18.5t-25.5 -7h-210z" />
    <glyph glyph-name="FL006Bh" unicode="k" horiz-adv-x="495" 
d="M149 609h-109v-609h109v289l197 -289h129l-203 307l203 302h-129l-197 -289v289z" />
    <glyph glyph-name="l" unicode="l" horiz-adv-x="438" 
d="M40 609h109v-502h249v-107h-358v609z" />
    <glyph glyph-name="FL006Dh" unicode="m" horiz-adv-x="855" 
d="M39 609v-609h109v492h169q27 0 41 -20.5t14 -55.5v-416h109v492h169q12 0 22 -7t17.5 -18.5t11.5 -25t4 -25.5v-416h109v441q0 33 -7.5 63.5t-24 54t-41.5 37t-61 13.5h-140l-59 -99q-13 45 -46.5 72t-87.5 27h-140l-59 -91v91h-109z" />
    <glyph glyph-name="FL006Eh" unicode="n" horiz-adv-x="542" 
d="M40 609h109v-91l59 91h159q36 0 61.5 -13.5t42 -37t24 -54t7.5 -63.5v-441h-110v416q0 38 -10.5 57t-44.5 19h-188v-492h-109v609z" />
    <glyph glyph-name="o" unicode="o" 
d="M28 301q0 69 20.5 130t56.5 106t84 71.5t104 26.5q57 0 105.5 -26t84 -71t55.5 -106t20 -131t-20.5 -130t-56 -104t-84 -69t-104.5 -25t-104 25t-84 69t-56.5 104t-20.5 130zM126 301q0 -42 13.5 -79.5t36 -65t52.5 -44t63 -16.5q34 0 65 15.5t54 42.5t36.5 64.5
t13.5 82.5q0 42 -12.5 80.5t-35 67.5t-53 46t-66.5 17q-35 0 -65 -17t-53 -46.5t-36 -67.5t-13 -80z" />
    <glyph glyph-name="p" unicode="p" horiz-adv-x="504" 
d="M40 609h290q38 0 65.5 -19t45.5 -49.5t26.5 -68t8.5 -73.5q0 -33 -9 -68.5t-26 -65.5t-41 -49.5t-54 -19.5h-140l-57 91v-287h-109v609zM149 492v-188h176q12 0 22 10t17 24.5t10.5 31t3.5 29.5q0 10 -3.5 26t-9.5 31t-15 25.5t-20 10.5h-181z" />
    <glyph glyph-name="FL0051h" unicode="q" 
d="M28 301q0 -70 20.5 -130t56.5 -104t84 -69t104 -25q26 0 41 4l74 -147l54 148l-24 46q55 43 87.5 114.5t32.5 162.5q0 70 -20 131t-55.5 106t-84 71t-105.5 26q-56 0 -104 -26.5t-84 -71.5t-56.5 -106t-20.5 -130zM245 151l27 -54q-30 4 -57 22t-46.5 45.5t-31 62.5
t-11.5 74q0 42 13 80t36 67.5t53 46.5t65 17q36 0 66.5 -17t53 -46t35 -67.5t12.5 -80.5q0 -57 -20.5 -101.5t-54.5 -70.5l-87 172z" />
    <glyph glyph-name="R" unicode="r" horiz-adv-x="514" 
d="M40 609h296q39 0 66.5 -17t45 -45t25.5 -63.5t8 -71.5q0 -32 -7.5 -63t-21.5 -57t-33 -45t-42 -27l145 -220h-128l-217 320h159q8 0 15.5 10t13.5 23.5t9.5 27.5t3.5 22q0 10 -2 25.5t-7 29.5t-13 24t-20 10h-187v-492h-109v609z" />
    <glyph glyph-name="S" unicode="s" horiz-adv-x="524" 
d="M42 107h296q9 0 18.5 6.5t16.5 17t11.5 22.5t4.5 24q0 28 -14 51.5t-37 23.5h-168q-31 0 -55.5 14.5t-42 39t-27 56t-9.5 65.5q0 39 11 72.5t30.5 57.5t46 38t58.5 14h300v-107h-305q-10 0 -17.5 -7t-13 -18.5t-8.5 -24.5t-3 -25q0 -11 4 -23t10 -22t13.5 -16.5
t13.5 -6.5h172q31 0 57 -15t44.5 -39.5t28.5 -57t10 -68.5q0 -29 -8.5 -61t-24 -58t-37.5 -43t-49 -17h-327v107z" />
    <glyph glyph-name="FL0074h" unicode="t" horiz-adv-x="496" 
d="M40 609v-107h154v-502h108v502h154v107h-416z" />
    <glyph glyph-name="FL0075h" unicode="u" horiz-adv-x="542" 
d="M502 0h-109v91l-59 -91h-160q-36 0 -61 13.5t-41.5 37t-24 54t-7.5 63.5v441h110v-416q0 -39 10 -57.5t45 -18.5h188v492h109v-609z" />
    <glyph glyph-name="FL0076h" unicode="v" horiz-adv-x="628" 
d="M318 156h-7l-174 453h-117l241 -609h109l238 609h-117z" />
    <glyph glyph-name="FL0077h" unicode="w" horiz-adv-x="855" 
d="M815 0v609h-109v-492h-168q-27 0 -41.5 20.5t-14.5 55.5v416h-108v-492h-169q-12 0 -22 7t-17.5 18.5t-11.5 25t-4 25.5v416h-110v-441q0 -33 7.5 -63.5t24 -54t41.5 -37t61 -13.5h140l60 99q12 -45 45.5 -72t87.5 -27h140l59 91v-91h109z" />
    <glyph glyph-name="FL0078h" unicode="x" horiz-adv-x="523" 
d="M502 609h-128l-112 -194l-113 194h-128l177 -304l-178 -305h129l113 194l112 -194h129l-177 305z" />
    <glyph glyph-name="FL0079h" unicode="y" horiz-adv-x="522" 
d="M206 288v-288h109v288l187 321h-128l-113 -194l-113 194h-128z" />
    <glyph glyph-name="FL007Ah" unicode="z" horiz-adv-x="496" 
d="M456 0v107h-275l275 395v107h-416v-107h275l-275 -395v-107h416z" />
    <glyph glyph-name="FL007Bh" unicode="{" horiz-adv-x="288" 
d="M248 -55v107h-99v504h99v107h-208v-718h208z" />
    <glyph glyph-name="FL007Ch" unicode="|" horiz-adv-x="197" 
d="M44 711v-813h109v813h-109z" />
    <glyph glyph-name="FL007Dh" unicode="}" horiz-adv-x="288" 
d="M61 -55v107h99v504h-99v107h208v-718h-208z" />
    <glyph glyph-name="FL007Eh" unicode="~" horiz-adv-x="343" 
d="M76 609l-56 -94h100l22 50l31 -50h94l56 94h-100l-23 -51l-30 51h-94z" />
    <glyph glyph-name="FL007Fh" horiz-adv-x="146" 
 />
    <glyph glyph-name="FL20ACh" horiz-adv-x="621" 
d="M54 290v-116h108q12 -36 30.5 -67.5t43 -55.5t55.5 -37.5t68 -13.5h222v107h-212q-24 0 -48.5 18.5t-43.5 48.5h152v116h-192v24q0 11 1 14h191v116h-147q19 26 40.5 42t41.5 16h217v107h-219q-75 0 -126 -45t-75 -120h-107v-116h86v-38h-86z" />
    <glyph glyph-name="FL20ACh" unicode="&#x20ac;" horiz-adv-x="621" 
d="M54 290v-116h108q12 -36 30.5 -67.5t43 -55.5t55.5 -37.5t68 -13.5h222v107h-212q-24 0 -48.5 18.5t-43.5 48.5h152v116h-192v24q0 11 1 14h191v116h-147q19 26 40.5 42t41.5 16h217v107h-219q-75 0 -126 -45t-75 -120h-107v-116h86v-38h-86z" />
    <glyph glyph-name="FL017Dh" horiz-adv-x="496" 
d="M456 0v107h-275l275 395v107h-416v-107h275l-275 -395v-107h416zM123 771l56 -94h141l56 94h-100l-26 -59l-27 59h-100z" />
    <glyph glyph-name="FL017Dh" unicode="&#x17d;" horiz-adv-x="496" 
d="M456 0v107h-275l275 395v107h-416v-107h275l-275 -395v-107h416zM123 771l56 -94h141l56 94h-100l-26 -59l-27 59h-100z" />
    <glyph glyph-name="FL017Eh" horiz-adv-x="496" 
d="M456 0v107h-275l275 395v107h-416v-107h275l-275 -395v-107h416zM123 771l56 -94h141l56 94h-100l-26 -59l-27 59h-100z" />
    <glyph glyph-name="FL017Eh" unicode="&#x17e;" horiz-adv-x="496" 
d="M456 0v107h-275l275 395v107h-416v-107h275l-275 -395v-107h416zM123 771l56 -94h141l56 94h-100l-26 -59l-27 59h-100z" />
    <glyph glyph-name="FL00A1h" unicode="&#xa1;" horiz-adv-x="197" 
d="M153 502h-109v107h109v-107zM153 0h-109v419h109v-419z" />
    <glyph glyph-name="FL00A2h" unicode="&#xa2;" horiz-adv-x="538" 
d="M36 304q0 -53 14.5 -107t42 -98t68.5 -71.5t94 -27.5h3v-102h104v102h136v107h-136v395h136v107h-136v102h-104v-102q-51 0 -92 -25.5t-70 -68t-44.5 -97.5t-15.5 -114zM258 502v-395q-23 3 -45 21t-40 45.5t-29 62t-11 69.5q0 37 12 72t30.5 62.5t40.5 44.5t42 18z" />
    <glyph glyph-name="FL00A3h" unicode="&#xa3;" horiz-adv-x="466" 
d="M40 379v-111h92q-16 -33 -16 -74q0 -20 2 -40t9 -38h-87v-116h386v116h-164q-11 0 -19.5 8.5t-14.5 20.5t-9.5 25.5t-3.5 24.5q0 23 12 46t34 28h98v110h-96q-22 2 -35 20.5t-13 42.5q0 21 12.5 35.5t34.5 14.5h27v117h-27q-33 0 -59.5 -12.5t-45.5 -34.5t-29.5 -53
t-10.5 -67q0 -17 2 -32.5t7 -30.5h-86z" />
    <glyph glyph-name="FL00A4h" unicode="&#xa4;" horiz-adv-x="523" 
d="M106 306q0 63 26 112l-111 191h128l64 -111q20 10 48 10q29 0 49 -10l64 111h128l-111 -192q11 -23 18 -51.5t7 -59.5q0 -32 -7 -60.5t-19 -51.5l113 -194h-129l-67 115q-27 -8 -46 -8q-12 0 -23 1.5t-22 6.5l-67 -115h-129l112 193q-26 49 -26 113zM212 304
q0 -25 14.5 -43t34.5 -18q21 0 35 17t14 44q0 26 -14 45.5t-35 19.5t-35 -19.5t-14 -45.5z" />
    <glyph glyph-name="FL00A5h" unicode="&#xa5;" horiz-adv-x="522" 
d="M123 178v-116h83v-62h109v62h85v116h-85v58h85v116h-48l150 257h-128l-113 -194l-113 194h-128l149 -257h-46v-116h83v-58h-83z" />
    <glyph glyph-name="FL00A6h" unicode="&#xa6;" horiz-adv-x="197" 
d="M44 271h109v-271h-109v271zM44 609h109v-255h-109v255z" />
    <glyph glyph-name="FL00A7h" unicode="&#xa7;" horiz-adv-x="523" 
d="M106 306q0 63 26 112q12 27 28.5 44t34.5 26.5t35 13.5t31 6q29 0 49 -10l64 111h128l-111 -192q11 -23 18 -51.5t7 -59.5q0 -32 -7 -60.5t-19 -51.5q-14 -29 -30.5 -45.5t-34 -25.5t-34 -12t-30.5 -4q-12 0 -23 1.5t-22 6.5l-67 -115h-129l112 193q-26 49 -26 113z
M212 304q0 -25 14.5 -43t34.5 -18q21 0 35 17t14 44q0 26 -14 45.5t-35 19.5t-35 -19.5t-14 -45.5z" />
    <glyph glyph-name="FL00A8h" unicode="&#xa8;" horiz-adv-x="333" 
d="M293 609h-100v-94h100v94zM40 515h100v94h-100v-94z" />
    <glyph glyph-name="FL00A9h" unicode="&#xa9;" horiz-adv-x="226" 
d="M114 671q-27 0 -43 -13q-43 -33 -43 -93q0 -32 10 -52q9 -14 15 -21t17 -18q37 -14 44 -14l10 1.5t29 12.5l6 6q9 7 14.5 13t10.5 20q14 31 14 52q0 22 -14 52q-7 24 -32 41q-13 13 -38 13zM114 655h1q13 0 25 -7.5t21.5 -19.5t15.5 -27t6 -30v-6q0 -20 -10.5 -42
t-24.5 -33q-10 -7 -18.5 -8.5t-15.5 -1.5q-5 0 -12.5 2t-19.5 7l-6 1q-18 16 -25 34q-9 19 -9 41t9 45q22 45 63 45zM139 550q-6 -26 -26 -26q-30 0 -30 41q0 45 31 45q15 0 24 -21l13 4q-8 32 -37 32q-46 0 -46 -60q0 -61 46 -61q32 0 38 41z" />
    <glyph glyph-name="FL00AAh" unicode="&#xaa;" horiz-adv-x="339" 
d="M140 515h57l-28 76zM139 671h59l121 -304h-67l-31 81h-105l-30 -81h-66z" />
    <glyph glyph-name="FL00ABh" unicode="&#xab;" horiz-adv-x="411" 
d="M206 389l-66 82l-120 -150l121 -152l65 82l-55 70zM390 390l-65 82l-120 -150l121 -152l65 82l-55 70z" />
    <glyph glyph-name="FL00ACh" unicode="&#xac;" horiz-adv-x="329" 
d="M40 379v-116h155v-98h94v214h-249z" />
    <glyph glyph-name="FL00ADh" unicode="&#xad;" horiz-adv-x="261" 
d="M40 379h181v-116h-181v116z" />
    <glyph glyph-name="registered" unicode="&#xae;" horiz-adv-x="226" 
d="M114 671q-24 0 -43 -15q-20 -14 -33 -39v-2q-5 -13 -7.5 -23t-2.5 -27q0 -32 10 -52q8 -12 15.5 -21.5t16.5 -17.5q20 -14 44 -14l11 1.5t28 12.5q24 16 31 39q14 31 14 52q0 22 -14 52q-7 22 -32 39q-15 15 -38 15zM114 655h1q13 0 25 -7.5t21.5 -19.5t15.5 -27t6 -30
v-6l-2.5 -12.5t-7.5 -29.5q-5 -9 -10.5 -17.5t-14.5 -15.5q-10 -7 -17.5 -8.5t-16.5 -1.5l-7.5 1t-24.5 6l-6 3q-9 10 -15.5 18t-9.5 15q-5 20 -7 31l-2 11q0 22 9 45q22 45 63 45zM76 507h14v48h9q8 0 11 -4q4 -5 8 -11t8 -14l6 -19h19l-10 22q-9 15 -11.5 20t-11.5 10
q28 1 28 31q0 6 -5 18q-2 3 -5 4t-6 4q-3 5 -24 5h-30v-114zM90 571v35h16q14 0 16 -2q8 -5 8 -15q0 -11 -4.5 -14.5t-18.5 -3.5h-17z" />
    <glyph glyph-name="FL00AFh" unicode="&#xaf;" horiz-adv-x="357" 
d="M40 609v-116h277v116h-277z" />
    <glyph glyph-name="FL00B0h" unicode="&#xb0;" horiz-adv-x="180" 
d="M40 610h100v-94h-100v94zM106 575h-31v-24h31v24z" />
    <glyph glyph-name="FL00B1h" unicode="&#xb1;" horiz-adv-x="329" 
d="M210 476h-92v-97h-78v-116h78v-98h92v98h79v116h-79v97zM40 116v-116h249v116h-249z" />
    <glyph glyph-name="FL00B2h" unicode="&#xb2;" horiz-adv-x="306" 
d="M263 430h-161v27q0 12 5 21.5t15 9.5h75q16 0 28.5 7.5t21.5 20t14 29t5 33.5q0 40 -21.5 66.5t-53.5 26.5h-149v-63h152q6 0 10.5 -11t4.5 -19q0 -6 -5 -16.5t-10 -10.5h-83q-33 0 -52 -28t-19 -65v-91h223v63z" />
    <glyph glyph-name="FL00B3h" unicode="&#xb3;" horiz-adv-x="295" 
d="M87 496h103q20 -5 20 -30q0 -8 -4.5 -20t-12.5 -12h-153v-67h153q18 0 32 8.5t23.5 22.5t14 31.5t4.5 36.5q0 17 -4.5 30.5t-13.5 27.5q8 13 13 28.5t5 32.5q0 37 -20 61.5t-54 24.5h-153v-67h153q17 0 17 -19q0 -9 -4.5 -16t-13.5 -9h-139z" />
    <glyph glyph-name="FL00B4h" unicode="&#xb4;" horiz-adv-x="174" 
d="M19 515l34 94h100l-56 -94h-78z" />
    <glyph glyph-name="FL00B5h" unicode="&#xb5;" horiz-adv-x="534" 
d="M150 609v-255q22 5 31 5h161q13 0 28.5 20t15.5 48v182h107v-182q0 -34 -9.5 -65.5t-27 -56t-42.5 -39t-56 -14.5h-167q-23 0 -37 -23.5t-14 -51.5q0 -12 4.5 -24t11.5 -22.5t16.5 -17t18.5 -6.5h296v-107h-327q-27 0 -49.5 17.5t-38.5 44.5t-24.5 58.5t-8.5 59.5v429
h111z" />
    <glyph glyph-name="FL2122h" unicode="&#xb6;" horiz-adv-x="774" 
d="M754 281l-65 -6q43 -52 43 -70l-1 -0.5t-1 -5.5l-67 12l-5 -83l-64 25l-52 -71l-46 36l-102 -59l5 23l-15 22l-127 -26l15 40l-140 6l41 32l-123 33l56 29l-86 53l65 4l-35 52l-4 26l65 -8l10 83q30 -24 49 -24q8 0 13 3l55 68l40 -35l92 52l10 -4l4 -36l132 23l-10 -41
h136l-40 -35l116 -29l7 -12h-7l-50 -17l82 -49zM655 324l-21 4l-4 -79l16 -2zM647 215l-13 7l-12 -11l12 -12zM609 221v103l-15 4l-4 -73l-50 69v-104l16 2v50q31 -51 53 -51zM525 222v76q-11 33 -25 33q-12 0 -13 -4q-30 -50 -37 -102h20q12 24 21 24q12 0 23 -24zM442 328
l-18 -4l-10 -104l22 7zM398 217v102l-14 5l-4 -70l-53 65v-104l16 3v49q35 -50 55 -50zM318 290q-7 34 -36 34h-12q-32 -26 -32 -93q6 -16 31 -16q4 0 7 0.5t8 1.5q27 0 34 73zM231 326q-65 -11 -65 -59v-7q0 -6 1 -6q9 -47 35 -47q4 0 6.5 1.5t10.5 3.5v17q-5 -1 -9 -1.5
t-8 -0.5q-19 0 -19 20q0 24 13 43q15 15 23 15q6 0 6 -1l1 -0.5t4 -2.5zM156 324l-15 -3l-9 -106l18 8zM508 272h-28l17 35zM299 274q0 -10 -0.5 -16t-4.5 -14q-10 -5 -16 -7t-8 -2q-14 0 -14 25v7q9 32 26 32q10 0 16 -12q0 -5 0.5 -8t0.5 -5z" />
    <glyph glyph-name="FL00B7h" unicode="&#xb7;" horiz-adv-x="189" 
d="M40 379h109v-107h-109v107z" />
    <glyph glyph-name="FL00B8h" unicode="&#xb8;" horiz-adv-x="150" 
d="M39 0v-73h-55v-82h126v155h-71z" />
    <glyph glyph-name="FL00B9h" unicode="&#xb9;" horiz-adv-x="159" 
d="M57 367v237h-37l39 67h60v-304h-62z" />
    <glyph glyph-name="FL00BAh" unicode="&#xba;" horiz-adv-x="321" 
d="M118 503q0 -21 12.5 -36t29.5 -15t29.5 14t12.5 37q0 21 -11.5 37t-30.5 16q-17 0 -29.5 -16t-12.5 -37zM28 504q0 34 10.5 64.5t28.5 53.5t42 36t52 13t52 -13t42 -35.5t28 -53t10 -65.5t-10 -65t-28 -52t-42 -34.5t-52 -12.5t-52 12.5t-42 34.5t-28.5 52t-10.5 65z" />
    <glyph glyph-name="FL00BBh" unicode="&#xbb;" horiz-adv-x="411" 
d="M206 389l65 82l120 -150l-121 -152l-65 82l55 70zM21 390l65 82l120 -150l-120 -152l-66 82l55 70z" />
    <glyph glyph-name="FL00BCh" unicode="&#xbc;" horiz-adv-x="578" 
d="M129 305v304h-60l-39 -67h36v-237h63zM445 609h-101l-324 -609h98zM476 304v-111h-107v111h-62v-178h169v-126h62v304h-62z" />
    <glyph glyph-name="FL00BDh" unicode="&#xbd;" horiz-adv-x="570" 
d="M129 305v304h-60l-39 -67h36v-237h63zM445 609h-101l-324 -609h98zM528 63h-162v27q0 12 5.5 21.5t14.5 9.5h76q16 0 28.5 7.5t21.5 20t13.5 29t4.5 33.5q0 40 -21 66.5t-53 26.5h-149v-63h151q7 0 11.5 -11t4.5 -19q0 -6 -5 -16.5t-10 -10.5h-83q-33 0 -52 -28t-19 -65
v-91h223v63z" />
    <glyph glyph-name="FL00BEh" unicode="&#xbe;" horiz-adv-x="654" 
d="M524 609h-101l-324 -609h99zM552 304v-111h-107v111h-62v-178h169v-126h62v304h-62zM87 434h103q20 -5 20 -30q0 -8 -4.5 -20t-12.5 -12h-153v-67h153q18 0 32 8.5t23.5 22.5t14 31.5t4.5 36.5q0 17 -4.5 30.5t-13.5 27.5q8 13 13 28.5t5 32.5q0 37 -20 61.5t-54 24.5
h-153v-67h153q17 0 17 -19q0 -9 -4.5 -16t-13.5 -9h-139z" />
    <glyph glyph-name="FL00BFh" unicode="&#xbf;" horiz-adv-x="514" 
d="M429 430q0 -36 -6.5 -68.5t-23 -57t-43.5 -39.5t-67 -15h-121q-6 0 -13.5 -7.5t-13.5 -18.5t-10 -22.5t-4 -19.5q0 -10 3 -23t8.5 -24.5t13 -19.5t17.5 -8h305v-107h-300q-32 0 -58.5 14t-46 38t-30.5 57.5t-11 72.5q0 34 9.5 65.5t27 56t42 39t55.5 14.5h106
q19 0 29 11.5t15 25.5t6 25.5t2 11.5zM429 502h-109v107h109v-107z" />
    <glyph glyph-name="FL00C0h" unicode="&#xc0;" horiz-adv-x="628" 
d="M367 677l-33 94h-100l56 -94h77zM314 479l74 -194h-150l73 194h3zM20 0h117l96 263l55 -94h138l65 -169h117l-240 609h-110z" />
    <glyph glyph-name="FL00C1h" unicode="&#xc1;" horiz-adv-x="628" 
d="M338 677l56 94h-100l-34 -94h78zM314 479l74 -194h-150l73 194h3zM20 0h117l96 263l55 -94h138l65 -169h117l-240 609h-110z" />
    <glyph glyph-name="FL00C2h" unicode="&#xc2;" horiz-adv-x="628" 
d="M438 677l-56 94h-140l-56 -94h100l26 59l26 -59h100zM314 479l74 -194h-150l73 194h3zM20 0h117l96 263l55 -94h138l65 -169h117l-240 609h-110z" />
    <glyph glyph-name="FL00C3h" unicode="&#xc3;" horiz-adv-x="628" 
d="M216 771l-56 -94h100l22 50l31 -50h94l56 94h-100l-23 -51l-30 51h-94zM314 479l74 -194h-150l73 194h3zM20 0h117l96 263l55 -94h138l65 -169h117l-240 609h-110z" />
    <glyph glyph-name="FL00C4h" unicode="&#xc4;" horiz-adv-x="628" 
d="M438 771h-100v-94h100v94zM186 677h100v94h-100v-94zM314 479l74 -194h-150l73 194h3zM20 0h117l96 263l55 -94h138l65 -169h117l-240 609h-110z" />
    <glyph glyph-name="FL00C5h" unicode="&#xc5;" horiz-adv-x="628" 
d="M258 609h110l240 -609h-117l-65 169h-138l-55 94l-96 -263h-117zM311 479l-73 -194h150l-74 194h-3zM262 771h100v-94h-100v94zM327 736h-30v-24h30v24z" />
    <glyph glyph-name="FL00C6h" unicode="&#xc6;" horiz-adv-x="925" 
d="M20 0h117l96 263l55 -94h138l65 -169h394v107h-319l-62 156h381v116h-394v-83l-123 313h-110zM491 609v-107h394v107h-394zM314 479l74 -194h-150l73 194h3z" />
    <glyph glyph-name="FL00C7h" unicode="&#xc7;" horiz-adv-x="530" 
d="M28 304q0 -53 14.5 -107t42 -98t68.5 -71.5t94 -27.5h35v-73h-56v-82h127v155h137v107h-233q-23 0 -46.5 17t-42.5 45t-31 63.5t-12 72.5t12 72.5t31 63.5t41.5 44.5t42.5 16.5h238v107h-240q-51 0 -92 -25.5t-70 -68t-44.5 -97.5t-15.5 -114z" />
    <glyph glyph-name="FL00C8h" unicode="&#xc8;" horiz-adv-x="474" 
d="M286 677l-33 94h-100l56 -94h77zM434 107h-394v-107h394v107zM40 609v-107h394v107h-394zM40 267h394v108h-394v-108z" />
    <glyph glyph-name="FL00C9h" unicode="&#xc9;" horiz-adv-x="474" 
d="M40 609v-107h394v107h-394zM40 0h394v107h-394v-107zM265 677l56 94h-100l-34 -94h78zM40 267h394v108h-394v-108z" />
    <glyph glyph-name="FL00CAh" unicode="&#xca;" horiz-adv-x="474" 
d="M40 609v-107h394v107h-394zM40 0h394v107h-394v-107zM364 677l-56 94h-141l-56 -94h100l27 59l26 -59h100zM40 267h394v108h-394v-108z" />
    <glyph glyph-name="FL00CBh" unicode="&#xcb;" horiz-adv-x="474" 
d="M40 609v-107h394v107h-394zM40 0h394v107h-394v-107zM364 771h-100v-94h100v94zM111 677h100v94h-100v-94zM40 267h394v108h-394v-108z" />
    <glyph glyph-name="FL00CCh" unicode="&#xcc;" horiz-adv-x="465" 
d="M39 0v107h138v395h-138v107h385v-107h-138v-395h138v-107h-385zM207 677l-56 94h100l34 -94h-78z" />
    <glyph glyph-name="FL00CDh" unicode="&#xcd;" horiz-adv-x="465" 
d="M425 0v107h-138v395h138v107h-385v-107h138v-395h-138v-107h385zM257 677l56 94h-100l-34 -94h78z" />
    <glyph glyph-name="FL00CEh" unicode="&#xce;" horiz-adv-x="465" 
d="M425 0v107h-138v395h138v107h-385v-107h138v-395h-138v-107h385zM358 677l-56 94h-140l-56 -94h100l26 59l26 -59h100z" />
    <glyph glyph-name="FL00CFh" unicode="&#xcf;" horiz-adv-x="465" 
d="M425 0v107h-138v395h138v107h-385v-107h138v-395h-138v-107h385zM358 771h-100v-94h100v94zM106 677h100v94h-100v-94z" />
    <glyph glyph-name="FL00D0h" unicode="&#xd0;" horiz-adv-x="650" 
d="M40 379v-116h90v-263h274q52 0 93 27.5t68.5 71.5t42 98t14.5 107q0 64 -16.5 119.5t-47.5 96.5t-75 65t-99 24h-254v-230h-90zM235 502h164q16 0 38 -17.5t42 -45.5t33.5 -63t13.5 -71q0 -37 -12 -72.5t-31 -63.5t-42.5 -45t-46.5 -17h-159v156h100v116h-100v123z" />
    <glyph glyph-name="FL00D1h" unicode="&#xd1;" horiz-adv-x="542" 
d="M40 0h109v492h188q34 0 44.5 -19t10.5 -57v-416h110v441q0 33 -7.5 63.5t-24 54t-42 37t-61.5 13.5h-159l-59 -91v91h-109v-609zM177 771l-56 -94h100l22 50l31 -50h94l56 94h-100l-23 -51l-30 51h-94z" />
    <glyph glyph-name="FL00D2h" unicode="&#xd2;" 
d="M126 301q0 42 13 80t36 67.5t53 46.5t65 17q36 0 66.5 -17t53 -46t35 -67.5t12.5 -80.5q0 -45 -13.5 -82.5t-36.5 -64.5t-54 -42.5t-65 -15.5q-33 0 -63 16.5t-52.5 44t-36 65t-13.5 79.5zM28 301q0 -70 20.5 -130t56.5 -104t84 -69t104 -25t104.5 25t84 69t56 104
t20.5 130t-20 131t-55.5 106t-84 71t-105.5 26q-56 0 -104 -26.5t-84 -71.5t-56.5 -106t-20.5 -130zM342 677l-33 94h-100l56 -94h77z" />
    <glyph glyph-name="FL00D3h" unicode="&#xd3;" 
d="M126 301q0 42 13 80t36 67.5t53 46.5t65 17q36 0 66.5 -17t53 -46t35 -67.5t12.5 -80.5q0 -45 -13.5 -82.5t-36.5 -64.5t-54 -42.5t-65 -15.5q-33 0 -63 16.5t-52.5 44t-36 65t-13.5 79.5zM28 301q0 -70 20.5 -130t56.5 -104t84 -69t104 -25t104.5 25t84 69t56 104
t20.5 130t-20 131t-55.5 106t-84 71t-105.5 26q-56 0 -104 -26.5t-84 -71.5t-56.5 -106t-20.5 -130zM321 677l56 94h-100l-34 -94h78z" />
    <glyph glyph-name="FL00D4h" unicode="&#xd4;" 
d="M126 301q0 42 13 80t36 67.5t53 46.5t65 17q36 0 66.5 -17t53 -46t35 -67.5t12.5 -80.5q0 -45 -13.5 -82.5t-36.5 -64.5t-54 -42.5t-65 -15.5q-33 0 -63 16.5t-52.5 44t-36 65t-13.5 79.5zM28 301q0 -70 20.5 -130t56.5 -104t84 -69t104 -25t104.5 25t84 69t56 104
t20.5 130t-20 131t-55.5 106t-84 71t-105.5 26q-56 0 -104 -26.5t-84 -71.5t-56.5 -106t-20.5 -130zM419 677l-56 94h-141l-56 -94h100l27 59l26 -59h100z" />
    <glyph glyph-name="FL00D5h" unicode="&#xd5;" 
d="M28 301q0 -70 20.5 -130t56.5 -104t84 -69t104 -25t104.5 25t84 69t56 104t20.5 130t-20 131t-55.5 106t-84 71t-105.5 26q-56 0 -104 -26.5t-84 -71.5t-56.5 -106t-20.5 -130zM126 301q0 42 13 80t36 67.5t53 46.5t65 17q36 0 66.5 -17t53 -46t35 -67.5t12.5 -80.5
q0 -45 -13.5 -82.5t-36.5 -64.5t-54 -42.5t-65 -15.5q-33 0 -63 16.5t-52.5 44t-36 65t-13.5 79.5zM197 771l-56 -94h100l22 50l31 -50h94l56 94h-100l-23 -51l-30 51h-94z" />
    <glyph glyph-name="FL00D6h" unicode="&#xd6;" 
d="M126 301q0 42 13 80t36 67.5t53 46.5t65 17q36 0 66.5 -17t53 -46t35 -67.5t12.5 -80.5q0 -45 -13.5 -82.5t-36.5 -64.5t-54 -42.5t-65 -15.5q-33 0 -63 16.5t-52.5 44t-36 65t-13.5 79.5zM28 301q0 -70 20.5 -130t56.5 -104t84 -69t104 -25t104.5 25t84 69t56 104
t20.5 130t-20 131t-55.5 106t-84 71t-105.5 26q-56 0 -104 -26.5t-84 -71.5t-56.5 -106t-20.5 -130zM420 771h-100v-94h100v94zM167 677h100v94h-100v-94z" />
    <glyph glyph-name="FL00D7h" unicode="&#xd7;" horiz-adv-x="282" 
d="M262 389l-66 82l-54 -68l-56 68l-65 -82l55 -68l-56 -70l66 -82l56 70l55 -70l65 82l-55 70z" />
    <glyph glyph-name="FL00D8h" unicode="&#xd8;" 
d="M527 609h-123q-24 13 -53.5 19.5t-57.5 6.5q-56 0 -104 -26.5t-84 -71.5t-56.5 -106t-20.5 -130q0 -64 17 -119.5t48 -98.5l-48 -83h129q29 -11 58 -19t61 -8q56 0 104.5 25t84 69t56 104t20.5 130q0 69 -19.5 129t-54.5 105zM460 301q0 -45 -13.5 -82.5t-36.5 -64.5
t-54 -42.5t-65 -15.5q-28 0 -55 12l188 323q36 -56 36 -130zM126 301q0 42 13 80t36 67.5t53 46.5t65 17q19 0 45 -8l-184 -316q-28 49 -28 113z" />
    <glyph glyph-name="FL00D9h" unicode="&#xd9;" horiz-adv-x="542" 
d="M502 0v609h-109v-492h-188q-35 0 -45 18.5t-10 57.5v416h-110v-441q0 -33 7.5 -63.5t24 -54t41.5 -37t61 -13.5h160l59 91v-91h109zM320 677l-34 94h-100l56 -94h78z" />
    <glyph glyph-name="FL00DAh" unicode="&#xda;" horiz-adv-x="542" 
d="M502 0v609h-109v-492h-188q-35 0 -45 18.5t-10 57.5v416h-110v-441q0 -33 7.5 -63.5t24 -54t41.5 -37t61 -13.5h160l59 91v-91h109zM298 677l56 94h-100l-33 -94h77z" />
    <glyph glyph-name="FL00DBh" unicode="&#xdb;" horiz-adv-x="542" 
d="M502 0v609h-109v-492h-188q-35 0 -45 18.5t-10 57.5v416h-110v-441q0 -33 7.5 -63.5t24 -54t41.5 -37t61 -13.5h160l59 91v-91h109zM397 677l-56 94h-141l-56 -94h100l26 59l27 -59h100z" />
    <glyph glyph-name="FL00DCh" unicode="&#xdc;" horiz-adv-x="542" 
d="M397 771h-100v-94h100v94zM144 677h100v94h-100v-94zM502 609h-109v-492h-188q-35 0 -45 18.5t-10 57.5v416h-110v-441q0 -33 7.5 -63.5t24 -54t41.5 -37t61 -13.5h160l59 91v-91h109v609z" />
    <glyph glyph-name="FL00DDh" unicode="&#xdd;" horiz-adv-x="534" 
d="M297 677l56 94h-100l-34 -94h78zM383 609v-250h-193q-6 0 -13.5 5.5t-14 14.5t-11 21.5t-4.5 26.5v182h-107v-182q0 -34 9.5 -65.5t27 -56t42 -39t55.5 -14.5h210v-76q0 -12 -3 -24t-8.5 -22t-13 -16.5t-17.5 -6.5h-296v-107h327q27 0 49.5 17.5t38.5 44.5t24.5 58.5
t8.5 59.5v429h-111z" />
    <glyph glyph-name="FL00DEh" unicode="&#xde;" horiz-adv-x="504" 
d="M39 609v-609h110v187l57 -93h140q30 0 54 20t41 50t26 66t9 69q0 36 -10.5 73.5t-29.5 68t-46 49.5t-60 19h-182v100h-109zM149 392h181q11 0 20 -10.5t15 -25.5t9.5 -31t3.5 -26q0 -13 -3.5 -29.5t-10.5 -31t-17 -24.5t-22 -10h-176v188z" />
    <glyph glyph-name="FL00DFh" unicode="&#xdf;" horiz-adv-x="523" 
d="M40 609v-745h109v628h200q22 0 34.5 -14.5t12.5 -35.5q0 -24 -12.5 -42.5t-35.5 -20.5h-114v-110h112q23 -3 36.5 -26t13.5 -48q0 -11 -3.5 -24.5t-9.5 -25.5t-15 -20t-19 -8h-114v-117h114q36 0 63.5 16.5t46 44t27.5 62.5t9 71q0 35 -11 62t-30 59q19 25 29.5 58.5
t10.5 68.5q0 36 -10.5 67t-29.5 53t-45.5 34.5t-59.5 12.5h-309z" />
    <glyph glyph-name="FL00E0h" unicode="&#xe0;" horiz-adv-x="628" 
d="M315 479l73 -194h-150l72 194h5zM20 0h117l62 168h227l65 -168h117l-240 609h-110zM367 677l-33 94h-100l56 -94h77z" />
    <glyph glyph-name="FL00E1h" unicode="&#xe1;" horiz-adv-x="628" 
d="M315 479l73 -194h-150l72 194h5zM20 0h117l62 168h227l65 -168h117l-240 609h-110zM338 677l56 94h-100l-34 -94h78z" />
    <glyph glyph-name="FL00E2h" unicode="&#xe2;" horiz-adv-x="628" 
d="M315 479l73 -194h-150l72 194h5zM20 0h117l62 168h227l65 -168h117l-240 609h-110zM438 677l-56 94h-140l-56 -94h100l26 59l26 -59h100z" />
    <glyph glyph-name="FL00E3h" unicode="&#xe3;" horiz-adv-x="628" 
d="M315 479l73 -194h-150l72 194h5zM20 0h117l62 168h227l65 -168h117l-240 609h-110zM216 771l-56 -94h100l22 50l31 -50h94l56 94h-100l-23 -51l-30 51h-94z" />
    <glyph glyph-name="FL00E4h" unicode="&#xe4;" horiz-adv-x="628" 
d="M315 479l73 -194h-150l72 194h5zM20 0h117l62 168h227l65 -168h117l-240 609h-110zM438 771h-100v-94h100v94zM186 677h100v94h-100v-94z" />
    <glyph glyph-name="FL00E5h" unicode="&#xe5;" horiz-adv-x="628" 
d="M262 771h100v-94h-100v94zM258 609h110l240 -609h-117l-65 168h-227l-62 -168h-117zM310 479l-72 -194h150l-73 194h-5zM327 736h-30v-24h30v24z" />
    <glyph glyph-name="FL00E6h" unicode="&#xe6;" horiz-adv-x="926" 
d="M492 609v-315l-124 315h-110l-238 -609h117l62 168h227l65 -168h395v107h-285v156h249v116h-249v123h285v107h-394zM310 479h4l74 -194h-150z" />
    <glyph glyph-name="FL00E7h" unicode="&#xe7;" horiz-adv-x="530" 
d="M28 304q0 -53 14.5 -107t42 -98t68.5 -71.5t94 -27.5h35v-73h-56v-82h127v155h137v107h-233q-23 0 -46.5 17t-42.5 45t-31 63.5t-12 72.5t12 72.5t31 63.5t41.5 44.5t42.5 16.5h238v107h-240q-51 0 -92 -25.5t-70 -68t-44.5 -97.5t-15.5 -114z" />
    <glyph glyph-name="FL00E8h" unicode="&#xe8;" horiz-adv-x="474" 
d="M209 677l-56 94h100l33 -94h-77zM40 609h394v-107h-285v-127h249v-108h-249v-160h285v-107h-394v609z" />
    <glyph glyph-name="FL00E9h" unicode="&#xe9;" horiz-adv-x="474" 
d="M187 677l34 94h100l-56 -94h-78zM40 609h394v-107h-285v-127h249v-108h-249v-160h285v-107h-394v609z" />
    <glyph glyph-name="FL00EAh" unicode="&#xea;" horiz-adv-x="474" 
d="M264 677l-26 59l-27 -59h-100l56 94h141l56 -94h-100zM40 609h394v-107h-285v-127h249v-108h-249v-160h285v-107h-394v609z" />
    <glyph glyph-name="FL00EBh" unicode="&#xeb;" horiz-adv-x="474" 
d="M111 771h100v-94h-100v94zM364 677h-100v94h100v-94zM40 609h394v-107h-285v-127h249v-108h-249v-160h285v-107h-394v609z" />
    <glyph glyph-name="FL00ECh" unicode="&#xec;" horiz-adv-x="197" 
d="M44 0h109v609h-109v-609zM154 677l-33 94h-100l56 -94h77z" />
    <glyph glyph-name="FL00EDh" unicode="&#xed;" horiz-adv-x="197" 
d="M44 0h109v609h-109v-609zM117 677l56 94h-100l-34 -94h78z" />
    <glyph glyph-name="FL00EEh" unicode="&#xee;" horiz-adv-x="197" 
d="M44 0h109v609h-109v-609zM225 677l-56 94h-141l-56 -94h100l26 59l27 -59h100z" />
    <glyph glyph-name="FL00EFh" unicode="&#xef;" horiz-adv-x="197" 
d="M44 0h109v609h-109v-609zM225 771h-100v-94h100v94zM-28 677h100v94h-100v-94z" />
    <glyph glyph-name="FL00F0h" unicode="&#xf0;" horiz-adv-x="561" 
d="M533 304q0 -53 -14.5 -107t-42.5 -98t-69 -71.5t-93 -27.5h-274v379h382q-9 25 -22 47.5t-28 39t-31.5 26.5t-31.5 10h-269v107h238q55 0 102 -24t81 -65t53 -96.5t19 -119.5zM146 263v-156h158q20 0 40 12.5t37.5 34t30.5 49.5t20 60h-286z" />
    <glyph glyph-name="FL00F1h" unicode="&#xf1;" horiz-adv-x="542" 
d="M40 0h109v492h188q34 0 44.5 -19t10.5 -57v-416h110v441q0 33 -7.5 63.5t-24 54t-42 37t-61.5 13.5h-159l-59 -91v91h-109v-609zM177 771l-56 -94h100l22 50l31 -50h94l56 94h-100l-23 -51l-30 51h-94z" />
    <glyph glyph-name="FL00F2h" unicode="&#xf2;" 
d="M126 301q0 42 13 80t36 67.5t53 46.5t65 17q36 0 66.5 -17t53 -46t35 -67.5t12.5 -80.5q0 -45 -13.5 -82.5t-36.5 -64.5t-54 -42.5t-65 -15.5q-33 0 -63 16.5t-52.5 44t-36 65t-13.5 79.5zM28 301q0 -70 20.5 -130t56.5 -104t84 -69t104 -25t104.5 25t84 69t56 104
t20.5 130t-20 131t-55.5 106t-84 71t-105.5 26q-56 0 -104 -26.5t-84 -71.5t-56.5 -106t-20.5 -130zM342 677l-33 94h-100l56 -94h77z" />
    <glyph glyph-name="FL00F3h" unicode="&#xf3;" 
d="M126 301q0 42 13 80t36 67.5t53 46.5t65 17q36 0 66.5 -17t53 -46t35 -67.5t12.5 -80.5q0 -45 -13.5 -82.5t-36.5 -64.5t-54 -42.5t-65 -15.5q-33 0 -63 16.5t-52.5 44t-36 65t-13.5 79.5zM28 301q0 -70 20.5 -130t56.5 -104t84 -69t104 -25t104.5 25t84 69t56 104
t20.5 130t-20 131t-55.5 106t-84 71t-105.5 26q-56 0 -104 -26.5t-84 -71.5t-56.5 -106t-20.5 -130zM321 677l56 94h-100l-34 -94h78z" />
    <glyph glyph-name="FL00F4h" unicode="&#xf4;" 
d="M126 301q0 42 13 80t36 67.5t53 46.5t65 17q36 0 66.5 -17t53 -46t35 -67.5t12.5 -80.5q0 -45 -13.5 -82.5t-36.5 -64.5t-54 -42.5t-65 -15.5q-33 0 -63 16.5t-52.5 44t-36 65t-13.5 79.5zM28 301q0 -70 20.5 -130t56.5 -104t84 -69t104 -25t104.5 25t84 69t56 104
t20.5 130t-20 131t-55.5 106t-84 71t-105.5 26q-56 0 -104 -26.5t-84 -71.5t-56.5 -106t-20.5 -130zM419 677l-56 94h-141l-56 -94h100l27 59l26 -59h100z" />
    <glyph glyph-name="FL00F5h" unicode="&#xf5;" 
d="M28 301q0 -70 20.5 -130t56.5 -104t84 -69t104 -25t104.5 25t84 69t56 104t20.5 130t-20 131t-55.5 106t-84 71t-105.5 26q-56 0 -104 -26.5t-84 -71.5t-56.5 -106t-20.5 -130zM126 301q0 42 13 80t36 67.5t53 46.5t65 17q36 0 66.5 -17t53 -46t35 -67.5t12.5 -80.5
q0 -45 -13.5 -82.5t-36.5 -64.5t-54 -42.5t-65 -15.5q-33 0 -63 16.5t-52.5 44t-36 65t-13.5 79.5zM197 771l-56 -94h100l22 50l31 -50h94l56 94h-100l-23 -51l-30 51h-94z" />
    <glyph glyph-name="FL00F6h" unicode="&#xf6;" 
d="M126 301q0 42 13 80t36 67.5t53 46.5t65 17q36 0 66.5 -17t53 -46t35 -67.5t12.5 -80.5q0 -45 -13.5 -82.5t-36.5 -64.5t-54 -42.5t-65 -15.5q-33 0 -63 16.5t-52.5 44t-36 65t-13.5 79.5zM28 301q0 -70 20.5 -130t56.5 -104t84 -69t104 -25t104.5 25t84 69t56 104
t20.5 130t-20 131t-55.5 106t-84 71t-105.5 26q-56 0 -104 -26.5t-84 -71.5t-56.5 -106t-20.5 -130zM420 771h-100v-94h100v94zM167 677h100v94h-100v-94z" />
    <glyph glyph-name="FL00F7h" unicode="&#xf7;" horiz-adv-x="403" 
d="M40 379v-116h323v116h-323zM254 219h-98v-94h98v94zM157 419h97v94h-97v-94z" />
    <glyph glyph-name="FL00F8h" unicode="&#xf8;" 
d="M28 301q0 -70 20.5 -130t56.5 -104t84 -69t104 -25t104.5 25t84 69t56 104t20.5 130t-20 131t-55.5 106t-84 71t-105.5 26q-56 0 -104 -26.5t-84 -71.5t-56.5 -106t-20.5 -130zM126 301q0 42 13 80t36 67.5t53 46.5t65 17q28 0 54 -12l-188 -321q-16 26 -24.5 57t-8.5 65
zM460 301q0 -45 -13.5 -82.5t-36.5 -64.5t-54 -42.5t-65 -15.5q-25 0 -47 9l184 319q15 -26 23.5 -57.5t8.5 -65.5z" />
    <glyph glyph-name="FL00F9h" unicode="&#xf9;" horiz-adv-x="542" 
d="M502 0v609h-109v-492h-188q-35 0 -45 18.5t-10 57.5v416h-110v-441q0 -33 7.5 -63.5t24 -54t41.5 -37t61 -13.5h160l59 91v-91h109zM320 677l-34 94h-100l56 -94h78z" />
    <glyph glyph-name="FL00FAh" unicode="&#xfa;" horiz-adv-x="542" 
d="M502 0v609h-109v-492h-188q-35 0 -45 18.5t-10 57.5v416h-110v-441q0 -33 7.5 -63.5t24 -54t41.5 -37t61 -13.5h160l59 91v-91h109zM298 677l56 94h-100l-33 -94h77z" />
    <glyph glyph-name="FL00FBh" unicode="&#xfb;" horiz-adv-x="542" 
d="M502 0v609h-109v-492h-188q-35 0 -45 18.5t-10 57.5v416h-110v-441q0 -33 7.5 -63.5t24 -54t41.5 -37t61 -13.5h160l59 91v-91h109zM397 677l-56 94h-141l-56 -94h100l26 59l27 -59h100z" />
    <glyph glyph-name="FL00FCh" unicode="&#xfc;" horiz-adv-x="542" 
d="M397 771h-100v-94h100v94zM144 677h100v94h-100v-94zM502 609h-109v-492h-188q-35 0 -45 18.5t-10 57.5v416h-110v-441q0 -33 7.5 -63.5t24 -54t41.5 -37t61 -13.5h160l59 91v-91h109v609z" />
    <glyph glyph-name="FL00FDh" unicode="&#xfd;" horiz-adv-x="522" 
d="M206 288v-288h109v288l187 321h-128l-113 -194l-113 194h-128zM288 677l56 94h-100l-34 -94h78z" />
    <glyph glyph-name="FL00FEh" unicode="&#xfe;" horiz-adv-x="504" 
d="M39 609v-609h110v187l57 -93h140q30 0 54 20t41 50t26 66t9 69q0 36 -10.5 73.5t-29.5 68t-46 49.5t-60 19h-182v100h-109zM149 392h181q11 0 20 -10.5t15 -25.5t9.5 -31t3.5 -26q0 -13 -3.5 -29.5t-10.5 -31t-17 -24.5t-22 -10h-176v188z" />
    <glyph glyph-name="FL00FFh" unicode="&#xff;" horiz-adv-x="522" 
d="M206 288v-288h109v288l187 321h-128l-113 -194l-113 194h-128zM385 771h-100v-94h100v94zM132 677h100v94h-100v-94z" />
    <glyph glyph-name="FL0152h" unicode="&#x152;" horiz-adv-x="817" 
d="M28 304q0 -53 14.5 -107t42 -98t68.5 -71.5t94 -27.5h530v107h-520q-23 0 -46.5 17t-42.5 45t-31 63.5t-12 72.5t12 72.5t31 63.5t41.5 44.5t42.5 16.5h525v107h-527q-51 0 -92 -25.5t-70 -68t-44.5 -97.5t-15.5 -114zM384 263h393v116h-393v-116z" />
    <glyph glyph-name="FL0153h" unicode="&#x153;" horiz-adv-x="817" 
d="M28 304q0 -53 14.5 -107t42 -98t68.5 -71.5t94 -27.5h530v107h-285v156h249v116h-249v123h285v107h-527q-51 0 -92 -25.5t-70 -68t-44.5 -97.5t-15.5 -114zM383 502v-395h-126q-23 0 -46.5 17t-42.5 45t-31 63.5t-12 72.5t12 72.5t31 63.5t41.5 44.5t42.5 16.5h131z" />
    <glyph glyph-name="FL0160h" unicode="&#x160;" horiz-adv-x="524" 
d="M42 0h327q27 0 49 17t37.5 43t24 58t8.5 61q0 36 -10 68.5t-28.5 57t-44.5 39.5t-57 15h-172q-6 0 -13.5 6.5t-13.5 16.5t-10 22t-4 23q0 12 3 25t8.5 24.5t13 18.5t17.5 7h305v107h-300q-32 0 -58.5 -14t-46 -38t-30.5 -57.5t-11 -72.5q0 -34 9.5 -65.5t27 -56t42 -39
t55.5 -14.5h168q23 0 37 -23.5t14 -51.5q0 -12 -4.5 -24t-11.5 -22.5t-16.5 -17t-18.5 -6.5h-296v-107zM138 771l56 -94h140l56 94h-100l-26 -59l-26 59h-100z" />
    <glyph glyph-name="FL0161h" unicode="&#x161;" horiz-adv-x="524" 
d="M42 0h327q27 0 49 17t37.5 43t24 58t8.5 61q0 36 -10 68.5t-28.5 57t-44.5 39.5t-57 15h-172q-6 0 -13.5 6.5t-13.5 16.5t-10 22t-4 23q0 12 3 25t8.5 24.5t13 18.5t17.5 7h305v107h-300q-32 0 -58.5 -14t-46 -38t-30.5 -57.5t-11 -72.5q0 -34 9.5 -65.5t27 -56t42 -39
t55.5 -14.5h168q23 0 37 -23.5t14 -51.5q0 -12 -4.5 -24t-11.5 -22.5t-16.5 -17t-18.5 -6.5h-296v-107zM138 771l56 -94h140l56 94h-100l-26 -59l-26 59h-100z" />
    <glyph glyph-name="FL0178h" unicode="&#x178;" horiz-adv-x="534" 
d="M394 771h-100v-94h100v94zM142 677h100v94h-100v-94zM383 609v-250h-193q-6 0 -13.5 5.5t-14 14.5t-11 21.5t-4.5 26.5v182h-107v-182q0 -34 9.5 -65.5t27 -56t42 -39t55.5 -14.5h210v-76q0 -12 -3 -24t-8.5 -22t-13 -16.5t-17.5 -6.5h-296v-107h327q27 0 49.5 17.5
t38.5 44.5t24.5 58.5t8.5 59.5v429h-111z" />
    <glyph glyph-name="FL0192h" unicode="&#x192;" horiz-adv-x="603" 
d="M563 324l-21 4l-4 -79l16 -2zM555 215l-13 7l-12 -11l12 -12zM517 221v103l-15 4l-4 -73l-50 69v-104l16 2v50q31 -51 53 -51zM433 222v76q-11 33 -25 33q-12 0 -13 -4q-30 -50 -37 -102h20q12 24 21 24q12 0 23 -24zM350 328l-18 -4l-10 -104l22 7zM306 217v102l-14 5
l-4 -70l-53 65v-104l16 3v49q35 -50 55 -50zM226 290q-7 34 -36 34h-12q-32 -26 -32 -93q6 -16 31 -16q4 0 7 0.5t8 1.5q27 0 34 73zM139 326q-65 -11 -65 -59v-7q0 -6 1 -6q9 -47 35 -47q4 0 6.5 1.5t10.5 3.5v17q-5 -1 -9 -1.5t-8 -0.5q-19 0 -19 20q0 24 13 43
q15 15 23 15q6 0 6 -1l1 -0.5t4 -2.5zM64 324l-15 -3l-9 -106l18 8zM416 272h-28l17 35zM207 274q0 -10 -0.5 -16t-4.5 -14q-10 -5 -16 -7t-8 -2q-14 0 -14 25v7q9 32 26 32q10 0 16 -12q0 -5 0.5 -8t0.5 -5z" />
    <glyph glyph-name="FL02C6h" unicode="&#x2c6;" horiz-adv-x="293" 
d="M273 516l-56 94h-141l-56 -94h100l26 59l27 -59h100z" />
    <glyph glyph-name="FL02DCh" unicode="&#x2dc;" horiz-adv-x="343" 
d="M76 609l-56 -94h100l22 50l31 -50h94l56 94h-100l-23 -51l-30 51h-94z" />
    <glyph glyph-name="FL2013h" unicode="&#x2013;" horiz-adv-x="317" 
d="M40 379h237v-116h-237v116z" />
    <glyph glyph-name="FL2014h" unicode="&#x2014;" horiz-adv-x="362" 
d="M40 379v-116h282v116h-282z" />
    <glyph glyph-name="FL2018h" unicode="&#x2018;" horiz-adv-x="189" 
d="M149 385v224l-109 -89v-135h109z" />
    <glyph glyph-name="FL2019h" unicode="&#x2019;" horiz-adv-x="189" 
d="M40 609v-224l109 89v135h-109z" />
    <glyph glyph-name="FL201Ah" unicode="&#x201a;" horiz-adv-x="189" 
d="M40 107v-224l109 89v135h-109z" />
    <glyph glyph-name="FL201Ch" unicode="&#x201c;" horiz-adv-x="338" 
d="M149 385v224l-109 -89v-135h109zM298 385v224l-109 -89v-135h109z" />
    <glyph glyph-name="FL201Dh" unicode="&#x201d;" horiz-adv-x="338" 
d="M189 609v-224l109 89v135h-109zM40 609v-224l109 89v135h-109z" />
    <glyph glyph-name="FL201Eh" unicode="&#x201e;" horiz-adv-x="338" 
d="M189 107v-224l109 89v135h-109zM40 107v-224l109 89v135h-109z" />
    <glyph glyph-name="FL2020h" unicode="&#x2020;" horiz-adv-x="358" 
d="M318 462h-84v147h-109v-147h-85v-116h85v-346h109v346h84v116z" />
    <glyph glyph-name="FL2021h" unicode="&#x2021;" horiz-adv-x="358" 
d="M318 462h-84v147h-109v-147h-85v-116h85v-66h-85v-116h85v-164h109v164h84v116h-84v66h84v116z" />
    <glyph glyph-name="FL2022h" unicode="&#x2022;" horiz-adv-x="390" 
d="M28 301q0 -42 13 -79.5t35.5 -65t52.5 -44t64 -16.5t65 15.5t54 42.5t36.5 64.5t13.5 82.5q0 42 -13 80.5t-35.5 67.5t-53 46t-66.5 17q-35 0 -65 -17t-52.5 -46.5t-35.5 -67.5t-13 -80z" />
    <glyph glyph-name="FL2026h" unicode="&#x2026;" horiz-adv-x="486" 
d="M338 107h108v-107h-108v107zM189 107h109v-107h-109v107zM40 107h109v-107h-109v107z" />
    <glyph glyph-name="FL2030h" unicode="&#x2030;" horiz-adv-x="782" 
d="M230 103q0 -35 10.5 -65t28.5 -52t42.5 -34.5t51.5 -12.5q24 0 45.5 10t38.5 27t28.5 41t16.5 52q5 -28 17 -51.5t29 -41t38.5 -27t45.5 -9.5q28 0 52 12.5t42 34.5t28 52t10 65t-10 65.5t-27.5 53t-42 35.5t-52.5 13q-24 0 -45.5 -10t-38.5 -28t-29 -42.5t-17 -52.5
q-10 57 -45 94.5t-84 37.5q-43 0 -74 -28l213 367h-128l-84 -145q4 17 4 40q0 35 -10 65.5t-28 53t-42 35.5t-52 13t-52 -13t-42 -36t-28.5 -53.5t-10.5 -64.5q0 -35 10.5 -65t28.5 -52t42 -34.5t52 -12.5q20 0 36.5 6.5t33.5 17.5l-212 -364h129l86 149q-5 -25 -5 -46z
M119 503q0 21 12.5 37t29.5 16q19 0 30 -16t11 -37q0 -23 -12 -37t-29 -14t-29.5 15t-12.5 36zM321 102q0 21 12 37t29 16q19 0 30.5 -16t11.5 -37q0 -23 -12 -37t-30 -14q-17 0 -29 15t-12 36zM580 103q0 21 12 37t30 16t29.5 -16t11.5 -37q0 -23 -12 -37t-29 -14t-29.5 15
t-12.5 36z" />
    <glyph glyph-name="FL2039h" unicode="&#x2039;" horiz-adv-x="226" 
d="M206 389l-66 82l-120 -150l121 -152l65 82l-55 70z" />
    <glyph glyph-name="FL203Ah" unicode="&#x203a;" horiz-adv-x="226" 
d="M20 389l66 82l120 -150l-121 -152l-66 82l55 70z" />
    <glyph glyph-name="mu" unicode="&#x2122;" horiz-adv-x="806" 
d="M786 290q0 17 -67 45q38 6 38 33v7l-103 32q20 2 20 33l-11 12h-119l4 36l-36 4l-102 -23l-2 6l2 17l-18 20l-92 -53l-46 33q-15 -8 -28 -23t-34 -45l-55 21h-3q-24 0 -24 -83l-60 8l-2 -35l29 -43l-57 -11l6 -27l56 -31l-32 -29q0 -23 16 -23l82 -18l-15 -20v-21
l131 -13l-6 -29l15 -11l127 23v-34l15 -7l97 58l32 -34l25 5l49 63l6 -2q14 -10 24 -15t22 -5q16 0 19 13l7 70l50 -13q15 7 15 25v4l-2 8l-29 45h45l10 26zM770 281l-65 -6q43 -52 43 -70l-1 -0.5t-1 -5.5l-67 12l-5 -83l-64 25l-52 -71l-46 36l-102 -59l5 23l-15 22
l-127 -26l15 40l-140 6l41 32l-123 33l56 29l-86 53l65 4l-35 52l-4 26l65 -8l10 83q30 -24 49 -24q8 0 13 3l55 68l40 -35l92 52l10 -4l4 -36l132 23l-10 -41h136l-40 -35l116 -29l7 -12h-7l-50 -17l82 -49zM671 324l-21 4l-4 -79l16 -2zM663 215l-13 7l-12 -11l12 -12z
M625 221v103l-15 4l-4 -73l-50 69v-104l16 2v50q31 -51 53 -51zM541 222v76q-11 33 -25 33q-12 0 -13 -4q-30 -50 -37 -102h20q12 24 21 24q12 0 23 -24zM458 328l-18 -4l-10 -104l22 7zM414 217v102l-14 5l-4 -70l-53 65v-104l16 3v49q35 -50 55 -50zM334 290q-7 34 -36 34
h-12q-32 -26 -32 -93q6 -16 31 -16q4 0 7 0.5t8 1.5q27 0 34 73zM247 326q-65 -11 -65 -59v-7q0 -6 1 -6q9 -47 35 -47q4 0 6.5 1.5t10.5 3.5v17q-5 -1 -9 -1.5t-8 -0.5q-19 0 -19 20q0 24 13 43q15 15 23 15q6 0 6 -1l1 -0.5t4 -2.5zM172 324l-15 -3l-9 -106l18 8zM524 272
h-28l17 35zM315 274q0 -10 -0.5 -16t-4.5 -14q-10 -5 -16 -7t-8 -2q-14 0 -14 25v7q9 32 26 32q10 0 16 -12q0 -5 0.5 -8t0.5 -5z" />
    </font>
</defs>
</svg>
