<?xml version="1.0" standalone="no"?>
<!DOCTYPE svg PUBLIC "-//W3C//DTD SVG 1.1//EN" "http://www.w3.org/Graphics/SVG/1.1/DTD/svg11.dtd" >
<svg xmlns="http://www.w3.org/2000/svg" xmlns:xlink="http://www.w3.org/1999/xlink" version="1.1">
<metadata></metadata>
<defs>
<font id="typoline_demi_shadowregular" horiz-adv-x="1085" >
<font-face units-per-em="2048" ascent="1638" descent="-410" />
<missing-glyph horiz-adv-x="501" />
<glyph unicode="&#xd;" horiz-adv-x="60" />
<glyph horiz-adv-x="60" />
<glyph horiz-adv-x="60" />
<glyph unicode=" "  horiz-adv-x="501" />
<glyph unicode="&#x09;" horiz-adv-x="501" />
<glyph unicode="&#xa0;" horiz-adv-x="501" />
<glyph unicode="!" horiz-adv-x="2341" d="M30 323q0 -74 60 -125q60 -52 147 -52q85 0 146 52q60 51 60 125q0 64 -48 112h89l93 975h-99l-84 -885h-146l2 -28q-6 1 -13 1q-86 0 -147 -52q-60 -51 -60 -123zM30 1556h413l-93 -975h-227zM176 113q47 -23 105 -23q85 0 145 51q61 52 61 125q0 33 -13 62 q23 -11 42 -28q61 -52 61 -124q0 -73 -61 -125q-60 -51 -146 -51t-146 51q-33 28 -48 62z" />
<glyph unicode="&#x22;" horiz-adv-x="846" d="M30 1364v190h273v-190l-46 -269h-181zM194 1038l16 -90h180l45 263l20 -116h180l47 269v190h-273v-146h-62v-100l-47 -270h-106zM573 1038h106l47 270v100h90v-190l-47 -270h-180z" />
<glyph unicode="#" horiz-adv-x="1315" d="M30 484v221h222l16 145h-104v90h115l6 56h-255v221h280l39 339h218l-38 -339h50l22 193h100l-22 -193h56l39 339h219l-39 -339h51l21 193h100l-21 -193h46v-221h-222l-33 -291h50l27 235h222v131h90v-221h-222l-17 -145h105v-221h-280l-38 -338h-219l21 191h-56l-38 -337 h-219l10 90h119l38 337h157l6 57h-206l-38 -338h-219l21 191h-46v90h56l7 57h-197zM471 705h50l27 235h156l6 56h-206zM621 705h56l17 145h-56zM747 0h219l38 337h281v222h-90v-132h-280l-38 -337h-119z" />
<glyph unicode="$" horiz-adv-x="1132" d="M30 378v229h436v-324q0 -24 23 -24h20q23 0 23 24v324q0 11 -23 24l-246 139q-149 85 -159 92q-74 58 -74 141v320q0 96 69 164q67 69 164 69h137v102h66v-102h67v102h65v-102h137q141 -2 195 -112q38 -78 38 -235v-115h-436v325q0 23 -23 23h-20q-23 0 -23 -23v-325 q0 -11 23 -23l177 -100v66h346v115q0 157 -38 235v1q59 -28 90 -91q38 -78 38 -234v-116h-395l28 -15q147 -84 159 -93q74 -58 74 -141v-320q0 -96 -67 -164q-69 -68 -166 -68h-137v-251h-65v251h-67v-146h-70q-96 0 -164 68q-24 23 -39 50q50 -28 114 -28h93v56h-137 q-97 0 -164 68q-69 68 -69 164zM642 0h25v-105h65v105h137q96 0 165 68q68 68 68 164v320q0 83 -74 141q-5 3 -31 18q15 -32 15 -69v-321q0 -95 -68 -164q-68 -67 -165 -67h-137v-90z" />
<glyph unicode="%" horiz-adv-x="1043" d="M30 146l334 708h-109q-38 0 -64 26q-27 27 -27 63h162l27 2q26 6 46 25q26 27 26 65v375q38 -1 63 -27q27 -27 27 -65v-145l181 383h183l-666 -1410h-183zM30 1092q0 -38 27 -65t65 -27h168q38 0 65 27t27 65v372q0 39 -27 65q-27 27 -65 27h-168q-39 0 -65 -27 q-27 -26 -27 -65v-372zM164 0h182l178 375v-134q0 -38 27 -65q26 -27 65 -27h168q38 0 65 27q27 26 27 65v372q0 38 -27 65q-28 27 -65 27h-104l333 705h-132l-624 -1320h-51zM193 1054v448q0 9 9 9h8q9 0 9 -9v-448q0 -9 -9 -9h-8q-9 0 -9 9zM657 92q1 -36 27 -63 q27 -26 65 -26h168q38 0 65 26q27 27 27 65v373q0 38 -27 65q-26 26 -63 27v-375q0 -38 -27 -65q-19 -20 -45 -25l-27 -2h-163zM686 203v448q0 8 9 8h9q9 0 9 -8v-448q0 -10 -9 -10h-9q-9 0 -9 10z" />
<glyph unicode="&#x26;" horiz-adv-x="1326" d="M30 378v253q0 136 101 205q87 59 233 59q-287 0 -287 268v160q0 96 68 164q69 69 164 69h470q97 0 164 -69q69 -68 69 -164v-168h-437v264q0 23 -24 23h-14q-24 0 -24 -23v-442q0 -24 24 -24h65v-112h-65q-41 0 -54 -11q-16 -12 -16 -45v-456q0 -23 23 -23h108 q24 0 24 23v272q-61 -18 -112 -78v206q68 94 159 95q55 0 166 -45q111 -46 167 -46q92 0 160 92v-212q-47 -56 -104 -74v-161q0 -96 -68 -164t-164 -68h-563q-96 0 -164 68q-69 68 -69 164zM193 119q15 -27 39 -51q69 -68 164 -68h563q97 0 164 68q69 68 69 164v160 q56 19 104 75v211q-41 -54 -90 -76v-45q-48 -56 -104 -75v-161q0 -95 -69 -164q-67 -67 -164 -67h-562q-63 0 -114 29zM709 1009h437v168q0 95 -69 164q-24 24 -51 39q30 -51 30 -113v-168h-347v-90z" />
<glyph unicode="'" horiz-adv-x="466" d="M30 1366v190h273v-190l-46 -269h-181zM194 1040l16 -90h180l46 270v190h-89v-100l-47 -270h-106z" />
<glyph unicode="(" horiz-adv-x="742" d="M30 655q0 456 299 900h249q-279 -444 -279 -900v-2q0 -456 279 -897h-249q-299 444 -299 899zM343 596q0 -455 279 -897h-217q27 -45 57 -89h250q-279 441 -279 896v3q0 456 279 900h-143q-226 -401 -226 -810v-3z" />
<glyph unicode=")" horiz-adv-x="742" d="M30 -244q279 442 279 897v2q0 456 -279 900h250q298 -444 298 -900q0 -455 -298 -899h-250zM164 -390h249q299 443 299 899q0 455 -299 900h-32q241 -401 241 -810q0 -456 -299 -900h-106q-25 -45 -53 -89z" />
<glyph unicode="*" horiz-adv-x="1046" d="M30 1180q11 86 55 161l253 -63l15 264q50 13 103 13q52 0 99 -12l12 -263l260 61q44 -75 55 -161l-247 -107l149 -226q-71 -83 -172 -122l-161 179l-152 -179q-99 39 -170 121l143 227zM263 700q71 -82 170 -121l148 173l-86 95l-152 -178q-40 15 -76 38zM662 671l84 -92 q100 39 171 121l-148 227l247 107q-11 85 -55 161l-47 -11q8 -29 12 -60l-247 -107l148 -227q-68 -80 -165 -119z" />
<glyph unicode="+" horiz-adv-x="1215" d="M30 703v306h358v358h306v-358h44v212h89v-212h224v-306h-357v-357h-306v211h-224v90h224v56h-358zM522 200h305v357h358v305h-90v-215h-357v-358h-216v-89z" />
<glyph unicode="," horiz-adv-x="607" d="M30 310q0 72 60 123q61 52 147 52q85 0 146 -52q60 -51 60 -123q-1 -48 -20 -83l-178 -383h-101l23 299q-50 4 -93 53q-43 48 -44 114zM278 -303h101l178 383q19 36 20 83q0 72 -61 124q-19 17 -42 28q13 -29 13 -62q-1 -47 -20 -83l-178 -383h-5z" />
<glyph unicode="-" horiz-adv-x="1002" d="M30 635v305h809v-305h-809zM164 488h808v306h-90v-216h-718v-90z" />
<glyph unicode="." horiz-adv-x="1427" d="M30 -158v1660h1367v-1660h-1367zM82 -106h1263v1554h-1263v-1554zM127 971h19q1 -24 11 -41q10 -18 25 -18h20q15 0 26 18q10 18 10 45q0 23 -10 43q-11 18 -26 18h-31q-27 0 -39 38q-4 16 -4 37q0 32 13 55q11 20 30 20h30q18 0 31 -20t14 -51h-20q-1 17 -8 28t-17 11 h-30q-14 0 -21 -20q-4 -11 -4 -23q0 -20 8 -30q6 -11 17 -11h29q24 0 40 -29q16 -26 16 -66t-15 -68q-17 -27 -39 -27h-20q-22 0 -38 27q-16 28 -17 64zM147 44v4q0 4 1 13h28q12 3 12 21v1q0 7 -21 13q-10 8 -10 19v4q0 21 17 33q4 2 11 2h24v-1q0 -3 -3 -17h-23 q-9 0 -10 -16q0 -5 21 -13q10 -7 10 -17v-10q0 -21 -18 -35q-7 -1 -12 -1h-27zM147 255v15q0 6 5 14v1q-4 5 -4 13v6q0 6 3 10q-4 7 -4 13v23q3 26 24 26h12q4 0 8 -1q8 1 17 4q7 -13 7 -16q-4 -4 -9 -4q3 -7 3 -20v-2q0 -34 -26 -34h-14l-6 1q-1 -2 -1 -3q0 -4 30 -13 q20 -9 20 -23v-8q-3 -27 -25 -27q0 -1 -6 -1h-4q-21 0 -28 16q-2 3 -2 10zM148 479v132q1 13 5 13h43q10 0 19 -20q3 -11 3 -21v-8q0 -42 -32 -42h-22v-54h-16zM162 260q1 -13 13 -13h8q13 0 13 12v1q0 10 -29 18v-1q-5 -6 -5 -15v-2zM162 337q0 -17 11 -17h10q10 0 10 18v3 q-1 18 -11 18h-7q-13 0 -13 -15v-7zM164 551h21q17 0 17 27v3q0 26 -16 26q0 1 -6 1h-16v-57zM230 507v47q0 28 18 34h7h11q27 0 27 -34q0 -22 -15 -30q-4 -3 -13 -3h-19v-7q0 -18 13 -18h1q13 0 25 6h1q0 -3 4 -17q-9 -6 -20 -6h-21q-13 0 -19 28zM235 136q0 3 3 18h16 q0 3 7 36h14q0 -2 -6 -36h14v-1q0 -4 -3 -17h-15v-1q-11 -68 -11 -73l6 -1h3v-1q0 -2 -2 -16h-3q-21 0 -21 13q0 8 12 79h-14zM241 303v38q0 27 18 34h26q16 0 19 -33v-1q0 -22 -17 -31q-5 -1 -8 -1h-22v-7q0 -18 12 -18h6q12 0 20 6h3l3 -18q-9 -6 -29 -6h-5q-18 0 -24 20 q-2 7 -2 17zM246 539h20q9 0 11 16q-2 16 -11 16h-8q-12 0 -12 -15v-17zM257 327h20q11 1 11 16q0 16 -13 16h-5q-13 0 -13 -18v-14zM276 1066v32h20v88h20v-88h20v-32h-20v-196q0 -15 3 -28q6 -24 26 -26v-30q-31 2 -43 42q-6 21 -6 42v196h-20zM293 68v2q0 7 14 84h16 l-14 -83q2 -10 9 -10h1q18 0 18 13l13 80h16v-1q0 -4 -18 -109h-16v2q-5 -2 -9 -2h-7q-23 0 -23 24zM306 479v109h16v-4h1q5 4 14 4h9q2 0 2 -1v-16l-8 1q-16 0 -18 -12v-81h-16zM327 359v16h15q1 15 1 23v6l1 9h13v-38h15v-16h-14v-72q1 -3 6 -3h5v-18h-5q-20 2 -20 11 q-2 4 -2 11v71h-15zM352 560q0 25 20 28h28v-17h-24q-7 -1 -7 -9v-3q0 -9 11 -12q27 -7 27 -31v-11q0 -19 -15 -26h-37v17h26q8 0 10 8v7q0 11 -9 15q-14 3 -24 13q-6 12 -6 21zM362 794v11q0 5 2 7q2 3 6 3h4q3 0 5 -1q3 -2 4 -7l-6 -1q-1 1 -3 1h-6q-2 -1 -2 -2v-11 q0 -3 2 -3l2 -1h6l1 1h6q-1 -4 -4 -5q-2 -2 -5 -2h-4q-4 0 -6 3t-2 7zM364 948v150h20v-150q0 -13 5 -25q7 -11 16 -11h24q10 0 15 11q7 12 8 25v150h19v-218h-19v9q-11 -9 -23 -9h-24q-17 0 -29 19q-12 23 -12 49zM382 69q10 70 16 70q8 15 26 15h15l2 -1l7 37h16l-26 -146 h-13h-3h-4h-13q-23 0 -23 25zM390 784v43h6v-13q1 1 3 1h4q3 0 7 -3q3 -5 3 -7v-21h-7v21v2h-9q-1 -1 -1 -2v-21h-6zM399 70q0 -7 9 -9h11q7 0 9 16l9 58l-2 1h-13q-16 0 -18 -37q-5 -21 -5 -29zM420 513v33q0 35 16 41q4 1 10 1h11q17 0 23 -14q3 -8 3 -15v-49 q0 -20 -14 -29q-3 -2 -5 -2h-22q-22 5 -22 34zM421 794v11q0 5 3 7q2 3 5 3h5q4 0 7 -3q1 -2 1 -7v-11q0 -4 -1 -7q-3 -3 -7 -3h-5q-3 0 -5 3q-3 3 -3 7zM426 794q0 -3 2 -3q0 -1 1 -1h5q1 0 4 1v16h-10q-2 -1 -2 -2v-11zM437 510q0 -14 15 -14h2q13 0 13 14v47 q-2 14 -10 14h-9q-11 -2 -11 -14v-47zM451 348v18h9v13q0 28 21 34h7v-18q-12 0 -12 -19v-10h10v-18h-10v-82h-16v82h-9zM453 794v11q0 5 2 7q2 3 5 3h5q4 0 7 -3q2 -2 2 -7v-11q0 -4 -2 -7q-3 -3 -7 -3h-5q-3 0 -5 3t-2 7zM457 794q0 -3 1 -3q1 -1 2 -1h5q1 0 3 1q1 0 1 3 v11q0 1 -1 2h-10q-1 -1 -1 -2v-11zM471 44l19 110h16v-1q0 -6 -19 -109h-16zM481 793v1h5v-1q0 -2 1 -2q1 -1 3 -1h3l1 1q2 0 2 3l-2 2l-1 2h-5q-2 0 -3 1q-2 0 -2 3q-2 1 -2 4q0 5 2 6q2 3 5 3h5q2 0 4 -3q2 -1 2 -5v-2h-5l-1 2v3h-5q-1 0 -2 -3v-1q0 -1 1 -1q0 -2 1 -2h5 q3 0 4 -3q3 -1 3 -6q0 -4 -2 -7t-5 -3h-3q-4 0 -6 3q-3 3 -3 6zM493 168v1q2 21 5 21h15q-4 -19 -4 -22h-16zM496 948v82q0 28 13 48q11 20 28 20h25q12 0 20 -11v99h20v-306h-20v9q-8 -9 -20 -9h-25q-17 0 -28 19q-13 23 -13 49zM499 479v109h16v-3q4 3 9 3h12q17 0 22 -13 q4 -6 4 -18v-78h-16v78q-2 14 -10 14h-11q-10 0 -10 -11v-81h-16zM509 794v11q0 5 2 7q2 3 5 3h6q3 0 6 -3q2 -2 2 -7v-6h-17v-5q0 -3 2 -3q0 -1 1 -1h6q1 0 2 1q1 0 1 2h5q-1 -3 -2 -7q-3 -2 -6 -2h-6q-3 0 -5 3t-2 7zM513 805h12q0 1 -1 2h-9q-2 -1 -2 -2zM515 948 q0 -13 7 -25q6 -11 15 -11h25q8 0 15 11q5 12 5 25v82q0 13 -5 24q-7 12 -15 12h-25q-9 0 -15 -12q-7 -11 -7 -24v-82zM517 296v79h16v-74q0 -17 13 -17h5q10 0 10 10v81h16v-109h-16v3q-4 -3 -7 -3h-11q-17 0 -24 19q-2 8 -2 11zM524 68q10 72 17 72q7 14 25 14h8 q23 0 23 -25q-10 -71 -16 -71q-7 -14 -28 -14h-3q-19 0 -22 10q-3 4 -4 14zM541 71q0 -9 11 -10h4q15 0 18 27q6 34 6 39q0 7 -9 9h-7q-13 0 -17 -27q-6 -35 -6 -38zM556 783h5q0 -4 1 -5l1 -2h5q1 0 2 2q1 1 1 4v2h-8q-4 0 -6 3q-1 3 -1 6v22h5v-22q0 -2 1 -2l1 -1h5 q1 0 2 1q1 0 1 2v22h7v-33q0 -6 -3 -8q-4 -3 -7 -3h-5q-4 0 -6 3q-1 2 -1 9zM575 510v6q0 24 18 33h9h9q8 0 11 -2v7q0 17 -11 17h-1q-10 0 -25 -4h-1v17q0 4 28 4h1q21 0 25 -29v-80h-16v2q-3 -2 -5 -2h-23q-14 0 -19 31zM585 794v11q0 5 4 7q2 3 5 3h4q5 0 7 -3q2 -2 2 -7 v-11q0 -4 -2 -7t-7 -3h-4q-3 0 -5 3q-4 3 -4 7zM591 513q2 -17 13 -17h5q13 0 13 18v14q-1 4 -8 4h-12q-10 0 -11 -19zM591 794q0 -3 1 -3q1 -1 2 -1h4q1 0 4 1q1 0 1 3v11q0 1 -1 2h-10q-1 -1 -1 -2v-11zM612 296v117h16v-120q0 -10 5 -10h7v-17h-7q-20 0 -20 20 q-1 0 -1 10zM617 794v21h4v-21q0 -3 1 -3l2 -1h6q1 0 3 1v24h4v-31h-4v2q0 -2 -3 -2h-6q-3 0 -5 3t-2 7zM622 136q3 15 3 18h15q8 34 8 36h14v-1l-6 -35h14v-1l-2 -17h-15q-13 -69 -13 -74h1l6 -1h3v-1q-1 -16 -3 -16h-1q-21 0 -21 13v3q0 12 12 76h-15zM633 880v218h19 v-218h-19zM633 1154v32h19v-32h-19zM647 784v31h5v-1q0 1 3 1h5v-8h-7q-1 0 -1 -2v-21h-5zM656 514v110h17v-126q1 -3 7 -3h4v-16h-13q-15 0 -15 35zM662 17q0 4 8 13h2q0 -4 9 -5q6 0 13 19l-7 110h16q1 -1 1 -2q2 -68 2 -74h2q27 74 30 76h16q-50 -129 -58 -140 q-7 -6 -11 -6h-13q-5 0 -10 9zM668 288v125h16v-127q0 -1 3 -3h8v-17h-6q-21 0 -21 22zM685 794v11q0 5 2 7q2 3 6 3h5q3 0 4 -1q3 -2 3 -7l-3 -1q-2 1 -4 1h-8v-16q2 -1 3 -1h7q1 1 2 1h3q0 -4 -3 -5q-1 -2 -4 -2h-5q-4 0 -6 3t-2 7zM685 950v80q0 28 11 49q12 20 29 20h24 q19 0 28 -20q12 -21 12 -49v-80q0 -28 -12 -51q-10 -19 -28 -19h-24q-17 0 -29 19q-11 23 -11 51zM703 950q0 -15 6 -27q7 -11 16 -11h24q9 0 15 11q7 12 7 27v80q0 14 -7 25q-6 11 -15 11h-24q-9 0 -16 -11q-6 -11 -6 -25v-80zM715 784v43h4v-13q0 1 3 1h5q3 0 6 -3 q3 -5 3 -7v-21h-6v23h-11v-23h-4zM743 793q0 5 3 7q3 3 7 3h4q1 2 1 3v1h-9v-2h-5v2q0 4 2 5q3 3 5 3h4q4 0 6 -3q2 -2 2 -6v-15q0 -1 1 -1l3 -2l-4 -5l-2 3h-1q-1 -2 -5 -2q0 -1 -1 -1t-4 1q-3 2 -5 3q-2 3 -2 6zM748 507v81h16v-78q0 -13 14 -14q13 1 13 6v86h16v-109h-16 v2q-3 -2 -5 -2h-18q-16 0 -20 28zM749 790h7q2 1 2 3v5h-5q-3 0 -4 -2v-6zM751 8v1l25 145h15q1 0 1 -1l2 1h18q13 0 18 -11q2 -6 2 -10v-6q-9 -69 -16 -69q-9 -14 -18 -14h-24q-7 -34 -7 -36h-16zM773 784v31h4v-1q1 1 5 1h4v-8h-5q-4 0 -4 -2v-21h-4zM774 348v18h9v1 q0 39 13 42q3 4 10 4h5v-18q-12 0 -12 -12v-17h10v-18h-10v-82h-16v82h-9zM777 63q3 -2 6 -2h7q19 0 19 27q1 1 7 37q-2 11 -9 11h-15q-4 0 -15 -73zM794 793q0 5 2 7q3 3 7 3h5v4h-8v-2h-5v2q0 4 2 5q2 3 5 3h4q4 0 5 -3q3 -2 3 -6v-16l3 -2l-3 -5l-2 3h-1q-1 -2 -5 -2 q-1 -1 -2 -1t-3 1q-3 2 -5 3q-2 3 -2 6zM799 793q0 -2 1 -3h6q2 1 2 3v5h-6q-1 0 -2 -2t-1 -3zM806 1154v32h142v-32h-61v-274h-19v274h-62zM821 560q3 28 18 28h30v-17h-24q-7 0 -8 -11q0 -11 17 -15q22 -8 22 -31v-8q0 -20 -15 -27h-38v17h27q10 0 10 13v1q0 15 -10 15 q-27 10 -27 22q-1 0 -2 13zM824 794v11q0 5 2 7q3 3 6 3h5q3 0 4 -1q2 -2 4 -7l-5 -1q0 1 -3 1h-8v-16q2 -1 3 -1h8v1h5q-2 -4 -4 -5q-1 -2 -4 -2h-5q-3 0 -6 3q-2 3 -2 7zM839 304v35q0 27 15 36h5h24q12 0 18 -23q1 -1 1 -6v-49q0 -21 -16 -29q-3 -2 -9 -2h-12 q-26 0 -26 38zM852 807v8h4v12h4v-12h5v-8h-5v-14q3 -3 7 -3v-6q-8 0 -10 6q-1 3 -1 6v11h-4zM853 68q10 72 16 72q8 14 25 14h8q23 0 23 -25q-10 -69 -15 -69q-7 -16 -29 -16h-3q-19 0 -23 11q-1 6 -2 13zM855 306q0 -22 12 -22h9q10 0 10 17v43q0 15 -13 15h-4 q-14 0 -14 -23v-30zM869 71q0 -9 11 -10h5q15 0 18 32q6 30 6 35q-3 8 -9 8h-7q-16 0 -19 -39q-5 -20 -5 -26zM874 794v11q0 5 3 7q2 3 5 3h5q4 0 7 -3q1 -2 1 -7v-6h-16v-5q0 -3 1 -3q1 -1 2 -1h5q3 0 3 1q1 0 1 2h4q0 -3 -1 -7q-3 -2 -7 -2h-5q-3 0 -5 3q-3 3 -3 7z M879 805h12v2h-11q-1 -1 -1 -2zM889 516v35q0 37 26 37h10q17 0 23 -14q4 -10 4 -17v-4q0 -26 -19 -31q-4 -1 -8 -1h-20v-5q0 -20 13 -20h1q14 0 25 6h2l3 -17q-8 -6 -19 -6h-21q-13 0 -19 24q-1 6 -1 13zM905 539h20q9 0 11 16q-2 16 -11 16h-8q-12 0 -12 -18v-14zM905 784 v31h6v-1q0 1 1 1h6v-8h-6q-1 0 -1 -2v-21h-6zM934 266v109h16v-2h1q0 2 5 2h22q12 0 18 -23q1 -7 1 -16v-70h-16v73q0 20 -13 20h-4q-14 0 -14 -8v-85h-16zM939 786h66q17 0 28 20q14 21 14 50v242h-20v-150q0 -14 -7 -26q-5 -11 -15 -11h-24q-11 0 -17 11q-5 12 -5 26v150 h-20v-150q0 -28 12 -50q13 -20 30 -20h24q11 0 22 11v-33q0 -16 -7 -26q-5 -12 -15 -12h-66v-32zM945 44q0 3 3 25h16v-1l-3 -24h-16zM999 70q10 70 17 70q5 14 29 14h4q14 0 20 -8v-1q-7 -14 -10 -16q-7 7 -14 7h-3q-13 0 -17 -12q-9 -44 -9 -54q0 -9 10 -9t25 6v-8v-10 q-12 -5 -28 -5q-17 0 -21 11q-3 7 -3 15zM1019 509v48q0 22 16 30q4 1 10 1h12q26 0 26 -37v-35q0 -22 -10 -31q-6 -6 -10 -6h-24q-12 0 -19 23q-1 2 -1 7zM1022 359v16h16q0 14 1 38h14v-38h15v-16h-15v-68q0 -7 6 -7h6v-18h-6q-22 0 -22 22v71h-15zM1035 514q0 -18 14 -18 h4q14 0 14 22v33q0 20 -13 20h-8q-11 0 -11 -17v-40zM1072 791v307h19v-10q10 10 21 10h25q17 0 28 -19q10 -21 10 -49v-79q0 -28 -10 -49q-11 -19 -28 -19h-25q-11 0 -21 9v-101h-19zM1081 62v7q9 69 15 69q7 16 26 16h9q14 0 19 -12q3 -8 3 -13q-11 -71 -16 -71 q-8 -14 -29 -14h-2q-20 0 -23 10q-2 6 -2 8zM1091 951q0 -15 7 -25q5 -12 14 -12h25q8 0 15 12q5 10 5 25v79q0 14 -5 25q-7 11 -15 11h-25q-9 0 -14 -11q-7 -11 -7 -25v-79zM1097 71q0 -9 10 -10h3q15 0 18 16q8 44 8 50q0 8 -10 9h-6q-16 0 -19 -40q-1 0 -4 -25zM1098 479 v109h16v-2q5 2 8 2h14q26 0 26 -39v-70h-16v72q0 20 -12 20h-9q-11 0 -11 -8v-84h-16zM1143 301q4 35 20 35h24l3 -1v10q0 11 -11 14q-11 0 -26 -5v19q11 3 29 3q25 0 25 -42v-68h-17v3q-3 -3 -8 -3h-12q-17 0 -23 15q-2 6 -4 20zM1160 302q0 -18 12 -18h7q11 2 11 13v19 q0 4 -17 4q-11 0 -13 -15v-3zM1169 44q0 6 18 110h16v-2q3 2 6 2h10q9 0 14 -5q6 5 17 5h8q18 0 18 -19v-12q0 -9 -13 -79h-15v1q0 4 13 81q0 10 -7 10h-6q-10 0 -10 -13q-13 -74 -14 -79h-15q0 4 13 82q0 10 -7 10h-6q-12 0 -12 -22q-2 -3 -12 -70h-16zM1180 512v112h16 v-121q0 -8 8 -8h4v-16h-14q-11 3 -11 10q-2 0 -3 23zM1202 950v80q0 28 11 49q12 20 29 20h25q17 0 28 -20q13 -21 13 -49v-80q0 -28 -13 -51q-11 -19 -28 -19h-25q-17 0 -29 19q-11 23 -11 51zM1209 454q2 5 5 12h2q6 -6 10 -6q8 0 10 21q-3 7 -26 107h17q16 -74 16 -77h1 l16 77h16v-4q-2 -14 -30 -130q-7 -12 -15 -12h-8q-9 0 -14 12zM1222 950q0 -15 5 -27q7 -11 15 -11h25q10 0 15 11q7 12 7 27v80q0 14 -7 25q-5 11 -15 11h-25q-8 0 -15 -11q-5 -11 -5 -25v-80zM1232 359v16h14q2 0 2 2v7v29h15v-38h13v-16h-13v-70q0 -5 5 -5h6v-18h-6 q-21 0 -21 22v71h-15z" />
<glyph unicode="/" horiz-adv-x="672" d="M30 146l295 1410h183l-295 -1410h-183zM164 0h182l296 1410h-109l-276 -1320h-75z" />
<glyph unicode="0" d="M30 378v945q0 96 69 164q67 69 164 69h426q97 0 164 -69q69 -68 69 -164v-945q0 -96 -69 -163q-67 -69 -164 -69h-426q-97 0 -164 68q-69 68 -69 164zM193 118q15 -27 39 -50q68 -68 164 -68h427q96 0 164 68t68 164v945q0 95 -68 164q-24 24 -51 39q30 -51 30 -113v-946 q0 -95 -69 -163q-68 -68 -164 -68h-426q-64 0 -114 28zM443 283q0 -24 23 -24h20q23 0 23 24v1136q0 23 -23 23h-20q-23 0 -23 -23v-1136z" />
<glyph unicode="1" horiz-adv-x="717" d="M30 1167l159 389h364v-1410h-412v1021h-111zM274 0h413v1410h-90v-1320h-323v-90z" />
<glyph unicode="2" horiz-adv-x="1427" d="M30 -158v1660h1367v-1660h-1367zM82 -106h1263v1554h-1263v-1554zM127 971h19q1 -24 11 -41q10 -18 25 -18h20q15 0 26 18q10 18 10 45q0 23 -10 43q-11 18 -26 18h-31q-27 0 -39 38q-4 16 -4 37q0 32 13 55q11 20 30 20h30q18 0 31 -20t14 -51h-20q-1 17 -8 28t-17 11 h-30q-14 0 -21 -20q-4 -11 -4 -23q0 -20 8 -30q6 -11 17 -11h29q24 0 40 -29q16 -26 16 -66t-15 -68q-17 -27 -39 -27h-20q-22 0 -38 27q-16 28 -17 64zM147 44v4q0 4 1 13h28q12 3 12 21v1q0 7 -21 13q-10 8 -10 19v4q0 21 17 33q4 2 11 2h24v-1q0 -3 -3 -17h-23 q-9 0 -10 -16q0 -5 21 -13q10 -7 10 -17v-10q0 -21 -18 -35q-7 -1 -12 -1h-27zM147 255v15q0 6 5 14v1q-4 5 -4 13v6q0 6 3 10q-4 7 -4 13v23q3 26 24 26h12q4 0 8 -1q8 1 17 4q7 -13 7 -16q-4 -4 -9 -4q3 -7 3 -20v-2q0 -34 -26 -34h-14l-6 1q-1 -2 -1 -3q0 -4 30 -13 q20 -9 20 -23v-8q-3 -27 -25 -27q0 -1 -6 -1h-4q-21 0 -28 16q-2 3 -2 10zM148 479v132q1 13 5 13h43q10 0 19 -20q3 -11 3 -21v-8q0 -42 -32 -42h-22v-54h-16zM162 260q1 -13 13 -13h8q13 0 13 12v1q0 10 -29 18v-1q-5 -6 -5 -15v-2zM162 337q0 -17 11 -17h10q10 0 10 18v3 q-1 18 -11 18h-7q-13 0 -13 -15v-7zM164 551h21q17 0 17 27v3q0 26 -16 26q0 1 -6 1h-16v-57zM230 507v47q0 28 18 34h7h11q27 0 27 -34q0 -22 -15 -30q-4 -3 -13 -3h-19v-7q0 -18 13 -18h1q13 0 25 6h1q0 -3 4 -17q-9 -6 -20 -6h-21q-13 0 -19 28zM235 136q0 3 3 18h16 q0 3 7 36h14q0 -2 -6 -36h14v-1q0 -4 -3 -17h-15v-1q-11 -68 -11 -73l6 -1h3v-1q0 -2 -2 -16h-3q-21 0 -21 13q0 8 12 79h-14zM241 303v38q0 27 18 34h26q16 0 19 -33v-1q0 -22 -17 -31q-5 -1 -8 -1h-22v-7q0 -18 12 -18h6q12 0 20 6h3l3 -18q-9 -6 -29 -6h-5q-18 0 -24 20 q-2 7 -2 17zM246 539h20q9 0 11 16q-2 16 -11 16h-8q-12 0 -12 -15v-17zM257 327h20q11 1 11 16q0 16 -13 16h-5q-13 0 -13 -18v-14zM276 1066v32h20v88h20v-88h20v-32h-20v-196q0 -15 3 -28q6 -24 26 -26v-30q-31 2 -43 42q-6 21 -6 42v196h-20zM293 68v2q0 7 14 84h16 l-14 -83q2 -10 9 -10h1q18 0 18 13l13 80h16v-1q0 -4 -18 -109h-16v2q-5 -2 -9 -2h-7q-23 0 -23 24zM306 479v109h16v-4h1q5 4 14 4h9q2 0 2 -1v-16l-8 1q-16 0 -18 -12v-81h-16zM327 359v16h15q1 15 1 23v6l1 9h13v-38h15v-16h-14v-72q1 -3 6 -3h5v-18h-5q-20 2 -20 11 q-2 4 -2 11v71h-15zM352 560q0 25 20 28h28v-17h-24q-7 -1 -7 -9v-3q0 -9 11 -12q27 -7 27 -31v-11q0 -19 -15 -26h-37v17h26q8 0 10 8v7q0 11 -9 15q-14 3 -24 13q-6 12 -6 21zM362 794v11q0 5 2 7q2 3 6 3h4q3 0 5 -1q3 -2 4 -7l-6 -1q-1 1 -3 1h-6q-2 -1 -2 -2v-11 q0 -3 2 -3l2 -1h6l1 1h6q-1 -4 -4 -5q-2 -2 -5 -2h-4q-4 0 -6 3t-2 7zM364 948v150h20v-150q0 -13 5 -25q7 -11 16 -11h24q10 0 15 11q7 12 8 25v150h19v-218h-19v9q-11 -9 -23 -9h-24q-17 0 -29 19q-12 23 -12 49zM382 69q10 70 16 70q8 15 26 15h15l2 -1l7 37h16l-26 -146 h-13h-3h-4h-13q-23 0 -23 25zM390 784v43h6v-13q1 1 3 1h4q3 0 7 -3q3 -5 3 -7v-21h-7v21v2h-9q-1 -1 -1 -2v-21h-6zM399 70q0 -7 9 -9h11q7 0 9 16l9 58l-2 1h-13q-16 0 -18 -37q-5 -21 -5 -29zM420 513v33q0 35 16 41q4 1 10 1h11q17 0 23 -14q3 -8 3 -15v-49 q0 -20 -14 -29q-3 -2 -5 -2h-22q-22 5 -22 34zM421 794v11q0 5 3 7q2 3 5 3h5q4 0 7 -3q1 -2 1 -7v-11q0 -4 -1 -7q-3 -3 -7 -3h-5q-3 0 -5 3q-3 3 -3 7zM426 794q0 -3 2 -3q0 -1 1 -1h5q1 0 4 1v16h-10q-2 -1 -2 -2v-11zM437 510q0 -14 15 -14h2q13 0 13 14v47 q-2 14 -10 14h-9q-11 -2 -11 -14v-47zM451 348v18h9v13q0 28 21 34h7v-18q-12 0 -12 -19v-10h10v-18h-10v-82h-16v82h-9zM453 794v11q0 5 2 7q2 3 5 3h5q4 0 7 -3q2 -2 2 -7v-11q0 -4 -2 -7q-3 -3 -7 -3h-5q-3 0 -5 3t-2 7zM457 794q0 -3 1 -3q1 -1 2 -1h5q1 0 3 1q1 0 1 3 v11q0 1 -1 2h-10q-1 -1 -1 -2v-11zM471 44l19 110h16v-1q0 -6 -19 -109h-16zM481 793v1h5v-1q0 -2 1 -2q1 -1 3 -1h3l1 1q2 0 2 3l-2 2l-1 2h-5q-2 0 -3 1q-2 0 -2 3q-2 1 -2 4q0 5 2 6q2 3 5 3h5q2 0 4 -3q2 -1 2 -5v-2h-5l-1 2v3h-5q-1 0 -2 -3v-1q0 -1 1 -1q0 -2 1 -2h5 q3 0 4 -3q3 -1 3 -6q0 -4 -2 -7t-5 -3h-3q-4 0 -6 3q-3 3 -3 6zM493 168v1q2 21 5 21h15q-4 -19 -4 -22h-16zM496 948v82q0 28 13 48q11 20 28 20h25q12 0 20 -11v99h20v-306h-20v9q-8 -9 -20 -9h-25q-17 0 -28 19q-13 23 -13 49zM499 479v109h16v-3q4 3 9 3h12q17 0 22 -13 q4 -6 4 -18v-78h-16v78q-2 14 -10 14h-11q-10 0 -10 -11v-81h-16zM509 794v11q0 5 2 7q2 3 5 3h6q3 0 6 -3q2 -2 2 -7v-6h-17v-5q0 -3 2 -3q0 -1 1 -1h6q1 0 2 1q1 0 1 2h5q-1 -3 -2 -7q-3 -2 -6 -2h-6q-3 0 -5 3t-2 7zM513 805h12q0 1 -1 2h-9q-2 -1 -2 -2zM515 948 q0 -13 7 -25q6 -11 15 -11h25q8 0 15 11q5 12 5 25v82q0 13 -5 24q-7 12 -15 12h-25q-9 0 -15 -12q-7 -11 -7 -24v-82zM517 296v79h16v-74q0 -17 13 -17h5q10 0 10 10v81h16v-109h-16v3q-4 -3 -7 -3h-11q-17 0 -24 19q-2 8 -2 11zM524 68q10 72 17 72q7 14 25 14h8 q23 0 23 -25q-10 -71 -16 -71q-7 -14 -28 -14h-3q-19 0 -22 10q-3 4 -4 14zM541 71q0 -9 11 -10h4q15 0 18 27q6 34 6 39q0 7 -9 9h-7q-13 0 -17 -27q-6 -35 -6 -38zM556 783h5q0 -4 1 -5l1 -2h5q1 0 2 2q1 1 1 4v2h-8q-4 0 -6 3q-1 3 -1 6v22h5v-22q0 -2 1 -2l1 -1h5 q1 0 2 1q1 0 1 2v22h7v-33q0 -6 -3 -8q-4 -3 -7 -3h-5q-4 0 -6 3q-1 2 -1 9zM575 510v6q0 24 18 33h9h9q8 0 11 -2v7q0 17 -11 17h-1q-10 0 -25 -4h-1v17q0 4 28 4h1q21 0 25 -29v-80h-16v2q-3 -2 -5 -2h-23q-14 0 -19 31zM585 794v11q0 5 4 7q2 3 5 3h4q5 0 7 -3q2 -2 2 -7 v-11q0 -4 -2 -7t-7 -3h-4q-3 0 -5 3q-4 3 -4 7zM591 513q2 -17 13 -17h5q13 0 13 18v14q-1 4 -8 4h-12q-10 0 -11 -19zM591 794q0 -3 1 -3q1 -1 2 -1h4q1 0 4 1q1 0 1 3v11q0 1 -1 2h-10q-1 -1 -1 -2v-11zM612 296v117h16v-120q0 -10 5 -10h7v-17h-7q-20 0 -20 20 q-1 0 -1 10zM617 794v21h4v-21q0 -3 1 -3l2 -1h6q1 0 3 1v24h4v-31h-4v2q0 -2 -3 -2h-6q-3 0 -5 3t-2 7zM622 136q3 15 3 18h15q8 34 8 36h14v-1l-6 -35h14v-1l-2 -17h-15q-13 -69 -13 -74h1l6 -1h3v-1q-1 -16 -3 -16h-1q-21 0 -21 13v3q0 12 12 76h-15zM633 880v218h19 v-218h-19zM633 1154v32h19v-32h-19zM647 784v31h5v-1q0 1 3 1h5v-8h-7q-1 0 -1 -2v-21h-5zM656 514v110h17v-126q1 -3 7 -3h4v-16h-13q-15 0 -15 35zM662 17q0 4 8 13h2q0 -4 9 -5q6 0 13 19l-7 110h16q1 -1 1 -2q2 -68 2 -74h2q27 74 30 76h16q-50 -129 -58 -140 q-7 -6 -11 -6h-13q-5 0 -10 9zM668 288v125h16v-127q0 -1 3 -3h8v-17h-6q-21 0 -21 22zM685 794v11q0 5 2 7q2 3 6 3h5q3 0 4 -1q3 -2 3 -7l-3 -1q-2 1 -4 1h-8v-16q2 -1 3 -1h7q1 1 2 1h3q0 -4 -3 -5q-1 -2 -4 -2h-5q-4 0 -6 3t-2 7zM685 950v80q0 28 11 49q12 20 29 20h24 q19 0 28 -20q12 -21 12 -49v-80q0 -28 -12 -51q-10 -19 -28 -19h-24q-17 0 -29 19q-11 23 -11 51zM703 950q0 -15 6 -27q7 -11 16 -11h24q9 0 15 11q7 12 7 27v80q0 14 -7 25q-6 11 -15 11h-24q-9 0 -16 -11q-6 -11 -6 -25v-80zM715 784v43h4v-13q0 1 3 1h5q3 0 6 -3 q3 -5 3 -7v-21h-6v23h-11v-23h-4zM743 793q0 5 3 7q3 3 7 3h4q1 2 1 3v1h-9v-2h-5v2q0 4 2 5q3 3 5 3h4q4 0 6 -3q2 -2 2 -6v-15q0 -1 1 -1l3 -2l-4 -5l-2 3h-1q-1 -2 -5 -2q0 -1 -1 -1t-4 1q-3 2 -5 3q-2 3 -2 6zM748 507v81h16v-78q0 -13 14 -14q13 1 13 6v86h16v-109h-16 v2q-3 -2 -5 -2h-18q-16 0 -20 28zM749 790h7q2 1 2 3v5h-5q-3 0 -4 -2v-6zM751 8v1l25 145h15q1 0 1 -1l2 1h18q13 0 18 -11q2 -6 2 -10v-6q-9 -69 -16 -69q-9 -14 -18 -14h-24q-7 -34 -7 -36h-16zM773 784v31h4v-1q1 1 5 1h4v-8h-5q-4 0 -4 -2v-21h-4zM774 348v18h9v1 q0 39 13 42q3 4 10 4h5v-18q-12 0 -12 -12v-17h10v-18h-10v-82h-16v82h-9zM777 63q3 -2 6 -2h7q19 0 19 27q1 1 7 37q-2 11 -9 11h-15q-4 0 -15 -73zM794 793q0 5 2 7q3 3 7 3h5v4h-8v-2h-5v2q0 4 2 5q2 3 5 3h4q4 0 5 -3q3 -2 3 -6v-16l3 -2l-3 -5l-2 3h-1q-1 -2 -5 -2 q-1 -1 -2 -1t-3 1q-3 2 -5 3q-2 3 -2 6zM799 793q0 -2 1 -3h6q2 1 2 3v5h-6q-1 0 -2 -2t-1 -3zM806 1154v32h142v-32h-61v-274h-19v274h-62zM821 560q3 28 18 28h30v-17h-24q-7 0 -8 -11q0 -11 17 -15q22 -8 22 -31v-8q0 -20 -15 -27h-38v17h27q10 0 10 13v1q0 15 -10 15 q-27 10 -27 22q-1 0 -2 13zM824 794v11q0 5 2 7q3 3 6 3h5q3 0 4 -1q2 -2 4 -7l-5 -1q0 1 -3 1h-8v-16q2 -1 3 -1h8v1h5q-2 -4 -4 -5q-1 -2 -4 -2h-5q-3 0 -6 3q-2 3 -2 7zM839 304v35q0 27 15 36h5h24q12 0 18 -23q1 -1 1 -6v-49q0 -21 -16 -29q-3 -2 -9 -2h-12 q-26 0 -26 38zM852 807v8h4v12h4v-12h5v-8h-5v-14q3 -3 7 -3v-6q-8 0 -10 6q-1 3 -1 6v11h-4zM853 68q10 72 16 72q8 14 25 14h8q23 0 23 -25q-10 -69 -15 -69q-7 -16 -29 -16h-3q-19 0 -23 11q-1 6 -2 13zM855 306q0 -22 12 -22h9q10 0 10 17v43q0 15 -13 15h-4 q-14 0 -14 -23v-30zM869 71q0 -9 11 -10h5q15 0 18 32q6 30 6 35q-3 8 -9 8h-7q-16 0 -19 -39q-5 -20 -5 -26zM874 794v11q0 5 3 7q2 3 5 3h5q4 0 7 -3q1 -2 1 -7v-6h-16v-5q0 -3 1 -3q1 -1 2 -1h5q3 0 3 1q1 0 1 2h4q0 -3 -1 -7q-3 -2 -7 -2h-5q-3 0 -5 3q-3 3 -3 7z M879 805h12v2h-11q-1 -1 -1 -2zM889 516v35q0 37 26 37h10q17 0 23 -14q4 -10 4 -17v-4q0 -26 -19 -31q-4 -1 -8 -1h-20v-5q0 -20 13 -20h1q14 0 25 6h2l3 -17q-8 -6 -19 -6h-21q-13 0 -19 24q-1 6 -1 13zM905 539h20q9 0 11 16q-2 16 -11 16h-8q-12 0 -12 -18v-14zM905 784 v31h6v-1q0 1 1 1h6v-8h-6q-1 0 -1 -2v-21h-6zM934 266v109h16v-2h1q0 2 5 2h22q12 0 18 -23q1 -7 1 -16v-70h-16v73q0 20 -13 20h-4q-14 0 -14 -8v-85h-16zM939 786h66q17 0 28 20q14 21 14 50v242h-20v-150q0 -14 -7 -26q-5 -11 -15 -11h-24q-11 0 -17 11q-5 12 -5 26v150 h-20v-150q0 -28 12 -50q13 -20 30 -20h24q11 0 22 11v-33q0 -16 -7 -26q-5 -12 -15 -12h-66v-32zM945 44q0 3 3 25h16v-1l-3 -24h-16zM999 70q10 70 17 70q5 14 29 14h4q14 0 20 -8v-1q-7 -14 -10 -16q-7 7 -14 7h-3q-13 0 -17 -12q-9 -44 -9 -54q0 -9 10 -9t25 6v-8v-10 q-12 -5 -28 -5q-17 0 -21 11q-3 7 -3 15zM1019 509v48q0 22 16 30q4 1 10 1h12q26 0 26 -37v-35q0 -22 -10 -31q-6 -6 -10 -6h-24q-12 0 -19 23q-1 2 -1 7zM1022 359v16h16q0 14 1 38h14v-38h15v-16h-15v-68q0 -7 6 -7h6v-18h-6q-22 0 -22 22v71h-15zM1035 514q0 -18 14 -18 h4q14 0 14 22v33q0 20 -13 20h-8q-11 0 -11 -17v-40zM1072 791v307h19v-10q10 10 21 10h25q17 0 28 -19q10 -21 10 -49v-79q0 -28 -10 -49q-11 -19 -28 -19h-25q-11 0 -21 9v-101h-19zM1081 62v7q9 69 15 69q7 16 26 16h9q14 0 19 -12q3 -8 3 -13q-11 -71 -16 -71 q-8 -14 -29 -14h-2q-20 0 -23 10q-2 6 -2 8zM1091 951q0 -15 7 -25q5 -12 14 -12h25q8 0 15 12q5 10 5 25v79q0 14 -5 25q-7 11 -15 11h-25q-9 0 -14 -11q-7 -11 -7 -25v-79zM1097 71q0 -9 10 -10h3q15 0 18 16q8 44 8 50q0 8 -10 9h-6q-16 0 -19 -40q-1 0 -4 -25zM1098 479 v109h16v-2q5 2 8 2h14q26 0 26 -39v-70h-16v72q0 20 -12 20h-9q-11 0 -11 -8v-84h-16zM1143 301q4 35 20 35h24l3 -1v10q0 11 -11 14q-11 0 -26 -5v19q11 3 29 3q25 0 25 -42v-68h-17v3q-3 -3 -8 -3h-12q-17 0 -23 15q-2 6 -4 20zM1160 302q0 -18 12 -18h7q11 2 11 13v19 q0 4 -17 4q-11 0 -13 -15v-3zM1169 44q0 6 18 110h16v-2q3 2 6 2h10q9 0 14 -5q6 5 17 5h8q18 0 18 -19v-12q0 -9 -13 -79h-15v1q0 4 13 81q0 10 -7 10h-6q-10 0 -10 -13q-13 -74 -14 -79h-15q0 4 13 82q0 10 -7 10h-6q-12 0 -12 -22q-2 -3 -12 -70h-16zM1180 512v112h16 v-121q0 -8 8 -8h4v-16h-14q-11 3 -11 10q-2 0 -3 23zM1202 950v80q0 28 11 49q12 20 29 20h25q17 0 28 -20q13 -21 13 -49v-80q0 -28 -13 -51q-11 -19 -28 -19h-25q-17 0 -29 19q-11 23 -11 51zM1209 454q2 5 5 12h2q6 -6 10 -6q8 0 10 21q-3 7 -26 107h17q16 -74 16 -77h1 l16 77h16v-4q-2 -14 -30 -130q-7 -12 -15 -12h-8q-9 0 -14 12zM1222 950q0 -15 5 -27q7 -11 15 -11h25q10 0 15 11q7 12 7 27v80q0 14 -7 25q-5 11 -15 11h-25q-8 0 -15 -11q-5 -11 -5 -25v-80zM1232 359v16h14q2 0 2 2v7v29h15v-38h13v-16h-13v-70q0 -5 5 -5h6v-18h-6 q-21 0 -21 22v71h-15z" />
<glyph unicode="3" horiz-adv-x="1128" d="M30 378v311h436v-360q0 -23 23 -23h16q23 0 23 23v489q0 23 -23 23h-72v112h72q23 0 23 24v442q0 23 -23 23h-16q-23 0 -23 -23v-321h-436v225q0 96 69 164q67 69 164 69h470q96 0 164 -69q68 -68 68 -164v-160q0 -268 -288 -268q109 0 176 -38q155 53 155 249v161 q0 62 -29 114q27 -16 51 -40q68 -68 68 -164v-161q0 -197 -156 -249q-3 4 -7 7q30 -57 30 -143v-253q0 -96 -68 -164t-164 -68h-470q-97 0 -164 68q-69 68 -69 164zM193 118q15 -27 39 -50q68 -68 164 -68h470q96 0 164 68t68 164v253q0 169 -118 230q28 -57 28 -140v-254 q0 -95 -67 -164q-69 -67 -165 -67h-469q-64 0 -114 28z" />
<glyph unicode="4" horiz-adv-x="1073" d="M30 337v282l375 937h413v-937h44v791h90v-847h-42v-226h-92v-191h-413v44h-241v90h241v57h-375zM178 631h216v544zM538 0h414v190h91v283h-89v-193h-92v-190h-324v-90z" />
<glyph unicode="5" d="M30 378v491h413v-586q0 -24 23 -24h20q23 0 23 24v747q0 23 -23 23h-20q-23 0 -23 -23v-96h-413v622h846l-47 -324h-386v-65h424l39 243h103l-46 -324h-98q57 -65 57 -152v-556q0 -96 -69 -163q-67 -69 -164 -69h-426q-97 0 -164 68q-69 68 -69 164zM193 118 q15 -27 39 -50q68 -68 164 -68h427q96 0 164 68t68 164v556q0 95 -68 164q-24 24 -51 40q30 -52 30 -115v-556q0 -95 -69 -163q-68 -68 -164 -68h-426q-64 0 -114 28z" />
<glyph unicode="6" d="M30 378v945q0 96 69 164q67 69 164 69h426q97 0 164 -69q69 -68 69 -164v-91h-413v187q0 23 -23 23h-20q-23 0 -23 -23v-252h523v100q0 62 -30 113q27 -15 51 -39q68 -69 68 -164v-91h-190q57 -65 57 -152v-556q0 -96 -69 -163q-67 -69 -164 -69h-426q-97 0 -164 68 q-69 68 -69 164zM193 118q15 -27 39 -50q68 -68 164 -68h427q96 0 164 68t68 164v556q0 95 -68 164q-24 24 -51 40q30 -52 30 -115v-556q0 -95 -69 -163q-68 -68 -164 -68h-426q-64 0 -114 28zM443 283q0 -24 23 -24h20q23 0 23 24v747q0 23 -23 23h-20q-22 0 -23 -22v-748z " />
<glyph unicode="7" horiz-adv-x="1007" d="M30 1249v307h814v-307l-376 -1103h-413l376 1103h-401zM189 0h413l375 1102v308h-89v-218l-376 -1102h-293z" />
<glyph unicode="8" horiz-adv-x="1128" d="M30 378v253q0 264 288 264q-288 0 -288 268v160q0 96 69 164q67 69 164 69h470q96 0 164 -69q68 -68 68 -164v-160q0 -268 -288 -268q109 0 176 -38q155 53 155 249v161q0 62 -29 114q27 -16 51 -40q68 -68 68 -164v-161q0 -197 -156 -249l-7 7q30 -57 30 -143v-253 q0 -96 -68 -164t-164 -68h-470q-97 0 -164 68q-69 68 -69 164zM193 118q15 -27 39 -50q68 -68 164 -68h470q96 0 164 68t68 164v253q0 169 -118 230q28 -57 28 -140v-254q0 -95 -67 -164q-69 -67 -165 -67h-469q-64 0 -114 28zM466 329q0 -23 23 -23h16q23 0 23 23v489 q0 23 -23 23h-16q-23 0 -23 -23v-489zM466 977q0 -24 23 -24h16q23 0 23 24v442q0 23 -23 23h-16q-23 0 -23 -23v-442z" />
<glyph unicode="9" d="M30 378v91h413v-186q0 -24 23 -24h20q23 0 23 24v251h-246q-97 0 -164 69q-69 68 -69 164v556q0 96 69 164q67 69 164 69h426q97 0 164 -69q69 -68 69 -164v-945q0 -96 -69 -164q-67 -68 -164 -68h-426q-97 0 -164 68q-69 68 -69 164zM193 118q15 -27 39 -50 q68 -68 164 -68h427q96 0 164 68t68 164v945q0 95 -68 164q-24 24 -51 39q30 -51 30 -113v-946q0 -95 -69 -164q-68 -67 -164 -67h-426q-64 0 -114 28zM443 671q0 -23 23 -23h20q22 0 23 22v749q0 23 -23 23h-20q-23 0 -23 -23v-748z" />
<glyph unicode=":" horiz-adv-x="607" d="M30 323q0 72 60 123q61 52 147 52q85 0 146 -52q60 -51 60 -123q0 -74 -60 -125q-61 -52 -146 -52q-87 0 -147 52q-60 51 -60 125zM30 992q0 72 60 124q61 51 147 51q85 0 146 -51q60 -52 60 -124q0 -74 -60 -125q-61 -52 -146 -52q-86 0 -147 52q-60 51 -60 125z M176 113q15 -34 48 -62q60 -51 146 -51t146 51q61 52 61 125q0 72 -61 124q-19 17 -42 28q13 -29 13 -62q0 -73 -61 -125q-60 -51 -145 -51q-58 0 -105 23zM176 782q15 -34 48 -62q60 -51 146 -51q85 0 146 51q61 52 61 125t-61 124q-19 17 -42 28q13 -29 13 -62 q0 -73 -61 -125q-60 -51 -145 -51q-58 0 -105 23z" />
<glyph unicode=";" horiz-adv-x="607" d="M30 318q0 72 60 123q61 52 147 52q85 0 146 -52q60 -51 60 -123q-1 -48 -20 -83l-178 -383h-101l23 299q-50 4 -93 53q-43 48 -44 114zM30 987q0 72 60 124q61 51 147 51q85 0 146 -51q60 -52 60 -124q0 -74 -60 -125q-61 -52 -146 -52q-86 0 -147 52q-60 51 -60 125z M176 777q15 -34 48 -62q60 -51 146 -51q85 0 146 51q61 52 61 125t-61 124q-19 17 -42 28q13 -29 13 -62q0 -73 -61 -125q-60 -51 -145 -51q-58 0 -105 23zM278 -295h101l178 383q19 36 20 83q0 72 -61 124q-19 17 -42 28q13 -29 13 -62q-1 -47 -20 -83l-178 -383h-5z" />
<glyph unicode="&#x3c;" horiz-adv-x="840" d="M30 723v189l646 398v-226l-468 -273l71 -41l441 258v80l90 56v-226l-409 -239l275 -158v-224zM164 577l646 -407v224l-90 52v-186l-556 350v-33z" />
<glyph unicode="=" horiz-adv-x="1015" d="M30 427v214h821v-214h-821zM30 919v214h821v-214h-821zM164 280h821v215h-90v-125h-731v-90zM164 772h821v215h-90v-125h-731v-90z" />
<glyph unicode="&#x3e;" horiz-adv-x="840" d="M30 297v224l409 236l-275 161v37l307 -180l27 16l-468 273v226l646 -398v-189zM164 150l646 407v188l-90 56v-154l-556 -350v-147z" />
<glyph unicode="?" horiz-adv-x="1132" d="M30 1094v115q0 157 38 235q54 110 195 112h472q97 0 166 -69q67 -68 67 -164v-320q0 -68 -23 -110q-16 -25 -66 -73q-21 -19 -54 -47q-69 -58 -77 -65q-96 -83 -96 -101v-54h-412v145q0 92 22 132q16 31 94 102q176 160 176 162v325q0 23 -23 23h-20q-23 0 -23 -23v-325 h-436zM240 146v323h412v-323h-412zM373 0h413v323h-90v-233h-323v-90zM696 406h90v55q0 18 96 101q7 7 76 64q33 28 55 48q50 47 66 73q23 41 23 109v321q0 96 -68 164q-24 24 -51 39q29 -51 29 -113v-321q0 -68 -23 -109q-16 -26 -66 -74q-22 -19 -55 -47q-68 -57 -76 -64 q-96 -83 -96 -101v-145z" />
<glyph unicode="@" horiz-adv-x="1605" d="M30 654q0 344 202 562t529 218q319 -10 491 -196q172 -184 189 -558q-8 -260 -103 -396q-95 -137 -252 -137q-156 0 -227 92q-70 -90 -247 -90q-217 0 -217 169v654q0 169 217 169q133 0 169 -58v50h234v-705q0 -104 51 -123q-7 27 -7 66v616h90v-672q116 52 132 270v33 q0 659 -524 662q-311 0 -442 -180t-131 -440q0 -263 132 -448q92 -128 266 -167q-32 25 -44 65q47 -18 118 -18q176 0 247 90q71 -92 226 -92q158 0 253 137q94 136 103 397q-16 342 -161 525q33 -26 62 -57q172 -184 189 -558q-9 -260 -104 -397q-94 -137 -252 -137 q-18 0 -36 2l-2 4l-15 -3q-6 1 -14 2l22 -85q-187 -44 -413 -44q-327 0 -529 217q-202 216 -202 561zM339 -24q13 -15 27 -30q202 -216 528 -216q227 0 413 44l-36 143q-31 -7 -64 -12l11 -41q-187 -44 -414 -44q-277 0 -465 156zM660 366q0 -50 45 -50t45 50v557 q0 51 -45 51t-45 -54v-554zM915 32q66 5 127 14q-28 19 -49 46q-30 -38 -78 -60z" />
<glyph unicode="A" horiz-adv-x="1227" d="M30 146l229 1410h575l229 -1410h-413l-28 282h-3l-42 -428h-413l14 90h309l42 428h84l-6 56h-121l-43 -428h-413zM498 685h98l-49 493zM775 90l9 -90h413l-230 1410h-75l215 -1320h-332z" />
<glyph unicode="B" horiz-adv-x="1132" d="M30 146v1410h705q97 0 166 -69q67 -68 67 -164v-160q0 -268 -287 -268q108 0 176 -38q155 53 155 249v161q0 62 -29 113q27 -15 51 -39q68 -68 68 -164v-161q0 -197 -156 -249q-4 4 -8 7q30 -57 30 -143v-253q0 -96 -67 -164q-69 -68 -166 -68h-705zM164 0h705 q96 0 165 68q68 68 68 164v253q0 169 -118 230q28 -57 28 -140v-254q0 -95 -68 -164q-68 -67 -165 -67h-615v-90zM466 306h43q23 0 23 23v489q0 23 -23 23h-43v-535zM466 953h43q23 0 23 24v442q0 23 -23 23h-43v-489z" />
<glyph unicode="C" horiz-adv-x="1132" d="M30 378v945q0 96 69 164q67 69 164 69h472q97 0 166 -69q67 -68 67 -164v-440h-436v536q0 23 -23 23h-20q-23 0 -23 -23v-1136q0 -24 23 -24h20q23 0 23 24v535h436v-440q0 -96 -67 -164q-69 -68 -166 -68h-472q-97 0 -164 68q-69 68 -69 164zM193 118q15 -27 39 -50 q68 -68 164 -68h473q96 0 165 68q68 68 68 164v440h-90v-351q0 -95 -68 -164q-68 -67 -165 -67h-472q-64 0 -114 28zM983 1380q27 -15 51 -39q68 -68 68 -164v-440h-90v530q0 62 -29 113z" />
<glyph unicode="D" horiz-adv-x="1132" d="M30 146v1410h705q97 0 166 -69q67 -68 67 -164v-945q0 -96 -67 -164q-69 -68 -166 -68h-705zM164 0h705q96 0 165 68q68 68 68 164v945q0 96 -68 164q-24 24 -51 39q29 -51 29 -113v-946q0 -95 -68 -164q-68 -67 -165 -67h-615v-90zM466 283q0 -24 23 -24h20q23 0 23 24 v1136q0 23 -23 23h-20q-23 0 -23 -23v-1136z" />
<glyph unicode="E" horiz-adv-x="951" d="M30 146v1410h758v-134h-322v-434h44v378h411v-90h-321v-288h188v-105h-322v-611h44v554h411v-89h-321v-465h188v-126h-758zM164 0v90h757v-90h-757z" />
<glyph unicode="F" horiz-adv-x="951" d="M30 146v1410h758v-134h-322v-434h44v378h411v-90h-321v-288h188v-105h-322v-737h-436zM164 0h436v737h321v89h-411v-736h-346v-90z" />
<glyph unicode="G" horiz-adv-x="1132" d="M30 379v944q0 97 69 165q67 68 164 68h472q97 0 166 -68q67 -68 67 -165v-338h-436v435q0 23 -23 23h-20q-23 0 -23 -23v-1136q0 -24 23 -24h20q22 0 23 23v571h-32v66h166v8h346v339q0 63 -29 114q27 -16 51 -39q68 -69 68 -165v-338h-90v25h-44v-718h-96l19 -56h39 q-32 -86 -139 -90h-395q-96 0 -164 68q-23 24 -39 51q51 -29 114 -29h394q104 4 137 84l-32 100q-20 -122 -149 -128h-394q-97 0 -164 69q-69 67 -69 164zM952 90l28 -90h122v774h-90v-684h-60z" />
<glyph unicode="H" horiz-adv-x="1132" d="M30 146v1410h436v-650h66v650h436v-1410h-436v649h-66v-649h-436zM164 0v90h436v-90h-436zM666 0h436v1410h-90v-1320h-346v-90z" />
<glyph unicode="I" horiz-adv-x="630" d="M30 146v1410h436v-1410h-436zM164 0h436v1410h-90v-1320h-346v-90z" />
<glyph unicode="J" horiz-adv-x="696" d="M30 146v126h65v1284h437v-1178q0 -96 -69 -164q-67 -68 -164 -68h-269zM164 0h269q96 0 164 68q69 68 69 164v1178h-90v-1089q0 -95 -69 -164q-68 -67 -164 -67h-179v-90z" />
<glyph unicode="K" horiz-adv-x="1183" d="M30 146v1410h436v-423l333 423h160l-269 -356l329 -1054h-429l-124 523v-523h-436zM164 0v90l435 -1l1 -89h-436zM703 90l21 -90h429l-329 1053l269 357h-158l-201 -267l329 -1053h-360z" />
<glyph unicode="L" horiz-adv-x="886" d="M30 146v1410h436v-1284h44v1138h90v-1138h122v-126h-692zM164 0v90h602v36h90v-126h-692z" />
<glyph unicode="M" horiz-adv-x="1225" d="M30 146v1410h436l80 -815l79 815h436v-1410h-436v559l-47 -409v-296h-414v90h349v206l-47 409v-559h-436zM759 0h436v1410h-90v-1320h-346v-90z" />
<glyph unicode="N" horiz-adv-x="1169" d="M30 146v1410h427l112 -733v733h436v-1410h-405v-146h-436v90h346v503l-44 286v-733h-436zM698 90l14 -90h427v1410h-90v-1320h-351z" />
<glyph unicode="O" horiz-adv-x="1132" d="M30 378v945q0 96 69 164q67 69 164 69h472q97 0 166 -69q67 -68 67 -164v-945q0 -96 -67 -164q-69 -68 -166 -68h-472q-97 0 -164 68q-69 68 -69 164zM193 118q15 -27 39 -50q68 -68 164 -68h473q96 0 165 68q68 68 68 164v945q0 96 -68 164q-24 24 -51 39 q29 -51 29 -113v-946q0 -95 -68 -164q-68 -67 -165 -67h-472q-64 0 -114 28zM466 283q0 -24 23 -24h20q23 0 23 24v1136q0 23 -23 23h-20q-23 0 -23 -23v-1136z" />
<glyph unicode="P" horiz-adv-x="1132" d="M30 141v1415h708q97 0 166 -69q68 -69 68 -165v-438q0 -97 -68 -166q-69 -67 -166 -67h-270v-510h-438zM160 0h438v510h270q96 0 166 67q68 69 68 166v439q0 96 -68 164q-24 24 -51 39q29 -51 29 -113v-439q0 -96 -69 -165t-165 -69h-270v-509h-348v-90zM464 794 q0 -24 23 -24h20q23 0 23 24v630q0 24 -23 24h-20q-23 0 -23 -24v-630z" />
<glyph unicode="Q" horiz-adv-x="1132" d="M30 377q0 -96 69 -164q67 -68 164 -68h196v-57q0 -42 29 -72q29 -29 71 -29h255v84h-74v74q92 0 161 68q67 68 67 164v945q0 96 -67 164q-69 69 -166 69h-472q-97 0 -164 -69q-69 -68 -69 -164v-945zM466 282v1136q0 23 23 23h20q23 0 23 -23v-1136q0 -24 -23 -24h-20 q-23 0 -23 24zM593 -69h10h345v-90h-255q-42 0 -71 29q-26 26 -29 61zM871 -1v107q40 17 73 50q68 69 68 164v946q0 62 -29 113q27 -15 51 -39q68 -68 68 -164v-945q0 -96 -68 -164q-69 -68 -160 -68h-3z" />
<glyph unicode="R" horiz-adv-x="1155" d="M30 146v1410h705q97 0 166 -69q67 -68 67 -164v-227q0 -73 -40 -132q-41 -59 -106 -85q40 -15 70 -44q47 26 79 72q41 60 41 132v228q0 62 -29 113q27 -15 51 -39q68 -68 68 -164v-228q0 -72 -41 -132q-36 -51 -90 -77q-15 19 -31 35q28 -51 28 -112v-297q0 -151 24 -220 h-437q-23 76 -23 235v414q0 16 -16 21h-50v-670h-436zM164 0v90h436v-90h-436zM466 914h43q23 0 23 23v528q0 23 -23 23h-43v-574zM672 90q6 -55 17 -90h436q-23 69 -23 220v297q0 72 -41 132q-32 45 -78 71q29 -52 29 -113v-298q0 -151 23 -219h-363z" />
<glyph unicode="S" horiz-adv-x="1132" d="M30 378v229h436v-324q0 -24 23 -24h20q23 0 23 24v324q0 11 -23 24l-246 139q-149 85 -159 92q-74 58 -74 141v320q0 96 69 164q67 69 164 69h472q141 -2 195 -112q38 -78 38 -235v-115h-436v325q0 23 -23 23h-20q-23 0 -23 -23v-325q0 -11 23 -23l177 -100v66h346v115 q0 157 -38 235v1q59 -28 90 -91q38 -78 38 -234v-116h-395l28 -15q147 -84 159 -93q74 -58 74 -141v-320q0 -96 -67 -164q-69 -68 -166 -68h-472q-97 0 -164 68q-69 68 -69 164zM193 118q15 -27 39 -50q68 -68 164 -68h473q96 0 165 68q68 68 68 164v320q0 83 -74 141 q-5 3 -31 18q15 -32 15 -69v-321q0 -95 -68 -164q-68 -67 -165 -67h-472q-64 0 -114 28z" />
<glyph unicode="T" horiz-adv-x="1073" d="M30 1419v137h880v-137h-222v-1273h-436v1273h-222zM385 0h437v1272h221v138h-89v-48h-222v-1272h-347v-90z" />
<glyph unicode="U" horiz-adv-x="1132" d="M30 378v1178h436v-1273q0 -24 23 -24h20q23 0 23 24v1273h436v-1178q0 -96 -67 -164q-69 -68 -166 -68h-472q-97 0 -164 68q-69 68 -69 164zM193 118q15 -27 39 -50q68 -68 164 -68h473q96 0 165 68q68 68 68 164v1178h-90v-1089q0 -95 -68 -164q-68 -67 -165 -67h-472 q-64 0 -114 28z" />
<glyph unicode="V" horiz-adv-x="1227" d="M30 1556h409l107 -1031l19 184l-73 701h81l32 -311l47 457h411l-229 -1410h-575zM378 90l15 -90h574l230 1410h-105l-214 -1320h-500z" />
<glyph unicode="W" horiz-adv-x="1634" d="M30 472v1084h436v-1272q0 -25 24 -25h19q23 0 23 25v1272h436v-1272q0 -25 24 -25h18q24 0 24 25v1272h437v-1084q0 -190 -69 -257q-68 -69 -165 -69h-394q-25 1 -45 14q6 -23 24 -42q26 -26 61 -28q-2 -36 -27 -61q-27 -27 -65 -29h-395q-96 0 -164 68q-19 19 -32 47 q48 -25 107 -25h394q39 1 65 28q19 20 25 46q-7 5 -13 11q-27 28 -28 66q-1 -39 -28 -66q-26 -27 -65 -29h-394q-97 0 -164 69q-69 67 -69 257zM884 90q2 -35 28 -61q27 -27 65 -29h394q97 0 164 68q69 68 69 257v1085h-90v-995q0 -189 -68 -257t-165 -68h-397z" />
<glyph unicode="X" horiz-adv-x="1132" d="M30 146v511q0 97 69 165q68 69 164 69q-97 0 -164 68q-69 68 -69 165v432h436v-616q0 -23 23 -23h20q23 0 23 23v616h436v-432q0 -97 -68 -165t-165 -68q74 0 131 -41q43 17 77 52q69 68 69 165v343h90v-433q0 -97 -69 -164q-37 -38 -83 -55q-3 4 -7 7l-2 2 q27 -49 27 -110v-511h-436v679q0 23 -23 23h-20q-23 0 -23 -23v-679h-436zM164 0v90h436v-90h-436zM666 0h436v511q0 97 -69 164q-23 24 -50 40q29 -51 29 -114v-511h-346v-90z" />
<glyph unicode="Y" horiz-adv-x="1132" d="M30 887v669h436v-725h66v725h436v-669q0 -97 -68 -165t-165 -68h-17v-508h-437v508h-18q-97 0 -164 68q-69 68 -69 165zM414 0h437v508h18q96 0 164 68q69 68 69 164v670h-90v-580q0 -96 -69 -164q-68 -69 -164 -69h-17v-507h-348v-90z" />
<glyph unicode="Z" horiz-adv-x="1077" d="M30 146l340 1130h-202v90h229l17 56h-379v134h879l-355 -1284h59l315 1138h114l-314 -1138h169v-126h-872zM164 0l27 90h754v36h90v-126h-871z" />
<glyph unicode="[" horiz-adv-x="753" d="M30 -242v1797h560v-66h-292v-1666h44v1586h381v-66h-292v-1520h159v-65h-560zM163 -324h560v-64h-560v64z" />
<glyph unicode="\" horiz-adv-x="672" d="M30 1410h183l295 -1410h-183zM164 1556l18 -90h75l276 -1320h109l-296 1410h-182z" />
<glyph unicode="]" horiz-adv-x="753" d="M30 -176v-65h560v1797h-560v-66h292v-80h-159v-66h159v-1520h-292zM163 -323h470l1 1733h89v-1797h-560v64z" />
<glyph unicode="^" horiz-adv-x="815" d="M30 881l212 275h189l118 -147h15l221 -274h-223l-79 90h212l-45 56h-222l-84 96l-89 -96h-225zM164 735l69 90h66l89 96l84 -96l-83 -90h-225z" />
<glyph unicode="_" horiz-adv-x="1311" d="M-170 -23h1509v-305h-1509v305zM-36 -385v-90h1508v306h-90v-216h-1418z" />
<glyph unicode="`" horiz-adv-x="634" d="M30 1554h319l122 -275h-204zM323 1222h192l-82 185h50l121 -275h-203z" />
<glyph unicode="a" d="M30 379v230q0 96 69 164q67 68 164 68h100q82 0 146 -51v240q0 10 -8 17q-6 7 -15 7h-20q-9 0 -16 -7t-7 -17v-108h-367v12q0 96 69 165q68 68 164 68h380q96 0 164 -68q69 -68 69 -165v-788h-413v52q-64 -52 -146 -52h-100q-97 0 -164 69q-69 67 -69 164zM193 119 q16 -27 39 -51q68 -68 164 -68h101q81 0 146 52v-52h412v788q0 96 -68 164q-24 24 -51 39q30 -50 30 -114v-787h-413v51q-65 -51 -146 -51h-100q-63 0 -114 29zM443 284q0 -11 7 -17q7 -8 16 -8h20q9 0 15 8q8 6 8 17v421q-1 9 -8 16q-6 7 -15 7h-20q-9 0 -16 -7 q-7 -6 -7 -16v-421z" />
<glyph unicode="b" d="M30 146v1410h413v-423q54 34 121 34h125q96 0 164 -68q69 -68 69 -165v-556q0 -96 -69 -164q-67 -68 -164 -68h-125q-67 0 -121 33v-33h-413zM164 0h413v33q53 -33 121 -33h125q96 0 164 68t68 164v556q0 96 -68 164q-24 24 -51 39q30 -50 30 -114v-556q0 -95 -69 -164 q-68 -67 -164 -67h-125q-67 0 -121 33v-33h-323v-90zM443 283q0 -24 23 -24h20q23 0 23 24v747q0 23 -23 23h-20q-23 0 -23 -23v-747z" />
<glyph unicode="c" d="M30 378v556q0 97 69 165q68 68 164 68h426q96 0 164 -68q69 -68 69 -165v-245h-413v341q0 23 -23 23h-20q-23 0 -23 -23v-747q0 -24 23 -24h20q23 0 23 24v341h413v-246q0 -96 -69 -164q-67 -68 -164 -68h-426q-97 0 -164 68q-69 68 -69 164zM193 118q15 -27 39 -50 q68 -68 164 -68h427q96 0 164 68t68 164v246h-89v-157q0 -95 -69 -164q-68 -67 -164 -67h-426q-64 0 -114 28zM936 991q27 -15 51 -39q68 -68 68 -164v-245h-89v334q0 64 -30 114z" />
<glyph unicode="d" d="M30 378v556q0 97 68 165q69 68 164 68h124q69 0 123 -34v423h413v-1410h-413v34q-54 -34 -123 -34h-124q-96 0 -164 68t-68 164zM192 118q51 -28 114 -28h124q69 0 123 34v-34h413v1320h89v-1410h-412v34q-55 -34 -123 -34h-124q-96 0 -165 68q-23 23 -39 50zM443 283 q0 -24 23 -24h19q23 0 23 24v747q0 23 -23 23h-19q-23 0 -23 -23v-747z" />
<glyph unicode="e" d="M30 378v556q0 97 69 165q68 68 164 68h426q96 0 164 -68q69 -68 69 -165v-245h-479v-406q0 -24 23 -24h20q23 0 23 24v341h413v-246q0 -96 -69 -164q-67 -68 -164 -68h-426q-97 0 -164 68q-69 68 -69 164zM193 118q15 -27 39 -50q68 -68 164 -68h427q96 0 164 68t68 164 v246h-89v-157q0 -95 -69 -164q-68 -67 -164 -67h-426q-64 0 -114 28zM443 791h66v239q0 23 -23 23h-20q-23 0 -23 -23v-239zM936 991q27 -15 51 -39q68 -68 68 -164v-245h-89v334q0 64 -30 114z" />
<glyph unicode="f" horiz-adv-x="717" d="M30 146v1177q0 96 68 164q68 69 164 69h268q23 0 23 -24v-67q0 -23 -23 -23h-64q-23 0 -23 -23v-325h44v268q0 23 23 23h64q23 0 23 23v2h67q23 0 23 -25v-66q0 -23 -23 -23h-64q-23 0 -23 -24v-280h-134v-846h-413zM164 0h413v845h110v90h-200v-845h-323v-90z" />
<glyph unicode="g" d="M30 -11v156h414v-251q0 -25 23 -25h19q23 0 23 25v340h1v38q-55 -34 -123 -34h-124q-96 0 -164 69q-69 67 -69 164v462q0 97 69 165q68 68 164 68h124q68 0 123 -35v35h412v-1177q0 -96 -68 -164q-69 -69 -164 -69h-427q-95 0 -164 69q-69 68 -69 164zM193 -271 q51 -30 114 -30h427q95 0 164 69q68 68 68 165v1087h89v-1177q0 -97 -67 -165q-69 -68 -164 -68h-428q-95 0 -164 68q-24 24 -39 51zM444 374q0 -23 23 -23h19q23 0 23 23v655q0 23 -23 23h-19q-23 0 -23 -23v-655z" />
<glyph unicode="h" d="M30 146v1410h413v-423q54 34 122 34h125q95 0 164 -68q68 -68 68 -165v-788h-413v884q0 23 -23 23h-19q-23 0 -23 -23l-1 -884h-413zM164 0v90h413v-90h-413zM643 0h412v788q0 96 -67 164q-24 24 -51 40q29 -51 29 -115v-787h-323v-90z" />
<glyph unicode="i" horiz-adv-x="607" d="M30 146v1021h184q-13 17 -20 35q39 -17 87 -17q77 0 131 46t54 112q0 26 -9 50q24 -11 45 -29q54 -46 54 -111t-54 -111q-23 -20 -50 -31h-9v-965h-413zM51 1399q0 -65 54 -111q54 -47 132 -47q77 0 131 47q55 46 55 111t-55 112q-54 46 -131 46q-78 0 -132 -46 q-54 -47 -54 -112zM164 0h413v1021h-90v-931h-323v-90z" />
<glyph unicode="j" horiz-adv-x="717" d="M30 -156q0 24 23 24h64q24 0 24 24v1272h186q-13 17 -21 36q39 -17 87 -17q77 0 131 46q55 46 55 112q0 26 -9 50q24 -11 44 -29q55 -46 55 -111q0 -66 -55 -111q-24 -21 -52 -32h-9v-1121q0 -96 -67 -164q-69 -69 -165 -69h-268q-23 0 -23 24v66zM164 -302v-67 q0 -23 23 -23h268q96 0 164 68t68 165v1177h-90v-1087q0 -97 -68 -165t-164 -68h-201zM164 1397q0 -65 54 -111q53 -47 131 -47q77 0 132 47q54 46 54 111t-54 112q-55 46 -132 46q-78 0 -131 -46q-54 -47 -54 -112z" />
<glyph unicode="k" horiz-adv-x="1160" d="M30 146v1410h413v-729l44 52v531h90v-424l152 181h151l-222 -260l338 -761h-419v-146h-413v90h323v301l-44 133v-378h-413zM671 90l30 -90h429l-338 761l222 260h-152l-154 -184l332 -747h-369z" />
<glyph unicode="l" horiz-adv-x="607" d="M30 146v1410h413v-1410h-413zM164 0h413v1410h-90v-1320h-323v-90z" />
<glyph unicode="m" horiz-adv-x="1564" d="M30 146v1021h413v-35q55 35 121 35h125q108 0 177 -82q71 82 178 82h124q96 0 164 -68q69 -68 69 -165v-788h-414v884q0 23 -23 23h-19q-23 0 -23 -23v-884h-413v884q0 23 -23 23h-20q-23 0 -23 -23v-884h-413zM164 0v90h413v-90h-413zM643 0v90h412v-90h-412zM1120 0 h414v788q0 96 -68 164q-24 24 -51 39q30 -50 30 -114v-787h-325v-90z" />
<glyph unicode="n" d="M30 146v1021h412v-35q55 35 122 35h125q96 0 164 -68q69 -68 69 -165v-788h-414v884q0 23 -23 23h-19q-23 0 -23 -23l-1 -884h-412zM164 0v90h412v-90h-412zM642 0h413v788q0 96 -68 164q-24 24 -51 39q30 -50 30 -114v-787h-324v-90z" />
<glyph unicode="o" d="M30 378v556q0 97 69 165q68 68 164 68h426q96 0 164 -68q69 -69 69 -165v-556q0 -96 -69 -163q-67 -69 -164 -69h-426q-97 0 -164 68q-69 68 -69 164zM193 118q15 -27 39 -50q68 -68 164 -68h427q96 0 164 68t68 164v556q0 95 -68 164q-24 24 -51 40q30 -52 30 -115v-556 q0 -95 -69 -163q-68 -68 -164 -68h-426q-64 0 -114 28zM443 283q0 -24 23 -24h20q23 0 23 24v747q0 23 -23 23h-20q-23 0 -23 -23v-747z" />
<glyph unicode="p" d="M30 -244v1410h413v-34q54 34 122 34h125q95 0 164 -68q68 -68 68 -165v-556q0 -96 -68 -164t-164 -68h-125q-68 0 -122 34v-423h-413zM164 -301h323v424q54 -34 122 -34h125q96 0 164 67q68 69 68 164v556q0 64 -29 115q27 -16 51 -40q67 -68 67 -164v-556 q0 -96 -67 -164q-69 -68 -164 -68h-125q-69 0 -122 34v-423h-413v89zM444 282q0 -24 23 -24h19q23 0 23 24v747q0 23 -23 23h-19q-23 0 -23 -23v-747z" />
<glyph unicode="q" d="M30 377v556q0 97 68 165q69 68 164 68h124q69 0 123 -34v34h413v-1410h-413v243h-114q-95 0 -164 68q-23 23 -39 50q51 -28 114 -28h124q42 0 79 12v78q-54 -34 -123 -34h-124q-96 0 -164 68t-68 164zM443 282q0 -24 23 -24h19q23 0 23 24v747q0 23 -23 23h-19 q-23 0 -23 -23v-747zM643 -301v-89h412v1410h-89v-1321h-323z" />
<glyph unicode="r" d="M30 146v1021h413v-35q55 35 121 35h125q96 0 164 -68q69 -68 69 -165v-245h-345v-689h-413v90h323v883q0 23 22 23v34q0 23 -23 23h-20q-23 0 -23 -23v-884h-413zM643 543h412v245q0 96 -68 164q-24 24 -51 39q30 -50 30 -114v-244h-323v-90z" />
<glyph unicode="s" horiz-adv-x="1059" d="M30 314v166h392v-229q0 -23 23 -23h18q24 0 24 23v229q0 7 -17 17l-271 101q-169 63 -169 168v232q0 70 49 120q50 49 120 49h528q102 -1 141 -81q28 -56 28 -169v-84h-392v228q0 24 -23 24h-19q-23 -1 -23 -24v-228q0 -7 17 -17l182 -68v28h302v84q0 98 -21 152 q56 -18 83 -73t27 -169v-83h-238q105 -57 105 -141v-232q0 -70 -49 -119q-50 -49 -120 -49h-528q-69 0 -120 49q-49 50 -49 119zM176 103q12 -30 37 -54q50 -49 119 -49h529q69 0 119 49q49 49 49 119v232q0 81 -99 137q10 -23 10 -47v-233q0 -69 -49 -118q-51 -49 -120 -49 h-528q-36 0 -67 13z" />
<glyph unicode="t" horiz-adv-x="941" d="M30 1064v103h168v389h413v-389h44v243h90v-243h32v-103h-166v-918h-413v918h-168zM332 0h413v918h166v103h-90v-14h-166v-917h-323v-90z" />
<glyph unicode="u" d="M30 378v789h413v-884q0 -24 23 -24h19q24 0 24 24v884h413v-1021h-413v34q-54 -34 -123 -34h-124q-96 0 -164 68t-68 164zM192 118q16 -27 39 -50q69 -68 165 -68h124q68 0 123 34v-34h412v1021h-89v-931h-413v34q-54 -34 -123 -34h-124q-63 0 -114 28z" />
<glyph unicode="v" horiz-adv-x="1084" d="M30 573v594h413v-884q0 -24 23 -24h9q33 0 33 24v884h413v-594q0 -95 -68 -173q-68 -77 -164 -161q-105 -93 -218 -93q-104 0 -209 93q-96 84 -164 161t-68 173zM250 233q62 -67 146 -140q105 -93 209 -93q112 0 218 93q95 83 164 160q67 78 67 174v594h-89v-504 q0 -96 -68 -174q-69 -77 -164 -161q-105 -92 -218 -92q-104 0 -209 92q-30 26 -56 51z" />
<glyph unicode="w" horiz-adv-x="1564" d="M30 379v788h413v-883q0 -11 7 -17q7 -8 16 -8h20q9 0 15 8q8 7 8 17v883h413v-883q0 -10 7 -17q7 -8 16 -8h20q9 0 15 8q8 6 8 17v883h413v-788q0 -97 -69 -164q-67 -69 -164 -69h-124q-107 0 -178 83q-65 -77 -150 -77q-86 0 -152 77q-70 -83 -177 -83h-124 q-97 0 -164 69q-69 67 -69 164zM193 119q16 -27 39 -51q68 -68 164 -68h125q107 0 177 82q65 -77 151 -77t151 77q70 -82 177 -82h125q96 0 164 68t68 165v788h-89v-699q0 -96 -69 -164q-67 -68 -164 -68h-125q-106 0 -177 82q-65 -77 -150 -77q-65 0 -117 43v-1 q0 -10 -8 -17q-6 -7 -16 -7h-19q-9 0 -16 7t-7 17v4q-62 -51 -146 -51h-124q-63 0 -114 29z" />
<glyph unicode="x" d="M30 146v314q0 75 45 136q43 61 114 84q-71 24 -114 83q-45 62 -45 137v267h413v-349q0 -37 23 -37h20q23 0 23 37v349h413v-267q0 -75 -45 -137q-43 -59 -114 -83q44 -14 77 -43q48 25 81 70q45 61 45 136v178h89v-268q0 -75 -44 -136q-37 -50 -92 -75q-12 17 -26 31 q29 -53 29 -113v-314h-413v396q0 37 -23 37h-20q-23 0 -23 -37v-396h-413zM164 0v90h413v-90h-413zM643 0h412v313q0 75 -44 137q-31 43 -75 67q30 -53 30 -114v-313h-323v-90z" />
<glyph unicode="y" horiz-adv-x="1084" d="M30 -10v156h413v-251q0 -25 23 -25h19q23 0 23 25v340h1v38q-54 -34 -123 -34h-124q-96 0 -164 68t-68 165v695h413v-792q0 -23 23 -23h19q23 0 23 23v220h1v572h412v-1177q0 -96 -68 -164q-69 -69 -164 -69h-427q-95 0 -164 69q-68 68 -68 164zM193 -270q15 -27 38 -51 q69 -68 165 -68h427q95 0 164 68q67 68 67 165v1177h-89v-1087q0 -97 -68 -165q-69 -69 -164 -69h-427q-62 0 -113 30z" />
<glyph unicode="z" horiz-adv-x="983" d="M30 146l288 747h-148v89h183l21 57h-338v128h784l-318 -894h64l266 748h121l-265 -748h128v-127h-786zM164 0l34 90h662v37h90v-127h-786z" />
<glyph unicode="{" horiz-adv-x="843" d="M30 580v154q142 3 181 132q19 65 21 282q2 195 45 280q67 127 256 127h146v-101h-53q-106 0 -132 -102q-11 -40 -11 -136q0 -41 2 -101q2 -51 2 -93q0 -114 -14 -174q-32 -139 -144 -192q40 -16 70 -42q89 55 118 177q14 61 14 175q0 42 -2 92q-3 60 -3 101q0 97 11 137 q27 102 133 102h53v11h90v-101h-53q-106 0 -133 -102q-11 -40 -11 -136q0 -42 3 -101q1 -51 1 -93q0 -114 -14 -175q-30 -129 -128 -183q-14 19 -31 36q20 -36 30 -82q12 -54 12 -147q0 -54 -4 -121q-3 -77 -3 -127q0 -79 8 -114q14 -56 52 -82q-5 12 -8 25q-9 35 -9 114 q0 50 4 128q4 66 4 120q0 93 -12 147q-11 46 -30 82q93 -51 119 -171q12 -55 12 -147q0 -55 -3 -121q-4 -77 -4 -127q0 -43 2 -73h9h53v-100h-146q-190 0 -256 127q-44 84 -46 281q-1 218 -20 283q-39 129 -181 131zM411 -264q66 -35 165 -35h147v14q17 -3 37 -3h53v-100 h-147q-187 0 -255 124z" />
<glyph unicode="|" horiz-adv-x="514" d="M100 -243h181v1798h-181v-1798zM233 -299h91v1708h90v-1798h-181v90z" />
<glyph unicode="}" horiz-adv-x="843" d="M30 -142v-100h147q189 0 255 127q44 85 46 281q1 219 20 283q39 129 181 131v154q-28 0 -52 6q-15 73 -17 262q-2 195 -45 280q-32 60 -91 92l1 -2q44 -85 46 -281q1 -218 21 -282q6 -19 14 -35q-40 33 -58 92q-19 64 -21 282q-2 196 -46 280q-66 127 -254 127h-147v-101 h53q92 0 125 -78q-19 13 -45 18v-86h53h7q4 -37 4 -92q0 -44 -3 -101q-2 -50 -2 -93q0 -111 14 -174q32 -139 143 -192q-116 -47 -147 -184q-12 -54 -12 -147q0 -54 4 -121q3 -73 3 -127q0 -77 -8 -114q-27 -105 -136 -105h-53zM163 -299h57q190 0 256 128q44 84 46 281 q0 219 20 282q39 129 181 132v83q38 -18 90 -20v-153q-143 -3 -182 -131q-19 -64 -20 -283q-2 -197 -45 -281q-67 -127 -256 -127h-147v89z" />
<glyph unicode="~" horiz-adv-x="895" d="M30 689v6q0 256 212 256q11 0 189 -48q30 -8 52 -8q11 0 20 2q23 9 23 43v15h205q-2 -125 -35 -181q-46 -82 -170 -82q0 1 -159 56q-30 10 -49 10q-11 0 -21 -3q-30 -13 -35 -66h-232zM164 542v7q0 46 6 83h136q5 54 35 66q10 4 21 4q19 0 49 -10l158 -56q124 0 171 82 q19 33 28 91h97q-3 -126 -35 -181q-47 -82 -171 -82q0 1 -159 56q-29 10 -49 10q-11 0 -20 -4q-30 -12 -35 -66h-232z" />
<glyph unicode="&#xa1;" horiz-adv-x="2341" d="M30 -243h99l84 885h146l-2 28q6 -1 13 -1q86 0 147 52q60 51 60 123q0 74 -60 125q-60 52 -147 52q-85 0 -146 -52q-60 -51 -60 -125q0 -64 48 -112h-89zM30 991q0 73 61 125q60 51 146 51t146 -51q33 -28 48 -62q-47 23 -105 23q-85 0 -145 -51q-61 -52 -61 -125 q0 -33 13 -62q-23 11 -42 28q-61 52 -61 124zM164 -389l93 975h227l93 -975h-413z" />
<glyph unicode="&#xa2;" d="M30 809v556q0 97 69 164q67 69 164 69h282l38 180h90l-38 -180h54q10 0 20 -1l7 35h90l-12 -59q32 -16 59 -44q68 -68 68 -164v-245h-412v341q0 23 -24 23h-19q-23 0 -23 -23v-747q0 -23 23 -23h19q24 0 24 23v341h412v-246q0 -95 -68 -164q-68 -67 -164 -67h-268 l-43 -209h-90l16 80q-39 17 -72 50q-24 24 -39 51q50 -29 113 -29h13l12 57h-68q-97 0 -164 67q-69 69 -69 164zM421 223l62 298h249q97 0 165 68t68 164v156h90v-246q0 -96 -69 -164q-67 -68 -164 -68h-267l-44 -208h-90zM936 1422q27 -15 50 -39q69 -68 69 -164v-245h-90 v334q0 64 -29 114z" />
<glyph unicode="&#xa3;" horiz-adv-x="1051" d="M30 800v65h87v458q0 95 69 164q68 69 164 69h287q116 0 164 -23q69 -30 69 -117v-25l-251 -93v121q0 23 -23 23h-19q-24 0 -24 -23v-554h44v350l90 35v-385h48v-65h-182v-517q0 -23 24 -23h20v458h272v-65h-182v-393h200v-113h-537q-96 0 -164 67q-69 69 -69 164v422h-87 zM280 119q51 -29 114 -29h537v23h90v-113h-537q-97 0 -165 68q-23 24 -39 51zM753 1152v123l160 59v25q0 20 -3 37q14 -4 24 -9q69 -31 69 -118v-25z" />
<glyph unicode="&#xa4;" horiz-adv-x="1152" d="M30 38l148 146q-41 57 -61 128q-15 53 -15 105q0 55 16 109q20 68 60 123l-148 147l99 101l148 -148q53 38 123 58q54 17 111 17q52 0 104 -15q71 -21 126 -60l148 148l99 -101l-146 -146q39 -58 60 -127q15 -52 15 -106q0 -52 -15 -106q-21 -70 -60 -127l49 -49 q34 54 55 120q15 53 15 106t-15 105q-22 70 -60 127l147 147l89 -91l-146 -145q38 -58 60 -127q14 -53 14 -106t-14 -106q-21 -66 -55 -120l7 -7l-99 -101l-148 147q-55 -40 -126 -59q-52 -15 -105 -15q-52 0 -106 15q-72 19 -127 59l-148 -147zM173 -119l147 146 q56 -39 128 -59q54 -15 105 -15q53 0 106 15q71 20 126 59l91 -89h-1q-55 -40 -126 -60q-53 -14 -106 -14q-51 0 -106 14q-72 20 -127 60l-147 -147zM303 416q0 -26 8 -52q15 -54 53 -93q4 -4 9 -8q-11 21 -18 45q-9 26 -9 52q0 27 10 55q16 55 52 91q37 37 91 52q25 8 54 8 q27 0 53 -7q48 -13 85 -45q-15 27 -36 49q-38 37 -92 53q-26 7 -54 7t-54 -8q-54 -16 -91 -52q-36 -37 -52 -91q-9 -28 -9 -56zM436 270q0 -24 7 -47q7 -2 13 -4q25 -8 54 -8q28 0 53 8q53 15 92 52q37 38 53 92q8 28 8 54q0 23 -6 48l-14 4q-26 8 -54 8t-54 -9 q-53 -15 -90 -52q-36 -36 -52 -90q-10 -29 -10 -56zM933 -119l85 86l14 14v1l90 -91l-99 -100z" />
<glyph unicode="&#xa5;" horiz-adv-x="1071" d="M30 1555h351l88 -466l88 466h350l-227 -715h62l181 568h118l-181 -568h11v-83h-217v-130h44v67h307v-83h-134v-67h-217v-398h-370v251h-84v84h84v63h-218v83h218v130h-218v83h192zM418 -1v90h280v392h307v-84h-217v-398h-370z" />
<glyph unicode="&#xa6;" horiz-adv-x="514" d="M100 -200h181v773h-181v-773zM100 277h181v773h-181v-773zM233 214v38h91v735h90v-773h-181zM233 -225h91v735h90v-773h-181v38z" />
<glyph unicode="&#xa7;" horiz-adv-x="1088" d="M30 768q0 89 56 161q55 73 153 102q-66 63 -93 116t-27 113q0 119 93 207q93 87 245 87q174 0 272 -83q97 -82 116 -239l-229 -18q-2 15 -5 28h-11q-51 0 -90 -32q-38 -32 -38 -87q0 -22 6 -42q46 -36 106 -79q160 -114 212 -157q67 -56 97 -115q31 -60 31 -129 q0 -105 -68 -179q-39 -43 -142 -86q32 -25 57 -51q93 41 129 80q68 74 68 179q0 70 -31 129q-10 20 -24 39q9 -7 17 -13q66 -57 97 -115q31 -60 31 -129q0 -105 -68 -179q-39 -43 -142 -87q-14 19 -31 37q4 -6 7 -12q37 -65 37 -139q0 -81 -46 -155q-46 -72 -134 -111 q-87 -38 -188 -38q-177 0 -281 88q-104 89 -124 247l232 24q27 -121 91 -155q33 -18 68 -18t73 17q76 34 76 99q0 47 -33 87q-58 70 -223 191q-167 123 -219 169q-54 48 -89 113q-34 65 -34 135zM228 786q0 -58 42 -111q9 -11 22 -24q-21 38 -21 79q0 52 42 85q32 26 65 43 q18 -10 49 -32q43 -30 64 -43q-46 -23 -89 -57q-41 -34 -41 -86q0 -30 11 -58q25 -19 54 -40q114 -81 167 -108q69 35 105 85q26 35 26 83q0 15 -3 32q-12 68 -211 204l-153 91q-46 -23 -88 -57q-41 -33 -41 -86zM285 -219q99 -67 252 -67q100 0 188 39q87 38 133 111 q47 73 47 154q0 74 -37 140q-9 15 -19 30q73 -56 109 -120q37 -65 37 -139q0 -82 -47 -155q-46 -72 -133 -111q-88 -39 -189 -39q-176 0 -281 89q-35 30 -60 68zM338 1269q0 -49 33 -89q10 -12 25 -27q-14 28 -14 59q0 56 38 88q39 32 91 32q44 0 80 -24q-14 35 -34 50 q-40 31 -90 31q-52 0 -91 -32q-38 -32 -38 -88zM724 1163l165 12q-13 102 -58 173q16 -11 31 -23q97 -82 117 -239l-229 -18q-10 58 -26 95z" />
<glyph unicode="&#xa8;" horiz-adv-x="896" d="M30 1420q0 56 46 95q47 40 112 40q66 0 112 -40q46 -39 46 -95q0 -55 -46 -95q-46 -39 -112 -39q-65 0 -112 39q-46 40 -46 95zM168 1240q29 -11 63 -11q66 0 113 40q46 39 46 95q0 17 -5 33q21 -7 39 -21q-8 21 -8 44q0 57 46 96q47 39 112 39q66 0 112 -39t46 -96 q0 -55 -46 -95q-46 -39 -112 -39q-61 0 -107 35q4 -9 9 -18q4 -14 4 -29q0 -56 -47 -95q-46 -40 -112 -40q-65 0 -111 40q-32 27 -42 61zM554 1240q29 -11 63 -11q66 0 113 40q46 39 46 95q0 17 -5 34q27 -10 48 -28q47 -39 47 -96q0 -56 -47 -95q-46 -40 -112 -40 q-65 0 -111 40q-32 27 -42 61z" />
<glyph unicode="&#xa9;" horiz-adv-x="1600" d="M30 761q0 314 225.5 536t544.5 222t544.5 -222t225.5 -536q0 -315 -225.5 -537t-544.5 -222t-544.5 222t-225.5 537zM101 761q0 -286 204.5 -487.5t494.5 -201.5q289 0 494 201.5t205 487.5q0 285 -205 486.5t-494 201.5q-290 0 -494.5 -201.5t-204.5 -486.5zM487 425 v666q0 67 48 116q46 48 113 48h325q66 0 113 -48q47 -49 47 -116v-310h-300v377q0 17 -16 17h-14q-16 0 -16 -17v-801q0 -16 16 -16h14q16 0 16 16v378h300v-310q0 -68 -47 -116t-113 -48h-325q-67 0 -113 48q-48 48 -48 116z" />
<glyph unicode="&#xab;" horiz-adv-x="1074" d="M30 524l324 432h193l-337 -440l339 -438v-1h-183zM263 471l80 -101l83 108l302 -401h182v1l-212 276l344 456h-159l-268 -350l-43 56l336 440h-192l-109 -146h-85zM432 21h181l69 -89v-1h-183zM794 20h183l67 -88v-2h-183z" />
<glyph unicode="&#xac;" horiz-adv-x="973" d="M30 814v186h779v-548l-1 -1h-183v217h-461v90h461v56h-595zM758 304v90h94l1 1v459h90v-549l-1 -1h-184z" />
<glyph unicode="&#xad;" horiz-adv-x="1002" d="M30 635v305h809v-305h-809zM164 488h808v306h-90v-216h-718v-90z" />
<glyph unicode="&#xae;" horiz-adv-x="1600" d="M30 761q0 314 225.5 536t544.5 222t544.5 -222t225.5 -536q0 -315 -225.5 -537t-544.5 -222t-544.5 222t-225.5 537zM101 761q0 -286 204.5 -487.5t494.5 -201.5q289 0 494 201.5t205 487.5q0 285 -205 486.5t-494 201.5q-290 0 -494.5 -201.5t-204.5 -486.5zM482 272 v985h492q68 0 116 -48q47 -48 47 -115v-159q0 -50 -28 -92q-29 -41 -74 -59q45 -18 74 -59q28 -41 28 -92v-207q0 -105 16 -154h-304q-17 53 -17 164v289q0 11 -11 15h-35v-468h-304zM786 808h30q16 0 16 16v369q0 17 -16 17h-30v-402z" />
<glyph unicode="&#xaf;" horiz-adv-x="1002" d="M30 1251v305h808v-305h-808zM164 1105v89h718v216h90v-305h-808z" />
<glyph unicode="&#xb0;" horiz-adv-x="582" d="M30 1359q0 81 57 137q57 58 137 58q81 0 137 -58q58 -56 58 -137q0 -80 -58 -137q-56 -57 -137 -57q-80 0 -137 57t-57 137zM163 1359q0 -24 17 -39q19 -17 44 -17q26 0 43 17q19 16 19 39t-19 40q-17 16 -43 16q-25 0 -44 -16q-17 -16 -17 -40zM182 1128q39 -19 86 -19 q81 0 137 56q57 58 57 137q0 47 -19 86q28 -14 52 -38q57 -57 57 -137t-57 -138q-57 -56 -138 -56q-79 0 -137 56q-24 24 -38 53z" />
<glyph unicode="&#xb1;" horiz-adv-x="959" d="M30 248v236h796v-236h-796zM30 953v237h277v277h237v-277h34v164h69v-164h173v-237h-276v-276h-237v163h-173v70h173v43h-277zM134 135h795v236h-70v-167h-725v-69zM411 564h236v276h277v236h-70v-166h-276v-277h-167v-69z" />
<glyph unicode="&#xb4;" horiz-adv-x="634" d="M30 1279l122 275h319l-238 -275h-203zM164 1132l39 90h74l160 185h167l-237 -275h-203z" />
<glyph unicode="&#xb5;" horiz-adv-x="1295" d="M30 147v1406h382v-466q6 -169 67 -287q23 -69 60 -97q-9 18 -16 40q-61 119 -67 288v376h90v-466q4 -149 53 -259h1q50 0 111 118q33 112 37 286v467h384v-1083h-340v-24q-29 -25 -59 -25q-75 0 -138 101q24 -11 48 -11q32 0 63 28q13 -3 27 -3q7 0 15 2v203 q-69 -173 -148 -173q-50 0 -95 45q20 -32 41 -54v-559h-382v90h292v588q-23 39 -44 91v-622h-382zM881 323v90h295v994h89v-1084h-384z" />
<glyph unicode="&#xb6;" horiz-adv-x="943" d="M30 1147q0 166 113.5 267.5t301.5 101.5h468v-74h-134v-1442h-87v1442h-175v-1442h-89v780q-184 8 -291 108t-107 259z" />
<glyph unicode="&#xb7;" horiz-adv-x="545" d="M30 860q0 62 51 106q52 43 125 43q72 0 124 -43q51 -44 51 -106q0 -63 -51 -106q-52 -44 -124 -44q-73 0 -125 44q-51 43 -51 106zM171 669q36 -15 79 -15q72 0 124 43q51 44 51 106q0 24 -7 44q24 -10 46 -28q51 -43 51 -106q0 -62 -51 -105q-52 -44 -124 -44 q-73 0 -125 44q-32 27 -44 61z" />
<glyph unicode="&#xb8;" horiz-adv-x="572" d="M30 -420l11 117q30 -3 46 -3q17 0 38 3q55 14 55 76q0 44 -41 59q-20 7 -56 8l52 160h148l-28 -89q53 -9 101 -43q52 -44 52 -97v-8q-12 -135 -144 -177q-56 -18 -123 -18q-53 0 -111 12zM164 -567l7 79h14q66 0 122 17q132 42 145 178v8q0 16 -5 31q22 -9 43 -24 q52 -44 52 -97v-8q-13 -136 -145 -177q-56 -18 -122 -18q-54 0 -111 11z" />
<glyph unicode="&#xbb;" horiz-adv-x="1074" d="M30 718v1l338 438l-336 440h193l324 -433l-336 -446h-183zM188 571h158l110 147h119l335 447l-323 432h-194l337 -440l-77 -100l-295 394h-22l256 -344zM550 572l404 536l-256 343h22l324 -432l-336 -447h-158z" />
<glyph unicode="&#xbf;" horiz-adv-x="1132" d="M30 -153q0 -96 68 -164q24 -24 51 -40q-29 51 -29 114v320q0 69 23 110q16 26 66 73q22 20 55 48q68 57 76 64q96 83 96 101v145h-89v-55q0 -18 -97 -101q-7 -7 -76 -65q-33 -27 -55 -47q-50 -48 -66 -73q-23 -42 -23 -110v-320zM164 21q0 68 23 109q16 26 66 74 q21 19 54 47q69 57 77 64q96 83 96 101v55h412v-146q0 -91 -22 -131q-16 -31 -94 -102q-176 -160 -176 -162v-325q0 -23 23 -23h20q23 0 23 23v325h436v-115q0 -157 -38 -235q-54 -110 -195 -112h-472q-97 0 -166 68q-67 69 -67 165v320zM347 701h89v233h323v90h-412v-323z M480 554v324h412v-324h-412z" />
<glyph unicode="&#xc0;" horiz-adv-x="1227" d="M30 146l229 1410h331l-66 76h191l-82 185h50l116 -261h35l229 -1410h-413l-28 282h-3l-42 -428h-413l14 90h309l42 428h84l-6 56h-121l-43 -428h-413zM231 1964h319l121 -275h-203zM498 685h98l-49 493zM775 90l9 -90h413l-230 1410h-75l215 -1320h-332z" />
<glyph unicode="&#xc1;" horiz-adv-x="1227" d="M30 146l229 1410h302l34 76h74l160 185h167l-225 -261h63l229 -1410h-413l-28 282h-3l-42 -428h-413l14 90h309l42 428h84l-6 56h-121l-43 -428h-413zM422 1689l122 275h319l-238 -275h-203zM498 685h98l-49 493zM775 90l9 -90h413l-230 1410h-75l215 -1320h-332z" />
<glyph unicode="&#xc2;" horiz-adv-x="1227" d="M30 146l229 1410h119l61 79h66l89 96l84 -96l-73 -79h153l-69 79h212l-45 56h-222l-84 96l-89 -96h-225l212 275h189l118 -147h15l221 -274h-155l227 -1399h-413l-28 282h-3l-42 -428h-413l14 90h309l42 428h84l-6 56h-121l-43 -428h-413zM498 685h98l-49 493zM775 90 l9 -90h413l-230 1410h-75l215 -1320h-332z" />
<glyph unicode="&#xc3;" horiz-adv-x="1227" d="M30 146l229 1410h70v3q0 46 7 83h136q5 54 35 66q9 4 21 4q19 0 49 -10l158 -56q124 0 171 82q19 33 28 91h97q-3 -126 -35 -181q-47 -82 -171 -82h9l229 -1410h-413l-28 282h-3l-42 -428h-413l14 90h309l42 428h84l-6 56h-121l-43 -428h-413zM196 1699v6q0 256 212 256 q11 0 189 -48q30 -8 52 -8q11 0 20 2q23 9 23 43q0 7 -1 15h206q-3 -125 -35 -181q-46 -82 -171 -82q0 1 -158 56q-30 10 -49 10q-11 0 -21 -3q-30 -13 -35 -66h-232zM498 685h98l-49 493zM562 1556h263q0 1 -159 56q-29 10 -49 10q-11 0 -20 -4q-29 -12 -35 -62zM775 90 l9 -90h413l-230 1410h-75l215 -1320h-332z" />
<glyph unicode="&#xc4;" horiz-adv-x="1227" d="M30 146l229 1410h176q-33 10 -60 33q-32 27 -42 61q29 -11 63 -11q66 0 113 40q46 39 46 95q0 17 -5 33q22 -7 40 -21q-9 21 -9 44q0 57 46 96q47 39 112 39q66 0 112 -39t46 -96q0 -55 -46 -95q-46 -39 -112 -39q-61 0 -106 35q3 -9 8 -18q4 -14 4 -29q0 -56 -47 -95 q-27 -23 -60 -33h283q-33 10 -60 33q-32 27 -42 61q29 -11 63 -11q66 0 113 40q46 39 46 95q0 17 -5 34q27 -10 48 -28q47 -39 47 -96q0 -56 -47 -95q-46 -40 -112 -40q-20 0 -37 4l228 -1407h-413l-28 282h-3l-42 -428h-413l14 90h309l42 428h84l-6 56h-121l-43 -428h-413z M195 1830q0 56 46 95q47 40 112 40q66 0 112 -40q46 -39 46 -95q0 -55 -46 -95q-46 -39 -112 -39q-65 0 -112 39q-46 40 -46 95zM498 685h98l-49 493zM775 90l9 -90h413l-230 1410h-75l215 -1320h-332z" />
<glyph unicode="&#xc5;" horiz-adv-x="1227" d="M30 146l229 1410h445q12 9 23 20q58 58 58 137q0 47 -20 86q28 -14 52 -38q57 -57 57 -137q0 -61 -33 -109l222 -1369h-413l-28 282h-3l-42 -428h-413l14 90h309l42 428h84l-6 56h-121l-43 -428h-413zM352 1770q0 81 57 137q57 58 137 58q81 0 137 -58q58 -57 58 -137 t-58 -138q-56 -56 -137 -56q-80 0 -137 56q-57 58 -57 138zM485 1770q0 -23 17 -39q19 -17 44 -17q26 0 44 17q18 15 18 39q0 23 -18 40q-18 15 -44 15q-25 0 -44 -15q-17 -17 -17 -40zM498 685h98l-49 493zM775 90l9 -90h413l-230 1410h-75l215 -1320h-332z" />
<glyph unicode="&#xc6;" horiz-adv-x="1572" d="M30 147l183 1409h1195v-134h-320v-434h43v377h321v44h90v-133h-321v-288h187v-105h-320v-610h43v554h321v15h90v-105h-321v-464h187v-126h-758l-28 281h-3l-43 -428h-412l11 90h312l42 428h84l-6 56h-122l-42 -427h-413zM497 686h99l-49 492zM774 90h678v36h90v-126h-759 z" />
<glyph unicode="&#xc7;" horiz-adv-x="1132" d="M30 378v945q0 96 69 164q67 69 164 69h472q97 0 166 -69q67 -68 67 -164v-440h-436v536q0 23 -23 23h-20q-23 0 -23 -23v-1136q0 -24 23 -24h20q23 0 23 24v535h436v-440q0 -96 -67 -164q-69 -68 -166 -68h-472q-97 0 -164 68q-69 68 -69 164zM193 118q15 -27 39 -50 q68 -68 164 -68h473q96 0 165 68q68 68 68 164v440h-90v-351q0 -95 -68 -164q-68 -67 -165 -67h-472q-64 0 -114 28zM390 -420l11 117q30 -3 46 -3q17 0 38 3q55 14 55 76q0 44 -41 59q-20 7 -56 8l52 160h148l-28 -89q53 -9 101 -43q52 -44 52 -97v-8q-12 -135 -144 -177 q-56 -18 -123 -18q-53 0 -111 12zM524 -567l7 79h14q66 0 122 17q132 42 145 178v8q0 16 -5 31q22 -9 43 -24q52 -44 52 -97v-8q-13 -136 -145 -177q-56 -18 -122 -18q-54 0 -111 11zM983 1380q27 -15 51 -39q68 -68 68 -164v-440h-90v530q0 62 -29 113z" />
<glyph unicode="&#xc8;" horiz-adv-x="951" d="M30 146v1410h422l-66 76h191l-82 185h50l116 -261h127v-134h-322v-434h44v378h411v-90h-321v-288h188v-105h-322v-611h44v554h411v-89h-321v-465h188v-126h-758zM93 1964h319l121 -275h-203zM164 0v90h757v-90h-757z" />
<glyph unicode="&#xc9;" horiz-adv-x="951" d="M30 146v1410h394l33 76h74l160 185h167l-225 -261h155v-134h-322v-434h44v378h411v-90h-321v-288h188v-105h-322v-611h44v554h411v-89h-321v-465h188v-126h-758zM164 0v90h757v-90h-757zM284 1689l122 275h319l-238 -275h-203z" />
<glyph unicode="&#xca;" horiz-adv-x="951" d="M30 146v1410h210l61 79h66l89 96l84 -96l-73 -79h153l-69 79h212l-45 56h-222l-84 96l-89 -96h-225l212 275h189l118 -147h15l221 -274h-65v-123h-322v-434h44v378h411v-90h-321v-288h188v-105h-322v-611h44v554h411v-89h-321v-465h188v-126h-758zM164 0v90h757v-90h-757 z" />
<glyph unicode="&#xcb;" horiz-adv-x="951" d="M30 146v1410h268q-33 10 -60 33q-32 27 -42 61q29 -11 63 -11q66 0 113 40q46 39 46 95q0 17 -5 33q21 -7 39 -21q-8 21 -8 44q0 57 46 96q47 39 112 39q66 0 112 -39t46 -96q0 -55 -46 -95q-46 -39 -112 -39q-62 0 -107 35q3 -9 9 -18q4 -14 4 -29q0 -56 -47 -95 q-27 -23 -60 -33h283q-33 10 -60 33q-32 27 -42 61q29 -11 63 -11q66 0 113 40q46 39 46 95q0 17 -5 34q27 -10 48 -28q47 -39 47 -96q0 -56 -47 -95q-27 -23 -60 -33h1v-134h-322v-434h44v378h411v-90h-321v-288h188v-105h-322v-611h44v554h411v-89h-321v-465h188v-126 h-758zM58 1830q0 56 46 95q47 40 112 40q66 0 112 -40q46 -39 46 -95q0 -55 -46 -95q-46 -39 -112 -39q-65 0 -112 39q-46 40 -46 95zM164 0v90h757v-90h-757z" />
<glyph unicode="&#xcc;" horiz-adv-x="638" d="M-60 1964h319l122 -275h-204zM38 146v1410h261l-66 76h192l-82 185h50l121 -275h-40v-1396h-436zM172 0h436v1410h-90v-1320h-346v-90z" />
<glyph unicode="&#xcd;" horiz-adv-x="630" d="M30 146v1410h233l34 76h74l159 185h168l-232 -268v-1403h-436zM124 1689l121 275h319l-237 -275h-203zM164 0h436v1410h-90v-1320h-346v-90z" />
<glyph unicode="&#xce;" horiz-adv-x="635" d="M-60 1691l212 275h189l118 -147h15l221 -274h-223l-3 3v-1402h-436v1410h49l61 79h66l89 96l84 -96l-73 -79h153l-69 79h212l-45 56h-222l-84 96l-89 -96h-225zM166 0h436v1410h-89v-1320h-347v-90z" />
<glyph unicode="&#xcf;" horiz-adv-x="656" d="M-90 1830q0 56 46 95q47 40 112 40q66 0 112 -40q46 -39 46 -95q0 -55 -46 -95q-46 -39 -112 -39q-65 0 -112 39q-46 40 -46 95zM43 146v1410h107q-33 10 -60 33q-32 27 -42 61q29 -11 63 -11q66 0 113 40q46 39 46 95q0 17 -5 33q21 -7 39 -21q-8 21 -8 44q0 57 46 96 q47 39 112 39q66 0 112 -39t46 -96q0 -55 -46 -95q-46 -39 -112 -39q-61 0 -107 35q4 -9 9 -18q4 -14 4 -29q0 -56 -47 -95q-27 -23 -60 -33h226v-1410h-436zM177 0h436v1410h-90v-1320h-346v-90zM434 1650q29 -11 63 -11q66 0 113 40q46 39 46 95q0 17 -5 34q27 -10 48 -28 q47 -39 47 -96q0 -56 -47 -95q-46 -40 -112 -40q-65 0 -111 40q-32 27 -42 61z" />
<glyph unicode="&#xd0;" horiz-adv-x="1202" d="M30 743v214h71v598h705q96 0 165 -69q67 -68 67 -164v-945q0 -95 -67 -164q-69 -67 -165 -67h-705v597h-71zM234 -1v90h616q96 0 165 68q67 68 67 164v944q0 63 -29 114q27 -15 51 -39q68 -69 68 -164v-945q0 -96 -68 -164t-165 -68h-705zM537 259h42q23 0 23 23v1136 q0 23 -23 23h-42v-484h30v-214h-30v-484z" />
<glyph unicode="&#xd1;" horiz-adv-x="1169" d="M30 146v1410h271v3q0 46 6 83h136q5 54 35 66q10 4 21 4q19 0 49 -10l158 -56q125 0 171 82q19 33 28 91h97q-3 -126 -35 -181q-47 -82 -171 -82h209v-1410h-405v-146h-436v90h346v503l-44 286v-733h-436zM167 1699v6q0 256 213 256q10 0 188 -48q30 -8 52 -8q12 0 20 2 q24 9 24 43q0 7 -1 15h205q-2 -125 -35 -181q-46 -82 -170 -82q0 1 -159 56q-29 10 -49 10q-11 0 -21 -3q-30 -13 -35 -66h-232zM458 1552l111 -729v733h227q0 1 -158 56q-30 10 -50 10q-11 0 -20 -4q-30 -12 -35 -66h-75zM698 90l14 -90h427v1410h-90v-1320h-351z" />
<glyph unicode="&#xd2;" horiz-adv-x="1132" d="M30 378v945q0 96 69 164q67 69 164 69h279l-65 76h191l-82 185h50l115 -261q87 -6 150 -69q67 -68 67 -164v-945q0 -96 -67 -164q-69 -68 -166 -68h-472q-97 0 -164 68q-69 68 -69 164zM183 1964h319l122 -275h-203zM193 118q15 -27 39 -50q68 -68 164 -68h473 q96 0 165 68q68 68 68 164v945q0 96 -68 164q-24 24 -51 39q29 -51 29 -113v-946q0 -95 -68 -164q-68 -67 -165 -67h-472q-64 0 -114 28zM466 283q0 -24 23 -24h20q23 0 23 24v1136q0 23 -23 23h-20q-23 0 -23 -23v-1136z" />
<glyph unicode="&#xd3;" horiz-adv-x="1132" d="M30 378v945q0 96 69 164q67 69 164 69h251l34 76h74l160 185h167l-226 -261h12q97 0 166 -69q67 -68 67 -164v-945q0 -96 -67 -164q-69 -68 -166 -68h-472q-97 0 -164 68q-69 68 -69 164zM193 118q15 -27 39 -50q68 -68 164 -68h473q96 0 165 68q68 68 68 164v945 q0 96 -68 164q-24 24 -51 39q29 -51 29 -113v-946q0 -95 -68 -164q-68 -67 -165 -67h-472q-64 0 -114 28zM375 1689l121 275h319l-237 -275h-203zM466 283q0 -24 23 -24h20q23 0 23 24v1136q0 23 -23 23h-20q-23 0 -23 -23v-1136z" />
<glyph unicode="&#xd4;" horiz-adv-x="1132" d="M30 378v945q0 96 69 164q67 69 164 69h68l61 79h66l89 96l84 -96l-73 -79h153l-69 79h212l-46 56h-221l-84 96l-89 -96h-225l212 275h189l118 -147h15l221 -274h-136q52 -17 93 -58q67 -68 67 -164v-945q0 -96 -67 -164q-69 -68 -166 -68h-472q-97 0 -164 68 q-69 68 -69 164zM193 118q15 -27 39 -50q68 -68 164 -68h473q96 0 165 68q68 68 68 164v945q0 96 -68 164q-24 24 -51 39q29 -51 29 -113v-946q0 -95 -68 -164q-68 -67 -165 -67h-472q-64 0 -114 28zM466 283q0 -24 23 -24h20q23 0 23 24v1136q0 23 -23 23h-20 q-23 0 -23 -23v-1136z" />
<glyph unicode="&#xd5;" horiz-adv-x="1132" d="M30 378v945q0 96 69 164q67 69 164 69h19v3q0 46 7 83h135q6 54 36 66q9 4 20 4q20 0 49 -10l159 -56q124 0 171 82q19 33 28 91h96q-2 -126 -35 -181q-46 -82 -170 -82q0 1 -159 56q-29 10 -49 10q-11 0 -21 -4q-29 -12 -35 -62h221q97 0 166 -69q67 -68 67 -164v-945 q0 -96 -67 -164q-69 -68 -166 -68h-472q-97 0 -164 68q-69 68 -69 164zM149 1699v6q0 256 212 256q11 0 188 -48q31 -8 52 -8q12 0 21 2q23 9 23 43q0 7 -1 15h206q-3 -125 -35 -181q-47 -82 -171 -82q0 1 -159 56q-29 10 -49 10q-11 0 -20 -3q-30 -13 -35 -66h-232z M193 118q15 -27 39 -50q68 -68 164 -68h473q96 0 165 68q68 68 68 164v945q0 96 -68 164q-24 24 -51 39q29 -51 29 -113v-946q0 -95 -68 -164q-68 -67 -165 -67h-472q-64 0 -114 28zM466 283q0 -24 23 -24h20q23 0 23 24v1136q0 23 -23 23h-20q-23 0 -23 -23v-1136z" />
<glyph unicode="&#xd6;" horiz-adv-x="1132" d="M30 378v945q0 96 69 164q67 69 164 69h125q-33 10 -60 33q-32 27 -42 61q29 -11 63 -11q66 0 113 40q46 39 46 95q0 17 -5 33q21 -7 39 -21q-8 21 -8 44q0 57 46 96q47 39 112 39q66 0 112 -39t46 -96q0 -55 -46 -95q-46 -39 -112 -39q-61 0 -107 35q4 -9 9 -18 q4 -14 4 -29q0 -56 -47 -95q-27 -23 -60 -33h244q97 0 166 -69q67 -68 67 -164v-945q0 -96 -67 -164q-69 -68 -166 -68h-472q-97 0 -164 68q-69 68 -69 164zM148 1830q0 56 46 95q47 40 112 40q66 0 112 -40q46 -39 46 -95q0 -55 -46 -95q-46 -39 -112 -39q-65 0 -112 39 q-46 40 -46 95zM193 118q15 -27 39 -50q68 -68 164 -68h473q96 0 165 68q68 68 68 164v945q0 96 -68 164q-24 24 -51 39q29 -51 29 -113v-946q0 -95 -68 -164q-68 -67 -165 -67h-472q-64 0 -114 28zM466 283q0 -24 23 -24h20q23 0 23 24v1136q0 23 -23 23h-20q-23 0 -23 -23 v-1136zM672 1650q29 -11 63 -11q66 0 113 40q46 39 46 95q0 17 -5 34q27 -10 48 -28q47 -39 47 -96q0 -56 -47 -95q-46 -40 -112 -40q-65 0 -111 40q-32 27 -42 61z" />
<glyph unicode="&#xd7;" horiz-adv-x="1007" d="M30 542l220 220l-220 220l187 186l220 -219l219 219l187 -187l-219 -219l50 -50l213 212l90 -90l-213 -212l79 -79l-187 -188l-219 219l-220 -219zM261 298l220 220l90 -90l-220 -220zM700 299l187 187l90 -90l-187 -187z" />
<glyph unicode="&#xd8;" horiz-adv-x="1131" d="M30 374v945q0 96 69 164q67 69 164 69h332l31 144h131l-30 -144h8q96 0 165 -69q68 -68 68 -164v-945q0 -95 -68 -164q-69 -67 -165 -67h-303l-38 -178h-131l37 178h-37q-97 0 -164 67q-69 69 -69 164zM417 -182l58 268h304q96 0 165 68q68 68 68 164v944q0 63 -30 114 q28 -15 52 -39q67 -69 67 -164v-945q0 -96 -67 -164q-69 -68 -166 -68h-303l-37 -178h-111zM466 279q0 -23 23 -23h20q23 0 23 23v1136q0 23 -23 23h-20q-23 0 -23 -23v-1136z" />
<glyph unicode="&#xd9;" horiz-adv-x="1132" d="M30 378v1178h436v-1273q0 -24 23 -24h20q23 0 23 24v1273h10l-65 76h191l-82 185h50l115 -261h217v-1178q0 -96 -67 -164q-69 -68 -166 -68h-472q-97 0 -164 68q-69 68 -69 164zM183 1964h319l122 -275h-203zM193 118q15 -27 39 -50q68 -68 164 -68h473q96 0 165 68 q68 68 68 164v1178h-90v-1089q0 -95 -68 -164q-68 -67 -165 -67h-472q-64 0 -114 28z" />
<glyph unicode="&#xda;" horiz-adv-x="1132" d="M30 378v1178h436v-1273q0 -24 23 -24h20q23 0 23 24v1259h-24l40 90h74l160 185h167l-226 -261h245v-1178q0 -96 -67 -164q-69 -68 -166 -68h-472q-97 0 -164 68q-69 68 -69 164zM193 118q15 -27 39 -50q68 -68 164 -68h473q96 0 165 68q68 68 68 164v1178h-90v-1089 q0 -95 -68 -164q-68 -67 -165 -67h-472q-64 0 -114 28zM375 1689l121 275h319l-237 -275h-203z" />
<glyph unicode="&#xdb;" horiz-adv-x="1132" d="M30 378v1178h301l61 79h66l89 96l84 -96l-73 -79h153l-69 79h212l-46 56h-221l-84 96l-89 -96h-225l212 275h189l118 -147h15l212 -263h33v-1178q0 -96 -67 -164q-69 -68 -166 -68h-472q-97 0 -164 68q-69 68 -69 164zM193 118q15 -27 39 -50q68 -68 164 -68h473 q96 0 165 68q68 68 68 164v1178h-90v-1089q0 -95 -68 -164q-68 -67 -165 -67h-472q-64 0 -114 28zM466 283q0 -24 23 -24h20q23 0 23 24v1262h-66v-1262z" />
<glyph unicode="&#xdc;" horiz-adv-x="1132" d="M30 378v1178h358q-33 10 -60 33q-32 27 -42 61q29 -11 63 -11q66 0 113 40q46 39 46 95q0 17 -5 33q21 -7 39 -21q-8 21 -8 44q0 57 46 96q47 39 112 39q66 0 112 -39t46 -96q0 -55 -46 -95q-46 -39 -112 -39q-61 0 -107 35q4 -9 9 -18q4 -14 4 -29q0 -56 -47 -95 q-36 -32 -85 -38v-1268q0 -24 23 -24h20q23 0 23 24v1273h242q-33 10 -60 33q-32 27 -42 61q29 -11 63 -11q66 0 113 40q46 39 46 95q0 17 -5 34q27 -10 48 -28q47 -39 47 -96q0 -56 -47 -95q-27 -23 -60 -33h91v-1178q0 -96 -67 -164q-69 -68 -166 -68h-472q-97 0 -164 68 q-69 68 -69 164zM148 1830q0 56 46 95q47 40 112 40q66 0 112 -40q46 -39 46 -95q0 -55 -46 -95q-46 -39 -112 -39q-65 0 -112 39q-46 40 -46 95zM193 118q15 -27 39 -50q68 -68 164 -68h473q96 0 165 68q68 68 68 164v1178h-90v-1089q0 -95 -68 -164q-68 -67 -165 -67h-472 q-64 0 -114 28z" />
<glyph unicode="&#xdd;" horiz-adv-x="1132" d="M30 887v669h436v-725h66v711h-24l40 90h74l160 185h167l-226 -261h245v-669q0 -97 -68 -165t-165 -68h-17v-508h-437v508h-18q-97 0 -164 68q-69 68 -69 165zM375 1689l121 275h319l-237 -275h-203zM414 0h437v508h18q96 0 164 68q69 68 69 164v670h-90v-580 q0 -96 -69 -164q-68 -69 -164 -69h-17v-507h-348v-90z" />
<glyph unicode="&#xde;" horiz-adv-x="1131" d="M30 -242v1798h436v-463h44v316h90v-316h135q96 0 165 -69q68 -68 68 -164v-436q0 -97 -68 -165q-69 -68 -165 -68h-269v-433h-436zM164 -299h346v434h269q96 0 165 67q68 69 68 165v436q0 63 -30 114q28 -15 52 -39q67 -69 67 -164v-436q0 -97 -67 -165q-69 -68 -166 -68 h-268v-434h-436v90zM466 304h43q23 0 23 23v629q0 23 -23 23h-43v-675z" />
<glyph unicode="&#xdf;" horiz-adv-x="1247" d="M30 147v1409h705q96 0 164 -69q69 -67 69 -164v-161q0 -267 -288 -267q110 0 198 -29q134 58 134 240v160q0 63 -30 114q27 -16 51 -39q68 -68 68 -164v-161q0 -154 -95 -219q78 -65 78 -164v-254q0 -94 -80 -164q-78 -68 -176 -68h-296v136h116q23 0 23 23v512 q0 23 -23 23h-116v578q0 24 -24 24h-42v-1296h-436zM164 0v90h436v-90h-436zM665 0v90h206q99 0 177 69q80 69 80 164v253q0 56 -25 102q114 -71 114 -192v-253q0 -95 -80 -164q-77 -69 -176 -69h-296z" />
<glyph unicode="&#xe0;" d="M30 379v230q0 96 69 164q67 68 164 68h100q82 0 146 -51v240q0 10 -8 17q-6 7 -15 7h-20q-9 0 -16 -7t-7 -17v-108h-367v12q0 96 69 165q68 68 164 68h192l-48 55h191l-81 185h50l106 -242q77 -9 134 -66q69 -68 69 -165v-788h-413v52q-64 -52 -146 -52h-100 q-97 0 -164 69q-69 67 -69 164zM160 1554h319l122 -275h-204zM193 119q16 -27 39 -51q68 -68 164 -68h101q81 0 146 52v-52h412v788q0 96 -68 164q-24 24 -51 39q30 -50 30 -114v-787h-413v51q-65 -51 -146 -51h-100q-63 0 -114 29zM443 284q0 -11 7 -17q7 -8 16 -8h20 q9 0 15 8q8 6 8 17v421q-1 9 -8 16q-6 7 -15 7h-20q-9 0 -16 -7q-7 -6 -7 -16v-421z" />
<glyph unicode="&#xe1;" d="M30 379v230q0 96 69 164q67 68 164 68h100q82 0 146 -51v240q0 10 -8 17q-6 7 -15 7h-20q-9 0 -16 -7t-7 -17v-108h-367v12q0 96 69 165q68 68 164 68h192l24 55h73l160 185h168l-209 -242q78 -8 136 -66q69 -68 69 -165v-788h-413v52q-64 -52 -146 -52h-100 q-97 0 -164 69q-69 67 -69 164zM193 119q16 -27 39 -51q68 -68 164 -68h101q81 0 146 52v-52h412v788q0 96 -68 164q-24 24 -51 39q30 -50 30 -114v-787h-413v51q-65 -51 -146 -51h-100q-63 0 -114 29zM351 1279l122 275h319l-237 -275h-204zM443 284q0 -11 7 -17 q7 -8 16 -8h20q9 0 15 8q8 6 8 17v421q-1 9 -8 16q-6 7 -15 7h-20q-9 0 -16 -7q-7 -6 -7 -16v-421z" />
<glyph unicode="&#xe2;" d="M30 379v230q0 96 69 164q67 68 164 68h100q82 0 146 -51v240q0 10 -8 17q-6 7 -15 7h-20q-9 0 -16 -7t-7 -17v-108h-367v12q0 96 69 165q68 68 164 68h15l44 58h66l89 96l84 -96l-53 -58h115l-51 58h212l-45 56h-222l-84 96l-89 -96h-225l212 275h189l118 -147h15 l221 -274h-112q24 -15 45 -36q69 -68 69 -165v-788h-413v52q-64 -52 -146 -52h-100q-97 0 -164 69q-69 67 -69 164zM193 119q16 -27 39 -51q68 -68 164 -68h101q81 0 146 52v-52h412v788q0 96 -68 164q-24 24 -51 39q30 -50 30 -114v-787h-413v51q-65 -51 -146 -51h-100 q-63 0 -114 29zM443 284q0 -11 7 -17q7 -8 16 -8h20q9 0 15 8q8 6 8 17v421q-1 9 -8 16q-6 7 -15 7h-20q-9 0 -16 -7q-7 -6 -7 -16v-421z" />
<glyph unicode="&#xe3;" d="M30 379v230q0 96 69 164q67 68 164 68h100q82 0 146 -51v240q0 10 -8 17q-6 7 -15 7h-20q-9 0 -16 -7t-7 -17v-108h-367v12q0 96 69 165q50 50 114 63q1 38 7 70h135q5 54 35 66q10 4 21 4q19 0 49 -10l159 -56q124 0 170 82q20 33 28 91h97q-3 -126 -35 -181 q-41 -72 -141 -81q38 -17 69 -48q69 -68 69 -165v-788h-413v52q-64 -52 -146 -52h-100q-97 0 -164 69q-69 67 -69 164zM125 1289v6q0 256 213 256q10 0 188 -48q30 -8 52 -8q12 0 20 2q24 9 24 43q0 7 -1 15h206q-3 -125 -35 -181q-47 -82 -171 -82q0 1 -159 56 q-29 10 -49 10q-11 0 -20 -3q-30 -13 -36 -66h-232zM193 119q16 -27 39 -51q68 -68 164 -68h101q81 0 146 52v-52h412v788q0 96 -68 164q-24 24 -51 39q30 -50 30 -114v-787h-413v51q-65 -51 -146 -51h-100q-63 0 -114 29zM443 284q0 -11 7 -17q7 -8 16 -8h20q9 0 15 8 q8 6 8 17v421q-1 9 -8 16q-6 7 -15 7h-20q-9 0 -16 -7q-7 -6 -7 -16v-421zM495 1167h201q-38 13 -100 35q-30 10 -49 10q-11 0 -21 -4q-22 -9 -31 -41z" />
<glyph unicode="&#xe4;" d="M30 379v230q0 96 69 164q67 68 164 68h100q82 0 146 -51v240q0 10 -8 17q-6 7 -15 7h-20q-9 0 -16 -7t-7 -17v-108h-367v12q0 96 69 165q68 68 164 68h12q-8 5 -16 12q-32 27 -42 61q29 -11 63 -11q66 0 113 40q46 39 46 95q0 17 -5 33q21 -7 39 -21q-8 21 -8 44 q0 57 46 96q47 39 112 39q66 0 112 -39t46 -96q0 -55 -46 -95q-46 -39 -112 -39q-62 0 -107 35q4 -9 9 -18q4 -14 4 -29q0 -56 -47 -95q-8 -7 -16 -12h177q9 0 18 -1q-8 6 -16 13q-32 27 -42 61q29 -11 63 -11q66 0 113 40q46 39 46 95q0 17 -5 34q27 -10 48 -28 q47 -39 47 -96q0 -56 -47 -95q-46 -40 -112 -40h-1q28 -16 52 -40q69 -68 69 -165v-788h-413v52q-64 -52 -146 -52h-100q-97 0 -164 69q-69 67 -69 164zM125 1420q0 56 46 95q47 40 112 40q66 0 112 -40q46 -39 46 -95q0 -55 -46 -95q-46 -39 -112 -39q-65 0 -112 39 q-46 40 -46 95zM193 119q16 -27 39 -51q68 -68 164 -68h101q81 0 146 52v-52h412v788q0 96 -68 164q-24 24 -51 39q30 -50 30 -114v-787h-413v51q-65 -51 -146 -51h-100q-63 0 -114 29zM443 284q0 -11 7 -17q7 -8 16 -8h20q9 0 15 8q8 6 8 17v421q-1 9 -8 16q-6 7 -15 7h-20 q-9 0 -16 -7q-7 -6 -7 -16v-421z" />
<glyph unicode="&#xe5;" d="M30 379v230q0 96 69 164q67 68 164 68h100q82 0 146 -51v240q0 10 -8 17q-6 7 -15 7h-20q-9 0 -16 -7t-7 -17v-108h-367v12q0 96 69 165q68 68 164 68h145q-66 6 -116 55q-56 58 -56 138q0 81 56 137q58 58 137 58q81 0 138 -58q57 -57 57 -137t-57 -138 q-49 -49 -117 -55h161q57 58 57 136q0 47 -20 86q28 -14 52 -38q58 -57 58 -137q0 -37 -13 -70q34 -17 62 -45q69 -68 69 -165v-788h-413v52q-64 -52 -146 -52h-100q-97 0 -164 69q-69 67 -69 164zM193 119q16 -27 39 -51q68 -68 164 -68h101q81 0 146 52v-52h412v788 q0 96 -68 164q-24 24 -51 39q30 -50 30 -114v-787h-413v51q-65 -51 -146 -51h-100q-63 0 -114 29zM414 1360q0 -23 18 -39q18 -17 43 -17q26 0 44 17q19 15 19 39q0 23 -19 40q-18 15 -44 15q-25 0 -43 -15q-18 -17 -18 -40zM443 284q0 -11 7 -17q7 -8 16 -8h20q9 0 15 8 q8 6 8 17v421q-1 9 -8 16q-6 7 -15 7h-20q-9 0 -16 -7q-7 -6 -7 -16v-421z" />
<glyph unicode="&#xe6;" horiz-adv-x="1665" d="M30 377v556q0 97 69 164q67 69 164 69h100q83 0 146 -51v51h759q96 0 165 -69q68 -68 68 -164v-245h-478v-406q0 -23 23 -23h19q24 0 24 23v341h412v-246q0 -95 -68 -164q-68 -67 -165 -67h-759v50q-63 -50 -146 -50h-100q-97 0 -164 67q-69 69 -69 164zM193 118 q50 -29 113 -29h101q83 0 146 50v-50h759q97 0 164 68q69 68 69 164v156h90v-246q0 -96 -69 -164q-68 -68 -164 -68h-760v50q-62 -50 -145 -50h-101q-96 0 -164 68q-24 24 -39 51zM443 282q0 -23 23 -23h19q24 0 24 23v747q0 23 -24 23h-19q-23 0 -23 -23v-747zM1023 753h66 v276q0 23 -24 23h-19q-23 0 -23 -23v-276zM1516 990q27 -15 50 -39q69 -68 69 -164v-245h-90v334q0 64 -29 114z" />
<glyph unicode="&#xe7;" d="M30 378v556q0 97 69 165q68 68 164 68h426q96 0 164 -68q69 -68 69 -165v-245h-413v341q0 23 -23 23h-20q-23 0 -23 -23v-747q0 -24 23 -24h20q23 0 23 24v341h413v-246q0 -96 -69 -164q-67 -68 -164 -68h-426q-97 0 -164 68q-69 68 -69 164zM193 118q15 -27 39 -50 q68 -68 164 -68h427q96 0 164 68t68 164v246h-89v-157q0 -95 -69 -164q-68 -67 -164 -67h-426q-64 0 -114 28zM353 -420l11 118q31 -3 46 -3q18 0 38 3q55 13 55 76q0 43 -41 58q-20 8 -56 8l52 160h148l-27 -89q52 -8 101 -43q52 -44 52 -96v-9q-13 -135 -145 -177 q-56 -17 -123 -17q-53 0 -111 11zM487 -567l7 79h14q67 0 123 18q131 41 144 177v8q0 16 -5 32q22 -10 43 -25q52 -44 52 -97v-8q-13 -135 -145 -177q-56 -18 -122 -18q-54 0 -111 11zM936 991q27 -15 51 -39q68 -68 68 -164v-245h-89v334q0 64 -30 114z" />
<glyph unicode="&#xe8;" d="M30 378v556q0 97 69 165q68 68 164 68h238l-48 55h191l-81 185h50l106 -242q77 -9 134 -66q69 -68 69 -165v-245h-479v-406q0 -24 23 -24h20q23 0 23 24v341h413v-246q0 -96 -69 -164q-67 -68 -164 -68h-426q-97 0 -164 68q-69 68 -69 164zM160 1554h319l122 -275h-204z M193 118q15 -27 39 -50q68 -68 164 -68h427q96 0 164 68t68 164v246h-89v-157q0 -95 -69 -164q-68 -67 -164 -67h-426q-64 0 -114 28zM443 791h66v239q0 23 -23 23h-20q-23 0 -23 -23v-239zM936 991q27 -15 51 -39q68 -68 68 -164v-245h-89v334q0 64 -30 114z" />
<glyph unicode="&#xe9;" d="M30 378v556q0 97 69 165q68 68 164 68h238l24 55h73l160 185h168l-209 -242q78 -8 136 -66q69 -68 69 -165v-245h-479v-406q0 -24 23 -24h20q23 0 23 24v341h413v-246q0 -96 -69 -164q-67 -68 -164 -68h-426q-97 0 -164 68q-69 68 -69 164zM193 118q15 -27 39 -50 q68 -68 164 -68h427q96 0 164 68t68 164v246h-89v-157q0 -95 -69 -164q-68 -67 -164 -67h-426q-64 0 -114 28zM351 1279l122 275h319l-237 -275h-204zM443 791h66v239q0 23 -23 23h-20q-23 0 -23 -23v-239zM936 991q27 -15 51 -39q68 -68 68 -164v-245h-89v334q0 64 -30 114 z" />
<glyph unicode="&#xea;" d="M30 378v556q0 97 69 165q68 68 164 68h61l44 58h66l89 96l84 -96l-53 -58h115l-51 58h212l-45 56h-222l-84 96l-89 -96h-225l212 275h189l118 -147h15l221 -274h-112q24 -15 45 -36q69 -68 69 -165v-245h-479v-406q0 -24 23 -24h20q23 0 23 24v341h413v-246 q0 -96 -69 -164q-67 -68 -164 -68h-426q-97 0 -164 68q-69 68 -69 164zM193 118q15 -27 39 -50q68 -68 164 -68h427q96 0 164 68t68 164v246h-89v-157q0 -95 -69 -164q-68 -67 -164 -67h-426q-64 0 -114 28zM443 791h66v239q0 23 -23 23h-20q-23 0 -23 -23v-239zM936 991 q27 -15 51 -39q68 -68 68 -164v-245h-89v334q0 64 -30 114z" />
<glyph unicode="&#xeb;" d="M30 378v556q0 97 69 165q68 68 164 68h58q-8 5 -16 12q-32 27 -42 61q29 -11 63 -11q66 0 113 40q46 39 46 95q0 17 -5 33q21 -7 39 -21q-8 21 -8 44q0 57 46 96q47 39 112 39q66 0 112 -39t46 -96q0 -55 -46 -95q-46 -39 -112 -39q-62 0 -107 35q4 -9 9 -18q4 -14 4 -29 q0 -56 -47 -95q-8 -7 -16 -12h177q9 0 18 -1q-8 6 -16 13q-32 27 -42 61q29 -11 63 -11q66 0 113 40q46 39 46 95q0 17 -5 34q27 -10 48 -28q47 -39 47 -96q0 -56 -47 -95q-46 -40 -112 -40h-1q28 -16 52 -40q69 -68 69 -165v-245h-479v-406q0 -24 23 -24h20q23 0 23 24v341 h413v-246q0 -96 -69 -164q-67 -68 -164 -68h-426q-97 0 -164 68q-69 68 -69 164zM125 1420q0 56 46 95q47 40 112 40q66 0 112 -40q46 -39 46 -95q0 -55 -46 -95q-46 -39 -112 -39q-65 0 -112 39q-46 40 -46 95zM193 118q15 -27 39 -50q68 -68 164 -68h427q96 0 164 68 t68 164v246h-89v-157q0 -95 -69 -164q-68 -67 -164 -67h-426q-64 0 -114 28zM443 791h66v239q0 23 -23 23h-20q-23 0 -23 -23v-239zM936 991q27 -15 51 -39q68 -68 68 -164v-245h-89v334q0 64 -30 114z" />
<glyph unicode="&#xec;" horiz-adv-x="616" d="M-70 1554h319l122 -275h-204zM39 146v1021h232l-48 55h192l-82 185h50l121 -275h-51v-986h-414zM173 0h413v1021h-90v-931h-323v-90z" />
<glyph unicode="&#xed;" horiz-adv-x="607" d="M30 146v1021h231l24 55h74l160 185h167l-237 -275h-6v-986h-413zM112 1279l122 275h319l-238 -275h-203zM164 0h413v1021h-90v-931h-323v-90z" />
<glyph unicode="&#xee;" horiz-adv-x="635" d="M-60 1281l212 275h189l118 -147h15l221 -274h-223l-15 17v-1006h-413v1021h55l44 58h66l89 96l84 -96l-53 -58h115l-51 58h212l-45 56h-222l-84 96l-89 -96h-225zM178 0h413v1021h-90v-931h-323v-90z" />
<glyph unicode="&#xef;" horiz-adv-x="636" d="M-100 1420q0 56 46 95q47 40 112 40q66 0 112 -40q46 -39 46 -95q0 -55 -46 -95q-46 -39 -112 -39q-65 0 -112 39q-46 40 -46 95zM38 1240q29 -11 63 -11q66 0 113 40q46 39 46 95q0 17 -5 33q22 -7 40 -21q-9 21 -9 44q0 57 46 96q47 39 112 39q66 0 112 -39t46 -96 q0 -55 -46 -95q-46 -39 -112 -39q-61 0 -106 35q3 -9 8 -18q4 -14 4 -29q0 -56 -47 -95q-8 -7 -16 -12h171v-1021h-413v1021h51q-8 5 -16 12q-32 27 -42 61zM179 0h413v1021h-90v-931h-323v-90zM424 1240q29 -11 63 -11q66 0 113 40q46 39 46 95q0 17 -5 34q27 -10 48 -28 q47 -39 47 -96q0 -56 -47 -95q-46 -40 -112 -40q-65 0 -111 40q-32 27 -42 61z" />
<glyph unicode="&#xf0;" d="M30 380v556q0 96 69 164q67 68 164 68h261q-22 88 -129 164l-89 -91l-46 46l81 82q-51 31 -134 75l114 113q85 -2 170 -34l92 93l46 -45l-70 -72q149 -58 246 -131q116 -88 116 -169v-850h-2q-11 -85 -77 -143t-153 -58h-426q-97 0 -164 68q-69 68 -69 164zM193 120 q50 -29 113 -29h426q88 0 154 59q65 57 77 142h2v850q0 39 -27 80l1 -1q116 -87 116 -169v-849h-2q-12 -86 -77 -143q-67 -59 -154 -59h-426q-96 0 -164 69q-24 23 -39 50zM443 285q0 -24 23 -24h19q24 0 24 24v747q0 23 -24 23h-19q-23 0 -23 -23v-747z" />
<glyph unicode="&#xf1;" d="M30 146v1021h229q1 35 7 65h135q5 54 35 66q10 4 21 4q19 0 49 -10l159 -56q124 0 170 82q20 33 28 91h97q-3 -126 -35 -181q-41 -72 -141 -81q38 -17 69 -48q69 -68 69 -165v-788h-414v884q0 23 -23 23h-19q-23 0 -23 -23l-1 -884h-412zM125 1289v6q0 256 213 256 q10 0 188 -48q30 -8 52 -8q12 0 20 2q24 9 24 43q0 7 -1 15h206q-3 -125 -35 -181q-47 -82 -171 -82q0 1 -159 56q-29 10 -49 10q-11 0 -20 -3q-30 -13 -36 -66h-232zM164 0v90h412v-90h-412zM442 1132q9 5 17 10h-17v-10zM493 1156q34 11 71 11h132q-38 13 -100 35 q-30 10 -49 10q-11 0 -21 -4q-26 -10 -33 -52zM642 0h413v788q0 96 -68 164q-24 24 -51 39q30 -50 30 -114v-787h-324v-90z" />
<glyph unicode="&#xf2;" d="M30 378v556q0 97 69 165q68 68 164 68h238l-48 55h191l-81 185h50l106 -242q77 -9 134 -66q69 -69 69 -165v-556q0 -96 -69 -163q-67 -69 -164 -69h-426q-97 0 -164 68q-69 68 -69 164zM160 1554h319l122 -275h-204zM193 118q15 -27 39 -50q68 -68 164 -68h427 q96 0 164 68t68 164v556q0 95 -68 164q-24 24 -51 40q30 -52 30 -115v-556q0 -95 -69 -163q-68 -68 -164 -68h-426q-64 0 -114 28zM443 283q0 -24 23 -24h20q23 0 23 24v747q0 23 -23 23h-20q-23 0 -23 -23v-747z" />
<glyph unicode="&#xf3;" d="M30 378v556q0 97 69 165q68 68 164 68h238l24 55h73l160 185h168l-209 -242q78 -8 136 -66q69 -69 69 -165v-556q0 -96 -69 -163q-67 -69 -164 -69h-426q-97 0 -164 68q-69 68 -69 164zM193 118q15 -27 39 -50q68 -68 164 -68h427q96 0 164 68t68 164v556q0 95 -68 164 q-24 24 -51 40q30 -52 30 -115v-556q0 -95 -69 -163q-68 -68 -164 -68h-426q-64 0 -114 28zM351 1279l122 275h319l-237 -275h-204zM443 283q0 -24 23 -24h20q23 0 23 24v747q0 23 -23 23h-20q-23 0 -23 -23v-747z" />
<glyph unicode="&#xf4;" d="M30 378v556q0 97 69 165q68 68 164 68h61l44 58h66l89 96l84 -96l-53 -58h115l-51 58h212l-45 56h-222l-84 96l-89 -96h-225l212 275h189l118 -147h15l221 -274h-112q24 -15 45 -36q69 -69 69 -165v-556q0 -96 -69 -163q-67 -69 -164 -69h-426q-97 0 -164 68 q-69 68 -69 164zM193 118q15 -27 39 -50q68 -68 164 -68h427q96 0 164 68t68 164v556q0 95 -68 164q-24 24 -51 40q30 -52 30 -115v-556q0 -95 -69 -163q-68 -68 -164 -68h-426q-64 0 -114 28zM443 283q0 -24 23 -24h20q23 0 23 24v747q0 23 -23 23h-20q-23 0 -23 -23v-747z " />
<glyph unicode="&#xf5;" d="M30 378v556q0 97 69 165q67 67 160 68q1 35 7 65h135q5 54 35 66q10 4 21 4q19 0 49 -10l159 -56q124 0 170 82q20 33 28 91h97q-3 -126 -35 -181q-41 -72 -141 -81q38 -17 69 -48q69 -69 69 -165v-556q0 -96 -69 -163q-67 -69 -164 -69h-426q-97 0 -164 68 q-69 68 -69 164zM125 1289v6q0 256 213 256q10 0 188 -48q30 -8 52 -8q12 0 20 2q24 9 24 43q0 7 -1 15h206q-3 -125 -35 -181q-47 -82 -171 -82q0 1 -159 56q-29 10 -49 10q-11 0 -20 -3q-30 -13 -36 -66h-232zM193 118q15 -27 39 -50q68 -68 164 -68h427q96 0 164 68 t68 164v556q0 95 -68 164q-24 24 -51 40q30 -52 30 -115v-556q0 -95 -69 -163q-68 -68 -164 -68h-426q-64 0 -114 28zM443 283q0 -24 23 -24h20q23 0 23 24v747q0 23 -23 23h-20q-23 0 -23 -23v-747zM495 1167h201q-38 13 -100 35q-30 10 -49 10q-11 0 -21 -4 q-22 -9 -31 -41z" />
<glyph unicode="&#xf6;" d="M30 378v556q0 97 69 165q68 68 164 68h58q-8 5 -16 12q-32 27 -42 61q29 -11 63 -11q66 0 113 40q46 39 46 95q0 17 -5 33q21 -7 39 -21q-8 21 -8 44q0 57 46 96q47 39 112 39q66 0 112 -39t46 -96q0 -55 -46 -95q-46 -39 -112 -39q-62 0 -107 35q4 -9 9 -18q4 -14 4 -29 q0 -56 -47 -95q-8 -7 -16 -12h177q9 0 18 -1q-8 6 -16 13q-32 27 -42 61q29 -11 63 -11q66 0 113 40q46 39 46 95q0 17 -5 34q27 -10 48 -28q47 -39 47 -96q0 -56 -47 -95q-46 -40 -112 -40h-1q28 -16 52 -40q69 -69 69 -165v-556q0 -96 -69 -163q-67 -69 -164 -69h-426 q-97 0 -164 68q-69 68 -69 164zM125 1420q0 56 46 95q47 40 112 40q66 0 112 -40q46 -39 46 -95q0 -55 -46 -95q-46 -39 -112 -39q-65 0 -112 39q-46 40 -46 95zM193 118q15 -27 39 -50q68 -68 164 -68h427q96 0 164 68t68 164v556q0 95 -68 164q-24 24 -51 40 q30 -52 30 -115v-556q0 -95 -69 -163q-68 -68 -164 -68h-426q-64 0 -114 28zM443 283q0 -24 23 -24h20q23 0 23 24v747q0 23 -23 23h-20q-23 0 -23 -23v-747z" />
<glyph unicode="&#xf7;" horiz-adv-x="901" d="M30 697v182h398v1q72 0 125 44q51 44 51 106q0 24 -7 45q24 -11 45 -29q52 -43 52 -106q0 -33 -15 -61h59v-182h-708zM164 551v89h617v93h90v-182h-325q15 -29 15 -62q0 -62 -52 -106t-126 -44q-73 0 -124 44q-52 44 -52 106q0 33 15 62h-58zM207 1087q0 62 52 106 q51 44 124 44q74 0 126 -44t52 -106t-52 -107q-53 -44 -126 -44t-124 44q-52 45 -52 107zM348 298q36 -15 79 -15q73 0 126 44q51 43 51 106q0 23 -7 44q24 -10 45 -28q52 -44 52 -106t-52 -106t-125 -44q-74 0 -125 44q-32 27 -44 61z" />
<glyph unicode="&#xf8;" d="M30 379v556q0 97 69 164q67 69 164 69h272l38 184h90l-38 -184h73l8 37h90l-12 -57q38 -17 69 -49q68 -68 68 -164v-556q0 -95 -68 -163t-164 -68h-279l-42 -205h-90l42 205h-57q-97 0 -164 67q-69 69 -69 164zM411 -204l63 295h258q97 0 165 69q68 67 68 163v555 q0 63 -30 115q28 -16 51 -40q69 -69 69 -164v-556q0 -96 -69 -163q-67 -69 -164 -69h-278l-43 -205h-90zM443 284q0 -23 23 -23h19q24 0 24 23v747q0 23 -24 23h-19q-23 0 -23 -23v-747z" />
<glyph unicode="&#xf9;" d="M30 378v789h413v-884q0 -24 23 -24h19q24 0 24 24v874l-56 65h191l-81 185h50l106 -240h203v-1021h-413v34q-54 -34 -123 -34h-124q-96 0 -164 68t-68 164zM160 1554h319l122 -275h-204zM192 118q16 -27 39 -50q69 -68 165 -68h124q68 0 123 34v-34h412v1021h-89v-931 h-413v34q-54 -34 -123 -34h-124q-63 0 -114 28z" />
<glyph unicode="&#xfa;" d="M30 378v789h413v-884q0 -24 23 -24h19q24 0 24 24v849h-24l40 90h73l160 185h168l-208 -240h204v-1021h-413v34q-54 -34 -123 -34h-124q-96 0 -164 68t-68 164zM192 118q16 -27 39 -50q69 -68 165 -68h124q68 0 123 34v-34h412v1021h-89v-931h-413v34q-54 -34 -123 -34 h-124q-63 0 -114 28zM351 1279l122 275h319l-237 -275h-204z" />
<glyph unicode="&#xfb;" d="M30 378v789h294l44 58h66l89 96l84 -96l-53 -58h115l-51 58h212l-45 56h-222l-84 96l-89 -96h-225l212 275h189l118 -147h15l195 -242h28v-1021h-413v34q-54 -34 -123 -34h-124q-96 0 -164 68t-68 164zM192 118q16 -27 39 -50q69 -68 165 -68h124q68 0 123 34v-34h412 v1021h-89v-931h-413v34q-54 -34 -123 -34h-124q-63 0 -114 28zM443 283q0 -24 23 -24h19q24 0 24 24v852h-66v-852z" />
<glyph unicode="&#xfc;" d="M30 378v789h291q-8 5 -16 12q-32 27 -42 61q29 -11 63 -11q66 0 113 40q46 39 46 95q0 17 -5 33q21 -7 39 -21q-8 21 -8 44q0 57 46 96q47 39 112 39q66 0 112 -39t46 -96q0 -55 -46 -95q-46 -39 -112 -39q-62 0 -107 35q4 -9 9 -18q4 -14 4 -29q0 -56 -47 -95 q-8 -7 -16 -12h195q-8 5 -16 12q-32 27 -42 61q29 -11 63 -11q66 0 113 40q46 39 46 95q0 17 -5 34q27 -10 48 -28q47 -39 47 -96q0 -56 -47 -95q-8 -7 -16 -12h24v-1021h-413v34q-54 -34 -123 -34h-124q-96 0 -164 68t-68 164zM125 1420q0 56 46 95q47 40 112 40 q66 0 112 -40q46 -39 46 -95q0 -55 -46 -95q-46 -39 -112 -39q-65 0 -112 39q-46 40 -46 95zM192 118q16 -27 39 -50q69 -68 165 -68h124q68 0 123 34v-34h412v1021h-89v-931h-413v34q-54 -34 -123 -34h-124q-63 0 -114 28zM443 283q0 -24 23 -24h19q24 0 24 24v882 q-30 -19 -66 -24v-858z" />
<glyph unicode="&#xfd;" horiz-adv-x="1084" d="M30 -10v156h413v-251q0 -25 23 -25h19q23 0 23 25v340h1v38q-54 -34 -123 -34h-124q-96 0 -164 68t-68 165v695h413v-792q0 -23 23 -23h19q23 0 23 23v220h1v537h-25l40 90h74l160 185h167l-207 -240h203v-1177q0 -96 -68 -164q-69 -69 -164 -69h-427q-95 0 -164 69 q-68 68 -68 164zM193 -270q15 -27 38 -51q69 -68 165 -68h427q95 0 164 68q67 68 67 165v1177h-89v-1087q0 -97 -68 -165q-69 -69 -164 -69h-427q-62 0 -113 30zM351 1279l121 275h320l-238 -275h-203z" />
<glyph unicode="&#xfe;" d="M30 -245v1798h413v-423q21 13 44 21v255h90v-242h113q95 0 164 -69q68 -67 68 -164v-556q0 -95 -68 -164q-68 -67 -164 -67h-125q-68 0 -122 34v-423h-413zM164 -302h323v423q54 -34 122 -34h125q95 0 164 68q67 68 67 164v555q0 64 -29 114q28 -15 51 -39 q68 -68 68 -164v-556q0 -96 -68 -164t-164 -68h-124q-69 0 -122 34v-423h-413v90zM444 280q0 -23 23 -23h19q23 0 23 23v747q0 23 -23 23h-19q-23 0 -23 -23v-747z" />
<glyph unicode="&#xff;" horiz-adv-x="1084" d="M30 -10v156h413v-251q0 -25 23 -25h19q23 0 23 25v340h1v38q-54 -34 -123 -34h-124q-96 0 -164 68t-68 165v695h290q-8 5 -16 12q-32 27 -42 61q29 -11 63 -11q66 0 113 40q46 39 46 95q0 17 -5 33q22 -7 39 -21q-8 21 -8 44q0 57 46 96q47 39 112 39q66 0 112 -39 t46 -96q0 -55 -46 -95q-46 -39 -112 -39q-61 0 -106 35q3 -9 8 -18q4 -14 4 -29q0 -56 -47 -95q-8 -7 -16 -12h195q-8 5 -16 12q-32 27 -42 61q29 -11 63 -11q66 0 113 40q46 39 46 95q0 17 -5 34q27 -10 48 -28q47 -39 47 -96q0 -56 -47 -95q-8 -7 -16 -12h24v-1177 q0 -96 -68 -164q-69 -69 -164 -69h-427q-95 0 -164 69q-68 68 -68 164zM124 1420q0 56 46 95q47 40 112 40q66 0 112 -40q46 -39 46 -95q0 -55 -46 -95q-46 -39 -112 -39q-65 0 -112 39q-46 40 -46 95zM193 -270q15 -27 38 -51q69 -68 165 -68h427q95 0 164 68q67 68 67 165 v1177h-89v-1087q0 -97 -68 -165q-69 -69 -164 -69h-427q-62 0 -113 30zM443 375q0 -23 23 -23h19q23 0 23 23v220h1v570q-29 -19 -66 -24v-766z" />
<glyph unicode="&#x2c6;" horiz-adv-x="815" d="M30 1281l212 275h189l118 -147h15l221 -274h-223l-79 90h212l-45 56h-222l-84 96l-89 -96h-225zM164 1135l69 90h66l89 96l84 -96l-83 -90h-225z" />
<glyph unicode="&#x2dc;" horiz-adv-x="895" d="M30 1289v6q0 256 212 256q11 0 189 -48q30 -8 52 -8q11 0 20 2q23 9 23 43v15h205q-2 -125 -35 -181q-46 -82 -170 -82q0 1 -159 56q-30 10 -49 10q-11 0 -21 -3q-30 -13 -35 -66h-232zM164 1142v7q0 46 6 83h136q5 54 35 66q10 4 21 4q19 0 49 -10l158 -56q124 0 171 82 q19 33 28 91h97q-3 -126 -35 -181q-47 -82 -171 -82q0 1 -159 56q-29 10 -49 10q-11 0 -20 -4q-30 -12 -35 -66h-232z" />
<glyph unicode="&#x2000;" horiz-adv-x="983" />
<glyph unicode="&#x2001;" horiz-adv-x="1966" />
<glyph unicode="&#x2002;" horiz-adv-x="983" />
<glyph unicode="&#x2003;" horiz-adv-x="1966" />
<glyph unicode="&#x2004;" horiz-adv-x="655" />
<glyph unicode="&#x2005;" horiz-adv-x="491" />
<glyph unicode="&#x2006;" horiz-adv-x="327" />
<glyph unicode="&#x2007;" horiz-adv-x="327" />
<glyph unicode="&#x2008;" horiz-adv-x="245" />
<glyph unicode="&#x2009;" horiz-adv-x="393" />
<glyph unicode="&#x200a;" horiz-adv-x="109" />
<glyph unicode="&#x2010;" horiz-adv-x="1002" d="M30 635v305h809v-305h-809zM164 488h808v306h-90v-216h-718v-90z" />
<glyph unicode="&#x2011;" horiz-adv-x="1002" d="M30 635v305h809v-305h-809zM164 488h808v306h-90v-216h-718v-90z" />
<glyph unicode="&#x2012;" horiz-adv-x="1002" d="M30 635v305h809v-305h-809zM164 488h808v306h-90v-216h-718v-90z" />
<glyph unicode="&#x2013;" horiz-adv-x="1084" d="M30 635v305h879v-305h-879zM176 488h878v306h-98v-216h-780v-90z" />
<glyph unicode="&#x2014;" horiz-adv-x="2108" d="M30 635v305h1759v-305h-1759zM321 488h1757v306h-196v-216h-1561v-90z" />
<glyph unicode="&#x202f;" horiz-adv-x="393" />
<glyph unicode="&#x205f;" horiz-adv-x="491" />
<glyph unicode="&#x20ac;" horiz-adv-x="1295" d="M30 696v70h84v70h-84v71h84v398q0 103 74 177q73 74 177 74h509q104 0 178 -74q73 -74 73 -177v-223h-470v326q0 25 -25 25h-21q-25 0 -25 -25v-501h274v-71h-274v-70h274v-70h-274v-512q0 -25 25 -25h21q25 0 25 25v326h470v-223q0 -103 -73 -177q-74 -73 -178 -73h-509 q-104 0 -177 73q-74 74 -74 177v409h-84zM284 27q54 -30 121 -30h509q104 0 178 73q73 74 73 177v123h100v-223q0 -103 -73 -177q-74 -73 -178 -73h-509q-104 0 -177 73q-27 27 -44 57zM795 942v100h370v223q0 66 -30 121q30 -17 57 -44q73 -74 73 -177v-223h-470z" />
<glyph unicode="&#x2122;" horiz-adv-x="1040" d="M30 1379v55h396v-55h-100v-509h-196v509h-100zM190 811h196v510h100v54h-40v-19h-100v-509h-156v-36zM486 870v564h196l36 -326l36 326h196v-564h-196v224l-21 -164v-119h-187v36h157v83l-21 164v-224h-196zM814 811h196v564h-40v-528h-156v-36z" />
<glyph unicode="&#x25fc;" horiz-adv-x="1165" d="M0 0v1165h1165v-1165h-1165z" />
</font>
</defs>
</svg>
