<?xml version="1.0" standalone="no"?>
<!DOCTYPE svg PUBLIC "-//W3C//DTD SVG 1.1//EN" "http://www.w3.org/Graphics/SVG/1.1/DTD/svg11.dtd" >
<svg xmlns="http://www.w3.org/2000/svg" xmlns:xlink="http://www.w3.org/1999/xlink" version="1.1">
<metadata>
Created by FontForge 20170731 at Fri Nov 26 20:15:31 2004
 By Aleksey,,,
4.1 (c) 1986-92 by Richard A. Ware. All Rights Reserved.
</metadata>
<defs>
<font id="MicroFLF-Bold" horiz-adv-x="417" >
  <font-face 
    font-family="MicroFLF"
    font-weight="700"
    font-stretch="normal"
    units-per-em="1000"
    panose-1="2 0 8 3 2 0 0 2 0 4"
    ascent="800"
    descent="-200"
    x-height="494"
    cap-height="694"
    bbox="-42 -220 1365 910"
    underline-thickness="50"
    underline-position="-200"
    unicode-range="U+0005-E010"
  />
<missing-glyph horiz-adv-x="500" 
 />
    <glyph glyph-name=".notdef" horiz-adv-x="500" 
 />
    <glyph glyph-name=".null" horiz-adv-x="0" 
 />
    <glyph glyph-name="nonmarkingreturn" unicode="&#xe002;" horiz-adv-x="0" 
 />
    <glyph glyph-name="breve" horiz-adv-x="387" 
d="M193 574q51 0 85 12t63 34l-28 33q-23 -18 -54 -27t-66 -9t-65.5 9t-54.5 27l-27 -33q26 -21 61 -33.5t86 -12.5z" />
    <glyph glyph-name="dotaccent" horiz-adv-x="276" 
d="M39 722v-167h195v167h-195z" />
    <glyph glyph-name="ring" horiz-adv-x="276" 
d="M36 625q0 -37 19 -53.5t58 -16.5h57q73 0 73 70v23q0 34 -18 52.5t-56 18.5h-57q-43 0 -59.5 -18t-16.5 -53v-23zM169 584h-57q-20 0 -32 9t-12 32v23q0 23 10.5 32t33.5 9h57q20 0 31 -9t11 -32v-23q0 -23 -11.5 -32t-30.5 -9z" />
    <glyph glyph-name="hungarumlaut" unicode="&#xa;" horiz-adv-x="456" 
d="M249 748l-101 35l-64 -219l48 -13zM391 748l-101 35l-63 -219l47 -13z" />
    <glyph glyph-name="ogonek" horiz-adv-x="284" 
d="M165 0h-127v-64q0 -46 9 -72t33 -39t65 -16t105 -3v101q-24 0 -40.5 0.5t-26.5 5t-14 13t-4 25.5v49z" />
    <glyph glyph-name="caron" horiz-adv-x="409" 
d="M230 534l147 145h-41l-134 -69l-129 69h-44l147 -145h54z" />
    <glyph glyph-name="dotlessi" unicode="&#xd;" horiz-adv-x="271" 
d="M217 494h-166v-494h166v494z" />
    <glyph glyph-name="fraction" horiz-adv-x="618" 
d="M119 -89l502 817h-111l-502 -817h111z" />
    <glyph glyph-name="fi" horiz-adv-x="658" 
d="M370 494h-112v14q0 29 20 37.5t63 8.5h256v140h-297q-103 0 -155.5 -38.5t-52.5 -128.5v-33h-61v-135h61v-359h166v359h112v135zM597 494h-168v-494h168v494z" />
    <glyph glyph-name="fl" horiz-adv-x="658" 
d="M427 0h170v694h-302q-107 0 -155 -40.5t-48 -126.5v-33h-61v-135h61v-359h166v359h119v135h-119v15q0 26 15 36.5t39 10.5h115v-556z" />
    <glyph glyph-name="Lslash" horiz-adv-x="529" 
d="M227 320l74 73v160l-74 -73v214h-167v-345l-43 -43v-160l43 43v-189h426v139h-259v181z" />
    <glyph glyph-name="lslash" horiz-adv-x="293" 
d="M232 278l47 47v160l-47 -47v256h-166v-404l-49 -49v-160l49 49v-130h166v278z" />
    <glyph glyph-name="Zcaron" horiz-adv-x="640" 
d="M593 694h-544v-138h353l-366 -415v-141h557v139h-356l356 401v154zM345 748l117 116h-33l-107 -56l-103 56h-35l117 -116h44z" />
    <glyph glyph-name="zcaron" horiz-adv-x="560" 
d="M519 494h-476v-138h238l-242 -223v-133h480v139h-252l252 227v128zM315 534l147 145h-41l-134 -69l-129 69h-44l147 -145h54z" />
    <glyph glyph-name="space" unicode=" " 
 />
    <glyph glyph-name="exclam" unicode="!" horiz-adv-x="333" 
d="M88 694v-444h166v444h-166zM88 167v-167h168v167h-168z" />
    <glyph glyph-name="quotedbl" unicode="&#x22;" horiz-adv-x="356" 
d="M157 708h-111l22 -227h66zM317 708h-111l22 -227h66z" />
    <glyph glyph-name="numbersign" unicode="#" horiz-adv-x="633" 
d="M309 677h-55l-32 -130h-132l-14 -56h131l-31 -124h-131l-14 -56h131l-34 -135h55l34 135h147l-34 -135h56l33 135h131l14 56h-131l31 124h130l14 56h-129l33 130h-56l-33 -130h-147zM262 491h147l-31 -124h-147z" />
    <glyph glyph-name="dollar" unicode="$" horiz-adv-x="733" 
d="M291 556h37v-130h-37q-23 0 -36.5 17t-13.5 48q0 27 13.5 46t36.5 19zM426 140h-22v147h22q40 0 58 -15.5t18 -58.5q0 -23 -4 -37.5t-13 -22.5t-23.5 -10.5t-35.5 -2.5zM291 287h37v-147h-15h-32q-15 0 -27 5t-20 17t-8 36h-173q0 -52 14 -90t45 -62.5t81 -36.5t123 -12
h12v-86h76v86h30q61 0 107 10.5t77 35t46.5 66t15.5 104.5q0 60 -12.5 101t-40.5 66t-73 35.5t-111 10.5h-39v130h28q36 0 49 -12t15 -46h178q0 53 -13 91t-42 62t-74.5 35t-110.5 11h-30v63h-76v-63h-17q-73 0 -122.5 -14t-79.5 -40t-42.5 -62.5t-12.5 -82.5q0 -40 5.5 -78
t29 -67.5t71 -47.5t131.5 -18z" />
    <glyph glyph-name="percent" unicode="%" horiz-adv-x="982" 
d="M446 -33l205 761h-101l-206 -761h102zM193 281h61q42 0 71 7t47 26.5t26.5 54.5t8.5 90v72q0 50 -9 82.5t-29 51.5t-53.5 26.5t-81.5 7.5h-27q-47 0 -79 -7.5t-51.5 -26.5t-28.5 -51.5t-9 -82.5v-72q0 -55 8.5 -90t26.5 -54.5t47.5 -26.5t71.5 -7zM218 606h12
q22 0 36.5 -3t23.5 -13t12.5 -30.5t3.5 -54.5v-37q0 -33 -4 -51.5t-13 -28.5t-23.5 -12.5t-35.5 -2.5h-12q-21 0 -36 2.5t-24.5 12t-13.5 28.5t-4 52v37q0 34 3.5 54.5t12.5 30.5t24 13t38 3zM737 -7h61q42 0 71 7t47 26.5t26.5 54.5t8.5 90v72q0 50 -9 82.5t-29 51.5
t-53.5 26.5t-81.5 7.5h-27q-47 0 -79 -7.5t-51.5 -26.5t-28.5 -51.5t-9 -82.5v-72q0 -55 8.5 -90t26.5 -54.5t47.5 -26.5t71.5 -7zM762 318h12q22 0 36.5 -3t23.5 -13t12.5 -30.5t3.5 -54.5v-37q0 -32 -4 -51t-13 -29t-23.5 -12.5t-35.5 -2.5h-12q-21 0 -36 2.5t-24.5 12.5
t-13.5 29t-4 51v37q0 34 3.5 54.5t12.5 30.5t24 13t38 3z" />
    <glyph glyph-name="ampersand" unicode="&#x26;" horiz-adv-x="827" 
d="M472 0q35 0 59 2.5t40.5 7t28 10t21.5 12.5l88 -86l93 92l-81 81q12 19 23 43t20 55.5t14.5 72t5.5 92.5h-160q-2 -54 -6.5 -85.5t-19.5 -53.5l-197 196l-30 30t-19.5 21t-11 16.5t-3.5 16.5q0 20 15.5 26.5t52.5 6.5h52q53 0 74 -17.5t21 -45.5h167q0 33 -10.5 69
t-38.5 65t-77.5 48t-128.5 19h-52q-54 0 -98.5 -8.5t-76.5 -27t-49.5 -48t-17.5 -70.5q0 -45 13 -66.5t31 -37.5q-38 -10 -68 -26t-51.5 -40t-33 -58t-11.5 -79q0 -60 19 -103.5t52 -72.5t77.5 -43t95.5 -14h178zM217 239q0 38 22 65t74 35l185 -182q-15 -7 -42.5 -12.5
t-71.5 -5.5h-32q-42 0 -68 7.5t-41 21t-20.5 32t-5.5 39.5z" />
    <glyph glyph-name="quotesingle" unicode="'" horiz-adv-x="249" 
d="M183 708h-111l22 -227h67z" />
    <glyph glyph-name="parenleft" unicode="(" horiz-adv-x="329" 
d="M294 -118v140q-56 0 -88.5 26.5t-32.5 82.5v372q0 66 30.5 91.5t90.5 25.5v138q-126 0 -193 -65t-67 -190v-372q0 -130 68 -189.5t192 -59.5z" />
    <glyph glyph-name="parenright" unicode=")" horiz-adv-x="329" 
d="M155 131q0 -56 -32.5 -82.5t-88.5 -26.5v-140q124 0 192 59.5t68 189.5v372q0 125 -67 190t-193 65v-138q60 0 90.5 -25.5t30.5 -91.5v-372z" />
    <glyph glyph-name="asterisk" unicode="*" horiz-adv-x="344" 
d="M276 529l-89 19l85 21q21 5 30 16t9 22q0 14 -10 24.5t-25 10.5q-8 0 -17.5 -4t-18.5 -15l-59 -67l26 86q3 10 3 20q0 20 -10.5 29t-24.5 9t-24.5 -9.5t-10.5 -28.5q0 -10 3 -20l29 -86l-64 64q-11 11 -19.5 15t-16.5 4q-15 0 -24.5 -10.5t-9.5 -24.5q0 -12 9 -22.5
t30 -15.5l89 -18l-88 -24q-22 -6 -31 -16.5t-9 -21.5q0 -14 10.5 -24.5t25.5 -10.5q8 0 17.5 4t18.5 15l61 68l-28 -86q-3 -11 -3 -20q0 -19 10.5 -28.5t23.5 -9.5q14 0 25 9.5t11 28.5q0 9 -3 20l-25 87l62 -65q19 -20 37 -20q15 0 24.5 11t9.5 25q0 13 -9 23.5t-30 15.5z
" />
    <glyph glyph-name="plus" unicode="+" horiz-adv-x="564" 
d="M218 392h-145v-138h145v-144h139v144h144v138h-144v145h-139v-145z" />
    <glyph glyph-name="comma" unicode="," horiz-adv-x="333" 
d="M73 196v-195h44v-31q0 -33 -17.5 -43.5t-55.5 -10.5v-94q69 0 112.5 8t68 26t33.5 48t9 75v217h-194z" />
    <glyph glyph-name="hyphen" unicode="-" horiz-adv-x="538" 
d="M476 394h-408v-138h408v138z" />
    <glyph glyph-name="period" unicode="." horiz-adv-x="329" 
d="M74 167v-167h195v167h-195z" />
    <glyph glyph-name="slash" unicode="/" horiz-adv-x="338" 
d="M119 -89l222 817h-111l-222 -817h111z" />
    <glyph glyph-name="zero" unicode="0" horiz-adv-x="693" 
d="M346 540q36 0 60 -5.5t39 -19.5t21 -38t6 -60v-147q0 -35 -7 -57.5t-22 -35.5t-39 -18.5t-58 -5.5h-9q-34 0 -58 5.5t-39 19t-22 36t-7 55.5v148q0 36 6 59.5t20.5 37.5t38.5 20t61 6h9zM394 0q74 0 121.5 11.5t75 40.5t38 77.5t10.5 123.5v180q0 79 -11.5 129.5t-40 80
t-76 40.5t-119.5 11h-101q-72 0 -119 -11t-75.5 -40.5t-40 -80t-11.5 -129.5v-180q0 -74 11.5 -122.5t39 -77.5t74.5 -41t119 -12h105z" />
    <glyph glyph-name="one" unicode="1" horiz-adv-x="693" 
d="M341 0h167v694h-200l-206 -208l81 -80l158 158v-564z" />
    <glyph glyph-name="two" unicode="2" horiz-adv-x="693" 
d="M513 307q25 10 46 22t36 31.5t23.5 49.5t8.5 76q0 51 -12 90.5t-38.5 66.5t-69.5 41t-105 14h-103q-71 0 -113.5 -20t-65 -55t-29.5 -82.5t-7 -102.5h167q0 35 3 58.5t13 37.5t27.5 19.5t47.5 5.5h37q27 0 43 -6t24.5 -16.5t11 -25.5t2.5 -33t-5 -29t-13.5 -18.5
t-20 -12.5t-24.5 -10l-139 -50q-36 -13 -68.5 -30t-57 -42t-39 -61t-14.5 -87v-138h544v139h-377v21q0 30 22 46.5t60 30.5z" />
    <glyph glyph-name="three" unicode="3" horiz-adv-x="693" 
d="M290 428v-139h102q39 0 62.5 -15.5t23.5 -61.5q0 -25 -6.5 -39.5t-18.5 -22t-29.5 -10t-39.5 -2.5h-66q-47 0 -68.5 11.5t-22.5 46.5h-161q0 -101 56.5 -149.5t177.5 -47.5l101 1q124 1 183 47.5t59 156.5q0 84 -31.5 118t-95.5 40q37 2 61.5 10t39 25t20.5 44t6 67
q0 58 -20.5 94.5t-54.5 56.5t-77.5 27.5t-89.5 7.5h-119q-65 0 -106.5 -17.5t-66 -47t-34 -68t-9.5 -81.5h156q1 46 26.5 61t73.5 15h51q28 0 47.5 -2t32.5 -9t19 -20t6 -35q0 -34 -21 -48t-71 -14h-96z" />
    <glyph glyph-name="four" unicode="4" horiz-adv-x="693" 
d="M579 289v405h-198l-338 -370v-174h369v-150h167v150h94v139h-94zM412 540v-251h-226z" />
    <glyph glyph-name="five" unicode="5" horiz-adv-x="693" 
d="M384 -1q124 0 177 59t53 179q0 65 -13.5 111t-43.5 75.5t-78.5 43t-118.5 13.5q-35 0 -58 -3.5t-43 -10.5v98h338v130h-505v-385h166q5 16 27 23t58 7q32 0 52.5 -6t32 -18.5t16 -32t4.5 -47.5q0 -52 -19 -74.5t-68 -22.5h-32q-46 0 -63.5 14.5t-18.5 43.5h-167
q0 -50 10 -87t35.5 -61.5t70.5 -36.5t115 -12h73z" />
    <glyph glyph-name="six" unicode="6" horiz-adv-x="693" 
d="M418 452h-59q-31 0 -52.5 -4.5t-35.5 -12t-23.5 -16t-16.5 -15.5v72q0 32 6 52t19.5 30.5t36 14t55.5 3.5h12q26 0 48 -1.5t38 -8.5t25.5 -21.5t9.5 -40.5h157q0 101 -62 149t-189 48h-66q-72 0 -121 -13.5t-79 -44t-43.5 -79.5t-13.5 -119v-199q0 -71 15.5 -118
t47.5 -76t80 -41t114 -12h66q78 0 128 13t78.5 42t39.5 75t11 111q0 64 -13 105t-40.5 65t-70.5 33t-102 9zM323 142q-28 0 -45.5 5t-28 15t-15 25t-4.5 35q-2 50 16 72.5t74 22.5h67q29 0 47 -5.5t28.5 -16.5t14.5 -29.5t4 -43.5q0 -40 -19.5 -60t-74.5 -20h-64z" />
    <glyph glyph-name="seven" unicode="7" horiz-adv-x="693" 
d="M630 694h-566v-138h378l-269 -556h186l271 561v133z" />
    <glyph glyph-name="eight" unicode="8" horiz-adv-x="693" 
d="M237 208q0 46 20.5 65.5t74.5 19.5h29q51 0 73.5 -19.5t22.5 -65.5q0 -50 -22.5 -69.5t-73.5 -19.5h-29q-53 0 -74 19.5t-21 69.5zM237 497q0 48 22 67.5t73 19.5h29q55 0 75.5 -19.5t20.5 -67.5q0 -46 -23.5 -64.5t-72.5 -18.5h-29q-48 0 -71.5 18.5t-23.5 64.5z
M623 511q0 55 -12 91.5t-41.5 58.5t-78 31t-120.5 9h-51q-72 0 -120.5 -9.5t-77.5 -31.5t-41 -58.5t-12 -90.5q0 -48 10 -77t27 -45t39 -22.5t45 -10.5q-29 -4 -51.5 -12t-38 -26t-23.5 -49t-8 -80q0 -58 12 -95t41 -58t77.5 -29t120.5 -8h51q72 0 120.5 8t78 29t41.5 58
t12 95q0 50 -6 81t-19.5 49t-35.5 26t-55 11q24 4 45 11t36.5 23t25 44.5t9.5 76.5z" />
    <glyph glyph-name="nine" unicode="9" horiz-adv-x="693" 
d="M284 248h59q31 0 52.5 4.5t35.5 12t23.5 15.5t16.5 16v-72q0 -32 -6 -52t-19.5 -30.5t-36 -14t-55.5 -3.5h-12q-26 0 -48 1.5t-38 8.5t-25.5 21.5t-9.5 40.5h-157q0 -101 62 -149t189 -48h66q72 0 121 13.5t79 44t43.5 79t13.5 119.5v199q0 70 -15.5 117.5t-47.5 76.5
t-80 41t-114 12h-66q-78 0 -128 -13t-78.5 -42t-39.5 -75t-11 -111q0 -64 13 -105t40.5 -65t70.5 -33t102 -9zM379 558q28 0 45.5 -5t28 -15t15 -25t4.5 -35q1 -25 -2.5 -43t-13.5 -29.5t-28 -17t-46 -5.5h-67q-29 0 -47 5.5t-28.5 16.5t-14.5 29t-4 44q0 20 4.5 35t15 25
t28.5 15t46 5h64z" />
    <glyph glyph-name="colon" unicode=":" horiz-adv-x="329" 
d="M74 167v-167h195v167h-195zM74 482v-166h195v166h-195z" />
    <glyph glyph-name="semicolon" unicode=";" horiz-adv-x="329" 
d="M74 482v-166h195v166h-195zM73 196v-195h44v-31q0 -33 -17.5 -43.5t-55.5 -10.5v-94q69 0 112.5 8t68 26t33.5 48t9 75v217h-194z" />
    <glyph glyph-name="less" unicode="&#x3c;" horiz-adv-x="367" 
d="M31 393v-99l286 -190v134l-169 108l169 107v134z" />
    <glyph glyph-name="equal" unicode="=" horiz-adv-x="538" 
d="M476 279h-408v-111h408v111zM476 479h-408v-111h408v111z" />
    <glyph glyph-name="greater" unicode="&#x3e;" horiz-adv-x="367" 
d="M48 104l285 190v99l-285 194v-134l169 -107l-169 -108v-134z" />
    <glyph glyph-name="question" unicode="?" horiz-adv-x="693" 
d="M401 258q0 19 7.5 32.5t34.5 18.5q43 8 79.5 18.5t63 30.5t41 54.5t14.5 90.5q0 57 -12.5 95.5t-42.5 61t-79.5 32t-122.5 9.5h-84q-78 0 -127 -14t-76.5 -41t-37.5 -68t-10 -95h167q0 45 23 62t77 17h55q60 0 81.5 -13.5t21.5 -45.5q0 -19 -4 -29.5t-14 -17.5t-27 -11
t-42 -9q-81 -17 -116 -53t-35 -99v-64h165v38zM234 167v-167h167v167h-167z" />
    <glyph glyph-name="at" unicode="@" horiz-adv-x="649" 
d="M223 415q0 19 6.5 37.5t19 33t31 23.5t43.5 9q21 0 36.5 -7.5t26 -20t15.5 -29t5 -33.5q0 -19 -6 -37t-18.5 -32.5t-31 -23t-43.5 -8.5q-42 0 -63 27t-21 61zM90 433q0 44 16 86t46.5 75t74.5 53t100 20q68 0 114 -23t74.5 -57t40.5 -73.5t12 -72.5q0 -49 -16.5 -82
t-54.5 -33q-23 0 -32.5 10t-9.5 31v7q0 4 1 9l21 174h-45l-3 -48q-7 11 -16 20.5t-22 17t-30.5 12t-41.5 4.5q-35 0 -62.5 -13.5t-46 -35t-28.5 -48.5t-10 -54q0 -25 8 -48.5t24 -42t39.5 -29.5t54.5 -11q51 0 74.5 13.5t41.5 37.5q3 -9 7.5 -18t13 -16.5t22 -12t35.5 -4.5
q35 0 58.5 13t37 34.5t19 49.5t5.5 58q0 52 -18.5 101.5t-55 88t-89.5 62t-122 23.5q-70 0 -123.5 -24t-90 -63.5t-55 -89.5t-18.5 -102q0 -53 17.5 -102.5t53 -88t89 -62t124.5 -23.5q65 0 113 19.5t77 45.5l-31 36q-22 -20 -60.5 -38.5t-95.5 -18.5q-59 0 -103.5 18.5
t-74 50.5t-44.5 74.5t-15 89.5z" />
    <glyph glyph-name="A" unicode="A" horiz-adv-x="714" 
d="M219 694l-208 -694h174l51 167h238l48 -167h174l-208 694h-269zM354 563l86 -281h-172z" />
    <glyph glyph-name="B" unicode="B" horiz-adv-x="642" 
d="M382 694h-341v-694h380q52 0 88 10t58.5 33.5t32.5 62.5t10 98q0 48 -7 79t-19 49t-29 26t-37 11q14 6 24.5 13.5t17.5 22t10.5 39t3.5 65.5q0 48 -9 83t-31 57.5t-59 33.5t-93 11zM208 433v123h144q30 0 43 -16.5t13 -45.5q0 -31 -13 -46t-43 -15h-144zM208 139v155h168
q30 0 48.5 -17.5t18.5 -59.5q0 -44 -18 -61t-49 -17h-168z" />
    <glyph glyph-name="C" unicode="C" horiz-adv-x="706" 
d="M322 0h76q91 0 147 11t86 38.5t40 74t10 118.5h-173q0 -24 -3 -41t-15.5 -28.5t-36.5 -16.5t-65 -5h-48q-36 0 -59.5 8t-37.5 27t-19.5 50t-5.5 78v84q0 47 6 77t20 47t37.5 23.5t58.5 6.5h48q40 0 63.5 -7t36 -19.5t16.5 -29.5t4 -37h173q0 70 -11 117t-40 75
t-81.5 39.5t-134.5 11.5h-112q-72 0 -120.5 -13t-77.5 -45.5t-41.5 -88.5t-12.5 -141v-118q0 -93 13 -151t44.5 -90t83.5 -43.5t131 -11.5z" />
    <glyph glyph-name="D" unicode="D" horiz-adv-x="683" 
d="M373 138h-145v418h142q32 0 55 -6.5t37.5 -26t21 -54.5t6.5 -92v-60q0 -57 -6.5 -92t-20.5 -54.5t-36 -26t-54 -6.5zM384 694h-323v-695h323q83 0 136 13t83.5 47.5t42 94.5t11.5 153v80q0 90 -11.5 149.5t-42 94.5t-83.5 49t-136 14z" />
    <glyph glyph-name="E" unicode="E" horiz-adv-x="579" 
d="M53 694v-694h479v139h-312v150h290v139h-290v128h312v138h-479z" />
    <glyph glyph-name="F" unicode="F" horiz-adv-x="570" 
d="M46 694v-694h166v289h289v139h-289v128h312v138h-478z" />
    <glyph glyph-name="G" unicode="G" horiz-adv-x="724" 
d="M506 480h175q-3 64 -15.5 106.5t-42.5 68t-81.5 36.5t-131.5 11h-108q-74 0 -122.5 -11.5t-77 -43t-40.5 -88t-12 -145.5v-118q0 -93 13 -151t44.5 -90t83.5 -43.5t131 -11.5h76q90 0 145.5 11t86 38.5t41 74t10.5 118.5v176h-295v-135h122v-41q0 -24 -3.5 -41
t-15.5 -28.5t-36 -16.5t-65 -5h-48q-35 0 -58.5 8t-37.5 27t-20 50t-6 78v84q0 47 6.5 77t20.5 47t37.5 23.5t57.5 6.5h48q61 0 87 -20t31 -52z" />
    <glyph glyph-name="H" unicode="H" horiz-adv-x="653" 
d="M53 694v-694h167v289h214v-289h167v694h-167v-266h-214v266h-167z" />
    <glyph glyph-name="I" unicode="I" horiz-adv-x="307" 
d="M73 0h167v694h-167v-694z" />
    <glyph glyph-name="J" unicode="J" horiz-adv-x="576" 
d="M193 263h-166v-64q0 -51 13.5 -88.5t43.5 -62t79 -36.5t121 -12q74 0 122.5 12t77 36.5t39.5 62t11 88.5v495h-166v-480q0 -39 -18.5 -57t-66.5 -18q-47 0 -68.5 17.5t-21.5 59.5v47z" />
    <glyph glyph-name="K" unicode="K" horiz-adv-x="696" 
d="M63 694v-694h167v298h26l215 -298h210l-273 377l248 317h-206l-197 -257h-23v257h-167z" />
    <glyph glyph-name="L" unicode="L" horiz-adv-x="529" 
d="M60 694v-694h426v139h-259v555h-167z" />
    <glyph glyph-name="M" unicode="M" horiz-adv-x="933" 
d="M46 694v-694h166v483l178 -483h156l177 483v-483h167v694h-244l-178 -458l-178 458h-244z" />
    <glyph glyph-name="N" unicode="N" horiz-adv-x="774" 
d="M51 694v-694h167v492l281 -492h225v694h-166v-462l-249 462h-258z" />
    <glyph glyph-name="O" unicode="O" horiz-adv-x="740" 
d="M322 0h95q84 0 137 11.5t83 44t41 90.5t11 150v118q0 87 -13.5 143t-45.5 88t-87 44.5t-137 12.5h-86q-78 0 -130 -12.5t-83 -45t-44 -88.5t-13 -142v-118q0 -93 12.5 -151t43.5 -90t83.5 -43.5t132.5 -11.5zM340 552h57q35 0 58.5 -6.5t38 -22.5t21 -43.5t6.5 -69.5
v-106q0 -43 -6 -72t-20.5 -47t-38 -26t-59.5 -8h-57q-35 0 -58.5 8t-37.5 25.5t-20 46.5t-6 71v110q0 42 6.5 69t20.5 42.5t37.5 22t57.5 6.5z" />
    <glyph glyph-name="P" unicode="P" horiz-adv-x="596" 
d="M320 694h-263v-694h166v206h99q60 0 105.5 10.5t75.5 38.5t45.5 75.5t15.5 122.5q0 70 -15.5 116t-46 74t-76 39.5t-106.5 11.5zM407 450q0 -22 -3.5 -37t-12 -24t-24 -13t-39.5 -4h-96v156h92q50 0 66.5 -18.5t16.5 -59.5z" />
    <glyph glyph-name="Q" unicode="Q" horiz-adv-x="749" 
d="M417 0q75 0 125 9t81 33l76 -48l61 114l-79 51q5 29 6.5 62.5t1.5 74.5v118q0 87 -13.5 143t-45.5 88t-87 44.5t-137 12.5h-86q-78 0 -130 -12.5t-83 -45t-44 -88.5t-13 -142v-118q0 -93 12.5 -151t43.5 -90t83.5 -43.5t132.5 -11.5h95zM521 304v-22q0 -10 -2 -19
l-105 67l-70 -111l100 -64q-10 -2 -21.5 -3t-25.5 -1h-57q-35 0 -58.5 8t-37.5 25.5t-20 46.5t-6 71v110q0 42 6.5 69t20.5 42.5t37.5 22t57.5 6.5h57q35 0 58.5 -6.5t38 -22.5t21 -43.5t6.5 -69.5v-106z" />
    <glyph glyph-name="R" unicode="R" horiz-adv-x="636" 
d="M226 372v157h114q40 0 54.5 -16t14.5 -63q0 -23 -3 -38t-11 -24t-21 -12.5t-34 -3.5h-114zM421 0h167v155q0 34 -10 58t-26 39.5t-37 25t-42 15.5q22 7 40 16.5t31 28.5t19.5 49.5t6.5 79.5q0 66 -11.5 110t-39 70t-74.5 36.5t-117 10.5h-269v-694h167v207h86
q61 0 85 -25.5t24 -75.5v-106z" />
    <glyph glyph-name="S" unicode="S" horiz-adv-x="692" 
d="M46 512v-29q0 -60 11 -96.5t37 -56t69 -27.5t107 -11l132 -6q19 -1 33.5 -4.5t24.5 -11.5t15 -22.5t5 -36.5q0 -45 -18 -58.5t-55 -13.5h-109q-23 0 -38.5 3t-25 11.5t-13.5 23t-4 38.5h-170v-29q0 -57 13 -93t39.5 -56.5t67 -28.5t96.5 -8h175q67 0 109 10t66 33
t33 60.5t9 92.5v36q0 58 -14.5 94.5t-42 56.5t-69 28t-95.5 11l-149 8q-18 1 -31 3t-21.5 8t-12 18t-3.5 32q0 40 16.5 52.5t51.5 12.5h121q41 0 54.5 -15t13.5 -43h178v30q0 85 -50.5 125.5t-164.5 40.5h-170q-112 0 -166.5 -41.5t-54.5 -140.5z" />
    <glyph glyph-name="T" unicode="T" horiz-adv-x="551" 
d="M528 694h-500v-139h166v-555h167v555h167v139z" />
    <glyph glyph-name="U" unicode="U" horiz-adv-x="689" 
d="M213 694h-166v-447q0 -70 14 -117t45 -76t80 -41.5t118 -12.5h96q74 0 122 12.5t76 41.5t39 76t11 117v447h-167v-431q0 -38 -4.5 -62t-18 -38t-38.5 -19t-66 -5h-14q-41 0 -65.5 5t-38.5 19t-18.5 38t-4.5 62v431z" />
    <glyph glyph-name="V" unicode="V" horiz-adv-x="736" 
d="M203 694h-192l226 -694h264l226 694h-190l-167 -538z" />
    <glyph glyph-name="W" unicode="W" horiz-adv-x="1109" 
d="M419 0l137 441l135 -441h200l210 694h-168l-142 -483l-141 483h-189l-142 -487l-142 487h-167l209 -694h200z" />
    <glyph glyph-name="X" unicode="X" horiz-adv-x="756" 
d="M239 694h-189l211 -332l-242 -362h198l166 262l167 -262h196l-240 362l208 332h-186l-145 -236z" />
    <glyph glyph-name="Y" unicode="Y" horiz-adv-x="676" 
d="M193 694h-172l239 -424v-270h167v270l239 424h-173l-150 -277z" />
    <glyph glyph-name="Z" unicode="Z" horiz-adv-x="640" 
d="M593 694h-544v-138h353l-366 -415v-141h557v139h-356l356 401v154z" />
    <glyph glyph-name="bracketleft" unicode="[" horiz-adv-x="289" 
d="M249 706v55h-185v-872l188 -1v55h-76v763h73z" />
    <glyph glyph-name="backslash" unicode="\" horiz-adv-x="338" 
d="M339 -89l-222 817h-111l222 -817h111z" />
    <glyph glyph-name="bracketright" unicode="]" horiz-adv-x="289" 
d="M238 -111v872h-185v-55h74v-763h-77v-55z" />
    <glyph glyph-name="asciicircum" unicode="^" horiz-adv-x="396" 
d="M186 641l-147 -317h32l135 202l133 -202h33l-146 317h-40z" />
    <glyph glyph-name="underscore" unicode="_" horiz-adv-x="389" 
d="M407 -27h-406v-55h406v55z" />
    <glyph glyph-name="grave" unicode="`" horiz-adv-x="302" 
d="M227 553l37 33l-150 171l-76 -74z" />
    <glyph glyph-name="a" unicode="a" horiz-adv-x="579" 
d="M206 317q-86 0 -126.5 -33t-40.5 -105v-42q0 -74 43 -105.5t119 -31.5h72q30 0 49.5 3.5t33 9.5t21.5 13.5t15 16.5v-43h139v321q0 52 -13 87t-40.5 56t-69 30t-98.5 9h-51q-66 0 -107 -10.5t-63.5 -29t-30.5 -45t-8 -58.5h158q4 18 13 25t40 7h51q39 0 59 -16t20 -51
v-53q-4 10 -11 18t-19.5 14t-32 9.5t-49.5 3.5h-73zM201 158q0 48 50 48h82q23 0 35.5 -10.5t12.5 -37.5q0 -29 -12 -38t-36 -9h-81q-27 0 -39 12t-12 35z" />
    <glyph glyph-name="b" unicode="b" horiz-adv-x="693" 
d="M233 64q10 -11 23 -22t30.5 -21t39.5 -16t51 -6h55q60 0 101 12t66.5 36.5t37 61t11.5 84.5v108q0 97 -48 146t-159 49h-64q-32 0 -55.5 -6.5t-40.5 -17t-28.5 -24t-19.5 -27.5v273h-166v-694h166v64zM332 116q-42 0 -67 27t-25 66v75q0 41 25 67.5t67 26.5h55
q50 0 72 -23t22 -71v-75q0 -44 -22.5 -68.5t-73.5 -24.5h-53z" />
    <glyph glyph-name="c" unicode="c" horiz-adv-x="563" 
d="M320 -10q65 0 106 10.5t65 32.5t33 56t9 80h-154q0 -27 -15.5 -44.5t-64.5 -17.5h-28q-45 0 -63.5 16.5t-18.5 57.5v115q0 50 16.5 70.5t62.5 20.5h31q24 0 39 -4t23 -11.5t11.5 -18t5.5 -23.5h155q0 47 -11.5 80t-37.5 54t-68 30.5t-103 9.5h-63q-56 0 -95 -11.5
t-63 -37t-35 -65.5t-11 -98v-107q0 -51 10.5 -88t33.5 -61t61 -35t93 -11h76z" />
    <glyph glyph-name="d" unicode="d" horiz-adv-x="672" 
d="M256 -1h55q28 0 50.5 6t40 16t30.5 21t23 22v-64h166v694h-166v-273q-8 14 -19.5 27.5t-28.5 24t-40.5 17t-55.5 6.5h-64q-111 0 -159 -49t-48 -146v-108q0 -48 11.5 -84.5t37 -61t66.5 -36.5t101 -12zM448 284v-75q0 -39 -25 -66t-67 -27h-53q-51 0 -73.5 24.5
t-22.5 68.5v75q0 48 22 71t72 23h55q42 0 67 -26.5t25 -67.5z" />
    <glyph glyph-name="e" unicode="e" horiz-adv-x="571" 
d="M297 387q48 0 65 -18t16 -56h-189q0 38 16.5 56t61.5 18h30zM259 -10h61q66 0 107 10.5t64.5 30t32 48t8.5 63.5v10h-154q0 -23 -15.5 -34t-53.5 -11h-38q-39 0 -60.5 19.5t-21.5 55.5v37h343v80q0 59 -11 98.5t-36.5 63t-67.5 33.5t-104 10h-62q-57 0 -96 -11.5
t-63.5 -38t-35 -68.5t-10.5 -102v-64q0 -66 10 -110t34 -71t65 -38t104 -11z" />
    <glyph glyph-name="f" unicode="f" horiz-adv-x="404" 
d="M369 494h-110v12q0 28 11 39t43 11h55v138h-71q-57 0 -96.5 -10t-63.5 -30t-34.5 -49t-10.5 -68v-43h-61v-137h61v-357h167v357h110v137z" />
    <glyph glyph-name="g" unicode="g" horiz-adv-x="656" 
d="M230 494q-85 0 -137 -53t-52 -147v-104q0 -89 52.5 -139.5t155.5 -50.5h59q32 0 56.5 7t42 17t27.5 20.5t13 18.5v-63q0 -54 -24.5 -78t-70.5 -24h-58q-34 0 -52.5 13.5t-18.5 40.5h-166q0 -37 12.5 -68.5t39 -54.5t66.5 -36t96 -13h93q71 0 119 16.5t77 47t41 74.5
t12 100v476h-166v-63q-8 11 -19 22t-28 20t-40.5 15t-55.5 6h-74zM356 378q42 0 67 -26.5t25 -67.5v-75q0 -39 -25 -66t-67 -27h-62q-41 0 -64 23.5t-23 69.5v75q0 48 21.5 71t71.5 23h56z" />
    <glyph glyph-name="h" unicode="h" horiz-adv-x="627" 
d="M386 494h-26q-33 0 -56.5 -5t-40.5 -13.5t-28.5 -20t-20.5 -23.5v262h-165v-694h168v272q0 54 21.5 80t77.5 26q57 0 79 -24t22 -81v-273h166v300q0 100 -45 147t-152 47z" />
    <glyph glyph-name="i" unicode="i" horiz-adv-x="271" 
d="M217 494h-166v-494h166v494zM217 694h-166v-133h166v133z" />
    <glyph glyph-name="j" unicode="j" horiz-adv-x="341" 
d="M109 494v-483q0 -31 -7 -48t-19.5 -25t-29.5 -9.5t-36 -1.5v-139q37 0 82.5 2t84.5 16.5t65.5 48t26.5 98.5v541h-167zM277 694h-167v-133h167v133z" />
    <glyph glyph-name="k" unicode="k" horiz-adv-x="629" 
d="M47 694v-694h166v248h29l196 -248h185l-241 294l216 200h-178l-180 -161h-27v361h-166z" />
    <glyph glyph-name="l" unicode="l" horiz-adv-x="293" 
d="M232 694h-166v-694h166v694z" />
    <glyph glyph-name="m" unicode="m" horiz-adv-x="969" 
d="M933 304q0 40 -9.5 75t-34 60.5t-66.5 40t-106 14.5q-67 0 -106 -23.5t-59 -61.5q-9 17 -22.5 32.5t-34 27t-48.5 18.5t-66 7q-44 0 -73.5 -6.5t-49.5 -17t-32 -24t-20 -26.5v74h-165v-494h167v270q0 20 3.5 39.5t14 34.5t30 24.5t50.5 9.5q33 0 53 -8t30.5 -22.5t14 -35
t3.5 -45.5v-267h167v264q0 27 4 48.5t15 36t30 22t49 7.5q32 0 51 -8t28.5 -22t12.5 -33t3 -42v-273h166v304z" />
    <glyph glyph-name="n" unicode="n" horiz-adv-x="629" 
d="M583 291q0 104 -52.5 153.5t-167.5 49.5q-68 0 -101.5 -20.5t-47.5 -51.5v72h-165v-494h168v271q0 54 23 80.5t78 26.5q57 0 78 -27t21 -82v-269h166v291z" />
    <glyph glyph-name="o" unicode="o" horiz-adv-x="578" 
d="M297 387q49 0 68 -25t19 -87v-58q0 -61 -18.5 -85.5t-66.5 -24.5h-26q-47 0 -65.5 24.5t-18.5 84.5v59q0 62 19 87t67 25h22zM531 203v80q0 54 -10 95.5t-35 69t-67.5 42t-107.5 14.5h-52q-65 0 -106.5 -14.5t-66.5 -42.5t-34.5 -69.5t-9.5 -94.5v-80q0 -52 10 -91.5
t35.5 -66t68 -40t107.5 -13.5h56q61 0 102 13.5t65.5 39.5t34.5 65.5t10 92.5z" />
    <glyph glyph-name="p" unicode="p" horiz-adv-x="666" 
d="M413 497h-55q-29 0 -51 -6t-39.5 -16t-30.5 -21.5t-23 -21.5v62h-166v-692h166v273q8 -14 19.5 -27.5t28.5 -24t40.5 -17t55.5 -6.5h61q109 0 159.5 45t50.5 150v99q0 50 -11.5 88t-37 63.5t-66.5 38.5t-101 13zM221 212v75q0 39 25 66t67 27h46q57 0 80 -25.5t23 -75.5
v-63q0 -51 -22.5 -74.5t-76.5 -23.5h-50q-42 0 -67 26.5t-25 67.5z" />
    <glyph glyph-name="q" unicode="q" horiz-adv-x="679" 
d="M462 432q-10 10 -23 21.5t-30.5 21.5t-40 16t-50.5 6h-55q-60 0 -101 -12t-66.5 -36.5t-37 -61t-11.5 -84.5v-108q0 -105 48 -150t159 -45h64q32 0 55.5 6.5t40.5 17t28.5 24t19.5 27.5v-273h166v692h-166v-62zM363 380q42 0 67 -27t25 -66v-75q0 -41 -25 -67.5
t-67 -26.5h-50q-54 0 -76.5 23.5t-22.5 74.5v63q0 50 23 75.5t80 25.5h46z" />
    <glyph glyph-name="r" unicode="r" horiz-adv-x="553" 
d="M372 293h166q0 39 -5.5 75.5t-24.5 64.5t-56 44.5t-98 16.5q-37 0 -62.5 -6.5t-42 -17t-26.5 -23.5t-16 -26v73h-166v-494h166v286q0 38 19.5 65t63.5 27q26 0 42 -6.5t25 -18t12 -27t3 -33.5z" />
    <glyph glyph-name="s" unicode="s" horiz-adv-x="567" 
d="M47 157v-14q0 -146 200 -146h77q59 0 98.5 9t63.5 27.5t34 47.5t10 69v30q0 41 -17 66t-44.5 38.5t-63.5 18.5t-74 6l-86 3q-33 2 -46 9.5t-13 27.5q0 22 13.5 30t46.5 8h65q32 0 49 -7.5t17 -26.5v-10h150v28q0 64 -48.5 96.5t-158.5 32.5h-69q-108 0 -155.5 -36.5
t-47.5 -112.5v-24q0 -72 44 -101t125 -32l112 -4q50 -2 50 -39q0 -24 -12 -33t-38 -9h-79q-26 0 -44 9t-18 26v13h-141z" />
    <glyph glyph-name="t" unicode="t" horiz-adv-x="569" 
d="M306 114q-35 0 -46.5 16t-11.5 54v172h243v138h-243v95h-166v-95h-61v-138h61v-182q0 -99 51 -143t155 -44h28q60 0 100.5 12.5t66 36.5t36.5 58.5t11 78.5v16h-166q0 -42 -11.5 -58.5t-46.5 -16.5z" />
    <glyph glyph-name="u" unicode="u" horiz-adv-x="633" 
d="M247 -1h21q63 0 98.5 17.5t54.5 47.5v-64h166v494h-168v-275q0 -51 -24 -75t-76 -24t-76 24t-24 76v274h-167v-291q0 -107 46.5 -155.5t148.5 -48.5z" />
    <glyph glyph-name="v" unicode="v" horiz-adv-x="550" 
d="M164 494h-161l161 -494h223l161 494h-161l-111 -350z" />
    <glyph glyph-name="w" unicode="w" horiz-adv-x="944" 
d="M392 0l84 302l83 -302h217l165 494h-159l-111 -343l-111 343h-168l-110 -341l-111 341h-163l168 -494h216z" />
    <glyph glyph-name="x" unicode="x" horiz-adv-x="556" 
d="M204 494h-167l128 -223l-150 -271h167l94 176l95 -176h166l-156 276l123 218h-167l-66 -136z" />
    <glyph glyph-name="y" unicode="y" horiz-adv-x="596" 
d="M181 494h-160l175 -494h37q-12 -24 -29 -36.5t-37 -18.5t-40.5 -6.5t-39.5 -0.5v-149q74 0 123.5 12t84 37.5t58 65.5t44.5 96l189 494h-160l-123 -345z" />
    <glyph glyph-name="z" unicode="z" horiz-adv-x="560" 
d="M519 494h-476v-138h238l-242 -223v-133h480v139h-252l252 227v128z" />
    <glyph glyph-name="braceleft" unicode="{" horiz-adv-x="304" 
d="M285 751q-54 0 -93 -6.5t-64 -23t-37 -45.5t-12 -73v-188q0 -25 -5.5 -42t-14.5 -29t-21 -20.5t-25 -15.5q13 -9 25 -18.5t21 -21.5t14.5 -28t5.5 -39v-185q0 -44 12 -73t37 -45.5t64 -23t93 -6.5v55q-50 0 -72.5 21.5t-22.5 71.5v180q0 42 -14.5 68.5t-45.5 43.5
q32 17 46 40t14 67v185q0 52 22.5 74t72.5 22v55z" />
    <glyph glyph-name="bar" unicode="|" horiz-adv-x="200" 
d="M142 -133v872h-83v-872h83z" />
    <glyph glyph-name="braceright" unicode="}" horiz-adv-x="302" 
d="M231 415v188q0 44 -12 73t-37 45.5t-64 23t-93 6.5v-55q50 0 72.5 -22t22.5 -74v-185q0 -44 14 -67t46 -40q-31 -17 -45.5 -43.5t-14.5 -68.5v-180q0 -50 -22.5 -71.5t-72.5 -21.5v-55q54 0 93 6.5t64 23t37 45.5t12 73v185q0 23 5.5 39t14.5 28t21 21.5t25 18.5
q-13 7 -25 15.5t-21 20.5t-14.5 29t-5.5 42z" />
    <glyph glyph-name="asciitilde" unicode="~" horiz-adv-x="556" 
d="M44 309h94q0 16 14.5 33t49.5 17q24 0 40 -8.5t36 -19.5q18 -11 42 -17.5t63 -6.5q35 0 60 10.5t40.5 28t22.5 41t7 49.5h-89q0 -23 -12 -36t-44 -13q-23 0 -40.5 8t-36.5 18q-18 10 -40.5 17.5t-56.5 7.5t-61.5 -10t-47 -27.5t-30.5 -41t-11 -50.5z" />
    <glyph glyph-name="exclamdown" unicode="&#xa1;" horiz-adv-x="333" 
d="M253 -144v444h-166v-444h166zM253 383v167h-168v-167h168z" />
    <glyph glyph-name="cent" unicode="&#xa2;" horiz-adv-x="602" 
d="M363 194h-7v263h16q24 0 33 -17.5t11 -38.5h161q0 28 -9 59t-32 57t-62.5 42.5t-101.5 16.5h-16v64h-58v-64h-9q-100 0 -152.5 -49t-52.5 -158v-86q0 -106 48 -154.5t151 -48.5h15v-56h58v56h16q61 0 100 15.5t62 40t32 56.5t11 65h-155q-1 -10 -4 -21t-10 -20.5
t-18 -15.5t-27 -6zM284 457h14v-263h-14q-24 0 -37 16t-13 63v99q0 48 12.5 66.5t37.5 18.5z" />
    <glyph glyph-name="sterling" unicode="&#xa3;" horiz-adv-x="644" 
d="M309 556h47q44 0 59.5 -20.5t17.5 -69.5h167q-2 72 -20.5 116.5t-50 69.5t-73 33.5t-89.5 8.5h-65q-104 0 -164 -43t-60 -135q0 -31 6.5 -52t14.5 -38q8 -14 15.5 -27t12.5 -28h-74v-111h85q0 -26 -3.5 -49t-14 -43t-29 -35.5t-48.5 -24.5v-108h547v139h-319
q14 23 19.5 49.5t5.5 71.5h217v111h-224q-4 16 -9.5 27.5t-12.5 22.5q-8 16 -15.5 32.5t-7.5 43.5q0 29 19.5 44t45.5 15z" />
    <glyph glyph-name="yen" unicode="&#xa5;" horiz-adv-x="716" 
d="M216 694h-180l243 -422h-167v-55h164v-48h-164v-56h164v-113h167v113h167v56h-167v48h167v55h-167l237 422h-167l-153 -277z" />
    <glyph glyph-name="brokenbar" unicode="&#xa6;" horiz-adv-x="200" 
d="M142 450v289h-83v-289h83zM142 0v289h-83v-289h83z" />
    <glyph glyph-name="section" unicode="&#xa7;" horiz-adv-x="598" 
d="M448 288v-24q0 -35 -18.5 -56.5t-56.5 -21.5h-146q-75 0 -75 77v20q0 17 3.5 32t11.5 26.5t21.5 18.5t33.5 7h142q45 0 64.5 -18.5t19.5 -60.5zM527 46q0 21 -7 36t-17 25q13 7 25 17t21 26.5t14.5 41t5.5 60.5v44q0 43 -10.5 77t-35 57.5t-63.5 35.5t-96 12h-136
q-40 0 -40 36q0 25 14.5 34.5t38.5 9.5h90q26 0 38 -9t12 -23v-10h146v10q0 30 -9 56.5t-30.5 45.5t-56.5 30t-87 11h-124q-89 0 -129.5 -40t-40.5 -103v-25q0 -29 9 -44.5t22 -26.5q-10 -5 -20 -14t-17.5 -24.5t-12.5 -39.5t-5 -60v-44q0 -93 45 -133.5t131 -40.5h142
q23 0 30 -9.5t7 -30.5q0 -28 -21 -36.5t-56 -8.5h-54q-62 0 -62 38v10h-139v-10q0 -30 10 -57t29 -47.5t47 -32t64 -11.5h170q41 0 70.5 11.5t49 31t29 45.5t9.5 55v24z" />
    <glyph glyph-name="dieresis" unicode="&#xa8;" horiz-adv-x="400" 
d="M170 682h-134v-106h134v106zM370 682h-134v-106h134v106z" />
    <glyph glyph-name="copyright" unicode="&#xa9;" horiz-adv-x="640" 
d="M210 360q0 22 7.5 43.5t22 37.5t37 26t52.5 10q40 0 64.5 -13.5t38.5 -23.5v24q-14 10 -39.5 22.5t-63.5 12.5q-36 0 -62.5 -12.5t-44 -32t-26.5 -44.5t-9 -50q0 -26 9 -49t27 -40t44.5 -27.5t61.5 -10.5q44 0 66.5 11.5t36.5 22.5v26q-17 -14 -40.5 -26.5t-62.5 -12.5
q-59 0 -89 31.5t-30 74.5zM63 364q0 55 20.5 103t56.5 84t84 56.5t103 20.5t103 -20.5t84 -56.5t56.5 -84t20.5 -103t-20.5 -103t-56.5 -84t-84 -56.5t-103 -20.5t-103 20.5t-84 56.5t-56.5 84t-20.5 103zM614 363q0 59 -22.5 111t-61.5 91t-91 61.5t-111 22.5t-111 -22.5
t-91 -61.5t-61.5 -91t-22.5 -111t22.5 -111t61.5 -91t91 -61.5t111 -22.5t111 22.5t91 61.5t61.5 91t22.5 111z" />
    <glyph glyph-name="ordfeminine" unicode="&#xaa;" horiz-adv-x="338" 
d="M300 320h-263v-60h263v60zM120 538q-43 0 -63 -16.5t-20 -52.5v-21q0 -37 21.5 -53t59.5 -16h36q29 0 40.5 6.5t18.5 15.5v-22h70v161q0 52 -27 71.5t-84 19.5h-25q-33 0 -53.5 -5t-32 -14.5t-15.5 -23t-4 -29.5h79q2 9 6.5 12.5t20.5 3.5h25q40 0 40 -33v-27
q-5 10 -16 16.5t-40 6.5h-37zM118 458q0 24 25 24h41q11 0 17.5 -5t6.5 -19t-6 -18.5t-18 -4.5h-41q-25 0 -25 23z" />
    <glyph glyph-name="guillemotleft" unicode="&#xab;" horiz-adv-x="604" 
d="M31 302v-50l251 -201l59 72l-193 156l193 158l-57 74zM271 302v-50l251 -201l59 72l-193 156l193 158l-57 74z" />
    <glyph glyph-name="logicalnot" unicode="&#xac;" 
d="M351 389h-294v-41h294v41zM195 415h75v312h-90l-92 -93l36 -36l71 71v-254zM335 226q0 50 -24.5 68t-89.5 18h-23q-65 0 -89 -18.5t-24 -67.5q0 -22 4.5 -35t12.5 -20t17.5 -10t20.5 -4q-13 -2 -23.5 -5.5t-17.5 -11.5t-10.5 -22t-3.5 -36q0 -26 5.5 -43t18.5 -26.5
t34.5 -13t54.5 -3.5h23q33 0 54.5 3.5t35 13t19 26.5t5.5 43q0 44 -11.5 58t-41.5 17q11 2 20.5 5t17 10t11.5 20t4 34zM161 220q0 22 10 30.5t33 8.5h13q25 0 34 -8.5t9 -30.5q0 -20 -10.5 -28.5t-32.5 -8.5h-13q-22 0 -32.5 8.5t-10.5 28.5zM161 90q0 21 9 29.5t34 8.5h13
q23 0 33 -8.5t10 -29.5q0 -23 -10 -31.5t-33 -8.5h-13q-24 0 -33.5 8.5t-9.5 31.5z" />
    <glyph glyph-name="registered" unicode="&#xae;" horiz-adv-x="400" 
d="M265 609q0 21 -14 35t-37 14h-70v-182h14v84h31l58 -84h18l-59 84h8q23 0 37 12t14 37zM251 609q0 -35 -36 -35h-57v70h57q18 0 27 -10.5t9 -24.5zM357 563q0 33 -12.5 61.5t-34 50t-50 34t-61.5 12.5t-61.5 -12.5t-50 -34t-34 -50t-12.5 -61.5t12.5 -61.5t34 -50t50 -34
t61.5 -12.5t61.5 12.5t50 34t34 50t12.5 61.5zM56 563q0 30 11 56t30.5 45.5t45.5 30.5t56 11t56 -11t45.5 -30.5t30.5 -45.5t11 -56t-11 -56t-30.5 -45.5t-45.5 -30.5t-56 -11t-56 11t-45.5 30.5t-30.5 45.5t-11 56z" />
    <glyph glyph-name="macron" unicode="&#xaf;" horiz-adv-x="453" 
d="M422 634h-388v-54h388v54z" />
    <glyph glyph-name="degree" unicode="&#xb0;" horiz-adv-x="284" 
d="M39 579q0 -37 19 -53.5t58 -16.5h57q73 0 73 70v23q0 34 -18 52.5t-56 18.5h-57q-43 0 -59.5 -18t-16.5 -53v-23zM172 538h-57q-20 0 -32 9t-12 32v23q0 23 10.5 32t33.5 9h57q20 0 31 -9t11 -32v-23q0 -23 -11.5 -32t-30.5 -9z" />
    <glyph glyph-name="plusminus" unicode="&#xb1;" horiz-adv-x="556" 
d="M476 248h-408v-139h408v139zM204 552h-144v-138h144v-144h139v144h145v138h-145v145h-139v-145z" />
    <glyph glyph-name="twosuperior" unicode="&#xb2;" 
d="M280 555q23 9 37 24.5t14 56.5q0 45 -22 70t-79 25h-46q-32 0 -51 -9t-29.5 -25t-13.5 -37t-3 -46h75q0 32 7.5 43t33.5 11h17q24 0 30 -9.5t6 -26.5q0 -16 -8 -21.5t-20 -9.5l-63 -23q-16 -6 -30.5 -13.5t-25.5 -19t-17.5 -27.5t-6.5 -39v-62h244v63h-169v9q0 14 10 21
t27 14z" />
    <glyph glyph-name="threesuperior" unicode="&#xb3;" 
d="M183 609v-63h46q17 0 28 -6.5t11 -27.5q0 -23 -11.5 -28.5t-31.5 -5.5h-29q-21 0 -31 5.5t-10 21.5h-73q0 -46 25.5 -68t80.5 -21h45q56 1 82.5 21.5t26.5 70.5q0 38 -14 53.5t-43 17.5q33 2 45 16t12 50q0 26 -9.5 42.5t-24.5 25.5t-34.5 12.5t-40.5 3.5h-53
q-29 0 -48 -8t-30 -21t-15.5 -31t-4.5 -37h71q0 21 11.5 27.5t33.5 6.5h23q25 0 36 -4.5t11 -24.5q0 -15 -9.5 -21.5t-32.5 -6.5h-43z" />
    <glyph glyph-name="acute" unicode="&#xb4;" horiz-adv-x="307" 
d="M269 683l-77 74l-150 -171l38 -33z" />
    <glyph glyph-name="mu" unicode="&#xb5;" 
d="M351 389h-294v-41h294v41zM269 137q23 9 37 24.5t14 56.5q0 45 -22 70t-79 25h-46q-32 0 -51 -9t-29.5 -25t-13.5 -37t-3 -46h75q0 32 7.5 43t33.5 11h17q24 0 30 -9.5t6 -26.5q0 -16 -8 -21.5t-20 -9.5l-63 -23q-16 -6 -30.5 -13.5t-25.5 -19t-17.5 -27.5t-6.5 -39v-62
h244v63h-169v9q0 14 10 21t27 14zM195 415h75v312h-90l-92 -93l36 -36l71 71v-254z" />
    <glyph glyph-name="paragraph" unicode="&#xb6;" horiz-adv-x="800" 
d="M341 -80h167v774h-228q-52 0 -96.5 -15.5t-77.5 -45.5t-51.5 -75t-18.5 -105q0 -66 20 -113t53.5 -76.5t77.5 -43.5t91 -14h63v-286zM750 694h-168v-774h168v774z" />
    <glyph glyph-name="periodcentered" unicode="&#xb7;" horiz-adv-x="329" 
d="M74 437v-167h195v167h-195z" />
    <glyph glyph-name="periodcentered" unicode="&#x2219;" horiz-adv-x="329" 
d="M74 437v-167h195v167h-195z" />
    <glyph glyph-name="cedilla" unicode="&#xb8;" horiz-adv-x="293" 
d="M258 -64v64h-127v-49q0 -17 -4 -25.5t-14 -13t-26.5 -5t-40.5 -0.5v-101q64 0 105 3t65 16t33 39t9 72z" />
    <glyph glyph-name="onesuperior" unicode="&#xb9;" horiz-adv-x="310" 
d="M160 415h75v312h-90l-92 -93l36 -36l71 71v-254z" />
    <glyph glyph-name="ordmasculine" unicode="&#xba;" horiz-adv-x="360" 
d="M313 320h-263v-60h263v60zM303 481v40q0 55 -23 83.5t-88 28.5h-26q-65 0 -87.5 -29t-22.5 -83v-40q0 -54 23 -80.5t89 -26.5h28q62 0 84.5 27t22.5 80zM185 574q25 0 34.5 -12.5t9.5 -44.5v-29q0 -31 -9.5 -43.5t-33.5 -12.5h-13q-23 0 -33 12.5t-10 42.5v30
q0 32 10 44.5t34 12.5h11z" />
    <glyph glyph-name="guillemotright" unicode="&#xbb;" horiz-adv-x="613" 
d="M28 123l59 -72l251 201v50l-254 209l-56 -74l193 -158zM279 123l59 -72l251 201v50l-253 209l-57 -74l193 -158z" />
    <glyph glyph-name="onequarter" unicode="&#xbc;" 
d="M351 389h-294v-41h294v41zM310 129v182h-89l-152 -166v-79h166v-67h75v67h43v63h-43zM195 415h75v312h-90l-92 -93l36 -36l71 71v-254zM235 242v-113h-101z" />
    <glyph glyph-name="onehalf" unicode="&#xbd;" 
d="M351 389h-294v-41h294v41zM269 137q23 9 37 24.5t14 56.5q0 45 -22 70t-79 25h-46q-32 0 -51 -9t-29.5 -25t-13.5 -37t-3 -46h75q0 32 7.5 43t33.5 11h17q24 0 30 -9.5t6 -26.5q0 -16 -8 -21.5t-20 -9.5l-63 -23q-16 -6 -30.5 -13.5t-25.5 -19t-17.5 -27.5t-6.5 -39v-62
h244v63h-169v9q0 14 10 21t27 14zM195 415h75v312h-90l-92 -93l36 -36l71 71v-254z" />
    <glyph glyph-name="threequarters" unicode="&#xbe;" 
d="M351 389h-294v-41h294v41zM183 609v-63h46q17 0 28 -6.5t11 -27.5q0 -23 -11.5 -28.5t-31.5 -5.5h-29q-21 0 -31 5.5t-10 21.5h-73q0 -46 25.5 -68t80.5 -21h45q56 1 82.5 21.5t26.5 70.5q0 38 -14 53.5t-43 17.5q33 2 45 16t12 50q0 26 -9.5 42.5t-24.5 25.5t-34.5 12.5
t-40.5 3.5h-53q-29 0 -48 -8t-30 -21t-15.5 -31t-4.5 -37h71q0 21 11.5 27.5t33.5 6.5h23q25 0 36 -4.5t11 -24.5q0 -15 -9.5 -21.5t-32.5 -6.5h-43zM310 129v182h-89l-152 -166v-79h166v-67h75v67h43v63h-43zM235 242v-113h-101z" />
    <glyph glyph-name="questiondown" unicode="&#xbf;" horiz-adv-x="680" 
d="M277 286q0 -19 -7.5 -32.5t-34.5 -18.5q-44 -8 -80 -18.5t-62.5 -30.5t-41 -54.5t-14.5 -90.5q0 -57 12.5 -95.5t42.5 -61t79 -32t123 -9.5h84q78 0 127 14t76.5 41t37.5 68t10 95h-167q0 -45 -23 -62t-77 -17h-55q-60 0 -81.5 13.5t-21.5 45.5q0 19 4 29.5t14 17.5
t26.5 11t42.5 9q81 17 116 53t35 99v64h-165v-38zM444 377v167h-167v-167h167z" />
    <glyph glyph-name="Agrave" unicode="&#xc0;" horiz-adv-x="714" 
d="M363 738l28 29l-143 143l-64 -64zM219 694l-208 -694h174l51 167h238l48 -167h174l-208 694h-269zM354 563l86 -281h-172z" />
    <glyph glyph-name="Aacute" unicode="&#xc1;" horiz-adv-x="714" 
d="M503 824l-63 64l-127 -135l28 -30zM219 694l-208 -694h174l51 167h238l48 -167h174l-208 694h-269zM354 563l86 -281h-172z" />
    <glyph glyph-name="Acircumflex" unicode="&#xc2;" horiz-adv-x="714" 
d="M327 858l-126 -127h34l117 61l113 -61h37l-126 127h-49zM219 694l-208 -694h174l51 167h238l48 -167h174l-208 694h-269zM354 563l86 -281h-172z" />
    <glyph glyph-name="Atilde" unicode="&#xc3;" horiz-adv-x="714" 
d="M172 738h68q0 12 10.5 24t36.5 12q17 0 28.5 -5.5t25.5 -14.5q14 -7 31 -11.5t44 -4.5q51 0 73 27t22 65h-65q0 -17 -8.5 -26t-31.5 -9q-17 0 -29.5 5.5t-25.5 13.5q-14 7 -30 12t-41 5q-48 0 -78 -27t-30 -66zM219 694l-208 -694h174l51 167h238l48 -167h174l-208 694
h-269zM354 563l86 -281h-172z" />
    <glyph glyph-name="Adieresis" unicode="&#xc4;" horiz-adv-x="714" 
d="M320 832h-117v-92h117v92zM498 832h-118v-92h118v92zM219 694l-208 -694h174l51 167h238l48 -167h174l-208 694h-269zM354 563l86 -281h-172z" />
    <glyph glyph-name="Aring" unicode="&#xc5;" horiz-adv-x="714" 
d="M257 785q0 -33 17.5 -48t52.5 -15h51q66 0 66 63v21q0 30 -16.5 47t-50.5 17h-51q-38 0 -53.5 -16.5t-15.5 -47.5v-21zM377 748h-51q-18 0 -29 8.5t-11 28.5v21q0 20 10 28.5t30 8.5h51q18 0 28 -8.5t10 -28.5v-21q0 -20 -10.5 -28.5t-27.5 -8.5zM219 694l-208 -694h174
l51 167h238l48 -167h174l-208 694h-269zM354 563l86 -281h-172z" />
    <glyph glyph-name="AE" unicode="&#xc6;" horiz-adv-x="1071" 
d="M182 0l116 167h241v-167h480v139h-313v150h294v139h-294v128h313v138h-535l-484 -694h182zM539 306h-143l143 207v-207z" />
    <glyph glyph-name="Ccedilla" unicode="&#xc7;" horiz-adv-x="706" 
d="M50 296q0 -90 12 -147.5t41.5 -90t78 -45t122.5 -13.5v-49q0 -31 -20.5 -37.5t-65.5 -6.5v-101q60 0 100.5 1.5t65.5 11t35.5 31.5t10.5 62v88q81 2 130.5 14.5t76 40.5t35.5 73.5t9 113.5h-173q0 -24 -3 -41t-15.5 -28.5t-36.5 -16.5t-65 -5h-48q-36 0 -59.5 8t-37.5 27
t-19.5 50t-5.5 78v84q0 47 6 77t20 47t37.5 23.5t58.5 6.5h48q40 0 63.5 -7t36 -19.5t16.5 -29.5t4 -37h173q0 70 -11 117t-40 75t-81.5 39.5t-134.5 11.5h-112q-72 0 -120.5 -13t-77.5 -45.5t-41.5 -88.5t-12.5 -141v-118z" />
    <glyph glyph-name="Egrave" unicode="&#xc8;" horiz-adv-x="579" 
d="M317 733l23 25l-130 130l-59 -60zM53 694v-694h479v139h-312v150h290v139h-290v128h312v138h-479z" />
    <glyph glyph-name="Eacute" unicode="&#xc9;" horiz-adv-x="579" 
d="M443 827l-61 57l-120 -136l30 -26zM53 694v-694h479v139h-312v150h290v139h-290v128h312v138h-479z" />
    <glyph glyph-name="Ecircumflex" unicode="&#xca;" horiz-adv-x="579" 
d="M268 858l-126 -127h34l117 61l113 -61h37l-126 127h-49zM53 694v-694h479v139h-312v150h290v139h-290v128h312v138h-479z" />
    <glyph glyph-name="Edieresis" unicode="&#xcb;" horiz-adv-x="579" 
d="M269 838h-118v-92h118v92zM457 838h-118v-92h118v92zM53 694v-694h479v139h-312v150h290v139h-290v128h312v138h-479z" />
    <glyph glyph-name="Igrave" unicode="&#xcc;" horiz-adv-x="307" 
d="M143 724l24 25l-130 130l-59 -60zM73 0h167v694h-167v-694z" />
    <glyph glyph-name="Iacute" unicode="&#xcd;" horiz-adv-x="307" 
d="M319 812l-59 60l-130 -130l23 -24zM73 0h167v694h-167v-694z" />
    <glyph glyph-name="Icircumflex" unicode="&#xce;" horiz-adv-x="307" 
d="M129 858l-126 -127h33l118 61l112 -61h38l-126 127h-49zM73 0h167v694h-167v-694z" />
    <glyph glyph-name="Idieresis" unicode="&#xcf;" horiz-adv-x="307" 
d="M128 841h-118v-92h118v92zM306 841h-118v-92h118v92zM73 0h167v694h-167v-694z" />
    <glyph glyph-name="Eth" unicode="&#xd0;" horiz-adv-x="683" 
d="M61 409h-43v-138h43v-272h323q83 0 136 13t83.5 47.5t42 94.5t11.5 153v80q0 90 -11.5 149.5t-42 94.5t-83.5 49t-136 14h-323v-285zM228 409v147h142q32 0 55 -6.5t37.5 -26t21 -54.5t6.5 -92v-60q0 -57 -6.5 -92t-20.5 -54.5t-36 -26t-54 -6.5h-145v133h123v138h-123z
" />
    <glyph glyph-name="Ntilde" unicode="&#xd1;" horiz-adv-x="774" 
d="M230 738h68q0 12 10.5 24t36.5 12q17 0 28.5 -5.5t25.5 -14.5q14 -7 31 -11.5t44 -4.5q51 0 73 27t22 65h-65q0 -17 -8.5 -26t-31.5 -9q-17 0 -29.5 5.5t-25.5 13.5q-14 7 -30 12t-41 5q-48 0 -78 -27t-30 -66zM51 694v-694h167v492l281 -492h225v694h-166v-462l-249 462
h-258z" />
    <glyph glyph-name="Ograve" unicode="&#xd2;" horiz-adv-x="740" 
d="M381 727l23 24l-130 130l-58 -60zM322 0h95q84 0 137 11.5t83 44t41 90.5t11 150v118q0 87 -13.5 143t-45.5 88t-87 44.5t-137 12.5h-86q-78 0 -130 -12.5t-83 -45t-44 -88.5t-13 -142v-118q0 -93 12.5 -151t43.5 -90t83.5 -43.5t132.5 -11.5zM340 552h57q35 0 58.5 -6.5
t38 -22.5t21 -43.5t6.5 -69.5v-106q0 -43 -6 -72t-20.5 -47t-38 -26t-59.5 -8h-57q-35 0 -58.5 8t-37.5 25.5t-20 46.5t-6 71v110q0 42 6.5 69t20.5 42.5t37.5 22t57.5 6.5z" />
    <glyph glyph-name="Oacute" unicode="&#xd3;" horiz-adv-x="740" 
d="M522 819l-59 60l-130 -130l24 -25zM322 0h95q84 0 137 11.5t83 44t41 90.5t11 150v118q0 87 -13.5 143t-45.5 88t-87 44.5t-137 12.5h-86q-78 0 -130 -12.5t-83 -45t-44 -88.5t-13 -142v-118q0 -93 12.5 -151t43.5 -90t83.5 -43.5t132.5 -11.5zM340 552h57
q35 0 58.5 -6.5t38 -22.5t21 -43.5t6.5 -69.5v-106q0 -43 -6 -72t-20.5 -47t-38 -26t-59.5 -8h-57q-35 0 -58.5 8t-37.5 25.5t-20 46.5t-6 71v110q0 42 6.5 69t20.5 42.5t37.5 22t57.5 6.5z" />
    <glyph glyph-name="Ocircumflex" unicode="&#xd4;" horiz-adv-x="740" 
d="M348 858l-126 -127h34l117 61l113 -61h37l-126 127h-49zM322 0h95q84 0 137 11.5t83 44t41 90.5t11 150v118q0 87 -13.5 143t-45.5 88t-87 44.5t-137 12.5h-86q-78 0 -130 -12.5t-83 -45t-44 -88.5t-13 -142v-118q0 -93 12.5 -151t43.5 -90t83.5 -43.5t132.5 -11.5z
M340 552h57q35 0 58.5 -6.5t38 -22.5t21 -43.5t6.5 -69.5v-106q0 -43 -6 -72t-20.5 -47t-38 -26t-59.5 -8h-57q-35 0 -58.5 8t-37.5 25.5t-20 46.5t-6 71v110q0 42 6.5 69t20.5 42.5t37.5 22t57.5 6.5z" />
    <glyph glyph-name="Otilde" unicode="&#xd5;" horiz-adv-x="740" 
d="M194 738h68q0 12 10.5 24t36.5 12q17 0 28.5 -5.5t25.5 -14.5q14 -7 31 -11.5t44 -4.5q51 0 73 27t22 65h-65q0 -17 -8.5 -26t-31.5 -9q-17 0 -29.5 5.5t-25.5 13.5q-14 7 -30 12t-41 5q-48 0 -78 -27t-30 -66zM322 0h95q84 0 137 11.5t83 44t41 90.5t11 150v118
q0 87 -13.5 143t-45.5 88t-87 44.5t-137 12.5h-86q-78 0 -130 -12.5t-83 -45t-44 -88.5t-13 -142v-118q0 -93 12.5 -151t43.5 -90t83.5 -43.5t132.5 -11.5zM340 552h57q35 0 58.5 -6.5t38 -22.5t21 -43.5t6.5 -69.5v-106q0 -43 -6 -72t-20.5 -47t-38 -26t-59.5 -8h-57
q-35 0 -58.5 8t-37.5 25.5t-20 46.5t-6 71v110q0 42 6.5 69t20.5 42.5t37.5 22t57.5 6.5z" />
    <glyph glyph-name="Odieresis" unicode="&#xd6;" horiz-adv-x="740" 
d="M341 832h-118v-92h118v92zM519 832h-118v-92h118v92zM322 0h95q84 0 137 11.5t83 44t41 90.5t11 150v118q0 87 -13.5 143t-45.5 88t-87 44.5t-137 12.5h-86q-78 0 -130 -12.5t-83 -45t-44 -88.5t-13 -142v-118q0 -93 12.5 -151t43.5 -90t83.5 -43.5t132.5 -11.5zM340 552
h57q35 0 58.5 -6.5t38 -22.5t21 -43.5t6.5 -69.5v-106q0 -43 -6 -72t-20.5 -47t-38 -26t-59.5 -8h-57q-35 0 -58.5 8t-37.5 25.5t-20 46.5t-6 71v110q0 42 6.5 69t20.5 42.5t37.5 22t57.5 6.5z" />
    <glyph glyph-name="multiply" unicode="&#xd7;" horiz-adv-x="556" 
d="M204 494l-131 -62l92 -161l-116 -209l133 -62l94 176l95 -176l131 62l-121 214l88 156l-132 62l-66 -136z" />
    <glyph glyph-name="Oslash" unicode="&#xd8;" horiz-adv-x="740" 
d="M50 296q0 -74 7.5 -125.5t26 -85.5t49 -52t76.5 -26l-29 -87h83l27 80h32h95q84 0 137 11.5t83 44t41 90.5t11 150v118q0 70 -8 119t-27.5 82t-51 52t-78.5 27l26 78h-83l-24 -71q-10 1 -19 1h-18h-86q-78 0 -130 -12.5t-83 -45t-44 -88.5t-13 -142v-118zM397 151h-56
l131 389q5 14 13 6t16 -29t14 -50t6 -57v-106q0 -43 -6 -72t-20.5 -47t-38 -26t-59.5 -8zM393 552l-130 -385q-25 16 -35 48.5t-10 86.5v110q0 42 6.5 69t20.5 42.5t37.5 22t57.5 6.5h53z" />
    <glyph glyph-name="Ugrave" unicode="&#xd9;" horiz-adv-x="689" 
d="M366 733l23 25l-130 130l-59 -60zM213 694h-166v-447q0 -70 14 -117t45 -76t80 -41.5t118 -12.5h96q74 0 122 12.5t76 41.5t39 76t11 117v447h-167v-431q0 -38 -4.5 -62t-18 -38t-38.5 -19t-66 -5h-14q-41 0 -65.5 5t-38.5 19t-18.5 38t-4.5 62v431z" />
    <glyph glyph-name="Uacute" unicode="&#xda;" horiz-adv-x="689" 
d="M499 828l-59 60l-130 -130l23 -25zM213 694h-166v-447q0 -70 14 -117t45 -76t80 -41.5t118 -12.5h96q74 0 122 12.5t76 41.5t39 76t11 117v447h-167v-431q0 -38 -4.5 -62t-18 -38t-38.5 -19t-66 -5h-14q-41 0 -65.5 5t-38.5 19t-18.5 38t-4.5 62v431z" />
    <glyph glyph-name="Ucircumflex" unicode="&#xdb;" horiz-adv-x="689" 
d="M323 858l-125 -127h33l118 61l112 -61h38l-127 127h-49zM213 694h-166v-447q0 -70 14 -117t45 -76t80 -41.5t118 -12.5h96q74 0 122 12.5t76 41.5t39 76t11 117v447h-167v-431q0 -38 -4.5 -62t-18 -38t-38.5 -19t-66 -5h-14q-41 0 -65.5 5t-38.5 19t-18.5 38t-4.5 62v431
z" />
    <glyph glyph-name="Udieresis" unicode="&#xdc;" horiz-adv-x="689" 
d="M317 846h-118v-93h118v93zM494 846h-117v-93h117v93zM213 694h-166v-447q0 -70 14 -117t45 -76t80 -41.5t118 -12.5h96q74 0 122 12.5t76 41.5t39 76t11 117v447h-167v-431q0 -38 -4.5 -62t-18 -38t-38.5 -19t-66 -5h-14q-41 0 -65.5 5t-38.5 19t-18.5 38t-4.5 62v431z
" />
    <glyph glyph-name="Yacute" unicode="&#xdd;" horiz-adv-x="676" 
d="M193 694h-172l239 -424v-270h167v270l239 424h-173l-150 -277zM503 827l-61 57l-120 -136l30 -26z" />
    <glyph glyph-name="Thorn" unicode="&#xde;" horiz-adv-x="596" 
d="M320 590h-97v103l-166 1v-694h166v102h99q60 0 105.5 10.5t75.5 38.5t45.5 75.5t15.5 122.5q0 70 -15.5 116t-46 74t-76 39.5t-106.5 11.5zM407 346q0 -22 -3.5 -37t-12 -24t-24 -13t-39.5 -4h-105v156h101q50 0 66.5 -18.5t16.5 -59.5z" />
    <glyph glyph-name="germandbls" unicode="&#xdf;" horiz-adv-x="802" 
d="M324 696q-129 0 -184.5 -43t-55.5 -137v-22h-61v-137h61v-357h166v494q0 13 3 25t11.5 20.5t23.5 13.5t38 5h94q28 0 47.5 -2.5t32 -10t18.5 -22t6 -37.5q0 -29 -7.5 -44.5t-24 -23t-42 -9t-62.5 -1.5v-111h100q66 0 89 -19.5t23 -61.5q1 -42 -22 -64t-87 -22h-149v-130
h192q65 0 109.5 10.5t71.5 33t39 57t12 81.5v42q0 37 -12 64t-31.5 44t-43.5 25.5t-49 10.5q31 12 46 38.5t15 89.5q0 94 -59.5 147t-191.5 53h-116z" />
    <glyph glyph-name="agrave" unicode="&#xe0;" horiz-adv-x="579" 
d="M289 553l38 33l-150 171l-77 -74zM206 317q-86 0 -126.5 -33t-40.5 -105v-42q0 -74 43 -105.5t119 -31.5h72q30 0 49.5 3.5t33 9.5t21.5 13.5t15 16.5v-43h139v321q0 52 -13 87t-40.5 56t-69 30t-98.5 9h-51q-66 0 -107 -10.5t-63.5 -29t-30.5 -45t-8 -58.5h158
q4 18 13 25t40 7h51q39 0 59 -16t20 -51v-53q-4 10 -11 18t-19.5 14t-32 9.5t-49.5 3.5h-73zM201 158q0 48 50 48h82q23 0 35.5 -10.5t12.5 -37.5q0 -29 -12 -38t-36 -9h-81q-27 0 -39 12t-12 35z" />
    <glyph glyph-name="aacute" unicode="&#xe1;" horiz-adv-x="579" 
d="M471 683l-77 74l-150 -171l38 -33zM206 317q-86 0 -126.5 -33t-40.5 -105v-42q0 -74 43 -105.5t119 -31.5h72q30 0 49.5 3.5t33 9.5t21.5 13.5t15 16.5v-43h139v321q0 52 -13 87t-40.5 56t-69 30t-98.5 9h-51q-66 0 -107 -10.5t-63.5 -29t-30.5 -45t-8 -58.5h158
q4 18 13 25t40 7h51q39 0 59 -16t20 -51v-53q-4 10 -11 18t-19.5 14t-32 9.5t-49.5 3.5h-73zM201 158q0 48 50 48h82q23 0 35.5 -10.5t12.5 -37.5q0 -29 -12 -38t-36 -9h-81q-27 0 -39 12t-12 35z" />
    <glyph glyph-name="acircumflex" unicode="&#xe2;" horiz-adv-x="579" 
d="M247 694l-147 -144h41l133 69l129 -69h45l-147 144h-54zM206 317q-86 0 -126.5 -33t-40.5 -105v-42q0 -74 43 -105.5t119 -31.5h72q30 0 49.5 3.5t33 9.5t21.5 13.5t15 16.5v-43h139v321q0 52 -13 87t-40.5 56t-69 30t-98.5 9h-51q-66 0 -107 -10.5t-63.5 -29t-30.5 -45
t-8 -58.5h158q4 18 13 25t40 7h51q39 0 59 -16t20 -51v-53q-4 10 -11 18t-19.5 14t-32 9.5t-49.5 3.5h-73zM201 158q0 48 50 48h82q23 0 35.5 -10.5t12.5 -37.5q0 -29 -12 -38t-36 -9h-81q-27 0 -39 12t-12 35z" />
    <glyph glyph-name="atilde" unicode="&#xe3;" horiz-adv-x="579" 
d="M75 569h85q0 14 13 29.5t45 15.5q21 0 36 -7t32 -18q17 -9 38 -15t56 -6q32 0 54.5 9.5t36.5 25t20.5 36.5t6.5 45h-81q0 -21 -10.5 -32.5t-39.5 -11.5q-21 0 -36.5 7t-32.5 16t-37 15.5t-51 6.5q-61 0 -98 -33.5t-37 -82.5zM206 317q-86 0 -126.5 -33t-40.5 -105v-42
q0 -74 43 -105.5t119 -31.5h72q30 0 49.5 3.5t33 9.5t21.5 13.5t15 16.5v-43h139v321q0 52 -13 87t-40.5 56t-69 30t-98.5 9h-51q-66 0 -107 -10.5t-63.5 -29t-30.5 -45t-8 -58.5h158q4 18 13 25t40 7h51q39 0 59 -16t20 -51v-53q-4 10 -11 18t-19.5 14t-32 9.5t-49.5 3.5
h-73zM201 158q0 48 50 48h82q23 0 35.5 -10.5t12.5 -37.5q0 -29 -12 -38t-36 -9h-81q-27 0 -39 12t-12 35z" />
    <glyph glyph-name="adieresis" unicode="&#xe4;" horiz-adv-x="579" 
d="M263 682h-134v-106h134v106zM463 682h-134v-106h134v106zM206 317q-86 0 -126.5 -33t-40.5 -105v-42q0 -74 43 -105.5t119 -31.5h72q30 0 49.5 3.5t33 9.5t21.5 13.5t15 16.5v-43h139v321q0 52 -13 87t-40.5 56t-69 30t-98.5 9h-51q-66 0 -107 -10.5t-63.5 -29t-30.5 -45
t-8 -58.5h158q4 18 13 25t40 7h51q39 0 59 -16t20 -51v-53q-4 10 -11 18t-19.5 14t-32 9.5t-49.5 3.5h-73zM201 158q0 48 50 48h82q23 0 35.5 -10.5t12.5 -37.5q0 -29 -12 -38t-36 -9h-81q-27 0 -39 12t-12 35z" />
    <glyph glyph-name="aring" unicode="&#xe5;" horiz-adv-x="579" 
d="M180 625q0 -37 19 -53.5t58 -16.5h57q73 0 73 70v23q0 34 -18 52.5t-56 18.5h-57q-43 0 -59.5 -18t-16.5 -53v-23zM313 584h-57q-20 0 -32 9t-12 32v23q0 23 10.5 32t33.5 9h57q20 0 31 -9t11 -32v-23q0 -23 -11.5 -32t-30.5 -9zM206 317q-86 0 -126.5 -33t-40.5 -105
v-42q0 -74 43 -105.5t119 -31.5h72q30 0 49.5 3.5t33 9.5t21.5 13.5t15 16.5v-43h139v321q0 52 -13 87t-40.5 56t-69 30t-98.5 9h-51q-66 0 -107 -10.5t-63.5 -29t-30.5 -45t-8 -58.5h158q4 18 13 25t40 7h51q39 0 59 -16t20 -51v-53q-4 10 -11 18t-19.5 14t-32 9.5
t-49.5 3.5h-73zM201 158q0 48 50 48h82q23 0 35.5 -10.5t12.5 -37.5q0 -29 -12 -38t-36 -9h-81q-27 0 -39 12t-12 35z" />
    <glyph glyph-name="ae" unicode="&#xe6;" horiz-adv-x="933" 
d="M610 504q-48 0 -82.5 -8t-58.5 -26q-27 18 -66.5 25.5t-92.5 7.5h-51q-66 0 -107 -10.5t-63.5 -29t-30.5 -45t-8 -58.5h158q4 18 13 25t40 7h51q39 0 59 -16t20 -51v-53q-4 10 -11 18t-19.5 14t-32 9.5t-49.5 3.5h-73q-86 0 -126.5 -33t-40.5 -105v-42q0 -74 43 -105.5
t119 -31.5h72q30 0 49.5 3.5t33 9.5t21.5 13.5t15 16.5v-43h125q40 -10 101 -10h61q66 0 107 10.5t64.5 30t32 48t8.5 63.5v10h-154q0 -23 -15.5 -34t-53.5 -11h-38q-39 0 -60.5 19.5t-21.5 55.5v37h343v80q0 59 -11 98.5t-36.5 63t-67.5 33.5t-104 10h-62zM201 158
q0 48 50 48h82q23 0 35.5 -10.5t12.5 -37.5q0 -29 -12 -38t-36 -9h-81q-27 0 -39 12t-12 35zM656 387q48 0 65 -18t16 -56h-189q0 38 16.5 56t61.5 18h30z" />
    <glyph glyph-name="ccedilla" unicode="&#xe7;" horiz-adv-x="563" 
d="M46 185q0 -51 10 -87.5t33 -60.5t60 -35.5t91 -11.5v-31q0 -31 -18 -38t-56 -7v-92q49 0 82 3t53 12.5t28.5 28.5t8.5 52v72q59 1 97 13t59.5 34t30 55t8.5 77h-154q0 -27 -15.5 -44.5t-64.5 -17.5h-28q-45 0 -63.5 16.5t-18.5 57.5v115q0 50 16.5 70.5t62.5 20.5h31
q24 0 39 -4t23 -11.5t11.5 -18t5.5 -23.5h155q0 47 -11.5 80t-37.5 54t-68 30.5t-103 9.5h-63q-56 0 -95 -11.5t-63 -37t-35 -65.5t-11 -98v-107z" />
    <glyph glyph-name="egrave" unicode="&#xe8;" horiz-adv-x="571" 
d="M280 553l38 33l-150 171l-77 -74zM297 387q48 0 65 -18t16 -56h-189q0 38 16.5 56t61.5 18h30zM259 -10h61q66 0 107 10.5t64.5 30t32 48t8.5 63.5v10h-154q0 -23 -15.5 -34t-53.5 -11h-38q-39 0 -60.5 19.5t-21.5 55.5v37h343v80q0 59 -11 98.5t-36.5 63t-67.5 33.5
t-104 10h-62q-57 0 -96 -11.5t-63.5 -38t-35 -68.5t-10.5 -102v-64q0 -66 10 -110t34 -71t65 -38t104 -11z" />
    <glyph glyph-name="eacute" unicode="&#xe9;" horiz-adv-x="571" 
d="M476 683l-77 74l-150 -171l38 -33zM297 387q48 0 65 -18t16 -56h-189q0 38 16.5 56t61.5 18h30zM259 -10h61q66 0 107 10.5t64.5 30t32 48t8.5 63.5v10h-154q0 -23 -15.5 -34t-53.5 -11h-38q-39 0 -60.5 19.5t-21.5 55.5v37h343v80q0 59 -11 98.5t-36.5 63t-67.5 33.5
t-104 10h-62q-57 0 -96 -11.5t-63.5 -38t-35 -68.5t-10.5 -102v-64q0 -66 10 -110t34 -71t65 -38t104 -11z" />
    <glyph glyph-name="ecircumflex" unicode="&#xea;" horiz-adv-x="571" 
d="M256 694l-147 -144h41l133 69l129 -69h45l-147 144h-54zM297 387q48 0 65 -18t16 -56h-189q0 38 16.5 56t61.5 18h30zM259 -10h61q66 0 107 10.5t64.5 30t32 48t8.5 63.5v10h-154q0 -23 -15.5 -34t-53.5 -11h-38q-39 0 -60.5 19.5t-21.5 55.5v37h343v80q0 59 -11 98.5
t-36.5 63t-67.5 33.5t-104 10h-62q-57 0 -96 -11.5t-63.5 -38t-35 -68.5t-10.5 -102v-64q0 -66 10 -110t34 -71t65 -38t104 -11z" />
    <glyph glyph-name="edieresis" unicode="&#xeb;" horiz-adv-x="571" 
d="M268 682h-135v-106h135v106zM468 682h-135v-106h135v106zM297 387q48 0 65 -18t16 -56h-189q0 38 16.5 56t61.5 18h30zM259 -10h61q66 0 107 10.5t64.5 30t32 48t8.5 63.5v10h-154q0 -23 -15.5 -34t-53.5 -11h-38q-39 0 -60.5 19.5t-21.5 55.5v37h343v80q0 59 -11 98.5
t-36.5 63t-67.5 33.5t-104 10h-62q-57 0 -96 -11.5t-63.5 -38t-35 -68.5t-10.5 -102v-64q0 -66 10 -110t34 -71t65 -38t104 -11z" />
    <glyph glyph-name="igrave" unicode="&#xec;" horiz-adv-x="271" 
d="M147 553l37 33l-150 171l-76 -74zM237 494h-167v-494h167v494z" />
    <glyph glyph-name="iacute" unicode="&#xed;" horiz-adv-x="271" 
d="M347 683l-77 74l-150 -171l38 -33zM237 494h-167v-494h167v494z" />
    <glyph glyph-name="icircumflex" unicode="&#xee;" horiz-adv-x="271" 
d="M122 694l-146 -144h41l133 69l129 -69h44l-146 144h-55zM237 494h-167v-494h167v494z" />
    <glyph glyph-name="idieresis" unicode="&#xef;" horiz-adv-x="271" 
d="M117 682h-135v-106h135v106zM317 682h-135v-106h135v106zM237 494h-167v-494h167v494z" />
    <glyph glyph-name="eth" unicode="&#xf0;" horiz-adv-x="578" 
d="M297 387q49 0 68 -25t19 -87v-58q0 -61 -18.5 -85.5t-66.5 -24.5h-26q-47 0 -65.5 24.5t-18.5 84.5v59q0 62 19 87t67 25h22zM374 500q-14 2 -30 3t-33 1h-52q-65 0 -106.5 -14.5t-66.5 -42.5t-34.5 -69.5t-9.5 -94.5v-80q0 -52 10 -91.5t35.5 -66t68 -40t107.5 -13.5h56
q61 0 102 13.5t65.5 39.5t34.5 65.5t10 92.5v80q0 65 -6 117.5t-18 96t-29.5 79.5t-40.5 68l30 30l-66 66l-31 -31q-56 38 -129 38h-93v-118h81q24 0 49 -10l-33 -33l66 -66l37 37q17 -27 26 -57z" />
    <glyph glyph-name="ntilde" unicode="&#xf1;" horiz-adv-x="629" 
d="M94 569h85q0 14 13 29.5t45 15.5q21 0 36 -7t32 -18q17 -9 38 -15t56 -6q32 0 54.5 9.5t36.5 25t20.5 36.5t6.5 45h-81q0 -21 -10.5 -32.5t-39.5 -11.5q-21 0 -36.5 7t-32.5 16t-37 15.5t-51 6.5q-61 0 -98 -33.5t-37 -82.5zM583 291q0 104 -52.5 153.5t-167.5 49.5
q-68 0 -101.5 -20.5t-47.5 -51.5v72h-165v-494h168v271q0 54 23 80.5t78 26.5q57 0 78 -27t21 -82v-269h166v291z" />
    <glyph glyph-name="ograve" unicode="&#xf2;" horiz-adv-x="578" 
d="M274 553l38 33l-150 171l-76 -74zM297 387q49 0 68 -25t19 -87v-58q0 -61 -18.5 -85.5t-66.5 -24.5h-26q-47 0 -65.5 24.5t-18.5 84.5v59q0 62 19 87t67 25h22zM531 203v80q0 54 -10 95.5t-35 69t-67.5 42t-107.5 14.5h-52q-65 0 -106.5 -14.5t-66.5 -42.5t-34.5 -69.5
t-9.5 -94.5v-80q0 -52 10 -91.5t35.5 -66t68 -40t107.5 -13.5h56q61 0 102 13.5t65.5 39.5t34.5 65.5t10 92.5z" />
    <glyph glyph-name="oacute" unicode="&#xf3;" horiz-adv-x="578" 
d="M476 683l-77 74l-150 -171l38 -33zM297 387q49 0 68 -25t19 -87v-58q0 -61 -18.5 -85.5t-66.5 -24.5h-26q-47 0 -65.5 24.5t-18.5 84.5v59q0 62 19 87t67 25h22zM531 203v80q0 54 -10 95.5t-35 69t-67.5 42t-107.5 14.5h-52q-65 0 -106.5 -14.5t-66.5 -42.5t-34.5 -69.5
t-9.5 -94.5v-80q0 -52 10 -91.5t35.5 -66t68 -40t107.5 -13.5h56q61 0 102 13.5t65.5 39.5t34.5 65.5t10 92.5z" />
    <glyph glyph-name="ocircumflex" unicode="&#xf4;" horiz-adv-x="578" 
d="M257 694l-147 -144h41l133 69l129 -69h45l-147 144h-54zM297 387q49 0 68 -25t19 -87v-58q0 -61 -18.5 -85.5t-66.5 -24.5h-26q-47 0 -65.5 24.5t-18.5 84.5v59q0 62 19 87t67 25h22zM531 203v80q0 54 -10 95.5t-35 69t-67.5 42t-107.5 14.5h-52q-65 0 -106.5 -14.5
t-66.5 -42.5t-34.5 -69.5t-9.5 -94.5v-80q0 -52 10 -91.5t35.5 -66t68 -40t107.5 -13.5h56q61 0 102 13.5t65.5 39.5t34.5 65.5t10 92.5z" />
    <glyph glyph-name="otilde" unicode="&#xf5;" horiz-adv-x="578" 
d="M70 569h85q0 14 13 29.5t45 15.5q21 0 36 -7t32 -18q17 -9 38 -15t56 -6q32 0 54.5 9.5t36.5 25t20.5 36.5t6.5 45h-81q0 -21 -10.5 -32.5t-39.5 -11.5q-21 0 -36.5 7t-32.5 16t-37 15.5t-51 6.5q-61 0 -98 -33.5t-37 -82.5zM297 387q49 0 68 -25t19 -87v-58
q0 -61 -18.5 -85.5t-66.5 -24.5h-26q-47 0 -65.5 24.5t-18.5 84.5v59q0 62 19 87t67 25h22zM531 203v80q0 54 -10 95.5t-35 69t-67.5 42t-107.5 14.5h-52q-65 0 -106.5 -14.5t-66.5 -42.5t-34.5 -69.5t-9.5 -94.5v-80q0 -52 10 -91.5t35.5 -66t68 -40t107.5 -13.5h56
q61 0 102 13.5t65.5 39.5t34.5 65.5t10 92.5z" />
    <glyph glyph-name="odieresis" unicode="&#xf6;" horiz-adv-x="578" 
d="M250 682h-135v-106h135v106zM450 682h-135v-106h135v106zM297 387q49 0 68 -25t19 -87v-58q0 -61 -18.5 -85.5t-66.5 -24.5h-26q-47 0 -65.5 24.5t-18.5 84.5v59q0 62 19 87t67 25h22zM531 203v80q0 54 -10 95.5t-35 69t-67.5 42t-107.5 14.5h-52q-65 0 -106.5 -14.5
t-66.5 -42.5t-34.5 -69.5t-9.5 -94.5v-80q0 -52 10 -91.5t35.5 -66t68 -40t107.5 -13.5h56q61 0 102 13.5t65.5 39.5t34.5 65.5t10 92.5z" />
    <glyph glyph-name="divide" unicode="&#xf7;" horiz-adv-x="533" 
d="M476 394h-408v-138h408v138zM169 202v-167h195v167h-195zM169 627v-167h195v167h-195z" />
    <glyph glyph-name="oslash" unicode="&#xf8;" horiz-adv-x="578" 
d="M531 283q0 44 -6.5 80t-22.5 62.5t-42.5 44.5t-65.5 26l16 52h-66l-13 -44h-20h-52q-65 0 -106.5 -14.5t-66.5 -42.5t-34.5 -69.5t-9.5 -94.5v-80q0 -42 6.5 -76.5t22.5 -60t42.5 -42.5t65.5 -25l-18 -58h64l15 51h23h56q61 0 102 13.5t65.5 39.5t34.5 65.5t10 92.5v80z
M275 387h20l-79 -264q-27 23 -27 93v59q0 62 19 87t67 25zM276 107l80 264q15 -12 21.5 -35t6.5 -61v-58q0 -61 -18.5 -85.5t-66.5 -24.5h-23z" />
    <glyph glyph-name="ugrave" unicode="&#xf9;" horiz-adv-x="633" 
d="M311 553l38 33l-150 171l-77 -74zM247 -1h21q63 0 98.5 17.5t54.5 47.5v-64h166v494h-168v-275q0 -51 -24 -75t-76 -24t-76 24t-24 76v274h-167v-291q0 -107 46.5 -155.5t148.5 -48.5z" />
    <glyph glyph-name="uacute" unicode="&#xfa;" horiz-adv-x="633" 
d="M507 683l-77 74l-150 -171l38 -33zM247 -1h21q63 0 98.5 17.5t54.5 47.5v-64h166v494h-168v-275q0 -51 -24 -75t-76 -24t-76 24t-24 76v274h-167v-291q0 -107 46.5 -155.5t148.5 -48.5z" />
    <glyph glyph-name="ucircumflex" unicode="&#xfb;" horiz-adv-x="633" 
d="M297 694l-147 -144h41l133 69l129 -69h45l-147 144h-54zM247 -1h21q63 0 98.5 17.5t54.5 47.5v-64h166v494h-168v-275q0 -51 -24 -75t-76 -24t-76 24t-24 76v274h-167v-291q0 -107 46.5 -155.5t148.5 -48.5z" />
    <glyph glyph-name="udieresis" unicode="&#xfc;" horiz-adv-x="633" 
d="M286 682h-135v-106h135v106zM486 682h-135v-106h135v106zM247 -1h21q63 0 98.5 17.5t54.5 47.5v-64h166v494h-168v-275q0 -51 -24 -75t-76 -24t-76 24t-24 76v274h-167v-291q0 -107 46.5 -155.5t148.5 -48.5z" />
    <glyph glyph-name="yacute" unicode="&#xfd;" horiz-adv-x="596" 
d="M181 494h-160l175 -494h37q-12 -24 -29 -36.5t-37 -18.5t-40.5 -6.5t-39.5 -0.5v-149q74 0 123.5 12t84 37.5t58 65.5t44.5 96l189 494h-160l-123 -345zM494 683l-77 74l-150 -171l38 -33z" />
    <glyph glyph-name="thorn" unicode="&#xfe;" horiz-adv-x="666" 
d="M413 497h-55q-29 0 -51 -6t-39.5 -16t-30.5 -21.5t-23 -21.5v262h-166v-892h166v273q8 -14 19.5 -27.5t28.5 -24t40.5 -17t55.5 -6.5h61q109 0 159.5 45t50.5 150v99q0 50 -11.5 88t-37 63.5t-66.5 38.5t-101 13zM221 212v75q0 39 25 66t67 27h46q57 0 80 -25.5t23 -75.5
v-63q0 -51 -22.5 -74.5t-76.5 -23.5h-50q-42 0 -67 26.5t-25 67.5z" />
    <glyph glyph-name="ydieresis" unicode="&#xff;" horiz-adv-x="676" 
d="M274 682h-134v-106h134v106zM474 682h-134v-106h134v106zM181 494h-160l175 -494h37q-12 -24 -29 -36.5t-37 -18.5t-40.5 -6.5t-39.5 -0.5v-149q74 0 123.5 12t84 37.5t58 65.5t44.5 96l189 494h-160l-123 -345z" />
    <glyph glyph-name="OE" unicode="&#x152;" horiz-adv-x="1089" 
d="M592 694v-22q-33 17 -78.5 23.5t-107.5 6.5h-86q-78 0 -130 -12.5t-83 -45t-44 -88.5t-13 -142v-118q0 -93 12.5 -151t43.5 -90t83.5 -43.5t132.5 -11.5h95q59 0 101.5 5t73.5 19v-24h442v139h-316v148h295v143h-295v126h316v138h-442zM340 552h57q35 0 58.5 -6.5
t38 -22.5t21 -43.5t6.5 -69.5v-106q0 -43 -6 -72t-20.5 -47t-38 -26t-59.5 -8h-57q-35 0 -58.5 8t-37.5 25.5t-20 46.5t-6 71v110q0 42 6.5 69t20.5 42.5t37.5 22t57.5 6.5z" />
    <glyph glyph-name="oe" unicode="&#x153;" horiz-adv-x="909" 
d="M297 387q49 0 68 -25t19 -87v-58q0 -61 -18.5 -85.5t-66.5 -24.5h-26q-47 0 -65.5 24.5t-18.5 84.5v59q0 62 19 87t67 25h22zM594 504q-46 0 -80 -7t-58 -24q-50 31 -145 31h-52q-65 0 -106.5 -14.5t-66.5 -42.5t-34.5 -69.5t-9.5 -94.5v-80q0 -52 10 -91.5t35.5 -66
t68 -40t107.5 -13.5h56q89 0 136 28q25 -16 60.5 -23t86.5 -7h61q66 0 107 10.5t64.5 30t32 48t8.5 63.5v10h-154q0 -23 -15.5 -34t-53.5 -11h-38q-39 0 -60.5 19.5t-21.5 55.5v37h343v80q0 59 -11 98.5t-36.5 63t-67.5 33.5t-104 10h-62zM640 387q48 0 65 -18t16 -56h-189
q0 38 16.5 56t61.5 18h30z" />
    <glyph glyph-name="Scaron" unicode="&#x160;" horiz-adv-x="692" 
d="M46 512v-29q0 -60 11 -96.5t37 -56t69 -27.5t107 -11l132 -6q19 -1 33.5 -4.5t24.5 -11.5t15 -22.5t5 -36.5q0 -45 -18 -58.5t-55 -13.5h-109q-23 0 -38.5 3t-25 11.5t-13.5 23t-4 38.5h-170v-29q0 -57 13 -93t39.5 -56.5t67 -28.5t96.5 -8h175q67 0 109 10t66 33
t33 60.5t9 92.5v36q0 58 -14.5 94.5t-42 56.5t-69 28t-95.5 11l-149 8q-18 1 -31 3t-21.5 8t-12 18t-3.5 32q0 40 16.5 52.5t51.5 12.5h121q41 0 54.5 -15t13.5 -43h178v30q0 85 -50.5 125.5t-164.5 40.5h-170q-112 0 -166.5 -41.5t-54.5 -140.5zM375 748l117 116h-33
l-107 -56l-103 56h-35l117 -116h44z" />
    <glyph glyph-name="scaron" unicode="&#x161;" horiz-adv-x="567" 
d="M47 157v-14q0 -146 200 -146h77q59 0 98.5 9t63.5 27.5t34 47.5t10 69v30q0 41 -17 66t-44.5 38.5t-63.5 18.5t-74 6l-86 3q-33 2 -46 9.5t-13 27.5q0 22 13.5 30t46.5 8h65q32 0 49 -7.5t17 -26.5v-10h150v28q0 64 -48.5 96.5t-158.5 32.5h-69q-108 0 -155.5 -36.5
t-47.5 -112.5v-24q0 -72 44 -101t125 -32l112 -4q50 -2 50 -39q0 -24 -12 -33t-38 -9h-79q-26 0 -44 9t-18 26v13h-141zM320 534l147 145h-41l-134 -69l-129 69h-44l147 -145h54z" />
    <glyph glyph-name="Ydieresis" unicode="&#x178;" horiz-adv-x="676" 
d="M314 832h-117v-92h117v92zM492 832h-118v-92h118v92zM193 694h-172l239 -424v-270h167v270l239 424h-173l-150 -277z" />
    <glyph glyph-name="florin" unicode="&#x192;" horiz-adv-x="649" 
d="M591 533h-533v-533h533v533z" />
    <glyph glyph-name="circumflex" unicode="&#x2c6;" horiz-adv-x="404" 
d="M178 694l-147 -144h41l134 69l128 -69h45l-147 144h-54z" />
    <glyph glyph-name="tilde" unicode="&#x2dc;" horiz-adv-x="489" 
d="M40 569h85q0 14 13 29.5t45 15.5q21 0 36 -7t32 -18q17 -9 38 -15t56 -6q32 0 54.5 9.5t36.5 25t20.5 36.5t6.5 45h-81q0 -21 -10.5 -32.5t-39.5 -11.5q-21 0 -36.5 7t-32.5 16t-37 15.5t-51 6.5q-61 0 -98 -33.5t-37 -82.5z" />
    <glyph glyph-name="endash" unicode="&#x2013;" horiz-adv-x="733" 
d="M662 394h-594v-138h594v138z" />
    <glyph glyph-name="emdash" unicode="&#x2014;" horiz-adv-x="1107" 
d="M1040 394h-972v-138h972v138z" />
    <glyph glyph-name="quoteleft" unicode="&#x2018;" horiz-adv-x="289" 
d="M230 370v194h-43v32q0 33 21 43.5t51 10.5v93q-52 0 -93 -7.5t-69.5 -25.5t-44 -48t-15.5 -75v-217h193z" />
    <glyph glyph-name="quoteright" unicode="&#x2019;" horiz-adv-x="316" 
d="M74 717v-196h44v-31q0 -33 -21 -43.5t-51 -10.5v-94q51 0 92.5 8t70 26t44 48t15.5 75v218h-194z" />
    <glyph glyph-name="quotesinglbase" unicode="&#x201a;" horiz-adv-x="316" 
d="M73 282v-194h44v-31q0 -34 -21.5 -44.5t-51.5 -10.5v-93q52 0 93 8t70 26t44.5 48t15.5 75v216h-194z" />
    <glyph glyph-name="quotedblleft" unicode="&#x201c;" horiz-adv-x="551" 
d="M230 370v194h-43v32q0 33 21 43.5t51 10.5v93q-52 0 -93 -7.5t-69.5 -25.5t-44 -48t-15.5 -75v-217h193zM501 370v194h-43v32q0 33 21 43.5t51 10.5v93q-52 0 -93 -7.5t-69.5 -25.5t-44 -48t-15.5 -75v-217h193z" />
    <glyph glyph-name="quotedblright" unicode="&#x201d;" horiz-adv-x="609" 
d="M366 700v-194h43v-32q0 -33 -21 -43.5t-51 -10.5v-93q51 0 92.5 7.5t70 25.5t44 48t15.5 75v217h-193zM94 700v-194h44v-32q0 -33 -21 -43.5t-51 -10.5v-93q51 0 92.5 7.5t70 25.5t44 48t15.5 75v217h-194z" />
    <glyph glyph-name="quotedblbase" unicode="&#x201e;" horiz-adv-x="564" 
d="M320 282v-194h43v-31q0 -34 -21 -44.5t-51 -10.5v-93q52 0 93 8t69.5 26t44 48t15.5 75v216h-193zM73 282v-194h44v-31q0 -34 -21.5 -44.5t-51.5 -10.5v-93q52 0 93 8t70 26t44.5 48t15.5 75v216h-194z" />
    <glyph glyph-name="dagger" unicode="&#x2020;" horiz-adv-x="244" 
d="M137 736h-28v-130h-68v-27h68v-367h28v367h68v27h-68v130z" />
    <glyph glyph-name="daggerdbl" unicode="&#x2021;" horiz-adv-x="244" 
d="M116 172h26v262h68v27h-68v116h68v27h-68v132h-26v-132h-68v-27h68v-116h-68v-27h68v-262z" />
    <glyph glyph-name="bullet" unicode="&#x2022;" horiz-adv-x="467" 
d="M400 277q0 34 -13 64t-35.5 52.5t-52.5 35.5t-64 13t-64 -13t-52.5 -35.5t-35.5 -52.5t-13 -64t13 -64t35.5 -52.5t52.5 -35.5t64 -13t64 13t52.5 35.5t35.5 52.5t13 64z" />
    <glyph glyph-name="ellipsis" unicode="&#x2026;" horiz-adv-x="1127" 
d="M119 167v-167h195v167h-195zM489 167v-167h195v167h-195zM864 167v-167h195v167h-195z" />
    <glyph glyph-name="perthousand" unicode="&#x2030;" horiz-adv-x="1396" 
d="M446 -33l205 761h-101l-206 -761h102zM193 281h61q42 0 71 7t47 26.5t26.5 54.5t8.5 90v72q0 50 -9 82.5t-29 51.5t-53.5 26.5t-81.5 7.5h-27q-47 0 -79 -7.5t-51.5 -26.5t-28.5 -51.5t-9 -82.5v-72q0 -55 8.5 -90t26.5 -54.5t47.5 -26.5t71.5 -7zM218 606h12
q22 0 36.5 -3t23.5 -13t12.5 -30.5t3.5 -54.5v-37q0 -33 -4 -51.5t-13 -28.5t-23.5 -12.5t-35.5 -2.5h-12q-21 0 -36 2.5t-24.5 12t-13.5 28.5t-4 52v37q0 34 3.5 54.5t12.5 30.5t24 13t38 3zM737 -7h61q42 0 71 7t47 26.5t26.5 54.5t8.5 90v72q0 50 -9 82.5t-29 51.5
t-53.5 26.5t-81.5 7.5h-27q-47 0 -79 -7.5t-51.5 -26.5t-28.5 -51.5t-9 -82.5v-72q0 -55 8.5 -90t26.5 -54.5t47.5 -26.5t71.5 -7zM762 318h12q22 0 36.5 -3t23.5 -13t12.5 -30.5t3.5 -54.5v-37q0 -32 -4 -51t-13 -29t-23.5 -12.5t-35.5 -2.5h-12q-21 0 -36 2.5t-24.5 12.5
t-13.5 29t-4 51v37q0 34 3.5 54.5t12.5 30.5t24 13t38 3zM1151 -7h61q42 0 71 7t47 26.5t26.5 54.5t8.5 90v72q0 50 -9 82.5t-29 51.5t-53.5 26.5t-81.5 7.5h-27q-47 0 -79 -7.5t-51.5 -26.5t-28.5 -51.5t-9 -82.5v-72q0 -55 8.5 -90t26.5 -54.5t47.5 -26.5t71.5 -7z
M1176 318h12q22 0 36.5 -3t23.5 -13t12.5 -30.5t3.5 -54.5v-37q0 -32 -4 -51t-13 -29t-23.5 -12.5t-35.5 -2.5h-12q-21 0 -36 2.5t-24.5 12.5t-13.5 29t-4 51v37q0 34 3.5 54.5t12.5 30.5t24 13t38 3z" />
    <glyph glyph-name="guilsinglleft" unicode="&#x2039;" horiz-adv-x="364" 
d="M31 302v-50l251 -201l59 72l-193 156l193 158l-57 74z" />
    <glyph glyph-name="guilsinglright" unicode="&#x203a;" horiz-adv-x="364" 
d="M28 123l59 -72l251 201v50l-254 209l-56 -74l193 -158z" />
    <glyph glyph-name="trademark" unicode="&#x2122;" horiz-adv-x="400" 
d="M174 702h-124v-13h56v-161h13v161h55v13zM208 704l-39 -175h13l28 131l53 -140l54 140l26 -131h14l-37 175l-57 -147z" />
    <glyph glyph-name="NUL" unicode="&#xe000;" horiz-adv-x="0" 
 />
    <glyph glyph-name="HT" unicode="&#xe001;" horiz-adv-x="0" 
 />
    <glyph glyph-name="minus" unicode="&#xe003;" horiz-adv-x="538" 
d="M476 394h-408v-138h408v138z" />
    <glyph glyph-name="notequal" unicode="&#xe004;" horiz-adv-x="547" 
d="M477 279h-186l43 89h143v112h-89l33 69h-97l-33 -69h-224v-112h169l-43 -89h-126v-110h71l-31 -69h97l32 69h241v110z" />
    <glyph glyph-name="lessequal" unicode="&#xe005;" horiz-adv-x="516" 
d="M440 248h-372v-139h372v139zM98 553v-99l285 -190v134l-169 108l169 107v134z" />
    <glyph glyph-name="greaterequal" unicode="&#xe006;" horiz-adv-x="489" 
d="M431 248h-364v-139h364v139zM101 398v-134l286 190v99l-286 194v-134l169 -107z" />
    <glyph glyph-name="partialdiff" unicode="&#xe007;" 
d="M351 389h-294v-41h294v41zM182 192v-63h46q17 0 28 -6.5t11 -27.5q0 -23 -11.5 -28.5t-31.5 -5.5h-29q-21 0 -31 5.5t-10 21.5h-73q0 -46 25.5 -68t80.5 -21h45q56 1 82.5 21.5t26.5 70.5q0 38 -14 53.5t-43 17.5q33 2 45 16t12 50q0 26 -9.5 42.5t-24.5 25.5t-34.5 12.5
t-40.5 3.5h-53q-29 0 -48 -8t-30 -21t-15.5 -31t-4.5 -37h71q0 21 11.5 27.5t33.5 6.5h23q25 0 36 -4.5t11 -24.5q0 -15 -9.5 -21.5t-32.5 -6.5h-43zM195 415h75v312h-90l-92 -93l36 -36l71 71v-254z" />
    <glyph glyph-name="summation" unicode="&#xe008;" 
d="M351 389h-294v-41h294v41zM310 129v182h-89l-152 -166v-79h166v-67h75v67h43v63h-43zM195 415h75v312h-90l-92 -93l36 -36l71 71v-254zM235 242v-113h-101z" />
    <glyph glyph-name="product" unicode="&#xe009;" 
d="M351 389h-294v-41h294v41zM280 555q23 9 37 24.5t14 56.5q0 45 -22 70t-79 25h-46q-32 0 -51 -9t-29.5 -25t-13.5 -37t-3 -46h75q0 32 7.5 43t33.5 11h17q24 0 30 -9.5t6 -26.5q0 -16 -8 -21.5t-20 -9.5l-63 -23q-16 -6 -30.5 -13.5t-25.5 -19t-17.5 -27.5t-6.5 -39v-62
h244v63h-169v9q0 14 10 21t27 14zM183 191v-63h46q17 0 28 -6.5t11 -27.5q0 -23 -11.5 -28.5t-31.5 -5.5h-29q-21 0 -31 5.5t-10 21.5h-73q0 -46 25.5 -68t80.5 -21h45q56 1 82.5 21.5t26.5 70.5q0 38 -14 53.5t-43 17.5q33 2 45 16t12 50q0 26 -9.5 42.5t-24.5 25.5
t-34.5 12.5t-40.5 3.5h-53q-29 0 -48 -8t-30 -21t-15.5 -31t-4.5 -37h71q0 21 11.5 27.5t33.5 6.5h23q25 0 36 -4.5t11 -24.5q0 -15 -9.5 -21.5t-32.5 -6.5h-43z" />
    <glyph glyph-name="pi" unicode="&#xe00a;" 
d="M351 389h-294v-41h294v41zM183 609v-63h46q17 0 28 -6.5t11 -27.5q0 -23 -11.5 -28.5t-31.5 -5.5h-29q-21 0 -31 5.5t-10 21.5h-73q0 -46 25.5 -68t80.5 -21h45q56 1 82.5 21.5t26.5 70.5q0 38 -14 53.5t-43 17.5q33 2 45 16t12 50q0 26 -9.5 42.5t-24.5 25.5t-34.5 12.5
t-40.5 3.5h-53q-29 0 -48 -8t-30 -21t-15.5 -31t-4.5 -37h71q0 21 11.5 27.5t33.5 6.5h23q25 0 36 -4.5t11 -24.5q0 -15 -9.5 -21.5t-32.5 -6.5h-43zM310 129v182h-89l-152 -166v-79h166v-67h75v67h43v63h-43zM235 242v-113h-101z" />
    <glyph glyph-name="integral" unicode="&#xe00b;" horiz-adv-x="811" 
d="M739 667h-667v-667h667v667zM686 613v-560h-560v560h560z" />
    <glyph glyph-name="radical" unicode="&#xe00c;" horiz-adv-x="703" 
d="M86 270l-44 -108q34 -24 67 -61.5t63 -85.5q88 167 210.5 297t263.5 215v137q-76 -36 -147 -99.5t-132.5 -139t-111 -154.5t-82.5 -147q-13 31 -32.5 68t-54.5 78z" />
    <glyph glyph-name="approxequal" unicode="&#xe00d;" horiz-adv-x="776" 
d="M326 273v126h124v-126h-124zM285 541v-101h-101q-51 0 -79 28.5t-28 73.5q0 50 29.5 77.5t76.5 27.5q51 0 76.5 -31t25.5 -75zM183 399h102v-126h-102q-30 0 -56.5 -10.5t-46.5 -30t-31.5 -46t-11.5 -57.5t11 -57t30 -45t45 -29.5t57 -10.5q36 0 63.5 11t46 30.5t27.5 46
t9 56.5v102h124v-102q0 -30 9.5 -56.5t28 -46t45.5 -30.5t63 -11q31 0 57 11t45 30t30 45t11 56q0 31 -11.5 57.5t-31.5 46t-46.5 30t-56.5 10.5h-102v126h102q30 0 56.5 11t46.5 30.5t31.5 46t11.5 57.5t-11 57.5t-30 45.5t-45.5 29.5t-56.5 10.5q-36 0 -63 -11.5
t-45.5 -31t-28 -46t-9.5 -56.5v-102h-124v102q0 30 -9 56.5t-27.5 46t-46 31t-63.5 11.5q-30 0 -56.5 -11.5t-45.5 -31t-30 -45.5t-11 -55q0 -32 11 -58.5t30.5 -45.5t46 -30t58.5 -11zM592 440h-101v101q0 44 25.5 75t76.5 31q46 0 76 -27.5t30 -77.5q0 -45 -28.5 -73.5
t-78.5 -28.5zM184 233h101v-101q0 -45 -25.5 -75.5t-76.5 -30.5q-47 0 -76.5 27t-29.5 78q0 45 28 73.5t79 28.5zM491 132v101h101q50 0 78.5 -28.5t28.5 -73.5q0 -51 -30 -78t-76 -27q-51 0 -76.5 30.5t-25.5 75.5z" />
    <glyph glyph-name="nonbreakingspace" unicode="&#xe00e;" 
 />
    <glyph glyph-name="lozenge" unicode="&#xe00f;" horiz-adv-x="556" 
d="M279 433l153 -153l-155 -156l-154 149zM32 276l245 -244l247 248l-245 244z" />
    <glyph glyph-name="apple" unicode="&#xe010;" horiz-adv-x="790" 
d="M275 530q-44 0 -79.5 -14.5t-60 -40.5t-38 -62t-13.5 -78q0 -71 27 -134t64.5 -110t77 -74.5t65.5 -27.5q19 0 36 7.5t30 23.5q7 8 18 12t22 4t21.5 -4t17.5 -12q27 -33 73 -33q39 0 70.5 21.5t56.5 52.5t42.5 65t28.5 59q-20 6 -38 18t-32.5 30t-23 41.5t-8.5 52.5
q0 26 6.5 46t17 35.5t25 29t31.5 25.5q-3 15 -17 27.5t-33 21.5t-42 14t-44 5q-25 0 -47 -6.5t-37 -18.5q-20 -16 -35.5 -21.5t-30.5 -5.5t-27 6.5t-33 20.5q-17 12 -41 18t-50 6zM534 669q-21 0 -42.5 -12.5t-39.5 -32t-29.5 -43t-11.5 -46.5q0 -6 2 -11.5t10 -5.5
q24 0 46 15t38.5 37t26.5 46.5t10 43.5q0 9 -10 9z" />
    </font>
</defs>
</svg>
