<?xml version="1.0" standalone="no"?>
<!DOCTYPE svg PUBLIC "-//W3C//DTD SVG 1.1//EN" "http://www.w3.org/Graphics/SVG/1.1/DTD/svg11.dtd" >
<svg xmlns="http://www.w3.org/2000/svg" xmlns:xlink="http://www.w3.org/1999/xlink" version="1.1">
<metadata></metadata>
<defs>
<font id="wicked_queen_bbregular" horiz-adv-x="494" >
<font-face units-per-em="2048" ascent="1638" descent="-410" />
<missing-glyph horiz-adv-x="346" />
<glyph horiz-adv-x="0" />
<glyph unicode="&#xd;" horiz-adv-x="346" />
<glyph unicode=" "  horiz-adv-x="346" />
<glyph unicode="&#x09;" horiz-adv-x="346" />
<glyph unicode="&#xa0;" horiz-adv-x="346" />
<glyph unicode="!" d="M40 1416v42h430v-42q-78 -10 -98 -64v-970h-236v974q-22 48 -96 60zM126 128q0 54 36 90t90 36q52 0 89 -37t37 -89q0 -54 -36 -90t-90 -36t-90 36t-36 90z" />
<glyph unicode="&#x22;" horiz-adv-x="622" d="M36 1460h250l-110 -412h-30zM340 1460h250l-110 -412h-30z" />
<glyph unicode="#" horiz-adv-x="922" d="M36 716v88l108 26v78l-108 -24v88l108 24v360q-22 50 -94 60v42h332v-406l140 32v374h236v-320l134 32v-88l-134 -32v-78l134 30v-88l-134 -32v-780q20 -48 96 -60v-42h-332v828l-140 -32v-796h-238v740zM382 884l140 32v80l-140 -32v-80z" />
<glyph unicode="$" horiz-adv-x="730" d="M54 298v140v276h240v-434h138v712h-284q-94 12 -94 64v100q0 106 98 106h62v194h82v-194h134v194h80v-194q34 -2 58 -30t24 -62h-298v-86l246 -2q76 0 104 -53t28 -83v-666q0 -88 -112 -88h-50v-192h-80v192h-134v-192h-82v192h-44q-118 0 -116 106z" />
<glyph unicode="%" horiz-adv-x="1214" d="M62 998v378q0 84 86 84h444q86 0 86 -84v-210l122 292h238l-378 -910h420q88 0 88 -84v-380q0 -84 -88 -84h-442q-88 0 -88 84v202l-118 -286h-238l380 912h-426q-86 0 -86 86zM302 1000h138v370h-138v-370zM790 88h138v370h-138v-370z" />
<glyph unicode="&#x26;" horiz-adv-x="846" d="M82 84v1058q0 80 136 92q-136 8 -136 74v34v32q-2 86 86 86l512 -2v-88h-358v-90h534v-92h-80l-146 -1188h-462q-86 0 -86 84zM322 86h80l136 1102h-216v-1102z" />
<glyph unicode="'" horiz-adv-x="356" d="M50 1460h250l-64 -234l-46 -178h-30z" />
<glyph unicode="(" horiz-adv-x="464" d="M34 728q-6 364 208 730h238q-242 -366 -236 -730t232 -728h-236q-200 364 -206 728z" />
<glyph unicode=")" horiz-adv-x="492" d="M-6 0q240 364 234 728t-230 730h238q198 -366 204 -730t-208 -728h-238z" />
<glyph unicode="*" horiz-adv-x="816" d="M56 984v250l310 -82l-20 74l-62 234h250l-84 -308l310 82v-250l-310 82l84 -310h-250l82 310z" />
<glyph unicode="+" horiz-adv-x="458" d="M62 914v88h132v132h90v-132h132v-88h-132v-134h-90v134h-132z" />
<glyph unicode="," horiz-adv-x="360" d="M72 170h250l-64 -232l-46 -178h-30z" />
<glyph unicode="-" d="M74 914v88h354v-88h-354z" />
<glyph unicode="." horiz-adv-x="416" d="M84 128q0 54 36 90t90 36q52 0 89 -37t37 -89q0 -54 -36 -90t-90 -36t-90 36t-36 90z" />
<glyph unicode="/" horiz-adv-x="824" d="M-6 0l604 1458h236l-604 -1458h-236z" />
<glyph unicode="0" horiz-adv-x="762" d="M82 84v1292q0 84 86 84h444q88 0 88 -84v-1292q0 -84 -88 -84h-444q-86 0 -86 84zM322 88h138v1282h-138v-1282z" />
<glyph unicode="1" horiz-adv-x="536" d="M34 1366l52 92h312v-1352q20 -56 98 -64v-42h-432v42q74 10 96 64v1260h-126z" />
<glyph unicode="2" horiz-adv-x="686" d="M44 104l378 1266h-136v-180h-242v162q0 104 118 104l388 2q112 0 112 -90l-376 -1280h376v-88h-512q-106 0 -106 104z" />
<glyph unicode="3" horiz-adv-x="714" d="M42 0v86h358v1102h-232v92h232v90h-358v88l512 2q86 0 86 -86v-66q0 -66 -136 -74q136 -12 136 -92v-1058q0 -84 -86 -84h-512z" />
<glyph unicode="4" horiz-adv-x="710" d="M-8 178l392 1278q40 0 120 2h118v-1352q20 -54 96 -64v-42h-430v42q74 10 96 64v74h-196zM258 266h126v416z" />
<glyph unicode="5" horiz-adv-x="730" d="M64 106v808h240v-828h136v1100h-376v272h616v-90h-240v2h-136v-90l242 -4q60 0 100 -32q34 -28 34 -58v-1098q0 -88 -112 -88h-388q-116 0 -116 106z" />
<glyph unicode="6" horiz-adv-x="748" d="M68 106v1246q0 106 106 106l426 2q86 0 86 -92h-240v2h-138v-90l242 -4q62 -2 102 -32q34 -28 34 -58v-1098q0 -88 -112 -88h-390q-116 0 -116 106zM308 86h138v1102h-138v-1102z" />
<glyph unicode="7" horiz-adv-x="638" d="M18 1078v380l626 -2l-322 -1458h-238l302 1372h-212q-100 -104 -112 -284q-16 -4 -44 -8z" />
<glyph unicode="8" horiz-adv-x="752" d="M74 106v1038q0 34 52 58q6 2 82 28q-134 8 -134 64v58q0 106 106 106l426 2q86 0 86 -86v-66q0 -66 -136 -74q136 -12 136 -92v-1054q0 -88 -112 -88h-388q-118 0 -118 106zM316 86h136v1102h-136v-1102zM316 1280h136v90h-136v-90z" />
<glyph unicode="9" horiz-adv-x="750" d="M74 88h378v90l-242 2q-136 2 -136 92v1098q0 90 112 90l388 -2q118 0 118 -106v-1246q0 -106 -106 -106h-426q-86 0 -86 88zM314 270h138v1102h-138v-1102z" />
<glyph unicode=":" horiz-adv-x="428" d="M116 128q0 54 36 90t90 36q52 0 89 -37t37 -89q0 -54 -36 -90t-90 -36t-90 36t-36 90zM116 532q0 54 36 90t90 36q52 0 89 -37t37 -89q0 -54 -36 -90t-90 -36t-90 36t-36 90z" />
<glyph unicode=";" horiz-adv-x="404" d="M82 462q0 54 36 90t90 36q52 0 90 -37t38 -89q0 -54 -37 -91t-91 -37t-90 37t-36 91zM84 170h250l-64 -232l-46 -178h-30z" />
<glyph unicode="=" horiz-adv-x="462" d="M64 914v88h356v-88h-356zM64 1082v88h356v-88h-356z" />
<glyph unicode="?" horiz-adv-x="770" d="M80 1002v352q0 104 118 104l390 2q110 0 110 -90v-600q0 -56 -39 -94t-93 -40l-58 -2v-242h-240v268q0 52 94 64h98v648h-138v-370h-242zM262 128q0 54 36 90t90 36q52 0 89 -37t37 -89q0 -54 -36 -90t-90 -36t-90 36t-36 90z" />
<glyph unicode="@" horiz-adv-x="1570" d="M60 732q0 304 212 516t516 212q302 0 516 -213t214 -515q0 -304 -213 -517t-517 -213t-516 213t-212 517zM138 732q0 -272 189 -462t461 -190q270 0 461 191t191 461t-191 460t-461 190t-460 -190t-190 -460zM386 320v42q76 12 98 64v624q0 92 96 92h418q96 0 96 -92 v-624q20 -52 96 -64v-42h-334v554h-134v-554h-336zM722 962h134v90h-134v-90z" />
<glyph unicode="A" horiz-adv-x="810" d="M6 0v42q76 10 96 64v1262q0 90 98 90h418q94 0 94 -90v-1262q20 -56 98 -64v-42h-334v1190h-136v-1190h-334zM340 1280h136v88h-136v-88z" />
<glyph unicode="B" horiz-adv-x="800" d="M14 0v42q76 8 98 64v1246q-22 54 -98 64v42l630 2q86 0 86 -84v-68q0 -66 -136 -74q46 -4 86 -24q50 -26 50 -66v-1060q0 -84 -86 -84h-630zM352 88h138v1102h-138v-1102zM352 1280h138v90h-138v-90z" />
<glyph unicode="C" horiz-adv-x="786" d="M90 84v1292q0 84 86 84h444q86 0 86 -84v-96h-238v90h-138v-1282h138v112h238v-116q0 -84 -86 -84h-444q-86 0 -86 84z" />
<glyph unicode="D" horiz-adv-x="784" d="M6 0v42q74 10 96 64v1246q-22 52 -96 64v42l628 2q86 0 86 -84v-1292q0 -84 -86 -84h-628zM344 88h136v1282h-136v-1282z" />
<glyph unicode="E" horiz-adv-x="796" d="M48 1186v90h58v94h-56v88h678v-380q-14 2 -46 8q-12 178 -114 284h-224v-94h160v-380q-14 2 -46 6q-14 184 -112 284h-2v-1098h224q46 46 82 242q22 134 32 270q-2 0 46 8v-608h-678v88h56v1098h-58z" />
<glyph unicode="F" horiz-adv-x="790" d="M52 1186v90h60v94h-56v88h676v-380q-12 2 -44 8q-12 178 -114 284h-224v-94h160v-380q-12 0 -46 6q-14 180 -112 284h-2v-1080q20 -54 96 -64v-42h-334v1186h-60z" />
<glyph unicode="G" horiz-adv-x="746" d="M72 84v1292q0 84 88 84h444q86 0 86 -84v-96h-240v90h-138v-1282h138v1088h240v-1092q0 -84 -86 -84h-444q-88 0 -88 84z" />
<glyph unicode="H" horiz-adv-x="794" d="M4 1416v42h334v-178h136v178h238v-1352q18 -54 96 -64v-42h-334v1190h-136v-1190h-236v1352q-22 54 -98 64z" />
<glyph unicode="I" horiz-adv-x="430" d="M6 1416v42h332v-1352q20 -56 98 -64v-42h-334v1356q-24 50 -96 60z" />
<glyph unicode="J" horiz-adv-x="758" d="M78 84v920h240v-916h136v1282h-60v90h214q86 0 86 -84v-1292q0 -84 -86 -84h-444q-86 0 -86 84z" />
<glyph unicode="K" horiz-adv-x="804" d="M14 0v42q76 8 98 64v1246q-22 54 -98 64v42l338 2v-262l86 154q12 20 12 34q0 24 -34 30l24 42l296 2l-156 -284l136 -1070q28 -56 106 -64l4 -42h-334l-140 1100v-1100h-338z" />
<glyph unicode="L" horiz-adv-x="712" d="M18 1416v42h332v-1370h150q44 46 80 242q24 138 32 270q-2 0 46 8v-608h-608v88h62v1264q-20 52 -94 64z" />
<glyph unicode="M" horiz-adv-x="1180" d="M14 0v42q74 10 96 64v1262q0 90 98 90h276q88 0 112 -88q6 38 43 63t77 25h282q96 0 96 -90v-1262q20 -54 96 -64v-42h-334v1368h-134v-1368h-238v1368h-136v-1368h-334z" />
<glyph unicode="N" horiz-adv-x="818" d="M14 1416v42h332l136 -184v184h238v-1352q20 -56 98 -64v-42h-336v1098l-134 184v-1282h-238v1352q-22 52 -96 64z" />
<glyph unicode="O" horiz-adv-x="762" d="M82 84v1292q0 84 86 84h444q88 0 88 -84v-1292q0 -84 -88 -84h-444q-86 0 -86 84zM322 88h138v1282h-138v-1282z" />
<glyph unicode="P" horiz-adv-x="744" d="M16 0v42q76 8 98 64v1246q-22 54 -98 64v42l630 2q86 0 86 -84v-68q0 -30 -8 -74t-76 -44h-294v-1190h-338zM354 1280h138v90h-138v-90z" />
<glyph unicode="Q" horiz-adv-x="760" d="M86 84v1292q0 84 88 84h444q86 0 86 -84v-1292q0 -84 -86 -84h-118l-90 -336h-30l-90 336h-116q-88 0 -88 84zM326 88h138v1282h-138v-1282z" />
<glyph unicode="R" horiz-adv-x="810" d="M6 0v42q74 10 96 64v1246q-22 52 -96 64v42l626 2q86 0 86 -84v-34v-36q0 -64 -134 -72q46 -4 84 -24q50 -26 50 -66v-1040q40 -60 102 -62v-42h-340v1190h-138v-1190h-336zM342 1280h138v90h-138v-90z" />
<glyph unicode="S" horiz-adv-x="762" d="M76 106v806h240v-826h138v1104h-284q-94 0 -94 64v98q0 106 100 106l352 2q36 0 61 -28t25 -64h-298v-88l246 -2q76 0 104 -53t28 -81v-1056q0 -88 -112 -88h-388q-118 0 -118 106z" />
<glyph unicode="T" horiz-adv-x="758" d="M38 1078v380h696v-380q-18 4 -46 8q-12 176 -112 284h-72v-1264q20 -56 98 -64v-42h-432v42q76 8 98 64v1264h-72q-102 -108 -112 -284q-28 -4 -46 -8z" />
<glyph unicode="U" horiz-adv-x="810" d="M16 1416v42h336v-1368h134v1368h334v-42q-76 -12 -96 -64v-1262q0 -90 -96 -90h-418q-96 0 -96 90v1262q-22 54 -98 64z" />
<glyph unicode="V" horiz-adv-x="708" d="M-68 1458h332l100 -640l98 640h334l-8 -42q-76 -12 -104 -60l-196 -1270q28 -36 92 -44l6 -42h-446l6 42q62 8 94 44l-196 1270q-32 50 -106 60z" />
<glyph unicode="W" horiz-adv-x="1312" d="M-114 1458h332l268 -954l52 186l-214 768h236l98 -344l96 344h238l-216 -768l54 -190l268 958h334l-12 -42q-80 -12 -114 -64l-354 -1262q34 -38 102 -48l12 -42h-376l20 78l-52 188l-52 -186l22 -80h-380l12 42q68 8 104 50l-352 1260q-34 54 -114 64z" />
<glyph unicode="X" horiz-adv-x="782" d="M-56 0l14 42q76 8 114 64l196 620l-198 630q-38 48 -112 60l-14 42h332l110 -352l110 352h334l-14 -42q-78 -12 -114 -60l-198 -630l196 -620q36 -56 116 -64l14 -42h-334l-110 348l-108 -348h-334z" />
<glyph unicode="Y" horiz-adv-x="754" d="M-96 1458h330l148 -470l146 470h334l-14 -42q-78 -12 -114 -60l-234 -746v-504q20 -56 98 -64v-42h-432v42q76 10 96 64v504l-234 746q-38 48 -112 60z" />
<glyph unicode="Z" horiz-adv-x="718" d="M42 0l384 1370h-184q-102 -108 -112 -284q-28 -4 -46 -8v380h604l-384 -1370h190q100 106 112 284q-2 0 46 8v-380h-610z" />
<glyph unicode="a" horiz-adv-x="658" d="M16 112v34q60 6 78 50v1010q0 72 76 72h336q76 0 76 -72v-1010q16 -44 78 -50v-34h-268v952h-108v-952h-268zM284 1136h108v70h-108v-70z" />
<glyph unicode="b" horiz-adv-x="654" d="M16 112v34q58 6 76 50v998q-18 42 -76 50v34l502 2q70 0 70 -68v-54q0 -52 -108 -60q108 -10 108 -72v-846q0 -68 -70 -68h-502zM286 182h110v880h-110v-880zM286 1136h110v72h-110v-72z" />
<glyph unicode="c" horiz-adv-x="604" d="M68 180v1032q0 68 68 68h356q68 0 68 -68v-76h-190v72h-110v-1026h110v90h190v-92q0 -68 -68 -68h-356q-68 0 -68 68z" />
<glyph unicode="d" horiz-adv-x="658" d="M20 112v34q60 6 78 50v998q-18 42 -78 50v34l504 2q68 0 68 -68v-1032q0 -68 -68 -68h-504zM290 182h110v1026h-110v-1026z" />
<glyph unicode="e" horiz-adv-x="628" d="M36 1060v72h48v76h-46v70h542v-304q-10 0 -36 6q-10 144 -90 228h-180v-76h128v-304q-10 0 -36 6q-10 144 -90 226h-2v-878h180q62 64 90 410q8 0 36 6v-488h-542v72h46v878h-48z" />
<glyph unicode="f" horiz-adv-x="618" d="M48 1060v72h48v76h-46v70h542v-304q-10 0 -36 6q-10 144 -90 228h-180v-76h128v-304q-10 0 -36 6q-10 144 -90 226h-2v-864q16 -44 78 -50v-34h-268v948h-48z" />
<glyph unicode="g" horiz-adv-x="640" d="M76 180v1032q0 68 70 68h354q70 0 70 -68v-76h-192v72h-110v-1026h110v870h192v-872q0 -68 -70 -68h-354q-70 0 -70 68z" />
<glyph unicode="h" horiz-adv-x="648" d="M8 1244v34h268v-142h108v142h190v-1082q16 -44 76 -50v-34h-266v952h-108v-952h-190v1082q-20 42 -78 50z" />
<glyph unicode="i" horiz-adv-x="360" d="M18 1244v34h266v-1082q16 -44 78 -50v-34h-268v1086q-18 38 -76 46z" />
<glyph unicode="j" horiz-adv-x="616" d="M68 180v736h192v-734h110v1026h-50v72h172q70 0 70 -68v-1032q0 -68 -70 -68h-356q-68 0 -68 68z" />
<glyph unicode="k" horiz-adv-x="632" d="M18 112v34q58 6 78 50v998q-20 42 -78 50v34h268l2 -208l68 124q9 16 9 28q0 19 -25 22l18 34h238l-126 -226l108 -856q24 -44 84 -50l6 -34h-268l-112 880v-880h-270z" />
<glyph unicode="l" horiz-adv-x="572" d="M16 1244v34h268v-1096h118q62 64 90 410q8 0 18 2l20 4v-488h-486v72h50v1012q-18 42 -78 50z" />
<glyph unicode="m" horiz-adv-x="936" d="M4 112v34q58 6 76 50v1010q0 72 76 72h222q70 0 90 -70q10 70 96 70h226q76 0 76 -72v-1010q16 -44 78 -50v-34h-268v1094h-108v-1094h-190v1094h-108v-1094h-266z" />
<glyph unicode="n" horiz-adv-x="646" d="M12 1244v34h264l110 -148v148h190v-1082q16 -44 78 -50v-34h-268v878l-108 146v-1024h-190v1082q-20 42 -76 50z" />
<glyph unicode="o" horiz-adv-x="608" d="M60 180v1032q0 68 70 68h356q68 0 68 -68v-1032q0 -68 -68 -68h-356q-70 0 -70 68zM252 182h110v1026h-110v-1026z" />
<glyph unicode="p" horiz-adv-x="598" d="M12 112v34q58 6 76 50v998q-18 42 -76 50v34l502 2q68 0 68 -68v-54q0 -48 -8 -66q-14 -28 -58 -28l-124 -2h-110v-950h-270zM282 1136h110v72h-110v-72z" />
<glyph unicode="q" horiz-adv-x="620" d="M70 180v1032q0 68 70 68h354q70 0 70 -68v-1032q0 -68 -70 -68h-92l-72 -268h-26l-36 142l-36 126h-92q-70 0 -70 68zM262 182h110v1026h-110v-1026z" />
<glyph unicode="r" horiz-adv-x="658" d="M6 112v34q58 6 76 50v998q-18 42 -76 50v34l502 2q70 0 70 -68v-54q0 -52 -110 -60q110 -10 110 -72v-830q30 -50 80 -50v-36h-272v952h-110v-950h-270zM276 1136h110v72h-110v-72z" />
<glyph unicode="s" horiz-adv-x="614" d="M62 196v644h192v-660h110v882l-228 2q-74 0 -74 50v80q0 84 80 84l282 2q68 0 68 -74h-238v-70l196 -2q58 0 82 -42t24 -66v-844q0 -72 -90 -72l-310 2q-94 0 -94 84z" />
<glyph unicode="t" horiz-adv-x="602" d="M26 974v304h556v-304q-10 0 -36 6q-12 144 -90 228h-58v-1012q18 -44 78 -50v-34h-344v34q58 6 76 50v1012h-56q-82 -84 -90 -228q-28 -6 -36 -6z" />
<glyph unicode="u" horiz-adv-x="644" d="M8 1244v34h268v-1094h108v1094h268v-34q-62 -8 -78 -50v-1010q0 -72 -78 -72h-334q-76 0 -76 72v1010q-18 42 -78 50z" />
<glyph unicode="v" horiz-adv-x="616" d="M-38 1278h264l80 -512l80 512h266l-6 -34q-60 -8 -84 -46l-156 -1018q24 -28 74 -34l4 -34h-356l4 34q48 6 74 34l-156 1018q-26 38 -82 46z" />
<glyph unicode="w" horiz-adv-x="1088" d="M-74 1278h266l214 -764l42 150l-172 614h190l78 -276l76 276h190l-172 -614l42 -152l216 766h266l-8 -34q-66 -8 -92 -50l-284 -1010q28 -32 82 -38l10 -34h-302l18 62l-42 152l-42 -150l16 -64h-302l10 34q52 6 82 38l-282 1010q-26 42 -90 50z" />
<glyph unicode="x" horiz-adv-x="644" d="M-36 112l12 34q60 6 90 50l156 496l-158 506q-32 38 -88 46l-12 34h266l88 -282l88 282h266l-10 -34q-60 -8 -92 -46l-158 -506l156 -496q28 -44 94 -50l10 -34h-268l-86 278l-88 -278h-266z" />
<glyph unicode="y" horiz-adv-x="616" d="M-78 1278h266l118 -376l116 376h268l-12 -34q-60 -8 -90 -46l-188 -598v-404q16 -44 78 -50v-34h-346v34q60 6 78 50v404l-188 598q-28 38 -88 46z" />
<glyph unicode="z" horiz-adv-x="578" d="M34 112l306 1096h-148q-80 -86 -88 -228q-14 -2 -38 -6v304h484l-306 -1096h150q80 84 90 228q8 0 36 6v-304h-486z" />
<glyph unicode="&#xad;" d="M74 914v88h354v-88h-354z" />
<glyph unicode="&#x2000;" horiz-adv-x="730" />
<glyph unicode="&#x2001;" horiz-adv-x="1460" />
<glyph unicode="&#x2002;" horiz-adv-x="730" />
<glyph unicode="&#x2003;" horiz-adv-x="1460" />
<glyph unicode="&#x2004;" horiz-adv-x="486" />
<glyph unicode="&#x2005;" horiz-adv-x="365" />
<glyph unicode="&#x2006;" horiz-adv-x="243" />
<glyph unicode="&#x2007;" horiz-adv-x="243" />
<glyph unicode="&#x2008;" horiz-adv-x="182" />
<glyph unicode="&#x2009;" horiz-adv-x="292" />
<glyph unicode="&#x200a;" horiz-adv-x="81" />
<glyph unicode="&#x2010;" d="M74 914v88h354v-88h-354z" />
<glyph unicode="&#x2011;" d="M74 914v88h354v-88h-354z" />
<glyph unicode="&#x2012;" d="M74 914v88h354v-88h-354z" />
<glyph unicode="&#x2013;" horiz-adv-x="1164" d="M74 914v88h1024v-88h-1024z" />
<glyph unicode="&#x2014;" horiz-adv-x="2188" d="M74 914v88h2048v-88h-2048z" />
<glyph unicode="&#x2018;" horiz-adv-x="356" d="M50 1460h250l-64 -234l-46 -178h-30z" />
<glyph unicode="&#x2019;" horiz-adv-x="356" d="M50 1460h250l-64 -234l-46 -178h-30z" />
<glyph unicode="&#x201c;" horiz-adv-x="622" d="M36 1460h250l-110 -412h-30zM340 1460h250l-110 -412h-30z" />
<glyph unicode="&#x201d;" horiz-adv-x="622" d="M36 1460h250l-110 -412h-30zM340 1460h250l-110 -412h-30z" />
<glyph unicode="&#x202f;" horiz-adv-x="292" />
<glyph unicode="&#x205f;" horiz-adv-x="365" />
<glyph unicode="&#x25fc;" horiz-adv-x="1280" d="M0 0v1280h1280v-1280h-1280z" />
</font>
</defs>
</svg>
