<?xml version="1.0" standalone="no"?>
<!DOCTYPE svg PUBLIC "-//W3C//DTD SVG 1.1//EN" "http://www.w3.org/Graphics/SVG/1.1/DTD/svg11.dtd" >
<svg xmlns="http://www.w3.org/2000/svg" xmlns:xlink="http://www.w3.org/1999/xlink" version="1.1">
<metadata>
Created by FontForge 20170731 at Wed Oct  3 01:14:57 2012
 By Aleksey,,,
Copyright (c) 2012 by Kimberly Geswein. All rights reserved.
</metadata>
<defs>
<font id="KGWaystoSayGoodbye" horiz-adv-x="394" >
  <font-face 
    font-family="KG Ways to Say Goodbye"
    font-weight="400"
    font-stretch="normal"
    units-per-em="1024"
    panose-1="2 0 5 6 0 0 0 2 0 3"
    ascent="819"
    descent="-205"
    x-height="396.5"
    cap-height="599"
    bbox="-576.621 -983.985 763 1386.18"
    underline-thickness="0"
    underline-position="0"
    unicode-range="U+0020-2212"
  />
<missing-glyph horiz-adv-x="234" 
 />
    <glyph glyph-name=".notdef" horiz-adv-x="234" 
 />
    <glyph glyph-name=".null" horiz-adv-x="0" 
 />
    <glyph glyph-name="nonmarkingreturn" horiz-adv-x="234" 
 />
    <glyph glyph-name="space" unicode=" " horiz-adv-x="234" 
 />
    <glyph glyph-name="space" unicode="&#xa0;" horiz-adv-x="234" 
 />
    <glyph glyph-name="exclam" unicode="!" horiz-adv-x="92" 
d="M71 116q-31 -5 -47 26q-5 8 -7.5 22.5t-2.5 48.5l2 387q8 5 17.5 3.5t18.5 -7.5t15 -16.5t7 -23.5zM81 32q0 -16 -11 -22.5t-24 -6t-24 8t-11 18.5q0 17 11 23.5t24 5.5t24 -8.5t11 -18.5z" />
    <glyph glyph-name="quotedbl" unicode="&#x22;" horiz-adv-x="242" 
d="M68 358q5 23 -3.5 34.5t-17.5 21.5t-12.5 23.5t10.5 41.5q25 -5 41 -20t24.5 -34.5t10.5 -40t-2 -36.5q-10 -42 -34.5 -57t-53.5 1q5 6 9.5 10.5t9 11.5t9 17t9.5 27zM171 367q5 23 -3.5 34.5t-17.5 21.5t-12.5 23.5t10.5 41.5q25 -5 41 -20t24.5 -34.5t10.5 -40
t-2 -36.5q-10 -42 -34.5 -57t-53.5 1q5 6 9.5 10.5t9 11.5t9 17t9.5 27z" />
    <glyph glyph-name="numbersign" unicode="#" horiz-adv-x="396" 
d="M113 303v53l-79 1q-5 8 -3.5 17.5t8 18.5t17 15t23.5 6l34 -1l1 83q8 5 17.5 3.5t18.5 -8t15 -17t6 -23.5l-1 -38l52 -1l1 78q8 5 17.5 3.5t18.5 -8t15 -17t6 -23.5l-1 -33l96 -1q3 -31 -27 -47q-4 -2 -8.5 -3.5t-11.5 -2.5t-17.5 -1.5t-27.5 -0.5h-4l-1 -54l91 -1
q3 -31 -27 -47q-8 -4 -19.5 -6.5t-44.5 -1.5l-1 -97q-31 -3 -47 27q-4 8 -6.5 20.5t-1.5 46.5v3h-53l-1 -91q-31 -3 -47 27q-4 8 -6.5 20t-1.5 44l-85 1q-5 8 -3.5 17.5t8 18.5t17 15t23.5 6zM169 303l53 -1v54h-52z" />
    <glyph glyph-name="dollar" unicode="$" horiz-adv-x="348" 
d="M130 -3q-45 9 -75 36.5t-42 58t-3.5 56.5t39.5 33q-1 -27 6 -48.5t19.5 -38t29 -27t34.5 -15.5l3 246q-23 14 -44.5 29t-38 33t-25.5 40t-7 50q4 59 39 94t80 47l1 44q15 2 28 -5t21 -21q1 -2 2 -5l2 -6h9q20 -1 43 -10.5t40 -25t23 -36.5t-8 -45q-25 23 -46.5 41.5
t-54.5 20.5v-5l-3 -206q27 -16 54 -34t47 -41t29.5 -52t3.5 -68q-11 -63 -49 -95t-89 -42l-1 -58q-8 -5 -18 -3.5t-19 7.5t-15.5 16.5t-7.5 23.5v11h-7zM277 140q4 21 0 38.5t-14.5 32t-26.5 27t-35 24.5l-3 -210q28 8 49.5 29.5t29.5 58.5zM87 451q-5 -26 11.5 -46.5
t43.5 -37.5l2 167q-48 -22 -57 -83z" />
    <glyph glyph-name="percent" unicode="%" horiz-adv-x="259" 
d="M213 606q15 -3 25.5 -14t12.5 -27q2 -10 -1 -24.5t-14 -46.5l-184 -499q-9 -2 -18 2.5t-15.5 13t-9 20.5t0.5 25zM34 555q0 18 12.5 25.5t27.5 7t27.5 -8.5t12.5 -21q0 -20 -12.5 -27.5t-27.5 -6t-27.5 10t-12.5 20.5zM157 37q0 18 12.5 25.5t27.5 7t27.5 -8.5t12.5 -21
q0 -20 -12.5 -27.5t-27.5 -6t-27.5 10t-12.5 20.5z" />
    <glyph glyph-name="ampersand" unicode="&#x26;" horiz-adv-x="345" 
d="M132 6q-45 2 -70 21.5t-35 48.5t-7 64.5t14.5 70t28.5 65t35 49.5q-28 40 -43.5 86.5t-14 88t23 70.5t67.5 34q32 3 52 -9t29.5 -34t9.5 -51.5t-7.5 -61t-21 -63t-30.5 -56.5l85 -144q2 3 5.5 20t11 35.5t20.5 31.5t34 8q-4 -36 -8 -61t-8.5 -42t-8.5 -28.5t-7 -21.5
q9 -13 21.5 -30t20 -35t5 -35t-24.5 -30q-7 6 -14.5 17t-15 23t-15 23.5t-13.5 17.5q-10 -15 -24 -28t-29.5 -23t-32.5 -16t-33 -5zM128 275q-23 -29 -37 -64.5t-16 -68t9.5 -55.5t39.5 -27q11 -2 24 2.5t26 13.5t24 22t18 28q-25 45 -41.5 73.5t-27 45.5t-15 23.5zM131 382
q21 29 30 60t9 56t-8.5 41t-21.5 15q-11 -1 -23 -11.5t-17.5 -32t0 -53.5t31.5 -75z" />
    <glyph glyph-name="quotesingle" unicode="'" horiz-adv-x="140" 
d="M68 358q5 23 -3.5 34.5t-17.5 21.5t-12.5 23.5t10.5 41.5q25 -5 41 -20t24.5 -34.5t10.5 -40t-2 -36.5q-10 -42 -34.5 -57t-53.5 1q5 6 9.5 10.5t9 11.5t9 17t9.5 27z" />
    <glyph glyph-name="parenleft" unicode="(" horiz-adv-x="279" 
d="M164 -32q-48 28 -80 77.5t-47.5 110.5t-15 128t16 130.5t46 118.5t75.5 92q20 16 37 20t30 1t20.5 -11.5t8.5 -17.5q-39 -16 -70 -50t-53 -78.5t-34.5 -96.5t-14 -104.5t8.5 -102t32.5 -90t58.5 -68t86 -35.5q-2 -14 -12 -23t-24.5 -13t-32.5 -1.5t-36 13.5z" />
    <glyph glyph-name="parenright" unicode=")" horiz-adv-x="226" 
d="M75 640q48 -28 80 -77.5t47.5 -110.5t15 -128t-16 -130.5t-46 -119t-75.5 -91.5q-20 -16 -37 -20t-30 -1t-20.5 11.5t-8.5 17.5q39 16 70 50t53 78.5t34.5 96t14 104t-8.5 102.5t-32.5 90.5t-58.5 68t-86 35.5q2 13 12 22.5t24.5 13.5t32.5 1t36 -13z" />
    <glyph glyph-name="asterisk" unicode="*" horiz-adv-x="380" 
d="M238 356l127 -1q3 -31 -27 -47q-8 -4 -22.5 -6.5t-48.5 -1.5h-37l70 -114q-26 -19 -54 -2q-8 5 -17.5 16t-26.5 40l-22 35l-80 -113q-29 16 -24 49q2 9 8 22.5t27 39.5l19 27l-106 1q-5 8 -3.5 17.5t8 18.5t17 15t23.5 6l60 -1l-55 89q4 9 13 13t19.5 3t21 -6.5
t18.5 -16.5l38 -63l67 96q9 0 16.5 -6.5t10.5 -17t2 -22.5t-8 -23z" />
    <glyph glyph-name="plus" unicode="+" horiz-adv-x="393" 
d="M167 287l-141 1q-5 8 -3.5 17.5t8 18.5t17 15t23.5 6l96 -1l2 146q31 3 47 -27q4 -8 6.5 -22.5t1.5 -48.5v-49l143 -1q3 -31 -27 -47q-8 -4 -22.5 -6.5t-48.5 -1.5h-46v-138q-8 -5 -17.5 -3.5t-18.5 8t-15 17t-6 23.5z" />
    <glyph glyph-name="comma" unicode="," horiz-adv-x="156" 
d="M79 -27q5 23 -3.5 34.5t-17.5 21.5t-12.5 23.5t10.5 41.5q25 -5 41 -20t24.5 -34.5t10.5 -40t-2 -36.5q-10 -42 -34.5 -57t-53.5 1q5 6 9.5 10.5t9 11.5t9 17t9.5 27z" />
    <glyph glyph-name="hyphen" unicode="-" horiz-adv-x="383" 
d="M367 342q3 -31 -27 -47q-8 -4 -22.5 -6.5t-48.5 -1.5l-243 1q-5 8 -3.5 17.5t8 18.5t17 15t23.5 6z" />
    <glyph glyph-name="period" unicode="." horiz-adv-x="126" 
d="M30 37q0 18 12.5 25.5t27.5 7t27.5 -8.5t12.5 -21q0 -20 -12.5 -27.5t-27.5 -6t-27.5 10t-12.5 20.5z" />
    <glyph glyph-name="slash" unicode="/" horiz-adv-x="259" 
d="M213 606q15 -3 25.5 -14t12.5 -27q2 -10 -1 -24.5t-14 -46.5l-184 -499q-9 -2 -18 2.5t-15.5 13t-9 20.5t0.5 25z" />
    <glyph glyph-name="zero" unicode="0" horiz-adv-x="404" 
d="M195 -2q-48 0 -83 22t-58.5 58.5t-35 84.5t-12.5 100q-2 61 11 122t38.5 109.5t63.5 79t86 30.5t84.5 -28t60 -73.5t34.5 -103.5t9 -117q-2 -54 -15 -105t-38 -90.5t-61 -64t-84 -24.5zM193 50q33 -1 57 18t40.5 51.5t25 75t10.5 87.5q1 49 -6 96.5t-22 85t-38.5 59.5
t-54.5 21q-33 -2 -59 -26.5t-43.5 -63t-26.5 -86.5t-8 -97q0 -42 8 -81.5t23.5 -70t38.5 -49.5t55 -20z" />
    <glyph glyph-name="one" unicode="1" horiz-adv-x="99" 
d="M14 599q15 2 28 -5t21 -21q5 -8 7.5 -22.5t2.5 -48.5l8 -500q-8 -5 -18 -3.5t-19 7.5t-15.5 16.5t-7.5 23.5z" />
    <glyph glyph-name="two" unicode="2" horiz-adv-x="330" 
d="M64 0q-11 -1 -22 4t-17.5 14.5t-8 23.5t7.5 31q10 21 26.5 50t37 61.5t42 66t40.5 63t33.5 52.5t20.5 35q12 23 17 48.5t1 47.5t-18 36t-40 14q-23 0 -39.5 -11.5t-29 -28.5t-22.5 -35.5t-20.5 -33t-23 -21t-29.5 1.5q10 33 24 65.5t34 58.5t46 42t60 16q48 0 74 -27
t33.5 -66.5t-2.5 -84.5t-36 -82q-6 -8 -19.5 -29t-31 -49t-36.5 -60t-36 -61t-30 -53t-18 -36l227 3q0 -17 -13.5 -28t-35 -17.5t-48 -9t-54 -2.5t-52.5 0.5t-42 0.5z" />
    <glyph glyph-name="three" unicode="3" horiz-adv-x="353" 
d="M277 140q0 21 -9.5 38.5t-24.5 33t-33 28.5t-36 24q-15 9 -24.5 22.5t-9.5 27t10 25t33 15.5q15 3 32 11t31 20.5t23 29t9 36.5q0 23 -8.5 41t-24.5 30t-37 17t-46 4q-17 -1 -30.5 -6.5t-25.5 -14t-23.5 -19t-23.5 -22.5q-14 24 -8 45t23 36.5t40 25t43 10.5q30 2 62 -6
t59 -26.5t44 -47.5t17 -68q0 -34 -14 -60t-34.5 -44t-42.5 -28.5t-37 -13.5q15 -7 37.5 -21.5t43 -35.5t34 -49t10.5 -61q-3 -42 -20.5 -70.5t-44 -45t-60.5 -22.5t-70 -1q-46 6 -78 33t-45.5 58t-6.5 58t38 34q-1 -39 15.5 -67t42 -44.5t55 -21t55.5 4t43 30t17 57.5z" />
    <glyph glyph-name="four" unicode="4" horiz-adv-x="327" 
d="M254 271h-187q-7 0 -16.5 2t-17.5 6.5t-14 13t-6 20.5l1 288q31 5 47 -26q5 -8 7.5 -22.5t2.5 -48.5l-5 -180h187l-3 277q31 5 47 -26q5 -8 7.5 -22.5t2.5 -48.5l8 -500q-8 -5 -17.5 -3.5t-18.5 7.5t-15 16.5t-7 23.5z" />
    <glyph glyph-name="five" unicode="5" horiz-adv-x="332" 
d="M130 3q-46 6 -75.5 32t-40 56.5t-1 57t40.5 33.5q-1 -39 12.5 -67t35 -44.5t47 -21t49 3.5t41 29.5t22.5 57.5q7 48 -10 82.5t-47.5 55.5t-71.5 28t-82 0q-17 -3 -27.5 8.5t-10.5 28.5q0 18 0.5 49.5t1 64.5t2 62.5t4.5 43.5q4 22 17 30.5t39 7.5h74t78.5 -5t61.5 -17.5
t24 -37.5l-245 3l-4 -180q48 7 97.5 -5.5t88 -42t59 -75t10.5 -104.5q-13 -78 -65 -111t-125 -23z" />
    <glyph glyph-name="six" unicode="6" horiz-adv-x="342" 
d="M271 605q11 -20 7 -34.5t-17.5 -29t-35 -31.5t-46 -41t-49.5 -57.5t-46 -81.5q54 16 98.5 11t76.5 -24.5t51 -50.5t22 -66q4 -49 -12.5 -91t-48.5 -69.5t-75 -37t-91 7.5q-32 11 -53.5 36t-33 60.5t-13 78t7.5 87.5q9 48 31 97t54.5 93t76 81t96.5 62zM274 197
q-7 34 -28.5 55t-50 29t-60.5 4.5t-60 -16.5q-11 -28 -13 -65.5t8.5 -72t35 -59t66.5 -24.5q28 0 49.5 14t34.5 35.5t18 48t0 51.5z" />
    <glyph glyph-name="seven" unicode="7" horiz-adv-x="329" 
d="M271 546h-212q-13 0 -23.5 5.5t-17 14t-8.5 18t3 17.5h250q46 0 55.5 -20t0.5 -58l-106 -441q-8 -35 -22.5 -52.5t-28 -25t-23.5 -6.5t-9 4z" />
    <glyph glyph-name="eight" unicode="8" horiz-adv-x="330" 
d="M151 -1q-58 0 -94 24.5t-43.5 67t16.5 99.5t87 122q-38 30 -62.5 68.5t-28.5 72.5q-5 46 14 78t50.5 49.5t70 22t70.5 -4.5t52.5 -31t17.5 -57q-2 -23 -12.5 -48.5t-25 -51t-30.5 -49t-29 -40.5q25 -18 48.5 -38.5t40 -44.5t23.5 -53.5t-1 -65.5q-17 -66 -61.5 -92.5
t-102.5 -27.5zM256 129q6 24 0.5 43.5t-19.5 37t-33.5 33.5t-41.5 32q-58 -62 -76 -105t-12 -70t28.5 -39.5t46.5 -13.5q32 -2 63 18t44 64zM235 499q5 20 -4.5 32t-26 16t-37 0.5t-38.5 -13.5t-30.5 -27.5t-12.5 -40.5q0 -26 20 -56t50 -53q12 15 24.5 33.5t23.5 38
t19 37.5t12 33z" />
    <glyph glyph-name="nine" unicode="9" horiz-adv-x="326" 
d="M314 0q-19 2 -30.5 10.5t-17.5 34.5t-7 76t1 135q-55 -16 -98.5 -10t-74 27t-49 52.5t-23.5 66.5q-6 41 5.5 82t41.5 70t79 41.5t117 -3.5q4 3 7.5 7t9.5 8t15 6t24 -1v-602zM258 523q-49 21 -85.5 15t-60 -28t-33 -54.5t-4.5 -63.5q4 -25 17 -46t35.5 -33t55 -12.5
t74.5 16.5z" />
    <glyph glyph-name="colon" unicode=":" horiz-adv-x="164" 
d="M45 325q0 18 12.5 25.5t27.5 7t27.5 -9t12.5 -21.5q0 -19 -12.5 -26.5t-27.5 -6t-27.5 10t-12.5 20.5zM46 197q0 18 12.5 25.5t27.5 7t27.5 -9t12.5 -21.5q0 -19 -12.5 -26.5t-27.5 -6t-27.5 10t-12.5 20.5z" />
    <glyph glyph-name="semicolon" unicode=";" horiz-adv-x="155" 
d="M28 186q0 18 12.5 25.5t27.5 7t27.5 -9t12.5 -21.5q0 -19 -12.5 -26.5t-27.5 -6t-27.5 10t-12.5 20.5zM79 -27q5 23 -3.5 34.5t-17.5 21.5t-12.5 23.5t10.5 41.5q25 -5 41 -20t24.5 -34.5t10.5 -40t-2 -36.5q-10 -42 -34.5 -57t-53.5 1q5 6 9.5 10.5t9 11.5t9 17t9.5 27z
" />
    <glyph glyph-name="less" unicode="&#x3c;" horiz-adv-x="364" 
d="M321 411q11 -19 5 -37t-20 -24l-165 -70l154 -54q13 -3 21.5 -12.5t12 -20.5t3 -20.5t-6.5 -12.5q-22 4 -61 16t-81 25.5t-79.5 26.5t-56.5 19q-12 4 -16 13t-2.5 18.5t7.5 18t14 10.5q31 11 69 26.5t76 30.5t71.5 28t54.5 19z" />
    <glyph glyph-name="equal" unicode="=" horiz-adv-x="396" 
d="M375 365q3 -31 -27 -47q-8 -4 -22.5 -6.5t-48.5 -1.5l-243 1q-5 8 -3.5 17.5t8 18.5t17 15t23.5 6zM369 265q3 -31 -27 -47q-8 -4 -22.5 -6.5t-48.5 -1.5l-243 1q-5 8 -3.5 17.5t8 18.5t17 15t23.5 6z" />
    <glyph glyph-name="greater" unicode="&#x3e;" horiz-adv-x="338" 
d="M35 160q-11 19 -5 37t20 24l165 70l-154 54q-13 3 -21.5 12.5t-12.5 20.5t-3 20.5t7 12.5q22 -5 61 -16.5t81 -25t79.5 -26.5t56.5 -19q12 -4 15.5 -13t2 -18.5t-7 -18t-13.5 -10.5q-31 -11 -69 -26.5t-76 -30.5t-71.5 -28t-54.5 -19z" />
    <glyph glyph-name="question" unicode="?" horiz-adv-x="340" 
d="M181 601q60 -5 97 -39.5t48 -99.5q10 -59 -7.5 -101.5t-48.5 -69t-69.5 -38.5t-70.5 -10l2 -126q-24 0 -36 10t-17.5 29.5t-5.5 47.5t1 63q0 17 12.5 27.5t29.5 8.5q31 -3 61.5 3t52.5 24t33 49.5t4 79.5q-5 35 -22.5 57t-41 30t-49 3.5t-47 -21t-35 -44.5t-12.5 -67
q-27 7 -37 24.5t-7 39t17 44t36.5 40.5t51 28.5t60.5 7.5zM74 29q0 18 12.5 25.5t27.5 7t27.5 -9t12.5 -21.5q0 -19 -12.5 -26.5t-27.5 -6t-27.5 10t-12.5 20.5z" />
    <glyph glyph-name="at" unicode="@" horiz-adv-x="544" 
d="M485 136q-32 -53 -86 -86t-132 -34q-72 0 -123 24t-82 64t-44 91.5t-8.5 105t25 105.5t55.5 93t83.5 66.5t108.5 26.5q71 1 123 -28t83.5 -74t42.5 -99.5t1.5 -103.5t-40.5 -85.5t-83 -45.5q-10 -2 -20 1.5t-19.5 15t-17 31t-11.5 49.5q-11 -29 -28 -44.5t-36 -29.5
q-30 -22 -60 -25t-54.5 8t-40 34.5t-18 55t11.5 69t50 76.5q29 32 73.5 55t92.5 28q32 0 50 -13t18 -48q0 -38 -2.5 -77t-2.5 -70t4.5 -49.5t17.5 -16.5q16 3 28.5 17t21.5 34t13 43t3 44q-3 42 -19 78t-42 62.5t-61 40.5t-77 12q-48 -2 -86.5 -23.5t-66.5 -54.5t-44 -74.5
t-19.5 -84.5t6.5 -84t34.5 -73t65 -52t97.5 -20q40 0 68 14.5t51.5 30t45.5 24t49 -3.5zM333 424q-42 -5 -75 -22.5t-56 -44.5t-29.5 -59.5t1 -56t29.5 -30t57 19.5q18 13 32.5 34t25 46.5t14.5 54.5t1 58z" />
    <glyph glyph-name="A" unicode="A" horiz-adv-x="401" 
d="M128 222q-9 -37 -18 -74.5t-21 -67t-29.5 -47t-43.5 -14.5q16 59 31 124.5t32 133t37.5 135.5t47.5 134q12 29 27 41.5t31 11.5q19 -1 36 -23t27 -54q10 -35 24 -92.5t28.5 -126.5t29.5 -144t28 -147q-22 -3 -37 17t-26.5 52t-20 70.5t-16.5 72.5zM278 285
q-7 47 -14.5 89.5t-15 75.5t-14.5 53.5t-14 23.5q-5 2 -12.5 -18.5t-18 -55t-23 -78.5t-27.5 -90h139z" />
    <glyph glyph-name="B" unicode="B" horiz-adv-x="324" 
d="M13 601q15 1 24 -0.5t14.5 -7t8.5 -13.5t7 -18q57 33 100.5 34t71.5 -18.5t40.5 -54.5t7.5 -72.5t-28.5 -72t-66.5 -54.5q37 -5 64 -24t43 -48.5t20 -66.5t-6 -76q-12 -42 -42 -73t-83 -36q-28 -2 -58.5 3.5t-59.5 26.5q0 -18 -16 -27.5t-38 -2.5zM70 87q31 -25 59.5 -34
t52.5 -5q34 7 53.5 30t26.5 52q8 42 -4.5 75.5t-40 52t-67 19.5t-85.5 -21zM236 483q-2 33 -19 48.5t-41.5 16.5t-53 -10.5t-53.5 -31.5l-1 -178q27 1 57 14.5t55 34.5t41 48.5t15 57.5z" />
    <glyph glyph-name="C" unicode="C" horiz-adv-x="353" 
d="M237 0q-59 -3 -101.5 20.5t-70 64t-39.5 95.5t-9 115q2 53 17.5 98.5t38.5 81t50 61t53 39.5q28 15 54.5 20.5t47.5 2t34.5 -15.5t13.5 -31q-52 1 -96 -18.5t-76.5 -54.5t-51 -83.5t-20.5 -106.5q-2 -63 11.5 -112t45 -80t82.5 -41.5t125 3.5q-4 -27 -32.5 -41.5
t-76.5 -16.5z" />
    <glyph glyph-name="D" unicode="D" horiz-adv-x="385" 
d="M49 556q-6 1 -13 2.5t-12.5 5.5t-9.5 12t-4 22q103 10 173.5 -8.5t114 -57.5t62 -93.5t17.5 -117.5q-2 -87 -31.5 -150.5t-80.5 -103.5t-118.5 -55.5t-143.5 -5.5q5 16 15 29.5t34 15.5zM319 319q0 40 -11.5 81t-36.5 74t-65 54.5t-95 21.5q-1 0 -1.5 -5t-0.5 -22v-49
t0.5 -86.5t0.5 -135.5v-194q46 0 84 23t66 60t43.5 83.5t15.5 94.5z" />
    <glyph glyph-name="E" unicode="E" 
d="M81 2q-21 0 -39.5 9t-18.5 35l-6 497q0 27 17 42.5t46 15.5h295q4 -8 2.5 -17.5t-8 -18t-17 -14.5t-23.5 -6l-257 1q0 -3 0.5 -9t0.5 -25.5t0.5 -57.5t1.5 -105h222q4 -8 2 -17t-8.5 -17t-17.5 -13t-24 -5l-173 -3l4 -236l302 -2q4 -8 2 -17t-8.5 -17t-17.5 -13t-24 -5z
" />
    <glyph glyph-name="F" unicode="F" horiz-adv-x="382" 
d="M75 2q0 -3 -8 -0.5t-18 13.5t-18.5 32.5t-8.5 56.5l-5 439q0 27 17 42.5t46 15.5h295q4 -8 2.5 -17.5t-8 -18t-17 -14.5t-23.5 -6l-257 1q0 -3 0.5 -9t0.5 -25.5t0.5 -57.5t1.5 -105h222q4 -8 2 -17t-8.5 -17t-17.5 -13t-24 -5l-173 -3z" />
    <glyph glyph-name="G" unicode="G" 
d="M14 217q-5 70 11.5 138t49.5 121.5t78.5 88t99.5 39.5q45 4 72.5 -13.5t29.5 -55.5q-23 5 -46.5 11.5t-52.5 2.5q-49 -6 -85.5 -44t-60 -89t-32.5 -106t-4 -97q9 -68 41.5 -110.5t91.5 -42.5q44 0 69.5 20.5t38 53t15.5 72t3 77.5q-40 -1 -62.5 3.5t-34.5 12t-16 17.5
t-5 20l117 4q20 1 31 -10t16 -28t6 -37t1 -38q0 -39 -10 -79t-32 -72.5t-55.5 -53t-81.5 -20.5q-36 0 -69.5 13t-59.5 39.5t-43 67t-21 95.5z" />
    <glyph glyph-name="H" unicode="H" horiz-adv-x="336" 
d="M264 271h-187l4 -269q-8 -5 -17.5 -3.5t-18.5 7.5t-15 16.5t-7 23.5l-7 553q31 5 47 -26q5 -8 7.5 -22.5t2.5 -48.5l3 -178h187l-3 277q31 5 47 -26q5 -8 7.5 -22.5t2.5 -48.5l8 -500q-8 -5 -17.5 -3.5t-18.5 7.5t-15 16.5t-7 23.5z" />
    <glyph glyph-name="I" unicode="I" horiz-adv-x="94" 
d="M14 599q15 2 28 -5t21 -21q5 -8 7.5 -22.5t2.5 -48.5l8 -500q-8 -5 -18 -3.5t-19 7.5t-15.5 16.5t-7.5 23.5z" />
    <glyph glyph-name="J" unicode="J" horiz-adv-x="362" 
d="M19 157q20 6 32.5 1.5t21 -15.5t15 -25t15.5 -27t22.5 -23t35.5 -11q63 -5 97 69.5t32 224.5q-1 86 2 135.5t10 74t18.5 31.5t27.5 7l1 -239q0 -105 -13.5 -174.5t-39 -111t-61 -58.5t-77.5 -17q-30 0 -53.5 13.5t-41 36t-29 50.5t-15.5 58z" />
    <glyph glyph-name="K" unicode="K" horiz-adv-x="314" 
d="M17 -4q-2 148 -3 296.5t-2 313.5q24 1 36.5 -16.5t17.5 -47.5t5.5 -68.5t0.5 -79.5q19 14 46 39.5t56.5 55.5t59.5 61t54 56q22 -23 9.5 -56t-44 -69.5t-73 -74t-76.5 -70.5q22 -32 49 -65l54 -66t50.5 -64t38.5 -58.5t17.5 -51.5t-11.5 -41l-229 285q-2 -24 -0.5 -54
t2.5 -61.5t0 -61t-6.5 -53t-18 -37t-33.5 -12.5z" />
    <glyph glyph-name="L" unicode="L" horiz-adv-x="307" 
d="M11 39q2 53 3 124t1.5 147.5t0 151.5t-2.5 137q16 1 27.5 -3.5t19 -23.5t11.5 -55t5.5 -96t0 -148.5t-4.5 -212.5q12 -1 33.5 -0.5t46.5 0.5t50.5 -2t46.5 -8t34.5 -17t13.5 -28q-14 -3 -45.5 -3.5t-67 -0.5t-67.5 0.5t-47 0.5q-10 0 -20.5 1.5t-19 5.5t-14 11.5
t-5.5 18.5z" />
    <glyph glyph-name="M" unicode="M" horiz-adv-x="486" 
d="M26 558q4 20 12 29.5t17.5 10.5t19.5 -4.5t18 -15.5l151 -250q2 5 10 22.5t19 41t23.5 50t23.5 49.5t19 40.5t11 22.5q11 23 26.5 34t30 12t25 -8.5t11.5 -27.5l29 -570q-19 2 -31.5 10.5t-20.5 29.5t-12.5 57.5t-7 94t-4.5 138.5t-4 191l-105 -233q-21 -27 -45 -29.5
t-46 26.5l-113 197q-2 -102 -2 -190.5t-5 -152.5t-19 -100t-45 -33z" />
    <glyph glyph-name="N" unicode="N" horiz-adv-x="425" 
d="M26 558q4 20 12 29.5t17.5 10.5t19.5 -4.5t18 -15.5l260 -498q-1 137 -3 234t2.5 160t17.5 94t42 36v-570q0 -14 -11.5 -23t-27.5 -11.5t-33 2t-28 19.5l-229 455q-2 -102 -2 -190.5t-5 -152.5t-19 -100t-45 -33z" />
    <glyph glyph-name="O" unicode="O" horiz-adv-x="393" 
d="M195 -2q-48 0 -83 22t-58.5 58.5t-35 84.5t-12.5 100q-2 61 11 122t38.5 109.5t63.5 79t86 30.5t84.5 -28t60 -73.5t34.5 -103.5t9 -117q-2 -54 -15 -105t-38 -90.5t-61 -64t-84 -24.5zM193 50q33 -1 58 18.5t43 52t27.5 75t11.5 87.5q1 49 -7 96.5t-24.5 84.5t-41 59
t-55.5 21q-33 -2 -59 -26.5t-43.5 -63t-26.5 -86.5t-8 -97q0 -42 8 -81.5t23.5 -70t38.5 -49.5t55 -20z" />
    <glyph glyph-name="P" unicode="P" horiz-adv-x="319" 
d="M10 602q15 3 24 1t15 -6t9.5 -8t7.5 -7q31 4 73.5 3t81 -13.5t65.5 -39.5t27 -75q0 -44 -18.5 -80t-52 -62t-79.5 -41t-99 -18q2 -85 1 -135t-7 -76t-17.5 -34.5t-30.5 -10.5v602zM67 317q43 -1 78.5 10.5t60.5 31t38 45t12 53.5q-2 31 -23.5 49t-51 24.5t-61.5 4
t-54 -11.5z" />
    <glyph glyph-name="Q" unicode="Q" horiz-adv-x="411" 
d="M302 40q-45 -41 -107 -42q-48 0 -83 22t-58.5 58.5t-35 84.5t-12.5 100q-2 61 11 122t38.5 109.5t63.5 79t86 30.5t84.5 -28t60 -73.5t34.5 -103.5t9 -117q-2 -54 -15 -104.5t-37 -89.5l61 -80q-3 -9 -12 -14t-20 -5.5t-22.5 4t-19.5 14.5zM193 50q44 -1 75 36l-93 124
q15 11 29.5 10.5t28 -8t25.5 -20t22 -25.5l20 -26q12 30 18 66.5t8 74.5q1 49 -6 96.5t-22 85t-38.5 59.5t-54.5 21q-33 -2 -59 -26.5t-43.5 -63t-26.5 -86.5t-8 -97q0 -42 8 -81.5t23.5 -70t38.5 -49.5t55 -20z" />
    <glyph glyph-name="R" unicode="R" horiz-adv-x="358" 
d="M14 2q0 16 0.5 60.5t2 104t3 127t3 129t2.5 110t1 71.5q16 1 27.5 -5.5t18.5 -18t8.5 -25.5t-1.5 -28q22 29 52 47.5t60 24.5q37 7 69 -0.5t54 -26.5t32.5 -47t6.5 -61q-6 -45 -31.5 -77.5t-59.5 -53.5t-72 -30t-69 -8l239 -290q-22 -9 -47.5 1.5t-52 33.5t-52.5 54.5
t-50.5 63.5t-45 61t-35.5 47q-2 -97 -6.5 -150.5t-12 -79t-18.5 -30t-26 -4.5zM77 350q18 -3 51 -2.5t67 10.5t63.5 33.5t40.5 67.5q5 19 1 38t-16.5 33t-33 20.5t-47.5 0.5q-29 -6 -53 -25t-41 -46.5t-26 -61t-6 -68.5z" />
    <glyph glyph-name="S" unicode="S" horiz-adv-x="348" 
d="M130 -3q-45 9 -75 36.5t-42 58t-3.5 56.5t39.5 33q-1 -39 13.5 -67t37 -44t50.5 -20.5t53.5 4t45.5 30t28 56.5q7 36 -9 61.5t-45 46.5t-64.5 40t-66 41.5t-50 51.5t-16.5 69q3 39 20.5 68t43.5 47.5t57 26.5t61 6q20 -1 43 -10.5t40 -25t23 -36.5t-8 -45
q-12 12 -23.5 22.5t-23.5 19t-25.5 14t-30.5 6.5q-50 3 -79 -21.5t-37 -70.5q-5 -28 14 -49t49.5 -40t66 -38.5t65 -45t46 -59.5t8.5 -82q-7 -41 -26.5 -69t-47 -44.5t-61.5 -22.5t-71 -4z" />
    <glyph glyph-name="T" unicode="T" horiz-adv-x="343" 
d="M143 539q-18 1 -42 1.5t-45 5t-35.5 16t-14.5 33.5h329q0 -9 0.5 -19t-10.5 -18.5t-39 -13.5t-85 -5q2 -132 2 -223.5t-2.5 -152t-7 -94t-11.5 -48.5t-16 -17t-21 1l-2 534v0z" />
    <glyph glyph-name="U" unicode="U" horiz-adv-x="354" 
d="M337 -5q-24 -4 -37.5 11t-18.5 44q-24 -17 -45 -30t-50 -19q-47 -10 -78 7.5t-50.5 52t-28 82t-12 98.5t-2.5 100.5t2 88.5q1 52 7 85t15.5 52t23.5 25t32 4q-4 -34 -9 -89t-7.5 -116.5t0 -123t13 -109.5t31.5 -75.5t56 -20.5q14 3 28.5 10t27.5 17t24 20.5t18 19.5
l9 469q8 5 17.5 3.5t18.5 -7.5t15 -16.5t7 -23.5z" />
    <glyph glyph-name="V" unicode="V" horiz-adv-x="379" 
d="M3 591q19 12 37 6t25 -20l141 -463l101 439q3 13 12.5 23.5t20.5 16t20 5.5t9 -8q-3 -14 -12.5 -58.5t-22.5 -104t-27.5 -125.5t-28 -124.5t-24 -102t-14.5 -55.5t-13 -16t-18.5 -2.5t-18 7.5t-10.5 14q-8 20 -23 66.5t-33 105t-37.5 122.5t-36.5 120.5t-30 98t-17 55.5z
" />
    <glyph glyph-name="W" unicode="W" horiz-adv-x="474" 
d="M79 23q-2 24 -7 65.5t-12 94t-15 111t-15.5 115.5t-13 108t-7.5 88q33 -2 43.5 -21.5t17.5 -51.5q1 -6 5.5 -37t11 -74.5t13 -93.5t12.5 -94t10 -75t4 -37q7 12 18.5 39.5t24.5 55.5t25 50t21 24q12 3 23 -14.5t23 -47t25.5 -67t29.5 -74.5q8 39 17.5 85.5t18.5 94.5
t17.5 94t16 84.5t13 66t9.5 38.5q11 32 24.5 42t33.5 10q-9 -60 -20 -122.5t-22 -122t-22 -113.5t-20 -97.5t-15 -74t-7 -41.5q-2 -14 -10 -22t-18.5 -10t-20.5 1.5t-16 12.5q-8 12 -17.5 38t-19.5 55t-20 55t-18 40q-9 -20 -20.5 -46.5l-23 -53t-21 -49.5t-14.5 -35
t-15 -16t-20 -2t-18 8.5t-9 15.5z" />
    <glyph glyph-name="X" unicode="X" horiz-adv-x="419" 
d="M244 339l169 -327q-5 -8 -16 -11.5t-23.5 -2t-24 8t-17.5 18.5l-122 253l-122 -249q-6 -12 -17 -18.5t-23.5 -8t-23.5 2t-16 11.5l168 323l-139 259q21 14 46 5.5t38 -28.5l90 -176l92 165q41 64 84 35z" />
    <glyph glyph-name="Y" unicode="Y" horiz-adv-x="418" 
d="M215 46q-1 91 -2.5 140.5t-3 72t-2.5 26.5t-1 5l-197 296q19 12 41 11t35 -18l154 -216l98 204q4 12 13.5 19.5t20.5 11t21 3t15 -4.5q-3 -15 -12.5 -39.5t-23 -55t-29 -63t-29.5 -62t-25 -54t-16 -37.5q0 -3 0.5 -10.5t0.5 -35t0.5 -83t2.5 -154.5q-8 -5 -18 -3.5
t-19.5 7.5t-16 16.5t-7.5 23.5z" />
    <glyph glyph-name="Z" unicode="Z" horiz-adv-x="372" 
d="M74 3q-24 0 -40 8q-19 9 -22.5 27t14.5 44l259 463q-38 -2 -85 -2.5t-88.5 4t-69.5 17t-28 36.5h310q11 0 19.5 -6t12.5 -16t3 -21.5t-9 -21.5l-271 -479l291 4q2 -17 -11 -28t-36 -17t-54 -8.5t-64.5 -3.5t-67.5 -0.5t-63 0.5z" />
    <glyph glyph-name="bracketleft" unicode="[" horiz-adv-x="234" 
d="M80 -72q-21 0 -39.5 9t-18.5 35l-1 637q0 27 17 42.5t46 15.5l140 3q4 -8 2.5 -17.5t-8 -18t-17 -14.5t-23.5 -6l-102 -2q0 -3 -0.5 -35.5t-0.5 -106t0.5 -193t3.5 -295.5l144 1q4 -20 -12.5 -36t-40.5 -18z" />
    <glyph glyph-name="backslash" unicode="\" horiz-adv-x="259" 
d="M250 56q3 -13 0.5 -25t-9 -20.5t-15.5 -13t-18 -2.5l-184 499q-11 32 -14 46.5t-1 24.5q2 16 12.5 27t25.5 14z" />
    <glyph glyph-name="bracketright" unicode="]" horiz-adv-x="238" 
d="M71 -71q-12 1 -22.5 6t-18 12t-11 16.5t-1.5 19.5l144 -1q3 176 3.5 295.5t0.5 193t-0.5 106t-0.5 35.5l-102 2q-13 0 -23.5 6t-17 14.5t-8.5 18t3 17.5l140 -3q29 0 46 -15.5t17 -42.5l-1 -637q0 -26 -18.5 -35t-39.5 -9z" />
    <glyph glyph-name="asciicircum" unicode="^" horiz-adv-x="264" 
d="M241 245q-5 -4 -14.5 -7t-20 -3.5t-20 2.5t-14.5 11l-37 68l-35 -64q-6 -9 -16.5 -12.5t-21.5 -3t-20.5 4t-12.5 9.5l69 133q7 12 17.5 16.5t21 4t19 -5.5t13.5 -13z" />
    <glyph glyph-name="underscore" unicode="_" horiz-adv-x="372" 
d="M356 58q3 -31 -27 -47q-8 -4 -22.5 -6.5t-48.5 -1.5l-243 1q-5 8 -3.5 17.5t8 18.5t17 15t23.5 6z" />
    <glyph glyph-name="grave" unicode="`" horiz-adv-x="156" 
d="M141 429q-4 -4 -11.5 -6.5t-16.5 -3t-17.5 2t-12.5 9.5l-57 111q22 13 41.5 6.5t33.5 -31.5z" />
    <glyph glyph-name="a" unicode="a" horiz-adv-x="346" 
d="M273 139q-13 -33 -36.5 -62.5t-52.5 -48.5t-60 -24.5t-59 9.5q-29 16 -42 48.5t-9.5 74t24.5 88t61 90.5q29 32 73.5 55t92.5 28q32 0 50 -13t18 -48v-83.5t-1 -90.5t-2 -91t-3 -85q-9 1 -21 4.5t-21.5 18.5t-13.5 45.5t2 84.5zM266 341q-42 -5 -74.5 -23t-56.5 -44
q-26 -29 -42 -64.5t-20.5 -67t2 -54.5t26.5 -27q31 -7 62 20.5t55.5 72t38 96t9.5 91.5z" />
    <glyph glyph-name="b" unicode="b" horiz-adv-x="354" 
d="M24 861q-34 -6 -77.5 -0.5t-87.5 26t-84.5 59t-68.5 99.5q16 10 28.5 10t23 -7t19.5 -18t18 -23q12 -14 29.5 -31t44.5 -31t64.5 -22t88.5 -4l4 113q4 102 34.5 147t81.5 43q22 -1 42.5 -11.5t37 -29.5t26.5 -46t10 -60q0 -50 -15 -87.5t-40 -64t-57 -42t-65 -20.5
l1 -537q19 13 42 26.5t48.5 20.5t52 4.5t52.5 -21.5q35 -26 49.5 -64t12.5 -79t-18.5 -81.5t-44.5 -71.5t-65 -49t-79 -15q-6 0 -24 2.5t-37 7.5t-34 13.5t-15 20.5zM244 311q-16 12 -42 10t-51.5 -13.5t-45 -31.5t-23.5 -44l-1 -172q35 -18 68 -12t60 27.5t46 54t25.5 66
t-1.5 65t-35 50.5zM205 1069q0 19 -5.5 36t-14 29.5t-19.5 19.5t-22 8q-22 2 -42.5 -26.5t-21.5 -97.5l-2 -113q28 0 51.5 12t40.5 32.5t26 46.5t9 53z" />
    <glyph glyph-name="c" unicode="c" horiz-adv-x="314" 
d="M15 154q-2 50 13 92t42.5 73.5t67 52t87.5 26.5q17 2 31.5 -1.5t24.5 -11t14 -18t0 -23.5q-45 3 -85.5 -8t-71 -35.5t-47 -62t-11.5 -88.5q3 -38 22.5 -60t49 -30.5t65 -5.5t71.5 16q6 -14 0.5 -27t-17 -23t-27.5 -16t-31 -6q-30 0 -64 5.5t-63.5 22.5t-49 47.5
t-21.5 80.5z" />
    <glyph glyph-name="d" unicode="d" horiz-adv-x="375" 
d="M123 2q-44 -1 -69 29.5t-33 74.5t-0.5 93t27.5 87q14 25 33.5 46.5t44 36t54 21t64.5 1.5q-7 37 -19.5 92.5t-25 121t-23.5 137.5t-17 141.5t-3.5 132t17 109.5t42.5 74.5t75 27.5q39 0 61.5 -32t32.5 -85.5t9 -122t-8 -142.5t-18 -148.5t-22.5 -138t-21.5 -111
t-14 -68.5q3 -39 12 -82.5t18 -86t16 -81.5t8 -68.5t-6.5 -46.5t-28.5 -16l-43 215q-9 -36 -23 -73t-33.5 -67.5t-46 -50t-59.5 -20.5zM244 338q-24 6 -45.5 1t-40.5 -17.5t-35 -31.5t-27 -41q-13 -26 -18.5 -59.5t-2.5 -63t15 -49.5t33 -19q18 1 34 17t29.5 41.5t24 57
t18 62t11.5 58t4 44.5zM280 503q5 23 12.5 64.5t15 93t14 109.5t10 115t3.5 109t-5.5 92t-18 64t-33.5 24q-22 0 -35.5 -29t-18.5 -79t-3.5 -117t9.5 -141.5t20.5 -153t29.5 -151.5z" />
    <glyph glyph-name="e" unicode="e" horiz-adv-x="331" 
d="M177 398q21 0 44 -6t42.5 -18.5t32.5 -32t13 -47.5q-1 -32 -14.5 -53.5t-34.5 -34.5t-47 -19t-52.5 -6t-50 5t-39.5 14q-1 -28 5.5 -54t21 -45.5t37 -31t52.5 -11.5q13 0 30 5t34.5 12t33.5 15.5t27 15.5q5 -16 0.5 -30.5t-14 -26t-23 -20.5t-25.5 -14q-19 -8 -38 -12
t-34 -4q-25 0 -54.5 9.5t-55 34t-42.5 66t-16 106.5q8 85 48.5 134t118.5 49zM76 254q19 -7 46 -11t53.5 -1.5t47.5 14.5t27 38q0 14 -7.5 23.5t-19 15t-25.5 8t-26 2.5q-35 0 -60 -27t-36 -62z" />
    <glyph glyph-name="f" unicode="f" horiz-adv-x="287" 
d="M29 401q-12 -1 -20.5 5.5t-12.5 15.5t-3.5 18.5t7.5 14.5h116q2 116 -0.5 218.5t-3.5 188.5t1.5 154t15 115t37.5 71.5t68 23.5q32 0 52 -24t31.5 -61.5t15.5 -85t4 -94.5t-3.5 -89.5t-6.5 -70.5q-10 0 -19.5 5t-17 18t-11 36t-0.5 60q0 3 1.5 22t2 45t-1 55.5t-7 54
t-16 40.5t-28.5 16q-29 -2 -40 -41t-13 -122t0 -215t0 -320h95q8 0 15 -8t11 -18t3.5 -18.5t-8.5 -9.5h-116l2 -398q-19 -4 -30.5 4.5t-18 22t-9 29t-3.5 26.5l-2 316h-87z" />
    <glyph glyph-name="g" unicode="g" horiz-adv-x="367" 
d="M-476 -609q0 86 36 156t96 122.5t138 88t162 53t168 17.5t156 -18q2 75 2 146t3 150q-27 -45 -69.5 -75t-96.5 -30q-27 0 -46.5 10t-31.5 27t-17.5 40t-5.5 49q0 51 18.5 100.5t51.5 88t78.5 62t99.5 23.5q28 0 44.5 -4.5t25 -14.5t11 -25.5t2.5 -36.5q0 -50 -1.5 -101
t-4 -112t-4 -137t-1.5 -175q9 -5 23.5 -15t31.5 -24.5t35.5 -33t35.5 -41.5q12 -16 21.5 -34.5t17 -36t13 -33.5t7.5 -27q-17 -5 -31 3t-26.5 23t-24 33.5t-21.5 35.5q-8 12 -19 25t-22.5 24.5t-22 20t-17.5 10.5q0 -79 -16.5 -156.5t-48.5 -148t-78 -130.5t-105 -104.5
t-130 -69.5t-152 -25q-65 0 -117.5 25.5t-90 67.5t-57.5 96t-20 111zM278 -254q-62 23 -138.5 26t-155 -11.5t-152 -47t-130.5 -81t-90 -113t-30 -142.5q2 -57 22.5 -99.5t51.5 -70.5t67.5 -42.5t71.5 -15.5q77 -3 142.5 20.5t119.5 66t95 101.5t69 126t42.5 139.5
t14.5 143.5zM71 116q0 -23 12.5 -44t37.5 -21q29 0 53 15.5t43.5 40.5t34.5 56.5t25 64.5t15 63.5t5 54.5q-44 7 -84.5 -8.5t-72 -47t-50.5 -77t-19 -97.5z" />
    <glyph glyph-name="h" unicode="h" horiz-adv-x="340" 
d="M196 352q-19 1 -34.5 -17.5t-27 -44t-18.5 -52t-8 -42.5q-2 -35 -4.5 -72t-9 -65.5t-19.5 -44.5t-35 -10l7 546q-3 -4 -17 -8.5t-29 -3.5t-26.5 9.5t-8.5 31.5q10 1 21.5 4t23 7.5t21.5 9.5l16 8q3 127 12.5 221t23.5 160.5t31 109.5t37 68.5t41 35.5t43 12q35 3 58 -13
t34.5 -44.5t12.5 -67.5t-6 -82q-6 -38 -20 -81.5t-32.5 -87.5t-40.5 -86t-45 -77.5t-45.5 -62t-41.5 -39.5l-5 -224q15 17 27 28t23.5 17.5t23.5 9.5t27 3q37 1 59.5 -24.5t34.5 -65.5t16 -89.5t3.5 -95.5t-3 -83.5t-3.5 -53.5q-21 0 -31.5 15.5t-14.5 41t-4 58v67.5
q0 32 -3 63t-10 55.5t-20 39.5t-34 16zM232 1155q-19 -2 -34.5 -26t-28 -61.5t-22.5 -84.5t-17 -95t-11.5 -93.5t-7.5 -79.5t-4 -52t-1 -13q22 20 48.5 63t51 95.5t43.5 108.5t27 103q10 60 0 99t-44 36z" />
    <glyph glyph-name="i" unicode="i" horiz-adv-x="91" 
d="M21 408q31 5 47 -26q5 -8 7.5 -22.5t2.5 -48.5l3 -309q-8 -5 -17.5 -3.5t-18.5 7.5t-15 16.5t-7 23.5zM11 492q0 16 11 22.5t24 6t24 -8t11 -18.5q0 -17 -11 -23.5t-24 -5.5t-24 8.5t-11 18.5z" />
    <glyph glyph-name="j" unicode="j" horiz-adv-x="130" 
d="M-312 -969q-64 0 -112 21.5t-80.5 58.5t-50.5 85.5t-21 101.5t8.5 106.5t36.5 101.5q38 73 99.5 141t137 123.5t160.5 95t171 55.5l6 410q0 22 7 36.5t15.5 22t16.5 9t12 -3.5v-474q27 0 49 -6.5t36.5 -18t19 -27t-2.5 -33.5q-28 14 -51 19.5t-48 3.5
q-4 -156 -25.5 -277.5t-54.5 -213.5t-74.5 -156t-85.5 -104t-88 -58.5t-81 -18.5zM37 -140q-76 -17 -153.5 -54.5t-146.5 -88.5t-124.5 -112t-88.5 -125q-20 -41 -29 -86.5t-6.5 -90.5t16.5 -85.5t39 -70t61 -44.5t83 -10q35 4 73.5 23t76 56.5t71.5 96t61 142.5t44.5 195
t22.5 254zM36 457q0 16 11 22.5t24 6t24 -8t11 -18.5q0 -17 -11 -23.5t-24 -5.5t-24 8.5t-11 18.5z" />
    <glyph glyph-name="k" unicode="k" horiz-adv-x="329" 
d="M116 219q1 7 13 16t29 20t36 23.5t35 26.5t25 29t7 30q-4 25 -28.5 24.5t-53 -21t-53 -57t-29.5 -81.5q-4 -39 -3 -80.5t-2 -75t-16 -53.5t-44 -17l-7 549q-8 -4 -21.5 -6.5t-26 0t-21 11.5t-6.5 29q17 1 38.5 9t35.5 15v4q-10 182 -6.5 300.5t20.5 188t48.5 96.5
t76.5 26q52 -2 79 -42.5t33.5 -103t-5 -138.5t-37.5 -148.5t-63.5 -133.5t-82.5 -92l3 -217q16 31 45 52.5t61 30t60.5 2.5t42.5 -30q18 -29 11 -58.5t-27.5 -55.5t-49.5 -48t-56 -37q9 -11 26.5 -26.5t37.5 -33.5t38.5 -37t30 -38t12 -36.5t-15.5 -31.5l-177 173
q-7 14 -11 24.5t-2 18.5zM77 635q32 23 58.5 72t45.5 108.5t28.5 122.5t8.5 114t-15 83.5t-42 30.5q-22 -1 -36.5 -15.5t-24 -36.5t-14.5 -49t-7 -53t-2.5 -49t-0.5 -37z" />
    <glyph glyph-name="l" unicode="l" horiz-adv-x="350" 
d="M329 -143q-19 -5 -35.5 -2t-36 28t-46.5 79t-67 151q-10 -23 -22.5 -51.5t-26 -55.5t-28.5 -51.5t-30.5 -40.5t-31 -21t-29.5 6q16 46 55 115t82 170q-20 55 -37 129t-29.5 158t-19.5 173t-5.5 173t12.5 159t34 131t59 88.5t88 31.5q41 -1 66 -33t37 -87t12 -128
t-8 -155.5t-23.5 -170.5t-34.5 -172.5t-40.5 -160.5t-42.5 -136q18 -50 35.5 -91t36 -79.5t37.5 -76t39 -80.5zM210 1162q-28 4 -51.5 -30.5t-40 -97t-24.5 -148.5t-5 -185.5t17.5 -207.5t43.5 -215q33 107 57 213.5t38 204t18.5 181.5t0.5 146t-18 99t-36 40z" />
    <glyph glyph-name="m" unicode="m" horiz-adv-x="430" 
d="M18 412q23 3 36.5 -6.5t18.5 -29.5q21 13 44.5 17t45 -2.5t39 -24.5t26.5 -48q6 11 14.5 24.5t19.5 24.5t25 18.5t31 7.5q18 -1 32.5 -4.5t26.5 -15.5t21 -37t14 -68.5t6.5 -109.5t-0.5 -161q-7 -2 -16 1t-17 12t-14.5 23.5t-7.5 36.5q-2 38 -1.5 84.5t-2 87t-11 66.5
t-28.5 24q-19 -2 -31 -18.5t-19.5 -41t-11 -55t-5.5 -60t-3 -55.5t-2 -42q-2 -17 -9.5 -27.5t-16 -16.5t-16.5 -7t-12 3q-1 39 0.5 90t-0.5 98.5t-10.5 83t-29.5 44.5q-12 6 -25.5 5t-25 -7.5t-19.5 -16.5t-10 -21q0 -71 -0.5 -130.5t-5.5 -91.5q-6 -38 -19 -53.5t-35 -14.5
z" />
    <glyph glyph-name="n" unicode="n" horiz-adv-x="314" 
d="M9 408q24 4 37.5 -11t18.5 -44q16 15 40.5 27t51.5 16.5t53 -1.5t46 -26q18 -18 28.5 -47.5t16 -64.5t6 -72t-0.5 -71q-1 -12 -2 -25.5t-3.5 -27t-6.5 -25.5t-10 -19q-14 -17 -40 -17q3 74 3 127t-2 90t-7 60.5t-12 37.5q-12 22 -34.5 26.5t-46.5 -3t-45.5 -24
t-30.5 -35.5v-277q-8 -5 -17.5 -3.5t-18.5 7.5t-15 16.5t-7 23.5z" />
    <glyph glyph-name="o" unicode="o" horiz-adv-x="329" 
d="M172 401q38 -1 65.5 -18.5t44.5 -46t24 -65t5 -73.5t-13.5 -72t-31.5 -62.5t-48 -45t-64 -18.5t-62.5 13.5t-44 40t-25.5 58.5t-8 68q0 40 10.5 80t30.5 71.5t49.5 51t67.5 18.5zM171 344q-21 0 -39 -15.5t-31.5 -39.5t-21 -53.5t-8.5 -58.5q0 -23 4.5 -44.5t14.5 -38
t26 -27t37 -10.5q22 -1 40 11.5t31 33t21 47t10 53.5q2 26 -2 51.5t-14 45.5t-27 32.5t-41 12.5z" />
    <glyph glyph-name="p" unicode="p" horiz-adv-x="303" 
d="M-196 -978q-62 3 -104 31.5t-67 72t-35.5 98.5t-8 111t15.5 108.5t35 93.5q30 56 73.5 103.5t95 83t108.5 58t113 28.5q1 67 -0.5 140t-4.5 148.5t-7.5 152t-10.5 149.5q26 4 41.5 -16t19.5 -54q5 8 16.5 20.5t27.5 24.5t35 20t40 7q29 -2 50.5 -20.5t34.5 -47t18 -63.5
t1 -68q-5 -41 -21.5 -78t-43.5 -63.5t-62 -39t-76 -3.5l4 -208q31 -3 67.5 -14.5t66.5 -28.5t48.5 -38.5t13.5 -45.5q-10 5 -28.5 15.5t-43 21t-55.5 19t-67 9.5q2 -84 -1.5 -171.5t-15 -169t-33 -153.5t-54 -125t-79 -82.5t-107.5 -25.5zM34 -253q-51 -4 -99.5 -21.5
t-92 -47.5t-80.5 -72.5t-64 -95.5q-15 -30 -26 -73.5t-14.5 -91.5t2.5 -95.5t23.5 -85.5t49 -61.5t79.5 -22.5q53 1 90 35t62.5 89t39.5 125.5t21.5 144.5t8.5 145t0 128zM86 81q30 -12 55 -5.5t44 24.5t31.5 46t17.5 60q3 23 1.5 47.5t-8.5 44.5t-19 32.5t-29 12.5
q-15 0 -30.5 -9t-28.5 -22.5t-23 -29.5t-16 -29z" />
    <glyph glyph-name="q" unicode="q" horiz-adv-x="372" 
d="M255 -403q-43 -23 -71.5 -31t-46.5 -7.5t-27.5 7.5t-12.5 13q24 16 43.5 28t38 22t37.5 19.5t40 22.5l22 421q-16 -22 -33 -40t-36.5 -31t-43 -19t-52.5 -4q-39 3 -62 21.5t-33 46.5t-7.5 63.5t15 72.5t33 72.5t47.5 64.5q32 34 69 55t78 19q23 0 46 -5.5t37 -21.5
q13 -14 18.5 -30t5.5 -37t-3.5 -48.5t-8.5 -66.5q-4 -30 -7.5 -72.5t-6.5 -91t-5.5 -100t-4.5 -98t-3.5 -85.5t-2.5 -63q46 16 97.5 22.5t100.5 0.5t94 -25.5t79 -54.5t54 -86.5t20 -121.5q0 -38 -6 -82t-18.5 -87.5t-33 -84t-49.5 -72t-67 -51.5t-86 -21
q-65 -2 -108.5 25.5t-71 74t-41 107t-19 124t-6.5 125t-2 110.5zM319 -372q0 -41 0.5 -97t5 -116t14.5 -118.5t30 -104.5t51.5 -74.5t78.5 -27.5q59 1 98 35t62.5 84.5t33 109t8.5 108.5q-1 65 -21 109.5t-51.5 72t-71.5 40t-82 13t-83 -8.5t-73 -25zM305 346
q-44 22 -85.5 6t-74.5 -53q-29 -32 -49 -72.5t-26.5 -77t3.5 -63t40 -30.5q46 -6 80.5 23.5t58 76t36.5 99t17 91.5z" />
    <glyph glyph-name="r" unicode="r" horiz-adv-x="262" 
d="M8 400q18 7 28.5 4.5t16.5 -11.5t10 -22.5t10 -28.5q26 20 57.5 36t62.5 16q21 0 41 -14.5t24 -34.5q-8 -2 -23.5 -3t-35 -4t-40.5 -10t-39 -23t-31 -42t-16 -66q-1 -10 -2.5 -37.5t-3 -58.5t-2.5 -59t-1 -38q-6 -3 -15 -2.5t-17 5t-14.5 11.5t-6.5 18l-3 364v0z" />
    <glyph glyph-name="s" unicode="s" horiz-adv-x="277" 
d="M9 118q28 3 40.5 -6.5t21.5 -22.5t21 -25t39 -13q19 0 33.5 7t24 18.5t13.5 26t3 28.5q-3 28 -17 43.5t-33.5 25t-42 16t-42 16.5t-33 26t-16.5 44q-3 25 6.5 45t26 33.5t38.5 21t45 8.5q16 1 36.5 -2t37.5 -11.5t27 -23t5 -36.5q-21 5 -45.5 12.5t-55.5 6.5
q-11 0 -22.5 -4t-20.5 -10.5t-14.5 -15.5t-3.5 -18q1 -18 15 -29t34 -19.5t43.5 -17t44 -21.5t35 -33.5t17.5 -52.5q3 -30 -6.5 -55t-28 -43t-43.5 -29t-53 -12q-29 -1 -51.5 8t-39 25.5t-26.5 39t-13 49.5z" />
    <glyph glyph-name="t" unicode="t" horiz-adv-x="174" 
d="M66 726q-35 -20 -70.5 -45t-66 -49.5t-53.5 -47.5t-35 -39q-16 18 -12.5 40t20 45t43.5 46.5t57 44.5t61 42t56 34l8 434q16 0 26.5 -11.5t16.5 -30.5t9 -43.5t4 -49.5t0.5 -49t-0.5 -42v-169q24 15 55 39.5t60 51t51.5 49.5t31.5 35q20 -21 9 -50t-41.5 -62t-75 -67.5
t-90.5 -65.5l5 -837q-15 -1 -27.5 9t-21 40.5t-13 87.5t-2.5 149z" />
    <glyph glyph-name="u" unicode="u" horiz-adv-x="319" 
d="M305 -5q-24 -4 -37.5 11t-18.5 44q-17 -15 -41 -27t-51 -16.5t-53 1.5t-46 26q-18 18 -28.5 47.5t-16 64.5t-6 72t0.5 71q1 12 2 25.5t3.5 27t6.5 25t10 19.5q14 17 40 17q-3 -74 -3 -127t2 -90t6.5 -60.5t12.5 -37.5q12 -22 34.5 -26.5t46.5 3t45.5 24t30.5 35.5v277
q8 5 17.5 3.5t18.5 -7.5t15 -16.5t7 -23.5z" />
    <glyph glyph-name="v" unicode="v" horiz-adv-x="275" 
d="M9 395q19 12 37 6t25 -20l87 -267l52 242q3 13 12.5 23.5t20.5 16t20 5.5t9 -8q-3 -14 -9 -44l-13.5 -67.5t-16 -78t-16.5 -77.5t-14.5 -65.5t-10.5 -40.5t-13 -16t-18.5 -2.5t-18 7.5t-10.5 14q-8 20 -18.5 51.5t-23 68.5t-25 76t-23.5 73.5t-20 61.5t-13 41z" />
    <glyph glyph-name="w" unicode="w" horiz-adv-x="379" 
d="M43 23q-5 71 -13.5 166.5t-15.5 207.5q33 -2 43.5 -21.5t17.5 -51.5q2 -9 4.5 -38t4.5 -63t4 -63.5t2 -38.5q7 12 17.5 35t22 46t22.5 41t20 20q12 3 22.5 -10.5t23 -38t27.5 -58t35 -69.5q6 103 14 164.5t18.5 93.5t24.5 42t33 10q-12 -81 -20 -142t-13 -105t-8 -73
t-5 -46q-2 -14 -10 -22t-18.5 -10t-20.5 1.5t-16 12.5q-8 12 -18.5 34t-22 45.5t-22.5 45.5t-19 36q-9 -20 -19.5 -42.5t-20.5 -44t-18.5 -40t-13.5 -30.5t-15 -16t-20 -2t-18 8.5t-9 15.5z" />
    <glyph glyph-name="x" unicode="x" horiz-adv-x="324" 
d="M199 198l110 -182q-5 -8 -15.5 -11t-22.5 -1.5t-24 8t-19 17.5l-63 108l-65 -110q-7 -11 -18.5 -17.5t-23.5 -8t-22.5 1.5t-15.5 11l111 184l-118 193q21 14 46 5.5t38 -28.5l69 -110l59 94q41 64 84 35z" />
    <glyph glyph-name="y" unicode="y" horiz-adv-x="370" 
d="M-444 -633q3 83 38 148.5t92 116.5t130.5 89t153 65t160 44t151.5 28l2 241q-8 -19 -22 -34t-30.5 -25.5t-33.5 -16t-30 -5.5q-43 0 -74.5 18t-49.5 61.5t-23 116.5t4 184q6 9 16.5 7t20.5 -10t16.5 -20t4.5 -23q1 -24 1 -55t1.5 -62.5t6 -61t13 -52t23 -35t37.5 -9.5
q43 6 66.5 35t35.5 69t16.5 85t7.5 82q1 12 8.5 23.5t17 19t19 9.5t15.5 -5l-7 -530q76 8 141.5 17.5t118.5 15.5q1 -17 -8.5 -29t-25 -20.5t-34.5 -13t-35 -6.5q-35 -5 -76 -11.5t-79 -13.5q-4 -80 -11 -166t-22 -170t-41 -161t-67 -137.5t-100 -100.5t-140 -50
q-80 -10 -154.5 13.5t-131.5 71.5t-91 116t-31 147zM-372 -640q0 -66 27 -121.5t72 -93t104 -54.5t124 -7q69 10 119 47t85 92.5t57.5 125t36 145.5t20 153t9.5 148q-56 -7 -126 -21t-143 -37t-142.5 -56t-123.5 -79t-87 -106t-32 -136z" />
    <glyph glyph-name="z" unicode="z" horiz-adv-x="324" 
d="M74 5q-24 0 -40 8q-19 9 -22.5 27t14.5 44q25 36 48 67.5t46.5 62.5t49.5 64t57 72q-38 1 -76 -1.5t-68 0t-48.5 13t-16.5 39.5l248 1q11 0 19.5 -6t12.5 -16t3 -21.5t-9 -21.5q-25 -33 -54.5 -70t-58.5 -74t-55 -72t-45 -63l237 10q3 -26 -18 -38.5t-56 -18t-80 -6
t-88 -0.5z" />
    <glyph glyph-name="braceleft" unicode="{" horiz-adv-x="280" 
d="M77 314q24 -14 38.5 -24t22 -19t9.5 -19t1 -25q-2 -52 1.5 -95.5t19.5 -77t46.5 -55.5t82.5 -30q-2 -14 -12 -23t-24.5 -13t-32.5 -1.5t-36 13.5q-36 21 -58.5 52.5t-34.5 69t-15 78.5t0 82l-63 52q-12 10 -15.5 22t-1 23.5t8.5 20.5t13 13l90 52q6 33 12 63.5t16 57.5
t25.5 51t40.5 43q19 15 35 19t28 1.5t18.5 -10t7.5 -16.5q-32 -14 -52.5 -34.5t-34 -47.5t-22 -60.5t-15.5 -73.5q-2 -15 -6 -24.5t-14.5 -18.5t-29 -19.5t-49.5 -26.5z" />
    <glyph glyph-name="bar" unicode="|" horiz-adv-x="94" 
d="M14 599q15 2 28 -5t21 -21q5 -8 7.5 -22.5t2.5 -48.5l8 -500q-8 -5 -18 -3.5t-19 7.5t-15.5 16.5t-7.5 23.5z" />
    <glyph glyph-name="braceright" unicode="}" horiz-adv-x="295" 
d="M213 314q-31 16 -49.5 26.5t-29 19.5t-14.5 18.5t-6 24.5q-7 40 -15.5 73.5t-22 60.5t-34 47.5t-52.5 34.5q1 9 7.5 16.5t18.5 10t28 -1.5t35 -19q25 -19 40.5 -43t25 -51t16 -57.5t12.5 -63.5l90 -52q7 -4 13 -13t8.5 -20.5t-1 -23.5t-15.5 -22l-63 -52q3 -41 0 -82
t-15 -78.5t-34.5 -69t-58.5 -52.5q-18 -11 -36 -13.5t-32.5 1.5t-24.5 13t-12 23q52 8 82.5 30t46.5 55.5t19.5 77t1.5 95.5q-1 15 0.5 25t9 19t22.5 19t39 24z" />
    <glyph glyph-name="asciitilde" unicode="~" horiz-adv-x="420" 
d="M401 375q-4 -30 -12.5 -58t-23.5 -49t-36 -33t-51 -12q-26 0 -43.5 8.5t-29 21t-19 27t-15.5 27t-17.5 20.5t-24.5 8q-16 0 -25.5 -10t-14 -25t-5 -34t2.5 -37q-25 1 -38 13.5t-16 31t3 39t19.5 37.5t33 27.5t43.5 8.5q37 -3 57.5 -20.5t33.5 -37t22.5 -35t26.5 -16.5
q20 -1 31 6.5t17.5 18.5t11.5 24.5t13 24.5t20.5 18t35.5 6z" />
    <glyph glyph-name="exclamdown" unicode="&#xa1;" horiz-adv-x="92" 
d="M21.0039 486.007q30.998 5 46.998 -25.998q4.99902 -8 7.49902 -22.499t2.5 -48.4971l-2 -386.976q-7.99902 -5 -17.499 -3.5q-9.49902 1.5 -18.499 7.49902q-8.99902 6 -14.999 16.499q-5.99902 10.5 -6.99902 23.499zM11.0049 570.002q0 15.999 10.999 22.499
q11 6.49902 23.999 5.99902t23.998 -7.99902q11 -7.5 11 -18.499q0 -16.999 -11 -23.499q-10.999 -6.49902 -23.998 -5.49902t-23.999 8.49902q-10.999 7.5 -10.999 18.499z" />
    <glyph glyph-name="cent" unicode="&#xa2;" horiz-adv-x="321" 
d="M144 32q-24 5 -46.5 15.5t-40.5 28t-29 43.5t-12 62q-3 77 31.5 133.5t95.5 85.5v71q31 5 47 -26q2 -5 4 -10.5t4 -14.5q7 2 13.5 2.5t14.5 2.5q17 2 31.5 -1.5t24.5 -11t14 -18t0 -23.5q-52 3 -96 -12l1 -279q42 0 88 17q6 -14 0.5 -27t-17 -23t-27.5 -16t-31 -6h-13
l1 -61q-8 -5 -17.5 -3.5t-18.5 7.5t-15 16.5t-7 23.5v24zM81 177q3 -35 19.5 -56.5t42.5 -31.5v241q-32 -24 -49.5 -62.5t-12.5 -90.5z" />
    <glyph glyph-name="sterling" unicode="&#xa3;" horiz-adv-x="382" 
d="M67 283h-5l-58 1q-5 8 -3.5 17.5t8 18.5t17 15t23.5 6h16q1 63 14 106.5t33.5 73t47 46t53.5 24.5q24 7 49.5 9t46.5 -2.5t34.5 -15.5t13.5 -30q-50 1 -91.5 -9t-71.5 -34.5t-46.5 -65.5t-16.5 -103l214 -2q3 -31 -27 -47q-8 -4 -22.5 -6.5t-48.5 -1.5h-118l6 -226
q12 -1 34 -0.5t47.5 0.5t52 -2t48 -7.5t35.5 -16.5t14 -28q-14 -3 -46.5 -4t-69 -1t-69.5 0.5t-48 0.5q-10 0 -21 1.5t-20 5.5t-15 11.5t-6 18.5z" />
    <glyph glyph-name="dieresis" unicode="&#xa8;" horiz-adv-x="229" 
d="M13 442q0 18 12.5 25.5t27.5 7t27.5 -8.5t12.5 -21q0 -20 -12.5 -27.5t-27.5 -6t-27.5 10t-12.5 20.5zM139 442q0 18 12.5 25.5t27.5 7t27.5 -8.5t12.5 -21q0 -20 -12.5 -27.5t-27.5 -6t-27.5 10t-12.5 20.5z" />
    <glyph glyph-name="copyright" unicode="&#xa9;" horiz-adv-x="519" 
d="M261 -5q-67 -2 -115.5 23t-79.5 66.5t-45 95t-12 109.5t20 109.5t51.5 95.5t81 67.5t109.5 24.5q57 -1 101 -26t73.5 -66.5t45 -94t16.5 -107.5t-13.5 -107.5t-45 -94t-77 -68t-110.5 -27.5zM257 45q68 1 111.5 37t65 90t21 117t-21.5 117t-62 90.5t-100 38.5
q-63 2 -108 -34t-70 -91t-29 -119t15.5 -119t63.5 -91.5t114 -35.5zM110 279q-1 34 9 66t31.5 58.5t55.5 45.5t82 25q17 2 31.5 -1.5t24.5 -11t14 -18t0 -23.5q-89 5 -139 -36t-45 -123q1 -30 17.5 -51.5t42.5 -32t59.5 -10.5t69.5 13q6 -14 0.5 -27t-17 -23t-27.5 -16
t-31 -6q-30 0 -61.5 9t-57 29t-42 53t-17.5 80z" />
    <glyph glyph-name="macron" unicode="&#xaf;" horiz-adv-x="380" 
d="M336 477q2 -14 -4.5 -25t-17.5 -19q-7 -3 -19 -5.5t-40 -1.5l-201 1q-4 7 -3 16t6.5 17t14 14t19.5 6z" />
    <glyph glyph-name="acute" unicode="&#xb4;" horiz-adv-x="151" 
d="M70 527q8 14 28 18.5t41 -7.5l-50 -98q-5 -10 -15 -14.5t-20.5 -5.5t-19.5 1t-13 6z" />
    <glyph glyph-name="cedilla" unicode="&#xb8;" horiz-adv-x="140" 
d="M71 -16q33 -3 49.5 -20.5t18.5 -39t-9.5 -41.5t-33.5 -27q-14 -5 -25.5 -3.5t-19.5 7t-12.5 13t-4.5 16.5q20 2 38 6t18 19t-11.5 20.5t-26.5 4.5q-15 2 -21.5 7.5t-8.5 15t-1.5 23t0.5 31.5q4 8 12 12t17 4t16 -4.5t9 -13.5z" />
    <glyph glyph-name="questiondown" unicode="&#xbf;" horiz-adv-x="327" 
d="M155.011 -6.96289q-59.9961 4.99902 -96.9941 39.4971q-36.9971 34.498 -47.9971 99.4941q-9.99902 58.9961 7.5 101.494q17.499 42.4971 48.4971 68.9951q30.998 26.499 69.4961 38.498q38.4971 11.999 70.4951 9.99902l-2 125.992q23.999 0 35.998 -9.99902
t17.499 -29.498t5.5 -47.4971q0 -27.999 -1 -62.9961q0 -16.999 -12.5 -27.499q-12.499 -10.499 -29.498 -8.49902q-30.998 3 -61.4961 -3q-30.498 -5.99902 -52.4971 -23.998q-21.998 -17.999 -32.998 -49.4971q-10.999 -31.498 -3.99902 -79.4951
q4.99902 -34.998 22.498 -56.9971q17.499 -21.998 40.998 -29.998q23.498 -7.99902 48.9971 -3.5q25.498 4.5 46.9971 20.999q21.498 16.499 34.998 44.4971q13.499 27.998 12.499 66.9961q26.998 -7 36.9971 -24.498q10 -17.499 7 -38.998t-16.999 -43.9971
q-13.999 -22.499 -36.498 -40.498q-22.498 -17.999 -50.9961 -28.498q-28.499 -10.499 -60.4971 -7.49902zM262.005 565.002q0 -17.999 -12.5 -25.499q-12.499 -7.49902 -27.498 -6.99902t-27.498 8.99902q-12.499 8.5 -12.499 21.499q0 18.999 12.499 26.498
q12.499 7.5 27.498 6t27.498 -9.99902q12.5 -8.5 12.5 -20.499z" />
    <glyph glyph-name="Agrave" unicode="&#xc0;" horiz-adv-x="401" 
d="M128 222q-9 -37 -18 -74.5t-21 -67t-29.5 -47t-43.5 -14.5q16 59 31 124.5t32 133t37.5 135.5t47.5 134q12 29 27 41.5t31 11.5q19 -1 36 -23t27 -54q10 -35 24 -92.5t28.5 -126.5t29.5 -144t28 -147q-22 -3 -37 17t-26.5 52t-20 70.5t-16.5 72.5zM278 285
q-7 47 -14.5 89.5t-15 75.5t-14.5 53.5t-14 23.5q-5 2 -12.5 -18.5t-18 -55t-23 -78.5t-27.5 -90h139zM261 629q-4 -4 -11.5 -6.5t-16.5 -3t-17.5 2t-12.5 9.5l-57 111q22 13 41.5 6.5t33.5 -31.5z" />
    <glyph glyph-name="Aacute" unicode="&#xc1;" horiz-adv-x="401" 
d="M128 222q-9 -37 -18 -74.5t-21 -67t-29.5 -47t-43.5 -14.5q16 59 31 124.5t32 133t37.5 135.5t47.5 134q12 29 27 41.5t31 11.5q19 -1 36 -23t27 -54q10 -35 24 -92.5t28.5 -126.5t29.5 -144t28 -147q-22 -3 -37 17t-26.5 52t-20 70.5t-16.5 72.5zM278 285
q-7 47 -14.5 89.5t-15 75.5t-14.5 53.5t-14 23.5q-5 2 -12.5 -18.5t-18 -55t-23 -78.5t-27.5 -90h139zM190 727q8 14 28 18.5t41 -7.5l-50 -98q-5 -10 -15 -14.5t-20.5 -5.5t-19.5 1t-13 6z" />
    <glyph glyph-name="Acircumflex" unicode="&#xc2;" horiz-adv-x="401" 
d="M128 222q-9 -37 -18 -74.5t-21 -67t-29.5 -47t-43.5 -14.5q16 59 31 124.5t32 133t37.5 135.5t47.5 134q12 29 27 41.5t31 11.5q19 -1 36 -23t27 -54q10 -35 24 -92.5t28.5 -126.5t29.5 -144t28 -147q-22 -3 -37 17t-26.5 52t-20 70.5t-16.5 72.5zM278 285
q-7 47 -14.5 89.5t-15 75.5t-14.5 53.5t-14 23.5q-5 2 -12.5 -18.5t-18 -55t-23 -78.5t-27.5 -90h139zM316 624q-4 -4 -13 -6.5t-18.5 -3t-19 2t-13.5 10.5l-35 63l-32 -60q-5 -8 -15 -11.5t-20.5 -3t-19 4t-11.5 8.5l64 124q7 11 16.5 15.5t19 3.5t18 -5.5t12.5 -11.5z" />
    <glyph glyph-name="Atilde" unicode="&#xc3;" horiz-adv-x="401" 
d="M128 222q-9 -37 -18 -74.5t-21 -67t-29.5 -47t-43.5 -14.5q16 59 31 124.5t32 133t37.5 135.5t47.5 134q12 29 27 41.5t31 11.5q19 -1 36 -23t27 -54q10 -35 24 -92.5t28.5 -126.5t29.5 -144t28 -147q-22 -3 -37 17t-26.5 52t-20 70.5t-16.5 72.5zM278 285
q-7 47 -14.5 89.5t-15 75.5t-14.5 53.5t-14 23.5q-5 2 -12.5 -18.5t-18 -55t-23 -78.5t-27.5 -90h139zM408 764q-4 -30 -12.5 -58t-23.5 -49t-36 -33t-51 -12q-27 0 -44 8.5t-28.5 21t-19 27t-15.5 27t-17.5 20.5t-24.5 8q-16 0 -25.5 -10t-14 -25t-5 -34t2.5 -37
q-25 1 -38 13.5t-16 31t3 39t19.5 37.5t33 27.5t43.5 8.5q37 -3 57.5 -20.5t33.5 -37t22.5 -35t26.5 -16.5q20 -1 31 6.5t17.5 18.5t11.5 24.5t13 24.5t20.5 18t35.5 6z" />
    <glyph glyph-name="Adieresis" unicode="&#xc4;" horiz-adv-x="401" 
d="M128 222q-9 -37 -18 -74.5t-21 -67t-29.5 -47t-43.5 -14.5q16 59 31 124.5t32 133t37.5 135.5t47.5 134q12 29 27 41.5t31 11.5q19 -1 36 -23t27 -54q10 -35 24 -92.5t28.5 -126.5t29.5 -144t28 -147q-22 -3 -37 17t-26.5 52t-20 70.5t-16.5 72.5zM278 285
q-7 47 -14.5 89.5t-15 75.5t-14.5 53.5t-14 23.5q-5 2 -12.5 -18.5t-18 -55t-23 -78.5t-27.5 -90h139zM116 642q0 18 12.5 25.5t27.5 7t27.5 -8.5t12.5 -21q0 -20 -12.5 -27.5t-27.5 -6t-27.5 10t-12.5 20.5zM242 642q0 18 12.5 25.5t27.5 7t27.5 -8.5t12.5 -21
q0 -20 -12.5 -27.5t-27.5 -6t-27.5 10t-12.5 20.5z" />
    <glyph glyph-name="Aring" unicode="&#xc5;" horiz-adv-x="401" 
d="M128 222q-9 -37 -18 -74.5t-21 -67t-29.5 -47t-43.5 -14.5q16 59 31 124.5t32 133t37.5 135.5t47.5 134q12 29 27 41.5t31 11.5q19 -1 36 -23t27 -54q10 -35 24 -92.5t28.5 -126.5t29.5 -144t28 -147q-22 -3 -37 17t-26.5 52t-20 70.5t-16.5 72.5zM278 285
q-7 47 -14.5 89.5t-15 75.5t-14.5 53.5t-14 23.5q-5 2 -12.5 -18.5t-18 -55t-23 -78.5t-27.5 -90h139zM136 669q-2 25 8.5 42.5t28 27t38.5 11.5t39.5 -4t32 -20t15.5 -35q3 -36 -20.5 -55.5t-54.5 -23t-57.5 10.5t-29.5 46zM252 682q-2 17 -14 23.5t-25.5 5t-24 -10.5
t-8.5 -23q2 -16 14 -21.5t25 -3.5t23.5 10.5t9.5 19.5z" />
    <glyph glyph-name="AE" unicode="&#xc6;" horiz-adv-x="701" 
d="M388 2q-21 0 -39.5 9t-18.5 35l-4 175l-159 -3q-19 -54 -37 -95t-37 -68.5t-40 -40t-46 -9.5q51 118 111 256.5t129 282.5q14 29 32 41t34 11q12 -1 25 -14q17 19 49 19h295q4 -8 2.5 -17.5t-8 -18t-17 -14.5t-23.5 -6l-257 1q0 -3 0.5 -9t0.5 -25.5t0.5 -57.5t1.5 -105
h222q4 -8 2 -17t-8.5 -17t-17.5 -13t-24 -5l-173 -3l7 -236l299 -2q4 -8 2 -17t-8.5 -17t-17.5 -13t-24 -5zM319 283q1 47 0 89.5t-3 75t-6.5 53.5t-10.5 24q-4 1 -13.5 -20t-24 -56t-33 -79.5t-40.5 -89.5z" />
    <glyph glyph-name="Ccedilla" unicode="&#xc7;" horiz-adv-x="353" 
d="M237 0q-59 -3 -101.5 20.5t-70 64t-39.5 95.5t-9 115q2 53 17.5 98.5t38.5 81t50 61t53 39.5q28 15 54.5 20.5t47.5 2t34.5 -15.5t13.5 -31q-52 1 -96 -18.5t-76.5 -54.5t-51 -83.5t-20.5 -106.5q-2 -63 11.5 -112t45 -80t82.5 -41.5t125 3.5q-4 -27 -32.5 -41.5
t-76.5 -16.5zM228 -22q33 -3 49.5 -20.5t18.5 -39t-9.5 -41.5t-33.5 -27q-14 -5 -25.5 -3.5t-19.5 7t-12.5 13t-4.5 16.5q20 2 38 6t18 19t-11.5 20.5t-26.5 4.5q-15 2 -21.5 7.5t-8.5 15t-1.5 23t0.5 31.5q4 8 12 12t17 4t16 -4.5t9 -13.5z" />
    <glyph glyph-name="Egrave" unicode="&#xc8;" 
d="M81 2q-21 0 -39.5 9t-18.5 35l-6 497q0 27 17 42.5t46 15.5h295q4 -8 2.5 -17.5t-8 -18t-17 -14.5t-23.5 -6l-257 1q0 -3 0.5 -9t0.5 -25.5t0.5 -57.5t1.5 -105h222q4 -8 2 -17t-8.5 -17t-17.5 -13t-24 -5l-173 -3l4 -236l302 -2q4 -8 2 -17t-8.5 -17t-17.5 -13t-24 -5z
M257 629q-4 -4 -11.5 -6.5t-16.5 -3t-17.5 2t-12.5 9.5l-57 111q22 13 41.5 6.5t33.5 -31.5z" />
    <glyph glyph-name="Eacute" unicode="&#xc9;" 
d="M81 2q-21 0 -39.5 9t-18.5 35l-6 497q0 27 17 42.5t46 15.5h295q4 -8 2.5 -17.5t-8 -18t-17 -14.5t-23.5 -6l-257 1q0 -3 0.5 -9t0.5 -25.5t0.5 -57.5t1.5 -105h222q4 -8 2 -17t-8.5 -17t-17.5 -13t-24 -5l-173 -3l4 -236l302 -2q4 -8 2 -17t-8.5 -17t-17.5 -13t-24 -5z
M186 727q8 14 28 18.5t41 -7.5l-50 -98q-5 -10 -15 -14.5t-20.5 -5.5t-19.5 1t-13 6z" />
    <glyph glyph-name="Ecircumflex" unicode="&#xca;" 
d="M81 2q-21 0 -39.5 9t-18.5 35l-6 497q0 27 17 42.5t46 15.5h295q4 -8 2.5 -17.5t-8 -18t-17 -14.5t-23.5 -6l-257 1q0 -3 0.5 -9t0.5 -25.5t0.5 -57.5t1.5 -105h222q4 -8 2 -17t-8.5 -17t-17.5 -13t-24 -5l-173 -3l4 -236l302 -2q4 -8 2 -17t-8.5 -17t-17.5 -13t-24 -5z
M295 629q-4 -4 -13 -6.5t-18.5 -3t-19 2t-13.5 10.5l-35 63l-32 -60q-5 -8 -15 -11.5t-20.5 -3t-19 4t-11.5 8.5l64 124q7 11 16.5 15.5t19 3.5t18 -5.5t12.5 -11.5z" />
    <glyph glyph-name="Edieresis" unicode="&#xcb;" 
d="M81 2q-21 0 -39.5 9t-18.5 35l-6 497q0 27 17 42.5t46 15.5h295q4 -8 2.5 -17.5t-8 -18t-17 -14.5t-23.5 -6l-257 1q0 -3 0.5 -9t0.5 -25.5t0.5 -57.5t1.5 -105h222q4 -8 2 -17t-8.5 -17t-17.5 -13t-24 -5l-173 -3l4 -236l302 -2q4 -8 2 -17t-8.5 -17t-17.5 -13t-24 -5z
M99 654q0 18 12.5 25.5t27.5 7t27.5 -8.5t12.5 -21q0 -20 -12.5 -27.5t-27.5 -6t-27.5 10t-12.5 20.5zM225 654q0 18 12.5 25.5t27.5 7t27.5 -8.5t12.5 -21q0 -20 -12.5 -27.5t-27.5 -6t-27.5 10t-12.5 20.5z" />
    <glyph glyph-name="Igrave" unicode="&#xcc;" horiz-adv-x="94" 
d="M14 599q15 2 28 -5t21 -21q5 -8 7.5 -22.5t2.5 -48.5l8 -500q-8 -5 -18 -3.5t-19 7.5t-15.5 16.5t-7.5 23.5zM109 629q-4 -4 -11.5 -6.5t-16.5 -3t-17.5 2t-12.5 9.5l-57 111q22 13 41.5 6.5t33.5 -31.5z" />
    <glyph glyph-name="Iacute" unicode="&#xcd;" horiz-adv-x="94" 
d="M14 599q15 2 28 -5t21 -21q5 -8 7.5 -22.5t2.5 -48.5l8 -500q-8 -5 -18 -3.5t-19 7.5t-15.5 16.5t-7.5 23.5zM38 727q8 14 28 18.5t41 -7.5l-50 -98q-5 -10 -15 -14.5t-20.5 -5.5t-19.5 1t-13 6z" />
    <glyph glyph-name="Icircumflex" unicode="&#xce;" horiz-adv-x="94" 
d="M14 599q15 2 28 -5t21 -21q5 -8 7.5 -22.5t2.5 -48.5l8 -500q-8 -5 -18 -3.5t-19 7.5t-15.5 16.5t-7.5 23.5zM147 629q-4 -4 -13 -6.5t-18.5 -3t-19 2t-13.5 10.5l-35 63l-32 -60q-5 -8 -15 -11.5t-20.5 -3t-19 4t-11.5 8.5l64 124q7 11 16.5 15.5t19 3.5t18 -5.5
t12.5 -11.5z" />
    <glyph glyph-name="Idieresis" unicode="&#xcf;" horiz-adv-x="94" 
d="M14 599q15 2 28 -5t21 -21q5 -8 7.5 -22.5t2.5 -48.5l8 -500q-8 -5 -18 -3.5t-19 7.5t-15.5 16.5t-7.5 23.5zM-76 644q0 18 12.5 25.5t27.5 7t27.5 -8.5t12.5 -21q0 -20 -12.5 -27.5t-27.5 -6t-27.5 10t-12.5 20.5zM50 644q0 18 12.5 25.5t27.5 7t27.5 -8.5t12.5 -21
q0 -20 -12.5 -27.5t-27.5 -6t-27.5 10t-12.5 20.5z" />
    <glyph glyph-name="Eth" unicode="&#xd0;" horiz-adv-x="385" 
d="M51 269l-73 -1q-5 8 -3.5 17.5t8 18.5t17 15t23.5 6h27l-1 231q-6 1 -13 2.5t-12.5 5.5t-9.5 12t-4 22q103 10 173.5 -8.5t114 -57.5t62 -93.5t17.5 -117.5q-2 -87 -31.5 -150.5t-80.5 -103.5t-118.5 -55.5t-143.5 -5.5q5 16 15 29.5t34 15.5zM319 319q0 40 -11.5 81
t-36.5 74t-65 54.5t-95 21.5q-1 0 -1.5 -8t-0.5 -32t0.5 -68t0.5 -117l100 1q3 -31 -27 -47q-8 -4 -22.5 -6.5t-48.5 -1.5h-2v-213q46 0 84 23t66 60t43.5 83.5t15.5 94.5z" />
    <glyph glyph-name="Ntilde" unicode="&#xd1;" horiz-adv-x="425" 
d="M26 558q4 20 12 29.5t17.5 10.5t19.5 -4.5t18 -15.5l260 -498q-1 137 -3 234t2.5 160t17.5 94t42 36v-570q0 -14 -11.5 -23t-27.5 -11.5t-33 2t-28 19.5l-229 455q-2 -102 -2 -190.5t-5 -152.5t-19 -100t-45 -33zM420 764q-4 -30 -12.5 -58t-23.5 -49t-36 -33t-51 -12
q-27 0 -44 8.5t-28.5 21t-19 27t-15.5 27t-17.5 20.5t-24.5 8q-16 0 -25.5 -10t-14 -25t-5 -34t2.5 -37q-25 1 -38 13.5t-16 31t3 39t19.5 37.5t33 27.5t43.5 8.5q37 -3 57.5 -20.5t33.5 -37t22.5 -35t26.5 -16.5q20 -1 31 6.5t17.5 18.5t11.5 24.5t13 24.5t20.5 18t35.5 6z
" />
    <glyph glyph-name="Ograve" unicode="&#xd2;" horiz-adv-x="393" 
d="M195 -2q-48 0 -83 22t-58.5 58.5t-35 84.5t-12.5 100q-2 61 11 122t38.5 109.5t63.5 79t86 30.5t84.5 -28t60 -73.5t34.5 -103.5t9 -117q-2 -54 -15 -105t-38 -90.5t-61 -64t-84 -24.5zM193 50q33 -1 58 18.5t43 52t27.5 75t11.5 87.5q1 49 -7 96.5t-24.5 84.5t-41 59
t-55.5 21q-33 -2 -59 -26.5t-43.5 -63t-26.5 -86.5t-8 -97q0 -42 8 -81.5t23.5 -70t38.5 -49.5t55 -20zM257 629q-4 -4 -11.5 -6.5t-16.5 -3t-17.5 2t-12.5 9.5l-57 111q22 13 41.5 6.5t33.5 -31.5z" />
    <glyph glyph-name="Oacute" unicode="&#xd3;" horiz-adv-x="393" 
d="M195 -2q-48 0 -83 22t-58.5 58.5t-35 84.5t-12.5 100q-2 61 11 122t38.5 109.5t63.5 79t86 30.5t84.5 -28t60 -73.5t34.5 -103.5t9 -117q-2 -54 -15 -105t-38 -90.5t-61 -64t-84 -24.5zM193 50q33 -1 58 18.5t43 52t27.5 75t11.5 87.5q1 49 -7 96.5t-24.5 84.5t-41 59
t-55.5 21q-33 -2 -59 -26.5t-43.5 -63t-26.5 -86.5t-8 -97q0 -42 8 -81.5t23.5 -70t38.5 -49.5t55 -20zM186 727q8 14 28 18.5t41 -7.5l-50 -98q-5 -10 -15 -14.5t-20.5 -5.5t-19.5 1t-13 6z" />
    <glyph glyph-name="Ocircumflex" unicode="&#xd4;" horiz-adv-x="393" 
d="M195 -2q-48 0 -83 22t-58.5 58.5t-35 84.5t-12.5 100q-2 61 11 122t38.5 109.5t63.5 79t86 30.5t84.5 -28t60 -73.5t34.5 -103.5t9 -117q-2 -54 -15 -105t-38 -90.5t-61 -64t-84 -24.5zM193 50q33 -1 58 18.5t43 52t27.5 75t11.5 87.5q1 49 -7 96.5t-24.5 84.5t-41 59
t-55.5 21q-33 -2 -59 -26.5t-43.5 -63t-26.5 -86.5t-8 -97q0 -42 8 -81.5t23.5 -70t38.5 -49.5t55 -20zM295 629q-4 -4 -13 -6.5t-18.5 -3t-19 2t-13.5 10.5l-35 63l-32 -60q-5 -8 -15 -11.5t-20.5 -3t-19 4t-11.5 8.5l64 124q7 11 16.5 15.5t19 3.5t18 -5.5t12.5 -11.5z
" />
    <glyph glyph-name="Otilde" unicode="&#xd5;" horiz-adv-x="393" 
d="M195 -2q-48 0 -83 22t-58.5 58.5t-35 84.5t-12.5 100q-2 61 11 122t38.5 109.5t63.5 79t86 30.5t84.5 -28t60 -73.5t34.5 -103.5t9 -117q-2 -54 -15 -105t-38 -90.5t-61 -64t-84 -24.5zM193 50q33 -1 58 18.5t43 52t27.5 75t11.5 87.5q1 49 -7 96.5t-24.5 84.5t-41 59
t-55.5 21q-33 -2 -59 -26.5t-43.5 -63t-26.5 -86.5t-8 -97q0 -42 8 -81.5t23.5 -70t38.5 -49.5t55 -20zM404 764q-4 -30 -12.5 -58t-23.5 -49t-36 -33t-51 -12q-27 0 -44 8.5t-28.5 21t-19 27t-15.5 27t-17.5 20.5t-24.5 8q-16 0 -25.5 -10t-14 -25t-5 -34t2.5 -37
q-25 1 -38 13.5t-16 31t3 39t19.5 37.5t33 27.5t43.5 8.5q37 -3 57.5 -20.5t33.5 -37t22.5 -35t26.5 -16.5q20 -1 31 6.5t17.5 18.5t11.5 24.5t13 24.5t20.5 18t35.5 6z" />
    <glyph glyph-name="Odieresis" unicode="&#xd6;" horiz-adv-x="393" 
d="M195 -2q-48 0 -83 22t-58.5 58.5t-35 84.5t-12.5 100q-2 61 11 122t38.5 109.5t63.5 79t86 30.5t84.5 -28t60 -73.5t34.5 -103.5t9 -117q-2 -54 -15 -105t-38 -90.5t-61 -64t-84 -24.5zM193 50q33 -1 58 18.5t43 52t27.5 75t11.5 87.5q1 49 -7 96.5t-24.5 84.5t-41 59
t-55.5 21q-33 -2 -59 -26.5t-43.5 -63t-26.5 -86.5t-8 -97q0 -42 8 -81.5t23.5 -70t38.5 -49.5t55 -20zM93 642q0 18 12.5 25.5t27.5 7t27.5 -8.5t12.5 -21q0 -20 -12.5 -27.5t-27.5 -6t-27.5 10t-12.5 20.5zM219 642q0 18 12.5 25.5t27.5 7t27.5 -8.5t12.5 -21
q0 -20 -12.5 -27.5t-27.5 -6t-27.5 10t-12.5 20.5z" />
    <glyph glyph-name="multiply" unicode="&#xd7;" horiz-adv-x="393" 
d="M192 342l103 96q9 -2 14.5 -10t7 -18.5t-2 -22.5t-12.5 -21l-71 -65l99 -108q-20 -23 -53 -12q-8 3 -19.5 11.5t-34.5 34.5l-34 35l-105 -97q-23 20 -12 53q3 8 12 19.5t34 34.5l33 32l-94 100q2 9 10 14.5t18.5 7t22.5 -2t21 -12.5z" />
    <glyph glyph-name="Oslash" unicode="&#xd8;" horiz-adv-x="393" 
d="M195 -2q-48 0 -83 22t-58.5 58.5t-35 84.5t-12.5 100q-2 61 11 122t38.5 109.5t63.5 79t86 30.5t84.5 -28t60 -73.5t34.5 -103.5t9 -117q-2 -54 -15 -105t-38 -90.5t-61 -64t-84 -24.5zM193 50q33 -1 58 18.5t43 52t27.5 75t11.5 87.5q1 49 -7 96.5t-24.5 84.5t-41 59
t-55.5 21q-33 -2 -59 -26.5t-43.5 -63t-26.5 -86.5t-8 -97q0 -42 8 -81.5t23.5 -70t38.5 -49.5t55 -20zM282 606q15 -3 25.5 -14t12.5 -27q2 -10 -1 -24.5t-14 -46.5l-184 -499q-9 -2 -18 2.5t-15.5 13t-9 20.5t0.5 25z" />
    <glyph glyph-name="Ugrave" unicode="&#xd9;" horiz-adv-x="354" 
d="M337 -5q-24 -4 -37.5 11t-18.5 44q-24 -17 -45 -30t-50 -19q-47 -10 -78 7.5t-50.5 52t-28 82t-12 98.5t-2.5 100.5t2 88.5q1 52 7 85t15.5 52t23.5 25t32 4q-4 -34 -9 -89t-7.5 -116.5t0 -123t13 -109.5t31.5 -75.5t56 -20.5q14 3 28.5 10t27.5 17t24 20.5t18 19.5
l9 469q8 5 17.5 3.5t18.5 -7.5t15 -16.5t7 -23.5zM239 629q-4 -4 -11.5 -6.5t-16.5 -3t-17.5 2t-12.5 9.5l-57 111q22 13 41.5 6.5t33.5 -31.5z" />
    <glyph glyph-name="Uacute" unicode="&#xda;" horiz-adv-x="354" 
d="M337 -5q-24 -4 -37.5 11t-18.5 44q-24 -17 -45 -30t-50 -19q-47 -10 -78 7.5t-50.5 52t-28 82t-12 98.5t-2.5 100.5t2 88.5q1 52 7 85t15.5 52t23.5 25t32 4q-4 -34 -9 -89t-7.5 -116.5t0 -123t13 -109.5t31.5 -75.5t56 -20.5q14 3 28.5 10t27.5 17t24 20.5t18 19.5
l9 469q8 5 17.5 3.5t18.5 -7.5t15 -16.5t7 -23.5zM199 724q8 14 28 18.5t41 -7.5l-50 -98q-5 -10 -15 -14.5t-20.5 -5.5t-19.5 1t-13 6z" />
    <glyph glyph-name="Ucircumflex" unicode="&#xdb;" horiz-adv-x="354" 
d="M337 -5q-24 -4 -37.5 11t-18.5 44q-24 -17 -45 -30t-50 -19q-47 -10 -78 7.5t-50.5 52t-28 82t-12 98.5t-2.5 100.5t2 88.5q1 52 7 85t15.5 52t23.5 25t32 4q-4 -34 -9 -89t-7.5 -116.5t0 -123t13 -109.5t31.5 -75.5t56 -20.5q14 3 28.5 10t27.5 17t24 20.5t18 19.5
l9 469q8 5 17.5 3.5t18.5 -7.5t15 -16.5t7 -23.5zM290 627q-4 -4 -13 -6.5t-18.5 -3t-19 2t-13.5 10.5l-35 63l-32 -60q-5 -8 -15 -11.5t-20.5 -3t-19 4t-11.5 8.5l64 124q7 11 16.5 15.5t19 3.5t18 -5.5t12.5 -11.5z" />
    <glyph glyph-name="Udieresis" unicode="&#xdc;" horiz-adv-x="354" 
d="M337 -5q-24 -4 -37.5 11t-18.5 44q-24 -17 -45 -30t-50 -19q-47 -10 -78 7.5t-50.5 52t-28 82t-12 98.5t-2.5 100.5t2 88.5q1 52 7 85t15.5 52t23.5 25t32 4q-4 -34 -9 -89t-7.5 -116.5t0 -123t13 -109.5t31.5 -75.5t56 -20.5q14 3 28.5 10t27.5 17t24 20.5t18 19.5
l9 469q8 5 17.5 3.5t18.5 -7.5t15 -16.5t7 -23.5zM91 647q0 18 12.5 25.5t27.5 7t27.5 -8.5t12.5 -21q0 -20 -12.5 -27.5t-27.5 -6t-27.5 10t-12.5 20.5zM217 647q0 18 12.5 25.5t27.5 7t27.5 -8.5t12.5 -21q0 -20 -12.5 -27.5t-27.5 -6t-27.5 10t-12.5 20.5z" />
    <glyph glyph-name="Yacute" unicode="&#xdd;" horiz-adv-x="418" 
d="M215 46q-1 91 -2.5 140.5t-3 72t-2.5 26.5t-1 5l-197 296q19 12 41 11t35 -18l154 -216l98 204q4 12 13.5 19.5t20.5 11t21 3t15 -4.5q-3 -15 -12.5 -39.5t-23 -55t-29 -63t-29.5 -62t-25 -54t-16 -37.5q0 -3 0.5 -10.5t0.5 -35t0.5 -83t2.5 -154.5q-8 -5 -18 -3.5
t-19.5 7.5t-16 16.5t-7.5 23.5zM235 724q8 14 28 18.5t41 -7.5l-50 -98q-5 -10 -15 -14.5t-20.5 -5.5t-19.5 1t-13 6z" />
    <glyph glyph-name="Thorn" unicode="&#xde;" horiz-adv-x="319" 
d="M10 602q22 -1 32.5 -15.5t15 -34.5t4.5 -41t1 -35q31 4 74 3t81.5 -13.5t66 -39.5t27.5 -75q0 -44 -18.5 -80t-52 -62t-79.5 -41t-99 -18q0 -44 -1 -72.5t-6.5 -45t-16 -23.5t-29.5 -9v602zM63 211q43 -1 79 10.5t61.5 31t39 45t12.5 53.5q-2 31 -23.5 49t-51.5 24.5
t-62.5 4t-54.5 -11.5v-206z" />
    <glyph glyph-name="germandbls" unicode="&#xdf;" horiz-adv-x="308" 
d="M61 61q-2 -39 -15.5 -55t-36.5 -14l-1 445q3 34 13.5 64t30 52t47.5 34.5t66 12.5q33 -1 56.5 -17t36.5 -41.5t14.5 -56.5t-8 -61.5t-31.5 -57t-57 -42.5q37 -5 64 -24t43 -48.5t20 -66.5t-6 -76q-12 -42 -42 -73t-83 -36q-20 -2 -43.5 0t-44.5 10q4 16 12 24t19 11t24 3
h27q34 3 53.5 28t26.5 54q7 37 -1 67t-28 50t-51.5 29.5t-70.5 5.5q-4 18 -2.5 30t6 19t9.5 10t8 5q21 10 40.5 24.5t34 32t22.5 38t7 42.5q-2 33 -19 50t-41 16q-30 -1 -48.5 -15t-29 -34t-14.5 -43t-5 -43z" />
    <glyph glyph-name="agrave" unicode="&#xe0;" horiz-adv-x="346" 
d="M273 139q-13 -33 -36.5 -62.5t-52.5 -48.5t-60 -24.5t-59 9.5q-29 16 -42 48.5t-9.5 74t24.5 88t61 90.5q29 32 73.5 55t92.5 28q32 0 50 -13t18 -48v-83.5t-1 -90.5t-2 -91t-3 -85q-9 1 -21 4.5t-21.5 18.5t-13.5 45.5t2 84.5zM266 341q-42 -5 -74.5 -23t-56.5 -44
q-26 -29 -42 -64.5t-20.5 -67t2 -54.5t26.5 -27q31 -7 62 20.5t55.5 72t38 96t9.5 91.5zM305 433q-4 -4 -11.5 -6.5t-16.5 -3t-17.5 2t-12.5 9.5l-57 111q22 13 41.5 6.5t33.5 -31.5z" />
    <glyph glyph-name="aacute" unicode="&#xe1;" horiz-adv-x="346" 
d="M273 139q-13 -33 -36.5 -62.5t-52.5 -48.5t-60 -24.5t-59 9.5q-29 16 -42 48.5t-9.5 74t24.5 88t61 90.5q29 32 73.5 55t92.5 28q32 0 50 -13t18 -48v-83.5t-1 -90.5t-2 -91t-3 -85q-9 1 -21 4.5t-21.5 18.5t-13.5 45.5t2 84.5zM266 341q-42 -5 -74.5 -23t-56.5 -44
q-26 -29 -42 -64.5t-20.5 -67t2 -54.5t26.5 -27q31 -7 62 20.5t55.5 72t38 96t9.5 91.5zM216 523q8 14 28 18.5t41 -7.5l-50 -98q-5 -10 -15 -14.5t-20.5 -5.5t-19.5 1t-13 6z" />
    <glyph glyph-name="acircumflex" unicode="&#xe2;" horiz-adv-x="346" 
d="M273 139q-13 -33 -36.5 -62.5t-52.5 -48.5t-60 -24.5t-59 9.5q-29 16 -42 48.5t-9.5 74t24.5 88t61 90.5q29 32 73.5 55t92.5 28q32 0 50 -13t18 -48v-83.5t-1 -90.5t-2 -91t-3 -85q-9 1 -21 4.5t-21.5 18.5t-13.5 45.5t2 84.5zM266 341q-42 -5 -74.5 -23t-56.5 -44
q-26 -29 -42 -64.5t-20.5 -67t2 -54.5t26.5 -27q31 -7 62 20.5t55.5 72t38 96t9.5 91.5zM331 425q-4 -4 -13 -6.5t-18.5 -3t-19 2t-13.5 10.5l-35 63l-32 -60q-5 -8 -15 -11.5t-20.5 -3t-19 4t-11.5 8.5l64 124q7 11 16.5 15.5t19 3.5t18 -5.5t12.5 -11.5z" />
    <glyph glyph-name="atilde" unicode="&#xe3;" horiz-adv-x="346" 
d="M273 139q-13 -33 -36.5 -62.5t-52.5 -48.5t-60 -24.5t-59 9.5q-29 16 -42 48.5t-9.5 74t24.5 88t61 90.5q29 32 73.5 55t92.5 28q32 0 50 -13t18 -48v-83.5t-1 -90.5t-2 -91t-3 -85q-9 1 -21 4.5t-21.5 18.5t-13.5 45.5t2 84.5zM266 341q-42 -5 -74.5 -23t-56.5 -44
q-26 -29 -42 -64.5t-20.5 -67t2 -54.5t26.5 -27q31 -7 62 20.5t55.5 72t38 96t9.5 91.5zM420 581q-4 -30 -12.5 -58t-23.5 -49t-36 -33t-51 -12q-27 0 -44 8.5t-28.5 21t-19 27t-15.5 27t-17.5 20.5t-24.5 8q-16 0 -25.5 -10t-14 -25t-5 -34t2.5 -37q-25 1 -38 13.5t-16 31
t3 39t19.5 37.5t33 27.5t43.5 8.5q37 -3 57.5 -20.5t33.5 -37t22.5 -35t26.5 -16.5q20 -1 31 6.5t17.5 18.5t11.5 24.5t13 24.5t20.5 18t35.5 6z" />
    <glyph glyph-name="adieresis" unicode="&#xe4;" horiz-adv-x="346" 
d="M273 139q-13 -33 -36.5 -62.5t-52.5 -48.5t-60 -24.5t-59 9.5q-29 16 -42 48.5t-9.5 74t24.5 88t61 90.5q29 32 73.5 55t92.5 28q32 0 50 -13t18 -48v-83.5t-1 -90.5t-2 -91t-3 -85q-9 1 -21 4.5t-21.5 18.5t-13.5 45.5t2 84.5zM266 341q-42 -5 -74.5 -23t-56.5 -44
q-26 -29 -42 -64.5t-20.5 -67t2 -54.5t26.5 -27q31 -7 62 20.5t55.5 72t38 96t9.5 91.5zM121 450q0 18 12.5 25.5t27.5 7t27.5 -8.5t12.5 -21q0 -20 -12.5 -27.5t-27.5 -6t-27.5 10t-12.5 20.5zM247 450q0 18 12.5 25.5t27.5 7t27.5 -8.5t12.5 -21q0 -20 -12.5 -27.5
t-27.5 -6t-27.5 10t-12.5 20.5z" />
    <glyph glyph-name="aring" unicode="&#xe5;" horiz-adv-x="346" 
d="M273 139q-13 -33 -36.5 -62.5t-52.5 -48.5t-60 -24.5t-59 9.5q-29 16 -42 48.5t-9.5 74t24.5 88t61 90.5q29 32 73.5 55t92.5 28q32 0 50 -13t18 -48v-83.5t-1 -90.5t-2 -91t-3 -85q-9 1 -21 4.5t-21.5 18.5t-13.5 45.5t2 84.5zM266 341q-42 -5 -74.5 -23t-56.5 -44
q-26 -29 -42 -64.5t-20.5 -67t2 -54.5t26.5 -27q31 -7 62 20.5t55.5 72t38 96t9.5 91.5zM151 471q-2 25 8.5 42.5t28 27t38.5 11.5t39.5 -4t32 -20t15.5 -35q3 -36 -20.5 -55.5t-54.5 -23t-57.5 10.5t-29.5 46zM267 484q-2 17 -14 23.5t-25.5 5t-24 -10.5t-8.5 -23
q2 -16 14 -21.5t25 -3.5t23.5 10.5t9.5 19.5z" />
    <glyph glyph-name="ae" unicode="&#xe6;" horiz-adv-x="566" 
d="M412 398q21 0 44 -6t42.5 -18.5t32.5 -32t13 -47.5q-1 -47 -29 -72.5t-66 -34.5t-77.5 -4.5t-63.5 17.5q-1 -28 5 -54t20.5 -45.5t36.5 -31t52 -11.5q13 0 30 5t34.5 12t33.5 15.5t27 15.5q5 -16 0.5 -30.5t-14 -26t-23 -20.5t-25.5 -14q-19 -8 -38 -12t-34 -4
q-18 0 -39.5 5t-42.5 17t-39 32.5t-30 51.5q-15 -29 -38.5 -53.5t-50.5 -40t-55 -19t-53 10.5t-39 40.5t-13 61.5q1 38 14.5 78t36.5 76.5t53 65.5t64 46t69 18.5t68 -18.5q19 13 42 20t52 7zM276 329q-33 8 -66 -9t-61.5 -47.5t-49 -68.5t-27.5 -72q-7 -30 -0.5 -52.5
t29.5 -28.5q20 -5 40.5 5.5t39.5 32t35.5 51t28.5 61.5q5 34 11.5 67t19.5 61zM407 343q-30 0 -53.5 -21t-36.5 -50l-1 -1l-5 -18q19 -7 46 -11t53.5 -1t47.5 15t27 38q0 14 -7.5 23.5t-19 15t-25.5 8t-26 2.5z" />
    <glyph glyph-name="ccedilla" unicode="&#xe7;" horiz-adv-x="316" 
d="M17 154q-2 50 13 92t42.5 73.5t67 52t87.5 26.5q17 2 31.5 -1.5t24.5 -11t14 -18t0 -23.5q-45 3 -85.5 -8t-71 -35.5t-47 -62t-11.5 -88.5q3 -38 22.5 -60t49 -30.5t65 -5.5t71.5 16q6 -14 0.5 -27t-17 -23t-27.5 -16t-31 -6q-30 0 -64 5.5t-63.5 22.5t-49 47.5
t-21.5 80.5zM193 -16q33 -3 49.5 -20.5t18.5 -39t-9.5 -41.5t-33.5 -27q-14 -5 -25.5 -3.5t-19.5 7t-12.5 13t-4.5 16.5q20 2 38 6t18 19t-11.5 20.5t-26.5 4.5q-15 2 -21.5 7.5t-8.5 15t-1.5 23t0.5 31.5q4 8 12 12t17 4t16 -4.5t9 -13.5z" />
    <glyph glyph-name="egrave" unicode="&#xe8;" horiz-adv-x="331" 
d="M177 398q21 0 44 -6t42.5 -18.5t32.5 -32t13 -47.5q-1 -32 -14.5 -53.5t-34.5 -34.5t-47 -19t-52.5 -6t-50 5t-39.5 14q-1 -28 5.5 -54t21 -45.5t37 -31t52.5 -11.5q13 0 30 5t34.5 12t33.5 15.5t27 15.5q5 -16 0.5 -30.5t-14 -26t-23 -20.5t-25.5 -14q-19 -8 -38 -12
t-34 -4q-25 0 -54.5 9.5t-55 34t-42.5 66t-16 106.5q8 85 48.5 134t118.5 49zM76 254q19 -7 46 -11t53.5 -1.5t47.5 14.5t27 38q0 14 -7.5 23.5t-19 15t-25.5 8t-26 2.5q-35 0 -60 -27t-36 -62zM228 429q-4 -4 -11.5 -6.5t-16.5 -3t-17.5 2t-12.5 9.5l-57 111
q22 13 41.5 6.5t33.5 -31.5z" />
    <glyph glyph-name="eacute" unicode="&#xe9;" horiz-adv-x="331" 
d="M177 398q21 0 44 -6t42.5 -18.5t32.5 -32t13 -47.5q-1 -32 -14.5 -53.5t-34.5 -34.5t-47 -19t-52.5 -6t-50 5t-39.5 14q-1 -28 5.5 -54t21 -45.5t37 -31t52.5 -11.5q13 0 30 5t34.5 12t33.5 15.5t27 15.5q5 -16 0.5 -30.5t-14 -26t-23 -20.5t-25.5 -14q-19 -8 -38 -12
t-34 -4q-25 0 -54.5 9.5t-55 34t-42.5 66t-16 106.5q8 85 48.5 134t118.5 49zM76 254q19 -7 46 -11t53.5 -1.5t47.5 14.5t27 38q0 14 -7.5 23.5t-19 15t-25.5 8t-26 2.5q-35 0 -60 -27t-36 -62zM155 527q8 14 28 18.5t41 -7.5l-50 -98q-5 -10 -15 -14.5t-20.5 -5.5t-19.5 1
t-13 6z" />
    <glyph glyph-name="ecircumflex" unicode="&#xea;" horiz-adv-x="331" 
d="M177 398q21 0 44 -6t42.5 -18.5t32.5 -32t13 -47.5q-1 -32 -14.5 -53.5t-34.5 -34.5t-47 -19t-52.5 -6t-50 5t-39.5 14q-1 -28 5.5 -54t21 -45.5t37 -31t52.5 -11.5q13 0 30 5t34.5 12t33.5 15.5t27 15.5q5 -16 0.5 -30.5t-14 -26t-23 -20.5t-25.5 -14q-19 -8 -38 -12
t-34 -4q-25 0 -54.5 9.5t-55 34t-42.5 66t-16 106.5q8 85 48.5 134t118.5 49zM76 254q19 -7 46 -11t53.5 -1.5t47.5 14.5t27 38q0 14 -7.5 23.5t-19 15t-25.5 8t-26 2.5q-35 0 -60 -27t-36 -62zM264 429q-4 -4 -13 -6.5t-18.5 -3t-19 2t-13.5 10.5l-35 63l-32 -60
q-5 -8 -15 -11.5t-20.5 -3t-19 4t-11.5 8.5l64 124q7 11 16.5 15.5t19 3.5t18 -5.5t12.5 -11.5z" />
    <glyph glyph-name="edieresis" unicode="&#xeb;" horiz-adv-x="331" 
d="M177 398q21 0 44 -6t42.5 -18.5t32.5 -32t13 -47.5q-1 -32 -14.5 -53.5t-34.5 -34.5t-47 -19t-52.5 -6t-50 5t-39.5 14q-1 -28 5.5 -54t21 -45.5t37 -31t52.5 -11.5q13 0 30 5t34.5 12t33.5 15.5t27 15.5q5 -16 0.5 -30.5t-14 -26t-23 -20.5t-25.5 -14q-19 -8 -38 -12
t-34 -4q-25 0 -54.5 9.5t-55 34t-42.5 66t-16 106.5q8 85 48.5 134t118.5 49zM76 254q19 -7 46 -11t53.5 -1.5t47.5 14.5t27 38q0 14 -7.5 23.5t-19 15t-25.5 8t-26 2.5q-35 0 -60 -27t-36 -62zM62 442q0 18 12.5 25.5t27.5 7t27.5 -8.5t12.5 -21q0 -20 -12.5 -27.5
t-27.5 -6t-27.5 10t-12.5 20.5zM188 442q0 18 12.5 25.5t27.5 7t27.5 -8.5t12.5 -21q0 -20 -12.5 -27.5t-27.5 -6t-27.5 10t-12.5 20.5z" />
    <glyph glyph-name="igrave" unicode="&#xec;" horiz-adv-x="91" 
d="M21 408q31 5 47 -26q5 -8 7.5 -22.5t2.5 -48.5l3 -309q-8 -5 -17.5 -3.5t-18.5 7.5t-15 16.5t-7 23.5zM106 444q-4 -4 -11.5 -6.5t-16.5 -3t-17.5 2t-12.5 9.5l-57 111q22 13 41.5 6.5t33.5 -31.5z" />
    <glyph glyph-name="iacute" unicode="&#xed;" horiz-adv-x="91" 
d="M21 408q31 5 47 -26q5 -8 7.5 -22.5t2.5 -48.5l3 -309q-8 -5 -17.5 -3.5t-18.5 7.5t-15 16.5t-7 23.5zM37 527q8 14 28 18.5t41 -7.5l-50 -98q-5 -10 -15 -14.5t-20.5 -5.5t-19.5 1t-13 6z" />
    <glyph glyph-name="icircumflex" unicode="&#xee;" horiz-adv-x="91" 
d="M21 408q31 5 47 -26q5 -8 7.5 -22.5t2.5 -48.5l3 -309q-8 -5 -17.5 -3.5t-18.5 7.5t-15 16.5t-7 23.5zM145 429q-4 -4 -13 -6.5t-18.5 -3t-19 2t-13.5 10.5l-35 63l-32 -60q-5 -8 -15 -11.5t-20.5 -3t-19 4t-11.5 8.5l64 124q7 11 16.5 15.5t19 3.5t18 -5.5t12.5 -11.5z
" />
    <glyph glyph-name="idieresis" unicode="&#xef;" horiz-adv-x="91" 
d="M21 408q31 5 47 -26q5 -8 7.5 -22.5t2.5 -48.5l3 -309q-8 -5 -17.5 -3.5t-18.5 7.5t-15 16.5t-7 23.5zM-56 462q0 18 12.5 25.5t27.5 7t27.5 -8.5t12.5 -21q0 -20 -12.5 -27.5t-27.5 -6t-27.5 10t-12.5 20.5zM70 462q0 18 12.5 25.5t27.5 7t27.5 -8.5t12.5 -21
q0 -20 -12.5 -27.5t-27.5 -6t-27.5 10t-12.5 20.5z" />
    <glyph glyph-name="ntilde" unicode="&#xf1;" horiz-adv-x="314" 
d="M9 408q24 4 37.5 -11t18.5 -44q16 15 40.5 27t51.5 16.5t53 -1.5t46 -26q18 -18 28.5 -47.5t16 -64.5t6 -72t-0.5 -71q-1 -12 -2 -25.5t-3.5 -27t-6.5 -25.5t-10 -19q-14 -17 -40 -17q3 74 3 127t-2 90t-7 60.5t-12 37.5q-12 22 -34.5 26.5t-46.5 -3t-45.5 -24
t-30.5 -35.5v-277q-8 -5 -17.5 -3.5t-18.5 7.5t-15 16.5t-7 23.5zM359 583q-4 -30 -12.5 -58t-23.5 -49t-36 -33t-51 -12q-27 0 -44 8.5t-28.5 21t-19 27t-15.5 27t-17.5 20.5t-24.5 8q-16 0 -25.5 -10t-14 -25t-5 -34t2.5 -37q-25 1 -38 13.5t-16 31t3 39t19.5 37.5
t33 27.5t43.5 8.5q37 -3 57.5 -20.5t33.5 -37t22.5 -35t26.5 -16.5q20 -1 31 6.5t17.5 18.5t11.5 24.5t13 24.5t20.5 18t35.5 6z" />
    <glyph glyph-name="ograve" unicode="&#xf2;" horiz-adv-x="329" 
d="M172 401q38 -1 65.5 -18.5t44.5 -46t24 -65t5 -73.5t-13.5 -72t-31.5 -62.5t-48 -45t-64 -18.5t-62.5 13.5t-44 40t-25.5 58.5t-8 68q0 40 10.5 80t30.5 71.5t49.5 51t67.5 18.5zM171 344q-21 0 -39 -15.5t-31.5 -39.5t-21 -53.5t-8.5 -58.5q0 -23 4.5 -44.5t14.5 -38
t26 -27t37 -10.5q22 -1 40 11.5t31 33t21 47t10 53.5q2 26 -2 51.5t-14 45.5t-27 32.5t-41 12.5zM227 429q-4 -4 -11.5 -6.5t-16.5 -3t-17.5 2t-12.5 9.5l-57 111q22 13 41.5 6.5t33.5 -31.5z" />
    <glyph glyph-name="oacute" unicode="&#xf3;" horiz-adv-x="329" 
d="M172 401q38 -1 65.5 -18.5t44.5 -46t24 -65t5 -73.5t-13.5 -72t-31.5 -62.5t-48 -45t-64 -18.5t-62.5 13.5t-44 40t-25.5 58.5t-8 68q0 40 10.5 80t30.5 71.5t49.5 51t67.5 18.5zM171 344q-21 0 -39 -15.5t-31.5 -39.5t-21 -53.5t-8.5 -58.5q0 -23 4.5 -44.5t14.5 -38
t26 -27t37 -10.5q22 -1 40 11.5t31 33t21 47t10 53.5q2 26 -2 51.5t-14 45.5t-27 32.5t-41 12.5zM154 527q8 14 28 18.5t41 -7.5l-50 -98q-5 -10 -15 -14.5t-20.5 -5.5t-19.5 1t-13 6z" />
    <glyph glyph-name="ocircumflex" unicode="&#xf4;" horiz-adv-x="329" 
d="M172 401q38 -1 65.5 -18.5t44.5 -46t24 -65t5 -73.5t-13.5 -72t-31.5 -62.5t-48 -45t-64 -18.5t-62.5 13.5t-44 40t-25.5 58.5t-8 68q0 40 10.5 80t30.5 71.5t49.5 51t67.5 18.5zM171 344q-21 0 -39 -15.5t-31.5 -39.5t-21 -53.5t-8.5 -58.5q0 -23 4.5 -44.5t14.5 -38
t26 -27t37 -10.5q22 -1 40 11.5t31 33t21 47t10 53.5q2 26 -2 51.5t-14 45.5t-27 32.5t-41 12.5zM263 429q-4 -4 -13 -6.5t-18.5 -3t-19 2t-13.5 10.5l-35 63l-32 -60q-5 -8 -15 -11.5t-20.5 -3t-19 4t-11.5 8.5l64 124q7 11 16.5 15.5t19 3.5t18 -5.5t12.5 -11.5z" />
    <glyph glyph-name="otilde" unicode="&#xf5;" horiz-adv-x="329" 
d="M172 401q38 -1 65.5 -18.5t44.5 -46t24 -65t5 -73.5t-13.5 -72t-31.5 -62.5t-48 -45t-64 -18.5t-62.5 13.5t-44 40t-25.5 58.5t-8 68q0 40 10.5 80t30.5 71.5t49.5 51t67.5 18.5zM171 344q-21 0 -39 -15.5t-31.5 -39.5t-21 -53.5t-8.5 -58.5q0 -23 4.5 -44.5t14.5 -38
t26 -27t37 -10.5q22 -1 40 11.5t31 33t21 47t10 53.5q2 26 -2 51.5t-14 45.5t-27 32.5t-41 12.5zM373 564q-4 -30 -12.5 -58t-23.5 -49t-36 -33t-51 -12q-27 0 -44 8.5t-28.5 21t-19 27t-15.5 27t-17.5 20.5t-24.5 8q-16 0 -25.5 -10t-14 -25t-5 -34t2.5 -37q-25 1 -38 13.5
t-16 31t3 39t19.5 37.5t33 27.5t43.5 8.5q37 -3 57.5 -20.5t33.5 -37t22.5 -35t26.5 -16.5q20 -1 31 6.5t17.5 18.5t11.5 24.5t13 24.5t20.5 18t35.5 6z" />
    <glyph glyph-name="odieresis" unicode="&#xf6;" horiz-adv-x="329" 
d="M172 401q38 -1 65.5 -18.5t44.5 -46t24 -65t5 -73.5t-13.5 -72t-31.5 -62.5t-48 -45t-64 -18.5t-62.5 13.5t-44 40t-25.5 58.5t-8 68q0 40 10.5 80t30.5 71.5t49.5 51t67.5 18.5zM171 344q-21 0 -39 -15.5t-31.5 -39.5t-21 -53.5t-8.5 -58.5q0 -23 4.5 -44.5t14.5 -38
t26 -27t37 -10.5q22 -1 40 11.5t31 33t21 47t10 53.5q2 26 -2 51.5t-14 45.5t-27 32.5t-41 12.5zM61 442q0 18 12.5 25.5t27.5 7t27.5 -8.5t12.5 -21q0 -20 -12.5 -27.5t-27.5 -6t-27.5 10t-12.5 20.5zM187 442q0 18 12.5 25.5t27.5 7t27.5 -8.5t12.5 -21q0 -20 -12.5 -27.5
t-27.5 -6t-27.5 10t-12.5 20.5z" />
    <glyph glyph-name="divide" unicode="&#xf7;" horiz-adv-x="395" 
d="M151 424q0 18 12.5 25.5t27.5 7t27.5 -9t12.5 -21.5q0 -19 -12.5 -26.5t-27.5 -6t-27.5 10t-12.5 20.5zM152 203q0 18 12.5 25.5t27.5 7t27.5 -9t12.5 -21.5q0 -19 -12.5 -26.5t-27.5 -6t-27.5 10t-12.5 20.5zM368 302q3 -31 -27 -47q-8 -4 -22.5 -6.5t-48.5 -1.5l-243 1
q-5 8 -3.5 17.5t8 18.5t17 15t23.5 6z" />
    <glyph glyph-name="oslash" unicode="&#xf8;" horiz-adv-x="329" 
d="M172 401q25 -2 42 -7l19 46q15 -3 25.5 -14t12.5 -27q1 -8 0.5 -16.5t-5.5 -24.5q26 -29 36.5 -72t8.5 -88q-2 -37 -13.5 -72t-31.5 -62.5t-48 -45t-64 -18.5q-20 0 -36 3l-22 -51q-9 -2 -18 2.5t-15.5 13t-9 20.5t0.5 25l9 22q-26 26 -37.5 64t-11.5 81q0 40 10.5 80
t30.5 71.5t49.5 51t67.5 18.5zM171 341q-21 0 -38.5 -15t-30.5 -38.5t-20 -52.5t-8 -58q-1 -22 3 -42t13 -36l100 239q-9 3 -19 3zM255 202q2 25 -1.5 48.5t-12.5 42.5l-99 -233q3 -1 11 -1q22 -1 40 11t31 32.5t21 46.5t10 53z" />
    <glyph glyph-name="ugrave" unicode="&#xf9;" horiz-adv-x="319" 
d="M305 -5q-24 -4 -37.5 11t-18.5 44q-17 -15 -41 -27t-51 -16.5t-53 1.5t-46 26q-18 18 -28.5 47.5t-16 64.5t-6 72t0.5 71q1 12 2 25.5t3.5 27t6.5 25t10 19.5q14 17 40 17q-3 -74 -3 -127t2 -90t6.5 -60.5t12.5 -37.5q12 -22 34.5 -26.5t46.5 3t45.5 24t30.5 35.5v277
q8 5 17.5 3.5t18.5 -7.5t15 -16.5t7 -23.5zM222 429q-4 -4 -11.5 -6.5t-16.5 -3t-17.5 2t-12.5 9.5l-57 111q22 13 41.5 6.5t33.5 -31.5z" />
    <glyph glyph-name="uacute" unicode="&#xfa;" horiz-adv-x="319" 
d="M305 -5q-24 -4 -37.5 11t-18.5 44q-17 -15 -41 -27t-51 -16.5t-53 1.5t-46 26q-18 18 -28.5 47.5t-16 64.5t-6 72t0.5 71q1 12 2 25.5t3.5 27t6.5 25t10 19.5q14 17 40 17q-3 -74 -3 -127t2 -90t6.5 -60.5t12.5 -37.5q12 -22 34.5 -26.5t46.5 3t45.5 24t30.5 35.5v277
q8 5 17.5 3.5t18.5 -7.5t15 -16.5t7 -23.5zM176 527q8 14 28 18.5t41 -7.5l-50 -98q-5 -10 -15 -14.5t-20.5 -5.5t-19.5 1t-13 6z" />
    <glyph glyph-name="ucircumflex" unicode="&#xfb;" horiz-adv-x="319" 
d="M305 -5q-24 -4 -37.5 11t-18.5 44q-17 -15 -41 -27t-51 -16.5t-53 1.5t-46 26q-18 18 -28.5 47.5t-16 64.5t-6 72t0.5 71q1 12 2 25.5t3.5 27t6.5 25t10 19.5q14 17 40 17q-3 -74 -3 -127t2 -90t6.5 -60.5t12.5 -37.5q12 -22 34.5 -26.5t46.5 3t45.5 24t30.5 35.5v277
q8 5 17.5 3.5t18.5 -7.5t15 -16.5t7 -23.5zM258 429q-4 -4 -13 -6.5t-18.5 -3t-19 2t-13.5 10.5l-35 63l-32 -60q-5 -8 -15 -11.5t-20.5 -3t-19 4t-11.5 8.5l64 124q7 11 16.5 15.5t19 3.5t18 -5.5t12.5 -11.5z" />
    <glyph glyph-name="udieresis" unicode="&#xfc;" horiz-adv-x="319" 
d="M305 -5q-24 -4 -37.5 11t-18.5 44q-17 -15 -41 -27t-51 -16.5t-53 1.5t-46 26q-18 18 -28.5 47.5t-16 64.5t-6 72t0.5 71q1 12 2 25.5t3.5 27t6.5 25t10 19.5q14 17 40 17q-3 -74 -3 -127t2 -90t6.5 -60.5t12.5 -37.5q12 -22 34.5 -26.5t46.5 3t45.5 24t30.5 35.5v277
q8 5 17.5 3.5t18.5 -7.5t15 -16.5t7 -23.5zM59 454q0 18 12.5 25.5t27.5 7t27.5 -8.5t12.5 -21q0 -20 -12.5 -27.5t-27.5 -6t-27.5 10t-12.5 20.5zM185 454q0 18 12.5 25.5t27.5 7t27.5 -8.5t12.5 -21q0 -20 -12.5 -27.5t-27.5 -6t-27.5 10t-12.5 20.5z" />
    <glyph glyph-name="yacute" unicode="&#xfd;" horiz-adv-x="370" 
d="M-444 -633q3 83 38 148.5t92 116.5t130.5 89t153 65t160 44t151.5 28l2 241q-8 -19 -22 -34t-30.5 -25.5t-33.5 -16t-30 -5.5q-43 0 -74.5 18t-49.5 61.5t-23 116.5t4 184q6 9 16.5 7t20.5 -10t16.5 -20t4.5 -23q1 -24 1 -55t1.5 -62.5t6 -61t13 -52t23 -35t37.5 -9.5
q43 6 66.5 35t35.5 69t16.5 85t7.5 82q1 12 8.5 23.5t17 19t19 9.5t15.5 -5l-7 -530q76 8 141.5 17.5t118.5 15.5q1 -17 -8.5 -29t-25 -20.5t-34.5 -13t-35 -6.5q-35 -5 -76 -11.5t-79 -13.5q-4 -80 -11 -166t-22 -170t-41 -161t-67 -137.5t-100 -100.5t-140 -50
q-80 -10 -154.5 13.5t-131.5 71.5t-91 116t-31 147zM-372 -640q0 -66 27 -121.5t72 -93t104 -54.5t124 -7q69 10 119 47t85 92.5t57.5 125t36 145.5t20 153t9.5 148q-56 -7 -126 -21t-143 -37t-142.5 -56t-123.5 -79t-87 -106t-32 -136zM175 527q8 14 28 18.5t41 -7.5
l-50 -98q-5 -10 -15 -14.5t-20.5 -5.5t-19.5 1t-13 6z" />
    <glyph glyph-name="thorn" unicode="&#xfe;" horiz-adv-x="325" 
d="M13 455q22 -1 32.5 -15.5t15 -34.5t4.5 -41t1 -35q31 4 74 3t81.5 -13.5t66 -39.5t27.5 -75q0 -44 -18.5 -80t-52 -62t-79.5 -41t-99 -18q0 -44 -1 -72.5t-6.5 -45t-16 -23.5t-29.5 -9v602zM66 64q43 -1 79 10.5t61.5 31t39 45t12.5 53.5q-2 31 -23.5 49t-51.5 24.5
t-62.5 4t-54.5 -11.5v-206z" />
    <glyph glyph-name="ydieresis" unicode="&#xff;" horiz-adv-x="370" 
d="M-444 -633q3 83 38 148.5t92 116.5t130.5 89t153 65t160 44t151.5 28l2 241q-8 -19 -22 -34t-30.5 -25.5t-33.5 -16t-30 -5.5q-43 0 -74.5 18t-49.5 61.5t-23 116.5t4 184q6 9 16.5 7t20.5 -10t16.5 -20t4.5 -23q1 -24 1 -55t1.5 -62.5t6 -61t13 -52t23 -35t37.5 -9.5
q43 6 66.5 35t35.5 69t16.5 85t7.5 82q1 12 8.5 23.5t17 19t19 9.5t15.5 -5l-7 -530q76 8 141.5 17.5t118.5 15.5q1 -17 -8.5 -29t-25 -20.5t-34.5 -13t-35 -6.5q-35 -5 -76 -11.5t-79 -13.5q-4 -80 -11 -166t-22 -170t-41 -161t-67 -137.5t-100 -100.5t-140 -50
q-80 -10 -154.5 13.5t-131.5 71.5t-91 116t-31 147zM-372 -640q0 -66 27 -121.5t72 -93t104 -54.5t124 -7q69 10 119 47t85 92.5t57.5 125t36 145.5t20 153t9.5 148q-56 -7 -126 -21t-143 -37t-142.5 -56t-123.5 -79t-87 -106t-32 -136zM82 442q0 18 12.5 25.5t27.5 7
t27.5 -8.5t12.5 -21q0 -20 -12.5 -27.5t-27.5 -6t-27.5 10t-12.5 20.5zM208 442q0 18 12.5 25.5t27.5 7t27.5 -8.5t12.5 -21q0 -20 -12.5 -27.5t-27.5 -6t-27.5 10t-12.5 20.5z" />
    <glyph glyph-name="Amacron" unicode="&#x100;" horiz-adv-x="401" 
d="M128 222q-9 -37 -18 -74.5t-21 -67t-29.5 -47t-43.5 -14.5q16 59 31 124.5t32 133t37.5 135.5t47.5 134q12 29 27 41.5t31 11.5q19 -1 36 -23t27 -54q10 -35 24 -92.5t28.5 -126.5t29.5 -144t28 -147q-22 -3 -37 17t-26.5 52t-20 70.5t-16.5 72.5zM278 285
q-7 47 -14.5 89.5t-15 75.5t-14.5 53.5t-14 23.5q-5 2 -12.5 -18.5t-18 -55t-23 -78.5t-27.5 -90h139zM360 682q2 -14 -4.5 -25t-17.5 -19q-7 -3 -19 -5.5t-40 -1.5l-201 1q-4 7 -3 16t6.5 17t14 14t19.5 6z" />
    <glyph glyph-name="amacron" unicode="&#x101;" horiz-adv-x="346" 
d="M273 139q-13 -33 -36.5 -62.5t-52.5 -48.5t-60 -24.5t-59 9.5q-29 16 -42 48.5t-9.5 74t24.5 88t61 90.5q29 32 73.5 55t92.5 28q32 0 50 -13t18 -48v-83.5t-1 -90.5t-2 -91t-3 -85q-9 1 -21 4.5t-21.5 18.5t-13.5 45.5t2 84.5zM266 341q-42 -5 -74.5 -23t-56.5 -44
q-26 -29 -42 -64.5t-20.5 -67t2 -54.5t26.5 -27q31 -7 62 20.5t55.5 72t38 96t9.5 91.5zM343 482q2 -14 -4.5 -25t-17.5 -19q-7 -3 -19 -5.5t-40 -1.5l-201 1q-4 7 -3 16t6.5 17t14 14t19.5 6z" />
    <glyph glyph-name="Abreve" unicode="&#x102;" horiz-adv-x="401" 
d="M128 222q-9 -37 -18 -74.5t-21 -67t-29.5 -47t-43.5 -14.5q16 59 31 124.5t32 133t37.5 135.5t47.5 134q12 29 27 41.5t31 11.5q19 -1 36 -23t27 -54q10 -35 24 -92.5t28.5 -126.5t29.5 -144t28 -147q-22 -3 -37 17t-26.5 52t-20 70.5t-16.5 72.5zM278 285
q-7 47 -14.5 89.5t-15 75.5t-14.5 53.5t-14 23.5q-5 2 -12.5 -18.5t-18 -55t-23 -78.5t-27.5 -90h139zM204 673q16 -2 28.5 3.5t23 15t18 21.5t13.5 23q13 -7 16 -26t-6 -39.5t-31 -35.5t-58 -15q-30 0 -50 12.5t-29.5 30.5t-8.5 37.5t14 33.5q3 -8 9.5 -18t15.5 -19
t20.5 -16t24.5 -8z" />
    <glyph glyph-name="abreve" unicode="&#x103;" horiz-adv-x="346" 
d="M273 139q-13 -33 -36.5 -62.5t-52.5 -48.5t-60 -24.5t-59 9.5q-29 16 -42 48.5t-9.5 74t24.5 88t61 90.5q29 32 73.5 55t92.5 28q32 0 50 -13t18 -48v-83.5t-1 -90.5t-2 -91t-3 -85q-9 1 -21 4.5t-21.5 18.5t-13.5 45.5t2 84.5zM266 341q-42 -5 -74.5 -23t-56.5 -44
q-26 -29 -42 -64.5t-20.5 -67t2 -54.5t26.5 -27q31 -7 62 20.5t55.5 72t38 96t9.5 91.5zM225 469q16 -2 28.5 3.5t23 15t18 21.5t13.5 23q13 -7 16 -26t-6 -39.5t-31 -35.5t-58 -15q-30 0 -50 12.5t-29.5 30.5t-8.5 37.5t14 33.5q3 -8 9.5 -18t15.5 -19t20.5 -16t24.5 -8z
" />
    <glyph glyph-name="Aogonek" unicode="&#x104;" horiz-adv-x="401" 
d="M128 222q-9 -37 -18 -74.5t-21 -67t-29.5 -47t-43.5 -14.5q16 59 31 124.5t32 133t37.5 135.5t47.5 134q12 29 27 41.5t31 11.5q19 -1 36 -23t27 -54q10 -35 24 -92.5t28.5 -126.5t29.5 -144t28 -147q-22 -3 -37 17t-26.5 52t-20 70.5t-16.5 72.5zM278 285
q-7 47 -14.5 89.5t-15 75.5t-14.5 53.5t-14 23.5q-5 2 -12.5 -18.5t-18 -55t-23 -78.5t-27.5 -90h139zM378 -103q-16 8 -30.5 25t-23 38.5t-6.5 45.5t19 47q6 8 15 7.5t16.5 -6t11 -14.5t-0.5 -16q-14 -23 -8.5 -37.5t14 -27.5t11 -26.5t-17.5 -35.5z" />
    <glyph glyph-name="aogonek" unicode="&#x105;" horiz-adv-x="346" 
d="M273 139q-13 -33 -36.5 -62.5t-52.5 -48.5t-60 -24.5t-59 9.5q-29 16 -42 48.5t-9.5 74t24.5 88t61 90.5q29 32 73.5 55t92.5 28q32 0 50 -13t18 -48v-83.5t-1 -90.5t-2 -91t-3 -85q-9 1 -21 4.5t-21.5 18.5t-13.5 45.5t2 84.5zM266 341q-42 -5 -74.5 -23t-56.5 -44
q-26 -29 -42 -64.5t-20.5 -67t2 -54.5t26.5 -27q31 -7 62 20.5t55.5 72t38 96t9.5 91.5zM314 -117q-16 8 -30.5 25t-23 38.5t-6.5 45.5t19 47q6 8 15 7.5t16.5 -6t11 -14.5t-0.5 -16q-14 -23 -8.5 -37.5t14 -27.5t11 -26.5t-17.5 -35.5z" />
    <glyph glyph-name="Cacute" unicode="&#x106;" horiz-adv-x="353" 
d="M237 0q-59 -3 -101.5 20.5t-70 64t-39.5 95.5t-9 115q2 53 17.5 98.5t38.5 81t50 61t53 39.5q28 15 54.5 20.5t47.5 2t34.5 -15.5t13.5 -31q-52 1 -96 -18.5t-76.5 -54.5t-51 -83.5t-20.5 -106.5q-2 -63 11.5 -112t45 -80t82.5 -41.5t125 3.5q-4 -27 -32.5 -41.5
t-76.5 -16.5zM200 720q8 14 28 18.5t41 -7.5l-50 -98q-5 -10 -15 -14.5t-20.5 -5.5t-19.5 1t-13 6z" />
    <glyph glyph-name="cacute" unicode="&#x107;" horiz-adv-x="311" 
d="M13 154q-2 50 13 92t42.5 73.5t67 52t87.5 26.5q17 2 31.5 -1.5t24.5 -11t14 -18t0 -23.5q-45 3 -85.5 -8t-71 -35.5t-47 -62t-11.5 -88.5q3 -38 22.5 -60t49 -30.5t65 -5.5t71.5 16q6 -14 0.5 -27t-17 -23t-27.5 -16t-31 -6q-30 0 -64 5.5t-63.5 22.5t-49 47.5
t-21.5 80.5zM189 525q8 14 28 18.5t41 -7.5l-50 -98q-5 -10 -15 -14.5t-20.5 -5.5t-19.5 1t-13 6z" />
    <glyph glyph-name="Ccircumflex" unicode="&#x108;" horiz-adv-x="353" 
d="M237 0q-59 -3 -101.5 20.5t-70 64t-39.5 95.5t-9 115q2 53 17.5 98.5t38.5 81t50 61t53 39.5q28 15 54.5 20.5t47.5 2t34.5 -15.5t13.5 -31q-52 1 -96 -18.5t-76.5 -54.5t-51 -83.5t-20.5 -106.5q-2 -63 11.5 -112t45 -80t82.5 -41.5t125 3.5q-4 -27 -32.5 -41.5
t-76.5 -16.5zM324 631q-4 -4 -13 -6.5t-18.5 -3t-19 2t-13.5 10.5l-35 63l-32 -60q-5 -8 -15 -11.5t-20.5 -3t-19 4t-11.5 8.5l64 124q7 11 16.5 15.5t19 3.5t18 -5.5t12.5 -11.5z" />
    <glyph glyph-name="ccircumflex" unicode="&#x109;" horiz-adv-x="311" 
d="M13 154q-2 50 13 92t42.5 73.5t67 52t87.5 26.5q17 2 31.5 -1.5t24.5 -11t14 -18t0 -23.5q-45 3 -85.5 -8t-71 -35.5t-47 -62t-11.5 -88.5q3 -38 22.5 -60t49 -30.5t65 -5.5t71.5 16q6 -14 0.5 -27t-17 -23t-27.5 -16t-31 -6q-30 0 -64 5.5t-63.5 22.5t-49 47.5
t-21.5 80.5zM283 434q-4 -4 -13 -6.5t-18.5 -3t-19 2t-13.5 10.5l-35 63l-32 -60q-5 -8 -15 -11.5t-20.5 -3t-19 4t-11.5 8.5l64 124q7 11 16.5 15.5t19 3.5t18 -5.5t12.5 -11.5z" />
    <glyph glyph-name="Cdotaccent" unicode="&#x10a;" horiz-adv-x="353" 
d="M237 0q-59 -3 -101.5 20.5t-70 64t-39.5 95.5t-9 115q2 53 17.5 98.5t38.5 81t50 61t53 39.5q28 15 54.5 20.5t47.5 2t34.5 -15.5t13.5 -31q-52 1 -96 -18.5t-76.5 -54.5t-51 -83.5t-20.5 -106.5q-2 -63 11.5 -112t45 -80t82.5 -41.5t125 3.5q-4 -27 -32.5 -41.5
t-76.5 -16.5zM194 653q0 18 12.5 25.5t27.5 7t27.5 -8.5t12.5 -21q0 -20 -12.5 -27.5t-27.5 -6t-27.5 10t-12.5 20.5z" />
    <glyph glyph-name="cdotaccent" unicode="&#x10b;" horiz-adv-x="314" 
d="M15 154q-2 50 13 92t42.5 73.5t67 52t87.5 26.5q17 2 31.5 -1.5t24.5 -11t14 -18t0 -23.5q-45 3 -85.5 -8t-71 -35.5t-47 -62t-11.5 -88.5q3 -38 22.5 -60t49 -30.5t65 -5.5t71.5 16q6 -14 0.5 -27t-17 -23t-27.5 -16t-31 -6q-30 0 -64 5.5t-63.5 22.5t-49 47.5
t-21.5 80.5zM148 465q0 18 12.5 25.5t27.5 7t27.5 -8.5t12.5 -21q0 -20 -12.5 -27.5t-27.5 -6t-27.5 10t-12.5 20.5z" />
    <glyph glyph-name="Ccaron" unicode="&#x10c;" horiz-adv-x="353" 
d="M237 0q-59 -3 -101.5 20.5t-70 64t-39.5 95.5t-9 115q2 53 17.5 98.5t38.5 81t50 61t53 39.5q28 15 54.5 20.5t47.5 2t34.5 -15.5t13.5 -31q-52 1 -96 -18.5t-76.5 -54.5t-51 -83.5t-20.5 -106.5q-2 -63 11.5 -112t45 -80t82.5 -41.5t125 3.5q-4 -27 -32.5 -41.5
t-76.5 -16.5zM109 751q4 3 12.5 5.5t18 3t18 -2t13.5 -9.5l32 -58l32 54q5 8 14.5 11t19.5 2.5t18.5 -3.5t11.5 -8l-62 -112q-6 -10 -15.5 -14t-18.5 -3.5t-17 4.5t-12 11z" />
    <glyph glyph-name="ccaron" unicode="&#x10d;" horiz-adv-x="314" 
d="M15 154q-2 50 13 92t42.5 73.5t67 52t87.5 26.5q17 2 31.5 -1.5t24.5 -11t14 -18t0 -23.5q-45 3 -85.5 -8t-71 -35.5t-47 -62t-11.5 -88.5q3 -38 22.5 -60t49 -30.5t65 -5.5t71.5 16q6 -14 0.5 -27t-17 -23t-27.5 -16t-31 -6q-30 0 -64 5.5t-63.5 22.5t-49 47.5
t-21.5 80.5zM99 559q4 3 12.5 5.5t18 3t18 -2t13.5 -9.5l32 -58l32 54q5 8 14.5 11t19.5 2.5t18.5 -3.5t11.5 -8l-62 -112q-6 -10 -15.5 -14t-18.5 -3.5t-17 4.5t-12 11z" />
    <glyph glyph-name="Dcaron" unicode="&#x10e;" horiz-adv-x="385" 
d="M49 556q-6 1 -13 2.5t-12.5 5.5t-9.5 12t-4 22q103 10 173.5 -8.5t114 -57.5t62 -93.5t17.5 -117.5q-2 -87 -31.5 -150.5t-80.5 -103.5t-118.5 -55.5t-143.5 -5.5q5 16 15 29.5t34 15.5zM319 319q0 40 -11.5 81t-36.5 74t-65 54.5t-95 21.5q-1 0 -1.5 -5t-0.5 -22v-49
t0.5 -86.5t0.5 -135.5v-194q46 0 84 23t66 60t43.5 83.5t15.5 94.5zM65 754q4 3 12.5 5.5t18 3t18 -2t13.5 -9.5l32 -58l32 54q5 8 14.5 11t19.5 2.5t18.5 -3.5t11.5 -8l-62 -112q-6 -10 -15.5 -14t-18.5 -3.5t-17 4.5t-12 11z" />
    <glyph glyph-name="dcaron" unicode="&#x10f;" horiz-adv-x="459" 
d="M123 2q-44 -1 -69 29.5t-33 74.5t-0.5 93t27.5 87q14 25 33.5 46.5t44 36t54 21t64.5 1.5q-7 37 -19.5 92.5t-25 121t-23.5 137.5t-17 141.5t-3.5 132t17 109.5t42.5 74.5t75 27.5q39 0 61.5 -32t32.5 -85.5t9 -122t-8 -142.5t-18 -148.5t-22.5 -138t-21.5 -111
t-14 -68.5q3 -39 12 -82.5t18 -86t16 -81.5t8 -68.5t-6.5 -46.5t-28.5 -16l-43 215q-9 -36 -23 -73t-33.5 -67.5t-46 -50t-59.5 -20.5zM244 338q-24 6 -45.5 1t-40.5 -17.5t-35 -31.5t-27 -41q-13 -26 -18.5 -59.5t-2.5 -63t15 -49.5t33 -19q18 1 34 17t29.5 41.5t24 57
t18 62t11.5 58t4 44.5zM280 503q5 23 12.5 64.5t15 93t14 109.5t10 115t3.5 109t-5.5 92t-18 64t-33.5 24q-22 0 -35.5 -29t-18.5 -79t-3.5 -117t9.5 -141.5t20.5 -153t29.5 -151.5zM383 373q5 23 -3.5 34.5t-17.5 21.5t-12.5 23.5t10.5 41.5q25 -5 41 -20t24.5 -34.5
t10.5 -40t-2 -36.5q-10 -42 -34.5 -57t-53.5 1q5 6 9.5 10.5t9 11.5t9 17t9.5 27z" />
    <glyph glyph-name="Dcroat" unicode="&#x110;" horiz-adv-x="385" 
d="M51 269l-73 -1q-5 8 -3.5 17.5t8 18.5t17 15t23.5 6h27l-1 231q-6 1 -13 2.5t-12.5 5.5t-9.5 12t-4 22q103 10 173.5 -8.5t114 -57.5t62 -93.5t17.5 -117.5q-2 -87 -31.5 -150.5t-80.5 -103.5t-118.5 -55.5t-143.5 -5.5q5 16 15 29.5t34 15.5zM319 319q0 40 -11.5 81
t-36.5 74t-65 54.5t-95 21.5q-1 0 -1.5 -8t-0.5 -32t0.5 -68t0.5 -117l100 1q3 -31 -27 -47q-8 -4 -22.5 -6.5t-48.5 -1.5h-2v-213q46 0 84 23t66 60t43.5 83.5t15.5 94.5z" />
    <glyph glyph-name="dcroat" unicode="&#x111;" horiz-adv-x="375" 
d="M123 2q-44 -1 -69 29.5t-33 74.5t-0.5 93t27.5 87q14 25 33.5 46.5t44 36t54 21t64.5 1.5q-2 5 -2.5 10.5t-2.5 11.5l-79 1q-5 8 -3.5 17.5t8 18.5t17 15t23.5 6l22 -1q-10 47 -22 104.5t-22.5 119.5t-18 126t-9.5 123t3.5 111t20.5 90.5t42 60.5t69 22q44 -1 67 -41
t31 -105.5t3.5 -147.5t-15 -166t-24.5 -162.5t-25 -135.5l62 -1q3 -31 -27 -47q-7 -3 -17 -5t-30 -3q-4 -20 -6 -34q3 -39 12 -82.5t18 -86t16 -81.5t8 -68.5t-6.5 -46.5t-28.5 -16l-43 215q-9 -36 -23 -73t-33.5 -67.5t-46 -50t-59.5 -20.5zM280 503q5 23 12.5 64.5t15 93
t14 109.5t10 115t3.5 109t-5.5 92t-18 64t-33.5 24q-22 0 -35.5 -29t-18.5 -79t-3.5 -117t9.5 -141.5t20.5 -153t29.5 -151.5zM244 338q-24 6 -45.5 1t-40.5 -17.5t-35 -31.5t-27 -41q-13 -26 -18.5 -59.5t-2.5 -63t15 -49.5t33 -19q18 1 34 17t29.5 41.5t24 57t18 62
t11.5 58t4 44.5z" />
    <glyph glyph-name="Emacron" unicode="&#x112;" 
d="M81 2q-21 0 -39.5 9t-18.5 35l-6 497q0 27 17 42.5t46 15.5h295q4 -8 2.5 -17.5t-8 -18t-17 -14.5t-23.5 -6l-257 1q0 -3 0.5 -9t0.5 -25.5t0.5 -57.5t1.5 -105h222q4 -8 2 -17t-8.5 -17t-17.5 -13t-24 -5l-173 -3l4 -236l302 -2q4 -8 2 -17t-8.5 -17t-17.5 -13t-24 -5z
M345 677q2 -14 -4.5 -25t-17.5 -19q-7 -3 -19 -5.5t-40 -1.5l-201 1q-4 7 -3 16t6.5 17t14 14t19.5 6z" />
    <glyph glyph-name="emacron" unicode="&#x113;" horiz-adv-x="331" 
d="M177 398q21 0 44 -6t42.5 -18.5t32.5 -32t13 -47.5q-1 -32 -14.5 -53.5t-34.5 -34.5t-47 -19t-52.5 -6t-50 5t-39.5 14q-1 -28 5.5 -54t21 -45.5t37 -31t52.5 -11.5q13 0 30 5t34.5 12t33.5 15.5t27 15.5q5 -16 0.5 -30.5t-14 -26t-23 -20.5t-25.5 -14q-19 -8 -38 -12
t-34 -4q-25 0 -54.5 9.5t-55 34t-42.5 66t-16 106.5q8 85 48.5 134t118.5 49zM76 254q19 -7 46 -11t53.5 -1.5t47.5 14.5t27 38q0 14 -7.5 23.5t-19 15t-25.5 8t-26 2.5q-35 0 -60 -27t-36 -62zM315 477q2 -14 -4.5 -25t-17.5 -19q-7 -3 -19 -5.5t-40 -1.5l-201 1
q-4 7 -3 16t6.5 17t14 14t19.5 6z" />
    <glyph glyph-name="Ebreve" unicode="&#x114;" 
d="M81 2q-21 0 -39.5 9t-18.5 35l-6 497q0 27 17 42.5t46 15.5h295q4 -8 2.5 -17.5t-8 -18t-17 -14.5t-23.5 -6l-257 1q0 -3 0.5 -9t0.5 -25.5t0.5 -57.5t1.5 -105h222q4 -8 2 -17t-8.5 -17t-17.5 -13t-24 -5l-173 -3l4 -236l302 -2q4 -8 2 -17t-8.5 -17t-17.5 -13t-24 -5z
M189 666q16 -2 28.5 3.5t23 15t18 21.5t13.5 23q13 -7 16 -26t-6 -39.5t-31 -35.5t-58 -15q-30 0 -50 12.5t-29.5 30.5t-8.5 37.5t14 33.5q3 -8 9.5 -18t15.5 -19t20.5 -16t24.5 -8z" />
    <glyph glyph-name="ebreve" unicode="&#x115;" horiz-adv-x="331" 
d="M177 398q21 0 44 -6t42.5 -18.5t32.5 -32t13 -47.5q-1 -32 -14.5 -53.5t-34.5 -34.5t-47 -19t-52.5 -6t-50 5t-39.5 14q-1 -28 5.5 -54t21 -45.5t37 -31t52.5 -11.5q13 0 30 5t34.5 12t33.5 15.5t27 15.5q5 -16 0.5 -30.5t-14 -26t-23 -20.5t-25.5 -14q-19 -8 -38 -12
t-34 -4q-25 0 -54.5 9.5t-55 34t-42.5 66t-16 106.5q8 85 48.5 134t118.5 49zM76 254q19 -7 46 -11t53.5 -1.5t47.5 14.5t27 38q0 14 -7.5 23.5t-19 15t-25.5 8t-26 2.5q-35 0 -60 -27t-36 -62zM158 466q16 -2 28.5 3.5t23 15t18 21.5t13.5 23q13 -7 16 -26t-6 -39.5
t-31 -35.5t-58 -15q-30 0 -50 12.5t-29.5 30.5t-8.5 37.5t14 33.5q3 -8 9.5 -18t15.5 -19t20.5 -16t24.5 -8z" />
    <glyph glyph-name="Edotaccent" unicode="&#x116;" 
d="M81 2q-21 0 -39.5 9t-18.5 35l-6 497q0 27 17 42.5t46 15.5h295q4 -8 2.5 -17.5t-8 -18t-17 -14.5t-23.5 -6l-257 1q0 -3 0.5 -9t0.5 -25.5t0.5 -57.5t1.5 -105h222q4 -8 2 -17t-8.5 -17t-17.5 -13t-24 -5l-173 -3l4 -236l302 -2q4 -8 2 -17t-8.5 -17t-17.5 -13t-24 -5z
M157 653q0 18 12.5 25.5t27.5 7t27.5 -8.5t12.5 -21q0 -20 -12.5 -27.5t-27.5 -6t-27.5 10t-12.5 20.5z" />
    <glyph glyph-name="edotaccent" unicode="&#x117;" horiz-adv-x="331" 
d="M177 398q21 0 44 -6t42.5 -18.5t32.5 -32t13 -47.5q-1 -32 -14.5 -53.5t-34.5 -34.5t-47 -19t-52.5 -6t-50 5t-39.5 14q-1 -28 5.5 -54t21 -45.5t37 -31t52.5 -11.5q13 0 30 5t34.5 12t33.5 15.5t27 15.5q5 -16 0.5 -30.5t-14 -26t-23 -20.5t-25.5 -14q-19 -8 -38 -12
t-34 -4q-25 0 -54.5 9.5t-55 34t-42.5 66t-16 106.5q8 85 48.5 134t118.5 49zM76 254q19 -7 46 -11t53.5 -1.5t47.5 14.5t27 38q0 14 -7.5 23.5t-19 15t-25.5 8t-26 2.5q-35 0 -60 -27t-36 -62zM125 453q0 18 12.5 25.5t27.5 7t27.5 -8.5t12.5 -21q0 -20 -12.5 -27.5
t-27.5 -6t-27.5 10t-12.5 20.5z" />
    <glyph glyph-name="Eogonek" unicode="&#x118;" 
d="M81 2q-21 0 -39.5 9t-18.5 35l-6 497q0 27 17 42.5t46 15.5h295q4 -8 2.5 -17.5t-8 -18t-17 -14.5t-23.5 -6l-257 1q0 -3 0.5 -9t0.5 -25.5t0.5 -57.5t1.5 -105h222q4 -8 2 -17t-8.5 -17t-17.5 -13t-24 -5l-173 -3l4 -236l302 -2q4 -8 2 -17t-8.5 -17t-17.5 -13t-24 -5z
M341 -117q-16 8 -30.5 25t-23 38.5t-6.5 45.5t19 47q6 8 15 7.5t16.5 -6t11 -14.5t-0.5 -16q-14 -23 -8.5 -37.5t14 -27.5t11 -26.5t-17.5 -35.5z" />
    <glyph glyph-name="eogonek" unicode="&#x119;" horiz-adv-x="331" 
d="M177 398q21 0 44 -6t42.5 -18.5t32.5 -32t13 -47.5q-1 -32 -14.5 -53.5t-34.5 -34.5t-47 -19t-52.5 -6t-50 5t-39.5 14q-1 -28 5.5 -54t21 -45.5t37 -31t52.5 -11.5q13 0 30 5t34.5 12t33.5 15.5t27 15.5q5 -16 0.5 -30.5t-14 -26t-23 -20.5t-25.5 -14q-19 -8 -38 -12
t-34 -4q-25 0 -54.5 9.5t-55 34t-42.5 66t-16 106.5q8 85 48.5 134t118.5 49zM76 254q19 -7 46 -11t53.5 -1.5t47.5 14.5t27 38q0 14 -7.5 23.5t-19 15t-25.5 8t-26 2.5q-35 0 -60 -27t-36 -62zM273 -106q-16 8 -30.5 25t-23 38.5t-6.5 45.5t19 47q6 8 15 7.5t16.5 -6
t11 -14.5t-0.5 -16q-14 -23 -8.5 -37.5t14 -27.5t11 -26.5t-17.5 -35.5z" />
    <glyph glyph-name="Ecaron" unicode="&#x11a;" 
d="M81 2q-21 0 -39.5 9t-18.5 35l-6 497q0 27 17 42.5t46 15.5h295q4 -8 2.5 -17.5t-8 -18t-17 -14.5t-23.5 -6l-257 1q0 -3 0.5 -9t0.5 -25.5t0.5 -57.5t1.5 -105h222q4 -8 2 -17t-8.5 -17t-17.5 -13t-24 -5l-173 -3l4 -236l302 -2q4 -8 2 -17t-8.5 -17t-17.5 -13t-24 -5z
M102 754q4 3 12.5 5.5t18 3t18 -2t13.5 -9.5l32 -58l32 54q5 8 14.5 11t19.5 2.5t18.5 -3.5t11.5 -8l-62 -112q-6 -10 -15.5 -14t-18.5 -3.5t-17 4.5t-12 11z" />
    <glyph glyph-name="ecaron" unicode="&#x11b;" horiz-adv-x="331" 
d="M177 398q21 0 44 -6t42.5 -18.5t32.5 -32t13 -47.5q-1 -32 -14.5 -53.5t-34.5 -34.5t-47 -19t-52.5 -6t-50 5t-39.5 14q-1 -28 5.5 -54t21 -45.5t37 -31t52.5 -11.5q13 0 30 5t34.5 12t33.5 15.5t27 15.5q5 -16 0.5 -30.5t-14 -26t-23 -20.5t-25.5 -14q-19 -8 -38 -12
t-34 -4q-25 0 -54.5 9.5t-55 34t-42.5 66t-16 106.5q8 85 48.5 134t118.5 49zM76 254q19 -7 46 -11t53.5 -1.5t47.5 14.5t27 38q0 14 -7.5 23.5t-19 15t-25.5 8t-26 2.5q-35 0 -60 -27t-36 -62zM70 554q4 3 12.5 5.5t18 3t18 -2t13.5 -9.5l32 -58l32 54q5 8 14.5 11
t19.5 2.5t18.5 -3.5t11.5 -8l-62 -112q-6 -10 -15.5 -14t-18.5 -3.5t-17 4.5t-12 11z" />
    <glyph glyph-name="Gcircumflex" unicode="&#x11c;" 
d="M14 217q-5 70 11.5 138t49.5 121.5t78.5 88t99.5 39.5q45 4 72.5 -13.5t29.5 -55.5q-23 5 -46.5 11.5t-52.5 2.5q-49 -6 -85.5 -44t-60 -89t-32.5 -106t-4 -97q9 -68 41.5 -110.5t91.5 -42.5q44 0 69.5 20.5t38 53t15.5 72t3 77.5q-40 -1 -62.5 3.5t-34.5 12t-16 17.5
t-5 20l117 4q20 1 31 -10t16 -28t6 -37t1 -38q0 -39 -10 -79t-32 -72.5t-55.5 -53t-81.5 -20.5q-36 0 -69.5 13t-59.5 39.5t-43 67t-21 95.5zM312 634q-4 -4 -13 -6.5t-18.5 -3t-19 2t-13.5 10.5l-35 63l-32 -60q-5 -8 -15 -11.5t-20.5 -3t-19 4t-11.5 8.5l64 124
q7 11 16.5 15.5t19 3.5t18 -5.5t12.5 -11.5z" />
    <glyph glyph-name="gcircumflex" unicode="&#x11d;" horiz-adv-x="367" 
d="M-476 -609q0 86 36 156t96 122.5t138 88t162 53t168 17.5t156 -18q2 75 2 146t3 150q-27 -45 -69.5 -75t-96.5 -30q-27 0 -46.5 10t-31.5 27t-17.5 40t-5.5 49q0 51 18.5 100.5t51.5 88t78.5 62t99.5 23.5q28 0 44.5 -4.5t25 -14.5t11 -25.5t2.5 -36.5q0 -50 -1.5 -101
t-4 -112t-4 -137t-1.5 -175q9 -5 23.5 -15t31.5 -24.5t35.5 -33t35.5 -41.5q12 -16 21.5 -34.5t17 -36t13 -33.5t7.5 -27q-17 -5 -31 3t-26.5 23t-24 33.5t-21.5 35.5q-8 12 -19 25t-22.5 24.5t-22 20t-17.5 10.5q0 -79 -16.5 -156.5t-48.5 -148t-78 -130.5t-105 -104.5
t-130 -69.5t-152 -25q-65 0 -117.5 25.5t-90 67.5t-57.5 96t-20 111zM278 -254q-62 23 -138.5 26t-155 -11.5t-152 -47t-130.5 -81t-90 -113t-30 -142.5q2 -57 22.5 -99.5t51.5 -70.5t67.5 -42.5t71.5 -15.5q77 -3 142.5 20.5t119.5 66t95 101.5t69 126t42.5 139.5
t14.5 143.5zM71 116q0 -23 12.5 -44t37.5 -21q29 0 53 15.5t43.5 40.5t34.5 56.5t25 64.5t15 63.5t5 54.5q-44 7 -84.5 -8.5t-72 -47t-50.5 -77t-19 -97.5zM326 437q-4 -4 -13 -6.5t-18.5 -3t-19 2t-13.5 10.5l-35 63l-32 -60q-5 -8 -15 -11.5t-20.5 -3t-19 4t-11.5 8.5
l64 124q7 11 16.5 15.5t19 3.5t18 -5.5t12.5 -11.5z" />
    <glyph glyph-name="Gbreve" unicode="&#x11e;" 
d="M14 217q-5 70 11.5 138t49.5 121.5t78.5 88t99.5 39.5q45 4 72.5 -13.5t29.5 -55.5q-23 5 -46.5 11.5t-52.5 2.5q-49 -6 -85.5 -44t-60 -89t-32.5 -106t-4 -97q9 -68 41.5 -110.5t91.5 -42.5q44 0 69.5 20.5t38 53t15.5 72t3 77.5q-40 -1 -62.5 3.5t-34.5 12t-16 17.5
t-5 20l117 4q20 1 31 -10t16 -28t6 -37t1 -38q0 -39 -10 -79t-32 -72.5t-55.5 -53t-81.5 -20.5q-36 0 -69.5 13t-59.5 39.5t-43 67t-21 95.5zM210 670q16 -2 28.5 3.5t23 15t18 21.5t13.5 23q13 -7 16 -26t-6 -39.5t-31 -35.5t-58 -15q-30 0 -50 12.5t-29.5 30.5t-8.5 37.5
t14 33.5q3 -8 9.5 -18t15.5 -19t20.5 -16t24.5 -8z" />
    <glyph glyph-name="gbreve" unicode="&#x11f;" horiz-adv-x="367" 
d="M-476 -609q0 86 36 156t96 122.5t138 88t162 53t168 17.5t156 -18q2 75 2 146t3 150q-27 -45 -69.5 -75t-96.5 -30q-27 0 -46.5 10t-31.5 27t-17.5 40t-5.5 49q0 51 18.5 100.5t51.5 88t78.5 62t99.5 23.5q28 0 44.5 -4.5t25 -14.5t11 -25.5t2.5 -36.5q0 -50 -1.5 -101
t-4 -112t-4 -137t-1.5 -175q9 -5 23.5 -15t31.5 -24.5t35.5 -33t35.5 -41.5q12 -16 21.5 -34.5t17 -36t13 -33.5t7.5 -27q-17 -5 -31 3t-26.5 23t-24 33.5t-21.5 35.5q-8 12 -19 25t-22.5 24.5t-22 20t-17.5 10.5q0 -79 -16.5 -156.5t-48.5 -148t-78 -130.5t-105 -104.5
t-130 -69.5t-152 -25q-65 0 -117.5 25.5t-90 67.5t-57.5 96t-20 111zM278 -254q-62 23 -138.5 26t-155 -11.5t-152 -47t-130.5 -81t-90 -113t-30 -142.5q2 -57 22.5 -99.5t51.5 -70.5t67.5 -42.5t71.5 -15.5q77 -3 142.5 20.5t119.5 66t95 101.5t69 126t42.5 139.5
t14.5 143.5zM71 116q0 -23 12.5 -44t37.5 -21q29 0 53 15.5t43.5 40.5t34.5 56.5t25 64.5t15 63.5t5 54.5q-44 7 -84.5 -8.5t-72 -47t-50.5 -77t-19 -97.5zM229 481q16 -2 28.5 3.5t23 15t18 21.5t13.5 23q13 -7 16 -26t-6 -39.5t-31 -35.5t-58 -15q-30 0 -50 12.5
t-29.5 30.5t-8.5 37.5t14 33.5q3 -8 9.5 -18t15.5 -19t20.5 -16t24.5 -8z" />
    <glyph glyph-name="Gdotaccent" unicode="&#x120;" 
d="M14 217q-5 70 11.5 138t49.5 121.5t78.5 88t99.5 39.5q45 4 72.5 -13.5t29.5 -55.5q-23 5 -46.5 11.5t-52.5 2.5q-49 -6 -85.5 -44t-60 -89t-32.5 -106t-4 -97q9 -68 41.5 -110.5t91.5 -42.5q44 0 69.5 20.5t38 53t15.5 72t3 77.5q-40 -1 -62.5 3.5t-34.5 12t-16 17.5
t-5 20l117 4q20 1 31 -10t16 -28t6 -37t1 -38q0 -39 -10 -79t-32 -72.5t-55.5 -53t-81.5 -20.5q-36 0 -69.5 13t-59.5 39.5t-43 67t-21 95.5zM177 658q0 18 12.5 25.5t27.5 7t27.5 -8.5t12.5 -21q0 -20 -12.5 -27.5t-27.5 -6t-27.5 10t-12.5 20.5z" />
    <glyph glyph-name="gdotaccent" unicode="&#x121;" horiz-adv-x="367" 
d="M-476 -609q0 86 36 156t96 122.5t138 88t162 53t168 17.5t156 -18q2 75 2 146t3 150q-27 -45 -69.5 -75t-96.5 -30q-27 0 -46.5 10t-31.5 27t-17.5 40t-5.5 49q0 51 18.5 100.5t51.5 88t78.5 62t99.5 23.5q28 0 44.5 -4.5t25 -14.5t11 -25.5t2.5 -36.5q0 -50 -1.5 -101
t-4 -112t-4 -137t-1.5 -175q9 -5 23.5 -15t31.5 -24.5t35.5 -33t35.5 -41.5q12 -16 21.5 -34.5t17 -36t13 -33.5t7.5 -27q-17 -5 -31 3t-26.5 23t-24 33.5t-21.5 35.5q-8 12 -19 25t-22.5 24.5t-22 20t-17.5 10.5q0 -79 -16.5 -156.5t-48.5 -148t-78 -130.5t-105 -104.5
t-130 -69.5t-152 -25q-65 0 -117.5 25.5t-90 67.5t-57.5 96t-20 111zM278 -254q-62 23 -138.5 26t-155 -11.5t-152 -47t-130.5 -81t-90 -113t-30 -142.5q2 -57 22.5 -99.5t51.5 -70.5t67.5 -42.5t71.5 -15.5q77 -3 142.5 20.5t119.5 66t95 101.5t69 126t42.5 139.5
t14.5 143.5zM71 116q0 -23 12.5 -44t37.5 -21q29 0 53 15.5t43.5 40.5t34.5 56.5t25 64.5t15 63.5t5 54.5q-44 7 -84.5 -8.5t-72 -47t-50.5 -77t-19 -97.5zM196 453q0 18 12.5 25.5t27.5 7t27.5 -8.5t12.5 -21q0 -20 -12.5 -27.5t-27.5 -6t-27.5 10t-12.5 20.5z" />
    <glyph glyph-name="Gcommaaccent" unicode="&#x122;" 
d="M14 217q-5 70 11.5 138t49.5 121.5t78.5 88t99.5 39.5q45 4 72.5 -13.5t29.5 -55.5q-23 5 -46.5 11.5t-52.5 2.5q-49 -6 -85.5 -44t-60 -89t-32.5 -106t-4 -97q9 -68 41.5 -110.5t91.5 -42.5q44 0 69.5 20.5t38 53t15.5 72t3 77.5q-40 -1 -62.5 3.5t-34.5 12t-16 17.5
t-5 20l117 4q20 1 31 -10t16 -28t6 -37t1 -38q0 -39 -10 -79t-32 -72.5t-55.5 -53t-81.5 -20.5q-36 0 -69.5 13t-59.5 39.5t-43 67t-21 95.5zM202 -140q5 23 -3.5 34.5t-17.5 21.5t-12.5 23.5t10.5 41.5q25 -5 41 -20t24.5 -34.5t10.5 -40t-2 -36.5q-10 -42 -34.5 -57
t-53.5 1q5 6 9.5 10.5t9 11.5t9 17t9.5 27z" />
    <glyph glyph-name="gcommaaccent" unicode="&#x123;" horiz-adv-x="367" 
d="M-476 -609q0 86 36 156t96 122.5t138 88t162 53t168 17.5t156 -18q2 75 2 146t3 150q-27 -45 -69.5 -75t-96.5 -30q-27 0 -46.5 10t-31.5 27t-17.5 40t-5.5 49q0 51 18.5 100.5t51.5 88t78.5 62t99.5 23.5q28 0 44.5 -4.5t25 -14.5t11 -25.5t2.5 -36.5q0 -50 -1.5 -101
t-4 -112t-4 -137t-1.5 -175q9 -5 23.5 -15t31.5 -24.5t35.5 -33t35.5 -41.5q12 -16 21.5 -34.5t17 -36t13 -33.5t7.5 -27q-17 -5 -31 3t-26.5 23t-24 33.5t-21.5 35.5q-8 12 -19 25t-22.5 24.5t-22 20t-17.5 10.5q0 -79 -16.5 -156.5t-48.5 -148t-78 -130.5t-105 -104.5
t-130 -69.5t-152 -25q-65 0 -117.5 25.5t-90 67.5t-57.5 96t-20 111zM278 -254q-62 23 -138.5 26t-155 -11.5t-152 -47t-130.5 -81t-90 -113t-30 -142.5q2 -57 22.5 -99.5t51.5 -70.5t67.5 -42.5t71.5 -15.5q77 -3 142.5 20.5t119.5 66t95 101.5t69 126t42.5 139.5
t14.5 143.5zM71 116q0 -23 12.5 -44t37.5 -21q29 0 53 15.5t43.5 40.5t34.5 56.5t25 64.5t15 63.5t5 54.5q-44 7 -84.5 -8.5t-72 -47t-50.5 -77t-19 -97.5zM217 571q-5 -23 3.5 -34.5t17.5 -21.5t12.5 -23.5t-10.5 -41.5q-25 5 -41 20t-24.5 34.5t-10.5 40t2 36.5
q10 42 34.5 57t53.5 -1q-5 -6 -9.5 -10.5t-9 -11.5t-9 -17t-9.5 -27z" />
    <glyph glyph-name="Hcircumflex" unicode="&#x124;" horiz-adv-x="336" 
d="M264 271h-187l4 -269q-8 -5 -17.5 -3.5t-18.5 7.5t-15 16.5t-7 23.5l-7 553q31 5 47 -26q5 -8 7.5 -22.5t2.5 -48.5l3 -178h187l-3 277q31 5 47 -26q5 -8 7.5 -22.5t2.5 -48.5l8 -500q-8 -5 -17.5 -3.5t-18.5 7.5t-15 16.5t-7 23.5zM252 629q-4 -4 -13 -6.5t-18.5 -3
t-19 2t-13.5 10.5l-35 63l-32 -60q-5 -8 -15 -11.5t-20.5 -3t-19 4t-11.5 8.5l64 124q7 11 16.5 15.5t19 3.5t18 -5.5t12.5 -11.5z" />
    <glyph glyph-name="hcircumflex" unicode="&#x125;" horiz-adv-x="340" 
d="M196 352q-19 1 -34.5 -17.5t-27 -44t-18.5 -52t-8 -42.5q-2 -35 -4.5 -72t-9 -65.5t-19.5 -44.5t-35 -10l7 546q-3 -4 -17 -8.5t-29 -3.5t-26.5 9.5t-8.5 31.5q10 1 21.5 4t23 7.5t21.5 9.5l16 8q3 127 12.5 221t23.5 160.5t31 109.5t37 68.5t41 35.5t43 12q35 3 58 -13
t34.5 -44.5t12.5 -67.5t-6 -82q-6 -38 -20 -81.5t-32.5 -87.5t-40.5 -86t-45 -77.5t-45.5 -62t-41.5 -39.5l-5 -224q15 17 27 28t23.5 17.5t23.5 9.5t27 3q37 1 59.5 -24.5t34.5 -65.5t16 -89.5t3.5 -95.5t-3 -83.5t-3.5 -53.5q-21 0 -31.5 15.5t-14.5 41t-4 58v67.5
q0 32 -3 63t-10 55.5t-20 39.5t-34 16zM232 1155q-19 -2 -34.5 -26t-28 -61.5t-22.5 -84.5t-17 -95t-11.5 -93.5t-7.5 -79.5t-4 -52t-1 -13q22 20 48.5 63t51 95.5t43.5 108.5t27 103q10 60 0 99t-44 36zM333 1239q-4 -4 -13 -6.5t-18.5 -3t-19 2t-13.5 10.5l-35 63l-32 -60
q-5 -8 -15 -11.5t-20.5 -3t-19 4t-11.5 8.5l64 124q7 11 16.5 15.5t19 3.5t18 -5.5t12.5 -11.5z" />
    <glyph glyph-name="Hbar" unicode="&#x126;" horiz-adv-x="336" 
d="M264 271h-187l4 -269q-8 -5 -17.5 -3.5t-18.5 7.5t-15 16.5t-7 23.5l-7 553q31 5 47 -26q5 -8 7.5 -22.5t2.5 -48.5l3 -178h187l-3 277q31 5 47 -26q5 -8 7.5 -22.5t2.5 -48.5l8 -500q-8 -5 -17.5 -3.5t-18.5 7.5t-15 16.5t-7 23.5zM305 443q2 -14 -4.5 -25t-17.5 -19
q-7 -3 -19 -5.5t-40 -1.5l-201 1q-4 7 -3 16t6.5 17t14 14t19.5 6z" />
    <glyph glyph-name="hbar" unicode="&#x127;" horiz-adv-x="340" 
d="M196 352q-19 1 -34.5 -17.5t-27 -44t-18.5 -52t-8 -42.5q-2 -35 -4.5 -72t-9 -65.5t-19.5 -44.5t-35 -10l5 428h-67q-5 8 -3.5 17.5t8 18.5t17 15t23.5 6h23l1 61q-3 -4 -17 -8.5t-29 -3.5t-26.5 9.5t-8.5 31.5q10 1 21.5 4t23 7.5t21.5 9.5l16 8q3 127 12.5 221
t23.5 160.5t31 109.5t37 68.5t41 35.5t43 12q35 3 58 -13t34.5 -44.5t12.5 -67.5t-6 -82q-6 -38 -20 -81.5t-32.5 -87.5t-40.5 -86t-45 -77.5t-45.5 -62t-41.5 -39.5l-2 -86h76q3 -31 -27 -47q-7 -3 -18 -5.5t-32 -2.5l-2 -83q15 17 27 28t23.5 17.5t23.5 9.5t27 3
q37 1 59.5 -24.5t34.5 -65.5t16 -89.5t3.5 -95.5t-3 -83.5t-3.5 -53.5q-21 0 -31.5 15.5t-14.5 41t-4 58v67.5q0 32 -3 63t-10 55.5t-20 39.5t-34 16zM232 1155q-19 -2 -34 -24.5t-27.5 -58t-22 -80.5t-16.5 -92t-12 -91.5t-8 -79.5t-4.5 -56.5t-1.5 -22.5q22 20 48.5 63
t51 95.5t43.5 108.5t27 103q10 60 0 99t-44 36z" />
    <glyph glyph-name="Itilde" unicode="&#x128;" horiz-adv-x="94" 
d="M14 599q15 2 28 -5t21 -21q5 -8 7.5 -22.5t2.5 -48.5l8 -500q-8 -5 -18 -3.5t-19 7.5t-15.5 16.5t-7.5 23.5zM256 764q-4 -30 -12.5 -58t-23.5 -49t-36 -33t-51 -12q-27 0 -44 8.5t-28.5 21t-19 27t-15.5 27t-17.5 20.5t-24.5 8q-16 0 -25.5 -10t-14 -25t-5 -34t2.5 -37
q-25 1 -38 13.5t-16 31t3 39t19.5 37.5t33 27.5t43.5 8.5q37 -3 57.5 -20.5t33.5 -37t22.5 -35t26.5 -16.5q20 -1 31 6.5t17.5 18.5t11.5 24.5t13 24.5t20.5 18t35.5 6z" />
    <glyph glyph-name="itilde" unicode="&#x129;" horiz-adv-x="91" 
d="M21 408q31 5 47 -26q5 -8 7.5 -22.5t2.5 -48.5l3 -309q-8 -5 -17.5 -3.5t-18.5 7.5t-15 16.5t-7 23.5zM254 564q-4 -30 -12.5 -58t-23.5 -49t-36 -33t-51 -12q-27 0 -44 8.5t-28.5 21t-19 27t-15.5 27t-17.5 20.5t-24.5 8q-16 0 -25.5 -10t-14 -25t-5 -34t2.5 -37
q-25 1 -38 13.5t-16 31t3 39t19.5 37.5t33 27.5t43.5 8.5q37 -3 57.5 -20.5t33.5 -37t22.5 -35t26.5 -16.5q20 -1 31 6.5t17.5 18.5t11.5 24.5t13 24.5t20.5 18t35.5 6z" />
    <glyph glyph-name="Imacron" unicode="&#x12a;" horiz-adv-x="94" 
d="M14 599q15 2 28 -5t21 -21q5 -8 7.5 -22.5t2.5 -48.5l8 -500q-8 -5 -18 -3.5t-19 7.5t-15.5 16.5t-7.5 23.5zM196 677q2 -14 -4.5 -25t-17.5 -19q-7 -3 -19 -5.5t-40 -1.5l-201 1q-4 7 -3 16t6.5 17t14 14t19.5 6z" />
    <glyph glyph-name="imacron" unicode="&#x12b;" horiz-adv-x="91" 
d="M21 408q31 5 47 -26q5 -8 7.5 -22.5t2.5 -48.5l3 -309q-8 -5 -17.5 -3.5t-18.5 7.5t-15 16.5t-7 23.5zM205 494q2 -14 -4.5 -25t-17.5 -19q-7 -3 -19 -5.5t-40 -1.5l-201 1q-4 7 -3 16t6.5 17t14 14t19.5 6z" />
    <glyph glyph-name="Ibreve" unicode="&#x12c;" horiz-adv-x="94" 
d="M14 599q15 2 28 -5t21 -21q5 -8 7.5 -22.5t2.5 -48.5l8 -500q-8 -5 -18 -3.5t-19 7.5t-15.5 16.5t-7.5 23.5zM41 666q16 -2 28.5 3.5t23 15t18 21.5t13.5 23q13 -7 16 -26t-6 -39.5t-31 -35.5t-58 -15q-30 0 -50 12.5t-29.5 30.5t-8.5 37.5t14 33.5q3 -8 9.5 -18
t15.5 -19t20.5 -16t24.5 -8z" />
    <glyph glyph-name="ibreve" unicode="&#x12d;" horiz-adv-x="91" 
d="M21 408q31 5 47 -26q5 -8 7.5 -22.5t2.5 -48.5l3 -309q-8 -5 -17.5 -3.5t-18.5 7.5t-15 16.5t-7 23.5zM41 490q16 -2 28.5 3.5t23 15t18 21.5t13.5 23q13 -7 16 -26t-6 -39.5t-31 -35.5t-58 -15q-30 0 -50 12.5t-29.5 30.5t-8.5 37.5t14 33.5q3 -8 9.5 -18t15.5 -19
t20.5 -16t24.5 -8z" />
    <glyph glyph-name="Iogonek" unicode="&#x12e;" horiz-adv-x="94" 
d="M14 599q15 2 28 -5t21 -21q5 -8 7.5 -22.5t2.5 -48.5l8 -500q-8 -5 -18 -3.5t-19 7.5t-15.5 16.5t-7.5 23.5zM67 -110q-16 8 -30.5 25t-23 38.5t-6.5 45.5t19 47q6 8 15 7.5t16.5 -6t11 -14.5t-0.5 -16q-14 -23 -8.5 -37.5t14 -27.5t11 -26.5t-17.5 -35.5z" />
    <glyph glyph-name="iogonek" unicode="&#x12f;" horiz-adv-x="91" 
d="M21 408q31 5 47 -26q5 -8 7.5 -22.5t2.5 -48.5l3 -309q-8 -5 -17.5 -3.5t-18.5 7.5t-15 16.5t-7 23.5zM11 492q0 16 11 22.5t24 6t24 -8t11 -18.5q0 -17 -11 -23.5t-24 -5.5t-24 8.5t-11 18.5zM64 -106q-16 8 -30.5 25t-23 38.5t-6.5 45.5t19 47q6 8 15 7.5t16.5 -6
t11 -14.5t-0.5 -16q-14 -23 -8.5 -37.5t14 -27.5t11 -26.5t-17.5 -35.5z" />
    <glyph glyph-name="Idotaccent" unicode="&#x130;" horiz-adv-x="94" 
d="M14 599q15 2 28 -5t21 -21q5 -8 7.5 -22.5t2.5 -48.5l8 -500q-8 -5 -18 -3.5t-19 7.5t-15.5 16.5t-7.5 23.5zM8 653q0 18 12.5 25.5t27.5 7t27.5 -8.5t12.5 -21q0 -20 -12.5 -27.5t-27.5 -6t-27.5 10t-12.5 20.5z" />
    <glyph glyph-name="dotlessi" unicode="&#x131;" horiz-adv-x="91" 
d="M21 408q31 5 47 -26q5 -8 7.5 -22.5t2.5 -48.5l3 -309q-8 -5 -17.5 -3.5t-18.5 7.5t-15 16.5t-7 23.5z" />
    <glyph glyph-name="Jcircumflex" unicode="&#x134;" horiz-adv-x="362" 
d="M19 157q20 6 32.5 1.5t21 -15.5t15 -25t15.5 -27t22.5 -23t35.5 -11q63 -5 97 69.5t32 224.5q-1 86 2 135.5t10 74t18.5 31.5t27.5 7l1 -239q0 -105 -13.5 -174.5t-39 -111t-61 -58.5t-77.5 -17q-30 0 -53.5 13.5t-41 36t-29 50.5t-15.5 58zM279 629q-4 -4 -13 -6.5
t-18.5 -3t-19 2t-13.5 10.5l-35 63l-32 -60q-5 -8 -15 -11.5t-20.5 -3t-19 4t-11.5 8.5l64 124q7 11 16.5 15.5t19 3.5t18 -5.5t12.5 -11.5z" />
    <glyph glyph-name="jcircumflex" unicode="&#x135;" horiz-adv-x="130" 
d="M-312 -969q-64 0 -112 21.5t-80.5 58.5t-50.5 85.5t-21 101.5t8.5 106.5t36.5 101.5q38 73 99.5 141t137 123.5t160.5 95t171 55.5l6 410q0 22 7 36.5t15.5 22t16.5 9t12 -3.5v-474q27 0 49 -6.5t36.5 -18t19 -27t-2.5 -33.5q-28 14 -51 19.5t-48 3.5
q-4 -156 -25.5 -277.5t-54.5 -213.5t-74.5 -156t-85.5 -104t-88 -58.5t-81 -18.5zM37 -140q-76 -17 -153.5 -54.5t-146.5 -88.5t-124.5 -112t-88.5 -125q-20 -41 -29 -86.5t-6.5 -90.5t16.5 -85.5t39 -70t61 -44.5t83 -10q35 4 73.5 23t76 56.5t71.5 96t61 142.5t44.5 195
t22.5 254zM165 429q-4 -4 -13 -6.5t-18.5 -3t-19 2t-13.5 10.5l-35 63l-32 -60q-5 -8 -15 -11.5t-20.5 -3t-19 4t-11.5 8.5l64 124q7 11 16.5 15.5t19 3.5t18 -5.5t12.5 -11.5z" />
    <glyph glyph-name="Kcommaaccent" unicode="&#x136;" horiz-adv-x="314" 
d="M17 -4q-2 148 -3 296.5t-2 313.5q24 1 36.5 -16.5t17.5 -47.5t5.5 -68.5t0.5 -79.5q19 14 46 39.5t56.5 55.5t59.5 61t54 56q22 -23 9.5 -56t-44 -69.5t-73 -74t-76.5 -70.5q22 -32 49 -65l54 -66t50.5 -64t38.5 -58.5t17.5 -51.5t-11.5 -41l-229 285q-2 -24 -0.5 -54
t2.5 -61.5t0 -61t-6.5 -53t-18 -37t-33.5 -12.5zM140 -118q5 23 -3.5 34.5t-17.5 21.5t-12.5 23.5t10.5 41.5q25 -5 41 -20t24.5 -34.5t10.5 -40t-2 -36.5q-10 -42 -34.5 -57t-53.5 1q5 6 9.5 10.5t9 11.5t9 17t9.5 27z" />
    <glyph glyph-name="kcommaaccent" unicode="&#x137;" horiz-adv-x="329" 
d="M116 219q1 7 13 16t29 20t36 23.5t35 26.5t25 29t7 30q-4 25 -28.5 24.5t-53 -21t-53 -57t-29.5 -81.5q-4 -39 -3 -80.5t-2 -75t-16 -53.5t-44 -17l-7 549q-8 -4 -21.5 -6.5t-26 0t-21 11.5t-6.5 29q17 1 38.5 9t35.5 15v4q-10 182 -6.5 300.5t20.5 188t48.5 96.5
t76.5 26q52 -2 79 -42.5t33.5 -103t-5 -138.5t-37.5 -148.5t-63.5 -133.5t-82.5 -92l3 -217q16 31 45 52.5t61 30t60.5 2.5t42.5 -30q18 -29 11 -58.5t-27.5 -55.5t-49.5 -48t-56 -37q9 -11 26.5 -26.5t37.5 -33.5t38.5 -37t30 -38t12 -36.5t-15.5 -31.5l-177 173
q-7 14 -11 24.5t-2 18.5zM77 635q32 23 58.5 72t45.5 108.5t28.5 122.5t8.5 114t-15 83.5t-42 30.5q-22 -1 -36.5 -15.5t-24 -36.5t-14.5 -49t-7 -53t-2.5 -49t-0.5 -37zM163 -135q5 23 -3.5 34.5t-17.5 21.5t-12.5 23.5t10.5 41.5q25 -5 41 -20t24.5 -34.5t10.5 -40
t-2 -36.5q-10 -42 -34.5 -57t-53.5 1q5 6 9.5 10.5t9 11.5t9 17t9.5 27z" />
    <glyph glyph-name="Lacute" unicode="&#x139;" horiz-adv-x="307" 
d="M11 39q2 53 3 124t1.5 147.5t0 151.5t-2.5 137q16 1 27.5 -3.5t19 -23.5t11.5 -55t5.5 -96t0 -148.5t-4.5 -212.5q12 -1 33.5 -0.5t46.5 0.5t50.5 -2t46.5 -8t34.5 -17t13.5 -28q-14 -3 -45.5 -3.5t-67 -0.5t-67.5 0.5t-47 0.5q-10 0 -20.5 1.5t-19 5.5t-14 11.5
t-5.5 18.5zM143 727q8 14 28 18.5t41 -7.5l-50 -98q-5 -10 -15 -14.5t-20.5 -5.5t-19.5 1t-13 6z" />
    <glyph glyph-name="lacute" unicode="&#x13a;" horiz-adv-x="350" 
d="M329 -143q-19 -5 -35.5 -2t-36 28t-46.5 79t-67 151q-10 -23 -22.5 -51.5t-26 -55.5t-28.5 -51.5t-30.5 -40.5t-31 -21t-29.5 6q16 46 55 115t82 170q-20 55 -37 129t-29.5 158t-19.5 173t-5.5 173t12.5 159t34 131t59 88.5t88 31.5q41 -1 66 -33t37 -87t12 -128
t-8 -155.5t-23.5 -170.5t-34.5 -172.5t-40.5 -160.5t-42.5 -136q18 -50 35.5 -91t36 -79.5t37.5 -76t39 -80.5zM210 1162q-28 4 -51.5 -30.5t-40 -97t-24.5 -148.5t-5 -185.5t17.5 -207.5t43.5 -215q33 107 57 213.5t38 204t18.5 181.5t0.5 146t-18 99t-36 40zM195 1355
q8 14 28 18.5t41 -7.5l-50 -98q-5 -10 -15 -14.5t-20.5 -5.5t-19.5 1t-13 6z" />
    <glyph glyph-name="Lcommaaccent" unicode="&#x13b;" horiz-adv-x="307" 
d="M11 39q2 53 3 124t1.5 147.5t0 151.5t-2.5 137q16 1 27.5 -3.5t19 -23.5t11.5 -55t5.5 -96t0 -148.5t-4.5 -212.5q12 -1 33.5 -0.5t46.5 0.5t50.5 -2t46.5 -8t34.5 -17t13.5 -28q-14 -3 -45.5 -3.5t-67 -0.5t-67.5 0.5t-47 0.5q-10 0 -20.5 1.5t-19 5.5t-14 11.5
t-5.5 18.5zM138 -145q5 23 -3.5 34.5t-17.5 21.5t-12.5 23.5t10.5 41.5q25 -5 41 -20t24.5 -34.5t10.5 -40t-2 -36.5q-10 -42 -34.5 -57t-53.5 1q5 6 9.5 10.5t9 11.5t9 17t9.5 27z" />
    <glyph glyph-name="lcommaaccent" unicode="&#x13c;" horiz-adv-x="350" 
d="M329 -143q-19 -5 -35.5 -2t-36 28t-46.5 79t-67 151q-10 -23 -22.5 -51.5t-26 -55.5t-28.5 -51.5t-30.5 -40.5t-31 -21t-29.5 6q16 46 55 115t82 170q-20 55 -37 129t-29.5 158t-19.5 173t-5.5 173t12.5 159t34 131t59 88.5t88 31.5q41 -1 66 -33t37 -87t12 -128
t-8 -155.5t-23.5 -170.5t-34.5 -172.5t-40.5 -160.5t-42.5 -136q18 -50 35.5 -91t36 -79.5t37.5 -76t39 -80.5zM210 1162q-28 4 -51.5 -30.5t-40 -97t-24.5 -148.5t-5 -185.5t17.5 -207.5t43.5 -215q33 107 57 213.5t38 204t18.5 181.5t0.5 146t-18 99t-36 40zM153 -182
q5 23 -3.5 34.5t-17.5 21.5t-12.5 23.5t10.5 41.5q25 -5 41 -20t24.5 -34.5t10.5 -40t-2 -36.5q-10 -42 -34.5 -57t-53.5 1q5 6 9.5 10.5t9 11.5t9 17t9.5 27z" />
    <glyph glyph-name="Lcaron" unicode="&#x13d;" horiz-adv-x="307" 
d="M11 39q2 53 3 124t1.5 147.5t0 151.5t-2.5 137q16 1 27.5 -3.5t19 -23.5t11.5 -55t5.5 -96t0 -148.5t-4.5 -212.5q12 -1 33.5 -0.5t46.5 0.5t50.5 -2t46.5 -8t34.5 -17t13.5 -28q-14 -3 -45.5 -3.5t-67 -0.5t-67.5 0.5t-47 0.5q-10 0 -20.5 1.5t-19 5.5t-14 11.5
t-5.5 18.5zM161 462q5 23 -3.5 34.5t-17.5 21.5t-12.5 23.5t10.5 41.5q25 -5 41 -20t24.5 -34.5t10.5 -40t-2 -36.5q-10 -42 -34.5 -57t-53.5 1q5 6 9.5 10.5t9 11.5t9 17t9.5 27z" />
    <glyph glyph-name="lcaron" unicode="&#x13e;" horiz-adv-x="367" 
d="M329 -143q-19 -5 -35.5 -2t-36 28t-46.5 79t-67 151q-10 -23 -22.5 -51.5t-26 -55.5t-28.5 -51.5t-30.5 -40.5t-31 -21t-29.5 6q16 46 55 115t82 170q-20 55 -37 129t-29.5 158t-19.5 173t-5.5 173t12.5 159t34 131t59 88.5t88 31.5q41 -1 66 -33t37 -87t12 -128
t-8 -155.5t-23.5 -170.5t-34.5 -172.5t-40.5 -160.5t-42.5 -136q18 -50 35.5 -91t36 -79.5t37.5 -76t39 -80.5zM210 1162q-28 4 -51.5 -30.5t-40 -97t-24.5 -148.5t-5 -185.5t17.5 -207.5t43.5 -215q33 107 57 213.5t38 204t18.5 181.5t0.5 146t-18 99t-36 40zM292 272
q5 23 -3.5 34.5t-17.5 21.5t-12.5 23.5t10.5 41.5q25 -5 41 -20t24.5 -34.5t10.5 -40t-2 -36.5q-10 -42 -34.5 -57t-53.5 1q5 6 9.5 10.5t9 11.5t9 17t9.5 27z" />
    <glyph glyph-name="Ldot" unicode="&#x13f;" horiz-adv-x="307" 
d="M11 39q2 53 3 124t1.5 147.5t0 151.5t-2.5 137q16 1 27.5 -3.5t19 -23.5t11.5 -55t5.5 -96t0 -148.5t-4.5 -212.5q12 -1 33.5 -0.5t46.5 0.5t50.5 -2t46.5 -8t34.5 -17t13.5 -28q-14 -3 -45.5 -3.5t-67 -0.5t-67.5 0.5t-47 0.5q-10 0 -20.5 1.5t-19 5.5t-14 11.5
t-5.5 18.5zM120 306q0 18 12.5 25.5t27.5 7t27.5 -8.5t12.5 -21q0 -20 -12.5 -27.5t-27.5 -6t-27.5 10t-12.5 20.5z" />
    <glyph glyph-name="ldot" unicode="&#x140;" horiz-adv-x="350" 
d="M329 -143q-19 -5 -35.5 -2t-36 28t-46.5 79t-67 151q-10 -23 -22.5 -51.5t-26 -55.5t-28.5 -51.5t-30.5 -40.5t-31 -21t-29.5 6q16 46 55 115t82 170q-20 55 -37 129t-29.5 158t-19.5 173t-5.5 173t12.5 159t34 131t59 88.5t88 31.5q41 -1 66 -33t37 -87t12 -128
t-8 -155.5t-23.5 -170.5t-34.5 -172.5t-40.5 -160.5t-42.5 -136q18 -50 35.5 -91t36 -79.5t37.5 -76t39 -80.5zM210 1162q-28 4 -51.5 -30.5t-40 -97t-24.5 -148.5t-5 -185.5t17.5 -207.5t43.5 -215q33 107 57 213.5t38 204t18.5 181.5t0.5 146t-18 99t-36 40zM222 188
q0 18 12.5 25.5t27.5 7t27.5 -8.5t12.5 -21q0 -20 -12.5 -27.5t-27.5 -6t-27.5 10t-12.5 20.5z" />
    <glyph glyph-name="Lslash" unicode="&#x141;" horiz-adv-x="307" 
d="M11 39q1 35 2 78.5t2 91.5l-43 -24q-8 4 -12 13.5t-2.5 20t7.5 21t17 17.5l33 19q1 85 0.5 169.5t-2.5 153.5q19 2 31.5 -6t20 -38t10.5 -88.5t2 -156.5l70 40q19 -25 1 -54q-5 -8 -16.5 -17t-40.5 -26l-15 -9q-1 -40 -1.5 -85.5t-2.5 -98.5q12 -1 33.5 -0.5t46.5 0.5
t50.5 -2t46.5 -8t34.5 -17t13.5 -28q-14 -3 -45.5 -3.5t-67 -0.5t-67.5 0.5t-47 0.5q-10 0 -20.5 1.5t-19 5.5t-14 11.5t-5.5 18.5z" />
    <glyph glyph-name="lslash" unicode="&#x142;" horiz-adv-x="350" 
d="M329 -143q-19 -5 -35.5 -2t-36 28t-46.5 79t-67 151q-10 -23 -22.5 -51.5t-26 -55.5t-28.5 -51.5t-30.5 -40.5t-31 -21t-29.5 6q16 46 55 115t82 170q-12 33 -23 74t-21 87l-58 -20q-7 6 -9 15.5t1 20t11 19.5t20 14l24 8q-15 86 -25 180.5t-11 186.5t8.5 175.5t32 146.5
t60 100t92.5 36q41 -1 66.5 -33.5t37 -88t11.5 -129.5t-8.5 -157.5t-24.5 -172.5t-35 -173l52 18q7 -14 4.5 -28t-13.5 -25q-7 -7 -18.5 -13.5t-39.5 -16.5q-16 -63 -33 -120t-33 -104q18 -50 35.5 -91t36 -79.5t37.5 -76t39 -80.5zM210 1162q-25 3 -46.5 -24t-37.5 -77
t-26 -120.5t-11.5 -153.5t5 -176t23.5 -188l80 27q22 92 37 180t23 166t9 144t-5 114.5t-19 76.5t-32 31zM150 278q16 51 30 107l-51 -19l10 -44t11 -44z" />
    <glyph glyph-name="Nacute" unicode="&#x143;" horiz-adv-x="425" 
d="M26 558q4 20 12 29.5t17.5 10.5t19.5 -4.5t18 -15.5l260 -498q-1 137 -3 234t2.5 160t17.5 94t42 36v-570q0 -14 -11.5 -23t-27.5 -11.5t-33 2t-28 19.5l-229 455q-2 -102 -2 -190.5t-5 -152.5t-19 -100t-45 -33zM202 727q8 14 28 18.5t41 -7.5l-50 -98q-5 -10 -15 -14.5
t-20.5 -5.5t-19.5 1t-13 6z" />
    <glyph glyph-name="nacute" unicode="&#x144;" horiz-adv-x="314" 
d="M9 408q24 4 37.5 -11t18.5 -44q16 15 40.5 27t51.5 16.5t53 -1.5t46 -26q18 -18 28.5 -47.5t16 -64.5t6 -72t-0.5 -71q-1 -12 -2 -25.5t-3.5 -27t-6.5 -25.5t-10 -19q-14 -17 -40 -17q3 74 3 127t-2 90t-7 60.5t-12 37.5q-12 22 -34.5 26.5t-46.5 -3t-45.5 -24
t-30.5 -35.5v-277q-8 -5 -17.5 -3.5t-18.5 7.5t-15 16.5t-7 23.5zM147 527q8 14 28 18.5t41 -7.5l-50 -98q-5 -10 -15 -14.5t-20.5 -5.5t-19.5 1t-13 6z" />
    <glyph glyph-name="Ncommaaccent" unicode="&#x145;" horiz-adv-x="425" 
d="M26 558q4 20 12 29.5t17.5 10.5t19.5 -4.5t18 -15.5l260 -498q-1 137 -3 234t2.5 160t17.5 94t42 36v-570q0 -14 -11.5 -23t-27.5 -11.5t-33 2t-28 19.5l-229 455q-2 -102 -2 -190.5t-5 -152.5t-19 -100t-45 -33zM195 -123q5 23 -3.5 34.5t-17.5 21.5t-12.5 23.5
t10.5 41.5q25 -5 41 -20t24.5 -34.5t10.5 -40t-2 -36.5q-10 -42 -34.5 -57t-53.5 1q5 6 9.5 10.5t9 11.5t9 17t9.5 27z" />
    <glyph glyph-name="ncommaaccent" unicode="&#x146;" horiz-adv-x="314" 
d="M9 408q24 4 37.5 -11t18.5 -44q16 15 40.5 27t51.5 16.5t53 -1.5t46 -26q18 -18 28.5 -47.5t16 -64.5t6 -72t-0.5 -71q-1 -12 -2 -25.5t-3.5 -27t-6.5 -25.5t-10 -19q-14 -17 -40 -17q3 74 3 127t-2 90t-7 60.5t-12 37.5q-12 22 -34.5 26.5t-46.5 -3t-45.5 -24
t-30.5 -35.5v-277q-8 -5 -17.5 -3.5t-18.5 7.5t-15 16.5t-7 23.5zM152 -140q5 23 -3.5 34.5t-17.5 21.5t-12.5 23.5t10.5 41.5q25 -5 41 -20t24.5 -34.5t10.5 -40t-2 -36.5q-10 -42 -34.5 -57t-53.5 1q5 6 9.5 10.5t9 11.5t9 17t9.5 27z" />
    <glyph glyph-name="Ncaron" unicode="&#x147;" horiz-adv-x="425" 
d="M26 558q4 20 12 29.5t17.5 10.5t19.5 -4.5t18 -15.5l260 -498q-1 137 -3 234t2.5 160t17.5 94t42 36v-570q0 -14 -11.5 -23t-27.5 -11.5t-33 2t-28 19.5l-229 455q-2 -102 -2 -190.5t-5 -152.5t-19 -100t-45 -33zM117 754q4 3 12.5 5.5t18 3t18 -2t13.5 -9.5l32 -58
l32 54q5 8 14.5 11t19.5 2.5t18.5 -3.5t11.5 -8l-62 -112q-6 -10 -15.5 -14t-18.5 -3.5t-17 4.5t-12 11z" />
    <glyph glyph-name="ncaron" unicode="&#x148;" horiz-adv-x="314" 
d="M9 408q24 4 37.5 -11t18.5 -44q16 15 40.5 27t51.5 16.5t53 -1.5t46 -26q18 -18 28.5 -47.5t16 -64.5t6 -72t-0.5 -71q-1 -12 -2 -25.5t-3.5 -27t-6.5 -25.5t-10 -19q-14 -17 -40 -17q3 74 3 127t-2 90t-7 60.5t-12 37.5q-12 22 -34.5 26.5t-46.5 -3t-45.5 -24
t-30.5 -35.5v-277q-8 -5 -17.5 -3.5t-18.5 7.5t-15 16.5t-7 23.5zM79 559q4 3 12.5 5.5t18 3t18 -2t13.5 -9.5l32 -58l32 54q5 8 14.5 11t19.5 2.5t18.5 -3.5t11.5 -8l-62 -112q-6 -10 -15.5 -14t-18.5 -3.5t-17 4.5t-12 11z" />
    <glyph glyph-name="napostrophe" unicode="&#x149;" horiz-adv-x="314" 
d="M9 408q24 4 37.5 -11t18.5 -44q16 15 40.5 27t51.5 16.5t53 -1.5t46 -26q18 -18 28.5 -47.5t16 -64.5t6 -72t-0.5 -71q-1 -12 -2 -25.5t-3.5 -27t-6.5 -25.5t-10 -19q-14 -17 -40 -17q3 74 3 127t-2 90t-7 60.5t-12 37.5q-12 22 -34.5 26.5t-46.5 -3t-45.5 -24
t-30.5 -35.5v-277q-8 -5 -17.5 -3.5t-18.5 7.5t-15 16.5t-7 23.5zM95 482q5 23 -3.5 34.5t-17.5 21.5t-12.5 23.5t10.5 41.5q25 -5 41 -20t24.5 -34.5t10.5 -40t-2 -36.5q-10 -42 -34.5 -57t-53.5 1q5 6 9.5 10.5t9 11.5t9 17t9.5 27z" />
    <glyph glyph-name="Omacron" unicode="&#x14c;" horiz-adv-x="393" 
d="M195 -2q-48 0 -83 22t-58.5 58.5t-35 84.5t-12.5 100q-2 61 11 122t38.5 109.5t63.5 79t86 30.5t84.5 -28t60 -73.5t34.5 -103.5t9 -117q-2 -54 -15 -105t-38 -90.5t-61 -64t-84 -24.5zM193 50q33 -1 58 18.5t43 52t27.5 75t11.5 87.5q1 49 -7 96.5t-24.5 84.5t-41 59
t-55.5 21q-33 -2 -59 -26.5t-43.5 -63t-26.5 -86.5t-8 -97q0 -42 8 -81.5t23.5 -70t38.5 -49.5t55 -20zM344 677q2 -14 -4.5 -25t-17.5 -19q-7 -3 -19 -5.5t-40 -1.5l-201 1q-4 7 -3 16t6.5 17t14 14t19.5 6z" />
    <glyph glyph-name="omacron" unicode="&#x14d;" horiz-adv-x="329" 
d="M172 401q38 -1 65.5 -18.5t44.5 -46t24 -65t5 -73.5t-13.5 -72t-31.5 -62.5t-48 -45t-64 -18.5t-62.5 13.5t-44 40t-25.5 58.5t-8 68q0 40 10.5 80t30.5 71.5t49.5 51t67.5 18.5zM171 344q-21 0 -39 -15.5t-31.5 -39.5t-21 -53.5t-8.5 -58.5q0 -23 4.5 -44.5t14.5 -38
t26 -27t37 -10.5q22 -1 40 11.5t31 33t21 47t10 53.5q2 26 -2 51.5t-14 45.5t-27 32.5t-41 12.5zM314 477q2 -14 -4.5 -25t-17.5 -19q-7 -3 -19 -5.5t-40 -1.5l-201 1q-4 7 -3 16t6.5 17t14 14t19.5 6z" />
    <glyph glyph-name="Obreve" unicode="&#x14e;" horiz-adv-x="393" 
d="M195 -2q-48 0 -83 22t-58.5 58.5t-35 84.5t-12.5 100q-2 61 11 122t38.5 109.5t63.5 79t86 30.5t84.5 -28t60 -73.5t34.5 -103.5t9 -117q-2 -54 -15 -105t-38 -90.5t-61 -64t-84 -24.5zM193 50q33 -1 58 18.5t43 52t27.5 75t11.5 87.5q1 49 -7 96.5t-24.5 84.5t-41 59
t-55.5 21q-33 -2 -59 -26.5t-43.5 -63t-26.5 -86.5t-8 -97q0 -42 8 -81.5t23.5 -70t38.5 -49.5t55 -20zM189 666q16 -2 28.5 3.5t23 15t18 21.5t13.5 23q13 -7 16 -26t-6 -39.5t-31 -35.5t-58 -15q-30 0 -50 12.5t-29.5 30.5t-8.5 37.5t14 33.5q3 -8 9.5 -18t15.5 -19
t20.5 -16t24.5 -8z" />
    <glyph glyph-name="obreve" unicode="&#x14f;" horiz-adv-x="329" 
d="M172 401q38 -1 65.5 -18.5t44.5 -46t24 -65t5 -73.5t-13.5 -72t-31.5 -62.5t-48 -45t-64 -18.5t-62.5 13.5t-44 40t-25.5 58.5t-8 68q0 40 10.5 80t30.5 71.5t49.5 51t67.5 18.5zM171 344q-21 0 -39 -15.5t-31.5 -39.5t-21 -53.5t-8.5 -58.5q0 -23 4.5 -44.5t14.5 -38
t26 -27t37 -10.5q22 -1 40 11.5t31 33t21 47t10 53.5q2 26 -2 51.5t-14 45.5t-27 32.5t-41 12.5zM157 466q16 -2 28.5 3.5t23 15t18 21.5t13.5 23q13 -7 16 -26t-6 -39.5t-31 -35.5t-58 -15q-30 0 -50 12.5t-29.5 30.5t-8.5 37.5t14 33.5q3 -8 9.5 -18t15.5 -19t20.5 -16
t24.5 -8z" />
    <glyph glyph-name="Ohungarumlaut" unicode="&#x150;" horiz-adv-x="393" 
d="M195 -2q-48 0 -83 22t-58.5 58.5t-35 84.5t-12.5 100q-2 61 11 122t38.5 109.5t63.5 79t86 30.5t84.5 -28t60 -73.5t34.5 -103.5t9 -117q-2 -54 -15 -105t-38 -90.5t-61 -64t-84 -24.5zM193 50q33 -1 58 18.5t43 52t27.5 75t11.5 87.5q1 49 -7 96.5t-24.5 84.5t-41 59
t-55.5 21q-33 -2 -59 -26.5t-43.5 -63t-26.5 -86.5t-8 -97q0 -42 8 -81.5t23.5 -70t38.5 -49.5t55 -20zM171 732q7 13 25 17t38 -7l-53 -100q-4 -6 -11.5 -8.5t-16 -2t-16.5 3t-11 5.5zM255 731q7 12 25 16t38 -7l-53 -99q-4 -6 -11.5 -8.5t-16 -2.5t-16.5 2.5t-11 5.5z" />
    <glyph glyph-name="ohungarumlaut" unicode="&#x151;" horiz-adv-x="329" 
d="M172 401q38 -1 65.5 -18.5t44.5 -46t24 -65t5 -73.5t-13.5 -72t-31.5 -62.5t-48 -45t-64 -18.5t-62.5 13.5t-44 40t-25.5 58.5t-8 68q0 40 10.5 80t30.5 71.5t49.5 51t67.5 18.5zM171 344q-21 0 -39 -15.5t-31.5 -39.5t-21 -53.5t-8.5 -58.5q0 -23 4.5 -44.5t14.5 -38
t26 -27t37 -10.5q22 -1 40 11.5t31 33t21 47t10 53.5q2 26 -2 51.5t-14 45.5t-27 32.5t-41 12.5zM122 527q7 13 25 17t38 -7l-53 -100q-4 -6 -11.5 -8.5t-16 -2t-16.5 3t-11 5.5zM206 526q7 12 25 16t38 -7l-53 -99q-4 -6 -11.5 -8.5t-16 -2.5t-16.5 2.5t-11 5.5z" />
    <glyph glyph-name="OE" unicode="&#x152;" horiz-adv-x="579" 
d="M519 4q-98 -1 -153 -1h-82t-34.5 0.5t-10.5 1.5q-9 -2 -18.5 -3t-18.5 -1q-48 0 -83 22t-58.5 58.5t-35 84.5t-12.5 100q-2 61 11 122t38.5 109.5t63.5 79t86 30.5q19 0 34 -8q2 0 9 0.5t37 1t92.5 0.5h175.5q4 -8 2.5 -17.5t-8 -18t-17 -14.5t-23.5 -6l-257 1
q0 -3 0.5 -9t0.5 -25.5t0.5 -57.5t1.5 -105h222q4 -8 2 -17t-8.5 -17t-17.5 -13t-24 -5l-173 -3l4 -236l302 -2q4 -8 2 -17t-8.5 -17t-17.5 -13t-24 -5zM208 53l-6 490v3q-31 -5 -55 -30.5t-40.5 -63.5t-24.5 -84.5t-7 -93.5q0 -42 8 -81.5t23.5 -70t38.5 -49.5t55 -20h8z
" />
    <glyph glyph-name="oe" unicode="&#x153;" horiz-adv-x="505" 
d="M351 398q21 0 44 -6t42.5 -18.5t32.5 -32t13 -47.5q-1 -32 -14.5 -53.5t-34.5 -34.5t-47 -19t-52.5 -6t-50 5t-39.5 14q-1 -28 5.5 -54t21 -45.5t37 -31t52.5 -11.5q13 0 30 5t34.5 12t33.5 15.5t27 15.5q5 -16 0.5 -30.5t-14 -26t-23 -20.5t-25.5 -14q-19 -8 -38 -12
t-34 -4q-23 0 -51 8.5t-53 29.5q-14 -13 -33.5 -25t-57.5 -17q-36 -5 -62.5 9.5t-43.5 40.5t-25.5 60.5t-8.5 69.5q0 40 10.5 80t30.5 71.5t49.5 51t67.5 18.5q24 -1 43 -8t35 -20q39 30 98 30zM156 54q31 -1 57 26q-14 24 -22 57t-7 78q6 66 31 108q-9 6 -19 9.5t-22 3.5
q-21 0 -38.5 -15t-30.5 -38.5t-20 -52.5t-8 -58q0 -23 4 -44t13.5 -37.5t25 -26.5t36.5 -10zM250 254q19 -7 46 -11t53.5 -1.5t47.5 14.5t27 38q0 14 -7.5 23.5t-19 15t-25.5 8t-26 2.5q-35 0 -60 -27t-36 -62z" />
    <glyph glyph-name="Racute" unicode="&#x154;" horiz-adv-x="358" 
d="M14 2q0 16 0.5 60.5t2 104t3 127t3 129t2.5 110t1 71.5q16 1 27.5 -5.5t18.5 -18t8.5 -25.5t-1.5 -28q22 29 52 47.5t60 24.5q37 7 69 -0.5t54 -26.5t32.5 -47t6.5 -61q-6 -45 -31.5 -77.5t-59.5 -53.5t-72 -30t-69 -8l239 -290q-22 -9 -47.5 1.5t-52 33.5t-52.5 54.5
t-50.5 63.5t-45 61t-35.5 47q-2 -97 -6.5 -150.5t-12 -79t-18.5 -30t-26 -4.5zM77 350q18 -3 51 -2.5t67 10.5t63.5 33.5t40.5 67.5q5 19 1 38t-16.5 33t-33 20.5t-47.5 0.5q-29 -6 -53 -25t-41 -46.5t-26 -61t-6 -68.5zM168 727q8 14 28 18.5t41 -7.5l-50 -98
q-5 -10 -15 -14.5t-20.5 -5.5t-19.5 1t-13 6z" />
    <glyph glyph-name="racute" unicode="&#x155;" horiz-adv-x="262" 
d="M8 400q18 7 28.5 4.5t16.5 -11.5t10 -22.5t10 -28.5q26 20 57.5 36t62.5 16q21 0 41 -14.5t24 -34.5q-8 -2 -23.5 -3t-35 -4t-40.5 -10t-39 -23t-31 -42t-16 -66q-1 -10 -2.5 -37.5t-3 -58.5t-2.5 -59t-1 -38q-6 -3 -15 -2.5t-17 5t-14.5 11.5t-6.5 18l-3 364v0zM121 527
q8 14 28 18.5t41 -7.5l-50 -98q-5 -10 -15 -14.5t-20.5 -5.5t-19.5 1t-13 6z" />
    <glyph glyph-name="Rcommaaccent" unicode="&#x156;" horiz-adv-x="358" 
d="M14 2q0 16 0.5 60.5t2 104t3 127t3 129t2.5 110t1 71.5q16 1 27.5 -5.5t18.5 -18t8.5 -25.5t-1.5 -28q22 29 52 47.5t60 24.5q37 7 69 -0.5t54 -26.5t32.5 -47t6.5 -61q-6 -45 -31.5 -77.5t-59.5 -53.5t-72 -30t-69 -8l239 -290q-22 -9 -47.5 1.5t-52 33.5t-52.5 54.5
t-50.5 63.5t-45 61t-35.5 47q-2 -97 -6.5 -150.5t-12 -79t-18.5 -30t-26 -4.5zM77 350q18 -3 51 -2.5t67 10.5t63.5 33.5t40.5 67.5q5 19 1 38t-16.5 33t-33 20.5t-47.5 0.5q-29 -6 -53 -25t-41 -46.5t-26 -61t-6 -68.5zM159 -114q5 23 -3.5 34.5t-17.5 21.5t-12.5 23.5
t10.5 41.5q25 -5 41 -20t24.5 -34.5t10.5 -40t-2 -36.5q-10 -42 -34.5 -57t-53.5 1q5 6 9.5 10.5t9 11.5t9 17t9.5 27z" />
    <glyph glyph-name="rcommaaccent" unicode="&#x157;" horiz-adv-x="262" 
d="M8 400q18 7 28.5 4.5t16.5 -11.5t10 -22.5t10 -28.5q26 20 57.5 36t62.5 16q21 0 41 -14.5t24 -34.5q-8 -2 -23.5 -3t-35 -4t-40.5 -10t-39 -23t-31 -42t-16 -66q-1 -10 -2.5 -37.5t-3 -58.5t-2.5 -59t-1 -38q-6 -3 -15 -2.5t-17 5t-14.5 11.5t-6.5 18l-3 364v0z
M127 -142q5 23 -3.5 34.5t-17.5 21.5t-12.5 23.5t10.5 41.5q25 -5 41 -20t24.5 -34.5t10.5 -40t-2 -36.5q-10 -42 -34.5 -57t-53.5 1q5 6 9.5 10.5t9 11.5t9 17t9.5 27z" />
    <glyph glyph-name="Rcaron" unicode="&#x158;" horiz-adv-x="358" 
d="M14 2q0 16 0.5 60.5t2 104t3 127t3 129t2.5 110t1 71.5q16 1 27.5 -5.5t18.5 -18t8.5 -25.5t-1.5 -28q22 29 52 47.5t60 24.5q37 7 69 -0.5t54 -26.5t32.5 -47t6.5 -61q-6 -45 -31.5 -77.5t-59.5 -53.5t-72 -30t-69 -8l239 -290q-22 -9 -47.5 1.5t-52 33.5t-52.5 54.5
t-50.5 63.5t-45 61t-35.5 47q-2 -97 -6.5 -150.5t-12 -79t-18.5 -30t-26 -4.5zM77 350q18 -3 51 -2.5t67 10.5t63.5 33.5t40.5 67.5q5 19 1 38t-16.5 33t-33 20.5t-47.5 0.5q-29 -6 -53 -25t-41 -46.5t-26 -61t-6 -68.5zM84 754q4 3 12.5 5.5t18 3t18 -2t13.5 -9.5l32 -58
l32 54q5 8 14.5 11t19.5 2.5t18.5 -3.5t11.5 -8l-62 -112q-6 -10 -15.5 -14t-18.5 -3.5t-17 4.5t-12 11z" />
    <glyph glyph-name="rcaron" unicode="&#x159;" horiz-adv-x="262" 
d="M8 400q18 7 28.5 4.5t16.5 -11.5t10 -22.5t10 -28.5q26 20 57.5 36t62.5 16q21 0 41 -14.5t24 -34.5q-8 -2 -23.5 -3t-35 -4t-40.5 -10t-39 -23t-31 -42t-16 -66q-1 -10 -2.5 -37.5t-3 -58.5t-2.5 -59t-1 -38q-6 -3 -15 -2.5t-17 5t-14.5 11.5t-6.5 18l-3 364v0zM36 554
q4 3 12.5 5.5t18 3t18 -2t13.5 -9.5l32 -58l32 54q5 8 14.5 11t19.5 2.5t18.5 -3.5t11.5 -8l-62 -112q-6 -10 -15.5 -14t-18.5 -3.5t-17 4.5t-12 11z" />
    <glyph glyph-name="Sacute" unicode="&#x15a;" horiz-adv-x="348" 
d="M130 -3q-45 9 -75 36.5t-42 58t-3.5 56.5t39.5 33q-1 -39 13.5 -67t37 -44t50.5 -20.5t53.5 4t45.5 30t28 56.5q7 36 -9 61.5t-45 46.5t-64.5 40t-66 41.5t-50 51.5t-16.5 69q3 39 20.5 68t43.5 47.5t57 26.5t61 6q20 -1 43 -10.5t40 -25t23 -36.5t-8 -45
q-12 12 -23.5 22.5t-23.5 19t-25.5 14t-30.5 6.5q-50 3 -79 -21.5t-37 -70.5q-5 -28 14 -49t49.5 -40t66 -38.5t65 -45t46 -59.5t8.5 -82q-7 -41 -26.5 -69t-47 -44.5t-61.5 -22.5t-71 -4zM163 727q8 14 28 18.5t41 -7.5l-50 -98q-5 -10 -15 -14.5t-20.5 -5.5t-19.5 1t-13 6
z" />
    <glyph glyph-name="sacute" unicode="&#x15b;" horiz-adv-x="277" 
d="M9 118q28 3 40.5 -6.5t21.5 -22.5t21 -25t39 -13q19 0 33.5 7t24 18.5t13.5 26t3 28.5q-3 28 -17 43.5t-33.5 25t-42 16t-42 16.5t-33 26t-16.5 44q-3 25 6.5 45t26 33.5t38.5 21t45 8.5q16 1 36.5 -2t37.5 -11.5t27 -23t5 -36.5q-21 5 -45.5 12.5t-55.5 6.5
q-11 0 -22.5 -4t-20.5 -10.5t-14.5 -15.5t-3.5 -18q1 -18 15 -29t34 -19.5t43.5 -17t44 -21.5t35 -33.5t17.5 -52.5q3 -30 -6.5 -55t-28 -43t-43.5 -29t-53 -12q-29 -1 -51.5 8t-39 25.5t-26.5 39t-13 49.5zM128 527q8 14 28 18.5t41 -7.5l-50 -98q-5 -10 -15 -14.5
t-20.5 -5.5t-19.5 1t-13 6z" />
    <glyph glyph-name="Scircumflex" unicode="&#x15c;" horiz-adv-x="348" 
d="M130 -3q-45 9 -75 36.5t-42 58t-3.5 56.5t39.5 33q-1 -39 13.5 -67t37 -44t50.5 -20.5t53.5 4t45.5 30t28 56.5q7 36 -9 61.5t-45 46.5t-64.5 40t-66 41.5t-50 51.5t-16.5 69q3 39 20.5 68t43.5 47.5t57 26.5t61 6q20 -1 43 -10.5t40 -25t23 -36.5t-8 -45
q-12 12 -23.5 22.5t-23.5 19t-25.5 14t-30.5 6.5q-50 3 -79 -21.5t-37 -70.5q-5 -28 14 -49t49.5 -40t66 -38.5t65 -45t46 -59.5t8.5 -82q-7 -41 -26.5 -69t-47 -44.5t-61.5 -22.5t-71 -4zM272 629q-4 -4 -13 -6.5t-18.5 -3t-19 2t-13.5 10.5l-35 63l-32 -60
q-5 -8 -15 -11.5t-20.5 -3t-19 4t-11.5 8.5l64 124q7 11 16.5 15.5t19 3.5t18 -5.5t12.5 -11.5z" />
    <glyph glyph-name="scircumflex" unicode="&#x15d;" horiz-adv-x="277" 
d="M9 118q28 3 40.5 -6.5t21.5 -22.5t21 -25t39 -13q19 0 33.5 7t24 18.5t13.5 26t3 28.5q-3 28 -17 43.5t-33.5 25t-42 16t-42 16.5t-33 26t-16.5 44q-3 25 6.5 45t26 33.5t38.5 21t45 8.5q16 1 36.5 -2t37.5 -11.5t27 -23t5 -36.5q-21 5 -45.5 12.5t-55.5 6.5
q-11 0 -22.5 -4t-20.5 -10.5t-14.5 -15.5t-3.5 -18q1 -18 15 -29t34 -19.5t43.5 -17t44 -21.5t35 -33.5t17.5 -52.5q3 -30 -6.5 -55t-28 -43t-43.5 -29t-53 -12q-29 -1 -51.5 8t-39 25.5t-26.5 39t-13 49.5zM237 429q-4 -4 -13 -6.5t-18.5 -3t-19 2t-13.5 10.5l-35 63
l-32 -60q-5 -8 -15 -11.5t-20.5 -3t-19 4t-11.5 8.5l64 124q7 11 16.5 15.5t19 3.5t18 -5.5t12.5 -11.5z" />
    <glyph glyph-name="Scedilla" unicode="&#x15e;" horiz-adv-x="348" 
d="M130 -3q-45 9 -75 36.5t-42 58t-3.5 56.5t39.5 33q-1 -39 13.5 -67t37 -44t50.5 -20.5t53.5 4t45.5 30t28 56.5q7 36 -9 61.5t-45 46.5t-64.5 40t-66 41.5t-50 51.5t-16.5 69q3 39 20.5 68t43.5 47.5t57 26.5t61 6q20 -1 43 -10.5t40 -25t23 -36.5t-8 -45
q-12 12 -23.5 22.5t-23.5 19t-25.5 14t-30.5 6.5q-50 3 -79 -21.5t-37 -70.5q-5 -28 14 -49t49.5 -40t66 -38.5t65 -45t46 -59.5t8.5 -82q-7 -41 -26.5 -69t-47 -44.5t-61.5 -22.5t-71 -4zM159 -16q33 -3 49.5 -20.5t18.5 -39t-9.5 -41.5t-33.5 -27q-14 -5 -25.5 -3.5
t-19.5 7t-12.5 13t-4.5 16.5q20 2 38 6t18 19t-11.5 20.5t-26.5 4.5q-15 2 -21.5 7.5t-8.5 15t-1.5 23t0.5 31.5q4 8 12 12t17 4t16 -4.5t9 -13.5z" />
    <glyph glyph-name="scedilla" unicode="&#x15f;" horiz-adv-x="277" 
d="M9 118q28 3 40.5 -6.5t21.5 -22.5t21 -25t39 -13q19 0 33.5 7t24 18.5t13.5 26t3 28.5q-3 28 -17 43.5t-33.5 25t-42 16t-42 16.5t-33 26t-16.5 44q-3 25 6.5 45t26 33.5t38.5 21t45 8.5q16 1 36.5 -2t37.5 -11.5t27 -23t5 -36.5q-21 5 -45.5 12.5t-55.5 6.5
q-11 0 -22.5 -4t-20.5 -10.5t-14.5 -15.5t-3.5 -18q1 -18 15 -29t34 -19.5t43.5 -17t44 -21.5t35 -33.5t17.5 -52.5q3 -30 -6.5 -55t-28 -43t-43.5 -29t-53 -12q-29 -1 -51.5 8t-39 25.5t-26.5 39t-13 49.5zM148 -17q33 -3 49.5 -20.5t18.5 -39t-9.5 -41.5t-33.5 -27
q-14 -5 -25.5 -3.5t-19.5 7t-12.5 13t-4.5 16.5q20 2 38 6t18 19t-11.5 20.5t-26.5 4.5q-15 2 -21.5 7.5t-8.5 15t-1.5 23t0.5 31.5q4 8 12 12t17 4t16 -4.5t9 -13.5z" />
    <glyph glyph-name="Scaron" unicode="&#x160;" horiz-adv-x="348" 
d="M130 -3q-45 9 -75 36.5t-42 58t-3.5 56.5t39.5 33q-1 -39 13.5 -67t37 -44t50.5 -20.5t53.5 4t45.5 30t28 56.5q7 36 -9 61.5t-45 46.5t-64.5 40t-66 41.5t-50 51.5t-16.5 69q3 39 20.5 68t43.5 47.5t57 26.5t61 6q20 -1 43 -10.5t40 -25t23 -36.5t-8 -45
q-12 12 -23.5 22.5t-23.5 19t-25.5 14t-30.5 6.5q-50 3 -79 -21.5t-37 -70.5q-5 -28 14 -49t49.5 -40t66 -38.5t65 -45t46 -59.5t8.5 -82q-7 -41 -26.5 -69t-47 -44.5t-61.5 -22.5t-71 -4zM79 754q4 3 12.5 5.5t18 3t18 -2t13.5 -9.5l32 -58l32 54q5 8 14.5 11t19.5 2.5
t18.5 -3.5t11.5 -8l-62 -112q-6 -10 -15.5 -14t-18.5 -3.5t-17 4.5t-12 11z" />
    <glyph glyph-name="scaron" unicode="&#x161;" horiz-adv-x="277" 
d="M9 118q28 3 40.5 -6.5t21.5 -22.5t21 -25t39 -13q19 0 33.5 7t24 18.5t13.5 26t3 28.5q-3 28 -17 43.5t-33.5 25t-42 16t-42 16.5t-33 26t-16.5 44q-3 25 6.5 45t26 33.5t38.5 21t45 8.5q16 1 36.5 -2t37.5 -11.5t27 -23t5 -36.5q-21 5 -45.5 12.5t-55.5 6.5
q-11 0 -22.5 -4t-20.5 -10.5t-14.5 -15.5t-3.5 -18q1 -18 15 -29t34 -19.5t43.5 -17t44 -21.5t35 -33.5t17.5 -52.5q3 -30 -6.5 -55t-28 -43t-43.5 -29t-53 -12q-29 -1 -51.5 8t-39 25.5t-26.5 39t-13 49.5zM43 554q4 3 12.5 5.5t18 3t18 -2t13.5 -9.5l32 -58l32 54
q5 8 14.5 11t19.5 2.5t18.5 -3.5t11.5 -8l-62 -112q-6 -10 -15.5 -14t-18.5 -3.5t-17 4.5t-12 11z" />
    <glyph glyph-name="Tcommaaccent" unicode="&#x162;" horiz-adv-x="343" 
d="M143 539q-18 1 -42 1.5t-45 5t-35.5 16t-14.5 33.5h329q0 -9 0.5 -19t-10.5 -18.5t-39 -13.5t-85 -5q2 -132 2 -223.5t-2.5 -152t-7 -94t-11.5 -48.5t-16 -17t-21 1l-2 534v0zM168 -135q5 23 -3.5 34.5t-17.5 21.5t-12.5 23.5t10.5 41.5q25 -5 41 -20t24.5 -34.5
t10.5 -40t-2 -36.5q-10 -42 -34.5 -57t-53.5 1q5 6 9.5 10.5t9 11.5t9 17t9.5 27z" />
    <glyph glyph-name="tcommaaccent" unicode="&#x163;" horiz-adv-x="174" 
d="M66 726q-35 -20 -70.5 -45t-66 -49.5t-53.5 -47.5t-35 -39q-16 18 -12.5 40t20 45t43.5 46.5t57 44.5t61 42t56 34l8 434q16 0 26.5 -11.5t16.5 -30.5t9 -43.5t4 -49.5t0.5 -49t-0.5 -42v-169q24 15 55 39.5t60 51t51.5 49.5t31.5 35q20 -21 9 -50t-41.5 -62t-75 -67.5
t-90.5 -65.5l5 -837q-15 -1 -27.5 9t-21 40.5t-13 87.5t-2.5 149zM103 -213q5 23 -3.5 34.5t-17.5 21.5t-12.5 23.5t10.5 41.5q25 -5 41 -20t24.5 -34.5t10.5 -40t-2 -36.5q-10 -42 -34.5 -57t-53.5 1q5 6 9.5 10.5t9 11.5t9 17t9.5 27z" />
    <glyph glyph-name="Tcaron" unicode="&#x164;" horiz-adv-x="343" 
d="M143 539q-18 1 -42 1.5t-45 5t-35.5 16t-14.5 33.5h329q0 -9 0.5 -19t-10.5 -18.5t-39 -13.5t-85 -5q2 -132 2 -223.5t-2.5 -152t-7 -94t-11.5 -48.5t-16 -17t-21 1l-2 534v0zM76 754q4 3 12.5 5.5t18 3t18 -2t13.5 -9.5l32 -58l32 54q5 8 14.5 11t19.5 2.5t18.5 -3.5
t11.5 -8l-62 -112q-6 -10 -15.5 -14t-18.5 -3.5t-17 4.5t-12 11z" />
    <glyph glyph-name="tcaron" unicode="&#x165;" horiz-adv-x="261" 
d="M66 726q-35 -20 -70.5 -45t-66 -49.5t-53.5 -47.5t-35 -39q-16 18 -12.5 40t20 45t43.5 46.5t57 44.5t61 42t56 34l8 434q16 0 26.5 -11.5t16.5 -30.5t9 -43.5t4 -49.5t0.5 -49t-0.5 -42v-169q24 15 55 39.5t60 51t51.5 49.5t31.5 35q20 -21 9 -50t-41.5 -62t-75 -67.5
t-90.5 -65.5l5 -837q-15 -1 -27.5 9t-21 40.5t-13 87.5t-2.5 149zM194 522q5 23 -3.5 34.5t-17.5 21.5t-12.5 23.5t10.5 41.5q25 -5 41 -20t24.5 -34.5t10.5 -40t-2 -36.5q-10 -42 -34.5 -57t-53.5 1q5 6 9.5 10.5t9 11.5t9 17t9.5 27z" />
    <glyph glyph-name="Tbar" unicode="&#x166;" horiz-adv-x="343" 
d="M143 539q-18 1 -42 1.5t-45 5t-35.5 16t-14.5 33.5h329q0 -9 0.5 -19t-10.5 -18.5t-39 -13.5t-85 -5q2 -132 2 -223.5t-2.5 -152t-7 -94t-11.5 -48.5t-16 -17t-21 1l-2 534v0zM316 456q2 -14 -4.5 -25t-17.5 -19q-7 -3 -19 -5.5t-40 -1.5l-201 1q-4 7 -3 16t6.5 17t14 14
t19.5 6z" />
    <glyph glyph-name="tbar" unicode="&#x167;" horiz-adv-x="174" 
d="M66 726q-35 -20 -70.5 -45t-66 -49.5t-53.5 -47.5t-35 -39q-16 18 -12.5 40t20 45t43.5 46.5t57 44.5t61 42t56 34l8 434q16 0 26.5 -11.5t16.5 -30.5t9 -43.5t4 -49.5t0.5 -49t-0.5 -42v-169q24 15 55 39.5t60 51t51.5 49.5t31.5 35q20 -21 9 -50t-41.5 -62t-75 -67.5
t-90.5 -65.5l5 -837q-15 -1 -27.5 9t-21 40.5t-13 87.5t-2.5 149zM236 477q2 -14 -4.5 -25t-17.5 -19q-7 -3 -19 -5.5t-40 -1.5l-201 1q-4 7 -3 16t6.5 17t14 14t19.5 6z" />
    <glyph glyph-name="Utilde" unicode="&#x168;" horiz-adv-x="354" 
d="M337 -5q-24 -4 -37.5 11t-18.5 44q-24 -17 -45 -30t-50 -19q-47 -10 -78 7.5t-50.5 52t-28 82t-12 98.5t-2.5 100.5t2 88.5q1 52 7 85t15.5 52t23.5 25t32 4q-4 -34 -9 -89t-7.5 -116.5t0 -123t13 -109.5t31.5 -75.5t56 -20.5q14 3 28.5 10t27.5 17t24 20.5t18 19.5
l9 469q8 5 17.5 3.5t18.5 -7.5t15 -16.5t7 -23.5zM384 764q-4 -30 -12.5 -58t-23.5 -49t-36 -33t-51 -12q-27 0 -44 8.5t-28.5 21t-19 27t-15.5 27t-17.5 20.5t-24.5 8q-16 0 -25.5 -10t-14 -25t-5 -34t2.5 -37q-25 1 -38 13.5t-16 31t3 39t19.5 37.5t33 27.5t43.5 8.5
q37 -3 57.5 -20.5t33.5 -37t22.5 -35t26.5 -16.5q20 -1 31 6.5t17.5 18.5t11.5 24.5t13 24.5t20.5 18t35.5 6z" />
    <glyph glyph-name="utilde" unicode="&#x169;" horiz-adv-x="319" 
d="M305 -5q-24 -4 -37.5 11t-18.5 44q-17 -15 -41 -27t-51 -16.5t-53 1.5t-46 26q-18 18 -28.5 47.5t-16 64.5t-6 72t0.5 71q1 12 2 25.5t3.5 27t6.5 25t10 19.5q14 17 40 17q-3 -74 -3 -127t2 -90t6.5 -60.5t12.5 -37.5q12 -22 34.5 -26.5t46.5 3t45.5 24t30.5 35.5v277
q8 5 17.5 3.5t18.5 -7.5t15 -16.5t7 -23.5zM371 573q-4 -30 -12.5 -58t-23.5 -49t-36 -33t-51 -12q-27 0 -44 8.5t-28.5 21t-19 27t-15.5 27t-17.5 20.5t-24.5 8q-16 0 -25.5 -10t-14 -25t-5 -34t2.5 -37q-25 1 -38 13.5t-16 31t3 39t19.5 37.5t33 27.5t43.5 8.5
q37 -3 57.5 -20.5t33.5 -37t22.5 -35t26.5 -16.5q20 -1 31 6.5t17.5 18.5t11.5 24.5t13 24.5t20.5 18t35.5 6z" />
    <glyph glyph-name="Umacron" unicode="&#x16a;" horiz-adv-x="354" 
d="M337 -5q-24 -4 -37.5 11t-18.5 44q-24 -17 -45 -30t-50 -19q-47 -10 -78 7.5t-50.5 52t-28 82t-12 98.5t-2.5 100.5t2 88.5q1 52 7 85t15.5 52t23.5 25t32 4q-4 -34 -9 -89t-7.5 -116.5t0 -123t13 -109.5t31.5 -75.5t56 -20.5q14 3 28.5 10t27.5 17t24 20.5t18 19.5
l9 469q8 5 17.5 3.5t18.5 -7.5t15 -16.5t7 -23.5zM326 677q2 -14 -4.5 -25t-17.5 -19q-7 -3 -19 -5.5t-40 -1.5l-201 1q-4 7 -3 16t6.5 17t14 14t19.5 6z" />
    <glyph glyph-name="umacron" unicode="&#x16b;" horiz-adv-x="319" 
d="M305 -5q-24 -4 -37.5 11t-18.5 44q-17 -15 -41 -27t-51 -16.5t-53 1.5t-46 26q-18 18 -28.5 47.5t-16 64.5t-6 72t0.5 71q1 12 2 25.5t3.5 27t6.5 25t10 19.5q14 17 40 17q-3 -74 -3 -127t2 -90t6.5 -60.5t12.5 -37.5q12 -22 34.5 -26.5t46.5 3t45.5 24t30.5 35.5v277
q8 5 17.5 3.5t18.5 -7.5t15 -16.5t7 -23.5zM312 486q2 -14 -4.5 -25t-17.5 -19q-7 -3 -19 -5.5t-40 -1.5l-201 1q-4 7 -3 16t6.5 17t14 14t19.5 6z" />
    <glyph glyph-name="Ubreve" unicode="&#x16c;" horiz-adv-x="354" 
d="M337 -5q-24 -4 -37.5 11t-18.5 44q-24 -17 -45 -30t-50 -19q-47 -10 -78 7.5t-50.5 52t-28 82t-12 98.5t-2.5 100.5t2 88.5q1 52 7 85t15.5 52t23.5 25t32 4q-4 -34 -9 -89t-7.5 -116.5t0 -123t13 -109.5t31.5 -75.5t56 -20.5q14 3 28.5 10t27.5 17t24 20.5t18 19.5
l9 469q8 5 17.5 3.5t18.5 -7.5t15 -16.5t7 -23.5zM179 668q16 -2 28.5 3.5t23 15t18 21.5t13.5 23q13 -7 16 -26t-6 -39.5t-31 -35.5t-58 -15q-30 0 -50 12.5t-29.5 30.5t-8.5 37.5t14 33.5q3 -8 9.5 -18t15.5 -19t20.5 -16t24.5 -8z" />
    <glyph glyph-name="ubreve" unicode="&#x16d;" horiz-adv-x="319" 
d="M305 -5q-24 -4 -37.5 11t-18.5 44q-17 -15 -41 -27t-51 -16.5t-53 1.5t-46 26q-18 18 -28.5 47.5t-16 64.5t-6 72t0.5 71q1 12 2 25.5t3.5 27t6.5 25t10 19.5q14 17 40 17q-3 -74 -3 -127t2 -90t6.5 -60.5t12.5 -37.5q12 -22 34.5 -26.5t46.5 3t45.5 24t30.5 35.5v277
q8 5 17.5 3.5t18.5 -7.5t15 -16.5t7 -23.5zM152 466q16 -2 28.5 3.5t23 15t18 21.5t13.5 23q13 -7 16 -26t-6 -39.5t-31 -35.5t-58 -15q-30 0 -50 12.5t-29.5 30.5t-8.5 37.5t14 33.5q3 -8 9.5 -18t15.5 -19t20.5 -16t24.5 -8z" />
    <glyph glyph-name="Uring" unicode="&#x16e;" horiz-adv-x="354" 
d="M337 -5q-24 -4 -37.5 11t-18.5 44q-24 -17 -45 -30t-50 -19q-47 -10 -78 7.5t-50.5 52t-28 82t-12 98.5t-2.5 100.5t2 88.5q1 52 7 85t15.5 52t23.5 25t32 4q-4 -34 -9 -89t-7.5 -116.5t0 -123t13 -109.5t31.5 -75.5t56 -20.5q14 3 28.5 10t27.5 17t24 20.5t18 19.5
l9 469q8 5 17.5 3.5t18.5 -7.5t15 -16.5t7 -23.5zM115 667q-2 25 8.5 42.5t28 27t38.5 11.5t39.5 -4t32 -20t15.5 -35q3 -36 -20.5 -55.5t-54.5 -23t-57.5 10.5t-29.5 46zM231 680q-2 17 -14 23.5t-25.5 5t-24 -10.5t-8.5 -23q2 -16 14 -21.5t25 -3.5t23.5 10.5t9.5 19.5z
" />
    <glyph glyph-name="uring" unicode="&#x16f;" horiz-adv-x="319" 
d="M305 -5q-24 -4 -37.5 11t-18.5 44q-17 -15 -41 -27t-51 -16.5t-53 1.5t-46 26q-18 18 -28.5 47.5t-16 64.5t-6 72t0.5 71q1 12 2 25.5t3.5 27t6.5 25t10 19.5q14 17 40 17q-3 -74 -3 -127t2 -90t6.5 -60.5t12.5 -37.5q12 -22 34.5 -26.5t46.5 3t45.5 24t30.5 35.5v277
q8 5 17.5 3.5t18.5 -7.5t15 -16.5t7 -23.5zM78 464q-2 25 8.5 42.5t28 27t38.5 11.5t39.5 -4t32 -20t15.5 -35q3 -36 -20.5 -55.5t-54.5 -23t-57.5 10.5t-29.5 46zM194 477q-2 17 -14 23.5t-25.5 5t-24 -10.5t-8.5 -23q2 -16 14 -21.5t25 -3.5t23.5 10.5t9.5 19.5z" />
    <glyph glyph-name="Uhungarumlaut" unicode="&#x170;" horiz-adv-x="354" 
d="M337 -5q-24 -4 -37.5 11t-18.5 44q-24 -17 -45 -30t-50 -19q-47 -10 -78 7.5t-50.5 52t-28 82t-12 98.5t-2.5 100.5t2 88.5q1 52 7 85t15.5 52t23.5 25t32 4q-4 -34 -9 -89t-7.5 -116.5t0 -123t13 -109.5t31.5 -75.5t56 -20.5q14 3 28.5 10t27.5 17t24 20.5t18 19.5
l9 469q8 5 17.5 3.5t18.5 -7.5t15 -16.5t7 -23.5zM174 720q7 13 25 17t38 -7l-53 -100q-4 -6 -11.5 -8.5t-16 -2t-16.5 3t-11 5.5zM258 719q7 12 25 16t38 -7l-53 -99q-4 -6 -11.5 -8.5t-16 -2.5t-16.5 2.5t-11 5.5z" />
    <glyph glyph-name="uhungarumlaut" unicode="&#x171;" horiz-adv-x="319" 
d="M305 -5q-24 -4 -37.5 11t-18.5 44q-17 -15 -41 -27t-51 -16.5t-53 1.5t-46 26q-18 18 -28.5 47.5t-16 64.5t-6 72t0.5 71q1 12 2 25.5t3.5 27t6.5 25t10 19.5q14 17 40 17q-3 -74 -3 -127t2 -90t6.5 -60.5t12.5 -37.5q12 -22 34.5 -26.5t46.5 3t45.5 24t30.5 35.5v277
q8 5 17.5 3.5t18.5 -7.5t15 -16.5t7 -23.5zM139 534q7 13 25 17t38 -7l-53 -100q-4 -6 -11.5 -8.5t-16 -2t-16.5 3t-11 5.5zM223 533q7 12 25 16t38 -7l-53 -99q-4 -6 -11.5 -8.5t-16 -2.5t-16.5 2.5t-11 5.5z" />
    <glyph glyph-name="Uogonek" unicode="&#x172;" horiz-adv-x="354" 
d="M337 -5q-24 -4 -37.5 11t-18.5 44q-24 -17 -45 -30t-50 -19q-47 -10 -78 7.5t-50.5 52t-28 82t-12 98.5t-2.5 100.5t2 88.5q1 52 7 85t15.5 52t23.5 25t32 4q-4 -34 -9 -89t-7.5 -116.5t0 -123t13 -109.5t31.5 -75.5t56 -20.5q14 3 28.5 10t27.5 17t24 20.5t18 19.5
l9 469q8 5 17.5 3.5t18.5 -7.5t15 -16.5t7 -23.5zM328 -121q-16 8 -30.5 25t-23 38.5t-6.5 45.5t19 47q6 8 15 7.5t16.5 -6t11 -14.5t-0.5 -16q-14 -23 -8.5 -37.5t14 -27.5t11 -26.5t-17.5 -35.5z" />
    <glyph glyph-name="uogonek" unicode="&#x173;" horiz-adv-x="319" 
d="M305 -5q-24 -4 -37.5 11t-18.5 44q-17 -15 -41 -27t-51 -16.5t-53 1.5t-46 26q-18 18 -28.5 47.5t-16 64.5t-6 72t0.5 71q1 12 2 25.5t3.5 27t6.5 25t10 19.5q14 17 40 17q-3 -74 -3 -127t2 -90t6.5 -60.5t12.5 -37.5q12 -22 34.5 -26.5t46.5 3t45.5 24t30.5 35.5v277
q8 5 17.5 3.5t18.5 -7.5t15 -16.5t7 -23.5zM298 -127q-16 8 -30.5 25t-23 38.5t-6.5 45.5t19 47q6 8 15 7.5t16.5 -6t11 -14.5t-0.5 -16q-14 -23 -8.5 -37.5t14 -27.5t11 -26.5t-17.5 -35.5z" />
    <glyph glyph-name="Wcircumflex" unicode="&#x174;" horiz-adv-x="474" 
d="M79 23q-2 24 -7 65.5t-12 94t-15 111t-15.5 115.5t-13 108t-7.5 88q33 -2 43.5 -21.5t17.5 -51.5q1 -6 5.5 -37t11 -74.5t13 -93.5t12.5 -94t10 -75t4 -37q7 12 18.5 39.5t24.5 55.5t25 50t21 24q12 3 23 -14.5t23 -47t25.5 -67t29.5 -74.5q8 39 17.5 85.5t18.5 94.5
t17.5 94t16 84.5t13 66t9.5 38.5q11 32 24.5 42t33.5 10q-9 -60 -20 -122.5t-22 -122t-22 -113.5t-20 -97.5t-15 -74t-7 -41.5q-2 -14 -10 -22t-18.5 -10t-20.5 1.5t-16 12.5q-8 12 -17.5 38t-19.5 55t-20 55t-18 40q-9 -20 -20.5 -46.5l-23 -53t-21 -49.5t-14.5 -35
t-15 -16t-20 -2t-18 8.5t-9 15.5zM335 629q-4 -4 -13 -6.5t-18.5 -3t-19 2t-13.5 10.5l-35 63l-32 -60q-5 -8 -15 -11.5t-20.5 -3t-19 4t-11.5 8.5l64 124q7 11 16.5 15.5t19 3.5t18 -5.5t12.5 -11.5z" />
    <glyph glyph-name="wcircumflex" unicode="&#x175;" horiz-adv-x="379" 
d="M43 23q-5 71 -13.5 166.5t-15.5 207.5q33 -2 43.5 -21.5t17.5 -51.5q2 -9 4.5 -38t4.5 -63t4 -63.5t2 -38.5q7 12 17.5 35t22 46t22.5 41t20 20q12 3 22.5 -10.5t23 -38t27.5 -58t35 -69.5q6 103 14 164.5t18.5 93.5t24.5 42t33 10q-12 -81 -20 -142t-13 -105t-8 -73
t-5 -46q-2 -14 -10 -22t-18.5 -10t-20.5 1.5t-16 12.5q-8 12 -18.5 34t-22 45.5t-22.5 45.5t-19 36q-9 -20 -19.5 -42.5t-20.5 -44t-18.5 -40t-13.5 -30.5t-15 -16t-20 -2t-18 8.5t-9 15.5zM288 429q-4 -4 -13 -6.5t-18.5 -3t-19 2t-13.5 10.5l-35 63l-32 -60
q-5 -8 -15 -11.5t-20.5 -3t-19 4t-11.5 8.5l64 124q7 11 16.5 15.5t19 3.5t18 -5.5t12.5 -11.5z" />
    <glyph glyph-name="Ycircumflex" unicode="&#x176;" horiz-adv-x="418" 
d="M215 46q-1 91 -2.5 140.5t-3 72t-2.5 26.5t-1 5l-197 296q19 12 41 11t35 -18l154 -216l98 204q4 12 13.5 19.5t20.5 11t21 3t15 -4.5q-3 -15 -12.5 -39.5t-23 -55t-29 -63t-29.5 -62t-25 -54t-16 -37.5q0 -3 0.5 -10.5t0.5 -35t0.5 -83t2.5 -154.5q-8 -5 -18 -3.5
t-19.5 7.5t-16 16.5t-7.5 23.5zM319 629q-4 -4 -13 -6.5t-18.5 -3t-19 2t-13.5 10.5l-35 63l-32 -60q-5 -8 -15 -11.5t-20.5 -3t-19 4t-11.5 8.5l64 124q7 11 16.5 15.5t19 3.5t18 -5.5t12.5 -11.5z" />
    <glyph glyph-name="ycircumflex" unicode="&#x177;" horiz-adv-x="370" 
d="M-444 -633q3 83 38 148.5t92 116.5t130.5 89t153 65t160 44t151.5 28l2 241q-8 -19 -22 -34t-30.5 -25.5t-33.5 -16t-30 -5.5q-43 0 -74.5 18t-49.5 61.5t-23 116.5t4 184q6 9 16.5 7t20.5 -10t16.5 -20t4.5 -23q1 -24 1 -55t1.5 -62.5t6 -61t13 -52t23 -35t37.5 -9.5
q43 6 66.5 35t35.5 69t16.5 85t7.5 82q1 12 8.5 23.5t17 19t19 9.5t15.5 -5l-7 -530q76 8 141.5 17.5t118.5 15.5q1 -17 -8.5 -29t-25 -20.5t-34.5 -13t-35 -6.5q-35 -5 -76 -11.5t-79 -13.5q-4 -80 -11 -166t-22 -170t-41 -161t-67 -137.5t-100 -100.5t-140 -50
q-80 -10 -154.5 13.5t-131.5 71.5t-91 116t-31 147zM-372 -640q0 -66 27 -121.5t72 -93t104 -54.5t124 -7q69 10 119 47t85 92.5t57.5 125t36 145.5t20 153t9.5 148q-56 -7 -126 -21t-143 -37t-142.5 -56t-123.5 -79t-87 -106t-32 -136zM283 429q-4 -4 -13 -6.5t-18.5 -3
t-19 2t-13.5 10.5l-35 63l-32 -60q-5 -8 -15 -11.5t-20.5 -3t-19 4t-11.5 8.5l64 124q7 11 16.5 15.5t19 3.5t18 -5.5t12.5 -11.5z" />
    <glyph glyph-name="Ydieresis" unicode="&#x178;" horiz-adv-x="418" 
d="M215 46q-1 91 -2.5 140.5t-3 72t-2.5 26.5t-1 5l-197 296q19 12 41 11t35 -18l154 -216l98 204q4 12 13.5 19.5t20.5 11t21 3t15 -4.5q-3 -15 -12.5 -39.5t-23 -55t-29 -63t-29.5 -62t-25 -54t-16 -37.5q0 -3 0.5 -10.5t0.5 -35t0.5 -83t2.5 -154.5q-8 -5 -18 -3.5
t-19.5 7.5t-16 16.5t-7.5 23.5zM116 637q0 18 12.5 25.5t27.5 7t27.5 -8.5t12.5 -21q0 -20 -12.5 -27.5t-27.5 -6t-27.5 10t-12.5 20.5zM242 637q0 18 12.5 25.5t27.5 7t27.5 -8.5t12.5 -21q0 -20 -12.5 -27.5t-27.5 -6t-27.5 10t-12.5 20.5z" />
    <glyph glyph-name="Zacute" unicode="&#x179;" horiz-adv-x="372" 
d="M74 3q-24 0 -40 8q-19 9 -22.5 27t14.5 44l259 463q-38 -2 -85 -2.5t-88.5 4t-69.5 17t-28 36.5h310q11 0 19.5 -6t12.5 -16t3 -21.5t-9 -21.5l-271 -479l291 4q2 -17 -11 -28t-36 -17t-54 -8.5t-64.5 -3.5t-67.5 -0.5t-63 0.5zM176 727q8 14 28 18.5t41 -7.5l-50 -98
q-5 -10 -15 -14.5t-20.5 -5.5t-19.5 1t-13 6z" />
    <glyph glyph-name="zacute" unicode="&#x17a;" horiz-adv-x="324" 
d="M74 5q-24 0 -40 8q-19 9 -22.5 27t14.5 44q25 36 48 67.5t46.5 62.5t49.5 64t57 72q-38 1 -76 -1.5t-68 0t-48.5 13t-16.5 39.5l248 1q11 0 19.5 -6t12.5 -16t3 -21.5t-9 -21.5q-25 -33 -54.5 -70t-58.5 -74t-55 -72t-45 -63l237 10q3 -26 -18 -38.5t-56 -18t-80 -6
t-88 -0.5zM152 527q8 14 28 18.5t41 -7.5l-50 -98q-5 -10 -15 -14.5t-20.5 -5.5t-19.5 1t-13 6z" />
    <glyph glyph-name="Zdotaccent" unicode="&#x17b;" horiz-adv-x="372" 
d="M74 3q-24 0 -40 8q-19 9 -22.5 27t14.5 44l259 463q-38 -2 -85 -2.5t-88.5 4t-69.5 17t-28 36.5h310q11 0 19.5 -6t12.5 -16t3 -21.5t-9 -21.5l-271 -479l291 4q2 -17 -11 -28t-36 -17t-54 -8.5t-64.5 -3.5t-67.5 -0.5t-63 0.5zM146 653q0 18 12.5 25.5t27.5 7t27.5 -8.5
t12.5 -21q0 -20 -12.5 -27.5t-27.5 -6t-27.5 10t-12.5 20.5z" />
    <glyph glyph-name="zdotaccent" unicode="&#x17c;" horiz-adv-x="324" 
d="M74 5q-24 0 -40 8q-19 9 -22.5 27t14.5 44q25 36 48 67.5t46.5 62.5t49.5 64t57 72q-38 1 -76 -1.5t-68 0t-48.5 13t-16.5 39.5l248 1q11 0 19.5 -6t12.5 -16t3 -21.5t-9 -21.5q-25 -33 -54.5 -70t-58.5 -74t-55 -72t-45 -63l237 10q3 -26 -18 -38.5t-56 -18t-80 -6
t-88 -0.5zM122 453q0 18 12.5 25.5t27.5 7t27.5 -8.5t12.5 -21q0 -20 -12.5 -27.5t-27.5 -6t-27.5 10t-12.5 20.5z" />
    <glyph glyph-name="Zcaron" unicode="&#x17d;" horiz-adv-x="372" 
d="M74 3q-24 0 -40 8q-19 9 -22.5 27t14.5 44l259 463q-38 -2 -85 -2.5t-88.5 4t-69.5 17t-28 36.5h310q11 0 19.5 -6t12.5 -16t3 -21.5t-9 -21.5l-271 -479l291 4q2 -17 -11 -28t-36 -17t-54 -8.5t-64.5 -3.5t-67.5 -0.5t-63 0.5zM91 754q4 3 12.5 5.5t18 3t18 -2
t13.5 -9.5l32 -58l32 54q5 8 14.5 11t19.5 2.5t18.5 -3.5t11.5 -8l-62 -112q-6 -10 -15.5 -14t-18.5 -3.5t-17 4.5t-12 11z" />
    <glyph glyph-name="zcaron" unicode="&#x17e;" horiz-adv-x="324" 
d="M74 5q-24 0 -40 8q-19 9 -22.5 27t14.5 44q25 36 48 67.5t46.5 62.5t49.5 64t57 72q-38 1 -76 -1.5t-68 0t-48.5 13t-16.5 39.5l248 1q11 0 19.5 -6t12.5 -16t3 -21.5t-9 -21.5q-25 -33 -54.5 -70t-58.5 -74t-55 -72t-45 -63l237 10q3 -26 -18 -38.5t-56 -18t-80 -6
t-88 -0.5zM67 554q4 3 12.5 5.5t18 3t18 -2t13.5 -9.5l32 -58l32 54q5 8 14.5 11t19.5 2.5t18.5 -3.5t11.5 -8l-62 -112q-6 -10 -15.5 -14t-18.5 -3.5t-17 4.5t-12 11z" />
    <glyph glyph-name="AEacute" unicode="&#x1fc;" horiz-adv-x="701" 
d="M388 2q-21 0 -39.5 9t-18.5 35l-4 175l-159 -3q-19 -54 -37 -95t-37 -68.5t-40 -40t-46 -9.5q51 118 111 256.5t129 282.5q14 29 32 41t34 11q12 -1 25 -14q17 19 49 19h295q4 -8 2.5 -17.5t-8 -18t-17 -14.5t-23.5 -6l-257 1q0 -3 0.5 -9t0.5 -25.5t0.5 -57.5t1.5 -105
h222q4 -8 2 -17t-8.5 -17t-17.5 -13t-24 -5l-173 -3l7 -236l299 -2q4 -8 2 -17t-8.5 -17t-17.5 -13t-24 -5zM319 283q1 47 0 89.5t-3 75t-6.5 53.5t-10.5 24q-4 1 -13.5 -20t-24 -56t-33 -79.5t-40.5 -89.5zM436 735q8 14 28 18.5t41 -7.5l-50 -98q-5 -10 -15 -14.5
t-20.5 -5.5t-19.5 1t-13 6z" />
    <glyph glyph-name="aeacute" unicode="&#x1fd;" horiz-adv-x="566" 
d="M412 398q21 0 44 -6t42.5 -18.5t32.5 -32t13 -47.5q-1 -47 -29 -72.5t-66 -34.5t-77.5 -4.5t-63.5 17.5q-1 -28 5 -54t20.5 -45.5t36.5 -31t52 -11.5q13 0 30 5t34.5 12t33.5 15.5t27 15.5q5 -16 0.5 -30.5t-14 -26t-23 -20.5t-25.5 -14q-19 -8 -38 -12t-34 -4
q-18 0 -39.5 5t-42.5 17t-39 32.5t-30 51.5q-15 -29 -38.5 -53.5t-50.5 -40t-55 -19t-53 10.5t-39 40.5t-13 61.5q1 38 14.5 78t36.5 76.5t53 65.5t64 46t69 18.5t68 -18.5q19 13 42 20t52 7zM276 329q-33 8 -66 -9t-61.5 -47.5t-49 -68.5t-27.5 -72q-7 -30 -0.5 -52.5
t29.5 -28.5q20 -5 40.5 5.5t39.5 32t35.5 51t28.5 61.5q5 34 11.5 67t19.5 61zM407 343q-30 0 -53.5 -21t-36.5 -50l-1 -1l-5 -18q19 -7 46 -11t53.5 -1t47.5 15t27 38q0 14 -7.5 23.5t-19 15t-25.5 8t-26 2.5zM307 527q8 14 28 18.5t41 -7.5l-50 -98q-5 -10 -15 -14.5
t-20.5 -5.5t-19.5 1t-13 6z" />
    <glyph glyph-name="Oslashacute" unicode="&#x1fe;" horiz-adv-x="393" 
d="M195 -2q-48 0 -83 22t-58.5 58.5t-35 84.5t-12.5 100q-2 61 11 122t38.5 109.5t63.5 79t86 30.5t84.5 -28t60 -73.5t34.5 -103.5t9 -117q-2 -54 -15 -105t-38 -90.5t-61 -64t-84 -24.5zM193 50q33 -1 58 18.5t43 52t27.5 75t11.5 87.5q1 49 -7 96.5t-24.5 84.5t-41 59
t-55.5 21q-33 -2 -59 -26.5t-43.5 -63t-26.5 -86.5t-8 -97q0 -42 8 -81.5t23.5 -70t38.5 -49.5t55 -20zM282 606q15 -3 25.5 -14t12.5 -27q2 -10 -1 -24.5t-14 -46.5l-184 -499q-9 -2 -18 2.5t-15.5 13t-9 20.5t0.5 25zM186 727q8 14 28 18.5t41 -7.5l-50 -98
q-5 -10 -15 -14.5t-20.5 -5.5t-19.5 1t-13 6z" />
    <glyph glyph-name="oslashacute" unicode="&#x1ff;" horiz-adv-x="329" 
d="M172 401q25 -2 42 -7l19 46q15 -3 25.5 -14t12.5 -27q1 -8 0.5 -16.5t-5.5 -24.5q26 -29 36.5 -72t8.5 -88q-2 -37 -13.5 -72t-31.5 -62.5t-48 -45t-64 -18.5q-20 0 -36 3l-22 -51q-9 -2 -18 2.5t-15.5 13t-9 20.5t0.5 25l9 22q-26 26 -37.5 64t-11.5 81q0 40 10.5 80
t30.5 71.5t49.5 51t67.5 18.5zM171 341q-21 0 -38.5 -15t-30.5 -38.5t-20 -52.5t-8 -58q-1 -22 3 -42t13 -36l100 239q-9 3 -19 3zM255 202q2 25 -1.5 48.5t-12.5 42.5l-99 -233q3 -1 11 -1q22 -1 40 11t31 32.5t21 46.5t10 53zM154 527q8 14 28 18.5t41 -7.5l-50 -98
q-5 -10 -15 -14.5t-20.5 -5.5t-19.5 1t-13 6z" />
    <glyph glyph-name="Scommaaccent" unicode="&#x218;" horiz-adv-x="348" 
d="M130 -3q-45 9 -75 36.5t-42 58t-3.5 56.5t39.5 33q-1 -39 13.5 -67t37 -44t50.5 -20.5t53.5 4t45.5 30t28 56.5q7 36 -9 61.5t-45 46.5t-64.5 40t-66 41.5t-50 51.5t-16.5 69q3 39 20.5 68t43.5 47.5t57 26.5t61 6q20 -1 43 -10.5t40 -25t23 -36.5t-8 -45
q-12 12 -23.5 22.5t-23.5 19t-25.5 14t-30.5 6.5q-50 3 -79 -21.5t-37 -70.5q-5 -28 14 -49t49.5 -40t66 -38.5t65 -45t46 -59.5t8.5 -82q-7 -41 -26.5 -69t-47 -44.5t-61.5 -22.5t-71 -4zM179 -140q5 23 -3.5 34.5t-17.5 21.5t-12.5 23.5t10.5 41.5q25 -5 41 -20
t24.5 -34.5t10.5 -40t-2 -36.5q-10 -42 -34.5 -57t-53.5 1q5 6 9.5 10.5t9 11.5t9 17t9.5 27z" />
    <glyph glyph-name="scommaaccent" unicode="&#x219;" horiz-adv-x="277" 
d="M9 118q28 3 40.5 -6.5t21.5 -22.5t21 -25t39 -13q19 0 33.5 7t24 18.5t13.5 26t3 28.5q-3 28 -17 43.5t-33.5 25t-42 16t-42 16.5t-33 26t-16.5 44q-3 25 6.5 45t26 33.5t38.5 21t45 8.5q16 1 36.5 -2t37.5 -11.5t27 -23t5 -36.5q-21 5 -45.5 12.5t-55.5 6.5
q-11 0 -22.5 -4t-20.5 -10.5t-14.5 -15.5t-3.5 -18q1 -18 15 -29t34 -19.5t43.5 -17t44 -21.5t35 -33.5t17.5 -52.5q3 -30 -6.5 -55t-28 -43t-43.5 -29t-53 -12q-29 -1 -51.5 8t-39 25.5t-26.5 39t-13 49.5zM135 -143q5 23 -3.5 34.5t-17.5 21.5t-12.5 23.5t10.5 41.5
q25 -5 41 -20t24.5 -34.5t10.5 -40t-2 -36.5q-10 -42 -34.5 -57t-53.5 1q5 6 9.5 10.5t9 11.5t9 17t9.5 27z" />
    <glyph glyph-name="dotlessj" unicode="&#x237;" horiz-adv-x="130" 
d="M-312 -969q-64 0 -112 21.5t-80.5 58.5t-50.5 85.5t-21 101.5t8.5 106.5t36.5 101.5q38 73 99.5 141t137 123.5t160.5 95t171 55.5l6 410q0 22 7 36.5t15.5 22t16.5 9t12 -3.5v-474q27 0 49 -6.5t36.5 -18t19 -27t-2.5 -33.5q-28 14 -51 19.5t-48 3.5
q-4 -156 -25.5 -277.5t-54.5 -213.5t-74.5 -156t-85.5 -104t-88 -58.5t-81 -18.5zM37 -140q-76 -17 -153.5 -54.5t-146.5 -88.5t-124.5 -112t-88.5 -125q-20 -41 -29 -86.5t-6.5 -90.5t16.5 -85.5t39 -70t61 -44.5t83 -10q35 4 73.5 23t76 56.5t71.5 96t61 142.5t44.5 195
t22.5 254z" />
    <glyph glyph-name="circumflex" unicode="&#x2c6;" horiz-adv-x="238" 
d="M220 429q-4 -4 -13 -6.5t-18.5 -3t-19 2t-13.5 10.5l-35 63l-32 -60q-5 -8 -15 -11.5t-20.5 -3t-19 4t-11.5 8.5l64 124q7 11 16.5 15.5t19 3.5t18 -5.5t12.5 -11.5z" />
    <glyph glyph-name="caron" unicode="&#x2c7;" horiz-adv-x="235" 
d="M25 554q4 3 12.5 5.5t18 3t18 -2t13.5 -9.5l32 -58l32 54q5 8 14.5 11t19.5 2.5t18.5 -3.5t11.5 -8l-62 -112q-6 -10 -15.5 -14t-18.5 -3.5t-17 4.5t-12 11z" />
    <glyph glyph-name="breve" unicode="&#x2d8;" horiz-adv-x="242" 
d="M114 466q16 -2 28.5 3.5t23 15t18 21.5t13.5 23q13 -7 16 -26t-6 -39.5t-31 -35.5t-58 -15q-30 0 -50 12.5t-29.5 30.5t-8.5 37.5t14 33.5q3 -8 9.5 -18t15.5 -19t20.5 -16t24.5 -8z" />
    <glyph glyph-name="dotaccent" unicode="&#x2d9;" horiz-adv-x="111" 
d="M17 453q0 18 12.5 25.5t27.5 7t27.5 -8.5t12.5 -21q0 -20 -12.5 -27.5t-27.5 -6t-27.5 10t-12.5 20.5z" />
    <glyph glyph-name="ring" unicode="&#x2da;" horiz-adv-x="177" 
d="M8 464q-2 25 8.5 42.5t28 27t38.5 11.5t39.5 -4t32 -20t15.5 -35q3 -36 -20.5 -55.5t-54.5 -23t-57.5 10.5t-29.5 46zM124 477q-2 17 -14 23.5t-25.5 5t-24 -10.5t-8.5 -23q2 -16 14 -21.5t25 -3.5t23.5 10.5t9.5 19.5z" />
    <glyph glyph-name="ogonek" unicode="&#x2db;" horiz-adv-x="116" 
d="M84 -106q-16 8 -30.5 25t-23 38.5t-6.5 45.5t19 47q6 8 15 7.5t16.5 -6t11 -14.5t-0.5 -16q-14 -23 -8.5 -37.5t14 -27.5t11 -26.5t-17.5 -35.5z" />
    <glyph glyph-name="tilde" unicode="&#x2dc;" horiz-adv-x="388" 
d="M383 564q-4 -30 -12.5 -58t-23.5 -49t-36 -33t-51 -12q-27 0 -44 8.5t-28.5 21t-19 27t-15.5 27t-17.5 20.5t-24.5 8q-16 0 -25.5 -10t-14 -25t-5 -34t2.5 -37q-25 1 -38 13.5t-16 31t3 39t19.5 37.5t33 27.5t43.5 8.5q37 -3 57.5 -20.5t33.5 -37t22.5 -35t26.5 -16.5
q20 -1 31 6.5t17.5 18.5t11.5 24.5t13 24.5t20.5 18t35.5 6z" />
    <glyph glyph-name="hungarumlaut" unicode="&#x2dd;" horiz-adv-x="263" 
d="M91 527q7 13 25 17t38 -7l-53 -100q-4 -6 -11.5 -8.5t-16 -2t-16.5 3t-11 5.5zM175 526q7 12 25 16t38 -7l-53 -99q-4 -6 -11.5 -8.5t-16 -2.5t-16.5 2.5t-11 5.5z" />
    <glyph glyph-name="uni1E02" unicode="&#x1e02;" horiz-adv-x="324" 
d="M13 601q15 1 24 -0.5t14.5 -7t8.5 -13.5t7 -18q57 33 100.5 34t71.5 -18.5t40.5 -54.5t7.5 -72.5t-28.5 -72t-66.5 -54.5q37 -5 64 -24t43 -48.5t20 -66.5t-6 -76q-12 -42 -42 -73t-83 -36q-28 -2 -58.5 3.5t-59.5 26.5q0 -18 -16 -27.5t-38 -2.5zM70 87q31 -25 59.5 -34
t52.5 -5q34 7 53.5 30t26.5 52q8 42 -4.5 75.5t-40 52t-67 19.5t-85.5 -21zM236 483q-2 33 -19 48.5t-41.5 16.5t-53 -10.5t-53.5 -31.5l-1 -178q27 1 57 14.5t55 34.5t41 48.5t15 57.5zM122 653q0 18 12.5 25.5t27.5 7t27.5 -8.5t12.5 -21q0 -20 -12.5 -27.5t-27.5 -6
t-27.5 10t-12.5 20.5z" />
    <glyph glyph-name="uni1E03" unicode="&#x1e03;" horiz-adv-x="354" 
d="M24 861q-34 -6 -77.5 -0.5t-87.5 26t-84.5 59t-68.5 99.5q16 10 28.5 10t23 -7t19.5 -18t18 -23q12 -14 29.5 -31t44.5 -31t64.5 -22t88.5 -4l4 113q4 102 34.5 147t81.5 43q22 -1 42.5 -11.5t37 -29.5t26.5 -46t10 -60q0 -50 -15 -87.5t-40 -64t-57 -42t-65 -20.5
l1 -537q19 13 42 26.5t48.5 20.5t52 4.5t52.5 -21.5q35 -26 49.5 -64t12.5 -79t-18.5 -81.5t-44.5 -71.5t-65 -49t-79 -15q-6 0 -24 2.5t-37 7.5t-34 13.5t-15 20.5zM244 311q-16 12 -42 10t-51.5 -13.5t-45 -31.5t-23.5 -44l-1 -172q35 -18 68 -12t60 27.5t46 54t25.5 66
t-1.5 65t-35 50.5zM205 1069q0 19 -5.5 36t-14 29.5t-19.5 19.5t-22 8q-22 2 -42.5 -26.5t-21.5 -97.5l-2 -113q28 0 51.5 12t40.5 32.5t26 46.5t9 53zM101 1288q0 18 12.5 25.5t27.5 7t27.5 -8.5t12.5 -21q0 -20 -12.5 -27.5t-27.5 -6t-27.5 10t-12.5 20.5z" />
    <glyph glyph-name="uni1E0A" unicode="&#x1e0a;" horiz-adv-x="385" 
d="M49 556q-6 1 -13 2.5t-12.5 5.5t-9.5 12t-4 22q103 10 173.5 -8.5t114 -57.5t62 -93.5t17.5 -117.5q-2 -87 -31.5 -150.5t-80.5 -103.5t-118.5 -55.5t-143.5 -5.5q5 16 15 29.5t34 15.5zM319 319q0 40 -11.5 81t-36.5 74t-65 54.5t-95 21.5q-1 0 -1.5 -5t-0.5 -22v-49
t0.5 -86.5t0.5 -135.5v-194q46 0 84 23t66 60t43.5 83.5t15.5 94.5zM152 653q0 18 12.5 25.5t27.5 7t27.5 -8.5t12.5 -21q0 -20 -12.5 -27.5t-27.5 -6t-27.5 10t-12.5 20.5z" />
    <glyph glyph-name="uni1E0B" unicode="&#x1e0b;" horiz-adv-x="375" 
d="M123 2q-44 -1 -69 29.5t-33 74.5t-0.5 93t27.5 87q14 25 33.5 46.5t44 36t54 21t64.5 1.5q-7 37 -19.5 92.5t-25 121t-23.5 137.5t-17 141.5t-3.5 132t17 109.5t42.5 74.5t75 27.5q39 0 61.5 -32t32.5 -85.5t9 -122t-8 -142.5t-18 -148.5t-22.5 -138t-21.5 -111
t-14 -68.5q3 -39 12 -82.5t18 -86t16 -81.5t8 -68.5t-6.5 -46.5t-28.5 -16l-43 215q-9 -36 -23 -73t-33.5 -67.5t-46 -50t-59.5 -20.5zM244 338q-24 6 -45.5 1t-40.5 -17.5t-35 -31.5t-27 -41q-13 -26 -18.5 -59.5t-2.5 -63t15 -49.5t33 -19q18 1 34 17t29.5 41.5t24 57
t18 62t11.5 58t4 44.5zM280 503q5 23 12.5 64.5t15 93t14 109.5t10 115t3.5 109t-5.5 92t-18 64t-33.5 24q-22 0 -35.5 -29t-18.5 -79t-3.5 -117t9.5 -141.5t20.5 -153t29.5 -151.5zM233 1287q0 18 12.5 25.5t27.5 7t27.5 -8.5t12.5 -21q0 -20 -12.5 -27.5t-27.5 -6
t-27.5 10t-12.5 20.5z" />
    <glyph glyph-name="uni1E1E" unicode="&#x1e1e;" horiz-adv-x="382" 
d="M75 2q0 -3 -8 -0.5t-18 13.5t-18.5 32.5t-8.5 56.5l-5 439q0 27 17 42.5t46 15.5h295q4 -8 2.5 -17.5t-8 -18t-17 -14.5t-23.5 -6l-257 1q0 -3 0.5 -9t0.5 -25.5t0.5 -57.5t1.5 -105h222q4 -8 2 -17t-8.5 -17t-17.5 -13t-24 -5l-173 -3zM151 653q0 18 12.5 25.5t27.5 7
t27.5 -8.5t12.5 -21q0 -20 -12.5 -27.5t-27.5 -6t-27.5 10t-12.5 20.5z" />
    <glyph glyph-name="uni1E1F" unicode="&#x1e1f;" horiz-adv-x="287" 
d="M29 401q-12 -1 -20.5 5.5t-12.5 15.5t-3.5 18.5t7.5 14.5h116q2 116 -0.5 218.5t-3.5 188.5t1.5 154t15 115t37.5 71.5t68 23.5q32 0 52 -24t31.5 -61.5t15.5 -85t4 -94.5t-3.5 -89.5t-6.5 -70.5q-10 0 -19.5 5t-17 18t-11 36t-0.5 60q0 3 1.5 22t2 45t-1 55.5t-7 54
t-16 40.5t-28.5 16q-29 -2 -40 -41t-13 -122t0 -215t0 -320h95q8 0 15 -8t11 -18t3.5 -18.5t-8.5 -9.5h-116l2 -398q-19 -4 -30.5 4.5t-18 22t-9 29t-3.5 26.5l-2 316h-87zM183 1272q0 18 12.5 25.5t27.5 7t27.5 -8.5t12.5 -21q0 -20 -12.5 -27.5t-27.5 -6t-27.5 10
t-12.5 20.5z" />
    <glyph glyph-name="uni1E40" unicode="&#x1e40;" horiz-adv-x="486" 
d="M26 558q4 20 12 29.5t17.5 10.5t19.5 -4.5t18 -15.5l151 -250q2 5 10 22.5t19 41t23.5 50t23.5 49.5t19 40.5t11 22.5q11 23 26.5 34t30 12t25 -8.5t11.5 -27.5l29 -570q-19 2 -31.5 10.5t-20.5 29.5t-12.5 57.5t-7 94t-4.5 138.5t-4 191l-105 -233q-21 -27 -45 -29.5
t-46 26.5l-113 197q-2 -102 -2 -190.5t-5 -152.5t-19 -100t-45 -33zM203 653q0 18 12.5 25.5t27.5 7t27.5 -8.5t12.5 -21q0 -20 -12.5 -27.5t-27.5 -6t-27.5 10t-12.5 20.5z" />
    <glyph glyph-name="uni1E41" unicode="&#x1e41;" horiz-adv-x="430" 
d="M18 412q23 3 36.5 -6.5t18.5 -29.5q21 13 44.5 17t45 -2.5t39 -24.5t26.5 -48q6 11 14.5 24.5t19.5 24.5t25 18.5t31 7.5q18 -1 32.5 -4.5t26.5 -15.5t21 -37t14 -68.5t6.5 -109.5t-0.5 -161q-7 -2 -16 1t-17 12t-14.5 23.5t-7.5 36.5q-2 38 -1.5 84.5t-2 87t-11 66.5
t-28.5 24q-19 -2 -31 -18.5t-19.5 -41t-11 -55t-5.5 -60t-3 -55.5t-2 -42q-2 -17 -9.5 -27.5t-16 -16.5t-16.5 -7t-12 3q-1 39 0.5 90t-0.5 98.5t-10.5 83t-29.5 44.5q-12 6 -25.5 5t-25 -7.5t-19.5 -16.5t-10 -21q0 -71 -0.5 -130.5t-5.5 -91.5q-6 -38 -19 -53.5t-35 -14.5
zM175 453q0 18 12.5 25.5t27.5 7t27.5 -8.5t12.5 -21q0 -20 -12.5 -27.5t-27.5 -6t-27.5 10t-12.5 20.5z" />
    <glyph glyph-name="uni1E56" unicode="&#x1e56;" horiz-adv-x="319" 
d="M10 602q15 3 24 1t15 -6t9.5 -8t7.5 -7q31 4 73.5 3t81 -13.5t65.5 -39.5t27 -75q0 -44 -18.5 -80t-52 -62t-79.5 -41t-99 -18q2 -85 1 -135t-7 -76t-17.5 -34.5t-30.5 -10.5v602zM67 317q43 -1 78.5 10.5t60.5 31t38 45t12 53.5q-2 31 -23.5 49t-51 24.5t-61.5 4
t-54 -11.5zM119 653q0 18 12.5 25.5t27.5 7t27.5 -8.5t12.5 -21q0 -20 -12.5 -27.5t-27.5 -6t-27.5 10t-12.5 20.5z" />
    <glyph glyph-name="uni1E57" unicode="&#x1e57;" horiz-adv-x="303" 
d="M-196 -978q-62 3 -104 31.5t-67 72t-35.5 98.5t-8 111t15.5 108.5t35 93.5q30 56 73.5 103.5t95 83t108.5 58t113 28.5q1 67 -0.5 140t-4.5 148.5t-7.5 152t-10.5 149.5q26 4 41.5 -16t19.5 -54q5 8 16.5 20.5t27.5 24.5t35 20t40 7q29 -2 50.5 -20.5t34.5 -47t18 -63.5
t1 -68q-5 -41 -21.5 -78t-43.5 -63.5t-62 -39t-76 -3.5l4 -208q31 -3 67.5 -14.5t66.5 -28.5t48.5 -38.5t13.5 -45.5q-10 5 -28.5 15.5t-43 21t-55.5 19t-67 9.5q2 -84 -1.5 -171.5t-15 -169t-33 -153.5t-54 -125t-79 -82.5t-107.5 -25.5zM34 -253q-51 -4 -99.5 -21.5
t-92 -47.5t-80.5 -72.5t-64 -95.5q-15 -30 -26 -73.5t-14.5 -91.5t2.5 -95.5t23.5 -85.5t49 -61.5t79.5 -22.5q53 1 90 35t62.5 89t39.5 125.5t21.5 144.5t8.5 145t0 128zM86 81q30 -12 55 -5.5t44 24.5t31.5 46t17.5 60q3 23 1.5 47.5t-8.5 44.5t-19 32.5t-29 12.5
q-15 0 -30.5 -9t-28.5 -22.5t-23 -29.5t-16 -29zM111 453q0 18 12.5 25.5t27.5 7t27.5 -8.5t12.5 -21q0 -20 -12.5 -27.5t-27.5 -6t-27.5 10t-12.5 20.5z" />
    <glyph glyph-name="uni1E60" unicode="&#x1e60;" horiz-adv-x="348" 
d="M130 -3q-45 9 -75 36.5t-42 58t-3.5 56.5t39.5 33q-1 -39 13.5 -67t37 -44t50.5 -20.5t53.5 4t45.5 30t28 56.5q7 36 -9 61.5t-45 46.5t-64.5 40t-66 41.5t-50 51.5t-16.5 69q3 39 20.5 68t43.5 47.5t57 26.5t61 6q20 -1 43 -10.5t40 -25t23 -36.5t-8 -45
q-12 12 -23.5 22.5t-23.5 19t-25.5 14t-30.5 6.5q-50 3 -79 -21.5t-37 -70.5q-5 -28 14 -49t49.5 -40t66 -38.5t65 -45t46 -59.5t8.5 -82q-7 -41 -26.5 -69t-47 -44.5t-61.5 -22.5t-71 -4zM134 653q0 18 12.5 25.5t27.5 7t27.5 -8.5t12.5 -21q0 -20 -12.5 -27.5t-27.5 -6
t-27.5 10t-12.5 20.5z" />
    <glyph glyph-name="uni1E61" unicode="&#x1e61;" horiz-adv-x="277" 
d="M9 118q28 3 40.5 -6.5t21.5 -22.5t21 -25t39 -13q19 0 33.5 7t24 18.5t13.5 26t3 28.5q-3 28 -17 43.5t-33.5 25t-42 16t-42 16.5t-33 26t-16.5 44q-3 25 6.5 45t26 33.5t38.5 21t45 8.5q16 1 36.5 -2t37.5 -11.5t27 -23t5 -36.5q-21 5 -45.5 12.5t-55.5 6.5
q-11 0 -22.5 -4t-20.5 -10.5t-14.5 -15.5t-3.5 -18q1 -18 15 -29t34 -19.5t43.5 -17t44 -21.5t35 -33.5t17.5 -52.5q3 -30 -6.5 -55t-28 -43t-43.5 -29t-53 -12q-29 -1 -51.5 8t-39 25.5t-26.5 39t-13 49.5zM98 453q0 18 12.5 25.5t27.5 7t27.5 -8.5t12.5 -21
q0 -20 -12.5 -27.5t-27.5 -6t-27.5 10t-12.5 20.5z" />
    <glyph glyph-name="uni1E6A" unicode="&#x1e6a;" horiz-adv-x="343" 
d="M143 539q-18 1 -42 1.5t-45 5t-35.5 16t-14.5 33.5h329q0 -9 0.5 -19t-10.5 -18.5t-39 -13.5t-85 -5q2 -132 2 -223.5t-2.5 -152t-7 -94t-11.5 -48.5t-16 -17t-21 1l-2 534v0zM131 653q0 18 12.5 25.5t27.5 7t27.5 -8.5t12.5 -21q0 -20 -12.5 -27.5t-27.5 -6t-27.5 10
t-12.5 20.5z" />
    <glyph glyph-name="uni1E6B" unicode="&#x1e6b;" horiz-adv-x="174" 
d="M66 726q-35 -20 -70.5 -45t-66 -49.5t-53.5 -47.5t-35 -39q-16 18 -12.5 40t20 45t43.5 46.5t57 44.5t61 42t56 34l8 434q16 0 26.5 -11.5t16.5 -30.5t9 -43.5t4 -49.5t0.5 -49t-0.5 -42v-169q24 15 55 39.5t60 51t51.5 49.5t31.5 35q20 -21 9 -50t-41.5 -62t-75 -67.5
t-90.5 -65.5l5 -837q-15 -1 -27.5 9t-21 40.5t-13 87.5t-2.5 149zM56 1291q0 18 12.5 25.5t27.5 7t27.5 -8.5t12.5 -21q0 -20 -12.5 -27.5t-27.5 -6t-27.5 10t-12.5 20.5z" />
    <glyph glyph-name="Wgrave" unicode="&#x1e80;" horiz-adv-x="474" 
d="M79 23q-2 24 -7 65.5t-12 94t-15 111t-15.5 115.5t-13 108t-7.5 88q33 -2 43.5 -21.5t17.5 -51.5q1 -6 5.5 -37t11 -74.5t13 -93.5t12.5 -94t10 -75t4 -37q7 12 18.5 39.5t24.5 55.5t25 50t21 24q12 3 23 -14.5t23 -47t25.5 -67t29.5 -74.5q8 39 17.5 85.5t18.5 94.5
t17.5 94t16 84.5t13 66t9.5 38.5q11 32 24.5 42t33.5 10q-9 -60 -20 -122.5t-22 -122t-22 -113.5t-20 -97.5t-15 -74t-7 -41.5q-2 -14 -10 -22t-18.5 -10t-20.5 1.5t-16 12.5q-8 12 -17.5 38t-19.5 55t-20 55t-18 40q-9 -20 -20.5 -46.5l-23 -53t-21 -49.5t-14.5 -35
t-15 -16t-20 -2t-18 8.5t-9 15.5zM299 629q-4 -4 -11.5 -6.5t-16.5 -3t-17.5 2t-12.5 9.5l-57 111q22 13 41.5 6.5t33.5 -31.5z" />
    <glyph glyph-name="wgrave" unicode="&#x1e81;" horiz-adv-x="379" 
d="M43 23q-5 71 -13.5 166.5t-15.5 207.5q33 -2 43.5 -21.5t17.5 -51.5q2 -9 4.5 -38t4.5 -63t4 -63.5t2 -38.5q7 12 17.5 35t22 46t22.5 41t20 20q12 3 22.5 -10.5t23 -38t27.5 -58t35 -69.5q6 103 14 164.5t18.5 93.5t24.5 42t33 10q-12 -81 -20 -142t-13 -105t-8 -73
t-5 -46q-2 -14 -10 -22t-18.5 -10t-20.5 1.5t-16 12.5q-8 12 -18.5 34t-22 45.5t-22.5 45.5t-19 36q-9 -20 -19.5 -42.5t-20.5 -44t-18.5 -40t-13.5 -30.5t-15 -16t-20 -2t-18 8.5t-9 15.5zM241 429q-4 -4 -11.5 -6.5t-16.5 -3t-17.5 2t-12.5 9.5l-57 111q22 13 41.5 6.5
t33.5 -31.5z" />
    <glyph glyph-name="Wacute" unicode="&#x1e82;" horiz-adv-x="474" 
d="M79 23q-2 24 -7 65.5t-12 94t-15 111t-15.5 115.5t-13 108t-7.5 88q33 -2 43.5 -21.5t17.5 -51.5q1 -6 5.5 -37t11 -74.5t13 -93.5t12.5 -94t10 -75t4 -37q7 12 18.5 39.5t24.5 55.5t25 50t21 24q12 3 23 -14.5t23 -47t25.5 -67t29.5 -74.5q8 39 17.5 85.5t18.5 94.5
t17.5 94t16 84.5t13 66t9.5 38.5q11 32 24.5 42t33.5 10q-9 -60 -20 -122.5t-22 -122t-22 -113.5t-20 -97.5t-15 -74t-7 -41.5q-2 -14 -10 -22t-18.5 -10t-20.5 1.5t-16 12.5q-8 12 -17.5 38t-19.5 55t-20 55t-18 40q-9 -20 -20.5 -46.5l-23 -53t-21 -49.5t-14.5 -35
t-15 -16t-20 -2t-18 8.5t-9 15.5zM227 727q8 14 28 18.5t41 -7.5l-50 -98q-5 -10 -15 -14.5t-20.5 -5.5t-19.5 1t-13 6z" />
    <glyph glyph-name="wacute" unicode="&#x1e83;" horiz-adv-x="379" 
d="M43 23q-5 71 -13.5 166.5t-15.5 207.5q33 -2 43.5 -21.5t17.5 -51.5q2 -9 4.5 -38t4.5 -63t4 -63.5t2 -38.5q7 12 17.5 35t22 46t22.5 41t20 20q12 3 22.5 -10.5t23 -38t27.5 -58t35 -69.5q6 103 14 164.5t18.5 93.5t24.5 42t33 10q-12 -81 -20 -142t-13 -105t-8 -73
t-5 -46q-2 -14 -10 -22t-18.5 -10t-20.5 1.5t-16 12.5q-8 12 -18.5 34t-22 45.5t-22.5 45.5t-19 36q-9 -20 -19.5 -42.5t-20.5 -44t-18.5 -40t-13.5 -30.5t-15 -16t-20 -2t-18 8.5t-9 15.5zM179 527q8 14 28 18.5t41 -7.5l-50 -98q-5 -10 -15 -14.5t-20.5 -5.5t-19.5 1
t-13 6z" />
    <glyph glyph-name="Wdieresis" unicode="&#x1e84;" horiz-adv-x="474" 
d="M79 23q-2 24 -7 65.5t-12 94t-15 111t-15.5 115.5t-13 108t-7.5 88q33 -2 43.5 -21.5t17.5 -51.5q1 -6 5.5 -37t11 -74.5t13 -93.5t12.5 -94t10 -75t4 -37q7 12 18.5 39.5t24.5 55.5t25 50t21 24q12 3 23 -14.5t23 -47t25.5 -67t29.5 -74.5q8 39 17.5 85.5t18.5 94.5
t17.5 94t16 84.5t13 66t9.5 38.5q11 32 24.5 42t33.5 10q-9 -60 -20 -122.5t-22 -122t-22 -113.5t-20 -97.5t-15 -74t-7 -41.5q-2 -14 -10 -22t-18.5 -10t-20.5 1.5t-16 12.5q-8 12 -17.5 38t-19.5 55t-20 55t-18 40q-9 -20 -20.5 -46.5l-23 -53t-21 -49.5t-14.5 -35
t-15 -16t-20 -2t-18 8.5t-9 15.5zM134 642q0 18 12.5 25.5t27.5 7t27.5 -8.5t12.5 -21q0 -20 -12.5 -27.5t-27.5 -6t-27.5 10t-12.5 20.5zM260 642q0 18 12.5 25.5t27.5 7t27.5 -8.5t12.5 -21q0 -20 -12.5 -27.5t-27.5 -6t-27.5 10t-12.5 20.5z" />
    <glyph glyph-name="wdieresis" unicode="&#x1e85;" horiz-adv-x="379" 
d="M43 23q-5 71 -13.5 166.5t-15.5 207.5q33 -2 43.5 -21.5t17.5 -51.5q2 -9 4.5 -38t4.5 -63t4 -63.5t2 -38.5q7 12 17.5 35t22 46t22.5 41t20 20q12 3 22.5 -10.5t23 -38t27.5 -58t35 -69.5q6 103 14 164.5t18.5 93.5t24.5 42t33 10q-12 -81 -20 -142t-13 -105t-8 -73
t-5 -46q-2 -14 -10 -22t-18.5 -10t-20.5 1.5t-16 12.5q-8 12 -18.5 34t-22 45.5t-22.5 45.5t-19 36q-9 -20 -19.5 -42.5t-20.5 -44t-18.5 -40t-13.5 -30.5t-15 -16t-20 -2t-18 8.5t-9 15.5zM86 442q0 18 12.5 25.5t27.5 7t27.5 -8.5t12.5 -21q0 -20 -12.5 -27.5t-27.5 -6
t-27.5 10t-12.5 20.5zM212 442q0 18 12.5 25.5t27.5 7t27.5 -8.5t12.5 -21q0 -20 -12.5 -27.5t-27.5 -6t-27.5 10t-12.5 20.5z" />
    <glyph glyph-name="Ygrave" unicode="&#x1ef2;" horiz-adv-x="418" 
d="M215 46q-1 91 -2.5 140.5t-3 72t-2.5 26.5t-1 5l-197 296q19 12 41 11t35 -18l154 -216l98 204q4 12 13.5 19.5t20.5 11t21 3t15 -4.5q-3 -15 -12.5 -39.5t-23 -55t-29 -63t-29.5 -62t-25 -54t-16 -37.5q0 -3 0.5 -10.5t0.5 -35t0.5 -83t2.5 -154.5q-8 -5 -18 -3.5
t-19.5 7.5t-16 16.5t-7.5 23.5zM304 624q-4 -4 -11.5 -6.5t-16.5 -3t-17.5 2t-12.5 9.5l-57 111q22 13 41.5 6.5t33.5 -31.5z" />
    <glyph glyph-name="ygrave" unicode="&#x1ef3;" horiz-adv-x="370" 
d="M-444 -633q3 83 38 148.5t92 116.5t130.5 89t153 65t160 44t151.5 28l2 241q-8 -19 -22 -34t-30.5 -25.5t-33.5 -16t-30 -5.5q-43 0 -74.5 18t-49.5 61.5t-23 116.5t4 184q6 9 16.5 7t20.5 -10t16.5 -20t4.5 -23q1 -24 1 -55t1.5 -62.5t6 -61t13 -52t23 -35t37.5 -9.5
q43 6 66.5 35t35.5 69t16.5 85t7.5 82q1 12 8.5 23.5t17 19t19 9.5t15.5 -5l-7 -530q76 8 141.5 17.5t118.5 15.5q1 -17 -8.5 -29t-25 -20.5t-34.5 -13t-35 -6.5q-35 -5 -76 -11.5t-79 -13.5q-4 -80 -11 -166t-22 -170t-41 -161t-67 -137.5t-100 -100.5t-140 -50
q-80 -10 -154.5 13.5t-131.5 71.5t-91 116t-31 147zM-372 -640q0 -66 27 -121.5t72 -93t104 -54.5t124 -7q69 10 119 47t85 92.5t57.5 125t36 145.5t20 153t9.5 148q-56 -7 -126 -21t-143 -37t-142.5 -56t-123.5 -79t-87 -106t-32 -136zM242 429q-4 -4 -11.5 -6.5t-16.5 -3
t-17.5 2t-12.5 9.5l-57 111q22 13 41.5 6.5t33.5 -31.5z" />
    <glyph glyph-name="endash" unicode="&#x2013;" horiz-adv-x="329" 
d="M311 343q3 -31 -27 -47q-8 -4 -22.5 -6.5t-48.5 -1.5h-187q-5 8 -3.5 17.5t8 18.5t17 15t23.5 6z" />
    <glyph glyph-name="emdash" unicode="&#x2014;" horiz-adv-x="528" 
d="M517 343q3 -31 -27 -47q-8 -4 -22.5 -6.5t-48.5 -1.5h-393q-5 8 -3.5 17.5t8 18.5t17 15t23.5 6z" />
    <glyph glyph-name="quoteleft" unicode="&#x2018;" horiz-adv-x="140" 
d="M85 405q-5 -23 3.5 -34.5t17.5 -21.5t12.5 -23.5t-10.5 -41.5q-25 5 -41 20t-24.5 34.5t-10.5 40t2 36.5q10 42 34.5 57t53.5 -1q-5 -6 -9.5 -10.5t-9 -11.5t-9 -17t-9.5 -27z" />
    <glyph glyph-name="quoteright" unicode="&#x2019;" horiz-adv-x="140" 
d="M68 358q5 23 -3.5 34.5t-17.5 21.5t-12.5 23.5t10.5 41.5q25 -5 41 -20t24.5 -34.5t10.5 -40t-2 -36.5q-10 -42 -34.5 -57t-53.5 1q5 6 9.5 10.5t9 11.5t9 17t9.5 27z" />
    <glyph glyph-name="quotesinglbase" unicode="&#x201a;" horiz-adv-x="140" 
d="M66 30q5 23 -3.5 34.5t-17.5 21.5t-12.5 23.5t10.5 41.5q25 -5 41 -20t24.5 -34.5t10.5 -40t-2 -36.5q-10 -42 -34.5 -57t-53.5 1q5 6 9.5 10.5t9 11.5t9 17t9.5 27z" />
    <glyph glyph-name="quotedblleft" unicode="&#x201c;" horiz-adv-x="227" 
d="M171 401q-5 -23 3.5 -34.5t17.5 -21.5t12.5 -23.5t-10.5 -41.5q-25 5 -41 20t-24.5 34.5t-10.5 40t2 36.5q10 42 34.5 57t53.5 -1q-5 -6 -9.5 -10.5t-9 -11.5t-9 -17t-9.5 -27zM68 392q-5 -23 3.5 -34.5t17.5 -21.5t12.5 -23.5t-10.5 -41.5q-25 5 -41 20t-24.5 34.5
t-10.5 40t2 36.5q10 42 34.5 57t53.5 -1q-5 -6 -9.5 -10.5t-9 -11.5t-9 -17t-9.5 -27z" />
    <glyph glyph-name="quotedblright" unicode="&#x201d;" horiz-adv-x="242" 
d="M68 358q5 23 -3.5 34.5t-17.5 21.5t-12.5 23.5t10.5 41.5q25 -5 41 -20t24.5 -34.5t10.5 -40t-2 -36.5q-10 -42 -34.5 -57t-53.5 1q5 6 9.5 10.5t9 11.5t9 17t9.5 27zM171 367q5 23 -3.5 34.5t-17.5 21.5t-12.5 23.5t10.5 41.5q25 -5 41 -20t24.5 -34.5t10.5 -40
t-2 -36.5q-10 -42 -34.5 -57t-53.5 1q5 6 9.5 10.5t9 11.5t9 17t9.5 27z" />
    <glyph glyph-name="quotedblbase" unicode="&#x201e;" horiz-adv-x="242" 
d="M56 31q5 23 -3.5 34.5t-17.5 21.5t-12.5 23.5t10.5 41.5q25 -5 41 -20t24.5 -34.5t10.5 -40t-2 -36.5q-10 -42 -34.5 -57t-53.5 1q5 6 9.5 10.5t9 11.5t9 17t9.5 27zM159 40q5 23 -3.5 34.5t-17.5 21.5t-12.5 23.5t10.5 41.5q25 -5 41 -20t24.5 -34.5t10.5 -40t-2 -36.5
q-10 -42 -34.5 -57t-53.5 1q5 6 9.5 10.5t9 11.5t9 17t9.5 27z" />
    <glyph glyph-name="bullet" unicode="&#x2022;" horiz-adv-x="227" 
d="M30 345q0 39 26.5 55t58.5 14.5t58.5 -18.5t26.5 -44q0 -28 -12.5 -44t-31.5 -22.5t-41 -4.5t-41 10.5t-31.5 22t-12.5 31.5z" />
    <glyph glyph-name="ellipsis" unicode="&#x2026;" horiz-adv-x="378" 
d="M30 37q0 18 12.5 25.5t27.5 7t27.5 -8.5t12.5 -21q0 -20 -12.5 -27.5t-27.5 -6t-27.5 10t-12.5 20.5zM156 37q0 18 12.5 25.5t27.5 7t27.5 -8.5t12.5 -21q0 -20 -12.5 -27.5t-27.5 -6t-27.5 10t-12.5 20.5zM282 37q0 18 12.5 25.5t27.5 7t27.5 -8.5t12.5 -21
q0 -20 -12.5 -27.5t-27.5 -6t-27.5 10t-12.5 20.5z" />
    <glyph glyph-name="fraction" unicode="&#x2044;" horiz-adv-x="259" 
d="M213 606q15 -3 25.5 -14t12.5 -27q2 -10 -1 -24.5t-14 -46.5l-184 -499q-9 -2 -18 2.5t-15.5 13t-9 20.5t0.5 25z" />
    <glyph glyph-name="Euro" unicode="&#x20ac;" horiz-adv-x="396" 
d="M72 375q10 37 26.5 68.5t36.5 57t41.5 44.5t42.5 30q28 15 54.5 20.5t47.5 2t34.5 -15.5t13.5 -31q-42 0 -78.5 -12.5t-66 -35.5t-51.5 -56t-34 -73l216 -2q3 -31 -27 -47q-8 -4 -22.5 -6.5t-48.5 -1.5h-130q-1 -7 -1.5 -14t-0.5 -15v-14l224 -2q3 -31 -27 -47
q-8 -4 -22.5 -6.5t-48.5 -1.5h-123q6 -47 24 -82t49.5 -56t78 -27t109.5 6q-4 -27 -32.5 -41.5t-76.5 -16.5q-49 -2 -87 14t-65 45.5t-43 70.5t-22 88h-55q-5 8 -3.5 17.5t8 18.5t17 15t23.5 6h6v10t1 10v11.5t1 11.5h-47q-5 8 -3.5 17.5t8 18.5t17 15t23.5 6h13z" />
    <glyph glyph-name="minus" unicode="&#x2212;" horiz-adv-x="395" 
d="M367 342q3 -31 -27 -47q-8 -4 -22.5 -6.5t-48.5 -1.5l-243 1q-5 8 -3.5 17.5t8 18.5t17 15t23.5 6z" />
    <glyph glyph-name="commaaccent" horiz-adv-x="256" 
d="M128 173q5 23 -3.5 34.5t-17.5 21.5t-12.5 23.5t10.5 41.5q25 -5 41 -20t24.5 -34.5t10.5 -40t-2 -36.5q-10 -42 -34.5 -57t-53.5 1q5 6 9.5 10.5t9 11.5t9 17t9.5 27z" />
    </font>
</defs>
</svg>
