<?xml version="1.0" standalone="no"?>
<!DOCTYPE svg PUBLIC "-//W3C//DTD SVG 1.1//EN" "http://www.w3.org/Graphics/SVG/1.1/DTD/svg11.dtd" >
<svg>
<metadata>
Created by FontForge 20090914 at Mon Oct 22 07:36:02 2018
 By www-data
Copyright (c) Dennis Ludlow, 2001. All rights reserved.
</metadata>
<defs>
<font id="DarkCrystalOutline" horiz-adv-x="556" >
  <font-face 
    font-family="Dark Crystal Outline"
    font-weight="400"
    font-stretch="normal"
    units-per-em="1000"
    panose-1="2 0 0 0 0 0 0 0 0 0"
    ascent="800"
    descent="-200"
    x-height="498.999"
    cap-height="741"
    bbox="-130.999 -248.997 2952 882.999"
    underline-thickness="73"
    underline-position="-70"
    unicode-range="U+0020-U+F005"
  />
<missing-glyph horiz-adv-x="621" 
d="M203 103h301v419h-301v-419zM103 0v625h500v-625h-500zM160 567h387v-509h-387v509zM560 45v535h-413v-535h413z" />
    <glyph glyph-name=".notdef" horiz-adv-x="621" 
d="M203 103h301v419h-301v-419zM103 0v625h500v-625h-500zM160 567h387v-509h-387v509zM560 45v535h-413v-535h413z" />
    <glyph glyph-name="space" unicode=" " horiz-adv-x="166" 
d="M1 1h-1v-1h1v1z" />
    <glyph glyph-name="space" unicode="&#xa0;" horiz-adv-x="166" 
d="M1 1h-1v-1h1v1z" />
    <glyph glyph-name="exclam" unicode="!" horiz-adv-x="208" 
d="M175 278l0.000976562 2c1.33301 26 3 53.5 5 82.5s4.33301 56.167 7 81.5c0.666992 10.667 1.5 23.334 2.5 38.001s2.83301 32.667 5.5 54c1.33301 21.333 2.66602 38.666 3.99902 51.999s2 22.666 2 27.999v43c-38 0 -73.667 -10.333 -107 -31
c-19.333 -10 -34.166 -19.833 -44.499 -29.5s-16.166 -17.167 -17.499 -22.5c0 -2 0.166992 -7.33301 0.5 -16s0.833008 -19 1.5 -31c0.666992 -8.66699 1.16699 -18.167 1.5 -28.5s0.833008 -20.833 1.5 -31.5c1.33301 -12.667 2.5 -25.334 3.5 -38.001
s2.16699 -23.334 3.5 -32.001v-7c0.666992 -6.66699 1.16699 -14.5 1.5 -23.5s0.5 -19.5 0.5 -31.5c1.33301 -14.667 2.33301 -28.334 3 -41.001s1 -24.667 1 -36c0.666992 -15.333 1.66699 -28.666 3 -39.999s2.66602 -20.666 3.99902 -27.999l-24 -19l2 1
c-8 -6 -16.333 -12.833 -25 -20.5s-15.334 -19.5 -20.001 -35.5c3.33301 -9.33301 7.5 -17.166 12.5 -23.499s10.5 -12.5 16.5 -18.5l42 -38c13.333 -12 26.333 -18 39 -18c10.667 0 23.667 4.33301 39 13l47 39l-2 -3c22 16 33 31.333 33 46c0 10 -1.5 17 -4.5 21
s-8.16699 9 -15.5 15l-3 3c-0.666992 0.666992 -1.66699 1.33398 -3 2.00098l-41 38l2 -2l-10 9c1.33301 2.66699 3 5.5 5 8.5s3.66699 6.83301 5 11.5h-1c16 30.667 24 49.667 24 57zM123.001 169l39 -38c6 -5.33301 10 -8.66602 12 -9.99902s3 -3.33301 3 -6
c0 -4.66699 -5.33301 -10.334 -16 -17.001l-46 -36c-6 -4 -11 -6 -15 -6c-2.66699 0 -6.33398 2.33301 -11.001 7l-43 38c-4.66699 4 -8 7.66699 -10 11s-4 6 -6 8c2 4.66699 5.83301 9.16699 11.5 13.5s11.5 8.5 17.5 12.5l30 25c6.66699 6 12.334 9 17.001 9
c5.33301 0 11 -3.66699 17 -11zM136.001 282c0 -5.33301 -6.33398 -20.999 -19.001 -46.999c-12.667 -24.667 -19.667 -37 -21 -37s-2.5 4.83301 -3.5 14.5s-2.16699 26.167 -3.5 49.5c-0.666992 11.333 -1.16699 23.333 -1.5 36s-1.16602 26.667 -2.49902 42
c0 13.333 -0.5 25.333 -1.5 36s-1.5 19 -1.5 25c-1.33301 5.33301 -2.5 13 -3.5 23s-1.83301 21.167 -2.5 33.5l-2 38c-0.666992 13 -1.33398 24.833 -2.00098 35.5l-1.5 27.5c-0.333008 6.33301 -0.5 10.5 -0.5 12.5c0.666992 1.33301 4.33398 4.16602 11.001 8.49902
s17.667 10.833 33 19.5c26.667 16 42.667 24 48 24v-7c0 -8.66699 -2 -34 -6 -76c-2.66699 -21.333 -4.5 -39.833 -5.5 -55.5s-1.5 -28.167 -1.5 -37.5c-3.33301 -26 -5.83301 -53.5 -7.5 -82.5s-3.5 -56.5 -5.5 -82.5z" />
    <glyph glyph-name="quotedbl" unicode="&#x22;" horiz-adv-x="355" 
 />
    <glyph glyph-name="numbersign" unicode="#" 
 />
    <glyph glyph-name="dollar" unicode="$" 
 />
    <glyph glyph-name="percent" unicode="%" horiz-adv-x="308" 
 />
    <glyph glyph-name="ampersand" unicode="&#x26;" horiz-adv-x="749" 
d="M331 564c-3.33301 -2.66699 -5.66699 -4.00195 -7 -4.00195c1.33301 0.666992 2.5 1.33398 3.5 2.00098s2.16699 1.33398 3.5 2.00098zM297.999 536.998c-0.666992 0 -1 0.331055 -1 0.998047c6.66699 8.66699 14.667 15.334 24 20.001
c2.66699 -1.33301 6.5 -5.5 11.5 -12.5l20.5 -27.5l28 -40l-39 23c-10.667 6 -19.667 11.833 -27 17.5s-13 11.834 -17 18.501zM290.999 178.996l-24.998 11.999c-26 4 -45.667 16 -59 36s-20 41.333 -20 64c0 16.667 2.33301 26.334 7 29.001s11 4 19 4
c22 0 46.333 -8 73 -24s53 -35.333 79 -58c-17.333 -14 -34.833 -25.833 -52.5 -35.5s-32.5 -14.834 -44.5 -15.501c3.33301 0 6.66602 -0.666992 9.99902 -2s7.66602 -4.66602 12.999 -9.99902zM-13.999 252.995c0.666992 -33.333 8.33691 -64.8291 23.0039 -94.4961
s33.5 -55.5 56.5 -77.5s48.5 -39.333 76.5 -52s56 -19 84 -19c48 0 96.5 13 145.5 39s99.833 61 152.5 105c17.333 -20 35.166 -42 53.499 -66s37.166 -50 56.499 -78l153 62c-2 2.66699 -5.5 7.66699 -10.5 15l-16 23.5l-16 23.5c-5 7.33301 -8.5 12 -10.5 14l-13 17.5
c-3.33301 4.33301 -7 9.5 -11 15.5c-4.66699 5.33301 -9.83398 12 -15.501 20s-11.167 14.667 -16.5 20l1 -1c-7.33301 8 -14.333 16.333 -21 25l-21 26c28 34.667 57.833 75 89.5 121s66.5 101.333 104.5 166l-224 -69c-19.333 -48.667 -40 -90.667 -62 -126l-20 17.5
l-19 16.5l1 -1c-11.333 9.33301 -23 18.166 -35 26.499s-24.333 15.833 -37 22.5h2l-43 26l173 59l-8 8l-17.5 17.5l-18.5 18l-11 10.5c-4 6 -9 13 -15 21s-12.667 16 -20 24s-15 15.667 -23 23s-16 13.333 -24 18l1 -1c-32 18 -62.667 27 -92 27
c-24 0 -48.667 -6.33301 -74 -19l-78 -36c-40 -23.333 -62 -60 -66 -110c0 -12 1.16699 -23.5 3.5 -34.5s6.16602 -22.167 11.499 -33.5c-19.333 -9.33301 -38 -20.833 -56 -34.5s-34 -29.334 -48 -47.001s-25.167 -37.334 -33.5 -59.001s-12.5 -44.834 -12.5 -69.501z
M259.004 146.999c0 -0.666992 2.33496 -0.999023 7.00195 -0.999023c10.667 0 23.167 2.5 37.5 7.5s29 12 44 21s29.833 19.333 44.5 31s28 24.167 40 37.5l-26 24c-30.667 28 -62.834 52 -96.501 72s-65.834 30 -96.501 30c-18 0 -33 -4 -45 -12
c-8 -5.33301 -14.5 -14 -19.5 -26s-7.5 -25.333 -7.5 -40c0 -16 2.5 -31.833 7.5 -47.5s12.5 -30.334 22.5 -44.001s22.333 -25.167 37 -34.5s31.667 -15.333 51 -18zM167.006 428l40 16.999c-4 3.33301 -8.16699 7.5 -12.5 12.5s-8.83301 11.833 -13.5 20.5
c-9.33301 16.667 -14 33.667 -14 51c2 34 15.667 58 41 72l76 36c18 8.66699 36.333 13 55 13c20.667 0 43.667 -6.66699 69 -20c8 -4 16 -10.167 24 -18.5s15.333 -16.666 22 -24.999s12.5 -16.166 17.5 -23.499s8.5 -12 10.5 -14l-76 -26l-15 21c-34 48 -61 68 -81 60
c-18.667 -8 -35 -21.333 -49 -40c-13.333 -17.333 -13.666 -35 -0.999023 -53c12.667 -17.333 32.334 -33.666 59.001 -48.999l94 -56c11.333 -6.66699 22.333 -13.5 33 -20.5s21 -14.833 31 -23.5c10.667 -8.66699 22 -18.667 34 -30l40 -38
c35.333 42.667 65.666 95.334 90.999 158.001l90 28c-21.333 -36 -44.833 -71 -70.5 -105s-53.834 -69 -84.501 -105c13.333 -14.667 28.333 -32.334 45 -53.001l48 -59l22.5 -31l25.5 -34l-67 -28c-38 54.667 -79 105 -123 151l-27 -22
c-50 -42 -97.833 -75.667 -143.5 -101s-89.5 -38 -131.5 -38c-22.667 0 -45.334 5.16699 -68.001 15.5s-43.167 24.5 -61.5 42.5s-33.5 39.167 -45.5 63.5s-18.333 50.166 -19 77.499c0 20.667 3.83301 40 11.5 58s17.834 34.333 30.501 49s27 27.667 43 39
s32.667 20.666 50 27.999z" />
    <glyph glyph-name="quotesingle" unicode="'" horiz-adv-x="191" 
 />
    <glyph glyph-name="parenleft" unicode="(" horiz-adv-x="330" 
 />
    <glyph glyph-name="parenright" unicode=")" horiz-adv-x="333" 
 />
    <glyph glyph-name="asterisk" unicode="*" horiz-adv-x="389" 
 />
    <glyph glyph-name="plus" unicode="+" horiz-adv-x="584" 
 />
    <glyph glyph-name="comma" unicode="," horiz-adv-x="199" 
d="M19 140l13.999 -17.999c1.33301 -1.33301 3.66602 -4 6.99902 -8s7.33301 -10 12 -18c6.66699 -10.667 10.334 -25 11.001 -43v-3v3c-0.666992 -6 -3.66699 -17.667 -9 -35c-4.66699 -10.667 -7.5 -17.334 -8.5 -20.001s-2.5 -7 -4.5 -13l6 13
c0 -2 -0.333008 -3.33301 -1 -4c-3.33301 -6 -7 -14.167 -11 -24.5s-6.66699 -20.5 -8 -30.5c2.66699 -10.667 4.83398 -19 6.50098 -25s3.66699 -10.333 6 -13s5.16602 -4.33398 8.49902 -5.00098s8 -1 14 -1c15.333 0 31 10.667 47 32c58 82 87 148.333 87 199
c0 60 -24.667 110 -74 150h-13c-4 0 -17.333 -5 -40 -15c-24 -10 -41.667 -24.333 -53 -43s-14 -35.667 -8 -51c3.33301 -8 5.83301 -14.167 7.5 -18.5s2.83398 -7.16602 3.50098 -8.49902zM54.999 154.001c0 0.666992 -0.333984 2.83008 -1.00098 6.49707
s-1 7.83398 -1 12.501s0.666992 9.83398 2 15.501s4 10.834 8 15.501c8.66699 10 18.334 15.667 29.001 17s16.667 1.66602 18 0.999023h1c31.333 -25.333 47 -58.333 47 -99c0 -38 -24 -90.333 -72 -157c-9.33301 -11.333 -16 -17 -20 -17l-1 3
c0.666992 2.66699 2.16699 6.66699 4.5 12s4.16602 9 5.49902 11l12 30c4 10.667 6.83301 19.834 8.5 27.501s2.83398 14.167 3.50098 19.5c0 28 -5.66699 50.667 -17 68c-10.667 18 -19.667 29.333 -27 34z" />
    <glyph glyph-name="hyphen" unicode="-" horiz-adv-x="508" 
d="M12 267l49 130l202 -9h15c5.33301 0 8.66602 -0.333008 9.99902 -1c3.33301 -0.666992 6.33301 -1 9 -1h10h15c1.33301 -0.666992 4 -1 8 -1h9h24h37h23h9c2.66699 0 5.33398 0.333008 8.00098 1l58 3l-23 -127l-223 5c-4.66699 0 -8.66699 0.166992 -12 0.5
s-7.33301 0.5 -12 0.5h-23h-37h-29h-46c-3.33301 0 -6.33301 -0.166992 -9 -0.5s-4.66699 -0.5 -6 -0.5h-66zM111 363l-23.999 -67h46h16h20h12c4 0 8.33301 0.333008 13 1h32h18h9c2.66699 0 5.66699 -0.333008 9 -1h50l103 -2l9 65l-38 -2
c-3.33301 0 -8.83301 -0.166992 -16.5 -0.5s-16.834 -0.5 -27.501 -0.5h-37c-4 0.666992 -8 1 -12 1h-12h-22c-6 0 -13.667 0.166992 -23 0.5s-21 0.833008 -35 1.5z" />
    <glyph glyph-name="hyphen" unicode="&#xad;" horiz-adv-x="508" 
d="M12 267l49 130l202 -9h15c5.33301 0 8.66602 -0.333008 9.99902 -1c3.33301 -0.666992 6.33301 -1 9 -1h10h15c1.33301 -0.666992 4 -1 8 -1h9h24h37h23h9c2.66699 0 5.33398 0.333008 8.00098 1l58 3l-23 -127l-223 5c-4.66699 0 -8.66699 0.166992 -12 0.5
s-7.33301 0.5 -12 0.5h-23h-37h-29h-46c-3.33301 0 -6.33301 -0.166992 -9 -0.5s-4.66699 -0.5 -6 -0.5h-66zM111 363l-23.999 -67h46h16h20h12c4 0 8.33301 0.333008 13 1h32h18h9c2.66699 0 5.66699 -0.333008 9 -1h50l103 -2l9 65l-38 -2
c-3.33301 0 -8.83301 -0.166992 -16.5 -0.5s-16.834 -0.5 -27.501 -0.5h-37c-4 0.666992 -8 1 -12 1h-12h-22c-6 0 -13.667 0.166992 -23 0.5s-21 0.833008 -35 1.5z" />
    <glyph glyph-name="period" unicode="." horiz-adv-x="193" 
d="M183 167l-38.002 40.999v-1c-16.667 16.667 -32 25 -46 25c-12.667 0 -27 -7 -43 -21l-30 -26l1 3l-27.5 -24.5c-9 -8.33301 -14.167 -19.833 -15.5 -34.5c1.33301 -6.66699 4.5 -14.167 9.5 -22.5s11.5 -16.5 19.5 -24.5l52 -50h2c2 -3.33301 4.33301 -5.5 7 -6.5
s9 -1.5 19 -1.5c10.667 0 23.334 4.33301 38.001 13l48 41l-3 -2c22 14.667 33 30.667 33 48c0 10.667 -1.5 17.834 -4.5 21.501l-14.5 17.5c-3.33301 0.666992 -5.66602 2 -6.99902 4zM117.998 173.999l33.999 -36c6 -5.33301 9.83301 -8.66602 11.5 -9.99902
s2.5 -3 2.5 -5c0 -4 -5 -9.33301 -15 -16l-41 -34c-5.33301 -4 -9.66602 -6 -12.999 -6c-2 0 -5.33301 2.33301 -10 7l-37 36c-9.33301 9.33301 -14 15.333 -14 18c0 3.33301 2.66699 7.16602 8 11.499l16 12.5l27 23c6.66699 6 12 9 16 9
c3.33301 0 8.33301 -3.33301 15 -10z" />
    <glyph glyph-name="slash" unicode="/" horiz-adv-x="278" 
 />
    <glyph glyph-name="zero" unicode="0" horiz-adv-x="460" 
d="M294 106c0 0.666992 0.668945 0.999023 2.00195 0.999023s2 0.333008 2 1c30.667 16 53 34 67 54c15.333 20.667 27 48.334 35 83.001c4 18.667 6 39.667 6 63c0 24 -2.33301 46.667 -7 68c-3.33301 14.667 -6.5 27.334 -9.5 38.001s-7.5 20.667 -13.5 30
c-4.66699 6.66699 -10.334 13.167 -17.001 19.5s-15.667 12.166 -27 17.499c-29.333 16 -68.333 24 -117 24c-13.333 0 -25.333 -1 -36 -3c-7.33301 -10 -17 -18.667 -29 -26c-4 -4 -14.667 -10.333 -32 -19c-21.333 -13.333 -35.333 -29.333 -42 -48
c-4 -15.333 -8 -36.333 -12 -63c-0.666992 -2 -1 -5.33301 -1 -10v-10v-23c0 -104.667 38.667 -172.667 116 -204h-1c11.333 -5.33301 21.5 -8.66602 30.5 -9.99902s17.833 -2 26.5 -2c9.33301 0 16.666 1.66699 21.999 5c4 1.33301 9 3.16602 15 5.49902zM309.002 283.999
c0 -14.667 -1.16992 -27.6689 -3.50293 -39.002s-5.83301 -22.333 -10.5 -33c-9.33301 -21.333 -21.666 -32 -36.999 -32c-26.667 0 -50 16.333 -70 49c-12 18.667 -18 51.334 -18 98.001c0 32 3 53.667 9 65l-1 -1c4.66699 10 19.334 15 44.001 15c36 0 60 -9 72 -27v1
c4.66699 -9.33301 8.33398 -21.666 11.001 -36.999s4 -35 4 -59zM323.999 72.9971c-7.33301 -6 -13.999 -8.99707 -19.999 -8.99707c-17.333 -8 -29 -12.667 -35 -14c-10 -4 -21.333 -6 -34 -6c-8.66699 0 -17.5 0.5 -26.5 1.5s-18.833 3.16699 -29.5 6.5
c-105.333 43.333 -158 127 -158 251v23v11c0 3.33301 0.666992 8.33301 2 15c2 17.333 4.33301 31.833 7 43.5s5 21.167 7 28.5c8.66699 27.333 28.667 50.666 60 69.999c8 4 14.833 7.83301 20.5 11.5l11.5 7.5c4.66699 2.66699 9.16699 6.33398 13.5 11.001l14.5 16
c12 3.33301 22.667 5.5 32 6.5s18 1.5 26 1.5c55.333 0 100.666 -9.66699 135.999 -29c14.667 -7.33301 26.5 -15.333 35.5 -24s16.833 -17.667 23.5 -27c8 -12.667 14.167 -25.5 18.5 -38.5s8.16602 -28.167 11.499 -45.5v1c2.66699 -13.333 4.66699 -26.333 6 -39
s2 -25.334 2 -38.001c0 -14.667 -0.666992 -27.834 -2 -39.501s-3 -22.834 -5 -33.501c-4.66699 -19.333 -10.667 -37.333 -18 -54s-15.666 -31.667 -24.999 -45c-18 -24.667 -42.667 -45.667 -74 -63zM267 284c0 20.667 -1 37.668 -3 51.001
c-18.667 18.667 -32.667 28 -42 28c-4 0 -6.33301 0.333008 -7 1c-2 -10 -3 -22.333 -3 -37c0 -38 4 -63 12 -75c10.667 -18 21.667 -27.667 33 -29c-2 0 -2 2 0 6c6.66699 15.333 10 33.666 10 54.999zM323 75.001l-13 -9.00098c-0.666992 -0.666992 -1.66699 -1 -3 -1
s-2.33301 -0.333008 -3 -1c6 0.666992 12.333 4.33398 19 11.001z" />
    <glyph glyph-name="one" unicode="1" horiz-adv-x="249" 
d="M192 454l-0.000976562 -1.99902l5 45l-109 -17c-2.66699 0 -4.83398 0.166992 -6.50098 0.5s-3.16699 0.5 -4.5 0.5h-19l-26 -64c14.667 5.33301 24.334 8.33301 29.001 9s8.33398 1 11.001 1c17.333 0 26 -4.66699 26 -14v-12v-7c0 -2.66699 0.333008 -5 1 -7
c0 -3.33301 0.166992 -6.5 0.5 -9.5s0.5 -6.16699 0.5 -9.5c0.666992 -3.33301 1 -7.66602 1 -12.999v-12v-17c0 -130 -12.333 -217.333 -37 -262h30c22 0 40 7 54 21c10 10.667 24.333 16 43 16h38c-13.333 13.333 -23 24.666 -29 33.999s-9 16.666 -9 21.999
c0 7.33301 -0.166992 17 -0.5 29s-0.833008 25.667 -1.5 41c-0.666992 8 -1.16699 15.333 -1.5 22s-0.5 12.667 -0.5 18v28v22c0 5.33301 0.166992 10.5 0.5 15.5s0.833008 10.5 1.5 16.5c0 3.33301 0.166992 6.33301 0.5 9s0.5 5.66699 0.5 9v20v15zM241.999 547.001
l-13.002 -96.999l-1 -49v-14v-13c0 -6 -0.333008 -10 -1 -12v1c-0.666992 -0.666992 -1 -2.66699 -1 -6v-8v-11c-0.666992 -3.33301 -1 -7.33301 -1 -12v-9v-50c0 -4.66699 0.166992 -9.5 0.5 -14.5s0.5 -10.5 0.5 -16.5v-6c2 -32 3 -56.333 3 -73c0 1.33301 32 -32 96 -100
h-134c-9.33301 0 -15.666 -1.66699 -18.999 -5h1c-20.667 -20.667 -47 -31 -79 -31h-98c21.333 40 38 85.167 50 135.5s18 106.833 18 169.5v17c0 1.33301 -0.166992 3.66602 -0.5 6.99902s-0.833008 7.33301 -1.5 12v6c0 1.33301 -0.166992 2.83301 -0.5 4.5
s-0.5 3.16699 -0.5 4.5v4c-5.33301 -2 -15.333 -5.33301 -30 -10l-69 -23l72 176h48h1c0.666992 0 1.33398 -0.333008 2.00098 -1z" />
    <glyph glyph-name="two" unicode="2" horiz-adv-x="427" 
d="M391 205l-22.9961 18.998l-4 -5v1c-25.333 -25.333 -59.333 -38 -102 -38c-22 0 -42 2.33301 -60 7c17.333 11.333 31.666 21.333 42.999 30l27 21c42.667 36 64 73 64 111v5v4c0 2.66699 0.333008 4.33398 1 5.00098c0.666992 2.66699 1 6.33398 1 11.001v10
c0 47.333 -13.333 82 -40 104c-15.333 11.333 -31.333 19.666 -48 24.999s-33.667 8 -51 8c-34.667 0 -79 -11.333 -133 -34c15.333 -61.333 23 -98 23 -110l25 -15c17.333 29.333 47.666 47.333 90.999 54c3.33301 0 6 0.166992 8 0.5s3.66699 0.5 5 0.5
c26.667 0 40 -22 40 -66c0 -34.667 -20.333 -67 -61 -97c-24 -20.667 -63 -42 -117 -64c-3.33301 -11.333 -6.83301 -22.5 -10.5 -33.5s-6.5 -20.5 -8.5 -28.5c0 -1.33301 -0.833008 -4.83301 -2.5 -10.5s-3.66699 -11.667 -6 -18s-4.33301 -12.166 -6 -17.499
s-2.5 -8.33301 -2.5 -9c31.333 20.667 74.666 31 129.999 31c6 0 18 -1 36 -3s44 -4.66699 78 -8c5.33301 0 12.5 -0.333008 21.5 -1s16.5 -1.33398 22.5 -2.00098l31 63c9.33301 18.667 18.666 35.334 27.999 50.001zM380.004 266.998l25.999 -18.999l40 -34
c-16.667 -26 -31.834 -52.333 -45.501 -79l-42.5 -86h-31c-7.33301 0 -12.333 0.333008 -15 1h1c-5.33301 0.666992 -10.666 1.16699 -15.999 1.5s-9.66602 0.5 -12.999 0.5l-77 7.5c-17.333 1.66699 -28.333 2.5 -33 2.5c-46.667 0 -119.334 -32.333 -218.001 -97
c2.66699 6.66699 7.33398 19.334 14.001 38.001l21 58l20 54.5c6 16.333 9.33301 25.166 10 26.499v-1c0.666992 4 2 9.5 4 16.5s4.33301 14.5 7 22.5l8 24c2.66699 8 5 14.667 7 20c30 13.333 55.5 25.5 76.5 36.5s37.167 21.167 48.5 30.5c29.333 21.333 44 42 44 62
c0 14.667 0.666992 22 2 22h-5c-1.33301 0 -2.5 -0.166992 -3.5 -0.5s-2.16699 -0.5 -3.5 -0.5c-28 -6 -53 -28.333 -75 -67l-84 46c0 13.333 -2.5 33.666 -7.5 60.999s-12.833 61 -23.5 101c83.333 34.667 144.333 52 183 52c21.333 0 42.5 -3.33301 63.5 -10
s41.167 -17.667 60.5 -33c38 -31.333 57 -77.333 57 -138c0 -4.66699 -0.166992 -9 -0.5 -13s-0.5 -7.66699 -0.5 -11c-0.666992 -2 -1 -4 -1 -6v-5c0 -22 -5 -44 -15 -66l2 -2c7.33301 6 12.333 0.666992 15 -16z" />
    <glyph glyph-name="three" unicode="3" horiz-adv-x="333" 
d="M286 230c0 52.667 -23.999 86.667 -71.999 102l16.5 14.5c5 4.33301 9.16699 8.83301 12.5 13.5c15.333 21.333 23 47 23 77c0 68.667 -44.333 103 -133 103c-43.333 0 -76.666 -13.667 -99.999 -41c0 -10 0.333008 -20.5 1 -31.5s1 -20.167 1 -27.5v-7
c0 -4 -0.5 -10.833 -1.5 -20.5s-2.5 -25.167 -4.5 -46.5l39.5 54l16.5 23c3.33301 2.66699 14.666 4 33.999 4s36.666 -3 51.999 -9c14 -5.33301 21 -14 21 -26c0 -20 -11.667 -37.667 -35 -53c-25.333 -13.333 -55.666 -20 -90.999 -20
c-5.33301 -22 -24.666 -61 -57.999 -117c23.333 12 42.166 20.667 56.499 26s26.833 8 37.5 8c28 0 49.333 -4.33301 64 -13c16.667 -10.667 25 -24 25 -40c0 -56 -54.333 -86.333 -163 -91l-3 -29c11.333 -4.66699 23 -11 35 -19s25 -18.667 39 -32l62.5 49.5
c20.333 15.667 37.166 28.167 50.499 37.5l12.5 9c3.66699 2.66699 7.16699 5.66699 10.5 9v-1c34 26 51 57.333 51 94zM326.001 230c0 -38.667 -24.001 -81.334 -72.001 -128.001l3 -2c-2.66699 -2 -5.16699 -4 -7.5 -6s-4.16602 -3.66699 -5.49902 -5l1 1l-9 -7
c-6.66699 -5.33301 -15.667 -12.166 -27 -20.499l-36.5 -27.5l-40 -30.5l-36.5 -28.5c-21.333 20 -41.5 36.333 -60.5 49s-37.167 22.667 -54.5 30l11 100c105.333 4 158 19.667 158 47l-4 2c-9.33301 5.33301 -24 8 -44 8c-6 0 -26 -7.66699 -60 -23
c-32.667 -15.333 -57.667 -24 -75 -26l8 88c30 41.333 39.667 71.333 29 90s-15 35.334 -13 50.001c1.33301 14.667 2.33301 25.167 3 31.5s1 9.83301 1 10.5v7c0 5.33301 -0.166992 10.666 -0.5 15.999s-0.833008 11.333 -1.5 18c0 4 -0.166992 11.167 -0.5 21.5
s-0.5 17.5 -0.5 21.5c38 44.667 85 67 141 67c115.333 0 173 -49 173 -147c0 -36 -8.33301 -67.333 -25 -94c30 -26 45 -63.667 45 -113zM112 410c-0.666992 -2 -6.33398 -10 -17.001 -24c9.33301 1.33301 17.5 3 24.5 5s13.167 4.33301 18.5 7l1 1h1l2 2
c-4 1.33301 -7.66699 2 -11 2h-12c-7.33301 0 -9.66602 2.33301 -6.99902 7z" />
    <glyph glyph-name="four" unicode="4" horiz-adv-x="495" 
d="M416 179l59 99.001l-57 3v-15c-2.66699 -1.33301 -8.66699 -2 -18 -2h-37c0 23.333 0.833008 57.5 2.5 102.5s4.83398 96.833 9.50098 155.5c-42.667 -9.33301 -72.667 -14 -90 -14c-6 0 -14.333 2 -25 6c-30.667 -62.667 -65 -118.834 -103 -168.501
s-80 -95.5 -126 -137.5l6 -48c24.667 12.667 63.667 19 117 19c14.667 0 30.667 -0.5 48 -1.5s35.666 -2.16699 54.999 -3.5v-40v-28v-17c0 -5.33301 -0.333008 -11.333 -1 -18l25 -7c10 16 39.333 29 88 39c-1.33301 14 -2.33301 26.833 -3 38.5s-1 23.5 -1 35.5z
M259 325.001l0.000976562 -22c0 -10 -0.166992 -19 -0.5 -27s-0.5 -14.667 -0.5 -20c-2 -0.666992 -6.33301 -1 -13 -1h-12h-18h-8c-4 0 -7 0.333008 -9 1c3.33301 4.66699 6.5 9.66699 9.5 15s7.16699 11 12.5 17c2 3.33301 3.83301 6.83301 5.5 10.5
s4.16699 7.16699 7.5 10.5c3.33301 7.33301 7.16602 14.333 11.499 21l13.5 21c0.666992 -3.33301 1 -8 1 -14v-12zM549.001 318.001l-107.001 -182l-32 -2c1.33301 -8 2.5 -17.333 3.5 -28s2.5 -23 4.5 -37c-63.333 -13.333 -102.333 -32 -117 -56l-89 25
c0 9.33301 0.333008 21.5 1 36.5s1 28.167 1 39.5v19c-11.333 0.666992 -22.166 1.16699 -32.499 1.5s-19.5 0.5 -27.5 0.5c-23.333 0 -47.333 -3.33301 -72 -10s-52 -17.667 -82 -33l-14 134c48 44 93 93.833 135 149.5s81 120.5 117 194.5l35.5 -14
c7 -2.66699 10.833 -4 11.5 -4c18.667 0 65 9 139 27c-5.33301 -56.667 -9 -106 -11 -148l-5 -106z" />
    <glyph glyph-name="five" unicode="5" horiz-adv-x="396" 
d="M216 500l-50.9961 -0.00292969c-6 0 -11.5 -3 -16.5 -9s-9.16699 -14 -12.5 -24c0 -2 -0.333008 -3.33301 -1 -4c-5.33301 -18.667 -9 -33 -11 -43v2c-0.666992 -3.33301 -1.5 -6.33301 -2.5 -9s-2.16699 -6 -3.5 -10c-1.33301 -6 -3 -12.333 -5 -19l-7 -23
c-3.33301 -12.667 -6.33301 -23 -9 -31s-5.66699 -13.667 -9 -17v-31c32 0 58.833 -2.16699 80.5 -6.5s38.834 -10.166 51.501 -17.499c23.333 -15.333 35 -29 35 -41c0 -9.33301 -1.66699 -16.666 -5 -21.999c-5.33301 -9.33301 -12 -17 -20 -23l-99 72
c-13.333 -5.33301 -27.333 -14.166 -42 -26.499s-25.667 -25.833 -33 -40.5l129 -99c8 0 24.333 8.33301 49 25h-1h1l1 1c15.333 10 28.833 20.333 40.5 31l34.5 32c12 13.333 21.167 26.333 27.5 39s9.5 25.667 9.5 39c0 39.333 -18.333 72 -55 98
c-32.667 24.667 -68.334 37 -107.001 37h-9c-4.66699 0 -7.66699 0.333008 -9 1v4c0 1.33301 0.333008 2.33301 1 3c1.33301 1.33301 2.16602 3 2.49902 5s1.16602 3.66699 2.49902 5h126c13.333 0 23.666 6.33301 30.999 19s13.666 34 18.999 64v31
c-16 -6.66699 -34.667 -10 -56 -10h-35c-4 0 -7.83301 -0.166992 -11.5 -0.5s-7.16699 -0.5 -10.5 -0.5h-11c-4.66699 0 -7.66699 -0.333008 -9 -1zM163.004 332.997h1v-1c0 0.666992 -0.333008 1 -1 1zM98.0039 478.997c6.66699 19.333 15.6689 35.001 27.002 47.001
s24.666 18 39.999 18h47h13h21c2 0 4 0.166992 6 0.5s4 0.5 6 0.5h35c16.667 0 49 9.33301 97 28v-95c-11.333 -64 -30 -102.333 -56 -115c35.333 -31.333 53 -70.666 53 -117.999c0 -36.667 -16.333 -73.334 -49 -110.001c-11.333 -11.333 -23.333 -22.5 -36 -33.5
s-28 -22.167 -46 -33.5h1c-31.333 -22.667 -59.333 -34 -84 -34l-170 130c13.333 27.333 32 52 56 74h-11v90c4 5.33301 7.33301 11.666 10 18.999l9 26l7 23c2 6.66699 3.66699 13 5 19l3.5 10.5c1 3 1.5 5.16699 1.5 6.5c0 2 0.333008 4 1 6h1
c1.33301 5.33301 3.16602 11.833 5.49902 19.5zM254.006 83.998l2 -16l5 4zM98.0059 478.998l-3 -6c0 3.33301 0.166992 6 0.5 8s1.83301 4.33301 4.5 7c-0.666992 -0.666992 -1 -2 -1 -4s-0.333008 -3.66699 -1 -5z" />
    <glyph glyph-name="six" unicode="6" horiz-adv-x="419" 
d="M59 291c0 -43.333 10.3291 -80.3301 30.9961 -110.997c10.667 -14.667 21.334 -27.834 32.001 -39.501s21.667 -21.5 33 -29.5c22.667 -16.667 38.334 -25 47.001 -25c7.33301 0 19 5 35 15l21.5 15l20.5 14c10 6.66699 19.667 14.334 29 23.001s18.333 18.667 27 30v-1
c20.667 22.667 31 50.667 31 84c0 30 -9.33301 55.333 -28 76c-8 9.33301 -16.5 17.666 -25.5 24.999s-19.167 13.666 -30.5 18.999c-0.666992 0 -3.33398 1.33301 -8.00098 4c-7.33301 3.33301 -12.5 6 -15.5 8s-6.5 3 -10.5 3c-8 0 -25.667 -9.66699 -53 -29
c-3.33301 -3.33301 -6.33301 -6 -9 -8l-8 -6v3c2 4.66699 5.16699 10 9.5 16l16.5 23c11.333 16.667 26.333 30 45 40l15.5 10l15.5 10c3.33301 1.33301 7.33301 3.66602 12 6.99902l10 7c0 24.667 -8.33301 37 -25 37c-15.333 0 -40.333 -9.33301 -75 -28
c-3.33301 -1.33301 -6 -2.66602 -8 -3.99902s-4.66699 -2.66602 -8 -3.99902c-11.333 -6.66699 -20.666 -11.834 -27.999 -15.501s-12.666 -6.83398 -15.999 -9.50098h1l-10.5 -8c-3.66699 -2.66699 -8.16699 -6.66699 -13.5 -12c-2.66699 -3.33301 -5.66699 -6.5 -9 -9.5
s-6.66602 -6.16699 -9.99902 -9.5l-12 -13c-6 -11.333 -10.833 -22 -14.5 -32s-7.16699 -19 -10.5 -27c-2.66699 -11.333 -4 -27.333 -4 -48zM177.996 293.003c14 6.66699 24.333 10 31 10c14.667 0 28.667 -7.66699 42 -23s20 -34 20 -56c0 -4 -3.66699 -15 -11 -33v1
c-7.33301 -11.333 -12.333 -17 -15 -17c-5.33301 0 -20 13 -44 39c-23.333 24.667 -35 50.667 -35 78c1.33301 -1.33301 5.33301 -1 12 1zM17.9961 291.003c0 12 0.335938 22.833 1.00293 32.5s2 18.834 4 27.501l12 30.5c4.66699 11.667 11.667 26.5 21 44.5l15 15l-2 -1
c3.33301 4 7 8 11 12s7.66699 7 11 9c3.33301 3.33301 5.66602 6 6.99902 8s6 5.66699 14 11l-1 -1l3 2l2 2c4.66699 4.66699 9.83398 8.33398 15.501 11.001s12.167 6 19.5 10c2.66699 1.33301 4.83398 2.66602 6.50098 3.99902s4.16699 2.66602 7.5 3.99902l4.5 1.5
l1.5 0.5l5.5 3c3.66699 2 6.16699 3.66699 7.5 5l-1 -1c20.667 11.333 38.667 19.666 54 24.999s28.666 8 39.999 8c21.333 0 37.666 -11 48.999 -33s17 -52 17 -90c-12 0 -18.333 0.666992 -19 2s0 3 2 5c-2.66699 -1.33301 -6.5 -3.5 -11.5 -6.5l-12.5 -7.5
c0.666992 -0.666992 1.33398 -1 2.00098 -1c-0.666992 0 -1.33398 0.333008 -2.00098 1v-1h-1c14 -7.33301 26.333 -15.333 37 -24s20.667 -17.667 30 -27c13.333 -15.333 23.166 -31.5 29.499 -48.5s9.5 -36.167 9.5 -57.5c0 -28.667 -15 -65.334 -45 -110.001l5 -1
l-14.5 -17c-4.33301 -5.33301 -9.16602 -10.666 -14.499 -15.999c-6.66699 -8 -13.5 -16.667 -20.5 -26s-14.833 -12 -23.5 -8l-6 -4l-14.5 -10l-14.5 -10c-11.333 -7.33301 -22.333 -12.833 -33 -16.5s-18.667 -5.5 -24 -5.5c-16.667 0 -40.334 11 -71.001 33
c-26.667 18.667 -51.334 45.334 -74.001 80.001c-26 38.667 -39 84 -39 136zM211.999 335.003c2.66699 2.66699 4.66699 6.66797 6 12.001c-1.33301 -2.66699 -2.33301 -4.83398 -3 -6.50098s-1.66699 -3.5 -3 -5.5zM301.999 424.004c-2 2 -5.33301 3.66797 -10 5.00098
c1.33301 -0.666992 3 -1.33398 5 -2.00098s3.66699 -1.66699 5 -3zM291.999 428.005h-1v1v-1h1z" />
    <glyph glyph-name="seven" unicode="7" horiz-adv-x="359" 
d="M334 458l1.00488 7.00586c0 17.333 -8.33301 26 -25 26c-6 0 -11.667 -1.33301 -17 -4l3 1v-1h-1h-162c-20 0 -35 -3.83301 -45 -11.5s-16.667 -19.834 -20 -36.501c-2 -11.333 -4.16699 -21.333 -6.5 -30s-5.83301 -17 -10.5 -25v-35h25l17 12
c3.33301 2.66699 6.83301 5.16699 10.5 7.5s7.83398 5.16602 12.501 8.49902c16 7.33301 33.667 11 53 11h19c3.33301 0 6.16602 0.166992 8.49902 0.5s5.16602 0.5 8.49902 0.5c7.33301 0.666992 13.166 1.16699 17.499 1.5s7.5 0.5 9.5 0.5l-175 -284v-28h81
c11.333 9.33301 25.333 30.666 42 63.999l25.5 54.5c7.66699 17 16.167 33.5 25.5 49.5c3.33301 7.33301 6.66602 14.166 9.99902 20.499l9 17.5c5.33301 9.33301 10 18 14 26s7.66699 15.667 11 23c3.33301 6.66699 6.16602 12.667 8.49902 18s5.16602 11 8.49902 17
c5.33301 11.333 11 22.333 17 33l11 25c3.33301 7.33301 6.33301 14.333 9 21l-1 -1c1.33301 1.33301 2.33301 3.16602 3 5.49902s1.66699 4.16602 3 5.49902zM373.005 448.006l-3.00195 -4.99805h2c-1.33301 -1.33301 -2.16602 -2.83301 -2.49902 -4.5
s-1.16602 -3.5 -2.49902 -5.5l1 3l-1.5 -3l-0.5 -1l1 1l-11 -25l-11 -25c-3.33301 -6 -6.5 -12.167 -9.5 -18.5l-8.5 -17.5l1 3c-1.33301 -3.33301 -2.66602 -6.33301 -3.99902 -9l-4 -8c-0.666992 -1.33301 -1.33398 -2.33301 -2.00098 -3s-1 -1.33398 -1 -2.00098h1
l-9 -18.5l-15.5 -31.5l-16.5 -32c-5.33301 -10 -9 -16.667 -11 -20c-9.33301 -16 -17.833 -32.333 -25.5 -49l-25.5 -54c-10.667 -20.667 -20.834 -38 -30.501 -52s-20.834 -25.667 -33.501 -35h-135v84l138 224c-4 -1.33301 -8 -2.33301 -12 -3s-7.66699 -1.66699 -11 -3h3
c-1.33301 0 -2.16602 -0.333008 -2.49902 -1s-1.16602 -1.33398 -2.49902 -2.00098l2 2c-4 -2 -8.66699 -5.66699 -14 -11l-29 -20h-77v89c8.66699 16.667 14.667 34 18 52c4.66699 28 15.167 48.833 31.5 62.5s40.5 20.5 72.5 20.5h142c2 0 4 0.166992 6 0.5
s4.66699 0.5 8 0.5c6.66699 2 13.667 3 21 3c44 0 66 -24.333 66 -73zM363.003 429.008v-1v1z" />
    <glyph glyph-name="eight" unicode="8" horiz-adv-x="438" 
d="M386 211c0 18 -9.99609 36.999 -29.9961 56.999c-5.33301 4.66699 -11.5 9.66699 -18.5 15l-24.5 18l17.5 15l17.5 15c9.33301 8.66699 16.333 16.5 21 23.5s7 14.5 7 22.5c0 6.66699 -2 14 -6 22s-9.33301 15.667 -16 23c-6 5.33301 -11.167 9.5 -15.5 12.5
s-8.5 6.16699 -12.5 9.5v-1c-2.66699 2 -5.16699 3.66699 -7.5 5s-4.5 3 -6.5 5c-6.66699 5.33301 -13.834 10.666 -21.501 15.999s-15.834 11.333 -24.501 18c-20 14 -35.667 21 -47 21s-26.333 -7 -45 -21c-3.33301 -2 -6.33301 -4.16699 -9 -6.5s-5.66699 -4.5 -9 -6.5
c-4.66699 -4.66699 -9.33398 -8.5 -14.001 -11.5s-9.66699 -6.83301 -15 -11.5l1 1c-6 -4 -9.66699 -6.66699 -11 -8h1c-15.333 -11.333 -28.166 -22 -38.499 -32s-15.5 -21.667 -15.5 -35c0 -18.667 14 -38.334 42 -59.001l17.5 -12.5c5 -3.66699 9.5 -7.16699 13.5 -10.5
l-45 -33c-24 -19.333 -36 -38 -36 -56c0 -17.333 7.66699 -33 23 -47h-1c10.667 -10 33.667 -26.667 69 -50c18 -13.333 33.167 -22.666 45.5 -27.999s21.166 -8 26.499 -8c6 0 13.167 1.83301 21.5 5.5s18.5 8.83398 30.5 15.501c6 5.33301 12 9.83301 18 13.5
s12 7.83398 18 12.501c3.33301 2 6.16602 4 8.49902 6s4.83301 4 7.5 6c9.33301 6 17.5 12.333 24.5 19l19.5 19c6 8 10.667 15.167 14 21.5s5 12.833 5 19.5zM279.004 182.999l-2.49902 -1.99902l-9.5 -8l3 1c-3.33301 -2 -6.33301 -3.5 -9 -4.5s-4.66699 -2.16699 -6 -3.5
v-1l-52 32h1c-5.33301 3.33301 -10.5 7.16602 -15.5 11.499s-10.167 8.16602 -15.5 11.499l-4 3c-4 4 -6 6.66699 -6 8l12 12l14 14c-0.666992 0 4.66602 -4.66699 15.999 -14c1.33301 -1.33301 3 -2.66602 5 -3.99902s2.33301 -1.33301 1 0
c11.333 -10.667 21.666 -18 30.999 -22c4.66699 -3.33301 8.83398 -6.5 12.501 -9.5l14.5 -11.5c6.66699 -4.66699 10 -9 10 -13zM270.005 350l0.000976562 0.995117l-12 -12l-2 1h1c-7.33301 4.66699 -15.5 10.334 -24.5 17.001l-25.5 19l-25.5 16.5
c-5.66699 3.66699 -9.16699 5.83398 -10.5 6.50098c0.666992 0.666992 1.16699 1.33398 1.5 2.00098s1.16602 1.66699 2.49902 3c2.66699 4 4.33398 6.66699 5.00098 8l9 10c2.66699 0 8 -4.33301 16 -13c4.66699 -2 9.66699 -5.16699 15 -9.5
s10.666 -8.16602 15.999 -11.499c3.33301 -1.33301 6.83301 -3.66602 10.5 -6.99902s8.5 -7.33301 14.5 -12h-1l13 -14l-2 -2c0 -1.33301 -0.333008 -2.33301 -1 -3zM174.006 187.995h-1l2 -1c0 0.666992 -0.333008 1 -1 1zM428.006 210.995
c0 -13.333 -2.67188 -25.333 -8.00488 -36s-13 -22.667 -23 -36l-22 -21c-7.33301 -6.66699 -16.333 -13.667 -27 -21c-2.66699 -2.66699 -5 -4.66699 -7 -6l-11 -7l-9 -7c-2.66699 -2 -5.33398 -3.66699 -8.00098 -5c-7.33301 -4 -14.333 -9 -21 -15
c-14.667 -8.66699 -27.667 -15.5 -39 -20.5s-22.666 -7.5 -33.999 -7.5c-8 0 -20.5 3.5 -37.5 10.5s-36.5 18.167 -58.5 33.5h2c-9.33301 5.33301 -20.333 12.833 -33 22.5l-40 31.5v-1c-1.33301 1.33301 -2.66602 2.5 -3.99902 3.5s-2.66602 2.16699 -3.99902 3.5
c-15.333 12 -25.333 35.333 -30 70v3c0 32 17 61.667 51 89c-28 26 -42 53.333 -42 82c0 8 1 15.667 3 23h-10c3.33301 2.66699 5.83301 5 7.5 7s3.83398 4.33301 6.50098 7c5.33301 13.333 13.5 24.666 24.5 33.999s23.5 19.333 37.5 30
c3.33301 3.33301 6 5.66602 8 6.99902l6 4l-12 -13l-68 -76c0.666992 2.66699 1.33398 5.16699 2.00098 7.5s1.33398 4.5 2.00098 6.5l40.5 42l21.5 22l1 1v-1l16 13.5c2.66699 2.33301 5.33398 4.16602 8.00098 5.49902c1.33301 1.33301 2.66602 2.5 3.99902 3.5
s4.66602 4.16699 9.99902 9.5c4 2 7.16699 4 9.5 6s4.5 3.66699 6.5 5c1.33301 0.666992 2.83301 1.5 4.5 2.5s2.83398 1.83301 3.50098 2.5c24.667 16.667 46 25 64 25c20 0 43.667 -9.66699 71 -29c7.33301 -7.33301 13 -11.666 17 -12.999
c6.66699 -5.33301 13 -10 19 -14l12 -8l2 -2c9.33301 -5.33301 17 -10.5 23 -15.5l20 -16.5c10.667 -11.333 19.167 -23.666 25.5 -36.999s9.5 -26.333 9.5 -39c0 -13.333 -3 -25.666 -9 -36.999s-14.667 -22.666 -26 -33.999l9 -5.5
c2.66699 -1.66699 4.66699 -2.83398 6 -3.50098h-11c27.333 -29.333 41 -58 41 -86zM93.001 477.995l1 -2z" />
    <glyph glyph-name="nine" unicode="9" horiz-adv-x="400" 
d="M358 306c0 42.667 -10.3389 79.334 -31.0059 110.001c-11.333 15.333 -22.5 28.833 -33.5 40.5s-22.167 21.5 -33.5 29.5v-1c-11.333 9.33301 -20.666 16 -27.999 20s-13.333 6 -18 6c-7.33301 0 -19.333 -5 -36 -15c-7.33301 -5.33301 -14.333 -10.166 -21 -14.499
l-20 -13.5c-10.667 -7.33301 -20.5 -15.166 -29.5 -23.499s-18.167 -18.166 -27.5 -29.499c-19.333 -25.333 -29 -53 -29 -83c0 -31.333 9 -57.333 27 -78v1c8 -9.33301 16.333 -17.5 25 -24.5s18.667 -13.167 30 -18.5c9.33301 -4.66699 16.833 -8.16699 22.5 -10.5
s10.167 -3.5 13.5 -3.5s9.5 2.16699 18.5 6.5s20.5 11.833 34.5 22.5l-1 -1c3.33301 2 6.33301 4.16699 9 6.5s5.33398 4.16602 8.00098 5.49902v-1v-3c-5.33301 -9.33301 -14.166 -21.333 -26.499 -36s-27.166 -28.334 -44.499 -41.001h1
c-3.33301 -2 -6.66602 -3.83301 -9.99902 -5.5s-6.66602 -3.83398 -9.99902 -6.50098h1c-6 -2.66699 -12.333 -6 -19 -10s-12 -7.66699 -16 -11c0 -11.333 2 -20.5 6 -27.5s10.333 -10.5 19 -10.5c14 0 38.667 9.33301 74 28c18 9.33301 31.833 16.833 41.5 22.5
s16.167 9.16699 19.5 10.5c2.66699 2 5.83398 4.83301 9.50098 8.5s8.5 8.16699 14.5 13.5c1.33301 2 3.16602 4.16699 5.49902 6.5l6.5 6.5l19 19c12.667 22 20.667 41 24 57c1.33301 8 2.5 15.667 3.5 23s1.5 15.666 1.5 24.999zM236.994 303l1.00195 0.999023
c-12.667 -6.66699 -23.334 -10 -32.001 -10c-12.667 0 -26 7.66699 -40 23c-14 14.667 -21 33.334 -21 56.001c0 6.66699 4 17.667 12 33l-1 -1c6.66699 12 11.667 18 15 18c5.33301 0 20 -13 44 -39c23.333 -28 35.333 -54.333 36 -79
c-0.666992 2.66699 -5.33398 2 -14.001 -2zM398.996 305.999c0 -11.333 -0.498047 -21.335 -1.49805 -30.002s-2.5 -17.667 -4.5 -27v3c-2.66699 -24.667 -13.334 -50.667 -32.001 -78l-11 -11.5l-11 -11.5c-2 -2 -4 -4.16699 -6 -6.5s-4 -4.5 -6 -6.5
c-0.666992 -1.33301 -1.33398 -2.16602 -2.00098 -2.49902s-1.66699 -1.16602 -3 -2.49902l-13.5 -11.5l-15.5 -12.5l-3 -2c-2 -1.33301 -4.66699 -3 -8 -5l-51 -27c-20 -10 -37.5 -17.833 -52.5 -23.5s-28.167 -8.5 -39.5 -8.5c-16 0 -29.167 5.16699 -39.5 15.5
s-17.833 24.833 -22.5 43.5v49c3.33301 2.66699 7 5.16699 11 7.5s7.66699 4.83301 11 7.5l-14 17.5c-4.66699 5.66699 -8.66699 11.167 -12 16.5c-11.333 10 -20 19 -26 27l5 1c-28 42.667 -42 77.334 -42 104.001c0 41.333 13.333 78.333 40 111h-1
c8 10 16 19.167 24 27.5s16.667 16.166 26 23.499l14.5 9.5c7.66699 5 13.167 8.83301 16.5 11.5l-1 -1c4 3.33301 8.5 6.5 13.5 9.5s9.5 6.16699 13.5 9.5c13.333 7.33301 24.5 12.666 33.5 15.999s17.167 5 24.5 5h5c7.33301 -1.33301 13.166 -3 17.499 -5l10.5 -5
c2.66699 -1.33301 6.83398 -4.16602 12.501 -8.49902l22.5 -17.5c34.667 -27.333 60.667 -53 78 -77c26 -39.333 39 -84.333 39 -135z" />
    <glyph glyph-name="colon" unicode=":" horiz-adv-x="2885" 
d="M649 509c-90 -26.667 -129.001 -65.998 -117.001 -117.998c12.667 -50.667 39.334 -82.667 80.001 -96s86.667 -5.33301 138 24c52 30.667 79.333 69.667 82 117c-20.667 -39.333 -50.334 -69.666 -89.001 -90.999c-22 -8 -42.667 -11 -62 -9
c-28.667 4 -50.667 14.667 -66 32l6 4c30 17.333 60.333 21.666 91 12.999l-19 53c-29.333 -18.667 -61.666 -25.334 -96.999 -20.001c0 7.33301 9.66699 17.333 29 30s49 21.667 89 27l14 3c-34 61.333 -85.333 83.666 -154 66.999c36.667 -2 61.667 -14 75 -36z
M331.999 494.002h-52.999c34.667 -20.667 23.667 -84 -33 -190c74.667 2 120 2 136 0c-48.667 46.667 -36.334 78 36.999 94c26 6 21.667 -18.333 -13 -73l-18 -20l9 -2l159 1c-56 73.333 -57 136 -3 188h-111l11 -71c-36.667 4 -69.667 -1.66699 -99 -17
c-10 21.333 10.333 51.333 61 90h-83zM82 479.002l9.50098 -5.49902c3 -1.66699 5.83301 -2.83398 8.5 -3.50098c-10 16 -6.66699 28.333 10 37l59 -3l-39 -30c40.667 -16 44 -72.667 10 -170h102c-28.667 62 -26 120.667 8 176c22 24 64.333 33 127 27
c-32.667 44 -71.667 71.333 -117 82l-2 -4l2 -7l2 -11l1 -9l-8 1l-57 1l-6 10l2 4l5 8l15 28h-7c-2 -1.33301 -7 -4 -15 -8s-17.333 -9 -28 -15s-22.167 -12.833 -34.5 -20.5s-23.5 -15.5 -33.5 -23.5c-22.667 -14.667 -27.334 -36 -14.001 -64zM2231 624.003l4.00098 -12
l5 -6l20 -57l3 -12c2.66699 -8 4 -18 4 -30l2 -154c0 -3.33301 -0.166992 -6.33301 -0.5 -9s-0.833008 -5.66699 -1.5 -9c0 -10.667 -1 -21.334 -3 -32.001l-8 -41c53.333 -18.667 101 -18.334 143 0.999023l-2 10l-5 12l-2 7l-2 11l-4 14l-10 48l16 -15
c199.333 -195.333 372 -246.666 518 -153.999c-176 -36.667 -309.333 18.333 -400 165l-19 36c-4 19.333 -4.66699 34 -2 44h-6l-48 -13l29 21l109 98c14 12 24.667 23 32 33h-118c-16.667 -68.667 -57.334 -117.667 -122.001 -147c-16 70.667 -10.333 134.334 17 191.001
h-149zM2089 519.003l2 -12.001c-25.333 -40 -54.333 -68.333 -87 -85l-2 5l6 105c30 2.66699 57 -1.66602 81 -12.999zM2160 611.002l-3.00195 -3l-12 -5l7 -11l-29 5l2 -70l-34 66l-16 -2l-13 -2h-64c-6 2.66699 -16.667 3.33398 -32 2.00098l-9 2l-14 2h-11
c-4 0 -6.33301 0.333008 -7 1h-14l-9 1l-13 2l-12 2c2.66699 -6 9.33398 -14.333 20.001 -25l7 -10v-6l-2 -233l-51 -71h202c-15.333 12.667 -23.666 26.667 -24.999 42c-4.66699 17.333 4.33301 24.666 27 21.999l17 -6c6.66699 -3.33301 12.667 -6.5 18 -9.5
s9.66602 -6.16699 13 -9.5c130 -152 295 -195 495 -129l-2 6c-134.667 -20 -238 -6 -310 42s-106.333 112.667 -103 194c-18.667 -11.333 -26.334 -7 -23 13c52 32.667 78 73 78 121c-14 31.333 -35.333 54.333 -64 69h-14zM1684 517.002l4 -2
c6.66699 -46 9.66699 -74.333 9 -85l-111 34zM1615 559.002c-9.33301 -13.333 -19 -24.998 -29 -34.998c-78.667 -38.667 -123 -82.667 -133 -132c-10 -48.667 -7.66699 -85.334 7 -110.001c16.667 -24 37.667 -36.333 63 -37c69.333 -10 107 13.333 113 70
c-34 -40.667 -66.667 -48.334 -98 -23.001c-30 33.333 -37.667 68.333 -23 105l142 -61l24 -14l-15 -37l-19 -21h88l12 66l16 -66h60c-47.333 138 -40 251.333 22 340c-77.333 -20 -165 -17.333 -263 8c24 -14 35 -31.667 33 -53zM541 517.004l10 -16v6l5 21l13 37l25 38
c8 10.667 15.667 19.667 23 27s14.333 13.666 21 18.999c4.66699 2.66699 9 5 13 7l12 6l12 7l18 9l27 10l78 11c10 -0.666992 18.333 -0.666992 25 0h14l8 -2h17l55 -7l10 -2l11 -3l54 64l-17 -76c131.333 -20.667 222.666 -72 273.999 -154
c103.333 -171.333 38 -276.666 -196 -315.999c-4 8.66699 -5 16.334 -3 23.001c9.33301 204.667 16 311.334 20 320.001c7.33301 12 17 20.667 29 26l-10 6l-74 41l-16.5 10c-4.33301 2.66699 -8.16602 4.66699 -11.499 6l-30 16l-19 11l-13 9l-30 14
c23.333 -74.667 36.666 -144.334 39.999 -209.001s-2.66699 -125.334 -18 -182.001c-28.667 -110 -52.667 -170.667 -72 -182h240c14.667 0 28.334 0.5 41.001 1.5s23.667 2.16699 33 3.5c201.333 54 288 170.667 260 350c-30 127.333 -103.333 217.333 -220 270l45 36
l-389 16c-253.333 -18 -358 -108.667 -314 -272zM53 442.004l-17.0039 20.002c-8 14.667 -12 29.667 -12 45c0 28.667 13.667 53 41 73l27 17c9.33301 6 19.333 12 30 18l-2 -1c3.33301 1.33301 6 2.83301 8 4.5s4.66699 3.5 8 5.5l34.5 19.5
c11.667 6.33301 18.834 10.166 21.501 11.499h104l-16 -29c21.333 -9.33301 42 -21.166 62 -35.499s40 -31.166 60 -50.499h83c-2.66699 13.333 -4 28 -4 44c0 149.333 124 233 372 251l517 -21l-86 -70c86.667 -56 145.667 -137.667 177 -245
c12.667 11.333 26.667 22.166 42 32.499s32.333 19.833 51 28.5c1.33301 1.33301 2.5 2.66602 3.5 3.99902s2.16699 2.66602 3.5 3.99902c-1.33301 2 -3.66602 3.83301 -6.99902 5.5s-7.33301 3.83398 -12 6.50098l39 80c61.333 -15.333 112.666 -23 153.999 -23
c7.33301 0 16.5 0.666992 27.5 2s24.167 3.33301 39.5 6c-2.66699 2.66699 -5 7.66699 -7 15l46 -7c16 3.33301 33.333 7.33301 52 12l62 15l-13.5 -19.5c-4.33301 -6.33301 -8.16602 -12.5 -11.499 -18.5h16c0 -1.33301 -2.33301 -2 -7 -2h4l21 -2l6 -1
c1.33301 0 2.83301 0.166992 4.5 0.5s3.16699 0.5 4.5 0.5c6.66699 0 14.667 -1 24 -3h59l7 1l16 3h10l20 4h5l6 2l-3 -1l4 2l12 11h27l-4 12h295c-14.667 -29.333 -26.334 -55.5 -35 -78.5c-8.66699 -23 -14.334 -43.167 -17 -60.5c17.333 25.333 30.666 57 40 95h249
c-18 -26 -35.167 -49.333 -51.5 -70s-29.166 -34.667 -38.5 -42l2 1l-65 -58c-4 -16 -6 -26 -6 -30c0 -6 0.333008 -10 1 -12l17 -33l-1 3c62 -102 147.333 -153 256 -153c30.667 0 66.667 4.33301 108 13l36 -77c-34 -21.333 -66.833 -36.833 -98.5 -46.5
s-63.5 -14.5 -95.5 -14.5c-20.667 0 -41.667 1.83301 -63 5.5s-42.666 9.5 -64 17.5c-42 -13.333 -79.833 -23 -113.5 -29s-64.5 -9 -92.5 -9c-118 0 -220.333 40 -307 120h-359l5 7h-152c-18 -14 -38.333 -21 -61 -21h-16c-2.66699 0 -5.33398 0.166992 -8.00098 0.5
s-5.66699 0.833008 -9 1.5c-34.667 2 -63.667 15.667 -87 41c-45.333 -77.333 -131.333 -133 -258 -167c-13.333 -2 -27.333 -3.66699 -42 -5s-30 -2 -46 -2h-285l7 48l-36 -48h-100c106.667 60.667 172.667 140.334 198 239.001c6 20 10.333 41.167 13 63.5
s4 45.833 4 70.5c0 48 -11.667 118.667 -35 212h-11l-8 2h-5c-2 -0.666992 -5 -1 -9 -1h-7h-15l-63 -8l-17 -6l-4 -2l5 2h-1l-15 -8l-10 -6c-5.33301 -4 -9.66602 -6.33301 -12.999 -7c-4.66699 -4.66699 -9.33398 -7 -14.001 -7
c-2 -2.66699 -4.16699 -5.33398 -6.5 -8.00098s-5.16602 -5.66699 -8.49902 -9c51.333 -12.667 98.666 -55.334 141.999 -128.001l3 5l89 -20c-5.33301 -75.333 -40.666 -132 -105.999 -170c-42.667 -24.667 -84 -37 -124 -37c-9.33301 0 -19.166 0.666992 -29.499 2
s-20.166 3.66602 -29.499 6.99902h2c-3.33301 1.33301 -6.5 2.33301 -9.5 3s-5.83301 1.66699 -8.5 3h-74c3.33301 -3.33301 6.16602 -5.83301 8.49902 -7.5s5.16602 -4.16699 8.49902 -7.5c-39.333 4 -70.333 7 -93 9l-52 4.5c-12 1 -20.667 1.66699 -26 2s-10 0.5 -14 0.5
h-21v-1h1h-67c-17.333 -0.666992 -33.666 -1.16699 -48.999 -1.5s-27.666 -0.5 -36.999 -0.5c0 0.666992 0.333008 1.33398 1 2.00098h-93c28 80 42 131 42 153c0 3.33301 -1 6 -3 8c-19.333 6.66699 -32.833 11.667 -40.5 15s-13.167 6 -16.5 8zM1205 496.006
c-5.33301 8.66699 -11.5 17.166 -18.5 25.499s-15.167 16.5 -24.5 24.5l-31 -13c-8 -3.33301 -13.333 -5.66602 -16 -6.99902c-0.666992 -8.66699 -2.16699 -35 -4.5 -79l-9.5 -187c96.667 24.667 145 64.667 145 120c0 30.667 -14 69.667 -42 117zM2404 216.005
c11.333 -2.66699 23.666 -4.5 37 -5.5c13.333 -1 27 -1.5 41 -1.5l-33 24c-8 -3.33301 -15.667 -6.33301 -23 -9zM1843 429.005c0 -9.33301 0.666992 -19.833 2 -31.5s3.33301 -24.5 6 -38.5l1 127c-6 -21.333 -9 -40.333 -9 -57zM754.996 412.005
c8 8.66699 15.667 19 23 31l-31 -7zM670.996 615.005l-2 -2zM2538 405.005l-1 2l0.5 -0.5c0.333008 -0.333008 0.5 -0.833008 0.5 -1.5zM661.996 608.005h-1h1z" />
    <glyph glyph-name="semicolon" unicode=";" horiz-adv-x="2760" 
d="M1430 406l4 1c-0.666992 -0.666992 -2 -1 -4 -1zM1120 261c-41.333 0 -76.333 4.33301 -105 13l182 -5v-2c-32 -4 -57.667 -6 -77 -6zM2199 453c0 24 6.66699 54 20 90v-19c0 -22 -1.16699 -43.333 -3.5 -64s-6.16602 -41 -11.5 -61c-1.33301 10 -2.5 19.5 -3.5 28.5
s-1.5 17.5 -1.5 25.5zM1172 401c0 17.333 7.33398 34.333 22.001 51l-1 -1l51 60c0.666992 -1.33301 1.16699 -3 1.5 -5s1.16602 -3.66699 2.49902 -5l12 -19c3.33301 -5.33301 8 -10.333 14 -15c-52.667 -34.667 -82 -72.667 -88 -114c-5.33301 10.667 -9 20 -11 28
s-3 14.667 -3 20zM874.001 442v17.998c12.667 12.667 23.667 26.667 33 42l30 -39c2.66699 -3.33301 5.16699 -6.66602 7.5 -9.99902s4.5 -6.66602 6.5 -9.99902l8 -11c-10.667 -24.667 -30 -45.334 -58 -62.001l-9 -5c-12 20.667 -18 46.334 -18 77.001zM506.001 456.998
v-72l-63 -84l-81 6c64.667 54.667 112.667 104.667 144 150zM258.001 489.998c0 28 3.33301 54.998 10 80.998c2 3.33301 4 5.83301 6 7.5s4 3.83398 6 6.50098c5.33301 2.66699 10.5 4.83398 15.5 6.50098s9.83301 2.5 14.5 2.5c32.667 0 49 -95.667 49 -287l-26 3l22 -64
l-2 1c-63.333 81.333 -95 162.333 -95 243zM927.001 63.9961c-24 0 -49.832 1.66699 -77.499 5s-56.834 8 -87.501 14c-68 10 -135.667 28.667 -203 56l-2 27l29 97h177c42.667 -38 88.667 -66.167 138 -84.5s102.333 -27.5 159 -27.5c15.333 0 31.833 0.833008 49.5 2.5
s36.5 4.5 56.5 8.5c-53.333 -65.333 -133 -98 -239 -98zM-9.99805 613.996l34.002 -42.0039c-3.33301 -19.333 -5.83301 -38.166 -7.5 -56.499s-2.5 -35.833 -2.5 -52.5c0 -220.667 122 -370 366 -448l-1 -41l-10 -20l-29 -76h256l-24 88c50 -10 96.667 -17.833 140 -23.5
s84 -9.16699 122 -10.5l-50 -89c274.667 84.667 432.334 169.334 473.001 254.001v-1c19.333 38 33.333 69.333 42 94s13 43.667 13 57v14l-52 6l-3 8c-0.666992 0 -1.16699 -0.166992 -1.5 -0.5l-0.5 -0.5c15.333 11.333 24.333 17 27 17
c0.666992 0 5.33398 -1.66699 14.001 -5l-1 1c18 -12.667 36.167 -22.167 54.5 -28.5s37.5 -9.5 57.5 -9.5c8.66699 0 17.167 0.5 25.5 1.5s17.166 3.16699 26.499 6.5h-1c44.667 8 79 24.333 103 49c-2 -7.33301 -4.16699 -14.666 -6.5 -21.999s-5.16602 -15 -8.49902 -23
h242c24 -26 53.667 -40 89 -42c4 0 8 -0.166992 12 -0.5s9.66699 -0.5 17 -0.5c24 0 45 7 63 21h158c-10 -12.667 -20.167 -24.834 -30.5 -36.501s-21.5 -22.834 -33.5 -33.501l177.5 13c47.667 3.33301 84.5 5 110.5 5c94 0 186.667 -8 278 -24
c2.66699 -1.33301 5.66699 -2.66602 9 -3.99902s7 -3.33301 11 -6c52 -31.333 119 -89.666 201 -174.999l-1 85c-9.33301 201.333 -134.333 316 -375 344l-17 -59c-12 0.666992 -23 1.66699 -33 3l-1 52l-2 4l14 178c8.66699 12.667 21 28.167 37 46.5
s36.333 39.833 61 64.5h-229c0.666992 0.666992 1.33398 1.5 2.00098 2.5l3 4.5c-4.66699 -1.33301 -9 -2.66602 -13 -3.99902s-8.33301 -2.33301 -13 -3h-107l9 -23c-41.333 -8.66699 -72.333 -13 -93 -13c-44.667 0 -95.334 8.33301 -152.001 25l-13 -23l-2 19h-29h-40
c-14 0 -28.5 0.166992 -43.5 0.5s-28.5 0.5 -40.5 0.5c-9.33301 0 -18.833 0.166992 -28.5 0.5s-19.834 0.5 -30.501 0.5h-222c0 -1.33301 -0.166992 -2.66602 -0.5 -3.99902s-0.5 -3.33301 -0.5 -6c-40.667 32.667 -101.334 62.667 -182.001 90l30.5 -43.5
c8.33301 -12.333 16.166 -23.166 23.499 -32.499c-8.66699 0 -14 -0.333008 -16 -1h-293c0.666992 -2.66699 1 -6.33398 1 -11.001c0 -4 0.333008 -7 1 -9l-199 4c-4 3.33301 -8 6.16602 -12 8.49902l-14 8.5h-46l-13 -11l-6 -2h-4l-21 -5h-8l-17 -2l-6 -1h-58
c-5.33301 1.33301 -9.33301 2 -12 2h-12h-7h-5l-20 2h-4c3.33301 0 5 0.666992 5 2h-29l-4 1l-14 2h1l-32 3c-5.33301 13.333 -11.5 26.333 -18.5 39s-14.833 26 -23.5 40l-54 -33l-9 -7c-48 26 -98.333 39 -151 39c-9.33301 0 -16.833 -0.166992 -22.5 -0.5
s-10.834 -0.5 -15.501 -0.5c-41.333 -10.667 -74.333 -25.667 -99 -45c-43.333 -17.333 -88.333 -49.333 -135 -96zM153.004 674.992c9.33301 7.33301 20.667 14.1699 34 20.5029s28.666 11.833 45.999 16.5c64 6.66699 125.667 -10 185 -50l35 29l5 5
c68.667 -110 51.667 -207 -51 -291c0 196 -52.667 267.333 -158 214c-10.667 -10.667 -19.667 -22 -27 -34c-32.667 -124.667 -1.66699 -246 93 -364l52 -41l11 -8l4 -3l49 -27v31l-30 89l132 -11l-24 -81l3 -58c38.667 -17.333 78 -31.833 118 -43.5s81 -20.5 123 -26.5
c280 -58 450.333 11.333 511 208c1.33301 -9.33301 -2.16699 -25 -10.5 -47s-21.833 -52 -40.5 -90c-36 -72.667 -147 -138 -333 -196l1 2c4.66699 2.66699 8.66699 4.5 12 5.5s6.33301 1.83301 9 2.5c2.66699 0 5.33398 1.33301 8.00098 4l52 27
c4 1.33301 7.5 3.16602 10.5 5.49902s5.5 4.16602 7.5 5.49902l15 7l13 10c-107.333 -24.667 -269.333 -13.334 -486 33.999h-9l11 -62l11 -37h-128l7 16l14 27l2 80c-292 84 -410 266 -354 546c4.66699 10 10.334 18.333 17.001 25c-8.66699 0 -26.334 -5 -53.001 -15
c18 18.667 36.5 34 55.5 46s38.167 21.667 57.5 29zM800.005 639.996l4 3.99902h13c28 -14.667 48.667 -36.667 62 -66c0 -46 -25 -84.333 -75 -115c-3.33301 -20 3.66699 -24.333 21 -13c-2 -78 31.333 -139 100 -183c70.667 -46 170.667 -59.333 300 -40l2 -6
c-193.333 -62 -352.666 -21.333 -477.999 122c-8 5.33301 -18.333 11.333 -31 18l-15 5c-22.667 4 -31.334 -2.66699 -26.001 -20c0.666992 -7.33301 2.66699 -14.333 6 -21s9.33301 -13 18 -19l-195 1l48 67l2 222v5l-7 9c-9.33301 9.33301 -15.333 17.666 -18 24.999
l10 -2l13 -2l10 -2h12c0.666992 0 1.66699 -0.166992 3 -0.5s3 -0.5 5 -0.5h11l12 -1l10 -2c4.66699 0.666992 9.5 0.833984 14.5 0.500977s10.5 -1.16602 16.5 -2.49902h61l13 2l15 2h10l20 4h6l16 6zM735.005 555.995c-11.333 5.33301 -23.5 9 -36.5 11
s-27.167 2.66699 -42.5 2l-5 -102l2 -4c32 18.667 60 45.667 84 81zM1065 490.995c38 32 52.335 82.665 43.002 151.998h189l-78.5 -92l-64.5 -74c-37.333 -43.333 -39 -97.666 -5 -162.999l-235 6l10 11l4 4c44.667 24.667 73 59.334 85 104.001l-19 23
c-2.66699 6 -8.33398 14 -17.001 24l-40 56c-10 10 -16.333 18.667 -19 26l-6 7l-6 6c-2 4 -4.33301 8.16699 -7 12.5s-6.33398 8.83301 -11.001 13.5l-14 21l209 -5c-72 -49.333 -84 -93.333 -36 -132h18zM1446.01 646.993c-1.33301 3.33301 -3.33301 7.50098 -6 12.501
s-6.33398 10.5 -11.001 16.5c60 -21.333 84.667 -70.333 74 -147c-51.333 52.667 -91.666 71.334 -120.999 56.001c-4.66699 -4.66699 -7.33398 -10.334 -8.00098 -17.001l8 -12l40 -23l97 -58c28.667 -26 38 -60 28 -102c-12 -40 -45 -65 -99 -75
c-43.333 -13.333 -84.333 -6 -123 22c-30 19.333 -60 18 -90 -4c-10 55.333 15.333 97.333 76 126c24.667 -64.667 70 -90 136 -76c9.33301 3.33301 11.333 8.66602 6 15.999l-22 17l-4 1l-10 9l28 50c-30.667 -26.667 -48.667 -37 -54 -31l-27 23l-6 3l-40 34
c-2.66699 2 -5.16699 4.5 -7.5 7.5s-5.16602 6.16699 -8.49902 9.5l-10 13c-8.66699 22.667 -10 46 -4 70c16 47.333 68.667 67 158 59zM1573.01 556.994c-35.333 -4 -51.334 3.66699 -48.001 23c1.33301 9.33301 2.83301 19 4.5 29s3.5 20.333 5.5 31h178
c19.333 -0.666992 37 -1 53 -1h46h69l9 -83c-50 6.66699 -89.333 -4.66602 -118 -33.999c-43.333 -68.667 -46.666 -141.334 -9.99902 -218.001h-150c44 120.667 39.667 191 -13 211l51 37zM1971.01 584.994c2 22.667 -8.66406 40.666 -31.9971 53.999
c95.333 -26 183.333 -28.667 263.999 -8c-62.667 -90.667 -69.334 -207 -20.001 -349h-179l20 23l16 37l-25 14l-143 63c-16 -37.333 -8.66699 -73 22 -107c32.667 -26 65.667 -18.333 99 23c-4.66699 -58 -42.334 -82.333 -113.001 -73c-26 0.666992 -47 13.334 -63 38.001
c-15.333 27.333 -18 65.333 -8 114c10.667 52 55 97.333 133 136c12 10 21.667 21.667 29 35zM2051.01 524.993l-3 1l-99 -51l111 -33c1.33301 10 -1.66699 37.667 -9 83zM2267.01 595.993l-23.001 56.998h181c-3.33301 -3.33301 -8.16602 -9.66602 -14.5 -18.999
c-6.33301 -9.33301 -14.166 -22 -23.499 -38l-11 -160l-64 -7l63 -30l2 -68l2 -5v-13c3.33301 -0.666992 11.833 -1.66699 25.5 -3s32.167 -2.66602 55.5 -3.99902c46.667 -4 76 -6 88 -6l11 3c-16.667 26.667 -43 46.667 -79 60c205.333 -24 312 -117.667 320 -281
c-26 38 -67 73.333 -123 106c-5.33301 4 -10.833 7.16699 -16.5 9.5l-16.5 6.5c-148 26.667 -300 32.667 -456 18c60.667 58 87 182.667 79 374zM-49.9922 585.991l-62 -12.001c95.333 100 166.333 159.333 213 178c28 20 66.667 36.667 116 50h20
c3.33301 0 7 0.166992 11 0.5s8.66699 0.5 14 0.5c51.333 0 100 -10.333 146 -31l84 52l33.5 -56c10.333 -17.333 18.833 -32.666 25.5 -45.999l11 -1v-1l8 -1h77v-5h11c6 0.666992 6.66699 -10.333 2 -33l33 32l36 4h4l16 3l16 14h80l14.5 -9l13.5 -8l130 -3v19h267
l-89 125c147.333 -52.667 250.333 -95.334 309 -128.001h223h8c2.66699 0 5.33398 -0.333008 8.00098 -1c6 0 11.333 -11.333 16 -34l27 34c8 -0.666992 17 -1 27 -1h35h75l8 13c8.66699 -2.66699 16.834 -5 24.501 -7l22.5 -6h7v-2
c26.667 -6.66699 50.167 -11.5 70.5 -14.5s37.166 -4.5 50.5 -4.5h11c2.66699 0 7.33398 0.666992 14 2l-13 34h174c-0.666992 0 1.66602 0.666992 7 2l147 46l-18 -24.5l-17 -23.5h253l-108.5 -109.5c-27.667 -29 -46.834 -50.167 -57.5 -63.5l-9 -117
c272 -42.667 414 -184.334 426 -425.001l-33 -133c-118.667 116.667 -201 189.334 -247 218.001l-6 3l2 -1l-8 4c-42 6.66699 -84.333 11.834 -127 15.501s-86.334 5.5 -131 5.5c-25.333 0 -73.666 -2.66699 -145 -8l-282 -22c19.333 16.667 36.166 31.834 50.499 45.501
l39.5 36.5h-29c-24 -14 -50.333 -21 -79 -21h-20c-5.33301 0 -9 0.333008 -11 1h-1h1c-42.667 2 -79 16 -109 42h-280l-14 -3c-26 -6 -47.667 -9 -65 -9c-8.66699 0 -17.334 0.333008 -26.001 1s-17 2 -25 4c-5.33301 -17.333 -13 -38.5 -23 -63.5s-23 -53.5 -39 -85.5h-3
c-64 -92 -267.333 -190.667 -610 -296l73 128c-18 2 -36.5 4.33301 -55.5 7s-38.833 5.66699 -59.5 9l20 -75h-392l56 141l5 11c-242.667 88.667 -364 248.667 -364 480c0 15.333 0.666992 31.166 2 47.499l4 50.5zM927.008 111.99h32
c-81.333 17.333 -153.666 52 -216.999 104h-118l-14 -47c51.333 -19.333 104.666 -32.333 159.999 -39c58 -12 110.333 -18 157 -18zM1575.01 582.99v-3v3zM458.008 -83.0098v-1l1 1h-1z" />
    <glyph glyph-name="semicolon" unicode="&#x37e;" horiz-adv-x="2760" 
d="M1430 406l4 1c-0.666992 -0.666992 -2 -1 -4 -1zM1120 261c-41.333 0 -76.333 4.33301 -105 13l182 -5v-2c-32 -4 -57.667 -6 -77 -6zM2199 453c0 24 6.66699 54 20 90v-19c0 -22 -1.16699 -43.333 -3.5 -64s-6.16602 -41 -11.5 -61c-1.33301 10 -2.5 19.5 -3.5 28.5
s-1.5 17.5 -1.5 25.5zM1172 401c0 17.333 7.33398 34.333 22.001 51l-1 -1l51 60c0.666992 -1.33301 1.16699 -3 1.5 -5s1.16602 -3.66699 2.49902 -5l12 -19c3.33301 -5.33301 8 -10.333 14 -15c-52.667 -34.667 -82 -72.667 -88 -114c-5.33301 10.667 -9 20 -11 28
s-3 14.667 -3 20zM874.001 442v17.998c12.667 12.667 23.667 26.667 33 42l30 -39c2.66699 -3.33301 5.16699 -6.66602 7.5 -9.99902s4.5 -6.66602 6.5 -9.99902l8 -11c-10.667 -24.667 -30 -45.334 -58 -62.001l-9 -5c-12 20.667 -18 46.334 -18 77.001zM506.001 456.998
v-72l-63 -84l-81 6c64.667 54.667 112.667 104.667 144 150zM258.001 489.998c0 28 3.33301 54.998 10 80.998c2 3.33301 4 5.83301 6 7.5s4 3.83398 6 6.50098c5.33301 2.66699 10.5 4.83398 15.5 6.50098s9.83301 2.5 14.5 2.5c32.667 0 49 -95.667 49 -287l-26 3l22 -64
l-2 1c-63.333 81.333 -95 162.333 -95 243zM927.001 63.9961c-24 0 -49.832 1.66699 -77.499 5s-56.834 8 -87.501 14c-68 10 -135.667 28.667 -203 56l-2 27l29 97h177c42.667 -38 88.667 -66.167 138 -84.5s102.333 -27.5 159 -27.5c15.333 0 31.833 0.833008 49.5 2.5
s36.5 4.5 56.5 8.5c-53.333 -65.333 -133 -98 -239 -98zM-9.99805 613.996l34.002 -42.0039c-3.33301 -19.333 -5.83301 -38.166 -7.5 -56.499s-2.5 -35.833 -2.5 -52.5c0 -220.667 122 -370 366 -448l-1 -41l-10 -20l-29 -76h256l-24 88c50 -10 96.667 -17.833 140 -23.5
s84 -9.16699 122 -10.5l-50 -89c274.667 84.667 432.334 169.334 473.001 254.001v-1c19.333 38 33.333 69.333 42 94s13 43.667 13 57v14l-52 6l-3 8c-0.666992 0 -1.16699 -0.166992 -1.5 -0.5l-0.5 -0.5c15.333 11.333 24.333 17 27 17
c0.666992 0 5.33398 -1.66699 14.001 -5l-1 1c18 -12.667 36.167 -22.167 54.5 -28.5s37.5 -9.5 57.5 -9.5c8.66699 0 17.167 0.5 25.5 1.5s17.166 3.16699 26.499 6.5h-1c44.667 8 79 24.333 103 49c-2 -7.33301 -4.16699 -14.666 -6.5 -21.999s-5.16602 -15 -8.49902 -23
h242c24 -26 53.667 -40 89 -42c4 0 8 -0.166992 12 -0.5s9.66699 -0.5 17 -0.5c24 0 45 7 63 21h158c-10 -12.667 -20.167 -24.834 -30.5 -36.501s-21.5 -22.834 -33.5 -33.501l177.5 13c47.667 3.33301 84.5 5 110.5 5c94 0 186.667 -8 278 -24
c2.66699 -1.33301 5.66699 -2.66602 9 -3.99902s7 -3.33301 11 -6c52 -31.333 119 -89.666 201 -174.999l-1 85c-9.33301 201.333 -134.333 316 -375 344l-17 -59c-12 0.666992 -23 1.66699 -33 3l-1 52l-2 4l14 178c8.66699 12.667 21 28.167 37 46.5
s36.333 39.833 61 64.5h-229c0.666992 0.666992 1.33398 1.5 2.00098 2.5l3 4.5c-4.66699 -1.33301 -9 -2.66602 -13 -3.99902s-8.33301 -2.33301 -13 -3h-107l9 -23c-41.333 -8.66699 -72.333 -13 -93 -13c-44.667 0 -95.334 8.33301 -152.001 25l-13 -23l-2 19h-29h-40
c-14 0 -28.5 0.166992 -43.5 0.5s-28.5 0.5 -40.5 0.5c-9.33301 0 -18.833 0.166992 -28.5 0.5s-19.834 0.5 -30.501 0.5h-222c0 -1.33301 -0.166992 -2.66602 -0.5 -3.99902s-0.5 -3.33301 -0.5 -6c-40.667 32.667 -101.334 62.667 -182.001 90l30.5 -43.5
c8.33301 -12.333 16.166 -23.166 23.499 -32.499c-8.66699 0 -14 -0.333008 -16 -1h-293c0.666992 -2.66699 1 -6.33398 1 -11.001c0 -4 0.333008 -7 1 -9l-199 4c-4 3.33301 -8 6.16602 -12 8.49902l-14 8.5h-46l-13 -11l-6 -2h-4l-21 -5h-8l-17 -2l-6 -1h-58
c-5.33301 1.33301 -9.33301 2 -12 2h-12h-7h-5l-20 2h-4c3.33301 0 5 0.666992 5 2h-29l-4 1l-14 2h1l-32 3c-5.33301 13.333 -11.5 26.333 -18.5 39s-14.833 26 -23.5 40l-54 -33l-9 -7c-48 26 -98.333 39 -151 39c-9.33301 0 -16.833 -0.166992 -22.5 -0.5
s-10.834 -0.5 -15.501 -0.5c-41.333 -10.667 -74.333 -25.667 -99 -45c-43.333 -17.333 -88.333 -49.333 -135 -96zM153.004 674.992c9.33301 7.33301 20.667 14.1699 34 20.5029s28.666 11.833 45.999 16.5c64 6.66699 125.667 -10 185 -50l35 29l5 5
c68.667 -110 51.667 -207 -51 -291c0 196 -52.667 267.333 -158 214c-10.667 -10.667 -19.667 -22 -27 -34c-32.667 -124.667 -1.66699 -246 93 -364l52 -41l11 -8l4 -3l49 -27v31l-30 89l132 -11l-24 -81l3 -58c38.667 -17.333 78 -31.833 118 -43.5s81 -20.5 123 -26.5
c280 -58 450.333 11.333 511 208c1.33301 -9.33301 -2.16699 -25 -10.5 -47s-21.833 -52 -40.5 -90c-36 -72.667 -147 -138 -333 -196l1 2c4.66699 2.66699 8.66699 4.5 12 5.5s6.33301 1.83301 9 2.5c2.66699 0 5.33398 1.33301 8.00098 4l52 27
c4 1.33301 7.5 3.16602 10.5 5.49902s5.5 4.16602 7.5 5.49902l15 7l13 10c-107.333 -24.667 -269.333 -13.334 -486 33.999h-9l11 -62l11 -37h-128l7 16l14 27l2 80c-292 84 -410 266 -354 546c4.66699 10 10.334 18.333 17.001 25c-8.66699 0 -26.334 -5 -53.001 -15
c18 18.667 36.5 34 55.5 46s38.167 21.667 57.5 29zM800.005 639.996l4 3.99902h13c28 -14.667 48.667 -36.667 62 -66c0 -46 -25 -84.333 -75 -115c-3.33301 -20 3.66699 -24.333 21 -13c-2 -78 31.333 -139 100 -183c70.667 -46 170.667 -59.333 300 -40l2 -6
c-193.333 -62 -352.666 -21.333 -477.999 122c-8 5.33301 -18.333 11.333 -31 18l-15 5c-22.667 4 -31.334 -2.66699 -26.001 -20c0.666992 -7.33301 2.66699 -14.333 6 -21s9.33301 -13 18 -19l-195 1l48 67l2 222v5l-7 9c-9.33301 9.33301 -15.333 17.666 -18 24.999
l10 -2l13 -2l10 -2h12c0.666992 0 1.66699 -0.166992 3 -0.5s3 -0.5 5 -0.5h11l12 -1l10 -2c4.66699 0.666992 9.5 0.833984 14.5 0.500977s10.5 -1.16602 16.5 -2.49902h61l13 2l15 2h10l20 4h6l16 6zM735.005 555.995c-11.333 5.33301 -23.5 9 -36.5 11
s-27.167 2.66699 -42.5 2l-5 -102l2 -4c32 18.667 60 45.667 84 81zM1065 490.995c38 32 52.335 82.665 43.002 151.998h189l-78.5 -92l-64.5 -74c-37.333 -43.333 -39 -97.666 -5 -162.999l-235 6l10 11l4 4c44.667 24.667 73 59.334 85 104.001l-19 23
c-2.66699 6 -8.33398 14 -17.001 24l-40 56c-10 10 -16.333 18.667 -19 26l-6 7l-6 6c-2 4 -4.33301 8.16699 -7 12.5s-6.33398 8.83301 -11.001 13.5l-14 21l209 -5c-72 -49.333 -84 -93.333 -36 -132h18zM1446.01 646.993c-1.33301 3.33301 -3.33301 7.50098 -6 12.501
s-6.33398 10.5 -11.001 16.5c60 -21.333 84.667 -70.333 74 -147c-51.333 52.667 -91.666 71.334 -120.999 56.001c-4.66699 -4.66699 -7.33398 -10.334 -8.00098 -17.001l8 -12l40 -23l97 -58c28.667 -26 38 -60 28 -102c-12 -40 -45 -65 -99 -75
c-43.333 -13.333 -84.333 -6 -123 22c-30 19.333 -60 18 -90 -4c-10 55.333 15.333 97.333 76 126c24.667 -64.667 70 -90 136 -76c9.33301 3.33301 11.333 8.66602 6 15.999l-22 17l-4 1l-10 9l28 50c-30.667 -26.667 -48.667 -37 -54 -31l-27 23l-6 3l-40 34
c-2.66699 2 -5.16699 4.5 -7.5 7.5s-5.16602 6.16699 -8.49902 9.5l-10 13c-8.66699 22.667 -10 46 -4 70c16 47.333 68.667 67 158 59zM1573.01 556.994c-35.333 -4 -51.334 3.66699 -48.001 23c1.33301 9.33301 2.83301 19 4.5 29s3.5 20.333 5.5 31h178
c19.333 -0.666992 37 -1 53 -1h46h69l9 -83c-50 6.66699 -89.333 -4.66602 -118 -33.999c-43.333 -68.667 -46.666 -141.334 -9.99902 -218.001h-150c44 120.667 39.667 191 -13 211l51 37zM1971.01 584.994c2 22.667 -8.66406 40.666 -31.9971 53.999
c95.333 -26 183.333 -28.667 263.999 -8c-62.667 -90.667 -69.334 -207 -20.001 -349h-179l20 23l16 37l-25 14l-143 63c-16 -37.333 -8.66699 -73 22 -107c32.667 -26 65.667 -18.333 99 23c-4.66699 -58 -42.334 -82.333 -113.001 -73c-26 0.666992 -47 13.334 -63 38.001
c-15.333 27.333 -18 65.333 -8 114c10.667 52 55 97.333 133 136c12 10 21.667 21.667 29 35zM2051.01 524.993l-3 1l-99 -51l111 -33c1.33301 10 -1.66699 37.667 -9 83zM2267.01 595.993l-23.001 56.998h181c-3.33301 -3.33301 -8.16602 -9.66602 -14.5 -18.999
c-6.33301 -9.33301 -14.166 -22 -23.499 -38l-11 -160l-64 -7l63 -30l2 -68l2 -5v-13c3.33301 -0.666992 11.833 -1.66699 25.5 -3s32.167 -2.66602 55.5 -3.99902c46.667 -4 76 -6 88 -6l11 3c-16.667 26.667 -43 46.667 -79 60c205.333 -24 312 -117.667 320 -281
c-26 38 -67 73.333 -123 106c-5.33301 4 -10.833 7.16699 -16.5 9.5l-16.5 6.5c-148 26.667 -300 32.667 -456 18c60.667 58 87 182.667 79 374zM-49.9922 585.991l-62 -12.001c95.333 100 166.333 159.333 213 178c28 20 66.667 36.667 116 50h20
c3.33301 0 7 0.166992 11 0.5s8.66699 0.5 14 0.5c51.333 0 100 -10.333 146 -31l84 52l33.5 -56c10.333 -17.333 18.833 -32.666 25.5 -45.999l11 -1v-1l8 -1h77v-5h11c6 0.666992 6.66699 -10.333 2 -33l33 32l36 4h4l16 3l16 14h80l14.5 -9l13.5 -8l130 -3v19h267
l-89 125c147.333 -52.667 250.333 -95.334 309 -128.001h223h8c2.66699 0 5.33398 -0.333008 8.00098 -1c6 0 11.333 -11.333 16 -34l27 34c8 -0.666992 17 -1 27 -1h35h75l8 13c8.66699 -2.66699 16.834 -5 24.501 -7l22.5 -6h7v-2
c26.667 -6.66699 50.167 -11.5 70.5 -14.5s37.166 -4.5 50.5 -4.5h11c2.66699 0 7.33398 0.666992 14 2l-13 34h174c-0.666992 0 1.66602 0.666992 7 2l147 46l-18 -24.5l-17 -23.5h253l-108.5 -109.5c-27.667 -29 -46.834 -50.167 -57.5 -63.5l-9 -117
c272 -42.667 414 -184.334 426 -425.001l-33 -133c-118.667 116.667 -201 189.334 -247 218.001l-6 3l2 -1l-8 4c-42 6.66699 -84.333 11.834 -127 15.501s-86.334 5.5 -131 5.5c-25.333 0 -73.666 -2.66699 -145 -8l-282 -22c19.333 16.667 36.166 31.834 50.499 45.501
l39.5 36.5h-29c-24 -14 -50.333 -21 -79 -21h-20c-5.33301 0 -9 0.333008 -11 1h-1h1c-42.667 2 -79 16 -109 42h-280l-14 -3c-26 -6 -47.667 -9 -65 -9c-8.66699 0 -17.334 0.333008 -26.001 1s-17 2 -25 4c-5.33301 -17.333 -13 -38.5 -23 -63.5s-23 -53.5 -39 -85.5h-3
c-64 -92 -267.333 -190.667 -610 -296l73 128c-18 2 -36.5 4.33301 -55.5 7s-38.833 5.66699 -59.5 9l20 -75h-392l56 141l5 11c-242.667 88.667 -364 248.667 -364 480c0 15.333 0.666992 31.166 2 47.499l4 50.5zM927.008 111.99h32
c-81.333 17.333 -153.666 52 -216.999 104h-118l-14 -47c51.333 -19.333 104.666 -32.333 159.999 -39c58 -12 110.333 -18 157 -18zM1575.01 582.99v-3v3zM458.008 -83.0098v-1l1 1h-1z" />
    <glyph glyph-name="less" unicode="&#x3c;" horiz-adv-x="584" 
 />
    <glyph glyph-name="equal" unicode="=" horiz-adv-x="584" 
 />
    <glyph glyph-name="greater" unicode="&#x3e;" horiz-adv-x="584" 
 />
    <glyph glyph-name="question" unicode="?" horiz-adv-x="430" 
d="M156 470c-6 7.33301 -10.833 14.668 -14.5 22.001s-5.83398 15 -6.50098 23c0.666992 6 3.5 11.5 8.5 16.5s11.5 7.5 19.5 7.5h3c12 0 24.333 -2 37 -6s24.334 -9.33301 35.001 -16s19.5 -14.167 26.5 -22.5s10.5 -16.833 10.5 -25.5v-1c0 -13.333 -3.66699 -29 -11 -47
c-60.667 19.333 -96.667 35.666 -108 48.999zM288 156.002l-23.9971 36.0029c-11.333 13.333 -22 22.333 -32 27c2.66699 0.666992 4 1.33398 4 2.00098l-2 -2c12 8 21.5 15.333 28.5 22s15.833 15.667 26.5 27l98 114c14.667 18.667 26.5 38.5 35.5 59.5
s13.5 40.833 13.5 59.5c-4 23.333 -13.667 45 -29 65s-33 37.167 -53 51.5s-40.667 25.666 -62 33.999s-40 12.5 -56 12.5h-15c-133.333 0 -211.333 -65 -234 -195c0.666992 -32 13.667 -62.667 39 -92c14 -14.667 29.167 -27.334 45.5 -38.001s31.833 -17 46.5 -19
c12 0 24.333 3.33301 37 10l29.5 16.5c15 8.33301 32.167 17.166 51.5 26.499l-8 -12l-9 -13l-138 -191c13.333 5.33301 26.166 10 38.499 14s23.833 8.33301 34.5 13l-17 -14c-6.66699 -6 -12.334 -12 -17.001 -18s-8.33398 -12.667 -11.001 -20
c0 -9.33301 1.5 -17 4.5 -23s7.83301 -14 14.5 -24l28 -39c10 -16.667 25.333 -27.334 46 -32.001c15.333 4.66699 28 11 38 19l43 34c17.333 13.333 26 28 26 44c0 14.667 -7 29.667 -21 45zM216.003 250.005c-13.333 -9.33301 -26.999 -16.3242 -40.999 -20.9912l71 97
c20 28 35.667 53.167 47 75.5s17 44.5 17 66.5c0 12.667 -4.83301 25.667 -14.5 39s-21.667 25.166 -36 35.499s-30.166 18.666 -47.499 24.999s-33.666 9.16602 -48.999 8.49902c-20 0 -35.167 -6.33301 -45.5 -19s-16.166 -26.334 -17.499 -41.001
c2 -26.667 12.333 -50.334 31 -71.001c19.333 -22.667 43.333 -37.334 72 -44.001l-12.5 -6.5l-18 -10c-6.33301 -3.66699 -12.5 -7.5 -18.5 -11.5s-10.667 -7.33301 -14 -10c-8 -4 -14 -6 -18 -6c-10.667 1.33301 -22.334 6.33301 -35.001 15s-24.334 18.667 -35.001 30
c-18.667 22 -28.667 43.667 -30 65c19.333 112.667 90.666 166.334 213.999 161.001c14 0 29.833 -3.33301 47.5 -10s34.667 -15.834 51 -27.501s30.666 -25.334 42.999 -41.001s20.166 -32.5 23.499 -50.5c0 -13.333 -3.66699 -28.333 -11 -45s-17 -32.667 -29 -48
l-97 -113c-10 -10.667 -18.167 -18.834 -24.5 -24.501s-14.166 -11.834 -23.499 -18.501zM229.004 159.014l22.001 -32.998c6 -6 9 -11 9 -15s-3.33301 -8 -10 -12l-36 -28c-2.66699 -3.33301 -7 -6 -13 -8c-4 0.666992 -8.33301 5 -13 13l-23 32
c-3.33301 5.33301 -5.83301 9.16602 -7.5 11.499l-2.5 3.5c0.666992 1.33301 4.66699 5.66602 12 12.999l34 27c7.33301 5.33301 11.666 8 12.999 8c4 0 9 -4 15 -12z" />
    <glyph glyph-name="at" unicode="@" horiz-adv-x="1015" 
 />
    <glyph glyph-name="A" unicode="A" horiz-adv-x="654" 
d="M475 518l5.99902 -5.00098c5.33301 -50.667 9.33301 -91.167 12 -121.5s3.33398 -51.166 2.00098 -62.499l-184 74zM374.999 610.999c-12.667 -28 -27 -49.333 -43 -64l6 -51l-17 43c-137.333 -96.667 -223.666 -197.667 -258.999 -303
c-34 -105.333 -40.333 -180.333 -19 -225c22 -46.667 52.333 -75.334 91 -86.001c100.667 -16.667 167 55 199 215c-80 -115.333 -139 -157 -177 -125c-44.667 60.667 -20.334 158 72.999 292l207 -116l36 -26l-22 -68l-29 -42h217c-70 255.333 -66.667 468 10 638
c-73.333 -35.333 -180.333 -29.333 -321 18c34 -25.333 50 -58.666 48 -99.999zM295.999 576.999c7.33301 7.33301 13.6689 14.668 19.002 22.001s10 14.666 14 21.999c-0.666992 20.667 -14.334 41.334 -41.001 62.001l40 76c42 -13.333 80 -23.666 114 -30.999
s65 -11 93 -11c19.333 0 45.833 6.16699 79.5 18.5s75.5 30.166 125.5 53.499c-70.667 -156 -106 -288 -106 -396c0 -50 5.16699 -106.833 15.5 -170.5s26.166 -134.834 47.499 -213.501h-360c-40 -88.667 -98.333 -133 -175 -133c-12 0 -24.333 1 -37 3
c-54 14.667 -95 51.667 -123 111c-11.333 26 -17 55 -17 87c0 44 11.667 101.667 35 173c34.667 102.667 126.667 211.667 276 327zM381.002 150.001c-10 -47.333 -22 -88.333 -36 -123l64 90l9 30l-9 7l5 -4l-172 96c-42 -66 -63 -119.333 -63 -160
c0 -7.33301 0.666992 -13.5 2 -18.5s3 -10.167 5 -15.5c24 4 64.333 47.333 121 130zM443.002 439.001l-35.999 -25l40 -16c-0.666992 6 -1.33398 12.5 -2.00098 19.5z" />
    <glyph glyph-name="B" unicode="B" horiz-adv-x="642" 
d="M486 210c-40 -48 -98.999 -63.667 -176.999 -47v143l8 4c143.333 6 199.666 -27.333 168.999 -100zM464.001 587c-4 -14.667 -27.333 -43.333 -70 -86l-51 -53.5c-12.667 -13 -21 -22.167 -25 -27.5l-1 11v177l8 2h30l9 2l60 2c22 -1.33301 35.333 -10.333 40 -27z
M37.001 528.001c-3.33301 -6 -5.5 -11.5 -6.5 -16.5l-2.5 -12.5c72.667 62.667 142.667 97 210 103l-107 -85l43 3c22.667 -160 -2 -315.667 -74 -467l21 2h51l12 3l247 2c29.333 -1.33301 52.666 0 69.999 4c30 12 53.333 29.667 70 53
c82.667 144.667 49.334 246 -99.999 304l137 183l4 5l21 31v38c-14 12.667 -28.667 20.667 -44 24l-16 1h-315c-130 -6.66699 -203.667 -65 -221 -175zM-31.999 387.001c2 17.333 4.16895 34.168 6.50195 50.501s4.66602 31.5 6.99902 45.5s4.66602 26.167 6.99902 36.5
s4.5 18.5 6.5 24.5c22 128.667 109.333 197 262 205h321l17 -3c26 -4 53.667 -20 83 -48v-71l-32 -49l-6 -6l4 5l-104 -139c80.667 -42.667 121 -103.667 121 -183c0 -48.667 -18.333 -104.334 -55 -167.001c-20 -28 -50.333 -50.333 -91 -67
c-19.333 -4.66699 -41.333 -7 -66 -7h-18l-241 -2l-13 -2h-53l-100 -9c75.333 158 113 292.333 113 403c0 11.333 -0.166992 22.5 -0.5 33.5s-0.833008 22.167 -1.5 33.5l-71 -6l-46 -36c-16 -12.667 -32.667 -26.667 -50 -42zM365.003 203.003
c35.333 0 62.6689 10.668 82.002 32.001c1.33301 5.33301 2 8.33301 2 9c0 12.667 -31.667 19.667 -95 21v-62c1.33301 -0.666992 3.16602 -0.833984 5.49902 -0.500977s4.16602 0.5 5.49902 0.5zM362.006 532.004c6.66699 6.66699 12.5 13 17.5 19s9.83301 11.333 14.5 16
l-25 -1l-7 -1v-33z" />
    <glyph glyph-name="C" unicode="C" horiz-adv-x="666" 
d="M195 692c-37.333 -14.667 -74.6709 -42.002 -112.004 -82.002c25.333 10.667 43 16 53 16c-7.33301 -8 -12.666 -17 -15.999 -27c-56 -309.333 61 -510.333 351 -603l-2 -88l-14 -29l-7 -18h127l-11 41l-9 68h7c212 -52 372.667 -64.333 482 -37l-12 -11l-14 -8
c-2 -2 -4.66699 -4.16699 -8 -6.5s-6.66602 -4.16602 -9.99902 -5.49902l-52 -30c-4 -2 -6.66699 -3.66699 -8 -5c-2 -0.666992 -4.83301 -1.5 -8.5 -2.5s-7.5 -2.83301 -11.5 -5.5l-2 -2c214.667 50.667 306 101.334 274 152.001c-62 -68.667 -203.333 -73.667 -424 -15
l-15 -16l-5 21c-55.333 10 -120.666 34.333 -195.999 73l-3 63l24 90l-131 12l31 -98v-34l-50 29l-3 4l-12 8l-51 46c-93.333 127.333 -124 261 -92 401c4 8 8.33301 15.167 13 21.5s9 11.833 13 16.5c104.667 58 157 -21 157 -237c100.667 92.667 117.667 199.667 51 321
l-6 -5l-34 -32c-59.333 44.667 -120.666 63 -183.999 55c-32 -10 -58.667 -23.667 -80 -41zM32.9951 624.998c49.333 53.333 94.999 89.333 136.999 108c24.667 18.667 56 34 94 46c7.33301 0.666992 14.5 1.16699 21.5 1.5s13.167 0.5 18.5 0.5
c53.333 0 103.333 -14.333 150 -43l8 8l54 37c48 -86 72 -154.667 72 -206c0 -80 -61.667 -176.667 -185 -290l230 -21l-36 -135l2 -29c32 -15.333 63.333 -28.166 94 -38.499s62 -18.166 94 -23.499v-2l100 -20.5c34.667 -7 71.334 -14.833 110.001 -23.5
c78 -17.333 167 0.333984 267 53.001c-22.667 -118 -139 -198 -349 -240l-44 66c-38 1.33301 -78.167 5.16602 -120.5 11.499s-88.5 15.166 -138.5 26.499v-2v2l25 -97h-256l29 83l11 22l1 45c-243.333 87.333 -365 252 -365 494c0 18.667 1 38.167 3 58.5
s4.66699 41.166 8 62.499zM299.994 485.998c0 -89.333 31 -177.333 93 -264l4 -3l-23 71l26 -3c0 210.667 -16.333 316 -49 316c-6.66699 0 -16.334 -3.33301 -29.001 -10c-1.33301 -2 -3.16602 -4.5 -5.49902 -7.5s-4.5 -6.5 -6.5 -10.5
c-3.33301 -15.333 -5.83301 -30.5 -7.5 -45.5s-2.5 -29.5 -2.5 -43.5z" />
    <glyph glyph-name="D" unicode="D" horiz-adv-x="865" 
d="M38 456l10.002 -15.998v7l5 19l11 36l24 38c7.33301 9.33301 14.666 17.666 21.999 24.999l19 19c4 2 7.83301 4.16699 11.5 6.5s7.83398 4.5 12.501 6.5l11 6l16 10l26 9l72 10c9.33301 -1.33301 17 -1.33301 23 0h14l7 -1h16l51 -7l9 -2l10 -3l9 -2l10 -2l9 -2
c128.667 -24.667 215.667 -76.334 261 -155.001c96.667 -166.667 36 -269 -182 -307c-9.33301 112.667 -4 224 16 334c7.33301 11.333 16.666 19 27.999 23l-10 8l-69 39c-10.667 8 -19.334 13.333 -26.001 16l-27 15l-19 11l-12 9l-28 13l28 -77l2 -13l5 -38
c-1.33301 -102 -3.5 -180.167 -6.5 -234.5s-6.16699 -86.5 -9.5 -96.5v-6l-19 -45c-14 -20 -29.333 -35.667 -46 -47h223c13.333 0 26 0.5 38 1.5s22.667 2.16699 32 3.5c186.667 52.667 267 166 241 340c-28 123.333 -96.333 211 -205 263l42 35l-362 16
c-234 -18 -331.667 -106.333 -293 -265zM-0.998047 432.002l-6.00293 12.998c-3.33301 13.333 -5.66602 26 -6.99902 38s-2 24.333 -2 37c0 148 115.333 230.333 346 247l482 -21l-81 -69c87.333 -59.333 144 -146.333 170 -261
c2.66699 -12.667 4.33398 -24.667 5.00098 -36s1 -22.333 1 -33c0 -162.667 -92.667 -270.667 -278 -324c-27.333 -4 -55.333 -6 -84 -6h-382c48.667 30.667 86.5 55.5 113.5 74.5s43.833 32.167 50.5 39.5l13 31v5c7.33301 18.667 13 125 17 319l-6 37l-2 10l-18 52h-16
l-6 2h-4c-2 -0.666992 -4.66699 -1 -8 -1h-6h-14l-59 -8l-18 -7l-12 -7l-13 -7c-3.33301 -3.33301 -6.33301 -5.33301 -9 -6c-5.33301 -3.33301 -9.66602 -5.66602 -12.999 -6.99902c-4 -3.33301 -8.16699 -7.66602 -12.5 -12.999l-14.5 -17l-17 -27l-11 -34l-3 -13v-162z
M656.999 435c-11.333 18 -24 33.334 -38 46.001c-11.333 -4.66699 -20.833 -8.33398 -28.5 -11.001s-13.167 -4.66699 -16.5 -6c-5.33301 -36 -9.5 -70.833 -12.5 -104.5s-4.5 -68.5 -4.5 -104.5v-25v-12c0 -4 0.333008 -8 1 -12c91.333 24 137 62.667 137 116
c0 30 -12.667 67.667 -38 113zM150.999 543.001h-1h1z" />
    <glyph glyph-name="E" unicode="E" horiz-adv-x="821" 
d="M259 544l0.000976562 -15.001l-3.5 -30c-1 -8.66699 -1.5 -16.667 -1.5 -24c-2.66699 -10.667 -4 -25 -4 -43l-3 -6v-20l-1 -6v-37l-2 -7v-57l2 -9v-23l1 -9c0 -6 1 -13.333 3 -22l6 -32l33 -77c2.66699 -1.33301 5 -3.5 7 -6.5l7 -10.5l8 -9l14.5 -14.5
c4.33301 -4.33301 8.83301 -8.16602 13.5 -11.499l18 -11l6 -2c4.66699 -2.66699 8.5 -4.5 11.5 -5.5s5.16699 -1.83301 6.5 -2.5l50 -17c102 -16 196.333 -9 283 21l6 4l18 6l4 5l23.5 12c6.33301 3.33301 11.166 6.66602 14.499 9.99902l8 10
c-144 -39.333 -260 -12 -348 82l-10 15l-8 13l-17 43l5 3c4 2.66699 7.5 4.5 10.5 5.5s5.16699 1.83301 6.5 2.5l11 4c12.667 6.66699 27.334 14 44.001 22c8.66699 4 15.667 6.83301 21 8.5s8.66602 2.83398 9.99902 3.50098c6.66699 4.66699 13 7.66699 19 9
c3.33301 2 6.5 3.66699 9.5 5s5.5 2.66602 7.5 3.99902l59 30l-12 1l-12 3l-20 2l-18 2c-9.33301 0 -19 1.66699 -29 5h-9l-21 4l-18 2l-16 2l-15 2l-24 2v22c0 4.66699 -0.666992 10.334 -2 17.001v65l-31 14l-9 7l-10 4l-24 13c-12 4.66699 -21.667 10 -29 16l-48 23
c0 -10 -0.666992 -15.667 -2 -17zM9.00098 681.999l7.00098 -12.002l15 -10l11 -9l55 -28l8 -2l50 -17l12 -2l54 -13l16 -2l10 -3c13.333 -2.66699 25.333 -4 36 -4l11 -2l24 -2c8.66699 -2.66699 20.334 -4 35.001 -4l68 -4l10 -3l108 -4
c4.66699 -0.666992 8.66699 -1.16699 12 -1.5s6.66602 -0.5 9.99902 -0.5l11 -4c6.66699 -0.666992 12.667 -1.66699 18 -3s10 -2.66602 14 -3.99902l18 -4l72 -28c8 -5.33301 14 -8.33301 18 -9l17 -10l15 -12l-24 84l-2 9l-6 15v6l-16 43
c-1.33301 7.33301 -2.83301 13.833 -4.5 19.5s-3.83398 10.834 -6.50098 15.501l-418 2l-15 3h-243zM212.002 543.997l-0.00585938 0.998047l-56 13l4 -1l-17 3l-48 17l-13 2l-66 33l-14 13l2 -2l-22 16l-56 88h328l16 -2l445 -2c6.66699 -14.667 12.167 -27.667 16.5 -39
s7.16602 -21 8.49902 -29l18 -47v-6l5 -11l2 -10v-2l61 -213l-123 92l-3 3l4 -3h-1l-12 7c-2.66699 1.33301 -5.66699 2.66602 -9 3.99902s-6.66602 3.66602 -9.99902 6.99902h-1l-63 24l-18 5c-3.33301 1.33301 -7.5 2.33301 -12.5 3s-10.5 1.33398 -16.5 2.00098l-9 3
c-2 0 -4 0.166992 -6 0.5s-4.33301 0.833008 -7 1.5h-1l-95 4l15 -7v-88c0 -0.666992 0.166992 -1.16699 0.5 -1.5s0.5 -0.833008 0.5 -1.5l15 -2h-1l20 -1l21 -5h9c7.33301 -2.66699 15 -4 23 -4l25 -4l-2 1l23 -1l14 -4h-4l156 -22l-187 -95c-6 -1.33301 -13 -5 -21 -11
c-5.33301 -0.666992 -10.666 -2.66699 -15.999 -6c-1.33301 -0.666992 -4.66602 -2.16699 -9.99902 -4.5s-12.666 -5.16602 -21.999 -8.49902l-20.5 -9.5c-6.33301 -3 -12.166 -6.16699 -17.499 -9.5l6 -11l6 -8c51.333 -55.333 115 -83 191 -83
c16.667 0 41.834 2.5 75.501 7.5s70.5 8.83301 110.5 11.5c-27.333 -69.333 -54.666 -107.666 -81.999 -114.999l-7 -8l-24 -8l-6 -4c-63.333 -22.667 -130 -34 -200 -34c-17.333 0 -35.5 0.833008 -54.5 2.5s-39.167 4.16699 -60.5 7.5l-54 18l-18 8l-10 3l-23 15l1 -1
c-6.66699 4 -13.5 9 -20.5 15s-13.5 12.667 -19.5 20l1 -1l-9 10l-8 10.5c-2.66699 3.66699 -5.66699 7.16699 -9 10.5l-38 90l-8 36c-2 10 -3 19 -3 27l-2 8v24l-2 9v66l2 7v38l2 6v23l3 6c0 18.667 1.33301 32.334 4 41.001c0 8 0.333008 16.333 1 25s1.66699 17.667 3 27
v10zM764.996 578.995v1v-2v1zM540.996 513.995c-0.666992 0 -1.16699 0.166992 -1.5 0.5l-0.5 0.5zM764.996 580.995v1v-2v1z" />
    <glyph glyph-name="F" unicode="F" 
d="M157 703l-9.99902 -9l-123 -123l91 14l105 17l-70 -49v-211v-246c-16 -20.667 -32.667 -37 -50 -49h238c-34.667 36 -53.667 71.667 -57 107v198l88 -25l6 -4c16.667 -6.66699 31 -13.667 43 -21l35 -20v28l-63 183l-7 -22l-4 -29l-4 -24c-32.667 26.667 -63 46 -91 58
l4 103l10 4l183 -8l32 -29l39 -58l39 239c-186.667 -44 -331.334 -52 -434.001 -24zM117.001 728l29.001 25.001c25.333 -6.66699 50.5 -11.834 75.5 -15.501s49.833 -5.5 74.5 -5.5c40 0 88.833 4.66699 146.5 14s125.5 23 203.5 41l-68 -418l-99 146l-17 15l-39 1l74 -214
v-114l-102 60c-12.667 7.33301 -25.334 13 -38.001 17l-7 5l-24 7v-133c2 -26 41.333 -78.667 118 -158h-489c77.333 54 127.333 91.333 150 112v425l-211 -33zM330.002 504.001c2 -1.33301 4.16699 -2.66797 6.5 -4.00098s4.83301 -2.66602 7.5 -3.99902l12 38l-25 2z" />
    <glyph glyph-name="G" unicode="G" horiz-adv-x="692" 
d="M75 358c17.333 -172 100 -295.665 248 -370.998c-70.667 -16.667 -130.667 -37 -180 -61s-90 -52 -122 -84c83.333 34 156.5 59 219.5 75s117.5 24.667 163.5 26h20l25 -4c9.33301 -3.33301 61.333 -18.333 156 -45c4.66699 -2.66699 11 -4 19 -4l135 -28h9l3 -2l61 -7
l17 -1h92c1.33301 0 3.33301 0.166992 6 0.5s5.66699 0.5 9 0.5l19.5 3.5c5.66699 1 10.834 2.16699 15.501 3.5l18 4c4 18 6.33301 16.667 7 -4l-44 -26c-13.333 -9.33301 -24.333 -15.333 -33 -18l-34 -17c194.667 48 308 117 340 207
c-46 -117.333 -185 -142.333 -417 -75c-60 12.667 -105.167 22.5 -135.5 29.5s-47.833 11.167 -52.5 12.5l-68 23c-12 144 36.667 239 146 285h-341l-3 -4l-17 -27l-4 -4l-38 -59l23 5c44 10.667 84.333 12.667 121 6c64 6 71 -49.333 21 -166l-25 10l-13 6l-35 20l-8 7
c-10 4.66699 -17.667 10 -23 16l-13 8c-125.333 133.333 -166.333 281 -123 443c24 21.333 49.667 35 77 41c8 0 15.333 -0.333008 22 -1s12.667 -2.66699 18 -6l4 -3c10.667 -8.66699 18.334 -16.334 23.001 -23.001l10 -18l15 -41v-5l5 -11l3 -32
c3.33301 -11.333 6.33301 -49 9 -113c103.333 93.333 120.666 197.666 51.999 312.999c-3.33301 -1.33301 -6.5 -2.83301 -9.5 -4.5s-6.16699 -4.16699 -9.5 -7.5l-23 -22c-60.667 44.667 -123.334 63 -188.001 55c-135.333 -49.333 -193 -151.333 -173 -306zM27 353.002
l-0.000976562 -0.99707c-1.33301 10 -2.33301 20.5 -3 31.5s-1 22.167 -1 33.5c0 143.333 71.667 241 215 293c7.33301 0.666992 14.5 1.16699 21.5 1.5s13.167 0.5 18.5 0.5c52.667 0 103.334 -14.333 152.001 -43c6.66699 5.33301 15.834 10.666 27.501 15.999l40.5 18
c46.667 -78.667 70 -143.334 70 -194.001c0 -52.667 -29 -113 -87 -181h256l18 -83c-46 -19.333 -80.333 -46 -103 -80s-34 -77 -34 -129v-6l38 -12h-1c4 -1.33301 20.833 -5.5 50.5 -12.5s74.5 -16.833 134.5 -29.5c50 -14 96 -21 138 -21c127.333 0 215 18 263 54l47 -1
c-37.333 -117.333 -164.333 -203 -381 -257l-20 54h-44l-17 2l-68 7l-2 1h-2l-137 29c-11.333 0 -21.333 2.33301 -30 7l-100 27.5c-24.667 7 -42 12.167 -52 15.5l-13 2h-18c-44 -1.33301 -97.333 -10.5 -160 -27.5s-137 -42.833 -223 -77.5l-49 70
c58.667 59.333 137.667 106.666 237 141.999c-106.667 83.333 -167.334 200 -182.001 350zM335.999 306.005l17.998 22.002h23c-1.33301 32.667 -2.66602 58.167 -3.99902 76.5s-2.66602 29.833 -3.99902 34.5l-4 25l-4 13v6l-11 27l-9 17
c-1.33301 1.33301 -2.83301 2.66602 -4.5 3.99902l-6.5 5h-7c-12 -2.66699 -25.333 -9.33398 -40 -20.001c-4 -16.667 -7 -32.667 -9 -48s-3 -31 -3 -47c0 -55.333 12 -108.333 36 -159l6 10l6 7zM414.997 155.007c-13.333 0 -25.334 -1.33301 -36.001 -4
c2 -2 4.16699 -4.33301 6.5 -7s4.5 -5 6.5 -7l14 -9c3.33301 -3.33301 6.33301 -5.83301 9 -7.5l9 -5.5l10 -8l19 -11c8 22.667 12 40.667 12 54c0 0.666992 0.333008 1 1 1h-11c-11.333 2.66699 -24.666 4 -39.999 4zM332.996 612.007l-2 2z" />
    <glyph glyph-name="H" unicode="H" horiz-adv-x="555" 
d="M66 707c2.66699 -5.33301 4.50098 -10.1689 5.50098 -14.502s1.83301 -8.16602 2.5 -11.499c1.33301 -6 2.66602 -11.667 3.99902 -17s2.33301 -10.333 3 -15v-187c-20 -256.667 46.667 -438.667 200 -546c30.667 -18 61.334 -32 92.001 -42s62 -15.667 94 -17
c-124.667 58.667 -201.334 154 -230.001 286l-4 15c-6 26 -10.667 44.333 -14 55c-1.33301 18.667 -3.33301 33.334 -6 44.001c52.667 54.667 109 88.334 169 101.001v-220c-6 -24.667 -17 -45 -33 -61l-3 -2l-10 -9l-8 -6h201c-2 10.667 -5 19.667 -9 27l-2 6l-1 12l-9 484
l3 12l1 22v7c1.33301 16 3.33301 29.667 6 41s6 22.333 10 33c2.66699 2 5.33398 3.5 8.00098 4.5s5 1.83301 7 2.5c-116.667 -4.66699 -170.334 -85.667 -161.001 -243c-70 -17.333 -128 -48 -174 -92l-3 6v225c0 21.333 2.66699 41.666 8 60.999
c13.333 24.667 28 42.667 44 54h-195c0 -4.66699 1.33301 -9.66699 4 -15zM26.001 686.997l-4 20c0 0.666992 -0.333008 1 -1 1v1l4 -18c-3.33301 7.33301 -5.33301 17.5 -6 30.5s-1 28.833 -1 47.5h388c-86.667 -60 -137.334 -99.667 -152.001 -119
c-3.33301 -13.333 -5 -27.666 -5 -42.999v-142c26 15.333 55.333 28.333 88 39c0.666992 162.667 71 247.334 211 254.001l9 -86l11 14c-3.33301 -7.33301 -5.83301 -15.5 -7.5 -24.5s-3.16699 -20.167 -4.5 -33.5v-6l-1 -30l-3 -10l9 -476l-1 6l1 -6v-3v-2v-1
c3.33301 -9.33301 7 -21.333 11 -36l13 -50h-241c37.333 -49.333 89 -89.333 155 -120l-18 -84c-42 1.33301 -81.167 7.66602 -117.5 18.999s-71.5 27 -105.5 47c-149.333 103.333 -224 269.666 -224 498.999c0 31.333 1 61.666 3 90.999v179
c-0.666992 2 -1.5 5.33301 -2.5 10s-2.5 10.334 -4.5 17.001c-0.666992 3.33301 -1.16699 6.33301 -1.5 9s-1.16602 4.66699 -2.49902 6zM279.001 155.997c2 -11.333 4.5 -21.833 7.5 -31.5s6.5 -19.167 10.5 -28.5l15 10l10 9l2 1c6.66699 8.66699 11.334 17.667 14.001 27
v150c-13.333 -6 -26.333 -13.333 -39 -22s-25.667 -18.667 -39 -30c0.666992 -3.33301 1.16699 -6.83301 1.5 -10.5s0.833008 -7.5 1.5 -11.5c1.33301 -6 3.16602 -13.333 5.49902 -22l7.5 -29l-1 4zM562.001 98.9971l-1 2v2zM561.001 102.997v1v-1zM561.001 100.997v-1v1z
" />
    <glyph glyph-name="I" unicode="I" horiz-adv-x="260" 
d="M91 696l-43 -59l49 -47v-472l-8 -15l-31 -44h185l-29 49v504l8 30l13 54h-144zM-6 632l80 109h213l-29 -113l-7 -25l1 -481l42 -109h-318l83 119v436z" />
    <glyph glyph-name="J" unicode="J" horiz-adv-x="631" 
d="M205 707l-7 -8.99902c-40 -40.667 -70.333 -72.5 -91 -95.5s-32.667 -37.167 -36 -42.5c131.333 46.667 253.333 59 366 37l4 -5l-2 -7c-0.666992 -9.33301 -3.5 -42.833 -8.5 -100.5l-22.5 -250.5l-5 -10l-6 -16l-11 -25c-38 -66 -96.333 -69.667 -175 -11l-11 6l-44 33
v15l52 117c-70.667 -32 -119.334 -79.333 -146.001 -142l2 -38c50 -86.667 118.667 -131 206 -133c54 -6.66699 103.667 0 149 20l28 25c44 66 99 115.667 165 149c-2 5.33301 -7.66699 18.666 -17 39.999s-22 52 -38 92c-31.333 80 -18 186.333 40 319c4 8 6 15.667 6 23
h-17l-4 2h-33l-14 2h-20c-17.333 -1.33301 -31.666 -1.33301 -42.999 0h-86l-7 3h-92l-17 2h-65zM183 753.001l90.998 0.000976562l18 -2h96l7 -3h80c3.33301 -0.666992 6.33301 -1.16699 9 -1.5s5 -0.5 7 -0.5c1.33301 0 3.83301 0.166992 7.5 0.5
s7.83398 0.833008 12.501 1.5h28l13 -2h37l5 -2h54c0 -21.333 -1 -40 -3 -56s-5 -27.667 -9 -35l2 4c-34.667 -82 -52 -151.333 -52 -208c0 -30 4.33301 -55 13 -75l24 -59.5l22 -53l17 -39.5c4.66699 -10.667 7.66699 -17.334 9 -20.001
c-42 -21.333 -79 -44.833 -111 -70.5s-59 -55.5 -81 -89.5l-33 -30c-44 -20.667 -89 -31 -135 -31c-16.667 0 -32 1 -46 3h4c-104.667 2.66699 -187.667 58 -249 166l-4 59c36.667 82 130.667 157 282 225l-92 -205l17 -11l8 -5c32.667 -24.667 58.334 -37 77.001 -37
c14 0 27 9.33301 39 28l10 23l-1 -2l6 16l1 3l18 197c4.66699 51.333 8 90 10 116c-11.333 1.33301 -22.333 2.33301 -33 3s-21.667 1 -33 1c-75.333 0 -193 -27.333 -353 -82c26.667 46.667 55.5 89.667 86.5 129s66.833 80.333 107.5 123z" />
    <glyph glyph-name="K" unicode="K" horiz-adv-x="611" 
d="M325 577l0.00195312 8.00293v25l11 41c4.66699 10 8.33398 16.333 11.001 19l47 74c-40 5.33301 -74 9.66602 -102 12.999s-48.667 5 -62 5c-126.667 0 -233.334 -72 -320.001 -216c40 6.66699 70.833 11.667 92.5 15s34.834 5.66602 39.501 6.99902s8.5 2.33301 11.5 3
s5.16699 1.33398 6.5 2.00098l-3 -1l17 2h-2h9c8 -28 14.333 -57.333 19 -88s7 -64 7 -100c0 -46 -4.33301 -99.167 -13 -159.5s-21.334 -129.5 -38.001 -207.5h329v13c69.333 -63.333 161 -96.333 275 -99c8 0 16.333 -0.166992 25 -0.5s16.667 -0.5 24 -0.5
c169.333 0 304.666 24 405.999 72l-29 85l-24 -5h3c-40.667 -5.33301 -78.667 -9.33301 -114 -12s-69 -4 -101 -4c-72.667 0 -133.334 7 -182.001 21c-80 20.667 -124.667 67.667 -134 141c-5.33301 38 -9 69.167 -11 93.5s-3 42.833 -3 55.5v4
c0 3.33301 0.833008 9.16602 2.5 17.499l8.5 42.5h-2l247 258l-58 67c-4.66699 -2.66699 -9.66699 -5.33398 -15 -8.00098s-10 -4.66699 -14 -6zM313.002 520.003l398.999 193.001c10 3.33301 16.333 6.33301 19 9l-329 -344c5.33301 2.66699 11.333 4.83398 18 6.50098
s13.667 3.16699 21 4.5l23 8h9c-3.33301 -24.667 1 -82 13 -172c12 -92.667 68.333 -153 169 -181c98.667 -27.333 237.667 -29.333 417 -6l13 3c-50 -22.667 -110 -39.167 -180 -49.5s-151.333 -14.166 -244 -11.499c-186 4 -306 100.333 -360 289l3 -26l3 -13l6 -24v-7
l20 -107v-6l4 -13v-8h-222c51.333 239.333 52 423.666 2 552.999l-4 4l-43 -2l-18 -2c-8.66699 -1.33301 -18.667 -3.33301 -30 -6s-24.333 -6.66699 -39 -12c67.333 95.333 178.333 131.666 333 108.999l-9 -14l-6.5 -11l-8.5 -14l-15 -55
c0 -4.66699 0.166992 -24.834 0.5 -60.501l1.5 -153.5l2 -12l2 -5l82 54c0.666992 36.667 -16.666 64 -51.999 82z" />
    <glyph glyph-name="L" unicode="L" horiz-adv-x="597" 
d="M22 491l100.999 80.001c38 -49.333 48.667 -168 32 -356c-12 -69.333 -41.667 -123 -89 -161c106 37.333 194.667 16.666 266 -62.001l219 146c-12.667 48.667 0.333008 84.334 39 107.001c-50 70 -95 93 -135 69l-21 -23l-9 -10l-4 -9
c-14.667 -19.333 -24.667 -37 -30 -53l70 55c2 -80.667 -29 -127.334 -93 -140.001c-63.333 -10.667 -91.666 29.333 -84.999 120v273l-59 12l58 14c-1.33301 56 26 84 82 84c-48.667 56 -77 86.333 -85 91h-45c-94 -22 -164.667 -101 -212 -237zM48.999 455.001l-70.001 52
c52.667 152 136 241 250 267h60c20.667 -12 79.667 -73 177 -183c-81.333 0 -124.666 -4.66699 -129.999 -14l-2 -33l-48 -6l42 -8v-280c-0.666992 -3.33301 -1 -7.33301 -1 -12v-10c0 -19.333 2 -33 6 -41c10.667 26.667 20 49 28 67s15.333 31.667 22 41l4 11l15 16l24 28
c10 6 20 10.833 30 14.5s20.333 5.5 31 5.5c46 0 102 -46 168 -138c-42.667 -26 -64 -46.333 -64 -61c0 -7.33301 4.33301 -25.333 13 -54l-279 -185c-56 62 -110.333 93 -163 93c-26.667 0 -59 -6.66699 -97 -20l-39 76c46.667 36.667 75 84 85 142l-1 -4
c2.66699 30 4.5 57.333 5.5 82s1.5 47.667 1.5 69c0 28 -0.833008 52.833 -2.5 74.5s-4.5 40.167 -8.5 55.5z" />
    <glyph glyph-name="M" unicode="M" horiz-adv-x="937" 
d="M607 256l-25.001 10.001l23 15l-16.5 113.5c-3.66699 25 -6.16699 42.833 -7.5 53.5c16 34 30.333 51 43 51c10.667 0 26.667 -11 48 -33c20.667 -20.667 31 -51 31 -91c0 -32 -6.16699 -68.333 -18.5 -109s-31.166 -86.334 -56.499 -137.001l-19 -9l-2 110v26z
M221.999 108.001h0.99707l-1 1l-2 5v-1c-7.33301 15.333 -11.333 28.666 -12 39.999c2 96.667 18.333 164.334 49 203.001l30.5 43l22.5 32c3.33301 5.33301 6.5 9.83301 9.5 13.5s5.5 7.16699 7.5 10.5l-1 -2l3 4.5c0.666992 1 1.33398 1.83301 2.00098 2.5
c12.667 -24 21.834 -49.667 27.501 -77s8.5 -56.333 8.5 -87c0 -53.333 -8.33301 -109.333 -25 -168l-44 -94c-29.333 19.333 -54.666 44 -75.999 74zM-16.0039 184.001c0 -21.333 1.17188 -42.5 3.50488 -63.5s5.5 -42.833 9.5 -65.5c60.667 -122 156 -183 286 -183
c18 0 34.667 1 50 3h68h5c4 0 7.66699 0.333008 11 1h3l39 7c8.66699 2 15.667 3 21 3c13.333 3.33301 19.666 5 18.999 5l102 73c-127.333 12.667 -212.333 27.667 -255 45l46 5c12 1.33301 20.333 2 25 2l14 3h295l278 -4c-38.667 30 -68.834 52.333 -90.501 67
s-35.834 23.667 -42.501 27c56 144 84 261.333 84 352c0 171.333 -87.333 257 -262 257c-50.667 0 -101.667 -6.33301 -153 -19c-22.667 -7.33301 -42.334 -16.333 -59.001 -27c-16.667 19.333 -35.5 36.166 -56.5 50.499s-44.167 26.833 -69.5 37.5h-161
c-12 -2 -27.833 -6 -47.5 -12s-48.834 -16.333 -87.501 -31l131 -94c-137.333 -127.333 -206 -273.666 -206 -438.999zM267.001 625.001l-110.001 78.999c6 2 12.167 3.66699 18.5 5s13.5 2.66602 21.5 3.99902h150c52.667 -21.333 94.667 -57 126 -107
c18 20 43 35.667 75 47c358.667 80 449.334 -102.667 272.001 -548c2 -11.333 15 -25 39 -41l-250 3l54 26c100 196.667 114.333 332 43 406c-71.333 73.333 -128.666 59.333 -171.999 -42c0 -5.33301 2.16699 -22.166 6.5 -50.499s10.166 -68.5 17.499 -120.5l2 -8l-31 -9
l33 -20v-154l-2 -9l33 -21h-167l-13 -2c-7.33301 0 -15.166 -0.5 -23.499 -1.5l-28.5 -3.5l25 54c46 160.667 36 294.334 -30 401.001c-12 4 -25 5 -39 3c-5.33301 -5.33301 -10.166 -10.833 -14.499 -16.5l-14.5 -18.5l-24.5 -35l-44.5 -62
c-36.667 -48.667 -56 -127 -58 -235c2 -15.333 7.66699 -34 17 -56l2 -5c66.667 -101.333 173 -151.666 319 -150.999c-6.66699 0 -14.334 -1.33301 -23.001 -4c-4 0 -12.667 -1.66699 -26 -5l-33 -5c-4 -0.666992 -7.33301 -1.16699 -10 -1.5s-4.66699 -0.5 -6 -0.5h-73
c-132 -14.667 -227.333 35.666 -286 150.999c-39.333 203.333 25 379.333 193 528c3.33301 3.33301 7.66602 7 12.999 11z" />
    <glyph glyph-name="N" unicode="N" horiz-adv-x="824" 
d="M15 488l-5.99707 -22l4 3c13.333 11.333 25.333 20.166 36 26.499s20.667 11.166 30 14.499l6 4c6 1.33301 11.5 2.83301 16.5 4.5s9.16699 3.83398 12.5 6.50098c1.33301 0.666992 3.33301 1.33398 6 2.00098s6 1.66699 10 3c5.33301 2 10.166 3.66699 14.499 5
s9.16602 2.66602 14.499 3.99902c4 2 7.83301 3.66699 11.5 5s7.5 2.33301 11.5 3c8.66699 0 14.667 1.66699 18 5l15 2l22 6c15.333 2 26.333 4.33301 33 7l-4 -5l-62 -50c6 -19.333 9 -36.666 9 -51.999c3.33301 -20 4 -33.667 2 -41v-245l-2 -4
c-4 -15.333 -9.33301 -28.333 -16 -39l-11 -24c-4 -8 -8.5 -16 -13.5 -24s-11.167 -16 -18.5 -24h342c-16 12 -29.667 19.667 -41 23l-9 7c-12.667 6.66699 -23.667 13.167 -33 19.5s-17.333 12.166 -24 17.499l-7 9l-18 22l-6 16l-3 7l-4 25l-2 9v8l-2 5v15l-2 4
c0 5.33301 -0.166992 10.166 -0.5 14.499s-0.833008 8.16602 -1.5 11.499v79l11 -14l10 -12c2.66699 -4.66699 5.16699 -8.5 7.5 -11.5l6.5 -8.5l118 -154c4 -5.33301 7.5 -10.333 10.5 -15s6.16699 -8.66699 9.5 -12l14 -15l6 -8l14 -20l17 -22h158
c109.333 354.667 100.666 552.334 -26.001 593.001c-57.333 8 -103 -7.33301 -137 -46l5 -3c38.667 3.33301 69.334 -1.33398 92.001 -14.001c10 -10 16.333 -19 19 -27c27.333 -152 7.33301 -284 -60 -396l-162 219c-38.667 54.667 -62.334 92 -71.001 112
c-16.667 36.667 -26.667 61.334 -30 74.001v18l8 4c22 6 40 13 54 21l14 -2l-5 5l-10.5 13.5c-3 3.66699 -6.16699 6.83398 -9.5 9.50098l-34 40l-8 4c-3.33301 4 -6.83301 7.33301 -10.5 10l-10.5 8h-47c-122 -49.333 -215.667 -120.666 -281 -213.999zM-28.9971 500
l6.00293 12.9951c36 50.667 79.667 95.334 131 134.001s111.333 72 180 100h68l21 -13.5c6.66699 -4.33301 12.667 -9.16602 18 -14.499l6 -3l40 -46l-1 3c3.33301 -3.33301 6.5 -7.16602 9.5 -11.499l10.5 -14.5l41 -40c58 62 114 93 168 93
c13.333 0 26.666 -1.33301 39.999 -4c92.667 -28.667 139 -110.667 139 -246c0 -103.333 -29.333 -249 -88 -437h-702c50 62 78.667 100 86 114l-1 -2l11 23c3.33301 5.33301 6.16602 11 8.49902 17s4.16602 11.667 5.49902 17v241c0.666992 2 1 4.66699 1 8
s-0.166992 7.33301 -0.5 12s-0.833008 9.66699 -1.5 15c0 4.66699 -2.66699 15.667 -8 33c-1.33301 0 -6 -1.66699 -14 -5c-2 -0.666992 -4 -1 -6 -1h-1c-5.33301 -3.33301 -10.833 -6 -16.5 -8s-11.834 -4 -18.501 -6l-3 -2
c-8.66699 -3.33301 -18.167 -7.66602 -28.5 -12.999s-21.166 -13.666 -32.499 -24.999l-111 -82zM556.006 555.995l-4.99609 3l10 -10l-137 18c-4 -3.33301 -9.33301 -5.66602 -16 -6.99902l8.5 -20c3 -7.33301 6.83301 -15.666 11.5 -24.999
c14 -32 74.333 -119.333 181 -262c22.667 58 34 120 34 186c0 18 -0.833008 36.167 -2.5 54.5s-3.83398 36.166 -6.50098 53.499c-0.666992 1.33301 -1.33398 2.16602 -2.00098 2.49902s-1.33398 1.16602 -2.00098 2.49902c-6 2 -12.667 3.66699 -20 5s-15.333 2 -24 2
c-2 0 -4.83301 -0.166992 -8.5 -0.5s-10.834 -1.16602 -21.501 -2.49902zM424.01 155.995l8 -6c2.66699 -2 5.66699 -4 9 -6l-43 57l2 -11l2 -3l-1 2l3 -9l16 -18zM247.01 514.995h3h-2h-1zM464.01 643.995l-2 2zM636.01 542.995v1v-1z" />
    <glyph glyph-name="O" unicode="O" horiz-adv-x="752" 
d="M443 478l2.00098 -7l9 -13l2 -6l10 -17l-2 5l30 -69c14 -29.333 22 -59.666 24 -90.999c-14 -20 -30.333 -35.333 -49 -46c-0.666992 0 -1 -0.333008 -1 -1l1 1c-0.666992 0 -1 -0.333008 -1 -1c-13.333 -6.66699 -26.5 -11.334 -39.5 -14.001s-25.167 -4 -36.5 -4
c-44.667 0 -86.667 24.667 -126 74l1 11l7 23c1.33301 2 2.5 4 3.5 6s2.16699 3.66699 3.5 5l2 5l7 21l4 9l40 67l8 7l5 15l11 13c2.66699 5.33301 7 11 13 17c3.33301 2 6.66602 3.5 9.99902 4.5s6.33301 2.16699 9 3.5h5c16 0 30.667 -3.66699 44 -11zM-89.999 478
l143.998 24.001l8 2l11 3l8 4l32 7l10 5l13 2l-31 -53l2 4c-7.33301 -10 -13.166 -19.667 -17.499 -29l-10.5 -23l-7 -13l-11 -25l1 3c-11.333 -24.667 -19 -44.667 -23 -60l-1 -3l-14 -49l4 -70l16 -28l35 -36l-1 1c5.33301 -6.66699 10.333 -11.834 15 -15.501
s9 -6.5 13 -8.5l4 -3c4.66699 -5.33301 9.66699 -9.83301 15 -13.5s11.666 -7.16699 18.999 -10.5c89.333 -63.333 178.333 -95 267 -95c84.667 0 166 28 244 84l19 15l6 6l15 13.5c4.66699 4.33301 9.66699 9.5 15 15.5l-1 -2l23 22l17 25c4 13.333 6.66699 25.833 8 37.5
s2 22.5 2 32.5v28l-9 39l-16 64c-4 6 -6.66699 12 -8 18l-11 30c-1.33301 1.33301 -2.33301 2 -3 2l-5 16l1 -1c-2.66699 5.33301 -4.66699 9.5 -6 12.5s-3.33301 6.16699 -6 9.5l-31 65l115 -46l46 64c-130 147.333 -276.333 221 -439 221
c-7.33301 0 -15.666 -0.166992 -24.999 -0.5s-17.666 -0.833008 -24.999 -1.5c-142 -30.667 -284.333 -127 -427 -289zM472.999 516.001l-5 4.99902c-22.667 16 -50 23 -82 21c-7.33301 -1.33301 -14.333 -3.5 -21 -6.5s-13.667 -6.5 -21 -10.5
c-10.667 -8.66699 -19.334 -18.667 -26.001 -30l-12 -15l-3 -9l-5 -4l-44 -76l-6 -13l-7 -18c-1.33301 -2 -2.5 -4.33301 -3.5 -7s-2.83301 -5.66699 -5.5 -9l-10 -35l-3 -32c72.667 -106.667 163.667 -134.334 273 -83.001c13.333 8.66699 26 18.834 38 30.501
s23.333 25.5 34 41.5c0.666992 44.667 -8.66602 86.334 -27.999 125.001l-30 67l-7 13l-2 7l-9 13l-2 6zM39.999 546l-10.0039 -0.998047c78 88.667 182.667 147.667 314 177c168 13.333 312.667 -49.334 434 -188.001l-102 41l-24 7l-9 1l-24 7
c-2.66699 0 -10 1.66699 -22 5l-13 2l-6 -2c4.66699 -6 9.66699 -15 15 -27l11 -17l1 -6c2.66699 -3.33301 5 -7 7 -11s4.33301 -8.33301 7 -13l39 -82c1.33301 -1.33301 2.5 -3.33301 3.5 -6s2.83301 -6.66699 5.5 -12l2 -8c0.666992 -2.66699 2.33398 -5.66699 5.00098 -9
l8 -22c1.33301 -4 2.5 -8 3.5 -12s2.83301 -7.66699 5.5 -11l15 -56l7 -33v-15c1.33301 -18 -1 -37.667 -7 -59l-9 -13l-21 -21c-3.33301 -3.33301 -7.16602 -6.83301 -11.499 -10.5s-9.16602 -8.16699 -14.499 -13.5l-9 -8l-13 -11
c-146.667 -104.667 -300 -100.334 -460 12.999c-12 5.33301 -21 12 -27 20l-11 7c-2 1.33301 -4.66699 3.33301 -8 6s-6.66602 5.66699 -9.99902 9l-32 34l-7 12l-2 52l11 42l2 4c1.33301 7.33301 3.66602 15 6.99902 23s7.33301 16.667 12 26l12 27l6 10
c1.33301 4 3.83301 10 7.5 18s9.16699 17 16.5 27l42 72l5 4l10 17c0.666992 1.33301 1.83398 3 3.50098 5s3.5 4.66699 5.5 8l13 22l10 13l-84 -15l-7 -2l-35 -6l-11 -6l-31 -6l-8 -4l-9 -2z" />
    <glyph glyph-name="P" unicode="P" horiz-adv-x="828" 
d="M390 595l37 -10c182.667 -44 264.667 -88 246 -132c-18 -44 -81 -72 -189 -84l16 95l11 30c4 6 9.33301 9.33301 16 10l-27 17c-5.33301 3.33301 -10.833 7 -16.5 11l-18.5 13l-65 43zM562 702l-13.001 -0.000976562c-242 50 -405 30.333 -489 -59
c-19.333 -30.667 -31 -59.334 -35 -86.001c-4.66699 -28.667 10 -62 44 -100v6l2 22l3 4c0 14.667 2.66699 29 8 43c54 66 124 93 210 81c29.333 -90 42 -156.667 38 -200c-2.66699 -21.333 -4.33398 -38.166 -5.00098 -50.499s-1 -20.166 -1 -23.499l-27 -18l1 -4
c8.66699 0 17.334 -3.33301 26.001 -10l-24 -173c-4 -15.333 -9 -27.666 -15 -36.999l-4 -4c-6.66699 -14 -15 -23.667 -25 -29l245 -2l-7 8l-19 31v6l-7 22l-1 22l4 114c277.333 10.667 386.666 101 327.999 271c-39.333 57.333 -88.666 97 -147.999 119l25 14
c6.66699 2.66699 12.334 5.66699 17.001 9s9 6.66602 13 9.99902l-22 1l-19 2l-14 3l-23 2l-28 2l-28 2zM317.999 774.999c72 0 150.666 -9.33301 235.999 -28h10l11 -1l29 -2l28 -3h-1l24 -1l19 -4l-4 1l19 -2h-1l122 -10l-38 -36.5l-32 -28.5
c36.667 -24.667 70.334 -59 101.001 -103c7.33301 -19.333 12.333 -37.333 15 -54s4 -32.667 4 -48c0 -138 -114.667 -215.667 -344 -233l-3 -69l1 -17l6 -21l13 -19l-2 2l2 -3l63 -79l-498 3c48 30 83.667 53.333 107 70s36.666 27.667 39.999 33l3 4
c1.33301 1.33301 2.33301 3.33301 3 6s1.66699 5.66699 3 9l18 132c-1.33301 0 -2.16602 0.166992 -2.49902 0.5s-0.833008 0.5 -1.5 0.5l-31 62l41 28c0.666992 7.33301 1.33398 15.5 2.00098 24.5s1.66699 19.167 3 30.5c0.666992 2 1 4.33301 1 7v6
c0 32.667 -9 78.667 -27 138h-4c-50.667 0 -94 -20 -130 -60c-2 -8 -3 -20.333 -3 -37l-3 -5l-1 -8v-123c-92.667 101.333 -139 171.333 -139 210c0 3.33301 0.166992 6.33301 0.5 9s1.16602 6.66699 2.49902 12l-1 -4c5.33301 36 20 71.333 44 106
c64.667 70 163 105 295 105zM629.998 466.999c-0.666992 2 -2.00195 3.33301 -4.00195 4c-21.333 -2.66699 -38.666 -4.66699 -51.999 -6s-21.666 -1.33301 -24.999 0l-4 -13l-5 -28c50 10 80 24.333 90 43zM245.996 120.999l0.5 0.5
c0.333008 0.333008 0.5 0.833008 0.5 1.5zM629.996 469.999v-3v3zM532.996 94.999v1l1 -1h-1z" />
    <glyph glyph-name="Q" unicode="Q" horiz-adv-x="1006" 
d="M31 218l-9 -4c4 0 7 1.33301 9 4zM723 559c70 -88 105.001 -179.999 105.001 -275.999l-2 -4c-8 -9.33301 -15.667 -17.5 -23 -24.5s-14.333 -13.167 -21 -18.5c-41.333 -32 -85.333 -46.667 -132 -44c3.33301 9.33301 4 16.666 2 21.999l33 154
c-11.333 12 -21.333 18 -30 18h-21h-18h-11c-3.33301 0 -7.33301 -0.333008 -12 -1l-5 -3c-16.667 -1.33301 -30.334 -3.33301 -41.001 -6l2 -11l5 -23c0 -5.33301 1 -12.333 3 -21l4 -29c0 -12 1 -22.333 3 -31v-7l4 -40l-25 16c-5.33301 2.66699 -10.5 5.5 -15.5 8.5
s-9.16699 6.83301 -12.5 11.5l-6 4l-34 34c-5.33301 15.333 -7 27.333 -5 36l2 4l9 37l41 82l7 15c4 5.33301 7.5 10.333 10.5 15s5.5 9.66699 7.5 15l7 8l18 28c9.33301 14.667 19.666 25.667 30.999 33l11 5c8 6 17.667 9.66699 29 11
c32.667 0.666992 59.334 -5.33301 80.001 -18zM269.001 577.001l20 7.00195l10 2l120 29l12 2c18.667 6.66699 36.334 9 53.001 7l-19 -24c-6 -12 -12 -21 -18 -27l-5 -7c-4 -8 -7.83301 -15 -11.5 -21s-7.5 -11 -11.5 -15l-23 -38
c-0.666992 -2 -1.33398 -3.83301 -2.00098 -5.5s-1 -2.83398 -1 -3.50098l-15 -24c-4.66699 -10.667 -9 -19.334 -13 -26.001l-14 -30c-5.33301 -8 -8.33301 -14 -9 -18l-7.5 -20.5c-2.33301 -6.33301 -5.16602 -11.833 -8.49902 -16.5c-130 14 -226 -29.333 -288 -130
c206 45.333 366 -12 480 -172c12 -11.333 21 -21.333 27 -30l25 -24l11 -9l22 -16l3 -4l35 -23c5.33301 -4 10.166 -7.16699 14.499 -9.5l10.5 -5.5l14 -7l25 -14c207.333 -79.333 354 -22.333 440 171c-117.333 -121.333 -248.666 -152.666 -393.999 -93.999l-28 9l-46 22
l-4 4l-16 9c-4.66699 2.66699 -8.66699 5.66699 -12 9v23c146.667 4.66699 258.667 60.667 336 168c0 3.33301 1.66699 10 5 20l-2 64l-3 6l-3.5 14.5c-1 4.33301 -2.16699 8.5 -3.5 12.5l-13 49l-3 9l-6 18l-9 18l-52 -4l42 27l-16.5 37.5
c-5.66699 13 -12.167 26.833 -19.5 41.5c-0.666992 3.33301 -2 6 -4 8l-6 7l-6 13l-8 16l-3 6c-2.66699 4 -4.66699 7.5 -6 10.5s-2.66602 5.5 -3.99902 7.5l-16 26l7 1l27 -6c4.66699 0 7.66699 -1 9 -3c20 -3.33301 36.5 -6.5 49.5 -9.5s23.833 -7.16699 32.5 -12.5l8 -2
c5.33301 -1.33301 9.66602 -2.5 12.999 -3.5s6.66602 -2.16699 9.99902 -3.5c24 -12 43 -20.333 57 -25c-130.667 143.333 -283 208.666 -457 195.999c-136.667 -30 -247 -92.333 -331 -187zM-11.999 252.003l39.0059 15.001c79.333 87.333 164 131 254 131h15
c1.33301 1.33301 2.83301 4.33301 4.5 9s3.16699 8.33398 4.5 11.001l2 4l15 32l6.5 13c2.33301 4.66699 4.83301 10 7.5 16l18 29c-2 -2 -3 -2.66699 -3 -2l28 47l-69 -17l2 1l-9 -3h1l-20 -6l-51 76c90 102 209.667 169.667 359 203
c7.33301 0.666992 16.166 1.16699 26.499 1.5s19.166 0.5 26.499 0.5c170.667 0 325 -76.667 463 -230l-43 -66c-17.333 5.33301 -33.333 10.833 -48 16.5s-27.334 11.167 -38.001 16.5l2 -1c-1.33301 1.33301 -3.5 2.33301 -6.5 3s-6.5 1.66699 -10.5 3h1l-15 3
c-2 1.33301 -3.83301 2.33301 -5.5 3s-3.83398 1.66699 -6.50098 3l3 -8c6.66699 -12.667 13.334 -26.834 20.001 -42.501l22 -51.5l12 -22l8 -26l4 -10l12 -48c1.33301 -3.33301 2.16602 -6.5 2.49902 -9.5s1.16602 -5.83301 2.49902 -8.5l3 -11l-1 6l6 -14l2 -79
c-1.33301 -4 -2.5 -8.16699 -3.5 -12.5s-1.5 -9.83301 -1.5 -16.5c-70 -97.333 -158.333 -159.333 -265 -186l3 -1c42 -16.667 82.667 -25 122 -25c79.333 0 156.666 39.667 231.999 119l75 -47c-38 -84 -83.667 -146.333 -137 -187s-116.333 -61 -189 -61
c-60 0 -119.667 11.667 -179 35l-34 19l1 -1l-14 7l1 -1l-13 7.5c-5.33301 3 -11.666 7.16699 -18.999 12.5l2 -1l-42 27l-5 6l-16 12l-18 14l-26 26c-4 5.33301 -8.5 10.5 -13.5 15.5l-15.5 15.5c-80 112.667 -183.667 169 -311 169c-18.667 0 -47 -3.16699 -85 -9.5
s-86.333 -15.833 -145 -28.5l28 41c9.33301 13.333 18.666 25.666 27.999 36.999zM779.007 299.004c-2.66699 77.333 -31.998 152 -87.998 224c-5.33301 2.66699 -11.666 4.5 -18.999 5.5s-14.666 1.5 -21.999 1.5h-1c-1.33301 -0.666992 -3 -1.33398 -5 -2.00098
s-3.66699 -1.66699 -5 -3l-12 -6c-2.66699 -1.33301 -5 -3.5 -7 -6.5l-7 -10.5l-21 -30l-4 -5c-2.66699 -5.33301 -5.33398 -10.333 -8.00098 -15s-6 -9.66699 -10 -15l-4 -10l-1 -1c1.33301 0 2.66602 0.166992 3.99902 0.5s2.66602 0.5 3.99902 0.5l8 5
c2 0 5.33301 0.166992 10 0.5s8.66699 0.5 12 0.5h31h26c23.333 -1.33301 48.666 -18.666 75.999 -51.999l-28 -134c14 6 28.667 14.667 44 26l14 12.5c4.66699 4.33301 9 8.83301 13 13.5zM855.009 582.004c1.33301 -1.33301 5 -2 11 -2c-2 0 -3.83301 0.166992 -5.5 0.5
s-3.5 0.833008 -5.5 1.5z" />
    <glyph glyph-name="R" unicode="R" horiz-adv-x="900" 
d="M553 560c11.333 -3.33301 22.333 -7 33 -11s21 -8.66699 31 -14l-4 4c2 -2 4.16699 -3.83301 6.5 -5.5s4.5 -3.5 6.5 -5.5c-4 -6 -9 -10.667 -15 -14l-27 -16l-5 -1l-3 -2c-3.33301 -1.33301 -5.33301 -2.33301 -6 -3l-1 -1l-44 -17c3.33301 14 7.5 28.167 12.5 42.5z
M658 764l-17.001 2.00391h1c-79.333 12 -151.666 18 -216.999 18c-227.333 0 -412.666 -90.667 -555.999 -272h121c48 13.333 93.167 24.666 135.5 33.999s82.833 16.666 121.5 21.999l4 -10l9 -16l5 -82l43 -13l-48 -27l2 -267c0 -3.33301 -0.166992 -7 -0.5 -11
s-0.5 -7.66699 -0.5 -11c-10 -14 -26.333 -27 -49 -39l20 -75h365l-36 70l-26 41c-6 24 -11 45.333 -15 64c140.667 -178 332 -267 574 -267c6 0 13.167 0.166992 21.5 0.5s17.166 0.666016 26.499 0.999023s18.5 0.833008 27.5 1.5s16.5 1.33398 22.5 2.00098l13 79
c-289.333 117.333 -434 218 -434 302c0 8.66699 7.33301 32 22 70l-34 12c48.667 32.667 80.667 56.667 96 72c10 32.667 15 62.667 15 90c0 43.333 -12.667 85.666 -38 126.999l-23 23l-56 34l-13 1c-11.333 5.33301 -22 9.66602 -32 12.999s-19.667 6 -29 8h-14z
M292.999 593.004l102 6l9 1h71c14.667 0 26 -1.33301 34 -4l4 -5c-64 -144.667 -71.333 -304.667 -22 -480l24 -39l4 -9h-263c11.333 6 21 13.5 29 22.5s15.667 19.5 23 31.5c0.666992 5.33301 1.16699 11 1.5 17s0.5 12.333 0.5 19v273l45 20l-47 19l2 68l-13 38l-4 16v6z
M633.999 721.004l12.998 -2.00098l8 -3c2.66699 -0.666992 6 -1 10 -1h9c7.33301 -1.33301 15 -3.33301 23 -6s17.333 -6.66699 28 -12l9 -2l45 -27l15 -15c29.333 -48 35.333 -102.667 18 -164c-7.33301 -7.33301 -25 -20.5 -53 -39.5s-67 -43.5 -117 -73.5l-4 -4
c23.333 -13.333 53 -18.333 89 -15l4 -2c-45.333 -118 99.667 -245 435 -381c-314 -23.333 -544.333 101.334 -691 374.001c-7.33301 18 -11 38 -11 60c7.33301 0.666992 14.833 1.83398 22.5 3.50098s17.167 4.5 28.5 8.5l69 27
c2.66699 0.666992 5.33398 1.66699 8.00098 3s6.33398 3.33301 11.001 6l5 2l28 16c20 11.333 34.667 30 44 56c-7.33301 18 -20.333 33.333 -39 46c-140 73.333 -359.667 67.333 -659 -18h-15c124 155.333 346.333 209.666 667 162.999z" />
    <glyph glyph-name="S" unicode="S" horiz-adv-x="598" 
d="M397 699c-161.333 15.333 -255.665 -20.998 -282.998 -108.998c-10.667 -43.333 -8.33398 -86 6.99902 -128l17 -26c9.33301 -12 19.333 -22.333 30 -31l45 -31l35 42l-18 -57l194 -128c30.667 -22.667 30 -44.334 -2 -65.001c-130.667 -18 -219 33 -265 153
c-110.667 -52.667 -157 -130.334 -139 -233.001c54 40.667 108 43.667 162 9c70.667 -52.667 145 -66.334 223 -41.001c96 19.333 155.333 65 178 137c18 78 -10.333 136 -85 174l-174 105l-75 43c-12.667 44.667 2.66602 72 45.999 82c42.667 10 111.667 -28 207 -114
c22.667 142.667 -21 233.334 -131 272.001c14.667 -20 24 -38 28 -54zM70.001 601.002c28.667 94.667 110.668 143.668 246.001 147.001c-7.33301 12 -16.166 25.5 -26.499 40.5l-34.5 50.5c197.333 -67.333 296 -163.333 296 -288c0 -13.333 -1.5 -32.166 -4.5 -56.499
s-8.16699 -56.5 -15.5 -96.5c66.667 -38.667 100 -93.334 100 -164.001c0 -8 -0.5 -16.667 -1.5 -26s-2.83301 -19 -5.5 -29c-28 -90 -98.667 -146.667 -212 -170l4 1c-15.333 -4.66699 -29.833 -8.16699 -43.5 -10.5s-28.167 -3.5 -43.5 -3.5
c-62 0 -120.333 20.333 -175 61h2c-16.667 10.667 -33.334 16 -50.001 16c-20.667 0 -60.334 -23 -119.001 -69c-6.66699 36 -11.167 63.667 -13.5 83s-3.5 33 -3.5 41c0 91.333 58.667 169.666 176 234.999l-3 3c-6 4.66699 -12.333 10.667 -19 18l-24 26l-19 30
c-12.667 30 -19 62 -19 96c0 12 0.666992 23.333 2 34s3.33301 21 6 31zM288.002 543.003l56.002 -33l164 -99c-52 46 -94.833 80.833 -128.5 104.5s-57.834 35.5 -72.501 35.5c-0.666992 0 -1.5 -0.166992 -2.5 -0.5s-1.83301 -0.5 -2.5 -0.5
c-8.66699 -2 -13.334 -4.33301 -14.001 -7zM211.004 317.003c40.667 -72 94.333 -108 161 -108h2z" />
    <glyph glyph-name="T" unicode="T" horiz-adv-x="589" 
d="M331 610c-2 2.66699 -1.99902 7 0.000976562 13l6 22l3 9l14 64c-138 4 -252 -34 -342 -114c2 -3.33301 5.33301 -5 10 -5l15 5l8 1h9l52 8l5 3c3.33301 0 6.33301 0.166992 9 0.5s5.33398 0.833008 8.00098 1.5l15 2c21.333 0 38.666 1 51.999 3
c21.333 0 38.666 -2.16699 51.999 -6.5s24.333 -10.5 33 -18.5c0.666992 -10 0.666992 -18 0 -24l-6 -11l-6 -5l-2 -5l-20 -16c-6 -4.66699 -10.667 -10 -14 -16c66.667 -80.667 87 -168.334 61 -263.001c-12 -92 -46.667 -167.667 -104 -227c4 -2 7.5 -3.5 10.5 -4.5
s5.16699 -1.83301 6.5 -2.5c103.333 -7.33301 183 25.667 239 99c5.33301 3.33301 10.666 6.5 15.999 9.5s10.333 5.16699 15 6.5c16 0 29 1.33301 39 4c-16.667 10.667 -28.667 21.334 -36 32.001c-56.667 95.333 -70 195.333 -40 300c12 54 38.667 99.667 80 137
c34 10.667 66 13.667 96 9c8.66699 -2 16.334 -7.33301 23.001 -16l-22 -93c4 0.666992 9.66699 4.66699 17 12l144 108v7c-67.333 72 -147 102 -239 90c-84.667 -22 -153.667 -61.667 -207 -119zM412.001 764l-8.99805 -39.9951c38 20.667 79.333 37.334 124 50.001
c10.667 1.33301 20 2.33301 28 3s14.667 1 20 1c90.667 0 173.334 -40.333 248.001 -121v-47l-162 -122l5 3c-7.33301 -7.33301 -21.333 -14.5 -42 -21.5s-43.667 -13.833 -69 -20.5l28 128c-6 -0.666992 -12.333 -1.33398 -19 -2.00098s-13.667 -2 -21 -4
c-29.333 -29.333 -49.333 -65 -60 -107c-4.66699 -16 -8 -32.167 -10 -48.5s-3 -32.166 -3 -47.499c0 -56 15.333 -111.333 46 -166c1.33301 -1.33301 4.66602 -4 9.99902 -8l21 -16c18 -13.333 26.667 -30.333 26 -51c2 -10 -9 -18 -33 -24
c-12 -2.66699 -22.5 -4.83398 -31.5 -6.50098s-16.5 -2.83398 -22.5 -3.50098c-1.33301 -0.666992 -2.83301 -1.33398 -4.5 -2.00098s-3.5 -1.33398 -5.5 -2.00098c-30 -38 -65.333 -66.167 -106 -84.5s-86.334 -27.5 -137.001 -27.5h-17
c-6.66699 0 -11.334 0.333008 -14.001 1h-3c-5.33301 1.33301 -15.833 5.5 -31.5 12.5s-34.5 16.167 -56.5 27.5c78.667 82 123.667 164.667 135 248c8 26 12 49.333 12 70c0 53.333 -26.667 112.666 -80 177.999c8 17.333 15.333 30.666 22 39.999s13 16.333 19 21l-2 -2
l3 2c-3.33301 0.666992 -6.5 1.16699 -9.5 1.5s-6.5 0.5 -10.5 0.5c-14 -2 -31.333 -3 -52 -3l-15 -2c-0.666992 -0.666992 -2 -1 -4 -1s-3.33301 -0.333008 -4 -1h-1l-70 -11h-3l-20 -6c-12.667 0 -26.5 4.83301 -41.5 14.5s-30.167 22.167 -45.5 37.5
c118 106 247.667 159 389 159h79zM45.0029 559.005h6h-1h-5z" />
    <glyph glyph-name="U" unicode="U" horiz-adv-x="711" 
d="M89 695c7.33301 -11.333 13.668 -22.332 19.001 -32.999s9.33301 -21 12 -31v-331c-2.66699 -16.667 -2.66699 -32 0 -46c0 -12 1 -21.333 3 -28l-13 8l-75 45c77.333 -158 196.333 -233.667 357 -227c156 22.667 255 108.667 297 258
c-4.66699 -2.66699 -7 -4.66699 -7 -6l-87 -66l-3 8l3 9v367c8.66699 28.667 24.667 53 48 73h-195l4 -13c9.33301 -26 15 -45.333 17 -58c62 -146.667 49.333 -276.667 -38 -390c-16 -13.333 -33 -22.333 -51 -27c-24 0 -44.333 4.66699 -61 14c-20 14 -35 29.667 -45 47
l-8 11c-45.333 98.667 -54.333 200.667 -27 306l-34 35l40 -7c1.33301 12.667 2.66602 22.167 3.99902 28.5s2 10.166 2 11.499c1.33301 10 2.83301 18.833 4.5 26.5l4.5 21.5l-38 2c-12 -3.33301 -56.333 -6 -133 -8zM50.002 670.001l37.001 70.0039
c40 1.33301 70.5 2.66602 91.5 3.99902s33.833 2.66602 38.5 3.99902l102 -4c-6.66699 -24 -11.667 -43.667 -15 -59s-5.66602 -28 -6.99902 -38c-0.666992 -1.33301 -1.83398 -8.5 -3.50098 -21.5s-4.16699 -34.833 -7.5 -65.5l-6 1
c-3.33301 -18 -5.83301 -34.667 -7.5 -50s-2.5 -29.666 -2.5 -42.999c0 -57.333 11.667 -112 35 -164l9 -12c3.33301 -6 7.5 -11.833 12.5 -17.5s11.167 -10.834 18.5 -15.501l-3 2c8 -4.66699 18.333 -7.33398 31 -8.00098c4 1.33301 8 3 12 5s8 4.66699 12 8
c43.333 56.667 65 118 65 184c0 24.667 -2.83301 50.167 -8.5 76.5s-14.834 53.5 -27.501 81.5c-1.33301 8 -3.33301 16.667 -6 26s-6.33398 19.666 -11.001 30.999l-20 75h379c-38 -32 -67.333 -58.333 -88 -79s-34 -36.667 -40 -48v-284l14 10l-7 -9
c8.66699 8 22.5 16.5 41.5 25.5s42.5 19.167 70.5 30.5c-64 -227.333 -186 -354 -366 -380c-3.33301 0 -6.83301 -0.166992 -10.5 -0.5s-7.16699 -0.5 -10.5 -0.5c-168.667 0 -317.667 130.667 -447 392l149 -88v317c-2 6.66699 -5.16699 13.667 -9.5 21
s-9.16602 15 -14.499 23z" />
    <glyph glyph-name="V" unicode="V" horiz-adv-x="511" 
d="M348 680l-18.999 -6.00195c4.66699 -1.33301 9 -2.66602 13 -3.99902s7.66699 -2.66602 11 -3.99902l43 -26c-15.333 -176.667 -51 -308.334 -107 -395.001l-95 311c4 18 9.33301 32.333 16 43c-10 4 -19 6 -27 6h-136l3 -6
c15.333 -9.33301 26.666 -21.666 33.999 -36.999l7 -19l77 -299h17l-15 -20l17 -85l-22 -23l-23 -23l-46 -48h347l-4 6l-66 62c32 58.667 60.167 134.5 84.5 227.5s45.5 206.833 63.5 341.5l-49 -2h-124zM296.001 710.998l43.001 14h131l102 4
c-19.333 -142.667 -40.833 -263.5 -64.5 -362.5s-50.5 -180.5 -80.5 -244.5l44 -41l66 -81h-547l121 125l24 24h-1l5 5l-16 80l1 2l-75 296l1 -5l-6 16c-2.66699 5.33301 -12.334 13.666 -29.001 24.999l-39 82h207c6 0 16.667 -2.16699 32 -6.5s35.333 -10.5 60 -18.5
c-8 -13.333 -15 -26.166 -21 -38.499s-10.667 -22.5 -14 -30.5l58 -190c24 66 41 149 51 249l-18 11l2 -1c-2 0.666992 -5.5 1.66699 -10.5 3s-12.167 3 -21.5 5z" />
    <glyph glyph-name="W" unicode="W" horiz-adv-x="947" 
d="M385 306c-16 -33.333 -30.333 -50.001 -43 -50.001s-29 10.667 -49 32c-20.667 20.667 -31 50.667 -31 90c0 63.333 25.667 146.333 77 249l19 8v-125l-13 -3l19 -51c5.33301 -40 9.83301 -72.167 13.5 -96.5s6.16699 -42.166 7.5 -53.499zM744 644.999l1.00195 -1.00098
c3.33301 -8 6.16602 -15.167 8.49902 -21.5s3.83301 -12.166 4.5 -17.499v1c-1.33301 -97.333 -17.333 -167 -48 -209l-31.5 -44l-23.5 -32c-8 -11.333 -13 -18 -15 -20c-0.666992 -1.33301 -1.33398 -2.5 -2.00098 -3.5s-1.33398 -2.16699 -2.00098 -3.5
c-12 25.333 -21.167 51.5 -27.5 78.5s-9.5 56.5 -9.5 88.5c0 25.333 1.83301 51.333 5.5 78s9.83398 55 18.501 85l46 97c31.333 -20 56.333 -45.333 75 -76zM983.002 570.998c0 20.667 -1.16797 41.333 -3.50098 62s-5.5 42.334 -9.5 65.001
c-63.333 123.333 -159 185 -287 185c-17.333 0 -34 -1 -50 -3h-67h-5c-2 0 -4 -0.333008 -6 -1c-1.33301 -0.666992 -3.33301 -1 -6 -1h-5l-35 -4c-13.333 -3.33301 -22.333 -5 -27 -5c-5.33301 -1.33301 -9 -2.5 -11 -3.5l-3 -1.5v-93h7c56 0 103.667 -8.33301 143 -25
c-17.333 -2.66699 -31.833 -4.66699 -43.5 -6s-20.167 -2 -25.5 -2l-14 -1h-316l-251 4l85 -65c20.667 -15.333 34.667 -25 42 -29c-54.667 -142 -82 -259.333 -82 -352c0 -172 86.667 -258 260 -258c44.667 0 98.334 6.66699 161.001 20
c9.33301 3.33301 18.333 7.16602 27 11.499s16.667 8.83301 24 13.5c35.333 -39.333 77.333 -68 126 -86h160c11.333 0 29 4.33301 53 13s51 19 81 31l-129 92c138 126.667 207 273 207 439zM700.001 129.997l110.002 -78.9971c-5.33301 -2 -11.333 -3.83301 -18 -5.5
s-13.667 -2.83398 -21 -3.50098h-150c-51.333 20 -93.666 55.667 -126.999 107c-19.333 -19.333 -44.666 -35 -75.999 -47c-357.333 -81.333 -448 101.667 -272 549c-0.666992 8.66699 -13.334 22.334 -38.001 41.001l251 -5l-55 -25
c-100.667 -198.667 -115.667 -334 -45 -406c70.667 -72.667 128.667 -59 174 41c0 9.33301 -8 66.666 -24 171.999l-2 7l31 10l-33 21v153l2 9l-33 21h166l15 2c6.66699 0 14.167 0.5 22.5 1.5l28.5 3.5l-26 -53c-45.333 -159.333 -35 -293.333 31 -402
c12.667 -5.33301 25.667 -6.33301 39 -3c5.33301 5.33301 10 10.666 14 15.999l14 19c5.33301 6.66699 13.666 18 24.999 34l45 62c36.667 50.667 55.667 129.334 57 236.001c-0.666992 9.33301 -2.33398 18.666 -5.00098 27.999s-6.33398 18.666 -11.001 27.999l-2 5
c-66 102 -172.333 152 -319 150c5.33301 0 13 2 23 6c8 0 17 1.33301 27 4l32 5c4 0 7.33301 0.166992 10 0.5s4.66699 0.5 6 0.5h73c130 16 225.333 -34 286 -150c39.333 -203.333 -24.667 -379 -192 -527l-15 -12.5c-5.33301 -4.33301 -11.333 -8.83301 -18 -13.5z" />
    <glyph glyph-name="X" unicode="X" horiz-adv-x="724" 
d="M296 743c-47.333 0 -91.667 -11.332 -133 -33.999c-40.667 -22 -92.334 -57.667 -155.001 -107l-40 -56l46 -1l190 18l73 -177l-81 -177l-145 -198l68 1h350l-3 3l131 2l181 3c-136 126 -224 241 -264 345c40 107.333 101 191 183 251l-18 122l-273 -2l-2 -71l-11 66
c-19.333 3.33301 -37.666 6.16602 -54.999 8.49902s-31.333 3.5 -42 3.5zM462.999 340.001l-12.001 -28.999l-51 -112l-42 -111l18 -37h-278l105 76l264 538l1 24l176 -2l12 -45c-73.333 -26.667 -137.666 -127.334 -192.999 -302.001zM417.998 483.002l14 -31
c73.333 -212 162 -345.667 266 -401h-58h-212l15 56l-213 501c-22.667 -2.66699 -49.334 -5.5 -80.001 -8.5s-67 -7.83301 -109 -14.5l-4 -2c42 44 88.333 74.833 139 92.5s108.334 21.5 173.001 11.5l5 -36l3 -7c0 -5.33301 1.16699 -11 3.5 -17l7.5 -19l4 -19l4 -4l4 -12
c0 -2 2.33301 -7.33301 7 -16l8 -21zM402.998 201.002l65 155l-69 172l-72 -149z" />
    <glyph glyph-name="Y" unicode="Y" horiz-adv-x="494" 
d="M304 404h-22c-69.333 76.667 -65.333 162.667 12 258l-254 10l22 -42c6 -9.33301 11 -17.833 15 -25.5s8.33301 -15.167 13 -22.5l8 -14l9 -14c7.33301 -14 16.666 -30.333 27.999 -49l61 -109c12.667 -18.667 22.334 -35 29.001 -49l27 -45
c-4 -86 -29.667 -153.333 -77 -202l-6 -7l-28 -34l307 -1c-58 127.333 -69.667 234 -35 320l60.5 143l74.5 180h-229c28.667 -133.333 23.667 -232.333 -15 -297zM23 611l-56.001 108.997l307 -11l-4.5 17.5c-1.66699 6.33301 -3.16699 12.833 -4.5 19.5h353l-43 -104
l-45.5 -108l-42 -99.5l-32.5 -78.5h1c-14.667 -38 -19.667 -80.333 -15 -127c6 -47.333 30.333 -119.666 73 -216.999l-475 1l93 110l4 7c40 40 63.667 95 71 165l-22 36c-5.33301 12.667 -13.666 27 -24.999 43l-63 111c-4 6.66699 -7.5 12.834 -10.5 18.501
s-6.16699 10.834 -9.5 15.501c0 0.666992 -3 6.66699 -9 18l2 -4l-9 14l-10 15l-12.5 23c-4.33301 8 -9.5 16.667 -15.5 26zM277.999 500.997c0.666992 -8 2.66797 -15.667 6.00098 -23c6 25.333 8.66699 53 8 83c-10.667 -24 -15.334 -44 -14.001 -60z" />
    <glyph glyph-name="Z" unicode="Z" horiz-adv-x="632" 
d="M134 704l-7.99902 -15.001l-86 -183c72 78 147 100 225 66l-11 -19c-5.33301 -12 -25 -49 -59 -111l-147 -268l-20 -66c-4 -28.667 39.667 -51 131 -67c46 -7.33301 88.833 -10.666 128.5 -9.99902s77.5 6 113.5 16c70 19.333 130 59 180 119l18 20
c5.33301 6 10.333 11 15 15l4 11l-132 86l-3 -8c4 -14.667 5 -29 3 -43c-50.667 -66.667 -107.334 -108 -170.001 -124l-13 8c-3.33301 2 -6.66602 4.66699 -9.99902 8c-126.667 82 -53.334 218.667 219.999 410l-52 155h-327zM86.001 708.999l21.998 41h385l74 -218
c-192.667 -134.667 -289 -234.334 -289 -299.001c0 -19.333 14.667 -38.666 44 -57.999c0.666992 -0.666992 1 -1.33398 1 -2.00098c40.667 14.667 80.334 45.334 119.001 92.001c-0.666992 5.33301 -2.66699 14 -6 26l25 77l210 -136l-18 -58l-20.5 -18.5
c-6.33301 -5.66699 -12.166 -12.167 -17.499 -19.5l1 1c-57.333 -67.333 -125.333 -112 -204 -134c-43.333 -12 -89 -18 -137 -18c-19.333 0 -39.333 1 -60 3s-42 4.66699 -64 8c-112 20 -168 56.333 -168 109v10l22 74l123 225l69 127h-2
c-38.667 0 -82.667 -25.667 -132 -77l-70 49z" />
    <glyph glyph-name="bracketleft" unicode="[" horiz-adv-x="278" 
 />
    <glyph glyph-name="backslash" unicode="\" horiz-adv-x="278" 
 />
    <glyph glyph-name="bracketright" unicode="]" horiz-adv-x="278" 
 />
    <glyph glyph-name="asciicircum" unicode="^" horiz-adv-x="469" 
 />
    <glyph glyph-name="underscore" unicode="_" 
 />
    <glyph glyph-name="grave" unicode="`" horiz-adv-x="333" 
 />
    <glyph glyph-name="a" unicode="a" horiz-adv-x="399" 
d="M141 188l-1.49902 0.998047l-4.5 3l5 -4c-0.666992 0.666992 -1.16699 1.33398 -1.5 2.00098s-0.833008 1.33398 -1.5 2.00098l6 -3c-0.666992 -0.666992 -1.33398 -1 -2.00098 -1zM97.001 401.998c-24.667 -10 -46.834 -27.167 -66.501 -51.5s-32.5 -52.5 -38.5 -84.5
c-4 -22 -6 -42 -6 -60c0 -32 5.66699 -57.667 17 -77c20.667 -36.667 50.334 -56 89.001 -58c2.66699 -0.666992 5 -1 7 -1h7h13c20.667 0 38.667 6.66699 54 20h242c-30.667 94.667 -46 167.667 -46 219c0 25.333 6.33301 56.833 19 94.5s32.334 82.5 59.001 134.5
c-87.333 -28 -143 -42 -167 -42c-35.333 0 -80.333 8 -135 24l-35 -69c5.33301 -4 9.66602 -7.66699 12.999 -11l8 -8c-2 -3.33301 -4.5 -6.5 -7.5 -9.5s-5.5 -5.16699 -7.5 -6.5l8 -24zM239.001 379.998l-3.00195 2l-87 -53l98 -34
c0.666992 5.33301 0.333984 14.833 -0.999023 28.5s-3.66602 32.5 -6.99902 56.5zM174.999 422.998c2 18.667 -7.33301 36.332 -28 52.999c84.667 -26 156.667 -29.333 216 -10c-45.333 -88 -47 -199.333 -5 -334h-155l17 22l14 36l-22 13l-125 61
c-12 -37.333 -5 -71.666 21 -102.999c28.667 -26 57.334 -18.667 86.001 22c-5.33301 -55.333 -38.333 -78.333 -99 -69c-22.667 0 -41.334 12 -56.001 36c-12.667 24 -14.667 60.333 -6 109c9.33301 51.333 40 89 92 113l29 -9l-5 25c5.33301 4 10 9 14 15s8 12.667 12 20z
" />
    <glyph glyph-name="b" unicode="b" horiz-adv-x="403" 
d="M21 352l-1 2v-1c0.666992 0 1 -0.333008 1 -1zM117 95l204.001 -1.99805c80 2 120 36 120 102c0 19.333 -3.66699 38.666 -11 57.999c-16.667 43.333 -36.334 76.666 -59.001 99.999c14 18 21 37.333 21 58c0 10.667 -1.83301 21 -5.5 31s-9.5 19.333 -17.5 28l1 -2
c-12 15.333 -23.333 28.5 -34 39.5s-21.667 19.5 -33 25.5l3 -1c-13.333 8.66699 -29 13 -47 13c-9.33301 0 -19.833 -1.16699 -31.5 -3.5s-24.5 -5.83301 -38.5 -10.5c-26.667 10.667 -57.667 17 -93 19l-140 -143l72 -41v-164l-56 -111zM192.001 207.002l97 1
c0 44 -33 71.333 -99 82v-77zM192.001 336.002l16.999 5c50.667 33.333 44.334 66 -18.999 98v-37v-61zM68 394.002l-38.0029 23.001l85 86c10 -0.666992 20.833 -2.5 32.5 -5.5s23.5 -7.16699 35.5 -12.5l5 -3c47.333 17.333 78 21.333 92 12
c8.66699 -4.66699 17.334 -11.334 26.001 -20.001s18.334 -20 29.001 -34c24 -26.667 12.333 -58.667 -35 -96c34.667 -8 63.334 -43.333 86.001 -106c24 -64 2 -97 -66 -99l-203 1l-70 -1l26 52v176c0 5.33301 -0.5 10 -1.5 14s-2.16699 8.33301 -3.5 13z" />
    <glyph glyph-name="c" unicode="c" horiz-adv-x="473" 
d="M-3 344l-0.00292969 1c-2 -9.33301 -3.33301 -18.833 -4 -28.5s-1 -19.167 -1 -28.5c0 -72.667 29 -129 87 -169c43.333 -27.333 90 -41 140 -41c17.333 0 34.833 1.66699 52.5 5s35.834 8 54.501 14c95.333 32 151 90 167 174l-45 56c-46.667 -56 -95 -90.667 -145 -104
l2 1c-2 -0.666992 -5.33301 -1 -10 -1h-11c-17.333 0 -31.666 2.33301 -42.999 7c-40 12 -60 31.333 -60 58c0 12 3.66699 28 11 48c0 -0.666992 8.66699 2 26 8c16 6 34.667 9 56 9c8.66699 0 17.5 -0.333008 26.5 -1s18.833 -2 29.5 -4h73
c-26.667 166.667 -107 250 -241 250l-14 -79l18.5 -7.5c5.66699 -2.33301 10.834 -4.83301 15.501 -7.5c-107.333 -20 -169 -73.333 -185 -160zM259.997 469c-6 39.333 -34 67.999 -84 85.999c99.333 0 158 -54.333 176 -163h-20c-52.667 8 -95.667 5.66699 -129 -7
c-32 -12 -49.667 -24 -53 -36c-30.667 -82.667 -5 -136 77 -160c13.333 -4.66699 27 -7.66699 41 -9s29 -0.666016 45 2.00098c60 14.667 113 49.667 159 105c-26 -72 -79 -121.667 -159 -149c-81.333 -27.333 -151.333 -21.333 -210 18c-56.667 38.667 -77.667 99 -63 181
s88 126 220 132z" />
    <glyph glyph-name="d" unicode="d" horiz-adv-x="413" 
d="M243 263c0 -3.33301 -0.333008 -5.33301 -1 -6l3 3c-8.66699 -14.667 -20.667 -22 -36 -22h-9v80c28.667 -22.667 43 -41 43 -55zM68 516l-98.998 -86.998l30 -38c8.66699 -10.667 15.667 -19.667 21 -27v-126c0 -13.333 0.333008 -25.833 1 -37.5s3 -24.167 7 -37.5
l2 -7c12 -22 30.667 -42.667 56 -62h159c11.333 0 23.666 0.666992 36.999 2s26.333 3 39 5c33.333 22 59 46.667 77 74c24 30.667 36 63 36 97c0 6.66699 -0.833008 14.167 -2.5 22.5s-3.83398 17.833 -6.50098 28.5l-9 13v-2c-4 7.33301 -7.83301 13.666 -11.5 18.999
l-10.5 16l-55 60l-71 55l-14 11l-74 43l-38 -21c-9.33301 3.33301 -18.5 5.66602 -27.5 6.99902l-27.5 4l-20 -13zM225.002 352.002l-68 48.001v-179l3 -11l7 -7c54 -16 92 -3.66699 114 37c14 35.333 -4.66699 72.666 -56 111.999zM12.002 428.003l79.001 52l7 5
c6.66699 -0.666992 13.834 -2 21.501 -4s15.5 -5.33301 23.5 -10l36 19l53 -32l10 -7l71 -56l46 -50l10.5 -14.5c3.66699 -5 7.16699 -11.167 10.5 -18.5l6 -8c12 -36.667 4.33301 -71.667 -23 -105c-13.333 -22 -33 -41.333 -59 -58
c-20.667 -4 -43.334 -5.66699 -68.001 -5h-135c-12 9.33301 -22.667 22.333 -32 39l-2 4c-3.33301 10 -5 20 -5 30v38v127c-8.66699 24 -25.334 42 -50.001 54z" />
    <glyph glyph-name="e" unicode="e" horiz-adv-x="485" 
d="M8 338c-0.666992 -3.33301 -1 -8.33398 -1 -15.001v-15c0 -84.667 27.667 -148 83 -190c18 -12.667 37.333 -22.5 58 -29.5s37.334 -10.5 50.001 -10.5l12 25l6 -25c17.333 0 34.666 1.66699 51.999 5s35.333 8 54 14c93.333 30.667 151.666 86.667 174.999 168l-54 62
c-38 -46 -76 -77.333 -114 -94v115h71c-28 167.333 -126 248 -294 242l41 -71l17.5 -7.5c5.66699 -2.33301 10.834 -5.16602 15.501 -8.49902c-106.667 -20 -164 -75 -172 -165zM257 468.999c-6 40 -33.665 68.668 -82.998 86.001c98.667 0 157 -54.333 175 -163h-21
c-52.667 8 -95.334 5.66699 -128.001 -7c-32 -11.333 -49.333 -23.333 -52 -36c40.667 -19.333 86.667 -21.333 138 -6v-90c-38 26 -79.667 31 -125 15l-9 -4c10 -31.333 34 -56.333 72 -75c24.667 -8.66699 53 -11 85 -7c60.667 15.333 113.667 50.666 159 105.999
c-25.333 -73.333 -78.333 -123.333 -159 -150c-80.667 -26 -145 -21 -193 15c-48.667 36.667 -70.334 97 -65.001 181c7.33301 84 76 129 206 135z" />
    <glyph glyph-name="f" unicode="f" horiz-adv-x="358" 
d="M35 498l-90 -93l47 -44l17 3l2 -183l-63 -85l340 -2c-64 58 -97 92 -99 102v43h1c9.33301 -2 15.333 -4.33301 18 -7l84 -49v96l-31 80l74 -94l51 276c-103.333 -22.667 -180 -34 -230 -34c-28.667 0 -59 4 -91 12zM-8 406l75.001 63.998l6 4
c62.667 -15.333 149.667 -11 261 13l-23 -124l-24 31l-19 14l-109 4h-8l-2 -55c9.33301 -3.33301 18.5 -7.16602 27.5 -11.499s18.5 -10.166 28.5 -17.499l2 13l2 13l4 12l37 -94v-15l-19 11c-5.33301 4.66699 -14 8 -26 10l-6 3l-52 12v-102
c3.33301 -19.333 14.666 -37.666 33.999 -54.999h-159c9.33301 5.33301 19.333 13.666 30 24.999l-1 254l-55 -11z" />
    <glyph glyph-name="g" unicode="g" horiz-adv-x="480" 
d="M206 267v1v-1zM1 417c-14.667 -30 -22.001 -61.6709 -22.001 -95.0039c0 -54 20 -109.333 60 -166c39.333 -55.333 91 -83 155 -83c27.333 0 57 5 89 15l-6 -29l-1.5 -0.5c-1 -0.333008 -2.16699 -1.16602 -3.5 -2.49902v-20l-36 -116c34.667 10 61.334 19.333 80.001 28
s31.667 17.667 39 27l22 35l-1 -1c2 3.33301 3.66699 6.5 5 9.5s2.66602 6.16699 3.99902 9.5l-2 -5l2 2l18 50c1.33301 5.33301 2.5 10.333 3.5 15s2.16699 9.33398 3.5 14.001c0 2 0.666992 5.66699 2 11v-2l7 22l3 32c38.667 38.667 72.667 116.334 102 233.001l-108 -81
l-6 -8c-3.33301 7.33301 -7.33301 14.5 -12 21.5s-10 14.167 -16 21.5h5c-11.333 91.333 -36.5 158.833 -75.5 202.5s-92.833 65.834 -161.5 66.501l-14 -83c10.667 -4 19.334 -8.33301 26.001 -13c-76 -9.33301 -129.667 -46 -161 -110zM239.999 484.996l7 3.00098
c-9.33301 42 -37 72 -83 90c99.333 -0.666992 156.666 -58.667 171.999 -174c-144 16 -205 -30.333 -183 -139c36.667 -63.333 94.667 -87.333 174 -72c-0.666992 6 -2.16699 12.333 -4.5 19s-5.16602 13.667 -8.49902 21c-7.33301 9.33301 -15.333 18.166 -24 26.499
s-18.667 16.166 -30 23.499c-2.66699 1.33301 -5 2.83301 -7 4.5s-4.66699 3.5 -8 5.5l-4 2c-3.33301 3.33301 -6.16602 6 -8.49902 8s-23.833 6.66699 -64.5 14c80.667 12 142.667 28.333 186 49c22.667 -58.667 33 -106.334 31 -143.001l21 19c2 2 4.16699 4 6.5 6
s4.83301 4.66699 7.5 8c4 3.33301 7.16699 6.33301 9.5 9s4.16602 5 5.49902 7c2 0.666992 5.33301 5 10 13l3 3l6 4c-10 -41.333 -34.333 -75.333 -73 -102l-5 -44l-6 -19c-1.33301 -5.33301 -2.5 -10.666 -3.5 -15.999l-3.5 -18l-15 -43
c-1.33301 -1.33301 -2.5 -3.5 -3.5 -6.5s-2.5 -6.16699 -4.5 -9.5l-20 -34c-4.66699 -6.66699 -10.667 -11 -18 -13l13 42v7c1.33301 1.33301 3 6 5 14l7 38v7c0 1.33301 0.333008 3 1 5s1 4.66699 1 8l1 16v34c-116.667 -60.667 -202 -52.667 -256 24
c-54.667 78.667 -65.667 150.334 -33 215.001c30.667 66.667 97 96 199 88z" />
    <glyph glyph-name="h" unicode="h" horiz-adv-x="396" 
d="M185 220c0 5.33301 4.00098 10.668 12.001 16.001c-0.666992 -4.66699 -1.83398 -9.33398 -3.50098 -14.001s-3.16699 -9.66699 -4.5 -15c-2.66699 6 -4 10.333 -4 13zM183.001 369.002c2.66699 3.33301 5 7 7 11s4.33301 8 7 12l5 -20
c-3.33301 -0.666992 -6.5 -1.16699 -9.5 -1.5s-6.16699 -0.833008 -9.5 -1.5zM81.001 497.002l-132.998 0.000976562c42 -61.333 63 -101.666 63 -120.999l30 -15l-29 -6c-0.666992 -32 -5.33398 -69.333 -14.001 -112s-21 -95 -37 -157c10 0 22.5 0.166992 37.5 0.5l45.5 1
c15.333 0.333008 29.666 0.666016 42.999 0.999023s23.333 0.5 30 0.5c18 0 42 -1.33301 72 -4s63 -2.33398 99 0.999023h145c-43.333 98.667 -65 171 -65 217c0 48 26.333 111.667 79 191h-169l3 3h-200zM14.0029 455.003l68 1.00098h109c-58 -68 -77 -120 -57 -156
c34 27.333 74.667 37.333 122 30l-30 122h144c-58.667 -88.667 -59 -196.667 -1 -324h-157l-11 1l18 35c33.333 93.333 33.333 135 0 125c-92 -26.667 -100.667 -80.334 -26 -161.001c-5.33301 0.666992 -13.166 1.16699 -23.499 1.5s-22.833 0.5 -37.5 0.5
s-31.5 -0.166992 -50.5 -0.5s-40.833 -0.833008 -65.5 -1.5c49.333 183.333 48.666 292.333 -2.00098 327z" />
    <glyph glyph-name="i" unicode="i" horiz-adv-x="221" 
d="M74 513l-112 -92.002c34.667 -26 56.667 -43 66 -51c2.66699 -5.33301 4 -10.333 4 -15v-182c6 -46 30.333 -75 73 -87h26l12 2l-2 -1l12 2l65 13l39 46c-25.333 23.333 -40 36 -44 38v302c-21.333 12.667 -40.833 22.334 -58.5 29.001s-36.167 11.334 -55.5 14.001z
M23 423.998l77 54.999l10 8c9.33301 -1.33301 18.833 -3.66602 28.5 -6.99902s19.834 -8.33301 30.501 -15v-279l1 -13c4.66699 -12 15.667 -22 33 -30l-4 -2l-49 -10l-16 -1l-7 -2h-15c-20.667 6 -32.667 22.667 -36 50v177c0 11.333 -3 23 -9 35
c-10.667 16 -25.334 27.333 -44.001 34z" />
    <glyph glyph-name="j" unicode="j" horiz-adv-x="391" 
d="M169 231l1.99902 9c-5.33301 -18 -10 -27 -14 -27c-7.33301 0 -17 4 -29 12c-0.666992 0.666992 -2 1 -4 1c8.66699 18.667 24.334 43.667 47.001 75l-2 -67v-3zM26.999 435l-62.998 -92.999c108 17.333 173.667 21.666 197 12.999h12
c-106 -50.667 -170.333 -96 -193 -136l3 -49c46 -64.667 101.333 -97 166 -97c13.333 0 27.666 1.33301 42.999 4s32.666 7.66699 51.999 15l7 9c3.33301 2 6.16602 4.16699 8.49902 6.5l6.5 6.5c24.667 34 60 63.667 106 89c-13.333 26 -23.166 48.667 -29.499 68
s-9.5 35.333 -9.5 48c0 40.667 27.667 104.667 83 192h-338zM28.001 376.001l31.0039 33.002l41 60h261c-74.667 -74.667 -89.667 -157.667 -45 -249c-28 -14.667 -54.667 -40 -80 -76c-2 -2 -4.16699 -4 -6.5 -6s-4.83301 -4 -7.5 -6l-4 -4
c-82.667 -28.667 -147.334 -10 -194.001 56l-1 25c17.333 31.333 43.666 54.666 78.999 69.999c-6.66699 -9.33301 -12.334 -19.5 -17.001 -30.5s-8.33398 -22.833 -11.001 -35.5c3.33301 -4 7.5 -7.66699 12.5 -11s11.167 -7.66602 18.5 -12.999
c54.667 -34.667 90 -21 106 41l5 162c-28 5.33301 -56.833 6.66602 -86.5 3.99902s-61.5 -9.33398 -95.5 -20.001h-6z" />
    <glyph glyph-name="k" unicode="k" horiz-adv-x="450" 
d="M750 48l5.99902 6.99707l-22 18l-20 45c-20.667 -4 -39.834 -7.16699 -57.501 -9.5s-33.167 -3.5 -46.5 -3.5c-105.333 0 -188 51.333 -248 154l-14 29c-0.666992 2 -1 5 -1 9v10c0 1.33301 0.166992 3.5 0.5 6.5s2.83301 11.5 7.5 25.5l-41 -2l75 34l25 24l-2 -1
c8.66699 6.66699 20.667 20.334 36 41.001c16 20 17.667 42 5 66l-188 3c-6 -21.333 -12.667 -40.666 -20 -57.999s-15.666 -32.333 -24.999 -45c1.33301 16 6 36.167 14 60.5s19.667 53.5 35 87.5h-281l31 -77l4 -6l17 -50l-1 4l2 -13c2 -8 3 -15 3 -21l2 -156
c0 -3.33301 -0.333008 -5.66602 -1 -6.99902c0 -1.33301 -0.166992 -3.33301 -0.5 -6s-0.5 -4.66699 -0.5 -6c0 -4 -0.166992 -8 -0.5 -12s-0.833008 -7.66699 -1.5 -11l-15 -80c56 -18 97 -27 123 -27c29.333 0 68 10.667 116 32
c102.667 -86.667 201.334 -130 296.001 -130c61.333 0 123.333 20.667 186 62l-5 8zM721.999 83.9971l-6 -7zM62.999 487.997l-3.00098 5.00098l-5 12h144c-26.667 -58.667 -32 -122.667 -16 -192c60.667 28 100 77 118 147h112c-7.33301 -11.333 -17.333 -22.333 -30 -33
l-105 -99l-29 -22l47 14h6c-1.33301 -6.66699 -1.66602 -13.667 -0.999023 -21s1.66699 -15.333 3 -24l18 -37c87.333 -147.333 215.333 -202.666 384 -165.999c-141.333 -94 -307 -42.333 -497 155l-16 16l13 -56l-21 -16l24 -2l6 -19l1 -11
c-38 -18.667 -83.667 -19 -137 -1l8 43c2 10.667 3 20.667 3 30c0 3.33301 0.166992 6.16602 0.5 8.49902s0.5 6.16602 0.5 11.499l-1 156c0 11.333 -1.33301 21.333 -4 30l-2 12z" />
    <glyph glyph-name="l" unicode="l" horiz-adv-x="322" 
d="M75 529l-26.001 -18.999l-8 -5l-55 -41l15 -55c18 -8.66699 30 -16 36 -22c0.666992 -2.66699 -3.66602 -6.66699 -12.999 -12l38 -8l-24 -18l-13 -144l-14 -30c-9.33301 -15.333 -12.333 -44.333 -9 -87h86l6 2h14l7 1h10l19 4h6h7c4 0 7 0.333008 9 1l83 2l5 -2h8
c18 -6.66699 44 -10 78 -10l1 173v51h-65l-39 -13c-17.333 -28.667 -33.333 -45.334 -48 -50.001l14 264l-30 14l-11 4c-18 9.33301 -39.667 16 -65 20zM71.999 475.001l29.999 22l8 7c6 -1.33301 12.167 -3 18.5 -5s12.833 -5.33301 19.5 -10l10 -3l3 -2l-15 -277
c50 -12 89 6 117 54l20 7h18v-9l-1 -130c-11.333 0 -21.333 3.33301 -30 10h-10l-5 1l-89 -1c-2.66699 0 -5.16699 -0.333008 -7.5 -1s-5.16602 -1 -8.49902 -1h-8l-19 -3h-13l-7 -2h-13l-6 -2h-49c1.33301 8 5 16.333 11 25l18 37l1 6l13 153l37 18l-35 7
c0 8 -2.33301 18 -7 30c-8 14.667 -21 26 -39 34l-2 6l33 24z" />
    <glyph glyph-name="m" unicode="m" horiz-adv-x="488" 
d="M229 488c-23.333 12 -54.6689 17.999 -94.002 17.999c-23.333 0 -68.333 -5 -135 -15c2.66699 -17.333 5.33398 -31.666 8.00098 -42.999s6.33398 -20.333 11.001 -27l-3 3l6 -11c-25.333 -45.333 -38 -90 -38 -134c0 -58.667 28.333 -121.334 85 -188.001h61h-1h234
c-0.666992 2 -1 4.66699 -1 8s-0.333008 6 -1 8l47 -11l15 29l18 34l-2 -2c0.666992 2.66699 3 5.33398 7 8.00098l20 47l5 4l25 70h1l1 3l-38 14l42 3l6 26v72l-16 37c-1.33301 0 -2.33301 0.333008 -3 1c8 8 18.333 30.667 31 68h-198l-5 -2
c-32.667 -2 -62 -8.66699 -88 -20zM324.997 465.999l3.99805 1.99707h128c-3.33301 -3.33301 -6.66602 -5.66602 -9.99902 -6.99902s-7.33301 -2.66602 -12 -3.99902l-25 -16l-3 -3c17.333 -2 33.666 -9.66699 48.999 -23l8 -19v-58l-5 -21l-31 -11l24 -16l-19 -50l-4 -4
l-20 -47l-1.5 -3c-1 -2 -2.83301 -5 -5.5 -9l-17 -33l-6 -10c0.666992 11.333 -0.166016 34.333 -2.49902 69s-6.83301 82.334 -13.5 143.001c-10 8.66699 -21.333 15.334 -34 20.001c-15.333 1.33301 -30 -2.66699 -44 -12c10.667 -20 21 -94 31 -222h-101
c18.667 24.667 22 55.667 10 93c-24 111.333 -58.667 152.333 -104 123l-9 -21c5.33301 -36 13.833 -69.667 25.5 -101s26.834 -62 45.501 -92l-94 -2c-76.667 88.667 -82 182 -16 280l-18 32c-2.66699 0.666992 -4.66699 5 -6 13c46 6 83.333 7.83301 112 5.5
s49 -9.5 61 -21.5l20 6c11.333 5.33301 24 9.66602 38 12.999s29 5.33301 45 6z" />
    <glyph glyph-name="n" unicode="n" horiz-adv-x="407" 
d="M277 322h-3h3zM199 187c-2 22.667 -3 42.001 -3 58.001c0 14 0.333008 26.333 1 37s2.66699 20 6 28c14.667 10 30.667 15 48 15c2.66699 0 5.5 -0.166992 8.5 -0.5s6.16699 -0.833008 9.5 -1.5c1.33301 -1.33301 3 -4 5 -8c0.666992 -0.666992 1 -1.66699 1 -3
s0.333008 -2.33301 1 -3c0 -1.33301 0.666992 -5.33301 2 -12c-0.666992 -12.667 -1 -24.334 -1 -35.001v-30v-44v-40l-52.5 25c-13 6 -21.5 10.667 -25.5 14zM70 520.001l-96 -89.999c26.667 -28.667 44 -48 52 -58l3 -208c10 -16.667 20 -31.334 30 -44.001
s20.333 -23.334 31 -32.001l242 34c-7.33301 3.33301 -14.333 6.33301 -21 9s-13 5.66699 -19 9l58 -12l37 80c20.667 64 31 117 31 159c0 94 -44 144.667 -132 152c-17.333 -2.66699 -33.5 -6.16699 -48.5 -10.5s-28.833 -9.16602 -41.5 -14.499
c-35.333 24 -72.333 38 -111 42l-20 -19zM19 429.002l76.0029 58l5 5c10 -1.33301 19.5 -3.66602 28.5 -6.99902s18.167 -8.33301 27.5 -15v-37l2 -13c34 31.333 76.333 50.333 127 57c94.667 -6.66699 116 -90.334 64 -251.001l-30 -64c0 4.66699 0.166992 18.5 0.5 41.5
s0.5 56.5 0.5 100.5c-1.33301 4.66699 -2.5 9 -3.5 13s-2.16699 9 -3.5 15c-8.66699 16.667 -17.334 26.667 -26.001 30c-43.333 12 -82.333 3.66699 -117 -25c-17.333 -34 -21.333 -88.667 -12 -164c5.33301 -12.667 15.333 -22.334 30 -29.001l-85 -12
c-6.66699 4.66699 -17.334 19.334 -32.001 44.001l-3 200l-2 10c-8.66699 20.667 -24.334 35 -47.001 43z" />
    <glyph glyph-name="o" unicode="o" horiz-adv-x="416" 
d="M209 326h-1h1zM225 331l-6 -1zM177 516l-13 -3.00195c-11.333 -3.33301 -21 -7.33301 -29 -12s-15.667 -9.66699 -23 -15l-12 -12l-32 -45l1 3l11 -44l-34 5l-60 -126c1.33301 -122.667 78.333 -185.334 231 -188.001h8c82.667 0 148.667 36.667 198 110
c10.667 14.667 16 33.334 16 56.001c0 6.66699 -0.5 13.834 -1.5 21.501s-3.16699 16.5 -6.5 26.5l-93 183l-7 9l-25 20c-14 4.66699 -28.667 8.33398 -44 11.001h-85zM275 299.998c-13.333 46 -36.333 69.002 -69 69.002c-4 -1.33301 -7 -2 -9 -2s-5.33301 -1.66699 -10 -5
l-2 -2l-11 -13c-1.33301 -3.33301 -3.33301 -6.5 -6 -9.5s-5.66699 -6.83301 -9 -11.5l-11 -18l-5 -10l-11 -27c-0.666992 -3.33301 -1.16699 -6.33301 -1.5 -9s-0.5 -5.66699 -0.5 -9c34 -46.667 76.667 -57.334 128 -32.001c31.333 17.333 37 43.666 17 78.999zM178 474
h3.00098h81c3.33301 0 6.66602 -0.666992 9.99902 -2s7.66602 -2.66602 12.999 -3.99902l15 -12l3 -3l89 -176c8 -28 6.66699 -49.333 -4 -64c-43.333 -63.333 -100.333 -94 -171 -92c-124 2 -186.667 47.667 -188 137l49 105l35 2l-19 30l8 10l28 39l10 10l16.5 10
c5.66699 3.33301 12.834 6.66602 21.501 9.99902z" />
    <glyph glyph-name="p" unicode="p" horiz-adv-x="375" 
d="M-15 456l6.99902 -298l2 -16l-1 5l3 -92c66 38 114.667 88.667 146 152c23.333 -8 45 -13.667 65 -17s38.333 -5 55 -5c13.333 0 29.666 2 48.999 6c10.667 6 20.334 12.167 29.001 18.5s17.334 14.5 26.001 24.5c23.333 33.333 35 64 35 92
c0 14 -2.16699 27.333 -6.5 40s-11.833 24.667 -22.5 36c-77.333 73.333 -142 110 -194 110c-1.33301 0 -2.83301 -0.166992 -4.5 -0.5s-3.16699 -0.5 -4.5 -0.5h-181zM159.999 394l-35 26.999l-1 -78l129 -49c8 4 12 11.667 12 23
c-9.33301 16.667 -44.333 42.334 -105 77.001zM32.999 158.999l-5.99902 296.001l1 15h141c44 4 101.333 -28.333 172 -97c27.333 -30.667 24.666 -68.334 -8.00098 -113.001c-5.33301 -6.66699 -11.333 -12.167 -18 -16.5s-14 -8.83301 -22 -13.5
c-37.333 -8.66699 -95 1 -173 29c-25.333 -69.333 -53.333 -113.333 -84 -132l-1 22z" />
    <glyph glyph-name="q" unicode="q" horiz-adv-x="500" 
d="M461 259v1v-1zM259 255h1h-1zM472 285c-0.666992 -1.33301 -1 -3.00098 -1 -5.00098s-0.333008 -3.33301 -1 -4c0.666992 0.666992 1 2 1 4c0 2.66699 0.333008 4.33398 1 5.00098zM460 258.999l2 2.99902l-1 -2c2.66699 2.66699 4 4.33398 4 5.00098l-4 -5v-1h-1z
M114 233.998l-11 3c4 0 7.66699 -1 11 -3zM22 363.998l5.00098 -25.999l2 -6l2 -9l19 -49l4 -6l8 -19c-0.666992 0.666992 -1.33398 1 -2.00098 1v0l-2 2l-34 14l-44 -61c81.333 -89.333 173.333 -134 276 -134c3.33301 0 7 0.166992 11 0.5s7.66699 0.5 11 0.5
c100 9.33301 191.333 73.333 274 192l-86 -12h-3l-7 -2l3 5v2c2 2 3.66699 4 5 6l4 6c3.33301 3.33301 5.33301 7.66602 6 12.999l9 18c0 0.666992 1.66699 2.66699 5 6c2 8.66699 4 15.667 6 21s4 9.66602 6 12.999v7c2 10.667 3 21 3 31v15l-14 34
c-74 70.667 -158.667 106.667 -254 108c-90 -13.333 -160.333 -53.666 -211 -120.999v-12c-0.666992 -3.33301 -1.16699 -6.5 -1.5 -9.5s-0.5 -6.16699 -0.5 -9.5v-19zM368.001 346.999l-0.000976562 16c-30 37.333 -71.333 57 -124 59
c-33.333 -7.33301 -62 -24.333 -86 -51c2 -51.333 22 -100.333 60 -147c5.33301 -3.33301 10.333 -5.5 15 -6.5l16 -3.5c10.667 -0.666992 21.334 0.333008 32.001 3l9.5 5.5c3 1.66699 6.5 4.16699 10.5 7.5l6 9l7 8l9 13l10 15l1 4l24 41l4 10zM68 394.999v5
c38 50.667 94 81.667 168 93c82.667 -0.666992 155 -31 217 -91l6 -16c0.666992 -10.667 -0.333008 -21 -3 -31v-5c-2 -2.66699 -4.66699 -10 -8 -22c-2 -2.66699 -3.66699 -5.16699 -5 -7.5s-2.33301 -5.16602 -3 -8.49902l-6 -11l-2 -5c0 -1.33301 -0.5 -2.5 -1.5 -3.5
s-1.83301 -2.16699 -2.5 -3.5c0 -0.666992 -2 -4.33398 -6 -11.001l-2 -4l-19 -31l-5 -4l-20 -29c-4.66699 -8 -10 -15 -16 -21c4.66699 0 10.5 0.5 17.5 1.5l24.5 3.5l20 3l3 2l44 11h4l11 2c-51.333 -56.667 -121.333 -89.334 -210 -98.001
c-96.667 -4.66699 -179.667 30.666 -249 105.999l10 -4c4 -3.33301 8.33301 -5.83301 13 -7.5s9.66699 -3.16699 15 -4.5l12 -3l7 -2l10 -4c0.666992 -0.666992 3 -1 7 -1l34 -8l10 -1l4 1l-9 16l-6 8c-2 2.66699 -3.66699 6.33398 -5 11.001l-11 18l-1 4l-7 10l-4 10l-2 5
l-10 20l-3 4l-16 43l-2 10l-2 5l-3 18v13c0 2.66699 0.666992 7.33398 2 14.001z" />
    <glyph glyph-name="r" unicode="r" horiz-adv-x="480" 
d="M286 529l-20.998 -4.99805h-11l-14 -3l-12 -1h-55c-9.33301 2 -17 3 -23 3c-2.66699 0 -4.66699 -0.333008 -6 -1c-8 1.33301 -14 2.16602 -18 2.49902s-6.66699 1.16602 -8 2.49902h-28l-4 1l-17 3l-86 6l17 -42.5c5.33301 -13 10.666 -25.167 15.999 -36.5
c10 -22.667 14 -21.667 12 3l19 4l-15 -20v-20l-1 -204l-69 -129h326c85.333 -80 183.333 -120 294 -120c60 0 137 15.667 231 47l-36 81c-59.333 -10 -104.333 -15 -135 -15c-68 0 -123.333 14.667 -166 44c-26.667 19.333 -46.834 41 -60.501 65s-20.5 52 -20.5 84v25
c35.333 36.667 53 81.334 53 134.001c-20 45.333 -51.667 80.666 -95 105.999h-47l-11 -11l-3 -1zM288.002 394.002l-2.00098 14c-25.333 13.333 -55.666 19 -90.999 17l-7 -128l1 -6c40.667 24.667 73.667 59 99 103zM312.001 492.002l10 4.99707l4 2h13
c28 -14.667 48.667 -38.334 62 -71.001c0 -50 -25 -91 -75 -123c-2.66699 -20 5 -24.667 23 -14c-4 -81.333 29 -146.666 99 -195.999c71.333 -49.333 171.333 -63.666 300 -42.999l3 -6c-196 -66.667 -355.667 -23.667 -479 129c-4 4 -8.5 7.5 -13.5 10.5
s-10.833 6.16699 -17.5 9.5l-17 7c-21.333 4 -30 -3.66699 -26 -23c0 -14 8 -28.333 24 -43l-195 1l50 71l1 239v6l-7 11l-11 12.5c-3.33301 3.66699 -6 7.83398 -8 12.501l11 -1l14 -2l8 -2h13c0.666992 -1.33301 5.66699 -2.33301 15 -3l12 -29l14 26
c6 2.66699 16 2.33398 30 -0.999023h63l12 1l15 3h11l21 5h4z" />
    <glyph glyph-name="s" unicode="s" horiz-adv-x="353" 
d="M39 430c-2.66699 -11.333 -3.99707 -25.998 -3.99707 -43.998s3.66699 -38.667 11 -62l12 -18l-1 1c3.33301 -6 7.66602 -11.667 12.999 -17l2 -2c-58 -41.333 -87 -88 -87 -140v-9c0 -2 0.166992 -5.5 0.5 -10.5s1.16602 -10.333 2.49902 -16s3.5 -11.667 6.5 -18
s7.16699 -11.833 12.5 -16.5c38.667 15.333 61 23 67 23c5.33301 0 11.333 -2.33301 18 -7l-1 1c34.667 -26 70 -39 106 -39c9.33301 0 18.166 0.666992 26.499 2s16.5 3.66602 24.5 6.99902c67.333 15.333 109 52.666 125 111.999c1.33301 9.33301 2.5 17 3.5 23
s1.5 10.333 1.5 13l-27 4l27 11c0 36 -15.667 70.667 -47 104l-5 3c2.66699 17.333 4.5 30.666 5.5 39.999s1.5 16.333 1.5 21c0 80.667 -70.333 148.334 -211 203.001l21.5 -38.5l19.5 -33.5c-66.667 -6.66699 -108 -39 -124 -97zM233.003 483.002
c-3.33301 10 -8.33301 20.666 -15 31.999c59.333 -23.333 83 -76.666 71 -159.999c-48 58 -87.333 79 -118 63c-4.66699 -6.66699 -7 -13.334 -7 -20.001l7 -13l40 -25l94 -62c28.667 -28 38 -65.333 28 -112c-11.333 -41.333 -43.666 -68 -96.999 -80
c-40.667 -14.667 -81 -6.66699 -121 24c-30 20.667 -59.333 18.667 -88 -6c-8.66699 60 16.666 105.667 75.999 137c24 -70 67.667 -97.333 131 -82c10.667 4 13.334 9.66699 8.00098 17l-21 19l-5 1l-9 9l20 42c-24.667 -20 -40.334 -27 -47.001 -21l-27 26l-6 3l-39 37
c-2 2.66699 -4.33301 5.33398 -7 8.00098s-5.66699 6 -9 10l-9 15c-8 22.667 -9 47.667 -3 75c14 50.667 65 71.667 153 63z" />
    <glyph glyph-name="t" unicode="t" horiz-adv-x="388" 
d="M-10 336l11.002 -13.001c4 -4 12 -8.33301 24 -13s27.667 -10.334 47 -17.001c5.33301 -9.33301 8 -17.666 8 -24.999c0 -32 -14.333 -92.333 -43 -181h255c-29.333 72 -44 122.667 -44 152s7.66699 60 23 92c12.667 12 36 18 70 18c7.33301 0 18.5 0.666992 33.5 2
s28.5 1.33301 40.5 0c-10 50 -29.833 89.833 -59.5 119.5s-64.5 51.834 -104.5 66.501l16 29h-91c-3.33301 -1.33301 -11 -5.33301 -23 -12s-26 -14 -42 -22c-16.667 -9.33301 -32.834 -18.833 -48.501 -28.5s-30.834 -20.167 -45.501 -31.5
c-26.667 -22.667 -40 -49.667 -40 -81c0 -9.33301 0.833008 -18.5 2.5 -27.5s5.16699 -18.167 10.5 -27.5zM28.002 354.999c-16 34 -10.665 62.001 16.002 84.001c13.333 10 27.166 19.5 41.499 28.5s29.5 17.833 45.5 26.5c16 8 28.5 14.5 37.5 19.5
s15.167 8.16699 18.5 9.5h9l-19 -35l-5 -11l-1 -4l-7 -13l80 -2l8 -1l-1 11l-2 14l-2 9l2 5c54.667 -14 100 -49.667 136 -107c-72.667 9.33301 -122.334 -1.33398 -149.001 -32.001c-38 -69.333 -40.667 -145 -8 -227h-132c40 124 36.333 197 -11 219l44 38l-68 5
c-20 -12 -23.667 -28.333 -11 -49c-4 1.33301 -7.83301 2.83301 -11.5 4.5s-7.16699 4.16699 -10.5 7.5z" />
    <glyph glyph-name="u" unicode="u" horiz-adv-x="445" 
d="M151 512l-12.0049 -4.99902l-47.5 -18c-16.333 -6 -31.666 -12 -45.999 -18s-26.5 -11.833 -36.5 -17.5s-16.333 -11.167 -19 -16.5v-77c8 1.33301 15.333 2.66602 22 3.99902s12.667 2.33301 18 3c-10 -34 -15 -64.667 -15 -92c0 -102 61 -168 183 -198h23
c81.333 0 144.666 31.667 189.999 95c22 40.667 33 79 33 115c0 26 -6.33301 53 -19 81c5.33301 -1.33301 9.33301 -2 12 -2c14.667 14.667 23.334 25.334 26.001 32.001s4 12.667 4 18c0 2 -0.166992 4.66699 -0.5 8s-2.16602 9.33301 -5.49902 18
c-31.333 40 -65.666 60 -102.999 60c-26 0 -55.667 -12.667 -89 -38c-5.33301 -12.667 -8.66602 -22.834 -9.99902 -30.501s-2 -14.834 -2 -21.501v-9c1.33301 -11.333 2.5 -21.833 3.5 -31.5s1.5 -19.167 1.5 -28.5c0 -42.667 -10.333 -73 -31 -91h1
c-5.33301 -5.33301 -9 -8 -11 -8l-2 8.5c-1.33301 5.66699 -3.66602 14.167 -6.99902 25.5c-6 14.667 -9 31.334 -9 50.001c0 34 17.667 95.333 53 184h-105zM153.995 468.001l4.00488 2.00098h35c-35.333 -87.333 -42.333 -155.333 -21 -204
c18 -65.333 47.333 -80.666 88 -45.999c39.333 35.333 52.666 96.666 39.999 183.999c-0.666992 5.33301 -0.833984 10.666 -0.500977 15.999s2.16602 11.333 5.49902 18c41.333 34 80.666 28.333 117.999 -17c2 -4 2 -7 0 -9c-24.667 4 -43 -5.66699 -55 -29
c40 -58 42.667 -120 8 -186c-40.667 -56.667 -99 -82.667 -175 -78c-130 32 -171.333 116.667 -124 254l1 22c-12.667 14.667 -33.334 19 -62.001 13l-1 4l40 17c22 9.33301 55 22.333 99 39z" />
    <glyph glyph-name="v" unicode="v" horiz-adv-x="466" 
d="M286 542l-36.998 -6.99902l1 -76c7.33301 -1.33301 13.166 -2.33301 17.499 -3s7.5 -1.66699 9.5 -3l7 -3c-8 -42.667 -19.667 -80.334 -35 -113.001l-41 92c1.33301 2.66699 4 6.66699 8 12s8.66699 12.333 14 21l-59 25l-211 -2l79 -108l-4 3
c32.667 -41.333 56.667 -98.333 72 -171l-91 -113h428l-72 92c47.333 74 87.666 192.667 120.999 356l-97 -2h-110zM275.002 497.001l16.001 3.00293h106l43 1c-30.667 -150.667 -73.334 -259.334 -128.001 -326.001l57 -35l3 -4h-296l79 54
c-16 92.667 -44.667 164.667 -86 216l-50 51h132c6.66699 0 13.667 -1 21 -3l-6.5 -10.5c-2.33301 -3.66699 -4.16602 -8.16699 -5.49902 -13.5l80 -179c48 48 78.667 123.333 92 226l-37 15c-3.33301 1.33301 -6.33301 2.16602 -9 2.49902
s-6.33398 1.16602 -11.001 2.49902z" />
    <glyph glyph-name="w" unicode="w" horiz-adv-x="529" 
d="M344 345l17 -18l-4 -9c-2.66699 4.66699 -5 9.16699 -7 13.5zM165 352c0 -4.66699 -1.66699 -11 -5 -19c-2 8 -3.83301 17.333 -5.5 28s-3.16699 22.667 -4.5 36c10 -20 15 -35 15 -45zM327 490l2 48.999l-184 -72v25v12c0 4.66699 -0.333008 9.33398 -1 14.001l-170 -71
l16 -89c8.66699 -88.667 25.167 -155.167 49.5 -199.5s58.5 -67.5 102.5 -69.5c50 16.667 91.667 40.667 125 72c11.333 -12 23.333 -23.833 36 -35.5s26.667 -23.167 42 -34.5h51l40 25l18 15l90 228l-41 219l-96 -46c-29.333 -14.667 -56 -28.667 -80 -42zM412 336.999
l-95.999 99.001c15.333 10.667 35.333 22.334 60 35.001s56 27.667 94 45l28 -153l-81 -207l-6 -5l-27 -18h-24c-10.667 8.66699 -20.834 17.5 -30.501 26.5s-19.167 18.5 -28.5 28.5c-3.33301 4.66699 -6.5 9.66699 -9.5 15s-6.16699 11.333 -9.5 18l-10 16
c-28 -49.333 -73.333 -84.333 -136 -105c-54.667 2 -89 80.667 -103 236l-26 54l95 35c2 -42.667 5 -77.834 9 -105.501s9.66699 -48.167 17 -61.5l5 -18l11 -2c71.333 29.333 84 84.666 38 165.999l100 39l-3 -49c8 -80 37 -140 87 -180h11z" />
    <glyph glyph-name="x" unicode="x" horiz-adv-x="490" 
d="M196 499c-42 0 -80.833 -6.33203 -116.5 -18.999s-70.5 -31.334 -104.5 -56.001l35 -67l14 3l61 5.5l49 4.5l45 -73l-71 -100l-86 -44l19 -68h306l-2 2l114 1h59l15 74c-62 22.667 -110.667 63.667 -146 123c34.667 60.667 82.667 99 144 115l-38 92l-201 3l-2 -40l-9 37
c-17.333 2 -33.5 3.66699 -48.5 5s-27.167 2 -36.5 2zM330 274.001l-9 -15l-37 -57l-31 -57l13 -19h-204l77 39l194 275l1 12l129 -1l9 -23c-54.667 -14 -102 -65.333 -142 -154zM297 347.001l10.001 -16c54.667 -108.667 120 -177 196 -205h-43h-156l11 29l-156 256
l-59 -4.5c-22.667 -1.66699 -49.334 -4.16699 -80.001 -7.5l-3 -1c30.667 22.667 64.5 38.5 101.5 47.5s79.5 10.833 127.5 5.5l4 -18l2 -4c0 -2.66699 0.833008 -5.5 2.5 -8.5l5.5 -9.5l3 -10l3 -2l3 -6l5 -8l6 -11zM286.001 203.001l48 79l-51 88l-53 -76z" />
    <glyph glyph-name="y" unicode="y" horiz-adv-x="488" 
d="M6 503l53.001 -89c6.66699 -9.33301 11.667 -17.333 15 -24l7 -8l31 6l-17 -26c2.66699 -7.33301 6.66699 -13.333 12 -18l35 -56c2.66699 -3.33301 5.16699 -6.83301 7.5 -10.5s4.16602 -7.16699 5.49902 -10.5l9 -12c-22.667 -42 -67 -95.667 -133 -161l373 -6
c-31.333 68.667 -47 113.667 -47 135c0 20 6 37.667 18 53l23 29l24 31l-1 -1l28.5 36l38.5 51l39.5 52.5l31.5 41.5h-309c0.666992 -2 1 -5.33301 1 -10c0 -4 0.333008 -7 1 -9zM242.001 316h17.999c36 34.667 49 87.667 39 159h176l-73 -96l-60 -77
c-35.333 -44.667 -36.666 -102 -3.99902 -172l-235 1l25 18l4 4c41.333 25.333 67.666 61.666 78.999 108.999l-17 24c-1.33301 4 -3.66602 8.16699 -6.99902 12.5l-10 13.5l-36 58l18 49l-41 -15l-6 7l-7 12c-2.66699 4.66699 -6 9.66699 -10 15l-13 21l194 -4
c-66 -51.333 -77.333 -97.666 -34 -138.999z" />
    <glyph glyph-name="z" unicode="z" horiz-adv-x="399" 
d="M206 228c-0.666992 0.666992 -1 1.33301 -1 2c0 14 23 38 69 72l-16 -38l2 -5c-16.667 -14.667 -34.667 -25 -54 -31zM46 472.999l-62.002 -99l59 -50l22.5 15c7 4.66699 13.833 8.66699 20.5 12l-16 -22l-18 -25c-8 -10 -16.833 -21.833 -26.5 -35.5l-28.5 -40.5
l-16 -40c-0.666992 -3.33301 -1.16699 -6 -1.5 -8s-0.5 -3.66699 -0.5 -5v-9c0 -12.667 3 -29.334 9 -50.001c8.66699 -6.66699 16.834 -12.5 24.501 -17.5s16.834 -9.16699 27.501 -12.5h291l17 34l7 14c2 4 3.66699 7.66699 5 11l32 29c3.33301 3.33301 8 6.83301 14 10.5
s11.667 6.83398 17 9.50098l8 56l-135 68l36.5 24l42.5 27l-58 130h-253zM27.998 364.999l54.001 86l5 7h202l33 -73c-145.333 -89.333 -190.666 -153.666 -135.999 -192.999c2 -2.66699 6.66699 -5.33398 14 -8.00098c39.333 8 74.333 27.333 105 58v10
c0 3.33301 -0.666992 7 -2 11l2 4l81 -41l-1 -6c-6.66699 -2.66699 -14 -7.66699 -22 -15l-23 -21l-30 9c16.667 -13.333 16.667 -31.333 0 -54l-5 -11h-260c-6.66699 2 -13.334 6 -20.001 12c-2 6.66699 -3.33301 13 -4 19s-0.333984 12 0.999023 18l12 31l91.5 126
c21 29.333 33.167 47 36.5 53l6 8c-46 16 -92.667 6 -140 -30z" />
    <glyph glyph-name="braceleft" unicode="{" horiz-adv-x="334" 
 />
    <glyph glyph-name="bar" unicode="|" horiz-adv-x="260" 
 />
    <glyph glyph-name="braceright" unicode="}" horiz-adv-x="334" 
 />
    <glyph glyph-name="asciitilde" unicode="~" horiz-adv-x="584" 
 />
    <glyph glyph-name="exclamdown" unicode="&#xa1;" horiz-adv-x="333" 
 />
    <glyph glyph-name="cent" unicode="&#xa2;" 
 />
    <glyph glyph-name="sterling" unicode="&#xa3;" 
 />
    <glyph glyph-name="yen" unicode="&#xa5;" 
 />
    <glyph glyph-name="brokenbar" unicode="&#xa6;" horiz-adv-x="260" 
 />
    <glyph glyph-name="section" unicode="&#xa7;" 
 />
    <glyph glyph-name="dieresis" unicode="&#xa8;" horiz-adv-x="333" 
 />
    <glyph glyph-name="copyright" unicode="&#xa9;" horiz-adv-x="737" 
 />
    <glyph glyph-name="ordfeminine" unicode="&#xaa;" horiz-adv-x="370" 
 />
    <glyph glyph-name="guillemotleft" unicode="&#xab;" 
 />
    <glyph glyph-name="logicalnot" unicode="&#xac;" horiz-adv-x="584" 
 />
    <glyph glyph-name="registered" unicode="&#xae;" horiz-adv-x="737" 
 />
    <glyph glyph-name="glyph137" unicode="&#xaf;" horiz-adv-x="552" 
 />
    <glyph glyph-name="degree" unicode="&#xb0;" horiz-adv-x="400" 
 />
    <glyph glyph-name="plusminus" unicode="&#xb1;" horiz-adv-x="549" 
 />
    <glyph glyph-name="twosuperior" unicode="&#xb2;" horiz-adv-x="333" 
 />
    <glyph glyph-name="threesuperior" unicode="&#xb3;" horiz-adv-x="333" 
 />
    <glyph glyph-name="acute" unicode="&#xb4;" horiz-adv-x="333" 
 />
    <glyph glyph-name="mu1" unicode="&#xb5;" horiz-adv-x="576" 
 />
    <glyph glyph-name="paragraph" unicode="&#xb6;" horiz-adv-x="537" 
 />
    <glyph glyph-name="glyph145" unicode="&#xb7;" horiz-adv-x="278" 
 />
    <glyph glyph-name="glyph145" unicode="&#x2219;" horiz-adv-x="278" 
 />
    <glyph glyph-name="cedilla" unicode="&#xb8;" horiz-adv-x="333" 
 />
    <glyph glyph-name="onesuperior" unicode="&#xb9;" horiz-adv-x="333" 
 />
    <glyph glyph-name="ordmasculine" unicode="&#xba;" horiz-adv-x="365" 
 />
    <glyph glyph-name="guillemotright" unicode="&#xbb;" 
 />
    <glyph glyph-name="onequarter" unicode="&#xbc;" horiz-adv-x="834" 
 />
    <glyph glyph-name="onehalf" unicode="&#xbd;" horiz-adv-x="834" 
 />
    <glyph glyph-name="threequarters" unicode="&#xbe;" horiz-adv-x="834" 
 />
    <glyph glyph-name="questiondown" unicode="&#xbf;" horiz-adv-x="611" 
 />
    <glyph glyph-name="Agrave" unicode="&#xc0;" horiz-adv-x="667" 
 />
    <glyph glyph-name="Aacute" unicode="&#xc1;" horiz-adv-x="667" 
 />
    <glyph glyph-name="Acircumflex" unicode="&#xc2;" horiz-adv-x="667" 
 />
    <glyph glyph-name="Atilde" unicode="&#xc3;" horiz-adv-x="667" 
 />
    <glyph glyph-name="Adieresis" unicode="&#xc4;" horiz-adv-x="667" 
 />
    <glyph glyph-name="Aring" unicode="&#xc5;" horiz-adv-x="667" 
 />
    <glyph glyph-name="AE" unicode="&#xc6;" horiz-adv-x="1000" 
 />
    <glyph glyph-name="Ccedilla" unicode="&#xc7;" horiz-adv-x="722" 
 />
    <glyph glyph-name="Egrave" unicode="&#xc8;" horiz-adv-x="667" 
 />
    <glyph glyph-name="Eacute" unicode="&#xc9;" horiz-adv-x="667" 
 />
    <glyph glyph-name="Ecircumflex" unicode="&#xca;" horiz-adv-x="667" 
 />
    <glyph glyph-name="Edieresis" unicode="&#xcb;" horiz-adv-x="667" 
 />
    <glyph glyph-name="Igrave" unicode="&#xcc;" horiz-adv-x="278" 
 />
    <glyph glyph-name="Iacute" unicode="&#xcd;" horiz-adv-x="278" 
 />
    <glyph glyph-name="Icircumflex" unicode="&#xce;" horiz-adv-x="278" 
 />
    <glyph glyph-name="Idieresis" unicode="&#xcf;" horiz-adv-x="278" 
 />
    <glyph glyph-name="Eth" unicode="&#xd0;" horiz-adv-x="722" 
 />
    <glyph glyph-name="Ntilde" unicode="&#xd1;" horiz-adv-x="722" 
 />
    <glyph glyph-name="Ograve" unicode="&#xd2;" horiz-adv-x="778" 
 />
    <glyph glyph-name="Oacute" unicode="&#xd3;" horiz-adv-x="778" 
 />
    <glyph glyph-name="Ocircumflex" unicode="&#xd4;" horiz-adv-x="778" 
 />
    <glyph glyph-name="Otilde" unicode="&#xd5;" horiz-adv-x="778" 
 />
    <glyph glyph-name="Odieresis" unicode="&#xd6;" horiz-adv-x="778" 
 />
    <glyph glyph-name="multiply" unicode="&#xd7;" horiz-adv-x="584" 
 />
    <glyph glyph-name="Oslash" unicode="&#xd8;" horiz-adv-x="778" 
 />
    <glyph glyph-name="Ugrave" unicode="&#xd9;" horiz-adv-x="722" 
 />
    <glyph glyph-name="Uacute" unicode="&#xda;" horiz-adv-x="722" 
 />
    <glyph glyph-name="Ucircumflex" unicode="&#xdb;" horiz-adv-x="722" 
 />
    <glyph glyph-name="Udieresis" unicode="&#xdc;" horiz-adv-x="722" 
 />
    <glyph glyph-name="Yacute" unicode="&#xdd;" horiz-adv-x="667" 
 />
    <glyph glyph-name="Thorn" unicode="&#xde;" horiz-adv-x="667" 
 />
    <glyph glyph-name="germandbls" unicode="&#xdf;" horiz-adv-x="611" 
 />
    <glyph glyph-name="agrave" unicode="&#xe0;" 
 />
    <glyph glyph-name="aacute" unicode="&#xe1;" 
 />
    <glyph glyph-name="acircumflex" unicode="&#xe2;" 
 />
    <glyph glyph-name="atilde" unicode="&#xe3;" 
 />
    <glyph glyph-name="adieresis" unicode="&#xe4;" 
 />
    <glyph glyph-name="aring" unicode="&#xe5;" 
 />
    <glyph glyph-name="ae" unicode="&#xe6;" horiz-adv-x="889" 
 />
    <glyph glyph-name="ccedilla" unicode="&#xe7;" horiz-adv-x="500" 
 />
    <glyph glyph-name="egrave" unicode="&#xe8;" 
 />
    <glyph glyph-name="eacute" unicode="&#xe9;" 
 />
    <glyph glyph-name="ecircumflex" unicode="&#xea;" 
 />
    <glyph glyph-name="edieresis" unicode="&#xeb;" 
 />
    <glyph glyph-name="igrave" unicode="&#xec;" horiz-adv-x="278" 
 />
    <glyph glyph-name="iacute" unicode="&#xed;" horiz-adv-x="278" 
 />
    <glyph glyph-name="icircumflex" unicode="&#xee;" horiz-adv-x="278" 
 />
    <glyph glyph-name="idieresis" unicode="&#xef;" horiz-adv-x="278" 
 />
    <glyph glyph-name="eth" unicode="&#xf0;" 
 />
    <glyph glyph-name="ntilde" unicode="&#xf1;" 
 />
    <glyph glyph-name="ograve" unicode="&#xf2;" 
 />
    <glyph glyph-name="oacute" unicode="&#xf3;" 
 />
    <glyph glyph-name="ocircumflex" unicode="&#xf4;" 
 />
    <glyph glyph-name="otilde" unicode="&#xf5;" 
 />
    <glyph glyph-name="odieresis" unicode="&#xf6;" 
 />
    <glyph glyph-name="divide" unicode="&#xf7;" horiz-adv-x="549" 
 />
    <glyph glyph-name="oslash" unicode="&#xf8;" horiz-adv-x="611" 
 />
    <glyph glyph-name="ugrave" unicode="&#xf9;" 
 />
    <glyph glyph-name="uacute" unicode="&#xfa;" 
 />
    <glyph glyph-name="ucircumflex" unicode="&#xfb;" 
 />
    <glyph glyph-name="udieresis" unicode="&#xfc;" 
 />
    <glyph glyph-name="yacute" unicode="&#xfd;" horiz-adv-x="500" 
 />
    <glyph glyph-name="thorn" unicode="&#xfe;" 
 />
    <glyph glyph-name="ydieresis" unicode="&#xff;" horiz-adv-x="500" 
 />
    <glyph glyph-name="Amacron" unicode="&#x100;" horiz-adv-x="667" 
 />
    <glyph glyph-name="amacron" unicode="&#x101;" 
 />
    <glyph glyph-name="Abreve" unicode="&#x102;" horiz-adv-x="667" 
 />
    <glyph glyph-name="abreve" unicode="&#x103;" 
 />
    <glyph glyph-name="Aogonek" unicode="&#x104;" horiz-adv-x="667" 
 />
    <glyph glyph-name="aogonek" unicode="&#x105;" 
 />
    <glyph glyph-name="Cacute" unicode="&#x106;" horiz-adv-x="722" 
 />
    <glyph glyph-name="cacute" unicode="&#x107;" horiz-adv-x="500" 
 />
    <glyph glyph-name="Ccircumflex" unicode="&#x108;" horiz-adv-x="722" 
 />
    <glyph glyph-name="ccircumflex" unicode="&#x109;" horiz-adv-x="500" 
 />
    <glyph glyph-name="Cdot" unicode="&#x10a;" horiz-adv-x="722" 
 />
    <glyph glyph-name="cdot" unicode="&#x10b;" horiz-adv-x="500" 
 />
    <glyph glyph-name="Ccaron" unicode="&#x10c;" horiz-adv-x="722" 
 />
    <glyph glyph-name="ccaron" unicode="&#x10d;" horiz-adv-x="500" 
 />
    <glyph glyph-name="Dcaron" unicode="&#x10e;" horiz-adv-x="722" 
 />
    <glyph glyph-name="dcaron" unicode="&#x10f;" horiz-adv-x="615" 
 />
    <glyph glyph-name="Dslash" unicode="&#x110;" horiz-adv-x="722" 
 />
    <glyph glyph-name="dmacron" unicode="&#x111;" 
 />
    <glyph glyph-name="Emacron" unicode="&#x112;" horiz-adv-x="667" 
 />
    <glyph glyph-name="emacron" unicode="&#x113;" 
 />
    <glyph glyph-name="Ebreve" unicode="&#x114;" horiz-adv-x="667" 
 />
    <glyph glyph-name="ebreve" unicode="&#x115;" 
 />
    <glyph glyph-name="Edot" unicode="&#x116;" horiz-adv-x="667" 
 />
    <glyph glyph-name="edot" unicode="&#x117;" 
 />
    <glyph glyph-name="Eogonek" unicode="&#x118;" horiz-adv-x="667" 
 />
    <glyph glyph-name="eogonek" unicode="&#x119;" 
 />
    <glyph glyph-name="Ecaron" unicode="&#x11a;" horiz-adv-x="667" 
 />
    <glyph glyph-name="ecaron" unicode="&#x11b;" 
 />
    <glyph glyph-name="Gcircumflex" unicode="&#x11c;" horiz-adv-x="778" 
 />
    <glyph glyph-name="gcircumflex" unicode="&#x11d;" 
 />
    <glyph glyph-name="Gbreve" unicode="&#x11e;" horiz-adv-x="778" 
 />
    <glyph glyph-name="gbreve" unicode="&#x11f;" 
 />
    <glyph glyph-name="Gdot" unicode="&#x120;" horiz-adv-x="778" 
 />
    <glyph glyph-name="gdot" unicode="&#x121;" 
 />
    <glyph glyph-name="Gcedilla" unicode="&#x122;" horiz-adv-x="778" 
 />
    <glyph glyph-name="gcedilla" unicode="&#x123;" 
 />
    <glyph glyph-name="Hcircumflex" unicode="&#x124;" horiz-adv-x="722" 
 />
    <glyph glyph-name="hcircumflex" unicode="&#x125;" 
 />
    <glyph glyph-name="Hbar" unicode="&#x126;" horiz-adv-x="722" 
 />
    <glyph glyph-name="hbar" unicode="&#x127;" 
 />
    <glyph glyph-name="Itilde" unicode="&#x128;" horiz-adv-x="278" 
 />
    <glyph glyph-name="itilde" unicode="&#x129;" horiz-adv-x="278" 
 />
    <glyph glyph-name="Imacron" unicode="&#x12a;" horiz-adv-x="278" 
 />
    <glyph glyph-name="imacron" unicode="&#x12b;" horiz-adv-x="278" 
 />
    <glyph glyph-name="Ibreve" unicode="&#x12c;" horiz-adv-x="278" 
 />
    <glyph glyph-name="ibreve" unicode="&#x12d;" horiz-adv-x="278" 
 />
    <glyph glyph-name="Iogonek" unicode="&#x12e;" horiz-adv-x="278" 
 />
    <glyph glyph-name="iogonek" unicode="&#x12f;" horiz-adv-x="222" 
 />
    <glyph glyph-name="Idotaccent" unicode="&#x130;" horiz-adv-x="278" 
 />
    <glyph glyph-name="dotlessi" unicode="&#x131;" horiz-adv-x="278" 
 />
    <glyph glyph-name="IJ" unicode="&#x132;" horiz-adv-x="735" 
 />
    <glyph glyph-name="ij" unicode="&#x133;" horiz-adv-x="444" 
 />
    <glyph glyph-name="Jcircumflex" unicode="&#x134;" horiz-adv-x="500" 
 />
    <glyph glyph-name="jcircumflex" unicode="&#x135;" horiz-adv-x="222" 
 />
    <glyph glyph-name="Kcedilla" unicode="&#x136;" horiz-adv-x="667" 
 />
    <glyph glyph-name="kcedilla" unicode="&#x137;" horiz-adv-x="500" 
 />
    <glyph glyph-name="kgreenlandic" unicode="&#x138;" horiz-adv-x="500" 
 />
    <glyph glyph-name="Lacute" unicode="&#x139;" 
 />
    <glyph glyph-name="lacute" unicode="&#x13a;" horiz-adv-x="222" 
 />
    <glyph glyph-name="Lcedilla" unicode="&#x13b;" 
 />
    <glyph glyph-name="lcedilla" unicode="&#x13c;" horiz-adv-x="222" 
 />
    <glyph glyph-name="Lcaron" unicode="&#x13d;" 
 />
    <glyph glyph-name="lcaron" unicode="&#x13e;" horiz-adv-x="292" 
 />
    <glyph glyph-name="Ldot" unicode="&#x13f;" 
 />
    <glyph glyph-name="ldot" unicode="&#x140;" horiz-adv-x="334" 
 />
    <glyph glyph-name="Lslash" unicode="&#x141;" 
 />
    <glyph glyph-name="lslash" unicode="&#x142;" horiz-adv-x="222" 
 />
    <glyph glyph-name="Nacute" unicode="&#x143;" horiz-adv-x="722" 
 />
    <glyph glyph-name="nacute" unicode="&#x144;" 
 />
    <glyph glyph-name="Ncedilla" unicode="&#x145;" horiz-adv-x="722" 
 />
    <glyph glyph-name="ncedilla" unicode="&#x146;" 
 />
    <glyph glyph-name="Ncaron" unicode="&#x147;" horiz-adv-x="722" 
 />
    <glyph glyph-name="ncaron" unicode="&#x148;" 
 />
    <glyph glyph-name="napostrophe" unicode="&#x149;" horiz-adv-x="604" 
 />
    <glyph glyph-name="Eng" unicode="&#x14a;" horiz-adv-x="723" 
 />
    <glyph glyph-name="eng" unicode="&#x14b;" 
 />
    <glyph glyph-name="Omacron" unicode="&#x14c;" horiz-adv-x="778" 
 />
    <glyph glyph-name="omacron" unicode="&#x14d;" 
 />
    <glyph glyph-name="Obreve" unicode="&#x14e;" horiz-adv-x="778" 
 />
    <glyph glyph-name="obreve" unicode="&#x14f;" 
 />
    <glyph glyph-name="Odblacute" unicode="&#x150;" horiz-adv-x="778" 
 />
    <glyph glyph-name="odblacute" unicode="&#x151;" 
 />
    <glyph glyph-name="OE" unicode="&#x152;" horiz-adv-x="1000" 
 />
    <glyph glyph-name="oe" unicode="&#x153;" horiz-adv-x="944" 
 />
    <glyph glyph-name="Racute" unicode="&#x154;" horiz-adv-x="722" 
 />
    <glyph glyph-name="racute" unicode="&#x155;" horiz-adv-x="333" 
 />
    <glyph glyph-name="Rcedilla" unicode="&#x156;" horiz-adv-x="722" 
 />
    <glyph glyph-name="rcedilla" unicode="&#x157;" horiz-adv-x="333" 
 />
    <glyph glyph-name="Rcaron" unicode="&#x158;" horiz-adv-x="722" 
 />
    <glyph glyph-name="rcaron" unicode="&#x159;" horiz-adv-x="333" 
 />
    <glyph glyph-name="Sacute" unicode="&#x15a;" horiz-adv-x="667" 
 />
    <glyph glyph-name="sacute" unicode="&#x15b;" horiz-adv-x="500" 
 />
    <glyph glyph-name="Scircumflex" unicode="&#x15c;" horiz-adv-x="667" 
 />
    <glyph glyph-name="scircumflex" unicode="&#x15d;" horiz-adv-x="500" 
 />
    <glyph glyph-name="Scedilla" unicode="&#x15e;" horiz-adv-x="667" 
 />
    <glyph glyph-name="scedilla" unicode="&#x15f;" horiz-adv-x="500" 
 />
    <glyph glyph-name="Scaron" unicode="&#x160;" horiz-adv-x="667" 
 />
    <glyph glyph-name="scaron" unicode="&#x161;" horiz-adv-x="500" 
 />
    <glyph glyph-name="Tcedilla" unicode="&#x162;" horiz-adv-x="611" 
 />
    <glyph glyph-name="tcedilla" unicode="&#x163;" horiz-adv-x="278" 
 />
    <glyph glyph-name="Tcaron" unicode="&#x164;" horiz-adv-x="611" 
 />
    <glyph glyph-name="tcaron" unicode="&#x165;" horiz-adv-x="375" 
 />
    <glyph glyph-name="Tbar" unicode="&#x166;" horiz-adv-x="611" 
 />
    <glyph glyph-name="tbar" unicode="&#x167;" horiz-adv-x="278" 
 />
    <glyph glyph-name="Utilde" unicode="&#x168;" horiz-adv-x="722" 
 />
    <glyph glyph-name="utilde" unicode="&#x169;" 
 />
    <glyph glyph-name="Umacron" unicode="&#x16a;" horiz-adv-x="722" 
 />
    <glyph glyph-name="umacron" unicode="&#x16b;" 
 />
    <glyph glyph-name="Ubreve" unicode="&#x16c;" horiz-adv-x="722" 
 />
    <glyph glyph-name="ubreve" unicode="&#x16d;" 
 />
    <glyph glyph-name="Uring" unicode="&#x16e;" horiz-adv-x="722" 
 />
    <glyph glyph-name="uring" unicode="&#x16f;" 
 />
    <glyph glyph-name="Udblacute" unicode="&#x170;" horiz-adv-x="722" 
 />
    <glyph glyph-name="udblacute" unicode="&#x171;" 
 />
    <glyph glyph-name="Uogonek" unicode="&#x172;" horiz-adv-x="722" 
 />
    <glyph glyph-name="uogonek" unicode="&#x173;" 
 />
    <glyph glyph-name="Wcircumflex" unicode="&#x174;" horiz-adv-x="944" 
 />
    <glyph glyph-name="wcircumflex" unicode="&#x175;" horiz-adv-x="722" 
 />
    <glyph glyph-name="Ycircumflex" unicode="&#x176;" horiz-adv-x="667" 
 />
    <glyph glyph-name="ycircumflex" unicode="&#x177;" horiz-adv-x="500" 
 />
    <glyph glyph-name="Ydieresis" unicode="&#x178;" horiz-adv-x="667" 
 />
    <glyph glyph-name="Zacute" unicode="&#x179;" horiz-adv-x="611" 
 />
    <glyph glyph-name="zacute" unicode="&#x17a;" horiz-adv-x="500" 
 />
    <glyph glyph-name="Zdot" unicode="&#x17b;" horiz-adv-x="611" 
 />
    <glyph glyph-name="zdot" unicode="&#x17c;" horiz-adv-x="500" 
 />
    <glyph glyph-name="Zcaron" unicode="&#x17d;" horiz-adv-x="611" 
 />
    <glyph glyph-name="zcaron" unicode="&#x17e;" horiz-adv-x="500" 
 />
    <glyph glyph-name="longs" unicode="&#x17f;" horiz-adv-x="222" 
 />
    <glyph glyph-name="florin" unicode="&#x192;" 
 />
    <glyph glyph-name="Aringacute" unicode="&#x1fa;" horiz-adv-x="667" 
 />
    <glyph glyph-name="aringacute" unicode="&#x1fb;" 
 />
    <glyph glyph-name="AEacute" unicode="&#x1fc;" horiz-adv-x="1000" 
 />
    <glyph glyph-name="aeacute" unicode="&#x1fd;" horiz-adv-x="889" 
 />
    <glyph glyph-name="Oslashacute" unicode="&#x1fe;" horiz-adv-x="778" 
 />
    <glyph glyph-name="oslashacute" unicode="&#x1ff;" horiz-adv-x="611" 
 />
    <glyph glyph-name="circumflex" unicode="&#x2c6;" horiz-adv-x="333" 
 />
    <glyph glyph-name="caron" unicode="&#x2c7;" horiz-adv-x="333" 
 />
    <glyph glyph-name="macron" unicode="&#x2c9;" horiz-adv-x="333" 
 />
    <glyph glyph-name="breve" unicode="&#x2d8;" horiz-adv-x="333" 
 />
    <glyph glyph-name="dotaccent" unicode="&#x2d9;" horiz-adv-x="333" 
 />
    <glyph glyph-name="ring" unicode="&#x2da;" horiz-adv-x="333" 
 />
    <glyph glyph-name="ogonek" unicode="&#x2db;" horiz-adv-x="333" 
 />
    <glyph glyph-name="tilde" unicode="&#x2dc;" horiz-adv-x="333" 
 />
    <glyph glyph-name="hungarumlaut" unicode="&#x2dd;" horiz-adv-x="333" 
 />
    <glyph glyph-name="tonos" unicode="&#x384;" horiz-adv-x="333" 
 />
    <glyph glyph-name="dieresistonos" unicode="&#x385;" horiz-adv-x="333" 
 />
    <glyph glyph-name="Alphatonos" unicode="&#x386;" horiz-adv-x="667" 
 />
    <glyph glyph-name="anoteleia" unicode="&#x387;" horiz-adv-x="278" 
 />
    <glyph glyph-name="Epsilontonos" unicode="&#x388;" horiz-adv-x="784" 
 />
    <glyph glyph-name="Etatonos" unicode="&#x389;" horiz-adv-x="838" 
 />
    <glyph glyph-name="Iotatonos" unicode="&#x38a;" horiz-adv-x="384" 
 />
    <glyph glyph-name="Omicrontonos" unicode="&#x38c;" horiz-adv-x="774" 
 />
    <glyph glyph-name="Upsilontonos" unicode="&#x38e;" horiz-adv-x="855" 
 />
    <glyph glyph-name="Omegatonos" unicode="&#x38f;" horiz-adv-x="752" 
 />
    <glyph glyph-name="iotadieresistonos" unicode="&#x390;" horiz-adv-x="222" 
 />
    <glyph glyph-name="Alpha" unicode="&#x391;" horiz-adv-x="667" 
 />
    <glyph glyph-name="Beta" unicode="&#x392;" horiz-adv-x="667" 
 />
    <glyph glyph-name="Gamma" unicode="&#x393;" horiz-adv-x="551" 
 />
    <glyph glyph-name="Delta" unicode="&#x394;" horiz-adv-x="668" 
 />
    <glyph glyph-name="Epsilon" unicode="&#x395;" horiz-adv-x="667" 
 />
    <glyph glyph-name="Zeta" unicode="&#x396;" horiz-adv-x="611" 
 />
    <glyph glyph-name="Eta" unicode="&#x397;" horiz-adv-x="722" 
 />
    <glyph glyph-name="Theta" unicode="&#x398;" horiz-adv-x="778" 
 />
    <glyph glyph-name="Iota" unicode="&#x399;" horiz-adv-x="278" 
 />
    <glyph glyph-name="Kappa" unicode="&#x39a;" horiz-adv-x="667" 
 />
    <glyph glyph-name="Lambda" unicode="&#x39b;" horiz-adv-x="668" 
 />
    <glyph glyph-name="Mu" unicode="&#x39c;" horiz-adv-x="833" 
 />
    <glyph glyph-name="Nu" unicode="&#x39d;" horiz-adv-x="722" 
 />
    <glyph glyph-name="Xi" unicode="&#x39e;" horiz-adv-x="650" 
 />
    <glyph glyph-name="Omicron" unicode="&#x39f;" horiz-adv-x="778" 
 />
    <glyph glyph-name="Pi" unicode="&#x3a0;" horiz-adv-x="722" 
 />
    <glyph glyph-name="Rho" unicode="&#x3a1;" horiz-adv-x="667" 
 />
    <glyph glyph-name="Sigma" unicode="&#x3a3;" horiz-adv-x="618" 
 />
    <glyph glyph-name="Tau" unicode="&#x3a4;" horiz-adv-x="611" 
 />
    <glyph glyph-name="Upsilon" unicode="&#x3a5;" horiz-adv-x="667" 
 />
    <glyph glyph-name="Phi" unicode="&#x3a6;" horiz-adv-x="798" 
 />
    <glyph glyph-name="Chi" unicode="&#x3a7;" horiz-adv-x="667" 
 />
    <glyph glyph-name="Psi" unicode="&#x3a8;" horiz-adv-x="835" 
 />
    <glyph glyph-name="Omega" unicode="&#x3a9;" horiz-adv-x="748" 
 />
    <glyph glyph-name="Iotadieresis" unicode="&#x3aa;" horiz-adv-x="278" 
 />
    <glyph glyph-name="Upsilondieresis" unicode="&#x3ab;" horiz-adv-x="667" 
 />
    <glyph glyph-name="alphatonos" unicode="&#x3ac;" horiz-adv-x="578" 
 />
    <glyph glyph-name="epsilontonos" unicode="&#x3ad;" horiz-adv-x="446" 
 />
    <glyph glyph-name="etatonos" unicode="&#x3ae;" 
 />
    <glyph glyph-name="iotatonos" unicode="&#x3af;" horiz-adv-x="222" 
 />
    <glyph glyph-name="upsilondieresistonos" unicode="&#x3b0;" horiz-adv-x="547" 
 />
    <glyph glyph-name="alpha" unicode="&#x3b1;" horiz-adv-x="578" 
 />
    <glyph glyph-name="beta" unicode="&#x3b2;" horiz-adv-x="575" 
 />
    <glyph glyph-name="gamma" unicode="&#x3b3;" horiz-adv-x="500" 
 />
    <glyph glyph-name="delta" unicode="&#x3b4;" horiz-adv-x="557" 
 />
    <glyph glyph-name="epsilon" unicode="&#x3b5;" horiz-adv-x="446" 
 />
    <glyph glyph-name="zeta" unicode="&#x3b6;" horiz-adv-x="441" 
 />
    <glyph glyph-name="eta" unicode="&#x3b7;" 
 />
    <glyph glyph-name="theta" unicode="&#x3b8;" 
 />
    <glyph glyph-name="iota" unicode="&#x3b9;" horiz-adv-x="222" 
 />
    <glyph glyph-name="kappa" unicode="&#x3ba;" horiz-adv-x="500" 
 />
    <glyph glyph-name="lambda" unicode="&#x3bb;" horiz-adv-x="500" 
 />
    <glyph glyph-name="mu" unicode="&#x3bc;" horiz-adv-x="576" 
 />
    <glyph glyph-name="nu" unicode="&#x3bd;" horiz-adv-x="500" 
 />
    <glyph glyph-name="xi" unicode="&#x3be;" horiz-adv-x="448" 
 />
    <glyph glyph-name="omicron" unicode="&#x3bf;" 
 />
    <glyph glyph-name="pi" unicode="&#x3c0;" horiz-adv-x="690" 
 />
    <glyph glyph-name="rho" unicode="&#x3c1;" horiz-adv-x="569" 
 />
    <glyph glyph-name="sigma1" unicode="&#x3c2;" horiz-adv-x="482" 
 />
    <glyph glyph-name="sigma" unicode="&#x3c3;" horiz-adv-x="617" 
 />
    <glyph glyph-name="tau" unicode="&#x3c4;" horiz-adv-x="395" 
 />
    <glyph glyph-name="upsilon" unicode="&#x3c5;" horiz-adv-x="547" 
 />
    <glyph glyph-name="phi" unicode="&#x3c6;" horiz-adv-x="648" 
 />
    <glyph glyph-name="chi" unicode="&#x3c7;" horiz-adv-x="525" 
 />
    <glyph glyph-name="psi" unicode="&#x3c8;" horiz-adv-x="713" 
 />
    <glyph glyph-name="omega" unicode="&#x3c9;" horiz-adv-x="781" 
 />
    <glyph glyph-name="iotadieresis" unicode="&#x3ca;" horiz-adv-x="222" 
 />
    <glyph glyph-name="upsilondieresis" unicode="&#x3cb;" horiz-adv-x="547" 
 />
    <glyph glyph-name="omicrontonos" unicode="&#x3cc;" 
 />
    <glyph glyph-name="upsilontonos" unicode="&#x3cd;" horiz-adv-x="547" 
 />
    <glyph glyph-name="omegatonos" unicode="&#x3ce;" horiz-adv-x="781" 
 />
    <glyph glyph-name="afii10023" unicode="&#x401;" horiz-adv-x="667" 
 />
    <glyph glyph-name="afii10051" unicode="&#x402;" horiz-adv-x="865" 
 />
    <glyph glyph-name="afii10052" unicode="&#x403;" horiz-adv-x="542" 
 />
    <glyph glyph-name="afii10053" unicode="&#x404;" horiz-adv-x="719" 
 />
    <glyph glyph-name="afii10054" unicode="&#x405;" horiz-adv-x="667" 
 />
    <glyph glyph-name="afii10055" unicode="&#x406;" horiz-adv-x="278" 
 />
    <glyph glyph-name="afii10056" unicode="&#x407;" horiz-adv-x="278" 
 />
    <glyph glyph-name="afii10057" unicode="&#x408;" horiz-adv-x="500" 
 />
    <glyph glyph-name="afii10058" unicode="&#x409;" horiz-adv-x="1057" 
 />
    <glyph glyph-name="afii10059" unicode="&#x40a;" horiz-adv-x="1010" 
 />
    <glyph glyph-name="afii10060" unicode="&#x40b;" horiz-adv-x="854" 
 />
    <glyph glyph-name="afii10061" unicode="&#x40c;" horiz-adv-x="583" 
 />
    <glyph glyph-name="afii10062" unicode="&#x40e;" horiz-adv-x="635" 
 />
    <glyph glyph-name="afii10145" unicode="&#x40f;" horiz-adv-x="719" 
 />
    <glyph glyph-name="afii10017" unicode="&#x410;" horiz-adv-x="667" 
 />
    <glyph glyph-name="afii10018" unicode="&#x411;" horiz-adv-x="656" 
 />
    <glyph glyph-name="afii10019" unicode="&#x412;" horiz-adv-x="667" 
 />
    <glyph glyph-name="afii10020" unicode="&#x413;" horiz-adv-x="542" 
 />
    <glyph glyph-name="afii10021" unicode="&#x414;" horiz-adv-x="677" 
 />
    <glyph glyph-name="afii10022" unicode="&#x415;" horiz-adv-x="667" 
 />
    <glyph glyph-name="afii10024" unicode="&#x416;" horiz-adv-x="923" 
 />
    <glyph glyph-name="afii10025" unicode="&#x417;" horiz-adv-x="604" 
 />
    <glyph glyph-name="afii10026" unicode="&#x418;" horiz-adv-x="719" 
 />
    <glyph glyph-name="afii10027" unicode="&#x419;" horiz-adv-x="719" 
 />
    <glyph glyph-name="afii10028" unicode="&#x41a;" horiz-adv-x="583" 
 />
    <glyph glyph-name="afii10029" unicode="&#x41b;" horiz-adv-x="656" 
 />
    <glyph glyph-name="afii10030" unicode="&#x41c;" horiz-adv-x="833" 
 />
    <glyph glyph-name="afii10031" unicode="&#x41d;" horiz-adv-x="722" 
 />
    <glyph glyph-name="afii10032" unicode="&#x41e;" horiz-adv-x="778" 
 />
    <glyph glyph-name="afii10033" unicode="&#x41f;" horiz-adv-x="719" 
 />
    <glyph glyph-name="afii10034" unicode="&#x420;" horiz-adv-x="667" 
 />
    <glyph glyph-name="afii10035" unicode="&#x421;" horiz-adv-x="722" 
 />
    <glyph glyph-name="afii10036" unicode="&#x422;" horiz-adv-x="611" 
 />
    <glyph glyph-name="afii10037" unicode="&#x423;" horiz-adv-x="635" 
 />
    <glyph glyph-name="afii10038" unicode="&#x424;" horiz-adv-x="760" 
 />
    <glyph glyph-name="afii10039" unicode="&#x425;" horiz-adv-x="667" 
 />
    <glyph glyph-name="afii10040" unicode="&#x426;" horiz-adv-x="740" 
 />
    <glyph glyph-name="afii10041" unicode="&#x427;" horiz-adv-x="667" 
 />
    <glyph glyph-name="afii10042" unicode="&#x428;" horiz-adv-x="917" 
 />
    <glyph glyph-name="afii10043" unicode="&#x429;" horiz-adv-x="937" 
 />
    <glyph glyph-name="afii10044" unicode="&#x42a;" horiz-adv-x="792" 
 />
    <glyph glyph-name="afii10045" unicode="&#x42b;" horiz-adv-x="885" 
 />
    <glyph glyph-name="afii10046" unicode="&#x42c;" horiz-adv-x="656" 
 />
    <glyph glyph-name="afii10047" unicode="&#x42d;" horiz-adv-x="719" 
 />
    <glyph glyph-name="afii10048" unicode="&#x42e;" horiz-adv-x="1010" 
 />
    <glyph glyph-name="afii10049" unicode="&#x42f;" horiz-adv-x="722" 
 />
    <glyph glyph-name="afii10065" unicode="&#x430;" 
 />
    <glyph glyph-name="afii10066" unicode="&#x431;" horiz-adv-x="573" 
 />
    <glyph glyph-name="afii10067" unicode="&#x432;" horiz-adv-x="531" 
 />
    <glyph glyph-name="afii10068" unicode="&#x433;" horiz-adv-x="365" 
 />
    <glyph glyph-name="afii10069" unicode="&#x434;" horiz-adv-x="583" 
 />
    <glyph glyph-name="afii10070" unicode="&#x435;" 
 />
    <glyph glyph-name="afii10072" unicode="&#x436;" horiz-adv-x="669" 
 />
    <glyph glyph-name="afii10073" unicode="&#x437;" horiz-adv-x="458" 
 />
    <glyph glyph-name="afii10074" unicode="&#x438;" horiz-adv-x="559" 
 />
    <glyph glyph-name="afii10075" unicode="&#x439;" horiz-adv-x="559" 
 />
    <glyph glyph-name="afii10076" unicode="&#x43a;" horiz-adv-x="437" 
 />
    <glyph glyph-name="afii10077" unicode="&#x43b;" horiz-adv-x="583" 
 />
    <glyph glyph-name="afii10078" unicode="&#x43c;" horiz-adv-x="687" 
 />
    <glyph glyph-name="afii10079" unicode="&#x43d;" horiz-adv-x="552" 
 />
    <glyph glyph-name="afii10080" unicode="&#x43e;" 
 />
    <glyph glyph-name="afii10081" unicode="&#x43f;" horiz-adv-x="542" 
 />
    <glyph glyph-name="afii10082" unicode="&#x440;" 
 />
    <glyph glyph-name="afii10083" unicode="&#x441;" horiz-adv-x="500" 
 />
    <glyph glyph-name="afii10084" unicode="&#x442;" horiz-adv-x="458" 
 />
    <glyph glyph-name="afii10085" unicode="&#x443;" horiz-adv-x="500" 
 />
    <glyph glyph-name="afii10086" unicode="&#x444;" horiz-adv-x="823" 
 />
    <glyph glyph-name="afii10087" unicode="&#x445;" horiz-adv-x="500" 
 />
    <glyph glyph-name="afii10088" unicode="&#x446;" horiz-adv-x="573" 
 />
    <glyph glyph-name="afii10089" unicode="&#x447;" horiz-adv-x="521" 
 />
    <glyph glyph-name="afii10090" unicode="&#x448;" horiz-adv-x="802" 
 />
    <glyph glyph-name="afii10091" unicode="&#x449;" horiz-adv-x="823" 
 />
    <glyph glyph-name="afii10092" unicode="&#x44a;" horiz-adv-x="625" 
 />
    <glyph glyph-name="afii10093" unicode="&#x44b;" horiz-adv-x="719" 
 />
    <glyph glyph-name="afii10094" unicode="&#x44c;" horiz-adv-x="521" 
 />
    <glyph glyph-name="afii10095" unicode="&#x44d;" horiz-adv-x="510" 
 />
    <glyph glyph-name="afii10096" unicode="&#x44e;" horiz-adv-x="750" 
 />
    <glyph glyph-name="afii10097" unicode="&#x44f;" horiz-adv-x="542" 
 />
    <glyph glyph-name="afii10071" unicode="&#x451;" 
 />
    <glyph glyph-name="afii10099" unicode="&#x452;" 
 />
    <glyph glyph-name="afii10100" unicode="&#x453;" horiz-adv-x="365" 
 />
    <glyph glyph-name="afii10101" unicode="&#x454;" horiz-adv-x="510" 
 />
    <glyph glyph-name="afii10102" unicode="&#x455;" horiz-adv-x="500" 
 />
    <glyph glyph-name="afii10103" unicode="&#x456;" horiz-adv-x="222" 
 />
    <glyph glyph-name="afii10104" unicode="&#x457;" horiz-adv-x="278" 
 />
    <glyph glyph-name="afii10105" unicode="&#x458;" horiz-adv-x="222" 
 />
    <glyph glyph-name="afii10106" unicode="&#x459;" horiz-adv-x="906" 
 />
    <glyph glyph-name="afii10107" unicode="&#x45a;" horiz-adv-x="812" 
 />
    <glyph glyph-name="afii10108" unicode="&#x45b;" 
 />
    <glyph glyph-name="afii10109" unicode="&#x45c;" horiz-adv-x="437" 
 />
    <glyph glyph-name="afii10110" unicode="&#x45e;" horiz-adv-x="500" 
 />
    <glyph glyph-name="afii10193" unicode="&#x45f;" horiz-adv-x="552" 
 />
    <glyph glyph-name="afii10050" unicode="&#x490;" horiz-adv-x="489" 
 />
    <glyph glyph-name="afii10098" unicode="&#x491;" horiz-adv-x="411" 
 />
    <glyph glyph-name="Wgrave" unicode="&#x1e80;" horiz-adv-x="944" 
 />
    <glyph glyph-name="wgrave" unicode="&#x1e81;" horiz-adv-x="722" 
 />
    <glyph glyph-name="Wacute" unicode="&#x1e82;" horiz-adv-x="944" 
 />
    <glyph glyph-name="wacute" unicode="&#x1e83;" horiz-adv-x="722" 
 />
    <glyph glyph-name="Wdieresis" unicode="&#x1e84;" horiz-adv-x="944" 
 />
    <glyph glyph-name="wdieresis" unicode="&#x1e85;" horiz-adv-x="722" 
 />
    <glyph glyph-name="Ygrave" unicode="&#x1ef2;" horiz-adv-x="667" 
 />
    <glyph glyph-name="ygrave" unicode="&#x1ef3;" horiz-adv-x="500" 
 />
    <glyph glyph-name="endash" unicode="&#x2013;" 
 />
    <glyph glyph-name="emdash" unicode="&#x2014;" horiz-adv-x="1000" 
 />
    <glyph glyph-name="afii00208" unicode="&#x2015;" horiz-adv-x="1000" 
 />
    <glyph glyph-name="underscoredbl" unicode="&#x2017;" horiz-adv-x="552" 
 />
    <glyph glyph-name="quoteleft" unicode="&#x2018;" horiz-adv-x="222" 
 />
    <glyph glyph-name="quoteright" unicode="&#x2019;" horiz-adv-x="222" 
 />
    <glyph glyph-name="quotesinglbase" unicode="&#x201a;" horiz-adv-x="222" 
 />
    <glyph glyph-name="quotereversed" unicode="&#x201b;" horiz-adv-x="222" 
 />
    <glyph glyph-name="quotedblleft" unicode="&#x201c;" horiz-adv-x="333" 
 />
    <glyph glyph-name="quotedblright" unicode="&#x201d;" horiz-adv-x="333" 
 />
    <glyph glyph-name="quotedblbase" unicode="&#x201e;" horiz-adv-x="333" 
 />
    <glyph glyph-name="dagger" unicode="&#x2020;" 
 />
    <glyph glyph-name="daggerdbl" unicode="&#x2021;" 
 />
    <glyph glyph-name="bullet" unicode="&#x2022;" horiz-adv-x="350" 
 />
    <glyph glyph-name="ellipsis" unicode="&#x2026;" horiz-adv-x="1000" 
 />
    <glyph glyph-name="perthousand" unicode="&#x2030;" horiz-adv-x="1000" 
 />
    <glyph glyph-name="minute" unicode="&#x2032;" horiz-adv-x="187" 
 />
    <glyph glyph-name="second" unicode="&#x2033;" horiz-adv-x="354" 
 />
    <glyph glyph-name="guilsinglleft" unicode="&#x2039;" horiz-adv-x="333" 
 />
    <glyph glyph-name="guilsinglright" unicode="&#x203a;" horiz-adv-x="333" 
 />
    <glyph glyph-name="exclamdbl" unicode="&#x203c;" horiz-adv-x="500" 
 />
    <glyph glyph-name="radicalex" unicode="&#x203e;" horiz-adv-x="333" 
 />
    <glyph glyph-name="fraction" unicode="&#x2044;" horiz-adv-x="167" 
 />
    <glyph glyph-name="fraction" unicode="&#x2215;" horiz-adv-x="167" 
 />
    <glyph glyph-name="nsuperior" unicode="&#x207f;" horiz-adv-x="365" 
 />
    <glyph glyph-name="franc" unicode="&#x20a3;" 
 />
    <glyph glyph-name="afii08941" unicode="&#x20a4;" 
 />
    <glyph glyph-name="peseta" unicode="&#x20a7;" horiz-adv-x="1094" 
 />
    <glyph glyph-name="Euro" unicode="&#x20ac;" 
 />
    <glyph glyph-name="afii61248" unicode="&#x2105;" horiz-adv-x="885" 
 />
    <glyph glyph-name="afii61289" unicode="&#x2113;" horiz-adv-x="323" 
 />
    <glyph glyph-name="afii61352" unicode="&#x2116;" horiz-adv-x="1073" 
 />
    <glyph glyph-name="trademark" unicode="&#x2122;" horiz-adv-x="1000" 
 />
    <glyph glyph-name="Ohm" unicode="&#x2126;" horiz-adv-x="768" 
 />
    <glyph glyph-name="estimated" unicode="&#x212e;" horiz-adv-x="600" 
 />
    <glyph glyph-name="oneeighth" unicode="&#x215b;" horiz-adv-x="834" 
 />
    <glyph glyph-name="threeeighths" unicode="&#x215c;" horiz-adv-x="834" 
 />
    <glyph glyph-name="fiveeighths" unicode="&#x215d;" horiz-adv-x="834" 
 />
    <glyph glyph-name="seveneighths" unicode="&#x215e;" horiz-adv-x="834" 
 />
    <glyph glyph-name="arrowleft" unicode="&#x2190;" horiz-adv-x="1000" 
 />
    <glyph glyph-name="arrowup" unicode="&#x2191;" horiz-adv-x="500" 
 />
    <glyph glyph-name="arrowright" unicode="&#x2192;" horiz-adv-x="1000" 
 />
    <glyph glyph-name="arrowdown" unicode="&#x2193;" horiz-adv-x="500" 
 />
    <glyph glyph-name="arrowboth" unicode="&#x2194;" horiz-adv-x="1000" 
 />
    <glyph glyph-name="arrowupdn" unicode="&#x2195;" horiz-adv-x="500" 
 />
    <glyph glyph-name="arrowupdnbse" unicode="&#x21a8;" horiz-adv-x="500" 
 />
    <glyph glyph-name="partialdiff" unicode="&#x2202;" horiz-adv-x="494" 
 />
    <glyph glyph-name="Delta" unicode="&#x2206;" horiz-adv-x="612" 
 />
    <glyph glyph-name="product" unicode="&#x220f;" horiz-adv-x="823" 
 />
    <glyph glyph-name="summation" unicode="&#x2211;" horiz-adv-x="713" 
 />
    <glyph glyph-name="minus" unicode="&#x2212;" horiz-adv-x="584" 
 />
    <glyph glyph-name="radical" unicode="&#x221a;" horiz-adv-x="549" 
 />
    <glyph glyph-name="infinity" unicode="&#x221e;" horiz-adv-x="713" 
 />
    <glyph glyph-name="orthogonal" unicode="&#x221f;" horiz-adv-x="979" 
 />
    <glyph glyph-name="intersection" unicode="&#x2229;" horiz-adv-x="719" 
 />
    <glyph glyph-name="integral" unicode="&#x222b;" horiz-adv-x="274" 
 />
    <glyph glyph-name="approxequal" unicode="&#x2248;" horiz-adv-x="549" 
 />
    <glyph glyph-name="notequal" unicode="&#x2260;" horiz-adv-x="549" 
 />
    <glyph glyph-name="equivalence" unicode="&#x2261;" horiz-adv-x="583" 
 />
    <glyph glyph-name="lessequal" unicode="&#x2264;" horiz-adv-x="549" 
 />
    <glyph glyph-name="greaterequal" unicode="&#x2265;" horiz-adv-x="549" 
 />
    <glyph glyph-name="house" unicode="&#x2302;" horiz-adv-x="604" 
 />
    <glyph glyph-name="revlogicalnot" unicode="&#x2310;" horiz-adv-x="584" 
 />
    <glyph glyph-name="integraltp" unicode="&#x2320;" horiz-adv-x="604" 
 />
    <glyph glyph-name="integralbt" unicode="&#x2321;" horiz-adv-x="604" 
 />
    <glyph glyph-name="SF100000" unicode="&#x2500;" horiz-adv-x="708" 
 />
    <glyph glyph-name="SF110000" unicode="&#x2502;" horiz-adv-x="625" 
 />
    <glyph glyph-name="SF010000" unicode="&#x250c;" horiz-adv-x="708" 
 />
    <glyph glyph-name="SF030000" unicode="&#x2510;" horiz-adv-x="708" 
 />
    <glyph glyph-name="SF020000" unicode="&#x2514;" horiz-adv-x="708" 
 />
    <glyph glyph-name="SF040000" unicode="&#x2518;" horiz-adv-x="708" 
 />
    <glyph glyph-name="SF080000" unicode="&#x251c;" horiz-adv-x="708" 
 />
    <glyph glyph-name="SF090000" unicode="&#x2524;" horiz-adv-x="708" 
 />
    <glyph glyph-name="SF060000" unicode="&#x252c;" horiz-adv-x="708" 
 />
    <glyph glyph-name="SF070000" unicode="&#x2534;" horiz-adv-x="708" 
 />
    <glyph glyph-name="SF050000" unicode="&#x253c;" horiz-adv-x="708" 
 />
    <glyph glyph-name="SF430000" unicode="&#x2550;" horiz-adv-x="708" 
 />
    <glyph glyph-name="SF240000" unicode="&#x2551;" horiz-adv-x="708" 
 />
    <glyph glyph-name="SF510000" unicode="&#x2552;" horiz-adv-x="708" 
 />
    <glyph glyph-name="SF520000" unicode="&#x2553;" horiz-adv-x="708" 
 />
    <glyph glyph-name="SF390000" unicode="&#x2554;" horiz-adv-x="708" 
 />
    <glyph glyph-name="SF220000" unicode="&#x2555;" horiz-adv-x="708" 
 />
    <glyph glyph-name="SF210000" unicode="&#x2556;" horiz-adv-x="708" 
 />
    <glyph glyph-name="SF250000" unicode="&#x2557;" horiz-adv-x="708" 
 />
    <glyph glyph-name="SF500000" unicode="&#x2558;" horiz-adv-x="708" 
 />
    <glyph glyph-name="SF490000" unicode="&#x2559;" horiz-adv-x="708" 
 />
    <glyph glyph-name="SF380000" unicode="&#x255a;" horiz-adv-x="708" 
 />
    <glyph glyph-name="SF280000" unicode="&#x255b;" horiz-adv-x="708" 
 />
    <glyph glyph-name="SF270000" unicode="&#x255c;" horiz-adv-x="708" 
 />
    <glyph glyph-name="SF260000" unicode="&#x255d;" horiz-adv-x="708" 
 />
    <glyph glyph-name="SF360000" unicode="&#x255e;" horiz-adv-x="708" 
 />
    <glyph glyph-name="SF370000" unicode="&#x255f;" horiz-adv-x="708" 
 />
    <glyph glyph-name="SF420000" unicode="&#x2560;" horiz-adv-x="708" 
 />
    <glyph glyph-name="SF190000" unicode="&#x2561;" horiz-adv-x="708" 
 />
    <glyph glyph-name="SF200000" unicode="&#x2562;" horiz-adv-x="708" 
 />
    <glyph glyph-name="SF230000" unicode="&#x2563;" horiz-adv-x="708" 
 />
    <glyph glyph-name="SF470000" unicode="&#x2564;" horiz-adv-x="708" 
 />
    <glyph glyph-name="SF480000" unicode="&#x2565;" horiz-adv-x="708" 
 />
    <glyph glyph-name="SF410000" unicode="&#x2566;" horiz-adv-x="708" 
 />
    <glyph glyph-name="SF450000" unicode="&#x2567;" horiz-adv-x="708" 
 />
    <glyph glyph-name="SF460000" unicode="&#x2568;" horiz-adv-x="708" 
 />
    <glyph glyph-name="SF400000" unicode="&#x2569;" horiz-adv-x="708" 
 />
    <glyph glyph-name="SF540000" unicode="&#x256a;" horiz-adv-x="708" 
 />
    <glyph glyph-name="SF530000" unicode="&#x256b;" horiz-adv-x="708" 
 />
    <glyph glyph-name="SF440000" unicode="&#x256c;" horiz-adv-x="708" 
 />
    <glyph glyph-name="upblock" unicode="&#x2580;" horiz-adv-x="708" 
 />
    <glyph glyph-name="dnblock" unicode="&#x2584;" horiz-adv-x="708" 
 />
    <glyph glyph-name="block" unicode="&#x2588;" horiz-adv-x="708" 
 />
    <glyph glyph-name="lfblock" unicode="&#x258c;" horiz-adv-x="708" 
 />
    <glyph glyph-name="rtblock" unicode="&#x2590;" horiz-adv-x="708" 
 />
    <glyph glyph-name="ltshade" unicode="&#x2591;" horiz-adv-x="708" 
 />
    <glyph glyph-name="shade" unicode="&#x2592;" horiz-adv-x="708" 
 />
    <glyph glyph-name="dkshade" unicode="&#x2593;" horiz-adv-x="729" 
 />
    <glyph glyph-name="filledbox" unicode="&#x25a0;" horiz-adv-x="604" 
 />
    <glyph glyph-name="H22073" unicode="&#x25a1;" horiz-adv-x="604" 
 />
    <glyph glyph-name="H18543" unicode="&#x25aa;" horiz-adv-x="354" 
 />
    <glyph glyph-name="H18551" unicode="&#x25ab;" horiz-adv-x="354" 
 />
    <glyph glyph-name="filledrect" unicode="&#x25ac;" horiz-adv-x="1000" 
 />
    <glyph glyph-name="triagup" unicode="&#x25b2;" horiz-adv-x="990" 
 />
    <glyph glyph-name="triagrt" unicode="&#x25ba;" horiz-adv-x="990" 
 />
    <glyph glyph-name="triagdn" unicode="&#x25bc;" horiz-adv-x="990" 
 />
    <glyph glyph-name="triaglf" unicode="&#x25c4;" horiz-adv-x="990" 
 />
    <glyph glyph-name="lozenge" unicode="&#x25ca;" horiz-adv-x="494" 
 />
    <glyph glyph-name="circle" unicode="&#x25cb;" horiz-adv-x="604" 
 />
    <glyph glyph-name="H18533" unicode="&#x25cf;" horiz-adv-x="604" 
 />
    <glyph glyph-name="invbullet" unicode="&#x25d8;" horiz-adv-x="604" 
 />
    <glyph glyph-name="invcircle" unicode="&#x25d9;" horiz-adv-x="604" 
 />
    <glyph glyph-name="openbullet" unicode="&#x25e6;" horiz-adv-x="354" 
 />
    <glyph glyph-name="smileface" unicode="&#x263a;" horiz-adv-x="1021" 
 />
    <glyph glyph-name="invsmileface" unicode="&#x263b;" horiz-adv-x="1052" 
 />
    <glyph glyph-name="sun" unicode="&#x263c;" horiz-adv-x="917" 
 />
    <glyph glyph-name="female" unicode="&#x2640;" horiz-adv-x="750" 
 />
    <glyph glyph-name="male" unicode="&#x2642;" horiz-adv-x="750" 
 />
    <glyph glyph-name="spade" unicode="&#x2660;" horiz-adv-x="531" 
 />
    <glyph glyph-name="club" unicode="&#x2663;" horiz-adv-x="656" 
 />
    <glyph glyph-name="heart" unicode="&#x2665;" horiz-adv-x="594" 
 />
    <glyph glyph-name="diamond" unicode="&#x2666;" horiz-adv-x="510" 
 />
    <glyph glyph-name="musicalnote" unicode="&#x266a;" horiz-adv-x="500" 
 />
    <glyph glyph-name="musicalnotedbl" unicode="&#x266b;" horiz-adv-x="750" 
 />
    <glyph glyph-name="fi" unicode="&#xf001;" horiz-adv-x="500" 
 />
    <glyph glyph-name="fi" unicode="&#xfb01;" horiz-adv-x="500" 
 />
    <glyph glyph-name="fl" unicode="&#xf002;" horiz-adv-x="500" 
 />
    <glyph glyph-name="fl" unicode="&#xfb02;" horiz-adv-x="500" 
 />
    <glyph glyph-name="commaaccent" unicode="&#xf004;" horiz-adv-x="333" 
 />
    <glyph glyph-name="undercommaaccent" unicode="&#xf005;" horiz-adv-x="333" 
 />
    <glyph glyph-name=".null" horiz-adv-x="0" 
 />
    <glyph glyph-name="nonmarkingreturn" horiz-adv-x="278" 
 />
    <glyph glyph-name="pi1" horiz-adv-x="549" 
 />
    <glyph glyph-name="periodcentered" horiz-adv-x="333" 
 />
  </font>
</defs>
</svg>
