<?xml version="1.0" standalone="no"?>
<!DOCTYPE svg PUBLIC "-//W3C//DTD SVG 1.1//EN" "http://www.w3.org/Graphics/SVG/1.1/DTD/svg11.dtd" >
<svg xmlns="http://www.w3.org/2000/svg" xmlns:xlink="http://www.w3.org/1999/xlink" version="1.1">
<metadata>
Created by FontForge 20170731 at Tue Jun  9 17:56:25 2015
 By Aleksey,,,
briNicolemonkeyroodlesfonts
</metadata>
<defs>
<font id="justbeautifulsimplicity" horiz-adv-x="532" >
  <font-face 
    font-family="justbeautifulsimplicity"
    font-weight="500"
    font-stretch="normal"
    units-per-em="1000"
    panose-1="2 0 6 3 0 0 0 0 0 0"
    ascent="800"
    descent="-200"
    x-height="498"
    cap-height="805.5"
    bbox="-213.059 -286.182 909.5 807.632"
    underline-thickness="50"
    underline-position="-200"
    unicode-range="U+0020-3000"
  />
<missing-glyph horiz-adv-x="364" 
d="M66 33h199v600h-199v-600zM33 0v666h265v-666h-265z" />
    <glyph glyph-name=".notdef" horiz-adv-x="364" 
d="M66 33h199v600h-199v-600zM33 0v666h265v-666h-265z" />
    <glyph glyph-name=".null" horiz-adv-x="0" 
 />
    <glyph glyph-name="nonmarkingreturn" horiz-adv-x="333" 
 />
    <glyph glyph-name="space" unicode=" " horiz-adv-x="300" 
 />
    <glyph glyph-name="exclam" unicode="!" horiz-adv-x="177" 
d="M173 62q-3 -9 -8 -10q-6 -3 -7 -9q0 -5 4.5 -10t9.5 -6t8 2q4 6 0 21l-4 5q-1 3 -3 7zM160 228q0 3 2 15q5 27 10 221q1 27 1 119t-1 127v8v9q-1 12 0 13q6 7 13.5 1t9.5 -14q1 -1 4 -1t6 1l3 1q0 -1 -2 -3.5t-2 -4.5q-2 -7 -3.5 -55t-2.5 -99t-1 -57q-3 -47 -4.5 -130
t1.5 -128q1 -10 1 -12q2 -9 2 -11q-2 -15 -18.5 -14.5t-18.5 14.5zM157 87q10 0 15 -5q2 8 8 12q4 2 13.5 -3.5t14.5 -13.5q9 -16 5 -40q-5 -25 -18 -33q-15 -9 -39.5 3.5t-28.5 32.5q-3 15 5.5 31t24.5 16z" />
    <glyph glyph-name="quotedbl" unicode="&#x22;" horiz-adv-x="211" 
d="M70 672q5 17 19.5 14.5t16.5 -19.5q0 -2 -5 -41q-7 -51 -5 -97q1 -18 3 -33q0 -2 1 -4.5t1 -3.5q0 -10 -9 -16.5t-20 -3.5q-8 3 -9 15v2q-1 1 0 2q0 4 1.5 12t1.5 10q2 14 3 34q1 60 1 80q0 6 -1.5 16t-1 17.5t2.5 15.5zM208 662q4 17 18.5 16.5t18.5 -17.5q1 -5 -2 -37
q-3 -44 1 -84q1 -22 3 -35q0 -2 1 -5t1 -5q0 -14 -9 -24t-19 -6q-8 4 -10 23q0 4 3 31q2 15 2 33q-1 44 -4 68q0 5 -2 14t-2.5 13.5t0.5 14.5z" />
    <glyph glyph-name="numbersign" unicode="#" horiz-adv-x="570" 
d="M406 394q-18 -1 -22 -2q-54 -3 -147 -14q0 -2 -1 -4q-3 -28 -11 -114q65 10 79 12q23 3 103 6v42q0 24 -1 74zM64 239q0 1 8 0q14 -1 127 17q5 49 6 58q3 20 7 62q-59 -8 -79 -13q-10 -2 -12 -3q-9 -3 -11 -3q-14 0 -16 16.5t11 20.5h15q17 -1 95 6q18 196 17 264
q0 3 0.5 9t-0.5 9q0 13 1 16q5 19 21.5 15.5t15.5 -21.5q-1 -2 -1.5 -5t-1.5 -7.5t-2 -6.5q-3 -15 -7.5 -63t-10.5 -117t-8 -91q25 2 59.5 5.5t37.5 3.5q19 2 70 8q-5 198 -13 254q-2 14 -3 17q-3 12 -2 16q1 18 17 19t20 -18q0 -3 -1 -20q-2 -28 5 -265q115 13 135 18
q9 2 13 4l12 4q7 0 14 -10t3 -18q-4 -9 -14 -10q-2 -1 -6.5 0t-5.5 1q-10 1 -151 -14q1 -8 1 -13t1 -105q100 3 115 1q1 -1 2.5 -1t3.5 -1t3 -1q8 -2 9 -3q3 -5 -4 -14t-15 -11q-2 0 -5 -3h-2v1.5v2.5q-4 4 -107 6q2 -168 4 -195q1 -14 2 -19q2 -17 2 -18q-1 -10 -12 -16.5
t-19 -0.5q-7 6 -7 21q0 3 1.5 9t1.5 8q2 18 3 212q-33 0 -42 -1q-43 -4 -143 -20q-14 -152 -13 -181q1 -12 1 -19q1 -2 1.5 -6t1 -6.5t-0.5 -4.5q-1 -10 -12 -16.5t-19 -0.5q-7 6 -7 21q0 3 2 9t2 8q1 8 19 192q-93 -16 -113 -23q-6 -2 -8 -3q-5 -3 -6 -3q-9 0 -11.5 16.5
t5.5 19.5z" />
    <glyph glyph-name="dollar" unicode="$" horiz-adv-x="448" 
d="M167 527q-3 102 -6 162q-18 -20 -27.5 -47t-1.5 -47q13 -34 35 -68zM387 304q-7 215 -14 360q-38 33 -89 50q-50 17 -95 -4q-1 -65 2 -218q17 -22 37 -44t42.5 -43t36.5 -33.5t36.5 -31t25.5 -21.5q11 -9 18 -15zM164 31q3 71 5 144q-10 -8 -16 -15q-8 -8 -15.5 -23.5
t-11.5 -38t8 -40.5q10 -15 30 -27zM412 235q5 -112 7 -174q17 16 27 34q11 19 14 39.5t0.5 32.5t-6.5 19q-11 18 -42 49zM192 449q0 -25 1 -63.5t1 -48.5q0 -22 -1 -99q45 25 69 19q10 -2 2 -11q-5 -5 -16 -13.5t-28.5 -21t-25.5 -17.5q-1 -1 -1 -2q-2 -73 -3 -172
q56 -21 121 -12q44 7 83 33q-1 56 -6 218q-6 7 -79.5 76t-116.5 114zM402 781q0 -4 -2 -27q-1 -18 -1 -72q6 -5 11 -9q15 -13 31 -39q17 -28 18 -41q1 -30 -6.5 -41t-17 -0.5t-13.5 34.5q-2 19 -17 42q-2 4 -5 8q2 -156 8 -288q1 -14 3 -66q26 -27 47 -55q33 -46 27 -97
q-3 -25 -18 -50.5t-39 -42.5q-4 -3 -7 -5q4 -94 5 -116q1 -21 2 -26l3 -23q-1 -13 -12 -22t-19 -2q-8 8 -8 28q0 5 1.5 12.5t2.5 10.5q1 15 -1 122q-49 -25 -104 -31.5t-99 5.5q-1 1 -3 1q-1 -60 -2 -93v-26v-24q-3 -13 -14.5 -20.5t-18.5 0.5t-5 29q1 4 3 11.5t3 10.5
q3 16 7 122q-48 24 -62 63q-15 38 5 81q9 20 31 45q19 21 35 34v26q1 65 -3 223l-14 14q-26 29 -38.5 69t-5.5 76q10 53 49 86q0 8 -1 14l-1 23q-3 17 -2 21q1 16 9.5 21.5t17 -0.5t10.5 -22q0 -3 -2 -26v-12q13 6 26 7q79 4 155 -42q-1 22 -3 35q-1 23 -1 24q-3 16 -2 21
q1 15 9.5 20.5t17 -0.5t10.5 -21z" />
    <glyph glyph-name="percent" unicode="%" horiz-adv-x="580" 
d="M586 167q3 2 7 1q5 -2 11.5 -11.5t8.5 -19.5q2 -12 -2 -29q-19 -69 -53 -82q-24 -9 -45.5 20.5t-14.5 71.5q4 33 30 48t52 5q3 -1 6 -4zM380 578q0 2 0.5 6.5t0.5 7.5q0 14 -16 36t-28.5 18t-19.5 -31t-7 -50q0 -15 12 -39t29 -21q19 4 33 21t20 36q-8 -3 -16 2t-8 14z
M617 657q-1 -4 -9 -16q-10 -15 -169 -305q-21 -39 -80 -167t-64 -150q-2 -7 -2 -14v-5v-4.5v-3.5q-3 -6 -14 -9t-19 3q-7 6 -4 16q0 3 2.5 7.5t3.5 5.5q96 222 120 263q144 258 187 353q-20 -12 -36 -19q-45 -22 -83 -26q-9 0 -14 -1q1 -15 -11.5 -45t-41.5 -48
q-19 -11 -38.5 -6t-33 14.5t-15.5 15.5q-5 13 -7.5 29.5t0 44t13.5 52.5q9 20 36 24t43 -10q14 -12 24 -35q12 9 21 4q13 -7 20 -7q40 -3 87 25q14 9 29 25q1 1 2.5 4t2.5 3q6 9 17 11.5t20 -4.5q0 -1 1 -2q16 -7 12 -23zM572 122q-4 15 -7 19q-7 11 -19.5 10t-20.5 -16
q-7 -14 -8 -35t5 -38q3 -12 12 -15t18 4q15 12 25 43q2 5 2 14q-5 6 -7 14z" />
    <glyph glyph-name="ampersand" unicode="&#x26;" horiz-adv-x="681" 
d="M232 355q-93 -87 -138 -172q-9 -18 2.5 -48t35.5 -60q43 -54 101 -64q61 -9 124 28q43 26 70 68q-53 55 -113 131q-43 55 -82 117zM422 315q-12 17 -28 33q-5 4 -9.5 8t-7.5 6t-5 3t-3 1l-1 1l2 -6q2 -6 3 -8t3 -6.5t4 -7t5.5 -6t6.5 -5.5q15 -7 30 -13zM240 391
q64 56 81 71q53 48 66 94q7 26 -2.5 59t-32.5 50q-24 18 -59 19.5t-64 -13.5q-28 -14 -46.5 -45t-11.5 -62q19 -85 69 -173zM675 162q9 3 24.5 -29t18.5 -60q2 -20 -9.5 -44t-37.5 -33q-27 -10 -56.5 -7t-52.5 12.5t-43 23.5q-34 25 -74 64q-4 -8 -10 -14q-29 -37 -72.5 -61
t-88.5 -29q-41 -3 -81 14t-68 47q-57 63 -56 121q2 51 27 84q28 38 124 122q-16 26 -30 51q-38 66 -42 126q-2 38 10.5 72t36.5 53q29 23 68 30t70 -5q32 -11 55 -38.5t24 -58.5q3 -81 -70 -152q-9 -9 -41 -35.5t-50 -43.5q50 -84 155 -206q17 -19 33 -36l2 6q22 50 12 110
q-3 18 -12 36q-14 2 -28 5q-26 5 -52 33q-25 26 -20 48q4 16 22 20t30 -6q40 -32 64 -76q39 -6 66 6q43 20 68 63q21 36 21 71q0 37 -17 51q-9 7 -28 21q-32 23 -33 29q0 5 9 7q15 3 45.5 -10.5t45.5 -36.5q16 -24 9 -78q-7 -52 -49.5 -99.5t-124.5 -48.5q9 -23 11 -45
q7 -67 -22 -125q51 -51 94 -74q25 -14 66 -15t57 12q9 8 10.5 25t-4.5 32q-7 17 -16.5 30.5t-13.5 12.5q-26 -10 -34 -2q-6 6 16 16q15 7 42 14z" />
    <glyph glyph-name="quotesingle" unicode="'" horiz-adv-x="132" 
d="M150 697q2 -2 3 -12q1 -4 7.5 -41t8.5 -60q2 -37 -7 -88l-4 -12q-3 -10 -5 -12q-4 -5 -15 -1.5t-13 11.5t0 12q1 1 3.5 2.5t3.5 2.5q12 17 14 41q6 68 -18 128q-3 6 -5 9q-4 6 -5 7q-2 10 12 16t20 -3z" />
    <glyph glyph-name="parenleft" unicode="(" horiz-adv-x="265" 
d="M278 693q-1 -2 -6.5 -8t-8.5 -9q-23 -30 -65.5 -189.5t-43.5 -217.5q-1 -48 46 -230t68 -213q5 -8 15 -18q2 -2 7.5 -7t6.5 -7q7 -8 4.5 -21.5t-13 -14t-23.5 14.5q-2 2 -3.5 5.5t-3.5 7.5t-4 6q-12 21 -64.5 185t-54.5 192q-10 140 8 253q22 131 85 259q2 3 6 9.5t5 9.5
q8 14 11 17q16 15 28 4t0 -28z" />
    <glyph glyph-name="parenright" unicode=")" horiz-adv-x="187" 
d="M108 709q6 -6 14 -21q19 -37 60 -188t42 -201q1 -42 -33 -218t-48 -214q-1 -3 -4.5 -10t-4.5 -11q-8 -18 -9 -19q-6 -9 -19.5 -9.5t-16.5 9.5q-3 9 6 23q1 3 5.5 7.5t6.5 7.5q10 16 50 166t42 178q9 122 -10 228q-13 68 -39 130.5t-47 90.5q-6 9 -12 15q-10 10 -12 13
q-12 17 1 27t28 -4z" />
    <glyph glyph-name="asterisk" unicode="*" horiz-adv-x="255" 
d="M132 555q-14 -1 -17.5 13.5t9.5 21.5q6 3 29 5q-17 24 -32 43q-1 0 -4 4.5t-5 6.5q-7 6 -8 9q-5 14 9.5 21.5t23.5 -3.5q0 -1 6 -13q11 -27 36 -65h2q12 17 19 29q2 5 8 19t12 21q11 13 24 5.5t7 -24.5q-3 -9 -23 -34q-6 -7 -8 -11l8 2q4 0 14.5 2t15.5 3q1 0 4 1t4 1
q13 0 21 -9t4 -19q-3 -8 -18 -10q-2 0 -25 2q-14 2 -28 0q-12 -1 -24 -3l6 -8q29 -42 51 -66l10 -6l5 -3q-2 -1 -3 -2q3 -2 4 -3q1 -5 -5.5 -14t-15.5 -10q-8 -1 -11 2q-1 2 -1.5 5t-0.5 4q-5 11 -24 40q-17 25 -28 41q-5 -7 -10 -13q-11 -18 -19 -32q-1 -2 -2 -5t-2 -4
q-8 -13 -21.5 -17t-19.5 5q-6 7 5 26q3 6 22 26q11 12 19 23q-16 -7 -23 -7z" />
    <glyph glyph-name="plus" unicode="+" horiz-adv-x="389" 
d="M252 249q-14 3 -14 18t14 18q6 2 33 -2q11 -2 20 -3q-1 152 -7 192q-1 11 -2 13q-2 8 -1 11q2 14 18.5 13.5t18.5 -14.5q0 -2 -2 -14q-5 -30 -2 -202q17 -1 32 0q14 1 29 5q2 0 4 1t3 1q11 3 21 -4t9 -18q0 -3 -5.5 -7.5t-11.5 -6.5q-7 -2 -29 0q-15 1 -30 1q-6 0 -22 1
q4 -190 7 -218q1 -10 2 -13q2 -12 2 -13q-1 -7 -12 -12t-19 0q-7 5 -7 15q0 2 1.5 6t1.5 6q1 7 1.5 50.5t0 92.5t-0.5 53q1 12 0 33h-18q-3 0 -15.5 -2.5t-19.5 -0.5z" />
    <glyph glyph-name="comma" unicode="," horiz-adv-x="131" 
d="M95 49q-1 3 0.5 9t4.5 7q22 8 43 -10t25 -49q4 -28 -13 -56t-41 -46q-2 -2 -16 -7q-12 -5 -15 -4q-9 1 -12.5 12.5t3.5 18.5q6 7 9 7q2 0 5 -1t5 -1q33 5 42 27q16 36 -5 85q-5 -10 -18.5 -8.5t-16.5 16.5z" />
    <glyph glyph-name="hyphen" unicode="-" horiz-adv-x="217" 
d="M103 268q-14 2 -14 17t13 19q5 1 29 -1q36 -3 65 -1q17 1 27 2q1 0 3.5 1t3.5 1q12 0 19.5 -9.5t3.5 -19.5q-3 -8 -17 -9q-4 0 -24 3q-12 3 -26 3q-33 0 -51 -2q-2 0 -13.5 -3t-18.5 -1z" />
    <glyph glyph-name="period" unicode="." horiz-adv-x="122" 
d="M126 74q9 7 19 4q19 -6 14.5 -37.5t-23.5 -34.5q-17 -3 -27 18q-6 2 -5 5q0 4 1 9l-3 -2q1 3 3 6q-1 20 12 33q2 2 9 -1z" />
    <glyph glyph-name="slash" unicode="/" horiz-adv-x="231" 
d="M268 708q0 -5 -4 -20q-69 -249 -87 -302q-16 -43 -57 -165t-48 -148q-3 -10 -4 -19v-8.5t-1 -7.5q-2 -9 -13 -14.5t-19 0.5q-8 7 -5 24l8 18q5 12 47.5 133.5t46.5 132.5q21 54 58 181t41 167q1 10 0 17v15q4 18 20.5 16t16.5 -20z" />
    <glyph glyph-name="zero" unicode="0" horiz-adv-x="407" 
d="M426 535q2 0 4 -2q10 -7 14 -39q1 -1 0.5 -20t-0.5 -21q3 -158 -24 -302q-14 -70 -52 -109q-25 -26 -55.5 -42.5t-56.5 -15.5q-45 2 -79.5 20t-47.5 34q-20 24 -37.5 67t-20.5 83q-9 99 12 219q31 183 98 257q24 26 62 33t66 -5q32 -12 72 -49q15 -14 29 -34
q17 -25 19 -36q3 -26 -3 -38zM393 563q-5 18 -18 38q-17 24 -53 50.5t-72 23.5q-34 -3 -69.5 -53t-53.5 -117q-25 -99 -31 -189.5t-1 -142.5q2 -25 18 -62.5t51 -73.5q18 -18 47.5 -25t58.5 -1q30 7 59.5 28.5t36.5 42.5q31 84 41.5 179t8.5 151q-1 23 -5 47q-1 8 -3.5 20.5
t-2.5 16.5q-2 20 9 33q-14 5 -21 34z" />
    <glyph glyph-name="one" unicode="1" horiz-adv-x="398" 
d="M241 -15q-16 3 -15.5 18t15.5 18q5 1 37 0q9 -1 20 -1q0 2 1 5.5t1 5.5q1 8 -1 66.5t-5.5 124t-3.5 71.5q-2 57 -2 337v1q-28 -37 -49 -77q-12 -22 -18 -34q-1 -2 -2 -5t-2 -5q-8 -13 -21.5 -16.5t-19.5 5.5q-5 7 5 25q2 3 20 27q11 13 21 29q25 41 37 64q2 5 6 13.5
t7.5 15t8.5 12.5q12 12 24 3.5t6 -23.5q15 -5 14 -17q0 -1 -4 -14q-6 -20 -9.5 -124.5t-1.5 -149.5q2 -39 10 -165.5t11 -149.5q1 -13 2 -16q0 -2 1 -5l1 -3q13 0 26 2q22 2 35 4q1 0 4 1t5 1q14 0 24 -9t6 -19q-3 -8 -22 -10q-4 0 -31 2q-15 2 -32 1q-43 -1 -67 -4
q-5 -1 -14 -3t-13.5 -2.5t-14.5 0.5z" />
    <glyph glyph-name="two" unicode="2" horiz-adv-x="423" 
d="M90 497q-1 14 9 38q7 15 22.5 36.5t39.5 47.5t59 49.5t72 35.5q42 13 87 -7t63 -57q25 -50 16 -112q-5 -33 -50.5 -103t-109.5 -130q-67 -63 -116.5 -118t-57.5 -77q-4 -10 -7 -30q0 -3 -1 -6q24 0 75.5 4t67.5 5q51 3 134 1q2 0 9.5 -1t10.5 -1q16 -1 18 -1
q9 -4 12 -16.5t-5 -18.5q-7 -5 -20 -2l-7 3.5t-8 3.5q-33 10 -74 11q-105 1 -209 -19q-2 0 -5.5 -0.5t-5.5 -1.5q-8 -12 -18.5 -16t-14.5 5q-2 3 -2 11q-7 6 -5.5 16t10.5 14q1 4 4 11.5t4 10.5q8 22 51 82.5t98 109.5q59 53 107.5 101.5t57.5 62.5q29 45 35 104
q5 42 -12 83q-10 23 -28 39t-38 18q-38 5 -81 -10.5t-76 -42.5q-42 -35 -64 -86q-6 -14 -8 -27.5t-3 -25.5q-2 -27 -17 -28q-16 -1 -19 29v5z" />
    <glyph glyph-name="three" unicode="3" horiz-adv-x="495" 
d="M431 600l-13 -13q-33 -33 -81 -102q-35 -51 -60 -96q12 4 30 2q37 -2 97.5 -31t99.5 -82q21 -29 27 -70.5t-3 -71.5q-12 -46 -50 -85q-36 -36 -83 -51q-31 -12 -77 -10t-80 21q-43 25 -79 68.5t-52 75.5t-21 52q-2 9 -3 32q-1 26 0 30q8 21 27 19q11 -2 9 -10
q0 -1 1 -7.5t0 -12.5q0 -3 -2 -11.5t-3 -13.5q-1 -23 18 -76.5t62 -88.5q43 -36 101 -45t84 -3q50 13 86 51q25 26 36.5 63.5t4.5 73.5q-8 36 -31.5 69t-53.5 53q-43 29 -95 30q-13 0 -25 -3q-5 -1 -12 -3t-9 -3q-18 -4 -27 3q-7 -3 -16 -0.5t-11 9.5q-3 9 5 20q1 3 5.5 6.5
t5.5 4.5q12 14 42 55q73 103 101 148q1 2 3 5t2 4q-44 -3 -61 -3q-7 0 -100.5 2.5t-95.5 -0.5q-11 -1 -17 -2q-12 -2 -15 -2q-12 0 -16.5 8.5t0 17.5t15.5 11q5 1 21 -1q58 -8 144 -11q65 -2 121 9q8 1 17 5q3 0 8.5 2.5t7.5 3.5q9 1 19 -7.5t6 -17.5q-2 -5 -11 -10
q0 -6 -3 -11z" />
    <glyph glyph-name="four" unicode="4" horiz-adv-x="376" 
d="M383 41q-1 -2 1 -18.5t-1 -17.5h-1q2 -6 2 -7q-1 -6 -11.5 -10t-19.5 1q-7 4 -7 11q0 1 1.5 4.5t1.5 5.5q2 10 1 184q-11 1 -22 0q-36 -3 -70 -13q-5 -1 -13.5 -5t-11.5 -5l-1 -1q-3 -8 -14.5 -10.5t-18.5 4.5q-6 7 -3 17q0 2 2 6q0 7 5 12q5 24 14.5 104t10.5 98
q3 41 4 139.5t-1 136.5q-1 13 -1 14q-2 9 -1 12q3 15 19 13.5t18 -16.5q0 -2 -3 -15q-5 -26 -10 -235q-1 -36 -18 -241q1 0 5.5 0.5t7.5 1.5q3 0 90 12q6 0 11 1v25q4 330 1 395l-1 18q-1 13 -1 16q4 18 20 16.5t17 -19.5q0 -2 -2 -20q-5 -28 -8 -152.5t-3 -184.5
q0 -26 2 -93h3q1 0 4.5 0.5t5.5 -0.5q16 -2 23 -13.5t0 -20.5q-5 -6 -22 -4q-5 0 -14 3q3 -116 5 -156q2 3 4 7z" />
    <glyph glyph-name="five" unicode="5" horiz-adv-x="457" 
d="M442 643q-1 0 -15 4q-43 12 -119 15q-55 2 -106 -2q-11 -1 -16 -2q-1 -2 -2 -7t-1 -6q-6 -27 -23 -156q-1 -11 -6 -46t-7 -52q9 10 26 19q20 11 52 20t85 9t98 -19q32 -13 52.5 -49t29.5 -76q9 -45 1 -99q-9 -51 -34 -95q-19 -34 -51.5 -62.5t-72.5 -40.5q-47 -12 -90 -8
t-76 21q-49 25 -81 76q-6 8 -15 29q-10 21 -12 27q-1 9 2 19t9.5 14.5t12.5 0.5q8 -6 15 -29q1 -4 2 -12.5t3 -13.5q3 -7 14.5 -23t31 -35t49 -33.5t60.5 -15.5q33 -1 65.5 10.5t55.5 29.5t37 32t19 22q28 47 35 101q5 40 -3 81t-29 70q-22 30 -60 45.5t-77 14.5
q-51 -2 -95 -28q-12 -7 -20 -15q-6 -6 -15 -16q-14 -15 -26 -10q-1 -2 -1 -3q0 -2 -1 -3q-3 -6 -14 -6.5t-18 5.5q-6 6 -4 12q0 2 2.5 5t2.5 5q9 20 16 60q20 117 22 209v18q-1 12 0 16q1 6 6 11q0 3 2 6q5 7 17 7q3 0 7.5 -1.5t6.5 -1.5q14 -2 64 -4q147 -7 168 -7h7h8
q10 1 13 0q15 -5 12 -21t-19 -16z" />
    <glyph glyph-name="six" unicode="6" horiz-adv-x="450" 
d="M125 258q14 -118 49 -180q15 -27 52 -54.5t91 -33.5q44 -4 104 71q43 54 46 129q3 72 -31 129q-18 30 -42 51t-48 25q-49 7 -89 -8t-57 -34q-10 -11 -32 -43q-25 -38 -30 -43q-6 -5 -13 -9zM421 581q-6 28 -16 47q-15 31 -46 50q-28 17 -58.5 21t-57.5 -12
q-43 -30 -76.5 -98.5t-42.5 -148.5q-7 -66 -3 -134q21 24 27 31q0 1 2 3q48 61 120 84q30 9 63.5 2t62.5 -26q30 -19 52 -49.5t31 -65.5q16 -66 4 -134t-48 -111q-32 -39 -73 -57.5t-61 -15.5q-40 7 -83.5 36t-73.5 81q-36 64 -47 163q-10 -1 -15 2t-2 10q3 4 15 17
q-2 29 -1 59q1 92 22 175.5t58 141.5q25 38 63.5 58t73.5 16q51 -5 101 -53q15 -15 29 -42t17 -43q4 -31 -2 -44.5t-17 -2.5t-18 40z" />
    <glyph glyph-name="seven" unicode="7" horiz-adv-x="471" 
d="M279 299q2 1 13 1q18 0 94 12q9 1 21 3q41 225 40 292q0 11 -1 17q-2 12 -2 15q1 2 1 3q-71 -6 -81 -6q-21 0 -71 -0.5t-86.5 -1.5t-66.5 -4q-12 -1 -19 -3q-14 -3 -17 -3q-20 0 -21.5 16.5t18.5 20.5q6 1 23 0q62 -3 166 -3q77 0 138 12q10 1 20 5q3 1 9 3.5t9 3.5
q10 1 20.5 -7t6.5 -18q-3 -5 -14 -11q2 -4 2 -9q1 -4 -2 -19q-3 -17 -22.5 -144t-24.5 -154v-2q21 3 36 6l13 2l12 3q8 -1 13 -12t0 -19q-5 -7 -14 -7q-2 -1 -6 0.5t-6 2.5q-20 2 -49 0h-3q-40 -237 -40 -288q0 -10 1 -19q0 -2 0.5 -6t1 -6.5t0.5 -3.5q-1 -10 -12 -17t-19 0
q-8 6 -7 21q0 3 1.5 9t2.5 8q1 7 19 131.5t21 139.5q3 11 6 28q-55 -7 -96 -21q-10 -3 -12 -4q-7 -3 -10 -3q-14 -1 -16.5 15t10.5 21z" />
    <glyph glyph-name="eight" unicode="8" horiz-adv-x="445" 
d="M444 554q-7 22 -11 31q-13 31 -56 67t-92 38q-29 2 -58 -16.5t-48 -44.5q-23 -30 -31.5 -76t0.5 -86q8 -32 34.5 -58.5t62.5 -32.5q36 -7 75 3t67 31q40 29 53 71q4 12 4 27q0 4 -0.5 9l-1 10t-1.5 7q0 10 3 20zM176 378q-34 27 -44 60q-16 53 -9 105q6 42 27 81t53 61
q36 24 83.5 27t81.5 -14q43 -20 83 -79q5 -7 17 -30q11 -21 13 -31q4 -21 -1 -32q0 -8 -4 -28q-4 -13 -19 -37.5t-50.5 -57.5t-77.5 -48q-13 -5 -27 -7q96 -52 150 -126q25 -34 28 -80.5t-14 -75.5q-22 -41 -67 -65q-57 -29 -124 -22q-44 4 -88.5 27t-66.5 60
q-24 39 -29.5 91t5.5 92q12 48 34.5 81t42.5 47q2 1 3 1zM206 347q-6 3 -12 3q-11 -1 -31.5 -22.5t-35.5 -59.5q-28 -73 -5 -151q10 -32 33 -58.5t51 -39.5q37 -17 87 -19q52 -3 88 18q38 22 61.5 60.5t13.5 69.5q-12 34 -36 66t-50.5 54t-47.5 36t-35 20q-13 6 -29 9
q-5 1 -14 2t-11 2q-9 2 -16 8q-6 0 -11 2z" />
    <glyph glyph-name="nine" unicode="9" horiz-adv-x="438" 
d="M427 436q3 24 3 38q-1 48 -20 91q-17 37 -47.5 67t-64.5 38q-33 8 -70.5 -11t-63.5 -53q-29 -37 -42 -83q-13 -47 -7 -105q5 -51 24.5 -96t51.5 -60q31 -14 76.5 5.5t80.5 52.5q38 35 64 83q9 15 14 29q1 1 1 2v2zM475 454q0 -3 -2 -10t-2 -9q-3 -13 -13 -133.5
t-17.5 -147t-31 -66t-59.5 -62.5q-24 -16 -57 -23.5t-55 -6.5t-36 1q-6 1 -21 7q-17 5 -20 9q-8 9 -3 20.5t15 10.5q11 0 14 -2q1 -1 4.5 -5t6.5 -5q9 -6 37.5 -8t68.5 8q33 12 59.5 38.5t33.5 41.5q14 28 26.5 118.5t14.5 158.5q-75 -115 -179 -154q-41 -16 -83.5 13
t-60.5 69q-19 41 -23 92q-6 78 9 122q18 53 52 98t75 59q46 15 97.5 -7t83.5 -62q33 -42 50 -118q2 -9 3 -23q7 -1 10 -6q1 -2 1 -5q3 -6 2 -13z" />
    <glyph glyph-name="colon" unicode=":" horiz-adv-x="167" 
d="M163 30q-5 0 -10 4q1 -10 4 -10q4 2 6 6zM182 75h2q5 1 12.5 -9t8.5 -20q1 -21 -19 -38t-35 -12q-17 5 -23 32t4 43q7 13 24.5 15.5t25.5 -11.5zM182 475q0 -5 -2 -9q3 -8 2 -15q0 -22 -17 -34q-7 -5 -17.5 -5t-17.5 7q-11 11 -9.5 43t18.5 44q12 8 27.5 -3.5t15.5 -27.5
z" />
    <glyph glyph-name="semicolon" unicode=";" horiz-adv-x="154" 
d="M188 497q5 -11 3 -19q1 -4 0 -7q0 -20 -11 -38q-6 -10 -19 -12.5t-23 7.5q-11 15 -10 38.5t11 37.5q8 11 25.5 9.5t23.5 -16.5zM124 67q6 15 14 16q26 2 40 -25t10 -68q-6 -70 -53 -121q-5 -6 -19 -13q-19 -9 -26 -4q-16 13 -4 27q7 7 14 3q3 -1 3 3q0 2 -1 3q2 -1 4 -1
q34 13 43 40q10 29 13.5 61t2.5 50.5t-3 22.5q0 -1 -1 -2t-1 -3l-5 -10q-8 -11 -18.5 -11.5t-14.5 8.5t2 24z" />
    <glyph glyph-name="less" unicode="&#x3c;" horiz-adv-x="519" 
d="M551 471h-4h-3q-13 0 -89.5 -31.5t-113.5 -49.5q-28 -14 -111.5 -57.5t-112.5 -60.5q1 -1 2.5 -2t2.5 -2q12 -10 171 -107t184 -108q8 -4 11 -6q11 -3 11 -4q6 -3 4.5 -15.5t-10.5 -16.5q-8 -4 -15 1q-2 1 -4.5 4.5t-3.5 4.5q-5 4 -39.5 26.5t-72.5 46t-42 25.5
q-32 22 -105 64.5t-98 52.5q-9 4 -11 4q-8 2 -10 4q-5 4 -5 11q-6 3 -11 9.5t-5 13.5q0 8 5 11q2 1 5 0.5t5 0.5q5 1 47.5 22t90 45t54.5 28q21 9 128.5 58t124.5 58l3 1q3 1 4 2q5 4 7 3q10 0 11.5 -16.5t-5.5 -19.5z" />
    <glyph glyph-name="equal" unicode="=" horiz-adv-x="553" 
d="M153 385q5 1 26 1q34 -1 182 5q121 4 157 7q19 1 25 2q21 2 22 2q12 -1 20.5 -12t1.5 -19q-7 -7 -26 -7q-5 0 -12.5 1.5t-10.5 1.5q-34 3 -95 3q-147 -2 -247 -15q-17 -2 -21 -3q-16 -4 -20 -4q-14 1 -20.5 9t-1 17t19.5 11zM155 171q1 0 15 -2q56 -11 168 -15
q90 -3 163 7q9 2 20 5l9 3t8 2q9 2 18.5 -7t5.5 -18t-19 -13q-1 -1 -10 -0.5t-10 0.5q-3 0 -39 -2t-58 -1q-38 0 -125 3.5t-122 2.5h-12v-4q-1 2 -1 4l-1 -1h-2q-8 -1 -10 -1q-13 3 -12 19.5t14 17.5z" />
    <glyph glyph-name="greater" unicode="&#x3e;" 
d="M99 501q0 -1 9 -12q13 -18 87.5 -76t104.5 -77q23 -14 116 -64.5t114 -60.5q13 -6 16 -7h2h1q3 -1 5 -2q3 0 4 -1q4 -2 8.5 -11.5t2.5 -18.5q-1 -3 -9.5 -5.5t-15.5 -0.5l-4 2t-4 1q-19 2 -93.5 -11.5t-102.5 -21.5q-21 -7 -103 -37t-105 -39q-8 -4 -13 -8q-4 -3 -5 -5
q1 3 -2.5 3.5t-11 1t-12.5 2.5q-4 2 -2 11.5t7 13.5q1 0 15 4q11 3 95 31.5t89 30.5q40 11 209 49q-27 16 -93.5 54t-72.5 42q-31 19 -118.5 81t-124.5 90q-1 1 -5 4t-6 4q-8 6 -10 8q-8 13 4.5 23.5t23.5 1.5z" />
    <glyph glyph-name="question" unicode="?" horiz-adv-x="450" 
d="M314 47q-2 -3 -5 -6l-2 -2q8 1 11 10zM274 30q-10 16 -3.5 36.5t22.5 32.5q5 3 19 -1q9 -2 12 -6q13 -4 19.5 -16.5t4.5 -25.5q-3 -17 -24.5 -27t-37.5 -3q-2 -2 -5 -2q-7 0 -7 12zM251 314q0 4 1 8v1q-4 9 -2.5 18t7.5 14t12 2q8 -4 16 -16q1 -1 3.5 -5.5t4.5 -5.5
q3 -4 13.5 -6t31 0.5t40.5 13.5q28 14 50.5 44.5t27.5 64.5q6 38 -0.5 78t-13.5 58t-13 30q-21 39 -63 59q-69 34 -122 17q-36 -12 -66 -42t-39 -65q-9 -34 -5 -59t12.5 -38.5t17.5 -14.5q6 -2 15 2q8 3 17 7q17 7 27.5 4t7 -15t-21.5 -23q-13 -9 -32 -7q-22 1 -47.5 31.5
t-23.5 76.5q1 36 21 73.5t49 58.5q29 20 66 28t66 5t51 -11q38 -15 78 -70.5t49 -135.5q5 -44 -15 -87.5t-51 -69.5q-34 -29 -70 -37.5t-56 -4.5q5 -33 7 -60q0 -10 -4 -29q-1 -7 -1 -8q-7 -11 -19 -11t-17 10q-3 7 0 15q1 3 4.5 7t4.5 6q4 9 4 19q0 24 -9 45q-2 3 -7 11
t-6 14z" />
    <glyph glyph-name="at" unicode="@" horiz-adv-x="821" 
d="M597 446q2 23 2 30q-1 18 -9 39t-25 33q-17 14 -51.5 7.5t-55.5 -31.5q-56 -63 -69 -174q-5 -40 3 -79q8 -35 37 -58q15 -12 34.5 -11.5t31.5 13.5q64 76 99 195q0 2 1 5q2 7 3 14q-1 7 -1 17zM631 404q-2 -6 -7.5 -33.5t-7.5 -44.5q-9 -66 13 -123q8 -22 24 -34t30 -9
q35 8 69 68q60 102 67 208q3 51 -12 107.5t-44 96.5q-34 47 -82.5 74t-94.5 30q-71 5 -145 -28q-33 -15 -79.5 -51t-92.5 -91q-48 -58 -71 -155q-23 -99 -2 -189q24 -102 90 -172q77 -81 155 -93q70 -11 131.5 3t99.5 35q31 18 65 50q14 13 31 31.5t21 22.5q43 42 63 41
q7 -1 6 -9q-2 -19 -53 -69q-23 -24 -59 -52q-77 -61 -180 -84q-77 -18 -169 17q-89 35 -151 115q-58 74 -77 173q-17 87 1 161q25 109 69 171q57 82 125 127q56 37 125 55.5t135 8.5q49 -8 95.5 -44t77.5 -90q26 -45 38.5 -99.5t5.5 -102.5q-11 -89 -42.5 -163.5
t-75.5 -109.5q-31 -23 -67 -8t-55 51q-16 31 -19 82q-1 10 0 21q-10 -21 -21 -41q-23 -39 -58.5 -64t-62.5 -15q-30 10 -46.5 34.5t-20.5 41.5q-6 22 -7.5 50.5t6 76t26.5 93.5q18 46 55 77t71 31q37 0 65 -27.5t38 -56.5q3 -6 4 -18q4 -1 7 -4q7 -7 3 -23q0 -2 -8 -19
q0 -13 -2 -31z" />
    <glyph glyph-name="A" unicode="A" horiz-adv-x="569" 
d="M374 290q-62 245 -80 294q-4 10 -6 16q-8 -32 -22 -95t-25 -111t-14 -60q-27 -98 -40 -133q51 7 91 21q54 19 96 68zM315 629q2 -4 5 -22q9 -43 71 -294q2 4 4 9q2 4 4.5 11t3.5 9q6 12 19.5 17t18.5 -5q5 -11 -5 -32q-3 -5 -15 -21q-17 -21 -21 -25q12 -48 18 -73
q21 -83 46 -156q28 -81 47 -104q15 -17 28.5 -23.5t20.5 -5t9 5.5q3 5 3 14q-1 1 -5 15q-3 12 1.5 25.5t15.5 10.5q5 -1 12 -10.5t9 -20.5q3 -9 -2 -28q-3 -14 -24.5 -32.5t-47.5 -7.5q-13 6 -23.5 15t-18.5 22t-12 21t-10 25t-7 21q-27 67 -41 122q-1 3 -37 145
q-14 -15 -29 -23q-57 -32 -177 -59q-28 -62 -71.5 -109t-69.5 -57q-1 0 -16 -2q-11 -2 -14 -1q-17 7 -12.5 22t18.5 14q1 0 5.5 -1t6.5 -2q16 -1 51.5 26.5t59.5 71.5q9 15 17 33q-14 -3 -21 -5l-21 -5q-15 -4 -19 -4q-22 -2 -24 14.5t20 21.5q4 1 25 2q27 2 51 4
q8 20 20 61q11 37 46 194t39 187q2 12 2 15q1 12 1 13q3 6 14.5 7t17.5 -6q5 -6 3 -14q0 -2 -2.5 -5.5t-3.5 -4.5q0 -1 -1 -3q11 -1 17 -13z" />
    <glyph glyph-name="B" unicode="B" horiz-adv-x="472" 
d="M175 333q18 9 43 17q4 2 21.5 7t26.5 9q16 7 46 30t62 61q43 49 57 111q9 32 3 69t-27 63q-21 25 -57.5 29t-65.5 -12q-51 -26 -88 -86q-21 -36 -39 -75q7 -143 10 -225q3 1 8 2zM132 500q-1 -4 -3 -8q-24 -62 -43 -132q-19 -64 -31 -134q-10 -60 -11.5 -112.5t7.5 -76.5
q4 -14 15.5 -25t21 -13.5t14.5 3.5q23 34 33.5 100.5t9.5 136.5t-5 146q-3 55 -8 115zM153 670v-24t1 -30q0 -12 1 -34q34 70 71 124q11 17 38 31t57 19q28 5 55.5 -3t43.5 -30q31 -41 39 -92t-9 -90q-42 -104 -129 -176q-21 -17 -51 -32q-2 -2 -4 -3q76 -10 126 -45
q43 -29 75.5 -81.5t40.5 -85.5q4 -14 -1 -39t-21 -46q-17 -23 -47.5 -40.5t-64.5 -21.5q-62 -9 -117.5 6t-75.5 31q-6 5 -15 18q-10 14 -11 20q-1 13 9 22.5t18 2.5q6 -5 10 -17q1 -2 1.5 -7t1.5 -8q3 -6 20.5 -18t51.5 -23t70 -8q48 3 87 26t48 37q25 36 10 81
q-23 66 -79 111q-43 35 -101 49.5t-92 10.5q-10 -1 -19 -4q-15 -5 -16 -5q-3 -1 -7 -1q2 -56 2 -108q1 -66 -14 -127q-13 -60 -37 -74q-22 -13 -49 -4.5t-33 29.5q-28 90 0 236q8 44 32.5 122t60.5 159q-1 9 -2.5 24t-2.5 21q0 5 -2 26t-3 31q-4 35 -3 41q2 20 10.5 27
t16.5 -1.5t9 -26.5z" />
    <glyph glyph-name="C" unicode="C" 
d="M423 396q17 0 38 10q18 9 39 33.5t32 61.5q15 42 9.5 97t-29.5 97q-13 23 -40 35t-57 10q-27 -2 -56 -14.5t-40 -24.5q-39 -40 -63 -111q-18 -52 -34.5 -150.5t-12.5 -210.5q3 -81 31 -148.5t69 -86.5q32 -15 68 -8t61.5 19t37.5 23q13 13 24 37q6 13 13 38q9 33 25 41
q8 4 12 -4q3 -4 2 -22t-6 -34q-4 -15 -23 -42q-6 -11 -18 -23t-40 -30t-61 -28q-29 -9 -61.5 -4t-58 22t-45.5 45.5t-28 60.5q-15 66 -20 143t-3 121t5 69q15 105 41 176q23 64 64.5 108t117.5 60q35 8 71 -14.5t55 -57.5q34 -61 26 -130q-6 -55 -25.5 -97.5t-41.5 -66.5
q-12 -13 -36 -25q-28 -13 -41 -11q-43 5 -44 20q-1 13 32 16h11z" />
    <glyph glyph-name="D" unicode="D" 
d="M151 88q7 -14 12 -22q13 -20 26 -28q9 -7 33.5 -12t71.5 -1.5t96 22.5q59 22 111 109q43 74 42 150q-2 203 -59 299q-26 44 -61 75t-58 41.5t-35 9.5q-21 -3 -48.5 -22t-54.5 -55q-42 -56 -73 -151q2 -54 2 -99q0 -24 -0.5 -73t-0.5 -65q-1 -119 -1 -129q-1 -29 -3 -49z
M128 417q-46 -170 -61 -327q-4 -49 23 -77q5 -4 11 -2t11.5 11t8.5 23q1 8 3 17q-9 32 5 48q1 29 1 91q0 44 -1 173q-1 22 -1 43zM150 633q1 -28 2 -77v-4q9 26 17 44q19 45 58 94q32 42 70 56q21 10 51.5 7t55.5 -20q81 -56 126 -178q33 -88 39 -208q4 -88 -27 -162
q-41 -99 -97 -133q-68 -42 -130.5 -53.5t-97.5 -4.5q-27 5 -54 23q-12 8 -21 16q-1 -4 -2 -7q-6 -19 -20.5 -31t-30.5 -7q-15 4 -28 20t-13 31q5 186 78 432q-1 20 -2 36q-4 43 -6 68q-4 48 -4 61q3 39 11.5 53.5t16.5 -1.5t8 -55z" />
    <glyph glyph-name="E" unicode="E" horiz-adv-x="451" 
d="M410 618q9 13 7 38q-2 29 -31 54q-17 14 -42.5 22t-51.5 2q-39 -8 -76.5 -50t-63.5 -111q-21 -56 -5 -109q16 -52 58 -80q18 24 36 42q28 26 44 35q47 27 87 8q13 -7 23 -24t11 -34q2 -19 -10 -37t-31 -26q-56 -25 -127 -3q-14 4 -26 9q-4 -7 -9 -15q-40 -65 -58.5 -135
t-6.5 -124q6 -27 26.5 -50t44.5 -35q53 -27 103 -13q44 13 75 34t45 39q13 18 18 38q3 17 -1 32q-7 18 -6 37t14 14q7 -3 17.5 -19.5t13.5 -33.5q2 -18 -10 -48q-9 -21 -46.5 -56.5t-97.5 -58.5q-31 -13 -71.5 -8.5t-74 25t-58 60t-25.5 73.5q-1 63 21.5 128t58.5 118
q3 5 6 9q-33 21 -51 56q-39 72 -5 177q31 98 91 136q32 21 69 26t62 -4q54 -18 81 -64q12 -19 14 -45q1 -34 -8 -46q-32 -41 -46 -33q-13 8 10 45q1 2 2 5zM226 373q56 -25 103 -13q29 7 43 23t11 28q-3 17 -24.5 32t-47.5 6q-25 -9 -54 -39q-16 -16 -31 -37z" />
    <glyph glyph-name="F" unicode="F" horiz-adv-x="548" 
d="M169 728q1 -3 0 -14h22q35 -1 101 0t88 1q110 0 138 1q15 0 22 1l21 2q12 -1 20 -12t1 -19q-7 -7 -26 -7q-4 0 -11 1.5t-9 2.5q-29 3 -85 5q-131 5 -239 -7q-19 -2 -27 -3q-10 -2 -16 -3q-1 -47 1 -154q0 -89 1 -132q2 2 5 2q2 1 16 -1q46 -7 152 -9q80 -2 133 6
q8 1 15 3q2 1 6 2.5t5 1.5q7 1 14 -8t4.5 -17.5t-13.5 -11.5q-2 0 -7.5 0.5t-6.5 0.5q-10 1 -35.5 0.5t-39.5 -0.5q-185 3 -217 1q-10 -1 -15 -2q-9 -2 -11 -2q-3 0 -5 2v-6q-2 -308 -1 -314q0 -8 1 -12q1 -2 1.5 -4t1 -3.5t-0.5 -3.5q-1 -5 -11 -9t-19 0q-7 4 -7 12
q0 2 1.5 5.5t2.5 4.5q0 2 8 251q1 64 -2 216q-2 133 -6 184q-3 1 -6 4q-8 8 -1 17l4 4q-1 3 -1 5q-3 13 -3 17q1 19 17 19.5t19 -18.5z" />
    <glyph glyph-name="G" unicode="G" horiz-adv-x="588" 
d="M545 530q-3 27 -6 45q-11 60 -44 122q-29 57 -68 73q-20 10 -51 1t-45 -32q-39 -64 -56 -156.5t-21 -170.5q-2 -47 1.5 -138.5t14.5 -175.5q3 -29 16 -56.5t34 -41.5q22 -16 50 -21t50 4q37 14 60 42t31 52q6 20 6 49q0 21 -4 53q-5 33 -3 52q-34 -2 -90 -3
q-71 -1 -78 -1l-15 -1q-10 -1 -13 0q-15 3 -13.5 19t16.5 17q2 0 17 -3q56 -12 132 -9q58 2 109 20q6 3 13 7q2 1 5.5 4t5.5 4q7 2 17 -4t9.5 -15.5t-12.5 -15.5q-2 -1 -4.5 -1.5t-6 -1t-5.5 -0.5q-45 -10 -61 -13q2 -7 5 -16q7 -24 10 -47q2 -19 -3 -58q-7 -53 -37 -99
q-27 -40 -78 -55q-25 -9 -60 -8t-51 18q-83 92 -89 268q-8 217 29 404q17 87 61 122q36 30 79.5 31.5t67.5 -22.5q25 -24 45.5 -58t27.5 -51.5t18 -48.5q4 -11 13 -45q7 -28 7 -37q-1 -22 -9 -30t-16.5 0.5t-10.5 27.5z" />
    <glyph glyph-name="H" unicode="H" horiz-adv-x="495" 
d="M200 709q0 -3 -3 -20q-6 -26 -7.5 -138.5t0.5 -143.5q0 -11 4 -138q7 4 53 27.5t73 36.5q22 10 67 29.5t67 30.5q16 7 19 9q2 1 8 5q0 185 1 285v8v10q0 12 1 15q4 11 16.5 12.5t23 -5.5t9.5 -18l-5 -17q-8 -25 -13.5 -128t-4.5 -165q15 -13 11 -27q-2 -6 -9 -12
q1 -26 2.5 -101t3.5 -134t3 -74q1 -2 4 -20q4 -22 3 -26q-6 -14 -21.5 -11.5t-19.5 14.5l-6 1q-5 2 -5 5t2 9t2 9q2 16 2.5 141t-0.5 142v38q-33 -7 -78 -24q-125 -49 -199 -105q-5 -5 -9 -8q3 -126 5 -153q1 -19 1 -23l3 -22q-2 -13 -17 -21t-26 0q-10 9 -9 27
q0 4 2.5 11.5t2.5 10.5q3 17 3 153q-11 5 -15.5 18t5.5 24q3 3 11 7q-1 39 -1 93q-1 254 -8 334v7q-1 7 -1 10q-2 13 -1 16q2 13 14.5 17t23.5 -2.5t12 -18.5z" />
    <glyph glyph-name="I" unicode="I" horiz-adv-x="570" 
d="M345 67q73 47 130 117q73 93 100 223q14 73 6 159q-5 53 -19 95q-35 104 -95 120q-38 11 -79.5 -12t-68.5 -66q-41 -65 -51 -177q-16 -168 18 -305q22 -88 59 -154zM56 214q-2 -32 3 -71q6 -51 31 -82q19 -25 53 -39.5t72 -8.5q53 9 111 42q-68 138 -88 305
q-10 87 4 176.5t45 158.5q20 44 53 73t66 37q36 5 62 0.5t37 -14.5q30 -24 56 -72.5t37 -109.5q28 -154 -23 -285q-33 -85 -90.5 -158t-125.5 -121q16 -24 37 -40q17 -14 37 -22q37 -16 41 -32q1 -6 -5 -9q-6 -4 -25.5 -1t-36.5 12t-40 35q-11 12 -29 44l-2 -2
q-50 -30 -104 -39.5t-91 3.5q-39 13 -64.5 42.5t-39.5 62.5q-8 19 -14 57q-6 42 -4 63q4 28 9.5 46.5t11 22.5t10 -1.5t6.5 -25t0 -47.5z" />
    <glyph glyph-name="J" unicode="J" horiz-adv-x="434" 
d="M446 111q-9 -14 -15 -25q-17 -32 -27 -62q-10 -28 -15 -73q-6 -44 1 -75q5 -24 18 -14q16 13 21 45q13 84 17 204zM364 196q-3 -28 -20 -73q-18 -47 -38 -62q-18 -16 -48.5 -7t-48.5 39q-46 77 -42 217q4 128 72 281q29 66 52 90q23 23 47.5 33t39.5 8.5t21 -8.5
q19 -20 36 -89q18 -75 28 -211q12 -152 8 -300q-4 -183 -25 -243q-6 -19 -31 -29t-41 3q-13 12 -15 57q-2 30 2 64q5 42 17 81q14 52 27 69q19 24 42 32q1 64 0 125q-5 170 -21 272q-9 58 -24 110.5t-31 52.5q-76 -3 -153 -229q-36 -103 -27 -226q6 -92 38 -147
q11 -18 24 -26.5t21 -6.5q15 4 29 32q9 19 15 44q7 32 11 57q11 75 27 75q15 0 9 -77q-1 -4 -1 -8z" />
    <glyph glyph-name="K" unicode="K" horiz-adv-x="615" 
d="M148 708q0 -2 -4 -20q-7 -28 -13.5 -146t-6.5 -165q0 -14 1 -42q1 0 3 1q5 0 7 1q21 4 96 67.5t98 93.5q17 22 82.5 123.5t78.5 124.5q7 12 7 13l6 12q5 5 16.5 2.5t14.5 -10.5q2 -8 -3 -16q-2 -2 -5.5 -4.5t-4.5 -3.5q-7 -7 -70.5 -102.5t-68.5 -101.5
q-28 -38 -112 -121q-37 -37 -64 -61q20 0 37 -8q35 -16 71 -80q13 -24 25 -49.5t23.5 -50.5t12.5 -29q45 -95 90 -133q18 -15 46.5 -15.5t46.5 12.5q22 13 41 43q6 9 10 17q2 3 4 9t4 8q6 8 18.5 9t16.5 -8q3 -9 -5 -23q-2 -4 -7 -9l-6 -6l-4 -6q-4 -5 -7.5 -9t-10 -11
t-13 -12.5t-15 -12.5t-17.5 -12t-19 -9t-21 -6t-22 -1q-21 1 -41.5 13.5t-35.5 31t-23 29.5t-13 21q-7 11 -72 147q-37 77 -62 100q-18 17 -41.5 21t-33.5 -3q-7 -3 -13 -8q-11 -9 -13 -10q-12 -9 -22 -5q-3 1 -5 2h-1h-4q1 -39 3 -95q4 -134 7 -162q1 -15 1 -20l3 -18
q-1 -10 -12 -17t-19 -1q-7 6 -7 21q0 4 1.5 10t1.5 8q1 25 0.5 78.5t-2 125.5t-1.5 81q1 37 5 191t5 177v8.5v10.5q0 12 1 16q5 19 21 16t15 -22z" />
    <glyph glyph-name="L" unicode="L" horiz-adv-x="496" 
d="M128 140q15 28 28 61q38 91 57 238q15 114 3 204q-11 88 -39 107q-14 9 -27 7t-22 -9t-14 -17q-10 -21 -22 -75.5t-16 -131.5q-8 -141 25 -297q10 -48 27 -87zM17 26q15 1 35 15q27 18 60 72q-2 3 -3 7q-39 125 -49 253.5t-5 190.5q3 45 12 90q10 52 22 77
q14 28 41.5 43.5t51.5 -0.5q53 -33 62 -194q5 -85 -9 -156q-34 -179 -96 -310q11 -22 24 -39q49 -67 122 -65q65 2 112.5 24t71.5 44q17 16 24 36q5 14 2 25q-14 47 7 44q8 -1 19 -15.5t12 -30.5q2 -17 -15 -45q-10 -17 -44 -45t-89 -50q-35 -14 -76 -15t-85 13
q-63 24 -99 89q-16 -29 -29 -47q-11 -15 -36 -31q-26 -17 -37 -16q-39 2 -40 17q-1 14 25 18q4 1 9 1z" />
    <glyph glyph-name="M" unicode="M" horiz-adv-x="635" 
d="M630 690q0 -3 -2 -25q-1 -44 0 -105.5t3 -154.5t2 -113q1 -347 14 -392q3 -10 8 -19l10 -13q5 -6 7 -15.5t-5 -18.5q-4 -3 -15.5 1.5t-18.5 12.5q-5 7 -9 25q-4 19 -10 167.5t-5 176.5q2 51 -1.5 195.5t-8.5 217.5q-14 -41 -41 -123t-29 -88q-9 -26 -63 -166.5
t-64 -171.5q-3 -8 -3 -16q-1 -12 -2 -14q-1 -6 -4 -9q-1 -9 -8.5 -16t-14.5 -4q-9 3 -14 17q-1 3 -1.5 9t-1.5 9q-6 28 -105 260q-11 27 -63.5 153t-68.5 164q3 -34 9.5 -104t11.5 -125.5t6 -68.5q7 -118 5 -160q-4 -84 -27.5 -156.5t-44.5 -89.5q-1 -1 -14 -5
q-10 -3 -13 -2q-16 5 -13.5 20.5t15.5 15.5q1 0 4 -0.5t5 -0.5q7 0 19.5 19t26 56.5t17.5 79.5q5 44 2 125q-2 46 -19 222.5t-22 204.5q-1 10 -3 13l-2 11q0 4 5.5 7.5t12.5 3.5q5 10 16 8.5t17 -13.5q0 -2 4 -20q5 -27 46.5 -135.5t61.5 -153.5q5 -12 61.5 -140.5
t69.5 -157.5q21 46 62.5 145.5t51.5 130.5q79 240 98 314q3 13 4 18l3 18q5 9 17 12t17 -5q5 -7 1 -21q2 -5 3 -10z" />
    <glyph glyph-name="N" unicode="N" horiz-adv-x="422" 
d="M161 711q1 0 0.5 -2.5t-0.5 -3.5q1 -15 45 -121.5t73 -168.5q7 -16 142 -319q-2 46 -7 144.5t-6 109.5q0 8 -4.5 154.5t-6.5 170.5q-1 14 -1 19l-3 17q1 10 12 16.5t18 0.5t7 -21q0 -3 -1.5 -8.5t-1.5 -8.5q-2 -20 1 -275q1 -56 9 -185.5t15 -169.5q2 -14 3 -17
q3 -12 3 -15q0 -5 -2 -9q3 -3 3 -5q1 -8 -8 -15.5t-18 -4.5q-8 3 -10 11q-1 2 -1 6.5v6.5q-2 12 -54 135.5t-72 170.5q-141 319 -161 362q-4 -41 -4.5 -150.5t1.5 -149.5q2 -53 9 -192.5t9 -161.5q2 1 5 3q-1 -1 -1 -9q1 -9 0 -9q1 -4 1 -5q-1 -4 -11 -6.5t-19 0.5
q-7 3 -7 7q0 1 1.5 4t1.5 4q1 5 -1 66t-4.5 132t-3.5 81q0 33 -2.5 205t-3.5 196v5.5t-1 4.5v9q5 8 17 5.5t17 -9.5q19 3 22 -5zM155 35v0v0z" />
    <glyph glyph-name="O" unicode="O" horiz-adv-x="578" 
d="M512 656q-8 20 -28 37q-29 24 -81 42.5t-94 0.5q-38 -17 -69.5 -88t-42.5 -159q-14 -118 0.5 -225t38.5 -160q13 -31 48 -66t88 -53q29 -10 63 0.5t59 34.5q54 51 69 126q18 95 21.5 190t-2.5 149.5t-14 79.5q-7 21 -23 48l-2 4q-12 -3 -26 27q-3 5 -5 12zM511 713
q3 1 7 -1q15 -8 38 -48q7 -11 22 -46q16 -38 30.5 -139.5t2.5 -224.5q-7 -78 -32.5 -145.5t-64.5 -102.5q-29 -25 -68 -35.5t-64.5 -8.5t-39.5 8q-34 14 -71.5 50.5t-63.5 92.5q-46 100 -42 253q5 203 73 327q22 39 57.5 59.5t76.5 18.5l16 -2t14 -2.5t14 -4t12.5 -4
t12.5 -5t10.5 -5t10.5 -5.5t10 -4q21 -10 39 -26z" />
    <glyph glyph-name="P" unicode="P" horiz-adv-x="521" 
d="M169 372q-27 -71 -44 -152q-9 -43 -12.5 -64.5t-7 -55t1.5 -59t17 -46.5q6 -12 21 15t19 65q3 29 5 92q1 53 1 113q0 47 -1 92zM189 656q1 -7 1 -63q0 -11 0.5 -49.5t1.5 -64.5q24 50 53 95q46 73 98 108q25 17 53.5 26.5t62 7t58.5 -20.5q22 -17 32.5 -50t9 -70
t-7.5 -77q-13 -77 -56 -156q-59 -108 -106 -132q-26 -14 -51 -11.5t-42.5 11.5t-26.5 21q-20 24 -29 66q-9 45 -2 68q11 39 35 52q12 5 12 -5q0 -2 -6 -25t-8 -39q-4 -31 1 -57q8 -42 38 -64q11 -7 27.5 -6.5t38 13t40.5 33.5q42 49 73.5 122.5t45.5 151.5q13 73 -16 116
q-14 22 -41.5 32.5t-50.5 5.5q-40 -10 -70 -31t-46 -39q-61 -70 -119 -197q1 -224 -10 -388q-2 -31 -16 -55t-35 -20q-23 6 -34.5 35t-11.5 56q-2 52 10 120q13 71 34 141q18 57 38 107q-2 69 -4 121q-3 50 -5 65q-3 41 -3 47q0 21 7.5 29t16 -0.5t10.5 -29.5z" />
    <glyph glyph-name="Q" unicode="Q" horiz-adv-x="696" 
d="M575 623q-13 22 -30 40q-26 29 -70.5 54t-85.5 15q-40 -10 -74.5 -72t-49.5 -142q-15 -75 -19.5 -156.5t-3 -128t5.5 -83.5q12 -106 87 -152q29 -14 61 -8.5t62 24.5q21 13 38 29q-50 59 -137 184q-5 7 -7 9q-5 5 -6 7q-4 10 10 19t23 0q1 -1 5 -12q8 -24 61 -110
q38 -62 60 -88q25 27 41 62q44 100 64 200t20 150q0 22 -5 48q0 1 -9 38q-7 29 5 42q4 4 10 1q5 -3 11.5 -15.5t9.5 -27.5q2 -9 4 -43q1 -25 -0.5 -62t-14.5 -115t-37 -149q-25 -70 -69 -127q-8 -10 -15 -19q7 -6 22 -11q16 -5 42 -3.5t46 15.5q20 13 35 35t20.5 36t7.5 25
q2 7 2 14q0 2 -0.5 7.5t0.5 5.5q2 7 13 12t19 -1t6 -19q0 -3 -3 -8t-3 -6t-3 -10.5t-7 -18.5t-10 -21.5t-14.5 -25t-19.5 -22.5q-21 -21 -51 -33.5t-47 -12.5t-26 1q-14 7 -38 32q-33 -34 -68 -46q-38 -14 -75 -8.5t-62.5 17.5t-32.5 22q-28 42 -42 152.5t-3 256.5
q7 88 31 165t62 125q24 31 63 42t73 2q36 -9 85 -47q15 -12 36 -33q22 -24 27 -35q12 -26 10.5 -38.5t-14 -6.5t-26.5 29z" />
    <glyph glyph-name="R" unicode="R" horiz-adv-x="610" 
d="M149 65q-1 -1 0.5 -18.5t-1.5 -18.5q-4 -1 -8 -3v-1q1 -1 1 -2q-1 -5 -12 -9t-19 1q-4 2 -6 5q-6 3 3 22q3 34 12 238q1 41 0 122q-4 7 -3 21q0 5 3 12q0 25 -1 52q-3 148 -10 191q-2 12 -4 18q-3 12 -3 15q-1 18 15.5 20t21.5 -16q1 -4 0 -21q0 -21 3 -167q1 -25 1 -47
q13 22 32 49q32 46 79 90q77 73 145 88q44 10 81 -6t50 -38q8 -15 14.5 -46t1.5 -67q-9 -73 -84 -152q-66 -70 -145 -103q-75 -31 -129 -24q-5 0 -11 2q33 -91 75 -141q34 -42 87 -58t85 -10q26 4 75 32t86 70q22 26 31.5 60t3.5 61q-6 25 -20 39t-25 16q-7 2 -16 -2
q-2 0 -13 -8q-8 -6 -22.5 -5.5t-14.5 11.5q-1 5 6 14t15 15q8 4 28 5q7 1 18 -1t28 -12t28 -28q17 -27 16.5 -64t-15.5 -67q-24 -45 -61 -79.5t-59 -46.5q-49 -27 -94 -34q-37 -5 -76.5 2.5t-65.5 31.5q-21 19 -39.5 41.5t-33.5 47.5t-24 41t-21 40.5t-13 26.5l-4 7v-17
q-2 -75 -3 -140q-1 -42 -1 -62v0q2 -1 3 -2zM143 336q9 -2 16 -14q0 -1 1 -2q5 -4 10 -9l4 -5q3 -4 5 -5q6 -1 18.5 -2t37.5 4t51.5 12.5t60 24t63.5 39.5q51 40 80.5 91t33.5 77q1 16 2 36.5t-6 46t-21 41.5q-19 23 -66.5 19.5t-90.5 -31.5q-65 -43 -113.5 -100.5
t-67.5 -97.5q-6 -12 -9 -26q-1 -3 -5 -21q-1 -6 -4 -11q1 -40 1 -54q0 -4 -1 -13z" />
    <glyph glyph-name="S" unicode="S" horiz-adv-x="501" 
d="M389 213q-22 -10 -35 -18q-34 -20 -56 -46q-29 -31 -44 -73t-3 -74q7 -20 37 -29.5t67 -5.5q30 4 57 14t34 21q9 16 11 38t-1 36.5t-7 24.5q-13 31 -60 112zM502 591q-2 22 -13.5 48.5t-43.5 59t-77 51.5q-25 11 -57 5t-54 -26q-22 -21 -36 -58t-8 -59q7 -28 18 -56.5
t25 -58.5t25.5 -52.5t29.5 -53t26 -43.5t25.5 -41t18.5 -30q7 -11 13 -20q6 3 12 5q49 19 77 9q12 -4 2 -12q-5 -4 -72 -35l18 -32q30 -54 40 -85q13 -33 8 -72.5t-31 -60.5q-22 -18 -56.5 -27t-64.5 -7q-42 3 -74.5 26.5t-33.5 52.5q-3 50 22 94.5t55 73.5q17 18 51 41
q13 9 24 16q-105 179 -134 232q-54 96 -47 155q6 52 36.5 96.5t66.5 48.5q63 8 118 -22.5t88 -70.5q12 -14 25 -44q14 -31 14 -45q0 -32 -8 -43.5t-17 0.5t-11 40z" />
    <glyph glyph-name="T" unicode="T" horiz-adv-x="514" 
d="M67 618q2 1 9 3q7 1 93.5 23t109.5 26q4 1 68 12.5t114 21.5t59 13q6 2 10 4q1 0 2.5 1t2.5 2t2 1q5 0 11 -10t3 -19q-2 -8 -7 -9q-2 0 -5 1t-4 1q-6 0 -49.5 -7t-94 -15.5t-55.5 -9.5q-2 0 -5 -1q3 -4 3 -10q0 -1 -3 -16q-5 -23 -7.5 -123.5t-1.5 -146.5q5 -228 11 -293
q1 -12 2 -16l2 -15q-1 -8 -12 -14t-19 -1q-7 6 -7 18q0 3 1.5 8t1.5 7q1 22 0.5 67t-1.5 109.5t-1 70.5q0 293 -2 321v6q0 6 -1 9q-1 10 0 13q-39 -8 -96 -22q-90 -23 -106 -33q-4 -3 -5 -5q-2 -3 -3 -4q-7 -2 -16.5 11.5t-3.5 20.5z" />
    <glyph glyph-name="U" unicode="U" horiz-adv-x="612" 
d="M96 622q2 -10 2 -73q-1 -137 3 -204q14 -251 92 -359q13 -18 42.5 -23.5t53.5 0.5q45 10 83 51q40 44 71 100q-1 7 -2 13q-19 141 0 366q18 210 83 275q13 13 40.5 0t35.5 -40q4 -16 4 -54q-1 -36 -3 -58q-13 -128 -50 -275q-27 -108 -68 -193q-6 -12 -11 -23
q13 -83 39 -126q7 -11 19.5 -22.5t24.5 -16.5q20 -8 32 3q5 4 16 14q41 38 46 29q1 -3 0 -8q-1 -15 -18 -40t-39 -34q-26 -10 -62 14q-19 13 -50 70q-20 37 -31 76q-57 -95 -124 -132q-31 -16 -70 -13.5t-68 22.5q-44 31 -70 108q-27 84 -37 201q-5 56 -12 228q-2 57 -4 71
q0 8 -1.5 26t-2.5 28q-3 39 12 43q9 3 17 -17q5 -11 7 -27zM466 163q40 93 68 198q23 90 38 195q0 6 3.5 28.5t4.5 31.5t2.5 28.5t1 32t-3 29t-6.5 31.5q-6 16 -25.5 11t-31.5 -24q-21 -32 -30 -86q-33 -190 -27 -386q2 -48 6 -89z" />
    <glyph glyph-name="V" unicode="V" horiz-adv-x="671" 
d="M99 704q6 -8 22 -39q106 -198 159 -332q26 -68 46 -154q5 24 13 47q35 97 112 218q51 81 99 141.5t74 85.5q10 10 28 24q19 15 26 17q14 4 24.5 -5.5t4.5 -18.5q-5 -7 -18 -13q-2 -1 -10 -4t-13 -6q-11 -7 -40.5 -36.5t-78.5 -92t-89 -130.5q-42 -72 -75 -148.5
t-46 -118.5q-1 -2 -1 -3q1 -8 3 -16q24 -121 5 -130q-5 -2 -11 9.5t-10.5 34.5t-5.5 52q-1 18 1 40q-11 54 -29 116q-11 40 -68 164q-8 16 -23 50.5t-23 50.5q-13 28 -30 58q-19 32 -37 60q-16 24 -21 32q-17 23 -20 29q-19 34 -4.5 42t36.5 -24zM325 95q-2 -8 -3 -13
q-4 -29 12 -56l3 -6l1 1q-4 14 -6 32q-3 20 -7 42z" />
    <glyph glyph-name="W" unicode="W" horiz-adv-x="872" 
d="M208 631q7 -19 27 -78q28 -84 51 -160q23 -74 37 -112q1 -3 3 -10q30 72 66 137q14 25 35 65.5t31.5 60t25 40.5t26.5 31q22 18 40 -39q4 -13 16 -59q17 -69 30 -125q18 44 42 89q57 105 110 174q26 34 55 62q35 32 51 37q33 10 51 -6q9 -8 0 -13q-2 -1 -17 -7.5
t-26 -11.5q-27 -15 -47 -32q-19 -17 -52.5 -59t-70.5 -105q-45 -76 -82 -172q-1 -5 -3 -9q11 -51 19 -95q13 -74 16 -125q3 -24 2.5 -50t-8.5 -41q-12 -23 -44 -23t-44 23q-43 87 17 280q7 22 15 45q-5 22 -10 46q-5 22 -8.5 74.5t-10.5 90.5t-24 51q4 -4 -11 -31
t-45.5 -75.5t-45.5 -76.5q-56 -102 -88 -182q3 -9 6 -17q5 -16 8 -30q16 -84 5.5 -147.5t-39.5 -60.5q-22 2 -32 50.5t-5 93.5q5 40 31 105q0 1 1 2q-6 20 -12 39q-19 62 -30 92.5t-28.5 76.5t-19.5 50q-13 35 -26 67q-21 49 -24 60q-19 58 -6 67q10 6 28 -28q7 -13 14 -29z
M322 198q-6 -20 -11 -38q-12 -48 -6.5 -98t20.5 -55q5 -1 11 18.5t8 51t-8 71.5zM592 286q-23 -71 -37 -140q-9 -41 2 -86q6 -28 22 -39q12 -7 21 -6.5t11 8.5q16 59 -4 182q-6 38 -15 81z" />
    <glyph glyph-name="X" unicode="X" horiz-adv-x="733" 
d="M13 385q-5 15 0 56q7 62 34 125q29 65 71 90q27 18 67.5 11.5t59.5 -36.5q24 -36 46 -89.5t33 -89.5q10 -34 24 -88q46 59 123 148q-11 -15 -19 -26q-13 -20 -29.5 -45.5t-16.5 -26.5q-27 -40 -51 -75q9 -35 10 -39q62 -214 158 -318q19 -21 54.5 -25.5t62.5 8.5
q42 19 69 83q28 65 28 128q0 18 -2 42q-1 6 -2 15t-2 15t-1 10q0 32 17 45q8 6 14 -2q7 -11 9 -49q0 -8 -1 -22t-1 -19q0 -1 0.5 -10.5t0 -19t-1.5 -23t-3.5 -29.5t-6.5 -32q-9 -33 -24 -64.5t-43 -61.5t-62 -39q-49 -12 -98.5 18.5t-81.5 76.5q-29 42 -50 98
q-14 38 -56 177q-1 7 -3 14q-37 -53 -65 -91q-71 -96 -134 -156q-62 -59 -102 -67q-28 -6 -53.5 5t-39.5 27q-5 6 -16 26q-10 19 -12 28q-4 24 2 35t16.5 3.5t16.5 -29.5q7 -23 10 -32q12 -28 32 -37q28 -14 73 13q57 35 127 118q61 73 119 157q8 12 18 25q-33 110 -51 166
q-26 84 -56 112q-24 24 -55 25t-50 -20q-53 -57 -70 -154q-4 -23 -2 -45q1 -24 4 -37q7 -33 -8 -39q-13 -6 -26 25q-2 5 -4 11zM553 604q-8 -7 -15 -14q-24 -23 -48 -54q-10 -12 -19 -24q12 14 25 28q31 36 57 64zM553 604q88 95 125 113q15 7 35 -3t23 -26q5 -25 -11 -40
q-9 -9 -14 0q-2 4 -6 16.5t-5 14.5q-3 8 -4 8q-4 2 -27.5 -8.5t-61.5 -34.5q-29 -18 -54 -40z" />
    <glyph glyph-name="Y" unicode="Y" horiz-adv-x="627" 
d="M120 659q1 -14 -3 -101q-7 -137 -9 -199q-3 -114 3 -199q7 -93 27 -137q16 -38 47.5 -57.5t66.5 -10.5q54 16 102 63q42 40 75 94q-21 208 -27 378q-7 169 2 186q9 47 38 79q8 9 26.5 12t38.5 -9q17 -11 29 -48q30 -93 24 -204q-8 -147 -62 -299q-20 -57 -45 -101
q4 -42 6 -65q38 25 74 33q26 5 50.5 2.5t35.5 -13.5q39 -37 45 -83q1 -15 -3 -16q-3 0 -8 6q-36 55 -63 67q-25 12 -65 3q-30 -7 -64 -32q6 -102 -3 -168q-8 -68 -39 -94q-13 -11 -39 -10.5t-44 12.5q-16 12 -24 32t-6 40q5 58 44 113q39 56 87 92q-2 23 -4 48
q-17 -25 -36 -46q-46 -51 -100.5 -80t-98.5 -16q-84 24 -110 208q-7 54 -7 159q0 48 3 191q2 78 2 98q-1 60 -1 75q-3 53 11.5 55t22.5 -52q0 -3 1 -6zM439 -9l-2 -2q-40 -35 -70 -87.5t-34 -103.5q0 -9 7.5 -20t16.5 -13q21 -4 39 0t23 10q22 31 24 113q1 39 -4 103z
M448 146q50 94 69 202q33 180 14 304q-4 26 -15 52q-10 21 -27 34.5t-28 4.5q-44 -37 -46 -189q0 -21 0.5 -43.5t2.5 -50t3 -46.5t4.5 -53t5 -49.5t6 -55.5t5.5 -53q3 -31 6 -57z" />
    <glyph glyph-name="Z" unicode="Z" horiz-adv-x="530" 
d="M120 271q6 3 18 4q55 6 100 6q14 20 18 26q13 18 71.5 99.5t109 153t68.5 97.5q0 1 5 7.5t7 10.5l2 4q-19 0 -57 -2t-74 -4.5t-39 -2.5q-23 -1 -124 -4t-119 -4h-5.5h-6.5q-8 -1 -10 0q-13 4 -10.5 19.5t15.5 15.5q1 0 13 -3q17 -5 97.5 -6.5t103.5 1.5q167 12 220 20
q11 1 13 2q11 2 12 2q6 -1 11 -10.5t1 -17.5q1 -8 -5 -17q-2 -3 -17 -18q-23 -24 -105 -134.5t-115 -158.5q-13 -18 -52 -77q60 -1 92 3q7 1 14 4q2 1 6.5 2.5t5.5 2.5q8 1 16.5 -8t5 -17.5t-15.5 -11.5q-1 -1 -8 -1l-7 1h-31t-33 1q-36 2 -60 2q-126 -190 -147 -227
q-7 -12 -10 -17q12 0 107.5 6t113.5 6q24 1 117.5 -3t117.5 -6h4h5l7 -1q3 -2 0 -13t-9 -16q-1 0 -3 -2q-3 -3 -4 -3q0 1 -1 2.5t-1 2.5q-5 3 -80.5 10t-96.5 7q-45 1 -145 -5.5t-121 -13.5l-6 -3q-4 -3 -5 -3q-7 0 -12 13q-7 -9 -20 -9.5t-16 9.5q-2 9 8 25q2 3 7.5 8
t6.5 7q11 13 154 225q-39 -2 -66 -9q-6 -2 -12 -5q-8 -5 -10 -6q-15 -5 -21.5 10t7.5 24z" />
    <glyph glyph-name="bracketleft" unicode="[" horiz-adv-x="216" 
d="M225 689q-4 0 -9.5 1t-13 2.5l-12.5 2.5q-24 4 -49 -1t-24 -19q1 -36 4 -106.5t4 -83.5q2 -51 5 -176q0 -8 1 -72t2.5 -121.5t4 -124t7 -108t10.5 -43.5q2 -2 7 0t13 5.5t11 4.5q18 6 29 7q38 0 39 -22q0 -5 -15 -10.5t-28 -6.5h-6h-7.5t-7.5 -1q-1 0 -10.5 -4.5
t-17.5 -5.5t-21 1q-8 2 -13 5.5t-8.5 10t-5.5 11.5t-2.5 14.5t-0.5 14v16v14.5q1 76 0 147q0 47 -1 105.5t-1 59.5q0 90 -5 228q-1 27 -4.5 85.5t-5.5 90.5q-2 59 21 88.5t55 30.5q6 0 18 -1t16 -1q21 -1 27 -2q15 -3 20 -12t-2.5 -17t-23.5 -7z" />
    <glyph glyph-name="backslash" unicode="\" horiz-adv-x="248" 
d="M42 692q3 -4 8 -19q87 -268 101 -319q11 -43 56 -175t58 -155q4 -7 10 -14q1 -2 3.5 -4.5t4 -4.5t1.5 -4q4 -8 -2 -19t-15 -10q-10 1 -17 13q-2 2 -3.5 8t-1.5 8q-11 27 -52 144t-46 136q-17 67 -59.5 202t-61.5 170q-5 9 -9 14q-7 9 -8 12q-6 16 8.5 23.5t24.5 -6.5z
" />
    <glyph glyph-name="bracketright" unicode="]" horiz-adv-x="147" 
d="M57 -190q-13 2 -13.5 16.5t10.5 19.5q3 1 24 1q28 -1 55 5q2 0 6 1v1q0 4 1.5 11t1.5 10q1 12 0 85t-3 156t-2 88q0 20 -1 120t-2.5 186.5t-2.5 118.5v9v12q-2 15 -1 19q0 2 1 4h-1q-10 3 -20 3q-25 0 -41 -3q-2 -1 -10.5 -4t-14.5 -2q-11 2 -12.5 16.5t8.5 19.5
q5 2 24 0q31 -2 54 0q2 0 10.5 0.5t12.5 1.5q1 0 3 0.5t3 0.5q9 -1 14 -9.5t2 -17.5q4 -5 4 -13q0 -3 -3 -24q-5 -33 -6.5 -177t0.5 -185q8 -302 15 -386q1 -18 2 -23q0 -2 1 -8.5t1 -9.5q10 -10 6 -22q-3 -8 -14 -10q-2 0 -20 2q-10 1 -21 0q-27 -3 -44 -7q-3 -1 -8.5 -3
t-10 -3t-8.5 0z" />
    <glyph glyph-name="asciicircum" unicode="^" horiz-adv-x="387" 
d="M293 668q1 -2 1.5 -5t1.5 -7t1 -7q10 -44 49 -133q44 -97 55 -120q6 -12 11 -18l1 -1l-6 -4l3 -2q10 -4 14 -9q2 -3 -2 -8.5t-12 -9t-16 0.5q-3 1 -5 3.5t-4 9.5l-2 6q-7 17 -18 47t-14 37q-35 87 -80 179q-1 3 -3.5 8.5t-3.5 8.5q-1 0 -1 1q-12 -23 -38 -76t-40 -81
q-45 -87 -59 -121q-3 -8 -5 -14q0 -2 -0.5 -5t-1 -4.5t-0.5 -3.5q-3 -5 -14.5 -5.5t-18.5 6.5q-5 7 -2 16q1 3 4.5 6.5l4.5 4.5q8 12 36 64q72 131 103 218q4 11 6 20q3 14 4 17q7 17 21.5 14.5t14.5 -19.5q10 -2 15 -14z" />
    <glyph glyph-name="underscore" unicode="_" horiz-adv-x="495" 
d="M58 -86q1 0 10 -1q11 -1 53 1t97 5.5t63 4.5q56 3 228 -1l2 -1h4h4l9 1q5 -3 5 -14t-6 -18q-6 -6 -10 -5q-2 0 -4 2l-3 3q-6 3 -82 7.5t-96 4.5q-41 -1 -136 -8t-119 -13q-7 -2 -9 -3q-6 -2 -7 -2q-11 1 -12 17.5t9 19.5z" />
    <glyph glyph-name="grave" unicode="`" horiz-adv-x="147" 
d="M80 688q-5 11 7 20t21 2q4 -2 16 -22q18 -29 38 -56q1 -1 16 -23q1 -1 2.5 -3t2.5 -3q4 -11 -3 -20t-17 -8q-9 0 -13 9q-2 3 -3.5 10t-2.5 9q-3 11 -10 22q-17 25 -33 41q-1 2 -10 9t-11 13z" />
    <glyph glyph-name="a" unicode="a" horiz-adv-x="466" 
d="M381 394q-1 25 -3 39q-5 24 -23.5 52t-48.5 36t-71.5 -16t-63.5 -67q-8 -16 -15 -35t-11.5 -36t-8 -37t-5.5 -34t-3 -33t-1.5 -27.5t-1 -24t-0.5 -16.5q-2 -9 -1.5 -46t8.5 -70q6 -24 20.5 -43.5t29.5 -22.5q16 -3 38.5 10t38.5 36q50 71 83.5 150.5t43.5 122.5
q3 13 5 27q-8 10 -10 35zM432 420q1 -4 0 -17q-2 -19 -15 -124.5t-14 -121.5q-6 -51 5 -102q4 -18 15 -35t17 -15q16 7 25 35q2 7 2 14q0 2 -0.5 6t0.5 6q1 6 10.5 12.5t17.5 2.5q3 -1 6 -7.5t2 -12.5q0 -2 -6 -17q-7 -18 -37.5 -42.5t-53.5 -4.5q-7 6 -12.5 14t-8.5 16
t-5 17.5t-3 17t-1 16.5t0.5 14t1 11t0.5 7q0 6 14 130q1 9 1 17q-15 -43 -34 -85q-57 -123 -122 -167q-28 -16 -56 -11t-45 25q-19 23 -25 50q-24 116 3 274q11 64 45 116t76 75q32 14 62.5 11.5t53.5 -17.5q29 -20 50 -65q4 -10 10 -29h1q16 2 20 -14z" />
    <glyph glyph-name="b" unicode="b" horiz-adv-x="344" 
d="M86 66q2 0 4 -1q10 -4 19 -16q2 -2 5 -7.5t6 -7.5q7 -6 25.5 -12.5t43.5 -6.5q31 1 64 13t52 36q55 68 44 183q-7 65 -17 106q-14 51 -38 89.5t-53 39.5t-58.5 -34.5t-53.5 -82.5q-21 -44 -32 -95q-3 -17 -4 -26v-20q-2 -8 -8 -13q0 -18 0.5 -72t0.5 -73zM49 230
q0 7 7 30l2 4v11q-2 328 -6 409v7.5v9.5q-2 11 -1 14q5 17 24 14.5t20 -19.5q0 -1 -4 -17q-6 -26 -8 -163.5t0 -179.5q0 -6 1 -18q35 82 83 142q14 18 37 28t44 7q43 -6 70 -49q26 -42 39 -98l3 -12l4.5 -18t4.5 -21t4.5 -24.5t3.5 -26.5t3 -30t1 -30t-1 -32t-4 -32t-7 -33
q-11 -39 -50 -69t-82 -42q-60 -18 -116 0q-3 1 -7 3q-8 0 -8.5 -0.5t-3 1.5t-6.5 4q-2 1 -1 5q-1 0 -1 1q-5 3 -9 5q-5 -3 -16.5 -2.5t-18.5 7.5q-7 6 -6 9q0 1 2.5 3t2.5 4q5 10 8 180q-7 7 -8 18z" />
    <glyph glyph-name="c" unicode="c" horiz-adv-x="285" 
d="M285 395q-1 3 -4.5 11t-5.5 12q-13 26 -36 47q-26 23 -56 35.5t-43 1.5q-28 -26 -41 -76.5t-15 -96.5q-6 -103 23 -207q11 -42 34.5 -70.5t51.5 -28.5q38 0 69 49q7 10 11 23q1 5 2.5 12t1.5 9q4 12 15.5 19t19.5 -1q3 -3 4 -13t-2 -20q-1 -3 -13 -24q0 -1 -3 -6t-5 -9
t-6.5 -10.5t-9.5 -12t-12 -11.5l-14 -12q-27 -19 -71 -12.5t-64 35.5q-44 66 -53 178q-10 130 20 242q13 47 50 66q18 9 39.5 7t40.5 -13q41 -25 80 -69q1 -2 15 -20q10 -14 12 -20q8 -25 -8 -31t-27 16z" />
    <glyph glyph-name="d" unicode="d" horiz-adv-x="505" 
d="M489 739q0 -1 -2 -11q-1 -3 -2 -8q3 -1 7 -1q-3 -1 -7 -1q-5 -40 -14.5 -182.5t-12.5 -213.5q0 -7 -1 -15q10 -14 11 -21q3 -26 -12 -29q-1 -26 -1 -52q-1 -88 3 -122q3 -22 10.5 -38t15 -21t9.5 0q4 5 7 19q1 3 2 11t2 11q4 11 17.5 14.5t18.5 -5.5t0 -24q-1 -5 -5 -13
t-5 -9q0 -1 -1.5 -4t-2.5 -6t-3.5 -6.5t-5.5 -6.5q-13 -13 -39.5 -7.5t-33.5 21.5q-11 22 -13 100q0 2 -1 4q-3 -3 -9 -8t-9 -8l-7 -7q-7 -6 -13.5 -11.5t-18 -15t-22.5 -17.5t-26 -17t-30.5 -16.5t-32 -13.5t-35 -9.5t-36.5 -3.5q-38 -1 -64.5 45.5t-32.5 96.5q-4 42 2 84
q0 3 1 10q4 26 7 42.5t9.5 49.5t15 56.5t20 49.5t27.5 43t35 25q17 7 40.5 -1.5t44 -22.5t48 -40.5t42 -41.5t35.5 -40q11 -12 16 -17q18 343 17 384q-1 1 -1 2v3q0 5 -1 8q-1 7 -1 8q2 10 19 9.5t19 -10.5zM432 275q-5 14 -11 25q-12 21 -57.5 72t-96.5 98q-12 12 -27.5 11
t-28.5 -13q-19 -15 -37 -53q-19 -37 -29 -71q-8 -27 -14.5 -69t-6 -106.5t17.5 -111.5q7 -20 33 -28.5t54 -3.5q32 5 77 35q42 27 65 51q12 12 21 24q4 4 9.5 12t7.5 11q9 9 21 12q0 34 1 55q1 16 2 47q-1 1 -1 3z" />
    <glyph glyph-name="e" unicode="e" horiz-adv-x="269" 
d="M68 249q3 -2 7 -4q41 -20 73 -9q23 7 42.5 33.5t24.5 60.5q7 46 -6.5 90.5t-41.5 57.5q-19 10 -39.5 -15t-28.5 -50q-20 -71 -31 -164zM39 224q-20 9 -32 19q-20 18 -28 32t-3.5 18.5t20 -0.5t36.5 -21q5 -4 11 -8q22 191 86 241q20 15 56.5 -16t48.5 -68q23 -71 -2 -124
q-22 -48 -64.5 -71.5t-77.5 -19.5q-10 1 -26 7q-3 -36 -3 -68q-1 -51 20 -88q14 -25 35.5 -41t40.5 -13q43 7 74 36.5t37 50.5q3 9 2 21q0 5 -2 12t-2 8q-2 12 5 24.5t18 7.5q4 -2 9.5 -11.5t7.5 -19.5q1 -6 -3 -28q-9 -49 -42 -82q-28 -28 -71.5 -40t-77.5 6
q-30 19 -48.5 60.5t-23.5 73.5t-4 53q1 24 3 49z" />
    <glyph glyph-name="f" unicode="f" horiz-adv-x="219" 
d="M96 57q15 13 31 37q23 36 52 118.5t45 188.5q16 95 10 187t-33 146q-8 17 -24.5 17.5t-24.5 -14.5q-10 -20 -20 -72q-7 -39 -12 -85q-9 -81 -14 -184q-2 -44 -3.5 -117.5t-2.5 -104.5q-3 -87 -4 -117zM95 -3q22 -12 44 -34q15 -15 33 -49q9 -16 12 -48q2 -26 -2.5 -65
t-14.5 -58q-10 -22 -35.5 -27.5t-37.5 16.5q-22 49 -26 141t2 178q0 16 1 24q8 249 8 256q3 69 7 129q6 89 15 157q12 85 28 124q9 20 27 30t36 2q15 -6 27.5 -21.5t16.5 -34.5q20 -82 20.5 -187t-16.5 -197q-21 -116 -67 -222q-8 -20 -25 -48q-18 -29 -27 -35
q-15 -10 -26 -12v-19zM94 -47q0 -47 1 -86q1 -44 9 -81q5 -27 20 -49q7 -10 12 6q21 58 18 115q-2 29 -16 49q-6 9 -34 35q-5 5 -10 11z" />
    <glyph glyph-name="g" unicode="g" horiz-adv-x="437" 
d="M356 307q-2 12 -3 22q-7 49 -24 84q-20 43 -52 75t-63 32t-60.5 -33.5t-45.5 -79.5q-14 -36 -19 -90q-4 -53 9.5 -130.5t51.5 -127.5q13 -17 36.5 -22.5t44.5 -0.5q36 9 62 47q28 40 42 92q6 23 9 48q1 11 2 28.5t2 21.5q2 18 8 34zM105 51q-1 -2 -13 -16.5t-18 -23.5
q-10 -14 -8.5 -22.5t20.5 -8.5q15 0 53 6t59 8q106 9 166 -24q37 -19 62.5 -50t28.5 -60q4 -52 -50 -93q-43 -34 -106 -45q-48 -8 -101 4.5t-89 46.5q-18 19 -25 54t3 64q10 28 35.5 47t52.5 21q50 4 89.5 -10t55.5 -31q12 -13 16 -35q4 -26 -4 -40q-15 -26 -38 -30
q-13 0 -12 10q1 5 7.5 19.5t8.5 19.5q5 15 4 21q0 5 -5.5 13t-21 19t-36.5 16q-38 9 -80 -7.5t-49 -48.5q-9 -39 13.5 -73.5t53.5 -46.5q44 -18 94 -12q66 7 120 42q18 12 30.5 29.5t12.5 33.5q-1 40 -46 76q-67 55 -161 48q-6 -1 -18 -2q-31 -3 -46.5 -4t-39.5 -1.5t-36 1
t-25.5 5t-20.5 11t-9 17.5q-1 5 1.5 11.5t10 17.5t9.5 13q16 27 24 36q10 9 19 11q-18 32 -24 67q-4 24 -4.5 61.5t3.5 83.5t17 97.5t34 92.5q13 27 43 41.5t58 12.5q25 -2 51 -18q1 0 4.5 1t5.5 1q3 1 56 20t83 22q27 3 41.5 -19.5t7.5 -52.5q0 -3 -11 -16q-9 -12 -12 -13
q-8 -5 -19 1.5t-11 16.5q1 9 9 15q2 1 6 2.5t6 2.5q8 7 12.5 19.5t1.5 14.5q-17 9 -60.5 -3.5t-87.5 -35.5q-1 0 -2 -1q6 -5 11 -12q38 -47 63 -124q3 -10 11 -43q7 -30 8 -42q0 -45 -16 -47q-1 -5 -3.5 -13.5t-2.5 -11.5q-4 -17 -11.5 -37t-22 -52.5t-38 -60.5t-50.5 -42
q-31 -16 -72 0.5t-68 48.5q-2 -7 -8 -14z" />
    <glyph glyph-name="h" unicode="h" horiz-adv-x="402" 
d="M100 189q18 46 32 93q52 177 59 309q3 68 -12 107q-3 8 -11.5 9t-19.5 -6.5t-21 -21.5q-23 -34 -30 -78q-17 -124 -6 -292q4 -59 9 -120zM-166.5 -18q13.5 -15 28.5 -25q13 -7 31.5 -9t46.5 9q43 19 89 92q23 37 44 80q-1 23 -5.5 107.5t-7.5 135.5q-8 161 14 240
q10 37 35 69t47.5 44.5t30.5 3.5q27 -37 20.5 -153t-43.5 -270q-10 -42 -26 -85q27 38 59 71q43 44 88 75t69 40q19 6 49 -11t35 -59q3 -25 0 -49.5t-10 -53t-9 -41.5q-15 -97 -17 -137v-25q0 -3 0.5 -8t1 -7.5t-0.5 -6.5q-1 -12 -12.5 -20t-19 -1t-7.5 27q1 5 3 13t2 10
q8 43 24.5 190t8.5 154q-7 6 -34 -2.5t-70 -36t-82 -66.5q-46 -46 -72.5 -90.5t-34.5 -71.5q-2 -8 -1 -18q0 -2 1 -9t1 -11q0 -10 -2 -18q1 -9 1 -15q3 -39 2 -43q-2 -27 -19 -36q-9 -4 -14 2q-6 9 -6 43q0 7 1.5 21t2.5 21v10q-3 5 -4 12l-8 -14q-42 -77 -84 -109
q-55 -41 -110 -32q-13 2 -35 14q-23 13 -30 24q-14 18 -17 31t2.5 16.5t17.5 -2t25.5 -20.5z" />
    <glyph glyph-name="i" unicode="i" horiz-adv-x="213" 
d="M22 688q-1 3 -2 5q-10 29 11 46q20 17 46 5q8 -4 16 -11q11 33 22.5 48t23.5 11q20 -7 22 -58t-16 -82q-24 -41 -67 -16q-43 23 -56 52zM59 738q-6 1 -12 -1l3 -1.5t2 -1.5q2 4 6 2q1 1 1 2zM30 718q-1 -1 -2 -1q-2 -9 1 -19l5 5q4 7 5 9v1q1 2 1 4q-1 -1 -3 -1
q-1 -1 -2 -1q-3 0 -4 3h-1zM44 690q-2 -7 -4 -12q2 -2 3 -4q1 7 3 14q-2 0 -2 2zM61 701q-4 -9 -5 -12q-3 -9 -3 -19q0 1 1 2q2 7 5 21q1 5 2 8zM82 646l-2 2v2q-1 -2 -3 -2q2 -2 5 -3v1zM84 655q4 20 7 41q-4 -10 -5 -16q-4 -15 -4 -26l1 1v-1h1v1zM98 651q-2 -2 -5 -1
q0 -2 -1 -4q0 -1 -1 -2q0 -2 -1 -3q6 -3 13 -4q-2 3 0 6l2 4h-2q-4 0 -5 4zM100 687q1 8 2 17q0 1 -1 2q0 -10 -2 -22q1 2 1 3zM116 731q-1 -1 -2.5 -1h-2.5q-3 -5 -7 -10q2 -3 4 -5h1h1v1q3 7 6 15zM135 765q1 7 2 12q0 2 1 3q-1 2 -2 2q-1 1 -2 1q-1 -2 -1 -3t-1 -3.5
t-2 -2.5q-1 -4 -2 -7q-5 -12 -9 -20q0 -5 -1 -9q5 12 11 24q2 5 6 3zM130 713q-5 -11 -10 -25q1 -2 1 -3q2 -5 -3 -6q0 -1 -1 -1q-4 -11 -9 -25v-1q16 27 22 61zM134 746q0 2 1 3v2q-1 -4 -3 -7zM144 743q2 2 5 2h1q-1 12 -4 22q-1 -4 -1 -12q0 -5 -1 -7v-5zM129 658
q-2 -3 -3 -6q-1 -5 -6 -3h-1q-1 0 -1 -1q-4 -5 -7 -11q15 2 25 20q15 25 15 67q-2 -13 -7 -27q1 -24 -15 -39zM114 487q0 -3 -3 -20q-5 -24 -25 -311q0 -2 -2.5 -19.5t-4 -33t0.5 -41.5t8 -50q5 -21 27.5 -32.5t41.5 -7.5q31 6 47 31q4 7 6 14q0 3 0.5 7.5t1.5 6.5
q3 8 14 13.5t19 -0.5q9 -8 4 -26q-1 -5 -11 -18q-6 -9 -30 -23.5t-57 -23t-61 11.5q-43 31 -33 132q6 52 14 185t6 175v17q-1 13 -1 16q4 18 20.5 16.5t17.5 -19.5zM70 730q-1 -1 -1.5 -2.5t-1.5 -3.5t-1 -3q-2 -3 -3 -5q2 -2 2 -5q4 9 11 19q1 1 3 1l-6 4q-2 1 -5 2v-2
q3 -2 2 -5zM85 720q-1 -2 -3 -8q-14 -34 -14 -52q0 -4 -3 -5q4 -2 8 -5q-1 1 -1 3q0 13 4 30q2 6 5 17q6 17 7 24l-3 3q0 -2 -1 -3q2 -2 1 -4zM53 670q0 -3 -2 -4q4 -3 7 -6v5h-1q-4 1 -4 5z" />
    <glyph glyph-name="j" unicode="j" horiz-adv-x="192" 
d="M82 -60q-20 -13 -39 -30q-24 -22 -33 -53q-4 -14 1 -26t16 -12q27 0 40.5 17.5t13.5 32.5q1 25 1 71zM50 660q-11 -12 -20 -19q1 -4 4 -8q7 16 16 27zM77 671l1 1q0 1 2 4q1 1 1 2q-4 3 -8 5q-2 -1 -4 -3q1 0 2 -1q4 -2 2 -7l-8 -10q1 0 2 -1q1 1 3 5l2 2l2 2h2zM60 637
l-10 -10q-1 -2 -3 -2t-4 1q0 1 -1 1q0 -1 -2 -2q6 -6 14 -12q1 2 3 5q-3 2 -2 5q3 8 5 14zM95 651l-2 -4v-2q1 1 1 2q0 2 1 4zM119 683q-10 -9 -15 -15l2 -2q1 -2 1 -4q7 12 12 21zM123 723q3 2 6 5l-8 -2l1 -1q1 -1 1 -2zM147 737q1 -1 1 -3q4 -2 7 -6q2 4 6 1t1 -7
q-1 -1 -3 -4q2 -8 2 -19q-4 -36 -40 -100q-8 -13 -27.5 -11.5t-41.5 14.5q-22 15 -31.5 35t-0.5 40q14 31 45 21q7 -2 14 -7q3 19 21 34l6 4l2 2q2 3 5 2q15 7 27 4q2 1 3 1q3 0 4 -1zM97 682q4 5 10 13l-7 -7q-1 -2 -2 -3q-1 -2 -1 -3zM89 664q-6 -4 -11 -8q-1 -1 -1 -2
t-1 -3q2 1 5 0l2 -2q1 3 3 8l1 1zM122 687v-1q9 13 19 21q4 7 7 12q-2 5 -5 7l-4 -4q2 0 4 -1q4 -3 1 -7q-6 -9 -19 -20l-4 -4q1 -2 1 -3zM114 479q1 -6 -2 -32q-5 -48 -9 -215t-2 -241q33 18 64 20q16 1 32 -5q21 -9 27 -20q12 -21 1 -39q-6 -8 -13 -3q-2 2 -20 23
q-9 10 -12 12q-5 2 -27 -4t-49 -21q2 -36 1 -68q0 -4 0.5 -14.5t0 -17t-2 -15.5t-5 -15.5t-9.5 -11.5q-21 -14 -44.5 -14t-43 12t-19.5 28q0 35 29 73t68 66q1 1 3 2q1 338 -1 450q-1 20 -1 27q-2 19 -2 25q2 17 10.5 23.5t16.5 -1t9 -24.5zM44 676q-4 -7 -7 -11l-1 -2
l-2 -2q0 -1 -2 -5l12 12l5 5q9 10 14 15h-1q-22 8 -32 -15q3 3 6 8q2 4 6.5 1.5t1.5 -6.5zM103 631q9 12 25 37l1 2q13 20 20 30q1 0 2 1v1q-2 -1 -3 -2l-16 -24q-2 -3 -4 -7q-16 -23 -26 -38q-5 -9 -10 -15q-1 -3 -4 -3q-2 -2 -4 -5q-2 -1 -4 -1t-3.5 1t-1.5 4q0 2 1 3
q5 5 12 14q3 4 4 8q0 2 1 5v1l-1 -1q-11 -16 -23 -38q10 -4 19 -6q0 1 1 1q10 7 20 25q-3 -2 -5 0q-4 4 -1 7zM126 636q0 -1 -1 -1q0 -1 -1 -3t-2 -4.5t-2 -3.5q-9 -17 -17 -26q7 2 9 6q25 43 34 73q-3 -5 -8 -12q0 -1 -1 -2q-9 -13 -13 -20q4 -2 2 -7zM106 660l-1 -1
q-4 -2 -7 1q-1 -3 -2 -5q2 2 5 1q2 0 3 -1q1 3 2 5z" />
    <glyph glyph-name="k" unicode="k" horiz-adv-x="398" 
d="M336 461q-2 -2 -15 -11q-41 -30 -107 -93q-48 -46 -81 -88q-5 -8 -9 -15l-2.5 -5t-3 -5t-2.5 -4q-1 -1 -3 -2q22 -38 65.5 -101.5t60.5 -78.5q13 -13 40.5 -24t52.5 -3q30 10 47 34t19 40q1 6 0 12q0 2 -0.5 5t-0.5 4v3q1 8 12 13t20 0q8 -6 7 -18q0 -3 -2.5 -8t-2.5 -6
l-1 -5q-2 -5 -3 -8.5t-4 -10.5t-6 -13t-7.5 -13t-9.5 -13.5t-11.5 -12.5t-14.5 -11q-21 -13 -46.5 -16t-41.5 -0.5t-22 6.5q-10 7 -27 24.5t-38 43t-38 47t-38.5 49t-28.5 36.5q-7 -168 -6 -187q2 -4 0 -5q0 -4 1 -7q0 -1 1 -3t1 -3.5v-2.5q-1 -4 -12 -7.5t-19 0.5t-8 10
q0 1 1.5 4.5t2.5 4.5q3 11 15 220q-2 2 -2 3q-4 7 3 16q1 29 2 33q4 57 1.5 212.5t-9.5 189.5q-2 7 -4 12q-4 7 -4 9q-1 13 15 17t22 -9q1 -3 1 -15l3 -149q3 -149 2 -187q-1 -17 -4 -94q1 1 3 2q8 8 25 26t26 26q11 10 44.5 42t55.5 53.5t39 40.5q9 10 11 13q7 9 9 11
q14 11 25.5 -1.5t0.5 -26.5z" />
    <glyph glyph-name="l" unicode="l" horiz-adv-x="194" 
d="M115 238q17 62 32 132q30 141 32 239q2 50 -6 92.5t-20 64.5t-24 21q-5 0 -13 -11t-17 -35t-13 -54q-7 -41 -7 -91t2.5 -76.5t8.5 -79.5q11 -104 25 -202zM33 22q-2 -1 3.5 12t11.5 26l7 13q10 9 35 83q-1 11 -3 24q-2 30 -7.5 100.5t-9.5 106.5q-20 178 -14 250
q7 83 25 126q12 28 42 36t55 -19q27 -33 26 -110q-2 -159 -44 -362q-16 -76 -35 -140q23 -148 34 -164l2 2q2 3 5.5 8.5t6.5 12.5q4 10 16 53q11 38 30 44q7 2 11 -4q3 -4 1.5 -23t-7.5 -39q-7 -23 -27 -56q-6 -11 -22 -20.5t-35 -0.5q-4 2 -7.5 5t-6.5 8.5t-5 9t-4.5 12
t-3 11.5t-3 13.5t-3.5 12.5q-4 17 -8 37q-7 -19 -13 -30q-6 -12 -18 -19q-1 0 -3 -1q-4 -8 -32 -18z" />
    <glyph glyph-name="m" unicode="m" horiz-adv-x="602" 
d="M141 -14q6 8 9 10q-4 -2 -11 -3q-2 -3 2 -7zM375 269q-8 -22 -14 -40q-32 -90 -49 -171q-9 -40 -5 -67q2 -14 16.5 -17.5t23.5 6.5q15 16 23 120q8 90 5 169zM117 528q0 -1 -1 -9q-4 -17 2 -139q1 2 3 4q22 32 40 52q43 48 87.5 75.5t78.5 13.5q49 -21 67 -152
q57 116 124 168q28 19 64.5 6.5t47.5 -40.5q11 -29 8 -109q-2 -60 -13 -146q-4 -34 -10 -77.5t-6 -45.5q-7 -49 -8 -69q-1 -11 -2.5 -29t-2.5 -24q-4 -31 -22 -41q-8 -4 -13 3q-8 10 -3 52q1 11 5.5 30t5.5 25q53 290 30 437q-1 9 -15.5 11.5t-34.5 -2.5t-35 -16
q-25 -19 -56.5 -69t-57.5 -108q0 -1 -1 -2q8 -89 -3 -209q-4 -44 -6.5 -64.5t-7.5 -44.5t-12 -36q-11 -19 -41 -20t-42 21q-5 10 -6.5 20.5t-1 16t2.5 14t2 10.5q11 83 53 199q17 50 35 91q-7 82 -25 136q-7 21 -22.5 32.5t-30.5 10.5q-24 -1 -58 -32q-33 -29 -66 -75
q-18 -25 -29 -45q-13 -26 -19 -40q2 -33 3 -53q13 -181 25 -254q1 -2 3 -3q-2 0 -3 -1q1 -2 1 -3q1 -3 3 -6l2 -2l1 -1q-2 -3 -15 -8l-1 -1q-5 -3 -4 0q-6 -2 -11 -1q-8 1 -8 3q0 1 1 3t1 3q1 2 1 7q-10 4 -3 12l2 2q-2 26 -7.5 100t-6.5 83q-2 33 -5 85q-16 -17 -20 2
q-4 16 6 49q3 8 10 20q-9 138 -14 163q-1 8 -2 9q-2 6 -2 7q2 10 19 9.5t19 -8.5z" />
    <glyph glyph-name="n" unicode="n" horiz-adv-x="422" 
d="M99 68q-1 -1 0 -11t-1 -11q0 -1 -1 -3q0 -1 0.5 -2.5t0.5 -3.5q2 -3 1 -4q-1 -4 -11.5 -7t-19.5 0q-8 4 -8 9q0 1 2 3.5t2 3.5q1 5 3 43t3.5 84t2.5 49q2 35 0.5 145.5t-6.5 141.5q-2 10 -2 13q-3 9 -3 11q1 15 18 16t20 -14q1 -2 -1 -15q-1 -12 -1 -230q2 2 21 28t41 54
t46 56q25 29 40.5 45.5t40 36t45.5 27.5q41 15 79 -5t46 -45q7 -23 -2 -95t-36 -156q-84 -258 -78 -281q1 -3 4 -4q1 0 3 1h1q6 -3 11.5 -13.5t-0.5 -18.5q-2 -4 -10 -5.5t-15 0.5q-11 4 -16 15q-4 10 22.5 112.5t58.5 216t35 129.5q13 72 -12 116q-8 15 -27 20t-37 -1
q-35 -10 -68 -43q-52 -52 -94.5 -106.5t-63.5 -89.5q-10 -15 -13 -22q-8 -15 -10 -18q-5 -7 -13 -8q-3 -132 -2 -169q2 3 4 5z" />
    <glyph glyph-name="o" unicode="o" horiz-adv-x="407" 
d="M324 295q-41 -2 -84 7q-67 13 -112 69q-8 10 -13 23q-27 -53 -40 -121q-11 -62 -3 -120t33 -95q14 -22 39.5 -33.5t46.5 -10.5q34 2 61 31q16 17 34.5 52.5t29.5 86.5q11 54 8 111zM322 321q-6 52 -24 95q-20 27 -53 46.5t-62 7.5q-26 -10 -50 -46q2 -36 27 -53
q43 -28 87 -39.5t75 -10.5zM143 470q15 14 31 22q-6 -1 -11 -2q-12 -3 -20 -20zM295 465l13 -13q16 -17 30 -44q16 -32 15 -46q-1 -25 -6 -38q16 5 28 12q19 11 27 25q13 23 25 35.5t16 -0.5q4 -8 -1.5 -28.5t-17.5 -34.5q-12 -15 -45 -28q-12 -5 -33 -8q2 -53 -4 -89
q-19 -107 -69 -171q-20 -26 -55 -37t-69 0q-32 11 -57 40.5t-33 65.5q-15 76 -5 155t41 144q6 13 14 25q0 10 2 21q6 23 20 42.5t35 22.5q37 5 71.5 -10t57.5 -41z" />
    <glyph glyph-name="p" unicode="p" horiz-adv-x="363" 
d="M135 89q0 -1 1 -3q15 -24 37 -39q11 -7 30.5 -12.5t48 -2t49.5 22.5q61 54 73 231q4 70 -16 120q-15 36 -41.5 57t-44.5 12q-26 -14 -49.5 -42t-34 -48t-17.5 -38q-19 -47 -40 -126q3 -71 4 -132zM96 79q-36 -166 -49 -301q-1 -12 5.5 -26.5t14.5 -13.5q12 1 23 41
q13 50 20 100q7 58 6 118q0 26 -1 53q-14 14 -18 26q-1 1 -1 3zM125 400v-30.5v-35.5q1 -10 1 -30q11 28 22 52q32 65 72.5 108.5t80.5 36.5q42 -7 68 -65.5t31 -131.5q5 -82 -23 -166.5t-70 -116.5q-44 -32 -94 -25q-33 6 -71 32q-4 2 -7 5q0 -106 -8 -197q-3 -42 -24 -90
q-7 -15 -22 -25.5t-28 -4.5q-30 16 -30 59q1 71 15 160q12 81 30 164q14 61 34 128q-1 5 -7 65q-1 9 -2.5 29t-2.5 29q-4 40 -3 52q1 35 10 48t18 -1.5t10 -48.5z" />
    <glyph glyph-name="q" unicode="q" horiz-adv-x="587" 
d="M466 138q-16 -154 -12 -236q2 -26 7.5 -47.5t12.5 -32.5t12 -10q33 5 61.5 24t35.5 41q8 28 8.5 58t-5.5 54.5t-13 42t-15 30.5q-17 27 -44 49q-23 19 -45 26q-2 1 -3 1zM446 315q-10 -52 -30 -104q-25 -68 -52 -115q-34 -60 -72 -99.5t-69 -28.5q-38 14 -55 82.5
t-16 161.5q0 98 28 181q21 62 50.5 104t63.5 50q34 9 70 -8.5t65 -45.5q23 -23 36.5 -59.5t11.5 -57.5q-4 -29 -11 -45q12 -62 3 -155q15 -3 27 -8q19 -9 50 -42q50 -51 73 -129q12 -36 2 -85t-42 -84q-21 -23 -58 -35.5t-54 -2.5q-20 11 -30 42t-8 69q5 180 8 250
q-28 15 -14 25q4 2 15 3q4 87 8 136zM438 378q2 28 -11 60q-15 37 -56 64q-25 19 -62 15t-58 -33q-37 -53 -56 -141.5t-20 -190.5q0 -79 28 -134q7 -15 19 -22.5t24 -5.5q23 4 44 32q54 75 97 179q2 4 16.5 64.5t35.5 90.5q-1 10 -1 22z" />
    <glyph glyph-name="r" unicode="r" horiz-adv-x="466" 
d="M114 261v14h-2q-7 -2 -11 2q-10 1 -25 0q2 0 6 -5t5 -5q11 -4 27 -6zM137 260h7q-3 2 -7 5v-5zM139 301q-1 -6 -1 -13q16 -11 33 -27q44 5 90 23q60 23 113 65.5t80 90.5q7 16 5.5 34t-11.5 33q-15 24 -57 18q-71 -10 -113 -42q-55 -43 -99 -110q-13 -20 -22 -38
q-16 -30 -18 -34zM154 484q1 -2 -2 -14q-4 -16 -9 -93q42 59 87.5 102.5t103.5 60.5q26 7 51.5 8.5t51 -7.5t36.5 -31q12 -20 8.5 -45t-14.5 -48t-28 -44q-32 -37 -87 -69q-62 -37 -123 -56q-17 -5 -36 -9q13 -14 26 -29.5t28 -35t24.5 -32.5t27.5 -37.5t25 -34.5
q31 -41 59 -65t41 -19q21 7 32.5 29t13.5 41t-1 47q-1 8 -3.5 22.5t-2.5 19.5q-2 34 15 47q7 7 13 -1q7 -11 12 -50v-45v-7v-10.5t-0.5 -13t-2 -15t-3.5 -15.5t-6 -17t-8.5 -16.5t-11.5 -16.5t-16 -15q-25 -20 -70.5 8.5t-86.5 83.5q-16 21 -47.5 68t-48 68.5t-31.5 36.5
q-5 0 -11 -1q-12 -1 -25 -1q-6 -142 -5 -192q6 1 12 -5l5 5q-1 -1 0 -12t-2 -13q-16 -9 -19 -9q-15 -5 -25 0q-7 4 -7 8q0 2 2 4t2 3q2 4 4.5 40.5t4.5 79t2 47.5q2 15 3 46q-15 2 -28 7q-12 4 -23.5 23t-0.5 32q11 14 40 9q2 8 7 16q3 7 10 18q4 96 2 123q-1 11 -1 13
q-2 9 -1 11q3 14 19.5 12.5t17.5 -15.5z" />
    <glyph glyph-name="s" unicode="s" horiz-adv-x="319" 
d="M234 168q-20 -11 -31 -18q-25 -17 -47 -43t-24 -51q-1 -17 7 -33.5t23 -25.5q16 -9 35 -8.5t33 9.5q25 15 34 51q10 41 0 66q-6 18 -30 53zM318 412q-2 4 -4.5 16.5t-5.5 18.5q-16 53 -65 80q-36 20 -82 6q-22 -7 -40 -25t-17 -38q1 -16 4.5 -32.5t10 -33t12.5 -30.5
t16 -30.5t16.5 -27t18 -25.5t16 -21.5t15.5 -20t12 -15t3.5 -5t5.5 -7t5 -6.5q4 2 7 3q49 23 79 17q14 -3 4 -12q-8 -9 -68 -41q9 -15 15 -30q16 -29 13.5 -77t-27.5 -83q-15 -21 -44.5 -28t-51.5 2q-24 8 -42 28.5t-19 41.5q-3 55 44 108q15 17 43 39q12 9 21 15
q-90 130 -122 187q-15 26 -14.5 60.5t16.5 62.5q15 26 43.5 41.5t56.5 12.5q48 -4 83.5 -29t52.5 -52q4 -6 15 -32q9 -21 11 -30q4 -21 -2.5 -31.5t-17.5 -4t-17 27.5z" />
    <glyph glyph-name="t" unicode="t" horiz-adv-x="238" 
d="M-32 437q-1 3 1.5 9.5t6.5 7.5q33 16 122 12h1q13 171 11 208q-1 10 -3 18q-2 12 -2 14q0 16 16.5 18t21.5 -15q1 -5 -1 -21q-4 -44 -20 -223q75 -4 109 -2q8 1 15 3q2 1 6 2.5t5 1.5q6 0 13 -10t4.5 -19t-13.5 -10q-3 -1 -8.5 0t-6.5 2q-11 1 -37.5 2t-39.5 2
q-27 3 -49 4q-13 -153 -16 -200q-6 -88 5 -167q5 -37 21 -53q12 -14 24.5 -16.5t16.5 5.5q16 24 23 66q3 15 4 28q0 4 -0.5 13t0.5 9q2 10 13 16t19 0t6 -24q0 -4 -3 -12.5t-3 -11.5q-11 -47 -13 -51q-6 -19 -22.5 -36t-36.5 -23.5t-38 9.5q-45 41 -42 158q1 26 20 291
q-68 2 -93 -6q0 -1 -1 -1l-1 -1h1q1 1 1 2l-1 -1q-1 0 -3 -1h2q-5 -3 -11.5 -5.5t-13.5 -0.5t-10 9z" />
    <glyph glyph-name="u" unicode="u" horiz-adv-x="450" 
d="M336 137q23 51 40 114q18 67 27 142q13 106 -3 117q-4 3 -16 -8.5t-25 -34.5t-19 -47q-31 -127 -9 -256q2 -14 5 -27zM123 481q1 -5 -1 -49q-11 -216 31 -389q5 -17 18 -29t28 -14q31 -7 58 21q34 35 58 75q-31 111 -13 258q8 68 34.5 124.5t52.5 53.5q20 -2 30.5 -28
t10 -52.5t-0.5 -41.5q-11 -97 -40 -197q-16 -60 -45 -111q13 -42 27.5 -69t24.5 -33q7 -4 17 0q8 3 20 14q29 28 48 28q8 -1 7 -10t-12 -25.5t-24 -27.5q-16 -12 -39 -13q-15 0 -43 26.5t-46 76.5q-69 -103 -126 -93q-36 6 -59.5 50t-34.5 105q-8 42 -12 123q0 9 -3 144
q-1 41 -2 48q-2 31 -2 36q0 18 8.5 26t18 0.5t11.5 -27.5z" />
    <glyph glyph-name="v" unicode="v" horiz-adv-x="363" 
d="M355 495q1 1 4 11q3 12 5 12v6q2 4 14 3t18 -7t5 -10q-1 -2 -3 -3.5t-3 -2.5q-3 -4 -17.5 -38.5t-30.5 -74t-18 -44.5q-17 -41 -51.5 -137t-40.5 -126q-1 -10 -2 -13q0 -9 -1 -11q2 3 5 7q-1 -1 1 -7q2 -7 4 -12l2 -6q-3 -1 -5 -2v-1q0 -1 1 -2l4 -7q0 -4 -10.5 -9.5
t-19.5 -2.5q-8 2 -9 6q0 1 1 3.5t1 3.5q0 4 -6 26q-6 6 -5 14v2q-18 59 -40 122q-15 45 -51.5 141.5t-49.5 123.5l-6 12q-5 8 -5 10q-2 15 14 19.5t22 -8.5q1 -1 3 -14q6 -40 78 -229q3 -8 11.5 -31t20.5 -56t19 -54q13 32 42.5 112.5t32.5 88.5q59 152 70 187zM355 495v0v0
zM239 67v0v0z" />
    <glyph glyph-name="w" unicode="w" horiz-adv-x="582" 
d="M177 138q-3 -16 -4 -32q-2 -36 -1 -53q0 -6 3.5 -13t3.5 -8q1 1 1.5 2.5t2 5.5t1.5 8q-2 44 -7 90zM406 9q0 2 1 7q-2 11 -2 22q-1 7 0.5 19.5t1.5 18.5q0 25 -6 99.5t-19 155.5q-7 49 -22 78q-11 22 -25 29t-23 -4q-11 -12 -21 -26t-17 -27t-12 -22.5t-9.5 -19.5
t-4.5 -12q-24 -48 -40 -87q-7 -15 -12 -30q7 -32 12 -63q11 -59 -1 -104q-4 -15 -24.5 -21t-29.5 8q-7 13 -4 52q4 63 19 116q-20 120 -50 200q-6 17 -14 32q-13 24 -14 28q-7 19 -4 30.5t15 7.5t24 -24q6 -10 15 -39q23 -73 47 -181q7 16 15 35q7 16 35 73q24 50 34 63
q21 28 53 37.5t42 -10.5q52 -100 68 -298q18 95 25 119q7 26 52 140t59 146l3 6q3 6 5 9q5 14 6 15q5 7 18 6t16 -11q4 -9 -3 -19q-1 -2 -5 -5.5t-5 -4.5q-9 -11 -54 -110.5t-52 -120.5q-13 -38 -32.5 -131t-23.5 -142q1 -11 1 -16.5t-2 -11.5q0 -2 1 -4q2 -8 1 -10
q-2 -13 -19 -12.5t-19 14.5z" />
    <glyph glyph-name="x" unicode="x" horiz-adv-x="407" 
d="M433 477q0 -1 -9 -10q-20 -21 -143 -232q17 -27 24 -38q3 -6 31.5 -54t54 -90.5t36.5 -59.5q3 -1 5 -2.5t2 -2.5h-1q1 -2 0 -4l5 -5q1 -1 2.5 -2t2.5 -2l2 -2q1 -4 -6.5 -13.5t-16.5 -9.5q-8 -1 -11 4q-1 1 -1.5 4.5t-0.5 4.5l-6 12q-10 5 -12 22q-15 28 -46 82.5
t-32 56.5q-13 24 -46 76q-26 -41 -85.5 -128t-71.5 -104q-1 -1 -4 -4.5t-4 -5.5q-7 -8 -7 -9q-6 -3 -16 4t-11 16t4 12q1 1 4.5 2t4.5 2q8 4 67.5 84t73.5 101q10 18 31 52q-87 136 -118 169l-10 10q-8 7 -9 9q-9 13 4.5 24t24.5 0q3 -3 10 -15q6 -10 112 -174
q103 174 125 221q5 11 6 11q2 9 4 10q9 10 23 0t8 -22z" />
    <glyph glyph-name="y" unicode="y" horiz-adv-x="437" 
d="M363 40q-52 -39 -93 -102q-28 -42 -35.5 -89t9.5 -61q13 -12 36 -15.5t40 -0.5t20 8q15 27 23 260zM153 479q0 -3 -3 -23q-8 -51 -13 -173q-5 -105 2 -151q6 -37 18 -65t23 -39t18 -10q23 5 70.5 65t68.5 136q31 112 25 240q0 13 -2 24q0 3 -1 7.5t-1.5 7.5t-0.5 5v1v1
q1 17 17 18q7 3 13 0q9 -6 10 -22q0 -4 -1 -11t-1 -10q-1 -17 -1.5 -75t-2 -151t-2.5 -158q9 5 14 7q15 4 35 -1q22 -5 29 -16q14 -21 4 -40q-5 -9 -13 -5q-3 2 -22 21q-10 9 -12 9q-7 3 -36 -13q-3 -190 -7 -232l-1 -7q0 -7 -0.5 -10t-2 -10t-3.5 -11.5t-5.5 -10.5
t-8.5 -11t-12 -9q-24 -15 -63 -12.5t-57 23.5q-23 31 -17.5 81t32.5 96q51 86 121 135q2 75 3 153q-16 -62 -42 -114.5t-39 -67.5q-23 -26 -45 -39q-23 -15 -53.5 -12t-44.5 26q-31 51 -32 197q0 61 2.5 136.5t2.5 82.5v22q-2 14 -2 16q2 14 19 14.5t20 -15.5z" />
    <glyph glyph-name="z" unicode="z" horiz-adv-x="405" 
d="M146 215q-18 3 -17 18.5t19 18.5q8 1 40 -3q30 -3 56 -6q128 171 153 217q-1 0 -5 1t-6 1q-28 4 -77 6q-120 3 -198 -14q-10 -2 -16 -4q-11 -4 -14 -5q-18 -1 -21 15.5t14 22.5q5 2 20 2q20 0 70 3t78 3q127 3 128 3q13 1 19 2q3 0 7 0.5t6.5 1t3.5 0.5q8 -1 14.5 -9.5
t5.5 -16.5q12 -9 9 -17q0 -1 -7 -7q-7 -7 -32.5 -40t-72.5 -97t-51 -70q3 -1 7 -1q2 0 38 -4q2 0 5.5 -0.5t5.5 -0.5q16 -4 23.5 -16.5t0.5 -20.5q-6 -7 -27 -3q-4 1 -9.5 3t-11.5 4.5t-9 3.5q-16 6 -33 8q-5 0 -10 1q-44 -55 -155 -183q33 -1 51.5 -1t59.5 1t64 1
q87 1 145 -15q5 -2 15 -10t10 -14q1 -9 -11 -14t-19 1q-2 2 -7 2h-1l1 1q2 2 1 3q-12 16 -51 19q-107 9 -263 -6q-2 0 -9 -0.5t-10 -0.5q-1 -1 -6 -1q-2 -3 -3 -4l-3.5 -3.5l-3.5 -3.5q-6 -6 -7 -6q-5 -1 -11 9t-4 19v3t-0.5 3t0.5 2l2 -1h3t4 2q2 17 17 17h1q27 28 74 79.5
t59 66.5q11 13 29 36q-18 1 -32 0q-3 0 -22.5 -2.5t-23.5 0.5z" />
    <glyph glyph-name="braceleft" unicode="{" horiz-adv-x="330" 
d="M36 280q10 1 27 -5q4 -2 9 -4q33 5 47 35q22 46 30 131q2 15 5.5 76.5t6.5 99.5q3 28 5.5 44.5t12.5 38.5t26 36q15 13 35 17.5t34 3t26 -6.5q6 -2 17.5 -12t13.5 -16q5 -15 -1 -23t-16 -6.5t-15 12.5q-5 9 -9 13q-5 6 -18.5 10.5t-28.5 0.5q-18 -6 -33.5 -26.5
t-19.5 -41.5q-7 -37 -12 -142q-6 -107 -17 -161q-7 -35 -22 -63t-35 -39q53 -38 65 -86q6 -25 7 -54t-2 -60.5t-3 -32.5q0 -2 -0.5 -12.5t-0.5 -18t0.5 -20.5t2 -24.5t4.5 -23.5t8.5 -23.5t13.5 -20.5q17 -21 47.5 -30t52.5 -7.5t27 6.5q3 2 4 7q0 2 -0.5 5.5t-0.5 4.5
q0 9 9 18.5t18 4.5q4 -2 7.5 -11t3.5 -17q0 -9 -9 -21q-5 -7 -28 -14.5t-59 -6.5t-64 20q-23 14 -37 42.5t-17 45.5t-4 30q0 8 2.5 68.5t-0.5 96.5q-4 46 -30 80.5t-52 41.5q-8 3 -19 3h-19q-15 3 -21 12q-11 5 -17 12q-5 6 -6.5 15t2.5 14q10 9 22 3.5t11 -14.5l-3 1l3 -3
q-1 -1 -1 -2q-2 -2 -1 -4q1 1 2 1l1 1v3q2 -2 4 -3q4 1 9 1zM23 282q0 2 -1 3v-2z" />
    <glyph glyph-name="bar" unicode="|" horiz-adv-x="100" 
d="M137 54v1v-1zM137 54q-2 -3 0 -18q2 -16 -1 -18q2 -4 1 -6q-1 -5 -11.5 -9t-19.5 1q-7 4 -7 11q0 2 1.5 5l2.5 5q1 6 3 57t4 115t2 66q3 48 1 198.5t-8 193.5q-2 13 -3 17q-3 12 -2 16q0 18 16.5 18.5t20.5 -17.5q0 -3 -1 -20q-1 -6 0 -163.5t1 -173.5q-1 -8 -2 -73
t-1.5 -124t-0.5 -85z" />
    <glyph glyph-name="braceright" unicode="}" horiz-adv-x="299" 
d="M289 240q-1 0 -6 -1t-8 -1q-17 -5 -41.5 -33t-30.5 -63q-4 -17 -3 -42t2.5 -39.5t4 -33.5t2.5 -24q9 -92 -19 -148q-11 -23 -41.5 -35.5t-55.5 -6.5q-36 9 -59 39q-6 7 -9 18q-4 14 -1 20q6 10 19 8t14 -12q1 -1 1.5 -3t1.5 -3l1 -2q-1 -1 -2.5 -2t-1.5 -2q0 -4 13 -15
t32.5 -18t41.5 3q19 8 29.5 32t12.5 38.5t3 27.5q0 9 -5.5 66t-5.5 96q1 46 21.5 87.5t45.5 64.5q-19 9 -34.5 28.5t-22.5 42.5q-15 51 -15 123q0 6 0.5 29t1 40.5t-0.5 44.5t-3 50q-7 72 -38 91q-25 15 -69 1q-7 -2 -8 -5q-1 -2 -1 -3v-1q-4 -13 -18 -12q-19 2 -16 28
q1 5 7 10.5t13 7.5q28 8 76 -5.5t65 -50.5q8 -18 12 -42t4 -40t-1 -39t0 -26q0 -107 4 -144q8 -68 36 -92q14 -11 33 -14t20 1q4 4 7 11q0 3 1 7.5t1 6.5q3 8 14 13t19 -1q8 -7 3 -26q-1 -5 -12 -18q-5 -8 -19 -15q-1 -13 -15 -17z" />
    <glyph glyph-name="asciitilde" unicode="~" horiz-adv-x="566" 
d="M71 131q-18 1 -32 14q-7 7 -8.5 20.5t3 30.5t19 36t36.5 33q29 19 69.5 24.5t69.5 -4.5q32 -11 62.5 -26.5t59.5 -34.5t31 -21q45 -25 82 -26q27 -1 58 15t48 44q14 26 2.5 57.5t-35.5 46.5q-20 13 -42.5 13.5t-27.5 -5.5q-9 -4 -17 -14q-4 -5 -13 -22q-13 -23 -30 -28
q-9 -2 -12 6q-2 7 2 21.5t10 25.5q6 10 25 24q6 5 16.5 10t30.5 9.5t39 -1.5q33 -9 60 -42.5t27 -69.5q0 -30 -25.5 -58t-56.5 -42q-38 -19 -66 -13q-18 3 -49 18t-78.5 41t-80.5 41q-28 14 -66 13t-68 -17q-26 -13 -42.5 -30t-20 -28t-0.5 -15q2 -4 10 -6q11 -3 19 -4
q32 -5 32 -20q0 -16 -35 -16h-6z" />
    <glyph glyph-name="quoteleft" unicode="&#x2018;" horiz-adv-x="132" 
d="M158 681l-9 -3q-19 -16 -36.5 -54t-16.5 -73q0 -22 9 -34l1 3v4v6v6q3 10 14 17.5t18 -0.5q8 -8 6 -26q-1 -7 -8 -16q-8 -12 -24 -16.5t-22 5.5q-16 38 -6 91.5t36 103.5q2 3 12 12t15 10q13 1 18.5 -7t3 -17t-10.5 -12z" />
    <glyph glyph-name="quoteright" unicode="&#x2019;" horiz-adv-x="136" 
d="M102 679q7 12 16 14q25 5 41.5 -16.5t13.5 -55.5q-4 -57 -43 -121q-5 -8 -19 -14q-17 -8 -25 -3q-11 8 -8 21t14 12q2 0 4 1t2 2q2 -3 3 -2q25 12 36 47q8 26 10 52.5t0 41t-5 13.5q-2 -1 -5 -6q-4 -7 -7 -10q-13 -16 -26.5 -6t-1.5 30z" />
    <glyph glyph-name="quotedblleft" unicode="&#x201c;" horiz-adv-x="254" 
d="M103 669q-18 -11 -20 -12q-22 -22 -28 -54.5t7 -62.5q6 -13 15 -22t16 -12t10 -1q1 0 1 4v5t1 4q2 9 13 14.5t19 -0.5q8 -8 4 -25q-2 -8 -9 -15q-12 -10 -27.5 -12.5t-27.5 6.5q-39 30 -49 91q-7 42 22 91q3 5 17 19q12 12 19 15q26 10 32.5 -5t-15.5 -28zM282 674
q-1 -1 -7.5 -6t-9.5 -8q-21 -24 -31.5 -54.5t-6.5 -57.5q2 -11 6 -19t8 -11t4 -2v2q1 4 1 5q4 4 15 4t17 -7q6 -9 0 -19q-4 -5 -12 -8q-11 -5 -25 -2.5t-19 11.5q-15 30 -12 75t21 92q1 1 13 18q9 13 14 16q21 14 30.5 0.5t-6.5 -29.5z" />
    <glyph glyph-name="quotedblright" unicode="&#x201d;" horiz-adv-x="258" 
d="M59 683q2 12 9 15q21 8 39.5 -7.5t23.5 -44.5q10 -52 -16 -118q-2 -4 -12 -16t-14 -14q-10 -5 -21.5 2.5t-8.5 16.5t11 14q2 1 6 2.5t6 3.5q24 22 27 52q2 23 -1.5 46.5t-7.5 34.5l-4 11v-1q-1 -1 -1 -2q0 -5 -1 -8q-6 -15 -22 -10t-13 23zM211 680q6 11 17 17
q20 12 42 -3t25 -42q4 -33 -12 -69q-27 -59 -70 -95q-6 -4 -16 -3q-14 1 -17 8q-4 9 6 16t19 3q3 -1 5 1t0.5 3.5t-4.5 0.5q12 6 24 20q30 36 38 73q8 40 -6 67q-3 5 -5 3q-5 -3 -9 -10l-7 -12q-9 -10 -22.5 0t-7.5 22zM206 517h-4q0 -1 4 0z" />
    <glyph glyph-name="uni3000" unicode="&#x3000;" horiz-adv-x="1000" 
 />
  </font>
</defs>
</svg>
