<?xml version="1.0" standalone="no"?>
<!DOCTYPE svg PUBLIC "-//W3C//DTD SVG 1.1//EN" "http://www.w3.org/Graphics/SVG/1.1/DTD/svg11.dtd" >
<svg xmlns="http://www.w3.org/2000/svg" xmlns:xlink="http://www.w3.org/1999/xlink" version="1.1">
<metadata>
Created by FontForge 20170731 at Thu Aug  5 15:01:29 2010
 By Aleksey,,,
2010 Iconian Fonts - www.iconian.com
</metadata>
<defs>
<font id="AegisExpandedItalic" horiz-adv-x="1226" >
  <font-face 
    font-family="Aegis Expanded Italic"
    font-weight="400"
    font-style="italic"
    font-stretch="expanded"
    units-per-em="1000"
    panose-1="0 0 0 0 0 0 0 0 0 0"
    ascent="800"
    descent="-200"
    x-height="800"
    cap-height="809"
    bbox="-183 -290 2906 1082"
    underline-thickness="50"
    underline-position="-175"
    slope="-12"
    unicode-range="U+0020-2122"
  />
<missing-glyph horiz-adv-x="500" 
 />
    <glyph glyph-name=".notdef" horiz-adv-x="500" 
 />
    <glyph glyph-name=".null" horiz-adv-x="0" 
 />
    <glyph glyph-name="nonmarkingreturn" horiz-adv-x="500" 
 />
    <glyph glyph-name="space" unicode=" " horiz-adv-x="559" 
 />
    <glyph glyph-name="space" unicode="&#xa0;" horiz-adv-x="559" 
 />
    <glyph glyph-name="FL0021h" unicode="!" horiz-adv-x="298" 
d="M273 800l-158 -542q-2 -8 13 -9.5t39.5 0t54 6.5t55 10.5t43 11t18.5 9.5l152 525h-17q-12 0 -26 -0.5t-25 -0.5h-17zM294 160l-181 -1q-2 0 -7.5 -4t-7.5 -6q-8 -8 -15.5 -22t-14.5 -29.5t-12.5 -31t-8.5 -26.5l-4 -16l-6 -21q36 0 61.5 -0.5t48.5 -0.5t45 0.5t50 2.5
q20 20 31.5 48.5t19.5 54.5l9 32q2 5 2.5 12.5t-10.5 7.5z" />
    <glyph glyph-name="FL0022h" unicode="&#x22;" horiz-adv-x="552" 
d="M467 810q10 0 10 -8q0 -7 -2 -12l-10 -32q-4 -13 -13 -41t-20.5 -58.5t-23 -56.5t-20.5 -36q-29 -2 -46 -6.5t-39 -4.5q-11 0 -21.5 0.5t-21.5 1.5t-24.5 1.5t-31.5 0.5l6 21l5 16q2 9 6.5 28.5t10 43.5t11.5 49t11 45q9 29 17 37q2 2 7 6t8 4zM735 809q10 0 9.5 -7.5
t-2.5 -12.5l-9 -32q-4 -13 -13.5 -41t-21 -58.5t-23 -56.5t-20.5 -36q-14 -1 -25 -3t-20 -3.5t-18.5 -3t-20.5 -1.5t-21.5 0.5t-21.5 1.5t-24.5 1.5t-31.5 0.5l6 21l5 16q2 9 6.5 28.5t9.5 43.5t11 49t12 45q10 31 17 37q2 2 7 6t8 4z" />
    <glyph glyph-name="E" unicode="#" horiz-adv-x="954" 
d="M241 710q20 -4 40 -8.5t35 -13t21.5 -22.5t0.5 -36l-182 -634h53q43 0 103 0.5t119.5 1.5t109.5 1.5t72 0.5q19 0 49.5 2.5t66 8.5t73 16t69 24t54 32.5t29.5 42.5q-14 0 -42 0.5t-65 0.5q-36 0 -75 1t-76 1q-36 0 -64 0.5t-42 0.5q-4 0 -15.5 1t-24 2.5t-24.5 3.5t-17 3
q-6 1 -14 4.5t-7 5.5l57 200l285 30q3 0 13.5 4t13.5 6q10 5 25 15t29 20l24.5 17.5l10.5 7.5l9 30h-372l60 210l15 10q2 1 25 3.5t54.5 5.5t64 6t53.5 5h7q8 0 16.5 0.5t16.5 0.5h12q7 0 19.5 -0.5l12.5 -0.5l92 -100l30 20l49 171q-92 0 -180.5 -2.5l-177 -5t-179 -4
t-187.5 0.5q-6 -3 -22 -10t-33.5 -15t-33 -15t-21.5 -10q-17 -8 -23.5 -13.5t-10.5 -16.5q0 -2 -0.5 -5.5t-0.5 -4.5z" />
    <glyph glyph-name="FL0024h" unicode="$" horiz-adv-x="955" 
d="M743 826l-104 -3l-33 -115h-109q-39 -3 -84.5 -10t-86.5 -21.5t-71.5 -37.5t-40.5 -57q-8 -29 -3.5 -54t19 -46t37.5 -37t52 -26l187 -43l-56 -193q-25 1 -52 1.5t-57 0.5q-14 0 -73 10t-165 36l-37 -131q-1 0 2.5 -1t8 -2.5t10 -2.5t8.5 -1q30 -4 69.5 -7t83 -4.5
t87.5 -2.5t82 -1l-33 -115q12 0 43.5 2.5t64.5 7t59 9.5t28 11l26 90q63 5 126.5 16.5t118 34t94 57.5t54.5 86q12 40 -2 65t-44 40.5t-72 24t-87 14.5q-14 5 -34 8.5t-43 8.5q-1 0 -2 0.5t-2 0.5l59 207q49 -5 95.5 -16.5t73.5 -30.5h4q12 0 26 7.5t30 19t33.5 25.5
t35.5 26l-4 24l-14.5 1.5t-35 2.5t-42 2t-36.5 1h-28h-117l34 119h-15h-51zM470 545q11 36 41 62t75 38l-51 -177q-37 8 -56.5 23t-8.5 54zM734 258q-12 -42 -35 -58t-64 -20l46 162q33 -8 48.5 -27t4.5 -57z" />
    <glyph glyph-name="FL0025h" unicode="%" horiz-adv-x="1309" 
d="M1120 792q9 -4 19 -8.5t18 -8.5l11 -6l-660 -813q-4 -5 -26 -0.5t-48.5 13.5t-51 18t-33.5 13l671 823l87 -25zM196 557q16 58 52.5 98.5t86 66t110 36.5t125.5 11q53 0 97.5 -11t74 -33.5t41 -57.5t-2.5 -83q-17 -59 -51 -102t-82.5 -72t-109 -43t-129.5 -14
q-59 0 -105 12t-75 37t-38 63.5t6 91.5zM380 579q-7 -24 -12 -53t-0.5 -54t21.5 -42t54 -17q36 0 61.5 14.5t42.5 37t28 49.5t19 53q7 27 12.5 54t1 48t-22.5 34.5t-56 13.5t-63 -11.5t-41.5 -30.5t-26.5 -44t-18 -52zM755 207q17 58 53 98.5t86 66t110 36.5t125 11
q53 0 97.5 -11t74.5 -33.5t41.5 -57.5t-2.5 -83q-17 -59 -51.5 -102t-83 -72t-108.5 -43t-129 -14q-59 0 -105 12t-75 37t-38.5 63.5t5.5 91.5zM936 224q-7 -24 -11.5 -53.5t0 -54.5t22 -42t55.5 -17t64 14.5t44 37t29 49.5t19 53q8 28 13 55t0.5 48.5t-23.5 35t-59 13.5
q-38 0 -64 -11.5t-43 -30.5t-27.5 -44.5t-18.5 -52.5z" />
    <glyph glyph-name="FL0026h" unicode="&#x26;" horiz-adv-x="1076" 
d="M175 470q-6 -19 -16 -47.5t-17 -61.5t-7 -70q0 -36 15.5 -71.5t50 -68.5t96.5 -60q9 -7 33 -15t56.5 -16t69 -16.5t69 -15.5t58.5 -13.5t36 -11.5h20h33h36h32q28 0 55 2t44 8q9 3 14.5 6.5t7.5 11.5q3 20 14 65t25.5 99.5t29 110.5t25.5 98h54l13.5 -2t30 -4t30.5 -3
t16 0l51 19q9 4 12 14q2 7 2 15q0 9 -0.5 16.5t-1 13.5t0.5 8q1 5 1 6q0 2 -1.5 4.5t-4.5 8.5t-7 20q-2 3 -4.5 8.5t-3.5 5.5l-167 1q5 26 11.5 51t14.5 48q6 26 16 55.5t37 53.5l35 67q-35 0 -64 1t-55 -0.5t-51.5 -6.5t-53.5 -17q-11 -5 -23.5 -12t-22.5 -14t-16.5 -11.5
t-5.5 -4.5l-20 -25l-55 -186h-14l-309 23q-24 8 -52 8q-54 0 -96 -27.5t-77 -67.5zM686 411q3 0 17 -6l-60 -231l-106 -3q-21 10 -48.5 23.5t-53.5 29t-46 33t-25 35.5q-2 14 1.5 29.5t8.5 31.5t9 31.5t2 29.5z" />
    <glyph glyph-name="FL0027h" unicode="'" horiz-adv-x="284" 
d="M467 810q10 0 10 -8q0 -7 -2 -12l-10 -32q-4 -13 -13 -41t-20.5 -58.5t-23 -56.5t-20.5 -36q-29 -2 -46 -6.5t-39 -4.5q-11 0 -21.5 0.5t-21.5 1.5t-24.5 1.5t-31.5 0.5l6 21l5 16q2 9 6.5 28.5t10 43.5t11.5 49t11 45q9 29 17 37q2 2 7 6t8 4z" />
    <glyph glyph-name="FL0028h" unicode="(" horiz-adv-x="652" 
d="M820 829q-56 -4 -108.5 -11.5t-103 -20t-99.5 -32t-98 -48.5q-97 -57 -166 -143.5t-103 -204.5q-28 -96 -5 -166t82.5 -115t149 -66.5t196.5 -21.5q27 13 42 27t21 25t5 19t-6 9l-34 4q-68 32 -107 70t-56 80t-15.5 87t14.5 90q16 55 48 115.5t81 110t115 82t149 32.5z
" />
    <glyph glyph-name="FL0029h" unicode=")" horiz-adv-x="652" 
d="M308 829q54 -4 102 -11.5t91 -20t81 -32t70 -48.5q64 -57 84 -143.5t-14 -204.5q-28 -96 -90.5 -166t-148 -115t-188 -66.5t-209.5 -21.5q-19 13 -26 27t-7 25t6 19t12 9l36 4q86 32 146.5 70t102 80t66 87t37.5 90q10 37 15 76.5t1 77.5t-17 71.5t-39 59t-65.5 40.5
t-94.5 15z" />
    <glyph glyph-name="FL002Ah" unicode="*" horiz-adv-x="637" 
d="M577 464q-1 -1 -2 -1h10l-2 1l5 2q2 0 0 0.5t0 0.5q20 6 35.5 9.5t28.5 6.5q11 2 20 4t18 5t19.5 8t23.5 14l-28 5q-4 0 -11 2t-14 5t-12.5 5.5t-5.5 4.5l-55 57h109q17 22 26.5 32t17.5 18l2 1q14 15 24 27.5t18 36.5l-29 -14l-2 -1q-4 -2 -11.5 -4.5t-15.5 -5t-15 -4.5
t-9 -2h-95l93 63q-5 19 -5 31q0 13 -1 22q-1 17 -4 29.5t-17 31.5q-4 3 -3 2.5t3 -2.5l-14 -26l-4 -6q0 1 0 -2t-2 -5q-10 -12 -18.5 -23.5t-18.5 -11.5l-51 -35l21 76l-3 -4.5l-1 -1.5h-1l-30 10.5t-22 8.5v1q-18 8 -37.5 14.5t-39.5 9.5q-3 1 -1 -1.5t6 -6.5t9 -8t7 -5
l11 -26l-24 -84l-57 63q5 4 -5 4l5 -4q-4 -2 -5 -2q-11 -4 -27.5 -9.5t-36.5 -10.5q-24 -7 -42.5 -14.5t-13.5 -16.5l36 -8l50 -54h-108q7 -1 7 -4q-14 -17 -20 -26.5t-17 -20.5h-1q-14 -17 -27.5 -34.5t-22.5 -35.5l32 22l37 15h98l-95 -64q2 -1 2 -3q-1 -1 0 -2
q3 -6 5 -20t6 -28q3 -17 6 -33.5t11 -30.5l7 26l18 32l105 71l-30 -105q23 -9 33.5 -14.5t18.5 -10.5v-1q17 -8 30 -13.5t42 -6.5l-11 21l-1 1q-3 6 -6 21t-2 18l22 78l60 -64h-6z" />
    <glyph glyph-name="FL002Bh" unicode="+" horiz-adv-x="629" 
d="M131 330l-2 -4q4 -4 17.5 -7t16.5 -3q4 1 11 3t14.5 4t14 5t9.5 6h126l-36 -126q-1 -1 5 -4.5t10 -5.5q24 -10 34.5 -17.5t19 -12t21.5 -6.5t42 -2q14 0 20.5 8t8.5 18l7 29q-2 4 -4.5 11.5t-2.5 8.5l29 100h138q1 0 6.5 5.5l9.5 9.5q18 22 30.5 33.5t21 21t14.5 21.5
t13 36q4 11 -5 15t-20 4h-6l-32 -8q-5 -2 -15.5 -6t-11.5 -4h-107l31 110q1 1 -7.5 4.5t-13.5 5.5q-17 5 -29 12t-24 13t-26 10.5t-34 4.5h-5q-6 -4 -13 -16t-8 -14q1 -7 -1.5 -20t2.5 -17l-27 -94h-145q-1 0 -6.5 -7.5t-10.5 -12.5q-11 -15 -22.5 -28l-23 -26t-20.5 -27
t-14 -31z" />
    <glyph glyph-name="FL002Ch" unicode="," horiz-adv-x="408" 
d="M405 160q10 0 9.5 -7.5t-2.5 -12.5q-3 -9 -17 -29.5t-34 -46.5t-44 -55t-46 -55t-39.5 -46.5t-25.5 -28.5q-29 -2 -51 -2.5t-45 -0.5t-48 0.5t-61 0.5l6 21l13 17t33 42.5t44 55.5t46.5 58t40.5 49t25 29q2 2 7 6t8 4z" />
    <glyph glyph-name="FL002Dh" unicode="-" horiz-adv-x="647" 
d="M113 269q5 17 19 41.5t31 50t34 49t27 38.5q5 5 11 12.5t7 7.5l406 1q1 0 11.5 4t15.5 6l42 20h6q11 0 20 -4t6 -15q-14 -48 -44 -88.5t-67 -85.5q-5 -4 -10.5 -9.5t-6.5 -5.5l-418 -1q-3 -3 -11 -8.5t-17 -11t-17.5 -10t-12.5 -5.5q-3 0 -16 3t-17 7z" />
    <glyph glyph-name="FL002Eh" unicode="." horiz-adv-x="338" 
d="M335 160q10 0 9.5 -7.5t-2.5 -12.5q-4 -14 -15.5 -32.5t-26.5 -38t-31 -38t-28 -31.5q-29 -2 -51 -2.5t-45 -0.5t-48.5 0.5t-61.5 0.5l6 21q0 1 11.5 17t27.5 37.5l32 43t27 32.5q2 2 7 6t8 4z" />
    <glyph glyph-name="FL002Fh" unicode="/" horiz-adv-x="743" 
d="M867 798l-135 42l-693 -831q6 -3 24 -8.5t41 -12.5t48.5 -13t47.5 -11t38 -6.5t19 1.5l671 810l-11 6q-8 4 -18 8.5t-19 8.5z" />
    <glyph glyph-name="O" unicode="0" 
d="M152 406q-30 -105 -11 -182t76.5 -127t150 -74t209.5 -24q137 0 258 28t218 85.5t166 144.5t103 204q28 96 5.5 166t-82 115t-149.5 67t-197 22q-129 0 -249 -22.5t-219.5 -73t-172 -131.5t-106.5 -198zM488 445q17 60 40 115.5t61 98t95.5 67.5t143.5 25
q60 0 98.5 -13.5t60 -37t28.5 -55.5t4.5 -69t-12.5 -77.5t-21 -80.5q-16 -56 -40.5 -115.5t-64.5 -109.5t-98 -82t-141 -32q-57 0 -93.5 17t-57 46t-27.5 66.5t-5 78t10.5 81.5t18.5 77z" />
    <glyph glyph-name="FL0031h" unicode="1" horiz-adv-x="805" 
d="M313 137l-80 -8q-19 -2 -37 -2.5t-38 -0.5l-116 -105l25 -21q103 5 175.5 7.5t126 3t93.5 0t79 -1.5t82.5 -2t103.5 -1h12q23 29 42.5 66t30.5 77q-1 0 -5.5 -0.5t-9.5 -1l-10 -1t-6 -0.5h-38q-21 -3 -28 -6.5t-12.5 -6t-13.5 -4.5t-30 -2q-10 0 -25.5 0.5t-16.5 0.5
l-5 5q22 85 41 167.5t43 167.5l12 41q8 27 15.5 52.5t13.5 45.5l7 23l26 50q-16 -14 -17 -10.5t3 16.5t8 32.5t-2 37.5t-28 30.5t-69 12.5q-56 0 -93 1.5t-69.5 4t-68.5 4t-90 1.5h-12q-11 -14 -26 -34t-30 -42t-27 -45t-17 -42q1 0 5.5 0.5t9.5 1t9 1t6 0.5q3 0 12.5 3
t20.5 7t20.5 7t12.5 3q20 3 28 5l14 3.5t14.5 2t30.5 0.5q10 0 26 -0.5t17 -0.5l9 -10l-153 -533h-1z" />
    <glyph glyph-name="FL0032h" unicode="2" horiz-adv-x="960" 
d="M571 358q-34 -5 -66 -10.5t-59 -18t-48 -36t-33 -63.5l-23 -97q21 0 66 1t98.5 1.5t108 1.5t96.5 1q14 0 79.5 12t188.5 46l-47 -167l-6.5 -4t-14.5 -8.5t-16 -8t-12 -3.5h-846l74 250q15 51 45.5 83.5t71 52.5t88.5 30.5t97 18.5q23 9 54 16t66.5 13t75 13t80.5 16
q23 6 37.5 12.5t24.5 17t16.5 27.5t14.5 44q9 33 10.5 59.5t-8 44.5t-31.5 28t-60 10q-7 0 -37.5 -2t-72 -9.5t-87 -21.5t-83.5 -38v1q-12 -2 -22 7.5t-19.5 24.5t-18.5 33.5t-18 34.5l20 30q0 1 15.5 2.5t36.5 3t43.5 3t36.5 1.5h30h101h103q16 0 27 -0.5t21 -0.5
q11 0 22 -0.5t27 -0.5h44q37 -5 78.5 -14t73 -27t47 -47.5t2.5 -74.5q-11 -37 -31.5 -69t-49 -59t-62 -47.5t-69.5 -34.5z" />
    <glyph glyph-name="FL0033h" unicode="3" horiz-adv-x="974" 
d="M942 15q1 1 0.5 2.5t0.5 2.5q-2 6 -7 22t-12 33.5t-13 33t-9 21.5q-2 2 -8.5 10t-9.5 10l-255 176l465 331l6 20q0 1 -7.5 12.5t-18 27.5t-22.5 32.5t-19 27.5q-3 4 -13.5 15.5t-14.5 14.5q-21 0 -64 -0.5t-97 -0.5h-115h-114q-55 0 -98 0.5t-64 0.5q-7 0 -23.5 1
t-35 2.5t-35 3.5t-23.5 3q-3 -1 -8 -4.5t-7 -5.5l-1 -2t-1 -3v-5q4 -12 12 -25t18 -24.5t20.5 -22t19.5 -18.5q11 0 35.5 -1t54.5 -3t63.5 -4.5t63.5 -4.5t54 -4t35 -3q4 0 16 -1t25.5 -2.5t25 -3.5t14.5 -3q-21 -16 -57.5 -39t-79.5 -48.5t-87.5 -52t-80.5 -48.5t-60 -38
t-25 -21q-1 -2 -1 -6v-4q28 -34 60.5 -64.5t66.5 -60.5t66.5 -60.5t59.5 -64.5q-38 -10 -77 -14.5t-78 -6t-77 -1t-74 0.5q-65 0 -125 6t-125 6q-11 -39 9.5 -69t57 -50.5t81.5 -31t83 -10.5h612q1 0 6.5 4t8.5 6l1 2t1 3z" />
    <glyph glyph-name="FL0034h" unicode="4" horiz-adv-x="1062" 
d="M128 320q105 40 186 85t155 93.5t151 99.5t175 105q19 11 38.5 25.5t39.5 29t40 27.5t40 21q12 1 36.5 2.5t52.5 1.5t54 -2t38 -8q8 -3 11 -7t1 -12q-5 -14 -15.5 -42l-24 -64t-29 -78t-30 -83.5t-28 -79.5t-22.5 -67h54q1 0 12 6t15 4l38 -20q7 -4 7 -11t-3.5 -14.5
t-8 -14t-5.5 -9.5q-1 -5 -2 -6.5t-4 -4t-9.5 -8.5t-18.5 -21q-5 -4 -10 -9.5t-6 -5.5l-98 -1q-21 -55 -33 -103q-9 -27 -10.5 -62.5t6.5 -61.5q1 -2 4.5 -7.5t7.5 -11.5t7.5 -11t3.5 -6l-2.5 -3t-3.5 -5q-5 -6 -11 -10.5t-17 -4.5q-57 13 -111 25.5t-102 33.5q-8 5 -22 12
t-27 13t-22.5 10.5t-8.5 4.5l-5 27l61 160h-14l-358 -23q-27 -7 -55 -7q-53 0 -79.5 28.5t-38.5 69.5zM708 369q6 0 20 7l93 209l-337 -217z" />
    <glyph glyph-name="FL0035h" unicode="5" horiz-adv-x="958" 
d="M590 363q31 -5 60.5 -11t50.5 -19.5t29.5 -37.5t-3.5 -65q-15 -54 -41.5 -75t-72 -24.5t-114.5 2t-170 5.5q-14 0 -73.5 12t-162.5 46l-49 -167q0 -1 11.5 -5t17.5 -5q34 -6 81.5 -10t98.5 -6t100.5 -3t88.5 -1q46 0 100.5 3t110.5 12.5t110.5 27t100.5 46t80.5 69.5
t50.5 98q15 51 1.5 85.5t-44.5 57t-73.5 35.5t-87.5 21q-18 9 -43.5 13.5t-56.5 8.5t-65 8.5t-69 13.5q-20 6 -34.5 12.5t-22 17.5t-8 28t7.5 44l35 130l154 1q7 0 30.5 -0.5t53.5 -6t61.5 -18t55.5 -36.5v1q11 -2 26.5 7.5t34 24.5t38 33.5t37.5 34.5l-2 30q0 1 -14.5 2.5
t-34.5 3t-41.5 3t-35.5 1.5h-30h-60h-103h-380l-56 -194q-11 -37 -6.5 -64t19.5 -47.5t38.5 -36t51.5 -29.5z" />
    <glyph glyph-name="FL0036h" unicode="6" horiz-adv-x="989" 
d="M671 689q-44 -20 -80 -39.5t-64 -43.5t-48 -55t-32 -74q144 0 234.5 -5.5t144 -14.5t77.5 -19.5t35 -19.5q15 -14 28.5 -28.5t23 -27.5t15 -22.5t4.5 -13.5q0 -2 -3 -2q16 -54 8 -98.5t-28 -89.5q-10 -23 -22.5 -44t-41.5 -39.5t-81.5 -34.5t-142.5 -29q-48 -1 -75.5 -2
t-44.5 -1q-16 0 -26 0.5t-24.5 2t-38.5 4.5t-67 7q-142 29 -196 98q-26 35 -45 74t-27.5 83t-5.5 94.5t20 109.5q43 96 116.5 163t160.5 109t180.5 61t176.5 19h301l-55 -146q-84 4 -138.5 12t-92 14.5t-64.5 9t-57 -4.5zM834 254l-17.5 28t-18 21t-28.5 16t-49 13h-93h-64
h-63h-93q-6 -44 3 -85.5t35 -73.5t70.5 -51t107.5 -18l139 7q12 25 25 36t23.5 22t17 28.5t5.5 56.5z" />
    <glyph glyph-name="FL0037h" unicode="7" horiz-adv-x="1006" 
d="M42 20l6 -20l266 -8l879 787l9 30h-840q-4 0 -20.5 -21t-36 -49t-36.5 -56.5t-21 -43.5h41q53 42 118 57.5t132 17.5t131 -3.5t115 -5.5q0 -1 1 -2.5t0 -3.5q-2 -2 -8 -10t-9 -10z" />
    <glyph glyph-name="FL0038h" unicode="8" horiz-adv-x="1058" 
d="M1027 17v5l-128 448l274 185l6 20q0 1 -7.5 12.5t-17.5 27.5t-21 32.5t-18 27.5q-2 4 -12 15.5t-14 14.5q-10 0 -18 0.5t-19 0.5t-27.5 0.5t-42.5 0.5h-219q-17 0 -30.5 -0.5t-27.5 -0.5h-158h-41q-16 0 -26.5 0.5t-18.5 0.5h-16l-9 -6t-13 -8.5t-13 -9t-8 -6.5
q-14 -11 -34.5 -27.5t-40 -32.5t-33.5 -27.5t-14 -12.5l-6 -20l161 -192q-83 -84 -142 -148t-100 -111.5t-66.5 -80t-42 -54.5t-25.5 -34.5t-17 -19.5q0 -2 -3 -5v-5q2 -2 5 -6t4 -4l555 1h9q7 0 11 1l387 3q1 0 6.5 4t7.5 6l1.5 2t1.5 3zM640 377q26 -15 41 -38t24.5 -49.5
t17 -54.5t18.5 -53q-38 -8 -82 -12.5t-88 -4.5q-43 0 -82.5 4t-69.5 14q25 26 50.5 53.5t52 53.5t55.5 48.5t63 38.5zM925 678q-17 -12 -43.5 -29t-59 -36.5t-68 -41t-68.5 -41.5q-22 20 -44.5 40.5t-43 40t-37.5 37t-27 29.5q2 0 16.5 1.5t34.5 2.5t43 2.5t43 3t34.5 2
t16.5 0.5z" />
    <glyph glyph-name="FL0039h" unicode="9" horiz-adv-x="937" 
d="M638 286l-73 -281h10q43 0 69.5 -1.5t48.5 -2t47.5 1t67.5 7.5q4 0 10.5 1.5t12.5 3.5t11 3.5l5 1.5l186 650q5 17 10 26.5t14 18.5t24 20t40 32l-3 30q0 2 -24.5 7.5t-56.5 5.5h-33q-30 0 -68.5 0.5t-78.5 0.5h-114q-35 0 -74.5 -0.5t-74.5 -0.5h-49q-44 -5 -95.5 -14
t-97.5 -27t-81.5 -47.5t-48.5 -74.5q-12 -43 -5 -89t27.5 -88t52 -75t67.5 -49q64 -30 131.5 -42t142.5 -18zM765 740l-104 -362q-42 3 -76 22.5t-55 50t-27.5 69.5t5.5 80q19 66 78.5 103.5t142.5 37.5q5 0 18.5 -0.5t17.5 -0.5z" />
    <glyph glyph-name="FL003Ah" unicode=":" horiz-adv-x="301" 
d="M298 160q10 0 9.5 -7.5t-2.5 -12.5l-9 -32q-8 -26 -19 -54.5t-31 -48.5q-28 -2 -50 -2.5t-45 -0.5t-48.5 0.5t-61.5 0.5l6 21l4 16q3 11 8.5 26.5t12 31t14.5 29.5t16 22q2 2 7 6t8 4zM393 504q11 0 10.5 -7.5t-2.5 -12.5l-9 -32q-8 -26 -19.5 -54.5t-31.5 -48.5
q-29 -2 -51 -2.5t-45 -0.5t-48 0.5t-61 0.5l6 21l4 16q3 11 8 26.5t12 31t14.5 29.5t15.5 22q2 2 7.5 6t7.5 4z" />
    <glyph glyph-name="FL003Bh" unicode=";" horiz-adv-x="368" 
d="M278 503q-2 0 -7.5 -4t-7.5 -6q-8 -8 -15.5 -22t-14.5 -29.5t-12 -31t-8 -26.5l-4 -16l-6 -21q36 0 61.5 -0.5t48.5 -0.5t44.5 0.5t50.5 2.5q20 20 31.5 48.5t19.5 54.5l9 32q2 5 2.5 12.5t-9.5 7.5zM365 161l-181 -1q-3 0 -8 -4t-7 -6q-7 -8 -21.5 -28.5t-32 -47.5
t-36.5 -56t-34.5 -53.5t-25.5 -41l-10 -16.5l-6 -21q36 0 61.5 -0.5t48.5 -0.5t45 0.5t51 2.5q7 9 21.5 28.5t31.5 44.5t35.5 53t34 53t26.5 45t14 29q2 5 2.5 12.5t-9.5 7.5z" />
    <glyph glyph-name="FL003Ch" unicode="&#x3c;" horiz-adv-x="757" 
d="M358 76q13 -17 28.5 -33t38.5 -27q25 -12 57.5 -21.5t68 -15.5t72 -9.5t70.5 -3.5h5q4 2 9 9.5t9 10.5l1 2l2 4v4l-82 90l-185 327l333 233l49 170q1 2 -6 9.5t-12 10.5l-2.5 0.5t-3.5 0.5t-3.5 -0.5l-2.5 -0.5l-422 -292l-238 -168z" />
    <glyph glyph-name="FL003Dh" unicode="=" horiz-adv-x="641" 
d="M148 382l-2 -4q2 -2 7 -3.5t10.5 -3t10.5 -2.5t6 -1q4 1 12.5 5.5t17.5 10t17 11t11 8.5l418 1q1 0 6.5 5.5l9.5 9.5q18 22 31.5 35t24 25t18.5 26t15 38q3 11 -6 15t-20 4h-6l-42 -20l-15 -6t-11 -4l-407 -1q-1 0 -6.5 -7.5t-10.5 -12.5q-11 -15 -24.5 -30.5t-26 -32
t-23.5 -33t-15 -33.5zM85 170l-1 -4q3 -4 16.5 -7t16.5 -3q4 1 12.5 5.5t17.5 10t17 11t11 8.5l418 1q1 0 6.5 5.5l9.5 9.5q18 22 31.5 35t24 25t18 26t14.5 38q3 11 -5.5 15t-20.5 4h-6l-41 -20q-5 -2 -15.5 -6t-11.5 -4l-406 -1q-2 0 -7.5 -7.5t-9.5 -12.5
q-11 -15 -24 -30.5t-26 -32t-23.5 -33t-15.5 -33.5z" />
    <glyph glyph-name="FL003Eh" unicode="&#x3e;" horiz-adv-x="757" 
d="M443 76q-23 -17 -47.5 -33t-53.5 -27q-33 -12 -71 -21.5t-77 -15.5t-77.5 -9.5t-72.5 -3.5h-5q-2 2 -3 9.5t-3 10.5v2t1 4q0 1 1 2.5l1 1.5l134 90l372 327l-200 233l49 170q1 2 12 9.5t18 10.5l2.5 0.5t3.5 0.5t3.5 -0.5l2.5 -0.5l255 -292l141 -168z" />
    <glyph glyph-name="FL003Fh" unicode="?" horiz-adv-x="846" 
d="M506 486q6 4 30.5 9t56.5 15t66 27.5t58 46.5q26 31 27 50t-14.5 28.5t-45 12.5t-64 2t-71 -3t-67.5 -2q-14 0 -80 -12t-189 -46l47 167l4 1.5t10 3.5t12 3.5t9 1.5q37 6 86.5 10t101.5 6t102.5 3t89.5 1q69 0 133 -7.5t108 -33t61.5 -76t-7.5 -135.5q-14 -50 -42.5 -79
t-66.5 -45.5t-83 -24.5t-92 -15.5t-93.5 -19t-88.5 -34.5q-15 -4 -32.5 -8.5t-31.5 -11.5t-22.5 -17t-4.5 -23q6 -18 -16 -29l-218 3q10 36 18 58.5t20.5 37.5t32.5 26t56 25zM369 155q10 0 10 -8q0 -7 -2 -12l-9 -32q-8 -26 -19 -54.5t-31 -48.5q-29 -2 -57.5 -1t-51.5 1
t-49 0.5t-62 0.5l6 21l5 16q3 11 8 26.5t12 31t15 29.5t16 22q2 2 7 6t8 4z" />
    <glyph glyph-name="FL0040h" unicode="@" horiz-adv-x="1055" 
d="M401 272q29 24 48 45.5t35.5 43t34 45t43.5 51.5v-1l69 76q5 8 8.5 13t8.5 12h-1q12 18 37.5 30.5t56.5 23.5q13 5 29 9.5t31 4.5q17 0 17 -11v1l91 -277q21 30 47.5 73.5t45.5 89.5t24 90.5t-18 76.5q-16 16 -43.5 24t-58.5 12t-61.5 5t-51.5 3l-118 -4q-56 0 -100 -15
t-79 -40t-61 -59t-46 -71.5t-34 -77t-25 -76.5q-13 -45 0 -83t40 -69t63.5 -56.5t69.5 -46.5l16 -6q-5 2 -9.5 3t-6.5 3l21 -7q21 -4 36.5 -5.5t32 -1t36 2.5t49 4.5t72 5t104.5 4.5l-36 -117h-253q-107 0 -196.5 21.5t-149 66.5t-82.5 115t5 166q34 118 103 204.5
t166 143.5q49 29 98 48.5t99.5 32t103 20t108.5 11.5l101 1q68 -3 118.5 -18.5t84.5 -35t52.5 -38t22.5 -26.5q12 -31 0.5 -78.5t-36.5 -101t-57.5 -106t-61.5 -94t-49.5 -65.5t-21.5 -20l-5 -6q-11 -9 -18 -9h-179q-14 0 -14.5 12t-2.5 29q-1 21 -12 35t-22 14l-30 -2
q-5 0 -10 -0.5t-12 -0.5q-35 -2 -61.5 -0.5t-38.5 -11.5l-67 -58l-13 -9q-5 -1 -8 -1h-5h-10h-14q-3 0 -4.5 0.5t-4.5 0.5h-5q-5 0 -12 2t-13.5 4.5t-11 5t-4.5 3.5zM590 390l115 -3l-20 82z" />
    <glyph glyph-name="FL0041h" unicode="A" horiz-adv-x="1261" 
d="M45 32l-8 -30q0 -1 7.5 -2.5t18.5 -3t23 -3t20 -1.5h8q8 0 17 -0.5t17 -0.5h15q7 0 22.5 0.5t16.5 0.5l15 10l141 160q18 19 60 30.5t92.5 17.5t101.5 8.5t87 4.5l63 3q21 1 33 -15t18 -41t7.5 -54.5t3.5 -54.5t5 -42t12 -17h372q3 0 7 4t7 6l1.5 2t1.5 3q1 6 -2 9.5
t-8 6t-11 4.5t-9 5q-34 29 -56 70t-33 80l-170 620q-2 8 -7 9.5t-13 1.5q-12 0 -28 -3.5t-32.5 -8t-31.5 -10t-26 -9.5q-37 -12 -59.5 -28.5t-39 -37t-31 -44.5t-36.5 -50q-11 -12 -32 -36t-43.5 -49.5t-41.5 -47t-25 -27.5q-105 -112 -215.5 -224.5t-234.5 -215.5zM504 337
q0 1 1 3l1 2l189 213l12 -13l50 -220h-245q-1 0 -5 4t-4 6v2t1 3z" />
    <glyph glyph-name="FL0042h" unicode="B" horiz-adv-x="1045" 
d="M257 770q21 -7 40.5 -14.5t33 -18t19 -26.5t-1.5 -41l-186 -650q-1 -1 12 -5t21 -5q38 -6 70 -8.5t64.5 -3t67.5 0t78 0.5q51 0 111.5 3t122.5 12.5t122 27t110.5 46t87.5 69.5t53 98q15 51 0.5 83.5t-47.5 52.5t-80 30.5t-97 18.5l3 10q45 16 91 33t85 39t68.5 52
t41.5 73q13 45 -6 74.5t-55 47.5t-82 27t-88 14h-49q-35 0 -73.5 0.5t-73.5 0.5h-49h-65q-40 0 -79.5 -0.5t-68.5 -0.5h-34q-16 0 -40.5 -1.5t-48 -3t-41 -3t-17.5 -2.5zM557 394q52 0 100 -5.5t82 -23t48 -49.5t-1 -86q-9 -31 -27 -60t-43.5 -51.5t-58.5 -36t-73 -13.5
q-12 0 -32 2t-38 7.5t-29.5 15.5t-6.5 26zM656 740q4 0 17.5 0.5t18.5 0.5q83 0 121.5 -37.5t19.5 -103.5q-12 -41 -37 -67t-59 -41t-75.5 -22t-85.5 -10z" />
    <glyph glyph-name="FL0043h" unicode="C" horiz-adv-x="1068" 
d="M925 752l140 -88l110 8q69 66 77 95q5 17 -2 31t-21 31h-409q-56 -4 -108.5 -11.5t-103 -20t-99.5 -32t-98 -48.5q-97 -57 -166 -143.5t-103 -204.5q-28 -96 -5 -166t82.5 -115t149 -66.5t196.5 -21.5h426l35 117q-185 -6 -311.5 -14t-190.5 4l-21 7q-33 21 -46 53
t-13 71q0 40 10.5 84.5t23.5 89.5q16 55 40.5 115t64.5 110t98 82t141 32zM524 107l-21 7q2 -2 7.5 -3.5t13.5 -3.5z" />
    <glyph glyph-name="FL0044h" unicode="D" horiz-adv-x="1184" 
d="M85 0l196 684q-18 34 -24 52t-1 29t20 20.5t39 26.5h517q53 -4 102 -11.5t92 -20t80.5 -32t68.5 -48.5q33 -29 56 -62t33.5 -73.5t8.5 -89t-19 -106.5q-28 -96 -90.5 -166t-148 -115t-187.5 -66.5t-209 -21.5h-534zM575 735l-189 -658q152 1 214 1.5t36 -0.5h23
q13 1 84 30q46 21 78 54t54.5 73.5t38 86t28.5 90.5q11 37 19 75t8.5 74t-7.5 67.5t-29 55t-57.5 37t-91.5 13.5z" />
    <glyph glyph-name="three" unicode="E" horiz-adv-x="974" 
d="M40 15q1 1 1.5 2.5t1.5 2.5q6 6 20.5 22t31 33.5t31 33t20.5 21.5q4 2 14.5 10t15.5 10l355 176l-275 331l6 20q0 1 14.5 12.5t34.5 27.5t41 32.5l35 27.5q2 2 8.5 6.5t13.5 9t13 8.5l9 6q21 0 64 -0.5t97 -0.5h115h114q56 0 99 0.5t63 0.5q7 0 24.5 1t37 2.5t36.5 3.5
t25 3q3 -1 6 -4.5t3 -5.5l0.5 -2t0.5 -3t-1.5 -3l-1.5 -2q-11 -12 -26.5 -25t-32.5 -24.5t-33.5 -22t-29.5 -18.5q-11 0 -36 -1t-56 -3t-66 -4.5t-66.5 -4.5t-56.5 -4t-37 -3q-4 0 -16.5 -1t-26.5 -2.5t-27 -3.5t-17 -3q12 -16 35.5 -39t51.5 -48.5t57.5 -52t53 -48.5
t38 -38t13.5 -21q-1 -2 -2.5 -5.5t-3.5 -4.5q-47 -34 -97 -64.5t-100.5 -60.5t-100.5 -60.5t-97 -64.5q32 -10 68.5 -14.5t74.5 -6t76.5 -1t74.5 0.5q66 0 128.5 6t127.5 6q-11 -39 -49 -69t-86 -50.5t-99 -31t-89 -10.5h-612q-1 0 -4 4t-5 6v5z" />
    <glyph glyph-name="FL0046h" unicode="F" horiz-adv-x="913" 
d="M241 710q0 1 0.5 4.5t0.5 5.5q4 11 10.5 16.5t23.5 13.5q5 3 20.5 10t33.5 15t34 15t22 10q97 -2 187.5 -0.5t179 4l177 5t180.5 2.5l-49 -171l-30 -20l-92 100l-12.5 0.5t-19.5 0.5h-12q-8 0 -16.5 -0.5t-16.5 -0.5h-7q-21 -2 -53.5 -5t-64 -6t-54.5 -5.5t-25 -3.5
l-15 -10l-60 -210h372l-9 -30l-10.5 -7.5l-24.5 -17.5t-29 -20t-25 -15q-3 -2 -13.5 -6t-13.5 -4l-285 -30l-99 -350l-290 -4l182 634q6 22 -0.5 36t-21.5 22.5t-35 13t-40 8.5z" />
    <glyph glyph-name="FL0047h" unicode="G" horiz-adv-x="1116" 
d="M829 423h372l-8 -30q-1 0 -5.5 -7.5t-11 -17t-15.5 -19t-19 -15.5q-1 -1 -9.5 -2t-18.5 -2.5t-19 -3t-12 -2.5q6 -40 0 -90t-20 -98t-33 -85t-39 -52l-569 1q-142 29 -196 98q-26 35 -45 74t-27.5 83t-5.5 94.5t20 109.5q43 96 116.5 163t160.5 109t180.5 61t176.5 19
h378l-25 -88q-339 15 -453 -13l-25 -7q-45 -21 -77 -51.5t-54.5 -67.5t-38 -80t-28.5 -88q-16 -56 -25.5 -115.5t1.5 -109.5t51 -82t123 -32l228 1q12 25 24.5 49.5t22 51.5t15 58t4.5 70l-131 -14z" />
    <glyph glyph-name="FL0048h" unicode="H" horiz-adv-x="1252" 
d="M137 10l189 660q8 28 -2.5 44.5t-26 26t-28.5 16.5t-10 16q2 7 5.5 16t14.5 11q12 1 37.5 2t57.5 2t68 2t68 2t58 1.5t38 0.5h15q11 0 23 0.5t23 0.5h15q-9 -30 -22 -61t-27.5 -61.5t-27.5 -61.5t-22 -62l-4 -13q-2 -9 -4.5 -19.5t-5.5 -19.5l-4 -13q3 -10 18 -16.5
t36.5 -10t47.5 -4.5t51 -1q26 0 48 0.5t36 0.5h17q11 0 22 0.5t19 0.5h9q14 0 36.5 1.5t44 3t37.5 3t17 2.5l15 10l77 270q1 3 8 6.5t15 6.5t14 5t5 2q12 2 44 6t68 9t68 9t44 6q2 0 7 0.5t8 0.5q14 0 22 -7t4 -18q-25 -88 -56.5 -175.5t-56.5 -175.5l-10 -35
q-8 -25 -15 -52.5t-14 -52.5l-10 -35q-1 -3 -2 -10t-2 -15t-1 -15t2 -10q1 -2 5.5 -6t9.5 -9t9 -9.5t4 -5.5q-1 -9 -14 -29t-30 -41t-35.5 -38.5t-30.5 -21.5q-11 -3 -38 -10t-58 -15t-59 -15t-39 -10l-12 -3t-16 -3.5t-15 -2.5t-8 -1q-6 0 -17 4t-10 6l112 391l-472 -35
l-91 -316l-14 -10q-63 -3 -132.5 -15t-131.5 -25z" />
    <glyph glyph-name="FL0049h" unicode="I" horiz-adv-x="968" 
d="M371 128h1l161 542l-9 10q-1 0 -17 0.5t-26 0.5q-44 0 -82.5 -3t-79.5 -9q-3 0 -12.5 -3t-20.5 -7t-20.5 -7t-12.5 -3q-1 0 -5.5 -0.5t-9.5 -1l-10 -1t-6 -0.5q6 19 18 42t27 45t30 42t26 34h12q54 0 101.5 -1.5t94.5 -3.5t95.5 -3.5t104.5 -1.5q60 0 112.5 1.5t104 3.5
t104 3.5t112.5 1.5l-6 -20l-134 -90q-9 0 -24.5 -1t-32 -2.5t-32 -3t-24.5 -2.5t-21.5 -2.5t-24.5 -3t-20.5 -3l-8.5 -1.5l-26 -50l-7 -23q-6 -20 -13.5 -45.5t-15.5 -52.5l-12 -41q-24 -85 -43 -167.5t-41 -167.5l5 -5q1 0 16.5 -0.5t25.5 -0.5q45 0 79 2t76 8q3 0 12.5 3
t20.5 7t20.5 7t12.5 3q1 0 6 0.5l10 1t9.5 1t5.5 0.5q-6 -20 -18 -42.5t-27 -44.5t-30 -42t-26 -34h-12q-60 0 -116 1.5t-114 3t-120 2.5t-134 1t-157 -1.5t-188 -6.5l6 20l134 90q10 0 26 1.5t34 3t34.5 3.5t26.5 3l20 2.5l24 3t21 3t10 1.5z" />
    <glyph glyph-name="FL004Ah" unicode="J" horiz-adv-x="964" 
d="M760 755q18 -4 34 -10t26.5 -15.5t14.5 -23t-1 -31.5l-149 -520q-20 -17 -59 -23.5t-93 -6.5t-117 4.5t-130 10.5q-7 0 -18.5 4t-32.5 12.5t-54 21t-84 29.5l-53 -178q0 -1 11.5 -5t17.5 -5q34 -6 81.5 -10t98.5 -6t100.5 -3t88.5 -1q44 0 94.5 2.5t103 11t104 23
t96.5 39t81.5 59t58.5 82.5q2 2 3.5 3t1.5 2l174 585h-17q-12 0 -25.5 -0.5t-25.5 -0.5h-16q-17 0 -56.5 -1t-83.5 -2.5t-83.5 -3.5t-55.5 -3q-19 3 -25.5 -6.5t-8.5 -18.5q-1 -2 -2 -7.5t0 -7.5z" />
    <glyph glyph-name="FL004Bh" unicode="K" horiz-adv-x="1262" 
d="M851 31q-6 6 -20.5 21.5t-30.5 32.5t-30 33t-20 23q-7 9 -20.5 28t-30 43.5t-35 52t-35 52t-29 44.5t-18.5 30h-48l-97 -340l-15 -10l-13.5 -2.5t-35.5 -6t-49.5 -8t-55.5 -9t-54 -8.5t-44 -6q-1 0 -5.5 -0.5t-7.5 -0.5q-6 0 -14 1.5t-6 9.5l192 670q9 29 -2 45
t-26.5 25.5t-29 16t-10.5 17.5q3 9 10 19t24 7q13 1 39.5 2t60 2t70 2t70 2t59.5 1.5t39 0.5h22q10 0 17.5 -2t4.5 -13l-1 -5q-25 -43 -41.5 -84t-29 -82t-23 -83t-23.5 -87q33 0 65 10t61.5 26.5t56.5 37t51 42.5q22 20 54.5 46.5t66.5 57t64.5 63t48.5 63.5h264
q26 0 37.5 -3.5t6.5 -21.5q0 -1 -19 -10t-50 -22.5t-70.5 -32t-82 -39t-84.5 -42.5t-77 -43t-60 -40.5t-33 -35.5q-2 -3 1.5 -10.5t5.5 -9.5q8 -14 26 -42t41 -62.5t48.5 -72.5t49 -72t42.5 -61t28 -40q6 -7 20 -23t30 -33t30.5 -32.5t20.5 -21.5q2 2 7 5.5t8 4.5l2.5 0.5
t3.5 0.5q3 0 4.5 -0.5l1.5 -0.5q2 -2 3 -9.5t3 -10.5l-2 -5l-1 -5q-2 -4 -9 -15.5t-12 -14.5h-10q-6 0 -13.5 -0.5t-14.5 -0.5h-10q-39 0 -80.5 1t-83 5.5t-79.5 12.5t-69 22z" />
    <glyph glyph-name="FL004Ch" unicode="L" horiz-adv-x="950" 
d="M335 773q-2 -5 1.5 -16t9 -22.5t12 -21.5t10.5 -14l-151 -527q-9 -31 -28 -42.5t-42 -17.5t-47 -12.5t-43 -27.5q17 -28 51.5 -47.5t69.5 -32.5q43 3 79.5 5t69.5 3.5t65 2t65 0.5h98q91 0 177.5 -6t177.5 -6q3 10 9.5 30.5t12.5 45t11 50.5t5 47t-6.5 34.5t-22.5 13.5
q-26 0 -49 -20.5t-46.5 -45t-48 -45t-52.5 -20.5q-5 0 -14.5 0.5t-12.5 0.5q-23 1 -56.5 4.5t-65 7l-54 6t-23.5 2.5l-9 10l146 510l64 140q3 6 14.5 13.5t19.5 14t5 12.5t-28 11t-79 7.5t-149 2.5q-25 0 -49.5 -2t-44.5 -7.5t-34 -15.5t-18 -25z" />
    <glyph glyph-name="FL004Dh" unicode="M" horiz-adv-x="1501" 
d="M1097 777l16 84q-34 0 -68 -4.5t-68.5 -10.5t-69 -11.5t-68.5 -7.5l-15 -10l-3 -40q-66 -8 -128.5 -21t-119.5 -36.5t-106.5 -60.5t-89.5 -92q-3 -3 -13 -23t-24.5 -51t-32.5 -69.5t-36.5 -79t-36 -79t-31.5 -69.5t-23.5 -51.5t-11.5 -23.5t-7 -8.5t-10.5 -11.5
t-10.5 -11.5t-8 -8.5q-9 -8 -22.5 -13.5t-27 -10.5t-24 -10.5t-13.5 -14.5q-6 -21 18 -21q31 0 75 1.5t89.5 8.5t87.5 21t69 39q16 30 39 87t52.5 125t64.5 138.5t75.5 128.5t86 95t94.5 37l-207 -692h10t14.5 0.5t13.5 0.5h10q12 0 45.5 1t69.5 2q19 1 36.5 2t34.5 2
q33 2 45.5 3t14.5 9l4 14l24 83l30 105l80 281l31 106l23 83q3 0 11.5 1t18 2t18 2t11.5 0q35 -7 49.5 -37t15.5 -75t-8 -101t-22 -115t-25.5 -118t-18 -108.5t-0.5 -87t28 -54.5h16q11 0 23.5 -0.5t23.5 -0.5h15h58q19 0 37 0.5t37.5 2t42 3.5t50.5 5q4 2 10 10t8 10l1 5
l2 5q-35 8 -49.5 36t-16 69t6 92.5t18 106t19.5 109.5t10 103.5t-10.5 87.5t-41.5 62q-28 21 -66.5 33.5t-81 19.5t-86.5 10.5t-82 6.5z" />
    <glyph glyph-name="N" unicode="N" horiz-adv-x="1315" 
d="M205 171q-5 -17 -7.5 -46t1 -57t16 -48.5t38.5 -20.5q13 0 49 3.5t75.5 10.5t71 17t35.5 24q28 97 48.5 190.5t48.5 190.5l13 45q9 32 19.5 67.5t19.5 67.5l13 45q-3 18 6.5 28t24 14.5t30.5 5.5t26 2t41 3t68 3.5t71 2.5t50 1h27q14 0 31.5 -0.5t32.5 -0.5
q16 0 28.5 -0.5t18.5 -0.5l-203 -708l15 -10l287 40q3 0 8 4t7 6l1 4l2 6q4 35 3.5 64.5t9.5 65.5l135 470q12 42 33.5 61.5t44 31.5t42 23.5t26.5 36.5h-930l-179 2q-12 0 -36.5 -8t-50 -20t-46 -26t-23.5 -26q-2 -8 17 -13t42 -12t40.5 -18.5t11.5 -31.5l-129 -450
q-13 -9 -17 -18.5t-7 -20.5z" />
    <glyph glyph-name="zero" unicode="O" 
d="M150 398q34 117 106.5 198t172 131.5t219.5 73t249 22.5q107 0 196.5 -22t149 -67t82 -115t-4.5 -166q-34 -117 -102.5 -203t-165 -141.5t-217 -82.5t-257.5 -27q-117 0 -210 23t-151.5 71.5t-77.5 124t11 180.5zM484 432q-10 -36 -18.5 -76t-10 -79t6 -75t29 -63.5
t58 -43.5t94.5 -16q85 0 145 33.5t102 85t68 113t42 117.5q16 57 21 113.5t-12 101t-60 72.5t-123 28q-113 0 -186 -50.5t-121 -140.5l-7 -24q-5 -17 -10.5 -36t-10.5 -36zM937 502q10 0 9.5 -7.5t-2.5 -12.5q-4 -14 -14.5 -29.5t-24.5 -31.5t-29 -31t-27 -28q-29 -2 -70 -4
t-86.5 -3.5t-90 -2.5t-80.5 -1l6 21q0 1 10.5 14t25 30.5t30 36t25.5 29.5q2 2 7.5 6t7.5 4z" />
    <glyph glyph-name="FL0050h" unicode="P" horiz-adv-x="997" 
d="M524 286q77 6 151.5 18t155.5 42q46 16 96.5 49t95 75t78.5 88t46 89q13 45 -6 74.5t-55 47.5t-82 27t-88 14h-49q-35 0 -73.5 0.5t-73.5 0.5h-114q-40 0 -79.5 -0.5t-68.5 -0.5h-34q-16 0 -40.5 -1.5t-48 -3t-41 -3t-17.5 -2.5l-20 -30q21 -7 40.5 -14.5t33 -18
t19 -26.5t-1.5 -41l-186 -650q-1 -1 12 -5t21 -5q38 -6 62.5 -7.5t47 -1t49.5 2t71 1.5h9zM656 740q4 0 17.5 0.5t18.5 0.5q83 0 121.5 -37.5t19.5 -103.5q-12 -41 -40.5 -80t-67 -69.5t-83.5 -50t-90 -22.5z" />
    <glyph glyph-name="FL0051h" unicode="Q" horiz-adv-x="1466" 
d="M613 0q-122 5 -221.5 26.5t-163.5 68.5t-85 125t13 197q19 68 58 119.5t92 90t117 66t134 47.5t142.5 34t142.5 26l257 11l19 -1.5t46.5 -3.5t60 -4.5t61 -5t48.5 -4t22 -2.5q60 -21 106 -53t74 -74.5t35 -94.5t-11 -113q-21 -74 -63 -133t-96 -104.5t-116.5 -79.5
t-124.5 -58t-119.5 -40t-102 -26t-71.5 -15.5t-29 -8.5l-134 -260q-1 -2 -11.5 -9.5t-18.5 -10.5h-6q-41 0 -60.5 15.5t-25 40t-1.5 56t11.5 63.5t14.5 62.5t6 52.5zM450 441q-15 -54 -16.5 -112.5t19 -107.5t66.5 -81t125 -32l170 592q2 7 -1 11.5t-9 6.5t-12.5 2.5
t-12.5 0.5q-65 0 -119.5 -27.5t-97 -69.5t-71.5 -91t-41 -92zM1069 710q-6 -20 -19.5 -63t-30 -97t-35.5 -114t-35.5 -114.5t-30 -97.5t-19.5 -64l-15 -53q74 0 139 24t116.5 64.5t88 95t53.5 114.5q13 45 8 98.5t-28.5 99.5t-67 77t-106.5 31q-2 0 -8.5 -0.5t-9.5 -0.5z
" />
    <glyph glyph-name="FL0052h" unicode="R" horiz-adv-x="1043" 
d="M557 394q52 0 94.5 -6t72 -24t45.5 -50t17 -84l1 -213q39 4 69.5 0.5t54.5 -8t42 -6t32.5 6.5t26.5 29t24 61q15 51 7.5 107.5t-32 105.5t-64 84t-89.5 43l3 10q45 16 91 33t85 39t68.5 52t41.5 73q13 45 -6 74.5t-55 47.5t-82 27t-88 14h-49q-35 0 -73.5 0.5t-73.5 0.5
h-114q-40 0 -79.5 -0.5t-68.5 -0.5h-34q-16 0 -40.5 -1.5t-48 -3t-41 -3t-17.5 -2.5l-20 -30q21 -7 40.5 -14.5t33 -18t19 -26.5t-1.5 -41l-186 -650q-1 -1 12 -5t21 -5q38 -6 62.5 -7.5t47 -1t49.5 2t71 1.5h9zM656 740q4 0 17.5 0.5t18.5 0.5q83 0 121.5 -37.5
t19.5 -103.5q-12 -41 -37 -67t-59 -41t-75.5 -22t-85.5 -10z" />
    <glyph glyph-name="FL0053h" unicode="S" horiz-adv-x="1049" 
d="M1019 20l-18 -20h-720q-19 0 -43.5 3.5t-49.5 10.5t-49 17t-41 23t-25.5 28.5t-3.5 33.5h48q38 0 93 0.5t109 1.5t99 1.5t65 0.5q10 0 27.5 1.5t37 4t39 6t34.5 8.5l-319 639l9 30h840q4 0 8.5 -21t7.5 -49t3.5 -56.5t-3.5 -43.5h-41q-19 28 -51 44t-72 23t-84.5 8
t-89 -1t-86 -5t-75.5 -3q0 -1 -2 -2.5t-3 -3.5q1 -2 3 -10t4 -10z" />
    <glyph glyph-name="FL0054h" unicode="T" horiz-adv-x="1050" 
d="M374 12l4 -12q1 0 13.5 -0.5t20.5 -0.5q62 0 131 6.5t129 14.5q11 3 13 7.5t4 10.5q31 109 55 215t55 215l12 41q8 27 15.5 52.5t13.5 45.5l7 23l26 50l8.5 1.5t20.5 3t24.5 3t21.5 2.5t33.5 0t52.5 -3t53 -4t34 -2l120 109l5 20h-481h-431h-12q-11 -14 -26 -34
t-29.5 -42t-27 -45t-17.5 -42q3 0 15 1t15 2q3 0 12.5 3t20.5 7t20.5 7t12.5 3q20 3 45.5 5t52.5 3.5t53.5 2t48.5 0.5q10 0 26 -0.5t17 -0.5l9 -10z" />
    <glyph glyph-name="FL0055h" unicode="U" horiz-adv-x="1315" 
d="M1343 643q-3 -11 -6.5 -20.5t-17.5 -18.5l-129 -450q-6 -20 12 -31.5t41 -18.5t42 -12t17 -13q-4 -12 -24 -26t-45.5 -26t-50 -20t-36.5 -8l-180 2h-930q7 25 26.5 36.5t42 23.5t44 31.5t33.5 61.5l135 470q10 36 10.5 65.5t2.5 64.5l2 6l1 4q2 2 7 6t8 4l287 40l16 -10
l-203 -708q5 0 17.5 -0.5t28.5 -0.5q15 0 32.5 -0.5t32.5 -0.5h26q16 0 50.5 1t71 2.5t68 3.5t41.5 3t26 2t30.5 5.5t23.5 14.5t6 28l13 45q9 32 19.5 67.5t20.5 67.5l13 45q28 97 48 190.5t48 190.5q2 9 18 16.5t39 13.5t50 11t52 8t44.5 4.5t28.5 1.5q25 0 37.5 -20.5
t16.5 -48.5t1 -57t-8 -46z" />
    <glyph glyph-name="FL0059h" unicode="V" horiz-adv-x="1249" 
d="M1439 788q-17 26 -51 33.5t-70 7.5h-12q-12 0 -28 -1.5t-22 -9.5l-465 -546l-129 526l-18 20q-1 0 -13 0.5t-29 0.5t-34 0.5t-28 0.5q-58 0 -126.5 -0.5t-132.5 -11.5q-11 -3 -14 -9t-5 -12q-1 -2 -1.5 -5.5l-0.5 -3.5q1 -1 7.5 -4t14 -6t13.5 -6t7 -4q18 -14 32 -33.5
t25 -40.5q8 -14 11 -26t11 -34q7 -26 18 -61t21.5 -68.5t19 -60.5t11.5 -36q4 -15 11.5 -46t16.5 -70.5t18.5 -83t18 -83t15 -71t9.5 -46.5q2 -8 7.5 -9.5t13.5 -1.5q17 0 43.5 7.5t54 18t52 20.5t36.5 15q16 13 29 31t24 37t22.5 38t24.5 34q136 158 280.5 308t311.5 292z
" />
    <glyph glyph-name="FL0057h" unicode="W" horiz-adv-x="1528" 
d="M1674 810q3 9 -2.5 12t-16.5 3h-13q-15 -2 -37.5 -5.5t-44.5 -6.5t-38.5 -5.5t-17.5 -2.5l-21 -10l-143 -500l-21 -10l-205 500q-2 2 -8.5 10t-9.5 10h-6q-22 0 -37 -13t-29 -27l-444 -460l-29 -20l124 520h-371q-14 0 -28 -9.5t-18 -20.5q-1 -2 -1 -6q0 -3 -1 -4
q54 -6 77.5 -34t27.5 -67t-5 -84t-21 -85l-17 -60l-7 -25q-7 -23 -15 -52.5t-17 -59.5l-13 -48l-11 -36q-8 -27 -16.5 -56.5t-16.5 -55.5l-10 -37q-14 -15 -28.5 -34t-19.5 -38q25 0 51 5t51.5 11.5t51 11.5t50.5 5q14 0 21 -5.5t18 -5.5q15 0 25.5 6t18.5 15t14 19.5
t14 19.5l88 100q75 81 155.5 159.5t173.5 150.5q1 0 3 0.5t3 0.5t3.5 -0.5l2.5 -0.5l9 -9l12 -12t10.5 -11.5t5.5 -7.5l188 -430q8 -15 12.5 -18t21.5 -3q37 0 77 3t80.5 6.5t80.5 7t76 4.5q12 2 15 10t5 15q1 2 2 7.5t2 7.5q-14 5 -31 10.5t-32 13.5t-25.5 19t-11.5 27
q2 5 4.5 16.5t6.5 24.5q4 14 7.5 28.5t6.5 26.5l7 24l9 31q4 13 9 28.5t8 27.5q4 13 7 22t4 11q7 16 22 50.5t34.5 78t41 91.5t41 91.5t35.5 78t24 50.5q0 1 1 2.5t1 2.5z" />
    <glyph glyph-name="FL0058h" unicode="X" horiz-adv-x="1189" 
d="M39 10l547 400l-16 30q-7 11 -21 34t-32 51.5t-38 60t-37.5 60t-32 51t-20.5 33.5q-9 17 -30.5 29.5t-38.5 20.5l8 30q10 1 31 2.5t48 3.5t56.5 4t56.5 4t47.5 3.5t30.5 2.5h7q8 0 16 0.5t15 0.5h12q8 0 21 -0.5l13 -0.5l142 -252l421 292l3 0.5t4 0.5t3 -0.5l2 -0.5
q5 -3 12.5 -10.5t6.5 -9.5l-49 -170l-333 -233l184 -327l83 -90v-2q0 -1 -1 -2q0 -2 -1 -4l-1 -2q-4 -3 -9 -10.5t-9 -9.5h-5q-34 0 -70.5 3.5t-72 9.5t-68 15.5t-58.5 21.5q-22 11 -37.5 27t-28.5 33l-123 160q-2 4 -8.5 11.5t-9.5 8.5l-2.5 0.5t-3.5 0.5t-3.5 -0.5
l-2.5 -0.5l-357 -240q-26 -18 -59 -31t-68 -22.5t-70.5 -16t-65.5 -10.5z" />
    <glyph glyph-name="FL0056h" unicode="Y" horiz-adv-x="1177" 
d="M241 670q89 6 146.5 -10t92 -50t50 -84t19.5 -112q0 -4 -2 -20t-5 -34l-5.5 -33t-2.5 -17l-91 -317q-2 -6 3.5 -8t12.5 -3t13.5 -0.5t8.5 0.5q30 0 64 3t67.5 7.5t65.5 10t59 10.5l7 25q5 17 10.5 39t12.5 46l14 47q13 45 24.5 84.5t16.5 55.5q11 33 30.5 72t46.5 78
t61 75t74 64t84.5 45t92.5 17q26 0 47 -6t46 -6q8 0 16.5 3.5t11.5 12.5l1 5q0 7 -1 23.5t-1.5 34t-1 32.5t-0.5 20q-1 16 -14 24.5t-31 12t-38.5 4t-37.5 0.5q-50 0 -94.5 -15t-84 -40t-73.5 -57.5t-63 -68.5q-14 -16 -32 -44t-35.5 -55t-30 -47t-13.5 -20h-24l2 50
q5 60 3.5 114t-23.5 94.5t-71 64.5t-139 24q-19 0 -46.5 -5t-59 -14t-63.5 -21.5t-58.5 -27.5t-46 -32.5t-24.5 -35.5v-5q0 -2 3.5 -5.5t5.5 -4.5z" />
    <glyph glyph-name="FL005Ah" unicode="Z" horiz-adv-x="1049" 
d="M42 20l6 -20h720q28 0 72.5 8t87.5 23t76.5 36.5t41.5 48.5h-48q-26 0 -59 0.5t-69 0.5t-72.5 1t-68.5 1t-57 0.5t-38 0.5q-11 0 -27.5 1.5t-34.5 4t-35 6t-29 8.5l682 620l9 30h-840q-4 0 -20.5 -21t-36 -49t-36.5 -56.5t-21 -43.5h41q53 42 118 57.5t132.5 17.5
t131.5 -3.5t115 -5.5q-1 -1 0 -2.5t0 -3.5q-2 -2 -8 -10t-10 -10z" />
    <glyph glyph-name="FL005Bh" unicode="[" horiz-adv-x="950" 
d="M346 665q-4 -11 -5 -20.5t7 -18.5l-130 -450q-9 -31 -28 -42.5t-42 -17.5t-47 -12.5t-43 -27.5q17 -28 51.5 -47.5t69.5 -32.5q43 3 79.5 5t69.5 3.5t65 2t65 0.5h98q91 0 178 -6t178 -6q3 10 9 30.5t12 45t11 50.5t5 47t-6.5 34.5t-22.5 13.5q-26 0 -49 -20.5t-46.5 -45
t-48 -45t-52.5 -20.5q-5 0 -14.5 0.5t-12.5 0.5q-22 1 -55.5 4.5t-65 7t-54.5 6t-24 2.5l-9 10l147 510q3 10 5.5 18.5t3.5 15.5l13 46l15 10l24.5 2.5t58 6t69 6.5t58.5 5q3 0 13 0.5t15 0.5q19 0 30.5 -9.5t19 -24.5t13.5 -31.5t13 -31.5t17.5 -24.5t27.5 -9.5
q16 0 30 13.5t26 34.5t22.5 47t18 50.5t13 45t8.5 30.5q-91 0 -181 -6t-181 -6h-98q-33 0 -64.5 0.5t-64 2t-67.5 3.5t-77 5q-43 -13 -88 -32.5t-79 -47.5q5 -20 22.5 -27t36 -11.5t33 -13t14.5 -30.5q-3 0 -5.5 0.5t-4.5 0.5z" />
    <glyph glyph-name="FL005Ch" unicode="\" horiz-adv-x="743" 
d="M333 798l173 49l204 -838q-9 -3 -31 -9t-50.5 -12.5t-59.5 -13.5t-57 -12t-43.5 -7t-19.5 1l-192 813l13 6q11 4 23.5 8.5t23.5 8.5z" />
    <glyph glyph-name="FL005Dh" unicode="]" horiz-adv-x="950" 
d="M987 665q-4 -11 -7.5 -20.5t-17.5 -18.5l-130 -450q-6 -21 -1.5 -32t14.5 -17.5t23.5 -10t27 -8t25 -11.5t15.5 -21q-33 -28 -78.5 -47.5t-88.5 -32.5q-41 3 -76.5 5t-68 3.5t-64 2t-64.5 0.5h-98q-91 0 -181 -6t-181 -6q3 10 8.5 30.5t13 45t18 50.5t22.5 47t26 34.5
t30 13.5q17 0 27.5 -9.5t17.5 -24.5t12.5 -31.5t13.5 -31.5t19.5 -24.5t30.5 -9.5q5 0 15.5 0.5t12.5 0.5q23 1 58.5 4.5t69 7t57.5 6l24 2.5l15 10l147 510q2 10 4.5 18.5t4.5 15.5l13 46l-9 10l-23 2.5t-54.5 6t-65 6.5t-55.5 5q-2 0 -12 0.5t-15 0.5q-29 0 -53 -20.5
t-47.5 -45t-46.5 -45t-49 -20.5q-16 0 -22 13.5t-6.5 34.5t4 47t11 50.5t12.5 45t9 30.5q91 0 178 -6t178 -6h98q33 0 65 0.5t65 2t69.5 3.5t79.5 5q18 -6 36 -14.5t34 -18t29.5 -21.5t21.5 -26q-16 -19 -38 -26t-43.5 -12t-41 -13.5t-30.5 -30.5q2 0 5.5 0.5t6.5 0.5z" />
    <glyph glyph-name="FL005Eh" unicode="^" horiz-adv-x="584" 
d="M434 810q-11 0 -14 -6t-5 -11q-13 -9 -34 -29t-45.5 -45.5t-49 -53.5t-44.5 -50.5t-32.5 -38l-12.5 -15.5l-6 -21q36 0 61.5 -0.5t48.5 -0.5q11 0 17 -0.5t12 -0.5h14h8h6t8 1q3 4 19 27.5t36.5 51.5t41 53.5t32.5 33.5q6 -8 11 -33t9.5 -52.5t7.5 -50.5t4 -27
q5 -1 12 -1h10h14q6 0 12.5 0.5t17.5 0.5q23 0 49 0.5t62 0.5l6 21l-3.5 15.5t-10 38.5t-15 50.5t-18 53.5t-19.5 46t-19 28q2 9 -8 11q0 2 -2 2z" />
    <glyph glyph-name="FL005Fh" unicode="_" horiz-adv-x="559" 
d="M-7 -25q5 17 15.5 33t23 32t25.5 31t24 30l10 12.5t8 7.5l405 1q1 0 11.5 4t15.5 6l42 20h6q12 0 20 -4t5 -15q-7 -24 -14.5 -37.5t-17.5 -25t-23.5 -24t-31.5 -34.5l-9.5 -9.5t-6.5 -5.5l-418 -1q-3 -3 -11 -8.5t-17 -11t-17.5 -10t-12.5 -5.5q-3 0 -16.5 3t-16.5 7z
" />
    <glyph glyph-name="FL0060h" unicode="`" horiz-adv-x="404" 
d="M262 809q-10 0 -13.5 -7.5t-5.5 -12.5q-4 -14 11 -37.5t35.5 -48.5t39 -48t21.5 -36q28 -2 50 -2.5t45 -0.5t48.5 0.5t61.5 0.5l6 21q0 1 -12 22t-29.5 47.5t-36.5 52.5t-31 38q-2 2 -4 6t-5 4z" />
    <glyph glyph-name="a" unicode="a" horiz-adv-x="1249" 
d="M45 30q166 142 310.5 292t281.5 308q13 16 24.5 34.5t22.5 37.5t24 36.5t29 31.5l36 15t51.5 20.5t54 18t43.5 7.5q8 0 13.5 -1.5t7.5 -9.5q3 -15 9.5 -46.5t15 -71t18 -83t18.5 -83t16.5 -70.5t11.5 -46q2 -8 8 -27t14 -44t16.5 -53.5t17 -54.5t15.5 -48t11 -33
q7 -25 25.5 -54t41.5 -46q0 -2 6.5 -4.5t14 -5.5t14 -6t7.5 -4v-4q0 -3 -1 -5q-2 -6 -5 -12t-14 -9q-63 -11 -132.5 -11.5t-127.5 -0.5q-11 0 -27.5 0.5t-33.5 0.5t-29 0.5t-13 0.5l-18 20l-129 526l-465 -546q-4 -5 -13 -7.5t-19 -3.5t-18.5 -0.5t-11.5 0.5q-36 0 -70 7.5
t-51 33.5z" />
    <glyph glyph-name="b" unicode="b" horiz-adv-x="1045" 
d="M257 770q21 -7 40.5 -14.5t33 -18t19 -26.5t-1.5 -41l-186 -650q-1 -1 12 -5t21 -5q38 -6 70 -8.5t64.5 -3t67.5 0t78 0.5q51 0 111.5 3t122.5 12.5t122 27t110.5 46t87.5 69.5t53 98q15 51 0.5 83.5t-47.5 52.5t-80 30.5t-97 18.5l3 10q45 16 91 33t85 39t68.5 52
t41.5 73q13 45 -6 74.5t-55 47.5t-82 27t-88 14h-49q-35 0 -73.5 0.5t-73.5 0.5h-49h-65q-40 0 -79.5 -0.5t-68.5 -0.5h-34q-16 0 -40.5 -1.5t-48 -3t-41 -3t-17.5 -2.5zM557 394q52 0 100 -5.5t82 -23t48 -49.5t-1 -86q-9 -31 -27 -60t-43.5 -51.5t-58.5 -36t-73 -13.5
q-12 0 -32 2t-38 7.5t-29.5 15.5t-6.5 26zM656 740q4 0 17.5 0.5t18.5 0.5q83 0 121.5 -37.5t19.5 -103.5q-12 -41 -37 -67t-59 -41t-75.5 -22t-85.5 -10z" />
    <glyph glyph-name="c" unicode="c" horiz-adv-x="950" 
d="M200 157q-5 -15 -8 -42.5t0 -54t15 -46t37 -19.5l21 3t53 8t69 12t69 14t52.5 14.5t19.5 13.5l-20 138l150 508l15 10l24.5 2.5t58 6t69 6.5t58.5 5q3 0 13 0.5t15 0.5q19 0 30.5 -9.5t19 -24.5t13.5 -31.5t13 -31.5t17.5 -24.5t27.5 -9.5q16 0 30 13.5t26 34.5t22.5 47
t18 50.5t13 45t8.5 30.5q-91 0 -181 -6t-181 -6h-98q-33 0 -64.5 0.5t-64 2t-67.5 3.5t-77 5q-43 -13 -88 -32.5t-79 -47.5q4 -14 15.5 -21t24.5 -11.5t27 -7.5t24 -9.5t14 -18t-2 -32.5l-129 -450q-13 -9 -17 -18.5t-7 -20.5z" />
    <glyph glyph-name="d" unicode="d" horiz-adv-x="1212" 
d="M39 10q-1 -2 2.5 -6t6.5 -4h924l228 85l-60 125l-188 600q-2 2 -8 10t-10 10h-5h-7q-17 -3 -43 -8.5t-53 -13t-51 -17t-38 -21.5q-3 -2 -9 -10.5t-12.5 -19t-12 -19.5t-7.5 -11q-22 -29 -48 -60t-52.5 -61t-51.5 -58t-46 -51q-8 -8 -29.5 -30t-51.5 -52.5t-66 -67.5
t-73 -75t-73.5 -74.5t-66.5 -67.5t-51.5 -53t-29.5 -30q-5 -4 -11.5 -11.5t-6.5 -8.5zM343 150l358 410h12l131 -420l-51 -10h-372q-4 0 -13.5 1t-20.5 2.5t-21 3.5t-14 3t-7.5 4.5t-1.5 5.5z" />
    <glyph glyph-name="e" unicode="e" horiz-adv-x="949" 
d="M873 200h-708q-1 0 -6.5 -7.5t-10.5 -12.5q-12 -16 -29.5 -41t-34 -49t-28 -41.5t-11.5 -18.5l-9 -30h780q7 0 21 13t30.5 33.5t34 44t31.5 45t23.5 36.5t10.5 18q3 8 0.5 14t-12.5 6h-7q-3 0 -14 -1.5t-23.5 -3t-23.5 -3t-14 -2.5zM225 284l-1 -4q4 -4 17.5 -7t15.5 -3
q4 1 12.5 5.5t17.5 10t17 11t11 8.5h492q1 0 6.5 5.5t10.5 9.5q37 45 69.5 94t46.5 97q3 11 -5.5 15t-20.5 4h-6l-42 -20q-5 -2 -15.5 -6t-11.5 -4h-480q-1 0 -6.5 -7.5t-10.5 -12.5q-11 -15 -28.5 -41t-35.5 -55t-33 -56t-20 -44zM245 605q-3 -13 7 -14t20 -1h29
q25 0 79 0.5t121.5 2t143 2.5t143 2.5t121.5 2t79 0.5q21 19 41.5 43.5t38 51.5t31 54t20.5 51h-50q-26 -1 -79.5 -1.5t-121.5 -1.5t-142.5 -2t-142 -2t-121.5 -2t-79 -1q-8 -3 -17.5 -13t-17.5 -20.5t-13.5 -18.5l-5.5 -8q-5 -8 -17 -25t-25 -36.5t-24.5 -36t-15.5 -22.5z
" />
    <glyph glyph-name="FL0066h" unicode="f" horiz-adv-x="913" 
d="M244 721q21 -4 41 -8.5t34.5 -13t21 -22.5t0.5 -36l-185 -645l290 4l99 350l285 30q3 0 13.5 4t13.5 6q10 5 25 15t29 20l24.5 17.5l10.5 7.5l9 30h-372l63 221l15 10q2 1 25 3.5t54.5 5.5t64.5 6t54 5h7q8 0 16 0.5t16 0.5h12q7 0 20 -0.5l13 -0.5l91 -100l30 20l49 171
q-92 0 -180.5 -2.5l-177 -5t-179 -4t-186.5 0.5q-7 -3 -23 -10t-33.5 -15t-33 -15t-21.5 -10q-17 -8 -23.5 -13.5t-9.5 -16.5q-2 -6 -2 -10z" />
    <glyph glyph-name="FL0067h" unicode="g" horiz-adv-x="1022" 
d="M838 393q18 -4 33 -9t24.5 -13t12.5 -20t-2 -30l-45 -163q-27 0 -62.5 -1.5t-75 -3.5t-80 -3t-77.5 -1t-68 3t-51 10q45 43 72 73t43.5 52t26 39t20.5 35q3 4 10 17t14.5 26t13 22.5t4.5 6.5q2 7 -7.5 36t-25.5 65.5t-35.5 73.5t-37.5 61q4 1 20 2.5t35 3t36 2.5t22 1
q10 1 32.5 1.5t52.5 1.5t65 1.5l70 1t66 0.5h56h42q13 8 32.5 23.5t40 33t39 35t29.5 29.5l1 2t1 3q1 1 1 3v2q-1 2 -4 5.5t-5 4.5q-8 -1 -25.5 -3t-37 -3.5t-36.5 -2.5t-24 -1h-281h-229q-29 0 -43.5 0.5t-25.5 0.5q-10 0 -16 0.5t-17 0.5q-3 -2 -9.5 -6t-13.5 -8.5t-13 -9
t-8 -6.5q-14 -11 -36 -26t-42.5 -29.5t-35 -24.5t-14.5 -11l-6 -20l172 -270l-259 -252q-3 -3 -14.5 -10.5t-15.5 -9.5q-6 -6 -20.5 -21.5t-31 -33t-31 -33.5t-20.5 -22q0 -2 -3 -5v-5q2 -2 5 -6t4 -4l718 -4h22q20 0 41 1.5t34 6.5q25 4 48.5 9t42 10.5t30.5 10.5t14 10
l109 396h-17q-12 0 -25.5 -0.5t-25.5 -0.5h-16q-17 0 -36.5 -1t-40 -2.5t-40 -3.5t-35.5 -3q-18 3 -25 -6.5t-9 -18.5q-1 -2 -1 -8v-7z" />
    <glyph glyph-name="h" unicode="h" horiz-adv-x="1252" 
d="M137 10l189 660q8 28 -2.5 44.5t-26 26t-28.5 16.5t-10 16q2 7 5.5 16t14.5 11q12 1 37.5 2t57.5 2t68 2t68 2t58 1.5t38 0.5h15q11 0 23 0.5t23 0.5h15q-9 -30 -22 -61t-27.5 -61.5t-27.5 -61.5t-22 -62l-4 -13q-2 -9 -4.5 -19.5t-5.5 -19.5l-4 -13q3 -10 18 -16.5
t36.5 -10t47.5 -4.5t51 -1q26 0 48 0.5t36 0.5h17q11 0 22 0.5t19 0.5h9q14 0 36.5 1.5t44 3t37.5 3t17 2.5l15 10l77 270q1 3 8 6.5t15 6.5t14 5t5 2q12 2 44 6t68 9t68 9t44 6q2 0 7 0.5t8 0.5q14 0 22 -7t4 -18q-25 -88 -56.5 -175.5t-56.5 -175.5l-10 -35
q-8 -25 -15 -52.5t-14 -52.5l-10 -35q-1 -3 -2 -10t-2 -15t-1 -15t2 -10q1 -2 5.5 -6t9.5 -9t9 -9.5t4 -5.5q-1 -9 -14 -29t-30 -41t-35.5 -38.5t-30.5 -21.5q-11 -3 -38 -10t-58 -15t-59 -15t-39 -10l-12 -3t-16 -3.5t-15 -2.5t-8 -1q-6 0 -17 4t-10 6l112 391l-472 -35
l-91 -316l-14 -10q-63 -3 -132.5 -15t-131.5 -25z" />
    <glyph glyph-name="i" unicode="i" horiz-adv-x="458" 
d="M256 760q37 -8 60 -25.5t13 -54.5l-196 -684q9 0 34.5 2t58.5 6t69 8.5t66.5 9.5t50.5 9.5t21 8.5l222 771h-16q-12 0 -26 -0.5t-26 -0.5h-17q-16 0 -55.5 -1t-84 -2.5t-84 -3.5t-55.5 -3q-17 3 -23.5 -6.5t-9.5 -18.5q-1 -2 -1.5 -7.5t-0.5 -7.5z" />
    <glyph glyph-name="FL006Ah" unicode="j" horiz-adv-x="966" 
d="M762 755q0 2 1 7.5t2 7.5q2 9 8.5 18.5t24.5 6.5q11 1 32.5 2t49 2t57.5 2t57.5 2t49.5 1.5t33 0.5h17q11 0 25 0.5t25 0.5h17l-174 -585l-5 -5q-33 -72 -96.5 -115t-140 -65.5t-156 -29.5t-145.5 -7q-39 0 -88.5 1t-100 3t-98 6t-81.5 10q-7 1 -18.5 5t-11.5 5l55 197
q76 -22 126.5 -40.5t94.5 -32t92.5 -21t120.5 -7.5q54 0 93 6.5t59 23.5l149 520q10 37 -13.5 54.5t-60.5 25.5z" />
    <glyph glyph-name="k" unicode="k" horiz-adv-x="1262" 
d="M849 24q31 -14 69 -22t79.5 -12.5t83 -5.5t80.5 -1h10t14.5 0.5t13.5 0.5h10q5 3 12 14.5t9 15.5l1 5l2 5q-2 3 -3 10.5t-3 9.5l-1.5 0.5t-4.5 0.5q-1 0 -3.5 -0.5l-2.5 -0.5q-3 -1 -8 -4.5t-7 -5.5q-6 6 -20.5 21.5t-30.5 32.5t-30 33t-20 23q-9 13 -28 40t-42.5 61
t-49 72t-48.5 72.5t-41 62.5t-26 42q-2 2 -5.5 9.5t-1.5 10.5q8 16 33 35.5t60 40.5t77 43t84.5 42.5t82 39t70.5 32t50 22.5t19 10q5 18 -6.5 21.5t-37.5 3.5h-264q-18 -31 -48.5 -63.5t-64.5 -63t-66.5 -57t-54.5 -46.5q-24 -22 -51 -42.5t-56.5 -37t-61.5 -26.5t-65 -10
q13 45 23.5 87t23 83t29 82t41.5 84l1 5q3 11 -4.5 13t-17.5 2h-22q-13 0 -39 -0.5t-59.5 -1.5t-70 -2t-70 -2t-60 -2t-39.5 -2q-17 3 -24 -7t-10 -19q-3 -11 10.5 -17.5t29 -16t26.5 -25.5t2 -45l-192 -670q-2 -8 6 -9.5t14 -1.5q3 0 7.5 0.5t5.5 0.5q18 2 44 6t54 8.5
t55.5 9t49.5 8t35.5 6l13.5 2.5l15 10l97 340h48q6 -10 18.5 -30t29 -44.5t35 -52t35 -52t30 -43.5t20.5 -28q6 -7 20 -23t30 -33t30.5 -32.5t20.5 -21.5z" />
    <glyph glyph-name="FL006Ch" unicode="l" horiz-adv-x="950" 
d="M344 658q4 15 16.5 42.5t30.5 54t41 46t48 19.5l17 -2.5t42.5 -7.5t54.5 -11t53 -12.5t39 -14t12 -13.5l-65 -140l-146 -510l9 -10q1 0 24 -2.5t54.5 -6t65 -7t55.5 -4.5q3 0 12.5 -0.5t14.5 -0.5q28 0 52.5 20.5t48 45t46.5 45t49 20.5q16 0 22.5 -13.5t6.5 -34.5
t-5 -47t-11 -50.5t-12 -45t-9 -30.5q-91 0 -178 6t-178 6h-98q-33 0 -65 -0.5t-65 -2t-69.5 -3.5t-79.5 -5q-35 13 -69.5 32.5t-51.5 47.5q19 21 43 27.5t47 12.5t42 17.5t28 42.5l129 450q-8 9 -6.5 18.5t5.5 20.5z" />
    <glyph glyph-name="m" unicode="m" horiz-adv-x="1528" 
d="M84 -5q0 1 1 2.5t1 2.5q8 16 24.5 50.5t36 78t41 91.5t40.5 91.5t34 78t22 50.5q0 1 4 10.5t7 21.5q4 13 8.5 28t9.5 29l9 31l6 24q4 12 7.5 26.5t7.5 27.5q4 14 6 25.5t4 16.5q-1 16 -11.5 27t-25.5 19t-32 13.5t-31 10.5q1 2 1.5 7.5t1.5 7.5q2 7 6 15t15 10
q36 1 76 4.5t80.5 7t81 6.5t77.5 3q9 0 13.5 -0.5t7.5 -2.5t5.5 -6.5t6.5 -11.5l188 -430q1 -2 6 -7.5t11 -11.5t11.5 -12t8.5 -9l2 -0.5t3 -0.5q2 0 4 0.5t3 0.5q93 72 173.5 150.5t155.5 159.5l88 100q8 9 14.5 19.5t14.5 19.5t18 15t25 6q12 0 18 -5.5t20 -5.5q25 0 51 5
t52 11.5t51.5 11.5t51.5 5q-5 -19 -19.5 -38t-29.5 -34l-10 -37q-8 -26 -17 -55.5t-17 -56.5l-10 -36l-14 -48q-8 -30 -16 -59.5t-15 -52.5l-7 -25l-17 -60q-12 -40 -21 -85t-5 -84t27.5 -67t76.5 -34v-10q-4 -11 -18.5 -20.5t-28.5 -9.5h-370l123 520l-30 -20l-444 -460
q-14 -14 -28.5 -27t-36.5 -13h-6q-2 2 -9 10t-9 10l-205 500l-21 -10l-143 -500l-21 -10q-1 0 -17 -2.5t-38 -5.5t-45 -6.5t-38 -5.5h-13q-10 0 -16 3t-3 12z" />
    <glyph glyph-name="n" unicode="n" horiz-adv-x="1169" 
d="M468 548q14 -17 44.5 -51.5t69 -78t81 -91.5t81 -91t69 -77.5t45.5 -50.5q3 -5 16 -17.5t28 -26.5t29 -27t21 -19q2 -2 10 -5.5t11 -4.5q9 -3 24 -6.5t30 -6.5t26 -5l11 -2l14 10l19 64l28 98l33 115l25 88q18 64 33.5 115t24.5 75q11 33 22 63.5t24.5 60t30 58
t39.5 58.5q2 2 4.5 7t2.5 6q-46 0 -95 -6.5t-94 -16.5q-14 -2 -16 -11.5t-4 -15.5q-16 -54 -28 -106t-23.5 -103t-24 -103t-27.5 -106h-8l-449 475l-5.5 0.5t-8.5 0.5q-36 0 -75 -3t-78 -6.5t-77.5 -7t-73.5 -4.5q-11 -2 -14.5 -10t-5.5 -15q-1 -2 -1.5 -7.5t-1.5 -7.5
q40 -14 62 -30t30 -38t4 -51.5t-16 -69.5q-41 -144 -92 -278.5t-121 -277.5q2 -8 7 -9t13 -1h13q16 1 41.5 4.5t50 7t41.5 6l17 2.5l152 530h12z" />
    <glyph glyph-name="o" unicode="o" horiz-adv-x="1297" 
d="M99 10q-2 2 -4 10t-2 10q-2 7 -4 24.5t-4 36.5t-3.5 36t-2.5 23l1 5l2 5q2 2 6.5 5.5t8.5 4.5h5q33 0 64.5 -3.5t63.5 -7t64.5 -7t66.5 -3.5h16q11 0 23 0.5t23 0.5h16q-50 25 -99.5 54t-85.5 65.5t-52 83.5t1 107q19 66 61 118t100 92t127 67.5t142 45.5t146.5 26
t138.5 8q60 0 121 -8t116 -25.5t101 -44t75.5 -63t39.5 -84.5t-7 -107q-18 -62 -60 -111.5t-99 -90.5t-125 -73.5t-137 -59.5q44 -10 83.5 -10.5t87.5 -0.5h48q35 0 67 1.5t74 9.5q-1 -2 -1.5 -7.5t-1.5 -7.5q-8 -27 -33.5 -51.5t-59.5 -43t-71 -29.5t-68 -11h-338
q1 3 5 14.5t6 15.5q3 6 10.5 22t16 33.5t16.5 33t12 21.5q60 21 98 50.5t62 65.5t38 77.5t27 86.5l7 22q5 16 9 33.5t9 32.5l8 28q0 23 -3.5 57.5t-14.5 66t-33.5 54t-59.5 22.5h-156q-37 0 -76 -21.5t-72.5 -52.5t-57.5 -65.5t-31 -60.5l-62 -216q-10 -35 3.5 -65.5
t33.5 -56t37 -45t14 -31.5q-1 -4 -3.5 -12t-3.5 -10q-5 -10 -13 -25t-15.5 -29.5t-14 -25t-7.5 -10.5l-39 -10q-3 0 -17.5 -0.5t-35.5 -0.5q-19 0 -39 -0.5t-31 -0.5q-24 0 -58 -0.5t-70 0.5t-70.5 3.5t-59.5 8.5z" />
    <glyph glyph-name="p" unicode="p" horiz-adv-x="1034" 
d="M340 680q-6 -19 -16.5 -59t-24 -90.5t-28.5 -106t-28 -105.5t-23 -90t-14 -59q-5 -23 -12.5 -58t-15 -74.5t-15 -80t-14 -74t-10 -56.5t-3.5 -27v-40l3.5 -0.5t6.5 -0.5q19 0 40.5 3.5t42.5 10.5t38.5 18.5t29.5 28.5q9 9 23 29t30 45.5t32.5 54t30.5 54t24 46.5t13 31
l188 657q45 0 91.5 -4.5t82 -19.5t53 -43.5t3.5 -76.5q-13 -45 -39.5 -76t-64 -52.5t-83.5 -36.5t-97 -28q-1 -1 -2 -4.5t-2 -5.5q-5 -14 3 -23t22 -17h12q8 0 18 -0.5t18 -0.5h12q75 0 156 14t152.5 45t125 80.5t74.5 121.5l3 11q3 9 5.5 19l4.5 18l3 12q-3 39 -30.5 64.5
t-67.5 41t-86.5 23t-87.5 11.5h-44q-32 0 -66.5 0.5t-67.5 0.5h-43h-103q-76 0 -148 -1.5t-155 -9.5q-17 1 -22.5 -5t-7.5 -14q-3 -10 3 -16t16.5 -10.5t23.5 -9t22.5 -12.5t14.5 -20.5t0 -32.5z" />
    <glyph glyph-name="q" unicode="q" horiz-adv-x="1466" 
d="M613 0q1 -22 -6 -52.5t-14.5 -62.5t-11.5 -63.5t1.5 -56t25.5 -40t60 -15.5h6q8 3 18.5 10.5t11.5 9.5l134 260q2 3 29 8.5t71.5 15.5t102 26t119.5 40t124.5 58t116.5 79.5t96 104.5t63 133q18 61 9 110t-38.5 88t-77 68t-108.5 50q-6 2 -18.5 6t-14.5 4l-217 19
q6 22 15.5 38.5t19 30t18 26t12.5 26.5q1 4 -1.5 29.5t-8 55t-13 53t-16.5 23.5q-2 0 -6.5 -0.5t-5.5 -0.5q-8 -4 -30 -14t-46 -21t-46 -21t-30 -14t-20.5 -10.5t-23.5 -12.5t-19.5 -11t-8.5 -6l-43 -171q-70 -12 -142.5 -26t-142.5 -34t-134 -47.5t-117 -66t-92 -90
t-58 -119.5q-34 -119 -13 -197t85 -125t163.5 -68.5t221.5 -26.5zM450 441q12 43 41 92t71.5 91t97 69.5t119.5 27.5q6 0 12.5 -0.5t12.5 -2.5t9 -6.5t1 -11.5l-170 -592q-79 0 -125 32t-66.5 81t-19 107.5t16.5 112.5zM1069 710q3 0 9.5 0.5t8.5 0.5q63 0 106.5 -31t67 -77
t28.5 -99.5t-8 -98.5q-17 -60 -53.5 -114.5t-88 -95t-116.5 -64.5t-139 -24l15 53q6 21 19.5 64t30 97.5t35.5 114.5t35.5 114t30 97t19.5 63z" />
    <glyph glyph-name="FL0072h" unicode="r" horiz-adv-x="1043" 
d="M557 394q52 0 94.5 -6t72 -24t45.5 -50t17 -84l1 -213q39 4 69.5 0.5t54.5 -8t42 -6t32.5 6.5t26.5 29t24 61q15 51 7.5 107.5t-32 105.5t-64 84t-89.5 43l3 10q45 16 91 33t85 39t68.5 52t41.5 73q13 45 -6 74.5t-55 47.5t-82 27t-88 14h-49q-35 0 -73.5 0.5t-73.5 0.5
h-114q-40 0 -79.5 -0.5t-68.5 -0.5h-34q-16 0 -40.5 -1.5t-48 -3t-41 -3t-17.5 -2.5l-20 -30q21 -7 40.5 -14.5t33 -18t19 -26.5t-1.5 -41l-186 -650q-1 -1 12 -5t21 -5q38 -6 62.5 -7.5t47 -1t49.5 2t71 1.5h9zM656 740q4 0 17.5 0.5t18.5 0.5q83 0 121.5 -37.5
t19.5 -103.5q-12 -41 -37 -67t-59 -41t-75.5 -22t-85.5 -10z" />
    <glyph glyph-name="FL0073h" unicode="s" horiz-adv-x="958" 
d="M595 358l-271 79q-28 14 -49.5 34.5t-34.5 47.5t-15.5 59t8.5 69q13 45 45.5 74.5t74.5 47.5t88 27t86 14h45q32 0 66.5 0.5t66.5 0.5h103q35 0 70 -0.5t61 -0.5h30q14 0 35.5 -1.5t42 -3t34.5 -3t14 -2.5l3 -30q-19 -17 -38.5 -35t-37.5 -33t-33.5 -24.5t-26.5 -7.5v-1
q-16 16 -41 27.5t-53.5 19.5t-58 13t-54 7.5t-42 3.5t-22.5 1q-76 0 -130 -37.5t-73 -103.5q-8 -27 -5.5 -44t12 -28t26 -17.5t36.5 -12.5q35 -9 70.5 -16t68 -13t59 -13t44.5 -16q45 -8 86.5 -18.5t70.5 -30.5t41.5 -52.5t-2.5 -83.5q-16 -57 -50.5 -98t-80.5 -69.5
t-100.5 -46t-110.5 -27t-110.5 -12.5t-100.5 -3q-39 0 -88.5 1t-100.5 3t-98.5 6t-81.5 10q-6 1 -17.5 5t-11.5 5l49 167q103 -34 162.5 -46t73.5 -12q101 0 170 -5.5t114.5 -2t72 24.5t41.5 75q12 40 4 63.5t-28 36t-48.5 18t-59.5 10.5z" />
    <glyph glyph-name="t" unicode="t" horiz-adv-x="1050" 
d="M374 12l4 -12q1 0 13.5 -0.5t20.5 -0.5q62 0 131 6.5t129 14.5q11 3 13 7.5t4 10.5q31 109 55 215t55 215l12 41q8 27 15.5 52.5t13.5 45.5l7 23l26 50h11h24h27q15 0 23.5 1t30.5 1h46q24 0 44.5 -0.5t31.5 -0.5l130 109l5 20h-492h-420h-12q-11 -14 -26 -34t-29.5 -42
t-27 -45t-17.5 -42q3 0 15 1t15 2q3 0 12.5 3t20.5 7t20.5 7t12.5 3q20 3 45.5 5t52.5 3.5t53.5 2t48.5 0.5q10 0 26 -0.5t17 -0.5l9 -10z" />
    <glyph glyph-name="FL0075h" unicode="u" horiz-adv-x="1277" 
d="M333 139q-31 22 -43 59t-12 82q0 46 7.5 97t17 101.5t16 98t4 85.5t-18 63.5t-50.5 33.5l1 5l2 5q1 2 7 10t10 10q56 6 92.5 8.5t74.5 2.5h58h16q11 0 23 -0.5t23 -0.5h16q22 -17 26.5 -54.5t-0.5 -87.5t-17 -108.5t-23.5 -117t-19.5 -112.5t-5.5 -96t19 -67.5
t54.5 -26.5l69 -2q51 0 99 36.5t91.5 93t82.5 126.5t71.5 136.5t58 123t42.5 86.5q27 25 69 39t87.5 21t89.5 8.5t75 1.5q24 0 18 -21q-3 -9 -13.5 -14.5t-24 -10.5t-27.5 -10.5t-22 -13.5q-3 -3 -8 -8.5t-10.5 -11.5t-10 -11.5t-6.5 -8.5q-3 -4 -20 -39t-42 -85t-54 -107.5
t-54 -107t-43 -84t-21 -38.5q-37 -29 -74 -60t-76.5 -58.5t-83 -49.5t-93.5 -33q-17 -10 -32 -15t-34.5 -8t-47 -4.5t-68.5 -3.5q-48 7 -85.5 18t-68.5 28t-58 41t-54 56z" />
    <glyph glyph-name="v" unicode="v" horiz-adv-x="1177" 
d="M239 662q59 4 101.5 -11t72 -43t48 -66.5t29.5 -81.5t16 -88t8 -86q0 -4 -1 -15t-7.5 -41t-20.5 -84t-39 -144q-2 -6 3 -8t12 -3t13.5 -0.5t8.5 0.5q30 0 64 3t68 7.5t66 10t58 10.5l3 12t3 10q2 7 4.5 18t9.5 34q13 45 24.5 84.5t16.5 55.5q11 33 32 76.5t50 90
t65.5 91.5t78.5 80.5t88 57t94 21.5q26 0 47.5 -6t46.5 -6q8 0 16.5 3.5t10.5 12.5l2 5q-1 7 -1.5 23.5t-1.5 34t-1.5 32.5t-0.5 20q-1 16 -13.5 24.5t-30.5 12t-38.5 4t-37.5 0.5q-50 0 -95 -15t-84 -40t-73.5 -57.5t-63.5 -68.5q-8 -11 -21.5 -36t-29.5 -57t-32 -66
t-29.5 -62.5t-22 -46.5l-8.5 -18h-24l3 50q3 40 6 86.5t1 93t-12 89t-32.5 75.5t-61.5 53t-99 20q-28 0 -75 -11t-94 -29.5t-84 -43t-45 -52.5v-5q0 -2 3.5 -5.5t5.5 -4.5z" />
    <glyph glyph-name="FL0077h" unicode="w" horiz-adv-x="1501" 
d="M652 80q-39 3 -82.5 6.5t-86.5 10.5t-81 19.5t-66 33.5q-31 22 -43 59t-12 82q0 46 7.5 97t17 101.5t16 98t4 85.5t-18 63.5t-50.5 33.5l1 5l2 5q2 2 8 10t9 10q56 6 93 8.5t75 2.5h58h16q11 0 22.5 -0.5t22.5 -0.5h16q22 -17 27.5 -52.5t1 -82.5t-15 -101.5
t-21.5 -109.5t-19 -106.5t-5.5 -93.5t17.5 -69.5t50 -34.5q3 -1 11 0t17 2t17.5 2t11.5 1l24 83l31 106q16 57 32.5 117t33.5 117l30 106l24 83l4 14q-1 6 7.5 8t25.5 3t41.5 1.5t54.5 2.5q38 2 70 3t46 1h10t14.5 0.5t14.5 0.5h10l-193 -646q49 0 93.5 33.5t83.5 86.5
t72 117.5t61 127.5t49.5 116.5t37.5 83.5q28 25 70 39t87.5 21t89 8.5t74.5 1.5q24 0 18 -21q-3 -9 -13.5 -14.5t-24 -10.5t-27 -10.5t-22.5 -13.5q-3 -3 -8 -8.5t-10.5 -11.5t-10 -11.5t-6.5 -8.5q-3 -5 -17 -35t-34.5 -73t-44 -92.5t-44 -92.5t-35.5 -73t-19 -34
q-40 -56 -90 -92.5t-107 -60t-119.5 -36.5t-127.5 -21l-5 -40l-14 -10q-35 -2 -69 -7.5t-68.5 -11.5t-68.5 -10.5t-68 -4.5z" />
    <glyph glyph-name="x" unicode="x" horiz-adv-x="1189" 
d="M36 1l-11 -40q30 4 65 10.5t70 16t68.5 22.5t59.5 31l357 240l2.5 0.5t3.5 0.5t3.5 -0.5l2.5 -0.5q2 -1 8.5 -8.5t9.5 -11.5l122 -160q13 -17 28.5 -33t38.5 -27q26 -12 58 -21.5t67.5 -15.5t72 -9.5t70.5 -3.5h5q4 2 9 9.5t9 10.5l1 2l2 4v4l-82 90l-184 327l332 233
l49 170q1 2 -6 9.5t-12 10.5l-2.5 0.5t-3.5 0.5t-3.5 -0.5l-2.5 -0.5l-422 -292l-142 252l-12.5 0.5t-20.5 0.5h-12q-7 0 -15.5 -0.5t-16.5 -0.5h-7q-14 -1 -52 -4t-81.5 -6t-82 -6t-53.5 -4l-9 -30q17 -8 38.5 -20.5t31.5 -29.5q6 -11 20 -33.5t32 -51t37.5 -60t37.5 -60
t32.5 -51.5t21.5 -34l15 -30z" />
    <glyph glyph-name="y" unicode="y" horiz-adv-x="1501" 
d="M719 290l-84 -294q34 0 68 4.5t68.5 10.5t68.5 11.5t69 7.5l14 10l72 250q65 8 127.5 21t119.5 36.5t107 60t90 92.5q4 4 14 18t23.5 34t28 42t27.5 42t22 34.5t12 19.5q2 3 6.5 8.5t10 11.5t10.5 11.5t8 8.5q9 8 22.5 13.5t27 10.5t24 10.5t13.5 14.5q6 21 -18 21
q-31 0 -74.5 -1.5t-89 -8.5t-87.5 -21t-70 -39q-16 -30 -32.5 -68t-37 -77.5t-45 -77t-55.5 -67t-70.5 -47.5t-88.5 -18l125 436h-10t-14.5 -0.5t-14.5 -0.5h-10q-14 0 -46 -1t-70 -3q-30 -2 -54 -2.5t-41 -1.5t-26 -3.5t-8 -7.5l-4 -14q-29 -103 -53.5 -201t-53.5 -201
q-3 0 -11.5 -1t-17.5 -2t-17.5 -2t-11.5 0q-47 9 -64.5 38.5t-19.5 71t6 89.5t12 93.5t-2 85t-34 62.5h-16q-11 0 -22.5 0.5t-22.5 0.5h-16h-58q-38 0 -75 -2.5t-93 -8.5q-3 -2 -9 -10t-8 -10l-2 -5l-1 -5q47 -10 64.5 -36t20.5 -61.5t-2.5 -77.5t-5 -84t14.5 -81.5
t54 -69.5q28 -21 66.5 -33.5t81 -19.5t86.5 -10.5t82 -6.5z" />
    <glyph glyph-name="z" unicode="z" horiz-adv-x="1049" 
d="M42 20l728 656q4 2 10 10t8 10q0 2 -0.5 3.5t-0.5 2.5q-51 0 -115 5.5t-131.5 3.5t-132.5 -17.5t-118 -57.5h-41q4 15 21 43.5t36.5 56.5t36 49t20.5 21h840l-8 -30l-687 -636q11 -5 28.5 -8.5t35.5 -6t34.5 -4t27.5 -1.5q13 0 38 -0.5t57 -0.5t68.5 -1t72.5 -1t69 -0.5
t59 -0.5h48q-8 -27 -41.5 -48.5t-76.5 -36.5t-87.5 -23t-72.5 -8h-720z" />
    <glyph glyph-name="FL007Bh" unicode="{" horiz-adv-x="757" 
d="M544 726q23 17 47.5 33t53.5 27q33 12 71 21.5t77 15.5t77.5 9.5t72.5 3.5h5q2 -2 3 -9.5t3 -10.5v-2t-1 -4q0 -1 -1 -2.5l-1 -1.5l-134 -90l-371 -327l199 -233l-49 -170q-1 -2 -12 -9.5t-18 -10.5l-2.5 -0.5t-3.5 -0.5t-3.5 0.5l-2.5 0.5l-254 292l-142 168z" />
    <glyph glyph-name="FL007Ch" unicode="|" horiz-adv-x="316" 
d="M428 810l-164 -15l-229 -797q8 0 30 2t50 5.5t58.5 8t56.5 9t43 9t18 8.5l222 771h-17q-12 0 -26 -0.5t-26 -0.5h-16z" />
    <glyph glyph-name="FL007Dh" unicode="}" horiz-adv-x="757" 
d="M629 726q-13 17 -28.5 33t-38.5 27q-25 12 -57.5 21.5t-68 15.5t-72 9.5t-70.5 3.5h-5q-3 -2 -8.5 -9.5t-9.5 -10.5l-1 -2l-2 -4v-4l82 -90l186 -327l-334 -233l-49 -170q-1 -2 6 -9.5t12 -10.5l2.5 -0.5t3.5 -0.5t3.5 0.5l2.5 0.5l423 292l237 168z" />
    <glyph glyph-name="FL007Eh" unicode="~" horiz-adv-x="653" 
d="M112 266l-1 -4q4 -4 17 -7t16 -3q4 1 15.5 11.5t24 23.5t23.5 24.5t14 14.5h418q2 1 7.5 6.5l9.5 9.5q37 45 67 89.5t44 92.5q4 11 -5 15t-20 4h-6l-60 -60l-15 -6t-11 -4h-406q-2 -1 -7.5 -8.5t-10.5 -12.5q-11 -15 -28 -39.5t-34.5 -51.5t-32 -52.5t-19.5 -42.5z" />
    <glyph glyph-name="FL007Fh" horiz-adv-x="307" 
 />
    <glyph glyph-name="FL00A1h" unicode="&#xa1;" horiz-adv-x="298" 
d="M256 12l-130 -10h-17q-12 0 -26 -0.5t-25 -0.5h-17l152 525q1 4 18.5 9.5t43 11t54.5 10.5t53.5 6.5t40 -0.5t13.5 -9zM236 652q-10 0 -9.5 7.5t2.5 12.5l9 32q8 26 19 54.5t30 48.5q29 2 51 2.5t45 0.5t49 -0.5t62 -0.5l-6 -21l-5 -16q-3 -11 -8.5 -26.5t-12.5 -31
t-15 -29.5t-15 -22q-2 -2 -7 -6t-8 -4z" />
    <glyph glyph-name="FL00A2h" unicode="&#xa2;" horiz-adv-x="1033" 
d="M879 799l-163 -15l-41 -142q-85 -7 -160.5 -21t-149.5 -43q-88 -35 -145.5 -87t-78.5 -124q-15 -54 9.5 -94.5t78.5 -67.5t132.5 -42t171.5 -18l-46 -158q8 0 29.5 2t49.5 5.5t59 8t56.5 9t42.5 9t18 8.5l33 115h224l22 71q-66 -2 -120.5 -3.5t-106.5 -3.5l107 375
l102 -37l104 5q59 39 64 57q4 11 -4 19t-24 19h-224l44 154h-16q-12 0 -25.5 -0.5t-25.5 -0.5h-17zM538 208l12 -3l-2 -5l-27 11q6 0 6 -1l-10 3q-35 13 -50.5 32.5t-19.5 43t1.5 50.5t13.5 54q8 28 21 57.5t35.5 56.5t56.5 48.5t85 32.5l-110 -382q-1 1 -7 1q-5 0 -5 1z
M538 208l-11 2q-1 0 1.5 -0.5t9.5 -1.5z" />
    <glyph glyph-name="FL00A3h" unicode="&#xa3;" horiz-adv-x="1098" 
d="M112 266q5 17 19 41.5t31.5 50t34 49t27.5 38.5q5 5 10.5 12.5t6.5 7.5h234l99 345l288 -4l-101 -350l267 -30q3 0 11 -4t10 -6q7 -5 16.5 -15t18 -20t14.5 -17.5l6 -7.5l-9 -30h-372l-60 -210l9 -10q1 -1 23 -3.5t51.5 -5.5t61 -6t51.5 -5h7q8 0 15.5 -0.5t14.5 -0.5h12
q8 0 21.5 0.5l13.5 0.5l148 100l19 -20l-49 -171q-92 0 -179 2.5l-174 5t-177 4t-187 -0.5q-5 3 -17 10t-25.5 15t-24.5 15t-15 10q-12 8 -16 13.5t0 16.5q1 2 2 5.5t2 4.5q23 4 45.5 8.5t42 13t34 22t20.5 36.5l32 111h-222q-3 -3 -11 -8.5t-17 -11t-17.5 -10t-12.5 -5.5
q-3 0 -16 3t-17 7z" />
    <glyph glyph-name="FL00A4h" unicode="&#xa4;" horiz-adv-x="1189" 
d="M403 402q14 48 36 85.5t51 66.5q-17 25 -33 51t-29.5 48.5t-24 40.5t-16.5 27q-10 17 -31.5 29.5t-38.5 20.5l9 30q15 1 53.5 4t82 6t81.5 6t52 4h7q8 0 16.5 0.5t15.5 0.5h12q8 0 20.5 -0.5l12.5 -0.5l86 -154q7 1 13 1.5t13 0.5h26q63 0 120 -20l306 212l2.5 0.5
t3.5 0.5t3.5 -0.5l2.5 -0.5q5 -3 12 -10.5t6 -9.5l-49 -170l-185 -129q11 -44 -6 -105q-21 -74 -65 -135l108 -191l82 -90v-4l-2 -4l-1 -2q-4 -3 -9 -10.5t-9 -9.5h-5q-34 0 -70.5 3.5t-72 9.5t-67.5 15.5t-58 21.5q-23 11 -38.5 27t-28.5 33l-50 64q-55 -13 -123 -13
q-82 0 -137 23l-199 -134q-26 -18 -59.5 -31t-68.5 -22.5t-70 -16t-65 -10.5l11 40l362 265q-18 54 5 136zM573 413q-10 -35 -7 -59.5t16.5 -40.5t36.5 -23.5t54 -7.5q69 0 121.5 35.5t75.5 114.5q9 31 4.5 54.5t-18.5 38.5t-35.5 22.5t-47.5 7.5q-33 0 -64 -7.5
t-57.5 -24.5t-47 -44t-31.5 -66z" />
    <glyph glyph-name="FL00A5h" unicode="&#xa5;" horiz-adv-x="1177" 
d="M262 263l-1 -4q2 -2 7 -3.5t10.5 -3t10 -2.5t5.5 -1q4 1 12.5 5.5t17.5 10t17 11t11 8.5l175 1l-24 -84l-198 -1q-1 0 -6.5 -7.5t-10.5 -12.5q-10 -15 -23.5 -30.5t-26 -32t-23 -33t-15.5 -33.5l-2 -4q4 -4 17.5 -7t16.5 -3q4 1 12.5 5.5t17.5 10t17 11t11 8.5l176 1
l-23 -80q-2 -6 3.5 -8t12.5 -3t13.5 -0.5t8.5 0.5q30 0 64 3t67.5 7.5t65.5 10t59 10.5l7 25q2 8 4 17t5 19l182 1q1 0 6.5 5.5l9.5 9.5q18 22 31 35t23.5 25t18.5 26t15 38q4 11 -5 15t-20 4h-6l-42 -20q-5 -2 -15.5 -6t-11.5 -4l-149 -1q7 25 13.5 46t11.5 38l183 1
q1 0 6.5 5.5t10.5 9.5q18 22 31 35t23.5 25t18 26t14.5 38q3 11 -5 15t-20 4h-6l-42 -20q-5 -2 -15.5 -6t-11.5 -4l-132 -1q26 45 62 89t79.5 79t94 57t105.5 22q26 0 47 -6t46 -6q8 0 16.5 3.5t11.5 12.5l1 5q0 7 -1 23.5t-1.5 34t-1 32.5t-0.5 20q-1 16 -14 24.5t-31 12
t-38.5 4t-37.5 0.5q-50 0 -94.5 -15t-84 -40t-73.5 -57.5t-63 -68.5q-14 -16 -32 -44t-35.5 -55t-30 -47t-13.5 -20h-24l2 50q5 60 3.5 114t-23.5 94.5t-71 64.5t-139 24q-19 0 -46.5 -5t-59 -14t-63.5 -21.5t-58.5 -27.5t-46 -32.5t-24.5 -35.5v-5q0 -2 3.5 -5.5t5.5 -4.5
q89 6 146.5 -10t92 -50t50 -84t19.5 -112l-1 -1l-179 -1q-1 0 -7.5 -7.5t-10.5 -12.5q-10 -15 -23.5 -30.5t-26.5 -32t-23.5 -33t-15.5 -33.5z" />
    <glyph glyph-name="FL00A6h" unicode="&#xa6;" horiz-adv-x="318" 
d="M444 857l-165 -15l-263 -911q8 0 30 2t50 5.5t58.5 8t56.5 9t43 9t18 8.5l256 885h-17q-11 0 -25 -0.5t-25 -0.5h-17z" />
    <glyph glyph-name="FL00A7h" unicode="&#xa7;" horiz-adv-x="1068" 
d="M403 402q14 48 36 85.5t51 66.5q46 37 93.5 59t91.5 34t81 16t61 6q63 0 120 -20l306 212l2.5 0.5t3.5 0.5t3.5 -0.5l2.5 -0.5q5 -3 12 -10.5t6 -9.5l-49 -170l-185 -129q11 -44 -6 -105q-21 -74 -65 -135q-39 -49 -98.5 -82.5t-122.5 -54.5q-55 -13 -123 -13
q-82 0 -137 23l-199 -134q-26 -18 -59.5 -31t-68.5 -22.5t-70 -16t-65 -10.5l11 40l362 265q-18 54 5 136zM573 413q-10 -35 -7 -59.5t16.5 -40.5t36.5 -23.5t54 -7.5q69 0 121.5 35.5t75.5 114.5q9 31 4.5 54.5t-18.5 38.5t-35.5 22.5t-47.5 7.5q-33 0 -64 -7.5
t-57.5 -24.5t-47 -44t-31.5 -66z" />
    <glyph glyph-name="FL00A8h" unicode="&#xa8;" horiz-adv-x="588" 
d="M481 812q11 0 10.5 -7.5t-2.5 -12.5l-9 -32q-8 -26 -19.5 -54.5t-31.5 -48.5q-28 -2 -50 -2.5t-45 -0.5t-48.5 0.5t-61.5 0.5l6 21l4 16q3 11 8.5 26.5t12.5 31t14.5 29.5t15.5 22q2 2 7.5 6t7.5 4zM772 813q10 0 9.5 -7.5t-2.5 -12.5l-9 -32q-8 -26 -19 -54.5t-30 -48.5
q-29 -2 -51 -2.5t-45 -0.5t-49 0.5t-62 0.5l6 21l5 16q3 11 8 26.5t12 31t15 29.5t16 22q2 2 7 6t8 4z" />
    <glyph glyph-name="FL00A9h" unicode="&#xa9;" horiz-adv-x="2803" 
d="M250 272l64 222q1 3 15.5 9.5t37.5 15t52 18t57 19t53.5 17.5t42.5 13l-35 -123zM2116 743l-201 -701h126l201 701h-126zM736 294q-2 -10 10 -19.5t19 -13.5q2 -2 4 -2q14 -7 50 -26.5t81.5 -44.5t94 -51.5t88.5 -48.5q23 -12 41 -21.5t29 -16.5l6 -3h-1q5 -3 11.5 -5
t23.5 -2l35 121l-10 11q-52 23 -109.5 52t-104.5 61l9 6l-2 -1l261 121l26 17q-13 4 -21.5 8t-16.5 8q-8 3 -14 9q-13 6 -46 22.5t-68 33.5q-18 8 -32.5 14.5t-23.5 11.5q8 3 12 5t8 3q10 4 30.5 12.5t46 19.5t53.5 23.5t53.5 23.5t46 19.5t30.5 12.5l17 12l35 123
l-553 -222l-2 -1t-5 -2q-8 -4 -19.5 -10t-26.5 -19l14 -13q5 -2 15.5 -8t23.5 -14q25 -12 48.5 -25t31.5 -18q15 -8 31.5 -19t27.5 -24l-251 -109q-5 -6 -5.5 -7.5t-1.5 -3.5zM2224 189l-1 -11q9 -9 35.5 -32t56.5 -49t57 -49t38 -32q2 -1 4.5 -4t6.5 -5l-1 1
q4 -2 10.5 -5.5t10.5 -5.5l454 448h-398q1 1 1.5 2l0.5 1q8 8 29.5 28.5t46 43.5t46.5 44t31 30q3 1 3 3q8 -5 18.5 -12.5t22.5 -15.5q10 -6 17.5 -12t11.5 -8q1 -1 4.5 -2t5.5 -2h-1q4 -2 11.5 -3.5l7.5 -1.5l15 12l76 62q-6 7 -23 24t-36.5 36t-36.5 35.5t-23 22.5
q-1 1 -6 4.5t-12 8t-14.5 9.5t-13.5 8q-1 1 -4 2t-7 3q-2 2 -4.5 2.5t-12.5 0.5l-441 -450h392l-139 -141q-4 -3 -7 -7.5t-4 -4.5q-11 0 -23 11.5t-26 25.5q-14 16 -30.5 30t-36.5 20q-4 -2 -14 -8t-23 -13.5t-26 -14.5t-22 -11q-3 -2 -7.5 -4.5l-4.5 -2.5q-4 -2 -8.5 -5.5
t-6.5 -5.5zM1493 750l-204 -711q19 4 30.5 8t20.5 7l14 4q19 5 53.5 17.5t79.5 28.5q50 18 105.5 37.5t106.5 37.5t91.5 32.5t59.5 21.5l-2 -1q4 2 10 6t10 7q4 6 4 7q1 1 1 2q0 2 -2 10l-76 221q-43 -11 -86.5 -27t-75.5 -28q-1 -4 0 -13t3 -13l-1 1l36 -84q2 -6 11 -17
t12 -11l-12 -8l-198 -68l114 396l301 -38h12q5 2 11.5 7.5t10.5 8.5q5 6 12.5 20t16.5 30q8 14 14 24t9 16l5 16q-3 1 -10 3t-15 3.5t-15.5 3t-10.5 1.5q-26 3 -62 6.5t-75.5 7.5t-80.5 8t-75 8q-49 5 -80.5 8.5t-34.5 3.5h-38zM199 567l-149 -518h127l5 16q3 12 9.5 28
t10.5 23q2 1 3.5 2t3.5 3l-2 -1q6 4 15.5 10t19 12.5t18.5 12.5l15 10v-1q10 7 37.5 23t60 35l65 38t54.5 32l-68 -235h140l207 719z" />
    <glyph glyph-name="FL00AAh" unicode="&#xaa;" horiz-adv-x="667" 
d="M170 468l-4 -15q0 -1 13 -3t21 -2h5q4 0 8.5 -0.5t8.5 -0.5h7q4 0 11.5 0.5l7.5 0.5l8 5l71 80q9 10 30 15.5t46 8.5t50.5 4t43.5 2l32 2q16 1 22 -16.5t7.5 -38.5t2.5 -39t7 -18h186q2 0 7 5l2 2q2 6 -5 8t-10 5q-17 14 -28 34.5t-17 40.5l-85 310q0 5 -10 5
q-14 0 -31 -5.5t-28 -9.5q-18 -6 -29 -14.5t-19.5 -18.5t-16 -22t-18.5 -25l-71 -80q-53 -57 -108 -113t-117 -107zM400 620l1 3l95 106l5 -6l25 -110h-122l-2.5 1.5t-2.5 3.5z" />
    <glyph glyph-name="FL00ABh" unicode="&#xab;" horiz-adv-x="576" 
d="M391 304q-2 -8 4.5 -9t12.5 -1q12 -14 37 -35.5t50.5 -41.5t45.5 -34.5t21 -14.5h25q9 30 15.5 51.5t12.5 40.5l4 14l3 11l3 11l2 7q2 6 2 11q-5 2 -17 9.5t-26 18t-27 21t-20 18.5q11 7 30 17.5t38 20.5t35 18.5t21 10.5q2 3 2.5 5.5t1.5 4.5l3 8l3 12q2 5 2.5 10.5
t2.5 14.5q5 19 11 40.5t15 51.5h-25q-1 0 -14.5 -7t-34.5 -18t-46.5 -25t-50 -28t-46 -27t-33.5 -22q-12 -2 -15 -9q-3 -2 -3 -3zM123 302q-3 -8 4 -9t13 -1q12 -14 37 -35.5t51 -41.5t45.5 -34.5t20.5 -14.5h25q8 30 15 51.5t12 40.5l4 14l3 11l3 11l2 7q2 6 2 11
q-5 2 -16.5 9.5t-25.5 18t-27 21t-20 18.5q11 7 30 17.5t38 20.5t35 18.5t22 10.5q2 4 4 10l2 8l3 12q2 5 2 10q0 6 3 15q5 19 11 40.5t14 51.5h-25q-2 0 -30 -14.5t-65 -35t-73.5 -42t-54.5 -35.5q-13 -2 -16 -9q-4 -2 -4 -3z" />
    <glyph glyph-name="braceleft" unicode="&#xac;" horiz-adv-x="859" 
d="M176 199q2 5 6 16t6 19l3 9q11 39 8 76.5t-9 74.5t-8 75t12 78q10 45 39 89t70.5 81.5t93.5 65.5t108 40q26 6 58 9.5t63 11.5h176l36 -14q-18 -8 -33 -22.5t-27 -31.5t-22 -33.5t-18 -28.5q-73 1 -144.5 -11t-131.5 -40.5t-105 -75t-64 -114.5q-8 -26 -9 -51t-1 -50
t-1.5 -50.5t-8.5 -51.5q-6 -23 -21 -46t-37 -43.5t-49 -35.5t-57 -21l1 4q1 0 8 8t15.5 18t16.5 19.5t11 11.5q2 2 7 7.5t8 6.5zM526 92q-25 0 -51 -7t-51.5 -16t-51 -19t-49.5 -16q23 30 32.5 51t17.5 48q9 32 11 61.5t2 58.5t1.5 58t10.5 60q12 41 36 76.5t57.5 61.5
t76 41t91.5 15q24 0 53 -7.5t46 -21.5q10 -10 25.5 -31.5t32 -49t32.5 -58t27.5 -59t17.5 -52t2 -36.5q-27 0 -44.5 8t-29 20t-19.5 26t-16 26t-19 20t-29 8h-11q-10 0 -21 -2t-13 -9q2 -9 11 -13t20 -7.5t20.5 -9.5t11.5 -19q-5 -21 -10 -47t-7.5 -54.5t-0.5 -58t13 -56.5
q9 -12 20 -34t6 -42q-51 0 -92 9t-79 29q-3 0 -12 5t-19 12t-18.5 13t-11.5 8l-9 9zM306 339l1 2q1 4 10 7t12 3q-14 0 -21 13t0 24q2 2 10 5t14 4q5 0 17.5 0.5t20.5 0.5h8q-3 -10 -8 -19t-16 -19q10 2 14.5 0t5.5 -5.5t-0.5 -8l-2.5 -7.5q-3 -11 -10.5 -21.5t-16 -21
t-17.5 -21.5t-15 -24q-4 20 -8 43.5t2 44.5zM320 449q17 0 34 4.5t32 9.5h-63l2 8q3 10 5.5 15t9.5 16q5 7 7 11t4 7q12 -6 16.5 -7.5t7.5 -1.5q4 0 9 1t16 1l2 7l-36 17l42 43l2.5 0.5t3.5 0.5l5 -1l34 -26l4 -2q1 0 2.5 1t4.5 1l-29 43l51 34q1 0 4.5 -3t1.5 -6
q1 -2 3.5 -10t5 -18.5t4 -19.5t0.5 -12l-1 -3q-2 -9 -5.5 -11t-10.5 -2q-6 0 -11 0.5t-10 0.5q-8 -27 -20.5 -51t-32 -43t-45.5 -31t-61 -15zM531 645q3 10 15.5 14t19.5 4h7q1 -18 -1.5 -31t-7.5 -30q-2 -7 -5.5 -20t-15.5 -13q-3 0 -3.5 0.5l-0.5 0.5q1 2 -0.5 9.5
t-3.5 15.5t-3.5 15t-1.5 9q-1 6 -1.5 16t2.5 10zM599 652l7 26q14 4 24.5 6t20 3t18.5 1h20h29q-14 -10 -32.5 -28.5t-36.5 -37t-34.5 -31.5t-27.5 -11q1 22 3.5 36.5t8.5 35.5z" />
    <glyph glyph-name="FL00ADh" unicode="&#xad;" horiz-adv-x="556" 
d="M113 269l-1 -4q4 -4 17 -7t16 -3q4 1 12.5 5.5t17.5 10t17 11t11 8.5l326 -1q2 0 7.5 5.5t8.5 9.5q38 45 68 85.5t44 88.5q3 11 -5.5 15t-20.5 4h-6l-42 -20l-15 -6t-12 -4l-314 1q-1 0 -7 -7.5t-11 -12.5q-10 -15 -27 -38.5t-34 -49t-31 -50t-19 -41.5z" />
    <glyph glyph-name="FL00AEh" unicode="&#xae;" horiz-adv-x="2812" 
d="M2655 589q-5 -5 -6 -5q3 2 6 5zM279 298l56 194q1 3 26.5 12.5t61.5 21t75 23.5t67 20l-30 -104zM2101 744l-201 -703h147l201 703h-147zM732 297q-4 -13 8.5 -23.5t21.5 -15.5q3 -5 7 -5q15 -8 51 -27t81 -42.5t93 -49t87 -46.5q21 -12 39 -22t29 -17l6 -2h-1
q6 -4 15 -6t37 -2l38 131l-15 16q-48 20 -102 46t-99 55l246 114l49 31q-20 6 -31.5 10.5t-15.5 6.5q-16 8 -17 9q-6 3 -18.5 9.5t-29 14.5t-34.5 16.5t-34 16.5q-11 5 -20.5 9t-17.5 9q21 9 58 24.5t76.5 32t73.5 31t48 20.5l22 14l40 140l-570 -226q0 2 -2 0
q-9 -5 -21.5 -11.5t-36.5 -26.5l20 -21q6 -2 16 -7.5t24 -12.5q11 -6 23 -12.5t23 -12.5t20 -10.5t13 -7.5l-1 1q12 -7 25.5 -15t24.5 -17l-239 -104q-6 -7 -7 -8.5t-3 -6.5zM2210 199l-1 -23q10 -9 36.5 -32t56 -49t56 -48.5t36.5 -31.5q4 -1 14 -6l-3 1q5 -4 14.5 -8.5
t15.5 -7.5l471 459h-396q11 11 28.5 28t37 35t37.5 34.5t31 27.5q6 -4 14.5 -10t16.5 -11q10 -6 18.5 -12t12.5 -8q2 -1 5 -2t5 -3l-1 1q5 -2 16.5 -4l11.5 -2q12 8 14 10t7 5l82 68q-7 6 -24.5 23.5l-37.5 37.5t-38 37.5t-24 23.5l1 -1q0 1 -5.5 4.5t-13 8t-15.5 9t-13 7.5
q-7 5 -13 7q-2 3 -6.5 3.5t-19.5 0.5l-455 -459h387l-127 -128q-2 -2 3 -2q-8 1 -17.5 10.5t-20.5 22.5q-14 16 -32 30t-45 21q-5 -2 -20.5 -10.5t-33 -18t-31 -17l-13.5 -7.5q-5 -2 -12 -6.5t-10 -7.5zM1482 751l-205 -715q18 4 29.5 6.5t19 4t12 3t8.5 3.5l-1 -1
q5 2 10 3.5l5 1.5h-1q17 6 53 18t81 28q49 17 104 36t105 36.5l90 31.5t59 21l-8 -1q8 2 18 8t14 9q3 4 3.5 5t2.5 6q1 3 1 4v8l-80 227q-51 -13 -100 -30t-81 -29q-2 -5 -0.5 -18.5t3.5 -18.5l-1 2l35 -82q2 -3 14 -8t19 -5l-15 -10l-175 -58l103 359l286 -35h18q8 2 16 9
t12 9q5 6 13.5 22t17.5 31q7 13 13.5 25t11.5 17l7 22q-5 1 -13 3t-17 4t-17.5 4t-12.5 3q-26 2 -61.5 5.5t-75 8t-80 8.5t-76.5 7h1q-48 5 -80.5 8.5t-35.5 3.5h-49zM199 569l-149 -521h150l7 25q3 10 8.5 24t10.5 22q3 3 5 4l-3 -2q5 4 13.5 9.5t18 11.5t18.5 12l15 10
l-1 -1q10 6 32 19t49 28.5t56.5 32.5t53.5 31l-63 -219h164l208 727z" />
    <glyph glyph-name="FL00AFh" unicode="&#xaf;" horiz-adv-x="638" 
d="M227 665l-1 -4q3 -4 16.5 -7t16.5 -3q4 1 12.5 5.5t17.5 10t17 11t11 8.5l418 1q1 0 6.5 5.5l9.5 9.5q18 22 31.5 34.5t23.5 23.5t17.5 25t14.5 38q3 11 -5.5 15t-20.5 4h-6l-41 -20q-5 -2 -15.5 -6t-11.5 -4l-405 -1q-2 0 -8 -7.5l-10 -12.5q-11 -15 -24 -30t-25.5 -31
t-23 -32t-15.5 -33z" />
    <glyph glyph-name="FL00B0h" unicode="&#xb0;" horiz-adv-x="1278" 
d="M626 56q1 -5 4.5 -18.5t6.5 -17.5q2 -4 1.5 -10.5t4.5 -9.5l45 52l2 8q-2 11 -4 26.5t2 29.5q2 4 3.5 6t8.5 2q5 0 6 -6.5t1 -15.5t1.5 -17t6.5 -11q3 0 5 2l27 22l3 3v1l1 1l-18 33l1 3q1 7 12 7h3l34 -27l1 -1q4 0 9 3t10 5q2 1 14 3.5t15 4.5l1 2l-8.5 4t-12.5 6
l-15 5l-20 10l124 64l7 4q-5 6 -12 6h-1q-1 -1 -7.5 -4t-7.5 -4l-189 -91q-2 0 -4 -0.5l-2 -0.5h-4q-4 0 -7 4l-157 96h-2h-2l-13 -6l4 -4q23 -18 45.5 -32t49.5 -29l3 -3q-6 -5 -21.5 -9t-20.5 -6t-16 -6l-11 -4l-1 -2q4 -2 13 -4.5t12 -3.5q4 -2 7.5 -5t7.5 -3l1 1
q5 2 14.5 7t17.5 10q5 4 10 7t9 3h1h3l3 -2t3 -3v-2q-2 -5 -7.5 -9.5t-11.5 -8.5t-12 -8.5t-7 -9.5l1 -2q2 -3 7 -12t7 -11v-4l2 -1q1 0 1.5 0.5l0.5 0.5q3 2 9.5 10.5t14 17.5t13 16.5t7.5 7.5h1q0 -2 7 -2q-9 -18 -19 -35t-22 -33zM596 124q-3 0 -3 -3q-2 -2 1 -2t5 2
q0 3 -3 3zM381 183q-5 -16 -18 -23.5t-15 -11.5q19 0 30.5 12.5t15.5 25.5l2 6q2 14 1.5 31.5t-0.5 28.5v10q-7 23 -8.5 43.5t6.5 46.5l5 17q4 13 10 25.5t17 23.5l-1 -4q-5 -16 -13 -31t-13 -32q-6 -19 -6.5 -39.5t6 -38t21.5 -28.5t42 -11h2q3 0 4.5 0.5t4.5 0.5h2
q-4 0 -4 2q-1 0 -5.5 1t-9.5 2.5t-9 2.5t-4 2q-34 14 -40.5 44t3.5 62q5 17 12.5 34.5t22.5 32.5q7 2 16.5 4.5t18 6t15 8.5t8.5 12l2 7q-4 -6 -12 -11.5t-17 -9.5t-18 -6t-16 -2q-14 0 -25.5 5t-7.5 17q2 7 7.5 13.5t15.5 6.5q5 0 11 -4t4 -9l-1 -2q0 -1 -2.5 -4.5
l-2.5 -3.5q0 -2 2 -2q4 1 9.5 8.5t10.5 17t9 18t5 11.5l1 3l4 14l2 6q3 11 4.5 21t5.5 21l1 3q6 -11 1 -26l-9 -27q-11 -38 -35 -70q1 0 4 -0.5t4 -0.5q16 0 28.5 8.5t22 20.5t15.5 25.5t9 22.5t4 21t-0.5 23t-7 20.5t-16.5 13.5h-3q-6 0 -15 -6t-9 -12q-7 2 -4 9q1 7 21 14
q-1 3 -5 4t-9 1.5t-9 1t-5 0.5q3 5 9 5h13q8 0 14 -4t14 -4h3q-6 26 -27 44.5t-56 18.5q-12 0 -27.5 -5t-18.5 -16l-1 -4q0 -2 1 -2q11 10 23 10t14 -5.5t0 -13.5q-3 -9 -12.5 -14.5t-19.5 -5.5q-17 0 -28 10.5t-7 24.5q6 22 28.5 32.5t48.5 14.5l1 4q-23 32 -33 72t2 82
q4 14 11.5 27t11.5 26l1 3q-19 -18 -29.5 -38t-15.5 -40q-4 -13 -6 -24.5t-5 -24.5l-2 -7q-4 22 -1.5 45.5t9.5 46.5q4 14 7 23t13 26h-1q-4 0 -9.5 -6t-11 -13.5t-9 -15t-4.5 -10.5l-1 -4q-2 -5 -3.5 -8.5t-3.5 -8.5l-2 -8q-5 -19 -5.5 -36.5t-5.5 -37.5l-1 -3
q-9 8 -12 23.5t-2.5 33t3.5 34t6 26.5q-8 0 -12 -8t-6 -16l-2 -8q-8 -26 -5.5 -51.5t9.5 -48.5l-1 -3q-16 16 -20.5 38t-9.5 43l-2 3q-1 -2 -3.5 -5.5t-2.5 -4.5q-5 -15 -3 -28t6 -25t9 -23.5t7 -24.5h-2q-1 0 -8 6.5t-9 10.5q-4 4 -7 11.5t-6 14.5t-7 12.5t-8 5.5
q-8 -26 -3.5 -46t19.5 -40l-1 -0.5t-2 -0.5v1q-1 1 -6.5 3.5t-6.5 4.5q-2 1 -9 5.5t-9 5.5h-5q-3 -11 3.5 -18.5t4.5 -17.5q-3 0 -7 0.5t-6 0.5q-1 0 -2 -0.5l-1 -0.5q-1 -3 3 -8.5t9.5 -11t11 -10t7.5 -6.5l-4 -4h-30q0 -8 8 -12.5t17 -6.5l-1 -3q-3 -1 -11.5 -4.5
t-9.5 -6.5l-1 -1l3 -2l23 -15l2 -3q-5 -2 -10.5 -3.5t-9.5 -3.5l4 -6l35 -15l-28 -4l-2 -4l6 -2t11 -3l25 -5q-8 -2 -19.5 -6t-17.5 -9v-1q-1 -3 1.5 -4.5t6 -2.5t7 -1.5t4.5 -0.5q3 -1 11.5 -1.5t11.5 -0.5q-5 -2 -16.5 -6t-17.5 -9l-1 -2v-1q0 -4 4 -4h54
q-13 -7 -25.5 -14t-16.5 -19q12 0 28 4.5t27 7.5h1h3l-42 -28q-1 -1 -4 -3.5t-4 -3.5l-0.5 -0.5t-0.5 -1.5v-1h1q-1 -1 2.5 -2t4.5 -1q4 1 14.5 3.5t15.5 4.5h1h3q-8 -4 -17.5 -11.5t-11.5 -12.5v-2q-1 -1 3 -1h2q8 1 16 5t15 4h2q-10 -8 -18 -16t-11 -19q10 0 20.5 4
t19.5 8q-1 -2 -5.5 -7.5t-9.5 -10.5q-2 -3 -2.5 -4t-2.5 -4q-2 -2 -2 -3v-1q-2 -3 5 -3q6 0 14.5 5t16.5 8q-6 -7 -8.5 -13.5t-4.5 -14.5h8q6 6 12.5 11t14.5 10l-3 -10q-8 -25 -17 -46t-14 -50q-6 -13 -20 -13q-5 0 -6.5 0.5t-3.5 5.5q-1 1 0.5 1.5l1.5 0.5h11l2 8h-6
q-6 0 -11 -1t-7 -7q-4 -16 18 -16q8 0 14.5 4.5t12.5 4.5q7 0 9.5 -3.5t2.5 -8.5q0 -4 -1.5 -9.5t-2.5 -8.5q-3 -11 -10.5 -21t-24.5 -10q-8 0 -14 2.5t-4 10.5t9.5 13t14.5 5q8 0 5 -6q0 -2 -2 -5t-3 -6q5 0 9.5 3.5t5.5 7.5q3 8 -2.5 10.5t-12.5 2.5q-14 0 -21.5 -7.5
t-10.5 -18.5q-4 -11 6 -15t21 -4q17 0 28 10.5t15 22.5q4 13 3 25.5t-3 24.5t-4 24.5t0 25.5h5q-3 -17 -0.5 -33t6.5 -32.5t5.5 -33t-3.5 -33.5zM991 185q-4 -12 -1 -24t21 -12h4q-8 8 -13 14.5t-2 18.5q5 18 17 35.5t25.5 35t26 34.5t19.5 35l-2 -9q-4 -13 -12 -25
t-16.5 -24t-16.5 -24t-11 -25q-5 -14 1 -23.5t23 -9.5q12 0 23 4t15 15q2 10 -1 18t-17 8q-6 0 -13 -2.5t-10 -10.5q-2 -5 -0.5 -7t7.5 -4l4 14q1 0 5.5 1.5t7.5 1.5q2 -2 6 -6.5t4 -6.5v-5q-2 -7 -11 -10t-17 -3q-17 0 -18 11t3 22q2 5 7 16.5t15 11.5q8 0 12.5 -4.5
t14.5 -4.5q8 0 16.5 5t9.5 14q-2 2 -3 3.5t-6 1.5h-4h-6q-2 0 -5 -3q-2 -1 -2 -2l-1 -1v-2h12l1 -1.5t-1 -3.5q0 -3 -6 -3h-6q-7 0 -8.5 1.5t-3.5 6.5l3 13l6 18l5 20l4 12q0 1 1 6t2 11t2 11.5t1 6.5l2 7l2 6l16 -21h9q2 8 1 14t1 12l1 2q5 -5 11 -9t16 -4q2 8 -0.5 14
t-0.5 14q10 0 15 -3t15 -3q3 9 0 17.5t-8 14.5l1 2q2 -2 10 -5.5t15 -3.5t7 4q2 5 -4 13t-8 10h1q10 0 17 -3.5t17 -3.5l2 7l-31 33h3q14 0 23 -5.5t20 -5.5q3 0 6 0.5t4 3.5l-1 1.5t0 2.5q-3 2 -11 12t-9 12h50q1 0 3.5 1.5t4.5 2.5v1q1 3 -3 5t-7 4q-2 1 -9 3.5t-9 4.5
l43 5q3 0 5 5q1 4 -2 6t-7 3.5l-8 3t-5 4.5l25 5q1 1 8.5 2.5t8.5 4.5l1 2l-26 4q12 5 24.5 8.5t25.5 8.5l1 4q1 3 -5 4t-8 3q8 5 21 9.5t15 12.5q2 5 -4 7t-11 3q3 3 8.5 4.5t11.5 4t11 5.5t6 8h-35q14 11 29.5 18.5t29.5 21.5q-2 2 -10 2.5t-11 1.5q12 7 20 14t11 18h-4
l-41 -19q-5 -3 -8 -3q19 17 39 36.5t26 41.5l2 6q1 4 -3 4h-2q-17 -17 -35.5 -34.5t-42.5 -28.5l-1 1q0 1 1 1.5l1 0.5l13 10q19 20 37.5 42t25.5 46l3 10l-2 3l-3 -3t-2 -3l-14 -22q-15 -18 -29 -32.5t-34 -25.5v2q22 26 39 50.5t25 53.5l1 4l4 13l-3 13h-3q-3 -11 -10 -28
t-17 -35t-21.5 -33.5t-24.5 -22.5l1 3q5 20 17 40.5t18 41.5q5 16 6 34.5t-9 32.5l-23 -82q-10 -34 -38 -64v2l1 2q7 17 13.5 29.5t11.5 29.5v1q1 6 3.5 17t2.5 12q0 2 -0.5 8.5t-0.5 13.5q0 8 -1 14t-3 7l-2 -4q-3 -11 -5 -22t-5 -22q-14 -47 -45.5 -84t-72.5 -75v-2l20 -6
t17 -7.5t10 -12t0 -19.5q-5 -14 -18.5 -25t-31.5 -11q-14 0 -21 6t-4 17q2 6 10 10.5t16 4.5t9.5 -5.5t9.5 -5.5q5 15 -7 21.5t-29 6.5q-32 0 -58.5 -17t-49.5 -38q-4 -4 -4.5 -5l-1.5 -3l-1 -2q19 10 36 10h11q10 0 8 -5q-2 0 -14 -1.5t-17 -3.5v-2q2 -2 8 -5t5 -6
q-1 -1 -2.5 -3t-3.5 -4q-8 -9 -13 -16.5t-8.5 -14.5t-6.5 -15t-6 -20l-2 -8q-2 -5 -2.5 -9.5t-2.5 -9.5l-1 -3q-1 -3 -1.5 -11t-0.5 -16q0 -7 1.5 -13t5.5 -6l5 19q2 3 6 3.5t8 0.5h2q20 0 15 -17q-4 -12 -18 -17t-28 -5q-17 0 -28.5 8t-19.5 19l-1 -5q-3 -10 1.5 -14.5
t12 -6.5l15 -4t11.5 -6q8 -14 6 -32.5t-7 -34.5q-11 -35 -37.5 -65t-70.5 -44q-6 -2 -16 -2.5t-12 -4.5q1 0 5 -0.5t7 -0.5q27 0 48.5 11.5t38 28.5t28 38t16.5 39q5 16 4.5 30.5t4.5 28.5q0 1 1 3t1 3q4 -14 1.5 -31.5t-7.5 -33.5q-6 -22 -19.5 -42.5t-27.5 -40.5
t-27.5 -40.5t-19.5 -42.5zM457 344q-10 -32 -2 -62t38 -47q5 1 14 7q-3 5 -10.5 7t-9.5 8q-14 25 -17 48.5t5 55.5q-4 -2 -9.5 -5.5t-5.5 -4.5l-1 -2.5t-2 -4.5zM908 242q3 -6 11 -6q6 0 8.5 2t8.5 7q31 20 52 43t29 52q2 5 2 11q0 7 -6 7q-8 -18 -15.5 -31t-16.5 -24.5
t-20 -22.5l-25 -25q-5 -6 -13.5 -7t-14.5 -6zM946 247q-2 0 -4 -2q0 -3 2 -3q4 0 4 3q2 2 -2 2zM370 322q3 0 3 -1t-2.5 -1.5t-1.5 1.5v1h1zM1157 395q4 0 4 -2q-2 -2 -5 -2h-1l1 2q0 1 0.5 1.5zM1088 420q3 0 3 -2t-4 -2v2t1 2zM1046 522q-3 -12 -5 -26t1 -25.5t12 -19.5
t27 -8l1 3l-2 8q-1 4 0 16t1 14q-1 8 0 13.5t3 11.5l3 10q6 20 15 33.5t26 32.5l1 4h-2l-12 6h-1h-1q-14 -12 -24 -23t-17 -22.5t-12.5 -23.5t-11.5 -27l1 3l3 11l1 4q14 45 56 81h-2q-1 -2 -5 -3.5t-6 -2.5q-23 -14 -34 -32t-16 -38zM497 459q-4 0 -4 -3q-2 -2 2 -2l2 2
q1 2 0.5 2.5zM477 469l2.5 -1.5t3.5 -1.5l-1 -2q-1 -2 -4.5 -3t-7.5 -1h-3q1 3 3 6t7 3zM1070 469q3 0 2.5 -3.5l-0.5 -3.5h-12q2 7 10 7zM1209 473q1 0 0 -1q0 -3 -2 -3q-3 0 -3 3q1 1 5 1zM487 489h2q7 0 5 -5q-1 -2 -4 -2.5t-5 -0.5zM506 484v-2q0 -1 -2 -1q-1 0 -1 1
q0 2 3 2zM1068 489q3 0 4 -3t0 -5h-11q1 2 2 5t5 3zM1053 497l-2 -6l-1 -4q-6 -3 -3 4q1 6 6 6zM522 562l1 2q6 -11 3 -23l-7 -24l-1 -5l-4 -15l-2 -6q2 6 4.5 22t3.5 22q2 6 1 13t1 14zM494 509q4 0 7.5 -0.5t2.5 -3.5v-1q-4 -2 -5 -2l-0.5 -0.5t-1.5 -0.5q-4 0 -4 3t1 5z
M1065 509h3q9 0 7 -2q0 -1 -2.5 -3l-2.5 -2v-1h-1q-4 0 -4.5 3t0.5 5zM499 527q2 4 6 4.5t7 0.5l-2.5 -5t-6.5 -3q-3 0 -3 3h-1zM1068 527q2 4 6 4.5t5 0.5l-2.5 -5t-3.5 -3h-3q-1 0 -1 3h-1zM1079 553l2.5 1.5t4.5 2.5q4 1 4.5 -1t0.5 -3q-2 -3 -3.5 -5.5t-4.5 -0.5
q-1 0 -3 2t-1 4zM506 554h8l-2 -5h-8zM514 585q0 1 2 3q3 -4 5.5 -8.5t0.5 -9.5v-3q-3 2 -5 8.5t-2 9.5h-1zM489 572l1 -1q-1 -1 -2.5 -1.5t-0.5 1.5l0.5 0.5t1.5 0.5zM498 573l1 1h1q0 1 3 3t4 3q2 -2 1 -4l-1 -5l-1 -2q-2 0 -5.5 0.5t-2.5 3.5zM1097 574q1 6 7 6q3 0 3 -2
v-4q-2 -5 -8 -5q-4 0 -2 5zM401 589q2 8 9.5 14.5t17.5 6.5h3q-4 -2 -11 -6.5t-9 -5.5l-2 -7q-4 -14 17 -19q-2 0 -4 -0.5t-5 -0.5q-21 0 -16 18zM1208 589q3 14 -12 21h1q11 0 15 -6.5t2 -14.5q-5 -18 -28 -18h-3q-4 0 -5 1q7 2 17.5 5.5t12.5 11.5zM488 578l-1 -1
q1 0 1 -2q0 -1 -1 -1q-2 0 -2 1q0 3 3 3zM513 592l1.5 -0.5t0.5 -2.5q0 -1 -2 -1h-1q-2 0 -2 1q0 3 3 3zM512 595v-3l-2 -3q-4 0 -2 3q0 3 4 3zM508 598q3 0 3 -3q-2 -3 -4 -3q-3 0 -1 3q0 3 2 3zM540 641q-6 -19 7 -31l9 30l9 3.5t21.5 8t26 9l22.5 7.5q36 12 74 18.5
t77 11.5q7 1 14.5 1.5t13.5 0.5h29q69 0 130 -15.5t115 -41.5q0 -1 1 -2l1 -1l-8 -27q10 1 16 11t8 16v10q-4 8 -17 13.5t-24 9.5q-51 20 -103 31t-114 11q-59 0 -115.5 -8.5t-116.5 -27.5q-6 -3 -17 -7t-21 -7.5t-17.5 -6.5l-7.5 -3l-8 -5q-1 0 -2.5 -3.5t-2.5 -5.5z
M438 615q2 0 2 -2q-2 -3 -3 -3q-4 0 -2 3q0 2 3 2zM1190 615q4 0 4 -2q-2 -3 -5 -3t-1 3q0 2 2 2zM455 632q3 11 12 11q13 0 10 -9q-1 -3 -4 -8t-8 -3q-8 1 -10 2.5t0 6.5zM510 625h1q2 0 2 -2q-1 -2 -2.5 -2.5l-1.5 -0.5q-3 0 -1 3q0 2 2 2zM1212 665h5q-27 -4 -47.5 -15
t-42.5 -27h-4q17 14 41 28t48 14zM500 634q1 0 1 1q1 -1 3 -4t5 -3l-1 -3q-3 0 -5 3t-2 5zM1162 634q1 4 6 6.5t8 2.5q12 0 9 -11q-1 -7 -14 -7q-3 0 -7 2t-2 7zM501 640v-2l-2 -3q-5 0 -3 3q0 2 5 2zM267 643q2 0 2 -3q-2 -2 -3 -2q-4 0 -2 2q0 3 3 3zM456 663h4
q12 0 22.5 -7.5t14.5 -15.5q-1 0 -2 -1h-1v1q-2 1 -7 5.5t-6 4.5q-3 2 -12.5 6.5t-12.5 6.5zM453 665q-1 -1 -6 -1q-4 0 -3 1q-1 1 4 1t5 -1zM314 721q2 0 2 -3q-2 -3 -4 -3q-4 0 -2 3q0 3 4 3zM333 746q3 0 2 -3q0 -2 -4 -2q-2 0 -2 2q1 3 4 3zM356 766v-3l-2 -2q-5 0 -3 2
q0 3 5 3zM387 769v-3l-2 -3q-5 0 -3 3q0 3 5 3zM384 773l-1 -2v-2q-2 0 -2 2t3 2zM1398 925q-3 0 -4 -3q0 -2 3 -2q1 0 1 2q1 3 0 3z" />
    <glyph glyph-name="FL00B1h" unicode="&#xb1;" horiz-adv-x="630" 
d="M144 378l-1 -4q4 -4 17 -7t16 -3q9 2 26 7t24 11h126l-37 -126q0 -1 5.5 -4.5t10.5 -5.5q24 -10 34.5 -17.5t19 -12t21.5 -6.5t42 -2q14 0 20 8t9 18l6 29q-2 4 -4 11.5t-2 8.5l29 100h138q1 0 6.5 5.5l9.5 9.5q18 22 30.5 33.5t21 21t14.5 21.5t13 36q4 11 -5 15t-20 4
h-6l-33 -8l-15 -6t-11 -4h-107l31 110q0 1 -8 4.5t-13 5.5q-17 5 -29 12t-24 13t-26.5 10.5t-34.5 4.5h-5q-5 -4 -12 -16t-8 -14q1 -7 -1.5 -20t2.5 -17l-27 -94h-145q-1 0 -6.5 -7.5t-10.5 -12.5q-11 -15 -23 -28t-23 -26t-20.5 -27t-14.5 -31zM47 34l-1 -4q1 -2 6 -3.5
t10.5 -3t10.5 -2.5t6 -1q9 2 26.5 7t23.5 11l417 1q1 0 7 5.5t9 9.5q19 22 31 33.5t21 21t15 21.5t13 36q3 11 -6 15t-20 4h-6l-32 -8q-5 -2 -15.5 -6t-11.5 -4l-406 -1q-1 0 -7 -7.5t-11 -12.5q-10 -15 -22 -28t-23.5 -26t-20.5 -27t-14 -31z" />
    <glyph glyph-name="FL00B2h" unicode="&#xb2;" horiz-adv-x="2005" 
d="M1623 298v1q0 -1 1 -1t-1 0zM1832 643l16 56h7l-16 -56h-7zM805 677q-4 -10 -7.5 -19t-4.5 -12q0 -3 -4 -3q-3 0 -3 3q1 3 3 12t4 19q1 6 1 11q0 6 2 11h17q-2 -5 -4 -10.5t-4 -11.5zM1221 677q-4 -10 -7 -19l-4 -12q0 -3 -5 -3q-2 0 -2 3q1 3 2.5 12t3.5 19q2 14 4 22
h17q-6 -11 -9 -22zM1361 437q-5 2 -9.5 6.5t-3.5 6.5l25 88q1 3 8 4t13 2l-31 -108q-1 0 -1.5 0.5zM2070 696l-43 -148q-1 -2 -5 -7t-8 -7h-1l-4 1q-1 0 -1 2q-3 0 -3.5 0.5l-0.5 0.5l47 163q7 -1 13 -2t6 -3zM1318 83h-9q-2 0 -2 2h-3v1l73 255q3 10 14.5 16t23.5 8
l-80 -279q0 2 -5 0.5t-12 -3.5zM1821 742l-35 -122h67q7 0 16 9.5t12 15.5l2 6q2 6 4.5 15.5t4.5 14.5q1 2 1.5 6.5t2.5 10.5l6 19q-2 20 -16 23.5t-29 3.5h-5q-2 0 -6 -0.5t-8 -0.5q-3 -1 -10 -1h-7zM773 742l-35 -122h69q6 0 15 9.5t11 15.5l5 17q1 6 5 13l3 11q1 2 1.5 8
t2.5 11l7 23q-11 11 -22 13t-26 2h-3q-3 0 -5.5 -0.5t-6.5 -0.5h-21zM975 546q11 2 22.5 5.5t16.5 15.5l2 10q5 15 7 31t4 22l2 8h-43l17 61h91l-47 -164h-100q5 5 12.5 7t15.5 4zM1622 551q5 2 12.5 7.5t9.5 9.5l2 9q5 15 7 31t4 22l2 8h-42l17 61h90l-47 -164h-86l-1 0.5
t0 2.5l-2 3l1 2q5 2 17.5 5t15.5 3zM1190 742l-36 -126q20 0 40.5 2t28.5 2q5 0 13.5 6.5t10.5 10.5l25 88q3 12 -8 15.5t-23 3.5q-3 0 -5.5 -0.5t-4.5 -0.5h-3q-2 0 -6 -0.5t-9 -0.5h-23zM1578 336q-3 0 -8.5 1t-13.5 3l-64 -225q-2 -8 -14.5 -15t-23.5 -9l72 252h-66l6 21
h164q-5 -13 -21 -20.5t-31 -7.5zM1729 762q1 2 1 -4t2 -11h-125l-38 -132h60l-7 -26h-60l-24 -82h119l-6 -21h-150l66 229q10 34 39 44.5t62 10.5q12 0 29.5 -1t34.5 -2q-2 -2 -3 -5zM1005 747l-37 -31l-29 -101h59l-7 -26h-59l-24 -82h119l-6 -21h-150l72 249q3 11 14 17.5
t24.5 10t27.5 4.5t23 1h10q17 0 32.5 -1.5t35.5 -10.5l-10 -9h-95zM1647 60l36 126h-53l51 178h25l-38 -134q10 0 18.5 -0.5t18.5 -1.5q11 -1 20.5 -1.5t17.5 -0.5q5 1 16 6.5t13 10.5l35 123q9 -3 14.5 -10t3.5 -15l-34 -118q-2 -6 -10 -12.5t-18.5 -11.5t-21.5 -10t-20 -8
l-9 -3l-40 -138zM2074 743h-2q-8 0 -23 -2.5t-19 -15.5l-57 -197q-2 -6 2 -9.5t9.5 -5t11.5 -2t10 -0.5h2q4 0 10 0.5t12 2t11 5t7 9.5l57 197q2 6 -1.5 10t-8.5 5.5t-11 2t-10 0.5zM532 514q8 -1 16 -1.5t14 -0.5q7 1 17 6t12 10l69 239h26l-74 -258q0 -1 -6 -6.5t-10 -9.5
l-4 -3q-3 -2 -3 -3v-1h-134l72 249q2 7 13.5 16t21.5 14l9 -5l-70 -244q11 0 16.5 -0.5t14.5 -1.5zM258 358q-3 -11 -5 -29.5t0 -37.5t9.5 -32.5t24.5 -13.5q10 0 17.5 2t15.5 5q8 2 13.5 4t22.5 2q6 19 1.5 32t-10.5 24t-11 22t0 26q3 12 14 20.5t25.5 14t30.5 8.5t30 3
h369l4 14l-428 5q-14 0 -34 -6t-38.5 -16t-33 -22.5t-17.5 -24.5zM1440 584h-87l-28 -98h-26l77 269l1.5 -0.5t4.5 1.5l5 3q2 1 6 2l12 3l-41 -144h87l40 140q36 -1 27 -35l-82 -285q-3 -10 -12.5 -21.5t-23.5 -11.5q-3 0 -6.5 1t-2.5 2zM1477 448h266l7.5 5t12.5 11l4 5.5
t6 7.5q1 3 4.5 10.5t8 17.5t9 19.5t6.5 16.5h9q-2 -11 -6 -31.5t-8 -42.5t-8 -41t-6 -26l-6 -19q-2 -8 -8 -25.5t-13.5 -38t-15.5 -39.5t-12 -29h-5q-5 0 -13 0.5t-6 3.5l41 144h-293zM348 796l-30 -107q7 0 21.5 -1.5t30.5 -3t29.5 -3t18.5 -2.5h-1q7 -2 15 -11t7 -12
l-49 -170h-147q-2 0 -8 9.5t-10 15.5q0 1 2 3l1 3h129l34 117q-6 0 -21.5 0.5t-32 2t-31 3.5t-18.5 4q-5 2 -12.5 10t-6.5 12l40 138l5.5 6.5t9.5 9.5q3 2 4.5 3.5t6.5 7.5h138l1 2l21 -21l-14 -16h-133zM1334 402h-158l-80 -279h150q2 0 2.5 -5.5t-1.5 -10.5l-3 -9
q-2 -5 -3 -9t-9 -6h-9q-7 0 -11.5 -0.5t-9.5 -0.5h-51q-22 0 -43 1.5t-37 7.5t-23 18.5t0 35.5l67 236q1 5 6.5 14t13 17.5t16.5 14.5t18 6h143q6 0 13.5 -10t8.5 -21zM668 486l81 281h22q5 0 9 0.5t9 0.5h39q11 0 23 -1.5t21.5 -5.5t15 -10.5t2.5 -15.5l-34 -116
q-4 -5 -13.5 -16t-13.5 -14h-106l-30 -103h-25zM1301 707l-4 -13q-5 -17 -11 -31.5t-12.5 -27.5t-12.5 -25.5t-10 -27.5l-2 -5q0 -7 4 -10q1 -3 2 -5.5t1 -3.5q-2 -5 -4.5 -16.5t-5.5 -24.5q-2 -9 -3.5 -17t-3.5 -14h-30l28 98h-99l-28 -98h-25l81 281h118l25 -25l-1 -1
l-3 -15t-4 -19zM1351 364h3v-3l-71 -204l-8 -5h-143l58 203q13 1 36.5 2.5t48 3t46 2.5t30.5 1zM1869 584h-100l-28 -98h-25l82 285q6 0 11 0.5t12 0.5q8 0 16.5 0.5t16.5 0.5q32 0 55 -7t28 -33l-7 -26q-2 -5 -2 -8t-2 -7l-3 -11q-4 -13 -9.5 -25.5t-11.5 -23.5
q-6 -12 -11 -24t-9 -26l-2 -5q0 -4 0.5 -15.5t2.5 -16.5l-40 -139q-5 4 -13 8.5t-8 5.5zM2080 768h22q15 0 29.5 -4.5t10.5 -18.5l-70 -243l-24 -16h-103q-3 0 -6 4t-6 9.5t-5 11t-1 7.5l59 207q4 14 14 22.5t23 13t28 6t29 1.5zM1616 300l-36 -126q-2 -6 10 -11h-1l9 -5
q16 -6 23.5 -16t9 -22t-0.5 -24.5t-6 -24.5q-4 -15 -6.5 -28t0.5 -23t13.5 -15.5t31.5 -5.5q4 0 10.5 0.5t13.5 2t12.5 5t7.5 10.5l39 135l63 39q5 21 12.5 48.5t15.5 55.5q12 42 26 84.5t34 78.5q1 4 5 4q3 0 9.5 -3.5t8.5 -5.5h135q4 0 13.5 6t19 13.5t16.5 15.5t8 11
l68 236q5 17 1 28t-13.5 17.5t-23 9t-28.5 2.5h-33q-32 0 -56.5 -3.5t-51.5 -24.5q-5 4 -13 9t-10 7q-4 2 -13.5 6.5t-12.5 4.5h-143q-5 0 -17 -6l-24 -12l-15 18h-6h-5q-2 0 -5 1q-7 1 -16 1.5t-15 0.5q-21 0 -38 -4t-33 -9l1 1q-14 -4 -27.5 -7.5t-24.5 -3.5q-17 0 -34 11
q-10 5 -20.5 9t-31.5 4l-43 -149q2 2 -8 -1l-4.5 -1.5l-1.5 -0.5h-6h-1q-4 0 -3 4v1l4 13q2 8 5.5 18.5t6.5 20.5q3 11 5.5 21.5t4.5 18.5l4 15q1 3 1 6q2 18 0.5 24.5t-20.5 6.5q-2 0 -4.5 -0.5t-4.5 -0.5h-4q-2 0 -9 -2.5t-16 -5.5t-18 -6.5t-13 -5.5q-2 -1 -4 -1t-4 1
l3 -1q-4 2 -16 9.5t-15 11.5h-162l-32 -29l2 4q0 1 2 3q0 2 0.5 4t0.5 4q-9 10 -23.5 13t-30.5 3q-6 0 -10 -0.5t-9 -0.5h-13q-21 0 -34 -3.5t-27 -7.5q-12 -4 -24.5 -7t-23.5 -3h-5l-42 20h-232l-28 -24l-66 -231q-4 -1 -13 -1q-7 0 -7 3l68 236q1 4 -5.5 9t-11.5 8h-17
q-5 -1 -16 -5.5t-23 -10t-21.5 -11.5t-10.5 -9l-20 -73h-6q1 0 0 -1h1q-20 8 -34.5 11.5t-28.5 5.5q-26 4 -41 10.5t-9 26.5l1 6l4.5 13.5t5.5 7.5h119q8 0 17 11l-1 -1q4 1 12 11l3 13q-1 2 -5 13t-9 16l-2 -3l5 18h-33l1 5l-139 5q-13 0 -25 -6.5t-21.5 -15.5t-16.5 -18
t-10 -14l-4 -15q-2 -5 -3.5 -10t-3.5 -10l-9 -31q-13 -45 -10.5 -70t13.5 -36.5t28 -14t34 -2.5q18 -1 30 -5.5t5 -28.5l-3 -10q-2 -7 -5 -15t-6 -8h-118q-5 0 -13.5 -7.5t-13.5 -12.5l-2 -6q-2 -9 -1.5 -19.5t5 -19.5t13 -15.5t23.5 -6.5h372q3 2 11 5.5t11 3.5l2.5 -1
t4.5 -3h-1q8 -5 15 -5h5q6 0 13 -0.5t12 -0.5h14q5 0 11 0.5t8 0.5q9 7 18 18.5t16 24.5t12.5 25t7.5 20q12 2 22 4l20 4l30 6t29 4l-32 -111h121q-5 -8 -9.5 -16.5t-5.5 -10.5l-1 -4l-2 -4l-2 -4q-2 -8 1.5 -13t9.5 -10h-2l6 -6t1 -8q-4 -11 -12 -19.5t-19 -16.5l10 35
q1 5 -8.5 10.5t-16.5 6.5q-7 2 -20 2.5t-24 0.5h-9h-10l-13 -47q-9 6 -22.5 13t-26.5 13t-24 11t-17 7h-6q-5 1 -14 1.5t-20 0.5h-13q-34 0 -67.5 -6.5t-66.5 -15t-65 -15t-62 -6.5q-4 0 -11 0.5t-34 4.5l35 -37q5 1 9 1h10h18q21 0 38.5 -2t34.5 -4t35.5 -4t41.5 -2
q17 0 29.5 3.5t26.5 7.5q15 5 28 8t27 3h3q-1 -1 -4 -1h1q-7 -2 -13 -3.5t-12 -3.5h1q-8 -3 -21 -10.5t-25.5 -15t-22 -13.5l-9.5 -6l-9 -32q8 0 21 2t16 3h-1q7 1 20 13q5 5 10 7q2 1 5 1q6 0 16 -1.5t19 -3.5q3 -1 7 -1.5t8 -1.5q1 -1 1 -2q-2 -2 0 -3q-1 -4 -0.5 -6
t-0.5 -3q-1 -4 -4 -5q-3 1 -9 1h-10h-59q-18 0 -21 -1h2q-17 -3 -28.5 -8t-19.5 -12.5t-13 -16t-9 -17.5q-8 -13 -17 -25t-35 -23q0 -14 9 -17.5t19 -3.5h8q21 0 35.5 6t37.5 23l9 -3q-22 -16 -42 -29.5t-41 -24.5t-44 -20.5t-50 -18.5l-6 -23q43 0 101 15.5t120.5 42
t124.5 61.5t113.5 74.5t87.5 80.5t47 80q5 14 -3 31t-19 31h103l45 23l21 75h13l-9 -73l-2 -6l-74 -49l-88 -308q-7 -23 8 -39.5t44 -16.5h299l72 252q2 1 5 1t4 1q7 1 14 1.5t9 0.5l12 -3l-68 -236q-2 -6 10 -11h-1q0 -1 11 -6h16q4 1 15.5 5.5t23 10.5t21 11.5t10.5 9.5
l59 206q3 13 15 13q6 0 10.5 -1t9.5 -2q0 -1 4 -1q5 0 6 -1z" />
    <glyph glyph-name="g" unicode="&#xb3;" horiz-adv-x="2005" 
d="M1630 303l-38 -133q-1 -1 5.5 -4.5t9.5 -5.5q17 -8 25.5 -19t10.5 -23.5t0 -26t-6 -26.5q-4 -14 -6.5 -26t0 -21t11.5 -14t27 -5q7 0 19 1.5t14 9.5l40 140l65 40q7 28 16 62t20 70t24.5 71.5t29.5 66.5q1 2 7 6t8 4q4 0 11.5 -4t9.5 -6h132q4 0 11.5 5t15 12t13.5 13.5
t7 9.5l69 240q4 15 1 25t-11 16t-20.5 8t-26.5 2h-33q-16 0 -29.5 -0.5t-26.5 -3.5t-25.5 -9t-26.5 -18q-3 2 -14.5 10t-15.5 10l-12 6t-9 4h-144q-3 -2 -13.5 -5.5l-13.5 -4.5h-6q-23 0 -39 5.5t-45 5.5q-17 0 -30.5 -3.5t-26.5 -7l-26 -7t-28 -3.5q-11 0 -20 3.5t-18 8
t-18 8.5t-21 4l-42 -144q0 -1 -8 -4.5t-12 -5.5h-6h-6q-2 1 -5.5 4.5t-4.5 5.5q2 6 7 22t10 33t9 33t6 22q3 18 2.5 24.5t-16.5 6.5q-2 0 -7 -0.5t-6 -0.5t-9 -3t-17.5 -6.5t-18 -6.5t-9.5 -4l-2.5 -0.5t-3.5 -0.5t-3.5 0.5l-2.5 0.5q-2 1 -6.5 4t-9.5 6t-9 5.5t-5 4.5h-156
l-30 -20q-4 10 -14 14.5t-22 6t-25.5 1t-25.5 -0.5q-17 0 -30.5 -3.5t-26.5 -7l-26 -7t-28 -3.5h-6l-42 20h-228l-24 -20l-68 -238q-2 0 -8.5 -1t-12.5 -1q-16 0 -13 10l69 240q0 1 -5.5 4.5t-9.5 5.5h-6h-6q-4 -1 -14 -5t-20.5 -8.5t-19 -9t-9.5 -7.5l-22 -77l-7.5 -2.5
t-11.5 -0.5q-22 9 -45 12.5t-40.5 8t-26.5 13t-4 26.5l2 6q2 8 6.5 18.5t14.5 10.5h120q1 0 7 6t10 9l1 5q2 7 1 16.5t-4.5 18t-10.5 14.5t-18 6h-144q-10 0 -20 -6t-18.5 -14t-15 -16.5t-9.5 -13.5l-3 -13l-13 -39l-3 -13q-14 -49 -10.5 -73.5t17 -34t32.5 -10t35 -2
t24.5 -9t1.5 -31.5l-3 -10q-2 -9 -8 -19.5t-14 -10.5h-120q-1 0 -6 -5.5t-10 -9.5l-1 -5q-2 -8 -2 -18q0 -9 3.5 -17t11 -14t19.5 -6h372q4 2 13.5 6t13.5 4q3 0 11 -5t10 -5q1 0 12.5 -0.5t17.5 -0.5q4 0 15 0.5t15 0.5q9 7 17.5 20.5t15.5 27.5t11.5 26t5.5 16
q31 4 60.5 11t58.5 7l-33 -113h126q-2 -2 -5 -7t-6.5 -10.5t-6.5 -10.5t-4 -7q0 -1 -1.5 -5t-2.5 -6q-2 -7 1 -11t7 -8t6.5 -8t0.5 -11q-5 -16 -19.5 -29t-31.5 -22l14 50q1 2 -6.5 5.5t-14.5 4.5q-8 2 -23.5 2.5t-23.5 0.5h-6l-15 -53q-5 4 -18.5 11.5t-29.5 15.5
t-30.5 14.5t-21.5 8.5q-2 0 -12.5 1t-24.5 1h-13q-36 0 -72 -7.5t-72 -16.5t-71.5 -15t-70.5 -3l19 -20q32 2 55 0.5t43 -4t40.5 -5t47.5 -2.5q14 0 27.5 3.5t27 7.5t27.5 7.5t29 3.5q4 0 15 -0.5t15 -0.5q-11 -12 -25.5 -13t-28.5 -7q-8 -3 -20 -9.5t-23.5 -13t-20 -11.5
t-8.5 -6l-7 -25q3 0 13 2t13 3q1 0 5.5 3t9.5 7t9 7t5 3q4 1 13.5 0t20 -2.5t19.5 -3t12 -1.5q-1 -4 -0.5 -9t0 -9.5t-3.5 -8.5t-12 -6q-2 1 -19 1h-29h-30q-15 0 -18 -1q-28 -4 -40 -16.5t-20 -28t-18 -31t-35 -24.5q1 -10 10.5 -10.5t17.5 -0.5q22 0 36.5 6t37.5 25
l21 -10q-23 -18 -44.5 -32.5t-43.5 -26.5t-45.5 -22t-51.5 -19l-3 -13q42 0 98.5 15.5t117.5 42t121.5 61.5t111 74.5t86 80.5t46.5 79q3 9 0.5 19t-7.5 19.5t-11 17.5t-10 14h120l36 20l23 80h30l-11 -80l-2 -6l-1 -4l-74 -50l-89 -310q-6 -20 6.5 -35t38.5 -15h294l74 256
q2 0 8.5 1t13 1.5l13 1t8.5 0.5q4 -1 10 -4.5t5 -5.5l-69 -240q0 -1 6 -4.5t9 -5.5h6h6q4 1 14 5t20.5 8.5t19 9t9.5 7.5l60 210q4 13 12.5 16.5t18 3t19 -3.5t14.5 -3zM1184 360q10 1 34 3t51.5 3.5t51.5 2.5t34 1h12l-3 -10l-72 -210l-15 -10h-156zM1739 390h-296l32 65
h276q1 0 8.5 10t11.5 15q2 3 7 13t10 21.5t9.5 22t5.5 13.5h24q-1 -8 -5 -29.5t-9 -45.5t-10 -45.5t-7 -29.5l-3 -10l-3 -10q-2 -8 -9 -28t-15.5 -42.5t-16 -42t-11.5 -27.5q-1 0 -5 -0.5t-7 -0.5q-6 0 -17.5 1.5t-9.5 9.5zM258 357q-3 -10 -5 -28t-0.5 -36t8 -31t20.5 -13
q17 0 31 6.5t31 6.5q4 14 -1 25t-11.5 22t-11 23t0.5 29q4 13 16.5 23.5t29 17t34 10t32.5 3.5h372l-431 5q-13 0 -31.5 -5.5t-36 -14.5t-31 -20.5t-16.5 -22.5zM1408 553l-37 -126q-2 0 -5 1l-6 2q-5 3 -12 10.5t-6 9.5l26 90q1 4 7 7t13 4t13 1.5t7 0.5zM975 635l22 75
h108l-52 -180h-117q4 13 13.5 17.5t20.5 6.5t21 4.5t13 11.5q4 8 6.5 19t4 21t2.5 17.5l1 7.5h-43zM1585 546q0 1 1 2.5l1 1.5q2 1 8 3t12.5 3.5t12 2.5t6.5 1q3 1 8.5 4.5t5.5 5.5q4 8 6.5 19t4 21t2.5 17.5l1 7.5h-43l22 75h108l-52 -180h-96q-2 0 -4.5 4t-4.5 6v2t1 4z
M2053 713q1 0 7 -0.5t12 -1.5t10.5 -4t3.5 -7l-43 -150q-1 -2 -7.5 -10t-10.5 -10l-1.5 -0.5t-4.5 -0.5q-1 0 -3.5 0.5l-2.5 0.5q-2 2 -6 5t-3 5zM788 710h34q-1 -3 -4.5 -11.5t-7 -18.5t-7 -18.5t-4.5 -11.5q0 -2 -5.5 -6t-8.5 -4q-2 0 -6 4t-4 6q1 3 3 11.5t3.5 18.5
t3.5 18.5t3 11.5zM1208 710h34q-1 -3 -4.5 -11.5t-7 -18.5t-7 -18.5t-4.5 -11.5q0 -2 -5.5 -6t-8.5 -4q-2 0 -6 4t-4 6q1 3 3 11.5t3.5 18.5t3.5 18.5t3 11.5zM1849 710h24l-20 -70h-24z" />
    <glyph glyph-name="FL00B4h" unicode="&#xb4;" horiz-adv-x="433" 
d="M616 809l-181 -1q-3 0 -7.5 -4t-7.5 -6q-13 -8 -33 -23t-42 -32.5t-44.5 -35.5t-40.5 -33t-29.5 -25t-11.5 -11l-6 -21q36 0 61.5 -0.5t48.5 -0.5t45 0.5t50 2.5q7 9 24.5 22.5t39.5 29t46 32.5t44 33t34 30t17 23q2 5 2.5 12.5t-9.5 7.5z" />
    <glyph glyph-name="FL00B5h" unicode="&#xb5;" horiz-adv-x="1278" 
d="M626 56q1 -5 4.5 -18.5t6.5 -17.5q2 -4 1.5 -10.5t4.5 -9.5l45 52l2 8q-2 11 -4 26.5t2 29.5q2 4 3.5 6t8.5 2q5 0 6 -6.5t1 -15.5t1.5 -17t6.5 -11q3 0 5 2l27 22l3 3v1l1 1l-18 33l1 3q1 7 12 7h3l34 -27l1 -1q4 0 9 3t10 5q2 1 14 3.5t15 4.5l1 2l-8.5 4t-12.5 6
l-15 5l-20 10l124 64l7 4q-5 6 -12 6h-1q-1 -1 -7.5 -4t-7.5 -4l-189 -91q-2 0 -4 -0.5l-2 -0.5h-4q-4 0 -7 4l-157 96h-2h-2l-13 -6l4 -4q23 -18 45.5 -32t49.5 -29l3 -3q-6 -5 -21.5 -9t-20.5 -6t-16 -6l-11 -4l-1 -2q4 -2 13 -4.5t12 -3.5q4 -2 7.5 -5t7.5 -3l1 1
q5 2 14.5 7t17.5 10q5 4 10 7t9 3h1h3l3 -2t3 -3v-2q-2 -5 -7.5 -9.5t-11.5 -8.5t-12 -8.5t-7 -9.5l1 -2q2 -3 7 -12t7 -11v-4l2 -1q1 0 1.5 0.5l0.5 0.5q3 2 9.5 10.5t14 17.5t13 16.5t7.5 7.5h1q0 -2 7 -2q-9 -18 -19 -35t-22 -33zM596 124q-3 0 -3 -3q-2 -2 1 -2t5 2
q0 3 -3 3zM532 237l150 -91h3q5 0 6.5 0.5t6.5 2.5q10 5 28.5 14t37 17t32.5 14.5t16 7.5q8 4 21.5 10.5t26 12.5t21.5 11t9 6l6 20q2 8 12.5 9t19.5 1h8q10 2 20 12.5t18.5 23.5t15 26t8.5 20v3l3 8l1 3q-15 5 -25 5q1 3 5 3.5t8 0.5h8q4 0 7 3q-5 8 -8 16t0 18q1 4 4 9
t7 11q0 -3 0.5 -8.5t2 -11t4 -10t6.5 -4.5h4q0 1 4 3t5 2h2q8 0 8 -7t-1.5 -15t-1 -14.5t10.5 -5.5l-1 -5l-3 -11l-1 -3q-9 -30 -30 -51t-53 -41l1 -1q6 0 13.5 3.5t14.5 7.5q33 17 48 42t23 53q2 6 1 9t-2.5 4.5t-3.5 3t-3 4.5q-1 10 0.5 21t-7.5 17q-2 2 -11 2q-6 0 -8 2
q-3 6 -3 20q0 15 1.5 31.5t4.5 32t5 23.5q6 20 16 40t16 40l4 13l4 13q-104 55 -240 55q-68 0 -130.5 -13t-128.5 -37q-5 -2 -9.5 -4t-6.5 -6q-8 -26 -11.5 -51t-11.5 -50q-6 -20 -13.5 -38t-13.5 -37l-6 -4l-16 -28q-2 -2 -4 -2h-2h-11h-1q-15 -5 -23 -19.5t-13 -23.5
q-11 3 -14 -7l-2 -4q0 -2 -1 -4.5t-2 -4.5l-1 -4q-11 -35 -2 -60.5t46 -40.5v2q-1 3 -5.5 7.5l-9.5 9.5t-9.5 10t-6.5 11q-7 14 -7 27t5 30l2 7q1 4 4.5 7.5t11.5 3.5q2 5 9 18t9 17q5 7 4.5 5.5t6.5 -1.5q5 0 5 -2t3 -2q4 0 9.5 4t10 9.5t8 10.5t4.5 7h1q3 0 3.5 -2.5
t0 -5.5t-2 -5.5l-1.5 -2.5q-3 -11 -11.5 -18.5t-10.5 -16.5l-1 -2q3 0 10 -1t9 -2l2 -2q-5 0 -15 -1.5t-12 -8.5q-3 -9 -5.5 -22t-2.5 -26t3 -24.5t12 -18.5q23 2 32.5 -4t0.5 -26zM381 183q-5 -16 -18 -23.5t-15 -11.5q19 0 30.5 12.5t15.5 25.5l2 6q2 14 1.5 31.5
t-0.5 28.5v10q-7 23 -8.5 43.5t6.5 46.5l5 17q4 13 10 25.5t17 23.5l-1 -4q-5 -16 -13 -31t-13 -32q-6 -19 -6.5 -39.5t6 -38t21.5 -28.5t42 -11h2q3 0 4.5 0.5t4.5 0.5h2q-4 0 -4 2q-1 0 -5.5 1t-9.5 2.5t-9 2.5t-4 2q-34 14 -40.5 44t3.5 62q5 17 12.5 34.5t22.5 32.5
q7 2 16.5 4.5t18 6t15 8.5t8.5 12l2 7q-4 -6 -12 -11.5t-17 -9.5t-18 -6t-16 -2q-14 0 -25.5 5t-7.5 17q2 7 7.5 13.5t15.5 6.5q5 0 11 -4t4 -9l-1 -2q0 -1 -2.5 -4.5l-2.5 -3.5q0 -2 2 -2q4 1 9.5 8.5t10.5 17t9 18t5 11.5l1 3l4 14l2 6q3 11 4.5 21t5.5 21l1 3
q6 -11 1 -26l-9 -27q-11 -38 -35 -70q1 0 4 -0.5t4 -0.5q16 0 28.5 8.5t22 20.5t15.5 25.5t9 22.5t4 21t-0.5 23t-7 20.5t-16.5 13.5h-3q-6 0 -15 -6t-9 -12q-7 2 -4 9q1 7 21 14q-1 3 -5 4t-9 1.5t-9 1t-5 0.5q3 5 9 5h13q8 0 14 -4t14 -4h3q-6 26 -27 44.5t-56 18.5
q-12 0 -27.5 -5t-18.5 -16l-1 -4q0 -2 1 -2q11 10 23 10t14 -5.5t0 -13.5q-3 -9 -12.5 -14.5t-19.5 -5.5q-17 0 -28 10.5t-7 24.5q6 22 28.5 32.5t48.5 14.5l1 4q-23 32 -33 72t2 82q4 14 11.5 27t11.5 26l1 3q-19 -18 -29.5 -38t-15.5 -40q-4 -13 -6 -24.5t-5 -24.5l-2 -7
q-4 22 -1.5 45.5t9.5 46.5q4 14 7 23t13 26h-1q-4 0 -9.5 -6t-11 -13.5t-9 -15t-4.5 -10.5l-1 -4q-2 -5 -3.5 -8.5t-3.5 -8.5l-2 -8q-5 -19 -5.5 -36.5t-5.5 -37.5l-1 -3q-9 8 -12 23.5t-2.5 33t3.5 34t6 26.5q-8 0 -12 -8t-6 -16l-2 -8q-8 -26 -5.5 -51.5t9.5 -48.5l-1 -3
q-16 16 -20.5 38t-9.5 43l-2 3q-1 -2 -3.5 -5.5t-2.5 -4.5q-5 -15 -3 -28t6 -25t9 -23.5t7 -24.5h-2q-1 0 -8 6.5t-9 10.5q-4 4 -7 11.5t-6 14.5t-7 12.5t-8 5.5q-8 -26 -3.5 -46t19.5 -40l-1 -0.5t-2 -0.5v1q-1 1 -6.5 3.5t-6.5 4.5q-2 1 -9 5.5t-9 5.5h-5
q-3 -11 3.5 -18.5t4.5 -17.5q-3 0 -7 0.5t-6 0.5q-1 0 -2 -0.5l-1 -0.5q-1 -3 3 -8.5t9.5 -11t11 -10t7.5 -6.5l-4 -4h-30q0 -8 8 -12.5t17 -6.5l-1 -3q-3 -1 -11.5 -4.5t-9.5 -6.5l-1 -1l3 -2l23 -15l2 -3q-5 -2 -10.5 -3.5t-9.5 -3.5l4 -6l35 -15l-28 -4l-2 -4l6 -2t11 -3
l25 -5q-8 -2 -19.5 -6t-17.5 -9v-1q-1 -3 1.5 -4.5t6 -2.5t7 -1.5t4.5 -0.5q3 -1 11.5 -1.5t11.5 -0.5q-5 -2 -16.5 -6t-17.5 -9l-1 -2v-1q0 -4 4 -4h54q-13 -7 -25.5 -14t-16.5 -19q12 0 28 4.5t27 7.5h1h3l-42 -28q-1 -1 -4 -3.5t-4 -3.5l-0.5 -0.5t-0.5 -1.5v-1h1
q-1 -1 2.5 -2t4.5 -1q4 1 14.5 3.5t15.5 4.5h1h3q-8 -4 -17.5 -11.5t-11.5 -12.5v-2q-1 -1 3 -1h2q8 1 16 5t15 4h2q-10 -8 -18 -16t-11 -19q10 0 20.5 4t19.5 8q-1 -2 -5.5 -7.5t-9.5 -10.5q-2 -3 -2.5 -4t-2.5 -4q-2 -2 -2 -3v-1q-2 -3 5 -3q6 0 14.5 5t16.5 8
q-6 -7 -8.5 -13.5t-4.5 -14.5h8q6 6 12.5 11t14.5 10l-3 -10q-8 -25 -17 -46t-14 -50q-6 -13 -20 -13q-5 0 -6.5 0.5t-3.5 5.5q-1 1 0.5 1.5l1.5 0.5h11l2 8h-6q-6 0 -11 -1t-7 -7q-4 -16 18 -16q8 0 14.5 4.5t12.5 4.5q7 0 9.5 -3.5t2.5 -8.5q0 -4 -1.5 -9.5t-2.5 -8.5
q-3 -11 -10.5 -21t-24.5 -10q-8 0 -14 2.5t-4 10.5t9.5 13t14.5 5q8 0 5 -6q0 -2 -2 -5t-3 -6q5 0 9.5 3.5t5.5 7.5q3 8 -2.5 10.5t-12.5 2.5q-14 0 -21.5 -7.5t-10.5 -18.5q-4 -11 6 -15t21 -4q17 0 28 10.5t15 22.5q4 13 3 25.5t-3 24.5t-4 24.5t0 25.5h5q-3 -17 -0.5 -33
t6.5 -32.5t5.5 -33t-3.5 -33.5zM991 185q-4 -12 -1 -24t21 -12h4q-8 8 -13 14.5t-2 18.5q5 18 17 35.5t25.5 35t26 34.5t19.5 35l-2 -9q-4 -13 -12 -25t-16.5 -24t-16.5 -24t-11 -25q-5 -14 1 -23.5t23 -9.5q12 0 23 4t15 15q2 10 -1 18t-17 8q-6 0 -13 -2.5t-10 -10.5
q-2 -5 -0.5 -7t7.5 -4l4 14q1 0 5.5 1.5t7.5 1.5q2 -2 6 -6.5t4 -6.5v-5q-2 -7 -11 -10t-17 -3q-17 0 -18 11t3 22q2 5 7 16.5t15 11.5q8 0 12.5 -4.5t14.5 -4.5q8 0 16.5 5t9.5 14q-2 2 -3 3.5t-6 1.5h-4h-6q-2 0 -5 -3q-2 -1 -2 -2l-1 -1v-2h12l1 -1.5t-1 -3.5q0 -3 -6 -3
h-6q-7 0 -8.5 1.5t-3.5 6.5l3 13l6 18l5 20l4 12q0 1 1 6t2 11t2 11.5t1 6.5l2 7l2 6l16 -21h9q2 8 1 14t1 12l1 2q5 -5 11 -9t16 -4q2 8 -0.5 14t-0.5 14q10 0 15 -3t15 -3q3 9 0 17.5t-8 14.5l1 2q2 -2 10 -5.5t15 -3.5t7 4q2 5 -4 13t-8 10h1q10 0 17 -3.5t17 -3.5l2 7
l-31 33h3q14 0 23 -5.5t20 -5.5q3 0 6 0.5t4 3.5l-1 1.5t0 2.5q-3 2 -11 12t-9 12h50q1 0 3.5 1.5t4.5 2.5v1q1 3 -3 5t-7 4q-2 1 -9 3.5t-9 4.5l43 5q3 0 5 5q1 4 -2 6t-7 3.5l-8 3t-5 4.5l25 5q1 1 8.5 2.5t8.5 4.5l1 2l-26 4q12 5 24.5 8.5t25.5 8.5l1 4q1 3 -5 4t-8 3
q8 5 21 9.5t15 12.5q2 5 -4 7t-11 3q3 3 8.5 4.5t11.5 4t11 5.5t6 8h-35q14 11 29.5 18.5t29.5 21.5q-2 2 -10 2.5t-11 1.5q12 7 20 14t11 18h-4l-41 -19q-5 -3 -8 -3q19 17 39 36.5t26 41.5l2 6q1 4 -3 4h-2q-17 -17 -35.5 -34.5t-42.5 -28.5l-1 1q0 1 1 1.5l1 0.5l13 10
q19 20 37.5 42t25.5 46l3 10l-2 3l-3 -3t-2 -3l-14 -22q-15 -18 -29 -32.5t-34 -25.5v2q22 26 39 50.5t25 53.5l1 4l4 13l-3 13h-3q-3 -11 -10 -28t-17 -35t-21.5 -33.5t-24.5 -22.5l1 3q5 20 17 40.5t18 41.5q5 16 6 34.5t-9 32.5l-23 -82q-10 -34 -38 -64v2l1 2
q7 17 13.5 29.5t11.5 29.5v1q1 6 3.5 17t2.5 12q0 2 -0.5 8.5t-0.5 13.5q0 8 -1 14t-3 7l-2 -4q-3 -11 -5 -22t-5 -22q-14 -47 -45.5 -84t-72.5 -75v-2l20 -6t17 -7.5t10 -12t0 -19.5q-5 -14 -18.5 -25t-31.5 -11q-14 0 -21 6t-4 17q2 6 10 10.5t16 4.5t9.5 -5.5t9.5 -5.5
q5 15 -7 21.5t-29 6.5q-32 0 -58.5 -17t-49.5 -38q-4 -4 -4.5 -5l-1.5 -3l-1 -2q19 10 36 10h11q10 0 8 -5q-2 0 -14 -1.5t-17 -3.5v-2q2 -2 8 -5t5 -6q-1 -1 -2.5 -3t-3.5 -4q-8 -9 -13 -16.5t-8.5 -14.5t-6.5 -15t-6 -20l-2 -8q-2 -5 -2.5 -9.5t-2.5 -9.5l-1 -3
q-1 -3 -1.5 -11t-0.5 -16q0 -7 1.5 -13t5.5 -6l5 19q2 3 6 3.5t8 0.5h2q20 0 15 -17q-4 -12 -18 -17t-28 -5q-17 0 -28.5 8t-19.5 19l-1 -5q-3 -10 1.5 -14.5t12 -6.5l15 -4t11.5 -6q8 -14 6 -32.5t-7 -34.5q-11 -35 -37.5 -65t-70.5 -44q-6 -2 -16 -2.5t-12 -4.5
q1 0 5 -0.5t7 -0.5q27 0 48.5 11.5t38 28.5t28 38t16.5 39q5 16 4.5 30.5t4.5 28.5q0 1 1 3t1 3q4 -14 1.5 -31.5t-7.5 -33.5q-6 -22 -19.5 -42.5t-27.5 -40.5t-27.5 -40.5t-19.5 -42.5zM457 344q-10 -32 -2 -62t38 -47q5 1 14 7q-3 5 -10.5 7t-9.5 8q-14 25 -17 48.5
t5 55.5q-4 -2 -9.5 -5.5t-5.5 -4.5l-1 -2.5t-2 -4.5zM908 242q3 -6 11 -6q6 0 8.5 2t8.5 7q31 20 52 43t29 52q2 5 2 11q0 7 -6 7q-8 -18 -15.5 -31t-16.5 -24.5t-20 -22.5l-25 -25q-5 -6 -13.5 -7t-14.5 -6zM946 247q-2 0 -4 -2q0 -3 2 -3q4 0 4 3q2 2 -2 2zM714 280
l20 111q-6 -2 -8 -1t-3.5 3.5t-3 4.5t-6.5 2l10 5q-2 0 -5 1t-5.5 2.5t-2.5 3.5q0 3 4 6l-153 12l21 4l164 11l57 143l5 10v-8t-1 -8q-1 -7 -4 -24.5t-6.5 -37t-7 -37t-5.5 -24.5l-1 -13q9 0 29.5 -1.5t43 -3.5t43 -3.5t29.5 -1.5q7 -1 16 -2t16 -3q-40 -5 -77 -8t-75 -5
q-8 0 -11 -5q1 -1 2.5 -3.5t1.5 -4.5v-1v-1q-11 1 -18 -5.5t-9 -14.5l-2 5q-8 -1 -16.5 -17t-16 -36.5t-14.5 -40t-11 -27.5v13zM370 322q3 0 3 -1t-2.5 -1.5t-1.5 1.5v1h1zM1157 395q4 0 4 -2q-2 -2 -5 -2h-1l1 2q0 1 0.5 1.5zM791 398l0.5 -0.5t-0.5 -2.5q0 -1 -0.5 -1.5
l-0.5 -0.5q-4 0 -4 2q1 3 5 3zM1088 420q3 0 3 -2t-4 -2v2t1 2zM1046 522q-3 -12 -5 -26t1 -25.5t12 -19.5t27 -8l1 3l-2 8q-1 4 0 16t1 14q-1 8 0 13.5t3 11.5l3 10q6 20 15 33.5t26 32.5l1 4h-2l-12 6h-1h-1q-14 -12 -24 -23t-17 -22.5t-12.5 -23.5t-11.5 -27l1 3l3 11
l1 4q14 45 56 81h-2q-1 -2 -5 -3.5t-6 -2.5q-23 -14 -34 -32t-16 -38zM742 452q1 0 0 -4q0 -2 -2 -2q-1 0 -1 2q1 4 3 4zM791 454v-2h-3zM497 459q-4 0 -4 -3q-2 -2 2 -2l2 2q1 2 0.5 2.5zM477 469l2.5 -1.5t3.5 -1.5l-1 -2q-1 -2 -4.5 -3t-7.5 -1h-3q1 3 3 6t7 3zM1070 469
q3 0 2.5 -3.5l-0.5 -3.5h-12q2 7 10 7zM1209 473q1 0 0 -1q0 -3 -2 -3q-3 0 -3 3q1 1 5 1zM487 489h2q7 0 5 -5q-1 -2 -4 -2.5t-5 -0.5zM506 484v-2q0 -1 -2 -1q-1 0 -1 1q0 2 3 2zM1068 489q3 0 4 -3t0 -5h-11q1 2 2 5t5 3zM1053 497l-2 -6l-1 -4q-6 -3 -3 4q1 6 6 6z
M522 562l1 2q6 -11 3 -23l-7 -24l-1 -5l-4 -15l-2 -6q2 6 4.5 22t3.5 22q2 6 1 13t1 14zM494 509q4 0 7.5 -0.5t2.5 -3.5v-1q-4 -2 -5 -2l-0.5 -0.5t-1.5 -0.5q-4 0 -4 3t1 5zM1065 509h3q9 0 7 -2q0 -1 -2.5 -3l-2.5 -2v-1h-1q-4 0 -4.5 3t0.5 5zM499 527q2 4 6 4.5t7 0.5
l-2.5 -5t-6.5 -3q-3 0 -3 3h-1zM1068 527q2 4 6 4.5t5 0.5l-2.5 -5t-3.5 -3h-3q-1 0 -1 3h-1zM1079 553l2.5 1.5t4.5 2.5q4 1 4.5 -1t0.5 -3q-2 -3 -3.5 -5.5t-4.5 -0.5q-1 0 -3 2t-1 4zM506 554h8l-2 -5h-8zM514 585q0 1 2 3q3 -4 5.5 -8.5t0.5 -9.5v-3q-3 2 -5 8.5t-2 9.5
h-1zM489 572l1 -1q-1 -1 -2.5 -1.5t-0.5 1.5l0.5 0.5t1.5 0.5zM498 573l1 1h1q0 1 3 3t4 3q2 -2 1 -4l-1 -5l-1 -2q-2 0 -5.5 0.5t-2.5 3.5zM1097 574q1 6 7 6q3 0 3 -2v-4q-2 -5 -8 -5q-4 0 -2 5zM401 589q2 8 9.5 14.5t17.5 6.5h3q-4 -2 -11 -6.5t-9 -5.5l-2 -7
q-4 -14 17 -19q-2 0 -4 -0.5t-5 -0.5q-21 0 -16 18zM1208 589q3 14 -12 21h1q11 0 15 -6.5t2 -14.5q-5 -18 -28 -18h-3q-4 0 -5 1q7 2 17.5 5.5t12.5 11.5zM488 578l-1 -1q1 0 1 -2q0 -1 -1 -1q-2 0 -2 1q0 3 3 3zM513 592l1.5 -0.5t0.5 -2.5q0 -1 -2 -1h-1q-2 0 -2 1
q0 3 3 3zM512 595v-3l-2 -3q-4 0 -2 3q0 3 4 3zM508 598q3 0 3 -3q-2 -3 -4 -3q-3 0 -1 3q0 3 2 3zM540 641q-6 -19 7 -31l9 30l9 3.5t21.5 8t26 9l22.5 7.5q36 12 74 18.5t77 11.5q7 1 14.5 1.5t13.5 0.5h29q69 0 130 -15.5t115 -41.5q0 -1 1 -2l1 -1l-8 -27q10 1 16 11
t8 16v10q-4 8 -17 13.5t-24 9.5q-51 20 -103 31t-114 11q-59 0 -115.5 -8.5t-116.5 -27.5q-6 -3 -17 -7t-21 -7.5t-17.5 -6.5l-7.5 -3l-8 -5q-1 0 -2.5 -3.5t-2.5 -5.5zM438 615q2 0 2 -2q-2 -3 -3 -3q-4 0 -2 3q0 2 3 2zM1190 615q4 0 4 -2q-2 -3 -5 -3t-1 3q0 2 2 2z
M455 632q3 11 12 11q13 0 10 -9q-1 -3 -4 -8t-8 -3q-8 1 -10 2.5t0 6.5zM510 625h1q2 0 2 -2q-1 -2 -2.5 -2.5l-1.5 -0.5q-3 0 -1 3q0 2 2 2zM1212 665h5q-27 -4 -47.5 -15t-42.5 -27h-4q17 14 41 28t48 14zM500 634q1 0 1 1q1 -1 3 -4t5 -3l-1 -3q-3 0 -5 3t-2 5zM1162 634
q1 4 6 6.5t8 2.5q12 0 9 -11q-1 -7 -14 -7q-3 0 -7 2t-2 7zM501 640v-2l-2 -3q-5 0 -3 3q0 2 5 2zM267 643q2 0 2 -3q-2 -2 -3 -2q-4 0 -2 2q0 3 3 3zM456 663h4q12 0 22.5 -7.5t14.5 -15.5q-1 0 -2 -1h-1v1q-2 1 -7 5.5t-6 4.5q-3 2 -12.5 6.5t-12.5 6.5zM453 665
q-1 -1 -6 -1q-4 0 -3 1q-1 1 4 1t5 -1zM314 721q2 0 2 -3q-2 -3 -4 -3q-4 0 -2 3q0 3 4 3zM333 746q3 0 2 -3q0 -2 -4 -2q-2 0 -2 2q1 3 4 3zM356 766v-3l-2 -2q-5 0 -3 2q0 3 5 3zM387 769v-3l-2 -3q-5 0 -3 3q0 3 5 3zM384 773l-1 -2v-2q-2 0 -2 2t3 2zM1398 925
q-3 0 -4 -3q0 -2 3 -2q1 0 1 2q1 3 0 3z" />
    <glyph glyph-name="FL00B6h" unicode="&#xb6;" horiz-adv-x="859" 
d="M797 199q2 5 4 16t4 19l3 9q11 39 35.5 76.5t51.5 74.5t51 75t33 78q15 45 11.5 89t-23.5 81.5t-56 65.5t-85 40q-23 6 -52.5 9.5t-56.5 11.5h-176l-44 -14q13 -8 20 -22.5t9.5 -31.5t3 -33.5t1.5 -28.5q74 1 138.5 -11t108.5 -40.5t61.5 -75t-1.5 -114.5q-8 -26 -21 -51
t-27.5 -50t-28 -50.5t-20.5 -51.5q-6 -23 -4.5 -46t11.5 -43.5t28.5 -35.5t45.5 -21l1 4q-2 0 -4 8t-5 18t-5.5 19.5t-4.5 11.5q0 2 -2 7.5t-5 6.5zM385 92q25 0 47 -7t42.5 -16t40.5 -19t41 -16q-6 30 -4 51t10 48q9 32 24.5 61.5t32 58.5t31.5 58t24 60q12 41 8.5 76.5
t-22.5 61.5t-53 41t-83 15q-24 0 -57 -7.5t-57 -21.5q-17 -10 -44.5 -31.5t-60 -49t-66 -58t-61.5 -59t-47 -52t-23 -36.5q41 0 70.5 17t53.5 37t46.5 37t48.5 17h11q10 0 20 -2t8 -9q-8 -9 -20.5 -12.5t-25.5 -7.5t-25.5 -10t-21.5 -19q-7 -21 -16.5 -47t-23.5 -54.5
t-33 -58t-44 -56.5q-8 -6 -19 -15t-21.5 -19t-18.5 -21t-11 -21q51 0 97 9t96 29q3 0 15 5t25.5 12t26 13t16.5 8l13 9zM747 339l1 2q1 4 -6 7t-10 3q7 0 14.5 3.5t13.5 9t9.5 12t3.5 12.5q0 2 -6 5t-12 4q-5 0 -17.5 0.5t-19.5 0.5h-9q-6 -20 2 -38q-17 4 -21.5 -5
t-6.5 -16q-3 -11 -1.5 -21.5t4 -21t4.5 -21.5t1 -24q16 20 33 43.5t23 44.5zM797 449q-17 0 -31.5 4.5t-26.5 9.5h64l2 8q3 10 3 15v16q-1 7 -1 11v7q-15 -6 -20.5 -7.5t-8.5 -1.5q-4 0 -8.5 1t-16.5 1l2 7l46 17l-18 43l-1.5 0.5t-2.5 0.5l-7 -1l-48 -26l-6 -2q-1 0 -1.5 1
t-3.5 1l53 43l-31 34q-1 0 -5.5 -3t-6.5 -6q-2 -2 -9.5 -10t-15.5 -18.5t-14.5 -19.5t-7.5 -12l-1 -3q-2 -9 1 -11t9 -2t11.5 0.5t10.5 0.5q-8 -27 -9.5 -51t7 -43t28 -31t52.5 -15zM699 645q3 10 -8 14t-17 4h-8q-11 -18 -15.5 -31t-9.5 -30q-1 -3 -3.5 -9t-3.5 -11t0.5 -9
t7.5 -4q4 0 4.5 0.5l0.5 0.5q1 2 6.5 9.5t12 15.5t12 15t5.5 9q5 6 11.5 16t4.5 10zM635 652l7 26q-23 8 -39 9t-39 1h-29q9 -10 17 -28.5t15.5 -37t16 -31.5t20.5 -11q13 22 19 36.5t12 35.5z" />
    <glyph glyph-name="FL00B7h" unicode="&#xb7;" horiz-adv-x="298" 
d="M389 491q11 0 10.5 -7.5t-2.5 -12.5l-9 -32q-8 -26 -19.5 -54.5t-31.5 -48.5q-29 -2 -51 -2.5t-45 -0.5t-48 0.5t-61 0.5l6 21l4 16q3 11 8.5 26.5t12.5 31t14.5 29.5t15.5 22q1 2 7 6t8 4z" />
    <glyph glyph-name="FL00B8h" unicode="&#xb8;" horiz-adv-x="229" 
d="M34 0h181q-17 -22 -38.5 -46.5t-42 -47t-37.5 -41t-24 -27.5q-29 -2 -51 -2.5t-45 -0.5t-48.5 0.5t-61.5 0.5l-50 63l24.5 9.5t59 24t71.5 32t62 35.5z" />
    <glyph glyph-name="four" unicode="&#xb9;" horiz-adv-x="756" 
d="M83 4v-2q-2 -2 2 -2h61q15 0 21.5 13t10.5 24q2 5 3 8.5t2 5.5t6.5 9t6.5 9q0 1 2 5.5t4 9.5q4 10 6 14q1 2 5 9t6 12q0 1 3.5 6t7.5 5q8 0 22.5 -9t35.5 -9h9l9 5l-6 -19q8 0 8 -6t5 -11l-14 -49l-1 -4q2 0 4.5 0.5t6.5 2.5q14 4 25 10.5t24 14.5l56 35q4 2 6.5 3.5
t4.5 6.5q1 2 0 7t0 9q0 3 -0.5 12.5t-0.5 20.5v20v14l2 7q23 -5 35.5 -7.5t18.5 -18.5h4h7h4q23 0 45 2t48 5q6 0 6 -2q18 -20 20.5 -36t-0.5 -43l-1 -3l-2 -9l-1 -3q-1 -2 2 -11.5t5 -10.5q2 -9 -1 -14q-3 -11 -3 -20t14 -13q6 -2 15.5 -3t12.5 -1h10q6 0 14 1t10 9l-0.5 1
t0.5 2q-9 18 -15.5 33t-15.5 32q1 5 1.5 10.5t2.5 13.5l8 27l1 5l6 2l58 11l11 7l5 19q11 4 18 11.5t9 15.5q3 9 3 13q0 5 -5 14l-6 188l15 10t10.5 7.5t7.5 8.5t5 13t-3.5 13.5t-3.5 14.5v1l10 12q0 2 4.5 9t10.5 15t11.5 15t8.5 9l1 6q2 4 1.5 5t-5.5 5q-2 2 -7 10.5
t-7 11.5q-2 2 -2 3t-6 1h-3h-2q-3 0 -10.5 1t-11.5 1q-8 5 -11.5 14.5t-12.5 14.5q2 3 4 14t1 13q0 7 -2.5 11t-0.5 11q2 6 4.5 10t4.5 11q2 9 1 21t-6 23.5t-13.5 20t-20.5 9.5h-19h-20q-3 1 -9 4t-11.5 6.5t-9.5 6.5t-4 4l9 32l6 6q4 14 7.5 21t6.5 19q3 9 0 15t-9 10.5
t-13.5 8t-13.5 7.5h-43q-8 0 -14.5 -4t-17.5 -4v-1q2 -6 4 -9.5t0 -7.5v-2q-1 -2 -4 -6.5t-6 -5.5q2 -2 4 -8t2 -8l-1 -3l-1 -3l-2 -8q1 -8 2 -14.5t-1 -13.5q-1 -2 -4 -9t-4 -9q-23 -1 -40.5 -3t-43.5 -7q-14 -2 -30.5 -5.5t-28.5 -12.5q-41 -39 -77.5 -77t-74.5 -80l-1 -1
q-2 -10 -1 -18.5t-1 -18.5l-2 -6l-17 -28q-14 -23 -27 -45.5t-25 -47.5l-94 -190q-5 -5 -7.5 -11t-4.5 -12l-6 -22q-2 -8 0.5 -9.5t13.5 -1.5q-3 -5 -6 -11t-5 -11q11 0 22 -0.5t23 -0.5q11 0 22.5 2t22.5 4l-21 -73q-2 -5 -6 -8q-15 -17 -26 -32.5t-30 -32.5q-2 -5 -11 -12
t-11 -12zM729 437q-11 21 -22 45.5t-12 50.5q-1 9 -1.5 26t-1 28.5t-0.5 13.5l1 1q8 -4 6 -13q-1 -2 1 -15q-1 -2 0 -5.5l1 -3.5q5 -11 8 -22.5t6.5 -22.5t10.5 -20.5t19 -15.5q3 0 3 -2v-1q0 -1 -2.5 -3t-3.5 -4v-1l-2 -7l-1 -2q-3 -11 3 -17.5t4 -15.5q-1 -4 -6 -4h-2h-2
q0 2 -3.5 5t-3.5 5z" />
    <glyph glyph-name="FL00BAh" unicode="&#xba;" horiz-adv-x="298" 
d="M481 812q11 0 10.5 -7.5t-2.5 -12.5l-9 -32q-8 -26 -19.5 -54.5t-31.5 -48.5q-28 -2 -50 -2.5t-45 -0.5t-48.5 0.5t-61.5 0.5l6 21l4 16q3 11 8.5 26.5t12.5 31t14.5 29.5t15.5 22q2 2 7.5 6t7.5 4z" />
    <glyph glyph-name="FL00BBh" unicode="&#xbb;" horiz-adv-x="576" 
d="M359 304q-2 -8 -9.5 -9t-13.5 -1q-13 -9 -34.5 -22t-46.5 -27t-50.5 -28t-46 -24.5t-34 -17.5t-14.5 -7h-25q9 30 14.5 51.5t11.5 40.5l4 14l3 11l3 11l2 7q1 2 1.5 5t2.5 6q6 2 22 10l36 18t39 20.5t31 18.5q-8 7 -20.5 17.5t-25.5 20.5t-24.5 18.5t-15.5 10.5q1 3 1 5
q0 3 1 5l3 8l3 12q2 5 4.5 10.5t4.5 14.5q5 19 12 40.5t16 51.5h25q1 0 21 -14.5t45.5 -35t49.5 -42t35 -35.5q11 -2 11 -9q0 -1 0.5 -1.5t0.5 -1.5zM627 302q-3 -8 -10 -9t-13 -1q-13 -9 -35 -22t-47 -27t-50.5 -28t-46 -24.5t-34 -17.5l-13.5 -7h-25q8 30 14 51.5t11 40.5
l4 14l3 11l3 11l2 7q1 2 1.5 5t2.5 6q6 2 22.5 10t36 18t39 20.5t31.5 18.5q-8 7 -20.5 17.5t-26 20.5t-25 18.5t-15.5 10.5q0 4 2 10l2 8l3 12q2 5 5 10.5t6 14.5q5 19 12 40.5t15 51.5h25q1 0 21 -14.5t45.5 -35t49.5 -42t35 -35.5q10 -2 10 -9q2 -1 2 -3z" />
    <glyph glyph-name="asciitilde" unicode="&#xbc;" horiz-adv-x="727" 
d="M294 97q13 45 35.5 86.5t36.5 87.5q3 0 9 1.5t8 1.5q5 -2 14.5 -11.5t15.5 -9.5q2 -1 7.5 0t12 2.5t12 3.5t8.5 4l1 1.5t2 3.5q4 16 -2 30.5t-14 28.5t-14 29.5t0 34.5q4 13 14 21.5t23 14.5t27.5 10t27.5 9q8 -5 18.5 -8t21 -5.5t20 -6.5t15.5 -10q15 -17 15.5 -28.5
t2.5 -20.5t12.5 -16.5t43.5 -16.5q28 12 55 30.5t49.5 41t39.5 47.5t24 50q6 22 9 41.5t-2 34t-19 23t-41 8.5q-1 0 -11 -0.5t-13 -0.5q-16 -7 -29.5 -14t-26.5 -15q-19 -16 -29.5 -26.5t-21.5 -22.5q-8 -12 -14 -24.5t-11 -18.5q-12 2 -28.5 7t-31 12.5t-23.5 18t-6 22.5
l5 17l36 -17q19 5 40 35l34 80q8 0 16 -2q0 -1 33 -1l1 10q1 18 -7.5 33t-22.5 26t-33 17.5t-39 6.5q-36 0 -54 -9t-29 -23q-12 -13 -22 -25.5t-17 -37.5q4 -13 -10 -13q-5 1 -9.5 0.5t-9.5 -1.5q-9 -1 -14 -2.5t-7 -1.5l-8 -4t-13 -6t-13 -6t-9 -5l2 6q7 24 23.5 47.5
t35 47.5t35 48.5t24.5 49.5l1 4q1 2 0.5 4.5t-0.5 4.5q-30 -20 -52.5 -45.5t-42 -53.5t-37.5 -57t-39 -56q-6 -10 -14.5 -18.5t-17 -16.5t-15.5 -16.5t-10 -19.5q-3 -9 -0.5 -16.5t5.5 -14.5t5 -14t0 -15q-1 -3 -3 -6.5t-3 -5.5q-22 -15 -47 -34t-47 -40.5t-39 -44
t-23 -44.5q-3 -10 -4 -22.5t2 -23.5t11.5 -18.5t25.5 -7.5q12 0 24 12.5t16 20.5q-4 -13 0.5 -27t23.5 -14q-3 -3 -11.5 -10.5t-18.5 -15.5t-19.5 -15.5t-13.5 -10.5l-1.5 -3t-2.5 -6q-3 -11 5 -19t20.5 -13t26.5 -7t22 -2q-11 -28 -14 -52t5 -41.5t29 -27.5t58 -10
q4 15 0.5 26t-9 22t-9 22.5t1.5 26.5zM305 395q9 0 18 -8t15.5 -19.5t9.5 -23t1 -18.5q-18 0 -28.5 7t-15 17t-4 22t3.5 23zM324 231q-3 -12 -13.5 -29t-28.5 -17q6 19 8 31t2 23t-1 23.5t-1 33.5l1 5l1 4q18 -12 28.5 -32t3.5 -42zM411 405q-2 -5 -10 -7t-16 -2h-7
q-12 0 -22.5 1t-19.5 8q4 3 14 9t13 7h5h6q1 -1 6.5 -3t12 -4.5t12 -5t6.5 -3.5zM462 551q-24 7 -36 -5t-25 -32q-7 -12 -13 -22t-14 -17.5t-18 -11.5t-25 -4h-5q-2 0 -4 3l-4 6l-0.5 1.5t0.5 3.5l2 3q4 4 16.5 17t20.5 21q10 7 10 14t-1 15h-41q0 1 3 3.5t4 4.5
q3 4 11.5 10.5t17.5 12.5t15.5 10.5l6.5 4.5q3 0 15.5 -3t26 -8t24.5 -12t13 -15zM802 495q-2 -7 -10.5 -12t-19.5 -8t-23.5 -4.5t-22.5 -1.5q3 10 6.5 18.5t10.5 15t18.5 11t30.5 6.5q10 -6 11 -11.5t-1 -13.5zM717 435q12 0 8 -12q-3 -13 -15 -13t-9 13q4 12 16 12z
M359 295q3 3 6 2t5 -4t2.5 -6t-2.5 -4q-8 -3 -12 1.5t1 10.5zM612 395q-2 -30 28 -30q7 25 -28 30zM634 420q-12 0 -15 -12q-4 -13 8 -13t16 13q3 12 -9 12zM653 433q-12 0 -16 -13q-3 -12 9 -12t15 12q4 13 -8 13zM254 423q12 0 9 -13q-5 -12 -16 -12l-8 12q3 13 15 13z
M360 458l12 -13h-15zM315 458q12 0 9 -13q-5 -12 -16 -12q-13 0 -8 12q3 13 15 13zM502 483q12 0 9 -13q-5 -12 -16 -12q-13 0 -8 12q3 13 15 13zM587 686q-4 -12 -19.5 -17.5t-29.5 -5.5q3 11 10 17t25 6h14zM738 578q34 15 40 15h16q8 0 10 1l-15 -10l-1 -5l-1 -5
q1 -3 4 -6t5 -4q-11 -4 -23 -11.5t-23.5 -14.5t-23 -12t-21.5 -5q-11 0 -11 11q0 12 3 21z" />
    <glyph glyph-name="FL00BDh" unicode="&#xbd;" horiz-adv-x="574" 
d="M82 7q0 1 8 8t18 16.5t18.5 19.5t10.5 17q5 6 8 14t6 19v1q1 2 0.5 3t0.5 3v1l10 88l1 1q1 2 0 4t0 4l2 5q5 16 11.5 32.5t18.5 30.5l21 24q10 11 13.5 20.5t14.5 25.5q0 3 4 5q9 9 11.5 15.5t4.5 16.5q4 11 3 21t2 21q8 29 20.5 54t29.5 52q5 10 14.5 17.5t12.5 17.5
l3 11l5 19q2 4 1.5 8t0.5 9l-0.5 2.5t-3.5 2.5q0 1 -3 5t-2 6q-2 2 -4 11t-4 14l-37 -43q-4 -3 -6.5 -4t-7.5 -6q-10 -12 -11.5 -25t-9.5 -24l-6 -8q-18 -16 -24 -25.5t-11 -26.5l-1 -2q-1 -3 -1 -7l-1 -3q3 0 7 -4t7.5 -9t5.5 -10t1 -7q-2 -5 -7.5 -12t-8.5 -11l-27 -13h-4
q-14 0 -22 12.5t-5 23.5l9 30v2q-1 0 -0.5 5.5t2 12.5l3 14t2.5 11l1 3l2 9l2 4q5 17 14.5 31t24.5 29l2 6q5 10 14 17.5t17 18.5q1 2 4.5 8t3.5 8l1 3l3 11l2 4l3 5t7 8q5 4 6.5 8.5t3.5 9.5q3 9 10 16l33 28q11 5 23.5 8t24.5 7l63 18q6 2 8 5q2 2 4.5 9.5t2.5 9.5l2 6
q2 5 1 11t1 13l5 16q1 4 3 8t4 9q5 6 13.5 13.5t16.5 7.5h41q9 0 15 -13q2 0 2 -1v0q3 0 2 -4l-1 -5l-3 -9l-3 -12l-2 -6l-1 -5l-3 -8l-1 -5l-8 -9l-9 -33l4 -4q5 0 18 -4.5t19 -4.5q2 -2 12 -6t13 -4q2 -2 9.5 -2.5t8.5 -1.5q8 -3 12 -9t6 -13t2.5 -14.5t2.5 -13.5
q7 -29 19 -53t23 -50q2 -1 2 -6q-1 -18 -4.5 -34t-6.5 -35q4 -9 1.5 -19.5t-5.5 -20.5l-1 -4l-2 -7v-2q-4 -6 -8 -17l-4 -11l-9 -4l-2 -0.5t-4 -0.5q-21 0 -30.5 3t-12.5 17l-4.5 6t0.5 7q1 5 7 9.5t12.5 8.5t12 8t7.5 9q3 10 0 17.5t-8 13.5t-10.5 12t-6.5 14
q-4 12 -1.5 28.5t-2.5 25.5q-2 7 -4 7.5t-10 6.5q-8 5 -13 15.5t-6 18.5h-2q-4 -6 -11 -14.5t-14.5 -17t-13.5 -15t-6 -7.5l-12 -42q0 -2 1 -5t1 -4v-7q0 -5 3 -5q0 -3 3 -15l5 -20q2 -5 2.5 -6.5t-0.5 -3.5v-6q0 -1 -0.5 -2t0.5 -3q1 -7 -1.5 -17t-3.5 -12q0 -8 3 -17.5
t1 -19.5l-20 -68q-7 -10 -9.5 -14.5t-5.5 -14.5q-9 -33 -5 -59q0 -1 0.5 -6.5t2 -12t3.5 -11.5t3 -5q3 -17 1 -33t-7 -33q-8 -26 -18.5 -50.5t-17.5 -48.5l-2 -4l11 -40q2 -3 10.5 -9.5t6.5 -13.5q0 -1 -2 -1h-52q-11 0 -13.5 6.5t-7.5 11.5l-6 3q-3 0 -1 3q1 2 3 11.5
t3 12.5l1 4l1 4l1 1t1 2q1 2 -1 5.5t-1 5.5l1 2q2 5 4.5 8.5t4.5 8.5q3 12 5.5 24.5t-2.5 23.5q-2 2 -7 13.5t-7 13.5q-5 5 -6 13t1 13l20 71q-1 17 0 28t-2 26q1 2 0.5 5t-0.5 4q-5 30 -2 56v1l1 3l1 2v1q-2 4 -2 5q0 2 -3 8q0 8 -2.5 17.5t-2.5 11.5l-1 8q-1 2 0 10.5
t2 11.5q-1 0 -1.5 0.5t-3.5 0.5h-5q-2 0 -7.5 -8.5t-12.5 -20t-14.5 -22t-13.5 -14.5q-9 -11 -10.5 -23t-11.5 -23q-1 -2 -8.5 -11t-8.5 -11q-2 -1 -7 -7t-10 -13t-9.5 -14t-5.5 -10q-5 -6 -8.5 -15.5t-6.5 -20.5l-6 -21l-5 -18q-9 -17 -21.5 -31t-24.5 -28
q-5 -5 -6.5 -13.5t-3.5 -13.5q-3 -11 -2.5 -21t-2.5 -20v-1q0 -1 -3.5 -6t-4.5 -7t-1 -11t-1 -11l-2 -6q-2 -8 -7 -8.5t-11 -6.5q-16 -14 -30 -21.5t-35 -7.5h-3q-3 0 -3.5 0.5t-2.5 0.5h-4q-3 1 -4 3.5t-4 3.5z" />
    <glyph glyph-name="FL00BEh" unicode="&#xbe;" horiz-adv-x="727" 
d="M489 97q6 22 9 43.5t5 43t4.5 43t9.5 44.5q-2 0 -7.5 1.5t-6.5 1.5q-4 -1 -10 -4.5l-12 -7t-11.5 -6.5t-8.5 -3q-3 -1 -8 0t-11 2.5t-11 3.5t-7 4v1q0 2 1 4q4 16 18.5 30.5t30.5 28.5t30.5 29.5t20.5 34.5q4 13 -1 21.5t-15 14.5t-22 10t-22 9q-22 -10 -47.5 -13.5
t-45.5 -16.5q-24 -17 -31.5 -28.5t-14 -20.5t-21 -16.5t-53.5 -16.5q-21 12 -37.5 30.5t-26.5 41t-12.5 47.5t4.5 50q6 22 15 41.5t22 34t32 23t46 8.5q1 0 11 -0.5t13 -0.5q11 -7 20.5 -14t17.5 -15q10 -16 15.5 -26.5t7.5 -22.5t1 -24.5t0 -18.5q13 2 32.5 7t38.5 12.5
t34 18t18 22.5l5 17l-46 -17q-17 5 -20 35l12 80q-9 0 -15 -2q-3 -1 -36 -1l5 10q10 18 27 33t37.5 26t43 17.5t42.5 6.5q36 0 48.5 -9t17.5 -23q4 -13 6.5 -25.5t-4.5 -37.5q-13 -13 2 -13q5 1 9.5 0.5t9.5 -1.5q8 -1 12.5 -2.5t7.5 -1.5q1 -1 5 -4t9 -6t9 -6t6 -5l2 6
q7 24 4 47.5t-8 47.5t-8 48.5t5 49.5l1 4q2 6 5 9q18 -20 26 -45.5t11 -53.5t4.5 -57t6.5 -56q1 -10 4.5 -18.5t7.5 -16.5t6 -16.5t-1 -19.5q-3 -9 -9 -16.5t-13 -14.5t-13 -14t-8 -15q-1 -3 -1.5 -6.5t-1.5 -5.5q14 -15 28 -34t24 -40.5t14 -44t-2 -44.5q-3 -10 -9 -22.5
t-16 -23.5t-23 -18.5t-29 -7.5q-12 0 -17 12.5t-3 20.5q-4 -13 -16.5 -27t-31.5 -14q1 -3 5.5 -10.5t10 -15.5t10 -15.5t7.5 -10.5l-0.5 -3t-1.5 -6q-3 -11 -15 -19t-27 -13t-30 -7t-24 -2q-6 -28 -17 -52t-29 -41.5t-44 -27.5t-63 -10q4 15 14 26t21 22t21 22.5t15 26.5z
M648 395q-9 0 -22.5 -8t-26 -19.5t-22.5 -23t-12 -18.5q18 0 32 7t24.5 17t17 22t9.5 23zM535 231q-2 -6 -3 -14t0.5 -15t5.5 -12t13 -5q6 19 11 31t11 23t14 23.5t20 33.5l1 5l1 4q-24 -12 -45.5 -32t-28.5 -42zM548 405q-2 -5 6 -7t16 -2h7q12 0 23 1t24 8q-3 3 -9.5 9
t-8.5 7h-5h-6q-1 -1 -8 -3t-15 -4.5t-15 -5t-9 -3.5zM582 551q14 3 21.5 1.5t11 -6.5t4.5 -13.5t1 -18.5q0 -12 1 -22t5 -17.5t12 -11.5t22 -4h5q2 0 5.5 3t7.5 6l1 1.5t2 3.5l-1 3q-2 4 -6.5 17t-9.5 21q-5 7 -0.5 14t9.5 15h41q0 1 -2 3.5t-1 4.5q-1 4 -6 10.5t-10 12.5
t-9 10.5t-3 4.5q-4 0 -18 -3t-30.5 -8t-31.5 -12t-21 -15zM209 495q-2 -7 3 -12t14.5 -8t21 -4.5t22.5 -1.5q3 10 4.5 18.5t-2 15t-12.5 11t-27 6.5q-12 -6 -17 -11.5t-7 -13.5zM261 435q-12 0 -16 -12q-3 -13 9 -13t15 13q4 12 -8 12zM539 295q-2 3 -6 2t-7.5 -4t-6 -6
t-0.5 -4q7 -3 13.5 1.5t6.5 10.5zM341 395q-14 -30 -44 -30q8 26 44 30zM334 420q12 0 9 -12q-4 -13 -16 -13t-8 13q3 12 15 12zM322 433q12 0 8 -13q-3 -12 -15 -12t-9 12q4 13 16 13zM715 423q-12 0 -15 -13q-5 -12 8 -12l16 12q3 13 -9 13zM629 458l-17 -13h14zM675 458
q-12 0 -15 -13q-5 -12 8 -12q11 0 16 12q3 13 -9 13zM502 483q-12 0 -15 -13q-5 -12 8 -12q11 0 16 12q3 13 -9 13zM534 686q-4 -12 8.5 -17.5t26.5 -5.5q3 11 0.5 17t-20.5 6h-15zM321 578q-24 15 -32 15h-16q-8 0 -9 1l9 -10l-1 -5l-1 -5q-5 -3 -9.5 -6t-5.5 -4
q9 -4 16 -11.5t14.5 -14.5t15.5 -12t19 -5q10 0 17.5 11.5t10.5 20.5z" />
    <glyph glyph-name="FL00BFh" unicode="&#xbf;" horiz-adv-x="846" 
d="M571 322q-6 -4 -30.5 -9t-56.5 -15t-66 -27.5t-58 -46.5q-26 -31 -27 -50t15 -28.5t45 -12.5t64 -2t71.5 3t67.5 2q14 0 80 12t189 46l-47 -167q-1 -1 -14.5 -5t-20.5 -5q-38 -6 -87 -10t-101.5 -6t-102.5 -3t-89 -1q-69 0 -133 7.5t-108.5 33t-61.5 75.5t7 136
q15 51 43.5 80t66.5 45.5t83 24t92 14.5t93.5 18.5t88.5 35.5q15 4 32.5 8.5t31.5 11.5t22.5 16.5t4.5 22.5q-6 19 15 30l219 -3q-11 -36 -18.5 -58.5t-20 -37.5t-33 -26t-56.5 -25zM708 653q-10 0 -9.5 7.5t2.5 12.5l9 32q8 26 19 54.5t31 48.5q29 2 57.5 1t51.5 -1
t48.5 -0.5t61.5 -0.5l-6 -21l-4 -16q-3 -11 -9 -26.5t-12.5 -31t-14.5 -29.5t-15 -22q-2 -2 -7 -6t-8 -4z" />
    <glyph glyph-name="FL00C0h" unicode="&#xc0;" horiz-adv-x="1261" 
d="M504 337q-1 -1 -1 -3v-2q0 -2 4 -6t5 -4h245l-50 220l-12 13l-189 -213l-1 -2t-1 -3zM45 32q124 103 234.5 215.5t215.5 224.5q6 6 25 27.5t41.5 47t43.5 49.5t32 36q22 26 36.5 50t31 44.5t39 37t59.5 28.5q11 4 26 9.5t31.5 10t32.5 8t28 3.5q8 0 13 -1.5t7 -9.5
l170 -620q11 -39 33 -80t56 -70q3 -3 9 -5t11 -4.5t8 -6t2 -9.5q0 -1 -1.5 -3l-1.5 -2q-3 -2 -7 -6t-7 -4h-372q-9 0 -12 17t-5 42t-3.5 54.5t-7.5 54.5t-18 41t-33 15l-63 -3q-36 -2 -87 -4.5t-101.5 -8.5t-92.5 -17.5t-60 -30.5l-141 -160l-15 -10q-1 0 -16.5 -0.5
t-22.5 -0.5h-15q-8 0 -17 0.5t-17 0.5h-8q-8 0 -20 1.5t-23 3t-18.5 3t-7.5 2.5zM736 1056l181 -1q3 0 5 -4t4 -6q12 -11 31 -37t36 -53.5t29.5 -48.5l12.5 -21l-6 -21q-36 0 -62 -0.5t-49 -0.5t-45 0.5t-49 2.5q-3 13 -22 36t-39 48t-35 48.5t-11 37.5q2 5 5.5 12.5
t13.5 7.5z" />
    <glyph glyph-name="FL00C1h" unicode="&#xc1;" horiz-adv-x="1261" 
d="M45 32l-8 -30q0 -1 7.5 -2.5t18.5 -3t23 -3t20 -1.5h8q8 0 17 -0.5t17 -0.5h15q7 0 22.5 0.5t16.5 0.5l15 10l141 160q18 19 60 30.5t92.5 17.5t101.5 8.5t87 4.5l63 3q21 1 33 -15t18 -41t7.5 -54.5t3.5 -54.5t5 -42t12 -17h372q3 0 7 4t7 6l1.5 2t1.5 3q1 6 -2 9.5
t-8 6t-11 4.5t-9 5q-34 29 -56 70t-33 80l-170 620q-2 8 -7 9.5t-13 1.5q-12 0 -28 -3.5t-32.5 -8t-31.5 -10t-26 -9.5q-37 -12 -59.5 -28.5t-39 -37t-31 -44.5t-36.5 -50q-11 -12 -32 -36t-43.5 -49.5t-41.5 -47t-25 -27.5q-105 -112 -215.5 -224.5t-234.5 -215.5zM504 337
q0 1 1 3l1 2l189 213l12 -13l50 -220h-245q-1 0 -5 4t-4 6v2t1 3zM1090 1053l-181 -1q-2 0 -6.5 -4t-8.5 -6q-13 -8 -33 -23t-42 -32.5t-44.5 -35.5t-40.5 -33t-29.5 -25t-11.5 -11l-6 -21q36 0 62 -0.5t49 -0.5t44.5 0.5t50.5 2.5q7 9 24.5 22.5t39.5 29t45.5 32.5t44 33
t35 30t16.5 23q2 5 2.5 12.5t-10.5 7.5z" />
    <glyph glyph-name="FL00C2h" unicode="&#xc2;" horiz-adv-x="1261" 
d="M45 32l-8 -30q0 -1 7.5 -2.5t18.5 -3t23 -3t20 -1.5h8q8 0 17 -0.5t17 -0.5h15q7 0 22.5 0.5t16.5 0.5l15 10l141 160q18 19 60 30.5t92.5 17.5t101.5 8.5t87 4.5l63 3q21 1 33 -15t18 -41t7.5 -54.5t3.5 -54.5t5 -42t12 -17h372q3 0 7 4t7 6l1.5 2t1.5 3q1 6 -2 9.5
t-8 6t-11 4.5t-9 5q-34 29 -56 70t-33 80l-170 620q-2 8 -7 9.5t-13 1.5q-12 0 -28 -3.5t-32.5 -8t-31.5 -10t-26 -9.5q-37 -12 -59.5 -28.5t-39 -37t-31 -44.5t-36.5 -50q-11 -12 -32 -36t-43.5 -49.5t-41.5 -47t-25 -27.5q-105 -112 -215.5 -224.5t-234.5 -215.5zM504 337
q0 1 1 3l1 2l189 213l12 -13l50 -220h-245q-1 0 -5 4t-4 6v2t1 3zM849 1056q-10 0 -13 -6t-5 -11q-21 -13 -54 -38.5t-64.5 -52t-54.5 -46t-23 -20.5l-6 -21q36 0 61.5 -0.5t48.5 -0.5q11 0 17 -0.5t12 -0.5h13h9h5q4 0 9 1q4 4 16.5 16t28.5 26t32.5 27.5t28.5 21.5
q6 -8 15 -21t17 -26.5t14.5 -25t8.5 -15.5q4 -1 12 -1h9h15q6 0 12.5 0.5t17.5 0.5q23 0 49 0.5t62 0.5l6 21q0 1 -11.5 21t-28.5 46t-35.5 52t-31.5 38q0 10 -8 11q-2 2 -3 2z" />
    <glyph glyph-name="FL00C3h" unicode="&#xc3;" horiz-adv-x="1261" 
d="M45 32l-8 -30q0 -1 7.5 -2.5t18.5 -3t23 -3t20 -1.5h8q8 0 17 -0.5t17 -0.5h15q7 0 22.5 0.5t16.5 0.5l15 10l141 160q17 19 59.5 30.5t93.5 18.5t102 9.5t86 2.5h41q29 0 46 -16.5t26.5 -41t13 -53t5 -53t3 -41t7.5 -16.5h372q3 0 7 4t7 6l1.5 2t1.5 3q1 6 -2 9.5t-8 6
t-11 4.5t-9 5q-34 29 -56 70t-33 80l-170 620q-2 8 -7 9.5t-13 1.5q-12 0 -28 -3.5t-32.5 -8t-31.5 -10t-26 -9.5q-37 -12 -59.5 -28.5t-39 -37t-31 -44.5t-36.5 -50q-11 -12 -32 -36t-43.5 -49.5t-41.5 -47t-25 -27.5q-105 -112 -215.5 -224.5t-234.5 -215.5zM504 337
q0 1 1 3l1 2l189 213l12 -13l50 -220h-245q-1 0 -5 4t-4 6v2t1 3zM579 820l-1 -4q2 -2 7 -3.5t10.5 -3t10 -2.5t5.5 -1q4 1 15.5 11.5t24.5 23.5t24 24.5t14 14.5h417q2 1 7.5 6.5l9.5 9.5q19 22 33 37t25 29t19 29.5t15 39.5q3 11 -5.5 15t-20.5 4h-6l-59 -60
q-5 -2 -15.5 -6t-11.5 -4h-406q-1 -1 -7 -8.5t-11 -12.5q-10 -15 -24 -32.5t-28 -35.5t-25.5 -36t-16.5 -35z" />
    <glyph glyph-name="FL00C4h" unicode="&#xc4;" horiz-adv-x="1261" 
d="M504 337q-1 -1 -1 -3v-2q0 -2 4 -6t5 -4h245l-50 220l-12 13l-189 -213l-1 -2t-1 -3zM45 32q124 103 234.5 215.5t215.5 224.5q6 6 25 27.5t41.5 47t43.5 49.5t32 36q22 26 36.5 50t31 44.5t39 37t59.5 28.5q11 4 26 9.5t31.5 10t32.5 8t28 3.5q8 0 13 -1.5t7 -9.5
l170 -620q11 -39 33 -80t56 -70q3 -3 9 -5t11 -4.5t8 -6t2 -9.5q0 -1 -1.5 -3l-1.5 -2q-3 -2 -7 -6t-7 -4h-372q-6 0 -7.5 16.5t-3 41t-5 53t-13 53t-26.5 41t-46 16.5h-41q-35 0 -86 -2.5t-102 -9.5t-93.5 -18.5t-59.5 -30.5l-141 -160l-15 -10q-1 0 -16.5 -0.5t-22.5 -0.5
h-15q-8 0 -17 0.5t-17 0.5h-8q-8 0 -20 1.5t-23 3t-18.5 3t-7.5 2.5zM888 1020q11 0 11 -8q0 -7 -2 -12l-9 -32q-8 -26 -19.5 -54.5t-31.5 -48.5q-29 -2 -51 -2.5t-45 -0.5t-48.5 0.5t-61.5 0.5l6 21l5 16q3 11 8 26.5t12 31t14.5 29.5t15.5 22q2 2 7.5 6t7.5 4zM1180 1021
q10 0 9.5 -7.5t-2.5 -12.5l-9 -32q-8 -26 -19 -54.5t-31 -48.5q-29 -2 -51 -2.5t-45 -0.5t-48.5 0.5t-61.5 0.5l6 21l4 16q3 11 8.5 26.5t12.5 31t15 29.5t16 22q1 2 6 6t8 4z" />
    <glyph glyph-name="FL00C5h" unicode="&#xc5;" horiz-adv-x="1261" 
d="M504 337q-1 -1 -1 -3v-2q0 -2 4 -6t5 -4h245l-50 220l-12 13l-189 -213l-1 -2t-1 -3zM45 32q124 103 234.5 215.5t215.5 224.5q6 6 25 27.5t41.5 47t43.5 49.5t32 36q22 26 36.5 50t31 44.5t39 37t59.5 28.5q11 4 26 9.5t31.5 10t32.5 8t28 3.5q8 0 13 -1.5t7 -9.5
l170 -620q11 -39 33 -80t56 -70q3 -3 9 -5t11 -4.5t8 -6t2 -9.5q0 -1 -1.5 -3l-1.5 -2q-3 -2 -7 -6t-7 -4h-372q-6 0 -7.5 16.5t-3 41t-5 53t-13 53t-26.5 41t-46 16.5h-41q-35 0 -86 -2.5t-102 -9.5t-93.5 -18.5t-59.5 -30.5l-141 -160l-15 -10q-1 0 -16.5 -0.5t-22.5 -0.5
h-15q-8 0 -17 0.5t-17 0.5h-8q-8 0 -20 1.5t-23 3t-18.5 3t-7.5 2.5zM1014 1022q10 0 9.5 -7.5t-2.5 -12.5l-9 -32q-8 -26 -19 -54.5t-30 -48.5q-29 -2 -51 -2.5t-45 -0.5t-48.5 0.5t-61.5 0.5l6 21l5 16q3 11 8 26.5t11.5 31t14.5 29.5t16 22q2 2 7 6t8 4z" />
    <glyph glyph-name="FL00C6h" unicode="&#xc6;" horiz-adv-x="1796" 
d="M45 32l-8 -30q0 -1 7.5 -2.5t18.5 -3t23 -3t20 -1.5h8q8 0 17 -0.5t17 -0.5h15q7 0 22.5 0.5t16.5 0.5l15 10l141 160q17 19 59.5 30.5t93.5 18.5t102 9.5t86 2.5h41q29 0 46 -16.5t26.5 -41t13 -53t5 -53t3 -41t7.5 -16.5h28q0 -2 2 -2h612q38 0 89 10.5t99 31t86 50.5
t49 69q-65 0 -127.5 -6t-128.5 -6q-36 0 -74.5 -0.5t-76.5 1t-74.5 6t-68.5 14.5q47 34 97 64.5t100.5 60.5t100.5 60.5t97 64.5q2 1 3.5 4.5t2.5 5.5q1 5 -13.5 21t-38 38t-53 48.5t-57.5 52t-51.5 48.5t-35.5 39q4 1 17 3t27 3.5t26.5 2.5t16.5 1q12 1 37 3t56.5 4
t66.5 4.5t66 4.5t56 3t36 1q13 8 29.5 18.5t33.5 22t32.5 24.5t26.5 25l1.5 2t1.5 3t-0.5 3l-0.5 2q0 2 -3 5.5t-6 4.5q-8 -1 -25 -3t-36.5 -3.5t-37 -2.5t-24.5 -1q-20 0 -63 -0.5t-99 -0.5h-229q-54 0 -97 0.5t-64 0.5l-9 -6t-13 -8.5t-13.5 -9t-8.5 -6.5l-35 -27.5
t-41 -32.5t-34.5 -27.5t-14.5 -12.5l-6 -20l275 -331l-246 -122l-166 608q-2 8 -7 9.5t-13 1.5q-12 0 -28 -3.5t-32.5 -8t-31.5 -10t-26 -9.5q-37 -12 -59.5 -28.5t-39 -37t-31 -44.5t-36.5 -50q-11 -12 -32 -36t-43.5 -49.5t-41.5 -47t-25 -27.5q-105 -112 -215.5 -224.5
t-234.5 -215.5zM504 337q0 1 1 3l1 2l189 213l12 -13l50 -220h-245q-1 0 -5 4t-4 6v2t1 3z" />
    <glyph glyph-name="FL00C7h" unicode="&#xc7;" horiz-adv-x="1068" 
d="M925 752l140 -88l110 8q69 66 77 95q5 17 -2 31t-21 31h-409q-56 -4 -108.5 -11.5t-103 -20t-99.5 -32t-98 -48.5q-97 -57 -166 -143.5t-103 -204.5q-25 -87 1.5 -153t86.5 -111.5t144.5 -71.5t176.5 -33q-25 -18 -62 -35.5t-71 -32t-58.5 -24l-24.5 -9.5l49 -63
q36 0 61.5 -0.5t48.5 -0.5t45 0.5t51 2.5q7 9 23.5 27.5t37 41t42.5 47t39 46.5h259l35 117q-185 -6 -311.5 -14t-190.5 4l-17 4q2 -1 4.5 -1.5l7.5 -1.5l-16 6q-33 21 -46 53t-13 71q0 40 10.5 84.5t23.5 89.5q16 55 40.5 115t64.5 110t98 82t141 32z" />
    <glyph glyph-name="FL00C8h" unicode="&#xc8;" horiz-adv-x="974" 
d="M40 15q1 1 1.5 2.5t1.5 2.5q6 6 20.5 22t31 33.5t31 33t20.5 21.5q4 2 14.5 10t15.5 10l355 176l-275 331l6 20q0 1 14.5 12.5t34.5 27.5t41 32.5l35 27.5q2 2 8.5 6.5t13.5 9t13 8.5l9 6q21 0 64 -0.5t97 -0.5h115h114q56 0 99 0.5t63 0.5q7 0 24.5 1t37 2.5t36.5 3.5
t25 3q3 -1 6 -4.5t3 -5.5l0.5 -2t0.5 -3t-1.5 -3l-1.5 -2q-11 -12 -26.5 -25t-32.5 -24.5t-33.5 -22t-29.5 -18.5q-11 0 -36 -1t-56 -3t-66 -4.5t-66.5 -4.5t-56.5 -4t-37 -3q-4 0 -16.5 -1t-26.5 -2.5t-27 -3.5t-17 -3q12 -16 35.5 -39t51.5 -48.5t57.5 -52t53 -48.5
t38 -38t13.5 -21q-1 -2 -2.5 -5.5t-3.5 -4.5q-47 -34 -97 -64.5t-100.5 -60.5t-100.5 -60.5t-97 -64.5q32 -10 68.5 -14.5t74.5 -6t76.5 -1t74.5 0.5q66 0 128.5 6t127.5 6q-11 -39 -49 -69t-86 -50.5t-99 -31t-89 -10.5h-612q-1 0 -4 4t-5 6v5zM628 1055l180 -1q3 0 5 -4
t4 -6q8 -8 19.5 -23t24 -32.5t24.5 -35.5t21 -33l15 -25t5 -11l-6 -21q-36 0 -61.5 -0.5t-48.5 -0.5t-45 0.5t-49 2.5q-3 13 -22 36t-39 48t-35 48.5t-11 37.5q2 5 5.5 12.5t13.5 7.5z" />
    <glyph glyph-name="FL00C9h" unicode="&#xc9;" horiz-adv-x="974" 
d="M40 15v-5q2 -2 5 -6t4 -4h612q38 0 89 10.5t99 31t86 50.5t49 69q-65 0 -127.5 -6t-128.5 -6q-36 0 -74.5 -0.5t-76.5 1t-74.5 6t-68.5 14.5q47 34 97 64.5t100.5 60.5t100.5 60.5t97 64.5q2 1 3.5 4.5t2.5 5.5q1 5 -13.5 21t-38 38t-53 48.5t-57.5 52t-51.5 48.5
t-35.5 39q4 1 17 3t27 3.5t26.5 2.5t16.5 1q12 1 37 3t56.5 4t66.5 4.5t66 4.5t56 3t36 1q13 8 29.5 18.5t33.5 22t32.5 24.5t26.5 25l1.5 2t1.5 3t-0.5 3l-0.5 2q0 2 -3 5.5t-6 4.5q-8 -1 -25 -3t-36.5 -3.5t-37 -2.5t-24.5 -1q-20 0 -63 -0.5t-99 -0.5h-114h-115
q-54 0 -97 0.5t-64 0.5l-9 -6t-13 -8.5t-13.5 -9t-8.5 -6.5l-35 -27.5t-41 -32.5t-34.5 -27.5t-14.5 -12.5l-6 -20l275 -331l-355 -176q-5 -2 -15.5 -10t-14.5 -10q-6 -6 -20.5 -21.5t-31 -33t-31 -33.5t-20.5 -22q-1 -1 -1.5 -2.5t-1.5 -2.5zM998 1054l-181 -1
q-3 0 -7.5 -4t-7.5 -6q-13 -8 -32.5 -22.5t-42 -32t-45 -36t-40.5 -34t-29.5 -25.5l-11.5 -10l-6 -21q36 0 61.5 -0.5t48.5 -0.5t45 0.5t51 2.5q7 9 24.5 22.5t39 29t45.5 32.5t44 33t34.5 30t16.5 23q2 5 2.5 12.5t-9.5 7.5z" />
    <glyph glyph-name="FL00CAh" unicode="&#xca;" horiz-adv-x="974" 
d="M40 15v-5q2 -2 5 -6t4 -4h612q38 0 89 10.5t99 31t86 50.5t49 69q-65 0 -127.5 -6t-128.5 -6q-36 0 -74.5 -0.5t-76.5 1t-74.5 6t-68.5 14.5q47 34 97 64.5t100.5 60.5t100.5 60.5t97 64.5q2 1 3.5 4.5t2.5 5.5q1 5 -13.5 21t-38 38t-53 48.5t-57.5 52t-51.5 48.5
t-35.5 39q4 1 17 3t27 3.5t26.5 2.5t16.5 1q12 1 37 3t56.5 4t66.5 4.5t66 4.5t56 3t36 1q13 8 29.5 18.5t33.5 22t32.5 24.5t26.5 25l1.5 2t1.5 3t-0.5 3l-0.5 2q0 2 -3 5.5t-6 4.5q-8 -1 -25 -3t-36.5 -3.5t-37 -2.5t-24.5 -1q-20 0 -63 -0.5t-99 -0.5h-114h-115
q-54 0 -97 0.5t-64 0.5l-9 -6t-13 -8.5t-13.5 -9t-8.5 -6.5l-35 -27.5t-41 -32.5t-34.5 -27.5t-14.5 -12.5l-6 -20l275 -331l-355 -176q-5 -2 -15.5 -10t-14.5 -10q-6 -6 -20.5 -21.5t-31 -33t-31 -33.5t-20.5 -22q-1 -1 -1.5 -2.5t-1.5 -2.5zM712 1057q-10 0 -13 -6t-5 -11
q-20 -13 -53 -38.5t-64.5 -52t-55 -46t-23.5 -20.5l-6 -21q36 0 61.5 -0.5t48.5 -0.5q11 0 17.5 -0.5t12.5 -0.5h13h9h5q4 0 8 1q4 4 16.5 16t28.5 26t32.5 27.5t28.5 21.5q6 -8 15 -21t17.5 -26.5t15 -25t8.5 -15.5q4 -1 11 -1h9h15q6 0 13 0.5t18 0.5q23 0 48.5 0.5
t61.5 0.5l6 21q0 1 -11.5 21t-28 46t-35.5 52t-32 38q2 9 -8 11q0 2 -3 2z" />
    <glyph glyph-name="FL00CBh" unicode="&#xcb;" horiz-adv-x="974" 
d="M40 15q1 1 1.5 2.5t1.5 2.5q6 6 20.5 22t31 33.5t31 33t20.5 21.5q4 2 14.5 10t15.5 10l355 176l-275 331l6 20q0 1 14.5 12.5t34.5 27.5t41 32.5l35 27.5q2 2 8.5 6.5t13.5 9t13 8.5l9 6q21 0 64 -0.5t97 -0.5h115h114q56 0 99 0.5t63 0.5q7 0 24.5 1t37 2.5t36.5 3.5
t25 3q3 -1 6 -4.5t3 -5.5l0.5 -2t0.5 -3t-1.5 -3l-1.5 -2q-11 -12 -26.5 -25t-32.5 -24.5t-33.5 -22t-29.5 -18.5q-11 0 -36 -1t-56 -3t-66 -4.5t-66.5 -4.5t-56.5 -4t-37 -3q-4 0 -16.5 -1t-26.5 -2.5t-27 -3.5t-17 -3q12 -16 35.5 -39t51.5 -48.5t57.5 -52t53 -48.5
t38 -38t13.5 -21q-1 -2 -2.5 -5.5t-3.5 -4.5q-47 -34 -97 -64.5t-100.5 -60.5t-100.5 -60.5t-97 -64.5q32 -10 68.5 -14.5t74.5 -6t76.5 -1t74.5 0.5q66 0 128.5 6t127.5 6q-11 -39 -49 -69t-86 -50.5t-99 -31t-89 -10.5h-612q-1 0 -4 4t-5 6v5zM755 1020q10 0 10 -8
q0 -7 -2 -12l-9 -32q-8 -26 -19 -54.5t-31 -48.5q-29 -2 -51 -2.5t-45 -0.5t-48.5 0.5t-61.5 0.5l6 21l5 16q3 11 8 26.5t11.5 31t14.5 29.5t16 22q2 2 7 6t8 4zM1047 1021q10 0 9.5 -7.5t-2.5 -12.5l-9 -32q-8 -26 -19.5 -54.5t-31.5 -48.5q-29 -2 -50.5 -2.5t-44.5 -0.5
t-48.5 0.5t-61.5 0.5l6 21l4 16q3 11 8.5 26.5t12.5 31t14.5 29.5t15.5 22q2 2 7 6t7 4z" />
    <glyph glyph-name="FL00CCh" unicode="&#xcc;" horiz-adv-x="968" 
d="M371 128h1l161 542l-9 10q-1 0 -17 0.5t-26 0.5q-44 0 -82.5 -3t-79.5 -9q-3 0 -12.5 -3t-20.5 -7t-20.5 -7t-12.5 -3q-1 0 -5.5 -0.5t-9.5 -1l-10 -1t-6 -0.5q6 19 18 42t27 45t30 42t26 34h12q54 0 101.5 -1.5t94.5 -3.5t95.5 -3.5t104.5 -1.5q60 0 112.5 1.5t104 3.5
t104 3.5t112.5 1.5l-6 -20l-134 -90q-9 0 -24.5 -1t-32 -2.5t-32 -3t-24.5 -2.5t-21.5 -2.5t-24.5 -3t-20.5 -3l-8.5 -1.5l-26 -50l-7 -23q-6 -20 -13.5 -45.5t-15.5 -52.5l-12 -41q-24 -85 -43 -167.5t-41 -167.5l5 -5q1 0 16.5 -0.5t25.5 -0.5q45 0 79 2t76 8q3 0 12.5 3
t20.5 7t20.5 7t12.5 3q1 0 6 0.5l10 1t9.5 1t5.5 0.5q-6 -20 -18 -42.5t-27 -44.5t-30 -42t-26 -34h-12q-60 0 -116 1.5t-114 3t-120 2.5t-134 1t-157 -1.5t-188 -6.5l6 20l134 90q10 0 26 1.5t34 3t34.5 3.5t26.5 3l20 2.5l24 3t21 3t10 1.5zM585 1055l180 -1q3 0 5 -4
t4 -6q8 -8 19.5 -23t24 -32.5t24.5 -35.5t21 -33l15 -25t5 -11l-6 -21q-36 0 -61.5 -0.5t-48.5 -0.5t-45 0.5t-49 2.5q-3 13 -22 36t-39 48t-35 48.5t-11 37.5q2 5 5.5 12.5t13.5 7.5z" />
    <glyph glyph-name="FL00CDh" unicode="&#xcd;" horiz-adv-x="968" 
d="M371 128q-1 0 -10 -1.5t-21 -3l-24 -3l-20 -2.5q-10 -1 -26.5 -3t-34.5 -3.5t-34 -3t-26 -1.5l-134 -90l-6 -20q103 5 188 6.5t157 1.5t134 -1t120 -2.5t114 -3t116 -1.5h12q11 14 26 34t30 42t27 44.5t18 42.5q-1 0 -5.5 -0.5t-9.5 -1l-10 -1t-6 -0.5q-3 0 -12.5 -3
t-20.5 -7t-20.5 -7t-12.5 -3q-42 -6 -76 -8t-79 -2q-10 0 -25.5 0.5t-16.5 0.5l-5 5q22 85 41 167.5t43 167.5l12 41q8 27 15.5 52.5t13.5 45.5l7 23l26 50l8.5 1.5t20.5 3t24.5 3t21.5 2.5t24.5 2.5t32 3t32 2.5t24.5 1l134 90l6 20q-60 0 -112.5 -1.5t-104 -3.5t-104 -3.5
t-112.5 -1.5q-56 0 -104.5 1.5t-95.5 3.5t-94.5 3.5t-101.5 1.5h-12q-11 -14 -26 -34t-30 -42t-27 -45t-18 -42q1 0 6 0.5l10 1t9.5 1t5.5 0.5q3 0 12.5 3t20.5 7t20.5 7t12.5 3q41 6 79.5 9t82.5 3q10 0 26 -0.5t17 -0.5l9 -10l-161 -542h-1zM980 1056l-181 -1
q-3 0 -7.5 -4t-7.5 -6q-13 -7 -32.5 -21.5t-42 -32.5t-45 -36.5t-40.5 -34t-29.5 -25.5l-11.5 -10l-6 -21q36 0 61 -0.5t48 -0.5t45 0.5t51 2.5q7 9 24.5 22.5t39 29t45.5 32.5t44.5 33t34.5 30t17 23q2 5 2.5 12.5t-9.5 7.5z" />
    <glyph glyph-name="FL00CFh" unicode="&#xce;" horiz-adv-x="1051" 
d="M409 128q-1 0 -9.5 -1.5t-20.5 -3t-24.5 -3t-20.5 -2.5q-10 -1 -32.5 -3t-47 -3.5t-47 -2.5t-32.5 -1l-134 -90l-6 -20q155 7 283 8t238 -1t205.5 -4.5t185.5 -2.5h12q11 14 26 34t30 42t27 44.5t18 42.5q-3 0 -15 -1t-16 -2q-3 0 -12.5 -3t-20 -7t-20 -7t-12.5 -3
q-21 -3 -46.5 -5t-52.5 -3.5t-53.5 -2t-48.5 -0.5q-10 0 -25.5 0.5t-16.5 0.5l-5 5q22 85 41 167.5t43 167.5l12 41q8 27 15.5 52.5t13.5 45.5l7 23l26 50l9 1.5t21 3t24.5 3t20.5 2.5q9 1 31.5 3t48 3.5t48 2.5t31.5 1l134 90l5 20q-120 0 -238.5 -5.5t-239.5 -5.5
q-113 0 -219 5.5t-215 5.5h-12q-11 -14 -26 -34t-29.5 -42t-27 -45t-17.5 -42q3 0 15.5 1t14.5 2q3 0 12.5 3t20.5 7t20.5 7t12.5 3q20 3 45.5 5t52.5 3.5t53.5 2t48.5 0.5q10 0 26 -0.5t17 -0.5l9 -10l-161 -542h-1zM727 1058q-11 0 -13.5 -6t-4.5 -11q-20 -13 -53.5 -38.5
t-65 -52t-55 -46t-23.5 -20.5l-6 -21q36 0 62 -0.5t49 -0.5q11 0 17 -0.5t13 -0.5h13h8h6q4 0 7 1q4 4 17 16t29 26t32.5 27.5t28.5 21.5q6 -8 14.5 -21t17 -26.5t15 -25t8.5 -15.5q5 -1 12 -1h10h14q7 0 13 0.5t17 0.5q23 0 49 0.5t62 0.5l6 21q0 1 -11.5 21t-28.5 46
t-35.5 52t-32.5 38q2 9 -7 11q-2 2 -3 2z" />
    <glyph glyph-name="FL00D1h" unicode="&#xcf;" horiz-adv-x="968" 
d="M371 128h1l161 542l-9 10q-1 0 -17 0.5t-26 0.5q-44 0 -82.5 -3t-79.5 -9q-3 0 -12.5 -3t-20.5 -7t-20.5 -7t-12.5 -3q-1 0 -5.5 -0.5t-9.5 -1l-10 -1t-6 -0.5q6 19 18 42t27 45t30 42t26 34h12q54 0 101.5 -1.5t94.5 -3.5t95.5 -3.5t104.5 -1.5q60 0 112.5 1.5t104 3.5
t104 3.5t112.5 1.5l-6 -20l-134 -90q-9 0 -24.5 -1t-32 -2.5t-32 -3t-24.5 -2.5t-21.5 -2.5t-24.5 -3t-20.5 -3l-8.5 -1.5l-26 -50l-7 -23q-6 -20 -13.5 -45.5t-15.5 -52.5l-12 -41q-24 -85 -43 -167.5t-41 -167.5l5 -5q1 0 16.5 -0.5t25.5 -0.5q45 0 79 2t76 8q3 0 12.5 3
t20.5 7t20.5 7t12.5 3q1 0 6 0.5l10 1t9.5 1t5.5 0.5q-6 -20 -18 -42.5t-27 -44.5t-30 -42t-26 -34h-12q-60 0 -116 1.5t-114 3t-120 2.5t-134 1t-157 -1.5t-188 -6.5l6 20l134 90q10 0 26 1.5t34 3t34.5 3.5t26.5 3l20 2.5l24 3t21 3t10 1.5zM734 1017q10 0 9.5 -7.5
t-2.5 -12.5l-9 -32q-8 -26 -19.5 -54.5t-31.5 -48.5q-29 -2 -50.5 -2.5t-44.5 -0.5t-48.5 0.5t-61.5 0.5l6 21l4 16q3 11 8.5 26.5t12 31t14 29.5t15.5 22q2 2 7.5 6t7.5 4zM1024 1018q10 0 9.5 -7.5t-2.5 -12.5l-9 -32q-8 -26 -19 -54.5t-31 -48.5q-28 -2 -50 -2.5
t-45 -0.5t-48.5 0.5t-61.5 0.5l6 21l4 16q3 11 8.5 26.5t12 31t14.5 29.5t16 22q2 2 7 6t8 4z" />
    <glyph glyph-name="FL00D0h" unicode="&#xd0;" horiz-adv-x="1391" 
d="M124 307l-1 -4q3 -4 16.5 -7t16.5 -3q4 1 12.5 5.5t17.5 10t17 11t11 8.5h172l-94 -328h534q106 0 208.5 21.5t188 66.5t148 115t90.5 166q17 58 19 106.5t-9 89t-33.5 73.5t-55.5 62q-31 29 -68.5 48.5t-81 32t-92.5 20t-102 11.5h-517q-24 -17 -39 -26.5t-19.5 -20.5
t1.5 -29t24 -52l-56 -197h-184q-1 0 -7 -7.5t-11 -12.5q-11 -15 -27 -35.5t-32 -42.5t-29 -43.5t-18 -38.5zM781 735l209 -1q55 0 91.5 -13.5t58 -37t29.5 -55t7 -67.5t-8.5 -74t-18.5 -75q-13 -45 -28.5 -90.5t-38.5 -86t-55 -73.5t-78 -54q-70 -28 -83 -30h-17h-58h-81
h-54t-64 -1l72 252h206q2 0 7.5 5.5l9.5 9.5q19 22 35 40t29.5 35.5t24 36.5t17.5 43q3 11 -5.5 15t-20.5 4h-6l-42 -20l-15 -6t-12 -4h-182z" />
    <glyph glyph-name="FL00DFh" unicode="&#xd1;" horiz-adv-x="1315" 
d="M205 171q-5 -17 -7.5 -46t1 -57t16 -48.5t38.5 -20.5q13 0 49 3.5t75.5 10.5t71 17t35.5 24q28 97 48.5 190.5t48.5 190.5l13 45q9 32 19.5 67.5t19.5 67.5l13 45q-3 18 6.5 28t24 14.5t30.5 5.5t26 2t41.5 3t67.5 3.5t70 2.5t51 1h27q14 0 31.5 -0.5t32.5 -0.5
q16 0 28.5 -0.5t18.5 -0.5l-203 -708l15 -10l287 40q3 0 8 4t7 6l1 4l2 6q4 35 3.5 64.5t9.5 65.5l135 470q12 42 33.5 61.5t44 31.5t42 23.5t26.5 36.5h-930l-179 2q-12 0 -36.5 -8t-50 -20t-46 -26t-23.5 -26q-2 -8 17 -13t42 -12t40.5 -18.5t11.5 -31.5l-129 -450
q-13 -9 -17 -18.5t-7 -20.5zM626 851l-1 -4q3 -4 16.5 -7t16.5 -3q4 1 15 11.5t24 23.5t24 24.5t14 14.5h418q2 1 7 6.5t10 9.5q18 22 32 37t24.5 29t19 29.5t15.5 39.5q3 11 -5.5 15t-20.5 4h-6l-59 -60q-5 -2 -15.5 -6t-11.5 -4h-405q-2 -1 -8 -8.5l-10 -12.5
q-11 -15 -25 -32.5t-27.5 -35.5t-25 -36t-16.5 -35z" />
    <glyph glyph-name="FL00D2h" unicode="&#xd2;" 
d="M937 502q10 0 9.5 -7.5t-2.5 -12.5q-4 -14 -14.5 -29.5t-24.5 -31.5t-29 -31t-27 -28q-29 -2 -70 -4t-86.5 -3.5t-90 -2.5t-80.5 -1l6 21q0 1 10.5 14t25 30.5t30 36t25.5 29.5q2 2 7.5 6t7.5 4zM484 432q-10 -36 -18.5 -76t-10 -79t6 -75t29 -63.5t58 -43.5t94.5 -16
q85 0 145 33.5t102 85t68 113t42 117.5q16 57 21 113.5t-12 101t-60 72.5t-123 28q-113 0 -186 -50.5t-121 -140.5l-7 -24q-5 -17 -10.5 -36t-10.5 -36zM150 398q34 117 106.5 198t172 131.5t219.5 73t249 22.5q107 0 196.5 -22t149 -67t82 -115t-4.5 -166
q-34 -117 -102.5 -203t-165 -141.5t-217 -82.5t-257.5 -27q-117 0 -210 23t-151.5 71.5t-77.5 124t11 180.5zM737 1056l182 -1q2 0 4.5 -4t4.5 -6q12 -11 30.5 -37t36 -53.5t29.5 -48.5l12 -21l-6 -21q-36 0 -62 -0.5t-49 -0.5t-45 0.5t-49 2.5q-3 13 -22 36t-39 48
t-35 48.5t-11 37.5q2 5 5.5 12.5t13.5 7.5z" />
    <glyph glyph-name="FL00D3h" unicode="&#xd3;" 
d="M150 398q-30 -105 -11 -180.5t77.5 -124t151.5 -71.5t210 -23q137 0 257.5 27t217 82.5t165 141.5t102.5 203q27 96 4.5 166t-82 115t-149 67t-196.5 22q-129 0 -249 -22.5t-219.5 -73t-172 -131.5t-106.5 -198zM484 432l7 24q5 17 10.5 36t10.5 36l7 24q48 90 121 140.5
t186 50.5q80 0 123 -28t60 -72.5t12 -101t-21 -113.5q-16 -56 -42 -117.5t-68 -113t-102 -85t-145 -33.5q-58 0 -94.5 16t-58 43.5t-29 63.5t-6 75t10 79t18.5 76zM937 502l-303 -10q-2 0 -7.5 -4t-7.5 -6q-10 -11 -25.5 -29.5t-30 -36t-25 -30.5t-10.5 -14l-6 -21
q36 0 80.5 1t90 2.5t86.5 3.5t70 4q12 13 27 28t29 31t24.5 31.5t14.5 29.5q2 5 2.5 12.5t-9.5 7.5zM1095 1056l-181 -1q-3 0 -7.5 -4t-7.5 -6q-13 -7 -32.5 -21.5t-42 -32.5t-45 -36.5t-40.5 -34t-29.5 -25.5l-11.5 -10l-6 -21q36 0 61 -0.5t48 -0.5t45 0.5t51 2.5
q7 9 24.5 22.5t39 29t45.5 32.5t44.5 33t34.5 30t17 23q2 5 2.5 12.5t-9.5 7.5z" />
    <glyph glyph-name="FL00D4h" unicode="&#xd4;" 
d="M150 398q-30 -105 -11 -180.5t77.5 -124t151.5 -71.5t210 -23q137 0 257.5 27t217 82.5t165 141.5t102.5 203q27 96 4.5 166t-82 115t-149 67t-196.5 22q-129 0 -249 -22.5t-219.5 -73t-172 -131.5t-106.5 -198zM484 432l7 24q5 17 10.5 36t10.5 36l7 24q48 90 121 140.5
t186 50.5q80 0 123 -28t60 -72.5t12 -101t-21 -113.5q-16 -56 -42 -117.5t-68 -113t-102 -85t-145 -33.5q-58 0 -94.5 16t-58 43.5t-29 63.5t-6 75t10 79t18.5 76zM827 1062q-10 0 -13 -6t-5 -11q-21 -13 -54 -38.5t-64.5 -52t-54.5 -46t-23 -20.5l-6 -21q36 0 61 -0.5
t48 -0.5q11 0 17.5 -0.5t12.5 -0.5h13h9h5q4 0 8 1q4 4 16.5 16t28.5 26t32.5 27.5t28.5 21.5q6 -8 15 -21t17.5 -26.5t15 -25t8.5 -15.5q4 -1 12 -1h9h15q6 0 12.5 0.5t17.5 0.5q23 0 48.5 0.5t61.5 0.5l6 21q0 1 -11.5 21t-28 46t-35 52t-31.5 38q-2 10 -8 11q-2 2 -4 2z
M937 502l-303 -10q-2 0 -7.5 -4t-7.5 -6q-10 -11 -25.5 -29.5t-30 -36t-25 -30.5t-10.5 -14l-6 -21q36 0 80.5 1t90 2.5t86.5 3.5t70 4q12 13 27 28t29 31t24.5 31.5t14.5 29.5q2 5 2.5 12.5t-9.5 7.5z" />
    <glyph glyph-name="FL00D5h" unicode="&#xd5;" 
d="M150 398q-30 -105 -11 -180.5t77.5 -124t151.5 -71.5t210 -23q137 0 257.5 27t217 82.5t165 141.5t102.5 203q27 96 4.5 166t-82 115t-149 67t-196.5 22q-129 0 -249 -22.5t-219.5 -73t-172 -131.5t-106.5 -198zM484 432l7 24l20 72l7 24q48 91 121.5 141t186.5 50
q80 0 123 -28t60 -72.5t12 -101t-21 -113.5q-16 -56 -42 -117.5t-68 -113t-102 -85t-145 -33.5q-58 0 -94.5 16t-58 43.5t-29 63.5t-6 75t10 79t18.5 76zM937 502l-303 -10q-2 0 -7.5 -4t-7.5 -6q-10 -11 -25.5 -29.5t-30 -36t-25 -30.5t-10.5 -14l-6 -21q36 0 80.5 1
t90 2.5t86.5 3.5t70 4q12 13 27 28t29 31t24.5 31.5t14.5 29.5q2 5 2.5 12.5t-9.5 7.5zM546 839l-2 -4q4 -4 17.5 -7t16.5 -3q3 1 14.5 11.5t24 23.5t24 24.5l14.5 14.5h418l16 16q18 22 32.5 37t25.5 29t19 29.5t15 39.5q3 11 -5.5 15t-20.5 4h-6l-60 -60l-15 -6t-12 -4
h-405q-1 -1 -7.5 -8.5t-10.5 -12.5q-10 -15 -24 -32.5t-28 -35.5t-25.5 -36t-15.5 -35z" />
    <glyph glyph-name="FL00D6h" unicode="&#xd6;" 
d="M937 502q10 0 9.5 -7.5t-2.5 -12.5q-4 -14 -14.5 -29.5t-24.5 -31.5t-29 -31t-27 -28q-29 -2 -70 -4t-86.5 -3.5t-90 -2.5t-80.5 -1l6 21q0 1 10.5 14t25 30.5t30 36t25.5 29.5q2 2 7.5 6t7.5 4zM484 432q-10 -36 -18.5 -76t-10 -79t6 -75t29 -63.5t58 -43.5t94.5 -16
q85 0 145 33.5t102 85t68 113t42 117.5q16 57 21 113.5t-12 101t-60 72.5t-123 28q-113 0 -186 -50.5t-121 -140.5l-7 -24q-5 -17 -10.5 -36t-10.5 -36zM150 398q34 117 106.5 198t172 131.5t219.5 73t249 22.5q107 0 196.5 -22t149 -67t82 -115t-4.5 -166
q-34 -117 -102.5 -203t-165 -141.5t-217 -82.5t-257.5 -27q-117 0 -210 23t-151.5 71.5t-77.5 124t11 180.5zM875 1022q10 0 9.5 -7.5t-2.5 -12.5l-9 -32q-8 -26 -19 -54.5t-30 -48.5q-29 -2 -51 -2.5t-45 -0.5t-48.5 0.5t-61.5 0.5l6 21l5 16q3 11 8 26.5t11.5 31
t14.5 29.5t16 22q2 2 7 6t8 4zM1165 1023q11 0 11 -8q0 -7 -2 -12l-10 -32q-8 -26 -19 -54.5t-31 -48.5q-29 -2 -51 -2.5t-45 -0.5t-48.5 0.5t-61.5 0.5l6 21l5 16q3 11 8 26.5t12 31t14.5 29.5t15.5 22q2 2 7.5 6t7.5 4z" />
    <glyph glyph-name="FL00D7h" unicode="&#xd7;" horiz-adv-x="652" 
d="M78 147l286 216l-8 16q-5 9 -18 31.5t-28 47.5t-28 47t-18 31q-5 10 -16.5 16t-19.5 11l5 17q7 0 27.5 1.5t43 3.5t42.5 3.5t27 1.5h4q3 0 8 0.5t8 0.5h6q4 0 10.5 -0.5l6.5 -0.5l73 -136l220 158l1.5 0.5t3.5 0.5l1 -1q4 -2 7.5 -5.5t2.5 -5.5l-26 -92l-174 -126
l93 -177l43 -49l-1 -2v-3q-4 -2 -6 -5.5t-6 -5.5h-2q-35 0 -72.5 7t-65.5 20q-12 6 -19 14.5t-15 18.5l-63 86q-2 2 -5 6.5t-4 4.5l-3 1q-1 0 -2.5 -0.5l-1.5 -0.5l-186 -130q-28 -19 -66.5 -28.5t-70.5 -14.5z" />
    <glyph glyph-name="FL00D8h" unicode="&#xd8;" 
d="M1117 909l-98 -94q-29 4 -59.5 6t-62.5 2q-129 0 -249 -22.5t-219.5 -73t-172 -131.5t-106.5 -198q-34 -118 -7 -198t104 -128l-67 -65q-4 -2 -3 -7t3 -7q6 -10 19.5 -22t28 -22.5t26 -17.5t12.5 -7l21 -9q8 10 35 37t66 65q84 -18 190 -18q137 0 257.5 27t217 82.5
t165 141.5t102.5 203q18 62 14.5 112.5t-24.5 90.5t-58 70t-86 51q29 29 48.5 49t25.5 27q-7 12 -18 20t-24 14.5t-27 11.5t-27 11q-5 2 -12.5 4.5t-14.5 -5.5zM1014 627q11 -45 6 -96t-20 -103q-16 -56 -42 -117.5t-68 -113t-102 -85t-145 -33.5q-51 0 -85.5 12.5
t-57.5 35.5q57 56 122.5 120t133 129.5t133.5 129.5t125 121zM484 432l7 24q5 17 10.5 36t10.5 36l7 24q48 90 121 140.5t186 50.5q29 0 53.5 -4.5t46.5 -12.5l-471 -453q2 40 10 81t19 78z" />
    <glyph glyph-name="FL00D9h" unicode="&#xd9;" horiz-adv-x="1315" 
d="M1343 643q-3 -11 -6.5 -20.5t-17.5 -18.5l-129 -450q-6 -20 12 -31.5t41 -18.5t42 -12t17 -13q-4 -12 -24 -26t-45.5 -26t-50 -20t-36.5 -8l-180 2h-930q7 25 26.5 36.5t42 23.5t44 31.5t33.5 61.5l135 470q10 36 10.5 65.5t2.5 64.5l2 6l1 4q2 2 7 6t8 4l287 40l16 -10
l-203 -708q5 0 17.5 -0.5t28.5 -0.5q15 0 32.5 -0.5t32.5 -0.5h26q16 0 50.5 1t71 2.5t68 3.5t41.5 3t26 2t30.5 5.5t23.5 14.5t6 28l13 45q9 32 19.5 67.5t20.5 67.5l13 45q28 97 48 190.5t48 190.5q2 9 18 16.5t39 13.5t50 11t52 8t44.5 4.5t28.5 1.5q25 0 37.5 -20.5
t16.5 -48.5t1 -57t-8 -46zM729 1015l181 -1q3 0 5 -4t4 -6q12 -11 31 -37.5t36.5 -53.5t29.5 -47.5t12 -21.5l-6 -21q-36 0 -61.5 -0.5t-48.5 -0.5t-45 0.5t-49 2.5q-3 13 -22 36t-39 48t-35.5 48.5t-11.5 37.5q2 5 5.5 12.5t13.5 7.5z" />
    <glyph glyph-name="FL00DAh" unicode="&#xda;" horiz-adv-x="1315" 
d="M1343 643q5 17 8 46t-1 57t-16.5 48.5t-37.5 20.5q-9 0 -28.5 -1.5t-44.5 -4.5t-52 -8t-50 -11t-39 -13.5t-18 -16.5q-28 -97 -48 -190.5t-48 -190.5l-13 -45q-10 -32 -20.5 -67.5t-19.5 -67.5l-13 -45q3 -18 -6 -28t-23.5 -14.5t-30.5 -5.5t-26 -2t-41.5 -3t-68 -3.5
t-71 -2.5t-50.5 -1h-26q-15 0 -32.5 0.5t-32.5 0.5q-16 0 -28.5 0.5t-17.5 0.5l203 708l-16 10l-287 -40q-3 0 -8 -4t-7 -6l-1 -4l-2 -6q-2 -35 -2.5 -64.5t-10.5 -65.5l-135 -470q-12 -42 -33.5 -61.5t-44 -31.5t-42 -23.5t-26.5 -36.5h930l180 -2q12 0 36.5 8t50 20
t45.5 26t24 26q2 8 -17 13t-42 12t-41 18.5t-12 31.5l129 450q14 9 17.5 18.5t6.5 20.5zM1141 1032l-181 -1q-3 0 -7.5 -4t-7.5 -6q-13 -8 -33 -23t-42 -32.5t-44.5 -35.5t-40.5 -33t-29.5 -25t-11.5 -11l-6 -21q36 0 61.5 -0.5t48.5 -0.5t45 0.5t50 2.5q7 9 24.5 22.5
t39.5 29t45.5 32.5t44 33t34.5 30t17 23q2 5 2.5 12.5t-9.5 7.5z" />
    <glyph glyph-name="FL00DBh" unicode="&#xdb;" horiz-adv-x="1315" 
d="M1343 643q5 17 8 46t-1 57t-16.5 48.5t-37.5 20.5q-9 0 -28.5 -1.5t-44.5 -4.5t-52 -8t-50 -11t-39 -13.5t-18 -16.5q-28 -97 -48 -190.5t-48 -190.5l-13 -45q-10 -32 -20.5 -67.5t-19.5 -67.5l-13 -45q3 -18 -6 -28t-23.5 -14.5t-30.5 -5.5t-26 -2t-41.5 -3t-68 -3.5
t-71 -2.5t-50.5 -1h-26q-15 0 -32.5 0.5t-32.5 0.5q-16 0 -28.5 0.5t-17.5 0.5l203 708l-16 10l-287 -40q-3 0 -8 -4t-7 -6l-1 -4l-2 -6q-2 -35 -2.5 -64.5t-10.5 -65.5l-135 -470q-12 -42 -33.5 -61.5t-44 -31.5t-42 -23.5t-26.5 -36.5h930l180 -2q12 0 36.5 8t50 20
t45.5 26t24 26q2 8 -17 13t-42 12t-41 18.5t-12 31.5l129 450q14 9 17.5 18.5t6.5 20.5zM858 1051q-10 0 -13 -6t-5 -11q-20 -13 -53.5 -38.5t-65 -52t-55 -46t-23.5 -20.5l-6 -21q36 0 62 -0.5t49 -0.5q11 0 17 -0.5t13 -0.5h13h8h6q4 0 8 1q4 4 16.5 16t28.5 26t32.5 27.5
t28.5 21.5q6 -8 15 -21t17 -26.5t14.5 -25t8.5 -15.5q5 -1 12 -1h10h14q7 0 13 0.5t17 0.5q23 0 49 0.5t62 0.5l6 21q0 1 -11.5 21t-28.5 46t-35.5 52t-32.5 38q2 9 -6 11l-4 2z" />
    <glyph glyph-name="FL00DCh" unicode="&#xdc;" horiz-adv-x="1315" 
d="M1343 643q-3 -11 -6.5 -20.5t-17.5 -18.5l-129 -450q-6 -20 12 -31.5t41 -18.5t42 -12t17 -13q-4 -12 -24 -26t-45.5 -26t-50 -20t-36.5 -8l-180 2h-930q7 25 26.5 36.5t42 23.5t44 31.5t33.5 61.5l135 470q10 36 10.5 65.5t2.5 64.5l2 6l1 4q2 2 7 6t8 4l287 40l16 -10
l-203 -708q5 0 17.5 -0.5t28.5 -0.5q15 0 32.5 -0.5t32.5 -0.5h26q16 0 50.5 1t71 2.5t68 3.5t41.5 3t26 2t30.5 5.5t23.5 14.5t6 28l13 45q9 32 19.5 67.5t20.5 67.5l13 45q28 97 48 190.5t48 190.5q2 9 18 16.5t39 13.5t50 11t52 8t44.5 4.5t28.5 1.5q25 0 37.5 -20.5
t16.5 -48.5t1 -57t-8 -46zM901 1016q10 0 10 -8q0 -7 -2 -12l-10 -32q-8 -26 -19 -54.5t-31 -48.5q-29 -2 -50.5 -2.5t-44.5 -0.5t-49 0.5t-62 0.5l6 21l5 16q3 11 8 26.5t12 31t14.5 29.5t15.5 22q2 2 7.5 6t7.5 4zM1192 1017q10 0 9.5 -7.5t-2.5 -12.5l-9 -32
q-8 -26 -19 -54.5t-31 -48.5q-29 -2 -51 -2.5t-45 -0.5t-48 0.5t-61 0.5l6 21l4 16q3 11 8.5 26.5t12 31t14 29.5t15.5 22q2 2 7 6t8 4z" />
    <glyph glyph-name="FL00DDh" unicode="&#xdd;" horiz-adv-x="1177" 
d="M241 670q89 6 146.5 -10t92 -50t50 -84t19.5 -112q0 -4 -2 -20t-5 -34l-5.5 -33t-2.5 -17l-91 -317q-2 -6 3.5 -8t12.5 -3t13.5 -0.5t8.5 0.5q30 0 64 3t67.5 7.5t65.5 10t59 10.5l7 25q5 17 10.5 39t12.5 46l14 47q13 45 24.5 84.5t16.5 55.5q11 33 30.5 72t46.5 78
t61 75t74 64t84.5 45t92.5 17q26 0 47 -6t46 -6q8 0 16.5 3.5t11.5 12.5l1 5q0 7 -1 23.5t-1.5 34t-1 32.5t-0.5 20q-1 16 -14 24.5t-31 12t-38.5 4t-37.5 0.5q-50 0 -94.5 -15t-84 -40t-73.5 -57.5t-63 -68.5q-14 -16 -32 -44t-35.5 -55t-30 -47t-13.5 -20h-24l2 50
q5 60 3.5 114t-23.5 94.5t-71 64.5t-139 24q-19 0 -46.5 -5t-59 -14t-63.5 -21.5t-58.5 -27.5t-46 -32.5t-24.5 -35.5v-5q0 -2 3.5 -5.5t5.5 -4.5zM1133 1035l-182 -1q-2 0 -6.5 -4t-7.5 -6q-13 -8 -32.5 -22.5t-42 -32t-45 -36t-40.5 -34t-29.5 -25.5l-11.5 -10l-6 -21
q36 0 61.5 -0.5t48.5 -0.5t45 0.5t51 2.5q7 9 24.5 22.5t39 29t45.5 32.5t44.5 33t34.5 30t17 23q2 5 2.5 12.5t-10.5 7.5z" />
    <glyph glyph-name="FL00DEh" unicode="&#xde;" horiz-adv-x="907" 
d="M482 967l-163 -15q-42 -120 -75.5 -230.5t-61 -210t-50.5 -187t-45 -162.5q-7 -23 -15 -57.5t-16.5 -73t-16.5 -78t-14.5 -72t-10.5 -55t-4 -26.5v-40l3.5 -0.5t6.5 -0.5q19 0 40.5 3.5t42.5 10.5t38.5 18.5t29.5 28.5q9 9 23 29t30 45.5t32.5 54t30.5 54t24 46.5t13 31
l152 533q45 0 91.5 -4.5t81.5 -19.5t52.5 -43.5t3.5 -76.5q-13 -45 -39.5 -76t-64 -52.5t-83.5 -36.5t-97 -28q0 -1 -1.5 -4.5t-2.5 -5.5q-4 -14 3.5 -23t22.5 -17h12q8 0 18 -0.5t18 -0.5h12q75 0 156 14t152 45t125 80.5t74 121.5l4 11q2 9 4.5 19l4.5 18l4 12
q-3 39 -30.5 64.5t-67.5 41t-86.5 23t-87.5 11.5h-44q-32 0 -67.5 0.5t-67.5 0.5h-92l83 281h-17q-11 0 -25 -0.5t-26 -0.5h-17z" />
    <glyph glyph-name="FL0899h" unicode="&#xdf;" horiz-adv-x="868" 
d="M625 157q6 22 8 43t-1 43q-3 1 -1 3v2q-3 10 -3 13t-4 10q1 3 5 5.5t8 4.5q22 13 34 30q6 2 17.5 5.5t24.5 6.5t24 5t16 1q4 2 15 5.5t23 7t22.5 7t14.5 5.5q11 4 17.5 9t17.5 10q8 3 18 4t20 7q6 3 8.5 6t4 6.5t3 6.5t5.5 6q2 2 5 8.5t3 7.5v1q1 2 0 4.5t0 4.5
q-1 1 -1 2v1v1l2 6v1q-3 7 -14.5 12.5t-21.5 5.5q13 -2 16.5 5t8.5 15q8 9 12 20q2 9 -9 12v2q0 2 9.5 10.5t13.5 12.5q3 3 7 6.5t10 3.5q3 0 6 -2t2 -4q-3 0 -7 -2.5t-5 -4.5l2 -5h2q3 0 13 3.5t12 8.5q1 2 0.5 6t-0.5 6q-5 16 -11.5 18.5t-25.5 2.5q4 14 0.5 17.5
l-11.5 11.5q-4 1 -4 4q0 2 -5 2h-4q-1 -2 2 -3.5l3 -1.5v-1q-7 0 -13.5 3t-14.5 3l-1 -3q16 0 14 -8q-2 -6 -7 -10t-11 -8h-2q-2 0 -2 4l-14 12q0 2 -1 11t-8 9h-3q7 -10 4 -15l-9 9h-5q-1 -2 1.5 -3l2.5 -1q-1 -2 -6.5 -2.5t-9.5 -2.5l1 1q0 2 -1 2l-16 16t-25 11
q-23 3 -39 15t-31 25.5t-32.5 24t-44.5 10.5q-10 0 -24 -2.5t-22 -7.5q-5 -2 -8 -5q-4 -3 -7 -3.5t-5 -2.5q-17 -8 -27.5 -21t-16.5 -25q-2 -6 -4 -10t-3 -7q-2 -3 -3.5 -6l-3.5 -7q-3 -5 -8 -5q-2 2 -3 4.5t-4 4.5h-2l-1 -2q0 -1 -3 -1q2 3 0 5h-1h-1q0 -1 -1.5 -1.5
t-1.5 -1.5l-4 -13q-2 -6 2.5 -7.5t2.5 -5.5l-2 -2.5t-3 -2.5q-16 -16 -20 -32q-2 -5 0 -7t0 -7q-17 0 -22 3.5t-15 11.5q-2 1 -10 6t-12 9q-4 1 -11 1q-2 0 -6 2q-4 3 -4.5 7.5t-2.5 6.5q-9 22 -23 40t-18 41q2 2 0 2v1q2 8 12 15.5t12 15.5q2 5 0.5 7t-4.5 8q0 5 -5 5
q-6 0 -10 4q-10 7 -11.5 13t-6.5 17l-3 3l-11 8q-6 3 -12 12t-12 18.5t-12.5 17t-13.5 7.5q-8 0 -9 -6q-2 -5 -1 -11.5t3 -9.5q0 -2 3 -7t6.5 -10t6.5 -9.5t4 -5.5q0 -1 1.5 -4t0.5 -5q1 0 1 -1q-1 -1 -6.5 -1.5t-8.5 -2.5q-2 -9 -7 -10q-1 0 -5.5 -1.5t-8.5 -2.5
q-5 -1 -9.5 -6.5t-9 -13t-7.5 -14.5t-4 -10t2 -14t7 -12q2 0 6 -1t7 -1q3 -1 7.5 -5t6.5 -6q9 -3 11 -5t5 -11q-1 -26 0 -49.5t12 -47.5l2.5 -1.5t1.5 -3.5q5 -9 9.5 -18.5t13.5 -16.5q26 -16 51.5 -28.5t56.5 -23.5q2 -2 2 -7v-11v-10t2 -8l15 -49q0 -4 -0.5 -12.5
t-0.5 -17.5v-18q0 -8 1 -11q-1 -4 -0.5 -5.5t0.5 0.5l-1 -3q-2 -6 -8 -9.5t-14 -6t-16 -5.5t-13 -8l-25 -30q-5 -10 -9.5 -18t-7.5 -18q-4 -13 -3.5 -37t6 -47.5t17.5 -41t32 -17.5q6 0 10 1.5t9 3.5v-1q-2 -5 -7.5 -9t-12.5 -6q-20 -20 -37.5 -39.5t-24.5 -44.5
q-3 -11 6.5 -18t23.5 -7q8 0 9 0.5l9 4.5q40 20 77 42t67.5 48.5t52.5 57.5t33 68zM434 65q1 0 0 -1q-1 -2 -1.5 -2.5l-0.5 -0.5q-2 0 -2 3q1 1 4 1zM435 67v-1v-1q-1 0 -1 1t1 1zM438 71q1 0 1 -2q-1 -1 -2 -1q-2 0 -1 1q0 2 2 2zM829 409q-1 -3 -14.5 -6.5t-30 -6.5
t-31.5 -5t-18 -2h-3l-11 26l1 4q5 -7 11 -8.5t14 -1.5l1 4l-2 2t-2 4q5 -1 6.5 -2.5t4.5 -3.5h3h6h2h20q9 -1 21.5 2t14.5 9h8q-2 -4 -0.5 -7.5t-0.5 -7.5zM744 423q1 0 1 -2l-2 -2q-2 0 0 2q0 2 1 2zM925 514q1 0 1.5 -0.5l0.5 -0.5q0 -1 -2 -1q-3 0 -3 1l0.5 0.5t2.5 0.5z
" />
    <glyph glyph-name="FL00E0h" unicode="&#xe0;" horiz-adv-x="1249" 
d="M45 30q166 142 310.5 292t281.5 308q13 16 24.5 34.5t22.5 37.5t24 36.5t29 31.5l36 15t51.5 20.5t54 18t43.5 7.5q8 0 13.5 -1.5t7.5 -9.5q3 -15 9.5 -46.5t15 -71t18 -83t18.5 -83t16.5 -70.5t11.5 -46q2 -8 8 -27t14 -44t16.5 -53.5t17 -54.5t15.5 -48t11 -33
q7 -25 25.5 -54t41.5 -46q0 -2 6.5 -4.5t14 -5.5t14 -6t7.5 -4v-4q0 -3 -1 -5q-2 -6 -5 -12t-14 -9q-63 -11 -132.5 -11.5t-127.5 -0.5q-11 0 -27.5 0.5t-33.5 0.5t-29 0.5t-13 0.5l-18 20l-129 526l-465 -546q-4 -5 -13 -7.5t-19 -3.5t-18.5 -0.5t-11.5 0.5q-36 0 -70 7.5
t-51 33.5zM735 1056l181 -1q3 0 5 -4t4 -6q12 -11 31 -37t36 -53.5t29.5 -48.5l12.5 -21l-6 -21q-36 0 -62 -0.5t-49 -0.5t-45 0.5t-49 2.5q-3 13 -22 36t-39 48t-35 48.5t-11 37.5q2 5 5.5 12.5t13.5 7.5z" />
    <glyph glyph-name="FL00E1h" unicode="&#xe1;" horiz-adv-x="1249" 
d="M45 30q17 -26 51 -33.5t70 -7.5q3 0 11.5 -0.5t18.5 0.5t19 3.5t13 7.5l465 546l129 -526l18 -20q1 0 13 -0.5t29 -0.5t33.5 -0.5t27.5 -0.5q58 0 127.5 0.5t132.5 11.5q11 3 14 9t5 12q1 2 1 5v4q-1 1 -7.5 4t-14 6t-14 5.5t-6.5 4.5q-23 17 -41.5 46t-25.5 54
q-4 11 -11 33t-15.5 48t-17 54.5t-16.5 53.5t-14 44t-8 27q-4 15 -11.5 46t-16.5 70.5t-18.5 83t-18 83t-15 71t-9.5 46.5q-2 8 -7.5 9.5t-13.5 1.5q-17 0 -43.5 -7.5t-54 -18t-51.5 -20.5l-36 -15q-16 -14 -29 -31.5t-24 -36.5t-22.5 -37.5t-24.5 -34.5
q-137 -158 -281.5 -308t-310.5 -292zM1093 1056l-182 -1q-2 0 -6.5 -4t-8.5 -6q-13 -7 -32.5 -21.5t-42 -32.5t-45 -36.5t-40 -34t-29 -25.5l-11.5 -10l-6 -21q36 0 61 -0.5t48 -0.5t45 0.5t51 2.5q7 9 24.5 22.5t39 29t45.5 32.5t44.5 33t34.5 30t17 23q2 5 2.5 12.5
t-9.5 7.5z" />
    <glyph glyph-name="FL00E2h" unicode="&#xe2;" horiz-adv-x="1249" 
d="M45 30q17 -26 51 -33.5t70 -7.5q3 0 11.5 -0.5t18.5 0.5t19 3.5t13 7.5l465 546l129 -526l18 -20q1 0 13 -0.5t29 -0.5t33.5 -0.5t27.5 -0.5q58 0 127.5 0.5t132.5 11.5q11 3 14 9t5 12q1 2 1 5v4q-1 1 -7.5 4t-14 6t-14 5.5t-6.5 4.5q-23 17 -41.5 46t-25.5 54
q-4 11 -11 33t-15.5 48t-17 54.5t-16.5 53.5t-14 44t-8 27q-4 15 -11.5 46t-16.5 70.5t-18.5 83t-18 83t-15 71t-9.5 46.5q-2 8 -7.5 9.5t-13.5 1.5q-17 0 -43.5 -7.5t-54 -18t-51.5 -20.5l-36 -15q-16 -14 -29 -31.5t-24 -36.5t-22.5 -37.5t-24.5 -34.5
q-137 -158 -281.5 -308t-310.5 -292zM825 1062q-11 0 -14 -6t-5 -11q-20 -13 -53.5 -38.5t-65 -52t-54.5 -46t-23 -20.5l-6 -21q36 0 61.5 -0.5t48.5 -0.5q11 0 17 -0.5t13 -0.5h13h8h6q4 0 7 1q4 4 17 16t29 26t32.5 27.5t28.5 21.5q6 -8 14.5 -21t17 -26.5t15 -25
t8.5 -15.5q5 -1 12 -1h10h14q7 0 13 0.5t17 0.5q23 0 49 0.5t62 0.5l6 21q0 1 -11.5 21t-28 46t-35.5 52t-32 38q0 9 -8 11q-2 2 -3 2z" />
    <glyph glyph-name="FL00E3h" unicode="&#xe3;" horiz-adv-x="1249" 
d="M45 30q17 -26 51 -33.5t70 -7.5q3 0 11.5 -0.5t18.5 0.5t19 3.5t13 7.5l465 546l129 -526l18 -20q1 0 13 -0.5t29 -0.5t33.5 -0.5t27.5 -0.5q58 0 127.5 0.5t132.5 11.5q11 3 14 9t5 12q1 2 1 5v4q-1 1 -7.5 4t-14 6t-14 5.5t-6.5 4.5q-23 17 -41.5 46t-25.5 54
q-4 11 -11 33t-15.5 48t-17 54.5t-16.5 53.5t-14 44t-8 27q-4 15 -11.5 46t-16.5 70.5t-18.5 83t-18 83t-15 71t-9.5 46.5q-2 8 -7.5 9.5t-13.5 1.5q-17 0 -43.5 -7.5t-54 -18t-51.5 -20.5l-36 -15q-16 -14 -29 -31.5t-24 -36.5t-22.5 -37.5t-24.5 -34.5
q-137 -158 -281.5 -308t-310.5 -292zM562 833l-1 -4q3 -4 16.5 -7t16.5 -3q4 1 15 11.5t24 23.5t24 24.5t14 14.5h418l6.5 6.5t10.5 9.5q18 22 32 37t25 29t19 29.5t15 39.5q4 11 -5 15t-21 4h-6l-59 -60l-15 -6t-12 -4h-405q-2 -1 -8 -8.5l-10 -12.5q-11 -15 -25 -32.5
t-27.5 -35.5t-25 -36t-16.5 -35z" />
    <glyph glyph-name="FL00E4h" unicode="&#xe4;" horiz-adv-x="1249" 
d="M45 30q166 142 310.5 292t281.5 308q13 16 24.5 34.5t22.5 37.5t24 36.5t29 31.5l36 15t51.5 20.5t54 18t43.5 7.5q8 0 13.5 -1.5t7.5 -9.5q3 -15 9.5 -46.5t15 -71t18 -83t18.5 -83t16.5 -70.5t11.5 -46q2 -8 8 -27t14 -44t16.5 -53.5t17 -54.5t15.5 -48t11 -33
q7 -25 25.5 -54t41.5 -46q0 -2 6.5 -4.5t14 -5.5t14 -6t7.5 -4v-4q0 -3 -1 -5q-2 -6 -5 -12t-14 -9q-63 -11 -132.5 -11.5t-127.5 -0.5q-11 0 -27.5 0.5t-33.5 0.5t-29 0.5t-13 0.5l-18 20l-129 526l-465 -546q-4 -5 -13 -7.5t-19 -3.5t-18.5 -0.5t-11.5 0.5q-36 0 -70 7.5
t-51 33.5zM881 1019q10 0 9.5 -7.5t-2.5 -12.5l-9 -32q-8 -26 -19 -54.5t-30 -48.5q-29 -2 -51 -2.5t-45 -0.5t-48.5 0.5t-61.5 0.5l6 21l5 16q3 11 8 26.5t11.5 31t14.5 29.5t16 22q2 2 7 6t8 4zM1172 1020q10 0 10 -8q0 -7 -2 -12l-9 -32q-8 -26 -19.5 -54.5t-31.5 -48.5
q-29 -2 -50.5 -2.5t-44.5 -0.5t-49 0.5t-62 0.5l6 21l5 16q3 11 8 26.5t12 31t14.5 29.5t15.5 22q2 2 7.5 6t7.5 4z" />
    <glyph glyph-name="FL00E5h" unicode="&#xe5;" horiz-adv-x="1249" 
d="M45 30q166 142 310.5 292t281.5 308q13 16 24.5 34.5t22.5 37.5t24 36.5t29 31.5l36 15t51.5 20.5t54 18t43.5 7.5q8 0 13.5 -1.5t7.5 -9.5q3 -15 9.5 -46.5t15 -71t18 -83t18.5 -83t16.5 -70.5t11.5 -46q2 -8 8 -27t14 -44t16.5 -53.5t17 -54.5t15.5 -48t11 -33
q7 -25 25.5 -54t41.5 -46q0 -2 6.5 -4.5t14 -5.5t14 -6t7.5 -4v-4q0 -3 -1 -5q-2 -6 -5 -12t-14 -9q-63 -11 -132.5 -11.5t-127.5 -0.5q-11 0 -27.5 0.5t-33.5 0.5t-29 0.5t-13 0.5l-18 20l-129 526l-465 -546q-4 -5 -13 -7.5t-19 -3.5t-18.5 -0.5t-11.5 0.5q-36 0 -70 7.5
t-51 33.5zM1010 1028q10 0 9.5 -7.5t-2.5 -12.5l-9 -32q-8 -26 -19 -54.5t-31 -48.5q-29 -2 -51 -2.5t-45 -0.5t-48 0.5t-61 0.5l6 21l4 16q3 11 8.5 26.5t12 31t14.5 29.5t16 22q1 2 6 6t8 4z" />
    <glyph glyph-name="FL00E6h" unicode="&#xe6;" horiz-adv-x="1780" 
d="M1703 200h-603l-11 33t-11 38q8 -2 9 -1q4 1 12.5 5.5t17.5 10t17 11t11 8.5h492q2 0 7.5 5.5l9.5 9.5q38 45 70.5 94t46.5 97q3 11 -6 15t-21 4h-6l-42 -20l-15 -6t-12 -4h-480q-1 0 -6.5 -7.5t-10.5 -12.5q-9 -13 -23 -34l-30 -45t-30 -48.5t-23 -43.5q-12 38 -21.5 69
t-12.5 42q-4 15 -11.5 46t-16.5 70.5t-18.5 83t-18 83t-15 71t-9.5 46.5q-2 8 -7.5 9.5t-13.5 1.5q-17 0 -43.5 -7.5t-54 -18t-51.5 -20.5l-36 -15q-16 -14 -29 -31.5t-24 -36.5t-22.5 -37.5t-24.5 -34.5q-137 -158 -281.5 -308t-310.5 -292q17 -26 51 -33.5t70 -7.5
q3 0 11.5 -0.5t18.5 0.5t19 3.5t13 7.5l465 546l129 -526l18 -20q1 0 13 -0.5t29 -0.5t33.5 -0.5t27.5 -0.5h81q22 0 43.5 0.5t42.5 1.5h536q7 0 21 13t30.5 33.5t34 44t32 45t24 36.5t10.5 18q3 8 0.5 14t-12.5 6h-8q-3 0 -13.5 -1.5t-23 -3t-23.5 -3t-15 -2.5zM1075 605
q-3 -13 7 -14t21 -1h28q25 0 79 0.5t122 2t143 2.5t143 2.5t121.5 2t78.5 0.5q21 19 41.5 43.5t38.5 51.5t31.5 54t20.5 51h-51q-26 -1 -79.5 -1.5t-121 -1.5t-142.5 -2t-142.5 -2t-121.5 -2t-79 -1q-8 -3 -17.5 -13t-17.5 -20.5t-13.5 -18.5l-5.5 -8q-5 -8 -17 -25
t-25 -36.5t-24.5 -36t-15.5 -22.5z" />
    <glyph glyph-name="FL00E7h" unicode="&#xe7;" horiz-adv-x="1068" 
d="M925 752l140 -88l110 8q69 66 77 95q5 17 -2 31t-21 31h-409q-56 -4 -108.5 -11.5t-103 -20t-99.5 -32t-98 -48.5q-97 -57 -166 -143.5t-103 -204.5q-25 -87 1.5 -153t86.5 -111.5t144.5 -71.5t176.5 -33q-25 -18 -62 -35.5t-71 -32t-58.5 -24l-24.5 -9.5l49 -63
q36 0 61.5 -0.5t48.5 -0.5t45 0.5t51 2.5q7 9 23.5 27.5t37 41t42.5 47t39 46.5h259l35 117q-185 -6 -311.5 -14t-190.5 4l-17 4q2 -1 4.5 -1.5l7.5 -1.5l-16 6q-33 21 -46 53t-13 71q0 40 10.5 84.5t23.5 89.5q16 55 40.5 115t64.5 110t98 82t141 32z" />
    <glyph glyph-name="FL00E8h" unicode="&#xe8;" horiz-adv-x="949" 
d="M873 200q3 1 14 2.5t23.5 3t23.5 3t14 1.5h7q10 0 12.5 -6t-0.5 -14q-1 -3 -10.5 -18t-23.5 -36.5t-31.5 -45t-34 -44t-30.5 -33.5t-21 -13h-780l9 30q0 1 11.5 18.5t28 41.5t34 49t29.5 41q5 5 10.5 12.5t6.5 7.5h708zM225 284q5 17 20 44t33 56t35.5 55t28.5 41
q5 5 10.5 12.5t6.5 7.5h480q1 0 11.5 4t15.5 6l42 20h6q12 0 20.5 -4t5.5 -15q-14 -48 -46.5 -97t-69.5 -94q-5 -4 -10.5 -9.5t-6.5 -5.5h-492q-3 -3 -11 -8.5t-17 -11t-17.5 -10t-12.5 -5.5q-3 0 -16 3t-17 7zM245 605l2 5q4 6 15.5 22.5t24.5 36t25 36.5t17 25l5.5 8
t13.5 18.5t17.5 20.5t17.5 13q25 0 78.5 0.5t121.5 1t142.5 2t142.5 2.5t121.5 2t79.5 2h50q-7 -24 -20.5 -51t-31 -54t-38 -51.5t-41.5 -43.5q-25 0 -79 -0.5t-121.5 -2t-143 -2.5t-143 -2.5t-121.5 -2t-79 -0.5h-29q-10 0 -20 1t-7 14zM599 1050l181 -1q2 0 4.5 -4t4.5 -6
q12 -11 31 -37.5t36.5 -53.5t29.5 -47.5t12 -21.5l-6 -21q-36 0 -62 -0.5t-49 -0.5t-44.5 0.5t-49.5 2.5q-3 13 -22 36t-39 48t-35.5 48.5t-11.5 37.5q2 5 5.5 12.5t14.5 7.5z" />
    <glyph glyph-name="FL00E9h" unicode="&#xe9;" horiz-adv-x="949" 
d="M245 605q-3 -13 7 -14t20 -1h29q25 0 79 0.5t121.5 2t143 2.5t143 2.5t121.5 2t79 0.5q21 19 41.5 43.5t38 51.5t31 54t20.5 51h-50q-26 -1 -79.5 -1.5t-121.5 -1.5t-142.5 -2t-142 -2t-121.5 -2t-79 -1q-8 -3 -17.5 -13t-17.5 -20.5t-13.5 -18.5l-5.5 -8q-5 -8 -17 -25
t-25 -36.5t-24.5 -36t-15.5 -22.5zM224 280q4 -4 17 -7t16 -3q4 1 12.5 5.5t17.5 10t17 11t11 8.5h492q1 0 6.5 5.5t10.5 9.5q37 45 69.5 94t46.5 97q3 11 -5.5 15t-20.5 4h-6l-42 -20q-5 -2 -15.5 -6t-11.5 -4h-480q-1 0 -6.5 -7.5t-10.5 -12.5q-11 -15 -28.5 -41
t-35.5 -55t-33 -56t-20 -44zM165 200q-1 0 -6.5 -7.5t-10.5 -12.5q-12 -16 -29.5 -41t-34 -49t-28 -41.5t-11.5 -18.5l-9 -30h780q7 0 21 13t30.5 33.5t34 44t31.5 45t23.5 36.5t10.5 18q3 8 0.5 14t-12.5 6h-7q-3 0 -14 -1.5t-23.5 -3t-23.5 -3t-14 -2.5h-708zM991 1055
l-183 -1q-2 0 -6.5 -4t-8.5 -6q-13 -8 -32.5 -23t-41.5 -32.5t-44.5 -35.5t-40.5 -33t-29 -25t-12 -11l-6 -21q36 0 61.5 -0.5t48.5 -0.5t45 0.5t51 2.5q7 9 24.5 22.5t39 29t45.5 32.5t44.5 33t34.5 30t17 23q2 5 2.5 12.5t-9.5 7.5z" />
    <glyph glyph-name="FL00EAh" unicode="&#xea;" horiz-adv-x="949" 
d="M245 605q-3 -13 7 -14t20 -1h29q25 0 79 0.5t121.5 2t143 2.5t143 2.5t121.5 2t79 0.5q21 19 41.5 43.5t38 51.5t31 54t20.5 51h-50q-26 -1 -79.5 -1.5t-121.5 -1.5t-142.5 -2t-142 -2t-121.5 -2t-79 -1q-8 -3 -17.5 -13t-17.5 -20.5t-13.5 -18.5l-5.5 -8q-5 -8 -17 -25
t-25 -36.5t-24.5 -36t-15.5 -22.5zM224 280q4 -4 17 -7t16 -3q4 1 12.5 5.5t17.5 10t17 11t11 8.5h492q1 0 6.5 5.5t10.5 9.5q37 45 69.5 94t46.5 97q3 11 -5.5 15t-20.5 4h-6l-42 -20q-5 -2 -15.5 -6t-11.5 -4h-480q-1 0 -6.5 -7.5t-10.5 -12.5q-11 -15 -28.5 -41
t-35.5 -55t-33 -56t-20 -44zM165 200q-1 0 -6.5 -7.5t-10.5 -12.5q-12 -16 -29.5 -41t-34 -49t-28 -41.5t-11.5 -18.5l-9 -30h780q7 0 21 13t30.5 33.5t34 44t31.5 45t23.5 36.5t10.5 18q3 8 0.5 14t-12.5 6h-7q-3 0 -14 -1.5t-23.5 -3t-23.5 -3t-14 -2.5h-708zM717 1055
q-10 0 -13 -6t-5 -11q-21 -13 -54 -38.5t-64.5 -52t-54.5 -46t-23 -20.5l-6 -21q36 0 61 -0.5t48 -0.5q11 0 17.5 -0.5t12.5 -0.5h13h9h5q4 0 8 1q4 4 16.5 16t28.5 26t32.5 27.5t28.5 21.5q6 -8 15 -21t17.5 -26.5t15 -25t8.5 -15.5q4 -1 12 -1h9h15q6 0 12.5 0.5t17.5 0.5
q23 0 48.5 0.5t61.5 0.5l6 21q0 1 -11.5 21t-28 46t-35 52t-31.5 38q-2 10 -8 11q-2 2 -4 2z" />
    <glyph glyph-name="FL00EBh" unicode="&#xeb;" horiz-adv-x="949" 
d="M873 200q3 1 14 2.5t23.5 3t23.5 3t14 1.5h7q10 0 12.5 -6t-0.5 -14q-1 -3 -10.5 -18t-23.5 -36.5t-31.5 -45t-34 -44t-30.5 -33.5t-21 -13h-780l9 30q0 1 11.5 18.5t28 41.5t34 49t29.5 41q5 5 10.5 12.5t6.5 7.5h708zM225 284q5 17 20 44t33 56t35.5 55t28.5 41
q5 5 10.5 12.5t6.5 7.5h480q1 0 11.5 4t15.5 6l42 20h6q12 0 20.5 -4t5.5 -15q-14 -48 -46.5 -97t-69.5 -94q-5 -4 -10.5 -9.5t-6.5 -5.5h-492q-3 -3 -11 -8.5t-17 -11t-17.5 -10t-12.5 -5.5q-3 0 -16 3t-17 7zM245 605l2 5q4 6 15.5 22.5t24.5 36t25 36.5t17 25l5.5 8
t13.5 18.5t17.5 20.5t17.5 13q25 0 78.5 0.5t121.5 1t142.5 2t142.5 2.5t121.5 2t79.5 2h50q-7 -24 -20.5 -51t-31 -54t-38 -51.5t-41.5 -43.5q-25 0 -79 -0.5t-121.5 -2t-143 -2.5t-143 -2.5t-121.5 -2t-79 -0.5h-29q-10 0 -20 1t-7 14zM759 1020q10 0 10 -8q0 -7 -2 -12
l-9 -32q-8 -26 -19 -54.5t-31 -48.5q-29 -2 -51 -2.5t-45 -0.5t-49 0.5t-62 0.5l6 21l5 16q3 11 8 26.5t12 31t15 29.5t16 22q2 2 7 6t8 4zM1050 1021q10 0 9.5 -7.5t-2.5 -12.5l-9 -32q-8 -26 -19 -54.5t-31 -48.5q-29 -2 -51 -2.5t-45 -0.5t-48 0.5t-61 0.5l6 21l4 16
q3 11 8.5 26.5t12 31t14.5 29.5t16 22q1 2 6 6t8 4z" />
    <glyph glyph-name="FL00ECh" unicode="&#xec;" horiz-adv-x="458" 
d="M256 760q0 2 0.5 7.5t1.5 7.5q3 9 9.5 18.5t23.5 6.5q11 1 32.5 2t49 2t57.5 2t57.5 2t49.5 1.5t33 0.5h17q12 0 26 0.5t26 0.5h16l-222 -771q-1 -4 -21 -8.5t-50.5 -9.5t-66.5 -9.5t-69 -8.5t-58.5 -6t-34.5 -2l196 684q10 37 -13 54.5t-60 25.5zM357 1056l181 -1
q3 0 5 -4t4 -6q12 -11 31 -37t36 -53.5t29.5 -48.5l12.5 -21l-6 -21q-36 0 -62 -0.5t-49 -0.5t-45 0.5t-49 2.5q-3 13 -22 36t-39 48t-35 48.5t-11 37.5q2 5 5.5 12.5t13.5 7.5z" />
    <glyph glyph-name="FL00EDh" unicode="&#xed;" horiz-adv-x="492" 
d="M256 760q37 -8 60 -25.5t13 -54.5l-196 -684q9 0 34.5 2t58.5 6t69 8.5t66.5 9.5t50.5 9.5t21 8.5l222 771h-16q-12 0 -26 -0.5t-26 -0.5h-17q-11 0 -33 -0.5t-49.5 -1.5t-57.5 -2t-57.5 -2t-49 -2t-32.5 -2q-17 3 -23.5 -6.5t-9.5 -18.5q-1 -2 -1.5 -7.5t-0.5 -7.5z
M745 1053l-181 -1q-3 0 -7.5 -4t-7.5 -6q-13 -8 -33 -23t-42 -32.5t-44.5 -35.5t-40.5 -33t-29.5 -25t-11.5 -11l-6 -21q36 0 61.5 -0.5t48.5 -0.5t45 0.5t50 2.5q7 9 24.5 22.5t39.5 29t45.5 32.5t44 33t34.5 30t17 23q2 5 2.5 12.5t-9.5 7.5z" />
    <glyph glyph-name="FL00EEh" unicode="&#xee;" horiz-adv-x="584" 
d="M284 760q37 -8 60 -25.5t13 -54.5l-196 -684q9 0 34.5 2t58.5 6t69 8.5t66.5 9.5t50.5 9.5t21 8.5l222 771h-17q-11 0 -25.5 -0.5t-25.5 -0.5h-17q-11 0 -33 -0.5t-49.5 -1.5t-57.5 -2t-57.5 -2t-49 -2t-32.5 -2q-17 3 -23.5 -6.5t-9.5 -18.5q-1 -2 -1.5 -7.5t-0.5 -7.5z
M504 1059q-10 0 -13 -6t-5 -11q-20 -13 -53.5 -38.5t-65 -52t-54.5 -46t-23 -20.5l-6 -21q36 0 61 -0.5t48 -0.5q11 0 17.5 -0.5t12.5 -0.5h14h8q8 0 13 1q4 4 17 16t29 26t33 27.5t29 21.5q6 -8 14.5 -21t16.5 -26.5t14.5 -25t8.5 -15.5q5 -1 12 -1h10h14q6 0 12.5 0.5
t17.5 0.5q23 0 49 0.5t62 0.5l6 21q0 1 -11.5 21t-28.5 46t-35.5 52t-31.5 38q0 10 -8 11q-2 2 -3 2z" />
    <glyph glyph-name="FL00EFh" unicode="&#xef;" horiz-adv-x="588" 
d="M294 760q-1 2 -0.5 7.5t1.5 7.5q3 9 9.5 18.5t24.5 6.5q16 1 55.5 3t83.5 3.5t83.5 2.5t56.5 1h16q12 0 26 0.5t26 0.5h17l-222 -771q-1 -4 -21 -8.5t-50.5 -9.5t-66.5 -9.5t-69 -8.5t-58.5 -6t-34.5 -2l196 684q5 18 1 31.5t-14.5 23t-26 15.5t-33.5 10zM541 1021
q11 0 10.5 -7.5t-2.5 -12.5l-9 -32q-8 -26 -19.5 -54.5t-31.5 -48.5q-29 -2 -51 -2.5t-45 -0.5t-48 0.5t-61 0.5l6 21l4 16q3 11 8.5 26.5t12.5 31t14.5 29.5t15.5 22q1 2 6.5 6t7.5 4zM832 1022q10 0 9.5 -7.5t-2.5 -12.5l-9 -32q-8 -26 -19 -54.5t-30 -48.5
q-29 -2 -51 -2.5t-45 -0.5t-49 0.5t-62 0.5l6 21l5 16q3 11 8 26.5t12 31t15 29.5t16 22q2 2 7 6t8 4z" />
    <glyph glyph-name="FL00F0h" unicode="&#xf0;" horiz-adv-x="989" 
d="M714 689q3 -3 6 -4.5l5 -2.5l-99 -43q-1 0 -2.5 -8.5t-2.5 -13.5q1 -14 -3 -27l-6 -22q-3 -10 -4 -21t5 -26l3 -3q3 -1 9 0t12.5 2t11.5 2.5l5 1.5q4 3 10 4l12 2t11 2.5t6 5.5l123 53q9 -22 10 -50t-10 -64q-144 0 -238 -5.5t-152.5 -14.5t-89 -19.5t-46.5 -19.5
q-23 -14 -45 -28.5t-39 -27.5t-28 -22.5t-12 -13.5q0 -2 3 -2q-47 -54 -65 -98.5t-23 -89.5q-3 -23 -2 -44t19 -39.5t61 -34.5t126 -29q48 -1 74.5 -2t43.5 -1q16 0 26.5 0.5t25.5 2t40.5 4.5t70.5 7q160 29 253 98q93 70 162.5 157t103.5 204q8 72 -10 126t-53 96l81 35
l5 18q4 25 8.5 38.5t6.5 24t0.5 22t-9.5 32.5q-5 9 -15.5 8.5t-21.5 -5.5l-7 -3l-27 -20q-3 -4 -10.5 -11t-8.5 -7l-117 -51q-57 26 -122.5 37.5t-131.5 11.5h-301l-29 -146q87 4 145.5 12t100 14.5t70 9t54.5 -4.5zM301 254q19 16 33 28t30 21t37.5 16t55.5 13h314
q-18 -44 -51 -85.5t-77.5 -73.5t-99.5 -51t-118 -18l-135 7q1 24 -6.5 35.5t-11.5 22.5t0.5 29t28.5 56z" />
    <glyph glyph-name="FL00F1h" unicode="&#xf1;" horiz-adv-x="1169" 
d="M468 548q14 -17 44.5 -51.5t69 -78t81 -91.5t81 -91t69 -77.5t45.5 -50.5q3 -5 16 -17.5t28 -26.5t29 -27t21 -19q2 -2 10 -5.5t11 -4.5q9 -3 24 -6.5t30 -6.5t26 -5l11 -2l14 10l19 64l28 98l33 115l25 88q18 64 33.5 115t24.5 75q11 33 22 63.5t24.5 60t30 58
t39.5 58.5q2 2 4.5 7t2.5 6q-46 0 -95 -6.5t-94 -16.5q-14 -2 -16 -11.5t-4 -15.5q-16 -54 -28 -106t-23.5 -103t-24 -103t-27.5 -106h-8l-449 475l-5.5 0.5t-8.5 0.5q-36 0 -75 -3t-78 -6.5t-77.5 -7t-73.5 -4.5q-11 -2 -14.5 -10t-5.5 -15q-1 -2 -1.5 -7.5t-1.5 -7.5
q40 -14 62 -30t30 -38t4 -51.5t-16 -69.5q-41 -144 -92 -278.5t-121 -277.5q2 -8 7 -9t13 -1h13q16 1 41.5 4.5t50 7t41.5 6l17 2.5l152 530h12zM594 851l-1 -4q1 -2 6 -3.5t10.5 -3t10.5 -2.5t6 -1q4 1 15.5 11.5t24.5 23.5t24 24.5t14 14.5h417q2 1 7.5 6.5l9.5 9.5
q19 22 33 37t24.5 29t19 29.5t15.5 39.5q3 11 -5.5 15t-20.5 4h-6l-59 -60q-5 -2 -15.5 -6t-11.5 -4h-406q-1 -1 -7 -8.5t-11 -12.5q-10 -15 -24 -32.5t-28 -35.5t-25.5 -36t-16.5 -35z" />
    <glyph glyph-name="FL00F2h" unicode="&#xf2;" horiz-adv-x="1297" 
d="M99 10q-2 2 -4 10t-2 10q-2 7 -4 24.5t-4 36.5t-3.5 36t-2.5 23l1 5l2 5q2 2 6.5 5.5t8.5 4.5h5q33 0 64.5 -3.5t63.5 -7t64.5 -7t66.5 -3.5h16q11 0 23 0.5t23 0.5h16q-50 25 -99.5 54t-85.5 65.5t-52 83.5t1 107q19 66 61 118t100 92t127 67.5t142 45.5t146.5 26
t138.5 8q60 0 121 -8t116 -25.5t101 -44t75.5 -63t39.5 -84.5t-7 -107q-18 -62 -60 -111.5t-99 -90.5t-125 -73.5t-137 -59.5q44 -10 83.5 -10.5t87.5 -0.5h48q35 0 67 1.5t74 9.5q-1 -2 -1.5 -7.5t-1.5 -7.5q-8 -27 -33.5 -51.5t-59.5 -43t-71 -29.5t-68 -11h-338
q1 3 5 14.5t6 15.5q3 6 10.5 22t16 33.5t16.5 33t12 21.5q60 21 98 50.5t62 65.5t38 77.5t27 86.5l7 22q5 16 9 33.5t9 32.5l8 28q0 23 -3.5 57.5t-14.5 66t-33.5 54t-59.5 22.5h-156q-37 0 -76 -21.5t-72.5 -52.5t-57.5 -65.5t-31 -60.5l-62 -216q-10 -35 3.5 -65.5
t33.5 -56t37 -45t14 -31.5q-1 -4 -3.5 -12t-3.5 -10q-5 -10 -13 -25t-15.5 -29.5t-14 -25t-7.5 -10.5l-39 -10q-3 0 -17.5 -0.5t-35.5 -0.5q-19 0 -39 -0.5t-31 -0.5q-24 0 -58 -0.5t-70 0.5t-70.5 3.5t-59.5 8.5zM758 1057l181 -1q3 0 5 -4t4 -6q12 -11 31 -37.5
t36.5 -53.5t29.5 -47.5t12 -21.5l-6 -21q-36 0 -62 -0.5t-49 -0.5t-44.5 0.5t-48.5 2.5q-4 13 -22.5 36t-39 48t-35.5 48.5t-11 37.5q2 5 5.5 12.5t13.5 7.5z" />
    <glyph glyph-name="FL00F3h" unicode="&#xf3;" horiz-adv-x="1297" 
d="M99 10q25 -6 59.5 -8.5t70.5 -3.5t70 -0.5t58 0.5q11 0 31 0.5t39 0.5q21 0 35.5 0.5t17.5 0.5l39 10q1 0 7.5 10.5t14 25t15.5 29.5t13 25q1 2 3.5 10t3.5 12q3 12 -14 31.5t-37 45t-33.5 56t-3.5 65.5l62 216q7 26 31 60.5t57.5 65.5t72.5 52.5t76 21.5h156
q37 0 59.5 -22.5t33.5 -54t14.5 -66t3.5 -57.5l-8 -28q-5 -15 -9 -32.5t-9 -33.5l-7 -22q-13 -45 -27 -86.5t-38 -77.5t-62 -65.5t-98 -50.5q-4 -6 -12 -21.5t-16.5 -33t-16 -33.5t-10.5 -22q-2 -4 -6 -15.5t-5 -14.5h338q31 0 68 11t71 29.5t59.5 43t33.5 51.5q1 2 1.5 7.5
t1.5 7.5q-42 -8 -74 -9.5t-67 -1.5h-48q-48 0 -87.5 0.5t-83.5 10.5q69 27 137 59.5t125 73.5t99 90.5t60 111.5q17 59 7 107t-39.5 84.5t-75.5 63t-101 44t-116 25.5t-121 8q-66 0 -139 -8t-146 -26t-142 -45.5t-127 -67.5t-100 -92t-61 -118q-17 -60 -1 -107t52 -83.5
t85.5 -65.5t99.5 -54h-16q-11 0 -23 -0.5t-23 -0.5h-16q-34 0 -66.5 3.5t-64.5 7t-63.5 7t-64.5 3.5h-5q-4 -1 -8.5 -4.5t-6.5 -5.5l-2 -5l-1 -5q1 -6 2.5 -23t3.5 -36t4 -36.5t4 -24.5q0 -2 2 -10t4 -10zM1115 1057l-181 -1q-2 0 -6.5 -4t-8.5 -6q-13 -8 -32.5 -22.5
t-42 -32t-45 -36t-40.5 -34t-29.5 -25.5l-11.5 -10l-6 -21q36 0 62 -0.5t49 -0.5t45 0.5t51 2.5q7 9 24.5 22.5t39 29t45.5 32.5t44 33t34 30t17 23q2 5 2.5 12.5t-10.5 7.5z" />
    <glyph glyph-name="FL00F4h" unicode="&#xf4;" horiz-adv-x="1297" 
d="M99 10q25 -6 59.5 -8.5t70.5 -3.5t70 -0.5t58 0.5q11 0 31 0.5t39 0.5q21 0 35.5 0.5t17.5 0.5l39 10q1 0 7.5 10.5t14 25t15.5 29.5t13 25q1 2 3.5 10t3.5 12q3 12 -14 31.5t-37 45t-33.5 56t-3.5 65.5l62 216q7 26 31 60.5t57.5 65.5t72.5 52.5t76 21.5h156
q37 0 59.5 -22.5t33.5 -54t14.5 -66t3.5 -57.5l-8 -28q-5 -15 -9 -32.5t-9 -33.5l-7 -22q-13 -45 -27 -86.5t-38 -77.5t-62 -65.5t-98 -50.5q-4 -6 -12 -21.5t-16.5 -33t-16 -33.5t-10.5 -22q-2 -4 -6 -15.5t-5 -14.5h338q31 0 68 11t71 29.5t59.5 43t33.5 51.5q1 2 1.5 7.5
t1.5 7.5q-42 -8 -74 -9.5t-67 -1.5h-48q-48 0 -87.5 0.5t-83.5 10.5q69 27 137 59.5t125 73.5t99 90.5t60 111.5q17 59 7 107t-39.5 84.5t-75.5 63t-101 44t-116 25.5t-121 8q-66 0 -139 -8t-146 -26t-142 -45.5t-127 -67.5t-100 -92t-61 -118q-17 -60 -1 -107t52 -83.5
t85.5 -65.5t99.5 -54h-16q-11 0 -23 -0.5t-23 -0.5h-16q-34 0 -66.5 3.5t-64.5 7t-63.5 7t-64.5 3.5h-5q-4 -1 -8.5 -4.5t-6.5 -5.5l-2 -5l-1 -5q1 -6 2.5 -23t3.5 -36t4 -36.5t4 -24.5q0 -2 2 -10t4 -10zM851 1056q-10 0 -13 -6t-5 -11q-20 -13 -53.5 -38.5t-65 -52
t-54.5 -46t-23 -20.5l-6 -21q36 0 61.5 -0.5t48.5 -0.5q11 0 17 -0.5t12 -0.5h14h8h6t8 1q4 4 16.5 16t28.5 26t33 27.5t29 21.5q6 -8 14.5 -21t17 -26.5t15 -25t7.5 -15.5q5 -1 12 -1h10h14q6 0 12.5 0.5t17.5 0.5q23 0 49 0.5t62 0.5l6 21q0 1 -11.5 21t-28 46t-35 52
t-32.5 38q2 9 -8 11l-2 2z" />
    <glyph glyph-name="FL00F5h" unicode="&#xf5;" horiz-adv-x="1297" 
d="M99 10q25 -6 59.5 -8.5t70.5 -3.5t70 -0.5t58 0.5q11 0 31 0.5t39 0.5q21 0 35.5 0.5t17.5 0.5l39 10q1 0 7.5 10.5t14 25t15.5 29.5t13 25q1 2 3.5 10t3.5 12q3 12 -14 31.5t-37 45t-33.5 56t-3.5 65.5l62 216q7 26 31 60.5t57.5 65.5t72.5 52.5t76 21.5h156
q37 0 59.5 -22.5t33.5 -54t14.5 -66t3.5 -57.5l-8 -28q-5 -15 -9 -32.5t-9 -33.5l-7 -22q-13 -45 -27 -86.5t-38 -77.5t-62 -65.5t-98 -50.5q-4 -6 -12 -21.5t-16.5 -33t-16 -33.5t-10.5 -22q-2 -4 -6 -15.5t-5 -14.5h338q31 0 68 11t71 29.5t59.5 43t33.5 51.5q1 2 1.5 7.5
t1.5 7.5q-42 -8 -74 -9.5t-67 -1.5h-48q-48 0 -87.5 0.5t-83.5 10.5q69 27 137 59.5t125 73.5t99 90.5t60 111.5q17 59 7 107t-39.5 84.5t-75.5 63t-101 44t-116 25.5t-121 8q-66 0 -139 -8t-146 -26t-142 -45.5t-127 -67.5t-100 -92t-61 -118q-17 -60 -1 -107t52 -83.5
t85.5 -65.5t99.5 -54h-16q-11 0 -23 -0.5t-23 -0.5h-16q-34 0 -66.5 3.5t-64.5 7t-63.5 7t-64.5 3.5h-5q-4 -1 -8.5 -4.5t-6.5 -5.5l-2 -5l-1 -5q1 -6 2.5 -23t3.5 -36t4 -36.5t4 -24.5q0 -2 2 -10t4 -10zM566 823l-1 -4q3 -4 16.5 -7t16.5 -3q4 1 15.5 11.5t24 23.5
t23.5 24.5t14 14.5h418l6.5 6.5t10.5 9.5q18 22 32 37t25 29t19 29.5t15 39.5q4 11 -5 15t-20 4h-6l-59 -60q-5 -2 -15.5 -6t-11.5 -4h-406q-1 -1 -7 -8.5t-11 -12.5q-11 -15 -25 -32.5t-27.5 -35.5t-25 -36t-16.5 -35z" />
    <glyph glyph-name="FL00F6h" unicode="&#xf6;" horiz-adv-x="1297" 
d="M99 10q-2 2 -4 10t-2 10q-2 7 -4 24.5t-4 36.5t-3.5 36t-2.5 23l1 5l2 5q2 2 6.5 5.5t8.5 4.5h5q33 0 64.5 -3.5t63.5 -7t64.5 -7t66.5 -3.5h16q11 0 23 0.5t23 0.5h16q-50 25 -99.5 54t-85.5 65.5t-52 83.5t1 107q19 66 61 118t100 92t127 67.5t142 45.5t146.5 26
t138.5 8q60 0 121 -8t116 -25.5t101 -44t75.5 -63t39.5 -84.5t-7 -107q-18 -62 -60 -111.5t-99 -90.5t-125 -73.5t-137 -59.5q44 -10 83.5 -10.5t87.5 -0.5h48q35 0 67 1.5t74 9.5q-1 -2 -1.5 -7.5t-1.5 -7.5q-8 -27 -33.5 -51.5t-59.5 -43t-71 -29.5t-68 -11h-338
q1 3 5 14.5t6 15.5q3 6 10.5 22t16 33.5t16.5 33t12 21.5q60 21 98 50.5t62 65.5t38 77.5t27 86.5l7 22q5 16 9 33.5t9 32.5l8 28q0 23 -3.5 57.5t-14.5 66t-33.5 54t-59.5 22.5h-156q-37 0 -76 -21.5t-72.5 -52.5t-57.5 -65.5t-31 -60.5l-62 -216q-10 -35 3.5 -65.5
t33.5 -56t37 -45t14 -31.5q-1 -4 -3.5 -12t-3.5 -10q-5 -10 -13 -25t-15.5 -29.5t-14 -25t-7.5 -10.5l-39 -10q-3 0 -17.5 -0.5t-35.5 -0.5q-19 0 -39 -0.5t-31 -0.5q-24 0 -58 -0.5t-70 0.5t-70.5 3.5t-59.5 8.5zM913 1016q10 0 10 -8q0 -7 -2 -12l-10 -32
q-8 -26 -19 -54.5t-31 -48.5q-29 -2 -50.5 -2.5t-44.5 -0.5t-49 0.5t-62 0.5l6 21l5 16q3 11 8 26.5t12 31t14.5 29.5t15.5 22q2 2 7.5 6t7.5 4zM1204 1017q10 0 9.5 -7.5t-2.5 -12.5l-9 -32q-8 -26 -19 -54.5t-31 -48.5q-29 -2 -51 -2.5t-45 -0.5t-48 0.5t-61 0.5l6 21
l4 16q3 11 8.5 26.5t12 31t14 29.5t15.5 22q2 2 7 6t8 4z" />
    <glyph glyph-name="FL00F7h" unicode="&#xf7;" horiz-adv-x="767" 
d="M112 265l1 4q5 17 19 41.5t31 50t34 49t27 38.5q5 5 11 12.5t7 7.5l527 2q1 0 11.5 4t15.5 6l41 20h6q11 0 20 -4t6 -15q-14 -48 -44 -88.5t-67 -85.5l-9.5 -9.5t-6.5 -5.5l-539 -2q-3 -3 -11 -8.5t-17 -11t-17.5 -10t-12.5 -5.5q-3 0 -16 3t-17 7zM555 204q10 0 10 -8
q0 -7 -2 -12l-9 -32q-8 -26 -19 -54.5t-31 -48.5q-29 -2 -51 -2.5t-45 -0.5t-49 0.5t-62 0.5l6 21l5 16q3 11 8 26.5t12 31t15 29.5t16 22q2 2 7 6t8 4zM701 710q10 0 9.5 -7.5t-2.5 -12.5l-9 -32q-8 -26 -19 -54.5t-31 -48.5q-29 -2 -51 -2.5t-45 -0.5t-48.5 0.5t-61.5 0.5
l6 21l4 16q3 11 8 26.5t12 31t15 29.5t16 22q2 2 7 6t8 4z" />
    <glyph glyph-name="FL00F8h" unicode="&#xf8;" 
d="M150 398q34 117 106.5 198t172 131.5t219.5 73t249 22.5q107 0 196.5 -22t149 -67t82 -115t-4.5 -166q-34 -117 -102.5 -203t-165 -141.5t-217 -82.5t-257.5 -27q-117 0 -210 23t-151.5 71.5t-77.5 124t11 180.5zM484 432q-10 -36 -18.5 -76t-10 -79t6 -75t29 -63.5
t58 -43.5t94.5 -16q85 0 145 33.5t102 85t68 113t42 117.5q16 57 21 113.5t-12 101t-60 72.5t-123 28q-113 0 -186 -50.5t-121 -140.5l-7 -24q-5 -17 -10.5 -36t-10.5 -36zM784 594q7 8 15 5.5t14 -4.5q13 -6 23 -18t18.5 -26t15.5 -29t15 -27q-17 -21 -43 -52.5
t-54.5 -65.5t-57.5 -67.5t-52 -59.5l-21 9q-1 0 -8.5 11t-18 26t-20.5 31t-16 26q-2 2 -3 7t2 7z" />
    <glyph glyph-name="FL00F9h" unicode="&#xf9;" horiz-adv-x="1277" 
d="M333 139q-32 22 -44 59t-12.5 82t7.5 96t17.5 101.5t16.5 98t4.5 85.5t-17.5 64t-51 34l1 5l2 5q1 2 7 10t10 10q56 6 92.5 8.5t74.5 2.5h58h16q11 0 23 -0.5t23 -0.5h16q22 -17 26.5 -54.5t-0.5 -87.5t-17 -108.5t-23.5 -117t-19.5 -112.5t-5 -96t19.5 -67.5t53.5 -26.5
l69 -2q50 0 98.5 36.5t92 93t83 126.5t72 136.5t58 123t41.5 86.5q27 25 69 39t87.5 21t89.5 8.5t75 1.5q24 0 18 -21q-3 -9 -13.5 -14.5t-24 -10.5t-27.5 -10.5t-22 -13.5q-3 -3 -8 -8.5t-10.5 -11.5t-10 -11.5t-6.5 -8.5t-12.5 -24l-26.5 -53t-36 -72.5t-41 -82t-41 -82
t-36.5 -72t-27.5 -52t-13 -23.5q-37 -29 -74 -60t-76.5 -58.5t-83 -49.5t-93.5 -33q-17 -10 -32 -15t-34.5 -8t-47 -4.5t-68.5 -3.5q-48 7 -85.5 18t-68.5 28t-58 41t-54 56zM733 1004l181 -1q3 0 5 -4t4 -6q12 -12 30.5 -38t36 -52.5t30 -47.5t12.5 -22l-6 -21
q-36 0 -61.5 -0.5t-48.5 -0.5t-45 0.5t-50 2.5q-3 13 -21.5 36t-39 48t-35.5 48.5t-11 37.5q2 5 5.5 12.5t13.5 7.5z" />
    <glyph glyph-name="FL00FAh" unicode="&#xfa;" horiz-adv-x="1277" 
d="M333 139q27 -32 54 -56t58 -41t68.5 -28t85.5 -18q41 2 68.5 3.5t47 4.5t34.5 8t32 15q50 11 93.5 33t83 49.5t76.5 58.5t74 60q3 4 21 38t43.5 84t54 107.5t53 107.5t42 85t20.5 39q2 3 6.5 8.5t10 11.5t10.5 11.5t8 8.5q8 8 22 13.5t27.5 10.5t24 10.5t13.5 14.5
q6 21 -18 21q-31 0 -75 -1.5t-89.5 -8.5t-87.5 -21t-69 -39q-17 -30 -42 -86.5t-57.5 -123t-72 -136.5t-83 -126.5t-92 -93t-98.5 -36.5l-69 2q-37 1 -53.5 26.5t-19.5 67.5t5 96t19.5 112.5t23.5 117t17 108.5t0.5 87.5t-26.5 54.5h-16q-11 0 -23 0.5t-23 0.5h-16h-58
q-38 0 -74.5 -2.5t-92.5 -8.5q-4 -2 -10 -10t-7 -10l-2 -5l-1 -5q35 -8 50.5 -33.5t18 -63.5t-4.5 -85.5t-16 -98t-17 -101.5t-7.5 -96.5t12.5 -82.5t43 -59zM1136 1032l-181 -1q-3 0 -7.5 -4t-7.5 -6q-13 -8 -33 -23t-42 -32.5t-44.5 -35.5t-40.5 -33t-29.5 -25t-11.5 -11
l-6 -21q36 0 61.5 -0.5t48.5 -0.5t45 0.5t50 2.5q7 9 24.5 22.5t39.5 29t45.5 32.5t44 33t34.5 30t17 23q2 5 2.5 12.5t-9.5 7.5z" />
    <glyph glyph-name="FL00FBh" unicode="&#xfb;" horiz-adv-x="1277" 
d="M333 139q27 -32 54 -56t58 -41t68.5 -28t85.5 -18q41 2 68.5 3.5t47 4.5t34.5 8t32 15q50 11 93.5 33t83 49.5t76.5 58.5t74 60q3 4 21 38t43.5 84t54 107.5t53 107.5t42 85t20.5 39q2 3 6.5 8.5t10 11.5t10.5 11.5t8 8.5q8 8 22 13.5t27.5 10.5t24 10.5t13.5 14.5
q6 21 -18 21q-31 0 -75 -1.5t-89.5 -8.5t-87.5 -21t-69 -39q-17 -30 -42 -86.5t-57.5 -123t-72 -136.5t-83 -126.5t-92 -93t-98.5 -36.5l-69 2q-37 1 -53.5 26.5t-19.5 67.5t5 96t19.5 112.5t23.5 117t17 108.5t0.5 87.5t-26.5 54.5h-16q-11 0 -23 0.5t-23 0.5h-16h-58
q-38 0 -74.5 -2.5t-92.5 -8.5q-4 -2 -10 -10t-7 -10l-2 -5l-1 -5q35 -8 50.5 -33.5t18 -63.5t-4.5 -85.5t-16 -98t-17 -101.5t-7.5 -96.5t12.5 -82.5t43 -59zM853 1051q-10 0 -13 -6t-5 -11q-20 -13 -53 -38.5t-64.5 -52t-55 -46t-23.5 -20.5l-6 -21q36 0 61.5 -0.5
t48.5 -0.5q11 0 17.5 -0.5t12.5 -0.5h13h9h5q4 0 8 1q4 4 16.5 16t28.5 26t32.5 27.5t28.5 21.5q6 -8 15 -21t17.5 -26.5t15 -25t8.5 -15.5q4 -1 12 -1h9h15q6 0 12.5 0.5t17.5 0.5q23 0 48.5 0.5t61.5 0.5l6 21q0 1 -11.5 21t-28 46t-35.5 52t-32 38q0 10 -7 11q-2 2 -4 2z
" />
    <glyph glyph-name="FL00FCh" unicode="&#xfc;" horiz-adv-x="1277" 
d="M333 139q-32 22 -44 59t-12.5 82t7.5 96t17.5 101.5t16.5 98t4.5 85.5t-17.5 64t-51 34l1 5l2 5q1 2 7 10t10 10q56 6 92.5 8.5t74.5 2.5h58h16q11 0 23 -0.5t23 -0.5h16q22 -17 26.5 -54.5t-0.5 -87.5t-17 -108.5t-23.5 -117t-19.5 -112.5t-5 -96t19.5 -67.5t53.5 -26.5
l69 -2q50 0 98.5 36.5t92 93t83 126.5t72 136.5t58 123t41.5 86.5q27 25 69 39t87.5 21t89.5 8.5t75 1.5q24 0 18 -21q-3 -9 -13.5 -14.5t-24 -10.5t-27.5 -10.5t-22 -13.5q-3 -3 -8 -8.5t-10.5 -11.5t-10 -11.5t-6.5 -8.5t-12.5 -24l-26.5 -53t-36 -72.5t-41 -82t-41 -82
t-36.5 -72t-27.5 -52t-13 -23.5q-37 -29 -74 -60t-76.5 -58.5t-83 -49.5t-93.5 -33q-17 -10 -32 -15t-34.5 -8t-47 -4.5t-68.5 -3.5q-48 7 -85.5 18t-68.5 28t-58 41t-54 56zM896 1016q10 0 10 -8q0 -7 -2 -12l-10 -32q-8 -26 -18.5 -54.5t-30.5 -48.5q-29 -2 -51 -2.5
t-45 -0.5t-49 0.5t-62 0.5l6 21l5 16q3 11 8 26.5t12 31t15 29.5t16 22q2 2 7 6t8 4zM1187 1017q10 0 9.5 -7.5t-2.5 -12.5l-9 -32q-8 -26 -19 -54.5t-31 -48.5q-29 -2 -51 -2.5t-45 -0.5t-48 0.5t-61 0.5l6 21l4 16q3 11 8.5 26.5t12 31t14 29.5t15.5 22q2 2 7 6t8 4z" />
    <glyph glyph-name="FL00FDh" unicode="&#xfd;" horiz-adv-x="1501" 
d="M635 -4q34 0 68 4.5t68.5 10.5t68.5 11.5t69 7.5l14 10l72 250q65 8 127.5 21t119.5 36.5t107 60t90 92.5q4 4 14 18.5t23 34t28 41.5t27.5 42t22 34.5t12.5 19.5q2 3 6.5 8.5t10 11.5t10.5 11.5t8 8.5q9 8 22.5 13.5t27 10.5t24 10.5t13.5 14.5q6 21 -18 21
q-31 0 -74.5 -1.5t-89 -8.5t-87.5 -21t-70 -39q-16 -30 -32.5 -68t-37 -77.5t-45 -77t-55.5 -67t-70.5 -47.5t-88.5 -18l125 436h-10t-14.5 -0.5t-14.5 -0.5h-10q-10 0 -31 -0.5t-47.5 -1.5t-55 -2.5t-52.5 -2.5q-33 -2 -45 -3t-14 -9l-4 -14q-29 -103 -53.5 -201
t-53.5 -201q-3 0 -11.5 -1t-17.5 -2t-17.5 -2t-11.5 0q-47 9 -64.5 38.5t-19.5 71t6 89.5t12 93.5t-2 85t-34 62.5h-16q-11 0 -22.5 0.5t-22.5 0.5h-16h-58q-38 0 -75 -2.5t-93 -8.5q-3 -2 -9 -10t-8 -10l-2 -5l-1 -5q47 -10 64.5 -36t20.5 -61.5t-2.5 -77.5t-5 -84.5
t14.5 -81.5t54 -69q28 -21 66.5 -33.5t81 -19.5t86.5 -10.5t82 -6.5zM1232 1055l-182 -1q-3 0 -7.5 -4t-7.5 -6q-13 -8 -32.5 -23t-41.5 -32.5t-44.5 -35.5t-40.5 -33l-30 -25t-12 -11l-6 -21q36 0 61.5 -0.5t48.5 -0.5t45 0.5t51 2.5q7 9 24.5 22.5t39 29t45.5 32.5
t44.5 33t34.5 30t17 23q2 5 2.5 12.5t-9.5 7.5z" />
    <glyph glyph-name="FL00FEh" unicode="&#xfe;" horiz-adv-x="907" 
d="M482 967l-163 -15q-42 -120 -75.5 -230.5t-61 -210t-50.5 -187t-45 -162.5q-7 -23 -15 -57.5t-16.5 -73t-16.5 -78t-14.5 -72t-10.5 -55t-4 -26.5v-40l3.5 -0.5t6.5 -0.5q19 0 40.5 3.5t42.5 10.5t38.5 18.5t29.5 28.5q9 9 23 29t30 45.5t32.5 54t30.5 54t24 46.5t13 31
l152 533q45 0 91.5 -4.5t81.5 -19.5t52.5 -43.5t3.5 -76.5q-13 -45 -39.5 -76t-64 -52.5t-83.5 -36.5t-97 -28q0 -1 -1.5 -4.5t-2.5 -5.5q-4 -14 3.5 -23t22.5 -17h12q8 0 18 -0.5t18 -0.5h12q75 0 156 14t152 45t125 80.5t74 121.5l4 11q2 9 4.5 19l4.5 18l4 12
q-3 39 -30.5 64.5t-67.5 41t-86.5 23t-87.5 11.5h-44q-32 0 -67.5 0.5t-67.5 0.5h-92l83 281h-17q-11 0 -25 -0.5t-26 -0.5h-17z" />
    <glyph glyph-name="FL00FFh" unicode="&#xff;" horiz-adv-x="1501" 
d="M719 290q-38 3 -82 6.5t-86.5 10.5t-81 19.5t-66.5 33.5q-30 22 -45 50t-20 59t-3 63t4.5 63t3 59t-6.5 51.5t-25.5 40t-53.5 24.5l1 5l2 5q2 2 8 10t9 10q56 6 93 8.5t75 2.5h58h16q11 0 22.5 -0.5t22.5 -0.5h16q28 -23 34 -62.5t2 -85t-12 -93.5t-6 -89.5t19.5 -71
t64.5 -38.5q3 -1 11.5 0t17.5 2t17.5 2t11.5 1q29 103 53.5 201t53.5 201l4 14q-1 6 7.5 8t25.5 3t41.5 1.5t54.5 2.5q38 2 70 3t46 1h10t14.5 0.5t14.5 0.5h10l-125 -436q49 0 88.5 18t70.5 47.5t55.5 67t45 77t37 77.5t32.5 68q28 25 70 39t87.5 21t89 8.5t74.5 1.5
q24 0 18 -21q-3 -9 -13.5 -14.5t-24 -10.5t-27 -10.5t-22.5 -13.5q-3 -3 -8 -8.5t-10.5 -11.5t-10 -11.5t-6.5 -8.5q-3 -5 -12.5 -19.5t-22 -34.5t-27.5 -42t-28 -41.5t-23 -34t-14 -18.5q-40 -56 -90 -92.5t-107 -60t-119.5 -36.5t-127.5 -21l-72 -250l-14 -10
q-35 -2 -69 -7.5t-68.5 -11.5t-68.5 -10.5t-68 -4.5zM1027 1016q10 0 10 -8q0 -7 -2 -12l-10 -32q-8 -26 -19 -54.5t-31 -48.5q-29 -2 -50.5 -2.5t-44.5 -0.5t-49 0.5t-62 0.5l6 21l5 16q3 11 8 26.5t12 31t14.5 29.5t15.5 22q2 2 7.5 6t7.5 4zM1318 1017q10 0 9.5 -7.5
t-2.5 -12.5l-9 -32q-8 -26 -19 -54.5t-31 -48.5q-29 -2 -51 -2.5t-45 -0.5t-48 0.5t-61 0.5l6 21l4 16q3 11 8.5 26.5t12 31t14 29.5t15.5 22q2 2 7 6t8 4z" />
    <glyph glyph-name="FL0152h" unicode="&#x152;" horiz-adv-x="1715" 
d="M1146 829h-326q-56 -4 -108.5 -11.5t-103 -20t-99.5 -32t-98 -48.5q-97 -57 -166 -143.5t-103 -204.5q-28 -96 -5 -166t82.5 -115t149 -66.5t196.5 -21.5h837q25 0 56.5 4.5t65 14t66.5 23t60.5 31.5t47 40t27.5 48q-66 0 -128.5 -6t-127.5 -6q-36 0 -74.5 -0.5t-77 1
t-75 6t-67.5 14.5q47 34 97 64.5t100.5 60.5t100.5 60.5t97 64.5q2 1 3 4.5t2 5.5q1 5 -13 21t-38 38t-53 48.5t-57 52t-51.5 48.5t-35.5 39q4 1 16.5 3t26.5 3.5t27 2.5t17 1q11 1 36 3t56.5 4t66.5 4.5t66.5 4.5t56 3t36.5 1q13 8 29.5 18.5t33 22t32 24.5t27.5 25l3 6
t6 11t3 6t0.5 3l0.5 2q-2 2 -5 5.5t-5 4.5q-8 -1 -25 -3t-36.5 -3.5t-36.5 -2.5t-24 -1h-224q-94 0 -156.5 -0.5t-100.5 -0.5h-48q-26 0 -39 1t-21 4zM925 752l57 -88l15 -7l293 -277l-373 -230q-5 -2 -16 -10t-14 -10q-4 -2 -7.5 -6.5t-8.5 -9.5q-78 -3 -131.5 -6.5t-92 -6
t-67 -1.5t-56.5 7l-17 4q2 -1 4.5 -1.5l7.5 -1.5l-16 6q-25 15 -37.5 36.5t-15.5 47.5t2 55.5t14 61.5l26 89q10 37 23.5 77t31.5 78.5t42.5 73.5t57.5 61t76 41.5t99 15.5z" />
    <glyph glyph-name="FL0153h" unicode="&#x153;" horiz-adv-x="1590" 
d="M1277 0q38 0 89 10.5t99 31t86 50.5t49 69q-65 0 -128 -6t-128 -6q-36 0 -74.5 -0.5t-77 1t-75 6t-67.5 14.5q47 34 97 64.5t100.5 60.5t100.5 60.5t97 64.5q2 1 3 4.5t2 5.5q1 5 -13 21t-38 38t-53 48.5t-57 52t-51.5 48.5t-35.5 39q4 1 16.5 3t27 3.5t27 2.5t16.5 1
q12 1 37 3t56.5 4t66 4.5t66 4.5t56.5 3t36 1q13 8 29.5 18.5t33.5 22t32.5 24.5t26.5 25l1 2t1 3l4 14q0 2 -3 5.5t-6 4.5q-90 -1 -159.5 -2t-121 -1.5t-87.5 -0.5h-60h-37q-19 0 -26 1.5t-7 3.5h-409q-56 -4 -108.5 -11.5t-103 -20t-99.5 -32t-98 -48.5
q-97 -57 -166 -143.5t-103 -204.5q-27 -96 -4.5 -166t82 -115t149 -66.5t196.5 -21.5h426l1 2h286zM924 750l24 -16l203 -312l-359 -272q-4 -3 -15.5 -10.5t-14.5 -9.5l-29 -29q-71 -3 -124 -3q-55 0 -86 7l-21 7q2 -2 6.5 -3t9.5 -3l-16 6q-33 21 -46 53t-12.5 71.5t11 84
t23.5 89.5q10 37 24.5 76.5t34 77t46 71.5t61 59t79 40t99.5 15z" />
    <glyph glyph-name="FL0160h" unicode="&#x160;" horiz-adv-x="1049" 
d="M1019 20l-349 659q-2 2 -4 10t-3 10q1 2 3 3.5t2 2.5q34 0 75.5 3t86 5t89 1t84.5 -8t72 -23t51 -44h41q4 15 3.5 43.5t-3.5 56.5t-7.5 49t-8.5 21h-840l-9 -30l319 -639q-15 -5 -34.5 -8.5t-39 -6t-37 -4t-27.5 -1.5q-20 0 -65 -0.5t-99 -1.5t-109 -1.5t-93 -0.5h-48
q-5 -18 3.5 -33.5t25.5 -28.5t41 -23t49 -17t49.5 -10.5t43.5 -3.5h720zM862 864q11 0 14 6t5 11q20 13 53 38.5t64.5 52t55 46t23.5 20.5l6 21q-36 0 -62 0.5t-49 0.5q-11 0 -17 0.5t-13 0.5h-13h-9q-8 0 -12 -1q-3 -5 -16 -16.5t-29.5 -25.5t-33 -27.5t-28.5 -21.5
q-6 8 -14.5 21t-17 26.5t-15.5 25t-8 15.5q-4 1 -8 1h-5h-10h-13q-7 0 -13 -0.5t-17 -0.5q-23 0 -49 -0.5t-62 -0.5l-6 -21q0 -1 11.5 -21t28.5 -46t35.5 -52t32.5 -38q-2 -9 8 -11q0 -2 2 -2z" />
    <glyph glyph-name="FL0161h" unicode="&#x161;" horiz-adv-x="958" 
d="M595 358q31 -5 59.5 -10.5t48.5 -18t28 -36t-4 -63.5q-15 -54 -41.5 -75t-72 -24.5t-114.5 2t-170 5.5q-14 0 -73.5 12t-162.5 46l-49 -167q0 -1 11.5 -5t17.5 -5q34 -6 81.5 -10t98.5 -6t100.5 -3t88.5 -1q46 0 100.5 3t110.5 12.5t110.5 27t100.5 46t80.5 69.5t50.5 98
q15 51 2.5 83.5t-41.5 52.5t-70.5 30.5t-86.5 18.5q-18 9 -44.5 16t-59 13t-68 13t-70.5 16q-20 6 -36.5 12.5t-26 17.5t-12 28t5.5 44q19 66 73 103.5t130 37.5q5 0 22.5 -1t42 -3.5t54 -7.5t58 -13t53.5 -19.5t41 -27.5v1q11 -2 26.5 7.5t33.5 24.5t37.5 33.5t38.5 34.5
l-3 30q0 1 -14 2.5t-34.5 3t-42 3t-35.5 1.5h-30q-26 0 -61 0.5t-70 0.5h-103q-32 0 -66.5 -0.5t-66.5 -0.5h-45q-40 -5 -86 -14t-88 -27t-74.5 -47.5t-45.5 -74.5q-11 -37 -8.5 -69t15.5 -59t34.5 -47.5t49.5 -34.5zM806 860q10 0 12.5 6t4.5 11q21 13 54 38.5t65 52t55 46
t23 20.5l7 21q-36 0 -62 0.5t-49 0.5q-11 0 -17 0.5t-13 0.5h-13h-10q-7 0 -12 -1q-4 -5 -16.5 -16.5t-28.5 -25.5t-32.5 -27.5t-28.5 -21.5q-6 8 -15 21t-17 26.5t-15 25t-8 15.5q-4 1 -8 1h-6h-9h-13q-7 0 -13 -0.5t-17 -0.5q-23 0 -49 -0.5t-62 -0.5l-6 -21
q0 -1 11.5 -21t28.5 -46t35.5 -52t32.5 -38q-2 -9 6 -11l4 -2z" />
    <glyph glyph-name="FL0178h" unicode="&#x178;" horiz-adv-x="1177" 
d="M241 670q-2 1 -5.5 4.5t-3.5 5.5v5q5 18 24.5 35.5t46 32.5t58.5 27.5t63.5 21.5t59 14t46.5 5q90 0 139 -24t71 -64.5t23.5 -94.5t-3.5 -114l-2 -50h24q1 0 13.5 20t30 47t35.5 55t32 44q29 36 63 68.5t73.5 57.5t84 40t94.5 15q17 0 37.5 -0.5t38.5 -4t31 -12t14 -24.5
q0 -5 0.5 -20t1 -32.5t1.5 -34t1 -23.5l-1 -5q-3 -9 -11.5 -12.5t-16.5 -3.5q-25 0 -46 6t-47 6q-48 0 -92.5 -17t-84.5 -45t-74 -64t-61 -75t-46.5 -78t-30.5 -72q-5 -16 -16.5 -55.5t-24.5 -84.5l-14 -47q-7 -24 -12.5 -46t-10.5 -39l-7 -25q-27 -5 -59 -10.5t-65.5 -10
t-67.5 -7.5t-64 -3q-2 0 -8.5 -0.5t-13.5 0.5t-12.5 3t-3.5 8l91 317q0 2 2.5 17l5.5 33t5 34t2 20q-4 62 -19.5 112t-50 84t-92 50t-146.5 10zM858 1017q11 0 10.5 -7.5t-2.5 -12.5l-9 -32q-8 -26 -19.5 -54.5t-31.5 -48.5q-29 -2 -51 -2.5t-45 -0.5t-48 0.5t-61 0.5l6 21
l4 16q3 11 8.5 26.5t12 31t14 29.5t15.5 22q2 2 7.5 6t7.5 4zM1149 1018q10 0 9.5 -7.5t-2.5 -12.5l-9 -32q-8 -26 -19 -54.5t-31 -48.5q-29 -2 -50.5 -2.5t-44.5 -0.5t-49 0.5t-62 0.5l6 21l4 16q3 11 8.5 26.5t12.5 31t15 29.5t16 22q2 2 7 6t8 4z" />
    <glyph glyph-name="FL017Dh" unicode="&#x17d;" horiz-adv-x="1049" 
d="M42 20l6 -20h720q28 0 72.5 8t87.5 23t76.5 36.5t41.5 48.5h-48q-26 0 -59 0.5t-69 0.5t-72.5 1t-68.5 1t-57 0.5t-38 0.5q-10 0 -27 1.5t-35.5 4t-36 6t-27.5 8.5l687 636l8 30h-840q-4 0 -20.5 -21t-36 -49t-36.5 -56.5t-21 -43.5h41q53 42 118 57.5t132.5 17.5
t131.5 -3.5t115 -5.5q0 -1 0.5 -2.5t0.5 -3.5q-2 -2 -8 -10t-10 -10zM883 861q10 0 13 6t5 11q14 8 33.5 23t41.5 32.5t43.5 35t38.5 32.5t28 24t11 10l6 21q-36 0 -61.5 0.5t-48.5 0.5q-11 0 -17.5 0.5t-12.5 0.5h-13h-10q-7 0 -12 -1q-3 -5 -16 -16.5t-29 -25.5
t-32.5 -27.5t-28.5 -21.5q-6 8 -15 21t-17.5 26.5t-15 25t-8.5 15.5q-2 1 -6 1h-6h-9h-14q-6 0 -13 -0.5t-18 -0.5q-23 0 -48.5 -0.5t-61.5 -0.5l-6 -21q0 -1 11.5 -21t28 -46t35 -52t32.5 -38q0 -10 8 -11q0 -2 3 -2z" />
    <glyph glyph-name="FL017Eh" unicode="&#x17e;" horiz-adv-x="1049" 
d="M42 20l6 -20h720q28 0 72.5 8t87.5 23t76.5 36.5t41.5 48.5h-48q-26 0 -59 0.5t-69 0.5t-72.5 1t-68.5 1t-57 0.5t-38 0.5q-10 0 -27 1.5t-35.5 4t-36 6t-27.5 8.5l687 636l8 30h-840q-4 0 -20.5 -21t-36 -49t-36.5 -56.5t-21 -43.5h41q53 42 118 57.5t132.5 17.5
t131.5 -3.5t115 -5.5q0 -1 0.5 -2.5t0.5 -3.5q-2 -2 -8 -10t-10 -10zM883 861q10 0 13 6t5 11q14 8 33.5 23t41.5 32.5t43.5 35t38.5 32.5t28 24t11 10l6 21q-36 0 -61.5 0.5t-48.5 0.5q-11 0 -17.5 0.5t-12.5 0.5h-13h-10q-7 0 -12 -1q-3 -5 -16 -16.5t-29 -25.5
t-32.5 -27.5t-28.5 -21.5q-6 8 -15 21t-17.5 26.5t-15 25t-8.5 15.5q-2 1 -6 1h-6h-9h-14q-6 0 -13 -0.5t-18 -0.5q-23 0 -48.5 -0.5t-61.5 -0.5l-6 -21q0 -1 11.5 -21t28 -46t35 -52t32.5 -38q0 -10 8 -11q0 -2 3 -2z" />
    <glyph glyph-name="FL0192h" unicode="&#x192;" horiz-adv-x="1278" 
d="M626 56q1 -5 4.5 -18.5t6.5 -17.5q2 -4 1.5 -10.5t4.5 -9.5l45 52l2 8q-2 11 -4 26.5t2 29.5q2 4 3.5 6t8.5 2q5 0 6 -6.5t1 -15.5t1.5 -17t6.5 -11q3 0 5 2l27 22l3 3v1l1 1l-18 33l1 3q1 7 12 7h3l34 -27l1 -1q4 0 9 3t10 5q2 1 14 3.5t15 4.5l1 2l-8.5 4t-12.5 6
l-15 5l-20 10l124 64l7 4q-5 6 -12 6h-1q-1 -1 -7.5 -4t-7.5 -4l-189 -91q-2 0 -4 -0.5l-2 -0.5h-4q-4 0 -7 4l-157 96h-2h-2l-13 -6l4 -4q23 -18 45.5 -32t49.5 -29l3 -3q-6 -5 -21.5 -9t-20.5 -6t-16 -6l-11 -4l-1 -2q4 -2 13 -4.5t12 -3.5q4 -2 7.5 -5t7.5 -3l1 1
q5 2 14.5 7t17.5 10q5 4 10 7t9 3h1h3l3 -2t3 -3v-2q-2 -5 -7.5 -9.5t-11.5 -8.5t-12 -8.5t-7 -9.5l1 -2q2 -3 7 -12t7 -11v-4l2 -1q1 0 1.5 0.5l0.5 0.5q3 2 9.5 10.5t14 17.5t13 16.5t7.5 7.5h1q0 -2 7 -2q-9 -18 -19 -35t-22 -33zM596 124q-3 0 -3 -3q-2 -2 1 -2t5 2
q0 3 -3 3zM532 237l150 -91h3q5 0 6.5 0.5t6.5 2.5q10 5 28.5 14t37 17t32.5 14.5t16 7.5q8 4 21.5 10.5t26 12.5t21.5 11t9 6l6 20q2 8 12.5 9t19.5 1h8q10 2 20 12.5t18.5 23.5t15 26t8.5 20v3l3 8l1 3q-15 5 -25 5q1 3 5 3.5t8 0.5h8q4 0 7 3q-5 8 -8 16t0 18q1 4 4 9
t7 11q0 -3 0.5 -8.5t2 -11t4 -10t6.5 -4.5h4q0 1 4 3t5 2h2q8 0 8 -7t-1.5 -15t-1 -14.5t10.5 -5.5l-1 -5l-3 -11l-1 -3q-9 -30 -30 -51t-53 -41l1 -1q6 0 13.5 3.5t14.5 7.5q33 17 48 42t23 53q2 6 1 9t-2.5 4.5t-3.5 3t-3 4.5q-1 10 0.5 21t-7.5 17q-2 2 -11 2q-6 0 -8 2
q-3 6 -3 20q0 15 1.5 31.5t4.5 32t5 23.5q6 20 16 40t16 40l4 13l4 13q-50 27 -109.5 40.5t-124.5 14t-132.5 -12t-132.5 -37.5q-5 -2 -9.5 -4t-6.5 -6q-8 -26 -11.5 -51t-11.5 -50q-6 -20 -13.5 -38t-13.5 -37l-6 -4l-16 -28q-2 -2 -4 -2h-2h-11h-1q-15 -5 -23 -19.5
t-13 -23.5q-11 3 -14 -7l-2 -4q0 -2 -1 -4.5t-2 -4.5l-1 -4q-11 -35 -2 -60.5t46 -40.5v2q-1 3 -5.5 7.5l-9.5 9.5t-9.5 10t-6.5 11q-7 14 -7 27t5 30l2 7q1 4 4.5 7.5t11.5 3.5q2 5 9 18t9 17q5 7 4.5 5.5t6.5 -1.5q5 0 5 -2t3 -2q4 0 9.5 4t10 9.5t8 10.5t4.5 7h1
q3 0 3.5 -2.5t0 -5.5t-2 -5.5l-1.5 -2.5q-3 -11 -11.5 -18.5t-10.5 -16.5l-1 -2q3 0 10 -1t9 -2l2 -2q-5 0 -15 -1.5t-12 -8.5q-3 -9 -5.5 -22t-2.5 -26t3 -24.5t12 -18.5q23 2 32.5 -4t0.5 -26zM381 183q-5 -16 -18 -23.5t-15 -11.5q19 0 30.5 12.5t15.5 25.5l2 6
q2 14 1.5 31.5t-0.5 28.5v10q-7 23 -8.5 43.5t6.5 46.5l5 17q4 13 10 25.5t17 23.5l-1 -4q-5 -16 -13 -31t-13 -32q-6 -19 -6.5 -39.5t6 -38t21.5 -28.5t42 -11h2q3 0 4.5 0.5t4.5 0.5h2q-4 0 -4 2q-1 0 -5.5 1t-9.5 2.5t-9 2.5t-4 2q-34 14 -40.5 44t3.5 62q5 17 12.5 34.5
t22.5 32.5q7 2 16.5 4.5t18 6t15 8.5t8.5 12l2 7q-4 -6 -12 -11.5t-17 -9.5t-18 -6t-16 -2q-14 0 -25.5 5t-7.5 17q2 7 7.5 13.5t15.5 6.5q5 0 11 -4t4 -9l-1 -2q0 -1 -2.5 -4.5l-2.5 -3.5q0 -2 2 -2q4 1 9.5 8.5t10.5 17t9 18t5 11.5l1 3l4 14l2 6q3 11 4.5 21t5.5 21l1 3
q6 -11 1 -26l-9 -27q-11 -38 -35 -70q1 0 4 -0.5t4 -0.5q16 0 28.5 8.5t22 20.5t15.5 25.5t9 22.5t4 21t-0.5 23t-7 20.5t-16.5 13.5h-3q-6 0 -15 -6t-9 -12q-7 2 -4 9q1 7 21 14q-1 3 -5 4t-9 1.5t-9 1t-5 0.5q3 5 9 5h13q8 0 14 -4t14 -4h3q-6 26 -27 44.5t-56 18.5
q-12 0 -27.5 -5t-18.5 -16l-1 -4q0 -2 1 -2q11 10 23 10t14 -5.5t0 -13.5q-3 -9 -12.5 -14.5t-19.5 -5.5q-17 0 -28 10.5t-7 24.5q6 22 28.5 32.5t48.5 14.5l1 4q-23 32 -33 72t2 82q4 14 11.5 27t11.5 26l1 3q-19 -18 -29.5 -38t-15.5 -40q-4 -13 -6 -24.5t-5 -24.5l-2 -7
q-4 22 -1.5 45.5t9.5 46.5q4 14 7 23t13 26h-1q-4 0 -9.5 -6t-11 -13.5t-9 -15t-4.5 -10.5l-1 -4q-2 -5 -3.5 -8.5t-3.5 -8.5l-2 -8q-5 -19 -5.5 -36.5t-5.5 -37.5l-1 -3q-9 8 -12 23.5t-2.5 33t3.5 34t6 26.5q-8 0 -12 -8t-6 -16l-2 -8q-8 -26 -5.5 -51.5t9.5 -48.5l-1 -3
q-16 16 -20.5 38t-9.5 43l-2 3q-1 -2 -3.5 -5.5t-2.5 -4.5q-5 -15 -3 -28t6 -25t9 -23.5t7 -24.5h-2q-1 0 -8 6.5t-9 10.5q-4 4 -7 11.5t-6 14.5t-7 12.5t-8 5.5q-8 -26 -3.5 -46t19.5 -40l-1 -0.5t-2 -0.5v1q-1 1 -6.5 3.5t-6.5 4.5q-2 1 -9 5.5t-9 5.5h-5
q-3 -11 3.5 -18.5t4.5 -17.5q-3 0 -7 0.5t-6 0.5q-1 0 -2 -0.5l-1 -0.5q-1 -3 3 -8.5t9.5 -11t11 -10t7.5 -6.5l-4 -4h-30q0 -8 8 -12.5t17 -6.5l-1 -3q-3 -1 -11.5 -4.5t-9.5 -6.5l-1 -1l3 -2l23 -15l2 -3q-5 -2 -10.5 -3.5t-9.5 -3.5l4 -6l35 -15l-28 -4l-2 -4l6 -2t11 -3
l25 -5q-8 -2 -19.5 -6t-17.5 -9v-1q-1 -3 1.5 -4.5t6 -2.5t7 -1.5t4.5 -0.5q3 -1 11.5 -1.5t11.5 -0.5q-5 -2 -16.5 -6t-17.5 -9l-1 -2v-1q0 -4 4 -4h54q-13 -7 -25.5 -14t-16.5 -19q12 0 28 4.5t27 7.5h1h3l-42 -28q-1 -1 -4 -3.5t-4 -3.5l-0.5 -0.5t-0.5 -1.5v-1h1
q-1 -1 2.5 -2t4.5 -1q4 1 14.5 3.5t15.5 4.5h1h3q-8 -4 -17.5 -11.5t-11.5 -12.5v-2q-1 -1 3 -1h2q8 1 16 5t15 4h2q-10 -8 -18 -16t-11 -19q10 0 20.5 4t19.5 8q-1 -2 -5.5 -7.5t-9.5 -10.5q-2 -3 -2.5 -4t-2.5 -4q-2 -2 -2 -3v-1q-2 -3 5 -3q6 0 14.5 5t16.5 8
q-6 -7 -8.5 -13.5t-4.5 -14.5h8q6 6 12.5 11t14.5 10l-3 -10q-8 -25 -17 -46t-14 -50q-6 -13 -20 -13q-5 0 -6.5 0.5t-3.5 5.5q-1 1 0.5 1.5l1.5 0.5h11l2 8h-6q-6 0 -11 -1t-7 -7q-4 -16 18 -16q8 0 14.5 4.5t12.5 4.5q7 0 9.5 -3.5t2.5 -8.5q0 -4 -1.5 -9.5t-2.5 -8.5
q-3 -11 -10.5 -21t-24.5 -10q-8 0 -14 2.5t-4 10.5t9.5 13t14.5 5q8 0 5 -6q0 -2 -2 -5t-3 -6q5 0 9.5 3.5t5.5 7.5q3 8 -2.5 10.5t-12.5 2.5q-14 0 -21.5 -7.5t-10.5 -18.5q-4 -11 6 -15t21 -4q17 0 28 10.5t15 22.5q4 13 3 25.5t-3 24.5t-4 24.5t0 25.5h5q-3 -17 -0.5 -33
t6.5 -32.5t5.5 -33t-3.5 -33.5zM991 185q-4 -12 -1 -24t21 -12h4q-8 8 -13 14.5t-2 18.5q5 18 17 35.5t25.5 35t26 34.5t19.5 35l-2 -9q-4 -13 -12 -25t-16.5 -24t-16.5 -24t-11 -25q-5 -14 1 -23.5t23 -9.5q12 0 23 4t15 15q2 10 -1 18t-17 8q-6 0 -13 -2.5t-10 -10.5
q-2 -5 -0.5 -7t7.5 -4l4 14q1 0 5.5 1.5t7.5 1.5q2 -2 6 -6.5t4 -6.5v-5q-2 -7 -11 -10t-17 -3q-17 0 -18 11t3 22q2 5 7 16.5t15 11.5q8 0 12.5 -4.5t14.5 -4.5q8 0 16.5 5t9.5 14q-2 2 -3 3.5t-6 1.5h-4h-6q-2 0 -5 -3q-2 -1 -2 -2l-1 -1v-2h12l1 -1.5t-1 -3.5q0 -3 -6 -3
h-6q-7 0 -8.5 1.5t-3.5 6.5l3 13l6 18l5 20l4 12q0 1 1 6t2 11t2 11.5t1 6.5l2 7l2 6l16 -21h9q2 8 1 14t1 12l1 2q5 -5 11 -9t16 -4q2 8 -0.5 14t-0.5 14q10 0 15 -3t15 -3q3 9 0 17.5t-8 14.5l1 2q2 -2 10 -5.5t15 -3.5t7 4q2 5 -4 13t-8 10h1q10 0 17 -3.5t17 -3.5l2 7
l-31 33h3q14 0 23 -5.5t20 -5.5q3 0 6 0.5t4 3.5l-1 1.5t0 2.5q-3 2 -11 12t-9 12h50q1 0 3.5 1.5t4.5 2.5v1q1 3 -3 5t-7 4q-2 1 -9 3.5t-9 4.5l43 5q3 0 5 5q1 4 -2 6t-7 3.5l-8 3t-5 4.5l25 5q1 1 8.5 2.5t8.5 4.5l1 2l-26 4q12 5 24.5 8.5t25.5 8.5l1 4q1 3 -5 4t-8 3
q8 5 21 9.5t15 12.5q2 5 -4 7t-11 3q3 3 8.5 4.5t11.5 4t11 5.5t6 8h-35q14 11 29.5 18.5t29.5 21.5q-2 2 -10 2.5t-11 1.5q12 7 20 14t11 18h-4l-41 -19q-5 -3 -8 -3q19 17 39 36.5t26 41.5l2 6q1 4 -3 4h-2q-17 -17 -35.5 -34.5t-42.5 -28.5l-1 1q0 1 1 1.5l1 0.5l13 10
q19 20 37.5 42t25.5 46l3 10l-2 3l-3 -3t-2 -3l-14 -22q-15 -18 -29 -32.5t-34 -25.5v2q22 26 39 50.5t25 53.5l1 4l4 13l-3 13h-3q-3 -11 -10 -28t-17 -35t-21.5 -33.5t-24.5 -22.5l1 3q5 20 17 40.5t18 41.5q5 16 6 34.5t-9 32.5l-23 -82q-10 -34 -38 -64v2l1 2
q7 17 13.5 29.5t11.5 29.5v1q1 6 3.5 17t2.5 12q0 2 -0.5 8.5t-0.5 13.5q0 8 -1 14t-3 7l-2 -4q-3 -11 -5 -22t-5 -22q-14 -47 -45.5 -84t-72.5 -75v-2l20 -6t17 -7.5t10 -12t0 -19.5q-5 -14 -18.5 -25t-31.5 -11q-14 0 -21 6t-4 17q2 6 10 10.5t16 4.5t9.5 -5.5t9.5 -5.5
q5 15 -7 21.5t-29 6.5q-32 0 -58.5 -17t-49.5 -38q-4 -4 -4.5 -5l-1.5 -3l-1 -2q19 10 36 10h11q10 0 8 -5q-2 0 -14 -1.5t-17 -3.5v-2q2 -2 8 -5t5 -6q-1 -1 -2.5 -3t-3.5 -4q-8 -9 -13 -16.5t-8.5 -14.5t-6.5 -15t-6 -20l-2 -8q-2 -5 -2.5 -9.5t-2.5 -9.5l-1 -3
q-1 -3 -1.5 -11t-0.5 -16q0 -7 1.5 -13t5.5 -6l5 19q2 3 6 3.5t8 0.5h2q20 0 15 -17q-4 -12 -18 -17t-28 -5q-17 0 -28.5 8t-19.5 19l-1 -5q-3 -10 1.5 -14.5t12 -6.5l15 -4t11.5 -6q8 -14 6 -32.5t-7 -34.5q-11 -35 -37.5 -65t-70.5 -44q-6 -2 -16 -2.5t-12 -4.5
q1 0 5 -0.5t7 -0.5q27 0 48.5 11.5t38 28.5t28 38t16.5 39q5 16 4.5 30.5t4.5 28.5q0 1 1 3t1 3q4 -14 1.5 -31.5t-7.5 -33.5q-6 -22 -19.5 -42.5t-27.5 -40.5t-27.5 -40.5t-19.5 -42.5zM457 344q-10 -32 -2 -62t38 -47q5 1 14 7q-3 5 -10.5 7t-9.5 8q-14 25 -17 48.5
t5 55.5q-4 -2 -9.5 -5.5t-5.5 -4.5l-1 -2.5t-2 -4.5zM908 242q3 -6 11 -6q6 0 8.5 2t8.5 7q31 20 52 43t29 52q2 5 2 11q0 7 -6 7q-8 -18 -15.5 -31t-16.5 -24.5t-20 -22.5l-25 -25q-5 -6 -13.5 -7t-14.5 -6zM946 247q-2 0 -4 -2q0 -3 2 -3q4 0 4 3q2 2 -2 2zM370 322
q3 0 3 -1t-2.5 -1.5t-1.5 1.5v1h1zM1157 395q4 0 4 -2q-2 -2 -5 -2h-1l1 2q0 1 0.5 1.5zM1088 420q3 0 3 -2t-4 -2v2t1 2zM1046 522q-3 -12 -5 -26t1 -25.5t12 -19.5t27 -8l1 3l-2 8q-1 4 0 16t1 14q-1 8 0 13.5t3 11.5l3 10q6 20 15 33.5t26 32.5l1 4h-2l-12 6h-1h-1
q-14 -12 -24 -23t-17 -22.5t-12.5 -23.5t-11.5 -27l1 3l3 11l1 4q14 45 56 81h-2q-1 -2 -5 -3.5t-6 -2.5q-23 -14 -34 -32t-16 -38zM497 459q-4 0 -4 -3q-2 -2 2 -2l2 2q1 2 0.5 2.5zM477 469l2.5 -1.5t3.5 -1.5l-1 -2q-1 -2 -4.5 -3t-7.5 -1h-3q1 3 3 6t7 3zM1070 469
q3 0 2.5 -3.5l-0.5 -3.5h-12q2 7 10 7zM1209 473q1 0 0 -1q0 -3 -2 -3q-3 0 -3 3q1 1 5 1zM487 489h2q7 0 5 -5q-1 -2 -4 -2.5t-5 -0.5zM506 484v-2q0 -1 -2 -1q-1 0 -1 1q0 2 3 2zM1068 489q3 0 4 -3t0 -5h-11q1 2 2 5t5 3zM1053 497l-2 -6l-1 -4q-6 -3 -3 4q1 6 6 6z
M522 562l1 2q6 -11 3 -23l-7 -24l-1 -5l-4 -15l-2 -6q2 6 4.5 22t3.5 22q2 6 1 13t1 14zM494 509q4 0 7.5 -0.5t2.5 -3.5v-1q-4 -2 -5 -2l-0.5 -0.5t-1.5 -0.5q-4 0 -4 3t1 5zM1065 509h3q9 0 7 -2q0 -1 -2.5 -3l-2.5 -2v-1h-1q-4 0 -4.5 3t0.5 5zM499 527q2 4 6 4.5t7 0.5
l-2.5 -5t-6.5 -3q-3 0 -3 3h-1zM1068 527q2 4 6 4.5t5 0.5l-2.5 -5t-3.5 -3h-3q-1 0 -1 3h-1zM1079 553l2.5 1.5t4.5 2.5q4 1 4.5 -1t0.5 -3q-2 -3 -3.5 -5.5t-4.5 -0.5q-1 0 -3 2t-1 4zM506 554h8l-2 -5h-8zM514 585q0 1 2 3q3 -4 5.5 -8.5t0.5 -9.5v-3q-3 2 -5 8.5t-2 9.5
h-1zM489 572l1 -1q-1 -1 -2.5 -1.5t-0.5 1.5l0.5 0.5t1.5 0.5zM498 573l1 1h1q0 1 3 3t4 3q2 -2 1 -4l-1 -5l-1 -2q-2 0 -5.5 0.5t-2.5 3.5zM1097 574q1 6 7 6q3 0 3 -2v-4q-2 -5 -8 -5q-4 0 -2 5zM401 589q2 8 9.5 14.5t17.5 6.5h3q-4 -2 -11 -6.5t-9 -5.5l-2 -7
q-4 -14 17 -19q-2 0 -4 -0.5t-5 -0.5q-21 0 -16 18zM1208 589q3 14 -12 21h1q11 0 15 -6.5t2 -14.5q-5 -18 -28 -18h-3q-4 0 -5 1q7 2 17.5 5.5t12.5 11.5zM488 578l-1 -1q1 0 1 -2q0 -1 -1 -1q-2 0 -2 1q0 3 3 3zM513 592l1.5 -0.5t0.5 -2.5q0 -1 -2 -1h-1q-2 0 -2 1
q0 3 3 3zM512 595v-3l-2 -3q-4 0 -2 3q0 3 4 3zM508 598q3 0 3 -3q-2 -3 -4 -3q-3 0 -1 3q0 3 2 3zM540 641q-6 -19 7 -31l9 30l9 3.5t21.5 8t26 9l22.5 7.5q36 12 74 18.5t77 11.5q7 1 14.5 1.5t13.5 0.5h29q69 0 130 -15.5t115 -41.5q0 -1 1 -2l1 -1l-8 -27q10 1 16 11
t8 16v10q-4 8 -17 13.5t-24 9.5q-51 20 -103 31t-114 11q-59 0 -115.5 -8.5t-116.5 -27.5q-6 -3 -17 -7t-21 -7.5t-17.5 -6.5l-7.5 -3l-8 -5q-1 0 -2.5 -3.5t-2.5 -5.5zM438 615q2 0 2 -2q-2 -3 -3 -3q-4 0 -2 3q0 2 3 2zM1190 615q4 0 4 -2q-2 -3 -5 -3t-1 3q0 2 2 2z
M455 632q3 11 12 11q13 0 10 -9q-1 -3 -4 -8t-8 -3q-8 1 -10 2.5t0 6.5zM510 625h1q2 0 2 -2q-1 -2 -2.5 -2.5l-1.5 -0.5q-3 0 -1 3q0 2 2 2zM1212 665h5q-27 -4 -47.5 -15t-42.5 -27h-4q17 14 41 28t48 14zM500 634q1 0 1 1q1 -1 3 -4t5 -3l-1 -3q-3 0 -5 3t-2 5zM1162 634
q1 4 6 6.5t8 2.5q12 0 9 -11q-1 -7 -14 -7q-3 0 -7 2t-2 7zM501 640v-2l-2 -3q-5 0 -3 3q0 2 5 2zM267 643q2 0 2 -3q-2 -2 -3 -2q-4 0 -2 2q0 3 3 3zM456 663h4q12 0 22.5 -7.5t14.5 -15.5q-1 0 -2 -1h-1v1q-2 1 -7 5.5t-6 4.5q-3 2 -12.5 6.5t-12.5 6.5zM453 665
q-1 -1 -6 -1q-4 0 -3 1q-1 1 4 1t5 -1zM314 721q2 0 2 -3q-2 -3 -4 -3q-4 0 -2 3q0 3 4 3zM333 746q3 0 2 -3q0 -2 -4 -2q-2 0 -2 2q1 3 4 3zM356 766v-3l-2 -2q-5 0 -3 2q0 3 5 3zM387 769v-3l-2 -3q-5 0 -3 3q0 3 5 3zM384 773l-1 -2v-2q-2 0 -2 2t3 2zM1398 925
q-3 0 -4 -3q0 -2 3 -2q1 0 1 2q1 3 0 3z" />
    <glyph glyph-name="FL02C6h" unicode="&#x2c6;" horiz-adv-x="584" 
d="M432 810q-10 0 -13 -6t-5 -11q-20 -13 -53 -38.5t-64.5 -52t-55 -46t-23.5 -20.5l-6 -21q36 0 61.5 -0.5t48.5 -0.5q11 0 17.5 -0.5t12.5 -0.5h14h8q8 0 13 1q4 4 16.5 16t28.5 26t33 27.5t29 21.5q6 -8 14.5 -21t17 -26.5t15 -25t8.5 -15.5q5 -1 12 -1h10h14
q6 0 12.5 0.5t17.5 0.5q23 0 48.5 0.5t61.5 0.5l6 21q0 1 -11.5 21t-28 46t-35 52t-32.5 38q2 9 -8 11q0 2 -2 2z" />
    <glyph glyph-name="FL02DCh" unicode="&#x2dc;" horiz-adv-x="647" 
d="M223 653l-1 -4q4 -4 17 -7t16 -3q4 1 15.5 11.5t24 23.5t23.5 24.5t14 14.5h418q2 1 7.5 6.5l9.5 9.5q18 22 32.5 37t25.5 29t19 29.5t15 39.5q3 11 -6 15t-20 4h-6l-59 -60q-5 -2 -15.5 -6t-11.5 -4h-406q-1 -1 -7 -8.5t-11 -12.5q-10 -15 -24 -32.5t-28 -35.5
t-25.5 -36t-16.5 -35z" />
    <glyph glyph-name="FL2013h" unicode="&#x2013;" horiz-adv-x="647" 
d="M113 269q5 17 19 41.5t31 50t34 49t27 38.5q5 5 11 12.5t7 7.5l406 1q1 0 11.5 4t15.5 6l42 20h6q11 0 20 -4t6 -15q-14 -48 -44 -88.5t-67 -85.5q-5 -4 -10.5 -9.5t-6.5 -5.5l-418 -1q-3 -3 -11 -8.5t-17 -11t-17.5 -10t-12.5 -5.5q-3 0 -16 3t-17 7z" />
    <glyph glyph-name="FL2014h" unicode="&#x2014;" horiz-adv-x="767" 
d="M113 269l-1 -4q4 -4 17 -7t16 -3q4 1 12.5 5.5t17.5 10t17 11t11 8.5l539 2q1 0 6.5 5.5l9.5 9.5q37 45 67 85.5t44 88.5q3 11 -6 15t-20 4h-6l-41 -20q-5 -2 -15.5 -6t-11.5 -4l-527 -2q-1 0 -7 -7.5t-11 -12.5q-10 -15 -27 -38.5t-34 -49t-31 -50t-19 -41.5z" />
    <glyph glyph-name="FL2018h" unicode="&#x2018;" horiz-adv-x="284" 
d="M467 810q10 0 10 -8q0 -7 -2 -12l-10 -32q-4 -13 -13 -41t-20.5 -58.5t-23 -56.5t-20.5 -36q-29 -2 -46 -6.5t-39 -4.5q-11 0 -21.5 0.5t-21.5 1.5t-24.5 1.5t-31.5 0.5l6 21l5 16q2 9 6.5 28.5t10 43.5t11.5 49t11 45q9 29 17 37q2 2 7 6t8 4z" />
    <glyph glyph-name="FL2019h" unicode="&#x2019;" horiz-adv-x="284" 
d="M467 810q10 0 10 -8q0 -7 -2 -12l-10 -32q-4 -13 -13 -41t-20.5 -58.5t-23 -56.5t-20.5 -36q-29 -2 -46 -6.5t-39 -4.5q-11 0 -21.5 0.5t-21.5 1.5t-24.5 1.5t-31.5 0.5l6 21l5 16q2 9 6.5 28.5t10 43.5t11.5 49t11 45q9 29 17 37q2 2 7 6t8 4z" />
    <glyph glyph-name="FL201Bh" unicode="&#x201a;" horiz-adv-x="301" 
d="M315 160l-181 -1q-3 0 -8 -4t-7 -6q-7 -8 -25 -29t-40.5 -49t-46.5 -58t-44 -55.5t-33 -42.5l-13 -17l-6 -21q36 0 61 -0.5t48 -0.5t45 0.5t51 2.5q8 8 25.5 28.5t39.5 46.5t46 55t44 55t34 46.5t17 29.5q2 5 2.5 12.5t-9.5 7.5z" />
    <glyph glyph-name="FL201Ch" unicode="&#x201c;" horiz-adv-x="552" 
d="M467 810q10 0 10 -8q0 -7 -2 -12l-10 -32q-4 -13 -13 -41t-20.5 -58.5t-23 -56.5t-20.5 -36q-29 -2 -46 -6.5t-39 -4.5q-11 0 -21.5 0.5t-21.5 1.5t-24.5 1.5t-31.5 0.5l6 21l5 16q2 9 6.5 28.5t10 43.5t11.5 49t11 45q9 29 17 37q2 2 7 6t8 4zM735 809q10 0 9.5 -7.5
t-2.5 -12.5l-9 -32q-4 -13 -13.5 -41t-21 -58.5t-23 -56.5t-20.5 -36q-14 -1 -25 -3t-20 -3.5t-18.5 -3t-20.5 -1.5t-21.5 0.5t-21.5 1.5t-24.5 1.5t-31.5 0.5l6 21l5 16q2 9 6.5 28.5t9.5 43.5t11 49t12 45q10 31 17 37q2 2 7 6t8 4z" />
    <glyph glyph-name="FL201Dh" unicode="&#x201d;" horiz-adv-x="552" 
d="M467 810q10 0 10 -8q0 -7 -2 -12l-10 -32q-4 -13 -13 -41t-20.5 -58.5t-23 -56.5t-20.5 -36q-29 -2 -46 -6.5t-39 -4.5q-11 0 -21.5 0.5t-21.5 1.5t-24.5 1.5t-31.5 0.5l6 21l5 16q2 9 6.5 28.5t10 43.5t11.5 49t11 45q9 29 17 37q2 2 7 6t8 4zM735 809q10 0 9.5 -7.5
t-2.5 -12.5l-9 -32q-4 -13 -13.5 -41t-21 -58.5t-23 -56.5t-20.5 -36q-14 -1 -25 -3t-20 -3.5t-18.5 -3t-20.5 -1.5t-21.5 0.5t-21.5 1.5t-24.5 1.5t-31.5 0.5l6 21l5 16q2 9 6.5 28.5t9.5 43.5t11 49t12 45q10 31 17 37q2 2 7 6t8 4z" />
    <glyph glyph-name="FL201Ah" unicode="&#x201e;" horiz-adv-x="602" 
d="M616 160q10 0 9.5 -7.5t-2.5 -12.5q-3 -9 -17 -29.5t-34 -46.5t-44 -55t-46 -55t-39.5 -46.5t-25.5 -28.5q-29 -2 -50.5 -2.5t-44.5 -0.5t-48.5 0.5t-61.5 0.5l6 21l13 17t33 42.5t44.5 55.5t47 58t40 49t24.5 29q2 2 7 6t8 4zM332 159q10 0 9.5 -7.5t-2.5 -12.5
q-3 -9 -17 -29.5t-34.5 -46.5t-44 -55t-46 -55t-39.5 -46.5t-25 -28.5q-29 -2 -51 -2.5t-45 -0.5t-48.5 0.5t-61.5 0.5l6 21l13 17t33.5 42.5t44.5 55.5t46 58t39.5 49.5t24.5 28.5q2 2 7.5 6t7.5 4z" />
    </font>
</defs>
</svg>
