<?xml version="1.0" standalone="no"?>
<!DOCTYPE svg PUBLIC "-//W3C//DTD SVG 1.1//EN" "http://www.w3.org/Graphics/SVG/1.1/DTD/svg11.dtd" >
<svg xmlns="http://www.w3.org/2000/svg" xmlns:xlink="http://www.w3.org/1999/xlink" version="1.1">
<metadata>
Created by FontForge 20170731 at Fri Mar 18 23:05:57 2016
 By Aleksey,,,
SIL Open Font License (OFL)
</metadata>
<defs>
<font id="Digory_Doodles_PS" horiz-adv-x="1024" >
  <font-face 
    font-family="Digory Doodles"
    font-weight="400"
    font-stretch="normal"
    units-per-em="1024"
    panose-1="0 0 0 0 0 0 0 0 0 0"
    ascent="819"
    descent="-205"
    x-height="605"
    cap-height="1433"
    bbox="-67122 -24129 2101 1626"
    underline-thickness="1"
    underline-position="-2"
    unicode-range="U+000D-201D"
  />
<missing-glyph horiz-adv-x="543" 
d="M51 102h307v1311h-307v-328v-983zM0 1464h410v-1413h-410v708v705z" />
    <glyph glyph-name=".notdef" horiz-adv-x="543" 
d="M51 102h307v1311h-307v-328v-983zM0 1464h410v-1413h-410v708v705z" />
    <glyph glyph-name=".null" horiz-adv-x="0" 
 />
    <glyph glyph-name=".null" horiz-adv-x="0" 
 />
    <glyph glyph-name="nonmarkingreturn" unicode="&#xd;" horiz-adv-x="0" 
 />
    <glyph glyph-name="space" unicode=" " horiz-adv-x="820" 
 />
    <glyph glyph-name="exclam" unicode="!" horiz-adv-x="491" 
d="M324 1388q-37 -132 -57 -268q-21 -136 -29 -273q-2 -34 -3 -69q0 -35 -4 -69q-3 -32 -4 -68q-2 -36 -10 -68q-3 -16 -8 -32q-4 -16 -7 -32q-3 -14 -4 -30q0 -16 -7 -29q-9 -17 -7 -5q3 12 3 -12q1 -7 1 -14v-14q0 -18 -19 -24q-5 -2 -9 -2q-12 1 -18 13q-10 18 -28 32
q-19 14 -9 41q8 23 2 53q-7 30 -15 53q-7 18 -6 42q1 23 -1 42q-1 18 -2 35v19v15q1 34 3 69q2 34 4 69q9 142 30 283t61 278q5 18 16 30q10 11 24 17q14 7 30 7q11 0 23 -3q27 -7 42 -29q8 -11 10 -25q1 -5 1 -11q0 -10 -3 -21zM202 139q13 7 7 4q-5 -3 -9 -7q-3 -3 -7 -9
t5 8q-10 -13 -11 -15q-1 -1 6 8q0 -1 -1 -1q0 -1 -1 -2l-2 -4l-2 -4q-4 -8 -1 2q3 9 0 -5l-2 -6q0 -3 -1 -6q1 9 1 10q1 2 0 -4q1 -8 -2 2q-2 11 3 -1q-4 9 -5 11t2 -3q-2 3 -4 5q-2 3 -4 5q-4 5 -9 7q-5 3 -11 4q14 -3 4 -2q-9 1 1 1q-16 -13 -33 -26l-32 -26q1 14 8 25
q6 11 15 22q22 26 61 17q39 -10 45 -44q2 -9 3 -17q2 -9 3 -18q1 -21 -14 -42t-36 -25q-16 -3 -31 -3q-13 0 -27 2q-29 5 -49 28q-20 22 -26 50q-3 14 -3 28t3 28q9 43 42 82q31 36 76 36h5q32 -2 49 -26q14 -19 14 -39q0 -6 -1 -11q-2 -12 -9 -22q-8 -10 -20 -17z" />
    <glyph glyph-name="quotedbl" unicode="&#x22;" horiz-adv-x="389" 
d="M134 1413q7 -38 9 -72v-31q0 -20 -1 -41q-2 -35 -6 -73q-3 -38 -11 -72q-5 -18 -23 -19h-1q-17 0 -23 17q-13 34 -19 73q-6 38 -16 74q-8 31 -12 61q-4 31 -8 63q-1 4 -1 7q0 6 1 10q2 9 7 15q17 26 54 26h3q40 -1 47 -38zM236 1497q14 10 30 10h8q20 -3 36 -16
q57 -41 61 -109q1 -12 1 -24q0 -56 -16 -112q-10 -38 -24 -72q-13 -34 -26 -61q-6 -13 -19 -13q-4 0 -8 1q-19 4 -19 22q-2 48 3 96q5 49 -7 96q-4 16 -7 39q-4 22 -14 37q-12 18 -21 32q-6 10 -6 25q0 6 2 14q1 12 9 20q7 9 17 15z" />
    <glyph glyph-name="numbersign" unicode="#" horiz-adv-x="1086" 
d="M386 1380q-11 -60 5 -120q17 -60 20 -120q3 -42 3 -85q0 -29 -1 -59q-3 -72 -7 -144q-3 -72 -8 -144q-4 -73 -12 -145q-7 -70 -35 -136t-48 -134q-6 -20 -27 -20h-4q-24 2 -24 26q0 76 -14 150q-9 50 -9 101q0 24 2 48q6 73 11 145q5 73 8 145q6 129 17 257
q11 129 58 251q9 25 32 24q4 0 10 -1q30 -6 23 -39zM856 1420q-1 -16 4 -32q5 -17 4 -33l-2 -36t-1 -36q1 -33 5 -66q3 -26 3 -51v-16q-3 -68 -12 -136t-19 -136q-11 -72 -23 -145q-12 -72 -17 -146q-2 -31 -8 -62q-5 -32 -14 -62q-11 -33 -13 -67q-3 -34 -5 -68
q-1 -18 -19 -25q-5 -1 -9 -1q-12 0 -19 12q-24 44 -37 92t-17 98q-4 41 -4 83q0 52 6 106q11 97 23 184q10 76 21 154t28 154q8 36 17 73q8 36 16 73q6 29 18 52t23 50q6 14 20 14q4 0 9 -1q22 -6 22 -26zM22 1146q126 -13 250 -34q125 -20 252 -28q65 -4 131 -6
q65 -3 131 -3q33 0 65 1q33 1 66 1q34 1 65 -4q31 -4 64 -8q22 -3 28 -25q1 -4 1 -8q0 -16 -21 -22q-35 -9 -67 -18t-69 -10q-32 -2 -65 -2h-31h-34q-66 1 -132 4q-65 4 -131 11q-129 13 -258 33q-129 19 -251 65q-19 7 -19 30v1q0 22 21 22h4zM9 820q17 1 35 1q50 0 100 -9
q68 -13 134 -22t131 -18q66 -10 133 -12q70 -1 139 1t139 -8q56 -8 118 -4q62 3 115 -23q14 -7 14 -20q0 -4 -2 -9q-6 -19 -25 -21q-34 -4 -70 -2q-36 1 -71 -1q-34 -3 -67 -9t-67 -12q-63 -9 -129 -10h-11q-61 0 -119 5q-63 5 -123 19q-61 13 -120 38q-64 27 -128 43
q-63 16 -131 30q-16 4 -16 18v5q3 19 21 20z" />
    <glyph glyph-name="dollar" unicode="$" horiz-adv-x="840" 
d="M580 1161q-10 42 -40 83q-29 42 -80 38q-31 -3 -76 -14q-44 -11 -67 -35t-43 -53q-19 -28 -41 -57q-18 -23 -34 -50q-17 -27 -25 -55q-5 -16 -7 -29q-3 -13 -1 -28q0 -1 3 -9q4 -9 1 -6q19 -19 48 -27q30 -8 59 -13q16 -3 30 -7q13 -5 26 -16q14 -12 -2 -4q-15 9 9 4
l36 -6t37 -3q38 -1 76 -3q38 -3 75 -12q40 -9 74 -27q34 -17 65 -44q31 -26 61 -52q29 -26 47 -64q25 -51 25 -97v-6q-2 -48 -23 -89q-40 -78 -127 -131t-168 -81q-32 -11 -71 -19q-38 -7 -73 -7t-71 -4q-19 -2 -38 -2q-16 0 -33 1q-82 8 -143 48q-62 39 -94 117q-3 6 -3 11
q0 13 16 19q22 7 35 -10q37 -50 94 -73q57 -22 119 -17q48 4 86 29q39 24 82 43q58 26 121 49q63 24 108 67q17 17 26 33q10 16 8 42q0 15 -2 30q-2 14 -7 29q-4 16 -10 41q-6 26 -19 37q-64 57 -147 55t-161 -13q-21 -4 -39 -13t-42 -9q-21 0 -41 2q-21 2 -41 8
q-36 11 -69 28t-57 47q-34 41 -43 92q-9 50 1 103q6 34 20 67q13 34 32 65q35 58 84 102q50 45 103 64q60 21 117 33q18 4 36 4q40 0 83 -18q62 -27 95 -70q33 -44 41 -112q2 -18 -17 -20q-19 -3 -24 14zM428 1471q-2 -4 -4 -7l-4 -8q-4 -9 -15 -13q-12 -3 -20 3q-1 0 -2 1
t-2 1q10 11 20 21q10 11 20 21q24 -42 32 -83q9 -40 11 -88q2 -49 2 -99v-10q0 -44 -2 -88l-12 -198t-9 -198q-1 -50 -2 -99v-100q1 -21 3 -44q2 -22 -3 -43q-4 -19 -9 -38q-4 -19 -5 -38q-4 -82 1 -162t14 -161q1 -16 -16 -24q-7 -3 -12 -3q-10 0 -16 8q-29 34 -44 67
q-16 33 -25 77q-8 40 -14 81q-6 40 -10 81q-4 45 -14 88t-11 88v79v21q0 50 1 100q4 103 9 208q4 104 12 207q7 92 14 190q7 99 53 180q12 22 38 13q26 -10 18 -35q-1 -1 -1 -2q-1 -1 -1 -2q-8 7 -16 15q-9 8 -17 16q2 2 4 3t4 3q6 4 12 4q7 0 13 -7q11 -13 5 -26z" />
    <glyph glyph-name="percent" unicode="%" horiz-adv-x="1178" 
d="M221 1385q-2 1 -7 4q-4 3 -7 2q-7 -2 -5 -4q3 -1 5 9l-2 -8q-2 -4 -2 -8q4 20 2 14q-1 -6 0 -20q1 -9 -2 -19t-4 -19q0 -2 -2 -13q-1 -11 -1 0q-1 -13 0 -26v-26v-17t1 -17q-1 15 0 3q2 -11 3 -14q1 -6 3 -12t4 -11q-6 15 -1 5q5 -9 7 -12q-12 16 -1 6q12 -10 -5 0
q14 -8 6 -5q-7 3 2 1q19 -4 25 -5q5 -2 24 0q34 2 71 23q37 20 55 53q10 17 13 37q2 20 -6 42q-7 18 -21 30t-31 20q-5 3 -15 8q-11 5 -7 0q6 -8 17 -13q10 -5 19 -8q43 -13 88 -20t89 -14q62 -10 128 -8q67 2 119 43q16 13 32 -1q7 -7 7 -14q0 -8 -8 -15q-35 -32 -79 -49
q-43 -16 -91 -17q-44 -1 -87 4q-44 6 -87 14q-28 6 -57 9t-57 10q-24 7 -53 21t-36 42q-5 21 1 44t30 30q11 3 23 3q7 0 13 -1q19 -2 37 -10q34 -15 61 -45q27 -29 34 -60q20 -87 -23 -160t-117 -116q-54 -31 -116 -35h-10q-56 0 -101 44q-37 36 -51 85q-11 37 -11 74
q0 13 1 25q3 27 12 54t22 51q5 10 12 19q7 10 15 18q5 5 10 9t11 7q-10 -5 8 3q17 8 6 2q26 14 58 14t56 -23q14 -13 2 -31q-12 -17 -29 -6zM888 1433q-15 -19 -16 -56q-1 -36 -3 -59q-1 -36 -7 -73q-5 -38 -17 -72q-32 -88 -65 -175q-33 -86 -69 -172q-68 -160 -145 -316
q-77 -155 -143 -316q-7 -18 -28 -29q-19 -12 -36 -11h-3q-6 0 -13 1q-7 0 -13 1q-33 6 -47 35q-11 22 -11 44q0 7 1 14q7 43 41 60q34 18 72 15q-6 -3 -12 -5q-7 -3 -13 -6q61 60 136 107t151 86q73 36 148 63q75 26 151 55q25 10 37 -18q12 -29 -12 -41q-35 -17 -43 -41
q-9 -24 -12 -59q-1 -22 -1 -47q1 -25 14 -44q21 -29 54 -17t65 18q20 4 37 16t30 30q23 33 31 76q7 44 -9 78q-7 17 -22 30q-14 13 -36 19q-23 6 -18 28q6 23 29 19q40 -7 66 -26q26 -20 40 -49q14 -30 16 -67q1 -7 1 -15q-1 -30 -7 -61q-14 -72 -55 -137t-91 -89
q-29 -13 -60 -18t-61 -2q-55 6 -101 41q-45 34 -63 94q-17 61 0 123t60 105q23 22 53 37t66 18q0 -16 1 -32v-32q-74 -4 -151 -40q-78 -35 -142 -70q-70 -37 -134 -82q-65 -44 -117 -105q2 8 5 17q2 9 4 17q8 -28 7 -49q-2 -20 -13 -47q1 14 3 28q1 14 3 29v-4q1 -1 1 -3
q-24 13 -47 27l-48 26q7 1 13 2q7 1 13 2q-18 -15 -37 -30q-18 -15 -37 -29q18 87 62 171q43 84 82 163q43 88 83 177q41 88 78 178t70 181q32 92 76 179q15 30 33 59q18 28 34 58q11 21 24 39q14 18 38 26q6 2 11 3q14 0 21 -15q9 -20 -3 -36z" />
    <glyph glyph-name="ampersand" unicode="&#x26;" horiz-adv-x="1209" 
d="M1207 314q2 -15 2 -31t-5 -31q-19 -58 -71 -95q-52 -38 -113 -44q-58 -5 -104 24q-45 30 -86 68q-109 104 -194 232q-86 129 -158 260q-56 103 -112 211q-55 109 -83 224q-17 68 20 124t99 81q46 19 92 19q25 0 49 -5q70 -16 125 -68q60 -58 76 -128q15 -70 -19 -147
q-31 -68 -84 -124q-53 -55 -111 -102q-53 -43 -104 -80q-51 -38 -98 -81q-58 -52 -106 -111q-49 -58 -92 -123q-20 -31 -28 -61q-8 -31 7 -67q11 -28 34 -51q22 -23 49 -37q58 -31 125 -32q68 -1 130 15q47 13 95 34q47 20 90 48q81 53 139 129q57 77 68 173q3 23 29 20
q27 -3 24 -25q-11 -130 -96 -229q-84 -100 -192 -162q-65 -38 -144 -64q-77 -25 -154 -25h-4q-43 0 -84 10t-79 31q-81 45 -117 124q-31 67 -31 140q0 12 1 24q3 46 18 91q16 45 43 84q76 110 178 189q101 79 201 164q45 39 97 90q52 52 62 113q3 17 -1 36q-5 19 -14 37
q-18 34 -50 56q-33 23 -70 15q-63 -12 -84 -55t-5 -101q17 -57 39 -113q22 -55 47 -109q65 -141 146 -279q82 -138 181 -259q36 -43 82 -95t101 -74q44 -18 91 -1q47 16 78 52q16 19 25 42q9 24 8 48q-1 21 19 21q20 -1 23 -20z" />
    <glyph glyph-name="quotesingle" unicode="'" horiz-adv-x="287" 
d="M210 1410q-20 -16 -28 -52q-7 -37 -9 -62q-3 -42 0 -84q4 -42 3 -84q0 -18 -19 -23q-4 -1 -8 -1q-13 0 -19 13q-27 55 -51 130q-18 54 -18 105q0 19 2 37q5 36 23 67q19 31 55 52q15 9 29 9q19 0 36 -16q25 -22 25 -48q0 -7 -1 -13q-2 -8 -7 -16q-5 -7 -13 -14z" />
    <glyph glyph-name="parenleft" unicode="(" horiz-adv-x="656" 
d="M614 1311q-50 -39 -91 -89t-71 -105q-29 -52 -48 -108q-19 -57 -39 -112q-35 -92 -70 -183q-34 -91 -52 -189q-16 -88 -21 -182q-4 -93 14 -182q9 -40 22 -79t36 -74q22 -34 59 -61q36 -26 46 -68q7 -27 -6 -51q-13 -25 -41 -33q-15 -4 -30 -4q-23 0 -45 11
q-36 18 -65 48q-15 16 -29 33q-13 17 -24 33q-28 43 -47 91q-20 49 -30 99q-21 100 -21 204v13q1 110 20 218q8 49 20 97t29 95q23 63 47 126q25 64 63 120q70 104 158 202q87 98 195 165q7 4 12 4q9 0 15 -10q3 -7 3 -12q0 -10 -9 -17z" />
    <glyph glyph-name="parenright" unicode=")" horiz-adv-x="451" 
d="M76 1410q84 -65 138 -162q53 -97 87 -196q38 -113 59 -230t27 -236q2 -49 2 -99q0 -60 -3 -119q-6 -109 -35 -215q-15 -56 -31 -113q-16 -56 -40 -109q-7 -17 -16 -36q-10 -18 -21 -36q-21 -34 -50 -59t-68 -25h-2q-34 0 -55 27q-23 29 -15 63q7 28 25 46q18 19 32 43
q11 20 21 40q10 21 17 43q16 45 29 92q12 46 27 92q31 92 52 185q22 93 25 192q3 71 0 145q-4 74 -14 147q-20 137 -72 264q-52 128 -148 226q-7 7 -7 14t7 14t15 7q7 0 14 -5z" />
    <glyph glyph-name="asterisk" unicode="*" horiz-adv-x="717" 
d="M398 1154q10 -35 18 -73t10 -75q3 -34 5 -69q1 -5 1 -9q0 -30 -16 -57q-21 -37 -60 -37h-8q-45 4 -64 37q-6 11 -8 24q-1 4 -1 9q0 9 3 20q8 29 20 54t17 55t9 60q4 31 11 60q5 24 31 25h1q25 -1 31 -24zM597 479q-37 41 -75 77q-39 36 -80 73q-20 17 -42 33t-42 34
q-18 16 -26 42q-8 27 -12 41q-2 5 -2 9q0 7 3 13q5 10 14 17q27 18 57 18q11 0 21 -2q42 -9 76 -38q18 -15 31 -35q14 -20 21 -43q18 -53 40 -109q22 -55 50 -103q4 -6 4 -12q0 -9 -10 -17q-7 -6 -14 -6t-14 8zM62 492q9 8 14 18q6 11 15 19l15 15t13 17l24 46l22 46
q17 40 40 91t66 70q16 8 33 8q18 0 36 -8q35 -16 35 -58q-1 -58 -46 -109q-46 -52 -86 -88q-21 -19 -43 -38t-44 -37q-17 -14 -33 -20q-15 -6 -36 -15q-5 -2 -9 -2q-12 1 -20 14q-4 8 -4 15q-1 9 8 16zM712 942q-27 -30 -63 -52q-35 -23 -66 -48q-34 -27 -86 -50
q-45 -21 -85 -21h-11q-37 3 -59 34q-11 16 -11 34q0 16 9 33q34 62 93 73q59 12 121 14q34 2 67 5t61 16q6 2 12 2q11 0 19 -9q6 -7 6 -14q0 -8 -7 -17zM37 1021q38 -19 76 -36q38 -16 79 -28q38 -10 79 -21q40 -11 69 -39q17 -17 17 -38q0 -11 -4 -23q-13 -35 -49 -35h-1
q-45 1 -83 25q-37 25 -72 51q-34 26 -70 52q-36 25 -69 54q-9 7 -9 16q0 6 6 14q9 10 19 10q6 0 12 -2z" />
    <glyph glyph-name="plus" unicode="+" horiz-adv-x="840" 
d="M390 1107q19 -4 33 -19q15 -16 24 -32q29 -54 43 -109q13 -50 13 -108v-8q-1 -67 -8 -135q-6 -67 -19 -133q-8 -45 -23 -101q-15 -55 -57 -82q-16 -10 -39 -11h-4q-20 0 -36 10q-33 21 -38 54q-1 7 -1 15q-1 25 12 50q9 17 6 9q-4 -8 2 8q2 9 5 18l4 18q12 50 20 101
q7 50 10 101l4 58q1 29 1 58q0 26 5 52q4 26 5 51q1 18 1 35q1 17 -2 33q-1 6 -2 11q-1 6 -3 11q-2 9 2 -1q4 -11 -5 4q-1 2 -2 5q-1 2 -1 4q-3 23 14 30q12 4 23 4q6 0 13 -1zM17 789q12 13 31 17t36 8q21 7 43 10q21 4 43 9q52 11 103 24q52 13 105 18q59 5 118 5h1
q57 0 116 -4q47 -4 106 -7t97 -36q23 -20 22 -55v-9q-3 -41 -37 -56q-30 -13 -65 -13q-16 0 -32 2q-55 9 -101 12q-56 4 -111 8q-56 3 -111 8q-53 4 -106 16q-53 11 -106 11h-43q-22 0 -43 -1q-14 -1 -28 -4q-15 -3 -28 1q-11 4 -15 15q-1 4 -1 7q0 7 6 14z" />
    <glyph glyph-name="comma" unicode="," horiz-adv-x="552" 
d="M122 191q18 5 36 5q22 0 45 -8q43 -13 68 -45q27 -34 33 -70q3 -16 3 -33q0 -22 -5 -46q-7 -37 -25 -71q-18 -33 -34 -67q-13 -28 -31 -56q-18 -29 -52 -33h-3q-9 0 -16 8q-7 9 -8 19q-2 22 11 41q12 19 20 39q11 23 13 44t-3 45q-3 22 -7 36q-5 14 -14 31q-2 4 -7 10
t3 -2q6 -3 5 -3l-6 3q14 -5 -2 -2q-17 4 -21 5q-15 4 -25 11q-11 8 -18 17q-15 21 -15 46q0 11 3 23q10 40 52 53z" />
    <glyph glyph-name="hyphen" unicode="-" horiz-adv-x="901" 
d="M28 756q12 13 31 17t36 8q21 7 43 10q21 4 43 9q52 11 103 24q52 13 105 18q59 5 118 5h1q57 0 116 -5q47 -3 106 -6t97 -36q23 -20 22 -55v-9q-3 -41 -37 -56q-30 -13 -65 -13q-16 0 -32 2q-54 9 -101 12q-56 4 -111 8q-56 3 -111 8q-53 4 -106 16q-53 11 -106 11h-43
t-43 -1q-14 -1 -28 -4t-28 1q-11 4 -15 15q-1 4 -1 7q0 7 6 14z" />
    <glyph glyph-name="period" unicode="." horiz-adv-x="430" 
d="M165 139q-5 -5 -13 -7t-14 3q-2 1 -5 2t2 2h-5h-4q1 0 -1 -1t0 1q-4 -4 -6 -8q-3 -4 -2 -10q0 -2 1 -6q0 -4 1 -4l2 -6q2 -2 4 -5q-3 3 -3 4l2 -3q2 -2 5 -3q3 -2 -5 2q2 0 3 -1t2 -1q9 -4 2 -2t2 1q-10 1 -7 1h5q4 0 3 0t-7 -1q3 1 8 3q4 2 -6 -3q4 2 8 5t-6 -5l6 6
q2 4 -4 -6q1 1 1 2l2 4q-2 -7 -3 -9q-1 -1 0 3q2 6 1 -3q-1 -8 -1 -2q0 4 0 2q0 -1 1 -9q-2 7 2 -1q4 -9 0 -3q-2 4 -1 2q1 -1 6 -7q-2 2 -5 4q-2 2 8 -6q-4 3 -7 5q-4 3 -7 6q-15 16 -16 38t15 38q12 13 31 16q18 4 33 -6q35 -21 41 -63q1 -7 1 -14q0 -33 -25 -57
q-23 -21 -55 -30q-11 -2 -21 -2q-21 0 -40 11q-34 19 -44 60q-4 15 -4 29q0 24 11 46q16 31 49 41q8 2 15 2q24 0 43 -23q7 -7 7 -16q1 -9 -6 -16z" />
    <glyph glyph-name="slash" unicode="/" horiz-adv-x="738" 
d="M42 3q57 147 123 290t128 287q36 83 63 168t54 172q12 41 25 82q12 42 24 83q5 20 11 39t15 37q6 13 23 24t21 16q7 10 18 10q5 0 11 -2q18 -6 21 -21q3 -14 12 -31q8 -15 8 -32v-5q-2 -21 -7 -40q-6 -20 -12 -39q-13 -42 -29 -83q-16 -42 -34 -81q-37 -81 -79 -160
q-42 -78 -80 -158q-69 -144 -143 -284q-75 -140 -143 -284q-4 -8 -12 -8q-4 0 -8 2q-11 4 -11 12q0 3 1 6z" />
    <glyph glyph-name="zero" unicode="0" horiz-adv-x="1249" 
d="M758 1344q-70 63 -131 71t-113 -22q-28 -16 -52 -41q-25 -25 -47 -57q-42 -58 -73 -132q-32 -75 -55 -149q-19 -60 -31 -116q-13 -55 -19 -96q-7 -45 -9 -94q-3 -50 0 -100q6 -92 38 -178t103 -145q52 -43 119 -59q67 -17 134 -13q85 4 146 40q62 36 117 98
q98 112 145 262q47 149 55 296q4 72 -5 146t-40 141q-36 75 -93 128q-57 54 -130 93q-18 9 -10 29q7 21 27 15q133 -44 211 -146q79 -101 112 -227q18 -68 23 -139q4 -39 4 -78q0 -31 -2 -62q-7 -103 -32 -205q-26 -103 -67 -197q-48 -108 -117 -198q-68 -90 -185 -132
q-85 -30 -176 -30q-17 0 -34 1q-108 6 -204 51q-51 25 -96 60t-81 80q-34 44 -58 93q-23 49 -38 102q-28 98 -29 203v11q0 99 16 193q8 51 30 113q21 63 52 127q38 78 90 153q51 75 111 130q32 30 67 53t71 36q42 15 86 15q27 0 55 -6q73 -15 146 -87q14 -15 0 -30
q-15 -15 -31 -1z" />
    <glyph glyph-name="one" unicode="1" horiz-adv-x="594" 
d="M84 1187q49 1 94 9q45 9 89 31q18 10 37 20q18 10 35 22q9 6 36 21t29 26q7 36 43 36h2q39 -1 49 -35q24 -74 31 -155q3 -36 3 -71q0 -44 -5 -86q-10 -103 -24 -206q-14 -102 -30 -205l-20 -128q-10 -65 -18 -129q-4 -31 -6 -44q-2 -14 -4 -42q-1 -23 -1 -48
q1 -25 -10 -45q-6 -11 -16 -21q-9 -10 -20 -15q-9 -4 8 7q18 12 -9 -7q-11 -8 -26 -9h-8q-10 0 -18 3q-23 8 -36 22q-14 14 -20 31q-13 33 -8 73q4 40 8 76q15 131 36 262q22 131 40 262q10 68 17 137q6 69 18 136q9 47 17 94q9 47 5 94q13 -12 25 -24q13 -12 25 -24
q-17 1 -47 -22t-46 -30q-20 -11 -41 -20q-22 -10 -43 -17q-47 -15 -97 -23q-49 -7 -99 1q-16 2 -16 17v5q3 20 21 21z" />
    <glyph glyph-name="two" unicode="2" horiz-adv-x="1086" 
d="M76 1264q43 65 120 98q77 32 160 37q15 1 29 1q30 0 59 -4q43 -5 81 -17q59 -19 114 -56q54 -37 82 -95q32 -68 47 -142q15 -73 7 -148q-8 -88 -38 -170q-29 -83 -81 -154q-30 -43 -65 -81q-35 -39 -76 -71q-34 -28 -58 -45q-24 -18 -51 -44q-46 -46 -97 -101
q-50 -54 -114 -76q-19 -7 -41 -7q-14 0 -29 3q-38 7 -56 41q-11 23 -13 51q-1 11 -1 21q0 17 2 33q4 33 6 62q3 29 22 59q13 20 34 35q20 15 43 23q56 19 117 15q62 -4 118 -18q26 -6 55 -14q28 -7 53 -20q38 -20 73 -46q36 -25 72 -49q43 -29 93 -54q50 -24 104 -19
q42 4 82 9t81 -15q17 -8 17 -23q0 -6 -4 -13q-10 -25 -35 -21q-46 8 -91 -1q-45 -10 -91 -4q-40 5 -78 21t-72 38q-59 38 -114 79t-123 60q-55 15 -120 24q-64 10 -119 -13q-28 -12 -40 -35q-13 -23 -10 -53q0 -10 3 -18q2 -8 8 -16q10 -16 -4 -5q-13 11 -24 7q36 12 18 2
q-18 -9 3 5q46 30 89 77t89 88q33 30 68 55q36 25 68 56q31 31 57 64q27 33 50 70q44 69 66 143q23 74 32 154q7 67 -4 133t-75 106q-63 39 -151 52q-87 12 -168 -10q-43 -11 -80 -33q-38 -23 -65 -56q-11 -15 -28 -3q-16 13 -6 28z" />
    <glyph glyph-name="three" unicode="3" 
d="M126 1329q80 40 175 61q68 14 135 14q28 0 55 -2q50 -4 99 -18t93 -39q54 -30 83 -82q30 -52 25 -115q-8 -97 -67 -172q-59 -74 -129 -134q-25 31 -49 63l-50 62q20 12 40 14t42 -1q10 -1 5 -1q-5 -1 -25 0q6 1 11 1q5 1 11 1q5 1 10 1t10 -1q31 -2 48 -10q18 -8 45 -22
q44 -22 81 -58q38 -36 66 -77q54 -75 88 -167q29 -75 29 -153q0 -16 -1 -32q-10 -126 -90 -210t-197 -121q-47 -15 -98 -24q-50 -8 -101 -9h-3q-92 0 -179 31q-88 31 -154 105q-22 24 -39 51q-17 26 -26 58q-3 10 -3 21q0 12 4 24q7 22 23 39q10 9 -2 -9q-11 -19 4 11
q3 6 6 11q3 6 7 11q38 46 98 61t120 11q19 -1 24 -22q4 -21 -17 -25q-27 -6 -63 -13q-37 -8 -58 -28l-10 -12t-5 -13q-1 16 -17 26q-15 11 1 2q11 -6 19 -14q9 -8 16 -18q-7 11 5 -14q13 -24 3 -6q3 -5 5 -10l6 -10q8 -11 10 -13q2 -3 15 -15q36 -34 90 -58q53 -24 109 -23
q63 2 128 17q64 14 116 47q21 14 36 26q14 12 32 36q-9 -12 1 1q10 14 13 18q-8 -11 -2 -3q5 9 6 10q6 9 11 19q5 9 9 19q4 11 6 16t6 21q2 10 4 19q1 8 1 14q2 22 2 44t-3 44q-6 42 -21 82q-16 39 -40 74q-22 31 -48 55q-27 25 -62 39q-3 1 -7 2q-4 0 -14 1q13 -1 -3 -2
t-2 2q-3 -1 -7 -2q-4 0 -7 -1l-8 -2q-3 -1 -7 -2q-15 -5 5 7q20 13 9 1l-16 -16q-9 -8 -19 -14q-15 -9 -30 -10q-16 -2 -30 3q-27 8 -45 31q-19 23 -19 50q0 13 6 26t19 25q28 23 64 56q36 32 64 69q16 21 28 41q12 21 18 42q9 33 0 64q-9 32 -45 60q-41 33 -103 42
q-61 8 -111 7q-64 -2 -127 -15q-63 -12 -122 -35q-20 -8 -29 13q-9 22 10 31z" />
    <glyph glyph-name="four" unicode="4" horiz-adv-x="921" 
d="M369 1436q7 -26 7 -54q-1 -28 -7 -56q-11 -53 -34 -104q-24 -51 -43 -96q-15 -35 -31 -70q-15 -35 -26 -72q-4 -13 -8 -27t-3 -26q0 5 -2 9q-2 3 -6 7q5 -5 6 -5l-4 4q6 -3 27 -7q22 -5 33 -11q16 -9 34 -19t35 -14q43 -10 88 -10q45 -1 89 -1h89h89q33 0 72 1
q38 1 69 -14q12 -6 13 -22v-3q0 -14 -12 -19q-38 -16 -85 -14q-47 3 -88 2q-52 -1 -105 -2l-106 -2h-54t-54 -4q-20 -3 -40 -10q-19 -7 -38 -13q-20 -6 -41 -6q-22 0 -46 6q-47 12 -78 41q-23 22 -34 47q-10 25 -12 52q-1 8 -1 16q0 43 16 88q19 53 38 98q32 77 62 152
t49 156q3 13 10 23t17 17q19 14 43 15q11 0 23 -3q38 -10 49 -50zM723 1485q16 -89 16 -183v-19q0 -84 -3 -166q-3 -95 -12 -191q-9 -95 -18 -191q-16 -175 -32 -355t-75 -347q-7 -17 -25 -17h-3q-20 1 -21 23v54q0 152 6 303q7 179 25 357q9 94 17 189q8 94 20 189
q10 87 21 177q11 91 34 176q4 18 25 20h4q18 -1 21 -19z" />
    <glyph glyph-name="five" unicode="5" horiz-adv-x="1106" 
d="M891 1400q-66 14 -139 -1q-74 -16 -140 -27q-68 -12 -137 -12t-137 -14q13 18 27 36l26 36q-3 -65 -24 -130t-37 -127q-10 -36 -19 -72q-10 -35 -19 -72q-5 -21 -15 -36q-10 -14 -24 -30q11 13 4 -3q-7 -15 -9 -21q-10 -34 -45 -41q-35 -6 -56 14q-7 7 -10 17
q-4 10 -3 22v3v3q2 29 22 45q20 15 49 11q36 -4 72 -3q36 0 71 3q101 7 217 21q115 14 218 -12q55 -14 103 -44q48 -31 85 -86q28 -42 45 -89q16 -47 22 -97q3 -28 3 -57q0 -64 -16 -129q-24 -93 -74 -169q-29 -44 -65 -83q-36 -38 -77 -67q-78 -56 -171 -78
q-44 -11 -89 -11q-51 0 -103 13q-60 15 -120 35q-59 20 -112 51q-34 20 -72 48q-38 27 -58 63q-19 34 -20 72v11q0 32 3 66q2 14 17 24q14 9 27 -5q5 -7 11 -14l12 -12q15 -15 6 -9q-10 6 6 1q20 -6 38 -18q17 -11 32 -27q21 -21 45 -38q23 -17 50 -31q43 -22 90 -37
q47 -16 95 -25q114 -22 206 41q93 64 139 163q15 34 25 72q9 38 12 78q5 73 -17 144q-21 72 -75 121q-60 56 -142 57q-81 1 -157 -11q-73 -12 -146 -28q-74 -16 -148 -17q14 15 28 29l28 30v-3t1 -3q-29 4 -57 7q-29 3 -57 6q1 9 2 17t2 17q0 -9 -1 -9q-1 1 -4 11
q-4 22 -3 40q2 18 7 39q8 33 16 65l18 66q16 60 32 129q16 68 49 123q12 20 35 32q14 6 28 7q9 0 18 -3q44 -13 84 -18t85 -5q38 0 76 -2q38 -3 76 -2q64 1 128 4q63 4 123 -24q18 -8 10 -26t-26 -15z" />
    <glyph glyph-name="six" unicode="6" 
d="M761 1460q-45 -27 -91 -60t-80 -74q-34 -40 -64 -82q-29 -43 -60 -85q-62 -85 -111 -176q-49 -92 -87 -190q-37 -94 -49 -192t31 -193q20 -47 47 -89q27 -43 71 -71q39 -23 84 -44t91 -23q86 -3 163 34q78 37 123 112q15 25 28 55q13 29 22 62q17 60 17 123
q-1 63 -31 113q-26 42 -74 58t-95 20q-52 4 -101 -2q-50 -6 -100 -19q-44 -11 -90 -27t-86 -37q-37 -19 -76 -41t-84 -5l14 2l14 2q-8 -5 -15 -10q-8 -5 -15 -10q-19 -11 -33 4q-14 16 -6 33q4 9 8 17t9 16q0 -7 -1 -14l-2 -14q-12 34 -3 62q10 28 33 50q43 41 112 66
q68 25 110 41q31 11 68 20q37 8 76 13q72 8 145 -2q74 -9 130 -43q55 -32 90 -79q36 -47 54 -101q20 -62 20 -128q0 -43 -9 -88q-21 -114 -86 -202q-39 -52 -87 -86t-102 -51q-61 -20 -126 -20q-40 0 -82 8q-110 20 -206 78q-44 26 -85 59q-42 34 -68 79q-25 44 -40 94
q-14 50 -17 101q-1 19 -1 37q0 88 24 172q30 103 73 199q43 97 98 187q56 89 136 161q41 37 89 65q47 27 93 58q41 27 83 50t87 43q5 2 10 2q10 0 18 -11q10 -16 -8 -27z" />
    <glyph glyph-name="seven" unicode="7" horiz-adv-x="1106" 
d="M82 1415q108 19 220 6q111 -14 220 -10q114 4 227 13q92 6 185 6h42q22 -1 36 -15t16 -36q1 -9 8 -32q6 -22 7 -39v-5q0 -19 -7 -38q-9 -22 -17 -41q-16 -38 -36 -74q-19 -36 -38 -73q-43 -85 -84 -171q-41 -85 -88 -169l-98 -174q-49 -86 -93 -176q-18 -36 -34 -76
q-17 -39 -49 -65q-24 -21 -41 -54q-17 -34 -49 -52q-12 -7 -24 -7t-23 10q-21 18 -18 45q3 21 12 36q10 16 18 35q8 21 6 42q-1 21 6 42q15 40 33 79t37 77q41 81 86 159t89 157q45 80 85 162q39 82 81 163q18 36 38 72t36 74l16 36q7 17 17 34q3 6 7 12l8 12q9 11 11 13
q1 3 -4 -3l26 -32q13 -15 25 -31q-113 3 -226 -4t-227 -8q-109 -2 -217 11q-107 13 -216 25q-25 3 -32 30q-1 6 -1 10q0 19 24 24zM448 920q29 12 64 15q36 2 67 8q40 7 80 17t81 17q38 7 81 9h13q35 0 67 -9q23 -6 42 -21t26 -39q10 -35 3 -8t1 -2q7 -25 1 -10q-7 16 3 0
q4 -8 4 -15q0 -9 -6 -18q-12 -15 -31 -11l9 3q-1 0 -11 -4l6 4q4 3 7 5q-7 -6 -16 -11q-8 -5 -17 -7q-14 -3 -25 -3q-7 0 -13 1q-17 2 -36 6q-36 7 -72 13q-36 5 -71 11q-38 6 -76 8q-39 1 -77 -1q-25 -2 -52 -6q-27 -3 -52 2q-18 3 -17 19v3q1 18 17 24z" />
    <glyph glyph-name="eight" unicode="8" horiz-adv-x="881" 
d="M352 911q-43 19 -72 50q-28 30 -43 67q-28 72 -11 156q17 85 70 147q28 34 65 57q38 23 82 32q29 5 60 6h14q24 0 48 -3q57 -7 105 -36q48 -28 69 -86q29 -80 2 -168q-26 -87 -66 -157q-39 -70 -87 -135q-47 -65 -107 -118q-53 -48 -115 -95q-63 -47 -101 -109
q-39 -63 -39 -144q-1 -81 41 -144q10 -16 22 -34q11 -18 29 -27q17 -9 36 -15l38 -10q38 -10 79 -14q42 -4 81 6q92 23 143 96t57 167q6 100 -42 173q-49 73 -130 125q-21 13 -9 34q11 21 33 10q96 -44 157 -132q57 -83 57 -185v-10q-3 -104 -51 -201q-47 -97 -148 -141
q-71 -32 -158 -36q-15 -1 -30 -1q-69 0 -131 18q-93 26 -152 88q-58 61 -76 157q-8 43 -8 84q0 47 10 92q19 85 75 158q47 63 107 111q61 48 117 101q56 52 101 114q45 63 77 132q15 31 30 82t7 93q-5 23 -19 40q-15 17 -42 24q-79 20 -147 -14q-67 -33 -92 -114
q-22 -74 -2 -142t86 -111q17 -12 8 -29t-28 -9z" />
    <glyph glyph-name="nine" unicode="9" horiz-adv-x="942" 
d="M597 879q-91 -45 -196 -51q-106 -7 -194 52q-73 49 -115 132q-32 62 -32 127q0 23 4 46q12 75 66 129q55 55 121 84q75 32 161 55q50 13 99 13q35 0 68 -7q66 -12 130 -48q63 -35 103 -90q39 -55 56 -121t19 -134q1 -15 1 -30q0 -118 -30 -237q-33 -134 -79 -257
q-32 -85 -82 -162q-49 -76 -115 -140q-59 -58 -137 -99q-79 -41 -154 -73q-12 -5 -24 -5q-19 1 -37 13q-31 20 -39 49q-10 35 8 61q17 26 48 39q46 19 90 44t85 52q33 21 58 48q26 27 55 63q23 29 42 60q20 32 34 66q28 63 48 132q19 69 37 136q28 108 29 226q2 119 -57 217
q-35 59 -103 81q-67 21 -133 21q-28 -1 -58 -5q-30 -5 -60 -14q-55 -17 -103 -51q-47 -34 -70 -85q-20 -47 -13 -101q8 -53 35 -98q15 -25 34 -45t42 -34q77 -48 167 -48t175 27q16 5 24 -12q7 -18 -8 -26z" />
    <glyph glyph-name="colon" unicode=":" horiz-adv-x="318" 
d="M154 139q-5 -5 -13 -6q-9 -2 -15 2q-2 2 -5 3t2 1h-4h-5q2 0 0 -1t-1 1q-4 -4 -6 -8t-2 -10q1 -2 1 -6q1 -3 1 -4q2 -3 3 -5q2 -3 3 -5l-2 3l2 -2t5 -4q2 -2 -5 3l2 -2q2 0 3 -1q8 -4 1 -2q-6 2 3 1q-10 2 -8 1h6t2 0t-7 -1q4 1 8 3q5 2 -5 -3q3 2 7 5t-5 -5q3 3 5 7
q3 3 -4 -7q1 1 2 3q1 1 1 3q-2 -7 -3 -8q0 -2 1 2q1 6 1 -2q-1 -9 -1 -3q-1 4 0 2q0 -1 1 -8q-2 6 2 -2q3 -8 0 -3q-2 4 -1 3q1 -2 5 -8q-2 3 -4 4q-2 2 8 -5q-4 2 -8 5q-3 2 -6 5q-16 16 -16 38q-1 23 14 39q12 12 31 16q19 3 34 -6q35 -22 41 -64q1 -7 1 -14
q0 -33 -26 -57q-22 -21 -55 -29q-10 -3 -20 -3q-21 0 -41 11q-34 20 -44 60q-3 15 -3 29q0 24 11 46q16 32 49 41q8 2 15 2q24 0 43 -22q6 -7 7 -16t-6 -17zM91 619q5 -5 7 -13t-2 -14q-2 -2 -3 -5t-1 2v-5q-1 -2 0 -4q0 1 0 -1q1 -2 0 0q4 -4 7 -6q4 -3 10 -2q2 0 6 1
q4 0 5 1q2 1 5 2q3 2 5 4l-3 -3l2 2t4 5q1 3 -3 -5q1 2 1 3l2 2q3 9 1 2t-1 2q-1 -10 -1 -7q1 3 1 5q-1 4 0 3v-7q0 3 -3 8q-2 4 3 -6q-1 4 -4 8q-4 4 5 -6q-3 3 -7 6q-4 2 7 -4q-2 1 -3 1q-2 1 -3 2q6 -3 8 -3q1 -1 -2 0q-7 2 2 1t2 -1q-4 0 -2 0t9 1q-6 -2 2 2t2 0
q-3 -2 -2 -1t7 6q-2 -2 -4 -5q-1 -2 6 8q-2 -4 -5 -7q-3 -4 -6 -7q-15 -15 -38 -16q-22 -1 -38 15q-12 12 -16 31q-3 18 6 33q21 35 63 41q7 1 14 1q33 0 57 -25q22 -23 30 -55q3 -11 3 -21q0 -21 -12 -40q-19 -34 -60 -44q-14 -4 -28 -4q-25 0 -46 11q-32 16 -41 49
q-2 8 -2 15q-1 24 22 43q7 7 16 7q9 1 16 -6zM143 0v0v61v0v-61z" />
    <glyph glyph-name="semicolon" unicode=";" horiz-adv-x="451" 
d="M160 634q-5 -5 -13 -7q-9 -2 -15 3q-2 1 -5 2t2 1h-4q-2 1 -4 0q1 1 -1 0t-1 0q-3 -3 -6 -7q-2 -4 -1 -10v-6q1 -4 1 -5q2 -2 3 -5q2 -2 4 -5l-3 3q0 1 2 -2q2 -2 5 -4q3 -1 -5 3q1 -1 3 -1q1 -1 2 -1q8 -4 2 -2q-7 2 2 1q-10 1 -7 1q2 -1 5 -1q4 1 2 1q-1 -1 -7 -1
q4 0 9 3q4 2 -6 -3q3 1 7 5q4 3 -5 -6q3 3 5 7q3 4 -4 -7q1 2 2 3q1 2 2 3q-3 -6 -3 -8q-1 -1 0 2q2 7 1 -2t-1 -2q-1 4 0 2q0 -2 1 -9q-2 7 2 -2q4 -8 0 -2q-2 3 -1 2t6 -7q-3 2 -5 4q-2 1 8 -6q-4 2 -7 5q-4 3 -7 6q-16 15 -16 38q-1 22 15 38q12 13 30 16q19 3 34 -6
q35 -21 41 -63q1 -7 1 -14q0 -33 -25 -57q-23 -22 -55 -30q-11 -2 -21 -2q-21 0 -41 11q-34 19 -44 60q-3 15 -3 29q0 24 11 46q16 31 49 40q8 3 15 3q24 0 43 -23q6 -7 7 -16t-6 -16zM105 188q18 5 37 5q22 0 45 -7q42 -14 67 -46q27 -34 33 -70q3 -16 3 -32q0 -22 -4 -46
q-7 -38 -25 -71q-19 -34 -34 -68q-13 -27 -32 -56q-18 -28 -51 -32q-2 -1 -4 -1q-9 0 -15 8q-8 9 -9 19q-1 22 11 41q12 20 21 39q10 24 12 44q2 21 -2 46q-4 21 -8 35q-5 14 -14 31q-1 4 -7 10q-5 6 3 -1l6 -4q-1 0 -7 4q14 -6 -2 -3q-16 4 -21 5q-14 4 -25 11
q-11 8 -18 18q-15 20 -15 45q0 12 3 24q10 39 52 52z" />
    <glyph glyph-name="less" unicode="&#x3c;" horiz-adv-x="676" 
d="M592 709q-62 -22 -106 -79q-45 -57 -92 -100q-52 -46 -99 -97q-48 -50 -96 -99q2 23 5 46q3 24 6 47q37 -56 72 -108q36 -53 84 -100q50 -50 105 -93t111 -85q14 -11 4 -28q-7 -13 -19 -13q-3 0 -7 1q-69 21 -127 62q-58 40 -112 87q-53 46 -105 88t-110 81
q-33 23 -39 57q-1 6 -1 13q0 27 21 52q33 40 70 79q36 40 76 76q75 67 163 113q87 46 189 46q21 1 23 -20v-4q0 -17 -16 -22z" />
    <glyph glyph-name="equal" unicode="=" horiz-adv-x="819" 
d="M50 576q95 37 193 44q60 5 120 5q39 0 79 -2q27 -1 55 -2t56 -5q17 -2 34 -7q17 -4 35 -4q27 0 63 -11q36 -12 49 -37q5 -10 5 -21q0 -8 -3 -16q-6 -20 -27 -25q-15 -3 -29 -1t-28 -2q-15 -4 -31 -9t-31 -7q-37 -7 -74 -7h-17q-46 2 -92 7q-88 8 -174 24q-87 16 -175 22
q-24 1 -27 23v6q0 18 19 25zM-5 885q13 13 32 17t36 9q21 6 42 10q22 4 43 8q53 11 104 24t105 18q59 5 117 5h1q58 0 116 -4q48 -3 107 -6t96 -36q23 -21 23 -56v-8q-4 -42 -37 -57q-30 -13 -66 -13q-15 0 -32 3q-54 8 -101 11q-55 4 -111 8q-55 3 -110 8q-53 5 -106 16
t-107 11h-43q-21 1 -43 -1q-13 0 -28 -3q-14 -4 -27 1q-12 3 -16 15q-1 3 -1 6q0 8 6 14z" />
    <glyph glyph-name="greater" unicode="&#x3e;" horiz-adv-x="656" 
d="M117 741q61 -59 135 -89q75 -29 148 -65q23 -12 58 -28q36 -16 67 -37q18 -12 32 -25q15 -13 24 -27q12 -18 13 -38q1 -3 1 -6q0 -18 -11 -37q-10 -18 -27 -33q-18 -15 -31 -31q-13 -15 -27 -31q-13 -15 -26 -31q-26 -29 -52 -59t-56 -56q-61 -50 -122 -87
q-62 -36 -138 -60q-4 -1 -7 -1q-12 0 -21 13q-11 17 3 30q108 95 202 208q95 113 183 226q-5 -14 -11 -27q-5 -13 -10 -27v6q0 2 1 5q5 -13 11 -26q5 -13 11 -26q-50 39 -106 71q-56 33 -103 78q-45 43 -91 83q-46 41 -87 89q-8 9 -8 18q0 10 9 19q9 10 18 10t18 -9z" />
    <glyph glyph-name="question" unicode="?" horiz-adv-x="860" 
d="M14 1100q-4 18 -7 36t-3 36q-1 6 -1 13q0 93 43 165q45 77 121 122q41 24 89 38t101 17q14 1 29 1q86 0 173 -27q102 -31 176 -98q40 -36 68 -83q29 -47 41 -105q10 -47 10 -94q0 -77 -27 -153q-44 -122 -146 -199q-23 -17 -50 -31q-26 -13 -54 -20q-26 -7 -54 -7
q-29 1 -54 -6q-42 -13 -78 -52q-35 -38 -50 -85q-7 -25 -7 -50q0 -26 11 -48q18 -38 -7 -65q-21 -23 -46 -23q-5 0 -10 1q-10 2 -20 9q-9 6 -16 19q-44 78 -44 164q0 85 52 160q25 35 57 64q32 28 72 46q33 15 65 18t68 7q12 1 29 7q16 6 33 18q11 7 26 21q15 13 30 32l9 12
q5 9 12 21q4 7 11 21l7 15q7 21 13 45t6 39q2 47 -10 91t-43 78q-47 52 -110 89q-63 38 -130 54q-66 16 -139 9q-72 -6 -125 -56q-54 -51 -70 -120q-16 -68 -8 -139q2 -19 -19 -22q-20 -3 -24 15zM307 165q-1 1 -2 1q-2 1 -3 0q4 1 3 0l-5 -2l2 2t-2 -4q-5 -8 -7 -12t-4 -14
q-1 -3 -1 -5q-1 -3 -1 -5q0 3 0 2v-5q0 -1 1 -7q0 -6 -1 1q1 -6 0 -2q-1 3 -3 5q6 -7 0 -2q-7 4 1 1q-5 1 -6 2q-1 0 3 -1q-4 1 -7 1t-6 -1q7 2 0 -1q-8 -4 -1 1q7 4 0 -2q-7 -5 -1 1q2 2 4 5t-4 -6q2 3 3 7t-1 -6q1 7 1 -1q-1 -9 -1 -2q-1 7 0 -1q2 -9 0 -3q-2 7 -2 13
q1 6 2 13q3 21 21 29t35 6q26 -4 35 -27q7 -17 7 -32q0 -7 -1 -14q-3 -13 -10 -25q-7 -13 -16 -22q-24 -25 -58 -29q-5 -1 -10 -1q-28 0 -51 21q-30 28 -31 69v3q0 40 20 72q11 19 26 32q15 14 37 17q5 1 11 1q14 0 26 -6q17 -7 31 -20q20 -18 4 -37t-38 -10z" />
    <glyph glyph-name="at" unicode="@" horiz-adv-x="1126" 
d="M726 936q-19 21 -42 31t-46 11q-44 1 -82 -27q-39 -27 -52 -75q-12 -40 -26 -81q-13 -40 -21 -81q-7 -35 0 -67t20 -65q6 -14 27 -19q21 -6 44 -6q15 -1 29 0t21 3q31 5 61 15q30 9 47 38q27 48 33 103q7 54 31 103q8 19 27 9q13 -7 13 -18q0 -5 -3 -11q-20 -46 -26 -103
q-6 -56 -26 -103q-11 -25 -30 -46q-19 -20 -51 -31q-40 -16 -87 -27q-41 -10 -81 -10h-9q-46 1 -98 18q-52 18 -77 60q-31 51 -31 108q0 9 1 19q6 68 25 130q17 56 38 108q21 53 66 94q39 37 90 59q29 12 59 13q23 0 47 -7q44 -13 81 -47t61 -72q9 -15 -6 -27q-14 -12 -27 1
zM824 957q-12 -45 -4 -94q7 -49 16 -94q10 -47 8 -98q-2 -52 15 -97q11 -27 27 -41q17 -14 45 -3q32 11 49 33q18 22 28 54q18 59 25 122q8 63 4 125q-3 59 -17 126q-14 66 -46 123q-17 30 -40 56q-23 25 -52 43q-45 28 -95 45q-51 17 -103 26q-45 8 -92 12q-48 5 -93 -6
q-70 -18 -125 -72t-91 -113q-22 -37 -41 -75t-32 -79q-14 -43 -18 -88q-4 -44 -11 -88q-11 -80 -3 -163q7 -84 65 -147q47 -53 107 -82t130 -37q80 -9 161 -22q81 -14 161 -11q43 1 81 7q37 6 75 29q40 26 70 59q31 34 56 73q12 18 30 8q12 -6 12 -17q0 -5 -3 -12
q-47 -103 -138 -173q-90 -70 -203 -89q-55 -10 -112 -12q-19 -1 -38 -1q-37 0 -74 3q-54 5 -108 8q-55 3 -106 19q-109 33 -193 113q-84 79 -117 189q-24 78 -24 156q0 51 10 103q26 129 76 249q31 76 78 142t115 113q59 41 130 57q65 15 130 15h12q89 -2 187 -23t172 -74
q69 -51 109 -129q40 -79 54 -162q15 -90 10 -181t-27 -180q-21 -83 -78 -133q-58 -50 -146 -54q-40 -2 -67 15q-28 17 -46 44q-33 52 -39 126q-5 74 2 127q4 28 16 63q11 34 20 65q5 18 14 35t14 35q4 13 9 26q6 12 13 24q10 19 31 11t15 -29z" />
    <glyph glyph-name="A" unicode="A" horiz-adv-x="1434" 
d="M7 1188q9 52 38 102t60 92q29 37 69 77q41 40 90 49q19 4 35 4q20 0 36 -6q31 -9 53 -32q40 -40 57 -108t24 -125q7 -56 7 -111t-7 -109q-13 -108 -26 -218q3 25 0 3q-2 -22 -1 -16q-2 -15 -4 -29q-1 -15 -3 -29l-8 -48q-4 -23 -8 -47q-10 -52 -19 -104t-19 -104
q-19 -97 -41 -194q-23 -97 -49 -193q-9 -31 -43 -43q-14 -4 -26 -4q-18 0 -32 9q-8 6 -14 15q-5 8 -7 21v1v0q-4 24 5 44q10 21 35 28l1 1q0 1 1 1q8 6 20 5q12 -2 19 -9q0 -1 1 -2l1 -1q-21 -9 -42 -19l-42 -18q5 34 9 71t12 73q10 43 20 87q11 43 13 88q4 96 24 190
q19 94 32 190q12 90 22 180q11 90 21 181q5 39 13 99q9 61 0 113q-4 28 -16 51q-11 22 -33 34q-21 12 -33 16q-11 3 -34 -14q-23 -16 -43 -37t-37 -43q-28 -37 -55 -81t-36 -91q-4 -20 -24 -15q-17 5 -17 19q0 3 1 6zM422 1063q55 62 97 136t93 140q49 64 115 130
q67 67 151 84q28 5 53 5q38 0 66 -13q46 -22 73 -65q32 -53 42 -127q10 -75 9 -148q-1 -38 -3 -74t-4 -66q-7 -110 -17 -220q-9 -109 -28 -219q-16 -93 -32 -196q-16 -102 -3 -197q4 -30 15 -56q12 -26 48 -25q44 2 86 17q42 16 74 47q57 56 96 125q38 69 82 135q14 21 37 9
q15 -8 15 -20q0 -7 -5 -15q-43 -69 -82 -145q-38 -75 -98 -133q-16 -17 -37 -34t-44 -32q-44 -27 -93 -41q-22 -6 -43 -6q-27 -1 -53 9q-79 31 -108 103q-30 73 -34 151q-5 102 10 205q16 102 33 202q19 113 35 226t27 226q2 30 5 60q3 29 6 59q2 19 8 38q6 18 8 37
q5 38 -5 76t-53 50q-34 10 -67 4q-33 -5 -64 -21q-57 -29 -105 -82t-82 -97q-49 -66 -94 -138q-44 -72 -100 -132q-14 -15 -29 0q-7 7 -7 15q0 6 6 13zM374 874q39 15 84 21q44 5 85 12q42 8 85 15q43 8 86 7q42 -1 85 0q11 1 22 1q31 0 63 -3q33 -3 70 -8q38 -5 66 -25
q14 -9 14 -27q0 -3 -1 -6q-2 -23 -26 -21q-39 3 -75 11q-37 9 -77 7q-45 -2 -88 -12l-86 -20q-42 -9 -84 -16t-84 -13q-34 -5 -69 -9q-12 -2 -24 -2q-22 0 -44 6q-32 7 -32 36v3q2 32 30 43z" />
    <glyph glyph-name="B" unicode="B" horiz-adv-x="1495" 
d="M-8 1348q23 54 71 88q49 34 107 46q28 5 56 5h6q32 0 61 -9q22 -6 42 -16q21 -9 38 -24t28 -33q12 -18 27 -34q45 -45 59 -103q13 -59 16 -121q1 -38 1 -75q0 -44 -2 -88q-4 -81 -15 -162q-5 -43 -12 -87q-6 -44 -16 -86q-10 -37 -23 -75q-13 -37 -24 -75
q-20 -76 -38 -154q-17 -78 -41 -153q-8 -25 -16 -49t-14 -49q-4 -22 -6 -44q-1 -23 -8 -44q-4 -12 -15 -17q-5 -2 -10 -2q-6 0 -12 3q-27 13 -33 39t-2 55q1 15 5 29q3 15 6 27q14 58 25 117q11 58 18 117q18 141 38 281q21 140 30 282q4 65 3 130q-2 64 -3 129v57v57
q0 15 4 25q4 9 -1 23q-3 8 -7 16q-5 7 -11 13q-22 22 -50 33t-58 12q-56 2 -108 -27q-53 -28 -80 -76q-9 -18 -26 -8q-12 6 -12 17q0 5 2 10zM428 1162q42 93 123 172q81 78 180 109q60 19 133 19t125 -35q28 -18 45 -49q18 -30 20 -74q1 -10 1 -21q-1 -98 -50 -190
q-54 -102 -127 -178q-80 -84 -193 -127q-76 -30 -153 -30q-37 0 -75 7q-20 4 -37 20q-18 17 -21 36q-2 3 -3 7l-2 6q-9 7 -9 17q0 4 1 9q5 16 19 20q4 0 7 1q4 1 7 2l-10 -8q-6 -4 -11 -8q2 3 4 7q2 3 3 7q10 19 29 30t40 12q42 0 82 1q39 2 79 17q33 12 64 30q31 19 58 42
q58 52 100 119q41 68 76 137q19 39 12 76q-7 38 -56 49q-50 12 -98 7t-95 -28q-74 -37 -135 -96q-60 -59 -97 -134q-9 -18 -26 -8q-18 9 -10 27zM704 867q57 21 119 21q13 0 27 -1q77 -6 142 -44q67 -39 107 -93t65 -126q46 -133 9 -267t-145 -226q-100 -85 -222 -133
q-121 -47 -251 -65q-55 -7 -112 -8q-10 -1 -19 -1q-47 0 -93 5q-41 4 -87 18q-45 15 -60 61q-4 14 -4 29q0 18 6 36q12 33 35 56q56 56 139 81q83 26 159 31q94 7 188 5q94 -3 188 1q80 4 160 7q81 3 158 22q93 23 161 72t122 127q14 20 35 9q15 -7 14 -19q0 -7 -4 -14
q-29 -55 -69 -95q-39 -40 -86 -68q-88 -52 -194 -71q-106 -18 -210 -22q-88 -4 -175 -5q-88 0 -176 -1q-51 0 -109 -3q-59 -3 -106 -27q-30 -15 -63 -35q-34 -20 -42 -57q2 6 -2 12q-3 5 -7 10q-12 12 -19 16q-8 4 21 -9q-11 5 2 1l12 -4l28 -4q14 -1 28 -1q27 -1 55 -1
t55 2q52 3 98 11q46 9 100 26q115 36 213 106q97 70 145 186q17 42 30 95q13 52 10 102q-2 27 -9 53q-7 25 -21 47q-54 80 -149 110t-186 2q-19 -6 -24 13q-5 20 13 27z" />
    <glyph glyph-name="C" unicode="C" horiz-adv-x="1291" 
d="M891 1205q9 12 19 27q11 16 20 34q18 33 29 70q10 37 1 66q-5 19 -22 33t-48 20q-70 13 -146 -2q-77 -15 -140 -45q-44 -21 -82 -51t-71 -66q-62 -68 -108 -150q-45 -83 -78 -163q-58 -142 -81 -302t4 -313q6 -31 13 -68q7 -36 24 -63q18 -27 43 -47q26 -20 54 -35
q71 -39 150 -54q80 -15 160 -1q92 17 184 43t173 73q89 50 164 117t135 149q15 20 38 8q14 -8 14 -18q0 -7 -6 -16q-41 -61 -93 -118q-51 -56 -111 -105q-109 -92 -240 -154t-269 -83q-54 -8 -110 -8q-40 0 -81 4q-99 10 -185 48q-88 39 -145 108q-56 68 -79 161
q-29 112 -29 229q0 52 6 105q18 174 71 329q34 98 83 195q49 96 119 175q37 43 81 79t96 63q64 33 142 52q65 15 130 15h25q42 -2 82 -11t75 -26q40 -19 72 -45t40 -72q10 -61 -22 -118q-32 -56 -68 -101q-13 -18 -30 -1q-16 16 -3 33z" />
    <glyph glyph-name="D" unicode="D" horiz-adv-x="1577" 
d="M7 1383q34 46 89 74t115 36q21 2 41 2q11 0 23 -1q32 -2 61 -12q70 -23 109 -71t58 -109q11 -33 17 -69q7 -35 10 -72q8 -78 8 -157q0 -70 -6 -141q-14 -150 -40 -296q-13 -71 -25 -143q-11 -71 -29 -141q-8 -28 -17 -55q-9 -28 -16 -56q-7 -29 -15 -57t-27 -52
q-13 -16 -29 -16q-10 0 -20 5q-29 15 -31 43q-4 50 11 101q15 50 23 99q10 61 15 123t13 123q8 70 17 139q9 70 17 139q7 58 9 117q1 58 5 117q3 53 7 107q4 53 0 106q-3 36 -13 79t-46 62q-73 39 -161 25t-140 -81q-13 -17 -29 -1q-9 9 -9 18q0 8 5 15zM432 1332
q100 55 207 91q106 37 220 50q40 4 80 4q58 0 119 -9q102 -16 176 -86q42 -40 75 -85t53 -100q18 -52 31 -107q12 -55 18 -110q12 -120 -3 -244q-14 -125 -56 -238q-31 -85 -75 -164t-107 -145q-71 -74 -163 -122q-92 -49 -189 -80q-38 -12 -89 -22q-32 -6 -63 -6
q-17 0 -34 2q-25 3 -48 11q-23 9 -42 25q-23 21 -24 52t12 60q6 15 17 27q10 13 23 21q42 26 96 33t102 8q67 3 134 0q66 -2 133 -5q65 -2 127 1q63 3 124 26q93 36 169 101t120 154q13 25 37 11q17 -9 17 -23q0 -7 -4 -15q-45 -91 -122 -161q-76 -71 -170 -110
q-51 -22 -104 -33q-54 -12 -109 -12q-61 0 -122 2q-61 3 -122 4q-55 1 -118 1q-62 0 -114 -21q-10 -4 -27 -13q-18 -10 -17 -24q1 -3 2 -7q1 -3 2 -7q4 -9 -1 -6q-4 4 4 2q15 -3 32 -3q16 0 32 2q93 10 169 71t141 121q123 116 186 268q62 153 67 321q3 78 -3 156t-23 155
q-16 73 -44 128q-29 56 -99 91q-50 24 -104 33t-110 6q-104 -5 -207 -41q-102 -36 -189 -79q-19 -10 -31 9q-4 8 -4 14q0 10 12 17z" />
    <glyph glyph-name="E" unicode="E" 
d="M831 1517q-27 -26 -56 -53t-48 -60q-5 -8 -18 -40t5 -40q11 -4 24 9q13 14 18 21q11 22 12 38q0 16 -7 27q-18 26 -64 31q-46 6 -78 5q-63 0 -117 -12q-53 -12 -101 -56q-45 -42 -78 -94t-61 -106q-12 -24 -35 -58q-22 -34 -14 -62q9 -30 26 -56q18 -26 42 -46
q35 -27 70 -44q35 -18 80 -24q37 -5 80 -3q44 1 77 22q9 6 17 11q7 4 -13 8q-13 3 -27 5t-27 2q-31 -2 -53 -10t-49 -20q-22 -10 -43 -22t-37 -30q-18 -18 -33 -40t-33 -40q-55 -56 -96 -123t-51 -146q-8 -61 11 -117q20 -57 52 -107q7 -11 12 -22q6 -12 11 -23q-8 17 2 8
q9 -10 13 -13q15 -11 31 -20q16 -10 32 -18q41 -19 85 -32q44 -12 89 -18q89 -13 183 5q95 17 169 69q68 48 118 112q51 64 85 139q11 25 35 11q17 -9 17 -24q0 -7 -3 -14q-21 -52 -52 -101q-30 -48 -68 -90q-70 -79 -162 -133q-92 -53 -197 -69q-46 -7 -93 -7q-46 0 -93 7
q-95 13 -179 52q-20 10 -39 20t-37 23q-5 4 -18 10q-14 7 3 2q-7 2 -18 6t-18 9q-30 22 -57 49q-28 28 -47 60q-30 53 -41 110q-8 41 -8 82q0 16 2 32q8 107 60 207q53 100 127 174q39 39 92 66t104 44q44 15 91 14q46 -1 92 -7q35 -4 75 -11q41 -7 61 -41q13 -23 1 -46
t-29 -38q-56 -47 -139 -51t-150 14q-70 19 -145 53q-75 33 -107 107q-16 37 -24 79t-3 83q6 39 23 76q18 37 38 72q41 72 108 139t150 92q65 18 148 21q10 1 20 1q71 0 128 -20q18 -6 38 -16q19 -10 37 -22q33 -24 53 -58q19 -34 6 -77q-8 -26 -39 -60t-63 -37q-14 -1 -27 6
q-12 6 -22 24q-14 26 -14 52q1 25 11 49q20 46 61 85q42 38 73 66q17 14 33 -1q17 -16 0 -31z" />
    <glyph glyph-name="F" unicode="F" horiz-adv-x="1147" 
d="M136 1122q-15 12 -33 27q-19 16 -36 34q-33 35 -52 76q-9 19 -9 38q0 23 12 45q26 49 89 63q62 15 111 16q70 1 140 -5q69 -6 139 -9q40 -2 80 1q39 4 79 8q36 4 73 8q36 5 71 12q33 7 60 21t58 24q13 5 25 5q5 0 9 -1q16 -3 29 -11q23 -17 32 -48q8 -31 -4 -60
q-23 -55 -53 -107q-29 -53 -50 -108q-12 -30 -20 -62q-8 -31 -15 -63q-20 -78 -38 -156q-19 -78 -37 -156q-31 -130 -70 -250q-40 -119 -97 -235q-35 -71 -88 -141q-52 -70 -130 -101q-40 -16 -84 -24q-45 -8 -88 -12q-34 -3 -74 -3h-1q-39 0 -70 17q-25 14 -35 32
q-9 18 -8 36q3 35 34 68t64 50q89 46 179 40t185 -14q84 -7 162 17q77 23 151 62q88 45 169 102t152 127q15 14 30 -1q8 -7 8 -15q0 -7 -7 -15q-76 -82 -171 -147q-94 -65 -196 -111q-67 -30 -138 -51q-70 -21 -145 -15q-63 5 -134 15q-72 10 -137 -2q-35 -7 -67 -22
q-32 -16 -59 -46q-18 -20 -22 -38t31 -23q21 -3 42 -3q21 1 41 4q41 5 88 15q46 9 81 33q65 43 108 128q43 84 61 158q11 50 19 101q7 50 18 100q15 75 31 150t34 149q15 64 30 129q14 64 31 127q23 91 65 172q43 80 80 166l46 -58q23 -28 46 -57q-30 -10 -62 -12t-63 -7
q-31 -6 -62 -10q-31 -5 -62 -8q-44 -5 -88 -9q-45 -5 -89 -5q-59 1 -118 8l-118 12q-29 3 -59 5t-60 2q-23 0 -42 1q-20 1 -41 -8q-1 0 -3 -3q-1 -4 1 4q-1 -5 -1 -11q1 -7 4 -15q11 -33 32 -63q21 -31 42 -59q12 -17 -5 -28t-31 0zM386 917q43 3 87 4q44 0 87 4q36 4 70 12
t69 16q28 7 57 13q29 7 58 9q5 1 10 1q11 0 22 -3q15 -4 29 -15q-17 14 -1 5t22 -12q18 -8 18 -31v-1q0 -21 -17 -30q-25 -13 -46 -24q-21 -12 -50 -16q-31 -5 -62 -9q-30 -3 -62 -4q-33 -1 -65 -1q-44 0 -88 2q-77 3 -149 34q-13 6 -14 17q0 4 2 9q7 18 23 20z" />
    <glyph glyph-name="G" unicode="G" horiz-adv-x="1270" 
d="M968 1223q25 30 20 62q-6 31 -40 52q-29 18 -77 28t-80 -10q-41 -25 -93 -32t-97 -28q-72 -34 -133 -85t-110 -114q-73 -92 -115 -203t-61 -225q-1 -10 -3 -19l-2 -18q-1 -3 -1 -6q0 -4 -1 -7q3 29 1 6q-3 -23 -3 -25q-5 -48 -9 -101q-5 -52 6 -100q10 -43 34 -90
q24 -46 61 -77q20 -16 43 -26q23 -11 50 -11q81 -3 156 27t139 79q79 60 151 134q73 75 115 165q13 28 39 13q27 -15 16 -43q-18 -46 -44 -90q-25 -45 -31 -95q-6 -56 -24 -108q-17 -53 -33 -106q-16 -55 -30 -111q-13 -55 -25 -111q-5 -28 -9 -55q-5 -28 -8 -56
q-2 -23 -2 -57q-1 -35 -14 -54q-23 -32 -61 -66q-39 -34 -81 -40q-8 -2 -15 -2q-15 0 -30 5q-22 8 -42 31q-29 34 -25 72q3 39 22 76q51 101 128 187q76 86 157 163q44 42 94 74q51 32 104 61q69 37 145 79q76 43 118 112q12 20 34 9q13 -8 13 -18q0 -7 -4 -14
q-25 -43 -60 -74q-35 -32 -75 -57q-75 -47 -157 -85t-146 -98q-67 -64 -132 -134t-117 -148q-17 -25 -42 -67t-11 -75q6 -15 23 15q18 30 19 34q3 4 6 15q3 12 1 -3q1 9 2 19t2 19q2 23 5 46q2 22 4 45q11 98 39 196t64 188q19 47 45 83q25 35 57 74q25 31 45 69
q19 37 33 75q15 -6 29 -11q14 -6 29 -12q-48 -107 -139 -202q-91 -94 -190 -158q-84 -54 -175 -76q-90 -22 -190 -12q-84 9 -152 56q-69 47 -99 130q-26 74 -26 153q0 13 1 26q5 93 17 183q14 110 49 219q36 109 93 205q31 52 70 100q39 49 84 91q85 79 190 130t221 56
q3 1 6 1q24 0 45 -9q23 -10 49 -15q19 -4 36 -9q17 -6 34 -14q27 -13 55 -26q27 -12 48 -36q35 -40 35 -85q-1 -44 -39 -82q-14 -14 -28 0q-14 13 -1 28z" />
    <glyph glyph-name="H" unicode="H" horiz-adv-x="1352" 
d="M-4 1373q9 30 29 53t47 39q49 30 112 38q33 5 61 5t53 -4q47 -7 78 -30q32 -23 53 -55q38 -61 48 -142q10 -82 12 -152q1 -44 1 -87q0 -52 -2 -103q-3 -95 -19 -189q-15 -83 -42 -164q-26 -81 -55 -160q-23 -65 -44 -132q-22 -66 -51 -128q-23 -50 -40 -103
q-18 -52 -33 -105q-10 -34 -43 -36h-3q-30 0 -45 21q-5 7 -7 17q-1 10 2 22q26 96 50 193t43 195q15 74 37 147t38 147q15 71 24 142q9 72 16 143l16 150q9 75 10 151q1 27 0 55q0 28 -1 56q-1 15 -3 35q-3 21 -18 30q-35 21 -94 23q-59 3 -109 -16q-27 -10 -47 -27
q-21 -17 -30 -40q-7 -20 -29 -16q-17 4 -17 17q0 4 2 10zM1069 1434q-13 -98 -27 -195t-32 -193q-16 -91 -20 -182t-13 -183q-7 -63 -20 -125t-23 -124q-8 -54 -10 -109q-1 -56 -13 -108q-6 -29 -2 -57q3 -29 15 -53q22 -45 67 -69q45 -25 102 -6q50 16 87 59q36 44 61 88
q39 70 64 145q26 74 44 152q6 26 32 20q22 -6 22 -25v-8q-9 -46 -20 -98q-12 -52 -29 -104q-32 -98 -86 -183q-54 -86 -144 -124q-45 -18 -108 -21h-12q-56 0 -95 24q-46 29 -74 73q-27 44 -43 95q-27 89 -27 183q0 33 3 67q14 129 49 249q30 101 48 205q19 103 45 205
l52 208q25 103 56 206q6 20 23 20q4 0 8 -1q23 -7 20 -31zM432 920q60 19 120 19q8 0 16 -1q68 -2 137 -12q63 -9 128 -20q66 -10 125 -34q14 -6 14 -18q0 -5 -2 -11q-6 -20 -25 -21h-22q-51 0 -102 12q-62 14 -124 19q-60 4 -123 6q-62 2 -121 -13q-36 -9 -46 27
q-3 8 -3 14q0 24 28 33z" />
    <glyph glyph-name="I" unicode="I" horiz-adv-x="717" 
d="M36 1432q21 1 43 1q20 0 40 -1q43 -3 81 -19q37 -15 63 -40q26 -24 50 -56q39 -50 45 -110q6 -61 -1 -124q-4 -33 -9 -66q-6 -33 -9 -65q-11 -89 -24 -178t-29 -177l-16 -86l-18 -86q-6 -29 -16 -66t-12 -60q-2 -28 0 -57q2 -28 12 -54q6 -14 8 -30q1 -15 7 -29
q3 -8 5 -15q2 -8 2 -16q-7 12 -6 14q1 3 11 -4q60 -25 128 -18q68 6 121 45q57 42 88 99q32 56 58 117l28 66t32 64q10 17 31 10q15 -6 15 -18q0 -4 -1 -9q-31 -96 -78 -201q-46 -105 -128 -170q-47 -38 -104 -58q-46 -16 -96 -16q-11 0 -22 1q-19 1 -38 3q-19 3 -38 7
q-8 3 -16 5l-16 6q-19 8 -8 7q11 -2 -11 -2q-32 -1 -65 21t-48 49q-35 58 -33 131q2 72 15 135q20 90 38 180q18 91 33 181q16 99 29 197q12 99 23 198q4 38 13 91t-14 88q-28 42 -72 53q-43 11 -90 8q-27 -2 -27 25q0 26 26 29z" />
    <glyph glyph-name="J" unicode="J" horiz-adv-x="1189" 
d="M400 1220q-25 -14 -50 -29q-24 -14 -50 -27q-21 -10 -57 -28q-37 -18 -77 -30q-21 -7 -42 -11q-22 -3 -41 -2q-23 1 -42 11t-30 32t-11 41v4q2 21 12 38q20 31 61 52q40 21 74 34q47 19 98 33q51 15 104 25q69 12 139 12q29 0 59 -2q99 -8 186 -55q50 -27 86 -82
q36 -56 54 -107q21 -61 28 -125q7 -65 4 -129q-8 -127 -36 -252q-27 -125 -66 -246l-24 -72l-26 -72q-31 -85 -80 -157q-49 -71 -101 -144q-32 -44 -66 -84q-34 -39 -78 -72q-35 -25 -76 -53t-83 -40q-21 -6 -42 -6h-4q-22 1 -42 8q-36 13 -57 47q-20 34 -11 81
q14 73 61 127q48 54 112 87q81 42 168 74q86 32 173 60q86 27 169 57q84 30 161 78q51 32 103 74q51 42 79 98q11 23 35 11q16 -9 16 -22q0 -7 -4 -14q-40 -81 -122 -140q-83 -60 -161 -97q-110 -53 -227 -86t-230 -78q-56 -22 -121 -49q-64 -28 -103 -76q-19 -23 -33 -50
q-15 -27 -20 -56q-4 -26 8 -54q12 -27 48 -14q63 22 108 84t79 117q36 60 76 119t72 121q43 84 72 177t53 184q32 119 53 247q20 128 5 252q-6 49 -20 97q-13 48 -46 87q-22 26 -39 45q-16 20 -52 31q-38 11 -78 15q-40 3 -79 1q-86 -6 -175 -28q-89 -23 -163 -68
q-11 -7 -26 -16q-14 -10 -16 -25q-2 -17 10 -28t29 -10q26 1 51 7q26 5 50 15q49 18 96 42t94 46q18 8 29 -9q10 -17 -8 -26z" />
    <glyph glyph-name="K" unicode="K" horiz-adv-x="1505" 
d="M55 1250q9 31 29 57t47 47q50 38 114 57q60 19 113 19h7q105 -3 168 -61q64 -58 78 -162q8 -54 10 -107t-7 -108q-10 -67 -26 -134q-15 -66 -34 -132q-23 -82 -44 -166q-21 -83 -50 -164q-15 -41 -31 -81t-39 -77q-20 -32 -42 -62q-22 -31 -41 -63q-13 -21 -34 -21
q-9 0 -19 4q-36 12 -24 47q46 139 119 275q74 135 178 241q51 51 111 90q61 38 133 50q59 11 128 5q68 -6 115 -48q53 -47 74 -108t30 -129q5 -33 5 -66q1 -33 -2 -66q-2 -35 -7 -72q-5 -36 -1 -71q2 -13 9 -21q7 -9 18 -13q21 -7 52 -2q30 5 56 15q13 5 24 11t17 12
q53 48 93 109q40 60 74 123q8 16 27 9q15 -5 15 -16q0 -4 -2 -9q-26 -70 -69 -149q-44 -78 -106 -133q-34 -29 -73 -49q-40 -19 -85 -24q-69 -6 -126 24q-56 30 -70 105q-13 66 -9 133t4 134q-1 51 -11 115q-11 63 -55 97q-22 17 -47 24q-25 6 -52 4q-50 -4 -99 -29
q-48 -26 -82 -54q-60 -52 -108 -115q-48 -64 -89 -131q-36 -59 -74 -133q-39 -75 -33 -147q-21 2 -41 4q-21 2 -41 5q5 32 16 63t19 62q8 33 16 64q8 32 19 63q22 68 37 138q16 70 34 138q30 109 57 218q27 108 45 220q4 24 8 50t4 52q0 48 -18 89q-18 40 -73 56
q-48 15 -110 7q-61 -8 -111 -36q-27 -16 -48 -37q-20 -22 -31 -49q-6 -18 -26 -14q-15 3 -15 15q0 4 2 8zM498 687q35 23 69 48t69 48q48 29 96 60t91 67q45 37 87 78t75 89q29 40 46 82q18 42 32 89q6 19 24 19h4q22 -2 23 -25v-12q0 -65 -35 -128q-39 -69 -93 -128
q-28 -32 -58 -60t-56 -51q-81 -71 -166 -131q-84 -59 -188 -92q-5 -2 -10 -2q-13 0 -20 16q-2 7 -2 13q0 12 12 20z" />
    <glyph glyph-name="L" unicode="L" horiz-adv-x="1187" 
d="M178 1245q105 -21 215 -29t217 -2q17 1 49 3t52 16q9 6 13 14q5 9 3 21q-2 11 -19 9t-24 -3q-27 -4 -48 -14q-22 -10 -39 -31q-40 -49 -64 -116q-24 -66 -41 -126q-16 -59 -27 -120q-12 -60 -16 -121q-8 -106 -10 -211t-31 -209q-10 -36 -22 -78q-13 -41 -35 -72
q-22 -30 -42 -64q-20 -33 -48 -58q-17 -14 -36 -26q-19 -13 -40 -21q-35 -15 -72 -15h-8q-40 2 -74 35q-34 34 -34 80q0 8 1 17q8 57 46 93q43 41 99 62q56 20 114 27q71 7 130 -17q60 -25 118 -54q32 -16 64 -31q32 -14 67 -22q47 -12 96 -31t97 -20q41 0 80 12
q38 13 71 37q74 54 121 135q48 80 93 157q12 19 31 8q13 -7 13 -18q0 -6 -3 -12q-31 -64 -69 -135t-89 -130q-28 -32 -59 -58q-32 -26 -69 -43q-57 -27 -122 -34q-64 -7 -127 -6q-51 0 -100 12q-49 11 -96 33q-55 25 -107 67q-53 42 -116 47q-23 1 -67 -2t-85 -15
q-21 -6 -39 -16q-18 -9 -28 -23q-9 -13 -9 -30q0 -16 12 -37q8 -14 20 -20q12 -7 26 -9q25 -3 53 8t44 29q29 31 40 69t20 78q17 76 14 151q-3 76 -1 153q2 90 7 180q4 89 20 178q10 54 23 107q14 54 33 105t39 102q21 52 54 95q35 45 90 75q54 30 111 30q31 0 61 -11
q29 -10 55 -33q16 -15 27 -32q11 -18 17 -37q9 -35 -5 -69q-13 -33 -57 -50q-62 -25 -137 -22q-75 2 -140 6q-78 5 -156 14q-78 10 -154 28q-20 5 -15 25q5 19 24 15z" />
    <glyph glyph-name="M" unicode="M" horiz-adv-x="2049" 
d="M8 1215q35 58 84 110t110 82q48 24 107 33q13 2 26 2q44 0 82 -25q28 -18 48 -43q21 -24 36 -54q12 -24 24 -52q12 -27 17 -54q9 -49 10 -97q1 -11 1 -22q0 -38 -3 -76q-11 -129 -42 -260t-64 -258q-9 -32 -17 -65l-18 -64q-9 -31 -26 -56t-31 -53q-5 -10 -15 -21
q-10 -10 -19 -16q11 15 14 16t-3 -11l-8 -26q-4 -12 -8 -25l-14 -42t-18 -41q-7 -11 -15 -18t-18 -10q-8 -3 -15 -3q-20 0 -39 16q-27 22 -22 58q5 39 19 77q13 38 21 77q2 -12 4 -25q2 -12 3 -25q-21 45 -17 99q4 55 17 102q14 49 27 99q13 49 25 98q23 94 42 188t41 188
q9 38 17 77q7 38 16 76q8 35 18 76q10 42 -4 76q-8 23 -23 35q-14 13 -32 18q-33 10 -72 -1t-68 -30q-46 -30 -85 -69q-38 -40 -68 -85q-14 -21 -36 -9q-14 8 -14 19q0 7 5 14zM507 1151q44 46 86 95q43 49 93 91q21 18 45 35q23 18 49 30q23 11 40 24q17 12 44 15q9 1 18 1
q36 0 65 -18q37 -23 65 -57q16 -18 28 -38q13 -20 23 -39q36 -66 42 -143q2 -36 2 -71q0 -40 -3 -79q-10 -110 -31 -218q-20 -107 -44 -215q-13 -62 -40 -118q-26 -56 -40 -118q-8 -42 -18 -83q-9 -41 -22 -82q-12 -39 -50 -38h-1q-39 1 -52 29q-3 8 -4 16q0 9 3 19
q11 38 20 76q9 39 17 78q6 27 9 51t1 51q-2 25 -2 50t1 50q3 103 19 206q17 104 29 206q2 22 0 4q-1 -17 1 4v7q1 4 1 8q1 6 1 13q1 6 1 12q2 33 2 65q-1 31 -2 64q-1 25 -2 62t-11 69q-5 18 -14 32q-10 14 -24 22q-18 11 -33 14q-14 3 -32 -7q-23 -12 -44 -27
q-21 -16 -41 -33q-41 -36 -80 -75q-38 -39 -78 -76q-18 -17 -36 0q-10 9 -9 18q0 9 8 18zM1041 1183q12 20 25 38q14 18 30 35q52 54 118 96q66 43 141 58q36 7 73 9h8q32 1 62 -14q17 -8 35 -16q17 -8 31 -20q9 -8 16 -17q8 -9 15 -19l9 -12t-5 4q42 -49 50 -115
q7 -66 6 -128q-1 -75 -9 -149q-9 -74 -21 -147q-13 -72 -30 -143q-17 -72 -27 -144q-6 -52 -14 -106q-7 -54 5 -105q5 -25 20 -42q14 -18 34 -29q37 -20 86 -19q49 0 91 14q94 32 155 97t94 157q10 28 39 21q23 -5 23 -24q0 -6 -2 -12q-9 -35 -22 -69q-13 -35 -33 -65
q-19 -27 -44 -53q-26 -27 -57 -50q-57 -43 -126 -72q-69 -28 -138 -30h-7q-53 0 -101 20q-52 20 -91 70q-30 39 -40 91t-12 99q-4 68 -2 136q2 67 2 136q0 135 21 271q21 135 8 271q-2 19 0 11q1 -9 -1 2q-2 10 -3 18t-1 18q0 15 3 2q2 -12 -4 1q-3 8 -8 17q-4 8 -7 17
q-9 25 -39 32q-30 6 -52 4q-78 -7 -146 -64q-69 -56 -117 -112q-14 -16 -33 -2q-12 9 -12 19q0 7 4 14z" />
    <glyph glyph-name="N" unicode="N" horiz-adv-x="1475" 
d="M-57 1219q34 58 93 119q58 62 129 91q39 16 79 18q5 1 11 1q34 0 69 -14q38 -15 66 -40q28 -26 48 -57q36 -59 49 -132q12 -74 13 -141v-15q0 -115 -21 -233q-23 -125 -54 -243q-16 -61 -37 -120t-66 -104q-7 -7 -16 -19t4 11l-6 -10l-4 -10l-10 -18q-4 -9 -10 -19
q-11 -19 -23 -38q-12 -20 -29 -35q-9 -8 -20 -12q-10 -4 -20 -4h-1q-29 -1 -49 25t-4 61q8 16 17 32q10 16 18 32q5 10 9 19q5 9 9 19q2 7 3 5q1 -3 0 -15q-2 7 -3 15q-1 7 0 15q-1 49 10 97q11 47 25 95q25 93 44 191q19 97 29 191q4 44 11 87q6 44 10 82q2 21 4 43
q2 21 5 42q-1 -8 1 14q2 23 3 27q1 10 3 20t-1 20q-19 65 -75 70q-57 5 -107 -26q-50 -30 -90 -71q-41 -42 -71 -90q-13 -21 -36 -9q-14 8 -14 19q0 7 5 14zM458 1187q10 17 21 33t24 31q32 34 75 68q44 34 94 58q32 17 66 28q33 11 67 15q17 2 33 2q44 0 85 -15
q57 -22 97 -86q-13 22 4 -3q17 -24 13 -18q5 -8 8 -17q4 -8 7 -17q4 -12 7 -23q2 -11 4 -23q5 -31 8 -63q3 -31 3 -63q1 -74 -4 -149q-6 -75 -18 -148q-12 -71 -27 -141q-15 -71 -22 -142q-6 -54 -12 -111q-7 -57 7 -111q6 -25 21 -42q15 -18 35 -28q38 -21 87 -20
q49 0 91 14q93 32 152 97t89 157q10 28 39 21q24 -5 24 -25q0 -5 -2 -11q-8 -32 -18 -63q-11 -32 -28 -60q-42 -71 -113 -124q-70 -54 -150 -74q-47 -11 -102 -13h-11q-49 -1 -92 14q-26 9 -50 23q-23 15 -41 37q-33 41 -46 92q-14 50 -18 102q-6 68 -6 136q0 67 -1 136
q-2 137 15 274q17 138 1 274q-2 12 0 3q1 -8 -3 10q-2 10 -3 19q-1 8 -1 18q0 11 0 5t2 -9l-10 20t-9 21q-9 25 -40 32t-53 5q-77 -9 -144 -65q-66 -56 -113 -112q-15 -17 -34 -2q-12 9 -12 19q0 7 4 14z" />
    <glyph glyph-name="O" unicode="O" horiz-adv-x="1434" 
d="M1090 1259q-39 54 -101 104q-63 50 -134 47q-64 -2 -124 -3q-59 -2 -120 -26q-126 -51 -226 -144q-99 -92 -155 -217q-20 -44 -35 -93q-15 -48 -25 -100q-17 -95 -9 -191q7 -97 49 -179q61 -115 167 -187q107 -71 239 -79q108 -6 209 31q102 38 175 118q69 76 114 177
q44 101 49 204q3 56 -2 125q-6 70 -37 121q-18 28 -44 46q-27 19 -66 24q-38 5 -83 -25q-46 -30 -70 -55q-29 -30 -53 -65q-23 -35 -37 -75q-32 -91 -32 -203t43 -205q24 -51 60 -91q37 -41 89 -66q70 -34 154 -44q83 -10 158 17q81 30 126 97q45 66 68 145q7 25 33 19
q20 -5 20 -23q0 -4 -1 -9q-20 -82 -65 -160q-44 -77 -124 -117q-82 -40 -169 -41t-174 12q-73 10 -147 44q-74 33 -125 88q-61 67 -84 158t-20 180t36 182q32 94 84 166q18 24 39 47t45 44q45 38 99 58q55 21 113 5q75 -19 135 -60q59 -42 80 -123q26 -97 21 -202
q-5 -106 -41 -200q-35 -87 -84 -165q-50 -78 -124 -138t-172 -98q-91 -35 -180 -35h-14q-80 3 -158 23t-150 54q-67 32 -134 82q-67 51 -104 118q-31 56 -48 119q-17 62 -23 128q-4 37 -4 75q0 85 17 170q25 124 74 229q25 54 59 105q33 52 73 99q75 87 172 149t209 78
q53 7 107 7q23 0 46 -1q78 -4 144 -45q70 -43 128 -89q57 -46 99 -120q10 -17 -7 -27q-16 -10 -28 6z" />
    <glyph glyph-name="P" unicode="P" horiz-adv-x="1106" 
d="M539 1164q25 44 62 79q36 35 76 65q30 22 65 50q36 27 74 33q50 9 112 10h7q58 0 103 -23q51 -27 78 -78t34 -106q3 -21 3 -42q0 -92 -53 -172q-65 -97 -157 -157q-51 -33 -101 -54t-106 -40q-53 -18 -114 -24q-8 -1 -15 -1q-53 0 -92 39q-8 7 -8 16q0 5 3 10q6 14 22 15
q54 7 101 18t95 40q33 20 67 42q34 21 63 46q32 28 68 64t60 77q13 23 20 47q8 24 7 48q0 32 -11 70q-10 37 -41 55q-29 16 -70 27q-41 12 -75 2q-67 -20 -134 -69t-107 -106q-11 -16 -28 -7q-18 9 -8 26zM77 1267q24 39 53 73q28 35 64 63q34 27 69 40q35 12 72 31
q17 9 39 13q21 4 40 2q22 -2 41 0q4 1 8 1q16 0 33 -8q40 -17 61 -57q22 -40 29 -81q16 -93 -4 -183q-21 -90 -34 -181q-15 -102 -23 -204q-9 -103 -25 -205q-13 -81 -30 -162q-17 -80 -46 -158q-16 -44 -42 -79q-25 -35 -59 -68q-25 -26 -52 -50q-26 -25 -60 -40
q-23 -11 -61 -20q-28 -6 -54 -6q-10 0 -20 1q-19 2 -35 8q-16 7 -26 20q-14 17 -17 35q-2 8 -2 16q0 11 3 21q8 34 35 63t57 42q69 29 140 30t144 1q32 -1 65 1q33 1 65 -3q25 -3 48 -13q24 -9 47 -19q57 -25 110 -21q52 5 111 25q102 35 174 111q73 76 116 173q8 17 27 9
q16 -6 15 -18q0 -3 -1 -7q-30 -85 -90 -167q-59 -82 -140 -127q-61 -34 -136 -63q-75 -28 -147 -18q-48 6 -92 30q-44 23 -91 34q-67 17 -144 20q-77 4 -145 -13q-34 -8 -71 -28t-43 -61q-3 -22 34 -18q38 5 49 11q68 37 91 105q23 67 47 134q27 77 44 158q16 80 29 161
q16 108 24 218q7 110 28 217q10 50 22 104q13 53 12 105q0 28 -6 56q-6 27 -20 53q-4 6 -7 13q-4 7 -6 14q11 -9 9 -12q-1 -2 -15 3q-11 0 -21 2q-10 1 -21 3q-21 5 -48 -4t-46 -19q-43 -22 -77 -55t-62 -71q-11 -16 -29 -7t-7 26z" />
    <glyph glyph-name="Q" unicode="Q" horiz-adv-x="1372" 
d="M751 1412q-31 18 -68 27q-36 8 -73 -3q-26 -8 -55 -30q-29 -21 -52 -38q-43 -31 -77 -76q-34 -46 -63 -89q-72 -106 -117 -222q-46 -117 -65 -243q-14 -90 -15 -180q-1 -91 42 -169q50 -92 130 -160q81 -67 189 -76q167 -13 291 71q123 85 191 233q64 139 89 296
q26 157 -11 308q-19 74 -53 146q-34 73 -95 122q-25 20 -65 40q-41 20 -75 6q-15 -7 -32 -10q-18 -2 -30 -16q-14 -15 -18 -34q-4 -18 -8 -38q-3 -18 -6 -40q-2 -21 2 -39q2 -8 9 -28q8 -19 1 -16q37 -19 84 -23q48 -4 87 11q57 22 98 71q40 50 70 107q16 31 30 62t27 58
q12 25 36 11q24 -13 13 -37q-34 -79 -75 -157t-108 -136q-62 -53 -147 -70q-86 -17 -163 16q-28 12 -59 34q-31 23 -38 71q-6 42 -4 84q3 42 23 81q20 38 51 72q31 33 72 49q39 14 70 7q32 -6 69 -18q66 -21 120 -64q54 -42 91 -101q83 -131 100 -291q5 -53 5 -105
q0 -104 -22 -203q-31 -137 -89 -273q-57 -137 -169 -229q-62 -50 -133 -81q-72 -30 -152 -38q-30 -3 -59 -3q-42 0 -81 7q-67 11 -138 29q-55 14 -101 42t-82 67q-67 72 -101 170t-34 197q1 171 46 354q46 182 150 321q51 69 117 124q66 54 141 94q64 34 142 34h15
q87 -4 152 -50q16 -11 7 -28t-27 -8zM354 326q13 42 42 70q30 29 71 43q34 12 79 22q44 10 80 -2q22 -6 43 -16q22 -10 41 -22q21 -14 41 -25q21 -12 38 -31q27 -30 52 -62t56 -58q17 -14 33 -28t31 -31q12 -14 21 -23q10 -8 30 -12q37 -8 73 -3q36 6 72 20q94 38 144 125
q51 87 72 180q4 18 19 18q4 0 9 -1q18 -5 18 -21v-7q-18 -93 -62 -180q-43 -87 -120 -147q-67 -53 -140 -60q-43 -4 -89 -4q-31 0 -64 2h-19q-9 -1 -19 0q-7 1 -34 6q-27 6 7 2q-31 4 -56 20q-24 16 -46 36q-29 28 -56 60q-26 32 -52 63q-17 21 -29 43q-12 23 -29 43
q-13 16 -25 22q-13 6 -30 15q-46 23 -96 -2q-51 -26 -68 -70q-7 -16 -25 -9q-14 6 -14 17q0 3 1 7z" />
    <glyph glyph-name="R" unicode="R" horiz-adv-x="1331" 
d="M-4 1314q23 80 96 106q50 18 102 18q22 0 45 -3q88 -13 158 -61q69 -47 100 -135q46 -132 47 -272q0 -141 -22 -277q-11 -68 -29 -135q-19 -66 -35 -133q-11 -48 -23 -95q-12 -48 -29 -94q-29 -78 -74 -134q-44 -54 -123 -54h-8q-72 2 -107 56q-35 55 -34 120
q4 136 53 261q50 126 120 242q38 62 79 122t81 118q67 97 146 186q80 90 179 150q53 33 112 54q59 22 126 30q75 8 128 -28t74 -110q23 -81 10 -159q-13 -79 -61 -148q-50 -71 -116 -142q-67 -71 -146 -109q-38 -19 -77 -34t-81 -22q-32 -5 -75 -9q-44 -3 -72 19
q-29 22 -38 44t-3 42q11 37 58 66t101 42q36 9 70 9t57 -11q50 -25 78 -63q27 -39 38 -86q14 -57 12 -121q-3 -65 -9 -127q-4 -33 -6 -64q-3 -32 -4 -60q0 -13 -9 -60q-10 -47 5 -55q39 -18 81 -12q43 6 81 19q89 32 169 104q79 73 112 162q9 22 33 17q18 -4 18 -19
q0 -5 -1 -10q-27 -108 -110 -189q-82 -81 -173 -137q-42 -26 -103 -50q-60 -23 -116 -17q-30 3 -56 18q-26 14 -45 44q-21 33 -21 73t11 77q11 36 30 68q20 31 30 68q7 23 12 50q6 27 10 56q6 53 2 107t-29 95q-35 60 -103 66q-67 7 -123 -32q-8 -5 -22 -15q-13 -11 -12 -23
q4 -26 26 -16q22 9 33 15q31 16 61 37t56 44q65 56 130 110q65 55 109 130q18 30 45 78t33 95q3 25 -3 48q-6 22 -26 40q-43 36 -106 25q-63 -12 -121 -40q-31 -16 -58 -33q-28 -17 -47 -32q-80 -59 -144 -136q-64 -76 -120 -158q-61 -89 -121 -180q-59 -91 -105 -189
q-24 -51 -43 -104t-30 -108q-7 -42 -14 -93q-6 -50 11 -92q7 -16 23 -20t30 6q15 9 11 6t-10 -12l6 10l6 10q19 28 34 60t25 65q28 84 49 173q22 89 41 176q25 113 44 231q20 119 15 235q-4 79 -26 154q-22 74 -102 109q-20 9 -44 15q-25 5 -50 7q-47 2 -88 -15
q-42 -18 -59 -64q-7 -18 -26 -14q-16 3 -15 16q0 3 1 7z" />
    <glyph glyph-name="S" unicode="S" horiz-adv-x="1331" 
d="M840 1172q13 12 25 26t20 29q15 28 10 55t-45 45q-33 14 -76 10t-77 -16q-35 -13 -55 -40q-19 -26 -48 -46q-25 -18 -46 -39q-22 -22 -41 -45q-36 -45 -60 -96q-25 -51 -32 -106q0 3 0 -13q-1 -16 0 -22q2 -18 0 -5q-3 13 2 -3q0 -3 3 -11t-3 5l4 -8t5 -8q-9 13 -4 7
q4 -6 7 -8q-12 10 -6 5q6 -4 10 -6q-14 6 -5 3q10 -4 12 -4q48 -13 98 -15q51 -3 102 -3q33 0 65 -1q33 -1 65 -5q59 -8 112 -31q53 -24 95 -78q29 -38 41 -81q12 -44 10 -89q-2 -86 -39 -171q-37 -86 -83 -146q-103 -134 -255 -231t-319 -125q-52 -9 -108 -10h-5
q-53 0 -99 24q-21 12 -42 23q-21 12 -43 21q-15 6 -29 13q-13 7 -24 19q-15 18 -20 38q-2 11 -2 22q0 9 2 19q7 39 33 75q27 36 52 59q63 57 140 84q76 26 161 20q93 -6 178 -36q86 -30 176 -50q59 -12 122 -11q62 1 124 14q114 25 216 90q101 65 164 160q14 22 37 9
q15 -7 15 -20q-1 -6 -5 -14q-28 -48 -68 -90q-39 -42 -86 -77q-88 -64 -195 -100q-107 -35 -209 -34q-90 1 -174 28q-83 27 -169 50q-55 14 -118 21t-121 -6q-32 -7 -61 -21t-53 -37q-25 -23 -52 -54q-26 -31 -31 -67q-1 -9 3 -15t11 -9q21 -10 60 -3q38 7 52 9q51 8 101 11
q49 3 99 17q43 13 83 30q41 17 80 38q67 38 131 83q63 46 120 98q23 22 46 46q22 23 42 49q19 24 40 51q20 27 30 56q24 70 5 131q-18 60 -88 94q-48 24 -98 22t-100 -13q-26 -6 -53 -14q-27 -7 -52 -13q-63 -15 -131 -12q-69 3 -115 57q-39 47 -47 106t3 118q14 66 44 128
q31 61 73 114q24 30 51 56q28 27 58 50q30 22 64 31t71 14q36 4 73 11q25 5 50 5q12 0 23 -1q32 -2 67 -17q34 -14 61 -33q24 -17 36 -36t14 -40q5 -38 -18 -76t-58 -66q-15 -13 -29 1q-15 13 0 27z" />
    <glyph glyph-name="T" unicode="T" horiz-adv-x="1228" 
d="M607 1331q3 -26 10 -51t1 -58q-6 -28 -11 -56l-12 -56q-14 -71 -30 -142q-15 -70 -27 -141q-25 -139 -41 -288q-16 -150 17 -289q15 -60 42 -111q27 -50 70 -94q33 -34 89 -44q57 -11 113 -3q30 3 57 12q28 8 48 20q41 25 74 58q34 33 62 71q52 72 90 156q37 84 72 160
q9 19 30 11q16 -7 16 -20q1 -4 -1 -9l-6 -24l-8 -24q-24 -71 -60 -141q-36 -69 -77 -131q-41 -60 -93 -115q-53 -55 -124 -79q-67 -22 -134 -22q-17 0 -34 1q-84 7 -168 25q-83 17 -130 79q-48 62 -71 138q-38 126 -38 260q0 31 2 63q11 167 37 324q13 79 29 158
q16 78 33 156q8 34 15 67q8 34 15 67q6 32 21 51t26 45q5 12 13 18t17 8q4 1 9 1q17 0 33 -12q22 -15 24 -39zM325 1111h-25h-29q-29 1 -58 4q-55 7 -105 27q-51 20 -78 66q-19 32 -23 63q-1 10 -1 19q0 21 5 40q15 52 62 90q48 39 105 51q71 15 142 15t141 -15
q141 -30 271 -85q55 -22 109 -48q55 -25 110 -43q29 -9 58 -19q29 -9 58 -17q33 -9 68 -5q34 5 67 12q19 4 30 -17q3 -7 3 -13q0 -11 -14 -17q-95 -42 -195 -59q-99 -16 -201 18q-109 37 -214 85q-105 47 -219 70q-57 11 -115 15q-57 3 -115 3q-20 0 -42 4t-39 -9
q-18 -14 -20 -43q-3 -29 5 -49q9 -24 27 -40q18 -17 41 -28q44 -21 97 -26q53 -6 93 -7q20 -1 20 -21q1 -20 -19 -21z" />
    <glyph glyph-name="U" unicode="U" horiz-adv-x="1639" 
d="M2 1072q31 53 52 119q21 67 70 107q52 43 123 49q11 1 21 1q59 0 108 -31q100 -65 129 -166q29 -100 25 -210q-2 -58 -10 -117t-15 -114q-9 -70 -18 -141q-9 -70 -10 -142q-1 -66 3 -137q4 -70 31 -132q13 -32 29 -51q15 -19 55 -32q45 -15 89 -25q44 -11 91 -10
q52 1 98 13t89 42q31 21 58 46l56 50q21 18 41 0q10 -10 10 -20t-9 -20q-54 -59 -110 -114t-139 -72q-85 -17 -182 -19h-6q-95 0 -173 35q-37 17 -71 36t-59 52q-18 25 -28 58t-15 63q-13 69 -17 139q-4 71 -1 141q4 78 15 155t21 155q10 84 11 165t-1 166q-1 31 -11 69
q-10 37 -33 60q-28 28 -68 41q-41 13 -78 -11q-35 -23 -56 -60q-21 -38 -38 -77q-10 -22 -20 -42q-9 -21 -21 -39q-10 -17 -28 -7q-11 6 -11 15q0 6 3 12zM1164 1290l3 -3l3 -3q-16 19 -1 1q16 -18 16 -19q5 -8 8 -18q2 -10 5 -19q6 -24 8 -52q1 -28 -1 -53q-4 -66 -10 -132
q-5 -66 -11 -132q-10 -117 -24 -234t-22 -234q-4 -63 -3 -126t21 -123q6 -17 10 -43q5 -25 23 -37q25 -16 54 -26t59 -7q53 5 99 28t85 58q72 65 113 160q42 94 46 185q1 20 21 20q21 1 21 -20v-14q0 -74 -24 -146q-26 -79 -72 -146q-43 -62 -101 -119q-58 -56 -131 -82
q-51 -18 -104 -18q-16 0 -33 2q-69 7 -128 50q-66 49 -91 118q-24 69 -27 147q-2 33 -2 66q0 103 14 207q19 136 31 271q7 76 13 152q7 75 12 151q2 30 7 60q4 30 9 60q2 10 6 23q3 12 8 22q4 6 18 25t-12 -20l2 4t2 3q12 22 37 26q5 1 9 1q19 0 34 -14z" />
    <glyph glyph-name="V" unicode="V" horiz-adv-x="1536" 
d="M17 1124q-10 24 -10 46q0 7 1 14q4 28 20 53q14 20 34 38q20 17 43 31q45 26 94 39q42 12 75 12q7 0 13 -1q72 -5 133 -59q60 -53 88 -117q20 -44 33 -88t23 -92q28 -127 51 -256q23 -128 45 -257q17 -97 33 -196t42 -194l-74 8t-74 9q18 37 38 80q20 44 53 70
q38 30 64 70q25 39 51 80q39 61 72 126t66 129q36 69 73 140q36 71 85 132q16 20 35 38q19 19 39 36q37 34 71 69q35 35 53 81q7 16 6 47q-1 32 -13 40q-5 3 -13 0t-19 -16q-18 -23 -32 -50q-13 -27 -27 -52q-37 -68 -66 -139q-29 -72 -54 -144q-26 -77 -51 -162t-27 -167
q-1 -61 24 -114q24 -52 81 -80q40 -20 85 -27q44 -7 88 -2q82 9 155 55t111 119q10 20 30 9q13 -7 13 -19q0 -5 -3 -12q-27 -59 -73 -102t-102 -70q-104 -50 -223 -41q-118 9 -199 80q-41 36 -68 89q-26 53 -31 124q-6 109 22 217t74 210q26 55 54 107q29 52 59 101
q16 27 36 48q21 21 46 40q19 16 42 35q24 19 49 25q24 5 41 -2q17 -6 29 -20q22 -25 25 -66q4 -41 -7 -72q-23 -73 -82 -125q-59 -53 -110 -105q-52 -54 -87 -125q-36 -70 -68 -137l-66 -136q-34 -68 -67 -137q-21 -45 -43 -91t-27 -96q-3 -43 -28 -85q-24 -42 -43 -80
q-7 -15 -18 -24t-24 -13t-26 -4q-18 0 -38 8q-32 15 -42 50q-21 78 -35 158q-13 81 -27 161q-19 113 -39 226q-19 114 -41 227q-10 50 -20 99q-10 50 -22 99q-9 40 -16 80q-6 39 -19 78q-11 31 -32 65q-21 33 -58 40q-25 4 -48 1q-24 -2 -47 -10q-16 -6 -33 -14t-33 -18
q-29 -19 -46 -47q-18 -27 -7 -64q5 -20 -14 -24q-19 -5 -26 13z" />
    <glyph glyph-name="W" unicode="W" horiz-adv-x="1823" 
d="M7 1277q29 58 84 105t121 60q25 5 48 5q39 0 72 -15q51 -23 89 -80q50 -74 61 -168q11 -95 2 -181q-12 -111 -34 -220t-40 -219q-10 -64 -20 -129q-11 -65 -10 -131q0 -16 1 -34q1 -19 4 -37q5 -34 19 -62q14 -27 43 -32q45 -8 87 -6q43 2 81 31q27 21 48 49q21 27 38 56
q32 56 62 115q30 60 77 106q14 13 32 1q10 -7 11 -16q0 -6 -5 -13q-39 -59 -68 -122q-30 -62 -66 -122q-37 -62 -87 -106q-51 -44 -116 -74q-45 -20 -85 -29q-16 -3 -33 -3q-26 0 -55 8q-32 8 -60 30q-28 23 -43 51q-32 58 -40 124t-4 130q12 184 51 365q40 180 62 363
q6 46 9 92q4 46 4 93q0 35 -8 72q-8 38 -46 54q-24 10 -50 9t-51 -11q-48 -17 -88 -55t-61 -74q-10 -18 -28 -8q-12 7 -11 17q0 5 3 11zM967 1380q31 -39 41 -77q9 -37 4 -86q-5 -47 -15 -92t-18 -91q-15 -90 -27 -182q-12 -93 -22 -183q1 13 -1 -5q-1 -19 -2 -24
q0 -11 -1 -22q-1 -10 -1 -21q-1 -27 -1 -55q0 -27 2 -54q2 -49 10 -101q8 -53 30 -95q12 -26 27 -45q14 -20 27 -41q7 -14 9 -19q2 -6 14 -14q10 -8 27 -9q16 -2 29 -2q57 -1 105 25q47 25 85 68q66 76 104 170t71 188q32 93 59 190q27 96 40 194q6 40 9 81q4 41 3 81v55
q-1 44 -15 50q-20 8 -37 -18q-18 -25 -25 -42q-13 -26 -17 -58q-5 -31 -4 -60q1 -44 -11 -88q-11 -45 -21 -87q-17 -79 -26 -139q-10 -61 -7 -140q3 -70 12 -141q9 -70 33 -137q8 -25 18 -48q9 -24 27 -46q-7 8 1 2q7 -7 -2 -1q9 -6 18 -13l18 -12q19 -12 37 -14q18 -3 39 4
q79 27 128 100q50 73 86 143q10 19 29 8q13 -7 13 -18q0 -6 -3 -12q-16 -37 -35 -74q-19 -36 -41 -70q-42 -62 -100 -107q-57 -45 -138 -55q-73 -9 -134 16t-92 97q-30 70 -46 144t-22 150q-6 64 -7 131q-1 66 10 131q8 50 20 101q12 52 29 99q8 21 15 43t18 41q8 16 19 30
t21 29q11 16 33 51q23 36 52 67q16 17 32 30q17 13 34 19q16 5 32 3q15 -3 30 -18q14 -14 22 -32q8 -19 11 -41q7 -40 4 -83q-3 -44 -5 -75q-7 -87 -24 -171q-17 -85 -41 -168q-34 -122 -79 -251q-44 -129 -118 -234q-37 -52 -85 -91q-48 -40 -110 -58q-33 -10 -69 -13
q-11 -1 -23 -1q-24 0 -47 4q-29 6 -60 4q-30 -1 -56 16q-40 24 -67 62q-28 37 -45 83q-32 84 -37 182q-3 52 -3 97q0 41 2 77q5 80 18 159t23 159q12 100 31 201q19 100 20 201q0 27 22 47q22 21 47 21q11 0 21 -5q11 -5 19 -15z" />
    <glyph glyph-name="X" unicode="X" horiz-adv-x="1536" 
d="M4 1340q21 48 57 84q37 36 81 57q59 28 125 28q25 0 52 -4q94 -16 156 -97q56 -75 105 -152q49 -78 90 -162q44 -91 85 -184l82 -186q33 -75 69 -150q35 -75 79 -144q18 -29 38 -56q19 -27 43 -51q19 -20 31 -46t36 -40q43 -25 102 -14q59 12 100 33q74 39 119 94
q45 56 83 128q9 18 29 10q15 -6 15 -20q0 -3 -1 -7q-10 -45 -32 -88t-53 -81q-57 -70 -138 -117q-81 -46 -168 -50h-12q-50 0 -96 17q-52 19 -102 44q-32 16 -59 53q-27 38 -47 67t-38 59q-19 31 -35 62q-93 176 -171 360q-77 183 -167 361q-20 40 -33 83t-29 84
q-11 27 -31 66q-20 40 -45 55q-50 31 -106 18q-55 -12 -101 -46q-24 -19 -44 -41q-20 -23 -34 -47q-9 -17 -26 -8q-12 7 -12 18q0 4 3 10zM232 116q-24 36 -24 78q0 18 4 37q15 63 50 119q19 29 41 55q22 25 42 43q93 82 190 160q96 78 196 150t199 152q98 79 169 181
q32 45 64 100t29 113q-1 23 -15 57t-42 39q-35 7 -61 -16t-42 -50q-10 -16 -29 -9q-19 6 -13 25q15 48 55 85q34 31 78 31q8 0 16 -1q52 -6 85 -46q32 -41 44 -89q8 -32 8 -64q0 -50 -18 -99q-31 -81 -83 -151q-28 -38 -59 -71q-31 -34 -61 -62q-109 -101 -232 -180
q-124 -80 -247 -162q-56 -38 -115 -80q-58 -42 -106 -89q-25 -25 -53 -65q-29 -40 -40 -83q-7 -23 -6 -45t12 -42q10 -17 -7 -28q-7 -3 -12 -3q-10 -1 -17 10z" />
    <glyph glyph-name="Y" unicode="Y" horiz-adv-x="1147" 
d="M5 1264q38 73 103 128t147 73q17 4 33 4q20 0 38 -6q32 -11 56 -35q46 -45 67 -117q22 -73 21 -128q0 -69 -15 -133t-38 -129q-4 -10 -11 -28t-14 -40q-10 -32 -15 -63q-4 -32 10 -46q32 -34 95 -42q63 -9 106 -3q59 9 112 37q52 29 98 65q20 15 38 -1q10 -9 10 -17
q0 -9 -10 -18q-80 -76 -179 -116q-78 -31 -163 -31q-24 0 -49 3q-47 5 -94 21q-47 17 -75 60q-29 42 -34 91q-5 48 7 97q14 60 35 118q22 58 30 120q4 30 3 62q0 31 -3 61q-3 21 -5 49q-3 28 -14 47q-15 25 -35 34q-20 8 -42 5q-34 -5 -69 -30q-35 -26 -63 -55
q-15 -15 -27 -30q-11 -15 -18 -27q-11 -16 -28 -7q-12 6 -12 16q0 5 4 11zM1022 1398q21 -120 12 -247t-23 -247q-11 -93 -26 -186t-38 -184q-29 -122 -79 -235q-49 -113 -118 -211q-41 -57 -94 -114q-54 -58 -117 -91q-62 -32 -130 -47q-68 -14 -137 -21q-31 -3 -76 -5h-13
q-37 0 -65 13q-18 8 -30 24q-11 15 -12 40q-1 4 -1 9q0 55 34 108q36 57 92 78q101 39 206 49q106 10 212 10q81 0 156 11q76 11 148 50q80 43 140 109q61 65 88 153q7 22 30 17q17 -5 17 -19q0 -4 -1 -9q-40 -128 -143 -219q-104 -91 -233 -123q-65 -17 -131 -17l-132 -2
q-50 -1 -100 -3q-50 -3 -99 -13q-37 -8 -90 -20t-81 -40q-11 -11 -26 -34t-22 -47q-3 -12 -3 -24t6 -21q10 -15 56 -4q47 11 60 15q40 11 78 25q39 14 77 27q21 7 41 15q21 7 38 20q27 19 47 34q19 16 45 44q29 29 49 56q21 27 40 62q53 97 85 209q32 113 53 222
q16 84 27 168q10 84 18 169q11 110 14 223t28 220q8 33 42 44q13 4 24 4q19 0 35 -10q8 -6 14 -15q6 -8 8 -20z" />
    <glyph glyph-name="Z" unicode="Z" horiz-adv-x="1311" 
d="M174 1240q31 67 95 95q63 28 135 31h17q30 0 59 -4q39 -4 72 -13q30 -7 59 -17q29 -9 59 -15q43 -7 85 -9q43 -1 86 0q45 1 90 6q44 6 89 7q52 2 100 13q48 12 97 28q20 7 37 -9q17 -17 11 -37q-12 -37 -27 -73q-15 -35 -32 -70q-11 -25 -27 -49q-17 -23 -27 -48
q-19 -42 -43 -80q-24 -39 -56 -72q-72 -73 -153 -134q-80 -60 -169 -113t-179 -108t-172 -120q-15 -12 -30 -22q-15 -11 -31 -20q-7 -4 -14 -7q-7 -2 -14 -5q-10 -3 -12 -4q-1 0 6 3q-20 -19 -39 -38q-18 -20 -37 -39q-38 -42 -75 -84t-67 -91l-22 28l-22 28q97 32 194 74
q97 41 197 60q55 11 110 11t112 -15q100 -25 204 -33q105 -8 206 4q78 9 156 57q78 47 111 120q8 18 29 10q17 -6 16 -19q0 -4 -1 -8q-26 -75 -88 -128q-61 -53 -132 -83q-95 -41 -196 -66t-205 0q-78 18 -157 44q-78 27 -160 17q-93 -10 -188 -42q-94 -33 -178 -74
q-11 -5 -20 -5q-14 0 -26 12q-12 11 -12 26q0 9 5 19q24 55 52 108q28 52 66 99q17 21 36 41q18 19 37 38q20 19 32 43q12 23 33 42q78 71 169 128q91 58 181 112q83 51 169 98q86 48 166 104q36 25 71 53q35 29 71 54q54 37 74 107q20 69 33 128q14 -10 28 -21
q15 -11 29 -21q-85 -39 -171 -76q-87 -37 -180 -45q-81 -7 -161 7q-80 13 -154 49q-29 14 -64 29q-34 15 -70 26q-67 21 -132 13q-65 -7 -105 -75q-10 -17 -27 -8q-17 10 -9 28z" />
    <glyph glyph-name="bracketleft" unicode="[" horiz-adv-x="840" 
d="M672 1224q-42 21 -97 17q-56 -4 -101 -6q-29 -1 -59 -3t-59 -4q-12 -1 -21 -3t-19 -8q-2 -1 -14 -9t-2 1q6 14 11 27l10 26q-2 27 -1 2t0 -28l-2 -12q-2 -6 -3 -12q-4 -16 -9 -32l-8 -32q-11 -37 -18 -74q-8 -38 -13 -75q-10 -72 -16 -144q-6 -73 -10 -145
q-9 -198 1 -394q11 -197 11 -394q-11 18 -22 37q-12 19 -23 37q17 -8 33 -18t36 -11q14 -1 29 -2q14 -1 29 -3q29 -2 59 -5l58 -4q64 -4 127 -4t126 -2q30 -1 34 -29v-7q0 -23 -24 -31q-62 -21 -129 -24t-132 0q-60 3 -124 9q-64 7 -119 -19q-21 -10 -43 -10q-22 -1 -44 10
q-44 20 -44 73q-1 201 -11 401q-6 101 -6 202q0 99 5 199q4 80 11 160q6 80 19 159q6 37 14 75q7 38 19 74q6 17 13 35q6 19 15 35q3 6 7 11q3 5 7 10q14 22 13 17q0 -6 -14 -37q4 38 38 64q17 14 36 14q18 0 36 -12q44 -27 106 -21q62 7 112 4q46 -3 101 -8t95 -32
q21 -14 9 -35q-11 -22 -33 -10z" />
    <glyph glyph-name="backslash" unicode="\" horiz-adv-x="788" 
d="M161 1198q1 -8 1 -15t1 -15q0 -16 0 -15l14 -9q13 -8 25 -26q12 -17 18 -32q15 -33 28 -69q12 -35 20 -71q17 -77 33 -154q17 -77 45 -151q16 -42 34 -84q17 -41 35 -82q16 -38 29 -77q14 -39 33 -76q20 -37 35 -75q15 -37 39 -73q22 -34 45 -70q22 -35 38 -73q2 -5 2 -9
q0 -9 -7 -17q-6 -7 -13 -7q-6 0 -12 5q-34 25 -62 57q-28 31 -53 66q-25 37 -53 73q-27 37 -49 76q-23 39 -48 76q-26 36 -47 76t-38 82q-17 41 -32 83q-30 80 -49 162q-19 81 -32 165q-6 39 -13 77q-7 39 -15 77q-3 12 -3 23q0 6 1 12q3 15 3 34q0 17 3 32t13 29q5 8 17 8
h1q12 -1 13 -13z" />
    <glyph glyph-name="bracketright" unicode="]" horiz-adv-x="819" 
d="M73 1303q96 12 194 24q65 8 128 8q34 0 67 -3q36 -2 68 -10t65 -20q41 -16 56 -66t23 -86q28 -135 41 -267q12 -132 21 -275q10 -169 18 -341q4 -87 4 -173q0 -85 -4 -169q-39 5 -78 9q-40 4 -79 9q0 1 1 3q0 2 1 3q10 -22 19 -43q10 -22 19 -44q-19 13 -42 17t-48 3
q-46 -3 -93 -17q-48 -15 -88 -21q-18 -3 -41 -5q-22 -3 -46 -3h-1q-42 0 -81 13q-39 14 -53 54q-4 10 2 20t16 13q30 9 60 3q30 -7 61 -5q35 3 70 11q34 8 69 17q60 16 124 31q64 14 127 15q27 1 48 -15t28 -41q1 -2 1 -3q1 -2 1 -4q5 -16 4 -30t-7 -25q-16 -32 -55 -40
q-40 -9 -69 12q-12 9 -20 24t-9 37q-8 160 -9 321q0 161 -9 321q-8 129 -18 258q-10 128 -6 258q1 43 1 85q0 43 -8 85q-1 8 -12 11q-10 3 -28 6q-22 4 -44 6l-44 2q-85 0 -172 -11q-87 -12 -172 -3q-20 2 -20 20v2q0 17 19 19z" />
    <glyph glyph-name="asciicircum" unicode="^" horiz-adv-x="881" 
d="M12 860q88 29 152 98q63 69 109 147q44 74 85 155q41 80 70 161q9 26 32 25h4q27 -3 31 -32q2 -21 7 -46q6 -26 21 -42q14 -14 28 -33q15 -19 25 -36q22 -38 45 -74q24 -36 54 -69q31 -34 64 -66q34 -33 72 -60q18 -13 37 -33q18 -19 22 -43q2 -9 7 -19q4 -10 5 -25v-2
q0 -8 -4 -15q-4 -8 -12 -12q-41 -22 -87 -9q-47 14 -87 45q-44 35 -84 74q-41 39 -76 83t-71 97q-36 54 -39 112q-3 44 -3 90q0 47 9 90q16 -6 31 -12l32 -12q-27 -41 -47 -87t-43 -89q-23 -46 -48 -90t-54 -86q-53 -75 -119 -137q-67 -61 -157 -88q-5 -1 -9 -1
q-12 0 -16 15q-1 4 -1 8q0 13 15 18z" />
    <glyph glyph-name="underscore" unicode="_" horiz-adv-x="1137" 
d="M-142 79q22 23 64 26q41 3 72 6q46 5 92 7t92 3q98 2 197 11q98 9 196 9q76 -1 154 2q27 1 54 1q51 0 100 -4q38 -3 76 -7t74 -20q28 -12 57 -25t50 -36q8 -10 8 -21q0 -5 -2 -11q-6 -19 -27 -19h-29q-14 1 -29 4q-17 2 -35 -2t-36 -6q-33 -3 -67 -5l-68 -2
q-35 -1 -71 -1q-16 -1 -32 -1q-19 0 -39 1q-39 1 -78 6q-38 5 -77 6q-94 2 -187 -3t-187 -1q-46 1 -90 10t-89 21q-21 5 -43 10t-45 4q-12 0 -23 -1q-10 0 -22 4q-11 3 -15 14q-1 4 -1 7q-1 7 6 13z" />
    <glyph glyph-name="grave" unicode="`" horiz-adv-x="410" 
d="M396 1077q-28 3 -53 13q-25 11 -52 17q-25 6 -49 19q-25 13 -47 26q-48 31 -92 66t-81 79q20 -5 39 -10q20 -5 39 -10q-2 0 -4 -1q-2 0 -4 -1q-32 -9 -65 13q-30 20 -30 52v6v4q1 2 1 3q2 33 28 59q27 26 58 26h1q12 0 25 -6t24 -19q19 -23 38 -45q19 -23 33 -49
q11 -21 25 -41t29 -39q16 -18 32 -35q17 -18 35 -34q18 -17 39 -28q21 -10 41 -24q10 -7 10 -22v-3q-2 -16 -17 -16h-3z" />
    <glyph glyph-name="a" unicode="a" horiz-adv-x="1020" 
d="M410 700q-50 23 -106 29q-57 7 -102 -16q-24 -12 -43 -33q-19 -22 -29 -55q-11 -38 -15 -77t-6 -78q-3 -34 -4 -69q-2 -36 10 -68q17 -49 58 -83q40 -34 89 -41q26 -4 53 1q26 6 51 22q79 53 114 134q34 81 41 172q2 18 22 23t23 -16q4 -23 4 -47q0 -15 -2 -30
q-3 -39 -15 -77q-22 -72 -69 -134q-46 -62 -107 -96q-52 -29 -100 -42q-41 -12 -89 -12q-10 0 -19 1q-60 2 -110 53q-49 51 -71 103q-23 53 -28 116q-1 14 -1 27q0 48 15 92q16 46 37 99q20 54 57 88q36 33 77 59q41 25 90 33q20 3 39 3q31 0 61 -8q50 -13 95 -36
q19 -9 9 -27q-11 -18 -29 -10zM1018 464q-36 -98 -68 -204t-95 -191q-19 -25 -43 -48q-24 -22 -51 -39q-50 -32 -107 -36h-11q-52 0 -100 38q-73 59 -106 157q-32 99 -39 188q-3 31 -3 63q0 17 1 33q2 49 12 96q8 36 20 77t39 67q23 23 49 44t53 39q8 5 16 5q9 0 18 -7
q17 -13 12 -32q-4 -18 -9 -35t-6 -35q-1 -15 -1 -33q0 -19 -6 -33q-10 -27 -19 -55q-8 -27 -13 -56q-7 -35 -8 -66q-2 -31 -1 -70q3 -59 16 -132q12 -73 58 -117q39 -37 79 -33q40 5 73 33q19 15 34 34q16 19 27 40q44 77 70 162q27 84 71 160q9 15 27 9q13 -5 13 -16
q0 -3 -2 -7z" />
    <glyph glyph-name="b" unicode="b" horiz-adv-x="1004" 
d="M97 740q59 8 112 29q52 21 97 53q83 59 131 152q49 93 45 205q0 15 -4 35q-4 21 -11 42q-14 40 -36 77q-22 36 -49 44q-18 6 -38 -5q-20 -10 -40 -44q-31 -52 -51 -109q-21 -58 -34 -116q-32 -140 -60 -280q-27 -139 -39 -283q-5 -65 -10 -131q-5 -67 -2 -132
q1 -46 3 -91q3 -45 5 -90q1 -30 -18 -53q-19 -24 -36 -44l-30 16q-16 9 -31 17q17 49 37 110t46 124q31 76 73 148q41 71 96 120q30 26 64 44t73 25q31 5 64 4q34 -2 67 -10q60 -15 108 -53t62 -100q8 -38 5 -78t-14 -79q-20 -74 -62 -142t-87 -120q-27 -32 -74 -53
q-47 -22 -100 -32q-41 -8 -81 -8q-37 0 -73 7q-75 14 -101 61q-15 26 -10 64q6 37 39 87q22 33 50 48q29 14 60 17q60 5 126 -14q65 -20 123 -22q73 -2 144 38t133 75q68 38 125 85q58 47 110 104q14 16 29 1q8 -8 8 -16t-6 -15q-65 -82 -143 -139t-170 -105
q-73 -39 -135 -66q-61 -26 -146 -11q-42 7 -86 18t-87 11q-35 -1 -58 -15t-39 -47q-7 -16 -17 -46t17 -44q53 -27 93 -11t72 49q18 17 34 37t32 38q29 33 65 84q36 50 55 103q11 29 14 57q3 29 -5 54q-25 85 -91 113t-135 -37q-99 -93 -150 -223q-51 -129 -84 -257
q-5 -18 -25 -26q-21 -7 -35 9q-44 52 -52 93q-8 42 -11 111q-2 48 -2 96q0 47 2 95q6 95 14 189q9 94 23 188q10 63 23 126q12 63 30 125q34 114 91 217t153 181q14 12 32 16q14 4 28 4q4 0 9 -1q35 -2 69 -22q34 -19 53 -46q40 -53 53 -123t-1 -135q-38 -172 -142 -282
q-103 -110 -285 -131q-20 -2 -20 19q0 20 19 22z" />
    <glyph glyph-name="c" unicode="c" horiz-adv-x="748" 
d="M425 540q-19 27 -45 43t-55 22q-54 9 -108 -16q-53 -25 -78 -82q-11 -25 -23 -61t-21 -75q-17 -75 -14 -150t49 -112q26 -21 56 -31q31 -10 63 -11q59 -3 118 20t104 58q88 68 154 155q65 87 123 181q11 18 29 8q12 -6 12 -17q0 -5 -3 -12q-44 -91 -108 -183
q-64 -91 -145 -164q-43 -40 -91 -72q-47 -32 -98 -55q-39 -16 -81 -23q-26 -4 -52 -4q-15 0 -30 1q-77 7 -139 51q-63 43 -83 123q-12 45 -14 98v24q0 41 5 83q14 101 59 195q46 93 124 141q18 11 39 14q15 3 31 3h12q41 -3 83 -18q41 -14 75 -26q32 -12 52 -35t35 -52
q10 -18 -7 -28t-28 7z" />
    <glyph glyph-name="d" unicode="d" 
d="M369 541q-37 21 -73 23q-35 2 -67 -11q-34 -13 -62 -41q-28 -27 -48 -61q-38 -65 -43 -143q-6 -79 37 -134q9 -13 29 -17q20 -3 45 -2q36 2 74 12q38 9 57 15q45 12 86 35q41 22 78 50q-6 -10 -11 -19q-6 -10 -11 -20q8 85 8 172q0 86 18 170q10 44 32 69q22 26 51 60
q41 48 78 99q36 51 67 105q18 31 37 66t35 71q32 69 51 142q19 72 11 142q-4 33 -25 68q-21 34 -52 47q-17 7 -36 4t-40 -19q-38 -29 -60 -73q-22 -45 -32 -90q-16 -67 -15 -135q2 -69 -3 -136t-9 -134l-6 -134q-4 -107 -6 -213q-3 -107 0 -213q0 -36 3 -69q3 -32 21 -66
q15 -29 34 -57q19 -27 59 -24q20 2 57 8q36 6 53 17q91 64 148 163q57 100 93 203q6 19 27 15q17 -4 17 -17q0 -4 -2 -9q-25 -87 -74 -196q-48 -109 -123 -188q-41 -43 -89 -71t-105 -33q-15 -2 -28 -2q-26 0 -48 5q-33 7 -61 23q-50 30 -79 84q-30 54 -44 118
q-12 52 -16 107q-4 54 -3 102q3 192 29 385q25 193 79 376q10 32 20 70q11 39 25 76q26 71 71 126q44 55 123 56h2q69 0 104 -46q35 -47 45 -107q5 -33 4 -66q0 -33 -5 -61q-29 -154 -107 -300q-77 -145 -179 -263q-34 -40 -50 -70t-18 -83q-2 -35 -2 -70q-1 -35 0 -70
q0 -12 2 -28t4 -33q2 -32 0 -63q-3 -31 -23 -48q-29 -24 -62 -52q-34 -28 -71 -53q-69 -49 -147 -77q-77 -28 -152 -3q-51 17 -86 52t-55 81q-31 68 -31 148q0 19 2 38q9 102 57 176q46 70 115 106t143 31q40 -3 78 -19q39 -15 74 -44q14 -11 2 -26q-11 -15 -26 -7z" />
    <glyph glyph-name="e" unicode="e" horiz-adv-x="730" 
d="M126 415q46 -1 93 8q47 8 88 30q31 17 70 49t38 73q-1 47 -44 59q-43 13 -79 7q-37 -5 -62 -22q-26 -16 -49 -45q-61 -74 -115 -173q-53 -98 -49 -199q2 -48 24 -72t58 -50q53 -39 118 -31t120 31q129 55 228 162q99 106 149 236q7 19 26 15q17 -4 17 -19q0 -3 -1 -6
q-9 -55 -37 -106q-29 -51 -63 -94q-53 -68 -119 -125q-65 -57 -141 -99q-35 -20 -73 -36q-38 -17 -78 -25q-35 -7 -69 -14q-21 -4 -42 -4q-14 0 -28 2q-40 5 -74 14q-35 10 -66 38q-22 20 -40 46q-17 26 -26 56q-14 44 -14 89q0 22 3 43q10 68 34 129q18 45 45 91
q26 46 60 88q64 77 149 120q48 24 101 24q41 0 86 -15q68 -23 90 -77q22 -53 -21 -115q-49 -71 -137 -99q-87 -28 -169 -25q-20 1 -20 22q-1 20 19 19z" />
    <glyph glyph-name="f" unicode="f" horiz-adv-x="521" 
d="M123 497q55 27 109 68q53 41 99 92q84 95 122 216q38 120 -13 242q-6 13 -33 50t-61 68q-19 17 -38 30q-19 12 -37 15q-17 3 -32 -5q-15 -7 -26 -29q-31 -60 -27 -122q3 -62 -4 -126q-10 -92 -24 -183q-13 -91 -23 -183q-13 -109 -18 -218t-24 -218q-17 -101 -27 -202
q-9 -100 -12 -203v-55q1 -38 9 -73q4 -19 11 -34t17 -23t23 -7t31 13q38 27 61 68q23 40 29 87q12 99 -19 194t-110 160q-13 11 -6 26q8 14 23 16q90 9 172 43q83 35 139 98q30 34 50 77q21 43 28 95q3 20 23 15q18 -4 18 -20v-5q-8 -58 -30 -105q-22 -48 -55 -86
q-62 -72 -153 -111q-92 -40 -192 -50q5 10 9 21q4 10 8 21q32 -26 57 -58q26 -33 46 -70q35 -69 47 -148q11 -79 -7 -153q-7 -24 -18 -51t-26 -52q-29 -46 -73 -75q-27 -19 -60 -19q-18 0 -39 7q-45 13 -75 61q-29 48 -38 90q-7 37 -5 76t-8 75q-8 30 -16 59q-8 28 -9 59
q-1 16 -1 32q1 73 13 144q15 86 29 174q12 80 17 162q5 81 19 162q16 87 39 172q24 85 41 171q14 71 35 153q21 81 65 141q36 50 82 50h4q49 -3 94 -32q25 -16 47 -37q21 -21 39 -42q42 -51 56 -120q14 -68 8 -138q-3 -37 -11 -73q-9 -36 -21 -68q-45 -117 -130 -203
q-85 -87 -197 -141q-18 -9 -28 9q-11 17 7 26z" />
    <glyph glyph-name="g" unicode="g" horiz-adv-x="840" 
d="M426 629q-30 1 -62 -4q-32 -6 -64 -17q-59 -22 -112 -60q-52 -39 -81 -90q-24 -41 -26 -90q-2 -48 26 -99q25 -45 56 -61q31 -17 65 -13q51 5 101 47q51 42 88 95q21 28 35 56q15 28 22 53q6 19 26 14q16 -4 16 -18v-6q-9 -37 -27 -76q-19 -38 -46 -74q-50 -67 -120 -116
q-71 -49 -143 -54h-13q-41 0 -81 18q-45 21 -83 73q-55 77 -55 169q0 9 1 18q5 103 80 178q83 85 186 99q49 6 101 6q56 0 115 -7q17 -3 15 -22q-3 -19 -20 -19zM571 639q-13 -31 -16 -66t0 -72q6 -67 25 -137q19 -69 28 -128q16 -117 23 -236q6 -118 -6 -237
q-6 -54 -17 -131q-10 -76 -34 -150q-12 -40 -29 -76t-39 -66q-34 -44 -83 -66q-30 -14 -67 -14q-24 0 -50 6q-22 4 -43 16q-22 12 -41 29q-35 32 -58 76q-22 42 -22 82v3q3 94 44 183q42 89 87 169q56 100 124 194t146 179q71 75 151 141q81 66 148 144q16 19 34 1
q10 -9 10 -19q0 -8 -8 -17q-55 -66 -122 -120t-127 -116q-72 -75 -137 -156q-66 -81 -121 -170q-46 -74 -93 -160q-48 -86 -68 -173q-13 -56 -1 -115q12 -60 72 -88q64 -30 99 4q34 34 47 88q41 174 50 359q8 184 -14 362q-6 44 -10 89t-4 91q-1 84 17 166q18 81 69 151
q7 10 17 11q5 0 11 -3q16 -9 8 -28z" />
    <glyph glyph-name="h" unicode="h" horiz-adv-x="963" 
d="M72 560q143 98 252 244t153 316q15 59 22 127q8 68 -16 127q-17 40 -56 64t-83 26q-23 1 -46 -6q-23 -6 -43 -21q-41 -31 -67 -79q-26 -47 -41 -103q-28 -105 -27 -223q0 -118 2 -201q6 -221 0 -444q-5 -222 -35 -441q-15 23 -29 47t-29 47h4q2 -1 4 -1q15 -3 27 -11
q11 -8 18 -19q17 -27 12 -62q-6 -34 -36 -52q-1 0 -2 -1t-2 -1q-6 36 -11 72t-11 71h4q2 -1 4 -1q-24 -14 -48 -29q-23 -14 -47 -28q9 36 35 56t34 47q11 32 23 64q12 33 27 63q30 61 69 119q40 58 96 97q50 36 116 60q65 24 128 12q37 -8 47 -46q10 -39 17 -67q7 -26 9 -52
q2 -27 2 -53q0 -50 -1 -99t13 -96q21 -69 70 -63q48 6 89 50q82 89 133 196q52 108 111 211q12 19 31 8q13 -7 13 -18q0 -6 -3 -12q-49 -102 -96 -206t-117 -193q-36 -44 -89 -86q-54 -42 -112 -50q-32 -5 -63 3q-32 9 -61 35q-56 48 -56 113q-1 65 15 130q10 37 22 75
q12 37 14 76q2 27 3 49q0 22 -13 32q-8 5 -20 6q-13 0 -34 -5q-93 -23 -157 -86q-64 -64 -102 -150q-2 -4 -14 -31q-12 -26 -24 -54q-9 -23 -16 -41t-5 -20q21 -25 23 -53q2 -29 -5 -59q-8 -32 -35 -47q-20 -12 -42 -12q-9 0 -18 2q-1 0 -3 1h-4q-15 3 -27 11t-19 19
q-17 27 -11 62q6 34 36 52q1 0 2 1t2 1q5 -36 11 -72q5 -35 10 -71h-3q-2 1 -4 1q-34 6 -48 35q-10 23 -10 46q0 7 1 14q22 164 25 329q4 165 16 330q9 124 31 245q21 122 45 244q10 50 27 110q18 60 46 114q16 30 34 56q19 26 41 46q35 31 79 45q24 8 51 8q23 0 48 -5
q87 -19 125 -78q37 -59 41 -134q3 -40 -2 -82q-6 -41 -16 -81q-47 -186 -161 -342t-272 -263q-17 -11 -27 7q-10 17 6 28z" />
    <glyph glyph-name="i" unicode="i" horiz-adv-x="574" 
d="M145 686q-16 -41 -23 -86t-8 -90q0 -53 -2 -123q-2 -69 18 -119q12 -32 31 -56q18 -24 41 -39q42 -29 93 -24q51 4 98 50q61 60 103 132q41 73 80 147q8 16 28 9q14 -5 14 -16q0 -4 -1 -9q-12 -33 -31 -73q-18 -39 -42 -80q-45 -75 -106 -140t-131 -83q-21 -5 -42 -5
q-27 0 -53 8q-49 15 -98 67q-67 69 -105 150q-35 73 -35 161q0 9 1 18q2 63 12 136q10 72 53 123q16 20 40 20q7 0 16 -3q35 -8 48 -35q4 -9 5 -19q0 -10 -4 -21zM141 984q0 -1 -1 -2t-1 -3q3 11 5 14q1 3 0 -2q-1 -4 -1 -6q0 -1 2 18q-1 -9 -1 -13q-1 -3 -2 -9t0 7t1 1v-3
v-3q-2 21 -3 19q0 -3 2 -7q3 -10 -3 3t0 4q4 -6 -5 5q-8 11 -3 5l2 -2l2 -2l10 -10q4 -4 7 -11q6 -13 9 -25q1 -5 1 -11q0 -7 -2 -16q-3 -12 -12 -25q-8 -13 -20 -18q-14 -7 -30 -10q-5 -1 -11 -1q-10 0 -20 4q-11 4 -22 9t-19 15q-14 16 -21 32q-7 17 -10 38q-1 6 -1 12
q0 27 18 52q22 31 55 36q8 2 15 2q14 0 27 -4q22 -6 32 -27v-1q1 0 1 -1q8 -15 8 -32q1 -17 -9 -32z" />
    <glyph glyph-name="j" unicode="j" horiz-adv-x="430" 
d="M113 731q-1 -30 2 -59q3 -30 2 -60v-59q0 -29 1 -59q1 -59 -1 -118t-2 -119q1 -118 4 -236t-1 -236q-2 -51 -4 -103q-2 -53 -16 -102q-6 -21 -16 -44q-11 -23 -25 -39q-14 -15 -30 -25t-32 -23q-56 -44 -138 -56q-19 -3 -37 -3q-59 0 -107 31q-59 39 -81 85
q-17 39 -17 80v18q6 60 40 123q34 62 77 117q23 30 47 57q23 27 44 50q69 76 143 148t151 141q73 66 150 130q78 65 162 117q19 12 30 -7q4 -7 4 -14q0 -10 -11 -19q-145 -108 -280 -226q-136 -118 -262 -249q-54 -54 -109 -114q-55 -59 -92 -127q-12 -22 -22 -49
q-9 -27 -13 -53q-8 -51 10 -95q18 -45 78 -62q33 -10 78 -7t67 35q17 25 23 57t12 61q19 87 18 180q-1 92 -2 181q-1 99 -3 197t0 197q2 49 5 98q3 50 12 98q8 46 21 87q13 42 26 85q9 28 37 33q6 2 13 2q19 0 32 -13q5 -5 9 -13q3 -9 3 -19zM124 1057q-1 -1 -2 -1h-2l10 12
q5 7 9 13q0 -13 -5 -23q-5 -11 -17 -18l-2 -2q-2 -1 -3 -2q6 5 5 4t-10 -8q-4 -3 -3 -2t6 4q3 6 4 6q1 1 -1 -3q-1 -1 -2 -3q0 -1 -1 -3q-3 -4 -3 -3q1 1 3 7v16v15q0 -1 1 -3q0 -1 1 -3q-20 11 -40 23l-40 22h2t2 1q17 2 33 -1q16 -2 30 -16q9 -8 15 -21q6 -12 5 -25v-4
q0 -3 -1 -5q-1 5 -3 11q-1 5 -3 11q-5 7 -1 2t6 -6q3 -3 6 -7q3 -3 5 -8q5 -9 4 -19q0 -11 -8 -18q-13 -13 -29 -13q-15 0 -32 3l22 6q10 3 21 6l-3 -3q-1 -1 -2 -3q-15 -15 -38 -19q-6 -1 -11 -1q-17 0 -30 8q-1 1 -2 1l-1 1q-23 14 -31 39q-3 10 -3 19q0 15 8 30
q8 13 23 27q16 14 33 17q4 1 9 2l10 2q6 2 13 2h1q5 0 11 -1h-3h-3q5 0 9 -1q5 0 9 -1q12 -1 21 -11t12 -20v-1v-1q-6 5 -12 9q-7 5 -13 10h2h2q21 -1 25 -23q1 -4 1 -7q-1 -16 -19 -20z" />
    <glyph glyph-name="k" unicode="k" horiz-adv-x="942" 
d="M84 753q42 15 84 38q42 22 82 51q73 52 133 122q61 69 92 148q19 47 17 115q-1 68 -35 112q-19 24 -48 37q-29 12 -70 6q-59 -8 -95 -53q-36 -46 -56 -102q-11 -30 -19 -60q-8 -31 -14 -57q-12 -54 -19 -109q-6 -55 -9 -110q-5 -102 -3 -206q1 -103 -6 -205
q-6 -79 -12 -159q-7 -81 1 -160q4 -37 12 -75q9 -38 5 -75q-4 -34 -13 -59q-10 -25 -22 -57q-4 -11 -13 -19q-8 -8 -19 -8h-3h-2h-3q-28 2 -34 26q-6 25 15 41q14 9 20 29q5 19 6 43q2 45 -5 96q-6 51 -2 80q14 86 30 183q17 97 56 177q23 47 75 100q52 54 114 77
q33 12 67 12q34 -1 66 -20q33 -19 52 -48q20 -29 29 -63q16 -62 -3 -130q-19 -69 -64 -113q-65 -63 -159 -85q-93 -22 -178 -40l-10 36l-10 36q38 6 77 23q39 16 78 19q21 2 41 -3q21 -4 41 -19q24 -17 40 -40q17 -24 29 -50q23 -49 40 -103t47 -96q27 -36 55 -49t56 -8
q43 7 82 44q39 38 69 83q15 25 27 49q13 25 20 45q25 70 48 142q22 72 61 135q11 18 30 8q13 -6 13 -17q0 -5 -4 -12q-26 -46 -45 -105q-18 -60 -37 -123q-12 -40 -26 -80t-31 -76q-33 -68 -84 -115q-51 -48 -134 -58q-88 -10 -146 33t-91 121q-5 14 -11 31q-5 18 -10 37
q-11 35 -24 69q-13 35 -35 52q-27 22 -76 10q-50 -12 -80 -19q-35 -8 -45 27t25 45q63 19 117 54q54 34 100 83q24 25 46 50q23 25 20 63q-3 46 -23 58t-63 -6q-70 -29 -103 -85q-34 -55 -52 -125q-15 -61 -32 -127t-16 -129q1 -20 3 -44t4 -49q3 -48 -3 -94t-38 -75
q-6 15 -13 30q-6 15 -13 31h3h2q-8 -12 -17 -23q-8 -12 -17 -23q-12 53 -34 99q-21 46 -28 102q-9 60 -9 121v16q0 53 4 105q8 117 13 234q4 116 10 234q1 36 5 77q3 42 9 85q12 81 35 164q24 83 64 151q34 57 81 100q48 42 113 60q21 6 43 6q44 1 90 -25q67 -39 99 -94
q30 -51 30 -104q1 -54 -18 -108q-31 -90 -97 -168q-66 -79 -149 -138q-44 -31 -91 -56t-94 -41q-19 -7 -24 12q-5 20 13 27z" />
    <glyph glyph-name="l" unicode="l" horiz-adv-x="758" 
d="M114 491q104 114 188 236q83 123 146 263q26 57 47 118t15 126q-3 36 -22 71q-18 35 -50 52q-16 9 -37 11q-20 2 -43 -5q-49 -17 -83 -71q-34 -55 -45 -102t-24 -93q-14 -46 -21 -94q-8 -48 -12 -95t-7 -95q-9 -138 -28 -273q-19 -136 -22 -274q-1 -49 1 -113t37 -105
q19 -22 41 -39q23 -17 54 -16q32 0 63 10q30 9 58 25q80 45 148 117q69 72 121 156q29 44 52 91q23 46 41 91q9 22 30 10q15 -8 15 -21q0 -6 -3 -12q-33 -84 -83 -163q-49 -79 -108 -149q-56 -66 -131 -134q-75 -67 -165 -84q-29 -6 -58 -6q-49 0 -95 16q-73 26 -112 102
q-42 82 -55 172q-8 63 -8 126q0 28 1 55q5 76 14 151q10 75 21 150q10 78 16 144q5 67 22 148q19 89 51 171q33 81 87 156q29 40 74 83q40 37 89 38q7 0 13 -1q62 -6 118 -33t78 -91q23 -64 13 -134q-9 -69 -33 -131q-63 -165 -161 -310q-99 -145 -218 -273q-14 -15 -28 -1
q-15 15 -2 29z" />
    <glyph glyph-name="m" unicode="m" horiz-adv-x="1189" 
d="M34 748q7 -83 32 -163q24 -80 26 -164v-57q1 -29 2 -57q1 -47 1 -94q0 -46 1 -93q1 -21 0 -43q-2 -21 -2 -42q0 -32 2 -26q2 7 -23 23q-17 -8 -34 -15q-18 -8 -35 -16q23 71 28 148t24 150q14 55 32 110q18 54 39 107q9 20 20 46q11 25 26 52q26 51 63 95q36 43 81 53
q31 6 55 -1q24 -6 44 -22q35 -27 54 -76t25 -94q7 -58 0 -117l-12 -116q-8 -73 -4 -153t-17 -151l-56 22q-27 10 -55 21q44 76 64 162q21 86 44 171q13 46 29 91t39 87q20 36 43 79q22 43 55 74q17 17 38 28q21 10 46 12q24 2 42 -9q17 -12 30 -31q10 -16 17 -35
q7 -20 11 -41q10 -40 13 -78q4 -38 7 -59q18 -117 32 -238q13 -121 56 -232q-10 12 -19 23q-9 12 -18 23q25 -10 47 -8q21 2 38 12q34 20 57 60q24 40 44 77q30 57 55 115t45 118q6 20 27 16q17 -4 17 -18q0 -4 -2 -8q-26 -96 -66 -195t-102 -178q-18 -23 -49 -57
q-31 -33 -66 -58q-20 -13 -39 -21t-38 -8q-23 0 -42 16q-20 15 -35 51q-31 77 -46 163q-14 87 -10 170q2 42 18 110q16 69 20 132q3 34 -1 63q-4 28 -18 47q-24 30 -55 6t-61 -71q-24 -37 -45 -78q-21 -42 -35 -73q-7 -17 -11 -28q-5 -12 -6 -16q-29 -89 -52 -187
q-22 -98 -8 -192q6 -35 -16 -56q-21 -21 -49 -17q-11 1 -23 8q-11 6 -21 19q-40 53 -45 127q-4 74 5 149q4 40 10 78q6 39 10 72q4 42 13 84q9 41 15 83q3 26 0 56q-4 31 -19 39q-9 4 -21 -1q-13 -5 -30 -23q-49 -52 -81 -116t-54 -131q-10 -31 -22 -68q-13 -37 -24 -77
q-20 -74 -29 -150q-8 -76 16 -135q12 -28 -16 -50q-16 -12 -31 -12q-11 0 -21 7q-21 14 -33 39q-13 24 -19 55q-12 56 -10 120t1 103q0 38 1 77t0 77q-2 86 -15 169q-5 39 -5 79q0 45 7 90q5 31 32 31q4 0 9 -1q36 -6 38 -39z" />
    <glyph glyph-name="n" unicode="n" horiz-adv-x="1045" 
d="M141 745q-6 -122 -9 -241t4 -241q4 -84 -2 -172t-71 -151q-18 -17 -41 -9q-23 9 -23 34q-1 43 6 89t19 92q24 86 63 168t81 149q37 58 85 109q47 51 106 69q32 10 67 7t74 -23q32 -17 54 -38q21 -22 35 -47q26 -47 31 -104q6 -58 10 -118q3 -50 9 -100q6 -51 23 -98
q15 -42 35 -56q19 -15 54 -35q29 -17 67 30q39 48 78 121q16 31 32 64t31 65q28 60 49 108q22 48 33 66q9 14 28 8q14 -4 14 -16q0 -3 -2 -8q-26 -76 -58 -161q-32 -84 -75 -161q-23 -42 -50 -80q-27 -37 -58 -68q-38 -37 -81 -75q-31 -28 -71 -28q-15 0 -31 4q-29 7 -52 23
t-40 38q-34 42 -53 96q-18 54 -26 101q-17 97 -12 196q4 99 -15 194q-4 22 -14 33q-9 11 -22 13q-13 3 -29 -1q-17 -5 -33 -15q-31 -17 -59 -43t-39 -41q-51 -67 -97 -153q-46 -87 -71 -179q-14 -49 -20 -98t-2 -96q-18 -3 -36 -5q-18 -3 -37 -6q-34 85 -31 188
q2 104 -2 194q-3 50 -3 100q0 51 3 103q5 101 15 202q2 20 11 34q8 15 21 25q23 18 54 19h2q30 0 49 -18q11 -9 17 -23t5 -34z" />
    <glyph glyph-name="o" unicode="o" horiz-adv-x="769" 
d="M232 564q-55 -6 -106 -34q-50 -28 -77 -79q-29 -57 -47 -127q-19 -69 -11 -133q6 -50 35 -98q30 -49 82 -62q56 -14 110 -2q55 12 108 29q57 19 98 77q41 59 51 116q2 16 6 38q3 22 6 46q4 44 1 90q-2 46 -22 75q-13 20 -36 30q-22 10 -57 5q-37 -5 -66 -35
q-30 -29 -27 -62q1 -13 10 -26t27 -23q33 -19 74 -28q42 -8 87 -8q83 0 163 30q80 31 121 90q14 20 36 8q14 -7 14 -18q0 -6 -5 -14q-23 -34 -54 -59t-67 -43q-68 -34 -147 -43t-149 2q-41 7 -87 25q-45 18 -67 58q-22 42 -8 90q13 47 50 75q45 34 112 37t108 -42
q19 -21 30 -47q10 -27 15 -56q9 -55 2 -114q-6 -59 -16 -105q-13 -61 -47 -112q-33 -50 -79 -92q-24 -23 -47 -46t-52 -39q-27 -14 -58 -23q-32 -8 -62 -13q-22 -3 -42 -3q-28 0 -54 6q-46 9 -85 33q-72 42 -115 122q-38 72 -38 154v16q4 77 30 147t87 120q58 49 123 77
q65 29 142 31h1q19 0 19 -19q0 -20 -20 -22z" />
    <glyph glyph-name="p" unicode="p" horiz-adv-x="892" 
d="M133 698q10 -40 10 -81q0 -29 -4 -59q-12 -72 -22 -139q-10 -71 -17 -141q-7 -71 -4 -142q3 -65 1 -130q-3 -65 -5 -130q-2 -45 -7 -89q-5 -45 -11 -90q-5 -41 -6 -84q-2 -43 -12 -84q-15 -58 -20 -118q-4 -61 -13 -120q-2 -15 -15 -25q-14 -10 -28 -10v0h-1l14 12
q8 6 15 11q-1 -2 -2 -5q-1 -2 -2 -5q-5 -13 -3 -12t3 17h-27q-13 -1 -26 -1v0v0q2 26 28 26q27 1 25 -25v0v0q-2 -25 -28 -26h-2q-25 0 -23 25q-1 -16 -1 -9q1 7 -1 14q6 -5 11 -10l11 -11h-1t-1 1q-15 2 -25 15t-10 28q-1 60 0 121q0 61 -2 121q-4 85 -4 170v1q0 86 4 171
q2 67 3 134q0 67 -1 134q-1 72 6 143t17 142q10 68 19 139q8 71 35 135q4 10 11 17t16 11q13 6 27 6q15 0 30 -6q31 -12 38 -42zM13 341q0 62 43 117q43 54 86 93q52 48 107 69q38 14 84 14q21 0 45 -3q75 -10 141 -53q66 -42 100 -112q47 -95 29 -194q-19 -99 -79 -181
q-32 -44 -74 -80q-41 -36 -89 -61q-33 -18 -64 -18h-1q-30 0 -64 9q-43 11 -61 45q-19 34 -5 78q14 41 33 81t48 73q20 22 42 47q21 25 50 38q52 23 111 30t114 19q63 14 132 39q68 25 102 86q12 21 34 9q15 -8 15 -20q0 -7 -4 -14q-17 -30 -41 -53q-23 -22 -52 -39
q-53 -31 -116 -46q-63 -16 -120 -26q-37 -7 -81 -12q-44 -6 -77 -25q-23 -14 -44 -40q-21 -27 -34 -49q-5 -8 -12 -22q-8 -13 -15 -29q-10 -24 -15 -48t7 -37q-10 3 -21 6q-11 2 -21 5q6 3 13 4q6 2 13 2q-5 -3 -4 -2l5 4q-6 -5 1 3q7 7 6 7q9 11 23 19q14 9 30 18
q29 17 54 38q24 21 47 46q41 48 74 116q32 69 18 134q-9 45 -31 85t-68 54q-39 13 -84 18q-44 4 -84 -9q-35 -11 -66 -39q-30 -28 -56 -54q-26 -28 -54 -63t-30 -76q0 -20 -20 -20q-21 -1 -20 19z" />
    <glyph glyph-name="q" unicode="q" horiz-adv-x="860" 
d="M427 616q-97 35 -186 12q-90 -23 -132 -126q-11 -25 -16 -55q-5 -29 -3 -59q3 -56 30 -103t84 -60q53 -12 104 -15q52 -2 95 42q37 38 57 85t24 100q5 60 15 120q10 59 13 119q14 -1 28 -3t29 -3q-19 -65 -28 -142t-3 -145q5 -48 17 -91t12 -92q-1 -38 -2 -77
q-1 -38 -1 -76q-2 -77 -5 -153q-4 -76 -13 -152q-10 -81 -16 -164q-6 -84 18 -163q-10 11 -19 23q-10 12 -19 24q21 -15 40 -17t36 6q30 13 49 49q18 36 16 72q-3 43 -12 86t-24 84q-19 53 -43 105q-25 51 -40 106q-3 10 2 20q6 11 17 13q105 20 161 103t89 182
q18 53 31 107q14 53 28 99q7 21 28 16q17 -4 17 -18q0 -4 -1 -8q-15 -52 -30 -110t-34 -115q-36 -108 -97 -196q-62 -88 -178 -112q5 8 9 17l10 16q10 -37 27 -74q16 -37 33 -74q33 -69 59 -140q27 -71 21 -146q-5 -62 -36 -104t-73 -85q-27 -28 -73 -37q-18 -4 -35 -4
q-26 0 -50 9q-21 7 -37 22t-23 38q-26 87 -24 177q3 90 13 179q9 86 15 173q5 86 9 173q2 43 3 87q0 44 7 86q8 45 24 87q17 41 22 86q8 67 18 133t29 130q6 22 28 21h4q25 -2 24 -27q-1 -69 -4 -152q-4 -82 -23 -159q-11 -41 -28 -78q-16 -38 -41 -68q-47 -56 -117 -95
q-71 -38 -145 -39q-40 -1 -78 12q-39 12 -73 40q-32 27 -55 65q-24 38 -37 81q-17 55 -17 112q0 27 4 55q11 86 67 144q51 54 122 76q72 22 146 18q39 -2 78 -11t73 -24q16 -7 9 -26q-7 -18 -23 -12z" />
    <glyph glyph-name="r" unicode="r" horiz-adv-x="604" 
d="M-15 495q15 21 33 39q19 19 35 40q-13 46 -28 57q-15 10 -32 -15q-5 -8 -10 -15l-10 -14q-10 -19 -10 -38q-1 -20 10 -40q22 -19 50 -25q29 -7 57 -7q11 -1 47 2t32 -10q11 38 49 45q39 7 62 -15q8 -8 12 -19t3 -25q-3 -48 -17 -92q-13 -45 -31 -89q-10 -25 -25 -60
q-16 -35 -23 -70q-3 -19 -3 -36q0 -18 7 -33q6 -15 19 -23t29 -11q30 -5 64 4t54 21q39 24 72 55q32 30 56 70q39 66 63 135q24 70 43 143q5 21 25 16q17 -5 17 -19v-7q-14 -64 -35 -131q-22 -67 -53 -129q-59 -115 -156 -193q-83 -67 -203 -67q-20 0 -40 2q-49 4 -77 25
q-28 22 -40 54q-11 34 -8 78t16 91q23 88 65 172q41 84 61 124q3 -19 6 -39l6 -38q-5 6 -57 2t-67 -1q-28 6 -59 15q-31 10 -52 32q-34 35 -34 79v8q3 49 38 88q20 23 50 44q30 22 60 22q15 0 30 -9q15 -8 27 -29q20 -34 2 -68t-45 -64q-15 -16 -29 -30t-24 -26
q-10 -14 -26 -2t-6 26z" />
    <glyph glyph-name="s" unicode="s" horiz-adv-x="625" 
d="M55 519q14 5 28 11l28 12q36 14 38 45q3 31 -30 81q-18 -6 -36 -14t-32 -22q-34 -35 -29 -58t31 -40q14 -9 31 -16q17 -8 35 -15q24 -10 50 -17l52 -16q49 -16 91 -40q43 -24 65 -73q34 -77 -2 -169t-106 -159q-47 -44 -102 -70q-45 -21 -89 -20q-10 0 -19 1
q-62 6 -113 29q-50 23 -57 94v10q0 42 36 80q40 43 73 68q50 38 106 73q56 36 120 48q99 19 188 50q88 30 168 97q16 14 32 -1q8 -8 8 -15q0 -8 -8 -15q-74 -63 -157 -99q-82 -36 -177 -55q-75 -15 -143 -50q-68 -36 -123 -91q-11 -11 -20 -22q-10 -12 -18 -25
q-20 -26 -8 -38q12 -13 57 -12q14 7 29 14q16 6 31 12q43 18 78 50q35 31 57 73l26 52q15 32 -8 50q-16 12 -32 20q-17 9 -33 19q-33 22 -69 40q-35 18 -68 42q-12 9 -27 21t-29 26q-26 26 -41 58q-15 31 6 65q28 44 80 77q48 31 97 31q5 0 11 -1q50 -3 71 -33
q22 -31 18 -80q-2 -19 -10 -34q-9 -15 -23 -27q-25 -23 -60 -37q-34 -14 -61 -24q-19 -7 -24 13q-6 19 13 26z" />
    <glyph glyph-name="t" unicode="t" horiz-adv-x="635" 
d="M214 1445q-2 -46 2 -92q4 -45 7 -91q4 -67 -7 -135q-10 -68 -19 -134q-16 -114 -31 -228q-16 -114 -29 -228q-11 -88 -31 -179t-17 -180q0 -27 3 -62q2 -35 18 -58q18 -27 51 -34q33 -6 63 3q100 32 168 103q69 71 118 159q27 47 49 96t42 97q7 17 26 9q15 -6 15 -17
q0 -3 -2 -7q-35 -97 -82 -195q-48 -99 -118 -177q-38 -43 -84 -77q-45 -34 -100 -57q-55 -22 -107 -22q-19 0 -38 3q-71 11 -110 91q-41 83 -43 184q-1 28 -1 55q0 71 4 136q8 140 30 281q21 141 41 280q10 73 17 151q8 78 34 147q17 46 35 92q19 46 34 93q8 23 33 23h3
q27 -2 26 -30zM-64 1105q53 8 105 21t106 18q52 4 105 5q53 2 106 2h1q20 0 20 -20q0 -21 -20 -23q-53 -6 -106 -5q-53 2 -105 -4q-53 -5 -103 -17q-51 -12 -103 -17h-2q-16 0 -18 18q-1 3 -1 5q0 15 15 17z" />
    <glyph glyph-name="u" unicode="u" horiz-adv-x="992" 
d="M79 768q35 -7 55 -31q19 -23 28 -56q14 -51 10 -115t-11 -121q-4 -31 -7 -57q-3 -25 -3 -43q1 -30 2 -55q1 -26 6 -47q10 -40 38 -65q27 -25 89 -32q81 -10 143 22q61 33 127 71q18 10 33 -7q7 -9 7 -16q0 -9 -9 -16q-36 -32 -78 -60q-43 -27 -88 -47q-84 -37 -174 -39
h-5q-87 0 -166 55q-45 31 -61 83q-16 53 -18 109v19q0 21 1 41q2 29 4 54q8 81 11 168q4 87 31 164q4 11 14 17q6 5 15 5q3 -1 6 -1zM582 757q25 -33 39 -66q13 -34 18 -68q9 -64 0 -131q-9 -68 -13 -138q-1 -15 -1 -62q0 -48 5 -101q5 -65 21 -115q16 -51 48 -38
q20 8 38 24q19 15 35 34q30 36 54 80q23 43 41 77q29 56 54 113q25 58 54 113q9 16 28 9q14 -5 14 -17q0 -3 -1 -7q-29 -86 -68 -171q-39 -86 -84 -164q-10 -16 -22 -36t-27 -41q-27 -38 -63 -68q-34 -28 -74 -28h-4q-30 1 -57 13q-26 11 -49 31q-43 35 -69 88
q-27 53 -33 103q-8 67 -8 138q0 70 8 144q16 147 57 275q6 22 26 24h5q16 0 28 -15z" />
    <glyph glyph-name="v" unicode="v" horiz-adv-x="816" 
d="M67 687q25 -58 42 -118q17 -61 30 -123q24 -114 43 -231q20 -116 58 -227q-19 14 -39 29q-19 14 -39 29q-16 -2 -6 2q10 3 -2 -3q6 4 13 6q6 3 13 6q18 6 35 4t34 -10q5 -3 -2 0q-8 3 -12 -1q4 4 7 8l8 8q10 10 19 21q10 11 19 22q37 46 70 94t63 98l56 90q28 44 56 89
q20 32 40 66q20 35 32 71l5 20q3 16 5 34q3 22 2 39q-1 18 -12 13q-45 -18 -66 -61t-37 -84q-18 -46 -29 -91q-10 -46 -13 -94q0 -19 1 -31q2 -13 8 -19q9 -7 33 -22t37 -13q80 9 151 63q70 55 123 112q14 15 29 0q9 -8 8 -16q0 -7 -6 -15q-21 -25 -43 -48q-22 -24 -47 -45
q-37 -31 -77 -58q-41 -27 -86 -43q-18 -6 -37 -11q-18 -5 -34 -14q-18 -10 -36 -15q-19 -5 -39 -2q-72 9 -102 73t-17 128t47 125t74 111q17 22 38 39t41 36q16 14 39 32q21 17 43 17h3q22 -2 34 -12q13 -10 19 -26q15 -36 3 -88q-11 -51 -23 -79q-30 -70 -73 -134
q-42 -64 -80 -130q-36 -62 -75 -124q-38 -61 -82 -119q-13 -15 -25 -31q-13 -16 -27 -30q2 1 1 6q-1 4 0 -2q2 -11 3 -21t-2 -21q-10 -40 -47 -58q-36 -17 -72 -22h-8q-23 0 -41 16q-21 19 -29 43q-30 84 -50 173q-19 88 -36 176q-16 89 -29 181q-10 70 -10 141q0 21 1 42
q1 28 27 46q27 18 51 9q8 -3 15 -9q6 -6 11 -17z" />
    <glyph glyph-name="w" unicode="w" horiz-adv-x="1068" 
d="M56 672q15 -49 22 -100q8 -51 11 -102q6 -96 8 -193q2 -96 24 -189q4 -14 8 -26q4 -13 9 -26q3 -12 3 -11q-1 1 6 -7q20 -23 15 -17q-6 6 -9 6q5 1 10 4q5 2 10 5q14 10 26 22q12 11 23 25q43 53 73 114q31 61 60 123q12 23 35 10q16 -9 15 -22q0 -7 -3 -14
q-33 -74 -68 -151q-36 -76 -91 -137q-16 -18 -37 -32t-44 -23q-28 -11 -56 -11q-15 0 -30 3q-43 8 -69 57q-41 77 -47 173q-7 96 -8 181v34q0 67 3 135q5 85 19 168q5 31 37 31h2q34 -1 43 -30zM454 610q6 -50 11 -99q5 -50 5 -101q0 -55 2 -113q1 -57 11 -112
q11 -54 30 -84q19 -31 74 -43q38 -8 75 26q37 33 55 61q23 32 43 67q21 34 36 71q22 51 38 114q17 63 5 121q-2 10 -15 34q-13 25 -31 1q-14 -18 -16 -46q-3 -28 -2 -50q1 -20 4 -39q2 -20 7 -39q5 -15 6 -38q2 -22 11 -35q12 -18 36 -9t38 17q56 31 100 77q43 45 87 91
q13 13 30 1q10 -7 10 -16q0 -5 -4 -12q-35 -55 -86 -106q-51 -52 -107 -86q-59 -36 -115 -30q-57 7 -92 74q-11 22 -19 50t-11 58q-6 56 10 109t65 77q51 24 96 8q45 -17 54 -76q10 -66 -2 -133q-12 -68 -38 -129q-21 -50 -46 -99q-25 -50 -58 -92q-28 -35 -61 -54
q-32 -19 -68 -42q-46 -30 -94 -30q-24 0 -49 8q-71 24 -104 100q-30 69 -37 146q-4 52 -4 104q0 23 1 46q1 22 2 43q1 22 4 43q1 17 1 37q1 21 6 36q10 25 16 50q7 26 12 52q7 30 32 30q4 0 9 -1q33 -6 37 -38z" />
    <glyph glyph-name="x" unicode="x" horiz-adv-x="717" 
d="M-90 659q69 -70 137 -142t128 -150q30 -39 57 -80q28 -41 53 -84q19 -33 37 -67q17 -33 46 -60q25 -23 54 -27q28 -5 56 4q52 17 96 66t63 94q25 63 46 128q20 66 34 132q5 21 25 16q17 -5 17 -20v-6q-13 -76 -35 -154q-22 -77 -51 -149q-20 -49 -67 -101t-105 -79
q-31 -14 -63 -18q-8 -1 -16 -1q-24 0 -47 9q-63 23 -107 70q-43 46 -79 101q-19 29 -37 59t-37 58q-61 93 -124 183q-63 91 -123 184q-5 8 -5 15q0 11 12 20q9 7 18 7t17 -8zM-99 62q84 41 145 116q61 74 114 147q27 37 53 74q27 38 51 76l26 44q13 23 25 45q8 17 16 33
q7 15 21 27q8 7 17 7q5 0 9 -1q14 -5 15 -22v-6q0 -41 -30 -86q-33 -49 -57 -83q-27 -39 -55 -76t-57 -74q-56 -73 -121 -145q-64 -72 -151 -111q-5 -2 -10 -2q-11 -1 -18 11q-4 7 -4 12q0 9 11 14z" />
    <glyph glyph-name="y" unicode="y" horiz-adv-x="1027" 
d="M71 650q39 -72 42 -136q4 -63 -5 -141q-9 -79 12 -154q22 -76 99 -113q35 -16 71 -14q35 3 70 19q64 29 117 89q53 61 79 114q38 80 67 181t15 190q17 3 35 5q17 3 34 5q-11 -138 -13 -278q-1 -140 -43 -274q-43 -134 -56 -267q-12 -133 -12 -273q-1 -76 -3 -160
q-3 -83 -28 -157q-14 -40 -36 -76t-57 -65q-21 -18 -48 -30t-57 -19q-32 -6 -65 -6q-24 0 -49 3q-59 9 -102 37q-22 15 -35 36q-13 22 -20 47q-11 47 -3 99t23 91q14 37 34 71q19 34 41 65q41 60 86 115q46 56 84 118q70 113 154 210q84 98 173 194q24 26 48 56q23 30 47 60
q45 58 94 111t108 85q22 11 35 -11q5 -8 5 -15q0 -11 -14 -19q-52 -27 -95 -75t-82 -98q-21 -28 -42 -54q-20 -26 -41 -49q-63 -68 -127 -136t-120 -142t-106 -152t-105 -152q-18 -23 -38 -51t-40 -59q-35 -58 -55 -121q-20 -64 4 -122q14 -33 34 -48q20 -14 43 -14
q18 -1 38 7q19 7 38 20q34 23 60 58t32 65q10 49 12 99t2 101q0 96 2 193q2 96 10 193q9 103 36 201q28 98 60 196q32 99 70 193q37 94 49 198q4 34 35 35h1q30 0 34 -34q9 -69 -4 -149q-14 -80 -45 -161q-37 -97 -98 -186q-60 -89 -136 -150q-41 -33 -85 -56
q-45 -23 -92 -33q-35 -7 -67 -4q-33 4 -62 17q-55 24 -96 72q-41 49 -62 106q-16 44 -20 85q-3 28 -3 55v27q4 75 20 149q15 74 12 154q-1 30 25 46q26 15 50 7q8 -3 15 -9t12 -15z" />
    <glyph glyph-name="z" unicode="z" horiz-adv-x="922" 
d="M-116 419q57 62 138 93q82 30 159 58q79 29 162 46q81 16 163 17q3 0 5 -1q38 0 61 -29t16 -66q-9 -43 -31 -70q-23 -27 -48 -59q-22 -27 -45 -51t-47 -49l-118 -124t-121 -121q-37 -34 -80 -19q-43 16 -54 55q-3 13 -2 27q1 15 9 30q20 38 52 69q33 30 70 52
q19 12 40 22q20 11 43 17q25 6 42 -2q17 -9 38 -18q-9 1 -17 2l-18 2q60 13 126 9q66 -5 113 -50q37 -34 51 -82q15 -48 18 -96q4 -46 2 -90q-1 -45 6 -90q10 -71 -2 -144q-13 -73 -37 -140q-27 -77 -79 -142q-52 -66 -131 -96q-38 -14 -88 -15h-2q-49 0 -79 32
q-31 31 -42 71q-12 41 -7 84q3 22 13 39q11 17 20 36q8 17 18 33t21 30q26 33 55 63q30 29 61 57q48 43 97 85t93 90q108 115 211 239q102 124 182 259q14 22 37 10q16 -9 15 -21q0 -7 -4 -15q-9 -15 -18 -29q-9 -15 -18 -29q-88 -132 -189 -257t-211 -238q-48 -49 -101 -92
t-100 -93q-28 -31 -54 -71q-25 -40 -17 -83q5 -23 18 -36q14 -12 36 0q29 15 52 38q22 23 40 51q22 32 46 62q24 29 41 65q24 52 33 105q10 52 11 108q2 50 2 103q1 53 -17 101q-24 65 -82 68q-59 3 -115 -19q7 6 15 11l14 12q-10 -17 -15 -32q-5 -14 -24 -26
q-12 -8 -25 -14t-25 -13q-23 -13 -43 -29q-20 -15 -32 -39q-32 24 -64 47q-31 23 -63 46q59 56 114 114l112 118q21 22 45 47q23 26 50 42q22 13 35 33q12 21 17 46q19 -23 39 -47l38 -48q-85 -1 -165 -22t-160 -47q-73 -24 -148 -46q-75 -21 -150 12q-13 6 -15 20v4
q0 12 8 20z" />
    <glyph glyph-name="braceleft" unicode="{" horiz-adv-x="430" 
d="M311 1454q-49 -39 -87 -88q-39 -49 -33 -117q4 -51 22 -95q19 -45 38 -91q21 -48 32 -107q12 -60 2 -112q-13 -67 -54 -122q-41 -54 -88 -102l-10 64t-9 64q51 -26 91 -81t49 -112q10 -59 7 -118q-4 -59 -14 -119q-8 -55 -15 -111q-8 -57 0 -112q4 -25 12 -49
q7 -23 23 -43q17 -22 39 -39q21 -18 37 -41q6 -9 6 -18q0 -8 -5 -16q-12 -17 -30 -18q-5 -1 -11 -1q-57 1 -102 45q-49 49 -73 103t-26 115q-3 60 2 118q5 57 12 115t4 115q-1 22 -6 43q-4 22 -14 38q-13 22 -26 26q-12 5 -38 17q-36 18 -41 59q-1 8 -1 15q0 32 22 54
q39 39 78 89q39 51 42 110q2 51 -4 103q-6 51 -11 102q-4 51 -7 98q-2 47 16 96q19 51 59 90t87 66q5 3 10 3q9 0 17 -10q13 -15 -2 -26z" />
    <glyph glyph-name="bar" unicode="|" horiz-adv-x="410" 
d="M132 -15q-2 199 8 398q11 199 16 398q3 113 -6 224q-8 111 -18 224q-4 54 -10 108l-10 108q-3 30 -3 61v31q3 48 46 75l-10 -14q-6 -7 -11 -14q1 4 2 7q1 4 2 7q7 24 31 28h7q19 0 31 -18l4 -6l4 -6l-14 10q-7 6 -13 11q54 -16 68 -69q13 -52 17 -100q5 -54 6 -108
q1 -20 1 -40q0 -35 -2 -68q-5 -113 -17 -225t-20 -225q-13 -199 -34 -398t-34 -398q-1 -20 -21 -20h-1q-18 0 -19 19z" />
    <glyph glyph-name="braceright" unicode="}" horiz-adv-x="369" 
d="M115 1458q70 -57 117 -144t37 -180q-5 -52 -19 -106t-11 -107q3 -56 34 -95q32 -40 73 -74q26 -20 26 -48q0 -8 -3 -17q-10 -39 -38 -60q-36 -29 -69 -69t-42 -87q-9 -55 10 -110q19 -56 32 -108q13 -49 21 -99q7 -51 -2 -102q-5 -25 -13 -49q-9 -25 -21 -48
q-14 -27 -34 -43t-40 -37q-9 -9 -18 -9q-7 0 -15 6q-16 13 -8 32q9 21 12 42q4 22 13 42q6 12 11 26q5 13 9 26q5 23 6 46q2 23 -3 46q-13 59 -37 113t-41 111q-14 47 -20 103q-6 55 12 103q22 57 58 102q37 46 82 86q0 -28 1 -56q0 -28 1 -56q-42 32 -78 79q-35 47 -49 99
q-16 58 -8 111t29 107q20 52 39 102t13 107q-6 55 -35 98q-29 44 -62 85q-7 8 -7 16t7 15t15 7q7 0 15 -6z" />
    <glyph glyph-name="asciitilde" unicode="~" horiz-adv-x="1208" 
d="M1 689q46 81 115 147q68 65 162 88q61 14 122 14q22 0 45 -2q83 -7 163 -36q91 -34 177 -84q87 -50 171 -98q19 -10 26 -18q7 -7 24 -6q14 0 27 6t23 16q31 31 58 66q26 35 53 70q14 18 34 3q13 -10 13 -22q0 -6 -4 -13q-22 -39 -50 -88q-27 -50 -64 -89q-19 -20 -42 -36
q-22 -15 -49 -22q-10 -2 -21 -4q-10 -1 -21 -3q32 5 8 0q-25 -5 -28 -5h-1q-26 0 -50 5t-48 17q-43 21 -84 46t-83 48q-74 42 -154 91q-80 50 -164 69q-37 8 -71 5q-33 -4 -64 -16q-58 -24 -104 -70q-47 -47 -83 -99q-11 -16 -29 -7q-11 6 -11 16q0 5 4 11z" />
    <glyph glyph-name="questiondown" unicode="&#xbf;" horiz-adv-x="860" 
d="M-32768 -22613h-198h-197h-271h-270h-395h-394v19h394h395h270h271h207h207v-349v-350v-236v-236v-182v-182h-399h-399h-271h-270h-203h-202v20h202h203h270h271h389h390v172v172v236v236v237v236v103v104zM-33529 -22775q-71 63 -132 71t-113 -22q-42 -25 -78 -70
t-66 -102q-19 -36 -36 -76q-16 -40 -30 -80q-26 -74 -43 -144q-16 -70 -24 -119q-12 -84 -9 -179q2 -96 33 -180q17 -46 44 -86q26 -40 64 -72q52 -43 119 -59q67 -17 135 -13q84 4 145 40q62 36 117 98q98 112 145 262q48 149 56 296q4 72 -6 146q-9 74 -40 141
q-36 75 -93 128q-57 54 -130 93q-18 9 -10 29q7 21 27 15q72 -24 127 -65q56 -42 96 -96q76 -100 105 -232q22 -101 22 -200q0 -29 -2 -59q-7 -103 -32 -205q-25 -103 -67 -197q-48 -108 -116 -198q-69 -90 -186 -132q-54 -19 -112 -26q-33 -4 -66 -4q-24 0 -48 2
q-106 9 -202 57q-97 49 -162 133q-64 81 -93 180t-32 203q-1 18 -1 36q0 37 3 75q4 55 13 108q11 61 39 139q29 77 71 155q23 42 50 82t56 76q46 55 98 98q51 42 107 62q43 15 86 15q28 0 56 -6q72 -15 145 -87q15 -15 0 -30t-30 -1zM-66282 -16q4 -17 7 -35q4 -18 4 -36
v-13q0 -47 -11 -89q-13 -48 -38 -88q-46 -74 -126 -117q-80 -44 -178 -49h-28q-41 0 -82 5q-55 8 -108 26q-97 34 -172 104q-75 71 -98 178q-10 47 -10 94q0 76 28 152q44 123 146 200q23 17 49 30q27 14 55 21q26 7 54 6t54 7q41 13 77 51q36 39 50 85q8 25 8 51
q-1 25 -12 48q-17 37 8 65q21 23 45 23q6 0 11 -1q10 -2 19 -9q10 -7 17 -19q44 -78 44 -164t-53 -160q-25 -36 -57 -64q-32 -29 -71 -47q-34 -14 -66 -18q-32 -3 -67 -7q-13 -1 -29 -7t-33 -17q-11 -8 -26 -21q-16 -14 -30 -32q-3 -4 -9 -13q-6 -8 -12 -20q-4 -7 -11 -22
t-7 -14q-7 -21 -13 -45q-6 -25 -6 -40q-2 -46 10 -91q12 -44 42 -78q47 -52 110 -89t131 -54q66 -16 139 -9q72 7 125 57q54 51 70 119q16 69 8 140q-2 18 18 21q21 3 24 -15zM-66574 919q1 -1 2 -1h3q-4 -1 -3 0l5 2q-2 -1 -3 -2t3 4q5 8 7 12q2 5 4 14q0 3 1 5v5
q0 -3 0 -2t1 5q0 1 -1 7t1 -1q-2 7 0 3q1 -4 3 -6q-7 7 0 2q6 -4 -1 0q5 -2 6 -3q1 0 -3 1q3 -1 6 -1q4 0 7 1q-7 -2 0 1q7 4 1 0q-7 -5 0 1q6 5 1 -1q-3 -2 -4 -5q-2 -2 4 6q-2 -3 -4 -7q-1 -4 2 6q-2 -7 -1 2q0 8 1 1t-1 2q-1 8 1 2q2 -7 1 -13q0 -6 -1 -13
q-4 -20 -21 -29q-18 -8 -36 -6q-25 4 -35 28q-6 16 -6 31q-1 7 1 14q2 13 9 25q7 13 16 23q25 24 58 28q6 1 11 1q27 0 50 -21q31 -27 31 -69v-2q0 -41 -19 -73q-11 -18 -26 -32t-37 -17h-11q-14 0 -26 5q-17 7 -32 20q-19 18 -3 37t38 10z" />
    <glyph glyph-name="emdash" unicode="&#x2014;" horiz-adv-x="574" 
 />
    <glyph glyph-name="quoteleft" unicode="&#x2018;" horiz-adv-x="389" 
d="M119 1516q78 -3 119 -59t60 -129q9 -38 14 -77t7 -73v-2q0 -16 -18 -21q-5 -1 -9 -1q-12 0 -19 12q-21 36 -38 74q-18 39 -41 74q-14 21 -38 50q-24 28 -50 32q-41 7 -44 47q-1 5 -1 10q0 33 24 52q7 5 15 8q8 2 17 3h2z" />
    <glyph glyph-name="quoteright" unicode="&#x2019;" horiz-adv-x="410" 
d="M283 1395q-26 -4 -50 -32t-38 -49q-23 -36 -41 -74q-17 -39 -38 -75q-7 -12 -19 -12q-4 0 -9 1q-18 5 -18 21v3q2 33 7 72t14 78q19 72 60 128q41 57 119 59h2q39 0 52 -38q4 -14 4 -27q0 -22 -13 -38q-6 -6 -14 -10q-8 -5 -18 -7z" />
    <glyph glyph-name="quotedblleft" unicode="&#x201c;" horiz-adv-x="574" 
d="M237 1476q11 20 29 26q13 5 28 5q5 0 11 -1q37 -5 65 -25q27 -20 46 -50q35 -56 48 -130t17 -130v-2q-1 -17 -18 -21q-5 -2 -9 -2q-12 0 -19 12q-24 41 -43 87q-18 45 -50 81q-12 13 -26 31q-13 18 -29 26q-20 11 -33 19q-14 8 -23 31q-3 7 -3 13q0 5 1 9q3 12 8 21z
M187 1354q24 -30 41 -59q18 -29 34 -63q15 -32 30 -67q15 -36 24 -70q1 -4 1 -8q0 -12 -12 -19q-7 -3 -14 -3q-8 0 -16 6q-28 25 -51 56q-23 30 -49 58q-21 23 -39 49q-18 25 -37 51q-6 7 -8 15q-1 6 -1 12v4q3 32 38 49q13 7 25 7q19 0 34 -18z" />
    <glyph glyph-name="quotedblright" unicode="&#x201d;" horiz-adv-x="574" 
d="M467 1274q-19 -26 -37 -52q-17 -27 -40 -49q-25 -24 -45 -51q-20 -28 -46 -50q-7 -7 -16 -7q-6 0 -13 3q-13 6 -13 18q0 4 1 9q9 33 24 69q14 35 29 67q16 33 34 63q17 29 41 58q9 11 18 16q10 4 19 4h1q29 0 48 -33q8 -14 8 -29q0 -18 -13 -36zM291 1386q-14 -6 -27 -23
q-12 -16 -22 -27q-35 -39 -56 -86q-21 -46 -46 -91q-7 -12 -21 -12q-4 0 -7 1q-18 3 -18 20v2q3 63 17 136q14 74 52 128q21 29 50 49t69 25h6q13 0 25 -7q16 -10 23 -23q0 -1 1 -2q0 -1 1 -2q9 -15 9 -29t-10 -26q-20 -23 -46 -33z" />
  </font>
</defs>
</svg>
