<?xml version="1.0" standalone="no"?>
<!DOCTYPE svg PUBLIC "-//W3C//DTD SVG 1.1//EN" "http://www.w3.org/Graphics/SVG/1.1/DTD/svg11.dtd" >
<svg xmlns="http://www.w3.org/2000/svg" xmlns:xlink="http://www.w3.org/1999/xlink" version="1.1">
<metadata>
Created by FontForge 20170731 at Mon Nov 22 04:37:28 2004
 By Aleksey,,,
4.1 Copyright 1992 Software Complement                                                                
</metadata>
<defs>
<font id="KasseFLF" horiz-adv-x="628" >
  <font-face 
    font-family="KasseFLF"
    font-weight="500"
    font-stretch="normal"
    units-per-em="1000"
    panose-1="2 0 6 3 7 0 0 2 0 4"
    ascent="800"
    descent="-200"
    x-height="582"
    cap-height="802"
    bbox="-179 -198 1294 1049"
    underline-thickness="40"
    underline-position="-180"
    unicode-range="U+0005-E00A"
  />
<missing-glyph horiz-adv-x="500" 
 />
    <glyph glyph-name=".notdef" horiz-adv-x="500" 
 />
    <glyph glyph-name=".null" horiz-adv-x="0" 
 />
    <glyph glyph-name="nonmarkingreturn" horiz-adv-x="333" 
 />
    <glyph glyph-name="breve" horiz-adv-x="254" 
d="M20 795q0 -21 9 -39t23.5 -30.5t34 -20t40.5 -7.5t40.5 7.5t34 20t23.5 30.5t9 39q0 10 -8.5 15.5t-18.5 5.5t-18.5 -5.5t-8.5 -15.5q0 -20 -16.5 -31.5t-36.5 -11.5t-36.5 11.5t-16.5 31.5q0 10 -8.5 15.5t-18.5 5.5t-18.5 -5.5t-8.5 -15.5z" />
    <glyph glyph-name="dotaccent" horiz-adv-x="128" 
d="M20 772q0 -18 13 -31t31 -13t31 13t13 31t-13 31t-31 13t-31 -13t-13 -31z" />
    <glyph glyph-name="ring" horiz-adv-x="202" 
d="M57 722q0 18 13 31t31 13t31 -13t13 -31t-13 -31t-31 -13t-31 13t-13 31zM101 803q-34 0 -57.5 -23.5t-23.5 -57.5t23.5 -57.5t57.5 -23.5t57.5 23.5t23.5 57.5t-23.5 57.5t-57.5 23.5zM57 722q0 18 13 31t31 13t31 -13t13 -31t-13 -31t-31 -13t-31 13t-13 31zM101 803
q-34 0 -57.5 -23.5t-23.5 -57.5t23.5 -57.5t57.5 -23.5t57.5 23.5t23.5 57.5t-23.5 57.5t-57.5 23.5z" />
    <glyph glyph-name="caron" horiz-adv-x="440" 
d="M20 194h400v307l-93 93h-307v-400zM379 392q0 55 -35 99l-34 -34q8 -11 15 -26.5t7 -38.5q0 -16 -5.5 -34t-16.5 -32l34 -33q19 21 27 47.5t8 51.5zM173 495q-35 -17 -50 -46.5t-15 -56.5q0 -32 12 -53t28 -34t31.5 -18t22.5 -5q19 0 31 12t12 24q0 20 -13 33
q-10 10 -31 24.5t-32 26.5q-10 11 -14.5 24t-4.5 25q0 29 23 44zM269 382q-13 14 -33 28t-28 23q-6 8 -9.5 14t-3.5 16q0 14 10.5 25.5t30.5 11.5q8 0 19.5 -4t29.5 -14l34 34q-23 19 -48.5 27t-50.5 8q-33 0 -62 -12.5t-50.5 -34t-34 -50.5t-12.5 -62t12.5 -62t34 -50.5
t50.5 -34t62 -12.5q26 0 50.5 8t47.5 26l-35 35q-5 -3 -8.5 -5.5t-11.5 -6.5q13 6 19 19t6 25q0 11 -4 23t-15 25zM25 589h300l90 -90v-300h-390v390zM373 392q0 -57 -30 -92l-26 27q11 14 15.5 31t4.5 34q0 22 -6 36.5t-14 28.5l27 26q17 -23 23 -47t6 -44zM164 399
q2 -2 7 -6.5t22 -17.5q14 -11 22 -17t13 -11q5 -7 8.5 -13.5t3.5 -15.5q0 -11 -11.5 -20.5t-26.5 -9.5q-12 0 -29.5 7.5t-30.5 21.5q-14 14 -21 32t-7 43q0 21 8.5 43t25.5 37q-2 -5 -2.5 -10.5t-0.5 -10.5q0 -13 4 -25.5t15 -26.5zM265 379q10 -14 14 -24t4 -21
q0 -14 -6.5 -24t-15 -17t-16.5 -10.5t-12 -4.5q20 3 33 9t17 8l27 -27q-23 -17 -46.5 -23t-43.5 -6q-32 0 -60 12t-49 32.5t-33 48.5t-12 60t12 60t33 49t49 33t60 12q23 0 46 -6.5t46 -23.5l-28 -28q-11 8 -25 12.5t-22 4.5q-19 0 -33.5 -11t-14.5 -31q0 -8 3 -16t12 -17
q7 -7 15 -13.5t13 -9.5q18 -13 24.5 -19.5z" />
    <glyph glyph-name="dotlessi" unicode="&#xd;" horiz-adv-x="182" 
d="M135 582h-88v-582h88v582z" />
    <glyph glyph-name="fraction" horiz-adv-x="1012" 
d="M20 752h80v-552h68v602h-148v-50zM119 0h63l482 802h-63zM766 332q-34 0 -59.5 5t-42.5 18t-25.5 36.5t-8.5 60.5q0 28 5.5 49.5t20.5 36.5t41.5 22.5t68.5 7.5t68.5 -7.5t41.5 -22.5t20.5 -36.5t5.5 -49.5q0 -37 -8.5 -60.5t-25.5 -36.5t-42.5 -18t-59.5 -5zM766 26
q-26 0 -54 2.5t-51 14.5t-38 36.5t-15 68.5q0 58 17.5 87t42.5 41t52 12h46h46t52 -12t42.5 -41t17.5 -87q0 -44 -15 -68.5t-38 -36.5t-51 -14.5t-54 -2.5zM766 -14q64 0 107 11t69.5 32t38 51t11.5 68q0 42 -8.5 71.5t-26.5 49t-47 30t-70 14.5q31 6 55 16t41 26t26 39.5
t9 57.5q0 33 -9.5 61.5t-33 49.5t-63 33t-99.5 12t-99.5 -12t-63 -33t-33 -49.5t-9.5 -61.5q0 -34 9 -57.5t26 -39.5t41 -26t55 -16q-41 -4 -70 -14.5t-47 -30t-26.5 -49t-8.5 -71.5q0 -38 11.5 -68t38 -51t69.5 -32t107 -11z" />
    <glyph glyph-name="fi" horiz-adv-x="609" 
d="M340 774q79 0 109.5 -32t30.5 -101h91q0 59 -22 94t-56 53t-75 23t-78 5q-36 0 -75.5 -4.5t-72 -17.5t-53.5 -36.5t-21 -60.5v-115h-105v-51h105v-531h88v531h222v51h-222v104q0 28 12 45.5t31 27t43 12.5t48 3zM569 582h-88v-582h88v582z" />
    <glyph glyph-name="fl" horiz-adv-x="615" 
d="M340 816q-36 0 -75.5 -4.5t-72 -17.5t-53.5 -36.5t-21 -60.5v-115h-105v-51h105v-531h88v531h222v51h-222v104q0 28 12 45.5t31 27t43 12.5t48 3q79 0 109.5 -31.5t30.5 -92.5v-650h88v802h-88q-18 0 -30.5 2t-26 5t-32.5 5t-51 2z" />
    <glyph glyph-name="Lslash" horiz-adv-x="717" 
d="M143 354v-354h561v54h-465v340l96 40v54l-96 -40v354h-96v-394l-96 -40v-54z" />
    <glyph glyph-name="lslash" horiz-adv-x="320" 
d="M116 408l-96 -40v-54l96 40v-354h88v391l96 40v54l-96 -40v357h-88v-394z" />
    <glyph glyph-name="Zcaron" horiz-adv-x="698" 
d="M23 748h553l-563 -673v-75h659v54h-563l563 673v75h-649v-54zM236 952q0 -21 9 -39t23.5 -30.5t34 -20t40.5 -7.5t40.5 7.5t34 20t23.5 30.5t9 39q0 10 -8.5 15.5t-18.5 5.5t-18.5 -5.5t-8.5 -15.5q0 -20 -16.5 -31.5t-36.5 -11.5t-36.5 11.5t-16.5 31.5q0 10 -8.5 15.5
t-18.5 5.5t-18.5 -5.5t-8.5 -15.5z" />
    <glyph glyph-name="zcaron" horiz-adv-x="576" 
d="M439 534l-426 -464v-70h543v48h-452l426 464v70h-517v-48h426zM178 737q0 -21 9 -39t23.5 -30.5t34 -20t40.5 -7.5t40.5 7.5t34 20t23.5 30.5t9 39q0 10 -8.5 15.5t-18.5 5.5t-18.5 -5.5t-8.5 -15.5q0 -20 -16.5 -31.5t-36.5 -11.5t-36.5 11.5t-16.5 31.5q0 10 -8.5 15.5
t-18.5 5.5t-18.5 -5.5t-8.5 -15.5z" />
    <glyph glyph-name="space" unicode=" " horiz-adv-x="313" 
 />
    <glyph glyph-name="exclam" unicode="!" horiz-adv-x="200" 
d="M148 802h-96v-628h96v628zM57 3q5 -5 17 -7.5t26 -2.5t26 2.5t17 7.5t7.5 17t2.5 26t-2.5 26t-7.5 17t-17 7.5t-26 2.5t-26 -2.5t-17 -7.5t-7.5 -17t-2.5 -26t2.5 -26t7.5 -17z" />
    <glyph glyph-name="quotedbl" unicode="&#x22;" horiz-adv-x="252" 
d="M55 699q6 -2 11 -2t11 2q3 1 9 21.5t12 48.5t10 57t4 47q0 15 -3 18q-5 5 -17 8t-26 3t-26 -3t-17 -8q-3 -3 -3 -18q0 -18 4 -47t10 -57t12 -48.5t9 -21.5zM175 699q6 -2 11 -2t11 2q3 1 9 21.5t12 48.5t10 57t4 47q0 15 -3 18q-5 5 -17 8t-26 3t-26 -3t-17 -8
q-3 -3 -3 -18q0 -18 4 -47t10 -57t12 -48.5t9 -21.5z" />
    <glyph glyph-name="numbersign" unicode="#" horiz-adv-x="441" 
d="M20 651h103v-99h-103v-48h103v-103h48v103h99v-103h48v103h103v48h-103v99h103v48h-103v103h-48v-103h-99v103h-48v-103h-103v-48zM171 651h99v-99h-99v99z" />
    <glyph glyph-name="dollar" unicode="$" horiz-adv-x="703" 
d="M327 816q-93 -3 -150 -21t-88.5 -48t-42.5 -69t-11 -83q0 -73 20 -113.5t58 -61.5t92 -29.5t122 -16.5v-332q-57 5 -94.5 19.5t-60 34t-33.5 42.5t-14.5 44.5t-3 40.5t0.5 31h-96q0 -18 1.5 -43.5t10 -53.5t27 -56t52 -52t85 -40.5t125.5 -20.5v-98h64v96
q88 1 143.5 17.5t87 45.5t43.5 69.5t12 88.5q0 76 -23.5 118.5t-63 65t-91 31t-108.5 14.5v325q48 -4 80 -15.5t52 -28t30.5 -37t15 -42t4.5 -43.5v-39h96q0 11 0.5 33.5t-5 50t-20 57t-45.5 54.5t-81.5 42.5t-126.5 21.5v99h-64v-98zM391 367q42 -5 76.5 -12.5t60 -24.5
t39.5 -47t14 -80q0 -37 -7 -67t-27.5 -51t-57.5 -32.5t-98 -12.5v327zM327 762v-318q-49 7 -86.5 14t-62.5 22.5t-37.5 42.5t-12.5 74q0 35 6.5 64.5t27.5 51t60 34.5t105 15z" />
    <glyph glyph-name="percent" unicode="%" horiz-adv-x="683" 
d="M169 802q-30 0 -55.5 -4t-44.5 -15t-31 -29.5t-14 -47.5q-2 -20 -3 -36.5t-1 -33.5t1 -33.5t3 -36.5q2 -29 14 -47.5t31 -29.5t44.5 -15t55.5 -4t55.5 4t44.5 15t31 29.5t14 47.5q2 20 3 36.5t1 33.5t-1 33.5t-3 36.5q-2 29 -14 47.5t-31 29.5t-44.5 15t-55.5 4zM169 748
q45 0 62.5 -17t19.5 -47q1 -14 1.5 -25.5t0.5 -22.5t-0.5 -22t-1.5 -26q-2 -30 -19.5 -47t-62.5 -17t-62.5 17t-19.5 47q-1 15 -1.5 26t-0.5 22t0.5 22.5t1.5 25.5q2 30 19.5 47t62.5 17zM76 0h75l481 802h-75zM514 332q-30 0 -55.5 -4t-44.5 -15t-31 -29.5t-14 -47.5
q-2 -20 -3 -36.5t-1 -33.5t1 -33.5t3 -36.5q2 -29 14 -47.5t31 -29.5t44.5 -15t55.5 -4t55.5 4t44.5 15t31 29.5t14 47.5q2 20 3 36.5t1 33.5t-1 33.5t-3 36.5q-2 29 -14 47.5t-31 29.5t-44.5 15t-55.5 4zM514 278q45 0 62.5 -17t19.5 -47q1 -14 1.5 -25.5t0.5 -22.5
t-0.5 -22t-1.5 -26q-2 -30 -19.5 -47t-62.5 -17t-62.5 17t-19.5 47q-1 15 -1.5 26t-0.5 22t0.5 22.5t1.5 25.5q2 30 19.5 47t62.5 17z" />
    <glyph glyph-name="ampersand" unicode="&#x26;" horiz-adv-x="708" 
d="M417 448h-105q-33 0 -65.5 5.5t-57.5 22t-40.5 48t-15.5 84.5q0 73 42.5 115t138.5 42q63 0 101.5 -15t55.5 -32q24 -26 29.5 -55.5t5.5 -72.5h86q0 51 -6.5 84.5t-27.5 61.5q-19 24 -45.5 39.5t-58 24.5t-67.5 12.5t-73 3.5q-80 0 -131.5 -16.5t-81.5 -44.5t-41.5 -66
t-11.5 -81q0 -89 45.5 -131t127.5 -55q-100 -11 -150.5 -61t-50.5 -159q0 -50 14 -90t47.5 -68t89.5 -43t141 -15q74 0 124.5 12.5t83 32.5t50.5 45.5t26 51.5t9.5 50.5t2.5 42.5h80v53h-273v-53h107q0 -30 -6 -62.5t-27 -59.5t-62.5 -44.5t-114.5 -17.5q-34 0 -70 5
t-66 22.5t-49 52t-19 93.5q0 62 22.5 98.5t57 56t75 25t76.5 5.5h78v53z" />
    <glyph glyph-name="quotesingle" unicode="'" horiz-adv-x="132" 
d="M55 699q6 -2 11 -2t11 2q3 1 9 21.5t12 48.5t10 57t4 47q0 15 -3 18q-5 5 -17 8t-26 3t-26 -3t-17 -8q-3 -3 -3 -18q0 -18 4 -47t10 -57t12 -48.5t9 -21.5z" />
    <glyph glyph-name="parenleft" unicode="(" horiz-adv-x="193" 
d="M93 401q0 60 4 109.5t13.5 96.5t24.5 97t38 112h-73q-23 -62 -38.5 -112t-24.5 -97t-13 -96.5t-4 -109.5t4 -109.5t13 -96.5t24.5 -97.5t38.5 -111.5h73q-23 61 -38 111.5t-24.5 97.5t-13.5 96.5t-4 109.5z" />
    <glyph glyph-name="parenright" unicode=")" horiz-adv-x="193" 
d="M100 401q0 -60 -4 -109.5t-13.5 -96.5t-25 -97.5t-37.5 -111.5h73q23 61 38.5 111.5t24.5 97.5t13 96.5t4 109.5t-4 109.5t-13 96.5t-24.5 97t-38.5 112h-73q22 -62 37.5 -112t25 -97t13.5 -96.5t4 -109.5z" />
    <glyph glyph-name="asterisk" unicode="*" horiz-adv-x="460" 
d="M272 608h168v48h-168l84 146l-42 24l-84 -146l-84 146l-42 -24l84 -146h-168v-48h168l-84 -146l42 -24l84 146l84 -146l42 24z" />
    <glyph glyph-name="plus" unicode="+" horiz-adv-x="362" 
d="M208 374h134v54h-134v134h-54v-134h-134v-54h134v-134h54v134z" />
    <glyph glyph-name="comma" unicode="," horiz-adv-x="138" 
d="M77 0q-5 -28 -14 -52t-16 -51h37q6 16 12 38.5t11 47t8 48t3 41.5q0 14 -3 17q-5 5 -17 7.5t-26 2.5t-25.5 -2.5t-16.5 -7.5t-7.5 -17t-2.5 -26t2.5 -26t7.5 -17t17 -5q6 0 14 0.5t16 1.5z" />
    <glyph glyph-name="hyphen" unicode="-" horiz-adv-x="362" 
d="M342 374v54h-322v-54h322z" />
    <glyph glyph-name="period" unicode="." horiz-adv-x="146" 
d="M30 3q5 -5 17 -7.5t26 -2.5t26 2.5t17 7.5t7.5 17t2.5 26t-2.5 26t-7.5 17t-17 7.5t-26 2.5t-26 -2.5t-17 -7.5t-7.5 -17t-2.5 -26t2.5 -26t7.5 -17z" />
    <glyph glyph-name="slash" unicode="/" horiz-adv-x="583" 
d="M13 0h75l482 802h-75z" />
    <glyph glyph-name="zero" unicode="0" horiz-adv-x="684" 
d="M342 40q-73 0 -117 19t-68 61.5t-32 111.5t-8 169t8 169t32 111.5t68 61.5t117 19t117 -19t68 -61.5t32 -111.5t8 -169t-8 -169t-32 -111.5t-68 -61.5t-117 -19zM342 -14q55 0 108.5 8t96.5 33t72 72.5t36 125.5q5 50 7 92.5t2 83.5t-2 83t-7 93q-7 78 -36 125.5
t-72 72.5t-96.5 33t-108.5 8t-108.5 -8t-96.5 -33t-72 -72.5t-36 -125.5q-5 -51 -7 -93t-2 -83t2 -83.5t7 -92.5q7 -78 36 -125.5t72 -72.5t96.5 -33t108.5 -8z" />
    <glyph glyph-name="one" unicode="1" horiz-adv-x="258" 
d="M13 735h107v-735h91v802h-198v-67z" />
    <glyph glyph-name="two" unicode="2" horiz-adv-x="601" 
d="M116 583q0 14 2.5 44t19.5 60t54.5 52.5t107.5 22.5t108.5 -15t56.5 -39.5t21.5 -57t3.5 -67.5q0 -45 -4 -75t-15 -52t-30.5 -38.5t-50.5 -32.5t-75 -34t-104 -45q-58 -26 -95 -54t-58.5 -60.5t-29.5 -70t-8 -81.5v-40h561v59h-465q0 23 1.5 49.5t12.5 52.5t35 51t69 45
q62 28 112 48t88.5 37.5t66 37t45.5 46t26.5 64.5t8.5 93q0 47 -12 89.5t-43 74.5t-86 50.5t-140 18.5q-70 0 -118 -14.5t-79 -37.5t-48 -50.5t-24.5 -53.5t-9 -47t-1.5 -30h96z" />
    <glyph glyph-name="three" unicode="3" 
d="M122 630q0 31 8.5 56t30 41.5t59 25.5t94.5 9t91 -10.5t53 -30.5t25 -48.5t6 -64.5q0 -54 -14 -85t-37 -46t-53.5 -18.5t-64.5 -3.5h-105v-65h105q34 0 69.5 -4t63.5 -22t46 -54t18 -100q0 -60 -18 -94.5t-47 -51t-65 -20.5t-71 -4q-66 0 -106.5 13.5t-62 37.5t-29 57.5
t-7.5 72.5h-91q0 -18 1.5 -42t9.5 -50t26 -51.5t51 -46t83.5 -33t124.5 -12.5q85 0 141 15t89.5 43t47.5 68t14 90q0 109 -51 159t-150 61q40 6 72 19t54.5 35t34.5 54.5t12 77.5q0 43 -11.5 81t-41.5 66t-81.5 44.5t-131.5 16.5q-74 0 -123 -12.5t-80 -32t-46.5 -44.5
t-22 -50.5t-6.5 -48.5v-38h86v40z" />
    <glyph glyph-name="four" unicode="4" horiz-adv-x="685" 
d="M13 295v-76h459v-219h85v219h115v59h-115v524h-110zM472 278h-376l376 445v-445z" />
    <glyph glyph-name="five" unicode="5" horiz-adv-x="639" 
d="M108 395q6 19 18.5 39.5t36 37t60.5 27.5t92 11q77 0 121 -18t65.5 -49.5t26.5 -74.5t5 -93t-7 -93t-29.5 -74.5t-65.5 -49.5t-116 -18q-69 0 -109 20.5t-60 49.5t-25 60.5t-5 54.5h-96q0 -19 2.5 -44t12 -51.5t28.5 -52t51.5 -46t81.5 -33t119 -12.5q79 0 136 15
t94.5 49t55.5 89.5t18 135.5t-18 135.5t-55.5 89.5t-94.5 49t-136 15q-43 0 -76 -6.5t-57.5 -16t-41 -20t-25.5 -17.5l24 239h442v59h-522l-34 -407h83z" />
    <glyph glyph-name="six" unicode="6" horiz-adv-x="642" 
d="M611 597q0 50 -14.5 90.5t-48.5 69t-90 44t-140 15.5q-55 0 -105 -8.5t-89 -34t-64.5 -73t-31.5 -125.5q-4 -51 -6 -92t-2 -82q0 -40 1.5 -82t6.5 -93q5 -58 21 -103t49.5 -75.5t87.5 -46t135 -15.5q91 0 149.5 20.5t92.5 56.5t46.5 86t12.5 109q0 70 -15 122.5t-50.5 87
t-93 51.5t-142.5 17q-79 0 -128.5 -18t-76.5 -35v108q0 37 9 68.5t32 54.5t62 35.5t99 12.5t100 -10t63 -30.5t32.5 -51.5t9.5 -73h88zM525 258q0 -50 -4.5 -90.5t-24.5 -69t-61 -43.5t-114 -15t-114 17t-61.5 47t-25 69.5t-4.5 84.5t4.5 85.5t25 71.5t61.5 49t114 18
t114 -16t61 -45.5t24.5 -71t4.5 -91.5z" />
    <glyph glyph-name="seven" unicode="7" 
d="M13 743h515l-389 -743h88l388 740v62h-602v-59z" />
    <glyph glyph-name="eight" unicode="8" horiz-adv-x="642" 
d="M321 448q-45 0 -79 6.5t-57 24t-34.5 48.5t-11.5 81q0 37 7 65.5t27 48t55.5 30t92.5 10.5t92.5 -10.5t55.5 -30t27 -48t7 -65.5q0 -50 -11.5 -81t-34.5 -48.5t-57 -24t-79 -6.5zM321 40q-35 0 -72.5 3.5t-68 19.5t-50 48.5t-19.5 90.5q0 52 11 86t28.5 54.5t40 30.5
t46 13.5t45.5 3t39 -0.5t39 0.5t45.5 -3t46 -13.5t40 -30.5t28.5 -54.5t11 -86q0 -58 -19.5 -90.5t-50 -48.5t-68 -19.5t-72.5 -3.5zM321 -14q85 0 142.5 15t93 43t50.5 68t15 90q0 56 -11 95.5t-35 65t-62.5 39.5t-93.5 20q41 8 73 21t54.5 35t34.5 53.5t12 76.5
q0 43 -12.5 81t-43.5 66t-84 44.5t-133 16.5t-133 -16.5t-84 -44.5t-43.5 -66t-12.5 -81q0 -45 12 -76.5t34.5 -53.5t54.5 -35t73 -21q-55 -6 -93.5 -20t-62.5 -39.5t-35 -65t-11 -95.5q0 -50 15 -90t50.5 -68t93 -43t142.5 -15z" />
    <glyph glyph-name="nine" unicode="9" horiz-adv-x="642" 
d="M31 205q0 -50 14.5 -90.5t48.5 -69t90 -44t140 -15.5q55 0 105 8.5t89 34t64.5 73t31.5 125.5q4 51 6 92t2 82q0 40 -1.5 82t-6.5 93q-5 58 -21 103t-49.5 75.5t-87.5 46t-135 15.5q-92 0 -150 -20.5t-92 -56.5t-46.5 -86t-12.5 -109q0 -70 15 -122.5t50.5 -87t93 -51.5
t142.5 -17q79 0 128.5 18t76.5 35v-108q0 -38 -9 -69t-32 -54t-62 -35.5t-99 -12.5t-100 10t-63 30.5t-32.5 51.5t-9.5 73h-88zM117 544q0 50 4.5 90.5t24.5 69t61 43.5t114 15t114 -17t61 -47t25 -69.5t5 -84.5t-5 -85.5t-25 -71.5t-61 -49t-114 -18t-114 16t-61 45.5
t-24.5 71t-4.5 91.5z" />
    <glyph glyph-name="colon" unicode=":" horiz-adv-x="186" 
d="M50 3q5 -5 17 -7.5t26 -2.5t26 2.5t17 7.5t7.5 17t2.5 26t-2.5 26t-7.5 17t-17 7.5t-26 2.5t-26 -2.5t-17 -7.5t-7.5 -17t-2.5 -26t2.5 -26t7.5 -17zM50 486q5 -5 17 -7.5t26 -2.5t26 2.5t17 7.5t7.5 17t2.5 26t-2.5 26t-7.5 17t-17 7.5t-26 2.5t-26 -2.5t-17 -7.5
t-7.5 -17t-2.5 -26t2.5 -26t7.5 -17z" />
    <glyph glyph-name="semicolon" unicode=";" horiz-adv-x="186" 
d="M50 486q5 -5 17 -7.5t26 -2.5t26 2.5t17 7.5t7.5 17t2.5 26t-2.5 26t-7.5 17t-17 7.5t-26 2.5t-26 -2.5t-17 -7.5t-7.5 -17t-2.5 -26t2.5 -26t7.5 -17zM97 0q-5 -28 -14 -52t-16 -51h37q6 16 12 38.5t11 47t8 48t3 41.5q0 14 -3 17q-5 5 -17 7.5t-26 2.5t-25.5 -2.5
t-16.5 -7.5t-7.5 -17t-2.5 -26t2.5 -26t7.5 -17t17 -5q6 0 14 0.5t16 1.5z" />
    <glyph glyph-name="less" unicode="&#x3c;" horiz-adv-x="200" 
d="M180 241v74l-86 86l86 86v74l-160 -160z" />
    <glyph glyph-name="equal" unicode="=" horiz-adv-x="362" 
d="M342 427v54h-322v-54h322zM342 319v54h-322v-54h322z" />
    <glyph glyph-name="greater" unicode="&#x3e;" horiz-adv-x="200" 
d="M20 241l160 160l-160 160v-74l86 -86l-86 -86v-74z" />
    <glyph glyph-name="question" unicode="?" horiz-adv-x="609" 
d="M106 575q0 50 9.5 87.5t32.5 62.5t61 37.5t96 12.5q32 0 63 -3.5t57 -14.5t45.5 -31t28.5 -53q13 -49 13 -98q0 -24 -3.5 -46t-9.5 -41q-5 -14 -16.5 -25t-32 -21.5t-50.5 -22t-72 -27.5q-31 -12 -48.5 -36.5t-25.5 -53.5t-10 -59.5t-2 -55.5h84q0 48 0.5 76t6.5 45
q5 16 13.5 26t22.5 18q25 13 57.5 22t63.5 19t54.5 23.5t30.5 36.5q7 24 10.5 55t3.5 63q0 36 -4 70t-10 57q-6 21 -18.5 42.5t-42 38t-79.5 27t-130 10.5q-85 0 -140 -15t-87.5 -45.5t-45 -75.5t-12.5 -105h86zM242 3q5 -5 17 -7.5t26 -2.5t26 2.5t17 7.5t7.5 17t2.5 26
t-2.5 26t-7.5 17t-17 7.5t-26 2.5t-26 -2.5t-17 -7.5t-7.5 -17t-2.5 -26t2.5 -26t7.5 -17z" />
    <glyph glyph-name="at" unicode="@" horiz-adv-x="410" 
d="M259 403q18 0 40 3t36 6v-70q0 -9 -1.5 -17t-9 -14t-23 -9.5t-42.5 -3.5q-14 0 -29 3t-27.5 9t-21 16t-8.5 24q0 34 22 43t64 10zM32 268q9 -32 34.5 -52t56 -32t61 -16.5t51.5 -4.5q22 0 40 3.5t34 7t31.5 7t33.5 3.5q8 0 9 3t1 16q0 4 3 8t3 7t-16 3t-31.5 -3.5t-32 -7
t-34.5 -7t-40 -3.5q-39 0 -68 7.5t-49.5 19.5t-32.5 26.5t-16 27.5q-9 37 -9 74q0 41 8 75q7 32 34 49.5t59.5 26t64 10t47.5 1.5q29 0 45 -6t16 -31q0 -11 -2.5 -19t-10 -13.5t-22 -9t-38.5 -4.5q-19 -1 -43.5 -2t-46.5 -8.5t-37 -24t-15 -47.5q0 -23 10.5 -39.5t28.5 -28
t42 -17t52 -5.5q22 0 41 3.5t34 8t26 8.5t18 4h9v209q0 35 -28.5 46.5t-73.5 11.5q-38 0 -76.5 -3.5t-72.5 -14.5t-60 -32.5t-38 -58.5q-6 -18 -9 -41t-3 -47t3 -46.5t9 -41.5z" />
    <glyph glyph-name="A" unicode="A" horiz-adv-x="803" 
d="M99 0l135 325h322l130 -325h104l-323 802h-117l-337 -802h86zM535 379h-278l140 338z" />
    <glyph glyph-name="B" unicode="B" horiz-adv-x="742" 
d="M716 211q0 60 -15.5 98.5t-44 61.5t-69.5 34t-93 16q92 14 136 57t44 127q0 50 -13 87t-46 61.5t-89.5 36.5t-143.5 12h-335v-802h375q70 0 125 5t92.5 25.5t57 63t19.5 117.5zM374 748q35 0 71.5 -1.5t66.5 -14.5t49 -42t19 -84t-15 -86.5t-44.5 -47t-74.5 -19.5
t-105 -4h-198v299h231zM341 395q65 0 116.5 -7t87 -26.5t54.5 -54t19 -89.5q0 -60 -17 -93.5t-45 -49t-65 -18.5t-77 -3h-271v341h198z" />
    <glyph glyph-name="C" unicode="C" horiz-adv-x="798" 
d="M123 241q-4 48 -5.5 85.5t-1.5 74.5t1.5 75t5.5 85q4 50 19.5 88t48 63t84 37.5t126.5 12.5q85 0 138.5 -17t84 -47t41.5 -72t11 -91h96q0 67 -14.5 119t-55 88t-113 55t-188.5 19q-105 0 -175 -19t-112 -51.5t-61.5 -76.5t-23.5 -94q-5 -51 -7 -92t-2 -82q0 -40 2 -82
t7 -93q4 -50 23.5 -94t61.5 -76.5t112 -51t175 -18.5q125 0 198 21.5t110.5 59t49 89t13.5 111.5h-96q0 -50 -11 -91.5t-41.5 -71.5t-84 -47t-138.5 -17q-75 0 -126.5 12.5t-84 37.5t-48 63t-19.5 88z" />
    <glyph glyph-name="D" unicode="D" horiz-adv-x="801" 
d="M769 227q6 51 9 92.5t3 81.5q0 41 -3 82t-9 92q-7 57 -27.5 100t-64 71t-113.5 42t-175 14h-342v-802h342q105 0 175 14t113.5 42t64 71t27.5 100zM364 54h-221v694h221q88 0 146.5 -10.5t93.5 -33t51 -58t20 -85.5q4 -47 5.5 -85t1.5 -75t-1.5 -74.5t-5.5 -85.5
q-4 -50 -20 -85.5t-51 -58t-93.5 -33t-146.5 -10.5z" />
    <glyph glyph-name="E" unicode="E" horiz-adv-x="648" 
d="M628 0v54h-485v353h427v54h-427v287h472v54h-568v-802h581z" />
    <glyph glyph-name="F" unicode="F" horiz-adv-x="635" 
d="M143 0v391h427v54h-427v303h472v54h-568v-802h96z" />
    <glyph glyph-name="G" unicode="G" horiz-adv-x="792" 
d="M123 241q-4 48 -5.5 85.5t-1.5 74.5t1.5 75t5.5 85q4 50 19.5 88t48 63t84 37.5t126.5 12.5q95 0 150 -17t82.5 -47t35 -71.5t7.5 -91.5h96q-2 60 -13 111.5t-49 89t-111 59t-198 21.5q-105 0 -175 -19t-112 -51.5t-61.5 -76.5t-23.5 -94q-5 -51 -7 -92t-2 -82t2 -82.5
t7 -92.5q4 -50 23.5 -94t61.5 -76.5t112 -51t175 -18.5q59 0 110 7t96.5 19t86 28t78.5 35v335h-337v-54h241v-254q-48 -33 -121 -47.5t-154 -14.5q-75 0 -126.5 12.5t-84 37.5t-48 63t-19.5 88z" />
    <glyph glyph-name="H" unicode="H" horiz-adv-x="791" 
d="M143 401h505v-401h96v802h-96v-347h-505v347h-96v-802h96v401z" />
    <glyph glyph-name="I" unicode="I" horiz-adv-x="190" 
d="M47 802v-802h96v802h-96z" />
    <glyph glyph-name="J" unicode="J" horiz-adv-x="670" 
d="M527 207q0 -39 -11 -70t-36 -52.5t-64.5 -33t-97.5 -11.5q-73 0 -114.5 19t-62.5 52t-26.5 76.5t-5.5 92.5h-96q0 -60 8 -113.5t39 -93.5t92 -63.5t166 -23.5q156 0 230.5 55t74.5 166v595h-96v-595z" />
    <glyph glyph-name="K" unicode="K" horiz-adv-x="714" 
d="M143 341l35 -1q30 -1 69.5 -2t81.5 -5.5t83.5 -13t76 -25t59 -41.5t33.5 -62q6 -26 12.5 -77t11.5 -114h96q-3 36 -6 65.5t-6 55.5t-7 50t-10 50q-8 35 -32.5 61.5t-59.5 45t-78 30.5t-86.5 19t-85.5 10t-76 4l-47 1l478 410h-110l-432 -399v399h-96v-802h96v341z" />
    <glyph glyph-name="L" unicode="L" horiz-adv-x="621" 
d="M47 0h561v54h-465v748h-96v-802z" />
    <glyph glyph-name="M" unicode="M" horiz-adv-x="902" 
d="M124 0v675h3l285 -675h86l258 675h3v-675h96v802h-130l-254 -674h-3l-290 674h-131v-802h77z" />
    <glyph glyph-name="N" unicode="N" horiz-adv-x="802" 
d="M659 0h96v802h-85v-659l-498 659h-125v-802h85v695z" />
    <glyph glyph-name="O" unicode="O" horiz-adv-x="784" 
d="M392 816q-75 0 -139 -10.5t-111.5 -37.5t-77 -74t-36.5 -119q-5 -51 -6.5 -92t-1.5 -82t1.5 -82.5t6.5 -91.5q7 -72 36.5 -119t77 -74t111.5 -37.5t139 -10.5t139 10.5t111.5 37.5t77 74t36.5 119q5 50 6.5 91.5t1.5 82.5t-1.5 82t-6.5 92q-7 72 -36.5 119t-77 74
t-111.5 37.5t-139 10.5zM392 762q75 0 125 -12.5t81 -37.5t45.5 -63t18.5 -88q4 -47 6 -85t2 -75t-2 -74.5t-6 -85.5q-4 -50 -18.5 -88t-45.5 -63t-81 -37.5t-125 -12.5t-125.5 12.5t-81 37.5t-45 63t-18.5 88q-4 48 -6 85.5t-2 74.5t2 75t6 85q4 50 18.5 88t45 63t81 37.5
t125.5 12.5z" />
    <glyph glyph-name="P" unicode="P" horiz-adv-x="708" 
d="M143 376v372h242q86 0 140 -20.5t65 -69.5q5 -18 6.5 -43.5t1.5 -52.5t-1.5 -52.5t-6.5 -43.5q-11 -49 -65 -69.5t-140 -20.5h-242zM143 322h251q40 0 86.5 5t88 20t71.5 42t38 71q5 27 7.5 51.5t2.5 50.5t-2.5 50.5t-7.5 51.5q-8 44 -38 71t-71.5 42t-88 20t-86.5 5
h-347v-802h96v322z" />
    <glyph glyph-name="Q" unicode="Q" horiz-adv-x="787" 
d="M653 40q45 28 70.5 73t32.5 114q5 50 6.5 91.5t1.5 82.5t-1.5 82t-6.5 92q-7 72 -36.5 119t-77 74t-111.5 37.5t-139 10.5t-139 -10.5t-111.5 -37.5t-77 -74t-36.5 -119q-5 -51 -6.5 -92t-1.5 -82t1.5 -82.5t6.5 -91.5q7 -72 36.5 -119t77 -74t111.5 -37.5t139 -10.5
q45 0 84.5 3.5t75.5 11.5h22q15 0 28 -13.5t25 -34.5t22.5 -47.5t21.5 -52.5h96q-17 39 -29 67.5t-23 48.5q-9 16 -27 20t-35 4.5t-30.5 1.5t-13.5 11q0 7 11.5 14t32.5 20zM392 762q75 0 125 -12.5t81 -37.5t45.5 -63t18.5 -88q4 -47 6 -85t2 -75t-2 -74.5t-6 -85.5
q-4 -50 -18.5 -88t-45.5 -63t-81 -37.5t-125 -12.5t-125.5 12.5t-81 37.5t-45 63t-18.5 88q-4 48 -6 85.5t-2 74.5t2 75t6 85q4 50 18.5 88t45 63t81 37.5t125.5 12.5z" />
    <glyph glyph-name="R" unicode="R" horiz-adv-x="754" 
d="M388 748q38 0 74.5 -3.5t66.5 -12t51 -24t29 -39.5q6 -20 9.5 -42t3.5 -45t-3 -45.5t-10 -42.5q-8 -24 -29.5 -39t-51.5 -23.5t-66 -12t-74 -3.5h-245v332h245zM143 0v362h177q39 0 84 -7t85.5 -22t71.5 -39t44 -57q7 -18 11.5 -49t7 -65.5t4.5 -67.5t4 -55h96
q-2 7 -4.5 30.5t-5 53t-5.5 58.5t-4 48q-5 51 -22.5 83.5t-46.5 52.5t-67 31.5t-83 20.5q24 3 50.5 8t52 14t48 22t39.5 30q10 10 16.5 26t10.5 34t6 36.5t2 33.5q0 30 -3.5 58.5t-8.5 47.5q-9 34 -38 56.5t-69 35t-87.5 17.5t-92.5 5h-369v-802h96z" />
    <glyph glyph-name="S" unicode="S" horiz-adv-x="703" 
d="M669 556q0 12 0.5 35.5t-6 52.5t-23.5 59.5t-52.5 55.5t-92.5 41t-144 16q-101 0 -162.5 -17.5t-96 -47.5t-46 -70.5t-11.5 -85.5q0 -74 20.5 -114.5t59.5 -61.5t95 -29t126 -17q52 -6 96.5 -11.5t77.5 -21.5t52 -47.5t19 -89.5q0 -38 -7 -68t-28.5 -51t-61 -32.5
t-103.5 -11.5q-71 0 -118 12.5t-76 32t-42.5 43.5t-18.5 48t-4.5 44.5t0.5 33.5h-96q0 -19 2 -46t12 -57t31.5 -59.5t61 -53t100 -38t148.5 -14.5q91 0 148.5 16t90.5 45t45 69.5t12 90.5q0 57 -13.5 95t-37.5 62t-56.5 37t-70.5 20.5t-80.5 11.5t-85.5 10q-51 7 -89 14
t-64 22t-39 42.5t-13 75.5q0 37 7 67t30.5 52t67.5 34t118 12q87 0 132.5 -21t65.5 -52.5t22 -67.5t2 -65h96z" />
    <glyph glyph-name="T" unicode="T" horiz-adv-x="732" 
d="M318 748v-748h96v748h305v54h-706v-54h305z" />
    <glyph glyph-name="U" unicode="U" horiz-adv-x="800" 
d="M47 241q0 -24 4 -52t16.5 -56t36 -54.5t62.5 -47t96.5 -33t137.5 -12.5t137.5 12.5t96.5 33t62.5 47t36 54.5t16.5 56t4 52v561h-96v-524q0 -20 0.5 -45.5t-4.5 -52t-19 -51.5t-42.5 -45t-75 -32t-116.5 -12t-116.5 12t-75 32t-42.5 45t-19 51.5t-4.5 52t0.5 45.5v524
h-96v-561z" />
    <glyph glyph-name="V" unicode="V" horiz-adv-x="786" 
d="M437 114l-319 688h-105l368 -802h85l307 802h-70z" />
    <glyph glyph-name="W" unicode="W" horiz-adv-x="1130" 
d="M552 695h8l238 -695h93l226 802h-72l-187 -674l-228 673h-115l-197 -669l-200 670h-105l244 -802h91z" />
    <glyph glyph-name="X" unicode="X" horiz-adv-x="751" 
d="M323 398l-310 -398h86l265 345l262 -345h112l-320 413l293 389h-81l-250 -340l-257 340h-110z" />
    <glyph glyph-name="Y" unicode="Y" horiz-adv-x="767" 
d="M341 351v-351h96v351l317 451h-86l-262 -386l-275 386h-118z" />
    <glyph glyph-name="Z" unicode="Z" horiz-adv-x="711" 
d="M36 748h553l-563 -673v-75h659v54h-563l563 673v75h-649v-54z" />
    <glyph glyph-name="bracketleft" unicode="[" horiz-adv-x="240" 
d="M114 0v802h100v67h-167v-936h167v67h-100z" />
    <glyph glyph-name="backslash" unicode="\" horiz-adv-x="582" 
d="M88 802h-75l481 -802h75z" />
    <glyph glyph-name="bracketright" unicode="]" horiz-adv-x="240" 
d="M126 802v-802h-100v-67h167v936h-167v-67h100z" />
    <glyph glyph-name="asciicircum" unicode="^" horiz-adv-x="270" 
d="M20 687h48l67 67l67 -67h48l-115 115z" />
    <glyph glyph-name="underscore" unicode="_" horiz-adv-x="483" 
d="M536 -54h-536v-54h536v54z" />
    <glyph glyph-name="grave" unicode="`" horiz-adv-x="237" 
d="M197 698h20q0 4 -8.5 20.5t-21 37.5t-28 45t-30 44t-26 33t-16.5 13q-8 0 -19 -7.5t-22 -18.5t-18.5 -22.5t-7.5 -18.5q0 -5 12.5 -16.5t31 -25.5t40.5 -28.5t41.5 -27t34 -20.5t17.5 -8z" />
    <glyph glyph-name="a" unicode="a" horiz-adv-x="590" 
d="M108 393q0 39 9 69t31 50.5t58.5 31.5t91.5 11q31 0 61 -6t54 -19.5t39 -36t15 -55.5q0 -31 -3 -50.5t-18.5 -31.5t-48 -17.5t-91.5 -8.5q-42 -2 -91.5 -4.5t-93 -17t-72.5 -47t-29 -95.5q0 -48 20.5 -82t56.5 -56t84.5 -32t105.5 -10q45 0 82.5 7.5t67.5 16t52 16
t37 7.5h17v420q0 45 -21.5 73t-56.5 43.5t-78.5 21t-88.5 5.5q-139 0 -203.5 -48t-64.5 -155h78zM288 289q69 2 111 7.5t68 13.5v-205q0 -25 -23.5 -40t-54.5 -23.5t-60.5 -11.5t-41.5 -3q-34 0 -66 6t-57 21t-40 40.5t-15 64.5q0 37 6.5 61t26 39t54.5 21.5t92 8.5z" />
    <glyph glyph-name="b" unicode="b" horiz-adv-x="668" 
d="M346 555q58 0 99 -9t67.5 -37.5t38.5 -80.5t12 -137t-12 -137t-38.5 -80t-67.5 -37.5t-99 -9.5q-35 0 -70.5 6.5t-64.5 21t-48 38.5t-22 59q-3 37 -5 71t-2 68t2 67.5t5 71.5q2 25 15.5 47.5t39 40t63 27.5t87.5 10zM85 35q11 0 24 -1t21 -5q10 -5 26 -12.5t41.5 -14.5
t61.5 -11.5t87 -4.5q84 0 141.5 16.5t93 53.5t51.5 94.5t16 140.5t-16 141t-51.5 94.5t-93 53t-141.5 16.5q-73 0 -124.5 -17.5t-86.5 -41.5v265h-88v-767h38z" />
    <glyph glyph-name="c" unicode="c" 
d="M314 27q-70 0 -111 18.5t-62 53t-27 83.5t-6 109t6 109t27 83.5t62 53t111 18.5q43 0 81 -7t65.5 -25t43.5 -49.5t16 -79.5v-20h88v20q0 98 -74 150t-220 52q-99 0 -157.5 -25t-88.5 -67t-39 -97.5t-9 -115.5t9 -115t39.5 -97.5t88.5 -67.5t157 -25q88 0 145 12.5
t90 36.5t46 59t13 81v20h-88v-20q0 -46 -11 -74.5t-35.5 -45t-64 -22.5t-95.5 -6z" />
    <glyph glyph-name="d" unicode="d" horiz-adv-x="668" 
d="M322 555q50 0 87.5 -10t63 -27.5t39 -40t15.5 -47.5q3 -38 5 -71.5t2 -67.5t-2 -68t-5 -71q-3 -35 -22 -59t-48 -38.5t-64.5 -21t-70.5 -6.5q-58 0 -99 9.5t-67.5 37.5t-38.5 80t-12 137t12 137t38.5 80.5t67.5 37.5t99 9zM583 35h38v767h-88v-265q-35 24 -86.5 41.5
t-124.5 17.5q-84 0 -141.5 -16.5t-93 -53t-51.5 -94.5t-16 -141t16 -140.5t51.5 -94.5t93 -53.5t141.5 -16.5q51 0 87 4.5t61.5 11.5t41 14.5t26.5 12.5q8 4 21 5t24 1z" />
    <glyph glyph-name="e" unicode="e" horiz-adv-x="631" 
d="M523 318h-415v26q0 106 48 158.5t158 52.5q111 0 160 -52.5t49 -158.5v-26zM611 300q0 82 -16 138.5t-51 91.5t-91.5 50.5t-138.5 15.5q-75 0 -127 -16.5t-86 -43t-51 -58.5t-21 -63q-9 -63 -9 -116q0 -28 2 -53.5t4 -48.5q4 -41 21.5 -79.5t52 -67.5t87 -46.5
t127.5 -17.5q84 0 140.5 16t91 41t49 55.5t14.5 58.5v18h-88l-1 -17q-1 -20 -12.5 -43t-36.5 -42.5t-63.5 -32.5t-93.5 -13q-110 0 -158 59t-48 165v26h503v23z" />
    <glyph glyph-name="f" unicode="f" horiz-adv-x="597" 
d="M340 774q79 0 109.5 -32t30.5 -101h91q0 59 -22 94t-56 53t-75 23t-78 5q-36 0 -75.5 -4.5t-72 -17.5t-53.5 -36.5t-21 -60.5v-115h-105v-51h105v-531h88v531h222v51h-222v104q0 28 12 45.5t31 27t43 12.5t48 3z" />
    <glyph glyph-name="g" unicode="g" horiz-adv-x="667" 
d="M537 554q-13 6 -29.5 13t-41.5 13.5t-59.5 11t-83.5 4.5q-84 0 -142 -15.5t-93.5 -50t-51.5 -89t-16 -131.5t16 -131.5t51.5 -89t93.5 -50t142 -15.5q51 0 87 7t60.5 17t39 20.5t22.5 17.5v-97q0 -45 -18.5 -73.5t-48.5 -44t-67.5 -21.5t-74.5 -6q-75 0 -116.5 18
t-60.5 41t-22.5 44.5t-3.5 28.5h-87q0 -11 3 -27.5t13 -36t28.5 -39t51 -35.5t80 -26t114.5 -10q51 0 104 10.5t96 33t70 58t27 85.5v559h-38q-11 0 -24 1t-21 5zM323 66q-60 0 -101.5 9.5t-66.5 36t-36 74t-11 124.5t11 125t36 74.5t66.5 36t101.5 9.5q35 0 70.5 -4.5
t65 -17.5t49 -36.5t22.5 -61.5q3 -37 4.5 -66.5t1.5 -58.5t-1.5 -58.5t-4.5 -67.5q-4 -50 -55.5 -84t-151.5 -34z" />
    <glyph glyph-name="h" unicode="h" horiz-adv-x="634" 
d="M135 549v253h-88v-802h88v380q0 52 12.5 86t36 53.5t57 27.5t76.5 8q45 0 79 -8t57 -27.5t34.5 -53.5t11.5 -86v-380h88v380q0 50 -11.5 90t-41.5 68t-82.5 43t-134.5 15q-63 0 -107.5 -13.5t-74.5 -33.5z" />
    <glyph glyph-name="i" unicode="i" horiz-adv-x="182" 
d="M135 582h-88v-582h88v582zM48 706q5 -5 17 -7.5t26 -2.5t26 2.5t17 7.5t7.5 17t2.5 26t-2.5 26t-7.5 17t-17 7.5t-26 2.5t-26 -2.5t-17 -7.5t-7.5 -17t-2.5 -26t2.5 -26t7.5 -17z" />
    <glyph glyph-name="j" unicode="j" horiz-adv-x="182" 
d="M135 0v582h-88v-591q0 -36 -3.5 -63t-16.5 -46t-37 -28.5t-65 -9.5q-27 0 -54 4t-50 8v-47q22 -3 47.5 -5t56.5 -2q44 0 83 5.5t71 25.5q31 19 43.5 56t12.5 111zM48 706q5 -5 17 -7.5t26 -2.5t26 2.5t17 7.5t7.5 17t2.5 26t-2.5 26t-7.5 17t-17 7.5t-26 2.5t-26 -2.5
t-17 -7.5t-7.5 -17t-2.5 -26t2.5 -26t7.5 -17z" />
    <glyph glyph-name="k" unicode="k" horiz-adv-x="601" 
d="M135 299q43 0 95.5 -3.5t101.5 -14t88 -30.5t55 -53q6 -12 9.5 -33t5.5 -47.5t2.5 -56.5t0.5 -61h88q0 37 -1 74t-4 69t-9.5 57t-18.5 39q-23 26 -61 44.5t-86.5 31t-105 19t-115.5 8.5l393 221h-111l-327 -195v434h-88v-802h88v299z" />
    <glyph glyph-name="l" unicode="l" horiz-adv-x="182" 
d="M135 802h-88v-802h88v802z" />
    <glyph glyph-name="m" unicode="m" horiz-adv-x="1022" 
d="M47 550v-550h88v441q0 60 36.5 87t126.5 27q92 0 130.5 -27t38.5 -87v-441h88v441q0 28 13 49.5t36 36t54 22t66 7.5q90 0 126.5 -27.5t36.5 -87.5v-441h88v441q0 81 -65 118t-186 37q-43 0 -75.5 -7.5t-57 -19t-43 -25t-33.5 -25.5q-10 12 -24.5 26t-39 25t-61.5 18.5
t-92 7.5q-56 0 -91.5 -7t-57.5 -16t-35.5 -16t-26.5 -7h-40z" />
    <glyph glyph-name="n" unicode="n" horiz-adv-x="624" 
d="M318 596q-51 0 -88 -7t-64 -16t-46 -16t-33 -7h-40v-550h88v441q0 60 46 87t137 27q92 0 131.5 -29t39.5 -85v-441h88v441q0 80 -69 117.5t-190 37.5z" />
    <glyph glyph-name="o" unicode="o" 
d="M20 291q0 -83 15 -141t49.5 -94.5t90.5 -53t139 -16.5t139 16.5t90.5 53t49.5 94.5t15 141t-15 141t-49.5 94.5t-90.5 53t-139 16.5t-139 -16.5t-90.5 -53t-49.5 -94.5t-15 -141zM520 291q0 -83 -9.5 -134.5t-33 -80.5t-63.5 -39t-100 -10t-100 10t-63.5 39t-33 80.5
t-9.5 134.5t9.5 134.5t33 80.5t63.5 39t100 10t100 -10t63.5 -39t33 -80.5t9.5 -134.5z" />
    <glyph glyph-name="p" unicode="p" horiz-adv-x="668" 
d="M346 27q-50 0 -87.5 10t-63 27.5t-39 40t-15.5 47.5q-3 38 -5 71.5t-2 67.5t2 68t5 71q3 35 22 59t48 38.5t64.5 21t70.5 6.5q58 0 99 -9.5t67.5 -37.5t38.5 -80t12 -137q0 -86 -12 -137.5t-38.5 -80t-67.5 -37.5t-99 -9zM85 547h-38v-745h88v243q35 -24 86.5 -41.5
t124.5 -17.5q84 0 141.5 16.5t93 53t51.5 94.5t16 141q0 82 -16 140t-51.5 95t-93 53.5t-141.5 16.5q-51 0 -87 -5t-61.5 -11.5t-41.5 -14t-26 -12.5q-8 -4 -21 -5t-24 -1z" />
    <glyph glyph-name="q" unicode="q" horiz-adv-x="668" 
d="M322 27q-58 0 -99 9t-67.5 37.5t-38.5 80t-12 137.5q0 85 12 137t38.5 80t67.5 37.5t99 9.5q35 0 70.5 -6.5t64.5 -21t48 -38.5t22 -59q3 -37 5 -71t2 -68t-2 -67.5t-5 -71.5q-2 -25 -15.5 -47.5t-39 -40t-63 -27.5t-87.5 -10zM583 547q-11 0 -24 1t-21 5
q-11 5 -26.5 12.5t-41 14t-61.5 11.5t-87 5q-84 0 -141.5 -16.5t-93 -53.5t-51.5 -95t-16 -140q0 -83 16 -141t51.5 -94.5t93 -53t141.5 -16.5q73 0 124.5 17.5t86.5 41.5v-243h88v745h-38z" />
    <glyph glyph-name="r" unicode="r" horiz-adv-x="468" 
d="M248 555q26 0 46.5 -3t35 -16.5t22.5 -41.5t8 -77h88q0 62 -18 98t-47 54t-64.5 22.5t-70.5 4.5t-62.5 -6t-48.5 -12.5t-35.5 -12.5t-24.5 -6h-30v-559h88v468q0 30 10 47.5t26 26t36.5 11t40.5 2.5z" />
    <glyph glyph-name="s" unicode="s" horiz-adv-x="576" 
d="M544 388q0 48 -12 82t-44 64q-31 29 -85.5 45.5t-127.5 16.5q-50 0 -95.5 -8t-80.5 -27.5t-56 -51.5t-21 -81q0 -38 14 -63t37 -41t51.5 -25t57 -13.5t54.5 -6.5t43 -5q21 -3 53 -4.5t62 -11t51.5 -32.5t21.5 -69q0 -72 -46.5 -101t-125.5 -29q-97 0 -142 38t-45 123h-88
q0 -52 21.5 -90t58.5 -63t87.5 -37t107.5 -12q70 0 120 13.5t81 37.5t45.5 56.5t14.5 70.5q0 40 -12.5 66t-34 42.5t-49.5 25t-58.5 12.5t-61.5 6t-58 5q-32 4 -62.5 7t-54.5 13t-39 30t-15 58q0 69 39.5 97.5t124.5 28.5q64 0 100 -16t54 -41t22 -54t4 -56h89z" />
    <glyph glyph-name="t" unicode="t" horiz-adv-x="416" 
d="M201 163v368h195v51h-195v140h-88v-140h-100v-51h100v-355q0 -93 49.5 -136.5t142.5 -43.5q26 0 48 2t43 7v42q-26 -5 -44.5 -7.5t-38.5 -2.5q-32 0 -53.5 8.5t-34.5 25t-18.5 39.5t-5.5 53z" />
    <glyph glyph-name="u" unicode="u" horiz-adv-x="624" 
d="M306 -14q51 0 88 7t64 16t46 16t33 7h40v550h-88v-441q0 -60 -46 -87t-137 -27q-92 0 -131.5 29t-39.5 85v441h-88v-441q0 -80 69 -117.5t190 -37.5z" />
    <glyph glyph-name="v" unicode="v" horiz-adv-x="627" 
d="M297 0h56l261 582h-72l-208 -469l-224 469h-97z" />
    <glyph glyph-name="w" unicode="w" horiz-adv-x="960" 
d="M491 503l208 -503h80l168 582h-65l-135 -466l-192 466h-102l-161 -466l-180 466h-99l222 -582h78z" />
    <glyph glyph-name="x" unicode="x" horiz-adv-x="637" 
d="M270 292l-250 -292h75l209 252l208 -252h105l-263 307l230 275h-75l-192 -234l-201 234h-96z" />
    <glyph glyph-name="y" unicode="y" horiz-adv-x="615" 
d="M291 6l-85 -204h70l326 780h-70l-195 -467l-227 467h-97z" />
    <glyph glyph-name="z" unicode="z" horiz-adv-x="583" 
d="M446 534l-426 -464v-70h543v48h-452l426 464v70h-517v-48h426z" />
    <glyph glyph-name="braceleft" unicode="{" horiz-adv-x="250" 
d="M26 401q0 -26 13.5 -37.5t30 -22.5t30 -30t13.5 -60q0 -26 -5.5 -55.5t-12.5 -59.5t-12.5 -60t-5.5 -57q0 -18 7 -33.5t18.5 -27t27 -18.5t33.5 -7h61v67h-59q-14 0 -23 9t-9 23q0 29 5 60t11 62t11 61t5 58q0 42 -10 63t-22 32t-22 16.5t-10 16.5t10 16.5t22 16.5t22 32
t10 63q0 28 -5 58t-11 61t-11 62t-5 60q0 14 9 23t23 9h59v67h-61q-18 0 -33.5 -7t-27 -18.5t-18.5 -27t-7 -33.5q0 -27 5.5 -57t12.5 -60t12.5 -59.5t5.5 -55.5q0 -41 -13.5 -60t-30 -30t-30 -22.5t-13.5 -37.5z" />
    <glyph glyph-name="bar" unicode="|" horiz-adv-x="167" 
d="M47 856v-1054h73v1054h-73z" />
    <glyph glyph-name="braceright" unicode="}" horiz-adv-x="250" 
d="M224 401q0 26 -13.5 37.5t-30 22.5t-30 30t-13.5 60q0 26 5.5 55.5t12.5 59.5t12.5 60t5.5 57q0 18 -7 33.5t-18.5 27t-27 18.5t-33.5 7h-61v-67h59q14 0 23 -9t9 -23q0 -29 -5 -60t-11 -62t-11 -61t-5 -58q0 -42 10 -63t22 -32t22 -16.5t10 -16.5t-10 -16.5t-22 -16.5
t-22 -32t-10 -63q0 -28 5 -58t11 -61t11 -62t5 -60q0 -14 -9 -23t-23 -9h-59v-67h61q18 0 33.5 7t27 18.5t18.5 27t7 33.5q0 27 -5.5 57t-12.5 60t-12.5 59.5t-5.5 55.5q0 41 13.5 60t30 30t30 22.5t13.5 37.5z" />
    <glyph glyph-name="asciitilde" unicode="~" horiz-adv-x="414" 
d="M180 719q0 -21 9 -39t23.5 -30.5t34 -20t40.5 -7.5t40.5 7.5t34 20t23.5 30.5t9 39q0 10 -8.5 15.5t-18.5 5.5t-18.5 -5.5t-8.5 -15.5q0 -20 -16.5 -31.5t-36.5 -11.5t-36.5 11.5t-16.5 31.5q0 21 -9 39t-23.5 30.5t-34 20t-40.5 7.5t-40.5 -7.5t-34 -20t-23.5 -30.5
t-9 -39q0 -10 8.5 -15.5t18.5 -5.5t18.5 5.5t8.5 15.5q0 20 16.5 31.5t36.5 11.5t36.5 -11.5t16.5 -31.5z" />
    <glyph glyph-name="exclamdown" unicode="&#xa1;" horiz-adv-x="200" 
d="M148 0v628h-96v-628h96zM57 799q-5 -5 -7.5 -17t-2.5 -26t2.5 -26t7.5 -17t17 -7.5t26 -2.5t26 2.5t17 7.5t7.5 17t2.5 26t-2.5 26t-7.5 17t-17 7.5t-26 2.5t-26 -2.5t-17 -7.5z" />
    <glyph glyph-name="cent" unicode="&#xa2;" 
d="M290 706q-91 -4 -144.5 -30t-81.5 -68t-36 -95.5t-8 -111.5q0 -59 8.5 -112.5t36.5 -95t81.5 -68t143.5 -29.5v-79h48v79q80 2 132.5 15t83 37t42.5 58.5t12 78.5v20h-88v-20q0 -44 -10 -72t-31.5 -44.5t-56.5 -23.5t-84 -8v527q39 -2 72.5 -10t58 -26.5t38 -48.5
t13.5 -75v-20h88v20q0 94 -68 145.5t-202 56.5v80h-48v-80zM290 664v-526q-62 3 -98 23t-55 54.5t-24 81.5t-5 104q0 58 5 105.5t24 81.5t55 53.5t98 22.5z" />
    <glyph glyph-name="sterling" unicode="&#xa3;" horiz-adv-x="593" 
d="M573 562q0 54 -10 99t-40 78t-84.5 51.5t-142.5 18.5q-62 0 -112 -11t-86 -34t-55.5 -58t-19.5 -84q0 -39 6.5 -72t17 -63.5t23 -60.5t25.5 -64h-73v-45h91q23 -55 23 -102q0 -36 -10.5 -61t-27.5 -42t-37.5 -27.5t-40.5 -17.5v-67h553v53h-489q26 12 50.5 26t44 31.5
t31.5 39.5t12 51q0 26 -8 53.5t-19 62.5h133v45h-150q-6 17 -18.5 45t-24.5 62t-21.5 71.5t-9.5 73.5q0 45 16.5 74t43.5 45.5t61.5 23t70.5 6.5q54 0 90.5 -11.5t59 -30t34 -41.5t16.5 -45.5t5 -41.5v-31h72z" />
    <glyph glyph-name="currency" unicode="&#xa4;" horiz-adv-x="339" 
d="M63 452q-17 -28 -17 -63q0 -34 17 -63l-42 -42l43 -43l42 42q30 -19 65 -19q34 0 63 17l41 -41l43 43l-40 41q8 14 13 30.5t5 34.5t-5 35t-13 31l41 41l-43 43l-42 -42q-28 17 -63 17q-18 0 -34.5 -5t-30.5 -13l-43 42l-43 -43zM235 389q0 -26 -19 -44.5t-45 -18.5
t-44.5 18.5t-18.5 44.5t18.5 44.5t44.5 18.5t45 -18.5t19 -44.5z" />
    <glyph glyph-name="yen" unicode="&#xa5;" horiz-adv-x="767" 
d="M254 470h-79v-54h119l47 -65h-166v-54h166v-297h96v297h145v54h-145l46 65h99v54h-61l233 332h-86l-262 -386l-275 386h-118z" />
    <glyph glyph-name="brokenbar" unicode="&#xa6;" horiz-adv-x="167" 
d="M47 439h73v417h-73v-417zM47 365v-563h73v563h-73z" />
    <glyph glyph-name="section" unicode="&#xa7;" horiz-adv-x="420" 
d="M80 401q0 52 7 83.5t22.5 49t40.5 23.5t60 6t60 -6t40.5 -23.5t22.5 -49t7 -83.5t-7.5 -83.5t-23 -49t-40.5 -23.5t-60 -6t-59.5 6t-40 23.5t-22.5 49t-7 83.5zM210 590q-21 0 -46 -2t-47 -10q-5 23 -6 41t-1 32q0 41 6 66t18 38.5t31 18t45 4.5t45 -4.5t31 -18t18 -38.5
t6 -66h47q0 41 -7 70t-24.5 47t-45.5 26t-70 8t-70 -8t-45.5 -26t-24.5 -47t-7 -70q0 -13 2 -40t13 -52q-32 -26 -42 -67t-10 -91q0 -52 9 -88t30.5 -58.5t56.5 -32.5t87 -10q21 0 45.5 2t48.5 10q5 -23 6 -41t1 -32q0 -41 -6 -66t-18 -38.5t-31 -18t-45 -4.5t-45 4.5
t-31.5 18t-18.5 38.5t-6 66h-46q0 -41 7.5 -70t24.5 -47t45 -26t70 -8t70 8t45.5 26t24.5 47t7 70q0 13 -2 40.5t-13 53.5q30 24 41 65t11 91q0 52 -9 88t-30.5 58.5t-57 32.5t-87.5 10z" />
    <glyph glyph-name="dieresis" unicode="&#xa8;" horiz-adv-x="280" 
d="M30 717q5 -5 17 -7.5t26 -2.5t26 2.5t17 7.5t7.5 17t2.5 26t-2.5 26t-7.5 17t-17 7.5t-26 2.5t-26 -2.5t-17 -7.5t-7.5 -17t-2.5 -26t2.5 -26t7.5 -17zM164 717q5 -5 17 -7.5t26 -2.5t26 2.5t17 7.5t7.5 17t2.5 26t-2.5 26t-7.5 17t-17 7.5t-26 2.5t-26 -2.5t-17 -7.5
t-7.5 -17t-2.5 -26t2.5 -26t7.5 -17z" />
    <glyph glyph-name="copyright" unicode="&#xa9;" horiz-adv-x="842" 
d="M421 0q83 0 156 31.5t127.5 86t86 127.5t31.5 156t-31.5 156t-86 127.5t-127.5 86t-156 31.5t-156 -31.5t-127.5 -86t-86 -127.5t-31.5 -156t31.5 -156t86 -127.5t127.5 -86t156 -31.5zM56 401q0 75 29 141.5t78.5 116t116 78.5t141.5 29t141.5 -29t116 -78.5t78.5 -116
t29 -141.5t-29 -141.5t-78.5 -116t-116 -78.5t-141.5 -29t-141.5 29t-116 78.5t-78.5 116t-29 141.5zM256 305q-2 29 -3 51.5t-1 44.5t1 45t3 51q2 30 11.5 52.5t29 38t50.5 23t76 7.5q51 0 83 -10t50.5 -28.5t25 -43.5t6.5 -55h58q0 40 -8.5 71.5t-33 53t-68 33
t-113.5 11.5q-63 0 -105 -11.5t-67.5 -31t-36.5 -46t-14 -56.5t-4.5 -54.5t-1.5 -49.5q0 -45 6 -105q3 -30 14 -56.5t36.5 -46t67.5 -30.5t105 -11q75 0 118.5 13t66.5 35.5t29.5 53.5t8.5 67h-58q0 -30 -6.5 -55t-25 -43.5t-50.5 -28.5t-83 -10q-45 0 -76 7.5t-50.5 23
t-29 38t-11.5 52.5z" />
    <glyph glyph-name="ordfeminine" unicode="&#xaa;" horiz-adv-x="329" 
d="M65 481q0 40 20.5 60.5t74.5 20.5q15 0 30 -3t27 -9.5t19.5 -18t7.5 -27.5q0 -15 -1.5 -25t-9 -16t-24 -9t-45.5 -4q-21 -1 -45.5 -2t-46.5 -8.5t-36.5 -24t-14.5 -47.5q0 -24 10 -41t28 -28t42.5 -16t52.5 -5q22 0 41 3.5t34 8t26 8.5t19 4h8v209q0 23 -11 37t-28 22
t-39 10.5t-44 2.5q-69 0 -101.5 -24t-32.5 -78h39zM155 429q35 1 55.5 4t33.5 7v-103q0 -12 -11.5 -19.5t-27 -11.5t-30 -5.5t-20.5 -1.5q-17 0 -33 3t-29 10.5t-20.5 20t-7.5 32.5q0 18 3.5 30t13 19.5t27 10.5t46.5 4zM20 201h262v26h-262v-26z" />
    <glyph glyph-name="guillemotleft" unicode="&#xab;" horiz-adv-x="347" 
d="M180 241v74l-86 86l86 86v74l-160 -160zM327 241v74l-86 86l86 86v74l-160 -160z" />
    <glyph glyph-name="logicalnot" unicode="&#xac;" horiz-adv-x="355" 
d="M335 428h-322v-54h268v-98h54v152z" />
    <glyph glyph-name="registered" unicode="&#xae;" horiz-adv-x="622" 
d="M311 802q-60 0 -113 -23t-92.5 -62.5t-62.5 -92.5t-23 -113t23 -113t62.5 -92.5t92.5 -62.5t113 -23t113 23t92.5 62.5t62.5 92.5t23 113t-23 113t-62.5 92.5t-92.5 62.5t-113 23zM311 766q53 0 99.5 -20t81 -54.5t54.5 -81t20 -99.5t-20 -99.5t-54.5 -81t-81 -54.5
t-99.5 -20t-99.5 20t-81 54.5t-54.5 81t-20 99.5t20 99.5t54.5 81t81 54.5t99.5 20zM322 652q31 0 57 -6.5t32 -25.5q5 -18 5 -35q0 -18 -5 -35q-7 -20 -32.5 -26t-56.5 -6h-98v134h98zM224 352v145h71q16 0 34 -3t34 -9t28.5 -15.5t17.5 -22.5q3 -8 5 -20t3 -26t1.5 -27
t1.5 -22h38q0 3 -1 12.5t-2.5 21t-2.5 23t-1 19.5q-2 20 -9 33t-18.5 21.5t-27 13t-33.5 7.5q19 2 41 9t35 21q8 8 11 24t3 28q0 25 -5 42q-3 14 -14.5 23t-27.5 14t-35 7t-37 2h-148v-321h38z" />
    <glyph glyph-name="macron" unicode="&#xaf;" horiz-adv-x="280" 
d="M260 748v54h-240v-54h240z" />
    <glyph glyph-name="degree" unicode="&#xb0;" horiz-adv-x="202" 
d="M57 722q0 18 13 31t31 13t31 -13t13 -31t-13 -31t-31 -13t-31 13t-13 31zM101 803q-34 0 -57.5 -23.5t-23.5 -57.5t23.5 -57.5t57.5 -23.5t57.5 23.5t23.5 57.5t-23.5 57.5t-57.5 23.5z" />
    <glyph glyph-name="plusminus" unicode="&#xb1;" horiz-adv-x="362" 
d="M208 428h134v54h-134v134h-54v-134h-134v-54h134v-134h54v134zM342 186v54h-322v-54h322z" />
    <glyph glyph-name="twosuperior" unicode="&#xb2;" horiz-adv-x="377" 
d="M78 676q0 9 1.5 27t11.5 36t32.5 31.5t64.5 13.5t65.5 -9t34 -24t12.5 -34.5t2 -40.5q0 -40 -6 -62t-23.5 -37t-50.5 -29t-87 -38q-35 -15 -57.5 -32t-35 -36.5t-17.5 -42t-5 -49.5v-24h337v36h-279q0 14 1 29.5t7.5 31.5t20.5 31t41 27q56 25 95.5 40t65 33t37 45
t11.5 77q0 28 -7 53.5t-26 45t-52 30.5t-84 11q-42 0 -71 -9t-47.5 -22.5t-28.5 -30t-14.5 -32t-5.5 -28t-1 -18.5h58z" />
    <glyph glyph-name="threesuperior" unicode="&#xb3;" horiz-adv-x="392" 
d="M81 704q0 19 5 34t18 25t35 15.5t57 5.5q34 0 54.5 -6.5t32 -18.5t15 -29.5t3.5 -38.5q0 -33 -8 -51.5t-22 -27.5t-32.5 -11t-38.5 -2h-63v-39h63q21 0 42 -2.5t38 -13t27.5 -32t10.5 -60.5q0 -36 -11 -56.5t-28 -30.5t-39 -12.5t-43 -2.5q-39 0 -63.5 8t-37.5 22.5
t-17.5 34.5t-4.5 44h-54q0 -16 3 -40t19.5 -46.5t52.5 -38.5t102 -16q51 0 84.5 9t54 25.5t28.5 41t8 54.5q0 66 -30 95.5t-90 36.5q48 7 76 32t28 79q0 26 -7 48.5t-25 39.5t-49 27t-79 10q-66 0 -100.5 -16t-49 -38t-16 -45t-1.5 -37h52v24z" />
    <glyph glyph-name="acute" unicode="&#xb4;" horiz-adv-x="237" 
d="M40 698q3 0 17.5 8t34 20.5t41.5 27t40.5 28.5t31 25.5t12.5 16.5q0 7 -7.5 18.5t-18.5 22.5t-22.5 18.5t-18.5 7.5q-5 0 -16.5 -13t-26 -33t-30 -44t-28 -45t-21 -37t-8.5 -21h20z" />
    <glyph glyph-name="mu" unicode="&#xb5;" horiz-adv-x="712" 
d="M521 20q4 -43 15.5 -74.5t40.5 -62.5h88q-21 23 -32.5 46t-17.5 50t-7 60.5t-1 77.5v465h-88v-441q0 -60 -46 -87t-137 -27q-92 0 -131.5 29t-39.5 85v441h-88v-441q0 -45 -2.5 -83t-10 -73t-20 -70.5t-31.5 -74.5h32q29 39 57.5 86t42.5 98q34 -20 82.5 -29t108.5 -9
q69 0 112.5 12t72.5 22z" />
    <glyph glyph-name="paragraph" unicode="&#xb6;" horiz-adv-x="783" 
d="M565 376h-242q-86 0 -140 20.5t-65 69.5q-5 18 -6.5 43.5t-1.5 52.5t1.5 52.5t6.5 43.5q11 49 65 69.5t140 20.5h242v-372zM565 322v-322h64v748h43v-748h64v802h-422q-40 0 -86.5 -5t-88 -20t-72 -42t-37.5 -71q-5 -27 -7.5 -51.5t-2.5 -50.5t2.5 -50.5t7.5 -51.5
q7 -44 37.5 -71t72 -42t88 -20t86.5 -5h251z" />
    <glyph glyph-name="periodcentered" unicode="&#xb7;" horiz-adv-x="146" 
d="M30 358q5 -5 17 -7.5t26 -2.5t26 2.5t17 7.5t7.5 17t2.5 26t-2.5 26t-7.5 17t-17 7.5t-26 2.5t-26 -2.5t-17 -7.5t-7.5 -17t-2.5 -26t2.5 -26t7.5 -17z" />
    <glyph glyph-name="periodcentered" unicode="&#x2219;" horiz-adv-x="146" 
d="M30 358q5 -5 17 -7.5t26 -2.5t26 2.5t17 7.5t7.5 17t2.5 26t-2.5 26t-7.5 17t-17 7.5t-26 2.5t-26 -2.5t-17 -7.5t-7.5 -17t-2.5 -26t2.5 -26t7.5 -17z" />
    <glyph glyph-name="onesuperior" unicode="&#xb9;" horiz-adv-x="159" 
d="M20 762h64v-441h55v481h-119v-40z" />
    <glyph glyph-name="ordmasculine" unicode="&#xba;" horiz-adv-x="335" 
d="M21 431q0 -41 7.5 -70.5t24.5 -48t45 -27t70 -8.5q41 0 69 8.5t45.5 27t25 48t7.5 70.5t-7.5 70t-24.5 47t-45 26t-70 8t-70 -8t-45.5 -26t-24.5 -47t-7 -70zM271 431q0 -41 -5 -67t-16.5 -40.5t-31.5 -20t-50 -5.5t-50 5.5t-31.5 20t-16.5 40.5t-5 67t5 66.5t16.5 39.5
t31.5 19t50 5t50 -5t31.5 -19t16.5 -39.5t5 -66.5zM20 201h294v26h-294v-26z" />
    <glyph glyph-name="guillemotright" unicode="&#xbb;" horiz-adv-x="347" 
d="M167 241l160 160l-160 160v-74l86 -86l-86 -86v-74zM20 241l160 160l-160 160v-74l86 -86l-86 -86v-74z" />
    <glyph glyph-name="onequarter" unicode="&#xbc;" horiz-adv-x="926" 
d="M20 752h80v-552h68v602h-148v-50zM119 0h63l482 802h-63zM412 221v-57h344v-164h64v164h86v44h-86v394h-82zM756 208h-282l282 334v-334z" />
    <glyph glyph-name="onehalf" unicode="&#xbd;" horiz-adv-x="1002" 
d="M20 752h80v-552h68v602h-148v-50zM119 0h63l482 802h-63zM633 437q0 11 2 33.5t14.5 45t40.5 39.5t81 17t82 -11.5t42.5 -30t16 -43t2.5 -50.5q0 -50 -7.5 -77.5t-30 -46.5t-63.5 -36t-109 -47q-43 -20 -71 -41t-44 -45.5t-22 -52.5t-6 -61v-30h421v44h-349q0 18 1 37.5
t9.5 39t26.5 38.5t52 34q70 32 119 51t80.5 41t46 56t14.5 96q0 36 -9 67.5t-32.5 55.5t-64.5 38t-105 14q-53 0 -88.5 -11t-59 -28t-36 -37.5t-18.5 -40t-7 -35.5t-1 -23h72z" />
    <glyph glyph-name="threequarters" unicode="&#xbe;" horiz-adv-x="1181" 
d="M96 676q0 24 6.5 42.5t22.5 31.5t44 19.5t71 6.5q42 0 68 -8t40 -23t18.5 -36.5t4.5 -48.5q0 -41 -10.5 -64t-27.5 -34.5t-40.5 -14t-48.5 -2.5h-78v-49h78q26 0 52.5 -3t47.5 -16t34.5 -40t13.5 -75q0 -45 -13.5 -71t-35 -38.5t-48.5 -15.5t-53 -3q-50 0 -80 10
t-46.5 28t-22 43t-5.5 55h-68q0 -13 1 -31.5t7 -38t19.5 -38.5t38 -34t63 -24.5t93.5 -9.5q63 0 105 11t67 32t35.5 51t10.5 68q0 82 -37.5 119t-112.5 45q60 9 95 41t35 99q0 32 -9 60.5t-31.5 49.5t-61 33.5t-98.5 12.5q-55 0 -92 -9.5t-60 -24t-34.5 -33.5t-16.5 -37.5
t-5 -36.5v-29h64v30zM374 0h63l482 802h-63zM667 221v-57h344v-164h64v164h86v44h-86v394h-82zM1011 208h-282l282 334v-334z" />
    <glyph glyph-name="questiondown" unicode="&#xbf;" horiz-adv-x="609" 
d="M503 227q0 -50 -9.5 -87.5t-32.5 -62.5t-61 -37.5t-96 -12.5q-32 0 -63 3.5t-57.5 14.5t-45.5 31t-28 53q-13 49 -13 98q0 24 3.5 46t9.5 41q4 14 16 25t32.5 21.5t50.5 22t72 27.5q31 12 48.5 36t25.5 53.5t10 60t2 55.5h-84q0 -48 -0.5 -76t-6.5 -45q-5 -16 -13.5 -26
t-22.5 -18q-25 -14 -57.5 -22.5t-63.5 -18.5t-54.5 -23.5t-30.5 -36.5q-7 -24 -10.5 -55t-3.5 -63q0 -36 4 -70t10 -57q6 -21 18.5 -42.5t42 -38t79.5 -27t130 -10.5q85 0 140 15t87.5 45.5t45 75.5t12.5 105h-86zM367 799q-5 5 -17 7.5t-26 2.5t-26 -2.5t-17 -7.5t-7.5 -17
t-2.5 -26t2.5 -26t7.5 -17t17 -7.5t26 -2.5t26 2.5t17 7.5t7.5 17t2.5 26t-2.5 26t-7.5 17z" />
    <glyph glyph-name="Agrave" unicode="&#xc0;" horiz-adv-x="803" 
d="M99 0l135 325h322l130 -325h104l-323 802h-117l-337 -802h86zM535 379h-278l140 338zM402 855h20q0 4 -8.5 20.5t-21 37.5t-28 45t-30 44t-26 33t-16.5 13q-8 0 -19 -7.5t-22 -18.5t-18.5 -22.5t-7.5 -18.5q0 -5 12.5 -16.5t31 -25.5t40.5 -28.5t41.5 -27t34 -20.5
t17.5 -8z" />
    <glyph glyph-name="Aacute" unicode="&#xc1;" horiz-adv-x="803" 
d="M99 0l135 325h322l130 -325h104l-323 802h-117l-337 -802h86zM535 379h-278l140 338zM402 855q3 0 17.5 8t34 20.5t41.5 27t40.5 28.5t31 25.5t12.5 16.5q0 7 -7.5 18.5t-18.5 22.5t-22.5 18.5t-18.5 7.5q-5 0 -16.5 -13t-26 -33t-30 -44t-28 -45t-21 -37.5t-8.5 -20.5
h20z" />
    <glyph glyph-name="Acircumflex" unicode="&#xc2;" horiz-adv-x="803" 
d="M99 0l135 325h322l130 -325h104l-323 802h-117l-337 -802h86zM535 379h-278l140 338zM287 855h48l67 67l67 -67h48l-115 115z" />
    <glyph glyph-name="Atilde" unicode="&#xc3;" horiz-adv-x="803" 
d="M99 0l135 325h322l130 -325h104l-323 802h-117l-337 -802h86zM535 379h-278l140 338zM375 952q0 -21 9 -39t23.5 -30.5t34 -20t40.5 -7.5t40.5 7.5t34 20t23.5 30.5t9 39q0 10 -8.5 15.5t-18.5 5.5t-18.5 -5.5t-8.5 -15.5q0 -20 -16.5 -31.5t-36.5 -11.5t-36.5 11.5
t-16.5 31.5q0 21 -9 39t-23.5 30.5t-34 20t-40.5 7.5t-40.5 -7.5t-34 -20t-23.5 -30.5t-9 -39q0 -10 8.5 -15.5t18.5 -5.5t18.5 5.5t8.5 15.5q0 20 16.5 31.5t36.5 11.5t36.5 -11.5t16.5 -31.5z" />
    <glyph glyph-name="Adieresis" unicode="&#xc4;" horiz-adv-x="803" 
d="M99 0l135 325h322l130 -325h104l-323 802h-117l-337 -802h86zM535 379h-278l140 338zM292 865q5 -5 17 -7.5t26 -2.5t26 2.5t17 7.5t7.5 17t2.5 26t-2.5 26t-7.5 17t-17 7.5t-26 2.5t-26 -2.5t-17 -7.5t-7.5 -17t-2.5 -26t2.5 -26t7.5 -17zM426 865q5 -5 17 -7.5t26 -2.5
t26 2.5t17 7.5t7.5 17t2.5 26t-2.5 26t-7.5 17t-17 7.5t-26 2.5t-26 -2.5t-17 -7.5t-7.5 -17t-2.5 -26t2.5 -26t7.5 -17z" />
    <glyph glyph-name="Aring" unicode="&#xc5;" horiz-adv-x="803" 
d="M99 0l135 325h322l130 -325h104l-323 802h-117l-337 -802h86zM535 379h-278l140 338zM358 936q0 18 13 31t31 13t31 -13t13 -31t-13 -31t-31 -13t-31 13t-13 31zM402 1017q-34 0 -57.5 -23.5t-23.5 -57.5t23.5 -57.5t57.5 -23.5t57.5 23.5t23.5 57.5t-23.5 57.5
t-57.5 23.5z" />
    <glyph glyph-name="AE" unicode="&#xc6;" horiz-adv-x="1147" 
d="M545 661v-282h-187zM322 325h223v-325h582v54h-485v353h426v54h-426v287h472v54h-569l-532 -802h94z" />
    <glyph glyph-name="Ccedilla" unicode="&#xc7;" horiz-adv-x="798" 
d="M387 -14l-15 -47q-4 -11 -11 -16t-25 -5q-25 0 -38.5 2.5t-26.5 4.5l-10 -59q14 -2 27.5 -3.5t24.5 -1.5q20 0 33 6t21 15.5t13.5 22.5t10.5 28l18 53q82 0 140 10t98 28t64 43.5t37 56.5t17.5 67t6.5 76h-96q0 -50 -11 -91.5t-41.5 -71.5t-84 -47t-138.5 -17
q-75 0 -126.5 12.5t-84 37.5t-48 63t-19.5 88q-4 48 -5.5 85.5t-1.5 74.5t1.5 75t5.5 85q4 50 19.5 88t48 63t84 37.5t126.5 12.5q85 0 138.5 -17t84 -47t41.5 -72t11 -91h96q0 67 -14.5 119t-55 88t-113 55t-188.5 19q-105 0 -175 -19t-112 -51.5t-61.5 -76.5t-23.5 -94
q-5 -51 -7 -92.5t-2 -82.5q0 -40 2 -81.5t7 -92.5q4 -50 23 -93t59.5 -75.5t107.5 -51.5t168 -20z" />
    <glyph glyph-name="Egrave" unicode="&#xc8;" horiz-adv-x="648" 
d="M628 0v54h-485v353h427v54h-427v287h472v54h-568v-802h581zM324 855h20q0 4 -8.5 20.5t-21 37.5t-28 45t-30 44t-26 33t-16.5 13q-8 0 -19 -7.5t-22 -18.5t-18.5 -22.5t-7.5 -18.5q0 -5 12.5 -16.5t31 -25.5t40.5 -28.5t41.5 -27t34 -20.5t17.5 -8z" />
    <glyph glyph-name="Eacute" unicode="&#xc9;" horiz-adv-x="648" 
d="M628 0v54h-485v353h427v54h-427v287h472v54h-568v-802h581zM324 855q3 0 17.5 8t34 20.5t41.5 27t40.5 28.5t31 25.5t12.5 16.5q0 7 -7.5 18.5t-18.5 22.5t-22.5 18.5t-18.5 7.5q-5 0 -16.5 -13t-26 -33t-30 -44t-28 -45t-21 -37.5t-8.5 -20.5h20z" />
    <glyph glyph-name="Ecircumflex" unicode="&#xca;" horiz-adv-x="648" 
d="M628 0v54h-485v353h427v54h-427v287h472v54h-568v-802h581zM209 855h48l67 67l67 -67h48l-115 115z" />
    <glyph glyph-name="Edieresis" unicode="&#xcb;" horiz-adv-x="648" 
d="M628 0v54h-485v353h427v54h-427v287h472v54h-568v-802h581zM214 865q5 -5 17 -7.5t26 -2.5t26 2.5t17 7.5t7.5 17t2.5 26t-2.5 26t-7.5 17t-17 7.5t-26 2.5t-26 -2.5t-17 -7.5t-7.5 -17t-2.5 -26t2.5 -26t7.5 -17zM348 865q5 -5 17 -7.5t26 -2.5t26 2.5t17 7.5t7.5 17
t2.5 26t-2.5 26t-7.5 17t-17 7.5t-26 2.5t-26 -2.5t-17 -7.5t-7.5 -17t-2.5 -26t2.5 -26t7.5 -17z" />
    <glyph glyph-name="Igrave" unicode="&#xcc;" horiz-adv-x="190" 
d="M47 802v-802h96v802h-96zM95 855h20q0 4 -8.5 20.5t-21 37.5t-28 45t-30 44t-26 33t-16.5 13q-8 0 -19 -7.5t-22 -18.5t-18.5 -22.5t-7.5 -18.5q0 -5 12.5 -16.5t31 -25.5t40.5 -28.5t41.5 -27t34 -20.5t17.5 -8z" />
    <glyph glyph-name="Iacute" unicode="&#xcd;" horiz-adv-x="190" 
d="M47 802v-802h96v802h-96zM95 855q3 0 17.5 8t34 20.5t41.5 27t40.5 28.5t31 25.5t12.5 16.5q0 7 -7.5 18.5t-18.5 22.5t-22.5 18.5t-18.5 7.5q-5 0 -16.5 -13t-26 -33t-30 -44t-28 -45t-21 -37.5t-8.5 -20.5h20z" />
    <glyph glyph-name="Icircumflex" unicode="&#xce;" horiz-adv-x="190" 
d="M47 802v-802h96v802h-96zM-20 855h48l67 67l67 -67h48l-115 115z" />
    <glyph glyph-name="Idieresis" unicode="&#xcf;" horiz-adv-x="190" 
d="M47 802v-802h96v802h-96zM-15 865q5 -5 17 -7.5t26 -2.5t26 2.5t17 7.5t7.5 17t2.5 26t-2.5 26t-7.5 17t-17 7.5t-26 2.5t-26 -2.5t-17 -7.5t-7.5 -17t-2.5 -26t2.5 -26t7.5 -17zM119 865q5 -5 17 -7.5t26 -2.5t26 2.5t17 7.5t7.5 17t2.5 26t-2.5 26t-7.5 17t-17 7.5
t-26 2.5t-26 -2.5t-17 -7.5t-7.5 -17t-2.5 -26t2.5 -26t7.5 -17z" />
    <glyph glyph-name="Eth" unicode="&#xd0;" horiz-adv-x="870" 
d="M116 374v-374h342q105 0 175 14t113.5 42t64 71t27.5 100q6 51 9 92.5t3 81.5q0 41 -3 82t-9 92q-7 57 -27.5 100t-64 71t-113.5 42t-175 14h-342v-374h-96v-54h96zM212 428v320h221q88 0 146.5 -10.5t93.5 -33t51 -58t20 -85.5q4 -47 5.5 -85t1.5 -75t-1.5 -74.5
t-5.5 -85.5q-4 -50 -20 -85.5t-51 -58t-93.5 -33t-146.5 -10.5h-221v320h96v54h-96z" />
    <glyph glyph-name="Ntilde" unicode="&#xd1;" horiz-adv-x="802" 
d="M659 0h96v802h-85v-659l-498 659h-125v-802h85v695zM374 952q0 -21 9 -39t23.5 -30.5t34 -20t40.5 -7.5t40.5 7.5t34 20t23.5 30.5t9 39q0 10 -8.5 15.5t-18.5 5.5t-18.5 -5.5t-8.5 -15.5q0 -20 -16.5 -31.5t-36.5 -11.5t-36.5 11.5t-16.5 31.5q0 21 -9 39t-23.5 30.5
t-34 20t-40.5 7.5t-40.5 -7.5t-34 -20t-23.5 -30.5t-9 -39q0 -10 8.5 -15.5t18.5 -5.5t18.5 5.5t8.5 15.5q0 20 16.5 31.5t36.5 11.5t36.5 -11.5t16.5 -31.5z" />
    <glyph glyph-name="Ograve" unicode="&#xd2;" horiz-adv-x="784" 
d="M392 816q-75 0 -139 -10.5t-111.5 -37.5t-77 -74t-36.5 -119q-5 -51 -6.5 -92t-1.5 -82t1.5 -82.5t6.5 -91.5q7 -72 36.5 -119t77 -74t111.5 -37.5t139 -10.5t139 10.5t111.5 37.5t77 74t36.5 119q5 50 6.5 91.5t1.5 82.5t-1.5 82t-6.5 92q-7 72 -36.5 119t-77 74
t-111.5 37.5t-139 10.5zM392 762q75 0 125 -12.5t81 -37.5t45.5 -63t18.5 -88q4 -47 6 -85t2 -75t-2 -74.5t-6 -85.5q-4 -50 -18.5 -88t-45.5 -63t-81 -37.5t-125 -12.5t-125.5 12.5t-81 37.5t-45 63t-18.5 88q-4 48 -6 85.5t-2 74.5t2 75t6 85q4 50 18.5 88t45 63t81 37.5
t125.5 12.5zM392 855h20q0 4 -8.5 20.5t-21 37.5t-28 45t-30 44t-26 33t-16.5 13q-8 0 -19 -7.5t-22 -18.5t-18.5 -22.5t-7.5 -18.5q0 -5 12.5 -16.5t31 -25.5t40.5 -28.5t41.5 -27t34 -20.5t17.5 -8z" />
    <glyph glyph-name="Oacute" unicode="&#xd3;" horiz-adv-x="784" 
d="M392 816q-75 0 -139 -10.5t-111.5 -37.5t-77 -74t-36.5 -119q-5 -51 -6.5 -92t-1.5 -82t1.5 -82.5t6.5 -91.5q7 -72 36.5 -119t77 -74t111.5 -37.5t139 -10.5t139 10.5t111.5 37.5t77 74t36.5 119q5 50 6.5 91.5t1.5 82.5t-1.5 82t-6.5 92q-7 72 -36.5 119t-77 74
t-111.5 37.5t-139 10.5zM392 762q75 0 125 -12.5t81 -37.5t45.5 -63t18.5 -88q4 -47 6 -85t2 -75t-2 -74.5t-6 -85.5q-4 -50 -18.5 -88t-45.5 -63t-81 -37.5t-125 -12.5t-125.5 12.5t-81 37.5t-45 63t-18.5 88q-4 48 -6 85.5t-2 74.5t2 75t6 85q4 50 18.5 88t45 63t81 37.5
t125.5 12.5zM392 855q3 0 17.5 8t34 20.5t41.5 27t40.5 28.5t31 25.5t12.5 16.5q0 7 -7.5 18.5t-18.5 22.5t-22.5 18.5t-18.5 7.5q-5 0 -16.5 -13t-26 -33t-30 -44t-28 -45t-21 -37.5t-8.5 -20.5h20z" />
    <glyph glyph-name="Ocircumflex" unicode="&#xd4;" horiz-adv-x="784" 
d="M392 816q-75 0 -139 -10.5t-111.5 -37.5t-77 -74t-36.5 -119q-5 -51 -6.5 -92t-1.5 -82t1.5 -82.5t6.5 -91.5q7 -72 36.5 -119t77 -74t111.5 -37.5t139 -10.5t139 10.5t111.5 37.5t77 74t36.5 119q5 50 6.5 91.5t1.5 82.5t-1.5 82t-6.5 92q-7 72 -36.5 119t-77 74
t-111.5 37.5t-139 10.5zM392 762q75 0 125 -12.5t81 -37.5t45.5 -63t18.5 -88q4 -47 6 -85t2 -75t-2 -74.5t-6 -85.5q-4 -50 -18.5 -88t-45.5 -63t-81 -37.5t-125 -12.5t-125.5 12.5t-81 37.5t-45 63t-18.5 88q-4 48 -6 85.5t-2 74.5t2 75t6 85q4 50 18.5 88t45 63t81 37.5
t125.5 12.5zM277 855h48l67 67l67 -67h48l-115 115z" />
    <glyph glyph-name="Otilde" unicode="&#xd5;" horiz-adv-x="784" 
d="M392 816q-75 0 -139 -10.5t-111.5 -37.5t-77 -74t-36.5 -119q-5 -51 -6.5 -92t-1.5 -82t1.5 -82.5t6.5 -91.5q7 -72 36.5 -119t77 -74t111.5 -37.5t139 -10.5t139 10.5t111.5 37.5t77 74t36.5 119q5 50 6.5 91.5t1.5 82.5t-1.5 82t-6.5 92q-7 72 -36.5 119t-77 74
t-111.5 37.5t-139 10.5zM392 762q75 0 125 -12.5t81 -37.5t45.5 -63t18.5 -88q4 -47 6 -85t2 -75t-2 -74.5t-6 -85.5q-4 -50 -18.5 -88t-45.5 -63t-81 -37.5t-125 -12.5t-125.5 12.5t-81 37.5t-45 63t-18.5 88q-4 48 -6 85.5t-2 74.5t2 75t6 85q4 50 18.5 88t45 63t81 37.5
t125.5 12.5zM365 952q0 -21 9 -39t23.5 -30.5t34 -20t40.5 -7.5t40.5 7.5t34 20t23.5 30.5t9 39q0 10 -8.5 15.5t-18.5 5.5t-18.5 -5.5t-8.5 -15.5q0 -20 -16.5 -31.5t-36.5 -11.5t-36.5 11.5t-16.5 31.5q0 21 -9 39t-23.5 30.5t-34 20t-40.5 7.5t-40.5 -7.5t-34 -20
t-23.5 -30.5t-9 -39q0 -10 8.5 -15.5t18.5 -5.5t18.5 5.5t8.5 15.5q0 20 16.5 31.5t36.5 11.5t36.5 -11.5t16.5 -31.5z" />
    <glyph glyph-name="Odieresis" unicode="&#xd6;" horiz-adv-x="784" 
d="M392 816q-75 0 -139 -10.5t-111.5 -37.5t-77 -74t-36.5 -119q-5 -51 -6.5 -92t-1.5 -82t1.5 -82.5t6.5 -91.5q7 -72 36.5 -119t77 -74t111.5 -37.5t139 -10.5t139 10.5t111.5 37.5t77 74t36.5 119q5 50 6.5 91.5t1.5 82.5t-1.5 82t-6.5 92q-7 72 -36.5 119t-77 74
t-111.5 37.5t-139 10.5zM392 762q75 0 125 -12.5t81 -37.5t45.5 -63t18.5 -88q4 -47 6 -85t2 -75t-2 -74.5t-6 -85.5q-4 -50 -18.5 -88t-45.5 -63t-81 -37.5t-125 -12.5t-125.5 12.5t-81 37.5t-45 63t-18.5 88q-4 48 -6 85.5t-2 74.5t2 75t6 85q4 50 18.5 88t45 63t81 37.5
t125.5 12.5zM282 865q5 -5 17 -7.5t26 -2.5t26 2.5t17 7.5t7.5 17t2.5 26t-2.5 26t-7.5 17t-17 7.5t-26 2.5t-26 -2.5t-17 -7.5t-7.5 -17t-2.5 -26t2.5 -26t7.5 -17zM416 865q5 -5 17 -7.5t26 -2.5t26 2.5t17 7.5t7.5 17t2.5 26t-2.5 26t-7.5 17t-17 7.5t-26 2.5t-26 -2.5
t-17 -7.5t-7.5 -17t-2.5 -26t2.5 -26t7.5 -17z" />
    <glyph glyph-name="multiply" unicode="&#xd7;" horiz-adv-x="306" 
d="M191 401l95 95l-38 38l-95 -95l-95 95l-38 -38l95 -95l-95 -95l38 -38l95 95l95 -95l38 38z" />
    <glyph glyph-name="Oslash" unicode="&#xd8;" horiz-adv-x="784" 
d="M86 79l-66 -79h75l35 41q49 -32 115.5 -43.5t146.5 -11.5q75 0 139 10.5t111.5 37.5t77 74t36.5 119q5 50 6.5 91.5t1.5 82.5t-1.5 82t-6.5 92q-5 49 -19.5 85.5t-38.5 62.5l66 79h-75l-35 -41q-49 32 -116 43.5t-146 11.5q-75 0 -139 -10.5t-111.5 -37.5t-77 -74
t-36.5 -119q-5 -51 -6.5 -92t-1.5 -82t1.5 -82.5t6.5 -91.5q5 -49 19.5 -85.5t38.5 -62.5zM177 98l464 557q9 -20 14 -43.5t7 -50.5q4 -47 6 -85t2 -75t-2 -74.5t-6 -85.5q-4 -50 -18.5 -88t-45.5 -63t-81 -37.5t-125 -12.5q-81 0 -133 14.5t-82 43.5zM143 147
q-9 20 -14 43.5t-7 50.5q-4 48 -6 85.5t-2 74.5t2 75t6 85q4 50 18.5 88t45 63t81 37.5t125.5 12.5q82 0 134 -14.5t81 -43.5z" />
    <glyph glyph-name="Ugrave" unicode="&#xd9;" horiz-adv-x="800" 
d="M47 241q0 -24 4 -52t16.5 -56t36 -54.5t62.5 -47t96.5 -33t137.5 -12.5t137.5 12.5t96.5 33t62.5 47t36 54.5t16.5 56t4 52v561h-96v-524q0 -20 0.5 -45.5t-4.5 -52t-19 -51.5t-42.5 -45t-75 -32t-116.5 -12t-116.5 12t-75 32t-42.5 45t-19 51.5t-4.5 52t0.5 45.5v524
h-96v-561zM400 855h20q0 4 -8.5 20.5t-21 37.5t-28 45t-30 44t-26 33t-16.5 13q-8 0 -19 -7.5t-22 -18.5t-18.5 -22.5t-7.5 -18.5q0 -5 12.5 -16.5t31 -25.5t40.5 -28.5t41.5 -27t34 -20.5t17.5 -8z" />
    <glyph glyph-name="Uacute" unicode="&#xda;" horiz-adv-x="800" 
d="M47 241q0 -24 4 -52t16.5 -56t36 -54.5t62.5 -47t96.5 -33t137.5 -12.5t137.5 12.5t96.5 33t62.5 47t36 54.5t16.5 56t4 52v561h-96v-524q0 -20 0.5 -45.5t-4.5 -52t-19 -51.5t-42.5 -45t-75 -32t-116.5 -12t-116.5 12t-75 32t-42.5 45t-19 51.5t-4.5 52t0.5 45.5v524
h-96v-561zM400 855q3 0 17.5 8t34 20.5t41.5 27t40.5 28.5t31 25.5t12.5 16.5q0 7 -7.5 18.5t-18.5 22.5t-22.5 18.5t-18.5 7.5q-5 0 -16.5 -13t-26 -33t-30 -44t-28 -45t-21 -37.5t-8.5 -20.5h20z" />
    <glyph glyph-name="Ucircumflex" unicode="&#xdb;" horiz-adv-x="800" 
d="M47 241q0 -24 4 -52t16.5 -56t36 -54.5t62.5 -47t96.5 -33t137.5 -12.5t137.5 12.5t96.5 33t62.5 47t36 54.5t16.5 56t4 52v561h-96v-524q0 -20 0.5 -45.5t-4.5 -52t-19 -51.5t-42.5 -45t-75 -32t-116.5 -12t-116.5 12t-75 32t-42.5 45t-19 51.5t-4.5 52t0.5 45.5v524
h-96v-561zM285 855h48l67 67l67 -67h48l-115 115z" />
    <glyph glyph-name="Udieresis" unicode="&#xdc;" horiz-adv-x="800" 
d="M47 241q0 -24 4 -52t16.5 -56t36 -54.5t62.5 -47t96.5 -33t137.5 -12.5t137.5 12.5t96.5 33t62.5 47t36 54.5t16.5 56t4 52v561h-96v-524q0 -20 0.5 -45.5t-4.5 -52t-19 -51.5t-42.5 -45t-75 -32t-116.5 -12t-116.5 12t-75 32t-42.5 45t-19 51.5t-4.5 52t0.5 45.5v524
h-96v-561zM290 865q5 -5 17 -7.5t26 -2.5t26 2.5t17 7.5t7.5 17t2.5 26t-2.5 26t-7.5 17t-17 7.5t-26 2.5t-26 -2.5t-17 -7.5t-7.5 -17t-2.5 -26t2.5 -26t7.5 -17zM424 865q5 -5 17 -7.5t26 -2.5t26 2.5t17 7.5t7.5 17t2.5 26t-2.5 26t-7.5 17t-17 7.5t-26 2.5t-26 -2.5
t-17 -7.5t-7.5 -17t-2.5 -26t2.5 -26t7.5 -17z" />
    <glyph glyph-name="Yacute" unicode="&#xdd;" horiz-adv-x="774" 
d="M348 351v-351h96v351l317 451h-86l-262 -386l-275 386h-118zM396 855q3 0 17.5 8t34 20.5t41.5 27t40.5 28.5t31 25.5t12.5 16.5q0 7 -7.5 18.5t-18.5 22.5t-22.5 18.5t-18.5 7.5q-5 0 -16.5 -13t-26 -33t-30 -44t-28 -45t-21 -37.5t-8.5 -20.5h20z" />
    <glyph glyph-name="Thorn" unicode="&#xde;" horiz-adv-x="681" 
d="M116 215v372h242q86 0 140 -20.5t65 -69.5q5 -18 6.5 -43.5t1.5 -52.5t-1.5 -52.5t-6.5 -43.5q-11 -49 -65 -69.5t-140 -20.5h-242zM116 641v161h-96v-802h96v161h251q40 0 86.5 5t88 20t71.5 42t38 71q5 27 7.5 51.5t2.5 50.5t-2.5 50.5t-7.5 51.5q-8 44 -38 71
t-71.5 42t-88 20t-86.5 5h-251z" />
    <glyph glyph-name="germandbls" unicode="&#xdf;" horiz-adv-x="850" 
d="M450 540q64 21 92.5 42t28.5 59q0 59 -22 94t-56 53t-75 23t-78 5q-36 0 -75.5 -4.5t-72 -17.5t-53.5 -36.5t-21 -60.5v-115h-105v-51h105v-531h88v686q0 28 12 45.5t31 27t43 12.5t48 3q79 0 109.5 -32t30.5 -101q0 -27 -19.5 -39.5t-62.5 -28.5q-46 -18 -74 -53
t-28 -92q0 -38 14 -63t37 -41t51.5 -25t57 -13.5t54.5 -6.5t43 -5q21 -3 53 -4.5t62 -11t51.5 -32.5t21.5 -69q0 -72 -46.5 -101t-125.5 -29q-97 0 -142 38t-45 123h-88q0 -52 21.5 -90t58.5 -63t87.5 -37t107.5 -12q70 0 120 13.5t81 37.5t45.5 56.5t14.5 70.5
q0 40 -12.5 66t-34 42.5t-49.5 25t-58.5 12.5t-61.5 6t-58 5q-32 4 -62.5 7t-54.5 13t-39 30t-15 58q0 89 65 111z" />
    <glyph glyph-name="agrave" unicode="&#xe0;" horiz-adv-x="590" 
d="M108 393q0 39 9 69t31 50.5t58.5 31.5t91.5 11q31 0 61 -6t54 -19.5t39 -36t15 -55.5q0 -31 -3 -50.5t-18.5 -31.5t-48 -17.5t-91.5 -8.5q-42 -2 -91.5 -4.5t-93 -17t-72.5 -47t-29 -95.5q0 -48 20.5 -82t56.5 -56t84.5 -32t105.5 -10q45 0 82.5 7.5t67.5 16t52 16
t37 7.5h17v420q0 45 -21.5 73t-56.5 43.5t-78.5 21t-88.5 5.5q-139 0 -203.5 -48t-64.5 -155h78zM288 289q69 2 111 7.5t68 13.5v-205q0 -25 -23.5 -40t-54.5 -23.5t-60.5 -11.5t-41.5 -3q-34 0 -66 6t-57 21t-40 40.5t-15 64.5q0 37 6.5 61t26 39t54.5 21.5t92 8.5z
M298 640h16q-5 3 -15.5 16t-23 30t-26 36t-26 35t-21.5 26.5t-13 10.5q-6 0 -12 -6t-10.5 -14.5t-7.5 -17.5t-3 -15q0 -4 10 -13t25 -20.5t32.5 -23t33.5 -21.5t27 -16.5t14 -6.5z" />
    <glyph glyph-name="aacute" unicode="&#xe1;" horiz-adv-x="590" 
d="M108 393q0 39 9 69t31 50.5t58.5 31.5t91.5 11q31 0 61 -6t54 -19.5t39 -36t15 -55.5q0 -31 -3 -50.5t-18.5 -31.5t-48 -17.5t-91.5 -8.5q-42 -2 -91.5 -4.5t-93 -17t-72.5 -47t-29 -95.5q0 -48 20.5 -82t56.5 -56t84.5 -32t105.5 -10q45 0 82.5 7.5t67.5 16t52 16
t37 7.5h17v420q0 45 -21.5 73t-56.5 43.5t-78.5 21t-88.5 5.5q-139 0 -203.5 -48t-64.5 -155h78zM288 289q69 2 111 7.5t68 13.5v-205q0 -25 -23.5 -40t-54.5 -23.5t-60.5 -11.5t-41.5 -3q-34 0 -66 6t-57 21t-40 40.5t-15 64.5q0 37 6.5 61t26 39t54.5 21.5t92 8.5z
M298 640q2 0 13.5 6.5t27.5 16.5t33.5 21.5t32.5 23t25 20.5t10 13q0 6 -6 15t-15 17.5t-18 14.5t-15 6t-23 -22t-35 -49.5t-32 -52.5t-14 -30h16z" />
    <glyph glyph-name="acircumflex" unicode="&#xe2;" horiz-adv-x="590" 
d="M108 393q0 39 9 69t31 50.5t58.5 31.5t91.5 11q31 0 61 -6t54 -19.5t39 -36t15 -55.5q0 -31 -3 -50.5t-18.5 -31.5t-48 -17.5t-91.5 -8.5q-42 -2 -91.5 -4.5t-93 -17t-72.5 -47t-29 -95.5q0 -48 20.5 -82t56.5 -56t84.5 -32t105.5 -10q45 0 82.5 7.5t67.5 16t52 16
t37 7.5h17v420q0 45 -21.5 73t-56.5 43.5t-78.5 21t-88.5 5.5q-139 0 -203.5 -48t-64.5 -155h78zM288 289q69 2 111 7.5t68 13.5v-205q0 -25 -23.5 -40t-54.5 -23.5t-60.5 -11.5t-41.5 -3q-34 0 -66 6t-57 21t-40 40.5t-15 64.5q0 37 6.5 61t26 39t54.5 21.5t92 8.5z
M183 640h48l67 67l67 -67h48l-115 115z" />
    <glyph glyph-name="atilde" unicode="&#xe3;" horiz-adv-x="590" 
d="M108 393q0 39 9 69t31 50.5t58.5 31.5t91.5 11q31 0 61 -6t54 -19.5t39 -36t15 -55.5q0 -31 -3 -50.5t-18.5 -31.5t-48 -17.5t-91.5 -8.5q-42 -2 -91.5 -4.5t-93 -17t-72.5 -47t-29 -95.5q0 -48 20.5 -82t56.5 -56t84.5 -32t105.5 -10q45 0 82.5 7.5t67.5 16t52 16
t37 7.5h17v420q0 45 -21.5 73t-56.5 43.5t-78.5 21t-88.5 5.5q-139 0 -203.5 -48t-64.5 -155h78zM288 289q69 2 111 7.5t68 13.5v-205q0 -25 -23.5 -40t-54.5 -23.5t-60.5 -11.5t-41.5 -3q-34 0 -66 6t-57 21t-40 40.5t-15 64.5q0 37 6.5 61t26 39t54.5 21.5t92 8.5z
M276 718q0 -34 26 -56t60 -22t60 22t26 56q0 8 -7 12.5t-15 4.5t-15 -4.5t-7 -12.5q0 -17 -13 -25.5t-29 -8.5q-17 0 -29.5 8.5t-12.5 25.5q0 34 -26 56t-60 22t-60 -22t-26 -56q0 -8 7 -12.5t15 -4.5t15 4.5t7 12.5q0 17 13 25.5t29 8.5q17 0 29.5 -8.5t12.5 -25.5z" />
    <glyph glyph-name="adieresis" unicode="&#xe4;" horiz-adv-x="590" 
d="M108 393q0 39 9 69t31 50.5t58.5 31.5t91.5 11q31 0 61 -6t54 -19.5t39 -36t15 -55.5q0 -31 -3 -50.5t-18.5 -31.5t-48 -17.5t-91.5 -8.5q-42 -2 -91.5 -4.5t-93 -17t-72.5 -47t-29 -95.5q0 -48 20.5 -82t56.5 -56t84.5 -32t105.5 -10q45 0 82.5 7.5t67.5 16t52 16
t37 7.5h17v420q0 45 -21.5 73t-56.5 43.5t-78.5 21t-88.5 5.5q-139 0 -203.5 -48t-64.5 -155h78zM288 289q69 2 111 7.5t68 13.5v-205q0 -25 -23.5 -40t-54.5 -23.5t-60.5 -11.5t-41.5 -3q-34 0 -66 6t-57 21t-40 40.5t-15 64.5q0 37 6.5 61t26 39t54.5 21.5t92 8.5z
M208 648q5 -5 14 -6.5t20 -1.5t20.5 1.5t14.5 6.5q4 4 6 13.5t2 20.5t-2 20.5t-6 13.5q-5 5 -14.5 6.5t-20.5 1.5t-20 -1.5t-14 -6.5q-5 -4 -6.5 -13.5t-1.5 -20.5t1.5 -20.5t6.5 -13.5zM319 648q5 -5 14.5 -6.5t20.5 -1.5t20 1.5t14 6.5q5 4 6.5 13.5t1.5 20.5t-1.5 20.5
t-6.5 13.5q-5 5 -14 6.5t-20 1.5t-20.5 -1.5t-14.5 -6.5q-4 -4 -6 -13.5t-2 -20.5t2 -20.5t6 -13.5z" />
    <glyph glyph-name="aring" unicode="&#xe5;" horiz-adv-x="590" 
d="M108 393q0 39 9 69t31 50.5t58.5 31.5t91.5 11q31 0 61 -6t54 -19.5t39 -36t15 -55.5q0 -31 -3 -50.5t-18.5 -31.5t-48 -17.5t-91.5 -8.5q-42 -2 -91.5 -4.5t-93 -17t-72.5 -47t-29 -95.5q0 -48 20.5 -82t56.5 -56t84.5 -32t105.5 -10q45 0 82.5 7.5t67.5 16t52 16
t37 7.5h17v420q0 45 -21.5 73t-56.5 43.5t-78.5 21t-88.5 5.5q-139 0 -203.5 -48t-64.5 -155h78zM288 289q69 2 111 7.5t68 13.5v-205q0 -25 -23.5 -40t-54.5 -23.5t-60.5 -11.5t-41.5 -3q-34 0 -66 6t-57 21t-40 40.5t-15 64.5q0 37 6.5 61t26 39t54.5 21.5t92 8.5z
M254 721q0 18 13 31t31 13t31 -13t13 -31t-13 -31t-31 -13t-31 13t-13 31zM298 802q-34 0 -57.5 -23.5t-23.5 -57.5t23.5 -57.5t57.5 -23.5t57.5 23.5t23.5 57.5t-23.5 57.5t-57.5 23.5z" />
    <glyph glyph-name="ae" unicode="&#xe6;" horiz-adv-x="1066" 
d="M558 33q33 -22 80.5 -34.5t110.5 -12.5q84 0 140.5 16t91 41t49 55.5t14.5 58.5v18h-88l-1 -17q-1 -20 -12.5 -43t-36.5 -42.5t-63.5 -32.5t-93.5 -13q-110 0 -158 59t-48 165v26h503v23q0 82 -16 138.5t-51 91.5t-91.5 50.5t-138.5 15.5q-85 0 -139.5 -20t-87.5 -51
q-15 22 -39.5 36t-54.5 21.5t-63.5 10.5t-66.5 3q-139 0 -203.5 -48t-64.5 -155h78q0 39 9 69t31 50.5t58.5 31.5t91.5 11q31 0 61 -6t54 -19.5t39 -36t15 -55.5q0 -31 -3 -50.5t-18.5 -31.5t-48 -17.5t-91.5 -8.5q-42 -2 -91.5 -4.5t-93 -17t-72.5 -47t-29 -95.5
q0 -48 20.5 -82t56.5 -56t84.5 -32t105.5 -10q45 0 82.5 7.5t67.5 16t52 16t37 7.5h32zM288 289q69 2 111 7.5t68 13.5v-205q0 -25 -23.5 -40t-54.5 -23.5t-60.5 -11.5t-41.5 -3q-34 0 -66 6t-57 21t-40 40.5t-15 64.5q0 37 6.5 61t26 39t54.5 21.5t92 8.5zM958 318h-415v26
q0 106 48 158.5t158 52.5q111 0 160 -52.5t49 -158.5v-26z" />
    <glyph glyph-name="ccedilla" unicode="&#xe7;" 
d="M307 -14l-16 -53q-4 -11 -12.5 -16.5t-31.5 -5.5q-24 0 -64 8l-9 -54q28 -3 47 -3q21 0 35 4.5t23 13.5t15 22t11 31l15 53q86 0 141.5 12.5t88 36.5t45.5 59.5t13 80.5v20h-88v-20q0 -46 -11 -74.5t-35.5 -45t-64 -22.5t-95.5 -6q-70 0 -111 18.5t-62 53t-27 83.5
t-6 109t6 109t27 83.5t62 53t111 18.5q43 0 81 -7t65.5 -25t43.5 -49.5t16 -79.5v-20h88v20q0 98 -74 150t-220 52q-99 0 -157.5 -25t-88.5 -67t-39 -97.5t-9 -115.5t9 -114.5t38.5 -96.5t86.5 -67.5t153 -26.5z" />
    <glyph glyph-name="egrave" unicode="&#xe8;" horiz-adv-x="631" 
d="M523 318h-415v26q0 106 48 158.5t158 52.5q111 0 160 -52.5t49 -158.5v-26zM611 300q0 82 -16 138.5t-51 91.5t-91.5 50.5t-138.5 15.5q-75 0 -127 -16.5t-86 -43t-51 -58.5t-21 -63q-9 -63 -9 -116q0 -28 2 -53.5t4 -48.5q4 -41 21.5 -79.5t52 -67.5t87 -46.5
t127.5 -17.5q84 0 140.5 16t91 41t49 55.5t14.5 58.5v18h-88l-1 -17q-1 -20 -12.5 -43t-36.5 -42.5t-63.5 -32.5t-93.5 -13q-110 0 -158 59t-48 165v26h503v23zM314 640h16q0 5 -14 30t-32 52.5t-35 49.5t-23 22t-15 -6t-18 -14.5t-15 -17.5t-6 -15q0 -4 10 -13t25 -20.5
t32.5 -23t33.5 -21.5t27.5 -16.5t13.5 -6.5z" />
    <glyph glyph-name="eacute" unicode="&#xe9;" horiz-adv-x="631" 
d="M523 318h-415v26q0 106 48 158.5t158 52.5q111 0 160 -52.5t49 -158.5v-26zM611 300q0 82 -16 138.5t-51 91.5t-91.5 50.5t-138.5 15.5q-75 0 -127 -16.5t-86 -43t-51 -58.5t-21 -63q-9 -63 -9 -116q0 -28 2 -53.5t4 -48.5q4 -41 21.5 -79.5t52 -67.5t87 -46.5
t127.5 -17.5q84 0 140.5 16t91 41t49 55.5t14.5 58.5v18h-88l-1 -17q-1 -20 -12.5 -43t-36.5 -42.5t-63.5 -32.5t-93.5 -13q-110 0 -158 59t-48 165v26h503v23zM314 640q2 0 13.5 6.5t27.5 16.5t33.5 21.5t32.5 23t25 20.5t10 13q0 6 -6 15t-15 17.5t-18 14.5t-15 6t-23 -22
t-35 -49.5t-32 -52.5t-14 -30h16z" />
    <glyph glyph-name="ecircumflex" unicode="&#xea;" horiz-adv-x="631" 
d="M523 318h-415v26q0 106 48 158.5t158 52.5q111 0 160 -52.5t49 -158.5v-26zM611 300q0 82 -16 138.5t-51 91.5t-91.5 50.5t-138.5 15.5q-75 0 -127 -16.5t-86 -43t-51 -58.5t-21 -63q-9 -63 -9 -116q0 -28 2 -53.5t4 -48.5q4 -41 21.5 -79.5t52 -67.5t87 -46.5
t127.5 -17.5q84 0 140.5 16t91 41t49 55.5t14.5 58.5v18h-88l-1 -17q-1 -20 -12.5 -43t-36.5 -42.5t-63.5 -32.5t-93.5 -13q-110 0 -158 59t-48 165v26h503v23zM199 640h48l67 67l67 -67h48l-115 115z" />
    <glyph glyph-name="edieresis" unicode="&#xeb;" horiz-adv-x="631" 
d="M523 318h-415v26q0 106 48 158.5t158 52.5q111 0 160 -52.5t49 -158.5v-26zM611 300q0 82 -16 138.5t-51 91.5t-91.5 50.5t-138.5 15.5q-75 0 -127 -16.5t-86 -43t-51 -58.5t-21 -63q-9 -63 -9 -116q0 -28 2 -53.5t4 -48.5q4 -41 21.5 -79.5t52 -67.5t87 -46.5
t127.5 -17.5q84 0 140.5 16t91 41t49 55.5t14.5 58.5v18h-88l-1 -17q-1 -20 -12.5 -43t-36.5 -42.5t-63.5 -32.5t-93.5 -13q-110 0 -158 59t-48 165v26h503v23zM224 648q5 -5 14 -6.5t20 -1.5t20.5 1.5t14.5 6.5q4 4 6 13.5t2 20.5t-2 20.5t-6 13.5q-5 5 -14.5 6.5
t-20.5 1.5t-20 -1.5t-14 -6.5q-5 -4 -6.5 -13.5t-1.5 -20.5t1.5 -20.5t6.5 -13.5zM335 648q5 -5 14.5 -6.5t20.5 -1.5t20 1.5t14 6.5q5 4 6.5 13.5t1.5 20.5t-1.5 20.5t-6.5 13.5q-5 5 -14 6.5t-20 1.5t-20.5 -1.5t-14.5 -6.5q-4 -4 -6 -13.5t-2 -20.5t2 -20.5t6 -13.5z" />
    <glyph glyph-name="igrave" unicode="&#xec;" horiz-adv-x="182" 
d="M135 582h-88v-582h88v582zM91 640h16q0 5 -14 30t-32 52.5t-35 49.5t-23 22t-15 -6t-18 -14.5t-15 -17.5t-6 -15q0 -4 10 -13t25 -20.5t32.5 -23t33.5 -21.5t27.5 -16.5t13.5 -6.5z" />
    <glyph glyph-name="iacute" unicode="&#xed;" horiz-adv-x="182" 
d="M135 582h-88v-582h88v582zM91 640q2 0 13.5 6.5t27.5 16.5t33.5 21.5t32.5 23t25 20.5t10 13q0 6 -6 15t-15 17.5t-18 14.5t-15 6t-23 -22t-35 -49.5t-32 -52.5t-14 -30h16z" />
    <glyph glyph-name="icircumflex" unicode="&#xee;" horiz-adv-x="182" 
d="M135 582h-88v-582h88v582zM-24 640h48l67 67l67 -67h48l-115 115z" />
    <glyph glyph-name="idieresis" unicode="&#xef;" horiz-adv-x="182" 
d="M135 582h-88v-582h88v582zM1 648q5 -5 14 -6.5t20 -1.5t20.5 1.5t14.5 6.5q4 4 6 13.5t2 20.5t-2 20.5t-6 13.5q-5 5 -14.5 6.5t-20.5 1.5t-20 -1.5t-14 -6.5q-5 -4 -6.5 -13.5t-1.5 -20.5t1.5 -20.5t6.5 -13.5zM112 648q5 -5 14.5 -6.5t20.5 -1.5t20 1.5t14 6.5
q5 4 6.5 13.5t1.5 20.5t-1.5 20.5t-6.5 13.5q-5 5 -14 6.5t-20 1.5t-20.5 -1.5t-14.5 -6.5q-4 -4 -6 -13.5t-2 -20.5t2 -20.5t6 -13.5z" />
    <glyph glyph-name="eth" unicode="&#xf0;" 
d="M438 583q-51 13 -124 13q-83 0 -139 -16.5t-90.5 -53t-49.5 -94.5t-15 -141t15 -141t49.5 -94.5t90.5 -53t139 -16.5t139 16.5t90.5 53t49.5 94.5t15 141q0 87 -15 152t-41 112t-61.5 78.5t-77.5 53.5l62 62h-50l-46 -46q-42 18 -82 28.5t-67 17.5h-69q55 -14 101.5 -32
t84.5 -46l-47 -47h50l25 25q17 -14 33 -30t30 -36zM520 291q0 -83 -9.5 -134.5t-33 -80.5t-63.5 -39t-100 -10t-100 10t-63.5 39t-33 80.5t-9.5 134.5t9.5 134.5t33 80.5t63.5 39t100 10t100 -10t63.5 -39t33 -80.5t9.5 -134.5z" />
    <glyph glyph-name="ntilde" unicode="&#xf1;" horiz-adv-x="624" 
d="M318 596q-51 0 -88 -7t-64 -16t-46 -16t-33 -7h-40v-550h88v441q0 60 46 87t137 27q92 0 131.5 -29t39.5 -85v-441h88v441q0 80 -69 117.5t-190 37.5zM296 718q0 -34 26 -56t60 -22t60 22t26 56q0 8 -7 12.5t-15 4.5t-15 -4.5t-7 -12.5q0 -17 -13 -25.5t-29 -8.5
q-17 0 -29.5 8.5t-12.5 25.5q0 34 -26 56t-60 22t-60 -22t-26 -56q0 -8 7 -12.5t15 -4.5t15 4.5t7 12.5q0 17 13 25.5t29 8.5q17 0 29.5 -8.5t12.5 -25.5z" />
    <glyph glyph-name="ograve" unicode="&#xf2;" 
d="M20 291q0 -83 15 -141t49.5 -94.5t90.5 -53t139 -16.5t139 16.5t90.5 53t49.5 94.5t15 141t-15 141t-49.5 94.5t-90.5 53t-139 16.5t-139 -16.5t-90.5 -53t-49.5 -94.5t-15 -141zM520 291q0 -83 -9.5 -134.5t-33 -80.5t-63.5 -39t-100 -10t-100 10t-63.5 39t-33 80.5
t-9.5 134.5t9.5 134.5t33 80.5t63.5 39t100 10t100 -10t63.5 -39t33 -80.5t9.5 -134.5zM314 640h16q0 5 -14 30t-32 52.5t-35 49.5t-23 22t-15 -6t-18 -14.5t-15 -17.5t-6 -15q0 -4 10 -13t25 -20.5t32.5 -23t33.5 -21.5t27.5 -16.5t13.5 -6.5z" />
    <glyph glyph-name="oacute" unicode="&#xf3;" 
d="M20 291q0 -83 15 -141t49.5 -94.5t90.5 -53t139 -16.5t139 16.5t90.5 53t49.5 94.5t15 141t-15 141t-49.5 94.5t-90.5 53t-139 16.5t-139 -16.5t-90.5 -53t-49.5 -94.5t-15 -141zM520 291q0 -83 -9.5 -134.5t-33 -80.5t-63.5 -39t-100 -10t-100 10t-63.5 39t-33 80.5
t-9.5 134.5t9.5 134.5t33 80.5t63.5 39t100 10t100 -10t63.5 -39t33 -80.5t9.5 -134.5zM314 640q2 0 13.5 6.5t27.5 16.5t33.5 21.5t32.5 23t25 20.5t10 13q0 6 -6 15t-15 17.5t-18 14.5t-15 6t-23 -22t-35 -49.5t-32 -52.5t-14 -30h16z" />
    <glyph glyph-name="ocircumflex" unicode="&#xf4;" 
d="M20 291q0 -83 15 -141t49.5 -94.5t90.5 -53t139 -16.5t139 16.5t90.5 53t49.5 94.5t15 141t-15 141t-49.5 94.5t-90.5 53t-139 16.5t-139 -16.5t-90.5 -53t-49.5 -94.5t-15 -141zM520 291q0 -83 -9.5 -134.5t-33 -80.5t-63.5 -39t-100 -10t-100 10t-63.5 39t-33 80.5
t-9.5 134.5t9.5 134.5t33 80.5t63.5 39t100 10t100 -10t63.5 -39t33 -80.5t9.5 -134.5zM199 640h48l67 67l67 -67h48l-115 115z" />
    <glyph glyph-name="otilde" unicode="&#xf5;" 
d="M20 291q0 -83 15 -141t49.5 -94.5t90.5 -53t139 -16.5t139 16.5t90.5 53t49.5 94.5t15 141t-15 141t-49.5 94.5t-90.5 53t-139 16.5t-139 -16.5t-90.5 -53t-49.5 -94.5t-15 -141zM520 291q0 -83 -9.5 -134.5t-33 -80.5t-63.5 -39t-100 -10t-100 10t-63.5 39t-33 80.5
t-9.5 134.5t9.5 134.5t33 80.5t63.5 39t100 10t100 -10t63.5 -39t33 -80.5t9.5 -134.5zM289 718q0 -34 26 -56t60 -22t60 22t26 56q0 8 -7 12.5t-15 4.5t-15 -4.5t-7 -12.5q0 -17 -13 -25.5t-29 -8.5q-17 0 -29.5 8.5t-12.5 25.5q0 34 -26 56t-60 22t-60 -22t-26 -56
q0 -8 7 -12.5t15 -4.5t15 4.5t7 12.5q0 17 13 25.5t29 8.5q17 0 29.5 -8.5t12.5 -25.5z" />
    <glyph glyph-name="odieresis" unicode="&#xf6;" 
d="M20 291q0 -83 15 -141t49.5 -94.5t90.5 -53t139 -16.5t139 16.5t90.5 53t49.5 94.5t15 141t-15 141t-49.5 94.5t-90.5 53t-139 16.5t-139 -16.5t-90.5 -53t-49.5 -94.5t-15 -141zM520 291q0 -83 -9.5 -134.5t-33 -80.5t-63.5 -39t-100 -10t-100 10t-63.5 39t-33 80.5
t-9.5 134.5t9.5 134.5t33 80.5t63.5 39t100 10t100 -10t63.5 -39t33 -80.5t9.5 -134.5zM224 648q5 -5 14 -6.5t20 -1.5t20.5 1.5t14.5 6.5q4 4 6 13.5t2 20.5t-2 20.5t-6 13.5q-5 5 -14.5 6.5t-20.5 1.5t-20 -1.5t-14 -6.5q-5 -4 -6.5 -13.5t-1.5 -20.5t1.5 -20.5t6.5 -13.5
zM335 648q5 -5 14.5 -6.5t20.5 -1.5t20 1.5t14 6.5q5 4 6.5 13.5t1.5 20.5t-1.5 20.5t-6.5 13.5q-5 5 -14 6.5t-20 1.5t-20.5 -1.5t-14.5 -6.5q-4 -4 -6 -13.5t-2 -20.5t2 -20.5t6 -13.5z" />
    <glyph glyph-name="oslash" unicode="&#xf8;" 
d="M76 64l-56 -64h75l24 27q67 -41 195 -41q83 0 139 16.5t90.5 53t49.5 94.5t15 141q0 79 -13 135t-43 92l56 64h-75l-24 -27q-35 22 -83 31.5t-112 9.5q-83 0 -139 -16.5t-90.5 -53t-49.5 -94.5t-15 -141q0 -79 13 -134.5t43 -92.5zM127 121q-11 29 -15 71t-4 99
q0 83 9.5 134.5t33 80.5t63.5 39t100 10q57 0 95.5 -9t62.5 -34zM156 70l345 391q11 -30 15 -71.5t4 -98.5q0 -83 -9.5 -134.5t-33 -80.5t-63.5 -39t-100 -10q-57 0 -95.5 9t-62.5 34z" />
    <glyph glyph-name="ugrave" unicode="&#xf9;" horiz-adv-x="624" 
d="M306 -14q51 0 88 7t64 16t46 16t33 7h40v550h-88v-441q0 -60 -46 -87t-137 -27q-92 0 -131.5 29t-39.5 85v441h-88v-441q0 -80 69 -117.5t190 -37.5zM306 640h16q0 5 -14 30t-32 52.5t-35 49.5t-23 22t-15 -6t-18 -14.5t-15 -17.5t-6 -15q0 -4 10 -13t25 -20.5t32.5 -23
t33.5 -21.5t27 -16.5t14 -6.5z" />
    <glyph glyph-name="uacute" unicode="&#xfa;" horiz-adv-x="624" 
d="M306 -14q51 0 88 7t64 16t46 16t33 7h40v550h-88v-441q0 -60 -46 -87t-137 -27q-92 0 -131.5 29t-39.5 85v441h-88v-441q0 -80 69 -117.5t190 -37.5zM306 640q2 0 13.5 6.5t27.5 16.5t33.5 21.5t32.5 23t25 20.5t10 13q0 6 -6 15t-15 17.5t-18 14.5t-15 6t-23 -22
t-35 -49.5t-32 -52.5t-14 -30h16z" />
    <glyph glyph-name="ucircumflex" unicode="&#xfb;" horiz-adv-x="624" 
d="M306 -14q51 0 88 7t64 16t46 16t33 7h40v550h-88v-441q0 -60 -46 -87t-137 -27q-92 0 -131.5 29t-39.5 85v441h-88v-441q0 -80 69 -117.5t190 -37.5zM191 640h48l67 67l67 -67h48l-115 115z" />
    <glyph glyph-name="udieresis" unicode="&#xfc;" horiz-adv-x="624" 
d="M306 -14q51 0 88 7t64 16t46 16t33 7h40v550h-88v-441q0 -60 -46 -87t-137 -27q-92 0 -131.5 29t-39.5 85v441h-88v-441q0 -80 69 -117.5t190 -37.5zM216 648q5 -5 14 -6.5t20 -1.5t20.5 1.5t14.5 6.5q4 4 6 13.5t2 20.5t-2 20.5t-6 13.5q-5 5 -14.5 6.5t-20.5 1.5
t-20 -1.5t-14 -6.5q-5 -4 -6.5 -13.5t-1.5 -20.5t1.5 -20.5t6.5 -13.5zM327 648q5 -5 14.5 -6.5t20.5 -1.5t20 1.5t14 6.5q5 4 6.5 13.5t1.5 20.5t-1.5 20.5t-6.5 13.5q-5 5 -14 6.5t-20 1.5t-20.5 -1.5t-14.5 -6.5q-4 -4 -6 -13.5t-2 -20.5t2 -20.5t6 -13.5z" />
    <glyph glyph-name="yacute" unicode="&#xfd;" horiz-adv-x="615" 
d="M291 6l-85 -204h70l326 780h-70l-195 -467l-227 467h-97zM337 640q2 0 13.5 6.5t27.5 16.5t33.5 21.5t32.5 23t25 20.5t10 13q0 6 -6 15t-15 17.5t-18 14.5t-15 6t-23 -22t-35 -49.5t-32 -52.5t-14 -30h16z" />
    <glyph glyph-name="thorn" unicode="&#xfe;" horiz-adv-x="641" 
d="M536 291q0 -86 -12 -137.5t-38.5 -80t-67.5 -37.5t-99 -9q-50 0 -87.5 10t-63 27.5t-39 40t-15.5 47.5q-3 38 -5 71.5t-2 67.5t2 67.5t5 71.5q2 25 15.5 47.5t39 40t63 27.5t87.5 10q58 0 99 -9t67.5 -37.5t38.5 -80.5t12 -137zM621 291q0 83 -16 141t-51.5 94.5t-93 53
t-141.5 16.5q-73 0 -124.5 -17.5t-86.5 -41.5v265h-88v-1000h88v243q35 -24 86.5 -41.5t124.5 -17.5q84 0 141.5 16.5t93 53t51.5 94.5t16 141z" />
    <glyph glyph-name="ydieresis" unicode="&#xff;" horiz-adv-x="615" 
d="M291 6l-85 -204h70l326 780h-70l-195 -467l-227 467h-97zM247 648q5 -5 14 -6.5t20 -1.5t20.5 1.5t14.5 6.5q4 4 6 13.5t2 20.5t-2 20.5t-6 13.5q-5 5 -14.5 6.5t-20.5 1.5t-20 -1.5t-14 -6.5q-5 -4 -6.5 -13.5t-1.5 -20.5t1.5 -20.5t6.5 -13.5zM358 648q5 -5 14.5 -6.5
t20.5 -1.5t20 1.5t14 6.5q5 4 6.5 13.5t1.5 20.5t-1.5 20.5t-6.5 13.5q-5 5 -14 6.5t-20 1.5t-20.5 -1.5t-14.5 -6.5q-4 -4 -6 -13.5t-2 -20.5t2 -20.5t6 -13.5z" />
    <glyph glyph-name="OE" unicode="&#x152;" horiz-adv-x="1269" 
d="M668 752q-50 36 -120 50t-156 14q-75 0 -139 -10.5t-111.5 -37.5t-77 -74t-36.5 -119q-5 -51 -6.5 -92t-1.5 -82t1.5 -82.5t6.5 -91.5q7 -72 36.5 -119t77 -74t111.5 -37.5t139 -10.5q87 0 157.5 14t118.5 51v-51h581v54h-485v353h427v54h-427v287h472v54h-568v-50z
M392 762q75 0 125 -12.5t81 -37.5t45.5 -63t18.5 -88q4 -47 6 -85t2 -75t-2 -74.5t-6 -85.5q-4 -50 -18.5 -88t-45.5 -63t-81 -37.5t-125 -12.5t-125.5 12.5t-81 37.5t-45 63t-18.5 88q-4 48 -6 85.5t-2 74.5t2 75t6 85q4 50 18.5 88t45 63t81 37.5t125.5 12.5z" />
    <glyph glyph-name="oe" unicode="&#x153;" horiz-adv-x="1131" 
d="M567 86q32 -45 91.5 -72.5t155.5 -27.5q84 0 140.5 16t91 41t49 55.5t14.5 58.5v18h-88l-1 -17q-1 -20 -12.5 -43t-36.5 -42.5t-63.5 -32.5t-93.5 -13q-110 0 -158 59t-48 165v26h503v23q0 82 -16 138.5t-51 91.5t-91.5 50.5t-138.5 15.5q-50 0 -90 -7.5t-70.5 -20.5
t-52.5 -31t-37 -38q-32 52 -92.5 74.5t-157.5 22.5q-83 0 -139 -16.5t-90.5 -53t-49.5 -94.5t-15 -141t15 -141t49.5 -94.5t90.5 -53t139 -16.5q100 0 160.5 23.5t92.5 76.5zM520 291q0 -83 -9.5 -134.5t-33 -80.5t-63.5 -39t-100 -10t-100 10t-63.5 39t-33 80.5t-9.5 134.5
t9.5 134.5t33 80.5t63.5 39t100 10t100 -10t63.5 -39t33 -80.5t9.5 -134.5zM1023 318h-415v26q0 106 48 158.5t158 52.5q111 0 160 -52.5t49 -158.5v-26z" />
    <glyph glyph-name="Scaron" unicode="&#x160;" horiz-adv-x="697" 
d="M663 556q0 12 0.5 35.5t-6 52.5t-23.5 59.5t-52.5 55.5t-92.5 41t-144 16q-101 0 -162.5 -17.5t-96 -47.5t-46 -70.5t-11.5 -85.5q0 -74 20.5 -114.5t59.5 -61.5t95 -29t126 -17q52 -6 96.5 -11.5t77.5 -21.5t52 -47.5t19 -89.5q0 -38 -7 -68t-28.5 -51t-61 -32.5
t-103.5 -11.5q-71 0 -118 12.5t-76 32t-42.5 43.5t-18.5 48t-4.5 44.5t0.5 33.5h-96q0 -19 2 -46t12 -57t31.5 -59.5t61 -53t100 -38t148.5 -14.5q91 0 148.5 16t90.5 45t45 69.5t12 90.5q0 57 -13.5 95t-37.5 62t-56.5 37t-70.5 20.5t-80.5 11.5t-85.5 10q-51 7 -89 14
t-64 22t-39 42.5t-13 75.5q0 37 7 67t30.5 52t67.5 34t118 12q87 0 132.5 -21t65.5 -52.5t22 -67.5t2 -65h96zM232 952q0 -21 9 -39t23.5 -30.5t34 -20t40.5 -7.5t40.5 7.5t34 20t23.5 30.5t9 39q0 10 -8.5 15.5t-18.5 5.5t-18.5 -5.5t-8.5 -15.5q0 -20 -16.5 -31.5
t-36.5 -11.5t-36.5 11.5t-16.5 31.5q0 10 -8.5 15.5t-18.5 5.5t-18.5 -5.5t-8.5 -15.5z" />
    <glyph glyph-name="scaron" unicode="&#x161;" horiz-adv-x="576" 
d="M544 388q0 48 -12 82t-44 64q-31 29 -85.5 45.5t-127.5 16.5q-50 0 -95.5 -8t-80.5 -27.5t-56 -51.5t-21 -81q0 -38 14 -63t37 -41t51.5 -25t57 -13.5t54.5 -6.5t43 -5q21 -3 53 -4.5t62 -11t51.5 -32.5t21.5 -69q0 -72 -46.5 -101t-125.5 -29q-97 0 -142 38t-45 123h-88
q0 -52 21.5 -90t58.5 -63t87.5 -37t107.5 -12q70 0 120 13.5t81 37.5t45.5 56.5t14.5 70.5q0 40 -12.5 66t-34 42.5t-49.5 25t-58.5 12.5t-61.5 6t-58 5q-32 4 -62.5 7t-54.5 13t-39 30t-15 58q0 69 39.5 97.5t124.5 28.5q64 0 100 -16t54 -41t22 -54t4 -56h89zM168 737
q0 -21 9 -39t23.5 -30.5t34 -20t40.5 -7.5t40.5 7.5t34 20t23.5 30.5t9 39q0 10 -8.5 15.5t-18.5 5.5t-18.5 -5.5t-8.5 -15.5q0 -20 -16.5 -31.5t-36.5 -11.5t-36.5 11.5t-16.5 31.5q0 10 -8.5 15.5t-18.5 5.5t-18.5 -5.5t-8.5 -15.5z" />
    <glyph glyph-name="Ydieresis" unicode="&#x178;" horiz-adv-x="767" 
d="M341 351v-351h96v351l317 451h-86l-262 -386l-275 386h-118zM279 865q5 -5 17 -7.5t26 -2.5t26 2.5t17 7.5t7.5 17t2.5 26t-2.5 26t-7.5 17t-17 7.5t-26 2.5t-26 -2.5t-17 -7.5t-7.5 -17t-2.5 -26t2.5 -26t7.5 -17zM413 865q5 -5 17 -7.5t26 -2.5t26 2.5t17 7.5t7.5 17
t2.5 26t-2.5 26t-7.5 17t-17 7.5t-26 2.5t-26 -2.5t-17 -7.5t-7.5 -17t-2.5 -26t2.5 -26t7.5 -17z" />
    <glyph glyph-name="florin" unicode="&#x192;" horiz-adv-x="896" 
d="M47 802v-802h802v802h-802z" />
    <glyph glyph-name="circumflex" unicode="&#x2c6;" horiz-adv-x="270" 
d="M20 687h48l67 67l67 -67h48l-115 115z" />
    <glyph glyph-name="tilde" unicode="&#x2dc;" horiz-adv-x="414" 
d="M180 719q0 -21 9 -39t23.5 -30.5t34 -20t40.5 -7.5t40.5 7.5t34 20t23.5 30.5t9 39q0 10 -8.5 15.5t-18.5 5.5t-18.5 -5.5t-8.5 -15.5q0 -20 -16.5 -31.5t-36.5 -11.5t-36.5 11.5t-16.5 31.5q0 21 -9 39t-23.5 30.5t-34 20t-40.5 7.5t-40.5 -7.5t-34 -20t-23.5 -30.5
t-9 -39q0 -10 8.5 -15.5t18.5 -5.5t18.5 5.5t8.5 15.5q0 20 16.5 31.5t36.5 11.5t36.5 -11.5t16.5 -31.5z" />
    <glyph glyph-name="endash" unicode="&#x2013;" horiz-adv-x="540" 
d="M520 374v54h-500v-54h500z" />
    <glyph glyph-name="emdash" unicode="&#x2014;" horiz-adv-x="1040" 
d="M1020 374v54h-1000v-54h1000z" />
    <glyph glyph-name="quoteleft" unicode="&#x2018;" horiz-adv-x="138" 
d="M61 789q5 28 14 52t16 51h-37q-6 -16 -12 -38.5t-11 -47t-8 -48t-3 -41.5q0 -14 3 -17q5 -5 17 -7.5t26 -2.5t25.5 2.5t16.5 7.5t7.5 17t2.5 26t-2.5 26t-7.5 17t-17 5q-6 0 -14 -0.5t-16 -1.5z" />
    <glyph glyph-name="quoteright" unicode="&#x2019;" horiz-adv-x="138" 
d="M77 802q-5 -28 -14 -52t-16 -51h37q6 16 12 38.5t11 47t8 48t3 41.5q0 14 -3 17q-5 5 -17 7.5t-26 2.5t-25.5 -2.5t-16.5 -7.5t-7.5 -17t-2.5 -26t2.5 -26t7.5 -17t17 -5q6 0 14 0.5t16 1.5z" />
    <glyph glyph-name="quotesinglbase" unicode="&#x201a;" horiz-adv-x="138" 
d="M77 0q-5 -28 -14 -52t-16 -51h37q6 16 12 38.5t11 47t8 48t3 41.5q0 14 -3 17q-5 5 -17 7.5t-26 2.5t-25.5 -2.5t-16.5 -7.5t-7.5 -17t-2.5 -26t2.5 -26t7.5 -17t17 -5q6 0 14 0.5t16 1.5z" />
    <glyph glyph-name="quotedblleft" unicode="&#x201c;" horiz-adv-x="264" 
d="M187 789q5 28 14 52t16 51h-37q-6 -16 -12 -38.5t-11 -47t-8 -48t-3 -41.5q0 -14 3 -17q5 -5 17 -7.5t26 -2.5t25.5 2.5t16.5 7.5t7.5 17t2.5 26t-2.5 26t-7.5 17t-17 5q-6 0 -14 -0.5t-16 -1.5zM61 789q5 28 14 52t16 51h-37q-6 -16 -12 -38.5t-11 -47t-8 -48t-3 -41.5
q0 -14 3 -17q5 -5 17 -7.5t26 -2.5t25.5 2.5t16.5 7.5t7.5 17t2.5 26t-2.5 26t-7.5 17t-17 5q-6 0 -14 -0.5t-16 -1.5z" />
    <glyph glyph-name="quotedblright" unicode="&#x201d;" horiz-adv-x="264" 
d="M77 802q-5 -28 -14 -52t-16 -51h37q6 16 12 38.5t11 47t8 48t3 41.5q0 14 -3 17q-5 5 -17 7.5t-26 2.5t-25.5 -2.5t-16.5 -7.5t-7.5 -17t-2.5 -26t2.5 -26t7.5 -17t17 -5q6 0 14 0.5t16 1.5zM203 802q-5 -28 -14 -52t-16 -51h37q6 16 12 38.5t11 47t8 48t3 41.5
q0 14 -3 17q-5 5 -17 7.5t-26 2.5t-25.5 -2.5t-16.5 -7.5t-7.5 -17t-2.5 -26t2.5 -26t7.5 -17t17 -5q6 0 14 0.5t16 1.5z" />
    <glyph glyph-name="quotedblbase" unicode="&#x201e;" horiz-adv-x="264" 
d="M77 0q-5 -28 -14 -52t-16 -51h37q6 16 12 38.5t11 47t8 48t3 41.5q0 14 -3 17q-5 5 -17 7.5t-26 2.5t-25.5 -2.5t-16.5 -7.5t-7.5 -17t-2.5 -26t2.5 -26t7.5 -17t17 -5q6 0 14 0.5t16 1.5zM203 0q-5 -28 -14 -52t-16 -51h37q6 16 12 38.5t11 47t8 48t3 41.5q0 14 -3 17
q-5 5 -17 7.5t-26 2.5t-25.5 -2.5t-16.5 -7.5t-7.5 -17t-2.5 -26t2.5 -26t7.5 -17t17 -5q6 0 14 0.5t16 1.5z" />
    <glyph glyph-name="dagger" unicode="&#x2020;" horiz-adv-x="242" 
d="M148 667h81v54h-81v81h-54v-81h-81v-54h81v-240h54v240z" />
    <glyph glyph-name="daggerdbl" unicode="&#x2021;" horiz-adv-x="242" 
d="M94 451h54v81h81v54h-81v81h81v54h-81v81h-54v-81h-81v-54h81v-81h-81v-54h81v-81z" />
    <glyph glyph-name="bullet" unicode="&#x2022;" horiz-adv-x="199" 
d="M35 337q8 -8 26 -12t39 -4q20 0 38 4t26 12t11.5 26t3.5 38t-3.5 38t-11.5 26t-26 12t-38 4q-21 0 -39 -4t-26 -12t-11.5 -26t-3.5 -38t3.5 -38t11.5 -26z" />
    <glyph glyph-name="ellipsis" unicode="&#x2026;" horiz-adv-x="414" 
d="M30 3q5 -5 17 -7.5t26 -2.5t26 2.5t17 7.5t7.5 17t2.5 26t-2.5 26t-7.5 17t-17 7.5t-26 2.5t-26 -2.5t-17 -7.5t-7.5 -17t-2.5 -26t2.5 -26t7.5 -17zM164 3q5 -5 17 -7.5t26 -2.5t26 2.5t17 7.5t7.5 17t2.5 26t-2.5 26t-7.5 17t-17 7.5t-26 2.5t-26 -2.5t-17 -7.5
t-7.5 -17t-2.5 -26t2.5 -26t7.5 -17zM298 3q5 -5 17 -7.5t26 -2.5t26 2.5t17 7.5t7.5 17t2.5 26t-2.5 26t-7.5 17t-17 7.5t-26 2.5t-26 -2.5t-17 -7.5t-7.5 -17t-2.5 -26t2.5 -26t7.5 -17z" />
    <glyph glyph-name="perthousand" unicode="&#x2030;" horiz-adv-x="1029" 
d="M169 802q-30 0 -55.5 -4t-44.5 -15t-31 -29.5t-14 -47.5q-2 -20 -3 -36.5t-1 -33.5t1 -33.5t3 -36.5q2 -29 14 -47.5t31 -29.5t44.5 -15t55.5 -4t55.5 4t44.5 15t31 29.5t14 47.5q2 20 3 36.5t1 33.5t-1 33.5t-3 36.5q-2 29 -14 47.5t-31 29.5t-44.5 15t-55.5 4zM169 748
q45 0 62.5 -17t19.5 -47q1 -14 1.5 -25.5t0.5 -22.5t-0.5 -22t-1.5 -26q-2 -30 -19.5 -47t-62.5 -17t-62.5 17t-19.5 47q-1 15 -1.5 26t-0.5 22t0.5 22.5t1.5 25.5q2 30 19.5 47t62.5 17zM76 0h75l481 802h-75zM514 332q-30 0 -55.5 -4t-44.5 -15t-31 -29.5t-14 -47.5
q-2 -20 -3 -36.5t-1 -33.5t1 -33.5t3 -36.5q2 -29 14 -47.5t31 -29.5t44.5 -15t55.5 -4t55.5 4t44.5 15t31 29.5t14 47.5q2 20 3 36.5t1 33.5t-1 33.5t-3 36.5q-2 29 -14 47.5t-31 29.5t-44.5 15t-55.5 4zM514 278q45 0 62.5 -17t19.5 -47q1 -14 1.5 -25.5t0.5 -22.5
t-0.5 -22t-1.5 -26q-2 -30 -19.5 -47t-62.5 -17t-62.5 17t-19.5 47q-1 15 -1.5 26t-0.5 22t0.5 22.5t1.5 25.5q2 30 19.5 47t62.5 17zM860 332q-30 0 -55.5 -4t-44.5 -15t-31 -29.5t-14 -47.5q-2 -20 -3 -36.5t-1 -33.5t1 -33.5t3 -36.5q2 -29 14 -47.5t31 -29.5t44.5 -15
t55.5 -4t55.5 4t44.5 15t31 29.5t14 47.5q2 20 3 36.5t1 33.5t-1 33.5t-3 36.5q-2 29 -14 47.5t-31 29.5t-44.5 15t-55.5 4zM860 278q45 0 62.5 -17t19.5 -47q1 -14 1.5 -25.5t0.5 -22.5t-0.5 -22t-1.5 -26q-2 -30 -19.5 -47t-62.5 -17t-62.5 17t-19.5 47q-1 15 -1.5 26
t-0.5 22t0.5 22.5t1.5 25.5q2 30 19.5 47t62.5 17z" />
    <glyph glyph-name="guilsinglleft" unicode="&#x2039;" horiz-adv-x="200" 
d="M180 241v74l-86 86l86 86v74l-160 -160z" />
    <glyph glyph-name="guilsinglright" unicode="&#x203a;" horiz-adv-x="200" 
d="M20 241l160 160l-160 160v-74l86 -86l-86 -86v-74z" />
    <glyph glyph-name="trademark" unicode="&#x2122;" horiz-adv-x="1220" 
d="M234 763v-544h70v544h222v39h-513v-39h221zM642 219v491h2l207 -491h62l188 491h2v-491h70v583h-95l-185 -489h-1l-211 489h-96v-583h57z" />
    <glyph glyph-name="minus" unicode="&#xe000;" horiz-adv-x="362" 
d="M342 374v54h-322v-54h322z" />
    <glyph glyph-name="partialdiff" unicode="&#xe001;" horiz-adv-x="1030" 
d="M20 752h80v-552h68v602h-148v-50zM119 0h63l482 802h-63zM645 469q0 24 6.5 42t23 31t44 19.5t70.5 6.5t69 -8t40 -23t18.5 -36.5t4.5 -48.5q0 -41 -10.5 -63.5t-28 -34t-40.5 -14t-48 -2.5h-79v-49h79q26 0 52.5 -3t47.5 -16.5t34.5 -40.5t13.5 -75q0 -45 -14 -71
t-35.5 -38.5t-48.5 -15.5t-53 -3q-50 0 -80 10.5t-46.5 28.5t-22 43t-5.5 54h-68q0 -20 3.5 -49.5t24.5 -58t66 -48.5t128 -20q64 0 106 11t67 32t35.5 51t10.5 68q0 82 -38.5 119.5t-112.5 45.5q60 8 95 40t35 99q0 33 -8.5 61.5t-31 49.5t-61.5 33t-99 12q-55 0 -92 -9.5
t-60 -24t-34.5 -33.5t-16.5 -37.5t-5 -35.5v-29h64v30z" />
    <glyph glyph-name="summation" unicode="&#xe002;" horiz-adv-x="926" 
d="M20 752h80v-552h68v602h-148v-50zM119 0h63l482 802h-63zM412 221v-57h344v-164h64v164h86v44h-86v394h-82zM756 208h-282l282 334v-334z" />
    <glyph glyph-name="product" unicode="&#xe003;" horiz-adv-x="1314" 
d="M92 641q0 11 2 33.5t14.5 45t40.5 39.5t81 17t81.5 -11.5t42 -30t16 -43t2.5 -50.5q0 -50 -7 -77.5t-29.5 -46.5t-63.5 -36t-109 -47q-43 -20 -71 -41t-44 -45.5t-22 -52.5t-6 -61v-30h421v44h-349q0 18 1 37.5t9.5 39t26.5 38.5t51 34q70 32 119.5 51t81 41t46 56
t14.5 96q0 36 -9 67.5t-32.5 55.5t-64.5 38t-105 14q-53 0 -88.5 -11t-59 -28t-36 -37.5t-18.5 -40t-7 -35.5t-1 -23h72zM403 0h63l482 802h-63zM929 469q0 24 6.5 42t23 31t44 19.5t70.5 6.5t69 -8t40 -23t18.5 -36.5t4.5 -48.5q0 -41 -10.5 -63.5t-28 -34t-40.5 -14
t-48 -2.5h-79v-49h79q26 0 52.5 -3t47.5 -16.5t34.5 -40.5t13.5 -75q0 -45 -14 -71t-35.5 -38.5t-48.5 -15.5t-53 -3q-50 0 -80 10.5t-46.5 28.5t-22 43t-5.5 54h-68q0 -20 3.5 -49.5t24.5 -58t66 -48.5t128 -20q64 0 106 11t67 32t35.5 51t10.5 68q0 82 -38.5 119.5
t-112.5 45.5q60 8 95 40t35 99q0 33 -8.5 61.5t-31 49.5t-61.5 33t-99 12q-55 0 -92 -9.5t-60 -24t-34.5 -33.5t-16.5 -37.5t-5 -35.5v-29h64v30z" />
    <glyph glyph-name="pi" unicode="&#xe004;" horiz-adv-x="1181" 
d="M96 676q0 24 6.5 42.5t22.5 31.5t44 19.5t71 6.5q42 0 68 -8t40 -23t18.5 -36.5t4.5 -48.5q0 -41 -10.5 -64t-27.5 -34.5t-40.5 -14t-48.5 -2.5h-78v-49h78q26 0 52.5 -3t47.5 -16t34.5 -40t13.5 -75q0 -45 -13.5 -71t-35 -38.5t-48.5 -15.5t-53 -3q-50 0 -80 10
t-46.5 28t-22 43t-5.5 55h-68q0 -13 1 -31.5t7 -38t19.5 -38.5t38 -34t63 -24.5t93.5 -9.5q63 0 105 11t67 32t35.5 51t10.5 68q0 82 -37.5 119t-112.5 45q60 9 95 41t35 99q0 32 -9 60.5t-31.5 49.5t-61 33.5t-98.5 12.5q-55 0 -92 -9.5t-60 -24t-34.5 -33.5t-16.5 -37.5
t-5 -36.5v-29h64v30zM374 0h63l482 802h-63zM667 221v-57h344v-164h64v164h86v44h-86v394h-82zM1011 208h-282l282 334v-334z" />
    <glyph glyph-name="integral" unicode="&#xe005;" horiz-adv-x="896" 
d="M47 802v-802h802v802h-802zM79 770h738v-738h-738v738z" />
    <glyph glyph-name="radical" unicode="&#xe006;" horiz-adv-x="960" 
d="M13 462v-166l296 -296l638 638v164l-638 -638z" />
    <glyph glyph-name="approxequal" unicode="&#xe007;" horiz-adv-x="854" 
d="M508 482v-162h-160v162h160zM267 561h-80q-33 0 -56.5 23.5t-23.5 57.5q0 16 6.5 30.5t17 25.5t25 17.5t31.5 6.5q16 0 31 -6.5t25.5 -17.5t17 -25.5t6.5 -30.5v-81zM267 482v-162h-80q-33 0 -62.5 -12.5t-51 -34.5t-34.5 -51t-13 -62t13 -62t34.5 -51t51 -34.5
t62.5 -12.5t62.5 12.5t51 34.5t34.5 51t13 62v81h160v-81q0 -33 12.5 -62t34 -50.5t51 -34.5t62.5 -13t62 13t51 34.5t34.5 50.5t12.5 62t-12.5 62t-34.5 51t-51 34.5t-62 12.5h-79v162h79q33 0 62 12.5t51 34.5t34.5 51t12.5 62t-12.5 62t-34.5 51t-51 34.5t-62 12.5
t-62 -12.5t-51 -34.5t-34.5 -51t-12.5 -62v-81h-160v81q0 33 -13 62t-34.5 51t-51 34.5t-62.5 12.5t-62.5 -12.5t-51 -34.5t-34.5 -51t-13 -62t13 -62t34.5 -51t51 -34.5t62.5 -12.5h80zM267 241v-81q0 -32 -23.5 -55.5t-56.5 -23.5t-56.5 23.5t-23.5 55.5q0 34 23.5 57.5
t56.5 23.5h80zM589 241h79q34 0 57.5 -23.5t23.5 -57.5q0 -16 -6.5 -30.5t-17.5 -25t-25.5 -17t-31.5 -6.5q-32 0 -55.5 23.5t-23.5 55.5v81zM589 561v81q0 16 6.5 30.5t17 25.5t25 17.5t30.5 6.5q17 0 31.5 -6.5t25.5 -17.5t17.5 -25.5t6.5 -30.5q0 -34 -23.5 -57.5
t-57.5 -23.5h-79z" />
    <glyph glyph-name="Delta" unicode="&#xe008;" horiz-adv-x="1002" 
d="M20 752h80v-552h68v602h-148v-50zM119 0h63l482 802h-63zM633 437q0 11 2 33.5t14.5 45t40.5 39.5t81 17t82 -11.5t42.5 -30t16 -43t2.5 -50.5q0 -50 -7.5 -77.5t-30 -46.5t-63.5 -36t-109 -47q-43 -20 -71 -41t-44 -45.5t-22 -52.5t-6 -61v-30h421v44h-349q0 18 1 37.5
t9.5 39t26.5 38.5t52 34q70 32 119 51t80.5 41t46 56t14.5 96q0 36 -9 67.5t-32.5 55.5t-64.5 38t-105 14q-53 0 -88.5 -11t-59 -28t-36 -37.5t-18.5 -40t-7 -35.5t-1 -23h72z" />
    <glyph glyph-name="nonbreakingspace" unicode="&#xe009;" horiz-adv-x="313" 
 />
    <glyph glyph-name="lozenge" unicode="&#xe00a;" horiz-adv-x="829" 
d="M414 0l402 401l-402 401l-401 -401zM80 401l334 334l335 -334l-335 -334z" />
    </font>
</defs>
</svg>
