<?xml version="1.0" standalone="no"?>
<!DOCTYPE svg PUBLIC "-//W3C//DTD SVG 1.1//EN" "http://www.w3.org/Graphics/SVG/1.1/DTD/svg11.dtd" >
<svg xmlns="http://www.w3.org/2000/svg" xmlns:xlink="http://www.w3.org/1999/xlink" version="1.1">
<metadata>
Created by FontForge 20170731 at Sat Nov 27 09:46:52 2004
 By Aleksey,,,
4.1 (c)1986-92 by Richard A. Ware. All Rights Reserved.
</metadata>
<defs>
<font id="RitzFLFCond" horiz-adv-x="231" >
  <font-face 
    font-family="RitzFLFCond"
    font-weight="500"
    font-stretch="normal"
    units-per-em="1000"
    panose-1="2 0 6 6 6 0 0 2 0 4"
    ascent="800"
    descent="-200"
    x-height="580"
    cap-height="700"
    bbox="-24 -172 874 854"
    underline-thickness="20"
    underline-position="-163"
    unicode-range="U+0005-E00D"
  />
<missing-glyph horiz-adv-x="500" 
 />
    <glyph glyph-name=".notdef" horiz-adv-x="500" 
 />
    <glyph glyph-name=".null" horiz-adv-x="0" 
 />
    <glyph glyph-name="nonmarkingreturn" unicode="&#xe002;" horiz-adv-x="0" 
 />
    <glyph glyph-name="breve" horiz-adv-x="210" 
d="M28 691q0 -4 2 -10q11 -31 33 -46t46 -15q23 0 44.5 14.5t33.5 43.5q3 7 3 12q0 8 -3.5 11.5t-8.5 3.5q-6 0 -9 -6q-11 -26 -27 -39t-33 -13t-31.5 12t-25.5 35q-6 12 -13 12q-11 0 -11 -15z" />
    <glyph glyph-name="dotaccent" horiz-adv-x="190" 
d="M165 684q0 34 -17.5 59.5t-49.5 25.5q-16 0 -29 -7t-22 -19t-13.5 -27.5t-4.5 -31.5q0 -34 18.5 -59.5t50.5 -25.5t49.5 26t17.5 59z" />
    <glyph glyph-name="ring" horiz-adv-x="215" 
d="M188 693q0 33 -23.5 56.5t-56.5 23.5t-56.5 -23.5t-23.5 -56.5t23.5 -56.5t56.5 -23.5t56.5 23.5t23.5 56.5zM48 693q0 25 17.5 42.5t42.5 17.5t42.5 -17.5t17.5 -42.5t-17.5 -42.5t-42.5 -17.5t-42.5 17.5t-17.5 42.5z" />
    <glyph glyph-name="hungarumlaut" unicode="&#xa;" horiz-adv-x="255" 
d="M66 600q3 0 6 1.5t3 6.5q3 22 10 37t15 28q10 14 18 26t8 26q0 24 -14.5 36t-28.5 12q-12 0 -20.5 -5t-14 -12t-8 -15.5t-2.5 -15.5q0 -10 3.5 -20t7.5 -21q3 -10 6 -22t3 -26v-12q0 -5 -1 -8t-1 -7q0 -9 10 -9zM181 600q3 0 6 1.5t3 6.5q3 22 10 37t15 28q10 14 18 26
t8 26q0 24 -14.5 36t-28.5 12q-12 0 -20.5 -5t-14 -12t-8 -15.5t-2.5 -15.5q0 -10 3.5 -20t7.5 -21q3 -10 6 -22t3 -26v-12q0 -5 -1 -8t-1 -7q0 -9 10 -9z" />
    <glyph glyph-name="ogonek" horiz-adv-x="140" 
d="M102 -172v169h-16q-1 0 -8.5 -2.5t-16.5 -11t-16 -23.5t-7 -39q0 -33 16 -58t48 -35z" />
    <glyph glyph-name="caron" horiz-adv-x="270" 
d="M158 671l-50 109h-82l72 -152h81l67 152h-21l-49 -109h-18z" />
    <glyph glyph-name="dotlessi" unicode="&#xd;" horiz-adv-x="195" 
d="M30 580v-580h137v580h-137z" />
    <glyph glyph-name="fraction" horiz-adv-x="325" 
d="M316 691q2 8 2 10q0 14 -13 14q-9 0 -13 -11l-276 -708q-2 -6 -2 -9q0 -6 3.5 -9.5t8.5 -3.5q10 0 14 11z" />
    <glyph glyph-name="fi" horiz-adv-x="452" 
d="M396 678q0 32 -20.5 45t-46.5 13t-47.5 -13.5t-21.5 -44.5q0 -32 21.5 -45t47.5 -13t46.5 12.5t20.5 45.5zM185 560h77v-560h137v580h-214v48q0 28 5.5 39.5t16.5 11.5q10 0 19 -15q5 -8 11 -8t6 7q0 8 -7 16q-9 11 -27.5 19t-53.5 8q-48 0 -76.5 -34t-28.5 -92h-39v-20
h39v-560h135v560z" />
    <glyph glyph-name="fl" horiz-adv-x="246" 
d="M185 580v48q0 28 5.5 39.5t16.5 11.5q10 0 19 -15q5 -8 11 -8t6 7q0 8 -7 16q-9 11 -27.5 19t-53.5 8q-48 0 -76.5 -34t-28.5 -92h-39v-20h39v-560h135v560h43v20h-43zM246 700v-700h135v700h-135z" />
    <glyph glyph-name="Lslash" horiz-adv-x="427" 
d="M30 239l-47 -47v-48l47 47v-191h366q14 0 14 13q0 12 -14 12h-174v343l70 70v48l-70 -70v284h-192v-461z" />
    <glyph glyph-name="lslash" horiz-adv-x="195" 
d="M29 237l-39 -39v-48l39 39v-189h135v314l41 41v48l-41 -41v338h-135v-463z" />
    <glyph glyph-name="Zcaron" horiz-adv-x="417" 
d="M400 700h-374q-14 0 -14 -13q0 -5 3.5 -8.5t10.5 -3.5h172l-182 -675h370q6 0 9.5 3.5t3.5 8.5q0 13 -13 13h-173zM327 820h-69l-46 -69h-16l-47 69h-19l67 -100h58z" />
    <glyph glyph-name="zcaron" horiz-adv-x="348" 
d="M334 580h-306v-22h146l-164 -558h319v22h-161zM213 671l-50 109h-82l72 -152h81l67 152h-21l-49 -109h-18z" />
    <glyph glyph-name="space" unicode=" " horiz-adv-x="240" 
 />
    <glyph glyph-name="exclam" unicode="!" horiz-adv-x="228" 
d="M193 592q0 51 -22 84.5t-56 33.5q-35 0 -57 -33.5t-22 -84.5q0 -29 8.5 -60.5t20.5 -67.5q13 -42 26 -90t13 -104q0 -17 11 -17q10 0 10 17q0 56 13 104.5t26 89.5q13 38 21 69t8 59zM183 78q0 34 -19.5 59.5t-48.5 25.5q-30 0 -49.5 -25.5t-19.5 -59.5t19.5 -59.5
t49.5 -25.5q29 0 48.5 25.5t19.5 59.5z" />
    <glyph glyph-name="quotedbl" unicode="&#x22;" horiz-adv-x="216" 
d="M97 641q0 23 -9.5 42t-23.5 19t-23.5 -19t-9.5 -42q0 -15 4 -29.5t9 -30.5q6 -17 10 -37.5t4 -48.5q0 -10 6 -10t6 10q0 28 5 48t10 38q5 16 8.5 30.5t3.5 29.5zM188 641q0 23 -9 42t-24 19q-14 0 -23.5 -19t-9.5 -42q0 -15 4 -29.5t9 -30.5q5 -18 9.5 -38t4.5 -48
q0 -10 6 -10t6 10q0 28 5 48t10 38q5 16 8.5 30.5t3.5 29.5z" />
    <glyph glyph-name="numbersign" unicode="#" horiz-adv-x="447" 
d="M197 508l18 123h-60l-18 -123h-77l-4 -24h77l-16 -112h-77l-4 -24h77l-18 -124h60l18 124h82l-18 -124h60l18 124h78l4 24h-78l16 112h79l3 24h-78l18 123h-60l-18 -123h-82zM177 372l16 112h82l-16 -112h-82z" />
    <glyph glyph-name="dollar" unicode="$" horiz-adv-x="360" 
d="M164 19q-14 0 -27.5 6t-27.5 14l41 204q29 -37 47 -77.5t18 -78.5q0 -37 -16.5 -52.5t-34.5 -15.5zM338 190q0 48 -10.5 87.5t-29 75.5t-43.5 71.5t-53 74.5l36 176q17 -8 32 -21t31 -34q5 -8 10 -8q3 0 4 3t1 5q0 4 -3 12q-14 25 -35 40.5t-36 22.5l6 32q0 2 0.5 3.5
t0.5 3.5q0 12 -8 12q-4 0 -6 -3.5t-3 -8.5l-6 -33q-5 2 -13 3.5t-19 1.5q-42 0 -72.5 -15t-50 -41t-29 -63t-9.5 -80q0 -46 8 -79t22 -60.5t33 -52.5t41 -55l-43 -210q-11 10 -26 27.5t-26 45.5q-3 7 -7 7q-7 0 -7 -9q0 -3 1 -6.5t2 -5.5q14 -32 27.5 -49.5t30.5 -32.5
l-10 -53q-2 -8 -2 -13q0 -11 7 -11t9 10l11 57q13 -7 23 -11.5t19.5 -7t20 -3.5t24.5 -1q69 0 108 52.5t39 143.5zM189 519q-18 26 -31 57.5t-13 57.5q0 29 17 40t34 11t26 -3z" />
    <glyph glyph-name="percent" unicode="%" horiz-adv-x="345" 
d="M102 402q30 0 52.5 31t22.5 97q0 64 -22 94.5t-53 30.5q-32 0 -53 -34.5t-21 -90.5q0 -27 6 -50.5t16 -41t23.5 -27t28.5 -9.5zM104 634q0 6 3 6q20 0 38 -28t18 -82q0 -59 -18 -86t-38 -27q-3 0 -3 7v210zM280 658q2 6 2 10q0 7 -7 7q-6 0 -9 -8l-203 -653q-2 -6 -2 -11
q0 -9 8 -9q5 0 7 6zM240 19q30 0 52.5 31t22.5 97q0 64 -22 94.5t-53 30.5q-32 0 -53 -34.5t-21 -90.5q0 -27 6 -50.5t16 -41t23.5 -27t28.5 -9.5zM242 251q0 6 3 6q20 0 38 -28t18 -82q0 -59 -18 -86t-38 -27q-3 0 -3 7v210z" />
    <glyph glyph-name="ampersand" unicode="&#x26;" horiz-adv-x="466" 
d="M320 564q0 31 -8.5 57.5t-23 46t-34 31t-42.5 11.5q-25 0 -51 -9t-47 -30t-34.5 -56.5t-13.5 -88.5q0 -23 4 -48t10 -48.5t13.5 -44t13.5 -35.5q-34 -23 -60 -67t-26 -110q0 -81 33 -131t90 -50q17 0 33.5 5.5t31 14t26.5 19t20 20.5l28 -51h159q-10 19 -22 41t-24 44.5
t-23.5 44t-20.5 39.5q19 38 39.5 61.5t50.5 23.5q13 0 13 13t-10 13q-38 0 -60 -24t-44 -65q-13 22 -28 51.5t-30 60.5t-28 59.5t-21 48.5q14 8 29.5 21.5t28 32.5t20.5 44t8 55zM298 564q0 -43 -20 -79.5t-52 -53.5q-24 54 -40.5 118t-22.5 127q11 7 24 10.5t23 3.5
q21 0 37 -10.5t27.5 -28t17.5 -40t6 -47.5zM144 20q-26 0 -44.5 12t-30.5 33t-18 49t-6 59q0 58 21 96.5t50 59.5q11 -27 26 -61t32.5 -69t35.5 -68.5t34 -58.5q-20 -21 -40.5 -36.5t-59.5 -15.5z" />
    <glyph glyph-name="quotesingle" unicode="'" horiz-adv-x="123" 
d="M97 641q0 23 -9.5 42t-23.5 19t-23.5 -19t-9.5 -42q0 -15 4 -29.5t9 -30.5q5 -18 9.5 -38t4.5 -48q0 -10 6 -10t6 10q0 28 5 48t10 38q5 16 8.5 30.5t3.5 29.5z" />
    <glyph glyph-name="parenleft" unicode="(" horiz-adv-x="186" 
d="M163 -36q-26 0 -34 36t-8 109v466q0 73 8 109t34 36q11 0 11 11q0 9 -11 9q-27 0 -51 -16t-42 -47t-28.5 -76.5t-10.5 -103.5v-306q0 -58 10.5 -104t28.5 -77.5t42 -48.5t51 -17q10 0 10 10t-10 10z" />
    <glyph glyph-name="parenright" unicode=")" horiz-adv-x="186" 
d="M24 720q26 0 34 -36t8 -109v-466q0 -73 -8 -109t-34 -36q-10 0 -10 -10t11 -10q26 0 50 16t42 47t29 76.5t11 103.5v306q0 58 -11 104t-29 77.5t-42 48.5t-50 17q-12 0 -12 -10t11 -10z" />
    <glyph glyph-name="asterisk" unicode="*" horiz-adv-x="204" 
d="M24 644q0 -5 4.5 -11t10.5 -12q11 -11 25 -19t32 -19q-14 -8 -33 -18.5t-31 -22.5q-11 -11 -11 -19t4.5 -12t10.5 -4q5 0 10.5 3t10.5 8q13 13 23 26t21 29q-3 -23 -8 -45t-5 -51q0 -14 4.5 -18.5t11.5 -4.5t11.5 4t4.5 19q0 29 -5.5 51t-7.5 45q12 -17 21 -29.5
t22 -25.5q10 -10 19 -10q7 0 11 4.5t4 8.5q0 5 -4 10.5t-10 11.5q-15 14 -30 23t-29 17q13 8 32 19t26 19q6 7 10.5 13t4.5 11t-4 10t-10 5q-10 0 -20 -10q-14 -14 -22.5 -26.5t-20.5 -30.5q2 23 7.5 41.5t5.5 47.5q0 16 -5 20.5t-11 4.5q-7 0 -11.5 -4.5t-4.5 -20.5
q0 -29 5 -47.5t8 -41.5q-12 17 -21 30.5t-23 27.5q-8 8 -18 8q-8 0 -11.5 -5.5t-3.5 -9.5z" />
    <glyph glyph-name="plus" unicode="+" horiz-adv-x="390" 
d="M245 511h-90v-178h-93q-14 0 -14 -13t14 -13h93v-175h90v176h94q6 0 9 3.5t3 8.5q0 13 -12 13h-94v178z" />
    <glyph glyph-name="comma" unicode="," horiz-adv-x="225" 
d="M192 44q0 43 -19.5 67.5t-55.5 24.5q-32 0 -50.5 -19t-18.5 -51q0 -34 20 -52t49 -18q30 0 45 20q-1 -13 -7 -33t-21 -31q-16 -12 -31.5 -16t-32.5 -4v-24q19 0 41 7t39 21q21 17 31.5 48.5t10.5 59.5z" />
    <glyph glyph-name="hyphen" unicode="-" horiz-adv-x="270" 
d="M237 310v25h-198v-25h198z" />
    <glyph glyph-name="period" unicode="." horiz-adv-x="220" 
d="M182 79q0 34 -17.5 59.5t-49.5 25.5q-16 0 -29 -7t-22 -19t-13.5 -27.5t-4.5 -31.5q0 -34 18.5 -59.5t50.5 -25.5t49.5 26t17.5 59z" />
    <glyph glyph-name="slash" unicode="/" horiz-adv-x="186" 
d="M167 696q1 5 1 6v4q0 9 -9 9t-11 -11l-132 -711q-2 -10 -2 -13q0 -10 10 -10q6 0 8 4t4 11z" />
    <glyph glyph-name="zero" unicode="0" horiz-adv-x="530" 
d="M263 -14q60 0 106 28.5t77.5 78t48 115t16.5 140.5t-16.5 140.5t-48 115t-77.5 78t-106 28.5q-58 0 -102 -31t-74 -82t-45 -116t-15 -133t14 -133t43.5 -116t74 -82t104.5 -31zM263 26v641q0 11 5 14t12 3q45 0 83 -25t65.5 -70t42.5 -106.5t15 -134.5t-15 -134.5
t-42 -106.5t-65 -70t-84 -25q-5 0 -11 2t-6 12z" />
    <glyph glyph-name="one" unicode="1" horiz-adv-x="267" 
d="M87 624v-624h138v706l-207 -85q-13 -6 -13 -14q0 -9 10 -9q1 0 9 2z" />
    <glyph glyph-name="two" unicode="2" horiz-adv-x="384" 
d="M344 30h-149q20 48 48 114.5t60 154.5q14 39 24.5 68t17.5 55t10.5 52.5t3.5 60.5q0 85 -39 125t-108 40q-40 0 -73.5 -16t-57.5 -44.5t-37 -68t-13 -85.5q0 -22 2.5 -37.5t5.5 -29.5t13 -14q13 0 13 12q0 5 -1 9l-2 8q-2 8 -4 20t-2 32q0 42 12.5 77t33.5 60t48.5 38.5
t57.5 13.5q29 0 29 -45q0 -30 -12.5 -84t-40.5 -132q-22 -61 -46 -121t-46.5 -114t-42.5 -100t-34 -79h328q11 0 15 3.5t4 11.5q0 7 -3.5 11t-14.5 4z" />
    <glyph glyph-name="three" unicode="3" horiz-adv-x="354" 
d="M35 575q7 0 12 9q7 19 19 37.5t27 32.5t32 22.5t34 8.5q9 0 9 -9v-281h-51q-20 0 -20 -16q0 -15 19 -15h52v-341q0 -9 -4 -11t-12 -2q-38 0 -72 34t-48 85q-3 10 -11 10q-7 0 -9.5 -4t-2.5 -9q0 -3 0.5 -5.5t1.5 -5.5q16 -57 56.5 -93.5t100.5 -36.5q33 0 61.5 13
t49.5 39t33 64.5t12 89.5q0 54 -11.5 89.5t-29 57t-38 31t-38.5 11.5q18 3 37.5 12t36 27.5t27 48t10.5 73.5q0 42 -12.5 74t-32.5 53t-45.5 31.5t-50.5 10.5q-56 0 -95.5 -32t-56.5 -82q-1 -3 -1 -8q0 -8 3.5 -10.5t7.5 -2.5z" />
    <glyph glyph-name="four" unicode="4" horiz-adv-x="403" 
d="M337 145v575l-312 -550q-3 -6 -5.5 -13t-2.5 -15q0 -15 7 -21t18 -6h103v-115h192v120h43q14 0 14 12q0 13 -14 13h-43zM145 336v-196h-91q-12 0 -12 8q0 3 0.5 6t4.5 10z" />
    <glyph glyph-name="five" unicode="5" horiz-adv-x="418" 
d="M214 583q-35 0 -59 -14.5t-38 -28.5l26 130h161q18 0 18 15t-18 15h-184l-31 -158q-2 -9 -2 -16v-11q0 -19 13 -19q9 0 18 10q15 17 39.5 35t54.5 18v-527q0 -13 -16 -13q-34 0 -62 17t-48.5 48.5t-32 76t-11.5 98.5q0 27 5 51.5t13 41.5q1 2 2 5t1 6q0 13 -12 13
q-8 0 -12 -9q-8 -16 -15 -44.5t-7 -63.5q0 -60 13.5 -108.5t39 -83.5t62 -54t82.5 -19q47 0 82.5 25.5t59 66.5t35 94t11.5 108t-12 108t-35.5 94.5t-59 67t-81.5 25.5z" />
    <glyph glyph-name="six" unicode="6" horiz-adv-x="460" 
d="M423 553q0 5 -2 11q-12 28 -27 52t-36.5 42t-49.5 28.5t-65 10.5q-54 0 -94.5 -31.5t-67.5 -82t-40.5 -114t-13.5 -126.5q0 -69 13.5 -133t40 -113t66 -78t91.5 -29q43 0 80.5 17.5t65.5 51t44 83t16 113.5q0 46 -9.5 78.5t-26 52.5t-37.5 29t-44 9q-20 0 -36.5 -5.5
t-30.5 -12.5q-11 -5 -11 -15q0 -6 3.5 -8.5t6.5 -2.5q4 0 12 4q9 5 23 10t33 5q40 0 66 -32.5t26 -111.5q0 -57 -13.5 -102t-36.5 -75.5t-52.5 -46.5t-62.5 -16q-21 0 -21 15v629q0 13 20 13q29 0 51.5 -9t40 -25.5t30.5 -38.5t24 -48q3 -10 13 -10q11 0 11 12z" />
    <glyph glyph-name="seven" unicode="7" horiz-adv-x="420" 
d="M36 700q-14 0 -14 -20q0 -19 15 -19q5 0 12 2t16 5q19 7 39 7h164l-204 -675h210l132 700h-370z" />
    <glyph glyph-name="eight" unicode="8" horiz-adv-x="390" 
d="M351 555q0 41 -14.5 70.5t-37 48t-50 27.5t-53.5 9q-30 0 -60 -9.5t-54 -32t-39 -60.5t-15 -96q0 -55 17 -102.5t38 -73.5q-9 -8 -19.5 -19.5t-20.5 -29t-16.5 -41.5t-6.5 -57q0 -52 15.5 -89.5t40 -62t55.5 -36t62 -11.5q36 0 69 11.5t58 37.5t40 67.5t15 101.5
q0 42 -7.5 75t-19.5 58t-26 43t-26 30q20 14 37.5 46.5t17.5 94.5zM278 431q-24 21 -44.5 39.5t-49.5 41.5q-13 10 -27 22t-26 25.5t-19.5 29t-7.5 33.5q0 29 22.5 46t70.5 17q23 0 46 -7.5t41.5 -23.5t30 -40.5t11.5 -58.5q0 -38 -8 -66.5t-40 -57.5zM193 15
q-26 0 -52.5 11t-47.5 32.5t-34.5 54t-13.5 76.5q0 48 15.5 77.5t37.5 47.5q18 -21 40 -43t51 -47q17 -15 36.5 -31.5t36 -34.5t27 -38.5t10.5 -43.5q0 -17 -10.5 -28.5t-26 -18.5t-34.5 -10.5t-35 -3.5z" />
    <glyph glyph-name="nine" unicode="9" horiz-adv-x="456" 
d="M45 138q12 -27 27.5 -53t37.5 -46.5t51.5 -33t68.5 -12.5q52 0 90.5 30.5t64 80.5t38.5 114t13 130q0 67 -13 131t-38.5 114t-64.5 80.5t-90 30.5q-47 0 -85.5 -17t-67 -50t-44 -82.5t-15.5 -115.5q0 -47 10.5 -78.5t26.5 -50.5t36 -27.5t38 -8.5q21 0 39.5 4.5
t34.5 12.5q8 3 8 11q0 7 -3.5 9t-6.5 2t-8 -2q-12 -5 -28 -8.5t-36 -3.5q-15 0 -30.5 6.5t-27.5 22t-20 42.5t-8 69q0 62 13.5 107t36 74.5t50.5 43.5t58 14q15 0 21 -3.5t6 -11.5v-627q0 -17 -22 -17q-23 0 -43.5 11t-38.5 29.5t-32.5 43t-25.5 50.5q-3 8 -12 8
q-5 0 -8 -3.5t-3 -8.5t2 -11z" />
    <glyph glyph-name="colon" unicode=":" horiz-adv-x="235" 
d="M189 79q0 34 -17.5 59.5t-49.5 25.5q-16 0 -29 -7t-22 -19t-13.5 -27.5t-4.5 -31.5q0 -34 18.5 -59.5t50.5 -25.5t49.5 26t17.5 59zM189 399q0 34 -17.5 59.5t-49.5 25.5q-16 0 -29 -7t-22 -19t-13.5 -27.5t-4.5 -31.5q0 -34 18.5 -59.5t50.5 -25.5t49.5 26t17.5 59z" />
    <glyph glyph-name="semicolon" unicode=";" horiz-adv-x="240" 
d="M200 44q0 43 -19.5 67.5t-55.5 24.5q-32 0 -50.5 -19t-18.5 -51q0 -34 20 -52t49 -18q30 0 45 20q-1 -13 -7 -33t-21 -31q-16 -12 -31.5 -16t-32.5 -4v-24q19 0 41 7t39 21q21 17 31.5 48.5t10.5 59.5zM193 399q0 34 -17.5 59.5t-49.5 25.5q-16 0 -29 -7t-22 -19
t-13.5 -27.5t-4.5 -31.5q0 -34 18.5 -59.5t50.5 -25.5t49.5 26t17.5 59z" />
    <glyph glyph-name="less" unicode="&#x3c;" horiz-adv-x="360" 
d="M155 259l160 159v168l-271 -270l271 -268v49z" />
    <glyph glyph-name="equal" unicode="=" horiz-adv-x="273" 
d="M241 370v25h-198v-25h198zM241 255v25h-198v-25h198z" />
    <glyph glyph-name="greater" unicode="&#x3e;" horiz-adv-x="360" 
d="M206 397l-160 -159v-168l271 270l-271 268v-49z" />
    <glyph glyph-name="question" unicode="?" horiz-adv-x="334" 
d="M43 582q17 50 48 78.5t73 28.5v-421q0 -18 10 -18t10 18v92q61 0 95.5 46.5t34.5 128.5q0 43 -11 75.5t-30.5 54.5t-45 33.5t-54.5 11.5q-53 0 -89.5 -31t-53.5 -81q-2 -6 -2 -12q0 -10 8 -10q5 0 7 6zM240 79q0 34 -17.5 59.5t-49.5 25.5q-16 0 -29 -7t-22 -19
t-13.5 -27.5t-4.5 -31.5q0 -34 18.5 -59.5t50.5 -25.5t49.5 26t17.5 59z" />
    <glyph glyph-name="at" unicode="@" horiz-adv-x="584" 
d="M179 385q0 21 7.5 41.5t22 36t36 25t48.5 9.5q22 0 39.5 -8.5t29.5 -22t18 -31.5t6 -37q0 -21 -6.5 -42.5t-20.5 -38.5t-35.5 -27.5t-50.5 -10.5q-50 0 -72 31.5t-22 74.5zM57 399q0 44 17 86t48.5 75t76 53t100.5 20t100.5 -19t76 -50.5t48.5 -71t17 -81.5q0 -20 -5 -43
t-15 -43t-26.5 -33t-38.5 -13q-16 0 -25 6.5t-14 16.5t-6.5 23t-1.5 27l13 159h-19l-5 -64q-4 12 -11 24t-19.5 22.5t-30.5 17t-44 6.5q-32 0 -57.5 -11t-42.5 -29.5t-26 -42.5t-9 -49q0 -57 27.5 -92t87.5 -35q31 0 51.5 8.5t34 20t21 24.5t11.5 22q0 -14 3 -27t10 -24
t18.5 -17.5t29.5 -6.5q32 0 53 15t33.5 38t17.5 50t5 50q0 45 -18 88t-52 77.5t-82.5 55.5t-109.5 21t-109.5 -22t-82.5 -57.5t-52 -81t-18 -93.5t16 -94t48.5 -82t81.5 -58t115 -22q30 0 58 5.5t52 14t41.5 19t26.5 21.5l-15 15q-9 -11 -26 -20.5t-38.5 -17.5t-46.5 -12.5
t-50 -4.5q-61 0 -106.5 20.5t-76 53.5t-45.5 75.5t-15 86.5z" />
    <glyph glyph-name="A" unicode="A" horiz-adv-x="459" 
d="M231 715l-219 -700q-1 -3 -1 -8q0 -9 8 -9t11 9l35 111h173l37 -118h172zM150 390l79 -247h-156z" />
    <glyph glyph-name="B" unicode="B" horiz-adv-x="447" 
d="M426 514q0 48 -13 83.5t-34.5 58t-51 33.5t-62.5 11h-235v-700h254q26 0 48.5 11t39.5 33t27 53.5t10 72.5q0 49 -7 81.5t-17 53t-20.5 31.5t-17.5 17q15 3 29 12.5t25.5 28t18 48t6.5 72.5zM384 170q0 -72 -29 -108.5t-77 -36.5h-56v650h43q57 0 96.5 -40t39.5 -121
q0 -78 -22 -110.5t-49 -32.5q-17 0 -29 5t-20 22q-3 7 -11 7q-6 0 -9 -4t-3 -9q0 -4 3 -10q10 -17 27 -24.5t32 -9.5q7 -6 17.5 -16.5t21 -30.5t18 -51.5t7.5 -79.5z" />
    <glyph glyph-name="C" unicode="C" horiz-adv-x="495" 
d="M263 683q67 0 106.5 -37t68.5 -118q4 -11 13 -11q12 0 12 12q0 3 -0.5 5.5t-1.5 5.5q-29 86 -76 127t-122 41q-61 0 -105.5 -31t-74 -81.5t-43.5 -115.5t-14 -132q0 -68 14 -132.5t43.5 -114.5t74 -81t105.5 -31q38 0 69 14.5t55.5 38.5t43.5 56t32 68q1 3 2 6.5t1 6.5
q0 5 -3.5 8t-8.5 3q-8 0 -13 -11q-12 -34 -29.5 -64t-39.5 -52.5t-49 -35.5t-60 -13q-10 0 -17.5 1t-12.5 2v662q5 2 12 3t18 1z" />
    <glyph glyph-name="D" unicode="D" horiz-adv-x="486" 
d="M464 350q0 82 -15.5 147t-43 110t-66.5 69t-86 24h-223v-700h223q47 0 86 24t66.5 69t43 110t15.5 147zM222 25v650h31q42 0 76.5 -24t59 -66.5t37.5 -102.5t13 -132q0 -71 -13.5 -131t-38 -103t-58.5 -67t-76 -24h-31z" />
    <glyph glyph-name="E" unicode="E" horiz-adv-x="438" 
d="M404 688q0 12 -15 12h-359v-700h368q16 0 16 13q0 12 -16 12h-176v482h185q17 0 17 13q0 12 -17 12h-185v143h167q9 0 12 4t3 9z" />
    <glyph glyph-name="F" unicode="F" horiz-adv-x="438" 
d="M403 687q0 13 -15 13h-358v-700h192v507h187q15 0 15 13q0 12 -15 12h-187v143h165q16 0 16 12z" />
    <glyph glyph-name="G" unicode="G" horiz-adv-x="490" 
d="M263 683q67 0 106 -41t62 -116q3 -11 12 -11q12 0 12 13v4q0 3 -2 8q-24 78 -70 123t-120 45q-57 0 -100 -31t-72 -81.5t-44 -115.5t-15 -132q0 -68 14.5 -132.5t44 -114.5t72.5 -81t100 -31q46 0 83.5 26t64.5 72.5t41.5 110.5t14.5 141h-175v-25h149q0 -58 -13 -112
t-36.5 -96t-56.5 -67t-72 -25q-18 0 -28 5v660q8 4 28 4z" />
    <glyph glyph-name="H" unicode="H" horiz-adv-x="453" 
d="M223 494v206h-192v-700h192v469h173v-469h25v700h-25v-206h-173z" />
    <glyph glyph-name="I" unicode="I" horiz-adv-x="252" 
d="M222 0v700h-192v-700h192z" />
    <glyph glyph-name="J" unicode="J" horiz-adv-x="414" 
d="M194 -10q38 0 72 13.5t60 41t41.5 69.5t15.5 100v486h-199v-685q-65 0 -100 40.5t-42 100.5q-3 15 -13 15q-6 0 -9 -4.5t-3 -9.5v-3q4 -32 15 -62t32 -52.5t53 -36t77 -13.5z" />
    <glyph glyph-name="K" unicode="K" horiz-adv-x="453" 
d="M222 549v151h-192v-700h192v521l50 49l139 -563q3 -11 14 -11t11 11q0 3 -1 5l-140 574l105 107q4 4 4 9t-3.5 8.5t-8.5 3.5t-9 -4z" />
    <glyph glyph-name="L" unicode="L" horiz-adv-x="427" 
d="M410 13q0 12 -14 12h-174v675h-192v-700h366q14 0 14 13z" />
    <glyph glyph-name="M" unicode="M" horiz-adv-x="607" 
d="M170 714l-158 -703v-4q0 -11 10 -11q11 0 13 10l79 348l100 -304l117 324l75 -374h192l-154 714l-144 -376z" />
    <glyph glyph-name="N" unicode="N" horiz-adv-x="393" 
d="M340 685v-335l-310 348v-685q0 -16 12 -16q13 0 13 16v326l310 -352v698q0 18 -13 18q-12 0 -12 -18z" />
    <glyph glyph-name="O" unicode="O" horiz-adv-x="530" 
d="M265 -14q53 0 97 30.5t75.5 81.5t49 116t17.5 134q0 77 -18.5 143.5t-51 115t-76 76t-93.5 27.5q-54 0 -99 -27t-77.5 -75.5t-51 -115t-18.5 -144.5q0 -75 17.5 -141t49.5 -115t77.5 -77.5t101.5 -28.5zM233 35v630q0 20 23 20q45 0 85.5 -26t71 -71t48.5 -106.5
t18 -133.5q0 -66 -17.5 -127t-48 -107.5t-71 -74.5t-86.5 -28q-10 0 -16.5 4.5t-6.5 19.5z" />
    <glyph glyph-name="P" unicode="P" horiz-adv-x="438" 
d="M421 472q0 115 -45 171.5t-120 56.5h-226v-700h192v246h42q69 0 113 56t44 170zM222 271v404h30q66 0 105 -49t39 -154q0 -101 -38 -151t-102 -50h-34z" />
    <glyph glyph-name="Q" unicode="Q" horiz-adv-x="530" 
d="M325 198q5 -33 18 -69.5t32 -62.5q-31 -30 -58.5 -42.5t-57.5 -12.5q-12 0 -19 4.5t-7 19.5v630q0 20 23 20q45 0 85.5 -26t71 -71t48.5 -106.5t18 -133.5q0 -77 -23.5 -145t-61.5 -116q-17 30 -28.5 61t-16.5 60q-3 13 -11 13t-11 -5t-3 -10v-2t1 -6zM265 -14
q36 0 68 14t58 40q24 -29 48 -49t52 -32q5 -2 8 -2.5t5 -0.5q10 0 10 11q0 4 -3 6.5t-6 4.5q-29 14 -52.5 35.5t-42.5 47.5q45 53 69.5 129t24.5 158q0 77 -18.5 143.5t-51 115t-76 76t-93.5 27.5q-54 0 -99 -27t-77.5 -75.5t-51 -115t-18.5 -144.5q0 -75 17.5 -141
t49.5 -115t77.5 -77.5t101.5 -28.5z" />
    <glyph glyph-name="R" unicode="R" horiz-adv-x="447" 
d="M429 478q0 61 -14.5 103t-39 68.5t-56.5 38.5t-66 12h-223v-700h180v249q25 -85 72 -150.5t113 -100.5q4 -2 9 -2q6 0 9 3.5t3 8.5q0 7 -7 11q-61 34 -106 98.5t-72 153.5q27 -24 58 -24t56.5 16.5t44 47t29 73t10.5 94.5zM210 320v355h43q28 0 55 -10t48.5 -33.5
t34.5 -61t13 -92.5q0 -47 -9 -85t-24.5 -65t-36.5 -41.5t-45 -14.5q-21 0 -43 15t-36 33z" />
    <glyph glyph-name="S" unicode="S" horiz-adv-x="342" 
d="M305 618q0 6 -4 14q-20 32 -52.5 53t-70.5 21q-39 0 -68.5 -16.5t-50 -45t-30.5 -66t-10 -79.5q0 -76 24.5 -137t64.5 -106q48 -55 70 -96.5t22 -77.5q0 -27 -10 -44.5t-33 -17.5q-33 0 -64.5 25.5t-51.5 76.5q-4 10 -12 10q-6 0 -9 -3.5t-3 -8.5q0 -2 0.5 -5.5t2.5 -9.5
q23 -55 59.5 -83t99.5 -28q37 0 64.5 15t46 40.5t27.5 60.5t9 76q0 72 -27 143t-73 122q-45 49 -68.5 91.5t-23.5 80.5q0 27 11.5 42.5t36.5 15.5q29 0 55.5 -17.5t43.5 -46.5q6 -9 13 -9q11 0 11 10z" />
    <glyph glyph-name="T" unicode="T" horiz-adv-x="453" 
d="M429 700h-405q-16 0 -16 -12q0 -5 3 -9t13 -4h106v-675h193v675h106q10 0 13 4t3 9q0 12 -16 12z" />
    <glyph glyph-name="U" unicode="U" horiz-adv-x="432" 
d="M222 700h-192v-468q0 -111 49 -174t138 -63q42 0 76.5 16.5t59.5 47t38.5 74.5t13.5 99v457q0 18 -12 18q-13 0 -13 -18v-467q0 -49 -13.5 -86t-34 -62t-44.5 -38t-45 -13t-21 17v660z" />
    <glyph glyph-name="V" unicode="V" horiz-adv-x="474" 
d="M331 316l-134 382h-192l250 -720l210 706q0 2 0.5 2.5t0.5 2.5q0 10 -10 10q-11 0 -14 -11z" />
    <glyph glyph-name="W" unicode="W" horiz-adv-x="615" 
d="M298 368l-99 332h-192l214 -711l102 403l125 -407l163 694q2 10 2 13q0 14 -9 14t-13 -17l-77 -326l-117 338z" />
    <glyph glyph-name="X" unicode="X" horiz-adv-x="487" 
d="M308 427l-115 273h-184l157 -376l-138 -304q-3 -6 -3 -11q0 -12 11 -12q9 0 14 11l131 286l116 -294h177l-154 393l130 287q2 6 2 8q0 6 -3.5 9.5t-8.5 3.5q-9 0 -14 -11z" />
    <glyph glyph-name="Y" unicode="Y" horiz-adv-x="441" 
d="M315 436l-124 264h-185l226 -502l-66 -182q-2 -6 -2 -9q0 -10 12 -10q9 0 12 9l245 680q1 2 1 7q0 6 -3.5 9t-8.5 3q-11 0 -14 -11z" />
    <glyph glyph-name="Z" unicode="Z" horiz-adv-x="417" 
d="M400 700h-374q-14 0 -14 -13q0 -5 3.5 -8.5t10.5 -3.5h172l-182 -675h370q6 0 9.5 3.5t3.5 8.5q0 13 -13 13h-173z" />
    <glyph glyph-name="bracketleft" unicode="[" horiz-adv-x="175" 
d="M88 40v604q0 57 13.5 75t46.5 18q18 0 18 10t-18 10q-32 0 -54.5 -5t-37 -20.5t-21.5 -45.5t-7 -81v-526q0 -51 7 -81t21.5 -45.5t37 -20.5t54.5 -5q18 0 18 10t-18 10q-33 0 -46.5 18t-13.5 75z" />
    <glyph glyph-name="backslash" unicode="\" horiz-adv-x="186" 
d="M170 -5l-133 707q-1 4 -3 8.5t-8 4.5q-10 0 -10 -10q0 -2 0.5 -5t1.5 -8l131 -702q3 -19 13 -19q5 0 7.5 3.5t2.5 7.5q0 5 -2 13z" />
    <glyph glyph-name="bracketright" unicode="]" horiz-adv-x="180" 
d="M31 737q33 0 46.5 -18t13.5 -75v-604q0 -57 -13.5 -75t-46.5 -18q-18 0 -18 -10t18 -10q32 0 54.5 5t37 20.5t21.5 45.5t7 81v526q0 51 -7 81t-21.5 45.5t-37 20.5t-54.5 5q-18 0 -18 -10t18 -10z" />
    <glyph glyph-name="asciicircum" unicode="^" horiz-adv-x="274" 
d="M113 663l50 -237h82l-72 317h-81l-67 -317h21l49 237h18z" />
    <glyph glyph-name="underscore" unicode="_" horiz-adv-x="180" 
d="M0 -14v-15h188v15h-188z" />
    <glyph glyph-name="grave" unicode="`" horiz-adv-x="190" 
d="M80 757q-16 0 -28.5 -11t-12.5 -31q0 -21 10 -31.5t25 -18.5q16 -8 34.5 -19t33.5 -36q3 -5 8 -5q9 0 9 8q0 4 -4 10q-17 23 -20 42.5t-5 36.5q-3 29 -17.5 42t-32.5 13z" />
    <glyph glyph-name="a" unicode="a" horiz-adv-x="470" 
d="M175 408q-36 0 -63 -18t-45 -48t-27 -68t-9 -77t9 -76t27 -65.5t45 -46t63 -17.5q43 0 71 21t45 50v-63h160q-10 11 -17.5 21.5t-7.5 33.5v360q0 39 -9.5 70t-31.5 52.5t-58 33.5t-89 12q-36 0 -62.5 -8t-45.5 -21.5t-31 -30t-18 -33.5q-2 -5 -2 -7v-6q0 -11 11 -11
q9 0 12 12q14 43 47 62.5t70 19.5q35 0 53.5 -14t18.5 -48v-146q-22 24 -49.5 40t-66.5 16zM166 125v159q0 53 12 72t31 19q13 0 27.5 -7.5t26.5 -18.5t20 -22.5t8 -19.5v-194q0 -7 -7.5 -21.5t-19.5 -29.5t-27 -26t-30 -11q-26 0 -33.5 23t-7.5 77z" />
    <glyph glyph-name="b" unicode="b" horiz-adv-x="454" 
d="M167 521v179h-137v-700h137v59q18 -30 43.5 -51.5t62.5 -21.5q47 0 78.5 23.5t50.5 64.5t27 96t8 118t-9 118t-28.5 96t-50.5 64.5t-76 23.5q-40 0 -67 -22.5t-39 -46.5zM167 115v358q0 8 6.5 22.5t18 29t27 25.5t33.5 11q13 0 22 -11t9 -48v-432q0 -32 -7.5 -43.5
t-20.5 -11.5q-16 0 -32 12.5t-28.5 29t-20 33.5t-7.5 25z" />
    <glyph glyph-name="c" unicode="c" horiz-adv-x="379" 
d="M201 14q-14 0 -22 6.5t-8 28.5v473q0 26 9.5 33.5t24.5 7.5q30 0 54 -11.5t42 -31.5t30 -46t19 -54q3 -13 13 -13q11 0 11 11q0 4 -2 12q-4 15 -13 41.5t-28 52t-50.5 44t-79.5 18.5q-41 0 -75.5 -21.5t-59.5 -60.5t-39 -93.5t-14 -121.5t14 -122t38.5 -94.5t58 -61
t71.5 -21.5q45 0 76 17.5t52 41.5t32 50.5t16 44.5q2 10 2 13q0 8 -3.5 11.5t-8.5 3.5q-10 0 -13 -11q-5 -24 -16.5 -49.5t-29.5 -47.5t-43 -36t-58 -14z" />
    <glyph glyph-name="d" unicode="d" horiz-adv-x="454" 
d="M422 0v700h-136v-182q-8 13 -18 25.5t-23 23t-29.5 17t-36.5 6.5q-42 0 -72.5 -23.5t-51 -64.5t-30.5 -96t-10 -118t13 -118t35.5 -96t52.5 -64.5t63 -23.5q22 0 39.5 7.5t30.5 18t22 22.5t15 21v-55h136zM169 492q0 38 9.5 54t23.5 16q16 0 31 -12t27 -27.5t19 -29.5
t7 -18v-377q0 -8 -8 -22t-20.5 -28.5t-28.5 -25t-31 -10.5q-14 0 -21.5 16.5t-7.5 59.5v404z" />
    <glyph glyph-name="e" unicode="e" horiz-adv-x="419" 
d="M260 314h-86v169q0 15 0.5 30.5t4.5 27.5t12.5 19.5t24.5 7.5t25 -7t13 -18.5t5 -27t1 -32.5v-169zM380 180q-4 0 -8 -3t-6 -9q-22 -81 -60.5 -114.5t-78.5 -33.5q-22 0 -37.5 12t-15.5 44v213h224q1 2 1 22q0 17 -2.5 44.5t-9.5 58.5t-19 62t-32.5 56t-49.5 40.5
t-69 15.5q-37 0 -71.5 -21t-60.5 -59.5t-42 -94t-16 -124.5q0 -65 14 -119.5t39.5 -94.5t61.5 -62.5t80 -22.5q45 0 75 21.5t49 49t29 54.5t13 39q1 3 2 7t1 7q0 12 -11 12z" />
    <glyph glyph-name="f" unicode="f" horiz-adv-x="246" 
d="M185 580v48q0 28 5.5 39.5t16.5 11.5q10 0 19 -15q5 -8 11 -8t6 7q0 8 -7 16q-9 11 -27.5 19t-53.5 8q-48 0 -76.5 -34t-28.5 -92h-39v-20h39v-560h135v560h43v20h-43z" />
    <glyph glyph-name="g" unicode="g" horiz-adv-x="365" 
d="M344 607q-16 0 -16 -23q0 -18 -7.5 -32.5t-15.5 -22.5q-7 10 -17 21t-24.5 20t-34 15t-44.5 6q-31 0 -61.5 -12.5t-55 -38.5t-39.5 -65.5t-15 -92.5q0 -27 6 -49t15 -40t19 -31.5t18 -23.5q-24 -26 -41 -69.5t-17 -104.5q0 -50 4.5 -80t14 -46.5t24 -21.5t35.5 -5
q19 0 37 5l36 10q17 6 33 10.5t32 4.5q26 0 38.5 -8.5t12.5 -29.5q0 -22 9 -22q6 0 14.5 11.5t17 30.5t14 43t5.5 49q0 51 -28.5 68.5t-83.5 17.5q-25 0 -40 -2.5t-28 -6.5q-13 -3 -25.5 -6t-29.5 -3q-28 0 -39.5 11.5t-11.5 31.5q0 25 12 51.5t22 40.5q19 -16 38 -26
t55 -10q34 0 64 15.5t52.5 43t35 65.5t12.5 84q0 45 -11 74t-19 43q20 24 31 44t11 37q0 10 -4.5 14.5t-9.5 4.5zM185 201q-11 0 -20.5 11t-9.5 32v282q0 23 9.5 34.5t20.5 11.5t20.5 -11.5t9.5 -34.5v-282q0 -21 -9.5 -32t-20.5 -11z" />
    <glyph glyph-name="h" unicode="h" horiz-adv-x="423" 
d="M272 589q-38 0 -62.5 -24t-39.5 -53v188h-135v-700h135v469q5 13 12 26.5t15.5 24.5t18 18t19.5 7q16 0 20 -18t4 -47v-480h135v435q0 39 -11.5 68t-29 48t-39 28.5t-42.5 9.5z" />
    <glyph glyph-name="i" unicode="i" horiz-adv-x="195" 
d="M30 580v-580h135v580h-135zM164 678q0 32 -20.5 45t-46.5 13t-47.5 -13.5t-21.5 -44.5q0 -16 6 -27t15.5 -18t22 -10t25.5 -3q26 0 46.5 13t20.5 45z" />
    <glyph glyph-name="j" unicode="j" horiz-adv-x="233" 
d="M203 580h-135v-518q0 -20 3.5 -47.5t3.5 -50.5q0 -16 -2.5 -26.5t-13.5 -10.5q-12 0 -19.5 6.5t-10.5 9.5q-6 6 -11 6q-7 0 -7 -9q0 -8 5 -14q13 -17 31 -22.5t41 -5.5q29 0 50.5 14t36 36.5t21.5 51t7 58.5v522zM200 680q0 17 -5.5 28t-15 17t-21.5 8.5t-25 2.5
q-26 0 -47.5 -12t-21.5 -44q0 -34 21.5 -47t47.5 -13t46.5 13.5t20.5 46.5z" />
    <glyph glyph-name="k" unicode="k" horiz-adv-x="453" 
d="M169 397v301h-139v-698h139v371l129 -371h143l-169 493q3 6 8 15t12.5 17.5t17 14t20.5 5.5q7 0 19 -5q12 -6 21 -6q13 0 13 10q0 7 -10 14t-33 7q-16 0 -27 -4.5t-19.5 -12t-15.5 -16.5l-14 -18z" />
    <glyph glyph-name="l" unicode="l" horiz-adv-x="195" 
d="M29 700v-700h135v700h-135z" />
    <glyph glyph-name="m" unicode="m" horiz-adv-x="648" 
d="M392 0v448q0 11 4.5 28t12.5 32.5t19.5 27t25.5 11.5q10 0 16 -8.5t8.5 -23t3 -34t0.5 -41.5v-440h135v427q0 72 -34.5 117t-97.5 45q-20 0 -36 -7.5t-28 -19.5t-20.5 -27t-13.5 -31q-7 17 -16 32.5t-23 27t-34.5 18.5t-50.5 7q-40 0 -64.5 -24t-32.5 -53v68h-135v-580
h135v459q4 15 9.5 30.5t13 28t17 21t21.5 8.5q22 0 26 -28t4 -79v-440h135z" />
    <glyph glyph-name="n" unicode="n" horiz-adv-x="426" 
d="M266 589q-35 0 -58 -20.5t-38 -56.5v68h-135v-580h135v459q4 15 10 30.5t14 28t17 21t20 8.5q10 0 16 -10t8.5 -25.5t3 -34.5t0.5 -37v-440h135v435q0 41 -11.5 70t-30 48t-41.5 27.5t-45 8.5z" />
    <glyph glyph-name="o" unicode="o" horiz-adv-x="465" 
d="M28 290q0 -57 13 -111.5t38.5 -97.5t64 -69t90.5 -26q50 0 87.5 26t62 68t37 96t12.5 110q0 57 -12.5 111.5t-38 97.5t-63.5 69t-89 26t-88.5 -26t-63 -68t-38 -96t-12.5 -110zM222 30v514q0 17 5 21t15 4q17 0 45.5 -14t55.5 -46.5t47 -86.5t20 -134q0 -84 -20 -138
t-48 -85.5t-56.5 -43.5t-45.5 -12q-11 0 -14.5 6t-3.5 15z" />
    <glyph glyph-name="p" unicode="p" horiz-adv-x="450" 
d="M167 505v75h-135v-742h135v215q9 -12 19 -24t22 -21.5t28 -15.5t37 -6q37 0 67.5 23t52 65t33 101t11.5 131q0 63 -13 115.5t-35 90t-52 58t-64 20.5q-20 0 -36.5 -8t-30 -20t-23 -27t-16.5 -30zM167 98v356q17 44 38.5 73t47.5 29q14 0 22 -17.5t8 -62.5v-373
q0 -46 -10 -62.5t-29 -16.5q-15 0 -37.5 20.5t-39.5 53.5z" />
    <glyph glyph-name="q" unicode="q" horiz-adv-x="455" 
d="M426 580h-135v-75q-7 15 -16.5 30t-23 27t-30 20t-36.5 8q-34 0 -64 -20.5t-52 -58t-35 -90t-13 -115.5q0 -72 11.5 -131t33 -101t52 -65t67.5 -23q21 0 37 6t28 15.5t22 21.5t19 24v-215h135v742zM205 556q26 0 47.5 -29t38.5 -73v-356q-17 -33 -39.5 -53.5t-37.5 -20.5
q-19 0 -29 16.5t-10 62.5v373q0 45 8 62.5t22 17.5z" />
    <glyph glyph-name="r" unicode="r" horiz-adv-x="333" 
d="M280 593q-30 0 -59 -20t-51 -61v68h-135v-580h135v459q3 12 13 28.5t22.5 31.5t27.5 25.5t29 10.5q12 0 20 -8q12 -11 25 -11q11 0 18 7.5t7 17.5q0 16 -15.5 24t-36.5 8z" />
    <glyph glyph-name="s" unicode="s" horiz-adv-x="312" 
d="M271 508q0 6 -1 10q-11 32 -36 53t-66 21q-33 0 -59.5 -15t-46 -40t-30 -56.5t-10.5 -64.5q0 -63 35 -127t92 -127q26 -29 38.5 -53.5t12.5 -43.5q0 -30 -19.5 -42t-40.5 -12q-26 0 -52 18.5t-49 47.5q-6 7 -11 7q-7 0 -7 -10q0 -6 4 -13q24 -42 61.5 -58.5t76.5 -16.5
q29 0 52 13t39.5 35.5t25 53.5t8.5 66q0 68 -26.5 122t-74.5 110q-30 35 -50 63.5t-20 57.5q0 32 18.5 46.5t38.5 14.5q23 0 44.5 -16.5t33.5 -45.5q4 -11 11 -11q8 0 8 13z" />
    <glyph glyph-name="t" unicode="t" horiz-adv-x="318" 
d="M42 560v-385q0 -41 10.5 -74t29.5 -56.5t46 -36.5t61 -13q51 0 78.5 17.5t41.5 42.5q6 10 6 20q0 14 -9 14t-17 -17q-9 -19 -25.5 -31.5t-31.5 -12.5q-12 0 -21.5 3.5t-16.5 16.5t-10.5 36.5t-3.5 64.5v411h54v20h-54v140l-138 -95v-45h-30v-20h30z" />
    <glyph glyph-name="u" unicode="u" horiz-adv-x="471" 
d="M33 580v-405q0 -40 8.5 -73t26.5 -57t45 -37t64 -13q26 0 46.5 9.5t36.5 23t27 29t19 26.5v-83h135v580h-135v-437q0 -14 -9.5 -33t-24 -36t-31.5 -29.5t-31 -12.5q-20 0 -31 21.5t-11 72.5v454h-135z" />
    <glyph glyph-name="v" unicode="v" horiz-adv-x="378" 
d="M253 237l-100 343h-141l184 -602l174 601h-18z" />
    <glyph glyph-name="w" unicode="w" horiz-adv-x="567" 
d="M256 247l-103 333h-144l184 -602l99 336l114 -335l154 601h-18l-77 -295l-108 315z" />
    <glyph glyph-name="x" unicode="x" horiz-adv-x="408" 
d="M246 356l-90 224h-135l130 -313l-135 -267h22l125 244l102 -244h135l-144 333l122 247h-22z" />
    <glyph glyph-name="y" unicode="y" horiz-adv-x="387" 
d="M262 246l-106 334h-144l186 -555q-8 -29 -19.5 -52.5t-30.5 -23.5q-21 0 -33 12t-23 29q-5 8 -13 8q-13 0 -13 -20q0 -14 7 -23.5t17.5 -15.5t22.5 -9t21 -3q19 0 32 7.5t21.5 18t13 21t6.5 16.5l173 590h-23z" />
    <glyph glyph-name="z" unicode="z" horiz-adv-x="348" 
d="M334 580h-306v-22h146l-164 -558h319v22h-161z" />
    <glyph glyph-name="braceleft" unicode="{" horiz-adv-x="192" 
d="M175 -49q-19 0 -30 4.5t-16 14.5t-6.5 25.5t-1.5 37.5v217q0 23 -6 40.5t-16 31t-21.5 23.5t-22.5 18q12 8 24 17t21 21t15 29t6 42v171q0 22 1.5 37.5t6.5 25.5t16 14.5t30 4.5v23q-38 0 -62.5 -7t-38.5 -21.5t-20 -37.5t-6 -54v-177q0 -31 -12 -51t-28 -37
q15 -14 27.5 -37t12.5 -51v-232q0 -30 6 -51.5t20 -35.5t38.5 -21t62.5 -7v23z" />
    <glyph glyph-name="bar" unicode="|" horiz-adv-x="75" 
d="M48 700h-21v-765h21v765z" />
    <glyph glyph-name="braceright" unicode="}" horiz-adv-x="205" 
d="M81 250v-217q0 -22 -1.5 -37.5t-6.5 -25.5t-16 -14.5t-30 -4.5v-23q37 0 62 7t39 21t20 35.5t6 51.5v232q0 28 12.5 51t27.5 37q-16 17 -28 37t-12 51v177q0 31 -6 54t-20 37.5t-39 21.5t-62 7v-23q19 0 30 -4.5t16 -14.5t6.5 -25.5t1.5 -37.5v-171q0 -25 6 -42t15 -29
t21 -21t24 -17q-11 -8 -22.5 -18t-21.5 -23.5t-16 -31t-6 -40.5z" />
    <glyph glyph-name="asciitilde" unicode="~" horiz-adv-x="320" 
d="M26 351q4 0 8 7q8 19 19 31.5t28 20.5q10 -33 37 -54.5t65 -21.5q26 0 46 8t34.5 20t23 25t11.5 23q0 1 0.5 2t0.5 3q0 5 -6 5q-4 0 -6 -5q-8 -17 -18 -28t-27 -21q-19 34 -45 56.5t-59 22.5q-42 0 -74.5 -25t-42.5 -58q-1 -3 -1 -5q0 -6 6 -6z" />
    <glyph glyph-name="exclamdown" unicode="&#xa1;" horiz-adv-x="228" 
d="M36 14q0 -51 22 -84.5t56 -33.5q35 0 57 33.5t22 84.5q0 29 -8.5 60.5t-20.5 67.5q-13 42 -26 90t-13 104q0 17 -11 17q-10 0 -10 -17q0 -56 -13 -104.5t-26 -89.5q-13 -38 -21 -69t-8 -59zM46 528q0 -34 19.5 -59.5t48.5 -25.5q30 0 49.5 25.5t19.5 59.5t-19.5 59.5
t-49.5 25.5q-29 0 -48.5 -25.5t-19.5 -59.5z" />
    <glyph glyph-name="cent" unicode="&#xa2;" horiz-adv-x="415" 
d="M372 430q-3 10 -7.5 25.5t-12.5 32.5t-20 34t-30 31l14 91q0 16 -14 16q-11 0 -13 -12l-12 -79q-31 17 -76 17q-41 0 -75.5 -21.5t-59.5 -60.5t-39 -93.5t-14 -121.5q0 -65 13 -118.5t36.5 -92.5t55 -62t67.5 -26l-16 -98q-1 -5 -1.5 -8.5t-0.5 -5.5q0 -13 13 -13
q11 0 14 15l18 111q40 3 68 21t47 41.5t29.5 48.5t14.5 42q2 10 2 13q0 8 -3.5 11.5t-8.5 3.5q-10 0 -13 -11q-5 -23 -15 -47.5t-26.5 -45.5t-39.5 -35.5t-52 -17.5l82 509q20 -20 32.5 -47t20.5 -57q3 -13 13 -13q11 0 11 11q0 4 -2 12zM205 563q38 0 68 -19l-84 -529
q-8 2 -13 9.5t-5 24.5v473q0 26 9.5 33.5t24.5 7.5z" />
    <glyph glyph-name="sterling" unicode="&#xa3;" horiz-adv-x="471" 
d="M347 644q0 4 -1 7q-13 36 -49 60t-77 24q-63 0 -93.5 -45.5t-30.5 -124.5v-165h-63v-25h63v-180q0 -51 -5 -83t-14.5 -51.5t-23 -31t-29.5 -21.5q-11 -7 -15.5 -14.5t-4.5 -12.5q0 -9 8 -9q7 0 19 12q14 15 32 23t51 8q28 0 40.5 -12.5t24.5 -28.5q7 -9 15 -18.5t21 -17
t31.5 -12t46.5 -4.5q42 0 69 8.5t45.5 27.5t30.5 47.5t24 69.5q1 3 1 7q0 12 -10 12q-6 0 -9 -9q-13 -42 -26.5 -68t-29 -40t-34.5 -18.5t-43 -4.5q-45 0 -66.5 12t-34.5 29q-11 15 -25 27.5t-38 17.5q27 12 46 25.5t30.5 33t17 47.5t5.5 71v158h102v25h-102v198
q0 20 4.5 33.5t11.5 21t15 10.5t15 3q20 0 39 -27q4 -5 9 -5q7 0 7 10z" />
    <glyph glyph-name="yen" unicode="&#xa5;" horiz-adv-x="475" 
d="M406 260h-76v38h76v30h-76v22l127 350h-22l-98 -270l-129 270h-184l161 -357v-15h-75v-30h75v-38h-75v-30h75v-230h145v230h76v30z" />
    <glyph glyph-name="brokenbar" unicode="&#xa6;" horiz-adv-x="133" 
d="M89 327h-35v-327h35v327zM54 436h35v319h-35v-319z" />
    <glyph glyph-name="section" unicode="&#xa7;" horiz-adv-x="303" 
d="M154 -84q48 0 72.5 36.5t24.5 101.5q0 36 -14.5 73.5t-37.5 65.5q21 0 37 12.5t27 32.5t16.5 46t5.5 53q0 41 -13.5 78.5t-33 70t-41 60.5t-36.5 50q-20 30 -28.5 53t-8.5 46q0 27 8 39.5t20 12.5q21 0 39 -13t29 -37q4 -10 9 -10q7 0 7 9q0 5 -4 16q-12 26 -33 43
t-51 17q-45 0 -69 -36t-24 -96q0 -47 16 -80.5t36 -62.5q-18 0 -34 -11.5t-27.5 -31.5t-18 -46.5t-6.5 -56.5q0 -44 13.5 -81.5t33 -69.5t41 -59t36.5 -49q20 -30 28.5 -53.5t8.5 -48.5q0 -49 -31 -49q-23 0 -39.5 15t-26.5 38q-5 10 -9 10q-5 0 -6.5 -5t-1.5 -10
q0 -6 2 -10q12 -29 32 -46t52 -17zM144 446l28.5 -38t23.5 -38.5t16 -45t6 -56.5q0 -26 -9.5 -39.5t-26.5 -13.5l-20 27q-10 13 -22.5 28t-24 35t-19.5 46.5t-8 62.5q0 32 11.5 45.5t24.5 13.5z" />
    <glyph glyph-name="dieresis" unicode="&#xa8;" horiz-adv-x="310" 
d="M136 684q0 21 -15 36t-36 15t-36 -15t-15 -36t15 -36t36 -15t36 15t15 36zM282 684q0 21 -15 36t-36 15t-36 -15t-15 -36t15 -36t36 -15t36 15t15 36z" />
    <glyph glyph-name="copyright" unicode="&#xa9;" horiz-adv-x="565" 
d="M191 348q0 18 7 36.5t20.5 32.5t32 23t41.5 9q38 0 59.5 -13.5t35.5 -28.5v24q-14 14 -35 26t-60 12q-28 0 -50.5 -10.5t-38 -27.5t-24 -39t-8.5 -44q0 -23 8.5 -44.5t24 -38t38 -27t50.5 -10.5q38 0 60 12t35 25v31q-17 -20 -38 -34t-57 -14q-23 0 -41.5 8.5t-31.5 22.5
t-20.5 32t-7.5 37zM547 353q0 52 -20 98.5t-55 81.5t-81.5 55t-98.5 20q-53 0 -99 -20t-81 -55t-55 -81.5t-20 -98.5q0 -53 20 -99t55 -81t81 -55t99 -20q52 0 98.5 20t81.5 55t55 81t20 99zM292 118q-48 0 -91 18.5t-75 50.5t-50.5 75t-18.5 91t18.5 91t50.5 75t75 50.5
t91 18.5t91 -18.5t75 -50.5t50.5 -75t18.5 -91t-18.5 -91t-50.5 -75t-75 -50.5t-91 -18.5z" />
    <glyph glyph-name="ordfeminine" unicode="&#xaa;" horiz-adv-x="335" 
d="M21 251v-15h293v15h-293zM129 524q-21 0 -37.5 -11t-27 -29t-16 -40.5t-5.5 -46.5q0 -23 5.5 -45.5t16 -39.5t26.5 -27.5t38 -10.5q26 0 42.5 12.5t27.5 30.5v-38h96q-6 6 -10.5 12.5t-4.5 20.5v216q0 47 -25 74t-88 27q-43 0 -64.5 -18t-29.5 -38q-2 -3 -2 -7q0 -7 7 -7
q6 0 7 7q8 26 28 37.5t42 11.5t33 -8.5t11 -28.5v-88q-14 15 -30.5 24.5t-39.5 9.5zM124 354v96q0 32 7 43t18 11q8 0 16.5 -4.5t16 -11t12.5 -13.5t5 -12v-116q0 -5 -4.5 -13.5t-12 -17.5t-16.5 -15.5t-18 -6.5q-16 0 -20 14t-4 46z" />
    <glyph glyph-name="guillemotleft" unicode="&#xab;" horiz-adv-x="420" 
d="M90 290l121 194v163l-167 -275v-55l167 -274v49zM260 290l121 194v163l-167 -275v-55l167 -274v49z" />
    <glyph glyph-name="logicalnot" unicode="&#xac;" 
d="M26 370v-27h188v27h-188zM84 694v-282h63v319l-94 -38q-6 -3 -6 -7t5 -4q1 0 1.5 0.5t2.5 0.5zM188 248q0 18 -6.5 31.5t-16.5 22t-22 12.5t-24 4q-14 0 -27.5 -4t-24 -14.5t-17.5 -27.5t-7 -43q0 -25 7.5 -46.5t17.5 -32.5q-8 -8 -18.5 -22.5t-10.5 -43.5q0 -24 7 -41
t18 -28t25 -16t28 -5q33 0 57.5 22.5t24.5 75.5q0 38 -12 60t-23 33q9 6 16.5 20.5t7.5 42.5zM155 192q-11 10 -20 18t-22 19q-12 9 -24 20.5t-12 28.5q0 13 10 21t32 8q20 0 39 -14t19 -45q0 -17 -4 -29.5t-18 -26.5zM117 5q-23 0 -44.5 19.5t-21.5 59.5q0 21 6.5 34.5
t16.5 21.5q16 -19 41 -41q16 -14 33 -29.5t17 -36.5q0 -15 -16.5 -21.5t-31.5 -6.5z" />
    <glyph glyph-name="registered" unicode="&#xae;" horiz-adv-x="426" 
d="M40 585q0 -30 10.5 -60t31.5 -53t53 -37.5t75 -14.5q42 0 74 14.5t53.5 37.5t32 53t10.5 60q0 31 -10.5 61t-31.5 53.5t-53 38t-75 14.5t-75 -14.5t-53 -38t-31.5 -53.5t-10.5 -61zM53 585q0 29 10 56.5t29.5 49.5t49 35t68.5 13t68.5 -13t49 -35t29.5 -49.5t10 -56.5
q0 -28 -9.5 -55.5t-29 -49t-49 -34.5t-69.5 -13q-39 0 -68.5 13t-49 34.5t-29.5 49t-10 55.5zM279 632q0 26 -14.5 40.5t-32.5 14.5h-84v-199h14v92h14l86 -92h18l-86 92h38q17 0 32 13.5t15 38.5zM264 632q0 -16 -9.5 -27t-22.5 -11h-70v78h69q16 0 24.5 -11.5t8.5 -28.5z
" />
    <glyph glyph-name="macron" unicode="&#xaf;" horiz-adv-x="273" 
d="M35 651v-20h225v20h-225z" />
    <glyph glyph-name="degree" unicode="&#xb0;" horiz-adv-x="205" 
d="M184 604q0 33 -23.5 56.5t-56.5 23.5t-56.5 -23.5t-23.5 -56.5t23.5 -56.5t56.5 -23.5t56.5 23.5t23.5 56.5zM44 604q0 25 17.5 42.5t42.5 17.5t42.5 -17.5t17.5 -42.5t-17.5 -42.5t-42.5 -17.5t-42.5 17.5t-17.5 42.5z" />
    <glyph glyph-name="twosuperior" unicode="&#xb2;" 
d="M189 425h-67q9 22 22 51.5t27 69.5q6 17 10.5 30t8 25t5 24t1.5 27q0 38 -17.5 56t-48.5 18q-36 0 -59 -27t-23 -69q0 -10 1 -16.5t3 -13.5q1 -6 6 -6q6 0 6 5q0 4 -2 8q-1 3 -1.5 8.5t-0.5 14.5q0 38 20.5 61.5t47.5 23.5q13 0 13 -20q0 -14 -5.5 -38t-18.5 -59
q-10 -28 -20.5 -55t-21 -51t-19.5 -44.5t-15 -35.5h148q8 0 8 6q0 7 -8 7z" />
    <glyph glyph-name="threesuperior" unicode="&#xb3;" 
d="M58 676q4 0 5 4q7 17 21.5 31t29.5 14q4 0 4 -4v-126h-23q-9 0 -9 -8q0 -6 9 -6h23v-154q0 -6 -7 -6q-17 0 -32.5 15.5t-21.5 38.5q-1 4 -5 4q-6 0 -6 -5q0 -2 0.5 -3t0.5 -2q8 -26 26 -42.5t45 -16.5q29 0 49.5 23.5t20.5 69.5q0 24 -5 40t-13 25.5t-17.5 14t-17.5 5.5
q17 2 33.5 17.5t16.5 54.5q0 38 -20 57t-43 19q-25 0 -42.5 -14t-25.5 -37q-1 -1 -1 -4q0 -5 5 -5z" />
    <glyph glyph-name="acute" unicode="&#xb4;" horiz-adv-x="205" 
d="M132 665q15 8 25 18.5t10 31.5q0 20 -12.5 31t-28.5 11q-18 0 -32.5 -13t-17.5 -42q-2 -17 -5 -36.5t-20 -42.5q-4 -6 -4 -10q0 -8 9 -8q5 0 8 5q15 25 33.5 36t34.5 19z" />
    <glyph glyph-name="mu" unicode="&#xb5;" 
d="M30 370v-27h188v27h-188zM86 693v-281h62v318l-93 -38q-5 -3 -5 -7t4 -4q1 0 1.5 0.5t2.5 0.5zM190 17h-67q9 22 22 51.5t27 69.5q6 17 10.5 30t8 25t5 24t1.5 27q0 38 -17.5 56t-48.5 18q-36 0 -59 -27t-23 -69q0 -10 1 -16.5t3 -13.5q1 -6 6 -6q6 0 6 5q0 4 -2 8
q-1 3 -1.5 8.5t-0.5 14.5q0 38 20.5 61.5t47.5 23.5q13 0 13 -20q0 -14 -5.5 -38t-18.5 -59q-10 -28 -20.5 -55t-21 -51t-19.5 -44.5t-15 -35.5h148q8 0 8 6q0 7 -8 7z" />
    <glyph glyph-name="paragraph" unicode="&#xb6;" horiz-adv-x="396" 
d="M265 -50v750h-82q-34 0 -63 -17t-50 -47.5t-33 -72.5t-12 -91q0 -51 16 -92.5t40 -71t52.5 -46t54.5 -16.5h17v-296h60zM358 700h-60v-750h60v750z" />
    <glyph glyph-name="periodcentered" unicode="&#xb7;" horiz-adv-x="230" 
d="M182 384q0 34 -17.5 59.5t-49.5 25.5q-16 0 -29 -7t-22 -19t-13.5 -27.5t-4.5 -31.5q0 -34 18.5 -59.5t50.5 -25.5t49.5 26t17.5 59z" />
    <glyph glyph-name="periodcentered" unicode="&#x2219;" horiz-adv-x="230" 
d="M182 384q0 34 -17.5 59.5t-49.5 25.5q-16 0 -29 -7t-22 -19t-13.5 -27.5t-4.5 -31.5q0 -34 18.5 -59.5t50.5 -25.5t49.5 26t17.5 59z" />
    <glyph glyph-name="cedilla" unicode="&#xb8;" horiz-adv-x="150" 
d="M118 -79q0 24 -7 39t-16 23.5t-16.5 11t-8.5 2.5h-17v-169q32 9 48.5 34.5t16.5 58.5z" />
    <glyph glyph-name="onesuperior" unicode="&#xb9;" 
d="M86 691v-281h62v318l-93 -38q-5 -3 -5 -7t4 -4q1 0 1.5 0.5t2.5 0.5z" />
    <glyph glyph-name="ordmasculine" unicode="&#xba;" horiz-adv-x="335" 
d="M34 251v-15h272v15h-272zM47 452q0 -35 7.5 -67.5t23 -58.5t39 -41.5t54.5 -15.5q30 0 52.5 15.5t37.5 41t22.5 57.5t7.5 66t-7.5 67.5t-23 59t-38.5 41.5t-53 16q-31 0 -54 -15.5t-38 -41t-22.5 -58t-7.5 -66.5zM164 295v310q0 10 3 12.5t9 2.5q10 0 27.5 -8.5t33.5 -28
t28 -52t12 -80.5q0 -51 -12 -83.5t-28.5 -51.5t-34 -26.5t-27.5 -7.5q-11 0 -11 13z" />
    <glyph glyph-name="guillemotright" unicode="&#xbb;" horiz-adv-x="420" 
d="M167 397l-121 -194v-163l169 275v55l-169 274v-49zM339 397l-121 -194v-163l169 275v55l-169 274v-49z" />
    <glyph glyph-name="onequarter" unicode="&#xbc;" 
d="M30 370v-27h182v27h-182zM86 691v-281h62v318l-93 -38q-5 -3 -5 -7t4 -4q1 0 1.5 0.5t2.5 0.5zM176 65v259l-140 -247q-4 -8 -4 -13q0 -12 12 -12h46v-52h86v54h20q6 0 6 5q0 6 -6 6h-20zM90 151v-88h-41q-5 0 -5 4q0 3 2 7z" />
    <glyph glyph-name="onehalf" unicode="&#xbd;" 
d="M30 370v-27h188v27h-188zM86 693v-281h62v318l-93 -38q-5 -3 -5 -7t4 -4q1 0 1.5 0.5t2.5 0.5zM190 17h-67q9 22 22 51.5t27 69.5q6 17 10.5 30t8 25t5 24t1.5 27q0 38 -17.5 56t-48.5 18q-36 0 -59 -27t-23 -69q0 -10 1 -16.5t3 -13.5q1 -6 6 -6q6 0 6 5q0 4 -2 8
q-1 3 -1.5 8.5t-0.5 14.5q0 38 20.5 61.5t47.5 23.5q13 0 13 -20q0 -14 -5.5 -38t-18.5 -59q-10 -28 -20.5 -55t-21 -51t-19.5 -44.5t-15 -35.5h148q8 0 8 6q0 7 -8 7z" />
    <glyph glyph-name="threequarters" unicode="&#xbe;" 
d="M30 370v-27h188v27h-188zM58 676q4 0 5 4q7 17 21.5 31t29.5 14q4 0 4 -4v-126h-23q-9 0 -9 -8q0 -6 9 -6h23v-154q0 -6 -7 -6q-17 0 -32.5 15.5t-21.5 38.5q-1 4 -5 4q-6 0 -6 -5q0 -2 0.5 -3t0.5 -2q8 -26 26 -42.5t45 -16.5q29 0 49.5 23.5t20.5 69.5q0 24 -5 40
t-13 25.5t-17.5 14t-17.5 5.5q17 2 33.5 17.5t16.5 54.5q0 38 -20 57t-43 19q-25 0 -42.5 -14t-25.5 -37q-1 -1 -1 -4q0 -5 5 -5zM174 65v259l-140 -247q-4 -8 -4 -13q0 -12 12 -12h46v-52h86v54h20q6 0 6 5q0 6 -6 6h-20zM88 151v-88h-41q-5 0 -5 4q0 3 2 7z" />
    <glyph glyph-name="questiondown" unicode="&#xbf;" horiz-adv-x="334" 
d="M290 10q-17 -50 -48 -78.5t-73 -28.5v421q0 18 -10 18t-10 -18v-92q-61 0 -95.5 -46.5t-34.5 -128.5q0 -43 11 -75.5t30.5 -54.5t45 -33.5t54.5 -11.5q53 0 89.5 31t53.5 81q2 6 2 12q0 10 -8 10q-5 0 -7 -6zM93 513q0 -34 17.5 -59.5t49.5 -25.5q16 0 29 7t22 19
t13.5 27.5t4.5 31.5q0 34 -18.5 59.5t-50.5 25.5t-49.5 -26t-17.5 -59z" />
    <glyph glyph-name="Agrave" unicode="&#xc0;" horiz-adv-x="459" 
d="M182 854q-13 0 -23 -9t-10 -25q0 -17 8 -25t20 -15q13 -7 27.5 -15.5t26.5 -28.5q4 -4 7 -4q7 0 7 7q0 2 -1 4l-2 4q-14 18 -16 33.5t-4 29.5q-2 23 -14 33.5t-26 10.5zM231 715l-219 -700q-1 -3 -1 -8q0 -9 8 -9t11 9l35 111h173l37 -118h172zM150 390l79 -247h-156z
" />
    <glyph glyph-name="Aacute" unicode="&#xc1;" horiz-adv-x="459" 
d="M273 780q12 7 20 15t8 25q0 16 -10 25t-23 9q-14 0 -26 -10.5t-14 -33.5q-2 -14 -4 -29.5t-16 -33.5l-2 -4t-1 -4q0 -7 7 -7q3 0 7 4q12 20 26.5 28.5t27.5 15.5zM231 715l-219 -700q-1 -3 -1 -8q0 -9 8 -9t11 9l35 111h173l37 -118h172zM150 390l79 -247h-156z" />
    <glyph glyph-name="Acircumflex" unicode="&#xc2;" horiz-adv-x="459" 
d="M214 805l46 -69h69l-72 100h-58l-67 -100h19l47 69h16zM231 715l-219 -700q-1 -3 -1 -8q0 -9 8 -9t11 9l35 111h173l37 -118h172zM150 390l79 -247h-156z" />
    <glyph glyph-name="Atilde" unicode="&#xc3;" horiz-adv-x="459" 
d="M112 735q5 0 7 6q12 31 38 42q8 -27 30 -44t53 -17q21 0 37 6.5t27.5 16t18.5 20t10 18.5v4q0 4 -4 4q-3 0 -5 -4q-7 -13 -14.5 -22.5t-21.5 -17.5q-16 28 -37 46.5t-48 18.5q-34 0 -60 -20.5t-34 -46.5q-1 -3 -1 -5q0 -5 4 -5zM231 715l-219 -700q-1 -3 -1 -8q0 -9 8 -9
t11 9l35 111h173l37 -118h172zM150 390l79 -247h-156z" />
    <glyph glyph-name="Adieresis" unicode="&#xc4;" horiz-adv-x="459" 
d="M212 774q0 17 -11.5 29t-28.5 12t-29 -12t-12 -29t12 -29t29 -12t28.5 12t11.5 29zM329 774q0 17 -12 29t-29 12t-28.5 -12t-11.5 -29t11.5 -29t28.5 -12t29 12t12 29zM231 715l-219 -700q-1 -3 -1 -8q0 -9 8 -9t11 9l35 111h173l37 -118h172zM150 390l79 -247h-156z" />
    <glyph glyph-name="Aring" unicode="&#xc5;" horiz-adv-x="459" 
d="M295 787q0 26 -19 45t-45 19t-45 -19t-19 -45t19 -45t45 -19t45 19t19 45zM183 787q0 20 14 34t34 14t34 -14t14 -34t-14 -34t-34 -14t-34 14t-14 34zM231 715l-219 -700q-1 -3 -1 -8q0 -9 8 -9t11 9l35 111h173l37 -118h172zM150 390l79 -247h-156z" />
    <glyph glyph-name="AE" unicode="&#xc6;" horiz-adv-x="665" 
d="M245 622v-479l-150 1zM600 700h-355l-214 -686q-1 -2 -1 -6q0 -10 10 -10q9 0 12 10l37 110h156v-118h367q6 0 10.5 3t4.5 9q0 13 -16 13h-174v482h187q6 0 10.5 2.5t4.5 10.5q0 7 -4.5 9.5t-10.5 2.5h-187v143h164q7 0 12 2.5t5 10.5q0 7 -5 9.5t-13 2.5z" />
    <glyph glyph-name="Ccedilla" unicode="&#xc7;" horiz-adv-x="495" 
d="M26 348q0 -66 13.5 -129t41 -113.5t70 -82t100.5 -34.5v-142q33 0 55.5 17t22.5 54q0 32 -19.5 48t-41.5 23q37 1 67 16t54.5 39t42.5 55.5t31 66.5q1 3 2 6.5t1 6.5q0 5 -3.5 8t-8.5 3q-8 0 -13 -11q-12 -34 -29.5 -64t-39.5 -52.5t-49 -35.5t-60 -13q-10 0 -17.5 1
t-12.5 2v662q5 2 12 3t18 1q67 0 106.5 -37t68.5 -118q4 -11 13 -11q12 0 12 12q0 3 -0.5 5.5t-1.5 5.5q-29 86 -76 127t-122 41q-61 0 -105.5 -31t-74 -81.5t-43.5 -115.5t-14 -132z" />
    <glyph glyph-name="Egrave" unicode="&#xc8;" horiz-adv-x="438" 
d="M196 854q-13 0 -23 -9t-10 -25q0 -17 8 -25t20 -15q13 -7 27.5 -15.5t26.5 -28.5q4 -4 7 -4q7 0 7 7q0 2 -1 4l-2 4q-14 18 -16 33.5t-4 29.5q-2 23 -14 33.5t-26 10.5zM404 688q0 12 -15 12h-359v-700h368q16 0 16 13q0 12 -16 12h-176v482h185q17 0 17 13q0 12 -17 12
h-185v143h167q9 0 12 4t3 9z" />
    <glyph glyph-name="Eacute" unicode="&#xc9;" horiz-adv-x="438" 
d="M261 780q12 7 20 15t8 25q0 16 -10 25t-23 9q-14 0 -26 -10.5t-14 -33.5q-2 -14 -4 -29.5t-16 -33.5l-2 -4t-1 -4q0 -7 7 -7q3 0 7 4q12 20 26.5 28.5t27.5 15.5zM404 688q0 12 -15 12h-359v-700h368q16 0 16 13q0 12 -16 12h-176v482h185q17 0 17 13q0 12 -17 12h-185
v143h167q9 0 12 4t3 9z" />
    <glyph glyph-name="Ecircumflex" unicode="&#xca;" horiz-adv-x="438" 
d="M192 805l46 -69h69l-72 100h-58l-67 -100h19l47 69h16zM404 688q0 12 -15 12h-359v-700h368q16 0 16 13q0 12 -16 12h-176v482h185q17 0 17 13q0 12 -17 12h-185v143h167q9 0 12 4t3 9z" />
    <glyph glyph-name="Edieresis" unicode="&#xcb;" horiz-adv-x="438" 
d="M205 774q0 17 -11.5 29t-28.5 12t-29 -12t-12 -29t12 -29t29 -12t28.5 12t11.5 29zM322 774q0 17 -12 29t-29 12t-28.5 -12t-11.5 -29t11.5 -29t28.5 -12t29 12t12 29zM404 688q0 12 -15 12h-359v-700h368q16 0 16 13q0 12 -16 12h-176v482h185q17 0 17 13q0 12 -17 12
h-185v143h167q9 0 12 4t3 9z" />
    <glyph glyph-name="Igrave" unicode="&#xcc;" horiz-adv-x="252" 
d="M88 854q-13 0 -23 -9t-10 -25q0 -17 8 -25t20 -15q13 -7 27.5 -15.5t26.5 -28.5q4 -4 7 -4q7 0 7 7q0 2 -1 4l-2 4q-14 18 -16 33.5t-4 29.5q-2 23 -14 33.5t-26 10.5zM222 0v700h-192v-700h192z" />
    <glyph glyph-name="Iacute" unicode="&#xcd;" horiz-adv-x="252" 
d="M183 780q12 7 20 15t8 25q0 16 -10 25t-23 9q-14 0 -26 -10.5t-14 -33.5q-2 -14 -4 -29.5t-16 -33.5l-2 -4t-1 -4q0 -7 7 -7q3 0 7 4q12 20 26.5 28.5t27.5 15.5zM222 0v700h-192v-700h192z" />
    <glyph glyph-name="Icircumflex" unicode="&#xce;" horiz-adv-x="252" 
d="M104 805l46 -69h69l-72 100h-58l-67 -100h19l47 69h16zM222 0v700h-192v-700h192z" />
    <glyph glyph-name="Idieresis" unicode="&#xcf;" horiz-adv-x="252" 
d="M110 774q0 17 -11.5 29t-28.5 12t-29 -12t-12 -29t12 -29t29 -12t28.5 12t11.5 29zM227 774q0 17 -12 29t-29 12t-28.5 -12t-11.5 -29t11.5 -29t28.5 -12t29 12t12 29zM222 0v700h-192v-700h192z" />
    <glyph glyph-name="Eth" unicode="&#xd0;" horiz-adv-x="486" 
d="M222 385v290h31q42 0 76.5 -24t59 -66.5t37.5 -102.5t13 -132q0 -71 -13.5 -131t-38 -103t-58.5 -67t-76 -24h-31v319h110v41h-110zM30 344v-344h223q47 0 86 24t66.5 69t43 110t15.5 147t-15.5 147t-43 110t-66.5 69t-86 24h-223v-315h-48v-41h48z" />
    <glyph glyph-name="Ntilde" unicode="&#xd1;" horiz-adv-x="393" 
d="M84 735q5 0 7 6q12 31 38 42q8 -27 30 -44t53 -17q21 0 37 6.5t27.5 16t18.5 20t10 18.5v4q0 4 -4 4q-3 0 -5 -4q-7 -13 -14.5 -22.5t-21.5 -17.5q-16 28 -37 46.5t-48 18.5q-34 0 -60 -20.5t-34 -46.5q-1 -3 -1 -5q0 -5 4 -5zM340 685v-335l-310 348v-685q0 -16 12 -16
q13 0 13 16v326l310 -352v698q0 18 -13 18q-12 0 -12 -18z" />
    <glyph glyph-name="Ograve" unicode="&#xd2;" horiz-adv-x="530" 
d="M222 854q-13 0 -23 -9t-10 -25q0 -17 8 -25t20 -15q13 -7 27.5 -15.5t26.5 -28.5q4 -4 7 -4q7 0 7 7q0 2 -1 4l-2 4q-14 18 -16 33.5t-4 29.5q-2 23 -14 33.5t-26 10.5zM265 -14q53 0 97 30.5t75.5 81.5t49 116t17.5 134q0 77 -18.5 143.5t-51 115t-76 76t-93.5 27.5
q-54 0 -99 -27t-77.5 -75.5t-51 -115t-18.5 -144.5q0 -75 17.5 -141t49.5 -115t77.5 -77.5t101.5 -28.5zM233 35v630q0 20 23 20q45 0 85.5 -26t71 -71t48.5 -106.5t18 -133.5q0 -66 -17.5 -127t-48 -107.5t-71 -74.5t-86.5 -28q-10 0 -16.5 4.5t-6.5 19.5z" />
    <glyph glyph-name="Oacute" unicode="&#xd3;" horiz-adv-x="530" 
d="M313 780q12 7 20 15t8 25q0 16 -10 25t-23 9q-14 0 -26 -10.5t-14 -33.5q-2 -14 -4 -29.5t-16 -33.5l-2 -4t-1 -4q0 -7 7 -7q3 0 7 4q12 20 26.5 28.5t27.5 15.5zM265 -14q53 0 97 30.5t75.5 81.5t49 116t17.5 134q0 77 -18.5 143.5t-51 115t-76 76t-93.5 27.5
q-54 0 -99 -27t-77.5 -75.5t-51 -115t-18.5 -144.5q0 -75 17.5 -141t49.5 -115t77.5 -77.5t101.5 -28.5zM233 35v630q0 20 23 20q45 0 85.5 -26t71 -71t48.5 -106.5t18 -133.5q0 -66 -17.5 -127t-48 -107.5t-71 -74.5t-86.5 -28q-10 0 -16.5 4.5t-6.5 19.5z" />
    <glyph glyph-name="Ocircumflex" unicode="&#xd4;" horiz-adv-x="530" 
d="M256 805l46 -69h69l-72 100h-58l-67 -100h19l47 69h16zM265 -14q53 0 97 30.5t75.5 81.5t49 116t17.5 134q0 77 -18.5 143.5t-51 115t-76 76t-93.5 27.5q-54 0 -99 -27t-77.5 -75.5t-51 -115t-18.5 -144.5q0 -75 17.5 -141t49.5 -115t77.5 -77.5t101.5 -28.5zM233 35v630
q0 20 23 20q45 0 85.5 -26t71 -71t48.5 -106.5t18 -133.5q0 -66 -17.5 -127t-48 -107.5t-71 -74.5t-86.5 -28q-10 0 -16.5 4.5t-6.5 19.5z" />
    <glyph glyph-name="Otilde" unicode="&#xd5;" horiz-adv-x="530" 
d="M154 739q5 0 7 6q12 31 38 42q8 -27 30 -44t53 -17q21 0 37 6.5t27.5 16t18.5 20t10 18.5v4q0 4 -4 4q-3 0 -5 -4q-7 -13 -14.5 -22.5t-21.5 -17.5q-16 28 -37 46.5t-48 18.5q-34 0 -60 -20.5t-34 -46.5q-1 -3 -1 -5q0 -5 4 -5zM265 -14q53 0 97 30.5t75.5 81.5t49 116
t17.5 134q0 77 -18.5 143.5t-51 115t-76 76t-93.5 27.5q-54 0 -99 -27t-77.5 -75.5t-51 -115t-18.5 -144.5q0 -75 17.5 -141t49.5 -115t77.5 -77.5t101.5 -28.5zM233 35v630q0 20 23 20q45 0 85.5 -26t71 -71t48.5 -106.5t18 -133.5q0 -66 -17.5 -127t-48 -107.5t-71 -74.5
t-86.5 -28q-10 0 -16.5 4.5t-6.5 19.5z" />
    <glyph glyph-name="Odieresis" unicode="&#xd6;" horiz-adv-x="535" 
d="M246 774q0 17 -11.5 29t-28.5 12t-29 -12t-12 -29t12 -29t29 -12t28.5 12t11.5 29zM363 774q0 17 -12 29t-29 12t-28.5 -12t-11.5 -29t11.5 -29t28.5 -12t29 12t12 29zM265 -14q53 0 97 30.5t75.5 81.5t49 116t17.5 134q0 77 -18.5 143.5t-51 115t-76 76t-93.5 27.5
q-54 0 -99 -27t-77.5 -75.5t-51 -115t-18.5 -144.5q0 -75 17.5 -141t49.5 -115t77.5 -77.5t101.5 -28.5zM233 35v630q0 20 23 20q45 0 85.5 -26t71 -71t48.5 -106.5t18 -133.5q0 -66 -17.5 -127t-48 -107.5t-71 -74.5t-86.5 -28q-10 0 -16.5 4.5t-6.5 19.5z" />
    <glyph glyph-name="multiply" unicode="&#xd7;" horiz-adv-x="361" 
d="M67 413l-33 -22l123 -183l-125 -185l33 -23l117 173l117 -173l34 21l-126 188l123 183l-34 21l-114 -171z" />
    <glyph glyph-name="Oslash" unicode="&#xd8;" horiz-adv-x="528" 
d="M19 348q0 -56 9.5 -106.5t27.5 -93t44 -76t59 -54.5l-27 -75q-2 -8 -2 -13q0 -8 10 -8q8 0 12 11l27 73q40 -20 86 -20q53 0 97 30.5t75.5 81.5t49 116t17.5 134q0 94 -26 169t-70 123l32 87q2 8 2 13q0 8 -10 8q-8 0 -12 -11l-29 -79q-28 25 -59.5 38.5t-66.5 13.5
q-54 0 -99 -27t-77.5 -75.5t-51 -115t-18.5 -144.5zM233 35v121l164 453q38 -45 60 -112.5t22 -148.5q0 -66 -17.5 -127t-48 -107.5t-71 -74.5t-86.5 -28q-10 0 -16.5 4.5t-6.5 19.5zM380 628l-147 -407v444q0 20 23 20q35 0 66.5 -15t57.5 -42z" />
    <glyph glyph-name="Ugrave" unicode="&#xd9;" horiz-adv-x="432" 
d="M196 854q-13 0 -23 -9t-10 -25q0 -17 8 -25t20 -15q13 -7 27.5 -15.5t26.5 -28.5q4 -4 7 -4q7 0 7 7q0 2 -1 4l-2 4q-14 18 -16 33.5t-4 29.5q-2 23 -14 33.5t-26 10.5zM222 700h-192v-468q0 -111 49 -174t138 -63q42 0 76.5 16.5t59.5 47t38.5 74.5t13.5 99v457
q0 18 -12 18q-13 0 -13 -18v-467q0 -49 -13.5 -86t-34 -62t-44.5 -38t-45 -13t-21 17v660z" />
    <glyph glyph-name="Uacute" unicode="&#xda;" horiz-adv-x="432" 
d="M285 780q12 7 20 15t8 25q0 16 -10 25t-23 9q-14 0 -26 -10.5t-14 -33.5q-2 -14 -4 -29.5t-16 -33.5l-2 -4t-1 -4q0 -7 7 -7q3 0 7 4q12 20 26.5 28.5t27.5 15.5zM222 700h-192v-468q0 -111 49 -174t138 -63q42 0 76.5 16.5t59.5 47t38.5 74.5t13.5 99v457q0 18 -12 18
q-13 0 -13 -18v-467q0 -49 -13.5 -86t-34 -62t-44.5 -38t-45 -13t-21 17v660z" />
    <glyph glyph-name="Ucircumflex" unicode="&#xdb;" horiz-adv-x="432" 
d="M214 805l46 -69h69l-72 100h-58l-67 -100h19l47 69h16zM222 700h-192v-468q0 -111 49 -174t138 -63q42 0 76.5 16.5t59.5 47t38.5 74.5t13.5 99v457q0 18 -12 18q-13 0 -13 -18v-467q0 -49 -13.5 -86t-34 -62t-44.5 -38t-45 -13t-21 17v660z" />
    <glyph glyph-name="Udieresis" unicode="&#xdc;" horiz-adv-x="432" 
d="M217 774q0 17 -11.5 29t-28.5 12t-29 -12t-12 -29t12 -29t29 -12t28.5 12t11.5 29zM334 774q0 17 -12 29t-29 12t-28.5 -12t-11.5 -29t11.5 -29t28.5 -12t29 12t12 29zM222 700h-192v-468q0 -111 49 -174t138 -63q42 0 76.5 16.5t59.5 47t38.5 74.5t13.5 99v457
q0 18 -12 18q-13 0 -13 -18v-467q0 -49 -13.5 -86t-34 -62t-44.5 -38t-45 -13t-21 17v660z" />
    <glyph glyph-name="Yacute" unicode="&#xdd;" horiz-adv-x="441" 
d="M315 436l-124 264h-185l226 -502l-66 -182q-2 -6 -2 -9q0 -10 12 -10q9 0 12 9l245 680q1 2 1 7q0 6 -3.5 9t-8.5 3q-11 0 -14 -11zM311 780q12 7 20 15t8 25q0 16 -10 25t-23 9q-14 0 -26 -10.5t-14 -33.5q-2 -14 -4 -29.5t-16 -33.5l-2 -4t-1 -4q0 -7 7 -7q3 0 7 4
q12 20 26.5 28.5t27.5 15.5z" />
    <glyph glyph-name="Thorn" unicode="&#xde;" horiz-adv-x="438" 
d="M421 338q0 115 -45 171.5t-120 56.5h-34v134h-192v-700h192v112h42q69 0 113 56t44 170zM222 137v404h30q66 0 105 -49t39 -154q0 -101 -38 -151t-102 -50h-34z" />
    <glyph glyph-name="germandbls" unicode="&#xdf;" horiz-adv-x="460" 
d="M185 613q0 36 17.5 54t49.5 18q29 0 54 -10t44 -26.5t29.5 -36.5t10.5 -39q0 -36 -11 -56.5t-39 -35.5q-33 -17 -54 -34.5t-33 -36.5t-17 -41t-5 -49q0 -37 8.5 -63t22 -46.5t31 -38t35.5 -37.5q15 -17 21.5 -37t6.5 -37q0 -23 -8 -35t-31 -12q-43 0 -74 51q-3 6 -9 6
q-8 0 -8 -9q0 -4 2 -8q15 -30 44 -45t67 -15q27 0 46 12.5t31 32.5t17.5 43.5t5.5 46.5q0 36 -6 61.5t-16.5 46t-25.5 38.5t-33 39q-19 22 -29.5 46t-10.5 46q0 17 6.5 31t20.5 23q32 20 49 44t17 67q0 27 -13 51t-36.5 43t-56 30t-71.5 11q-42 0 -76 -9.5t-58 -26.5
t-37.5 -40t-13.5 -50h-38v-20h38v-560h136v613z" />
    <glyph glyph-name="agrave" unicode="&#xe0;" horiz-adv-x="456" 
d="M202 757q-16 0 -28.5 -11t-12.5 -31q0 -21 10 -31.5t25 -18.5q16 -8 34.5 -19t33.5 -36q3 -5 8 -5q9 0 9 8q0 4 -4 10q-17 23 -20 42.5t-5 36.5q-3 29 -17.5 42t-32.5 13zM175 408q-36 0 -63 -18t-45 -48t-27 -68t-9 -77t9 -76t27 -65.5t45 -46t63 -17.5q43 0 71 21
t45 50v-63h160q-10 11 -17.5 21.5t-7.5 33.5v360q0 39 -9.5 70t-31.5 52.5t-58 33.5t-89 12q-36 0 -62.5 -8t-45.5 -21.5t-31 -30t-18 -33.5q-2 -5 -2 -7v-6q0 -11 11 -11q9 0 12 12q14 43 47 62.5t70 19.5q35 0 53.5 -14t18.5 -48v-146q-22 24 -49.5 40t-66.5 16zM166 125
v159q0 53 12 72t31 19q13 0 27.5 -7.5t26.5 -18.5t20 -22.5t8 -19.5v-194q0 -7 -7.5 -21.5t-19.5 -29.5t-27 -26t-30 -11q-26 0 -33.5 23t-7.5 77z" />
    <glyph glyph-name="aacute" unicode="&#xe1;" horiz-adv-x="456" 
d="M310 665q15 8 25 18.5t10 31.5q0 20 -12.5 31t-28.5 11q-18 0 -32.5 -13t-17.5 -42q-2 -17 -5 -36.5t-20 -42.5q-4 -6 -4 -10q0 -8 9 -8q5 0 8 5q15 25 33.5 36t34.5 19zM175 408q-36 0 -63 -18t-45 -48t-27 -68t-9 -77t9 -76t27 -65.5t45 -46t63 -17.5q43 0 71 21t45 50
v-63h160q-10 11 -17.5 21.5t-7.5 33.5v360q0 39 -9.5 70t-31.5 52.5t-58 33.5t-89 12q-36 0 -62.5 -8t-45.5 -21.5t-31 -30t-18 -33.5q-2 -5 -2 -7v-6q0 -11 11 -11q9 0 12 12q14 43 47 62.5t70 19.5q35 0 53.5 -14t18.5 -48v-146q-22 24 -49.5 40t-66.5 16zM166 125v159
q0 53 12 72t31 19q13 0 27.5 -7.5t26.5 -18.5t20 -22.5t8 -19.5v-194q0 -7 -7.5 -21.5t-19.5 -29.5t-27 -26t-30 -11q-26 0 -33.5 23t-7.5 77z" />
    <glyph glyph-name="acircumflex" unicode="&#xe2;" horiz-adv-x="456" 
d="M228 735l50 -109h82l-72 152h-81l-67 -152h21l49 109h18zM175 408q-36 0 -63 -18t-45 -48t-27 -68t-9 -77t9 -76t27 -65.5t45 -46t63 -17.5q43 0 71 21t45 50v-63h160q-10 11 -17.5 21.5t-7.5 33.5v360q0 39 -9.5 70t-31.5 52.5t-58 33.5t-89 12q-36 0 -62.5 -8
t-45.5 -21.5t-31 -30t-18 -33.5q-2 -5 -2 -7v-6q0 -11 11 -11q9 0 12 12q14 43 47 62.5t70 19.5q35 0 53.5 -14t18.5 -48v-146q-22 24 -49.5 40t-66.5 16zM166 125v159q0 53 12 72t31 19q13 0 27.5 -7.5t26.5 -18.5t20 -22.5t8 -19.5v-194q0 -7 -7.5 -21.5t-19.5 -29.5
t-27 -26t-30 -11q-26 0 -33.5 23t-7.5 77z" />
    <glyph glyph-name="atilde" unicode="&#xe3;" horiz-adv-x="456" 
d="M115 650q4 0 8 6q7 17 16.5 28.5t25.5 18.5q9 -30 33 -49t59 -19q23 0 41 7t31 17.5t20.5 22.5t10.5 21q0 1 0.5 2t0.5 2q0 5 -5 5q-4 0 -6 -5q-8 -14 -16.5 -24.5t-23.5 -19.5q-17 31 -40.5 51.5t-53.5 20.5q-19 0 -36 -6t-31 -16.5t-24 -24t-14 -28.5q-1 -3 -1 -5
q0 -5 5 -5zM175 408q-36 0 -63 -18t-45 -48t-27 -68t-9 -77t9 -76t27 -65.5t45 -46t63 -17.5q43 0 71 21t45 50v-63h160q-10 11 -17.5 21.5t-7.5 33.5v360q0 39 -9.5 70t-31.5 52.5t-58 33.5t-89 12q-36 0 -62.5 -8t-45.5 -21.5t-31 -30t-18 -33.5q-2 -5 -2 -7v-6
q0 -11 11 -11q9 0 12 12q14 43 47 62.5t70 19.5q35 0 53.5 -14t18.5 -48v-146q-22 24 -49.5 40t-66.5 16zM166 125v159q0 53 12 72t31 19q13 0 27.5 -7.5t26.5 -18.5t20 -22.5t8 -19.5v-194q0 -7 -7.5 -21.5t-19.5 -29.5t-27 -26t-30 -11q-26 0 -33.5 23t-7.5 77z" />
    <glyph glyph-name="adieresis" unicode="&#xe4;" horiz-adv-x="456" 
d="M218 684q0 21 -15 36t-36 15t-36 -15t-15 -36t15 -36t36 -15t36 15t15 36zM364 684q0 21 -15 36t-36 15t-36 -15t-15 -36t15 -36t36 -15t36 15t15 36zM175 408q-36 0 -63 -18t-45 -48t-27 -68t-9 -77t9 -76t27 -65.5t45 -46t63 -17.5q43 0 71 21t45 50v-63h160
q-10 11 -17.5 21.5t-7.5 33.5v360q0 39 -9.5 70t-31.5 52.5t-58 33.5t-89 12q-36 0 -62.5 -8t-45.5 -21.5t-31 -30t-18 -33.5q-2 -5 -2 -7v-6q0 -11 11 -11q9 0 12 12q14 43 47 62.5t70 19.5q35 0 53.5 -14t18.5 -48v-146q-22 24 -49.5 40t-66.5 16zM166 125v159q0 53 12 72
t31 19q13 0 27.5 -7.5t26.5 -18.5t20 -22.5t8 -19.5v-194q0 -7 -7.5 -21.5t-19.5 -29.5t-27 -26t-30 -11q-26 0 -33.5 23t-7.5 77z" />
    <glyph glyph-name="aring" unicode="&#xe5;" horiz-adv-x="456" 
d="M330 693q0 33 -23.5 56.5t-56.5 23.5t-56.5 -23.5t-23.5 -56.5t23.5 -56.5t56.5 -23.5t56.5 23.5t23.5 56.5zM190 693q0 25 17.5 42.5t42.5 17.5t42.5 -17.5t17.5 -42.5t-17.5 -42.5t-42.5 -17.5t-42.5 17.5t-17.5 42.5zM175 408q-36 0 -63 -18t-45 -48t-27 -68t-9 -77
t9 -76t27 -65.5t45 -46t63 -17.5q43 0 71 21t45 50v-63h160q-10 11 -17.5 21.5t-7.5 33.5v360q0 39 -9.5 70t-31.5 52.5t-58 33.5t-89 12q-36 0 -62.5 -8t-45.5 -21.5t-31 -30t-18 -33.5q-2 -5 -2 -7v-6q0 -11 11 -11q9 0 12 12q14 43 47 62.5t70 19.5q35 0 53.5 -14
t18.5 -48v-146q-22 24 -49.5 40t-66.5 16zM166 125v159q0 53 12 72t31 19q13 0 27.5 -7.5t26.5 -18.5t20 -22.5t8 -19.5v-194q0 -7 -7.5 -21.5t-19.5 -29.5t-27 -26t-30 -11q-26 0 -33.5 23t-7.5 77z" />
    <glyph glyph-name="ae" unicode="&#xe6;" horiz-adv-x="788" 
d="M414 55v91q23 -72 68 -114t106 -42q45 0 75 21.5t49 49t29 54.5t13 39q1 3 2 7t1 7q0 12 -11 12q-4 0 -8 -3t-6 -9q-22 -81 -60.5 -114.5t-78.5 -33.5q-22 0 -37.5 12t-15.5 44v213h224q1 2 1 22q0 17 -2.5 44.5t-9.5 58.5t-19 62t-32.5 56t-49.5 40.5t-69 15.5
q-54 0 -100 -42t-70 -117q-4 73 -46 113.5t-141 40.5q-36 0 -62.5 -8t-45.5 -21.5t-31 -30t-18 -33.5q-2 -5 -2 -7v-6q0 -11 11 -11q9 0 12 12q14 43 47 62.5t70 19.5q35 0 53.5 -14t18.5 -48v-146q-22 24 -49.5 40t-66.5 16q-36 0 -63 -18t-45 -48t-27 -68t-9 -77t9 -76
t27 -65.5t45 -46t63 -17.5q43 0 71 21t45 50v-63h160q-10 11 -17.5 21.5t-7.5 33.5zM154 125v159q0 53 12 72t31 19q13 0 27.5 -7.5t26.5 -18.5t20 -22.5t8 -19.5v-194q0 -7 -7.5 -21.5t-19.5 -29.5t-27 -26t-30 -11q-26 0 -33.5 23t-7.5 77zM626 314h-86v169q0 15 0.5 30.5
t4.5 27.5t12.5 19.5t24.5 7.5t25 -7t13 -18.5t5 -27t1 -32.5v-169z" />
    <glyph glyph-name="ccedilla" unicode="&#xe7;" horiz-adv-x="379" 
d="M258 -76q0 32 -15.5 46.5t-34.5 19.5q41 3 70 21t48 42t29.5 49t15.5 42q2 10 2 13q0 8 -3.5 11.5t-8.5 3.5q-10 0 -13 -11q-5 -24 -16.5 -49.5t-29.5 -47.5t-43 -36t-58 -14q-14 0 -22 6.5t-8 28.5v473q0 26 9.5 33.5t24.5 7.5q30 0 54 -11.5t42 -31.5t30 -46t19 -54
q3 -13 13 -13q11 0 11 11q0 4 -2 12q-4 15 -13 41.5t-28 52t-50.5 44t-79.5 18.5q-41 0 -75.5 -21.5t-59.5 -60.5t-39 -93.5t-14 -121.5t14 -122t38.5 -94.5t58 -61t71.5 -21.5v-126q23 0 43 17t20 43z" />
    <glyph glyph-name="egrave" unicode="&#xe8;" horiz-adv-x="419" 
d="M178 757q-16 0 -28.5 -11t-12.5 -31q0 -21 10 -31.5t25 -18.5q16 -8 34.5 -19t33.5 -36q3 -5 8 -5q9 0 9 8q0 4 -4 10q-17 23 -20 42.5t-5 36.5q-3 29 -17.5 42t-32.5 13zM260 314h-86v169q0 15 0.5 30.5t4.5 27.5t12.5 19.5t24.5 7.5t25 -7t13 -18.5t5 -27t1 -32.5v-169
zM380 180q-4 0 -8 -3t-6 -9q-22 -81 -60.5 -114.5t-78.5 -33.5q-22 0 -37.5 12t-15.5 44v213h224q1 2 1 22q0 17 -2.5 44.5t-9.5 58.5t-19 62t-32.5 56t-49.5 40.5t-69 15.5q-37 0 -71.5 -21t-60.5 -59.5t-42 -94t-16 -124.5q0 -65 14 -119.5t39.5 -94.5t61.5 -62.5
t80 -22.5q45 0 75 21.5t49 49t29 54.5t13 39q1 3 2 7t1 7q0 12 -11 12z" />
    <glyph glyph-name="eacute" unicode="&#xe9;" horiz-adv-x="419" 
d="M276 665q15 8 25 18.5t10 31.5q0 20 -12.5 31t-28.5 11q-18 0 -32.5 -13t-17.5 -42q-2 -17 -5 -36.5t-20 -42.5q-4 -6 -4 -10q0 -8 9 -8q5 0 8 5q15 25 33.5 36t34.5 19zM260 314h-86v169q0 15 0.5 30.5t4.5 27.5t12.5 19.5t24.5 7.5t25 -7t13 -18.5t5 -27t1 -32.5v-169z
M380 180q-4 0 -8 -3t-6 -9q-22 -81 -60.5 -114.5t-78.5 -33.5q-22 0 -37.5 12t-15.5 44v213h224q1 2 1 22q0 17 -2.5 44.5t-9.5 58.5t-19 62t-32.5 56t-49.5 40.5t-69 15.5q-37 0 -71.5 -21t-60.5 -59.5t-42 -94t-16 -124.5q0 -65 14 -119.5t39.5 -94.5t61.5 -62.5t80 -22.5
q45 0 75 21.5t49 49t29 54.5t13 39q1 3 2 7t1 7q0 12 -11 12z" />
    <glyph glyph-name="ecircumflex" unicode="&#xea;" horiz-adv-x="419" 
d="M210 735l50 -109h82l-72 152h-81l-67 -152h21l49 109h18zM260 314h-86v169q0 15 0.5 30.5t4.5 27.5t12.5 19.5t24.5 7.5t25 -7t13 -18.5t5 -27t1 -32.5v-169zM380 180q-4 0 -8 -3t-6 -9q-22 -81 -60.5 -114.5t-78.5 -33.5q-22 0 -37.5 12t-15.5 44v213h224q1 2 1 22
q0 17 -2.5 44.5t-9.5 58.5t-19 62t-32.5 56t-49.5 40.5t-69 15.5q-37 0 -71.5 -21t-60.5 -59.5t-42 -94t-16 -124.5q0 -65 14 -119.5t39.5 -94.5t61.5 -62.5t80 -22.5q45 0 75 21.5t49 49t29 54.5t13 39q1 3 2 7t1 7q0 12 -11 12z" />
    <glyph glyph-name="edieresis" unicode="&#xeb;" horiz-adv-x="419" 
d="M192 684q0 21 -15 36t-36 15t-36 -15t-15 -36t15 -36t36 -15t36 15t15 36zM338 684q0 21 -15 36t-36 15t-36 -15t-15 -36t15 -36t36 -15t36 15t15 36zM260 314h-86v169q0 15 0.5 30.5t4.5 27.5t12.5 19.5t24.5 7.5t25 -7t13 -18.5t5 -27t1 -32.5v-169zM380 180
q-4 0 -8 -3t-6 -9q-22 -81 -60.5 -114.5t-78.5 -33.5q-22 0 -37.5 12t-15.5 44v213h224q1 2 1 22q0 17 -2.5 44.5t-9.5 58.5t-19 62t-32.5 56t-49.5 40.5t-69 15.5q-37 0 -71.5 -21t-60.5 -59.5t-42 -94t-16 -124.5q0 -65 14 -119.5t39.5 -94.5t61.5 -62.5t80 -22.5
q45 0 75 21.5t49 49t29 54.5t13 39q1 3 2 7t1 7q0 12 -11 12z" />
    <glyph glyph-name="igrave" unicode="&#xec;" horiz-adv-x="195" 
d="M30 580v-580h137v580h-137zM52 757q-16 0 -28.5 -11t-12.5 -31q0 -21 10 -31.5t25 -18.5q16 -8 34.5 -19t33.5 -36q3 -5 8 -5q9 0 9 8q0 4 -4 10q-17 23 -20 42.5t-5 36.5q-3 29 -17.5 42t-32.5 13z" />
    <glyph glyph-name="iacute" unicode="&#xed;" horiz-adv-x="195" 
d="M30 580v-580h137v580h-137zM168 665q15 8 25 18.5t10 31.5q0 20 -12.5 31t-28.5 11q-18 0 -32.5 -13t-17.5 -42q-2 -17 -5 -36.5t-20 -42.5q-4 -6 -4 -10q0 -8 9 -8q5 0 8 5q15 25 33.5 36t34.5 19z" />
    <glyph glyph-name="icircumflex" unicode="&#xee;" horiz-adv-x="195" 
d="M30 580v-580h137v580h-137zM82 735l50 -109h82l-72 152h-81l-67 -152h21l49 109h18z" />
    <glyph glyph-name="idieresis" unicode="&#xef;" horiz-adv-x="195" 
d="M30 580v-580h137v580h-137zM78 684q0 21 -15 36t-36 15t-36 -15t-15 -36t15 -36t36 -15t36 15t15 36zM224 684q0 21 -15 36t-36 15t-36 -15t-15 -36t15 -36t36 -15t36 15t15 36z" />
    <glyph glyph-name="eth" unicode="&#xf0;" horiz-adv-x="465" 
d="M222 30v512q0 17 5 21t15 4q17 0 45.5 -13.5t55.5 -46t47 -86t20 -133.5q0 -84 -20 -138t-48 -85.5t-56.5 -43.5t-45.5 -12q-11 0 -14.5 6t-3.5 15zM382 495q-26 43 -63.5 69t-88.5 26t-88.5 -26t-63 -68t-38 -96t-12.5 -110q0 -57 13 -111.5t38.5 -97.5t64 -69t90.5 -26
q50 0 87.5 26t62 68t37 96t12.5 110q0 76 -8.5 134t-25.5 103.5t-42 81t-57 67.5l51 51l-18 19l-53 -53q-32 28 -73.5 47t-83.5 19t-61 -10.5t-19 -26.5q0 -11 8.5 -17t21.5 -6t22.5 3.5t18.5 8.5q8 4 17.5 6t26.5 2q29 0 53 -11.5t50 -33.5l-39 -38l19 -20l40 40
q35 -35 60 -71t41 -86z" />
    <glyph glyph-name="ntilde" unicode="&#xf1;" horiz-adv-x="426" 
d="M92 650q4 0 8 6q7 17 16.5 28.5t25.5 18.5q9 -30 33 -49t59 -19q23 0 41 7t31 17.5t20.5 22.5t10.5 21q0 1 0.5 2t0.5 2q0 5 -5 5q-4 0 -6 -5q-8 -14 -16.5 -24.5t-23.5 -19.5q-17 31 -40.5 51.5t-53.5 20.5q-19 0 -36 -6t-31 -16.5t-24 -24t-14 -28.5q-1 -3 -1 -5
q0 -5 5 -5zM266 589q-35 0 -58 -20.5t-38 -56.5v68h-135v-580h135v459q4 15 10 30.5t14 28t17 21t20 8.5q10 0 16 -10t8.5 -25.5t3 -34.5t0.5 -37v-440h135v435q0 41 -11.5 70t-30 48t-41.5 27.5t-45 8.5z" />
    <glyph glyph-name="ograve" unicode="&#xf2;" horiz-adv-x="465" 
d="M182 757q-16 0 -28.5 -11t-12.5 -31q0 -21 10 -31.5t25 -18.5q16 -8 34.5 -19t33.5 -36q3 -5 8 -5q9 0 9 8q0 4 -4 10q-17 23 -20 42.5t-5 36.5q-3 29 -17.5 42t-32.5 13zM28 290q0 -57 13 -111.5t38.5 -97.5t64 -69t90.5 -26q50 0 87.5 26t62 68t37 96t12.5 110
q0 57 -12.5 111.5t-38 97.5t-63.5 69t-89 26t-88.5 -26t-63 -68t-38 -96t-12.5 -110zM222 30v514q0 17 5 21t15 4q17 0 45.5 -14t55.5 -46.5t47 -86.5t20 -134q0 -84 -20 -138t-48 -85.5t-56.5 -43.5t-45.5 -12q-11 0 -14.5 6t-3.5 15z" />
    <glyph glyph-name="oacute" unicode="&#xf3;" horiz-adv-x="465" 
d="M282 665q15 8 25 18.5t10 31.5q0 20 -12.5 31t-28.5 11q-18 0 -32.5 -13t-17.5 -42q-2 -17 -5 -36.5t-20 -42.5q-4 -6 -4 -10q0 -8 9 -8q5 0 8 5q15 25 33.5 36t34.5 19zM28 290q0 -57 13 -111.5t38.5 -97.5t64 -69t90.5 -26q50 0 87.5 26t62 68t37 96t12.5 110
q0 57 -12.5 111.5t-38 97.5t-63.5 69t-89 26t-88.5 -26t-63 -68t-38 -96t-12.5 -110zM222 30v514q0 17 5 21t15 4q17 0 45.5 -14t55.5 -46.5t47 -86.5t20 -134q0 -84 -20 -138t-48 -85.5t-56.5 -43.5t-45.5 -12q-11 0 -14.5 6t-3.5 15z" />
    <glyph glyph-name="ocircumflex" unicode="&#xf4;" horiz-adv-x="465" 
d="M213 735l50 -109h82l-72 152h-81l-67 -152h21l49 109h18zM28 290q0 -57 13 -111.5t38.5 -97.5t64 -69t90.5 -26q50 0 87.5 26t62 68t37 96t12.5 110q0 57 -12.5 111.5t-38 97.5t-63.5 69t-89 26t-88.5 -26t-63 -68t-38 -96t-12.5 -110zM222 30v514q0 17 5 21t15 4
q17 0 45.5 -14t55.5 -46.5t47 -86.5t20 -134q0 -84 -20 -138t-48 -85.5t-56.5 -43.5t-45.5 -12q-11 0 -14.5 6t-3.5 15z" />
    <glyph glyph-name="otilde" unicode="&#xf5;" horiz-adv-x="465" 
d="M100 650q4 0 8 6q7 17 16.5 28.5t25.5 18.5q9 -30 33 -49t59 -19q23 0 41 7t31 17.5t20.5 22.5t10.5 21q0 1 0.5 2t0.5 2q0 5 -5 5q-4 0 -6 -5q-8 -14 -16.5 -24.5t-23.5 -19.5q-17 31 -40.5 51.5t-53.5 20.5q-19 0 -36 -6t-31 -16.5t-24 -24t-14 -28.5q-1 -3 -1 -5
q0 -5 5 -5zM28 290q0 -57 13 -111.5t38.5 -97.5t64 -69t90.5 -26q50 0 87.5 26t62 68t37 96t12.5 110q0 57 -12.5 111.5t-38 97.5t-63.5 69t-89 26t-88.5 -26t-63 -68t-38 -96t-12.5 -110zM222 30v514q0 17 5 21t15 4q17 0 45.5 -14t55.5 -46.5t47 -86.5t20 -134
q0 -84 -20 -138t-48 -85.5t-56.5 -43.5t-45.5 -12q-11 0 -14.5 6t-3.5 15z" />
    <glyph glyph-name="odieresis" unicode="&#xf6;" horiz-adv-x="465" 
d="M204 684q0 21 -15 36t-36 15t-36 -15t-15 -36t15 -36t36 -15t36 15t15 36zM350 684q0 21 -15 36t-36 15t-36 -15t-15 -36t15 -36t36 -15t36 15t15 36zM28 290q0 -57 13 -111.5t38.5 -97.5t64 -69t90.5 -26q50 0 87.5 26t62 68t37 96t12.5 110q0 57 -12.5 111.5t-38 97.5
t-63.5 69t-89 26t-88.5 -26t-63 -68t-38 -96t-12.5 -110zM222 30v514q0 17 5 21t15 4q17 0 45.5 -14t55.5 -46.5t47 -86.5t20 -134q0 -84 -20 -138t-48 -85.5t-56.5 -43.5t-45.5 -12q-11 0 -14.5 6t-3.5 15z" />
    <glyph glyph-name="oslash" unicode="&#xf8;" horiz-adv-x="465" 
d="M222 185l117 328q29 -32 50 -87t21 -138q0 -84 -20 -138t-48 -85.5t-56.5 -43.5t-45.5 -12q-11 0 -14.5 6t-3.5 15v155zM433 286q0 75 -21 143t-64 111l25 70q2 6 2 8q0 11 -11 11q-7 0 -10 -9l-23 -65q-21 17 -46.5 26t-54.5 9q-51 0 -88.5 -26t-63 -68t-38 -96
t-12.5 -110q0 -42 7 -83t21 -77.5t34.5 -66t48.5 -48.5l-24 -67q-2 -6 -2 -9q0 -10 11 -10q7 0 10 9l24 66q33 -18 76 -18q50 0 87.5 26t62 68t37 96t12.5 110zM242 569q14 0 35.5 -9t44.5 -29l-100 -282v295q0 17 5 21t15 4z" />
    <glyph glyph-name="ugrave" unicode="&#xf9;" horiz-adv-x="471" 
d="M178 757q-16 0 -28.5 -11t-12.5 -31q0 -21 10 -31.5t25 -18.5q16 -8 34.5 -19t33.5 -36q3 -5 8 -5q9 0 9 8q0 4 -4 10q-17 23 -20 42.5t-5 36.5q-3 29 -17.5 42t-32.5 13zM33 580v-405q0 -40 8.5 -73t26.5 -57t45 -37t64 -13q26 0 46.5 9.5t36.5 23t27 29t19 26.5v-83
h135v580h-135v-437q0 -14 -9.5 -33t-24 -36t-31.5 -29.5t-31 -12.5q-20 0 -31 21.5t-11 72.5v454h-135z" />
    <glyph glyph-name="uacute" unicode="&#xfa;" horiz-adv-x="471" 
d="M294 665q15 8 25 18.5t10 31.5q0 20 -12.5 31t-28.5 11q-18 0 -32.5 -13t-17.5 -42q-2 -17 -5 -36.5t-20 -42.5q-4 -6 -4 -10q0 -8 9 -8q5 0 8 5q15 25 33.5 36t34.5 19zM33 580v-405q0 -40 8.5 -73t26.5 -57t45 -37t64 -13q26 0 46.5 9.5t36.5 23t27 29t19 26.5v-83h135
v580h-135v-437q0 -14 -9.5 -33t-24 -36t-31.5 -29.5t-31 -12.5q-20 0 -31 21.5t-11 72.5v454h-135z" />
    <glyph glyph-name="ucircumflex" unicode="&#xfb;" horiz-adv-x="471" 
d="M220 735l50 -109h82l-72 152h-81l-67 -152h21l49 109h18zM33 580v-405q0 -40 8.5 -73t26.5 -57t45 -37t64 -13q26 0 46.5 9.5t36.5 23t27 29t19 26.5v-83h135v580h-135v-437q0 -14 -9.5 -33t-24 -36t-31.5 -29.5t-31 -12.5q-20 0 -31 21.5t-11 72.5v454h-135z" />
    <glyph glyph-name="udieresis" unicode="&#xfc;" horiz-adv-x="471" 
d="M212 684q0 21 -15 36t-36 15t-36 -15t-15 -36t15 -36t36 -15t36 15t15 36zM358 684q0 21 -15 36t-36 15t-36 -15t-15 -36t15 -36t36 -15t36 15t15 36zM33 580v-405q0 -40 8.5 -73t26.5 -57t45 -37t64 -13q26 0 46.5 9.5t36.5 23t27 29t19 26.5v-83h135v580h-135v-437
q0 -14 -9.5 -33t-24 -36t-31.5 -29.5t-31 -12.5q-20 0 -31 21.5t-11 72.5v454h-135z" />
    <glyph glyph-name="yacute" unicode="&#xfd;" horiz-adv-x="387" 
d="M262 246l-106 334h-144l186 -555q-8 -29 -19.5 -52.5t-30.5 -23.5q-21 0 -33 12t-23 29q-5 8 -13 8q-13 0 -13 -20q0 -14 7 -23.5t17.5 -15.5t22.5 -9t21 -3q19 0 32 7.5t21.5 18t13 21t6.5 16.5l173 590h-23zM267 665q15 8 25 18.5t10 31.5q0 20 -12.5 31t-28.5 11
q-18 0 -32.5 -13t-17.5 -42q-2 -17 -5 -36.5t-20 -42.5q-4 -6 -4 -10q0 -8 9 -8q5 0 8 5q15 25 33.5 36t34.5 19z" />
    <glyph glyph-name="thorn" unicode="&#xfe;" horiz-adv-x="450" 
d="M167 505v195h-135v-862h135v215q9 -12 19 -24t22 -21.5t28 -15.5t37 -6q37 0 67.5 23t52 65t33 101t11.5 131q0 63 -13 115.5t-35 90t-52 58t-64 20.5q-20 0 -36.5 -8t-30 -20t-23 -27t-16.5 -30zM167 98v356q17 44 38.5 73t47.5 29q14 0 22 -17.5t8 -62.5v-373
q0 -46 -10 -62.5t-29 -16.5q-15 0 -37.5 20.5t-39.5 53.5z" />
    <glyph glyph-name="ydieresis" unicode="&#xff;" horiz-adv-x="387" 
d="M196 684q0 21 -15 36t-36 15t-36 -15t-15 -36t15 -36t36 -15t36 15t15 36zM342 684q0 21 -15 36t-36 15t-36 -15t-15 -36t15 -36t36 -15t36 15t15 36zM262 246l-106 334h-144l186 -555q-8 -29 -19.5 -52.5t-30.5 -23.5q-21 0 -33 12t-23 29q-5 8 -13 8q-13 0 -13 -20
q0 -14 7 -23.5t17.5 -15.5t22.5 -9t21 -3q19 0 32 7.5t21.5 18t13 21t6.5 16.5l173 590h-23z" />
    <glyph glyph-name="OE" unicode="&#x152;" horiz-adv-x="888" 
d="M480 700v-190q-15 45 -37 82t-49.5 63.5t-60 40.5t-68.5 14q-54 0 -99 -27t-77.5 -75.5t-51 -115t-18.5 -144.5q0 -75 17.5 -141t49.5 -115t77.5 -77.5t101.5 -28.5q37 0 70 15.5t60.5 43t49 65t35.5 81.5v-191h368q16 0 16 13q0 12 -16 12h-176v482h185q17 0 17 13
q0 12 -17 12h-185v143h167q9 0 12 4t3 9q0 12 -15 12h-359zM233 35v630q0 20 23 20q45 0 85.5 -26t71 -71t48.5 -106.5t18 -133.5q0 -66 -17.5 -127t-48 -107.5t-71 -74.5t-86.5 -28q-10 0 -16.5 4.5t-6.5 19.5z" />
    <glyph glyph-name="oe" unicode="&#x153;" horiz-adv-x="807" 
d="M234 -14q38 0 69 15.5t54.5 41.5t39.5 61.5t25 76.5q20 -87 68 -139t116 -52q45 0 75 21.5t49 49t29 54.5t13 39q1 3 2 7t1 7q0 12 -11 12q-4 0 -8 -3t-6 -9q-22 -81 -60.5 -114.5t-78.5 -33.5q-22 0 -37.5 12t-15.5 44v213h224q1 2 1 22q0 17 -2.5 44.5t-9.5 58.5
t-19 62t-32.5 56t-49.5 40.5t-69 15.5q-30 0 -58 -13.5t-51.5 -38.5t-42 -61.5t-28.5 -82.5q-9 41 -26 77t-41 63t-55 42.5t-69 15.5q-51 0 -88.5 -26t-63 -68t-38 -96t-12.5 -110q0 -57 13 -111.5t38.5 -97.5t64 -69t90.5 -26zM222 30v514q0 17 5 21t15 4q17 0 45.5 -14
t55.5 -46.5t47 -86.5t20 -134q0 -84 -20 -138t-48 -85.5t-56.5 -43.5t-45.5 -12q-11 0 -14.5 6t-3.5 15zM644 314h-86v169q0 15 0.5 30.5t4.5 27.5t12.5 19.5t24.5 7.5t25 -7t13 -18.5t5 -27t1 -32.5v-169z" />
    <glyph glyph-name="Scaron" unicode="&#x160;" horiz-adv-x="342" 
d="M277 820h-69l-46 -69h-16l-47 69h-19l67 -100h58zM305 618q0 6 -4 14q-20 32 -52.5 53t-70.5 21q-39 0 -68.5 -16.5t-50 -45t-30.5 -66t-10 -79.5q0 -76 24.5 -137t64.5 -106q48 -55 70 -96.5t22 -77.5q0 -27 -10 -44.5t-33 -17.5q-33 0 -64.5 25.5t-51.5 76.5
q-4 10 -12 10q-6 0 -9 -3.5t-3 -8.5q0 -2 0.5 -5.5t2.5 -9.5q23 -55 59.5 -83t99.5 -28q37 0 64.5 15t46 40.5t27.5 60.5t9 76q0 72 -27 143t-73 122q-45 49 -68.5 91.5t-23.5 80.5q0 27 11.5 42.5t36.5 15.5q29 0 55.5 -17.5t43.5 -46.5q6 -9 13 -9q11 0 11 10z" />
    <glyph glyph-name="scaron" unicode="&#x161;" horiz-adv-x="312" 
d="M271 508q0 6 -1 10q-11 32 -36 53t-66 21q-33 0 -59.5 -15t-46 -40t-30 -56.5t-10.5 -64.5q0 -63 35 -127t92 -127q26 -29 38.5 -53.5t12.5 -43.5q0 -30 -19.5 -42t-40.5 -12q-26 0 -52 18.5t-49 47.5q-6 7 -11 7q-7 0 -7 -10q0 -6 4 -13q24 -42 61.5 -58.5t76.5 -16.5
q29 0 52 13t39.5 35.5t25 53.5t8.5 66q0 68 -26.5 122t-74.5 110q-30 35 -50 63.5t-20 57.5q0 32 18.5 46.5t38.5 14.5q23 0 44.5 -16.5t33.5 -45.5q4 -11 11 -11q8 0 8 13zM188 671l-50 109h-82l72 -152h81l67 152h-21l-49 -109h-18z" />
    <glyph glyph-name="Ydieresis" unicode="&#x178;" horiz-adv-x="441" 
d="M223 774q0 17 -11.5 29t-28.5 12t-29 -12t-12 -29t12 -29t29 -12t28.5 12t11.5 29zM340 774q0 17 -12 29t-29 12t-28.5 -12t-11.5 -29t11.5 -29t28.5 -12t29 12t12 29zM315 436l-124 264h-185l226 -502l-66 -182q-2 -6 -2 -9q0 -10 12 -10q9 0 12 9l245 680q1 2 1 7
q0 6 -3.5 9t-8.5 3q-11 0 -14 -11z" />
    <glyph glyph-name="florin" unicode="&#x192;" horiz-adv-x="405" 
d="M357 518h-311v-518h311v518z" />
    <glyph glyph-name="circumflex" unicode="&#x2c6;" horiz-adv-x="285" 
d="M126 735l50 -109h82l-72 152h-81l-67 -152h21l49 109h18z" />
    <glyph glyph-name="tilde" unicode="&#x2dc;" horiz-adv-x="297" 
d="M32 650q4 0 8 6q7 17 16.5 28.5t25.5 18.5q9 -30 33 -49t59 -19q23 0 41 7t31 17.5t20.5 22.5t10.5 21q0 1 0.5 2t0.5 2q0 5 -5 5q-4 0 -6 -5q-8 -14 -16.5 -24.5t-23.5 -19.5q-17 31 -40.5 51.5t-53.5 20.5q-19 0 -36 -6t-31 -16.5t-24 -24t-14 -28.5q-1 -3 -1 -5
q0 -5 5 -5z" />
    <glyph glyph-name="endash" unicode="&#x2013;" horiz-adv-x="357" 
d="M318 260v120h-276v-120h276z" />
    <glyph glyph-name="emdash" unicode="&#x2014;" horiz-adv-x="498" 
d="M460 310v25h-419v-25h419z" />
    <glyph glyph-name="quoteleft" unicode="&#x2018;" horiz-adv-x="210" 
d="M34 607q0 -43 19.5 -67.5t55.5 -24.5q32 0 50.5 19t18.5 51q0 34 -20 52t-49 18q-30 0 -45 -20q1 13 7 33t21 31q16 12 31.5 16t32.5 4v24q-19 0 -41 -7t-39 -21q-21 -17 -31.5 -48.5t-10.5 -59.5z" />
    <glyph glyph-name="quoteright" unicode="&#x2019;" horiz-adv-x="215" 
d="M187 629q0 43 -19.5 67.5t-55.5 24.5q-32 0 -50.5 -19t-18.5 -51q0 -34 20 -52t49 -18q30 0 45 20q-1 -13 -7 -33t-21 -31q-16 -12 -31.5 -16t-32.5 -4v-24q19 0 41 7t39 21q21 17 31.5 48.5t10.5 59.5z" />
    <glyph glyph-name="quotesinglbase" unicode="&#x201a;" horiz-adv-x="215" 
d="M187 83q0 43 -19.5 67.5t-55.5 24.5q-32 0 -50.5 -19t-18.5 -51q0 -34 20 -52t49 -18q30 0 45 20q-1 -13 -7 -33t-21 -31q-16 -12 -31.5 -16t-32.5 -4v-24q19 0 41 7t39 21q21 17 31.5 48.5t10.5 59.5z" />
    <glyph glyph-name="quotedblleft" unicode="&#x201c;" horiz-adv-x="405" 
d="M218 607q0 -43 19.5 -67.5t55.5 -24.5q32 0 50.5 19t18.5 51q0 34 -20 52t-49 18q-30 0 -45 -20q1 13 7 33t21 31q16 12 31.5 16t32.5 4v24q-19 0 -41 -7t-39 -21q-21 -17 -31.5 -48.5t-10.5 -59.5zM34 607q0 -43 19.5 -67.5t55.5 -24.5q32 0 50.5 19t18.5 51
q0 34 -20 52t-49 18q-30 0 -45 -20q1 13 7 33t21 31q16 12 31.5 16t32.5 4v24q-19 0 -41 -7t-39 -21q-21 -17 -31.5 -48.5t-10.5 -59.5z" />
    <glyph glyph-name="quotedblright" unicode="&#x201d;" horiz-adv-x="410" 
d="M197 629q0 43 -19.5 67.5t-55.5 24.5q-32 0 -50.5 -19t-18.5 -51q0 -34 20 -52t49 -18q30 0 45 20q-1 -13 -7 -33t-21 -31q-16 -12 -31.5 -16t-32.5 -4v-24q19 0 41 7t39 21q21 17 31.5 48.5t10.5 59.5zM381 629q0 43 -19.5 67.5t-55.5 24.5q-32 0 -50.5 -19t-18.5 -51
q0 -34 20 -52t49 -18q30 0 45 20q-1 -13 -7 -33t-21 -31q-16 -12 -31.5 -16t-32.5 -4v-24q19 0 41 7t39 21q21 17 31.5 48.5t10.5 59.5z" />
    <glyph glyph-name="quotedblbase" unicode="&#x201e;" horiz-adv-x="410" 
d="M197 83q0 43 -19.5 67.5t-55.5 24.5q-32 0 -50.5 -19t-18.5 -51q0 -34 20 -52t49 -18q30 0 45 20q-1 -13 -7 -33t-21 -31q-16 -12 -31.5 -16t-32.5 -4v-24q19 0 41 7t39 21q21 17 31.5 48.5t10.5 59.5zM381 83q0 43 -19.5 67.5t-55.5 24.5q-32 0 -50.5 -19t-18.5 -51
q0 -34 20 -52t49 -18q30 0 45 20q-1 -13 -7 -33t-21 -31q-16 -12 -31.5 -16t-32.5 -4v-24q19 0 41 7t39 21q21 17 31.5 48.5t10.5 59.5z" />
    <glyph glyph-name="dagger" unicode="&#x2020;" horiz-adv-x="144" 
d="M82 710h-22v-140h-33v-24h33v-380h22v380h35v24h-35v140z" />
    <glyph glyph-name="daggerdbl" unicode="&#x2021;" horiz-adv-x="144" 
d="M27 427h33v-292h23v292h34v24h-34v104h34v24h-34v131h-23v-131h-33v-24h33v-104h-33v-24z" />
    <glyph glyph-name="bullet" unicode="&#x2022;" horiz-adv-x="320" 
d="M298 250q0 28 -10.5 52.5t-29 43t-43 29t-52.5 10.5t-52.5 -10.5t-43 -29t-29 -43t-10.5 -52.5t10.5 -52.5t29 -43t43 -29t52.5 -10.5t52.5 10.5t43 29t29 43t10.5 52.5z" />
    <glyph glyph-name="ellipsis" unicode="&#x2026;" horiz-adv-x="741" 
d="M197 79q0 34 -17.5 59.5t-49.5 25.5q-16 0 -29 -7t-22 -19t-13.5 -27.5t-4.5 -31.5q0 -34 18.5 -59.5t50.5 -25.5t49.5 26t17.5 59zM439 79q0 34 -17.5 59.5t-49.5 25.5q-16 0 -29 -7t-22 -19t-13.5 -27.5t-4.5 -31.5q0 -34 18.5 -59.5t50.5 -25.5t49.5 26t17.5 59z
M680 79q0 34 -17.5 59.5t-49.5 25.5q-16 0 -29 -7t-22 -19t-13.5 -27.5t-4.5 -31.5q0 -34 18.5 -59.5t50.5 -25.5t49.5 26t17.5 59z" />
    <glyph glyph-name="perthousand" unicode="&#x2030;" horiz-adv-x="507" 
d="M293 659q2 4 2 7q0 9 -8 9q-6 0 -9 -9l-252 -655q-2 -6 -2 -8q0 -9 8 -9q7 0 10 11zM92 402q30 0 52.5 31t22.5 97q0 64 -22 94.5t-53 30.5q-32 0 -53 -34.5t-21 -90.5q0 -27 6 -50.5t16 -41t23.5 -27t28.5 -9.5zM94 634q0 6 3 6q20 0 38 -28t18 -82q0 -59 -18 -86
t-38 -27q-3 0 -3 7v210zM230 19q30 0 52.5 31t22.5 97q0 64 -22 94.5t-53 30.5q-32 0 -53 -34.5t-21 -90.5q0 -27 6 -50.5t16 -41t23.5 -27t28.5 -9.5zM232 251q0 6 3 6q20 0 38 -28t18 -82q0 -59 -18 -86t-38 -27q-3 0 -3 7v210zM408 19q30 0 52.5 31t22.5 97
q0 64 -22 94.5t-53 30.5q-32 0 -53 -34.5t-21 -90.5q0 -27 6 -50.5t16 -41t23.5 -27t28.5 -9.5zM410 251q0 6 3 6q20 0 38 -28t18 -82q0 -59 -18 -86t-38 -27q-3 0 -3 7v210z" />
    <glyph glyph-name="guilsinglleft" unicode="&#x2039;" horiz-adv-x="255" 
d="M90 290l121 194v163l-167 -275v-55l167 -274v49z" />
    <glyph glyph-name="guilsinglright" unicode="&#x203a;" horiz-adv-x="250" 
d="M167 397l-121 -194v-163l169 275v55l-169 274v-49z" />
    <glyph glyph-name="trademark" unicode="&#x2122;" horiz-adv-x="294" 
d="M127 654h-90v-12h40v-201h10v201h40v12zM160 655l-29 -212h10l21 159l38 -170l39 168l19 -157h10l-26 212l-42 -183z" />
    <glyph glyph-name="NUL" unicode="&#xe000;" horiz-adv-x="0" 
 />
    <glyph glyph-name="HT" unicode="&#xe001;" horiz-adv-x="0" 
 />
    <glyph glyph-name="minus" unicode="&#xe003;" horiz-adv-x="464" 
d="M407 285h-350v-41h350v41z" />
    <glyph glyph-name="partialdiff" unicode="&#xe004;" 
d="M30 370v-27h188v27h-188zM85 693v-281h62v318l-93 -38q-5 -3 -5 -7t4 -4q1 0 1.5 0.5t2.5 0.5zM58 259q4 0 5 4q7 17 21.5 31t29.5 14q4 0 4 -4v-126h-23q-9 0 -9 -8q0 -6 9 -6h23v-154q0 -6 -7 -6q-17 0 -32.5 15.5t-21.5 38.5q-1 4 -5 4q-6 0 -6 -5q0 -2 0.5 -3t0.5 -2
q8 -26 26 -42.5t45 -16.5q29 0 49.5 23.5t20.5 69.5q0 24 -5 40t-13 25.5t-17.5 14t-17.5 5.5q17 2 33.5 17.5t16.5 54.5q0 38 -20 57t-43 19q-25 0 -42.5 -14t-25.5 -37q-1 -1 -1 -4q0 -5 5 -5z" />
    <glyph glyph-name="summation" unicode="&#xe005;" 
d="M30 370v-27h182v27h-182zM86 691v-281h62v318l-93 -38q-5 -3 -5 -7t4 -4q1 0 1.5 0.5t2.5 0.5zM176 65v259l-140 -247q-4 -8 -4 -13q0 -12 12 -12h46v-52h86v54h20q6 0 6 5q0 6 -6 6h-20zM90 151v-88h-41q-5 0 -5 4q0 3 2 7z" />
    <glyph glyph-name="product" unicode="&#xe006;" 
d="M30 370v-27h188v27h-188zM189 425h-67q9 22 22 51.5t27 69.5q6 17 10.5 30t8 25t5 24t1.5 27q0 38 -17.5 56t-48.5 18q-36 0 -59 -27t-23 -69q0 -10 1 -16.5t3 -13.5q1 -6 6 -6q6 0 6 5q0 4 -2 8q-1 3 -1.5 8.5t-0.5 14.5q0 38 20.5 61.5t47.5 23.5q13 0 13 -20
q0 -14 -5.5 -38t-18.5 -59q-10 -28 -20.5 -55t-21 -51t-19.5 -44.5t-15 -35.5h148q8 0 8 6q0 7 -8 7zM59 261q4 0 5 4q7 17 21.5 31t29.5 14q4 0 4 -4v-126h-23q-9 0 -9 -8q0 -6 9 -6h23v-154q0 -6 -7 -6q-17 0 -32.5 15.5t-21.5 38.5q-1 4 -5 4q-6 0 -6 -5q0 -2 0.5 -3
t0.5 -2q8 -26 26 -42.5t45 -16.5q29 0 49.5 23.5t20.5 69.5q0 24 -5 40t-13 25.5t-17.5 14t-17.5 5.5q17 2 33.5 17.5t16.5 54.5q0 38 -20 57t-43 19q-25 0 -42.5 -14t-25.5 -37q-1 -1 -1 -4q0 -5 5 -5z" />
    <glyph glyph-name="pi" unicode="&#xe007;" 
d="M30 370v-27h188v27h-188zM58 676q4 0 5 4q7 17 21.5 31t29.5 14q4 0 4 -4v-126h-23q-9 0 -9 -8q0 -6 9 -6h23v-154q0 -6 -7 -6q-17 0 -32.5 15.5t-21.5 38.5q-1 4 -5 4q-6 0 -6 -5q0 -2 0.5 -3t0.5 -2q8 -26 26 -42.5t45 -16.5q29 0 49.5 23.5t20.5 69.5q0 24 -5 40
t-13 25.5t-17.5 14t-17.5 5.5q17 2 33.5 17.5t16.5 54.5q0 38 -20 57t-43 19q-25 0 -42.5 -14t-25.5 -37q-1 -1 -1 -4q0 -5 5 -5zM174 65v259l-140 -247q-4 -8 -4 -13q0 -12 12 -12h46v-52h86v54h20q6 0 6 5q0 6 -6 6h-20zM88 151v-88h-41q-5 0 -5 4q0 3 2 7z" />
    <glyph glyph-name="integral" unicode="&#xe008;" horiz-adv-x="560" 
d="M526 600h-490v-600h490v600zM506 580v-560h-450v560h450z" />
    <glyph glyph-name="radical" unicode="&#xe009;" horiz-adv-x="389" 
d="M59 291l-38 -145q27 -35 48.5 -73t37.5 -78q18 68 47 149t65 158t76.5 142t81.5 100l-7 25q-30 -25 -58.5 -62t-53.5 -80.5t-47.5 -90.5t-40.5 -91.5t-32 -83.5t-23 -66q-10 57 -23.5 102.5t-32.5 93.5z" />
    <glyph glyph-name="approxequal" unicode="&#xe00a;" horiz-adv-x="776" 
d="M326 273v126h124v-126h-124zM285 541v-101h-101q-51 0 -79 28.5t-28 73.5q0 50 29.5 77.5t76.5 27.5q51 0 76.5 -31t25.5 -75zM183 399h102v-126h-102q-30 0 -56.5 -10.5t-46.5 -30t-31.5 -46t-11.5 -57.5t11 -57t30 -45t45 -29.5t57 -10.5q36 0 63.5 11t46 30.5t27.5 46
t9 56.5v102h124v-102q0 -30 9.5 -56.5t28 -46t45.5 -30.5t63 -11q31 0 57 11t45 30t30 45t11 56q0 31 -11.5 57.5t-31.5 46t-46.5 30t-56.5 10.5h-102v126h102q30 0 56.5 11t46.5 30.5t31.5 46t11.5 57.5t-11 57.5t-30 45.5t-45.5 29.5t-56.5 10.5q-36 0 -63 -11.5
t-45.5 -31t-28 -46t-9.5 -56.5v-102h-124v102q0 30 -9 56.5t-27.5 46t-46 31t-63.5 11.5q-30 0 -56.5 -11.5t-45.5 -31t-30 -45.5t-11 -55q0 -32 11 -58.5t30.5 -45.5t46 -30t58.5 -11zM592 440h-101v101q0 44 25.5 75t76.5 31q46 0 76 -27.5t30 -77.5q0 -45 -28.5 -73.5
t-78.5 -28.5zM184 233h101v-101q0 -45 -25.5 -75.5t-76.5 -30.5q-47 0 -76.5 27t-29.5 78q0 45 28 73.5t79 28.5zM491 132v101h101q50 0 78.5 -28.5t28.5 -73.5q0 -51 -30 -78t-76 -27q-51 0 -76.5 30.5t-25.5 75.5z" />
    <glyph glyph-name="nonbreakingspace" unicode="&#xe00b;" horiz-adv-x="240" 
 />
    <glyph glyph-name="lozenge" unicode="&#xe00c;" horiz-adv-x="408" 
d="M202 399l142 -142l-142 -142l-142 142zM15 257l187 -187l187 187l-187 187z" />
    <glyph glyph-name="apple" unicode="&#xe00d;" horiz-adv-x="790" 
d="M268 530q-40 0 -74.5 -13t-60 -38.5t-40 -63t-14.5 -85.5q0 -55 24.5 -115.5t60.5 -111t76 -83.5t72 -33q40 0 67 33q8 9 19.5 14t22.5 5q13 0 22 -6t15 -13q28 -33 73 -33q40 0 73 24t58 56.5t42 66t25 51.5q-17 5 -35 17.5t-33 30t-24.5 39.5t-9.5 46q0 48 19 86.5
t61 58.5q-4 12 -15.5 24t-28.5 21.5t-39 15.5t-48 6q-25 0 -48.5 -5.5t-40.5 -18.5q-20 -15 -35 -21t-31 -6q-15 0 -26.5 6.5t-33.5 20.5q-17 11 -42.5 17.5t-50.5 6.5zM529 669q-21 0 -43 -12.5t-39.5 -32t-29 -43t-11.5 -46.5q0 -6 2.5 -11.5t11.5 -5.5q19 0 40 14
t38.5 35.5t29 46.5t11.5 46q0 9 -10 9z" />
    </font>
</defs>
</svg>
