<?xml version="1.0" standalone="no"?>
<!DOCTYPE svg PUBLIC "-//W3C//DTD SVG 1.1//EN" "http://www.w3.org/Graphics/SVG/1.1/DTD/svg11.dtd" >
<svg xmlns="http://www.w3.org/2000/svg" xmlns:xlink="http://www.w3.org/1999/xlink" version="1.1">
<metadata>
Created by FontForge 20170731 at Thu Oct  2 00:57:43 2014
 By Aleksey,,,
Copyright (c) 2013 by dcoxy Medina Gregory. All rights reserved. 
You need my agreement for every diffusions, reproduction and commercial use. 
Thank you to contact me before: dcoxymg@gmail.com
</metadata>
<defs>
<font id="HolyMolylight" horiz-adv-x="589" >
  <font-face 
    font-family="Holy Moly light"
    font-weight="400"
    font-stretch="normal"
    units-per-em="1000"
    panose-1="2 0 0 0 0 0 0 0 0 0"
    ascent="800"
    descent="-200"
    x-height="507"
    cap-height="697"
    bbox="-260.909 -241.113 897 896"
    underline-thickness="50"
    underline-position="-150"
    unicode-range="U+0020-2212"
  />
<missing-glyph horiz-adv-x="251" 
 />
    <glyph glyph-name=".notdef" horiz-adv-x="251" 
 />
    <glyph glyph-name=".null" horiz-adv-x="0" 
 />
    <glyph glyph-name="nonmarkingreturn" horiz-adv-x="251" 
 />
    <glyph glyph-name="space" unicode=" " horiz-adv-x="251" 
 />
    <glyph glyph-name="space" unicode="&#xa0;" horiz-adv-x="251" 
 />
    <glyph glyph-name="exclam" unicode="!" horiz-adv-x="245" 
d="M54 627q0 24 11 39.5t27 23.5t35 7.5t35 -8t27 -23.5t11 -39v-383q0 -24 -11 -39.5t-27 -23.5t-35 -7.5t-35 8t-27 23t-11 39.5v383zM127 146q23 0 39 -11t23.5 -27t7.5 -35t-7.5 -35t-23.5 -27t-39 -11q-24 0 -39.5 11t-23.5 27t-7.5 35t8 35t23 27t39.5 11z" />
    <glyph glyph-name="numbersign" unicode="#" horiz-adv-x="391" 
d="M292 429q-3 0 -9 2q-2 -11 -4.5 -23t-4.5 -23q3 -1 6.5 -1.5t6.5 -1.5q16 -3 21.5 -14.5t2 -23.5t-14 -20.5t-26.5 -5.5q-4 0 -10 2q-1 -4 -1.5 -7t-1.5 -7q-3 -16 -14.5 -21t-23.5 -1.5t-20.5 14t-5.5 26.5q0 3 2 9q-11 2 -22.5 5t-23.5 5q-1 -4 -1 -7t-1 -7
q-3 -16 -15 -21t-24 -1.5t-20.5 14t-5.5 26.5q1 2 1 4.5t1 4.5q-4 1 -7 1.5t-7 1.5q-16 3 -21 15t-1.5 24t14 20.5t26.5 5.5q6 -2 9 -2q3 11 5.5 22.5t4.5 22.5q-4 1 -7 1.5t-7 1.5q-16 3 -21 15t-1.5 24t14 20.5t26.5 5.5q6 -2 9 -2q1 3 1.5 6.5t1.5 6.5q3 16 15 21t24 2
t20.5 -14t5.5 -27q-1 -2 -1 -4.5t-1 -4.5l45 -9q1 3 1.5 6.5t1.5 6.5q3 16 15 21t24 2t20.5 -14t5.5 -27q-2 -6 -2 -9q3 -1 6.5 -1.5t6.5 -1.5q16 -3 21.5 -14.5t2 -23.5t-14.5 -20.5t-27 -5.5zM208 399q2 11 5 22.5t5 22.5q-11 2 -23 4.5t-23 5.5q-2 -12 -4.5 -23.5
t-4.5 -22.5z" />
    <glyph glyph-name="dollar" unicode="$" horiz-adv-x="600" 
d="M407 383q42 -18 69 -43t41 -53t18 -57t1.5 -55t-9.5 -46t-15 -31q-38 -51 -92.5 -72.5t-115.5 -26.5q0 -2 -0.5 -2.5t-0.5 -2.5q-3 -22 -18 -32t-32.5 -8.5t-32 13t-14.5 32.5q-44 3 -86 9q-29 4 -50.5 22t-21.5 51q0 13 6 27t15.5 25t22.5 17t28 4q26 -4 52 -6.5
t52 -3.5q5 32 8.5 64t8.5 64q-5 1 -8.5 1.5t-7.5 1.5q-46 8 -77 27t-50.5 44.5t-28.5 55t-10.5 57.5t2.5 51.5t11 37.5q31 66 91 97.5t130 39.5q1 4 1 7t1 7q3 23 19.5 32.5t34.5 7.5t31.5 -15t10.5 -36q23 -2 45.5 -4t43.5 -6q15 -3 26 -12t17.5 -22t8.5 -28t-2 -28
q-8 -31 -34 -43.5t-55 -7.5q-14 3 -31 5.5t-37 3.5l-18 -147q29 -6 52 -16zM203 464q0 -14 6 -23t15 -14t19 -7.5t16 -3.5q4 31 7.5 61t7.5 60q-29 -8 -48.5 -25.5t-22.5 -47.5zM323 148q14 3 27 7t23.5 11t16.5 17t6 24q-1 16 -18 26.5t-42 18.5q-3 -26 -6.5 -52t-6.5 -52z
" />
    <glyph glyph-name="ampersand" unicode="&#x26;" horiz-adv-x="756" 
d="M673 443q23 0 34.5 -15t11.5 -33.5t-11.5 -33.5t-34.5 -15h-42v-427q0 -35 -22.5 -52.5t-50 -17.5t-50 17.5t-22.5 52.5v96h-1q-35 -6 -72 -10.5t-74 -4.5t-73.5 5t-71.5 18q-49 19 -90 55.5t-51 90.5q-11 62 11.5 107t64.5 75q-35 32 -52.5 75.5t-9.5 100.5
q8 47 40.5 83.5t74.5 56.5q66 30 136.5 30.5t139.5 -13.5q15 -3 26 -12t17.5 -22t8.5 -28t-2 -28q-8 -30 -34 -43t-55 -7q-48 9 -88.5 8.5t-80.5 -14.5h-1q-11 -5 -24.5 -15t-14.5 -32q0 -17 6 -31.5t20 -25t37 -15.5t57 -3q6 1 12.5 1h12.5q33 0 50.5 -21t19.5 -46.5
t-11.5 -48.5t-43.5 -29q-2 -1 -8 -1.5t-13 -0.5t-13 0.5t-9 0.5q-67 5 -101 -12t-32 -52q2 -19 18 -30.5t32 -16.5q47 -14 97.5 -14.5t105.5 9.5q17 4 39 -1q0 87 -0.5 173t0.5 179q0 35 23 52.5t50 17.5t49.5 -17.5t22.5 -52.5v-63h42v0z" />
    <glyph glyph-name="quotesingle" unicode="'" horiz-adv-x="249" 
d="M90 598q10 37 33 49t42 3t26.5 -37t-12.5 -70q-16 -33 -43.5 -59.5t-62.5 -39.5q-21 -7 -24 6t4 37t18 54t19 57z" />
    <glyph glyph-name="parenleft" unicode="(" horiz-adv-x="331" 
d="M264 613q-29 -31 -50.5 -68.5t-36 -78.5t-22 -84t-8.5 -85q-2 -43 2 -86.5t15.5 -85.5t32 -80.5t51.5 -69.5q16 -17 13.5 -36t-15 -32t-32 -15.5t-35.5 14.5q-37 38 -63 84.5t-41.5 97t-21.5 104t-3 105.5q5 104 38.5 205.5t106.5 179.5q16 17 35 14.5t32 -15.5t15.5 -32
t-13.5 -36z" />
    <glyph glyph-name="parenright" unicode=")" horiz-adv-x="329" 
d="M60 613q-16 17 -13.5 36t15.5 32t31.5 15.5t35.5 -14.5q73 -78 106.5 -179.5t38.5 -205.5q3 -52 -3 -105.5t-21.5 -104t-41.5 -97t-63 -84.5q-17 -17 -36 -14.5t-31.5 15.5t-15.5 32t14 36q31 31 51.5 69.5t32 80.5t15 85.5t2.5 86.5q-2 42 -9.5 85t-21.5 84t-35.5 78.5
t-50.5 68.5z" />
    <glyph glyph-name="asterisk" unicode="*" horiz-adv-x="321" 
d="M236 522q13 0 19 -8.5t6 -18t-6 -18t-19 -8.5h-24q4 -4 7 -8t7 -8q8 -10 6.5 -20.5t-9 -18t-17.5 -8.5t-18 9q-2 2 -3 4t-3 4v-8q0 -13 -8.5 -19.5t-18.5 -6.5t-18.5 6.5t-8.5 19.5v17q-3 -4 -11 -12q-9 -9 -19.5 -7.5t-17.5 8.5t-8.5 17.5t7.5 19.5l12 12h-16
q-13 0 -19.5 8.5t-6.5 18t6.5 18t19.5 8.5h23q-3 4 -6.5 8t-6.5 8q-8 10 -6.5 20.5t8.5 18t17 8.5t18 -9q2 -2 3.5 -4t3.5 -4v8q0 13 8.5 19t18 6t18 -6t8.5 -19v-17q8 8 12 11q9 9 19.5 8t17.5 -8t8 -17.5t-8 -19.5q-3 -3 -5.5 -6t-5.5 -6h16v0z" />
    <glyph glyph-name="plus" unicode="+" horiz-adv-x="543" 
d="M413 290q35 0 52.5 -22.5t17.5 -50t-17.5 -50t-52.5 -22.5h-75v-75q0 -35 -22.5 -53t-50 -18t-50 18t-22.5 53v75h-75q-35 0 -53 22.5t-18 50t18 50t53 22.5h75v75q0 35 22.5 52.5t50 17.5t50 -17.5t22.5 -52.5v-75h75v0z" />
    <glyph glyph-name="comma" unicode="," horiz-adv-x="249" 
d="M47 57q-2 30 18.5 41.5t45 7t43.5 -23.5t14 -51q-6 -44 -27 -82.5t-51 -70.5q-16 -17 -35 -18.5t-32 7.5t-15.5 25.5t13.5 33.5q22 23 25 56t1 75z" />
    <glyph glyph-name="hyphen" unicode="-" horiz-adv-x="449" 
d="M302 302q23 0 38.5 -11t23.5 -27t8 -35t-8 -35t-23.5 -27t-38.5 -11h-143q-23 0 -39 11t-24 27t-8 35t8 35t23.5 27t39.5 11h143v0z" />
    <glyph glyph-name="period" unicode="." horiz-adv-x="276" 
d="M119 146q23 0 39 -11t23.5 -27t8 -35t-7.5 -35t-24 -27t-39 -11t-39 11t-23.5 27t-8 35t7.5 35t23.5 27t39.5 11z" />
    <glyph glyph-name="slash" unicode="/" horiz-adv-x="444" 
d="M288 667q8 22 26.5 29t36 2.5t28 -20t3.5 -37.5q-60 -175 -119 -348t-119 -348q-8 -22 -26 -29t-35.5 -2t-28.5 20t-3 37l237 696v0z" />
    <glyph glyph-name="zero" unicode="0" horiz-adv-x="590" 
d="M508 534q18 -44 26.5 -99.5t5.5 -114t-18.5 -114.5t-44.5 -100.5t-72.5 -73.5t-103.5 -32h-9h-9q-53 3 -93 25.5t-67.5 58t-44.5 81t-24 94.5t-6 98t10 91q7 37 22 76t38 73t54.5 59t72.5 35q46 11 86.5 3t74 -30t59.5 -56t43 -74zM284 146q26 -1 44.5 13.5t31 37
t19.5 49.5t10.5 51.5t4.5 43.5t1 25q0 3 -1 18.5t-4 35.5t-9 43t-16.5 43t-26.5 32.5t-38 13.5q-24 0 -41.5 -13t-29 -33.5t-19 -44t-11 -44.5t-5 -35.5t-1.5 -15.5q0 -6 -0.5 -24.5t1 -42.5t6.5 -50.5t15 -49t27 -37.5t42 -16z" />
    <glyph glyph-name="one" unicode="1" horiz-adv-x="427" 
d="M246 674q15 14 36.5 17.5t41 -2.5t33.5 -22.5t14 -43.5v-553q0 -35 -22.5 -53t-50 -18t-50 18t-22.5 53v333q-11 -14 -20.5 -28.5t-19.5 -28.5q-17 -25 -45 -34t-55 7q-12 7 -20.5 19t-12.5 26t-2.5 28.5t9.5 26.5q13 20 32 46t39 54t40 55t36 49t26.5 35.5t12.5 15.5z
" />
    <glyph glyph-name="two" unicode="2" horiz-adv-x="578" 
d="M446 149q23 0 39 -11t24 -27.5t8 -36t-7.5 -36t-23.5 -27.5t-39 -11h-337q-27 0 -42.5 18t-20 42t3 47t26.5 32q70 35 136.5 85.5t111.5 115.5q20 28 34 57.5t15 56.5q1 39 -17.5 60.5t-45 26.5t-54 -6t-44.5 -38q-11 -17 -15.5 -45t-4.5 -57q0 -24 -10 -39.5
t-26.5 -23.5t-35 -7.5t-35 8t-27.5 23t-11 39.5q-1 41 7 82.5t25.5 79t46 67.5t68.5 48q32 14 68 19t71 -0.5t67 -21.5t56 -44q31 -36 46 -78t15 -86t-13 -88t-38 -83t-55.5 -74.5t-65.5 -67.5q25 1 50 1h50z" />
    <glyph glyph-name="three" unicode="3" horiz-adv-x="598" 
d="M457 352q42 -31 65 -76t12 -107q-11 -54 -52 -90.5t-90 -54.5q-69 -26 -144 -24t-147 15q-15 3 -26 12t-17.5 22t-8.5 27.5t1 28.5q9 30 35 42.5t55 7.5q54 -10 104.5 -9.5t97.5 14.5q16 5 32.5 16.5t18.5 31.5q2 35 -32.5 51.5t-101.5 11.5h-9h-12.5t-12.5 0.5t-9 1.5
q-29 5 -43 28t-12 48.5t19.5 46.5t50.5 21h13t13 -1q67 -4 93 18.5t26 56.5q-1 23 -14 32.5t-25 14.5q-41 15 -81 15t-88 -9q-29 -6 -55.5 7t-34.5 44q-4 13 -2 28t9 27.5t18 21.5t26 12q69 14 139 13.5t136 -30.5q42 -19 74.5 -56t40.5 -84q8 -56 -9.5 -99.5t-52.5 -75.5z
" />
    <glyph glyph-name="four" unicode="4" horiz-adv-x="577" 
d="M463 306q24 0 39.5 -11t23.5 -27t7.5 -35t-8 -35t-23.5 -27t-39 -11h-68v-90q0 -23 -11 -39t-27 -24t-35 -7.5t-35 8t-27 23t-11 39.5v90h-118q-15 -2 -29.5 1.5t-26.5 12.5t-19.5 23t-7.5 33v399q0 24 11 39.5t27 23.5t35 7.5t35 -8t27 -23.5t11 -39v-323h55v136
q0 24 11 39.5t27 23t35 7.5t35 -7.5t27 -23.5t11 -39v-136h68v0z" />
    <glyph glyph-name="five" unicode="5" 
d="M530 289q8 -55 0 -105t-44 -95q-26 -31 -63.5 -51t-76.5 -28q-36 -7 -77 -9.5t-80.5 4.5t-73.5 25.5t-54 52.5q-18 30 -13.5 58t22.5 44.5t44.5 16t52.5 -26.5q8 -6 12 -8q17 -11 37.5 -16.5t36.5 -7.5t39 0.5t44.5 13t37 30t16.5 52.5q0 17 -7 32t-18 26.5t-25 19.5
t-28 12q-24 7 -52 6t-53 -5t-44 -9t-23 -6q-17 -5 -33.5 -1t-29.5 14t-21 25t-8 33q1 59 1 117.5t2 117.5q0 12 3 25t11.5 24t22.5 18.5t37 7.5h288q35 0 53 -22.5t18 -49t-17.5 -49t-52.5 -22.5h-218q-1 -20 -1 -39v-39q54 6 109.5 0.5t102.5 -26.5t80.5 -60t42.5 -100z
" />
    <glyph glyph-name="six" unicode="6" horiz-adv-x="599" 
d="M302 470q58 0 105.5 -22.5t79.5 -61t46.5 -89t5.5 -107.5q-7 -45 -31 -81.5t-58.5 -61t-76.5 -37t-85 -10.5q-62 4 -106.5 29t-73 60.5t-43 75.5t-15.5 74q-4 90 12 174.5t60.5 148t121 99t192.5 29.5q23 -1 38.5 -12.5t23.5 -28t8 -35.5t-8 -34.5t-23.5 -25.5t-38.5 -9
q-52 3 -85.5 -3t-54.5 -17.5t-31.5 -27t-16.5 -32.5q14 2 27 3.5t27 1.5zM302 132q21 0 39.5 8.5t32 22.5t21.5 33.5t8 41.5t-8 41t-21.5 33t-32 22.5t-39.5 8.5t-39.5 -8.5t-32.5 -22.5t-22 -33t-8 -41t8 -41.5t22 -33.5t32.5 -22.5t39.5 -8.5z" />
    <glyph glyph-name="seven" unicode="7" horiz-adv-x="585" 
d="M456 370q23 0 39 -11t23.5 -27.5t7.5 -35t-7.5 -35t-23.5 -27t-39 -10.5h-42t-42 1q-16 -37 -26 -75t-12 -80q-1 -35 -24.5 -52.5t-51 -17.5t-49.5 17.5t-21 52.5q2 41 9.5 79t20.5 76q-8 0 -14.5 -0.5t-14.5 -0.5q-23 -1 -39 9t-23.5 26t-7.5 35t8 35.5t23.5 28
t38.5 12.5t45.5 1h45.5q1 1 7 14t15 31t19.5 39.5t19.5 39.5t15 31t7 14q-66 -5 -132.5 -5t-130.5 15q-35 8 -46 32t-4 49.5t30 44t58 14.5q33 -3 77 -4t87.5 0t79.5 2t53 2q16 4 32.5 2t30 -10.5t22 -23t8.5 -35.5q-2 -69 -26.5 -131t-56.5 -122h11v0z" />
    <glyph glyph-name="eight" unicode="8" horiz-adv-x="587" 
d="M447 403q43 -30 67.5 -76.5t21.5 -105.5q-3 -50 -24 -91.5t-54.5 -71t-78 -45t-93.5 -13.5q-47 2 -89 18t-74 44t-52 67t-22 87q0 36 6.5 64t18.5 50t28 39t35 32q-14 20 -21 50.5t-5 60.5q3 36 18 69.5t39 58t56.5 39t71.5 13.5t72 -16.5t57 -41t37 -59.5t12 -73
q-2 -54 -27 -99zM298 580q-27 0 -46.5 -20t-19.5 -49t19.5 -49.5t46.5 -20.5t46.5 20.5t19.5 49.5t-19.5 49t-46.5 20zM296 125q25 0 47.5 8.5t39.5 23t26.5 34t9.5 41.5t-9.5 42t-26.5 34.5t-39.5 23t-47.5 8.5t-47.5 -8.5t-39 -23t-26 -34.5t-9.5 -42t9.5 -41.5t26 -34
t39 -23t47.5 -8.5z" />
    <glyph glyph-name="nine" unicode="9" horiz-adv-x="604" 
d="M292 220q-58 0 -105.5 22.5t-79.5 61t-46.5 89.5t-5.5 107q9 59 45.5 102t87.5 65.5t108.5 23t108.5 -25.5q61 -31 97.5 -88.5t41.5 -124.5q5 -54 -6.5 -112t-29.5 -108q-20 -52 -48.5 -96.5t-74.5 -77.5q-49 -35 -108 -47.5t-119 -10.5q-35 1 -52.5 24.5t-17.5 51.5
t17.5 50t52.5 20q52 -3 85.5 3t54.5 17.5t31.5 27t16.5 32.5q-27 -6 -54 -6zM292 558q-21 0 -39.5 -8.5t-32 -22.5t-21.5 -33t-8 -41t8 -41t21.5 -33.5t32 -22.5t39.5 -8t39.5 8t32.5 22.5t22 33.5t8 41t-8 41t-22 33t-32.5 22.5t-39.5 8.5z" />
    <glyph glyph-name="colon" unicode=":" horiz-adv-x="241" 
d="M118 146q23 0 39 -11t23.5 -27t8 -35t-7.5 -35t-24 -27t-39 -11q-24 0 -39.5 11t-23.5 27t-7.5 35t8 35t23 27t39.5 11zM118 263q-24 0 -39.5 11t-23.5 27t-7.5 35t8 35t23 27t39.5 11q23 0 39 -11t23.5 -27t8 -35t-7.5 -35t-24 -27t-39 -11z" />
    <glyph glyph-name="semicolon" unicode=";" horiz-adv-x="250" 
d="M118 213q-24 0 -39.5 11t-23.5 27t-7.5 35t8 35t23 27t39.5 11q23 0 39 -11t23.5 -27t8 -35t-7.5 -35t-24 -27t-39 -11zM57 29q-2 30 18.5 41.5t45 7t43.5 -23.5t15 -51q-7 -44 -27.5 -82.5t-51.5 -70.5q-16 -17 -35 -18.5t-31.5 7.5t-15 25.5t13.5 33.5q22 23 25 56
t0 75z" />
    <glyph glyph-name="less" unicode="&#x3c;" horiz-adv-x="462" 
d="M395 -41q15 -18 11.5 -38t-16.5 -32.5t-31 -14t-33 16.5q-70 86 -137.5 173.5t-135.5 176.5q-6 8 -6 27t11 34q61 84 116 171t115 172q13 19 33 20.5t36 -7.5t22 -26t-8 -36q-57 -81 -109.5 -163.5t-109.5 -163.5q60 -78 119.5 -155.5t122.5 -154.5z" />
    <glyph glyph-name="equal" unicode="=" horiz-adv-x="541" 
d="M119 240q-23 0 -39 11t-23.5 27t-8 35t7.5 35t23.5 27t39.5 11h295q23 0 39 -11t23.5 -27t7.5 -35t-7.5 -35t-23.5 -27t-39 -11h-295zM414 146q23 0 39 -11t23.5 -27t7.5 -35t-7.5 -35t-23.5 -27t-39 -11h-295q-23 0 -39 11t-23.5 27t-8 35t7.5 35t23.5 27t39.5 11h295z
" />
    <glyph glyph-name="greater" unicode="&#x3e;" horiz-adv-x="465" 
d="M60 -41q63 77 122.5 154.5t119.5 155.5q-57 81 -109.5 163.5t-109.5 163.5q-14 19 -8 36t22 26t35.5 7.5t33.5 -20.5q60 -85 115 -172t116 -171q11 -15 11 -34t-6 -27q-68 -89 -135.5 -176.5t-137.5 -173.5q-15 -18 -33 -16.5t-31 14t-16.5 32.5t11.5 38z" />
    <glyph glyph-name="question" unicode="?" horiz-adv-x="527" 
d="M250 146q24 0 39.5 -11t23.5 -27t7.5 -35t-8 -35t-23.5 -27t-39 -11q-24 0 -39.5 11t-23.5 27t-7.5 35t8 35t23 27t39.5 11zM400 663q29 -24 45 -57.5t21 -70t-0.5 -74t-18.5 -70.5q-9 -22 -19.5 -33.5t-22 -19t-23 -13.5t-22 -16.5t-19.5 -28.5t-15 -48
q-7 -34 -30.5 -51.5t-49.5 -18t-46 17t-19 52.5q0 57 28.5 97t76.5 73q32 22 43.5 49t8 51t-18.5 42t-35 23q-25 7 -41.5 -2t-27 -28.5t-15.5 -46t-6 -54.5q-1 -29 -22.5 -50.5t-49.5 -21.5q-32 0 -51.5 21.5t-21.5 50.5q-3 35 2.5 71t20 68t37.5 59t55 45q57 32 121 29
t115 -45z" />
    <glyph glyph-name="at" unicode="@" horiz-adv-x="904" 
d="M515 358q11 10 26.5 13.5t30 -1t25 -16.5t10.5 -32v-269q0 -19 -10 -31t-24.5 -16.5t-30 -2t-26.5 13.5q-31 -14 -68.5 -16.5t-69.5 10.5q-60 25 -92.5 75.5t-26.5 116.5q3 31 14 59t29.5 50t44 37t57.5 20q58 9 111 -11zM501 240q-14 18 -37.5 25t-46 1.5t-39 -24.5
t-17.5 -53t16 -54t40 -27t47 -1t37 23v110zM838 191q2 -80 -19 -155t-71 -138q-42 -54 -100.5 -86.5t-123.5 -44.5t-132 -3t-126 40q-70 36 -118 96t-73 132t-26 150.5t22 150.5q21 66 63 121t97.5 93.5t121.5 56t137 8.5q69 -8 131 -37t108 -82q55 -64 80.5 -141t28.5 -161
zM656 -15q35 45 50 97t13 108q-2 58 -20 112t-56 99q-32 37 -75.5 57t-91.5 26q-49 6 -95.5 -6t-85.5 -39t-68 -65.5t-44 -84.5q-16 -51 -15 -105.5t18 -104.5t50.5 -92.5t82.5 -67.5q42 -21 88.5 -27.5t92 1.5t86 31t70.5 61z" />
    <glyph glyph-name="A" unicode="A" horiz-adv-x="551" 
d="M459 481q17 -48 24 -99t8.5 -102.5t-1.5 -103.5t-6 -102q-2 -30 -21.5 -51.5t-50.5 -21.5q-14 0 -27.5 6t-24 15.5t-16.5 23t-5 28.5q1 21 2 41.5t3 41.5h-127v-87q0 -35 -22.5 -53t-50 -18t-50 18t-22.5 53v87q-22 1 -37 12t-22.5 27t-7.5 34t7.5 34t22.5 27t37 12v135
q0 35 22.5 52.5t50 17.5t50 -17.5t22.5 -52.5v-135h127q0 4 -0.5 23.5t-5 46t-14.5 57.5t-29.5 56.5t-49.5 43t-75 18.5h-12t-20 -0.5t-21 -1t-15 -1.5q-30 -5 -55.5 7t-34.5 44q-4 13 -2 28t9 28t18 22.5t26 11.5q66 10 134 6t128 -39q49 -29 82 -73.5t52 -98.5z" />
    <glyph glyph-name="B" unicode="B" horiz-adv-x="631" 
d="M474 366q21 -14 39 -32t31.5 -39.5t20 -45.5t3.5 -51q-5 -48 -27.5 -81.5t-56.5 -56t-76.5 -35.5t-87.5 -19t-89 -6.5t-81 1.5q-14 1 -27.5 6t-24 15t-17.5 24.5t-7 34.5v357q0 35 22.5 52.5t50 17.5t50 -17.5t22.5 -52.5v-14q35 1 55 20t21.5 41.5t-18 41.5t-63.5 20
q-23 1 -46 1t-46 -3q-15 -2 -28 4.5t-23 17t-16 24t-6 27.5q0 32 22 51t51 22q49 5 103 -1t100 -27.5t77 -60t33 -98.5q1 -29 -6 -55.5t-20 -49.5q35 -12 65 -33zM219 135q46 -5 84 1t65 18t42.5 28t15.5 32q0 22 -15 40.5t-42 29.5t-65 13.5t-85 -7.5v-155z" />
    <glyph glyph-name="C" unicode="C" horiz-adv-x="588" 
d="M460 148q15 2 28 -4t23 -16.5t16 -24.5t6 -27q0 -32 -22 -51t-51 -22q-41 -5 -83.5 -2t-82.5 13.5t-77 30t-67 49.5q-50 48 -76 113t-24 134q2 72 29 139t79 117q59 56 133.5 80t154.5 19q30 -2 51.5 -21.5t21.5 -51.5q0 -14 -6 -27.5t-15.5 -24t-23 -16.5t-28.5 -5
q-33 3 -65 0q-9 -2 -38.5 -12t-62 -34t-58 -63.5t-26.5 -99.5q-1 -59 19.5 -95.5t46 -56.5t48 -27.5t26.5 -8.5q27 -7 56.5 -8t67.5 3z" />
    <glyph glyph-name="D" unicode="D" horiz-adv-x="592" 
d="M429 587q50 -52 78 -120t27 -140q-1 -69 -26.5 -136t-79.5 -112q-69 -58 -150.5 -71.5t-168.5 0.5q-8 1 -18 7.5t-18.5 16.5t-14.5 23.5t-6 29.5v360q0 23 11 39t27 23.5t35 8t35 -7.5t27 -24t11 -39v-300q61 -2 99 19.5t58.5 53t27 65t5.5 54.5q-1 33 -13.5 64
t-32.5 57.5t-46.5 47t-55.5 31.5q-17 7 -30 10t-26 4t-28 0t-34 -2q-15 -1 -28.5 5t-23 16.5t-15.5 24.5t-6 28q0 31 21.5 51t51.5 22q84 5 165.5 -20.5t141.5 -88.5z" />
    <glyph glyph-name="E" unicode="E" horiz-adv-x="590" 
d="M461 146q23 0 39 -11t23.5 -27t7.5 -35t-7.5 -35t-23.5 -27t-39 -11h-343q-9 0 -22 4t-25 13t-21 23.5t-9 35.5q-1 92 -0.5 182.5t0.5 181.5q0 23 11 39t27 23.5t35 8t35 -7.5t27 -24t11 -39v-48h66q30 0 51.5 -21.5t21.5 -51.5t-21.5 -51.5t-51.5 -21.5h-66v-100h274z
M118 548q-35 0 -53 22.5t-18 50t18 50t53 22.5h287q35 0 52.5 -22.5t17.5 -50t-17.5 -50t-52.5 -22.5h-287z" />
    <glyph glyph-name="F" unicode="F" horiz-adv-x="399" 
d="M428 694q35 0 52.5 -22.5t17.5 -50t-17.5 -50t-52.5 -22.5h-309q-35 0 -53 22.5t-18 50t18 50t53 22.5h309zM275 323q30 0 51.5 -21.5t21.5 -50.5q0 -30 -21.5 -51.5t-51.5 -21.5h-66v-108q0 -35 -22.5 -53t-50 -18t-50 18t-22.5 53v371q0 35 22.5 52.5t50 17.5t50 -17.5
t22.5 -52.5v-118h66z" />
    <glyph glyph-name="G" unicode="G" horiz-adv-x="587" 
d="M533 268q1 -21 1 -53.5t-0.5 -62.5t-1 -52t-0.5 -23q0 -33 -22 -51t-51 -22q-41 -5 -83.5 -3.5t-82.5 11.5t-77 29t-68 49q-51 49 -76 115t-23 135q3 80 35.5 148t86 116.5t124 73.5t150.5 20q30 -2 51.5 -22t21.5 -51q0 -14 -6 -27.5t-15.5 -23.5t-23 -16t-28.5 -6
q-52 1 -90.5 -11t-66.5 -32t-46 -44.5t-28.5 -49t-14.5 -46t-4 -34.5q0 -18 4.5 -49t23.5 -61t57.5 -53.5t106.5 -26.5v74h-55q-30 0 -51.5 21.5t-21.5 51.5t21.5 51.5t51.5 21.5q32 0 64 0.5t64 -0.5q37 -1 54 -27.5t19 -69.5z" />
    <glyph glyph-name="H" unicode="H" horiz-adv-x="602" 
d="M397 622q0 35 22.5 52.5t50 17.5t50 -17.5t22.5 -52.5v-552q0 -35 -22.5 -53t-50 -18t-50 18t-22.5 53v552zM303 351q35 0 52.5 -22.5t17.5 -50t-17.5 -50t-52.5 -22.5h-107v-136q0 -23 -11 -39t-27 -24t-35 -7.5t-35 8t-27 23t-11 39.5v552q0 23 11 38.5t27 23.5t35 8
t35 -8t27 -23.5t11 -38.5v-271h107z" />
    <glyph glyph-name="I" unicode="I" horiz-adv-x="459" 
d="M332 146q23 0 39 -11t23.5 -27t8 -35t-7.5 -35t-24 -27t-39 -11h-212q-24 0 -39.5 11t-23.5 27t-8 35t8 35t23.5 27t39.5 11h35v405h-35q-24 0 -39.5 11t-23.5 27t-8 35t8 35t23.5 27t39.5 11h212q23 0 39 -11t23.5 -27t8 -35t-7.5 -35t-24 -27t-39 -11h-31v-405h31v0z
" />
    <glyph glyph-name="J" unicode="J" horiz-adv-x="555" 
d="M464 695q29 0 46.5 -17.5t22.5 -40.5t-2.5 -45t-28.5 -32q1 -31 2 -85t-4 -116t-18.5 -126t-41 -116t-71.5 -84.5t-110 -32.5q-47 0 -85.5 21.5t-66 56t-42.5 78.5t-14 89q1 35 23 52.5t48.5 17.5t49 -17.5t25.5 -52.5q2 -32 9 -50t15.5 -28t18 -13t16.5 -4
q35 -1 55 26.5t30 64.5t13 74.5t4 58.5q2 42 1.5 87t-2.5 88h-181q-23 0 -39 11t-23.5 27t-8 35t7.5 35t23.5 27t39.5 11h288v0z" />
    <glyph glyph-name="K" unicode="K" horiz-adv-x="594" 
d="M336 411q-23 -19 -51.5 -21t-51.5 21q-10 10 -15.5 23.5t-6 28t4.5 28.5t17 23q45 36 89 72.5t89 72.5q23 19 51.5 21t51.5 -21q10 -10 15.5 -23.5t6 -28t-4.5 -28.5t-17 -23q-45 -36 -89 -72t-89 -73zM516 122q26 -24 23 -51.5t-22.5 -47t-48.5 -23.5t-55 19
q-55 50 -109.5 99t-108.5 98v-145q0 -23 -11 -39t-27 -24t-35 -7.5t-35 8t-27 23t-11 39.5v551q0 23 11 39t27 23.5t35 7.5t35 -7.5t27 -23.5t11 -39v-210q81 -73 160.5 -145t160.5 -145z" />
    <glyph glyph-name="L" unicode="L" horiz-adv-x="600" 
d="M472 146q23 0 39 -11t23.5 -27t8 -35t-7.5 -35t-24 -27t-39 -11h-344q-9 0 -21.5 4t-24.5 13t-21 23.5t-9 35.5q-2 139 -1 276t1 275q0 24 11 39.5t27 23.5t35 7.5t35 -8t27 -23.5t11 -39v-481h274v0z" />
    <glyph glyph-name="M" unicode="M" horiz-adv-x="614" 
d="M407 655q19 25 44.5 34t48.5 3.5t39 -23t16 -44.5v-552q0 -23 -11 -39t-27 -24t-35 -7.5t-35 8t-27 23t-11 39.5v334q-6 -11 -17 -29.5t-25.5 -36t-32 -30t-36.5 -12.5q-20 0 -37 13t-30.5 30.5t-23 36.5t-14.5 32v-340q0 -23 -11 -39t-27 -24t-35 -7.5t-35 8t-27 23
t-11 39.5v277.5t2 277.5q0 31 18 48t41.5 21t47.5 -5.5t37 -30.5q25 -41 51.5 -80t53.5 -78q28 38 54.5 77t54.5 77z" />
    <glyph glyph-name="N" unicode="N" horiz-adv-x="593" 
d="M393 628q0 23 11 39t27 23.5t35 8t35 -7.5t27 -24t11 -39v-537q0 -37 -16 -58.5t-38.5 -28.5t-46 2t-38.5 34q-53 85 -103 169t-101 169v-308q0 -23 -11 -39t-27 -24t-35 -7.5t-35 8t-27 23t-11 39.5v558q0 27 17 44.5t41 23t49 -3.5t41 -36q48 -82 97 -162.5t98 -161.5
v296v0z" />
    <glyph glyph-name="O" unicode="O" horiz-adv-x="616" 
d="M533 534q18 -44 26.5 -99.5t5.5 -114t-18.5 -114.5t-44.5 -100.5t-72.5 -73.5t-103.5 -32h-9h-9q-53 3 -93 25.5t-67.5 58t-44.5 81t-24 94.5t-6 98t10 91q7 37 22 76t38 73t54.5 59t72.5 35q46 11 86.5 3t74 -30t59.5 -56t43 -74zM309 146q26 -1 44.5 13.5t31 37
t19.5 49.5t10.5 51.5t4.5 43.5t1 25q0 3 -1 18.5t-4 35.5t-9 43t-16.5 43t-26.5 32.5t-38 13.5q-24 0 -41.5 -13t-29 -33.5t-19 -44t-11 -44.5t-5 -35.5t-1.5 -15.5q0 -6 -0.5 -24.5t1 -42.5t6.5 -50.5t15 -49t27 -37.5t42 -16z" />
    <glyph glyph-name="P" unicode="P" horiz-adv-x="592" 
d="M428 608q48 -40 76 -98.5t27 -121.5q-1 -59 -25.5 -118t-71.5 -97q-49 -38 -103 -54.5t-113 -14.5v-34q0 -23 -11 -39t-27 -24t-35 -7.5t-35 8t-27 23t-11 39.5v369q0 23 11 39t27 23.5t35 7.5t35 -7.5t27 -23.5t11 -39v-191h28q47 3 78.5 24t46 51.5t14 66t-17 67
t-48 54.5t-77.5 29q-23 2 -55.5 4t-65.5 0q-15 -2 -28.5 4t-23 16.5t-15.5 24t-6 27.5q0 32 21.5 51.5t51.5 21.5q82 7 162 -10.5t145 -70.5z" />
    <glyph glyph-name="Q" unicode="Q" horiz-adv-x="622" 
d="M511 121q2 -2 3.5 -4.5t3.5 -4.5q9 -12 10.5 -26t-3 -28t-13 -26t-20.5 -19q-23 -13 -44.5 -9.5t-38.5 17.5q-36 -18 -83 -21h-10h-9q-53 3 -93 25.5t-67.5 58.5t-44.5 81.5t-24 94.5t-6 98t10 91q7 37 22 76t38 73t54.5 59t72.5 35q46 11 86 3t73.5 -30.5t59.5 -56
t43 -73.5q18 -42 26.5 -95t6.5 -109t-15 -110.5t-38 -99.5zM407 256q5 11 8.5 37t4 58.5t-3.5 68t-15 65t-29.5 48.5t-47.5 20t-51 -26t-36 -69.5t-18.5 -93t3.5 -96t29 -79.5t58 -43h1q-8 10 -15 19t-14 19q-9 12 -10.5 26.5t2.5 28.5t13 26t21 19q28 17 54.5 7t44.5 -33
q1 -1 1 -2z" />
    <glyph glyph-name="R" unicode="R" horiz-adv-x="618" 
d="M537 122q26 -24 23 -51.5t-22 -47t-48.5 -23.5t-55.5 19q-55 50 -108.5 99t-107.5 99v-147q0 -23 -11 -38.5t-27 -23.5t-35 -8t-35 8t-27 23.5t-11 38.5v368q0 24 11 39.5t27 23.5t35 7.5t35 -8t27 -23.5t11 -39v-25q42 -12 74.5 -12t55 9t33.5 24.5t11 33.5
q-2 23 -19.5 37.5t-44 23.5t-58 13t-61 5t-53.5 0t-35 -2q-15 -1 -28.5 5t-23 16.5t-15.5 23.5t-6 27q0 32 21.5 51t51.5 22q37 3 76 3.5t77.5 -4.5t75.5 -16.5t70 -30.5q23 -13 43.5 -31t35.5 -39.5t23.5 -46.5t8.5 -52q0 -33 -10.5 -64.5t-31.5 -58t-52 -45.5t-73 -25
q44 -40 86.5 -79.5t86.5 -78.5z" />
    <glyph glyph-name="S" unicode="S" horiz-adv-x="597" 
d="M415 385q43 -18 69.5 -43t41 -53t18.5 -57t1.5 -54.5t-10 -46t-15.5 -31.5q-33 -44 -80 -66t-99.5 -29.5t-107.5 -4t-104 9.5q-30 4 -51.5 22.5t-21.5 50.5q0 13 6 27t15.5 25t23 17t28.5 4q35 -5 71.5 -8t72.5 -2q13 0 35.5 2t44 8t37 18.5t14.5 35.5q0 16 -19.5 27.5
t-46 19t-55.5 12.5t-49 8q-46 8 -77.5 27.5t-50.5 45t-28 54.5t-10.5 57t2 51.5t10.5 37.5q26 56 73.5 86.5t104.5 43.5t117.5 11t112.5 -11q15 -3 26 -12t17.5 -22t8.5 -27.5t-1 -27.5q-9 -31 -35 -44t-55 -7q-28 6 -67 8.5t-76 -3.5t-64 -24t-30 -54v-1q-1 -15 7 -24.5
t18.5 -14.5t20.5 -6.5t14 -2.5q36 -8 72.5 -13.5t70.5 -19.5z" />
    <glyph glyph-name="T" unicode="T" horiz-adv-x="552" 
d="M211 441q0 35 22.5 52.5t50 17.5t50 -17.5t22.5 -52.5v-371q0 -35 -22.5 -53t-50 -18t-50 18t-22.5 53v371zM438 694q35 0 52.5 -22.5t17.5 -50t-17.5 -50t-52.5 -22.5h-309q-35 0 -53 22.5t-18 50t18 50t53 22.5h309z" />
    <glyph glyph-name="U" unicode="U" horiz-adv-x="633" 
d="M564 563q5 -30 10.5 -74t6.5 -94t-4 -103t-21 -101.5t-44.5 -89.5t-73.5 -67q-42 -25 -93 -32t-98 7q-49 14 -83.5 44t-57 69.5t-34.5 85.5t-16 92q-8 85 3.5 173.5t41.5 168.5q11 28 35 43.5t55 7.5q13 -4 24.5 -13t19 -21.5t9.5 -26.5t-3 -28q-6 -17 -13.5 -51
t-13.5 -69.5t-10.5 -63.5t-4.5 -33q0 -7 -1.5 -27.5t0 -47.5t6.5 -56.5t18 -54.5t35.5 -41.5t58.5 -16.5q47 0 73.5 29t38 72.5t12 94t-3.5 95t-10 75.5t-6 34q-4 16 -8 31t-9 31q-11 33 5.5 56t43 30t54 -4t38.5 -44q6 -20 11 -40t9 -40z" />
    <glyph glyph-name="V" unicode="V" horiz-adv-x="627" 
d="M494 696q13 0 27 -6t25 -15.5t17 -23t4 -28.5q-13 -95 -23.5 -190t-33.5 -189q-9 -36 -23.5 -79t-38 -80.5t-57 -62t-79.5 -22.5q-47 1 -80.5 25.5t-57.5 61t-39.5 79t-25.5 80.5q-24 93 -37 187t-23 190q-2 15 4.5 28t17 23t24 16t27.5 6q32 0 51 -22t22 -51
q3 -27 9 -72.5t14.5 -98t19 -106.5t23 -97.5t26 -71.5t27.5 -29q15 0 28 27.5t23.5 71.5t19 98.5t15.5 107t12 98t9 72.5q5 30 23 51.5t50 21.5z" />
    <glyph glyph-name="W" unicode="W" horiz-adv-x="816" 
d="M679 698q14 0 27.5 -6t23.5 -15.5t16 -22.5t5 -28q-5 -78 -12 -155.5t-18 -155.5q-5 -34 -11.5 -70.5t-17 -71.5t-26 -68t-39.5 -59q-11 -12 -25.5 -22.5t-30.5 -16.5t-33.5 -7t-33.5 4q-39 13 -61.5 43t-36.5 66q-2 -5 -3.5 -9t-3.5 -9q-13 -30 -36.5 -58t-58.5 -34
q-34 -5 -66.5 6.5t-55.5 38.5t-39.5 59t-28 66.5t-19 70t-13.5 70.5q-13 78 -21 155.5t-13 155.5q-1 23 9 39t25.5 23.5t34.5 8t35.5 -7.5t28 -24t13.5 -39q4 -63 9.5 -125.5t14.5 -121.5q2 -11 5.5 -30.5t8 -43t9.5 -47t10.5 -43t11 -31.5t10.5 -12q8 0 17 31t17 75t15 92
t12 82q4 32 25 47t46 15t46 -14t26 -41q6 -37 12 -85.5t13 -92t15.5 -73.5t20.5 -31q5 0 10 12.5t10 32.5t9 43.5t7.5 46t6 40.5t3.5 26q8 63 12.5 124.5t9.5 124.5q2 29 21.5 50.5t51.5 21.5z" />
    <glyph glyph-name="X" unicode="X" horiz-adv-x="591" 
d="M526 111q13 -20 12 -38.5t-10.5 -33.5t-26 -24.5t-35 -11t-36 6t-30.5 27.5l-108 171q-26 -44 -52 -86.5t-52 -86.5q-12 -20 -29.5 -28t-35.5 -6.5t-34.5 11t-26.5 24t-11 33.5t11 39q36 60 72 119.5t73 119.5q-74 118 -144 240q-18 30 -7.5 57t34.5 40.5t52.5 9.5
t46.5 -34q26 -44 51.5 -87t51.5 -87q27 45 54 88.5t53 88.5q18 30 46.5 33.5t52.5 -10t34.5 -40.5t-7.5 -57q-37 -61 -73.5 -121.5t-74.5 -120.5q37 -60 74 -118.5t75 -117.5z" />
    <glyph glyph-name="Y" unicode="Y" horiz-adv-x="636" 
d="M535 646q12 -38 21.5 -78.5t14 -82t2 -83t-13.5 -80.5q-20 -68 -66.5 -112.5t-109.5 -61.5v-75q0 -30 -21.5 -51.5t-50.5 -21.5q-30 0 -51.5 21.5t-21.5 51.5v74q-70 16 -120.5 63t-63.5 123q-13 79 -0.5 157t41.5 152q11 28 34.5 43.5t54.5 7.5q13 -4 25 -13t19.5 -21.5
t9.5 -27t-3 -28.5q-11 -30 -20.5 -60t-14.5 -62q-15 -94 12.5 -144.5t90.5 -52.5q44 -2 70.5 16t39.5 47t14.5 66.5t-4.5 76.5q-5 30 -12 59t-16 58q-7 23 -2 40.5t18.5 29.5t31.5 17t36 1.5t33.5 -15.5t22.5 -34z" />
    <glyph glyph-name="Z" unicode="Z" horiz-adv-x="588" 
d="M447 697q27 0 46 -11t29 -28t9.5 -37t-10.5 -37q-83 -138 -166.5 -274t-165.5 -274q-12 -20 -29.5 -28t-35.5 -7t-34.5 10.5t-26.5 24.5t-11 34t11 39q66 111 133 220.5t134 219.5h-190q-35 0 -53 23t-18.5 51t17 51t52.5 23h309zM463 146q24 0 39.5 -11t23.5 -27
t7.5 -35t-8 -35t-23.5 -27t-39 -11h-142q-24 0 -39.5 11t-23.5 27t-7.5 35t8 35t23 27t39.5 11h142z" />
    <glyph glyph-name="bracketleft" unicode="[" horiz-adv-x="337" 
d="M237 -55q24 0 35.5 -15.5t11.5 -33.5t-11.5 -33.5t-35.5 -15.5h-142q-26 0 -37.5 18.5t-9.5 38.5v674q-2 20 9.5 37.5t37.5 17.5h142q24 0 35.5 -15t11.5 -33.5t-11.5 -33.5t-35.5 -15h-92v-591h92v0z" />
    <glyph glyph-name="backslash" unicode="\" horiz-adv-x="441" 
d="M145 667l237 -696q7 -22 -3.5 -37t-28 -20t-36 2t-25.5 29q-60 175 -119 348t-119 348q-8 22 3 37.5t28.5 20t36 -2.5t26.5 -29z" />
    <glyph glyph-name="bracketright" unicode="]" horiz-adv-x="341" 
d="M97 -55h92v591h-92q-24 0 -35.5 15t-11.5 33.5t11.5 33.5t35.5 15h142q26 0 37.5 -17.5t9.5 -37.5v-674q2 -20 -9.5 -38.5t-37.5 -18.5h-142q-24 0 -35.5 15.5t-11.5 33.5t11.5 33.5t35.5 15.5z" />
    <glyph glyph-name="grave" unicode="`" horiz-adv-x="378" 
d="M166 648q21 -23 38 -29.5t41 -4.5q19 1 27 -6.5t6.5 -18t-11 -20t-24.5 -12.5q-36 -8 -67.5 0t-50.5 22q-22 16 -24.5 35.5t6.5 33t25.5 16t33.5 -15.5z" />
    <glyph glyph-name="a" unicode="a" 
d="M403 493q15 15 36.5 19t42 -2t34.5 -23t14 -44v-372q0 -27 -14 -43.5t-33.5 -22.5t-41 -2.5t-36.5 17.5q-43 -19 -95 -22t-97 15q-83 34 -128 104t-37 162q4 43 19.5 81.5t41.5 69.5t61 51.5t79 26.5q40 6 79.5 2.5t74.5 -17.5zM384 330q-20 25 -52 34.5t-63.5 1.5
t-54.5 -34t-24 -73t22 -75t55.5 -37.5t65.5 -1.5t51 32v153z" />
    <glyph glyph-name="b" unicode="b" horiz-adv-x="587" 
d="M531 262q1 -44 -11 -84.5t-36 -74.5t-58.5 -58.5t-77.5 -35.5q-46 -12 -91 -8.5t-85 21.5q-16 -16 -37 -19.5t-40.5 3.5t-33 24t-13.5 44v552q0 23 11 39t27 23.5t35 8t35 -7.5t27 -24t11 -39v-126q34 11 71 12t72 -7q42 -11 77 -33.5t60.5 -55t40 -72t16.5 -82.5z
M194 178q21 -26 54.5 -33.5t66 2.5t55 37.5t20.5 71.5q-1 31 -13 53t-30.5 36t-40.5 20t-43.5 4t-39.5 -11.5t-29 -25.5v-154z" />
    <glyph glyph-name="c" unicode="c" horiz-adv-x="593" 
d="M497 216q12 -7 21 -19t13 -26t2.5 -28.5t-10.5 -26.5q-24 -34 -56 -59t-69 -39.5t-77.5 -17.5t-80.5 8q-41 10 -75 31.5t-59 52t-39.5 67.5t-16.5 79q-2 44 9.5 86t34.5 77t56.5 61.5t77.5 39.5q37 11 76 11t76 -10.5t70 -31.5t57 -52q18 -23 20.5 -51.5t-20.5 -51.5
q-10 -9 -23.5 -14.5t-27.5 -6t-28 4.5t-24 16q-17 19 -33.5 29.5t-30 15.5t-23.5 6t-14 1q-13 1 -31 -2.5t-34.5 -14t-28.5 -31t-13 -54.5q-1 -29 7.5 -50t22 -35.5t30 -23t32.5 -11.5q34 -4 61.5 8.5t47.5 35.5t46 32.5t54 -6.5z" />
    <glyph glyph-name="d" unicode="d" horiz-adv-x="592" 
d="M535 146v-71q0 -27 -13.5 -43.5t-33 -23t-41 -3t-36.5 17.5q-43 -19 -90 -22.5t-94 11.5q-42 13 -76 39t-57.5 60t-34.5 75t-6 86q4 42 19.5 81t40.5 71t60 54t79 30q73 12 137 -7v126q0 24 11 39.5t27 23.5t35 7.5t35 -8t27 -23.5t11 -39v-469v-12zM389 332
q-17 25 -49.5 34t-65 1t-57 -33.5t-26.5 -69.5q-2 -36 9 -60.5t29.5 -39.5t41.5 -20.5t46 -3t42 12.5t30 26v153z" />
    <glyph glyph-name="e" unicode="e" horiz-adv-x="591" 
d="M496 216q12 -7 21 -19t13 -26t2.5 -28.5t-10.5 -26.5q-24 -34 -56 -59t-69 -39.5t-77.5 -17.5t-80.5 8q-41 10 -75 31.5t-59 52t-39.5 67.5t-16.5 79q-2 44 9.5 86t34.5 77t56.5 61.5t77.5 39.5q37 11 76 11t76 -10.5t70 -31.5t57 -52q18 -23 20.5 -51.5t-20.5 -51.5
q-10 -9 -24 -14.5t-28.5 -6.5t-28 4t-22.5 17q-5 6 -9.5 11t-9.5 11q-18 23 -44 33.5t-52 7.5t-48 -19.5t-32 -47.5q20 0 39.5 0.5t39.5 0.5q30 0 44.5 -19t14.5 -41.5t-14.5 -41.5t-44.5 -19q-19 0 -38 -0.5t-38 -0.5l1 -1q10 -26 32 -40t48.5 -15t54 12.5t49.5 42.5
q18 23 45 32.5t55 -6.5z" />
    <glyph glyph-name="f" unicode="f" horiz-adv-x="588" 
d="M389 459q-10 49 -34.5 70.5t-50 20t-46.5 -24t-25 -59.5q-3 -26 -4 -62.5t-1 -70t0.5 -57t0.5 -24.5h188q35 0 52.5 -22.5t17.5 -50t-17.5 -50t-52.5 -22.5h-189v-119q0 -35 -22.5 -53t-50 -18t-50 18t-22.5 53v128q-17 10 -25.5 27.5t-8.5 36t8.5 36t25.5 27.5v78
q0 40 1 81.5t7 81.5t19 76.5t37 66.5q19 24 45.5 40t56 24t60.5 7t60 -12q63 -25 104.5 -74t55.5 -115q5 -23 -2 -41t-21 -30t-32.5 -17t-35.5 -1.5t-30.5 16t-18.5 35.5z" />
    <glyph glyph-name="g" unicode="g" 
d="M533 33q-1 -31 0 -62.5t-4 -62.5q-6 -35 -24.5 -62t-45 -45.5t-58.5 -29t-64 -11.5q-75 -3 -138.5 31t-105.5 94q-8 12 -9.5 26.5t2.5 28.5t12.5 26t20.5 19q27 16 55 7t45 -33q6 -9 17 -18.5t25 -17.5t30 -13t31 -5q24 1 37.5 8t19.5 15t7 16t1 10v59q-38 -14 -79.5 -15
t-82.5 13q-42 13 -76.5 38.5t-58 60t-34.5 75.5t-6 86q5 42 20.5 81t40.5 71t60 54t79 30q41 7 81 3.5t76 -18.5q15 15 36.5 19.5t41.5 -1.5t34.5 -23t14.5 -44q0 -65 -0.5 -129.5t-0.5 -129.5v-151zM388 329q-13 31 -46.5 43t-68.5 4t-62.5 -36t-29.5 -78q-2 -47 23 -76.5
t59 -40.5t69.5 -3t55.5 37v150z" />
    <glyph glyph-name="h" unicode="h" 
d="M303 510q52 -7 90.5 -30.5t65 -58t42.5 -78t23.5 -90t8 -94t-4.5 -90.5q-3 -30 -21.5 -51.5t-50.5 -21.5q-14 0 -27.5 6t-24 15.5t-16.5 23t-5 28.5q3 54 0.5 105.5t-13 92t-31 65.5t-52.5 27q-4 0 -18 -2.5t-30 -15.5t-29 -40.5t-14 -77.5v-152q0 -23 -11 -39t-27 -24
t-35 -7.5t-35 8t-27 23t-11 39.5v560q0 23 11 38.5t27 23.5t35 8t35 -8t27 -23.5t11 -38.5v-143q25 14 52.5 20t54.5 2z" />
    <glyph glyph-name="i" unicode="i" horiz-adv-x="246" 
d="M48 449q0 35 22.5 52.5t50 17.5t50 -17.5t22.5 -52.5v-379q0 -35 -22.5 -53t-50 -18t-50 18t-22.5 53v379zM121 555q-35 0 -53 22.5t-18 50t18 50t53 22.5t52.5 -22.5t17.5 -50t-17.5 -50t-52.5 -22.5z" />
    <glyph glyph-name="j" unicode="j" horiz-adv-x="249" 
d="M112 554q-35 0 -53 22.5t-18 50t18 50t53 22.5t52.5 -22.5t17.5 -50t-17.5 -50t-52.5 -22.5zM189 439v-66t0.5 -100.5t0.5 -115.5t-0.5 -112t-1.5 -89.5t-3 -47.5q-5 -35 -23.5 -62t-45 -45.5t-58.5 -29t-65 -11.5q-75 -3 -138.5 31t-105.5 94q-8 12 -9.5 26.5t2.5 28.5
t13 26t21 19q27 16 54.5 7t44.5 -33q24 -35 53.5 -50.5t54.5 -12t42.5 27.5t17.5 68q2 112 1 223.5t-1 223.5q0 23 11 38.5t27 23.5t35 8t35 -8t27 -23.5t11 -38.5z" />
    <glyph glyph-name="k" unicode="k" horiz-adv-x="583" 
d="M421 300q43 -39 69 -95t37 -113q5 -29 -7.5 -55t-43.5 -35q-14 -3 -28.5 -1t-27.5 8.5t-22 17.5t-12 26q-3 18 -9 42t-11 35q-4 9 -10 23t-16.5 27.5t-27 23t-40.5 8.5q-29 -1 -44.5 -15.5t-22.5 -34t-7.5 -39t-0.5 -30.5v-18q0 -23 -11 -39t-27 -23.5t-35 -8t-35 7.5
t-27 23.5t-11 39.5v555q0 23 11 39t27 23.5t35 7.5t35 -7.5t27 -23.5t11 -39v-281q50 4 86 23t60 41.5t37 42t16 25.5q17 31 45.5 35t52 -10t34.5 -40.5t-6 -57.5q-18 -32 -44.5 -59t-56.5 -49z" />
    <glyph glyph-name="l" unicode="l" horiz-adv-x="249" 
d="M54 629q0 24 11 39.5t27 23.5t35 7.5t35 -8t27 -23.5t11 -39v-559q0 -23 -11 -39t-27 -24t-35 -7.5t-35 8t-27 23t-11 39.5v559v0z" />
    <glyph glyph-name="m" unicode="m" horiz-adv-x="825" 
d="M594 508q46 -9 76.5 -35t49 -63.5t27.5 -82t12 -90.5t2 -89.5t-1 -77.5q0 -23 -11 -38.5t-27.5 -23.5t-35.5 -8t-35 7.5t-26.5 23t-10.5 39.5q1 33 0 66t-1 66q0 38 -2 68.5t-8.5 52t-19 33t-32.5 12.5q-20 -1 -32.5 -11.5t-20 -27t-10.5 -37t-3 -40.5v-182
q0 -33 -21 -50.5t-46.5 -19.5t-49 12t-28.5 43q-2 42 -2 96t-2 108q-2 41 -12.5 66t-25.5 36.5t-32 11.5t-32 -8.5t-25 -24.5t-11 -36q-2 -24 -3 -65t-1.5 -81t-1 -70l-0.5 -30q-5 -30 -28.5 -43.5t-49 -12t-46 19.5t-20.5 51v372q0 28 15.5 45t37 22.5t44 -1t35.5 -24.5
q26 15 54.5 22t59.5 3q42 -5 71.5 -22t50.5 -43q30 37 73.5 54.5t104.5 6.5z" />
    <glyph glyph-name="n" unicode="n" horiz-adv-x="604" 
d="M305 511q52 -6 90.5 -29t65.5 -58t44.5 -79t26.5 -91t10.5 -94.5t-1.5 -89.5q-2 -30 -21.5 -51.5t-51.5 -21.5q-14 0 -27.5 6t-23.5 15.5t-16 23t-5 28.5q2 20 2.5 39.5t-0.5 39.5q-2 45 -8 84.5t-18.5 69t-34 47t-53.5 17.5q-27 0 -44.5 -17.5t-27.5 -41t-13.5 -47.5
t-3.5 -38v-151q0 -23 -11 -39t-27 -23.5t-35 -8t-35 7.5t-27 23.5t-11 39.5v372q0 29 16.5 46t38.5 22t44.5 -2.5t35.5 -26.5q27 17 58 24.5t63 3.5z" />
    <glyph glyph-name="o" unicode="o" horiz-adv-x="604" 
d="M301 512q69 -2 118 -31t78 -73t39.5 -97t3.5 -103q-7 -46 -30.5 -86t-58.5 -68.5t-78.5 -43t-90.5 -9.5q-50 4 -91.5 24.5t-72.5 53t-48.5 75.5t-19.5 93q0 75 22 126.5t58 82.5t81 44t90 12zM295 147q35 -1 58.5 14.5t35.5 39.5t12.5 52.5t-11 53t-34.5 41t-58 17.5
q-34 0 -58 -16t-36.5 -40t-13.5 -51.5t10.5 -52t35 -41t59.5 -17.5z" />
    <glyph glyph-name="p" unicode="p" horiz-adv-x="592" 
d="M532 264q2 -44 -10 -85t-36 -75t-58.5 -58.5t-77.5 -35.5q-81 -20 -155 5v-134q0 -23 -11 -39t-27 -23.5t-35 -8t-35 7.5t-27 23.5t-11 39.5v559q0 27 13.5 43.5t32.5 23t40.5 3t36.5 -16.5q38 17 80.5 20.5t84.5 -6.5q43 -11 78 -33.5t60 -55t40 -72t17 -82.5zM195 180
q16 -20 48.5 -28.5t65.5 -2t58 30t27 67.5q1 49 -22.5 80t-56 42.5t-66.5 2.5t-54 -39v-153z" />
    <glyph glyph-name="q" unicode="q" horiz-adv-x="592" 
d="M411 492q15 13 36.5 16.5t40.5 -3.5t32.5 -23.5t13.5 -42.5v-559q0 -24 -11 -39.5t-27 -23.5t-35 -8t-35 8t-27 23.5t-11 39.5v134q-74 -25 -155 -5q-43 11 -77.5 35.5t-58.5 58.5t-36 75t-10 85q2 43 16.5 82.5t40 71.5t60.5 55t78 34q42 10 84.5 6.5t80.5 -20.5z
M388 332q-20 30 -54 39t-66.5 -2.5t-56 -42.5t-22.5 -80q1 -44 26.5 -67.5t58.5 -30.5t65.5 1.5t48.5 29.5v153z" />
    <glyph glyph-name="r" unicode="r" horiz-adv-x="612" 
d="M552 333q6 -14 3.5 -28.5t-10 -27t-19.5 -21.5t-25 -13q-31 -8 -54.5 7.5t-34.5 43.5q-35 84 -102 72q-4 0 -22.5 -5.5t-39 -25.5t-37 -59t-16.5 -108v-98q0 -23 -11 -39t-27 -24t-35 -7.5t-35 8t-27 23t-11 39.5v372q0 33 20 50.5t45 20t48.5 -10.5t29.5 -41
q19 14 39.5 24t43.5 16q49 13 92 4.5t78.5 -32.5t62.5 -60.5t44 -79.5z" />
    <glyph glyph-name="s" unicode="s" 
d="M531 202q10 -65 -13 -107.5t-66 -65.5t-99.5 -27.5t-112.5 7t-104.5 37.5t-75.5 65q-9 12 -10.5 26.5t2.5 28.5t13 25.5t21 18.5q13 8 26 8.5t25 -4t21.5 -11t17.5 -11.5q27 -19 61.5 -33t61.5 -16q38 -3 62.5 0.5t24.5 13.5q0 6 -11 9t-26 5t-31.5 3t-26.5 2
q-47 5 -95 22.5t-80 54.5q-15 18 -24 39.5t-11 44t3 45t19 42.5q33 46 86 68t111 21.5t113 -22.5t91 -63q20 -23 21.5 -52t-21.5 -51q-10 -10 -23.5 -15.5t-27.5 -5.5t-28 5t-24 16q-30 31 -60.5 42t-55 10.5t-40.5 -10t-16 -20.5q0 -9 17 -15.5t42 -12t54 -9t53 -6.5
q21 -2 43 -9.5t41.5 -20t33.5 -30.5t18 -42z" />
    <glyph glyph-name="t" unicode="t" horiz-adv-x="322" 
d="M359 568q24 0 35.5 -15t11.5 -33.5t-11.5 -33.5t-35.5 -15h-93v-400q0 -23 -11 -39t-27 -24t-35 -7.5t-35 8t-27 23t-11 39.5v400h-24q-24 0 -35.5 15t-11.5 33.5t11.5 33.5t35.5 15h24v62q0 23 11 39t27 23.5t35 7.5t35 -7.5t27 -23.5t11 -39v-62h93v0z" />
    <glyph glyph-name="u" unicode="u" horiz-adv-x="607" 
d="M406 443q0 24 11 39.5t27 23t35 7.5t35 -7.5t27 -23.5t11 -39v-372q0 -30 -16.5 -47t-38.5 -22t-45 2.5t-35 27.5q-30 -20 -69 -29.5t-74 -5.5q-56 6 -95 30t-65 60.5t-39.5 82.5t-18.5 95t-2.5 98.5t8.5 93.5q2 15 11.5 26t22.5 18t28 9t28 -2q32 -8 43.5 -34t6.5 -55
q-1 -11 -3.5 -36t-2 -55t5.5 -62.5t17 -59.5t33 -45t55 -19q37 -1 57 17.5t29.5 44t11 52t1.5 41.5v146v0z" />
    <glyph glyph-name="v" unicode="v" horiz-adv-x="576" 
d="M374 437q0 23 11 39t27 23.5t35 7.5t35 -7.5t26.5 -23.5t10.5 -39q0 -80 -12 -162.5t-51 -154.5q-13 -23 -30.5 -45t-39.5 -39t-47.5 -27t-53.5 -9q-50 2 -87 24.5t-63 58.5t-43 81.5t-26.5 93t-13.5 94t-4 83.5q0 23 10.5 39t26.5 23.5t35 7.5t35.5 -7.5t27.5 -23.5
t11 -39v-37.5t2 -57.5t6.5 -66t14 -62t25 -46.5t39.5 -19.5q23 1 39 19.5t26.5 47.5t16 63.5t8 66.5t3 57.5t0.5 36.5z" />
    <glyph glyph-name="w" unicode="w" horiz-adv-x="827" 
d="M618 437q0 23 11 39t27.5 23.5t35 7.5t35 -7.5t27 -23.5t10.5 -39q0 -26 -2.5 -69t-10.5 -92t-22 -98t-38 -89t-58.5 -65t-82.5 -24q-52 1 -88 24t-60 61q-23 -38 -57 -62t-82 -23q-52 1 -88 23.5t-59.5 58t-37 81.5t-20.5 94t-9 94.5t-2 83.5q0 23 10.5 39t27 23.5
t35 7.5t35 -7.5t27.5 -23.5t11 -39q0 -12 -0.5 -38t0 -58t3.5 -66t10 -62t20 -46.5t34 -18.5q20 1 32.5 17t20.5 40t12 52.5t5 56t1 50t1 33.5q1 35 24 51.5t50.5 15.5t50.5 -18.5t23 -50.5q0 -12 -1 -34.5t-0.5 -50t3.5 -56t10.5 -52t20.5 -39t34 -15.5q20 1 33 20
t20.5 47.5t11.5 63t5 66.5t1 57.5v36.5z" />
    <glyph glyph-name="x" unicode="x" horiz-adv-x="580" 
d="M408 258l60 -66t59 -66q24 -26 19.5 -55t-23.5 -48.5t-47 -22.5t-52 23l-114 126q-29 -32 -57.5 -63t-57.5 -63q-24 -26 -51.5 -23t-47 22.5t-24 48.5t19.5 55l120 132q-61 68 -119 134q-20 22 -21.5 51t21.5 52q10 10 24 15t28 5.5t27.5 -4.5t23.5 -16q29 -33 57 -65
t57 -64q29 32 57.5 64.5t57.5 64.5q10 11 23.5 16.5t27.5 5t28 -6t24 -15.5q22 -22 21 -51t-21 -52q-30 -34 -60 -67.5t-60 -66.5z" />
    <glyph glyph-name="y" unicode="y" horiz-adv-x="606" 
d="M403 444q1 37 24 53t50.5 15t50 -18.5t22.5 -48.5v-32t-0.5 -64t-1 -85t-1 -95t-1.5 -94t-1.5 -82.5t-1 -59.5t-1.5 -26q-5 -35 -23.5 -62t-45 -45.5t-58.5 -29t-65 -11.5q-75 -2 -138 31.5t-105 94.5q-9 12 -10.5 26.5t2.5 28t13 25.5t21 19q27 16 54.5 7t44.5 -33
q25 -35 54 -50.5t54.5 -11.5t42.5 27.5t17 68.5q1 8 1 16.5v17.5q-29 -16 -63.5 -23t-65.5 -4q-56 6 -95 30.5t-65 61t-39.5 82t-18.5 95t-2.5 99t8.5 93.5q2 15 11.5 26t22.5 17.5t28 8.5t28 -2q31 -8 43 -34t7 -55q-1 -12 -3.5 -36.5t-2 -54.5t5.5 -62.5t17 -59.5t33 -45
t55 -19q25 0 42.5 9t28.5 23.5t16.5 33t8.5 36.5v96t2 102z" />
    <glyph glyph-name="z" unicode="z" horiz-adv-x="580" 
d="M465 146q24 0 39.5 -11t23.5 -27t7.5 -35t-8 -35t-23.5 -27t-39 -11h-347q-24 0 -40 11.5t-23.5 28.5t-6.5 36.5t10 35.5q5 9 31 39t61 68t72.5 78.5t64.5 69.5h-169q-24 0 -39.5 11t-23.5 27t-7.5 35t8 35t23 27t39.5 11h333q26 0 42.5 -13.5t23.5 -32.5t4 -40t-16 -36
q-1 -1 -13 -14.5t-31 -34t-42.5 -47t-48.5 -53t-48 -52t-41 -44.5h184v0z" />
    <glyph glyph-name="braceleft" unicode="{" horiz-adv-x="306" 
d="M217 -12q22 -7 29.5 -25t2.5 -35.5t-20.5 -28.5t-37.5 -4q-33 10 -55.5 29t-35.5 44t-17.5 55t-1.5 63q1 13 3.5 31t5 36.5t4 36.5t1.5 32q0 9 -7 13t-15.5 8.5t-15.5 12t-8 23.5q0 13 4.5 21t10.5 13t12.5 9.5t9.5 9.5q4 6 5.5 18.5t0.5 24.5q-2 28 -5.5 55.5t-5.5 55.5
q-2 32 3 61t18 53t35 42t54 28q22 7 37.5 -4t20.5 -28.5t-2.5 -35.5t-29.5 -25q-22 -8 -30 -20.5t-10 -32.5q-1 -26 2 -52l6 -52q5 -35 3 -71.5t-19 -65.5q17 -31 18.5 -69.5t-3.5 -74.5q-2 -21 -5.5 -44t-2.5 -44.5t9.5 -38.5t31.5 -24z" />
    <glyph glyph-name="bar" unicode="|" horiz-adv-x="196" 
d="M49 647q0 24 15 35.5t33.5 11.5t33.5 -11.5t15 -35.5v-698q0 -23 -15 -35t-33.5 -12t-33.5 12t-15 35v698v0z" />
    <glyph glyph-name="braceright" unicode="}" horiz-adv-x="301" 
d="M81 -12q22 7 31 24t10 38.5t-2.5 44.5t-5.5 44q-5 36 -3.5 74.5t18.5 69.5q-17 29 -19 65.5t3 71.5l6 52t2 52q-2 20 -10 32.5t-30 20.5q-23 7 -30 25t-2 35.5t20 28.5t38 4q32 -10 54 -28t35 -42t18 -53t3 -61q-2 -28 -5.5 -55.5t-5.5 -55.5q-1 -12 0.5 -24.5t5.5 -18.5
q3 -5 9.5 -9.5t12.5 -9.5t10.5 -13t4.5 -21q-1 -16 -8 -23.5t-15.5 -12t-15.5 -8.5t-7 -13q0 -14 1.5 -32t4 -36.5t4.5 -36.5t4 -31q3 -33 -1.5 -63t-17.5 -55t-35.5 -44t-55.5 -29q-23 -7 -38 4t-20 28.5t2 35.5t30 25z" />
    <glyph glyph-name="exclamdown" unicode="&#xa1;" horiz-adv-x="245" 
d="M200.003 -56.9619q0 -23.998 -10.999 -39.4971t-26.998 -23.499q-15.999 -7.99902 -34.998 -7.49902t-34.998 7.99902q-15.999 7.5 -26.998 23.499q-11 15.999 -11 38.9971v382.977q0 23.999 11 39.498q10.999 15.499 26.998 23.498q15.999 8 34.998 7.5t34.998 -8
q15.999 -7.49902 26.998 -22.998t10.999 -39.498v-382.977zM127.008 424.009q-22.999 0 -38.998 10.999q-15.999 11 -23.498 26.999q-7.5 15.999 -7.5 34.998q0 18.998 7.5 34.9971q7.49902 15.999 23.498 26.999q15.999 10.999 38.998 10.999q23.998 0 39.4971 -10.999
q15.499 -11 23.499 -26.999t7.5 -34.9971q-0.5 -18.999 -8 -34.998t-22.999 -26.999q-15.499 -10.999 -39.4971 -10.999z" />
    <glyph glyph-name="cent" unicode="&#xa2;" horiz-adv-x="399" 
d="M326 392q15 -8 21 -27t-5 -34q-23 -33 -58.5 -52t-75.5 -19q-5 -16 -12.5 -23t-14.5 -6.5t-12.5 10t-6.5 26.5q-47 14 -77 51.5t-32 86.5q-2 55 26.5 100t82.5 62q11 3 22 5t22 2q5 15 12.5 22t14 6.5t12 -9t6.5 -24.5q24 -7 45 -19.5t36 -32.5q11 -15 12.5 -32
t-12.5 -31q-11 -12 -30.5 -13t-31.5 13q-14 15 -29 22q-5 -32 -9 -62.5t-9 -62.5q14 2 24 9t18 16q12 14 28 20t33 -4zM143 423q-1 -24 8 -39.5t22 -23.5q5 31 9 62t9 62q-17 -3 -32 -16t-16 -45z" />
    <glyph glyph-name="currency" unicode="&#xa4;" horiz-adv-x="273" 
d="M213 392q7 -7 7 -17t-7 -17q-2 -2 -3 -2.5t-3 -2.5q6 -17 5 -36.5t-10 -36.5l1 -1q8 -7 7.5 -17.5t-7.5 -16.5q-8 -8 -17 -7.5t-17 7.5q-1 1 -2 1.5t-2 1.5q-7 -2 -14 -3.5t-16 -1.5q-23 0 -38 9q-2 -1 -2.5 -2t-2.5 -3q-7 -8 -17 -7.5t-17 7.5q-8 8 -7.5 17.5t7.5 16.5
q2 3 7 8q-14 32 -1 66q-2 2 -4 3q-7 8 -7 17.5t7 17.5q8 7 17.5 7t17.5 -7v-1q18 10 40 10q25 0 42 -11l1 1q8 8 17.5 8t17.5 -8zM135 289q16 0 24 10t8 23t-8 23.5t-24 10.5q-15 0 -22.5 -10.5t-7.5 -23t7.5 -23t22.5 -10.5z" />
    <glyph glyph-name="dieresis" unicode="&#xa8;" horiz-adv-x="357" 
d="M135 628q18 0 26.5 -11.5t8.5 -25t-8.5 -25t-26.5 -11.5t-26.5 11.5t-8.5 25t8.5 25t26.5 11.5zM227 628q18 0 26.5 -11.5t8.5 -25t-8.5 -25t-26.5 -11.5t-26.5 11.5t-8.5 25t8.5 25t26.5 11.5z" />
    <glyph glyph-name="copyright" unicode="&#xa9;" horiz-adv-x="502" 
d="M417 213q-7 3 -14 -2q0 7 6.5 10.5t11.5 -1.5q-2 1 -6 0t-5 -3q5 2 7 -4zM344 244q-5 5 -5 12.5t5 12.5q-2 2 -3 6t2 5q11 2 22 0t15 -10q-2 0 -2.5 0.5t-2.5 0.5l2 -2q4 -6 3.5 -13t-7.5 -12q6 0 10 4q-2 -5 -7 -7q-8 -3 -17 -3t-15 6zM350 270q-5 -4 -7 -10.5t3 -11.5
q6 -8 14 -7t12.5 6t4.5 12.5t-9 12.5h-9t-9 -2zM337 224l-4 -4t-5 -2q-5 0 -7 2.5t-3 2.5q-3 0 -5 -2t-6 0t-3 7t2 4q1 -3 0.5 -5t2.5 -4q2 -1 4 1t7 2q2 -8 8 -6t8 7q5 -3 8 0t0 7q5 -3 2 -9q-5 -5 -9 -1zM329 240q-5 8 -5.5 20t-1.5 25v3q0 1 1 3q1 -5 1 -9.5v-10.5
q1 -9 2 -16.5t3 -14.5zM301 267q5 -5 4 -13.5t-6 -13.5q-5 -6 -14 -10t-17 -3q5 2 9.5 3t8.5 4q-10 -2 -17 4.5t-5 17.5q3 10 15 15q-5 0 -9.5 -0.5t-9.5 -0.5q3 5 13 8t18 3q2 0 5.5 -1t4.5 -3q2 -2 2 -5t-2 -5zM282 237q7 0 11.5 3.5t6.5 8.5t1 10t-5 8q-1 0 -1.5 0.5
t-1.5 0.5q-2 0 -2.5 0.5t-2.5 0.5q-6 -1 -11 -3.5t-7 -7.5q-5 -10 0 -15t12 -6zM214 188q-2 5 0.5 8.5t6.5 4.5t8 -0.5t5 -5.5q-4 -2 -7.5 -3.5t-3.5 -9.5q-2 4 0.5 8t4.5 6q-3 5 -8.5 1.5t-5.5 -9.5zM451 301q5 -7 1 -16t-7 -14q-3 -4 -8 -8t-10 -7q-6 -4 -12.5 -7.5
t-14.5 -8.5v-3q14 7 24 -3q6 -6 6 -14t-4 -14t-11 -9t-14 0q-3 -16 -19.5 -25.5t-33.5 -13.5q-26 -5 -55 -3q-34 1 -50 26q-7 -10 -18 -13q-12 -2 -17.5 5.5t-5.5 17t5 17.5t16 7q-1 3 -1.5 6.5t-1.5 6.5q-23 6 -39 16q-7 6 -7 15q2 11 13 11t13 -13q0 -3 -2 -1.5t-4.5 3.5
t-5.5 3.5t-6 -1.5t-0.5 -7t7.5 -7q6 -4 13 -6.5t15 -5.5q-2 2 -2 4q5 2 5 6t-4 7q-3 3 -7 4t-6 5q-2 6 5 10.5t3 11.5q-3 7 -11 9.5t-12 10.5q-2 6 1 10.5t7 9.5q4 6 2 11t-7.5 8.5t-11.5 6.5t-9 6q-11 11 -11.5 25.5t5.5 25.5q2 4 6 8t8 8.5t5.5 9t-2.5 8.5t-8 3
q-10 -2 -18 -8.5t-17 -11.5q-14 -9 -28.5 -10t-28.5 3q-11 3 -22 10t-13 21q-3 14 0.5 29.5t17.5 26.5t28 17q7 5 15 9.5t10 17.5v4v3q3 -2 8 -9.5t2 -14.5q-2 -3 -6.5 -7.5t-9.5 -7.5q-13 -9 -29 -19.5t-14 -27.5q2 -12 13 -13.5t19 0.5q13 3 22 10.5t16.5 16.5t14 18.5
t14.5 16.5q7 6 15 12t17 8q20 5 44.5 -2t36.5 -33q7 -14 0.5 -28t-17.5 -28q-4 -5 -7 -8.5t-1 -10.5q2 -5 6 -7.5t8 -3.5q17 -2 36 8q12 5 24.5 13t23.5 6q12 -2 28 -13t19 -26q2 -15 -1.5 -28.5t-3.5 -25.5q0 -7 6.5 -13.5t6.5 -14.5q0 -4 -5 -7t-4 -7q1 -3 3 -6t3 -6
q1 -4 -4 -9.5t-3 -7.5q4 -6 7 -9.5t0 -8.5q-5 -7 -5 -15q20 12 31.5 20.5t14.5 21.5q2 7 -2 9q-2 2 -4 0.5t-3 -4.5q-1 -2 -2 -5t-3 -3q-3 0 -2 5.5t2 7.5q4 7 10 7t9 -4zM392 359q1 8 3.5 18t0.5 18q-3 7 -9.5 10t-11.5 1q-6 -2 -12.5 -7.5t-9.5 -9.5q-13 -19 -23.5 -38.5
t-11.5 -37.5q6 7 14 16.5t16.5 18t16 14.5t13.5 5q8 0 14 -8zM184 524q-23 -15 -35 -35q16 13 35 24.5t37 1.5q6 -3 13.5 -11t6.5 -25t-15.5 -30t-24.5 -29q-2 -2 -4 -6.5t-2 -7.5q0 -5 2 -12t5 -10q2 -2 6.5 -4t7.5 -3q8 -2 17.5 -0.5t18.5 2.5q6 1 12.5 2t11.5 -1
q19 -5 27.5 -24t10.5 -39q6 23 18.5 43t16.5 25q8 13 21.5 21.5t24.5 -6.5q0 11 -5 17t-14.5 12t-17.5 8q-7 3 -14.5 1.5t-15.5 -6.5q-14 -8 -28.5 -15t-29.5 -5q-5 1 -12 5t-9 12q-1 5 3 10l8 10q8 9 14.5 20.5t4.5 21.5q-1 11 -7.5 19t-15.5 13.5t-19.5 8t-18.5 2.5
t-17 -2t-17 -8zM208 292q0 14 9.5 26t23.5 18q4 2 7.5 3.5t9.5 0.5q14 -2 27 -6t26 -15q-2 15 -6.5 29t-18.5 24q-10 8 -21.5 6.5t-24.5 -3.5q-7 -1 -14.5 -1t-12.5 2q-10 2 -15 11t-5 19q1 8 6.5 16t12.5 15.5t14 14.5t10 15q5 12 2 22.5t-6 14.5q-17 17 -34 13
q-13 -3 -31 -16.5t-26 -23.5q-9 -10 -21.5 -17.5t-25.5 -9.5q-4 0 -9.5 -0.5t-9.5 1.5q-5 3 -8.5 8.5t-3.5 10.5q0 10 6 17.5t14 13.5t17.5 12t17.5 12q5 5 6.5 9.5t-4.5 12.5q1 -9 -5 -15t-14.5 -11.5t-18.5 -10.5t-18 -12q-13 -13 -15 -30q-1 -11 1.5 -22t13.5 -19
q14 -9 34 -10t36 8q5 3 11.5 8.5t13.5 9t13 4.5t11 -3q5 -6 4.5 -11t-4 -9.5t-7.5 -8.5t-7 -8q-6 -10 -6 -24t11 -25q5 -5 17 -10.5t12 -17.5q0 -6 -6.5 -11.5t-4.5 -12.5q1 -5 6.5 -8.5t9.5 -5.5zM222 234q4 -2 14 -4q2 16 5.5 31.5t13.5 29.5q-11 11 -11.5 23.5t6.5 22.5
q-15 -3 -26 -15t-13 -24q-2 -5 -0.5 -7t3.5 -5q4 -5 2 -9.5t-6 -8.5q-7 -6 -1.5 -7.5t10.5 -5.5q8 -8 4 -16q-1 -1 -1 -2h-1q0 -2 1 -3zM236 224l-12 3q2 -7 4 -19q3 -4 8 -4v20zM386 181q4 3 7.5 8t3.5 12q0 5 -4 13q0 2 -2 8q-2 8 -2 12q-11 -5 -21.5 -10t-19.5 -10
q-5 -2 -6 0t3 4q11 6 21.5 11t21.5 11q0 4 -0.5 7.5t-0.5 7.5q0 3 -0.5 6t-0.5 6t-0.5 6t-0.5 7q-1 3 -1.5 6.5t-1.5 6.5q-2 5 -6 8.5t-8 5.5q10 6 6.5 16t-7.5 20q-10 -5 -17.5 -10.5t-16.5 -12.5q-4 -2 -7.5 -5t-5.5 -5q-4 -2 -6 2q-8 10 -21 15.5t-24 7.5q-9 2 -12.5 1.5
t-6.5 -7.5q-5 -9 -1.5 -18.5t10.5 -19.5q-11 -14 -14 -29.5t-4 -32.5q2 -1 3.5 -1t3.5 -1q14 -4 32 -6t35 -5q5 -1 5.5 -2.5t-3.5 -2.5q-19 2 -38.5 4.5t-38.5 7.5v-6v-9.5t-2 -7.5q-2 -2 -6 0.5t-6 4.5q-1 1 -1.5 2.5t-1.5 3.5q-11 1 -14.5 -10.5t1.5 -19.5q4 -5 10.5 -6
t11.5 2q2 2 5 4.5t5 7.5q1 2 2.5 -1l2.5 -5q16 -19 46 -22q26 -2 51 2.5t42 17.5zM401 233q1 -2 2 -3.5t1 -3.5q-2 -2 -4.5 -3t-4.5 -3q1 -4 3 -8t2 -9q7 -3 13.5 -0.5t9.5 8t2.5 12t-6.5 10.5q-10 5 -18 0zM400 228q-3 6 -3 10q-1 0 -5 -2l2 -11q4 1 6 3zM398 256
q1 2 2 4.5t2 4.5q1 4 -2 6t-5 5q-2 4 0 7t5 7q3 6 -1 9.5t-4 8.5t4.5 8.5t3.5 7.5q0 5 -5 10.5t-7 11.5q-1 2 0 5t0 5q-1 5 -7 7.5t-10 1.5q-5 -1 -11.5 -6.5t-13.5 -13t-13 -15l-10 -12.5q15 13 30 23q5 3 11 6.5t9 1.5l-2 -2l-2 -2q5 -10 6 -20t-4 -18q13 -10 13.5 -22.5
t2.5 -23.5q1 -5 1 -9.5t1 -9.5l4 2q0 4 2 12zM290 256q4 0 4 -4t-4 -4t-4 4t4 4zM293 253q0 1 -1 1t-1 -1t1 -1t1 1zM361 252q-4 0 -4 4q2 4 5 4q4 -2 3 -5q0 -3 -4 -3zM363 259q1 0 1 -2q0 -1 -1 -1l-1 1q0 2 1 2zM342 209q0 -2 -2.5 -1.5t-5.5 -0.5q-4 -1 -6 -2.5t-2 0.5
q-1 4 7 6q7 2 9 -2zM335 205q8 2 8 0l-8 -2l-7 -2q-1 1 1.5 2t5.5 2zM247 153q1 0 1 -0.5t1 -0.5v-2v-22v-2q-1 -1 -2 -1t-2 1l-1 2l-2 -2l-2 -1h-2q-2 0 -3 1q-1 0 -3 2q-1 1 -1 1.5t-1 1.5v4q0 6 2 7q1 3 6 3q3 0 4 -1q2 0 2 -2v7q0 1 0.5 1.5t0.5 1.5zM244 135v3
q-1 1 -1 1.5t-1 1.5h-3h-2q-1 -1 -1 -1.5t-1 -1.5v-3v-3q1 -1 1 -1.5t1 -1.5h2h3q1 1 1 1.5t1 1.5v3zM271 133q1 -1 1 -2t-1 -2q0 -1 -1 -2t-3 -1q-1 -1 -4 -1q-4 0 -7 3q-3 1 -3 7q0 2 0.5 3t0.5 2q1 3 4 4q1 1 5 1h4l2 -2q2 0 2 -2q1 0 1 -2l-1 -1q0 -1 -1 -1t-2 1v1
q-2 0 -2 2h-3q-3 0 -3 -1q-2 -4 -2 -5q0 -2 1 -3l1 -2l1 -1h2h3l2 2q0 1 1 2h1h1zM292 142q2 -2 2 -3q1 -1 1 -4t-1 -4q0 -1 -2 -3t-3 -2q-1 -1 -4 -1t-4 1q-1 0 -3 2t-2 3q-1 1 -1 4t1 4q0 1 2 3t3 2q1 1 4 1t4 -1q1 0 3 -2zM289 130q1 1 1 5t-1 5t-4 1h-2q-2 -2 -2 -3
q-1 -1 -1 -3t1 -3q0 -1 2 -3h2q3 0 4 1zM313 129q1 -1 1 -2t-1 -2h-1h-2q0 1 -0.5 1t-0.5 1l-4 5l-3 -5l-2 -2h-1h-2q0 1 -0.5 1t-0.5 1l2 2l4 7l-4 5q-1 1 -1 2t1 2h1h2q0 -1 0.5 -1t0.5 -1l3 -4l3 4l2 2h1h2v-2v-1l-1 -1l-4 -5zM334 144v-1v-1v-1l-7 -17l-2 -4l-2 -2
q-1 0 -1.5 -0.5t-1.5 -0.5q-2 0 -2.5 0.5t-1.5 0.5l-1 2l1 1h1h1h1q1 0 1 1h1q0 1 0.5 1t0.5 1l1 1l-7 16v2v1l1 1h1q2 0 2 -1l1 -2l4 -12l4 12q0 1 0.5 1t0.5 1l1 1h1h1zM340 130q0 -1 1 -2q0 -1 -1 -2t-2 -1q-2 0 -2 1q-1 0 -1 2l1 2h2h2zM363 133q1 -1 1 -2v-2l-2 -2
q-1 -1 -3 -1q-1 -1 -4 -1q-4 0 -7 3q-3 1 -3 7q0 2 0.5 3t0.5 2q1 3 4 4q1 1 5 1h4q1 -1 1.5 -1t1.5 -1l1 -2q1 0 1 -2l-1 -1q0 -1 -1 -1t-1 1q-1 0 -1 1q-2 0 -2 2h-3q-2 0 -3 -1q-2 -4 -2 -5q0 -2 1 -3l1 -2l1 -1h2h3l2 2q0 1 1 2h1h1zM384 142q2 -2 2 -3q1 -1 1 -4t-1 -4
q0 -1 -2 -3q0 -2 -3 -2q-1 -1 -4 -1t-4 1q-1 0 -3 2t-2 3q-1 1 -1 4t1 4q0 1 2 3t3 2q1 1 4 1t4 -1q3 0 3 -2zM381 130q1 1 1 5t-1 5t-4 1h-2q-2 -2 -2 -3q-1 -1 -1 -3t1 -3q0 -1 2 -3h2q3 0 4 1zM416 144q1 0 3 -2v-4v-10v-2q-1 -1 -2 -1q-2 0 -2 1q-1 0 -1 2v8v3q0 1 -1 2
h-2h-1l-2 -2v-4v-7q0 -1 -1 -2t-2 -1t-2 1l-1 2v8v3v2h-2q-3 0 -3 -1q-1 -2 -1 -5v-7q0 -2 -1 -2q0 -1 -2 -1l-2 1v2v14v2q1 1 2 1t2 -1v-1v-1q2 2 3 2q1 1 4 1q2 0 3 -1l2 -2q2 2 3 2q1 1 3 1t3 -1z" />
    <glyph glyph-name="guillemotleft" unicode="&#xab;" horiz-adv-x="408" 
d="M63 484q-20 42 -12.5 70t26.5 37t41.5 -3t33.5 -49q7 -27 18.5 -57t18 -54t3.5 -37t-24 -5q-35 12 -62 38.5t-43 59.5zM308 539q7 -27 18.5 -57t18 -54t3.5 -37t-24 -5q-35 12 -62 38.5t-43 59.5q-20 42 -12.5 70t26.5 37t41.5 -3t33.5 -49z" />
    <glyph glyph-name="acute" unicode="&#xb4;" horiz-adv-x="366" 
d="M214 649q17 18 33.5 15.5t25.5 -16t6.5 -33t-24.5 -35.5q-19 -14 -50.5 -22t-67.5 0q-15 3 -24.5 12.5t-11 20t6 18t27.5 6.5q24 -2 41 4.5t38 29.5z" />
    <glyph glyph-name="guillemotright" unicode="&#xbb;" horiz-adv-x="405" 
d="M335 484q-16 -33 -43 -59.5t-62 -38.5q-21 -8 -24 5t3.5 37t17.5 54t19 57q11 37 33.5 49t41.5 3t26.5 -37t-12.5 -70zM90 539q11 37 33.5 49t41.5 3t26.5 -37t-12.5 -70q-16 -33 -43 -59.5t-62 -38.5q-21 -8 -24 5t3.5 37t17.5 54t19 57z" />
    <glyph glyph-name="questiondown" unicode="&#xbf;" horiz-adv-x="527" 
d="M273.016 428.009q-23.999 0 -39.498 10.999q-15.499 11 -23.498 26.999q-8 15.999 -7.5 34.998q0.5 18.998 8 34.9971q7.49902 15.999 23.498 26.999q15.999 10.999 38.998 10.999q23.998 0 39.4971 -10.999q15.499 -11 23.499 -26.999q7.99902 -15.999 7.49902 -34.9971
q-0.5 -18.999 -7.99902 -34.998q-7.5 -15.999 -22.999 -26.999q-15.499 -10.999 -39.4971 -10.999zM123.024 -88.96q-28.998 23.999 -44.9971 57.4971t-20.999 69.9951q-5 36.498 0.5 73.9961q5.5 37.4971 18.499 70.4951q8.99902 21.999 19.499 33.498
q10.499 11.5 21.998 18.999q11.5 7.5 22.999 13.499q11.499 6 21.999 16.499q10.499 10.5 19.498 28.499q9 17.998 14.999 47.9961q7 33.998 30.498 51.4971q23.499 17.499 49.4971 17.999q25.999 0.5 45.9971 -16.999q19.999 -17.499 18.999 -52.4971
q0 -56.9961 -28.498 -96.9932q-28.498 -39.998 -76.4951 -72.9961q-31.998 -21.999 -43.4971 -48.9971q-11.5 -26.998 -8 -50.9971q3.5 -23.998 18.499 -41.9971t34.998 -22.999q24.998 -6.99902 41.4971 2q16.499 9 26.998 28.499q10.5 19.498 15.499 45.9971
q5 26.498 6 54.4961q1 28.998 22.499 50.4971q21.498 21.499 49.4971 21.499q31.998 0 51.4961 -21.499q19.499 -21.499 21.499 -50.4971q3 -34.998 -2.5 -70.9951q-5.49902 -35.998 -19.999 -67.9961q-14.499 -31.998 -37.4971 -58.9961q-22.999 -26.999 -54.9971 -44.998
q-56.9961 -31.998 -120.992 -28.998t-114.993 44.9971z" />
    <glyph glyph-name="Agrave" unicode="&#xc0;" horiz-adv-x="551" 
d="M459 481q17 -48 24 -99t8.5 -102.5t-1.5 -103.5t-6 -102q-2 -30 -21.5 -51.5t-50.5 -21.5q-14 0 -27.5 6t-24 15.5t-16.5 23t-5 28.5q1 21 2 41.5t3 41.5h-127v-87q0 -35 -22.5 -53t-50 -18t-50 18t-22.5 53v87q-22 1 -37 12t-22.5 27t-7.5 34t7.5 34t22.5 27t37 12v135
q0 35 22.5 52.5t50 17.5t50 -17.5t22.5 -52.5v-135h127q0 4 -0.5 23.5t-5 46t-14.5 57.5t-29.5 56.5t-49.5 43t-75 18.5h-12t-20 -0.5t-21 -1t-15 -1.5q-30 -5 -55.5 7t-34.5 44q-4 13 -2 28t9 28t18 22.5t26 11.5q66 10 134 6t128 -39q49 -29 82 -73.5t52 -98.5zM236 829
q21 -23 38 -29.5t41 -4.5q19 1 27 -6.5t6.5 -18t-11 -20t-24.5 -12.5q-36 -8 -67.5 0t-50.5 22q-22 16 -24.5 35.5t6.5 33t25.5 16t33.5 -15.5z" />
    <glyph glyph-name="Aacute" unicode="&#xc1;" horiz-adv-x="551" 
d="M459 481q17 -48 24 -99t8.5 -102.5t-1.5 -103.5t-6 -102q-2 -30 -21.5 -51.5t-50.5 -21.5q-14 0 -27.5 6t-24 15.5t-16.5 23t-5 28.5q1 21 2 41.5t3 41.5h-127v-87q0 -35 -22.5 -53t-50 -18t-50 18t-22.5 53v87q-22 1 -37 12t-22.5 27t-7.5 34t7.5 34t22.5 27t37 12v135
q0 35 22.5 52.5t50 17.5t50 -17.5t22.5 -52.5v-135h127q0 4 -0.5 23.5t-5 46t-14.5 57.5t-29.5 56.5t-49.5 43t-75 18.5h-12t-20 -0.5t-21 -1t-15 -1.5q-30 -5 -55.5 7t-34.5 44q-4 13 -2 28t9 28t18 22.5t26 11.5q66 10 134 6t128 -39q49 -29 82 -73.5t52 -98.5zM267 830
q17 18 33.5 15.5t25.5 -16t6.5 -33t-24.5 -35.5q-19 -14 -50.5 -22t-67.5 0q-15 3 -24.5 12.5t-11 20t6 18t27.5 6.5q24 -2 41 4.5t38 29.5z" />
    <glyph glyph-name="Acircumflex" unicode="&#xc2;" horiz-adv-x="551" 
d="M459 481q17 -48 24 -99t8.5 -102.5t-1.5 -103.5t-6 -102q-2 -30 -21.5 -51.5t-50.5 -21.5q-14 0 -27.5 6t-24 15.5t-16.5 23t-5 28.5q1 21 2 41.5t3 41.5h-127v-87q0 -35 -22.5 -53t-50 -18t-50 18t-22.5 53v87q-22 1 -37 12t-22.5 27t-7.5 34t7.5 34t22.5 27t37 12v135
q0 35 22.5 52.5t50 17.5t50 -17.5t22.5 -52.5v-135h127q0 4 -0.5 23.5t-5 46t-14.5 57.5t-29.5 56.5t-49.5 43t-75 18.5h-12t-20 -0.5t-21 -1t-15 -1.5q-30 -5 -55.5 7t-34.5 44q-4 13 -2 28t9 28t18 22.5t26 11.5q66 10 134 6t128 -39q49 -29 82 -73.5t52 -98.5zM324 788
q6 -14 3.5 -28t-16.5 -22q-12 -7 -28 -4t-22 17q-2 5 -5 10.5t-5 10.5q-2 -5 -5 -8.5t-5 -8.5q-8 -13 -22 -17t-28 4q-13 7 -17 21.5t4 28.5q11 20 19.5 37t19.5 35q5 9 15.5 13t21.5 4t20.5 -4.5t14.5 -12.5q11 -19 19 -38z" />
    <glyph glyph-name="Atilde" unicode="&#xc3;" horiz-adv-x="551" 
d="M459 481q17 -48 24 -99t8.5 -102.5t-1.5 -103.5t-6 -102q-2 -30 -21.5 -51.5t-50.5 -21.5q-14 0 -27.5 6t-24 15.5t-16.5 23t-5 28.5q1 21 2 41.5t3 41.5h-127v-87q0 -35 -22.5 -53t-50 -18t-50 18t-22.5 53v87q-22 1 -37 12t-22.5 27t-7.5 34t7.5 34t22.5 27t37 12v135
q0 35 22.5 52.5t50 17.5t50 -17.5t22.5 -52.5v-135h127q0 4 -0.5 23.5t-5 46t-14.5 57.5t-29.5 56.5t-49.5 43t-75 18.5h-12t-20 -0.5t-21 -1t-15 -1.5q-30 -5 -55.5 7t-34.5 44q-4 13 -2 28t9 28t18 22.5t26 11.5q66 10 134 6t128 -39q49 -29 82 -73.5t52 -98.5zM272 814
q10 12 24 12.5t25.5 -6.5t15.5 -20t-5 -27q-7 -11 -17 -20t-21 -13.5t-23.5 -4t-25.5 8.5q-5 3 -9 6.5t-9 7.5l-2 1q-12 -12 -25.5 -9.5t-22.5 12t-11 24t10 27.5q16 18 39 22.5t43 -10.5q7 -5 14 -11z" />
    <glyph glyph-name="Adieresis" unicode="&#xc4;" horiz-adv-x="551" 
d="M459 481q17 -48 24 -99t8.5 -102.5t-1.5 -103.5t-6 -102q-2 -30 -21.5 -51.5t-50.5 -21.5q-14 0 -27.5 6t-24 15.5t-16.5 23t-5 28.5q1 21 2 41.5t3 41.5h-127v-87q0 -35 -22.5 -53t-50 -18t-50 18t-22.5 53v87q-22 1 -37 12t-22.5 27t-7.5 34t7.5 34t22.5 27t37 12v135
q0 35 22.5 52.5t50 17.5t50 -17.5t22.5 -52.5v-135h127q0 4 -0.5 23.5t-5 46t-14.5 57.5t-29.5 56.5t-49.5 43t-75 18.5h-12t-20 -0.5t-21 -1t-15 -1.5q-30 -5 -55.5 7t-34.5 44q-4 13 -2 28t9 28t18 22.5t26 11.5q66 10 134 6t128 -39q49 -29 82 -73.5t52 -98.5zM204 809
q18 0 26.5 -11.5t8.5 -25t-8.5 -25t-26.5 -11.5t-26.5 11.5t-8.5 25t8.5 25t26.5 11.5zM296 809q18 0 26.5 -11.5t8.5 -25t-8.5 -25t-26.5 -11.5t-26.5 11.5t-8.5 25t8.5 25t26.5 11.5z" />
    <glyph glyph-name="Aring" unicode="&#xc5;" horiz-adv-x="551" 
d="M459 481q17 -48 24 -99t8.5 -102.5t-1.5 -103.5t-6 -102q-2 -30 -21.5 -51.5t-50.5 -21.5q-14 0 -27.5 6t-24 15.5t-16.5 23t-5 28.5q1 21 2 41.5t3 41.5h-127v-87q0 -35 -22.5 -53t-50 -18t-50 18t-22.5 53v87q-22 1 -37 12t-22.5 27t-7.5 34t7.5 34t22.5 27t37 12v135
q0 35 22.5 52.5t50 17.5t50 -17.5t22.5 -52.5v-135h127q0 4 -0.5 23.5t-5 46t-14.5 57.5t-29.5 56.5t-49.5 43t-75 18.5h-12t-20 -0.5t-21 -1t-15 -1.5q-30 -5 -55.5 7t-34.5 44q-4 13 -2 28t9 28t18 22.5t26 11.5q66 10 134 6t128 -39q49 -29 82 -73.5t52 -98.5zM250 896
q39 0 58 -25t19 -55t-19 -55t-58 -25t-58 25t-19 55t19 55t58 25zM250 789q13 0 19.5 8.5t6.5 18.5t-6.5 18.5t-19.5 8.5t-19.5 -8.5t-6.5 -18.5t6.5 -18.5t19.5 -8.5z" />
    <glyph glyph-name="AE" unicode="&#xc6;" horiz-adv-x="927" 
d="M810 148q35 0 52.5 -23t17 -50.5t-18.5 -50.5t-53 -23h-352q-29 0 -51 21.5t-22 51.5q0 24 -0.5 45t-0.5 38h-121v-87q0 -35 -22.5 -53t-50 -18t-50 18t-22.5 53v87q-22 1 -37 12t-22.5 27t-7.5 34t7.5 34t22.5 27t37 12v135q0 35 22.5 52.5t50 17.5t50 -17.5t22.5 -52.5
v-135h127q0 4 -0.5 23.5t-5 46t-14.5 57.5t-29.5 56.5t-49.5 43t-75 18.5h-12t-20 -0.5t-21 -1t-15 -1.5q-30 -5 -55.5 7t-34.5 44q-4 13 -2 28t9 28t18 22.5t26 11.5q66 10 134 6t128 -39q16 -9 28 -19q3 24 20.5 43t49.5 19h288q23 0 38.5 -11t23.5 -27t8 -35t-8 -35
t-23.5 -27t-38.5 -11h-219v-156h66q30 0 51.5 -21.5t21.5 -50.5q0 -30 -21.5 -51.5t-51.5 -21.5h-66v-101h274v0z" />
    <glyph glyph-name="Ccedilla" unicode="&#xc7;" horiz-adv-x="590" 
d="M459 148q15 1 28.5 -5t23 -16.5t15.5 -24.5t6 -27q0 -32 -21.5 -51t-51.5 -22q-23 -2 -47.5 -2.5t-47.5 1.5v-9q25 -3 46 -18t18 -43q-2 -18 -11 -30.5t-22.5 -19.5t-30 -9t-32.5 0q-11 1 -17 9.5t-6 17.5t5.5 16t17.5 6q4 0 12 -1t16 0t14 4t5 10q-1 6 -6 8t-11.5 3
t-13 0t-9.5 -1q-10 -2 -17 6.5t-7 17.5v40q-47 10 -89 30.5t-77 54.5q-50 48 -75.5 113.5t-23.5 134.5q2 71 29 138t79 117q58 56 133 80t155 19q29 -2 50.5 -21.5t21.5 -50.5q0 -14 -6 -27.5t-15.5 -24t-22.5 -16.5t-28 -5q-17 1 -33 1t-32 -2q-6 -1 -22 -6t-36.5 -14.5
t-42.5 -25t-40.5 -38t-31 -53.5t-13.5 -71q-1 -59 19.5 -95.5t46 -56.5t48 -27.5t26.5 -8.5q28 -7 57 -8.5t67 3.5z" />
    <glyph glyph-name="Egrave" unicode="&#xc8;" horiz-adv-x="580" 
d="M461 146q23 0 39 -11t23.5 -27t7.5 -35t-7.5 -35t-23.5 -27t-39 -11h-343q-9 0 -22 4t-25 13t-21 23.5t-9 35.5q-1 92 -0.5 182.5t0.5 181.5q0 23 11 39t27 23.5t35 8t35 -7.5t27 -24t11 -39v-48h66q30 0 51.5 -21.5t21.5 -51.5t-21.5 -51.5t-51.5 -21.5h-66v-100h274z
M118 548q-35 0 -53 22.5t-18 50t18 50t53 22.5h287q35 0 52.5 -22.5t17.5 -50t-17.5 -50t-52.5 -22.5h-287zM234 829q21 -23 38 -29.5t41 -4.5q19 1 27 -6.5t6.5 -18t-11 -20t-24.5 -12.5q-36 -8 -67.5 0t-50.5 22q-22 16 -24.5 35.5t6.5 33t25.5 16t33.5 -15.5z" />
    <glyph glyph-name="Eacute" unicode="&#xc9;" horiz-adv-x="580" 
d="M461 146q23 0 39 -11t23.5 -27t7.5 -35t-7.5 -35t-23.5 -27t-39 -11h-343q-9 0 -22 4t-25 13t-21 23.5t-9 35.5q-1 92 -0.5 182.5t0.5 181.5q0 23 11 39t27 23.5t35 8t35 -7.5t27 -24t11 -39v-48h66q30 0 51.5 -21.5t21.5 -51.5t-21.5 -51.5t-51.5 -21.5h-66v-100h274z
M118 548q-35 0 -53 22.5t-18 50t18 50t53 22.5h287q35 0 52.5 -22.5t17.5 -50t-17.5 -50t-52.5 -22.5h-287zM266 830q17 18 33.5 15.5t25.5 -16t6.5 -33t-24.5 -35.5q-19 -14 -50.5 -22t-67.5 0q-15 3 -24.5 12.5t-11 20t6 18t27.5 6.5q24 -2 41 4.5t38 29.5z" />
    <glyph glyph-name="Ecircumflex" unicode="&#xca;" horiz-adv-x="577" 
d="M461 146q23 0 39 -11t23.5 -27t7.5 -35t-7.5 -35t-23.5 -27t-39 -11h-343q-9 0 -22 4t-25 13t-21 23.5t-9 35.5q-1 92 -0.5 182.5t0.5 181.5q0 23 11 39t27 23.5t35 8t35 -7.5t27 -24t11 -39v-48h66q30 0 51.5 -21.5t21.5 -51.5t-21.5 -51.5t-51.5 -21.5h-66v-100h274z
M118 548q-35 0 -53 22.5t-18 50t18 50t53 22.5h287q35 0 52.5 -22.5t17.5 -50t-17.5 -50t-52.5 -22.5h-287zM324 788q6 -14 3.5 -28t-16.5 -22q-12 -7 -28 -4t-22 17q-2 5 -5 10.5t-5 10.5q-2 -5 -5 -8.5t-5 -8.5q-8 -13 -22 -17t-28 4q-13 7 -17 21.5t4 28.5q11 20 19.5 37
t19.5 35q5 9 15.5 13t21.5 4t20.5 -4.5t14.5 -12.5q11 -19 19 -38z" />
    <glyph glyph-name="Edieresis" unicode="&#xcb;" horiz-adv-x="580" 
d="M461 146q23 0 39 -11t23.5 -27t7.5 -35t-7.5 -35t-23.5 -27t-39 -11h-343q-9 0 -22 4t-25 13t-21 23.5t-9 35.5q-1 92 -0.5 182.5t0.5 181.5q0 23 11 39t27 23.5t35 8t35 -7.5t27 -24t11 -39v-48h66q30 0 51.5 -21.5t21.5 -51.5t-21.5 -51.5t-51.5 -21.5h-66v-100h274z
M118 548q-35 0 -53 22.5t-18 50t18 50t53 22.5h287q35 0 52.5 -22.5t17.5 -50t-17.5 -50t-52.5 -22.5h-287zM204 809q18 0 26.5 -11.5t8.5 -25t-8.5 -25t-26.5 -11.5t-26.5 11.5t-8.5 25t8.5 25t26.5 11.5zM296 809q18 0 26.5 -11.5t8.5 -25t-8.5 -25t-26.5 -11.5
t-26.5 11.5t-8.5 25t8.5 25t26.5 11.5z" />
    <glyph glyph-name="Igrave" unicode="&#xcc;" horiz-adv-x="459" 
d="M332 146q23 0 39 -11t23.5 -27t8 -35t-7.5 -35t-24 -27t-39 -11h-212q-24 0 -39.5 11t-23.5 27t-8 35t8 35t23.5 27t39.5 11h35v405h-35q-24 0 -39.5 11t-23.5 27t-8 35t8 35t23.5 27t39.5 11h212q23 0 39 -11t23.5 -27t8 -35t-7.5 -35t-24 -27t-39 -11h-31v-405h31v0z
M212 829q21 -23 38 -29.5t41 -4.5q19 1 27 -6.5t6.5 -18t-11 -20t-24.5 -12.5q-36 -8 -67.5 0t-50.5 22q-22 16 -24.5 35.5t6.5 33t25.5 16t33.5 -15.5z" />
    <glyph glyph-name="Iacute" unicode="&#xcd;" horiz-adv-x="459" 
d="M332 146q23 0 39 -11t23.5 -27t8 -35t-7.5 -35t-24 -27t-39 -11h-212q-24 0 -39.5 11t-23.5 27t-8 35t8 35t23.5 27t39.5 11h35v405h-35q-24 0 -39.5 11t-23.5 27t-8 35t8 35t23.5 27t39.5 11h212q23 0 39 -11t23.5 -27t8 -35t-7.5 -35t-24 -27t-39 -11h-31v-405h31v0z
M243 830q17 18 33.5 15.5t25.5 -16t6.5 -33t-24.5 -35.5q-19 -14 -50.5 -22t-67.5 0q-15 3 -24.5 12.5t-11 20t6 18t27.5 6.5q24 -2 41 4.5t38 29.5z" />
    <glyph glyph-name="Icircumflex" unicode="&#xce;" horiz-adv-x="459" 
d="M332 146q23 0 39 -11t23.5 -27t8 -35t-7.5 -35t-24 -27t-39 -11h-212q-24 0 -39.5 11t-23.5 27t-8 35t8 35t23.5 27t39.5 11h35v405h-35q-24 0 -39.5 11t-23.5 27t-8 35t8 35t23.5 27t39.5 11h212q23 0 39 -11t23.5 -27t8 -35t-7.5 -35t-24 -27t-39 -11h-31v-405h31v0z
M302 788q6 -14 3.5 -28t-16.5 -22q-12 -7 -28 -4t-22 17q-2 5 -5 10.5t-5 10.5q-2 -5 -5 -8.5t-5 -8.5q-8 -13 -22 -17t-28 4q-13 7 -17 21.5t4 28.5q11 20 19.5 37t19.5 35q5 9 15.5 13t21.5 4t20.5 -4.5t14.5 -12.5q11 -19 19 -38z" />
    <glyph glyph-name="Idieresis" unicode="&#xcf;" horiz-adv-x="459" 
d="M332 146q23 0 39 -11t23.5 -27t8 -35t-7.5 -35t-24 -27t-39 -11h-212q-24 0 -39.5 11t-23.5 27t-8 35t8 35t23.5 27t39.5 11h35v405h-35q-24 0 -39.5 11t-23.5 27t-8 35t8 35t23.5 27t39.5 11h212q23 0 39 -11t23.5 -27t8 -35t-7.5 -35t-24 -27t-39 -11h-31v-405h31v0z
M181 809q18 0 26.5 -11.5t8.5 -25t-8.5 -25t-26.5 -11.5t-26.5 11.5t-8.5 25t8.5 25t26.5 11.5zM273 809q18 0 26.5 -11.5t8.5 -25t-8.5 -25t-26.5 -11.5t-26.5 11.5t-8.5 25t8.5 25t26.5 11.5z" />
    <glyph glyph-name="Eth" unicode="&#xd0;" horiz-adv-x="651" 
d="M258 368q23 0 38.5 -11t23.5 -27t8 -35t-8 -35t-23.5 -27t-38.5 -11h-7v-77q61 -2 99 19.5t58.5 53t27 65t5.5 54.5q-1 33 -13.5 64t-32.5 57.5t-46.5 47t-55.5 31.5q-17 7 -30 10t-26 4t-28 0t-34 -2q-15 -1 -28.5 5t-23 16.5t-15.5 24.5t-6 28q0 31 21.5 51t51.5 22
q84 5 165.5 -20.5t141.5 -88.5q50 -52 78 -120t27 -140q-1 -69 -26.5 -136t-79.5 -112q-69 -58 -150.5 -71.5t-168.5 0.5q-8 1 -18 7.5t-18.5 16.5t-14.5 23.5t-6 29.5v137q-30 4 -45.5 25.5t-15.5 47t15.5 47.5t45.5 25v78q0 23 11 39t27 23.5t35 8t35 -7.5t27 -24t11 -39
v-77h7v0z" />
    <glyph glyph-name="Ntilde" unicode="&#xd1;" horiz-adv-x="593" 
d="M393 628q0 23 11 39t27 23.5t35 8t35 -7.5t27 -24t11 -39v-537q0 -37 -16 -58.5t-38.5 -28.5t-46 2t-38.5 34q-53 85 -103 169t-101 169v-308q0 -23 -11 -39t-27 -24t-35 -7.5t-35 8t-27 23t-11 39.5v558q0 27 17 44.5t41 23t49 -3.5t41 -36q48 -82 97 -162.5t98 -161.5
v296v0zM320 814q10 12 24 12.5t25.5 -6.5t15.5 -20t-5 -27q-7 -11 -17 -20t-21 -13.5t-23.5 -4t-25.5 8.5q-5 3 -9 6.5t-9 7.5l-2 1q-12 -12 -25.5 -9.5t-22.5 12t-11 24t10 27.5q16 18 39 22.5t43 -10.5q7 -5 14 -11z" />
    <glyph glyph-name="Ograve" unicode="&#xd2;" horiz-adv-x="601" 
d="M518 534q18 -44 26.5 -99.5t5.5 -114t-18.5 -114.5t-44.5 -100.5t-72.5 -73.5t-103.5 -32h-9h-9q-53 3 -93 25.5t-67.5 58t-44.5 81t-24 94.5t-6 98t10 91q7 37 22 76t38 73t54.5 59t72.5 35q46 11 86.5 3t74 -30t59.5 -56t43 -74zM294 146q26 -1 44.5 13.5t31 37
t19.5 49.5t10.5 51.5t4.5 43.5t1 25q0 3 -1 18.5t-4 35.5t-9 43t-16.5 43t-26.5 32.5t-38 13.5q-24 0 -41.5 -13t-29 -33.5t-19 -44t-11 -44.5t-5 -35.5t-1.5 -15.5q0 -6 -0.5 -24.5t1 -42.5t6.5 -50.5t15 -49t27 -37.5t42 -16zM294 829q21 -23 38 -29.5t41 -4.5
q19 1 27 -6.5t6.5 -18t-11 -20t-24.5 -12.5q-36 -8 -67.5 0t-50.5 22q-22 16 -24.5 35.5t6.5 33t25.5 16t33.5 -15.5z" />
    <glyph glyph-name="Oacute" unicode="&#xd3;" horiz-adv-x="601" 
d="M514 534q18 -44 26.5 -99.5t5.5 -114t-18.5 -114.5t-44.5 -100.5t-72.5 -73.5t-103.5 -32h-9h-9q-53 3 -93 25.5t-67.5 58t-44.5 81t-24 94.5t-6 98t10 91q7 37 22 76t38 73t54.5 59t72.5 35q46 11 86.5 3t74 -30t59.5 -56t43 -74zM290 146q26 -1 44.5 13.5t31 37
t19.5 49.5t10.5 51.5t4.5 43.5t1 25q0 3 -1 18.5t-4 35.5t-9 43t-16.5 43t-26.5 32.5t-38 13.5q-24 0 -41.5 -13t-29 -33.5t-19 -44t-11 -44.5t-5 -35.5t-1.5 -15.5q0 -6 -0.5 -24.5t1 -42.5t6.5 -50.5t15 -49t27 -37.5t42 -16zM320 830q17 18 33.5 15.5t25.5 -16t6.5 -33
t-24.5 -35.5q-19 -14 -50.5 -22t-67.5 0q-15 3 -24.5 12.5t-11 20t6 18t27.5 6.5q24 -2 41 4.5t38 29.5z" />
    <glyph glyph-name="Ocircumflex" unicode="&#xd4;" horiz-adv-x="601" 
d="M514 534q18 -44 26.5 -99.5t5.5 -114t-18.5 -114.5t-44.5 -100.5t-72.5 -73.5t-103.5 -32h-9h-9q-53 3 -93 25.5t-67.5 58t-44.5 81t-24 94.5t-6 98t10 91q7 37 22 76t38 73t54.5 59t72.5 35q46 11 86.5 3t74 -30t59.5 -56t43 -74zM290 146q26 -1 44.5 13.5t31 37
t19.5 49.5t10.5 51.5t4.5 43.5t1 25q0 3 -1 18.5t-4 35.5t-9 43t-16.5 43t-26.5 32.5t-38 13.5q-24 0 -41.5 -13t-29 -33.5t-19 -44t-11 -44.5t-5 -35.5t-1.5 -15.5q0 -6 -0.5 -24.5t1 -42.5t6.5 -50.5t15 -49t27 -37.5t42 -16zM379 788q6 -14 3.5 -28t-16.5 -22
q-12 -7 -28 -4t-22 17q-2 5 -5 10.5t-5 10.5q-2 -5 -5 -8.5t-5 -8.5q-8 -13 -22 -17t-28 4q-13 7 -17 21.5t4 28.5q11 20 19.5 37t19.5 35q5 9 15.5 13t21.5 4t20.5 -4.5t14.5 -12.5q11 -19 19 -38z" />
    <glyph glyph-name="Otilde" unicode="&#xd5;" horiz-adv-x="601" 
d="M513 534q18 -44 26.5 -99.5t5.5 -114t-18.5 -114.5t-44.5 -100.5t-72.5 -73.5t-103.5 -32h-9h-9q-53 3 -93 25.5t-67.5 58t-44.5 81t-24 94.5t-6 98t10 91q7 37 22 76t38 73t54.5 59t72.5 35q46 11 86.5 3t74 -30t59.5 -56t43 -74zM289 146q26 -1 44.5 13.5t31 37
t19.5 49.5t10.5 51.5t4.5 43.5t1 25q0 3 -1 18.5t-4 35.5t-9 43t-16.5 43t-26.5 32.5t-38 13.5q-24 0 -41.5 -13t-29 -33.5t-19 -44t-11 -44.5t-5 -35.5t-1.5 -15.5q0 -6 -0.5 -24.5t1 -42.5t6.5 -50.5t15 -49t27 -37.5t42 -16zM323 814q10 12 24 12.5t25.5 -6.5t15.5 -20
t-5 -27q-7 -11 -17 -20t-21 -13.5t-23.5 -4t-25.5 8.5q-5 3 -9 6.5t-9 7.5l-2 1q-12 -12 -25.5 -9.5t-22.5 12t-11 24t10 27.5q16 18 39 22.5t43 -10.5q7 -5 14 -11z" />
    <glyph glyph-name="Odieresis" unicode="&#xd6;" horiz-adv-x="601" 
d="M515 534q18 -44 26.5 -99.5t5.5 -114t-18.5 -114.5t-44.5 -100.5t-72.5 -73.5t-103.5 -32h-9h-9q-53 3 -93 25.5t-67.5 58t-44.5 81t-24 94.5t-6 98t10 91q7 37 22 76t38 73t54.5 59t72.5 35q46 11 86.5 3t74 -30t59.5 -56t43 -74zM291 146q26 -1 44.5 13.5t31 37
t19.5 49.5t10.5 51.5t4.5 43.5t1 25q0 3 -1 18.5t-4 35.5t-9 43t-16.5 43t-26.5 32.5t-38 13.5q-24 0 -41.5 -13t-29 -33.5t-19 -44t-11 -44.5t-5 -35.5t-1.5 -15.5q0 -6 -0.5 -24.5t1 -42.5t6.5 -50.5t15 -49t27 -37.5t42 -16zM259 809q18 0 26.5 -11.5t8.5 -25t-8.5 -25
t-26.5 -11.5t-26.5 11.5t-8.5 25t8.5 25t26.5 11.5zM351 809q18 0 26.5 -11.5t8.5 -25t-8.5 -25t-26.5 -11.5t-26.5 11.5t-8.5 25t8.5 25t26.5 11.5z" />
    <glyph glyph-name="multiply" unicode="&#xd7;" horiz-adv-x="461" 
d="M328 177q14 -13 26.5 -26t26.5 -27q17 -16 20 -35t-3 -36t-19 -30t-30 -19t-36 -3t-35 20q-14 14 -26.5 27t-26.5 26l-53 -53q-17 -16 -35.5 -19.5t-35.5 2.5t-30 19t-19 30t-3 35.5t20 35.5l53 53q-13 14 -26 26.5t-27 26.5q-17 16 -20 35t3 36t19 30t30 19t35.5 2.5
t35.5 -19.5q14 -14 27 -26.5t26 -26.5l53 53q16 16 35 19.5t36 -2.5t30 -19t19 -30t2.5 -36t-19.5 -35l-53 -53v0z" />
    <glyph glyph-name="Oslash" unicode="&#xd8;" horiz-adv-x="601" 
d="M511 534q18 -44 26.5 -99.5t5.5 -114t-18.5 -114.5t-44.5 -100.5t-72.5 -73.5t-103.5 -32h-18q-32 1 -62 11q-1 -2 -1.5 -5t-1.5 -5q-7 -21 -24.5 -27.5t-34 -2t-26.5 18.5t-3 35l12 36q-34 34 -55 81.5t-30.5 100t-8.5 106t10 99.5q7 37 22 76t38 73t54.5 59t72.5 35
q32 8 61.5 6t55.5 -11q10 13 26.5 15.5t30.5 -3.5t21.5 -19t1.5 -32q-1 -2 -1.5 -5t-1.5 -5q43 -41 69 -103zM287 146q26 -1 44.5 13.5t31 37t19.5 49.5t10.5 51.5t4.5 43.5t1 25q0 3 -1 12.5t-2.5 23.5t-4 31t-7.5 34q-28 -81 -55.5 -160t-55.5 -159q10 -2 15 -2zM196 366
q0 -5 -0.5 -18.5t0 -31.5t3 -39t7.5 -42q27 79 54 157.5t55 157.5q-8 2 -12 2q-24 0 -41.5 -13t-29 -33.5t-19 -44t-11 -44.5t-5 -35.5t-1.5 -15.5z" />
    <glyph glyph-name="Ugrave" unicode="&#xd9;" horiz-adv-x="633" 
d="M564 563q5 -30 10.5 -74t6.5 -94t-4 -103t-21 -101.5t-44.5 -89.5t-73.5 -67q-42 -25 -93 -32t-98 7q-49 14 -83.5 44t-57 69.5t-34.5 85.5t-16 92q-8 85 3.5 173.5t41.5 168.5q11 28 35 43.5t55 7.5q13 -4 24.5 -13t19 -21.5t9.5 -26.5t-3 -28q-6 -17 -13.5 -51
t-13.5 -69.5t-10.5 -63.5t-4.5 -33q0 -7 -1.5 -27.5t0 -47.5t6.5 -56.5t18 -54.5t35.5 -41.5t58.5 -16.5q47 0 73.5 29t38 72.5t12 94t-3.5 95t-10 75.5t-6 34q-4 16 -8 31t-9 31q-11 33 5.5 56t43 30t54 -4t38.5 -44q6 -20 11 -40t9 -40zM305 829q21 -23 38 -29.5t41 -4.5
q19 1 27 -6.5t6.5 -18t-11 -20t-24.5 -12.5q-36 -8 -67.5 0t-50.5 22q-22 16 -24.5 35.5t6.5 33t25.5 16t33.5 -15.5z" />
    <glyph glyph-name="Uacute" unicode="&#xda;" horiz-adv-x="633" 
d="M564 563q5 -30 10.5 -74t6.5 -94t-4 -103t-21 -101.5t-44.5 -89.5t-73.5 -67q-42 -25 -93 -32t-98 7q-49 14 -83.5 44t-57 69.5t-34.5 85.5t-16 92q-8 85 3.5 173.5t41.5 168.5q11 28 35 43.5t55 7.5q13 -4 24.5 -13t19 -21.5t9.5 -26.5t-3 -28q-6 -17 -13.5 -51
t-13.5 -69.5t-10.5 -63.5t-4.5 -33q0 -7 -1.5 -27.5t0 -47.5t6.5 -56.5t18 -54.5t35.5 -41.5t58.5 -16.5q47 0 73.5 29t38 72.5t12 94t-3.5 95t-10 75.5t-6 34q-4 16 -8 31t-9 31q-11 33 5.5 56t43 30t54 -4t38.5 -44q6 -20 11 -40t9 -40zM340 830q17 18 33.5 15.5t25.5 -16
t6.5 -33t-24.5 -35.5q-19 -14 -50.5 -22t-67.5 0q-15 3 -24.5 12.5t-11 20t6 18t27.5 6.5q24 -2 41 4.5t38 29.5z" />
    <glyph glyph-name="Ucircumflex" unicode="&#xdb;" horiz-adv-x="633" 
d="M564 563q5 -30 10.5 -74t6.5 -94t-4 -103t-21 -101.5t-44.5 -89.5t-73.5 -67q-42 -25 -93 -32t-98 7q-49 14 -83.5 44t-57 69.5t-34.5 85.5t-16 92q-8 85 3.5 173.5t41.5 168.5q11 28 35 43.5t55 7.5q13 -4 24.5 -13t19 -21.5t9.5 -26.5t-3 -28q-6 -17 -13.5 -51
t-13.5 -69.5t-10.5 -63.5t-4.5 -33q0 -7 -1.5 -27.5t0 -47.5t6.5 -56.5t18 -54.5t35.5 -41.5t58.5 -16.5q47 0 73.5 29t38 72.5t12 94t-3.5 95t-10 75.5t-6 34q-4 16 -8 31t-9 31q-11 33 5.5 56t43 30t54 -4t38.5 -44q6 -20 11 -40t9 -40zM395 788q6 -14 3.5 -28t-16.5 -22
q-12 -7 -28 -4t-22 17q-2 5 -5 10.5t-5 10.5q-2 -5 -5 -8.5t-5 -8.5q-8 -13 -22 -17t-28 4q-13 7 -17 21.5t4 28.5q11 20 19.5 37t19.5 35q5 9 15.5 13t21.5 4t20.5 -4.5t14.5 -12.5q11 -19 19 -38z" />
    <glyph glyph-name="Udieresis" unicode="&#xdc;" horiz-adv-x="633" 
d="M564 563q5 -30 10.5 -74t6.5 -94t-4 -103t-21 -101.5t-44.5 -89.5t-73.5 -67q-42 -25 -93 -32t-98 7q-49 14 -83.5 44t-57 69.5t-34.5 85.5t-16 92q-8 85 3.5 173.5t41.5 168.5q11 28 35 43.5t55 7.5q13 -4 24.5 -13t19 -21.5t9.5 -26.5t-3 -28q-6 -17 -13.5 -51
t-13.5 -69.5t-10.5 -63.5t-4.5 -33q0 -7 -1.5 -27.5t0 -47.5t6.5 -56.5t18 -54.5t35.5 -41.5t58.5 -16.5q47 0 73.5 29t38 72.5t12 94t-3.5 95t-10 75.5t-6 34q-4 16 -8 31t-9 31q-11 33 5.5 56t43 30t54 -4t38.5 -44q6 -20 11 -40t9 -40zM275 809q18 0 26.5 -11.5t8.5 -25
t-8.5 -25t-26.5 -11.5t-26.5 11.5t-8.5 25t8.5 25t26.5 11.5zM367 809q18 0 26.5 -11.5t8.5 -25t-8.5 -25t-26.5 -11.5t-26.5 11.5t-8.5 25t8.5 25t26.5 11.5z" />
    <glyph glyph-name="Yacute" unicode="&#xdd;" horiz-adv-x="629" 
d="M535 646q12 -38 21.5 -78.5t14 -82t2 -83t-13.5 -80.5q-20 -68 -66.5 -112.5t-109.5 -61.5v-75q0 -30 -21.5 -51.5t-50.5 -21.5q-30 0 -51.5 21.5t-21.5 51.5v74q-70 16 -120.5 63t-63.5 123q-13 79 -0.5 157t41.5 152q11 28 34.5 43.5t54.5 7.5q13 -4 25 -13t19.5 -21.5
t9.5 -27t-3 -28.5q-11 -30 -20.5 -60t-14.5 -62q-15 -94 12.5 -144.5t90.5 -52.5q44 -2 70.5 16t39.5 47t14.5 66.5t-4.5 76.5q-5 30 -12 59t-16 58q-7 23 -2 40.5t18.5 29.5t31.5 17t36 1.5t33.5 -15.5t22.5 -34zM331 830q17 18 33.5 15.5t25.5 -16t6.5 -33t-24.5 -35.5
q-19 -14 -50.5 -22t-67.5 0q-15 3 -24.5 12.5t-11 20t6 18t27.5 6.5q24 -2 41 4.5t38 29.5z" />
    <glyph glyph-name="agrave" unicode="&#xe0;" 
d="M403 493q15 15 36.5 19t42 -2t34.5 -23t14 -44v-372q0 -27 -14 -43.5t-33.5 -22.5t-41 -2.5t-36.5 17.5q-43 -19 -95 -22t-97 15q-83 34 -128 104t-37 162q4 43 19.5 81.5t41.5 69.5t61 51.5t79 26.5q40 6 79.5 2.5t74.5 -17.5zM384 330q-20 25 -52 34.5t-63.5 1.5
t-54.5 -34t-24 -73t22 -75t55.5 -37.5t65.5 -1.5t51 32v153zM283 648q21 -23 38 -29.5t41 -4.5q19 1 27 -6.5t6.5 -18t-11 -20t-24.5 -12.5q-36 -8 -67.5 0t-50.5 22q-22 16 -24.5 35.5t6.5 33t25.5 16t33.5 -15.5z" />
    <glyph glyph-name="aacute" unicode="&#xe1;" 
d="M403 493q15 15 36.5 19t42 -2t34.5 -23t14 -44v-372q0 -27 -14 -43.5t-33.5 -22.5t-41 -2.5t-36.5 17.5q-43 -19 -95 -22t-97 15q-83 34 -128 104t-37 162q4 43 19.5 81.5t41.5 69.5t61 51.5t79 26.5q40 6 79.5 2.5t74.5 -17.5zM384 330q-20 25 -52 34.5t-63.5 1.5
t-54.5 -34t-24 -73t22 -75t55.5 -37.5t65.5 -1.5t51 32v153zM319 649q17 18 33.5 15.5t25.5 -16t6.5 -33t-24.5 -35.5q-19 -14 -50.5 -22t-67.5 0q-15 3 -24.5 12.5t-11 20t6 18t27.5 6.5q24 -2 41 4.5t38 29.5z" />
    <glyph glyph-name="acircumflex" unicode="&#xe2;" 
d="M403 493q15 15 36.5 19t42 -2t34.5 -23t14 -44v-372q0 -27 -14 -43.5t-33.5 -22.5t-41 -2.5t-36.5 17.5q-43 -19 -95 -22t-97 15q-83 34 -128 104t-37 162q4 43 19.5 81.5t41.5 69.5t61 51.5t79 26.5q40 6 79.5 2.5t74.5 -17.5zM384 330q-20 25 -52 34.5t-63.5 1.5
t-54.5 -34t-24 -73t22 -75t55.5 -37.5t65.5 -1.5t51 32v153zM374 607q6 -14 3.5 -28t-16.5 -22q-12 -7 -28 -4t-22 17q-2 5 -5 10.5t-5 10.5q-2 -5 -5 -8.5t-5 -8.5q-8 -13 -22 -17t-28 4q-13 7 -17 21.5t4 28.5q11 20 19.5 37t19.5 35q5 9 15.5 13t21.5 4t20.5 -4.5
t14.5 -12.5q11 -19 19 -38z" />
    <glyph glyph-name="atilde" unicode="&#xe3;" 
d="M403 493q15 15 36.5 19t42 -2t34.5 -23t14 -44v-372q0 -27 -14 -43.5t-33.5 -22.5t-41 -2.5t-36.5 17.5q-43 -19 -95 -22t-97 15q-83 34 -128 104t-37 162q4 43 19.5 81.5t41.5 69.5t61 51.5t79 26.5q40 6 79.5 2.5t74.5 -17.5zM384 330q-20 25 -52 34.5t-63.5 1.5
t-54.5 -34t-24 -73t22 -75t55.5 -37.5t65.5 -1.5t51 32v153zM319 633q10 12 24 12.5t25.5 -6.5t15.5 -20t-5 -27q-7 -11 -17 -20t-21 -13.5t-23.5 -4t-25.5 8.5q-5 3 -9 6.5t-9 7.5l-2 1q-12 -12 -25.5 -9.5t-22.5 12t-11 24t10 27.5q16 18 39 22.5t43 -10.5q7 -5 14 -11z
" />
    <glyph glyph-name="adieresis" unicode="&#xe4;" 
d="M403 493q15 15 36.5 19t42 -2t34.5 -23t14 -44v-372q0 -27 -14 -43.5t-33.5 -22.5t-41 -2.5t-36.5 17.5q-43 -19 -95 -22t-97 15q-83 34 -128 104t-37 162q4 43 19.5 81.5t41.5 69.5t61 51.5t79 26.5q40 6 79.5 2.5t74.5 -17.5zM384 330q-20 25 -52 34.5t-63.5 1.5
t-54.5 -34t-24 -73t22 -75t55.5 -37.5t65.5 -1.5t51 32v153zM251 628q18 0 26.5 -11.5t8.5 -25t-8.5 -25t-26.5 -11.5t-26.5 11.5t-8.5 25t8.5 25t26.5 11.5zM343 628q18 0 26.5 -11.5t8.5 -25t-8.5 -25t-26.5 -11.5t-26.5 11.5t-8.5 25t8.5 25t26.5 11.5z" />
    <glyph glyph-name="aring" unicode="&#xe5;" 
d="M403 493q15 15 36.5 19t42 -2t34.5 -23t14 -44v-372q0 -27 -14 -43.5t-33.5 -22.5t-41 -2.5t-36.5 17.5q-43 -19 -95 -22t-97 15q-83 34 -128 104t-37 162q4 43 19.5 81.5t41.5 69.5t61 51.5t79 26.5q40 6 79.5 2.5t74.5 -17.5zM384 330q-20 25 -52 34.5t-63.5 1.5
t-54.5 -34t-24 -73t22 -75t55.5 -37.5t65.5 -1.5t51 32v153zM298 715q39 0 58 -25t19 -55t-19 -55t-58 -25t-58 25t-19 55t19 55t58 25zM298 608q13 0 19.5 8.5t6.5 18.5t-6.5 18.5t-19.5 8.5t-19.5 -8.5t-6.5 -18.5t6.5 -18.5t19.5 -8.5z" />
    <glyph glyph-name="ae" unicode="&#xe6;" horiz-adv-x="946" 
d="M845 216q12 -7 21 -18.5t13 -25.5t2.5 -28.5t-10.5 -26.5q-24 -34 -55.5 -59t-68.5 -39.5t-77.5 -17.5t-81.5 8q-33 9 -66 26q-9 -14 -23.5 -22t-30.5 -9.5t-32 3t-28 15.5q-43 -19 -95 -22t-97 15q-83 34 -128 104t-37 162q4 43 19.5 81.5t41.5 69.5t61 51.5t79 26.5
q40 6 79.5 2.5t74.5 -17.5q12 12 29 17t34 3t32 -10.5t24 -24.5q24 15 51 22q37 11 76.5 11.5t76.5 -10t69.5 -31.5t56.5 -52q19 -23 21 -51.5t-21 -51.5q-9 -9 -23 -14.5t-28.5 -6.5t-28.5 4t-23 17q-5 6 -9.5 11t-9.5 11q-17 23 -43 33.5t-52 7.5t-48.5 -19.5t-32.5 -47.5
q20 0 40 0.5t40 0.5q29 0 43.5 -19t14.5 -41.5t-14.5 -42t-43.5 -19.5h-38.5t-37.5 -1q10 -26 32 -40t48.5 -15t54 12t50.5 42q18 24 45 33.5t54 -7.5zM387 332q-20 25 -52 34.5t-63.5 1.5t-54.5 -34t-24 -73t22 -75t55.5 -37.5t65.5 -1.5t51 32v153z" />
    <glyph glyph-name="ccedilla" unicode="&#xe7;" horiz-adv-x="593" 
d="M498 215q12 -7 21 -19t13 -25.5t2.5 -28t-10.5 -26.5q-37 -54 -91.5 -84t-117.5 -32v-10q25 -3 46 -18t18 -44q-2 -18 -11 -30t-22.5 -19t-30 -9t-32.5 0q-11 1 -17 9.5t-6 17.5t5.5 16t17.5 6q4 -1 12 -1.5t16 0t14 4t5 10.5q-1 6 -6 8t-11.5 3t-13 0t-9.5 -1
q-10 -2 -17 6.5t-7 17.5v36q-6 2 -12.5 2.5t-12.5 2.5q-41 10 -75 32t-59 52t-39.5 67t-16.5 79q-2 44 9.5 86t34.5 77t56.5 61.5t77.5 39.5q37 11 76 11t76 -10.5t70 -31t57 -51.5q18 -24 20.5 -52t-20.5 -51q-10 -10 -23.5 -15.5t-27.5 -5.5t-28 5t-24 16q-17 19 -33.5 29
t-30 15t-23.5 6.5t-14 1.5q-13 1 -31 -2.5t-34.5 -14.5t-28.5 -31.5t-13 -54.5q-1 -29 7.5 -50t22 -35t30 -22.5t32.5 -11.5q34 -5 61.5 8t47.5 35q20 23 46 32.5t54 -6.5z" />
    <glyph glyph-name="egrave" unicode="&#xe8;" horiz-adv-x="591" 
d="M496 216q12 -7 21 -19t13 -26t2.5 -28.5t-10.5 -26.5q-24 -34 -56 -59t-69 -39.5t-77.5 -17.5t-80.5 8q-41 10 -75 31.5t-59 52t-39.5 67.5t-16.5 79q-2 44 9.5 86t34.5 77t56.5 61.5t77.5 39.5q37 11 76 11t76 -10.5t70 -31.5t57 -52q18 -23 20.5 -51.5t-20.5 -51.5
q-10 -9 -24 -14.5t-28.5 -6.5t-28 4t-22.5 17q-5 6 -9.5 11t-9.5 11q-18 23 -44 33.5t-52 7.5t-48 -19.5t-32 -47.5q20 0 39.5 0.5t39.5 0.5q30 0 44.5 -19t14.5 -41.5t-14.5 -41.5t-44.5 -19q-19 0 -38 -0.5t-38 -0.5l1 -1q10 -26 32 -40t48.5 -15t54 12.5t49.5 42.5
q18 23 45 32.5t55 -6.5zM284 648q21 -23 38 -29.5t41 -4.5q19 1 27 -6.5t6.5 -18t-11 -20t-24.5 -12.5q-36 -8 -67.5 0t-50.5 22q-22 16 -24.5 35.5t6.5 33t25.5 16t33.5 -15.5z" />
    <glyph glyph-name="eacute" unicode="&#xe9;" horiz-adv-x="591" 
d="M496 216q12 -7 21 -19t13 -26t2.5 -28.5t-10.5 -26.5q-24 -34 -56 -59t-69 -39.5t-77.5 -17.5t-80.5 8q-41 10 -75 31.5t-59 52t-39.5 67.5t-16.5 79q-2 44 9.5 86t34.5 77t56.5 61.5t77.5 39.5q37 11 76 11t76 -10.5t70 -31.5t57 -52q18 -23 20.5 -51.5t-20.5 -51.5
q-10 -9 -24 -14.5t-28.5 -6.5t-28 4t-22.5 17q-5 6 -9.5 11t-9.5 11q-18 23 -44 33.5t-52 7.5t-48 -19.5t-32 -47.5q20 0 39.5 0.5t39.5 0.5q30 0 44.5 -19t14.5 -41.5t-14.5 -41.5t-44.5 -19q-19 0 -38 -0.5t-38 -0.5l1 -1q10 -26 32 -40t48.5 -15t54 12.5t49.5 42.5
q18 23 45 32.5t55 -6.5zM316 649q17 18 33.5 15.5t25.5 -16t6.5 -33t-24.5 -35.5q-19 -14 -50.5 -22t-67.5 0q-15 3 -24.5 12.5t-11 20t6 18t27.5 6.5q24 -2 41 4.5t38 29.5z" />
    <glyph glyph-name="ecircumflex" unicode="&#xea;" horiz-adv-x="591" 
d="M496 216q12 -7 21 -19t13 -26t2.5 -28.5t-10.5 -26.5q-24 -34 -56 -59t-69 -39.5t-77.5 -17.5t-80.5 8q-41 10 -75 31.5t-59 52t-39.5 67.5t-16.5 79q-2 44 9.5 86t34.5 77t56.5 61.5t77.5 39.5q37 11 76 11t76 -10.5t70 -31.5t57 -52q18 -23 20.5 -51.5t-20.5 -51.5
q-10 -9 -24 -14.5t-28.5 -6.5t-28 4t-22.5 17q-5 6 -9.5 11t-9.5 11q-18 23 -44 33.5t-52 7.5t-48 -19.5t-32 -47.5q20 0 39.5 0.5t39.5 0.5q30 0 44.5 -19t14.5 -41.5t-14.5 -41.5t-44.5 -19q-19 0 -38 -0.5t-38 -0.5l1 -1q10 -26 32 -40t48.5 -15t54 12.5t49.5 42.5
q18 23 45 32.5t55 -6.5zM373 607q6 -14 3.5 -28t-16.5 -22q-12 -7 -28 -4t-22 17q-2 5 -5 10.5t-5 10.5q-2 -5 -5 -8.5t-5 -8.5q-8 -13 -22 -17t-28 4q-13 7 -17 21.5t4 28.5q11 20 19.5 37t19.5 35q5 9 15.5 13t21.5 4t20.5 -4.5t14.5 -12.5q11 -19 19 -38z" />
    <glyph glyph-name="edieresis" unicode="&#xeb;" horiz-adv-x="591" 
d="M496 216q12 -7 21 -19t13 -26t2.5 -28.5t-10.5 -26.5q-24 -34 -56 -59t-69 -39.5t-77.5 -17.5t-80.5 8q-41 10 -75 31.5t-59 52t-39.5 67.5t-16.5 79q-2 44 9.5 86t34.5 77t56.5 61.5t77.5 39.5q37 11 76 11t76 -10.5t70 -31.5t57 -52q18 -23 20.5 -51.5t-20.5 -51.5
q-10 -9 -24 -14.5t-28.5 -6.5t-28 4t-22.5 17q-5 6 -9.5 11t-9.5 11q-18 23 -44 33.5t-52 7.5t-48 -19.5t-32 -47.5q20 0 39.5 0.5t39.5 0.5q30 0 44.5 -19t14.5 -41.5t-14.5 -41.5t-44.5 -19q-19 0 -38 -0.5t-38 -0.5l1 -1q10 -26 32 -40t48.5 -15t54 12.5t49.5 42.5
q18 23 45 32.5t55 -6.5zM254 628q18 0 26.5 -11.5t8.5 -25t-8.5 -25t-26.5 -11.5t-26.5 11.5t-8.5 25t8.5 25t26.5 11.5zM346 628q18 0 26.5 -11.5t8.5 -25t-8.5 -25t-26.5 -11.5t-26.5 11.5t-8.5 25t8.5 25t26.5 11.5z" />
    <glyph glyph-name="igrave" unicode="&#xec;" horiz-adv-x="246" 
d="M51 449v-379q0 -35 22.5 -53t50 -18t50 18t22.5 53v379q0 35 -22.5 52.5t-50 17.5t-50 -17.5t-22.5 -52.5zM114 648q21 -23 38 -29.5t41 -4.5q19 1 27 -6.5t6.5 -18t-11 -20t-24.5 -12.5q-36 -8 -67.5 0t-50.5 22q-22 16 -24.5 35.5t6.5 33t25.5 16t33.5 -15.5z" />
    <glyph glyph-name="iacute" unicode="&#xed;" horiz-adv-x="246" 
d="M51 449q0 35 22.5 52.5t50 17.5t50 -17.5t22.5 -52.5v-379q0 -35 -22.5 -53t-50 -18t-50 18t-22.5 53v379zM147 649q17 18 33.5 15.5t25.5 -16t6.5 -33t-24.5 -35.5q-19 -14 -50.5 -22t-67.5 0q-15 3 -24.5 12.5t-11 20t6 18t27.5 6.5q24 -2 41 4.5t38 29.5z" />
    <glyph glyph-name="icircumflex" unicode="&#xee;" horiz-adv-x="246" 
d="M52 449q0 35 22.5 52.5t50 17.5t50 -17.5t22.5 -52.5v-379q0 -35 -22.5 -53t-50 -18t-50 18t-22.5 53v379zM200 607q6 -14 3.5 -28t-16.5 -22q-12 -7 -28 -4t-22 17q-2 5 -5 10.5t-5 10.5q-2 -5 -5 -8.5t-5 -8.5q-8 -13 -22 -17t-28 4q-13 7 -17 21.5t4 28.5
q11 20 19.5 37t19.5 35q5 9 15.5 13t21.5 4t20.5 -4.5t14.5 -12.5q11 -19 19 -38z" />
    <glyph glyph-name="idieresis" unicode="&#xef;" horiz-adv-x="246" 
d="M52 449q0 35 22.5 52.5t50 17.5t50 -17.5t22.5 -52.5v-379q0 -35 -22.5 -53t-50 -18t-50 18t-22.5 53v379zM80 628q18 0 26.5 -11.5t8.5 -25t-8.5 -25t-26.5 -11.5t-26.5 11.5t-8.5 25t8.5 25t26.5 11.5zM172 628q18 0 26.5 -11.5t8.5 -25t-8.5 -25t-26.5 -11.5
t-26.5 11.5t-8.5 25t8.5 25t26.5 11.5z" />
    <glyph glyph-name="ntilde" unicode="&#xf1;" horiz-adv-x="604" 
d="M305 511q52 -6 90.5 -29t65.5 -58t44.5 -79t26.5 -91t10.5 -94.5t-1.5 -89.5q-2 -30 -21.5 -51.5t-51.5 -21.5q-14 0 -27.5 6t-23.5 15.5t-16 23t-5 28.5q2 20 2.5 39.5t-0.5 39.5q-2 45 -8 84.5t-18.5 69t-34 47t-53.5 17.5q-27 0 -44.5 -17.5t-27.5 -41t-13.5 -47.5
t-3.5 -38v-151q0 -23 -11 -39t-27 -23.5t-35 -8t-35 7.5t-27 23.5t-11 39.5v372q0 29 16.5 46t38.5 22t44.5 -2.5t35.5 -26.5q27 17 58 24.5t63 3.5zM313 633q10 12 24 12.5t25.5 -6.5t15.5 -20t-5 -27q-7 -11 -17 -20t-21 -13.5t-23.5 -4t-25.5 8.5q-5 3 -9 6.5t-9 7.5
l-2 1q-12 -12 -25.5 -9.5t-22.5 12t-11 24t10 27.5q16 18 39 22.5t43 -10.5q7 -5 14 -11z" />
    <glyph glyph-name="ograve" unicode="&#xf2;" horiz-adv-x="604" 
d="M301 512q69 -2 118 -31t78 -73t39.5 -97t3.5 -103q-7 -46 -30.5 -86t-58.5 -68.5t-78.5 -43t-90.5 -9.5q-50 4 -91.5 24.5t-72.5 53t-48.5 75.5t-19.5 93q0 75 22 126.5t58 82.5t81 44t90 12zM295 147q35 -1 58.5 14.5t35.5 39.5t12.5 52.5t-11 53t-34.5 41t-58 17.5
q-34 0 -58 -16t-36.5 -40t-13.5 -51.5t10.5 -52t35 -41t59.5 -17.5zM281 648q21 -23 38 -29.5t41 -4.5q19 1 27 -6.5t6.5 -18t-11 -20t-24.5 -12.5q-36 -8 -67.5 0t-50.5 22q-22 16 -24.5 35.5t6.5 33t25.5 16t33.5 -15.5z" />
    <glyph glyph-name="oacute" unicode="&#xf3;" horiz-adv-x="604" 
d="M301 512q69 -2 118 -31t78 -73t39.5 -97t3.5 -103q-7 -46 -30.5 -86t-58.5 -68.5t-78.5 -43t-90.5 -9.5q-50 4 -91.5 24.5t-72.5 53t-48.5 75.5t-19.5 93q0 75 22 126.5t58 82.5t81 44t90 12zM295 147q35 -1 58.5 14.5t35.5 39.5t12.5 52.5t-11 53t-34.5 41t-58 17.5
q-34 0 -58 -16t-36.5 -40t-13.5 -51.5t10.5 -52t35 -41t59.5 -17.5zM315 649q17 18 33.5 15.5t25.5 -16t6.5 -33t-24.5 -35.5q-19 -14 -50.5 -22t-67.5 0q-15 3 -24.5 12.5t-11 20t6 18t27.5 6.5q24 -2 41 4.5t38 29.5z" />
    <glyph glyph-name="ocircumflex" unicode="&#xf4;" horiz-adv-x="604" 
d="M301 512q69 -2 118 -31t78 -73t39.5 -97t3.5 -103q-7 -46 -30.5 -86t-58.5 -68.5t-78.5 -43t-90.5 -9.5q-50 4 -91.5 24.5t-72.5 53t-48.5 75.5t-19.5 93q0 75 22 126.5t58 82.5t81 44t90 12zM295 147q35 -1 58.5 14.5t35.5 39.5t12.5 52.5t-11 53t-34.5 41t-58 17.5
q-34 0 -58 -16t-36.5 -40t-13.5 -51.5t10.5 -52t35 -41t59.5 -17.5zM372 607q6 -14 3.5 -28t-16.5 -22q-12 -7 -28 -4t-22 17q-2 5 -5 10.5t-5 10.5q-2 -5 -5 -8.5t-5 -8.5q-8 -13 -22 -17t-28 4q-13 7 -17 21.5t4 28.5q11 20 19.5 37t19.5 35q5 9 15.5 13t21.5 4t20.5 -4.5
t14.5 -12.5q11 -19 19 -38z" />
    <glyph glyph-name="otilde" unicode="&#xf5;" horiz-adv-x="604" 
d="M301 512q69 -2 118 -31t78 -73t39.5 -97t3.5 -103q-7 -46 -30.5 -86t-58.5 -68.5t-78.5 -43t-90.5 -9.5q-50 4 -91.5 24.5t-72.5 53t-48.5 75.5t-19.5 93q0 75 22 126.5t58 82.5t81 44t90 12zM295 147q35 -1 58.5 14.5t35.5 39.5t12.5 52.5t-11 53t-34.5 41t-58 17.5
q-34 0 -58 -16t-36.5 -40t-13.5 -51.5t10.5 -52t35 -41t59.5 -17.5zM319 633q10 12 24 12.5t25.5 -6.5t15.5 -20t-5 -27q-7 -11 -17 -20t-21 -13.5t-23.5 -4t-25.5 8.5q-5 3 -9 6.5t-9 7.5l-2 1q-12 -12 -25.5 -9.5t-22.5 12t-11 24t10 27.5q16 18 39 22.5t43 -10.5
q7 -5 14 -11z" />
    <glyph glyph-name="odieresis" unicode="&#xf6;" horiz-adv-x="598" 
d="M301 512q69 -2 118 -31t78 -73t39.5 -97t3.5 -103q-7 -46 -30.5 -86t-58.5 -68.5t-78.5 -43t-90.5 -9.5q-50 4 -91.5 24.5t-72.5 53t-48.5 75.5t-19.5 93q0 75 22 126.5t58 82.5t81 44t90 12zM295 147q35 -1 58.5 14.5t35.5 39.5t12.5 52.5t-11 53t-34.5 41t-58 17.5
q-34 0 -58 -16t-36.5 -40t-13.5 -51.5t10.5 -52t35 -41t59.5 -17.5zM255 628q18 0 26.5 -11.5t8.5 -25t-8.5 -25t-26.5 -11.5t-26.5 11.5t-8.5 25t8.5 25t26.5 11.5zM347 628q18 0 26.5 -11.5t8.5 -25t-8.5 -25t-26.5 -11.5t-26.5 11.5t-8.5 25t8.5 25t26.5 11.5z" />
    <glyph glyph-name="divide" unicode="&#xf7;" horiz-adv-x="347" 
d="M170 146q23 0 39 -11t23.5 -27t8 -35t-7.5 -35t-24 -27t-39 -11q-24 0 -39.5 11t-23.5 27t-7.5 35t8 35t23 27t39.5 11zM170 263q-24 0 -39.5 11t-23.5 27t-7.5 35t8 35t23 27t39.5 11q23 0 39 -11t23.5 -27t8 -35t-7.5 -35t-24 -27t-39 -11z" />
    <glyph glyph-name="oslash" unicode="&#xf8;" horiz-adv-x="598" 
d="M350 513q6 16 20.5 21t28.5 1.5t23 -14t3 -26.5l-6 -15q36 -21 61.5 -52t40.5 -67.5t19.5 -76t-0.5 -76.5q-7 -46 -30.5 -86t-58.5 -68.5t-78.5 -43t-90.5 -9.5q-11 1 -22 3l-22 4q-1 -2 -1.5 -4t-1.5 -4q-6 -16 -20.5 -21t-28.5 -1.5t-22.5 14t-2.5 26.5l7 19
q-53 32 -84.5 86.5t-33.5 123.5q0 75 22 126.5t58 82.5t81 44t90 12q25 -2 46 -6zM295 147q42 -1 67 21t34 53t1.5 64t-31.5 55q-19 -49 -37.5 -97t-36.5 -96h3zM293 365q-39 -2 -63.5 -23.5t-34 -51t-3.5 -61t29 -53.5z" />
    <glyph glyph-name="ugrave" unicode="&#xf9;" horiz-adv-x="607" 
d="M406 443q0 24 11 39.5t27 23t35 7.5t35 -7.5t27 -23.5t11 -39v-372q0 -30 -16.5 -47t-38.5 -22t-45 2.5t-35 27.5q-30 -20 -69 -29.5t-74 -5.5q-56 6 -95 30t-65 60.5t-39.5 82.5t-18.5 95t-2.5 98.5t8.5 93.5q2 15 11.5 26t22.5 18t28 9t28 -2q32 -8 43.5 -34t6.5 -55
q-1 -11 -3.5 -36t-2 -55t5.5 -62.5t17 -59.5t33 -45t55 -19q37 -1 57 17.5t29.5 44t11 52t1.5 41.5v146v0zM284 648q21 -23 38 -29.5t41 -4.5q19 1 27 -6.5t6.5 -18t-11 -20t-24.5 -12.5q-36 -8 -67.5 0t-50.5 22q-22 16 -24.5 35.5t6.5 33t25.5 16t33.5 -15.5z" />
    <glyph glyph-name="uacute" unicode="&#xfa;" horiz-adv-x="607" 
d="M406 443q0 24 11 39.5t27 23t35 7.5t35 -7.5t27 -23.5t11 -39v-372q0 -30 -16.5 -47t-38.5 -22t-45 2.5t-35 27.5q-30 -20 -69 -29.5t-74 -5.5q-56 6 -95 30t-65 60.5t-39.5 82.5t-18.5 95t-2.5 98.5t8.5 93.5q2 15 11.5 26t22.5 18t28 9t28 -2q32 -8 43.5 -34t6.5 -55
q-1 -11 -3.5 -36t-2 -55t5.5 -62.5t17 -59.5t33 -45t55 -19q37 -1 57 17.5t29.5 44t11 52t1.5 41.5v146v0zM315 649q17 18 33.5 15.5t25.5 -16t6.5 -33t-24.5 -35.5q-19 -14 -50.5 -22t-67.5 0q-15 3 -24.5 12.5t-11 20t6 18t27.5 6.5q24 -2 41 4.5t38 29.5z" />
    <glyph glyph-name="ucircumflex" unicode="&#xfb;" horiz-adv-x="607" 
d="M406 443q0 24 11 39.5t27 23t35 7.5t35 -7.5t27 -23.5t11 -39v-372q0 -30 -16.5 -47t-38.5 -22t-45 2.5t-35 27.5q-30 -20 -69 -29.5t-74 -5.5q-56 6 -95 30t-65 60.5t-39.5 82.5t-18.5 95t-2.5 98.5t8.5 93.5q2 15 11.5 26t22.5 18t28 9t28 -2q32 -8 43.5 -34t6.5 -55
q-1 -11 -3.5 -36t-2 -55t5.5 -62.5t17 -59.5t33 -45t55 -19q37 -1 57 17.5t29.5 44t11 52t1.5 41.5v146v0zM372 607q6 -14 3.5 -28t-16.5 -22q-12 -7 -28 -4t-22 17q-2 5 -5 10.5t-5 10.5q-2 -5 -5 -8.5t-5 -8.5q-8 -13 -22 -17t-28 4q-13 7 -17 21.5t4 28.5q11 20 19.5 37
t19.5 35q5 9 15.5 13t21.5 4t20.5 -4.5t14.5 -12.5q11 -19 19 -38z" />
    <glyph glyph-name="udieresis" unicode="&#xfc;" horiz-adv-x="607" 
d="M406 443q0 24 11 39.5t27 23t35 7.5t35 -7.5t27 -23.5t11 -39v-372q0 -30 -16.5 -47t-38.5 -22t-45 2.5t-35 27.5q-30 -20 -69 -29.5t-74 -5.5q-56 6 -95 30t-65 60.5t-39.5 82.5t-18.5 95t-2.5 98.5t8.5 93.5q2 15 11.5 26t22.5 18t28 9t28 -2q32 -8 43.5 -34t6.5 -55
q-1 -11 -3.5 -36t-2 -55t5.5 -62.5t17 -59.5t33 -45t55 -19q37 -1 57 17.5t29.5 44t11 52t1.5 41.5v146v0zM254 628q18 0 26.5 -11.5t8.5 -25t-8.5 -25t-26.5 -11.5t-26.5 11.5t-8.5 25t8.5 25t26.5 11.5zM346 628q18 0 26.5 -11.5t8.5 -25t-8.5 -25t-26.5 -11.5t-26.5 11.5
t-8.5 25t8.5 25t26.5 11.5z" />
    <glyph glyph-name="yacute" unicode="&#xfd;" horiz-adv-x="606" 
d="M403 444q1 37 24 53t50.5 15t50 -18.5t22.5 -48.5v-32t-0.5 -64t-1 -85t-1 -95t-1.5 -94t-1.5 -82.5t-1 -59.5t-1.5 -26q-5 -35 -23.5 -62t-45 -45.5t-58.5 -29t-65 -11.5q-75 -2 -138 31.5t-105 94.5q-9 12 -10.5 26.5t2.5 28t13 25.5t21 19q27 16 54.5 7t44.5 -33
q25 -35 54 -50.5t54.5 -11.5t42.5 27.5t17 68.5q1 8 1 16.5v17.5q-29 -16 -63.5 -23t-65.5 -4q-56 6 -95 30.5t-65 61t-39.5 82t-18.5 95t-2.5 99t8.5 93.5q2 15 11.5 26t22.5 17.5t28 8.5t28 -2q31 -8 43 -34t7 -55q-1 -12 -3.5 -36.5t-2 -54.5t5.5 -62.5t17 -59.5t33 -45
t55 -19q25 0 42.5 9t28.5 23.5t16.5 33t8.5 36.5v96t2 102zM315 649q17 18 33.5 15.5t25.5 -16t6.5 -33t-24.5 -35.5q-19 -14 -50.5 -22t-67.5 0q-15 3 -24.5 12.5t-11 20t6 18t27.5 6.5q24 -2 41 4.5t38 29.5z" />
    <glyph glyph-name="ydieresis" unicode="&#xff;" horiz-adv-x="606" 
d="M403 444q1 37 24 53t50.5 15t50 -18.5t22.5 -48.5v-32t-0.5 -64t-1 -85t-1 -95t-1.5 -94t-1.5 -82.5t-1 -59.5t-1.5 -26q-5 -35 -23.5 -62t-45 -45.5t-58.5 -29t-65 -11.5q-75 -2 -138 31.5t-105 94.5q-9 12 -10.5 26.5t2.5 28t13 25.5t21 19q27 16 54.5 7t44.5 -33
q25 -35 54 -50.5t54.5 -11.5t42.5 27.5t17 68.5q1 8 1 16.5v17.5q-29 -16 -63.5 -23t-65.5 -4q-56 6 -95 30.5t-65 61t-39.5 82t-18.5 95t-2.5 99t8.5 93.5q2 15 11.5 26t22.5 17.5t28 8.5t28 -2q31 -8 43 -34t7 -55q-1 -12 -3.5 -36.5t-2 -54.5t5.5 -62.5t17 -59.5t33 -45
t55 -19q25 0 42.5 9t28.5 23.5t16.5 33t8.5 36.5v96t2 102zM254 628q18 0 26.5 -11.5t8.5 -25t-8.5 -25t-26.5 -11.5t-26.5 11.5t-8.5 25t8.5 25t26.5 11.5zM346 628q18 0 26.5 -11.5t8.5 -25t-8.5 -25t-26.5 -11.5t-26.5 11.5t-8.5 25t8.5 25t26.5 11.5z" />
    <glyph glyph-name="OE" unicode="&#x152;" horiz-adv-x="901" 
d="M827 150q23 0 39 -11t23.5 -27t7.5 -35t-7.5 -35t-23.5 -27t-39 -11h-343q-12 0 -31 7.5t-32 26.5q-47 -34 -112 -38h-9h-9q-53 3 -93 25.5t-67.5 58t-44.5 81t-24 94.5t-6 98t10 91q7 37 22 76t38 73t54.5 59t72.5 35q49 11 91 2t77 -35q8 17 23.5 28t39.5 11h288
q35 0 52.5 -22.5t17.5 -50t-17.5 -50t-52.5 -22.5h-219v-156h66q30 0 51.5 -21.5t21.5 -51.5t-21.5 -51.5t-51.5 -21.5h-66v-100h274zM292 146q26 -1 44.5 13.5t31 37t19.5 49.5t10.5 51.5t4.5 43.5t1 25q0 3 -1 18.5t-4 35.5t-9 43t-16.5 43t-26.5 32.5t-38 13.5
q-24 0 -41.5 -13t-29 -33.5t-19 -44t-11 -44.5t-5 -35.5t-1.5 -15.5q0 -6 -0.5 -24.5t1 -42.5t6.5 -50.5t15 -49t27 -37.5t42 -16z" />
    <glyph glyph-name="oe" unicode="&#x153;" horiz-adv-x="943" 
d="M846 216q12 -7 21 -19t13 -25.5t2.5 -28t-10.5 -26.5q-24 -34 -55.5 -59t-68.5 -39.5t-77.5 -17.5t-81.5 8q-34 8 -63.5 25t-52.5 40q-37 -38 -86.5 -58t-104.5 -15q-50 4 -91.5 24.5t-72.5 53t-48.5 75.5t-19.5 93q0 75 22 126.5t58 82.5t81 44t90 12q57 -2 99.5 -21.5
t72.5 -51.5q21 21 47 37.5t57 25.5q37 11 76.5 11.5t76.5 -10t69.5 -31.5t56.5 -52q19 -23 21 -51.5t-21 -51.5q-9 -10 -23 -15.5t-28.5 -6t-28.5 4.5t-23 17q-5 5 -9.5 10.5t-9.5 10.5q-17 23 -43 33.5t-52 8t-48 -19t-32 -47.5h79q29 0 43.5 -18.5t14.5 -41.5t-14.5 -42
t-43.5 -19h-38.5t-37.5 -1q10 -26 32 -40t48.5 -15t54 12t50.5 42q18 24 45 33.5t54 -7.5zM295 147q23 -1 41.5 6t31.5 19t21 28t11 34v5q-2 17 0 34q-5 36 -30.5 63t-71.5 29q-34 0 -58 -16t-36.5 -40t-13.5 -51.5t10.5 -52t35 -41t59.5 -17.5z" />
    <glyph glyph-name="Ydieresis" unicode="&#x178;" horiz-adv-x="636" 
d="M535 646q12 -38 21.5 -78.5t14 -82t2 -83t-13.5 -80.5q-20 -68 -66.5 -112.5t-109.5 -61.5v-75q0 -30 -21.5 -51.5t-50.5 -21.5q-30 0 -51.5 21.5t-21.5 51.5v74q-70 16 -120.5 63t-63.5 123q-13 79 -0.5 157t41.5 152q11 28 34.5 43.5t54.5 7.5q13 -4 25 -13t19.5 -21.5
t9.5 -27t-3 -28.5q-11 -30 -20.5 -60t-14.5 -62q-15 -94 12.5 -144.5t90.5 -52.5q44 -2 70.5 16t39.5 47t14.5 66.5t-4.5 76.5q-5 30 -12 59t-16 58q-7 23 -2 40.5t18.5 29.5t31.5 17t36 1.5t33.5 -15.5t22.5 -34zM258 809q18 0 26.5 -11.5t8.5 -25t-8.5 -25t-26.5 -11.5
t-26.5 11.5t-8.5 25t8.5 25t26.5 11.5zM350 809q18 0 26.5 -11.5t8.5 -25t-8.5 -25t-26.5 -11.5t-26.5 11.5t-8.5 25t8.5 25t26.5 11.5z" />
    <glyph glyph-name="circumflex" unicode="&#x2c6;" horiz-adv-x="353" 
d="M252 607q6 -14 3.5 -28t-16.5 -22q-12 -7 -28 -4t-22 17q-2 5 -5 10.5t-5 10.5q-2 -5 -5 -8.5t-5 -8.5q-8 -13 -22 -17t-28 4q-13 7 -17 21.5t4 28.5q11 20 19.5 37t19.5 35q5 9 15.5 13t21.5 4t20.5 -4.5t14.5 -12.5q11 -19 19 -38z" />
    <glyph glyph-name="ring" unicode="&#x2da;" horiz-adv-x="357" 
d="M177 715q39 0 58 -25t19 -55t-19 -55t-58 -25t-58 25t-19 55t19 55t58 25zM177 608q13 0 19.5 8.5t6.5 18.5t-6.5 18.5t-19.5 8.5t-19.5 -8.5t-6.5 -18.5t6.5 -18.5t19.5 -8.5z" />
    <glyph glyph-name="tilde" unicode="&#x2dc;" horiz-adv-x="370" 
d="M205 633q10 12 24 12.5t25.5 -6.5t15.5 -20t-5 -27q-7 -11 -17 -20t-21 -13.5t-23.5 -4t-25.5 8.5q-5 3 -9 6.5t-9 7.5l-2 1q-12 -12 -25.5 -9.5t-22.5 12t-11 24t10 27.5q16 18 39 22.5t43 -10.5q7 -5 14 -11z" />
    <glyph glyph-name="bullet" unicode="&#x2022;" horiz-adv-x="310" 
d="M149 392q34 0 57 -15.5t34.5 -39.5t11.5 -51t-11.5 -51t-34.5 -39.5t-57 -15.5t-56.5 15.5t-34 39.5t-11.5 51t11.5 51t34 39.5t56.5 15.5z" />
    <glyph glyph-name="Euro" unicode="&#x20ac;" horiz-adv-x="651" 
d="M519 148q15 2 28 -4t23 -16.5t16 -24.5t6 -27q0 -32 -22 -51t-51 -22q-41 -5 -83.5 -2t-82.5 13.5t-77 30t-67 49.5q-29 26 -49 59.5t-33 69.5h-30q-26 0 -38.5 15.5t-12.5 33.5t12.5 33.5t38.5 15.5h12v20q0 5 0.5 9t0.5 9h-13q-26 0 -38.5 15t-12.5 33.5t12.5 33.5
t38.5 15h32q14 40 35.5 76t52.5 65q59 56 133.5 80t154.5 19q30 -2 51.5 -21.5t21.5 -51.5q0 -14 -6 -27.5t-15.5 -24t-23 -16.5t-28.5 -5q-33 3 -65 0q-6 -2 -23.5 -7t-39 -16t-45 -28.5t-41.5 -42.5h18q25 0 38 -15t13 -33.5t-13 -33.5t-38 -15h-53q-1 -5 -1 -9v-9v-20h54
q25 0 38 -15.5t13 -33.5t-13 -33.5t-38 -15.5h-22q15 -21 33 -34t33.5 -21t27 -11t14.5 -4q27 -7 56.5 -8t67.5 3z" />
    <glyph glyph-name="minus" unicode="&#x2212;" horiz-adv-x="544" 
d="M415 265q24 0 39.5 -11t23 -27t7.5 -35t-7.5 -35t-23.5 -27t-39 -11h-294q-23 0 -39 11t-23.5 27t-8 35t7.5 35t23.5 27t39.5 11h294v0z" />
    <glyph glyph-name="percent" horiz-adv-x="400" 
d="M117 394q-24 0 -39.5 11t-23.5 27t-8 35t8 35t23.5 27t39.5 11q23 0 39 -11t23.5 -27t8 -35t-7.5 -35t-24 -27t-39 -11zM244 149q23 0 39 -11t23.5 -27t7.5 -35t-7.5 -35t-23.5 -27t-39 -11q-24 0 -39.5 11t-23.5 27t-8 35t8 35t23.5 27t39.5 11zM231 522q5 15 17.5 20
t24.5 1.5t19.5 -14t2.5 -25.5q-41 -121 -81.5 -240.5t-82.5 -240.5q-5 -15 -18 -20t-25 -1.5t-19.5 14t-2.5 25.5q42 121 82.5 240.5t82.5 240.5z" />
    </font>
</defs>
</svg>
