<?xml version="1.0" standalone="no"?>
<!DOCTYPE svg PUBLIC "-//W3C//DTD SVG 1.1//EN" "http://www.w3.org/Graphics/SVG/1.1/DTD/svg11.dtd" >
<svg xmlns="http://www.w3.org/2000/svg" xmlns:xlink="http://www.w3.org/1999/xlink" version="1.1">
<metadata>
Created by FontForge 20170731 at Sun Nov 18 02:23:13 2007
 By Aleksey,,,
Copyright 2001, Tim McKenny and Justin Callaghan for TombSweetTomb.com (deceased) and mickeyavenue.com
</metadata>
<defs>
<font id="Ravenscroft" horiz-adv-x="246" >
  <font-face 
    font-family="Ravenscroft"
    font-weight="400"
    font-stretch="normal"
    units-per-em="1000"
    panose-1="0 0 0 0 0 0 0 0 0 0"
    ascent="800"
    descent="-200"
    x-height="569"
    cap-height="700"
    bbox="-32 -269 4210 990"
    underline-thickness="50"
    underline-position="-175"
    unicode-range="U+0020-2122"
  />
<missing-glyph horiz-adv-x="500" 
 />
    <glyph glyph-name=".notdef" horiz-adv-x="500" 
 />
    <glyph glyph-name=".null" horiz-adv-x="0" 
 />
    <glyph glyph-name="nonmarkingreturn" horiz-adv-x="500" 
 />
    <glyph glyph-name="space" unicode=" " horiz-adv-x="193" 
 />
    <glyph glyph-name="space" unicode="&#xa0;" horiz-adv-x="193" 
 />
    <glyph glyph-name="exclam" unicode="!" horiz-adv-x="172" 
d="M86 710q50 0 50 -129v-42l-18 -315q-6 -109 -25 -109q-1 0 -3.5 1.5t-3.5 3.5q-11 10 -18 93l-29 307q-1 24 -2 42.5t-1 31.5q0 116 50 116zM92 83q14 0 24 -11q13 -9 13 -36q0 -12 -4 -20t-11 -16q-11 -10 -27 -10q-12 0 -22 9q-13 12 -13 35q0 13 4 21.5t10 16.5
q10 11 26 11z" />
    <glyph glyph-name="quotedbl" unicode="&#x22;" horiz-adv-x="135" 
d="M33 430l-12 152q-2 35 -2.5 51t-0.5 17q0 25 3.5 37.5t14.5 12.5q21 0 21 -53q0 -5 -0.5 -21.5t-2.5 -41.5l-13 -154h-8zM89 430l-11 152q-3 35 -3.5 51t-0.5 17q0 50 19 50q21 0 21 -53q0 -5 -1 -21.5t-3 -41.5l-11 -154h-10z" />
    <glyph glyph-name="numbersign" unicode="#" horiz-adv-x="425" 
d="M238 700l-35 -183h60l36 183h54l-36 -183h69l-16 -84h-69l-21 -108h67l-15 -82h-69l-37 -187h-54l36 185h-59l-36 -185h-55l35 185h-67l14 84h69l21 108h-65l13 84h68l39 183h53zM224 325l21 108h-57l-22 -108h58z" />
    <glyph glyph-name="dollar" unicode="$" horiz-adv-x="273" 
d="M249 124q0 -87 -29 -117q-13 -12 -28.5 -18t-36.5 -6v-54h-34v52q-53 3 -75 37q-10 18 -14 50.5t-4 81.5v186l86 -69v-156q0 -17 1.5 -26.5t4.5 -17.5q4 -18 22 -18q19 0 25 24q0 5 1 18.5t1 34.5v109q0 14 -1 26t-1 20q-7 23 -23 41q-5 5 -13 12t-20 17l-21 15
q-46 38 -53 65q-12 28 -12 115v46q0 38 6 59q6 22 26 39q22 24 63 28v54h33v-54q50 0 76 -37q20 -31 20 -111v-143l-82 74v66q0 23 -0.5 35t-3.5 18q-2 24 -22 24q-18 0 -24 -16q-2 -6 -3 -16.5t-1 -24.5v-86q0 -41 25 -65q3 -4 14 -11.5t31 -20.5q14 -8 22.5 -14.5
t13.5 -9.5q21 -18 27 -42q2 -9 2.5 -21.5t0.5 -31.5v-161z" />
    <glyph glyph-name="percent" unicode="%" horiz-adv-x="400" 
d="M149 336q0 -46 -16 -61q-21 -19 -48 -19q-31 0 -48 18q-9 10 -13.5 25t-4.5 39v280q0 47 18 64q8 8 20.5 13t27.5 5q14 0 25.5 -5.5t22.5 -14.5q16 -15 16 -62v-282zM376 84q0 -46 -16 -64q-17 -20 -48 -20q-28 0 -48 20q-8 8 -13 22.5t-5 35.5v288q0 42 18 60t48 18
q28 0 48 -18q16 -15 16 -65v-277zM175 0h-21l59 700h21zM99 622q0 32 -16 32t-16 -34v-284q0 -34 16 -34t16 32v288zM326 366q0 32 -14 32q-16 0 -16 -30v-290q0 -32 16 -32q14 0 14 34v286z" />
    <glyph glyph-name="ampersand" unicode="&#x26;" horiz-adv-x="314" 
d="M184 326l65 92v-213q8 -17 17 -36t18 -39v-130l-42 79q-46 -69 -118 -69q-38 0 -63 22q-21 18 -26 35q-2 6 -3.5 20.5t-1.5 37.5v78q0 56 7 70q2 3 4.5 8t7.5 11q9 12 17 25t14 28l6 15l-37 72q-5 11 -8.5 23t-3.5 25v99q0 17 0.5 29.5t2.5 23.5t7.5 21t13.5 20
q22 27 77 27q44 0 66 -19q33 -27 33 -77v-99q0 -29 -7 -46q-4 -10 -21 -34q-5 -8 -12.5 -18.5t-17.5 -25.5l-12 -19zM144 87q20 0 28 24q2 8 2.5 22t0.5 34v29l-53 101l-9 -16q-3 -9 -3 -25v-129q0 -11 4.5 -19t11.5 -14q3 -2 7.5 -4.5t10.5 -2.5zM161 574q0 13 -0.5 22.5
t-2.5 16.5q-4 17 -20 17t-23 -15q-2 -5 -2.5 -15.5t-0.5 -24.5v-70q0 -17 1 -27t2 -17q2 -7 6 -17t13 -24q3 4 7.5 11t9.5 15q10 19 10 46v82z" />
    <glyph glyph-name="quotesingle" unicode="'" horiz-adv-x="79" 
d="M35 430l-12 152q-2 35 -2.5 51t-0.5 17q0 25 3.5 37.5t14.5 12.5q21 0 21 -53q0 -5 -0.5 -21.5t-2.5 -41.5l-13 -154h-8z" />
    <glyph glyph-name="parenleft" unicode="(" horiz-adv-x="176" 
d="M155 687q-17 -32 -31.5 -71t-24.5 -86q-10 -43 -14.5 -89t-4.5 -94q0 -51 4.5 -95.5t15.5 -83.5q8 -39 22.5 -76.5t34.5 -74.5l-15 -17q-63 75 -91 148q-37 90 -37 205q0 105 40 206q39 98 91 141z" />
    <glyph glyph-name="parenright" unicode=")" horiz-adv-x="184" 
d="M165 353q0 -115 -37 -205q-28 -73 -91 -148l-15 17q20 37 34 74.5t24 76.5t14.5 84t4.5 95q0 97 -18 183q-11 47 -25.5 86t-31.5 71l8 13q28 -22 50.5 -57t42.5 -84q40 -101 40 -206z" />
    <glyph glyph-name="asterisk" unicode="*" horiz-adv-x="233" 
d="M94 695q5 5 23 5q10 0 17 -1.5t7 -3.5q3 0 3 -5q0 -11 -1.5 -24t-3.5 -29q-3 -22 -3.5 -35t-2.5 -18l26 42q8 16 15 25t9 9q5 0 13 -34q13 -37 13 -39q0 -7 -26 -27q-11 -5 -18.5 -10.5t-15.5 -9.5q10 -4 23.5 -13.5t31.5 -21.5q2 0 3.5 -2.5l1.5 -2.5q0 -4 -3.5 -15.5
t-9.5 -29.5q-4 -15 -7.5 -24.5t-5.5 -9.5q-5 0 -24 34q-8 11 -14 20.5t-12 19.5l1.5 -13.5t6.5 -39.5q2 -20 3.5 -32t1.5 -20v-5q-2 -3 -32 -3h-18q-2 3 -2 10v22t1 28l6 53l-23 -40q-19 -31 -24 -31q-4 0 -16 31q-8 34 -8 43q0 7 27 23l31 19q-4 4 -12.5 8t-18.5 12
q-17 11 -23 17t-6 10q0 1 1.5 8t4.5 17.5t6 16.5q5 11 8.5 17.5t8.5 6.5l5.5 -7.5t17.5 -21.5q6 -11 12 -20t12 -17q0 4 -8 50q0 17 -1 29.5t-1 23.5v5v0z" />
    <glyph glyph-name="plus" unicode="+" horiz-adv-x="250" 
d="M152 410h71v-92h-71v-130h-53v130h-70v92h71v128h52v-128z" />
    <glyph glyph-name="comma" unicode="," horiz-adv-x="127" 
d="M15 -107q57 46 57 86q0 17 -9 23q-5 2 -9.5 3.5t-9.5 4.5q-11 10 -16 31q-2 2 -2 5v7q0 16 3.5 27t9.5 20q5 5 12.5 8t15.5 3q21 0 32 -20q6 -12 8.5 -28t2.5 -33q0 -42 -19 -83q-28 -57 -73 -72z" />
    <glyph glyph-name="hyphen" unicode="-" horiz-adv-x="260" 
d="M0 384h260v-60h-260v60z" />
    <glyph glyph-name="period" unicode="." horiz-adv-x="95" 
d="M14 50q0 12 3 21.5t9 20.5q10 18 23 18t24 -18q10 -19 10 -42q0 -26 -10 -44t-24 -18q-13 0 -23 18q-5 9 -8.5 19.5t-3.5 24.5z" />
    <glyph glyph-name="slash" unicode="/" horiz-adv-x="185" 
d="M149 730l-86 -770h-25l86 770h25z" />
    <glyph glyph-name="zero" unicode="0" horiz-adv-x="238" 
d="M220 129q0 -74 -24 -99q-29 -30 -75 -30t-76 28q-16 16 -23 41q-5 23 -5 58v448q0 18 1 32t2 25q5 14 10.5 24t14.5 18q29 26 74 26q49 0 77 -28q24 -26 24 -99v-444zM146 565q0 31 -6 46q-5 20 -21 20q-15 0 -20 -16q-3 -7 -3.5 -17.5t-0.5 -24.5v-443q0 -14 0.5 -24.5
t3.5 -16.5q5 -18 20 -18q16 0 21 21q6 13 6 45v428z" />
    <glyph glyph-name="one" unicode="1" horiz-adv-x="168" 
d="M129 700v-597q0 -23 1.5 -37.5t3.5 -23.5q6 -20 25 -42h-140q11 11 16.5 21t9.5 21q3 8 4 23t1 38v425q0 36 -3 51q-3 11 -7 20t-12 17q-8 9 -23 16q79 36 124 68z" />
    <glyph glyph-name="two" unicode="2" horiz-adv-x="248" 
d="M97 485l-81 -35v111q0 53 7 77q7 32 32 46q28 16 68 16q49 0 74 -25q19 -19 23 -42q3 -9 4 -23.5t1 -34.5v-98q0 -40 -3 -53q-3 -22 -34 -55l-49 -52q-13 -15 -21 -24.5t-11 -14.5q-2 -8 -4.5 -23.5t-2.5 -38.5v-140h50v128l81 39v-243h-211v213q0 72 10 95q7 17 48 58
l21 24q6 5 12.5 11.5l13.5 13.5q18 23 21 35q2 5 2 14v23v62q0 17 -1 29t-3 20q-5 21 -21 21q-17 0 -23 -21q-3 -14 -3 -49v-64z" />
    <glyph glyph-name="three" unicode="3" horiz-adv-x="240" 
d="M222 123q0 -18 -1 -32t-2 -23q-6 -27 -25 -42q-23 -26 -72 -26q-55 0 -82 28q-24 27 -24 107v130l80 -48v-66q0 -36 3 -49q6 -22 23 -22q15 0 20 20q3 7 3.5 18t0.5 28v93q0 30 -1 47t-3 24q-7 16 -34 16h-28v85q50 0 59 12q7 10 7 48v78q0 19 -0.5 30.5t-3.5 18.5
q-1 11 -6.5 16.5t-13.5 5.5q-17 0 -23 -22q-3 -11 -3 -49v-62l-80 -33v109q0 82 24 109q28 28 83 28q47 0 71 -24q19 -17 25 -42q1 -11 2 -25t1 -34v-128q0 -67 -40 -81q28 -9 35 -26q5 -18 5 -68v-149z" />
    <glyph glyph-name="four" unicode="4" horiz-adv-x="281" 
d="M224 700q-11 -8 -18.5 -16t-11.5 -16q-3 -5 -8 -18.5t-10 -34.5l-86 -314l49 -9v80l80 307v-389q5 -2 9 -3.5t9 -1.5q16 0 35 25v-54q0 -37 -7 -48q-7 -7 -30 -7q-11 0 -16 2v-109q0 -19 1 -32t2 -21q7 -21 22 -41h-134q16 21 21 39q6 19 6 54v112q-53 11 -68 11
q-42 0 -64 -22v61l93 356q12 48 12 62q0 17 -7 27h121z" />
    <glyph glyph-name="five" unicode="5" horiz-adv-x="260" 
d="M242 125q0 -19 -1 -33t-3 -23q-8 -28 -24 -43q-24 -26 -74 -26q-56 0 -83 28q-25 28 -25 109v132l81 -56v-72q0 -30 6 -43q5 -17 21 -17q8 0 13.5 6t7.5 17q2 7 2.5 18.5t0.5 30.5v155q0 32 -5 47q-4 5 -15 9t-31 4v-65l-84 59v283q0 10 -1 17.5t-3 12.5q-1 5 -4 10.5
t-8 14.5h229v-223q-33 38 -78 38v120h-51v-188q47 0 75 -9.5t40 -27.5q6 -14 10 -34t4 -49v-202z" />
    <glyph glyph-name="six" unicode="6" horiz-adv-x="239" 
d="M146 302q0 43 -11 54q-7 7 -33 7h-9v-233q0 -29 6 -41q5 -18 20 -18q18 0 23 23q2 6 3 18.5t1 29.5v160zM222 130q0 -74 -26 -100q-29 -30 -75 -30t-76 28q-17 19 -23 41q-5 23 -5 58v448q0 34 5 57q6 26 23 42q29 26 74 26q49 0 77 -28q26 -26 26 -99v-83
q-21 14 -39.5 21.5t-36.5 7.5v42q0 17 -1 28.5t-3 18.5q-4 23 -23 23q-15 0 -20 -18q-6 -14 -6 -43v-124h37q60 0 78 -36q14 -25 14 -78v-202z" />
    <glyph glyph-name="seven" unicode="7" horiz-adv-x="240" 
d="M13 700h214l7 -77q-27 -49 -45 -97.5t-29 -96.5q-10 -42 -15.5 -89.5t-6.5 -102.5q-2 -19 -2 -78v-159h-87v171q0 190 76 390l27 71h-70q-26 0 -39 -10q-17 -15 -30 -47v125z" />
    <glyph glyph-name="eight" unicode="8" horiz-adv-x="237" 
d="M220 129q0 -74 -24 -99q-29 -30 -75 -30t-76 28q-16 16 -23 41q-5 23 -5 58v182q0 43 7 58q8 16 29 26q-22 10 -29 26q-7 11 -7 57v99q0 37 5 57q6 28 23 42q29 26 74 26q49 0 77 -28q24 -26 24 -99v-99q0 -22 -1.5 -35.5t-3.5 -21.5q-4 -8 -11.5 -13.5t-18.5 -10.5
q11 -7 18.5 -13.5t11.5 -14.5q5 -15 5 -56v-180zM93 134q0 -34 6 -44q5 -19 20 -19t23 21q2 7 2 18v27v153v27q0 12 -2 18q-7 19 -23 19t-20 -17q-6 -14 -6 -43v-160zM93 486q0 -30 6 -43q4 -17 20 -17q15 0 23 19q2 6 2 18v29v73v27q0 11 -2 19q-8 20 -23 20t-20 -18
q-6 -14 -6 -43v-84z" />
    <glyph glyph-name="nine" unicode="9" horiz-adv-x="239" 
d="M92 401q0 -22 2.5 -35.5t6.5 -18.5q7 -10 33 -10h9v240q0 52 -25 52q-8 0 -14 -5.5t-8 -17.5q-2 -6 -3 -18t-1 -30v-157zM16 573q0 74 26 97q27 30 75 30t76 -28q17 -15 23 -41q5 -23 5 -58v-446q0 -20 -1.5 -34t-3.5 -24q-6 -26 -23 -41q-28 -28 -75 -28q-48 0 -76 28
q-26 26 -26 99v85l76 -31v-40q0 -17 1 -29.5t3 -19.5q5 -23 22 -23q16 0 21 18q3 7 3.5 17t0.5 25v126h-35q-60 0 -78 37q-14 22 -14 78v203z" />
    <glyph glyph-name="colon" unicode=":" horiz-adv-x="109" 
d="M20 50q0 12 3 21.5t9 20.5q10 18 23 18t24 -18q10 -19 10 -42q0 -26 -10 -44t-24 -18q-13 0 -23 18q-5 9 -8.5 19.5t-3.5 24.5zM20 429q0 12 3 21.5t9 20.5q10 18 23 18t24 -18q10 -19 10 -42q0 -26 -10 -44t-24 -18q-13 0 -23 18q-5 9 -8.5 19.5t-3.5 24.5z" />
    <glyph glyph-name="semicolon" unicode=";" horiz-adv-x="125" 
d="M21 416q0 14 3.5 26t11.5 25q6 10 12 16t16 6q15 0 29 -22q7 -12 9.5 -24.5t2.5 -26.5q0 -17 -3.5 -30t-8.5 -23q-7 -12 -14 -16.5t-15 -4.5q-10 0 -16 5t-12 16q-7 11 -11 23.5t-4 29.5zM10 -121q57 46 57 86q0 17 -9 23q-5 2 -9.5 3.5t-9.5 4.5q-11 10 -16 31
q-2 2 -2 5v7q0 16 3.5 27t9.5 20q5 5 12.5 8t15.5 3q21 0 32 -20q6 -12 8.5 -28t2.5 -33q0 -42 -19 -83q-28 -57 -73 -72z" />
    <glyph glyph-name="less" unicode="&#x3c;" horiz-adv-x="287" 
d="M162 0q9 13 9 53v261h-53v-248q0 -32 13 -66q-21 -7 -43 -29q-5 -2 -14 -14t-25 -32q-7 -10 -12.5 -16.5t-10.5 -8.5q-6 -4 -12 -4.5t-14 -2.5q13 20 20.5 37t12.5 32q2 17 4.5 38t2.5 50v574q0 14 -1.5 24.5l-2.5 17.5q-5 15 -18 34h110q-10 -28 -10 -53v-248h53v251
q0 15 -2 27t-7 23h111q-8 -11 -11.5 -19t-7.5 -15q-2 -7 -3 -18t-1 -24v-547q0 -30 4 -42q4 -6 7.5 -15t11.5 -20h-111v0z" />
    <glyph glyph-name="equal" unicode="=" horiz-adv-x="469" 
d="M42 443h381v-60h-381v60zM42 325h381v-60h-381v60z" />
    <glyph glyph-name="greater" unicode="&#x3e;" horiz-adv-x="400" 
d="M203 -261q-11 38 -26 79t-47 71q8 5 18.5 10t12.5 9q1 6 1.5 16.5t0.5 26.5v609q0 17 -0.5 29t-1.5 18q-6 19 -22 19q-14 0 -21 -16q-4 -12 -4 -43v-502q0 -22 4 -35q1 -5 5 -12.5t10 -17.5q-33 -11 -56 -41q-14 -19 -21.5 -30.5t-12.5 -16.5q-17 -17 -43 -20
q11 20 17.5 39t11.5 36q3 16 5.5 39t2.5 52v549q0 43 -4 52q-3 8 -9 17.5t-17 23.5h156l33 -44l32 44h162q-16 -22 -22 -37q-1 -7 -2 -19.5t-1 -29.5v-536q0 -14 1 -26t2 -20q2 -2 3.5 -6t4.5 -7l11 -19h-118l8 19q3 3 5 7t4 6q0 7 0.5 17.5t0.5 23.5v487q0 35 -3 47
q-6 19 -20 19q-19 0 -21 -18q-3 -7 -3.5 -17.5t-0.5 -26.5v-613q0 -12 1.5 -21.5t2.5 -17.5q3 -4 13 -10.5t16 -12.5q-30 -35 -44 -74t-25 -76z" />
    <glyph glyph-name="question" unicode="?" horiz-adv-x="291" 
d="M36 475v79q0 99 30 132q12 14 31 19.5t46 5.5q58 0 83 -29q11 -8 16.5 -18.5t10.5 -22.5q1 -10 2 -23.5t1 -33.5v-73q0 -45 -5 -73q-4 -17 -11.5 -31t-16.5 -25q-7 -8 -14.5 -16t-18.5 -16q-13 -10 -20 -18t-11 -14q-5 -9 -9.5 -23.5t-6.5 -34.5l-7 -88
q-2 -30 -9.5 -44.5t-17.5 -14.5q-6 0 -10 5q-11 11 -17 81q-2 29 -2.5 52t-0.5 44q0 16 0.5 27.5t2.5 19.5q3 8 7.5 16.5t12.5 16.5q0 3 8 9.5t19 18.5l7 10q24 21 29 51q7 21 7 74v37q0 16 -0.5 27t-4.5 18q-2 10 -8 14t-14 4q-16 0 -23 -25q-3 -17 -3 -53v-49zM119 83
q11 0 22 -11q12 -11 12 -34q0 -25 -15 -40q-11 -9 -23 -9q-15 0 -24 12q-12 9 -12 37q0 24 13 34q11 11 27 11z" />
    <glyph glyph-name="at" unicode="@" horiz-adv-x="435" 
d="M208 518q-16 0 -16 -26v-66q-15 -8 -29 -19t-28 -28v95q0 14 0.5 25.5t2.5 19.5q4 20 18 35q16 21 51 21q33 0 54 -22q6 -7 10 -14t5 -16q2 -8 3 -18.5t1 -25.5v-280q1 -10 9.5 -16t18.5 -6q11 0 19.5 7t8.5 18v383q0 19 -10 34t-26.5 25.5t-38 16t-43.5 5.5
q-60 0 -93.5 -16t-33.5 -60v-475q0 -23 13 -38t32.5 -24t41 -12.5t38.5 -3.5q28 0 50.5 2.5t34.5 6.5q15 5 34 17t27 20l11 -28q-7 -10 -16 -18.5t-17 -14.5q-25 -15 -54.5 -22.5t-67.5 -7.5q-78 0 -129 30q-14 8 -23.5 18t-14.5 23q-4 11 -7 26t-3 35v459q0 40 14.5 65.5
t38.5 39.5t56 19t68 5q80 0 124 -31t44 -96v-381q0 -14 -1 -25t-7 -21q-11 -19 -27 -26t-43 -7h-37q-7 0 -9 3t-5 8q-2 -4 -5.5 -7.5t-8.5 -3.5h-65q-18 0 -22 3q-7 4 -10 10t-5 14t-2.5 22.5t-0.5 35.5v73q0 37 1 42q3 9 7 15.5t10 14.5q5 4 11.5 10t17.5 14q9 8 15 12.5
t8 7.5q8 7 10.5 18t3.5 22v64q0 15 -14 15zM192 191q2 -5 10 -7t20 -2v157q-7 -8 -11.5 -11.5t-6.5 -5.5q-12 -9 -12 -22v-109z" />
    <glyph glyph-name="A" unicode="A" horiz-adv-x="276" 
d="M265 700q-15 -20 -16 -28q-4 -8 -5 -18t-1 -22v-558q0 -13 1 -23.5t5 -18.5q2 -13 16 -32h-119q5 9 9 18.5t7 17.5q1 8 1 19v27v121l-51 -26v-125v-16q0 -6 1 -11q4 -13 11 -19q-24 -13 -34 -28q-20 -21 -30 -32.5t-11 -12.5q-12 -9 -23 -17t-23 -10q28 63 28 131v504
q0 88 16 120q23 39 86 39h132zM131 628q-19 0 -19 -49v-320l51 26v343h-32z" />
    <glyph glyph-name="B" unicode="B" horiz-adv-x="263" 
d="M108 700q22 0 38.5 -1t24.5 -3q44 -11 57 -39q14 -27 14 -105v-92q0 -49 -12 -70q-15 -23 -38 -30q36 -6 46 -30q3 -10 5.5 -32t2.5 -56v-135q0 -55 -13 -75q-18 -32 -84 -32h-135q8 9 12.5 18.5t7.5 18.5q0 7 0.5 20.5t0.5 33.5v541q0 47 -21 68h94zM137 71q25 0 25 36
v182q0 32 -25 32h-20v-250h20zM137 401q25 0 25 35v150q0 34 -25 34h-20v-219h20z" />
    <glyph glyph-name="C" unicode="C" 
d="M150 567q0 18 -1 29.5t-3 19.5q-4 23 -24 23q-16 0 -20 -18q-6 -14 -6 -44v-451q0 -32 6 -44q4 -19 20 -19q20 0 24 24q2 6 3 18t1 31v135l78 35v-183q0 -78 -26 -104q-29 -29 -80 -29q-22 0 -41.5 7t-34.5 22q-16 14 -23 42q-2 10 -4 25t-2 35v459q0 20 2 34.5t4 25.5
q3 13 8.5 24.5t14.5 19.5q31 26 75 26q49 0 81 -29q13 -13 19.5 -37.5t6.5 -63.5v-124q-41 0 -78 -30v141z" />
    <glyph glyph-name="D" unicode="D" horiz-adv-x="264" 
d="M163 700q25 0 43 -8.5t26 -25.5q14 -22 14 -91v-416q0 -37 -2 -62t-5 -40q-7 -30 -30 -45q-13 -7 -39 -10q-8 -2 -19 -2h-24h-114q20 20 21 34q3 7 3.5 20t0.5 31v528q0 20 -0.5 32.5t-3.5 20.5q-1 8 -6.5 16.5t-14.5 17.5h150zM168 582q0 49 -21 49h-32v-558h32
q21 0 21 48v461z" />
    <glyph glyph-name="E" unicode="E" horiz-adv-x="260" 
d="M250 570q-8 26 -23 39t-39 13h-71v-212h37q12 0 21 0.5t14 4.5q10 4 17 14t14 23v-169q-6 12 -12 21t-13 13q-13 7 -32 7h-46v-244h90q17 0 26.5 9.5t16.5 29.5v-119h-237q8 8 12.5 16t7.5 16q5 15 5 48v542q0 31 -5 46q-3 7 -7.5 15t-12.5 17h237v-130z" />
    <glyph glyph-name="F" unicode="F" horiz-adv-x="264" 
d="M13 0q20 20 21 34q6 13 6 51v528q0 20 -1.5 32.5t-4.5 20.5q-1 8 -6.5 16.5t-14.5 17.5h244v-134q-11 37 -28 47q-12 9 -40 9h-67v-212h46q15 0 24.5 0.5t16.5 2.5q8 5 16.5 15t15.5 24v-169q-21 41 -53 41h-66v-239q0 -38 3 -51q6 -17 23 -34h-135v0z" />
    <glyph glyph-name="G" unicode="G" horiz-adv-x="242" 
d="M17 572q0 20 1 34.5t3 25.5q7 25 24 40q28 28 74 28q48 0 79 -28q26 -28 26 -100v-98q-19 -2 -38 -9t-39 -23v116q0 18 -1 30t-3 19q-5 21 -22 21q-16 0 -22 -17q-5 -12 -5 -44v-442q0 -46 16 -53q2 -2 11 -2h26v197l-34 -13v85l111 49v-388h-102q-69 0 -89 39
q-11 19 -14 47q-2 8 -2 21v35v430v0z" />
    <glyph glyph-name="H" unicode="H" horiz-adv-x="267" 
d="M19 9q3 7 6 12.5t5 10.5q4 11 4 31v562q0 15 -0.5 26.5t-3.5 18.5q-2 5 -5.5 12.5t-10.5 17.5h107q-4 -14 -6.5 -27t-2.5 -27v-245l50 27v224q0 28 -9 48h109q-13 -19 -18 -34q-3 -11 -3 -41v-550q0 -28 3 -41q3 -5 5.5 -11.5t7.5 -13.5l5 -9h-109l4 9q5 15 5 45v286
l-50 -27v-263q0 -28 7 -43l4 -7h-109z" />
    <glyph glyph-name="I" unicode="I" horiz-adv-x="148" 
d="M113 87q0 -19 1 -32t3 -19q5 -19 21 -36h-128q9 11 14 19.5t7 16.5q2 6 3 19t1 32v526q0 20 -1.5 32.5t-2.5 18.5q-2 16 -21 36h128q-16 -17 -21 -36q-2 -6 -3 -18.5t-1 -32.5v-526v0z" />
    <glyph glyph-name="J" unicode="J" horiz-adv-x="243" 
d="M214 127q0 -80 -27 -111q-12 -14 -32.5 -20t-48.5 -6q-51 0 -74 23q-26 26 -26 107v129l77 33v-150q0 -18 1 -30t3 -19q4 -21 23 -21q8 0 14.5 4.5t8.5 14.5q1 6 2 18t1 28v494q0 17 -1 29t-2 18q-6 15 -21 32h126q-9 -9 -14.5 -18t-8.5 -17q-1 -7 -1 -19v-32v-487v0z
" />
    <glyph glyph-name="K" unicode="K" horiz-adv-x="319" 
d="M137 700q-20 -35 -20 -91v-186l55 169q8 26 13 43.5t5 25.5q0 9 -2.5 18.5t-6.5 20.5h130q-12 -11 -21.5 -21.5t-14.5 -22.5q-4 -8 -9.5 -24.5t-13.5 -41.5l-66 -210l91 -286q8 -26 13 -39t6 -18q6 -11 12.5 -20t16.5 -17h-135q7 12 9.5 21.5t2.5 19.5q0 8 -1 16.5
t-6 20.5q-2 8 -5 16t-5 18l-68 215v-233q0 -16 1.5 -28t3.5 -22q2 -9 6.5 -20.5t11.5 -23.5h-126q17 21 21 34q2 7 3 18t1 28v542q0 31 -5 46q-3 10 -20 32h123z" />
    <glyph glyph-name="L" unicode="L" horiz-adv-x="262" 
d="M151 75q58 0 69 33q3 5 3.5 14.5t1.5 21.5q32 -44 32 -91q0 -53 -53 -53h-190q8 9 12.5 17t7.5 15q5 15 5 48v540q0 33 -5 48q-3 7 -7.5 15t-12.5 17h126q-15 -20 -19 -32q-3 -7 -3.5 -19t-0.5 -29v-545h34z" />
    <glyph glyph-name="M" unicode="M" horiz-adv-x="432" 
d="M314 561q0 17 -1.5 28t-3.5 19q-6 19 -21 19q-16 0 -22 -17q-3 -7 -3.5 -19t-0.5 -26v-432q0 -14 2 -23t4 -16q3 -5 7.5 -11t12.5 -14q-15 -14 -23.5 -23t-13.5 -16q-6 -10 -12.5 -24.5t-14.5 -35.5q-12 42 -25 60q-10 14 -37 36q15 12 17 24q3 5 3.5 15.5t0.5 23.5v432
q0 17 -0.5 28t-3.5 19q-5 19 -21 19q-9 0 -14 -4.5t-9 -12.5q-3 -12 -3 -43v-503q0 -21 4 -36q2 -3 5 -9.5t9 -18.5q-32 -10 -56 -42q-14 -18 -23 -29.5t-14 -16.5q-20 -17 -43 -21q11 20 18.5 39t11.5 37q2 15 4.5 37.5t2.5 52.5v548q0 22 -1 36.5t-4 19.5q-4 14 -25 39
h164l33 -44l34 44h169q-17 -22 -21 -36q-6 -15 -6 -50v-535q0 -31 6 -46q1 -13 17 -33h-122q13 20 16 32t3 41v488v0z" />
    <glyph glyph-name="N" unicode="N" horiz-adv-x="306" 
d="M198 300v300q0 19 -1.5 33t-2.5 22q-4 21 -22 45h123q-6 -10 -9.5 -18.5t-5.5 -15.5l-1 -2q-2 -7 -4 -18.5t-2 -26.5v-533q0 -17 2 -28.5t4 -19.5q2 -10 5.5 -19t9.5 -19h-112q4 7 6.5 15t2.5 16q0 16 -9 52l-72 302v-310q0 -15 1.5 -25.5t2.5 -15.5q2 -7 4.5 -15
t7.5 -20q-8 -5 -13.5 -8t-9.5 -5q-5 -5 -9.5 -11.5t-9.5 -14.5q-35 -65 -78 -65h-6q38 58 38 164v548q0 18 -0.5 31t-5.5 23q-2 8 -7.5 18t-15.5 21h101z" />
    <glyph glyph-name="O" unicode="O" 
d="M227 124q0 -39 -6.5 -64.5t-17.5 -39.5q-30 -30 -78 -30t-79 30q-17 17 -23 41q-2 11 -4 26t-2 35v459q0 18 2 32.5t4 23.5q6 25 23 44q31 29 79 29q46 0 78 -32q9 -8 14.5 -21.5t7.5 -31.5q2 -9 2 -27v-44v-430zM149 568q0 17 -1 29t-3 19q-5 21 -20 21q-18 0 -24 -19
q-1 -8 -2 -18t-1 -27v-446q0 -17 1 -27t2 -17q6 -18 24 -18q16 0 20 20q2 6 3 17.5t1 28.5v437z" />
    <glyph glyph-name="P" unicode="P" horiz-adv-x="251" 
d="M155 700q55 0 72 -32q16 -29 16 -96v-164q0 -36 -2.5 -60t-6.5 -35q-3 -4 -7 -10t-9 -11q-7 -8 -19.5 -13.5t-28.5 -7.5q-8 0 -21 -1t-33 -1v-191q0 -16 1 -27.5t3 -18.5t7.5 -15t13.5 -17h-128q17 19 20 32q5 15 5 46v544q0 31 -5 46q-3 15 -20 32h142zM139 351
q24 0 24 34v206q0 32 -24 32h-23v-272h23z" />
    <glyph glyph-name="Q" unicode="Q" 
d="M180 3q7 -13 19.5 -25t29.5 -20q-12 -5 -21.5 -9t-16.5 -11q-9 -7 -17 -13.5t-19 -12.5q-20 -17 -36 -17q-13 0 -27 10q9 5 15.5 8.5t11.5 8.5q8 7 13 17t7 20q2 5 2 11v10q0 9 -2 12h-21q-46 0 -75 28q-8 8 -16 18.5t-10 22.5q-2 11 -2.5 26.5t-0.5 35.5v463q0 39 6 56
q6 25 23 41q29 29 76 29q51 0 80 -32q26 -23 26 -101v-462q0 -23 -2 -41.5t-7 -29.5q-5 -14 -13.5 -23.5t-22.5 -19.5zM146 569q0 34 -3 49q-6 21 -24 21q-14 0 -21 -17q-2 -8 -2.5 -18.5t-0.5 -24.5v-456q0 -15 0.5 -26t2.5 -18q6 -16 21 -16q18 0 24 21q3 10 3 46v439z
" />
    <glyph glyph-name="R" unicode="R" horiz-adv-x="270" 
d="M113 61v-22t2 -14q4 -11 16 -25h-121q8 10 14.5 17.5t7.5 14.5q1 8 2 19.5t1 28.5v539q0 17 -1 29t-2 20q-9 17 -22 32h140q14 0 22.5 -1.5t15.5 -2.5q21 -5 33 -28q5 -13 10 -35t5 -56v-98q0 -57 -15 -81q-15 -25 -36 -28q36 -7 46 -31q5 -22 5 -91v-184q0 -30 1.5 -53
t5.5 -37q5 -20 11.5 -39.5t17.5 -39.5h-12q-22 0 -42 17q-7 5 -15.5 18t-20.5 30q-2 5 -7 11.5t-10 14.5q-2 3 -8 7t-14 9q10 12 13 27q0 4 1 13t1 22v228q0 12 -5 20t-13 11q0 1 -8 1h-19v-263zM133 414q25 0 25 33v149q0 33 -25 33h-20v-215h20z" />
    <glyph glyph-name="S" unicode="S" horiz-adv-x="244" 
d="M97 280v-156q0 -15 0.5 -25.5t2.5 -17.5q6 -16 21 -16q17 0 22 20q5 13 5 44v83q0 69 -16 98q-7 20 -47 54q-20 16 -31.5 27.5t-15.5 16.5q-11 16 -16.5 35t-5.5 43v95q0 18 1.5 32.5t2.5 23.5q9 28 25 44q31 29 76 29q50 0 79 -32q26 -26 26 -102v-145l-78 74v59
q0 18 -1 29.5t-3 19.5q-5 24 -23 24q-14 0 -21 -17q-2 -8 -2.5 -18.5t-0.5 -24.5v-72q0 -33 17 -54q10 -7 18 -15l16 -16q7 -6 17 -17t24 -25q12 -13 20 -26t12 -28q2 -12 3.5 -31t1.5 -47v-122q0 -76 -26 -104q-27 -30 -77 -30q-48 0 -78 30q-9 8 -14.5 18t-10.5 23
q-1 11 -2.5 26t-1.5 35v218z" />
    <glyph glyph-name="T" unicode="T" horiz-adv-x="289" 
d="M184 87q0 -38 3 -51q7 -19 21 -36h-128q17 18 22 32q2 6 2.5 18.5t0.5 29.5v551h-30q-11 0 -20 -2.5t-16 -6.5q-17 -10 -30 -36v114h271v-114q-23 45 -66 45h-30v-544v0z" />
    <glyph glyph-name="U" unicode="U" horiz-adv-x="282" 
d="M244 118q0 -72 -26 -100q-29 -28 -76 -28q-49 0 -77 28q-10 8 -15.5 18.5t-9.5 23.5q-2 10 -2.5 25t-0.5 33v505q0 33 -6 47q-1 12 -19 30h120q-13 -16 -16 -35q0 -5 -1 -17t-1 -32v-494q0 -30 5 -42q6 -18 21 -18q16 0 21 19q6 13 6 46v497q0 16 -1 27.5t-3 16.5
q-3 19 -16 32h122q-20 -18 -21 -33q-3 -7 -3.5 -20t-0.5 -31v-498v0z" />
    <glyph glyph-name="V" unicode="V" horiz-adv-x="263" 
d="M123 700q-5 -11 -8 -23t-3 -29v-28q3 -47 6.5 -105t8.5 -130l5 -82q0 -7 1 -15t1 -19l21 351q2 9 2 16v12q0 32 -13 52h114q-12 -12 -18.5 -37t-9.5 -63l-41 -502q-2 -16 -2 -27v-16q0 -33 18 -55h-144q17 20 17 53q0 6 -0.5 15.5t-2.5 25.5l-38 506q-3 38 -9.5 63
t-18.5 37h114z" />
    <glyph glyph-name="W" unicode="W" horiz-adv-x="417" 
d="M314 139v488q0 29 -3 41t-16 32h122q-16 -20 -17 -33q-6 -15 -6 -46v-535q0 -18 -1.5 -35.5t-9.5 -50.5h-131l-34 44l-33 -44h-121q-9 34 -11 53.5t-2 41.5v548q0 30 -2.5 52.5t-4.5 37.5q-4 18 -11.5 37t-18.5 39q23 -4 43 -21q5 -5 14 -16.5t23 -29.5q24 -32 56 -42
q-6 -12 -9 -18.5t-5 -9.5q-4 -15 -4 -36v-503q0 -31 3 -43q4 -8 9 -12.5t14 -4.5q16 0 21 19q3 8 3.5 19t0.5 28v432q0 13 -0.5 23.5t-3.5 15.5q-2 12 -17 24q27 22 37 36q13 18 25 60q8 -21 14.5 -35.5t12.5 -24.5q5 -7 13.5 -16t23.5 -23q-8 -8 -12.5 -14t-7.5 -11
q-2 -7 -4 -16t-2 -23v-432q0 -14 0.5 -26t3.5 -19q6 -17 22 -17q15 0 21 19q2 8 3.5 19t1.5 28z" />
    <glyph glyph-name="X" unicode="X" horiz-adv-x="284" 
d="M173 575q5 26 6 43t1 27q0 16 -2 29.5t-7 25.5h112q-15 -19 -21 -52l-50 -267l42 -308q3 -16 5 -27t4 -16q3 -11 18 -30h-117q10 20 10 45q0 1 -0.5 14t-2.5 37l-23 217l-24 -217q-1 -26 -2 -38t-1 -13q0 -11 2.5 -22.5t8.5 -22.5h-118q8 11 13 18t7 14q1 4 3.5 14.5
t4.5 26.5l43 308l-50 267q-6 32 -21 52h110q-8 -22 -8 -53q0 -10 1.5 -27.5t6.5 -44.5l24 -142z" />
    <glyph glyph-name="Y" unicode="Y" horiz-adv-x="285" 
d="M182 80q0 -16 0.5 -27.5t2.5 -18.5q6 -16 21 -34h-128q18 19 22 32q2 7 2.5 19t0.5 29v198l-74 370q-6 35 -22 52h112q-4 -11 -6.5 -24t-2.5 -29q0 -11 2.5 -28.5t6.5 -43.5l23 -144l24 144q4 26 6 43.5t2 28.5q0 31 -8 53h112q-8 -7 -13 -20t-9 -32l-74 -368v-200z" />
    <glyph glyph-name="Z" unicode="Z" horiz-adv-x="242" 
d="M220 700v-48l-123 -583h30q12 -1 19 -1h13q14 0 23 4t17 13q12 15 26 56v-141h-208v105l112 529h-37q-27 0 -39 -12q-13 -10 -27 -52v130h194z" />
    <glyph glyph-name="bracketleft" unicode="[" horiz-adv-x="151" 
d="M84 107q0 -56 5 -68q9 -10 41 -10v-29h-114v700h114v-29q-32 0 -41 -10q-5 -12 -5 -68v-486v0z" />
    <glyph glyph-name="backslash" unicode="\" horiz-adv-x="185" 
d="M64 730l86 -770h-25l-86 770h25z" />
    <glyph glyph-name="bracketright" unicode="]" horiz-adv-x="165" 
d="M68 593q0 59 -5 68q-6 10 -41 10v29h114v-700h-114v29q35 0 41 10q5 9 5 68v486v0z" />
    <glyph glyph-name="asciicircum" unicode="^" horiz-adv-x="214" 
d="M125 793l72 -197h-23l-72 130l-71 -130h-24l73 197h45z" />
    <glyph glyph-name="underscore" unicode="_" horiz-adv-x="668" 
d="M668 -120h-668v45h668v-45z" />
    <glyph glyph-name="grave" unicode="`" horiz-adv-x="237" 
d="M218 577h-37q-45 23 -68 33q-26 12 -51 24q-35 19 -35 30q0 9 10 15t22 6q21 0 52 -22q3 -3 42 -33q21 -17 65 -53z" />
    <glyph glyph-name="a" unicode="a" horiz-adv-x="219" 
d="M111 506q-21 0 -21 -34v-85q-38 -17 -73 -60v121q0 20 0.5 35t2.5 24q3 14 9.5 24.5t14.5 20.5q23 26 65 26q43 0 70 -28q8 -8 13 -17.5t7 -21.5q2 -9 3 -22.5t1 -32.5v-377q0 -18 0.5 -29.5t1.5 -16.5q2 -17 18 -33h-151q-10 0 -17 0.5t-11 2.5q-8 5 -12.5 12.5
t-7.5 18.5q-3 10 -3.5 29t-0.5 47v93v35q0 14 2 20q5 19 22 37q6 6 14.5 13.5t22.5 18.5q25 19 30 25q10 8 13.5 22.5t5.5 28.5v82q0 11 -5.5 16t-13.5 5zM90 113v-17t1 -11q2 -7 12 -9.5t27 -2.5v201q-10 -9 -16 -13.5t-8 -6.5q-16 -13 -16 -30v-111z" />
    <glyph glyph-name="b" unicode="b" horiz-adv-x="218" 
d="M127 700q-9 -14 -15.5 -26.5t-10.5 -26.5t-5.5 -31.5t-1.5 -37.5v-9h12q14 0 24 -0.5t17 -1.5q46 -5 53 -44q2 -12 3.5 -33t1.5 -50v-279q0 -40 -2.5 -68.5t-6.5 -44.5q-7 -32 -33 -44q-7 -3 -22.5 -3.5t-41.5 -0.5h-101q19 16 22 34q1 6 2 18.5t1 34.5v442
q0 20 -0.5 34.5t-4.5 25.5q-5 12 -10.5 22.5t-14.5 19.5q7 3 18 5t19 7q5 3 14.5 8.5t20.5 14.5l16 12t15 11q16 11 31 11zM129 438q0 44 -3 50q-5 9 -30 9v-423q25 0 28 9q2 4 3.5 16t1.5 32v307z" />
    <glyph glyph-name="c" unicode="c" horiz-adv-x="225" 
d="M208 117q0 -17 -1 -29.5t-3 -20.5q-2 -11 -5.5 -21.5t-9.5 -19.5q-19 -34 -75 -34q-51 0 -74 32q-8 11 -12 24t-7 26q-3 11 -3.5 27t-0.5 36v295q0 20 0.5 36t3.5 27q3 14 7 27t12 24q24 32 74 32q55 0 75 -33q6 -11 10 -21t5 -22q2 -8 3 -20t1 -29v-64l-74 -33v122
q0 31 -21 31q-20 0 -20 -31v-385q0 -32 20 -32q21 0 21 32v160l74 37v-173z" />
    <glyph glyph-name="d" unicode="d" horiz-adv-x="211" 
d="M225 631q-19 -19 -25 -42q-2 -11 -3.5 -25.5t-1.5 -34.5v-442v-35q0 -12 2 -18q5 -18 21 -34h-99q-26 0 -41.5 0.5t-23.5 3.5q-25 11 -32 44q-4 17 -6.5 45t-2.5 68v279q0 29 1.5 50t3.5 33q9 40 53 44q7 1 17 1.5t24 0.5h12v13q0 21 -1.5 37.5t-6.5 29.5q-9 24 -27 51
q9 0 16.5 -3t15.5 -8t15 -11t15 -12q5 -4 13.5 -11t21.5 -12q7 -2 16 -4.5t23 -7.5zM87 131q0 -20 2 -32.5t4 -15.5q4 -9 30 -9v423q-23 0 -30 -9q-6 -8 -6 -50v-307z" />
    <glyph glyph-name="e" unicode="e" horiz-adv-x="223" 
d="M206 111q0 -30 -4.5 -51.5t-12.5 -33.5q-19 -34 -75 -34q-51 0 -74 32q-8 11 -13 24t-6 26q-1 11 -2.5 27t-1.5 36v295q0 20 0.5 36t3.5 27q3 13 7 26t12 25q23 32 74 32q55 0 75 -33q17 -28 17 -87v-119q-30 -3 -58.5 -15.5t-54.5 -36.5v-194q0 -32 20 -32q21 0 21 32
v160q22 29 72 34v-176zM134 478q0 31 -21 31q-20 0 -20 -31v-108l41 19v89z" />
    <glyph glyph-name="f" unicode="f" horiz-adv-x="161" 
d="M105 70q0 -15 1 -25t3 -16q5 -16 17 -29h-119q8 8 12 15.5t6 14.5t2.5 18.5t0.5 26.5v395q0 23 -1.5 39.5t-5.5 24.5t-11 18.5t-21 22.5h39v25q0 29 4 48t9 29q14 23 52 23h58v-68h-26q-20 0 -20 -27v-30h45v-63h-45v-442v0z" />
    <glyph glyph-name="g" unicode="g" horiz-adv-x="235" 
d="M199 -2q0 -65 -14 -90q-11 -16 -33 -24t-57 -8h-78v97q7 -12 14.5 -18.5t13.5 -8.5t32 -2q14 0 23 1.5t12 3.5q10 6 13 19q2 10 2 32h-49q-12 2 -20 3.5t-13 5.5q-7 5 -13.5 14.5t-9.5 21.5q-5 25 -5 83v279q0 41 2.5 69t6.5 44q7 33 31 44q8 4 24 4.5t42 0.5h101
q-18 -18 -23 -35q-2 -5 -2 -19v-34v-483zM93 129q0 -21 0.5 -33t2.5 -17q6 -7 31 -7v421q-25 0 -31 -7q-2 -4 -2.5 -16t-0.5 -33v-308z" />
    <glyph glyph-name="h" unicode="h" horiz-adv-x="234" 
d="M-3 700q7 0 13 -1t14 -6l36 -22q36 -23 59 -28q-8 -5 -10 -12.5t-4 -18.5q-1 -6 -2 -16t-1 -27q0 -14 15 -14q12 0 25.5 4.5t18.5 4.5q12 0 22.5 -8.5t16.5 -21.5q8 -15 11 -40.5t3 -58.5v-421q0 -22 1 -40.5t3 -33.5q5 -16 11 -30.5t16 -30.5q-23 6 -38 21
q-17 14 -32 47q-7 13 -13 21t-11 13q-6 8 -24 19q10 20 10 67v382q0 19 -1 30t-6 16q-4 4 -28 4v-465q0 -11 3.5 -19t7.5 -15h-107q13 17 18 32q1 5 2 15.5t1 25.5v518q0 40 -9 66q-4 11 -11 21.5t-19 21.5h9z" />
    <glyph glyph-name="i" unicode="i" horiz-adv-x="144" 
d="M111 569v-499q0 -13 1 -23t4 -17l7 -14t10 -16h-117q12 15 17 32q2 5 3 15.5t1 24.5v385q0 25 -1 41.5t-3 24.5q-5 19 -26 46h104zM63 702q17 0 28 -12q7 -8 10.5 -17.5t3.5 -23.5q0 -25 -16 -38q-13 -11 -29 -11q-15 0 -27 13q-12 14 -12 36q0 14 4.5 23.5t11.5 17.5
q10 12 26 12z" />
    <glyph glyph-name="j" unicode="j" horiz-adv-x="143" 
d="M116 569v-483v-31q0 -13 1 -16q6 -21 17 -39q-10 -5 -19 -15.5t-20 -26.5q-14 -20 -23.5 -34t-17.5 -22t-21 -12t-28 -6q26 39 32 80q2 14 4 39t2 61v394q0 25 -1.5 40.5t-2.5 23.5q-2 11 -9 22t-18 25h104zM68 702q16 0 28 -13q7 -8 10.5 -17t3.5 -23q0 -12 -4.5 -21
t-12.5 -17q-11 -11 -28 -11q-14 0 -25 11q-6 8 -10 17t-4 21q0 14 5 23t12 17q12 13 25 13z" />
    <glyph glyph-name="k" unicode="k" horiz-adv-x="281" 
d="M-1 700q13 0 27 -6l36 -24q20 -11 34 -18t26 -9q-6 -6 -10 -11.5t-6 -15.5q-1 -6 -1 -15v-23v-231q23 78 35 122t12 57q0 9 -2.5 20t-7.5 22h121q-11 -8 -17.5 -17t-12.5 -19q-2 -4 -5.5 -17.5t-11.5 -38.5l-53 -174l117 -323q6 -12 14 -26t20 -28h-10q-12 0 -23.5 3
t-22.5 11q-4 3 -14.5 12t-27.5 25q-11 9 -23 15.5t-28 8.5q8 23 8 33q0 11 -5.5 30.5t-16.5 52.5l-46 132v-174q0 -30 4 -42q4 -13 17 -32h-116q13 17 16 32q3 13 3 44v516q0 19 -1 35.5t-6 28.5q-5 11 -12 22t-18 22h7z" />
    <glyph glyph-name="l" unicode="l" horiz-adv-x="133" 
d="M-11 700q16 0 35 -11l37 -22q10 -6 17 -11t11 -7q8 -4 15.5 -6.5t14.5 -3.5q-13 -10 -16 -30q-1 -7 -1.5 -17.5t-0.5 -26.5v-491q0 -29 5 -42q2 -6 6 -14.5t12 -17.5h-117q6 9 10.5 17t6.5 15q2 6 3 16.5t1 26.5v513q0 21 -2.5 38t-6.5 28q-4 12 -11.5 23.5t-18.5 22.5z
" />
    <glyph glyph-name="m" unicode="m" horiz-adv-x="363" 
d="M271 470q0 28 -16 35q-6 2 -28 2v-388q0 -23 6 -36q2 -5 5 -11.5t8 -13.5q-17 -7 -30 -25q-5 -6 -10.5 -16.5t-12.5 -27.5q-6 17 -12.5 27.5t-11.5 16.5q-5 7 -12.5 13t-19.5 12q5 8 8.5 15t5.5 13q2 4 2 13v20v351q0 27 -16 35q-2 2 -10 2h-18v-436q0 -29 3 -41
q2 -7 6.5 -14.5t11.5 -15.5h-118q6 8 10 15.5t7 14.5l1 2q2 5 2.5 15.5t0.5 25.5v385q0 25 -0.5 41t-2.5 24q-3 10 -8.5 21t-16.5 25h246q59 0 78 -37q8 -15 12.5 -40t4.5 -60v-381q0 -64 6 -95q8 -36 32 -74q-30 3 -46 14q-20 15 -41 51q-13 21 -24 34t-18 17q11 17 14 39
q2 5 2 17v30v386v0z" />
    <glyph glyph-name="n" unicode="n" horiz-adv-x="237" 
d="M131 0q10 13 15 39q1 5 2 17t1 31v385q0 29 -16 35q-2 1 -8.5 1.5t-18.5 0.5v-442q0 -19 1 -32t5 -23l4 -12h-104l7 11q10 15 11 21q2 8 2.5 18.5t0.5 24.5v384q0 50 -3 65q-2 10 -8 20.5t-17 24.5h124q57 0 74 -36q10 -20 13 -58q2 -9 2 -26v-39v-369q0 -13 2.5 -19
t6 -9t6 -5.5t2.5 -7.5h-104z" />
    <glyph glyph-name="o" unicode="o" horiz-adv-x="224" 
d="M17 432q0 42 4 61q3 15 7 27.5t12 24.5q22 33 74 33q28 0 46.5 -9t28.5 -24q6 -11 10 -21t5 -22q1 -8 1.5 -20.5t0.5 -28.5v-336q0 -17 -0.5 -30t-1.5 -21q-2 -12 -5.5 -21.5t-9.5 -20.5q-20 -32 -75 -32q-26 0 -45.5 7.5t-28.5 24.5q-6 11 -11.5 24t-7.5 26q-4 20 -4 63
v295zM113 509q-20 0 -20 -31v-385q0 -32 20 -32q21 0 21 32v385q0 31 -21 31z" />
    <glyph glyph-name="p" unicode="p" horiz-adv-x="218" 
d="M101 0q1 -18 3 -33.5t7 -28.5q-23 -5 -35 -13q-8 -2 -16 -9.5t-16 -18.5q-14 -17 -21.5 -26t-9.5 -11q-17 -18 -36 -18h-9q19 29 29.5 53t16.5 43q5 20 8 50.5t3 72.5v420v35t-2 18q-3 8 -8 16.5t-14 18.5h100q48 0 65 -5q12 -6 20 -16t13 -27q5 -16 6.5 -44.5t1.5 -68.5
v-279q0 -32 -1.5 -54.5t-3.5 -34.5q-5 -17 -19 -27t-39 -12q-6 -1 -15 -1h-21h-7zM131 436q0 22 -1 34.5t-3 17.5q-6 6 -30 6v-422q25 0 30 9q3 4 3.5 16t0.5 34v305z" />
    <glyph glyph-name="q" unicode="q" horiz-adv-x="231" 
d="M235 -158q-19 8 -35 19.5t-30 31.5q-30 44 -55 48q17 23 17 47q0 4 -1 7t-2 5h-11q-12 0 -21 0.5t-16 0.5q-24 0 -34 7q-16 13 -23 38q-2 11 -3.5 31.5t-1.5 51.5v279q0 40 2.5 68.5t7.5 44.5q4 17 11.5 27t19.5 16q17 5 67 5h99q-10 -10 -15 -18.5t-8 -16.5q0 -6 -1 -18
t-1 -35v-481q0 -62 6 -87q2 -12 9.5 -30t18.5 -41zM95 131q0 -42 5 -50q7 -9 29 -9v422q-12 0 -19 -2t-10 -4q-2 -5 -3.5 -17.5t-1.5 -34.5v-305z" />
    <glyph glyph-name="r" unicode="r" horiz-adv-x="173" 
d="M106 70q0 -26 6 -41q4 -14 17 -29h-118q7 8 11 15.5t6 13.5q2 8 3 18.5t1 24.5v419q0 17 -1 27.5t-3 18.5q-2 6 -5 13.5t-10 18.5h72l13 -20q21 30 48 30q2 0 6 -1t6 -2v-97q-8 13 -15 18t-13 5q-24 0 -24 -45v-387v0z" />
    <glyph glyph-name="s" unicode="s" horiz-adv-x="222" 
d="M133 218q0 8 -1 13t-2 9q-2 1 -5 4.5t-7 7.5q-5 6 -11.5 11.5t-15.5 13.5l-8 7q-8 8 -15.5 15t-16.5 17q-18 14 -23 33q-6 13 -9 27t-3 34v22q0 88 29 117q24 29 68 29q39 0 65 -21q8 -8 13.5 -19.5t10.5 -24.5q2 -11 2.5 -26.5t0.5 -35.5v-92q-16 18 -34.5 28t-37.5 15
v76q0 31 -21 31q-20 0 -20 -31v-71q0 -30 11 -44q1 -5 27 -23l8 -6q22 -20 34.5 -32t17.5 -20q9 -14 12 -38t3 -61v-84q0 -57 -25 -84q-10 -12 -27 -17.5t-38 -5.5q-48 0 -70 25q-14 16 -21.5 45t-7.5 74v137l76 -58v-124q0 -32 20 -32q21 0 21 32v127v0z" />
    <glyph glyph-name="t" unicode="t" horiz-adv-x="140" 
d="M61 0q-32 0 -32 67v401q0 21 -1 36.5t-4 23.5q-2 11 -9.5 20.5t-18.5 17.5q19 11 33.5 23.5t26.5 26.5q13 16 24 37t22 47v-111q0 -23 14 -23h15q-15 -12 -21 -26q-5 -15 -5 -44v-401v-37q0 -13 2 -19q2 -8 7.5 -18t15.5 -21h-69z" />
    <glyph glyph-name="u" unicode="u" horiz-adv-x="258" 
d="M153 493q0 14 -0.5 25t-3.5 18q-2 17 -16 33h96v-484v-48q3 -19 14 -37h-131q-49 0 -71 37q-5 11 -8.5 39t-3.5 73v310q0 26 -1 42t-2 22q-3 11 -9.5 21.5t-17.5 24.5h106v-449q0 -51 23 -51h25v424v0z" />
    <glyph glyph-name="v" unicode="v" horiz-adv-x="259" 
d="M117 569q-13 -30 -13 -63l4 -48l23 -292l24 292q2 12 2.5 21.5t0.5 17.5q0 18 -4 36.5t-9 35.5h105q-19 -27 -21 -71l-48 -426q-2 -8 -2 -14v-10q0 -22 10 -48h-120q11 28 11 48v21l-48 431q-2 24 -8 41t-15 28h108z" />
    <glyph glyph-name="w" unicode="w" horiz-adv-x="428" 
d="M274 569q-7 -14 -11 -28t-4 -29q0 -6 2 -19.5t4 -34.5l24 -265l34 265q2 14 3 26t1 20q0 16 -4 32.5t-10 32.5h104q-5 -8 -8.5 -15t-6.5 -15q-2 -7 -4 -17t-4 -24l-57 -426q-1 -8 -2 -14t-1 -10q0 -20 14 -48h-122q16 38 16 59v10l-30 272l-34 -269v-13q0 -15 4 -29.5
t12 -29.5h-122q11 28 11 48v21l-47 431q-2 23 -7.5 40.5t-16.5 28.5h108q-7 -14 -10 -30.5t-3 -31.5q0 -5 1.5 -18t2.5 -31l25 -265l33 265q3 12 3.5 21.5t0.5 18.5q0 20 -4 37.5t-11 33.5h116v0z" />
    <glyph glyph-name="x" unicode="x" horiz-adv-x="260" 
d="M149 458q5 28 7.5 45t2.5 22q0 12 -1 23.5t-5 20.5h105q-6 -7 -11.5 -14.5t-9.5 -18.5q-2 -6 -5 -18t-5 -30l-39 -191l33 -189q5 -23 7.5 -37.5t5.5 -22.5q4 -11 10 -22.5t14 -25.5h-105q4 12 5 24t1 24q0 5 -1 19.5t-5 40.5l-21 133l-22 -133q-4 -26 -5.5 -40.5
t-1.5 -19.5q0 -26 7 -48h-106q8 14 14.5 25t10.5 22q6 15 13 60l33 190l-39 191q-4 18 -6.5 30t-4.5 18q-7 19 -21 33h106q-4 -9 -5.5 -20.5t-1.5 -23.5t9 -67l20 -108z" />
    <glyph glyph-name="y" unicode="y" horiz-adv-x="261" 
d="M22 -123v83q20 -17 42 -17q36 0 36 49q0 6 -2.5 25t-6.5 53l-56 430q-6 50 -22 69h105q-9 -32 -9 -63q0 -8 0.5 -20t2.5 -29l26 -282l22 282q1 12 1 21v17q0 38 -14 74h106q-9 -15 -15 -33t-8 -38l-40 -430q0 -1 -1.5 -18.5t-5.5 -49.5q-3 -29 -6.5 -46t-6.5 -27
q-4 -15 -13 -24.5t-22 -14.5q-14 -5 -33.5 -8t-48.5 -3h-31z" />
    <glyph glyph-name="z" unicode="z" horiz-adv-x="207" 
d="M196 569v-63l-103 -439q5 -2 11 -2h12q60 0 80 50v-115h-179v63l102 444h-19q-56 0 -74 -48v110h170z" />
    <glyph glyph-name="braceleft" unicode="{" horiz-adv-x="225" 
d="M119 0h-23t-18 1q-17 0 -24 3q-14 5 -21 16t-11 28q-4 16 -6 44q-3 30 -3 69v279q0 14 0.5 26.5t1.5 23.5q1 10 1.5 18.5t1.5 14.5q9 40 53 44q4 1 8 1t9 1h36l-2 20q-6 22 -24 42q13 4 21 6.5t18 6.5q7 4 18.5 10.5t16.5 11.5q4 4 7 6.5t7 5.5q5 3 8.5 5.5t7.5 4.5
q7 5 14 9q7 3 18 3q-10 -14 -16 -26.5t-11 -25.5q-2 -6 -4 -13t-4 -15q-2 -11 -3 -21.5t-1 -21.5v-490v-35q0 -10 2 -18q4 -17 20 -34h-98zM123 74v423q-23 0 -30 -9q-6 -8 -6 -50v-308q0 -9 0.5 -17t1.5 -14q2 -18 7.5 -21t26.5 -4z" />
    <glyph glyph-name="bar" unicode="|" horiz-adv-x="366" 
d="M216 -269h-73v1259h73v-1259z" />
    <glyph glyph-name="braceright" unicode="}" horiz-adv-x="139" 
d="M24 9q3 6 6 11t4 10q3 13 3 43v383q0 52 -3 66q-1 12 -8.5 22.5t-15.5 24.5h99v-498q0 -13 0.5 -23.5t2.5 -17.5q2 -5 4.5 -10t7.5 -11l7 -9h-113zM44 632l-37 18q16 0 27.5 12t18.5 29t10.5 35.5t3.5 30.5q0 -12 3 -30t10 -35t17.5 -29.5t24.5 -12.5l-38 -18l-20 -34z
" />
    <glyph glyph-name="asciitilde" unicode="~" horiz-adv-x="357" 
d="M294 459h26q-24 -127 -93 -127q-22 0 -63.5 27.5t-59.5 27.5q-30 0 -49 -57h-29q27 124 96 124q22 0 61.5 -27.5t62.5 -27.5q31 0 48 60z" />
    <glyph glyph-name="exclamdown" unicode="&#xa1;" horiz-adv-x="147" 
d="M64 0q-48 0 -48 126v40l17 307q6 106 25 106q4 0 6 -5q11 -11 18 -91l28 -298q1 -23 2 -41t1 -31q0 -113 -49 -113zM59 610q-14 0 -24 10q-12 9 -12 35q0 12 3.5 20t10.5 15q11 10 26 10q11 0 22 -9q12 -11 12 -34q0 -12 -3.5 -20.5t-9.5 -16.5q-10 -10 -25 -10z" />
    <glyph glyph-name="cent" unicode="&#xa2;" horiz-adv-x="258" 
d="M112 58q-40 3 -60 31q-8 11 -12 24t-7 26q-3 11 -3.5 27t-0.5 36v295q0 20 0.5 36t3.5 27q3 14 7 27t12 24q11 14 25 21.5t35 9.5v55h28v-55q43 -3 61 -32q6 -11 10 -21t5 -22q2 -8 3 -20t1 -29v-64l-74 -33v122q0 31 -21 31q-20 0 -20 -31v-385q0 -32 20 -32q21 0 21 32
v160l74 37v-173q0 -17 -1 -29.5t-3 -20.5q-2 -11 -5.5 -21.5t-9.5 -19.5q-18 -30 -61 -33v-55h-28v55z" />
    <glyph glyph-name="sterling" unicode="&#xa3;" horiz-adv-x="259" 
d="M102 36q0 -4 2 -8.5t4 -9.5q6 -11 11 -18h-119q14 20 17 32q1 4 1.5 9t1.5 10t1 10v13v467q0 89 16 120q22 39 86 39h132q-8 -10 -11 -17t-5 -11q-3 -8 -4 -18q-1 -5 -1 -11v-11v-558v-13t1 -11t2 -9.5t2 -8.5q2 -8 6 -15t10 -17h-119q3 5 6 9.5t5 9.5q3 8 5 17q1 3 1 8
v10v28v121l-51 -26v-95v-46zM121 628q-19 0 -19 -49v-320l51 26v343h-32z" />
    <glyph glyph-name="currency" unicode="&#xa4;" horiz-adv-x="254" 
d="M226 80v-16q0 -7 1 -13q1 -5 1 -11q0 -5 1 -8q1 -7 7 -14q3 -5 7 -9t8 -9h-121q6 7 10 13t6 11q1 3 1.5 6.5t0.5 8.5v252q0 13 -5 21t-13 11q0 1 -8 1h-19v-285q0 -5 1 -9.5t2 -7.5q3 -10 15 -22h-121q4 5 8 8.5t7 8.5q7 8 8 15q2 8 2 19v29v539v29q0 14 -3 20
q-8 15 -22 32h140q21 0 38 -4q20 -4 33 -28q5 -10 10 -35q2 -11 3.5 -25t1.5 -31v-98q0 -57 -15 -81q-15 -25 -36 -28q36 -7 46 -32q5 -23 5 -90v-153v-15zM123 414q25 0 25 33v149q0 33 -25 33h-20v-215h20z" />
    <glyph glyph-name="yen" unicode="&#xa5;" horiz-adv-x="289" 
d="M29 638q-1 12 -6 23q-1 4 -3 8.5t-4 9.5q-7 12 -16 21h101l88 -400v335q-1 6 -2 11t-2 9q-5 22 -22 45h123q-6 -11 -9 -18q-2 -5 -4 -8.5t-4 -8.5q-2 -4 -2.5 -9t-1.5 -10q-1 -6 -1 -13v-14v-534q0 -8 0.5 -15t1.5 -13t2 -10.5t2 -9.5q2 -11 6 -18q3 -8 9 -19h-112
q2 4 3.5 7.5t3.5 7.5q2 10 2 16q0 16 -9 52l-72 302v-317q0 -7 1.5 -13l2.5 -10q5 -22 22 -45h-119q3 5 5 9l4 8q2 5 3.5 9t3.5 9q2 4 2 9t1 10q1 6 1.5 14.5t0.5 26.5v543z" />
    <glyph glyph-name="brokenbar" unicode="&#xa6;" horiz-adv-x="403" 
d="M373 78q0 -31 5 -45q2 -6 5.5 -14.5t11.5 -18.5h-121q7 10 10.5 18.5t5.5 13.5q3 12 3 41v488v15t-1 12q-1 6 -2 11t-2 9q-6 18 -20 18q-16 0 -22 -18q-4 -6 -4 -17v-458q0 -7 0.5 -12.5t1.5 -10.5q2 -10 4 -17q1 -5 7 -10q2 -2 5.5 -6t7.5 -8q-8 -8 -13.5 -13t-9.5 -9
q-5 -5 -9 -8.5t-6 -7.5q-3 -5 -6 -11.5t-6 -13.5q-4 -8 -7.5 -16.5t-6.5 -19.5q-7 21 -12 37t-13 24q-11 12 -38 35q8 6 12.5 12.5t6.5 11.5q1 2 2.5 6t1.5 11v481q0 13 -4 21q-5 8 -9.5 12.5t-13.5 4.5t-14 -4q-4 -4 -9 -14q-3 -9 -3 -42v-493q0 -29 3 -41q2 -5 5.5 -13.5
t10.5 -18.5h-122q8 10 12 18.5t5 14.5q4 8 5 18.5t1 26.5v527v19q0 9 -1 17q-2 7 -2.5 12t-2.5 8q-2 6 -8 16t-17 23h165l32 -44l34 44h168q-8 -12 -13.5 -20.5t-7.5 -16.5q-3 -7 -4 -20t-1 -31v-534v0z" />
    <glyph glyph-name="section" unicode="&#xa7;" horiz-adv-x="268" 
d="M190 99q-1 -9 -1.5 -15.5t-0.5 -11.5v-16q0 -33 19 -56h-146q10 11 14 24.5t4 30.5v16v10t-1 13l-39 504q-2 20 -4.5 36t-5.5 28q-8 28 -19 38h113q-2 -5 -4 -11t-4 -11q-2 -7 -2 -14v-15v-30l21 -348l22 352q0 6 0.5 12t0.5 11q0 16 -3 36q-2 4 -5 7t-6 11
q17 5 32.5 14.5t29.5 23.5q8 9 14 17.5t11 15.5q4 5 8 9.5t6 6.5q16 16 40 18q-5 -10 -10 -21t-11 -21t-8.5 -20t-4.5 -19q-2 -8 -4 -17.5t-3 -23.5q-2 -12 -4.5 -27.5t-4.5 -32.5z" />
    <glyph glyph-name="dieresis" unicode="&#xa8;" horiz-adv-x="205" 
d="M14 641q0 12 3 21.5t9 20.5q10 18 23 18t24 -18q10 -19 10 -42q0 -26 -10 -44t-24 -18q-13 0 -23 18q-5 9 -8.5 19.5t-3.5 24.5zM114 641q0 12 3 21.5t9 20.5q10 18 23 18t24 -18q10 -19 10 -42q0 -26 -10 -44t-24 -18q-13 0 -23 18q-5 9 -8.5 19.5t-3.5 24.5z" />
    <glyph glyph-name="copyright" unicode="&#xa9;" horiz-adv-x="252" 
d="M149 449v17q0 8 -1 13q-2 12 -6 16t-28 4v-465q0 -9 4 -19q2 -4 3.5 -7.5t3.5 -7.5h-107q13 16 18 32q1 2 2 6.5t1 9.5v543q0 40 -9 66q-2 5 -4.5 11t-6.5 11q-8 12 -19 21h9q9 0 13 -1q7 -2 14 -6l36 -22q38 -24 59 -28q-9 -5 -10 -12q-1 -4 -2 -9l-2 -10q-1 -3 -1 -7
t-1 -9t-1 -12v-15q0 -14 15 -14q11 0 26 5q12 4 18 4q12 0 23 -8q10 -9 16 -22q4 -8 5.5 -17.5t3.5 -22.5q3 -26 3 -59v-388q0 -12 1 -15q5 -16 18 -32h-105q2 4 3.5 7.5t3.5 7.5q4 10 4 19v415v0z" />
    <glyph glyph-name="ordfeminine" unicode="&#xaa;" horiz-adv-x="308" 
d="M37 592v19t-1 17q-1 16 -6 28q-2 5 -5 11t-7 11t-8 11t-10 11h8q12 0 26 -6l36 -24l34 -18q13 -7 27 -9q-3 -3 -5.5 -6t-4.5 -5q-6 -8 -7 -16q-1 -4 -1 -15v-254q12 39 20.5 69.5t14.5 52.5q12 43 12 57q0 5 -0.5 10t-1.5 10l-7 22h120q-5 -4 -9.5 -8t-7.5 -9
q-7 -8 -13 -19q-1 -2 -2 -6t-3 -11q-5 -14 -12 -39l-53 -174l84 -230q3 -8 5 -14.5t5 -11.5t4.5 -9t3.5 -6q6 -8 15 -15.5t20 -15.5h-134q2 4 3.5 8.5t2.5 8.5q1 3 2 8t1 10q0 4 -1 6l-69 207v-174q0 -32 5 -42q5 -14 17 -32h-117q13 16 16 32q3 13 3 44v516v0z" />
    <glyph glyph-name="guillemotleft" unicode="&#xab;" horiz-adv-x="364" 
d="M28 498q-2 18 -3 25q-4 10 -8 21q-3 5 -7 11t-10 14h247q57 0 78 -37q4 -8 7.5 -17.5t5.5 -23.5q3 -26 3 -59v-386q0 -8 4 -18q7 -17 18 -30h-118q6 6 11 14.5t8 15.5q2 5 2.5 15.5t0.5 26.5v400q0 27 -16 34q-4 2 -28 2v-389q0 -11 2 -21.5t8 -24.5q2 -4 4.5 -8t4.5 -7
q-8 -4 -16 -9.5t-15 -15.5t-11.5 -20.5t-11.5 -23.5q-5 14 -10.5 24t-13.5 20q-6 8 -13.5 14t-18.5 11q3 4 6 7.5t5 7.5q5 11 5 26v373q0 27 -16 34q-1 2 -10 2h-19v-436q0 -15 1 -25.5t3 -16.5q2 -7 7.5 -16t10.5 -14h-117q2 4 4.5 8.5t4.5 8.5q8 14 11 31v412v40z" />
    <glyph glyph-name="logicalnot" unicode="&#xac;" horiz-adv-x="255" 
d="M113 67q0 -51 10 -67h-107q13 15 18 33q2 5 3 15.5t1 24.5v385q0 25 -1 40.5t-3 23.5q-2 10 -9 21.5t-17 25.5h128q29 0 48 -10t30 -28q5 -11 8.5 -26t5.5 -32q2 -9 2 -25v-40v-397v-74q2 -16 4.5 -31t7.5 -26q2 -8 8.5 -18t16.5 -21h-5q-21 -2 -38 13t-34 44q0 2 -3 8.5
t-7 20.5q-8 27 -19.5 45t-22.5 26q12 16 16 41q2 5 2 17v29v385q0 29 -16 35q-2 2 -27 2v-440z" />
    <glyph glyph-name="registered" unicode="&#xae;" horiz-adv-x="2769" 
d="M320 42l-38 23q-41 24 -93 24q-37 0 -84 -14q-20 -7 -33 -7q-5 0 -6 1q9 8 20 16t21 14q78 51 86 64q4 5 4 27q0 23 -5.5 59t-14.5 98l-14 93l63 101q-47 6 -82 24.5t-57.5 40t-33.5 39.5t-11 22v1q3 0 7 -3t12 -7.5t20.5 -10t33.5 -11.5q35 -10 56 -12.5t43 -2.5
q6 0 15 2.5t20.5 6t23.5 6t23 2.5l8 -1q45 -9 74 -17t41 -17q28 -18 48 -46.5t33 -62.5t19 -71.5t6 -74.5q0 -45 -8.5 -85.5t-24.5 -68.5l-149 -152h-23zM361 129h2q8 0 21.5 9t20.5 17q8 8 12 20t4 21v155q0 64 -11.5 105.5t-38.5 59.5q-31 21 -43 21h-46q-18 0 -18 -70
v-26t2 -31v-243q0 -9 -7 -13.5l-7 -4.5zM976 131l59 67h-13q-10 17 -10 24v210l8 6q2 3 4 4.5t4 3.5l7 8h22v-244q2 -30 20.5 -53.5t43.5 -23.5q11 0 23 6l44 49q-34 12 -34 42v224q0 12 -6.5 25t-17.5 23.5t-25 17.5t-28 7q-17 0 -31.5 -11.5t-25.5 -39.5l-14 4l-14 24
q-5 11 -11.5 14.5t-14.5 3.5h-6l-59 -60q21 0 21 -8v-281q0 -20 15.5 -29.5t38.5 -12.5zM2156 139l59 67h-12q-9 15 -9 24v210l7 6q3 5 8 8l6 8h24v-244q0 -15 5 -29t14 -24.5t20.5 -17t24.5 -6.5q11 0 23 6l44 49q-34 11 -34 42v224q0 12 -6.5 25t-17.5 23.5t-25 17.5
t-28 7q-17 0 -32 -11.5t-26 -39.5l-15 4l-12 24q-6 10 -13 13.5t-15 3.5h-6l-60 -59q12 0 17 -1.5t7 -6.5v-282q0 -19 14.5 -28.5t37.5 -12.5zM1452 22q22 -7 51 -7q26 0 52 5t46.5 14t33.5 21t13 25v388q0 32 -15.5 45.5t-34.5 13.5h-5l-68 -39l32 -42v-224
q0 -7 -9.5 -11.5t-20.5 -4.5t-20.5 5.5t-9.5 18.5v258q-9 26 -20.5 34.5t-20.5 8.5h-4l-14 -4l-54 -41l22 -46v-224q0 -8 6.5 -21t17 -26t25 -22t29.5 -9q17 0 31 13q15 15 27 21t20 6h3q-1 -4 -1 -13q0 -23 7 -52q3 -12 3 -21q0 -27 -19 -37t-41 -10q-21 0 -37.5 5t-16.5 9
v52l-16 16q-30 30 -38 30h-14q-5 0 -15.5 -15.5t-10.5 -38.5q0 -22 18 -44.5t68 -36.5zM2467 143q-18 1 -35 13.5t-30.5 29t-21.5 33t-8 27.5v149q0 15 10.5 38t28.5 45.5t41 38.5t47 16q17 0 32 -9v67l-30 55l57 44q4 2 7 2q6 0 14.5 -4.5t15.5 -11.5t12 -16t5 -18v-394
q2 -8 5 -15t9 -13l24 -18l-42 -55q-4 -2 -11 -2q-5 0 -9.5 1t-9.5 3l-41 43l-48 -45q-6 -2 -11 -3t-11 -1zM2511 216q5 3 8.5 4.5t5.5 3.5l6 6v188l-42 38h-42v-149q0 -65 64 -91zM2033 139l-66 47l-65 -43l-16 -2q-3 0 -15 9.5t-25.5 23t-24 29t-10.5 27.5v165q0 58 59 103
q17 12 36.5 21t43.5 18q101 -23 101 -222v-82q0 -14 6 -19q5 -5 16 -8l11 -6zM1946 208q6 5 9 6.5t5 3.5l5 6v188l-41 38h-42v-149q0 -67 64 -93zM770 125l22 6l85 59q30 36 30 75q0 23 -12 44t-40 38l-69 38q-23 14 -32.5 27.5t-9.5 24.5q0 12 8.5 20t20.5 8q17 0 34 -11.5
t22 -50.5l20 -6l32 33q4 8 4 19q0 13 -5.5 26.5t-15.5 24.5t-25 18t-33 7q-12 0 -30 -5l-76 -54q-3 -5 -5.5 -8t-4.5 -8q-16 -26 -16 -55q0 -31 15 -56t35 -36l71 -33q10 -5 19.5 -23t9.5 -34q0 -18 -15 -21q-3 -1 -8 -1q-35 0 -59 69l-46 -28q-9 -14 -9 -28q0 -15 7.5 -29
t19 -25.5t24.5 -18.5t24 -7q5 0 8 1zM1311 129h-5q-22 0 -56 20q-21 11 -36 30.5t-25 44t-14.5 52.5t-4.5 55q0 32 5.5 60.5t16.5 48.5l117 76l81 -106v-5q0 -32 -81 -83l-49 -30q-3 -2 -3 -6q0 -8 7 -20t17.5 -24t22.5 -21.5t21 -12.5q3 -1 16.5 -4.5t26.5 -3.5q14 0 18 6
l4 4v-26l-65 -51q-8 -4 -14 -4zM1260 335q4 0 8.5 0.5t12.5 5.5q17 9 19.5 15.5t2.5 8.5v38l-34 51q-19 -9 -19 -44v-75h10zM1706 682l-48 -63q26 -7 26 -22v-383q0 -29 16 -51.5t39 -25.5l72 51l-26 24q-8 8 -10 17.5t-2 18.5v389q-1 4 -7.5 12t-15 16.5t-16.5 14.5t-11 6z
M671 200h-14q-8 0 -8 8v232q0 66 -48 84l-55 -36q-5 -6 -5 -15q0 -7 7 -17q12 -9 12 -16v-256q0 -5 5 -13.5t12 -17t12.5 -14.5t7.5 -6h22l46 40q7 9 7 20q0 2 -0.5 3.5t-0.5 3.5zM645 591q-3 -2 -10.5 -3.5t-16.5 -1.5t-16 6t-7 23l-49 -24q5 -23 20 -34t32 -11t31.5 11.5
t15.5 33.5zM1999 16l44 77h30l41 -77h-26l-8 16h-45l-10 -16h-26zM2075 44l-16 35l-18 -35h34zM2537 16h27v28l12 8l42 -36h32l-56 45l48 32h-32l-46 -32l-2 32h-25v-77zM2271 16v77h65q17 0 26.5 -6t9.5 -16q0 -8 -8 -12.5t-20 -6.5q8 0 16 -4q4 -2 8 -10l2 -14q0 -8 4 -8
h-28q-3 3 -2.5 8t-1.5 10l-4 6q-3 6 -18 6h-23v-30h-26zM2326 59q20 0 20 10q0 6 -8 10q-3 0 -5 1t-7 1h-29v-22h29zM1755 16v77h54q41 0 41 -26q0 -5 -2.5 -8t-4.5 -6v-1q-6 -5 -14 -7.5t-20 -2.5h-28v-26h-26zM1803 56q24 0 24 11q0 14 -22 14h-22l-2 -25h22zM2694 203
l2 2h1q11 0 11 -8q0 -9 -14 -9v15zM2684 205q1 0 1.5 -1t2.5 -2v-31q-2 -1 -6 -1v-3h18v3q-6 0 -6 2v14h3l15 -19h8v3h-3l-1.5 1.5l-2.5 2.5l-9 12q11 3 11 11q0 10 -14 10h-17v-2zM2701 217q11 0 20.5 -9.5t9.5 -20.5q0 -12 -9 -20.5t-21 -8.5t-20.5 8.5t-8.5 20.5
q0 11 8.5 20.5t20.5 9.5zM2701 219q-13 0 -22.5 -9t-9.5 -23q0 -13 9.5 -22.5t22.5 -9.5q14 0 23 9.5t9 22.5q0 14 -10 23t-22 9z" />
    <glyph glyph-name="macron" unicode="&#xaf;" horiz-adv-x="2614" 
d="M275 136q-12 0 -17 5q-19 50 -24 54l-25 16q-49 31 -77.5 61t-28.5 50v3q6 44 143 74l2.5 14t4.5 41q3 17 7 30t10 22q2 1 5 1t4 -1q13 -6 19 -25t8 -49l2 -29q0 -1 34 -2q98 -4 134 -43q13 -14 13 -31q0 -20 -16 -33t-33 -13q-12 0 -22 8v5q25 15 25 22v7
q-36 15 -70 20.5t-52 5.5q-13 0 -15 -2v-131q8 -5 28.5 -8t47.5 -3q30 0 62.5 5t60.5 18t46 35.5t18 56.5q0 22 -7 44q-11 35 -49.5 76t-96 76t-130 58t-150.5 23q-45 0 -90 -9l5 -2q13 0 19 -8v-7q-6 -7 -11 -7h-17q-15 0 -25 10q0 42 53 55q40 10 86 10q55 0 111.5 -13
t109.5 -36t100 -53.5t81.5 -66t54.5 -73.5t20 -75q0 -36 -20.5 -69.5t-68.5 -62.5q-59 -35 -132 -35q-16 0 -34 2t-35 4q-33 6 -35 6q-5 -20 -14.5 -25.5t-18.5 -5.5zM243 236l5 111h-20q-62 0 -106 -26q0 -5 9.5 -17t26 -25.5t39 -26t46.5 -16.5zM1320 0q-20 2 -31.5 15
t-11.5 30q0 7 1 11q8 33 14.5 67t17.5 66q10 29 10 34l-7 10q-7 13 -7 29q0 23 11 48t25 45.5t28 34t20 13.5q3 0 3 -2q1 -1 1 -5q0 -13 -19 -53q-26 -54 -26 -63v-8q20 28 42 51t48 41q23 17 27 17h4q15 0 33 -18t18 -51q0 -17 -7 -37q-7 -18 -21 -36.5t-32.5 -32.5
t-39.5 -23t-42 -9l-10 1q-8 -22 -13 -36.5t-8.5 -25t-5.5 -18t-3 -13.5zM1417 236q2 0 13 5t24 15t23 25t10 34v3q0 17 -5 20q-27 -21 -45 -46q-35 -46 -35 -54v-2h15zM717 323q17 -20 54 -24l33 -2q61 -5 88 -23l2 -9q-23 -14 -49.5 -20.5t-49.5 -6.5q-33 0 -46 10v9
q10 11 20 11q5 0 7 -1l45 -17h23q7 0 13.5 2.5t14.5 10.5v11q-20 11 -42.5 16t-42.5 5q-26 0 -43 -8.5t-17 -27.5q0 -12 7 -25q11 -23 37.5 -33.5t56.5 -10.5q34 0 63.5 14t37.5 41q2 5 2 8v9q0 56 -104 68l-30 3l-31 7h-5v3q29 6 61 9q89 7 92 10q15 5 22 17v5
q-20 21 -78 21h-20q-10 0 -21 -2q-21 -2 -39.5 -9t-32 -15.5t-21 -17t-7.5 -14.5v-24zM631 419q-16 10 -16 19l-5 26l-10 22q-1 3 -1 10q0 21 14 39.5t34 32t41.5 21t37.5 7.5q10 0 16 -3l51 -27q21 -10 21 -30q0 -17 -13 -35.5t-32.5 -34.5t-41 -26.5t-37.5 -10.5
q-11 0 -24 3t-16 3h-1q-8 -16 -15 -16h-3zM683 469q11 0 41 10q48 15 56 43q1 3 1 7q0 16 -17 16q-14 0 -35 -12t-41 -35q-14 -17 -14 -23t9 -6zM632 498q4 2 7.5 4.5t7.5 8.5q4 5 9 10.5t13 13.5l7 7v3h-1q-6 0 -13 -5t-14 -12t-11.5 -14.5t-4.5 -13.5v-2zM936 224
q4 -36 27 -36q4 0 7 1q19 28 19 91q0 34 3 34q20 -43 38 -71.5t34 -42.5q3 -1 9 -1q23 0 37 25t14 63q0 23 -6 49.5t-20 52.5q-27 45 -41 45q-5 0 -9 -4l-1 -2q1 -10 4 -26.5t8 -37.5q6 -23 11 -47t9 -49q-2 -1 -3 -2t-2 -1q-11 15 -18.5 27t-15.5 22q-17 26 -30.5 43.5
t-24.5 28.5q-18 -8 -28 -33.5t-14.5 -53.5t-5.5 -51t-1 -24zM1183 240l-1 7q0 12 9 21q9 5 14.5 7t12.5 4h31q5 1 11.5 3.5t17.5 6.5v7q0 13 -9 18q-14 3 -29 4t-29 1q0 10 9 24h59q29 0 36 17q-3 19 -19 29q-11 9 -42 9q-15 0 -31.5 -2t-32 -4.5t-29 -6t-21.5 -6.5v-4
q0 -21 34 -27q0 -3 2 -5q-7 -28 -33 -39q0 -3 -1 -5q0 -7 1 -7q1 -3 2 -5t1 -4t-1 -3l-12 -29q-4 -11 -4 -24q0 -22 14 -37q15 -16 41 -16q23 0 50 12.5t52 36.5v4q0 22 -26 22zM698 192l2 25q1 5 1 8v9q0 8 -0.5 17t-0.5 17q0 70 -5 101.5t-23 31.5h-3q-7 -10 -11 -28
t-6 -40t-2.5 -44t-0.5 -39v-33q3 -18 11.5 -24t17.5 -6q12 0 20 5zM1560 199v324h40v-324h-40zM1832 199h-43v25q-10 -18 -25 -25q-8 -5 -16 -7t-18 -2q-38 0 -62 29q-10 14 -16 34t-6 44q0 47 24 77q22 30 58 30q25 0 39 -10q8 -5 14 -12.5t8 -16.5v33h43v-199zM1791 297
q0 31 -14 50q-6 8 -15 12.5t-20 4.5q-24 0 -38 -19q-6 -9 -9.5 -20.5t-3.5 -27.5q0 -17 3.5 -28.5t9.5 -20.5q13 -17 36 -17t37 19t14 47zM1889 199v199h38v-33q6 11 13.5 17.5t16.5 11.5q14 10 41 10q11 0 19.5 -2t14.5 -4q8 -5 13 -10t9 -13q3 -4 4 -8.5t3 -9.5t2 -15v-23
v-120h-41v102q0 19 -2.5 31.5t-6.5 19.5q-8 13 -30 13q-8 0 -14.5 -1t-12.5 -6q-5 -2 -10 -6t-7 -9q-3 -4 -4 -8.5t-3 -9.5t-2 -14v-22v-90h-41zM2250 297q0 17 -4 29t-10 21q-7 8 -15.5 12.5t-21.5 4.5q-23 0 -36 -19q-14 -17 -14 -48t12 -49q13 -17 38 -17q24 0 35 19
q16 19 16 47zM2248 523h41v-324h-41v25q-5 -9 -12 -15t-14 -10q-8 -5 -16.5 -7t-17.5 -2q-38 0 -61 29q-22 28 -22 78q0 49 22 77q22 30 60 30q23 0 37 -10q16 -9 24 -29v158zM1454 90h4q8 0 13 1t7 2q3 3 3.5 6t0.5 8q0 8 -6 14q-2 1 -7 2t-11 1h-4v-34zM1453 76v-52h-17
v115h44q5 -2 10 -5q2 -2 4.5 -5t4.5 -7q1 -2 2 -5.5t1 -7.5q0 -13 -7 -22q-8 -8 -20 -11l41 -52h-23l-39 52h-1zM1624 24v115h65v-15h-46v-29h46v-17h-46v-37h46v-17h-65zM1801 48l15 6q2 -5 9 -12q3 -3 13 -3q11 0 14 3q5 7 5 14q0 10 -17 17q-2 2 -3 2v0q-21 10 -26 17
q-7 7 -7 18q0 8 3 13.5t8 10.5q11 9 25 9q12 0 20 -5q10 -6 12 -14l-13 -8q-3 2 -4.5 4t-4.5 4t-10 2q-2 0 -5.5 -0.5t-6.5 -3.5q-3 -5 -3 -10q0 -9 18 -20q21 -7 28 -16q5 -8 5 -20q0 -15 -10 -25q-11 -11 -28 -11q-8 0 -14 2.5t-11 4.5q-9 9 -12 21zM2093 82v8q0 4 -1 9
q-3 4 -5.5 7.5t-5.5 5.5q-2 4 -5.5 6t-7.5 4t-7.5 3t-8.5 1t-8.5 -1t-8.5 -3q-8 -2 -13 -10q-3 -2 -5.5 -5.5t-4.5 -7.5q-2 -5 -2 -9v-8v-9t2 -8q2 -5 4.5 -7.5t5.5 -6.5q6 -6 13 -9q5 -2 8.5 -2.5t8.5 -0.5t8.5 0.5t7.5 2.5q7 3 13 9q3 4 5.5 6.5t5.5 7.5q1 4 1 8v9z
M2114 82q0 -11 -5 -24l-6 -10t-8 -9q-7 -7 -19 -14q-13 -5 -24 -5q-12 0 -25 5q-12 7 -19 14q-5 4 -8 9t-5 10q-5 10 -5 24q0 6 1 12t4 11q2 5 5 10.5t8 10.5q9 9 21 12q10 5 23 5q11 0 24 -5q10 -3 19 -12q5 -5 8 -10.5t6 -10.5q5 -10 5 -23zM2251 90h4q8 0 13 1t7 2
q2 3 3.5 6t1.5 8q0 7 -5 14q-2 1 -7 2t-13 1h-4v-34zM2251 76v-52h-18v115h44q4 -1 6.5 -2t5.5 -3q5 -5 8 -12q2 -3 2 -13q0 -15 -7 -22q-5 -8 -19 -11l39 -52h-20l-39 52h-2zM2459 124v-100h-19v100h-31v15h80v-15h-30zM2350 243l1 1h1q8 0 8 -6t-10 -6v11zM2342 244
q1 0 3 -2v-23q-1 -1 -4 -1v-2h13v2q-4 0 -4 2v10h2l11 -14h6v2h-2q-1 1 -2 1l-1 2l-7 9q8 3 8 8q0 8 -10 8h-13v-2zM2355 253q8 0 15 -7t7 -15q0 -9 -6.5 -15.5t-15.5 -6.5t-15.5 6.5t-6.5 15.5q0 8 6.5 15t15.5 7zM2355 255q-10 0 -17 -7t-7 -17t7 -17t17 -7t17 7t7 17
t-7.5 17t-16.5 7zM2542 64l1 1h1q8 0 8 -6t-10 -6v11zM2534 65q1 0 3 -2v-23q-1 -1 -4 -1v-2h13v2q-4 0 -4 2v10h2l11 -14h6v2h-2q-1 1 -2 1l-1 2l-7 9q8 3 8 8q0 8 -10 8h-13v-2zM2547 74q8 0 15 -7t7 -15q0 -9 -6.5 -15.5t-15.5 -6.5t-15.5 6.5t-6.5 15.5q0 8 6.5 15
t15.5 7zM2547 76q-10 0 -17 -7t-7 -17t7 -17t17 -7t17 7t7 17t-7.5 17t-16.5 7z" />
    <glyph glyph-name="degree" unicode="&#xb0;" horiz-adv-x="4235" 
d="M69 551q0 12 -5 21.5t-12 17.5t-14.5 15.5t-12.5 15.5l97 84q16 -13 30 -27.5t24 -28t17 -24t10 -13.5l134 91q25 -3 44 -16.5t32.5 -28t23 -26t16.5 -11.5l131 84q24 0 42 -12.5t34 -28.5q24 -30 29 -71.5t5 -77.5v-371q0 -11 5.5 -21t12.5 -19t14 -15.5t10 -9.5
l-91 -79q-10 2 -23.5 8.5t-27 17t-24 25.5t-13.5 35v456q0 5 -2 12t-5.5 13.5t-9.5 11t-14 4.5l-76 -50v-398q0 -7 5.5 -14.5t12 -14.5t13 -12.5t9.5 -7.5l-88 -86q-14 4 -29.5 12.5t-28.5 20t-21 25.5t-8 28v462q0 15 -8 25t-25 10l-76 -50v-398q0 -5 5 -12.5t11 -14.5
t12.5 -13t9.5 -9l-96 -83q-15 0 -29 8t-25 20.5t-18 27t-7 27.5v452v13zM905 334v62q0 24 -6 41t-31 38q-17 0 -26.5 -17.5t-15 -40t-7 -44t-1.5 -30.5v-35q0 -24 13.5 -47t39.5 -39q15 2 21.5 7.5t12.5 16.5v88zM905 162q-11 0 -20 -5t-18 -11t-19 -12.5t-22 -9.5
q-29 10 -46.5 31t-28 47.5t-14 55.5t-3.5 55q0 78 31.5 137t102.5 92q17 8 25.5 11t18.5 3q20 0 37.5 -13t28.5 -31q3 -2 8 -8.5t10 -15t8.5 -16.5t3.5 -12v-240q0 -13 12 -26t20 -17l-70 -62q-9 3 -18.5 9.5t-18.5 13.5t-16.5 13.5t-11.5 10.5zM1195 465q-9 -6 -22 -13.5
t-13 -18.5v-181q0 -11 12 -22t23 -13q3 0 9.5 3t12.5 7.5t11 9t5 6.5v182q0 5 -5 11t-11 11.5t-12.5 10t-9.5 7.5zM1043 88q0 11 4 29t13 27l85 -50q-2 -5 -2.5 -11.5t-0.5 -14.5q0 -20 16 -23.5t34 -3.5h14q15 0 30.5 3.5t20.5 12.5q2 2 2 8q0 11 -4 26.5t-9 30.5t-9 26.5
t-4 14.5v1l-80 -40q-27 15 -43.5 28t-25.5 26t-13.5 26.5t-8.5 30.5v196q0 8 1 13.5t9 15.5l154 108l106 -99v-263q7 -27 9.5 -48t2.5 -41q0 -30 -12.5 -54t-32.5 -40.5t-47 -25t-55 -8.5q-24 0 -51 4.5t-50 15.5t-38 30.5t-15 48.5zM1425 673q2 -6 9.5 -13.5t18 -14
t22.5 -11.5t23 -5q0 -12 -7 -22t-17.5 -17.5t-23 -11.5t-22.5 -4q-19 0 -40 13.5t-30 33.5q2 1 2.5 1.5t2.5 1.5q17 11 32.5 22t29.5 27zM1431 545q8 -3 16.5 -9.5t15.5 -14t11.5 -15.5t4.5 -13v-273q0 -11 9.5 -21.5t15.5 -19.5l-55 -55q-11 2 -23 6.5t-21.5 11.5t-16 17.5
t-6.5 25.5v275q0 11 -3 22t-12 19zM1516 326q0 70 26 124.5t77 100.5q6 6 14 10.5t18 4.5q1 0 5.5 -2t9 -4.5l9 -5t5.5 -3.5q4 -1 14 -8t20 -15.5t17.5 -15.5t7.5 -8l-50 -65q-9 2 -18 11t-20 15q-2 3 -11 6.5t-16 3.5h-2q-11 -11 -17 -28t-8.5 -35t-3 -34t-0.5 -26
q0 -38 9.5 -61t24.5 -39q11 -14 26 -23t30 -14t27 -7t17 -2q-2 -2 -11 -15t-19 -28t-19 -27t-12 -12q-25 2 -44 9.5t-39 18.5q-21 15 -34 34.5t-20.5 42.5t-10 48t-2.5 49zM1932 504v62q-2 17 -15.5 33.5l-22.5 27.5v2l85 76q16 -5 32.5 -17t29.5 -26.5t21 -29.5t8 -26v-181
q0 -2 3.5 -2.5t5.5 -0.5h5q16 15 31.5 29t29 29t23.5 32.5t16 40.5v21q0 18 -4.5 34.5t-7.5 24.5q0 1 -0.5 1.5t-0.5 1.5l100 64q9 -3 16 -17.5t12 -30.5t7.5 -30t2.5 -16q0 -12 -1.5 -26.5t-5.5 -29t-10 -27.5t-15 -22l-88 -94q-1 0 -3 -5.5t-2 -10.5q0 -4 2 -4l53 -27
q11 -6 25 -19t22 -22q9 -11 14.5 -29t8.5 -39.5t4.5 -44.5t1.5 -44q4 -39 41 -76l-99 -83q-12 3 -26.5 12t-27 21t-21 25.5t-8.5 26.5v152q0 1 -1.5 9.5t-5 20.5t-7.5 17q0 6 -3 9l-29 30h-18q-1 0 -5 -4l-9.5 -9.5l-11 -11l-8.5 -8.5q-6 -6 -6 -9v-149q0 -17 14.5 -33
t25.5 -23l-102 -76q-14 3 -28 14t-24.5 25t-17 28t-6.5 24v410zM2418 673q3 -6 10.5 -13.5t18 -14t22 -11.5t22.5 -5q0 -12 -7.5 -22t-18 -17.5t-22.5 -11.5t-21 -4q-21 0 -41.5 13.5t-29.5 33.5q18 12 34.5 23.5t32.5 28.5zM2425 545q7 -3 15 -9.5t14.5 -14t11 -15.5
t4.5 -13v-273q0 -11 10 -21.5t18 -19.5l-57 -55q-11 2 -23 6.5t-21.5 11.5t-16 17.5t-6.5 25.5v275q0 11 -3 22t-11 19zM2527 414q0 32 -6 52t-32 38l65 55q18 -6 27.5 -14.5t15 -17t8 -15.5t7.5 -11q30 12 49 20.5t31.5 14.5t19 9.5t11.5 5.5q33 -18 46 -45.5t13 -63.5
v-210q0 -18 9.5 -29.5t19.5 -20.5l-56 -55q-15 0 -27.5 8.5t-21.5 21.5t-13.5 28.5t-4.5 28.5v233q0 10 -5 12.5t-7 2.5q-18 -6 -31.5 -10t-24.5 -13v-207q0 -16 10 -26t17 -21l-59 -58q-17 0 -28.5 11t-18.5 26t-10.5 31t-3.5 27v192zM2960 465q-9 -6 -22 -13.5t-13 -18.5
v-181q0 -11 12 -22t23 -13q3 0 9.5 3t12.5 7.5t11 9t5 6.5v182q0 5 -5 11t-11 11.5t-12.5 10t-9.5 7.5zM2807 88q0 11 5 29t13 27l85 -50q-2 -5 -2.5 -11.5t-0.5 -14.5q0 -20 16 -23.5t33 -3.5h15q16 0 30.5 3.5t19.5 12.5q3 2 3 8q0 12 -4.5 28.5t-9.5 32t-9 26.5t-3 12
l-79 -40q-27 15 -43.5 28t-26 26t-14 26.5t-7.5 30.5v196q0 8 1 13.5t8 15.5l155 108l105 -99v-263q6 -27 9 -48t3 -41q0 -30 -12 -54t-32.5 -40.5t-47 -25t-54.5 -8.5q-24 0 -51.5 4.5t-51 15.5t-38.5 30.5t-15 48.5zM3212 360q0 -21 1 -42t6.5 -40t18 -34t35.5 -24
q8 0 17.5 7.5t11.5 15.5v182q0 5 -6 12.5t-14 14.5t-16.5 12t-12.5 5q-11 0 -18.5 -13.5t-12.5 -32t-7.5 -36.5t-2.5 -27zM3302 653q0 11 4.5 23t12 22.5t18 17.5t22.5 7q19 0 37 -15.5t29 -31.5q-20 -20 -24.5 -35.5t-4.5 -38.5v-391l26 -34q-8 -10 -24.5 -26t-24.5 -27h-6
q-8 0 -16.5 4.5t-17 11.5t-15.5 14t-10 13l-67 -43h-9q-27 0 -48 23.5t-35 55.5t-21 65.5t-7 54.5q0 63 21 108.5t68 89.5q8 9 19 13.5t27 7.5q11 -3 23 -5.5t23 -9.5v126zM3591 206q18 12 28.5 32.5t16 41.5t6.5 39t1 24q0 18 -1.5 37t-8.5 37t-22 35t-41 31
q-28 -16 -46.5 -51.5t-18.5 -79.5q0 -17 2 -35t11 -37t26 -38t47 -36zM3427 319q0 39 11.5 78t34 72t54 57t72.5 33q37 -14 61.5 -37.5t39 -52.5t20 -63t5.5 -69q0 -24 -7 -52.5t-23 -57.5t-42.5 -55.5t-64.5 -47.5q-47 12 -78 30.5t-49.5 43.5t-26 55.5t-7.5 65.5z
M3905 460q-11 -2 -26 -14.5t-26 -20.5v-203q0 -14 10 -25t19 -18l-55 -55q-14 0 -26 7.5t-21.5 19t-15 25t-5.5 24.5v254q0 26 -15 47l55 44q25 -11 36.5 -26t17.5 -26q8 3 20 10t25 15.5t26.5 16t25.5 10.5q10 -3 19.5 -10.5t18 -16t15 -16.5t9.5 -12q25 15 48.5 29.5
t49.5 22.5q18 0 29.5 -8.5t19 -21t11.5 -27.5t7 -28v-235q0 -14 12 -24t21 -19l-56 -55q-20 0 -33 12t-21 29t-11 35.5t-3 31.5v207q-8 10 -19 18q-8 -8 -22.5 -16t-25.5 -16v-203q0 -14 9 -24t18 -19l-58 -55q-10 0 -21 8.5t-20 20.5t-15 24t-6 20v250q-6 8 -9.5 10.5
t-11.5 2.5z" />
    <glyph glyph-name="plusminus" unicode="&#xb1;" horiz-adv-x="3474" 
d="M1143 135q-4 2 -8.5 2.5t-6.5 2.5q-19 51 -25 54l-25 16q-49 29 -77.5 60.5t-28.5 50.5v2q6 44 145 75l1 14t4 40q6 32 18 54h9q24 -15 27 -77v-29h10t25 -2q49 0 82 -10.5t50 -29.5q15 -17 15 -32q0 -20 -16.5 -33t-34.5 -13q-13 0 -21 7l2 5q11 8 18 13.5t7 9.5v6
q-35 15 -67 20.5t-52 5.5q-19 0 -20 -3v-129q8 -5 28 -8.5t47 -3.5q30 0 63 5.5t61.5 18.5t47 35.5t18.5 56.5q0 21 -7 43q-12 35 -51 76t-96.5 76t-130 58.5t-151.5 23.5q-43 0 -88 -9l5 -2q12 0 20 -8v-8q-6 -6 -12 -6h-17q-17 0 -23 10v4q0 38 52 50q21 5 43 7.5t45 2.5
q55 0 111.5 -13t109 -35.5t98.5 -53t80.5 -65.5t54.5 -73t20 -75q0 -36 -20.5 -69.5t-68.5 -62.5q-60 -36 -133 -36h-19q-9 0 -19 2q-16 3 -31 6q-16 1 -24.5 2t-10.5 1q-3 -20 -12.5 -25t-20.5 -5zM1113 235l4 111h-22q-61 0 -103 -27v-1q0 -5 10 -16.5t26.5 -25
t38.5 -25.5t46 -16zM318 158h-6q-31 0 -55 15.5t-37 47.5q-26 -10 -51 -10q-42 0 -69 30t-27 92q0 20 3 44q10 63 33.5 108.5t50 75t51 43.5t38.5 15l4 -4l-2 -7q0 -1 -17 -21q-50 -57 -76.5 -114.5t-29.5 -120.5q-1 -8 -1 -16v-15q0 -83 44 -83q16 0 36 10q-5 31 -7.5 56.5
t-2.5 47.5q0 26 4.5 47t15.5 38q16 25 40.5 42t47.5 17q21 0 36.5 -18t17.5 -61v-6q0 -46 -22 -86t-70 -75v-1q0 -13 13.5 -23.5t35.5 -10.5q23 0 50.5 16.5t53.5 58.5q23 37 33 77t10 79q0 60 -18.5 111t-45.5 81l-21 24q-2 2 -2 3q0 3 6 3q10 0 36.5 -16t55.5 -60
q28 -43 38 -84t10 -78q0 -41 -8 -72.5t-15 -49.5q4 0 6 -2q9 5 14 7.5t7 7.5l16 27q20 41 67 96h8q12 -14 20.5 -40.5t14 -57t8 -62t2.5 -54.5q0 -37 -5 -40q-41 3 -41 52q0 3 0.5 6.5t0.5 7.5h-58q-21 -58 -29 -73q-8 -3 -14 -3q-13 0 -18 10t-5 24q0 19 6 34q7 15 7 28
t-11 16q-38 -66 -85.5 -98.5t-91.5 -35.5zM263 296q1 1 6 8.5t12.5 20t11.5 23.5q14 31 14 64q0 29 -10 53h-5q-10 -12 -17 -30.5t-11 -38.5t-6 -39.5t-2 -34.5q0 -22 3 -26h4zM605 308q8 0 8 4l-6 40h-6q-19 -34 -19 -42v-2h23zM2743 479h-78v-8q5 0 9.5 -1t9.5 -3
q5 0 8 -5q1 -2 1 -10q0 -6 -2 -15t-5 -24l-50 -165l-52 164q-5 14 -6.5 24t-1.5 16q0 7 4 13q6 6 17 6h6v8h-102v-8q10 0 12 -2q3 0 4.5 -1.5l4.5 -4.5q3 -1 3.5 -2t2.5 -3q7 -11 10 -21l5 -20l8 -25l-42 -144l-52 169q-5 15 -7.5 23.5t-2.5 11.5q0 8 6 13q6 6 15 6h6v8h-98
v-8q6 0 10.5 -1t8.5 -3q7 -3 10 -13q2 -2 12 -33l76 -250h8l60 192l59 -192h8l73 242q5 15 8 24.5t6 14.5q2 6 5 9l6 6q8 4 17 4v8zM2190 0q-21 2 -33.5 15.5t-12.5 31.5q0 6 1 9q9 33 15.5 66t17.5 65q11 27 11 32q0 1 -0.5 1.5l-0.5 0.5l-6 10q-6 13 -6 29q0 23 10.5 48
t24.5 46t27.5 34.5t19.5 13.5q1 0 3 -2q1 -2 1 -6q0 -16 -19 -54q-26 -52 -26 -61q1 -2 1 -10q20 29 42 52t47 42q24 16 27 16q2 0 2.5 0.5t2.5 0.5q15 0 32.5 -18t17.5 -50q0 -17 -7 -37q-7 -19 -21 -37t-32 -32.5t-38.5 -23t-40.5 -8.5q-8 0 -12 1q-31 -92 -31 -94l-6 -25
l-11 -54v-2zM2284 235q2 0 13.5 5.5t24 15.5t23 24.5t10.5 32.5v4q0 17 -6 20q-25 -20 -44 -47q-35 -46 -35 -53v-2h14zM1586 321q17 -20 56 -23l30 -2q62 -6 89 -23l2 -10q-23 -14 -51 -20t-51 -6q-15 0 -26.5 2t-16.5 7v10q9 11 20 11q3 0 7 -2l45 -17h23q13 0 27 14v11
q-42 20 -83 20q-26 0 -43.5 -8.5t-17.5 -27.5q0 -11 7 -24q11 -23 38 -34t57 -11q34 0 63 14t36 40q3 10 3 20q0 53 -105 67l-30 2l-29 7h-6v4q14 2 28.5 4t31.5 4l69 7.5l23 2.5q13 4 23 17v6q-21 21 -80 21q-9 0 -18.5 -0.5t-20.5 -1.5q-22 -2 -40 -9t-31.5 -15.5t-21 -17
t-7.5 -14.5v-25zM1503 417h-6q-5 6 -9 11.5t-4 8.5l-4 25l-12 23q0 2 -0.5 4.5t-0.5 4.5q0 21 14 39.5t34 32t42 21.5t38 8q10 0 16 -3l27 -15l25 -14q20 -10 20 -29q0 -16 -13.5 -34.5t-33 -34t-41 -26t-38.5 -10.5h-6q-16 3 -24.5 4.5l-8.5 1.5q-8 -16 -15 -18zM1551 467
q6 0 16 2.5t25 7.5q26 8 39 19.5t16 24.5q1 3 1 8q0 14 -15 14q-14 0 -35 -12t-41 -35q-14 -14 -14 -22q0 -6 8 -7zM1501 496q3 2 7 5t9 9q2 4 7.5 9.5l13.5 13.5l7 7v4h-1q-6 0 -13.5 -5t-14 -11.5t-11 -14.5t-4.5 -14v-3zM857 131q-2 0 -3 -0.5t-3 -0.5q-22 0 -36.5 22.5
t-14.5 51.5v6q0 4 1 7v14q2 23 4.5 40.5t5.5 30.5l11 33l-2 2v1q-62 24 -62 59q0 2 0.5 3.5t0.5 3.5q0 10 5 15.5t12 7.5q12 -42 71 -42q16 20 30.5 28t27.5 8q20 0 32 -15.5t12 -33.5q0 -17 -13.5 -32t-42.5 -15q-5 0 -9.5 0.5t-9.5 1.5v-8l-7 -31q-3 -16 -6 -96
q0 -22 -1 -36.5t-3 -24.5zM897 379q6 0 15.5 3.5t9.5 7.5v4q0 4 -5 4h-10l-10 -6v-4q0 -1 -5 -1v-6q0 -2 5 -2zM3242 171q-29 0 -50 27q-24 28 -24 73q0 44 25 81q25 36 62 36q11 0 21 -4t17 -15v39v28t-1 16q0 6 -4 10q-2 1 -3.5 2t-4.5 1t-6 -1t-7 -2l-2 7l52 25h9v-236
v-29q0 -11 2 -16q0 -7 4 -11q2 -2 8 -2q2 0 5 0.5t8 3.5l2 -8l-52 -25h-10v29q-5 -9 -12 -14.5t-13 -8.5q-11 -6 -26 -6zM3259 194q10 0 18 5.5t16 15.5v106q0 8 -1 14.5t-6 12.5q-3 12 -14 19q-11 6 -19 6q-19 0 -31 -17q-17 -25 -17 -68q0 -44 17 -69q18 -25 37 -25z
M1805 223q3 -36 26 -36q6 0 9 1q7 14 12 36.5t5 54.5q3 34 4 34q20 -43 37.5 -71.5t33.5 -41.5q3 -1 9 -1q23 0 37.5 24t14.5 62q0 23 -7 50t-21 53q-26 45 -40 45q-4 0 -8 -4q0 -2 -2 -2q2 -11 4.5 -26.5t8.5 -37.5q6 -23 10.5 -47t8.5 -49q-4 -4 -5 -4q-11 15 -18.5 27.5
t-14.5 22.5q-16 26 -30.5 43.5t-25.5 28.5q-12 -6 -20 -19.5t-13.5 -31.5t-8.5 -37t-4.5 -35t-1.5 -27v-12zM2051 238q0 2 -0.5 3.5t-0.5 3.5q0 11 9 22q18 10 27 10l31 2q5 0 12.5 2.5t15.5 6.5q2 6 2 9q0 9 -9 16q-15 2 -29.5 3t-28.5 1q0 10 10 25h59q25 0 35 16
q-2 10 -7 17.5t-12 12.5q-11 8 -40 8q-15 0 -31.5 -2t-32.5 -4.5t-29.5 -5.5l-22.5 -5q-1 -2 -1 -6q0 -22 35 -27v-4q-5 -32 -32 -38v-8v-6q4 -3 4 -11l-12 -29q-5 -10 -5 -24q0 -22 15 -38q15 -15 40 -15q22 0 48.5 12t51.5 36q1 3 1 7q0 21 -25 21q-7 0 -11 -1zM2813 171
q-39 0 -66 37q-19 31 -19 69q0 29 12 56q5 14 13.5 24t18.5 16q20 14 43 14q40 0 63 -35q21 -29 21 -69q0 -15 -3 -28.5t-8 -27.5q-12 -29 -31 -42q-20 -14 -44 -14zM2820 187q20 0 31 17q6 8 9 24t3 37q0 57 -20 87q-15 21 -36 21q-5 0 -10 -1.5t-9 -6.5q-12 -5 -18 -25
q-5 -18 -5 -44q0 -23 3 -42t12 -35q14 -32 40 -32zM715 262q-1 0 -1 6q0 8 3 27.5t11 50.5q8 27 11 45t3 26v4q-6 16 -13 16q-9 0 -20 -18t-20 -44.5t-15.5 -56t-6.5 -51.5v-8t1 -7q4 -29 17.5 -40.5t30.5 -11.5q14 0 29 6t27 16t20 21t8 22q0 9 -7 16h-2q-4 0 -17 -3
t-34 -11q-18 -6 -22 -6q-2 0 -3 1zM2978 387h-10l-51 -25l1 -8q8 4 14 4q4 0 8 -4q2 -3 5 -10v-42v-79v-23q-2 -3 -3 -5.5t-4 -4.5q-7 -5 -20 -5v-8h91v8q-6 0 -10.5 1t-8.5 2q-4 2 -8 10q-3 5 -3.5 11.5t-0.5 15.5v98q5 11 9 17.5t8 11.5q6 6 8 6q3 0 6 -2.5t6 -5.5
q9 -8 15 -8q8 0 13 6q2 3 3 6.5t1 8.5q0 9 -5 16q-8 8 -18 8q-23 0 -46 -47v47zM3118 494h-7l-54 -25l4 -7q5 1 7.5 2t5.5 1q2 0 4 -1l4 -2q0 -2 4 -10v-44v-185v-16t-2 -11q-3 -5 -8 -8q-2 -1 -6 -2t-9 -1v-8h86v8q-5 0 -10.5 1t-8.5 2q-2 2 -4 3.5t-4 6.5q0 3 -1 9t-1 16
v271zM1567 190l1 25q1 5 1 9v9q0 9 -0.5 17.5t-0.5 16.5v34q0 51 -5.5 75t-21.5 24h-3q-7 -10 -11 -28.5t-6.5 -40t-3 -43.5t-0.5 -39q0 -14 0.5 -22.5t0.5 -9.5q3 -19 12 -25.5t19 -6.5q5 0 10 1.5t8 3.5zM3385 475l1 1h1q8 0 8 -6t-10 -6v11zM3377 476q1 0 3 -2v-23
q-1 -1 -4 -1v-2h13v2q-4 0 -4 2v10h2l11 -14h6v2h-2q-1 1 -2 1l-1 2l-7 9q8 3 8 8q0 8 -10 8h-13v-2zM3390 485q8 0 15 -7t7 -15q0 -9 -6.5 -15.5t-15.5 -6.5t-15.5 6.5t-6.5 15.5q0 8 6.5 15t15.5 7zM3390 487q-10 0 -17 -7t-7 -17t7 -17t17 -7t17 7t7 17t-7.5 17t-16.5 7z
" />
    <glyph glyph-name="twosuperior" unicode="&#xb2;" horiz-adv-x="2589" 
d="M570 9h-531v691h534q42 0 73 -17q15 -8 29 -24t28 -36q8 -13 15.5 -28.5t12.5 -33.5q6 -18 8.5 -37.5t2.5 -40.5v-254q0 -23 -2.5 -42.5t-8.5 -36.5q-5 -15 -13 -32t-21 -34q-26 -42 -56 -58q-31 -17 -71 -17zM391 46q64 0 120 24t98 66t66 98.5t24 120.5t-24 120t-66 98
t-98 66t-120 24t-120.5 -24t-98.5 -66t-66 -98t-24 -120t24 -120.5t66 -98.5t98.5 -66t120.5 -24zM391 105q-52 0 -97.5 19.5t-79.5 53.5t-53.5 79.5t-19.5 97.5q0 51 19.5 96.5t53.5 79.5t79.5 53.5t97.5 19.5q51 0 96.5 -19.5t79.5 -53.5t53.5 -79.5t19.5 -96.5
q0 -52 -19.5 -97.5t-53.5 -79.5t-79.5 -53.5t-96.5 -19.5zM391 186q24 0 45.5 9.5t37 26t24.5 38.5t9 48q0 39 -19 67q7 -4 16 -5t17 -1q32 0 54.5 22.5t22.5 54.5t-22.5 54.5t-54.5 22.5t-55 -22.5t-23 -54.5q0 -9 2 -18t7 -16q-28 17 -61 17q-32 0 -61 -17q5 7 6.5 16
t1.5 18q0 32 -22.5 54.5t-55.5 22.5q-31 0 -53 -22.5t-22 -54.5t22 -54.5t53 -22.5q10 0 18.5 1t16.5 5q-10 -14 -15.5 -31t-5.5 -36q0 -26 9.5 -48t25 -38.5t37 -26t45.5 -9.5zM1173 359h71v78h8q21 0 21 -19v-3q0 -16 0.5 -25t1 -15t1.5 -9t3 -7h72q-4 8 -6 17.5t-2 35.5
q0 21 -2 27.5t-7 12.5q-10 14 -36 19q32 5 42 31q1 3 3 10.5t2 24.5v39h-72v-53v-7q0 -24 -26 -24h-3v146h-71v-279zM787 50v274h133q15 0 25 -8q6 -5 10.5 -12t6.5 -22q0 -2 1.5 -21.5t1.5 -68.5q0 -39 -0.5 -62.5t-2 -36.5t-4 -19t-5.5 -11q-5 -5 -13.5 -9t-22.5 -4h-130z
M877 110q14 0 14 12v127q0 13 -11 13h-20v-152h17zM1038 356q-23 0 -33 1.5t-12 1.5q-17 4 -25.5 14t-8.5 31v121v11q0 25 13.5 34t51.5 9h43q31 0 47.5 -8.5t16.5 -34.5v-105q0 -31 -2 -44.5t-15 -21.5l-5 -2.5t-10.5 -3t-21.5 -2.5t-39 -1zM1044 409q6 0 11 3.5t5 13.5v87
q0 5 -5 9.5t-11 4.5q-14 0 -14 -17v-84q0 -17 14 -17zM1657 356q-22 0 -32.5 1.5t-12.5 1.5q-16 4 -24 14t-10 31v121q0 16 2.5 26.5t9.5 16.5t20.5 8.5t34.5 2.5h43q23 0 32.5 -3t11.5 -5q8 -5 14 -13t6 -22v-105q0 -31 -2.5 -44.5t-16.5 -21.5q-2 -1 -4.5 -2.5t-10 -3
t-22 -2.5t-39.5 -1zM1665 409q14 0 14 17v87q0 5 -4 9.5t-10 4.5t-10.5 -4.5t-4.5 -12.5v-84q0 -17 15 -17zM1396 383l-27 -67h137q9 7 14.5 10.5t8.5 8t5.5 11.5t5.5 21v209h-70v-116q0 -8 -4.5 -12t-9.5 -4t-10 4t-5 12v116h-70v-107q0 -32 5 -51.5t18 -19.5h60q10 0 13 3
q2 2 2.5 12l0.5 10h12v-40h-86zM1704 68l-28 -68h138q9 7 14 11t8 8.5t5 12t5 21.5v209h-69v-116q0 -8 -5 -12t-10 -4q-6 0 -10.5 4t-4.5 12v116h-70v-107q0 -32 6 -51.5t18 -19.5h60q4 0 7.5 0.5t5.5 2.5t2.5 11.5l0.5 9.5h12v-40h-85zM2446 48q-11 0 -21 1t-17.5 6
t-12 14.5t-4.5 26.5v5v100l-1 15q0 16 5 27q5 10 13.5 15t29.5 5q22 0 33 -6t16 -17v84h67v-274h-67v20q-7 -22 -41 -22zM2474 99q5 0 9 4t4 13v76q0 7 -0.5 9l-0.5 2q-5 9 -12 9q-5 0 -11 -6q-2 -2 -2.5 -4t-0.5 -12v-74v-1q0 -16 14 -16zM2031 48q-25 0 -35 10t-10 35v17
v99q0 28 10 41t42 13q20 0 30 -6t15 -17v22h65v-212h-65v21q-5 -11 -16.5 -17t-35.5 -6zM2068 99q14 0 14 20v76q0 17 -14 17q-5 0 -9 -4.5t-4 -12.5v-74v-4q0 -11 4 -14.5t9 -3.5zM2190 50h67v148q0 16 14 16q5 0 9.5 -4t4.5 -12v-148h65v175q0 26 -13 32t-35 6
q-35 0 -45 -23v22h-67v-212zM1284 50h67v148q0 16 14 16q5 0 9.5 -4t4.5 -12l-2 -148h67v175q0 26 -13 32t-35 6q-35 0 -45 -23v22h-67v-212zM1537 50q-18 0 -33 3.5t-19 25.5q0 2 -0.5 5t-0.5 21v106q0 20 2 26.5t6 11.5q5 6 11.5 9.5t20.5 3.5h71q29 0 39.5 -10t10.5 -37
v-86h-94v-14q0 -14 13 -14h79l2 -51h-108zM1578 169v28q0 5 -4 9.5t-10 4.5q-5 0 -9 -4t-4 -12v-25zM830 359h78v217h37v64h-150v-64h35v-217zM1111 50h96q30 0 37 31q0 2 0.5 9.5t0.5 27.5q0 17 -0.5 26.5t-1.5 15t-2.5 8t-2.5 4.5q-5 7 -12.5 10.5t-20.5 3.5h-3h-25v25h59
v51h-77q-13 0 -24.5 -2.5t-19.5 -16.5q-1 -1 -2 -3t-2 -7.5t-1.5 -15.5t-0.5 -27v-17q0 -8 0.5 -16.5t4.5 -15.5t12.5 -11.5t24.5 -4.5h26v-24h-66v-51zM1879 50h66v274h-66v-274zM1001 50h66v212h-66v-212zM1001 280h66v44h-66v-44z" />
    <glyph glyph-name="threesuperior" unicode="&#xb3;" horiz-adv-x="2653" 
d="M395 224l49 -3h29l28 3l24 8l23 8l21 11l20 14l16 15l14 18l9 21l5 23l2 11v20l-5 23l-10 24l-15 24l-18 24l-35 39l-46 38l-36 24l-39 23l-62 32l-42 14l-66 17l-39 6l-14 1l-46 2l-47 2l-41 -5l-27 -5l-6 -5l-2 -1l3 -6h9l11 3l7 -3l1 -3v-4l-3 -7l-9 -3h-8l-17 1
l-12 5l-4 7v8l5 13l15 15l14 8l22 6l27 6l47 7l61 -2l20 -2l30 -2l28 -7l55 -14l60 -21l58 -25l27 -14l39 -24l42 -27l43 -45l40 -41l21 -30l14 -27l9 -26l3 -29v-18l-3 -26l-7 -25l-11 -20l-17 -20l-13 -13l-29 -21l-30 -18l-14 -9l-32 -11l-35 -8l-35 -2l-31 -2h-29l-14 2
l-31 5l-28 8l-2 -16l-3 -5l-8 -7l-11 -3h-7l-13 3l-6 4l-8 9l-1 8l-5 35l-29 15l-24 13l-13 9l-22 15l-43 38l-14 16l-6 16l-5 18v4l5 9l10 13l18 13l22 10l35 11h4l65 15l3 2v45l7 40l8 34l4 4l3 1h6l5 -4l12 -15l4 -15l5 -25v-50v-12l24 4h40l45 -7l30 -8l28 -13l21 -12
l10 -12l9 -17l1 -9l-5 -19l-8 -11l-7 -5l-27 -14h-8l-12 3l-7 5l-1 1l3 5l19 9l6 9l1 8l-1 4l-12 8l-26 10l-28 6l-26 1l-65 3v-154zM1483 225l-13 19l-6 15l-2 20v18l4 21l4 16l17 27l41 54l17 17l8 3l3 -1l1 -5v-12l-8 -20l-24 -36l-17 -25l-6 -19l-1 -18l2 -12l7 -12
l5 -3h3l5 6l19 40l20 29l26 31l25 19l8 6l18 12l16 5l8 -3l5 -2l10 -14l5 -18l5 -25v-16l-2 -11l-8 -32l-13 -27l-16 -23l-20 -19l-8 -6l-17 -8l-27 -11l-28 -8l-8 -24l-13 -52l-6 -57l-2 -43l-3 -17l-3 -4h-8l-11 3l-19 11l-8 10v36l5 38l8 55l14 60zM1983 277l-29 -4
l-31 -4l-14 -3l-5 -3l-4 -15l-2 -51l-3 -3l-2 -1h-12l-11 6l-9 8l-5 12l-2 17l2 36l-2 11l-6 8l-5 19v9l2 8h2l14 -5l6 -4l4 10l13 38l10 24l13 23l16 18l10 6l10 5l11 3l6 2h11l11 -3l14 -12l16 -16l15 -23l7 -17l12 -30l8 -35l4 -33v-27l-3 -19l-5 -16l-11 -11l-11 -9
l-17 -3l-9 1l-3 2l-3 5v47l-3 30zM922 440h55l43 -5l13 -3l8 -4l4 -7v-4l-6 -8l-11 -6l-15 -2l-131 -9l-22 -6l-8 -4l-1 -5l1 -4l11 -4l25 -3l84 -10l27 -9l14 -8l12 -9l8 -13l3 -19v-18l-1 -21l-4 -10l-7 -8l-12 -9l-16 -8l-23 -8l-26 -6l-26 -1l-23 3l-23 5l-21 8l-18 11
l-8 8l-12 15l-1 9l-2 10v7l3 12l8 10l13 8l12 4l23 4h22l35 -6l28 -9l15 -9l2 -2v-3l-6 -7l-16 -7l-25 -5h-14l-9 4l-29 13l-12 5h-11l-9 -3l-4 -7l-3 -8l1 -8l3 -3l11 -8l14 -2l16 -2h36l20 3l28 7l21 6l10 7l4 5l2 7l-2 7l-6 9l-17 11l-23 10l-24 2l-88 7l-19 5l-7 2l-8 9
l-5 10v14l3 16l11 15l12 9l14 9l16 3l29 5zM2397 238l25 -3h14l20 1l19 9l7 4l4 9v11l-4 23l-7 18l-10 17l-15 16l-26 23l-27 17l-25 12l-24 6l-19 1l-11 -1l-8 -8l-1 -3v-8l-4 -5h-3l-9 5l-3 7v8l2 8l12 10l11 5l18 6l15 2h17l32 -6l34 -9l22 -10l32 -18l17 -16l15 -18
l10 -18l7 -19l2 -17l-2 -18l-10 -24l-13 -22l-20 -17l-25 -16l-23 -7l-19 -4l-29 -3l-4 -12l-4 -3l-7 -4h-17l-9 3l-5 7l-8 23l-8 7l-17 12l-11 14l-3 8l-1 10l4 21l4 8l6 4l6 1l3 -1l4 -4l10 -11l2 -1l3 3l5 39l7 34l6 10l7 7l9 2h3l7 -6l3 -10l-2 -23v-83zM808 493l-7 -2
l-14 -3l-30 -1h-6l-14 1l-12 2l-13 -14l-10 -6l-7 1l-4 9l-2 15l2 16l-6 4l-6 17l-3 17l2 17l4 12l10 19l18 16l27 20l20 10l26 8l15 1l10 2l9 1l15 -4l17 -10l6 -13l7 -3l17 -1l9 -3l11 -10l7 -12v-13l-2 -9l-8 -17l-26 -27l-25 -20l-29 -18zM2109 386l10 16l7 4l11 3h10
l9 -5l12 -21l26 -44l21 -41l9 -13l4 -1l2 8l1 16v31l-4 38l-9 48v15l8 1h4l8 -4l12 -12l16 -30l8 -22l3 -24l4 -34v-12l-4 -37l-4 -20l-7 -16l-10 -13l-11 -8l-14 -4l-11 -4l-8 6l-13 13l-10 15l-21 43l-12 27l-11 19l-3 4l-6 -4l-5 -37l-17 -62l-5 -18l-6 -7l-6 -1l-10 2
l-7 6l-3 6v22l4 34l19 92zM1416 431l11 1l15 -1l9 -5l11 -10l8 -13v-7l-6 -6l-18 -7l-16 -2h-58l-7 -3l-15 -24v-1l5 -6l20 -1l49 -2l4 -2l2 -9l-2 -11l-3 -8l-22 -4l-57 -3l-7 -2l-6 -2l-11 -34l-1 -10v-1l6 -2l31 3l42 10h12l10 -1l8 -5l7 -8l2 -4l-2 -7l-6 -8l-28 -16
l-25 -11l-40 -13l-17 -3h-9l-10 1l-12 6l-13 13l-9 16l-1 15l1 24l15 35v4l-3 21l2 9l3 5l14 1l4 4l9 25l4 11v3l-9 3l-14 4l-8 4l-5 15v4l5 4l17 1l20 1zM1075 396l6 12l6 9l7 4h3l10 -4l18 -14l13 -27l46 -71l11 -17l5 -1l1 1l4 11l-4 35l-5 43l-4 20l-19 55l-1 10l3 8
l4 1l6 -1l13 -10l17 -19l16 -28l12 -24l5 -31l4 -31v-22l-4 -21l-5 -19l-11 -20l-11 -15l-6 -5l-7 -4h-16l-10 8l-16 15l-12 15l-18 38l-7 21l-16 25l-4 3l-3 -3l-4 -20l-4 -91l-3 -13l-5 -7l-7 -3h-8l-12 4l-4 8l-1 27l1 27l11 94zM1739 450q4 0 10 -4.5t11 -11.5
q7 -7 11.5 -18.5t5.5 -25.5q0 -16 -4.5 -39.5t-9.5 -42.5q-4 -17 -10 -34t-6 -25q0 -6 2.5 -7.5t7.5 -1.5h9q5 0 13.5 2t17 4.5t16.5 4.5t12 2q8 -2 10.5 -6t2.5 -11q0 -5 -3.5 -13.5t-12.5 -16.5q-8 -7 -21.5 -14.5t-25.5 -9.5h-9q-13 0 -26.5 2.5t-22.5 6.5q-17 8 -22 28
q-2 5 -3.5 10t-1.5 11q0 10 4 23q1 8 4.5 19.5t7.5 23.5t8.5 24t7.5 21q14 38 15 62v5q0 8 -1 14t-1 11q0 4 2 6zM208 287q14 -9 30.5 -16t36.5 -15v127l-30 -1q-21 -1 -37 -3q-8 -1 -15 -1.5t-12 -1.5q-14 -3 -23.5 -5.5t-14.5 -7.5q-4 -4 -4 -9q0 -8 8 -17q5 -8 18 -20
t28 -22q5 -2 7.5 -4t7.5 -4zM738 422q1 17 11 17q4 0 8 -4q5 -3 9.5 -9t6.5 -31q2 -24 3 -58.5t2 -83.5q0 -11 -1 -20.5t-4 -15.5q-5 -9 -17 -9q-2 0 -3 0.5t-2 0.5q-5 1 -13 4.5t-8 15.5q-3 31 -3 60v20q0 10 1 21q2 25 3.5 47.5t6.5 44.5zM2136 126l14 -4l9 -7l6 -6v-11
l-1 -9l-11 -7l-3 -4l9 -11l19 -31h-34l-14 26l-8 8h-1l-7 2h-6v-36h-30v90h58zM1917 127l52 -93h-32l-11 19h-49l-9 -19h-30l46 93h33zM808 525q14 5 28.5 12.5t22.5 15.5q15 14 15 30v5q-2 6 -9.5 11t-18.5 5h-3q-16 -1 -35 -16q-5 -2 -9.5 -6t-8.5 -8l-3 -2
q-16 -14 -30 -30q-3 -3 -7 -8l-8 -10l-1 -1q0 -1 3 -2.5l3 -1.5q4 -1 10 -1q4 -1 12 -1q20 0 35 7zM1702 126q24 -1 35 -7q12 -8 12 -21q0 -12 -13 -20q-7 -4 -15 -5t-19 -1h-14v-36h-28v90h42zM1621 335l-8 -6l-23 -38l-14 -23l-6 -12l3 -3l7 -2l10 4l20 5l11 9l3 3l23 25
l12 17l9 23l3 16l-3 5l-5 9l-5 3l-6 -1l-13 -11zM1992 318l-13 52q-2 6 -7.5 17t-14.5 15h-3q-10 -1 -16.5 -10t-8.5 -16q-6 -13 -10 -27t-4 -28v-7q8 -2 15 -2q5 0 11 0.5t13 1.5zM2531 102l-17 7l-19 2l-10 -2l-4 -6v-2l5 -6l34 -12l11 -7l6 -9l-1 -11l-2 -6l-5 -5l-8 -6
l-15 -3l-9 -2l-22 2l-16 3l-7 3v17l26 -9h19l8 3l3 6l-3 4l-10 6l-29 9l-8 5l-6 8l-3 5v5l1 7l2 4l10 9l7 2l17 4h12l26 -4l7 -2v-19zM2329 126v-90h-27v90h27zM757 607l-18 -9l-22 -20l-14 -15l-1 -6v-12l3 -5h1l11 10l5 8l23 27l12 8l16 11l1 5l-4 2zM1688 88h14q4 1 6 1
t5 2q4 3 4 7q0 3 -1 4.5t-3 5.5q-4 1 -11 1h-14v-21zM2108 88h13q10 2 11 3q4 2 4 8q0 2 -0.5 3.5t-5.5 5.5q-2 1 -9 1h-13v-21zM1900 102q-1 -3 -4.5 -11t-6.5 -14t-3 -7h31l-16 33zM2569 208h3q7 0 7 4t-7 4h-3v-8zM2564 193v27h8q11 0 11 -8t-7 -8l1 -1h1l3 -6l4 -4h-5
l-3 3q-3 4 -3 7h-3h-2v-10h-5zM2574 226q-8 0 -13.5 -6t-5.5 -14q0 -19 19 -19q7 0 13 5.5t6 13.5t-6 14t-13 6zM2574 230q9 0 16 -6.5t7 -17.5t-7 -17t-16 -6q-23 0 -23 23q0 11 7 17.5t16 6.5z" />
    <glyph glyph-name="acute" unicode="&#xb4;" horiz-adv-x="237" 
d="M26 577q44 36 65 53q39 30 42 33q31 22 52 22q12 0 22 -6t10 -15q0 -11 -35 -30q-25 -12 -51 -24q-23 -10 -68 -33h-37v0z" />
    <glyph glyph-name="mu" unicode="&#xb5;" horiz-adv-x="417" 
d="M116 139q0 -17 1.5 -28t3.5 -19q6 -19 21 -19q16 0 22 17q3 7 3.5 19t0.5 26v432q0 14 -2 23t-4 16q-3 5 -7.5 11t-12.5 14q15 14 23.5 23t13.5 16q6 10 12.5 24.5t14.5 35.5q12 -42 25 -60q10 -14 37 -36q-15 -12 -17 -24q-3 -5 -3.5 -15.5t-0.5 -23.5v-432
q0 -17 0.5 -28t3.5 -19q5 -19 21 -19q9 0 14 4.5t9 12.5q3 12 3 43v503q0 21 -4 36q-2 3 -5 9.5t-9 18.5q32 10 56 42q14 18 23 29.5t14 16.5q20 17 43 21q-11 -20 -18.5 -39t-11.5 -37q-2 -15 -4.5 -37.5t-2.5 -52.5v-548q0 -22 -2.5 -42.5t-10.5 -52.5h-121l-33 44
l-34 -44h-131q-8 30 -9.5 49t-1.5 37v535q0 31 -6 46q-1 13 -17 33h122q-13 -20 -16 -32t-3 -41v-488v0z" />
    <glyph glyph-name="paragraph" unicode="&#xb6;" horiz-adv-x="398" 
d="M374 87q0 -37 6 -50q2 -8 7 -16.5t13 -20.5h-169l-34 45l-33 -45h-164q11 13 17 22.5t8 17.5q2 4 4 19q1 7 1 16v20v527q0 32 -5 45q-2 5 -5.5 14t-11.5 19h122q-7 -10 -10.5 -18.5t-5.5 -13.5q-2 -6 -3 -16.5t-1 -24.5v-513q0 -15 2 -23q3 -10 11 -14q4 -3 14 -3
q17 0 23 17q3 7 3 21v482q0 6 -1 11.5t-2 7.5q-2 7 -6.5 11.5t-12.5 9.5q14 11 23.5 19.5t14.5 16.5q7 9 12.5 24t11.5 36q4 -11 7.5 -19.5t7.5 -16.5q6 -14 12 -24q2 -4 5.5 -8t8.5 -9q4 -4 10 -9t13 -13q-4 -3 -6.5 -6t-5.5 -6q-7 -7 -9 -13.5t-4 -15.5q-1 -5 -1 -10v-13
v-459q0 -9 4 -17q6 -17 22 -17t22 18q4 10 4 20v515q0 14 -1 24.5t-3 16.5q-2 12 -14 32h121q-8 -10 -11.5 -18.5t-5.5 -13.5q-5 -13 -5 -46v-535z" />
    <glyph glyph-name="periodcentered" unicode="&#xb7;" horiz-adv-x="432" 
d="M120 139q0 -17 1.5 -28t3.5 -19q6 -19 21 -19q16 0 22 17q3 7 3.5 19t0.5 26v432q0 14 -2 23t-4 16q-3 5 -7.5 11t-12.5 14q15 14 23.5 23t13.5 16q6 10 12.5 24.5t14.5 35.5q12 -42 25 -60q10 -14 37 -36q-15 -12 -17 -24q-3 -5 -3.5 -15.5t-0.5 -23.5v-432
q0 -17 0.5 -28t3.5 -19q5 -19 21 -19q9 0 14 4.5t9 12.5q3 12 3 43v503q0 21 -4 36q-2 3 -5 9.5t-9 18.5q32 10 56 42q14 18 23 29.5t14 16.5q20 17 43 21q-11 -20 -18.5 -39t-11.5 -37q-2 -15 -4.5 -37.5t-2.5 -52.5v-548q0 -22 1 -36.5t4 -19.5q4 -14 25 -39h-164l-33 44
l-34 -44h-169q17 22 21 36q6 15 6 50v535q0 31 -6 46q-1 13 -17 33h122q-13 -20 -16 -32t-3 -41v-488v0z" />
    <glyph glyph-name="periodcentered" unicode="&#x2219;" horiz-adv-x="432" 
d="M120 139q0 -17 1.5 -28t3.5 -19q6 -19 21 -19q16 0 22 17q3 7 3.5 19t0.5 26v432q0 14 -2 23t-4 16q-3 5 -7.5 11t-12.5 14q15 14 23.5 23t13.5 16q6 10 12.5 24.5t14.5 35.5q12 -42 25 -60q10 -14 37 -36q-15 -12 -17 -24q-3 -5 -3.5 -15.5t-0.5 -23.5v-432
q0 -17 0.5 -28t3.5 -19q5 -19 21 -19q9 0 14 4.5t9 12.5q3 12 3 43v503q0 21 -4 36q-2 3 -5 9.5t-9 18.5q32 10 56 42q14 18 23 29.5t14 16.5q20 17 43 21q-11 -20 -18.5 -39t-11.5 -37q-2 -15 -4.5 -37.5t-2.5 -52.5v-548q0 -22 1 -36.5t4 -19.5q4 -14 25 -39h-164l-33 44
l-34 -44h-169q17 22 21 36q6 15 6 50v535q0 31 -6 46q-1 13 -17 33h122q-13 -20 -16 -32t-3 -41v-488v0z" />
    <glyph glyph-name="cedilla" unicode="&#xb8;" horiz-adv-x="465" 
d="M292 700q-5 -8 -9 -20.5t-4 -32.5v-13q0 -6 2 -14l36 -378l33 378q2 9 2 17v13q0 34 -12 50h114q-22 -18 -31 -100l-53 -502q-2 -15 -2 -26v-17q0 -31 18 -55h-144q18 24 18 53q0 7 -1 17t-3 24l-25 255l-27 -251q-1 -5 -1 -20v-23q0 -32 16 -55h-143q18 22 18 53
q0 7 -1 17.5t-3 23.5l-50 506q-8 80 -28 100h114q-12 -16 -12 -52v-14q0 -6 1 -14l36 -378l34 378v27q0 34 -11 53h118v0z" />
    <glyph glyph-name="onesuperior" unicode="&#xb9;" horiz-adv-x="139" 
d="M24 9q3 6 6 11t4 10q3 13 3 43v383q0 52 -3 66q-1 12 -8.5 22.5t-15.5 24.5h99v-498q0 -13 0.5 -23.5t2.5 -17.5q2 -5 4.5 -10t7.5 -11l7 -9h-113z" />
    <glyph glyph-name="ordmasculine" unicode="&#xba;" horiz-adv-x="206" 
d="M43 621q0 11 4 19t9 16q15 22 50 22q18 0 30.5 -6t19.5 -16q4 -7 6.5 -14t3.5 -15q1 -5 1 -13v-19v-6q0 -11 -0.5 -20t-0.5 -14q-3 -13 -10 -28q-14 -21 -50 -21q-35 0 -50 21q-5 8 -8.5 16.5t-3.5 17.5q-1 8 -1 17v24v19zM140 621q0 30 -35 30t-35 -30v-56q0 -32 35 -32
t35 32v56z" />
    <glyph glyph-name="guillemotright" unicode="&#xbb;" horiz-adv-x="1026" 
d="M500 566q4 3 7 9t1 11q-2 10 -7.5 13t-11.5 5q-20 5 -45.5 -4t-54.5 -29q35 -13 66 -14t45 9zM678 263q-5 -20 -7 -31.5t0 -18.5t7 -11t14 -10l-4 -20h-109l39 157q6 22 11 43t-6 33q-3 4 -10.5 8.5t-20 5.5t-30.5 -3.5t-43 -17.5l-15 -44q34 -24 47.5 -60t10.5 -68
q-2 -30 -10.5 -53t-21.5 -40.5t-28.5 -30t-31.5 -20.5q-23 -12 -51.5 -18t-59.5 -6t-62.5 7.5t-59.5 22.5q-93 46 -105 146q-5 37 -1.5 74.5t18 74t42 72t70.5 70.5l18 17l-41 18q-14 7 -34.5 14.5t-42.5 12t-43.5 4t-38.5 -10.5q-11 -8 -18 -21.5t-7 -28.5q0 -9 4.5 -18
t15.5 -15q4 -3 9.5 -5t10.5 2q6 6 10 11.5t8 11.5q6 6 10.5 9.5t9.5 5.5q8 2 15.5 1t15.5 -8q10 -10 9 -27q-2 -11 -10.5 -20.5t-21.5 -14.5q-18 -8 -42.5 -5.5t-42.5 15.5q-15 12 -21.5 28.5t-5.5 30.5q2 24 16 48t40 41q42 22 92 20.5t98 -22.5l19 -10.5t47 -21.5
q13 7 28.5 13.5t30.5 12t28 9.5t21 6q11 3 24 4t25.5 -1t23 -7.5t16.5 -16.5q5 -6 5.5 -15.5t-5.5 -19.5q-12 -19 -36 -30.5t-53.5 -16.5t-61.5 -5q-31 0 -59 5q-37 -35 -58.5 -78.5t-31.5 -87.5t-10 -86q0 -41 6 -72q12 -68 83 -97q15 -6 35 -9t40 -2t40 6.5t35 15.5
q36 25 49 59.5t15 70.5q0 2 -1 11t-4.5 20t-10.5 23.5t-20 22.5l-27 -93q-2 -13 1 -21.5t28 -13.5l-7 -22h-145l6 22q13 3 20.5 5.5t11.5 6t5.5 8.5t3.5 12l36 115q-18 2 -33 -4t-22 -19q-8 -14 -4 -26t5 -27q2 -16 -14 -26q-8 -5 -17 -4t-16 4q-23 11 -23 37
q-1 14 8.5 35.5t26.5 33.5q11 9 33.5 19t63.5 9q11 43 24 70t21 38q21 37 50.5 63.5t63.5 43.5t71 26t75 10q8 1 22 0.5t29.5 -3.5t29.5 -9.5t22 -17.5q9 -14 5 -28q-9 -17 -27 -22q-13 -2 -27.5 4.5t-28.5 19.5q-21 17 -37.5 21t-34.5 1q-23 -3 -48.5 -18.5t-48.5 -38
t-42 -50t-29 -56.5q18 9 39 16t42 8.5t39.5 -2t32.5 -15.5q38 -31 15 -113zM954 263q-13 -32 -36 -53t-50 -30.5t-55 -7.5t-50.5 14.5t-36.5 35t-14 55.5q0 14 3 32.5t11.5 38t23.5 39.5t38 37q15 10 33 16.5t37 8t36.5 -1t30.5 -9.5q24 -11 40 -37t16 -71h-188
q-12 -29 -13 -55.5t7 -40.5q9 -18 28.5 -25.5t41 -3.5t42 20.5t32.5 47.5zM903 370q4 18 -1 26t-10 13q-16 10 -38 3q-8 -2 -19.5 -11.5t-23.5 -30.5h92z" />
    <glyph glyph-name="onequarter" unicode="&#xbc;" horiz-adv-x="1693" 
d="M957 0q-5 17 -12 37t-22 34q3 3 7.5 5.5t5.5 4.5q2 6 2 20v291v14t-2 8q-2 10 -9 10q-8 0 -10 -9q-1 -3 -1.5 -7.5t-0.5 -12.5v-240q0 -5 0.5 -8.5t1.5 -7.5l2 -6t4 -8q-13 -6 -25 -21l-18 -21q-6 -8 -20 -11q6 10 9 19t5 18q4 13 4 43v262q0 21 -2 26q-2 3 -4.5 7.5
t-7.5 10.5h74l16 -21l15 21h77q-3 -5 -5.5 -9t-3.5 -8q-2 -3 -2 -9v-14v-257q0 -11 2 -21q0 -3 2 -7l5 -8h-55l8 15q1 3 1 8v11v233q0 17 -3 22q-2 10 -9 10t-10 -10q-2 -2 -2 -8v-13v-291q0 -6 0.5 -10.5t1.5 -8.5q1 -3 6 -5.5t9 -6.5q-15 -16 -21.5 -35t-12.5 -36zM2 128
q5 6 6 11t1 9v12v269v13t-1 10q-1 3 -3 6t-5 8h50q-5 -13 -5 -25v-121l25 13v110q0 15 -5 23h51q-2 -5 -4.5 -9t-3.5 -6q-1 -5 -1 -22v-269q0 -15 1 -20l2 -6t4 -6l2 -5h-51l3 5q2 8 2 21v140l-25 -11v-130q0 -14 4 -21l2 -4h-51zM288 125q-23 0 -32 17q-6 10 -6 56v153
q0 13 -0.5 20.5t-0.5 11.5q-1 5 -4 10.5t-8 13.5h49v-223q0 -25 9 -25h12v210v12q0 6 -1 8q-2 10 -7 18h43v-265q1 -3 1.5 -6.5t2.5 -6.5l3 -4h-61zM419 125q5 7 8 19v213q0 8 -1.5 13t-5.5 5h-13v-218v-16q0 -6 2 -10l3 -6h-51l3 4q1 4 3 6.5t2 4.5q1 5 1 21v190
q0 27 -1 32q-2 10 -12 23h61q27 0 36 -18q3 -5 4.5 -10t2 -14t1 -24t0.5 -39v-156q0 -7 1 -10t2.5 -4.5t3 -2t1.5 -3.5h-51zM1633 126q2 4 4.5 8t2.5 11q1 2 1 8v14v187q0 12 -7 16h-13v-212q0 -17 3 -26l3 -6h-51l3 6q5 5 5 9q2 10 2 20v187q0 22 -2 30q0 5 -3 10.5
t-8 11.5h58q26 0 37 -17q6 -9 6 -28v-210q0 -12 4 -13t4 -6h-49zM1230 126q5 7 8 19q1 4 1 22v185q0 15 -7 17q-2 1 -14 1v-212q0 -9 1 -15t3 -11l1 -6h-50l4 5q5 4 5 10q2 8 2 20v185q0 25 -2 31q-2 11 -12 23h59q27 0 36 -17q5 -10 7 -28v-210q0 -13 4 -13.5t4 -5.5h-50z
M718 125q-12 0 -19 0.5t-11 1.5q-11 6 -14 21q-3 8 -3.5 22t-0.5 34v139v25t2 15q3 18 24 23q4 0 8.5 0.5t10.5 0.5h6v6q0 10 -1 18t-2 15q-3 6 -5.5 12.5t-7.5 13.5q3 -2 6.5 -2.5t7.5 -4.5q4 -2 7 -5t7 -6l17 -11q2 -2 18 -5q-10 -9 -12 -22q-1 -5 -2 -12t-1 -17v-220
q0 -22 2 -25q0 -7 6 -13l3 -4h-46zM160 125q-5 1 -8 1t-5 1q-7 3 -9 14q-3 10 -3 38v48q0 19 3 25q0 11 8 19l6 6t12 10q13 12 15 12q6 9 8 25v19q0 9 -0.5 14t-0.5 7q-2 11 -9 11q-9 0 -9 -17v-42q-10 -4 -17.5 -11.5t-15.5 -17.5v59v17t1 12q2 8 4.5 12.5t5.5 9.5
q11 14 31 14q21 0 32 -14q3 -5 5 -9t4 -10q1 -5 1 -14v-14v-186q0 -9 1 -14.5t1 -8.5q1 -2 1.5 -5.5t2.5 -6.5l4 -4h-53h-16zM1102 126q-13 0 -15 1q-11 0 -13 1q-9 5 -10 14q-1 5 -1 14v23v45q0 22 1 26q1 7 10 18q1 3 16 16q15 10 15 13q5 3 6.5 9t1.5 13v39q-1 10 -8 10
q-11 0 -11 -16v-41q-19 -8 -32 -29v59q0 10 0.5 16.5t0.5 11.5q1 7 4 12.5t6 10.5q11 10 30 10q22 0 31 -12q8 -8 11 -19q1 -5 1 -12v-14v-181q0 -19 1 -23l5 -10l4 -5h-54zM600 119q-26 0 -34 16q-7 9 -10 26q-1 5 -1 12v19v146v18t1 13q4 16 10 25q9 17 34 17q26 0 35 -17
q5 -6 6.5 -17.5t1.5 -26.5v-59q-27 0 -53 -26v-97q0 -15 9 -15q10 0 10 15v82q13 15 34 15v-87q0 -31 -8 -43q-10 -16 -35 -16zM1519 121q-25 0 -35 15q-4 5 -5.5 11t-3.5 12v2q-1 5 -1 12v18v142v17q0 8 1 13q2 8 3.5 13.5t5.5 11.5q8 15 35 15q25 0 34 -15q4 -7 6 -20
q1 -5 1 -11v-14v-161q0 -19 -1 -24q-1 -7 -2.5 -11t-3.5 -9q-11 -17 -34 -17zM1338 121q-20 0 -32 12q-13 18 -13 58v66l35 -27v-60q0 -16 9 -16q8 0 8 16v71q-2 0 -4 6q-3 2 -6.5 5t-6.5 7l-19 17q-4 5 -6.5 8.5t-4.5 8.5q-5 10 -5 30v10q0 41 13 57q6 8 13.5 10.5
t18.5 2.5q16 0 29 -10q5 -4 7.5 -9t4.5 -11q1 -6 1 -13v-18v-43q-14 15 -35 20v36q0 15 -8 15q-9 0 -9 -15v-33q0 -15 4 -22q2 -1 12 -11l5 -4q10 -8 16 -13.5t8 -9.5q7 -16 7 -48v-41q0 -27 -11 -40q-11 -12 -31 -12zM509 125q-14 0 -14 32v199q0 21 -3 32q-3 10 -14 19
q16 8 29 24t21 41v-56q0 -9 7 -9h6q-3 -5 -5.5 -8t-3.5 -6q-3 -8 -3 -22v-199q0 -24 1 -28q2 -5 7 -15l4 -4h-32zM1404 131q2 2 4 9q1 4 1 20v185q0 28 -1 32q-1 6 -10 20l-2 2h48v-240q0 -11 2 -19q1 -5 5 -9l4 -5h-55zM1413 429l-18 9q7 0 12.5 6t9.5 14.5t5.5 17
t1.5 14.5q0 -6 1.5 -14.5t4.5 -17t8 -14.5t12 -6l-17 -9l-10 -15zM1516 154q9 0 9 14v187q0 15 -9 15t-9 -15v-187q0 -14 9 -14zM187 259q-5 -4 -7.5 -6.5l-3.5 -3.5q-8 -8 -8 -15v-69q4 -6 19 -6v100zM1114 256q-5 -5 -7.5 -6t-4.5 -3q-7 -7 -7 -14v-54q0 -5 0.5 -8.5
t0.5 -4.5q1 -6 18 -6v96zM610 317v44q0 15 -10 15q-9 0 -9 -15v-54zM720 370q-13 0 -13 -5q-2 -1 -2 -23v-152q0 -23 2 -25q1 -4 13 -4v209zM856 651q6 4 4 7q-1 5 -8 7q-13 1 -34 -12q11 -5 22 -5.5t16 3.5zM918 545q-3 -14 -2 -17t7 -7l-2 -8h-37l14 56q2 8 3.5 14.5
t-1.5 11.5q-3 3 -11.5 5t-25.5 -7l-5 -15q12 -9 17 -21.5t4 -24.5q-2 -20 -12 -32t-21 -18q-17 -8 -39 -7.5t-42 9.5q-31 16 -37 51q-3 26 6.5 51.5t38.5 49.5l7 6l-15 7q-5 2 -12 5t-14.5 4.5t-15.5 1.5q-7 0 -13 -4q-9 -7 -9 -18q0 -2 1.5 -5.5t5.5 -5.5q5 -3 8 -1
q2 2 2.5 4t2.5 5q2 1 3.5 2t3.5 2q8 0 11 -3q4 -2 3 -9q-2 -9 -10 -11q-7 -3 -15.5 -2.5t-15.5 4.5q-5 5 -7 10.5t-2 10.5q2 19 20 31q14 8 31 7.5t34 -8.5l7.5 -3t16.5 -8q8 6 20 9.5t18 4.5q7 2 16.5 1.5t13.5 -7.5q2 -2 2 -6t-2 -7q-8 -13 -30.5 -16t-43.5 -1
q-12 -12 -19.5 -27t-11 -30t-3.5 -30q0 -14 3 -25q2 -12 8.5 -20.5t20.5 -13.5q11 -5 26 -4t26 8q12 8 16.5 20.5t5.5 25.5q0 1 -2 10t-11 16l-8 -33q-2 -4 -1 -6.5t10 -4.5l-3 -9h-50l2 9q10 2 11.5 3.5t3.5 6.5l12 41q-6 0 -11.5 -2t-7.5 -7q-2 -4 -1 -8.5t1 -9.5t-4 -9
q-5 -2 -13 0q-5 4 -7 12q0 6 3.5 13.5t8.5 11.5q4 4 11.5 7t21.5 2q11 31 16 38q15 26 39.5 37.5t50.5 12.5q6 0 18.5 -1t18.5 -9q2 -7 1 -10q-2 -6 -9 -8q-8 -1 -20 9q-8 6 -13 7t-11 0q-17 -2 -34.5 -19.5t-24.5 -37.5q13 7 28 9t25 -6q14 -10 6 -40zM1014 545
q-7 -17 -21 -24.5t-28 -6.5t-24.5 10t-10.5 26q0 10 5.5 25t21.5 26q10 8 23.5 9.5t24.5 -3.5q8 -5 13.5 -14t5.5 -24h-67q-3 -10 -3 -20q0 -9 2 -14q7 -11 24.5 -9t25.5 23zM996 582q2 7 0 10t-4 5q-4 3 -13 1q-2 -1 -6 -4.5t-9 -11.5h32z" />
    <glyph glyph-name="onehalf" unicode="&#xbd;" horiz-adv-x="1418" 
d="M709 700q90 0 176.5 -11.5t163.5 -33t142 -52.5t111.5 -70t73 -85.5t26.5 -98.5t-26.5 -98t-73 -85t-111.5 -69.5t-142 -52t-163.5 -33t-176.5 -11.5t-176 11.5t-163 33t-141.5 52t-111.5 69.5t-73.5 85t-26.5 98t26.5 98.5t73.5 85.5t111.5 70t141.5 52.5t163 33
t176 11.5zM709 683q-136 0 -258.5 -25t-215.5 -69.5t-147.5 -106t-54.5 -133.5t54.5 -133t147.5 -106t215.5 -70t258.5 -25q91 0 176.5 11.5t161 32.5t137.5 51t107 67t70 80.5t25 91.5t-25 91.5t-70 80.5t-107 67t-137.5 51t-161 32.5t-176.5 11.5zM710 669
q137 0 257.5 -25.5t210.5 -69t142 -101.5t52 -124t-52 -124.5t-142 -102t-210.5 -68.5t-257.5 -25t-257.5 25t-210.5 68.5t-142 102t-52 124.5t52 124t142 101.5t210.5 69t257.5 25.5zM533 49q4 9 7.5 20t11.5 20q-2 2 -4.5 3t-3.5 3q-1 3 -1 11v163q0 5 0.5 7t0.5 4
q1 6 5 6t6 -6q1 -2 1 -12v-130q0 -9 -1 -11q0 -2 -1 -3l-3 -5h31l-5 8q-1 3 -1 13v142q0 10 1 13q1 4 6 10h-42l-10 -12l-8 12h-42q6 -7 7 -11q1 -2 1 -14v-146v-14t-2 -11q-1 -4 -2.5 -9t-5.5 -10q9 2 12 5q1 1 9 13q6 8 14 11q-3 6 -4 7l-1 10v134q0 4 0.5 6.5t0.5 4.5
q2 5 6 5t6 -6q1 -2 1 -12v-162q0 -10 -1 -12q0 -2 -3 -2.5t-5 -2.5q8 -8 12.5 -19.5t6.5 -20.5zM524 337l-1 3q-2 2 -2 11v72l13 7v-78q0 -10 -1 -12l-2 -3h29l-1 3q-2 2 -4 6v174q1 2 5 8h-29q3 -5 3 -13v-61l-13 -7v67q0 8 3 14h-29q4 -6 4 -8q1 -2 1 -5t1 -7v-150
q0 -5 -2 -13q0 -2 -3 -5l-1 -3h29zM690 337l-1 3q-3 3 -3 7v147h-25q3 -3 5 -9v-129h-6q-6 0 -6 14v124h-27q6 -8 7 -13q0 -2 0.5 -6t0.5 -12v-86q0 -24 3 -30q6 -10 18 -10h34zM714 119q0 4 -2 4t-2 7v116q-1 6 -1 9q0 4 -2 7q-6 10 -20 10h-33q5 -8 6 -13q0 -1 0.5 -5.5
t0.5 -11.5v-103q0 -4 -0.5 -7t-0.5 -5q-1 -2 -1 -3l-2 -2l-1 -3h27l-1 4q-2 2 -2 14v119q7 0 8 -1q4 -2 4 -10v-103q0 -11 -1 -13q0 -4 -4 -10h27zM939 119q0 3 -2.5 3.5t-2.5 6.5v117q0 8 -4 16q-6 10 -20 10h-33q7 -9 7 -13q1 -2 1 -17v-103q0 -9 -1 -12q0 -2 -3 -5l-2 -3
h29l-2 3q-2 6 -2 15v119q6 0 7 -1q4 -1 4 -10v-116q-2 -8 -5 -10h29zM759 337q0 3 -2.5 3.5t-2.5 7.5v120q-1 9 -4 16q-5 9 -21 9h-34q5 -5 7 -12q1 -3 1 -18v-106q0 -9 -1 -12q0 -1 -1 -2t-2 -3l-2 -3h28v3q-2 6 -2 15v121h7q4 -1 4 -9v-120q-1 -4 -5 -10h30zM922 337l-2 3
q-2 2 -4 6v137q0 12 1 16q2 8 7 12q-6 3 -11 3q-4 3 -8 7q-6 4 -8 5q-4 3 -8 5q5 -10 6 -15q2 -5 2 -19v-3l-13 -1q-12 -1 -13 -12q-1 -3 -1.5 -8.5t-0.5 -14.5v-77q0 -11 0.5 -18.5t1.5 -12.5q3 -10 8 -11q3 -2 17 -2h26zM644 119l-1 3q-2 4 -2 5q-1 2 -1 14v100v9t-1 6
q-2 6 -6 10q-6 8 -17 8q-10 0 -17 -7q-5 -6 -6 -12q0 -3 -0.5 -7t-0.5 -9v-32q9 11 19 15v23q0 9 5 9t5 -6q0 -1 0.5 -3.5t0.5 -7.5v-12q-2 -8 -5 -11q0 -1 -8 -7q-9 -7 -10 -9q-5 -5 -6 -10v-39v-14q0 -5 1 -7q1 -5 5 -8q2 0 3.5 -0.5t4.5 -0.5h8h29zM831 334q13 0 20 9
q4 7 4 25v48q-11 0 -19 -8v-46q0 -8 -5 -8q-6 0 -6 8v54q16 14 30 14v34q0 17 -4 24q-6 9 -20 9q-13 0 -19 -9q-3 -4 -5 -14q0 -3 -0.5 -7.5t-0.5 -9.5v-82q0 -6 0.5 -10.5t0.5 -6.5q1 -4 2 -7.5t3 -7.5q6 -9 19 -9zM746 116q11 0 17 7q7 7 7 22v23q0 18 -4 26q-3 5 -14 14
l-2 2q-7 5 -7 6q-2 4 -2 11v19q0 9 4 9q6 0 6 -9v-20q11 -2 19 -11v25q0 13 -1 17q-4 8 -7 11q-6 6 -16 6q-11 0 -18 -8q-6 -8 -6 -32v-6q0 -11 2 -16q1 -4 6 -9q6 -6 9 -8l2 -2q2 -2 3 -3.5t3 -2.5q1 -2 2 -3l1 -1q1 -2 1 -6v-35q0 -7 -6 -7q-4 0 -4 7v34l-19 16v-37
q0 -25 6 -32q7 -7 18 -7zM847 116q14 0 20 9q1 2 2 5t1 7q1 3 1 13v90q0 11 -1 14q0 3 -1 5.5t-2 5.5q-6 9 -20 9q-13 0 -19 -9q-2 -4 -2.5 -6.5t-2.5 -7.5v-112q2 -4 2.5 -7.5t2.5 -6.5q6 -9 19 -9zM624 337l-2 3q-2 4 -2 5q-1 3 -1 13v105q0 12 -1 15q-2 7 -6 11
q-6 7 -18 7q-10 0 -17 -6q-2 -3 -3 -6t-2 -8q0 -2 -0.5 -6t-0.5 -10v-33q8 13 19 16v24q0 9 4 9q5 0 6 -5v-23q0 -7 -5 -14l-2 -1.5t-6 -5.5q-4 -3 -6 -5t-4 -3q-4 -6 -4 -11q-1 -2 -1 -15v-26q0 -17 1 -22q2 -5 5 -6q2 -2 7 -2h9h30zM797 337l-2 3q-3 3 -3 7v140q2 4 6 7
h-4q-3 0 -3 6v31q-7 -17 -13 -23q-4 -9 -15 -14q5 -4 8 -10q1 -4 1 -18v-111q0 -18 8 -18h17zM811 119l-1 2q-2 4 -2 5q-1 3 -1 12v133h-28q7 -9 7 -13q1 -1 1 -6v-10v-104q0 -9 -1 -12q0 -2 -3 -5l-1 -2h29zM799 290l10 4q-8 0 -11.5 11t-3.5 18q-1 -7 -4 -18t-12 -11
l11 -4l4 -10zM845 134q-4 0 -4 8v104q0 9 4 9q6 0 6 -9v-104q0 -8 -6 -8zM898 358q-6 0 -7 2q-1 1 -1 14v84q0 14 1 14q1 3 7 3v-117zM623 139q-10 0 -11 3q0 1 -0.5 3t-0.5 5v29q0 2 5 9l1.5 1t5.5 3v-53zM600 357q-8 0 -10 2q-1 2 -1 9v30q0 3 4 9l7 5v-55zM825 469
q0 8 5 8q6 0 6 -8v-25l-11 -5v30zM709 631q-6 -4 -20 1q10 7 18 6q4 0 4 -3t-2 -4zM745 584q4 17 -3 23q-5 5 -13 3.5t-15 -5.5q4 11 13.5 20t17.5 11q3 0 6 -0.5t7 -3.5q5 -7 10 -5q3 1 6 4q0 4 -2 5q-2 5 -9 5.5t-10 0.5q-14 -1 -26.5 -7t-20.5 -20q-2 -2 -4 -6.5
t-4 -12.5q-14 0 -19 -7q-5 -2 -6.5 -6.5t-1.5 -6.5q0 -3 4 -7q5 -1 8 0t3 5q0 2 -1 4.5t1 4.5q1 3 4 4.5t6 1.5l-6 -22q-2 -3 -2.5 -4t-5.5 -3l-1 -4h26l1 4q-5 2 -5 3v4l5 17q5 -4 6 -8.5t1 -5.5q0 -16 -12 -24q-5 -4 -14 -4q-8 0 -16 2q-12 5 -15 18q-2 11 1 30t16 31
q13 -2 24.5 0t16.5 9q3 3 0 6q-2 5 -7 5.5t-9 -1.5q-3 0 -9 -2.5t-11 -4.5q-7 2 -10.5 4l-3.5 2q-9 4 -18 4.5t-17 -4.5t-10.5 -13t5.5 -14t15 -2q6 2 6 7q1 2 -2 4q-2 2 -6 2l-3 -3q-1 -1 -1.5 -2t-1.5 -2q-2 -2 -4 0q-4 3 -4 6q0 7 5 10q6 3 15 0.5t14 -4.5l7 -3l-3 -4
q-16 -12 -21 -26.5t-3 -28.5q3 -18 20 -27q11 -5 24 -5.5t21 4.5q6 3 11 9.5t6 17.5q0 6 -2 12.5t-9 12.5l3 8q9 5 13 4.5t6 -2.5q2 -3 1.5 -7t-2.5 -9l-7 -30h20v4q-3 2 -3.5 4t1.5 9zM789 575q-5 -11 -14 -12.5t-13 5.5q-4 6 1 18h37q0 18 -12 21q-12 7 -26 -2
q-8 -7 -10.5 -15.5t-2.5 -13.5q0 -9 5.5 -14t13 -5.5t15 3.5t12.5 13zM767 595q4 7 7 7q5 3 8 0q0 -1 1 -2t1 -5h-17z" />
    <glyph glyph-name="threequarters" unicode="&#xbe;" horiz-adv-x="727" 
d="M175 298q0 24 -8 24q-7 0 -7 -21v-224q0 -14 5 -14q-23 -8 -34 -22q-7 -10 -12.5 -16t-9.5 -11q-12 -11 -22 -12q-4 -1 -10 -1q-8 0 -11 4l8 -1q22 0 39 29q11 27 11 56v260q-1 3 -2 4l-3 3q-3 0 -7 2h67l11 -16l11 16h67q-2 -1 -3.5 -1.5l-1.5 -0.5q-3 -2 -3 -6
q-2 -5 -2 -30v-243q2 -10 11 -15h-57q4 2 7 5q2 1 2.5 3t0.5 4v224q0 24 -7 24q-6 0 -6 -23v-239q0 -21 7 -21h1q-8 -6 -24 -21l-28 20q6 5 8 13q2 4 2 17v230zM719 414q0 -11 5 -11h-43q6 0 6 10v193q0 11 -7 11q-4 0 -4 -9v-226q0 -11 1 -13q0 -2 7 -7q-10 -5 -13 -9
q-7 -7 -10 -11q-10 16 -29 20q7 1 9 9q1 2 1 12v223q0 11 -6 11q-4 0 -4 -7v-195q0 -12 5 -12h-46q6 0 6 10v188q0 27 1 31q2 10 8 13q7 3 29 3q12 0 17 -5q8 -6 8 -14v-1q1 12 12 18q8 2 22 2q12 0 19 -4q6 -5 6 -18v-212zM105 556q0 -20 -23 -31q-10 -4 -19 -7.5t-18 -7.5
v-93q0 -13 6 -14h-48q8 2 8 14v270q0 10 -11 13h69q16 0 25 -6q11 -4 11 -15v-123zM505 63q-29 0 -37 14q-4 7 -4 40v170q3 13 11 17q10 5 30 5q25 0 33 -6q9 -6 9 -31v-175q0 -19 -7 -25q-6 -9 -35 -9zM540 403q-30 0 -36 14q-4 7 -4 40v170q3 13 10 17q8 4 31 4
q26 0 33 -6q9 -8 9 -31v-175q0 -18 -7 -25q-7 -8 -36 -8zM324 63q3 1 3 14v68l-16 -10v-58q0 -14 2 -14h-44q7 2 7 14v206q0 14 11 20q10 6 37 6q18 0 27 -6q8 -7 8 -24v-201q0 -9 8 -15h-43zM263 403q3 1 3 14v67l-16 -9v-58q0 -13 1 -14h-43q7 2 7 14v206q2 15 11 20t37 5
q20 0 26 -5q9 -6 9 -24v-201q0 -9 8 -15h2q-1 -1 -3 -1h-1v1h-41zM106 403q10 1 10 14v222q0 1 -0.5 2l-0.5 1q-1 4 -7 6h46q-3 -1 -4 -8v-123l15 8v117q0 3 -3 6h46q-8 -2 -8 -9v-222q0 -9 6 -14h-43q2 4 2 14v66l-15 -9v-57q0 -6 4 -14h-48zM419 268q0 14 -2 14h-3
q-4 0 -6 -2v-214q0 -1 5 -3h-44q-1 0 3 2q4 4 4 13v222q0 2 -1 2v1q-2 4 -7 6h40v-7q7 5 15 5h7q15 0 20 -12q3 -9 3 -54v-162q0 -14 5 -16h-40q0 1 0.5 4.5t0.5 11.5v189zM358 607q0 14 -2 14q-1 1 -3 1t-6 -2v-214q0 -3 2 -3h-41q-1 0 3 2q4 6 4 13v222q0 1 -2 3
q-1 4 -4 5h38v-7q7 6 16 6h3q18 0 23 -12q3 -11 3 -54v-163q0 -14 4 -15h-39q1 1 1 15v189zM427 617q-26 -7 -29 -60v91h93v-94q-1 8 -2 15.5t-3 13.5q-9 30 -21 33l-4 1v-207q0 -9 9 -12h-52q9 3 9 11v208zM633 281q-5 0 -10 -2.5t-10 -6.5q-10 -9 -10 -16v-170
q0 -14 7 -23h-51q10 7 10 23v210q0 7 -8 12h42v-14q1 2 2 3l3 3q6 6 18 8q4 1 12 1h20v-43q0 4 -3 7q-5 6 -22 8zM45 543q31 7 31 26v90q0 14 -21 14l-10 -1v-129zM515 249q0 8 -1 13t-2 7q-2 3 -6 3q-10 0 -10 -21v-130q0 -22 7 -22h4q5 0 7 5q1 2 1 19v126zM550 608
q-1 3 -7 3h-4q-8 0 -8 -21v-129q0 -22 8 -22h4q5 0 7 5v164zM327 268q0 6 -10 8l-3 -1q-3 -3 -3 -11v-86l16 7v83zM266 607q0 7 -8 9q-2 -1 -5 -1q-3 -3 -3 -12v-85l15 7q0 4 0.5 14t0.5 27v41z" />
    <glyph glyph-name="questiondown" unicode="&#xbf;" horiz-adv-x="265" 
d="M236 231v-78q0 -97 -30 -130q-23 -24 -76 -24q-57 0 -82 28q-10 8 -15.5 18.5t-10.5 22.5q-1 9 -2 22.5t-1 33.5v72q0 44 5 72q8 33 27 55q7 8 14.5 15.5t18.5 15.5q13 10 19.5 18t10.5 14q5 9 9.5 23t6.5 34l7 87q2 29 9.5 43.5t17.5 14.5q6 0 9 -5q11 -11 17 -80
q2 -29 2.5 -51.5t0.5 -42.5q0 -16 -0.5 -27.5t-2.5 -19.5q-3 -8 -7 -16t-12 -16q0 -3 -8 -9.5t-19 -18.5l-7 -10q-24 -21 -29 -50q-6 -23 -6 -73v-36q0 -16 0.5 -27t3.5 -18q2 -9 8 -13t14 -4q16 0 23 24q3 16 3 52v49zM154 617q-11 0 -22 11q-12 11 -12 34q0 24 15 39
q10 9 23 9q14 0 23 -12q12 -9 12 -36q0 -11 -2.5 -19.5t-10.5 -14.5q-5 -5 -11 -8t-15 -3z" />
    <glyph glyph-name="Agrave" unicode="&#xc0;" horiz-adv-x="276" 
d="M265 700q-15 -20 -16 -28q-4 -8 -5 -18t-1 -22v-558q0 -13 1 -23.5t5 -18.5q2 -13 16 -32h-119q5 9 9 18.5t7 17.5q1 8 1 19v27v121l-51 -26v-125v-16q0 -6 1 -11q4 -13 11 -19q-24 -13 -34 -28q-20 -21 -30 -32.5t-11 -12.5q-12 -9 -23 -17t-23 -10q28 63 28 131v504
q0 88 16 120q23 39 86 39h132zM131 628q-19 0 -19 -49v-320l51 26v343h-32zM232 719h-37q-45 23 -68 33q-26 12 -51 24q-35 19 -35 30q0 9 10 15t22 6q21 0 52 -22q3 -3 42 -33q21 -17 65 -53z" />
    <glyph glyph-name="Aacute" unicode="&#xc1;" horiz-adv-x="276" 
d="M265 700q-15 -20 -16 -28q-4 -8 -5 -18t-1 -22v-558q0 -13 1 -23.5t5 -18.5q2 -13 16 -32h-119q5 9 9 18.5t7 17.5q1 8 1 19v27v121l-51 -26v-125v-16q0 -6 1 -11q4 -13 11 -19q-24 -13 -34 -28q-20 -21 -30 -32.5t-11 -12.5q-12 -9 -23 -17t-23 -10q28 63 28 131v504
q0 88 16 120q23 39 86 39h132zM131 628q-19 0 -19 -49v-320l51 26v343h-32zM42 728q44 36 65 53q39 30 42 33q31 22 52 22q12 0 22 -6t10 -15q0 -11 -35 -30q-25 -12 -51 -24q-23 -10 -68 -33h-37v0z" />
    <glyph glyph-name="Acircumflex" unicode="&#xc2;" horiz-adv-x="276" 
d="M265 700q-15 -20 -16 -28q-4 -8 -5 -18t-1 -22v-558q0 -13 1 -23.5t5 -18.5q2 -13 16 -32h-119q5 9 9 18.5t7 17.5q1 8 1 19v27v121l-51 -26v-125v-16q0 -6 1 -11q4 -13 11 -19q-24 -13 -34 -28q-20 -21 -30 -32.5t-11 -12.5q-12 -9 -23 -17t-23 -10q28 63 28 131v504
q0 88 16 120q23 39 86 39h132zM131 628q-19 0 -19 -49v-320l51 26v343h-32zM161 804l69 -87h-23l-67 58l-68 -58h-23l70 87h42z" />
    <glyph glyph-name="Atilde" unicode="&#xc3;" horiz-adv-x="276" 
d="M265 700q-15 -20 -16 -28q-4 -8 -5 -18t-1 -22v-558q0 -13 1 -23.5t5 -18.5q2 -13 16 -32h-119q5 9 9 18.5t7 17.5q1 8 1 19v27v121l-51 -26v-125v-16q0 -6 1 -11q4 -13 11 -19q-24 -13 -34 -28q-20 -21 -30 -32.5t-11 -12.5q-12 -9 -23 -17t-23 -10q28 63 28 131v504
q0 88 16 120q23 39 86 39h132zM131 628q-19 0 -19 -49v-320l51 26v343h-32zM233 835h20q-19 -99 -73 -99q-17 0 -49 21.5t-46 21.5q-24 0 -38 -44h-23q21 96 75 96q17 0 47.5 -21.5t48.5 -21.5q24 0 38 47z" />
    <glyph glyph-name="Adieresis" unicode="&#xc4;" horiz-adv-x="276" 
d="M265 700q-15 -20 -16 -28q-4 -8 -5 -18t-1 -22v-558q0 -13 1 -23.5t5 -18.5q2 -13 16 -32h-119q5 9 9 18.5t7 17.5q1 8 1 19v27v121l-51 -26v-125v-16q0 -6 1 -11q4 -13 11 -19q-24 -13 -34 -28q-20 -21 -30 -32.5t-11 -12.5q-12 -9 -23 -17t-23 -10q28 63 28 131v504
q0 88 16 120q23 39 86 39h132zM131 628q-19 0 -19 -49v-320l51 26v343h-32zM65 780q0 12 3 21.5t9 20.5q10 18 23 18t24 -18q10 -19 10 -42q0 -26 -10 -44t-24 -18q-13 0 -23 18q-5 9 -8.5 19.5t-3.5 24.5zM165 780q0 12 3 21.5t9 20.5q10 18 23 18t24 -18q10 -19 10 -42
q0 -26 -10 -44t-24 -18q-13 0 -23 18q-5 9 -8.5 19.5t-3.5 24.5z" />
    <glyph glyph-name="Aring" unicode="&#xc5;" horiz-adv-x="276" 
d="M265 700q-15 -20 -16 -28q-4 -8 -5 -18t-1 -22v-558q0 -13 1 -23.5t5 -18.5q2 -13 16 -32h-119q5 9 9 18.5t7 17.5q1 8 1 19v27v121l-51 -26v-125v-16q0 -6 1 -11q4 -13 11 -19q-24 -13 -34 -28q-20 -21 -30 -32.5t-11 -12.5q-12 -9 -23 -17t-23 -10q28 63 28 131v504
q0 88 16 120q23 39 86 39h132zM131 628q-19 0 -19 -49v-320l51 26v343h-32zM80 839q0 11 4 19t9 16q15 22 50 22q18 0 30.5 -6t19.5 -16q4 -7 6.5 -14t3.5 -15q1 -5 1 -13v-19v-6q0 -11 -0.5 -20t-0.5 -14q-3 -13 -10 -28q-14 -21 -50 -21q-35 0 -50 21q-5 8 -8.5 16.5
t-3.5 17.5q-1 8 -1 17v24v19zM177 839q0 30 -35 30t-35 -30v-56q0 -32 35 -32t35 32v56z" />
    <glyph glyph-name="AE" unicode="&#xc6;" horiz-adv-x="389" 
d="M361 570q-8 26 -23 39t-39 13h-71v-212h37q12 0 21 0.5t14 4.5q10 4 17 14t14 23v-169q-6 12 -12 21t-13 13q-13 7 -32 7h-46v-244h90q17 0 26.5 9.5t16.5 29.5v-119h-233q5 9 9 18.5t7 17.5q1 8 1 19v27v121l-51 -26v-125v-16q0 -6 1 -11q4 -13 11 -19q-24 -13 -34 -28
q-20 -21 -30 -32.5t-11 -12.5q-12 -9 -23 -17t-23 -10q28 63 28 131v504q0 88 16 120q23 39 86 39h246v-130zM113 628q-19 0 -19 -49v-320l51 26v343h-32z" />
    <glyph glyph-name="Ccedilla" unicode="&#xc7;" horiz-adv-x="265" 
d="M160 567q0 18 -1 29.5t-3 19.5q-4 23 -24 23q-16 0 -20 -18q-6 -14 -6 -44v-451q0 -32 6 -44q4 -19 20 -19q20 0 24 24q2 6 3 18t1 31v135l78 35v-183q0 -78 -26 -104q-6 -6 -12.5 -11t-14.5 -8q3 -16 3 -37q4 -31 -7 -56t-25 -35q-10 -8 -25 -8q-30 0 -60 29l9 48
q25 -21 40 -21q9 0 16 9q8 10 8 29q0 21 -5 32h-7q-22 0 -41.5 7t-34.5 22q-16 14 -23 42q-2 10 -4 25t-2 35v459q0 20 2 34.5t4 25.5q3 13 8.5 24.5t14.5 19.5q31 26 75 26q49 0 81 -29q13 -13 19.5 -37.5t6.5 -63.5v-124q-41 0 -78 -30v141z" />
    <glyph glyph-name="Egrave" unicode="&#xc8;" horiz-adv-x="260" 
d="M250 570q-8 26 -23 39t-39 13h-71v-212h37q12 0 21 0.5t14 4.5q10 4 17 14t14 23v-169q-6 12 -12 21t-13 13q-13 7 -32 7h-46v-244h90q17 0 26.5 9.5t16.5 29.5v-119h-237q8 8 12.5 16t7.5 16q5 15 5 48v542q0 31 -5 46q-3 7 -7.5 15t-12.5 17h237v-130zM227 722h-37
q-45 23 -68 33q-26 12 -51 24q-35 19 -35 30q0 9 10 15t22 6q21 0 52 -22q3 -3 42 -33q21 -17 65 -53z" />
    <glyph glyph-name="Eacute" unicode="&#xc9;" horiz-adv-x="260" 
d="M250 570q-8 26 -23 39t-39 13h-71v-212h37q12 0 21 0.5t14 4.5q10 4 17 14t14 23v-169q-6 12 -12 21t-13 13q-13 7 -32 7h-46v-244h90q17 0 26.5 9.5t16.5 29.5v-119h-237q8 8 12.5 16t7.5 16q5 15 5 48v542q0 31 -5 46q-3 7 -7.5 15t-12.5 17h237v-130zM30 723
q44 36 65 53q39 30 42 33q31 22 52 22q12 0 22 -6t10 -15q0 -11 -35 -30q-25 -12 -51 -24q-23 -10 -68 -33h-37v0z" />
    <glyph glyph-name="Ecircumflex" unicode="&#xca;" horiz-adv-x="260" 
d="M250 570q-8 26 -23 39t-39 13h-71v-212h37q12 0 21 0.5t14 4.5q10 4 17 14t14 23v-169q-6 12 -12 21t-13 13q-13 7 -32 7h-46v-244h90q17 0 26.5 9.5t16.5 29.5v-119h-237q8 8 12.5 16t7.5 16q5 15 5 48v542q0 31 -5 46q-3 7 -7.5 15t-12.5 17h237v-130zM156 807l69 -87
h-23l-67 58l-68 -58h-23l70 87h42z" />
    <glyph glyph-name="Edieresis" unicode="&#xcb;" horiz-adv-x="260" 
d="M250 570q-8 26 -23 39t-39 13h-71v-212h37q12 0 21 0.5t14 4.5q10 4 17 14t14 23v-169q-6 12 -12 21t-13 13q-13 7 -32 7h-46v-244h90q17 0 26.5 9.5t16.5 29.5v-119h-237q8 8 12.5 16t7.5 16q5 15 5 48v542q0 31 -5 46q-3 7 -7.5 15t-12.5 17h237v-130zM57 781
q0 12 3 21.5t9 20.5q10 18 23 18t24 -18q10 -19 10 -42q0 -26 -10 -44t-24 -18q-13 0 -23 18q-5 9 -8.5 19.5t-3.5 24.5zM157 781q0 12 3 21.5t9 20.5q10 18 23 18t24 -18q10 -19 10 -42q0 -26 -10 -44t-24 -18q-13 0 -23 18q-5 9 -8.5 19.5t-3.5 24.5z" />
    <glyph glyph-name="Igrave" unicode="&#xcc;" horiz-adv-x="148" 
d="M113 87q0 -19 1 -32t3 -19q5 -19 21 -36h-128q9 11 14 19.5t7 16.5q2 6 3 19t1 32v526q0 20 -1.5 32.5t-2.5 18.5q-2 16 -21 36h128q-16 -17 -21 -36q-2 -6 -3 -18.5t-1 -32.5v-526v0zM172 722h-37q-45 23 -68 33q-26 12 -51 24q-35 19 -35 30q0 9 10 15t22 6
q21 0 52 -22q3 -3 42 -33q21 -17 65 -53z" />
    <glyph glyph-name="Iacute" unicode="&#xcd;" horiz-adv-x="148" 
d="M113 87q0 -19 1 -32t3 -19q5 -19 21 -36h-128q9 11 14 19.5t7 16.5q2 6 3 19t1 32v526q0 20 -1.5 32.5t-2.5 18.5q-2 16 -21 36h128q-16 -17 -21 -36q-2 -6 -3 -18.5t-1 -32.5v-526v0zM-19 726q44 36 65 53q39 30 42 33q31 22 52 22q12 0 22 -6t10 -15q0 -11 -35 -30
q-25 -12 -51 -24q-23 -10 -68 -33h-37v0z" />
    <glyph glyph-name="Icircumflex" unicode="&#xce;" horiz-adv-x="148" 
d="M113 87q0 -19 1 -32t3 -19q5 -19 21 -36h-128q9 11 14 19.5t7 16.5q2 6 3 19t1 32v526q0 20 -1.5 32.5t-2.5 18.5q-2 16 -21 36h128q-16 -17 -21 -36q-2 -6 -3 -18.5t-1 -32.5v-526v0zM99 808l69 -87h-23l-67 58l-68 -58h-23l70 87h42z" />
    <glyph glyph-name="Idieresis" unicode="&#xcf;" horiz-adv-x="148" 
d="M113 87q0 -19 1 -32t3 -19q5 -19 21 -36h-128q9 11 14 19.5t7 16.5q2 6 3 19t1 32v526q0 20 -1.5 32.5t-2.5 18.5q-2 16 -21 36h128q-16 -17 -21 -36q-2 -6 -3 -18.5t-1 -32.5v-526v0zM-6 782q0 12 3 21.5t9 20.5q10 18 23 18t24 -18q10 -19 10 -42q0 -26 -10 -44
t-24 -18q-13 0 -23 18q-5 9 -8.5 19.5t-3.5 24.5zM94 782q0 12 3 21.5t9 20.5q10 18 23 18t24 -18q10 -19 10 -42q0 -26 -10 -44t-24 -18q-13 0 -23 18q-5 9 -8.5 19.5t-3.5 24.5z" />
    <glyph glyph-name="Ntilde" unicode="&#xd1;" horiz-adv-x="306" 
d="M198 300v300q0 19 -1.5 33t-2.5 22q-4 21 -22 45h123q-6 -10 -9.5 -18.5t-5.5 -15.5l-1 -2q-2 -7 -4 -18.5t-2 -26.5v-533q0 -17 2 -28.5t4 -19.5q2 -10 5.5 -19t9.5 -19h-112q4 7 6.5 15t2.5 16q0 16 -9 52l-72 302v-310q0 -15 1.5 -25.5t2.5 -15.5q2 -7 4.5 -15
t7.5 -20q-8 -5 -13.5 -8t-9.5 -5q-5 -5 -9.5 -11.5t-9.5 -14.5q-35 -65 -78 -65h-6q38 58 38 164v548q0 18 -0.5 31t-5.5 23q-2 8 -7.5 18t-15.5 21h101zM252 827h20q-19 -99 -73 -99q-17 0 -49 21.5t-46 21.5q-24 0 -38 -44h-23q21 96 75 96q17 0 47.5 -21.5t48.5 -21.5
q24 0 38 47z" />
    <glyph glyph-name="Ograve" unicode="&#xd2;" 
d="M227 124q0 -39 -6.5 -64.5t-17.5 -39.5q-30 -30 -78 -30t-79 30q-17 17 -23 41q-2 11 -4 26t-2 35v459q0 18 2 32.5t4 23.5q6 25 23 44q31 29 79 29q46 0 78 -32q9 -8 14.5 -21.5t7.5 -31.5q2 -9 2 -27v-44v-430zM149 568q0 17 -1 29t-3 19q-5 21 -20 21q-18 0 -24 -19
q-1 -8 -2 -18t-1 -27v-446q0 -17 1 -27t2 -17q6 -18 24 -18q16 0 20 20q2 6 3 17.5t1 28.5v437zM218 716h-37q-45 23 -68 33q-26 12 -51 24q-35 19 -35 30q0 9 10 15t22 6q21 0 52 -22q3 -3 42 -33q21 -17 65 -53z" />
    <glyph glyph-name="Oacute" unicode="&#xd3;" 
d="M227 124q0 -39 -6.5 -64.5t-17.5 -39.5q-30 -30 -78 -30t-79 30q-17 17 -23 41q-2 11 -4 26t-2 35v459q0 18 2 32.5t4 23.5q6 25 23 44q31 29 79 29q46 0 78 -32q9 -8 14.5 -21.5t7.5 -31.5q2 -9 2 -27v-44v-430zM149 568q0 17 -1 29t-3 19q-5 21 -20 21q-18 0 -24 -19
q-1 -8 -2 -18t-1 -27v-446q0 -17 1 -27t2 -17q6 -18 24 -18q16 0 20 20q2 6 3 17.5t1 28.5v437zM21 715q44 36 65 53q39 30 42 33q31 22 52 22q12 0 22 -6t10 -15q0 -11 -35 -30q-25 -12 -51 -24q-23 -10 -68 -33h-37v0z" />
    <glyph glyph-name="Ocircumflex" unicode="&#xd4;" 
d="M227 124q0 -39 -6.5 -64.5t-17.5 -39.5q-30 -30 -78 -30t-79 30q-17 17 -23 41q-2 11 -4 26t-2 35v459q0 18 2 32.5t4 23.5q6 25 23 44q31 29 79 29q46 0 78 -32q9 -8 14.5 -21.5t7.5 -31.5q2 -9 2 -27v-44v-430zM149 568q0 17 -1 29t-3 19q-5 21 -20 21q-18 0 -24 -19
q-1 -8 -2 -18t-1 -27v-446q0 -17 1 -27t2 -17q6 -18 24 -18q16 0 20 20q2 6 3 17.5t1 28.5v437zM145 804l69 -87h-23l-67 58l-68 -58h-23l70 87h42z" />
    <glyph glyph-name="Otilde" unicode="&#xd5;" 
d="M227 124q0 -39 -6.5 -64.5t-17.5 -39.5q-30 -30 -78 -30t-79 30q-17 17 -23 41q-2 11 -4 26t-2 35v459q0 18 2 32.5t4 23.5q6 25 23 44q31 29 79 29q46 0 78 -32q9 -8 14.5 -21.5t7.5 -31.5q2 -9 2 -27v-44v-430zM149 568q0 17 -1 29t-3 19q-5 21 -20 21q-18 0 -24 -19
q-1 -8 -2 -18t-1 -27v-446q0 -17 1 -27t2 -17q6 -18 24 -18q16 0 20 20q2 6 3 17.5t1 28.5v437zM218 816h20q-19 -99 -73 -99q-17 0 -49 21.5t-46 21.5q-24 0 -38 -44h-23q21 96 75 96q17 0 47.5 -21.5t48.5 -21.5q24 0 38 47z" />
    <glyph glyph-name="Odieresis" unicode="&#xd6;" 
d="M227 124q0 -39 -6.5 -64.5t-17.5 -39.5q-30 -30 -78 -30t-79 30q-17 17 -23 41q-2 11 -4 26t-2 35v459q0 18 2 32.5t4 23.5q6 25 23 44q31 29 79 29q46 0 78 -32q9 -8 14.5 -21.5t7.5 -31.5q2 -9 2 -27v-44v-430zM149 568q0 17 -1 29t-3 19q-5 21 -20 21q-18 0 -24 -19
q-1 -8 -2 -18t-1 -27v-446q0 -17 1 -27t2 -17q6 -18 24 -18q16 0 20 20q2 6 3 17.5t1 28.5v437zM37 791q0 12 3 21.5t9 20.5q10 18 23 18t24 -18q10 -19 10 -42q0 -26 -10 -44t-24 -18q-13 0 -23 18q-5 9 -8.5 19.5t-3.5 24.5zM137 791q0 12 3 21.5t9 20.5q10 18 23 18
t24 -18q10 -19 10 -42q0 -26 -10 -44t-24 -18q-13 0 -23 18q-5 9 -8.5 19.5t-3.5 24.5z" />
    <glyph glyph-name="Oslash" unicode="&#xd8;" 
d="M181 772l-8 -73q16 -8 30 -21q9 -8 14.5 -21.5t7.5 -31.5q2 -9 2 -27v-44v-430q0 -39 -6.5 -64.5t-17.5 -39.5q-30 -30 -78 -30q-14 0 -26 3l-7 -69h-26l8 76q-16 8 -28 20q-17 17 -23 41q-2 11 -4 26t-2 35v459q0 18 2 32.5t4 23.5q6 25 23 44q31 29 79 29q6 0 12 -0.5
t11 -1.5l7 64h26zM98 229l42 400q-6 8 -15 8q-18 0 -24 -19q-1 -8 -2 -18t-1 -27v-344zM145 85q2 6 3 17.5t1 28.5v336l-42 -396q6 -6 18 -6q16 0 20 20z" />
    <glyph glyph-name="Ugrave" unicode="&#xd9;" horiz-adv-x="282" 
d="M244 118q0 -72 -26 -100q-29 -28 -76 -28q-49 0 -77 28q-10 8 -15.5 18.5t-9.5 23.5q-2 10 -2.5 25t-0.5 33v505q0 33 -6 47q-1 12 -19 30h120q-13 -16 -16 -35q0 -5 -1 -17t-1 -32v-494q0 -30 5 -42q6 -18 21 -18q16 0 21 19q6 13 6 46v497q0 16 -1 27.5t-3 16.5
q-3 19 -16 32h122q-20 -18 -21 -33q-3 -7 -3.5 -20t-0.5 -31v-498v0zM234 726h-37q-45 23 -68 33q-26 12 -51 24q-35 19 -35 30q0 9 10 15t22 6q21 0 52 -22q3 -3 42 -33q21 -17 65 -53z" />
    <glyph glyph-name="Uacute" unicode="&#xda;" horiz-adv-x="282" 
d="M244 118q0 -72 -26 -100q-29 -28 -76 -28q-49 0 -77 28q-10 8 -15.5 18.5t-9.5 23.5q-2 10 -2.5 25t-0.5 33v505q0 33 -6 47q-1 12 -19 30h120q-13 -16 -16 -35q0 -5 -1 -17t-1 -32v-494q0 -30 5 -42q6 -18 21 -18q16 0 21 19q6 13 6 46v497q0 16 -1 27.5t-3 16.5
q-3 19 -16 32h122q-20 -18 -21 -33q-3 -7 -3.5 -20t-0.5 -31v-498v0zM42 721q44 36 65 53q39 30 42 33q31 22 52 22q12 0 22 -6t10 -15q0 -11 -35 -30q-25 -12 -51 -24q-23 -10 -68 -33h-37v0z" />
    <glyph glyph-name="Ucircumflex" unicode="&#xdb;" horiz-adv-x="282" 
d="M244 118q0 -72 -26 -100q-29 -28 -76 -28q-49 0 -77 28q-10 8 -15.5 18.5t-9.5 23.5q-2 10 -2.5 25t-0.5 33v505q0 33 -6 47q-1 12 -19 30h120q-13 -16 -16 -35q0 -5 -1 -17t-1 -32v-494q0 -30 5 -42q6 -18 21 -18q16 0 21 19q6 13 6 46v497q0 16 -1 27.5t-3 16.5
q-3 19 -16 32h122q-20 -18 -21 -33q-3 -7 -3.5 -20t-0.5 -31v-498v0zM161 804l69 -87h-23l-67 58l-68 -58h-23l70 87h42z" />
    <glyph glyph-name="Udieresis" unicode="&#xdc;" horiz-adv-x="282" 
d="M244 118q0 -72 -26 -100q-29 -28 -76 -28q-49 0 -77 28q-10 8 -15.5 18.5t-9.5 23.5q-2 10 -2.5 25t-0.5 33v505q0 33 -6 47q-1 12 -19 30h120q-13 -16 -16 -35q0 -5 -1 -17t-1 -32v-494q0 -30 5 -42q6 -18 21 -18q16 0 21 19q6 13 6 46v497q0 16 -1 27.5t-3 16.5
q-3 19 -16 32h122q-20 -18 -21 -33q-3 -7 -3.5 -20t-0.5 -31v-498v0zM55 776q0 12 3 21.5t9 20.5q10 18 23 18t24 -18q10 -19 10 -42q0 -26 -10 -44t-24 -18q-13 0 -23 18q-5 9 -8.5 19.5t-3.5 24.5zM155 776q0 12 3 21.5t9 20.5q10 18 23 18t24 -18q10 -19 10 -42
q0 -26 -10 -44t-24 -18q-13 0 -23 18q-5 9 -8.5 19.5t-3.5 24.5z" />
    <glyph glyph-name="Yacute" unicode="&#xdd;" horiz-adv-x="285" 
d="M182 80q0 -16 0.5 -27.5t2.5 -18.5q6 -16 21 -34h-128q18 19 22 32q2 7 2.5 19t0.5 29v198l-74 370q-6 35 -22 52h112q-4 -11 -6.5 -24t-2.5 -29q0 -11 2.5 -28.5t6.5 -43.5l23 -144l24 144q4 26 6 43.5t2 28.5q0 31 -8 53h112q-8 -7 -13 -20t-9 -32l-74 -368v-200z
M43 716q44 36 65 53q39 30 42 33q31 22 52 22q12 0 22 -6t10 -15q0 -11 -35 -30q-25 -12 -51 -24q-23 -10 -68 -33h-37v0z" />
    <glyph glyph-name="agrave" unicode="&#xe0;" horiz-adv-x="219" 
d="M111 506q-21 0 -21 -34v-85q-38 -17 -73 -60v121q0 20 0.5 35t2.5 24q3 14 9.5 24.5t14.5 20.5q23 26 65 26q43 0 70 -28q8 -8 13 -17.5t7 -21.5q2 -9 3 -22.5t1 -32.5v-377q0 -18 0.5 -29.5t1.5 -16.5q2 -17 18 -33h-151q-10 0 -17 0.5t-11 2.5q-8 5 -12.5 12.5
t-7.5 18.5q-3 10 -3.5 29t-0.5 47v93v35q0 14 2 20q5 19 22 37q6 6 14.5 13.5t22.5 18.5q25 19 30 25q10 8 13.5 22.5t5.5 28.5v82q0 11 -5.5 16t-13.5 5zM90 113v-17t1 -11q2 -7 12 -9.5t27 -2.5v201q-10 -9 -16 -13.5t-8 -6.5q-16 -13 -16 -30v-111zM214 590h-37
q-45 23 -68 33q-26 12 -51 24q-35 19 -35 30q0 9 10 15t22 6q21 0 52 -22q3 -3 42 -33q21 -17 65 -53z" />
    <glyph glyph-name="aacute" unicode="&#xe1;" horiz-adv-x="219" 
d="M111 506q-21 0 -21 -34v-85q-38 -17 -73 -60v121q0 20 0.5 35t2.5 24q3 14 9.5 24.5t14.5 20.5q23 26 65 26q43 0 70 -28q8 -8 13 -17.5t7 -21.5q2 -9 3 -22.5t1 -32.5v-377q0 -18 0.5 -29.5t1.5 -16.5q2 -17 18 -33h-151q-10 0 -17 0.5t-11 2.5q-8 5 -12.5 12.5
t-7.5 18.5q-3 10 -3.5 29t-0.5 47v93v35q0 14 2 20q5 19 22 37q6 6 14.5 13.5t22.5 18.5q25 19 30 25q10 8 13.5 22.5t5.5 28.5v82q0 11 -5.5 16t-13.5 5zM90 113v-17t1 -11q2 -7 12 -9.5t27 -2.5v201q-10 -9 -16 -13.5t-8 -6.5q-16 -13 -16 -30v-111zM17 594q44 36 65 53
q39 30 42 33q31 22 52 22q12 0 22 -6t10 -15q0 -11 -35 -30q-25 -12 -51 -24q-23 -10 -68 -33h-37v0z" />
    <glyph glyph-name="acircumflex" unicode="&#xe2;" horiz-adv-x="219" 
d="M111 506q-21 0 -21 -34v-85q-38 -17 -73 -60v121q0 20 0.5 35t2.5 24q3 14 9.5 24.5t14.5 20.5q23 26 65 26q43 0 70 -28q8 -8 13 -17.5t7 -21.5q2 -9 3 -22.5t1 -32.5v-377q0 -18 0.5 -29.5t1.5 -16.5q2 -17 18 -33h-151q-10 0 -17 0.5t-11 2.5q-8 5 -12.5 12.5
t-7.5 18.5q-3 10 -3.5 29t-0.5 47v93v35q0 14 2 20q5 19 22 37q6 6 14.5 13.5t22.5 18.5q25 19 30 25q10 8 13.5 22.5t5.5 28.5v82q0 11 -5.5 16t-13.5 5zM90 113v-17t1 -11q2 -7 12 -9.5t27 -2.5v201q-10 -9 -16 -13.5t-8 -6.5q-16 -13 -16 -30v-111zM123 680l69 -87h-23
l-67 58l-68 -58h-23l70 87h42z" />
    <glyph glyph-name="atilde" unicode="&#xe3;" horiz-adv-x="219" 
d="M111 506q-21 0 -21 -34v-85q-38 -17 -73 -60v121q0 20 0.5 35t2.5 24q3 14 9.5 24.5t14.5 20.5q23 26 65 26q43 0 70 -28q8 -8 13 -17.5t7 -21.5q2 -9 3 -22.5t1 -32.5v-377q0 -18 0.5 -29.5t1.5 -16.5q2 -17 18 -33h-151q-10 0 -17 0.5t-11 2.5q-8 5 -12.5 12.5
t-7.5 18.5q-3 10 -3.5 29t-0.5 47v93v35q0 14 2 20q5 19 22 37q6 6 14.5 13.5t22.5 18.5q25 19 30 25q10 8 13.5 22.5t5.5 28.5v82q0 11 -5.5 16t-13.5 5zM90 113v-17t1 -11q2 -7 12 -9.5t27 -2.5v201q-10 -9 -16 -13.5t-8 -6.5q-16 -13 -16 -30v-111zM188.649 713.254
h16.7686q-15.9307 -100.982 -61.2061 -100.982q-14.2539 0 -41.084 21.9307t-38.5684 21.9307q-20.1221 0 -31.8604 -44.8809h-19.2842q17.6074 97.9219 62.8828 97.9219q14.2539 0 39.8262 -21.9307t40.6641 -21.9307q20.123 0 31.8613 47.9414z" />
    <glyph glyph-name="adieresis" unicode="&#xe4;" horiz-adv-x="219" 
d="M111 506q-21 0 -21 -34v-85q-38 -17 -73 -60v121q0 20 0.5 35t2.5 24q3 14 9.5 24.5t14.5 20.5q23 26 65 26q43 0 70 -28q8 -8 13 -17.5t7 -21.5q2 -9 3 -22.5t1 -32.5v-377q0 -18 0.5 -29.5t1.5 -16.5q2 -17 18 -33h-151q-10 0 -17 0.5t-11 2.5q-8 5 -12.5 12.5
t-7.5 18.5q-3 10 -3.5 29t-0.5 47v93v35q0 14 2 20q5 19 22 37q6 6 14.5 13.5t22.5 18.5q25 19 30 25q10 8 13.5 22.5t5.5 28.5v82q0 11 -5.5 16t-13.5 5zM90 113v-17t1 -11q2 -7 12 -9.5t27 -2.5v201q-10 -9 -16 -13.5t-8 -6.5q-16 -13 -16 -30v-111zM28 655q0 12 3 21.5
t9 20.5q10 18 23 18t24 -18q10 -19 10 -42q0 -26 -10 -44t-24 -18q-13 0 -23 18q-5 9 -8.5 19.5t-3.5 24.5zM128 655q0 12 3 21.5t9 20.5q10 18 23 18t24 -18q10 -19 10 -42q0 -26 -10 -44t-24 -18q-13 0 -23 18q-5 9 -8.5 19.5t-3.5 24.5z" />
    <glyph glyph-name="aring" unicode="&#xe5;" horiz-adv-x="219" 
d="M111 506q-21 0 -21 -34v-85q-38 -17 -73 -60v121q0 20 0.5 35t2.5 24q3 14 9.5 24.5t14.5 20.5q23 26 65 26q43 0 70 -28q8 -8 13 -17.5t7 -21.5q2 -9 3 -22.5t1 -32.5v-377q0 -18 0.5 -29.5t1.5 -16.5q2 -17 18 -33h-151q-10 0 -17 0.5t-11 2.5q-8 5 -12.5 12.5
t-7.5 18.5q-3 10 -3.5 29t-0.5 47v93v35q0 14 2 20q5 19 22 37q6 6 14.5 13.5t22.5 18.5q25 19 30 25q10 8 13.5 22.5t5.5 28.5v82q0 11 -5.5 16t-13.5 5zM90 113v-17t1 -11q2 -7 12 -9.5t27 -2.5v201q-10 -9 -16 -13.5t-8 -6.5q-16 -13 -16 -30v-111zM53 712q0 11 4 19
t9 16q15 22 50 22q18 0 30.5 -6t19.5 -16q4 -7 6.5 -14t3.5 -15q1 -5 1 -13v-19v-6q0 -11 -0.5 -20t-0.5 -14q-3 -13 -10 -28q-14 -21 -50 -21q-35 0 -50 21q-5 8 -8.5 16.5t-3.5 17.5q-1 8 -1 17v24v19zM150 712q0 30 -35 30t-35 -30v-56q0 -32 35 -32t35 32v56z" />
    <glyph glyph-name="ae" unicode="&#xe6;" horiz-adv-x="369" 
d="M320 114q0 -30 -4.5 -51.5t-12.5 -33.5q-19 -34 -75 -34q-20 0 -37 5h-114q-10 0 -17 0.5t-11 2.5q-8 5 -12.5 12.5t-7.5 18.5q-3 10 -3.5 29t-0.5 47v93v35q0 14 2 20q5 19 22 37q6 6 14.5 13.5t22.5 18.5q25 19 30 25q10 8 13.5 22.5t5.5 28.5v82q0 11 -5.5 16t-13.5 5
q-21 0 -21 -34v-85q-38 -17 -73 -60v121q0 20 0.5 35t2.5 24q3 14 9.5 24.5t14.5 20.5q23 26 65 26q34 0 56 -16q11 9 24.5 14t33.5 5q55 0 75 -33q17 -28 17 -87v-119q-30 -3 -58.5 -15.5t-54.5 -36.5v-194q0 -32 20 -32q21 0 21 32v160q22 29 72 34v-176zM95 113v-17
t1 -11q2 -7 12 -9.5t27 -2.5v201q-10 -9 -16 -13.5t-8 -6.5q-16 -13 -16 -30v-111zM248 481q0 31 -21 31q-20 0 -20 -31v-108l41 19v89z" />
    <glyph glyph-name="ccedilla" unicode="&#xe7;" horiz-adv-x="229" 
d="M210 116q0 -17 -1 -29.5t-3 -20.5q-2 -11 -5.5 -21.5t-9.5 -19.5q-5 -8 -11.5 -14.5t-15.5 -11.5v-13q4 -31 -7 -56t-25 -35q-10 -8 -25 -8q-30 0 -60 29l9 48q25 -21 40 -21q9 0 16 9q8 10 8 29v10h-4q-51 0 -74 32q-8 11 -12 24t-7 26q-3 11 -3.5 27t-0.5 36v295
q0 20 0.5 36t3.5 27q3 14 7 27t12 24q24 32 74 32q55 0 75 -33q6 -11 10 -21t5 -22q2 -8 3 -20t1 -29v-64l-74 -33v122q0 31 -21 31q-20 0 -20 -31v-385q0 -32 20 -32h5q2 0 2 1q14 5 14 31v160l74 37v-173z" />
    <glyph glyph-name="egrave" unicode="&#xe8;" horiz-adv-x="223" 
d="M206 111q0 -30 -4.5 -51.5t-12.5 -33.5q-19 -34 -75 -34q-51 0 -74 32q-8 11 -13 24t-6 26q-1 11 -2.5 27t-1.5 36v295q0 20 0.5 36t3.5 27q3 13 7 26t12 25q23 32 74 32q55 0 75 -33q17 -28 17 -87v-119q-30 -3 -58.5 -15.5t-54.5 -36.5v-194q0 -32 20 -32q21 0 21 32
v160q22 29 72 34v-176zM134 478q0 31 -21 31q-20 0 -20 -31v-108l41 19v89zM218 587h-37q-45 23 -68 33q-26 12 -51 24q-35 19 -35 30q0 9 10 15t22 6q21 0 52 -22q3 -3 42 -33q21 -17 65 -53z" />
    <glyph glyph-name="eacute" unicode="&#xe9;" horiz-adv-x="223" 
d="M206 111q0 -30 -4.5 -51.5t-12.5 -33.5q-19 -34 -75 -34q-51 0 -74 32q-8 11 -13 24t-6 26q-1 11 -2.5 27t-1.5 36v295q0 20 0.5 36t3.5 27q3 13 7 26t12 25q23 32 74 32q55 0 75 -33q17 -28 17 -87v-119q-30 -3 -58.5 -15.5t-54.5 -36.5v-194q0 -32 20 -32q21 0 21 32
v160q22 29 72 34v-176zM134 478q0 31 -21 31q-20 0 -20 -31v-108l41 19v89zM16 590q44 36 65 53q39 30 42 33q31 22 52 22q12 0 22 -6t10 -15q0 -11 -35 -30q-25 -12 -51 -24q-23 -10 -68 -33h-37v0z" />
    <glyph glyph-name="ecircumflex" unicode="&#xea;" horiz-adv-x="223" 
d="M206 111q0 -30 -4.5 -51.5t-12.5 -33.5q-19 -34 -75 -34q-51 0 -74 32q-8 11 -13 24t-6 26q-1 11 -2.5 27t-1.5 36v295q0 20 0.5 36t3.5 27q3 13 7 26t12 25q23 32 74 32q55 0 75 -33q17 -28 17 -87v-119q-30 -3 -58.5 -15.5t-54.5 -36.5v-194q0 -32 20 -32q21 0 21 32
v160q22 29 72 34v-176zM134 478q0 31 -21 31q-20 0 -20 -31v-108l41 19v89zM123 682l69 -87h-23l-67 58l-68 -58h-23l70 87h42z" />
    <glyph glyph-name="edieresis" unicode="&#xeb;" horiz-adv-x="223" 
d="M206 111q0 -30 -4.5 -51.5t-12.5 -33.5q-19 -34 -75 -34q-51 0 -74 32q-8 11 -13 24t-6 26q-1 11 -2.5 27t-1.5 36v295q0 20 0.5 36t3.5 27q3 13 7 26t12 25q23 32 74 32q55 0 75 -33q17 -28 17 -87v-119q-30 -3 -58.5 -15.5t-54.5 -36.5v-194q0 -32 20 -32q21 0 21 32
v160q22 29 72 34v-176zM134 478q0 31 -21 31q-20 0 -20 -31v-108l41 19v89zM29 655q0 12 3 21.5t9 20.5q10 18 23 18t24 -18q10 -19 10 -42q0 -26 -10 -44t-24 -18q-13 0 -23 18q-5 9 -8.5 19.5t-3.5 24.5zM129 655q0 12 3 21.5t9 20.5q10 18 23 18t24 -18q10 -19 10 -42
q0 -26 -10 -44t-24 -18q-13 0 -23 18q-5 9 -8.5 19.5t-3.5 24.5z" />
    <glyph glyph-name="igrave" unicode="&#xec;" horiz-adv-x="139" 
d="M24 9q3 6 6 11t4 10q3 13 3 43v383q0 52 -3 66q-1 12 -8.5 22.5t-15.5 24.5h99v-498q0 -13 0.5 -23.5t2.5 -17.5q2 -5 4.5 -10t7.5 -11l7 -9h-113zM141.784 604.421h-28.4766q-34.6348 17.6748 -52.3369 25.3604q-20.0107 9.22168 -39.252 18.4434
q-26.9385 14.6016 -26.9385 23.0547q0 6.91699 7.69727 11.5283q7.69629 4.61035 16.9316 4.61035q16.1631 0 40.0225 -16.9062q2.30859 -2.30566 32.3252 -25.3604q16.1631 -13.0645 50.0273 -40.7305z" />
    <glyph glyph-name="iacute" unicode="&#xed;" horiz-adv-x="139" 
d="M24 9q3 6 6 11t4 10q3 13 3 43v383q0 52 -3 66q-1 12 -8.5 22.5t-15.5 24.5h99v-498q0 -13 0.5 -23.5t2.5 -17.5q2 -5 4.5 -10t7.5 -11l7 -9h-113zM-6.17383 602.798q35.2461 28.999 52.0674 42.6934q31.2393 24.167 33.6426 26.583q24.832 17.7217 41.6533 17.7217
q9.6123 0 17.623 -4.83301q8.00977 -4.83301 8.00977 -12.083q0 -8.86133 -28.0352 -24.166q-20.0264 -9.66699 -40.8525 -19.333q-18.4238 -8.05566 -54.4697 -26.583h-29.6387v0z" />
    <glyph glyph-name="icircumflex" unicode="&#xee;" horiz-adv-x="139" 
d="M24 9q3 6 6 11t4 10q3 13 3 43v383q0 52 -3 66q-1 12 -8.5 22.5t-15.5 24.5h99v-498q0 -13 0.5 -23.5t2.5 -17.5q2 -5 4.5 -10t7.5 -11l7 -9h-113zM93.1289 666.614l62.9023 -78.998h-20.9668l-61.0791 52.665l-61.9902 -52.665h-20.9678l63.8145 78.998h38.2871z" />
    <glyph glyph-name="idieresis" unicode="&#xef;" horiz-adv-x="139" 
d="M24 9q3 6 6 11t4 10q3 13 3 43v383q0 52 -3 66q-1 12 -8.5 22.5t-15.5 24.5h99v-498q0 -13 0.5 -23.5t2.5 -17.5q2 -5 4.5 -10t7.5 -11l7 -9h-113zM-13 654q0 12 3 21.5t9 20.5q10 18 23 18t24 -18q10 -19 10 -42q0 -26 -10 -44t-24 -18q-13 0 -23 18q-5 9 -8.5 19.5
t-3.5 24.5zM87 654q0 12 3 21.5t9 20.5q10 18 23 18t24 -18q10 -19 10 -42q0 -26 -10 -44t-24 -18q-13 0 -23 18q-5 9 -8.5 19.5t-3.5 24.5z" />
    <glyph glyph-name="ntilde" unicode="&#xf1;" horiz-adv-x="245" 
d="M131 0q10 13 15 39q1 5 2 17t1 31v385q0 29 -16 35q-2 1 -8.5 1.5t-18.5 0.5v-442q0 -19 1 -32t5 -23l4 -12h-104l7 11q10 15 11 21q2 8 2.5 18.5t0.5 24.5v384q0 50 -3 65q-2 10 -8 20.5t-17 24.5h124q57 0 74 -36q10 -20 13 -58q2 -9 2 -26v-39v-369q0 -13 2.5 -19
t6 -9t6 -5.5t2.5 -7.5h-104zM190.613 709.254h16.9434q-16.0967 -100.982 -61.8438 -100.982q-14.4023 0 -41.5117 21.9307t-38.9688 21.9307q-20.332 0 -32.1934 -44.8809h-19.4844q17.791 97.9219 63.5371 97.9219q14.4023 0 40.2412 -21.9307t41.0869 -21.9307
q20.332 0 32.1934 47.9414z" />
    <glyph glyph-name="ograve" unicode="&#xf2;" horiz-adv-x="224" 
d="M17 432q0 42 4 61q3 15 7 27.5t12 24.5q22 33 74 33q28 0 46.5 -9t28.5 -24q6 -11 10 -21t5 -22q1 -8 1.5 -20.5t0.5 -28.5v-336q0 -17 -0.5 -30t-1.5 -21q-2 -12 -5.5 -21.5t-9.5 -20.5q-20 -32 -75 -32q-26 0 -45.5 7.5t-28.5 24.5q-6 11 -11.5 24t-7.5 26q-4 20 -4 63
v295zM113 509q-20 0 -20 -31v-385q0 -32 20 -32q21 0 21 32v385q0 31 -21 31zM218 595h-37q-45 23 -68 33q-26 12 -51 24q-35 19 -35 30q0 9 10 15t22 6q21 0 52 -22q3 -3 42 -33q21 -17 65 -53z" />
    <glyph glyph-name="oacute" unicode="&#xf3;" horiz-adv-x="224" 
d="M17 432q0 42 4 61q3 15 7 27.5t12 24.5q22 33 74 33q28 0 46.5 -9t28.5 -24q6 -11 10 -21t5 -22q1 -8 1.5 -20.5t0.5 -28.5v-336q0 -17 -0.5 -30t-1.5 -21q-2 -12 -5.5 -21.5t-9.5 -20.5q-20 -32 -75 -32q-26 0 -45.5 7.5t-28.5 24.5q-6 11 -11.5 24t-7.5 26q-4 20 -4 63
v295zM113 509q-20 0 -20 -31v-385q0 -32 20 -32q21 0 21 32v385q0 31 -21 31zM14 592q44 36 65 53q39 30 42 33q31 22 52 22q12 0 22 -6t10 -15q0 -11 -35 -30q-25 -12 -51 -24q-23 -10 -68 -33h-37v0z" />
    <glyph glyph-name="ocircumflex" unicode="&#xf4;" horiz-adv-x="224" 
d="M17 432q0 42 4 61q3 15 7 27.5t12 24.5q22 33 74 33q28 0 46.5 -9t28.5 -24q6 -11 10 -21t5 -22q1 -8 1.5 -20.5t0.5 -28.5v-336q0 -17 -0.5 -30t-1.5 -21q-2 -12 -5.5 -21.5t-9.5 -20.5q-20 -32 -75 -32q-26 0 -45.5 7.5t-28.5 24.5q-6 11 -11.5 24t-7.5 26q-4 20 -4 63
v295zM113 509q-20 0 -20 -31v-385q0 -32 20 -32q21 0 21 32v385q0 31 -21 31zM123 677l69 -87h-23l-67 58l-68 -58h-23l70 87h42z" />
    <glyph glyph-name="otilde" unicode="&#xf5;" horiz-adv-x="224" 
d="M17 432q0 42 4 61q3 15 7 27.5t12 24.5q22 33 74 33q28 0 46.5 -9t28.5 -24q6 -11 10 -21t5 -22q1 -8 1.5 -20.5t0.5 -28.5v-336q0 -17 -0.5 -30t-1.5 -21q-2 -12 -5.5 -21.5t-9.5 -20.5q-20 -32 -75 -32q-26 0 -45.5 7.5t-28.5 24.5q-6 11 -11.5 24t-7.5 26q-4 20 -4 63
v295zM113 509q-20 0 -20 -31v-385q0 -32 20 -32q21 0 21 32v385q0 31 -21 31zM193.732 700.027h16.332q-15.5156 -91.0781 -59.6113 -91.0781q-13.8818 0 -40.0127 19.7803q-26.1309 19.7793 -37.5635 19.7793q-19.5977 0 -31.0303 -40.4795h-18.7812
q17.1484 88.3184 61.2441 88.3184q13.8818 0 38.7881 -19.7793t39.6045 -19.7793q19.5986 0 31.0303 43.2383z" />
    <glyph glyph-name="odieresis" unicode="&#xf6;" horiz-adv-x="224" 
d="M17 432q0 42 4 61q3 15 7 27.5t12 24.5q22 33 74 33q28 0 46.5 -9t28.5 -24q6 -11 10 -21t5 -22q1 -8 1.5 -20.5t0.5 -28.5v-336q0 -17 -0.5 -30t-1.5 -21q-2 -12 -5.5 -21.5t-9.5 -20.5q-20 -32 -75 -32q-26 0 -45.5 7.5t-28.5 24.5q-6 11 -11.5 24t-7.5 26q-4 20 -4 63
v295zM113 509q-20 0 -20 -31v-385q0 -32 20 -32q21 0 21 32v385q0 31 -21 31zM29 659q0 12 3 21.5t9 20.5q10 18 23 18t24 -18q10 -19 10 -42q0 -26 -10 -44t-24 -18q-13 0 -23 18q-5 9 -8.5 19.5t-3.5 24.5zM129 659q0 12 3 21.5t9 20.5q10 18 23 18t24 -18q10 -19 10 -42
q0 -26 -10 -44t-24 -18q-13 0 -23 18q-5 9 -8.5 19.5t-3.5 24.5z" />
    <glyph glyph-name="oslash" unicode="&#xf8;" horiz-adv-x="224" 
d="M169 640l-9 -71q18 -8 29 -24q6 -11 10 -21t5 -22q1 -8 1.5 -20.5t0.5 -28.5v-336q0 -17 -0.5 -30t-1.5 -21q-2 -12 -5.5 -21.5t-9.5 -20.5q-20 -32 -75 -32q-6 0 -12 0.5t-11 1.5l-8 -72h-26l9 78q-8 4 -15 10t-11 14q-6 11 -11.5 24t-7.5 26q-4 20 -4 63v295q0 42 4 61
q3 15 7 27.5t12 24.5q22 33 74 33q6 0 11.5 -0.5t10.5 -1.5l8 64h25zM113 509q-20 0 -20 -31v-259l34 284q-5 6 -14 6zM113 61q21 0 21 32v256l-34 -283q5 -5 13 -5z" />
    <glyph glyph-name="ugrave" unicode="&#xf9;" horiz-adv-x="258" 
d="M153 493q0 14 -0.5 25t-3.5 18q-2 17 -16 33h96v-484v-48q3 -19 14 -37h-131q-49 0 -71 37q-5 11 -8.5 39t-3.5 73v310q0 26 -1 42t-2 22q-3 11 -9.5 21.5t-17.5 24.5h106v-449q0 -51 23 -51h25v424v0zM218 590h-37q-45 23 -68 33q-26 12 -51 24q-35 19 -35 30q0 9 10 15
t22 6q21 0 52 -22q3 -3 42 -33q21 -17 65 -53z" />
    <glyph glyph-name="uacute" unicode="&#xfa;" horiz-adv-x="258" 
d="M153 493q0 14 -0.5 25t-3.5 18q-2 17 -16 33h96v-484v-48q3 -19 14 -37h-131q-49 0 -71 37q-5 11 -8.5 39t-3.5 73v310q0 26 -1 42t-2 22q-3 11 -9.5 21.5t-17.5 24.5h106v-449q0 -51 23 -51h25v424v0zM26 590q44 36 65 53q39 30 42 33q31 22 52 22q12 0 22 -6t10 -15
q0 -11 -35 -30q-25 -12 -51 -24q-23 -10 -68 -33h-37v0z" />
    <glyph glyph-name="ucircumflex" unicode="&#xfb;" horiz-adv-x="258" 
d="M153 493q0 14 -0.5 25t-3.5 18q-2 17 -16 33h96v-484v-48q3 -19 14 -37h-131q-49 0 -71 37q-5 11 -8.5 39t-3.5 73v310q0 26 -1 42t-2 22q-3 11 -9.5 21.5t-17.5 24.5h106v-449q0 -51 23 -51h25v424v0zM123 678l69 -87h-23l-67 58l-68 -58h-23l70 87h42z" />
    <glyph glyph-name="udieresis" unicode="&#xfc;" horiz-adv-x="258" 
d="M153 493q0 14 -0.5 25t-3.5 18q-2 17 -16 33h96v-484v-48q3 -19 14 -37h-131q-49 0 -71 37q-5 11 -8.5 39t-3.5 73v310q0 26 -1 42t-2 22q-3 11 -9.5 21.5t-17.5 24.5h106v-449q0 -51 23 -51h25v424v0zM43 654q0 12 3 21.5t9 20.5q10 18 23 18t24 -18q10 -19 10 -42
q0 -26 -10 -44t-24 -18q-13 0 -23 18q-5 9 -8.5 19.5t-3.5 24.5zM143 654q0 12 3 21.5t9 20.5q10 18 23 18t24 -18q10 -19 10 -42q0 -26 -10 -44t-24 -18q-13 0 -23 18q-5 9 -8.5 19.5t-3.5 24.5z" />
    <glyph glyph-name="yacute" unicode="&#xfd;" horiz-adv-x="261" 
d="M22 -123v83q20 -17 42 -17q36 0 36 49q0 6 -2.5 25t-6.5 53l-56 430q-6 50 -22 69h105q-9 -32 -9 -63q0 -8 0.5 -20t2.5 -29l26 -282l22 282q1 12 1 21v17q0 38 -14 74h106q-9 -15 -15 -33t-8 -38l-40 -430q0 -1 -1.5 -18.5t-5.5 -49.5q-3 -29 -6.5 -46t-6.5 -27
q-4 -15 -13 -24.5t-22 -14.5q-14 -5 -33.5 -8t-48.5 -3h-31zM32 592q44 36 65 53q39 30 42 33q31 22 52 22q12 0 22 -6t10 -15q0 -11 -35 -30q-25 -12 -51 -24q-23 -10 -68 -33h-37v0z" />
    <glyph glyph-name="ydieresis" unicode="&#xff;" horiz-adv-x="261" 
d="M22 -123v83q20 -17 42 -17q36 0 36 49q0 6 -2.5 25t-6.5 53l-56 430q-6 50 -22 69h105q-9 -32 -9 -63q0 -8 0.5 -20t2.5 -29l26 -282l22 282q1 12 1 21v17q0 38 -14 74h106q-9 -15 -15 -33t-8 -38l-40 -430q0 -1 -1.5 -18.5t-5.5 -49.5q-3 -29 -6.5 -46t-6.5 -27
q-4 -15 -13 -24.5t-22 -14.5q-14 -5 -33.5 -8t-48.5 -3h-31zM46 652q0 12 3 21.5t9 20.5q10 18 23 18t24 -18q10 -19 10 -42q0 -26 -10 -44t-24 -18q-13 0 -23 18q-5 9 -8.5 19.5t-3.5 24.5zM146 652q0 12 3 21.5t9 20.5q10 18 23 18t24 -18q10 -19 10 -42q0 -26 -10 -44
t-24 -18q-13 0 -23 18q-5 9 -8.5 19.5t-3.5 24.5z" />
    <glyph glyph-name="OE" unicode="&#x152;" horiz-adv-x="401" 
d="M375 570q-8 26 -23 39t-39 13h-71v-212h37q12 0 21 0.5t14 4.5q10 4 17 14t14 23v-169q-6 12 -12 21t-13 13q-13 7 -32 7h-46v-244h90q17 0 26.5 9.5t16.5 29.5v-119h-236q-48 0 -79 30q-17 17 -23 41q-2 11 -4 26t-2 35v439q0 18 2 32.5t4 23.5q6 25 23 44q31 29 78 29
h237v-130zM159 95q1 5 2 13.5t2 19.5v443q-1 12 -2 21t-2 14q-5 21 -20 21q-18 0 -24 -19q-1 -8 -2 -18t-1 -27v-426q0 -17 1 -27t2 -17q6 -18 24 -18q16 0 20 20z" />
    <glyph glyph-name="oe" unicode="&#x153;" horiz-adv-x="369" 
d="M338 110q0 -30 -4.5 -51.5t-12.5 -33.5q-19 -34 -75 -34q-36 0 -58 16q-21 -15 -59 -15q-51 0 -74 32q-13 24 -19 50q-1 11 -2.5 27t-1.5 36v295q0 20 1.5 35t2.5 26q3 15 8 27t11 25q22 33 74 33q37 0 59 -17q11 8 25 12t33 4q55 0 75 -33q17 -28 17 -87v-119
q-30 -3 -58.5 -15.5t-54.5 -36.5v-194q0 -32 20 -32q21 0 21 32v160q22 29 72 34v-176zM149 478q0 31 -21 31q-20 0 -20 -31v-385q0 -32 20 -32q21 0 21 32v338v28v19zM266 477q0 31 -21 31q-20 0 -20 -31v-108l41 19v89z" />
    <glyph glyph-name="Scaron" unicode="&#x160;" horiz-adv-x="244" 
d="M16 340v-218q0 -20 1.5 -35t2.5 -26q5 -13 10.5 -23t14.5 -18q30 -30 78 -30q50 0 77 30q26 28 26 104v122q0 28 -1.5 47t-3.5 31q-4 15 -12 28t-20 26q-14 14 -24 25t-17 17l-16 16t-18 15q-17 21 -17 54v72q0 14 0.5 24.5t2.5 18.5q7 17 21 17q18 0 23 -24
q2 -8 3 -19.5t1 -29.5v-59l78 -74v145q0 76 -26 102q-29 32 -79 32q-45 0 -76 -29q-16 -16 -25 -44q-1 -9 -2.5 -23.5t-1.5 -32.5v-95q0 -24 5.5 -43t16.5 -35q4 -5 15.5 -16.5t31.5 -27.5q40 -34 47 -54q16 -29 16 -98v-83q0 -31 -5 -44q-5 -20 -22 -20q-15 0 -21 16
q-2 7 -2.5 17.5t-0.5 25.5v156zM104 732l-68 86h22l67 -57l65 57h23l-68 -86h-41z" />
    <glyph glyph-name="scaron" unicode="&#x161;" horiz-adv-x="222" 
d="M133 218v-127q0 -32 -21 -32q-20 0 -20 32v124l-76 58v-137q0 -45 7.5 -74t21.5 -45q22 -25 70 -25q21 0 38 5.5t27 17.5q25 27 25 84v84q0 37 -3 61t-12 38q-5 8 -17.5 20t-34.5 32l-8 6q-26 18 -27 23q-11 14 -11 44v71q0 31 20 31q21 0 21 -31v-76q19 -5 37.5 -15
t34.5 -28v92q0 20 -0.5 35.5t-2.5 26.5q-5 13 -10.5 24.5t-13.5 19.5q-26 21 -65 21q-44 0 -68 -29q-29 -29 -29 -117v-22q0 -20 3 -34t9 -27q5 -19 23 -33q9 -10 16.5 -17t15.5 -15l8 -7q9 -8 15.5 -13.5t11.5 -11.5q4 -4 7 -7.5t5 -4.5q1 -4 2 -9t1 -13zM97 605l-71 88h23
l69 -59l68 59h23l-70 -88h-42z" />
    <glyph glyph-name="Ydieresis" unicode="&#x178;" horiz-adv-x="285" 
d="M182 80q0 -16 0.5 -27.5t2.5 -18.5q6 -16 21 -34h-128q18 19 22 32q2 7 2.5 19t0.5 29v198l-74 370q-6 35 -22 52h112q-4 -11 -6.5 -24t-2.5 -29q0 -11 2.5 -28.5t6.5 -43.5l23 -144l24 144q4 26 6 43.5t2 28.5q0 31 -8 53h112q-8 -7 -13 -20t-9 -32l-74 -368v-200z
M57 789q0 12 3 21.5t9 20.5q10 18 23 18t24 -18q10 -19 10 -42q0 -26 -10 -44t-24 -18q-13 0 -23 18q-5 9 -8.5 19.5t-3.5 24.5zM157 789q0 12 3 21.5t9 20.5q10 18 23 18t24 -18q10 -19 10 -42q0 -26 -10 -44t-24 -18q-13 0 -23 18q-5 9 -8.5 19.5t-3.5 24.5z" />
    <glyph glyph-name="florin" unicode="&#x192;" horiz-adv-x="699" 
d="M14 0q2 99 7.5 180t18.5 147t35.5 119t59.5 98t89.5 83t125.5 73q73 -35 126 -73t90 -83t59.5 -98t35.5 -119t18.5 -147t7.5 -180h-673zM662 30q-2 82 -6.5 148.5t-13.5 123.5q-1 35 -22.5 61.5t-53.5 36.5q11 22 11 46q0 22 -8.5 41.5t-23.5 34t-34.5 23t-41.5 8.5h-12
q1 4 1 11q0 22 -8.5 41.5t-23 34t-34.5 23t-42 8.5t-41.5 -8.5t-34 -23t-23 -34t-8.5 -41.5l1 -11h-12q-22 0 -41.5 -8.5t-34 -23t-23 -34t-8.5 -41.5q0 -23 10 -46q-32 -9 -51.5 -32t-24.5 -64v-1q-9 -57 -13.5 -124t-6.5 -149h623zM49 39q2 88 7 159t17 130q5 23 27 42
t49 24q-15 24 -15 52q0 41 28.5 69.5t69.5 28.5q12 0 23 -3q-3 12 -3 23q0 20 7.5 37.5t21 31t31.5 21t38 7.5t38 -7.5t31.5 -21t21 -31t7.5 -37.5v-12q0 -5 -2 -11q10 3 22 3q42 0 70.5 -28.5t28.5 -69.5q0 -14 -4 -27t-11 -25q29 -5 50 -25t28 -48v-1q11 -58 16 -126.5
t7 -154.5h-604zM339 517q-1 -2 -1 -3v0q0 -2 2 -2q0 -1 1 -1.5l1 -0.5q2 0 4 2v5q0 4 4 4q2 0 3 -1q1 -2 1 -5l2 -4q0 -1 2 -1t2 1q0 2 1 3l2 6q2 2 4 2t2 -5l2 -1q3 7 7 11q2 2 9 4q4 0 6 2t2 5q0 1 -0.5 2t-0.5 3q-1 3 -1 6q0 4 4 11l4 11q1 3 1 12q0 21 -14 31
q-15 12 -36 12q-11 0 -20 -3t-18 -8l-6 -6t-5 -8q-4 -7 -4 -17v-9q0 -3 2 -8q2 -8 5 -14q2 -4 2 -7v-3q0 -2 -0.5 -3t-0.5 -2q0 -5 3 -6q2 -2 6 -2l9 -3q3 -4 4 -11l2 -1q1 7 5 7q3 0 3 -2v-3zM471 202q2 -4 2 -7q0 -2 -1 -3l-4 -49l-5 52q0 3 2 7h-15q3 -3 3 -13l7 -70
q0 -5 -2 -6h19q-2 4 -2 6v6l4 32l3 -33q0 -2 0.5 -3t0.5 -2q0 -5 -3 -6h20q-3 3 -3 6q0 4 1 6l7 64q2 12 3 13h-15q2 -4 2 -6l-5 -53l-4 49q-1 1 -1 3q0 3 2 7h-16zM328 504q0 4 -2 8q-3 5 -4 6v-17q5 -8 12 -13q8 -4 16 -4q5 0 8.5 1t7.5 3l6 6t6 7q0 11 1 13v6h1
q-1 0 -4 -3l-2 -9v-4l-4 -1q-2 5 -4 5h-1l-1 -1q0 -1 -2 -3q0 -1 -2 -3q0 -1 -2 -1t-2 1q-2 2 -2 3q-3 3 -4 3l-1 -0.5t-2 -2.5q-2 -3 -4 -3q-1 0 -2 0.5l-1 0.5q-2 2 -2 4t-1 2.5l-1 0.5q-3 0 -3 -7zM188 559q10 3 20 5t21 2h5v4q0 18 4 31q-14 -11 -26.5 -21t-23.5 -21z
M463 597q2 -7 3 -14.5t1 -15.5v-4h5q21 0 40 -8q-11 11 -23 21.5t-26 20.5zM404 468l3 -5q1 -1 1 -7v-70q0 -14 -6 -20h1q7 0 11 8l3 4q2 0 3 1q0 1 -2 5v44l10 -38q2 -8 2 -7q0 -2 -2 -4h16q-2 4 -2 5v80q0 1 3 4h-18q1 -2 2 -3t1 -2v-45l-12 50h-14zM288 468q-8 0 -12 -4
q-2 -6 -2 -16v-64q0 -5 -1 -8.5t-3 -8.5q4 2 6 4l1.5 1.5t4.5 3.5q3 3 5 4q-1 0 -1 1v1q0 1 -0.5 1.5t-0.5 2.5v16l8 3v-15q0 -5 -1 -6q0 -3 -2 -5h17q-2 4 -2 5q-1 0 -1 5v71q0 4 1 4q0 2 2 4h-19zM386 178q2 -1 2 -5v-56q0 -3 -2 -5q2 -1 6 -9l2 -4q3 -8 9 -8h1q-2 2 -4 6
q0 2 -0.5 3.5t-0.5 3.5t-0.5 4t-0.5 5v60q0 7 -2 8q-3 5 -10 5h-18q4 -4 4 -6v-64q0 -1 -2 -3h14q-1 0 -1 8v57h3zM183 197v-81q0 -1 -2 -3h14q-1 0 -1 4v60q2 0 2.5 -0.5t1.5 -0.5l0.5 -2t0.5 -4v-49q0 -6 -2 -8q3 -3 4 -3q1 -1 3 -5t4 -6q4 -2 5 -2l-2 4t-1 4q-1 2 -1 9
v54q0 9 -2 13q-1 3 -5 5h-8v6l2 4q-2 0 -8 3l-5 3q-1 1 -4 1h-1zM489 303q-1 5 -1 9v6h-14l3 -5q1 -1 1 -6l6 -25l-5 -24q-1 -3 -1 -5q0 -1 -1 -3q-1 -1 -1 -3q0 -1 -2 -3h14v14l3 17l3 -17q1 -4 1 -8t-1 -6h14q-1 2 -1.5 3.5t-1.5 2.5q0 2 -0.5 3.5t-0.5 4.5l-5 24l5 25
l2 6q0 1 2 5h-14q1 -2 1 -6t-1 -9l-3 -14zM364 468q3 -2 3 -4q1 -1 1 -6v-68q0 -6 -1 -7q0 -3 -3 -4h34v15q-1 -4 -6 -4h-12v30h10q3 -1 4 -5v22q-1 -4 -4 -5q-2 -1 -6 -1h-4v27h10q6 0 8 -6v16h-34zM235 468q2 -2 3 -4v-81l-3 -4h33v15q0 -4 -6 -4h-12v30h10q3 -1 4 -5v22
q-1 -4 -4 -5q-1 0 -2 -0.5t-3 -0.5h-5v27h10q6 0 8 -6v16h-33zM198 468q3 -1 4 -4v-74v-6q-1 -2 -4 -5h17q4 0 6 1q4 0 5 1q4 2 4 5q2 3 2 14v52q0 8 -2 12q-3 4 -10 4h-22zM312 468q2 -2 2 -4q1 -1 1 -7v-67q0 -5 -1 -6q0 -1 -2 -5h16q4 0 6 1q4 0 6 1t4 5q0 2 0.5 5.5
t0.5 8.5v52q0 8 -2 12q-3 4 -10 4h-21zM449 468q3 -3 3 -4v-80q0 -2 -1 -2.5t-2 -2.5h16q2 0 6.5 0.5t5.5 1.5q2 1 4 5q1 3 1 14v52q0 10 -2 12q-3 4 -10 4h-21zM272 192q0 2 0.5 3.5t0.5 2.5l1 1q0 1 2 3h-17q1 -2 3 -4v-82l-3 -3h25q8 0 8 6q0 5 -5 12q0 -4 -1 -5
q0 -4 -9 -4h-5v70zM260 244q5 1 7 6q0 2 0.5 4.5t0.5 6.5v36q0 8 -2 14q0 4 -4 6q-2 0 -3.5 0.5t-5.5 0.5h-13q2 -2 2 -3t1 -2v-61q0 -12 -1 -16q-2 -2 -3.5 -5l-3.5 -7h1q2 0 6 2l1 1.5t3 3.5q1 3 4 4q1 1 5 1q-1 2 -1 4t-1 4h7zM311 186q3 -3 3 -9l6 -58q0 -4 -1 -6h17
q-2 2 -2 6l6 57q2 8 4 10h-15q2 -6 2 -10l-3 -42l-4 37v7q0 5 2 8h-15zM586 448q0 -21 -8 -42q20 -8 32 -19q-5 17 -11 32.5t-13 30.5v-2zM91 392q8 5 15.5 9.5t16.5 7.5q-8 21 -8 42v3q-7 -15 -13 -30t-11 -32zM439 334q1 -2 2 -2.5t1 -1.5v-82q0 -1 -1 -1.5t-2 -2.5h32v16
q-1 -5 -6 -5h-11v31h5q3 0 4 -1l2 -2t2 -3v22q-1 -2 -4 -5q-1 0 -2 -0.5t-3 -0.5h-4v28h8q8 0 9 -7v17h-32zM151 334l2 -4q1 -2 1 -6v-70q0 -4 -1 -6l-2 -4h17q-1 2 -2 2.5t-1 1.5v31h6q5 0 7 3q1 0 1.5 1l0.5 1q1 2 1 12v21q0 10 -2 13q-2 4 -9 4h-19zM607 194q-3 0 -5 2
q-2 0 -3 1t-2 1q-2 2 -3 2l-1 1l-4 2q1 -3 3 -7q1 -2 1 -8v-2h-7q-5 -1 -7 -6q0 -2 -0.5 -4.5t-0.5 -6.5v-36q0 -5 0.5 -8.5t0.5 -5.5q2 -5 5 -6h22q-3 1 -3 4v71q2 4 4 6zM432 181q0 2 3 5h-13q-8 0 -9 -1q-3 -1 -5 -5q0 -2 -0.5 -6t-0.5 -9v-36q0 -4 0.5 -6.5t0.5 -4.5
t1 -2.5t2 -2.5h11v-4q0 -1 -2 -3q0 -1 -5 -1h-4q-1 1 -2 1.5t-2 2.5v-12h11q9 0 12 4q2 4 2 11v69zM287 310q3 0 3 -4v-10q0 -2 -2 -6l-1.5 -1t-3.5 -3q-3 -2 -5 -4q-1 -1 -3 -4v-19q0 -9 1 -10q0 -2 2 -4q1 0 1.5 -0.5t2.5 -0.5h20q-2 4 -2 5v54q0 5 -1 7q-2 5 -3 5
q-3 4 -9 4t-9 -3q-2 -2 -2 -3t-1 -3v-24q5 7 9 8v11q0 5 3 5zM395 262q0 -3 0.5 -4.5t0.5 -3.5q0 -1 2 -7q3 -4 10 -4t10 5q2 1 2 5q0 1 0.5 2.5t0.5 4.5v42q0 3 -0.5 4.5t-0.5 2.5q0 4 -2 5q-3 5 -10 5q-8 0 -10 -5q-2 -4 -2 -6t-0.5 -3.5t-0.5 -4.5v-38zM358 281
q-7 0 -10 -4v-21q0 -4 -3 -4t-3 4v25q7 7 16 7v15q0 7 -2 11q-3 5 -11 5t-10 -5q-2 -4 -2 -6q-1 -2 -1 -8v-38q0 -6 1 -8q0 -1 2 -7q3 -4 10 -4q8 0 11 5q2 4 2 10v23zM237 281q-6 0 -10 -4v-21q0 -4 -3 -4q-2 0 -2 4v25q6 7 15 7v15q0 7 -2 11q-3 5 -10 5q-9 0 -11 -5
q-2 -4 -2 -6v-54q0 -1 2 -7q3 -4 11 -4q7 0 10 5q2 4 2 10v23zM240 149q-4 0 -10 -4v-21q0 -4 -2 -4q-3 0 -3 4v25q7 5 15 7v15q0 9 -2 12q-3 4 -10 4t-10 -4q-1 -1 -3 -7v-54q2 -6 3 -7q4 -4 10 -4t10 4q2 2 2 12v22zM508 130q0 -3 0.5 -4.5t0.5 -3.5q2 -6 3 -7q4 -4 10 -4
t10 4q2 4 2 6v56q0 2 -2 6q-3 4 -10 4t-10 -4q-1 -1 -3 -7q0 -2 -0.5 -4t-0.5 -4v-38zM115 130q0 -7 1 -9q1 -5 3 -6q2 -4 10 -4q6 0 10 4q2 2 2 6v56q-1 2 -1 3t-1 3q-3 4 -10 4q-6 0 -10 -4q-3 -3 -3 -7q-1 -2 -1 -8v-38zM340 560q0 -5 -2 -7q-3 -3 -5 -3q-6 0 -9.5 0.5
t-5.5 0.5q-2 2 -2 8q0 4 1 5q1 2 5 4q2 2 4 3h2v1l4 -2q2 -2 4 -3q2 -2 3 -4q1 -1 1 -3zM384 556q0 -1 -2 -5q0 -1 -4 -3q-2 -1 -8 -1q-4 0 -7 3t-3 11q0 3 5 6q3 2 11 2q6 0 7 -2t1 -6v-5zM551 171q0 6 2 6t4 -3v13h-1q-4 0 -7 -4l-2 3h-9l2 -4q1 -2 1 -6v-55q0 -2 -0.5 -3
t-0.5 -2l-3 -3h16q-2 2 -2 3v5v50zM200 303q0 6 2 6t4 -3v12q0 1 -2 1q-3 0 -6 -4l-2 3h-9q0 -4 2 -4l1 -6v-54q0 -2 -0.5 -3t-0.5 -3q-2 -2 -3 -4h16l-2 4v6v49zM320 303q0 6 3 6q2 0 4 -3v12l-2 1q-3 0 -6 -4l-2 3h-9q0 -4 2 -4v-66q-2 -2 -3 -4h16l-2 4q-1 2 -1 6v49z
M175 113q-2 2 -2 4t-0.5 3.5t-0.5 4.5v51q0 3 0.5 4t0.5 2q0 2 1 2t2 2h-2q-2 0 -2 3v14q-3 -9 -7 -11q-4 -4 -8 -6q4 -4 4 -5q1 -1 1 -8v-52q0 -8 4 -8h9zM550 244q-1 2 -2 3t-1 3v64l4 4h-4v17q-3 -9 -7 -11q-2 -2 -4 -3.5t-4 -2.5q2 -2 4 -6v-59q0 -9 5 -9h9zM557 203
q4 -4 4 -6q2 -4 2 -8v-67q0 -5 -1 -6q0 -1 -2 -3h15q-2 2 -2 3v75q0 2 2 4q-1 1 -4 1q-2 2 -4 3l-5 3q-1 0 -2 0.5t-3 0.5zM392 244q-2 4 -2 6q-1 0 -1 7v51q0 2 0.5 3.5t0.5 2.5t3 4h-3h-1v2v15q-3 -9 -7 -11l-3.5 -3.5t-4.5 -2.5q4 -4 4 -6q1 -1 1 -7v-52q0 -9 4 -9h9z
M113 113q-2 1 -2.5 2t-1.5 2v59q0 5 1 6l3 4h-2q-2 0 -2 3v14q-3 -8 -6 -11q-2 -2 -8 -6q2 -2 2.5 -3t1.5 -2v-60q0 -8 4 -8h10zM351 543q-2 -7 -5 -7l-4 2v3q0 6 3 10q5 10 5 12q2 -4 3.5 -7.5t3.5 -7.5q3 -5 3 -7v-1t-1 -1q-1 -2 -3 -2t-5 6zM348 186q2 -2 2 -3t1 -3
q1 -1 1 -9v-50q0 -4 -1 -5q0 -1 -2 -3h16l-3 3v70h-14zM295 180q0 -1 0.5 -3t0.5 -6v-50q0 -2 -0.5 -3t-0.5 -2q-1 -1 -1 -2l-2 -1h16q-2 2 -2 3v70h-14zM513 318q3 -3 3 -6q0 -2 0.5 -3.5t0.5 -5.5v-49q0 -2 -0.5 -3t-0.5 -3l-2 -4h16l-2 2q0 1 -1 2v70h-14zM496 470
q-8 0 -8 -15q0 -5 1 -9l4 -40q1 -5 1 -8q0 -2 2 -4q4 0 4 14l2 40l1 5q0 17 -7 17zM520 335q-1 0 -3 -2t-2 -5q0 -6 5 -6q2 0 4 1q2 2 2 5t-2 5t-4 2zM352 202q-2 -2 -2 -6t2 -4q0 -2 3 -2t3 2q3 0 3 4q0 2 -2 6l-4 1zM299 203q-1 0 -2 -0.5l-1 -0.5q-3 -3 -3 -6q0 -4 2 -4
q1 -2 3 -2q3 0 4 2q3 0 3 4q0 2 -2 6zM496 390l-4 -2q-2 -2 -2 -4q0 -3 2 -5q1 -1 4 -1q2 0 4 1q2 2 2 5q0 2 -2 4t-4 2zM471 394q0 -5 -3 -5h-5v71h5q3 0 3 -6v-60zM220 394q0 -5 -2 -5h-5v71h5q2 0 2 -6v-60zM334 394q0 -5 -4 -5h-4v71h4q4 0 4 -6v-60zM293 459v-43l-8 -4
v41q0 6 3 6h5zM165 324h3q3 0 3 -4v-26q0 -5 -3 -5h-3v35zM131 124q0 -4 -3 -4t-3 4v50q0 4 3 4t3 -4v-50zM411 256q0 -4 -3 -4q-2 0 -2 4v50q0 4 2 4q3 0 3 -4v-50zM524 124q0 -4 -2 -4q-3 0 -3 4v50q0 4 3 4q2 0 2 -4v-50zM284 273q0 2 2 4l1 1q1 0 3 2v-26q-5 0 -5 2
q-1 0 -1 3v14zM342 292v14q0 4 3 4t3 -4v-12zM225 160v14q0 4 3 4q2 0 2 -4v-11zM222 292v14q0 4 2 4q3 0 3 -4v-12zM417 169q0 2 0.5 3.5t0.5 2.5t4 1v-54q-4 0 -4 1l-0.5 1.5t-0.5 4.5v40zM258 261q0 -2 -0.5 -3.5t-0.5 -2.5q-1 -1 -4 -1v54q3 0 4 -1q0 -1 0.5 -2.5
t0.5 -4.5v-39zM589 176h4v-54q-2 0 -3 0.5l-1 0.5v6v47z" />
    <glyph glyph-name="circumflex" unicode="&#x2c6;" horiz-adv-x="202" 
d="M123 700l69 -87h-23l-67 58l-68 -58h-23l70 87h42z" />
    <glyph glyph-name="tilde" unicode="&#x2dc;" horiz-adv-x="265" 
d="M225 712h20q-19 -99 -73 -99q-17 0 -49 21.5t-46 21.5q-24 0 -38 -44h-23q21 96 75 96q17 0 47.5 -21.5t48.5 -21.5q24 0 38 47z" />
    <glyph glyph-name="endash" unicode="&#x2013;" horiz-adv-x="515" 
d="M37 370h447v-60h-447v60z" />
    <glyph glyph-name="emdash" unicode="&#x2014;" horiz-adv-x="515" 
d="M0 370h515v-60h-515v60z" />
    <glyph glyph-name="quoteleft" unicode="&#x2018;" horiz-adv-x="127" 
d="M109 707q-57 -46 -57 -86q0 -17 9 -23q5 -2 9.5 -3.5t9.5 -4.5q11 -10 16 -31q2 -2 2 -6v-6q0 -16 -3.5 -27t-9.5 -20q-5 -5 -12.5 -8t-15.5 -3q-21 0 -32 20q-6 12 -8.5 28t-2.5 33q0 42 19 83q28 57 73 72z" />
    <glyph glyph-name="quoteright" unicode="&#x2019;" horiz-adv-x="127" 
d="M15 494q57 46 57 86q0 17 -9 23q-5 2 -9.5 3.5t-9.5 4.5q-11 10 -16 31q-2 2 -2 5v7q0 16 3.5 27t9.5 20q5 5 12.5 8t15.5 3q21 0 32 -20q6 -12 8.5 -28t2.5 -33q0 -42 -19 -83q-28 -57 -73 -72z" />
    <glyph glyph-name="quotesinglbase" unicode="&#x201a;" horiz-adv-x="1792" 
d="M953 661q8 12 15 21.5t14 9.5q4 0 7 -3q7 -7 7 -21q0 -11 -3.5 -24t-10.5 -24l-2 -27q0 -16 4 -25q17 -43 85 -71q49 -21 91 -21q36 0 70 9.5t66 26.5q17 9 29 22.5t19.5 27.5t10.5 28t3 23v6q0 4 -0.5 7.5t-3.5 6.5q2 1 6 1q8 0 19 -4q50 -18 94.5 -45.5t85.5 -61.5
q49 -41 91.5 -87t71.5 -103q16 -33 26 -59t14.5 -49t6 -45.5t1.5 -48.5q0 -35 -3.5 -53t-8.5 -23q-21 17 -35 27.5t-25 17t-21.5 10.5t-24.5 8l-17 4q-20 5 -36 5q-39 0 -69 -24l-49 -46q-3 2 -8.5 7t-13.5 13q-7 7 -18 14.5t-26 17.5q-35 22 -72 31.5t-71 9.5
q-67 0 -107 -32q-27 -22 -50.5 -47.5t-46.5 -51.5l-18 -19l-28 45q-8 13 -23 25t-37 23q-12 7 -34 10t-34 3q-6 0 -14.5 -1t-18.5 -2.5t-19 -4t-15 -5.5q-46 -22 -60 -48l-29 -45l-17 19q-23 26 -46.5 51.5t-50.5 47.5q-40 32 -107 32q-34 0 -71 -9.5t-72 -31.5
q-15 -10 -26 -17.5t-18 -14.5q-8 -8 -13.5 -13t-8.5 -7l-49 46q-30 24 -69 24q-16 0 -36 -5l-17 -4q-14 -4 -24.5 -8t-21.5 -10.5t-25 -17t-35 -27.5q-5 5 -8.5 23t-3.5 53q0 26 1.5 48.5t6 45.5t14 49t26.5 59q29 57 71.5 103t90.5 87q42 34 86.5 61.5t94.5 45.5q11 4 19 4
q4 0 6 -1q-4 -4 -4 -14v-6q0 -9 3 -23t10.5 -28t19.5 -27.5t29 -22.5q32 -17 66 -26.5t70 -9.5q41 0 91 21q32 14 54 31t31 40q2 5 3 11t1 14l-2 28q-7 11 -10.5 23.5t-3.5 23.5q0 14 7 21q3 3 7 3q7 0 14 -9t15 -20l1 -2l19 -13q4 0 6 1q16 9 32 9h1q15 0 32 -9q2 -1 6 -1z
M625 397l5 -5q2 -4 2 -5q2 -4 2 -6v-8v-144q0 -28 -12 -43h2q15 0 25 17l3 3q1 3 3 3l3 2q2 0 4 2q-2 4 -2 5l-1 4q-1 1 -1 4q0 2 -0.5 3.5t-0.5 3.5v81l23 -79q3 -9 3 -14v-4l-3 -4h36l-3 5q-1 2 -1 5q-2 2 -2 5q0 2 -0.5 4t-0.5 4v140l1 7q0 2 2 4v1q0 2 2 4q0 1 2 5h-39
q5 -5 7 -12q0 -1 0.5 -2.5t0.5 -3.5q1 -2 1 -8v-79l-29 105h-32zM529 377q1 5 1.5 8.5t1.5 7.5q2 8 3 11q2 6 4 10q2 2 3.5 5t3.5 6q-4 -1 -7 -2t-7 -3q-1 -1 -1.5 -2t-2.5 -2l-4 -4t-4 -5q-4 -4 -9 -6l-10 -4q1 -2 3 -4q0 -2 0.5 -3.5t0.5 -2.5v-10l-1 -6l-6 -87v5
q-1 1 -1 4l-1 21q-1 10 -1.5 18.5t-1.5 16.5t-1.5 14.5t-0.5 12.5v7q0 6 1 8q0 2 2 6h-36q3 -3 6 -10q1 -3 1.5 -7t1.5 -9l12 -133q0 -2 0.5 -3.5t0.5 -3.5v-4q0 -9 -5 -14h46q-6 6 -6 15v4v7l12 115zM779 379h9q13 0 21 -12v30h-86v-30q4 7 9 10l5 1q2 1 7 1h9v-145v-7
q0 -5 -1 -6q-2 -4 -6 -8h41q-6 6 -7 9t-1 14v143zM1334 379h9q15 0 21 -12v30h-85v-30q4 7 10 10l4 1q3 1 7 1h9v-145v-7q0 -5 -1 -6q0 -2 -6 -8h40q-3 3 -7 9q-1 3 -1 14v143zM1003 230q6 4 8 7q4 4 5 7q3 3 3 9l1 14v148q0 24 -10 32q-10 10 -31 10q-17 0 -29 -9
q-6 -6 -9 -13q-2 -8 -2 -18v-148v-12q0 -2 0.5 -4t0.5 -4q1 -5 4 -7q3 -5 6 -6q12 -9 29 -9h8q0 -1 0.5 -1.5t0.5 -2.5v-3q0 -2 -0.5 -2.5t-0.5 -1.5q-1 -2 -1 -3t-2 -3q-1 -2 -5 -6l-4 -3q-2 0 -6 -2q4 -4 10 -4q4 0 7 2t7 4q2 1 3.5 2t3.5 2t3.5 2t3.5 2q2 2 6 4q2 1 8 3
q-3 1 -6 2.5t-5 3.5l-4 4t-3 4zM205 253v-11q1 -3 1 -8l4 -8q4 -4 6 -5q11 -10 30 -10q20 0 30 10q10 9 10 33v39v15q0 4 -2 10t-4 9l-4 4l-4 4q-6 6 -9 8l-7 6q-2 1 -6 5q-4 2 -7 5q-7 7 -7 17v23q0 6 1 8v6q3 5 8 5q7 0 10 -8q0 -3 1 -6v-9v-19l30 -24v47q0 25 -10 32
q-11 11 -31 11q-16 0 -29 -10q-7 -5 -10 -14q0 -4 -1 -7v-11v-30q0 -10 2 -14q1 -5 6 -11q3 -3 6 -5q4 -5 12 -9q16 -12 19 -17q6 -11 6 -32v-26q0 -10 -2 -14q-1 -7 -9 -7q-5 0 -8 5v6q-1 2 -1 8v50l-31 19v-70zM572 260l16 6v-31v-8v-2v-3q0 -2 -2 -4q0 -1 -0.5 -1.5
l-0.5 -0.5q-2 -2 -2 -3h38q-1 1 -3 5q-2 2 -2 3q-1 1 -1 3q0 1 -1 2v3v4v146v3v3l2 5l0.5 0.5t0.5 1.5q1 2 4 5h-42q-21 0 -28 -10q-5 -8 -5 -32v-122v-4v-2q-1 -1 -1 -3v-3q-2 -4 -6 -8h38q-1 1 -3 5q-1 0 -1 1v1l-1 1v1v13v25zM1104 375v8q0 4 1 5q0 4 7 9h-39q5 -3 5 -8
q1 -1 1 -5q1 -2 1 -7v-130q0 -7 -2 -13q-1 -4 -7 -4q-5 0 -6 4q-2 4 -2 11v130v8q1 2 1 5q0 4 5 9h-38q6 -5 6 -8q2 -2 2 -12v-133v-8q0 -2 0.5 -3.5t0.5 -3.5l3 -6q2 -3 5 -5q8 -8 24 -8q14 0 24 8q8 8 8 26v131zM446 278q0 20 -1 24q-5 7 -15 8q7 2 11 8q5 5 5 21v26v8
q0 2 -0.5 3.5t-0.5 2.5q-1 4 -2 6l-2 4q-3 5 -10 7q-4 1 -12 1h-45l7 -8q1 -2 1 -6v-7v-142v-7q0 -4 -1 -6q0 -1 -2 -3l-3 -3l-2 -2h39q-5 3 -5 6q-1 0 -1 2v2v75h6h3l4 -3q1 -1 1 -5v-67v-2v-2q-1 -1 -2 -3l-3 -3h38l-2 2l-3 3l-2 3v3q0 2 -1 3v3v4v4v40zM1148 260l16 6
v-31v-8v-2q0 -2 -1 -3l-1 -4q0 -2 -2 -2q0 -1 -2 -3h38q-3 3 -4 5l-1 3q-1 1 -1 3q0 1 -1 2v3v4v146v3v3l2 5l0.5 0.5t0.5 1.5q1 2 4 5h-42q-20 0 -27 -10q-5 -10 -5 -32v-122v-4v-2q-1 -1 -1 -3v-3l-2 -4t-3 -4h37q-1 1 -3 5l-2 2v2v13v25zM1519 278q0 20 -1 24q-3 7 -15 8
q7 2 12 8q4 5 4 21v26v8q0 2 -0.5 3.5t-0.5 2.5q-1 7 -3 10q-4 5 -11 7q-3 1 -12 1h-44q6 -6 7 -8q2 -4 2 -6v-7v-142v-7l-1 -6q-1 -1 -1 -2l-2 -1l-2 -3q-1 0 -3 -2h39q-5 3 -5 6q-1 0 -1 2v2v75h6h2q1 0 4 -3q2 -2 2 -5v-67v-2q0 -1 -1 -2q0 1 -2 -3l-3 -3h38l-2 2l-3 3
q-2 2 -2 3v3v3q-1 1 -1 3v4v4v40zM1268 278q0 16 -2 24q-3 6 -14 8q7 2 11 8q5 7 5 21v26q0 5 -1 8q0 2 -0.5 3.5t-0.5 2.5q-1 7 -3 10q-4 6 -10 7q-4 1 -12 1h-44l7 -8q0 -2 0.5 -3t0.5 -3v-7v-142v-7l-1 -6q0 -1 -2 -3l-2 -3q-1 0 -3 -2h38q-3 2 -5 6v2q-1 1 -1 2v75h6h3
q1 0 4 -3q2 -2 2 -5v-67v-2q-1 -1 -1 -2q-1 -1 -2 -3l-3 -3h38q-2 2 -3 2l-2 3q-2 2 -2 3q-1 1 -1 3v3v3v4v4v40zM295 397q3 -3 4 -5q2 -2 2 -3q2 -6 2 -12v-143q0 -7 -2 -13q0 -2 -2 -4q-1 -1 -1.5 -2t-2.5 -2h76v31q-2 -2 -2.5 -4t-2.5 -3q-3 -3 -9 -3h-29v64h15
q7 0 10 -2q2 -1 4 -3q3 -3 4 -6v45q-1 -2 -2 -3t-2 -3q-2 -2 -6 -4q-1 -1 -4 -1h-7h-12v56h23q8 0 13 -4q3 -2 7 -10v34h-76zM1371 397q3 -3 4 -5q2 -2 2 -3q2 -6 2 -12v-143q0 -7 -2 -13q0 -2 -2 -4q-1 -1 -1.5 -2t-2.5 -2h74v31q-2 -5 -5 -7q-3 -3 -8 -3h-28v64h14
q7 0 10 -2q2 -1 4 -3q1 -2 2 -3t2 -3v45q-1 -2 -2 -3t-2 -3q-3 -3 -6 -4q-1 -1 -4 -1h-7h-11v56h22q8 0 12 -4q5 -4 7 -10v34h-74zM818 245v-9q0 -5 1 -7l3 -6q1 -2 2 -2.5t3 -2.5q10 -8 25 -8q16 0 24 8q9 7 9 28v32q0 9 -1 12q0 3 -0.5 4.5t-0.5 3.5q-2 4 -4 7
q-1 2 -2.5 3.5l-3.5 3.5q-5 5 -8 7q-2 2 -3 2.5t-2 1.5q-2 2 -3 2.5t-2 2.5l-6 3q-6 6 -6 15v19q0 4 1 6v5q3 4 7 4q5 0 8 -6v-5q1 -2 1 -8v-15l25 -20v38q0 21 -9 27q-9 9 -25 9q-14 0 -24 -8q-5 -3 -8 -12q-1 -1 -1 -6v-8v-25q0 -8 1 -12q2 -2 3 -4.5t3 -4.5l1.5 -1
t3.5 -3t4.5 -3.5t5.5 -3.5q12 -9 15 -15q5 -7 5 -25v-22q0 -7 -2 -11q-2 -6 -7 -6q-4 0 -7 4v5q-1 2 -1 7v41l-25 15v-57zM1533 245v-9q1 -3 1 -7q2 -4 4 -6q1 -2 4 -5q10 -8 25 -8q14 0 24 8q8 8 8 28v32v12l-1.5 4.5t-0.5 3.5q-2 4 -4 7q-1 4 -6 7l-7 7q-2 2 -3 2.5
l-3 1.5q-1 2 -2 2.5t-3 2.5q-1 1 -5 3q-6 6 -6 15v19q0 4 1 6v5q3 4 7 4q5 0 7 -6q0 -1 0.5 -2t0.5 -3v-8v-15l25 -20v39q0 20 -8 26q-9 9 -25 9q-13 0 -24 -8q-5 -5 -8 -12q0 -3 -1 -6v-8v-25q0 -8 2 -12q1 -3 5 -9q-1 0 5 -4q2 -2 4.5 -3.5t5.5 -3.5q13 -9 14 -15
q5 -5 5 -25v-22q0 -9 -1 -11q-2 -6 -7 -6q-6 0 -7 4v5q-1 2 -1 7v41l-25 15v-57zM866 599q-5 5 -10 5q-3 0 -5 -2t-2 -6q0 -6 5 -10q5 -5 10 -5q3 0 5 2t2 5q0 6 -5 11zM923 599q-5 -4 -5 -11q0 -4 2 -5q2 -2 5 -2q5 0 10 5t5 11q0 3 -2 5t-5 2q-5 0 -10 -5zM989 271v-15
q-4 -7 -10 -7q-5 0 -8 6q0 1 -0.5 2t-0.5 3v9v146v8l1 6q3 5 8 5q7 0 10 -7v-15v-141zM588 378v-90l-16 -7v84q0 13 6 13h10zM1164 378v-90l-16 -7v84q0 13 6 13h10zM1481 378h6q8 0 8 -8v-39q0 -9 -8 -9h-6v56zM407 378h6q8 0 8 -8v-39q0 -9 -8 -9h-6v56zM1229 378h6
q9 0 9 -8v-39q0 -9 -9 -9h-6v56z" />
    <glyph glyph-name="quotedblleft" unicode="&#x201c;" horiz-adv-x="208" 
d="M109 707q-57 -46 -57 -86q0 -17 9 -23q5 -2 9.5 -3.5t9.5 -4.5q11 -10 16 -31q2 -2 2 -6v-6q0 -16 -3.5 -27t-9.5 -20q-5 -5 -12.5 -8t-15.5 -3q-21 0 -32 20q-6 12 -8.5 28t-2.5 33q0 42 19 83q28 57 73 72zM207 704q-57 -46 -57 -86q0 -17 9 -23q5 -2 9.5 -3.5
t9.5 -4.5q11 -10 16 -31q2 -2 2 -6v-6q0 -16 -3.5 -27t-9.5 -20q-5 -5 -12.5 -8t-15.5 -3q-21 0 -32 20q-6 12 -8.5 28t-2.5 33q0 42 19 83q28 57 73 72z" />
    <glyph glyph-name="quotedblright" unicode="&#x201d;" horiz-adv-x="208" 
d="M111 503q57 46 57 86q0 17 -9 23q-5 2 -9.5 3.5t-9.5 4.5q-11 10 -16 31q-2 2 -2 5v7q0 16 3.5 27t9.5 20q5 5 12.5 8t15.5 3q21 0 32 -20q6 -12 8.5 -28t2.5 -33q0 -42 -19 -83q-28 -57 -73 -72zM13 506q57 46 57 86q0 17 -9 23q-5 2 -9.5 3.5t-9.5 4.5q-11 10 -16 31
q-2 2 -2 5v7q0 16 3.5 27t9.5 20q5 5 12.5 8t15.5 3q21 0 32 -20q6 -12 8.5 -28t2.5 -33q0 -42 -19 -83q-28 -57 -73 -72z" />
    <glyph glyph-name="quotedblbase" unicode="&#x201e;" horiz-adv-x="783" 
d="M391 58l8 -15l-8 -6l-9 6zM390 463q2 1 6.5 7.5t5.5 8.5q0 2 -1 2h-11h-11v-2q0 -2 5 -8.5t6 -7.5v-1v1zM365 33v24h4v-21l19 -18zM416 33l-22 -15l18 18v21h4v-24zM259 633v1l2 -2l-24 -28l-5 -2zM521 633l27 -31l-5 2l-24 28l2 2v-1zM390 448l-15 -20l15 -19l16 19z
M391 203l4 17l1 56q1 4 2.5 5.5t3.5 5.5q4 8 4 25q0 11 -2 21t-5 12q-2 1 -2 -4v-10v-8q1 -3 1 -8q0 -11 -7 -21q-3 5 -5.5 9.5t-2.5 9.5q0 4 2 10v4t-0.5 8t-1 7t-1.5 3q-3 -2 -5 -11.5t-2 -20.5q0 -8 1 -14.5t3 -11.5q2 -4 4 -5.5t3 -5.5l1 -56l4 -16v-1zM638 552l30 -49
l-5 3l-28 46l2 2zM143 552v2l3 -2l-28 -46l-6 -3zM363 367q4 0 6 -4.5t2 -9.5q0 -7 -2.5 -12.5t-5.5 -6.5l-4 -1q-9 0 -21 9t-12 17l1 72h1v-2l2 -5t7 -14q2 -7 3.5 -10.5l1.5 -3.5l-1 -5l-1.5 -6t-0.5 -4t1.5 -7t4.5 -10.5t6.5 -10t7.5 -5.5v7q0 9 3 12l0.5 0.5t0.5 -0.5z
M419 367q0 1 0.5 0.5l0.5 -0.5q3 -3 3 -12v-7q4 1 7 5.5t5.5 10t4.5 10.5t2 7t-0.5 4l-1.5 6l-1 5l5 14q5 9 7 14l2 5v2h1l1 -72q0 -8 -11.5 -17t-20.5 -9l-4 1q-5 1 -7 6.5t-2 12.5q0 5 2 9.5t7 4.5zM390 639l-24 -48l24 20l24 -20zM207 386l1 14l16 22q-6 -1 -13 -7.5
t-8 -9.5l-5 -14v-4q0 -3 0.5 -7t2.5 -4h1q8 0 15.5 5t7.5 7l29 37l2 13l-28 -39zM575 386l-22 13l-28 39l3 -13l28 -37q1 -2 8.5 -7t14.5 -5h1q4 0 4.5 7t0.5 8l-7 14q0 3 -7.5 9.5t-12.5 7.5l16 -22zM390 568h2q4 0 8 -2t5 -7v-2q0 -4 -6 -6l-1 -16h8l15 14l1 4v2
q0 5 -4 12t-9.5 13.5t-10.5 11t-7 4.5t-7 -4t-10 -10.5t-9 -14t-4 -12.5v-2v-3l14 -15h7v16q-6 2 -6 6v2q1 9 12 9h2zM485 123l21 -8h1q3 0 8 4t6 11l-1 45l-7 -36q-2 -5 -5.5 -6.5t-6.5 -1.5q-8 0 -10 4l-14 28l-3 56q-1 7 -4 7q-2 0 -6 -2q-2 -1 -5.5 -6t-3.5 -10
q0 -3 2 -5l8 10l6 -53zM295 124l14 36l7 53l8 -9q2 2 2 5q0 5 -3.5 10t-5.5 6l-6 2q-4 0 -5 -8l-2 -55l-14 -29q-2 -4 -9 -4q-3 0 -7 2t-6 7l-8 36v-46q1 -6 6.5 -10.5t8.5 -4.5h1zM154 439q-5 1 -8.5 7t-6.5 12.5t-4.5 12.5t-2.5 8l-3 13v2q0 4 2.5 9l3.5 7l14 25l27 -1
l25 -9v1q0 3 -3.5 8.5t-8 12t-9 12.5t-7.5 9q-13 1 -21.5 1.5t-11.5 0.5h-4l-33 -64v-1q0 -3 3 -13t6.5 -21t7.5 -20.5t7 -11.5q7 -5 23.5 -9.5t20.5 -4.5zM610 425q4 0 20.5 4.5t23.5 9.5q3 2 7 11.5t7.5 20t6.5 20.5t3 14l-1 1l-32 64h-4q-4 0 -12.5 -0.5t-20.5 -1.5
q-3 -3 -8 -9t-9.5 -12.5t-7.5 -12.5t-3 -8v-1l25 9l26 1l15 -25q2 -2 4 -6.5t2 -9.5v-2l-3 -13q0 -3 -2 -9t-5 -12.5t-7.5 -12t-8.5 -6.5zM606 432l28 31v3q0 7 -2.5 20t-4.5 19h-11l-30 -31q1 0 1.5 0.5l0.5 0.5q1 0 0.5 -1t3.5 -1q2 0 4.5 0.5t5.5 0.5h5q2 0 2 -2
t-0.5 -3.5l-1.5 -4.5q-8 -16 -21 -18l-13 -1h-6q-18 0 -36 15l-7 4q2 -6 9.5 -11.5t13.5 -10.5q14 -13 35 -13h7q4 0 9 1zM183 430q4 -1 8 -1h9q21 0 33 13q7 5 14.5 10.5t9.5 11.5l-7 -4q-18 -15 -36 -15h-6l-13 1q-13 1 -21 18q-3 6 -3 8t3 2h5q3 0 5 -0.5t4 -0.5
q5 0 4.5 1t0.5 1l0.5 -0.5t1.5 -0.5l-30 31h-11q-3 -5 -5.5 -18t-2.5 -20q0 -2 0.5 -3l0.5 -1l28 -31zM557 243q22 0 30 6q13 10 17.5 18t4.5 15q0 9 -4 12q-2 2 -9.5 3.5t-16.5 1.5h-9q-4 0 -8 -1l-8 -11l1 0.5t2 0.5t1.5 -0.5t2.5 -0.5q6 -2 10 -7v-1q-4 -4 -12 -7
q-5 -2 -8 -2l-19 2l-9 9q-22 22 -26 30l-4 87l-2 -3v-81l3 -12q2 -14 20 -39q9 -12 13 -14l14 -3q9 -1 16 -3zM224 243q4 1 8 1.5t9 1.5l13 3q3 1 13 14q21 26 21 39l3 12v81l-2 3l-4 -87q-2 -3 -8 -11t-19 -19l-10 -9l-18 -2h-2t-5 2q-5 2 -7.5 3.5t-4.5 3.5v1q4 6 9 7
q2 0 3 0.5t2 0.5l2 -1q1 0 -2 4t-6 7q-4 1 -8 1h-9q-9 0 -16.5 -1.5t-9.5 -3.5q-5 -3 -5 -12q0 -6 5 -14.5t18 -18.5q9 -6 30 -6zM504 550q8 19 8 30q-2 24 -14 28h-2q-5 0 -11 -4.5t-15 -12.5q-7 -7 -5 -7q9 3 14 3t6.5 -2t3.5 -5v-4t-1 -11v-6q-2 -7 -15 -13q-7 -5 -19 -7
q5 5 8 13t3 16q0 15 -11 15h-3q-8 -2 -12.5 -8.5t-4.5 -9.5h2q4 5 9 5q8 0 8 -7q0 -8 -9 -20q-3 -6 -7.5 -8t-13.5 -4l-13 -5l15 2h12q30 0 66 6q23 3 36.5 20.5t14.5 32.5v1q0 11 -7 27.5t-15 21.5q-3 2 -10 4.5t-15 2.5q-7 0 -14 -3q-11 -4 -17 -10l-5 -5l-5 -3
q-6 -3 -6 -12l7 4q3 3 13.5 8t21.5 5q5 0 7 -1q18 -5 21 -38v-6q0 -11 -4 -19.5t-8 -11.5q-5 -5 -16 -9zM280 543q-5 2 -10 4.5t-8 4.5q-3 3 -7 11.5t-4 19.5v6q3 33 22 38q2 1 7 1q10 0 20.5 -5t13.5 -8l7 -4q0 9 -6 12l-5 3l-5 5q-7 7 -16 10q-8 3 -14 3q-9 0 -16 -2.5
t-10 -4.5q-8 -5 -15 -22.5t-7 -27.5q1 -15 14.5 -32.5t36.5 -20.5q36 -6 67 -6h12l14 -2l-11 6q-10 2 -15 3.5t-8 7.5q-9 12 -9 20q0 7 8 7q5 0 10 -5h1h1q0 3 -5 9.5t-13 8.5h-3q-11 0 -11 -15q0 -8 3 -16t8 -13q-12 2 -20 7q-11 6 -15 13v6q-1 8 -1 11v4q3 7 12 7
q5 0 13 -3q4 0 -5 7q-19 17 -25 17h-2q-13 -4 -15 -28q0 -9 9 -30zM489 499q2 -2 6 -6.5t9 -8.5l6 -3l5 -3l5 -4l6 -3q2 -1 4.5 -3t6.5 -4q14 -7 18 -7h4q14 0 20 16q2 6 2 9v3q0 5 -1 6l-4 5l-4 6q-2 2 -10 4.5t-17 2.5q-13 0 -19 -6v-1q0 -1 2 -1h3h4q7 0 16 -3l7 -3
q3 0 3 -7t-8 -11q-4 -2 -6 -2t-10 2q-3 1 -9 4.5t-13 8t-13 8t-8 4.5l1 6q0 5 5.5 10.5t10.5 8.5t6 3h-9l-5 -3q-8 -5 -54 -5h-14q-16 0 -19 -1q-7 -2 -14.5 -9t-9.5 -12h2v-1h2l4 5q4 2 13.5 4.5t13.5 3.5q2 0 6 -0.5t10 -1.5l15 -2q5 0 27 -5q3 -1 3 -2t1 -2zM291 499
q1 2 1 3t5 2q9 2 16 3t9 1l16 3q7 1 11 1h6q4 0 13 -3t13 -5l5 -4l1 -1v1h2q-1 6 -9 12.5t-15 8.5q-3 2 -33 2q-46 0 -53 5l-5 2l-10 1q1 0 12 -7t11 -15l1 -6q-2 -2 -8.5 -5.5t-13.5 -7.5t-13 -7.5t-9 -4.5q-8 -2 -12 -2q-2 0 -4 1q-8 4 -8 11q0 5 3 8l7 2q9 3 16 3h4
q6 0 6 2l-1 1q-6 6 -19 6q-8 0 -16 -2.5t-10 -4.5l-4 -6l-5 -5q0 -3 -1 -7q0 -4 2 -12q9 -16 22 -16h2q8 2 18 8q4 2 6.5 3.5t4.5 3.5l6 3l5 3l6 4l5 3q7 3 10 7.5t4 6.5zM410 69v16l-3 3l-4 32l-6 -32l-7 40l-5 -40l-7 32l-3 -32l-4 -3v-16v-2l-2 1v29l-3 163l-56 78
q-2 7 -2.5 21t-0.5 28v26v5q0 22 11 42q2 -2 2 -7l-1 -9q-2 -19 -2.5 -30.5t-0.5 -19.5q0 -7 0.5 -11t0.5 -8l-1 -11v-7l53 -98l4 -73q2 4 2 18v12q-1 4 -1 8v9v6q0 4 1 8l1 18l-2 8t-3 8q-4 8 -6 19t-4 24q5 4 10.5 8.5t6.5 10.5q1 4 1 10q0 7 -4 11l-3 3.5t-7 7.5l-8 8
t-5 6q-6 14 -14 28t-8 21v2l28 -54l23 -21q2 0 3 2v2q0 5 -3 8l-29 46v6l36 -45q-1 4 -1 11q0 5 1 8q-2 3 -8 8l-6 3l-4 6q-2 2 -4 5q1 2 2.5 6t5.5 10q5 7 7 10q-2 2 -2.5 3t-1.5 2l-3 4q-2 2 -11 2h-7q2 4 3 4l6 2q2 1 4.5 2t4.5 3q-10 7 -16 8q3 1 6 1h6h1q3 0 4 1
q-6 7 -20 12v1h1h7q12 -3 22 -8h1q2 0 3 1q-3 7 -13 12t-17 5h-7l-6 1l-6 -1l-6 -1h-7q-10 0 -28 -13q-2 -2 -3.5 -2.5l-1.5 -0.5l-3 -5l-4 -3q-3 -3 -6 -6.5t-5 -8.5l-3 -6l-7 -4q-1 -2 -1.5 -6t-2.5 -11q-11 -31 -21 -41q-20 -21 -23 -23q-5 -6 -17 -6q-14 2 -15 8v2
q0 4 2.5 11t4.5 10l-5.5 -1.5t-10.5 -6.5q-5 -6 -7.5 -13t-2.5 -13t1 -8t3 -5.5t3 -4.5q2 -2 19 -2q11 0 27 14q-1 -5 -10 -12l-6 -3l-3 -5q-3 -3 -14 -3l-12 1l-5 1h-7q-4 0 -6.5 1t-5.5 3l-5 5l-5 3q-6 6 -8 9v1q0 5 3.5 9.5t6.5 4.5t4 -1l-7 21q-2 4 -9 4h-3
q-12 0 -16.5 -7.5t-4.5 -22.5q0 -1 -0.5 -9t-0.5 -13v-3l33 -28l68 -3l63 121q4 11 5.5 17l1.5 6q3 6 10.5 14t9.5 9q4 -2 4 -5l-4 -8q-19 -35 -23 -49q-3 -14 -5 -23t-2 -11q-2 -17 -2 -27q0 -9 -1 -11q-3 -18 -12 -18q-1 2 -1 6q0 6 4 17l3 5q0 3 -1 5q-8 -5 -21 -29
l-3 -6q7 -6 10 -10.5t5 -6.5l2 -6q2 -2 4 -3q3 2 6 5.5t6 7.5l11 14v7v5l-1 6v7l-1 5v7q1 27 4.5 47t6.5 25q7 17 13 24.5t11 9.5q0 -6 -4 -11q-2 -5 -3 -8.5t-3 -7.5l7 -175v-1q0 -2 2 -4q1 4 3 18q1 13 11 13q11 -10 14 -27q1 -9 2 -16.5t1 -12.5v-5q2 -23 3 -40t1 -28
v-11q-1 -7 -1 -13v-10q0 -10 0.5 -16t0.5 -10v-7q0 -31 -8 -35q-3 3 -3.5 13t-0.5 24l5 -2l-13 48v-85q3 -11 4 -11q2 -2 6 -2q3 0 6 1q6 4 9 14v149h8l-1 -178l35 -34l35 34l-1 178h9v-149q3 -12 8 -14q1 -1 5 -1t6 2q3 3 4 11v85l-13 -48l6 2q0 -14 -0.5 -23.5t-3.5 -12.5
q-9 5 -9 41q0 5 0.5 13.5t0.5 21.5v14q-1 4 -1 14q0 11 1 27t3 38l0.5 1t0.5 4q0 5 0.5 12.5t2.5 16.5q3 18 13 27q9 0 11 -13l3 -18q2 4 2 5l7 175q-1 3 -3 7t-4 9q-2 3 -2 9v2q4 -2 10.5 -9.5t14.5 -24.5q2 -5 6 -25t4 -47v-7v-5v-7l-1 -6v-5l-1 -7l2.5 -3t7.5 -11
q3 -4 6 -7.5t7 -5.5q3 1 3 3l2 6q1 2 5 6.5t10 10.5q-2 4 -2 6q-13 23 -22 29v-4v-1l2 -5q2 -6 3.5 -9.5t1.5 -7.5q0 -2 -2 -6q-11 0 -12 18l-2 38q0 2 -2 11t-5 23q-3 15 -23 49q-4 5 -4 8q0 4 4 5q2 -1 9.5 -9t9.5 -14l8 -23l63 -121l69 3l32 28l-1 25q0 30 -21 30h-3
q-7 0 -9 -4l-7 -21q1 1 2 1h1q5 0 8.5 -4.5t3.5 -10.5q-3 -5 -10 -9l-5 -3l-5 -5q-6 -4 -11 -4h-7l-6 -1l-13 -1q-8 0 -11 3l-4 5l-5 3q-10 7 -11 12q16 -14 26 -14q17 0 20 2l5 10q2 6 2 9q0 12 -10 25q-5 5 -11 6.5t-5 1.5q2 -2 4.5 -8.5t2.5 -11.5q0 -3 -1 -4
q-1 -5 -15 -7q-11 0 -17 6l-6.5 6.5t-15.5 16.5q-10 9 -22 41q-5 15 -7 17l-3 4l-3 6q-4 9 -10 15l-5 3l-4 5l-1 0.5t-3 2.5q-20 13 -29 13h-6q-2 0 -3.5 0.5t-2.5 0.5l-6 1l-6 -1h-6q-9 0 -19 -5q-11 -5 -12 -12q2 -2 3 -2q8 5 24 9h7v-1q-13 -4 -21 -12l6 -2l6 1q3 0 6 -1
q-7 -1 -17 -8q5 -4 10 -5l6 -2l4 -4h-9q-8 0 -10 -2l-4 -5q0 -1 -1 -1.5t-2 -2.5q1 -2 2.5 -4.5t3.5 -5.5q7 -11 7 -16q-2 -2 -2 -3t-1 -2l-4 -6l-5 -3q-4 -2 -5.5 -4t-3.5 -4l1 -8l-1 -11l35 45l2 -6l-30 -46q-3 -3 -3 -8v-2q1 -1 4 -3l23 22l27 54v-2q0 -8 -8 -21.5
t-14 -27.5q-2 -4 -12 -14l-11 -11q-4 -4 -4 -11l1 -10q1 -6 6 -11t12 -8q-3 -26 -10 -43q-5 -8 -5 -17v-8q0 -4 1 -9v-31l-1 -17q0 -9 2 -13l4 73l54 98v2t-1 5l-1 11q0 4 0.5 8t0.5 11q0 8 -0.5 19.5t-2.5 30.5l-1 9q0 5 2 7q11 -19 11 -47v-22q0 -16 -0.5 -31t-2.5 -22
l-56 -78l-3 -163v-29v-2zM391 709q75 0 140.5 -28.5t114 -77t77 -114t28.5 -140.5q0 -74 -28.5 -139.5t-77 -114.5t-114 -77.5t-140.5 -28.5t-140.5 28.5t-114 77.5t-77 114.5t-28.5 139.5q0 75 28.5 140.5t77 114t114 77t140.5 28.5z" />
    <glyph glyph-name="dagger" unicode="&#x2020;" horiz-adv-x="844" 
d="M420 537v-1h-1v-1h-1l-5 1q-2 6 -4 7l-1 -8q-1 -6 -6.5 -12.5t-13.5 -14.5l0.5 -1t1.5 -2q2 -2 2 -7q0 -3 -1 -3q-11 7 -21.5 11t-20.5 8q-14 3 -20 3q-4 0 -5 -1q-2 -6 -2 -11q0 -12 8 -17l25 -16q6 -5 11.5 -22.5t5.5 -27.5q0 -6 -2 -6l-11 41h-4q0 -3 1 -7v-7l2 -5
q0 -2 0.5 -3t0.5 -2q0 -2 -2 -2h-7v10q0 3 -4 12h-3q-2 -5 -3.5 -8t-1.5 -5h-5q-16 23 -22.5 45t-6.5 37q0 17 6 20q4 2 8 2q2 0 4.5 -0.5t6.5 -0.5q-2 3 -5.5 5.5t-6.5 4.5q-6 6 -11.5 10.5t-7.5 6.5h-4l-5 -8q-4 -9 -7 -12h-5q-6 9 -6 17q0 12 13 24q3 1 8 1q20 0 36 -26
q2 0 2 3v5l-6 60h-3q-6 0 -10 -12q-2 -4 -2 -8h-7q-1 0 -1 2t2 6.5t5 9t5.5 8.5t3.5 5h10q4 -7 8 -20t7 -35h4v2q0 3 3 3v1q0 4 4.5 11t6.5 12q8 9 10.5 15.5t2.5 9.5q-1 15 -4.5 22t-8.5 7t-10 -7.5t-5 -19.5q-3 0 -7 4q-2 2 -2 5q0 7 13 30l7 1q3 0 7 -2q1 0 6.5 -11.5
t12.5 -32.5q17 8 17 30q0 4 -0.5 8t-1.5 9q-3 16 -9 28v-8q-1 -8 -3 -11h-5q-3 6 -3 15v4q3 11 9 11q2 0 5 -3q5 -6 8.5 -11.5t4.5 -10.5l3 -26l14 -19l15 19l3 26q1 5 3.5 10.5t9.5 11.5q1 3 4 3q4 0 10 -11q0 -1 0.5 -1.5t0.5 -2.5q0 -8 -7 -15h-3q-1 2 -1 4t-1 7
q-1 3 -1 8q-3 -6 -6 -13t-4 -15q-1 -4 -1 -8v-6q0 -26 15 -33l19 44q8 2 10 2t3 -0.5t2 -0.5q14 -22 14 -30q0 -3 -2 -5q-3 -4 -4 -4q0 12 -5 19.5t-11 7.5q-13 0 -14 -29q0 -7 12 -25q4 -5 8 -13t4 -11q5 0 5 -2t-1 -3h4q2 22 5 35t8 20h10q3 -2 9.5 -12.5t6.5 -15.5
q0 -3 -3 -3h-4q0 6 -1 8q-5 12 -12 12h-3l-7 -60v-5q0 -3 3 -3q14 26 36 26q6 0 9 -1q12 -12 12 -25q0 -8 -5 -16h-4q-7 2 -10 12l-3 8h-6q-4 -6 -19 -17q-6 -4 -10 -10l10 1q5 0 9 -2q5 -3 5 -18t-7 -37.5t-24 -46.5h-2q0 2 -1 5t-3 8h-3q-3 -5 -5 -7.5t-2 -4.5v-10h-4
q-3 0 -3 2q0 1 0.5 2t0.5 3l2 5l1 7v7h-4l-10 -41q-3 0 -3 8q0 11 5 27t13 21l24 16q6 4 6 18q0 7 -1 10q0 1 -5 1q-6 0 -19 -3q-11 -4 -21 -8t-21 -11q-2 0 -2 3q0 4 3 7q1 1 1.5 2l0.5 1q-19 15 -19 27l-1 8q-5 -1 -6 -3l-2 -4l-3 -1v0q0 1 -1 1l-1 1l-1 1zM405 348
q-3 2 -14 2t-22.5 -2t-12.5 -3l-10 -8l-22 -15q-2 -2 -5 -7.5t-8 -17.5q-6 1 -6 7q0 5 4 12.5t9.5 14t11 12.5t8.5 8q7 5 23.5 9t23.5 4q9 -2 17 -5t19 -17q12 14 19 17t18 5q8 0 23.5 -4t23.5 -9q2 -2 7.5 -8t11 -13.5t9.5 -14.5t4 -12q0 -4 -5 -6q-5 12 -8.5 17.5
t-4.5 7.5l-21 15l-10 8q-2 1 -14 3t-23 2t-13 -2l-17 -12zM735 126q64 -37 81 -37q7 0 7 5q0 4 -1 6q-8 2 -8 9v11q22 -31 22 -37q-4 -3 -10.5 -5t-19.5 -2v-2q-1 -1 -5 -1l20 -54q-3 0 -6 -2q-5 2 -8.5 6t-8.5 9h-5q0 -6 -1 -7h-5q-3 7 -8 7h-2q-2 -8 -5 -8h-5q-8 10 -8 14
h-4q-1 -10 -9 -10h-2q-2 11 -9 15q-2 -2 -3 -2.5l-1 -0.5v-8h-7q-31 56 -64 56h-50v6q22 13 37 13q7 0 10 -1l55 -16v43q0 5 6 9t11 4q4 0 6 -2l30 -15q-2 -2 -4 -3q-3 0 -4 2l-22 1v-3zM86 128q-1 -2 -5 -2q-2 2 -4 3l28 15q4 2 7 2q6 0 12 -4t6 -9v-43l56 16q3 1 9 1
q8 0 18 -3t19 -10v-6h-50q-35 0 -64 -56h-7v8l-1 0.5t-3 2.5q-5 -2 -9 -15h-2q-6 0 -9 10h-4q0 -5 -9 -14h-3q-3 0 -5 8h-2q-7 0 -8 -7h-5q-2 2 -2 7h-7q-6 -11 -16 -15q-1 2 -3 2l17 54q-2 0 -4 1v2q-26 0 -29 7v1q0 9 20 36v-11q0 -8 -7 -9q-1 -2 -1 -6q0 -5 6 -5
q18 0 80 37v3zM197 32l19 21l16 22q5 8 27 8l63 -2l4 -1q2 -1 5 -2t8 -1q12 0 28 8t23 31q-2 -19 -11 -28q-18 -18 -37 -18l-85 2q-5 0 -12 -4.5t-7 -8.5q0 -3 3 -3l8 -1q7 -2 7 -11v-20q0 -2 -4 -2t-5 4l-4 8q-2 3 -6 3t-8 -3.5t-4 -8.5h-4v7q0 8 -8 8q-5 0 -8.5 -3
t-3.5 -8h-4v3zM642 29v1q0 5 -4 7.5t-9 2.5q-9 0 -9 -8v-7h-4v1q0 5 -3.5 8t-7.5 3t-5 -3l-4 -8q-1 -4 -6 -4t-5 2v20q0 10 10 11l5 1q3 0 3 3q0 4 -6.5 8.5t-12.5 4.5l-82 -2q-22 0 -41 18q-8 11 -8 28q7 -23 22 -31t27 -8q5 0 8.5 1t5.5 2l4 1l62 2q22 0 28 -8l18 -22
l16 -21v-3h-2zM197 191l-1 7q-5 9 -9 9q-5 0 -11 -13h-9q-16 31 -16 39v47q0 11 -6 11h-2l-5 -2l-2 -2q-1 -1 4.5 -2.5t5.5 -3.5v-1h-1l-28 -20l14 42q3 12 13 12q9 0 23 -10l21 -17q8 -5 15 -8.5t12 -3.5q3 0 4 1q1 0 16 10q17 12 27 18.5t15 6.5h1q1 -1 5 -8t8 -16
t7 -17.5t3 -13.5q0 -4 -2 -4h-1q-7 0 -14 16h-9v-8q0 -44 -22 -68q-3 3 -6 15h-12q-4 -16 -7 -16h-4l-7 29h-4v-5q0 -2 -2.5 -7.5l-7.5 -16.5h-6zM640 191l-7.5 16.5t-2.5 7.5v5h-3l-9 -29h-5q-1 0 -7 16h-10q-1 -11 -8 -15q-21 22 -21 68v8h-10q-7 -16 -14 -16h-1
q-1 0 -1 3q0 4 3 13t7 18t8.5 16.5t6.5 8.5h1q5 0 39 -25q15 -10 17 -10q2 -1 5 -1q11 0 26 12l20 17q14 10 24 10q9 0 14 -12l15 -42l-30 20q-2 1 3.5 3.5t4.5 3.5l-2 2l-4 2h-2q-5 0 -5 -11v-47q0 -7 -17 -39h-8q-7 13 -13 13q-5 0 -8 -9l-2 -7h-4zM290 307q-4 0 -8 8
q-17 -4 -28.5 -8.5t-18.5 -9.5l-17 -14h-2h-7l-20 19q-4 4 -11 8t-14.5 7.5t-14.5 5.5t-11 2h-2q-4 -3 -4 -10v-4h-6v22q0 2 3 2q4 0 13 -3t17.5 -7t15.5 -7l7 -3l19 -14l74 16l2 3q2 5 3.5 5.5t3.5 0.5q10 -7 10 -13v-6h-4zM548 313q0 7 9 13q4 0 5.5 -0.5t3.5 -5.5l1 -3
l75 -16l18 14q1 0 8 3t15 7t16.5 7t12.5 3q3 0 3 -2v-22h-3v2q0 7 -7 12h-2q-7 0 -24.5 -7.5t-26.5 -15.5l-18 -19h-6h-2l-19 14q-7 5 -18.5 9.5t-26.5 8.5q-6 -8 -10 -8h-3zM421 245q-8 8 -12.5 13.5t-9.5 6.5q-1 0 -2 0.5t-3 0.5q-6 0 -14 -2.5t-15.5 -8t-12.5 -14
t-5 -20.5v-4q-5 7 -5 18q-1 2 -1 6q0 3 1 3l11 15l9 17q2 3 10.5 4t14.5 1h5q8 -2 17 -14l8 -11h4h4l9 11q10 13 16 14h5q6 0 14 -1t10 -4l10 -17l13 -15v-9q0 -12 -7 -18v5q0 12 -5.5 20t-13 13.5t-15.5 8t-14 2.5q-2 0 -3 -0.5t-2 -0.5q-2 -1 -8.5 -6.5t-12.5 -13.5z
M424 474v-6h4q1 1 1 2l1 2l4 2v31h3v-1l7 -39h6l11 14q21 23 36 23l5 -1l-18 -21q-18 -16 -29 -46h-6q0 6 -4 6h-4q-2 0 -8 -12t-6 -20v-11h-3q0 1 -1 1v0l-1 3l-1 3v-3l-1 -3q-1 0 -2 -1h-4v11q0 8 -5 20t-7 12h-7q-1 0 -1 -3v-3h-6q-8 16 -14 27t-14 19l-18 21q1 0 2 0.5
t3 0.5q12 0 32 -23l13 -14h4l10 39v1h3v-31l1 -2l1 -2q0 -1 1 -2h6v6l3 -3zM425 562q2 -7 11 -7h20q13 0 13 15v5h5q0 -5 11 -8q6 4 6 7l-1 21q-2 8 -8 15.5t-9 7.5h-4q-3 0 -13 -17q-11 -14 -16.5 -22.5t-9.5 -8.5t-4 3q0 1 1 2l3 3q-7 4 -9 4t-10 -4q1 -3 3 -3q1 -1 1 -2
q0 -3 -5 -3l-23 31q-6 9 -9 13l-3 4h-5q-5 0 -9.5 -7.5t-7.5 -15.5l-3 -21q0 -3 9 -7q8 4 11 8h4v-5q0 -15 12 -15h22q4 0 9 7h8zM409 217q-6 5 -14 5q-11 0 -18 -7.5t-7 -15.5q0 -5 2 -7t2 -9h-3l-6 6q-6 12 -6 17v1l5 8q2 2 5 6.5t5 13.5h7l9 1l6 3l1 -1h5l5 -8
q4 -10 14 -11q7 1 15 11l5 8h2l1 1l9 -3l7 -1h9q2 -9 4 -13.5t4 -6.5l7 -8v-1q0 -6 -8 -17l-4 -6h-3q0 5 2 9q2 2 2 7q0 8 -7 15.5t-17 7.5q-9 0 -15 -5q-5 -3 -8 -4.5t-5 -3.5zM86 20q1 -12 4 -12h8q0 8 4 14h3l2 -2l1.5 -3l0.5 -1h5q2 1 29 29l13 17h2v-1q0 -4 -4 -15.5
t-10.5 -24t-14.5 -22.5t-15 -11l-28 -5l-27 -3l-19 -19h-4q-1 0 -1 1v50l1 1l0.5 0.5t1.5 2.5q8 -5 8 -15l10 2q3 10 6 10h4q4 0 4 -9h5l6 17zM766 4h7q0 9 5 9h4q2 0 5 -10l9 -2q0 11 8 15q1 -3 3 -3v-1v-50q0 -1 -1 -1h-5l-18 19l-26 3l-28 5q-8 1 -16.5 11.5t-15 24
t-10.5 25t-4 13.5h3l14 -17q13 -14 20 -21l8 -8h4q1 0 2 4l1 2h4q5 -4 5 -14h7q3 0 6 12l5 1zM247 96q-2 2 -14.5 11t-34.5 26q-21 18 -30 18h-1q-10 -3 -10 -20h-5q0 8 -1 16.5t-4 21.5q-3 18 -3 23q0 2 1 2l4 -2q1 0 6 -6l6 -8q2 -6 6 -6l6 1l6 9h4l5 -6l8 -11h5
q0 12 8 25h4v-4q0 -9 10 -19l3 1l3 6l3 7q1 6 3 6h4l5 -19v-1q5 0 20 19q2 0 2 -3q0 -2 -1 -6t-3 -10q-4 -11 -6.5 -18t-2.5 -9l-3 1l-2 2q-9 9 -16 9q-5 0 -11 -7q0 -1 -0.5 -2t-0.5 -3q0 -8 6.5 -20.5t20.5 -17.5v-6zM596 102q13 4 19.5 16t6.5 20q0 5 -2 7q-6 7 -11 7
q-7 0 -14 -9l-1 -2l-5 -1q-1 2 -3.5 9t-5.5 18q-4 9 -4 15q0 4 2 4q13 -19 20 -19v1l5 19h3q3 0 5 -6l2 -7l2 -6l4 -1q11 8 11 19v4h4q3 -6 5.5 -12.5t2.5 -12.5h3q2 0 10 11l5 6h4l1 -2t3 -7l7 -1q3 0 7 6l5 8l6 6l4 2q1 0 1 -2q0 -5 -3 -23q-2 -13 -3.5 -21.5t-1.5 -16.5
h-5q0 17 -10 20h-1q-7 0 -31 -18q-45 -34 -47 -37v6zM410 304q-3 0 -7 3q-8 3 -17 3q-10 0 -20.5 -3.5t-19.5 -10t-15 -17t-7 -23.5q-8 4 -8 12q0 7 6 16.5t13.5 17t14 13t8.5 5.5l18 -2l19 -1l4 -3q2 -1 3.5 -2.5l3.5 -3.5l5 -4h-1zM438 308l4 6l3 3l22 1l18 2q1 0 8 -5.5
t14.5 -13t13.5 -17t6 -16.5q0 -8 -8 -12q-1 13 -7 23.5t-15 17t-19.5 10t-20.5 3.5t-17 -3q-5 -3 -7 -3h-3zM526 217q-9 -29 -9 -37q0 -2 0.5 -2.5t0.5 -1.5l12 -11q1 -1 1 -17v-19l2 -5l2 -5q0 -2 2 -4l15 1q6 0 6 -5q0 -3 -1 -5q-14 0 -17 -4l-15 -12q-2 -1 -7.5 -2
t-10.5 -1t-5 1v3q15 2 22 8t7 11q0 10 -14 10q-9 0 -22 -7q-3 -1 -4.5 -2t-3.5 -2q3 13 8 19t7 6h23v2q0 12 -7 22t-16 10q-5 0 -7 -1q3 5 6.5 14t9.5 20l10 16h5zM321 217l9 -16q8 -11 12 -20t6 -14q-2 1 -7 1q-11 0 -17.5 -10t-6.5 -22v-2h25q5 0 15 -25q-3 1 -5 2l-4 2
q-13 7 -22 7q-14 0 -14 -10q0 -5 7 -11t23 -8v-3q0 -1 -5 -1t-12.5 1t-8.5 2l-14 12q-4 4 -18 4v4q0 6 6 6l15 -1q3 1 3 4l2 5l2 5v19q0 15 2 17l11 11q0 1 0.5 1.5t0.5 2.5q0 11 -11 37h6zM741 106q-8 -2 -15 -9.5t-7 -15.5v-1q1 -9 7 -14.5t13.5 -8.5t15.5 -4t14 -1
q5 0 7 0.5t3 0.5q5 2 5 9q0 6 -3.5 13.5t-9 14.5t-12.5 11.5t-14 4.5h-4zM97 107q-7 0 -14 -4.5t-12.5 -11.5t-9 -14.5t-3.5 -13.5q0 -7 6 -10q1 0 3 -0.5t7 -0.5q6 0 14 1t15.5 4t13 8.5t6.5 14.5v1q0 8 -7 15.5t-15 9.5zM574 331q-7 0 -15.5 9.5t-8.5 12.5v1l14 13
q12 13 12 27q0 5 -1 7l-23 -4l30 29l2 -42q0 -12 11 -12h3l12 19v-41h-5l-30 15q-5 -3 -8 -3zM275 362q-2 0 -9 3l-29 -15h-5v41l12 -19h4q10 0 10 12l1 42l31 -29l-24 4l-1 -6q0 -15 14 -28l14 -13v-1q0 -3 -9 -12.5t-17 -9.5zM417 352l-9 11l-12 9q0 1 -1 10t-1 17
q0 9 2 11h6q3 -32 19 -32q17 0 20 32h3q3 -2 3 -13q0 -8 -1 -16t-2 -9l-8 -9l-11 -11h-4h-4zM446 625l-25 -28l-26 28l26 -39zM410 -10q-6 -3 -8 -23q-5 0 -5 12q0 1 -0.5 3.5t-0.5 7.5v7q0 9 3 17q4 5 12 13.5t9 8.5l1 1l1 -1q2 0 10 -8.5t10 -13.5q3 -9 3 -24q-1 -5 -1 -7
v-4q0 -12 -2 -12q-3 21 -8 23l-12 6zM668 234q4 4 8.5 19t4.5 23q0 5 -2 5h-10q-3 0 -8.5 -4t-11 -10t-10 -13t-4.5 -13q0 -3 2 -7q4 -10 12 -10q9 0 19 10zM173 234q11 -10 20 -10q7 0 13 10q2 4 2 7q0 6 -4.5 13t-10.5 13t-12 10t-9 4h-8q-3 0 -3 -7q0 -9 3.5 -23t8.5 -17
zM581 283q-3 0 -3 -6q0 -5 1.5 -12.5t3 -14t3 -12l1.5 -5.5q7 -11 16 -11q7 0 11.5 6.5t4.5 14.5q0 4 -1 6q-2 8 -13 19.5t-18 12.5zM254 281q-5 -1 -16.5 -12.5t-13.5 -19.5l-1 -6q0 -8 4.5 -15t11.5 -7t15 12q1 0 3 5.5t4 12t3.5 14t1.5 12.5q0 6 -3 6h-1zM452 161
q2 -2 2 6v6q0 12 -8 12q-6 0 -8 -5l-4 -5q-3 -1 -4 -1.5l-3 -1.5q-3 1 -3 6t4 12q8 17 21 17q7 0 12 -5.5t5 -10.5v-2l-6 -11l-3 -11q-3 -12 -3 -13v-3h-3zM388 151v3q0 1 -3 13l-5 11l-3 11v1q0 6 5 11.5t11 5.5q10 0 19 -17q6 -8 6 -13q0 -3 -4 -5q-4 2 -5 3l-3 5
q-2 5 -9 5q-8 0 -9 -12q0 -12 2 -12h1v-10h-3zM417 722l-4 8l-4 4l-4 4l16 47l17 -47l-4 -4q-6 -2 -6 -4l-3 -8l-3 9zM302 374q8 0 9 -9h13q2 0 2 -3q0 -5 -5 -12.5t-7 -7.5h-5q-1 3 -3 5.5t-4 4.5l-1 10l-2 4q-1 1 -1 3v5h4zM543 374q1 -1 1 -3t-0.5 -3t-0.5 -2l-3 -4
l-2 -10q-2 -6 -4 -10h-4q-5 0 -9.5 7.5t-4.5 12.5q0 3 2 3h14q3 9 6 9h5zM83 63q-7 0 -7 6q0 3 1 5q3 7 8.5 10t10.5 3q7 0 7 -5q0 -3 -1 -4q-3 -14 -17 -15h-2zM759 63q-14 1 -20 15l-1 3q0 6 8 6q5 0 10.5 -3t7.5 -10q2 -6 2 -7q0 -4 -5 -4h-2zM391 29l-3.5 1.5t-7.5 5.5
t-7.5 9t-3.5 11q0 5 1 7q5 20 10 20h5q0 -2 1 -3l-5 -16v-8l11 -22v-2q0 -1 -1 -3zM451 29q-1 2 -1 3v2l9 22v8l-3 16q1 1 1 3h3q8 0 13 -20q1 -2 1 -6q0 -13 -11 -21t-12 -7zM434 48q-1 1 -1 3t6 8q0 1 -2 13t-8 35q-2 7 -2 11v9q0 7 2 7h9v8h-10v16q0 2 1 5l5 4q1 0 1 4
l1 -1h1q-1 0 2 3h2l4 1h2q3 0 3 -3t-1 -6l-10 -25v-4l1 -2q2 -4 2 -5q0 -4 -6 -5v-4q0 -8 5 -25q8 -15 8 -26v-5q-8 -16 -10 -16h-5zM404 48q-5 0 -10 16l-1 6q0 8 9 25q5 17 5 25v4q-7 1 -7 5q0 2 3 5l1 2v4l-10 25q-2 6 -2 7q0 2 2 2h1l7 -1h2q3 -3 2 -3v0q1 0 2 1
q0 -2 0.5 -3l0.5 -1l2 -4q1 -3 1 -5v-16h-7v-8h6q2 0 2 -7q0 -4 -0.5 -8.5t-1.5 -11.5q-6 -39 -6 -46v-2q5 -7 5 -11h-6zM418 293q-5 0 -5 5t5 5h3h3q3 0 3 -5t-3 -5h-3h-3zM425 632l-4 9l-4 -9l4 -8zM651 237q-2 0 -2 2v9q0 2 3 2h6q2 0 2 -3q0 -2 -1 -5t-2 -3zM187 239
q-2 0 -3.5 3t-1.5 5q0 3 3 3h4q4 0 4 -2v-9q0 -2 -1 -2zM240 237q-1 0 -1 2v10q0 1 1 1h4q3 0 3 -7q0 -6 -3 -6h-4zM598 237q-2 0 -2 6q0 7 2 7h4q1 0 1 -1l1 -10l-2 -2h-4z" />
    <glyph glyph-name="daggerdbl" unicode="&#x2021;" horiz-adv-x="852" 
d="M449 71l1 2v31l3 176l60 85q3 8 3.5 24t0.5 33v24q0 29 -12 50q-2 -2 -2 -7l1 -10q2 -20 2.5 -32.5t0.5 -21.5q0 -7 -0.5 -11.5t-0.5 -8.5l1 -12q1 -3 1 -5v-2l-59 -107l-4 -79q-2 6 -2 15l1 18v33q-1 6 -1 10v10q0 8 5 18q8 16 11 46q-7 3 -12.5 8.5t-6.5 12.5l-1 10
q0 8 4 12l3.5 3.5l8 8t8.5 9t5 6.5q7 14 15.5 29.5t8.5 23.5v2l-30 -58l-24 -24q-3 2 -4 3v3q0 5 3 8l32 50l-2 6l-38 -48l1 11l-1 9l4 4t6 5l5 4l4 6q2 2 4 5q0 4 -8 17q-2 4 -3.5 6.5t-2.5 4.5q1 2 2 2.5t1 1.5l4 6q2 2 11 2h9l-4 4l-6 2q-7 2 -11 5q10 7 18 9q-3 1 -6 1
l-7 -1l-6 2q8 10 23 14l-1 1h-7q-17 -3 -26 -10q-1 0 -3 2q1 8 13 13q13 6 20 6h7l6 1l7 -1q2 0 3.5 -0.5t3.5 -0.5l6 -1q10 0 31 -13q2 -2 3 -2.5t2 -1.5l4 -5l5 -4q7 -7 11 -16l3 -6l4 -5q2 -2 3.5 -6l4.5 -12q12 -34 23 -45q21 -23 24 -24q7 -7 18 -7q16 3 17 8q1 1 1 4
q0 5 -3 12t-5 9q-1 1 5.5 -1t11.5 -7q11 -13 11 -27q0 -3 -2 -9l-3 -6t-3 -5q-3 -2 -21 -2q-13 0 -29 15q1 -5 12 -13l5 -3l5 -5q3 -4 13 -4l13 1l7 1h7q6 1 12 5l5 5l6 3q7 6 10 10q0 6 -3.5 11t-8.5 5q-3 0 -4 -1l8 22q2 4 9 4h4q23 0 23 -32l1 -26l-35 -31l-75 -3
l-67 131l-9 24q-3 7 -11 15.5t-10 9.5q-4 -1 -4 -5t4 -9q11 -17 17 -30t8 -22q8 -34 8 -38l2 -40q3 -20 13 -20q2 4 2 7q0 5 -5 18l-2 6v1v4q10 -7 23 -32q0 -2 2 -6q-6 -7 -10 -11.5t-5 -7.5l-3 -6q0 -2 -3 -3q-4 2 -7 5.5t-7 8.5q-5 8 -8 11.5l-3 3.5l1 7v6l1 7v7v6v7
q0 29 -4.5 51t-6.5 27q-17 33 -27 36v-2q0 -4 3 -10q2 -5 4 -9t3 -8l-7 -188q0 -1 -2 -5q-1 2 -2 6.5t-2 12.5q-2 13 -11 13q-11 -8 -14 -28q-4 -19 -4 -32q0 -3 -0.5 -4.5l-0.5 -1.5q-2 -23 -3 -40.5t-1 -29.5q0 -11 1 -15v-15q0 -14 -0.5 -23.5t-0.5 -14.5q0 -39 10 -44
q3 3 3.5 13t0.5 26l-6 -2l13 52l1 -92q-4 -11 -5 -12q-2 -2 -6 -2t-6 1q-5 2 -6 5.5t-3 9.5v161h-10l1 -193l-37 -36l-38 36l1 193h-9v-161q-3 -11 -9 -15q-3 -1 -7 -1t-6 2q-1 1 -1.5 4t-2.5 8v92l14 -52l-6 2q0 -16 0.5 -26.5t3.5 -13.5q9 4 9 38v7q0 4 -0.5 11t-0.5 18
v11t1 13v12q0 12 -1 30.5t-3 42.5v6q0 5 -1 13t-3 19q-3 18 -14 28q-11 0 -12 -13q-1 -14 -3 -19q-2 2 -2 4v1l-8 188q3 9 7 17q4 7 4 12q-11 -3 -27 -36q-3 -5 -7 -27t-5 -51v-7l1 -6v-7l1 -7v-6l1 -7l-12 -15q-6 -9 -13 -14q-2 1 -4 3l-2 6q-3 6 -16 19l3 6q13 26 22 32
q1 -2 1 -5l-3 -6q-4 -11 -4 -19q0 -4 1 -6q10 0 13 20q1 2 1 12t2 28q0 3 2 12.5t5 25.5q4 16 26 52q4 8 4 9q0 3 -4 5q-2 -1 -10.5 -9.5t-11.5 -15.5l-2 -6l-6 -18l-68 -131l-74 3l-35 31v3q0 5 0.5 13.5t0.5 9.5q0 32 23 32h3q7 0 9 -4l9 -22q-1 1 -4 1q-5 0 -8.5 -5
t-3.5 -10v-1q3 -4 10 -10l5 -3l5 -5q8 -4 13 -4l7 -1l6 -1l13 -1q11 0 14 4l4 5l6 3q11 8 12 13q-18 -15 -30 -15q-18 0 -20 2q-1 1 -3.5 5t-3.5 6t-1 8q0 7 2.5 14.5t8.5 13.5q5 5 11 7t6 1q-2 -3 -5 -10t-3 -12v-2q2 -6 17 -9q11 0 19 7q2 1 7.5 7t16.5 17q9 9 23 45
q2 8 2.5 12t1.5 6l7 5l3 6q5 9 12 16l5 4l4 5q0 1 5 4q19 13 30 13l7 1l7 1l6 1l7 -1h7q7 0 19 -6q11 -5 14 -13q-1 -1 -3 -1h-1q-11 6 -25 9h-7h-1v-1q16 -5 22 -14q-1 -1 -4 -1h-1h-7q-4 0 -7 -1q9 -2 18 -9q-5 -3 -10 -5l-7 -2q-1 0 -3 -4h8q10 0 12 -2l3 -5q1 -1 1.5 -2
t2.5 -3q-1 -2 -7 -11q-4 -6 -5.5 -10.5t-2.5 -6.5q2 -3 4 -5l4 -6l6 -4q7 -6 9 -9q-1 -3 -1 -9q0 -7 1 -11l-39 48l-1 -6l32 -50q4 -3 4 -8v-3q-1 -2 -4 -2l-25 23l-30 58v-2q0 -8 8.5 -23t15.5 -30q1 -2 5 -6.5t8.5 -9l8 -8l3.5 -3.5q4 -4 4 -12q0 -6 -1 -10
q-1 -7 -6.5 -12t-12.5 -9q2 -14 5 -26t7 -20q2 -5 3 -9l2 -8l-1 -21q-1 -5 -1 -15v-9t1 -9v-12q0 -13 -2 -21l-4 79l-58 107v7l1 12q0 4 -0.5 8.5t-0.5 11.5q0 9 0.5 21.5t2.5 32.5l1 10q0 5 -2 7q-11 -20 -11 -44v-6v-28q0 -16 0.5 -30.5t2.5 -22.5l60 -85l4 -176v-30l2 -2
v3v17l4 3l3 35l8 -35l5 43l7 -43l7 35l4 -35l3 -3v-17zM320 539q-2 -2 -5.5 -7t-10.5 -8l-6 -4l-6 -4l-5 -4l-7 -3q-2 -2 -12 -7q-6 -5 -10.5 -6.5t-8.5 -2.5h-2q-15 0 -24 17q-3 7 -3 14l2 8l5 5l4 6q2 3 11 5.5t18 2.5q14 0 20 -7l1 -1q0 -2 -6 -2h-5q-7 0 -17 -3l-7 -2
q-3 -3 -3 -9q0 -8 8 -12q2 -1 5 -1q4 0 12 2q3 1 10 4.5t14.5 8t14 8.5t8.5 6l-1 7q0 4 -3.5 8t-8 7.5t-8.5 5.5l-4 2l10 -1l6 -2q7 -5 57 -5q32 0 36 -2q8 -2 16.5 -9t9.5 -14h-2v-1l-1 1l-6 4q-4 3 -14 6t-14 3h-7q-4 0 -11 -1l-17 -3q-5 0 -27 -5q-5 -1 -5 -2t-1 -3z
M533 539q-1 1 -1 2t-4 2q-21 6 -28 6q-2 0 -6 0.5t-10 1.5q-8 1 -12.5 1.5t-6.5 0.5l-14 -3.5t-14 -5.5l-5 -5h-2v1h-2q2 6 10 13.5t16 9.5q3 1 20 1h16q49 0 57 5l6 3h10q-1 0 -6.5 -3.5t-11.5 -9t-6 -10.5l-1 -7q2 -1 8.5 -5t14 -8.5t14.5 -8.5t10 -5q8 -2 10 -2q3 0 7 2
q8 4 8 12t-3 8l-7 3q-11 3 -17 3h-5h-3q-2 0 -2 1v1q6 7 20 7q10 0 18.5 -2.5t10.5 -5.5l4 -6l5 -5q1 -1 1 -7v-4q0 -2 -2 -10q-8 -17 -22 -17h-4q-6 0 -19 8q-4 2 -7 4t-5 3l-6 3l-6 5l-6 3l-6 4q-6 4 -10 9t-6 7zM305 593q-10 23 -10 33q2 26 16 30h2q8 0 28 -18
q9 -7 5 -7q-8 3 -14 3q-9 0 -12 -8v-4t1 -11v-7q3 -8 16 -15q8 -5 21 -7q-5 5 -8.5 14.5t-3.5 17.5q0 16 12 16h3q9 -2 14 -9t5 -10q0 -1 -1 -1v0l-1 1q-5 5 -11 5q-8 0 -8 -8q0 -9 9 -22q4 -6 9 -8t16 -4l13 -6l-16 2h-13q-33 0 -72 6q-25 4 -39.5 23t-15.5 35q0 5 2 13
t5.5 16.5t8 15t8.5 9.5q3 2 10.5 5t16.5 3q7 0 15 -3q11 -4 18 -11l6 -6l5 -4q6 -3 6 -12l-7 4q-3 3 -14.5 8.5t-22.5 5.5q-6 0 -8 -1q-20 -6 -23 -41v-6q0 -12 4 -21.5t8 -12.5q5 -5 19 -10zM546 586q13 4 19 10q4 3 8 12.5t4 21.5v6q-3 35 -23 41q-2 1 -8 1
q-11 0 -22.5 -5.5t-14.5 -8.5l-7 -4q0 9 6 12l5 4l6 6q6 6 18 11q7 3 15 3q9 0 16.5 -3t10.5 -5q4 -3 8.5 -9.5t8 -14t5.5 -15.5t2 -14v-1q-1 -16 -15.5 -35t-39.5 -23q-39 -6 -72 -6h-13l-16 -2l14 5q10 2 15 4.5t9 8.5q9 13 9 22q0 8 -8 8q-6 0 -11 -5q-1 -1 -2 -1v0v1
q0 3 5 10t14 9h3q12 0 12 -16q0 -8 -3.5 -17.5t-8.5 -14.5q13 2 21 7q13 7 16 15v7q1 8 1 11v4q-3 8 -11 8q-6 0 -15 -3q-2 0 5 7q19 18 28 18h2q14 -4 16 -30q0 -9 -9 -33zM247 262q-25 0 -33 7q-14 11 -19 20t-5 16q0 8 5 13q2 2 10 3.5t18 1.5h9q5 0 10 -1l6 -8t2 -4
l-2 1q-1 0 -2 -0.5t-3 -0.5q-7 -2 -11 -7v-2q4 -4 14 -7q3 -2 5 -2h2l20 2l10 10q14 12 20.5 20t8.5 12l4 93l3 -3v-87l-4 -13q0 -14 -22 -42q-11 -14 -14 -15l-14 -4q-11 -2 -18 -3zM606 262q-5 1 -17 3l-15 4q-4 2 -14 15q-20 26 -22 42l-3 13v87l2 3l4 -93q3 -8 29 -32
l10 -10l20 -2q3 0 8 2q9 3 13 7v2q-4 5 -11 7q-2 0 -2.5 0.5t-1.5 0.5t-2 -0.5l-1 -0.5l3 4t5 8q5 1 9 1h10q10 0 18 -1.5t10 -3.5q5 -5 5 -13t-5 -16.5t-19 -19.5q-8 -7 -33 -7zM194 467l-30 33l-0.5 1t-0.5 3q0 8 2.5 22t5.5 19h12l32 -34q-1 0 -1.5 0.5l-0.5 0.5
q-1 0 -0.5 -1t-4.5 -1q-2 0 -4.5 0.5t-5.5 0.5h-5q-3 0 -3 -2t3 -8q8 -17 22 -19l14 -1h6q21 0 40 16l7 4q-2 -7 -10 -12.5t-15 -11.5q-14 -14 -37 -14q-5 0 -9 0.5t-9 1.5zM651 465q-5 -1 -9 -1.5t-9 -0.5q-21 0 -38 14q-6 6 -14 11.5t-10 12.5l7 -4q19 -16 39 -16h6l15 1
q14 2 22 19q3 6 3 8t-3 2h-5q-3 0 -5.5 -0.5t-4.5 -0.5q-5 0 -4.5 1t-0.5 1l-0.5 -0.5t-1.5 -0.5l32 34h12q2 -6 4.5 -20.5t2.5 -21.5v-3l-30 -33zM681 474q5 1 9 7t7.5 13t5.5 13.5t2 9.5l3 15v2q0 5 -2 10t-4 7l-16 26l-28 -1l-27 -9v1q0 2 3.5 8.5t8.5 13.5l10 14t8 10
q14 1 22.5 1.5t13.5 0.5h4l35 -69l0.5 -0.5t0.5 -1.5q0 -4 -3 -14.5t-7 -22.5t-8.5 -22t-7.5 -12q-4 -3 -11 -5.5t-14.5 -4.5t-13.5 -3.5t-8 -1.5zM189 459q-2 0 -8.5 1.5t-14 3.5t-14.5 4.5t-10 5.5t-7.5 13t-8.5 22t-7 23t-3 14v1l35 69h4q5 0 14 -0.5t23 -1.5q3 -3 8 -10
t9.5 -14t8 -13t3.5 -9v-1l-26 9l-29 1l-16 -26q-1 -2 -3.5 -7.5t-2.5 -9.5v-2l3 -15q1 -3 3 -9.5t5 -13.5t7 -13t9 -7zM302 125h-1q-3 0 -9 4.5t-7 11.5v49l9 -39q4 -9 14 -9q8 0 10 4l15 31l3 60q1 8 5 8l6 -2q2 -1 6 -6.5t4 -10.5q0 -3 -2 -5l-9 9l-7 -57l-15 -39z
M513 173l-6 57l-9 -10q-2 2 -2 5q0 5 4 10.5t6 6.5q4 2 6 2q4 0 5 -7l3 -61l15 -30q2 -4 10 -4q10 0 14 8l8 39l1 -48q-1 -8 -7 -12t-9 -4h-1l-23 8zM424 614q-11 0 -13 -10v-2q0 -5 6 -7l1 -17h-8l-16 15v4v2q0 6 4.5 14t10 15t11 11.5t7.5 4.5t7.5 -5t11 -11.5t10 -14.5
t4.5 -14v-2l-1 -5l-16 -14h-8l1 17q6 2 6 7v2q-1 5 -5 7.5t-9 2.5h-2h-2zM624 432l-17 24q5 -1 13 -8t9 -11l7 -15q0 -1 -0.5 -8.5t-4.5 -7.5h-1q-8 0 -16 5.5t-9 7.5l-30 40l-3 14l30 -43l23 -13zM251 430l30 43l-2 -14l-31 -40q0 -2 -8.5 -7.5t-16.5 -5.5h-1q-3 0 -3.5 4
t-0.5 8v4l6 15q1 4 9 11t14 8l-18 -24l-1 -15zM452 638l-26 21l-26 -21l26 52zM457 396q-5 0 -7.5 -4.5t-2.5 -10.5q0 -7 2.5 -13t7.5 -8l4 -1q10 0 22.5 10t12.5 19l-1 78h-1v-2q0 -2 -9 -21l-6 -16l1 -5q2 -10 2 -11q0 -2 -2 -7t-5 -11t-6.5 -11t-7.5 -6v8q0 9 -3 12
l-0.5 0.5t-0.5 -0.5zM396 396q0 1 -0.5 0.5l-0.5 -0.5q-3 -3 -3 -12v-8q-5 1 -8.5 6t-6.5 11t-4.5 11t-1.5 7q0 1 2 11l1 5l-1.5 4l-4.5 12q-9 19 -9 21v2h-1l-1 -78q0 -9 12.5 -19t22.5 -10l4 1q5 2 7.5 8t2.5 13q0 6 -2.5 10.5t-7.5 4.5zM126 543l6 4l31 49l-3 2v-2z
M692 598l-2 -2l31 -49l6 -4l-34 53zM427 221l-4 17l-1 60q-1 5 -3.5 6.5t-4.5 5.5q-2 5 -3 12.5t-1 15.5q0 12 2 22.5t5 12.5q1 0 2 -3.5t1.5 -8t0.5 -8.5v-5q-2 -6 -2 -10q0 -6 2.5 -11t5.5 -10q3 5 5.5 10.5t2.5 12.5q0 5 -1 8q0 1 -0.5 3.5t-0.5 5.5q0 6 0.5 11.5
t2.5 4.5q3 -2 5 -13t2 -23q0 -19 -4 -27q-2 -4 -4 -5.5t-3 -6.5l-1 -60l-4 -18v1zM443 462l-17 -20l-16 20l16 22zM568 685l-2 -2l25 -31l5 -2l-28 34v1zM256 650l5 2l25 31l-2 2v-1zM454 62h-5v-24l-19 -19l24 16v27zM424 19l-20 19v24h-5v-27zM426 499v1q-1 1 -6.5 8
t-5.5 9v2h12h12q1 0 1 -2q-1 -2 -6 -9t-7 -8v-1zM418 47l9 -7l9 7l-9 16z" />
    <glyph glyph-name="bullet" unicode="&#x2022;" horiz-adv-x="500" 
d="M137 376q0 22 8.5 41.5t22.5 34t33.5 23t41.5 8.5t41.5 -8.5t34 -23t23 -34t8.5 -41.5t-8.5 -41.5t-23 -33.5t-34 -22.5t-41.5 -8.5q-45 0 -75.5 30.5t-30.5 75.5z" />
    <glyph glyph-name="ellipsis" unicode="&#x2026;" horiz-adv-x="410" 
d="M14 50q0 12 3 21.5t9 20.5q10 18 23 18t24 -18q10 -19 10 -42q0 -26 -10 -44t-24 -18q-13 0 -23 18q-5 9 -8.5 19.5t-3.5 24.5zM172 50q0 12 3 21.5t9 20.5q10 18 23 18t24 -18q10 -19 10 -42q0 -26 -10 -44t-24 -18q-13 0 -23 18q-5 9 -8.5 19.5t-3.5 24.5zM327 50
q0 12 3 21.5t9 20.5q10 18 23 18t24 -18q10 -19 10 -42q0 -26 -10 -44t-24 -18q-13 0 -23 18q-5 9 -8.5 19.5t-3.5 24.5z" />
    <glyph glyph-name="perthousand" unicode="&#x2030;" horiz-adv-x="598" 
d="M168 336q0 -46 -16 -61q-21 -19 -48 -19q-31 0 -48 18q-9 10 -13.5 25t-4.5 39v280q0 47 18 64q8 8 20.5 13t27.5 5q14 0 25.5 -5.5t22.5 -14.5q16 -15 16 -62v-282zM395 84q0 -46 -16 -64q-17 -20 -48 -20q-28 0 -48 20q-8 8 -13 22.5t-5 35.5v288q0 42 18 60t48 18
q28 0 48 -18q16 -15 16 -65v-277zM194 0h-21l59 700h21zM118 622q0 32 -16 32t-16 -34v-284q0 -34 16 -34t16 32v288zM345 366q0 32 -14 32q-16 0 -16 -30v-290q0 -32 16 -32q14 0 14 34v286zM558 84q0 -46 -16 -64q-17 -20 -48 -20q-28 0 -48 20q-8 8 -13 22.5t-5 35.5v288
q0 42 18 60t48 18q28 0 48 -18q16 -15 16 -65v-277zM508 366q0 32 -14 32q-16 0 -16 -30v-290q0 -32 16 -32q14 0 14 34v286z" />
    <glyph glyph-name="guilsinglleft" unicode="&#x2039;" horiz-adv-x="143" 
d="M116 569v-483v-31q0 -13 1 -16q6 -21 17 -39q-10 -5 -19 -15.5t-20 -26.5q-14 -20 -23.5 -34t-17.5 -22t-21 -12t-28 -6q26 39 32 80q2 14 4 39t2 61v394q0 25 -1.5 40.5t-2.5 23.5q-2 11 -9 22t-18 25h104zM47 632l-37 18q16 0 27.5 12t18.5 29t10.5 35.5t3.5 30.5
q0 -12 3 -30t10 -35t17.5 -29.5t24.5 -12.5l-38 -18l-20 -34z" />
    <glyph glyph-name="guilsinglright" unicode="&#x203a;" horiz-adv-x="1547" 
d="M1457 372l-2 1h-31l-176 3l-85 60q-8 3 -24 3.5t-33 0.5h-24q-29 0 -50 -12q2 -2 7 -2l10 1q20 2 32.5 2.5t21.5 0.5q7 0 11.5 -0.5t8.5 -0.5l12 1q3 1 5 1h2l107 -59l79 -4q-6 -2 -15 -2l-18 1h-33q-6 -1 -11 -1h-9q-8 0 -18 5q-16 8 -46 11q-3 -7 -8.5 -12.5
t-12.5 -6.5l-10 -1q-8 0 -12 4l-3.5 3.5l-8 8t-9 8.5t-6.5 5q-14 7 -29.5 15.5t-23.5 8.5h-2l58 -30l24 -24q-2 -3 -3 -4h-3q-5 0 -8 3l-50 32l-6 -2l48 -38l-11 1l-9 -1l-4 4t-5 6l-4 5l-6 4q-2 2 -5 4q-4 0 -17 -8q-4 -2 -6.5 -3.5t-4.5 -2.5q-2 1 -2.5 2t-1.5 1l-6 4
q-2 2 -2 11v9l-4 -4l-2 -6q-2 -7 -5 -11q-8 10 -9 18q-1 -3 -1 -6l1 -7l-2 -6q-10 8 -14 23l-1 -1v-7q3 -17 10 -26q0 -1 -2 -3q-8 1 -13 13q-6 13 -6 20v7l-1 6l1 7q0 2 0.5 3.5t0.5 3.5l1 6q0 10 13 31q2 2 2.5 3t1.5 2l5 4l4 5q7 7 16 11l6 3l5 4q2 2 6 3.5l12 4.5
q34 12 45 23q22 21 24 24q7 7 7 18q-3 16 -8 17q-1 1 -4 1q-5 0 -12 -3t-9 -5q-1 -1 1 5.5t7 11.5q13 11 27 11q3 0 9 -2l6 -3t5 -3q2 -3 2 -21q0 -13 -15 -29q5 1 13 12l3 5l5 5q4 3 4 13l-1 13l-1 7v7q-1 6 -5 12l-5 5l-3 6q-6 7 -10 10q-6 0 -11 -3.5t-5 -8.5q0 -3 1 -4
l-22 8q-4 2 -4 9v4q0 23 32 23l26 1l31 -35l3 -75l-131 -67l-24 -9q-7 -3 -15.5 -11t-9.5 -10q1 -4 5 -4t9 4q17 11 30 17t22 8q34 8 38 8l40 2q20 3 20 13q-4 2 -7 2q-5 0 -18 -5l-6 -2h-1h-4q7 10 32 23q2 0 6 2q7 -6 11.5 -10t7.5 -5l6 -3q1 0 3 -3q-2 -4 -5.5 -7
t-8.5 -7q-8 -5 -11.5 -8l-3.5 -3l-7 1h-6l-7 1h-7h-6h-7q-29 0 -51 -4.5t-27 -6.5q-33 -17 -36 -27h2q4 0 10 3q5 2 9 4t8 3l188 -7q1 0 5 -2q-2 -1 -6.5 -2t-12.5 -2q-13 -2 -13 -11q8 -11 28 -14q19 -4 32 -4q3 0 4.5 -0.5l1.5 -0.5q23 -2 40.5 -3t29.5 -1q11 0 15 1h15
q14 0 23.5 -0.5t14.5 -0.5q39 0 44 10q-3 3 -13 3.5t-26 0.5l2 -6l-52 13l92 1q10 -4 12 -5q2 -2 2 -6t-1 -6q-2 -5 -5.5 -6t-9.5 -3h-161v-10l193 1l36 -37l-36 -38l-193 1v-9h161q11 -3 15 -9q1 -3 1 -7t-2 -6q-1 -1 -4 -1.5t-8 -2.5h-92l52 14l-2 -6q16 0 26.5 0.5
t13.5 3.5q-4 9 -38 9h-7q-4 0 -11 -0.5t-18 -0.5h-11t-13 1h-12q-12 0 -30.5 -1t-42.5 -3h-6q-5 0 -13 -1t-19 -3q-18 -3 -28 -14q0 -11 13 -12q14 -1 19 -3q-2 -2 -4 -2h-1l-188 -8q-9 3 -17 7q-7 4 -12 4q3 -11 36 -27q5 -3 27 -7t51 -5h7l6 1h7l7 1h6l7 1l15 -12
q8 -6 14 -13q-1 -2 -3 -4l-6 -2q-6 -3 -19 -16l-6 3q-26 13 -32 22q2 1 5 1l6 -3q11 -4 19 -4q4 0 6 1q0 10 -20 13q-2 1 -12 1t-28 2q-3 0 -12.5 2t-25.5 5q-16 4 -52 26q-8 4 -9 4q-3 0 -5 -4q1 -2 9.5 -10.5t15.5 -11.5l6 -2l18 -6l131 -68l-3 -74l-31 -35h-3
q-5 0 -13.5 0.5t-9.5 0.5q-32 0 -32 23v3q0 7 4 9l22 9q-1 -1 -1 -4q0 -5 5 -8.5t10 -3.5h1q4 3 10 10l3 5l5 5q4 8 4 13l1 7l1 6l1 13q0 11 -4 14l-5 4l-3 6q-8 11 -13 12q15 -18 15 -30q0 -18 -2 -20q-1 -1 -5 -3.5t-6 -3.5t-8 -1q-7 0 -14.5 2.5t-13.5 8.5q-5 5 -7 11
t-1 6q3 -2 10 -5t12 -3h2q6 2 9 17q0 11 -7 19q-1 2 -7 7.5t-17 16.5q-9 9 -45 23q-8 2 -12 2.5t-6 1.5l-5 7l-6 3q-9 5 -16 12l-4 5l-5 4q-1 0 -4 5q-13 19 -13 30l-1 7l-1 7l-1 6l1 7v7q0 7 6 19q5 11 13 14q1 -1 1 -3v-1q-6 -11 -9 -25v-7v-1h1q5 16 14 22q1 -1 1 -4v-1
v-7q0 -4 1 -7q1 9 9 18q3 -5 5 -10l2 -7q0 -1 4 -3v8q0 10 2 12l5 3q1 1 2 1.5t3 2.5q2 -1 11 -7q6 -4 10.5 -5.5t6.5 -2.5q3 2 5 4l6 4l4 6q6 7 9 9q3 -1 9 -1q7 0 11 1l-48 -39l6 -1l50 32q3 4 8 4h3q2 -1 2 -4l-23 -25l-58 -30h2q8 0 23 8.5t30 15.5q2 1 6.5 5t9 8.5l8 8
l3.5 3.5q4 4 12 4q6 0 10 -1q7 -1 12 -6.5t9 -12.5q14 2 26 5t20 7q5 2 9 3l8 2l21 -1q5 -1 15 -1h9t9 1h12q13 0 21 -2l-79 -4l-107 -58h-7l-12 1q-4 0 -8.5 -0.5t-11.5 -0.5q-9 0 -21.5 0.5t-32.5 2.5l-10 1q-5 0 -7 -2q20 -11 44 -11h6h28q16 0 30.5 0.5t22.5 2.5l85 60
l176 4h30l2 2h-3h-17l-3 4l-35 3l35 8l-43 5l43 7l-35 7l35 4l3 3h17zM989 243q2 -2 7 -5.5t8 -10.5l4 -6l4 -6l4 -5l3 -7q2 -2 7 -12q5 -6 6.5 -10.5t2.5 -8.5v-2q0 -15 -17 -24q-8 -3 -14 -3l-8 2l-5 5l-6 4q-3 2 -5.5 11t-2.5 18q0 14 7 20l1 1q2 0 2 -6v-5q0 -7 3 -17
l2 -7q3 -3 9 -3q8 0 12 8q1 2 1 5q0 4 -2 12q-1 3 -4.5 10t-8 14.5t-9 14t-5.5 8.5l-7 -1q-4 0 -8 -3.5t-7.5 -8t-5.5 -8.5l-2 -4l1 10l2 6q5 7 5 57q0 32 2 36q2 8 9 16.5t14 9.5v-2h1l-1 -1l-4 -6q-3 -4 -6 -14t-3 -14v-7q0 -4 1 -11l3 -17q0 -5 5 -27q1 -5 2 -5t3 -1z
M989 456q-1 -1 -2 -1t-2 -4q-6 -21 -6 -28q0 -2 -0.5 -6t-1.5 -10q-1 -8 -1.5 -12.5t-0.5 -6.5l3.5 -14t5.5 -14l5 -5v-2h-1v-2q-6 2 -13.5 10t-9.5 16q-1 3 -1 20v16q0 49 -5 57l-3 6v10q0 -1 3.5 -6.5t9 -11.5t10.5 -6l7 -1q1 2 5 8.5t8.5 14t8.5 14.5t5 10q2 8 2 10
q0 3 -2 7q-4 8 -12 8t-8 -3l-3 -7q-3 -11 -3 -17v-5v-3q0 -2 -1 -2h-1q-7 6 -7 20q0 10 2.5 18.5t5.5 10.5l6 4l5 5q1 1 7 1h4q2 0 10 -2q17 -8 17 -22v-4q0 -6 -8 -19q-2 -4 -4 -7t-3 -5l-3 -6l-5 -6l-3 -6l-4 -6q-4 -6 -9 -10t-7 -6zM935 228q-23 -10 -33 -10
q-26 2 -30 16v2q0 8 18 28q7 9 7 5q-3 -8 -3 -14q0 -9 8 -12h4t11 1h7q8 3 15 16q5 8 7 21q-5 -5 -14.5 -8.5t-17.5 -3.5q-16 0 -16 12v3q2 9 9 14t10 5q1 0 1 -1v0l-1 -1q-5 -5 -5 -11q0 -8 8 -8t22 9q6 4 8 9t4 16l6 13l-2 -16v-13q0 -33 -6 -72q-4 -25 -23 -39.5
t-35 -15.5q-5 0 -13 2t-16.5 5.5t-15 8t-9.5 8.5q-2 3 -5 10.5t-3 16.5q0 7 3 15q4 11 11 18l6 6l4 5q3 6 12 6l-4 -7q-3 -3 -8.5 -14.5t-5.5 -22.5q0 -6 1 -8q6 -20 41 -23h6q12 0 21.5 4t12.5 8q5 5 10 19zM942 469q-5 13 -10 19q-3 4 -12.5 8t-21.5 4h-6q-35 -3 -41 -23
q-1 -2 -1 -8q0 -11 5.5 -22.5t8.5 -14.5l4 -7q-9 0 -12 6l-4 5l-6 6q-6 6 -11 18q-3 7 -3 15q0 9 3 16.5t5 10.5q3 4 9.5 8.5t14 8t15.5 5.5t14 2h1q16 -1 35 -15.5t23 -39.5q6 -39 6 -72v-13l2 -16l-5 14q-2 10 -4.5 15t-8.5 9q-14 9 -22 9t-8 -8q0 -6 5 -11q1 -1 1 -2v0
h-1q-3 0 -10 5t-9 14v3q0 12 16 12q8 0 17.5 -3.5t14.5 -8.5q-2 13 -7 21q-7 13 -15 16h-7q-8 1 -11 1h-4q-8 -3 -8 -11q0 -6 3 -15q0 -2 -7 5q-18 19 -18 28v2q4 14 30 16q9 0 33 -9zM1266 170q0 -25 -7 -33q-11 -14 -20 -19t-16 -5q-8 0 -13 5q-2 2 -3.5 10t-1.5 18v9
q0 5 1 10l8 6t4 2l-1 -2q0 -1 0.5 -2t0.5 -3q2 -7 7 -11h2q4 4 7 14q2 3 2 5v2l-2 20l-10 10q-22 25 -32 29l-93 4l3 3h87l13 -4q14 0 42 -22q14 -11 15 -14l4 -14q1 -11 3 -18zM1266 529q-1 -5 -3 -17l-4 -15q-2 -4 -15 -14q-26 -20 -42 -22l-13 -3h-87l-3 2l93 4
q8 3 32 29l10 10l2 20q0 3 -2 8q-3 9 -7 13h-2q-5 -4 -7 -11q0 -2 -0.5 -2.5t-0.5 -1.5t0.5 -2l0.5 -1l-4 3t-8 5q-1 5 -1 9v10q0 10 1.5 18t3.5 10q5 5 13 5t16.5 -5t19.5 -19q7 -8 7 -33zM1061 117l-33 -30l-1 -0.5t-3 -0.5q-8 0 -22 2.5t-19 5.5v12l34 32q0 -1 -0.5 -1.5
l-0.5 -0.5q0 -1 1 -0.5t1 -4.5q0 -2 -0.5 -4.5t-0.5 -5.5v-5q0 -3 2 -3t8 3q17 8 19 22l1 14v6q0 21 -16 40l-4 7q7 -2 12.5 -10t11.5 -15q14 -14 14 -37q0 -5 -0.5 -9t-1.5 -9zM1063 574q1 -5 1.5 -9t0.5 -9q0 -21 -14 -38q-6 -6 -11.5 -14t-12.5 -10l4 7q16 19 16 39v6
l-1 15q-2 14 -19 22q-6 3 -8 3t-2 -3v-5q0 -3 0.5 -5.5t0.5 -4.5q0 -5 -1 -4.5t-1 -0.5l0.5 -0.5t0.5 -1.5l-34 32v12q6 2 20.5 4.5t21.5 2.5h3l33 -30zM1054 604q-2 5 -7.5 9t-12.5 7.5t-13.5 5.5t-9.5 2l-15 3h-2q-5 0 -10 -2t-7 -4l-26 -16l1 -28l9 -27h-1q-2 0 -8.5 3.5
t-13.5 8.5l-14 10t-10 8q-1 14 -1.5 22.5t-0.5 13.5v4l69 35l0.5 0.5t1.5 0.5q4 0 14.5 -3t22.5 -7t22 -8.5t12 -7.5q3 -4 5.5 -11t4.5 -14.5t3.5 -13.5t1.5 -8zM1069 112q0 -2 -1.5 -8.5t-3.5 -14t-4.5 -14.5t-5.5 -10t-13 -7.5t-22 -8.5t-23 -7t-14 -3h-1l-69 35v4
q0 5 0.5 14t1.5 23q3 3 10 8t14 9.5t13 8t9 3.5h1l-9 -26l-1 -29l26 -16q2 -1 7.5 -3.5t9.5 -2.5h2l15 3q3 1 9.5 3t13.5 5t12.5 7t7.5 9zM1403 225v-1q0 -3 -4.5 -9t-11.5 -7h-49l39 9q9 4 9 14q0 8 -4 10l-31 15l-60 3q-8 1 -8 5l2 6q1 2 6.5 6t10.5 4q3 0 5 -2l-9 -9
l57 -7l39 -15zM1355 436l-57 -6l10 -9q-2 -2 -5 -2q-5 0 -10.5 4t-6.5 6q-2 4 -2 6q0 4 7 5l61 3l30 15q4 2 4 10q0 10 -8 14l-39 8l48 1q8 -1 12 -7t4 -9v-1l-8 -23zM914 347q0 -11 10 -13h2q5 0 7 6l17 1v-8l-15 -16h-4h-2q-6 0 -14 4.5t-15 10t-11.5 11t-4.5 7.5t5 7.5
t11.5 11t14.5 10t14 4.5h2l5 -1l14 -16v-8l-17 1q-2 6 -7 6h-2q-5 -1 -7.5 -5t-2.5 -9v-2v-2zM1096 547l-24 -17q1 5 8 13t11 9l15 7q1 0 8.5 -0.5t7.5 -4.5v-1q0 -8 -5.5 -16t-7.5 -9l-40 -30l-14 -3l43 30l13 23zM1098 174l-43 30l14 -2l40 -31q2 0 7.5 -8.5t5.5 -16.5v-1
q0 -3 -4 -3.5t-8 -0.5h-4l-15 6q-4 1 -11 9t-8 14l24 -18l15 -1zM890 375l-21 -26l21 -26l-52 26zM1132 380q0 -5 4.5 -7.5t10.5 -2.5q7 0 13 2.5t8 7.5l1 4q0 10 -10 22.5t-19 12.5l-78 -1v-1h2q1 0 21 -9l16 -6l5 1q10 2 11 2q2 0 7 -2t11 -5t11 -6.5t6 -7.5h-8
q-9 0 -12 -3l-0.5 -0.5t0.5 -0.5zM1132 319q-1 0 -0.5 -0.5l0.5 -0.5q3 -3 12 -3h8q-1 -5 -6 -8.5t-11 -6.5t-11 -4.5t-7 -1.5q-1 0 -11 2l-5 1l-4 -1.5l-12 -4.5q-20 -9 -21 -9h-2v-1l78 -1q9 0 19 12.5t10 22.5l-1 4q-2 5 -8 7.5t-13 2.5q-6 0 -10.5 -2.5t-4.5 -7.5z
M985 49l-4 6l-49 31l-2 -3h2zM930 615l2 -2l49 31l4 6l-53 -34zM1307 350l-17 -4l-60 -1q-5 -1 -6.5 -3.5t-5.5 -4.5q-5 -2 -12.5 -3t-15.5 -1q-12 0 -22.5 2t-12.5 5q0 1 3.5 2t8 1.5t8.5 0.5h5q6 -2 10 -2q6 0 11 2.5t10 5.5q-5 3 -10.5 5.5t-12.5 2.5q-5 0 -8 -1
q-1 0 -3.5 -0.5t-5.5 -0.5q-6 0 -11.5 0.5t-4.5 2.5q2 3 13 5t23 2q19 0 27 -4q4 -2 5.5 -4t6.5 -3l60 -1l18 -4h-1zM1066 366l20 -17l-20 -16l-22 16zM843 491l2 -2l31 25l2 5l-34 -28h-1zM878 179l-2 5l-31 25l-2 -2h1zM1466 377v-5h24l19 -19l-16 24h-27zM1509 347
l-19 -20h-24v-5h27zM1029 349h-1q-1 -1 -8 -6.5t-9 -5.5h-2v12v12q0 1 2 1q2 -1 9 -6t8 -7h1zM1481 341l7 9l-7 9l-16 -9zM272 347v0q1 0 1 -1v0q1 0 1 -1l-1 -5q-6 -2 -7 -4l8 -1q6 -1 12.5 -6.5t14.5 -13.5l1 0.5t2 1.5q2 2 7 2q3 0 3 -1q-7 -11 -11 -21.5t-8 -20.5
q-3 -14 -3 -20q0 -4 1 -5q6 -2 11 -2q12 0 17 8l16 25q5 6 22.5 11.5t27.5 5.5q6 0 6 -2l-41 -11v-4q3 0 7 1h7l5 2q2 0 3 0.5t2 0.5q2 0 2 -2v-7h-10q-3 0 -12 -4v-3q5 -2 8 -3.5t5 -1.5v-5q-23 -16 -45 -22.5t-37 -6.5q-17 0 -20 6q-2 4 -2 8q0 2 0.5 4.5t0.5 6.5
q-3 -2 -5.5 -5.5t-4.5 -6.5q-6 -6 -10.5 -11.5t-6.5 -7.5v-4l8 -5q9 -4 12 -7v-5q-9 -6 -17 -6q-12 0 -24 13q-1 3 -1 8q0 20 26 36q0 2 -3 2h-5l-60 -6v-3q0 -6 12 -10q4 -2 8 -2v-7q0 -1 -2 -1t-6.5 2t-9 5t-8.5 5.5t-5 3.5v10q7 4 20 8t35 7v4h-2q-3 0 -3 3h-1
q-4 0 -11 4.5t-12 6.5q-9 8 -15.5 10.5t-9.5 2.5q-15 -1 -22 -4.5t-7 -8.5t7.5 -10t19.5 -5q0 -3 -4 -7q-2 -2 -5 -2q-7 0 -30 13l-1 7q0 3 2 7q0 1 11.5 6.5t32.5 12.5q-8 17 -30 17q-4 0 -8 -0.5t-9 -1.5q-16 -3 -28 -9h8q7 -1 11 -3v-5q-6 -3 -15 -3h-4q-11 3 -11 9
q0 2 3 5q6 5 11.5 8.5t10.5 4.5l26 3l19 14l-19 15l-26 3q-5 1 -10.5 3.5t-11.5 9.5q-3 1 -3 4q0 4 11 10q1 0 1.5 0.5t2.5 0.5q8 0 15 -7v-3q-1 0 -11 -2q-3 -1 -8 -1q6 -3 13 -6t15 -4q4 -1 7 -1h7q25 0 33 15l-44 19q-2 8 -2 10t0.5 3t0.5 2q22 14 30 14q3 0 5 -2
q4 -3 4 -4q-12 0 -19.5 -5t-7.5 -11q0 -13 29 -14q7 0 25 12q5 4 13 8t11 4q0 5 2 5t3 -1v4q-22 2 -35 5t-20 8v10q2 3 12.5 9.5t15.5 6.5q3 0 3 -3v-4q-6 0 -8 -1q-12 -5 -12 -12v-3l60 -7h5q3 0 3 3q-26 14 -26 36q0 6 1 9q12 12 25 12q8 0 16 -5v-4q-2 -7 -12 -10l-8 -3
v-6q6 -4 17 -19q4 -6 10 -10l-1 10q0 5 2 9q3 5 18 5t37.5 -7t46.5 -24v-2q-2 0 -5 -1t-8 -3v-3q5 -3 7.5 -5t4.5 -2h10v-4q0 -3 -2 -3q-1 0 -2 0.5t-3 0.5l-5 2l-7 1h-7v-4l41 -10q0 -3 -8 -3q-11 0 -27 5t-21 13l-16 24q-5 6 -18 6q-7 0 -10 -1q-1 0 -1 -5q0 -6 3 -19
q4 -11 8 -21t11 -21q0 -2 -3 -2q-4 0 -7 3q-1 1 -2 1.5l-1 0.5q-15 -19 -27 -19l-8 -1q1 -5 3 -6l4 -2l1 -3h-1v-1l-1 -1l-1 -1zM461 332q-2 -3 -2 -14t2 -22.5t3 -12.5l8 -10l15 -22q2 -2 7.5 -5t17.5 -8q-2 -6 -7 -6t-12.5 4t-14 9.5t-12.5 11t-8 8.5q-5 7 -9 23.5
t-4 23.5q2 9 5 17t17 19q-14 12 -17 19t-5 18q0 8 4 23.5t9 23.5q2 2 8 7.5t13.5 11t14.5 9.5t12 4q4 0 6 -5q-12 -5 -17.5 -8.5t-7.5 -4.5l-15 -21l-8 -10q-1 -2 -3 -14t-2 -23t2 -13l12 -17zM683 662q37 62 37 81q0 7 -5 7q-4 0 -6 -1q-2 -8 -9 -8h-11q31 22 37 22
q3 -4 5 -10.5t2 -19.5h2q1 -1 1 -5l54 20q0 -3 2 -6q-2 -5 -6 -8.5t-9 -8.5v-5q6 0 7 -1v-5q-7 -3 -7 -8v-2q8 -2 8 -5v-5q-10 -8 -14 -8v-4q10 -1 10 -9v-2q-11 -2 -15 -9q2 -2 2.5 -3l0.5 -1h8v-7q-56 -31 -56 -64v-50h-6q-13 22 -13 37q0 7 1 10l16 55h-43q-5 0 -9 6
t-4 11q0 4 2 6l15 30q2 -2 3 -4q0 -3 -2 -4l-1 -22h3zM681 13q2 -1 2 -5q-2 -2 -3 -4l-15 28q-2 4 -2 7q0 6 4 12t9 6h43l-16 56q-1 3 -1 9q0 8 3 18t10 19h6v-50q0 -35 56 -64v-7h-8l-0.5 -1t-2.5 -3q2 -5 15 -9v-2q0 -6 -10 -9v-4q5 0 14 -9v-3q0 -3 -8 -5v-2q0 -7 7 -8
v-5q-2 -2 -7 -2v-7q11 -6 15 -16q-2 -1 -2 -3l-54 17q0 -2 -1 -4h-2q0 -26 -7 -29h-1q-9 0 -36 20h11q8 0 9 -7q4 -2 6 -2q5 0 5 7q0 18 -37 80h-3zM777 124l-21 19l-22 16q-8 5 -8 27l2 63l1 4q1 2 2 5t1 8q0 12 -8 28t-31 23q19 -2 28 -11q18 -18 18 -37l-2 -85
q0 -5 4.5 -12t8.5 -7q3 0 3 3l1 8q2 7 11 7h20q2 0 2 -4t-4 -5l-8 -4q-3 -2 -3 -6t3.5 -8t8.5 -4v-4h-7q-8 0 -8 -8q0 -5 3 -8.5t8 -3.5v-4h-3zM780 569h-1q-5 0 -7.5 -4t-2.5 -9q0 -9 8 -9h7v-4h-2q-5 0 -7.5 -3.5t-2.5 -7.5t3 -5l8 -4q4 -1 4 -6t-2 -5h-20q-10 0 -11 10
l-1 5q0 3 -3 3q-4 0 -8.5 -6.5t-4.5 -12.5l2 -82q0 -22 -18 -41q-11 -8 -28 -8q23 7 31 22t8 27q0 5 -1 8.5t-2 5.5l-1 4l-2 62q0 22 8 28l22 18l21 16h3v-2zM618 124l-7 -1q-9 -5 -9 -9q0 -5 13 -11v-9q-31 -16 -39 -16h-47q-11 0 -11 -6v-2l2 -5l2 -2q1 -1 2.5 4.5
t3.5 5.5v0q1 0 1 -1l20 -28l-42 14q-12 3 -12 13q0 9 10 23l17 21q5 8 8.5 15t3.5 12q0 3 -1 4q0 1 -10 16q-12 17 -18.5 27t-6.5 15v1q1 1 8 5t16 8t17.5 7t13.5 3q4 0 4 -2v-1q0 -7 -16 -14v-9h8q44 0 68 -22q-3 -3 -15 -6v-12q16 -4 16 -7v-4l-29 -7v-4h5q2 0 7.5 -2.5
l16.5 -7.5v-6zM618 567l-16.5 -7.5t-7.5 -2.5h-5v-3l29 -9v-5q0 -1 -16 -7v-10q11 -1 15 -8q-23 -21 -68 -21h-8v-10q16 -7 16 -14v-1q0 -1 -3 -1q-5 0 -13.5 3t-17.5 7t-16.5 8.5t-8.5 6.5v1q0 5 25 39q10 15 10 17q1 2 1 5q0 11 -12 26l-17 20q-10 14 -10 24q0 9 12 14
l42 15l-20 -30q-1 -2 -3.5 3.5t-3.5 4.5l-2 -2l-2 -4v-2q0 -5 11 -5h47q7 0 39 -17v-8q-13 -7 -13 -13q0 -5 9 -8l7 -2v-4zM502 217q0 -4 -8 -8q4 -17 8.5 -28.5t9.5 -18.5l14 -17v-2v-7l-19 -20q-4 -4 -8 -11t-7.5 -14.5t-5.5 -14.5t-2 -11v-2q3 -4 10 -4h4v-6h-22
q-2 0 -2 3q0 4 3 13t7 17.5t7 15.5l3 7l14 19l-16 74l-3 2q-5 2 -5.5 3.5t-0.5 3.5q7 10 13 10h6v-4zM496 475q-7 0 -13 9q0 4 0.5 5.5t5.5 3.5l3 1l16 75l-14 18q0 1 -3 8t-7 15t-7 16.5t-3 12.5q0 3 2 3h22v-3h-2q-7 0 -12 -7v-2q0 -7 7.5 -24.5t15.5 -26.5l19 -18v-6v-2
l-14 -19q-5 -7 -9.5 -18.5t-8.5 -26.5q8 -6 8 -10v-3zM564 348q-8 -8 -13.5 -12.5t-6.5 -9.5q0 -1 -0.5 -2t-0.5 -3q0 -5 2.5 -13t8 -15.5t14 -13t20.5 -5.5h4q-7 -5 -18 -5q-2 -1 -6 -1q-3 0 -3 1l-15 11l-17 9q-3 2 -4 10.5t-1 14.5v5q2 8 14 17l11 8v4v4l-11 9
q-13 10 -14 16v5q0 6 1 14t4 10l17 10l15 13h9q12 0 18 -7h-6q-11 0 -19.5 -5.5t-13.5 -13t-7.5 -15.5t-2.5 -14q0 -2 0.5 -3t0.5 -2q1 -2 6.5 -8.5t13.5 -12.5zM335 351h6v4q-1 1 -2 1l-2 1l-2 4h-31v3h1l39 7v6l-14 11q-23 21 -23 36l1 5l21 -18q16 -18 46 -29v-6
q-6 0 -6 -4v-4q0 -2 12 -8t20 -6h11v-3q-1 0 -1 -1v0l-3 -1l-3 -1h3l3 -1q0 -1 1 -2v-4h-11q-8 0 -20 -5t-12 -7v-7q0 -1 3 -1h3v-6q-16 -8 -27 -14t-19 -14l-21 -18q0 1 -0.5 2t-0.5 3q0 12 23 32l14 13v4l-39 10h-1v3h31l2 1l2 1q1 0 2 1v6h-6l3 3zM247 352q7 2 7 11v20
q0 13 -15 13h-5v5q5 0 8 11q-5 6 -7 6l-21 -1q-8 -2 -15.5 -8t-7.5 -9v-4q0 -3 17 -13q14 -11 22.5 -16.5t8.5 -9.5t-3 -4q-1 0 -2 1l-3 3q-4 -7 -4 -9t4 -10q3 1 3 3q1 1 2 1q3 0 3 -5l-31 -23q-9 -6 -13 -9l-4 -3v-5q0 -5 7.5 -9.5t15.5 -7.5l21 -3q2 0 7 9q-4 8 -8 11v4
h5q15 0 15 12v22q0 4 -7 9v8zM592 336q-5 -6 -5 -15q0 -11 7.5 -17.5t15.5 -6.5q5 0 7 2t9 2v-3l-6 -6q-12 -6 -17 -6h-1l-8 5q-2 2 -6.5 5t-13.5 5v7l-1 9l-3 6l1 1v5l8 5q10 4 11 14q-1 7 -11 15l-8 5v2l-1 1l3 9l1 7v9q9 2 13.5 4t6.5 4l8 7h1q6 0 17 -8l6 -4v-3
q-5 0 -9 2q-2 2 -7 2q-8 0 -15.5 -6.5t-7.5 -17.5q0 -9 5 -15q3 -5 4.5 -8t3.5 -5zM789 13q12 1 12 4v8q-8 0 -14 4v3l2 2l3 1.5l1 0.5v5q-1 2 -29 29l-17 13v2h1q4 0 15.5 -4t24 -10.5t22.5 -14.5t11 -15l5 -28l3 -27l19 -19v-4q0 -1 -1 -1h-50l-1 1l-0.5 0.5t-2.5 1.5
q5 8 15 8l-2 10q-10 3 -10 6v4q0 4 9 4v5l-17 6zM805 693v7q-9 0 -9 5v4q0 2 10 5l2 9q-11 0 -15 8q3 1 3 3h1h50q1 0 1 -1v-5l-19 -18l-3 -26l-5 -28q-1 -8 -11.5 -16.5t-24 -15t-25 -10.5t-13.5 -4v3l17 14q14 13 21 20l8 8v4q0 1 -4 2l-2 1v4q4 5 14 5v7q0 3 -12 6l-1 5z
M713 174q-2 -2 -11 -14.5t-26 -34.5q-18 -21 -18 -30v-1q3 -10 20 -10v-5q-8 0 -16.5 -1t-21.5 -4q-18 -3 -23 -3q-2 0 -2 1l2 4q0 1 6 6l8 6q6 2 6 6l-1 6l-9 6v4l6 5l11 8v5q-12 0 -25 8v4h4q9 0 19 10l-1 3l-6 3l-7 3q-6 1 -6 3v4l19 5h1q0 5 -19 20q0 2 3 2q2 0 6 -1
t10 -3q11 -4 18 -6.5t9 -2.5l-1 -3l-2 -2q-9 -9 -9 -16q0 -5 7 -11q1 0 2 -0.5t3 -0.5q8 0 20.5 6.5t17.5 20.5h6zM707 523q-4 13 -16 19.5t-20 6.5q-5 0 -7 -2q-7 -6 -7 -11q0 -7 9 -14l2 -1l1 -5q-2 -1 -9 -3.5t-18 -5.5q-9 -4 -15 -4q-4 0 -4 2q19 13 19 20h-1l-19 5v3
q0 3 6 5l7 2l6 2l1 4q-8 11 -19 11h-4v4q6 3 12.5 5.5t12.5 2.5v3q0 2 -11 10l-6 5v4l2 1t7 3l1 7q0 3 -6 7l-8 5l-6 6l-2 4q0 1 2 1q5 0 23 -3q13 -2 21.5 -3.5t16.5 -1.5v-5q-17 0 -20 -10v-1q0 -7 18 -31q34 -45 37 -47h-6zM505 337q0 -3 -3 -7q-3 -8 -3 -17
q0 -10 3.5 -20.5t10 -19.5t16.5 -15t24 -7q-4 -8 -12 -8t-17 6t-16.5 13.5t-13 14t-5.5 8.5l2 18l1 19l3 4q1 2 2.5 3.5l3.5 3.5l4 5v-1zM501 365l-6 4l-3 3l-1 22l-2 18q0 1 5.5 8t13 14.5t16.5 13.5t17 6t12 -8q-14 -1 -24 -7t-16.5 -15t-10 -19.5t-3.5 -20.5t3 -17
q3 -5 3 -7v-3zM592 453q28 -9 37 -9q2 0 2.5 0.5t1.5 0.5l11 12q1 1 17 1h19l5 2l5 2q2 0 4 2l-1 15q0 6 5 6q3 0 5 -1q0 -14 4 -17l12 -15q1 -2 2 -7.5t1 -10.5t-1 -5h-3q-2 15 -8 22t-11 7q-10 0 -10 -14q0 -9 7 -22q1 -3 2 -4.5t2 -3.5q-13 3 -19 8t-6 7v23h-2
q-13 0 -22.5 -6.5t-9.5 -16.5q0 -5 1 -7q-5 3 -14 6.5t-20 9.5l-16 10v5zM592 248l16 9q11 8 20 12t14 6q-1 -3 -1 -7q0 -11 9.5 -17.5t22.5 -6.5h2v25q0 5 25 15q-1 -3 -2 -5l-2 -4q-7 -13 -7 -22q0 -14 10 -14q5 0 11 7t8 23h3q1 0 1 -5t-1 -12.5t-2 -8.5l-12 -14
q-4 -4 -4 -18h-4q-6 0 -6 6l1 15q-1 3 -4 3l-5 2l-5 2h-19q-15 0 -17 2l-11 11q-1 0 -1.5 0.5t-2.5 0.5q-11 0 -37 -11v6zM703 668q2 -8 9.5 -15t15.5 -7h1q9 1 14.5 7t8.5 13.5t4 15.5t1 14q0 5 -0.5 7t-0.5 3q-2 5 -9 5q-6 0 -13.5 -3.5t-14.5 -9t-11.5 -12.5t-4.5 -14v-4
zM703 24q0 -7 4.5 -14t11 -12.5t14 -9t13.5 -3.5q7 0 10 6q0 1 0.5 3t0.5 7q0 6 -1 14t-4 15.5t-8.5 13t-14.5 6.5h-1q-8 0 -15.5 -7t-9.5 -15v-4zM478 501q0 -7 -9.5 -15.5t-12.5 -8.5h-1l-13 14q-14 12 -27 12q-5 0 -7 -1l4 -23l-29 30l42 2q12 0 12 11v3l-19 12h41v-5
l-15 -30q3 -5 3 -8zM447 202q0 -2 -3 -9l15 -29v-5h-41l19 12v4q0 10 -12 10l-42 1l29 31l-4 -24l6 -1q15 0 28 14l13 14h1q3 0 12.5 -9t9.5 -17zM457 344l-11 -9l-9 -12q-1 0 -10 -1t-17 -1q-9 0 -11 2v6q32 3 32 19q0 17 -32 20v3q1 2 4.5 2.5t8.5 0.5q8 0 16 -1t9 -2
l9 -8l11 -11v-4v-4zM184 373l28 -25l-28 -26l39 26zM819 337q3 -6 23 -8q0 -5 -12 -5q-1 0 -3.5 -0.5t-7.5 -0.5h-7q-10 0 -17 3q-5 4 -13.5 12t-8.5 9l-1 1l1 1q0 2 8.5 10t13.5 10q9 3 24 3q5 -1 7 -1h4q12 0 12 -2q-21 -3 -23 -8l-6 -12zM575 595q-4 4 -19 8.5t-23 4.5
q-5 0 -5 -2v-10q0 -3 4 -8.5t10 -11t13 -10t13 -4.5q3 0 7 2q10 4 10 12q0 9 -10 19zM575 100q10 11 10 20q0 7 -10 13q-4 2 -7 2q-6 0 -13 -4.5t-13 -10.5t-10 -12t-4 -9v-8q0 -3 7 -3q9 0 23 3.5t17 8.5zM526 507q0 -2 6 -2q5 0 12.5 1.5t14 3t12 3l5.5 1.5q12 7 12 16
q0 7 -7 11.5t-15 4.5q-4 0 -6 -1q-8 -2 -19.5 -13t-12.5 -18l-2 -6v-1zM528 181q1 -5 12.5 -16.5t19.5 -13.5q2 -1 6 -1q8 0 15 4.5t7 11.5t-12 15q0 1 -5.5 2.5t-12 3.5t-14 3.5t-12.5 1.5q-6 0 -6 -2v-1zM648 379v1q0 1 -6 1h-6q-12 0 -12 -8q0 -6 5 -8l5 -4q1 -3 1.5 -4
l1.5 -3q-2 -3 -6 -3q-5 0 -12 4q-17 8 -17 21q0 8 5.5 12.5t10.5 4.5h2l11 -6l11 -3q12 -3 13 -3h3v-3zM658 315h-3q-1 0 -13 -3l-11 -5l-11 -3h-2q-5 0 -10.5 4.5t-5.5 11.5q0 10 17 19q7 6 13 6q3 0 5 -4q-2 -4 -3 -5l-5 -3q-5 -2 -5 -9q0 -8 12 -9q12 0 12 2v1h10v-3z
M87 344l-8 -4l-4 -4l-4 -4l-47 16l47 17l4 -4q2 -6 4 -6l8 -3l-9 -3zM435 229q0 8 9 9v13q0 2 3 2q5 0 12.5 -5t7.5 -7v-5q-3 -1 -5.5 -3t-4.5 -4l-10 -1l-4 -2q-1 -1 -4 -1h-4v4zM435 470q1 1 3 1t3 -0.5t2 -0.5l4 -3l10 -2q6 -2 10 -4v-4q0 -5 -7.5 -9.5t-12.5 -4.5
q-3 0 -3 2v14q-9 3 -9 6v5zM746 10q0 -7 -6 -7q-3 0 -5 1q-7 3 -10 8.5t-3 10.5q0 7 5 7q3 0 4 -1q14 -3 15 -17v-2zM746 686q-1 -14 -15 -20l-3 -1q-6 0 -6 8q0 5 3 10.5t10 7.5q2 1 6 1q5 0 5 -4v-2zM780 318l-1.5 -3.5t-5.5 -7.5t-9 -7.5t-11 -3.5q-5 0 -7 1
q-20 5 -20 10v5q2 0 3 1l16 -5h8l22 11h1q2 0 4 -1zM780 378q-2 -1 -4 -1h-1l-22 9h-8l-16 -3q-1 1 -3 1v3q0 8 20 13q2 1 6 1q13 0 21 -11t7 -12zM761 361q-1 -1 -3 -1t-8 6q-1 0 -13 -2t-35 -8q-7 -2 -12 -2h-8q-7 0 -7 2v9h-8v-10h-16q-2 0 -5 1l-4 5q0 1 -4 1l1 1v1
q0 -1 -3 2v2l-1 4v2q0 3 3 3t6 -1l25 -10h4l2 1q4 2 5 2q3 0 5 -6h4q8 0 25 5q15 8 26 8h5q16 -8 16 -10v-5zM761 331q0 -5 -16 -10l-6 -1q-9 0 -25 9q-17 5 -25 5h-4q-1 -7 -5 -7q-2 0 -5 3l-2 1h-4l-25 -10q-4 -1 -7 -1q-2 0 -2 1v1l1 7v2q3 3 3 2v0q0 1 -1 2q2 0 3 0.5
l1 0.5l4 2q3 1 5 1h16v-7h8v6q0 2 7 2q4 0 8.5 -0.5t11.5 -1.5q39 -6 46 -6h2q7 5 11 5v-6zM516 345q0 -5 -5 -5t-5 5v3v3q0 3 5 3t5 -3v-3v-3zM177 352l-9 -4l9 -4l8 4zM572 578q0 -2 -2 -2h-9q-2 0 -2 3v6q0 2 3 2q2 0 5 -1t3 -2zM570 114q0 -2 -3 -3.5t-5 -1.5q-3 0 -3 3
v4q0 4 2 4h9q2 0 2 -1zM572 167q0 -1 -2 -1h-10q-1 0 -1 1v4q0 3 7 3q6 0 6 -3v-4zM572 525q0 -2 -6 -2q-7 0 -7 2v4q0 1 1 1l10 1l2 -2v-4z" />
    <glyph glyph-name="trademark" unicode="&#x2122;" horiz-adv-x="409" 
d="M102.291 464.432q0 -14.6016 1.16211 -19.5977q2.71289 -7.30078 8.13672 -13.834h-49.5938q6.58691 6.91699 8.52344 12.2969q0.775391 2.30566 0.96875 7.10938q0.194336 4.80273 0.194336 11.3359v211.736h-11.624q-4.26172 0 -7.74902 -0.959961
q-3.4873 -0.960938 -6.19922 -2.49805q-6.58691 -3.84277 -11.623 -13.834v43.8076h104.999v-43.8076q-8.91113 17.292 -25.5723 17.292h-11.623v-209.047v0zM267.123 646.648q0 6.53418 -0.578125 10.7627q-0.579102 4.22852 -1.35059 7.30371
q-2.31445 7.30371 -8.10059 7.30371q-6.17188 0 -8.48633 -6.53516q-1.15723 -2.69043 -1.34961 -7.30371q-0.193359 -4.6123 -0.193359 -9.99414v-166.061q0 -5.38184 0.771484 -8.84082q0.771484 -3.45996 1.54297 -6.15039q1.15723 -1.92188 2.89258 -4.22852
q1.73633 -2.30664 4.82227 -5.38184q-5.78613 -5.38184 -9.06445 -8.84082q-3.2793 -3.45996 -5.20801 -6.15039q-2.31445 -3.84473 -4.82129 -9.41797q-2.50781 -5.57422 -5.59375 -13.6465q-4.62891 16.1455 -9.64355 23.0645q-3.85742 5.38184 -14.2725 13.8379
q5.78613 4.61328 6.55762 9.22559q1.15723 1.92188 1.35059 5.95801q0.192383 4.03613 0.192383 9.03418v166.061q0 6.53418 -0.192383 10.7627q-0.193359 4.22852 -1.35059 7.30371q-1.92871 7.30371 -8.10059 7.30371q-3.47168 0 -5.40039 -1.72949
q-1.92871 -1.73047 -3.47168 -4.80566q-1.15723 -4.6123 -1.15723 -16.5293v-193.353q0 -8.07227 1.54297 -13.8379q0.771484 -1.15332 1.92871 -3.65234q1.15723 -2.49805 3.47168 -7.11133q-12.3438 -3.84375 -21.6016 -16.1445q-5.40039 -6.91992 -8.87207 -11.3398
q-3.47168 -4.4209 -5.40039 -6.34277q-7.71484 -6.53516 -16.5869 -8.07227q4.24316 7.6875 7.13672 14.9912q2.89258 7.30371 4.43555 14.2227q0.771484 5.7666 1.73633 14.415q0.963867 8.64941 0.963867 20.1816v210.65q0 8.45703 -0.385742 14.0303
q-0.385742 5.57422 -1.54297 7.49609q-1.54297 5.38184 -9.64355 14.9922h63.2617l12.7295 -16.9141l13.1152 16.9141h65.1904q-6.55762 -8.45703 -8.10059 -13.8389q-2.31445 -5.76562 -2.31445 -19.2197v-205.654q0 -11.916 2.31445 -17.6816
q0.385742 -4.99805 6.55762 -12.6855h-47.0605q5.01465 7.6875 6.17188 12.3008t1.15723 15.7607v187.587v0z" />
    </font>
</defs>
</svg>
