<?xml version="1.0" standalone="no"?>
<!DOCTYPE svg PUBLIC "-//W3C//DTD SVG 1.1//EN" "http://www.w3.org/Graphics/SVG/1.1/DTD/svg11.dtd" >
<svg xmlns="http://www.w3.org/2000/svg" xmlns:xlink="http://www.w3.org/1999/xlink" version="1.1">
<metadata>
Created by FontForge 20170731 at Fri May 30 14:32:49 2014
 By Aleksey,,,
Bythebutterfly
</metadata>
<defs>
<font id="MySillyWillyGirl" horiz-adv-x="323" >
  <font-face 
    font-family="My Silly Willy Girl"
    font-weight="500"
    font-stretch="normal"
    units-per-em="1000"
    panose-1="2 0 6 3 0 0 0 0 0 0"
    ascent="800"
    descent="-200"
    x-height="308"
    cap-height="720"
    bbox="-78.8824 -256.694 775 861.4"
    underline-thickness="50"
    underline-position="-200"
    unicode-range="U+0020-F8FF"
  />
<missing-glyph horiz-adv-x="364" 
d="M66 33h199v600h-199v-600zM33 0v666h265v-666h-265z" />
    <glyph glyph-name=".notdef" horiz-adv-x="364" 
d="M66 33h199v600h-199v-600zM33 0v666h265v-666h-265z" />
    <glyph glyph-name=".null" horiz-adv-x="0" 
 />
    <glyph glyph-name="nonmarkingreturn" horiz-adv-x="333" 
 />
    <glyph glyph-name="space" unicode=" " horiz-adv-x="249" 
 />
    <glyph glyph-name="exclam" unicode="!" horiz-adv-x="59" 
d="M61 701q-4 -44 -16.5 -146t-18.5 -163t-6.5 -146t11.5 -151q2 -12 -10 -14t-14 10q-12 67 -11.5 154t6.5 149t18.5 164.5t16.5 144.5q1 5 4.5 8t8.5 2.5t8 -4t3 -8.5zM29 12q12 0 12 -12t-12 -12t-12 12t12 12z" />
    <glyph glyph-name="quotedbl" unicode="&#x22;" horiz-adv-x="126" 
d="M49 690q-6 -56 -6 -200q0 -12 -12 -12t-12 12q0 146 6 202q1 5 4.5 8t8.5 2.5t8 -4t3 -8.5zM127 692q-3 -29 -3.5 -58t0 -76t0.5 -58q0 -12 -12 -12t-12 12q0 16 -0.5 47.5t-0.5 51t1 46.5t3 49q1 5 4.5 8t8.5 2.5t8 -4t3 -8.5z" />
    <glyph glyph-name="numbersign" unicode="#" horiz-adv-x="512" 
d="M381 283q-13 74 -21 159q-79 -23 -140 -34q3 -86 3 -152q83 22 158 27zM385 259q-76 -5 -163 -28q-2 -100 -15 -183q-2 -12 -14 -10t-10 14q13 79 15 173l-89 -26q-11 -3 -14.5 8.5t8.5 15.5l96 27q1 66 -3 154q-45 -7 -83 -9q-4 0 -8 3.5t-4 8t3.5 8.5t8.5 4q37 2 82 9
q-1 13 -6 106.5t-6 142.5q0 5 3.5 8.5t8.5 3.5t8.5 -3.5t3.5 -8.5q1 -47 6 -139.5t6 -105.5q60 12 139 35q-8 81 -14 214q0 5 3 9t8 4t9 -3t4 -8q6 -130 13 -210l119 37q12 4 15.5 -7.5t-7.5 -14.5l-125 -39q9 -89 22 -164q27 1 58 1q12 0 12 -12t-12 -12q-29 0 -54 -1
q8 -43 18 -83q2 -9 9 -49t15 -59q5 -11 -6 -16t-16 6q-9 21 -17 65.5t-9 46.5q-10 43 -18 87z" />
    <glyph glyph-name="dollar" unicode="$" horiz-adv-x="511" 
d="M266 462q0 88 -6 162q-104 -57 -142 -120q-4 -8 -2 -12q2 -5 12 -9q11 -4 42 -8q77 -10 96 -13zM338 447q-1 35 -3 70q-6 103 -11 135q-11 -3 -22 -8q-10 -4 -19 -9q7 -80 7 -177q26 -5 48 -11zM233 6q1 10 2 18q17 114 25 249q-27 1 -47 -4q-39 -9 -80 -34.5t-63 -55.5
q-32 -42 -31 -91q1 -53 45 -74q60 -29 149 -8zM363 413q3 -180 -24 -366q9 5 18 11q71 44 107.5 104.5t20.5 122.5q-22 90 -122 128zM339 421q-22 7 -49 13q0 -68 -4 -140q1 0 3 -1q26 -6 36 -22q12 -19 -5 -47q-6 -11 -16.5 -4.5t-3.5 16.5q9 16 5 23q-5 7 -21 11
q-8 -128 -25 -250l-1 -7q27 8 54 21q31 197 27 387zM412 573q22 35 21 56q-2 17 -18 25q-24 12 -68 4q4 -28 12 -139q3 -44 4 -80l6 -2q114 -43 140 -146q18 -72 -23 -139t-116 -115q-18 -10 -36 -19q-12 -73 -28 -152q-3 -11 -14.5 -8.5t-9.5 14.5q15 69 26 133
q-27 -11 -53 -18q-12 -101 -31 -143q-5 -11 -16 -6t-6 16q17 38 28 127q-92 -19 -156 11q-58 28 -59 95q-1 58 35 106q26 34 70.5 61.5t86.5 38.5q23 6 55 4q4 73 4 141q-21 3 -98 13q-35 4 -49 10q-18 7 -24 19q-9 16 3 36q22 38 66 73t93 61q-4 47 -12 86q-2 12 10 14
t14 -10q7 -36 11 -79l12 5q14 6 28 10q-7 34 -17 63q-4 11 7 15t15 -7q11 -30 18 -65q51 9 83 -6q28 -14 31 -45q2 -30 -25 -72q-6 -10 -16.5 -3.5t-3.5 17.5z" />
    <glyph glyph-name="percent" unicode="%" horiz-adv-x="490" 
d="M367 119q-19 -36 -14 -48q2 -3 11 2q16 8 18 22q2 13 -15 24zM356 141q6 9 16 4q39 -22 34 -54q-4 -26 -31 -39q-8 -7 -23 -5.5t-21 14.5q-11 23 18 74q2 4 7 6zM133 487q-19 -36 -14 -48q2 -3 11 2q16 8 18 22q2 13 -15 24zM122 509q6 9 16 4q39 -22 34 -54
q-4 -26 -31 -39q-8 -7 -23 -5.5t-21 14.5q-11 23 18 74q2 4 7 6zM68 26q27 87 70.5 172.5t101.5 167t110.5 146.5t123.5 145q8 9 17 1t1 -17q-71 -80 -123 -144.5t-109 -145t-99.5 -164t-70.5 -169.5q-3 -11 -14.5 -7.5t-7.5 15.5z" />
    <glyph glyph-name="ampersand" unicode="&#x26;" horiz-adv-x="395" 
d="M291 641q1 -19 1 -141q0 -12 -12 -12t-12 12q0 122 -1 139q0 5 3 9t8 4t9 -3t4 -8zM384 438q-17 7 -54 4.5t-72 -13.5q-37 -11 -57 -29q-21 -19 -18 -41q2 -16 15 -23q12 -7 35 -7q21 0 83 12q13 2 52 6q1 0 4.5 0.5t5.5 0.5h4h2q2 0 4 -1q5 -3 7 -8q1 -6 -4 -11l-4 -3
l-1 -1h-1q-72 -15 -151 -47q-52 -21 -79 -41q-29 -20 -27 -36q1 -12 17 -17q17 -6 48 -4q23 1 94 15l37 6q26 4 34 6q4 5 10 5h2q3 1 5 1q11 2 17 -3t6 -11q0 -8 -8 -11q-3 -2 -7 -2q-1 0 -6 -1h-3l-42 -6q-28 -5 -41 -8q-72 -14 -97 -15q-35 -2 -56 5q-31 10 -34 38
q-4 29 37 58q30 21 84 43l15 6h-7q-29 0 -47 10q-24 13 -27 42q-4 34 26 61q24 21 66 34q38 12 77 14q40 3 64 -6q11 -4 7 -15t-15 -7zM281 111q6 -50 6 -89q0 -12 -12 -12t-12 12q0 37 -6 87q-1 11 10.5 12.5t13.5 -10.5z" />
    <glyph glyph-name="quotesingle" unicode="'" horiz-adv-x="69" 
d="M69 724q15 -77 -9 -142q-4 -11 -15 -7t-7 15q22 58 7 130q-2 11 9.5 13.5t14.5 -9.5z" />
    <glyph glyph-name="parenleft" unicode="(" horiz-adv-x="173" 
d="M184 749q-55 -125 -75.5 -257.5t-0.5 -270.5t85 -255q5 -11 -5.5 -16.5t-16.5 4.5q-66 121 -86.5 263t0.5 278t77 264q5 11 16 6t6 -16z" />
    <glyph glyph-name="parenright" unicode=")" horiz-adv-x="175" 
d="M39 -27q65 120 95.5 251t20.5 270t-65 260q-5 11 6 16t16 -6q57 -125 67 -268t-21.5 -277t-96.5 -258q-6 -10 -16.5 -4.5t-5.5 16.5z" />
    <glyph glyph-name="asterisk" unicode="*" horiz-adv-x="329" 
d="M246 518l78 -70q9 -8 1 -17t-17 -1l-77 69q-4 -66 -4 -108q0 -12 -12 -12t-12 12q0 38 3 93l-72 -61q-9 -8 -17 1t1 17l90 77q-43 36 -80 60q-11 6 -4.5 16.5t16.5 3.5q34 -21 70 -50q4 66 4 107q0 12 12 12t12 -12q0 -43 -4 -116l84 72q10 8 17.5 -1.5t-1.5 -16.5z" />
    <glyph glyph-name="plus" unicode="+" horiz-adv-x="301" 
d="M161 401q0 14 0.5 40t0.5 39q0 12 12 12t12 -12q0 -13 -0.5 -38.5t-0.5 -35.5q63 10 106 10q12 0 12 -12t-12 -12q-42 0 -106 -11q1 -64 12 -109q2 -12 -9.5 -14.5t-14.5 8.5q-10 46 -12 111q-49 -9 -75 -12q-11 -1 -12.5 10.5t10.5 13.5q22 3 77 12z" />
    <glyph glyph-name="comma" unicode="," horiz-adv-x="111" 
d="M112 46q13 -48 -6 -81q-16 -30 -60 -54q-11 -5 -16.5 5.5t4.5 16.5q39 20 51 43q14 25 3 64q-3 11 8.5 14.5t15.5 -8.5z" />
    <glyph glyph-name="hyphen" unicode="-" horiz-adv-x="292" 
d="M51 317q27 0 66 5.5t91.5 15t70.5 12.5q12 2 14 -10t-10 -14q-16 -2 -69.5 -12t-94 -15.5t-68.5 -5.5q-12 0 -12 12t12 12z" />
    <glyph glyph-name="period" unicode="." horiz-adv-x="48" 
d="M37 28q12 0 12 -12t-12 -12t-12 12t12 12z" />
    <glyph glyph-name="slash" unicode="/" horiz-adv-x="449" 
d="M31 4l125 212l148 250l130 210q6 11 16.5 4.5t3.5 -16.5l-130 -210l-148 -250l-125 -212q-6 -10 -16 -4t-4 16z" />
    <glyph glyph-name="zero" unicode="0" horiz-adv-x="445" 
d="M193 674q-52 -21 -89 -120q-41 -106 -43 -238q-1 -140 44 -225q50 -94 146 -87q81 6 130 106q47 94 43 226q-2 88 -27 160t-77.5 122t-125.5 56h-1zM209 697q59 -8 105 -42t74 -85t43 -110t17 -123q4 -137 -46 -238q-55 -112 -149 -119q-111 -8 -169 100q-49 92 -47 236
q2 136 44 247q47 120 116 138q7 1 12 -4z" />
    <glyph glyph-name="one" unicode="1" horiz-adv-x="260" 
d="M261 688q-2 -102 -2.5 -212.5t0.5 -255t1 -212.5q0 -12 -12 -12t-12 12q0 68 -1 212.5t-0.5 255.5t2.5 212q0 5 3.5 8.5t8.5 3.5t8.5 -3.5t3.5 -8.5z" />
    <glyph glyph-name="two" unicode="2" horiz-adv-x="443" 
d="M330 108l-14 8q-40 25 -80.5 29t-78.5 -17q-15 -9 -24.5 -28.5t-9.5 -39.5q0 -45 39 -49q102 -10 168 97zM132 595q18 49 50 76t70 28t73.5 -23.5t60.5 -70.5q35 -62 40 -169q4 -106 -22 -208q-16 -65 -43 -114q67 -56 83 -127q2 -12 -9.5 -14.5t-14.5 8.5
q-13 62 -71 112q-74 -117 -189 -106q-31 3 -46 24t-15 49q0 26 12.5 50.5t33.5 37.5q46 25 92 20.5t92 -31.5l13 -9q24 46 39 106q25 99 20.5 201t-35.5 158q-23 42 -53 63q-30 20 -60 19t-56.5 -23t-42.5 -65q-4 -11 -15 -7t-7 15z" />
    <glyph glyph-name="three" unicode="3" horiz-adv-x="437" 
d="M132 572q10 19 37 47.5t56 48.5q36 24 63 25q37 1 50 -37q18 -51 -13 -113q-24 -49 -68 -88q-1 -1 -5 -4q17 0 34 -4q54 -14 96 -68q39 -50 55.5 -116t2.5 -121q-15 -55 -67 -92t-119 -51q-60 -14 -123 0t-92 55q-7 10 3 17t17 -3q23 -33 77 -45.5t113 0.5q63 12 109 45
t58 80q13 49 -2 109t-51 107q-37 48 -83 59q-37 10 -74 -8l-20 -12l-8 -4q-1 -1 -2 -1q-1 -1 -3 -1q-7 -1 -11 4q-2 3 -2.5 6.5t0.5 5.5l1 1l2 4h2l1 2q14 10 28 16q24 17 47 37q41 36 63 81q26 52 12 94q-8 22 -27 21q-20 -1 -50 -21q-28 -18 -52 -44q-25 -27 -33 -42
q-6 -11 -16.5 -5.5t-5.5 15.5z" />
    <glyph glyph-name="four" unicode="4" horiz-adv-x="440" 
d="M258 277q-1 108 5 198q1 21 6 83.5t7 97.5q-57 -113 -170 -286q-13 -19 -57 -79q2 -1 4 -1q15 -3 42 -5q47 -5 125 -7q18 -1 38 -1zM301 708q0 -35 -2 -73.5t-6 -87.5l-6 -74q-6 -89 -5 -197q84 -2 151 -2q12 0 12 -12t-12 -12q-67 0 -150 2q1 -81 8 -246q0 -5 -3.5 -9
t-8 -4t-8.5 3.5t-4 7.5q-7 167 -8 249q-21 0 -40 1q-79 2 -126 7q-28 2 -44 5q-10 2 -16 4q-8 3 -12 7q-6 7 -2 15q1 4 5 7l3 3l1 1q46 63 58 81q134 204 189 326q1 3 4 5q4 5 10 5q12 0 12 -12z" />
    <glyph glyph-name="five" unicode="5" horiz-adv-x="394" 
d="M305 676q-104 -13 -146 -13q-18 0 -44 3q-39 4 -43 4h-1q-1 -7 -2 -19q-1 -16 -1 -47q-2 -71 -4 -88l-3 -25q4 6 9 12q34 38 70.5 54.5t69 13.5t63.5 -22q42 -27 72 -78.5t42 -112.5q9 -49 10 -99.5t-10 -105.5t-35 -96q-29 -50 -75.5 -66.5t-97.5 -3.5q-48 12 -89 45
t-61 78q-5 11 6 16t16 -6q18 -39 54.5 -69t79.5 -41q44 -11 83 3t64 56q22 38 32 89t9 99.5t-10 96.5q-10 57 -38 104t-65 71q-85 54 -172 -42q-10 -11 -19 -33q-12 -28 -19 -39l-3 -3q-4 -4 -9 -4q-9 0 -12 9q-1 2 -1 5q0 4 2 13l6 27l7 58q2 14 4 85q0 31 1 47q2 24 5 34
q2 7 10 9q4 1 8 0q1 0 5 -1h1q4 0 43 -4q26 -3 42 -3q40 0 144 13q11 1 12.5 -10.5t-10.5 -13.5z" />
    <glyph glyph-name="six" unicode="6" horiz-adv-x="410" 
d="M236 16q43 18 84 66q41 49 63 107.5t13 97.5q-5 24 -19 34q-11 9 -28 6q-17 -2 -34.5 -14t-28.5 -29q-27 -42 -38 -109q-17 -103 -12 -159zM255 693q-49 -16 -95 -108q-43 -89 -66 -211t-12 -219q11 -102 56 -132q34 -23 75 -14q-7 61 11 170q12 71 42 117q14 22 35.5 37
t44.5 18q26 4 45 -10q21 -15 29 -48q10 -46 -14 -110t-68 -116q-22 -26 -47 -45.5t-52.5 -30.5t-57.5 -8.5t-57 20.5q-54 37 -66 150q-11 99 13 226q23 125 68 216q50 102 110 120q11 4 14.5 -7.5t-8.5 -14.5z" />
    <glyph glyph-name="seven" unicode="7" horiz-adv-x="372" 
d="M72 698q162 0 261 3q2 0 6 1t7 2q17 3 25 -8q2 -3 2 -7v-2q0 -1 -1 -2q0 -1 -0.5 -1.5t-0.5 -1.5l-3 -6l-10 -18l-31 -58q-50 -94 -54 -103q-42 -95 -83 -241q-48 -172 -42 -247q0 -5 -3 -9t-8 -4t-9 3t-4 8q-7 78 43 256q42 149 84 244q8 17 55 105l31 57l5 9
q-6 -1 -9 -1q-99 -3 -261 -3q-12 0 -12 12t12 12z" />
    <glyph glyph-name="eight" unicode="8" horiz-adv-x="386" 
d="M186 444l1 2q61 93 148 202q-10 28 -40 37q-33 11 -79.5 -3t-80.5 -44.5t-37 -64.5q-3 -30 7 -50t36 -42zM351 629q-84 -105 -144 -196l-2 -4q74 -62 119.5 -117t64.5 -130q22 -92 -38 -145q-58 -51 -148 -33q-60 12 -102 69q-21 29 -28.5 68t0.5 74q17 78 100 209
l-48 39q-29 25 -42 50.5t-9 61.5q4 44 44 79q40 36 91 51q53 16 93 3q38 -12 53 -46q2 -1 4 -3q10 -7 2 -16v-1q1 -11 -9 -13h-1zM191 408q-78 -124 -94 -197q-7 -32 -1 -65q6 -34 25 -59q36 -49 86 -59q79 -16 128 27q49 44 30 121q-17 70 -60 122q-42 51 -114 110z" />
    <glyph glyph-name="nine" unicode="9" horiz-adv-x="373" 
d="M376 658q-1 7 -3 5l1 -2q0 -2 2 -3zM348 671q-38 21 -94 -2q-53 -21 -103 -73q-49 -51 -69 -104q-21 -55 -1 -85q14 -23 45 -14q29 9 71 44q54 45 111 116q23 29 52 87l9 18l2 8l3 6q1 2 3 3q6 5 13 2q4 -2 6 -7q1 -2 1 -3q4 -42 3.5 -66.5t-4 -68t-3.5 -63.5
q-1 -70 -4.5 -148.5t-9.5 -172.5t-8 -148q0 -5 -4 -8t-9 -3t-8 4t-3 9l11 196q10 178 11 271q0 23 3 79t4 69q-27 -50 -50 -78q-58 -74 -114 -121q-46 -38 -80 -48q-47 -14 -71 23q-27 42 -1 107q22 57 74 112q54 56 111 79q67 28 115 0q10 -6 4 -16t-16 -4z" />
    <glyph glyph-name="colon" unicode=":" horiz-adv-x="98" 
d="M87 444q12 0 12 -12t-12 -12t-12 12t12 12zM81 117q12 0 12 -12t-12 -12t-12 12t12 12z" />
    <glyph glyph-name="semicolon" unicode=";" horiz-adv-x="76" 
d="M44 32q7 -40 -12 -70q-13 -20 -50 -47q-10 -7 -17 3t3 17q33 24 44 40q14 22 8 53q-2 12 10 14t14 -10zM72 441q12 0 12 -12t-12 -12t-12 12t12 12z" />
    <glyph glyph-name="less" unicode="&#x3c;" horiz-adv-x="325" 
d="M55 226v-1v1zM279 398q-22 -18 -137 -104l-64 -49l-17 -14q9 -4 25 -10q28 -10 83 -25q139 -40 151 -45q11 -5 6 -16t-16 -6q-10 5 -147 44q-60 17 -85 26q-18 6 -29 11q-6 4 -9 7q-7 5 -8 11q-1 5 2 9q1 2 3 4l6 6l20 17l65 49q122 92 135 103q10 8 17.5 -1.5
t-1.5 -16.5z" />
    <glyph glyph-name="equal" unicode="=" horiz-adv-x="267" 
d="M98 400q24 0 74 5q50 6 76 6q12 0 12 -12t-12 -12q-25 0 -74 -5q-50 -6 -76 -6q-12 0 -12 12t12 12zM86 337q33 -3 84 -1q76 3 86 3q12 0 12 -12t-12 -12q-6 0 -85 -3q-53 -2 -87 1q-5 0 -8 4t-3 9t4 8t9 3z" />
    <glyph glyph-name="greater" unicode="&#x3e;" horiz-adv-x="329" 
d="M67 168q17 10 151 82l71 38q12 7 18 11q-8 5 -22 13q-26 14 -79 38q-131 61 -142 68q-10 7 -3 17t17 3q9 -6 138 -66q54 -25 80 -39q17 -9 27 -16q5 -4 8 -7q6 -6 6 -13q0 -5 -4 -9l-3 -3q-2 -2 -7 -5l-22 -13l-71 -38q-145 -78 -151 -81q-10 -6 -16 4t4 16z" />
    <glyph glyph-name="question" unicode="?" horiz-adv-x="405" 
d="M18 585q26 48 91 78.5t134 32.5q74 1 120 -33q53 -40 49 -117q-3 -53 -38 -84.5t-95 -56.5q-14 -6 -47.5 -18.5t-50.5 -19.5q-51 -22 -73 -46q-28 -31 -26 -92q0 -21 5 -54q1 -4 4 -23t4 -29q1 -11 -10.5 -12.5t-13.5 10.5q-1 9 -4 28t-4 23q-5 34 -5 57q-2 70 32 108
q25 28 82 52q16 7 50 20l48 18q56 23 86 50.5t32 70.5q3 64 -40 96q-38 29 -105 28q-63 -2 -122.5 -30t-82.5 -69q-5 -10 -15.5 -4.5t-4.5 16.5zM104 22q12 0 12 -12t-12 -12t-12 12t12 12z" />
    <glyph glyph-name="at" unicode="@" horiz-adv-x="621" 
d="M407 471q-36 30 -94 14q-54 -15 -105 -63q-50 -46 -66 -95q-16 -50 15 -77q37 -32 91 -4q36 18 86 67q10 11 13.5 14.5t8 9t5.5 7t7 9.5t10 15q2 3 8 21q3 8 4 10l2 4q2 2 5 3q6 3 12 -1q3 -2 4 -6q1 -1 1 -3v-3q0 -7 -9 -61q-5 -33 4 -52q14 -32 54 -36q73 -7 119 78
q20 36 29 79q8 43 3 77q-8 58 -51 96q-42 37 -103.5 46.5t-135.5 -0.5q-73 -13 -136 -45.5t-109 -88.5q-45 -55 -54 -123q-16 -116 30.5 -199.5t133.5 -122.5q57 -25 119 -27q63 -2 128.5 22t120.5 73q1 1 11 10l13 12q4 3 11.5 10.5t11.5 13t7 11.5q6 10 16.5 4.5
t5.5 -16.5q-4 -7 -9.5 -14t-13.5 -15l-12 -12q-4 -4 -14 -12.5t-11 -9.5q-58 -52 -128 -77.5t-137.5 -23.5t-128.5 29q-94 42 -144.5 133t-33.5 215q11 74 60.5 134t116 94.5t142.5 48.5q54 11 108 5t98 -23.5t74.5 -55t37.5 -88.5q5 -39 -4 -86q-9 -46 -31 -86
q-24 -44 -60 -69t-82 -21q-54 5 -74 50q-11 25 -6 59q-7 -9 -31 -32q-51 -52 -91 -73q-69 -35 -118 8q-43 37 -22 102q18 55 73 106t115 68q70 20 116 -19q9 -8 1 -17t-17 -1z" />
    <glyph glyph-name="A" unicode="A" horiz-adv-x="524" 
d="M449 653q-83 74 -169 18q-78 -49 -141 -186q-59 -129 -73 -260q-14 -135 28 -190q17 -21 45 -27q83 -18 162 108q43 69 96 209l17 45l20 52q9 23 16 44q9 27 14 58q1 13 2 24v1q0 1 1 3q0 1 1 2q1 2 3 4q5 3 11 1q3 -1 5 -2.5t2 -3.5v-1q1 -1 1 -2v-2v-1v-4q-1 -9 -1 -13
q-1 -6 -2 -13q-2 -19 -6.5 -58t-6.5 -51q-11 -95 -12 -160q-3 -191 74 -260q9 -8 1 -17t-17 -1q-85 77 -82 279q1 60 10 143l-29 -75q-54 -143 -98 -214q-87 -140 -186 -119q-37 8 -59 37q-49 62 -34 207q15 136 75 267q66 142 150 196q102 66 198 -20q9 -8 1 -17t-17 -1z
" />
    <glyph glyph-name="B" unicode="B" horiz-adv-x="453" 
d="M190 417q79 20 149 3q101 -24 122 -116q18 -83 -36 -162.5t-143.5 -128.5t-167.5 -46q-89 4 -123 77q-5 11 6 16q6 3 12 -1q-29 291 99 501q31 51 76 97q31 32 57 43q36 17 59 -7q27 -26 13 -79q-11 -39 -45 -93q-31 -49 -78 -104zM144 400q62 67 104 134q32 51 42 87
q11 38 -6 56q-12 11 -33 2q-22 -10 -50 -39q-43 -43 -73 -92q-57 -95 -82 -209q3 4 8 8q14 13 40 28q22 13 50 25zM29 29q30 -35 86 -38q72 -3 155 43q84 46 133 119q50 73 34 145q-17 78 -104 99q-77 19 -159 -10q-5 -2 -16 -7l-1 -1q-18 -19 -56 -50q-20 -16 -32 -23
q-8 -5 -13 -6.5t-9 -0.5q-5 1 -8 4q-21 -123 -4 -263q1 -7 -6 -11z" />
    <glyph glyph-name="C" unicode="C" horiz-adv-x="405" 
d="M378 582q6 47 -7.5 72.5t-38.5 31.5t-58.5 -7t-65.5 -44q-128 -129 -163 -362q-16 -105 3.5 -176t62.5 -94q42 -23 102 9q60 31 125 123q47 67 60 112q4 12 15.5 8.5t8.5 -14.5q-15 -50 -64 -120q-68 -96 -136 -132t-122 -7q-53 27 -74 105.5t-5 189.5q36 240 171 374
q34 35 73.5 50.5t72.5 7.5q36 -8 53.5 -42t10.5 -87q-2 -12 -13.5 -10.5t-10.5 12.5z" />
    <glyph glyph-name="D" unicode="D" horiz-adv-x="494" 
d="M110 41q2 -3 5 -6q14 -14 46 -21q48 -10 103 1.5t99 38.5q63 39 90 103t20 133t-42 141q-51 105 -139 171q-89 66 -183 59q0 -57 1.5 -250.5t0.5 -299.5q19 19 46 32q60 29 127.5 33.5t130.5 -18.5q11 -4 7 -15t-15 -7q-58 20 -121 16t-119 -31q-43 -20 -57 -50v-30z
M92 684q108 14 207 -57.5t154 -184.5q36 -75 44 -149t-22 -145t-100 -114q-47 -30 -106.5 -42.5t-111.5 -1.5q-30 6 -48 18v-11q0 -5 -3.5 -8.5t-8.5 -3.5t-8.5 3.5t-3.5 8.5q0 19 1 39q-6 13 -3 27q1 7 3 13q2 47 0.5 294t-1.5 294q-2 3 -3 6q-1 12 10 14z" />
    <glyph glyph-name="E" unicode="E" horiz-adv-x="418" 
d="M274 458q-4 3 -13 2q-12 0 -32 -8q-17 -7 -36 -19q32 6 57 14q17 6 24 11zM281 651q-26 27 -62 25.5t-78 -27.5q-40 -25 -68.5 -61t-32.5 -67q-7 -56 39 -78q26 -13 66 -13q9 7 19 14q27 18 56 30q23 10 40 10q25 2 37 -15q6 -9 2 -19q-3 -6 -11 -11q-10 -8 -30 -14
q-34 -12 -72 -17q-17 -2 -33 -2q-63 -54 -99.5 -133t-26.5 -157q8 -68 67 -91q52 -21 129 -4q73 17 128 56q54 40 54 76q0 12 12 12t12 -12q0 -49 -64 -95q-59 -43 -136 -60q-85 -19 -144 5q-72 28 -82 111q-10 78 23 156q33 80 93 137q-29 4 -51 14q-61 30 -52 104
q5 37 37 77.5t76 66.5q29 19 58.5 27t60.5 2q30 -7 51 -31q8 -9 -1 -17t-17 1z" />
    <glyph glyph-name="F" unicode="F" horiz-adv-x="483" 
d="M76 687q19 -5 37 -7q19 -2 43 0t38.5 4t44.5 7t39 7q36 5 75 10q16 2 25 2q5 1 8 1q2 -1 4 -1t4 -2q6 -3 6 -10q-1 -15 -12 -36t-12 -27q-10 -33 -4 -96q3 -35 29 -122q43 2 80 2q12 0 12 -12t-12 -12q-35 0 -73 -2q29 -100 37 -155q14 -95 -12 -151q-33 -70 -129 -85
q-74 -11 -149 6q-76 17 -124 67q-38 39 -47 84t10 81q19 38 58.5 60.5t90.5 22.5q12 0 12 -12t-12 -12q-45 0 -78.5 -19t-48.5 -50q-16 -28 -8.5 -66t41.5 -73q43 -44 112 -60q70 -16 139 -5q84 13 111 72q23 49 10 137q-8 53 -38 156q-44 -2 -129 -11q-5 0 -8.5 3t-4 8
t2.5 8.5t8 4.5q81 8 124 11q-25 85 -28 122q-6 67 4 104q3 9 15 32q4 8 6 13q-7 -1 -18 -2q-33 -4 -73 -10q-8 -1 -38 -6.5t-45 -7.5l-42 -4q-26 -2 -47 0t-40 7q-12 4 -8.5 15.5t14.5 8.5z" />
    <glyph glyph-name="G" unicode="G" horiz-adv-x="550" 
d="M498 264q-80 9 -173 -17t-155 -71q-48 -35 -74 -72q-37 -53 -12 -89q16 -23 55 -31q37 -7 88 -1q46 6 90 20t68 28q61 38 85 95.5t28 137.5zM335 587q40 -12 78 -4.5t67 30.5q26 20 29 39q2 18 -23 29q-63 28 -150 0t-162 -92q-74 -64 -102 -130q-29 -68 7 -110
q47 -55 158 -14q79 29 161 89q61 45 84 68q3 3 14 19l1 2l2 4q2 5 4 7q6 6 14 3q6 -2 8 -9q5 -22 2 -66q-4 -60 -4 -61t0.5 -52.5t-0.5 -53.5q31 -6 56 -17q11 -5 6 -16t-16 -6q-21 9 -47 14q-4 -83 -31 -145.5t-94 -103.5q-26 -16 -72.5 -31t-94.5 -21q-55 -6 -95 1
q-50 10 -71 41q-34 51 12 116q28 41 80 79q63 46 160.5 73.5t182.5 18.5v103q0 2 4 63q1 16 1 27q-2 -3 -4 -5q-25 -25 -88 -72q-85 -62 -166 -92q-128 -46 -185 21q-46 53 -11 135q30 72 109 139t172 97q93 31 165 -1q41 -18 37 -54q-4 -29 -38 -55q-33 -26 -76.5 -35
t-91.5 6q-11 4 -7 15t15 7z" />
    <glyph glyph-name="H" unicode="H" horiz-adv-x="517" 
d="M427 693q-3 -33 -14 -119q-10 -76 -13 -118q-2 -39 -3 -77q58 -2 117 -12q12 -2 10 -14t-14 -10q-61 10 -113 12q-2 -185 33 -345q2 -12 -9.5 -14.5t-14.5 8.5q-35 163 -33 351q-105 -1 -220 -30q-4 -46 -9 -98l-13 -114l-11 -96q-1 -5 -4.5 -8t-8.5 -2.5t-8 4t-3 8.5
q1 12 14 126t18 174q-43 -12 -90 -28q-11 -4 -15 7t7 15q53 18 100 31q10 122 5 222q-3 68 -16 96q-9 20 -21 18q-15 -2 -38 -28q-22 -25 -47 -69q-6 -10 -16 -4t-4 16q26 46 49 73q28 32 52 36q30 5 47 -32q15 -33 18 -104q4 -97 -4 -218q114 28 218 29q1 39 3 79
q3 42 13 119q12 90 14 118q0 5 4 8t9 3t8 -4t3 -9z" />
    <glyph glyph-name="I" unicode="I" horiz-adv-x="293" 
d="M230 43q17 -26 33 -45q8 -9 -1 -17t-17 1q-16 19 -31 43q-44 -44 -88 -44q-48 -1 -90 47q-31 36 -52 88q-8 21 -12 37q-2 8 -3 14q0 8 3 13l3 4q1 0 1.5 0.5t2.5 1.5t7 4l22 10l70 32l40 19q-45 156 -48 277q-2 73 1 98q9 77 51 94q32 13 61 -5q22 -14 39 -46
q20 -36 39 -108q30 -120 33 -256q3 -176 -53 -249zM-6 167q0 -4 1 -8q4 -15 11 -34q20 -49 48 -81q35 -40 71 -39q37 0 76 41q-42 74 -76 182l-38 -18l-69 -31l-22 -11zM218 65l3 5q52 67 49 234q-3 133 -33 251q-17 69 -36 102q-14 27 -31 38q-18 11 -40 3q-28 -11 -35 -75
q-3 -23 -1 -95q3 -115 46 -267l56 25q11 5 16 -6t-6 -16l-59 -26q32 -102 71 -173z" />
    <glyph glyph-name="J" unicode="J" horiz-adv-x="547" 
d="M474 295q-124 -23 -205 -117q-17 -19 -34.5 -51.5t-26.5 -64.5q-21 -79 33 -104q58 -27 114 4t81 93q31 76 38 240zM388 444q-8 -56 -47.5 -94.5t-89.5 -53t-98 -7.5q-37 6 -65 25t-39 50q-26 70 45 173q17 24 49.5 54.5t58.5 48.5q61 42 97 57q73 32 116 -2
q42 -32 64 -124q18 -78 20 -188q1 -30 0 -60q30 4 63 4q12 0 12 -12t-12 -12q-33 0 -64 -4q-7 -173 -40 -254q-28 -68 -93 -105q-65 -36 -134 -4q-73 33 -46 132q9 35 28.5 70t37.5 56q88 102 224 126q1 31 0 62q-2 107 -20 184q-19 83 -54 111q-32 24 -93 -2
q-33 -14 -92 -55q-25 -17 -56 -46t-46 -51q-64 -93 -43 -151q18 -49 86 -59q43 -6 87.5 7t78.5 46.5t41 81.5q2 12 14 10t10 -14z" />
    <glyph glyph-name="K" unicode="K" horiz-adv-x="512" 
d="M79 421l-2 30q-4 0 -8 -1q-35 -4 -57 -12q-23 -8 -30 -18q-5 -7 -4 -19q0 -6 3 -8t11 -2q17 0 49 12q17 7 38 18zM178 481q48 37 76.5 84t56.5 124q4 11 15 7t7 -15q-25 -72 -51.5 -118.5t-68.5 -83.5q148 -15 224 -153q60 -110 77 -310q0 -5 -3 -9t-8 -4t-9 3t-4 8
q-16 194 -74 300q-76 139 -230 143q-22 -16 -48 -31q-21 -13 -34 -20q9 -207 -18 -400q-2 -12 -14 -10t-10 14q27 185 18 384l-30 -13q-36 -14 -58 -14q-16 0 -25 7q-12 9 -13 25q-1 20 8 35q11 16 43 27q24 8 61 13q4 1 9 1q-8 105 -26 206q-2 12 10 14t14 -10
q18 -107 26 -207q34 3 73 3h6zM142 456l-41 -2q1 -11 1 -21l24 13z" />
    <glyph glyph-name="L" unicode="L" horiz-adv-x="518" 
d="M215 510q55 16 97 70q40 52 37 91q-1 15 -9 19q-12 6 -36 -2q-42 -15 -65 -68q-18 -42 -24 -110zM185 199q-5 -1 -19 -4q-68 -14 -121 -61q-59 -55 -44 -115q8 -33 48 -35t62 22q24 25 50 93q17 46 24 100zM66 550q61 -51 124 -45q7 77 27 125q27 63 79 80
q34 12 54.5 1.5t22.5 -38.5q4 -49 -42 -108q-50 -64 -118 -80q-3 -49 -1 -123q3 -98 2 -108l-2 -29q105 6 190 -49t134 -153q5 -10 -5.5 -15.5t-16.5 5.5q-46 93 -126 144t-178 44q-7 -60 -27 -110q-28 -73 -54 -101q-14 -15 -36 -23t-45 -7q-25 1 -44.5 14t-26.5 39
q-18 75 52 138q57 53 133 68l26 4l2 31q1 11 -2 107q-2 72 1 120q-72 -6 -139 51q-9 8 -1 17t17 1z" />
    <glyph glyph-name="M" unicode="M" horiz-adv-x="712" 
d="M291 259q-6 82 -15 139q-9 53 -22 86q-13 38 -30 49q-8 6 -19 -1q-12 -7 -25 -27q-18 -28 -33 -67q-26 -71 -33 -144t-7 -179v-9q0 -7 0.5 -19t0.5 -22v-33v-12q0 -2 -1 -4v-2q-1 -3 -2 -5q-5 -6 -11 -5q-5 1 -8 4q-1 1 -2 3q0 1 -1 2v1q0 1 -1 3q0 4 -1 10l-4 27
q-6 49 -11 76q-4 20 -13.5 86.5t-20.5 108.5t-31 78q-5 11 5.5 16.5t16.5 -4.5q11 -21 19.5 -42.5t15.5 -54.5l9 -44q3 -11 9.5 -56t6.5 -46q3 166 42 274q15 43 35 72q16 24 32 35q24 14 46 0q23 -15 39 -60q13 -37 22 -91q2 -10 3 -19q20 140 59 217q23 45 57 75
q51 44 96 20q42 -23 62 -117q15 -70 21 -194q2 -41 4 -116t2 -91q4 -108 14 -148q17 -66 29 -91q23 -46 62 -53q12 -2 10 -14t-14 -10q-51 10 -80 66q-14 28 -31 96q-10 42 -14 153q0 16 -2 90.5t-4 115.5q-6 123 -20 191q-18 83 -51 100q-30 17 -68 -16q-31 -27 -51 -67
q-28 -56 -46 -146q-18 -92 -22 -184l2 -22l7 -97q2 -22 2 -31q1 -6 1 -9q-1 -1 -1 -2t-1 -3q-3 -7 -11 -7q-3 0 -5.5 1.5t-3.5 2.5l-1 2q-1 1 -1 2t-1 2q-14 63 -11 160z" />
    <glyph glyph-name="N" unicode="N" horiz-adv-x="505" 
d="M33 23l-4 87l-4 88l-2 87q-1 66 1 87q1 38 5 106q0 2 0.5 7.5t0.5 10.5t1 10v11q1 1 1 2q0 2 2 4q3 5 9 5q7 1 11 -5l2 -4v-2v-2q2 -39 1 -111q0 -41 8 -99q8 -56 33 -114.5t63 -99.5q89 -98 201 -46q44 20 80 99q30 66 38 146q8 81 -5.5 159t-54.5 147t-103 108
q-11 6 -4.5 16.5t16.5 3.5q67 -42 111 -115.5t58 -155.5t5.5 -166.5t-39.5 -152.5q-40 -87 -92 -111q-46 -23 -89 -20t-77 21t-63 51q-69 76 -96 193q1 -22 10 -245q0 -4 -3.5 -8t-8 -4t-8.5 3.5t-4 8.5z" />
    <glyph glyph-name="O" unicode="O" horiz-adv-x="481" 
d="M179 675q-63 -20 -110 -120q-49 -106 -52 -238q-2 -139 52 -224q62 -95 181 -88q68 4 118 52.5t73 121.5t19 158q-2 63 -21 120.5t-52.5 105t-86.5 78t-119 34.5h-2zM197 698q69 -8 124 -41.5t89 -84t53 -110.5t21 -124q4 -88 -20 -166t-79.5 -132t-132.5 -59
q-134 -8 -203 99q-58 91 -56 238q3 136 55 247q56 120 138 137q7 1 11 -4z" />
    <glyph glyph-name="P" unicode="P" horiz-adv-x="411" 
d="M80 384l1 -1q33 -31 82 -32t95 24q48 25 83.5 64.5t44.5 81.5q7 30 3 67q-4 38 -16 67q-24 59 -62 63q-56 6 -107 -55q-46 -55 -85 -155q-22 -57 -39 -124zM68 3q1 2 2 5q4 12 7 36q4 40 4 63q-1 69 -15 171l-4 29q-15 -74 -16 -120q-2 -73 1 -104q2 -34 9 -54.5
t12 -25.5zM52 571q4 -18 7 -37.5t5 -44.5l3 -37l2 -17q13 42 28 82q40 105 88 162q60 71 128 63q53 -6 82 -77q13 -33 17.5 -74t-2.5 -76q-11 -47 -50 -91t-91 -70q-32 -16 -64 -23t-65.5 -2t-59.5 24l10 -72q14 -103 15 -174q0 -23 -5 -66q-3 -26 -8 -41q-3 -10 -7 -15
q-9 -10 -21 -5q-20 9 -30 41q-8 24 -11 60q-3 35 -1 106q2 72 31 188l-10 75l-3 38q-2 24 -4.5 42t-7.5 35q-3 12 9 15t15 -9z" />
    <glyph glyph-name="Q" unicode="Q" horiz-adv-x="482" 
d="M344 38q-33 38 -47 79q-4 11 7 15t15 -7q13 -37 44 -72q50 44 75.5 120.5t21.5 163.5q-2 63 -21 120.5t-52.5 105t-86.5 78t-119 34.5h-2q-63 -20 -110 -120q-49 -106 -52 -238q-2 -139 52 -224q62 -95 181 -88q52 3 94 33zM360 20q-48 -35 -108 -39q-134 -8 -203 99
q-58 91 -56 238q3 136 55 247q56 120 138 137q7 1 11 -4q69 -8 124 -41.5t89 -84t53 -110.5t21 -124q4 -90 -23.5 -172t-81.5 -131q44 -44 99 -69q11 -5 6 -16t-16 -6q-60 27 -108 76z" />
    <glyph glyph-name="R" unicode="R" horiz-adv-x="485" 
d="M277 386q-14 -8 -26 -13q-24 -10 -68 -18q-25 -4 -41 -4q-19 1 -28 8v-20q-4 -220 -31 -347q-3 -11 -14.5 -8.5t-9.5 14.5q27 124 31 341q2 111 -6 192q-2 20 -5 37q-1 3 -1 7v2q-9 55 -24 82q-5 11 5.5 16.5t16.5 -4.5q10 -20 18 -51q13 19 35 34q42 31 103 44
q62 13 114 4q59 -12 80 -50q44 -77 -33 -171q-38 -46 -93 -82q3 -2 6 -5q36 -28 64.5 -67.5t46.5 -77.5t33.5 -89t23.5 -88t17 -89q2 -12 -10 -14t-14 10q-11 66 -22.5 112t-31 103.5t-50 103t-71.5 78.5q-7 5 -15 10zM276 413q59 35 99 83q66 81 31 144q-17 29 -65 38
q-47 9 -104 -4q-56 -12 -94 -39q-37 -27 -41 -58q3 -20 6 -44q6 -58 6 -133l6 6q18 14 50 20q57 10 106 -13zM248 398q-36 11 -74 4q-26 -5 -39 -15q-8 -6 -6 -10q1 0 4.5 -1t8.5 -1q15 0 37 4q41 7 62 16z" />
    <glyph glyph-name="S" unicode="S" horiz-adv-x="511" 
d="M412 573q22 35 21 56q-2 17 -18 25q-17 9 -48 6q-32 -2 -65 -16q-54 -23 -107 -61q-53 -39 -77 -79q-4 -8 -2 -12q2 -5 12 -9q11 -4 42 -8q5 -1 26 -3l29 -4q9 -1 28 -3.5t30 -4.5l28 -6q17 -4 31 -8q13 -4 27 -9q114 -43 140 -146q18 -72 -23 -139t-116 -115
q-73 -45 -152.5 -58.5t-143.5 13.5q-58 28 -59 95q-1 58 35 106q26 34 70.5 61.5t86.5 38.5q41 10 82 0q26 -6 36 -22q12 -19 -5 -47q-6 -11 -16.5 -4.5t-3.5 16.5q9 16 4.5 23t-21.5 11q-35 8 -70 -1q-39 -9 -80 -34.5t-63 -55.5q-32 -42 -31 -91q1 -53 45 -74
q55 -25 129 -12q75 13 144 56q71 44 107.5 104.5t20.5 122.5q-23 91 -125 129q-12 5 -25 9t-29 7t-27 5.5t-29.5 5t-26.5 3.5t-29.5 4t-25.5 3q-35 4 -49 10q-18 7 -24 19q-9 16 3 36q26 45 82.5 86t111.5 64q37 16 72.5 19t61.5 -9q28 -14 31 -45q2 -30 -25 -72
q-6 -10 -16.5 -3.5t-3.5 17.5z" />
    <glyph glyph-name="T" unicode="T" horiz-adv-x="442" 
d="M-33 601q235 117 471 95q5 -1 8 -4.5t2.5 -8.5t-4 -8t-8.5 -3q-107 10 -220 -11q-29 -392 -5 -657q0 -5 -3 -9t-8 -4t-9 3t-4 8q-24 265 4 654q-110 -25 -214 -77q-10 -5 -15.5 5.5t5.5 16.5z" />
    <glyph glyph-name="U" unicode="U" horiz-adv-x="458" 
d="M354 241q46 107 68 212q16 77 13 133q-2 59 -25 83q-8 9 -14 10q-4 0 -8 -5q-13 -14 -22 -55q-14 -59 -16 -120q-6 -170 4 -258zM71 687q-24 -192 -24 -295q0 -124 9 -182q17 -112 48 -164q26 -44 59 -42q32 1 71 41q38 39 77 108l24 46q-15 104 -9 300q2 64 16 125
q11 48 28 66q12 14 28 12q15 -1 30 -17q28 -31 31 -97q3 -59 -14 -140q-27 -130 -85 -252q17 -110 63 -196q5 -11 -5.5 -16.5t-16.5 4.5q-40 77 -59 172l-10 -19q-40 -71 -80 -112q-46 -47 -88 -49q-47 -2 -80 53q-34 57 -52 173q-9 59 -9 186q0 105 24 297q2 12 13.5 10.5
t10.5 -12.5z" />
    <glyph glyph-name="V" unicode="V" horiz-adv-x="442" 
d="M42 649q33 -81 71 -231q50 -198 61 -233l30 -99l10 -30q-4 67 14 141q34 137 91 275q73 177 148 250q8 8 16.5 -0.5t-0.5 -17.5q-70 -67 -142 -241q-58 -139 -89 -272q-13 -51 -14.5 -87.5t3.5 -88.5l1 -6v-7q0 -14 -10 -20q-8 -5 -15 1q-1 2 -2.5 4.5t-3.5 6.5
q-3 7 -8 21l-22 63l-31 101q-10 34 -60 233q-36 144 -70 229q-5 11 6.5 15.5t15.5 -7.5z" />
    <glyph glyph-name="W" unicode="W" horiz-adv-x="649" 
d="M136 581q-33 -73 -47 -202q-7 -64 -2 -183q3 -74 28 -133q16 -36 37 -50q23 -15 53 -2q18 8 37 37q17 25 34 68q28 69 41 132q3 16 7 57q-1 50 1 73v4q0 4 1 6q0 5 3 9q2 4 7 5.5t10 -0.5q4 -2 6 -6q0 -1 0.5 -2.5t0.5 -2.5q1 -2 1 -5q0 -5 -1 -15q-1 -17 -3 -43l-2 -24
q1 -20 1 -32q0 -9 -0.5 -31.5t0 -34t2 -29t5.5 -31.5q18 -69 57 -108q46 -46 101 -12q65 41 94.5 133t22.5 204q-8 110 -47 204.5t-99 137.5q-10 7 -3 17t17 3q65 -48 106 -147q42 -99 49 -213q8 -118 -23 -215q-32 -99 -105 -144q-70 -45 -130 15q-44 43 -64 119
q-5 20 -7 44q-12 -42 -27 -77q-18 -44 -36 -72q-23 -35 -47 -46q-42 -19 -76 4q-27 18 -46 61q-27 63 -30 142q-5 120 2 185q14 134 49 210q5 11 16 6t6 -16z" />
    <glyph glyph-name="X" unicode="X" horiz-adv-x="468" 
d="M37 -13q4 64 43.5 174t97.5 228l2 3q-81 148 -142 301q-5 11 6.5 15.5t15.5 -7.5q58 -143 133 -283q57 111 115.5 195.5t103.5 116.5q10 7 17 -3t-3 -17q-44 -30 -102.5 -117t-116.5 -201q54 -97 121 -203q21 -32 71 -100t72 -101q7 -10 -3 -17t-17 3q-22 33 -71 101
q-49 65 -72 102q-63 98 -114 189q-56 -114 -92.5 -218t-40.5 -163q0 -5 -4 -8t-9 -3t-8 4t-3 9z" />
    <glyph glyph-name="Y" unicode="Y" horiz-adv-x="575" 
d="M389 304q-21 -7 -42 -17q-65 -28 -119 -68.5t-79 -78.5q-25 -37 -31 -78q-8 -48 21 -71q20 -16 56.5 -16.5t63.5 10.5q100 34 122 169q10 55 8 150zM181 701q-73 -57 -114.5 -167.5t-18.5 -197.5q10 -42 37 -55q24 -11 59 0q32 10 65 34t52 49q30 38 77 129q18 32 33 71
q11 29 16 49v12q0 4 2 11q1 3 1.5 5t1.5 3q2 3 5 4q6 3 12 -2q2 -1 3 -3t2 -3v-2v-2q0 -11 -3 -26v-16v-13v-193q0 -16 1 -51q112 32 181 1q11 -5 6 -16t-16 -6q-63 29 -171 -4q3 -103 -7 -162q-25 -149 -138 -187q-22 -8 -46 -11t-51.5 1.5t-46.5 19.5q-38 31 -29 93
q7 45 35 88q27 41 83.5 83t124.5 72q26 12 51 21q-1 41 -1 58v72v81q-14 -34 -27 -60q-49 -92 -79 -131q-22 -28 -58 -54.5t-72 -37.5q-44 -13 -76 2q-37 17 -51 70q-24 94 20 211.5t123 177.5q9 8 16.5 -1.5t-2.5 -16.5z" />
    <glyph glyph-name="Z" unicode="Z" horiz-adv-x="539" 
d="M469 312q-92 -3 -187 -37t-167 -89q-25 -19 -48.5 -50.5t-33.5 -63.5q-10 -34 0 -60q11 -29 49 -44q71 -28 155.5 6t148.5 109q44 52 66.5 112t16.5 117zM66 592q12 36 54 70q42 33 92 53q52 21 91 19q49 -2 60 -39q17 -52 -36 -115q-21 -27 -61 -61q43 2 75 -8
q61 -18 111 -88q28 -40 38 -86q27 0 52 -3q5 -1 8 -4.5t2.5 -8.5t-4 -8t-8.5 -3q-23 3 -47 3q7 -62 -17.5 -126.5t-71.5 -118.5q-67 -80 -159 -117q-91 -37 -171 -5q-48 19 -64 58q-13 33 1 75q10 36 36 70.5t54 56.5q74 55 171 90.5t193 39.5q-9 40 -33 73q-45 64 -97 80
q-37 11 -85 4q-9 -1 -18 -3q-20 -18 -38 -29q-1 -1 -4.5 -3.5t-5.5 -3.5q-4 -3 -7 -4q-2 -1 -5 0q-6 0 -10 6q-2 4 -1 8q0 2 1 4q14 30 59 43l5 5q64 56 83 79q44 53 32 92q-7 22 -39 23q-34 2 -81 -17t-84.5 -49.5t-48.5 -59.5q-4 -11 -15 -7t-7 15z" />
    <glyph glyph-name="bracketleft" unicode="[" horiz-adv-x="654" 
d="M390 509q-1 96 58 146q51 43 114 44q34 0 59.5 -16.5t36.5 -52.5q22 -78 -20 -190q-12 -31 -40 -90q-26 -57 -36 -83q-7 -20 -17 -61q-11 -42 -19 -63q-4 -12 -15.5 -7.5t-6.5 15.5q1 5 3 9q-66 42 -119 65q-8 4 -77 29q-60 22 -96 38q-122 57 -133 125q-10 63 37 101
t115 42q43 3 84.5 -10t68.5 -41h3zM283 353l27 49q42 76 52 88q0 1 2 3l3 3q-49 45 -132 40q-14 -1 -28 -3q4 -20 -7 -52q-4 -13 -12 -32l-4 -8l4 6q33 58 43 71l1 2q1 3 2 4q2 3 4 5q6 4 12 -1q11 -9 8 -30q-1 -14 -9 -36q-2 -4 -15 -34q-8 -18 -9 -22l-4 -12l6 9
q30 48 32 51q13 17 25 31q0 1 1 2q2 3 3 4q2 3 4 5q4 2 8 0.5t5 -5.5q10 -22 -1 -62q-2 -8 -10 -30q-5 -17 -7 -26q-3 -12 -4 -20zM347 325q8 13 26 47l26 49q-2 2 -2 4q-3 21 -4 32q-2 5 -4 9l-11 -39zM118 430q6 16 39 68l17 25q-36 -14 -55 -40.5t-13 -61.5
q9 -56 119 -107q35 -16 94 -37q64 -24 79 -30q53 -23 116 -63q3 9 7 28q11 41 19 63q11 29 37 85q27 58 38 89q40 104 19 175q-15 52 -72 51q-54 -1 -98 -38q-36 -31 -44.5 -73t-2.5 -101q1 -2 2 -5l49 87q19 33 41 60l1 2q1 2 2 3q2 3 3 4l2 2q5 2 8 -1q3 -1 4 -5v-2
q0 -38 -40 -121l-32 -64q-18 -34 -25 -52q-13 -36 -15 -43q0 -1 -1 -4v-4q-1 -3 -1 -6q4 8 8 19q1 3 12 34q8 21 14 33q46 90 87 156q17 26 45 62l1 2q2 4 2 5q2 3 4 5q6 5 12 1t6 -13q0 -6 -2 -14q-4 -13 -15 -39q-10 -23 -54 -111q-37 -77 -52 -115q-7 -20 -11 -34l7 17
l15 36q14 27 67 96l10 13q0 1 1 2v1l2 2l4 4q2 3 3 4q0 1 1 1q0 1 0.5 1t1.5 1l2 2l1 1q0 2 1 4q2 3 4 4q3 4 8 2q4 -1 5 -5q2 -3 1 -9q-1 -4 -3 -10l-9 -29q-11 -31 -31 -84q-41 -108 -58 -144q-3 -8 -10.5 -4.5t-3.5 10.5q17 37 57 144q20 51 31 83l2 5l-8 -9
q-49 -63 -65 -94q-2 -3 -14 -34q-13 -31 -16 -37l-1 -3l-2 -4q-2 -3 -5 -5t-6.5 -1.5t-5.5 3.5q-8 9 -4 31q4 18 14 45q15 38 53 116q46 94 53 110q7 15 11 26q-20 -25 -35 -49q-43 -70 -87 -156q-5 -10 -12 -30q-12 -31 -13 -35q-18 -44 -40 -62l-2 -2q-3 -1 -6 0
q-6 1 -6 7q-1 1 0 3q0 2 3 7q5 11 5 12q6 19 10 39q1 8 16 46q6 18 24 54l32 63q26 53 34 84q-14 -20 -26 -41q-28 -47 -58 -103q0 -5 -3 -9q-1 -6 -6 -9l-28 -52q-20 -37 -29 -51q-6 -10 -11 -15q-8 -7 -15 -6q-9 2 -9 11q-1 4 2 11q1 2 4 9q2 5 2 6l32 103l14 48l1 4
l-4 -4q-10 -12 -50 -86l-27 -50l-11 -17q-5 -8 -9 -10t-8 -1q-4 2 -5 6q-1 3 0 7q0 1 1 5v3q1 16 6 40q2 9 8 27q7 21 9 30q7 23 6 38l-23 -28q-1 -2 -31 -50q-11 -18 -18 -28q-11 -15 -17 -18q-5 -2 -9 0t-4 8q0 2 2 5q0 1 1 4q1 2 1 3l5 13l8 29l10 24q10 22 15 34
q7 20 8 32q1 4 1 7q-7 -10 -41 -68l-22 -38q-6 -8 -9 -13q-4 -7 -7 -9q-3 -3 -7 -2q-5 1 -7 6q-1 2 0 6q0 3 1 9q2 6 6.5 18.5t4.5 13.5q3 6 11 26q8 19 12 30q5 16 7 36l-22 -33q-31 -50 -36 -65q-3 -7 -10.5 -4.5t-5.5 10.5z" />
    <glyph glyph-name="backslash" unicode="\" horiz-adv-x="439" 
d="M422 -13l-181 317q-135 235 -203 366q-5 11 5.5 16.5t16.5 -4.5q68 -132 203 -366l181 -317q5 -11 -5.5 -16.5t-16.5 4.5z" />
    <glyph glyph-name="bracketright" unicode="]" horiz-adv-x="504" 
d="M280 95q-1 0 -1 1q-11 25 -54 106l-64 120q-39 77 -58 128q-25 65 -22 96q6 50 53 64q64 18 115 -58q24 -34 40 -82q25 80 81 129q17 15 40.5 19t44 -3.5t36 -25.5t17.5 -44q2 -29 -24 -95q-21 -53 -60 -131q-32 -62 -123 -226q-5 -10 -16 -4q-4 2 -5 6zM276 424
q-12 64 -46 115q-42 61 -90 47q-31 -9 -35 -42q-3 -25 20 -85q20 -52 58 -126l58 -112q39 -72 51 -96q72 129 110 205q39 76 60 128q24 61 22 85q-3 36 -37.5 48.5t-60.5 -10.5q-32 -29 -55 -72t-29 -87q-2 -12 -14 -10q-4 1 -7 5q-4 2 -5 7z" />
    <glyph glyph-name="asciicircum" unicode="^" horiz-adv-x="243" 
d="M63 566q29 52 51 86q13 20 21 31q5 6 9 9q2 3 4 4q6 4 12 1q4 -1 7 -4q2 -2 4 -5q4 -5 10 -14q10 -14 25 -40l24 -39q15 -25 18 -31q7 -10 -3.5 -16.5t-16.5 4.5l-18 30q-16 25 -24 40q-15 25 -25 38q-3 6 -6 9l-1 -1l-20 -29l-51 -85q-6 -10 -16 -4t-4 16z" />
    <glyph glyph-name="underscore" unicode="_" horiz-adv-x="417" 
d="M22 -139q50 4 190 30q124 23 194 23q12 0 12 -12t-12 -12q-71 0 -190 -22q-150 -28 -192 -31q-5 0 -9 3t-4 8t3 9t8 4z" />
    <glyph glyph-name="grave" unicode="`" horiz-adv-x="86" 
d="M46 751q37 -52 48 -122q2 -12 -10 -14t-14 10q-10 63 -44 112q-7 10 3 17t17 -3z" />
    <glyph glyph-name="a" unicode="a" 
d="M255 303q-22 30 -63.5 13.5t-85.5 -68.5t-65 -109q-23 -59 -9 -95q12 -29 36 -29q23 1 57 26q29 20 56.5 49.5t40.5 47.5q26 37 34 62q3 35 9 61q3 10 4 15q1 3 2 5q0 1 1 3q2 2 5 4q4 2 8 1t7 -5q2 -2 2 -5v-2v-2v-4q0 -3 -2 -10q-2 -15 -6 -39q-2 -14 -6 -27
q-4 -43 -1 -80q4 -43 16 -69q14 -28 37 -33q11 -3 8.5 -14.5t-14.5 -9.5q-34 8 -52 46q-15 30 -19 78q-1 14 -1 29l-12 -18q-14 -20 -43 -50.5t-60 -52.5q-40 -29 -71 -30q-40 -1 -58 45q-17 44 8 112q23 60 69 115q48 57 95 76q59 22 93 -22q7 -9 -2.5 -16.5t-17.5 2.5z
" />
    <glyph glyph-name="b" unicode="b" horiz-adv-x="297" 
d="M221 175q-4 23 -17 30q-12 7 -18 1q-6 -5 -2 -14q6 -12 30 -16q4 0 7 -1zM86 241q13 0 31 15q17 16 36 46q37 57 67 145q30 85 37 150q3 33 -1 52q-3 17 -10 20q-16 7 -33 -7q-18 -14 -36 -46q-25 -43 -44 -102q-41 -132 -58 -251q-24 -174 21 -234q26 -35 54 -23
q27 12 49 58q22 44 23 87q-6 0 -11 1q-37 6 -49 30t7 42t47 3q24 -14 29 -51q28 2 63 13q12 4 15.5 -7.5t-7.5 -14.5q-39 -13 -70 -15v-1q-1 -49 -25 -98q-26 -53 -62 -69q-45 -19 -83 31q-50 67 -24 252q17 121 59 255q18 60 45 106q21 36 42 53q29 23 58 10q18 -8 24 -37
q4 -23 0 -59q-6 -67 -37 -156q-32 -91 -69 -150q-21 -33 -42 -51q-23 -21 -46 -21q-12 0 -12 12t12 12z" />
    <glyph glyph-name="c" unicode="c" horiz-adv-x="299" 
d="M189 279q3 41 -23 65t-60 -2q-57 -45 -73 -148q-12 -78 13.5 -123.5t70.5 -53.5q46 -9 94.5 21.5t78.5 96.5q5 11 16 6t6 -16q-33 -72 -88.5 -107t-110.5 -25q-57 11 -87 65t-17 140q18 112 83 162q26 20 49 19t41 -17q16 -15 24.5 -38t6.5 -47q0 -5 -4 -8t-9 -3t-8 4
t-3 9z" />
    <glyph glyph-name="d" unicode="d" horiz-adv-x="394" 
d="M284 199l3 7q28 70 48 148q20 76 26 124q9 67 9 97q0 34 -6 53q-5 18 -14 19q-17 2 -29 -14t-20 -47q-5 -18 -8.5 -38.5t-5.5 -41.5t-3 -27q-8 -49 -10 -114t7 -149q2 -9 3 -17zM251 293q-5 103 9 190q1 4 3.5 25.5t6 43t7.5 40.5q10 36 25 56q20 26 50 23q25 -3 35 -36
q7 -23 7 -60q0 -32 -9 -101q-6 -48 -26 -126q-21 -78 -50 -151q-8 -20 -17 -38q12 -44 29 -75q32 -55 83 -62q12 -2 10 -14t-14 -10q-62 9 -100 74q-13 24 -23 55q-23 -42 -46 -70q-53 -62 -110 -56q-71 8 -93 78q-19 59 5 133q23 73 71 108q58 40 118 -1q17 -12 29 -26z
M252 228q-6 45 -44 71q-46 32 -90 1q-42 -30 -63 -96t-4 -118q17 -55 72 -61q45 -5 89 47q28 34 55 89q-6 24 -9 51l-1 9q-4 3 -5 7z" />
    <glyph glyph-name="e" unicode="e" horiz-adv-x="301" 
d="M39 186q31 -4 68 11t66 40q31 27 40 54q8 25 -9 40q-24 21 -64 -4q-40 -26 -74 -84q-17 -28 -27 -57zM31 163q-4 -18 -6 -34q-6 -59 27 -88q44 -38 103 -22q36 9 69 40q50 46 61 92q3 12 15 9t9 -15q-13 -52 -69 -104q-37 -34 -79 -46q-71 -19 -125 28q-42 37 -35 108
q6 60 44 124q37 63 82 92q55 35 93 2q29 -25 16 -65q-11 -33 -47 -65q-33 -29 -76 -45.5t-82 -10.5z" />
    <glyph glyph-name="f" unicode="f" horiz-adv-x="243" 
d="M21 407q34 -1 60 -1q-18 130 -8 215q6 54 36 81q30 26 67 18t60 -47.5t20 -99.5q0 -5 -4 -8t-9 -3t-8 4t-3 9q3 52 -15.5 83.5t-45.5 37.5q-25 6 -47 -13.5t-27 -63.5q-9 -82 8 -213q34 1 65 6q12 2 14 -10t-10 -14q-32 -4 -66 -6l5 -33q8 -58 11.5 -94.5t4 -89.5
t-6.5 -99q-9 -58 -21 -90q-23 -62 -65 -69q-12 -2 -14 10t10 14q28 4 46 53q11 30 20 86q7 44 6.5 95t-4 87t-11.5 94l-5 36q-27 0 -63 1q-5 0 -8.5 4t-3.5 8.5t4 8t8 3.5z" />
    <glyph glyph-name="g" unicode="g" horiz-adv-x="451" 
d="M325 35q-126 -28 -183 -112q-23 -34 -25 -78q-1 -48 29 -67q28 -17 75 -6q84 19 101 152q5 46 3 111zM317 283q-40 15 -90 -3.5t-93 -60.5q-42 -41 -60.5 -86.5t-3.5 -78.5q12 -27 35 -26q21 0 53 23q41 28 93 89q35 41 55 72q0 1 0.5 2t1 3.5t1.5 5.5q2 6 5 9q4 5 10 5
t11 -5q2 -2 3 -6q1 -2 1 -5q1 -3 2 -10q1 -10 1 -28q1 -9 1.5 -18.5t0.5 -16.5v-8q0 -11 2 -36.5t2 -40.5q52 9 111 9q12 0 12 -12t-12 -12q-59 0 -110 -9q3 -69 -3 -118q-19 -150 -119 -173q-57 -13 -93 10q-43 26 -41 88q2 51 29 91q63 93 202 122q0 15 -2 41.5t-2 37.5v8
q0 7 -0.5 17t-1.5 19v5q-15 -23 -49 -63q-53 -62 -97 -93q-38 -26 -67 -27q-38 -1 -57 40q-19 42 2.5 95t67.5 97q46 45 102.5 66t104.5 3q11 -4 7 -15t-15 -7z" />
    <glyph glyph-name="h" unicode="h" horiz-adv-x="302" 
d="M61 9v-3v-2v-1v-1v-1q0 -2 -3 -5q-3 -4 -8 -4q-6 0 -10 4q-3 3 -3 5v2v2v4v3v2v3v4q0 15 -1 31.5t-2 26.5q-3 64 -3 176q0 295 11 450q0 5 4 8t9 3q10 -2 11 -13q-11 -153 -11 -448v-75q22 77 54 128q29 45 61 58q42 16 83 -21q49 -44 51 -167q0 -36 -3 -96
q-4 -63 -4 -80q0 -12 -12 -12t-12 12q0 18 4 81q3 59 3 95q-2 112 -43 149q-30 27 -58 16q-25 -9 -50 -48q-40 -63 -57 -148q-10 -50 -11 -126v-8v-4z" />
    <glyph glyph-name="i" unicode="i" horiz-adv-x="105" 
d="M76 366q-21 -70 -13 -191q9 -132 49 -174q8 -9 -1 -17t-17 1q-45 48 -55 189q-8 125 13 198q4 12 15.5 8.5t8.5 -14.5zM87 527q12 0 12 -12t-12 -12t-12 12t12 12z" />
    <glyph glyph-name="j" unicode="j" horiz-adv-x="200" 
d="M33 -146q3 -1 7 -1q8 -1 10 0q27 5 40 37q8 21 14 67q4 28 6 59q-18 -20 -34 -40q-35 -44 -46 -77q-11 -31 3 -45zM139 365q0 -27 0.5 -89t0.5 -109.5t-2 -90.5q31 27 49 35q11 5 16 -6t-6 -16q-18 -8 -53 -40l-8 -7q-3 -47 -8 -89q-6 -49 -16 -72q-18 -44 -58 -52
q-5 -1 -17 0q-5 1 -9 2q-6 1 -10 4q-28 24 -11 72q13 37 51 84q24 32 55 62q2 46 2.5 95.5t0 120.5t-0.5 96q0 12 12 12t12 -12zM132 524q12 0 12 -12t-12 -12t-12 12t12 12z" />
    <glyph glyph-name="k" unicode="k" horiz-adv-x="277" 
d="M56 196q-1 -25 -2 -47l1 1q1 0 2 1q1 0 1.5 0.5t2.5 0.5q2 1 7 2l23 6q35 10 50 16q51 21 84 59q38 45 21 89q-10 26 -36 23q-27 -3 -64 -31q-33 -26 -61 -62q-26 -34 -28 -54q0 -2 -1 -4zM64 683q6 -127 -2 -334l-4 -91l8 11q29 38 66 66q42 32 75 36q44 5 61 -39
q22 -57 -25 -112q-36 -43 -94 -66q-16 -7 -52 -17l-22 -6q6 -18 35 -42q27 -23 61 -40q35 -19 98 -33q11 -3 8.5 -14.5t-14.5 -9.5q-65 15 -104 35q-36 19 -65 43q-32 27 -41 51q-1 -56 -1 -104q0 -5 -3.5 -8.5t-8.5 -3.5t-8.5 3.5t-3.5 8.5q0 75 10 333q8 206 2 331
q0 5 3 9t8 4t9 -3t4 -8z" />
    <glyph glyph-name="l" unicode="l" horiz-adv-x="252" 
d="M110 177l27 64q29 69 60 155t43 154q10 55 6 88q-5 34 -26 40q-19 6 -39 -18q-36 -46 -57 -162q-21 -115 -18 -244q1 -40 4 -77zM97 91q-26 -52 -54 -91q-7 -10 -17 -3t-3 17q34 47 68 119q-8 55 -9 120q-3 135 18 249q23 121 63 172q29 37 63 28q36 -11 44 -61
q5 -37 -6 -95q-13 -69 -45 -158q-31 -86 -60 -157q-29 -69 -44 -102q9 -61 24 -110q33 -107 89 -135q11 -6 5.5 -16.5t-15.5 -5.5q-66 33 -102 150q-11 36 -19 79z" />
    <glyph glyph-name="m" unicode="m" horiz-adv-x="470" 
d="M47 296q0 -7 0.5 -56.5t-0.5 -56.5l2 3q27 69 58 110q40 52 79 47q26 -4 40 -40q10 -27 14 -72q2 -15 2 -33q41 72 94 113q43 34 76 25q39 -11 53 -78q4 -22 6 -99q1 -28 -1 -79t-2 -73q0 -12 -12 -12t-12 12q0 22 2 73q2 49 1 79q-2 77 -6 95q-11 53 -35 59
q-22 5 -55 -20q-31 -24 -60 -64t-40 -67q-5 -13 -8 -25v-19v-15v-61v-11v-13q-1 -9 -3 -14q-3 -7 -11 -8q-7 -1 -12.5 4.5t-6.5 16.5q-1 6 -1 14q0 5 1 10v8q1 5 1 6q1 10 2 29t2 31t4 25q1 52 -3 89q-4 41 -13 64.5t-21 25.5q-25 4 -56 -37q-29 -39 -55 -105
q-18 -44 -29 -88q-2 -21 -2 -37q-1 -25 -2 -37q-1 -6 -3 -9q-1 -4 -4 -6q-3 -3 -7 -3q-5 0 -8 3q-6 4 -8 14q-1 6 -1 16q1 16 6 42q2 10 5 21l2 33l3 49v121q0 12 12 12q5 0 8.5 -3.5t3.5 -8.5z" />
    <glyph glyph-name="n" unicode="n" horiz-adv-x="321" 
d="M41 325q0 -34 -1 -101.5t-1 -101.5v-1l2 3q8 20 35 64q27 45 58 83q39 48 71 68q45 28 74 1q21 -19 32 -68q8 -38 10 -95q1 -42 1 -67.5t-1 -61t-1 -47.5t-12 -12t-12 12t1 47t1 60.5t-1 67.5q-2 55 -10 91q-9 41 -24 55q-16 15 -45 -3t-66 -63q-29 -37 -55.5 -80
t-33.5 -60q-8 -21 -12 -55q-6 -46 -9 -59q-1 -1 -1 -2t-1 -2q-2 -3 -5 -5q-7 -3 -13 2q-2 2 -4 5q0 1 -0.5 3t-0.5 6v10q-2 27 -2 103q0 34 1 101.5t1 101.5q0 12 12 12t12 -12z" />
    <glyph glyph-name="o" unicode="o" horiz-adv-x="280" 
d="M109 314q-39 -29 -57 -84q-18 -54 -9 -108q9 -56 41 -84q36 -30 91 -15q56 15 78 63q22 49 8 107q-13 56 -54 91q-41 36 -98 30zM111 338q66 5 112.5 -36.5t60.5 -103.5q9 -29 6 -60.5t-14 -59t-35.5 -48.5t-59.5 -31q-67 -18 -112 21q-40 33 -50 98q-9 58 9.5 117
t61.5 94q2 7 9 8h1q6 3 11 1z" />
    <glyph glyph-name="p" unicode="p" horiz-adv-x="271" 
d="M16 61q-2 76 -2 139q0 12 12 12t12 -12v-38l6 24q24 82 67 122q28 26 58 26q35 -2 69 -38q36 -39 38 -116q1 -51 -29.5 -91.5t-76.5 -61.5q-32 -15 -64.5 -17t-59.5 10q-1 -24 -1 -118v-10q1 -36 1 -56v-5q1 -6 1 -7v-6q0 -3 -1 -5q-4 -8 -13 -7q-5 1 -8 5q-1 1 -2 3
q-7 13 -5 47q1 7 2 24q0 5 1 7q-2 29 -2 39q-2 66 -3 115l-1 1q-5 8 1 14zM47 48q19 -14 49.5 -14t63.5 15q41 18 67 53t25 78q-1 67 -32 100q-27 29 -51 30q-21 0 -42 -19q-38 -36 -59 -111q-17 -56 -21 -132z" />
    <glyph glyph-name="q" unicode="q" horiz-adv-x="336" 
d="M232 -26q-6 -37 -6 -41q-6 -67 3 -100t39 -32q31 0 46 31q17 33 18.5 61.5t-7 46t-25.5 27.5q-29 18 -68 7zM268 301q-34 33 -80 13q-45 -19 -87 -75q-41 -55 -58 -111q-16 -57 4 -82q15 -19 38 -13q23 5 53 32q48 43 83 100q22 37 30 59q0 2 1 9l1 4v1v1l1 1v2q2 3 5 4
q5 3 10 1q4 -1 6 -5q2 -2 2 -4v-2v-2q-3 -31 -14 -81q-14 -62 -16 -79l-11 -75q43 9 77 -12q35 -21 42.5 -64t-19.5 -101q-10 -21 -28.5 -33t-39.5 -12q-21 -1 -38.5 12t-24.5 38q-10 37 -3 108q0 3 4 29q-20 -11 -39 -29q-8 -9 -16.5 -0.5t0.5 16.5q27 28 59 41l13 86
q4 23 13 67q-38 -58 -82 -98q-34 -31 -63 -38q-39 -9 -64 23q-26 34 -7 103q18 61 62 119q46 61 96 82q62 26 106 -19q9 -8 0.5 -16.5t-16.5 0.5z" />
    <glyph glyph-name="r" unicode="r" horiz-adv-x="233" 
d="M5 12q1 15 5 60l6 69q1 19 2 55t2 49q2 41 2 88v3l-2 6q-1 5 0 9q1 6 5.5 9t10.5 2q10 -2 15 -11q2 -5 3 -13q1 -12 2 -13q12 -16 29 -31q6 -5 25 -6q13 -2 18 -2q11 -2 18 -8q20 -17 12 -64q-1 -10 -7 -39q-6 -26 -8 -41q-6 -46 8 -72q18 -34 73 -45q12 -3 9.5 -14.5
t-13.5 -9.5q-67 14 -90 57q-17 33 -10 87q2 17 7 43q6 29 7 38q6 34 -4 42q-1 1 -6 2q-4 1 -16 2q-27 2 -39 12q-13 11 -23 23l-2 -56q-1 -12 -2 -48t-2 -56q-2 -24 -6 -68.5t-5 -60.5q0 -5 -4 -8t-9 -3t-8 4t-3 9z" />
    <glyph glyph-name="s" unicode="s" horiz-adv-x="321" 
d="M265 292q-13 19 -45.5 32t-68.5 16q-35 3 -53 -6q-7 -3 -9 -7q-2 -3 0 -10q7 -17 47 -42q12 -8 42 -25l44 -25q54 -34 83 -72.5t16 -91.5q-5 -19 -21.5 -36.5t-34.5 -27.5q-26 -13 -72 -15.5t-88 5.5q-49 10 -78 30q-37 26 -35 63q2 54 68 73q52 14 99 2q12 -4 8.5 -15.5
t-14.5 -8.5q-41 12 -86 -1q-49 -15 -51 -52q-1 -23 24 -41t69 -26q43 -8 83 -5q41 2 61 13q15 7 28 20.5t16 27.5q11 41 -13 73q-24 33 -74 64q-17 10 -45 26q-29 17 -41 25q-48 29 -57 54q-6 16 0 29q6 12 21 18q24 11 65 8q39 -3 77 -18.5t55 -39.5q7 -10 -3 -17t-17 3z
" />
    <glyph glyph-name="t" unicode="t" horiz-adv-x="128" 
d="M-23 470q28 -3 57 -2q5 57 21 223q1 5 4.5 8t8.5 2.5t8 -4t3 -8.5l-21 -220q27 1 57 6q12 2 14 -10t-10 -14q-32 -5 -63 -6q-11 -140 -12 -253q-1 -77 5 -108q13 -63 52 -72q12 -3 9 -15t-15 -9q-54 14 -69 91q-7 33 -6 113q1 113 12 252q-29 -1 -57 2q-5 0 -8 4t-3 9
t4 8t9 3z" />
    <glyph glyph-name="u" unicode="u" horiz-adv-x="274" 
d="M72 293q-36 -104 -44 -166q-7 -54 4 -83q11 -30 45 -29q38 1 78 70q28 50 47 115q3 7 8.5 23.5t6.5 20.5q4 27 8 44q1 1 1 2q2 5 7 7t8.5 0.5t5.5 -4.5l1 -2l2 -4v-6q0 -8 -1 -13q-2 -11 -8 -30q-7 -54 -5 -108q2 -49 12 -81q11 -36 29 -47q10 -6 4 -16t-16 -4
q-27 15 -40 60q-11 35 -13 87q-1 11 -1 22q-16 -44 -35 -77q-46 -82 -99 -83q-51 -1 -68 45q-13 34 -5 94q9 64 46 171q4 11 15 7t7 -15z" />
    <glyph glyph-name="v" unicode="v" horiz-adv-x="263" 
d="M90 329q-3 -2 -7 -5q-7 -6 -12 -24q-6 -19 -8 -48q-1 -4 -1 -7q5 9 9 18q19 42 19 66zM8 202q4 -9 9 -9q5 -1 14 7l6 6q0 26 2 48q2 31 9 53q7 25 19 35q9 7 15 11q10 4 17 2q9 -3 13 -12q2 -6 2 -15q0 -28 -21 -75q-15 -33 -32 -55q1 -36 6 -70q12 -70 37 -102
q12 -16 26 -20q16 -4 34 6q22 11 40 50q18 36 29 89q10 49 12 97.5t-4 72.5q-2 12 9.5 14.5t14.5 -8.5q7 -30 4.5 -80t-13.5 -101q-11 -55 -30 -95q-22 -46 -50 -61q-28 -14 -52 -7q-22 6 -39 28q-29 38 -41 113q-4 25 -6 51q-12 -7 -23 -6q-18 1 -29 23q-5 10 5.5 15.5
t16.5 -5.5z" />
    <glyph glyph-name="w" unicode="w" horiz-adv-x="427" 
d="M85 319q-29 -115 -34 -174q-5 -56 5 -89q10 -36 38 -43q30 -8 55 42q16 31 29 86q4 16 6 43v2v21v3q0 1 1 2q0 2 2 4q2 3 5 4q4 2 9 -1q4 -1 6 -5q0 -1 0.5 -2t0.5 -2v-1v-1v-7v-16q1 -71 14 -115q11 -37 30 -54q21 -18 53 -10q34 8 57.5 43t32.5 84q9 48 0 93
q-9 46 -32 70q-9 8 -0.5 16.5t16.5 -0.5q30 -29 39.5 -79.5t0.5 -103.5q-10 -54 -37.5 -95.5t-70.5 -51.5q-45 -10 -75 16q-24 21 -37 65q-5 16 -8 34q-9 -31 -21 -53q-34 -67 -82 -55q-41 11 -55 60q-11 37 -6 98q5 60 34 178q3 12 15 9t9 -15z" />
    <glyph glyph-name="x" unicode="x" horiz-adv-x="292" 
d="M114 122q-65 89 -94 169q-4 11 7 15t15 -7q26 -71 86 -155q55 93 79 188q3 12 15 9t9 -15q-26 -102 -88 -203q83 -109 148 -121q12 -2 10 -14t-14 -10q-72 14 -158 123q-46 -70 -96 -112q-9 -8 -17 1t1 17q51 43 97 115z" />
    <glyph glyph-name="y" unicode="y" horiz-adv-x="375" 
d="M272 4q-42 -12 -78 -30q-97 -50 -111 -124q-3 -14 1 -29.5t13 -23.5q30 -28 79 -20q48 7 65 44q20 44 30 155q1 6 1 28zM124 297q-9 -13 -23.5 -58t-23.5 -91q-10 -54 -6 -86q3 -32 19 -34q43 -6 86 54q25 36 57 108q16 37 30 99l1 5q1 4 2 6q1 4 3 7q5 8 13 6q7 -2 9 -9
q2 -5 3 -21q1 -17 2 -37q1 -42 1 -105v-107q38 8 71 8q12 0 12 -12t-12 -12q-33 0 -72 -8q0 -29 -1 -36q-10 -115 -32 -163t-84 -58q-59 -9 -98 26q-14 13 -19.5 35t-2.5 40q16 86 124 141q41 21 89 34q1 51 1 112q0 50 -1 86q-7 -24 -17 -47q-34 -75 -59 -112
q-52 -72 -110 -64q-33 5 -39 55q-4 36 7 93q8 48 23.5 95.5t26.5 63.5q7 10 17 3t3 -17z" />
    <glyph glyph-name="z" unicode="z" horiz-adv-x="337" 
d="M259 51q-61 -32 -103 -58q-60 -39 -85 -72q-27 -35 -10 -61q22 -33 59 -28q36 5 74 41.5t57.5 86t7.5 91.5zM67 54q1 0 3 1q11 6 28 25q9 11 20 26q-19 -11 -34 -26q-10 -10 -15 -19q-3 -6 -2 -7zM27 201q8 46 51 81q40 33 80 34q22 0 36 -11q16 -13 18 -37
q5 -43 -37 -119q23 1 43 -7q35 -15 55 -58l60 30q11 6 16.5 -4.5t-4.5 -15.5q-3 -2 -64 -32v-2q16 -50 -6 -106.5t-64 -96.5q-44 -42 -88 -49q-52 -7 -82 38q-27 41 11 90q27 35 91 77q44 28 108 60q-15 35 -42 47q-22 9 -50 2q-22 -33 -43 -58q-20 -22 -34 -30
q-11 -6 -20 -4q-12 2 -17 14t3 28q6 12 19 25q29 29 67 43q5 2 10 3l2 3q46 80 42 120q-1 14 -9 20q-7 6 -21 6q-31 -1 -65 -28q-36 -30 -42 -67q-2 -12 -14 -10t-10 14z" />
    <glyph glyph-name="braceleft" unicode="{" 
d="M236 684q-43 29 -86 3t-50 -79q-3 -18 5.5 -36.5t18 -29t31.5 -32.5q21 -20 32 -34t20 -40t4 -53q-9 -45 -55 -66q-11 -5 -23 -8l2 -1q44 -23 42 -83q0 -10 -3 -20t-6 -17t-10 -17.5t-11 -14.5l-12 -16q-10 -12 -12 -15q-21 -27 -30.5 -49.5t-4.5 -49.5q6 -35 34.5 -57
t67 -25t70.5 13.5t44 48.5q4 11 15 7t7 -15q-15 -42 -54.5 -61.5t-84.5 -16.5q-45 4 -80 30.5t-43 71.5q-6 34 5.5 61.5t35.5 56.5q2 4 10 13.5t10 12.5l8 12q6 7 8.5 11.5t5.5 11.5t4.5 12.5t1.5 11.5q1 45 -30 61q-22 12 -37 15h-1h-11h-1h-1q-2 0 -4 1t-4 3q-4 5 -3 11
q1 4 5 7q1 0 2 1l3 1h1h5q5 1 9 0q35 2 60 14q35 16 41 48q6 31 -6.5 54t-42.5 52q-2 1 -5 5q-20 19 -30.5 31.5t-20 35.5t-6.5 47q4 30 20.5 55t40.5 40q57 34 113 -3q10 -7 3 -17t-17 -3z" />
    <glyph glyph-name="bar" unicode="|" horiz-adv-x="432" 
d="M375 620h53q12 0 12 -12t-12 -12h-9q5 -164 -84 -239q-86 -72 -242 -49q-4 -5 -7 -10q-7 -10 -17 -3t-3 17q11 15 29 54q5 11 16 6t6 -16q-8 -19 -12 -25q140 -19 215 44q80 67 75 221h-20q-12 0 -12 12t12 12zM211 431q12 0 12 -12t-12 -12t-12 12t12 12zM297 492
q12 0 12 -12t-12 -12t-12 12t12 12z" />
    <glyph glyph-name="braceright" unicode="}" horiz-adv-x="340" 
d="M127 -35q43 -31 87.5 -9t54.5 74q4 19 -3 38t-15.5 30t-29.5 34l-14 18l-14 18q-8 11 -12 20.5t-7.5 21.5t-3 25.5t3.5 27.5q12 45 61 62q11 4 24 6l-3 2q-42 26 -37 85q2 24 22 50q4 5 38 42q22 26 33.5 49t9.5 51q-3 37 -29.5 60.5t-64.5 28.5q-37 5 -71 -9t-49 -45
q-6 -11 -16.5 -5.5t-5.5 15.5q20 39 61 56.5t85 11.5q45 -6 77.5 -35t36.5 -76q3 -35 -11 -62.5t-39 -55.5q-33 -37 -36 -41q-16 -20 -17 -37q-4 -44 25 -63q21 -13 37 -17q2 -1 8 -1h3h1h1h2l4 -2q5 -4 5 -11q0 -6 -5 -9l-4 -2h-1h-1h-1h-1h-2h-1h-1q-44 0 -70 -9
q-36 -12 -44 -45q-8 -30 3 -54t38 -55q2 -1 5 -5q18 -21 27.5 -34t17.5 -36.5t4 -46.5q-8 -40 -37 -69t-66.5 -33.5t-76.5 21.5q-10 8 -2.5 17.5t16.5 2.5z" />
    <glyph glyph-name="asciitilde" unicode="~" horiz-adv-x="325" 
d="M22 618q30 59 69 65q23 4 70 -17q43 -18 68 -17q40 2 81 47q8 9 17 1t1 -17q-48 -52 -98 -55q-30 -2 -79 19q-42 18 -57 15q-26 -4 -50 -51q-6 -11 -16.5 -5.5t-5.5 15.5z" />
    <glyph glyph-name="exclamdown" unicode="&#xa1;" horiz-adv-x="67" 
d="M24 8q1 47 12 188t9.5 237t-22.5 182q-2 12 9.5 14.5t14.5 -8.5q20 -88 22 -186.5t-9 -241.5t-12 -185q0 -5 -3.5 -8.5t-8.5 -3.5t-8.5 3.5t-3.5 8.5zM26 712q12 0 12 -12t-12 -12t-12 12t12 12z" />
    <glyph glyph-name="cent" unicode="&#xa2;" horiz-adv-x="299" 
d="M113 18q3 77 -1 195q-1 20 -2.5 63t-2.5 66h-1q-57 -45 -73 -148q-12 -76 12 -121.5t68 -54.5zM189 279q3 41 -23 65q-16 14 -35 10q1 -26 2.5 -74t2.5 -66q4 -120 1 -199q43 0 85 31q41 31 68 89q5 11 16 6t6 -16q-29 -64 -77 -99t-99 -35q0 -12 -1 -23q0 -6 -1.5 -32.5
t-3 -44.5t-5.5 -34q-3 -12 -15 -9t-9 15q4 15 6 31.5t2.5 42t1.5 33.5q1 11 1 23q-56 11 -86 65t-17 140q18 112 83 162q7 6 14 10q-1 49 -1 88q0 12 12 12t12 -12q0 -36 1 -80q29 5 52 -16q16 -15 24.5 -38t6.5 -47q0 -5 -4 -8t-9 -3t-8 4t-3 9z" />
    <glyph glyph-name="sterling" unicode="&#xa3;" horiz-adv-x="409" 
d="M10 316q29 6 83 3q7 83 12 123q17 136 53 195q17 28 43 43q27 14 55 12q29 -1 52.5 -19t32.5 -52q7 -20 3 -52q-5 -41 -5 -46q0 -12 -12 -12t-12 12q0 6 5 49q3 26 -1 43q-8 25 -25.5 38.5t-39 14.5t-42 -10t-34.5 -33q-33 -54 -50 -186q-5 -40 -11 -122q50 -2 80 15
q11 5 16.5 -5.5t-4.5 -16.5q-37 -19 -94 -17q-3 -36 -6 -57q-11 -86 -20 -141q-5 -26 -12 -54q4 1 11 2q26 5 60 -7q4 -1 26 -9q15 -6 25 -8q50 -15 108 -1t84 55q6 11 16.5 4.5t3.5 -16.5q-21 -34 -60 -53t-79 -19.5t-79 6.5q-9 2 -27 9q-22 8 -26 9q-28 10 -48 6
q-12 -2 -17 -5q-1 -4 -2 -7q-4 -8 -13 -8q-6 0 -10 5q-2 3 -3 7v7q1 5 4 18q9 36 14 63q10 55 20 139q3 21 6 57q-50 3 -75 -3q-12 -2 -14.5 9.5t8.5 14.5z" />
    <glyph glyph-name="currency" unicode="&#xa4;" horiz-adv-x="390" 
d="M245 431q-11 -1 -23 -7t-19 -12l-21 -17q-33 -28 -51 -73.5t-15 -91.5q3 -48 30 -80t77 -38q48 -6 90 35q41 41 52 102q12 63 -17 112q-32 50 -103 70zM332 420q21 14 45 44q7 10 16.5 2.5t1.5 -16.5q-25 -33 -48 -49q12 -13 21 -28q35 -56 21 -129q-11 -54 -45 -97
q30 -28 38 -37q9 -8 0.5 -16.5t-16.5 0.5l-38 35q-49 -48 -107 -41q-52 6 -85 37q-10 -9 -41 -30q-10 -7 -17 3t3 17q31 20 39 29q-25 35 -28 84q-3 44 12 89t44 78l-43 39q-9 8 -1 17t17 1l44 -40l1 1q36 30 56 37q3 10 14 8q5 -2 11 -3h2q4 0 7 -3q43 -12 73 -35q1 2 3 3z
" />
    <glyph glyph-name="yen" unicode="&#xa5;" horiz-adv-x="504" 
d="M283 258q-17 -3 -35 -7q2 -4 4 -7q3 -7 6 -10l2 -2q4 -1 10 7q6 7 13 19zM355 442q-81 -13 -161 -39l19 -60q18 -51 23 -64l2 -6q30 7 58 12q2 7 5 15l4 12q3 6 3 7q22 51 47 123zM171 395q-43 -15 -85 -34q-11 -5 -16 6t6 16q43 19 88 35l-11 38q-9 30 -12.5 40
t-11.5 35.5t-13 39.5l-13 35q-8 22 -16 40l-15 34q-5 11 6 16t16 -6l15 -34q8 -18 16 -40.5t13 -35t14 -41t11 -35.5t12.5 -41t11.5 -37q88 28 177 41l13 36q45 131 67 186q4 12 15.5 7.5t6.5 -15.5q-22 -55 -67 -186l-8 -24q54 6 107 6q12 0 12 -12t-12 -12q-57 0 -116 -8
q-28 -80 -52 -136l-2 -5l-4 -12l-1 -2q76 12 149 12q12 0 12 -12t-12 -12q-78 0 -159 -14l-4 -7q-10 -22 -21 -34q-5 -6 -11 -10q0 -36 -1.5 -109t-1.5 -110q0 -12 -12 -12t-12 12q0 37 1.5 109t1.5 106q-7 2 -13 9q-4 5 -9 14q-4 6 -7 13q-53 -13 -119 -34
q-12 -4 -15.5 7.5t7.5 14.5q65 21 117 34l-1 3q-2 6 -22 65z" />
    <glyph glyph-name="brokenbar" unicode="&#xa6;" horiz-adv-x="201" 
d="M194 606q2 -25 2.5 -52t0 -66.5t-0.5 -52.5q0 -12 -12 -12t-12 12q0 14 0.5 52.5t0 65t-2.5 51.5q0 5 3 9t8 4t9 -3t4 -8zM202 141q0 -35 -1.5 -105.5t-1.5 -105.5q0 -12 -12 -12t-12 12q0 35 1.5 105.5t1.5 105.5q0 12 12 12t12 -12z" />
    <glyph glyph-name="section" unicode="&#xa7;" horiz-adv-x="278" 
d="M108 456q-31 11 -63 -22q-17 -18 -21.5 -38t7.5 -37q7 -10 23 -20q4 -2 16 -9q10 -6 16 -10q57 -39 77 -55q65 12 88 34q13 12 11 27q-3 21 -29 48q-17 18 -60 43q-58 34 -65 39zM217 537q14 44 -1.5 79t-47.5 49q-21 7 -41 6t-39 -18.5t-30 -49.5q-12 -39 4 -69
q13 -26 50 -52l6 -4q7 -3 13 -7q2 -1 3 -3q7 -5 16 -10l18 -11q11 -6 17 -9q46 -27 66 -48q31 -33 35 -61q3 -27 -19 -47q-24 -23 -80 -36q66 -59 84 -128q14 -57 -14 -88q-24 -27 -72 -28q-43 0 -87.5 19t-66.5 49q-7 10 3 17t17 -3q18 -25 57 -41.5t76 -16.5q38 1 55 20
q20 22 8 66q-17 68 -91 128q-7 1 -9 7q-20 16 -75 53q-5 3 -14 9q-12 7 -16 10q-21 12 -31 26q-17 29 -11 56t28 50q21 22 48 29q-24 21 -35 43q-21 39 -5 88q12 38 36 60q25 22 51.5 24t53.5 -8q41 -18 60.5 -61.5t1.5 -96.5q-3 -11 -14.5 -7.5t-7.5 15.5z" />
    <glyph glyph-name="dieresis" unicode="&#xa8;" horiz-adv-x="164" 
d="M35 664q12 0 12 -12t-12 -12t-12 12t12 12zM153 666q12 0 12 -12t-12 -12t-12 12t12 12z" />
    <glyph glyph-name="copyright" unicode="&#xa9;" horiz-adv-x="513" 
d="M211 711q-63 -20 -110 -120q-49 -106 -52 -238q-2 -139 52 -224q62 -95 181 -88q68 4 118 52.5t73 121.5t19 158q-2 63 -21 120.5t-52.5 105t-86.5 78t-119 34.5h-2zM229 734q69 -8 124 -41.5t89 -84t53 -110.5t21 -124q4 -88 -20 -166t-79.5 -132t-132.5 -59
q-134 -8 -203 99q-58 91 -56 238q3 136 55 247q56 120 138 137q7 1 11 -4zM290 446q0 42 -6 67q-5 20 -13 25q-5 4 -13 0q-10 -4 -23 -20q-28 -36 -47 -100q-18 -62 -10 -123q7 -56 30 -78q17 -17 42 -9t48.5 40t31.5 75q2 12 14 10t10 -14q-9 -49 -36.5 -86t-60.5 -48
q-38 -12 -66 15q-29 28 -37 93q-8 64 11.5 132t50.5 108q16 20 32 27q21 10 37 -2q15 -11 22 -40q7 -27 7 -72q0 -12 -12 -12t-12 12z" />
    <glyph glyph-name="ordfeminine" unicode="&#xaa;" horiz-adv-x="282" 
d="M216 664q-18 11 -46 -10q-31 -23 -62 -76q-30 -49 -43 -96q-6 -23 -6 -39q0 -14 4 -19q6 -8 13 -8q8 -1 18 5q21 12 48 48q23 30 42 65t22 49q7 24 7 25v5q0 7 1 18q0 3 0.5 12t1.5 13v8zM220 552q-25 -52 -59 -97q-29 -40 -55 -55q-17 -9 -32 -8q-17 1 -29 16
q-10 12 -10 35q0 19 7 45q14 50 45 103q34 56 69 82q45 35 79 7q6 -4 5 -10l1 -3v-1v-2q1 -16 1.5 -65.5t2.5 -73t11 -59t25 -61.5q7 -10 -3.5 -16.5t-16.5 4.5q-36 57 -41 159z" />
    <glyph glyph-name="guillemotleft" unicode="&#xab;" horiz-adv-x="346" 
d="M344 433q-27 -23 -92 -91q-32 -34 -51 -57q-11 -12 -17 -20q-2 -4 -4 -6v-1q0 -10 17 -32q16 -22 46 -53q32 -33 94 -88q9 -8 1 -17t-17 -1q-62 55 -95 89q-31 32 -48 55q-23 31 -22 49q0 4 3 10l6 9l17 22q20 23 53 58q65 68 93 92q9 8 17 -1t-1 -17zM198 434
q-27 -23 -92 -91q-32 -34 -51 -57q-11 -12 -17 -20q-2 -4 -4 -6v-1q0 -10 17 -32q16 -22 46 -53q32 -33 94 -88q9 -8 1 -17t-17 -1q-62 55 -95 89q-31 32 -48 55q-23 31 -22 49q0 4 3 10l6 9l17 22q20 23 53 58q65 68 93 92q9 8 17 -1t-1 -17z" />
    <glyph glyph-name="logicalnot" unicode="&#xac;" horiz-adv-x="358" 
d="M50 317q7 1 30 5l60 11l64 11l92 15q20 2 32 3h11q2 0 5 -1q4 -1 7 -4q4 -5 6 -14q1 -6 1 -15q1 -16 1 -41q0 -17 -0.5 -42.5t-0.5 -29.5q0 -12 -12 -12t-12 12q0 4 0.5 29.5t0.5 42.5q0 24 -1 39q0 8 -1 12h-4l-30 -3q-32 -4 -91 -15l-64 -11l-62 -11q-22 -4 -30 -5
q-5 0 -8.5 3t-4 8t2.5 8.5t8 4.5z" />
    <glyph glyph-name="registered" unicode="&#xae;" horiz-adv-x="513" 
d="M211 711q-63 -20 -110 -120q-49 -106 -52 -238q-2 -139 52 -224q62 -95 181 -88q68 4 118 52.5t73 121.5t19 158q-2 63 -21 120.5t-52.5 105t-86.5 78t-119 34.5h-2zM229 734q69 -8 124 -41.5t89 -84t53 -110.5t21 -124q4 -88 -20 -166t-79.5 -132t-132.5 -59
q-134 -8 -203 99q-58 91 -56 238q3 136 55 247q56 120 138 137q7 1 11 -4zM220 321q47 -16 154 -66q11 -5 6 -16t-16 -6q-105 49 -155 65q-1 -25 -3 -53q0 -5 -4 -8t-9 -3t-8 4t-3 9q2 29 4 54q-3 1 -5 3q-4 4 -5 9q0 4 3 9q2 3 6 5l2 2q4 81 2 148h-1q-10 6 -5 17q3 4 6 7
q-1 7 -1 14q0 5 3 9t8 4q9 0 12 -7q3 2 7 5q23 14 51 23q30 10 51 8q30 -1 37 -24q13 -47 -29 -107q-27 -38 -73 -78l-24 -20q-3 -3 -5 -4q-3 -2 -6 -3zM214 345l-1 -1zM214 345l2 1l23 20q44 39 69 74q36 50 25 87q-1 6 -14 6q-17 1 -43 -7q-25 -8 -45 -21q-11 -6 -18 -13
q2 -67 -1 -148q1 0 2 1z" />
    <glyph glyph-name="macron" unicode="&#xaf;" horiz-adv-x="365" 
d="M27 666q38 2 83.5 6t77.5 8l86 10l79 10q12 1 13 -11t-11 -13l-79 -10l-86 -10q-32 -4 -78 -8t-83 -6q-5 0 -9 3.5t-4 8t3.5 8.5t7.5 4z" />
    <glyph glyph-name="degree" unicode="&#xb0;" horiz-adv-x="217" 
d="M136 706q0 2 1 4q5 11 16 6q33 -14 52 -45.5t19.5 -67t-7.5 -71.5q-16 -57 -54.5 -94t-88.5 -29q-42 7 -49 59q-6 40 10 97q15 53 40 93q30 46 58 48h3zM135 682q-17 -1 -39 -37q-24 -37 -38 -87q-15 -51 -9 -86q5 -35 29 -39q38 -7 70 23.5t46 81.5q14 47 1.5 92
t-49.5 63q-1 -10 -11 -11z" />
    <glyph glyph-name="plusminus" unicode="&#xb1;" horiz-adv-x="343" 
d="M176 385q-59 -1 -95 -1q-12 0 -12 12t12 12q36 0 93 1l-4 37q-3 29 -4 44q0 5 3 9t8 4t9 -3t4 -8q1 -14 4 -42t4 -40q71 1 108 1q12 0 12 -12t-12 -12q-37 0 -106 -1q3 -61 -6 -99q-3 -12 -15 -9t-9 15q9 36 6 92zM60 191q45 0 136 3t136 3q12 0 12 -12t-12 -12
q-45 0 -136 -3t-136 -3q-12 0 -12 12t12 12z" />
    <glyph glyph-name="uni00B2" unicode="&#xb2;" horiz-adv-x="267" 
d="M68 623q18 19 53.5 39.5t67.5 28.5q42 10 63 -7q25 -21 12 -76q-22 -89 -136 -211l-37 -41l-13 -14h11q21 0 60 4q1 0 64 6q34 3 44 3q12 0 12 -12t-12 -12q-9 0 -41 -3q-64 -6 -65 -6q-39 -4 -61 -4h-23q-12 1 -17.5 5.5t-4.5 11.5q0 2 1 4l2 4q2 3 6 8l19 21l37 41
q109 117 130 201q10 40 -4 51q-11 10 -41 3q-29 -8 -62 -27t-49 -34q-8 -9 -16.5 -0.5t0.5 16.5z" />
    <glyph glyph-name="uni00B3" unicode="&#xb3;" horiz-adv-x="286" 
d="M59 607q36 38 85 68q31 19 55 24q33 7 52 -10q17 -16 5 -46q-7 -20 -29 -48q-22 -29 -52 -59q37 7 65 -4q26 -9 40.5 -29t14.5 -45q1 -55 -56.5 -99.5t-162.5 -52.5q-5 0 -9 3t-4 8t3 9t8 4q99 7 148.5 46t48.5 81q-1 39 -39 53q-46 16 -116 -19q-1 0 -2 -0.5t-2 -0.5
q-4 -1 -7 1q-7 3 -7 10q0 3 1 6q1 2 2.5 3t3.5 4q5 3 8 6q9 6 13 8l6 2q4 3 14 12q31 27 62 68q19 25 26 42q6 15 1 19q-10 9 -31 5q-20 -5 -48 -22q-46 -28 -79 -63q-8 -9 -17 -1t-1 17z" />
    <glyph glyph-name="acute" unicode="&#xb4;" horiz-adv-x="143" 
d="M139 736q-37 -26 -62 -64.5t-25 -77.5q0 -12 -12 -12t-12 12q0 46 28.5 89.5t68.5 72.5q10 7 17 -3t-3 -17z" />
    <glyph glyph-name="uni00B5" unicode="&#xb5;" horiz-adv-x="337" 
d="M72 98q15 -46 35.5 -65t43.5 -17q50 4 101 79q31 45 48 110q16 65 16 127t-8 123q-2 12 10 14t14 -10q8 -62 8 -125t-16.5 -130.5t-47.5 -116.5q11 -11 21.5 -25.5t22 -32t17.5 -25.5q7 -10 -3 -17t-17 3q-3 5 -22.5 34t-32.5 43q-54 -71 -109 -75t-88 60
q-6 -49 -16 -105q-2 -12 -14 -10t-10 14q50 300 50 549q0 12 12 12t12 -12q0 -182 -28 -400q1 -1 1 -2z" />
    <glyph glyph-name="paragraph" unicode="&#xb6;" horiz-adv-x="407" 
d="M302 339q44 -21 93 -37q0 118 -7 260q-24 43 -81 70q0 -139 -5 -293zM278 350q5 153 5 292q-21 8 -42 11q-48 8 -85 -6t-50 -49q-40 -109 97 -204q33 -23 75 -44zM412 570q8 -152 7 -276q14 -4 27 -7q12 -3 9 -15t-15 -9l-21 6q-1 -121 -10 -227q0 -5 -4 -8t-9 -3t-8 4
t-3 9q9 108 10 233q-49 16 -94 36q-5 -134 -13 -286q0 -5 -4 -8t-9 -3t-8 4t-3 9q9 157 13 295q-49 24 -88 50q-152 106 -105 232q17 46 62 63t99 8q24 -4 48 -13h2q6 0 9 -4q70 -29 102 -81q6 -3 6 -9z" />
    <glyph glyph-name="periodcentered" unicode="&#xb7;" horiz-adv-x="76" 
d="M65 408q12 0 12 -12t-12 -12t-12 12t12 12z" />
    <glyph glyph-name="cedilla" unicode="&#xb8;" horiz-adv-x="59" 
d="M66 37q5 -42 -20.5 -74.5t-64.5 -54.5q-11 -5 -16.5 5.5t4.5 16.5q80 43 73 105q0 5 3 8.5t8 4t8.5 -2.5t4.5 -8z" />
    <glyph glyph-name="uni00B9" unicode="&#xb9;" horiz-adv-x="178" 
d="M179 681q-17 -254 -17 -338q0 -12 -12 -12t-12 12q0 84 17 340q0 5 4 8t9 3t8 -4t3 -9z" />
    <glyph glyph-name="ordmasculine" unicode="&#xba;" horiz-adv-x="279" 
d="M198 664q0 2 1 4q5 11 16 6q33 -14 52 -45.5t19.5 -67t-7.5 -71.5q-16 -57 -54.5 -94t-88.5 -29q-42 7 -49 59q-6 40 10 97q15 53 40 93q30 46 58 48h3zM197 640q-17 -1 -39 -37q-24 -37 -38 -87q-15 -51 -9 -86q5 -35 29 -39q38 -7 70 23.5t46 81.5q14 47 1.5 92
t-49.5 63q-1 -10 -11 -11z" />
    <glyph glyph-name="guillemotright" unicode="&#xbb;" horiz-adv-x="343" 
d="M175 81q28 29 85 97q31 36 48 60q10 13 15 21l4 8q0 9 -19 31q-17 21 -49 50q-49 44 -99 81q-10 8 -2.5 17.5t16.5 2.5q52 -39 101 -83q33 -30 51 -52q25 -29 25 -47q0 -7 -7 -20l-16 -23q-18 -25 -49 -61q-58 -69 -88 -98q-8 -9 -16.5 -0.5t0.5 16.5zM43 77
q22 26 78 103l43 64l14 22q2 5 3 7v1q-2 10 -21 29q-20 19 -54 45q-5 4 -106 75q-10 7 -3 17t17 3l107 -75q35 -28 56 -48q26 -27 28 -45q0 -4 -2 -10q-1 -4 -4 -10l-14 -24l-45 -65q-56 -78 -79 -105q-8 -9 -17 -1t-1 17z" />
    <glyph glyph-name="onequarter" unicode="&#xbc;" horiz-adv-x="671" 
d="M548 159q1 12 2 38q3 101 -3 151q-48 -78 -129 -185q7 -1 16 -2q22 -1 75 -1q4 -1 18 -1h21zM310 668q0 -13 4.5 -99.5t4.5 -132.5q0 -12 -12 -12t-12 12q0 46 -4.5 132t-4.5 100q0 5 3.5 8.5t8.5 3.5t8.5 -3.5t3.5 -8.5zM175 21q14 26 40 80q26 55 41 82q99 178 166 284
q75 118 165 223q8 9 17 1t1 -17q-88 -103 -163 -220q-69 -109 -166 -283q-13 -24 -39 -81q-25 -52 -42 -81q-6 -10 -16 -4t-4 16zM566 385q12 -62 8 -188q-1 -26 -2 -38q69 -1 96 -6q12 -3 9.5 -14.5t-13.5 -9.5q-26 5 -92 6q-1 -72 8 -122q2 -12 -10 -14t-14 10
q-9 52 -8 126h-22q-14 0 -17 1q-54 0 -77 1q-16 2 -26 4q-6 1 -10 3q-7 4 -9 11q-2 10 7 17q2 3 3 3q94 124 145 211q2 7 10 9q11 2 14 -10z" />
    <glyph glyph-name="onehalf" unicode="&#xbd;" horiz-adv-x="601" 
d="M310 668q0 -13 4.5 -99.5t4.5 -132.5q0 -12 -12 -12t-12 12q0 46 -4.5 132t-4.5 100q0 5 3.5 8.5t8.5 3.5t8.5 -3.5t3.5 -8.5zM175 21q14 26 40 80q26 55 41 82q99 178 166 284q75 118 165 223q8 9 17 1t1 -17q-88 -103 -163 -220q-69 -109 -166 -283q-13 -24 -39 -81
q-25 -52 -42 -81q-6 -10 -16 -4t-4 16zM407 281q5 18 23.5 36.5t39.5 28.5q25 13 44 10q25 -4 33 -32q13 -48 -23 -112q-20 -33 -66 -88q-4 -5 -20 -22l-22 -25l-17 -20h4q14 -1 38 -1q16 1 39.5 2t26.5 1h70q12 0 12 -12t-12 -12h-70q-3 0 -26.5 -1t-38.5 -2q-25 0 -40 1
q-10 0 -16 1q-9 2 -13 7q-5 5 -4 12l2 6q2 4 7 10q6 8 20 24l22 25q16 17 20 22q45 53 63 84q31 55 20 94q-3 12 -13 14q-11 2 -29 -7t-33 -24t-19 -28q-3 -11 -14.5 -7.5t-7.5 15.5z" />
    <glyph glyph-name="threequarters" unicode="&#xbe;" horiz-adv-x="671" 
d="M544 159q1 12 2 38q3 101 -3 151q-48 -78 -129 -185q7 -1 16 -2q22 -1 75 -1q4 -1 18 -1h21zM171 21q14 26 40 80q26 55 41 82q99 178 166 284q75 118 165 223q8 9 17 1t1 -17q-88 -103 -163 -220q-69 -109 -166 -283q-13 -24 -39 -81q-25 -52 -42 -81q-6 -10 -16 -4
t-4 16zM562 385q12 -62 8 -188q-1 -26 -2 -38q69 -1 96 -6q12 -3 9.5 -14.5t-13.5 -9.5q-26 5 -92 6q-1 -72 8 -122q2 -12 -10 -14t-14 10q-9 52 -8 126h-22q-14 0 -17 1q-54 0 -77 1q-16 2 -26 4q-6 1 -10 3q-7 4 -9 11q-2 10 7 17q2 3 3 3q94 124 145 211q2 7 10 9
q11 2 14 -10zM173 638q8 14 29.5 30t45.5 24q28 11 47 6q27 -6 33 -35q6 -30 -6 -53.5t-37 -46.5l-4 -3q10 0 19 -1q35 -6 52 -30q15 -21 14 -52q-1 -26 -14 -52.5t-33 -43.5t-48 -27.5t-43.5 -13.5t-50.5 -8q-12 -2 -14 10t10 14q34 5 50 8t39.5 12t40.5 23q16 14 27 36
t12 43q1 22 -10 37q-11 16 -36 20q-11 2 -31 -3q-25 -7 -38 -6q-2 0 -4 1q-4 1 -7 5q-3 6 0 12q1 2 3 4t7 4l6 3q3 2 4 2q24 16 33 24q22 20 31 37.5t4 40.5q-2 13 -14 16q-13 3 -34 -5q-20 -8 -38 -21t-23 -23q-6 -10 -16.5 -4.5t-5.5 16.5z" />
    <glyph glyph-name="questiondown" unicode="&#xbf;" horiz-adv-x="372" 
d="M390 99q-22 -45 -78 -75q-56 -31 -120 -37q-67 -7 -120.5 17.5t-70.5 84.5q-18 65 17 112q26 35 89 65q20 9 58 24l51 21q59 26 81 51q27 32 25 92q-1 21 -6 53q-8 51 -8 53q-1 11 10.5 12.5t13.5 -10.5q0 -2 8 -51q5 -34 6 -56q3 -70 -31 -109q-25 -29 -89 -57l-51 -20
q-38 -15 -58 -25q-58 -27 -80 -57q-28 -37 -12 -92q13 -48 58.5 -69.5t106.5 -14.5q59 6 109 33.5t69 64.5q6 11 16.5 5.5t5.5 -15.5zM316 698q12 0 12 -12t-12 -12t-12 12t12 12z" />
    <glyph glyph-name="Aacute" unicode="&#xc1;" horiz-adv-x="524" 
d="M449 653q-83 74 -169 18q-78 -49 -141 -186q-59 -129 -73 -260q-14 -135 28 -190q17 -21 45 -27q83 -18 162 108q43 69 96 209l17 45l20 52q9 23 16 44q9 27 14 58q1 13 2 24v1q0 1 1 3q0 1 1 2q1 2 3 4q5 3 11 1q3 -1 5 -2.5t2 -3.5v-1q1 -1 1 -2v-2v-1v-4q-1 -9 -1 -13
q-1 -6 -2 -13q-2 -19 -6.5 -58t-6.5 -51q-11 -95 -12 -160q-3 -191 74 -260q9 -8 1 -17t-17 -1q-85 77 -82 279q1 60 10 143l-29 -75q-54 -143 -98 -214q-87 -140 -186 -119q-37 8 -59 37q-49 62 -34 207q15 136 75 267q66 142 150 196q102 66 198 -20q9 -8 1 -17t-17 -1z
M272 742l28 22q24 18 33.5 24.5t29 18.5t36.5 19q11 5 16 -6t-6 -16q-16 -7 -34 -18t-27.5 -17.5t-32.5 -24t-29 -22.5q-9 -7 -16.5 2.5t2.5 17.5z" />
    <glyph glyph-name="Acircumflex" unicode="&#xc2;" horiz-adv-x="524" 
d="M449 653q-83 74 -169 18q-78 -49 -141 -186q-59 -129 -73 -260q-14 -135 28 -190q17 -21 45 -27q83 -18 162 108q43 69 96 209l17 45l20 52q9 23 16 44q9 27 14 58q1 13 2 24v1q0 1 1 3q0 1 1 2q1 2 3 4q5 3 11 1q3 -1 5 -2.5t2 -3.5v-1q1 -1 1 -2v-2v-1v-4q-1 -9 -1 -13
q-1 -6 -2 -13q-2 -19 -6.5 -58t-6.5 -51q-11 -95 -12 -160q-3 -191 74 -260q9 -8 1 -17t-17 -1q-85 77 -82 279q1 60 10 143l-29 -75q-54 -143 -98 -214q-87 -140 -186 -119q-37 8 -59 37q-49 62 -34 207q15 136 75 267q66 142 150 196q102 66 198 -20q9 -8 1 -17t-17 -1z
M257 740q26 27 63 70l17 17q10 9 19 7q9 -1 17 -11q2 -3 13 -17q24 -34 52 -63q9 -8 0.5 -16.5t-16.5 0.5q-31 30 -56 65q-10 14 -12 16q0 1 -1 1h-1q-4 -4 -14 -15q-37 -43 -65 -70q-8 -9 -16.5 -0.5t0.5 16.5z" />
    <glyph glyph-name="Atilde" unicode="&#xc3;" horiz-adv-x="524" 
d="M449 653q-83 74 -169 18q-78 -49 -141 -186q-59 -129 -73 -260q-14 -135 28 -190q17 -21 45 -27q83 -18 162 108q43 69 96 209l17 45l20 52q9 23 16 44q9 27 14 58q1 13 2 24v1q0 1 1 3q0 1 1 2q1 2 3 4q5 3 11 1q3 -1 5 -2.5t2 -3.5v-1q1 -1 1 -2v-2v-1v-4q-1 -9 -1 -13
q-1 -6 -2 -13q-2 -19 -6.5 -58t-6.5 -51q-11 -95 -12 -160q-3 -191 74 -260q9 -8 1 -17t-17 -1q-85 77 -82 279q1 60 10 143l-29 -75q-54 -143 -98 -214q-87 -140 -186 -119q-37 8 -59 37q-49 62 -34 207q15 136 75 267q66 142 150 196q102 66 198 -20q9 -8 1 -17t-17 -1z
M245 750q21 37 41 46q18 9 40 -2q5 -3 15 -10l14 -8q14 -7 27 -3q6 1 16 10q3 3 9 8.5t9 8.5q9 8 17 -1t-1 -17q-3 -2 -8 -8q-7 -6 -10 -9q-14 -12 -26 -16q-21 -6 -44 6q-6 3 -16 9t-13 8q-11 6 -19 3q-13 -7 -31 -37q-6 -10 -16 -4t-4 16z" />
    <glyph glyph-name="Adieresis" unicode="&#xc4;" horiz-adv-x="524" 
d="M449 653q-83 74 -169 18q-78 -49 -141 -186q-59 -129 -73 -260q-14 -135 28 -190q17 -21 45 -27q83 -18 162 108q43 69 96 209l17 45l20 52q9 23 16 44q9 27 14 58q1 13 2 24v1q0 1 1 3q0 1 1 2q1 2 3 4q5 3 11 1q3 -1 5 -2.5t2 -3.5v-1q1 -1 1 -2v-2v-1v-4q-1 -9 -1 -13
q-1 -6 -2 -13q-2 -19 -6.5 -58t-6.5 -51q-11 -95 -12 -160q-3 -191 74 -260q9 -8 1 -17t-17 -1q-85 77 -82 279q1 60 10 143l-29 -75q-54 -143 -98 -214q-87 -140 -186 -119q-37 8 -59 37q-49 62 -34 207q15 136 75 267q66 142 150 196q102 66 198 -20q9 -8 1 -17t-17 -1z
M294 770q12 0 12 -12t-12 -12t-12 12t12 12zM379 773q12 0 12 -12t-12 -12t-12 12t12 12z" />
    <glyph glyph-name="Aring" unicode="&#xc5;" horiz-adv-x="524" 
d="M309 756q24 -5 47.5 4.5t38.5 26.5q14 17 12 31q-1 13 -21 19q-12 3 -34 -4q-22 -8 -40 -22q-17 -14 -20 -27q-3 -11 11 -20q5 -3 6 -8zM288 746q-25 17 -20 43q5 21 29 41q21 17 48 26q29 9 49 3q34 -10 37 -39q3 -24 -18 -48q-20 -23 -52 -35t-64 -3q-9 3 -9 12z
M449 653q-83 74 -169 18q-78 -49 -141 -186q-59 -129 -73 -260q-14 -135 28 -190q17 -21 45 -27q83 -18 162 108q43 69 96 209l17 45l20 52q9 23 16 44q9 27 14 58q1 13 2 24v1q0 1 1 3q0 1 1 2q1 2 3 4q5 3 11 1q3 -1 5 -2.5t2 -3.5v-1q1 -1 1 -2v-2v-1v-4q-1 -9 -1 -13
q-1 -6 -2 -13q-2 -19 -6.5 -58t-6.5 -51q-11 -95 -12 -160q-3 -191 74 -260q9 -8 1 -17t-17 -1q-85 77 -82 279q1 60 10 143l-29 -75q-54 -143 -98 -214q-87 -140 -186 -119q-37 8 -59 37q-49 62 -34 207q15 136 75 267q66 142 150 196q102 66 198 -20q9 -8 1 -17t-17 -1z
" />
    <glyph glyph-name="AE" unicode="&#xc6;" horiz-adv-x="759" 
d="M463 565q94 49 223 103q11 5 16 -6t-6 -16q-119 -50 -206 -95v-1v-2v-1v-4q-1 -9 -1 -13q-1 -6 -2 -13q-2 -19 -6.5 -58t-6.5 -51q-7 -65 -10 -113l55 12l62 13q21 5 54.5 9t61.5 4q12 0 12 -12t-12 -12q-27 0 -60 -4t-55.5 -8.5t-61.5 -13.5t-57 -12q-1 -12 -1 -23
q-3 -186 70 -256q20 3 70 12.5t88.5 15t72.5 5.5q12 0 12 -12t-12 -12q-34 0 -72 -5.5t-87 -15t-73 -13.5h-3q-4 0 -8 3q-85 77 -82 279q1 60 10 143l-29 -75q-54 -143 -98 -214q-87 -140 -186 -119q-37 8 -59 37q-49 62 -34 207q15 136 75 267q66 142 150 196
q102 66 198 -20q9 -8 1 -17t-17 -1q-83 74 -169 18q-78 -49 -141 -186q-59 -129 -73 -260q-14 -135 28 -190q17 -21 45 -27q83 -18 162 108q43 69 96 209l17 45l20 52q9 23 16 44q9 27 14 58q1 10 2 19q-5 1 -8 5q-5 11 5 17z" />
    <glyph glyph-name="Ccedilla" unicode="&#xc7;" horiz-adv-x="405" 
d="M147 -32q-17 -30 -42 -53q-9 -8 -17 1t1 17q20 18 33 40q-11 3 -22 9q-53 27 -74 105.5t-5 189.5q36 240 171 374q34 35 73.5 50.5t72.5 7.5q36 -8 53.5 -42t10.5 -87q-2 -12 -13.5 -10.5t-10.5 12.5q6 47 -7.5 72.5t-38.5 31.5t-58.5 -7t-65.5 -44q-128 -129 -163 -362
q-16 -105 3.5 -176t62.5 -94q42 -23 102 9q60 31 125 123q47 67 60 112q4 12 15.5 8.5t8.5 -14.5q-15 -50 -64 -120q-53 -76 -107.5 -114.5t-102.5 -37.5z" />
    <glyph glyph-name="Egrave" unicode="&#xc8;" horiz-adv-x="418" 
d="M274 458q-4 3 -13 2q-12 0 -32 -8q-17 -7 -36 -19q32 6 57 14q17 6 24 11zM281 651q-26 27 -62 25.5t-78 -27.5q-40 -25 -68.5 -61t-32.5 -67q-7 -56 39 -78q26 -13 66 -13q9 7 19 14q27 18 56 30q23 10 40 10q25 2 37 -15q6 -9 2 -19q-3 -6 -11 -11q-10 -8 -30 -14
q-34 -12 -72 -17q-17 -2 -33 -2q-63 -54 -99.5 -133t-26.5 -157q8 -68 67 -91q52 -21 129 -4q73 17 128 56q54 40 54 76q0 12 12 12t12 -12q0 -49 -64 -95q-59 -43 -136 -60q-85 -19 -144 5q-72 28 -82 111q-10 78 23 156q33 80 93 137q-29 4 -51 14q-61 30 -52 104
q5 37 37 77.5t76 66.5q29 19 58.5 27t60.5 2q30 -7 51 -31q8 -9 -1 -17t-17 1zM166 785q17 -9 83 -39q11 -5 6 -16t-16 -6q-66 30 -85 41q-10 5 -4.5 15.5t16.5 4.5z" />
    <glyph glyph-name="Eacute" unicode="&#xc9;" horiz-adv-x="418" 
d="M274 458q-4 3 -13 2q-12 0 -32 -8q-17 -7 -36 -19q32 6 57 14q17 6 24 11zM281 651q-26 27 -62 25.5t-78 -27.5q-40 -25 -68.5 -61t-32.5 -67q-7 -56 39 -78q26 -13 66 -13q9 7 19 14q27 18 56 30q23 10 40 10q25 2 37 -15q6 -9 2 -19q-3 -6 -11 -11q-10 -8 -30 -14
q-34 -12 -72 -17q-17 -2 -33 -2q-63 -54 -99.5 -133t-26.5 -157q8 -68 67 -91q52 -21 129 -4q73 17 128 56q54 40 54 76q0 12 12 12t12 -12q0 -49 -64 -95q-59 -43 -136 -60q-85 -19 -144 5q-72 28 -82 111q-10 78 23 156q33 80 93 137q-29 4 -51 14q-61 30 -52 104
q5 37 37 77.5t76 66.5q29 19 58.5 27t60.5 2q30 -7 51 -31q8 -9 -1 -17t-17 1zM138 740q14 10 35 29q26 23 36 30q9 8 16.5 -1.5t-2.5 -16.5l-34 -30q-22 -20 -37 -31q-10 -7 -17 3t3 17z" />
    <glyph glyph-name="Ecircumflex" unicode="&#xca;" horiz-adv-x="418" 
d="M274 458q-4 3 -13 2q-12 0 -32 -8q-17 -7 -36 -19q32 6 57 14q17 6 24 11zM281 651q-26 27 -62 25.5t-78 -27.5q-40 -25 -68.5 -61t-32.5 -67q-7 -56 39 -78q26 -13 66 -13q9 7 19 14q27 18 56 30q23 10 40 10q25 2 37 -15q6 -9 2 -19q-3 -6 -11 -11q-10 -8 -30 -14
q-34 -12 -72 -17q-17 -2 -33 -2q-63 -54 -99.5 -133t-26.5 -157q8 -68 67 -91q52 -21 129 -4q73 17 128 56q54 40 54 76q0 12 12 12t12 -12q0 -49 -64 -95q-59 -43 -136 -60q-85 -19 -144 5q-72 28 -82 111q-10 78 23 156q33 80 93 137q-29 4 -51 14q-61 30 -52 104
q5 37 37 77.5t76 66.5q29 19 58.5 27t60.5 2q30 -7 51 -31q8 -9 -1 -17t-17 1zM121 743q29 37 35 44q17 18 31.5 19t32.5 -15q7 -6 40 -40q9 -8 0.5 -16.5t-16.5 0.5q-34 33 -40 38q-11 10 -15.5 9.5t-14.5 -11.5q-6 -6 -33 -42q-8 -10 -17.5 -2.5t-2.5 16.5z" />
    <glyph glyph-name="Edieresis" unicode="&#xcb;" horiz-adv-x="418" 
d="M274 458q-4 3 -13 2q-12 0 -32 -8q-17 -7 -36 -19q32 6 57 14q17 6 24 11zM281 651q-26 27 -62 25.5t-78 -27.5q-40 -25 -68.5 -61t-32.5 -67q-7 -56 39 -78q26 -13 66 -13q9 7 19 14q27 18 56 30q23 10 40 10q25 2 37 -15q6 -9 2 -19q-3 -6 -11 -11q-10 -8 -30 -14
q-34 -12 -72 -17q-17 -2 -33 -2q-63 -54 -99.5 -133t-26.5 -157q8 -68 67 -91q52 -21 129 -4q73 17 128 56q54 40 54 76q0 12 12 12t12 -12q0 -49 -64 -95q-59 -43 -136 -60q-85 -19 -144 5q-72 28 -82 111q-10 78 23 156q33 80 93 137q-29 4 -51 14q-61 30 -52 104
q5 37 37 77.5t76 66.5q29 19 58.5 27t60.5 2q30 -7 51 -31q8 -9 -1 -17t-17 1zM160 773q12 0 12 -12t-12 -12t-12 12t12 12zM222 773q12 0 12 -12t-12 -12t-12 12t12 12z" />
    <glyph glyph-name="Igrave" unicode="&#xcc;" horiz-adv-x="293" 
d="M230 43q17 -26 33 -45q8 -9 -1 -17t-17 1q-16 19 -31 43q-44 -44 -88 -44q-48 -1 -90 47q-31 36 -52 88q-8 21 -12 37q-2 8 -3 14q0 8 3 13l3 4q1 0 1.5 0.5t2.5 1.5t7 4l22 10l70 32l40 19q-45 156 -48 277q-2 73 1 98q9 77 51 94q32 13 61 -5q22 -14 39 -46
q20 -36 39 -108q30 -120 33 -256q3 -176 -53 -249zM-6 167q0 -4 1 -8q4 -15 11 -34q20 -49 48 -81q35 -40 71 -39q37 0 76 41q-42 74 -76 182l-38 -18l-69 -31l-22 -11zM218 65l3 5q52 67 49 234q-3 133 -33 251q-17 69 -36 102q-14 27 -31 38q-18 11 -40 3q-28 -11 -35 -75
q-3 -23 -1 -95q3 -115 46 -267l56 25q11 5 16 -6t-6 -16l-59 -26q32 -102 71 -173zM126 810q33 -15 67 -35q10 -6 4 -16t-16 -4q-32 18 -65 33q-11 5 -6 16t16 6z" />
    <glyph glyph-name="Iacute" unicode="&#xcd;" horiz-adv-x="293" 
d="M230 43q17 -26 33 -45q8 -9 -1 -17t-17 1q-16 19 -31 43q-44 -44 -88 -44q-48 -1 -90 47q-31 36 -52 88q-8 21 -12 37q-2 8 -3 14q0 8 3 13l3 4q1 0 1.5 0.5t2.5 1.5t7 4l22 10l70 32l40 19q-45 156 -48 277q-2 73 1 98q9 77 51 94q32 13 61 -5q22 -14 39 -46
q20 -36 39 -108q30 -120 33 -256q3 -176 -53 -249zM-6 167q0 -4 1 -8q4 -15 11 -34q20 -49 48 -81q35 -40 71 -39q37 0 76 41q-42 74 -76 182l-38 -18l-69 -31l-22 -11zM218 65l3 5q52 67 49 234q-3 133 -33 251q-17 69 -36 102q-14 27 -31 38q-18 11 -40 3q-28 -11 -35 -75
q-3 -23 -1 -95q3 -115 46 -267l56 25q11 5 16 -6t-6 -16l-59 -26q32 -102 71 -173zM107 759q40 28 63 53q8 9 17 1t1 -17q-24 -27 -67 -57q-10 -7 -17 3t3 17z" />
    <glyph glyph-name="Icircumflex" unicode="&#xce;" horiz-adv-x="293" 
d="M230 43q17 -26 33 -45q8 -9 -1 -17t-17 1q-16 19 -31 43q-44 -44 -88 -44q-48 -1 -90 47q-31 36 -52 88q-8 21 -12 37q-2 8 -3 14q0 8 3 13l3 4q1 0 1.5 0.5t2.5 1.5t7 4l22 10l70 32l40 19q-45 156 -48 277q-2 73 1 98q9 77 51 94q32 13 61 -5q22 -14 39 -46
q20 -36 39 -108q30 -120 33 -256q3 -176 -53 -249zM-6 167q0 -4 1 -8q4 -15 11 -34q20 -49 48 -81q35 -40 71 -39q37 0 76 41q-42 74 -76 182l-38 -18l-69 -31l-22 -11zM218 65l3 5q52 67 49 234q-3 133 -33 251q-17 69 -36 102q-14 27 -31 38q-18 11 -40 3q-28 -11 -35 -75
q-3 -23 -1 -95q3 -115 46 -267l56 25q11 5 16 -6t-6 -16l-59 -26q32 -102 71 -173zM99 765q23 33 30 41q15 18 29 17q13 -1 29 -19q6 -7 33 -43q7 -9 -2.5 -16.5t-17.5 2.5q-26 34 -31 41q-9 11 -13 11q-2 -1 -9 -9q-4 -4 -28 -39q-7 -10 -17 -3t-3 17z" />
    <glyph glyph-name="Idieresis" unicode="&#xcf;" horiz-adv-x="293" 
d="M230 43q17 -26 33 -45q8 -9 -1 -17t-17 1q-16 19 -31 43q-44 -44 -88 -44q-48 -1 -90 47q-31 36 -52 88q-8 21 -12 37q-2 8 -3 14q0 8 3 13l3 4q1 0 1.5 0.5t2.5 1.5t7 4l22 10l70 32l40 19q-45 156 -48 277q-2 73 1 98q9 77 51 94q32 13 61 -5q22 -14 39 -46
q20 -36 39 -108q30 -120 33 -256q3 -176 -53 -249zM-6 167q0 -4 1 -8q4 -15 11 -34q20 -49 48 -81q35 -40 71 -39q37 0 76 41q-42 74 -76 182l-38 -18l-69 -31l-22 -11zM218 65l3 5q52 67 49 234q-3 133 -33 251q-17 69 -36 102q-14 27 -31 38q-18 11 -40 3q-28 -11 -35 -75
q-3 -23 -1 -95q3 -115 46 -267l56 25q11 5 16 -6t-6 -16l-59 -26q32 -102 71 -173zM125 789q12 0 12 -12t-12 -12t-12 12t12 12zM175 787q12 0 12 -12t-12 -12t-12 12t12 12z" />
    <glyph glyph-name="Eth" unicode="&#xd0;" horiz-adv-x="494" 
d="M110 41q2 -3 5 -6q14 -14 46 -21q48 -10 103 1.5t99 38.5q63 39 90 103t20 133t-42 141q-51 105 -139 171q-89 66 -183 59q0 -42 2 -294q73 11 123 11q12 0 12 -12t-12 -12q-49 0 -123 -11q1 -136 0 -232q19 19 46 32q60 29 127.5 33.5t130.5 -18.5q11 -4 7 -15t-15 -7
q-58 20 -121 16t-119 -31q-43 -20 -57 -50v-30zM92 684q108 14 207 -57.5t154 -184.5q36 -75 44 -149t-22 -145t-100 -114q-47 -30 -106.5 -42.5t-111.5 -1.5q-30 6 -48 18v-11q0 -5 -3.5 -8.5t-8.5 -3.5t-8.5 3.5t-3.5 8.5q0 19 1 39q-6 13 -3 27q1 7 3 13q2 108 1 263
l-51 -8q-12 -2 -14 10t10 14q9 1 55 8q-2 261 -2 301q-2 3 -3 6q-1 12 10 14z" />
    <glyph glyph-name="Ntilde" unicode="&#xd1;" horiz-adv-x="505" 
d="M33 23l-4 87l-4 88l-2 87q-1 66 1 87q1 38 5 106q0 2 0.5 7.5t0.5 10.5t1 10v11q1 1 1 2q0 2 2 4q3 5 9 5q7 1 11 -5l2 -4v-2v-2q2 -39 1 -111q0 -41 8 -99q8 -56 33 -114.5t63 -99.5q89 -98 201 -46q44 20 80 99q30 66 38 146q8 81 -5.5 159t-54.5 147t-103 108
q-11 6 -4.5 16.5t16.5 3.5q67 -42 111 -115.5t58 -155.5t5.5 -166.5t-39.5 -152.5q-40 -87 -92 -111q-46 -23 -89 -20t-77 21t-63 51q-69 76 -96 193q1 -22 10 -245q0 -4 -3.5 -8t-8 -4t-8.5 3.5t-4 8.5zM87 714q20 36 46 41q17 4 45 -7q26 -10 37 -11q20 -1 40 18
q9 8 17 -1t-1 -17q-27 -25 -57 -24q-15 1 -45 13q-21 8 -31 6q-15 -3 -31 -30q-6 -10 -16 -4t-4 16z" />
    <glyph glyph-name="Ograve" unicode="&#xd2;" horiz-adv-x="481" 
d="M179 675q-63 -20 -110 -120q-49 -106 -52 -238q-2 -139 52 -224q62 -95 181 -88q68 4 118 52.5t73 121.5t19 158q-2 63 -21 120.5t-52.5 105t-86.5 78t-119 34.5h-2zM197 698q69 -8 124 -41.5t89 -84t53 -110.5t21 -124q4 -88 -20 -166t-79.5 -132t-132.5 -59
q-134 -8 -203 99q-58 91 -56 238q3 136 55 247q56 120 138 137q7 1 11 -4zM143 793q43 -29 88 -46q12 -4 7.5 -15.5t-15.5 -6.5q-48 18 -94 48q-10 7 -3 17t17 3z" />
    <glyph glyph-name="Oacute" unicode="&#xd3;" horiz-adv-x="481" 
d="M179 675q-63 -20 -110 -120q-49 -106 -52 -238q-2 -139 52 -224q62 -95 181 -88q68 4 118 52.5t73 121.5t19 158q-2 63 -21 120.5t-52.5 105t-86.5 78t-119 34.5h-2zM197 698q69 -8 124 -41.5t89 -84t53 -110.5t21 -124q4 -88 -20 -166t-79.5 -132t-132.5 -59
q-134 -8 -203 99q-58 91 -56 238q3 136 55 247q56 120 138 137q7 1 11 -4zM136 739q19 11 48 34t39 30t17 -3t-3 -17q-6 -4 -38 -29t-51 -35q-11 -6 -16.5 4.5t4.5 15.5z" />
    <glyph glyph-name="Ocircumflex" unicode="&#xd4;" horiz-adv-x="481" 
d="M179 675q-63 -20 -110 -120q-49 -106 -52 -238q-2 -139 52 -224q62 -95 181 -88q68 4 118 52.5t73 121.5t19 158q-2 63 -21 120.5t-52.5 105t-86.5 78t-119 34.5h-2zM197 698q69 -8 124 -41.5t89 -84t53 -110.5t21 -124q4 -88 -20 -166t-79.5 -132t-132.5 -59
q-134 -8 -203 99q-58 91 -56 238q3 136 55 247q56 120 138 137q7 1 11 -4zM126 738q21 19 37 42l10 15q6 8 11 11q9 6 19 0q6 -3 13 -12q3 -4 38 -54q7 -10 -3 -17t-17 3q-34 49 -37 53q-1 2 -3 4l-1 -2l-10 -15q-18 -25 -41 -46q-9 -8 -17 1t1 17z" />
    <glyph glyph-name="Otilde" unicode="&#xd5;" horiz-adv-x="481" 
d="M179 675q-63 -20 -110 -120q-49 -106 -52 -238q-2 -139 52 -224q62 -95 181 -88q68 4 118 52.5t73 121.5t19 158q-2 63 -21 120.5t-52.5 105t-86.5 78t-119 34.5h-2zM197 698q69 -8 124 -41.5t89 -84t53 -110.5t21 -124q4 -88 -20 -166t-79.5 -132t-132.5 -59
q-134 -8 -203 99q-58 91 -56 238q3 136 55 247q56 120 138 137q7 1 11 -4zM109 737q20 54 50 54q17 1 46 -24q12 -11 18 -14q7 -5 11 -5q12 1 25 39q3 11 14.5 7.5t7.5 -15.5q-18 -54 -46 -55q-12 0 -25 9q-7 4 -20 16q-22 19 -31 18q-13 0 -28 -38q-4 -11 -15 -7t-7 15z
" />
    <glyph glyph-name="Odieresis" unicode="&#xd6;" horiz-adv-x="481" 
d="M179 675q-63 -20 -110 -120q-49 -106 -52 -238q-2 -139 52 -224q62 -95 181 -88q68 4 118 52.5t73 121.5t19 158q-2 63 -21 120.5t-52.5 105t-86.5 78t-119 34.5h-2zM197 698q69 -8 124 -41.5t89 -84t53 -110.5t21 -124q4 -88 -20 -166t-79.5 -132t-132.5 -59
q-134 -8 -203 99q-58 91 -56 238q3 136 55 247q56 120 138 137q7 1 11 -4zM142 778q12 0 12 -12t-12 -12t-12 12t12 12zM206 783q12 0 12 -12t-12 -12t-12 12t12 12z" />
    <glyph glyph-name="multiply" unicode="&#xd7;" horiz-adv-x="411" 
d="M281 255q-34 41 -63 89q-6 10 4 16t16 -4q27 -43 58 -81q39 55 60 108q4 12 15.5 7.5t6.5 -15.5q-22 -59 -66 -119q47 -53 103 -92q10 -7 3 -17t-17 -3q-55 39 -104 93q-32 -42 -75 -84q-8 -9 -16.5 -0.5t0.5 16.5q43 44 75 86z" />
    <glyph glyph-name="Oslash" unicode="&#xd8;" horiz-adv-x="506" 
d="M434 472q-31 87 -95 142t-158 61h-2q-63 -20 -110 -120q-49 -106 -52 -238q-1 -93 24 -165q228 245 393 320zM442 449q-162 -75 -391 -322q8 -18 18 -34q62 -95 181 -88q68 4 118 52.5t73 121.5t19 158q-2 59 -18 112zM33 108l-5 -6q-8 -9 -17 -1t-1 17l13 14
q-32 80 -30 186q3 136 55 247q56 120 138 137q7 1 11 -4q96 -11 161.5 -69.5t97.5 -146.5q19 7 38 13q11 3 14.5 -8.5t-8.5 -15.5q-17 -5 -36 -12q18 -58 20 -121q4 -88 -20 -166t-79.5 -132t-132.5 -59q-134 -8 -203 99q-8 13 -16 28z" />
    <glyph glyph-name="Ugrave" unicode="&#xd9;" horiz-adv-x="458" 
d="M354 241q46 107 68 212q16 77 13 133q-2 59 -25 83q-8 9 -14 10q-4 0 -8 -5q-13 -14 -22 -55q-14 -59 -16 -120q-6 -170 4 -258zM71 687q-24 -192 -24 -295q0 -124 9 -182q17 -112 48 -164q26 -44 59 -42q32 1 71 41q38 39 77 108l24 46q-15 104 -9 300q2 64 16 125
q11 48 28 66q12 14 28 12q15 -1 30 -17q28 -31 31 -97q3 -59 -14 -140q-27 -130 -85 -252q17 -110 63 -196q5 -11 -5.5 -16.5t-16.5 4.5q-40 77 -59 172l-10 -19q-40 -71 -80 -112q-46 -47 -88 -49q-47 -2 -80 53q-34 57 -52 173q-9 59 -9 186q0 105 24 297q2 12 13.5 10.5
t10.5 -12.5zM162 768l80 -41q11 -6 5.5 -16.5t-15.5 -5.5l-80 41q-11 6 -5.5 16.5t15.5 5.5z" />
    <glyph glyph-name="Uacute" unicode="&#xda;" horiz-adv-x="458" 
d="M354 241q46 107 68 212q16 77 13 133q-2 59 -25 83q-8 9 -14 10q-4 0 -8 -5q-13 -14 -22 -55q-14 -59 -16 -120q-6 -170 4 -258zM71 687q-24 -192 -24 -295q0 -124 9 -182q17 -112 48 -164q26 -44 59 -42q32 1 71 41q38 39 77 108l24 46q-15 104 -9 300q2 64 16 125
q11 48 28 66q12 14 28 12q15 -1 30 -17q28 -31 31 -97q3 -59 -14 -140q-27 -130 -85 -252q17 -110 63 -196q5 -11 -5.5 -16.5t-16.5 4.5q-40 77 -59 172l-10 -19q-40 -71 -80 -112q-46 -47 -88 -49q-47 -2 -80 53q-34 57 -52 173q-9 59 -9 186q0 105 24 297q2 12 13.5 10.5
t10.5 -12.5zM165 712q24 7 60 33l30 22q18 14 31 22q10 7 16.5 -3.5t-4.5 -16.5q-11 -7 -28 -21l-31 -23q-38 -28 -68 -37q-11 -3 -14.5 8.5t8.5 15.5z" />
    <glyph glyph-name="Ucircumflex" unicode="&#xdb;" horiz-adv-x="458" 
d="M354 241q46 107 68 212q16 77 13 133q-2 59 -25 83q-8 9 -14 10q-4 0 -8 -5q-13 -14 -22 -55q-14 -59 -16 -120q-6 -170 4 -258zM226 780q-28 -33 -53 -83q-6 -11 -16.5 -5.5t-5.5 15.5q32 64 60 92l1 1q2 3 2 4q8 12 20 7q2 -1 4 -3l2 -2v-1l2 -4l6 -11l16 -34
q11 -22 19 -36q10 -17 15 -21q9 -8 1 -17t-17 -1q-8 7 -19 27q-9 15 -20 38zM71 687q-24 -192 -24 -295q0 -124 9 -182q17 -112 48 -164q26 -44 59 -42q32 1 71 41q38 39 77 108l24 46q-15 104 -9 300q2 64 16 125q11 48 28 66q12 14 28 12q15 -1 30 -17q28 -31 31 -97
q3 -59 -14 -140q-27 -130 -85 -252q17 -110 63 -196q5 -11 -5.5 -16.5t-16.5 4.5q-40 77 -59 172l-10 -19q-40 -71 -80 -112q-46 -47 -88 -49q-47 -2 -80 53q-34 57 -52 173q-9 59 -9 186q0 105 24 297q2 12 13.5 10.5t10.5 -12.5z" />
    <glyph glyph-name="Udieresis" unicode="&#xdc;" horiz-adv-x="458" 
d="M354 241q46 107 68 212q16 77 13 133q-2 59 -25 83q-8 9 -14 10q-4 0 -8 -5q-13 -14 -22 -55q-14 -59 -16 -120q-6 -170 4 -258zM71 687q-24 -192 -24 -295q0 -124 9 -182q17 -112 48 -164q26 -44 59 -42q32 1 71 41q38 39 77 108l24 46q-15 104 -9 300q2 64 16 125
q11 48 28 66q12 14 28 12q15 -1 30 -17q28 -31 31 -97q3 -59 -14 -140q-27 -130 -85 -252q17 -110 63 -196q5 -11 -5.5 -16.5t-16.5 4.5q-40 77 -59 172l-10 -19q-40 -71 -80 -112q-46 -47 -88 -49q-47 -2 -80 53q-34 57 -52 173q-9 59 -9 186q0 105 24 297q2 12 13.5 10.5
t10.5 -12.5zM178 747q12 0 12 -12t-12 -12t-12 12t12 12zM256 744q12 0 12 -12t-12 -12t-12 12t12 12z" />
    <glyph glyph-name="Yacute" unicode="&#xdd;" horiz-adv-x="575" 
d="M389 304q-21 -7 -42 -17q-65 -28 -119 -68.5t-79 -78.5q-25 -37 -31 -78q-8 -48 21 -71q20 -16 56.5 -16.5t63.5 10.5q100 34 122 169q10 55 8 150zM181 701q-73 -57 -114.5 -167.5t-18.5 -197.5q10 -42 37 -55q24 -11 59 0q32 10 65 34t52 49q30 38 77 129q18 32 33 71
q11 29 16 49v12q0 4 2 11q1 3 1.5 5t1.5 3q2 3 5 4q6 3 12 -2q2 -1 3 -3t2 -3v-2v-2q0 -11 -3 -26v-16v-13v-193q0 -16 1 -51q112 32 181 1q11 -5 6 -16t-16 -6q-63 29 -171 -4q3 -103 -7 -162q-25 -149 -138 -187q-22 -8 -46 -11t-51.5 1.5t-46.5 19.5q-38 31 -29 93
q7 45 35 88q27 41 83.5 83t124.5 72q26 12 51 21q-1 41 -1 58v72v81q-14 -34 -27 -60q-49 -92 -79 -131q-22 -28 -58 -54.5t-72 -37.5q-44 -13 -76 2q-37 17 -51 70q-24 94 20 211.5t123 177.5q9 8 16.5 -1.5t-2.5 -16.5zM247 669q65 73 118 100q10 5 15.5 -5.5t-5.5 -16.5
q-48 -25 -110 -94q-8 -9 -17 -1t-1 17z" />
    <glyph glyph-name="Thorn" unicode="&#xde;" horiz-adv-x="366" 
d="M81 148q109 60 177 131q97 100 86 203q-5 50 -39 64q-31 14 -82 -1q-41 -12 -82.5 -39t-66.5 -57q8 -161 7 -301zM62 697q6 -37 7.5 -109t1.5 -79l1 -26q63 61 144 85q59 17 98 0q47 -20 54 -84q12 -113 -93 -222q-73 -76 -194 -141q-1 -51 -3 -99q-1 -11 -6 -74
q-4 -46 -4 -72q0 -12 -12 -12t-12 12q0 28 4 74q6 64 6 72q7 183 -3 407q-2 1 -5 2q-10 6 -3 17l7 9q-2 25 -3 50q-1 13 -2 81.5t-7 104.5q-2 12 10 14t14 -10z" />
    <glyph glyph-name="germandbls" unicode="&#xdf;" horiz-adv-x="461" 
d="M49 6q17 45 19 116.5t-5 139.5q-1 13 -4 47.5t-4 50.5t-2.5 45.5t-1.5 48t1 41.5t4 42q5 34 25 65t49 52q68 49 138 20q68 -27 63 -87q-4 -45 -50 -105q-30 -41 -81 -89l-2 -2q67 19 116 7q61 -16 106 -73.5t46 -120.5q1 -51 -40 -97t-100 -74q-60 -27 -112 -25
q-60 3 -85 47q-6 10 4 16t16 -4q19 -32 66 -35q46 -2 101 23q54 25 90.5 66t35.5 83q-1 55 -41 106t-93 64q-48 13 -121 -11q-10 -4 -22 -8q-1 -1 -4 -3q-4 -3 -7 -4q-7 -1 -11 3q-5 4 -5 10q0 4 2 7l2 2l3 3q2 3 9 9l30 28q49 47 78 86q42 55 45 93q3 42 -47 63
q-59 23 -116 -17q-25 -19 -42.5 -46t-21.5 -56q-3 -22 -4 -44q-2 -23 -0.5 -57.5t2 -48.5t4.5 -63t5 -56q7 -67 5 -142q-3 -75 -21 -124q-4 -11 -15 -7t-7 15z" />
    <glyph glyph-name="agrave" unicode="&#xe0;" 
d="M255 303q-22 30 -63.5 13.5t-85.5 -68.5t-65 -109q-23 -59 -9 -95q12 -29 36 -29q23 1 57 26q29 20 56.5 49.5t40.5 47.5q26 37 34 62q3 35 9 61q3 10 4 15q1 3 2 5q0 1 1 3q2 2 5 4q4 2 8 1t7 -5q2 -2 2 -5v-2v-2v-4q0 -3 -2 -10q-2 -15 -6 -39q-2 -14 -6 -27
q-4 -43 -1 -80q4 -43 16 -69q14 -28 37 -33q11 -3 8.5 -14.5t-14.5 -9.5q-34 8 -52 46q-15 30 -19 78q-1 14 -1 29l-12 -18q-14 -20 -43 -50.5t-60 -52.5q-40 -29 -71 -30q-40 -1 -58 45q-17 44 8 112q23 60 69 115q48 57 95 76q59 22 93 -22q7 -9 -2.5 -16.5t-17.5 2.5z
M152 461q13 -8 26 -17l31 -22q19 -14 24 -18q10 -7 3 -17t-17 -3q-7 5 -24.5 18.5t-29.5 22t-25 14.5q-10 6 -4.5 16.5t16.5 5.5z" />
    <glyph glyph-name="aacute" unicode="&#xe1;" 
d="M255 303q-22 30 -63.5 13.5t-85.5 -68.5t-65 -109q-23 -59 -9 -95q12 -29 36 -29q23 1 57 26q29 20 56.5 49.5t40.5 47.5q26 37 34 62q3 35 9 61q3 10 4 15q1 3 2 5q0 1 1 3q2 2 5 4q4 2 8 1t7 -5q2 -2 2 -5v-2v-2v-4q0 -3 -2 -10q-2 -15 -6 -39q-2 -14 -6 -27
q-4 -43 -1 -80q4 -43 16 -69q14 -28 37 -33q11 -3 8.5 -14.5t-14.5 -9.5q-34 8 -52 46q-15 30 -19 78q-1 14 -1 29l-12 -18q-14 -20 -43 -50.5t-60 -52.5q-40 -29 -71 -30q-40 -1 -58 45q-17 44 8 112q23 60 69 115q48 57 95 76q59 22 93 -22q7 -9 -2.5 -16.5t-17.5 2.5z
M150 414q13 8 26 20t28.5 28.5t25.5 25.5q9 8 17 -1t-1 -17t-24 -24q-16 -16 -30.5 -29.5t-29.5 -22.5q-10 -7 -16.5 3.5t4.5 16.5z" />
    <glyph glyph-name="acircumflex" unicode="&#xe2;" 
d="M255 303q-22 30 -63.5 13.5t-85.5 -68.5t-65 -109q-23 -59 -9 -95q12 -29 36 -29q23 1 57 26q29 20 56.5 49.5t40.5 47.5q26 37 34 62q3 35 9 61q3 10 4 15q1 3 2 5q0 1 1 3q2 2 5 4q4 2 8 1t7 -5q2 -2 2 -5v-2v-2v-4q0 -3 -2 -10q-2 -15 -6 -39q-2 -14 -6 -27
q-4 -43 -1 -80q4 -43 16 -69q14 -28 37 -33q11 -3 8.5 -14.5t-14.5 -9.5q-34 8 -52 46q-15 30 -19 78q-1 14 -1 29l-12 -18q-14 -20 -43 -50.5t-60 -52.5q-40 -29 -71 -30q-40 -1 -58 45q-17 44 8 112q23 60 69 115q48 57 95 76q59 22 93 -22q7 -9 -2.5 -16.5t-17.5 2.5z
M137 399q18 19 37 45l11 15q7 8 14 10q15 7 35 -12q9 -8 48 -50q8 -9 -1 -17t-17 1q-37 41 -46 49q-7 6 -10 7q-2 -1 -5 -4q-1 -1 -10 -14q-20 -27 -40 -46q-8 -9 -16.5 -0.5t0.5 16.5z" />
    <glyph glyph-name="atilde" unicode="&#xe3;" 
d="M255 303q-22 30 -63.5 13.5t-85.5 -68.5t-65 -109q-23 -59 -9 -95q12 -29 36 -29q23 1 57 26q29 20 56.5 49.5t40.5 47.5q26 37 34 62q3 35 9 61q3 10 4 15q1 3 2 5q0 1 1 3q2 2 5 4q4 2 8 1t7 -5q2 -2 2 -5v-2v-2v-4q0 -3 -2 -10q-2 -15 -6 -39q-2 -14 -6 -27
q-4 -43 -1 -80q4 -43 16 -69q14 -28 37 -33q11 -3 8.5 -14.5t-14.5 -9.5q-34 8 -52 46q-15 30 -19 78q-1 14 -1 29l-12 -18q-14 -20 -43 -50.5t-60 -52.5q-40 -29 -71 -30q-40 -1 -58 45q-17 44 8 112q23 60 69 115q48 57 95 76q59 22 93 -22q7 -9 -2.5 -16.5t-17.5 2.5z
M145 391q6 22 13 33q10 13 22 14q10 0 21 -8q6 -4 15 -14q18 -19 25 -21q5 -1 8 0q7 3 14 14q7 10 17 3t3 -17q-11 -16 -23 -21q-13 -6 -26 -2q-13 5 -35 27q-8 9 -12 12l-5 3l-4 -4q-5 -8 -11 -25q-3 -12 -14.5 -8.5t-7.5 14.5z" />
    <glyph glyph-name="adieresis" unicode="&#xe4;" 
d="M255 303q-22 30 -63.5 13.5t-85.5 -68.5t-65 -109q-23 -59 -9 -95q12 -29 36 -29q23 1 57 26q29 20 56.5 49.5t40.5 47.5q26 37 34 62q3 35 9 61q3 10 4 15q1 3 2 5q0 1 1 3q2 2 5 4q4 2 8 1t7 -5q2 -2 2 -5v-2v-2v-4q0 -3 -2 -10q-2 -15 -6 -39q-2 -14 -6 -27
q-4 -43 -1 -80q4 -43 16 -69q14 -28 37 -33q11 -3 8.5 -14.5t-14.5 -9.5q-34 8 -52 46q-15 30 -19 78q-1 14 -1 29l-12 -18q-14 -20 -43 -50.5t-60 -52.5q-40 -29 -71 -30q-40 -1 -58 45q-17 44 8 112q23 60 69 115q48 57 95 76q59 22 93 -22q7 -9 -2.5 -16.5t-17.5 2.5z
M184 419q12 0 12 -12t-12 -12t-12 12t12 12zM249 423q12 0 12 -12t-12 -12t-12 12t12 12z" />
    <glyph glyph-name="aring" unicode="&#xe5;" 
d="M207 381q-3 -9 -12 -8h-13q-11 1 -19 1q-13 1 -21 4q-13 5 -18 14q-8 18 2 39q8 16 26 33q35 32 64 38q42 8 58 -11q16 -18 3 -47q-9 -20 -28 -37.5t-42 -25.5zM255 303q-22 30 -63.5 13.5t-85.5 -68.5t-65 -109q-23 -59 -9 -95q12 -29 36 -29q23 1 57 26
q29 20 56.5 49.5t40.5 47.5q26 37 34 62q3 35 9 61q3 10 4 15q1 3 2 5q0 1 1 3q2 2 5 4q4 2 8 1t7 -5q2 -2 2 -5v-2v-2v-4q0 -3 -2 -10q-2 -15 -6 -39q-2 -14 -6 -27q-4 -43 -1 -80q4 -43 16 -69q14 -28 37 -33q11 -3 8.5 -14.5t-14.5 -9.5q-34 8 -52 46q-15 30 -19 78
q-1 14 -1 29l-12 -18q-14 -20 -43 -50.5t-60 -52.5q-40 -29 -71 -30q-40 -1 -58 45q-17 44 8 112q23 60 69 115q48 57 95 76q59 22 93 -22q7 -9 -2.5 -16.5t-17.5 2.5zM184 400q22 2 42.5 18t28.5 35q7 16 1 22q-7 9 -36 3q-22 -4 -52 -32q-15 -13 -20 -25q-6 -11 -2 -18
q1 -1 3 -2q6 -2 16 -3q6 0 13 -1q2 3 6 3z" />
    <glyph glyph-name="ae" unicode="&#xe6;" horiz-adv-x="517" 
d="M294 281v-2v-2v-2v-4q0 -3 -2 -10q-2 -15 -6 -39q-2 -15 -7 -30q-2 -24 -1 -46q55 -1 88 11q21 8 44.5 27.5t39.5 43.5q37 56 5 94q-30 37 -87 18q-25 -8 -45.5 -24t-28.5 -35zM255 303q-22 30 -63.5 13.5t-85.5 -68.5t-65 -109q-23 -59 -9 -95q12 -29 36 -29q23 1 57 26
q29 20 56.5 49.5t40.5 47.5q25 35 33 59q3 32 10 64q3 10 4 15q1 3 2 5q-2 4 0 8q11 24 35.5 44.5t53.5 29.5q28 11 60.5 5.5t52.5 -30.5q43 -53 -3 -123q-18 -27 -44.5 -49t-51.5 -31q-36 -14 -94 -13q2 -10 4 -19q19 -82 90 -96q47 -9 79 6q24 12 61 53q8 9 17 1t1 -17
q-40 -45 -69 -59q-39 -19 -93 -8q-87 17 -110 115l-4 25q-7 1 -10 7l-4 -6q-14 -20 -43 -50.5t-60 -52.5q-40 -29 -71 -30q-40 -1 -58 45q-17 44 8 112q23 60 69 115q48 57 95 76q59 22 93 -22q7 -9 -2.5 -16.5t-17.5 2.5z" />
    <glyph glyph-name="ccedilla" unicode="&#xe7;" horiz-adv-x="299" 
d="M189 279q3 41 -23 65t-60 -2q-57 -45 -73 -148q-12 -78 13.5 -123.5t70.5 -53.5q46 -9 94.5 21.5t78.5 96.5q5 11 16 6t6 -16q-29 -64 -77.5 -99t-98.5 -35q-13 -36 -45 -67q-8 -9 -16.5 -0.5t0.5 16.5q25 26 36 54q-56 11 -85.5 65t-16.5 139q18 112 83 162q26 20 49 19
t41 -17q16 -15 24.5 -38t6.5 -47q0 -5 -4 -8t-9 -3t-8 4t-3 9z" />
    <glyph glyph-name="egrave" unicode="&#xe8;" horiz-adv-x="301" 
d="M39 186q31 -4 68 11t66 40q31 27 40 54q8 25 -9 40q-24 21 -64 -4q-40 -26 -74 -84q-17 -28 -27 -57zM31 163q-4 -18 -6 -34q-6 -59 27 -88q44 -38 103 -22q36 9 69 40q50 46 61 92q3 12 15 9t9 -15q-13 -52 -69 -104q-37 -34 -79 -46q-71 -19 -125 28q-42 37 -35 108
q6 60 44 124q37 63 82 92q55 35 93 2q29 -25 16 -65q-11 -33 -47 -65q-33 -29 -76 -45.5t-82 -10.5zM122 466q15 -14 45.5 -38.5t43.5 -36.5q9 -8 1 -17t-17 -1q-13 12 -43.5 36.5t-45.5 38.5q-9 8 -1 17t17 1z" />
    <glyph glyph-name="eacute" unicode="&#xe9;" horiz-adv-x="301" 
d="M39 186q31 -4 68 11t66 40q31 27 40 54q8 25 -9 40q-24 21 -64 -4q-40 -26 -74 -84q-17 -28 -27 -57zM31 163q-4 -18 -6 -34q-6 -59 27 -88q44 -38 103 -22q36 9 69 40q50 46 61 92q3 12 15 9t9 -15q-13 -52 -69 -104q-37 -34 -79 -46q-71 -19 -125 28q-42 37 -35 108
q6 60 44 124q37 63 82 92q55 35 93 2q29 -25 16 -65q-11 -33 -47 -65q-33 -29 -76 -45.5t-82 -10.5zM108 412q46 29 75 61q8 9 17 1t1 -17q-31 -35 -81 -65q-10 -7 -16.5 3.5t4.5 16.5z" />
    <glyph glyph-name="ecircumflex" unicode="&#xea;" horiz-adv-x="301" 
d="M39 186q31 -4 68 11t66 40q31 27 40 54q8 25 -9 40q-24 21 -64 -4q-40 -26 -74 -84q-17 -28 -27 -57zM31 163q-4 -18 -6 -34q-6 -59 27 -88q44 -38 103 -22q36 9 69 40q50 46 61 92q3 12 15 9t9 -15q-13 -52 -69 -104q-37 -34 -79 -46q-71 -19 -125 28q-42 37 -35 108
q6 60 44 124q37 63 82 92q55 35 93 2q29 -25 16 -65q-11 -33 -47 -65q-33 -29 -76 -45.5t-82 -10.5zM96 414q26 21 42 48q3 6 10 19q5 11 9 15q8 10 20 7q8 -3 17 -13q10 -11 51 -67q7 -10 -3 -17t-17 3q-40 55 -49 65l-3 3q-1 -2 -4 -7l-11 -20q-18 -32 -48 -54
q-9 -8 -16.5 1.5t2.5 16.5z" />
    <glyph glyph-name="edieresis" unicode="&#xeb;" horiz-adv-x="301" 
d="M39 186q31 -4 68 11t66 40q31 27 40 54q8 25 -9 40q-24 21 -64 -4q-40 -26 -74 -84q-17 -28 -27 -57zM31 163q-4 -18 -6 -34q-6 -59 27 -88q44 -38 103 -22q36 9 69 40q50 46 61 92q3 12 15 9t9 -15q-13 -52 -69 -104q-37 -34 -79 -46q-71 -19 -125 28q-42 37 -35 108
q6 60 44 124q37 63 82 92q55 35 93 2q29 -25 16 -65q-11 -33 -47 -65q-33 -29 -76 -45.5t-82 -10.5zM127 425q12 0 12 -12t-12 -12t-12 12t12 12zM202 431q12 0 12 -12t-12 -12t-12 12t12 12z" />
    <glyph glyph-name="igrave" unicode="&#xec;" horiz-adv-x="105" 
d="M76 366q-21 -70 -13 -191q9 -132 49 -174q8 -9 -1 -17t-17 1q-45 48 -55 189q-8 125 13 198q4 12 15.5 8.5t8.5 -14.5zM52 482q38 -45 52 -64q8 -9 -1.5 -16.5t-16.5 2.5l-52 62q-8 9 1 17t17 -1z" />
    <glyph glyph-name="iacute" unicode="&#xed;" horiz-adv-x="120" 
d="M75 366q-21 -70 -13 -191q9 -132 49 -174q8 -9 -1 -17t-17 1q-45 48 -55 189q-8 125 13 198q4 12 15.5 8.5t8.5 -14.5zM35 417q14 9 37 28q25 22 37 31q10 7 17 -3t-3 -17q-11 -8 -36 -29q-23 -20 -38 -30q-10 -7 -17 3t3 17z" />
    <glyph glyph-name="icircumflex" unicode="&#xee;" horiz-adv-x="120" 
d="M76 366q-21 -70 -13 -191q9 -132 49 -174q8 -9 -1 -17t-17 1q-45 48 -55 189q-8 125 13 198q4 12 15.5 8.5t8.5 -14.5zM8 418q28 37 34 44q16 18 30 17q13 -1 27 -20q3 -5 13 -19l15 -22q7 -10 -3 -17t-17 3q-5 8 -14.5 22t-13.5 19q-7 9 -9 10q-3 -2 -10 -9
q-6 -7 -34 -42q-7 -10 -16.5 -2.5t-1.5 16.5z" />
    <glyph glyph-name="idieresis" unicode="&#xef;" horiz-adv-x="106" 
d="M68 366q-21 -70 -13 -191q9 -132 49 -174q8 -9 -1 -17t-17 1q-45 48 -55 189q-8 125 13 198q4 12 15.5 8.5t8.5 -14.5zM29 434q12 0 12 -12t-12 -12t-12 12t12 12zM95 433q12 0 12 -12t-12 -12t-12 12t12 12z" />
    <glyph glyph-name="eth" unicode="&#xf0;" horiz-adv-x="334" 
d="M206 277q-36 -25 -64 -53q-30 -30 -48 -59.5t-23 -60.5t10 -59q5 -9 16 -19t21 -12q23 -6 57 0.5t52 19.5q78 56 16 182q-15 30 -37 61zM163 333q-36 -31 -68 -47q-10 -5 -15.5 5.5t5.5 16.5q28 14 61 42q-22 24 -42 40q-9 7 -1.5 16.5t17.5 1.5q21 -17 44 -42l46 42
q9 8 17 -1t-1 -17l-45 -42l31 -38q61 37 108 48q12 2 14.5 -9.5t-8.5 -14.5q-44 -9 -100 -44q23 -32 38 -63q20 -41 28 -77q7 -36 -4.5 -73.5t-46.5 -62.5q-23 -16 -62 -23.5t-67 -0.5q-15 4 -30.5 17.5t-22.5 27.5q-13 25 -13 53t11 54.5t28 51t40 47.5q30 29 67 55
q-14 19 -29 37z" />
    <glyph glyph-name="ntilde" unicode="&#xf1;" horiz-adv-x="321" 
d="M41 325q0 -34 -1 -101.5t-1 -101.5v-1l2 3q8 20 35 64q27 45 58 83q39 48 71 68q45 28 74 1q21 -19 32 -68q8 -38 10 -95q1 -42 1 -67.5t-1 -61t-1 -47.5t-12 -12t-12 12t1 47t1 60.5t-1 67.5q-2 55 -10 91q-9 41 -24 55q-16 15 -45 -3t-66 -63q-29 -37 -55.5 -80
t-33.5 -60q-8 -21 -12 -55q-6 -46 -9 -59q-1 -1 -1 -2t-1 -2q-2 -3 -5 -5q-7 -3 -13 2q-2 2 -4 5q0 1 -0.5 3t-0.5 6v10q-2 27 -2 103q0 34 1 101.5t1 101.5q0 12 12 12t12 -12zM119 396q24 29 51 32q18 1 43 -12q23 -12 30 -13q12 -2 23 10q8 9 17 1t1 -17q-20 -22 -45 -18
q-10 2 -37 16q-19 10 -30 9q-17 -2 -35 -24q-7 -9 -16.5 -1.5t-1.5 17.5z" />
    <glyph glyph-name="ograve" unicode="&#xf2;" horiz-adv-x="280" 
d="M109 314q-39 -29 -57 -84q-18 -54 -9 -108q9 -56 41 -84q36 -30 91 -15q56 15 78 63q22 49 8 107q-13 56 -54 91q-41 36 -98 30zM111 338q66 5 112.5 -36.5t60.5 -103.5q9 -29 6 -60.5t-14 -59t-35.5 -48.5t-59.5 -31q-67 -18 -112 21q-40 33 -50 98q-9 58 9.5 117
t61.5 94q2 7 9 8h1q6 3 11 1zM64 423q8 -1 15.5 -3t16 -6.5t12.5 -6t14.5 -8t12.5 -7.5q10 -5 4.5 -15.5t-16.5 -4.5q-3 1 -11 5.5t-11 6.5t-9 5t-10.5 4.5t-10 3t-11.5 2.5q-12 2 -10 14t14 10z" />
    <glyph glyph-name="oacute" unicode="&#xf3;" horiz-adv-x="280" 
d="M109 314q-39 -29 -57 -84q-18 -54 -9 -108q9 -56 41 -84q36 -30 91 -15q56 15 78 63q22 49 8 107q-13 56 -54 91q-41 36 -98 30zM111 338q66 5 112.5 -36.5t60.5 -103.5q9 -29 6 -60.5t-14 -59t-35.5 -48.5t-59.5 -31q-67 -18 -112 21q-40 33 -50 98q-9 58 9.5 117
t61.5 94q2 7 9 8h1q6 3 11 1zM69 376q8 6 39 26q24 15 36 26q9 8 17 -1t-1 -17q-14 -12 -39 -28l-38 -26q-10 -7 -17 3t3 17z" />
    <glyph glyph-name="ocircumflex" unicode="&#xf4;" horiz-adv-x="280" 
d="M109 314q-39 -29 -57 -84q-18 -54 -9 -108q9 -56 41 -84q36 -30 91 -15q56 15 78 63q22 49 8 107q-13 56 -54 91q-41 36 -98 30zM111 338q66 5 112.5 -36.5t60.5 -103.5q9 -29 6 -60.5t-14 -59t-35.5 -48.5t-59.5 -31q-67 -18 -112 21q-40 33 -50 98q-9 58 9.5 117
t61.5 94q2 7 9 8h1q6 3 11 1zM64 378l32 43q16 18 30 17q13 0 31 -16q4 -4 10 -9.5t14.5 -14.5t14.5 -16q9 -8 0.5 -16.5t-16.5 0.5q-7 6 -15 14l-14 14l-10 10q-11 10 -15 10q-4 1 -12 -9q-4 -6 -30 -41q-7 -10 -17 -3t-3 17z" />
    <glyph glyph-name="otilde" unicode="&#xf5;" horiz-adv-x="280" 
d="M109 314q-39 -29 -57 -84q-18 -54 -9 -108q9 -56 41 -84q36 -30 91 -15q56 15 78 63q22 49 8 107q-13 56 -54 91q-41 36 -98 30zM111 338q66 5 112.5 -36.5t60.5 -103.5q9 -29 6 -60.5t-14 -59t-35.5 -48.5t-59.5 -31q-67 -18 -112 21q-40 33 -50 98q-9 58 9.5 117
t61.5 94q2 7 9 8h1q6 3 11 1zM37 368q8 36 29 46q17 9 42 -1q4 -2 35 -19q16 -8 21 -7q6 1 14 11l8 12q6 7 9 11q8 9 17 1t1 -17q-2 -3 -7 -9q-6 -9 -9 -13q-14 -17 -29 -20q-13 -2 -36 10q-32 17 -33 17q-15 6 -23 3q-10 -5 -15 -31q-3 -11 -14.5 -8.5t-9.5 14.5z" />
    <glyph glyph-name="odieresis" unicode="&#xf6;" horiz-adv-x="280" 
d="M109 314q-39 -29 -57 -84q-18 -54 -9 -108q9 -56 41 -84q36 -30 91 -15q56 15 78 63q22 49 8 107q-13 56 -54 91q-41 36 -98 30zM111 338q66 5 112.5 -36.5t60.5 -103.5q9 -29 6 -60.5t-14 -59t-35.5 -48.5t-59.5 -31q-67 -18 -112 21q-40 33 -50 98q-9 58 9.5 117
t61.5 94q2 7 9 8h1q6 3 11 1zM74 386q12 0 12 -12t-12 -12t-12 12t12 12zM144 389q12 0 12 -12t-12 -12t-12 12t12 12z" />
    <glyph glyph-name="divide" unicode="&#xf7;" horiz-adv-x="328" 
d="M56 316q65 21 132 26t133 -1q5 0 8 -4t3 -9t-4 -8t-9 -3q-65 6 -129 1t-126 -24q-12 -4 -15.5 7.5t7.5 14.5zM195 439q12 0 12 -12t-12 -12t-12 12t12 12zM188 261q12 0 12 -12t-12 -12t-12 12t12 12z" />
    <glyph glyph-name="oslash" unicode="&#xf8;" horiz-adv-x="301" 
d="M240 244q-21 36 -54.5 55t-76.5 15q-39 -29 -57 -83.5t-9 -108.5q4 -28 15 -49q75 110 182 171zM251 223q-106 -61 -179 -172q6 -7 12 -13q36 -30 91 -15q56 15 78 63.5t8 106.5q-4 15 -10 30zM59 29l-11 -19q-6 -10 -16.5 -4.5t-5.5 16.5q8 14 17 28q-18 29 -24 68
q-9 58 9.5 117t61.5 94q2 7 9 8h1q6 3 11 1q49 4 88 -19t62 -63l33 15q11 5 16 -6t-6 -16q-16 -7 -32 -15q8 -17 12 -36q9 -29 6 -60.5t-14 -59t-35.5 -48.5t-59.5 -31q-67 -18 -112 21q-6 4 -10 9z" />
    <glyph glyph-name="ugrave" unicode="&#xf9;" horiz-adv-x="274" 
d="M72 293q-36 -104 -44 -166q-7 -54 4 -83q11 -30 45 -29q38 1 78 70q28 50 47 115q3 7 8.5 23.5t6.5 20.5q4 27 8 44q1 1 1 2q2 5 7 7t8.5 0.5t5.5 -4.5l1 -2l2 -4v-6q0 -8 -1 -13q-2 -11 -8 -30q-7 -54 -5 -108q2 -49 12 -81q11 -36 29 -47q10 -6 4 -16t-16 -4
q-27 15 -40 60q-11 35 -13 87q-1 11 -1 22q-16 -44 -35 -77q-46 -82 -99 -83q-51 -1 -68 45q-13 34 -5 94q9 64 46 171q4 11 15 7t7 -15zM148 379l22 -17q12 -10 18 -14q10 -8 2.5 -17.5t-16.5 -2.5q-8 6 -19 15.5t-20 16t-19 12.5t-4 16t16 4.5t20 -13.5z" />
    <glyph glyph-name="uacute" unicode="&#xfa;" horiz-adv-x="274" 
d="M72 293q-36 -104 -44 -166q-7 -54 4 -83q11 -30 45 -29q38 1 78 70q28 50 47 115q3 7 8.5 23.5t6.5 20.5q4 27 8 44q1 1 1 2q2 5 7 7t8.5 0.5t5.5 -4.5l1 -2l2 -4v-6q0 -8 -1 -13q-2 -11 -8 -30q-7 -54 -5 -108q2 -49 12 -81q11 -36 29 -47q10 -6 4 -16t-16 -4
q-27 15 -40 60q-11 35 -13 87q-1 11 -1 22q-16 -44 -35 -77q-46 -82 -99 -83q-51 -1 -68 45q-13 34 -5 94q9 64 46 171q4 11 15 7t7 -15zM120 330q16 8 56 45q9 8 17 -1t-1 -17q-42 -39 -60 -49q-11 -5 -16.5 5.5t4.5 16.5z" />
    <glyph glyph-name="ucircumflex" unicode="&#xfb;" horiz-adv-x="274" 
d="M72 293q-36 -104 -44 -166q-7 -54 4 -83q11 -30 45 -29q38 1 78 70q28 50 47 115q3 7 8.5 23.5t6.5 20.5q4 27 8 44q1 1 1 2q2 5 7 7t8.5 0.5t5.5 -4.5l1 -2l2 -4v-6q0 -8 -1 -13q-2 -11 -8 -30q-7 -54 -5 -108q2 -49 12 -81q11 -36 29 -47q10 -6 4 -16t-16 -4
q-27 15 -40 60q-11 35 -13 87q-1 11 -1 22q-16 -44 -35 -77q-46 -82 -99 -83q-51 -1 -68 45q-13 34 -5 94q9 64 46 171q4 11 15 7t7 -15zM96 361q20 17 36 41l10 16q6 8 11 12q9 7 20 1q6 -4 13 -14q8 -11 36 -61q6 -11 -4.5 -16.5t-15.5 4.5q-28 49 -35 59q-2 3 -3 4l-2 -3
l-10 -15q-18 -27 -40 -46q-9 -8 -17 1t1 17z" />
    <glyph glyph-name="udieresis" unicode="&#xfc;" horiz-adv-x="274" 
d="M72 293q-36 -104 -44 -166q-7 -54 4 -83q11 -30 45 -29q38 1 78 70q28 50 47 115q3 7 8.5 23.5t6.5 20.5q4 27 8 44q1 1 1 2q2 5 7 7t8.5 0.5t5.5 -4.5l1 -2l2 -4v-6q0 -8 -1 -13q-2 -11 -8 -30q-7 -54 -5 -108q2 -49 12 -81q11 -36 29 -47q10 -6 4 -16t-16 -4
q-27 15 -40 60q-11 35 -13 87q-1 11 -1 22q-16 -44 -35 -77q-46 -82 -99 -83q-51 -1 -68 45q-13 34 -5 94q9 64 46 171q4 11 15 7t7 -15zM139 386q12 0 12 -12t-12 -12t-12 12t12 12zM195 386q12 0 12 -12t-12 -12t-12 12t12 12z" />
    <glyph glyph-name="yacute" unicode="&#xfd;" horiz-adv-x="375" 
d="M272 4q-42 -12 -78 -30q-97 -50 -111 -124q-3 -14 1 -29.5t13 -23.5q30 -28 79 -20q48 7 65 44q20 44 30 155q1 6 1 28zM124 297q-9 -13 -23.5 -58t-23.5 -91q-10 -54 -6 -86q3 -32 19 -34q43 -6 86 54q25 36 57 108q16 37 30 99l1 5q1 4 2 6q1 4 3 7q5 8 13 6q7 -2 9 -9
q2 -5 3 -21q1 -17 2 -37q1 -42 1 -105v-107q38 8 71 8q12 0 12 -12t-12 -12q-33 0 -72 -8q0 -29 -1 -36q-10 -115 -32 -163t-84 -58q-59 -9 -98 26q-14 13 -19.5 35t-2.5 40q16 86 124 141q41 21 89 34q1 51 1 112q0 50 -1 86q-7 -24 -17 -47q-34 -75 -59 -112
q-52 -72 -110 -64q-33 5 -39 55q-4 36 7 93q8 48 23.5 95.5t26.5 63.5q7 10 17 3t3 -17zM166 405q26 31 62 79q8 10 17.5 2.5t2.5 -16.5q-37 -49 -64 -81q-8 -9 -17 -1t-1 17z" />
    <glyph glyph-name="thorn" unicode="&#xfe;" horiz-adv-x="307" 
d="M77 248q-4 -80 -14 -159q68 -6 129 12q41 11 66 44.5t28.5 72t-14 77.5t-54.5 61q-40 24 -84 -17q-38 -36 -54 -86q0 -3 -3 -5zM65 687q21 -191 15 -378q17 28 38 48q56 53 112 19q43 -25 63.5 -70.5t16.5 -90.5t-33 -84.5t-79 -53.5q-65 -18 -138 -12q-11 -79 -26 -157
q-3 -12 -14.5 -9.5t-9.5 13.5q75 375 31 773q0 5 3 8.5t8 4t8.5 -2.5t4.5 -8z" />
    <glyph glyph-name="ydieresis" unicode="&#xff;" horiz-adv-x="375" 
d="M272 4q-42 -12 -78 -30q-97 -50 -111 -124q-3 -14 1 -29.5t13 -23.5q30 -28 79 -20q48 7 65 44q20 44 30 155q1 6 1 28zM124 297q-9 -13 -23.5 -58t-23.5 -91q-10 -54 -6 -86q3 -32 19 -34q43 -6 86 54q25 36 57 108q16 37 30 99l1 5q1 4 2 6q1 4 3 7q5 8 13 6q7 -2 9 -9
q2 -5 3 -21q1 -17 2 -37q1 -42 1 -105v-107q38 8 71 8q12 0 12 -12t-12 -12q-33 0 -72 -8q0 -29 -1 -36q-10 -115 -32 -163t-84 -58q-59 -9 -98 26q-14 13 -19.5 35t-2.5 40q16 86 124 141q41 21 89 34q1 51 1 112q0 50 -1 86q-7 -24 -17 -47q-34 -75 -59 -112
q-52 -72 -110 -64q-33 5 -39 55q-4 36 7 93q8 48 23.5 95.5t26.5 63.5q7 10 17 3t3 -17zM174 364q12 0 12 -12t-12 -12t-12 12t12 12zM229 362q12 0 12 -12t-12 -12t-12 12t12 12z" />
    <glyph glyph-name="OE" unicode="&#x152;" horiz-adv-x="664" 
d="M459 358q-5 61 -25 115t-53.5 98t-85 72t-114.5 32h-2q-63 -20 -110 -120q-49 -106 -52 -238q-2 -139 52 -224q62 -95 181 -88q68 4 118 52.5t73 121.5t19 158v11q-2 3 -2 6q0 2 1 4zM318 659q42 4 134 24q93 20 139 23q5 0 9 -3t4 -8t-3 -9t-8 -4q-49 -3 -136 -22
q-82 -18 -110 -22q59 -45 93 -117t42 -155q75 1 141 17q12 2 14.5 -9.5t-8.5 -14.5q-68 -15 -145 -17v-4q4 -94 -25.5 -178.5t-88.5 -132.5q37 -2 87 2t111 12t86 10q5 0 9 -3t4 -8t-3 -9t-8 -4q-23 -2 -72.5 -8.5t-83 -10t-83.5 -6t-74 3.5q-1 0 -2 1q-41 -23 -89 -26
q-134 -8 -203 99q-58 91 -56 238q3 136 55 247q56 120 138 137q7 1 11 -4q66 -7 120 -39h1z" />
    <glyph glyph-name="oe" unicode="&#x153;" horiz-adv-x="521" 
d="M109 314q-39 -29 -57 -84q-18 -54 -9 -108q9 -56 41 -84q36 -30 91 -15q56 15 78 63q22 49 8 107q-13 56 -54 91q-41 36 -98 30zM253 43q-28 -32 -72 -44q-67 -18 -112 21q-40 33 -50 98q-9 58 9.5 117t61.5 94q2 7 9 8h1q6 3 11 1q72 6 123 -46q23 49 66.5 71t86.5 15
q46 -7 69 -41q25 -37 7 -89q-11 -34 -28.5 -53.5t-51.5 -32.5q-55 -23 -93 -12q0 -48 -22 -86q2 -2 6.5 -11t8.5 -13q44 -50 124 -15q34 15 62 41t39 53q4 12 15.5 7.5t6.5 -15.5q-13 -33 -44.5 -62.5t-69.5 -45.5q-36 -19 -79 -15t-72 36q-5 6 -11 18zM290 176q30 -14 85 8
q28 11 42 27t24 45q13 41 -5 68q-17 25 -52 30q-37 6 -74 -13.5t-56 -63.5q-1 -3 -4 -5q25 -32 34 -74q3 -11 4 -22h2z" />
    <glyph glyph-name="quoteleft" unicode="&#x2018;" horiz-adv-x="142" 
d="M135 716q-40 -16 -53 -50.5t-13 -91.5q0 -12 -12 -12t-12 12q0 29 2.5 49.5t10 44.5t25 42t44.5 28q11 4 15 -7t-7 -15z" />
    <glyph glyph-name="quoteright" unicode="&#x2019;" horiz-adv-x="126" 
d="M126 726q16 -46 -5.5 -90t-64.5 -68q-11 -5 -16.5 5.5t4.5 16.5q37 19 54.5 55.5t5.5 72.5q-4 12 7.5 15.5t14.5 -7.5z" />
    <glyph glyph-name="quotedblleft" unicode="&#x201c;" horiz-adv-x="224" 
d="M221 724q-36 -37 -54 -72.5t-21 -82.5q0 -5 -4 -8t-9 -3t-8 4t-3 9q3 52 23.5 91.5t59.5 77.5q8 9 16.5 0.5t-0.5 -16.5zM129 733q-36 -37 -54 -72.5t-21 -82.5q0 -5 -4 -8t-9 -3t-8 4t-3 9q3 52 23.5 91.5t59.5 77.5q8 9 16.5 0.5t-0.5 -16.5z" />
    <glyph glyph-name="quotedblright" unicode="&#x201d;" horiz-adv-x="212" 
d="M123 581q35 36 53 72t21 84q0 5 4 8t9 3t8 -4t3 -9q-4 -52 -23.5 -92t-58.5 -78q-8 -9 -16.5 -0.5t0.5 16.5zM39 588q39 40 57 72.5t21 81.5q0 5 4 8t9 3t8 -4t3 -9q-4 -54 -24 -90.5t-62 -77.5q-8 -9 -16.5 -0.5t0.5 16.5z" />
    <glyph glyph-name="perthousand" unicode="&#x2030;" horiz-adv-x="536" 
d="M502 118q-19 -36 -14 -48q2 -3 11 2q16 8 18 22q2 13 -15 24zM491 140q6 9 16 4q39 -22 34 -54q-4 -26 -31 -39q-8 -7 -23 -5.5t-21 14.5q-11 23 18 74q2 4 7 6zM133 487q-19 -36 -14 -48q2 -3 11 2q16 8 18 22q2 13 -15 24zM122 509q6 9 16 4q39 -22 34 -54
q-4 -26 -31 -39q-8 -7 -23 -5.5t-21 14.5q-11 23 18 74q2 4 7 6zM367 119q-19 -36 -14 -48q2 -3 11 2q16 8 18 22q2 13 -15 24zM356 141q6 9 16 4q39 -22 34 -54q-4 -26 -31 -39q-8 -7 -23 -5.5t-21 14.5q-11 23 18 74q2 4 7 6zM68 26q27 87 70.5 172.5t101.5 167
t110.5 146.5t123.5 145q8 9 17 1t1 -17q-71 -80 -123 -144.5t-109 -145t-99.5 -164t-70.5 -169.5q-3 -11 -14.5 -7.5t-7.5 15.5z" />
    <glyph glyph-name="Euro" unicode="&#x20ac;" horiz-adv-x="539" 
d="M499 606q6 47 -7.5 72.5t-38.5 31.5t-58.5 -7t-65.5 -44q-99 -100 -144 -267q61 5 112 -3q12 -2 10 -14t-14 -10q-51 8 -114 3q-8 -35 -13 -71q-3 -19 -5 -37q83 9 154 9q12 0 12 -12t-12 -12q-71 0 -155 -9q-4 -81 16 -135.5t56 -73.5q42 -23 102 8.5t125 123.5
q47 67 60 112q4 12 15.5 8.5t8.5 -14.5q-15 -50 -64 -120q-68 -96 -136 -132t-122 -7q-44 23 -66.5 82.5t-18.5 144.5l-66 -9q-12 -2 -14 10t10 14q40 6 71 9q2 22 5 44q5 33 12 64q-53 -7 -99 -21q-12 -4 -15.5 7.5t7.5 14.5q52 17 113 24q45 178 153 285q34 35 73.5 50.5
t72.5 7.5q36 -8 53.5 -42t10.5 -87q-2 -12 -13.5 -10.5t-10.5 12.5z" />
    <glyph glyph-name="trademark" unicode="&#x2122;" horiz-adv-x="663" 
d="M140 631q35 -131 35 -335q0 -12 -12 -12t-12 12q0 200 -35 329q-48 -17 -86 -24q-12 -2 -14 10t10 14q33 6 68.5 18t85.5 33t68 28q11 5 15.5 -6.5t-7.5 -15.5l-58 -24l-59 -24q0 -2 1 -3zM323 359q-4 47 -5 109v107v93v2l-0.5 2t-1.5 5q-1 5 0 9q2 6 8 9q5 3 11 0
q3 -1 5 -4q1 -1 2 -3t4 -6q2 -5 10 -21l30 -61q43 -86 59 -105l1 1q4 9 10 24l23 72l15 51l13 50l7 27q3 9 5 23l2 9v2v2q1 1 1 2q1 2 2 3q5 5 12 4q5 -2 9 -7q2 -3 3 -7q2 -5 5 -16q5 -17 11 -46l14 -72q32 -174 87 -295q5 -11 -6 -16t-16 6q-56 124 -89 301q-11 58 -14 72
l-4 22l-34 -122q-14 -46 -24 -73q-6 -17 -11 -27q-6 -13 -12 -17q-10 -7 -21 3q-1 1 -3 4l-2 2q-17 19 -64 113l-23 46v-61v-107q1 -61 5 -107q0 -5 -3 -9t-8 -4t-9 3t-4 8z" />
    <glyph glyph-name="uni3000" unicode="&#x3000;" horiz-adv-x="1000" 
 />
    <glyph glyph-name="uniF8FF" unicode="&#xf8ff;" horiz-adv-x="722" 
d="M137 89q24 26 36 45q29 43 12 63q-8 9 -16 11q-4 1 -28 2q-38 2 -74 -11q1 -2 64 -115zM378 -36q-3 -4 -9 -4q-107 0 -153 -11q-10 -2 -19 -5q0 -2 1 -3q1 -4 0 -7q0 -6 -5 -9t-11 -1q-3 1 -6 3l-3 3l-3 3q-45 -23 -50 -68q-2 -16 8 -27q3 -4 15 -4q14 -1 36 3
q48 9 98 36q74 40 101 91zM381 -31q14 30 9 61q-10 61 -79 77q-64 16 -123 -14q-19 -9 -34 -22l-10 -10q29 -52 45 -95q10 4 21 6q50 12 159 12q12 0 12 -12v-3zM390 220q-19 23 -24 46q-1 3 0 6q-8 4 -14 3q-17 -2 -27 -29q-12 -26 -2.5 -61.5t41.5 -51.5q14 -8 20 -3t9 22
q5 33 -3 66v2zM707 132q0 2 -2 8q-6 12 -21 31q-20 25 -80 88l-12 12q23 -48 48 -82q19 -26 35 -41q13 -13 23 -16q6 -3 9 0zM409 240q1 -4 3 -9q6 -7 14 -15q10 -9 20 -16q1 8 -1 19q-1 8 -8 38q-1 8 -7 19q-2 6 -3 8q-1 4 -1 8q2 6 7 8q3 3 8 2q4 -1 8 -4l5 -5
q3 -4 10 -12q17 -25 23 -32q14 -17 25 -23q10 -6 16 -1q18 13 16 60q-1 21 -6 43l-20 24q-19 23 -29 40q-12 21 -9 35q2 7 7 10q6 3 12 1q4 -2 9 -7q3 -2 6.5 -6.5t4.5 -5.5q2 -2 5 -6q-7 75 30 116q22 24 53.5 31t62.5 -8q45 -25 54 -81q8 -46 -10 -88q-8 -20 -19 -30
q-16 -14 -32 -7q-15 6 -25 29t-15 61q-1 12 10.5 13.5t13.5 -9.5q4 -36 13 -56q6 -14 12 -16q2 -1 7 3q7 6 13 21q15 36 9 75q-8 45 -43 63q-21 12 -45.5 6.5t-40.5 -23.5q-45 -50 -12 -162l6 -18l55 -58q61 -63 82 -89q17 -22 24 -36q9 -22 -2 -34q-14 -15 -36 -7
q-14 5 -30 21q-18 17 -39 45q-28 38 -52 90q-3 -43 -26 -60q-19 -13 -42 0q-15 8 -32 29l-1 2l2 -14q5 -34 -8 -47q-4 -5 -11 -4q-1 0 -3 0.5t-4 2.5q-4 2 -9 5q-8 5 -16 12q2 -24 -1 -43q-5 -26 -19 -37q-10 -8 -25 -7q33 -26 41 -70q9 -55 -28 -102t-98 -80
q-53 -29 -105 -39q-24 -5 -42 -3q-22 1 -31 12q-17 19 -14 45q7 62 70 91q-14 39 -39 84l-15 -17l-10 -10l-2 -2q-1 -1 -2.5 -1.5t-2.5 -0.5q-5 -1 -9 1q-6 4 -6 10q0 2 1 4l1 3l1 1l2 3q19 24 29 34l-22 37l-26 46l-22 40q-26 -12 -103 -65q-10 -7 -17 3t3 17l22 15l23 16
l21 13q12 8 23.5 14t22.5 11q2 2 5 4q3 1 7 1q45 17 92 15q26 -1 31 -3q16 -3 29 -18q28 -33 -9 -91q61 23 123 9q6 -2 13 -4q-27 25 -33.5 63.5t6.5 64.5q15 40 46 44q34 5 63 -43q6 -9 -3 -16zM60 569l33 -57l36 -63l63 -98q-2 10 -4 19q-7 51 -7 101t17.5 102.5
t50.5 89.5q8 9 17 1t1 -17q-30 -34 -45.5 -82t-16 -95t6.5 -96q4 -20 17 -62q14 -44 18 -66v-2q1 -5 -5 -10q-3 -2 -6.5 -2t-5.5 1l-2 1q-2 1 -2 3l-2 2l-1 1l-2 6l-8 17l-8 18q-4 8 -4 9q-17 29 -50 80t-42 67q-13 21 -36 62l-33 58q-6 10 4 16t16 -4zM350 419q12 0 12 -12
t-12 -12t-12 12t12 12z" />
    <glyph glyph-name="NULL" horiz-adv-x="0" 
 />
  </font>
</defs>
</svg>
