<?xml version="1.0" standalone="no"?>
<!DOCTYPE svg PUBLIC "-//W3C//DTD SVG 1.1//EN" "http://www.w3.org/Graphics/SVG/1.1/DTD/svg11.dtd" >
<svg xmlns="http://www.w3.org/2000/svg" xmlns:xlink="http://www.w3.org/1999/xlink" version="1.1">
<metadata>
Created by FontForge 20170731 at Mon Apr 29 21:49:30 2013
 By Aleksey,,,
Copyright 2013 Adobe Systems Incorporated. All rights reserved.
</metadata>
<defs>
<font id="Quarca-ConThiIt" horiz-adv-x="447" >
  <font-face 
    font-family="Quarca Cond Thin Italic"
    font-weight="250"
    font-style="italic"
    font-stretch="condensed"
    units-per-em="1000"
    panose-1="0 0 0 0 0 0 0 0 0 0"
    ascent="760"
    descent="-240"
    x-height="505"
    cap-height="710"
    bbox="-96 -300 813 925"
    underline-thickness="50"
    underline-position="-200"
    unicode-range="U+0020-FB06"
  />
<missing-glyph horiz-adv-x="400" 
 />
    <glyph glyph-name="ff" unicode="ff" horiz-adv-x="402" 
d="M502 720q-40 0 -63.5 -26t-36.5 -83l-22 -106h88l-8 -20h-84l-103 -485h-22l103 485h-186l-103 -485h-22l103 485h-69l8 20h65l12 59q27 126 126 126h43l-9 -20h-39q-40 0 -63.5 -26t-35.5 -83l-12 -56h186l23 109q27 126 125 126h43l-9 -20h-38z" />
    <glyph glyph-name="fi" unicode="fi" horiz-adv-x="362" 
d="M294 720q-40 0 -63.5 -26t-36.5 -83l-22 -106h207l-107 -505h-22l103 485h-185l-103 -485h-22l103 485h-69l8 20h65l23 109q27 126 126 126h43l-9 -20h-39zM390 679l9 44h24l-9 -44h-24z" />
    <glyph glyph-name="fl" unicode="fl" horiz-adv-x="367" 
d="M282 210l59 275h-173l-103 -485h-22l103 485h-69l8 20h65l23 109q27 126 126 126h43l-9 -20h-39q-40 0 -63.5 -26t-36.5 -83l-22 -106h173l49 231l17 4h6l-77 -361h1l-60 -281q-16 -79 29 -79h20l-4 -20h-22q-65 0 -45 96l24 115h-1z" />
    <glyph glyph-name="ffi" unicode="ffi" horiz-adv-x="568" 
d="M123 273l-58 -273h-22l27 130h-1l76 355h-68l8 20h64l12 59q27 126 125 126h121q34 60 102 60h123l-9 -20h-118q-40 0 -63.5 -26t-36.5 -83l-24 -116h205l-107 -505h-22l103 485h-183l-63 -295h-1l-40 -190h-22l58 273h1l45 212h-188l-45 -212h1zM282 670
q-40 0 -63.5 -26t-35.5 -83l-12 -56h188l25 119q7 30 14 46h-116z" />
    <glyph glyph-name="ffl" unicode="ffl" horiz-adv-x="562" 
d="M123 273l-58 -273h-22l27 130h-1l76 355h-68l8 20h64l12 59q27 126 125 126h121q34 60 102 60h123l-9 -20h-118q-40 0 -63.5 -26t-36.5 -83l-24 -116h205l-107 -505h-22l103 485h-183l-63 -295h-1l-40 -190h-22l58 273h1l45 212h-188l-45 -212h1zM282 670
q-40 0 -63.5 -26t-35.5 -83l-12 -56h188l25 119q7 30 14 46h-116z" />
    <glyph glyph-name="f_f_j" unicode="ffj" horiz-adv-x="568" 
d="M123 273l-58 -273h-22l27 130h-1l76 355h-68l8 20h64l12 59q27 126 125 126h121q34 60 102 60h123l-9 -20h-118q-40 0 -63.5 -26t-36.5 -83l-24 -116h205l-107 -505h-22l103 485h-183l-63 -295h-1l-40 -190h-22l58 273h1l45 212h-188l-45 -212h1zM282 670
q-40 0 -63.5 -26t-35.5 -83l-12 -56h188l25 119q7 30 14 46h-116z" />
    <glyph glyph-name="f_j" unicode="fj" horiz-adv-x="363" 
d="M353 485h-185l-103 -485h-22l103 485h-69l8 20h65l23 109q27 126 126 126h43l-9 -20h-39q-40 0 -63.5 -26t-36.5 -83l-22 -106h207l-36 -170h2l-84 -394q-23 -106 -105 -106h-20l8 20h16q32 0 50.5 21t29.5 68l12 56h-2zM381 639l10 44h24l-10 -44h-24z" />
    <glyph glyph-name=".notdef" horiz-adv-x="400" 
 />
    <glyph glyph-name=".null" horiz-adv-x="0" 
 />
    <glyph glyph-name="nonmarkingreturn" horiz-adv-x="333" 
 />
    <glyph glyph-name="NULL" horiz-adv-x="666" 
 />
    <glyph glyph-name="NULL" horiz-adv-x="666" 
 />
    <glyph glyph-name="space" unicode=" " horiz-adv-x="170" 
 />
    <glyph glyph-name="exclam" unicode="!" horiz-adv-x="156" 
d="M69 80h-21l144 686l19 4h6zM28 -5l10 44h24l-10 -44h-24z" />
    <glyph glyph-name="quotedbl" unicode="&#x22;" horiz-adv-x="180" 
d="M161 720h24l-41 -169h-15zM230 720h24l-41 -169h-15z" />
    <glyph glyph-name="numbersign" unicode="#" horiz-adv-x="493" 
d="M-10 0l124 223h-79l7 20h85l118 210h-113l7 20h119l134 237h24l-134 -237h138l134 237h24l-134 -237h92l-7 -20h-98l-119 -210h127l-7 -20h-133l-125 -223h-23l125 223h-139l-125 -223h-22zM269 453l-119 -210h139l118 210h-138z" />
    <glyph glyph-name="dollar" unicode="$" horiz-adv-x="407" 
d="M158 -94l-23 -6l22 100h-53q-54 0 -72 31t-4 94l18 86h22l-18 -86q-23 -105 56 -105h128q41 0 64.5 25t35.5 80l18 84q10 45 3 67t-38 41l-154 91q-33 19 -42.5 45.5t0.5 69.5l12 58q14 69 41.5 99t77.5 30h55l20 92l22 5l-21 -97h38q55 0 74.5 -30.5t4.5 -98.5l-17 -80
h-22l17 81q14 60 -1.5 84t-56.5 24h-106q-45 0 -68.5 -25t-36.5 -88l-11 -54q-9 -36 -2 -58.5t35 -38.5l156 -92q35 -20 44 -48t-2 -77l-18 -84q-14 -63 -41.5 -94t-74.5 -31h-62z" />
    <glyph glyph-name="percent" unicode="%" horiz-adv-x="549" 
d="M97 0l403 710h22l-403 -710h-22zM128 627q17 83 89 83h57q72 0 55 -83l-37 -173q-18 -84 -90 -84h-57q-72 0 -54 84zM270 690h-57q-52 0 -66 -66l-36 -168q-13 -66 38 -66h57q52 0 65 66l36 168q8 35 -1 50.5t-36 15.5zM337 257q18 83 90 83h57q72 0 54 -83l-37 -173
q-18 -84 -89 -84h-57q-73 0 -55 84zM480 320h-57q-53 0 -67 -66l-35 -168q-14 -66 38 -66h57q52 0 66 66l35 168q8 35 -1 50.5t-36 15.5z" />
    <glyph glyph-name="ampersand" unicode="&#x26;" horiz-adv-x="507" 
d="M380 690h-88q-42 0 -65.5 -26.5t-36.5 -85.5l-29 -136q-7 -35 6.5 -57t35.5 -22h330l-5 -20h-83l-44 -208q-15 -71 -44 -103t-85 -32h-156q-57 0 -73 32.5t-1 102.5l26 122q7 30 34 62.5t63 35.5q-20 6 -26 36.5t1 51.5l28 132q15 71 44 103t86 32h83q58 0 74.5 -32
t1.5 -103l-16 -74h-23l16 77q13 56 1 84t-55 28zM118 20h159q42 0 65.5 26.5t36.5 85.5l44 211h-217q-46 0 -77 -23.5t-39 -64.5l-26 -123q-13 -56 -1 -84t55 -28z" />
    <glyph glyph-name="quotesingle" unicode="'" horiz-adv-x="111" 
d="M161 720h24l-41 -169h-15z" />
    <glyph glyph-name="parenleft" unicode="(" horiz-adv-x="182" 
d="M279 720h-17q-32 0 -52 -26t-33 -83l-125 -592q-13 -57 -4 -83t41 -26h13l-6 -20h-11q-84 0 -56 126l127 598q26 126 110 126h19z" />
    <glyph glyph-name="parenright" unicode=")" horiz-adv-x="182" 
d="M156 720h-17l2 20h20q81 0 55 -126l-127 -598q-28 -126 -109 -126h-12l2 20h13q32 0 52 26t33 83l125 592q13 57 4 83t-41 26z" />
    <glyph glyph-name="asterisk" unicode="*" horiz-adv-x="291" 
d="M254 724h17l-29 -137l105 76l8 -14l-109 -79l79 -79l-14 -15l-76 77l-30 -142h-17l30 144l-108 -79l-8 14l112 80l-76 79l14 14l73 -76z" />
    <glyph glyph-name="plus" unicode="+" horiz-adv-x="339" 
d="M51 286l8 20h127l32 154h23l-32 -154h132l-9 -20h-128l-33 -158h-23l33 158h-130z" />
    <glyph glyph-name="comma" unicode="," horiz-adv-x="137" 
d="M11 -101h-8l27 144h25l-9 -39z" />
    <glyph glyph-name="hyphen" unicode="-" horiz-adv-x="308" 
d="M301 306l-8 -20h-232l8 20h232z" />
    <glyph glyph-name="period" unicode="." horiz-adv-x="122" 
d="M11 -5l10 44h24l-10 -44h-24z" />
    <glyph glyph-name="slash" unicode="/" horiz-adv-x="285" 
d="M371 740h22l-396 -770h-23z" />
    <glyph glyph-name="zero" unicode="0" horiz-adv-x="455" 
d="M55 135l94 440q15 71 44 103t86 32h125q57 0 73.5 -32.5t1.5 -102.5l-94 -440q-15 -71 -43.5 -103t-84.5 -32h-127q-57 0 -73.5 32.5t-1.5 102.5zM402 690h-126q-43 0 -67.5 -27t-37.5 -85l-94 -446q-14 -57 -2.5 -84.5t57.5 -27.5h128q42 0 65.5 26.5t36.5 85.5l94 446
q14 62 2.5 87t-56.5 25z" />
    <glyph glyph-name="one" unicode="1" horiz-adv-x="178" 
d="M52 0l106 501h-1l39 184l-85 -71l5 25l86 71h22l-150 -710h-22z" />
    <glyph glyph-name="two" unicode="2" horiz-adv-x="399" 
d="M374 690h-117q-43 0 -67 -27t-37 -85l-16 -77h-23l16 74q15 71 44 103t86 32h115q57 0 73.5 -32.5t1.5 -102.5l-16 -74h-1l-3 -13q-18 -84 -81 -115l-205 -104q-65 -33 -84 -119l-27 -130h205q42 0 65.5 26.5t36.5 85.5l16 79h22l-16 -76q-15 -71 -43 -103t-85 -32h-227
l31 149q20 96 98 135l206 105q51 25 66 99l12 57h1l7 33q14 62 2.5 87t-56.5 25z" />
    <glyph glyph-name="three" unicode="3" horiz-adv-x="423" 
d="M105 20h135q42 0 65.5 26.5t36.5 85.5l12 59h-1l16 74q10 46 -9.5 68t-52.5 22h-131l4 20h122q66 0 83 81l26 122q14 57 1.5 84.5t-55.5 27.5h-92q-43 0 -67.5 -27t-37.5 -85l-16 -77h-22l16 74q15 71 44 103t86 32h88q58 0 75.5 -32.5t2.5 -102.5l-26 -122
q-8 -37 -27.5 -59t-43.5 -27q75 -9 55 -100l-28 -132q-15 -71 -43 -103t-85 -32h-133q-57 0 -73.5 32.5t-1.5 102.5l16 76h22l-16 -79q-14 -57 -2.5 -84.5t57.5 -27.5z" />
    <glyph glyph-name="four" unicode="4" horiz-adv-x="416" 
d="M23 146l33 159q13 62 55 107l271 298h28l-284 -313q-36 -40 -48 -92l-29 -139h241l41 194l18 4h6l-42 -198h91l-7 -20h-88l-31 -146h-23l31 146h-263z" />
    <glyph glyph-name="five" unicode="5" horiz-adv-x="396" 
d="M107 20h118q42 0 65.5 26.5t36.5 85.5l11 53h-1l21 98q13 62 -0.5 90.5t-57.5 28.5h-196l65 308h293l-7 -20h-268l-57 -268h172q108 0 80 -134l-17 -77h1l-16 -76q-15 -71 -43.5 -103t-84.5 -32h-117q-57 0 -73 32.5t-1 102.5l16 76h22l-16 -79q-14 -57 -1.5 -84.5
t55.5 -27.5z" />
    <glyph glyph-name="six" unicode="6" horiz-adv-x="428" 
d="M407 280l-32 -151q-14 -66 -43.5 -97.5t-79.5 -31.5h-122q-58 0 -74 32t-2 97l95 446q15 71 44 103t87 32h109q55 0 76 -29.5t5 -105.5l-16 -74h-23l17 79q13 57 0 83.5t-56 26.5h-116q-81 0 -104 -109l-37 -175h202q97 0 70 -126zM334 386h-203l-56 -259
q-22 -107 53 -107h125q40 0 63.5 26t35.5 83l32 153q12 55 -0.5 79.5t-49.5 24.5z" />
    <glyph glyph-name="seven" unicode="7" horiz-adv-x="346" 
d="M124 690l4 20h310l-31 -149q-17 -78 -54 -131l-304 -430h-26l315 444q32 46 47 117l27 129h-288z" />
    <glyph glyph-name="eight" unicode="8" horiz-adv-x="443" 
d="M147 463l15 70h1l9 42q15 71 44 103t85 32h84q58 0 74.5 -32.5t1.5 -102.5l-16 -74h-1l-8 -38q-17 -74 -54 -86q21 -2 35 -24.5t3 -75.5l-30 -142q-15 -71 -43 -103t-85 -32h-133q-58 0 -74 32.5t-1 102.5l14 66h-1l16 76q11 54 37 76t54 24q-43 13 -27 86zM335 365h-130
q-81 0 -100 -90l-14 -64h1l-16 -79q-15 -57 -3 -84.5t57 -27.5h136q42 0 65.5 26.5t36.5 85.5l14 69h-1l16 74q19 90 -62 90zM384 690h-85q-43 0 -67.5 -27t-37.5 -85l-23 -112q-11 -50 4 -65.5t63 -15.5h73q48 0 70.5 15.5t33.5 65.5l23 112q14 62 2.5 87t-56.5 25z" />
    <glyph glyph-name="nine" unicode="9" horiz-adv-x="412" 
d="M333 201l30 140h-181q-56 0 -72 33.5t0 101.5l16 76h1l5 23q15 70 43.5 102t84.5 33h102q57 0 73.5 -32.5t1.5 -102.5l-16 -74h-2l-62 -290h2l-16 -76q-15 -71 -43.5 -103t-84.5 -32h-105q-56 1 -72 34.5t0 100.5l16 76h22l-16 -79q-15 -57 -3 -84.5t57 -27.5h104
q42 0 65.5 26.5t36.5 85.5l14 69h-1zM360 690h-101q-43 0 -67.5 -27t-37.5 -85l-16 -77h-1l-6 -28q-13 -57 -0.5 -84.5t54.5 -27.5h182l32 150h1l14 67q14 62 2.5 87t-56.5 25z" />
    <glyph glyph-name="colon" unicode=":" horiz-adv-x="123" 
d="M11 -5l10 44h24l-10 -44h-24zM105 436l10 44h24l-10 -44h-24z" />
    <glyph glyph-name="semicolon" unicode=";" horiz-adv-x="130" 
d="M11 -101h-8l27 144h25l-9 -39zM83 330l9 44h24l-9 -44h-24z" />
    <glyph glyph-name="less" unicode="&#x3c;" horiz-adv-x="312" 
d="M243 20l-198 276l5 20l314 276l-6 -30l-288 -256l179 -256z" />
    <glyph glyph-name="equal" unicode="=" horiz-adv-x="381" 
d="M108 376l7 20h250l-7 -20h-250zM66 176l6 20h250l-6 -20h-250z" />
    <glyph glyph-name="greater" unicode="&#x3e;" horiz-adv-x="313" 
d="M323 296l-314 -276l6 30l289 256l-180 256l6 30l198 -276z" />
    <glyph glyph-name="question" unicode="?" horiz-adv-x="362" 
d="M308 356l-30 -14q-38 -18 -54 -39.5t-26 -67.5l-28 -134h-22l28 134q12 54 31 80t62 45l35 16q35 16 50 37t23 60l22 104q14 64 1.5 88.5t-58.5 24.5h-106q-81 0 -104 -108l-17 -81h-22l17 80q15 68 46.5 98.5t85.5 30.5h109q51 0 68 -30.5t3 -98.5l-23 -108
q-10 -47 -29.5 -72t-61.5 -45zM124 -5l10 44h24l-10 -44h-24z" />
    <glyph glyph-name="at" unicode="@" horiz-adv-x="573" 
d="M130 20h304l-7 -20h-298q-57 0 -73 32.5t-1 102.5l94 440q15 71 44 103t86 32h266q57 0 73 -32.5t1 -102.5l-59 -274q-23 -111 -101 -111h-18q-27 0 -39.5 14.5t-9.5 29.5q-20 -44 -83 -44h-36q-48 0 -61 27.5t-1 87.5l22 100q13 60 37 87.5t72 27.5h43q47 0 60 -28
t1 -87l-35 -164q-2 -10 7 -20.5t29 -10.5h16q57 0 76 92l58 276q13 56 1.5 84t-54.5 28h-272q-42 0 -65 -26.5t-36 -85.5l-94 -446q-13 -56 -1 -84t54 -28zM275 210h38q38 0 58.5 20t29.5 62l24 116q11 46 1.5 69t-43.5 23h-46q-34 0 -53 -22t-29 -70l-22 -106
q-11 -45 -1.5 -68.5t43.5 -23.5z" />
    <glyph glyph-name="A" unicode="A" horiz-adv-x="412" 
d="M304 710h28l22 -710h-24l-4 170h-242l-76 -170h-23zM316 689l-224 -499h234z" />
    <glyph glyph-name="B" unicode="B" horiz-adv-x="423" 
d="M22 0l150 710h158q142 0 112 -139l-17 -80q-23 -104 -97 -120q97 -12 69 -149l-19 -87q-28 -135 -149 -135h-207zM120 359l-72 -339h183q100 0 124 114l19 88q15 72 -8 104.5t-89 32.5h-157zM190 690l-66 -311h158q97 0 120 109l18 85q13 62 -9 89.5t-83 27.5h-138z" />
    <glyph glyph-name="C" unicode="C" horiz-adv-x="437" 
d="M124 20h142q42 0 65.5 26.5t36.5 85.5l16 79h23l-16 -76q-15 -71 -43.5 -103t-84.5 -32h-141q-57 0 -73.5 32.5t-1.5 102.5l94 440q15 71 44 103t86 32h139q57 0 73.5 -32.5t1.5 -102.5l-16 -74h-22l16 77q14 62 2 87t-57 25h-140q-43 0 -67.5 -27t-37.5 -85l-94 -446
q-14 -57 -2.5 -84.5t57.5 -27.5z" />
    <glyph glyph-name="D" unicode="D" horiz-adv-x="456" 
d="M168 690l4 20h214q69 0 91.5 -40t4.5 -125l-80 -380q-18 -85 -57 -125t-108 -40h-215l4 20h1l142 670h-1zM385 690h-194l-142 -670h191q56 0 89 34.5t49 107.5l82 386q17 73 0.5 107.5t-75.5 34.5z" />
    <glyph glyph-name="E" unicode="E" horiz-adv-x="373" 
d="M190 690l-81 -382h230l-7 -20h-227l-57 -268h271l-7 -20h-290l150 710h291l-7 -20h-266z" />
    <glyph glyph-name="F" unicode="F" horiz-adv-x="366" 
d="M190 690l-81 -382h214l-7 -20h-211l-61 -288h-22l150 710h290l-7 -20h-265z" />
    <glyph glyph-name="G" unicode="G" horiz-adv-x="443" 
d="M248 304l7 20h172l-40 -189q-14 -68 -42.5 -101.5t-83.5 -33.5h-144q-98 0 -72 124l96 451q29 135 114 135h162q98 0 71 -125l-18 -84h-22l17 80q12 57 0.5 83t-51.5 26h-151q-40 0 -63.5 -28t-37.5 -91l-94 -442q-12 -57 1 -83t53 -26h138q43 0 67 25t35 77l39 182h-153
z" />
    <glyph glyph-name="H" unicode="H" horiz-adv-x="451" 
d="M44 0h-22l150 710h22l-87 -412h291l87 412h23l-150 -710h-23l59 278h-291z" />
    <glyph glyph-name="I" unicode="I" horiz-adv-x="137" 
d="M44 0h-22l150 710h22z" />
    <glyph glyph-name="J" unicode="J" horiz-adv-x="243" 
d="M-16 20h70q41 0 65.5 26t36.5 83l123 581h22l-124 -584q-26 -126 -123 -126h-77z" />
    <glyph glyph-name="K" unicode="K" horiz-adv-x="357" 
d="M44 0h-22l150 710h22l-73 -344l322 344h25l-329 -355l181 -355h-26l-177 344z" />
    <glyph glyph-name="L" unicode="L" horiz-adv-x="351" 
d="M194 710l-146 -690h261l-7 -20h-280l150 710h22z" />
    <glyph glyph-name="M" unicode="M" horiz-adv-x="509" 
d="M44 0h-22l150 710h34l80 -398l247 398h33l-150 -710h-22l143 674l-243 -384h-22l-83 394z" />
    <glyph glyph-name="N" unicode="N" horiz-adv-x="464" 
d="M44 0h-22l150 710h22l142 -582l19 -91l143 673h23l-150 -710h-23l-136 559q-16 69 -25 115z" />
    <glyph glyph-name="O" unicode="O" horiz-adv-x="462" 
d="M47 135l94 440q15 71 44 103t86 32h148q57 0 73.5 -32.5t1.5 -102.5l-94 -440q-15 -71 -43.5 -103t-84.5 -32h-150q-57 0 -73.5 32.5t-1.5 102.5zM417 690h-149q-43 0 -67.5 -27t-37.5 -85l-94 -446q-14 -57 -2.5 -84.5t57.5 -27.5h151q42 0 65.5 26.5t36.5 85.5l94 446
q14 62 2.5 87t-56.5 25z" />
    <glyph glyph-name="P" unicode="P" horiz-adv-x="402" 
d="M110 318l-19 -88h1l-48 -230h-22l32 153h-1l118 557h208q49 0 69.5 -32t7.5 -93l-30 -142q-27 -125 -119 -125h-197zM189 690l-75 -352h189q41 0 65 26t37 83l28 134q12 57 -1 83t-54 26h-189z" />
    <glyph glyph-name="Q" unicode="Q" horiz-adv-x="461" 
d="M47 135l94 440q15 71 44 103t86 32h148q57 0 73.5 -32.5t1.5 -102.5l-16 -74h-2l-62 -290h2l-16 -76q-15 -71 -43.5 -103t-84.5 -32h-69l-26 -122h-22l26 122h-59q-57 0 -73.5 32.5t-1.5 102.5zM124 20h61l23 111h22l-23 -111h68q42 0 65.5 26.5t36.5 85.5l14 69h-1
l66 310h1l14 67q14 62 2.5 87t-56.5 25h-149q-43 0 -67.5 -27t-37.5 -85l-94 -446q-14 -57 -2.5 -84.5t57.5 -27.5z" />
    <glyph glyph-name="R" unicode="R" horiz-adv-x="409" 
d="M22 0l150 710h192q112 0 84 -135l-28 -132q-28 -135 -135 -135h-30l107 -308h-26l-108 308h-119l-65 -308h-22zM190 690l-77 -362h174q44 0 71 28.5t40 90.5l26 124q13 62 -1.5 90.5t-58.5 28.5h-174z" />
    <glyph glyph-name="S" unicode="S" horiz-adv-x="406" 
d="M317 317l-154 91q-33 19 -42.5 45.5t0.5 69.5l12 58q14 69 41.5 99t77.5 30h114q55 0 74.5 -30.5t4.5 -98.5l-17 -80h-22l17 81q14 60 -1.5 84t-56.5 24h-106q-45 0 -68.5 -25t-36.5 -88l-11 -54q-9 -36 -2 -58.5t35 -38.5l156 -92q35 -20 44 -48t-2 -77l-18 -84
q-14 -63 -41.5 -94t-74.5 -31h-136q-54 0 -72 31t-4 94l18 86h22l-18 -86q-23 -105 56 -105h128q41 0 64.5 25t35.5 80l18 84q10 45 3 67t-38 41z" />
    <glyph glyph-name="T" unicode="T" horiz-adv-x="336" 
d="M437 690h-147l-146 -690h-22l146 690h-148l4 20h317z" />
    <glyph glyph-name="U" unicode="U" 
d="M242 20q49 0 78 31t43 98l119 561h23l-119 -564q-16 -74 -50.5 -110t-92.5 -36h-110q-114 0 -82 146l119 564h22l-119 -561q-14 -68 0.5 -98.5t62.5 -30.5h106z" />
    <glyph glyph-name="V" unicode="V" horiz-adv-x="402" 
d="M180 0h-29l-12 710h22l8 -657q-1 -6 -1 -17v-16l13 33l285 657h25z" />
    <glyph glyph-name="W" unicode="W" horiz-adv-x="645" 
d="M170 0h-30v710h23l-4 -628l-1 -62q7 30 21 61l245 629h24l-22 -629q-1 -9 -1 -27.5t-2 -29.5q6 21 22 56l264 630h24l-300 -710h-29l23 643q3 30 4 39q-6 -26 -12 -39z" />
    <glyph glyph-name="X" unicode="X" horiz-adv-x="346" 
d="M213 366l214 344h23l-219 -356l67 -354h-22l-65 341l-210 -341h-24l217 354l-70 356h21z" />
    <glyph glyph-name="Y" unicode="Y" horiz-adv-x="392" 
d="M171 0h-22l65 306l-80 404h23l63 -335q8 -42 7 -53q10 21 29 52l205 336h24l-249 -404z" />
    <glyph glyph-name="Z" unicode="Z" horiz-adv-x="343" 
d="M432 690l-421 -670h288l-7 -20h-309l1 20l421 670h-275l1 20h302z" />
    <glyph glyph-name="bracketleft" unicode="[" horiz-adv-x="167" 
d="M29 -106h53l-2 -20h-77l177 836h69l-2 -20h-49z" />
    <glyph glyph-name="backslash" unicode="\" horiz-adv-x="459" 
d="M310 740h22l69 -770h-23z" />
    <glyph glyph-name="bracketright" unicode="]" horiz-adv-x="167" 
d="M190 690h-53l2 20h77l-177 -836h-68l2 20h48z" />
    <glyph glyph-name="asciicircum" unicode="^" horiz-adv-x="400" 
d="M68 390l233 320h18l105 -320h-29l-89 297l-210 -297h-28z" />
    <glyph glyph-name="underscore" unicode="_" horiz-adv-x="471" 
d="M387 0l-8 -20h-371l8 20h371z" />
    <glyph glyph-name="grave" unicode="`" horiz-adv-x="81" 
d="M77 720h27l50 -96h-20z" />
    <glyph glyph-name="a" unicode="a" horiz-adv-x="366" 
d="M385 505l-107 -505h-21l11 58q-37 -58 -93 -58h-59q-102 0 -74 129l54 253q14 65 42.5 97t83.5 32h62q58 0 69 -54l10 48h22zM281 122l57 265q10 49 -5 76.5t-51 27.5h-63q-39 0 -63.5 -24.5t-36.5 -80.5l-56 -260q-23 -106 53 -106h66q33 0 60 26.5t39 75.5z" />
    <glyph glyph-name="b" unicode="b" horiz-adv-x="366" 
d="M121 0q-62 0 -71 54l-11 -54h-22l156 736l18 4h5l-61 -286q33 57 92 57h57q56 0 74 -32t4 -97l-55 -253q-14 -66 -41 -97.5t-79 -31.5h-66zM123 396l-57 -268q-11 -52 3.5 -80t51.5 -28h66q37 0 61 24.5t36 81.5l53 250q14 65 1 90t-61 25h-56q-34 0 -60.5 -25.5
t-37.5 -69.5z" />
    <glyph glyph-name="c" unicode="c" horiz-adv-x="345" 
d="M276 491h-58q-43 0 -66.5 -27t-35.5 -85l-53 -248q-13 -61 0.5 -86t54.5 -25h56q47 0 67.5 21t32.5 79l9 40h22l-10 -45q-14 -64 -40 -89.5t-78 -25.5h-58q-55 0 -73.5 32t-3.5 100l51 244q16 71 44 103t84 32h54q58 0 74.5 -32.5t0.5 -102.5l-7 -35h-22l8 38
q13 59 1 85.5t-54 26.5z" />
    <glyph glyph-name="d" unicode="d" horiz-adv-x="366" 
d="M434 740l-157 -740h-21l11 58q-37 -58 -93 -58h-59q-102 0 -74 129l54 253q14 65 42.5 97t83.5 32h62q58 0 69 -54l59 279l18 4h5zM181 20q34 0 62 28.5t39 79.5l55 259q10 49 -5 76.5t-51 27.5h-63q-39 0 -63.5 -24.5t-36.5 -80.5l-56 -260q-23 -106 53 -106h66z" />
    <glyph glyph-name="e" unicode="e" horiz-adv-x="348" 
d="M117 20h61q42 0 65 26.5t36 85.5l3 18h22l-3 -15q-15 -70 -42.5 -102.5t-83.5 -32.5h-57q-58 0 -74.5 32.5t-1.5 102.5l56 264q12 58 40.5 85t85.5 27h47q58 0 76.5 -27t6.5 -85l-10 -55q-12 -57 -38.5 -82t-85.5 -25h-134l-22 -105q-14 -54 -2.5 -83t55.5 -29zM276 491
h-59q-42 0 -64.5 -22.5t-32.5 -69.5l-30 -142h131q47 0 69 20.5t32 66.5l11 55q10 47 -2.5 69.5t-54.5 22.5z" />
    <glyph glyph-name="f" unicode="f" horiz-adv-x="189" 
d="M294 720q-40 0 -63.5 -26t-36.5 -83l-22 -106h84l-8 -20h-80l-103 -485h-22l103 485h-69l8 20h65l23 109q27 126 125 126h43l-9 -20h-38z" />
    <glyph glyph-name="g" unicode="g" horiz-adv-x="359" 
d="M118 79h105q57 0 73.5 -30t3.5 -95l-10 -46q-14 -65 -42 -95t-84 -30h-109q-58 0 -75 30t-4 95l10 46q11 52 30.5 81t54.5 39q-14 12 -7 41l1 5q7 34 33 44q-47 25 -25 125l17 81q15 70 43 102.5t85 32.5h44q42 0 64 -20l68 61l10 -15l-67 -61q16 -31 2 -100l-17 -81
q-15 -71 -43.5 -103t-85.5 -32h-49q-28 0 -40.5 -6.5t-16.5 -28.5l-1 -4q-4 -20 3 -27.5t29 -8.5zM108 59q-43 0 -65.5 -24.5t-34.5 -77.5l-11 -52q-11 -53 1.5 -77.5t55.5 -24.5h114q43 0 65.5 24.5t33.5 77.5l11 52q12 53 -0.5 77.5t-55.5 24.5h-114zM265 485h-50
q-43 0 -66.5 -26.5t-35.5 -85.5l-19 -87q-13 -56 -0.5 -84t54.5 -28h50q42 0 65.5 27t35.5 85l19 87q13 57 1 84.5t-54 27.5z" />
    <glyph glyph-name="h" unicode="h" horiz-adv-x="357" 
d="M126 414l-87 -414h-22l156 736l18 4h5l-60 -282q36 53 90 53h53q53 0 69.5 -30.5t3.5 -94.5l-82 -386h-22l82 386q12 57 0 81t-52 24h-57q-34 0 -60 -24.5t-35 -52.5z" />
    <glyph glyph-name="i" unicode="i" horiz-adv-x="133" 
d="M125 485h-41l4 20h63l-107 -505h-22zM159 666l9 44h24l-9 -44h-24z" />
    <glyph glyph-name="j" unicode="j" horiz-adv-x="133" 
d="M125 485h-41l4 20h63l-120 -564q-23 -106 -103 -106h-21l8 20h16q31 0 49.5 21t29.5 68zM160 666l9 44h24l-9 -44h-24z" />
    <glyph glyph-name="k" unicode="k" horiz-adv-x="290" 
d="M347 505l-236 -255l128 -250h-25l-125 239l-50 -239h-22l156 736l18 4h5l-101 -476l225 241h27z" />
    <glyph glyph-name="l" unicode="l" horiz-adv-x="146" 
d="M62 210l112 526l18 4h5l-77 -361h1l-60 -281q-16 -79 29 -79h20l-4 -20h-22q-65 0 -45 96l24 115h-1z" />
    <glyph glyph-name="m" unicode="m" horiz-adv-x="564" 
d="M18 0l106 501l17 4h6l-9 -40q39 40 98 40h33q65 0 75 -51q43 51 109 51h33q52 0 68.5 -30.5t2.5 -94.5l-80 -380h-22l80 380q12 56 -1.5 80.5t-53.5 24.5h-35q-35 0 -63.5 -19t-35.5 -39q-2 -31 -6 -47l-80 -380h-22l80 380q12 56 -1.5 80.5t-53.5 24.5h-35
q-33 0 -60.5 -17t-36.5 -37l-91 -431h-22z" />
    <glyph glyph-name="n" unicode="n" horiz-adv-x="357" 
d="M17 0l106 501l17 4h6l-10 -47q36 53 90 53h53q53 0 69.5 -30.5t3.5 -94.5l-82 -386h-22l82 386q12 57 0 81t-52 24h-57q-34 0 -60 -24.5t-35 -52.5l-87 -414h-22z" />
    <glyph glyph-name="o" unicode="o" horiz-adv-x="363" 
d="M93 376q16 71 44 103t83 32h60q57 0 74.5 -33t2.5 -102l-53 -251q-14 -64 -43 -94.5t-81 -30.5h-62q-105 0 -78 125zM282 491h-64q-43 0 -66.5 -27t-35.5 -85l-53 -248q-13 -61 0.5 -86t54.5 -25h64q41 0 65 25t36 86l53 248q13 57 0.5 84.5t-54.5 27.5z" />
    <glyph glyph-name="p" unicode="p" horiz-adv-x="366" 
d="M50 54l-58 -274h-22l153 721l17 4h6l-11 -51q33 57 92 57h57q56 0 74 -32t4 -97l-55 -253q-14 -66 -41 -97.5t-79 -31.5h-66q-62 0 -71 54zM221 491q-34 0 -60.5 -25.5t-37.5 -69.5l-57 -268q-11 -52 3.5 -80t51.5 -28h66q37 0 61 24.5t36 81.5l53 250q14 65 1 90t-61 25
h-56z" />
    <glyph glyph-name="q" unicode="q" horiz-adv-x="367" 
d="M278 0h-1l-47 -220h-22l51 243h1l8 34q-37 -57 -93 -57h-59q-102 0 -74 129l54 253q14 65 42.5 97t83.5 32h62q58 0 69 -54l10 48h22zM182 20q34 0 62 28.5t39 79.5l55 259q10 49 -5 76.5t-51 27.5h-63q-39 0 -63.5 -24.5t-36.5 -80.5l-56 -260q-23 -106 53 -106h66z" />
    <glyph glyph-name="r" unicode="r" horiz-adv-x="221" 
d="M282 492l-103 -43q-50 -22 -62 -79l-78 -370h-22l106 501l17 4h6l-15 -72q14 21 47 36l99 42h7z" />
    <glyph glyph-name="s" unicode="s" horiz-adv-x="320" 
d="M252 491h-49q-38 0 -58 -20t-29 -62l-4 -23q-4 -18 -4 -31.5t2 -21.5t11 -16t14.5 -11t21.5 -12l79 -41q29 -15 40 -37.5t1 -70.5l-8 -40q-12 -55 -37 -80t-77 -25h-61q-53 0 -68 27.5t-2 87.5l7 34h22l-8 -37q-10 -49 1 -70.5t49 -21.5h65q38 0 58 19.5t29 62.5l9 42
q9 39 0.5 59t-34.5 34l-77 40q-19 10 -25.5 14t-17.5 13.5t-13 19t-3 26t4 39.5l4 17q11 54 36.5 79.5t77.5 25.5h45q53 0 68 -27.5t2 -87.5l-6 -25h-21l6 28q10 47 -1 69.5t-49 22.5z" />
    <glyph glyph-name="t" unicode="t" horiz-adv-x="207" 
d="M255 505l-6 -20h-86l-76 -356q-12 -57 0 -83t50 -26h35l-2 -20h-35q-97 0 -71 126l77 359h-63l6 20h61l29 136l18 4h5l-30 -140h88z" />
    <glyph glyph-name="u" unicode="u" horiz-adv-x="355" 
d="M373 505l-107 -505h-21l11 55q-41 -55 -101 -55h-42q-99 0 -72 125l81 380h22l-81 -380q-12 -56 2 -80.5t54 -24.5h43q36 0 65.5 26t37.5 53h1l5 27l80 379h22z" />
    <glyph glyph-name="v" unicode="v" horiz-adv-x="328" 
d="M144 0h-30l-17 505h22l13 -485l218 485h23z" />
    <glyph glyph-name="w" unicode="w" horiz-adv-x="524" 
d="M137 0h-30l-9 505h22l4 -485l196 485h27l-14 -485l212 485h24l-223 -505h-30l9 435q0 31 1 38q-8 -26 -14 -38z" />
    <glyph glyph-name="x" unicode="x" horiz-adv-x="311" 
d="M173 261l165 244h25l-175 -258l71 -247h-25l-64 231l-163 -231h-26l175 247l-67 258h25z" />
    <glyph glyph-name="y" unicode="y" horiz-adv-x="332" 
d="M-30 -205q61 0 94 72l56 122h-6l-17 516h23l15 -483l220 483h24l-296 -639q-21 -46 -45 -68.5t-71 -22.5h-38l7 20h34z" />
    <glyph glyph-name="z" unicode="z" horiz-adv-x="297" 
d="M338 485l-321 -465h228l-7 -20h-249l1 20l321 465h-218l2 20h244z" />
    <glyph glyph-name="braceleft" unicode="{" horiz-adv-x="235" 
d="M139 -106h18l-2 -20h-20q-24 0 -40 5.5t-23.5 20t-10.5 28.5t0.5 43t7.5 50.5t13 63.5l18 85q13 52 1.5 82t-52.5 30h-14l5 20h10q44 0 66 26t35 86l32 147q18 85 45.5 117t83.5 32h12l-2 -20h-14q-44 0 -66 -29t-37 -100l-31 -144q-21 -101 -74 -125q43 -24 21 -125
l-35 -164q-13 -55 -0.5 -82t53.5 -27z" />
    <glyph glyph-name="bar" unicode="|" horiz-adv-x="150" 
d="M-4 -250h-21l217 1023l18 4h5z" />
    <glyph glyph-name="braceright" unicode="}" horiz-adv-x="235" 
d="M-38 -106h16q41 0 64 26t35 83l35 164q22 101 75 125q-43 23 -22 125l31 144q16 68 5.5 98.5t-54.5 30.5h-14l6 20h12q56 0 70.5 -32t-3.5 -117l-32 -147q-13 -57 -1 -84.5t56 -27.5h10l-5 -20h-14q-41 0 -63 -28t-34 -84l-18 -85q-9 -43 -14 -63.5t-14 -50t-18 -43.5
t-22.5 -28.5t-31.5 -20t-42 -5.5h-19z" />
    <glyph glyph-name="asciitilde" unicode="~" horiz-adv-x="266" 
d="M247 315l-5 -24q-14 33 -35 33q-14 0 -44 -22.5t-44 -22.5q-27 0 -40 30l5 24q16 -33 35 -33q14 0 44.5 22.5t44.5 22.5q26 0 39 -30z" />
    <glyph glyph-name="exclamdown" unicode="&#xa1;" horiz-adv-x="142" 
d="M111 410h22l-144 -676l-18 -4h-5zM122 469l10 44h24l-10 -44h-24z" />
    <glyph glyph-name="cent" unicode="&#xa2;" horiz-adv-x="344" 
d="M284 577l-14 -66h6q56 0 72 -32.5t1 -102.5l-7 -35h-21l8 38q13 54 1 83t-55 29h-49q-43 0 -67 -27t-36 -85l-53 -248q-13 -60 0.5 -85.5t55.5 -25.5h48q46 0 68.5 30t40.5 110h21l-8 -35q-27 -125 -124 -125h-10l-13 -60h-22l13 60h-19q-53 0 -70.5 31t-3.5 94l53 251
q16 70 45.5 102.5t86.5 32.5h16l13 62l17 4h6z" />
    <glyph glyph-name="sterling" unicode="&#xa3;" horiz-adv-x="399" 
d="M280 346l-7 -20h-111q-43 -163 -138 -306h320l-7 -20h-342l4 20q42 61 71 118q42 83 69 188h-83l7 20h81l6 30q6 27 16 83q3 18 5.5 39t4 34t3.5 19q18 86 46 122.5t90 36.5h46q57 0 73 -32.5t1 -102.5l-10 -44h-22l10 47q14 56 1.5 84t-55.5 28h-50q-42 0 -65.5 -26.5
t-36.5 -85.5l-3 -16q-2 -12 -11.5 -77t-19.5 -109q-4 -20 -7 -30h114z" />
    <glyph glyph-name="currency" unicode="&#xa4;" horiz-adv-x="370" 
d="M284 125l-24 37l-39 -38q-32 -31 -55 -31q-18 0 -33 23l-29 47l-37 -35l-11 15l39 36l-26 44q-15 24 -9 50q4 27 36 57l41 40l-23 38l18 15l22 -37l37 37q32 31 56 31q19 0 34 -23l26 -44l37 35l12 -15l-39 -37l29 -47q14 -23 8 -47q-6 -30 -38 -60l-38 -37l24 -39z
M198 127l119 116q13 13 18 30q3 15 -5 29l-69 118q-17 28 -46 -1l-118 -117q-14 -14 -17 -29q-5 -15 5 -28l69 -118q18 -28 44 0z" />
    <glyph glyph-name="yen" unicode="&#xa5;" horiz-adv-x="340" 
d="M145 0h-23l52 246h-111l7 20h108l13 60h-111l7 20h108v1l-62 363h24l55 -342l198 342h24l-216 -364h117l-7 -20h-114l-13 -60h117l-7 -20h-114z" />
    <glyph glyph-name="brokenbar" unicode="&#xa6;" horiz-adv-x="153" 
d="M-2 -250h-22l85 399h22zM217 777l-88 -413h-22l87 409l18 4h5z" />
    <glyph glyph-name="section" unicode="&#xa7;" horiz-adv-x="363" 
d="M355 311l-11 -48h1l-11 -53q-15 -70 -40.5 -100.5t-74.5 -30.5h-32l17 -7q34 -15 48.5 -38t4.5 -68l-10 -46q-12 -60 -39.5 -87.5t-78.5 -27.5h-50q-56 0 -72 30t-3 93l10 48h21l-11 -52q-10 -50 2 -74.5t55 -24.5h54q39 0 60.5 24t31.5 73l9 43q8 37 -3.5 53t-47.5 34
l-99 49q-34 17 -41.5 32t1.5 71l10 48h-1l11 53q15 70 41 100.5t74 30.5h32l-16 7q-35 14 -49.5 37.5t-4.5 68.5l10 46q13 60 40 87.5t78 27.5h49q57 0 73 -30t3 -93l-10 -48h-21l11 52q11 50 -1.5 74.5t-55.5 24.5h-55q-38 0 -59 -24t-31 -73l-10 -43q-8 -37 3.5 -53
t47.5 -34l99 -49q18 -9 26 -14.5t15 -17t6.5 -28t-6.5 -43.5zM97 122l41 -20l80 -2q39 -1 60 25t33 81l22 103q7 40 1 55.5t-32 28.5l-40 20l-79 2q-39 1 -61 -25t-34 -81l-10 -46h1l-12 -57q-7 -40 -1.5 -55.5t31.5 -28.5z" />
    <glyph glyph-name="dieresis" unicode="&#xa8;" horiz-adv-x="666" 
d="M365 679h22l-8 -36h-22zM461 679h22l-8 -36h-22z" />
    <glyph glyph-name="copyright" unicode="&#xa9;" horiz-adv-x="566" 
d="M585 545l-80 -380q-30 -135 -153 -135h-198q-125 0 -95 135l80 380q29 135 153 135h198q124 0 95 -135zM158 50h198q53 0 84.5 31t46.5 98l76 362q13 62 -5.5 90.5t-71.5 28.5h-198q-53 0 -84.5 -28.5t-44.5 -90.5l-76 -362q-15 -67 3.5 -98t71.5 -31zM378 499h-51
q-51 0 -62 -54l-38 -180q-12 -55 38 -55h62q20 0 32.5 18t22.5 65h18l-1 -4q-22 -99 -78 -99h-61q-70 0 -53 81l36 167q17 81 87 81h54q64 0 47 -81l-6 -28h-20l6 29q7 33 -1.5 46.5t-31.5 13.5z" />
    <glyph glyph-name="ordfeminine" unicode="&#xaa;" horiz-adv-x="233" 
d="M222 429l4 20q-20 -20 -49 -20h-27q-55 0 -43 59l11 50q14 63 60 63h79l8 38q11 53 -13 53h-46q-16 0 -25.5 -12t-15.5 -41l-4 -21h-18l5 23q15 69 61 69h47q44 0 29 -69l-45 -212h-18zM154 447h29q21 0 34 12.5t17 30.5l19 93h-80q-11 0 -21.5 -10.5t-13.5 -26.5
l-14 -62q-7 -37 30 -37z" />
    <glyph glyph-name="guillemotleft" unicode="&#xab;" horiz-adv-x="285" 
d="M141 69h-27l-66 183l144 183h27l-144 -183zM226 69h-28l-66 183l144 183h28l-144 -183z" />
    <glyph glyph-name="logicalnot" unicode="&#xac;" horiz-adv-x="428" 
d="M377 267l4 17h-303l4 20h325l-8 -37h-22z" />
    <glyph glyph-name="registered" unicode="&#xae;" horiz-adv-x="566" 
d="M585 545l-80 -380q-30 -135 -153 -135h-198q-125 0 -95 135l80 380q29 135 153 135h198q124 0 95 -135zM158 50h198q53 0 84.5 31t46.5 98l76 362q13 62 -5.5 90.5t-71.5 28.5h-198q-53 0 -84.5 -28.5t-44.5 -90.5l-76 -362q-15 -67 3.5 -98t71.5 -31zM207 190l70 329
h102q57 0 45 -62l-15 -69q-13 -60 -63 -60l33 -138h-23l-32 135h-68l-29 -135h-20zM293 499l-33 -154h79q41 0 50 43l15 70q8 41 -32 41h-79z" />
    <glyph glyph-name="macron" unicode="&#xaf;" horiz-adv-x="250" 
d="M329 760l-7 -20h-157l7 20h157z" />
    <glyph glyph-name="degree" unicode="&#xb0;" horiz-adv-x="214" 
d="M216 744h26q55 0 42 -62l-8 -41q-13 -62 -69 -62h-26q-56 0 -43 62l8 41q13 62 70 62zM209 598q39 0 48 41l10 45q8 41 -32 41h-20q-42 0 -50 -41l-10 -45q-8 -41 34 -41h20z" />
    <glyph glyph-name="plusminus" unicode="&#xb1;" horiz-adv-x="384" 
d="M94 381l8 20h127l32 154h23l-32 -154h132l-9 -20h-128l-33 -158h-23l33 158h-130zM25 58l7 20h282l-8 -20h-281z" />
    <glyph glyph-name="twosuperior" unicode="&#xb2;" horiz-adv-x="232" 
d="M250 690h-38q-39 0 -48 -43l-2 -9h-19l2 10q14 62 71 62h37q25 0 36 -15.5t5 -42.5l-1 -5q-6 -31 -45 -62l-82 -62q-34 -27 -44 -74h72q21 0 31.5 10t15.5 33l2 9h19l-2 -9q-13 -63 -71 -63h-90l4 20q6 26 15.5 44t17.5 25.5t25 21.5l82 64q25 19 31 47q9 39 -24 39z" />
    <glyph glyph-name="threesuperior" unicode="&#xb3;" horiz-adv-x="227" 
d="M184 449q49 0 60 59q6 28 -7.5 40.5t-34.5 12.5h-22l6 20h29q31 0 43 56q11 53 -38 53h-5q-41 0 -50 -43l-2 -9h-20l2 9q13 63 72 63h10q66 0 51 -73l-2 -11q-9 -42 -38 -57q16 -5 23 -21.5t2 -36.5l-1 -6q-17 -76 -82 -76h-30q-58 0 -44 65l1 7h19l-1 -7q-11 -45 29 -45
h30z" />
    <glyph glyph-name="acute" unicode="&#xb4;" horiz-adv-x="415" 
d="M174 624h-21l86 106h28z" />
    <glyph glyph-name="mu" unicode="&#xb5;" horiz-adv-x="352" 
d="M373 505l-107 -505h-20l10 54q-40 -54 -100 -54h-42q-53 0 -70 36l-37 -175h-22l82 384h1l55 260h22l-81 -380q-12 -56 2 -80.5t54 -24.5h43q36 0 65.5 26t37.5 53l5 27l80 379h22z" />
    <glyph glyph-name="paragraph" unicode="&#xb6;" horiz-adv-x="428" 
d="M268 -171l159 749q14 57 1.5 84.5t-55.5 27.5h-22l-183 -861h-23l108 506h-94q-57 0 -73 32.5t-1 102.5l23 105q15 71 44 103t86 32h137q57 0 73 -32.5t1 -102.5l-159 -746h-22zM161 355h96l71 335h-96q-42 0 -65.5 -26.5t-36.5 -85.5l-23 -111q-13 -57 -0.5 -84.5
t54.5 -27.5z" />
    <glyph glyph-name="periodcentered" unicode="&#xb7;" horiz-adv-x="122" 
d="M70 271l9 44h24l-9 -44h-24z" />
    <glyph glyph-name="cedilla" unicode="&#xb8;" horiz-adv-x="667" 
d="M255 -64l-15 2q-21 3 -14 36l8 39h20l-7 -32q-4 -21 7 -23l20 -4q24 -4 17 -43l-3 -13q-12 -52 -58 -52h-15q-46 0 -35 46l3 14h19l-3 -13q-6 -28 19 -28h16q28 0 34 30l3 13q5 24 -16 28z" />
    <glyph glyph-name="onesuperior" unicode="&#xb9;" horiz-adv-x="137" 
d="M145 690h-11l1 20h10q59 0 45 -63l-46 -218h-20l46 219q10 42 -25 42z" />
    <glyph glyph-name="ordmasculine" unicode="&#xba;" horiz-adv-x="241" 
d="M112 492l33 155q13 63 71 63h37q59 0 45 -63l-33 -155q-13 -63 -71 -63h-37q-58 0 -45 63zM161 449h38q37 0 46 43l33 155q5 23 -1 33t-27 10h-38q-21 0 -32 -10t-16 -33l-33 -155q-5 -23 2 -33t28 -10z" />
    <glyph glyph-name="guillemotright" unicode="&#xbb;" horiz-adv-x="285" 
d="M42 69h-27l144 183l-66 183h27l66 -183zM127 69h-28l144 183l-66 183h28l66 -183z" />
    <glyph glyph-name="onequarter" unicode="&#xbc;" horiz-adv-x="465" 
d="M47 0l403 710h22l-403 -710h-22zM145 684h-15l1 26h13q77 0 59 -82l-61 -287h-26l61 288q11 55 -32 55zM234 82l16 77q7 31 29 57l140 153h30l-152 -170q-17 -19 -24 -50l-9 -41h97l16 75l20 5h6l-17 -80h42l-7 -26h-40l-17 -82h-25l17 82h-122z" />
    <glyph glyph-name="onehalf" unicode="&#xbd;" horiz-adv-x="528" 
d="M47 0l403 710h22l-403 -710h-22zM145 684h-15l1 26h13q77 0 59 -82l-61 -287h-26l61 288q11 55 -32 55zM462 343h-50q-51 0 -62 -56l-3 -12h-25l3 13q17 81 93 81h49q32 0 46.5 -20.5t6.5 -55.5l-1 -6q-9 -42 -60 -82l-108 -81q-44 -38 -57 -97h94q51 0 62 56l3 12h25
l-3 -12q-18 -83 -93 -83h-118l5 27q8 34 20.5 57.5t23.5 34t33 27.5l106 84q33 25 42 62q10 51 -32 51z" />
    <glyph glyph-name="threequarters" unicode="&#xbe;" horiz-adv-x="549" 
d="M132 0l403 710h22l-403 -710h-22zM319 82l16 77q7 31 29 57l140 153h30l-152 -170q-17 -19 -24 -50l-9 -41h97l16 75l20 5h6l-17 -80h42l-7 -26h-40l-17 -82h-25l17 82h-122zM185 368q63 0 79 77q8 37 -10 53.5t-46 16.5h-29l8 26h38q41 0 57 73q8 37 -4 53.5t-46 16.5
h-6q-55 0 -66 -56l-3 -12h-26l3 12q18 82 94 82h13q88 0 67 -96l-3 -14q-4 -21 -17 -43t-32 -32q20 -7 29 -28t4 -48l-2 -8q-20 -100 -108 -100h-39q-76 0 -59 86l2 9h25l-2 -9q-6 -31 2.5 -45t37.5 -14h39z" />
    <glyph glyph-name="questiondown" unicode="&#xbf;" horiz-adv-x="358" 
d="M97 68l-30 -14q-41 -19 -61 -44.5t-30 -72.5l-22 -108q-14 -68 3 -98.5t67 -30.5h109q54 0 86 30.5t46 98.5l17 80h-22l-17 -81q-23 -108 -104 -108h-106q-45 0 -57.5 24.5t0.5 88.5l22 104q9 39 24 60t50 37l34 16q43 20 62.5 46t30.5 79l28 134h-22l-28 -134
q-10 -46 -26 -67.5t-54 -39.5zM227 461l10 44h24l-10 -44h-24z" />
    <glyph glyph-name="Agrave" unicode="&#xc0;" horiz-adv-x="412" 
d="M304 710h28l22 -710h-24l-4 170h-242l-76 -170h-23zM316 689l-224 -499h234zM273 845h27l51 -96h-20z" />
    <glyph glyph-name="Aacute" unicode="&#xc1;" horiz-adv-x="412" 
d="M304 710h28l22 -710h-24l-4 170h-242l-76 -170h-23zM316 689l-224 -499h234zM323 749h-21l85 106h28z" />
    <glyph glyph-name="Acircumflex" unicode="&#xc2;" horiz-adv-x="412" 
d="M304 710h28l22 -710h-24l-4 170h-242l-76 -170h-23zM316 689l-224 -499h234zM338 839h19l57 -90h-26l-42 70h-6l-71 -70h-26z" />
    <glyph glyph-name="Atilde" unicode="&#xc3;" horiz-adv-x="412" 
d="M304 710h28l22 -710h-24l-4 170h-242l-76 -170h-23zM316 689l-224 -499h234zM384 817q20 0 27 -9t2 -30l-4 -20h-18l4 22q5 18 -16 18q-16 0 -27 -11l-26 -25q-13 -14 -38 -14q-23 0 -28.5 9t0.5 30l4 20h18l-5 -22q-2 -10 1 -14t16 -4q8 0 13.5 2.5t7.5 4t11 10.5l19 19
q14 14 39 14z" />
    <glyph glyph-name="Adieresis" unicode="&#xc4;" horiz-adv-x="412" 
d="M304 710h28l22 -710h-24l-4 170h-242l-76 -170h-23zM316 689l-224 -499h234zM275 775h22l-7 -36h-22zM371 775h22l-7 -36h-22z" />
    <glyph glyph-name="Aring" unicode="&#xc5;" horiz-adv-x="412" 
d="M304 710h28l22 -710h-24l-4 170h-242l-76 -170h-23zM316 689l-224 -499h234zM350 884h13q61 0 48 -62l-4 -21q-13 -62 -74 -62h-13q-61 0 -48 62l4 21q13 62 74 62zM387 799l6 25q7 40 -30 40h-21q-38 0 -47 -40l-6 -25q-7 -40 31 -40h21q37 0 46 40z" />
    <glyph glyph-name="AE" unicode="&#xc6;" horiz-adv-x="640" 
d="M740 710l-7 -20h-283l-48 -390h197l-7 -20h-192l-32 -260h213l-7 -20h-230l20 166h-262l-107 -166h-29l464 710h310zM425 668l-311 -482h252z" />
    <glyph glyph-name="Ccedilla" unicode="&#xc7;" horiz-adv-x="437" 
d="M203 -64l-15 2q-21 3 -14 36l6 26h-58q-57 0 -73.5 32.5t-1.5 102.5l94 440q15 71 44 103t86 32h139q57 0 73.5 -32.5t1.5 -102.5l-16 -74h-22l16 77q14 62 2 87t-57 25h-140q-43 0 -67.5 -27t-37.5 -85l-94 -446q-14 -57 -2.5 -84.5t57.5 -27.5h142q42 0 65.5 26.5
t36.5 85.5l16 79h23l-16 -76q-15 -71 -43.5 -103t-84.5 -32h-63l-5 -19q-4 -21 7 -23l20 -4q24 -4 17 -43l-3 -13q-12 -52 -58 -52h-15q-46 0 -35 46l3 14h19l-3 -13q-6 -28 19 -28h16q28 0 34 30l3 13q5 24 -16 28z" />
    <glyph glyph-name="Egrave" unicode="&#xc8;" horiz-adv-x="373" 
d="M190 690l-81 -382h230l-7 -20h-227l-57 -268h271l-7 -20h-290l150 710h291l-7 -20h-266zM277 845h27l51 -96h-20z" />
    <glyph glyph-name="Eacute" unicode="&#xc9;" horiz-adv-x="373" 
d="M190 690l-81 -382h230l-7 -20h-227l-57 -268h271l-7 -20h-290l150 710h291l-7 -20h-266zM327 749h-21l85 106h28z" />
    <glyph glyph-name="Ecircumflex" unicode="&#xca;" horiz-adv-x="373" 
d="M190 690l-81 -382h230l-7 -20h-227l-57 -268h271l-7 -20h-290l150 710h291l-7 -20h-266zM341 839h19l57 -90h-26l-42 70h-6l-71 -70h-26z" />
    <glyph glyph-name="Edieresis" unicode="&#xcb;" horiz-adv-x="373" 
d="M190 690l-81 -382h230l-7 -20h-227l-57 -268h271l-7 -20h-290l150 710h291l-7 -20h-266zM279 775h22l-7 -36h-22zM375 775h22l-7 -36h-22z" />
    <glyph glyph-name="Igrave" unicode="&#xcc;" horiz-adv-x="137" 
d="M44 0h-22l150 710h22zM137 845h27l51 -96h-20z" />
    <glyph glyph-name="Iacute" unicode="&#xcd;" horiz-adv-x="137" 
d="M44 0h-22l150 710h22zM188 749h-21l85 106h28z" />
    <glyph glyph-name="Icircumflex" unicode="&#xce;" horiz-adv-x="137" 
d="M44 0h-22l150 710h22zM202 839h19l57 -90h-26l-42 70h-6l-71 -70h-26z" />
    <glyph glyph-name="Idieresis" unicode="&#xcf;" horiz-adv-x="137" 
d="M44 0h-22l150 710h22zM139 775h22l-7 -36h-22zM235 775h22l-7 -36h-22z" />
    <glyph glyph-name="Eth" unicode="&#xd0;" horiz-adv-x="423" 
d="M171 690l4 20h203q58 0 74.5 -32.5t1.5 -102.5l-16 -74h-1l-62 -290h1l-16 -76q-15 -71 -43.5 -103t-84.5 -32h-207l4 20h5l66 313h-71l8 20h68l71 337h-5zM269 353l-8 -20h-139l-66 -313h179q42 0 65.5 26.5t36.5 85.5l12 60h-1l75 352h1l7 34q14 62 2.5 87t-56.5 25
h-179l-71 -337h142z" />
    <glyph glyph-name="Ntilde" unicode="&#xd1;" horiz-adv-x="464" 
d="M44 0h-22l150 710h22l142 -582l19 -91l143 673h23l-150 -710h-23l-136 559q-16 69 -25 115zM416 817q20 0 27 -9t2 -30l-4 -20h-18l4 22q5 18 -16 18q-16 0 -27 -11l-26 -25q-13 -14 -38 -14q-23 0 -28.5 9t0.5 30l4 20h18l-5 -22q-2 -10 1 -14t16 -4q8 0 13.5 2.5t7.5 4
t11 10.5l19 19q14 14 39 14z" />
    <glyph glyph-name="Ograve" unicode="&#xd2;" horiz-adv-x="462" 
d="M47 135l94 440q15 71 44 103t86 32h148q57 0 73.5 -32.5t1.5 -102.5l-94 -440q-15 -71 -43.5 -103t-84.5 -32h-150q-57 0 -73.5 32.5t-1.5 102.5zM417 690h-149q-43 0 -67.5 -27t-37.5 -85l-94 -446q-14 -57 -2.5 -84.5t57.5 -27.5h151q42 0 65.5 26.5t36.5 85.5l94 446
q14 62 2.5 87t-56.5 25zM302 845h27l51 -96h-20z" />
    <glyph glyph-name="Oacute" unicode="&#xd3;" horiz-adv-x="462" 
d="M47 135l94 440q15 71 44 103t86 32h148q57 0 73.5 -32.5t1.5 -102.5l-94 -440q-15 -71 -43.5 -103t-84.5 -32h-150q-57 0 -73.5 32.5t-1.5 102.5zM417 690h-149q-43 0 -67.5 -27t-37.5 -85l-94 -446q-14 -57 -2.5 -84.5t57.5 -27.5h151q42 0 65.5 26.5t36.5 85.5l94 446
q14 62 2.5 87t-56.5 25zM353 749h-21l85 106h28z" />
    <glyph glyph-name="Ocircumflex" unicode="&#xd4;" horiz-adv-x="462" 
d="M47 135l94 440q15 71 44 103t86 32h148q57 0 73.5 -32.5t1.5 -102.5l-94 -440q-15 -71 -43.5 -103t-84.5 -32h-150q-57 0 -73.5 32.5t-1.5 102.5zM417 690h-149q-43 0 -67.5 -27t-37.5 -85l-94 -446q-14 -57 -2.5 -84.5t57.5 -27.5h151q42 0 65.5 26.5t36.5 85.5l94 446
q14 62 2.5 87t-56.5 25zM366 839h19l57 -90h-26l-42 70h-6l-71 -70h-26z" />
    <glyph glyph-name="Otilde" unicode="&#xd5;" 
d="M47 135l94 440q15 71 44 103t86 32h132q58 0 74.5 -32.5t1.5 -102.5l-94 -440q-15 -71 -43.5 -103t-85.5 -32h-134q-57 0 -73.5 32.5t-1.5 102.5zM402 690h-134q-43 0 -67.5 -27t-37.5 -85l-94 -446q-14 -57 -2.5 -84.5t57.5 -27.5h136q42 0 65.5 26.5t36.5 85.5l94 446
q14 62 2.5 87t-56.5 25zM399 817q20 0 27 -9t2 -30l-4 -20h-18l4 22q4 18 -16 18q-16 0 -27 -11l-26 -25q-13 -14 -38 -14q-23 0 -28.5 9t0.5 30l4 20h18l-5 -22q-2 -10 1 -14t16 -4q8 0 13.5 2.5t7.5 4t11 10.5l19 19q14 14 39 14z" />
    <glyph glyph-name="Odieresis" unicode="&#xd6;" horiz-adv-x="462" 
d="M47 135l94 440q15 71 44 103t86 32h148q57 0 73.5 -32.5t1.5 -102.5l-94 -440q-15 -71 -43.5 -103t-84.5 -32h-150q-57 0 -73.5 32.5t-1.5 102.5zM417 690h-149q-43 0 -67.5 -27t-37.5 -85l-94 -446q-14 -57 -2.5 -84.5t57.5 -27.5h151q42 0 65.5 26.5t36.5 85.5l94 446
q14 62 2.5 87t-56.5 25zM304 775h22l-7 -36h-22zM400 775h22l-7 -36h-22z" />
    <glyph glyph-name="multiply" unicode="&#xd7;" horiz-adv-x="301" 
d="M305 395l-118 -117l69 -117l-17 -14l-69 117l-118 -117l-10 14l117 117l-68 117l16 14l69 -117l118 117z" />
    <glyph glyph-name="Oslash" unicode="&#xd8;" 
d="M536 750h26l-76 -105q2 -21 -7 -70l-94 -440q-15 -71 -43.5 -103t-84.5 -32h-135q-60 0 -76 35l-54 -75h-26l74 102q-3 26 7 73l94 440q15 71 44 103t86 32h133q61 0 76 -37zM402 690h-134q-43 0 -67 -27t-37 -85l-94 -446q-6 -29 -7 -37l399 554q-4 41 -60 41zM124 20
h136q42 0 65.5 26.5t36.5 85.5l94 446q3 11 5 33l-398 -552q7 -39 61 -39z" />
    <glyph glyph-name="Ugrave" unicode="&#xd9;" 
d="M242 20q49 0 78 31t43 98l119 561h23l-119 -564q-16 -74 -50.5 -110t-92.5 -36h-110q-114 0 -82 146l119 564h22l-119 -561q-14 -68 0.5 -98.5t62.5 -30.5h106zM291 845h27l51 -96h-20z" />
    <glyph glyph-name="Uacute" unicode="&#xda;" 
d="M242 20q49 0 78 31t43 98l119 561h23l-119 -564q-16 -74 -50.5 -110t-92.5 -36h-110q-114 0 -82 146l119 564h22l-119 -561q-14 -68 0.5 -98.5t62.5 -30.5h106zM342 749h-21l85 106h28z" />
    <glyph glyph-name="Ucircumflex" unicode="&#xdb;" 
d="M242 20q49 0 78 31t43 98l119 561h23l-119 -564q-16 -74 -50.5 -110t-92.5 -36h-110q-114 0 -82 146l119 564h22l-119 -561q-14 -68 0.5 -98.5t62.5 -30.5h106zM355 839h19l57 -90h-26l-42 70h-6l-71 -70h-26z" />
    <glyph glyph-name="Udieresis" unicode="&#xdc;" 
d="M242 20q49 0 78 31t43 98l119 561h23l-119 -564q-16 -74 -50.5 -110t-92.5 -36h-110q-114 0 -82 146l119 564h22l-119 -561q-14 -68 0.5 -98.5t62.5 -30.5h106zM293 775h22l-7 -36h-22zM389 775h22l-7 -36h-22z" />
    <glyph glyph-name="Yacute" unicode="&#xdd;" horiz-adv-x="392" 
d="M171 0h-22l65 306l-80 404h23l63 -335q8 -42 7 -53q10 21 29 52l205 336h24l-249 -404zM315 749h-21l85 106h28z" />
    <glyph glyph-name="Thorn" unicode="&#xde;" horiz-adv-x="403" 
d="M44 0h-22l164 773l18 4h5l-36 -170h186q49 0 69 -32t7 -93l-30 -142q-27 -125 -119 -125h-197zM168 587l-75 -352h189q41 0 65 26t37 83l28 134q12 57 -1 83t-54 26h-189z" />
    <glyph glyph-name="germandbls" unicode="&#xdf;" horiz-adv-x="405" 
d="M-12 -140l139 654h1l13 61q15 71 44 103t85 32h63q125 0 96 -135l-22 -104q-18 -83 -70 -100q33 -10 43.5 -48.5t-0.5 -75.5l-24 -112q-28 -135 -149 -135h-108l4 20h106q101 0 125 114l23 108q13 61 -4.5 89t-66.5 28h-111l4 20h113q73 0 92 89l22 105q13 61 -7 89
t-76 28h-55q-43 0 -67.5 -27t-37.5 -85l-16 -77h-1l-136 -641h-22z" />
    <glyph glyph-name="agrave" unicode="&#xe0;" horiz-adv-x="352" 
d="M243 0l9 55q-28 -55 -103 -55h-43q-53 0 -73 24t-8 81l15 73q23 105 107 105h155l28 133q17 76 -39 76h-94q-60 0 -76 -75l-5 -25h-22l5 25q20 94 97 94h100q76 0 56 -95l-88 -416h-21zM108 20h46q49 0 76 26.5t40 88.5l27 128h-153q-64 0 -82 -84l-16 -74
q-11 -50 5 -67.5t57 -17.5zM209 675h27l51 -96h-20z" />
    <glyph glyph-name="aacute" unicode="&#xe1;" horiz-adv-x="352" 
d="M243 0l9 55q-28 -55 -103 -55h-43q-53 0 -73 24t-8 81l15 73q23 105 107 105h155l28 133q17 76 -39 76h-94q-60 0 -76 -75l-5 -25h-22l5 25q20 94 97 94h100q76 0 56 -95l-88 -416h-21zM108 20h46q49 0 76 26.5t40 88.5l27 128h-153q-64 0 -82 -84l-16 -74
q-11 -50 5 -67.5t57 -17.5zM260 584h-21l85 106h28z" />
    <glyph glyph-name="acircumflex" unicode="&#xe2;" horiz-adv-x="352" 
d="M243 0l9 55q-28 -55 -103 -55h-43q-53 0 -73 24t-8 81l15 73q23 105 107 105h155l28 133q17 76 -39 76h-94q-60 0 -76 -75l-5 -25h-22l5 25q20 94 97 94h100q76 0 56 -95l-88 -416h-21zM108 20h46q49 0 76 26.5t40 88.5l27 128h-153q-64 0 -82 -84l-16 -74
q-11 -50 5 -67.5t57 -17.5zM274 669h19l57 -90h-26l-43 70h-6l-70 -70h-26z" />
    <glyph glyph-name="atilde" unicode="&#xe3;" horiz-adv-x="352" 
d="M243 0l9 55q-28 -55 -103 -55h-43q-53 0 -73 24t-8 81l15 73q23 105 107 105h155l28 133q17 76 -39 76h-94q-60 0 -76 -75l-5 -25h-22l5 25q20 94 97 94h100q76 0 56 -95l-88 -416h-21zM108 20h46q49 0 76 26.5t40 88.5l27 128h-153q-64 0 -82 -84l-16 -74
q-11 -50 5 -67.5t57 -17.5zM320 647q20 0 27 -9t2 -30l-5 -20h-18l5 22q5 18 -16 18q-16 0 -27 -11l-26 -25q-13 -14 -38 -14q-23 0 -28.5 9t0.5 30l4 20h18l-5 -22q-2 -10 0.5 -14t15.5 -4q12 0 17 3t16 14l19 19q14 14 39 14z" />
    <glyph glyph-name="adieresis" unicode="&#xe4;" horiz-adv-x="352" 
d="M243 0l9 55q-28 -55 -103 -55h-43q-53 0 -73 24t-8 81l15 73q23 105 107 105h155l28 133q17 76 -39 76h-94q-60 0 -76 -75l-5 -25h-22l5 25q20 94 97 94h100q76 0 56 -95l-88 -416h-21zM108 20h46q49 0 76 26.5t40 88.5l27 128h-153q-64 0 -82 -84l-16 -74
q-11 -50 5 -67.5t57 -17.5zM211 605h22l-8 -36h-22zM307 605h22l-8 -36h-22z" />
    <glyph glyph-name="aring" unicode="&#xe5;" horiz-adv-x="352" 
d="M243 0l9 55q-28 -55 -103 -55h-43q-53 0 -73 24t-8 81l15 73q23 105 107 105h155l28 133q17 76 -39 76h-94q-60 0 -76 -75l-5 -25h-22l5 25q20 94 97 94h100q76 0 56 -95l-88 -416h-21zM108 20h46q49 0 76 26.5t40 88.5l27 128h-153q-64 0 -82 -84l-16 -74
q-11 -50 5 -67.5t57 -17.5zM287 714h13q61 0 48 -62l-4 -21q-13 -62 -75 -62h-13q-32 0 -43 15t-4 47l4 21q13 62 74 62zM324 629l6 25q7 40 -30 40h-21q-40 0 -47 -40l-6 -25q-9 -40 31 -40h21q37 0 46 40z" />
    <glyph glyph-name="ae" unicode="&#xe6;" horiz-adv-x="568" 
d="M338 20h57q42 0 65.5 26.5t36.5 85.5l3 18h22l-3 -15q-15 -69 -44.5 -102t-86.5 -33h-51q-77 0 -82 63q-39 -63 -117 -63h-36q-52 0 -71 24t-7 81l15 73q24 105 123 105h131l28 133q9 41 -0.5 58.5t-38.5 17.5h-89q-57 0 -73 -75l-5 -25h-22l5 25q20 94 98 94h92
q52 0 58 -46q31 46 99 46h51q57 0 74 -27t5 -85l-11 -55q-12 -56 -39.5 -81.5t-85.5 -25.5h-133l-22 -105q-14 -54 -1.5 -83t55.5 -29zM107 20h38q49 0 76 26.5t40 88.5l27 128h-132q-40 0 -62.5 -20.5t-31.5 -63.5l-16 -74q-11 -50 5 -67.5t56 -17.5zM495 491h-57
q-43 0 -66.5 -26.5t-35.5 -85.5l-26 -122h136q43 0 64.5 20.5t31.5 66.5l11 55q10 48 -2.5 70t-55.5 22z" />
    <glyph glyph-name="ccedilla" unicode="&#xe7;" horiz-adv-x="345" 
d="M152 -64l-15 2q-21 3 -14 36l6 26h-10q-55 0 -73.5 32t-3.5 100l51 244q16 71 44 103t84 32h54q58 0 74.5 -32.5t0.5 -102.5l-7 -35h-22l8 38q13 59 1 85.5t-54 26.5h-58q-43 0 -66.5 -27t-35.5 -85l-53 -248q-13 -61 0.5 -86t54.5 -25h56q47 0 67.5 21t32.5 79l9 40h22
l-10 -45q-14 -64 -40 -89.5t-78 -25.5h-28l-5 -19q-4 -21 7 -23l20 -4q24 -4 17 -43l-3 -13q-12 -52 -58 -52h-15q-46 0 -35 46l3 14h19l-3 -13q-6 -28 19 -28h16q28 0 34 30l3 13q5 24 -16 28z" />
    <glyph glyph-name="egrave" unicode="&#xe8;" horiz-adv-x="349" 
d="M117 20h61q42 0 65 26.5t36 85.5l3 18h22l-3 -15q-15 -70 -42.5 -102.5t-83.5 -32.5h-57q-58 0 -74.5 32.5t-1.5 102.5l56 264q12 58 40.5 85t85.5 27h47q58 0 76.5 -27t6.5 -85l-10 -55q-12 -57 -38.5 -82t-85.5 -25h-134l-22 -105q-14 -54 -2.5 -83t55.5 -29zM276 491
h-59q-42 0 -64.5 -22.5t-32.5 -69.5l-30 -142h131q47 0 69 20.5t32 66.5l11 55q10 47 -2.5 69.5t-54.5 22.5zM209 675h27l51 -96h-20z" />
    <glyph glyph-name="eacute" unicode="&#xe9;" horiz-adv-x="349" 
d="M117 20h61q42 0 65 26.5t36 85.5l3 18h22l-3 -15q-15 -70 -42.5 -102.5t-83.5 -32.5h-57q-58 0 -74.5 32.5t-1.5 102.5l56 264q12 58 40.5 85t85.5 27h47q58 0 76.5 -27t6.5 -85l-10 -55q-12 -57 -38.5 -82t-85.5 -25h-134l-22 -105q-14 -54 -2.5 -83t55.5 -29zM276 491
h-59q-42 0 -64.5 -22.5t-32.5 -69.5l-30 -142h131q47 0 69 20.5t32 66.5l11 55q10 47 -2.5 69.5t-54.5 22.5zM259 579h-21l85 106h28z" />
    <glyph glyph-name="ecircumflex" unicode="&#xea;" horiz-adv-x="349" 
d="M117 20h61q42 0 65 26.5t36 85.5l3 18h22l-3 -15q-15 -70 -42.5 -102.5t-83.5 -32.5h-57q-58 0 -74.5 32.5t-1.5 102.5l56 264q12 58 40.5 85t85.5 27h47q58 0 76.5 -27t6.5 -85l-10 -55q-12 -57 -38.5 -82t-85.5 -25h-134l-22 -105q-14 -54 -2.5 -83t55.5 -29zM276 491
h-59q-42 0 -64.5 -22.5t-32.5 -69.5l-30 -142h131q47 0 69 20.5t32 66.5l11 55q10 47 -2.5 69.5t-54.5 22.5zM274 669h19l57 -90h-26l-43 70h-6l-70 -70h-26z" />
    <glyph glyph-name="edieresis" unicode="&#xeb;" horiz-adv-x="349" 
d="M117 20h61q42 0 65 26.5t36 85.5l3 18h22l-3 -15q-15 -70 -42.5 -102.5t-83.5 -32.5h-57q-58 0 -74.5 32.5t-1.5 102.5l56 264q12 58 40.5 85t85.5 27h47q58 0 76.5 -27t6.5 -85l-10 -55q-12 -57 -38.5 -82t-85.5 -25h-134l-22 -105q-14 -54 -2.5 -83t55.5 -29zM276 491
h-59q-42 0 -64.5 -22.5t-32.5 -69.5l-30 -142h131q47 0 69 20.5t32 66.5l11 55q10 47 -2.5 69.5t-54.5 22.5zM211 605h22l-8 -36h-22zM307 605h22l-8 -36h-22z" />
    <glyph glyph-name="igrave" unicode="&#xec;" horiz-adv-x="133" 
d="M125 485h-41l4 20h63l-107 -505h-22zM100 675h27l51 -96h-20z" />
    <glyph glyph-name="iacute" unicode="&#xed;" horiz-adv-x="133" 
d="M125 485h-41l4 20h63l-107 -505h-22zM152 579h-21l85 106h28z" />
    <glyph glyph-name="icircumflex" unicode="&#xee;" horiz-adv-x="133" 
d="M125 485h-41l4 20h63l-107 -505h-22zM166 669h19l57 -90h-26l-43 70h-6l-70 -70h-26z" />
    <glyph glyph-name="idieresis" unicode="&#xef;" horiz-adv-x="133" 
d="M125 485h-41l4 20h63l-107 -505h-22zM102 605h22l-8 -36h-22zM198 605h22l-8 -36h-22z" />
    <glyph glyph-name="eth" unicode="&#xf0;" horiz-adv-x="352" 
d="M343 362l-48 -227q-15 -70 -44.5 -102.5t-86.5 -32.5h-58q-57 0 -73.5 32.5t-1.5 102.5l32 151q15 70 44.5 102.5t87.5 32.5h129q-2 18 -5.5 33.5t-6 23t-9 23t-8.5 21.5l-28 82l-119 -24l5 23l103 21l-32 86h32l27 -81l123 25l-5 -23l-108 -23l40 -127q21 -71 10 -119z
M188 401q-43 0 -66.5 -27t-35.5 -85l-33 -157q-14 -57 -1.5 -84.5t55.5 -27.5h65q42 0 65 26.5t36 85.5l48 230q3 12 5 39h-138z" />
    <glyph glyph-name="ntilde" unicode="&#xf1;" horiz-adv-x="357" 
d="M17 0l106 501l17 4h6l-10 -47q36 53 90 53h53q53 0 69.5 -30.5t3.5 -94.5l-82 -386h-22l82 386q12 57 0 81t-52 24h-57q-34 0 -60 -24.5t-35 -52.5l-87 -414h-22zM328 647q20 0 27 -9t2 -30l-5 -20h-18l5 22q5 18 -16 18q-16 0 -27 -11l-26 -25q-13 -14 -38 -14
q-23 0 -28.5 9t0.5 30l4 20h18l-5 -22q-2 -10 0.5 -14t15.5 -4q12 0 17 3t16 14l19 19q14 14 39 14z" />
    <glyph glyph-name="ograve" unicode="&#xf2;" horiz-adv-x="363" 
d="M93 376q16 71 44 103t83 32h60q57 0 74.5 -33t2.5 -102l-53 -251q-14 -64 -43 -94.5t-81 -30.5h-62q-105 0 -78 125zM282 491h-64q-43 0 -66.5 -27t-35.5 -85l-53 -248q-13 -61 0.5 -86t54.5 -25h64q41 0 65 25t36 86l53 248q13 57 0.5 84.5t-54.5 27.5zM214 675h27
l51 -96h-20z" />
    <glyph glyph-name="oacute" unicode="&#xf3;" horiz-adv-x="363" 
d="M93 376q16 71 44 103t83 32h60q57 0 74.5 -33t2.5 -102l-53 -251q-14 -64 -43 -94.5t-81 -30.5h-62q-105 0 -78 125zM282 491h-64q-43 0 -66.5 -27t-35.5 -85l-53 -248q-13 -61 0.5 -86t54.5 -25h64q41 0 65 25t36 86l53 248q13 57 0.5 84.5t-54.5 27.5zM264 579h-21
l85 106h28z" />
    <glyph glyph-name="ocircumflex" unicode="&#xf4;" horiz-adv-x="363" 
d="M93 376q16 71 44 103t83 32h60q57 0 74.5 -33t2.5 -102l-53 -251q-14 -64 -43 -94.5t-81 -30.5h-62q-105 0 -78 125zM282 491h-64q-43 0 -66.5 -27t-35.5 -85l-53 -248q-13 -61 0.5 -86t54.5 -25h64q41 0 65 25t36 86l53 248q13 57 0.5 84.5t-54.5 27.5zM280 669h19
l57 -90h-26l-43 70h-6l-70 -70h-26z" />
    <glyph glyph-name="otilde" unicode="&#xf5;" horiz-adv-x="363" 
d="M93 376q16 71 44 103t83 32h60q57 0 74.5 -33t2.5 -102l-53 -251q-14 -64 -43 -94.5t-81 -30.5h-62q-105 0 -78 125zM282 491h-64q-43 0 -66.5 -27t-35.5 -85l-53 -248q-13 -61 0.5 -86t54.5 -25h64q41 0 65 25t36 86l53 248q13 57 0.5 84.5t-54.5 27.5zM325 647
q20 0 27 -9t2 -30l-5 -20h-18l5 22q4 18 -16 18q-16 0 -27 -11l-26 -25q-13 -14 -38 -14q-23 0 -28.5 9t0.5 30l4 20h18l-5 -22q-2 -10 1 -14t15 -4t17 3t16 14l19 19q14 14 39 14z" />
    <glyph glyph-name="odieresis" unicode="&#xf6;" horiz-adv-x="363" 
d="M93 376q16 71 44 103t83 32h60q57 0 74.5 -33t2.5 -102l-53 -251q-14 -64 -43 -94.5t-81 -30.5h-62q-105 0 -78 125zM282 491h-64q-43 0 -66.5 -27t-35.5 -85l-53 -248q-13 -61 0.5 -86t54.5 -25h64q41 0 65 25t36 86l53 248q13 57 0.5 84.5t-54.5 27.5zM216 605h22
l-8 -36h-22zM312 605h22l-8 -36h-22z" />
    <glyph glyph-name="divide" unicode="&#xf7;" horiz-adv-x="382" 
d="M73 290l7 20h282l-8 -20h-281zM227 395l10 44h24l-10 -44h-24zM180 170l9 44h24l-9 -44h-24z" />
    <glyph glyph-name="oslash" unicode="&#xf8;" horiz-adv-x="367" 
d="M93 376q16 71 44 103t83 32h60q65 0 80 -45l62 76h25l-83 -102q2 -29 -7 -64l-53 -251q-14 -64 -43 -94.5t-81 -30.5h-62q-63 0 -78 42l-65 -80h-24l84 104q-3 23 5 59zM282 491h-64q-43 0 -66.5 -27t-35.5 -85l-53 -248q-4 -21 -6 -38l285 351q-6 47 -60 47zM336 379
q3 11 5 33l-283 -349q6 -43 60 -43h64q41 0 65 25t36 86z" />
    <glyph glyph-name="ugrave" unicode="&#xf9;" horiz-adv-x="355" 
d="M373 505l-107 -505h-21l11 55q-41 -55 -101 -55h-42q-99 0 -72 125l81 380h22l-81 -380q-12 -56 2 -80.5t54 -24.5h43q36 0 65.5 26t37.5 53h1l5 27l80 379h22zM206 675h27l51 -96h-20z" />
    <glyph glyph-name="uacute" unicode="&#xfa;" horiz-adv-x="355" 
d="M373 505l-107 -505h-21l11 55q-41 -55 -101 -55h-42q-99 0 -72 125l81 380h22l-81 -380q-12 -56 2 -80.5t54 -24.5h43q36 0 65.5 26t37.5 53h1l5 27l80 379h22zM256 579h-21l85 106h28z" />
    <glyph glyph-name="ucircumflex" unicode="&#xfb;" horiz-adv-x="355" 
d="M373 505l-107 -505h-21l11 55q-41 -55 -101 -55h-42q-99 0 -72 125l81 380h22l-81 -380q-12 -56 2 -80.5t54 -24.5h43q36 0 65.5 26t37.5 53h1l5 27l80 379h22zM272 669h19l57 -90h-26l-43 70h-6l-70 -70h-26z" />
    <glyph glyph-name="udieresis" unicode="&#xfc;" horiz-adv-x="355" 
d="M373 505l-107 -505h-21l11 55q-41 -55 -101 -55h-42q-99 0 -72 125l81 380h22l-81 -380q-12 -56 2 -80.5t54 -24.5h43q36 0 65.5 26t37.5 53h1l5 27l80 379h22zM208 605h22l-8 -36h-22zM304 605h22l-8 -36h-22z" />
    <glyph glyph-name="yacute" unicode="&#xfd;" horiz-adv-x="332" 
d="M-30 -205q61 0 94 72l56 122h-6l-17 516h23l15 -483l220 483h24l-296 -639q-21 -46 -45 -68.5t-71 -22.5h-38l7 20h34zM243 579h-21l85 106h28z" />
    <glyph glyph-name="thorn" unicode="&#xfe;" horiz-adv-x="367" 
d="M-14 -250h-21l217 1023l18 4h5l-69 -322q34 56 92 56h57q56 0 73.5 -32t3.5 -97l-54 -253q-14 -66 -41.5 -97.5t-78.5 -31.5h-67q-63 0 -70 54zM222 491q-32 0 -57.5 -23t-38.5 -63l-64 -298q-9 -87 60 -87h66q37 0 61 24.5t36 81.5l53 250q14 65 1 90t-62 25h-55z" />
    <glyph glyph-name="ydieresis" unicode="&#xff;" horiz-adv-x="332" 
d="M-30 -205q61 0 94 72l56 122h-6l-17 516h23l15 -483l220 483h24l-296 -639q-21 -46 -45 -68.5t-71 -22.5h-38l7 20h34zM194 605h22l-8 -36h-22zM290 605h22l-8 -36h-22z" />
    <glyph glyph-name="Amacron" unicode="&#x100;" horiz-adv-x="412" 
d="M304 710h28l22 -710h-24l-4 170h-242l-76 -170h-23zM316 689l-224 -499h234zM416 776l-7 -20h-157l7 20h157z" />
    <glyph glyph-name="amacron" unicode="&#x101;" horiz-adv-x="352" 
d="M243 0l9 55q-28 -55 -103 -55h-43q-53 0 -73 24t-8 81l15 73q23 105 107 105h155l28 133q17 76 -39 76h-94q-60 0 -76 -75l-5 -25h-22l5 25q20 94 97 94h100q76 0 56 -95l-88 -416h-21zM108 20h46q49 0 76 26.5t40 88.5l27 128h-153q-64 0 -82 -84l-16 -74
q-11 -50 5 -67.5t57 -17.5zM352 606l-7 -20h-157l7 20h157z" />
    <glyph glyph-name="Abreve" unicode="&#x102;" horiz-adv-x="412" 
d="M304 710h28l22 -710h-24l-4 170h-242l-76 -170h-23zM316 689l-224 -499h234zM342 749h-26q-56 0 -43 62l2 11h18l-3 -13q-8 -41 33 -41h21q41 0 48 41l3 13h18l-2 -11q-13 -62 -69 -62z" />
    <glyph glyph-name="abreve" unicode="&#x103;" horiz-adv-x="352" 
d="M243 0l9 55q-28 -55 -103 -55h-43q-53 0 -73 24t-8 81l15 73q23 105 107 105h155l28 133q17 76 -39 76h-94q-60 0 -76 -75l-5 -25h-22l5 25q20 94 97 94h100q76 0 56 -95l-88 -416h-21zM108 20h46q49 0 76 26.5t40 88.5l27 128h-153q-64 0 -82 -84l-16 -74
q-11 -50 5 -67.5t57 -17.5zM278 579h-26q-56 0 -43 62l2 11h18l-3 -13q-8 -41 33 -41h21q39 0 48 41l3 13h18l-2 -11q-13 -62 -69 -62z" />
    <glyph glyph-name="Aogonek" unicode="&#x104;" horiz-adv-x="412" 
d="M253 -112l2 9q6 29 40 48q16 9 22 16t10 23l4 16h-1l-4 170h-242l-76 -170h-23l319 710h28l22 -710h-4l-4 -16q-5 -24 -15.5 -36t-29.5 -22q-23 -12 -27 -31q-3 -13 2.5 -16.5t20.5 -3.5h42l-7 -20h-39q-22 0 -33 7.5t-7 25.5zM316 689l-224 -499h234z" />
    <glyph glyph-name="aogonek" unicode="&#x105;" horiz-adv-x="351" 
d="M170 -89l1 9q7 30 41 48q26 14 31 32l9 55q-28 -55 -103 -55h-43q-53 0 -73 24t-8 81l15 73q23 105 107 105h155l28 133q17 76 -39 76h-94q-60 0 -76 -75l-5 -25h-22l5 25q20 94 97 94h100q76 0 56 -95l-88 -416h-2q-10 -33 -44 -51q-23 -12 -27 -31q-3 -13 2.5 -16.5
t20.5 -3.5h42l-7 -20h-39q-22 0 -33 7.5t-7 25.5zM108 20h46q49 0 76 26.5t40 88.5l27 128h-153q-64 0 -82 -84l-16 -74q-11 -50 5 -67.5t57 -17.5z" />
    <glyph glyph-name="Cacute" unicode="&#x106;" horiz-adv-x="437" 
d="M124 20h142q42 0 65.5 26.5t36.5 85.5l16 79h23l-16 -76q-15 -71 -43.5 -103t-84.5 -32h-141q-57 0 -73.5 32.5t-1.5 102.5l94 440q15 71 44 103t86 32h139q57 0 73.5 -32.5t1.5 -102.5l-16 -74h-22l16 77q14 62 2 87t-57 25h-140q-43 0 -67.5 -27t-37.5 -85l-94 -446
q-14 -57 -2.5 -84.5t57.5 -27.5zM352 749h-21l85 106h28z" />
    <glyph glyph-name="cacute" unicode="&#x107;" horiz-adv-x="345" 
d="M276 491h-58q-43 0 -66.5 -27t-35.5 -85l-53 -248q-13 -61 0.5 -86t54.5 -25h56q47 0 67.5 21t32.5 79l9 40h22l-10 -45q-14 -64 -40 -89.5t-78 -25.5h-58q-55 0 -73.5 32t-3.5 100l51 244q16 71 44 103t84 32h54q58 0 74.5 -32.5t0.5 -102.5l-7 -35h-22l8 38
q13 59 1 85.5t-54 26.5zM258 579h-21l85 106h28z" />
    <glyph glyph-name="Ccircumflex" unicode="&#x108;" horiz-adv-x="437" 
d="M124 20h142q42 0 65.5 26.5t36.5 85.5l16 79h23l-16 -76q-15 -71 -43.5 -103t-84.5 -32h-141q-57 0 -73.5 32.5t-1.5 102.5l94 440q15 71 44 103t86 32h139q57 0 73.5 -32.5t1.5 -102.5l-16 -74h-22l16 77q14 62 2 87t-57 25h-140q-43 0 -67.5 -27t-37.5 -85l-94 -446
q-14 -57 -2.5 -84.5t57.5 -27.5zM366 839h19l57 -90h-26l-42 70h-6l-71 -70h-26z" />
    <glyph glyph-name="ccircumflex" unicode="&#x109;" horiz-adv-x="345" 
d="M276 491h-58q-43 0 -66.5 -27t-35.5 -85l-53 -248q-13 -61 0.5 -86t54.5 -25h56q47 0 67.5 21t32.5 79l9 40h22l-10 -45q-14 -64 -40 -89.5t-78 -25.5h-58q-55 0 -73.5 32t-3.5 100l51 244q16 71 44 103t84 32h54q58 0 74.5 -32.5t0.5 -102.5l-7 -35h-22l8 38
q13 59 1 85.5t-54 26.5zM274 669h19l57 -90h-26l-43 70h-6l-70 -70h-26z" />
    <glyph glyph-name="Cdotaccent" unicode="&#x10a;" horiz-adv-x="437" 
d="M124 20h142q42 0 65.5 26.5t36.5 85.5l16 79h23l-16 -76q-15 -71 -43.5 -103t-84.5 -32h-141q-57 0 -73.5 32.5t-1.5 102.5l94 440q15 71 44 103t86 32h139q57 0 73.5 -32.5t1.5 -102.5l-16 -74h-22l16 77q14 62 2 87t-57 25h-140q-43 0 -67.5 -27t-37.5 -85l-94 -446
q-14 -57 -2.5 -84.5t57.5 -27.5zM349 784h31l-7 -35h-31z" />
    <glyph glyph-name="cdotaccent" unicode="&#x10b;" horiz-adv-x="345" 
d="M276 491h-58q-43 0 -66.5 -27t-35.5 -85l-53 -248q-13 -61 0.5 -86t54.5 -25h56q47 0 67.5 21t32.5 79l9 40h22l-10 -45q-14 -64 -40 -89.5t-78 -25.5h-58q-55 0 -73.5 32t-3.5 100l51 244q16 71 44 103t84 32h54q58 0 74.5 -32.5t0.5 -102.5l-7 -35h-22l8 38
q13 59 1 85.5t-54 26.5zM255 614h31l-7 -35h-31z" />
    <glyph glyph-name="Ccaron" unicode="&#x10c;" horiz-adv-x="437" 
d="M124 20h142q42 0 65.5 26.5t36.5 85.5l16 79h23l-16 -76q-15 -71 -43.5 -103t-84.5 -32h-141q-57 0 -73.5 32.5t-1.5 102.5l94 440q15 71 44 103t86 32h139q57 0 73.5 -32.5t1.5 -102.5l-16 -74h-22l16 77q14 62 2 87t-57 25h-140q-43 0 -67.5 -27t-37.5 -85l-94 -446
q-14 -57 -2.5 -84.5t57.5 -27.5zM363 749h-14l-56 90h25l42 -70l72 70h26z" />
    <glyph glyph-name="ccaron" unicode="&#x10d;" horiz-adv-x="345" 
d="M276 491h-58q-43 0 -66.5 -27t-35.5 -85l-53 -248q-13 -61 0.5 -86t54.5 -25h56q47 0 67.5 21t32.5 79l9 40h22l-10 -45q-14 -64 -40 -89.5t-78 -25.5h-58q-55 0 -73.5 32t-3.5 100l51 244q16 71 44 103t84 32h54q58 0 74.5 -32.5t0.5 -102.5l-7 -35h-22l8 38
q13 59 1 85.5t-54 26.5zM271 579h-14l-56 90h25l42 -70l72 70h26z" />
    <glyph glyph-name="Dcaron" unicode="&#x10e;" horiz-adv-x="456" 
d="M168 690l4 20h214q69 0 91.5 -40t4.5 -125l-80 -380q-18 -85 -57 -125t-108 -40h-215l4 20h1l142 670h-1zM385 690h-194l-142 -670h191q56 0 89 34.5t49 107.5l82 386q17 73 0.5 107.5t-75.5 34.5zM344 749h-14l-56 90h25l42 -70l72 70h26z" />
    <glyph glyph-name="dcaron" unicode="&#x10f;" horiz-adv-x="366" 
d="M434 740l-157 -740h-21l11 58q-37 -58 -93 -58h-59q-102 0 -74 129l54 253q14 65 42.5 97t83.5 32h62q58 0 69 -54l59 279l18 4h5zM181 20q34 0 62 28.5t39 79.5l55 259q10 49 -5 76.5t-51 27.5h-63q-39 0 -63.5 -24.5t-36.5 -80.5l-56 -260q-23 -106 53 -106h66z
M490 759h24l-41 -169h-15z" />
    <glyph glyph-name="Dcroat" unicode="&#x110;" horiz-adv-x="456" 
d="M23 0l78 367h-58l7 20h55l68 323h213q70 0 92 -40t4 -125l-80 -380q-18 -85 -57 -125t-107 -40h-215zM385 690h-193l-64 -303h81l-7 -20h-78l-74 -347h191q56 0 88.5 34.5t48.5 107.5l17 79h1l65 307q16 75 -0.5 108.5t-75.5 33.5z" />
    <glyph glyph-name="dcroat" unicode="&#x111;" horiz-adv-x="366" 
d="M490 673l-8 -20h-67l-80 -380h1l-58 -273h-21l11 58q-37 -58 -93 -58h-59q-102 0 -74 129l54 253q14 65 42.5 97t83.5 32h62q57 0 68 -51l41 193h-103l8 20h100l13 63l17 4h6l-14 -67h70zM299 210l42 195q4 41 -11.5 63.5t-47.5 22.5h-63q-39 0 -63.5 -24.5t-36.5 -80.5
l-56 -260q-23 -106 53 -106h66q33 0 60 26.5t39 75.5l19 88h-1z" />
    <glyph glyph-name="Emacron" unicode="&#x112;" horiz-adv-x="373" 
d="M190 690l-81 -382h230l-7 -20h-227l-57 -268h271l-7 -20h-290l150 710h291l-7 -20h-266zM420 776l-7 -20h-157l7 20h157z" />
    <glyph glyph-name="emacron" unicode="&#x113;" horiz-adv-x="349" 
d="M117 20h61q42 0 65 26.5t36 85.5l3 18h22l-3 -15q-15 -70 -42.5 -102.5t-83.5 -32.5h-57q-58 0 -74.5 32.5t-1.5 102.5l56 264q12 58 40.5 85t85.5 27h47q58 0 76.5 -27t6.5 -85l-10 -55q-12 -57 -38.5 -82t-85.5 -25h-134l-22 -105q-14 -54 -2.5 -83t55.5 -29zM276 491
h-59q-42 0 -64.5 -22.5t-32.5 -69.5l-30 -142h131q47 0 69 20.5t32 66.5l11 55q10 47 -2.5 69.5t-54.5 22.5zM352 606l-7 -20h-157l7 20h157z" />
    <glyph glyph-name="Ebreve" unicode="&#x114;" horiz-adv-x="373" 
d="M190 690l-81 -382h230l-7 -20h-227l-57 -268h271l-7 -20h-290l150 710h291l-7 -20h-266zM346 749h-26q-56 0 -43 62l2 11h18l-3 -13q-8 -41 33 -41h21q41 0 48 41l3 13h18l-2 -11q-13 -62 -69 -62z" />
    <glyph glyph-name="ebreve" unicode="&#x115;" horiz-adv-x="349" 
d="M117 20h61q42 0 65 26.5t36 85.5l3 18h22l-3 -15q-15 -70 -42.5 -102.5t-83.5 -32.5h-57q-58 0 -74.5 32.5t-1.5 102.5l56 264q12 58 40.5 85t85.5 27h47q58 0 76.5 -27t6.5 -85l-10 -55q-12 -57 -38.5 -82t-85.5 -25h-134l-22 -105q-14 -54 -2.5 -83t55.5 -29zM276 491
h-59q-42 0 -64.5 -22.5t-32.5 -69.5l-30 -142h131q47 0 69 20.5t32 66.5l11 55q10 47 -2.5 69.5t-54.5 22.5zM278 579h-26q-56 0 -43 62l2 11h18l-3 -13q-8 -41 33 -41h21q39 0 48 41l3 13h18l-2 -11q-13 -62 -69 -62z" />
    <glyph glyph-name="Edotaccent" unicode="&#x116;" horiz-adv-x="373" 
d="M190 690l-81 -382h230l-7 -20h-227l-57 -268h271l-7 -20h-290l150 710h291l-7 -20h-266zM324 784h31l-7 -35h-31z" />
    <glyph glyph-name="edotaccent" unicode="&#x117;" horiz-adv-x="349" 
d="M117 20h61q42 0 65 26.5t36 85.5l3 18h22l-3 -15q-15 -70 -42.5 -102.5t-83.5 -32.5h-57q-58 0 -74.5 32.5t-1.5 102.5l56 264q12 58 40.5 85t85.5 27h47q58 0 76.5 -27t6.5 -85l-10 -55q-12 -57 -38.5 -82t-85.5 -25h-134l-22 -105q-14 -54 -2.5 -83t55.5 -29zM276 491
h-59q-42 0 -64.5 -22.5t-32.5 -69.5l-30 -142h131q47 0 69 20.5t32 66.5l11 55q10 47 -2.5 69.5t-54.5 22.5zM256 614h31l-7 -35h-31z" />
    <glyph glyph-name="Eogonek" unicode="&#x118;" horiz-adv-x="373" 
d="M214 -97l2 9q6 28 40 48q16 9 22 16t10 23l1 1h-267l150 710h291l-7 -20h-266l-81 -382h230l-7 -20h-227l-57 -268h271l-7 -20h-4l-1 -1q-5 -24 -15.5 -36t-29.5 -22q-23 -12 -27 -31q-2 -13 3 -16.5t20 -3.5h42l-7 -20h-39q-22 0 -33 7.5t-7 25.5z" />
    <glyph glyph-name="eogonek" unicode="&#x119;" horiz-adv-x="348" 
d="M57 -94l1 9q7 30 41 48q16 9 22 15.5t10 21.5h-13q-58 0 -74.5 32.5t-1.5 102.5l56 264q12 58 40.5 85t85.5 27h47q58 0 76.5 -27t6.5 -85l-10 -55q-12 -57 -38.5 -82t-85.5 -25h-134l-22 -105q-14 -54 -2.5 -83t55.5 -29h61q42 0 65 26.5t36 85.5l3 18h22l-3 -15
q-15 -70 -42.5 -102.5t-83.5 -32.5h-25q-10 -37 -45 -56q-23 -12 -27 -31q-3 -13 2.5 -16.5t20.5 -3.5h42l-7 -20h-39q-22 0 -33 7.5t-7 25.5zM276 491h-59q-42 0 -64.5 -22.5t-32.5 -69.5l-30 -142h131q47 0 69 20.5t32 66.5l11 55q10 47 -2.5 69.5t-54.5 22.5z" />
    <glyph glyph-name="Ecaron" unicode="&#x11a;" horiz-adv-x="373" 
d="M190 690l-81 -382h230l-7 -20h-227l-57 -268h271l-7 -20h-290l150 710h291l-7 -20h-266zM338 749h-14l-56 90h25l42 -70l72 70h26z" />
    <glyph glyph-name="ecaron" unicode="&#x11b;" horiz-adv-x="349" 
d="M117 20h61q42 0 65 26.5t36 85.5l3 18h22l-3 -15q-15 -70 -42.5 -102.5t-83.5 -32.5h-57q-58 0 -74.5 32.5t-1.5 102.5l56 264q12 58 40.5 85t85.5 27h47q58 0 76.5 -27t6.5 -85l-10 -55q-12 -57 -38.5 -82t-85.5 -25h-134l-22 -105q-14 -54 -2.5 -83t55.5 -29zM276 491
h-59q-42 0 -64.5 -22.5t-32.5 -69.5l-30 -142h131q47 0 69 20.5t32 66.5l11 55q10 47 -2.5 69.5t-54.5 22.5zM271 579h-14l-56 90h25l42 -70l72 70h26z" />
    <glyph glyph-name="Gcircumflex" unicode="&#x11c;" horiz-adv-x="443" 
d="M248 304l7 20h172l-40 -189q-14 -68 -42.5 -101.5t-83.5 -33.5h-144q-98 0 -72 124l96 451q29 135 114 135h162q98 0 71 -125l-18 -84h-22l17 80q12 57 0.5 83t-51.5 26h-151q-40 0 -63.5 -28t-37.5 -91l-94 -442q-12 -57 1 -83t53 -26h138q43 0 67 25t35 77l39 182h-153
zM372 839h19l57 -90h-26l-42 70h-6l-71 -70h-26z" />
    <glyph glyph-name="gcircumflex" unicode="&#x11d;" horiz-adv-x="359" 
d="M90 370q15 69 44.5 102t86.5 33h45q40 0 62 -19l67 60l10 -15l-67 -61q15 -30 1 -100l-17 -81q-15 -70 -44.5 -102.5t-87.5 -32.5h-49q-18 -1 -26 -7.5t-12 -27.5l-1 -4q-4 -20 0.5 -27.5t20.5 -8.5h102q56 0 72 -30t3 -95l-10 -46q-14 -65 -43.5 -95t-86.5 -30h-108
q-57 0 -73 30t-3 95l10 46q12 55 33 84t60 37q-5 10 1 40l1 5q6 29 21 41q-52 21 -29 128zM222 59h-114q-43 0 -65.5 -24.5t-34.5 -77.5l-11 -52q-11 -53 1.5 -77.5t55.5 -24.5h114q43 0 65.5 24.5t33.5 77.5l11 52q12 53 -0.5 77.5t-55.5 24.5zM215 485q-43 0 -66.5 -26.5
t-35.5 -85.5l-19 -87q-12 -55 -1 -83t50 -29h55q42 0 65.5 27t35.5 85l19 87q13 57 1 84.5t-54 27.5h-50zM275 669h19l57 -90h-26l-43 70h-6l-70 -70h-26z" />
    <glyph glyph-name="Gbreve" unicode="&#x11e;" horiz-adv-x="443" 
d="M248 304l7 20h172l-40 -189q-14 -68 -42.5 -101.5t-83.5 -33.5h-144q-98 0 -72 124l96 451q29 135 114 135h162q98 0 71 -125l-18 -84h-22l17 80q12 57 0.5 83t-51.5 26h-151q-40 0 -63.5 -28t-37.5 -91l-94 -442q-12 -57 1 -83t53 -26h138q43 0 67 25t35 77l39 182h-153
zM377 749h-26q-56 0 -43 62l2 11h18l-3 -13q-8 -41 33 -41h21q41 0 48 41l3 13h18l-2 -11q-13 -62 -69 -62z" />
    <glyph glyph-name="gbreve" unicode="&#x11f;" horiz-adv-x="359" 
d="M90 370q15 69 44.5 102t86.5 33h45q40 0 62 -19l67 60l10 -15l-67 -61q15 -30 1 -100l-17 -81q-15 -70 -44.5 -102.5t-87.5 -32.5h-49q-18 -1 -26 -7.5t-12 -27.5l-1 -4q-4 -20 0.5 -27.5t20.5 -8.5h102q56 0 72 -30t3 -95l-10 -46q-14 -65 -43.5 -95t-86.5 -30h-108
q-57 0 -73 30t-3 95l10 46q12 55 33 84t60 37q-5 10 1 40l1 5q6 29 21 41q-52 21 -29 128zM222 59h-114q-43 0 -65.5 -24.5t-34.5 -77.5l-11 -52q-11 -53 1.5 -77.5t55.5 -24.5h114q43 0 65.5 24.5t33.5 77.5l11 52q12 53 -0.5 77.5t-55.5 24.5zM215 485q-43 0 -66.5 -26.5
t-35.5 -85.5l-19 -87q-12 -55 -1 -83t50 -29h55q42 0 65.5 27t35.5 85l19 87q13 57 1 84.5t-54 27.5h-50zM278 579h-26q-56 0 -43 62l2 11h18l-3 -13q-8 -41 33 -41h21q39 0 48 41l3 13h18l-2 -11q-13 -62 -69 -62z" />
    <glyph glyph-name="Gdotaccent" unicode="&#x120;" horiz-adv-x="443" 
d="M248 304l7 20h172l-40 -189q-14 -68 -42.5 -101.5t-83.5 -33.5h-144q-98 0 -72 124l96 451q29 135 114 135h162q98 0 71 -125l-18 -84h-22l17 80q12 57 0.5 83t-51.5 26h-151q-40 0 -63.5 -28t-37.5 -91l-94 -442q-12 -57 1 -83t53 -26h138q43 0 67 25t35 77l39 182h-153
zM355 784h31l-7 -35h-31z" />
    <glyph glyph-name="gdotaccent" unicode="&#x121;" horiz-adv-x="359" 
d="M90 370q15 69 44.5 102t86.5 33h45q40 0 62 -19l67 60l10 -15l-67 -61q15 -30 1 -100l-17 -81q-15 -70 -44.5 -102.5t-87.5 -32.5h-49q-18 -1 -26 -7.5t-12 -27.5l-1 -4q-4 -20 0.5 -27.5t20.5 -8.5h102q56 0 72 -30t3 -95l-10 -46q-14 -65 -43.5 -95t-86.5 -30h-108
q-57 0 -73 30t-3 95l10 46q12 55 33 84t60 37q-5 10 1 40l1 5q6 29 21 41q-52 21 -29 128zM222 59h-114q-43 0 -65.5 -24.5t-34.5 -77.5l-11 -52q-11 -53 1.5 -77.5t55.5 -24.5h114q43 0 65.5 24.5t33.5 77.5l11 52q12 53 -0.5 77.5t-55.5 24.5zM215 485q-43 0 -66.5 -26.5
t-35.5 -85.5l-19 -87q-12 -55 -1 -83t50 -29h55q42 0 65.5 27t35.5 85l19 87q13 57 1 84.5t-54 27.5h-50zM256 614h31l-7 -35h-31z" />
    <glyph glyph-name="Gcommaaccent" unicode="&#x122;" horiz-adv-x="443" 
d="M248 304l7 20h172l-40 -189q-14 -68 -42.5 -101.5t-83.5 -33.5h-144q-98 0 -72 124l96 451q29 135 114 135h162q98 0 71 -125l-18 -84h-22l17 80q12 57 0.5 83t-51.5 26h-151q-40 0 -63.5 -28t-37.5 -91l-94 -442q-12 -57 1 -83t53 -26h138q43 0 67 25t35 77l39 182h-153
z" />
    <glyph glyph-name="gcommaaccent" unicode="&#x123;" horiz-adv-x="359" 
d="M90 370q15 69 44.5 102t86.5 33h45q40 0 62 -19l67 60l10 -15l-67 -61q15 -30 1 -100l-17 -81q-15 -70 -44.5 -102.5t-87.5 -32.5h-49q-18 -1 -26 -7.5t-12 -27.5l-1 -4q-4 -20 0.5 -27.5t20.5 -8.5h102q56 0 72 -30t3 -95l-10 -46q-14 -65 -43.5 -95t-86.5 -30h-108
q-57 0 -73 30t-3 95l10 46q12 55 33 84t60 37q-5 10 1 40l1 5q6 29 21 41q-52 21 -29 128zM222 59h-114q-43 0 -65.5 -24.5t-34.5 -77.5l-11 -52q-11 -53 1.5 -77.5t55.5 -24.5h114q43 0 65.5 24.5t33.5 77.5l11 52q12 53 -0.5 77.5t-55.5 24.5zM215 485q-43 0 -66.5 -26.5
t-35.5 -85.5l-19 -87q-12 -55 -1 -83t50 -29h55q42 0 65.5 27t35.5 85l19 87q13 57 1 84.5t-54 27.5h-50zM268 572h-24l40 169h15z" />
    <glyph glyph-name="Hcircumflex" unicode="&#x124;" horiz-adv-x="451" 
d="M44 0h-22l150 710h22l-87 -412h291l87 412h23l-150 -710h-23l59 278h-291zM359 840h19l57 -90h-26l-42 70h-6l-71 -70h-26z" />
    <glyph glyph-name="hcircumflex" unicode="&#x125;" horiz-adv-x="357" 
d="M126 414l-87 -414h-22l156 736l18 4h5l-60 -282q36 53 90 53h53q53 0 69.5 -30.5t3.5 -94.5l-82 -386h-22l82 386q12 57 0 81t-52 24h-57q-34 0 -60 -24.5t-35 -52.5zM295 715h19l57 -90h-26l-42 70h-6l-71 -70h-26z" />
    <glyph glyph-name="Hbar" unicode="&#x126;" horiz-adv-x="454" 
d="M45 0h-22l127 598h-47l7 20h44l19 92h22l-19 -92h291l19 92h23l-19 -92h50l-8 -20h-46l-127 -598h-23l59 278h-291zM172 598l-64 -300h291l64 300h-291z" />
    <glyph glyph-name="hbar" unicode="&#x127;" horiz-adv-x="357" 
d="M106 610l5 20h40l23 106l17 4h6l-24 -110h72l-5 -20h-71l-32 -152q36 53 90 53h53q53 0 69.5 -30.5t3.5 -94.5l-82 -386h-22l82 386q12 57 0 81t-52 24h-57q-34 0 -60 -24.5t-35 -52.5l-87 -414h-22l129 610h-41z" />
    <glyph glyph-name="Itilde" unicode="&#x128;" horiz-adv-x="137" 
d="M44 0h-22l150 710h22zM247 817q20 0 27 -9t2 -30l-4 -20h-18l4 22q4 18 -16 18q-16 0 -27 -11l-26 -25q-13 -14 -38 -14q-23 0 -28.5 9t0.5 30l4 20h18l-5 -22q-2 -10 1 -14t16 -4q8 0 13.5 2.5t7.5 4t11 10.5l19 19q14 14 39 14z" />
    <glyph glyph-name="itilde" unicode="&#x129;" horiz-adv-x="133" 
d="M125 485h-41l4 20h63l-107 -505h-22zM211 647q20 0 27 -9t2 -30l-5 -20h-18l5 22q4 18 -16 18q-16 0 -27 -11l-26 -25q-13 -14 -38 -14q-23 0 -28.5 9t0.5 30l4 20h18l-5 -22q-2 -10 1 -14t15 -4t17 3t16 14l19 19q14 14 39 14z" />
    <glyph glyph-name="Imacron" unicode="&#x12a;" horiz-adv-x="137" 
d="M44 0h-22l150 710h22zM281 776l-7 -20h-157l7 20h157z" />
    <glyph glyph-name="imacron" unicode="&#x12b;" horiz-adv-x="133" 
d="M125 485h-41l4 20h63l-107 -505h-22zM245 606l-7 -20h-157l7 20h157z" />
    <glyph glyph-name="Ibreve" unicode="&#x12c;" horiz-adv-x="137" 
d="M44 0h-22l150 710h22zM206 749h-26q-56 0 -43 62l2 11h18l-3 -13q-8 -41 33 -41h21q41 0 48 41l3 13h18l-2 -11q-13 -62 -69 -62z" />
    <glyph glyph-name="ibreve" unicode="&#x12d;" horiz-adv-x="133" 
d="M125 485h-41l4 20h63l-107 -505h-22zM169 579h-26q-56 0 -43 62l2 11h18l-3 -13q-8 -41 33 -41h21q39 0 48 41l3 13h18l-2 -11q-13 -62 -69 -62z" />
    <glyph glyph-name="Iogonek" unicode="&#x12e;" horiz-adv-x="137" 
d="M-50 -95l2 9q6 29 39 48q17 9 23.5 16t9.5 22h-2l150 710h22l-150 -710h-1q-10 -39 -46 -57q-22 -12 -26 -31q-3 -13 2.5 -16.5t20.5 -3.5h42l-8 -20h-39q-22 0 -32.5 7.5t-6.5 25.5z" />
    <glyph glyph-name="iogonek" unicode="&#x12f;" horiz-adv-x="133" 
d="M-49 -94l1 9q8 30 40 48q16 9 22 15.5t10 21.5h-2l103 485h-41l4 20h63l-107 -505h-1q-10 -37 -45 -56q-23 -12 -27 -31q-3 -13 2.5 -16.5t20.5 -3.5h42l-7 -20h-39q-22 0 -32.5 7.5t-6.5 25.5zM165 696l10 44h24l-10 -44h-24z" />
    <glyph glyph-name="Idotaccent" unicode="&#x130;" horiz-adv-x="137" 
d="M44 0h-22l150 710h22zM184 784h31l-7 -35h-31z" />
    <glyph glyph-name="dotlessi" unicode="&#x131;" horiz-adv-x="133" 
d="M125 485h-41l4 20h63l-107 -505h-22z" />
    <glyph glyph-name="IJ" unicode="&#x132;" horiz-adv-x="405" 
d="M44 0h-22l150 710h22zM146 20h70q41 0 65.5 26t36.5 83l123 581h22l-124 -584q-26 -126 -123 -126h-77z" />
    <glyph glyph-name="Jcircumflex" unicode="&#x134;" horiz-adv-x="243" 
d="M-16 20h70q41 0 65.5 26t36.5 83l123 581h22l-124 -584q-26 -126 -123 -126h-77zM309 839h19l57 -90h-26l-42 70h-6l-71 -70h-26z" />
    <glyph glyph-name="jcircumflex" unicode="&#x135;" horiz-adv-x="133" 
d="M125 485h-41l4 20h63l-120 -564q-23 -106 -103 -106h-21l8 20h16q31 0 49.5 21t29.5 68zM165 670h19l57 -90h-26l-42 70h-6l-71 -70h-26z" />
    <glyph glyph-name="Kcommaaccent" unicode="&#x136;" horiz-adv-x="357" 
d="M44 0h-22l150 710h22l-73 -344l322 344h25l-329 -355l181 -355h-26l-177 344zM112 -99h21l-8 -39l-27 -85h-8z" />
    <glyph glyph-name="kcommaaccent" unicode="&#x137;" horiz-adv-x="290" 
d="M347 505l-236 -255l128 -250h-25l-125 239l-50 -239h-22l156 736l18 4h5l-101 -476l225 241h27zM102 -76h21l-8 -39l-27 -85h-8z" />
    <glyph glyph-name="Lacute" unicode="&#x139;" horiz-adv-x="351" 
d="M194 710l-146 -690h261l-7 -20h-280l150 710h22zM189 749h-21l85 106h28z" />
    <glyph glyph-name="lacute" unicode="&#x13a;" horiz-adv-x="146" 
d="M62 210l112 526l18 4h5l-77 -361h1l-60 -281q-16 -79 29 -79h20l-4 -20h-22q-65 0 -45 96l24 115h-1zM210 819h-21l85 106h28z" />
    <glyph glyph-name="Lcommaaccent" unicode="&#x13b;" horiz-adv-x="351" 
d="M194 710l-146 -690h261l-7 -20h-280l150 710h22zM128 -99h21l-8 -39l-27 -85h-8z" />
    <glyph glyph-name="lcommaaccent" unicode="&#x13c;" horiz-adv-x="146" 
d="M62 210l112 526l18 4h5l-77 -361h1l-60 -281q-16 -79 29 -79h20l-4 -20h-22q-65 0 -45 96l24 115h-1zM48 -76h21l-8 -39l-27 -85h-8z" />
    <glyph glyph-name="Lcaron" unicode="&#x13d;" horiz-adv-x="353" 
d="M194 710l-146 -690h261l-7 -20h-280l150 710h22zM405 710h24l-41 -169h-15z" />
    <glyph glyph-name="lcaron" unicode="&#x13e;" horiz-adv-x="147" 
d="M62 210l112 526l18 4h5l-77 -361h1l-60 -281q-16 -79 29 -79h20l-4 -20h-22q-65 0 -45 96l24 115h-1zM260 763h24l-41 -169h-15z" />
    <glyph glyph-name="Ldot" unicode="&#x13f;" horiz-adv-x="358" 
d="M194 710l-146 -690h261l-7 -20h-280l150 710h22zM327 241l9 44h24l-9 -44h-24z" />
    <glyph glyph-name="ldot" unicode="&#x140;" horiz-adv-x="196" 
d="M62 210l112 526l18 4h5l-77 -361h1l-60 -281q-16 -79 29 -79h20l-4 -20h-22q-65 0 -45 96l24 115h-1zM189 347l10 44h24l-10 -44h-24z" />
    <glyph glyph-name="Lslash" unicode="&#x141;" horiz-adv-x="367" 
d="M210 710l-86 -407l146 101v-19l-151 -104l-55 -261h261l-7 -20h-280l55 263l-73 -51v19l78 54l90 425h22z" />
    <glyph glyph-name="lslash" unicode="&#x142;" horiz-adv-x="189" 
d="M113 19h20l-4 -20h-22q-65 0 -45 96l58 276l-79 -52l5 21l79 52l73 344l17 4h6l-71 -331l95 63l-5 -21l-94 -63l-62 -290q-16 -79 29 -79z" />
    <glyph glyph-name="Nacute" unicode="&#x143;" horiz-adv-x="464" 
d="M44 0h-22l150 710h22l142 -582l19 -91l143 673h23l-150 -710h-23l-136 559q-16 69 -25 115zM349 749h-21l85 106h28z" />
    <glyph glyph-name="nacute" unicode="&#x144;" horiz-adv-x="357" 
d="M17 0l106 501l17 4h6l-10 -47q36 53 90 53h53q53 0 69.5 -30.5t3.5 -94.5l-82 -386h-22l82 386q12 57 0 81t-52 24h-57q-34 0 -60 -24.5t-35 -52.5l-87 -414h-22zM268 579h-21l85 106h28z" />
    <glyph glyph-name="Ncommaaccent" unicode="&#x145;" horiz-adv-x="464" 
d="M44 0h-22l150 710h22l142 -582l19 -91l143 673h23l-150 -710h-23l-136 559q-16 69 -25 115zM157 -76h21l-8 -39l-27 -85h-8z" />
    <glyph glyph-name="ncommaaccent" unicode="&#x146;" horiz-adv-x="357" 
d="M17 0l106 501l17 4h6l-10 -47q36 53 90 53h53q53 0 69.5 -30.5t3.5 -94.5l-82 -386h-22l82 386q12 57 0 81t-52 24h-57q-34 0 -60 -24.5t-35 -52.5l-87 -414h-22zM115 -76h21l-8 -39l-27 -85h-8z" />
    <glyph glyph-name="Ncaron" unicode="&#x147;" horiz-adv-x="464" 
d="M44 0h-22l150 710h22l142 -582l19 -91l143 673h23l-150 -710h-23l-136 559q-16 69 -25 115zM368 749h-14l-56 90h25l42 -70l72 70h26z" />
    <glyph glyph-name="ncaron" unicode="&#x148;" horiz-adv-x="357" 
d="M17 0l106 501l17 4h6l-10 -47q36 53 90 53h53q53 0 69.5 -30.5t3.5 -94.5l-82 -386h-22l82 386q12 57 0 81t-52 24h-57q-34 0 -60 -24.5t-35 -52.5l-87 -414h-22zM280 579h-14l-56 90h25l42 -70l72 70h26z" />
    <glyph glyph-name="napostrophe" unicode="&#x149;" horiz-adv-x="357" 
d="M17 0l106 501l17 4h6l-10 -47q36 53 90 53h53q53 0 69.5 -30.5t3.5 -94.5l-82 -386h-22l82 386q12 57 0 81t-52 24h-57q-34 0 -60 -24.5t-35 -52.5l-87 -414h-22z" />
    <glyph glyph-name="Eng" unicode="&#x14a;" horiz-adv-x="464" 
d="M162 -169h70q41 0 65.5 26t36.5 83l13 62l-135 557q-16 69 -25 115l-143 -674h-22l150 710h22l142 -582l19 -89l102 482h1l40 189h23l-150 -710h-2l-14 -63q-27 -126 -124 -126h-77z" />
    <glyph glyph-name="eng" unicode="&#x14b;" horiz-adv-x="357" 
d="M156 -145q32 0 50.5 21t29.5 68l94 442q12 57 0 81t-52 24h-57q-34 0 -60 -24.5t-35 -52.5l-87 -414h-22l106 501l17 4h6l-10 -47q36 53 90 53h53q53 0 69.5 -30.5t3.5 -94.5l-95 -445q-23 -106 -104 -106h-21l8 20h16z" />
    <glyph glyph-name="Omacron" unicode="&#x14c;" horiz-adv-x="462" 
d="M47 135l94 440q15 71 44 103t86 32h148q57 0 73.5 -32.5t1.5 -102.5l-94 -440q-15 -71 -43.5 -103t-84.5 -32h-150q-57 0 -73.5 32.5t-1.5 102.5zM417 690h-149q-43 0 -67.5 -27t-37.5 -85l-94 -446q-14 -57 -2.5 -84.5t57.5 -27.5h151q42 0 65.5 26.5t36.5 85.5l94 446
q14 62 2.5 87t-56.5 25zM445 776l-7 -20h-157l7 20h157z" />
    <glyph glyph-name="omacron" unicode="&#x14d;" horiz-adv-x="362" 
d="M93 376q16 71 44 103t83 32h60q57 0 74.5 -33t2.5 -102l-53 -251q-14 -64 -43 -94.5t-81 -30.5h-62q-105 0 -78 125zM282 491h-64q-43 0 -66.5 -27t-35.5 -85l-53 -248q-13 -61 0.5 -86t54.5 -25h64q41 0 65 25t36 86l53 248q13 57 0.5 84.5t-54.5 27.5zM358 606l-7 -20
h-157l7 20h157z" />
    <glyph glyph-name="Obreve" unicode="&#x14e;" horiz-adv-x="462" 
d="M47 135l94 440q15 71 44 103t86 32h148q57 0 73.5 -32.5t1.5 -102.5l-94 -440q-15 -71 -43.5 -103t-84.5 -32h-150q-57 0 -73.5 32.5t-1.5 102.5zM417 690h-149q-43 0 -67.5 -27t-37.5 -85l-94 -446q-14 -57 -2.5 -84.5t57.5 -27.5h151q42 0 65.5 26.5t36.5 85.5l94 446
q14 62 2.5 87t-56.5 25zM372 749h-26q-56 0 -43 62l2 11h18l-3 -13q-8 -41 33 -41h21q41 0 48 41l3 13h18l-2 -11q-13 -62 -69 -62z" />
    <glyph glyph-name="obreve" unicode="&#x14f;" horiz-adv-x="363" 
d="M93 376q16 71 44 103t83 32h60q57 0 74.5 -33t2.5 -102l-53 -251q-14 -64 -43 -94.5t-81 -30.5h-62q-105 0 -78 125zM282 491h-64q-43 0 -66.5 -27t-35.5 -85l-53 -248q-13 -61 0.5 -86t54.5 -25h64q41 0 65 25t36 86l53 248q13 57 0.5 84.5t-54.5 27.5zM283 579h-26
q-56 0 -43 62l2 11h18l-3 -13q-8 -41 33 -41h21q39 0 48 41l3 13h18l-2 -11q-13 -62 -69 -62z" />
    <glyph glyph-name="Ohungarumlaut" unicode="&#x150;" horiz-adv-x="462" 
d="M47 135l94 440q15 71 44 103t86 32h148q57 0 73.5 -32.5t1.5 -102.5l-94 -440q-15 -71 -43.5 -103t-84.5 -32h-150q-57 0 -73.5 32.5t-1.5 102.5zM417 690h-149q-43 0 -67.5 -27t-37.5 -85l-94 -446q-14 -57 -2.5 -84.5t57.5 -27.5h151q42 0 65.5 26.5t36.5 85.5l94 446
q14 62 2.5 87t-56.5 25zM393 850h26l-91 -106h-20zM448 850h26l-91 -106h-20z" />
    <glyph glyph-name="ohungarumlaut" unicode="&#x151;" horiz-adv-x="363" 
d="M93 376q16 71 44 103t83 32h60q57 0 74.5 -33t2.5 -102l-53 -251q-14 -64 -43 -94.5t-81 -30.5h-62q-105 0 -78 125zM282 491h-64q-43 0 -66.5 -27t-35.5 -85l-53 -248q-13 -61 0.5 -86t54.5 -25h64q41 0 65 25t36 86l53 248q13 57 0.5 84.5t-54.5 27.5zM305 680h26
l-91 -106h-20zM360 680h26l-91 -106h-20z" />
    <glyph glyph-name="OE" unicode="&#x152;" horiz-adv-x="685" 
d="M502 690l-18 -84q-1 -8 -5 -31l-16 -74h-1l-41 -193h230l-7 -20h-227l-17 -77h1l-16 -76q-3 -21 -8 -32l-17 -83h271l-7 -20h-290l6 30q-30 -30 -83 -30h-135q-57 0 -73.5 32.5t-1.5 102.5l94 440q15 71 44 103t86 32h133q56 0 73 -33l7 33h291l-7 -20h-266zM402 690
h-134q-43 0 -67.5 -27t-37.5 -85l-94 -446q-14 -57 -2.5 -84.5t57.5 -27.5h136q40 0 63 23.5t36 76.5l97 458q14 62 2.5 87t-56.5 25z" />
    <glyph glyph-name="oe" unicode="&#x153;" horiz-adv-x="592" 
d="M359 20h61q42 0 65 26.5t36 85.5l3 18h22l-3 -15q-15 -70 -42.5 -102.5t-83.5 -32.5h-57q-73 0 -82 53q-32 -53 -98 -53h-62q-105 0 -78 125l53 251q16 71 44 103t83 32h60q71 0 81 -52q31 52 105 52h47q58 0 76.5 -27t6.5 -85l-10 -55q-12 -57 -38.5 -82t-85.5 -25h-134
l-25 -116q-10 -51 2 -76t54 -25zM282 491h-64q-43 0 -66.5 -27t-35.5 -85l-53 -248q-13 -61 0.5 -86t54.5 -25h64q40 0 63 23t36 79l55 257q13 57 0.5 84.5t-54.5 27.5zM518 491h-59q-42 0 -64.5 -22.5t-32.5 -69.5l-30 -142h131q47 0 69 20.5t32 66.5l11 55
q10 47 -2.5 69.5t-54.5 22.5z" />
    <glyph glyph-name="Racute" unicode="&#x154;" horiz-adv-x="409" 
d="M22 0l150 710h192q112 0 84 -135l-28 -132q-28 -135 -135 -135h-30l107 -308h-26l-108 308h-119l-65 -308h-22zM190 690l-77 -362h174q44 0 71 28.5t40 90.5l26 124q13 62 -1.5 90.5t-58.5 28.5h-174zM315 749h-21l85 106h28z" />
    <glyph glyph-name="racute" unicode="&#x155;" horiz-adv-x="221" 
d="M282 492l-103 -43q-50 -22 -62 -79l-78 -370h-22l106 501l17 4h6l-15 -72q14 21 47 36l99 42h7zM216 574h-21l85 106h28z" />
    <glyph glyph-name="Rcommaaccent" unicode="&#x156;" horiz-adv-x="409" 
d="M22 0l150 710h192q112 0 84 -135l-28 -132q-28 -135 -135 -135h-30l107 -308h-26l-108 308h-119l-65 -308h-22zM190 690l-77 -362h174q44 0 71 28.5t40 90.5l26 124q13 62 -1.5 90.5t-58.5 28.5h-174zM164 -76h21l-8 -39l-27 -85h-8z" />
    <glyph glyph-name="rcommaaccent" unicode="&#x157;" horiz-adv-x="221" 
d="M282 492l-103 -43q-50 -22 -62 -79l-78 -370h-22l106 501l17 4h6l-15 -72q14 21 47 36l99 42h7zM75 -76h21l-8 -39l-27 -85h-8z" />
    <glyph glyph-name="Rcaron" unicode="&#x158;" horiz-adv-x="409" 
d="M22 0l150 710h192q112 0 84 -135l-28 -132q-28 -135 -135 -135h-30l107 -308h-26l-108 308h-119l-65 -308h-22zM190 690l-77 -362h174q44 0 71 28.5t40 90.5l26 124q13 62 -1.5 90.5t-58.5 28.5h-174zM326 749h-14l-56 90h25l42 -70l72 70h26z" />
    <glyph glyph-name="rcaron" unicode="&#x159;" horiz-adv-x="221" 
d="M282 492l-103 -43q-50 -22 -62 -79l-78 -370h-22l106 501l17 4h6l-15 -72q14 21 47 36l99 42h7zM229 574h-14l-56 90h25l42 -70l72 70h26z" />
    <glyph glyph-name="Sacute" unicode="&#x15a;" horiz-adv-x="406" 
d="M317 317l-154 91q-33 19 -42.5 45.5t0.5 69.5l12 58q14 69 41.5 99t77.5 30h114q55 0 74.5 -30.5t4.5 -98.5l-17 -80h-22l17 81q14 60 -1.5 84t-56.5 24h-106q-45 0 -68.5 -25t-36.5 -88l-11 -54q-9 -36 -2 -58.5t35 -38.5l156 -92q35 -20 44 -48t-2 -77l-18 -84
q-14 -63 -41.5 -94t-74.5 -31h-136q-54 0 -72 31t-4 94l18 86h22l-18 -86q-23 -105 56 -105h128q41 0 64.5 25t35.5 80l18 84q10 45 3 67t-38 41zM328 749h-21l85 106h28z" />
    <glyph glyph-name="sacute" unicode="&#x15b;" horiz-adv-x="320" 
d="M252 491h-49q-38 0 -58 -20t-29 -62l-4 -23q-4 -18 -4 -31.5t2 -21.5t11 -16t14.5 -11t21.5 -12l79 -41q29 -15 40 -37.5t1 -70.5l-8 -40q-12 -55 -37 -80t-77 -25h-61q-53 0 -68 27.5t-2 87.5l7 34h22l-8 -37q-10 -49 1 -70.5t49 -21.5h65q38 0 58 19.5t29 62.5l9 42
q9 39 0.5 59t-34.5 34l-77 40q-19 10 -25.5 14t-17.5 13.5t-13 19t-3 26t4 39.5l4 17q11 54 36.5 79.5t77.5 25.5h45q53 0 68 -27.5t2 -87.5l-6 -25h-21l6 28q10 47 -1 69.5t-49 22.5zM242 579h-21l85 106h28z" />
    <glyph glyph-name="Scircumflex" unicode="&#x15c;" horiz-adv-x="406" 
d="M317 317l-154 91q-33 19 -42.5 45.5t0.5 69.5l12 58q14 69 41.5 99t77.5 30h114q55 0 74.5 -30.5t4.5 -98.5l-17 -80h-22l17 81q14 60 -1.5 84t-56.5 24h-106q-45 0 -68.5 -25t-36.5 -88l-11 -54q-9 -36 -2 -58.5t35 -38.5l156 -92q35 -20 44 -48t-2 -77l-18 -84
q-14 -63 -41.5 -94t-74.5 -31h-136q-54 0 -72 31t-4 94l18 86h22l-18 -86q-23 -105 56 -105h128q41 0 64.5 25t35.5 80l18 84q10 45 3 67t-38 41zM341 839h19l57 -90h-26l-42 70h-6l-71 -70h-26z" />
    <glyph glyph-name="scircumflex" unicode="&#x15d;" horiz-adv-x="320" 
d="M252 491h-49q-38 0 -58 -20t-29 -62l-4 -23q-4 -18 -4 -31.5t2 -21.5t11 -16t14.5 -11t21.5 -12l79 -41q29 -15 40 -37.5t1 -70.5l-8 -40q-12 -55 -37 -80t-77 -25h-61q-53 0 -68 27.5t-2 87.5l7 34h22l-8 -37q-10 -49 1 -70.5t49 -21.5h65q38 0 58 19.5t29 62.5l9 42
q9 39 0.5 59t-34.5 34l-77 40q-19 10 -25.5 14t-17.5 13.5t-13 19t-3 26t4 39.5l4 17q11 54 36.5 79.5t77.5 25.5h45q53 0 68 -27.5t2 -87.5l-6 -25h-21l6 28q10 47 -1 69.5t-49 22.5zM257 669h19l57 -90h-26l-43 70h-6l-70 -70h-26z" />
    <glyph glyph-name="Scedilla" unicode="&#x15e;" horiz-adv-x="406" 
d="M173 -64l-15 2q-21 3 -14 36l6 26h-46q-54 0 -72 31t-4 94l18 86h22l-18 -86q-23 -105 56 -105h128q41 0 64.5 25t35.5 80l18 84q10 45 3 67t-38 41l-154 91q-33 19 -42.5 45.5t0.5 69.5l12 58q14 69 41.5 99t77.5 30h114q55 0 74.5 -30.5t4.5 -98.5l-17 -80h-22l17 81
q14 60 -1.5 84t-56.5 24h-106q-45 0 -68.5 -25t-36.5 -88l-11 -54q-9 -36 -2 -58.5t35 -38.5l156 -92q35 -20 44 -48t-2 -77l-18 -84q-14 -63 -41.5 -94t-74.5 -31h-70l-5 -19q-4 -21 7 -23l20 -4q24 -4 17 -43l-3 -13q-12 -52 -58 -52h-15q-46 0 -35 46l3 14h19l-3 -13
q-6 -28 19 -28h16q28 0 34 30l3 13q5 24 -16 28z" />
    <glyph glyph-name="scedilla" unicode="&#x15f;" horiz-adv-x="319" 
d="M122 -64l-15 2q-21 3 -14 36l6 26h-5q-53 0 -68 27.5t-2 87.5l7 34h22l-8 -37q-10 -49 1 -70.5t49 -21.5h65q38 0 58 19.5t29 62.5l9 42q9 39 0.5 59t-34.5 34l-77 40q-19 10 -25.5 14t-17.5 13.5t-13 19t-3 26t4 39.5l4 17q11 54 36.5 79.5t77.5 25.5h45q53 0 68 -27.5
t2 -87.5l-6 -25h-21l6 28q10 47 -1 69.5t-49 22.5h-49q-38 0 -58 -20t-29 -62l-4 -23q-4 -18 -4 -31.5t2 -21.5t11 -16t14.5 -11t21.5 -12l79 -41q29 -15 40 -37.5t1 -70.5l-8 -40q-12 -55 -37 -80t-77 -25h-36l-5 -19q-4 -21 7 -23l20 -4q24 -4 17 -43l-3 -13
q-12 -52 -58 -52h-15q-46 0 -35 46l3 14h19l-3 -13q-6 -28 19 -28h16q28 0 34 30l3 13q5 24 -16 28z" />
    <glyph glyph-name="Scaron" unicode="&#x160;" horiz-adv-x="407" 
d="M317 317l-154 91q-33 19 -42.5 45.5t0.5 69.5l12 58q14 69 41.5 99t77.5 30h114q55 0 74.5 -30.5t4.5 -98.5l-17 -80h-22l17 81q14 60 -1.5 84t-56.5 24h-106q-45 0 -68.5 -25t-36.5 -88l-11 -54q-9 -36 -2 -58.5t35 -38.5l156 -92q35 -20 44 -48t-2 -77l-18 -84
q-14 -63 -41.5 -94t-74.5 -31h-136q-54 0 -72 31t-4 94l18 86h22l-18 -86q-23 -105 56 -105h128q41 0 64.5 25t35.5 80l18 84q10 45 3 67t-38 41zM338 749h-14l-56 90h25l42 -70l72 70h26z" />
    <glyph glyph-name="scaron" unicode="&#x161;" horiz-adv-x="320" 
d="M252 491h-49q-38 0 -58 -20t-29 -62l-4 -23q-4 -18 -4 -31.5t2 -21.5t11 -16t14.5 -11t21.5 -12l79 -41q29 -15 40 -37.5t1 -70.5l-8 -40q-12 -55 -37 -80t-77 -25h-61q-53 0 -68 27.5t-2 87.5l7 34h22l-8 -37q-10 -49 1 -70.5t49 -21.5h65q38 0 58 19.5t29 62.5l9 42
q9 39 0.5 59t-34.5 34l-77 40q-19 10 -25.5 14t-17.5 13.5t-13 19t-3 26t4 39.5l4 17q11 54 36.5 79.5t77.5 25.5h45q53 0 68 -27.5t2 -87.5l-6 -25h-21l6 28q10 47 -1 69.5t-49 22.5zM255 579h-14l-56 90h25l42 -70l72 70h26z" />
    <glyph glyph-name="Tcommaaccent" unicode="&#x162;" horiz-adv-x="336" 
d="M437 690h-147l-146 -690h-22l146 690h-148l4 20h317zM105 -76h21l-8 -39l-27 -85h-8z" />
    <glyph glyph-name="Tcaron" unicode="&#x164;" horiz-adv-x="336" 
d="M437 690h-147l-146 -690h-22l146 690h-148l4 20h317zM299 749h-14l-56 90h25l42 -70l72 70h26z" />
    <glyph glyph-name="tcaron" unicode="&#x165;" horiz-adv-x="208" 
d="M255 505l-6 -20h-86l-76 -356q-12 -57 0 -83t50 -26h35l-2 -20h-35q-97 0 -71 126l77 359h-63l6 20h61l29 136l18 4h5l-30 -140h88zM277 726h24l-41 -169h-15z" />
    <glyph glyph-name="Tbar" unicode="&#x166;" horiz-adv-x="338" 
d="M437 690h-147l-43 -203h58l-6 -20h-56l-99 -467h-22l99 467h-56l6 20h54l43 203h-148l4 20h317z" />
    <glyph glyph-name="Utilde" unicode="&#x168;" 
d="M242 20q49 0 78 31t43 98l119 561h23l-119 -564q-16 -74 -50.5 -110t-92.5 -36h-110q-114 0 -82 146l119 564h22l-119 -561q-14 -68 0.5 -98.5t62.5 -30.5h106zM401 817q20 0 27 -9t2 -30l-4 -20h-18l4 22q4 18 -16 18q-16 0 -27 -11l-26 -25q-13 -14 -38 -14
q-23 0 -28.5 9t0.5 30l4 20h18l-5 -22q-2 -10 1 -14t16 -4q8 0 13.5 2.5t7.5 4t11 10.5l19 19q14 14 39 14z" />
    <glyph glyph-name="utilde" unicode="&#x169;" horiz-adv-x="355" 
d="M373 505l-107 -505h-21l11 55q-41 -55 -101 -55h-42q-99 0 -72 125l81 380h22l-81 -380q-12 -56 2 -80.5t54 -24.5h43q36 0 65.5 26t37.5 53h1l5 27l80 379h22zM317 647q20 0 27 -9t2 -30l-5 -20h-18l5 22q4 18 -16 18q-16 0 -27 -11l-26 -25q-13 -14 -38 -14
q-23 0 -28.5 9t0.5 30l4 20h18l-5 -22q-2 -10 1 -14t15 -4t17 3t16 14l19 19q14 14 39 14z" />
    <glyph glyph-name="Umacron" unicode="&#x16a;" 
d="M242 20q49 0 78 31t43 98l119 561h23l-119 -564q-16 -74 -50.5 -110t-92.5 -36h-110q-114 0 -82 146l119 564h22l-119 -561q-14 -68 0.5 -98.5t62.5 -30.5h106zM434 776l-7 -20h-157l7 20h157z" />
    <glyph glyph-name="umacron" unicode="&#x16b;" horiz-adv-x="355" 
d="M373 505l-107 -505h-21l11 55q-41 -55 -101 -55h-42q-99 0 -72 125l81 380h22l-81 -380q-12 -56 2 -80.5t54 -24.5h43q36 0 65.5 26t37.5 53h1l5 27l80 379h22zM349 606l-7 -20h-157l7 20h157z" />
    <glyph glyph-name="Ubreve" unicode="&#x16c;" 
d="M242 20q49 0 78 31t43 98l119 561h23l-119 -564q-16 -74 -50.5 -110t-92.5 -36h-110q-114 0 -82 146l119 564h22l-119 -561q-14 -68 0.5 -98.5t62.5 -30.5h106zM360 749h-26q-56 0 -43 62l2 11h18l-3 -13q-8 -41 33 -41h21q41 0 48 41l3 13h18l-2 -11q-13 -62 -69 -62z
" />
    <glyph glyph-name="ubreve" unicode="&#x16d;" horiz-adv-x="355" 
d="M373 505l-107 -505h-21l11 55q-41 -55 -101 -55h-42q-99 0 -72 125l81 380h22l-81 -380q-12 -56 2 -80.5t54 -24.5h43q36 0 65.5 26t37.5 53h1l5 27l80 379h22zM275 579h-26q-56 0 -43 62l2 11h18l-3 -13q-8 -41 33 -41h21q39 0 48 41l3 13h18l-2 -11q-13 -62 -69 -62z
" />
    <glyph glyph-name="Uring" unicode="&#x16e;" 
d="M242 20q49 0 78 31t43 98l119 561h23l-119 -564q-16 -74 -50.5 -110t-92.5 -36h-110q-114 0 -82 146l119 564h22l-119 -561q-14 -68 0.5 -98.5t62.5 -30.5h106zM369 884h13q61 0 48 -62l-4 -21q-13 -62 -74 -62h-13q-61 0 -48 62l4 21q13 62 74 62zM406 799l6 25
q7 40 -30 40h-21q-38 0 -47 -40l-6 -25q-7 -40 31 -40h21q37 0 46 40z" />
    <glyph glyph-name="uring" unicode="&#x16f;" horiz-adv-x="355" 
d="M373 505l-107 -505h-21l11 55q-41 -55 -101 -55h-42q-99 0 -72 125l81 380h22l-81 -380q-12 -56 2 -80.5t54 -24.5h43q36 0 65.5 26t37.5 53h1l5 27l80 379h22zM284 714h13q61 0 48 -62l-4 -21q-13 -62 -75 -62h-13q-32 0 -43 15t-4 47l4 21q13 62 74 62zM321 629l6 25
q7 40 -30 40h-21q-40 0 -47 -40l-6 -25q-9 -40 31 -40h21q37 0 46 40z" />
    <glyph glyph-name="Uhungarumlaut" unicode="&#x170;" 
d="M242 20q49 0 78 31t43 98l119 561h23l-119 -564q-16 -74 -50.5 -110t-92.5 -36h-110q-114 0 -82 146l119 564h22l-119 -561q-14 -68 0.5 -98.5t62.5 -30.5h106zM382 850h26l-91 -106h-20zM437 850h26l-91 -106h-20z" />
    <glyph glyph-name="uhungarumlaut" unicode="&#x171;" horiz-adv-x="355" 
d="M373 505l-107 -505h-21l11 55q-41 -55 -101 -55h-42q-99 0 -72 125l81 380h22l-81 -380q-12 -56 2 -80.5t54 -24.5h43q36 0 65.5 26t37.5 53h1l5 27l80 379h22zM297 680h26l-91 -106h-20zM352 680h26l-91 -106h-20z" />
    <glyph glyph-name="Uogonek" unicode="&#x172;" 
d="M103 -92l2 9q6 28 40 48q15 9 21.5 15.5t10.5 19.5h-44q-114 0 -82 146l119 564h22l-119 -561q-14 -68 0.5 -98.5t62.5 -30.5h106q49 0 78 31t43 98l119 561h23l-119 -564q-16 -74 -50.5 -110t-92.5 -36h-47q-8 -34 -45 -54q-23 -12 -27 -31q-2 -13 3 -16.5t20 -3.5h42
l-7 -20h-39q-22 0 -33 7.5t-7 25.5z" />
    <glyph glyph-name="uogonek" unicode="&#x173;" horiz-adv-x="355" 
d="M176 -89l1 9q7 30 41 48q26 14 31 32h-4l11 55q-41 -55 -101 -55h-42q-99 0 -72 125l81 380h22l-81 -380q-12 -56 2 -80.5t54 -24.5h43q36 0 65.5 26t37.5 53h1l5 27l80 379h22l-103 -482h2l-3 -16q-5 -24 -15.5 -36t-29.5 -22q-23 -12 -27 -31q-3 -13 2.5 -16.5
t20.5 -3.5h42l-7 -20h-39q-22 0 -33 7.5t-7 25.5z" />
    <glyph glyph-name="Wcircumflex" unicode="&#x174;" horiz-adv-x="645" 
d="M170 0h-30v710h23l-4 -628l-1 -62q7 30 21 61l245 629h24l-22 -629q-1 -9 -1 -26t-2 -28q4 14 22 53l264 630h24l-300 -710h-29l23 643q3 30 4 39q-6 -26 -12 -39zM454 839h19l57 -90h-26l-42 70h-6l-71 -70h-26z" />
    <glyph glyph-name="wcircumflex" unicode="&#x175;" horiz-adv-x="524" 
d="M137 0h-30l-9 505h22l4 -485l196 485h27l-14 -485l212 485h24l-223 -505h-30l9 435q-2 18 -1 29q-5 -16 -12 -29zM357 669h19l57 -90h-26l-43 70h-6l-70 -70h-26z" />
    <glyph glyph-name="Ycircumflex" unicode="&#x176;" horiz-adv-x="392" 
d="M171 0h-22l65 306l-80 404h23l63 -335q8 -42 7 -53q10 21 29 52l205 336h24l-249 -404zM329 839h19l57 -90h-26l-42 70h-6l-71 -70h-26z" />
    <glyph glyph-name="ycircumflex" unicode="&#x177;" horiz-adv-x="332" 
d="M-30 -205q61 0 94 72l56 122h-6l-17 516h23l15 -483l220 483h24l-296 -639q-21 -46 -45 -68.5t-71 -22.5h-38l7 20h34zM258 669h19l57 -90h-26l-43 70h-6l-70 -70h-26z" />
    <glyph glyph-name="Ydieresis" unicode="&#x178;" horiz-adv-x="392" 
d="M171 0h-22l65 306l-80 404h23l63 -335q8 -42 7 -53q10 21 29 52l205 336h24l-249 -404zM266 775h22l-7 -36h-22zM362 775h22l-7 -36h-22z" />
    <glyph glyph-name="Zacute" unicode="&#x179;" horiz-adv-x="343" 
d="M432 690l-421 -670h288l-7 -20h-309l1 20l421 670h-275l1 20h302zM287 749h-21l85 106h28z" />
    <glyph glyph-name="zacute" unicode="&#x17a;" horiz-adv-x="297" 
d="M338 485l-321 -465h228l-7 -20h-249l1 20l321 465h-218l2 20h244zM231 579h-21l85 106h28z" />
    <glyph glyph-name="Zdotaccent" unicode="&#x17b;" horiz-adv-x="343" 
d="M432 690l-421 -670h288l-7 -20h-309l1 20l421 670h-275l1 20h302zM284 784h31l-7 -35h-31z" />
    <glyph glyph-name="zdotaccent" unicode="&#x17c;" horiz-adv-x="297" 
d="M338 485l-321 -465h228l-7 -20h-249l1 20l321 465h-218l2 20h244zM229 614h31l-7 -35h-31z" />
    <glyph glyph-name="Zcaron" unicode="&#x17d;" horiz-adv-x="343" 
d="M432 690l-421 -670h288l-7 -20h-309l1 20l421 670h-275l1 20h302zM300 749h-14l-56 90h25l42 -70l72 70h26z" />
    <glyph glyph-name="zcaron" unicode="&#x17e;" horiz-adv-x="297" 
d="M338 485l-321 -465h228l-7 -20h-249l1 20l321 465h-218l2 20h244zM244 579h-14l-56 90h25l42 -70l72 70h26z" />
    <glyph glyph-name="florin" unicode="&#x192;" horiz-adv-x="231" 
d="M311 720q-40 0 -64 -26t-37 -83l-32 -152h84l-8 -20h-80l-103 -486q-27 -126 -124 -126h-43l9 20h38q40 0 63 26t35 83l103 483h-69l8 20h65l33 155q27 126 126 126h43l-9 -20h-38z" />
    <glyph glyph-name="AEacute" unicode="&#x1fc;" horiz-adv-x="640" 
d="M740 710l-7 -20h-283l-48 -390h197l-7 -20h-192l-32 -260h213l-7 -20h-230l20 166h-262l-107 -166h-29l464 710h310zM425 668l-311 -482h252zM470 759h-21l85 106h28z" />
    <glyph glyph-name="aeacute" unicode="&#x1fd;" horiz-adv-x="569" 
d="M338 20h57q42 0 65.5 26.5t36.5 85.5l3 18h22l-3 -15q-15 -69 -44.5 -102t-86.5 -33h-51q-77 0 -82 63q-39 -63 -117 -63h-36q-52 0 -71 24t-7 81l15 73q24 105 123 105h131l28 133q9 41 -0.5 58.5t-38.5 17.5h-89q-57 0 -73 -75l-5 -25h-22l5 25q20 94 98 94h92
q52 0 58 -46q31 46 99 46h51q57 0 74 -27t5 -85l-11 -55q-12 -56 -39.5 -81.5t-85.5 -25.5h-133l-22 -105q-14 -54 -1.5 -83t55.5 -29zM107 20h38q49 0 76 26.5t40 88.5l27 128h-132q-40 0 -62.5 -20.5t-31.5 -63.5l-16 -74q-11 -50 5 -67.5t56 -17.5zM495 491h-57
q-43 0 -66.5 -26.5t-35.5 -85.5l-26 -122h136q43 0 64.5 20.5t31.5 66.5l11 55q10 48 -2.5 70t-55.5 22zM380 578h-21l86 106h28z" />
    <glyph glyph-name="Oslashacute" unicode="&#x1fe;" horiz-adv-x="450" 
d="M536 750h26l-76 -105q2 -21 -7 -70l-94 -440q-15 -71 -43.5 -103t-84.5 -32h-135q-60 0 -76 35l-54 -75h-26l74 102q-3 26 7 73l94 440q15 71 44 103t86 32h133q61 0 76 -37zM402 690h-134q-43 0 -67 -27t-37 -85l-94 -446q-6 -29 -7 -37l399 554q-4 41 -60 41zM124 20
h136q42 0 65.5 26.5t36.5 85.5l94 446q3 11 5 33l-398 -552q7 -39 61 -39zM340 749h-21l85 106h28z" />
    <glyph glyph-name="oslashacute" unicode="&#x1ff;" horiz-adv-x="368" 
d="M93 376q16 71 44 103t83 32h60q65 0 80 -45l62 76h25l-83 -102q2 -29 -7 -64l-53 -251q-14 -64 -43 -94.5t-81 -30.5h-62q-63 0 -78 42l-65 -80h-24l84 104q-3 23 5 59zM282 491h-64q-43 0 -66.5 -27t-35.5 -85l-53 -248q-4 -21 -6 -38l285 351q-6 47 -60 47zM336 379
q3 11 5 33l-283 -349q6 -43 60 -43h64q41 0 65 25t36 86zM267 579h-21l85 106h28z" />
    <glyph glyph-name="Scommaaccent" unicode="&#x218;" horiz-adv-x="406" 
d="M317 317l-154 91q-33 19 -42.5 45.5t0.5 69.5l12 58q14 69 41.5 99t77.5 30h114q55 0 74.5 -30.5t4.5 -98.5l-17 -80h-22l17 81q14 60 -1.5 84t-56.5 24h-106q-45 0 -68.5 -25t-36.5 -88l-11 -54q-9 -36 -2 -58.5t35 -38.5l156 -92q35 -20 44 -48t-2 -77l-18 -84
q-14 -63 -41.5 -94t-74.5 -31h-136q-54 0 -72 31t-4 94l18 86h22l-18 -86q-23 -105 56 -105h128q41 0 64.5 25t35.5 80l18 84q10 45 3 67t-38 41zM152 -76h21l-8 -39l-27 -85h-8z" />
    <glyph glyph-name="scommaaccent" unicode="&#x219;" horiz-adv-x="320" 
d="M252 491h-49q-38 0 -58 -20t-29 -62l-4 -23q-4 -18 -4 -31.5t2 -21.5t11 -16t14.5 -11t21.5 -12l79 -41q29 -15 40 -37.5t1 -70.5l-8 -40q-12 -55 -37 -80t-77 -25h-61q-53 0 -68 27.5t-2 87.5l7 34h22l-8 -37q-10 -49 1 -70.5t49 -21.5h65q38 0 58 19.5t29 62.5l9 42
q9 39 0.5 59t-34.5 34l-77 40q-19 10 -25.5 14t-17.5 13.5t-13 19t-3 26t4 39.5l4 17q11 54 36.5 79.5t77.5 25.5h45q53 0 68 -27.5t2 -87.5l-6 -25h-21l6 28q10 47 -1 69.5t-49 22.5zM96 -76h21l-8 -39l-27 -85h-8z" />
    <glyph glyph-name="dotlessj" unicode="&#x237;" horiz-adv-x="133" 
d="M125 485h-41l4 20h63l-120 -564q-23 -106 -103 -106h-21l8 20h16q31 0 49.5 21t29.5 68z" />
    <glyph glyph-name="circumflex" unicode="&#x2c6;" horiz-adv-x="478" 
d="M314 715h19l57 -90h-26l-42 70h-6l-71 -70h-26z" />
    <glyph glyph-name="caron" unicode="&#x2c7;" horiz-adv-x="668" 
d="M311 625h-14l-56 90h25l43 -70l71 70h26z" />
    <glyph glyph-name="breve" unicode="&#x2d8;" horiz-adv-x="666" 
d="M401 599h-26q-56 0 -43 62l2 11h18l-2 -13q-9 -41 32 -41h21q40 0 49 41l2 13h18l-2 -11q-13 -62 -69 -62z" />
    <glyph glyph-name="dotaccent" unicode="&#x2d9;" horiz-adv-x="667" 
d="M360 715h31l-7 -35h-31z" />
    <glyph glyph-name="ring" unicode="&#x2da;" horiz-adv-x="666" 
d="M377 677h13q61 0 48 -62l-4 -21q-13 -62 -74 -62h-13q-61 0 -48 62l4 21q13 62 74 62zM414 592l6 25q7 40 -30 40h-21q-38 0 -47 -40l-6 -25q-7 -40 31 -40h21q37 0 46 40z" />
    <glyph glyph-name="ogonek" unicode="&#x2db;" horiz-adv-x="666" 
d="M184 -89l1 9q7 30 41 48q16 9 22 16t10 23l3 16h19l-3 -16q-5 -24 -15.5 -36t-29.5 -22q-23 -12 -27 -31q-3 -13 2.5 -16.5t20.5 -3.5h42l-7 -20h-39q-22 0 -33 7.5t-7 25.5z" />
    <glyph glyph-name="tilde" unicode="&#x2dc;" horiz-adv-x="667" 
d="M384 688q20 0 26.5 -9t1.5 -30l-4 -20h-18l5 22q3 18 -16 18q-17 0 -28 -11l-25 -25q-14 -14 -38 -14q-23 0 -28.5 8.5t-0.5 30.5l5 20h18l-5 -22q-2 -10 0.5 -14t15.5 -4q12 0 17 3t16 14l19 19q14 14 39 14z" />
    <glyph glyph-name="hungarumlaut" unicode="&#x2dd;" horiz-adv-x="217" 
d="M239 730h26l-92 -106h-20zM294 730h26l-92 -106h-20z" />
    <glyph glyph-name="Wgrave" unicode="&#x1e80;" horiz-adv-x="645" 
d="M170 0h-30v710h23l-4 -628l-1 -62q7 30 21 61l245 629h24l-22 -629q-1 -9 -1 -26t-2 -28q4 14 22 53l264 630h24l-300 -710h-29l23 643q3 30 4 39q-6 -26 -12 -39zM390 845h27l51 -96h-20z" />
    <glyph glyph-name="wgrave" unicode="&#x1e81;" horiz-adv-x="524" 
d="M137 0h-30l-9 505h22l4 -485l196 485h27l-14 -485l212 485h24l-223 -505h-30l9 435q-2 18 -1 29q-5 -16 -12 -29zM293 675h27l51 -96h-20z" />
    <glyph glyph-name="Wacute" unicode="&#x1e82;" horiz-adv-x="645" 
d="M170 0h-30v710h23l-4 -628l-1 -62q7 30 21 61l245 629h24l-22 -629q-1 -9 -1 -26t-2 -28q4 14 22 53l264 630h24l-300 -710h-29l23 643q3 30 4 39q-6 -26 -12 -39zM440 749h-21l85 106h28z" />
    <glyph glyph-name="wacute" unicode="&#x1e83;" horiz-adv-x="524" 
d="M137 0h-30l-9 505h22l4 -485l196 485h27l-14 -485l212 485h24l-223 -505h-30l9 435q-2 18 -1 29q-5 -16 -12 -29zM343 579h-21l85 106h28z" />
    <glyph glyph-name="Wdieresis" unicode="&#x1e84;" horiz-adv-x="645" 
d="M170 0h-30v710h23l-4 -628l-1 -62q7 30 21 61l245 629h24l-22 -629q-1 -9 -1 -26t-2 -28q4 14 22 53l264 630h24l-300 -710h-29l23 643q3 30 4 39q-6 -26 -12 -39zM486 775h22l-7 -36h-22zM390 775h22l-7 -36h-22z" />
    <glyph glyph-name="wdieresis" unicode="&#x1e85;" horiz-adv-x="524" 
d="M137 0h-30l-9 505h22l4 -485l196 485h27l-14 -485l212 485h24l-223 -505h-30l9 435q-2 18 -1 29q-5 -16 -12 -29zM391 605h22l-8 -36h-22zM295 605h22l-8 -36h-22z" />
    <glyph glyph-name="Ygrave" unicode="&#x1ef2;" horiz-adv-x="392" 
d="M171 0h-22l65 306l-80 404h23l63 -335q8 -42 7 -53q10 21 29 52l205 336h24l-249 -404zM264 845h27l51 -96h-20z" />
    <glyph glyph-name="ygrave" unicode="&#x1ef3;" horiz-adv-x="332" 
d="M-30 -205q61 0 94 72l56 122h-6l-17 516h23l15 -483l220 483h24l-296 -639q-21 -46 -45 -68.5t-71 -22.5h-38l7 20h34zM193 675h27l51 -96h-20z" />
    <glyph glyph-name="endash" unicode="&#x2013;" horiz-adv-x="356" 
d="M349 306l-8 -20h-280l8 20h280z" />
    <glyph glyph-name="emdash" unicode="&#x2014;" horiz-adv-x="155" 
d="M276 306l-8 -20h-327l8 20h327z" />
    <glyph glyph-name="quoteleft" unicode="&#x2018;" horiz-adv-x="111" 
d="M149 551h-24l40 169h15z" />
    <glyph glyph-name="quoteright" unicode="&#x2019;" horiz-adv-x="111" 
d="M161 720h24l-41 -169h-15z" />
    <glyph glyph-name="quotesinglbase" unicode="&#x201a;" horiz-adv-x="17" 
d="M-14 114h24l-41 -169h-14z" />
    <glyph glyph-name="quotedblleft" unicode="&#x201c;" horiz-adv-x="181" 
d="M219 551h-24l40 169h15zM149 551h-24l40 169h15z" />
    <glyph glyph-name="quotedblright" unicode="&#x201d;" horiz-adv-x="179" 
d="M229 720h24l-41 -169h-15zM161 720h24l-41 -169h-15z" />
    <glyph glyph-name="quotedblbase" unicode="&#x201e;" horiz-adv-x="108" 
d="M71 94h24l-40 -169h-15zM-20 94h24l-39 -169h-15z" />
    <glyph glyph-name="dagger" unicode="&#x2020;" horiz-adv-x="275" 
d="M44 286l8 20h98l99 467l18 4h5l-100 -471h112l-8 -20h-109l-114 -536h-22l114 536h-101z" />
    <glyph glyph-name="daggerdbl" unicode="&#x2021;" horiz-adv-x="276" 
d="M60 356l7 20h98l85 397l18 4h5l-86 -401h112l-7 -20h-109l-38 -180h112l-7 -20h-109l-87 -406h-22l87 406h-101l7 20h98l38 180h-101z" />
    <glyph glyph-name="bullet" unicode="&#x2022;" horiz-adv-x="182" 
d="M79 232l18 86h47l-18 -86h-47z" />
    <glyph glyph-name="ellipsis" unicode="&#x2026;" horiz-adv-x="570" 
d="M22 -5l10 44h24l-10 -44h-24zM246 -5l10 44h24l-10 -44h-24zM437 -5l10 44h24l-10 -44h-24z" />
    <glyph glyph-name="perthousand" unicode="&#x2030;" horiz-adv-x="779" 
d="M568 257q18 83 90 83h57q72 0 54 -83l-37 -173q-18 -84 -89 -84h-57q-73 0 -55 84zM327 257q18 83 90 83h56q72 0 54 -83l-37 -173q-18 -84 -89 -84h-56q-73 0 -55 84zM413 320q-53 0 -67 -66l-35 -168q-14 -66 38 -66h57q27 0 42 15.5t23 50.5l35 168q8 35 -0.5 50.5
t-35.5 15.5h-57zM654 320q-53 0 -67 -66l-35 -168q-14 -66 38 -66h57q52 0 66 66l35 168q8 35 -1 50.5t-36 15.5h-57zM128 627q17 83 89 83h57q72 0 55 -83l-37 -173q-18 -84 -90 -84h-57q-72 0 -54 84zM270 690h-57q-52 0 -66 -66l-36 -168q-13 -66 38 -66h57q52 0 65 66
l36 168q8 35 -1 50.5t-36 15.5zM97 0l403 710h22l-403 -710h-22z" />
    <glyph glyph-name="guilsinglleft" unicode="&#x2039;" horiz-adv-x="200" 
d="M141 69h-27l-66 183l144 183h27l-144 -183z" />
    <glyph glyph-name="guilsinglright" unicode="&#x203a;" horiz-adv-x="200" 
d="M45 69h-27l144 183l-66 183h27l66 -183z" />
    <glyph glyph-name="fraction" unicode="&#x2044;" horiz-adv-x="275" 
d="M-34 0l403 710h22l-403 -710h-22z" />
    <glyph glyph-name="foursuperior" unicode="&#x2074;" horiz-adv-x="202" 
d="M100 491l12 59q5 24 23 43l105 117h23l-115 -130q-14 -15 -18 -38l-7 -31h74l12 57l15 4h5l-13 -61h32l-6 -20h-30l-13 -62h-19l13 62h-93z" />
    <glyph glyph-name="Euro" unicode="&#x20ac;" horiz-adv-x="450" 
d="M292 286l-7 -20h-143l-28 -134q-13 -56 -1 -84t56 -28h106q42 0 65.5 26.5t36.5 85.5l16 79h22l-16 -76q-15 -71 -44.5 -103t-86.5 -32h-102q-57 0 -73 32.5t-1 102.5l28 131h-76l7 20h73l24 110h-76l7 20h73l34 159q15 71 44 103t86 32h102q57 0 73.5 -32t1.5 -103
l-16 -74h-22l16 77q13 56 1 84t-55 28h-106q-43 0 -66.5 -26.5t-36.5 -85.5l-34 -162h170l-7 -20h-167l-24 -110h146z" />
    <glyph glyph-name="trademark" unicode="&#x2122;" horiz-adv-x="370" 
d="M392 500h-18l35 164l-55 -90h-15l-16 90l-35 -164h-19l44 210h19l21 -105l65 105h18zM280 693h-58l-41 -193h-18l41 193h-56l3 17h132z" />
    <glyph glyph-name="minus" unicode="&#x2212;" horiz-adv-x="366" 
d="M65 286l8 20h282l-9 -20h-281z" />
    <glyph glyph-name="commaaccent" unicode="&#xf6c3;" horiz-adv-x="400" 
d="M137 -76h21l-8 -39l-27 -85h-8z" />
    <glyph glyph-name="s_t" unicode="&#xfb06;" horiz-adv-x="559" 
d="M252 491h-49q-38 0 -58 -20t-29 -62l-4 -23q-4 -18 -4 -31.5t2 -21.5t11 -16t14.5 -11t21.5 -12l79 -41q29 -15 40 -37.5t1 -70.5l-8 -40q-12 -55 -37 -80t-77 -25h-61q-53 0 -68 27.5t-2 87.5l7 34h22l-8 -37q-10 -49 1 -70.5t49 -21.5h65q38 0 58 19.5t29 62.5l9 42
q9 39 0.5 59t-34.5 34l-77 40q-19 10 -25.5 14t-17.5 13.5t-13 19t-3 26t4 39.5l4 17q11 54 36.5 79.5t77.5 25.5h45q53 0 68 -27.5t2 -87.5l-6 -25h-21l6 28q10 47 -1 69.5t-49 22.5zM607 505l-6 -20h-86l-76 -356q-12 -57 0 -83t50 -26h35l-2 -20h-35q-97 0 -71 126
l77 359h-63l6 20h61l29 136l18 4h5l-30 -140h88z" />
    <glyph glyph-name="g.001" horiz-adv-x="356" 
d="M70 279l19 91q15 69 44.5 102t86.5 33h35q55 0 70 -31l75 68l11 -16l-76 -71q8 -23 -5 -79l-20 -97q-17 -82 -40.5 -109.5t-86.5 -27.5h-39q-31 0 -36 -21l-4 -18q-3 -15 4 -19.5t33 -4.5h70q64 0 82.5 -25.5t1.5 -106.5l-9 -42q-13 -64 -40.5 -98t-89.5 -34h-92
q-46 0 -65.5 18.5t-17 48t9.5 66.5l8 42q16 74 35.5 99.5t50.5 28.5q-6 3 -2 25l4 18q5 22 17 27q-33 8 -40.5 41t6.5 92zM75 -207h80q52 0 74.5 26.5t34.5 85.5l9 42q15 71 -1 91.5t-67 20.5h-70q-64 0 -81.5 -19.5t-32.5 -91.5l-8 -42q-16 -54 -3.5 -83.5t65.5 -29.5z
M254 485h-40q-43 0 -66.5 -26.5t-35.5 -85.5l-21 -97q-13 -62 0 -87t57 -25h36q54 0 71 20.5t32 91.5l21 98q14 52 2.5 81.5t-56.5 29.5z" />
    <glyph glyph-name="i.001" horiz-adv-x="258" 
d="M102 443h-36l4 20h34q56 0 72 -32.5t1 -102.5l-43 -202q-13 -54 -1 -83t54 -29h34l-4 -20h-31q-57 0 -72.5 32.5t-0.5 102.5l43 202q13 54 1 83t-55 29zM207 583l10 44h24l-10 -44h-24z" />
    <glyph glyph-name="G.001" horiz-adv-x="438" 
d="M216 314l4 20h206l-42 -199q-15 -70 -44 -102.5t-86 -32.5h-133q-57 0 -73 32.5t-1 102.5l94 440q15 71 44 103t86 32h133q57 0 73 -32.5t1 -102.5l-16 -74h-23l16 77q5 24 6.5 41t0.5 29t-8 20t-13.5 12.5t-21.5 6.5t-26.5 2.5t-34.5 0.5h-93q-53 0 -73 -36.5
t-42 -139.5l-81 -382q-13 -56 -1 -84t55 -28h136q43 0 66 26.5t36 85.5l38 182h-183z" />
    <glyph glyph-name="P.slt" horiz-adv-x="388" 
d="M43 0h-22l122 575q15 70 46 102.5t93 32.5h83q57 0 73 -32.5t1 -102.5l-31 -146q-15 -71 -44 -103t-87 -32h-94q-47 0 -70.5 -38.5t-40.5 -115.5zM275 690q-47 0 -72 -26.5t-38 -85.5l-69 -324q33 60 96 60h91q43 0 66.5 27t35.5 85l32 152q15 52 2 82t-63 30h-81z" />
    <glyph glyph-name="N.001" horiz-adv-x="433" 
d="M273 690q-44 0 -70.5 -30.5t-40.5 -98.5l-119 -561h-22l119 564q16 74 49 110t87 36h109q106 0 74 -146l-119 -564h-23l119 561q14 65 1 97t-57 32h-107z" />
    <glyph glyph-name="S.bd" horiz-adv-x="426" 
d="M321 360h-135q-57 0 -73 34t0 101l17 80q15 71 44 103t86 32h133q57 0 73 -32.5t1 -102.5l-16 -74h-23l16 77q14 57 2 84.5t-55 27.5h-137q-42 0 -65.5 -26.5t-36.5 -85.5l-18 -86q-13 -57 -0.5 -84.5t54.5 -27.5h135q57 0 73 -32.5t1 -102.5l-24 -110
q-15 -70 -44 -102.5t-86 -32.5h-133q-57 0 -73 32.5t-1 102.5l16 76h22l-16 -79q-14 -57 -1.5 -84.5t55.5 -27.5h137q42 0 65 26.5t36 85.5l24 116q13 57 1 84.5t-54 27.5z" />
    <glyph glyph-name="N.bd" horiz-adv-x="465" 
d="M23 0l148 699h22l-18 -86q-1 -7 -1 -12t0.5 -8t3.5 -6t5 -4t7.5 -4t8.5 -5l239 -152l59 277h22l-148 -699h-22l80 377q1 5 1 9v7t-1.5 5.5t-3 4t-4 3.5t-4.5 3t-5.5 3t-6.5 4l-240 152l-120 -568h-22z" />
    <glyph glyph-name="T.002" horiz-adv-x="438" 
d="M537 690h-201l-146 -690h-22l146 690h-195l7 20h418z" />
    <glyph glyph-name="I.bd" horiz-adv-x="228" 
d="M93 20h88l-4 -20h-197l4 20h87l142 670h-88l4 20h198l-4 -20h-88z" />
    <glyph glyph-name="Z.bd" horiz-adv-x="400" 
d="M400 481l-308 -251q-41 -35 -49 -71l-6 -30q-12 -54 5 -81.5t68 -27.5h225l-4 -20h-227q-117 0 -90 125l7 34q11 51 65 94l304 246q38 31 46 66l3 16q12 57 -6 83t-66 26h-213l4 20h214q116 0 90 -125l-4 -20q-10 -44 -58 -84z" />
    <glyph glyph-name="V.bd" horiz-adv-x="450" 
d="M195 28l342 657l19 -8l-354 -677h-25l-68 677l23 8z" />
    <glyph glyph-name="X.bd" horiz-adv-x="345" 
d="M215 368l206 332l19 -8l-209 -338l68 -347l-22 -7l-69 338l-210 -338l-20 8l216 346l-65 338l21 8z" />
    <glyph glyph-name="a.001" horiz-adv-x="352" 
d="M243 0l9 55q-28 -55 -103 -55h-43q-53 0 -73 24t-8 81l15 73q23 105 107 105h155l28 133q17 76 -39 76h-94q-60 0 -76 -75l-5 -25h-22l5 25q20 94 97 94h100q76 0 56 -95l-88 -416h-21zM108 20h46q49 0 76 26.5t40 88.5l27 128h-153q-64 0 -82 -84l-16 -74
q-11 -50 5 -67.5t57 -17.5z" />
    <glyph glyph-name="G.002" horiz-adv-x="403" 
d="M252 304l4 20h137l-40 -189q-15 -69 -42 -102t-82 -33h-115q-95 0 -69 124l96 451q29 135 115 135h209l-7 -20h-197q-40 0 -62.5 -28t-36.5 -91l-94 -442q-12 -57 -0.5 -83t51.5 -26h107q45 0 68.5 26.5t36.5 88.5l35 169h-114z" />
    <glyph glyph-name="o.001" horiz-adv-x="666" 
 />
    <glyph glyph-name="i.002" horiz-adv-x="139" 
d="M130 481h-40l5 24h62l-107 -505h-22zM172 696l10 44h24l-10 -44h-24z" />
    <glyph glyph-name="u.bd" horiz-adv-x="356" 
d="M267 0h-21l8 42q-38 -42 -98 -42h-42q-52 0 -69 30.5t-3 94.5l80 376l17 4h6l-81 -380q-12 -56 2 -80.5t54 -24.5h44q36 0 64 19.5t33 39.5h1l14 64h-1l76 358l18 4h5z" />
    <glyph glyph-name="w.bd" horiz-adv-x="512" 
d="M149 0h-30l-25 505h24l20 -485l142 315h24l8 -315l226 485h23l-239 -505h-30l-10 287z" />
    <glyph glyph-name="H.slt" horiz-adv-x="467" 
d="M45 0h-22l150 706l17 4h5l-87 -412h306l87 408l17 4h6l-150 -710h-23l59 278h-306z" />
    <glyph glyph-name="I.slt" horiz-adv-x="139" 
d="M45 0h-22l150 706l17 4h5z" />
    <glyph glyph-name="J.slt" horiz-adv-x="254" 
d="M213 240h-1l-25 -114q-26 -126 -123 -126h-91l7 20h86q40 0 64 26t36 83l123 577l17 4h6z" />
    <glyph glyph-name="K.slt" horiz-adv-x="364" 
d="M45 0h-22l150 706l17 4h5l-74 -348l327 348h28l-332 -355l182 -355h-28l-180 348z" />
    <glyph glyph-name="L.slt" horiz-adv-x="321" 
d="M97 240h-1l-47 -220h231l-7 -20h-250l121 570h1l29 136l16 4h6z" />
    <glyph glyph-name="N.slt" horiz-adv-x="454" 
d="M361 0h-23l-153 661l-140 -661h-22l150 706l17 4h5l152 -665l141 661l17 4h6z" />
    <glyph glyph-name="M.slt" horiz-adv-x="516" 
d="M423 0h-22l139 657l-255 -403h-17l-83 407l-140 -661h-22l150 706l17 4h5l89 -423l266 419l13 4h10z" />
    <glyph glyph-name="U.slt" horiz-adv-x="433" 
d="M73 149q-14 -67 -0.5 -98t58.5 -31h106q45 0 71 30.5t40 98.5l119 557l17 4h6l-119 -564q-16 -74 -49 -110t-87 -36h-110q-106 0 -74 146l119 560l17 4h5z" />
    <glyph glyph-name="T.bd" horiz-adv-x="446" 
d="M546 690h-202l-146 -690h-22l146 690h-202l4 20h426z" />
    <glyph glyph-name="ampersand.001" horiz-adv-x="489" 
d="M175 516l10 45h1l3 14q22 105 81 127l1 8h101q58 0 74 -32.5t1 -102.5l-23 -107q-15 -63 -43.5 -92t-82.5 -29h-64l147 -241l39 42l38 40l12 -15l-36 -37q-8 -8 -22 -23t-21 -22l45 -74l-20 -17l-44 72q-72 -72 -117 -72h-141q-58 0 -74 32.5t-1 102.5l10 45h-1l13 63h1
q15 62 41.5 91.5t75.5 31.5q-29 29 -10 116l7 34h-1zM115 20h144q37 0 104 67l-157 260h-19q-43 0 -67.5 -27t-37.5 -85l-21 -103q-15 -57 -3 -84.5t57 -27.5zM401 468l20 94h1l3 16q14 62 2.5 87t-56.5 25h-55q-43 0 -67 -27t-37 -85l-21 -99q-13 -55 -2.5 -83t52.5 -29h62
q40 0 63 23.5t36 77.5h-1z" />
    <glyph glyph-name="A.B" horiz-adv-x="412" 
d="M335 710l22 -710h-24l-4 139l-223 74l-95 -213h-23l310 690h-117l4 20h150zM319 689l-173 -386l182 -63zM137 283l-23 -51l215 -71l-1 58z" />
    <glyph glyph-name="B.s" horiz-adv-x="381" 
d="M23 0l150 710h95q109 0 83 -125l-24 -114q-17 -75 -61 -92q73 0 97 -29t9 -103l-24 -112q-28 -135 -149 -135h-176zM121 359l-72 -339h152q101 0 125 114l23 108q13 62 -4 89.5t-67 27.5h-157zM192 692l-67 -313h87q73 0 92 89l24 115q13 57 -4 83t-65 26h-67z" />
    <glyph glyph-name="C.s" horiz-adv-x="392" 
d="M94 406l22 105h1l14 64q15 71 44 103t85 32h101q57 0 73 -32.5t1 -102.5l-5 -24h-22l5 27q14 57 1.5 84.5t-55.5 27.5h-101q-43 0 -67.5 -27t-37.5 -85l-16 -77h-1l-19 -90h1l-17 -79q-14 -57 -2.5 -84.5t56.5 -27.5h104q43 0 66.5 27t35.5 85l6 29h22l-5 -26
q-15 -70 -44.5 -102.5t-86.5 -32.5h-99q-58 0 -74 34t0 101l15 71h-1zM326 20l-4 -20h-314l4 20h314z" />
    <glyph glyph-name="D.s" horiz-adv-x="412" 
d="M110 690l4 20h250q67 0 86 -38.5t-1 -116.5l-42 -200q-17 -81 -50.5 -118t-100.5 -37h-185l104 490h-65zM339 20l-4 -20h-306l4 20h306zM362 690h-164l-100 -470h164q51 0 79 31.5t43 100.5l44 206q15 69 0 100.5t-66 31.5z" />
    <glyph glyph-name="E.s.001" horiz-adv-x="379" 
d="M191 690l-64 -303h221l-7 -20h-218l-12 -55h197l-7 -20h-194l-58 -272h279l-7 -20h-298l150 710h298l-7 -20h-273z" />
    <glyph glyph-name="F.s.001" horiz-adv-x="368" 
d="M191 690l-64 -303h221l-7 -20h-218l-12 -55h197l-7 -20h-194l-62 -292h-22l150 710h290l-7 -20h-265z" />
    <glyph glyph-name="G.s" horiz-adv-x="389" 
d="M-11 -69l15 72h1l6 28q15 70 44 102.5t86 32.5h3l20 94q-49 4 -62.5 37.5t1.5 97.5l16 75h-1l24 109h1q14 68 43 99.5t86 31.5h56q55 -1 71 -34.5t0 -100.5l-39 -180q-15 -71 -44 -103t-86 -32h-44l-20 -94h107q58 0 74 -34t0 -101l-16 -78q-16 -71 -44 -103t-85 -32
h-133q-53 0 -70.5 27.5t-8.5 85.5h-1zM70 -162h136q42 0 65 26t36 86l17 79h1l1 5q13 62 1.5 87t-55.5 25h-133q-44 0 -68.5 -27t-36.5 -85l-18 -84q-14 -57 -2.5 -84.5t56.5 -27.5zM180 280h55q43 0 66.5 26.5t35.5 85.5l39 186q14 57 1.5 84.5t-55.5 27.5h-53
q-43 0 -67 -27t-37 -85l-16 -77h-1l-6 -30h1l-17 -79q-14 -57 -2.5 -84.5t56.5 -27.5z" />
    <glyph glyph-name="H.s" horiz-adv-x="426" 
d="M45 0h-22l150 710h22l-64 -302l246 -84l82 386h23l-150 -710h-23l49 231l-247 84zM127 388l-11 -53l246 -84l11 53z" />
    <glyph glyph-name="I.s" horiz-adv-x="332" 
d="M287 20l-4 -20h-305l4 20h140l142 670h-141l4 20h306l-4 -20h-142l-142 -670h142z" />
    <glyph glyph-name="J.s" horiz-adv-x="409" 
d="M213 20q45 0 71 30.5t40 98.5l99 465h-164l1 20h167l12 56h-197l1 20h223l-119 -564q-16 -74 -49 -110t-87 -36h-110q-106 0 -74 146l25 118h22l-25 -115q-14 -67 -0.5 -98t58.5 -31h106z" />
    <glyph glyph-name="K.s" horiz-adv-x="389" 
d="M461 710h25l-312 -395l191 -67l-52 -248h-23l49 235l-227 81l-67 -316h-22l150 710h22l-79 -374l39 -14z" />
    <glyph glyph-name="L.s" horiz-adv-x="364" 
d="M185 710l-104 -490h261l-7 -20h-280l108 510h22zM300 20l-4 -20h-284l4 20h284z" />
    <glyph glyph-name="M.s" horiz-adv-x="509" 
d="M44 0h-22l150 710h33l84 -380l243 380h34l-150 -710h-23l120 568l-259 -400l-90 400zM190 687l-17 -76l90 -400l259 400l17 76l-259 -400z" />
    <glyph glyph-name="N.s" horiz-adv-x="465" 
d="M23 0l148 699h22l-18 -86q-1 -7 -1 -12t0.5 -8t3.5 -6t5 -4t7.5 -4t8.5 -5l239 -152l59 277h22l-148 -699h-22l80 377q1 5 1 9v7t-1.5 5.5t-3 4t-4 3.5t-4.5 3t-5.5 3t-6.5 4l-240 152l-120 -568h-22z" />
    <glyph glyph-name="O.s" horiz-adv-x="420" 
d="M83 367l41 195h1l3 13q15 71 44 103t85 32h132q58 0 74 -32.5t1 -102.5l-51 -240q-15 -71 -43.5 -103t-85.5 -32h-133q-58 0 -74 34t0 101l7 32h-1zM397 367l41 195h1l3 16q14 62 2.5 87t-56.5 25h-133q-43 0 -67.5 -27t-37.5 -85l-16 -77h-1l-19 -90h1l-17 -79
q-14 -57 -2.5 -84.5t56.5 -27.5h136q42 0 65.5 26.5t36.5 85.5l8 35h-1zM331 20l-4 -20h-307l4 20h307z" />
    <glyph glyph-name="P.s" horiz-adv-x="392" 
d="M169 690l4 20h202q94 0 68 -125l-39 -182q-26 -125 -120 -125h-180l-59 -278h-22l63 298h195q41 0 65 26t36 83l37 174q12 57 -1 83t-54 26h-195z" />
    <glyph glyph-name="Q.s" 
d="M205 200h-52q-58 0 -74 34t0 101l5 27h-1l32 149h1l14 64q15 71 44 103t85 32h133q58 0 74 -32.5t1 -102.5l-16 -74h-1l-19 -90h1l-16 -76q-15 -71 -43.5 -103t-85.5 -32h-20l144 -49l-5 -20zM154 220h137q42 0 65.5 26.5t36.5 85.5l6 30h-1l32 149h1l14 67q14 62 2.5 87
t-56.5 25h-134q-43 0 -67.5 -27t-37.5 -85l-16 -77h-1l-19 -90h1l-17 -79q-14 -57 -2.5 -84.5t56.5 -27.5zM189 127l5 20l201 -69l-4 -20z" />
    <glyph glyph-name="R.s" horiz-adv-x="433" 
d="M377 -20l-87 298h-186l-59 -278h-22l63 298h198l-115 392l4 20h202q94 0 68 -125l-39 -182q-21 -103 -90 -121l85 -289zM364 690h-168l112 -389q55 16 74 106l37 174q12 57 -1 83t-54 26z" />
    <glyph glyph-name="S.s" horiz-adv-x="391" 
d="M304 256l-196 125l5 23l202 -128q27 -17 35.5 -36t-0.5 -61l-12 -54q-27 -125 -120 -125h-110q-54 0 -72 31t-4 94l18 86h22l-18 -86q-12 -55 1.5 -80t54.5 -25h106q40 0 63.5 25t35.5 80l12 54q7 37 2 50.5t-25 26.5zM140 523q-6 -30 -1 -44t24 -27l193 -136l-5 -23
l-200 139q-25 17 -33.5 36t-0.5 55l12 58q14 68 44 98.5t81 30.5h110q50 0 67.5 -30.5t2.5 -98.5l-17 -80h-22l17 81q23 108 -50 108h-107q-45 0 -68 -24.5t-36 -88.5z" />
    <glyph glyph-name="T.s" horiz-adv-x="351" 
d="M151 0h-23l130 612h-125l4 20h275l-4 -20h-127zM445 690h-318l3 20h319z" />
    <glyph glyph-name="U.s" horiz-adv-x="406" 
d="M266 220q45 0 71.5 30.5t40.5 98.5l76 361h23l-77 -364q-16 -74 -49 -110t-87 -36h-110q-106 0 -74 146l77 364h22l-76 -361q-14 -67 -1 -98t58 -31h106zM324 20l-4 -20h-306l4 20h306z" />
    <glyph glyph-name="V.s" horiz-adv-x="339" 
d="M191 200h-29l-26 510h24l20 -490l227 490h25zM291 20l-4 -20h-306l4 20h306z" />
    <glyph glyph-name="W.s" horiz-adv-x="510" 
d="M172 710h22l-122 -577l260 400l89 -400l122 577h23l-150 -710h-34l-83 380l-244 -380h-33zM63 93l-15 -73l260 400l89 -400l15 73l-89 400z" />
    <glyph glyph-name="X.s" horiz-adv-x="344" 
d="M251 403l46 -403h-26l-41 368l-32 -51l36 -317h-26l-32 281l-172 -281h-25l193 316l-44 394h26l40 -358l31 51l-34 307h26l30 -271l166 271h26z" />
    <glyph glyph-name="Y.s" horiz-adv-x="362" 
d="M150 618l79 -172l13 60l-98 204h25l87 -188l167 188h24l-183 -204l-13 -60l153 172h24l-184 -204l-87 -414h-22l87 414l-97 204h25z" />
    <glyph glyph-name="Z.s" horiz-adv-x="363" 
d="M127 609v20h249l39 61h-277l1 20h304l-1 -20l-370 -583h255l-7 -20h-261l-42 -67h284l-7 -20h-303l1 20l372 589h-237z" />
    <glyph glyph-name="E.s" horiz-adv-x="375" 
d="M187 690l-64 -303h221l-7 -20h-240l72 343h298l-7 -20h-273zM317 0h-298l66 312h219l-7 -20h-194l-58 -272h279z" />
    <glyph glyph-name="F.s" horiz-adv-x="364" 
d="M187 690l-64 -303h221l-7 -20h-240l72 343h290l-7 -20h-265zM41 0h-22l66 312h219l-7 -20h-194z" />
    <glyph glyph-name="H.s.001" horiz-adv-x="422" 
d="M45 0h-22l150 710h22l-72 -339h261l72 339h22l-150 -710h-22l59 278h-261zM119 351l-11 -53h261l11 53h-261z" />
    <glyph glyph-name="L.s.001" horiz-adv-x="362" 
d="M195 710l-129 -611h259l-8 -20h-256l-12 -59h261l-7 -20h-280l150 710h22z" />
    <glyph glyph-name="Q.s.001" horiz-adv-x="416" 
d="M183 0h-22l42 200h-54q-58 0 -74 34t0 101l5 27h-1l32 149h1l14 64q15 71 44 103t85 32h133q58 0 74 -32.5t1 -102.5l-16 -74h-1l-19 -90h1l-16 -76q-15 -71 -43.5 -103t-85.5 -32h-58zM150 220h57l29 137h22l-29 -137h58q42 0 65.5 26.5t36.5 85.5l6 30h-1l32 149h1
l14 67q14 62 2.5 87t-56.5 25h-134q-43 0 -67.5 -27t-37.5 -85l-16 -77h-1l-19 -90h1l-17 -79q-14 -57 -2.5 -84.5t56.5 -27.5z" />
    <glyph glyph-name="A.s.001" horiz-adv-x="545" 
d="M398 710l-1 -9l13 -481h158l-4 -20h-153l7 -200h-24l-5 200h-228l-89 -200h-23l89 200h-141l4 20h146l212 470h-116l4 20h151zM380 689l-211 -469h220z" />
    <glyph glyph-name="N.s.001" horiz-adv-x="465" 
d="M44 0h-22l150 710h22l-10 -49l283 -97l31 146h23l-150 -710h-23l100 471l-284 97zM180 641l-12 -53l284 -97l11 53z" />
    <glyph glyph-name="O.s.001" horiz-adv-x="448" 
d="M47 135l94 440q15 71 44 103t86 32h132q58 0 74.5 -32.5t1.5 -102.5l-94 -440q-15 -71 -43.5 -103t-85.5 -32h-134q-57 0 -73.5 32.5t-1.5 102.5zM402 690h-134q-43 0 -67.5 -27t-37.5 -85l-94 -446q-14 -57 -2.5 -84.5t57.5 -27.5h136q42 0 65.5 26.5t36.5 85.5l94 446
q14 62 2.5 87t-56.5 25zM253 346l9 44h24l-9 -44h-24z" />
    <glyph glyph-name="N.s.002" horiz-adv-x="465" 
d="M44 0h-22l150 710h22l-10 -49l283 -97l31 146h23l-150 -710h-23l115 544l-283 97z" />
    <glyph glyph-name="C.spec" horiz-adv-x="481" 
d="M453 690h-103q-43 0 -67.5 -27t-37.5 -85l-38 -180l165 -56l-4 -20l-165 56l-11 -53l165 -56l-5 -20l-165 56l-36 -173q-14 -57 -2.5 -84.5t57.5 -27.5h105q42 0 65.5 26.5t36.5 85.5l16 79h22l-16 -76q-15 -71 -43 -103t-85 -32h-103q-57 0 -73.5 32.5t-1.5 102.5l14 66
h-1l24 112l-119 41l4 20l119 -41l12 53l-120 41l5 20l119 -41l22 105h1l14 64q15 71 44 103t86 32h101q58 0 74 -32.5t1 -102.5l-16 -74h-22l16 77q14 62 2.5 87t-56.5 25z" />
    <glyph glyph-name="A.sh" horiz-adv-x="412" 
d="M351 213l-232 79l178 398h-117l4 20h152zM95 237l256 -84l5 -153h-24l-2 139l-225 75l-94 -214h-23zM317 690l-170 -387l178 -63z" />
    <glyph glyph-name="H.sh" horiz-adv-x="422" 
d="M392 298l-289 95l67 317h22l-64 -303l246 -84l82 387h23zM42 0h-22l72 342l289 -96l-52 -246h-23l49 231l-246 85z" />
    <glyph glyph-name="M.sh" horiz-adv-x="509" 
d="M265 217l290 441l-139 -658h-23l122 577l-259 -400l-90 400l-122 -577h-22l139 658zM280 290l-108 420h25l92 -380l251 380h26z" />
    <glyph glyph-name="W.sh" horiz-adv-x="509" 
d="M427 52l-104 441l-290 -441l139 658h22l-122 -577l260 400l89 -400l122 577h23zM22 0l286 420l108 -420h-26l-91 380l-252 -380h-25z" />
    <glyph glyph-name="X.sh" horiz-adv-x="342" 
d="M174 278l-168 -278h-25l190 311l-45 399h26l80 -710h-26zM249 404l46 -404h-26l-80 710h26l30 -273l166 273h26z" />
    <glyph glyph-name="L.sh" horiz-adv-x="351" 
d="M305 18l-272 90l128 602h22l-125 -588l252 -84zM18 36l5 21l271 -91l-4 -20z" />
    <glyph glyph-name="B.sh" horiz-adv-x="388" 
d="M23 0l150 710h92q112 0 86 -125l-10 -46q-27 -125 -139 -125h-70l-7 -35h141q66 0 94.5 -27t11.5 -105l-24 -112q-28 -135 -149 -135h-176zM121 359l-72 -339h152q101 0 125 114l23 108q6 28 6.5 47.5t-6 32.5t-15 20.5t-27 11t-35.5 4.5t-47 1h-104zM191 690l-54 -256
h67q49 0 76.5 25.5t38.5 81.5l9 42q12 56 -4.5 81.5t-65.5 25.5h-67z" />
    <glyph glyph-name="undercommaaccent" horiz-adv-x="86" 
d="M-26 -99h21l-8 -39l-26 -85h-8z" />
    <glyph glyph-name="O.mon2.001" horiz-adv-x="440" 
d="M264 690q-42 0 -65 -26.5t-36 -85.5l-94 -446q-14 -57 -1.5 -84.5t54.5 -27.5h59l-4 -20h-58q-56 0 -71.5 32.5t-0.5 102.5l94 440q15 70 43.5 102.5t84.5 32.5h131q56 0 71.5 -32.5t0.5 -102.5l-94 -440q-15 -70 -43.5 -102.5t-84.5 -32.5h-55l4 20h56q42 0 65 26.5
t36 85.5l94 446q14 57 1.5 84.5t-54.5 27.5h-133z" />
    <glyph glyph-name="P.mon2.001" horiz-adv-x="401" 
d="M168 690l4 20h205q103 0 77 -125l-39 -182q-26 -125 -129 -125h-183l-59 -278h-22l142 670h22l-79 -372h176q45 0 71.5 26t38.5 83l37 174q12 57 -3.5 83t-60.5 26h-198z" />
    <glyph glyph-name="S.mon2.001" horiz-adv-x="405" 
d="M324 296l-126 76q-59 35 -73 52q-23 27 -14 69l19 88q14 68 45.5 98.5t84.5 30.5h50l-4 -20h-45q-47 0 -71.5 -25t-37.5 -88l-18 -84q-6 -32 4.5 -49t44.5 -37l155 -91q27 -16 34.5 -34.5t-0.5 -62.5l-20 -94q-27 -125 -124 -125h-41l4 20h35q42 0 67 24.5t37 80.5l20 94
q7 33 1.5 48.5t-27.5 28.5zM373 690h-48l4 20h64q41 0 54.5 -36.5t1.5 -92.5l-17 -80h-23l17 81q23 108 -53 108zM55 125q-12 -55 3 -80t57 -25h54l-4 -20h-52q-56 0 -75 31t-5 94l18 86h22z" />
    <glyph glyph-name="F.mon2.001" horiz-adv-x="380" 
d="M42 0h-22l142 670h22l-77 -362h224l-7 -20h-221zM166 690l4 20h305l-8 -20h-301z" />
    <glyph glyph-name="B.mon2.001" horiz-adv-x="398" 
d="M167 692l3 18h154q128 0 99 -135l-22 -104q-19 -83 -71 -100q34 -10 44 -46t1 -78l-24 -112q-29 -135 -152 -135h-179l142 672h22l-62 -293h162q75 0 94 89l22 105q13 62 -7 90.5t-78 28.5h-148zM118 359l-72 -339h155q104 0 128 114l23 108q13 61 -5 89t-69 28h-160z
" />
    <glyph glyph-name="I.mon2.001" horiz-adv-x="139" 
d="M45 0h-22l150 710h22z" />
    <glyph glyph-name="E.mon2.001" horiz-adv-x="370" 
d="M310 0h-290l142 670h22l-77 -362h227l-7 -20h-224l-57 -268h271zM166 690l4 20h290l-7 -20h-287z" />
    <glyph glyph-name="Z.mon2.001" horiz-adv-x="378" 
d="M-18 0l1 20l453 650h26l-454 -650h323l-7 -20h-342zM472 690h-342l1 20h342z" />
    <glyph glyph-name="A.mon2.001" horiz-adv-x="419" 
d="M10 0h-24l86 190h261l-13 500l-215 -480h-23l228 500h29l24 -710h-25l-5 170h-246z" />
    <glyph glyph-name="V.mon2.001" horiz-adv-x="416" 
d="M186 0h-23l327 710h23zM129 710h25l22 -650l-18 -34z" />
    <glyph glyph-name="X.mon2.001" horiz-adv-x="321" 
d="M-21 0l424 710h24l-214 -359l56 -351h-26l-49 319l-190 -319h-25zM150 710l46 -326l-18 -25l-52 351h24z" />
    <glyph glyph-name="N.mon2.001" horiz-adv-x="441" 
d="M316 0l-145 710h26l133 -690l146 690h22l-150 -710h-32zM43 0h-22l144 678l13 -42z" />
    <glyph glyph-name="R.mon2.001" horiz-adv-x="406" 
d="M168 690l4 20h202q94 0 68 -125l-39 -182q-26 -125 -120 -125h-23l102 -278h-28l-101 278h-130l-59 -278h-22l142 670h22l-79 -372h173q41 0 65 26t36 83l37 174q12 57 -1 83t-54 26h-195z" />
    <glyph glyph-name="G.mon2.001" horiz-adv-x="411" 
d="M68 129q-12 -57 1 -83t54 -26h44l-4 -20h-48q-96 0 -70 124l96 451q29 135 116 135h128q98 0 71 -125l-18 -84h-22l17 80q24 109 -55 109h-116q-40 0 -63 -28t-37 -91zM244 304l7 20h145l-40 -189q-14 -68 -44 -101.5t-86 -33.5h-44l4 20h41q43 0 67.5 25t35.5 77l39 182
h-125z" />
    <glyph glyph-name="C.mon2.001" horiz-adv-x="400" 
d="M123 20h41l-4 -20h-39q-57 0 -73 32.5t-1 102.5l94 440q15 71 44 103t86 32h103q57 0 73 -32.5t1 -102.5l-16 -74h-22l16 77q14 57 1.5 84.5t-55.5 27.5h-107q-42 0 -65.5 -27t-36.5 -85l-94 -446q-14 -57 -1.5 -84.5t55.5 -27.5zM224 0h-46l4 20h47q51 0 72 33t39 118
l8 40h22l-16 -76q-15 -71 -44 -103t-86 -32z" />
    <glyph glyph-name="D.mon2.001" horiz-adv-x="414" 
d="M369 690h-203l4 20h202q57 0 73 -32.5t1 -102.5l-94 -440q-15 -70 -44 -102.5t-86 -32.5h-202l142 670h22l-138 -650h181q43 0 66 26.5t36 85.5l94 446q14 57 1.5 84.5t-55.5 27.5z" />
    <glyph glyph-name="H.mon2.001" horiz-adv-x="420" 
d="M42 0h-22l63 298h285l87 412h22l-150 -710h-22l59 278h-263zM192 710l-83 -392h-22l83 392h22z" />
    <glyph glyph-name="U.mon2.001" horiz-adv-x="440" 
d="M132 20h46l-4 -20h-47q-108 0 -76 146l119 564h22l-119 -561q-15 -66 -0.5 -97.5t59.5 -31.5zM244 20h-47l-4 -20h48q55 0 88.5 36t49.5 110l119 564h-22l-119 -561q-14 -67 -41 -98t-72 -31z" />
    <glyph glyph-name="W.mon2.001" horiz-adv-x="568" 
d="M155 0h-21l251 710h25l-51 -690l267 690h26l-284 -710h-29l42 631zM144 710h25l-21 -637l-20 -49z" />
    <glyph glyph-name="Y.mon2.001" horiz-adv-x="386" 
d="M168 0h-22l72 342l235 368h24l-238 -374zM161 710l65 -331l-18 -22l-71 353h24z" />
    <glyph glyph-name="L.mon2.001" horiz-adv-x="345" 
d="M295 0h-275l4 20h278zM192 710l-142 -670h-22l142 670h22z" />
    <glyph glyph-name="J.mon2.001" horiz-adv-x="331" 
d="M106 20q60 0 92.5 26t44.5 83l123 581h22l-124 -584q-13 -63 -52 -94.5t-111 -31.5h-127l7 20h125z" />
    <glyph glyph-name="Q.mon2.001" horiz-adv-x="440" 
d="M225 161l-30 -141h60q41 0 64.5 27t36.5 85l94 446q13 56 1 84t-54 28h-56l4 20h55q56 0 71.5 -32.5t0.5 -102.5l-94 -440q-15 -70 -43.5 -102.5t-84.5 -32.5h-59l-22 -102h-22l22 102h-50q-56 0 -71.5 32.5t-0.5 102.5l94 440q15 70 43.5 102.5t84.5 32.5h58l-4 -20h-59
q-41 0 -64.5 -27t-36.5 -85l-94 -446q-13 -56 -1 -84t54 -28h51l30 141h22z" />
    <glyph glyph-name="K.mon2.001" horiz-adv-x="364" 
d="M32 0h-22l72 341l367 369h28l-346 -355l196 -355h-28l-186 342l-11 -11zM182 710l-67 -317l-27 -26l72 343h22z" />
    <glyph glyph-name="M.mon2.001" horiz-adv-x="463" 
d="M370 0h-23l144 679l-230 -389h-9l-81 420h25l68 -383l227 383h29zM43 0h-22l142 670l13 -43z" />
    <glyph glyph-name="T.mon2.001" horiz-adv-x="383" 
d="M479 690h-355l4 20h355zM167 0h-23l142 670h23z" />
    <glyph glyph-name="O.mon2" horiz-adv-x="440" 
d="M47 135l94 440q15 70 43.5 102.5t84.5 32.5h131q56 0 71.5 -32.5t0.5 -102.5l-94 -440q-15 -70 -43.5 -102.5t-84.5 -32.5h-131q-56 0 -71.5 32.5t-0.5 102.5zM264 690q-42 0 -65 -26.5t-36 -85.5l-94 -446q-14 -57 -1.5 -84.5t54.5 -27.5h133q42 0 65 26.5t36 85.5
l94 446q14 57 1.5 84.5t-54.5 27.5h-133z" />
    <glyph glyph-name="P.mon2" horiz-adv-x="401" 
d="M22 0l150 710h205q103 0 77 -125l-39 -182q-26 -125 -129 -125h-183l-59 -278h-22zM190 690l-83 -392h176q45 0 71.5 26t38.5 83l37 174q12 57 -3.5 83t-60.5 26h-176z" />
    <glyph glyph-name="S.mon2" horiz-adv-x="405" 
d="M324 296l-176 106q-27 15 -36 35t-1 56l19 88q14 68 45.5 98.5t84.5 30.5h113q53 0 72 -30.5t4 -98.5l-17 -80h-23l17 81q23 108 -54 108h-111q-48 0 -71.5 -24.5t-37.5 -88.5l-18 -84q-6 -29 -1 -44.5t25 -26.5l178 -106q28 -16 36.5 -35.5t-0.5 -61.5l-20 -94
q-27 -125 -124 -125h-115q-56 0 -75 31t-5 94l18 86h22l-18 -86q-12 -55 3 -80t57 -25h111q42 0 67 25t37 80l20 94q7 37 1.5 50.5t-27.5 26.5z" />
    <glyph glyph-name="F.mon2" horiz-adv-x="382" 
d="M190 690l-81 -382h224l-7 -20h-221l-61 -288h-22l150 710h305l-8 -20h-279z" />
    <glyph glyph-name="B.mon2" horiz-adv-x="400" 
d="M22 0l150 710h154q127 0 99 -135l-22 -104q-19 -83 -71 -100q34 -10 44 -46t1 -78l-24 -112q-29 -135 -152 -135h-179zM120 359l-72 -339h155q104 0 128 114l23 108q13 61 -5 89t-69 28h-160zM191 692l-67 -313h162q75 0 94 89l22 105q13 62 -7 90.5t-78 28.5h-126z" />
    <glyph glyph-name="I.mon2" horiz-adv-x="139" 
d="M45 0h-22l150 710h22z" />
    <glyph glyph-name="E.mon2" horiz-adv-x="372" 
d="M190 690l-81 -382h227l-7 -20h-224l-57 -268h271l-7 -20h-290l150 710h290l-7 -20h-265z" />
    <glyph glyph-name="Z.mon2" horiz-adv-x="377" 
d="M472 690l-464 -670h323l-7 -20h-342l1 20l463 670h-316l1 20h342z" />
    <glyph glyph-name="A.mon2" horiz-adv-x="419" 
d="M310 710h29l24 -710h-25l-5 170h-247l-76 -170h-24zM320 690l-225 -500h238z" />
    <glyph glyph-name="V.mon2" horiz-adv-x="419" 
d="M189 0h-29l-28 710h25l21 -690l313 690h25z" />
    <glyph glyph-name="X.mon2" horiz-adv-x="346" 
d="M152 710l65 -342l209 342h25l-222 -356l69 -354h-28l-63 338l-205 -338h-25l219 354l-72 356h28z" />
    <glyph glyph-name="N.mon2" horiz-adv-x="450" 
d="M44 0h-22l150 710h33l133 -690l146 690h23l-150 -710h-32l-135 690z" />
    <glyph glyph-name="R.mon2" horiz-adv-x="406" 
d="M22 0l150 710h202q94 0 68 -125l-39 -182q-26 -125 -120 -125h-23l102 -278h-28l-101 278h-130l-59 -278h-22zM190 690l-83 -392h173q41 0 65 26t36 83l37 174q12 57 -1 83t-54 26h-173z" />
    <glyph glyph-name="G.mon2" horiz-adv-x="411" 
d="M244 304l7 20h145l-40 -189q-14 -68 -43.5 -101.5t-84.5 -33.5h-113q-96 0 -70 124l96 451q29 135 116 135h128q98 0 71 -125l-18 -84h-22l17 80q12 57 -1 83t-54 26h-116q-40 0 -63 -28t-37 -91l-94 -442q-12 -57 1 -83t54 -26h104q43 0 67.5 25t35.5 77l39 182h-125z
" />
    <glyph glyph-name="C.mon2" horiz-adv-x="400" 
d="M123 20h107q42 0 65.5 26.5t36.5 85.5l16 79h22l-16 -76q-15 -71 -44 -103t-86 -32h-103q-57 0 -73 32.5t-1 102.5l94 440q15 71 44 103t86 32h103q57 0 73 -32.5t1 -102.5l-16 -74h-22l16 77q14 57 1.5 84.5t-55.5 27.5h-107q-42 0 -65.5 -26.5t-36.5 -85.5l-94 -446
q-14 -57 -1.5 -84.5t55.5 -27.5z" />
    <glyph glyph-name="D.mon2" horiz-adv-x="416" 
d="M22 0l150 710h202q57 0 73 -32.5t1 -102.5l-94 -440q-15 -70 -44 -102.5t-86 -32.5h-202zM371 690h-181l-142 -670h181q43 0 66 26.5t36 85.5l94 446q14 57 1.5 84.5t-55.5 27.5z" />
    <glyph glyph-name="H.mon2" horiz-adv-x="422" 
d="M44 0h-22l150 710h22l-87 -412h263l87 412h22l-150 -710h-22l59 278h-263z" />
    <glyph glyph-name="U.mon2" horiz-adv-x="437" 
d="M241 20q45 0 72 30.5t41 98.5l119 561h22l-119 -564q-16 -74 -49 -110t-88 -36h-112q-108 0 -76 146l119 564h22l-119 -561q-14 -67 0 -98t59 -31h109z" />
    <glyph glyph-name="W.mon2" horiz-adv-x="567" 
d="M156 0h-28l16 710h25l-25 -690l241 690h26l-51 -690l267 690h25l-283 -710h-29l42 634z" />
    <glyph glyph-name="Y.mon2" horiz-adv-x="386" 
d="M168 0h-22l72 341l-81 369h24l74 -342l217 342h25l-237 -369z" />
    <glyph glyph-name="L.mon2" horiz-adv-x="388" 
d="M194 710l-146 -690h297l-7 -20h-316l150 710h22z" />
    <glyph glyph-name="J.mon2" horiz-adv-x="331" 
d="M106 20q60 0 92.5 26t44.5 83l123 581h22l-124 -584q-13 -63 -52 -94.5t-111 -31.5h-127l7 20h125z" />
    <glyph glyph-name="Q.mon2" horiz-adv-x="440" 
d="M47 135l94 440q15 70 43.5 102.5t84.5 32.5h131q56 0 71.5 -32.5t0.5 -102.5l-94 -440q-15 -70 -43.5 -102.5t-84.5 -32.5h-59l-22 -102h-22l22 102h-50q-56 0 -71.5 32.5t-0.5 102.5zM264 690q-42 0 -65 -26.5t-36 -85.5l-94 -446q-14 -57 -1.5 -84.5t54.5 -27.5h51
l30 141h22l-30 -141h60q42 0 65 26.5t36 85.5l94 446q14 57 1.5 84.5t-54.5 27.5h-133z" />
    <glyph glyph-name="K.mon2" horiz-adv-x="376" 
d="M44 0h-22l150 710h22l-74 -351l341 351h28l-345 -355l195 -355h-28l-193 351z" />
    <glyph glyph-name="M.mon2" horiz-adv-x="466" 
d="M373 0h-22l143 677l-222 -377h-23l-62 377l-143 -677h-22l150 710h30l64 -386l228 386h29z" />
    <glyph glyph-name="T.mon2" horiz-adv-x="383" 
d="M479 690h-166l-146 -690h-23l146 690h-166l4 20h355z" />
    <glyph glyph-name="K.mon2.002" horiz-adv-x="381" 
d="M43 0h-22l76 358h127l240 352h23l-246 -362l98 -348h-26l-94 338h-105zM193 710l-70 -332h-22l70 332h22z" />
    <glyph glyph-name="A.ae" horiz-adv-x="433" 
d="M316 710h30l34 -703l-21 -7l-8 170h-268l-79 -170l-19 7l331 702v1zM327 688l-235 -498h258z" />
    <glyph glyph-name="K.ae" horiz-adv-x="354" 
d="M44 0h-22l150 710h22l-74 -350l328 350l14 -13l-318 -342l171 -342l-17 -13l-180 349z" />
    <glyph glyph-name="M.ae" horiz-adv-x="509" 
d="M416 0h-23l146 690l-254 -400h-10l-85 400l-146 -690h-22l150 710h33l83 -381l244 381h34z" />
    <glyph glyph-name="R.ae" horiz-adv-x="405" 
d="M22 0l150 710h202q94 0 68 -125l-39 -182q-26 -125 -120 -125h-23l94 -265l-19 -13l-102 278h-130l-59 -278h-22zM190 690l-83 -392h173q41 0 65 26t36 83l37 174q12 57 -1 83t-54 26h-173z" />
    <glyph glyph-name="V.ae" horiz-adv-x="429" 
d="M194 0h-30v1l-34 702l22 7l31 -688l324 688l19 -7l-333 -702z" />
    <glyph glyph-name="W.ae" horiz-adv-x="716" 
d="M481 0h-30v1l-25 492l-233 -492l1 -1h-30v1l-34 702l22 7l31 -688l324 688l19 -7l-79 -166l23 -515l323 688l20 -7l-333 -702z" />
    <glyph glyph-name="X.ae" horiz-adv-x="360" 
d="M443 712l17 -11l-227 -338l87 -356l-21 -11l-84 339l-227 -339l-17 11l237 355l-82 339l22 11l78 -323z" />
    <glyph glyph-name="Y.ae" horiz-adv-x="385" 
d="M168 0h-22l77 364l-85 337l21 11l79 -327l217 327l18 -11l-228 -337z" />
    <glyph glyph-name="A.SC" horiz-adv-x="377" 
d="M267 604h27l26 -604h-23l-6 143h-217l-65 -143h-23zM276 580l-193 -417h207z" />
    <glyph glyph-name="B.SC" horiz-adv-x="388" 
d="M19 0l128 604h152q120 0 94 -115l-15 -73q-18 -86 -85 -101q38 -4 57 -33.5t6 -91.5l-16 -75q-24 -115 -133 -115h-188zM105 304l-60 -284h163q89 0 109 95l16 75q13 59 -8 86.5t-79 27.5h-141zM164 583l-55 -259h142q85 0 105 91l15 71q10 51 -9.5 74t-73.5 23h-124z
" />
    <glyph glyph-name="C.SC" horiz-adv-x="400" 
d="M112 20h127q38 0 58.5 22.5t31.5 71.5l14 66h22l-14 -65q-12 -60 -38.5 -87.5t-77.5 -27.5h-127q-51 0 -65.5 27.5t-2.5 87.5l79 374q13 59 39.5 87t77.5 28h127q51 0 65.5 -28t1.5 -87l-13 -63h-22l14 64q10 48 -1.5 70.5t-49.5 22.5h-127q-38 0 -58.5 -22.5
t-30.5 -70.5l-80 -376q-11 -49 0.5 -71.5t49.5 -22.5z" />
    <glyph glyph-name="D.SC" horiz-adv-x="418" 
d="M19 0l128 604h196q64 0 83 -33.5t3 -107.5l-69 -323q-16 -73 -48.5 -106.5t-96.5 -33.5h-196zM219 20q50 0 77.5 28.5t40.5 90.5l69 325q13 62 -2.5 90.5t-65.5 28.5h-174l-119 -563h174z" />
    <glyph glyph-name="E.SC" horiz-adv-x="345" 
d="M164 583l-68 -320h206l-7 -20h-203l-47 -223h244l-7 -20h-263l128 604h264l-8 -21h-239z" />
    <glyph glyph-name="F.SC" horiz-adv-x="339" 
d="M164 583l-68 -320h193l-7 -20h-190l-51 -243h-22l128 604h263l-8 -21h-238z" />
    <glyph glyph-name="G.SC" horiz-adv-x="406" 
d="M220 257l7 20h155l-34 -162q-13 -58 -38.5 -86.5t-75.5 -28.5h-129q-89 0 -67 106l81 383q26 115 104 115h146q87 0 64 -107l-15 -71h-22l14 66q10 48 -1.5 69.5t-47.5 21.5h-134q-36 0 -56 -23.5t-31 -75.5l-79 -373q-19 -91 51 -91h122q72 0 90 86l32 151h-136z" />
    <glyph glyph-name="H.SC" horiz-adv-x="414" 
d="M41 0h-22l128 604h22l-74 -348h259l74 348h23l-128 -604h-23l49 235h-259z" />
    <glyph glyph-name="I.SC" horiz-adv-x="132" 
d="M41 0h-22l128 604h22z" />
    <glyph glyph-name="J.SC" horiz-adv-x="229" 
d="M53 20q35 0 56 22t31 69l105 493h22l-106 -497q-23 -107 -110 -107h-71l7 20h66z" />
    <glyph glyph-name="K.SC" horiz-adv-x="332" 
d="M41 0h-22l128 604h22l-62 -293l285 293h25l-291 -302l165 -302h-27l-161 293z" />
    <glyph glyph-name="L.SC" horiz-adv-x="323" 
d="M169 604l-124 -584h234l-7 -20h-253l128 604h22z" />
    <glyph glyph-name="M.SC" horiz-adv-x="467" 
d="M41 0h-22l128 604h32l74 -337l219 337h32l-128 -604h-23l121 570l-214 -325h-22l-76 327z" />
    <glyph glyph-name="N.SC" horiz-adv-x="426" 
d="M41 0h-22l128 604h22v-1l133 -492q5 -18 10 -40.5t8 -32.5l120 566h23l-128 -604h-23l-128 474q-15 53 -23 92z" />
    <glyph glyph-name="O.SC" horiz-adv-x="423" 
d="M40 115l79 374q13 59 39.5 87t77.5 28h135q51 0 65.5 -28t1.5 -87l-79 -374q-12 -60 -38.5 -87.5t-77.5 -27.5h-135q-51 0 -65.5 27.5t-2.5 87.5zM231 583q-38 0 -58.5 -22.5t-30.5 -70.5l-80 -376q-11 -49 0.5 -71.5t49.5 -22.5h135q38 0 58.5 22.5t31.5 71.5l80 376
q10 48 -1.5 70.5t-49.5 22.5h-135z" />
    <glyph glyph-name="P.SC" horiz-adv-x="371" 
d="M97 268l-56 -268h-22l128 604h197q86 0 63 -107l-26 -123q-22 -106 -109 -106h-175zM164 583l-62 -295h169q69 0 88 91l24 113q20 91 -50 91h-169z" />
    <glyph glyph-name="Q.SC" horiz-adv-x="423" 
d="M40 115l79 374q13 59 39.5 87t77.5 28h135q51 0 65.5 -28t1.5 -87l-79 -374q-12 -60 -38.5 -87.5t-77.5 -27.5h-59l-22 -103h-22l22 103h-54q-51 0 -65.5 27.5t-2.5 87.5zM112 20h54l20 94h22l-20 -94h59q38 0 58.5 22.5t31.5 71.5l80 376q10 48 -1.5 70.5t-49.5 22.5
h-135q-38 0 -58.5 -22.5t-30.5 -70.5l-80 -376q-11 -49 0.5 -71.5t49.5 -22.5z" />
    <glyph glyph-name="R.SC" horiz-adv-x="377" 
d="M19 0l128 604h191q85 0 62 -107l-28 -131q-23 -107 -107 -107h-37l99 -259h-26l-99 259h-106l-55 -259h-22zM164 583l-64 -303h162q36 0 57 21.5t31 69.5l26 121q10 48 -2 69.5t-48 21.5h-162z" />
    <glyph glyph-name="S.SC" horiz-adv-x="373" 
d="M282 266l-139 77q-31 17 -40 38.5t0 61.5l11 51q12 57 39 83.5t72 26.5h100q49 0 66.5 -26t5.5 -84l-15 -68h-23l14 67q20 90 -52 90h-95q-40 0 -59.5 -20t-31.5 -74l-9 -45q-8 -30 -1.5 -47.5t31.5 -32.5l141 -80q33 -18 41 -39t-1 -66l-16 -73q-23 -106 -107 -106h-120
q-93 0 -70 106l16 74h22l-16 -72q-10 -46 2.5 -67t48.5 -21h115q36 0 56.5 21t30.5 67l15 70q8 37 2 54.5t-34 33.5z" />
    <glyph glyph-name="T.SC" horiz-adv-x="315" 
d="M389 583h-133l-123 -583h-23l123 583h-132l5 21h288z" />
    <glyph glyph-name="U.SC" horiz-adv-x="410" 
d="M228 20q39 0 62 25.5t35 82.5l101 476h23l-102 -480q-27 -124 -121 -124h-113q-96 0 -69 124l102 480h22l-101 -476q-12 -56 0.5 -82t51.5 -26h109z" />
    <glyph glyph-name="V.SC" horiz-adv-x="370" 
d="M164 0h-28l-18 604h24l12 -553q0 -20 -1 -29l12 29l248 553h24z" />
    <glyph glyph-name="W.SC" horiz-adv-x="591" 
d="M154 0h-27l-8 604h24l3 -530q0 -33 -2 -51q3 10 9.5 27t9.5 24l212 529l24 1l-13 -530q0 -37 -2 -48q9 26 19 47l229 531h24l-264 -604h-27l13 540q0 17 2 26q-5 -16 -11 -26z" />
    <glyph glyph-name="X.SC" horiz-adv-x="321" 
d="M190 312l188 292h23l-195 -303l64 -301h-23l-62 288l-183 -288h-23l190 301l-65 303h23z" />
    <glyph glyph-name="Y.SC" horiz-adv-x="363" 
d="M157 0h-22l55 259l-76 345h24l60 -283q6 -31 6 -45q1 2 8 14t19 30l179 284h23l-221 -345z" />
    <glyph glyph-name="Z.SC" horiz-adv-x="319" 
d="M384 583l-371 -563h259l-7 -20h-279l1 20l370 563h-247l2 21h274z" />
    <glyph glyph-name="a.ital" horiz-adv-x="366" 
d="M385 505l-107 -505h-21l11 58q-37 -58 -93 -58h-59q-102 0 -74 129l54 253q14 65 42.5 97t83.5 32h62q58 0 69 -54l10 48h22zM281 122l57 265q10 49 -5 76.5t-51 27.5h-63q-39 0 -63.5 -24.5t-36.5 -80.5l-56 -260q-23 -106 53 -106h66q33 0 60 26.5t39 75.5z" />
    </font>
</defs>
</svg>
