<?xml version="1.0" standalone="no"?>
<!DOCTYPE svg PUBLIC "-//W3C//DTD SVG 1.1//EN" "http://www.w3.org/Graphics/SVG/1.1/DTD/svg11.dtd" >
<svg xmlns="http://www.w3.org/2000/svg" xmlns:xlink="http://www.w3.org/1999/xlink" version="1.1">
<metadata></metadata>
<defs>
<font id="pentagram_s_malefissentRg" horiz-adv-x="464" >
<font-face units-per-em="2048" ascent="1638" descent="-410" />
<missing-glyph horiz-adv-x="500" />
<glyph horiz-adv-x="0" />
<glyph horiz-adv-x="682" />
<glyph unicode="!" horiz-adv-x="290" d="M57 55l107 -49l88 107l-102 57zM86 233l68 201l65 -211v1444l-65 -203l-68 197v-1428z" />
<glyph unicode="&#x22;" horiz-adv-x="329" d="M-31 1374q92 -59 92 -107t-51 -87l-37 -31l58 22l57 37l41 56l14 53q-4 90 -90 135zM170 1374q92 -59 92 -107t-51 -87l-37 -31l57 22l58 37l41 56l14 53q-4 90 -90 135z" />
<glyph unicode="'" horiz-adv-x="178" d="M0 1360q92 -59 92 -107.5t-51 -87.5l-37 -30l57 22l58 37l41 55l14 54q-4 90 -90 135z" />
<glyph unicode="+" horiz-adv-x="471" d="M-4 756l59 -80h135v-195l76 68l2 129h197l-68 76h-127l2 196l-79 -59v-135h-197z" />
<glyph unicode="," horiz-adv-x="206" d="M-2 121q92 -59 92 -107.5t-51 -87.5l-37 -30l57 22l58 37l41 55l14 53q-4 90 -90 136z" />
<glyph unicode="-" d="M-4 756l59 -80l410 2l-68 76z" />
<glyph unicode="." horiz-adv-x="206" d="M6 88l107 -49l88 106l-103 58z" />
<glyph unicode="/" horiz-adv-x="430" d="M-2 -2q72 162 111 281q4 -68 22 -166l301 1583q-76 -186 -125 -381q6 92 -12 213z" />
<glyph unicode=":" horiz-adv-x="210" d="M2 696l107 -49l88 107l-103 57zM6 88l107 -49l88 106l-103 58z" />
<glyph unicode=";" horiz-adv-x="202" d="M-2 121q92 -59 92 -107.5t-51 -87.5l-37 -30l57 22l58 37l41 55l14 53q-4 90 -90 136zM-2 694l106 -49l89 107l-103 57z" />
<glyph unicode="=" horiz-adv-x="507" d="M-4 756l59 -80l410 2l-68 76zM4 588l59 -80l410 2l-67 76z" />
<glyph unicode="A" horiz-adv-x="1024" d="M-147 1075q47 -82 100 -90q14 -2 28 -2q37 0 68 16q94 295 199 451q147 211 495 244l203 6h49q-121 -36 -121 -202v-5v-1286q0 -137 89 -201l6 -6h-424q119 90 119 197v10v641v13q0 79 -70 107q-57 23 -141 23q-27 0 -57 -2q-122 -10 -197 -90q-19 -69 -29 -183 q-7 -80 -8 -164q0 -35 2 -71q4 -205 92 -375q76 -145 154 -229q-373 276 -402 688q-2 43 -2 83q0 120 14 212q-147 12 -167 215zM293 1110q57 33 135 32q39 0 82 -8q131 -24 152 -85v479q-5 2 -13 2q-38 0 -136 -54q-118 -66 -220 -366z" />
<glyph unicode="B" horiz-adv-x="1189" d="M27 6q108 31 108 121q0 653 8 661q-4 18 -4 68l2 344v121q1 19 1 35q0 48 -5 68q-7 26 -33 32q-20 4 -53 4h-24q233 238 604 238q289 0 450 -170q98 -104 97 -172q-4 4 -17 4q-31 0 -163 -71.5t-146 -96.5q-31 -23 27 -12q14 0 44.5 4t49.5 4h223q-78 -76 -98 -256 q-41 -340 -193 -586q-186 -301 -495 -340q-23 -4 -56 -6q-43 -2 -65 -2zM168 1526q35 6 79 6t97 -6q92 -10 135 -64q-84 -6 -84 -174v-16l-8 -1032v-20q0 -109 21 -122q147 18 266 114.5t160 236.5q65 227 65 342q0 309 -223 309q-25 0 -166 -25q4 16 186 137 q176 117 176 148q0 27 -61 98q-49 53 -90 89t-127 59q-71 22 -132 22h-5q-125 0 -264 -84z" />
<glyph unicode="C" horiz-adv-x="1021" d="M0 817v158q0 516 508 706q88 20 170 20q71 0 137 -15q137 -45 169 -120q27 -63 27 -130q0 -13 -1 -25q-16 -143 -187 -254q57 48 57 150q0 11 -1 24q-16 131 -54.5 177t-108.5 66q-36 11 -105 11q-65 1 -157 -9q-192 -20 -212 -611q53 -791 403 -871q20 -2 40 -3 q169 0 286 155v-17q-86 -229 -365 -233q-10 -1 -21 -1q-319 0 -513 478q-61 156 -72 344z" />
<glyph unicode="D" horiz-adv-x="1296" d="M2 0q49 14 70.5 28.5t36.5 53.5q10 61 12 156l14 956q0 14 2 49v51q0 145 -117 174q289 229 648 230q207 0 362 -78q150 -78 287 -246q-16 -14 -51 -43q-16 -23 -91 -241t-149 -435q-106 -281 -205 -409q-106 -135 -221 -190.5t-293 -55.5h-305zM141 1516q60 3 109 3 q194 0 225 -44q-68 -29 -84 -113q-10 -43 -10 -152v-598q-2 -166 -8 -497q-8 -33 24 -33q76 8 151 46t111 103q72 111 187 553q112 431 112 574q0 35 -100 125q-88 63 -166 100q-88 42 -169 42q-13 0 -27 -1q-104 0 -297 -76z" />
<glyph unicode="E" horiz-adv-x="1083" d="M-4 6q96 14 122 96q22 71 22 156q0 13 -1 27v1241q1 13 1 24q0 127 -120 150h951q76 -39 78 -184q-4 -63 -36 -144.5t-139 -195.5q53 84 64 176v16q0 225 -204 226q-12 0 -25 -1q-293 0 -335 -4t-46 -67v-426q20 48 82 49q36 0 86 -17q266 -109 334 -126q9 -2 18 -2 q54 0 72 94q21 -50 21 -95q0 -31 -10 -61q-24 -72 -77 -82q-22 -4 -44 -4q-30 0 -60 8q-58 16 -192 68q-120 47 -172 48q-6 0 -11 -1q-45 -12 -45 -51v-709v-5q0 -92 68 -114q45 -14 160 -14q65 0 151 4q307 55 307 334v24q12 -47 16 -73q5 -32 5 -63q0 -46 -11 -89 q-66 -223 -317 -323q0 100 -404 114z" />
<glyph unicode="F" horiz-adv-x="1019" d="M2 1700h903q106 -24 106 -154q0 -40 -10 -90q-43 -139 -172 -285q45 86 62 220v7q0 187 -221 187h-2h-299q-45 -6 -45 -45v-455q30 42 104 43q2 0 4 -1q76 -1 176.5 -55t167.5 -71q19 -6 37 -6q30 -1 56 17q40 28 67 108q-25 -172 -74 -222q-42 -43 -92 -43q-8 0 -16 1 q-100 16 -289 111q-33 18 -62 18q-19 0 -36 -8q-43 -19 -43 -57v-619v-88v-6q0 -171 114 -205h-413q113 47 116 213l-2 1362q0 88 -137 123z" />
<glyph unicode="G" horiz-adv-x="1169" d="M4 1030q6 248 74.5 386t68.5 149q0 69 -116 104h32h988h12q55 0 96 33q-33 -139 -182 -344v12q-8 78 -35 133.5t-100 75.5q-41 10 -94 16l-66 -4q-35 -2 -87 -24.5t-69 -36.5q-258 -184 -258 -547q0 -254 131 -508q141 -283 359 -354q25 -8 38 -11.5t17 6t6 271.5t2 285 v372q0 39 -13 93.5t-103 81.5h454q-53 -17 -74.5 -49.5t-22.5 -86t-1 -198.5v-475q-4 -123 -4 -193q0 -86 8 -115q18 -63 80 -90q-14 -10 -55 -10q-35 -3 -74 -3t-82 3q-373 16 -658 350q-272 322 -272 678zM1198 16v23v-23z" />
<glyph unicode="H" horiz-adv-x="1261" d="M2 -2q2 0 68 27q48 33 48 144q0 13 -1 26l16 1160v-1v229q-6 55 -27.5 77.5t-54.5 30t-35 9.5h490q-70 -14 -92.5 -58.5t-24.5 -90.5t-2 -115v-176l479 4q0 31 2 71v11v219v8q0 108 -106 127h487q-117 -16 -114 -113q-4 -72 -5 -155l-10 -1299v-17q0 -52 10 -74 q12 -24 99 -44h-484q76 14 94.5 53t18.5 129l10 965h-483l-8 -1026q0 -29 6 -64t98 -57h-479z" />
<glyph unicode="I" horiz-adv-x="448" d="M0 0l39 29q57 41 59 168q17 1134 19 1134v-2q0 246 -2 290t-52.5 62.5t-52.5 20.5h434q-88 -18 -98 -72q-8 -45 -8 -159v-48l-6 -1288v-5q0 -38 28 -75q30 -39 64 -55h-424z" />
<glyph unicode="J" horiz-adv-x="1032" d="M10 213v6q150 117 254 193q-39 -59 -39 -156q0 -98 67.5 -174t160.5 -76q213 0 219 273v993q0 41 -1 114.5t-5 135.5q-2 80 -33 120q-35 31 -84 58h471q-74 -23 -82 -80q-16 -43 -16 -121l-7 -1261v-13q0 -120 37 -155h-4q-74 0 -236 -77q-167 -79 -266 -79q-8 0 -38 -2 q-113 10 -230 68q-121 90 -168 233z" />
<glyph unicode="K" horiz-adv-x="1089" d="M2 16q55 16 71.5 35t18.5 66t2 166l2 1292q1 8 1 15q0 78 -81 104h433q-80 -29 -80 -115v-395q1 -19 18 -19q15 -1 41 13q57 30 219 182.5t162 232.5q0 35 -13.5 55.5t-39.5 34.5l-41 17l485 2q-86 -43 -199 -154q-76 -76 -145 -135q-98 -86 -209 -192q93 0 147 5 q14 1 39 1q71 0 228 -10q-100 -57 -100 -328q0 -479 184 -1008q-152 201 -268 510q-92 276 -185 549q-25 70 -80 119q-63 63 -129 63q-78 0 -104 -45q-12 -29 -12 -110l-9 -588q0 -250 6.5 -285t27 -52t83.5 -26h-473z" />
<glyph unicode="L" horiz-adv-x="1169" d="M-2 2q139 43 139 207v1284q1 11 1 22q0 145 -113 185h479q-143 -31 -142 -209v-1307q14 -88 168 -102q35 -3 68 -3q389 0 492 443l8 49v39v62q43 -140 43 -255q0 -111 -39 -197q-80 -178 -219 -326q-84 76 -230 98q-88 10 -291 10h-364z" />
<glyph unicode="M" horiz-adv-x="1232" d="M6 4l37 16q46 51 46 210q0 24 -1 51q-2 260 -2 419v859q1 14 1 27q0 99 -81 114h117h117h145l-18 -4q-67 -11 -67 -91q0 -21 5 -46q80 -412 279 -695q287 383 321 674v12q0 105 -35 136l-45 14h176h230l-60 -27q-48 -31 -48 -148q0 -21 1 -44v-1280q0 -168 93 -195 l-33 -2h-340l24 10q55 33 56 228v858v47q-59 -117 -271 -381q107 -159 108 -301q0 -34 -7 -68q-14 -61 -39 -104t-86 -96q53 91 57 163q1 11 1 21q1 62 -19 128q-22 77 -90 165l-13 -15q-63 -80 -80 -188q-2 -18 -2 -38q0 -79 39 -175l43 -63q-144 93 -144 287q0 18 1 38 q10 131 92 244q-143 176 -229 366v-30v-39q0 -100 4 -266q-4 -199 -4 -492q0 -258 84 -289l16 -10h-379z" />
<glyph unicode="N" horiz-adv-x="1075" d="M8 6l27 6q86 25 88 215q2 18 0 39v1198q1 15 1 28q0 171 -116 204h365q233 -170 426 -539l39 -76v383v19q0 186 -115 213l364 2q-106 -4 -110 -232l-2 -47q-2 -154 -4 -212t-4 -158q-4 -170 -6 -322l-3 -143q-4 -137 -9 -194.5t-14 -97.5t-23.5 -86t-45.5 -112 q-47 -80 -149 -178l-47 -37q192 195 192 543q0 128 -26 276q-55 254 -271.5 540t-304.5 302l2 -559v-750q4 -217 115 -225h-369z" />
<glyph unicode="O" horiz-adv-x="1343" d="M8 1464q127 104 312.5 170t343.5 66q190 0 274 -17q72 -14 178 -57q12 -6 82 -45q66 -39 152 -117q-59 -2 -76 -33.5t-27 -177.5q-6 -98 -12 -194q-29 -211 -125 -441q-92 -219 -221 -401q-23 -33 -113 -129q-102 -88 -121 -88q-25 0 -139 143q-106 127 -131 176 q-166 270 -219 510q-18 76 -33 166q-4 53 -8 129q-1 11 -1 24q0 81 21 261q0 58 -90 58q-21 0 -47 -3zM180 1530q190 -2 191 -2q133 -8 155 -53q-151 -167 -151 -567v-5q0 -133 31 -297q39 -186 77 -248q27 -53 56 -92q57 -90 123 -160q20 0 73 58q37 31 68 76 q111 174 153 409q29 173 29 443q0 129 -33 311q-51 231 -387 231q-82 0 -200 -24q-123 -35 -185 -80z" />
<glyph unicode="P" horiz-adv-x="1173" d="M10 4q109 26 109 118v7q0 651 2 665.5t2 59.5l2 348v117v15q-1 47 -11 80q-12 38 -32 46q-11 5 -33 5q-17 0 -39 -3q233 238 606 238q291 0 453 -170q96 -106 94 -172q-4 4 -16 4q-33 0 -158 -107l-166 -133q-152 -94 -230.5 -111.5t-131.5 -29.5q74 39 119 64t86 61.5 t89 93.5t76.5 101.5t28.5 60.5q-20 61 -104 151q-92 72 -176 95q-73 22 -133 22h-5q-127 0 -266 -84l-29 -18q81 1 126 1t55 -1q92 -10 137 -64q-82 -4 -82 -102v-14l-8 -1198q-2 -14 -2 -27q0 -97 106 -125q-20 0 -64 -3t-65 -3q-61 0 -170 4q-133 6 -170 8z" />
<glyph unicode="Q" horiz-adv-x="1329" d="M2 1466q127 102 311.5 168t341.5 66q190 0 275 -17q70 -14 176 -57q10 -6 82 -45q66 -37 149 -115q-57 -2 -74.5 -34.5t-27.5 -176.5q-6 -98 -12 -194q-27 -209 -123 -438q-57 -138 -131 -261v-4q47 0 243 103q-99 -270 -99 -459q0 -19 1 -37q-74 233 -80 354l-110 -30 q-23 -33 -45 -66q-23 -33 -113 -129q-100 -88 -119 -88q-25 0 -139 144q-104 127 -131 174q-164 270 -219 510q-18 76 -31 165q-4 51 -8 127q-1 12 -1 26q0 82 19 257q0 60 -92 60q-20 0 -43 -3zM178 1528h184q133 -8 156 -51q-151 -169 -151 -565v-5q0 -135 32 -297 q37 -186 76 -252q27 -47 55 -86q95 -159 123 -159q18 0 74 57q35 31 66 76q111 172 153 407q29 173 29 441q0 129 -33 309q-51 231 -385 231q-82 0 -201 -26q-113 -33 -178 -80zM911 281l4 6q-2 -2 -4 -6z" />
<glyph unicode="R" horiz-adv-x="1155" d="M-4 1489q45 49 303 162q220 69 373 69h4q178 0 305 -94q102 -78 209 -248l22 -28l-32 16q-29 13 -59 13q-51 0 -105 -38q-100 -68 -205 -143l-57 -43q311 -8 333 -8q-72 -53 -86 -154q-4 -33 -4 -186q0 -219 29 -471q43 -311 117 -455q-123 143 -248 520 q-121 369 -123 371q-76 299 -301 299q33 33 222.5 158t189.5 131q0 84 -157 183t-253 99q-49 0 -156 -30q-119 -41 -161 -74q23 5 71 5q35 0 84 -3q98 -8 140 -51q-76 -10 -76 -238l-17 -886v-37q0 -225 23 -252q10 -41 90 -64l-446 -6q39 16 54 30.5t32 51.5q8 18 14 55 q4 53 4 78v1149q1 13 1 24q0 81 -37 101q-19 10 -40 10q-26 0 -57 -16z" />
<glyph unicode="S" horiz-adv-x="1155" d="M2 1180q0 20 27 71q92 184 304 316.5t427 132.5q174 0 393 -86q-59 -88 -182 -256q-12 102 -142 160q-100 43 -229 43q-205 0 -352 -134l-12 -12q147 -6 305 -57q219 -72 264 -80q96 -20 291 -61q-160 -109 -293 -345q-109 -201 -228 -401q-147 -236 -292 -348 q-45 -35 -93 -68q-55 -33 -92 -45l-14 -4q-12 -2 -29 -4q178 115 361 467q182 344 182 547q0 18 -10 41q-139 123 -586 123z" />
<glyph unicode="T" horiz-adv-x="1095" d="M4 1352q-4 49 -4 96q0 132 33 248h1018q29 -27 35 -190q1 -19 1 -38q-1 -142 -41 -267q-46 -142 -96 -232l-43 -72q39 113 56 193q21 71 21 167q0 66 -10 143q-24 191 -231 202q-11 1 -21 1q-95 0 -97 -104l2 -1370q-2 -104 114 -129h-415q117 34 117 123q0 8 -1 16v1006 v69v277q-8 74 -61 100l-29 2q-18 2 -36 2q-84 0 -138 -57l-28 -49q-44 -71 -54 -181q-3 -36 -3 -69q0 -70 13 -131q35 -145 58 -190l-21 22q-121 215 -139 412z" />
<glyph unicode="U" horiz-adv-x="1191" d="M4 1063q0 180 51 319q23 57 49 115q29 74 29 113q0 68 -35 69l-32 21l503 -4q-135 -63 -245 -316q-81 -202 -81 -366q0 -31 3 -60q0 -283 145 -520q180 -289 436 -340v119l-2 1352q0 94 -88 133h228q97 1 145 1q47 0 47 -1l-56 -73q-7 -42 -5 -62l-13 -1213l-2 -282v-5 q0 -45 68 -61h-227q-150 0 -347 100q-262 129 -417 402q-154 260 -154 559z" />
<glyph unicode="V" horiz-adv-x="1083" d="M4 1647q250 8 281 8q109 0 155 -6q-78 -29 -78 -66q0 -51 142 -547q139 -487 174 -563h2q8 0 10 4q68 109 146 316q90 231 90 329q0 152 -60 275q-72 152 -202 182q2 0 131 66q109 55 116 55q20 0 60 -62q94 -143 94 -333q0 -229 -197 -662q-160 -319 -319 -641 q-213 741 -242 836q-4 37 -24 92q-63 231 -97 373q-43 178 -94 270q-23 53 -88 74z" />
<glyph unicode="W" horiz-adv-x="1574" d="M10 1679h434q-69 -42 -69 -95q0 -21 133 -490q145 -522 162 -578l18 -20q29 20 90 170q61 141 62 178q0 20 -101.5 375.5t-115 379t-52.5 44t-39 34.5q256 8 285 9q111 0 160 -7q-82 -31 -82 -71q0 -51 144.5 -557t177.5 -584h4q6 0 10 6q57 93 136 319q72 206 72 353 q0 15 -1 29q-8 156 -80 266q-78 123 -211 157l133 68q111 55 119 55q20 0 59 -61q96 -147 96 -344q0 -231 -174 -674q-53 -129 -293 -659l-202 684q-18 -6 -23 -15q-31 -47 -90 -190q-82 -199 -86 -205q-41 -84 -117 -252q-14 31 -82 270q-59 203 -172 609q-47 186 -96 370 q-70 268 -113 346q-12 23 -47 46q-39 20 -49 34z" />
<glyph unicode="X" horiz-adv-x="1181" d="M0 1237q16 27 225 377v-10q-1 -68 49 -103q54 -37 189 -147l285 -193q124 130 124 258q0 65 -42 113.5t-121 58.5q55 35 114 74q88 55 113 55q39 0 70 -80q22 -63 22 -114q0 -92 -45 -189q-27 -51 -88 -143q-49 -59 -72 -84q92 -68 133 -107.5t80 -85t84.5 -132.5 t55.5 -232q0 -131 -33 -229q-27 -72 -62 -140q-63 -92 -77.5 -106.5t-37 -36t-56 -55t-130.5 -105.5q246 313 246 537q0 211 -248 405q-70 55 -74 57.5t-57 30.5q-123 -123 -258 -270q-70 -63 -131 -145q-72 -129 -72 -193q0 -63 41 -112.5t80 -55.5t43 -4q-57 -35 -114 -72 q-90 -55 -111 -55q-43 0 -72 80q-22 63 -22 111q0 240 319 536q8 6 215 240q-274 215 -549 264z" />
<glyph unicode="Y" horiz-adv-x="999" d="M2 1571q51 23 162 69q4 0 131 60q12 -57 143 -297q86 -160 174 -316q12 -25 35 -51q33 27 124 151q87 119 87 208v8q-4 72 -53 115t-133 55q57 33 116 72q88 55 111 55q41 0 72 -80q22 -63 22 -115q0 -123 -88 -262q-55 -90 -160 -201q-86 -90 -86 -96v-741 q0 -84 10.5 -132t84.5 -71q-18 -2 -174 -2q-109 0 -279 10q111 24 111 181v16q0 195 4 708q0 29 -131 275q-119 217 -162 285q-12 18 -38 62q-21 36 -63 36q-9 0 -20 -2z" />
<glyph unicode="Z" horiz-adv-x="1007" d="M2 -2q6 35 23 84q23 63 26.5 70.5t5.5 13.5q16 57 58 166q57 152 153 360q63 133 201 387q207 338 207 340l24 37q-92 12 -192 12q-164 0 -215 2q-152 0 -201 -84q2 104 137 375q17 -61 80 -61h10h658q-309 -487 -426 -692q-221 -387 -348 -734l-4 -18h577q16 -1 30 -1 q64 1 90 23q32 28 56 91l-4 -23q-4 -20 -129 -350z" />
<glyph unicode="_" horiz-adv-x="614" d="M0 45l102 45l406 -2l98 -43l-100 -41l-404 -4z" />
<glyph unicode="a" horiz-adv-x="864" d="M-127 913q41 -68 86 -76q12 -2 24 -2q31 0 58 15q82 252 170 385q125 180 424 207l172 6h41q-104 -31 -103 -176v-1100q0 -115 76 -170l6 -6h-364q102 75 102 164v12v549q1 6 1 13q0 66 -60 90q-47 20 -116 19q-24 -1 -52 -3q-104 -10 -168 -76q-18 -58 -26 -156 q-6 -66 -7 -135q0 -32 2 -65q4 -176 78 -320q66 -125 131 -197q-317 236 -342 588q-2 40 -2 77q0 99 12 175q-125 10 -143 182zM250 944q48 29 114 29q32 1 70 -7q112 -22 129 -73v407q-4 2 -11 2q-32 0 -115 -47q-101 -57 -187 -311z" />
<glyph unicode="b" horiz-adv-x="991" d="M4 4q92 27 92 105q0 549 6 557q-2 16 -2 57l2 291v102q0 63 -5 86t-27 28q-16 4 -43 4q-11 0 -23 -1q197 201 510 201q244 0 381 -144q84 -88 82 -145q-4 4 -14 4q-25 0 -136.5 -61.5t-124.5 -79.5q-27 -20 21 -11q12 0 38.5 3.5t41.5 3.5h188q-66 -63 -82 -216 q-35 -289 -164 -495q-158 -256 -417 -289q-18 -2 -47 -4q-35 -2 -56 -2zM123 1288q30 5 67 5t82 -5q78 -8 115 -53q-72 -4 -72 -145v-15l-6 -874v-19q0 -86 17 -98q125 14 225 96t135 199q55 191 55 289q0 262 -188 262q-20 0 -139 -23q2 14 157 117q147 98 148 125 q0 20 -53 84q-41 43 -75 73.5t-108 49.5q-63 20 -116 20q-104 0 -224 -71z" />
<glyph unicode="c" horiz-adv-x="823" d="M0 688v133q0 438 403 598q69 17 134 17q57 0 110 -13q109 -37 135 -100q21 -51 20 -105q0 -13 -1 -26q-12 -121 -148 -215q44 39 44 120q0 13 -1 27q-12 111 -42 150q-30 40 -86 56q-29 9 -83 8q-51 0 -125 -8q-152 -16 -167 -517q41 -666 319 -733q17 -2 33 -2 q132 0 225 129v-14q-68 -193 -289 -197h-17q-252 0 -407 403q-49 131 -57 289z" />
<glyph unicode="d" horiz-adv-x="1124" d="M2 0q41 12 59.5 24.5t30.5 45.5q8 51 10 131l13 807q0 12 2 43v43q0 123 -99 145q244 195 545 195q176 0 307 -66q125 -66 242 -207q-14 -12 -43 -39q-14 -16 -76.5 -200.5t-126.5 -368.5q-90 -238 -172 -344q-92 -115 -188 -162t-246 -47h-258zM121 1280q50 2 92 2 q163 0 188 -37q-57 -25 -71 -94q-8 -37 -8 -129v-506q-2 -139 -9 -420q-4 -27 23 -26q63 6 126.5 37.5t94.5 87.5q61 94 158 467q94 364 94 485q0 29 -84 106q-76 53 -139 84q-72 34 -141 34q-13 0 -27 -1q-88 0 -250 -61z" />
<glyph unicode="e" horiz-adv-x="915" d="M-4 -10q82 12 104 82q19 59 20 129q0 13 -1 26v1057q1 11 1 20q0 111 -104 130h809q68 -33 68 -158q-2 -53 -29.5 -123t-118.5 -166q45 72 56 150v8q0 198 -175 199q-11 0 -22 -1q-252 0 -286.5 -4t-38.5 -57v-362q17 40 69 40q31 0 74 -14q228 -92 286 -106q8 -2 15 -3 q46 0 59 81q19 -44 19 -84q1 -26 -7 -50q-20 -62 -66 -70q-18 -4 -36 -4q-27 0 -53 9q-51 14 -165 58q-100 39 -144 39q-6 0 -11 -1q-39 -10 -38 -43v-604v-5q0 -79 57 -97q36 -11 126 -12q59 0 140 5q262 47 262 283v20q10 -39 15 -61q3 -24 3 -47q0 -43 -10 -84 q-55 -188 -270 -274q0 86 -344 98z" />
<glyph unicode="f" horiz-adv-x="874" d="M2 1434h762q89 -19 89 -127q0 -35 -9 -78q-35 -119 -146 -242q41 74 54 187q2 163 -187 163h-2h-252q-39 -6 -39 -39v-383q26 36 88 36h4q64 -1 149 -47t140 -60q17 -5 32 -5q26 0 48 15q35 23 55 90q-20 -145 -61 -187q-34 -35 -75 -35q-7 0 -15 1q-86 14 -246 92 q-28 15 -53 15q-15 0 -29 -6q-37 -15 -37 -48v-522v-74q0 -150 99 -178h-348q92 39 96 180l-2 1147q0 76 -115 105z" />
<glyph unicode="g" horiz-adv-x="1024" d="M4 885q6 215 65.5 333.5t59.5 124.5q0 61 -102 93h28h850h12q47 0 80 28q-29 -121 -155 -297v11q-8 68 -31 114.5t-86 65.5q-35 10 -82 14l-55 -4q-31 0 -76 -20.5t-59 -30.5q-221 -160 -222 -471q0 -219 113 -436q121 -244 309 -306q20 -8 31.5 -10t14.5 6.5t5.5 233.5 t2.5 244v321q0 33 -11.5 80t-89.5 70h391q-45 -15 -63.5 -43.5t-19.5 -74.5t-1 -169v-410q-4 -106 -4 -166q0 -74 9 -98q16 -53 67 -78q-12 -8 -47 -8q-30 -3 -64 -3t-71 3q-319 14 -565 301q-233 276 -234 582zM1032 14v21v-21z" />
<glyph unicode="h" horiz-adv-x="1056" d="M0 0q2 0 55 23q42 29 42 119q0 11 -1 24q14 976 15 976v-1v194q-6 45 -23.5 64.5t-45.5 26t-30 8.5h412q-57 -12 -76.5 -49t-21.5 -76t-2 -97v-149l403 4q0 25 2 59v11v182v8q0 89 -90 107h412q-98 -14 -97 -95q-4 -59 -4 -131l-8 -1093v-19q0 -40 7 -57q9 -21 83 -39 h-405q61 14 78.5 47t17.5 107l6 813h-405l-9 -865q0 -25 5.5 -53.5t85.5 -48.5h-406z" />
<glyph unicode="i" horiz-adv-x="413" d="M0 0l35 25q53 35 55 141q13 954 14 954v-2q0 207 -1 244t-46 52.5t-45 17.5h391q-78 -14 -89 -60q-9 -39 -9 -137v-37l-4 -1083q-2 -35 25.5 -68t60.5 -47h-387z" />
<glyph unicode="j" horiz-adv-x="872" d="M10 168v6q127 98 217 164q-34 -50 -34 -128q0 -89 57 -153.5t137 -64.5q182 0 186 231v848v97.5t-4 115.5q-2 68 -28 102q-29 27 -72 50h401q-63 -20 -69 -68q-14 -37 -15 -104l-6 -1076v-12q0 -101 33 -129q-63 0 -205.5 -66.5t-226.5 -66.5q-6 0 -33 -2q-96 8 -194 57 q-102 78 -144 199z" />
<glyph unicode="k" horiz-adv-x="1024" d="M2 -16q47 14 61.5 29.5t16.5 55.5t2 142l2 1114v11q0 68 -70 89h371q-68 -25 -68 -98v-338q2 -31 51.5 -6t188.5 157t139 201q0 29 -11 46.5t-36 29.5l-35 15l420 2q-74 -37 -172 -131q-66 -68 -125 -119q-86 -74 -180 -164q80 0 126 4q12 1 32 1q60 0 198 -9 q-86 -49 -86 -283q0 -412 158 -866q-131 174 -229 440q-80 236 -160 471q-23 59 -68 103q-55 55 -112 55q-68 0 -88 -41q-12 -23 -13 -94l-6 -506q0 -215 5 -245t22.5 -44t73.5 -22h-408z" />
<glyph unicode="l" horiz-adv-x="1001" d="M-2 -14q119 37 119 178v1098v13q0 128 -97 163h410q-123 -27 -121 -178v-1119q12 -74 144 -86q30 -3 59 -3q334 0 420 378l6 43v33v53q37 -121 37 -220q0 -93 -33 -167q-68 -152 -188 -278q-72 66 -195 83q-78 8 -250 9h-311z" />
<glyph unicode="m" horiz-adv-x="1052" d="M6 4l31 12q40 45 40 183q0 18 -1 39q-2 217 -2 352v721q1 12 1 23q0 85 -69 96h98h99h123l-17 -5q-56 -8 -56 -72q0 -19 5 -42q68 -346 234 -584q242 322 270 567v11q0 86 -29 112l-39 13h150h192l-51 -23q-40 -26 -40 -126q0 -17 1 -36v-1075q0 -141 78 -166h-29h-284 l20 8q47 29 47 191v723v39q-51 -98 -227 -320q88 -132 88 -250q0 -31 -6 -61q-10 -51 -30.5 -87t-74.5 -81q46 76 50 136q1 11 0 23q0 50 -16 102q-20 65 -75 140l-12 -12q-53 -68 -65 -158q-3 -18 -3 -37q0 -66 33 -143l35 -53q-120 79 -120 243q0 15 1 31q8 109 78 205 q-121 147 -194 307v-24v-35q0 -82 4 -223q-4 -166 -4 -414q0 -215 71 -242l15 -8h-320z" />
<glyph unicode="n" horiz-adv-x="935" d="M8 -12l23 6q74 18 75 182q2 16 0 35v1022q1 12 1 23q0 147 -99 174h311q199 -143 363 -459l35 -66v328v18q0 155 -99 179l312 2q-92 -2 -94 -197l-2 -41q0 -131 -3 -180t-4 -137q-4 -143 -6 -275l-2 -121q-2 -117 -7 -166t-13 -83.5t-19.5 -73.5t-38.5 -95 q-41 -70 -127 -153l-43 -31q165 167 165 467q0 108 -21 234q-47 217 -231.5 460.5t-260.5 255.5l2 -477v-639q4 -186 99 -192h-316z" />
<glyph unicode="o" horiz-adv-x="1130" d="M8 1235q109 88 264.5 143.5t288.5 55.5q162 0 232 -15q61 -12 151 -47q8 -6 68 -39q55 -32 127 -98q-49 -2 -63.5 -28.5t-22.5 -149.5q-4 -82 -11 -164q-23 -176 -104 -371q-78 -184 -186 -338q-20 -29 -97 -110q-86 -74 -100 -74q-23 0 -119 121q-88 106 -110 147 q-139 229 -185 432q-16 63 -26 140q-3 46 -7 110q-1 10 -1 22q0 69 16 216q0 49 -79 49q-17 0 -36 -2zM154 1290q160 -2 159 -2q113 -6 131 -43q-127 -143 -127 -483q0 -113 27 -252q33 -156 66 -207q20 -45 45 -78q49 -76 104 -135q16 0 64 47q29 27 55 64q94 147 129 348 q24 144 24 373q0 106 -28 260q-41 196 -321 196h-3q-70 0 -170 -20q-104 -31 -155 -68z" />
<glyph unicode="p" horiz-adv-x="972" d="M10 2q92 23 92 104q0 552 1 564t1 51l2 293v98v16q0 38 -8 65q-10 32 -26.5 39t-61.5 1q197 201 512 201q246 0 381 -144q82 -90 80 -145q-2 4 -14 4q-27 0 -131 -90q-141 -113 -142 -113q-129 -80 -194.5 -95t-110.5 -24q61 33 99 54.5t73 52.5t76 79t64.5 85t23.5 51 q-18 51 -88 127q-76 61 -147 80q-66 18 -117 18q-106 0 -225 -69l-23 -17q67 1 104.5 1t44.5 -1q80 -8 117 -53q-69 -4 -69 -86v-12l-5 -1012q-2 -12 -2 -23q0 -82 91 -104q-18 0 -55.5 -3t-55.5 -3q-51 0 -143 4q-113 4 -144 6z" />
<glyph unicode="q" horiz-adv-x="1130" d="M2 1235q109 88 263.5 143.5t289.5 55.5q162 0 231 -15q59 -12 150 -47q10 -6 70 -39q55 -33 127 -98q-49 -2 -63.5 -28.5t-22.5 -149.5q-6 -82 -11 -164q-23 -176 -104 -371q-50 -117 -113 -221v-4q41 0 207 86q-83 -230 -83 -390q0 -14 1 -28q-63 199 -70 301l-92 -26 q-18 -29 -39 -56q-18 -29 -94 -110q-86 -74 -100 -74q-23 0 -119 121q-88 109 -111 147q-139 229 -184 432q-16 63 -26 140q-4 45 -7 110q-1 10 -1 22q0 69 16 216q0 49 -79 49q-17 0 -36 -2zM150 1288h157q113 -6 131 -43q-127 -143 -127 -483q0 -113 27 -250 q31 -158 65 -215q20 -39 46 -72q82 -135 104 -135q16 0 61 49q31 25 58 64q94 145 129 346q24 144 24 373q0 106 -28 260q-41 196 -321 196h-3q-70 0 -170 -22q-96 -29 -153 -68zM772 231l4 7q-2 -2 -4 -7z" />
<glyph unicode="r" horiz-adv-x="1024" d="M-4 1239q39 43 254 135q188 59 315 60q152 0 258 -78q84 -66 174 -209l19 -25l-27 15q-24 10 -49 10q-44 0 -88 -33q-86 -55 -172 -119l-49 -34q262 -8 280 -9q-59 -45 -71 -127q-4 -29 -4 -157q0 -184 24 -396q37 -260 98 -381q-104 121 -208 437q-100 309 -103 311 q-66 250 -252 250q27 29 185.5 133t158.5 108q0 72 -132 155t-210 83q-43 0 -133 -25q-98 -35 -135 -61q18 3 51 3t82 -3q80 -6 115 -43q-63 -8 -64 -199l-14 -743v-35q0 -184 20 -209q8 -33 76 -51l-377 -6q33 14 47.5 26.5t26.5 43.5q6 16 12 47q4 45 5 63v965v17 q0 68 -31 86q-15 9 -33 9q-23 0 -49 -14z" />
<glyph unicode="s" horiz-adv-x="968" d="M2 969q0 18 23 63q78 164 256 281t358 117q146 0 330 -76q-49 -78 -154 -228q-10 92 -117 142q-86 39 -192 39q-174 0 -297 -119l-10 -10q123 -4 256 -52q184 -61 221 -71q80 -16 246 -54q-135 -96 -248 -305q-90 -178 -191 -356q-123 -209 -245 -311q-37 -29 -76 -58 q-47 -31 -80 -41l-10 -4q-10 -2 -25 -4q150 102 303 416q154 305 154 485q0 16 -10 37q-117 109 -492 109z" />
<glyph unicode="t" horiz-adv-x="925" d="M4 1145q-4 42 -4 82q0 111 29 209h862q25 -23 30 -160q1 -16 1 -31q0 -120 -35 -227q-39 -121 -82 -197l-37 -61q33 96 47 164q19 60 19 143q0 55 -8 119q-20 162 -195 170q-11 1 -20 1q-78 0 -83 -87l2 -1161q-2 -88 99 -109h-353q99 29 99 108v11v852v57v236 q-6 61 -51 84l-25 2q-16 2 -30 2q-71 0 -117 -49l-25 -41q-39 -58 -46 -152q-2 -28 -2 -56q0 -62 11 -116q31 -123 49 -160l-18 19q-102 182 -117 348z" />
<glyph unicode="u" horiz-adv-x="1009" d="M4 895q0 152 43 266q18 49 41 96q25 63 25 97q0 55 -31 57l-27 19l424 -5q-113 -53 -207 -264q-67 -171 -67 -308q0 -26 2 -50q0 -238 123 -436q152 -244 366 -287v98l-2 1137q0 80 -73 112h192q81 1 121.5 1t40.5 -1q-43 -27 -49 -61.5t-4 -50.5l-11 -1020v-238 q-1 -4 -1 -7q0 -35 57 -48h-193q-125 0 -291 84q-219 109 -350 338q-129 219 -129 471z" />
<glyph unicode="v" horiz-adv-x="919" d="M4 1389q211 8 238 8q90 0 129 -6q-66 -25 -66 -56q0 -43 121 -461q117 -412 147 -475h2q6 0 9 4q57 90 123 267q73 192 73 274q0 131 -49 236q-59 127 -170 151q2 0 111 58q90 45 96 45q18 0 51 -52q80 -120 80 -280q0 -195 -166 -559q-135 -270 -270 -541 q-180 627 -205 707q-2 29 -18 75q-53 197 -82 316q-35 150 -80 227q-18 45 -74 62z" />
<glyph unicode="w" horiz-adv-x="1331" d="M10 1432h367q-59 -39 -60 -82q0 -16 113 -418q125 -446 137 -494l15 -16q27 16 77 143q51 121 52 154q0 16 -85 319t-96.5 323.5t-44 38t-32.5 30.5q215 6 239 6q94 0 133 -4q-67 -27 -67 -61q0 -42 121.5 -476t150.5 -500h2q6 0 10 6q47 79 115 273q61 174 61 297 q0 14 -1 28q-6 131 -68 228q-66 106 -178 135l112 59q92 45 101 45q16 0 51 -53q80 -125 80 -295q0 -197 -148 -573q-45 -111 -247 -563l-170 583q-14 -6 -19 -12q-27 -39 -78 -164q-70 -168 -71 -174q-35 -70 -101 -215q-10 27 -67 231q-49 174 -146 519q-41 160 -82 319 q-57 227 -94 295q-10 18 -39 37q-35 20 -43 31z" />
<glyph unicode="x" horiz-adv-x="1003" d="M0 1026q14 25 190 320v-11q0 -57 41 -85q45 -30 160 -126l242 -161q104 111 104 219q0 55 -34.5 95t-104.5 48q47 31 98 64q74 47 95 47q35 0 59 -68q18 -57 18 -102q0 -72 -39 -156q-20 -43 -73 -119q-41 -51 -62 -71q80 -57 114 -91t67.5 -72t70.5 -111.5t47 -196.5 q0 -111 -26 -193q-25 -61 -54 -119q-53 -78 -65 -90t-31.5 -30.5t-47.5 -46t-110 -89.5q209 266 209 453q0 178 -211 344q-59 45 -62 47t-48 27q-104 -102 -219 -230q-57 -53 -109 -121q-61 -111 -61 -163q0 -53 33.5 -94.5t67.5 -47.5t36 -4q-47 -31 -96 -59 q-76 -47 -93 -47q-37 0 -61 67q-20 53 -20 97q0 199 270 450q8 6 182 203q-231 180 -463 221z" />
<glyph unicode="y" horiz-adv-x="845" d="M2 1327q43 18 137 59q2 0 111 50q10 -47 121 -252q72 -133 147 -264q10 -20 29 -43q29 23 105 127q73 99 73 172v8q-4 61 -45 98t-111 47q47 29 99 62q74 45 92 45q35 0 59 -68q20 -53 21 -98q0 -100 -74 -219q-47 -76 -137 -170q-72 -76 -72 -80v-629q0 -70 9 -109.5 t71 -60.5q-14 -2 -148 -2q-92 0 -233 8q92 19 92 155v11q0 166 2 598q0 27 -108 234q-100 182 -138 239q-10 16 -32 53q-17 30 -53 30q-8 0 -17 -1z" />
<glyph unicode="z" horiz-adv-x="866" d="M2 -2q6 27 21 72q16 51 20 57t6 10q14 49 47 142q47 129 131 305q53 113 170 325l172 285l21 33q-76 10 -162 10q-137 0 -182 2q-125 0 -168 -72q2 88 115 316q15 -51 69 -51h8h553q-262 -412 -358 -584q-186 -326 -293 -617l-2 -14h485q15 -1 28 -1q49 0 71 18 q26 22 49 75l-4 -18q-4 -16 -107 -295z" />
<glyph unicode="|" horiz-adv-x="202" d="M41 -6l68 201l65 -211v1443l-65 -202l-68 196v-1427z" />
<glyph unicode="&#xad;" d="M-4 756l59 -80l410 2l-68 76z" />
<glyph unicode="&#x2000;" horiz-adv-x="880" />
<glyph unicode="&#x2001;" horiz-adv-x="1761" />
<glyph unicode="&#x2002;" horiz-adv-x="880" />
<glyph unicode="&#x2003;" horiz-adv-x="1761" />
<glyph unicode="&#x2004;" horiz-adv-x="587" />
<glyph unicode="&#x2005;" horiz-adv-x="440" />
<glyph unicode="&#x2006;" horiz-adv-x="293" />
<glyph unicode="&#x2007;" horiz-adv-x="293" />
<glyph unicode="&#x2008;" horiz-adv-x="220" />
<glyph unicode="&#x2009;" horiz-adv-x="352" />
<glyph unicode="&#x200a;" horiz-adv-x="97" />
<glyph unicode="&#x2010;" d="M-4 756l59 -80l410 2l-68 76z" />
<glyph unicode="&#x2011;" d="M-4 756l59 -80l410 2l-68 76z" />
<glyph unicode="&#x2012;" d="M-4 756l59 -80l410 2l-68 76z" />
<glyph unicode="&#x2013;" horiz-adv-x="1019" d="M-4 756l129 -80l895 2l-148 76z" />
<glyph unicode="&#x2014;" horiz-adv-x="2043" d="M-4 756l258 -80l1790 2l-297 76z" />
<glyph unicode="&#x202f;" horiz-adv-x="352" />
<glyph unicode="&#x205f;" horiz-adv-x="440" />
<glyph unicode="&#x25fc;" horiz-adv-x="1433" d="M0 0v1434h1434v-1434h-1434z" />
</font>
</defs>
</svg>
