<?xml version="1.0" standalone="no"?>
<!DOCTYPE svg PUBLIC "-//W3C//DTD SVG 1.1//EN" "http://www.w3.org/Graphics/SVG/1.1/DTD/svg11.dtd" >
<svg xmlns="http://www.w3.org/2000/svg" xmlns:xlink="http://www.w3.org/1999/xlink" version="1.1">
<metadata>
Created by FontForge 20170731 at Sun Oct 24 01:26:04 2004
 By Aleksey,,,
2004 Vic Fieger, Xaviera Comics
</metadata>
<defs>
<font id="Virgo01" horiz-adv-x="1139" >
  <font-face 
    font-family="Virgo 01"
    font-weight="400"
    font-stretch="normal"
    units-per-em="2048"
    panose-1="2 0 0 0 0 0 0 0 0 0"
    ascent="1638"
    descent="-410"
    x-height="1599"
    cap-height="1599"
    bbox="-1 -402 1604 1608"
    underline-thickness="150"
    underline-position="-442"
    unicode-range="U+0020-F005"
  />
<missing-glyph horiz-adv-x="1536" 
d="M256 0v1280h1024v-1280h-1024zM288 32h960v1216h-960v-1216z" />
    <glyph glyph-name=".notdef" horiz-adv-x="1536" 
d="M256 0v1280h1024v-1280h-1024zM288 32h960v1216h-960v-1216z" />
    <glyph glyph-name=".null" horiz-adv-x="0" 
 />
    <glyph glyph-name="nonmarkingreturn" horiz-adv-x="569" 
 />
    <glyph glyph-name="space" unicode=" " horiz-adv-x="999" 
 />
    <glyph glyph-name="space" unicode="&#xa0;" horiz-adv-x="999" 
 />
    <glyph glyph-name="exclam" unicode="!" horiz-adv-x="602" 
d="M0 602v802q0 197 200 198t200 -201v-800q-1 -199 -200 -199q-198 0 -200 200zM101.5 -170q-47.5 26 -74 73.5t-26.5 99.5q0 51 26 98.5t73.5 73.5t99.5 26t99 -26t73.5 -73.5t26.5 -98.5q0 -52 -27 -99.5t-74.5 -73.5t-97.5 -26q-51 0 -98.5 26z" />
    <glyph glyph-name="quotedbl" unicode="&#x22;" horiz-adv-x="1202" 
d="M798 1603q199 0 200 -200v-301q0 -202 -200 -201q-201 0 -199 198v303q2 200 199 201zM200 1603q199 0 200 -200v-301q0 -202 -200 -201q-200 0 -200 198v303q2 200 200 201z" />
    <glyph glyph-name="numbersign" unicode="#" 
 />
    <glyph glyph-name="dollar" unicode="$" 
 />
    <glyph glyph-name="percent" unicode="%" horiz-adv-x="1821" 
 />
    <glyph glyph-name="ampersand" unicode="&#x26;" horiz-adv-x="1366" 
 />
    <glyph glyph-name="quotesingle" unicode="'" horiz-adv-x="602" 
d="M200 1603q199 0 200 -200v-301q0 -202 -200 -201q-200 0 -200 198v303q2 200 200 201z" />
    <glyph glyph-name="parenleft" unicode="(" horiz-adv-x="682" 
 />
    <glyph glyph-name="parenright" unicode=")" horiz-adv-x="682" 
 />
    <glyph glyph-name="asterisk" unicode="*" horiz-adv-x="797" 
 />
    <glyph glyph-name="plus" unicode="+" horiz-adv-x="1196" 
 />
    <glyph glyph-name="comma" unicode="," horiz-adv-x="602" 
d="M200 400q199 0 200 -200v-300q0 -202 -200 -201q-200 0 -200 198v302q2 201 200 201z" />
    <glyph glyph-name="hyphen" unicode="-" horiz-adv-x="1000" 
d="M2 795q2 200 198 203h402q200 -2 203 -201q-4 -200 -202 -200h-402q-198 -1 -199 198z" />
    <glyph glyph-name="hyphen" unicode="&#xad;" horiz-adv-x="1000" 
d="M2 795q2 200 198 203h402q200 -2 203 -201q-4 -200 -202 -200h-402q-198 -1 -199 198z" />
    <glyph glyph-name="period" unicode="." horiz-adv-x="598" 
d="M200 399q50 0 97.5 -26t74.5 -73.5t27 -100.5q0 -51 -26.5 -98.5t-73.5 -73.5t-99 -26t-99.5 26t-73.5 73.5t-26 98.5q0 53 26.5 100.5t74 73.5t98.5 26z" />
    <glyph glyph-name="slash" unicode="/" horiz-adv-x="569" 
 />
    <glyph glyph-name="zero" unicode="0" horiz-adv-x="1801" 
d="M799 1599q202 0 393.5 -103.5t300 -296t108.5 -401.5q0 -208 -105.5 -398.5t-296.5 -296t-400 -105.5q-207 0 -398 105.5t-296.5 296t-105.5 398.5q0 209 107 401.5t298.5 296t394.5 103.5zM603.5 1149.5q-95.5 -51.5 -149.5 -148t-54 -201.5q0 -104 53 -199t148.5 -148
t199.5 -53t199.5 53t148.5 148t53 199q0 105 -54 201.5t-150 148t-197 51.5q-102 0 -197.5 -51.5zM799 996q50 0 97.5 -26t74.5 -73.5t27 -100.5q0 -51 -26.5 -98.5t-73.5 -73.5t-99 -26t-99.5 26t-73.5 73.5t-26 98.5q0 53 26.5 100.5t74 73.5t98.5 26z" />
    <glyph glyph-name="one" unicode="1" horiz-adv-x="1201" 
d="M0 202q0 201 200 201h103l-1 796q-198 -3 -196 199q2 193 198 199h201q196 2 198 -195l-1 -999h101q202 -3 202 -207q-1 -191 -188 -194l-617 -2q-199 4 -200 202z" />
    <glyph glyph-name="two" unicode="2" horiz-adv-x="1600" 
d="M1402 799q1 -200 -200 -199l-801 1q2 -201 299 -202l503 2q196 -1 199 -201q-1 -201 -200 -200h-499q-702 1 -703 800q1 199 200 200l801 -1q0 200 -296 199h-503q-198 5 -202 202q5 200 202 199h499q700 1 701 -800z" />
    <glyph glyph-name="three" unicode="3" horiz-adv-x="1600" 
d="M200 1599h700q199 0 350.5 -150t149.5 -350.5t-104 -296.5q106 -104 104.5 -301.5t-152 -349t-336.5 -151.5h-714q-198 -2 -198 200q0 197 200 197l698 4q101 0 101 99q0 101 -99 101l-303 1q-202 0 -201 211q0 189 200 187l304 -1q100 0 97 110q3 88 -97 89h-700
q-200 0 -200 201q0 198 200 200z" />
    <glyph glyph-name="four" unicode="4" horiz-adv-x="1600" 
d="M201 -1q-51 0 -98.5 25.5t-74.5 73.5t-27 101q0 52 193 441t219 436.5t74 74t100 26.5t99.5 -26.5t74 -74t29 -106.5t-265.5 -568h474l-1 1004q0 195 201 197q201 -2 203 -197l-2 -1605q0 -197 -201 -203q-200 7 -200 202v199h-797z" />
    <glyph glyph-name="five" unicode="5" horiz-adv-x="1600" 
d="M202 1599h998q197 1 202 -199q-4 -197 -202 -202h-801l-3 -202l806 4q199 -1 200 -200q-1 -799 -703 -800h-499q-199 -1 -200 200q3 200 199 201l503 -2q297 1 299 202l-801 -1q-201 -1 -200 199l-1 601q2 200 203 199z" />
    <glyph glyph-name="six" unicode="6" horiz-adv-x="1701" 
d="M500 1599h503q198 -1 199 -199q2 -199 -197 -200h-505q-101 -2 -101 -101l1 -100l500 1q202 -2 352.5 -152.5t148.5 -349t-149.5 -348.5t-349.5 -148l-402 -1q-199 0 -349 149t-151 352v603q0 193 150.5 344t349.5 150zM401 600v-99q1 -102 99 -102h404q101 2 101 101
q1 101 -103 100h-501z" />
    <glyph glyph-name="seven" unicode="7" horiz-adv-x="1601" 
d="M1203 1597q50 0 96 -24t73 -72t27 -100t-300.5 -653.5t-327 -648.5t-74 -73.5t-99.5 -26.5t-100 26.5t-74 73.5t-27 97q0 45 480 1002h-675q-201 3 -201 200q-1 200 199 199h1003z" />
    <glyph glyph-name="eight" unicode="8" horiz-adv-x="1600" 
d="M898 401q101 0 101 99q0 101 -99 101h-402q-101 0 -101 -100q3 -104 101 -102zM498 1599h402q199 0 350.5 -150t149.5 -350.5t-104 -296.5q106 -104 104.5 -301.5t-152 -349t-336.5 -151.5h-413q-198 -2 -348.5 149.5t-150.5 350.5t101 299q-100 99 -101 302
q0 196 150.5 344t347.5 154zM900 999q100 0 97 110q3 88 -97 89h-402q-100 0 -100 -99q0 -100 100 -100h402z" />
    <glyph glyph-name="nine" unicode="9" horiz-adv-x="1701" 
d="M901 1h-503q-198 1 -199 198q-2 200 197 201h505q101 2 101 101l-1 99h-500q-202 2 -352 152.5t-148.5 349t149 349t349.5 147.5l402 1q199 0 349.5 -149t150.5 -352v-604q0 -193 -150.5 -343.5t-349.5 -149.5zM1000 1000v99q0 102 -98 102h-405q-101 -2 -100 -101
q-1 -101 102 -100h501z" />
    <glyph glyph-name="colon" unicode=":" horiz-adv-x="598" 
d="M200 998q50 0 97.5 -26t74.5 -73.5t27 -100.5q0 -51 -26.5 -98.5t-73.5 -73.5t-99 -26t-99.5 26t-73.5 73.5t-26 98.5q0 53 26.5 100.5t74 73.5t98.5 26zM200 399q50 0 97.5 -26t74.5 -73.5t27 -100.5q0 -51 -26.5 -98.5t-73.5 -73.5t-99 -26t-99.5 26t-73.5 73.5
t-26 98.5q0 53 26.5 100.5t74 73.5t98.5 26z" />
    <glyph glyph-name="semicolon" unicode=";" horiz-adv-x="602" 
d="M200 400q199 0 200 -200v-300q0 -202 -200 -201q-200 0 -200 198v302q2 201 200 201zM200 998q50 0 97.5 -26t74.5 -73.5t27 -100.5q0 -51 -26.5 -98.5t-73.5 -73.5t-99 -26t-99.5 26t-73.5 73.5t-26 98.5q0 53 26.5 100.5t74 73.5t98.5 26z" />
    <glyph glyph-name="semicolon" unicode="&#x37e;" horiz-adv-x="602" 
d="M200 400q199 0 200 -200v-300q0 -202 -200 -201q-200 0 -200 198v302q2 201 200 201zM200 998q50 0 97.5 -26t74.5 -73.5t27 -100.5q0 -51 -26.5 -98.5t-73.5 -73.5t-99 -26t-99.5 26t-73.5 73.5t-26 98.5q0 53 26.5 100.5t74 73.5t98.5 26z" />
    <glyph glyph-name="less" unicode="&#x3c;" horiz-adv-x="1196" 
 />
    <glyph glyph-name="equal" unicode="=" horiz-adv-x="1196" 
 />
    <glyph glyph-name="greater" unicode="&#x3e;" horiz-adv-x="1196" 
 />
    <glyph glyph-name="question" unicode="?" horiz-adv-x="1398" 
d="M1198 1097q1 -498 -506 -496q-95 0 -100 -105q0 -200 -198 -196q-202 -3 -200 202q1 199 151 348.5t350 145.5q102 3 102 103t-99 99h-496q-198 5 -202 202q5 200 202 199h295q700 1 701 -502zM399 197q50 0 97.5 -26t74.5 -73.5t27 -99.5q0 -51 -26.5 -98.5t-73.5 -73.5
t-99 -26t-99.5 26t-73.5 73.5t-26 98.5q0 52 26.5 99.5t74 73.5t98.5 26z" />
    <glyph glyph-name="at" unicode="@" horiz-adv-x="2079" 
 />
    <glyph glyph-name="A" unicode="A" horiz-adv-x="1799" 
d="M201 -1q-51 0 -98.5 25.5t-74.5 73.5t-27 101q0 52 299 653t325 648.5t74 74t100 26.5t99.5 -26.5t74 -74t327 -648.5t300.5 -653q0 -53 -27 -101t-75 -73.5t-98 -25.5h-1199zM1073 402l-274 563l-275 -563h549z" />
    <glyph glyph-name="B" unicode="B" horiz-adv-x="1600" 
d="M200 1599h700q199 0 350.5 -150t149.5 -350.5t-104 -296.5q106 -104 104.5 -301.5t-152 -349t-336.5 -151.5h-714q-198 -2 -198 200v1199q0 198 200 200zM401 1198v-797h497q101 0 101 99q0 101 -99 101l-99 1q-202 0 -201 211q0 189 200 187l100 -1q100 0 97 110
q3 88 -97 89h-499z" />
    <glyph glyph-name="C" unicode="C" horiz-adv-x="1599" 
d="M799 1599l401 -1q199 -3 200 -198q-1 -202 -201 -201l-399 -1q-399 3 -399 -399q0 -398 400 -400h398q200 -4 200 -198q0 -200 -198 -201h-400q-800 0 -801 800q0 800 799 799z" />
    <glyph glyph-name="D" unicode="D" horiz-adv-x="1801" 
d="M200 1599h600q801 -1 801 -800q-1 -797 -780 -799h-621q-200 -2 -200 200v1199q0 198 200 200zM401 1198v-797h401q398 -3 396 401q2 394 -397 396h-400z" />
    <glyph glyph-name="E" unicode="E" horiz-adv-x="1599" 
d="M200 1601l1012 -2q187 -3 188 -194q0 -204 -202 -207h-797v-797h795q202 -1 202 -202q-1 -197 -198 -199h-1000q-199 0 -200 194v1205q1 198 200 202zM497 795q2 200 198 203h402q200 -2 203 -201q-4 -200 -202 -200h-402q-198 -1 -199 198z" />
    <glyph glyph-name="F" unicode="F" horiz-adv-x="1599" 
d="M200 1601l1012 -2q187 -3 188 -194q0 -204 -202 -207h-797v-198h800q198 -3 199 -200q-3 -200 -199 -200l-800 -1v-400q-1 -197 -201 -199q-199 0 -200 194v1205q1 198 200 202z" />
    <glyph glyph-name="G" unicode="G" horiz-adv-x="1801" 
d="M799 1599l402 1q196 -1 198 -202q-2 -198 -197 -195l-401 -2q-102 0 -197.5 -51.5t-149.5 -148t-54 -201.5q0 -104 53 -199t148.5 -148t199.5 -53t210.5 49.5t154.5 153.5h-167q-202 -1 -203 196q0 200 200 203l402 -2q202 -4 203 -202q0 -208 -105.5 -398.5t-296.5 -296
t-400 -105.5q-207 0 -398 105.5t-296.5 296t-105.5 398.5q0 209 107 401.5t298.5 296t394.5 103.5z" />
    <glyph glyph-name="H" unicode="H" horiz-adv-x="1601" 
d="M1400 1401l-1 -1201q0 -202 -201 -200q-200 -1 -199 198v403l-294 -1q-205 0 -208 199q1 201 208 200l294 3v399q0 202 201 202q199 0 200 -202zM401 1400l-1 -1200q-1 -198 -201 -200q-200 1 -199 199v1200q0 200 200 202q201 -1 201 -201z" />
    <glyph glyph-name="I" unicode="I" horiz-adv-x="598" 
d="M198 1599q200 -2 203 -198v-1202q-2 -200 -201 -203q-200 4 -200 202v1202q-1 198 198 199z" />
    <glyph glyph-name="J" unicode="J" horiz-adv-x="896" 
d="M702 1399v-904q-1 -294 -100 -394.5t-398 -100.5q-199 2 -200 199q0 201 200 202q98 -2 96 97l-1 907q2 191 203 196q199 -4 200 -202z" />
    <glyph glyph-name="K" unicode="K" horiz-adv-x="1601" 
d="M1350.5 1552.5q52.5 -50.5 49.5 -151.5q0 -106 -106 -199l-366 -401l367 -398q113 -105 104 -203q5 -101 -49.5 -151.5t-151.5 -48.5q-103 -1 -154.5 51.5t-247 288t-246 295t-53.5 164.5q1 97 52.5 161t250.5 304.5t249.5 289.5t150.5 49q98 0 150.5 -50.5zM401 1400
l-1 -1200q-1 -198 -201 -200q-200 1 -199 199v1200q0 200 200 202q201 -1 201 -201z" />
    <glyph glyph-name="L" unicode="L" horiz-adv-x="1599" 
d="M200 1601q201 -5 203 -196l-2 -1004h795q202 -1 202 -202q-1 -197 -198 -199h-1000q-199 0 -200 194v1205q1 198 200 202z" />
    <glyph glyph-name="M" unicode="M" horiz-adv-x="1801" 
d="M199 1599q101 -2 149 -51t453 -452q400 400 450 451.5t149 51.5q199 -1 200 -199l1 -1200q0 -199 -202 -202q-198 1 -201 202v707q-201 -207 -250.5 -257.5t-148.5 -50.5q-96 0 -147.5 52t-251.5 252v-703q-1 -198 -200 -200q-201 -1 -200 200v1200q0 199 199 199z" />
    <glyph glyph-name="N" unicode="N" horiz-adv-x="1600" 
d="M228 1597q109 -8 174 -82l599 -764v671q4 172 170 175q225 -3 227 -179l2 -1244q-2 -172 -229 -174q-103 1 -167 82l-602 762v-670q-1 -173 -174 -174q-226 -1 -227 176v1247q-1 173 227 174z" />
    <glyph glyph-name="O" unicode="O" horiz-adv-x="1801" 
d="M799 1599q202 0 393.5 -103.5t300 -296t108.5 -401.5q0 -208 -105.5 -398.5t-296.5 -296t-400 -105.5q-207 0 -398 105.5t-296.5 296t-105.5 398.5q0 209 107 401.5t298.5 296t394.5 103.5zM603.5 1149.5q-95.5 -51.5 -149.5 -148t-54 -201.5q0 -104 53 -199t148.5 -148
t199.5 -53t199.5 53t148.5 148t53 199q0 105 -54 201.5t-150 148t-197 51.5q-102 0 -197.5 -51.5z" />
    <glyph glyph-name="P" unicode="P" horiz-adv-x="1601" 
d="M200 1599h702q193 0 345.5 -148t151.5 -350q0 -207 -149.5 -354t-354.5 -147l-197 -2q-198 -1 -199 202q0 202 202 201l142 1q158 -2 156 97q0 99 -157 99h-145h-296v-998q1 -200 -201 -200q-201 -1 -200 198v1203q1 196 200 198z" />
    <glyph glyph-name="Q" unicode="Q" horiz-adv-x="1801" 
d="M799 1599q202 0 393.5 -103.5t300 -296t108.5 -401.5q0 -208 -161 -399q157 1 164 -200q0 -201 -202 -201h-603q-207 0 -398 105.5t-296.5 296t-105.5 398.5q0 209 107 401.5t298.5 296t394.5 103.5zM603.5 1149.5q-95.5 -51.5 -149.5 -148t-54 -201.5q0 -104 53 -199
t148.5 -148t199.5 -53t199.5 53t148.5 148t53 199q0 105 -54 201.5t-150 148t-197 51.5q-102 0 -197.5 -51.5z" />
    <glyph glyph-name="R" unicode="R" horiz-adv-x="1601" 
d="M200 1599h702q196 0 347 -151.5t150 -346.5q0 -207 -75.5 -349.5t-227.5 -147.5l247 -250q59 -59 59 -155q-3 -200 -200 -199q-102 -3 -201 98l-400 496q-101 107 -102 206q0 202 202 201l142 1q158 -2 156 97q0 99 -157 99h-145h-296v-998q1 -200 -201 -200
q-201 -1 -200 198v1203q1 196 200 198z" />
    <glyph glyph-name="S" unicode="S" horiz-adv-x="1598" 
d="M1403 1399q0 -200 -193 -201l-609 1q-202 -2 -204 -102q3 -95 205 -94h197q603 -2 606 -507q0 -491 -605 -494h-601q-200 1 -199 196q1 199 197 197l603 3q202 1 202 103t-204 101h-197q-601 1 -601 495q-4 501 601 502h602q198 -1 200 -200z" />
    <glyph glyph-name="T" unicode="T" horiz-adv-x="1599" 
d="M200 1601l1012 -2q187 -3 188 -194q0 -204 -202 -207h-299l1 -999q-2 -197 -201 -199q-200 0 -200 194l1 1004h-300q-200 0 -200 201q1 198 200 202z" />
    <glyph glyph-name="U" unicode="U" horiz-adv-x="1600" 
d="M204 1601q200 0 201 -193l-1 -609q2 -400 304 -402q300 3 299 403v601q2 199 201 202q199 -6 200 -203v-601q-1 -799 -700 -799q-703 -5 -704 799v602q1 198 200 200z" />
    <glyph glyph-name="V" unicode="V" horiz-adv-x="1799" 
d="M1400 1601q50 0 98 -26t75 -74t27 -100t-300.5 -653.5t-327 -648.5t-74 -73.5t-99.5 -26.5t-100 26.5t-74 73.5t-325 648.5t-299 653.5t27 100t74.5 74t98.5 26q50 0 98 -26t75 -74t425 -867q401 819 428 867t74.5 74t98.5 26z" />
    <glyph glyph-name="W" unicode="W" horiz-adv-x="1801" 
d="M0 197v1200q-1 202 200 200q199 -2 200 -200v-703q200 200 251.5 252t147.5 52q99 0 148.5 -50.5t250.5 -257.5v707q3 201 201 202q202 -3 202 -202l-1 -1200q-1 -198 -200 -199q-99 0 -149 51.5t-450 451.5q-405 -403 -453 -452t-149 -51q-199 0 -199 199z" />
    <glyph glyph-name="X" unicode="X" horiz-adv-x="1601" 
d="M201 1603q100 0 150.5 -49t355.5 -418q310 375 360.5 423.5t150.5 48.5q98 0 150.5 -50.5t49.5 -151.5q0 -106 -106 -198l-340 -402l341 -397q113 -106 104 -204q5 -101 -49.5 -151.5t-151.5 -48.5q-103 -1 -154.5 52t-349.5 414q-303 -367 -354.5 -419.5t-154.5 -51.5
q-97 -2 -151.5 48.5t-49.5 151.5q-9 98 104 203l356 398l-355 401q-106 93 -106 199q-3 101 49.5 151.5t150.5 50.5z" />
    <glyph glyph-name="Y" unicode="Y" horiz-adv-x="1601" 
d="M201 1603q100 0 150.5 -49t355.5 -418q310 375 360.5 423.5t150.5 48.5q98 0 150.5 -50.5t49.5 -151.5q0 -106 -106 -198l-409 -478l-1 -531q-4 -196 -201 -199q-198 -5 -198 205l-2 527l-394 470q-106 93 -106 199q-3 101 49.5 151.5t150.5 50.5z" />
    <glyph glyph-name="Z" unicode="Z" horiz-adv-x="1600" 
d="M1401 1373q-8 -109 -82 -174l-675 -800h582q172 -4 175 -170q-3 -225 -179 -227l-1047 -2q-172 2 -175 229q2 103 83 167l679 803h-587q-173 1 -175 174q-1 226 177 227h1050q173 1 174 -227z" />
    <glyph glyph-name="bracketleft" unicode="[" horiz-adv-x="569" 
 />
    <glyph glyph-name="backslash" unicode="\" horiz-adv-x="569" 
 />
    <glyph glyph-name="bracketright" unicode="]" horiz-adv-x="569" 
 />
    <glyph glyph-name="asciicircum" unicode="^" horiz-adv-x="961" 
 />
    <glyph glyph-name="underscore" unicode="_" 
 />
    <glyph glyph-name="grave" unicode="`" horiz-adv-x="682" 
 />
    <glyph glyph-name="a" unicode="a" horiz-adv-x="1799" 
d="M201 -1q-51 0 -98.5 25.5t-74.5 73.5t-27 101q0 52 299 653t325 648.5t74 74t100 26.5t99.5 -26.5t74 -74t327 -648.5t300.5 -653q0 -53 -27 -101t-75 -73.5t-98 -25.5h-1199zM1073 402l-274 563l-275 -563h549z" />
    <glyph glyph-name="b" unicode="b" horiz-adv-x="1600" 
d="M200 1599h700q199 0 350.5 -150t149.5 -350.5t-104 -296.5q106 -104 104.5 -301.5t-152 -349t-336.5 -151.5h-714q-198 -2 -198 200v1199q0 198 200 200zM401 1198v-797h497q101 0 101 99q0 101 -99 101l-99 1q-202 0 -201 211q0 189 200 187l100 -1q100 0 97 110
q3 88 -97 89h-499z" />
    <glyph glyph-name="c" unicode="c" horiz-adv-x="1599" 
d="M799 1599l401 -1q199 -3 200 -198q-1 -202 -201 -201l-399 -1q-399 3 -399 -399q0 -398 400 -400h398q200 -4 200 -198q0 -200 -198 -201h-400q-800 0 -801 800q0 800 799 799z" />
    <glyph glyph-name="d" unicode="d" horiz-adv-x="1801" 
d="M200 1599h600q801 -1 801 -800q-1 -797 -780 -799h-621q-200 -2 -200 200v1199q0 198 200 200zM401 1198v-797h401q398 -3 396 401q2 394 -397 396h-400z" />
    <glyph glyph-name="e" unicode="e" horiz-adv-x="1599" 
d="M200 1601l1012 -2q187 -3 188 -194q0 -204 -202 -207h-797v-797h795q202 -1 202 -202q-1 -197 -198 -199h-1000q-199 0 -200 194v1205q1 198 200 202zM497 795q2 200 198 203h402q200 -2 203 -201q-4 -200 -202 -200h-402q-198 -1 -199 198z" />
    <glyph glyph-name="f" unicode="f" horiz-adv-x="1599" 
d="M200 1601l1012 -2q187 -3 188 -194q0 -204 -202 -207h-797v-198h800q198 -3 199 -200q-3 -200 -199 -200l-800 -1v-400q-1 -197 -201 -199q-199 0 -200 194v1205q1 198 200 202z" />
    <glyph glyph-name="g" unicode="g" horiz-adv-x="1801" 
d="M799 1599l402 1q196 -1 198 -202q-2 -198 -197 -195l-401 -2q-102 0 -197.5 -51.5t-149.5 -148t-54 -201.5q0 -104 53 -199t148.5 -148t199.5 -53t210.5 49.5t154.5 153.5h-167q-202 -1 -203 196q0 200 200 203l402 -2q202 -4 203 -202q0 -208 -105.5 -398.5t-296.5 -296
t-400 -105.5q-207 0 -398 105.5t-296.5 296t-105.5 398.5q0 209 107 401.5t298.5 296t394.5 103.5z" />
    <glyph glyph-name="h" unicode="h" horiz-adv-x="1601" 
d="M1400 1401l-1 -1201q0 -202 -201 -200q-200 -1 -199 198v403l-294 -1q-205 0 -208 199q1 201 208 200l294 3v399q0 202 201 202q199 0 200 -202zM401 1400l-1 -1200q-1 -198 -201 -200q-200 1 -199 199v1200q0 200 200 202q201 -1 201 -201z" />
    <glyph glyph-name="i" unicode="i" horiz-adv-x="598" 
d="M198 1599q200 -2 203 -198v-1202q-2 -200 -201 -203q-200 4 -200 202v1202q-1 198 198 199z" />
    <glyph glyph-name="j" unicode="j" horiz-adv-x="896" 
d="M702 1399v-904q-1 -294 -100 -394.5t-398 -100.5q-199 2 -200 199q0 201 200 202q98 -2 96 97l-1 907q2 191 203 196q199 -4 200 -202z" />
    <glyph glyph-name="k" unicode="k" horiz-adv-x="1601" 
d="M1350.5 1552.5q52.5 -50.5 49.5 -151.5q0 -106 -106 -199l-366 -401l367 -398q113 -105 104 -203q5 -101 -49.5 -151.5t-151.5 -48.5q-103 -1 -154.5 51.5t-247 288t-246 295t-53.5 164.5q1 97 52.5 161t250.5 304.5t249.5 289.5t150.5 49q98 0 150.5 -50.5zM401 1400
l-1 -1200q-1 -198 -201 -200q-200 1 -199 199v1200q0 200 200 202q201 -1 201 -201z" />
    <glyph glyph-name="l" unicode="l" horiz-adv-x="1599" 
d="M200 1601q201 -5 203 -196l-2 -1004h795q202 -1 202 -202q-1 -197 -198 -199h-1000q-199 0 -200 194v1205q1 198 200 202z" />
    <glyph glyph-name="m" unicode="m" horiz-adv-x="1801" 
d="M199 1599q101 -2 149 -51t453 -452q400 400 450 451.5t149 51.5q199 -1 200 -199l1 -1200q0 -199 -202 -202q-198 1 -201 202v707q-201 -207 -250.5 -257.5t-148.5 -50.5q-96 0 -147.5 52t-251.5 252v-703q-1 -198 -200 -200q-201 -1 -200 200v1200q0 199 199 199z" />
    <glyph glyph-name="n" unicode="n" horiz-adv-x="1600" 
d="M228 1597q109 -8 174 -82l599 -764v671q4 172 170 175q225 -3 227 -179l2 -1244q-2 -172 -229 -174q-103 1 -167 82l-602 762v-670q-1 -173 -174 -174q-226 -1 -227 176v1247q-1 173 227 174z" />
    <glyph glyph-name="o" unicode="o" horiz-adv-x="1801" 
d="M799 1599q202 0 393.5 -103.5t300 -296t108.5 -401.5q0 -208 -105.5 -398.5t-296.5 -296t-400 -105.5q-207 0 -398 105.5t-296.5 296t-105.5 398.5q0 209 107 401.5t298.5 296t394.5 103.5zM603.5 1149.5q-95.5 -51.5 -149.5 -148t-54 -201.5q0 -104 53 -199t148.5 -148
t199.5 -53t199.5 53t148.5 148t53 199q0 105 -54 201.5t-150 148t-197 51.5q-102 0 -197.5 -51.5z" />
    <glyph glyph-name="p" unicode="p" horiz-adv-x="1601" 
d="M200 1599h702q193 0 345.5 -148t151.5 -350q0 -207 -149.5 -354t-354.5 -147l-197 -2q-198 -1 -199 202q0 202 202 201l142 1q158 -2 156 97q0 99 -157 99h-145h-296v-998q1 -200 -201 -200q-201 -1 -200 198v1203q1 196 200 198z" />
    <glyph glyph-name="q" unicode="q" horiz-adv-x="1801" 
d="M799 1599q202 0 393.5 -103.5t300 -296t108.5 -401.5q0 -208 -161 -399q157 1 164 -200q0 -201 -202 -201h-603q-207 0 -398 105.5t-296.5 296t-105.5 398.5q0 209 107 401.5t298.5 296t394.5 103.5zM603.5 1149.5q-95.5 -51.5 -149.5 -148t-54 -201.5q0 -104 53 -199
t148.5 -148t199.5 -53t199.5 53t148.5 148t53 199q0 105 -54 201.5t-150 148t-197 51.5q-102 0 -197.5 -51.5z" />
    <glyph glyph-name="r" unicode="r" horiz-adv-x="1601" 
d="M200 1599h702q196 0 347 -151.5t150 -346.5q0 -207 -75.5 -349.5t-227.5 -147.5l247 -250q59 -59 59 -155q-3 -200 -200 -199q-102 -3 -201 98l-400 496q-101 107 -102 206q0 202 202 201l142 1q158 -2 156 97q0 99 -157 99h-145h-296v-998q1 -200 -201 -200
q-201 -1 -200 198v1203q1 196 200 198z" />
    <glyph glyph-name="s" unicode="s" horiz-adv-x="1598" 
d="M1403 1399q0 -200 -193 -201l-609 1q-202 -2 -204 -102q3 -95 205 -94h197q603 -2 606 -507q0 -491 -605 -494h-601q-200 1 -199 196q1 199 197 197l603 3q202 1 202 103t-204 101h-197q-601 1 -601 495q-4 501 601 502h602q198 -1 200 -200z" />
    <glyph glyph-name="t" unicode="t" horiz-adv-x="1599" 
d="M200 1601l1012 -2q187 -3 188 -194q0 -204 -202 -207h-299l1 -999q-2 -197 -201 -199q-200 0 -200 194l1 1004h-300q-200 0 -200 201q1 198 200 202z" />
    <glyph glyph-name="u" unicode="u" horiz-adv-x="1600" 
d="M204 1601q200 0 201 -193l-1 -609q2 -400 304 -402q300 3 299 403v601q2 199 201 202q199 -6 200 -203v-601q-1 -799 -700 -799q-703 -5 -704 799v602q1 198 200 200z" />
    <glyph glyph-name="v" unicode="v" horiz-adv-x="1799" 
d="M1400 1601q50 0 98 -26t75 -74t27 -100t-300.5 -653.5t-327 -648.5t-74 -73.5t-99.5 -26.5t-100 26.5t-74 73.5t-325 648.5t-299 653.5t27 100t74.5 74t98.5 26q50 0 98 -26t75 -74t425 -867q401 819 428 867t74.5 74t98.5 26z" />
    <glyph glyph-name="w" unicode="w" horiz-adv-x="1801" 
d="M0 197v1200q-1 202 200 200q199 -2 200 -200v-703q200 200 251.5 252t147.5 52q99 0 148.5 -50.5t250.5 -257.5v707q3 201 201 202q202 -3 202 -202l-1 -1200q-1 -198 -200 -199q-99 0 -149 51.5t-450 451.5q-405 -403 -453 -452t-149 -51q-199 0 -199 199z" />
    <glyph glyph-name="x" unicode="x" horiz-adv-x="1601" 
d="M201 1603q100 0 150.5 -49t355.5 -418q310 375 360.5 423.5t150.5 48.5q98 0 150.5 -50.5t49.5 -151.5q0 -106 -106 -198l-340 -402l341 -397q113 -106 104 -204q5 -101 -49.5 -151.5t-151.5 -48.5q-103 -1 -154.5 52t-349.5 414q-303 -367 -354.5 -419.5t-154.5 -51.5
q-97 -2 -151.5 48.5t-49.5 151.5q-9 98 104 203l356 398l-355 401q-106 93 -106 199q-3 101 49.5 151.5t150.5 50.5z" />
    <glyph glyph-name="y" unicode="y" horiz-adv-x="1601" 
d="M201 1603q100 0 150.5 -49t355.5 -418q310 375 360.5 423.5t150.5 48.5q98 0 150.5 -50.5t49.5 -151.5q0 -106 -106 -198l-409 -478l-1 -531q-4 -196 -201 -199q-198 -5 -198 205l-2 527l-394 470q-106 93 -106 199q-3 101 49.5 151.5t150.5 50.5z" />
    <glyph glyph-name="z" unicode="z" horiz-adv-x="1600" 
d="M1401 1373q-8 -109 -82 -174l-675 -800h582q172 -4 175 -170q-3 -225 -179 -227l-1047 -2q-172 2 -175 229q2 103 83 167l679 803h-587q-173 1 -175 174q-1 226 177 227h1050q173 1 174 -227z" />
    <glyph glyph-name="braceleft" unicode="{" horiz-adv-x="684" 
 />
    <glyph glyph-name="bar" unicode="|" horiz-adv-x="532" 
 />
    <glyph glyph-name="braceright" unicode="}" horiz-adv-x="684" 
 />
    <glyph glyph-name="asciitilde" unicode="~" horiz-adv-x="1196" 
 />
    <glyph glyph-name="exclamdown" unicode="&#xa1;" horiz-adv-x="682" 
 />
    <glyph glyph-name="cent" unicode="&#xa2;" 
 />
    <glyph glyph-name="sterling" unicode="&#xa3;" 
 />
    <glyph glyph-name="yen" unicode="&#xa5;" 
 />
    <glyph glyph-name="brokenbar" unicode="&#xa6;" horiz-adv-x="532" 
 />
    <glyph glyph-name="section" unicode="&#xa7;" 
 />
    <glyph glyph-name="dieresis" unicode="&#xa8;" horiz-adv-x="682" 
 />
    <glyph glyph-name="copyright" unicode="&#xa9;" horiz-adv-x="1509" 
 />
    <glyph glyph-name="ordfeminine" unicode="&#xaa;" horiz-adv-x="758" 
 />
    <glyph glyph-name="guillemotleft" unicode="&#xab;" 
 />
    <glyph glyph-name="logicalnot" unicode="&#xac;" horiz-adv-x="1196" 
 />
    <glyph glyph-name="registered" unicode="&#xae;" horiz-adv-x="1509" 
 />
    <glyph glyph-name="overscore" unicode="&#xaf;" horiz-adv-x="1131" 
 />
    <glyph glyph-name="degree" unicode="&#xb0;" horiz-adv-x="819" 
 />
    <glyph glyph-name="plusminus" unicode="&#xb1;" horiz-adv-x="1124" 
 />
    <glyph glyph-name="twosuperior" unicode="&#xb2;" horiz-adv-x="682" 
 />
    <glyph glyph-name="threesuperior" unicode="&#xb3;" horiz-adv-x="682" 
 />
    <glyph glyph-name="acute" unicode="&#xb4;" horiz-adv-x="682" 
 />
    <glyph glyph-name="mu1" unicode="&#xb5;" horiz-adv-x="1180" 
 />
    <glyph glyph-name="paragraph" unicode="&#xb6;" horiz-adv-x="1100" 
 />
    <glyph glyph-name="periodcentered" unicode="&#xb7;" horiz-adv-x="569" 
 />
    <glyph glyph-name="periodcentered" unicode="&#x2219;" horiz-adv-x="569" 
 />
    <glyph glyph-name="cedilla" unicode="&#xb8;" horiz-adv-x="682" 
 />
    <glyph glyph-name="onesuperior" unicode="&#xb9;" horiz-adv-x="682" 
 />
    <glyph glyph-name="ordmasculine" unicode="&#xba;" horiz-adv-x="748" 
 />
    <glyph glyph-name="guillemotright" unicode="&#xbb;" 
 />
    <glyph glyph-name="onequarter" unicode="&#xbc;" horiz-adv-x="1708" 
 />
    <glyph glyph-name="onehalf" unicode="&#xbd;" horiz-adv-x="1708" 
 />
    <glyph glyph-name="threequarters" unicode="&#xbe;" horiz-adv-x="1708" 
 />
    <glyph glyph-name="questiondown" unicode="&#xbf;" horiz-adv-x="1251" 
 />
    <glyph glyph-name="Agrave" unicode="&#xc0;" horiz-adv-x="1366" 
 />
    <glyph glyph-name="Aacute" unicode="&#xc1;" horiz-adv-x="1366" 
 />
    <glyph glyph-name="Acircumflex" unicode="&#xc2;" horiz-adv-x="1366" 
 />
    <glyph glyph-name="Atilde" unicode="&#xc3;" horiz-adv-x="1366" 
 />
    <glyph glyph-name="Adieresis" unicode="&#xc4;" horiz-adv-x="1366" 
 />
    <glyph glyph-name="Aring" unicode="&#xc5;" horiz-adv-x="1366" 
 />
    <glyph glyph-name="AE" unicode="&#xc6;" horiz-adv-x="2048" 
 />
    <glyph glyph-name="Ccedilla" unicode="&#xc7;" horiz-adv-x="1479" 
 />
    <glyph glyph-name="Egrave" unicode="&#xc8;" horiz-adv-x="1366" 
 />
    <glyph glyph-name="Eacute" unicode="&#xc9;" horiz-adv-x="1366" 
 />
    <glyph glyph-name="Ecircumflex" unicode="&#xca;" horiz-adv-x="1366" 
 />
    <glyph glyph-name="Edieresis" unicode="&#xcb;" horiz-adv-x="1366" 
 />
    <glyph glyph-name="Igrave" unicode="&#xcc;" horiz-adv-x="569" 
 />
    <glyph glyph-name="Iacute" unicode="&#xcd;" horiz-adv-x="569" 
 />
    <glyph glyph-name="Icircumflex" unicode="&#xce;" horiz-adv-x="569" 
 />
    <glyph glyph-name="Idieresis" unicode="&#xcf;" horiz-adv-x="569" 
 />
    <glyph glyph-name="Eth" unicode="&#xd0;" horiz-adv-x="1479" 
 />
    <glyph glyph-name="Ntilde" unicode="&#xd1;" horiz-adv-x="1479" 
 />
    <glyph glyph-name="Ograve" unicode="&#xd2;" horiz-adv-x="1593" 
 />
    <glyph glyph-name="Oacute" unicode="&#xd3;" horiz-adv-x="1593" 
 />
    <glyph glyph-name="Ocircumflex" unicode="&#xd4;" horiz-adv-x="1593" 
 />
    <glyph glyph-name="Otilde" unicode="&#xd5;" horiz-adv-x="1593" 
 />
    <glyph glyph-name="Odieresis" unicode="&#xd6;" horiz-adv-x="1593" 
 />
    <glyph glyph-name="multiply" unicode="&#xd7;" horiz-adv-x="1196" 
 />
    <glyph glyph-name="Oslash" unicode="&#xd8;" horiz-adv-x="1593" 
 />
    <glyph glyph-name="Ugrave" unicode="&#xd9;" horiz-adv-x="1479" 
 />
    <glyph glyph-name="Uacute" unicode="&#xda;" horiz-adv-x="1479" 
 />
    <glyph glyph-name="Ucircumflex" unicode="&#xdb;" horiz-adv-x="1479" 
 />
    <glyph glyph-name="Udieresis" unicode="&#xdc;" horiz-adv-x="1479" 
 />
    <glyph glyph-name="Yacute" unicode="&#xdd;" horiz-adv-x="1366" 
 />
    <glyph glyph-name="Thorn" unicode="&#xde;" horiz-adv-x="1366" 
 />
    <glyph glyph-name="germandbls" unicode="&#xdf;" horiz-adv-x="1251" 
 />
    <glyph glyph-name="agrave" unicode="&#xe0;" 
 />
    <glyph glyph-name="aacute" unicode="&#xe1;" 
 />
    <glyph glyph-name="acircumflex" unicode="&#xe2;" 
 />
    <glyph glyph-name="atilde" unicode="&#xe3;" 
 />
    <glyph glyph-name="adieresis" unicode="&#xe4;" 
 />
    <glyph glyph-name="aring" unicode="&#xe5;" 
 />
    <glyph glyph-name="ae" unicode="&#xe6;" horiz-adv-x="1821" 
 />
    <glyph glyph-name="ccedilla" unicode="&#xe7;" horiz-adv-x="1024" 
 />
    <glyph glyph-name="egrave" unicode="&#xe8;" 
 />
    <glyph glyph-name="eacute" unicode="&#xe9;" 
 />
    <glyph glyph-name="ecircumflex" unicode="&#xea;" 
 />
    <glyph glyph-name="edieresis" unicode="&#xeb;" 
 />
    <glyph glyph-name="igrave" unicode="&#xec;" horiz-adv-x="569" 
 />
    <glyph glyph-name="iacute" unicode="&#xed;" horiz-adv-x="569" 
 />
    <glyph glyph-name="icircumflex" unicode="&#xee;" horiz-adv-x="569" 
 />
    <glyph glyph-name="idieresis" unicode="&#xef;" horiz-adv-x="569" 
 />
    <glyph glyph-name="eth" unicode="&#xf0;" 
 />
    <glyph glyph-name="ntilde" unicode="&#xf1;" 
 />
    <glyph glyph-name="ograve" unicode="&#xf2;" 
 />
    <glyph glyph-name="oacute" unicode="&#xf3;" 
 />
    <glyph glyph-name="ocircumflex" unicode="&#xf4;" 
 />
    <glyph glyph-name="otilde" unicode="&#xf5;" 
 />
    <glyph glyph-name="odieresis" unicode="&#xf6;" 
 />
    <glyph glyph-name="divide" unicode="&#xf7;" horiz-adv-x="1124" 
 />
    <glyph glyph-name="oslash" unicode="&#xf8;" horiz-adv-x="1251" 
 />
    <glyph glyph-name="ugrave" unicode="&#xf9;" 
 />
    <glyph glyph-name="uacute" unicode="&#xfa;" 
 />
    <glyph glyph-name="ucircumflex" unicode="&#xfb;" 
 />
    <glyph glyph-name="udieresis" unicode="&#xfc;" 
 />
    <glyph glyph-name="yacute" unicode="&#xfd;" horiz-adv-x="1024" 
 />
    <glyph glyph-name="thorn" unicode="&#xfe;" 
 />
    <glyph glyph-name="ydieresis" unicode="&#xff;" horiz-adv-x="1024" 
 />
    <glyph glyph-name="Amacron" unicode="&#x100;" horiz-adv-x="1366" 
 />
    <glyph glyph-name="amacron" unicode="&#x101;" 
 />
    <glyph glyph-name="Abreve" unicode="&#x102;" horiz-adv-x="1366" 
 />
    <glyph glyph-name="abreve" unicode="&#x103;" 
 />
    <glyph glyph-name="Aogonek" unicode="&#x104;" horiz-adv-x="1366" 
 />
    <glyph glyph-name="aogonek" unicode="&#x105;" 
 />
    <glyph glyph-name="Cacute" unicode="&#x106;" horiz-adv-x="1479" 
 />
    <glyph glyph-name="cacute" unicode="&#x107;" horiz-adv-x="1024" 
 />
    <glyph glyph-name="Ccircumflex" unicode="&#x108;" horiz-adv-x="1479" 
 />
    <glyph glyph-name="ccircumflex" unicode="&#x109;" horiz-adv-x="1024" 
 />
    <glyph glyph-name="Cdot" unicode="&#x10a;" horiz-adv-x="1479" 
 />
    <glyph glyph-name="cdot" unicode="&#x10b;" horiz-adv-x="1024" 
 />
    <glyph glyph-name="Ccaron" unicode="&#x10c;" horiz-adv-x="1479" 
 />
    <glyph glyph-name="ccaron" unicode="&#x10d;" horiz-adv-x="1024" 
 />
    <glyph glyph-name="Dcaron" unicode="&#x10e;" horiz-adv-x="1479" 
 />
    <glyph glyph-name="dcaron" unicode="&#x10f;" horiz-adv-x="1259" 
 />
    <glyph glyph-name="Dslash" unicode="&#x110;" horiz-adv-x="1479" 
 />
    <glyph glyph-name="dmacron" unicode="&#x111;" 
 />
    <glyph glyph-name="Emacron" unicode="&#x112;" horiz-adv-x="1366" 
 />
    <glyph glyph-name="emacron" unicode="&#x113;" 
 />
    <glyph glyph-name="Ebreve" unicode="&#x114;" horiz-adv-x="1366" 
 />
    <glyph glyph-name="ebreve" unicode="&#x115;" 
 />
    <glyph glyph-name="Edot" unicode="&#x116;" horiz-adv-x="1366" 
 />
    <glyph glyph-name="edot" unicode="&#x117;" 
 />
    <glyph glyph-name="Eogonek" unicode="&#x118;" horiz-adv-x="1366" 
 />
    <glyph glyph-name="eogonek" unicode="&#x119;" 
 />
    <glyph glyph-name="Ecaron" unicode="&#x11a;" horiz-adv-x="1366" 
 />
    <glyph glyph-name="ecaron" unicode="&#x11b;" 
 />
    <glyph glyph-name="Gcircumflex" unicode="&#x11c;" horiz-adv-x="1593" 
 />
    <glyph glyph-name="gcircumflex" unicode="&#x11d;" 
 />
    <glyph glyph-name="Gbreve" unicode="&#x11e;" horiz-adv-x="1593" 
 />
    <glyph glyph-name="gbreve" unicode="&#x11f;" 
 />
    <glyph glyph-name="Gdot" unicode="&#x120;" horiz-adv-x="1593" 
 />
    <glyph glyph-name="gdot" unicode="&#x121;" 
 />
    <glyph glyph-name="Gcedilla" unicode="&#x122;" horiz-adv-x="1593" 
 />
    <glyph glyph-name="gcedilla" unicode="&#x123;" 
 />
    <glyph glyph-name="Hcircumflex" unicode="&#x124;" horiz-adv-x="1479" 
 />
    <glyph glyph-name="hcircumflex" unicode="&#x125;" 
 />
    <glyph glyph-name="Hbar" unicode="&#x126;" horiz-adv-x="1479" 
 />
    <glyph glyph-name="hbar" unicode="&#x127;" 
 />
    <glyph glyph-name="Itilde" unicode="&#x128;" horiz-adv-x="569" 
 />
    <glyph glyph-name="itilde" unicode="&#x129;" horiz-adv-x="569" 
 />
    <glyph glyph-name="Imacron" unicode="&#x12a;" horiz-adv-x="569" 
 />
    <glyph glyph-name="imacron" unicode="&#x12b;" horiz-adv-x="569" 
 />
    <glyph glyph-name="Ibreve" unicode="&#x12c;" horiz-adv-x="569" 
 />
    <glyph glyph-name="ibreve" unicode="&#x12d;" horiz-adv-x="569" 
 />
    <glyph glyph-name="Iogonek" unicode="&#x12e;" horiz-adv-x="569" 
 />
    <glyph glyph-name="iogonek" unicode="&#x12f;" horiz-adv-x="455" 
 />
    <glyph glyph-name="Idotaccent" unicode="&#x130;" horiz-adv-x="569" 
 />
    <glyph glyph-name="dotlessi" unicode="&#x131;" horiz-adv-x="569" 
 />
    <glyph glyph-name="IJ" unicode="&#x132;" horiz-adv-x="1505" 
 />
    <glyph glyph-name="ij" unicode="&#x133;" horiz-adv-x="909" 
 />
    <glyph glyph-name="Jcircumflex" unicode="&#x134;" horiz-adv-x="1024" 
 />
    <glyph glyph-name="jcircumflex" unicode="&#x135;" horiz-adv-x="455" 
 />
    <glyph glyph-name="Kcedilla" unicode="&#x136;" horiz-adv-x="1366" 
 />
    <glyph glyph-name="kcedilla" unicode="&#x137;" horiz-adv-x="1024" 
 />
    <glyph glyph-name="kgreenlandic" unicode="&#x138;" horiz-adv-x="1024" 
 />
    <glyph glyph-name="Lacute" unicode="&#x139;" 
 />
    <glyph glyph-name="lacute" unicode="&#x13a;" horiz-adv-x="455" 
 />
    <glyph glyph-name="Lcedilla" unicode="&#x13b;" 
 />
    <glyph glyph-name="lcedilla" unicode="&#x13c;" horiz-adv-x="455" 
 />
    <glyph glyph-name="Lcaron" unicode="&#x13d;" 
 />
    <glyph glyph-name="lcaron" unicode="&#x13e;" horiz-adv-x="597" 
 />
    <glyph glyph-name="Ldot" unicode="&#x13f;" 
 />
    <glyph glyph-name="ldot" unicode="&#x140;" horiz-adv-x="684" 
 />
    <glyph glyph-name="Lslash" unicode="&#x141;" 
 />
    <glyph glyph-name="lslash" unicode="&#x142;" horiz-adv-x="455" 
 />
    <glyph glyph-name="Nacute" unicode="&#x143;" horiz-adv-x="1479" 
 />
    <glyph glyph-name="nacute" unicode="&#x144;" 
 />
    <glyph glyph-name="Ncedilla" unicode="&#x145;" horiz-adv-x="1479" 
 />
    <glyph glyph-name="ncedilla" unicode="&#x146;" 
 />
    <glyph glyph-name="Ncaron" unicode="&#x147;" horiz-adv-x="1479" 
 />
    <glyph glyph-name="ncaron" unicode="&#x148;" 
 />
    <glyph glyph-name="napostrophe" unicode="&#x149;" horiz-adv-x="1237" 
 />
    <glyph glyph-name="Eng" unicode="&#x14a;" horiz-adv-x="1481" 
 />
    <glyph glyph-name="eng" unicode="&#x14b;" 
 />
    <glyph glyph-name="Omacron" unicode="&#x14c;" horiz-adv-x="1593" 
 />
    <glyph glyph-name="omacron" unicode="&#x14d;" 
 />
    <glyph glyph-name="Obreve" unicode="&#x14e;" horiz-adv-x="1593" 
 />
    <glyph glyph-name="obreve" unicode="&#x14f;" 
 />
    <glyph glyph-name="Odblacute" unicode="&#x150;" horiz-adv-x="1593" 
 />
    <glyph glyph-name="odblacute" unicode="&#x151;" 
 />
    <glyph glyph-name="OE" unicode="&#x152;" horiz-adv-x="2048" 
 />
    <glyph glyph-name="oe" unicode="&#x153;" horiz-adv-x="1933" 
 />
    <glyph glyph-name="Racute" unicode="&#x154;" horiz-adv-x="1479" 
 />
    <glyph glyph-name="racute" unicode="&#x155;" horiz-adv-x="682" 
 />
    <glyph glyph-name="Rcedilla" unicode="&#x156;" horiz-adv-x="1479" 
 />
    <glyph glyph-name="rcedilla" unicode="&#x157;" horiz-adv-x="682" 
 />
    <glyph glyph-name="Rcaron" unicode="&#x158;" horiz-adv-x="1479" 
 />
    <glyph glyph-name="rcaron" unicode="&#x159;" horiz-adv-x="682" 
 />
    <glyph glyph-name="Sacute" unicode="&#x15a;" horiz-adv-x="1366" 
 />
    <glyph glyph-name="sacute" unicode="&#x15b;" horiz-adv-x="1024" 
 />
    <glyph glyph-name="Scircumflex" unicode="&#x15c;" horiz-adv-x="1366" 
 />
    <glyph glyph-name="scircumflex" unicode="&#x15d;" horiz-adv-x="1024" 
 />
    <glyph glyph-name="Scedilla" unicode="&#x15e;" horiz-adv-x="1366" 
 />
    <glyph glyph-name="scedilla" unicode="&#x15f;" horiz-adv-x="1024" 
 />
    <glyph glyph-name="Scaron" unicode="&#x160;" horiz-adv-x="1366" 
 />
    <glyph glyph-name="scaron" unicode="&#x161;" horiz-adv-x="1024" 
 />
    <glyph glyph-name="Tcedilla" unicode="&#x162;" horiz-adv-x="1251" 
 />
    <glyph glyph-name="tcedilla" unicode="&#x163;" horiz-adv-x="569" 
 />
    <glyph glyph-name="Tcaron" unicode="&#x164;" horiz-adv-x="1251" 
 />
    <glyph glyph-name="tcaron" unicode="&#x165;" horiz-adv-x="768" 
 />
    <glyph glyph-name="Tbar" unicode="&#x166;" horiz-adv-x="1251" 
 />
    <glyph glyph-name="tbar" unicode="&#x167;" horiz-adv-x="569" 
 />
    <glyph glyph-name="Utilde" unicode="&#x168;" horiz-adv-x="1479" 
 />
    <glyph glyph-name="utilde" unicode="&#x169;" 
 />
    <glyph glyph-name="Umacron" unicode="&#x16a;" horiz-adv-x="1479" 
 />
    <glyph glyph-name="umacron" unicode="&#x16b;" 
 />
    <glyph glyph-name="Ubreve" unicode="&#x16c;" horiz-adv-x="1479" 
 />
    <glyph glyph-name="ubreve" unicode="&#x16d;" 
 />
    <glyph glyph-name="Uring" unicode="&#x16e;" horiz-adv-x="1479" 
 />
    <glyph glyph-name="uring" unicode="&#x16f;" 
 />
    <glyph glyph-name="Udblacute" unicode="&#x170;" horiz-adv-x="1479" 
 />
    <glyph glyph-name="udblacute" unicode="&#x171;" 
 />
    <glyph glyph-name="Uogonek" unicode="&#x172;" horiz-adv-x="1479" 
 />
    <glyph glyph-name="uogonek" unicode="&#x173;" 
 />
    <glyph glyph-name="Wcircumflex" unicode="&#x174;" horiz-adv-x="1933" 
 />
    <glyph glyph-name="wcircumflex" unicode="&#x175;" horiz-adv-x="1479" 
 />
    <glyph glyph-name="Ycircumflex" unicode="&#x176;" horiz-adv-x="1366" 
 />
    <glyph glyph-name="ycircumflex" unicode="&#x177;" horiz-adv-x="1024" 
 />
    <glyph glyph-name="Ydieresis" unicode="&#x178;" horiz-adv-x="1366" 
 />
    <glyph glyph-name="Zacute" unicode="&#x179;" horiz-adv-x="1251" 
 />
    <glyph glyph-name="zacute" unicode="&#x17a;" horiz-adv-x="1024" 
 />
    <glyph glyph-name="Zdot" unicode="&#x17b;" horiz-adv-x="1251" 
 />
    <glyph glyph-name="zdot" unicode="&#x17c;" horiz-adv-x="1024" 
 />
    <glyph glyph-name="Zcaron" unicode="&#x17d;" horiz-adv-x="1251" 
 />
    <glyph glyph-name="zcaron" unicode="&#x17e;" horiz-adv-x="1024" 
 />
    <glyph glyph-name="longs" unicode="&#x17f;" horiz-adv-x="455" 
 />
    <glyph glyph-name="florin" unicode="&#x192;" 
 />
    <glyph glyph-name="Aringacute" unicode="&#x1fa;" horiz-adv-x="1366" 
 />
    <glyph glyph-name="aringacute" unicode="&#x1fb;" 
 />
    <glyph glyph-name="AEacute" unicode="&#x1fc;" horiz-adv-x="2048" 
 />
    <glyph glyph-name="aeacute" unicode="&#x1fd;" horiz-adv-x="1821" 
 />
    <glyph glyph-name="Oslashacute" unicode="&#x1fe;" horiz-adv-x="1593" 
 />
    <glyph glyph-name="oslashacute" unicode="&#x1ff;" horiz-adv-x="1251" 
 />
    <glyph glyph-name="circumflex" unicode="&#x2c6;" horiz-adv-x="682" 
 />
    <glyph glyph-name="caron" unicode="&#x2c7;" horiz-adv-x="682" 
 />
    <glyph glyph-name="macron" unicode="&#x2c9;" horiz-adv-x="682" 
 />
    <glyph glyph-name="breve" unicode="&#x2d8;" horiz-adv-x="682" 
 />
    <glyph glyph-name="dotaccent" unicode="&#x2d9;" horiz-adv-x="682" 
 />
    <glyph glyph-name="ring" unicode="&#x2da;" horiz-adv-x="682" 
 />
    <glyph glyph-name="ogonek" unicode="&#x2db;" horiz-adv-x="682" 
 />
    <glyph glyph-name="tilde" unicode="&#x2dc;" horiz-adv-x="682" 
 />
    <glyph glyph-name="hungarumlaut" unicode="&#x2dd;" horiz-adv-x="682" 
 />
    <glyph glyph-name="tonos" unicode="&#x384;" horiz-adv-x="682" 
 />
    <glyph glyph-name="dieresistonos" unicode="&#x385;" horiz-adv-x="682" 
 />
    <glyph glyph-name="Alphatonos" unicode="&#x386;" horiz-adv-x="1367" 
 />
    <glyph glyph-name="anoteleia" unicode="&#x387;" horiz-adv-x="569" 
 />
    <glyph glyph-name="Epsilontonos" unicode="&#x388;" horiz-adv-x="1606" 
 />
    <glyph glyph-name="Etatonos" unicode="&#x389;" horiz-adv-x="1716" 
 />
    <glyph glyph-name="Iotatonos" unicode="&#x38a;" horiz-adv-x="786" 
 />
    <glyph glyph-name="Omicrontonos" unicode="&#x38c;" horiz-adv-x="1586" 
 />
    <glyph glyph-name="Upsilontonos" unicode="&#x38e;" horiz-adv-x="1752" 
 />
    <glyph glyph-name="Omegatonos" unicode="&#x38f;" horiz-adv-x="1541" 
 />
    <glyph glyph-name="iotadieresistonos" unicode="&#x390;" horiz-adv-x="455" 
 />
    <glyph glyph-name="Alpha" unicode="&#x391;" horiz-adv-x="1366" 
 />
    <glyph glyph-name="Beta" unicode="&#x392;" horiz-adv-x="1366" 
 />
    <glyph glyph-name="Gamma" unicode="&#x393;" horiz-adv-x="1128" 
 />
    <glyph glyph-name="uni0394" unicode="&#x394;" horiz-adv-x="1368" 
 />
    <glyph glyph-name="Epsilon" unicode="&#x395;" horiz-adv-x="1366" 
 />
    <glyph glyph-name="Zeta" unicode="&#x396;" horiz-adv-x="1251" 
 />
    <glyph glyph-name="Eta" unicode="&#x397;" horiz-adv-x="1479" 
 />
    <glyph glyph-name="Theta" unicode="&#x398;" horiz-adv-x="1593" 
 />
    <glyph glyph-name="Iota" unicode="&#x399;" horiz-adv-x="569" 
 />
    <glyph glyph-name="Kappa" unicode="&#x39a;" horiz-adv-x="1366" 
 />
    <glyph glyph-name="Lambda" unicode="&#x39b;" horiz-adv-x="1368" 
 />
    <glyph glyph-name="Mu" unicode="&#x39c;" horiz-adv-x="1706" 
 />
    <glyph glyph-name="Nu" unicode="&#x39d;" horiz-adv-x="1479" 
 />
    <glyph glyph-name="Xi" unicode="&#x39e;" horiz-adv-x="1331" 
 />
    <glyph glyph-name="Omicron" unicode="&#x39f;" horiz-adv-x="1593" 
 />
    <glyph glyph-name="Pi" unicode="&#x3a0;" horiz-adv-x="1479" 
 />
    <glyph glyph-name="Rho" unicode="&#x3a1;" horiz-adv-x="1366" 
 />
    <glyph glyph-name="Sigma" unicode="&#x3a3;" horiz-adv-x="1266" 
 />
    <glyph glyph-name="Tau" unicode="&#x3a4;" horiz-adv-x="1251" 
 />
    <glyph glyph-name="Upsilon" unicode="&#x3a5;" horiz-adv-x="1366" 
 />
    <glyph glyph-name="Phi" unicode="&#x3a6;" horiz-adv-x="1634" 
 />
    <glyph glyph-name="Chi" unicode="&#x3a7;" horiz-adv-x="1366" 
 />
    <glyph glyph-name="Psi" unicode="&#x3a8;" horiz-adv-x="1711" 
 />
    <glyph glyph-name="Omega" unicode="&#x3a9;" horiz-adv-x="1531" 
 />
    <glyph glyph-name="Iotadieresis" unicode="&#x3aa;" horiz-adv-x="569" 
 />
    <glyph glyph-name="Upsilondieresis" unicode="&#x3ab;" horiz-adv-x="1366" 
 />
    <glyph glyph-name="alphatonos" unicode="&#x3ac;" horiz-adv-x="1184" 
 />
    <glyph glyph-name="epsilontonos" unicode="&#x3ad;" horiz-adv-x="913" 
 />
    <glyph glyph-name="etatonos" unicode="&#x3ae;" 
 />
    <glyph glyph-name="iotatonos" unicode="&#x3af;" horiz-adv-x="455" 
 />
    <glyph glyph-name="upsilondieresistonos" unicode="&#x3b0;" horiz-adv-x="1120" 
 />
    <glyph glyph-name="alpha" unicode="&#x3b1;" horiz-adv-x="1184" 
 />
    <glyph glyph-name="beta" unicode="&#x3b2;" horiz-adv-x="1178" 
 />
    <glyph glyph-name="gamma" unicode="&#x3b3;" horiz-adv-x="1024" 
 />
    <glyph glyph-name="delta" unicode="&#x3b4;" horiz-adv-x="1140" 
 />
    <glyph glyph-name="epsilon" unicode="&#x3b5;" horiz-adv-x="913" 
 />
    <glyph glyph-name="zeta" unicode="&#x3b6;" horiz-adv-x="903" 
 />
    <glyph glyph-name="eta" unicode="&#x3b7;" 
 />
    <glyph glyph-name="theta" unicode="&#x3b8;" 
 />
    <glyph glyph-name="iota" unicode="&#x3b9;" horiz-adv-x="455" 
 />
    <glyph glyph-name="kappa" unicode="&#x3ba;" horiz-adv-x="1024" 
 />
    <glyph glyph-name="lambda" unicode="&#x3bb;" horiz-adv-x="1024" 
 />
    <glyph glyph-name="mu" unicode="&#x3bc;" horiz-adv-x="1180" 
 />
    <glyph glyph-name="nu" unicode="&#x3bd;" horiz-adv-x="1024" 
 />
    <glyph glyph-name="xi" unicode="&#x3be;" horiz-adv-x="917" 
 />
    <glyph glyph-name="omicron" unicode="&#x3bf;" 
 />
    <glyph glyph-name="pi" unicode="&#x3c0;" horiz-adv-x="1413" 
 />
    <glyph glyph-name="rho" unicode="&#x3c1;" horiz-adv-x="1165" 
 />
    <glyph glyph-name="sigma1" unicode="&#x3c2;" horiz-adv-x="987" 
 />
    <glyph glyph-name="sigma" unicode="&#x3c3;" horiz-adv-x="1264" 
 />
    <glyph glyph-name="tau" unicode="&#x3c4;" horiz-adv-x="809" 
 />
    <glyph glyph-name="upsilon" unicode="&#x3c5;" horiz-adv-x="1120" 
 />
    <glyph glyph-name="phi" unicode="&#x3c6;" horiz-adv-x="1328" 
 />
    <glyph glyph-name="chi" unicode="&#x3c7;" horiz-adv-x="1075" 
 />
    <glyph glyph-name="psi" unicode="&#x3c8;" horiz-adv-x="1460" 
 />
    <glyph glyph-name="omega" unicode="&#x3c9;" horiz-adv-x="1599" 
 />
    <glyph glyph-name="iotadieresis" unicode="&#x3ca;" horiz-adv-x="455" 
 />
    <glyph glyph-name="upsilondieresis" unicode="&#x3cb;" horiz-adv-x="1120" 
 />
    <glyph glyph-name="omicrontonos" unicode="&#x3cc;" 
 />
    <glyph glyph-name="upsilontonos" unicode="&#x3cd;" horiz-adv-x="1120" 
 />
    <glyph glyph-name="omegatonos" unicode="&#x3ce;" horiz-adv-x="1599" 
 />
    <glyph glyph-name="afii10023" unicode="&#x401;" horiz-adv-x="1367" 
 />
    <glyph glyph-name="afii10051" unicode="&#x402;" horiz-adv-x="1771" 
 />
    <glyph glyph-name="afii10052" unicode="&#x403;" horiz-adv-x="1109" 
 />
    <glyph glyph-name="afii10053" unicode="&#x404;" horiz-adv-x="1472" 
 />
    <glyph glyph-name="afii10054" unicode="&#x405;" horiz-adv-x="1366" 
 />
    <glyph glyph-name="afii10055" unicode="&#x406;" horiz-adv-x="569" 
 />
    <glyph glyph-name="afii10056" unicode="&#x407;" horiz-adv-x="569" 
 />
    <glyph glyph-name="afii10057" unicode="&#x408;" horiz-adv-x="1024" 
 />
    <glyph glyph-name="afii10058" unicode="&#x409;" horiz-adv-x="2165" 
 />
    <glyph glyph-name="afii10059" unicode="&#x40a;" horiz-adv-x="2069" 
 />
    <glyph glyph-name="afii10060" unicode="&#x40b;" horiz-adv-x="1749" 
 />
    <glyph glyph-name="afii10061" unicode="&#x40c;" horiz-adv-x="1193" 
 />
    <glyph glyph-name="afii10062" unicode="&#x40e;" horiz-adv-x="1301" 
 />
    <glyph glyph-name="afii10145" unicode="&#x40f;" horiz-adv-x="1472" 
 />
    <glyph glyph-name="afii10017" unicode="&#x410;" horiz-adv-x="1366" 
 />
    <glyph glyph-name="afii10018" unicode="&#x411;" horiz-adv-x="1344" 
 />
    <glyph glyph-name="afii10019" unicode="&#x412;" horiz-adv-x="1366" 
 />
    <glyph glyph-name="afii10020" unicode="&#x413;" horiz-adv-x="1109" 
 />
    <glyph glyph-name="afii10021" unicode="&#x414;" horiz-adv-x="1387" 
 />
    <glyph glyph-name="afii10022" unicode="&#x415;" horiz-adv-x="1366" 
 />
    <glyph glyph-name="afii10024" unicode="&#x416;" horiz-adv-x="1891" 
 />
    <glyph glyph-name="afii10025" unicode="&#x417;" horiz-adv-x="1237" 
 />
    <glyph glyph-name="afii10026" unicode="&#x418;" horiz-adv-x="1472" 
 />
    <glyph glyph-name="afii10027" unicode="&#x419;" horiz-adv-x="1472" 
 />
    <glyph glyph-name="afii10028" unicode="&#x41a;" horiz-adv-x="1193" 
 />
    <glyph glyph-name="afii10029" unicode="&#x41b;" horiz-adv-x="1344" 
 />
    <glyph glyph-name="afii10030" unicode="&#x41c;" horiz-adv-x="1706" 
 />
    <glyph glyph-name="afii10031" unicode="&#x41d;" horiz-adv-x="1479" 
 />
    <glyph glyph-name="afii10032" unicode="&#x41e;" horiz-adv-x="1593" 
 />
    <glyph glyph-name="afii10033" unicode="&#x41f;" horiz-adv-x="1472" 
 />
    <glyph glyph-name="afii10034" unicode="&#x420;" horiz-adv-x="1366" 
 />
    <glyph glyph-name="afii10035" unicode="&#x421;" horiz-adv-x="1479" 
 />
    <glyph glyph-name="afii10036" unicode="&#x422;" horiz-adv-x="1251" 
 />
    <glyph glyph-name="afii10037" unicode="&#x423;" horiz-adv-x="1301" 
 />
    <glyph glyph-name="afii10038" unicode="&#x424;" horiz-adv-x="1557" 
 />
    <glyph glyph-name="afii10039" unicode="&#x425;" horiz-adv-x="1366" 
 />
    <glyph glyph-name="afii10040" unicode="&#x426;" horiz-adv-x="1515" 
 />
    <glyph glyph-name="afii10041" unicode="&#x427;" horiz-adv-x="1365" 
 />
    <glyph glyph-name="afii10042" unicode="&#x428;" horiz-adv-x="1877" 
 />
    <glyph glyph-name="afii10043" unicode="&#x429;" horiz-adv-x="1920" 
 />
    <glyph glyph-name="afii10044" unicode="&#x42a;" horiz-adv-x="1621" 
 />
    <glyph glyph-name="afii10045" unicode="&#x42b;" horiz-adv-x="1813" 
 />
    <glyph glyph-name="afii10046" unicode="&#x42c;" horiz-adv-x="1344" 
 />
    <glyph glyph-name="afii10047" unicode="&#x42d;" horiz-adv-x="1472" 
 />
    <glyph glyph-name="afii10048" unicode="&#x42e;" horiz-adv-x="2069" 
 />
    <glyph glyph-name="afii10049" unicode="&#x42f;" horiz-adv-x="1479" 
 />
    <glyph glyph-name="afii10065" unicode="&#x430;" 
 />
    <glyph glyph-name="afii10066" unicode="&#x431;" horiz-adv-x="1173" 
 />
    <glyph glyph-name="afii10067" unicode="&#x432;" horiz-adv-x="1088" 
 />
    <glyph glyph-name="afii10068" unicode="&#x433;" horiz-adv-x="747" 
 />
    <glyph glyph-name="afii10069" unicode="&#x434;" horiz-adv-x="1195" 
 />
    <glyph glyph-name="afii10070" unicode="&#x435;" 
 />
    <glyph glyph-name="afii10072" unicode="&#x436;" horiz-adv-x="1370" 
 />
    <glyph glyph-name="afii10073" unicode="&#x437;" horiz-adv-x="939" 
 />
    <glyph glyph-name="afii10074" unicode="&#x438;" horiz-adv-x="1144" 
 />
    <glyph glyph-name="afii10075" unicode="&#x439;" horiz-adv-x="1144" 
 />
    <glyph glyph-name="afii10076" unicode="&#x43a;" horiz-adv-x="896" 
 />
    <glyph glyph-name="afii10077" unicode="&#x43b;" horiz-adv-x="1195" 
 />
    <glyph glyph-name="afii10078" unicode="&#x43c;" horiz-adv-x="1408" 
 />
    <glyph glyph-name="afii10079" unicode="&#x43d;" horiz-adv-x="1131" 
 />
    <glyph glyph-name="afii10080" unicode="&#x43e;" 
 />
    <glyph glyph-name="afii10081" unicode="&#x43f;" horiz-adv-x="1109" 
 />
    <glyph glyph-name="afii10082" unicode="&#x440;" 
 />
    <glyph glyph-name="afii10083" unicode="&#x441;" horiz-adv-x="1024" 
 />
    <glyph glyph-name="afii10084" unicode="&#x442;" horiz-adv-x="938" 
 />
    <glyph glyph-name="afii10085" unicode="&#x443;" horiz-adv-x="1024" 
 />
    <glyph glyph-name="afii10086" unicode="&#x444;" horiz-adv-x="1685" 
 />
    <glyph glyph-name="afii10087" unicode="&#x445;" horiz-adv-x="1024" 
 />
    <glyph glyph-name="afii10088" unicode="&#x446;" horiz-adv-x="1173" 
 />
    <glyph glyph-name="afii10089" unicode="&#x447;" horiz-adv-x="1067" 
 />
    <glyph glyph-name="afii10090" unicode="&#x448;" horiz-adv-x="1643" 
 />
    <glyph glyph-name="afii10091" unicode="&#x449;" horiz-adv-x="1685" 
 />
    <glyph glyph-name="afii10092" unicode="&#x44a;" horiz-adv-x="1280" 
 />
    <glyph glyph-name="afii10093" unicode="&#x44b;" horiz-adv-x="1472" 
 />
    <glyph glyph-name="afii10094" unicode="&#x44c;" horiz-adv-x="1067" 
 />
    <glyph glyph-name="afii10095" unicode="&#x44d;" horiz-adv-x="1045" 
 />
    <glyph glyph-name="afii10096" unicode="&#x44e;" horiz-adv-x="1536" 
 />
    <glyph glyph-name="afii10097" unicode="&#x44f;" horiz-adv-x="1109" 
 />
    <glyph glyph-name="afii10071" unicode="&#x451;" 
 />
    <glyph glyph-name="afii10099" unicode="&#x452;" 
 />
    <glyph glyph-name="afii10100" unicode="&#x453;" horiz-adv-x="747" 
 />
    <glyph glyph-name="afii10101" unicode="&#x454;" horiz-adv-x="1045" 
 />
    <glyph glyph-name="afii10102" unicode="&#x455;" horiz-adv-x="1024" 
 />
    <glyph glyph-name="afii10103" unicode="&#x456;" horiz-adv-x="455" 
 />
    <glyph glyph-name="afii10104" unicode="&#x457;" horiz-adv-x="569" 
 />
    <glyph glyph-name="afii10105" unicode="&#x458;" horiz-adv-x="455" 
 />
    <glyph glyph-name="afii10106" unicode="&#x459;" horiz-adv-x="1856" 
 />
    <glyph glyph-name="afii10107" unicode="&#x45a;" horiz-adv-x="1664" 
 />
    <glyph glyph-name="afii10108" unicode="&#x45b;" 
 />
    <glyph glyph-name="afii10109" unicode="&#x45c;" horiz-adv-x="896" 
 />
    <glyph glyph-name="afii10110" unicode="&#x45e;" horiz-adv-x="1024" 
 />
    <glyph glyph-name="afii10193" unicode="&#x45f;" horiz-adv-x="1131" 
 />
    <glyph glyph-name="afii10050" unicode="&#x490;" horiz-adv-x="1001" 
 />
    <glyph glyph-name="afii10098" unicode="&#x491;" horiz-adv-x="842" 
 />
    <glyph glyph-name="Wgrave" unicode="&#x1e80;" horiz-adv-x="1933" 
 />
    <glyph glyph-name="wgrave" unicode="&#x1e81;" horiz-adv-x="1479" 
 />
    <glyph glyph-name="Wacute" unicode="&#x1e82;" horiz-adv-x="1933" 
 />
    <glyph glyph-name="wacute" unicode="&#x1e83;" horiz-adv-x="1479" 
 />
    <glyph glyph-name="Wdieresis" unicode="&#x1e84;" horiz-adv-x="1933" 
 />
    <glyph glyph-name="wdieresis" unicode="&#x1e85;" horiz-adv-x="1479" 
 />
    <glyph glyph-name="Ygrave" unicode="&#x1ef2;" horiz-adv-x="1366" 
 />
    <glyph glyph-name="ygrave" unicode="&#x1ef3;" horiz-adv-x="1024" 
 />
    <glyph glyph-name="endash" unicode="&#x2013;" 
 />
    <glyph glyph-name="emdash" unicode="&#x2014;" horiz-adv-x="2048" 
 />
    <glyph glyph-name="afii00208" unicode="&#x2015;" horiz-adv-x="2048" 
 />
    <glyph glyph-name="underscoredbl" unicode="&#x2017;" horiz-adv-x="1131" 
 />
    <glyph glyph-name="quoteleft" unicode="&#x2018;" horiz-adv-x="455" 
 />
    <glyph glyph-name="quoteright" unicode="&#x2019;" horiz-adv-x="455" 
 />
    <glyph glyph-name="quotesinglbase" unicode="&#x201a;" horiz-adv-x="455" 
 />
    <glyph glyph-name="quotereversed" unicode="&#x201b;" horiz-adv-x="455" 
 />
    <glyph glyph-name="quotedblleft" unicode="&#x201c;" horiz-adv-x="682" 
 />
    <glyph glyph-name="quotedblright" unicode="&#x201d;" horiz-adv-x="682" 
 />
    <glyph glyph-name="quotedblbase" unicode="&#x201e;" horiz-adv-x="682" 
 />
    <glyph glyph-name="dagger" unicode="&#x2020;" 
 />
    <glyph glyph-name="daggerdbl" unicode="&#x2021;" 
 />
    <glyph glyph-name="bullet" unicode="&#x2022;" horiz-adv-x="717" 
 />
    <glyph glyph-name="ellipsis" unicode="&#x2026;" horiz-adv-x="2048" 
 />
    <glyph glyph-name="perthousand" unicode="&#x2030;" horiz-adv-x="2048" 
 />
    <glyph glyph-name="minute" unicode="&#x2032;" horiz-adv-x="384" 
 />
    <glyph glyph-name="second" unicode="&#x2033;" horiz-adv-x="725" 
 />
    <glyph glyph-name="guilsinglleft" unicode="&#x2039;" horiz-adv-x="682" 
 />
    <glyph glyph-name="guilsinglright" unicode="&#x203a;" horiz-adv-x="682" 
 />
    <glyph glyph-name="exclamdbl" unicode="&#x203c;" horiz-adv-x="1024" 
 />
    <glyph glyph-name="radicalex" unicode="&#x203e;" horiz-adv-x="682" 
 />
    <glyph glyph-name="fraction" unicode="&#x2044;" horiz-adv-x="342" 
 />
    <glyph glyph-name="fraction" unicode="&#x2215;" horiz-adv-x="342" 
 />
    <glyph glyph-name="nsuperior" unicode="&#x207f;" horiz-adv-x="747" 
 />
    <glyph glyph-name="franc" unicode="&#x20a3;" 
 />
    <glyph glyph-name="afii08941" unicode="&#x20a4;" 
 />
    <glyph glyph-name="peseta" unicode="&#x20a7;" horiz-adv-x="2240" 
 />
    <glyph glyph-name="Euro" unicode="&#x20ac;" 
 />
    <glyph glyph-name="afii61248" unicode="&#x2105;" horiz-adv-x="1813" 
 />
    <glyph glyph-name="afii61289" unicode="&#x2113;" horiz-adv-x="662" 
 />
    <glyph glyph-name="afii61352" unicode="&#x2116;" horiz-adv-x="2197" 
 />
    <glyph glyph-name="trademark" unicode="&#x2122;" horiz-adv-x="2048" 
 />
    <glyph glyph-name="Ohm" unicode="&#x2126;" horiz-adv-x="1573" 
 />
    <glyph glyph-name="estimated" unicode="&#x212e;" horiz-adv-x="1229" 
 />
    <glyph glyph-name="oneeighth" unicode="&#x215b;" horiz-adv-x="1708" 
 />
    <glyph glyph-name="threeeighths" unicode="&#x215c;" horiz-adv-x="1708" 
 />
    <glyph glyph-name="fiveeighths" unicode="&#x215d;" horiz-adv-x="1708" 
 />
    <glyph glyph-name="seveneighths" unicode="&#x215e;" horiz-adv-x="1708" 
 />
    <glyph glyph-name="arrowleft" unicode="&#x2190;" horiz-adv-x="2048" 
 />
    <glyph glyph-name="arrowup" unicode="&#x2191;" horiz-adv-x="1024" 
 />
    <glyph glyph-name="arrowright" unicode="&#x2192;" horiz-adv-x="2048" 
 />
    <glyph glyph-name="arrowdown" unicode="&#x2193;" horiz-adv-x="1024" 
 />
    <glyph glyph-name="arrowboth" unicode="&#x2194;" horiz-adv-x="2048" 
 />
    <glyph glyph-name="arrowupdn" unicode="&#x2195;" horiz-adv-x="1024" 
 />
    <glyph glyph-name="arrowupdnbse" unicode="&#x21a8;" horiz-adv-x="1024" 
 />
    <glyph glyph-name="partialdiff" unicode="&#x2202;" horiz-adv-x="1012" 
 />
    <glyph glyph-name="Delta" unicode="&#x2206;" horiz-adv-x="1253" 
 />
    <glyph glyph-name="product" unicode="&#x220f;" horiz-adv-x="1686" 
 />
    <glyph glyph-name="summation" unicode="&#x2211;" horiz-adv-x="1460" 
 />
    <glyph glyph-name="minus" unicode="&#x2212;" horiz-adv-x="1196" 
 />
    <glyph glyph-name="radical" unicode="&#x221a;" horiz-adv-x="1124" 
 />
    <glyph glyph-name="infinity" unicode="&#x221e;" horiz-adv-x="1460" 
 />
    <glyph glyph-name="orthogonal" unicode="&#x221f;" horiz-adv-x="2005" 
 />
    <glyph glyph-name="intersection" unicode="&#x2229;" horiz-adv-x="1472" 
 />
    <glyph glyph-name="integral" unicode="&#x222b;" horiz-adv-x="561" 
 />
    <glyph glyph-name="approxequal" unicode="&#x2248;" horiz-adv-x="1124" 
 />
    <glyph glyph-name="notequal" unicode="&#x2260;" horiz-adv-x="1124" 
 />
    <glyph glyph-name="equivalence" unicode="&#x2261;" horiz-adv-x="1195" 
 />
    <glyph glyph-name="lessequal" unicode="&#x2264;" horiz-adv-x="1124" 
 />
    <glyph glyph-name="greaterequal" unicode="&#x2265;" horiz-adv-x="1124" 
 />
    <glyph glyph-name="house" unicode="&#x2302;" horiz-adv-x="1237" 
 />
    <glyph glyph-name="revlogicalnot" unicode="&#x2310;" horiz-adv-x="1196" 
 />
    <glyph glyph-name="integraltp" unicode="&#x2320;" horiz-adv-x="1237" 
 />
    <glyph glyph-name="integralbt" unicode="&#x2321;" horiz-adv-x="1237" 
 />
    <glyph glyph-name="SF100000" unicode="&#x2500;" horiz-adv-x="1451" 
 />
    <glyph glyph-name="SF110000" unicode="&#x2502;" horiz-adv-x="1280" 
 />
    <glyph glyph-name="SF010000" unicode="&#x250c;" horiz-adv-x="1451" 
 />
    <glyph glyph-name="SF030000" unicode="&#x2510;" horiz-adv-x="1451" 
 />
    <glyph glyph-name="SF020000" unicode="&#x2514;" horiz-adv-x="1451" 
 />
    <glyph glyph-name="SF040000" unicode="&#x2518;" horiz-adv-x="1451" 
 />
    <glyph glyph-name="SF080000" unicode="&#x251c;" horiz-adv-x="1451" 
 />
    <glyph glyph-name="SF090000" unicode="&#x2524;" horiz-adv-x="1451" 
 />
    <glyph glyph-name="SF060000" unicode="&#x252c;" horiz-adv-x="1451" 
 />
    <glyph glyph-name="SF070000" unicode="&#x2534;" horiz-adv-x="1451" 
 />
    <glyph glyph-name="SF050000" unicode="&#x253c;" horiz-adv-x="1451" 
 />
    <glyph glyph-name="SF430000" unicode="&#x2550;" horiz-adv-x="1451" 
 />
    <glyph glyph-name="SF240000" unicode="&#x2551;" horiz-adv-x="1451" 
 />
    <glyph glyph-name="SF510000" unicode="&#x2552;" horiz-adv-x="1451" 
 />
    <glyph glyph-name="SF520000" unicode="&#x2553;" horiz-adv-x="1451" 
 />
    <glyph glyph-name="SF390000" unicode="&#x2554;" horiz-adv-x="1451" 
 />
    <glyph glyph-name="SF220000" unicode="&#x2555;" horiz-adv-x="1451" 
 />
    <glyph glyph-name="SF210000" unicode="&#x2556;" horiz-adv-x="1451" 
 />
    <glyph glyph-name="SF250000" unicode="&#x2557;" horiz-adv-x="1451" 
 />
    <glyph glyph-name="SF500000" unicode="&#x2558;" horiz-adv-x="1451" 
 />
    <glyph glyph-name="SF490000" unicode="&#x2559;" horiz-adv-x="1451" 
 />
    <glyph glyph-name="SF380000" unicode="&#x255a;" horiz-adv-x="1451" 
 />
    <glyph glyph-name="SF280000" unicode="&#x255b;" horiz-adv-x="1451" 
 />
    <glyph glyph-name="SF270000" unicode="&#x255c;" horiz-adv-x="1451" 
 />
    <glyph glyph-name="SF260000" unicode="&#x255d;" horiz-adv-x="1451" 
 />
    <glyph glyph-name="SF360000" unicode="&#x255e;" horiz-adv-x="1451" 
 />
    <glyph glyph-name="SF370000" unicode="&#x255f;" horiz-adv-x="1451" 
 />
    <glyph glyph-name="SF420000" unicode="&#x2560;" horiz-adv-x="1451" 
 />
    <glyph glyph-name="SF190000" unicode="&#x2561;" horiz-adv-x="1451" 
 />
    <glyph glyph-name="SF200000" unicode="&#x2562;" horiz-adv-x="1451" 
 />
    <glyph glyph-name="SF230000" unicode="&#x2563;" horiz-adv-x="1451" 
 />
    <glyph glyph-name="SF470000" unicode="&#x2564;" horiz-adv-x="1451" 
 />
    <glyph glyph-name="SF480000" unicode="&#x2565;" horiz-adv-x="1451" 
 />
    <glyph glyph-name="SF410000" unicode="&#x2566;" horiz-adv-x="1451" 
 />
    <glyph glyph-name="SF450000" unicode="&#x2567;" horiz-adv-x="1451" 
 />
    <glyph glyph-name="SF460000" unicode="&#x2568;" horiz-adv-x="1451" 
 />
    <glyph glyph-name="SF400000" unicode="&#x2569;" horiz-adv-x="1451" 
 />
    <glyph glyph-name="SF540000" unicode="&#x256a;" horiz-adv-x="1451" 
 />
    <glyph glyph-name="SF530000" unicode="&#x256b;" horiz-adv-x="1451" 
 />
    <glyph glyph-name="SF440000" unicode="&#x256c;" horiz-adv-x="1451" 
 />
    <glyph glyph-name="upblock" unicode="&#x2580;" horiz-adv-x="1451" 
 />
    <glyph glyph-name="dnblock" unicode="&#x2584;" horiz-adv-x="1451" 
 />
    <glyph glyph-name="block" unicode="&#x2588;" horiz-adv-x="1451" 
 />
    <glyph glyph-name="lfblock" unicode="&#x258c;" horiz-adv-x="1451" 
 />
    <glyph glyph-name="rtblock" unicode="&#x2590;" horiz-adv-x="1451" 
 />
    <glyph glyph-name="ltshade" unicode="&#x2591;" horiz-adv-x="1451" 
 />
    <glyph glyph-name="shade" unicode="&#x2592;" horiz-adv-x="1451" 
 />
    <glyph glyph-name="dkshade" unicode="&#x2593;" horiz-adv-x="1493" 
 />
    <glyph glyph-name="filledbox" unicode="&#x25a0;" horiz-adv-x="1237" 
 />
    <glyph glyph-name="H22073" unicode="&#x25a1;" horiz-adv-x="1237" 
 />
    <glyph glyph-name="H18543" unicode="&#x25aa;" horiz-adv-x="726" 
 />
    <glyph glyph-name="H18551" unicode="&#x25ab;" horiz-adv-x="726" 
 />
    <glyph glyph-name="filledrect" unicode="&#x25ac;" horiz-adv-x="2048" 
 />
    <glyph glyph-name="triagup" unicode="&#x25b2;" horiz-adv-x="2027" 
 />
    <glyph glyph-name="triagrt" unicode="&#x25ba;" horiz-adv-x="2027" 
 />
    <glyph glyph-name="triagdn" unicode="&#x25bc;" horiz-adv-x="2027" 
 />
    <glyph glyph-name="triaglf" unicode="&#x25c4;" horiz-adv-x="2027" 
 />
    <glyph glyph-name="lozenge" unicode="&#x25ca;" horiz-adv-x="1012" 
 />
    <glyph glyph-name="circle" unicode="&#x25cb;" horiz-adv-x="1237" 
 />
    <glyph glyph-name="H18533" unicode="&#x25cf;" horiz-adv-x="1237" 
 />
    <glyph glyph-name="invbullet" unicode="&#x25d8;" horiz-adv-x="1237" 
 />
    <glyph glyph-name="invcircle" unicode="&#x25d9;" horiz-adv-x="1237" 
 />
    <glyph glyph-name="openbullet" unicode="&#x25e6;" horiz-adv-x="726" 
 />
    <glyph glyph-name="smileface" unicode="&#x263a;" horiz-adv-x="2091" 
 />
    <glyph glyph-name="invsmileface" unicode="&#x263b;" horiz-adv-x="2155" 
 />
    <glyph glyph-name="sun" unicode="&#x263c;" horiz-adv-x="1877" 
 />
    <glyph glyph-name="female" unicode="&#x2640;" horiz-adv-x="1536" 
 />
    <glyph glyph-name="male" unicode="&#x2642;" horiz-adv-x="1536" 
 />
    <glyph glyph-name="spade" unicode="&#x2660;" horiz-adv-x="1088" 
 />
    <glyph glyph-name="club" unicode="&#x2663;" horiz-adv-x="1344" 
 />
    <glyph glyph-name="heart" unicode="&#x2665;" horiz-adv-x="1216" 
 />
    <glyph glyph-name="diamond" unicode="&#x2666;" horiz-adv-x="1045" 
 />
    <glyph glyph-name="musicalnote" unicode="&#x266a;" horiz-adv-x="1024" 
 />
    <glyph glyph-name="musicalnotedbl" unicode="&#x266b;" horiz-adv-x="1536" 
 />
    <glyph glyph-name="fi" unicode="&#xf001;" horiz-adv-x="1024" 
 />
    <glyph glyph-name="fi" unicode="&#xfb01;" horiz-adv-x="1024" 
 />
    <glyph glyph-name="fl" unicode="&#xf002;" horiz-adv-x="1024" 
 />
    <glyph glyph-name="fl" unicode="&#xfb02;" horiz-adv-x="1024" 
 />
    <glyph glyph-name="commaaccent" unicode="&#xf004;" horiz-adv-x="682" 
 />
    <glyph glyph-name="undercommaaccent" unicode="&#xf005;" horiz-adv-x="682" 
 />
    <glyph glyph-name="pi1" horiz-adv-x="1124" 
 />
    <glyph glyph-name="middot" horiz-adv-x="682" 
 />
  </font>
</defs>
</svg>
