<?xml version="1.0" standalone="no"?>
<!DOCTYPE svg PUBLIC "-//W3C//DTD SVG 1.1//EN" "http://www.w3.org/Graphics/SVG/1.1/DTD/svg11.dtd" >
<svg xmlns="http://www.w3.org/2000/svg" xmlns:xlink="http://www.w3.org/1999/xlink" version="1.1">
<metadata>
Created by FontForge 20170731 at Fri Mar  3 02:36:15 2000
 By Aleksey,,,
Copyright (c) ShyFonts Type Foundry, 1999. All rights reserved.
</metadata>
<defs>
<font id="SFEspressoShackCondensed-Italic" horiz-adv-x="1229" >
  <font-face 
    font-family="SF Espresso Shack Condensed"
    font-weight="400"
    font-style="italic"
    font-stretch="normal"
    units-per-em="2048"
    panose-1="0 0 4 0 0 0 0 0 0 0"
    ascent="1638"
    descent="-410"
    x-height="1476"
    cap-height="1640"
    bbox="-108 -407 2315 2152"
    underline-thickness="20"
    underline-position="-163"
    slope="-11"
    unicode-range="U+0020-00FF"
  />
<missing-glyph horiz-adv-x="1024" 
 />
    <glyph glyph-name=".notdef" horiz-adv-x="1024" 
 />
    <glyph glyph-name=".null" horiz-adv-x="0" 
 />
    <glyph glyph-name="nonmarkingreturn" horiz-adv-x="682" 
 />
    <glyph glyph-name="space" unicode=" " horiz-adv-x="692" 
 />
    <glyph glyph-name="exclam" unicode="!" horiz-adv-x="430" 
d="M903 2050l-407 -1517h-277l407 1517h277zM410 245q0 -80 -56 -159q-62 -86 -139 -86q-97 0 -97 127q0 80 57 158q61 84 139 84q96 0 96 -124z" />
    <glyph glyph-name="quotedbl" unicode="&#x22;" horiz-adv-x="662" 
d="M1021 1515q0 -26 -8 -60q-11 -43 -35 -98.5t-62 -124.5q-88 -164 -146 -166q61 89 61 162q0 22 -6 43q-96 0 -96 127q0 78 57 158q61 84 138 84q97 0 97 -125zM714 1515q0 -26 -8 -60q-11 -43 -35 -98.5t-62 -124.5q-88 -164 -147 -166q62 92 62 161q0 21 -6 44
q-98 0 -98 127q0 79 58 158q63 84 139 84q97 0 97 -125z" />
    <glyph glyph-name="numbersign" unicode="#" horiz-adv-x="1127" 
d="M1417 1369l-66 -244h-184l-108 -268h220l-65 -244h-252l-107 -271h-183l107 271h-202l-109 -271h-183l108 271h-153l65 244h185l108 268h-221l66 244h253l109 271h183l-109 -271h203l107 271h183l-107 -271h152zM984 1125h-203l-107 -268h202z" />
    <glyph glyph-name="dollar" unicode="$" horiz-adv-x="653" 
d="M1010 1733l-56 -380q-81 0 -153 -27q-90 -34 -110 -96q-16 -51 -16 -131q0 -94 31 -270q16 -90 24 -156.5t8 -112.5q0 -379 -308 -552l-84 -312h-144l67 248q-95 -29 -186 -33l40 376q247 7 282 134q15 55 15 134q0 45 -8 111.5t-24 156.5t-24 156.5t-8 112.5
q0 360 290 530l87 326h139l-68 -254q114 36 206 39z" />
    <glyph glyph-name="percent" unicode="%" horiz-adv-x="1478" 
d="M1000 1366q0 -183 -124 -356q-136 -190 -310 -190q-111 0 -168 83q-49 71 -49 188q0 182 125 358q137 191 312 191q109 0 166 -85q48 -74 48 -189zM1594 1720l-1041 -1924l-228 127l1041 1924zM1568 544q0 -181 -126 -355q-137 -189 -309 -189q-110 0 -167 84
q-49 71 -49 187q0 67 19 139q39 150 150 272q124 138 266 138q109 0 166 -87q50 -74 50 -189zM806 1284q0 110 -86 110q-68 0 -122 -75q-51 -69 -51 -140q0 -113 85 -113q69 0 123 76q51 70 51 142zM1373 463q0 111 -86 111q-68 0 -123 -76q-51 -71 -51 -141q0 -111 86 -111
q69 0 124 76q50 70 50 141z" />
    <glyph glyph-name="ampersand" unicode="&#x26;" horiz-adv-x="1168" 
d="M1360 1005l-99 -369h-168q-41 -156 -41 -178q0 -65 41 -82q15 -7 97 -7l-99 -369h-6q-106 0 -153 16q-66 22 -118 95q-138 -111 -268 -111h-155q-133 0 -205 101q-63 88 -63 227q0 132 62 267q61 133 164 225q-45 76 -45 184q0 216 154 418q165 218 373 218h469l-99 -369
h-469q-54 0 -99 -62q-41 -58 -41 -114q0 -90 69 -90h699zM816 636h-254q-55 0 -100 -62q-41 -58 -41 -115q0 -90 69 -90h155q45 0 86 44q35 38 49 86z" />
    <glyph glyph-name="quotesingle" unicode="'" horiz-adv-x="353" 
d="M714 1515q0 -26 -8 -60q-11 -43 -35 -98.5t-62 -124.5q-88 -164 -147 -166q62 92 62 161q0 21 -6 44q-98 0 -98 127q0 79 58 158q63 84 139 84q97 0 97 -125z" />
    <glyph glyph-name="parenleft" unicode="(" horiz-adv-x="600" 
d="M962 1640q-338 -344 -466 -820q-63 -237 -63 -411q0 -207 90 -409l-270 -202q-113 249 -113 507q0 221 79 515q83 314 218 553q140 247 365 472z" />
    <glyph glyph-name="parenright" unicode=")" horiz-adv-x="600" 
d="M899 1337q0 -217 -80 -517q-86 -320 -217 -553q-137 -240 -364 -469l-162 202q181 184 290 376q109 194 176 444q63 237 63 410q0 211 -89 410l271 205q112 -240 112 -508z" />
    <glyph glyph-name="asterisk" unicode="*" horiz-adv-x="914" 
d="M1178 1277l-235 -150l155 -149l-149 -213l-155 149l-80 -299h-184l80 299l-236 -149l-36 213l236 149l-156 150l151 213l155 -150l80 300h184l-80 -300l235 150z" />
    <glyph glyph-name="plus" unicode="+" horiz-adv-x="845" 
d="M1027 964l-77 -287h-238l-85 -319h-216l85 319h-239l77 287h240l85 317h215l-85 -317h238z" />
    <glyph glyph-name="comma" unicode="," horiz-adv-x="353" 
d="M372 245q0 -15 -2 -30t-6 -31q-23 -86 -96 -221q-88 -163 -145 -165q60 90 60 160q0 22 -6 42q-97 0 -97 127q0 80 57 158q61 84 139 84q96 0 96 -124z" />
    <glyph glyph-name="hyphen" unicode="-" horiz-adv-x="845" 
d="M1027 964l-77 -287h-693l77 287h693z" />
    <glyph glyph-name="period" unicode="." horiz-adv-x="353" 
d="M372 245q0 -80 -56 -159q-62 -86 -139 -86q-97 0 -97 127q0 80 57 158q61 84 139 84q96 0 96 -124z" />
    <glyph glyph-name="slash" unicode="/" horiz-adv-x="788" 
d="M1248 1720l-1042 -1924l-226 127l1040 1924z" />
    <glyph glyph-name="zero" unicode="0" 
d="M1489 1100q0 -312 -183 -616q-118 -197 -290 -330q-199 -154 -401 -154q-214 0 -331 170q-103 148 -103 372q0 314 181 613q118 198 291 330q200 155 401 155q252 0 369 -242q66 -137 66 -298zM1192 967q0 127 -54 208q-63 96 -183 96q-155 0 -293 -152
q-123 -135 -166 -299q-20 -78 -20 -152q0 -127 55 -207q62 -92 183 -92q156 0 293 152q122 134 165 299q20 78 20 147z" />
    <glyph glyph-name="one" unicode="1" horiz-adv-x="430" 
d="M793 1640l-440 -1640h-277l440 1640h277z" />
    <glyph glyph-name="two" unicode="2" horiz-adv-x="1142" 
d="M1405 1110q0 -130 -36 -263q-86 -317 -296 -526q-121 -120 -489 -359h548l-99 -369h-1056l98 369l715 489q320 221 320 531q0 121 -53 198q-62 89 -177 89q-196 0 -345 -230l-195 174q282 427 642 427q206 0 322 -168q101 -146 101 -362z" />
    <glyph glyph-name="three" unicode="3" horiz-adv-x="1173" 
d="M1532 1640l-424 -592q198 -132 198 -422q0 -320 -186 -608q-58 -88 -127 -161t-150 -131q-187 -133 -376 -133q-328 0 -400 375l282 233q17 -239 219 -239q175 0 310 169q128 161 128 339q0 115 -52 186q-58 82 -168 82h-238l381 533h-513l100 369h1016z" />
    <glyph glyph-name="four" unicode="4" horiz-adv-x="1153" 
d="M1515 1640l-439 -1640h-276l82 307h-800l800 1333l212 -150l-487 -813h374l258 963h276z" />
    <glyph glyph-name="five" unicode="5" horiz-adv-x="1220" 
d="M1539 1640l-100 -369h-671l-84 -226q124 62 247 62q201 0 315 -158q102 -141 102 -350q0 -290 -171 -564q-116 -183 -282 -303q-190 -139 -385 -139q-331 0 -401 375l282 233q18 -239 225 -239q171 0 308 168q129 160 129 337q0 116 -57 190q-62 81 -175 81
q-125 0 -234 -96q-93 -80 -155 -208l-265 49l462 1157h910z" />
    <glyph glyph-name="six" unicode="6" 
d="M1377 686q0 -303 -167 -592q-117 -201 -294 -339q-206 -162 -411 -162q-213 0 -330 172q-103 149 -103 371q0 433 352 834q1 1 601 670l148 -238l-158 -178q182 -24 280 -194q82 -143 82 -344zM1083 562q0 127 -53 207q-61 94 -182 94q-154 0 -294 -152
q-123 -132 -167 -299q-20 -78 -20 -151q0 -127 54 -206q61 -91 184 -91q156 0 294 149q121 131 164 297q20 78 20 152z" />
    <glyph glyph-name="seven" unicode="7" horiz-adv-x="1058" 
d="M1613 1640l-1472 -2047l-198 193l1066 1485h-572l100 369h1076z" />
    <glyph glyph-name="eight" unicode="8" horiz-adv-x="1172" 
d="M1401 1275q0 -144 -75 -292q-70 -143 -183 -241q117 -117 117 -311q0 -103 -33 -226q-53 -194 -185 -341q-131 -147 -318 -221q-129 -50 -248 -50q-196 0 -321 119t-125 313q0 87 25 180q93 355 371 537q-55 91 -55 211q0 269 193 474q196 213 461 213q168 0 271 -97
q105 -101 105 -268zM1105 1164q0 71 -48 113q-47 39 -119 39q-110 0 -195 -82t-85 -190q0 -36 12.5 -64.5t34.5 -48.5t52.5 -30.5t66.5 -10.5q110 0 195 82q86 83 86 192zM938 319q0 93 -59 149q-58 55 -153 55q-142 0 -253 -113t-111 -254q0 -47 15 -83.5t43 -62t67 -39
t87 -13.5q144 0 253 109q111 109 111 252z" />
    <glyph glyph-name="nine" unicode="9" 
d="M1489 1100q0 -446 -354 -840l-600 -667l-150 238l160 175q-183 22 -281 194q-82 143 -82 345q0 318 188 623q121 195 288 322q196 150 396 150q252 0 369 -242q66 -137 66 -298zM1191 965q0 126 -53 208q-63 96 -183 96q-193 0 -341 -208q-137 -191 -137 -391
q0 -126 53 -208q62 -95 182 -95q193 0 341 208q138 190 138 390z" />
    <glyph glyph-name="colon" unicode=":" horiz-adv-x="353" 
d="M604 1106q0 -81 -57 -159q-63 -86 -140 -86q-97 0 -97 127q0 80 57 158q61 84 139 84q98 0 98 -124zM372 245q0 -80 -56 -159q-62 -86 -139 -86q-97 0 -97 127q0 80 57 158q61 84 139 84q96 0 96 -124z" />
    <glyph glyph-name="semicolon" unicode=";" horiz-adv-x="353" 
d="M604 1106q0 -81 -57 -159q-63 -86 -140 -86q-97 0 -97 127q0 80 57 158q61 84 139 84q98 0 98 -124zM372 245q0 -15 -2 -30t-6 -31q-23 -86 -96 -221q-88 -163 -145 -165q60 90 60 160q0 22 -6 42q-97 0 -97 127q0 80 57 158q61 84 139 84q96 0 96 -124z" />
    <glyph glyph-name="less" unicode="&#x3c;" horiz-adv-x="546" 
d="M837 1230l-341 -410l122 -410h-278l-121 410l341 410h277z" />
    <glyph glyph-name="equal" unicode="=" horiz-adv-x="845" 
d="M1093 1209l-77 -286h-693l77 286h693zM961 718l-77 -288h-693l77 288h693z" />
    <glyph glyph-name="greater" unicode="&#x3e;" horiz-adv-x="546" 
d="M765 820l-340 -410h-277l339 410l-120 410h278z" />
    <glyph glyph-name="question" unicode="?" horiz-adv-x="1118" 
d="M1520 1596q0 -313 -236 -576q-244 -271 -551 -271l-57 -216h-278l156 580h277q138 0 251 114q113 115 113 253q0 93 -60 149q-56 52 -152 52q-178 0 -294 -158l-239 158q112 160 274 260q176 109 358 109q198 0 319 -130q119 -127 119 -324zM590 245q0 -81 -57 -160
q-61 -85 -140 -85q-96 0 -96 127q0 79 57 157q61 85 138 85q98 0 98 -124z" />
    <glyph glyph-name="at" unicode="@" horiz-adv-x="999" 
d="M1209 1029q0 -237 -138 -463q-90 -149 -216 -246q-149 -115 -300 -115q-161 0 -249 127q-77 112 -77 279q0 228 129 449q88 152 220 255q151 120 306 120q159 0 248 -128q77 -113 77 -278zM1037 953q0 113 -47 184q-56 83 -163 83q-169 0 -303 -185q-123 -170 -123 -347
q0 -112 48 -185q56 -83 164 -83q66 0 138 39l-2 150h-172l-51 -92l-85 47l308 567h109l2 -589q177 175 177 411zM750 732l-1 197l-105 -197h106z" />
    <glyph glyph-name="A" unicode="A" horiz-adv-x="921" 
d="M1037 -282l-292 -125l-4 653h-463l-133 -246l-224 127l817 1513h293zM741 574l-2 525l-284 -525h286z" />
    <glyph glyph-name="B" unicode="B" horiz-adv-x="1191" 
d="M1460 1317q0 -133 -70 -263q-68 -127 -175 -209q84 -87 84 -226q0 -72 -24 -162q-46 -170 -183 -307q-152 -150 -316 -150h-700l440 1640h667q130 0 207 -98q70 -89 70 -225zM1154 1181q0 90 -68 90h-392l-71 -266h390q57 0 100 61q41 58 41 115zM1015 545q0 91 -70 91
h-421l-72 -267h422q57 0 100 61q41 56 41 115z" />
    <glyph glyph-name="C" unicode="C" horiz-adv-x="999" 
d="M1362 1640l-99 -369h-308q-138 0 -274 -133q-94 -91 -149 -217q-56 -129 -56 -254q0 -127 55 -206q62 -92 183 -92h308l-99 -369h-308q-213 0 -331 169q-104 149 -104 371q0 318 184 619q120 196 290 327q199 154 400 154h308z" />
    <glyph glyph-name="D" unicode="D" horiz-adv-x="1153" 
d="M1410 1094q0 -300 -171 -594q-119 -203 -292 -340q-202 -160 -408 -160h-463l440 1640h462q211 0 330 -174q102 -150 102 -372zM1115 968q0 126 -53 208q-63 95 -183 95h-185l-242 -902h186q155 0 293 153q120 132 164 298q20 78 20 148z" />
    <glyph glyph-name="E" unicode="E" horiz-adv-x="1076" 
d="M1438 1640l-99 -369h-645l-71 -266h491l-99 -369h-491l-72 -267h646l-99 -369h-923l440 1640h922z" />
    <glyph glyph-name="F" unicode="F" horiz-adv-x="1015" 
d="M1438 1640l-99 -369h-645l-71 -266h491l-99 -369h-491l-171 -636h-277l440 1640h922z" />
    <glyph glyph-name="G" unicode="G" horiz-adv-x="1153" 
d="M1515 1640l-99 -369h-461q-156 0 -293 -152q-121 -133 -166 -299q-20 -78 -20 -152q0 -127 55 -207q62 -92 183 -92h185l71 267h-185l99 369h461l-378 -1412h-276l109 407h-185q-214 0 -331 170q-103 148 -103 372q0 302 172 597q118 202 293 340q203 161 408 161h461z
" />
    <glyph glyph-name="H" unicode="H" 
d="M1593 1640l-440 -1640h-277l170 636h-522l-171 -636h-277l440 1640h277l-170 -635h522l170 635h278z" />
    <glyph glyph-name="I" unicode="I" horiz-adv-x="430" 
d="M793 1640l-440 -1640h-277l440 1640h277z" />
    <glyph glyph-name="J" unicode="J" horiz-adv-x="692" 
d="M1054 1640l-357 -1333q-70 -263 -263 -473q-219 -241 -466 -241l98 369q121 0 227 115q93 102 127 230l358 1333h276z" />
    <glyph glyph-name="K" unicode="K" 
d="M1522 1379l-674 -661l420 -864l-265 -261l-420 864l-146 -144l-84 -313h-277l440 1640h277l-216 -805l820 805z" />
    <glyph glyph-name="L" unicode="L" horiz-adv-x="999" 
d="M1098 369l-99 -369h-923l440 1640h277l-341 -1271h646z" />
    <glyph glyph-name="M" unicode="M" horiz-adv-x="1314" 
d="M1571 1640l-272 -1983l-289 -64l190 1395l-499 -810l-66 810l-412 -1024l-252 61l644 1615h272l48 -588l364 588h272z" />
    <glyph glyph-name="N" unicode="N" 
d="M1593 1640l-440 -1640h-277l-263 966l-260 -966h-277l440 1640h277l264 -965l258 965h278z" />
    <glyph glyph-name="O" unicode="O" 
d="M1489 1100q0 -312 -183 -616q-118 -197 -290 -330q-199 -154 -401 -154q-214 0 -331 170q-103 148 -103 372q0 314 181 613q118 198 291 330q200 155 401 155q252 0 369 -242q66 -137 66 -298zM1192 967q0 127 -54 208q-63 96 -183 96q-155 0 -293 -152
q-123 -135 -166 -299q-20 -78 -20 -152q0 -127 55 -207q62 -92 183 -92q156 0 293 152q122 134 165 299q20 78 20 147z" />
    <glyph glyph-name="P" unicode="P" horiz-adv-x="1168" 
d="M1456 1234q0 -229 -129 -449q-89 -154 -219 -254q-151 -121 -306 -121h-339l-110 -410h-277l440 1640h615q159 0 248 -128q77 -112 77 -278zM1160 1102q0 68 -29 115q-35 54 -99 54h-338l-132 -492h338q101 0 184 113q76 103 76 210z" />
    <glyph glyph-name="Q" unicode="Q" horiz-adv-x="1268" 
d="M1489 1101q0 -244 -120 -496q-117 -248 -305 -412l165 -339l-265 -261l-209 427q-69 -20 -140 -20q-214 0 -331 170q-103 148 -103 372q0 325 193 632q121 191 288 317q197 149 392 149q250 0 369 -242q66 -135 66 -297zM1192 967q0 127 -54 208q-63 96 -183 96
q-155 0 -293 -152q-123 -135 -166 -299q-20 -78 -20 -152q0 -127 55 -207q62 -92 183 -92q156 0 293 152q122 134 165 299q20 78 20 147z" />
    <glyph glyph-name="R" unicode="R" horiz-adv-x="1191" 
d="M1456 1234q0 -263 -171 -513q-183 -269 -431 -307l270 -558l-265 -263l-396 817l-110 -410h-277l440 1640h615q159 0 248 -128q77 -113 77 -278zM1160 1102q0 68 -29 115q-35 54 -99 54h-338l-132 -492h338q101 0 184 113q76 103 76 210z" />
    <glyph glyph-name="S" unicode="S" horiz-adv-x="653" 
d="M1010 1733l-56 -380q-81 0 -153 -27q-90 -34 -110 -96q-16 -51 -16 -131q0 -94 31 -270q16 -90 24 -156.5t8 -112.5q0 -493 -493 -622q-86 -23 -162 -27l40 376q244 7 279 123q18 58 18 145q0 45 -8 111.5t-24 156.5t-24 156.5t-8 112.5q0 237 131 397q127 154 361 217
q88 24 162 27z" />
    <glyph glyph-name="T" unicode="T" horiz-adv-x="1076" 
d="M1515 1640l-99 -369h-399l-340 -1271h-278l341 1271h-400l99 369h1076z" />
    <glyph glyph-name="U" unicode="U" horiz-adv-x="1153" 
d="M1555 1640l-248 -922q-46 -170 -139 -317q-105 -166 -250 -274q-169 -127 -341 -127q-187 0 -290 148q-91 130 -91 324q0 120 34 246l247 922h278l-248 -922q-15 -56 -15 -115q0 -100 42 -161q49 -73 142 -73q120 0 227 117q93 105 127 232l247 922h278z" />
    <glyph glyph-name="V" unicode="V" horiz-adv-x="921" 
d="M1629 1925l-1037 -1925h-294l-7 1512l294 128l5 -1098l813 1508z" />
    <glyph glyph-name="W" unicode="W" horiz-adv-x="1414" 
d="M2122 1925l-1037 -1925h-293l-2 365l-198 -365h-294l-7 1512l294 128l5 -1100l197 364l-3 608l293 128l1 -197l107 197l225 -128l-329 -608l2 -362l813 1508z" />
    <glyph glyph-name="X" unicode="X" horiz-adv-x="1039" 
d="M1434 1476l-520 -656l264 -1016l-282 -211l-235 907l-453 -565l-170 208l540 677l-175 686l284 212l146 -576l432 546z" />
    <glyph glyph-name="Y" unicode="Y" horiz-adv-x="996" 
d="M1571 1428l-1459 -1835l-167 211l587 742l-225 882l282 212l198 -773l614 773z" />
    <glyph glyph-name="Z" unicode="Z" 
d="M1593 1640l-913 -1271h572l-99 -369h-1077l913 1271h-573l100 369h1077z" />
    <glyph glyph-name="bracketleft" unicode="[" horiz-adv-x="738" 
d="M1156 1845l-99 -369h-308l-352 -1312h309l-98 -366h-586l549 2047h585z" />
    <glyph glyph-name="backslash" unicode="\" horiz-adv-x="788" 
d="M767 -77l-297 -127l-10 1924l296 127z" />
    <glyph glyph-name="bracketright" unicode="]" horiz-adv-x="738" 
d="M1156 1845l-548 -2047h-586l98 366h308l352 1312h-309l100 369h585z" />
    <glyph glyph-name="asciicircum" unicode="^" horiz-adv-x="692" 
d="M1059 1517l-110 -185l-218 103l-274 -103l-13 185l280 123h123z" />
    <glyph glyph-name="underscore" unicode="_" horiz-adv-x="692" 
d="M660 -120l-77 -287h-691l77 287h691z" />
    <glyph glyph-name="grave" unicode="`" horiz-adv-x="596" 
d="M1051 1845l-43 -102h-504l84 307z" />
    <glyph glyph-name="a" unicode="a" horiz-adv-x="829" 
d="M934 -253l-265 -113l-2 587h-418l-119 -221l-199 115l733 1361h264zM668 517l-4 471l-256 -471h260z" />
    <glyph glyph-name="b" unicode="b" horiz-adv-x="1071" 
d="M1314 1185q0 -119 -62 -235q-62 -117 -158 -189q74 -77 74 -203q0 -194 -138 -369q-146 -189 -332 -189h-629l395 1476h602q118 0 186 -89q62 -82 62 -202zM1039 1061q0 83 -60 83h-354l-64 -240h352q50 0 89 55q37 49 37 102zM914 490q0 82 -60 82h-383l-64 -240h380
q50 0 90 55q37 50 37 103z" />
    <glyph glyph-name="c" unicode="c" horiz-adv-x="899" 
d="M1225 1476l-89 -332h-276q-172 0 -306 -188q-125 -173 -125 -352q0 -115 48 -187q57 -85 166 -85h276l-89 -332h-276q-193 0 -299 151q-93 133 -93 333q0 285 166 559q107 176 261 295q180 138 360 138h276z" />
    <glyph glyph-name="d" unicode="d" horiz-adv-x="1037" 
d="M1269 987q0 -282 -166 -556q-106 -177 -259 -294q-179 -137 -360 -137h-415l395 1476h416q189 0 296 -155q93 -135 93 -334zM1004 873q0 114 -48 186q-55 85 -165 85h-166l-218 -812h167q172 0 307 189q123 172 123 352z" />
    <glyph glyph-name="e" unicode="e" horiz-adv-x="968" 
d="M1294 1476l-89 -332h-580l-64 -240h442l-89 -332h-443l-64 -240h581l-89 -332h-830l395 1476h830z" />
    <glyph glyph-name="f" unicode="f" horiz-adv-x="914" 
d="M1294 1476l-89 -332h-580l-64 -240h442l-89 -332h-443l-153 -572h-249l395 1476h830z" />
    <glyph glyph-name="g" unicode="g" horiz-adv-x="1037" 
d="M1363 1476l-89 -332h-414q-171 0 -306 -188q-125 -173 -125 -351q0 -115 48 -188q58 -85 166 -85h165l64 240h-165l89 332h414l-340 -1270h-249l98 366h-165q-193 0 -299 151q-93 133 -93 333q0 273 156 542q106 182 263 306q183 144 368 144h414z" />
    <glyph glyph-name="h" unicode="h" horiz-adv-x="1107" 
d="M1432 1476l-395 -1476h-248l153 572h-471l-153 -572h-249l395 1476h250l-153 -572h470l153 572h248z" />
    <glyph glyph-name="i" unicode="i" horiz-adv-x="387" 
d="M714 1476l-396 -1476h-249l395 1476h250z" />
    <glyph glyph-name="j" unicode="j" horiz-adv-x="623" 
d="M949 1476l-321 -1200q-65 -238 -237 -425q-198 -217 -419 -217l88 332q110 0 204 103q82 91 114 207l322 1200h249z" />
    <glyph glyph-name="k" unicode="k" horiz-adv-x="1107" 
d="M1370 1242l-607 -596l377 -778l-237 -234l-377 778l-132 -129l-76 -283h-249l395 1476h250l-194 -725l738 725z" />
    <glyph glyph-name="l" unicode="l" horiz-adv-x="899" 
d="M988 332l-89 -332h-830l395 1476h250l-307 -1144h581z" />
    <glyph glyph-name="m" unicode="m" horiz-adv-x="1182" 
d="M1413 1476l-245 -1784l-259 -58l171 1256l-450 -730l-58 730l-370 -922l-227 55l579 1453h245l41 -529l328 529h245z" />
    <glyph glyph-name="n" unicode="n" horiz-adv-x="1107" 
d="M1432 1476l-395 -1476h-248l-237 869l-234 -869h-249l395 1476h250l237 -869l233 869h248z" />
    <glyph glyph-name="o" unicode="o" horiz-adv-x="1107" 
d="M1339 986q0 -281 -165 -554q-108 -176 -260 -294q-180 -138 -360 -138q-193 0 -299 151q-93 133 -93 333q0 273 156 542q106 182 263 306q183 144 368 144q190 0 297 -155q93 -137 93 -335zM1073 873q0 114 -48 186q-55 85 -165 85q-171 0 -306 -188q-125 -173 -125 -351
q0 -115 48 -188q58 -85 166 -85q172 0 307 189q123 172 123 352z" />
    <glyph glyph-name="p" unicode="p" horiz-adv-x="1052" 
d="M1308 1103q0 -89 -24 -180q-52 -202 -202 -367q-169 -187 -360 -187h-305l-99 -369h-249l395 1476h554q148 0 224 -118q66 -101 66 -255zM1045 993q0 151 -116 151h-304l-119 -443h305q92 0 166 102q68 95 68 190z" />
    <glyph glyph-name="q" unicode="q" horiz-adv-x="1141" 
d="M1339 986q0 -226 -106 -445q-103 -215 -276 -367l148 -306l-238 -234l-187 384q-65 -18 -126 -18q-192 0 -299 152q-92 134 -92 334q0 297 178 577q108 171 258 282q176 131 350 131q190 0 297 -155q93 -137 93 -335zM1073 873q0 114 -48 186q-55 85 -165 85
q-171 0 -306 -188q-125 -173 -125 -351q0 -115 48 -188q58 -85 166 -85q172 0 307 189q123 172 123 352z" />
    <glyph glyph-name="r" unicode="r" horiz-adv-x="1071" 
d="M1308 1103q0 -233 -154 -457q-165 -243 -385 -273l243 -503l-238 -236l-357 735l-99 -369h-249l395 1476h554q148 0 224 -118q66 -101 66 -255zM1045 993q0 151 -116 151h-304l-119 -443h305q92 0 166 102q68 95 68 190z" />
    <glyph glyph-name="s" unicode="s" horiz-adv-x="587" 
d="M908 1558l-49 -340q-74 0 -138 -24q-84 -30 -100 -87q-13 -42 -13 -115q0 -42 7 -102.5t21 -141.5t21 -142.5t7 -103.5q0 -439 -443 -558q-86 -23 -145 -23l34 337q221 11 251 111q16 51 16 133q0 80 -29 240q-14 80 -21 139.5t-7 100.5q0 216 118 359q116 140 326 194
q86 23 144 23z" />
    <glyph glyph-name="t" unicode="t" horiz-adv-x="968" 
d="M1363 1476l-89 -332h-359l-306 -1144h-250l307 1144h-360l89 332h968z" />
    <glyph glyph-name="u" unicode="u" horiz-adv-x="1037" 
d="M1397 1476l-222 -830q-65 -242 -236 -430q-197 -216 -421 -216q-170 0 -261 133q-81 115 -81 291q0 108 31 222l222 830h250l-223 -830q-14 -54 -14 -104q0 -90 37 -145q44 -65 128 -65q108 0 204 105q84 93 116 209l222 830h248z" />
    <glyph glyph-name="v" unicode="v" horiz-adv-x="829" 
d="M1466 1733l-933 -1733h-265l-5 1361l263 115l4 -989l731 1358z" />
    <glyph glyph-name="w" unicode="w" horiz-adv-x="1273" 
d="M1910 1733l-934 -1733h-264l-1 328l-178 -328h-265l-5 1361l263 115l6 -991l177 329l-4 547l264 115l2 -177l95 177l203 -115l-296 -547l1 -327l732 1358z" />
    <glyph glyph-name="x" unicode="x" horiz-adv-x="935" 
d="M1291 1328l-468 -590l239 -913l-255 -191l-210 817l-411 -509l-151 187l485 609l-157 617l254 191l134 -519l388 492z" />
    <glyph glyph-name="y" unicode="y" horiz-adv-x="896" 
d="M1414 1285l-1313 -1651l-150 191l527 664l-201 796l252 191l180 -695l552 695z" />
    <glyph glyph-name="z" unicode="z" horiz-adv-x="1107" 
d="M1432 1476l-820 -1144h514l-89 -332h-968l821 1144h-515l89 332h968z" />
    <glyph glyph-name="braceleft" unicode="{" horiz-adv-x="830" 
d="M1248 1845l-99 -369h-262q-45 0 -62 -62l-105 -389q-19 -76 -75 -136q-62 -69 -134 -69q109 0 109 -137q0 -34 -9 -68l-106 -390q-4 -13 -4 -27q0 -34 35 -34h262l-98 -366h-309q-95 0 -149 75q-47 67 -47 164q0 59 18 127l93 349q10 36 10 70q0 54 -26 92q-30 43 -83 43
l55 205q71 0 134 69q55 60 75 135l94 349q40 154 150 261q109 108 225 108h308z" />
    <glyph glyph-name="bar" unicode="|" horiz-adv-x="430" 
d="M848 1845l-549 -2047h-277l549 2047h277z" />
    <glyph glyph-name="braceright" unicode="}" horiz-adv-x="830" 
d="M1074 1599q0 -57 -17 -123l-93 -349q-10 -36 -10 -69q0 -54 26 -92q30 -43 82 -43l-55 -205q-70 0 -133 -69q-56 -62 -75 -136l-93 -349q-41 -152 -152 -259q-112 -107 -224 -107h-308l98 366h262q46 0 62 61l106 390q19 76 75 136q61 69 133 69q-107 0 -107 138
q0 35 8 67l105 389q4 13 4 28q0 34 -34 34h-263l100 369h308q96 0 149 -78q46 -67 46 -168z" />
    <glyph glyph-name="asciitilde" unicode="~" horiz-adv-x="769" 
d="M1170 1640l-66 -246q-127 -103 -258 -103q-42 0 -102 51q-59 52 -102 52q-128 0 -258 -103l66 247q129 102 258 102q42 0 102 -51t102 -51q130 0 258 102z" />
    <glyph glyph-name="quotesinglbase" horiz-adv-x="353" 
d="M372 245q0 -15 -2 -30t-6 -31q-23 -86 -96 -221q-88 -163 -145 -165q60 90 60 160q0 22 -6 42q-97 0 -97 127q0 80 57 158q61 84 139 84q96 0 96 -124z" />
    <glyph glyph-name="quotesinglbase" unicode="&#x201a;" horiz-adv-x="353" 
d="M372 245q0 -15 -2 -30t-6 -31q-23 -86 -96 -221q-88 -163 -145 -165q60 90 60 160q0 22 -6 42q-97 0 -97 127q0 80 57 158q61 84 139 84q96 0 96 -124z" />
    <glyph glyph-name="quotedblbase" horiz-adv-x="662" 
d="M680 245q0 -15 -2 -30t-6 -31q-23 -86 -96 -221q-90 -163 -146 -165q60 88 60 160q0 24 -6 42q-96 0 -96 127q0 79 57 157q61 85 139 85q96 0 96 -124zM372 245q0 -15 -2 -30t-6 -31q-23 -86 -96 -221q-88 -163 -145 -165q60 90 60 160q0 22 -6 42q-97 0 -97 127
q0 80 57 158q61 84 139 84q96 0 96 -124z" />
    <glyph glyph-name="quotedblbase" unicode="&#x201e;" horiz-adv-x="662" 
d="M680 245q0 -15 -2 -30t-6 -31q-23 -86 -96 -221q-90 -163 -146 -165q60 88 60 160q0 24 -6 42q-96 0 -96 127q0 79 57 157q61 85 139 85q96 0 96 -124zM372 245q0 -15 -2 -30t-6 -31q-23 -86 -96 -221q-88 -163 -145 -165q60 90 60 160q0 22 -6 42q-97 0 -97 127
q0 80 57 158q61 84 139 84q96 0 96 -124z" />
    <glyph glyph-name="ellipsis" unicode="&#x85;" horiz-adv-x="968" 
d="M987 245q0 -80 -56 -159q-62 -86 -139 -86q-97 0 -97 127q0 80 57 158q61 84 139 84q96 0 96 -124zM680 245q0 -80 -56 -159q-62 -86 -140 -86q-96 0 -96 127q0 79 57 157q61 85 139 85q96 0 96 -124zM372 245q0 -80 -56 -159q-62 -86 -139 -86q-97 0 -97 127
q0 80 57 158q61 84 139 84q96 0 96 -124z" />
    <glyph glyph-name="ellipsis" unicode="&#x2026;" horiz-adv-x="968" 
d="M987 245q0 -80 -56 -159q-62 -86 -139 -86q-97 0 -97 127q0 80 57 158q61 84 139 84q96 0 96 -124zM680 245q0 -80 -56 -159q-62 -86 -140 -86q-96 0 -96 127q0 79 57 157q61 85 139 85q96 0 96 -124zM372 245q0 -80 -56 -159q-62 -86 -139 -86q-97 0 -97 127
q0 80 57 158q61 84 139 84q96 0 96 -124z" />
    <glyph glyph-name="circumflex" horiz-adv-x="692" 
d="M1169 1927l-111 -184l-217 102l-274 -102l-12 184l279 123h123z" />
    <glyph glyph-name="circumflex" unicode="&#x2c6;" horiz-adv-x="692" 
d="M1169 1927l-111 -184l-217 102l-274 -102l-12 184l279 123h123z" />
    <glyph glyph-name="perthousand" horiz-adv-x="2124" 
d="M2213 543q0 -181 -125 -354q-137 -189 -309 -189q-110 0 -167 83q-49 71 -49 187q0 184 124 359q137 191 311 191q109 0 166 -87q49 -74 49 -190zM1000 1366q0 -183 -124 -356q-136 -190 -310 -190q-111 0 -168 83q-49 71 -49 188q0 182 125 358q137 191 312 191
q109 0 166 -85q48 -74 48 -189zM1594 1720l-1041 -1924l-228 127l1041 1924zM1568 544q0 -181 -126 -355q-137 -189 -309 -189q-110 0 -167 84q-49 71 -49 187q0 67 19 139q39 150 150 272q124 138 266 138q109 0 166 -87q50 -74 50 -189zM2019 462q0 112 -86 112
q-68 0 -124 -77q-50 -70 -50 -141q0 -110 86 -110q69 0 123 75q51 70 51 141zM806 1284q0 110 -86 110q-68 0 -122 -75q-51 -69 -51 -140q0 -113 85 -113q69 0 123 76q51 70 51 142zM1373 463q0 111 -86 111q-68 0 -123 -76q-51 -71 -51 -141q0 -111 86 -111q69 0 124 76
q50 70 50 141z" />
    <glyph glyph-name="perthousand" unicode="&#x2030;" horiz-adv-x="2124" 
d="M2213 543q0 -181 -125 -354q-137 -189 -309 -189q-110 0 -167 83q-49 71 -49 187q0 184 124 359q137 191 311 191q109 0 166 -87q49 -74 49 -190zM1000 1366q0 -183 -124 -356q-136 -190 -310 -190q-111 0 -168 83q-49 71 -49 188q0 182 125 358q137 191 312 191
q109 0 166 -85q48 -74 48 -189zM1594 1720l-1041 -1924l-228 127l1041 1924zM1568 544q0 -181 -126 -355q-137 -189 -309 -189q-110 0 -167 84q-49 71 -49 187q0 67 19 139q39 150 150 272q124 138 266 138q109 0 166 -87q50 -74 50 -189zM2019 462q0 112 -86 112
q-68 0 -124 -77q-50 -70 -50 -141q0 -110 86 -110q69 0 123 75q51 70 51 141zM806 1284q0 110 -86 110q-68 0 -122 -75q-51 -69 -51 -140q0 -113 85 -113q69 0 123 76q51 70 51 142zM1373 463q0 111 -86 111q-68 0 -123 -76q-51 -71 -51 -141q0 -111 86 -111q69 0 124 76
q50 70 50 141z" />
    <glyph glyph-name="Scaron" horiz-adv-x="653" 
d="M1162 1968l-279 -123h-123l-212 123l111 184l218 -102l273 102zM1010 1733l-56 -380q-81 0 -153 -27q-90 -34 -110 -96q-16 -51 -16 -131q0 -94 31 -270q16 -90 24 -156.5t8 -112.5q0 -493 -493 -622q-86 -23 -162 -27l40 376q244 7 279 123q18 58 18 145q0 45 -8 111.5
t-24 156.5t-24 156.5t-8 112.5q0 237 131 397q127 154 361 217q88 24 162 27z" />
    <glyph glyph-name="Scaron" unicode="&#x160;" horiz-adv-x="653" 
d="M1162 1968l-279 -123h-123l-212 123l111 184l218 -102l273 102zM1010 1733l-56 -380q-81 0 -153 -27q-90 -34 -110 -96q-16 -51 -16 -131q0 -94 31 -270q16 -90 24 -156.5t8 -112.5q0 -493 -493 -622q-86 -23 -162 -27l40 376q244 7 279 123q18 58 18 145q0 45 -8 111.5
t-24 156.5t-24 156.5t-8 112.5q0 237 131 397q127 154 361 217q88 24 162 27z" />
    <glyph glyph-name="guilsinglleft" horiz-adv-x="546" 
d="M837 1230l-341 -410l122 -410h-278l-121 410l341 410h277z" />
    <glyph glyph-name="guilsinglleft" unicode="&#x2039;" horiz-adv-x="546" 
d="M837 1230l-341 -410l122 -410h-278l-121 410l341 410h277z" />
    <glyph glyph-name="OE" horiz-adv-x="1953" 
d="M2315 1640l-99 -369h-646l-72 -266h493l-99 -369h-493l-71 -267h647l-99 -369h-923l36 135q-191 -135 -374 -135q-212 0 -331 170q-103 148 -103 371q0 312 179 611q118 199 291 331q200 157 403 157q184 0 302 -136l36 136h923zM1192 967q0 127 -54 208q-63 96 -183 96
q-155 0 -293 -152q-123 -135 -166 -299q-20 -78 -20 -152q0 -127 55 -207q62 -92 183 -92q156 0 293 152q122 134 165 299q20 78 20 147z" />
    <glyph glyph-name="OE" unicode="&#x152;" horiz-adv-x="1953" 
d="M2315 1640l-99 -369h-646l-72 -266h493l-99 -369h-493l-71 -267h647l-99 -369h-923l36 135q-191 -135 -374 -135q-212 0 -331 170q-103 148 -103 371q0 312 179 611q118 199 291 331q200 157 403 157q184 0 302 -136l36 136h923zM1192 967q0 127 -54 208q-63 96 -183 96
q-155 0 -293 -152q-123 -135 -166 -299q-20 -78 -20 -152q0 -127 55 -207q62 -92 183 -92q156 0 293 152q122 134 165 299q20 78 20 147z" />
    <glyph glyph-name="quoteleft" horiz-adv-x="353" 
d="M659 1311q0 -81 -57 -159q-62 -86 -140 -86q-97 0 -97 127q0 23 8 57q22 87 96 224q90 165 148 166q-61 -88 -61 -160q0 -26 6 -45q97 0 97 -124z" />
    <glyph glyph-name="quoteleft" unicode="&#x2018;" horiz-adv-x="353" 
d="M659 1311q0 -81 -57 -159q-62 -86 -140 -86q-97 0 -97 127q0 23 8 57q22 87 96 224q90 165 148 166q-61 -88 -61 -160q0 -26 6 -45q97 0 97 -124z" />
    <glyph glyph-name="quoteright" horiz-adv-x="353" 
d="M714 1515q0 -26 -8 -60q-11 -43 -35 -98.5t-62 -124.5q-88 -164 -147 -166q62 92 62 161q0 21 -6 44q-98 0 -98 127q0 79 58 158q63 84 139 84q97 0 97 -125z" />
    <glyph glyph-name="quoteright" unicode="&#x2019;" horiz-adv-x="353" 
d="M714 1515q0 -26 -8 -60q-11 -43 -35 -98.5t-62 -124.5q-88 -164 -147 -166q62 92 62 161q0 21 -6 44q-98 0 -98 127q0 79 58 158q63 84 139 84q97 0 97 -125z" />
    <glyph glyph-name="quotedblleft" horiz-adv-x="662" 
d="M966 1311q0 -81 -57 -159q-62 -86 -139 -86q-96 0 -96 127q0 23 8 57q22 86 96 223q88 165 146 167q-61 -91 -61 -159q0 -25 6 -46q97 0 97 -124zM659 1311q0 -81 -57 -159q-62 -86 -140 -86q-97 0 -97 127q0 23 8 57q22 87 96 224q90 165 148 166q-61 -88 -61 -160
q0 -26 6 -45q97 0 97 -124z" />
    <glyph glyph-name="quotedblleft" unicode="&#x201c;" horiz-adv-x="662" 
d="M966 1311q0 -81 -57 -159q-62 -86 -139 -86q-96 0 -96 127q0 23 8 57q22 86 96 223q88 165 146 167q-61 -91 -61 -159q0 -25 6 -46q97 0 97 -124zM659 1311q0 -81 -57 -159q-62 -86 -140 -86q-97 0 -97 127q0 23 8 57q22 87 96 224q90 165 148 166q-61 -88 -61 -160
q0 -26 6 -45q97 0 97 -124z" />
    <glyph glyph-name="quotedblright" horiz-adv-x="662" 
d="M1021 1515q0 -26 -8 -60q-11 -43 -35 -98.5t-62 -124.5q-88 -164 -146 -166q61 89 61 162q0 22 -6 43q-96 0 -96 127q0 78 57 158q61 84 138 84q97 0 97 -125zM714 1515q0 -26 -8 -60q-11 -43 -35 -98.5t-62 -124.5q-88 -164 -147 -166q62 92 62 161q0 21 -6 44
q-98 0 -98 127q0 79 58 158q63 84 139 84q97 0 97 -125z" />
    <glyph glyph-name="quotedblright" unicode="&#x201d;" horiz-adv-x="662" 
d="M1021 1515q0 -26 -8 -60q-11 -43 -35 -98.5t-62 -124.5q-88 -164 -146 -166q61 89 61 162q0 22 -6 43q-96 0 -96 127q0 78 57 158q61 84 138 84q97 0 97 -125zM714 1515q0 -26 -8 -60q-11 -43 -35 -98.5t-62 -124.5q-88 -164 -147 -166q62 92 62 161q0 21 -6 44
q-98 0 -98 127q0 79 58 158q63 84 139 84q97 0 97 -125z" />
    <glyph glyph-name="bullet" horiz-adv-x="845" 
d="M1049 993q0 -83 -23 -173q-49 -188 -187 -341q-156 -172 -335 -172q-137 0 -208 107q-61 91 -61 236q0 88 22 170q50 189 187 340q157 172 336 172q137 0 208 -105q61 -89 61 -234z" />
    <glyph glyph-name="bullet" unicode="&#x2022;" horiz-adv-x="845" 
d="M1049 993q0 -83 -23 -173q-49 -188 -187 -341q-156 -172 -335 -172q-137 0 -208 107q-61 91 -61 236q0 88 22 170q50 189 187 340q157 172 336 172q137 0 208 -105q61 -89 61 -234z" />
    <glyph glyph-name="endash" horiz-adv-x="769" 
d="M950 964l-77 -287h-616l77 287h616z" />
    <glyph glyph-name="endash" unicode="&#x2013;" horiz-adv-x="769" 
d="M950 964l-77 -287h-616l77 287h616z" />
    <glyph glyph-name="emdash" horiz-adv-x="999" 
d="M1181 964l-77 -287h-847l77 287h847z" />
    <glyph glyph-name="emdash" unicode="&#x2014;" horiz-adv-x="999" 
d="M1181 964l-77 -287h-847l77 287h847z" />
    <glyph glyph-name="tilde" horiz-adv-x="769" 
d="M1307 2152l-66 -245q-127 -103 -258 -103q-42 0 -102 51q-59 52 -102 52q-129 0 -257 -103l66 246q127 102 257 102q42 0 102 -51t102 -51q130 0 258 102z" />
    <glyph glyph-name="tilde" unicode="&#x2dc;" horiz-adv-x="769" 
d="M1307 2152l-66 -245q-127 -103 -258 -103q-42 0 -102 51q-59 52 -102 52q-129 0 -257 -103l66 246q127 102 257 102q42 0 102 -51t102 -51q130 0 258 102z" />
    <glyph glyph-name="trademark" horiz-adv-x="936" 
d="M1240 1640l-102 -744l-108 -25l72 525l-188 -303l-25 303l-154 -385l-96 24l188 467h-132l-128 -477h-104l129 477h-152l37 138h507l17 -222l136 222h103z" />
    <glyph glyph-name="trademark" unicode="&#x2122;" horiz-adv-x="936" 
d="M1240 1640l-102 -744l-108 -25l72 525l-188 -303l-25 303l-154 -385l-96 24l188 467h-132l-128 -477h-104l129 477h-152l37 138h507l17 -222l136 222h103z" />
    <glyph glyph-name="scaron" horiz-adv-x="587" 
d="M1046 1771l-250 -110h-111l-192 110l99 166l198 -92l245 92zM908 1558l-49 -340q-74 0 -138 -24q-84 -30 -100 -87q-13 -42 -13 -115q0 -42 7 -102.5t21 -141.5t21 -142.5t7 -103.5q0 -439 -443 -558q-86 -23 -145 -23l34 337q221 11 251 111q16 51 16 133q0 80 -29 240
q-14 80 -21 139.5t-7 100.5q0 216 118 359q116 140 326 194q86 23 144 23z" />
    <glyph glyph-name="scaron" unicode="&#x161;" horiz-adv-x="587" 
d="M1046 1771l-250 -110h-111l-192 110l99 166l198 -92l245 92zM908 1558l-49 -340q-74 0 -138 -24q-84 -30 -100 -87q-13 -42 -13 -115q0 -42 7 -102.5t21 -141.5t21 -142.5t7 -103.5q0 -439 -443 -558q-86 -23 -145 -23l34 337q221 11 251 111q16 51 16 133q0 80 -29 240
q-14 80 -21 139.5t-7 100.5q0 216 118 359q116 140 326 194q86 23 144 23z" />
    <glyph glyph-name="guilsinglright" horiz-adv-x="546" 
d="M765 820l-340 -410h-277l339 410l-120 410h278z" />
    <glyph glyph-name="guilsinglright" unicode="&#x203a;" horiz-adv-x="546" 
d="M765 820l-340 -410h-277l339 410l-120 410h278z" />
    <glyph glyph-name="oe" horiz-adv-x="1758" 
d="M2084 1476l-89 -332h-582l-64 -240h443l-89 -332h-443l-64 -240h582l-89 -332h-831l32 121q-170 -121 -336 -121q-193 0 -299 151q-93 133 -93 333q0 282 163 553q109 182 262 299q181 140 362 140q166 0 272 -121l32 121h831zM1073 873q0 114 -48 186q-55 85 -165 85
q-171 0 -306 -188q-125 -173 -125 -351q0 -115 48 -188q58 -85 166 -85q172 0 307 189q123 172 123 352z" />
    <glyph glyph-name="oe" unicode="&#x153;" horiz-adv-x="1758" 
d="M2084 1476l-89 -332h-582l-64 -240h443l-89 -332h-443l-64 -240h582l-89 -332h-831l32 121q-170 -121 -336 -121q-193 0 -299 151q-93 133 -93 333q0 282 163 553q109 182 262 299q181 140 362 140q166 0 272 -121l32 121h831zM1073 873q0 114 -48 186q-55 85 -165 85
q-171 0 -306 -188q-125 -173 -125 -351q0 -115 48 -188q58 -85 166 -85q172 0 307 189q123 172 123 352z" />
    <glyph glyph-name="Ydieresis" horiz-adv-x="996" 
d="M1350 1946q0 -67 -47 -132q-51 -71 -115 -71q-81 0 -81 104q0 67 48 132q53 71 116 71q79 0 79 -104zM1028 1944q0 -67 -48 -131q-52 -70 -116 -70q-79 0 -79 103q0 67 47 132q51 72 115 72q81 0 81 -106zM1571 1428l-1459 -1835l-167 211l587 742l-225 882l282 212
l198 -773l614 773z" />
    <glyph glyph-name="Ydieresis" unicode="&#x178;" horiz-adv-x="996" 
d="M1350 1946q0 -67 -47 -132q-51 -71 -115 -71q-81 0 -81 104q0 67 48 132q53 71 116 71q79 0 79 -104zM1028 1944q0 -67 -48 -131q-52 -70 -116 -70q-79 0 -79 103q0 67 47 132q51 72 115 72q81 0 81 -106zM1571 1428l-1459 -1835l-167 211l587 742l-225 882l282 212
l198 -773l614 773z" />
    <glyph glyph-name="nonbreakingspace" unicode="&#xa0;" horiz-adv-x="692" 
 />
    <glyph glyph-name="exclamdown" unicode="&#xa1;" horiz-adv-x="430" 
d="M752 1515q0 -80 -57 -159q-61 -85 -139 -85q-98 0 -98 127q0 78 59 158q61 84 138 84q97 0 97 -125zM650 1107l-406 -1514h-276l404 1514h278z" />
    <glyph glyph-name="cent" unicode="&#xa2;" horiz-adv-x="815" 
d="M1171 1476l-79 -295h-245q-154 0 -274 -168q-111 -155 -111 -315q0 -100 44 -165q51 -74 148 -74h245l-79 -295h-253l-44 -164h-168l56 209q-184 109 -184 391q0 247 144 486q149 245 368 345l56 209h167l-44 -164h253z" />
    <glyph glyph-name="yen" unicode="&#xa5;" horiz-adv-x="1112" 
d="M1571 1428l-478 -602h212l-75 -280h-366l-28 -104h347l-76 -284h-347l-42 -158h-333l42 158h-356l76 284h356l29 104h-357l75 280h209l-152 602l282 212l198 -773l614 773z" />
    <glyph glyph-name="dieresis" unicode="&#xa8;" horiz-adv-x="631" 
d="M1106 1945q0 -68 -48 -132q-51 -70 -115 -70q-80 0 -80 103q0 66 47 133q53 71 116 71q80 0 80 -105zM783 1946q0 -67 -47 -132q-51 -71 -115 -71q-81 0 -81 104q0 67 48 132q53 71 116 71q79 0 79 -104z" />
    <glyph glyph-name="copyright" unicode="&#xa9;" horiz-adv-x="539" 
d="M596 407q0 -135 -96 -265q-102 -142 -232 -142q-82 0 -125 64q-36 55 -36 141q0 137 94 267q102 143 232 143q82 0 126 -65q37 -55 37 -143zM510 372q0 136 -106 136q-83 0 -149 -93q-61 -85 -61 -173q0 -133 103 -133q84 0 151 91q62 86 62 172zM451 461l-19 -70
q-7 0 -21.5 1t-21.5 1q-44 0 -75 -34q-30 -35 -30 -79q0 -45 34 -55q5 -1 22 -1.5t47 -0.5l-19 -69h-59q-79 0 -79 103q0 66 47 133q51 71 115 71h59z" />
    <glyph glyph-name="guillemotleft" unicode="&#xab;" horiz-adv-x="899" 
d="M1190 1230l-340 -410l121 -410h-277l-121 410l340 410h277zM837 1230l-341 -410l122 -410h-278l-121 410l341 410h277z" />
    <glyph glyph-name="minus" unicode="&#xad;" horiz-adv-x="845" 
d="M1027 964l-77 -287h-693l77 287h693z" />
    <glyph glyph-name="registered" unicode="&#xae;" horiz-adv-x="539" 
d="M596 407q0 -135 -96 -265q-102 -142 -232 -142q-82 0 -125 64q-36 55 -36 141q0 137 94 267q102 143 232 143q82 0 126 -65q37 -55 37 -143zM417 365q0 26 -25 26h-63l-25 -92h63q50 0 50 66zM510 372q0 136 -106 136q-85 0 -151 -96q-61 -88 -61 -177q0 -48 21 -81
l82 305h115q62 0 62 -78q0 -49 -34 -96q-33 -49 -79 -56l39 -82q112 87 112 225zM341 115l-56 114l-20 -77h-49q27 -43 81 -43q24 0 44 6z" />
    <glyph glyph-name="macron" unicode="&#xaf;" horiz-adv-x="845" 
d="M1208 1640l-77 -287h-693l78 287h692z" />
    <glyph glyph-name="degree" unicode="&#xb0;" horiz-adv-x="381" 
d="M737 1503q0 -90 -63 -175q-67 -94 -153 -94q-107 0 -107 137q0 88 62 176q69 93 154 93q107 0 107 -137zM655 1471q0 67 -52 67q-43 0 -77 -48q-31 -43 -31 -88q0 -66 54 -66q41 0 76 47q30 43 30 88z" />
    <glyph glyph-name="plusminus" unicode="&#xb1;" horiz-adv-x="845" 
d="M1063 1097l-77 -287h-238l-85 -318h-216l86 318h-240l77 287h240l85 317h215l-85 -317h238zM846 287l-77 -287h-693l77 287h693z" />
    <glyph glyph-name="acute" unicode="&#xb4;" horiz-adv-x="596" 
d="M1106 2050l-83 -307h-502l12 102z" />
    <glyph glyph-name="paragraph" unicode="&#xb6;" horiz-adv-x="1307" 
d="M1747 1640l-99 -369h-155l-340 -1271h-277l340 1271h-122l-340 -1271h-278l111 410q-161 0 -249 129q-77 113 -77 279q0 235 137 461q45 75 99.5 135.5t118.5 109.5q151 116 300 116h831zM817 1271q-103 0 -185 -114q-75 -105 -75 -213q0 -165 128 -165z" />
    <glyph glyph-name="periodcentered" unicode="&#xb7;" horiz-adv-x="353" 
d="M544 881q0 -82 -58 -159q-62 -86 -139 -86q-97 0 -97 127q0 80 57 158q61 84 139 84q98 0 98 -124z" />
    <glyph glyph-name="guillemotright" unicode="&#xbb;" horiz-adv-x="899" 
d="M1118 820l-339 -410h-278l341 410l-121 410h277zM765 820l-340 -410h-277l339 410l-120 410h278z" />
    <glyph glyph-name="questiondown" unicode="&#xbf;" horiz-adv-x="1118" 
d="M1261 1515q0 -80 -57 -159q-61 -85 -139 -85q-97 0 -97 127q0 79 58 158q61 84 138 84q97 0 97 -125zM1159 1107l-155 -580h-277q-141 0 -253 -114q-112 -112 -112 -254q0 -47 15.5 -83.5t43.5 -61.5t67.5 -38.5t87.5 -13.5q179 0 293 155l239 -155q-110 -158 -274 -259
q-179 -110 -358 -110q-198 0 -319 130q-120 127 -120 323q0 310 236 575q244 271 552 271l57 215h277z" />
    <glyph glyph-name="Agrave" unicode="&#xc0;" horiz-adv-x="921" 
d="M1060 1845l-43 -102h-503l83 307zM1037 -282l-292 -125l-4 653h-463l-133 -246l-224 127l817 1513h293zM741 574l-2 525l-284 -525h286z" />
    <glyph glyph-name="Aacute" unicode="&#xc1;" horiz-adv-x="921" 
d="M1422 2050l-83 -307h-502l13 102zM1037 -282l-292 -125l-4 653h-463l-133 -246l-224 127l817 1513h293zM741 574l-2 525l-284 -525h286z" />
    <glyph glyph-name="Acircumflex" unicode="&#xc2;" horiz-adv-x="921" 
d="M1285 1927l-112 -184l-218 102l-273 -102l-11 184l278 123h123zM1037 -282l-292 -125l-4 653h-463l-133 -246l-224 127l817 1513h293zM741 574l-2 525l-284 -525h286z" />
    <glyph glyph-name="Atilde" unicode="&#xc3;" horiz-adv-x="921" 
d="M1383 2152l-66 -245q-127 -103 -257 -103q-42 0 -102 51q-59 52 -101 52q-130 0 -258 -103l66 246q127 102 258 102q42 0 101 -51q60 -51 102 -51q129 0 257 102zM1037 -282l-292 -125l-4 653h-463l-133 -246l-224 127l817 1513h293zM741 574l-2 525l-284 -525h286z" />
    <glyph glyph-name="Adieresis" unicode="&#xc4;" horiz-adv-x="921" 
d="M1252 1945q0 -66 -48 -132q-51 -70 -115 -70q-80 0 -80 104q0 66 48 132q51 71 115 71q80 0 80 -105zM930 1944q0 -67 -48 -131q-52 -70 -116 -70q-80 0 -80 104q0 66 48 132q51 71 115 71q81 0 81 -106zM1037 -282l-292 -125l-4 653h-463l-133 -246l-224 127l817 1513
h293zM741 574l-2 525l-284 -525h286z" />
    <glyph glyph-name="Aring" unicode="&#xc5;" horiz-adv-x="921" 
d="M1128 2017q0 -88 -62 -176q-67 -94 -153 -94q-107 0 -107 137q0 89 62 175q67 93 153 93q107 0 107 -135zM1037 -282l-292 -125l-4 653h-463l-133 -246l-224 127l817 1513h293zM1047 1984q0 66 -53 66q-42 0 -77 -47q-30 -44 -30 -88q0 -66 53 -66q41 0 76 47
q31 43 31 88zM741 574l-2 525l-284 -525h286z" />
    <glyph glyph-name="AE" unicode="&#xc6;" horiz-adv-x="1747" 
d="M2109 1640l-99 -369h-646l-71 -266h492l-99 -369h-492l-71 -267h646l-99 -369h-634l1 -282l-292 -125l-4 653h-463l-133 -246l-224 127l817 1513h293l1 -574l154 574h923zM741 574l-2 525l-284 -525h286z" />
    <glyph glyph-name="Egrave" unicode="&#xc8;" horiz-adv-x="1076" 
d="M1138 1845l-43 -102h-502l83 307zM1438 1640l-99 -369h-645l-71 -266h491l-99 -369h-491l-72 -267h646l-99 -369h-923l440 1640h922z" />
    <glyph glyph-name="Eacute" unicode="&#xc9;" horiz-adv-x="1076" 
d="M1501 2050l-83 -307h-503l13 102zM1438 1640l-99 -369h-645l-71 -266h491l-99 -369h-491l-72 -267h646l-99 -369h-923l440 1640h922z" />
    <glyph glyph-name="Ecircumflex" unicode="&#xca;" horiz-adv-x="1076" 
d="M1361 1927l-111 -184l-217 102l-274 -102l-12 184l279 123h123zM1438 1640l-99 -369h-645l-71 -266h491l-99 -369h-491l-72 -267h646l-99 -369h-923l440 1640h922z" />
    <glyph glyph-name="Edieresis" unicode="&#xcb;" horiz-adv-x="1076" 
d="M1329 1945q0 -68 -48 -132q-51 -70 -115 -70q-81 0 -81 104q0 67 48 132q53 71 116 71q80 0 80 -105zM1006 1945q0 -68 -48 -132q-51 -70 -115 -70q-80 0 -80 103q0 66 47 133q53 71 116 71q80 0 80 -105zM1438 1640l-99 -369h-645l-71 -266h491l-99 -369h-491l-72 -267
h646l-99 -369h-923l440 1640h922z" />
    <glyph glyph-name="Igrave" unicode="&#xcc;" horiz-adv-x="430" 
d="M816 1845l-43 -102h-502l83 307zM793 1640l-440 -1640h-277l440 1640h277z" />
    <glyph glyph-name="Iacute" unicode="&#xcd;" horiz-adv-x="430" 
d="M1178 2050l-83 -307h-502l12 102zM793 1640l-440 -1640h-277l440 1640h277z" />
    <glyph glyph-name="Icircumflex" unicode="&#xce;" horiz-adv-x="430" 
d="M1039 1927l-112 -184l-217 102l-273 -102l-12 184l279 123h123zM793 1640l-440 -1640h-277l440 1640h277z" />
    <glyph glyph-name="Idieresis" unicode="&#xcf;" horiz-adv-x="430" 
d="M1006 1945q0 -68 -48 -132q-51 -70 -115 -70q-80 0 -80 103q0 66 47 133q53 71 116 71q80 0 80 -105zM684 1945q0 -68 -48 -132q-51 -70 -115 -70q-80 0 -80 103q0 65 47 132q52 72 116 72q80 0 80 -105zM793 1640l-440 -1640h-277l440 1640h277z" />
    <glyph glyph-name="Ntilde" unicode="&#xd1;" 
d="M1538 2152l-67 -245q-127 -103 -257 -103q-42 0 -103 51q-59 52 -101 52q-128 0 -258 -103l66 246q129 102 258 102q42 0 102 -51t102 -51q129 0 258 102zM1593 1640l-440 -1640h-277l-263 966l-260 -966h-277l440 1640h277l264 -965l258 965h278z" />
    <glyph glyph-name="Ograve" unicode="&#xd2;" 
d="M1216 1845l-44 -102h-503l83 307zM1489 1100q0 -312 -183 -616q-118 -197 -290 -330q-199 -154 -401 -154q-214 0 -331 170q-103 148 -103 372q0 314 181 613q118 198 291 330q200 155 401 155q252 0 369 -242q66 -137 66 -298zM1192 967q0 127 -54 208q-63 96 -183 96
q-155 0 -293 -152q-123 -135 -166 -299q-20 -78 -20 -152q0 -127 55 -207q62 -92 183 -92q156 0 293 152q122 134 165 299q20 78 20 147z" />
    <glyph glyph-name="Oacute" unicode="&#xd3;" 
d="M1578 2050l-84 -307h-502l13 102zM1489 1100q0 -312 -183 -616q-118 -197 -290 -330q-199 -154 -401 -154q-214 0 -331 170q-103 148 -103 372q0 314 181 613q118 198 291 330q200 155 401 155q252 0 369 -242q66 -137 66 -298zM1192 967q0 127 -54 208q-63 96 -183 96
q-155 0 -293 -152q-123 -135 -166 -299q-20 -78 -20 -152q0 -127 55 -207q62 -92 183 -92q156 0 293 152q122 134 165 299q20 78 20 147z" />
    <glyph glyph-name="Ocircumflex" unicode="&#xd4;" 
d="M1439 1927l-112 -184l-218 102l-273 -102l-12 184l279 123h123zM1489 1100q0 -312 -183 -616q-118 -197 -290 -330q-199 -154 -401 -154q-214 0 -331 170q-103 148 -103 372q0 314 181 613q118 198 291 330q200 155 401 155q252 0 369 -242q66 -137 66 -298zM1192 967
q0 127 -54 208q-63 96 -183 96q-155 0 -293 -152q-123 -135 -166 -299q-20 -78 -20 -152q0 -127 55 -207q62 -92 183 -92q156 0 293 152q122 134 165 299q20 78 20 147z" />
    <glyph glyph-name="Otilde" unicode="&#xd5;" 
d="M1538 2152l-67 -245q-127 -103 -257 -103q-42 0 -103 51q-59 52 -101 52q-128 0 -258 -103l66 246q129 102 258 102q42 0 102 -51t102 -51q129 0 258 102zM1489 1100q0 -312 -183 -616q-118 -197 -290 -330q-199 -154 -401 -154q-214 0 -331 170q-103 148 -103 372
q0 314 181 613q118 198 291 330q200 155 401 155q252 0 369 -242q66 -137 66 -298zM1192 967q0 127 -54 208q-63 96 -183 96q-155 0 -293 -152q-123 -135 -166 -299q-20 -78 -20 -152q0 -127 55 -207q62 -92 183 -92q156 0 293 152q122 134 165 299q20 78 20 147z" />
    <glyph glyph-name="Odieresis" unicode="&#xd6;" 
d="M1406 1944q0 -67 -48 -131q-52 -70 -116 -70q-79 0 -79 103q0 67 47 132q51 72 115 72q81 0 81 -106zM1083 1945q0 -66 -48 -132q-51 -70 -115 -70q-80 0 -80 104q0 66 48 132q51 71 115 71q80 0 80 -105zM1489 1100q0 -312 -183 -616q-118 -197 -290 -330
q-199 -154 -401 -154q-214 0 -331 170q-103 148 -103 372q0 314 181 613q118 198 291 330q200 155 401 155q252 0 369 -242q66 -137 66 -298zM1192 967q0 127 -54 208q-63 96 -183 96q-155 0 -293 -152q-123 -135 -166 -299q-20 -78 -20 -152q0 -127 55 -207q62 -92 183 -92
q156 0 293 152q122 134 165 299q20 78 20 147z" />
    <glyph glyph-name="multiply" unicode="&#xd7;" horiz-adv-x="797" 
d="M999 1045l-229 -225l108 -225l-205 -204l-110 226l-229 -226l-99 204l230 225l-109 225l208 203l108 -225l230 225z" />
    <glyph glyph-name="Oslash" unicode="&#xd8;" 
d="M1603 1394l-134 -131q18 -83 18 -169q0 -304 -179 -605q-120 -199 -290 -333q-200 -156 -403 -156q-181 0 -297 131l-134 -131l-118 246l133 131q-18 82 -18 170q0 304 179 603q120 199 291 333q199 157 403 157q181 0 297 -132l134 132zM1074 1236q-56 35 -119 35
q-192 0 -342 -210q-140 -196 -137 -394v-17zM1192 970v20l-596 -587q53 -34 118 -34q156 0 293 152q120 132 165 299q21 81 20 150z" />
    <glyph glyph-name="Ugrave" unicode="&#xd9;" horiz-adv-x="1153" 
d="M1177 1845l-43 -102h-503l83 307zM1555 1640l-248 -922q-46 -170 -139 -317q-105 -166 -250 -274q-169 -127 -341 -127q-187 0 -290 148q-91 130 -91 324q0 120 34 246l247 922h278l-248 -922q-15 -56 -15 -115q0 -100 42 -161q49 -73 142 -73q120 0 227 117
q93 105 127 232l247 922h278z" />
    <glyph glyph-name="Uacute" unicode="&#xda;" horiz-adv-x="1153" 
d="M1540 2050l-84 -307h-502l13 102zM1555 1640l-248 -922q-46 -170 -139 -317q-105 -166 -250 -274q-169 -127 -341 -127q-187 0 -290 148q-91 130 -91 324q0 120 34 246l247 922h278l-248 -922q-15 -56 -15 -115q0 -100 42 -161q49 -73 142 -73q120 0 227 117
q93 105 127 232l247 922h278z" />
    <glyph glyph-name="Ucircumflex" unicode="&#xdb;" horiz-adv-x="1153" 
d="M1400 1927l-111 -184l-218 102l-274 -102l-12 184l279 123h123zM1555 1640l-248 -922q-46 -170 -139 -317q-105 -166 -250 -274q-169 -127 -341 -127q-187 0 -290 148q-91 130 -91 324q0 120 34 246l247 922h278l-248 -922q-15 -56 -15 -115q0 -100 42 -161
q49 -73 142 -73q120 0 227 117q93 105 127 232l247 922h278z" />
    <glyph glyph-name="Udieresis" unicode="&#xdc;" horiz-adv-x="1153" 
d="M1368 1944q0 -67 -48 -131q-52 -70 -116 -70q-80 0 -80 103q0 66 47 133q53 71 116 71q81 0 81 -106zM1045 1945q0 -66 -48 -132q-51 -70 -115 -70q-81 0 -81 104q0 67 48 132q53 71 116 71q80 0 80 -105zM1555 1640l-248 -922q-46 -170 -139 -317q-105 -166 -250 -274
q-169 -127 -341 -127q-187 0 -290 148q-91 130 -91 324q0 120 34 246l247 922h278l-248 -922q-15 -56 -15 -115q0 -100 42 -161q49 -73 142 -73q120 0 227 117q93 105 127 232l247 922h278z" />
    <glyph glyph-name="Yacute" unicode="&#xdd;" horiz-adv-x="996" 
d="M1460 2050l-83 -307h-501l12 102zM1571 1428l-1459 -1835l-167 211l587 742l-225 882l282 212l198 -773l614 773z" />
    <glyph glyph-name="agrave" unicode="&#xe0;" horiz-adv-x="829" 
d="M954 1661l-39 -92h-452l75 276zM934 -253l-265 -113l-2 587h-418l-119 -221l-199 115l733 1361h264zM668 517l-4 471l-256 -471h260z" />
    <glyph glyph-name="aacute" unicode="&#xe1;" horiz-adv-x="829" 
d="M1280 1845l-74 -276h-452l11 92zM934 -253l-265 -113l-2 587h-418l-119 -221l-199 115l733 1361h264zM668 517l-4 471l-256 -471h260z" />
    <glyph glyph-name="acircumflex" unicode="&#xe2;" horiz-adv-x="829" 
d="M1156 1735l-99 -166l-196 92l-247 -92l-11 166l251 110h111zM934 -253l-265 -113l-2 587h-418l-119 -221l-199 115l733 1361h264zM668 517l-4 471l-256 -471h260z" />
    <glyph glyph-name="atilde" unicode="&#xe3;" horiz-adv-x="829" 
d="M1244 1937l-59 -221q-116 -92 -232 -92q-39 0 -92 46t-91 46q-113 0 -231 -92l59 221q116 92 231 92q38 0 91 -46t92 -46q116 0 232 92zM934 -253l-265 -113l-2 587h-418l-119 -221l-199 115l733 1361h264zM668 517l-4 471l-256 -471h260z" />
    <glyph glyph-name="adieresis" unicode="&#xe4;" horiz-adv-x="829" 
d="M1127 1751q0 -61 -43 -119q-47 -63 -104 -63q-72 0 -72 95q0 60 43 118q46 63 103 63q73 0 73 -94zM836 1751q0 -61 -43 -119q-47 -63 -104 -63q-71 0 -71 94q0 60 43 118q46 64 102 64q73 0 73 -94zM934 -253l-265 -113l-2 587h-418l-119 -221l-199 115l733 1361h264z
M668 517l-4 471l-256 -471h260z" />
    <glyph glyph-name="aring" unicode="&#xe5;" horiz-adv-x="829" 
d="M1015 1816q0 -81 -56 -158q-61 -85 -138 -85q-96 0 -96 125q0 79 56 156q62 83 137 83q97 0 97 -121zM934 -253l-265 -113l-2 587h-418l-119 -221l-199 115l733 1361h264zM942 1786q0 59 -48 59q-39 0 -67 -40q-29 -41 -29 -79q0 -61 48 -61q39 0 69 42q27 37 27 79z
M668 517l-4 471l-256 -471h260z" />
    <glyph glyph-name="ae" unicode="&#xe6;" horiz-adv-x="1572" 
d="M1898 1476l-89 -332h-582l-64 -240h444l-90 -332h-443l-64 -240h582l-90 -332h-569l1 -253l-265 -113l-2 587h-418l-119 -221l-199 115l733 1361h264l1 -517l138 517h831zM668 517l-4 471l-256 -471h260z" />
    <glyph glyph-name="egrave" unicode="&#xe8;" horiz-adv-x="968" 
d="M1025 1661l-39 -92h-451l74 276zM1294 1476l-89 -332h-580l-64 -240h442l-89 -332h-443l-64 -240h581l-89 -332h-830l395 1476h830z" />
    <glyph glyph-name="eacute" unicode="&#xe9;" horiz-adv-x="968" 
d="M1351 1845l-74 -276h-452l11 92zM1294 1476l-89 -332h-580l-64 -240h442l-89 -332h-443l-64 -240h581l-89 -332h-830l395 1476h830z" />
    <glyph glyph-name="ecircumflex" unicode="&#xea;" horiz-adv-x="968" 
d="M1225 1735l-99 -166l-196 92l-247 -92l-11 166l251 110h111zM1294 1476l-89 -332h-580l-64 -240h442l-89 -332h-443l-64 -240h581l-89 -332h-830l395 1476h830z" />
    <glyph glyph-name="edieresis" unicode="&#xeb;" horiz-adv-x="968" 
d="M1196 1750q0 -60 -43 -118q-47 -63 -104 -63q-72 0 -72 94q0 60 43 118q46 64 103 64q73 0 73 -95zM905 1751q0 -61 -42 -119q-47 -63 -104 -63q-72 0 -72 94q0 60 43 118q46 64 103 64q72 0 72 -94zM1294 1476l-89 -332h-580l-64 -240h442l-89 -332h-443l-64 -240h581
l-89 -332h-830l395 1476h830z" />
    <glyph glyph-name="igrave" unicode="&#xec;" horiz-adv-x="387" 
d="M735 1661l-39 -92h-451l74 276zM714 1476l-396 -1476h-249l395 1476h250z" />
    <glyph glyph-name="iacute" unicode="&#xed;" horiz-adv-x="387" 
d="M1060 1845l-74 -276h-451l11 92zM714 1476l-396 -1476h-249l395 1476h250z" />
    <glyph glyph-name="icircumflex" unicode="&#xee;" horiz-adv-x="387" 
d="M935 1735l-99 -166l-197 92l-245 -92l-12 166l251 110h111zM714 1476l-396 -1476h-249l395 1476h250z" />
    <glyph glyph-name="idieresis" unicode="&#xef;" horiz-adv-x="387" 
d="M905 1751q0 -61 -42 -119q-47 -63 -104 -63q-72 0 -72 94q0 60 43 118q46 64 103 64q72 0 72 -94zM615 1751q0 -61 -43 -119q-47 -63 -105 -63q-70 0 -70 95q0 59 43 117q46 64 102 64q73 0 73 -94zM714 1476l-396 -1476h-249l395 1476h250z" />
    <glyph glyph-name="ntilde" unicode="&#xf1;" horiz-adv-x="1107" 
d="M1382 1937l-59 -221q-116 -92 -232 -92q-37 0 -92 46q-53 46 -91 46q-115 0 -231 -92l59 221q115 92 231 92q38 0 91 -46q55 -46 92 -46q116 0 232 92zM1432 1476l-395 -1476h-248l-237 869l-234 -869h-249l395 1476h250l237 -869l233 869h248z" />
    <glyph glyph-name="ograve" unicode="&#xf2;" horiz-adv-x="1107" 
d="M1094 1661l-39 -92h-451l74 276zM1339 986q0 -281 -165 -554q-108 -176 -260 -294q-180 -138 -360 -138q-193 0 -299 151q-93 133 -93 333q0 273 156 542q106 182 263 306q183 144 368 144q190 0 297 -155q93 -137 93 -335zM1073 873q0 114 -48 186q-55 85 -165 85
q-171 0 -306 -188q-125 -173 -125 -351q0 -115 48 -188q58 -85 166 -85q172 0 307 189q123 172 123 352z" />
    <glyph glyph-name="oacute" unicode="&#xf3;" horiz-adv-x="1107" 
d="M1420 1845l-74 -276h-452l11 92zM1339 986q0 -281 -165 -554q-108 -176 -260 -294q-180 -138 -360 -138q-193 0 -299 151q-93 133 -93 333q0 273 156 542q106 182 263 306q183 144 368 144q190 0 297 -155q93 -137 93 -335zM1073 873q0 114 -48 186q-55 85 -165 85
q-171 0 -306 -188q-125 -173 -125 -351q0 -115 48 -188q58 -85 166 -85q172 0 307 189q123 172 123 352z" />
    <glyph glyph-name="ocircumflex" unicode="&#xf4;" horiz-adv-x="1107" 
d="M1294 1735l-99 -166l-196 92l-247 -92l-10 166l251 110h110zM1339 986q0 -281 -165 -554q-108 -176 -260 -294q-180 -138 -360 -138q-193 0 -299 151q-93 133 -93 333q0 273 156 542q106 182 263 306q183 144 368 144q190 0 297 -155q93 -137 93 -335zM1073 873
q0 114 -48 186q-55 85 -165 85q-171 0 -306 -188q-125 -173 -125 -351q0 -115 48 -188q58 -85 166 -85q172 0 307 189q123 172 123 352z" />
    <glyph glyph-name="otilde" unicode="&#xf5;" horiz-adv-x="1107" 
d="M1382 1937l-59 -221q-116 -92 -232 -92q-37 0 -92 46q-53 46 -91 46q-115 0 -231 -92l59 221q115 92 231 92q38 0 91 -46q55 -46 92 -46q116 0 232 92zM1339 986q0 -281 -165 -554q-108 -176 -260 -294q-180 -138 -360 -138q-193 0 -299 151q-93 133 -93 333
q0 273 156 542q106 182 263 306q183 144 368 144q190 0 297 -155q93 -137 93 -335zM1073 873q0 114 -48 186q-55 85 -165 85q-171 0 -306 -188q-125 -173 -125 -351q0 -115 48 -188q58 -85 166 -85q172 0 307 189q123 172 123 352z" />
    <glyph glyph-name="odieresis" unicode="&#xf6;" horiz-adv-x="1107" 
d="M1265 1750q0 -60 -43 -118q-47 -63 -104 -63q-71 0 -71 94q0 59 42 118q46 64 103 64q73 0 73 -95zM974 1751q0 -61 -42 -119q-47 -63 -104 -63q-72 0 -72 94q0 60 43 118q46 64 103 64q72 0 72 -94zM1339 986q0 -281 -165 -554q-108 -176 -260 -294q-180 -138 -360 -138
q-193 0 -299 151q-93 133 -93 333q0 273 156 542q106 182 263 306q183 144 368 144q190 0 297 -155q93 -137 93 -335zM1073 873q0 114 -48 186q-55 85 -165 85q-171 0 -306 -188q-125 -173 -125 -351q0 -115 48 -188q58 -85 166 -85q172 0 307 189q123 172 123 352z" />
    <glyph glyph-name="divide" unicode="&#xf7;" horiz-adv-x="845" 
d="M878 1319q0 -63 -44 -125q-48 -67 -109 -67q-75 0 -75 96q0 64 43 125q48 66 109 66q76 0 76 -95zM1027 964l-77 -287h-693l77 287h693zM636 417q0 -63 -44 -125q-48 -67 -110 -67q-75 0 -75 96q0 64 43 125q48 67 110 67q76 0 76 -96z" />
    <glyph glyph-name="oslash" unicode="&#xf8;" horiz-adv-x="1107" 
d="M1443 1254l-121 -118q17 -77 17 -153q0 -275 -160 -543q-109 -182 -262 -299q-182 -141 -363 -141q-163 0 -267 119l-121 -119l-107 221l121 119q-16 68 -16 154q0 275 159 541q108 181 262 300q181 141 364 141q162 0 266 -119l121 119zM967 1113q-47 31 -107 31
q-173 0 -309 -190q-127 -175 -124 -356v-13zM1074 873v19l-538 -530q49 -30 107 -30q171 0 308 189q127 174 123 352z" />
    <glyph glyph-name="ugrave" unicode="&#xf9;" horiz-adv-x="1037" 
d="M1060 1661l-38 -92h-453l74 276zM1397 1476l-222 -830q-65 -242 -236 -430q-197 -216 -421 -216q-170 0 -261 133q-81 115 -81 291q0 108 31 222l222 830h250l-223 -830q-14 -54 -14 -104q0 -90 37 -145q44 -65 128 -65q108 0 204 105q84 93 116 209l222 830h248z" />
    <glyph glyph-name="uacute" unicode="&#xfa;" horiz-adv-x="1037" 
d="M1386 1845l-74 -276h-453l11 92zM1397 1476l-222 -830q-65 -242 -236 -430q-197 -216 -421 -216q-170 0 -261 133q-81 115 -81 291q0 108 31 222l222 830h250l-223 -830q-14 -54 -14 -104q0 -90 37 -145q44 -65 128 -65q108 0 204 105q84 93 116 209l222 830h248z" />
    <glyph glyph-name="ucircumflex" unicode="&#xfb;" horiz-adv-x="1037" 
d="M1259 1735l-99 -166l-197 92l-246 -92l-11 166l251 110h111zM1397 1476l-222 -830q-65 -242 -236 -430q-197 -216 -421 -216q-170 0 -261 133q-81 115 -81 291q0 108 31 222l222 830h250l-223 -830q-14 -54 -14 -104q0 -90 37 -145q44 -65 128 -65q108 0 204 105
q84 93 116 209l222 830h248z" />
    <glyph glyph-name="udieresis" unicode="&#xfc;" horiz-adv-x="1037" 
d="M1230 1753q0 -62 -42 -120q-45 -64 -103 -64q-74 0 -74 95q0 59 44 118q46 63 104 63q71 0 71 -92zM940 1751q0 -60 -42 -118q-46 -64 -104 -64q-74 0 -74 95q0 59 44 118q46 63 104 63q72 0 72 -94zM1397 1476l-222 -830q-65 -242 -236 -430q-197 -216 -421 -216
q-170 0 -261 133q-81 115 -81 291q0 108 31 222l222 830h250l-223 -830q-14 -54 -14 -104q0 -90 37 -145q44 -65 128 -65q108 0 204 105q84 93 116 209l222 830h248z" />
    <glyph glyph-name="yacute" unicode="&#xfd;" horiz-adv-x="896" 
d="M1315 1845l-74 -276h-453l11 92zM1414 1285l-1313 -1651l-150 191l527 664l-201 796l252 191l180 -695l552 695z" />
    <glyph glyph-name="ydieresis" unicode="&#xff;" horiz-adv-x="896" 
d="M1216 1751q0 -61 -43 -119q-47 -63 -104 -63q-72 0 -72 94q0 60 43 118q46 64 103 64q73 0 73 -94zM925 1751q0 -61 -42 -119q-47 -63 -104 -63q-72 0 -72 94q0 60 43 118q46 64 103 64q72 0 72 -94zM1414 1285l-1313 -1651l-150 191l527 664l-201 796l252 191l180 -695
l552 695z" />
  </font>
</defs>
</svg>
