<?xml version="1.0" standalone="no"?>
<!DOCTYPE svg PUBLIC "-//W3C//DTD SVG 1.1//EN" "http://www.w3.org/Graphics/SVG/1.1/DTD/svg11.dtd" >
<svg xmlns="http://www.w3.org/2000/svg" xmlns:xlink="http://www.w3.org/1999/xlink" version="1.1">
<metadata>
Created by FontForge 20170731 at Fri Jan  1 02:30:17 1904
 By Aleksey,,,
Copyright  c  - Roger White - 1992 - All rights reserved - see .txt file for terms for distribution and use.
</metadata>
<defs>
<font id="Plymouth" horiz-adv-x="485" >
  <font-face 
    font-family="Plymouth"
    font-weight="400"
    font-stretch="normal"
    units-per-em="1000"
    panose-1="2 11 5 0 0 0 0 0 0 0"
    ascent="800"
    descent="-200"
    x-height="369"
    cap-height="639"
    bbox="-70 -252 743 834"
    underline-thickness="50"
    underline-position="-150"
    unicode-range="U+0020-00FA"
  />
<missing-glyph horiz-adv-x="502" 
d="M-1 0h500v500h-500v-500zM9 10v480h480v-480h-480z" />
    <glyph glyph-name=".notdef" horiz-adv-x="502" 
d="M-1 0h500v500h-500v-500zM9 10v480h480v-480h-480z" />
    <glyph glyph-name=".null" horiz-adv-x="0" 
 />
    <glyph glyph-name="nonmarkingreturn" horiz-adv-x="333" 
 />
    <glyph glyph-name="space" unicode=" " horiz-adv-x="281" 
 />
    <glyph glyph-name="space" unicode="&#xa0;" horiz-adv-x="281" 
 />
    <glyph glyph-name="exclam" unicode="!" horiz-adv-x="184" 
d="M156 637q-13 30 -56 30h-7q-15 0 -29 -6q-17 -9 -23 -17l-7 -16q-4 -7 -4 -16l22 -384q0 -15 12 -29q11 -14 26 -14l16 4l18 18zM145 51q0 16 -10 32q-19 21 -53 21h-10q-19 -6 -31 -21q-12 -19 -12 -36l3 -20q17 -29 48 -29q25 0 45 16q20 17 20 37z" />
    <glyph glyph-name="quotedbl" unicode="&#x22;" horiz-adv-x="303" 
d="M269 551q0 9 -1 14l-2 10l-2 7q-12 19 -18 25q-16 11 -28 11q-19 0 -30 -10q-15 -8 -20 -20q-7 -10 -7 -25q0 -34 39 -54q10 -6 10 -23q0 -30 -14 -47l2 -1l2 -1q1 -1 3 -1l8 -1q12 0 16 4q18 24 31 56q6 16 9 28q2 18 2 28zM127 547q0 33 -17 59q-8 7 -18 10l-14 2
q-14 0 -28 -8q-15 -10 -22 -23t-7 -24q0 -34 39 -54q10 -4 10 -23q0 -8 -1 -11q-1 -4 -3 -14l-8 -22q4 -4 14 -4q11 0 15 4q18 23 29 52q11 30 11 56z" />
    <glyph glyph-name="numbersign" unicode="#" horiz-adv-x="564" 
d="M550 439v7h-122l33 115q0 5 -8 26q-17 5 -25 5h-8l-16 -13l-39 -133h-134l33 115q0 8 -8 26q-8 5 -25 5h-6l-20 -13l-31 -133h-106q-23 -25 -26 -34l-4 -18q-1 -3 -1 -14h119l-48 -159h-74l-19 -35q-17 -30 -18 -40h93l-38 -112l-2 -11l5 -19l26 -10q7 1 16 9l6 4l8 7
l37 130h132l-29 -110l-3 -14l5 -16q8 -5 12 -6l2 -1q7 -2 13 -3l7 5l8 5q3 1 12 10l32 128h98l12 13l12 13l-1 20l-1 23h-98l49 161h112q14 17 22 34q6 17 6 33zM345 380l-52 -166h-125l45 166h132z" />
    <glyph glyph-name="dollar" unicode="$" horiz-adv-x="404" 
d="M371 333v7q-11 20 -22 31q-15 15 -29 25l26 82l-7 6l-15 4l-8 -2q-22 -31 -27 -44q-12 -21 -14 -30q-18 0 -25 -1q-10 -1 -24 -3q-12 -1 -25 -5q-8 -2 -22 -6q-49 -15 -77 -46q-10 -13 -12 -24q-4 -7 -4 -12v-14q0 -25 17 -53q18 -29 69 -71l-27 -65l-20 13q-2 2 -7 4
l-1 1q-1 1 -2 1l-8 4q-8 5 -19 9q-9 4 -18 5q-27 -17 -39 -37l-3 -9l-2 -9l2 -8q11 -20 35 -38l18 -10l26 -16l-37 -105l3 -5l7 -4h4l10 2q21 26 32 45l3 6q19 37 22 45l18 -2l17 -2q23 0 40 4q24 5 38 11q36 13 62 42q20 26 20 55q0 33 -29 74q-22 31 -60 58l26 60l20 -7
l9 -4h10q11 0 30 6l12 14q7 10 7 18zM244 335l-24 -54l-6 3l-5 4q-8 5 -10 11l-3 16q0 18 10 25q8 4 18 4h5q14 -6 15 -9zM242 83q-9 -12 -25 -21q-12 -5 -17 -5q-13 0 -16 15q8 36 30 60q10 -4 18 -19q10 -13 10 -25v-5z" />
    <glyph glyph-name="percent" unicode="%" horiz-adv-x="551" 
d="M259 400q0 56 -34 94q-39 44 -91 44l-16 -2l-13 -2l-25 -6q-54 -37 -54 -100l2 -16q0 -33 16 -58q14 -27 47 -46q31 -19 66 -19q19 0 36 7q21 6 33 16q33 39 33 88zM193 379l-2 -19l-3 -18q-6 -19 -18 -27l-14 -4l-23 5q-24 26 -36 52q-15 30 -15 60q0 39 27 64l16 5
l13 2l18 -13q10 -7 14 -13q10 -19 16 -45q1 -5 3 -13l1 -3q1 -6 1 -9zM537 99q0 54 -34 94q-39 44 -90 44q-29 0 -55 -9q-53 -42 -53 -99l2 -18l1 -15l3 -12l8 -30q18 -30 51 -48q32 -18 65 -18q36 0 70 24q32 38 32 87zM472 79q0 -21 -6 -38q-7 -19 -18 -27l-6 -2l-9 -2
l-10 3q-8 2 -11 3q-24 21 -37 51q-6 13 -11 32q-3 17 -3 30q0 16 9 35q10 22 19 28l2 1q1 1 5 1l6 1l9 2l6 1l22 -14l9 -12q9 -12 17 -41q7 -25 7 -52zM382 483q0 3 -6 21l-13 3q-2 1 -14 1l-13 -13l-179 -483l-1 -8l4 -16l21 -8l11 8l13 8z" />
    <glyph glyph-name="ampersand" unicode="&#x26;" horiz-adv-x="564" 
d="M545 288v8l-3 6l-2 7q-7 8 -18 12q-18 8 -33 8h-5v11l-1 19l-3 15q-9 14 -25 23q-19 8 -30 8q-26 0 -49 -29v-52l-14 -3q-6 0 -11 4l-7 3l-4 1q-35 8 -62 27q-35 26 -74 83l-4 20q0 48 48 79q47 31 101 31h11l9 10v9l-2 31q-18 13 -35 21q-13 7 -32 10q-11 0 -23 -3
l-18 -6q-1 0 -7 -2q-67 -30 -100 -53q-55 -40 -68 -86l-2 -20q0 -31 19 -57q22 -33 79 -70v-15q-11 -4 -27 -12l-9 -4q-16 -7 -26 -13q-28 -16 -48 -41q-21 -27 -30 -49q-6 -13 -9 -26q-2 -16 -2 -24l2 -5q0 -81 80 -125q67 -37 158 -37l25 1l24 3q54 7 96 28q48 26 59 72
l11 138q5 10 11 15l20 5l11 5l10 3q9 5 9 16zM367 133l-11 -20q-4 -7 -12 -12q-33 -32 -75 -32q-8 0 -12 1q-1 0 -6 1q-4 0 -7 1q-9 3 -25 9q-24 12 -39 33l-6 25q-5 18 -5 28q0 36 25 67q22 15 46 23q28 10 51 13l28 -2l12 -4l10 -4q10 -5 17 -15t9 -20v-92z" />
    <glyph glyph-name="quotesingle" unicode="'" horiz-adv-x="164" 
d="M133 553q0 31 -12 47q-13 18 -39 18q-14 0 -29 -9q-14 -9 -20 -21q-8 -14 -8 -25q0 -17 11 -31q11 -15 30 -23q8 -5 8 -23q0 -7 -1 -12q-1 -3 -2 -8t-2 -8q0 -1 -3 -9q-1 -3 -1 -4q-1 -4 -3 -6q9 -9 16 -9q15 5 26 20l16 28q2 11 9 36q4 12 4 39z" />
    <glyph glyph-name="parenleft" unicode="(" horiz-adv-x="204" 
d="M190 -117v15l-42 45l-10 37v573q8 34 17 52l16 26l17 24v4q0 8 -3 18l-6 16q-10 7 -21 7q-52 -22 -87 -68q-33 -46 -42 -105v-570q4 -9 9 -27q20 -28 45 -56q27 -30 51 -47h6q10 0 23 7q16 7 19 15q3 4 6 19z" />
    <glyph glyph-name="parenright" unicode=")" horiz-adv-x="223" 
d="M189 -20v583l-11 63l-40 39q-20 19 -39 32h-8l-14 -2q-36 -20 -47 -60l49 -84v-574q-10 -38 -21 -63q-18 -34 -35 -54l-2 -2l-1 -9l1 -9l2 -2l5 -5l8 -4h3q13 3 22 5l23 11q37 35 56 62q21 28 49 73z" />
    <glyph glyph-name="asterisk" unicode="*" horiz-adv-x="303" 
d="M279 556q0 17 -14 31h-12q-19 0 -27 -8l-53 -59l16 83l-2 13q-16 13 -20 14h-18l-10 -8q-10 -14 -10 -26l22 -78l-69 69l-16 3q-16 0 -27 -11q-7 -13 -7 -28q10 -16 27 -24l84 -21l-84 -24q-12 -3 -20 -12l-5 -10l-2 -10l7 -17q11 -14 25 -14l18 4l37 35l32 34l-22 -76
l4 -14v-3l1 -3l1 -2l14 -10l18 1q10 3 15 7q4 4 7 20l-20 80l57 -59q12 -12 27 -12l12 2q12 14 12 27q0 21 -20 32l-83 24l83 21q22 15 22 29z" />
    <glyph glyph-name="plus" unicode="+" horiz-adv-x="404" 
d="M376 218q0 21 -10 34q-11 14 -31 14h-83v88q0 21 -14 35q-16 12 -33 12q-21 0 -34 -10q-14 -12 -14 -31v-94h-90q-20 0 -30 -12q-11 -13 -11 -27q0 -19 14 -36t35 -20h82v-79q0 -19 12 -30q14 -11 27 -11q20 0 36 13q17 14 20 36v71h77q22 0 35 15q12 14 12 32z" />
    <glyph glyph-name="comma" unicode="," horiz-adv-x="164" 
d="M129 12v17q0 27 -10 46q-12 21 -34 24h-11q-24 0 -38 -18q-15 -18 -15 -42q1 -7 3 -12q2 -6 2 -8l5 -12l33 -25v-4q0 -11 -7 -25q-8 -18 -8 -23l4 -11q8 -5 16 -5h7q20 11 33 44l8 22z" />
    <glyph glyph-name="hyphen" unicode="-" horiz-adv-x="343" 
d="M314 223q0 17 -9 30q-12 13 -28 19h-205q-16 -5 -26 -11q-8 -10 -11 -17q-5 -13 -5 -19q0 -20 15 -38q17 -17 37 -20h183q23 5 36 21t13 35z" />
    <glyph glyph-name="period" unicode="." horiz-adv-x="184" 
d="M151 47q0 7 -5 25q-23 23 -53 29l-2 -2q-24 0 -47 -16q-24 -18 -24 -36l2 -10l3 -10q9 -14 25 -21q18 -8 31 -8t37 8q19 9 28 19l1 2q4 17 4 20z" />
    <glyph glyph-name="slash" unicode="/" horiz-adv-x="303" 
d="M292 622l-2 11l-5 15q-7 2 -15 3l-6 1q-5 1 -13 1q-12 -7 -16 -16l-225 -603l-2 -11l7 -19l25 -10q7 1 16 9l14 11z" />
    <glyph glyph-name="zero" unicode="0" 
d="M461 218v14q0 71 -61 122t-132 51l-26 -2q-57 -13 -96 -30q-50 -24 -77 -60q-43 -56 -43 -118q0 -67 50 -123q34 -40 67 -53q18 -8 41 -13q17 -4 43 -4q88 0 161 63q73 64 73 153zM357 175q0 -40 -19 -71q-19 -30 -57 -41l-19 -2q-44 0 -79 36q-31 31 -43 80l-2 15l-2 17
q0 52 21 86q26 42 72 42q57 0 93 -55q27 -41 35 -107z" />
    <glyph glyph-name="one" unicode="1" 
d="M290 25v341q0 4 -3 11l-2 5l-3 5l-11 6l-12 4q-8 3 -11 3q-3 1 -13 1h-8q-31 -10 -38 -35v-328q0 -11 7 -29q4 -5 18 -10q15 -5 23 -5q19 0 34 9q15 7 19 22z" />
    <glyph glyph-name="two" unicode="2" 
d="M399 22v16q0 19 -7 32t-22 16h-133l111 99q22 24 33 44q12 23 12 48q0 51 -60 85q-42 23 -102 38h-7q-19 0 -39 -6q-21 -8 -38 -18q-33 -22 -59 -55l-3 -9l-1 -3q0 -9 4 -14q8 -6 12 -7l5 -3l9 -2l6 3q43 37 95 51q26 0 46 -23q19 -22 19 -50l-2 -20q-18 -37 -55 -76
q-23 -23 -55 -49q-23 -20 -66 -49q-18 -18 -18 -41q0 -17 18 -31h268l13 4q7 3 10 10l3 5z" />
    <glyph glyph-name="three" unicode="3" 
d="M413 39q0 9 -1 16q-1 4 -2 9t-2 9q-6 14 -20 26l-92 50q-12 11 -12 28l3 18l76 95l3 32q0 28 -18 52q-6 4 -17 12q-16 13 -21 16q-7 4 -15 10q-8 5 -9 6q-22 14 -39 18q-18 5 -32 5h-14q-33 -6 -66 -27l-24 -18l-30 -26q-2 -10 -4 -12q0 -12 12 -20l9 -3l6 2l77 37
q10 2 18 2q22 0 41 -10q10 -12 13 -18q3 -10 3 -21q0 -14 -6 -28q-7 -16 -17 -29l-81 -79l-6 -9l-4 -10l-3 -9l-1 -10q0 -22 23 -39q69 -22 119 -78q13 -22 13 -48q0 -29 -19 -55q-20 -29 -48 -41l-133 -41l-12 -11l-2 -4l3 -11q7 -5 22 -10q36 0 69 6q39 9 68 19
q71 28 113 70q23 26 40 58q19 37 19 71z" />
    <glyph glyph-name="four" unicode="4" 
d="M439 47q0 13 -6 26q-5 12 -14 19l-26 9q-5 0 -14 9v227q-5 28 -22 42q-16 15 -44 15h-11q-19 0 -36 -3l-4 -1q-21 -6 -31 -10q-37 -16 -68 -40q-51 -41 -79 -80q-41 -59 -41 -105q0 -31 16 -54q44 -49 80 -72q50 -33 100 -33h5l25 -25l-2 -16q0 -44 12 -81l13 -8
q4 -4 10 -5q12 -5 23 -5q10 0 19 3q5 2 15 8q15 10 20 27v86l12 7l13 8l11 6l11 5q4 5 10 19q3 12 3 22zM275 110q-22 -16 -47 -16q-32 0 -67 32q-14 13 -22 28q-8 14 -8 27q0 27 19 55q18 30 40 52l18 13l11 7q18 9 29 9h9q7 -1 18 -14v-193z" />
    <glyph glyph-name="five" unicode="5" 
d="M411 38q0 37 -20 78q-23 38 -61 57q-13 8 -63 21t-66 34q-6 18 -9 36q-4 9 -4 19v16q0 14 8 40q7 18 23 27h125l16 5l14 7q6 6 6 19q0 21 -28 28h-214q-25 0 -40 -18q-8 -10 -13 -19q-3 -8 -7 -26l-3 -45q-4 -28 -4 -53q0 -56 16 -100q33 -24 69 -31q55 0 98 -43t43 -97
l-2 -28q-3 -15 -8 -24q-26 -45 -95 -61q-88 -24 -107 -35q-7 -7 -7 -16q8 -10 15 -14t17 -4l15 2q126 15 232 101q54 57 54 124z" />
    <glyph glyph-name="six" unicode="6" 
d="M460 185v16q0 21 -4 38q-6 24 -11 36q-16 37 -44 63q-15 18 -44 31q-25 9 -53 9q-34 0 -70 -15q-35 -15 -62 -39q3 -14 13 -27l7 -2q5 0 13 2q2 1 5 2l4 2l2 1q2 0 3 1q21 12 46 12l28 -2q29 -13 49 -52q19 -38 19 -78q0 -34 -17 -70q-19 -30 -49 -41l-23 -6
q-1 -1 -11 -1q-26 0 -51 19t-41 44q-7 13 -16 36q-6 16 -13 45q-6 21 -8 40q-2 18 -3 25v21q0 59 18 114q18 56 51 93l93 81q3 6 3 9l1 12l-13 10l-23 -4q-100 -53 -164 -142q-70 -97 -70 -202l3 -31q0 -11 4 -30q5 -29 17 -62l17 -40l16 -33q26 -36 61 -53q33 -17 73 -17
q70 0 137 43q66 41 98 101q7 17 7 23q1 1 1 4q0 1 1 3v5v6z" />
    <glyph glyph-name="seven" unicode="7" 
d="M388 324q0 39 -22 70q-22 30 -60 39l-168 2q-9 -3 -17 -9l-8 -6l-7 -4l-2 -7q0 -13 9 -24q10 -12 20 -15l104 -1q19 -12 31 -27q6 -19 6 -47t-6 -57l-149 -362l-2 -4l7 -36q7 -10 18 -13q8 -4 18 -4q25 0 52 33q21 25 34 56z" />
    <glyph glyph-name="eight" unicode="8" 
d="M450 193q0 65 -36 120q-38 53 -97 65q-52 0 -84 42q-27 38 -27 91l2 7q6 12 12 18t12 9q8 2 15 2q13 0 26 -7q11 -6 25 -20q22 -25 32 -48l-9 -30q-4 -8 -4 -17v-6q32 -29 68 -29l16 14l7 7l5 6q14 33 14 69v12q-15 38 -58 66q-31 20 -80 40h-15q-35 0 -80 -24
q-42 -25 -69 -47q-17 -20 -17 -51q0 -25 13 -57l22 -51l-2 -25q-53 -40 -88 -83q-5 -9 -11 -32q-9 -31 -9 -54q0 -96 77 -155q21 -16 48 -23q29 -8 56 -8q20 0 45 5q23 4 46 12q44 16 81 43q33 25 49 61q15 36 15 78zM346 191q0 -21 -5 -46q-4 -19 -13 -41q-25 -44 -65 -49
l-18 -1q-48 0 -80 42q-32 41 -32 91v12q1 2 1 7q0 2 1 6l4 17q6 19 16 37q19 18 50 30q29 13 58 13h8q34 -9 53 -37q17 -25 22 -60v-21z" />
    <glyph glyph-name="nine" unicode="9" 
d="M453 186v6v6q0 84 -31 143q-38 69 -111 86l-29 2q-53 0 -118 -30l-48 -26q-16 -9 -55 -35q-27 -43 -27 -102q0 -18 5 -41q4 -22 12 -39q17 -39 50 -67q31 -28 79 -28q66 0 118 40q-7 22 -14 27l-10 -2l-10 -1l-10 -1l-25 -2l-15 2l-13 2q-19 6 -39 18q-10 18 -19 46
q-1 5 -3 12l-1 2q-1 6 -1 8l-2 24q0 12 1 18q2 12 3 19l5 23l3 15q11 26 36 41q26 14 48 14q10 0 15 -1q6 -1 15 -3q10 -4 14 -5q5 -1 12 -6q26 -18 39 -42q24 -54 24 -118q0 -77 -35 -152q-34 -75 -91 -116l-94 -51l-5 -2l-1 -3l-2 -5l-3 -13l4 -13l18 -3q104 26 181 95
q38 33 69 75q30 38 52 91l4 30q3 17 3 24q2 22 2 38z" />
    <glyph glyph-name="colon" unicode=":" horiz-adv-x="184" 
d="M152 340q0 18 -23 38q-25 18 -48 18h-4q-34 -3 -51 -32q-5 -12 -5 -20q0 -23 22 -36q21 -15 46 -15q20 0 42 14q21 14 21 33zM149 47q0 7 -5 25q-23 23 -53 29l-2 -2q-24 0 -47 -16q-24 -18 -24 -36l2 -10l3 -10q9 -14 25 -21q18 -8 31 -8t37 8q19 9 28 19l1 2q4 17 4 20
z" />
    <glyph glyph-name="semicolon" unicode=";" horiz-adv-x="184" 
d="M147 321q0 26 -19 39q-19 16 -46 16h-7q-27 0 -44 -18q-17 -17 -17 -41l4 -18q26 -29 61 -29q18 0 32 7q16 7 31 18q1 3 1 4q4 18 4 22zM150 7q0 26 -14 46q-13 17 -43 22h-14q-22 0 -42 -14q-19 -16 -19 -36q0 -7 8 -25l49 -39l-2 -55l8 -8l4 -1q1 -1 6 -1l18 3
q18 22 30 53q11 30 11 55z" />
    <glyph glyph-name="less" unicode="&#x3c;" horiz-adv-x="343" 
d="M322 475v7q-4 10 -13 23l-7 7l-11 12h-22l-50 -50q-17 -15 -55 -47q-59 -48 -117 -83q-13 -21 -16 -33l2 -28q10 -6 19 -22q59 -36 104 -81q48 -51 80 -108l25 -3l16 5q13 6 14 7l15 27l-1 15l-3 15q-60 95 -143 165v10l145 112q18 26 18 50z" />
    <glyph glyph-name="equal" unicode="=" horiz-adv-x="343" 
d="M317 307q0 14 -9 29q-12 15 -26 18h-205q-10 -1 -26 -10q-8 -10 -11 -17q-5 -15 -5 -20l5 -17q8 -14 13 -17q13 -12 34 -12h183q22 0 35 15q12 17 12 31zM317 142q0 15 -9 28q-10 13 -26 19h-205l-26 -9q-6 -8 -10 -17l-4 -8q0 -1 -1 -2q-1 -3 -1 -7l5 -16q9 -15 19 -21
q10 -10 28 -10h183q22 0 35 13q12 14 12 30z" />
    <glyph glyph-name="greater" unicode="&#x3e;" horiz-adv-x="343" 
d="M319 311l-6 18l-8 15q-35 22 -59 39q-16 11 -48 36l-7 5q-62 52 -110 100h-21q-12 -10 -18 -19l-14 -23l-2 -7l2 -14l4 -12l13 -24l146 -112v-10q-43 -36 -78 -75q-34 -40 -66 -90l-3 -30q7 -15 16 -27l14 -8l7 -2l8 -2l27 3q36 66 77 107q44 45 104 82l5 7l7 8l6 7z" />
    <glyph glyph-name="question" unicode="?" horiz-adv-x="363" 
d="M335 525q0 14 -8 38q-34 46 -61 67q-37 31 -81 31l-19 -2q-54 -9 -94 -35q-50 -35 -50 -77q3 -6 10 -9l4 -3l11 3l9 3l88 51q10 2 18 2q22 0 45 -23q22 -22 22 -46q0 -22 -13 -35l-66 -85q-13 -20 -21 -34q-5 -11 -15 -37q-13 -33 -13 -76q0 -12 3 -26l6 -25
q15 -12 27 -19q11 -7 27 -7q12 0 22 7q8 8 15 21q0 32 6 66q4 23 7 37q1 2 4 16q3 11 3 12q40 61 100 130l4 12l6 15q3 8 3 12zM203 49q0 21 -14 38t-36 17h-9l-16 -4q-4 -2 -11 -7l-2 -1q-22 -19 -22 -43q0 -19 17 -36t38 -17l19 2q22 8 28 20q8 14 8 31z" />
    <glyph glyph-name="at" unicode="@" horiz-adv-x="585" 
d="M562 270v13q0 91 -79 155q-79 66 -168 66h-25h-5q-107 0 -179 -87q-68 -85 -68 -190q0 -30 6 -56q7 -28 19 -57q38 -64 95 -94q64 -32 132 -32q67 0 129 28l-48 31q-16 -25 -49 -31q-29 0 -55 6q-24 5 -53 17q-51 22 -86 63q-20 38 -29 70q-6 15 -8 32q-2 13 -3 20v16
q0 47 21 95q19 48 52 81q59 46 145 46q65 0 121 -32q58 -34 79 -90l6 -42q1 -3 1 -12v-11q0 -40 -16 -74q-18 -34 -47 -48q-12 2 -15 5l-9 4l-5 3l8 150q-6 34 -29 54l-31 21q-31 6 -66 6l-24 -1l-24 -4q-18 -6 -28 -10l-6 -2q-10 -4 -12 -5q-10 -7 -13 -14q0 -19 10 -23
l3 -3l1 -1q2 0 3 -1l3 -1l59 20l22 3h13q25 0 41 -18q15 -18 15 -41v-14q-4 -6 -13 -11q-19 8 -37 13q-25 5 -39 5q-48 -6 -84 -36q-38 -35 -38 -75l2 -12l2 -8l2 -9l13 -14l13 -14l13 -14l12 -3l14 -4l9 -2q14 -3 24 -3q28 0 55 10q33 15 53 31q6 -10 15 -16q7 -7 19 -13
l11 -2l11 -2q10 0 15 1q6 2 15 3q10 4 14 5q5 2 12 6q26 14 52 38q23 43 26 63l4 29q0 4 1 7v7v9zM360 209l-4 -24q-19 -16 -44 -26q-7 -4 -14 -6l-12 -3q-3 -1 -6 -1t-6 -1h-11q-18 0 -38 12l-5 20q0 22 18 35q12 9 20 12q14 4 25 5h18q35 0 59 -7v-16z" />
    <glyph glyph-name="A" unicode="A" horiz-adv-x="605" 
d="M581 47l-148 500q-21 50 -58 81l-9 3q-1 1 -8 1l-10 3q-8 2 -12 2h-11h-6q-36 0 -71 -18q-32 -19 -45 -52l-168 -402l-2 -23l2 -17l3 -19q19 -46 67 -74q41 -25 96 -36h18q52 0 107 46q35 30 80 86v7l-2 20l-9 10q-13 9 -20 10l-42 -42l-13 -8l-7 -3q-28 -17 -31 -18
l-22 -2q-45 0 -80 29q-36 29 -36 70l4 24l130 299l7 5q8 5 15 6l14 -8l147 -489l14 -23q7 -12 19 -22q10 -7 24 -7q13 0 22 4l15 6q26 23 26 51z" />
    <glyph glyph-name="B" unicode="B" horiz-adv-x="504" 
d="M481 160q0 54 -47 104q-28 28 -97 73l71 64q12 20 21 39q6 18 6 37q0 12 -3 24l-6 19q-28 54 -88 89q-62 35 -121 35h-24q-107 -12 -160 -99v-423q0 -7 5 -25l4 -10l2 -6q19 -37 69 -58q38 -16 90 -25h9l14 -2l27 -2q79 0 140 34q72 40 86 105zM350 153q0 -41 -34 -66
q-35 -26 -74 -26q-16 0 -31 5q-14 4 -28 15q-26 19 -31 51v408l9 13q13 10 27 10h5q37 0 75 -25q36 -25 49 -58q1 -3 1 -6q1 -6 1 -7v-12q0 -35 -30 -73q-16 -18 -58 -60l-3 -5l-4 -7l-2 -9l2 -4q0 -4 3 -9l8 -11q69 -40 77 -46q38 -35 38 -78z" />
    <glyph glyph-name="C" unicode="C" horiz-adv-x="504" 
d="M475 549l-2 18q-25 28 -55 46q-32 18 -62 22h-23l-28 -2l-29 -5q-69 -38 -113 -71q-55 -41 -98 -87q-20 -35 -31 -82q-10 -41 -10 -91l5 -47l2 -11l1 -14l2 -18q8 -46 27 -83q21 -41 53 -68q71 -63 158 -63q36 0 67 9q67 26 74 30q45 23 58 51l-3 12l-5 17l-16 2h-6
q-57 -34 -110 -53l-23 -4q-27 0 -53 16q-27 18 -60 59q-44 90 -44 185q0 52 14 105t34 91l27 22l13 10q23 16 47 16h11l30 -20l20 -13l24 -15l23 -11l24 -4q23 0 40 14t17 37z" />
    <glyph glyph-name="D" unicode="D" horiz-adv-x="544" 
d="M511 281q0 56 -20 113q-19 53 -57 94q-55 58 -110 95q-70 45 -134 45q-42 0 -80 -25q-33 -20 -68 -54l-23 -477l3 -12l5 -13l6 -16l2 -6l21 -15q11 -9 18 -12q59 -18 134 -18q28 0 53 3l5 1q33 6 49 10q54 13 96 37q50 50 75 115q25 63 25 135zM393 293q0 -51 -17 -105
t-44 -91q-19 -20 -54 -37t-65 -17q-23 0 -42 11q-19 10 -30 34l14 405q0 24 17 42t39 18h5q23 -9 34 -15l16 -8l17 -8q53 -41 82 -102q28 -59 28 -127z" />
    <glyph glyph-name="E" unicode="E" horiz-adv-x="504" 
d="M474 94l-9 24q-7 6 -15 6l-95 -54l-25 -9l-30 -4q-59 0 -100 62q-34 49 -43 119q3 11 6 16q7 10 23 10h218q25 8 42 26v17v15l-1 6l-1 7l-9 8l-11 11h-245l-22 16l10 94q12 38 40 64q31 31 68 31h14l88 -50l23 -7q1 0 5 -1q1 0 4 -1h15q14 11 22 21q4 4 12 17q1 2 2 3v8
l-4 23q-51 63 -128 63q-56 0 -124 -39q-38 -23 -108 -80q-20 -32 -29 -49l-26 -50l-5 -27l-4 -23l-3 -18l-4 -25v-33l1 -29l3 -25l10 -57q9 -24 21 -48q9 -22 24 -47q33 -42 85 -64q50 -21 107 -21q39 0 79 9l105 61z" />
    <glyph glyph-name="F" unicode="F" horiz-adv-x="404" 
d="M371 319q-3 15 -13 22q-12 10 -23 12h-169q-15 3 -18 8q-2 7 -3 8q-1 2 -1 7v148l16 11h169l16 8q8 9 13 21q4 9 4 23q-15 26 -43 39h-195q-81 -26 -97 -110v-482l9 -16l7 -11q11 -7 16 -7l10 -2h8q44 0 63 45v203l7 4l8 5l14 6h162q7 0 20 9q19 30 20 49z" />
    <glyph glyph-name="G" unicode="G" horiz-adv-x="504" 
d="M478 196q0 23 -3 57l-3 21l-2 20l-3 19q-21 27 -54 27q-7 0 -25 -5q-12 -6 -18 -18l-15 -193q0 -29 -17 -49t-47 -20q-21 0 -47 14q-55 34 -81 107q-20 57 -20 139q0 17 3 45l3 41q17 66 42 105q38 53 87 53q1 -1 7 -1h7l13 -2l86 -54l31 -4q21 0 32 14q10 13 10 35
q0 11 -1 15l-3 9q-4 12 -6 15l-6 8l-27 14l-24 13q-27 11 -47 16h-16l-38 -3q-97 -40 -194 -109q-40 -45 -60 -104q-21 -60 -21 -124q0 -73 25 -135q27 -68 70 -115q74 -53 153 -53q54 0 105 24q52 24 84 67q20 51 20 111z" />
    <glyph glyph-name="H" unicode="H" horiz-adv-x="524" 
d="M494 592v4q-6 22 -20 30q-18 9 -36 9q-21 0 -37 -10q-17 -11 -21 -31l-12 -202l-11 -12h-154l-10 -2l-10 2l-13 4l-3 4l-5 5l-5 5l-3 3l-4 211q-22 30 -58 30h-13q-15 -7 -25 -19q-11 -14 -14 -27l-10 -555q13 -19 39 -39l18 -2q22 0 38 12q17 11 23 31l6 229l8 9h193
l13 -15v-223q0 -7 5 -19q5 -8 14 -15q16 -13 36 -13q22 0 40 12q18 11 23 31z" />
    <glyph glyph-name="I" unicode="I" horiz-adv-x="223" 
d="M169 23v583q-11 18 -24 25q-16 8 -31 8q-8 0 -11 -1q-1 0 -6 -1q-2 0 -5 -1q-14 -6 -20 -9q-18 -15 -18 -33l1 -9v-542l10 -18q8 -15 24 -22q14 -7 31 -7l15 2q6 1 14 6q13 6 20 19z" />
    <glyph glyph-name="J" unicode="J" horiz-adv-x="243" 
d="M196 47v545q0 14 -6 27q-7 17 -15 29q-21 11 -47 16l-40 2l-31 -2q-7 -2 -12 -3q-4 -2 -6 -2q-3 -1 -7 -2t-7 -2q-8 -8 -11 -21q0 -19 11 -33l36 -9l16 -16v-531l-2 -11l-3 -14l-7 -26l-59 -71l-2 -4q2 -11 8 -21q17 -6 33 -6q20 0 36 6q56 51 69 66q36 43 46 83z" />
    <glyph glyph-name="K" unicode="K" 
d="M463 45v6q0 7 -3 23l-2 10l-1 7l-2 6q-22 69 -70 123q-45 51 -109 83v10l146 112l10 19q8 18 8 31v7q-43 84 -115 148q-10 2 -29 2q-24 0 -48 -10l-25 -12q-1 -1 -6 -3q-1 -1 -6 -4q-7 -4 -10 -7l-3 -7l-2 -6l-2 -12l3 -15l16 -7l24 -2l11 2q24 -7 38 -18l22 -33l8 -17
l5 -15q0 -13 -7 -21q-38 -38 -58 -54q-7 -7 -15 -12q-10 -8 -16 -12l-31 -21q-6 -6 -11 -8q-10 -3 -18 -3l-15 3v268l-8 12q-9 11 -21 15q-11 4 -26 4h-8q-33 -4 -50 -34v-564q6 -9 15 -18q8 -9 17 -17l13 -4h9q18 0 34 10q17 10 22 26l7 223l16 2q36 -14 70 -45
q18 -18 27 -28q14 -16 27 -37l60 -131q21 -13 31 -16q15 -6 27 -6l17 2q25 19 34 45z" />
    <glyph glyph-name="L" unicode="L" horiz-adv-x="384" 
d="M359 29v18l-3 32q-6 6 -22 18h-165q-13 0 -24 7l-4 20v448q-8 25 -16 44q-8 11 -19 14q-10 3 -17 3l-11 1h-12q-35 -10 -39 -47v-459q0 -14 6 -37l13 -34q19 -23 39 -37q20 -15 46 -18h187l2 1q19 7 22 10q12 9 17 16z" />
    <glyph glyph-name="M" unicode="M" horiz-adv-x="564" 
d="M533 47v532l-7 25l-14 22l-18 4q-15 0 -29 -12l-157 -224l-16 -4q-9 0 -14 4l-126 216l-16 14l-15 4l-10 3q-2 1 -14 1h-8l-16 -1l-10 -1q-22 -21 -32 -43v-567l20 -22l25 -4q10 0 28 8q15 12 19 20v368l1 4l4 4h6l102 -160q17 -6 26 -6q16 0 32 8l113 154l9 4l3 -2l3 -4
v-345q0 -24 16 -34q16 -13 34 -13q20 0 39 14q17 13 22 33z" />
    <glyph glyph-name="N" unicode="N" horiz-adv-x="524" 
d="M491 43v571q-13 21 -38 21h-6q-21 0 -35 -14t-14 -33v-142l-11 -5q-50 44 -121 97q-22 18 -64 42l-64 38q-4 2 -7 3l-6 3l-17 4q-10 3 -18 3l-13 1h-14q-26 -20 -36 -53v-545l10 -17q4 -9 12 -15l18 -2q37 0 53 31v422q3 13 12 19l12 3h4q86 -54 131 -91q74 -62 99 -125
l4 -212q0 -8 3 -16q1 -1 3 -6q3 -5 5 -8q7 -9 25 -17h19q22 0 42 14q12 20 12 29z" />
    <glyph glyph-name="O" unicode="O" horiz-adv-x="564" 
d="M539 321q0 118 -57 205q-63 97 -170 109l-27 2l-41 -3q-55 -23 -104 -62q-49 -41 -85 -90q-17 -39 -29 -88l-6 -62q-1 -2 -1 -29q0 -87 29 -156q35 -76 99 -120q51 -27 102 -27q61 0 124 33q62 34 108 85q30 44 44 94q8 28 11 53q3 27 3 56zM411 307l-2 -47l-3 -29
q-4 -15 -4 -23v-16q-6 -48 -43 -85q-38 -38 -83 -38l-16 2l-10 2l-8 2q-54 38 -79 110q-20 59 -20 137q0 9 4 63l1 7q0 2 1 11q3 14 3 21l1 6q1 20 1 27q16 42 43 72q37 38 72 38l22 -2q66 -30 96 -107q24 -61 24 -151z" />
    <glyph glyph-name="P" unicode="P" horiz-adv-x="437" 
d="M435 466v6q-10 72 -83 118q-39 26 -138 60h-15q-25 0 -42 -6l-83 -36q-49 -28 -49 -83v-480l6 -11q12 -34 53 -34q22 0 41 15q18 14 18 34v498q6 8 16 14q10 2 13 2h12q36 0 68 -20q31 -19 48 -53q9 -15 9 -35q0 -36 -40 -70q-31 -25 -75 -43q-10 -10 -10 -23l3 -9l1 -3
q11 -14 29 -14l14 2q101 43 172 103q14 15 23 34q9 17 9 34z" />
    <glyph glyph-name="Q" unicode="Q" horiz-adv-x="564" 
d="M546 286l-1 36l-3 36q-14 96 -82 167q-73 76 -166 76l-30 -3l-22 -6l-19 -6l-10 -3q-47 -23 -82 -56q-37 -37 -59 -77q-24 -45 -35 -90q-6 -21 -8 -42q-1 -15 -3 -28v-26q0 -25 6 -60q5 -28 14 -71q18 -60 59 -100q38 -41 101 -64l99 -70l22 -9l11 -5l9 -3q27 -8 43 -8
l14 1l16 4q16 6 25 15q2 6 2 16q0 28 -31 44q-33 15 -61 15v8q81 34 139 109q27 44 40 94q12 51 12 106zM425 240q0 -17 -2 -45q-1 -22 -6 -46q-9 -40 -31 -77q-33 -47 -90 -47q-10 0 -24 3l-4 2q-13 3 -17 6q-40 29 -60 69q-24 46 -35 149l-2 27l-2 32q0 84 25 138
q31 70 101 76h5q35 0 63 -27q25 -22 40 -57q11 -27 18 -49q5 -16 11 -50q10 -44 10 -104z" />
    <glyph glyph-name="R" unicode="R" 
d="M458 34v9l-2 26q-34 61 -74 113q-9 13 -19 24l-9 12q-6 6 -10 11q-16 18 -25 27q-10 11 -26 27l-2 20q32 15 65 40q29 26 57 57q10 16 14 32q6 17 6 32q0 42 -30 79q-46 43 -87 67q-58 32 -104 32h-8q-74 -12 -116 -35q-59 -35 -59 -98v-475l12 -14q17 -20 49 -20
q16 0 32 10q16 12 21 29v467q0 22 12 38t33 19q48 0 85 -39q39 -39 39 -81q0 -18 -6 -35q-6 -14 -22 -28l-78 -56q-10 -12 -13 -17l-7 -12q-5 -12 -5 -18l6 -18q91 -106 151 -239l3 -2q15 -13 20 -14q14 -6 26 -6q15 0 39 11q25 14 32 25z" />
    <glyph glyph-name="S" unicode="S" 
d="M459 164q0 9 -1 12q0 6 -1 11l-8 26q-13 30 -24 46q-24 25 -50 47l-17 15l-8 8l-5 4q-14 11 -20 16q-39 35 -98 76l-22 21q-12 20 -12 38q0 25 20 48q20 21 48 21h15l116 -69l8 -2l9 1q4 2 5 2q3 0 4 1l21 6q13 10 16 16t3 10l1 11q0 13 -6 25l-16 25q-30 20 -54 28
q-38 13 -64 19h-15q-54 0 -112 -31q-41 -21 -95 -64q-12 -12 -20 -41l-4 -26q0 -44 30 -77q79 -85 169 -144q28 -19 43 -51q8 -14 13 -30q3 -13 3 -30v-12q-5 -28 -23 -38q-19 -12 -44 -12l-16 2l-12 4l-12 4l-17 6q-39 35 -61 49q-44 29 -69 40h-5q-19 0 -36 -17
q-16 -16 -16 -36l2 -12q19 -28 37 -45q18 -19 44 -40q30 -16 48 -19q24 -6 52 -6q54 0 116 25q56 21 108 54q32 38 32 85z" />
    <glyph glyph-name="T" unicode="T" horiz-adv-x="458" 
d="M436 585q0 16 -7 27t-18 16h-356l-14 -6l-10 -11l-6 -5l-4 -21q0 -31 34 -40h96l19 -23v-486q5 -10 8 -12l8 -10q20 -14 40 -14q22 0 38 13t16 34v469l5 15l7 6l4 3l4 1l20 -1q22 0 47 3l18 2l18 3q13 3 20 8q7 4 10 9z" />
    <glyph glyph-name="U" unicode="U" horiz-adv-x="524" 
d="M490 283v321q-6 20 -21 34q-16 13 -37 13h-9q-31 -7 -43 -43l5 -112l1 -33l1 -34l-7 -137l-1 -41l-1 -40q-6 -43 -22 -73q-15 -32 -43 -53q-26 -16 -52 -16q-41 0 -73 28q-35 29 -39 68q-2 9 -3 31q-3 21 -3 36q-2 20 -2 30q-1 10 -1 30l-2 58q0 22 -1 36q-1 13 -1 26
l3 51q0 6 1 11v11v15l2 46l2 42q0 26 -17 40t-40 14q-18 0 -35 -12q-17 -14 -20 -34l-1 -14l-1 -37l-3 -48v-22l4 -80l1 -53q0 -41 6 -101l11 -111q23 -57 81 -93q58 -37 122 -37l16 2l56 27l30 15l26 13q110 86 110 226z" />
    <glyph glyph-name="V" unicode="V" horiz-adv-x="544" 
d="M515 513q0 16 -1 22q-2 12 -3 19q-7 23 -15 33q-60 36 -74 41q-45 22 -84 22l-22 -2q-38 -11 -77 -50q-28 -29 -55 -74q0 -6 3 -17l5 -19l25 -4q37 36 40 37q26 20 48 20q49 0 83 -28t34 -76v-12q-5 -28 -22 -89l-14 -47l-15 -47l-16 -47l-16 -43q-9 -24 -19 -37
q-7 -10 -20 -13l-20 8q-28 51 -55 113q-23 54 -43 119q-9 29 -22 78q-9 36 -16 81q-5 20 -6 41l-5 45q-3 20 -18 30q-17 11 -33 11q-20 0 -40 -14q-19 -15 -19 -35q24 -143 59 -261l26 -80l17 -47l18 -46l34 -82q15 -23 38 -41q19 -13 38 -18q16 -4 34 -4q35 0 61 19
q27 16 45 53q43 95 73 189q27 88 47 200z" />
    <glyph glyph-name="W" unicode="W" horiz-adv-x="764" 
d="M743 494v10q0 28 -11 61l-9 6q-8 6 -12 8q-2 1 -9 6q-2 1 -10 6q-6 3 -8 5q-20 10 -29 14q-50 25 -91 25q-18 0 -32 -3h-1q-19 -9 -24 -14l-7 -22l-2 -13q0 -24 21 -36q86 -39 94 -46q24 -22 24 -53v-5q-11 -95 -48 -185q-35 -88 -98 -154q-30 12 -48 39q-19 26 -19 58
l2 11l2 13l57 223q1 3 1 8l3 18q1 3 1 13l1 35q-20 62 -64 96q-45 33 -115 41h-5q-28 0 -60 -18q-33 -21 -71 -67l-5 -17l-3 -11q-3 -13 -3 -21l2 -3q11 -11 29 -16l28 19l31 16l22 2q42 0 73 -31t31 -71v-18q0 -79 -31 -154q-32 -78 -79 -145l-5 -5l-6 -6l-14 -11
q-10 0 -18 6q-8 12 -10 20l-94 496l-12 14q-5 6 -17 13q-6 2 -17 2q-18 0 -32 -12q-17 -15 -21 -31l-2 -47l2 -45l90 -432q26 -45 45 -62q29 -26 70 -26q35 0 70 26q27 21 52 53q31 -37 58 -54q37 -25 72 -25q28 0 50 16q153 192 203 431l7 38q1 2 1 11z" />
    <glyph glyph-name="X" unicode="X" horiz-adv-x="564" 
d="M531 57q-2 11 -7 24l-171 248l160 230q6 21 6 42v13q-7 13 -19 19t-28 6q-20 0 -30 -7q-29 -54 -70 -113q-40 -61 -84 -107l-171 238h-10q-24 0 -37 -19q-14 -20 -14 -39l5 -16l3 -13l158 -236l-201 -260l-2 -12l2 -19q18 -34 48 -34q19 0 34 12l171 220l158 -220
q14 -13 31 -16h5q25 0 44 19q19 18 19 40z" />
    <glyph glyph-name="Y" unicode="Y" horiz-adv-x="524" 
d="M494 592v11q-3 17 -15 24q-3 3 -12 5l-15 2q-14 0 -25 -8q-14 -8 -20 -20l-137 -206l-149 228l-24 9l-18 2q-21 0 -35 -20q-13 -19 -13 -40l7 -26l164 -250v-258q6 -22 22 -34q16 -13 34 -13q5 0 25 5l10 4l12 7q11 14 14 27v256l171 272z" />
    <glyph glyph-name="Z" unicode="Z" horiz-adv-x="504" 
d="M476 49q0 15 -8 29q-11 11 -24 14h-254l-15 10l-5 15l3 5q29 59 57 108q29 50 57 93q31 48 68 96q38 48 75 89l12 28l7 16q3 12 3 24q0 16 -8 30q-10 12 -26 16h-320q-12 -4 -17 -7q-10 -5 -12 -7q-9 -12 -11 -19q-4 -7 -4 -22q8 -28 38 -36h198q5 0 11 -6l-2 -14
q-94 -108 -159 -204q-44 -65 -70 -116q-27 -51 -53 -114l-2 -18l2 -18q9 -19 18 -26q7 -8 23 -13h384l18 13l10 7l3 12z" />
    <glyph glyph-name="bracketleft" unicode="[" horiz-adv-x="204" 
d="M190 -117v15l-42 45l-10 37v573q8 34 17 52l16 26l17 24v4q0 8 -3 18l-6 16q-10 7 -21 7q-52 -22 -87 -68q-33 -46 -42 -105v-570q4 -9 9 -27q20 -28 45 -56q27 -30 51 -47h6q10 0 23 7q16 7 19 15q3 4 6 19z" />
    <glyph glyph-name="bracketright" unicode="]" horiz-adv-x="223" 
d="M175 -20v583l-11 63q-14 16 -40 39q-28 25 -39 32h-8l-14 -2q-19 -12 -32 -25q-15 -16 -15 -35l49 -84v-574q-10 -38 -21 -63q-14 -30 -35 -54l-2 -2l-1 -9l1 -9q13 -13 27 -13h9q17 8 40 28q15 13 38 41q20 27 54 84z" />
    <glyph glyph-name="asciicircum" unicode="^" horiz-adv-x="424" 
d="M406 500q0 9 -3 18q-4 10 -11 15l-130 65q-13 7 -20 8q-14 2 -21 2l-10 -1l-13 -1q-12 -1 -21 -5l-128 -58q-21 -16 -21 -39q0 -22 16 -40q17 -18 36 -18l119 56l18 4l16 -4l122 -56q19 0 36 17q15 18 15 37z" />
    <glyph glyph-name="underscore" unicode="_" horiz-adv-x="627" 
d="M631 -149q0 19 -6 31q-9 12 -22 14h-560q-17 -5 -20 -10l-5 -9l-4 -7q-3 -9 -3 -18q1 -6 3 -14l1 -1l8 -17l20 -7h558l26 7z" />
    <glyph glyph-name="grave" unicode="`" horiz-adv-x="424" 
d="M322 503q0 14 -13 24l-197 92h-4q-1 -1 -6 -1q-7 -2 -8 -3q-13 -10 -13 -29q0 -16 11 -27l198 -92q7 0 13 3q6 4 10 8q9 11 9 25z" />
    <glyph glyph-name="a" unicode="a" horiz-adv-x="443" 
d="M412 324q-58 93 -164 93h-9q-38 0 -86 -20l-38 -19q-11 -6 -30 -19l-8 -6l-12 -21q-2 -8 -2 -11l3 -4l1 -2l12 -12l5 -2l11 2l110 51l21 6h6q30 0 49 -18q19 -19 19 -45q0 -7 -5 -25q-13 -13 -25 -13l-16 6q-6 2 -9 2q-3 1 -13 1h-15q-26 0 -55 -8q-25 -6 -56 -23
q-56 -32 -82 -77q-10 -19 -10 -42q0 -47 47 -82q46 -34 99 -34q23 0 50 12l48 20h6l18 -3l39 -35h15q19 0 39 11q16 10 21 31zM284 148l-4 -26q-20 -22 -43 -36q-25 -14 -45 -14l-18 3q-19 7 -34 25q-14 17 -14 35q0 14 10 27q12 13 29 18l20 3l12 2h18l24 -1l25 -4
q20 -11 20 -32z" />
    <glyph glyph-name="b" unicode="b" 
d="M468 220q0 30 -7 57q-10 34 -19 54q-52 85 -151 85l-41 -4l-95 -46l-11 -2l-3 2v237l-12 27q-19 12 -23 13q-17 5 -24 5h-12q-17 -1 -27 -12q-11 -14 -16 -30v-431q6 -24 15 -44q12 -23 21 -38q13 -17 28 -32q46 -45 113 -55l21 -2q11 0 27 2q13 1 28 6q25 7 56 22
q44 23 94 68q11 14 17 27q8 15 12 30q9 32 9 61zM351 209q0 -49 -13 -85q-10 -15 -26 -30q-3 -3 -8 -7l-8 -8q-6 -4 -15 -12q-14 -7 -21 -7q-12 -3 -19 -3l-9 2l-7 2l-18 6q-37 19 -54 56q-18 36 -18 78q0 17 4 33l8 34q14 18 27 30q10 10 24 22q38 29 67 29h14l29 -14
q22 -21 33 -53q10 -30 10 -73z" />
    <glyph glyph-name="c" unicode="c" horiz-adv-x="443" 
d="M414 102l-2 11l-4 11q-8 2 -16 2h-6l-80 -51q-12 -3 -31 -3q-57 0 -101 50q-38 46 -44 110l-2 6q0 34 24 65q26 30 55 30l23 -4l79 -50l6 -2l6 -2q1 -1 10 -1q20 0 36 18q15 20 15 39q0 23 -15 38q-52 32 -126 45q-41 -11 -81 -32q-36 -19 -69 -50q-69 -67 -69 -151
l2 -24q12 -60 62 -101q42 -34 109 -56h26q54 0 104 26q52 28 87 68z" />
    <glyph glyph-name="d" unicode="d" 
d="M456 606q-5 17 -14 25q-10 8 -27 13h-11q-18 0 -35 -12q-17 -13 -23 -31l-8 -201l-79 7q-55 -6 -113 -41q-46 -30 -93 -78q-30 -49 -30 -111q0 -65 57 -121q56 -56 120 -56l13 2l11 2l86 39h18q16 -19 26 -26l8 -6l11 -9l14 -2q23 0 39 12q17 11 20 31zM339 303l-5 -173
q-31 -29 -56 -42q-24 -11 -41 -11l-15 4q-39 15 -61 58t-22 88l2 25q9 34 32 48q24 16 49 19l27 1l20 1l25 -1l26 -3z" />
    <glyph glyph-name="e" unicode="e" horiz-adv-x="443" 
d="M406 88v16q-10 10 -23 10l-15 -2q-31 -23 -56 -32q-30 -13 -62 -13q-12 0 -23 3l-4 2q-12 5 -19 9q-22 14 -33 39l-6 24l229 133l4 16q0 9 -4 18q-2 5 -3 8q-1 4 -2 4q-1 4 -6 10q-37 37 -60 50q-35 22 -73 22l-20 -2q-47 -19 -83 -41q-40 -24 -79 -56q-45 -58 -45 -126
q0 -72 57 -120q47 -40 123 -60h16q51 0 101 25q50 24 86 63zM280 284l-1 -5l-1 -5l-131 -78l-11 13l-2 16l-2 11q0 36 25 62q26 26 58 26l17 -2l21 -7q20 -9 27 -24v-7z" />
    <glyph glyph-name="f" unicode="f" horiz-adv-x="281" 
d="M262 588l-2 20q-8 12 -20 19q-17 7 -31 7h-8q-29 0 -67 -21q-45 -27 -88 -78l-6 -17l-5 -18v-464q16 -36 52 -36q16 0 32 9q17 10 24 25l3 295l39 2l50 7q8 1 15 10q6 8 6 14q0 16 -12 23q-21 8 -36 9h-27h-20l-13 13v106q5 12 10 18l7 9l66 3l18 10l9 8l1 5l2 8z" />
    <glyph glyph-name="g" unicode="g" horiz-adv-x="476" 
d="M452 362v6q0 25 -21 31l-18 -2q-34 0 -72 7q-49 9 -76 15h-12q-57 0 -115 -29q-50 -26 -94 -71q-17 -33 -23 -57q-8 -32 -8 -58q0 -44 30 -92q7 -9 25 -25q3 -2 7 -4q4 -3 7 -5t7 -4t7 -4q8 -4 23 -8q9 -3 36 -11l6 -2l-4 -12q-85 -36 -161 -106q-10 -10 -13 -22
q-5 -17 -5 -27l3 -25q24 -45 68 -74q78 -25 161 -25h16q16 0 51 11l36 15l41 21q21 12 38 32q15 19 15 43q-22 56 -59 106q-19 22 -55 22q-18 0 -32 -11q-14 -14 -17 -32q2 -7 6 -17q3 -6 7 -15q3 -7 4 -9l22 -40l2 -20q0 -19 -13 -33q-14 -17 -32 -21h-7q-10 0 -26 2
q-10 3 -23 8q-28 12 -45 28q-23 26 -23 54q0 23 16 45q18 24 40 31l74 37l20 11l41 23l49 29q43 28 69 73q24 44 24 91t-30 90l13 5l6 4l6 4q5 4 7 9zM344 199q0 -26 -14 -54q-16 -27 -41 -37l-13 -5l-8 -1l-6 -2h-4h-7q-48 0 -90 51q-38 47 -45 98l-2 9q0 19 7 34
q8 18 22 32q29 32 65 32q19 0 36 -10q23 -13 45 -35q26 -26 38 -46q9 -19 12 -33q5 -18 5 -33z" />
    <glyph glyph-name="h" unicode="h" horiz-adv-x="443" 
d="M412 34v259l-2 20q-16 35 -29 47q-16 20 -39 33q-23 14 -56 14q-15 0 -38 -5q-24 -7 -45 -16q-36 -16 -68 -40l5 246q-3 9 -12 20q-15 15 -20 18l-2 1q-8 1 -11 1h-12h-8q-16 -4 -27 -12q-11 -7 -12 -22l-11 -551l8 -13l6 -9q5 -8 15 -16l4 -1l9 -4q8 -2 14 -2
q17 0 33 11t21 26l5 233q15 33 48 51q24 14 66 21q25 -5 36 -23q11 -20 11 -46v-230l7 -22q20 -23 48 -23q37 0 56 34z" />
    <glyph glyph-name="i" unicode="i" horiz-adv-x="223" 
d="M171 579q0 15 -14 31q-16 16 -33 20h-10q-13 0 -26 -6q-16 -9 -24 -17q-13 -10 -13 -28l6 -20q8 -14 22 -21q13 -9 27 -9q17 0 28 7q14 6 19 10q8 4 11 7q7 6 7 26zM167 36v322l-5 14q-22 22 -54 22h-4q-14 0 -28 -8q-13 -10 -19 -24v-328q6 -20 20 -28t29 -8q19 0 35 10
q18 13 26 28z" />
    <glyph glyph-name="j" unicode="j" horiz-adv-x="226" 
d="M178 576q0 18 -19 33q-19 16 -40 19h-6q-20 0 -34 -15q-15 -16 -15 -34l1 -9l3 -7l7 -14l16 -8l11 -5q17 -5 27 -5l5 2l15 8l15 10q14 12 14 25zM170 362q-12 32 -43 32h-14q-21 0 -36 -12q-18 -15 -18 -33l-2 -439q-15 -30 -53 -62l-66 -49l-8 -17l3 -12q12 -6 20 -6
q10 0 22 4q58 25 91 50q42 29 81 70q13 21 19 49z" />
    <glyph glyph-name="k" unicode="k" horiz-adv-x="424" 
d="M395 51l-2 21q-17 35 -33 56q-18 25 -44 52q-4 6 -9 18q12 28 50 65l21 22l13 12l2 16q0 29 -34 59q-27 24 -59 37h-13l-26 -2l-85 -49l-21 -4l-12 12v226q-17 32 -43 38h-10q-23 0 -40 -15q-18 -18 -18 -36l-2 -536l7 -23q13 -22 47 -22l19 3l17 5l20 25l1 185l1 13
l3 12l8 23q12 21 38 41q25 19 48 19q27 0 40 -18l1 -16l-5 -22l-85 -72v-16l114 -166q18 -18 46 -18h11l32 24z" />
    <glyph glyph-name="l" unicode="l" horiz-adv-x="223" 
d="M170 47v561q-12 33 -51 40h-8q-25 0 -41 -16q-18 -16 -18 -40v-529q0 -28 17 -45q16 -16 40 -16q20 0 37 13q16 12 24 32z" />
    <glyph glyph-name="m" unicode="m" horiz-adv-x="625" 
d="M591 47v248l-3 22q-18 37 -47 63q-27 24 -65 32h-12l-15 -2l-15 -3l-79 -41h-23q-41 29 -83 41l-29 2l-84 -37l-11 11l-5 6q-6 6 -15 11l-27 1q-20 0 -33 -7t-19 -28v-335q7 -12 19 -21q11 -8 23 -8q16 0 29 6l19 9l11 6l4 236q1 5 6 20l1 4l9 24q10 16 26 26q17 9 31 9
q15 0 25 -6q12 -9 18 -23v-259q3 -25 19 -38q17 -14 37 -14q9 0 16 3q4 1 8 3q2 1 3 1q1 1 3 2t3 2q15 8 23 28v223l13 29l13 24q11 14 23 20q15 5 28 5q18 0 28 -7t14 -26l5 -262l5 -16q1 -6 6 -11q18 -16 38 -16q23 0 39 12q16 9 20 31z" />
    <glyph glyph-name="n" unicode="n" horiz-adv-x="443" 
d="M415 270v18q-16 51 -49 82q-36 35 -79 35h-18l-124 -39l-16 21q-8 9 -20 16q-12 4 -25 4h-7q-34 -11 -47 -38v-324l2 -14q8 -15 21 -22t24 -7q9 0 16 3q4 1 8 3q2 1 3 1q3 3 6 4q17 11 21 25l12 205l3 15l4 16l11 32q7 7 16 13l8 5l13 9q15 5 37 5q27 0 46 -13t19 -37
v-249q16 -37 54 -37l31 5l9 8q9 7 12 14z" />
    <glyph glyph-name="o" unicode="o" horiz-adv-x="471" 
d="M450 214v20l-2 18q-11 56 -56 94q-37 34 -98 54l-27 1l-24 -1l-9 -2q-1 -1 -9 -1l-9 -1q-36 -10 -73 -29q-38 -22 -56 -38q-58 -50 -70 -122l-2 -16q0 -31 11 -59q9 -26 32 -53q38 -47 97 -75q26 -6 54 -6q92 0 165 62q76 64 76 154zM346 165q0 -36 -19 -67
q-20 -32 -58 -41l-15 -2q-57 0 -93 50t-36 109q0 24 7 45l9 24l8 16q25 19 36 23q20 9 40 9h14q44 -10 76 -62q31 -52 31 -104z" />
    <glyph glyph-name="p" unicode="p" horiz-adv-x="463" 
d="M443 201v17q0 7 -2 22v3q-1 8 -3 22q-9 31 -16 47q-23 47 -59 79q-25 15 -48 19t-53 4h-27l-85 -32q-21 34 -61 34l-18 -2q-14 -2 -23 -12q-10 -11 -16 -27v-587q8 -17 17 -21q12 -6 26 -6q19 0 34 7q15 4 27 16l10 227l6 7l27 -4q18 -3 29 -3l13 -2q64 0 123 41
q63 44 91 98q3 6 3 11q1 1 1 4q1 3 1 4t1 3l1 3v9q0 3 1 6v5v8zM331 211q0 -42 -10 -78q-15 -31 -38 -49q-26 -20 -52 -20q-16 0 -24 4l-12 6q-4 2 -5 2q-38 41 -50 83l-2 13l-2 12l-2 11v9q0 56 22 93q26 45 77 56h9l12 -1l14 -3q33 -21 48 -57q15 -37 15 -81z" />
    <glyph glyph-name="q" unicode="q" 
d="M455 -203q0 27 -20 39l-22 9l-18 7l-25 10q-16 19 -16 39l2 12l2 12l16 37l30 70l19 45l24 61q6 26 6 63q0 55 -16 100q-30 52 -77 82q-49 33 -103 33h-13l-18 -2q-54 -17 -93 -41q-43 -25 -78 -60q-39 -55 -39 -120q0 -49 20 -94q21 -47 53 -76q2 -1 6 -4q9 -7 13 -9
l4 -2q10 -4 15 -5q15 -7 42 -7q18 0 34 4q20 4 38 10q40 16 70 33l-65 -153l-5 -23l-2 -22q0 -32 17 -58q17 -27 48 -39h110q9 2 18 8l12 10q6 4 9 16q0 3 1 6q1 7 1 9zM349 188l-2 -19q-10 -42 -43 -68q-38 -29 -74 -29l-16 1l-17 4q-35 20 -52 56q-10 18 -13 36
q-4 16 -4 42l2 21l3 16l9 42q16 28 41 45q25 19 56 19h9q51 -10 78 -57q23 -41 23 -92v-17z" />
    <glyph glyph-name="r" unicode="r" horiz-adv-x="285" 
d="M258 329q0 16 -8 45q-9 21 -26 27h-5q-16 0 -51 -21q-12 -8 -28 -16l-5 12l-6 11q-10 11 -18 14l-10 2q-12 2 -20 2q-32 -4 -46 -35v-336l4 -9l4 -8l8 -13q18 -8 30 -8l15 2l17 6q15 8 21 19l6 217q3 14 9 21q8 10 17 16l76 36z" />
    <glyph glyph-name="s" unicode="s" horiz-adv-x="338" 
d="M321 120l-4 29q-15 33 -48 60q-18 17 -45 33l-6 3q-37 22 -61 34l-5 6l-3 4l-2 4q-7 10 -7 14v6q0 15 10 22q12 9 22 9h7l75 -37q20 0 38 12q19 12 19 27q0 14 -10 24q-17 9 -44 22q-10 5 -39 13q-8 2 -13 2h-12q-35 0 -78 -25q-32 -18 -64 -49q-12 -25 -12 -29l-2 -16
q0 -47 58 -90q32 -24 98 -58l19 -20l12 -19v-7q0 -16 -12 -25q-13 -10 -29 -10l-4 2l-53 33l-53 32h-14q-18 0 -32 -15q-13 -14 -13 -34q0 -16 10 -26l32 -17q1 -1 3 -2q7 -4 10 -5q5 -1 15 -6q22 -9 62 -19l17 -2q50 0 103 35q55 37 55 85z" />
    <glyph glyph-name="t" unicode="t" horiz-adv-x="265" 
d="M255 47q0 6 -3 13l-2 3v3l-2 4q-7 7 -23 7l-13 -2l-5 -2l-9 -3q-28 0 -47 13q-9 8 -15 21v205l-1 4l7 20q11 8 20 9l36 -2q12 0 21 4l10 4l8 3q7 7 7 27v9l-17 14l-40 6l-14 2h-27l-13 12v101l-14 14l-7 6q-16 11 -24 11h-9q-17 -1 -27 -12q-12 -11 -18 -25v-406
q4 -35 36 -61q29 -27 108 -45q42 8 74 32z" />
    <glyph glyph-name="u" unicode="u" horiz-adv-x="424" 
d="M406 39v330q-11 23 -24 32l-23 4q-40 0 -54 -33l-11 -223l-4 -14l-5 -9l-5 -9q-26 -20 -41 -28q-22 -13 -40 -19l-9 -1q-21 0 -33 16q-13 16 -17 37v242q-9 23 -24 33q-18 12 -36 12h-11q-33 -10 -41 -39v-235l5 -29l9 -34q22 -29 51 -49q28 -19 59 -19l20 2l118 32
q13 -14 32 -24q16 -10 33 -10q16 0 29 10q16 10 22 25z" />
    <glyph glyph-name="v" unicode="v" horiz-adv-x="402" 
d="M381 343v13v15l-1 6l-1 7q-4 9 -18 14q-15 5 -23 5q-17 0 -28 -7q-11 -9 -13 -22q-14 -70 -34 -136q-26 -75 -49 -134l-16 -10l-6 -2q-19 0 -30 26q-7 14 -9 24q-2 12 -2 22l-27 206q-13 24 -23 35l-14 6q-10 3 -15 3h-10q-21 0 -35 -23q-13 -22 -13 -45l13 -75l10 -51
l16 -73l13 -55q22 -39 40 -55q22 -21 56 -31q18 -6 38 -6q27 0 47 13q19 10 37 34q17 36 53 136q11 30 42 139z" />
    <glyph glyph-name="w" unicode="w" horiz-adv-x="611" 
d="M592 364l-3 10l-4 11q-19 18 -45 18h-6q-15 -1 -28 -14q-12 -13 -13 -25l-56 -222l-12 -18l-61 218l-13 26l-14 24q-8 7 -14 9l-17 2q-16 0 -35 -14q-17 -14 -17 -33l-55 -228l-10 -4l-63 236q-7 19 -19 29q-12 11 -28 12h-7q-20 0 -34 -18q-13 -17 -13 -39l3 -14l4 -15
l69 -264q8 -13 13 -19q4 -8 10 -14q18 -11 24 -13q15 -5 23 -5q27 0 52 19q26 20 39 46l46 130l56 -172q17 -14 28 -17q15 -6 26 -6q19 0 41 12q22 13 37 31z" />
    <glyph glyph-name="x" unicode="x" horiz-adv-x="443" 
d="M411 23v9l-1 4l-1 5l-59 73l-65 77l108 136q5 12 5 22q0 15 -12 22q-13 7 -29 7q-28 0 -47 -16q-6 -10 -16 -28l-2 -3q-12 -18 -18 -26q-20 -28 -45 -53l-110 120q-14 13 -37 13q-18 0 -25 -10q-8 -10 -8 -22l4 -13q25 -42 49 -74q41 -53 55 -68q-73 -73 -138 -159
q0 -25 23 -37l14 -2l16 2l150 142l113 -130q15 -18 36 -18q10 0 28 8q12 8 12 19z" />
    <glyph glyph-name="y" unicode="y" horiz-adv-x="463" 
d="M434 258l-2 55l-9 61l-8 13l-11 11q-7 3 -24 3q-16 0 -25 -4q-12 -3 -17 -7q-15 -13 -15 -39l4 -59l1 -5v-13v-16l-2 -52l-5 -53q-9 -20 -16 -27l-22 -27q-14 -9 -20 -11l-13 -3l-14 -2q-47 0 -74 34q-28 32 -28 82v173l-8 13q-8 9 -19 13q-10 3 -20 3q-17 0 -33 -14
q-15 -13 -18 -33l-2 -37q-3 -36 -3 -56q0 -71 18 -130q24 -67 72 -101l10 -6l18 -6q8 -1 12 -3q3 -1 12 -1q24 0 42 7q25 9 45 19l14 1h14q4 -4 4 -16q-25 -42 -37 -75q-19 -47 -19 -85q0 -26 10 -45q9 -21 28 -34l13 -2l15 -4q8 -2 12 -2q13 -4 46 -4l22 1l18 4q20 7 23 11
l1 3q5 11 6 17t1 17v6l-6 12q-4 6 -9 9l-40 13q-22 7 -30 19l-6 20q-5 15 -5 26q0 22 17 61q6 11 18 30q15 24 37 58q27 87 27 177z" />
    <glyph glyph-name="z" unicode="z" horiz-adv-x="343" 
d="M320 16v6q0 16 -6 25q-3 8 -21 12h-135l-17 18l-1 8q0 34 18 59l41 46l30 31q30 32 71 67l2 19l-4 31q-22 31 -59 31h-187l-9 -9l-6 -11q10 -19 24 -25h106l8 -2l10 -3l7 -16l-114 -118l-26 -37q-5 -9 -17 -30l-5 -10l-3 -18l-2 -13q0 -36 36 -65q10 -7 15 -7l16 -3h210
q8 3 18 14z" />
    <glyph glyph-name="braceleft" unicode="{" horiz-adv-x="297" 
d="M274 -70l-5 72l-18 -2h-12q-22 0 -42 6l-16 28l-9 169q-15 24 -42 45l-12 9l-13 10l-14 11l-11 8q17 12 36 33q21 23 29 37l1 6q7 57 7 63l1 13v19v31v45l9 48q39 13 84 13h18l-12 65h-31h-13h-16q-2 -1 -9 -1l-12 -1l-21 -10l-21 -11l-12 -6l-7 -15l-7 -15l-13 -31v-152
q-1 -12 -7 -30t-9 -25q-4 -9 -4 -11l-50 -56l-9 -13q-5 -10 -5 -14q0 -16 25 -31l12 -7l10 -4l19 -10q10 -5 16 -15l3 -5l5 -7l5 -8l5 -183q3 -17 10 -26q7 -14 17 -27l34 -12q12 -3 26 -3h80z" />
    <glyph glyph-name="braceright" unicode="}" horiz-adv-x="286" 
d="M275 266q0 19 -26 48q-26 24 -37 37l-12 35q-5 13 -5 31v152q-1 15 -9 32l-8 13l-11 16q-23 15 -47 22q-25 7 -57 7h-32l-11 -65h16l21 -1l23 -2q20 -3 42 -10l8 -48l-2 -45q0 -55 12 -132q11 -18 29 -37q23 -22 36 -33l-38 -28l-11 -10l-10 -8q-18 -26 -24 -53l-14 -153
l-9 -13l-7 -8l-6 -7q-22 -6 -43 -6l-15 1l-12 1l-10 -72h64q39 0 63 15q28 24 42 53l10 183q9 20 27 35l47 24q16 13 16 26z" />
    <glyph glyph-name="asciitilde" unicode="~" horiz-adv-x="424" 
d="M375 502q0 19 -9 35q-13 15 -27 18l-15 -9q-13 -7 -20 -8q-12 -9 -23 -11q-10 -3 -28 -3l-22 1l-77 31q-9 5 -16 6l-17 3q-55 -6 -98 -38q-16 -14 -16 -39q0 -22 16 -38q17 -17 39 -17q16 13 31 19q6 3 9 3q1 1 3 1t4 1h14q17 0 48 -9l27 -10l24 -9l6 -1l6 -2l12 -2
q2 -1 6 -1h6q25 0 49 10q28 12 45 22q23 17 23 47z" />
    <glyph glyph-name="sterling" unicode="&#xa3;" 
d="M452 14v4l-2 11l-12 7l-15 -6l-10 -3l-7 -3l-8 -1l-43 -3l-17 -2h-21q-17 0 -25 1q-5 1 -11 1q-10 1 -12 1q-26 5 -38 10q-42 18 -56 52q4 27 12 58l17 57q4 5 21 13l83 3l6 2q21 21 21 43l-3 20q-10 12 -35 15l-19 2l-17 2l-20 3l-7 12l29 200q0 36 38 50l68 13
q19 15 27 32v10l-1 26q-20 23 -46 23q-64 -12 -114 -48q-48 -36 -69 -95l-45 -229l-69 -9q-5 -5 -8 -13l-5 -12l-3 -9q-1 -4 -1 -5q-1 -3 -1 -11l2 -4q7 -15 16 -20l40 -14v-15q0 -39 -24 -83q-23 -44 -53 -75l-2 -5q0 -10 10 -20h42l26 -1l26 -3q59 -28 92 -35
q53 -15 95 -15q46 0 82 16q41 20 66 52z" />
    <glyph glyph-name="brokenbar" unicode="&#xa6;" horiz-adv-x="241" 
d="M183 47v571q-2 7 -7 14q-1 5 -9 12q-13 9 -32 13h-8q-12 0 -28 -8t-21 -17q-8 -19 -8 -26l2 -3v-540l3 -14l7 -27q17 -20 43 -20q10 0 23 5q9 4 20 13q11 11 15 27z" />
    <glyph glyph-name="logicalnot" unicode="&#xac;" horiz-adv-x="524" 
d="M433 107v166q0 22 -11 33q-8 8 -14 9q-7 3 -17 3h-268q-20 0 -30 -12q-11 -14 -11 -27q0 -17 14 -36q14 -17 35 -20h207v-124q0 -20 16 -30q16 -11 31 -11q10 0 18 4q9 3 16 10q14 14 14 35z" />
    <glyph glyph-name="Aacute" unicode="&#xc1;" horiz-adv-x="607" 
d="M426 791q0 19 -13 29q-4 3 -14 4h-4l-197 -92q-13 -10 -13 -24q0 -15 10 -25q11 -11 22 -11l198 92q11 11 11 27zM581 47l-148 500q-21 50 -58 81l-9 3q-1 1 -8 1l-10 3q-8 2 -12 2h-11h-6q-36 0 -71 -18q-32 -19 -45 -52l-168 -402l-2 -23l2 -17l3 -19q19 -46 67 -74
q41 -25 96 -36h18q52 0 107 46q35 30 80 86v7l-2 20l-9 10q-13 9 -20 10l-42 -42l-13 -8l-7 -3q-28 -17 -31 -18l-22 -2q-45 0 -80 29q-36 29 -36 70l4 24l130 299l7 5q8 5 15 6l14 -8l147 -489l14 -23q7 -12 19 -22q10 -7 24 -7q13 0 22 4l15 6q26 23 26 51z" />
    <glyph glyph-name="Eacute" unicode="&#xc9;" horiz-adv-x="500" 
d="M411 776q0 19 -13 29q-1 2 -14 4h-4l-197 -92q-13 -10 -13 -24q0 -15 10 -25q9 -11 22 -11l198 92q11 11 11 27zM474 94l-9 24q-7 6 -15 6l-95 -54l-25 -9l-30 -4q-59 0 -100 62q-34 49 -43 119q3 11 6 16q7 10 23 10h218q25 8 42 26v17v15l-1 6l-1 7l-9 8l-11 11h-245
l-22 16l10 94q12 38 40 64q31 31 68 31h14l88 -50l23 -7q1 0 5 -1q1 0 4 -1h15q14 11 22 21q4 4 12 17q1 2 2 3v8l-4 23q-51 63 -128 63q-56 0 -124 -39q-38 -23 -108 -80q-20 -32 -29 -49l-26 -50l-5 -27l-4 -23l-3 -18l-4 -25v-33l1 -29l3 -25l10 -57q9 -24 21 -48
q9 -22 24 -47q33 -42 85 -64q50 -21 107 -21q39 0 79 9l105 61z" />
    <glyph glyph-name="Iacute" unicode="&#xcd;" horiz-adv-x="222" 
d="M251 791q0 19 -13 29q-3 2 -14 4h-4l-197 -92q-13 -12 -13 -24q0 -15 10 -25q8 -11 22 -11l198 92q11 11 11 27zM169 23v583q-11 18 -24 25q-16 8 -31 8q-8 0 -11 -1q-1 0 -5 -1q-3 0 -6 -1q-14 -6 -20 -9q-18 -15 -18 -33l1 -9v-542l10 -18q8 -15 24 -22q14 -7 31 -7
l15 2q6 1 14 6q13 6 20 19z" />
    <glyph glyph-name="Oacute" unicode="&#xd3;" horiz-adv-x="559" 
d="M396 781q0 19 -13 29q-2 2 -14 4h-4l-197 -92q-13 -13 -13 -24q0 -15 10 -25q9 -11 22 -11l198 92q11 11 11 27zM539 321q0 118 -57 205q-63 97 -170 109l-27 2l-41 -3q-55 -23 -104 -62q-49 -41 -85 -90q-17 -39 -29 -88l-6 -62q-1 -2 -1 -29q0 -87 29 -156
q35 -76 99 -120q51 -27 102 -27q61 0 124 33q62 34 108 85q30 44 44 94q8 28 11 53q3 27 3 56zM411 307l-2 -47l-3 -29q-4 -15 -4 -23v-16q-6 -48 -43 -85q-38 -38 -83 -38l-16 2l-10 2l-8 2q-54 38 -79 110q-20 59 -20 137q0 9 4 63l1 7q0 2 1 11q3 14 3 21l1 6q1 20 1 27
q16 42 43 72q37 38 72 38l22 -2q66 -30 96 -107q24 -61 24 -151z" />
    <glyph glyph-name="Uacute" unicode="&#xda;" horiz-adv-x="523" 
d="M371 801q0 19 -13 29q-2 2 -14 4h-4l-197 -92q-13 -12 -13 -24q0 -15 10 -25q9 -11 22 -11l198 92q11 11 11 27zM490 283v321q-6 20 -21 34q-16 13 -37 13h-9q-31 -7 -43 -43l5 -112l1 -33l1 -34l-7 -137l-1 -41l-1 -40q-6 -43 -22 -73q-15 -32 -43 -53q-26 -16 -52 -16
q-41 0 -73 28q-35 29 -39 68q-2 9 -3 31q-3 21 -3 36q-2 20 -2 30q-1 10 -1 30l-2 58q0 22 -1 36q-1 13 -1 26l3 51q0 6 1 11v11v15l2 46l2 42q0 26 -17 40t-40 14q-18 0 -35 -12q-17 -14 -20 -34l-1 -14l-1 -37l-3 -48v-22l4 -80l1 -53q0 -41 6 -101l11 -111q23 -57 81 -93
q58 -37 122 -37l16 2l56 27l30 15l26 13q110 86 110 226z" />
    <glyph glyph-name="aacute" unicode="&#xe1;" horiz-adv-x="428" 
d="M356 586q0 19 -13 29q-2 2 -14 4h-4l-197 -92q-13 -10 -13 -24q0 -15 10 -25q11 -11 22 -11l198 92q11 11 11 27zM412 324q-58 93 -164 93h-9q-38 0 -86 -20l-38 -19q-11 -6 -30 -19l-8 -6l-12 -21q-2 -8 -2 -11l3 -4l1 -2l12 -12l5 -2l11 2l110 51l21 6h6q30 0 49 -18
q19 -19 19 -45q0 -7 -5 -25q-13 -13 -25 -13l-16 6q-6 2 -9 2q-3 1 -13 1h-15q-26 0 -55 -8q-25 -6 -56 -23q-56 -32 -82 -77q-10 -19 -10 -42q0 -47 47 -82q46 -34 99 -34q23 0 50 12l48 20h6l18 -3l39 -35h15q19 0 39 11q16 10 21 31zM284 148l-4 -26q-20 -22 -43 -36
q-25 -14 -45 -14l-18 3q-19 7 -34 25q-14 17 -14 35q0 14 10 27q12 13 29 18l20 3l12 2h18l24 -1l25 -4q20 -11 20 -32z" />
    <glyph glyph-name="eacute" unicode="&#xe9;" horiz-adv-x="430" 
d="M346 571q0 19 -13 29q-1 2 -14 4h-4l-197 -92q-13 -12 -13 -24q0 -15 10 -25q11 -11 22 -11l198 92q11 11 11 27zM406 88v16q-10 10 -23 10l-15 -2q-31 -23 -56 -32q-30 -13 -62 -13q-12 0 -23 3l-4 2q-12 5 -19 9q-22 14 -33 39l-6 24l229 133l4 16q0 9 -4 18q-2 5 -3 8
q-1 4 -2 4q-1 4 -6 10q-37 37 -60 50q-35 22 -73 22l-20 -2q-47 -19 -83 -41q-40 -24 -79 -56q-45 -58 -45 -126q0 -72 57 -120q47 -40 123 -60h16q51 0 101 25q50 24 86 63zM280 284l-1 -5l-1 -5l-131 -78l-11 13l-2 16l-2 11q0 36 25 62q26 26 58 26l17 -2l21 -7
q20 -9 27 -24v-7z" />
    <glyph glyph-name="iacute" unicode="&#xed;" horiz-adv-x="223" 
d="M266 571q0 19 -13 29q-2 2 -14 4h-4l-197 -92q-13 -12 -13 -24q0 -15 10 -25q9 -11 22 -11l198 92q11 11 11 27zM167 36v322l-5 14q-22 22 -54 22h-4q-14 0 -28 -8q-13 -10 -19 -24v-328q6 -20 20 -28t29 -8q19 0 35 10q18 13 26 28z" />
    <glyph glyph-name="oacute" unicode="&#xf3;" horiz-adv-x="471" 
d="M361 571q0 19 -13 29q-1 2 -14 4h-4l-197 -92q-13 -10 -13 -24q0 -7 2 -13t3 -7q3 -3 5 -6q10 -10 22 -10l198 92q11 11 11 27zM450 214v20l-2 18q-11 56 -56 94q-37 34 -98 54l-27 1l-24 -1l-9 -2q-1 -1 -9 -1l-9 -1q-36 -10 -73 -29q-38 -22 -56 -38q-58 -50 -70 -122
l-2 -16q0 -31 11 -59q9 -26 32 -53q38 -47 97 -75q26 -6 54 -6q92 0 165 62q76 64 76 154zM346 165q0 -36 -19 -67q-20 -32 -58 -41l-15 -2q-57 0 -93 50t-36 109q0 24 7 45l9 24l8 16q25 19 36 23q20 9 40 9h14q44 -10 76 -62q31 -52 31 -104z" />
    <glyph glyph-name="uacute" unicode="&#xfa;" horiz-adv-x="430" 
d="M351 591q0 19 -13 29q-2 2 -14 4h-4l-197 -92q-13 -10 -13 -24q0 -15 10 -25q9 -11 22 -11l198 92q11 11 11 27zM406 39v330q-11 23 -24 32l-23 4q-40 0 -54 -33l-11 -223l-4 -14l-5 -9l-5 -9q-26 -20 -41 -28q-22 -13 -40 -19l-9 -1q-21 0 -33 16q-13 16 -17 37v242
q-9 23 -24 33q-18 12 -36 12h-11q-33 -10 -41 -39v-235l5 -29l9 -34q22 -29 51 -49q28 -19 59 -19l20 2l118 32q13 -14 32 -24q16 -10 33 -10q16 0 29 10q16 10 22 25z" />
    </font>
</defs>
</svg>
