<?xml version="1.0" standalone="no"?>
<!DOCTYPE svg PUBLIC "-//W3C//DTD SVG 1.1//EN" "http://www.w3.org/Graphics/SVG/1.1/DTD/svg11.dtd" >
<svg xmlns="http://www.w3.org/2000/svg" xmlns:xlink="http://www.w3.org/1999/xlink" version="1.1">
<metadata></metadata>
<defs>
<font id="vonique_92italic" horiz-adv-x="1615" >
<font-face units-per-em="2048" ascent="1638" descent="-410" />
<missing-glyph horiz-adv-x="400" />
<glyph unicode="&#xd;" horiz-adv-x="100" />
<glyph horiz-adv-x="100" />
<glyph horiz-adv-x="100" />
<glyph unicode=" "  horiz-adv-x="400" />
<glyph unicode="&#x09;" horiz-adv-x="400" />
<glyph unicode="&#xa0;" horiz-adv-x="400" />
<glyph unicode="!" horiz-adv-x="321" d="M9 74q6 46 42.5 78.5t82.5 32.5q45 0 73.5 -32.5t22.5 -78.5q-5 -45 -41.5 -77.5t-81.5 -32.5q-46 0 -74.5 32.5t-23.5 77.5zM72 281l182 1479h142l-182 -1479h-142z" />
<glyph unicode="&#x22;" horiz-adv-x="464" d="M119 971l59 482h149l-60 -482h-148zM334 971l59 482h149l-60 -482h-148z" />
<glyph unicode="#" horiz-adv-x="1141" d="M60 489l17 139h213l96 263h-185l18 139h217l131 359h143l-130 -359h255l131 359h143l-130 -359h188l-18 -139h-221l-96 -263h193l-17 -139h-226l-166 -459h-144l167 459h-256l-166 -459h-144l167 459h-180zM433 628h256l95 263h-255z" />
<glyph unicode="$" horiz-adv-x="561" d="M114 836l2 22h136q-7 -57 14.5 -82t58.5 -25q35 0 64 25t34 62q4 36 -16.5 56t-93 40t-113.5 54q-59 66 -48 158q11 91 85 157q49 44 92 55l12 96h143l-12 -96q40 -11 79 -55q57 -66 46 -157l-4 -34h-140q7 29 8 35q5 37 -17.5 62.5t-58.5 25.5t-64.5 -25.5t-33.5 -62.5 q-4 -35 16 -59q43 -23 112.5 -41.5t112 -68.5t31.5 -142q-12 -92 -85 -157q-50 -45 -93 -56l-11 -95h-143l11 95q-39 11 -78 56q-58 65 -46 157z" />
<glyph unicode="%" horiz-adv-x="976" d="M134 1206q11 87 80.5 148.5t155.5 61.5q88 0 142 -61.5t43 -148.5t-80.5 -149t-156.5 -62q-86 0 -140.5 62t-43.5 149zM192 575l570 879h150l-569 -879h-151zM266 1208q-4 -34 16 -57.5t54 -23.5q33 0 60 23.5t31 57.5t-17 57t-54 23q-34 0 -60.5 -23t-29.5 -57zM550 800 q11 86 80.5 148t156.5 62t141 -62t43 -148q-9 -87 -79.5 -149t-156.5 -62q-87 0 -140.5 62t-44.5 149zM681 801q-4 -33 17 -57t55 -24t60 24t30 57q6 34 -15.5 57.5t-55.5 23.5q-33 0 -59 -23.5t-32 -57.5z" />
<glyph unicode="&#x26;" horiz-adv-x="1232" d="M70 570q16 133 100 249q79 113 182 168q-16 44 -8 113q15 118 107 201t209 83q116 0 189 -83t58 -201q-5 -39 -29 -92h-154q38 59 42 92q7 58 -30 101q-35 39 -94 39q-57 0 -104 -39q-45 -43 -52 -101v-13q1 -101 117 -138q-113 -38 -191 -85q-82 -46 -135 -123 q-55 -79 -66 -171q-18 -146 72 -248q89 -102 234 -102q144 0 260 102q114 102 132 248q5 40 1 66h-122q-124 0 -207 -98h-161l45 58q134 175 340 175h101q113 0 203 93l112 -61q-65 -92 -169 -132q6 -43 -1 -101q-25 -205 -187 -349q-161 -145 -365 -145q-203 0 -328 145 q-126 144 -101 349z" />
<glyph unicode="'" horiz-adv-x="179" d="M185 1505l320 449h167l-328 -449h-159z" />
<glyph unicode="(" horiz-adv-x="564" d="M107 536q-14 225 93 458q124 271 343 467l88 -99q-202 -183 -310 -423q-203 -462 152 -868l-112 -99q-236 269 -254 564z" />
<glyph unicode=")" horiz-adv-x="564" d="M9 71q455 406 364 868q-46 240 -206 423l111 99q172 -196 230 -467q49 -233 -19 -458q-90 -295 -393 -564z" />
<glyph unicode="*" horiz-adv-x="848" d="M124 1008l17 142h202l-123 143l112 100l125 -142l24 202h142l-24 -202l161 142l88 -100l-161 -143h202l-17 -142h-202l124 -143l-112 -100l-126 142l-24 -202h-142l24 202l-160 -143l-88 101l160 143h-202z" />
<glyph unicode="+" horiz-adv-x="915" d="M79 643l18 145h316l39 316h145l-39 -316h316l-18 -145h-316l-39 -316h-145l39 316h-316z" />
<glyph unicode="," horiz-adv-x="445" d="M-14 -118l214 296h167l-222 -296h-159z" />
<glyph unicode="-" horiz-adv-x="902" d="M79 643l18 145h777l-18 -145h-777z" />
<glyph unicode="." horiz-adv-x="321" d="M9 74q6 46 42.5 78.5t82.5 32.5q45 0 73.5 -32.5t22.5 -78.5q-5 -45 -41.5 -77.5t-81.5 -32.5q-46 0 -74.5 32.5t-23.5 77.5z" />
<glyph unicode="/" horiz-adv-x="1026" d="M-2 -20l946 1472h160l-946 -1472h-160z" />
<glyph unicode="0" horiz-adv-x="1313" d="M88 719q40 313 243 534q205 225 457 225q253 0 403 -225q149 -221 109 -534q-37 -313 -240 -534q-205 -225 -458 -225q-252 0 -402 225q-149 221 -112 534zM237 719q-30 -254 84 -434q112 -176 299 -176q188 0 344 176q158 180 188 434q32 254 -81 434q-113 176 -301 176 q-187 0 -342 -176q-159 -180 -191 -434z" />
<glyph unicode="1" horiz-adv-x="352" d="M96 -19l162 1320h-98l19 155h250v-2h2l-181 -1473h-154z" />
<glyph unicode="2" horiz-adv-x="1200" d="M7 -16l801 592q251 176 277.5 359t-73.5 297q-102 114 -266 114q-143 0 -262 -90q-121 -89 -166 -237l-143 1q57 209 222 337q168 131 367 131q222 0 359 -156q139 -155 101.5 -402.5t-285.5 -424.5l-508 -377l676 -1l-18 -145z" />
<glyph unicode="3" horiz-adv-x="1167" d="M53 434h143q9 -148 108 -237q97 -90 240 -90q164 0 294 113q128 114 148 274q14 122 -45 222q-59 112 -194 188l-83 59l102 96q67 74 73 123q8 67 -33 114q-42 47 -109 47q-177 -11 -179 -250h-143q-8 51 -3 89q1 7 4 22q23 118 118 199q99 82 219 82q126 0 204 -89 q79 -89 64 -214q-16 -132 -93 -201q61 -38 126 -114q141 -154 114 -373t-204 -374q-175 -155 -397 -155q-199 0 -335 131q-133 129 -139 338z" />
<glyph unicode="4" horiz-adv-x="1320" d="M130 507l1120 988l-106 -855h159l-17 -134h-159l-65 -533h-142l65 533zM475 639h523l66 518z" />
<glyph unicode="5" horiz-adv-x="1273" d="M53 431h152q33 -141 137 -221q107 -82 253 -82q185 0 331 124q144 124 165 297q22 174 -93 297q-115 124 -307 124l-1 1h-309l3 23l53 435l3 23h496l-17 -144h-352l-23 -190h155q264 0 416 -167q153 -166 124 -402q-28 -237 -224 -403q-193 -166 -438 -166 q-204 0 -350 121q-142 119 -174 330z" />
<glyph unicode="6" horiz-adv-x="1376" d="M86 609q43 259 257 435l499 410h214l-291 -238q60 11 208 -38q153 -50 250 -174q153 -192 109 -451q-43 -259 -256 -435q-214 -175 -472 -164q-257 11 -410 203q-151 192 -108 452zM233 605q-35 -202 84 -349q116 -148 317 -157q200 -9 365 127q163 135 197 336 q34 202 -84 350q-116 147 -317 156q-200 9 -364 -128q-164 -134 -198 -335z" />
<glyph unicode="7" horiz-adv-x="1215" d="M161 1310l18 145h1115l-105 -135l-855 -1340h-170l849 1330h-852z" />
<glyph unicode="8" horiz-adv-x="1178" d="M59 484q27 220 206 376q87 78 165 107q-72 70 -54 208q15 127 116 217q102 90 229 90q128 0 207 -90q80 -90 65 -217q-18 -138 -107 -208q116 -48 193 -181q79 -136 58 -302q-27 -220 -204 -376q-177 -157 -400 -157t-362 157q-139 156 -112 376zM211 484 q-19 -158 80 -269q101 -112 261 -112q161 0 287 112q128 111 147 269q20 157 -81 269q-99 111 -260 111t-288 -111q-126 -112 -146 -269zM523 1175q-8 -65 33 -112q43 -47 109 -47t118 47q54 48 62 112q7 66 -33 112q-42 47 -108 47t-120 -47q-54 -46 -61 -112z" />
<glyph unicode="9" horiz-adv-x="1375" d="M119 881q44 259 257 435q214 175 472 164q256 -11 409 -203q151 -192 108 -452q-42 -259 -257 -435l-497 -410h-214l290 238q-60 -11 -208 38q-152 50 -251 173q-152 193 -109 452zM257 881q-35 -202 84 -349q116 -148 317 -157q200 -9 365 127q163 135 197 336 q34 202 -84 350q-116 147 -317 156q-200 9 -364 -128q-164 -134 -198 -335z" />
<glyph unicode=":" horiz-adv-x="322" d="M59 484q7 46 43 78.5t82 32.5q45 0 74 -32.5t22 -78.5q-5 -45 -41.5 -77.5t-81.5 -32.5q-46 0 -74.5 32.5t-23.5 77.5zM118 949q4 46 40.5 78.5t82.5 32.5q45 0 73.5 -32t24.5 -79q-7 -46 -43.5 -78t-81.5 -32q-46 0 -74.5 32.5t-21.5 77.5z" />
<glyph unicode=";" horiz-adv-x="445" d="M35 289l215 296h167l-223 -296h-159zM236 949q5 46 41.5 78.5t82.5 32.5t74.5 -32.5t23.5 -78.5q-6 -45 -42.5 -77.5t-82.5 -32.5t-74.5 32.5t-22.5 77.5z" />
<glyph unicode="&#x3c;" horiz-adv-x="1137" d="M89 724l1103 538l-21 -170q-89 -44 -421 -205q-299 -146 -334 -163q157 -86 665 -367l-21 -170z" />
<glyph unicode="=" horiz-adv-x="916" d="M65 524l18 143h815l-18 -143h-815zM99 804l17 143h815l-17 -143h-815z" />
<glyph unicode="&#x3e;" horiz-adv-x="1137" d="M23 187l21 170q575 281 754 367q-31 17 -294 163q-292 161 -370 205l21 170l971 -538z" />
<glyph unicode="?" horiz-adv-x="1305" d="M146 1184q28 234 225 404q198 170 447 170t405 -169q156 -168 127 -410q-28 -223 -205 -390q-176 -163 -394 -183l-39 -320h-138l57 455h48q207 0 356 128q152 130 174 310t-97 310q-118 128 -311 128q-191 0 -342 -127q-150 -129 -166 -305zM511 74q5 44 40 75t79 31 t71 -31t22 -75q-5 -43 -40 -74t-79 -31t-71 31t-22 74z" />
<glyph unicode="@" horiz-adv-x="1621" d="M92 716q18 151 93 289q73 136 192 243q119 106 263 162q145 58 295 58q151 0 282 -58q129 -56 223 -162q93 -107 132 -243q41 -138 23 -289q-8 -61 -24 -116.5t-36 -81.5q-36 -61 -103 -99q-65 -39 -138 -39q-65 0 -118 32q-52 31 -63 52q-39 -47 -129 -93 q-92 -45 -189 -45q-79 0 -148 31q-66 29 -114 83q-47 55 -68 124q-22 73 -12 152q10 80 50 153q37 69 98 124q62 54 134 83q77 31 156 31q80 0 149 -31q66 -29 114 -83q47 -55 68 -124q22 -73 12 -153l-2 -18q-28 -164 80 -174q39 0 76 29q15 13 27 29q11 14 14 29q2 7 4 16 q3 11 6 21q6 27 7 39v1l5 28q15 122 -16 233q-34 111 -108 198q-77 85 -182 132q-105 45 -227 45q-121 0 -238 -45q-117 -47 -214 -132q-96 -87 -156 -198q-59 -111 -74 -233q-15 -121 16 -232q34 -111 108 -198q77 -85 182 -132q105 -45 226 -45q122 0 239 45 q117 47 214 132q11 10 41 39l83 -109q-26 -23 -35 -31q-120 -106 -263 -162q-145 -58 -296 -58q-150 0 -281 58q-130 56 -223 162t-132 243q-42 138 -23 288zM597 716q-6 -49 7 -95q14 -46 44 -79q28 -34 72 -53t93 -19q44 0 84 14q41 14 77 41q37 25 63 62q27 36 41 77 q3 11 7 22q3 15 5 30q6 50 -7 96q-14 46 -44 79q-28 34 -72 53t-94 19q-49 0 -97 -19t-86 -53q-38 -33 -62 -79q-25 -46 -31 -96z" />
<glyph unicode="A" horiz-adv-x="1665" d="M-3 -22l860 1327v1l113 172l66 -164l537 -1336h-162l-479 1184l-777 -1184h-158z" />
<glyph unicode="B" horiz-adv-x="1243" d="M-2 -20l181 1475h619q111 0 191 -55q97 -64 97 -181q0 -19 -2 -39q-17 -139 -103 -192q231 -97 232 -375q0 -45 -7 -96q-40 -333 -336 -468q-150 -69 -289 -69h-583zM159 123h439q110 1 219 52q212 99 242 343q7 33 7 65q0 234 -358 396q141 71 193 132q28 31 34 69 q1 9 1 17q0 64 -64 92q-42 18 -93 18h-475z" />
<glyph unicode="C" horiz-adv-x="1599" d="M93 719q39 312 288 534t562 222q262 0 447 -162q185 -158 220 -421h-143q-37 200 -184 323q-149 124 -357 124q-258 0 -462 -181q-203 -182 -235 -439q-5 -42 -5 -83q0 -205 132 -357q160 -181 418 -181q203 0 381 120q174 117 264 312h141q-102 -256 -322 -411 q-224 -157 -482 -157q-313 0 -506 222q-163 186 -163 435q0 49 6 100z" />
<glyph unicode="D" horiz-adv-x="1251" d="M-2 -19l182 1474h209l137 -1q142 0 229 -18q212 -43 343 -180q149 -156 149 -413q0 -60 -8 -126q-42 -345 -274 -538q-163 -136 -397 -181q-98 -18 -182 -18q-22 0 -42 1h-241h-105zM161 129h207q322 0 510 159q179 150 213 429q7 56 7 106q0 205 -114 325 q-105 110 -297 145q-100 13 -177 13h-205z" />
<glyph unicode="E" horiz-adv-x="1236" d="M-2 -20l181 1475h1136l-18 -147h-987l-146 -1182h987l-17 -146h-1136zM322 388l17 145h858l-17 -145h-858z" />
<glyph unicode="F" horiz-adv-x="1236" d="M-2 -20l181 1475h1136l-18 -147h-987l-164 -1329zM322 388l17 145h858l-17 -145h-858z" />
<glyph unicode="G" horiz-adv-x="1715" d="M93 719q39 312 288 534t562 222q262 0 447 -162q185 -158 220 -421h-143q-37 200 -184 323q-149 124 -357 124q-258 0 -462 -181q-203 -182 -235 -439q-5 -42 -5 -83q0 -205 132 -357q160 -181 418 -181q203 0 381 120q174 117 264 312h289l-17 -143h-198 q-88 -150 -255 -268q-224 -157 -482 -157q-313 0 -506 222q-163 186 -163 435q0 49 6 100z" />
<glyph unicode="H" horiz-adv-x="1337" d="M-2 -20l181 1475h145l-114 -923h947l114 923h145l-181 -1475h-145l50 408h-947l-50 -408h-145z" />
<glyph unicode="I" horiz-adv-x="245" d="M-2 -20l181 1475h145l-181 -1475h-145z" />
<glyph unicode="J" horiz-adv-x="1527" d="M-54 -440h156q44 -143 180 -252q137 -112 325 -112q236 0 425 167q186 166 215 404l208 1687h150l-208 -1687q-35 -299 -272 -511q-237 -210 -535 -210q-248 0 -426 151q-171 149 -218 363z" />
<glyph unicode="K" horiz-adv-x="1534" d="M-3 -25l181 1475h145l-181 -1475h-145zM333 520l1055 937h205l-1056 -937l843 -961h-204z" />
<glyph unicode="L" horiz-adv-x="1231" d="M-2 -20l181 1475h145l-164 -1330h986l-17 -145h-1131z" />
<glyph unicode="M" horiz-adv-x="1561" d="M-2 -20l187 1530l579 -1260l880 1257l-185 -1527h-139l120 984l-718 -1003l-468 993l-119 -974h-137z" />
<glyph unicode="N" horiz-adv-x="1436" d="M-2 -20l184 1503l1046 -1184l142 1156h145l-183 -1486l-1048 1165l-141 -1154h-145z" />
<glyph unicode="O" d="M88 720q40 313 289 535t562 222t508 -222q162 -184 161 -431q0 -51 -6 -104q-38 -313 -287 -535q-250 -222 -563 -222t-507 222q-163 186 -163 435q0 49 6 100zM232 720q-5 -42 -5 -82q0 -202 131 -352q158 -179 412 -179t456 179q201 180 232 434q5 43 5 84 q0 201 -130 350q-158 179 -412 179t-456 -179q-201 -180 -233 -434z" />
<glyph unicode="P" horiz-adv-x="1134" d="M-2 -20l181 1475h473q140 0 272 -69q228 -119 227 -384q0 -41 -5 -86q-41 -334 -337 -470q-150 -68 -290 -68h-328l-48 -398h-145zM209 521h328q109 1 219 53q211 97 241 342q4 34 4 65q0 193 -159 278q-99 52 -208 52h-328z" />
<glyph unicode="Q" d="M88 720q40 313 289 535t562 222t508 -222q162 -184 162 -431q0 -51 -7 -104q-38 -313 -287 -535q-250 -222 -563 -222t-507 222q-163 186 -163 435q0 49 6 100zM232 720q-5 -42 -5 -82q0 -202 131 -352q158 -179 412 -179t456 179q201 180 232 434q5 43 5 84 q0 200 -130 350q-158 179 -412 179t-456 -179q-201 -180 -233 -434zM236 -47l78 43l52 32l27 -50q16 -29 48 -59q67 -55 160 -55h287q145 0 248 -88q52 -46 76 -95l24 -50l-78 -44l-52 -30l-26 49q-15 29 -49 58q-66 55 -160 55h-287q-145 0 -247 88q-53 46 -77 95z" />
<glyph unicode="R" horiz-adv-x="1136" d="M-2 -20l181 1475h105h371q140 0 272 -69q227 -118 226 -383q0 -41 -5 -87q-34 -282 -254 -425q-139 -89 -277 -105l368 -406h-212l-365 403l-123 138h255q109 0 220 52q211 99 240 343q4 34 4 65q0 193 -159 278q-98 52 -208 52h-331l-163 -1331h-145z" />
<glyph unicode="S" horiz-adv-x="1174" d="M61 497h143q-3 -26 -3 -51q0 -141 87 -236q101 -111 261 -111q163 0 291 114q130 113 150 272q3 25 3 50q0 129 -85 224q-103 114 -250 121.5t-204 65.5q-12 10 -15 15q-66 74 -66 173q0 20 3 41q16 126 117 215q99 89 225 89t206 -89l48 -55l-135 -93q-8 26 -28 47 q-42 47 -109 47t-119 -47q-53 -47 -61 -114l-2 -20q0 -52 36 -92q31 -38 128 -44t168 -39q146 -58 223 -192q65 -110 65 -238q0 -32 -4 -65q-27 -219 -204 -373q-177 -156 -398 -156q-220 0 -358 153q-117 128 -117 317q0 35 4 71z" />
<glyph unicode="T" horiz-adv-x="1219" d="M161 1309l18 145h1119l-18 -145h-488l-163 -1329l-146 -1l164 1330h-486z" />
<glyph unicode="U" horiz-adv-x="1448" d="M89 723l90 734h141l-90 -734q-5 -43 -5 -84q0 -196 111 -343q134 -175 352 -175t395 174q178 176 212 425l91 737h141l-90 -736q-43 -312 -266 -532q-224 -222 -501 -222q-278 0 -448 223q-139 181 -139 426q0 52 6 107z" />
<glyph unicode="V" horiz-adv-x="1676" d="M179 1455h162l479 -1184l777 1184h158l-860 -1327v-1l-114 -172l-65 164z" />
<glyph unicode="W" horiz-adv-x="2002" d="M179 1456h166l473 -1181l105 161l-409 1020h166l345 -860l555 860h165l-655 -1020l64 -161l761 1181h166l-966 -1499l-129 320l-207 -321z" />
<glyph unicode="X" horiz-adv-x="1398" d="M179 1455h170l375 -845l582 845h171l-687 -996l213 -479h-170l-146 330l-226 -330h-171l330 479z" />
<glyph unicode="Y" horiz-adv-x="1304" d="M179 1455h160l337 -851l548 851h159l-652 -1010l-58 -465h-145l58 465z" />
<glyph unicode="Z" horiz-adv-x="1251" d="M-2 -20l1040 1327h-869l18 145h1142l-1039 -1327h857l-17 -145h-1132z" />
<glyph unicode="[" horiz-adv-x="333" d="M-2 -20l180 1472h138v-2h95l-18 -145h-95l-145 -1180h95l-17 -145h-233z" />
<glyph unicode="\" horiz-adv-x="1026" d="M178 1452h160l586 -1472h-160z" />
<glyph unicode="]" horiz-adv-x="333" d="M-2 -20l17 145h95l145 1180h-95l18 145h95v2h138l-180 -1472h-233z" />
<glyph unicode="^" horiz-adv-x="595" d="M124 1006l306 479l189 -479h-153l-69 201l-120 -201h-153z" />
<glyph unicode="_" horiz-adv-x="902" d="M-2 -20l17 145h777l-17 -145h-777z" />
<glyph unicode="`" horiz-adv-x="516" d="M241 1960h167l198 -414h-159z" />
<glyph unicode="a" d="M88 720q40 313 289 535t562 222t508 -222q162 -184 161 -431q0 -51 -6 -104l-90 -740h-144l35 289q-12 -16 -88 -84q-250 -222 -563 -222t-507 222q-163 186 -163 435q0 49 6 100zM232 720q-5 -42 -5 -82q0 -202 131 -352q158 -179 412 -179t456 179q201 180 232 434 q5 43 5 84q0 201 -130 350q-158 179 -412 179t-456 -179q-201 -180 -233 -434z" />
<glyph unicode="b" d="M89 720l128 1043h144l-72 -592q12 16 88 84q249 222 562 222t508 -222q162 -185 162 -433q0 -50 -6 -102q-39 -313 -288 -535q-250 -222 -563 -222t-507 222q-163 185 -163 433q0 50 7 102zM233 720q-5 -42 -6 -82q0 -202 132 -352q158 -179 412 -179t456 179 q201 180 232 434q5 43 5 84q0 201 -130 350q-158 179 -412 179t-456 -179q-201 -180 -233 -434z" />
<glyph unicode="c" horiz-adv-x="1599" d="M88 720q40 313 289 535t562 222t508 -222q132 -150 160 -366h-150q-28 153 -124 265q-158 179 -412 179t-456 -179q-201 -180 -233 -434q-5 -42 -5 -82q0 -202 131 -352q158 -179 412 -179t456 179q116 103 181 243h150q-84 -204 -242 -344q-250 -222 -563 -222t-507 222 q-163 186 -163 435q0 49 6 100z" />
<glyph unicode="d" d="M88 720q39 313 288 535t562 222t508 -222q60 -68 68 -84l72 592h144l-128 -1043q-37 -313 -286 -535q-250 -222 -563 -222t-507 222q-164 187 -164 437q0 48 6 98zM232 720q-5 -42 -5 -82q0 -202 131 -352q158 -179 412 -179t456 179q201 180 232 434q5 43 5 84 q0 201 -130 350q-158 179 -412 179t-456 -179q-201 -180 -233 -434z" />
<glyph unicode="e" horiz-adv-x="1599" d="M88 720q40 313 289 535t562 222t508 -222q132 -150 161 -363l-1333 -2q-31 -72 -43 -170q-5 -42 -5 -82q0 -202 131 -352q158 -179 412 -179t456 179q116 103 181 243h150q-84 -204 -242 -344q-250 -222 -563 -222t-507 222q-163 186 -163 435q0 49 6 100zM351 1029h1064 q-20 53 -82 125q-158 179 -412 179t-456 -179q-80 -72 -114 -125z" />
<glyph unicode="f" horiz-adv-x="773" d="M100 -22l164 1330h-103l18 147h103l22 186q18 132 120 225q104 94 235 94q129 0 210 -94q11 -12 29 -37l-115 -101q-18 28 -26 37q-45 52 -116 52q-72 0 -128 -52q-58 -52 -67 -126l-22 -184h118l-18 -147h-118l-165 -1330h-141z" />
<glyph unicode="g" d="M88 720q40 313 289 535t562 222q301 0 471 -182q22 31 22 76q0 66 -49 164l134 57l27 -83q19 -59 19 -119q0 -70 -26 -143q-16 -45 -31 -68q103 -151 103 -351q0 -52 -7 -108q-38 -313 -287 -535q-250 -222 -563 -222t-507 222q-163 186 -163 435q0 49 6 100zM136 -808 q28 221 203 377q176 157 397 157q220 0 358 -157q115 -130 115 -304q0 -36 -5 -73q-27 -221 -203 -377q-176 -157 -397 -157t-357 157q-115 130 -115 306q0 35 4 71zM232 720q-5 -42 -5 -82q0 -202 131 -352q158 -179 412 -179t456 179q201 180 232 434q5 43 5 84 q0 200 -130 350q-158 179 -412 179t-456 -179q-201 -180 -233 -434zM235 -11l77 43l53 32l27 -50q15 -29 47 -59q68 -55 161 -55h287q145 0 248 -88q51 -46 75 -95l24 -50l-77 -44l-53 -30l-26 49q-14 29 -49 58q-65 55 -159 55h-287q-145 0 -247 88q-54 46 -78 95z M277 -808q-3 -27 -3 -53q0 -129 84 -225q101 -115 264 -115t292 115t149 278q3 27 3 53q0 129 -84 225q-101 115 -264 115t-292 -115t-149 -278z" />
<glyph unicode="h" horiz-adv-x="1448" d="M-3 -22l219 1784h140l-72 -586q5 7 69 70q224 222 501 222q278 0 448 -223q139 -181 139 -426q0 -52 -6 -107l-90 -734h-141l90 734q5 43 5 84q0 196 -111 343q-134 175 -352 175t-395 -174q-178 -176 -212 -425l-91 -737h-141z" />
<glyph unicode="i" horiz-adv-x="245" d="M-2 -20l181 1475h145l-181 -1475h-145zM199 1623l17 137h145l-17 -137h-145z" />
<glyph unicode="j" horiz-adv-x="811" d="M-63 -522l19 153q246 2 427 172q182 170 211 411l153 1241h147l-153 -1241q-37 -303 -265 -519q-230 -215 -539 -217z" />
<glyph unicode="k" horiz-adv-x="1342" d="M-2 -20l218 1780h144l-155 -1260l1014 954h202l-1064 -1000l445 -475h-214l-395 419l-51 -418h-144z" />
<glyph unicode="l" horiz-adv-x="245" d="M-2 -20l218 1781h145l-218 -1781h-145z" />
<glyph unicode="m" horiz-adv-x="2213" d="M-2 -20l115 939q31 230 216 390q184 161 414 161q168 0 297 -90q126 -88 162 -196q63 108 210 196q151 90 318 90q232 0 378 -161q122 -137 122 -320q0 -35 -5 -73l-114 -936h-140l115 939q3 24 3 48q0 140 -93 243q-110 121 -283 121t-311 -121t-162 -291l-115 -939 h-141l115 939q3 24 3 48q0 140 -93 243q-109 121 -283 121q-173 0 -310 -121q-139 -121 -162 -291l-115 -939h-141z" />
<glyph unicode="n" horiz-adv-x="1448" d="M-3 -22l91 736q42 312 265 532q224 222 501 222q278 0 448 -223q139 -181 139 -426q0 -52 -6 -107l-90 -734h-141l90 734q5 43 5 84q0 196 -111 343q-134 175 -352 175t-395 -174q-178 -176 -212 -425l-91 -737h-141z" />
<glyph unicode="o" d="M88 720q40 313 289 535t562 222t508 -222q162 -184 161 -431q0 -51 -6 -104q-38 -313 -287 -535q-250 -222 -563 -222t-507 222q-163 186 -163 435q0 49 6 100zM232 720q-5 -42 -5 -82q0 -202 131 -352q158 -179 412 -179t456 179q201 180 232 434q5 43 5 84 q0 201 -130 350q-158 179 -412 179t-456 -179q-201 -180 -233 -434z" />
<glyph unicode="p" d="M-63 -518l152 1237q38 313 287 535t562 222t508 -222q163 -186 163 -435q0 -49 -6 -100q-38 -313 -287 -535q-250 -222 -563 -222t-507 222q-60 68 -68 84l-97 -786h-144zM233 719q-5 -42 -5 -82q0 -202 131 -352q158 -179 412 -179t456 179q201 180 232 434q5 42 5 82 q0 202 -130 352q-158 179 -412 179t-456 -179q-202 -180 -233 -434z" />
<glyph unicode="q" d="M88 719q40 313 289 535t562 222t508 -222q162 -184 162 -431q0 -51 -7 -104l-152 -1237h-144l97 786q-12 -16 -88 -84q-250 -222 -563 -222t-507 222q-163 186 -163 435q0 49 6 100zM232 719q-5 -42 -5 -82q0 -202 131 -352q158 -179 412 -179t456 179q201 180 232 434 q5 42 5 82q0 202 -130 352q-158 179 -412 179t-456 -179q-202 -180 -233 -434z" />
<glyph unicode="r" horiz-adv-x="905" d="M-3 -22l91 736q42 312 265 532q224 222 501 222q66 0 127 -13l-20 -157q-59 16 -125 16q-218 0 -395 -174q-178 -176 -212 -425l-91 -737h-141z" />
<glyph unicode="s" horiz-adv-x="1174" d="M61 497h143q-3 -26 -3 -51q0 -141 87 -236q101 -111 261 -111q163 0 291 114q130 113 150 272q3 25 3 50q0 129 -85 224q-103 114 -250 121.5t-204 65.5q-12 10 -15 15q-66 74 -66 173q0 20 3 41q16 126 117 215q99 89 225 89t206 -89l48 -55l-135 -93q-8 26 -28 47 q-42 47 -109 47t-119 -47q-53 -47 -61 -114l-2 -20q0 -52 36 -92q31 -38 128 -44t168 -39q146 -58 223 -192q65 -110 65 -238q0 -32 -4 -65q-27 -219 -204 -373q-177 -156 -398 -156q-220 0 -358 153q-117 128 -117 317q0 35 4 71z" />
<glyph unicode="t" horiz-adv-x="919" d="M161 1311l18 145h337l37 305h145l-37 -305h337l-18 -145h-337l-163 -1331h-146l163 1331h-336z" />
<glyph unicode="u" horiz-adv-x="1448" d="M89 723l90 734h141l-90 -734q-5 -43 -5 -84q0 -196 111 -343q134 -175 352 -175t395 174q178 176 212 425l91 737h141l-90 -736q-43 -312 -266 -532q-224 -222 -501 -222q-278 0 -448 223q-139 181 -139 426q0 52 6 107z" />
<glyph unicode="v" horiz-adv-x="1676" d="M179 1455h162l479 -1184l777 1184h158l-860 -1327v-1l-114 -172l-65 164z" />
<glyph unicode="w" horiz-adv-x="2213" d="M65 529l114 925h141l-114 -927q-3 -27 -3 -52q0 -139 92 -243q109 -121 282 -121q174 0 311 121q138 122 163 295l114 927h141l-114 -927q-3 -26 -3 -51q0 -141 92 -244q110 -121 283 -121t311 121q138 122 163 295l114 927h140l-114 -928q-32 -230 -216 -393 q-185 -163 -416 -163q-167 0 -296 91q-125 89 -161 198q-64 -109 -211 -198q-151 -91 -319 -91q-231 0 -376 164q-122 139 -122 326q0 34 4 69z" />
<glyph unicode="x" horiz-adv-x="1693" d="M4 29l779 694l-609 694l116 102l607 -694l781 695l89 -103l-779 -694l609 -694l-115 -103l-610 695l-778 -694z" />
<glyph unicode="y" horiz-adv-x="1345" d="M4 -49h151l7 -20q28 -170 140 -273q111 -102 265 -102q192 0 354 157q159 159 191 382l14 131q-53 -75 -199 -160q-148 -84 -306 -84q-257 0 -415 206q-129 168 -129 394q0 48 6 98l96 776h145l-96 -775q-5 -37 -5 -75q0 -156 94 -312q127 -164 322 -164q185 0 349 146 q159 155 188 367l101 814l147 -1l-147 -1198l-20 -163q-39 -287 -246 -491q-208 -205 -463 -205q-209 0 -358 145q-150 143 -177 370z" />
<glyph unicode="z" horiz-adv-x="1251" d="M-2 -20l1040 1327h-869l18 145h1142l-1039 -1327h857l-17 -145h-1132z" />
<glyph unicode="{" horiz-adv-x="580" d="M86 701q140 84 148 146l64 522q31 265 387 301l-19 -156q-193 -14 -217 -146l-64 -521q-12 -102 -85 -146q63 -43 50 -145l-69 -555q6 -110 186 -110l-21 -160q-330 27 -317 264l70 561q8 62 -113 145z" />
<glyph unicode="|" horiz-adv-x="245" d="M-54 -443l267 2175h145l-267 -2175h-145z" />
<glyph unicode="}" horiz-adv-x="580" d="M-32 -269l19 160q180 0 212 110l67 555q13 102 86 145q-63 44 -49 146l64 521q8 132 -181 146l19 156q348 -36 313 -301l-64 -522q-8 -62 112 -146q-141 -83 -149 -145l-68 -561q-45 -237 -381 -264z" />
<glyph unicode="~" horiz-adv-x="1200" d="M70 574q135 205 341 205q161 0 267 -131q73 -92 178 -92q100 11 155 72l166 1q-136 -205 -342 -205q-161 0 -267 132q-76 91 -178 91q-116 -2 -142 -73h-178z" />
<glyph unicode="&#xa1;" horiz-adv-x="321" d="M39 -20l149 1214h142l-149 -1214h-142zM168 1365q5 45 41.5 77.5t81.5 32.5q46 0 74.5 -32.5t23.5 -77.5q-6 -46 -42.5 -78.5t-82.5 -32.5q-45 0 -73.5 32.5t-22.5 78.5z" />
<glyph unicode="&#xa2;" horiz-adv-x="730" d="M72 520l127 195q2 -3 -11 14q-86 98 -70 236q17 138 127 236t248 98q54 0 77 -8l90 144h140l-123 -194q-5 3 14 -14q70 -61 95 -188h-132q-18 56 -51 88l-235 -366q10 -4 59 -4q68 0 127 40q44 29 79 88h132q-58 -126 -142 -185q-98 -69 -212 -69q-79 0 -114 18l-85 -129 h-140zM243 965q-9 -77 31 -133l220 341h-16q-87 0 -155 -61q-69 -61 -80 -147z" />
<glyph unicode="&#xa3;" horiz-adv-x="1047" d="M57 64l73 69q128 128 200 301q32 80 6 170q-1 1 0 3h-236l17 143h154q-6 12 -14 25l-27 49q-14 29 -24 52q-28 59 -40 110q-29 132 46 249q89 140 254 200q144 51 294 25q145 -24 232 -110q88 -87 92 -235h-151q-11 90 -75 140q-58 43 -140 57q-106 18 -208 -16 q-116 -38 -172 -128q-39 -63 -22 -136q12 -56 77 -174l26 -48q15 -29 25 -51q3 -5 4 -9h343l-17 -143h-278q16 -110 -27 -214q-40 -97 -101 -169q43 7 207 -37l29 -8l32 -8q36 -8 69 -15q90 -18 200 15l29 -142q-149 -46 -277 -20q-34 6 -74 17l-33 9l-31 8q-121 32 -159 27 q-60 -8 -208 -110z" />
<glyph unicode="&#xa4;" horiz-adv-x="778" d="M67 536l101 89q-34 58 -23 149q11 90 58 148l-79 89l115 101l79 -91q58 36 144 36q91 0 144 -41l108 96l87 -101l-108 -98q28 -54 18 -140t-52 -140l85 -97l-114 -101l-83 95q-63 -40 -154 -40q-86 0 -135 36l-103 -91zM299 778.5q-6 -55.5 29 -95.5q34 -39 90 -39 t100 39q44 40 50 95.5t-28 95.5q-33 39 -89 39t-101 -39q-45 -40 -51 -95.5z" />
<glyph unicode="&#xa5;" horiz-adv-x="1304" d="M179 1454h160l337 -851l548 851h159l-568 -878h181l-18 -143h-254l7 14l-11 -91h250l-18 -143h-250l-29 -233h-145l29 233h-258l18 143h258l10 86l8 -9h-268l18 143h189z" />
<glyph unicode="&#xa6;" horiz-adv-x="245" d="M-53 -443l117 953h145l-117 -953h-145zM97 779l117 953h145l-117 -953h-145z" />
<glyph unicode="&#xa7;" horiz-adv-x="765" d="M87 734h149q-12 -118 35 -171q48 -52 125 -52q76 0 136 52q61 54 70 129t-38 128q-48 53 -126 53q-74 0 -130 51l-3 4l-2 1q-55 64 -45 148q9 74 62 129q-39 53 -30 129q11 84 79 144q67 60 151 60q206 0 181 -204l-6 -47h-149l6 47q7 54 -50 54q-23 0 -41 -16 q-20 -17 -22 -38q-3 -23 12 -40q11 -12 23 -14l14 1q105 0 155 -41q181 -100 139 -297q-22 -107 -38 -131q16 -45 7 -121q-17 -136 -127 -234q-110 -97 -249 -97q-137 0 -223 96q-85 94 -65 277zM407 1077q-2 -21 13 -38q15 -16 37 -16q64 0 117 -23q32 -13 61 -33 q2 64 -40 110q-47 53 -123 53h-14q-14 -2 -29 -14q-18 -17 -22 -39z" />
<glyph unicode="&#xa8;" horiz-adv-x="611" d="M203 1655q7 47 43.5 79t82.5 32q45 0 73.5 -32.5t21.5 -78.5q-5 -45 -41 -77.5t-81 -32.5q-46 0 -75 32.5t-24 77.5zM510 1655q7 47 43.5 79t82.5 32q45 0 73.5 -32.5t21.5 -78.5q-5 -45 -41 -77.5t-81 -32.5q-46 0 -75 32.5t-24 77.5z" />
<glyph unicode="&#xa9;" horiz-adv-x="1581" d="M88 716q38 307 281.5 524t549.5 217q307 0 497.5 -217t152.5 -524q-38 -306 -281.5 -523t-550.5 -217q-306 0 -496.5 217t-152.5 523zM221 720q-32 -254 125.5 -433.5t411.5 -179.5q255 0 456.5 179.5t233.5 433.5q31 255 -126 434.5t-412 179.5q-254 0 -456 -179.5 t-233 -434.5zM362 732q24 198 181 338q159 140 356 140q166 0 282 -102q116 -100 143 -301h-143q-23 130 -104 197q-81 68 -195 68q-141 0 -254 -99q-111 -100 -128 -241t68 -241q89 -99 230 -99q111 0 209 66q96 64 154 191h142q-80 -198 -218 -295q-141 -100 -304 -100 q-197 0 -321 140q-122 140 -98 338z" />
<glyph unicode="&#xaa;" horiz-adv-x="100" />
<glyph unicode="&#xab;" horiz-adv-x="1276" d="M91 738l792 387l-21 -160q-70 -35 -287 -140q-193 -95 -176 -86q67 -37 409 -226l-21 -161zM521 738l792 387l-21 -160q-70 -35 -287 -140q-193 -95 -176 -86q67 -37 409 -226l-21 -161z" />
<glyph unicode="&#xac;" horiz-adv-x="100" />
<glyph unicode="&#xad;" horiz-adv-x="902" d="M79 643l18 145h777l-18 -145h-777z" />
<glyph unicode="&#xae;" horiz-adv-x="1581" d="M87 706q37 307 281 524t550 217q307 0 497 -217t153 -524q-38 -306 -281.5 -523t-550.5 -217q-306 0 -496.5 217t-152.5 523zM220 710q-32 -254 125.5 -433.5t411.5 -179.5q255 0 456.5 179.5t233.5 433.5q30 255 -126.5 434.5t-411.5 179.5q-254 0 -456.5 -179.5 t-232.5 -434.5zM495 268l110 899h299q87 0 168 -42q164 -86 138 -293q-21 -175 -159 -264q-85 -55 -123 -60l221 -240h-191l-208 229h-96l-28 -229h-131zM670 627h168q58 0 117 28q107 50 122 177q16 127 -79 177q-52 28 -110 28h-168z" />
<glyph unicode="&#xaf;" horiz-adv-x="1075" d="M161 1310l17 143h975l-17 -143h-975z" />
<glyph unicode="&#xb0;" horiz-adv-x="478" d="M156 1269q9 78 71 133.5t140 55.5t127 -55.5t40 -133.5q-10 -78 -72 -133.5t-140 -55.5t-127 55.5t-39 133.5zM306 1273q-2 -17 8 -28t27 -11q16 0 28.5 11t14.5 28q2 16 -8 27.5t-26 11.5q-17 0 -29.5 -11.5t-14.5 -27.5z" />
<glyph unicode="&#xb1;" horiz-adv-x="646" />
<glyph unicode="&#xb2;" horiz-adv-x="100" />
<glyph unicode="&#xb3;" horiz-adv-x="1610" />
<glyph unicode="&#xb4;" horiz-adv-x="516" d="M190 1546l300 414h167l-308 -414h-159z" />
<glyph unicode="&#xb5;" horiz-adv-x="1442" d="M-28 -231l207 1686h140l-99 -801q-1 -199 112 -350q136 -176 355 -176t396 175q179 178 214 429l89 722h135l-89 -722q-42 -311 -264 -531q-223 -221 -499 -221q-277 0 -446 222q-48 62 -50 67l-61 -500h-140z" />
<glyph unicode="&#xb6;" horiz-adv-x="760" d="M144 1170q14 119 132.5 202t289.5 83v-1h273l-16 -130h-74l-116 -935h-142l116 935h-57l-54 -439h-1l-62 -496h-142l64 511q-67 15 -126 67q-100 83 -85 203z" />
<glyph unicode="&#xb7;" horiz-adv-x="322" d="M85 695q7 46 43 78.5t82 32.5q45 0 74 -32.5t22 -78.5q-5 -45 -41.5 -77.5t-81.5 -32.5q-46 0 -74.5 32.5t-23.5 77.5z" />
<glyph unicode="&#xb8;" horiz-adv-x="430" d="M-53 -433l17 141h26q54 0 91.5 19.5t40.5 40.5q2 21 -30.5 40.5t-86.5 19.5h-26l24 193h146l-8 -61q67 -13 118 -67q51 -55 42 -128q-11 -86 -98 -146q-85 -58 -194 -58q-22 0 -62 6z" />
<glyph unicode="&#xb9;" horiz-adv-x="100" />
<glyph unicode="&#xba;" horiz-adv-x="100" />
<glyph unicode="&#xbb;" horiz-adv-x="1276" d="M44 352l19 161q388 189 465 226q14 -9 -156 86q-191 105 -253 140l19 160l698 -387zM474 352l19 161q388 189 465 226q14 -9 -156 86q-191 105 -253 140l19 160l698 -387z" />
<glyph unicode="&#xbc;" horiz-adv-x="100" />
<glyph unicode="&#xbd;" horiz-adv-x="100" />
<glyph unicode="&#xbe;" horiz-adv-x="1549" />
<glyph unicode="&#xbf;" horiz-adv-x="1305" d="M68 548q28 223 205 390q176 163 394 183l39 320h138l-57 -455h-48q-207 0 -356 -128q-152 -130 -174 -310t97 -310q119 -128 312 -128q191 0 341 127q150 129 166 305l147 1q-28 -234 -225 -404q-198 -170 -447 -170t-405 169q-156 168 -127 410zM695 1653q5 43 40 74 t79 31t71 -31t22 -74q-5 -44 -40 -75t-79 -31t-71 31t-22 75z" />
<glyph unicode="&#xc0;" horiz-adv-x="1676" d="M-3 -22l860 1327v1l113 172l66 -164l537 -1336h-162l-479 1184l-777 -1184h-158zM614 2001h167l198 -414h-159z" />
<glyph unicode="&#xc1;" horiz-adv-x="1676" d="M-3 -22l860 1327v1l113 172l66 -164l537 -1336h-162l-479 1184l-777 -1184h-158zM993 1588l300 414h167l-308 -414h-159z" />
<glyph unicode="&#xc2;" horiz-adv-x="1676" d="M-3 -22l860 1327v1l113 172l66 -164l537 -1336h-162l-479 1184l-777 -1184h-158zM655 1587l371 343l285 -343h-181l-126 158l-168 -158h-181z" />
<glyph unicode="&#xc3;" horiz-adv-x="1676" d="M-3 -22l860 1327v1l113 172l66 -164l537 -1336h-162l-479 1184l-777 -1184h-158zM624 1593q77 165 207 196q112 29 207 -39q53 -38 107 -25q49 19 76 68h147q-75 -167 -207 -198q-114 -30 -209 39q-54 37 -106 24q-53 -15 -59 -65h-163z" />
<glyph unicode="&#xc4;" horiz-adv-x="1665" d="M-3 -22l860 1327v1l113 172l66 -164l537 -1336h-162l-479 1184l-777 -1184h-158zM732 1694q7 47 43.5 79t82.5 32q45 0 73.5 -32.5t21.5 -78.5q-6 -45 -42 -77.5t-81 -32.5q-46 0 -75 32.5t-23 77.5zM1039 1694q7 47 43.5 79t82.5 32q45 0 73.5 -32.5t21.5 -78.5 q-6 -45 -42 -77.5t-81 -32.5q-46 0 -75 32.5t-23 77.5z" />
<glyph unicode="&#xc5;" horiz-adv-x="1665" d="M-3 -22l860 1327v1l106 160q-53 2 -84 39q-34 39 -28 94q5 55 49 94.5t100 39.5q55 0 89 -39.5t29 -94.5q-6 -55 -50 -94q-42 -36 -93 -39l61 -152l537 -1336h-162l-479 1184l-777 -1184h-158zM951 1601q-3 -14 6 -24t23 -10t25 10.5t15 26.5q1 11 -9 21.5t-24 10.5 t-24.5 -10t-11.5 -25z" />
<glyph unicode="&#xc6;" horiz-adv-x="2120" d="M-3 -22l1075 1477h1127l-18 -147h-987l-146 -1182h987l-17 -146h-1136l141 1148l-847 -1150h-179zM1206 388l17 145h858l-17 -145h-858z" />
<glyph unicode="&#xc7;" horiz-adv-x="1599" d="M93 719q39 312 288 534t562 222q262 0 447 -162q185 -158 220 -421h-143q-37 200 -184 323q-149 124 -357 124q-258 0 -462 -181q-203 -182 -235 -439q-31 -258 127 -440q160 -181 418 -181q203 0 381 120q174 117 264 312h141q-102 -256 -322 -411q-206 -144 -441 -156 l-5 -44q68 -13 118 -67q51 -55 42 -128q-11 -86 -98 -146q-85 -58 -194 -58q-22 0 -62 6l16 134q51 -7 77 -7q46 0 81.5 22.5t39.5 54.5t-26 54.5t-76 22.5q-26 0 -79 -7l21 169q-242 31 -402 215q-195 222 -157 535z" />
<glyph unicode="&#xc8;" horiz-adv-x="1236" d="M-2 -20l181 1475h1136l-18 -147h-987l-146 -1182h987l-17 -146h-1136zM322 388l17 145h858l-17 -145h-858zM548 2002h167l198 -414h-159z" />
<glyph unicode="&#xc9;" horiz-adv-x="1236" d="M-2 -20l181 1475h1136l-18 -147h-987l-146 -1182h987l-17 -146h-1136zM322 388l17 145h858l-17 -145h-858zM613 1587l300 414h167l-308 -414h-159z" />
<glyph unicode="&#xca;" horiz-adv-x="1236" d="M-2 -20l181 1475h1136l-18 -147h-987l-146 -1182h987l-17 -146h-1136zM322 388l17 145h858l-17 -145h-858zM435 1588l371 343l285 -343h-181l-126 158l-168 -158h-181z" />
<glyph unicode="&#xcb;" horiz-adv-x="1236" d="M-2 -20l181 1475h1136l-18 -147h-987l-146 -1182h987l-17 -146h-1136zM322 388l17 145h858l-17 -145h-858zM513 1699q6 47 42.5 79t82.5 32q45 0 73.5 -32.5t22.5 -78.5q-6 -45 -42 -77.5t-81 -32.5q-46 0 -75 32.5t-23 77.5zM820 1699q6 47 42.5 79t82.5 32 q45 0 73.5 -32.5t22.5 -78.5q-6 -45 -42 -77.5t-81 -32.5q-46 0 -75 32.5t-23 77.5z" />
<glyph unicode="&#xcc;" horiz-adv-x="516" d="M203 -20l181 1474h145l-181 -1474h-145zM246 2000h167l198 -414h-160z" />
<glyph unicode="&#xcd;" horiz-adv-x="516" d="M1 -20l181 1474h145l-181 -1474h-145zM195 1586l300 414h167l-308 -414h-159z" />
<glyph unicode="&#xce;" horiz-adv-x="755" d="M195 1586l371 343l284 -343h-180l-127 158l-168 -158h-180zM253 -20l181 1474h145l-181 -1474h-145z" />
<glyph unicode="&#xcf;" horiz-adv-x="630" d="M190 -20l181 1475h145l-181 -1475h-145zM209 1700q8 47 43.5 79t81.5 32t74.5 -32.5t21.5 -78.5q-6 -45 -41.5 -77.5t-81.5 -32.5t-75 32.5t-23 77.5zM516 1700q8 47 43.5 79t81.5 32t74.5 -32.5t21.5 -78.5q-6 -45 -41.5 -77.5t-81.5 -32.5t-75 32.5t-23 77.5z" />
<glyph unicode="&#xd0;" horiz-adv-x="1662" d="M82 666l17 142h190l79 644h209l359 -1q142 0 230 -17q212 -43 342 -180q184 -193 142 -538t-274 -538q-163 -136 -397 -180q-124 -23 -224 -17h-568l84 685h-189zM350 129h429q322 0 510 159q179 149 213 428q34 280 -107 429q-105 110 -298 145q-98 19 -173 13h-430 l-61 -495h175l-17 -142h-175z" />
<glyph unicode="&#xd1;" horiz-adv-x="1436" d="M-2 -20l184 1501l122 -139l924 -1043l141 1154h145l-180 -1473h-29l-97 109l-924 1043l-141 -1152h-145zM504 1595q77 165 207 197q112 28 207 -40q54 -37 107 -24q50 19 76 67h147q-75 -166 -207 -198q-113 -29 -209 40q-53 36 -106 23q-53 -15 -59 -65h-163z" />
<glyph unicode="&#xd2;" d="M88 720q40 313 289 535t562 222t508 -222t155 -535q-38 -313 -287 -535q-250 -222 -563 -222t-507 222q-195 222 -157 535zM232 720q-31 -254 126 -434q158 -179 412 -179t456 179q201 180 232 434q32 254 -125 434q-158 179 -412 179t-456 -179q-201 -180 -233 -434z M741 2036h167l198 -414h-159z" />
<glyph unicode="&#xd3;" d="M88 720q40 313 289 535t562 222t508 -222t155 -535q-38 -313 -287 -535q-250 -222 -563 -222t-507 222q-195 222 -157 535zM232 720q-31 -254 126 -434q158 -179 412 -179t456 179q201 180 232 434q32 254 -125 434q-158 179 -412 179t-456 -179q-201 -180 -233 -434z M806 1624l300 414h167l-308 -414h-159z" />
<glyph unicode="&#xd4;" d="M88 720q40 313 289 535t562 222t508 -222t155 -535q-38 -313 -287 -535q-250 -222 -563 -222t-507 222q-195 222 -157 535zM232 720q-31 -254 126 -434q158 -179 412 -179t456 179q201 180 232 434q32 254 -125 434q-158 179 -412 179t-456 -179q-201 -180 -233 -434z M624 1585l371 343l285 -343h-181l-126 158l-168 -158h-181z" />
<glyph unicode="&#xd5;" d="M88 720q40 313 289 535t562 222t508 -222t155 -535q-38 -313 -287 -535q-250 -222 -563 -222t-507 222q-195 222 -157 535zM232 720q-31 -254 126 -434q158 -179 412 -179t456 179q201 180 232 434q32 254 -125 434q-158 179 -412 179t-456 -179q-201 -180 -233 -434z M592 1592q78 165 208 196q112 29 207 -39q53 -38 107 -25q49 19 76 68h147q-75 -167 -207 -198q-113 -30 -209 39q-54 37 -107 24q-52 -15 -59 -65h-163z" />
<glyph unicode="&#xd6;" d="M88 720q40 313 289 535t562 222t508 -222t155 -535q-38 -313 -287 -535q-250 -222 -563 -222t-507 222q-195 222 -157 535zM232 720q-31 -254 126 -434q158 -179 412 -179t456 179q201 180 232 434q32 254 -125 434q-158 179 -412 179t-456 -179q-201 -180 -233 -434z M706 1735q7 47 43.5 79t82.5 32q45 0 73.5 -32.5t21.5 -78.5q-5 -45 -41 -77.5t-81 -32.5q-46 0 -75 32.5t-24 77.5zM1013 1735q7 47 43.5 79t82.5 32q45 0 73.5 -32.5t21.5 -78.5q-5 -45 -41 -77.5t-81 -32.5q-46 0 -75 32.5t-24 77.5z" />
<glyph unicode="&#xd7;" horiz-adv-x="777" d="M46 371l267 238l-209 237l113 101l208 -238l267 238l89 -101l-267 -237l209 -238l-114 -101l-209 238l-266 -238z" />
<glyph unicode="&#xd8;" horiz-adv-x="1625" d="M88 720q40 313 289 535t562 222q157 0 269 -49l94 146h167l-138 -214q56 -37 116 -105q195 -222 155 -535q-38 -313 -287 -535q-250 -222 -563 -222q-166 0 -283 55l-94 -145h-167l140 216q-50 34 -103 96q-195 222 -157 535zM232 720q-31 -254 126 -434q41 -46 73 -69 l694 1082q-81 34 -204 34q-254 0 -456 -179q-201 -180 -233 -434zM552 147q86 -40 218 -40q254 0 456 179q201 180 232 434q32 254 -125 434q-47 52 -84 78z" />
<glyph unicode="&#xd9;" horiz-adv-x="1448" d="M89 723l90 734h141l-90 -734q-28 -250 106 -427q134 -175 352 -175t395 174q178 176 212 425l91 737h141l-90 -736q-43 -312 -266 -532q-224 -222 -501 -222q-278 0 -448 223q-169 220 -133 533zM641 1999h168l199 -414h-160z" />
<glyph unicode="&#xda;" horiz-adv-x="1448" d="M89 723l90 734h141l-90 -734q-28 -250 106 -427q134 -175 352 -175t395 174q178 176 212 425l91 737h141l-90 -736q-43 -312 -266 -532q-224 -222 -501 -222q-278 0 -448 223q-169 220 -133 533zM730 1586l300 414h168l-308 -414h-160z" />
<glyph unicode="&#xdb;" horiz-adv-x="1448" d="M89 723l90 734h141l-90 -734q-28 -250 106 -427q134 -175 352 -175t395 174q178 176 212 425l91 737h141l-90 -736q-43 -312 -266 -532q-224 -222 -501 -222q-278 0 -448 223q-169 220 -133 533zM541 1585l371 343l285 -343h-181l-126 158l-168 -158h-181z" />
<glyph unicode="&#xdc;" horiz-adv-x="1448" d="M89 723l90 734h141l-90 -734q-28 -250 106 -427q134 -175 352 -175t395 174q178 176 212 425l91 737h141l-90 -736q-43 -312 -266 -532q-224 -222 -501 -222q-278 0 -448 223q-169 220 -133 533zM606 1597q7 47 43.5 79t82.5 32q45 0 73.5 -32.5t21.5 -78.5 q-5 -45 -41 -77.5t-81 -32.5q-46 0 -75 32.5t-24 77.5zM913 1597q7 47 43.5 79t82.5 32q45 0 73.5 -32.5t21.5 -78.5q-5 -45 -41 -77.5t-81 -32.5q-46 0 -75 32.5t-24 77.5z" />
<glyph unicode="&#xdd;" horiz-adv-x="1304" d="M179 1455h160l337 -851l548 851h159l-652 -1010l-58 -465h-145l58 465zM646 1488l300 414h167l-307 -414h-160z" />
<glyph unicode="&#xde;" horiz-adv-x="1135" d="M-2 -18l181 1473h140l-26 -202h334q140 0 272 -69q265 -136 224 -469q-42 -334 -338 -470q-149 -68 -289 -68h-328l-24 -197h-145v2h-1zM185 320h328q108 1 220 53q211 97 241 342q29 244 -156 342q-100 52 -209 52h-328z" />
<glyph unicode="&#xdf;" horiz-adv-x="1504" d="M-2 -15l174 1413q25 191 198 325q171 135 388 135q219 0 358 -136q140 -136 116 -329q-14 -112 -85 -213l-7 -9l-1 -1q-15 -20 -24 -30l-4 -4l-5 -7q-21 -25 -25 -52q-8 -67 68 -99q6 -2 13 -5q18 -7 38 -17l3 -2l6 -3q135 -68 203 -192q70 -123 52 -267 q-26 -219 -222 -372q-195 -154 -444 -154q-199 0 -348 106t-183 275l-15 81h139l8 -42q27 -127 142 -207q116 -81 273 -81q194 0 345 116q152 116 171 278q14 114 -48 211q-63 99 -182 147q-6 2 -16 5q-21 10 -40 23h-1l-10 6q-100 75 -86 193q5 37 26 77l5 12l2 2 q13 22 30 43q4 3 8 7q68 81 80 175q17 137 -86 235q-104 98 -270 98q-163 0 -291 -98q-128 -96 -144 -231l-174 -1412h-135z" />
<glyph unicode="&#xe0;" d="M88 720q40 313 289 535t562 222t508 -222t155 -535l-90 -740h-144l35 289q-12 -16 -88 -84q-250 -222 -563 -222t-507 222q-195 222 -157 535zM232 720q-31 -254 126 -434q158 -179 412 -179t456 179q201 180 232 434q32 254 -125 434q-158 179 -412 179t-456 -179 q-201 -180 -233 -434zM725 2000h167l198 -414h-159z" />
<glyph unicode="&#xe1;" d="M88 720q40 313 289 535t562 222t508 -222t155 -535l-90 -740h-144l35 289q-12 -16 -88 -84q-250 -222 -563 -222t-507 222q-195 222 -157 535zM232 720q-31 -254 126 -434q158 -179 412 -179t456 179q201 180 232 434q32 254 -125 434q-158 179 -412 179t-456 -179 q-201 -180 -233 -434zM813 1586l300 414h168l-308 -414h-160z" />
<glyph unicode="&#xe2;" d="M88 720q40 313 289 535t562 222t508 -222t155 -535l-90 -740h-144l35 289q-12 -16 -88 -84q-250 -222 -563 -222t-507 222q-195 222 -157 535zM232 720q-31 -254 126 -434q158 -179 412 -179t456 179q201 180 232 434q32 254 -125 434q-158 179 -412 179t-456 -179 q-201 -180 -233 -434zM624 1586l371 343l285 -343h-181l-126 158l-168 -158h-181z" />
<glyph unicode="&#xe3;" d="M88 720q40 313 289 535t562 222t508 -222t155 -535l-90 -740h-144l35 289q-12 -16 -88 -84q-250 -222 -563 -222t-507 222q-195 222 -157 535zM232 720q-31 -254 126 -434q158 -179 412 -179t456 179q201 180 232 434q32 254 -125 434q-158 179 -412 179t-456 -179 q-201 -180 -233 -434zM593 1593q77 165 207 196q112 29 207 -39q53 -38 107 -25q49 19 76 68h147q-75 -167 -207 -198q-113 -30 -209 39q-54 37 -106 24q-53 -15 -59 -65h-163z" />
<glyph unicode="&#xe4;" d="M88 720q40 313 289 535t562 222t508 -222t155 -535l-90 -740h-144l35 289q-12 -16 -88 -84q-250 -222 -563 -222t-507 222q-195 222 -157 535zM232 720q-31 -254 126 -434q158 -179 412 -179t456 179q201 180 232 434q32 254 -125 434q-158 179 -412 179t-456 -179 q-201 -180 -233 -434zM701 1696q7 46 43 78t83 32q45 0 73.5 -32.5t21.5 -78.5q-5 -45 -41 -77.5t-81 -32.5q-46 0 -75 32.5t-24 78.5zM1008 1696q7 46 43 78t83 32q45 0 73.5 -32.5t21.5 -78.5q-5 -45 -41 -77.5t-81 -32.5q-46 0 -75 32.5t-24 78.5z" />
<glyph unicode="&#xe5;" d="M88 720q40 313 289 535t562 222t508 -222t155 -535l-90 -740h-144l35 289q-12 -16 -88 -84q-250 -222 -563 -222t-507 222q-195 222 -157 535zM232 720q-31 -254 126 -434q158 -179 412 -179t456 179q201 180 232 434q32 254 -125 434q-158 179 -412 179t-456 -179 q-201 -180 -233 -434zM835 1721q5 55 49 94.5t100 39.5q55 0 89 -39.5t29 -94.5q-6 -55 -50.5 -94t-99.5 -39q-56 0 -89.5 39t-27.5 94zM921 1723q-4 -20 8.5 -33.5t32.5 -13.5q21 0 36 14t19 36q2 17 -11.5 31t-35.5 14q-18 0 -32.5 -13.5t-16.5 -34.5z" />
<glyph unicode="&#xe6;" horiz-adv-x="2964" d="M88 720q40 313 289 535t562 222t508 -222q107 -122 132 -222q46 91 175 206q245 218 553 218q257 0 439 -159q181 -156 212 -383l-1286 -1q-54 -104 -65 -200q-24 -250 129 -427q156 -175 405 -181q198 6 370 122q169 114 258 306h146q-102 -257 -319 -409 q-219 -155 -472 -155q-308 0 -499 218q-66 75 -75 96l-37 -302h-139l35 292q-12 -17 -94 -89q-250 -222 -563 -222t-507 222q-195 222 -157 535zM232 720q-31 -254 126 -434q158 -179 412 -179t456 179q201 180 232 434q32 254 -125 434q-158 179 -412 179t-456 -179 q-201 -180 -233 -434zM1748 1042h1015q-37 90 -138 170q-141 110 -335 110q-241 0 -431 -162q-76 -64 -111 -118z" />
<glyph unicode="&#xe7;" horiz-adv-x="1581" d="M88 719q38 309 284 529q247 219 557 219q259 0 442 -160q182 -157 218 -428h-158q-36 199 -177 317q-145 119 -344 119q-248 0 -445 -174q-194 -175 -225 -422q-30 -248 122 -423q154 -174 402 -174q195 0 366 115q168 113 257 307h157q-107 -265 -324 -418 q-179 -127 -365 -149l-2 -17q67 -13 118 -67q51 -55 42 -128q-11 -86 -98 -146q-85 -58 -194 -58q-22 0 -62 6l17 141h26q74 0 111.5 19.5t40.5 40.5q2 21 -30.5 40.5t-86.5 19.5h-46l17 142q-278 6 -466 219q-192 220 -154 530z" />
<glyph unicode="&#xe8;" horiz-adv-x="1599" d="M88 720q40 313 289 535t562 222t508 -222q132 -150 161 -363l-1333 -2q-31 -72 -43 -170q-31 -254 126 -434q158 -179 412 -179t456 179q116 103 181 243h150q-84 -204 -242 -344q-250 -222 -563 -222t-507 222q-195 222 -157 535zM351 1029h1064q-20 53 -82 125 q-158 179 -412 179t-456 -179q-80 -72 -114 -125zM718 2001h167l198 -414h-159z" />
<glyph unicode="&#xe9;" horiz-adv-x="1599" d="M88 720q40 313 289 535t562 222t508 -222q132 -150 161 -363l-1333 -2q-31 -72 -43 -170q-31 -254 126 -434q158 -179 412 -179t456 179q116 103 181 243h150q-84 -204 -242 -344q-250 -222 -563 -222t-507 222q-195 222 -157 535zM351 1029h1064q-20 53 -82 125 q-158 179 -412 179t-456 -179q-80 -72 -114 -125zM805 1586l300 414h167l-308 -414h-159z" />
<glyph unicode="&#xea;" horiz-adv-x="1599" d="M88 720q40 313 289 535t562 222t508 -222q132 -150 161 -363l-1333 -2q-31 -72 -43 -170q-31 -254 126 -434q158 -179 412 -179t456 179q116 103 181 243h150q-84 -204 -242 -344q-250 -222 -563 -222t-507 222q-195 222 -157 535zM351 1029h1064q-20 53 -82 125 q-158 179 -412 179t-456 -179q-80 -72 -114 -125zM616 1586l371 343l285 -343h-181l-126 158l-168 -158h-181z" />
<glyph unicode="&#xeb;" horiz-adv-x="1599" d="M88 720q40 313 289 535t562 222t508 -222q132 -150 161 -363l-1333 -2q-31 -72 -43 -170q-31 -254 126 -434q158 -179 412 -179t456 179q116 103 181 243h150q-84 -204 -242 -344q-250 -222 -563 -222t-507 222q-195 222 -157 535zM351 1029h1064q-20 53 -82 125 q-158 179 -412 179t-456 -179q-80 -72 -114 -125zM693 1695q8 46 44 78.5t82 32.5t74.5 -32.5t20.5 -78.5q-5 -45 -40.5 -77.5t-81.5 -32.5t-75 32.5t-24 77.5zM1000 1695q8 46 44 78.5t82 32.5t74.5 -32.5t20.5 -78.5q-5 -45 -40.5 -77.5t-81.5 -32.5t-75 32.5t-24 77.5z " />
<glyph unicode="&#xec;" horiz-adv-x="516" d="M203 -20l181 1474h145l-181 -1474h-145zM241 1960h167l198 -414h-160z" />
<glyph unicode="&#xed;" horiz-adv-x="516" d="M1 -20l181 1474h145l-181 -1474h-145zM190 1546l300 414h167l-308 -414h-159z" />
<glyph unicode="&#xee;" horiz-adv-x="755" d="M195 1586l371 343l285 -343h-181l-126 158l-168 -158h-181zM253 -20l181 1474h145l-181 -1474h-145z" />
<glyph unicode="&#xef;" horiz-adv-x="630" d="M190 -20l181 1474h145l-181 -1474h-145zM203 1655q8 47 44 79t82 32t74.5 -32.5t20.5 -78.5q-5 -45 -40.5 -77.5t-81.5 -32.5t-75 32.5t-24 77.5zM510 1655q8 47 44 79t82 32t74.5 -32.5t20.5 -78.5q-5 -45 -40.5 -77.5t-81.5 -32.5t-75 32.5t-24 77.5z" />
<glyph unicode="&#xf0;" horiz-adv-x="1680" d="M168 866q91 276 337 448q243 169 423 159q-41 21 -178 73l-30 -83l-128 31l33 91q-31 9 -99 24l52 148q67 -17 101 -26l35 90l126 -30l-37 -98q452 -155 665 -425q126 -131 165 -316q41 -190 -23 -388q-101 -305 -383 -478q-281 -172 -579 -110q-299 63 -438 323 q-141 261 -42 567zM318 835q-79 -243 31 -450q112 -206 349 -256t460 87t301 379q80 243 -31 450t-348 256q-237 50 -459 -87q-225 -136 -303 -379z" />
<glyph unicode="&#xf1;" horiz-adv-x="1448" d="M-3 -22l91 736q42 312 265 532q224 222 501 222q278 0 448 -223q169 -220 133 -533l-90 -734h-141l90 734q28 250 -106 427q-134 175 -352 175t-395 -174q-178 -176 -212 -425l-91 -737h-141zM510 1593q77 165 207 196q112 29 207 -39q53 -38 107 -25q49 19 76 68h147 q-75 -167 -207 -198q-113 -30 -209 39q-54 37 -106 24q-53 -15 -59 -65h-163z" />
<glyph unicode="&#xf2;" d="M88 720q40 313 289 535t562 222t508 -222t155 -535q-38 -313 -287 -535q-250 -222 -563 -222t-507 222q-195 222 -157 535zM232 720q-31 -254 126 -434q158 -179 412 -179t456 179q201 180 232 434q32 254 -125 434q-158 179 -412 179t-456 -179q-201 -180 -233 -434z M720 1960h168l198 -414h-160z" />
<glyph unicode="&#xf3;" d="M88 720q40 313 289 535t562 222t508 -222t155 -535q-38 -313 -287 -535q-250 -222 -563 -222t-507 222q-195 222 -157 535zM232 720q-31 -254 126 -434q158 -179 412 -179t456 179q201 180 232 434q32 254 -125 434q-158 179 -412 179t-456 -179q-201 -180 -233 -434z M808 1546l300 414h168l-308 -414h-160z" />
<glyph unicode="&#xf4;" d="M88 720q40 313 289 535t562 222t508 -222t155 -535q-38 -313 -287 -535q-250 -222 -563 -222t-507 222q-195 222 -157 535zM232 720q-31 -254 126 -434q158 -179 412 -179t456 179q201 180 232 434q32 254 -125 434q-158 179 -412 179t-456 -179q-201 -180 -233 -434z M624 1586l371 343l285 -343h-181l-126 158l-168 -158h-181z" />
<glyph unicode="&#xf5;" d="M88 720q40 313 289 535t562 222t508 -222t155 -535q-38 -313 -287 -535q-250 -222 -563 -222t-507 222q-195 222 -157 535zM232 720q-31 -254 126 -434q158 -179 412 -179t456 179q201 180 232 434q32 254 -125 434q-158 179 -412 179t-456 -179q-201 -180 -233 -434z M593 1593q77 165 207 196q112 29 207 -39q53 -38 107 -25q49 19 76 68h147q-75 -167 -207 -198q-113 -30 -209 39q-54 37 -106 24q-53 -15 -59 -65h-163z" />
<glyph unicode="&#xf6;" d="M88 720q40 313 289 535t562 222t508 -222t155 -535q-38 -313 -287 -535q-250 -222 -563 -222t-507 222q-195 222 -157 535zM232 720q-31 -254 126 -434q158 -179 412 -179t456 179q201 180 232 434q32 254 -125 434q-158 179 -412 179t-456 -179q-201 -180 -233 -434z M696 1655q7 47 43.5 79t82.5 32q45 0 73.5 -32.5t21.5 -78.5q-5 -45 -41 -77.5t-81 -32.5q-46 0 -75 32.5t-24 77.5zM1003 1655q7 47 43.5 79t82.5 32q45 0 73.5 -32.5t21.5 -78.5q-5 -45 -41 -77.5t-81 -32.5q-46 0 -75 32.5t-24 77.5z" />
<glyph unicode="&#xf7;" horiz-adv-x="915" d="M66 537l17 143h815l-17 -143h-815zM358 408q5 46 42 78.5t83 32.5q45 0 73 -32.5t23 -78.5q-5 -45 -41.5 -77.5t-81.5 -32.5q-46 0 -74.5 32.5t-23.5 77.5zM404 804q4 46 41 78.5t83 32.5q45 0 73 -32.5t24 -78.5q-6 -45 -42.5 -77.5t-81.5 -32.5q-46 0 -74.5 32.5 t-22.5 77.5z" />
<glyph unicode="&#xf8;" horiz-adv-x="1625" d="M88 720q40 313 289 535t562 222q157 0 269 -49l94 146h167l-138 -214q56 -37 116 -105q195 -222 155 -535q-38 -313 -287 -535q-250 -222 -563 -222q-166 0 -283 55l-94 -145h-167l140 216q-50 34 -103 96q-195 222 -157 535zM232 720q-31 -254 126 -434q41 -46 73 -69 l694 1082q-81 34 -204 34q-254 0 -456 -179q-201 -180 -233 -434zM552 147q86 -40 218 -40q254 0 456 179q201 180 232 434q32 254 -125 434q-47 52 -84 78z" />
<glyph unicode="&#xf9;" horiz-adv-x="1448" d="M89 723l90 734h141l-90 -734q-28 -250 106 -427q134 -175 352 -175t395 174q178 176 212 425l91 737h141l-90 -736q-43 -312 -266 -532q-224 -222 -501 -222q-278 0 -448 223q-169 220 -133 533zM637 1960h168l198 -414h-160z" />
<glyph unicode="&#xfa;" horiz-adv-x="1448" d="M89 723l90 734h141l-90 -734q-28 -250 106 -427q134 -175 352 -175t395 174q178 176 212 425l91 737h141l-90 -736q-43 -312 -266 -532q-224 -222 -501 -222q-278 0 -448 223q-169 220 -133 533zM725 1546l300 414h168l-308 -414h-160z" />
<glyph unicode="&#xfb;" horiz-adv-x="1448" d="M89 723l90 734h141l-90 -734q-28 -250 106 -427q134 -175 352 -175t395 174q178 176 212 425l91 737h141l-90 -736q-43 -312 -266 -532q-224 -222 -501 -222q-278 0 -448 223q-169 220 -133 533zM541 1586l371 343l285 -343h-181l-126 158l-168 -158h-181z" />
<glyph unicode="&#xfc;" horiz-adv-x="1448" d="M89 723l90 734h141l-90 -734q-28 -250 106 -427q134 -175 352 -175t395 174q178 176 212 425l91 737h141l-90 -736q-43 -312 -266 -532q-224 -222 -501 -222q-278 0 -448 223q-169 220 -133 533zM618 1695q7 47 43.5 79t82.5 32q45 0 73.5 -32.5t21.5 -78.5 q-5 -45 -41 -77.5t-81 -32.5q-46 0 -75 32.5t-24 77.5zM925 1695q7 47 43.5 79t82.5 32q45 0 73.5 -32.5t21.5 -78.5q-5 -45 -41 -77.5t-81 -32.5q-46 0 -75 32.5t-24 77.5z" />
<glyph unicode="&#xfd;" horiz-adv-x="1345" d="M4 -49h151l7 -20q28 -170 140 -273q111 -102 265 -102q192 0 354 157q159 159 191 382l14 131q-53 -75 -199 -160q-148 -84 -306 -84q-257 0 -415 206q-156 204 -123 492l96 776h145l-96 -775q-28 -194 89 -387q127 -164 322 -164q185 0 349 146q159 155 188 367l101 814 l147 -1l-147 -1198l-20 -163q-39 -287 -246 -491q-208 -205 -463 -205q-209 0 -358 145q-150 143 -177 370zM679 1586l300 414h167l-308 -414h-159z" />
<glyph unicode="&#xfe;" d="M-43 -352l255 2081h1l1 9h139l-71 -574q14 19 94 91q249 222 562 222t508 -222t157 -535t-287 -535q-250 -222 -563 -222t-507 222q-65 74 -75 94l-77 -631h-137zM233 720q-31 -254 126 -434q158 -179 412 -179t456 179q201 180 232 434q32 254 -125 434 q-158 179 -412 179t-456 -179q-201 -180 -233 -434z" />
<glyph unicode="&#xff;" horiz-adv-x="1345" d="M4 -49h151l7 -20q28 -170 140 -273q111 -102 265 -102q192 0 354 157q159 159 191 382l14 131q-53 -75 -199 -160q-148 -84 -306 -84q-257 0 -415 206q-156 204 -123 492l96 776h145l-96 -775q-28 -194 89 -387q127 -164 322 -164q185 0 349 146q159 155 188 367l101 814 l147 -1l-147 -1198l-20 -163q-39 -287 -246 -491q-208 -205 -463 -205q-209 0 -358 145q-150 143 -177 370zM566 1695q8 47 44 79t82 32t74.5 -32.5t20.5 -78.5q-5 -45 -40.5 -77.5t-81.5 -32.5t-75 32.5t-24 77.5zM873 1695q8 47 44 79t82 32t74.5 -32.5t20.5 -78.5 q-5 -45 -40.5 -77.5t-81.5 -32.5t-75 32.5t-24 77.5z" />
<glyph unicode="&#x152;" horiz-adv-x="1928" d="M89 720q38 315 290 539q251 223 566 223h-11v1h1076l-19 -154h-602q12 -8 68 -70q194 -224 156 -539q-13 -101 -37 -168h320l-19 -154h-372q-65 -112 -181 -217q-68 -62 -81 -69h599l-20 -154h-1069q-311 1 -507 223q-195 224 -157 539zM237 720q-31 -255 126 -434 q158 -180 413 -180t455 180q203 179 234 434q32 255 -126 434q-157 180 -412 180t-456 -180q-202 -179 -234 -434z" />
<glyph unicode="&#x153;" horiz-adv-x="2952" d="M88 720q40 313 289 535t562 222t508 -222q99 -113 125 -205q46 85 169 194q245 218 553 218q257 0 439 -159q181 -156 212 -383l-1286 -1q-33 -62 -51 -127q-1 -34 -6 -72q-4 -39 -12 -74q1 -203 133 -354q155 -175 405 -181q197 6 370 122q169 114 257 306h146 q-101 -257 -318 -409q-219 -155 -472 -155q-308 0 -499 218q-97 110 -122 197q-48 -92 -175 -205q-250 -222 -563 -222t-507 222q-195 222 -157 535zM232 720q-31 -254 126 -434q158 -179 412 -179t456 179q201 180 232 434q32 254 -125 434q-158 179 -412 179t-456 -179 q-201 -180 -233 -434zM1735 1047h1015q-37 90 -139 170q-140 110 -334 110q-241 0 -431 -162q-77 -64 -111 -118z" />
<glyph unicode="&#x2c6;" horiz-adv-x="756" d="M195 1586l371 343l285 -343h-181l-126 158l-168 -158h-181z" />
<glyph unicode="&#x2dc;" horiz-adv-x="820" d="M196 1593q77 165 207 196q112 29 207 -39q53 -38 107 -25q49 19 76 68h147q-75 -167 -207 -198q-114 -30 -209 39q-54 37 -106 24q-53 -15 -59 -65h-163z" />
<glyph unicode="&#x2000;" horiz-adv-x="1019" />
<glyph unicode="&#x2001;" horiz-adv-x="2038" />
<glyph unicode="&#x2002;" horiz-adv-x="1019" />
<glyph unicode="&#x2003;" horiz-adv-x="2038" />
<glyph unicode="&#x2004;" horiz-adv-x="679" />
<glyph unicode="&#x2005;" horiz-adv-x="509" />
<glyph unicode="&#x2006;" horiz-adv-x="339" />
<glyph unicode="&#x2007;" horiz-adv-x="339" />
<glyph unicode="&#x2008;" horiz-adv-x="254" />
<glyph unicode="&#x2009;" horiz-adv-x="407" />
<glyph unicode="&#x200a;" horiz-adv-x="113" />
<glyph unicode="&#x2010;" horiz-adv-x="902" d="M79 643l18 145h777l-18 -145h-777z" />
<glyph unicode="&#x2011;" horiz-adv-x="902" d="M79 643l18 145h777l-18 -145h-777z" />
<glyph unicode="&#x2012;" horiz-adv-x="902" d="M79 643l18 145h777l-18 -145h-777z" />
<glyph unicode="&#x2013;" horiz-adv-x="100" />
<glyph unicode="&#x2014;" horiz-adv-x="100" />
<glyph unicode="&#x2018;" horiz-adv-x="445" d="M179 1456h167l141 -296h-159z" />
<glyph unicode="&#x2019;" horiz-adv-x="445" d="M142 1160l215 296h167l-223 -296h-159z" />
<glyph unicode="&#x201a;" horiz-adv-x="445" d="M-14 -118l214 296h167l-222 -296h-159z" />
<glyph unicode="&#x201c;" horiz-adv-x="464" d="M119 971l59 482h149l-60 -482h-148zM334 971l59 482h149l-60 -482h-148z" />
<glyph unicode="&#x201d;" horiz-adv-x="464" d="M119 971l59 482h149l-60 -482h-148zM334 971l59 482h149l-60 -482h-148z" />
<glyph unicode="&#x201e;" horiz-adv-x="464" d="M-38 -308l59 482h149l-60 -482h-148zM177 -308l59 482h149l-60 -482h-148z" />
<glyph unicode="&#x2022;" horiz-adv-x="436" d="M93 758q9 69 64.5 118.5t124.5 49.5t112.5 -49.5t34.5 -118.5q-8 -69 -64.5 -118.5t-125.5 -49.5t-111.5 49.5t-34.5 118.5z" />
<glyph unicode="&#x2026;" horiz-adv-x="100" />
<glyph unicode="&#x202f;" horiz-adv-x="407" />
<glyph unicode="&#x2039;" horiz-adv-x="845" d="M91 738l792 387l-21 -160q-70 -35 -287 -140q-193 -95 -176 -86q67 -37 409 -226l-21 -161z" />
<glyph unicode="&#x203a;" horiz-adv-x="847" d="M43 352l21 161q387 189 465 226q15 -9 -158 86q-190 105 -253 140l20 160l700 -387z" />
<glyph unicode="&#x205f;" horiz-adv-x="509" />
<glyph unicode="&#x20ac;" horiz-adv-x="1886" d="M62 508l61 142h265q0 23 5 69q5 41 10 59h-307l59 142h288q67 177 234 328q248 219 558 219q259 0 441 -160q183 -157 218 -428h-158q-36 199 -177 317q-144 119 -343 119q-248 0 -445 -174q-121 -110 -169 -221h350l-59 -142h-337q-6 -20 -11 -59q-5 -44 -4 -69h379 l-61 -142h-305q21 -106 113 -212q154 -174 402 -174q195 0 366 115q168 113 257 307h157q-107 -265 -324 -418q-220 -156 -475 -156q-310 0 -502 219q-128 147 -152 319h-334z" />
<glyph unicode="&#x2122;" horiz-adv-x="1318" d="M0 1339v97h532v-97h-218v-640h-97v640h-217zM594 709v742l314 -586l310 585v-741h-90l1 398l-218 -418l-228 416v-396h-89z" />
<glyph unicode="&#x25fc;" horiz-adv-x="1520" d="M0 0v1520h1520v-1520h-1520z" />
<glyph unicode="&#xfb01;" horiz-adv-x="816" d="M101 -22l164 1330h-104l18 147h104l22 186q18 132 121 225q105 94 237 94q131 0 214 -94q55 -73 36 -235h-136q18 84 -15 135q-44 51 -117 51q-72 0 -129 -52q-59 -52 -68 -126l-22 -184h469l-181 -1475h-142l163 1328h-327l-165 -1330h-142z" />
<glyph unicode="&#xfb02;" horiz-adv-x="765" d="M100 -22l164 1330h-103l18 147h103l22 186q18 132 120 225q104 94 234 94q129 0 210 -94q11 -12 23 -29l-228 -1857h-139l220 1798q-38 39 -104 39q-72 0 -128 -52q-58 -52 -67 -126l-22 -184h119l-18 -147h-119l-164 -1330h-141z" />
<glyph unicode="&#xfb03;" horiz-adv-x="1141" d="M100 -22l164 1330h-103l18 147h103l22 186q18 132 120 225q104 94 235 94q112 0 176 -59q80 59 192 59q129 0 210 -94q11 -12 29 -37l-115 -101q-18 28 -26 37q-45 52 -116 52q-72 0 -128 -52q-58 -52 -67 -126l-22 -184h414l-181 -1475h-141l163 1328h-273l-165 -1330 h-141l164 1330h-226l-165 -1330h-141zM424 1455h226l22 186q13 93 57 151q-29 25 -88 25q-72 0 -128 -52q-58 -52 -67 -126z" />
<glyph unicode="&#xfb04;" horiz-adv-x="1126" d="M99 -22l164 1330h-102l18 147h102l22 186q18 132 120 225q103 94 233 94q111 0 174 -59q79 59 190 59q129 0 209 -94q10 -11 21 -27l-226 -1857h-139l163 1326h-279l-165 -1330h-140l164 1330h-224l-165 -1330h-140zM422 1455h224l22 186q13 93 57 151q-29 25 -87 25 q-71 0 -127 -52q-58 -52 -67 -126zM787 1455h279l39 323q-37 39 -103 39q-70 0 -126 -52q-58 -52 -67 -126z" />
</font>
</defs>
</svg>
