<?xml version="1.0" standalone="no"?>
<!DOCTYPE svg PUBLIC "-//W3C//DTD SVG 1.1//EN" "http://www.w3.org/Graphics/SVG/1.1/DTD/svg11.dtd" >
<svg xmlns="http://www.w3.org/2000/svg" xmlns:xlink="http://www.w3.org/1999/xlink" version="1.1">
<metadata>
Created by FontForge 20170731 at Thu Aug  5 15:16:25 2010
 By Aleksey,,,
2010 Iconian Fonts - www.iconian.com
</metadata>
<defs>
<font id="Aegis3D" horiz-adv-x="1056" >
  <font-face 
    font-family="Aegis 3D"
    font-weight="400"
    font-stretch="normal"
    units-per-em="1000"
    panose-1="0 0 0 0 0 0 0 0 0 0"
    ascent="800"
    descent="-200"
    x-height="816"
    cap-height="825"
    bbox="-151 -342 2377 1099"
    underline-thickness="50"
    underline-position="-175"
    unicode-range="U+0020-2122"
  />
<missing-glyph horiz-adv-x="500" 
 />
    <glyph glyph-name=".notdef" horiz-adv-x="500" 
 />
    <glyph glyph-name=".null" horiz-adv-x="0" 
 />
    <glyph glyph-name="nonmarkingreturn" horiz-adv-x="500" 
 />
    <glyph glyph-name="space" unicode=" " horiz-adv-x="500" 
 />
    <glyph glyph-name="space" unicode="&#xa0;" horiz-adv-x="500" 
 />
    <glyph glyph-name="FL0021h" unicode="!" horiz-adv-x="282" 
d="M21 815l-3 -556q0 -18 18 -25l29 -29q11 -11 38 -11q20 0 48 6t53.5 14.5t43.5 17.5t18 15l1 536l-36 36v8h-33q-2 0 -3 -0.5t-2 -0.5h-50zM144 805h34h20h11l-1 -518q0 -4 -16 -10t-38.5 -11.5t-47 -9.5t-42.5 -4q-25 0 -25 7l3 536zM205 181l-147 -1q-6 0 -13 -5
t-11 -10l-1 1q-6 -10 -9.5 -26t-5.5 -33.5t-3 -34.5t-1 -29v-56h7l37 -37q8 0 18.5 -0.5t21.5 -0.5h63q18 0 37 0.5t49 3.5q16 29 20 60t4 58v31q0 6 -1 14.5t-7 14.5l-30 30q-2 8 -8 14t-20 6zM205 159q6 0 7 -6t1 -11v-32q0 -26 -2.5 -52.5t-13.5 -46.5q-22 -2 -39.5 -2.5
t-35.5 -0.5h-34q-11 0 -24.5 0.5t-28.5 0.5v34q0 11 0.5 26t2.5 30t4.5 28.5t7.5 20.5q1 2 3.5 6t4.5 4z" />
    <glyph glyph-name="FL0022h" unicode="&#x22;" horiz-adv-x="494" 
d="M47 794q-2 0 -4.5 -3.5t-3.5 -5.5q-1 -3 -2 -11.5t-1 -22.5q0 -23 1.5 -53.5t2.5 -57.5q1 -17 1.5 -31t0.5 -21v-33q15 0 26 -0.5t22 -1.5q8 -1 15.5 -1.5t15.5 -0.5q9 0 17 1.5t16 3.5q6 2 13.5 3.5t19.5 2.5q4 11 7 36.5t5.5 54.5t3.5 55.5t1 38.5v32q0 5 -1 10.5
t-7 5.5zM268 793q-2 0 -4.5 -3.5t-3.5 -5.5q-4 -8 -4 -34q0 -23 1.5 -53.5t3.5 -57.5q1 -17 1.5 -31t0.5 -21v-33q14 0 25 -0.5t22 -1.5q8 -1 16 -1.5t16 -0.5q14 0 32 5q6 2 13.5 3.5t19.5 2.5q4 11 7.5 36.5t6 54.5t3.5 55.5t1 38.5v32q0 5 -1 10.5t-7 5.5zM417 816
q13 0 19 -6t8 -14l31 -29q6 -6 7 -14.5t1 -14.5v-31q0 -13 -1.5 -42t-4.5 -61t-7.5 -60t-10.5 -40q-21 -1 -32 -5q-2 -1 -4 -1t-4 -1q-8 -2 -17 -3.5t-21 -1.5q-8 0 -15.5 0.5t-14.5 1.5h-2q-11 1 -29 1.5t-35 0.5l-36 36h-2q-5 -24 -7 -27q-11 -2 -20 -2.5t-14 -2.5
q-2 -1 -4 -1t-4 -1q-8 -2 -16.5 -3.5t-20.5 -1.5q-8 0 -15.5 0.5t-15.5 1.5h-2q-10 1 -28 1.5t-35 0.5l-36 36h-8v55v13q0 9 -1 20v8q0 2 -0.5 4.5t-0.5 5.5v8q0 2 -0.5 4.5t-0.5 4.5q-2 24 -3 50t-1 45q0 17 2 28t4 16q5 7 13 14t14 7l149 1q14 0 20 -6t8 -14l13 -12l1.5 6
t1.5 4q5 6 13.5 13t14.5 7z" />
    <glyph glyph-name="E" unicode="#" horiz-adv-x="829" 
d="M15 693q3 -3 6 -3l1 -0.5t2 -0.5l36 -34q5 -2 9.5 -2.5t9.5 -2.5q8 -2 16.5 -4.5t16.5 -4.5q2 -8 2 -12v-649h8l37 -37h57q42 0 101 0.5t115 1.5q8 0 16.5 0.5t16.5 0.5q29 1 51 1h34q16 0 42.5 3.5t56 10.5t60 19t54.5 29.5t39.5 40.5t15.5 52l-38 37v2q0 1 0.5 3t0.5 3
h-86q-5 0 -10.5 0.5t-10.5 0.5h-31q-5 0 -8.5 0.5t-7.5 0.5h-15q-16 1 -32 1h-32q-5 0 -10 0.5t-10 0.5h-67q-4 0 -13.5 0.5t-20.5 2.5v142l212 29h2q5 1 14.5 6t13.5 8q7 5 16.5 14t19 18.5t17.5 18t11 12.5l2 2v50l-37 37v8h-271v144l5 5l-3 2q5 -1 23.5 0t41.5 3.5t47 5
t40 4.5h23h7h10h17l71 -70l2 2l37 -38l36 36v190l-37 36v8q-66 0 -138 -2t-135 -4q-62 -2 -124.5 -4t-129.5 -2h-45q-23 0 -46 1q-2 0 -4 -1.5t-3 -2.5l-2 -1t-4 -1q-3 -2 -5.5 -3.5t-10.5 -5.5q-4 -2 -8 -5t-10.5 -7t-16 -10.5t-24.5 -15.5v-2q-16 -11 -21.5 -18.5
t-5.5 -24.5v-6q0 -4 1 -4v-15zM37 711q0 2 -0.5 3.5t-0.5 3.5q0 10 4.5 15t15.5 13q2 1 13 8t28.5 17.5t28.5 17.5h-1q3 2 5 3.5t4 2.5q22 -1 43 -1h43q67 0 129.5 2t124.5 4q63 2 124.5 4t127.5 2v-166l-17 -17l-99 98q-14 1 -18 1h-10h-10q-3 0 -6.5 -0.5t-6.5 -0.5h-19
q-17 -2 -44 -5t-52.5 -6t-44.5 -6t-20 -4l-11 -11v-212h308v-26l-1 -1q-3 -3 -10 -11t-16 -17l-17.5 -17.5t-14.5 -12.5q-2 -2 -8.5 -5.5t-8.5 -3.5l-232 -29v-202q0 -3 8 -7.5t14 -5.5q4 -1 14.5 -3t22 -3.5t21.5 -2.5t13 -1h23q13 0 29 -0.5t35 -0.5h31q16 0 32 -1
q16 0 32 -0.5t31 -0.5q20 0 36 -0.5t28 -0.5h21q-1 -23 -15.5 -40.5t-37.5 -31t-50.5 -22.5t-55 -14.5t-51.5 -8t-39 -2.5t-46.5 -0.5t-71.5 -1.5q-27 0 -56.5 -0.5t-58 -1t-54.5 -0.5h-46h-41v627q0 23 -9 37t-23 22.5t-31.5 13t-35.5 8.5v1zM388 689l3 -1l-2 -2z" />
    <glyph glyph-name="FL0024h" unicode="$" horiz-adv-x="830" 
d="M421 843l-103 -3v-115h-73q-35 -3 -74 -10.5t-72 -24t-54.5 -43t-21.5 -66.5q0 -45 22 -83t59 -65l15 -15q19 -19 42 -33t48 -23l105 -27v-130h-34q-10 0 -19.5 0.5t-19.5 0.5t-64 11t-162 41v-160l7 -1l40 -40l1 4l4 -4q5 -5 13.5 -10.5t16.5 -6.5q40 -7 98 -10t116 -5
v-78h8l36 -36q12 0 42.5 3.5t62 10t55.5 14.5t24 17v75q51 6 101.5 19t90 37t64 60.5t24.5 90.5q0 32 -9.5 54.5t-26.5 39.5l-20 20h1q-13 22 -34 36.5t-48 24t-57.5 15.5t-61.5 11h1q-5 2 -10.5 3.5t-10.5 3.5v140q35 -6 69 -17t60 -26h9q19 0 35.5 15t33.5 35q18 23 35 40
l-13 33l-35 34l-2 9l-11 -4q-9 3 -23.5 6.5t-31 6.5t-32.5 5t-27 2h-64v74l-37 37v8h-74zM436 822h51v-119h123q12 0 29.5 -0.5t34.5 -1t29 -1.5l12 -1l8 -23q-7 -7 -13.5 -14.5t-12.5 -15.5q-15 -18 -29 -31.5t-27 -13.5h-3q-27 19 -69 30.5t-85 16.5v-210q3 -3 5 -3h1
q8 -2 15 -3.5t14 -3.5q10 -2 19 -4.5t19 -5.5q38 -6 74.5 -14t65 -23t46 -39.5t17.5 -63.5q0 -50 -25 -84.5t-64.5 -56t-89.5 -33t-101 -16.5v-92q0 -5 -19 -9.5t-43.5 -8.5t-49 -6.5t-35.5 -2.5v114q-32 0 -69.5 1t-74 2.5t-70.5 4.5t-59 7q-5 1 -14 2l-9 1v128
q91 -26 142 -35.5t62 -9.5q25 0 49 -0.5t45 -1.5v197l-166 43q-53 20 -88.5 61.5t-35.5 97.5q0 33 19.5 55.5t49.5 36.5t65 20.5t67 9.5h93v115l83 3zM260 544q0 -20 5.5 -33t15.5 -22t24.5 -15t31.5 -10v184q-36 -13 -56.5 -40t-20.5 -64zM552 259q0 40 -19 59.5t-51 28.5
v-168q36 5 53 21t17 59z" />
    <glyph glyph-name="FL0025h" unicode="%" horiz-adv-x="1125" 
d="M236 539q0 -24 2.5 -51.5t12.5 -52.5q5 -2 10.5 -2.5t11.5 -0.5q23 0 36.5 12.5t20.5 32t9 43.5t2 46q0 24 -2 48t-10 43q-9 3 -19 3q-25 0 -40 -10t-22.5 -27t-9.5 -39t-2 -45zM782 186q0 -24 3 -51.5t12 -52.5q5 -2 11 -2.5t13 -0.5q24 0 38.5 12.5t22 32t9.5 43
t2 46.5t-2 47t-10 44q-9 4 -22 4q-26 0 -41 -10t-23 -27t-10.5 -39t-2.5 -46zM177 578q0 28 2.5 53t12 44.5t28.5 31t51 11.5q33 0 51.5 -13.5t27.5 -35t11 -49t2 -54.5q0 -26 -2.5 -53.5t-11.5 -50t-27 -37.5t-49 -15q-32 0 -51 17t-29 42.5t-13 55t-3 53.5zM723 226
q0 28 3 53.5t12.5 45t29 31t52.5 11.5q34 0 53 -13.5t28.5 -35.5t11.5 -49.5t2 -55.5q0 -26 -2.5 -53.5t-12 -50.5t-28.5 -37.5t-51 -14.5q-33 0 -52 17t-29.5 42.5t-13.5 55t-3 54.5zM730 793l-77 24l-357 -813q9 -4 27.5 -11.5t38.5 -15t38.5 -13t27.5 -5.5q3 0 4 1
l352 805l-8 5h1q-5 2 -9 4t-9 4t-9.5 4.5t-8.5 4.5h1zM583 209q0 -52 16.5 -89.5t46 -62t70.5 -36.5t89 -12q56 0 102 14t79 42t51 70.5t18 100.5q0 47 -17.5 81t-47.5 56t-69 32.5t-82 10.5q-53 0 -99.5 -11t-81.5 -35.5t-55 -64t-20 -96.5zM36 556q0 -52 16.5 -89.5
t46 -62t70.5 -36t89 -11.5q56 0 102 14t79 42t51 70.5t18 99.5q0 47 -17.5 81t-47.5 56.5t-69 33t-82 10.5q-53 0 -99.5 -11t-81.5 -35.5t-55 -64.5t-20 -97zM748 809q4 -2 7.5 -4t5.5 -3q2 -2 3 -2q1 -1 4 -1q8 -4 14.5 -7t8.5 -4l21 -12l-3 -6l38 -38l-138 -313
q29 9 62 14t68 5q65 0 120 -22t85 -68l16 -16h1q25 -25 39 -58.5t14 -77.5q0 -62 -19.5 -108.5t-55 -77t-85 -45.5t-110.5 -15q-57 0 -104 15.5t-80 48.5l-15 15v-1q-23 14 -40 36t-28 49l-88 -200q-3 -5 -7.5 -8.5t-14.5 -3.5q-11 0 -32.5 6.5t-45.5 15.5t-45 17.5
t-30 12.5l-34 34q-2 1 -3.5 1.5t-2.5 1.5q-2 0 -4 0.5t-3 0.5l141 321q-25 -8 -52.5 -11t-58.5 -3q-57 0 -104 15.5t-80 48.5l-15 15v-1q-40 26 -62 71t-22 109q0 63 22 107t59.5 71.5t88 39.5t108.5 12q65 0 120 -22t85 -68l18 -17q11 -11 18.5 -22.5t14.5 -24.5l94 213
l100 -33z" />
    <glyph glyph-name="FL0026h" unicode="&#x26;" horiz-adv-x="931" 
d="M17 470v-14t-1 -15q-1 -11 -1 -24v-25q0 -30 4 -64t16.5 -68.5t36.5 -68.5t63 -65l10 -9q44 -44 115 -78l-1 1q10 -7 29.5 -14.5t44 -15t52 -14.5t54.5 -14q38 -9 67.5 -17t42.5 -15h106q25 0 49 2.5t41 10.5l-1 1q9 5 14.5 11t5.5 20q-2 13 -3 38.5t-2 57.5t-1.5 68.5
t-1.5 73.5v21q-1 26 -1.5 49.5t-1.5 45.5h27q21 -3 33 -5t19 -3t11 -1h12h9l39 20q16 8 16 28q0 11 -3 22.5t-6 21.5q-3 6 -3 9q0 8 -1 11t-7 11h-1l-3 6q-2 3 -3.5 7.5t-4.5 10.5q-1 2 -3 4q-2 1 -3 2.5t-2 2.5v2l-29 27v2q-1 2 -5 6q-1 0 -3 5h-1q-4 4 -6.5 6t-4.5 4
q-1 1 -1.5 2t-2.5 2h-89v60q0 3 -0.5 6t-0.5 7q0 19 3.5 36.5t15.5 34.5l17 86l-37 36l1 8h-18q-5 0 -10 0.5t-10 0.5h-56q-33 0 -62 -4t-58 -21q-17 -11 -27 -26.5t-14 -28.5l-7 14l-16 -38l-2 -171l-250 22h1q-20 9 -50 9q-26 0 -46.5 -8.5t-37 -22.5t-30 -33t-25.5 -41z
M39 469q20 38 47.5 65t70.5 27q23 0 44 -8l262 -23h15l2 188v-1l12 29l4 4t10.5 10t14 12t13.5 10q27 16 53 19.5t55 3.5h30q8 0 17 -0.5t20 -0.5l-12 -62l1 1q-14 -18 -17 -38t-3 -41v-24v-31q0 -18 0.5 -38t2.5 -40l142 -1l1 -2.5t3 -4.5l2 -6v1q6 -12 10 -18t7 -10
q2 -2 2 -3v-6q0 -2 1 -6t3 -9q3 -8 5.5 -19t2.5 -19q0 -7 -6 -11h1l-36 -19h-3h-10t-11 1t-19 3t-34 5h-48q1 -23 1.5 -52.5t1.5 -60.5q1 -39 1.5 -79t1.5 -75.5t2 -63.5t3 -42q0 -11 -12 -15q-12 -6 -33.5 -8t-44.5 -2h-99q-12 6 -43 14t-69 18q-27 7 -55 14t-52.5 14
t-43 14t-26.5 13q-63 29 -101 66t-57.5 77t-25.5 79.5t-6 73.5v25t1 23q1 8 1 15v14zM220 417q4 -13 5 -25t1 -23v-32q0 -12 0.5 -23.5t4.5 -21.5q9 -19 30 -36.5t46.5 -33t52 -29t46.5 -23.5l91 3l-5 234q-13 7 -19 7zM284 297v33q0 7 -0.5 14t-1.5 15l188 -3l4 -162
l-63 -2q-1 0 -2 1l-2 2q-26 13 -60 30.5t-60 37.5q-2 8 -2.5 16.5t-0.5 17.5zM877 495l1 2h1zM880 496q0 1 -1 1v-1h1z" />
    <glyph glyph-name="FL0027h" unicode="'" horiz-adv-x="271" 
d="M47 794q-2 0 -4.5 -4t-3.5 -6q-4 -6 -4 -33q0 -23 1.5 -54t3.5 -57q1 -17 1.5 -31t0.5 -21v-33q14 0 25 -0.5t22 -1.5q8 -1 15.5 -1.5t15.5 -0.5q9 0 16.5 1.5t15.5 3.5q6 2 13.5 3.5t18.5 2.5q4 11 7.5 36.5t6 54.5t3.5 55.5t1 38.5v32q0 4 -1 10t-7 6zM194 817
q14 0 20 -6t8 -14l30 -29q6 -6 7 -14.5t1 -14.5v-31q0 -13 -1.5 -42t-4.5 -61t-7.5 -60t-10.5 -40q-19 -1 -32 -5q-2 -1 -4 -1t-4 -1q-8 -2 -16.5 -3.5t-20.5 -1.5q-8 0 -15 0.5t-15 1.5h-2q-11 1 -28.5 1.5t-34.5 0.5l-36 36h-8v55v33v8q0 2 -0.5 4.5t-0.5 5.5v8
q0 2 -0.5 4.5t-0.5 4.5q-2 24 -3 50t-1 45q0 17 2 28t4 16q4 7 12.5 14t14.5 7z" />
    <glyph glyph-name="FL0028h" unicode="(" horiz-adv-x="577" 
d="M497 846q-101 -9 -184.5 -33t-152.5 -84q-70 -60 -108 -149t-38 -210q0 -99 34 -169.5t94 -118.5l12 -10q64 -65 158 -95t201 -30q30 20 41 42t11 36q0 19 -10 27l-30 28q-6 18 -20 21l-25 3h1q-36 17 -63.5 37t-48.5 40q-31 45 -42.5 93t-11.5 98q0 52 12.5 109t42 104
t77 77.5t117.5 30.5l-29 109l-35 35zM256 411q0 -45 9.5 -90t34 -87t66 -80.5t105.5 -70.5l30 -4h-1q6 -3 6 -14q0 -12 -8 -28t-30 -31q-87 0 -165.5 21t-138 65.5t-94 113.5t-34.5 164q0 116 36 201t102 142t141 80t165 31l20 -72q-68 -1 -115 -34t-75.5 -82.5t-41 -109.5
t-12.5 -115z" />
    <glyph glyph-name="FL0029h" unicode=")" horiz-adv-x="577" 
d="M369 713q-66 57 -141.5 80t-165.5 31l-18 -72q68 -1 114.5 -34t75 -82.5t41 -109.5t12.5 -115q0 -45 -9.5 -90t-34 -87t-66 -80.5t-105.5 -70.5l-29 -4q-6 -4 -6 -14q0 -12 8 -28t29 -31q87 0 166 21t138 65.5t94 113.5t35 164q0 116 -36 201t-102 142zM46 846
q101 -9 184.5 -33t152.5 -84q28 -25 52 -55l7 -6q60 -60 92 -143.5t32 -194.5q0 -100 -37 -172t-99.5 -119t-145.5 -69.5t-175 -22.5q-1 1 -2 1.5t-2 1.5q-11 7 -18 15l-20 20q-30 21 -41 43.5t-11 36.5t6.5 24t17.5 12l24 3h-1q61 30 100 66t62 75.5t32 81.5t9 84
q0 31 -4.5 64.5t-14 66t-24.5 62.5t-36 54v-1q-26 16 -56.5 26t-68.5 10l-36 36h-3q-1 0 -3.5 0.5t-3.5 0.5z" />
    <glyph glyph-name="FL002Ah" unicode="*" horiz-adv-x="565" 
d="M504 534q10 26 16 37t11 20q0 4 2 4q4 8 8 15t7 17t4.5 24.5t2.5 37.5l-37 37v13l-45 -30l-1 -1q-6 13 -8 23t-4 18v1q-6 20 -13 33.5t-24 34.5l-23 23l-3 4l-6 8q-2 2 -2.5 3.5t-2.5 3.5l-8 8l-15 -15l-2 11h-6l-7 -39l-2 -6v-7q0 -1 -1 -1v-1q-2 -4 -2 -5l-2 -2l-1 -2
l-13 15v8h-4l7 4h-21q-2 0 -3 1q-2 0 -3 1v1q-4 2 -10 4.5t-12 4.5q-3 0 -4 1v1q-45 23 -84 29h-25q0 -9 10.5 -26t18.5 -25l11 -20v-32l-41 40v-7q-9 3 -23.5 5t-36.5 2l22 -19q-5 -2 -11 -4.5t-12 -3.5q-20 -7 -36.5 -16.5t-16.5 -26.5q0 -11 5 -15q0 -2 0.5 -2.5
t3.5 -4.5l6 -2l-1 1l26 -25h-32l-2 -17v1q-1 -2 -1 -3t-1 -3l1 1q-3 -3 -3 -5q-1 -2 -1 -4q0 -1 -1 -1v-1l-2 -4t-1 -4q0 -1 -0.5 -1.5t-0.5 -1.5v1l-3 -6l1 1q-1 -1 -1 -3h-1q-11 -23 -21 -54.5t-21 -88.5l12 11l37 -37l34 33h1v1q0 -1 0.5 -1.5l0.5 -0.5q3 -3 5 -11
q5 -14 11 -27q7 -20 21.5 -48t43.5 -74v12l37 -36v73l6 26l5 -2l1 -1l35 -33q23 -10 34 -16t20 -11v1l1 -1q5 -4 6.5 -4.5t6.5 -2.5q11 -7 28 -11.5t61 -5.5l-31 47l-2 2q-4 7 -8 17t-4 12v33h4l37 -36h18v3h9v6q6 2 12.5 3.5t13.5 3.5q3 0 5 1q2 0 2.5 0.5t2.5 1.5h1
q9 2 16.5 4t17 7.5t22 15.5t30.5 28l-38 37l6 6l-53 11h33zM307 448q0 -4 5.5 -18t8.5 -19l3 -4l10 -16q-17 1 -27 5t-21 11l-8 4l-3 2q-6 4 -14.5 8t-30.5 14v109l-75 -76l-8 -32v-16q-8 13 -12.5 26.5t-9.5 27.5q-3 7 -6 13.5t-5 12.5q-3 6 -4.5 10t-6.5 12v0q0 1 -1 2
l66 68h-89l-26 -15l-15 -16q3 14 8.5 28t12.5 29h1q4 8 7 16t7 17q2 4 3 7.5t3 8.5v2h86l-59 59l-31 7l-1 3q0 5 12.5 11t26.5 12q14 4 25.5 9.5t19.5 8.5h-1q1 0 1.5 0.5t1.5 0.5q2 0 3 1l65 -65v91l-15 28l-9 6t-11 8q15 -3 30 -9t31 -13v-1q3 -1 15.5 -6l22.5 -9
q-3 0 2.5 -1.5t9.5 -3.5h1v-73l37 39q8 0 12 8t9 19q1 2 2 4.5t2 4.5v7l2 6l3 21q13 -17 18.5 -28.5t10.5 -27.5q0 -2 0.5 -3t0.5 -2q2 -8 5.5 -19t8.5 -27l-64 -65h85q4 0 18.5 6t20.5 10l19 11q-2 -18 -6.5 -28.5t-11.5 -23.5l1 1q-1 -1 -1 -2t-1 -2l-4 -4
q-4 -6 -8.5 -14.5t-13.5 -30.5h-95l62 -61q1 -2 6 -5t11.5 -6t13.5 -5.5t11 -2.5l20 -4q-16 -14 -27.5 -18t-27.5 -7q-3 -1 -11 -3q-9 -2 -19 -5t-20 -8v-2l-1 -1l-67 67v-84z" />
    <glyph glyph-name="FL002Bh" unicode="+" horiz-adv-x="558" 
d="M14 329v-11q5 -7 14 -9l29 -30q3 -4 10 -7.5t14.5 -6t13 -4t7.5 -1.5h2q1 1 2 1q7 2 18 6.5t19 10.5h41v-69q0 -8 8 -15.5t16 -11.5l24 -25q11 -11 17 -14q2 0 3 -1h1q14 -7 21.5 -10.5t10.5 -5.5q1 -1 2 -1t2 -1q7 -5 13 -8.5t13.5 -5.5t18.5 -3t28 -1q20 0 27.5 12.5
t7.5 28.5l-2 35q-2 4 -3.5 6t-6.5 10v81h98q6 0 13 9t11 15v1t1 2q7 13 12.5 23t11.5 18q4 7 7 13t4.5 13.5t2.5 18.5t1 28q0 15 -9 24l-31 30q-5 13 -16.5 18t-24.5 5h-8l-31 -9h-1q-2 -1 -3.5 -2t-8.5 -6h-30v50q0 6 -5 11l-32 32q-2 8 -11.5 14t-16.5 8q-14 5 -23 9
t-16 9q-17 10 -34 17.5t-40 7.5h-11q-4 -4 -8 -11.5t-7 -15t-5 -14t-2 -8.5v-7q0 -1 1 -5v-1q0 -1 1 -2q2 -19 8 -28v-67h-101q-11 0 -17.5 -10t-8.5 -18q-2 -3 -4.5 -8.5t-5.5 -12.5q-2 -4 -2 -7q-4 -10 -6 -14q-1 -1 -1 -3v1q-10 -17 -16.5 -35t-6.5 -43zM36 329
q0 21 6.5 37.5t14.5 32.5q5 10 10 19.5t8 20.5q2 5 5 11.5t2 6.5h123v98q-4 2 -5.5 9t-2.5 14q-1 3 -2 8.5t0 3.5v-1q0 2 2 12t6 15h3q19 0 33.5 -6.5t28.5 -14.5q17 -11 40 -19q4 -2 10.5 -4.5t6.5 -1.5v-112h91q2 0 10 4l12 6h-1l25 8h4q8 0 15.5 -3t7.5 -13q0 -15 -1 -25
t-3 -17.5t-5.5 -13.5t-7.5 -13h1q-5 -8 -10.5 -17.5t-12.5 -23.5v1q-2 -4 -5 -9t-2 -5h-117v-102q0 -2 4 -9.5t6 -11.5v2l2 -29q0 -9 -3 -16t-13 -7q-30 0 -40.5 3t-21.5 11q-8 5 -17.5 11t-23.5 13h1q-4 2 -9 5t-5 2v127h-108q-4 -5 -15 -10t-19 -7q-1 0 -1 -1h-1
q-2 0 -12 2t-14 6v3z" />
    <glyph glyph-name="FL002Ch" unicode="," horiz-adv-x="374" 
d="M148 156q-2 0 -3.5 -3l-2.5 -5q-4 -7 -13.5 -28t-21.5 -48t-24.5 -56.5t-23 -54.5t-17.5 -41.5l-7 -16.5v-18q15 0 28.5 -0.5t24.5 -0.5h35q17 0 35 0.5t41 2.5q4 9 14 29t21.5 45.5t24 53.5t23 53t17 44.5t6.5 28.5q0 5 -1 10.5t-7 5.5zM297 179q14 0 19.5 -6t7.5 -14
l31 -29q6 -6 7 -14.5t1 -14.5q0 -10 -7 -31.5t-18 -48.5t-24.5 -57t-26 -57t-22.5 -48t-14 -29q-31 -3 -50.5 -3.5t-38.5 -0.5h-64q-10 0 -20.5 0.5t-19.5 0.5l-36 36h-8v40l7 17t17.5 43t23.5 57t25 59t21.5 49.5t13.5 28.5q3 6 12 13.5t14 7.5z" />
    <glyph glyph-name="FL002Dh" unicode="-" horiz-adv-x="573" 
d="M36 264q4 -4 12.5 -6t12.5 -2q3 1 9 5.5t12 10t11 10.5t7 8l346 1q-1 0 2 5t5 9v-1q20 45 35 84t15 86q0 10 -7 13t-15 3h-5l-28 -20l-12 -6t-10 -4l-334 -1q1 0 -2 -6.5t-5 -10.5l-4.5 -13.5l-5.5 -16.5q-6 -17 -13 -37t-12.5 -39.5t-9.5 -37.5t-4 -31v-3zM14 267
q0 13 3.5 30t8.5 35.5t11 37t12 35.5q4 10 5 14q4 10 5 15q1 2 1.5 5t0.5 2l3 8q3 9 10 20.5t18 11.5l332 1q6 4 7.5 4.5t2.5 1.5h1l35 23h11q13 0 24.5 -5t16.5 -18l31 -30q9 -9 9 -23q0 -46 -14 -85t-34 -82q-2 -3 -2.5 -5.5t-2.5 -5.5q-3 -6 -9 -14.5t-14 -8.5l-338 -1
q-8 -10 -22.5 -21.5t-21.5 -13.5q-2 0 -8 1.5t-13.5 4t-15 6t-10.5 7.5l-29 29q-9 4 -14 10v11z" />
    <glyph glyph-name="FL002Eh" unicode="." horiz-adv-x="316" 
d="M91 155q-2 0 -4 -3t-3 -5q-6 -11 -14 -31.5t-16 -41.5t-13.5 -36.5t-5.5 -16.5v-17q15 0 28.5 -0.5t24.5 -0.5h34q18 0 36 0.5t40 2.5q7 12 15.5 29.5t16 36.5t12.5 36.5t5 30.5q0 5 -1 11t-7 6zM239 177q25 0 28 -19l30 -29q6 -6 7 -14.5t1 -14.5q0 -14 -6 -34
t-15 -41.5t-18.5 -41.5t-16.5 -34q-30 -3 -49.5 -3.5t-37.5 -0.5h-64q-11 0 -21 0.5t-19 0.5l-36 36h-8v39q0 1 5.5 18t13.5 39.5t17 44.5t15 33q3 6 11.5 13t14.5 7z" />
    <glyph glyph-name="FL002Fh" unicode="/" horiz-adv-x="653" 
d="M543 811l-146 51l-388 -856q0 -5 3 -5q2 -1 8 -3l34 -35q9 -5 37 -14.5t61 -19.5t63 -17t43 -7q6 0 11 3t9 7l369 817l-39 38l3 5l-24 14q-5 2 -20 10q-3 0 -4 1q-1 0 -3 2q-2 1 -4 1q-1 0 -3 1zM541 787h-1q4 -2 8.5 -4.5t9.5 -4.5t9 -4t9 -4h-1l8 -5l-361 -801
q-1 -1 -4 -1q-12 0 -38 6t-54.5 14.5t-53.5 16.5t-35 13l372 821l120 -41zM553 804q0 1 -1 1v0v-1h1z" />
    <glyph glyph-name="O" unicode="0" 
d="M14 406q0 -115 38 -196t105 -134l9 -7q63 -63 153.5 -93t201.5 -30q117 0 213.5 29t165.5 88t107 148t38 210q0 85 -26 148.5t-74 110.5l-7 8q-31 41 -72.5 71t-91.5 49.5t-106.5 29t-116.5 9.5q-111 0 -208.5 -23.5t-170.5 -75.5t-115.5 -136.5t-42.5 -205.5zM36 406
q0 115 40.5 195.5t110.5 130t164 72t200 22.5q87 0 166 -21.5t139 -66.5t95 -114t35 -163q0 -116 -36.5 -201.5t-103.5 -142t-160 -84.5t-205 -28q-96 0 -177.5 23.5t-141 73t-93 125t-33.5 179.5zM298 445q0 -36 3 -77t11 -81.5t23 -78.5t39 -66.5t59 -46t83 -17.5
q47 0 80.5 15t56.5 40.5t37 59t21.5 71.5t10 77.5t2.5 76.5q0 60 -4.5 120t-25.5 107.5t-64 77t-119 29.5q-72 0 -114.5 -25t-64.5 -67.5t-28 -98t-6 -116.5zM357 405q0 57 5.5 109t25.5 91.5t58.5 63.5t104.5 24q32 0 57 -6.5t45 -17.5v1q17 -23 26.5 -51.5t14.5 -61.5
t6.5 -68.5t1.5 -70.5t-2 -72t-9 -72.5t-19.5 -67t-33.5 -55t-51 -37.5t-71 -14q-33 0 -59 9.5t-46 26.5h1q-18 28 -28.5 62t-16.5 69.5t-8 71t-2 66.5z" />
    <glyph glyph-name="FL0031h" unicode="1" horiz-adv-x="705" 
d="M163 150q-15 -2 -31.5 -2.5t-36.5 -0.5l-87 -127l28 -22l18 -18l39 -33q107 7 177 9t119 2q28 0 52 -0.5t48 -1.5h7q8 0 16 -0.5t16 -0.5q24 -1 51.5 -1.5t61.5 -0.5h21q14 35 23 79.5t9 92.5l-37 37v8q-7 0 -20.5 -1t-21.5 -2h-38q-17 -3 -23.5 -6.5t-13.5 -10.5
q-2 -2 -10 -2q-1 8 -1 17v17q-1 9 -1 18v19l-4 104t-2 105v41q0 8 0.5 15t0.5 14v87l11 57l-14 14v1q0 18 -4.5 42t-23.5 44l-23 22q-11 21 -35.5 35.5t-70.5 14.5q-47 0 -77 2t-58 4q-27 2 -57 3.5t-76 1.5h-23q-6 -15 -14.5 -38t-16.5 -49.5t-13.5 -55.5t-5.5 -56h8
l36 -37q4 0 18 0.5t22 2.5q5 0 13 3t17 8q3 2 6 2.5t6 2.5l10 4q22 4 31 8q2 2 6.5 2.5t15.5 0.5v-469q-5 -1 -8 -1h-6q-16 -2 -21 -2t-13 -2zM233 136v533l-12 12h-5q-5 0 -15.5 0.5t-16.5 0.5q-23 0 -29 -1t-12 -3q-4 -2 -10 -3.5t-19 -3.5q-4 -1 -10.5 -4t-14.5 -6
t-15.5 -6t-9.5 -3q-2 -1 -8.5 -2t-11.5 -1q0 18 4.5 39.5t11 43t14 40.5t13.5 33h8q45 0 75 -1.5t57 -3.5q28 -2 58 -4t78 -2q34 0 54 -10t30 -25t12.5 -32t2.5 -31v-12q0 -9 0.5 -14.5t5.5 -5.5q3 0 4 1l-7 -35v-66q0 -14 -0.5 -27.5t-0.5 -27.5v-41q0 -54 2 -106t4 -105
q2 -30 2.5 -60.5t1.5 -62.5l7 -7h5q5 0 15.5 -0.5t15.5 -0.5q21 0 27 2.5t11 6.5q3 3 8.5 5.5t19.5 4.5h32q2 1 8.5 1.5t11.5 1.5q-2 -77 -25 -136h-8q-47 0 -81 1t-65 2q-26 1 -51 1.5t-56 0.5q-48 0 -116 -2t-175 -9l-21 18l68 101q16 0 30.5 0.5t29.5 2.5q6 1 9.5 1.5
t9.5 1t16.5 2t28.5 3.5h4z" />
    <glyph glyph-name="FL0032h" unicode="2" horiz-adv-x="834" 
d="M603 439q52 27 88 80t36 126q0 44 -20 72.5t-50 46t-65.5 26t-67.5 13.5h-37h-23q-9 0 -17 1q-9 0 -18 0.5t-22 0.5h-194q-11 0 -29 -1t-34.5 -2t-28.5 -2t-12 -2l-9 -29q5 -8 10.5 -14.5t10.5 -14.5q17 -26 33.5 -47t28.5 -21h3q26 24 60.5 37.5t67 21t57 9.5t30.5 2
q32 0 53 -10t33.5 -28.5t17.5 -45.5t5 -60q0 -28 -1.5 -45.5t-7 -28.5t-16.5 -17t-29 -12q-25 -7 -48.5 -12.5t-46.5 -10.5q-36 -8 -67.5 -16t-52.5 -19q-38 -8 -74.5 -18.5t-65 -30t-46 -51t-17.5 -81.5l-2 -245h698q3 0 7.5 3t9 6.5t8 7l5.5 5.5l-1 160
q-92 -33 -143 -44.5t-62 -11.5q-40 0 -93.5 -1t-103.5 -2q-35 -1 -65 -1.5t-45 -0.5l-4 99q0 41 12 65t32 37t45.5 18.5t52.5 10.5zM175 633l-8 -8v28q-18 8 -35.5 30.5t-33.5 48.5h1q-3 3 -7 11q-3 5 -6.5 8.5t-5.5 7.5h1q-2 0 -2 1t-1 2l1 -1q-2 2 -2 6l12 40l6 -2l1 -1
q8 3 23 7t32 7.5t33.5 6t28.5 2.5h194q4 0 7 -0.5t6 -0.5h28q8 -1 17 -1h22h39q26 -4 54 -10.5t55 -17t50 -26.5t39 -39l19 -20q20 -20 31 -45.5t11 -61.5q0 -39 -10 -73.5t-27.5 -63t-41.5 -50t-51 -35.5l-224 -80q-24 -5 -46.5 -9.5t-40 -15.5t-28 -31t-10.5 -54l2 -39h12
q7 0 15 1h12q3 0 6.5 0.5t7.5 0.5h34q9 0 17.5 0.5t17.5 0.5q35 1 68.5 1.5t59.5 0.5q11 0 66.5 13t160.5 51v-9l37 -37l1 -191l-6 -5.5t-14 -12t-16.5 -11.5t-13.5 -5h-714l-37 37h-8l2 267q0 57 19 93t50 57.5t70.5 33t80.5 19.5q21 11 46.5 17.5t54.5 13.5q1 0 9 2
q2 1 5 1t5 1q3 0 9 2q2 1 8 1v1q7 2 14 3.5t14 3.5q12 3 27 6t27 6v-1q11 5 17.5 10.5t10 14.5t4.5 22.5t1 34.5q0 50 -14 79q-14 6 -33 6q-6 0 -30 -2.5t-57.5 -11.5t-71.5 -26.5t-70 -47.5z" />
    <glyph glyph-name="FL0033h" unicode="3" horiz-adv-x="846" 
d="M771 101l-29 29l-3 6q-1 2 -2 3t-2 3l-25 25l-191 131l289 311v27q0 2 -9.5 15t-22.5 30.5t-27.5 35t-23.5 28.5l-3 3q-2 2 -3 4l-7 7l-5 4l-1 1q-4 5 -8 9.5t-7 8.5l-3 3l-7.5 7.5l-11.5 11.5l-11.5 11.5t-8.5 7.5h-109q-8 0 -15 -0.5t-15 -0.5h-189q-8 0 -15.5 0.5
t-15.5 0.5h-103q-6 0 -20 1t-30 2.5t-30 3.5t-20 3q-7 -2 -16.5 -10.5t-11.5 -12.5q-1 -3 -1 -4v-6v-5q0 -1 2 -7q7 -14 18 -28t23.5 -27.5t25 -25.5t22.5 -21h2l3 -3q10 -10 19 -18t17 -15q12 0 39 -2t59.5 -5t66 -6t59.5 -5q-9 -8 -18.5 -16t-19.5 -16q-9 -8 -18.5 -16
t-17.5 -16q-2 -2 -3 -2.5t-2 -1.5l-4 -4q-25 -22 -48.5 -42t-41.5 -37.5t-28.5 -30.5t-10.5 -20v-7q0 -3 1 -6h-4q22 -25 46 -48t50 -45q22 -20 44.5 -40t46.5 -40q8 -7 15.5 -13.5t15.5 -12.5q5 -5 10.5 -10t10.5 -10l17 -17q-32 -8 -66 -9.5t-66 -1.5h-81q-26 0 -52 2
l-52 4t-54 4t-70 2q0 -44 20 -77.5t50 -56.5l20 -19q20 -20 45.5 -35.5t52 -26t52.5 -15.5t48 -5h507q8 4 9.5 5t6.5 6l8 8q2 6 2 8v5l-1 2v7q-3 6 -11.5 22t-18.5 34t-19.5 34.5t-13.5 22.5zM772 11q-2 -2 -3 -3.5l-1 -1.5h-506q-30 0 -69 10t-73.5 29.5t-58.5 48.5t-25 66
q26 0 50.5 -2t50.5 -4l52 -4t53 -2h81q44 0 87.5 4t84.5 18q-35 38 -69 68.5t-68 59.5q-35 30 -69 59.5t-65 64.5q-1 0 -1 3v5q0 4 10 14.5t27 26t39 34.5t45 39q44 38 84.5 73.5t60.5 58.5q-3 1 -14 3.5t-23 4t-23 3t-14 1.5q-14 1 -50.5 4.5t-77.5 7t-77.5 6t-51.5 2.5
q-17 16 -41 39.5t-37 48.5l-1 4l1 4q1 2 3 4t4 3q7 -1 21 -2.5t29.5 -3t29.5 -2.5t20 -1h36q20 0 44.5 -0.5t53.5 -0.5h189q28 0 52 0.5t44 0.5h36l15.5 -15.5l13.5 -13.5q9 -11 22.5 -27t26 -31.5t21.5 -27t9 -12.5v-18l-307 -330l254 -177l20 -20q3 -5 11.5 -20.5
t18 -32.5t17.5 -33l11 -22v-2q0 -2 1 -3l-1 -3zM254 370q2 0 2 -1v0z" />
    <glyph glyph-name="FL0034h" unicode="4" horiz-adv-x="919" 
d="M499 388l8 63l-67 -64zM309 366l238 226l-27 -216q-14 -9 -18 -9zM321 541q-32 -30 -62.5 -59.5t-64 -57t-72 -54t-85.5 -51.5q20 -40 47.5 -66t69.5 -26q11 0 21.5 1t21.5 5l292 23h15l-13 -161l11 -30q3 0 7.5 -0.5t7.5 -2.5q14 -8 33 -17.5t26 -13.5h-1
q40 -19 81 -30.5t86 -22.5l24 -6h-1q8 0 11 4t5 9q1 2 1 4q0 1 1 4q-1 1 -4 4.5t-6 8.5q-6 7 -11 13t-5 8q-12 26 -19.5 58.5t-7.5 60.5v30q0 39 3 80l84 1q-1 0 1.5 5l4.5 9v-1q7 14 11 21t6 10l1.5 3t0.5 5q0 3 0.5 5t1.5 5q2 5 3 10t1 10q0 12 -7 16l-36 20h-1
q-2 0 -7 -3.5t-8 -5.5l-2 -1h-49q1 29 3 67t4.5 79.5l5 83t5 78t4.5 64.5l3 42q0 11 -12 16q-12 6 -33.5 8t-44.5 2q-19 0 -36 -1t-28 -2q-2 0 -3.5 -0.5t-3.5 -0.5q-17 -10 -33 -25.5t-32 -33.5q-11 -12 -20.5 -23t-20.5 -20q-53 -41 -95 -80.5t-80 -77.5zM21 337
q49 25 88.5 52t73.5 54.5t63.5 55.5t59.5 57q39 39 81 78.5t95 80.5q17 14 39 42q17 20 35 36.5t41 29.5h6q2 0 4 1h7q2 0 4.5 0.5t4.5 0.5q11 1 23.5 1.5t26.5 0.5q25 0 48 -2t38 -9q9 -4 15.5 -9t8.5 -15l30 -29q4 -5 6 -10.5t2 -14.5q-1 -18 -4 -56t-6 -86.5t-6.5 -101.5
t-5.5 -99q1 1 5 1h6l38 -20q14 -10 19 -20l35 -35h-1q4 -6 5 -11.5t1 -10.5q0 -6 -1 -11t-3 -10q0 -1 -0.5 -3t-0.5 -3q-1 -2 -1 -4q0 -6 -1 -9t-5 -9q1 1 0 -1l-2 -4q-2 -4 -5 -9t-8 -13q-3 -6 -9.5 -15t-14.5 -9l-66 -1q-2 -17 -1.5 -32t0.5 -30v-30q0 -23 6.5 -53
t17.5 -53q2 -6 3 -8.5t2 -4.5l8 -9q5 -8 7 -11t9 -17q-2 -4 -2.5 -7t-1.5 -5q-4 -10 -10.5 -17t-26.5 -7l-24 6l-8 2l-8 2q-41 9 -79.5 20t-76.5 30q-4 2 -9.5 5t-15.5 8q-8 5 -15 8.5l-15 7.5q-2 2 -6 3t-7 3h1q-20 10 -28 19l-27 26v-1q-20 12 -20 22q0 3 8 8l-2 7l8 103
l-239 -18h1q-21 -7 -45 -7q-29 0 -51 10.5t-40 28.5l-20 19q-21 14 -37.5 37t-30.5 52z" />
    <glyph glyph-name="FL0035h" unicode="5" horiz-adv-x="832" 
d="M59 -12q5 -5 16.5 -12.5t19.5 -9.5q30 -6 70.5 -10t83.5 -6t85 -3t74 -1q40 0 86 3.5t92 13t88.5 28t75 48.5t52 74t19.5 104q0 43 -13 75t-35 56l-3 2l-1 1q0 1 -1 2l-16 15q-16 24 -38.5 41.5t-48.5 29.5t-54.5 20t-56.5 14q-19 9 -41.5 13.5t-48.5 8.5h-5q-2 0 -3 1
q-3 1 -7 1q-3 0 -7 1q-22 3 -45 7t-46 10q-5 1 -15 5q-1 1 -4 1q-2 8 -2 17v21l-1 113l110 1h6q10 0 29.5 -1.5t45 -9.5t55.5 -24t61 -46v23q16 7 32 28.5t33 45.5q5 7 11 16t11 16q1 2 1.5 2.5t1.5 2.5l-10 35l-1 3l-37 35l-1 9l-8 -3q-8 3 -22.5 6.5t-31.5 7t-33.5 6
t-28.5 2.5h-492v-211q0 -61 21.5 -97t56.5 -62l15 -14q17 -17 38 -31t44 -26l205 -78q20 -4 40 -8.5t37 -12.5q13 -24 13 -56q0 -50 -18 -65.5t-58 -15.5q-26 0 -60 3h-7q-2 0 -3.5 0.5t-3.5 0.5h-9q-2 0 -4 0.5t-4 0.5q-26 2 -56.5 3t-65.5 1q-11 0 -66.5 13t-160.5 51
l-1 -191q0 -2 5 -7t12 -10zM207 443q-26 14 -48.5 29t-39.5 35t-27 46.5t-10 62.5v190h471q12 0 29.5 -1t34 -2.5t28.5 -2.5t12 -2l8 -29q-5 -8 -10 -14.5t-10 -14.5q-17 -26 -33 -47t-28 -21h-3q-24 22 -51 34t-51.5 18t-44 7t-29.5 1h-6l-129 -1l1 -132q0 -28 4.5 -45
t14 -28t23 -18t31.5 -13q28 -8 55.5 -12.5t53.5 -8.5q29 -5 53 -8.5t43 -14.5q38 -8 76 -20.5t68.5 -35t49.5 -56t19 -83.5q0 -56 -18.5 -96t-49.5 -68t-72 -45t-84.5 -26.5t-87.5 -12.5t-82 -3q-32 0 -73 1t-83.5 3t-82.5 6t-69 10q-5 1 -14.5 3.5t-9.5 3.5l1 161
q91 -33 142.5 -44.5t62.5 -11.5q41 0 75 -1.5t63 -3.5q22 -2 40.5 -3t34.5 -1q26 0 44.5 4.5t30.5 15.5t17.5 31t5.5 52q0 42 -13 66.5t-33.5 38.5t-47 20t-53.5 11z" />
    <glyph glyph-name="FL0036h" unicode="6" horiz-adv-x="858" 
d="M623 202q0 17 -7 42q-2 2 -2 5l-4 4t-7 8q-9 4 -20 8t-26 8h-238q5 -28 14.5 -54t25.5 -49q25 -23 57.5 -36t72.5 -13h4l98 6q5 14 11 23.5t11 17.5q4 5 7 12t3 18zM635 256q5 -18 7 -30.5t2 -23.5q0 -17 -5 -26t-10 -17h1q-5 -8 -10 -18.5t-9 -30.5l-117 -7h-5
q-52 0 -92.5 20t-69.5 52.5t-46 74.5t-22 86h263q25 -6 40.5 -12t26.5 -14t19 -18.5t17 -23.5q1 -1 4 -5t5 -6zM412 697q9 3 17.5 4t18.5 1q16 0 32.5 -2.5t39.5 -7.5q32 -7 77.5 -14.5t111.5 -10.5l11 139h-246q-69 0 -141 -19t-134 -60t-106 -107.5t-57 -160.5
q0 -116 36.5 -202t96.5 -155q61 -68 184 -96h-1q30 -3 49 -5.5t31 -4.5q18 -2 27.5 -3t25.5 -1h13t18 1q12 1 28 1q17 0 39 1h-1q71 13 110 28.5t58.5 33.5t24.5 38t8 43q2 14 3 27.5t1 27.5q0 29 -7.5 62t-25.5 73q2 0 3 -0.5l1 -0.5q0 4 -6.5 13t-17.5 21.5t-25.5 26.5
t-30.5 28q-11 9 -33.5 19.5t-69 19t-123 14t-196.5 5.5q0 44 9.5 76t27 56.5t42.5 43.5t56 39zM191 53q-11 8 -20.5 16t-17.5 18q-32 36 -57.5 76t-43.5 86t-28 98.5t-10 113.5q13 100 60 169.5t112 113t140.5 63.5t147.5 20h269l-1 -8l37 -36l-13 -176q-80 5 -129 12.5
t-82 14.5q-23 5 -39.5 7.5t-28.5 2.5q-16 0 -29 -4l-16 -6h1q-48 -31 -79 -61.5t-43 -77.5q102 -2 168.5 -9t108 -16t62.5 -19t32 -19q18 -16 34.5 -33.5t28.5 -32.5h2q25 -26 42 -49t17 -30v-1q17 -38 23.5 -69.5t6.5 -63.5q0 -15 -1 -29t-3 -28q-3 -25 -9 -48t-27 -43.5
t-63 -37.5t-118 -31q-8 0 -17 -0.5t-17 -0.5h-19q-8 0 -15 -1q-11 -1 -19 -1h-14q-17 0 -27 1t-27 3q-4 0 -7 0.5t-7 1.5h1q-12 2 -30.5 4t-41.5 4q-57 14 -102.5 37t-77.5 55z" />
    <glyph glyph-name="FL0037h" unicode="7" horiz-adv-x="872" 
d="M12 24l18 -40h6l36 -37l240 -8l549 793v49l-37 36v8h-714q-4 0 -15.5 -25.5t-24 -60t-22.5 -68.5t-10 -52h8l36 -37h55q38 46 92 60.5t113 14.5q20 0 40 -1t40 -3q4 0 7.5 -0.5t7.5 -0.5zM480 675q3 3 6.5 11t4.5 10q0 4 -1 6q0 -1 -3 4q-18 0 -38.5 1t-42.5 3
q-25 2 -51 3.5t-53 1.5q-62 0 -118.5 -14.5t-94.5 -59.5h-29q1 15 7.5 42.5t15 54.5t16.5 46.5t11 19.5h692v-27l-540 -779l-217 8l-9 17z" />
    <glyph glyph-name="FL0038h" unicode="8" horiz-adv-x="916" 
d="M67 -45q5 -5 6.5 -6t8.5 -5l460 1h8h6q4 0 7 1h-1l317 3q8 4 9.5 5t6.5 6l8 8q2 6 2 8v5l-1 2v7l-210 437l180 181v26q0 1 -9.5 14.5t-22 30.5t-26 35t-22.5 29l-4 4l-5.5 5.5t-6.5 7.5l-10 9l-9 12l1 -1q-1 2 -2 2.5t-2 2.5q-2 2 -6.5 7t-10.5 10.5t-11.5 11t-8.5 7.5
h-33q-2 0 -2.5 0.5t-1.5 0.5h-42q-4 0 -7.5 0.5t-7.5 0.5h-182q-2 0 -4 -0.5t-4 -0.5h-205q-2 0 -4 0.5t-3 0.5h-49q-3 -2 -8.5 -7.5t-11.5 -11t-11 -10.5t-6 -7q-9 -11 -23 -29t-26.5 -36t-22 -32t-9.5 -15v-26l173 -186q-52 -91 -86.5 -158t-57 -115t-34.5 -78.5
t-19 -49.5q-1 -2 -1 -4v1q-7 -19 -16 -32v-3q0 -1 -0.5 -1.5t-0.5 -1.5v-6v-6q0 -1 2 -7l9 -9q5 -5 7 -6.5t8 -4.5zM838 8l-320 -3q-2 -1 -7 -1h-8l-459 -1l-1 1.5t-3 3.5l-3 3l-1 4v2v2q5 7 8.5 15t8.5 21q7 19 19.5 50t35 79.5t58.5 117t91 163.5l-180 192v18
q0 1 8.5 12.5t20.5 27t25 31.5t22 27q1 1 4.5 5t8 8.5t8.5 9t6 6.5h27q5 0 10.5 -0.5t12.5 -0.5h186q6 0 12.5 0.5t14.5 0.5h182q14 0 23.5 -0.5t17.5 -0.5h16q5 0 8.5 -0.5t7.5 -0.5h14q5 -5 15 -15.5t13 -13.5q9 -11 22 -27t25 -31.5t20.5 -27t8.5 -12.5v-18l-184 -185
l213 -446v-2q0 -2 1 -3l-1 -3l-3 -3q-2 -2 -3 -3.5zM441 379q-38 -26 -63.5 -65.5t-48.5 -82.5q-6 -11 -13 -24t-14 -24q29 -11 63.5 -15t71.5 -4t73 4.5t68 13.5q-10 17 -18 32t-15 30q-20 41 -42 78t-58 58zM437 690q-3 0 -27 -2t-52.5 -4t-52 -4t-26.5 -3q29 -31 75 -72
t91 -80l16 14l16 14q39 35 76.5 68t60.5 58zM524 235q3 -8 8 -17.5t11 -20.5q-27 -5 -54 -8t-52 -3h-25t-25 1q19 36 40.5 70t50.5 59q12 -16 21.5 -33.5t19.5 -35.5q1 -2 2 -6t3 -7v1zM462 569q-4 -4 -7.5 -7t-7.5 -6h-1l-2 -2l-7 7l-21 18q-14 11 -27.5 22.5t-25.5 22.5
q15 1 33.5 2.5t35 2.5t29 2t15.5 1l54 -4q-8 -8 -17 -16t-19 -16q-8 -7 -16 -13.5t-16 -13.5z" />
    <glyph glyph-name="FL0039h" unicode="9" horiz-adv-x="815" 
d="M451 -11h8l36 -37h22q25 0 42 -0.5t31 -1.5h4q10 -1 19 -1.5t17 -0.5q17 0 35.5 2t45.5 7h1q5 1 12 5l14 8t11.5 8t4.5 5v646q0 22 4.5 31t18.5 26q2 3 5 6t6 8q4 5 8.5 11.5t8.5 11.5l-12 37l-35 35l-3 9l-6 -2q-11 6 -33 15t-47 9h-132q-5 0 -9 0.5t-9 0.5h-139
q-4 0 -8 -0.5t-9 -0.5h-103q-38 -5 -81.5 -15t-80 -29.5t-60.5 -52t-24 -83.5q0 -39 13 -80.5t35 -80.5t51 -73t60 -57l7 -6q37 -39 75 -57q48 -24 94 -36.5t96 -19.5zM465 290q-63 6 -122.5 18.5t-119.5 41.5q-33 15 -66.5 47.5t-60.5 73.5t-43.5 87t-16.5 88q0 44 22 72.5
t55.5 46t73.5 26.5t75 14h101q16 0 31.5 0.5t30.5 0.5h94q18 0 35.5 -0.5t34.5 -0.5h80q25 0 45.5 -4.5t20.5 -6.5l9 -29q-6 -8 -11.5 -15t-8.5 -12q-9 -11 -14.5 -18t-8.5 -14t-4 -16t-1 -22v-645q0 -1 -11 -3.5t-18 -3.5q-27 -5 -44.5 -7t-31.5 -2q-10 0 -19.5 0.5
t-20.5 1.5q-14 1 -31.5 1.5t-42.5 0.5h-5zM463 741h-16q-5 0 -9.5 0.5t-6.5 0.5q-71 0 -112 -38t-41 -105q0 -42 15 -81t40.5 -69.5t59 -50.5t70.5 -23v366zM336 559q0 51 28 81.5t78 38.5v-278q-20 5 -38 14.5t-33 23.5h1q-17 26 -26.5 57t-9.5 63z" />
    <glyph glyph-name="FL003Ah" unicode=":" horiz-adv-x="285" 
d="M61 157q-2 0 -4.5 -4t-3.5 -6q-5 -7 -7.5 -20t-4.5 -28t-2.5 -30.5t-0.5 -25.5v-34q15 0 28.5 -0.5t24.5 -0.5h34q18 0 35.5 0.5t39.5 2.5q11 20 13.5 46.5t2.5 52.5v32q0 4 -1 10t-7 6zM58 498q-2 0 -4.5 -4t-3.5 -6q-5 -7 -7.5 -20.5t-4.5 -28.5t-2.5 -30t-0.5 -26v-34
q15 0 28.5 -0.5t24.5 -0.5h34q18 0 35.5 0.5t39.5 2.5q11 20 13.5 47t2.5 52v32q0 5 -1 11t-7 6zM208 180q14 0 20 -6t8 -14l30 -29q6 -6 7 -14.5t1 -14.5v-32q0 -26 -4 -57t-20 -60q-30 -2 -49 -2.5t-37 -0.5h-63q-11 0 -21.5 0.5t-18.5 0.5l-37 36h-7v56q0 12 1 29t3 34.5
t5.5 33.5t9.5 25l1 -1q4 5 11 10t13 5zM205 521q14 0 20 -6t8 -14l30 -30q6 -6 7 -14.5t1 -14.5v-31q0 -27 -4 -57.5t-20 -59.5q-30 -3 -49 -3.5t-37 -0.5h-63q-11 0 -21.5 0.5t-18.5 0.5l-36 37h-8v55q0 12 1 29t3 34.5t5.5 33.5t9.5 26l1 -1q4 5 11 10t13 5z" />
    <glyph glyph-name="FL003Bh" unicode=";" horiz-adv-x="341" 
d="M264 181l-148 -1q-6 0 -15 -7t-12 -13q-4 -8 -11 -29t-15 -48.5t-17 -57.5t-16 -55.5t-11.5 -41.5t-4.5 -17v-40h8l36 -37q9 0 19 -0.5t21 -0.5h64q18 0 38 0.5t50 3.5q4 9 11.5 30t16.5 47t18.5 55.5t17 56t12 47.5t4.5 30q0 6 -1 14.5t-7 14.5l-31 30q-1 8 -7 13.5
t-20 5.5zM113 520q-6 0 -13 -4.5t-11 -9.5l-1 1q-6 -10 -9.5 -26t-5.5 -33.5t-3 -34.5t-1 -29v-56h8l36 -37q9 0 19 -0.5t21 -0.5h64q17 0 36.5 0.5t49.5 3.5q16 29 20 60t4 57v32q0 6 -1 14.5t-7 14.5l-30 30q-3 19 -28 19zM264 160q6 0 7 -6t1 -11q0 -14 -9 -49
t-21.5 -74.5t-25 -74.5t-18.5 -50q-22 -2 -40 -2.5t-35 -0.5h-35q-11 0 -24.5 0.5t-28.5 0.5v18l4.5 16t11.5 40.5t15 53t16.5 55t15.5 47.5t11 28q1 2 3 5t4 3zM261 500q6 0 7 -6t1 -11v-32q0 -26 -2.5 -52.5t-13.5 -46.5q-22 -2 -40 -2.5t-35 -0.5h-35q-11 0 -24.5 0.5
t-28.5 0.5v34q0 10 0.5 25.5t2.5 30.5t4.5 28.5t7.5 20.5q1 2 3.5 6t4.5 4z" />
    <glyph glyph-name="FL003Ch" unicode="&#x3c;" horiz-adv-x="665" 
d="M267 66q11 -14 23 -26t27 -23l11 -11q13 -13 26 -23.5t28 -18.5q50 -25 116 -37.5t125 -12.5h10q10 12 11.5 14t2.5 4l3 6q3 9 3.5 11t0.5 6q0 2 -0.5 3.5t-2.5 8.5l-35 34v1q-1 1 -1 2t-0.5 2t-0.5 2l-59 59l-217 305l216 227v175q0 3 -5 8.5t-10 12.5l-23 22
q-2 7 -13.5 19t-19.5 17q-4 1 -9 1h-6q-1 0 -7 -2l-285 -296l-168 -179zM191 542l279 289l4 1l4 -1q5 -3 11 -9t6 -8v-168l-221 -233l232 -327l88 -88l1 -3q0 -2 -1 -5l-4 -10q-4 -6 -4 -8h-2q-28 0 -59 3.5t-61.5 9.5t-59.5 15.5t-53 21.5q-21 11 -37.5 26.5t-31.5 31.5
l-245 297z" />
    <glyph glyph-name="FL003Dh" unicode="=" horiz-adv-x="568" 
d="M16 380v-11q5 -6 14 -10l28 -28q1 -4 7 -8q-2 -5 -4 -8.5t-3 -6.5q1 4 -0.5 1.5t-3.5 -8t-4 -11.5l-3 -9l-2 -4l-2 -6q-1 -2 -1 -3t-1 -3q-11 -22 -19 -45t-8 -49v-11q5 -6 14 -10l29 -30q3 -3 10.5 -6.5t15 -6t13.5 -4t8 -1.5q7 2 21 13t23 21l338 1q8 0 14 9t9 15
q5 12 10 21t9 17h2q6 10 10.5 18.5t8 18.5t5 23t1.5 31q0 15 -9 24l-31 30q-2 5 -5 8t-7 6q3 3 6 9q1 2 1 1l1 2q5 12 10 21.5t9 17.5h2q6 10 10.5 18.5t8 18t5 22.5t1.5 32q0 11 -5 18h1l-3 3l-3 3h-1l-29 29q-5 14 -16.5 19t-24.5 5h-11l-35 -24h-1q-1 -1 -2.5 -1.5
t-7.5 -4.5l-332 -1q-11 0 -17.5 -10.5t-9.5 -18.5q1 4 -0.5 1.5t-3.5 -7.5t-4 -11l-3 -9q-1 -2 -1 -3l-1 -2l-2 -6q-1 -2 -1 -3t-1 -3q-11 -22 -19 -45t-8 -49zM38 380q0 22 7.5 43.5t17.5 42.5q5 11 10 21t7 20q2 5 5 11t2 6l334 1q2 0 10 4l12 6l28 20h5q8 0 15 -3t7 -13
q0 -16 -1.5 -27t-4 -20t-6.5 -16.5t-9 -16.5q-5 -8 -10.5 -18t-11.5 -23v1q-2 -4 -5 -9t-2 -5l-346 -1q-2 -3 -7 -8.5t-11 -11t-12 -10t-9 -5.5q-4 0 -12.5 2t-12.5 6v3zM36 171q0 21 7.5 43t17.5 43q5 11 10 20.5t7 19.5q2 5 5 11.5t2 6.5l334 1q2 0 10 4l12 6l28 20h5
q8 0 15.5 -3t7.5 -13q0 -32 -5.5 -47t-16.5 -33q-5 -8 -10.5 -18t-11.5 -24v1q-2 -4 -5 -8.5t-2 -4.5l-346 -1q-2 -3 -7 -8.5t-11 -11t-12 -10t-9 -5.5q-4 0 -12.5 2t-12.5 6v3zM427 344q-1 -1 -2.5 -1.5t-7.5 -4.5l-276 -1l9 9l282 1l-4 -3h-1z" />
    <glyph glyph-name="FL003Eh" unicode="&#x3e;" horiz-adv-x="665" 
d="M594 377l-154 165l-279 289l-3 1l-4 -1q-5 -3 -11.5 -9t-6.5 -8v-168l221 -233l-232 -327l-88 -88l-1 -3q0 -2 1 -5l5 -10l2 -4l2 -4h2q27 0 58 3.5t61.5 9.5t59.5 15.5t53 21.5q21 11 37.5 26.5t31.5 31.5zM622 376l37 -39l-257 -309q-16 -18 -33.5 -35t-40.5 -29
q-24 -12 -54 -21.5t-62 -16t-64 -9.5t-61 -3h-10l-36 36h-4l-16 21l-3 6q-3 9 -3.5 11t-0.5 7q0 3 0.5 4.5t2.5 8.5l89 89v1l222 313l-214 227v176q0 3 3.5 8t9 11t11.5 11.5t11 8.5q4 1 9 1h4q2 0 8 -2l285 -296l168 -179z" />
    <glyph glyph-name="FL003Fh" unicode="?" horiz-adv-x="739" 
d="M24 590q1 0 1 1zM110 156q-2 0 -4.5 -4t-3.5 -6q-5 -7 -7.5 -20.5t-4.5 -28.5t-2.5 -30t-0.5 -26v-34q15 0 29 -0.5t25 -0.5h35q5 0 11.5 -0.5t13.5 -0.5t13.5 -0.5t13.5 -0.5h18t18 1q11 20 13.5 47t2.5 53v32q0 5 -1 11t-7 6zM272 176q14 0 19.5 -6t7.5 -14l31 -30
q6 -6 7 -14.5t1 -14.5v-31q0 -27 -4 -58t-20 -60q-13 -2 -26 -2.5t-20 -0.5h-14q-4 0 -7 0.5t-6 0.5q-4 0 -7.5 0.5t-6.5 0.5h-76q-11 0 -21.5 0.5t-19.5 0.5l-37 37h-8v56q0 12 1 29t3 34.5t6 33.5t10 26l1 -1q4 5 11 10t13 5zM162 399q-26 -13 -39.5 -23.5t-20.5 -25
t-8 -36t-1 -55.5l178 -3q7 5 7 13q0 4 -3 12q-4 10 -4 15q0 10 6.5 18t16.5 13.5t21.5 10t21.5 7.5l-1 -1q34 26 74.5 37.5t82.5 19.5q34 7 66 15.5t56.5 25t39 44t14.5 72.5q0 84 -26 133t-68 74.5t-96 33t-111 7.5q-32 0 -73 -1t-83.5 -3t-82.5 -6t-70 -10q-5 -1 -14 -3.5
t-9 -3.5l1 -162q91 33 142.5 44.5t62.5 11.5q14 0 29.5 0.5t30.5 1.5l34 2t34 1q42 0 71.5 -10.5t29.5 -41.5q0 -21 -11 -44q-10 -23 -26.5 -38t-35.5 -25.5t-37.5 -17t-31.5 -10.5q-9 -3 -14.5 -4.5t-7.5 -3.5zM161 423l135 78l-1 -1q5 6 7 5.5t6 1.5q1 0 1.5 0.5t1.5 0.5
h-1l12 4q12 3 29 9t33.5 15t31 22t23.5 32q3 8 5.5 15t3.5 12q-18 3 -38 3q-11 0 -21.5 -0.5t-21.5 -1.5q-6 0 -12 -0.5t-12 -0.5q-16 -1 -32 -1.5t-29 -0.5q-11 0 -65 -13t-157 -51l-38 38q-3 -1 -7 -1l-1 191q0 1 4 5t9.5 8.5t12 8t12.5 5.5v2q29 6 70 9.5t84.5 5.5t86 3
t75.5 1q42 0 82.5 -3t76.5 -13.5t67 -29.5t53 -51l16 -16q30 -30 47.5 -77t17.5 -119q0 -51 -16 -82t-42 -49t-61 -27.5t-72 -16.5q-2 -1 -4 -1t-4 -1q-39 -8 -77 -18.5t-67 -34.5q-2 -1 -3 -1l-2 -1q-17 -6 -34 -13t-17 -17q0 -2 3 -8q4 -8 4 -19q0 -8 -5 -16t-16 -15
l-199 3l-37 36h-8q0 46 1.5 74.5t10 47.5t26.5 33t52 32v-1z" />
    <glyph glyph-name="FL0040h" unicode="@" horiz-adv-x="913" 
d="M377 109l4 4q3 -4 7 -8l-4 -4zM460 475l40 -91l-108 3zM554 618l32 -32l90 -177q8 32 14.5 66t6.5 66q0 24 -4.5 47.5t-15.5 43.5q-24 11 -53.5 14.5t-55.5 5.5q-2 0 -3.5 0.5t-3.5 0.5q-5 0 -8.5 0.5t-7.5 0.5q-12 0 -17 1l-95 -4q-63 0 -100.5 -30.5t-57 -77.5
t-25.5 -104t-6 -109q0 -29 7 -51q23 31 34.5 55.5t21.5 49.5l1 1q0 2 1 3q1 4 5 12q5 13 10.5 28t15.5 33l41 79l2 6q0 3 1 4l2 4v-1q0 2 1 3v0q0 1 1 2v1q1 0 1 1q0 3 3 8q12 23 30 35t38 22v1q11 6 26.5 11.5t31.5 5.5q14 0 25 -11l3 1zM328 376q-10 -25 -21.5 -49
t-33.5 -55v-16q0 -2 13.5 -7t21.5 -5h4q1 0 1.5 -0.5t1.5 -0.5h24q5 0 10 1l8 8l41 58l-1 -1q5 9 15.5 11t24.5 2h10h16q9 0 18 1q3 0 5.5 0.5t4.5 0.5h7l24 2q11 0 24.5 -14.5t18.5 -36.5q1 -3 1.5 -5.5t1.5 -5.5q4 -12 7 -20t11 -8h148q6 0 11 8l-1 -1l5 10l2 -3
q4 3 19 39.5t31 90.5t29 116.5t13 117.5q0 28 -4.5 52t-15.5 43v-1q-5 8 -24.5 26.5t-52 37.5t-77.5 34t-101 18h-83q-45 -4 -86.5 -11t-80.5 -19.5t-74.5 -32t-68.5 -48.5q-66 -57 -102.5 -142t-36.5 -201q0 -95 35 -164t94.5 -113.5t138.5 -65.5t167 -21h206l1 110
q-64 -2 -103 -5.5t-62 -6.5q-17 -2 -28.5 -3t-22.5 -1q-12 0 -24 1t-28 5l-4 1l-18 7q-33 21 -68.5 46.5t-65 56.5t-49 69t-19.5 84q0 37 2.5 76.5t10 77t21.5 71.5t37 59t56.5 40t79.5 15l98 4q7 -1 15 -1t16 -1q19 -1 41 -3t43.5 -6t40.5 -12t33 -21q22 -26 30.5 -59
t8.5 -69q0 -29 -4 -58t-10.5 -56.5t-14 -52t-14.5 -43.5l-144 280h-1q-3 10 -13 10q-11 0 -23.5 -4.5t-21.5 -9.5q-21 -11 -39 -22t-24 -26h1q-2 -5 -3.5 -10t-3.5 -10l-3 -9l-38 -74q-12 -23 -20 -42.5t-15 -37.5zM271 236q4 -8 9 -12q26 -26 59 -48.5t64 -42.5h-1l9 -4
q20 -5 31.5 -6t19.5 -1q11 0 21.5 1t27.5 3q20 3 62.5 6t126.5 6v-8l37 -37l-1 -146h-225q-106 0 -199 30t-156 94l-8 6q-62 48 -98 120t-36 173q0 121 38.5 210t108.5 149q69 60 149 84t174 32l84 1q61 -3 109.5 -20t83.5 -38t55.5 -40.5t26.5 -28.5q0 -1 0.5 -2.5
t0.5 -2.5l19 -18q8 -8 12 -12.5t6 -7.5q21 -38 21 -102q0 -50 -12 -106t-28.5 -107t-34 -92t-27.5 -60l6 -6l-2 -3q-15 -22 -30 -22h-148q-8 0 -12.5 2.5t-9.5 5.5l-32 31l1 -1q-14 3 -18.5 14.5t-8.5 26.5l-3 8h-6h-7q-2 0 -3 -0.5t-2 -0.5h-5q-8 -1 -17 -1h-16h-10
q-19 0 -19 2l-44 -60l-19 -19q-4 -1 -9 -1h-8h-25q-4 0 -4 1h-1q-5 0 -12.5 3t-15 6.5t-14 8t-9.5 7.5z" />
    <glyph glyph-name="FL0041h" unicode="A" horiz-adv-x="1085" 
d="M14 37v-32q0 -5 13 -11l32 -32q3 -2 11.5 -6t20 -8t22.5 -6.5t19 -2.5h21q2 0 3.5 -0.5t3.5 -0.5h33q4 0 7.5 0.5t6.5 0.5h11l19 19l79 159q7 14 32.5 23t59.5 14.5t70.5 8.5t66.5 5q7 1 13 1h11l47 3q7 -18 14 -40.5t14 -44.5q1 -3 2 -6.5t2 -5.5q9 -34 18.5 -59
t25.5 -29l31 -31q7 -7 16 -7h308q6 0 11.5 5t10.5 11v1h2q2 9 2.5 10.5t0.5 3.5q0 14 -8 22l-31 30q-3 9 -9.5 14t-14.5 8l1 -1q-1 0 -1.5 0.5t-1.5 0.5v2q-6 2 -7.5 3t-6.5 4l-2 -2q-1 0 -1 2q-18 22 -33 47.5t-26 50.5l-290 618h-1q-2 3 -3.5 5.5t-3.5 5.5l-28 28
q-8 16 -16.5 18.5t-19.5 2.5q-22 0 -48 -10t-45 -19q-3 -1 -7 -3q-23 -10 -37 -22.5t-23.5 -27t-15.5 -31t-12 -34.5q-1 -3 -1 -7v-4q0 -2 -3.5 -9.5t-14.5 -31.5l-15 -30q-13 -25 -28.5 -56t-26.5 -52l-9 -18q-2 -2 -3 -3.5t-6 -8.5h4q-61 -112 -125 -222t-138 -207z
M304 471q2 3 4.5 9t6.5 14l17 34t20 39.5t18.5 36.5t13.5 26q8 15 11.5 29t8.5 26q10 33 24.5 59t52.5 43q17 8 43.5 19.5t46.5 11.5q6 0 9.5 -1t6.5 -8l288 -616q19 -39 47 -80t63 -70q9 -6 12 -7l12 -6t6 -10l-1 -4l1 1q-1 -1 -1.5 -2t-1.5 -2q-3 -5 -5 -5h-308
q-7 0 -14 21.5t-16 51.5q-7 25 -15.5 51t-18.5 48t-23 36t-29 14h-2l-52 -3h-12q-6 0 -13 -1q-32 -2 -70.5 -4.5t-74.5 -9t-63.5 -18t-36.5 -29.5l-80 -159l-8 -8h-4q-5 0 -13.5 -0.5t-13.5 -0.5h-12q-4 0 -7.5 0.5t-7.5 0.5h-21q-6 0 -15.5 1t-18.5 2t-15.5 2.5l-6.5 1.5
v29q78 104 143 214.5t125 222.5zM337 338q0 -2 1 -6q1 -3 6.5 -7.5t6.5 -4.5h208l-96 222l-17 17l-108 -215q-1 -4 -1 -6zM475 455l49 -113h-106z" />
    <glyph glyph-name="FL0042h" unicode="B" horiz-adv-x="905" 
d="M9 756l5 -2.5t8 -2.5l34 -34q5 -2 8.5 -3t8.5 -3q8 -4 16.5 -7t16.5 -8q7 -14 7 -28v-645q0 -7 17 -15l28 -28q3 -3 16.5 -11.5t22.5 -10.5l1 -1q38 -8 69.5 -10t66.5 -2h24q6 0 11.5 0.5t12.5 0.5h54q44 0 95 3.5t102 13t98 28t83.5 48.5t58 74t21.5 104q0 42 -12.5 72
t-34.5 52l-18 18q-17 25 -43 42.5t-58 28.5q26 14 49 30.5t40 37.5t27 47t10 61q0 34 -11 58.5t-30 43.5l-3 2l-16 18q-17 25 -43.5 42t-56.5 28t-62 17.5t-61 10.5h-104q-5 0 -9 0.5t-8 0.5h-138q-5 0 -9.5 -0.5t-9.5 -0.5h-131q-13 0 -31.5 -2.5t-37 -6t-34.5 -7t-25 -6.5
l-8 3zM46 797q0 1 13.5 2t32 2.5t38 2.5t32.5 1h80q17 0 34.5 0.5t35.5 0.5h94q14 0 29.5 -0.5t31.5 -0.5h102q35 -5 75 -14t73.5 -26.5t56 -46t22.5 -72.5q0 -40 -15 -68.5t-39.5 -49.5t-55.5 -37t-63 -31q-4 -2 -8.5 -4t-8.5 -4v-15q43 -8 84.5 -18.5t73.5 -30t51.5 -51
t19.5 -81.5q0 -56 -21 -96t-55.5 -68t-79.5 -45t-94 -26.5t-98 -12.5t-91 -3h-53q-13 0 -25 -0.5t-24 -0.5q-32 0 -62 2t-68 10q-7 1 -18 3.5t-11 3.5v645q0 25 -8 41.5t-21.5 27.5t-31.5 18.5t-37 14.5zM368 122q0 -17 12 -27.5t28.5 -16t33.5 -7.5t28 -2q33 0 58 13.5
t41.5 36t24.5 51.5t8 61q0 54 -20 87t-53 50.5t-75 23t-86 5.5v-275zM368 457q37 3 70.5 10t59 22.5t40.5 41.5t15 68q0 67 -41 105t-112 38q-2 0 -6.5 -0.5t-9.5 -0.5h-16v-284zM580 231q0 -27 -7 -52t-20.5 -45t-34 -32t-48.5 -12q-8 0 -20 1t-24 3v245q36 -1 70 -6.5
t61 -20.5q11 -15 17 -35t6 -46zM435 683h5q43 0 75 -17l-2 1q18 -29 18 -68q0 -54 -29.5 -78t-75.5 -34v195q2 0 4.5 0.5t4.5 0.5zM124 21l-1 1q1 0 1 -1z" />
    <glyph glyph-name="FL0043h" unicode="C" horiz-adv-x="924" 
d="M156 71q63 -64 156 -94t199 -30h368l1 147l-37 37v8q-48 -2 -100.5 -5t-90.5 -5q-48 -3 -88.5 -5t-72.5 -2q-20 0 -40 1.5t-43 6.5h-2l1 1q-8 5 -11.5 7t-5.5 4v-1q-24 46 -28.5 107t-4.5 125q0 52 5.5 109t25 103.5t57 77t100.5 30.5l79 1l138 -87l103 9q26 38 37 64
t11 45q0 22 -11 38.5t-31 38.5l-16 15l-10 12.5t-14 15.5h-347q-94 -8 -174 -32t-149 -84q-70 -60 -108.5 -149t-38.5 -210q0 -101 36 -173t98 -120zM506 752q-70 0 -111.5 -32.5t-63 -82t-27.5 -110t-6 -115.5q0 -45 2 -89.5t11 -84t27 -71.5t51 -53l2 -1l19 -7
q16 -4 36 -5t45 -1q32 0 73 2t89 5q37 2 79 4.5t90 4.5l-1 -110h-350q-88 0 -167 21t-138.5 65.5t-94.5 113.5t-35 164q0 116 36.5 201t102.5 142q33 29 68.5 48.5t74.5 32t80.5 19t86.5 10.5h338q14 -16 22.5 -29t8.5 -29q0 -28 -41 -92l-84 -7l-137 87z" />
    <glyph glyph-name="FL0044h" unicode="D" horiz-adv-x="1021" 
d="M360 677v-579q11 1 20 1h18h131q8 2 34 16h-1q37 24 58.5 57t31.5 72t12.5 82t2.5 86q0 32 -2 65.5t-8 65t-17 59.5t-28 50q-20 11 -42.5 17.5t-51.5 6.5zM478 735q70 0 112 -29.5t64 -76.5t28.5 -104.5t6.5 -112.5q0 -45 -2 -90.5t-11.5 -86t-29 -74t-53.5 -54.5
q-50 -27 -62 -30h-81q-26 0 -63.5 -0.5t-85.5 -0.5v660zM77 6h439q87 0 166 21t139 65.5t95 113t35 163.5q0 116 -37.5 193.5t-105.5 133.5q-64 57 -141.5 80t-167.5 31h-427l-14 -14q-10 -10 -15.5 -17t-5.5 -15q0 -11 9 -28.5t31 -49.5v-677zM63 -16h-8v691q-22 33 -31 52
t-9 34q0 16 7 25.5t21 21.5q10 9 13 12l8 8h436q47 -4 91.5 -11.5t86.5 -22t81 -36.5t76 -56h-1q14 -14 27 -27.5t26 -27.5l5 -5q57 -56 87.5 -131t30.5 -181q0 -100 -36.5 -172t-99 -119t-145 -69.5t-173.5 -22.5h-457z" />
    <glyph glyph-name="three" unicode="E" horiz-adv-x="846" 
d="M37 14l3 -3q2 -2 3 -3.5l1 -1.5h506q30 0 69 10t73.5 29.5t58.5 48.5t25 66q-26 0 -51 -2t-51 -4t-51.5 -4t-52.5 -2h-81q-44 0 -87.5 4t-84.5 18q35 38 68.5 68.5t68.5 59.5q35 30 68.5 59.5t65.5 64.5l0.5 3t0.5 5q0 4 -10 14.5t-27 26t-39 34.5t-45 39
q-44 38 -84.5 73.5t-60.5 58.5q3 1 14 3.5t23 4t23 3t14 1.5q9 1 29.5 3t45.5 4t53.5 4.5t53.5 4.5t45 3t30 1q17 16 41 39.5t37 48.5l1 4l-1 4q-1 2 -3.5 4t-4.5 3q-7 -1 -21 -2.5t-29.5 -3t-29 -2.5t-19.5 -1h-36q-20 0 -44.5 -0.5t-53.5 -0.5h-189q-28 0 -52 0.5t-44 0.5
h-37l-6.5 -6.5l-9 -9t-8 -8.5t-4.5 -5q-9 -11 -22.5 -27t-25.5 -31.5t-21 -27t-9 -12.5v-18l306 -330l-254 -177l-20 -20q-3 -5 -11.5 -20.5t-18 -32.5t-17.5 -33l-11 -22v1q0 -1 -0.5 -1.5t-0.5 -1.5v-2zM14 25q0 1 0.5 2t0.5 2q3 6 11.5 22.5t18.5 34.5t19 34t14 23l24 24
l235 162l-296 319v27q0 3 9.5 16.5t23 31t28 35.5t23.5 29q1 2 6.5 7t11.5 11t11.5 11t8.5 7h109q8 0 15 -0.5t15 -0.5h189q8 0 15.5 0.5t15.5 0.5h103q6 0 20 1t30 2.5t30 3.5t20 3q7 -2 16.5 -10t11.5 -13v-2l28 -28q2 -3 4.5 -6t3.5 -5l2 -8v-5q0 -1 -2 -7
q-7 -14 -18 -28t-23 -27t-24 -24.5t-22 -19.5q-11 0 -31.5 -1t-47 -3t-55 -4.5t-54.5 -4.5t-46 -4l-30 -3q-5 0 -14.5 -1t-20.5 -3q11 -9 21.5 -18t21.5 -17q7 -5 14 -11.5t14 -12.5l2 -2l4 -4q45 -38 80.5 -70.5t46.5 -49.5h-1l12 -12q29 -29 29 -39q0 -8 -5 -16h4
q-32 -35 -68 -66.5t-73 -63.5q-21 -17 -41.5 -35t-41.5 -38q17 -1 33 -1h34h81q26 0 51.5 2t51.5 4t54.5 4t70.5 2q0 -1 -0.5 -3t-0.5 -3v-2l38 -37q0 -46 -26 -81.5t-63.5 -59.5t-80 -36.5t-75.5 -12.5h-508q-8 4 -9.5 5t-5.5 6l-27 27q-6 3 -8 4.5t-7 6.5l-9 9q-2 6 -2 7
v6v7z" />
    <glyph glyph-name="FL0046h" unicode="F" horiz-adv-x="795" 
d="M389 686l2 2l-3 1zM37 710q18 -4 35.5 -8.5t31.5 -13t23 -22.5t9 -37v-627l233 4l-1 348l231 29q2 0 9 3.5t9 5.5q10 7 25.5 23t25.5 27q3 4 4.5 5.5l3.5 3.5v26h-308v212l11 11q1 1 20 4t44.5 6t52.5 6t44 5h19q3 0 6.5 0.5t6.5 0.5h9h10t19 -1l98 -98l17 17v166
q-65 0 -126.5 -2t-124.5 -4q-62 -2 -124.5 -4t-129.5 -2h-43q-21 0 -44 1q-3 -2 -6.5 -4.5t-5.5 -3.5h1q-9 -5 -19.5 -11.5t-20.5 -12.5t-17 -11t-9 -6q-11 -8 -15.5 -13t-4.5 -15q0 -2 0.5 -3.5t0.5 -3.5v-1zM15 708q-1 0 -1 4v6q0 17 6 24.5t23 20.5q2 2 4.5 4t6.5 4
q10 7 22.5 15t24.5 16q9 5 16 8.5t10 5.5q23 -1 47 -1h46q67 0 129.5 2t124.5 4q63 2 135 4t138 2v-8l37 -36v-190l-36 -36l-38 38l-2 -2l-70 70h-17h-10h-7h-25q-8 -1 -18 -1.5t-22 -2.5q-18 -2 -35.5 -4t-33 -3.5t-26.5 -2t-15 0.5l3 -2l-5 -5v-144h271v-8l36 -37v-50
q-2 -2 -3.5 -4t-9.5 -11q-10 -11 -26 -27t-27 -24q-5 -3 -14 -7.5t-12 -5.5h-3l-212 -29l1 -349l-269 -4l-37 37h-8v649q0 4 -2 12q-8 2 -16.5 4.5t-16.5 4.5q-5 2 -10 2.5t-9 2.5l-36 34q-1 0 -2 0.5l-1 0.5q-3 0 -6 3v15z" />
    <glyph glyph-name="FL0047h" unicode="G" horiz-adv-x="964" 
d="M894 393v27h-302v-123l105 14q8 -34 11.5 -61t3.5 -48q0 -27 -3.5 -51t-6.5 -47q-1 -6 -2 -13.5t-2 -13.5l-192 -1q-47 0 -80.5 15t-56.5 40.5t-37 59t-21.5 71.5t-10 77.5t-2.5 76.5q0 45 2.5 88t12.5 80.5t28.5 67.5t51.5 51l21 8q58 18 198 18q38 0 80.5 -1t92.5 -4
l-1 82h-310q-69 0 -141 -19t-133.5 -60t-106 -107.5t-57.5 -160.5q0 -116 36.5 -202t96.5 -155q31 -33 76.5 -57.5t108.5 -38.5h-1l470 -1q11 15 18 50.5t7 82.5q0 48 -7 97t-22 91q5 3 13 4.5t16 3.5t13.5 2.5l5.5 0.5q11 8 17.5 26t8.5 27zM570 442h346v-8l37 -37v-43v-4
q-2 -11 -10.5 -33t-24.5 -35h-1q-1 -1 -2 -1v0q-7 -3 -25 -6h1l-9 -2q12 -40 18 -85t6 -90q0 -50 -9.5 -91t-26.5 -61l-481 1q-60 14 -106 37t-78 55l-14 13q-11 8 -20.5 16.5t-17.5 18.5q-32 36 -57.5 76t-43.5 86t-28 98.5t-10 113.5q13 100 60 169.5t112 113t140.5 63.5
t147.5 20h332v-8l37 -36l1 -119q-51 3 -102.5 4.5t-89.5 1.5q-69 0 -116.5 -4t-75.5 -12l-16 -6h1q-30 -20 -47.5 -48.5t-26.5 -64t-11.5 -76t-2.5 -83.5q0 -31 1.5 -63.5t6.5 -65t14 -62t24 -54.5h-1q39 -33 104 -33l173 1v2q0 2 0.5 3t0.5 3t0.5 3t0.5 3q0 3 1 6t1 6t1 6
q3 17 5 35t2 36q0 9 -1 19.5t-3 22.5l-72 -8l-38 37h-7v169z" />
    <glyph glyph-name="FL0048h" unicode="H" horiz-adv-x="1077" 
d="M117 14l17 -17q48 12 102 24t106 15l8 8v316l389 34v-391q0 -2 8.5 -4.5t13.5 -2.5q1 0 6 1t11 2.5t12 3.5l9 3q8 2 25 8t37 13q27 9 52.5 17t35.5 12q8 4 18 20t18.5 35.5t14.5 38.5t6 29v3q0 1 -5 5t-10 9q-6 5 -10 9t-5 6q-2 3 -4 10.5t-3.5 15.5t-2 14.5t-0.5 9.5v35
q0 12 -0.5 25t-0.5 27v87q0 44 1.5 86.5t3.5 87.5q2 44 4 87t2 88q0 10 -8 16t-17 6q-2 0 -4 -0.5t-4 -0.5h-2q-10 -2 -36 -6t-55 -9t-54 -9t-35 -6l-1 -1q-5 -2 -15.5 -7t-10.5 -9v-269l-11 -11q-1 -1 -14 -2.5t-31 -3.5t-36.5 -3.5t-29.5 -1.5h-22q-5 0 -9.5 -0.5
t-9.5 -0.5h-38q-10 0 -20.5 -0.5t-22.5 -0.5q-21 0 -44 1t-42.5 5t-34 10.5t-19.5 17.5v14q0 5 -0.5 9t-0.5 9v33q0 32 3.5 62.5t8.5 60.5t8 60t3 59h-9q-5 0 -9.5 -0.5t-9.5 -0.5h-31q-10 0 -31.5 -0.5t-48 -1.5t-55.5 -2t-55.5 -2t-47 -2t-30.5 -2h1q-6 -2 -7.5 -7
t-1.5 -10v-7q0 -5 6 -9.5t16 -10.5q9 -5 19.5 -11.5t19 -16t14 -23t5.5 -31.5v-655zM95 6v663q0 6 -1.5 12t-3.5 12q-2 0 -2 2q-5 3 -10.5 6.5t-10.5 8.5l-27 26l1 -1q-11 7 -18.5 14.5t-7.5 21.5v7q0 11 4 22.5t23 16.5q10 0 31 1t47.5 2t56 2t56.5 2t48.5 1.5t31.5 0.5h45
q2 0 2.5 0.5t2.5 0.5h31v-8l37 -36q0 -41 -3 -74t-8 -63q-5 -31 -8.5 -61.5t-3.5 -60.5v-33q17 -2 38.5 -3t43.5 -1q3 0 6.5 0.5t6.5 0.5h82q2 0 2.5 0.5t2.5 0.5h22q10 0 26.5 0.5t31.5 1t26.5 1.5l11.5 1l4 4v261q0 15 14.5 24t23.5 12q3 3 7 3q2 0 3.5 0.5t3.5 0.5
q4 1 8 1.5t9 1.5q13 2 30.5 5t36.5 6q29 5 53 8.5t34 5.5h8q1 0 1.5 0.5t1.5 0.5h5q14 0 26 -7t18 -21l28 -27q12 -9 12 -28q0 -45 -2 -88.5t-4 -87.5t-3.5 -86.5t-1.5 -86.5v-87q0 -7 0.5 -14t0.5 -14v-58q0 -5 1.5 -20.5t4.5 -19.5l24 -23q10 -10 10 -17v-3
q0 -12 -7 -33.5t-17.5 -44t-23 -40.5t-22.5 -23q-5 -2 -16 -5.5t-24 -8.5q-11 -4 -23.5 -7.5t-24.5 -7.5q-9 -3 -17.5 -6t-16.5 -6q-9 -3 -16.5 -5t-11.5 -4q-4 -1 -11 -3t-14 -3.5t-13 -3t-7 -1.5q-8 0 -19 6t-17 12l-30 30q-7 5 -12 9t-5 9v326l-308 -27v-305l-20 -20
q-54 -3 -111 -15.5t-108 -26.5l-38 38l-2 -2z" />
    <glyph glyph-name="FL0049h" unicode="I" horiz-adv-x="841" 
d="M280 127q-2 0 -9.5 -1.5t-16.5 -3t-19 -3t-16 -2.5q-8 -1 -20.5 -3t-26.5 -3.5t-27.5 -3t-21.5 -1.5l-87 -87v-16q82 5 150.5 6.5t128.5 1.5q63 0 116.5 -1t104.5 -3q46 -2 90.5 -3t92.5 -1h8q6 14 13.5 33t14 40t11 42.5t4.5 40.5q-5 -1 -12 -1.5t-9 -1.5q-2 0 -9 -3
t-15 -7t-15 -7t-10 -3q-33 -6 -61.5 -8t-65.5 -2q-6 0 -16.5 0.5t-15.5 0.5h-5l-7 7q-1 32 -1.5 62.5t-2.5 60.5q-2 53 -4 105t-2 106v41q0 14 0.5 27.5t0.5 27.5v66l10 49l7.5 2t17.5 4t20.5 3.5l17.5 2.5t19 2.5t25.5 3t26 2.5t20.5 1l87 88v16q-49 0 -91.5 -1.5
t-83.5 -3.5q-43 -2 -86 -3.5t-92 -1.5q-48 0 -88 1.5t-80 3.5q-38 2 -77.5 3.5t-84.5 1.5h-8q-6 -14 -13 -33t-13.5 -40.5t-11.5 -43t-5 -39.5q5 0 12 1t9 2q2 0 9 3t15 7q8 2 14.5 5t10.5 4q32 6 64 9t68 3q6 0 16.5 -0.5t15.5 -0.5h5l12 -12l-5 -542h-4h1zM217 139
q15 2 35 5h-1q4 1 10 1l4 479q-31 -1 -58 -4t-56 -8l-10 -4q-3 -2 -6 -2.5t-6 -2.5q-9 -5 -17 -8t-13 -3q-8 -2 -21.5 -2.5t-17.5 -0.5l-37 37h-8q0 27 5.5 56t13.5 55.5t17 49.5t15 38h22q35 0 65.5 -0.5t59.5 -2.5q9 -1 18.5 -1.5t18.5 -0.5q40 -2 80 -3.5t88 -1.5
q49 0 91.5 1.5t85.5 3.5h12q3 0 5.5 0.5t5.5 0.5q39 2 85.5 3t89.5 1v-8l37 -36v-40l-99 -99q-9 0 -23 -1t-28 -2.5t-27 -3t-20 -2.5q-10 -2 -24 -3.5t-22 -2.5l-8 -42v-87q0 -7 -0.5 -14t-0.5 -15v-41q0 -53 2 -105l4 -104v-19t1 -18v-17t1 -17q29 0 54 2t55 8q2 0 8 2.5
t14 6.5q3 0 4 1l10 5q10 5 17 5q8 1 23 2t21 1v-8l37 -37q0 -26 -5.5 -53.5t-13 -53t-16.5 -47.5t-15 -38h-21q-48 0 -92.5 1t-89.5 3q-51 2 -105 3t-117 1q-60 0 -135.5 -2t-159.5 -7l-38 38q-1 0 -1.5 -0.5l-0.5 -0.5h-5v47l101 101q10 0 24.5 1.5l29 3t27.5 3.5t21 3z
" />
    <glyph glyph-name="FL004Ah" unicode="J" horiz-adv-x="837" 
d="M447 735q2 -2 4 -2l1 -1l36 -35q4 -2 12 -4q2 -1 5 -2t5 -2q3 -8 3 -16l1 -509q-13 -10 -38.5 -14t-61.5 -4q-45 0 -97.5 4.5t-109.5 10.5q-3 0 -20 7l1 -1h-1t-3 2h-2v1v-1q-3 2 -5 2q-1 0 -3 2q-2 1 -3.5 1.5l-1.5 0.5h1q-10 4 -26.5 10.5t-37 14.5t-43.5 17t-47 17
l-2 -202q0 -2 5 -7t12 -10l28 -27q5 -5 16.5 -12.5t19.5 -9.5q30 -6 70.5 -10t83.5 -6t85 -3t74 -1q37 0 79 3t84.5 11t83 23t73.5 40t56 60t32 84h5l5 611l-37 36v8h-33q-2 0 -3 -0.5t-3 -0.5h-49q-14 0 -46.5 -1t-69 -2.5t-68.5 -3.5t-45 -3h-3q1 0 1 1q-14 0 -21.5 -4.5
t-11 -11t-4.5 -14t-1 -14.5q0 -2 0.5 -10t2.5 -11zM454 768q0 8 2 15.5t11 7.5q2 0 3 -0.5t3 -0.5q13 1 45 3t68 3.5t68.5 2.5t46.5 1h35q5 0 10 0.5t10 0.5h11l-5 -576q-1 -1 -1 -4l-2 -2q-7 -47 -28 -81.5t-52.5 -58t-70.5 -38t-80.5 -23t-82.5 -11t-77 -2.5q-32 0 -73 1
t-83.5 3t-82.5 6t-69 10q-5 1 -14.5 3.5t-9.5 3.5l2 173q46 -17 75 -30t49 -21q18 -8 28 -11.5t16 -3.5q57 -6 110 -10.5t98 -4.5t76.5 6.5t45.5 25.5l-1 517q0 38 -24 56t-56 26q-1 3 -1 7v6z" />
    <glyph glyph-name="FL004Bh" unicode="K" horiz-adv-x="1086" 
d="M650 474q1 0 1 -1zM594 145q6 -7 20.5 -22.5t31.5 -32t32.5 -31.5t23.5 -22q29 -14 62.5 -22t68.5 -12.5t70 -5.5t67 -1h19q5 0 10 0.5t8 0.5q2 4 4.5 13t4.5 14v9l-5 10q-4 6 -4 8q-1 1 -3 1l-4 -1q-2 -1 -5 -5t-4 -7q-8 7 -24 23t-34 33.5t-33.5 33t-21.5 22.5
q-11 13 -33 39.5t-50 60.5t-58 72t-57.5 72.5t-48.5 62t-31 41.5q-4 2 -7.5 9.5t-3.5 11.5v2q5 25 38.5 57t78 65t91.5 63.5t80 50.5q20 13 31.5 20.5t11.5 5.5q0 16 -10 19t-30 3h-217q-6 -24 -19 -49t-28.5 -49.5t-32 -47.5t-31.5 -43q-8 -11 -15 -21t-13 -18
q-15 -22 -33 -42.5t-39 -37t-45.5 -26.5t-53.5 -10v42q0 22 -1 41t-1 37v37q0 45 3.5 89t15.5 92v4q0 9 -6 10.5t-13 1.5h-18q-11 0 -32.5 -0.5t-49 -1.5t-58 -2t-57.5 -2t-49 -2t-32 -2q-2 0 -2.5 0.5t-2.5 0.5q-9 0 -11.5 -8t-2.5 -16q0 -7 6.5 -12t17.5 -10
q9 -5 19.5 -11.5t18.5 -16t13.5 -22.5t5.5 -32v-665q0 -6 5.5 -7t10.5 -1q2 0 4 0.5t4 0.5h2q22 4 55.5 10t65 12t54 11l22.5 5l10 10v339h44q7 -10 22.5 -29.5t35 -44.5t41 -52t41.5 -51.5t36 -43.5t24 -28zM688 20q-7 6 -23 21.5t-33 32.5t-32.5 33t-21.5 23q-9 10 -29 34
t-44 53.5t-49.5 61t-44.5 57.5h-2v-328l-17 -17l-7 7q-13 -5 -38 -11.5t-54 -14t-58 -14t-48 -10.5h-6q-2 0 -3 -0.5t-2 -0.5h-3q-6 0 -14 1t-14 7l-31 31q-8 2 -13.5 8t-5.5 20v665q0 13 -7 25q-6 4 -11.5 8t-10.5 9l-25 25q-12 6 -19.5 14.5t-7.5 22.5q0 7 1 14.5t5 14.5
t11.5 11.5t19.5 4.5l1 -1h2q10 1 32 2t49.5 2t58 2t58 2t49 1.5t32.5 0.5h18q12 0 23 -2.5t16 -17.5l29 -29h1l3 -3l3 -3h-2q5 -8 5 -18v-9q-12 -48 -15.5 -90.5t-3.5 -85.5v-37q0 -18 1 -36v-7q29 14 53 39t43 53l-1 -1q1 2 2 3t2 3q2 4 5 7h-1q2 4 6 7.5t7 8.5q1 1 5 7
q0 1 1 2q0 1 0.5 2t0.5 2h2l2 2v-2q4 5 7.5 10t1.5 3q28 37 56.5 82.5t42.5 99.5h234q24 0 39.5 -3.5t20.5 -20.5l29 -29q5 -5 7 -12t2 -18t-7 -17t-20 -13q-1 -1 -10 -5.5t-14 -7.5h1q-32 -20 -78 -49t-89.5 -60.5t-76 -61.5t-37.5 -51q0 -3 4 -6l3 -3q8 -12 25 -34
t38.5 -49.5t46.5 -59t50 -62t48 -58.5t40 -49q8 -9 19.5 -21t23.5 -24l23.5 -23.5l20.5 -20.5q2 1 4 3q6 2 7 2h4h8q2 0 5 -2l10 -14q2 -3 4 -5l26 -25q8 -11 9.5 -13t2.5 -4l6 -12v-19q-1 -4 -7 -19t-12 -23h-10q-5 0 -9 -0.5t-8 -0.5h-20q-33 0 -68.5 1t-71.5 5.5
t-70 12.5t-63 22l-6 4q-6 5 -15.5 14t-20.5 20z" />
    <glyph glyph-name="FL004Ch" unicode="L" horiz-adv-x="826" 
d="M77 771q0 -6 5 -16.5t12 -22.5t15 -24t14 -19v-515q0 -26 -13 -33.5t-29 -11.5q-18 -5 -37.5 -15t-33.5 -40q23 -30 51 -50l12 -12q26 -26 56.5 -44t59.5 -29q35 3 64.5 5t57 3.5t54 2t55.5 0.5h81q38 0 74 -2t73 -4q38 -2 83 -4t83 -2v58q0 22 -1 49t-5 52.5t-11 47
t-19 33.5l-25 24q-8 14 -17 22t-23 8q-29 0 -45.5 -22t-33.5 -51q-11 -22 -24 -39.5t-28 -17.5h-10q-2 0 -2.5 0.5t-1.5 0.5h-8q-22 2 -54.5 5t-59.5 7v1q-3 0 -5.5 0.5t-4.5 0.5v462l20 138v-1q3 6 7 10q5 6 10.5 13t5.5 16q0 8 -6 14l-31 32q-2 8 -14 15t-39 12t-71.5 8
t-112.5 3q-25 0 -48 -3t-41 -10.5t-28.5 -20.5t-10.5 -34zM99 771q0 15 9 24t24 14t34 7t39 2q66 0 108 -2t66 -5t33 -7t9 -9q0 -4 -3.5 -8t-7.5 -8q-12 -12 -13 -19l-20 -139v-508l12 -12q6 -1 9.5 -1.5t7.5 -1t9 -1t13 -1.5q15 -2 32.5 -4t35.5 -4.5t34.5 -4t28.5 -2.5h9
q4 0 8 -0.5t6 -0.5q25 0 41.5 22t30.5 48q13 23 26 42t33 19q14 0 22 -18t12.5 -44.5t6 -57t1.5 -55.5v-39q-36 0 -72.5 2t-73.5 4t-73.5 4t-73.5 2h-82q-27 0 -53 -0.5t-53 -2t-57 -3.5t-64 -5q-31 12 -63 30.5t-54 45.5q9 16 23 22.5t29 11.5q11 3 21 6.5t18 10.5t13 18.5
t5 30.5v524q-5 4 -12.5 14t-15 21t-13 22t-5.5 16z" />
    <glyph glyph-name="FL004Dh" unicode="M" horiz-adv-x="1285" 
d="M596 859h-2q-1 0 -2 -0.5t-2 -0.5q-23 -5 -45.5 -8.5t-48.5 -5.5l-23 -23l3 -31q-52 -9 -100 -23t-88.5 -38t-72.5 -61.5t-52 -92.5q-2 -4 -8 -37t-13 -80.5t-15 -102.5t-15 -104q-5 -32 -8.5 -59.5t-5.5 -44.5q-1 -5 -1.5 -9t-1.5 -8l-9 -19q-3 -6 -4 -8.5t-6 -12.5
q-3 -2 -8.5 -5.5t-11.5 -5.5q-16 -8 -29 -16.5t-13 -27.5q0 -30 23 -38l30 -30q5 -4 11.5 -6.5t14.5 -2.5q26 0 63.5 1.5t75.5 9.5t72 24.5t54 46.5q4 15 7 42t6 62q0 4 0.5 7t0.5 7q5 54 12.5 118.5t19.5 126.5t30 115t44 83l-5 -617h8l37 -37h33q4 0 7 0.5t6 0.5h7h15
q11 0 24 1t27.5 1.5t29.5 0.5q4 0 8 0.5t8 0.5q12 0 17 1h1q6 1 12 1.5t13 0.5q5 1 9 1h7q25 2 34.5 6t9.5 21v653q2 0 3 1q7 2 13.5 2.5t10.5 0.5q1 -1 3 -1q14 -23 22.5 -57t14 -75t9 -86.5t6.5 -91.5q3 -56 7 -110t13 -99.5t24 -81t41 -53.5h3l26 -26q8 -8 12 -11h27
q2 0 4.5 -0.5t5.5 -0.5h81q35 0 66 2.5t76 8.5q6 6 12.5 18.5t7.5 15.5v23l-37 37v7q-8 2 -14 4.5t-12 6.5l1 -2q-12 21 -19.5 48.5t-12 59t-7.5 66t-6 70.5q-4 51 -9 102t-15 97.5t-26.5 85.5t-43.5 66l-16 15l-1 1q-15 22 -38 40q-25 18 -54.5 30.5t-60.5 20.5t-62.5 12.5
t-61.5 7.5l-3 43l-37 35v9q-47 0 -79.5 -5t-62.5 -12zM725 772q5 -1 12 -1t12 -1q31 -3 65.5 -6.5t68.5 -11t65 -19t56 -30.5q30 -22 48.5 -60t29.5 -85t16.5 -100.5t10.5 -106.5q4 -55 10 -107t17 -94t29.5 -71t49.5 -38v-6v-1q-1 -2 -4 -8.5t-5 -8.5q-44 -6 -73 -8.5
t-61 -2.5h-81q-5 0 -9.5 0.5t-9.5 0.5h-13q-20 15 -32 47.5t-19 76t-11 95t-7 104.5q-4 64 -9 127t-16.5 114t-32 85.5t-54.5 41.5h-4q-5 0 -13 -0.5t-16 -1.5h1q-5 -1 -9 -1.5t-9 -0.5v-671q0 -5 -5.5 -6t-19.5 -2h-9t-10 -1q-7 0 -13 -0.5t-13 -1.5q-8 -1 -16 -1t-16 -1
q-15 0 -29.5 -0.5t-27.5 -1.5t-23 -1h-15q-3 0 -8 -0.5t-11 -0.5h-17l7 688q-34 0 -60 -23.5t-45.5 -63t-33 -90.5t-23 -106t-15.5 -110t-11 -102q-4 -36 -6.5 -65.5t-7.5 -49.5l1 1q-17 -24 -48 -38t-67 -20.5t-72 -8t-61 -1.5q-17 0 -17 18q0 8 8.5 13.5t19.5 10.5
q10 5 19.5 10t13.5 11l3.5 8.5t5.5 13.5l10 19q1 5 5.5 41t12.5 87q7 48 14.5 102t14.5 100.5t12.5 78t7.5 35.5q20 55 52.5 91.5t74 59.5t90.5 36t102 21l-6 41l8 8q26 2 50 7t49 10q29 7 58 11t58 5z" />
    <glyph glyph-name="N" unicode="N" horiz-adv-x="1130" 
d="M113 173q0 -17 4.5 -43.5t13.5 -54t23 -51.5t33 -34l25 -25q19 -19 41 -19q7 0 24.5 2t39 6t45 10t42.5 14t31.5 17.5t12.5 21.5q0 48 -2 95t-4 95q-2 47 -3.5 93.5t-1.5 94.5v112q0 8 0.5 17t0.5 17v82q-4 9 -4 14q0 8 13 10.5t24 4.5h1q2 0 3 0.5t3 0.5h5q8 1 33.5 3
t55.5 3.5t57.5 2.5t40.5 1h48q2 0 2.5 -0.5t2.5 -0.5h3v-658l13 -9l31 -31l27 -18l234 41q6 2 13.5 10t9.5 14v14q-2 14 -4 24t-4 19v-1q0 2 -0.5 3t-0.5 3q-5 20 -8 39.5t-3 39.5v467q0 39 14 56t31 29q8 6 15.5 12t13 15t8.5 21.5t3 32.5l-37 36v8h-790l-149 2
q-12 0 -33.5 -10t-43 -24.5t-37 -31.5t-15.5 -32q0 -11 5.5 -16.5t15.5 -10.5l28 -28q5 -5 13.5 -9t17.5 -6q2 -1 5 -1.5t5 -1.5q5 -2 10 -3.5t10 -3.5v-435q-8 -11 -9.5 -21t-1.5 -21v-3zM135 173v3q0 10 1.5 18.5t9.5 16.5v448q0 13 -7 22t-18.5 16t-24.5 11.5t-25 8.5
q-14 4 -24.5 7.5t-10.5 8.5q0 12 13 25.5t30.5 25t35.5 19t28 7.5l149 -2h768q-1 -20 -11 -30t-22 -19q-9 -6 -18 -14t-16.5 -19t-12 -27t-4.5 -40v-467q0 -26 3.5 -47t8.5 -43q2 -11 4 -21t4 -18v-9q-1 -2 -3.5 -5t-4.5 -3l-228 -40l-12 8v705h-15q-6 0 -12.5 0.5
t-14.5 0.5q-7 0 -13.5 0.5t-14.5 0.5h-47q-14 0 -42 -1t-58 -2.5t-55.5 -3.5t-33.5 -3q-2 0 -4.5 -0.5t-5.5 -0.5q-8 -1 -18 -2t-18.5 -4.5t-14.5 -10t-6 -17.5q0 -10 4 -18v-44q0 -17 -0.5 -34t-0.5 -34v-111q0 -49 1.5 -95.5t3.5 -94.5q2 -47 4 -93.5t2 -94.5
q0 -9 -11 -16t-28.5 -12.5t-38 -10t-40 -7.5t-35.5 -4.5t-23 -1.5q-21 0 -35.5 20t-24 47.5t-14 55.5t-4.5 45z" />
    <glyph glyph-name="zero" unicode="O" 
d="M412 489q-2 0 -4 -3t-3 -5q-6 -11 -14.5 -29.5t-16.5 -35.5t-13.5 -30t-5.5 -14v-17q29 0 65 1t72.5 2.5t69.5 3.5t56 4q2 5 5 9t6 9q14 24 26.5 50.5t12.5 47.5q0 5 -1 11t-7 6zM659 521q14 0 20.5 -5.5t8.5 -13.5l-1 1l21 -23q-3 51 -16.5 97t-39.5 81v-1
q-21 13 -45.5 20.5t-55.5 7.5q-44 0 -76.5 -12t-55.5 -34.5t-37.5 -55.5t-23.5 -75v-20q0 -5 -0.5 -9t-0.5 -9v-38q7 16 14 30.5t13 25.5q2 5 11 13.5t16 9.5zM360 313q4 -47 15.5 -93.5t35.5 -84.5h-1q19 -16 45.5 -25.5t61.5 -9.5q56 0 92 25t57.5 65t30.5 90t12 99
q-4 -7 -8 -14.5t-8 -15.5q-4 -6 -5 -8h1q-4 -8 -10 -17h1q-2 -4 -4.5 -8.5t-4.5 -7.5q-26 -2 -63 -4t-78 -4t-81 -3t-71 -1zM298 492q0 9 0.5 18t0.5 17v25q9 45 26 80.5t42.5 60.5t61 38t82.5 13q67 0 110 -28t68 -73t34.5 -101.5t9.5 -113.5q0 -56 -7 -117.5t-29.5 -113.5
t-65.5 -85.5t-114 -33.5q-49 0 -84 16.5t-59 43.5t-39 63t-23.5 75.5t-11 79.5t-2.5 76v60zM36 398q0 -104 33.5 -178t93.5 -122t141.5 -70.5t177.5 -22.5q112 0 205 26.5t159.5 81.5t103 139.5t36.5 200.5q0 94 -35 163t-95 114t-139 66.5t-166 21.5q-106 0 -200 -22.5
t-164 -72t-110.5 -130t-40.5 -195.5zM14 398q0 121 42.5 205.5t115.5 136.5t170.5 75.5t208.5 23.5q60 0 116.5 -9.5t106.5 -29t91.5 -49.5t72.5 -71l7 -8q48 -47 74 -110.5t26 -148.5q0 -121 -38 -209t-106.5 -145.5t-165 -85t-213.5 -27.5q-112 0 -203.5 29.5t-155.5 93.5
l-5 5q-68 51 -106 130t-38 194z" />
    <glyph glyph-name="FL0050h" unicode="P" horiz-adv-x="865" 
d="M56 717q5 -2 8.5 -3t7.5 -3q9 -4 17.5 -7t16.5 -8q7 -14 7 -28v-645q0 -4 16 -15l29 -28q4 -4 17.5 -12.5t23.5 -10.5q26 -5 45 -7t36 -2q8 0 17 0.5t19 1.5h5q14 1 30.5 1.5t41.5 0.5h24l6 280q61 6 117.5 18.5t114.5 41.5q36 17 71.5 51.5t64 78t46 92t17.5 92.5
q0 34 -11 58.5t-30 43.5l-20 20q-17 25 -43 42t-56.5 28t-62.5 17.5t-60 10.5h-104q-5 0 -9 0.5t-8 0.5h-138q-5 0 -9.5 -0.5t-9.5 -0.5h-131q-13 0 -31.5 -2.5t-37 -6t-34.5 -7t-25 -6.5l-8 2l-17 -50l5 -2.5t8 -2.5zM280 9q-11 -1 -20.5 -1.5t-19.5 -0.5q-14 0 -31.5 2
t-44.5 7q-7 1 -18 3.5t-11 3.5v645q0 25 -8 41.5t-21.5 27.5t-31.5 18.5t-37 14.5l9 27q0 1 13.5 2t32 2.5t38 2.5t32.5 1h80q17 0 34.5 0.5t35.5 0.5h94q14 0 29.5 -0.5t31.5 -0.5h102q35 -5 75 -14t73.5 -26.5t55.5 -46t22 -72.5q0 -42 -16.5 -88t-43.5 -87t-60.5 -73.5
t-66.5 -47.5q-60 -29 -119.5 -41.5t-123.5 -18.5l-7 -279h-5q-24 0 -41.5 -0.5t-31.5 -1.5zM367 375q37 3 71 23t59.5 50.5t40.5 69.5t15 81q0 67 -41.5 105t-111.5 38q-2 0 -6.5 -0.5t-9.5 -0.5h-17v-366zM435 683h5q42 0 74 -17l-2 1q19 -29 19 -68q0 -59 -29.5 -108
t-75.5 -75v266q2 0 4.5 0.5t4.5 0.5z" />
    <glyph glyph-name="FL0051h" unicode="Q" horiz-adv-x="1256" 
d="M327 402q0 -55 13.5 -114.5t45.5 -108.5h-1q43 -40 108 -49v532q-44 -7 -75 -34.5t-51.5 -65t-30 -80.5t-9.5 -80zM950 406q0 25 -5.5 53.5t-16.5 57.5t-26.5 56.5t-35.5 50.5q-20 14 -42.5 22.5t-47.5 8.5q0 -18 -0.5 -46t-1.5 -61.5t-1.5 -71.5t-1.5 -77q-1 -41 -2 -80
t-1.5 -73.5t-1 -63t-0.5 -46.5q44 10 78.5 35.5t58 61.5t35.5 80.5t12 92.5zM269 442q0 43 12 92.5t37.5 91.5t65 69.5t94.5 27.5q10 0 23 -3.5t13 -20.5v-592q-67 0 -113.5 32t-76 81.5t-42.5 108.5t-13 113zM727 712q2 0 4 0.5t4 0.5q54 0 97.5 -31t74.5 -77.5t48 -100
t17 -98.5q0 -61 -17.5 -115.5t-51.5 -95.5t-83 -65t-112 -24v56q0 16 0.5 44.5t1 65.5t1.5 80t2 87q1 43 1.5 85.5t1.5 79.5t1.5 65t0.5 43h9zM514 4q5 -19 7 -43t3 -52q1 -34 4 -68t13 -61.5t29.5 -45t55.5 -17.5h4q5 3 11.5 9.5t6.5 8.5l50 259v-1q0 5 10 7.5t27 7.5
q28 7 72.5 20.5t94.5 36t100.5 55.5t91.5 80.5t66.5 110.5t25.5 145q0 60 -18 111.5t-51 93t-78.5 73t-100.5 52.5q-2 1 -19 2.5t-41 4t-51.5 5t-51 4.5t-39 3.5l-15.5 1.5l-209 -11h1q-55 -12 -112 -26t-110 -33.5t-99.5 -47t-81 -65.5t-54.5 -88.5t-20 -117.5
q0 -117 36 -194.5t100 -124t151 -67.5t189 -26zM503 -92q-1 11 -1.5 22t-1.5 22q-107 8 -193 36.5t-146 88.5l-16 16q-62 49 -96.5 128t-34.5 197q0 72 20.5 126t56.5 94.5t83.5 69t102.5 49t113.5 35t115.5 26.5l214 11l16.5 -1.5t41 -3.5t53 -5t53.5 -5t42.5 -4t19.5 -3
q60 -23 108.5 -57.5t83.5 -81.5l5 -4q48 -48 75 -110t27 -138q0 -86 -26.5 -151.5t-68 -114.5t-94 -84t-104 -58.5t-97.5 -37t-75 -21.5l-12 -3l-12 -3h-2l-48 -256l-2 2q-5 -7 -14 -16.5t-15 -13.5h-9q-26 0 -43.5 7t-31.5 21l-22 21q-22 13 -34.5 35t-19.5 49t-9 57t-3 59
z" />
    <glyph glyph-name="FL0052h" unicode="R" horiz-adv-x="903" 
d="M580 226l55 -226h8l36 -37h9q5 0 10 1q7 1 12.5 1.5t9.5 0.5q20 0 38 -3t34 -7q2 -1 5.5 -1.5t2.5 -0.5q8 -2 15.5 -3t17.5 -1q15 0 26 5t18.5 17.5t11 34.5t3.5 56q0 36 -9.5 75t-26.5 77t-40.5 72.5t-50.5 62.5l-41 40h-1q-6 6 -9 8q-5 5 -9 8.5t-9 7.5
q31 15 59.5 31.5t50.5 39t35 52t13 69.5q0 34 -11 58.5t-30 43.5l-4 2l-15 18q-17 25 -43.5 42t-56.5 28t-62 17.5t-61 10.5h-104q-5 0 -9 0.5t-8 0.5h-138q-5 0 -9.5 -0.5t-9.5 -0.5h-131q-13 0 -31.5 -2.5t-37 -6t-34.5 -7t-25 -6.5l-8 2l-17 -50l5 -2.5t8 -2.5l34 -34
q5 -2 8.5 -3t8.5 -3q8 -4 16.5 -7t16.5 -8q7 -14 7 -28v-645q0 -4 16 -15l29 -28q4 -4 17.5 -12.5t23.5 -10.5q26 -5 45 -7t36 -2q8 0 17 0.5t19 1.5h5q14 1 31 1.5t41 0.5h24l8 387q34 -1 63 -6.5t53 -19.5q25 -32 39 -87zM280 9q-11 -1 -20.5 -1.5t-19.5 -0.5
q-14 0 -31.5 2t-44.5 7q-7 1 -18 3.5t-11 3.5v645q0 25 -8 41.5t-21.5 27.5t-31.5 18.5t-37 14.5l9 27q0 1 13.5 2t32 2.5t38 2.5t32.5 1h80q17 0 34.5 0.5t35.5 0.5h94q14 0 29.5 -0.5t31.5 -0.5h102q35 -5 75 -14t73.5 -26.5t56 -46t22.5 -72.5q0 -40 -15 -68.5
t-39.5 -49.5t-55.5 -37t-63 -31q-4 -2 -8.5 -4t-8.5 -4v-15q43 -8 84 -42.5t72.5 -82.5t51 -103.5t19.5 -106.5q0 -56 -10 -74.5t-29 -18.5q-8 0 -17 2t-20 4q-16 4 -35 7t-42 3q-7 0 -13.5 -0.5t-13.5 -1.5l-51 209q-14 52 -35.5 84.5t-50.5 50.5t-66.5 24t-82.5 6l-8 -386
h-5q-25 0 -42.5 -0.5t-31.5 -1.5zM367 457q37 3 71 10t59.5 22.5t40.5 41.5t15 68q0 67 -41 105t-112 38q-2 0 -6.5 -0.5t-9.5 -0.5h-17v-284zM435 683h5q43 0 74 -17l-1 1q18 -29 18 -68q0 -54 -29.5 -78t-75.5 -34v195q2 0 4.5 0.5t4.5 0.5zM124 21l-1 1q1 0 1 -1z" />
    <glyph glyph-name="FL0053h" unicode="S" horiz-adv-x="908" 
d="M36 115q1 -25 24 -45t54.5 -34.5t64.5 -22t56 -7.5h594l8 17l-443 652q-3 3 -6.5 11t-4.5 10q0 4 1 6q0 1 3 4q18 0 38.5 1t42.5 3q25 2 51 3.5t53 1.5q31 0 61 -3t57.5 -11.5t51.5 -23t43 -36.5h29q-1 15 -7.5 42.5t-15 54.5t-16.5 46.5t-11 19.5h-692v-25l417 -638
q-12 -5 -28 -9t-32.5 -7t-31 -4.5t-23.5 -1.5h-41t-64 -1q-25 0 -51.5 -0.5t-52.5 -1t-50 -1t-42 -0.5h-37zM66 45q-23 19 -37.5 41t-14.5 51h59q24 0 57 0.5t68 1.5q9 0 18 0.5t18 0.5h35q36 1 64 1h41q12 0 34 2.5t44 8.5l-402 617v56h714q3 0 10 -12l34 -32
q5 -5 15.5 -30.5t21.5 -57.5t19.5 -63t8.5 -48h-57l-24 24q-36 30 -83.5 40.5t-96.5 10.5q-21 0 -41.5 -1t-40.5 -3q-5 0 -10.5 -0.5t-10.5 -0.5q-16 -2 -31 -3t-30 -1q0 -1 1 -1l450 -663l-18 -37h-606q-18 0 -42.5 5t-50.5 14.5t-51 24t-43 32.5z" />
    <glyph glyph-name="FL0054h" unicode="T" horiz-adv-x="909" 
d="M291 9l12 -25h6l37 -37h14q2 0 5 -0.5t6 -0.5h12q54 0 110.5 6.5t104.5 14.5q17 7 19.5 14.5t2.5 17.5v2q0 54 -2 107.5t-4 107.5q-2 53 -3.5 105.5t-1.5 106.5v41q0 8 0.5 15t0.5 14v87l8 42q2 0 4 0.5t4 0.5q8 1 19 2.5t18 2.5h3q2 0 3.5 0.5t3.5 0.5q18 0 47 -3
q9 -1 18.5 -1.5t18.5 -1.5q5 -1 9 -1.5t8 -0.5q11 -1 20.5 -1.5t22.5 -0.5l81 119v39l-37 36v8h-796q-6 -15 -15 -38t-17 -49.5t-13.5 -55.5t-5.5 -56h8l37 -37q4 0 17.5 0.5t21.5 2.5q5 0 13 3t17 8q3 2 6 2.5t6 2.5l10 4q29 5 70 7.5t76 3.5zM319 669l-12 12h-5
q-5 0 -15.5 0.5t-16.5 0.5q-18 0 -40 -0.5t-44 -2t-43 -3.5t-37 -5q-4 -1 -10.5 -4t-14.5 -6t-15 -6t-9 -3q-2 -1 -9 -2t-12 -1q0 18 5 39.5t11.5 43t13.5 40.5t13 33h760v-17l-71 -106q-6 0 -19.5 1t-30.5 3q-23 2 -46.5 4t-37.5 2q-3 0 -5.5 -0.5t-4.5 -0.5l-17.5 -2.5
t-20.5 -3.5t-17.5 -4l-7.5 -2l-10 -49v-66q0 -14 -0.5 -27.5t-0.5 -27.5v-41q0 -55 1.5 -107.5t3.5 -106.5l4 -106t2 -107v-2q0 -5 -1 -8t-7 -5q-48 -8 -103 -14.5t-106 -6.5q-5 0 -12 0.5t-12 0.5h-2l-5 10z" />
    <glyph glyph-name="FL0055h" unicode="U" horiz-adv-x="1130" 
d="M961 642q0 16 -4.5 44.5t-14 56t-24 47.5t-35.5 20q-11 0 -39.5 -3.5t-59 -10t-54 -16t-23.5 -22.5q0 -49 1.5 -95.5t3.5 -94.5l4 -94t2 -95v-44q0 -17 -0.5 -34t-0.5 -34v-110q4 -9 4 -19q0 -11 -6 -17.5t-14.5 -10t-18.5 -4.5t-18 -2q-3 0 -5.5 -0.5t-4.5 -0.5
q-8 -1 -33.5 -3t-55.5 -3.5t-58.5 -2.5t-41.5 -1h-47q-8 0 -14.5 0.5t-13.5 0.5q-8 0 -16 0.5t-14 0.5h-12v705l-12 9l-228 -40q-2 0 -4.5 -3t-3.5 -5v-9q2 -9 4 -19t4 -21q5 -22 8.5 -42.5t3.5 -46.5v-467q0 -24 -4.5 -40t-12 -27.5t-16.5 -19t-18 -13.5q-13 -10 -22.5 -20
t-10.5 -29h768l149 -2q10 0 28 7.5t35.5 19t30.5 25t13 24.5q0 4 -10.5 7.5t-24.5 8.5q-12 4 -25 8.5t-24.5 11.5t-18.5 16.5t-7 22.5v448q8 8 9.5 16.5t1.5 18.5v3zM407 116h3q2 0 4 -0.5t4 -0.5h47q13 0 41 1t58 2.5t55 3.5t33 3h8q1 0 2 0.5t2 0.5h5q11 2 20.5 4.5
t9.5 7.5q0 4 -4 13v116q0 5 0.5 9t0.5 9v94q0 48 -2 94.5t-4 93.5q-2 48 -3.5 95t-1.5 96q0 18 26.5 32t61 23t67 13.5t43.5 4.5q17 0 31 -10t26 -27l24 -24q15 -15 25 -38t17 -47t10 -46.5t3 -36.5v-3q0 -13 -1 -22.5t-9 -19.5v-432q5 -2 11 -3.5t12 -3.5q18 -5 32 -11.5
t17 -19.5l32 -30q2 -4 4 -7t2 -8q0 -14 -15.5 -31t-36.5 -31.5t-42 -24t-32 -9.5l-150 2h-784l-37 37h-8q0 22 3 36t8.5 23.5t13 16t16.5 12.5q16 11 29.5 27.5t13.5 55.5v467q0 20 -3 39t-7 39v3q0 1 -0.5 1.5t-0.5 1.5v-1q-2 8 -4 18.5t-4 25.5v14q1 5 7.5 13t13.5 12v2
l239 40l31 -20v-4l37 -37v-654z" />
    <glyph glyph-name="FL0059h" unicode="V" horiz-adv-x="1075" 
d="M1024 796q-25 32 -58 40.5t-68 8.5h-10q-13 0 -30.5 -2.5t-25.5 -17.5l-229 -486l-187 425l-34 34l-3 7l-30 30h-26h-16q-2 0 -4.5 0.5t-4.5 0.5h-94q-42 0 -85 -1.5t-76 -8.5q-22 -8 -25.5 -19t-3.5 -22v-11t1 -7q4 -10 20 -15l27 -27q8 -8 22 -13h3l3 -2t5 -3
q4 -2 3 -2q7 -8 13 -16.5t12 -16.5l-1 1l3 -6l-1 1q2 -4 3 -5t1 -2l1 -1q4 -5 12 -23l51 -102q20 -42 39.5 -80.5t29.5 -56.5q7 -15 20.5 -46t31 -71t36.5 -84.5t35.5 -84.5t30 -72t19.5 -47q5 -18 21 -21l30 -30q5 -6 11.5 -7t14.5 -1q13 0 30 6t35 14t35 17.5t29 16.5
l2 -1q2 2 5.5 3.5t5.5 3.5v-1q2 1 3 2t3 2q17 22 25 45t14 46q4 15 8 29.5t9 25.5q75 159 159 306.5t187 287.5v18q-2 3 -5 5.5t-5 5.5l-27 27v3zM657 191q-6 -12 -10 -27t-8 -31q-6 -23 -13 -44t-17 -36l1 1l-1 -1q-3 -2 -6 -3.5l-7 -3.5q-12 -7 -28.5 -16t-34 -17.5
t-34 -14t-28.5 -5.5q-6 0 -10.5 1t-6.5 8q-6 15 -18.5 46t-29 70.5t-35 83t-35.5 82.5t-30.5 70t-20.5 45q-3 6 -10.5 20.5t-17.5 34.5t-21 43.5t-23 46.5l-40 80q-3 7 -6 12t-5 10q-9 17 -22 38q-14 20 -30.5 39.5t-35.5 35.5q-2 1 -7 4t-12 6q-6 3 -12 5.5l-6 2.5v-1
q-1 5 -1 6v3q0 5 1 10.5t8 7.5q37 8 78 10t81 2h71q8 0 16 -0.5t16 -0.5q11 0 20 -0.5t13 -0.5h1l18 -18l235 -530l258 550q2 7 14.5 8t21.5 1h10q29 0 57.5 -7t48.5 -31q-105 -143 -188.5 -291t-158.5 -304z" />
    <glyph glyph-name="FL0057h" unicode="W" horiz-adv-x="1307" 
d="M763 781l-5 10l-9 9q-4 5 -7.5 8t-14.5 14h-11q-26 0 -37.5 -14.5t-21.5 -31.5h1l-3 -3l-214 -378l-14 382l-37 37v8h-326q-9 0 -17.5 -4.5t-16 -11.5t-12 -15.5t-4.5 -17.5v-6q0 -4 1 -4v-17q3 -2 9 -2l36 -36q13 -2 23.5 -5.5t20.5 -8.5q13 -19 21 -43t12.5 -50.5
t5.5 -54t1 -51.5v-180q0 -4 0.5 -8t0.5 -8v-111q0 -4 -0.5 -7.5t-0.5 -7.5v-99q-9 -16 -16 -40.5t-7 -56.5h8l37 -37q32 0 54 5t42 11l2 1q1 0 3 1t4 1t4 1q17 5 33.5 9t33.5 4q3 0 11 -4q12 -7 24 -7q28 0 38 16.5t15 35.5q1 6 7 17l52 103h-1q39 75 83.5 148t99.5 139
l252 -414q9 -14 14 -20t14 -8l29 -30q6 -6 12.5 -7t19.5 -1q29 0 59.5 3t62.5 6q5 1 11 1t11 1t10 1q6 0 11 1q24 2 48.5 4.5t46.5 3.5q17 5 20 16.5t3 22.5v4q0 1 -0.5 2t-0.5 3v18l-37 37v7q-1 0 -3 0.5t-3 0.5h1q-2 1 -5.5 1.5t-6.5 1.5q-10 4 -12 5q-3 0 -4 1
q-17 4 -30 12v18q0 4 -0.5 8t-0.5 8t-0.5 7.5t-0.5 7.5v108q0 4 0.5 7.5t0.5 7.5v27q0 5 0.5 10t0.5 9v12q2 16 6.5 50t10 77t12 90.5t12.5 90.5t11 77.5t8 50.5v5q1 1 1 3q0 14 -8 22l-31 30q-4 11 -13.5 16t-23.5 5h-14q-4 -1 -8 -1.5t-9 -1.5q-4 -1 -7.5 -1.5t-8.5 -1.5
q-11 -2 -21.5 -3.5t-18.5 -3.5q-15 -2 -26.5 -4t-12.5 -2l-28 -20v-448l-230 396zM1196 808q0 -1 -0.5 -1.5t-0.5 -1.5v-1q-3 -16 -8 -50.5t-11 -78t-12 -91t-11.5 -91t-10 -77.5t-6.5 -50v-5q0 -5 -0.5 -12t-0.5 -16v-27q0 -8 -0.5 -15t-0.5 -14v-79q0 -8 0.5 -15t0.5 -15
t0.5 -15.5t0.5 -13.5v-13q4 -14 13.5 -24.5t21 -18t24.5 -13t26 -9.5q7 -4 14 -5v-6q0 -2 0.5 -4t0.5 -3v-2q0 -6 -1 -12t-8 -8h1q-27 -1 -55.5 -4t-57.5 -6q-37 -4 -73 -7.5t-70 -3.5q-12 0 -16 3t-13 17l-259 427v-1q-2 4 -12 13t-18 18q-4 3 -7 6l-5 5q-4 1 -6 1
q-1 0 -1.5 -0.5t-1.5 -0.5h-3q-62 -74 -110 -152t-91 -158l-50 -100q-4 -6 -7 -18q-5 -14 -11.5 -26.5t-23.5 -12.5q-6 0 -14 5q-3 2 -7.5 4t-12.5 2q-22 0 -42 -5t-40 -11t-39 -11t-39 -6q1 17 8 35.5t15 32.5v92q0 14 0.5 28.5t0.5 28.5v83q0 16 -0.5 32t-0.5 31v133
q0 40 -3 84.5t-16 83.5t-38.5 67t-71.5 35v1q0 2 -0.5 3.5t-0.5 3.5q0 10 8.5 18.5t19.5 8.5h304l21 -521l26 26l259 457q1 1 1.5 2t1.5 2q7 13 15.5 23.5t23.5 10.5h4l19 -19h-1l289 -499l20 13v496l12 9q2 0 13.5 2t25.5 5q19 4 39 7.5t33 5.5h9q7 0 12 -2t5 -10z" />
    <glyph glyph-name="FL0058h" unicode="X" horiz-adv-x="1025" 
d="M36 12v-35q23 4 50 10.5t53.5 16t50 22t40.5 29.5l239 239q4 1 6 1t6 -1q3 -1 10.5 -9t10.5 -12l139 -159q15 -17 31.5 -32t37.5 -26q24 -12 53 -21.5t59.5 -15.5t61.5 -9.5t59 -3.5h2l4 8l5 10q1 3 1 5l-1 3l-88 88l-233 327l222 233v168q0 2 -6.5 8t-11.5 9l-4 1l-4 -1
l-281 -292l-179 252q-14 1 -17 1h-9h-10q-3 0 -6.5 -0.5t-6.5 -0.5h-19q-14 -2 -51.5 -5t-77.5 -7q-29 -3 -52.5 -5t-34.5 -3v-25q1 -1 3 -1q16 -8 35.5 -20t30.5 -29l18 -24t27.5 -36t33 -43.5t35.5 -47.5q34 -44 63.5 -82t41.5 -55l22 -32zM14 21l353 390l-6 10
q-6 8 -17.5 23.5t-26 35t-31.5 42t-34 44.5l-8 10l-8 10q-5 5 -8.5 11t-7.5 11q-26 32 -47 59.5t-32 42.5q-6 4 -10 6q-2 1 -5.5 2.5t-5.5 3.5q-2 0 -6 2q-2 1 -3.5 1.5t-3.5 2.5l-32 31q-3 0 -3 1q-5 2 -8 7v59q5 0 17 1t27 2.5t31.5 2.5t31.5 3q7 1 13 1q7 0 15 1
q11 1 21.5 2t20.5 2q14 1 27 2.5t22 2.5q3 0 5.5 0.5t4.5 0.5h29q1 0 2 0.5t2 0.5h10h15t24 -1l10 -15h-1l29 -29l135 -192l265 275q6 2 7 2h6q5 0 9 -1q9 -5 20.5 -17t13.5 -19l23 -22q5 -7 10 -12.5t5 -8.5v-175l-217 -228l218 -305l59 -58q0 -2 0.5 -3.5t0.5 -2.5l36 -35
q2 -7 2.5 -8.5t0.5 -3.5q0 -4 -0.5 -6t-3.5 -11l-3 -6q-1 -2 -2.5 -4t-11.5 -15h-10q-29 0 -61.5 3.5t-64 10t-61.5 16t-54 21.5q-16 8 -29 18.5t-26 23.5l-11 11q-15 11 -27.5 22.5t-23.5 25.5l-114 132l-229 -229q-19 -19 -46 -33.5t-57.5 -25t-61.5 -17.5t-58 -11l-37 36
q-2 0 -3 -0.5l-5 -2.5v73z" />
    <glyph glyph-name="FL0056h" unicode="Y" horiz-adv-x="1015" 
d="M403 -62q6 -6 14.5 -8t16.5 -2q2 0 3 0.5t3 0.5h5q57 0 116.5 11t104.5 22v98q0 6 -0.5 12t-0.5 13v47q0 15 0.5 30t0.5 29v80q1 31 7.5 68t19 74t30.5 71.5t42.5 61t55.5 42.5t68 16q8 0 16.5 -2t18.5 -4t20.5 -4t24.5 -2q12 0 23.5 7t11.5 25v7q-2 7 -7 23.5t-10 34.5
t-9 33t-5 20q-4 14 -16 26l-4 3l-22 23l1 -1q-8 15 -21 24t-28.5 13.5t-32 5.5t-31.5 1h-10q-45 0 -81.5 -16t-65 -42t-50.5 -61t-39 -72q-7 -14 -13.5 -33.5t-12.5 -40.5q-11 47 -29.5 87t-47.5 72l-17 16q-30 42 -78.5 66t-127.5 24q-26 0 -65.5 -12t-76.5 -33t-64 -49
t-27 -60v-6t1 -4q2 -5 10 -12.5t13 -9.5l28 -27q7 -7 13 -10l4 -1h6q8 1 15.5 1.5t15.5 0.5q45 0 78.5 -10t59.5 -28q27 -32 46.5 -73.5t35.5 -93.5q1 -4 3 -19.5t4.5 -32.5t4 -31t1.5 -16v-315q0 -12 6 -18.5t14 -9.5zM45 672q-5 3 -8 8l-1 3q0 27 24.5 51t58 42.5t69.5 29
t59 10.5q73 0 119 -23.5t73.5 -63.5t41.5 -93.5t24 -112.5l10 -52h23q5 0 8.5 16t11.5 39q8 29 17.5 61.5t17.5 50.5q15 35 35.5 67t47 57t59.5 39.5t74 14.5h10q13 0 28.5 -1t29 -4.5t24 -11.5t14.5 -22q1 -5 5 -20t9 -32.5t9.5 -33.5t6.5 -23v-4q0 -8 -5 -10.5t-11 -2.5
q-10 0 -19.5 2t-19.5 4l-20 4t-21 2q-41 0 -74 -17t-59.5 -45t-46.5 -64.5t-33.5 -75.5t-20.5 -78t-8 -72v-37q0 -21 -0.5 -47t-0.5 -55v-47q0 -13 0.5 -25.5t0.5 -23.5v-58q-21 -5 -46 -10t-51.5 -9.5t-53 -7.5t-50.5 -3h-2q-2 0 -4 -0.5t-5 -0.5q-7 0 -13.5 1.5t-6.5 7.5
v315q0 2 -1.5 17t-4 33t-4.5 34t-3 20q-17 58 -39.5 105.5t-55.5 81.5t-78.5 53t-107.5 19q-9 0 -18 -0.5t-18 -1.5z" />
    <glyph glyph-name="FL005Ah" unicode="Z" horiz-adv-x="908" 
d="M12 24l18 -40h6l37 -37h605q25 0 62.5 10t72.5 29t59.5 46t24.5 60l-38 37v2q0 1 0.5 3t0.5 3h-58q-25 0 -58 0.5t-68 1.5q-9 0 -18 0.5t-18 0.5h-35q-36 1 -64 1h-41q-5 0 -10.5 -0.5t-13.5 1.5l387 571v49l-37 36v8h-714q-4 0 -15.5 -25.5t-24 -60t-22.5 -68.5t-10 -52
h8l36 -37h55q38 46 92 60.5t113 14.5q20 0 39.5 -1t39.5 -3q4 0 7.5 -0.5t7.5 -0.5zM482 656q3 3 6.5 11t4.5 10q0 4 -1 6q0 -1 -3 4q-18 0 -38.5 1t-42.5 3q-25 2 -51 3.5t-53 1.5q-62 0 -118.5 -14.5t-94.5 -59.5h-29q1 15 7.5 42.5t15 54.5t16.5 46.5t11 19.5h693v-27
l-419 -617q12 -5 28 -9t32.5 -7t30.5 -4.5t23 -1.5h41t64 -1q50 -1 104.5 -2t92.5 -1h35q-2 -25 -24.5 -45t-53.5 -34.5t-64.5 -22t-55.5 -7.5h-594l-9 17z" />
    <glyph glyph-name="FL005Bh" unicode="[" horiz-adv-x="826" 
d="M73 16q26 -26 56.5 -44t59.5 -29q35 3 64.5 5t57 3.5t54 2t55.5 0.5h81q38 0 74 -2t73 -4q38 -2 83 -4t83 -2v58q0 22 -1 49t-5 52.5t-11 47t-19 33.5l-25 24q-8 14 -17 22t-23 8q-29 0 -45.5 -22t-33.5 -51q-11 -22 -24 -39.5t-28 -17.5h-10q-2 0 -2.5 0.5t-1.5 0.5h-9
q-21 2 -54 5t-59 7v1q-3 0 -5.5 0.5t-4.5 0.5v473q0 2 0.5 4.5t0.5 4.5t-0.5 4.5t-0.5 4.5v47q4 0 9 1h-1q9 1 24 3q14 2 32 4t36 4.5t35 4t29 2.5h7q2 0 4.5 0.5t4.5 0.5h6l12 -19q1 -2 2 -3.5t2 -3.5q11 -20 22 -36.5t28 -25.5l-1 1l26 -25q8 -8 17.5 -13t21.5 -5
q21 0 33.5 20t18.5 49.5t8 63.5t2 61v56l-37 36v8q-37 0 -84 -2t-85 -4q-37 -2 -73 -4t-73 -2h-82q-29 0 -55.5 0.5t-54 2t-57.5 3.5t-65 5q-35 -13 -71.5 -35.5t-64.5 -60.5q8 -19 17 -29t19 -16v1l25 -25q9 -10 18.5 -14.5t20.5 -7.5q0 -11 1.5 -19.5t9.5 -17.5v-440
q0 -26 -13 -33.5t-29 -11.5q-18 -5 -37.5 -15t-33.5 -41q11 -14 24 -26t27 -23zM135 660h9q-6 26 -22 35t-34 15q-15 5 -29.5 11t-22.5 23q21 27 53 45.5t64 31.5q34 -3 64 -5t57 -3.5t53 -2t53 -0.5h82q37 0 73.5 2t73.5 4t73.5 4t72.5 2v-39q0 -25 -1.5 -55.5t-6 -57
t-12.5 -44.5t-22 -18q-20 0 -33 19t-26 42q-14 26 -30.5 47.5t-41.5 21.5q-2 0 -6 -0.5t-8 -0.5h-9q-15 -1 -37.5 -3.5t-45 -5.5t-42.5 -6t-32 -4q-5 -1 -7 -1h-6l-12 -12v-46q0 -4 0.5 -7.5t0.5 -8.5t-0.5 -9t-0.5 -9v-508l12 -12q6 -1 9.5 -1.5t7.5 -1t9 -1t13 -1.5
q15 -2 32.5 -4t35.5 -4.5t34.5 -4t28.5 -2.5h9q4 0 8 -0.5t6 -0.5q25 0 41.5 22t30.5 48q13 23 26 42t33 19q14 0 22 -18t12.5 -44.5t6 -57t1.5 -55.5v-39q-36 0 -72.5 2t-73.5 4t-73.5 4t-73.5 2h-82q-27 0 -53 -0.5t-53 -2t-57 -3.5t-64 -5q-31 12 -63 30.5t-54 44.5
q9 17 23 23.5t29 11.5q11 3 21 6.5t18 10.5t13 18.5t5 30.5v448q-8 8 -9.5 16t-1.5 18h1z" />
    <glyph glyph-name="FL005Ch" unicode="\" horiz-adv-x="653" 
d="M60 778q-5 -2 -8.5 -4t-7.5 -4h1l-8 -5l350 -804q1 -1 3 -1q12 0 39.5 6.5t58 15.5t57.5 17.5t38 13.5l-365 828l-128 -48zM78 813l153 56l5 -14l33 -33l378 -859q-7 -3 -23 -8.5t-37 -12.5t-45 -14t-45.5 -13t-39.5 -9.5t-27 -3.5q-12 0 -19 9l-30 29q-8 3 -13 10
l-359 826l20 13q15 6 22 10l18 9z" />
    <glyph glyph-name="FL005Dh" unicode="]" horiz-adv-x="826" 
d="M647 626q8 8 9.5 16t1.5 18h-2h-8q5 27 21 36t35 14q14 5 28.5 11t22.5 23q-20 27 -52.5 45.5t-63.5 31.5q-35 -3 -64.5 -5t-56.5 -3.5t-53 -2t-53 -0.5h-81q-38 0 -75 2l-74 4t-73 4t-72 2v-39q0 -25 1.5 -55.5t6 -57t12.5 -44.5t22 -18q20 0 33 19t26 42
q14 26 30.5 47.5t41.5 21.5q2 0 6 -0.5t8 -0.5h9q15 -1 37.5 -3.5t45 -5.5t42.5 -6t32 -4q5 -1 6 -1h7l12 -12v-47q-1 -5 -1 -15v-9t1 -9v-508l-12 -12q-12 -2 -17.5 -2.5t-21.5 -2.5q-14 -2 -32 -4t-36 -4.5t-34.5 -4t-28.5 -2.5h-9q-4 0 -8 -0.5t-6 -0.5q-25 0 -41.5 22
t-30.5 48q-13 23 -26 42t-33 19q-14 0 -22 -18t-12.5 -44.5t-6 -57t-1.5 -55.5v-39q36 0 72 2t73 4l74 4t75 2h81q27 0 53 -0.5t53.5 -2t57 -3.5t64.5 -5h-1q31 12 63.5 30.5t52.5 44.5q-10 17 -23.5 23.5t-28.5 11.5q-11 3 -21 7t-18 11t-12.5 18.5t-4.5 29.5v448zM67 588
q-18 6 -28 27.5t-15.5 50t-7 60t-1.5 57.5v60q38 0 84 -2t84 -4q37 -2 73.5 -4t74.5 -2h81q28 0 55 0.5t54.5 2t57.5 3.5t65 5q34 -13 71 -36t66 -61l-1 -1l18 -17q5 -5 10 -11t10 -11q-6 -14 -14.5 -23t-17.5 -14.5t-18.5 -8.5t-18.5 -6q-10 -3 -18.5 -6.5t-13.5 -9.5v-16
q0 -13 -1.5 -22.5t-9.5 -19.5v-445q1 -1 4 -1q17 -5 34.5 -14t32.5 -34h-1l21 -19l1 -1q12 -12 20 -27q-28 -35 -64.5 -58t-70.5 -37q-35 3 -65 5t-57.5 3.5t-54 2t-54.5 0.5h-82q-37 0 -73.5 -2t-74.5 -4q-37 -2 -81 -4t-81 -2l-37 37h-8v61q0 28 2 62t8.5 64t19 50
t34.5 20q20 0 34 -11t25 -28h-1l22 -21q11 -11 19.5 -25t16.5 -29q1 -3 2 -6.5t3 -8.5q4 -1 10 -1h9q1 0 2 0.5t3 0.5h9q22 2 55 5.5t61 7.5q1 0 2 0.5t3 0.5t4 1q5 1 9 1h8q5 1 9 1.5t9 1.5v497q-1 5 -1 10v10q0 7 -0.5 12t0.5 9q-1 0 -1.5 0.5t-2.5 0.5q-29 4 -61 7.5
t-54 5.5h-9q-2 0 -4.5 0.5t-4.5 0.5h-5q-18 0 -31 -18t-24 -40q-16 -28 -32 -50t-44 -22q-14 0 -26 12z" />
    <glyph glyph-name="FL005Eh" unicode="^" horiz-adv-x="521" 
d="M169 818q-20 0 -25 -10t-5 -21q-10 -13 -23.5 -34.5t-27.5 -47.5t-27 -52.5t-23.5 -48.5t-17 -36l-6.5 -14v-39h8l36 -36q9 0 19.5 -0.5t21.5 -0.5h64q3 0 5.5 -0.5t4.5 -0.5h33q3 0 8 0.5t14 2.5q1 2 5 13l8 22q5 16 12 36t15 40q3 -9 6.5 -17t6.5 -16q5 -12 8.5 -23.5
t4.5 -13.5q3 -3 6 -3l1 -1l37 -34q9 -2 13 -2.5t8 -0.5h34q2 0 4.5 0.5t5.5 0.5h64q11 0 22.5 0.5t20.5 0.5v36q0 1 -14 32t-34 71.5t-41.5 79t-37.5 54.5l1 -1q-4 8 -8 12l-29 28q-3 8 -7 13t-12 7l1 -1q-3 2 -5 3t-6 1zM318 795l2 -2q5 -1 7 -9q9 -8 22 -27.5t27 -44.5
t27.5 -52.5t24.5 -50t17.5 -37.5l6.5 -15v-17q-16 0 -29.5 -0.5t-24.5 -0.5h-34q-5 0 -9 -0.5t-7 -0.5h-29h-8q-1 3 -3.5 10t-6.5 18q-5 16 -12.5 36t-15.5 39.5t-15.5 35.5t-13.5 23q-7 -7 -15 -24t-16.5 -37.5t-15.5 -41.5t-13 -37q-4 -9 -6 -15.5t-4 -9.5h-8h-27
q-3 0 -6.5 0.5t-8.5 0.5h-35q-11 0 -25 0.5t-28 0.5v17l7 15l17.5 37.5t24.5 49.5t27.5 52t26.5 45t22 28q0 5 1 10t7 5z" />
    <glyph glyph-name="FL005Fh" unicode="_" horiz-adv-x="501" 
d="M6 -24q4 -3 13 -5t13 -3q3 1 9 5.5t11.5 9.5t10.5 10.5t7 8.5l346 1q-1 0 2 5t5 9v-1q7 14 12.5 23.5t10.5 17.5q11 16 16 30.5t5 45.5q0 10 -7.5 13t-15.5 3h-5l-28 -20q-4 -2 -11.5 -6t-9.5 -4l-335 -1q1 0 -2 -6t-5 -11q-2 -11 -6.5 -20.5t-9.5 -19.5
q-10 -20 -18 -40.5t-8 -42.5v-2zM-16 -22q0 27 8 49t19 42q6 12 11 22.5t7 18.5q3 8 9 19t17 11l333 1q6 4 7.5 4.5t2.5 1.5h1l34 23h11q13 0 25 -5t17 -18l28 -29h1l3 -3l3 -3h-1q5 -7 5 -18q0 -36 -6 -52.5t-18 -34.5h-1q-5 -8 -9 -16t-9 -19q-1 -1 -1 -3q-4 -6 -11 -15
t-14 -9l-337 -1q-9 -8 -23.5 -19.5t-21.5 -14.5q-2 0 -8 1.5t-13.5 4t-14.5 6t-10 7.5l-31 30l-9 6q-1 1 -2 1.5t-2 1.5v10z" />
    <glyph glyph-name="FL0060h" unicode="`" horiz-adv-x="371" 
d="M28 812q-11 0 -17 -4t-9 -10t-3.5 -12.5t-0.5 -11.5q0 -11 7 -24.5t18 -28.5t25.5 -30.5t29.5 -30.5q17 -18 32 -37t22 -33q1 0 2 -0.5t2 -0.5h2l36 -35q31 -3 50 -3.5t38 -0.5h64q10 0 21.5 0.5t20.5 0.5v37q0 1 -14 21t-34 46.5t-41.5 53t-36.5 41.5l-6 6q-1 0 -1 2h-1
q-2 2 -3 4h-1l-13 12q1 -2 0 -1t-3 4t-5 6.5t-4 5.5l-6 6l1 1q-5 5 -10.5 10t-13.5 5zM176 790l5 -5q1 -1 1.5 -2t1.5 -2q13 -11 34 -36t41.5 -51t35.5 -46t15 -21v-18q-16 0 -29 -0.5t-24 -0.5h-35q-18 0 -35.5 0.5t-39.5 2.5q-6 11 -21 27.5t-33 36.5q-13 14 -26 28.5
t-23.5 27.5t-17 24t-6.5 19q0 5 1 11t7 6z" />
    <glyph glyph-name="a" unicode="a" horiz-adv-x="1075" 
d="M384 628q-76 -157 -159.5 -305t-188.5 -290q20 -24 49 -31t58 -7h9q9 0 21.5 1.5t15.5 7.5l258 549l235 -529l18 -18h1q4 0 13 -0.5t20 -0.5q8 0 16 -0.5t16 -0.5h71q39 0 80.5 2t78.5 10q7 2 8 7.5t1 10.5q0 3 -1 7q-2 2 -14 7q-9 4 -16.5 6.5t-9.5 6.5q-23 17 -45 46
t-34 54q-6 11 -17 32.5t-24 48t-27 54.5t-26.5 52.5t-21.5 43.5t-13 27q-7 15 -20.5 46t-30.5 70t-35 82.5t-34.5 83t-29.5 70.5t-19 46q-2 7 -6.5 8t-10.5 1q-12 0 -28.5 -6t-34 -14t-34 -17t-28.5 -16q-5 -2 -7.5 -4t-5.5 -4q-11 -15 -17.5 -36.5t-12.5 -43.5
q-4 -14 -8 -29t-10 -28zM17 43q103 140 186.5 287.5t159.5 306.5q4 9 7 19t6 21v-1q0 1 0.5 2t0.5 2q0 3 1 5v-1q0 3 2 7q6 22 14 45t26 48q4 1 5 2q-1 -1 2 0.5t5 3.5q8 6 12 8q13 7 29 16t33.5 16t34 12t29.5 5q11 0 20 -2.5t16 -16.5h2v-4l27 -27q2 -3 3.5 -5.5t3.5 -5.5
h1q6 -15 19 -46.5t29.5 -70.5t35 -82.5t35.5 -83t30.5 -70.5t20.5 -46q4 -8 13 -26.5t21.5 -43.5l26.5 -53t27 -54.5t24 -48t17 -32.5q5 -11 10.5 -20.5t11.5 -19.5l7.5 -7.5t7.5 -5.5l19 -7q6 -2 13 -7t11 -8q0 -1 1 -1h2q0 -1 0.5 -3t0.5 -3v-1l36 -36q2 -9 2 -11v-5
q0 -10 -3.5 -20t-23.5 -18q-34 -8 -76 -9.5t-84 -1.5h-87q-4 0 -7.5 0.5t-8.5 0.5q-8 0 -14 0.5t-11 0.5h-16l-37 37h-4l-30 30l-189 423l-228 -485l-1 1q-8 -11 -24.5 -14t-27.5 -3h-9q-31 0 -60.5 7t-52.5 30l-21 21v-1q-8 5 -16 12t-16 18v20z" />
    <glyph glyph-name="b" unicode="b" horiz-adv-x="905" 
d="M9 756l5 -2.5t8 -2.5l34 -34q5 -2 8.5 -3t8.5 -3q8 -4 16.5 -7t16.5 -8q7 -14 7 -28v-645q0 -7 17 -15l28 -28q3 -3 16.5 -11.5t22.5 -10.5l1 -1q38 -8 69.5 -10t66.5 -2h24q6 0 11.5 0.5t12.5 0.5h54q44 0 95 3.5t102 13t98 28t83.5 48.5t58 74t21.5 104q0 42 -12.5 72
t-34.5 52l-18 18q-17 25 -43 42.5t-58 28.5q26 14 49 30.5t40 37.5t27 47t10 61q0 34 -11 58.5t-30 43.5l-3 2l-16 18q-17 25 -43.5 42t-56.5 28t-62 17.5t-61 10.5h-104q-5 0 -9 0.5t-8 0.5h-138q-5 0 -9.5 -0.5t-9.5 -0.5h-131q-13 0 -31.5 -2.5t-37 -6t-34.5 -7t-25 -6.5
l-8 3zM46 797q0 1 13.5 2t32 2.5t38 2.5t32.5 1h80q17 0 34.5 0.5t35.5 0.5h94q14 0 29.5 -0.5t31.5 -0.5h102q35 -5 75 -14t73.5 -26.5t56 -46t22.5 -72.5q0 -40 -15 -68.5t-39.5 -49.5t-55.5 -37t-63 -31q-4 -2 -8.5 -4t-8.5 -4v-15q43 -8 84.5 -18.5t73.5 -30t51.5 -51
t19.5 -81.5q0 -56 -21 -96t-55.5 -68t-79.5 -45t-94 -26.5t-98 -12.5t-91 -3h-53q-13 0 -25 -0.5t-24 -0.5q-32 0 -62 2t-68 10q-7 1 -18 3.5t-11 3.5v645q0 25 -8 41.5t-21.5 27.5t-31.5 18.5t-37 14.5zM368 122q0 -17 12 -27.5t28.5 -16t33.5 -7.5t28 -2q33 0 58 13.5
t41.5 36t24.5 51.5t8 61q0 54 -20 87t-53 50.5t-75 23t-86 5.5v-275zM368 457q37 3 70.5 10t59 22.5t40.5 41.5t15 68q0 67 -41 105t-112 38q-2 0 -6.5 -0.5t-9.5 -0.5h-16v-284zM580 231q0 -27 -7 -52t-20.5 -45t-34 -32t-48.5 -12q-8 0 -20 1t-24 3v245q36 -1 70 -6.5
t61 -20.5q11 -15 17 -35t6 -46zM435 683h5q43 0 75 -17l-2 1q18 -29 18 -68q0 -54 -29.5 -78t-75.5 -34v195q2 0 4.5 0.5t4.5 0.5zM124 21l-1 1q1 0 1 -1z" />
    <glyph glyph-name="c" unicode="c" horiz-adv-x="826" 
d="M112 159q0 -14 3 -37t10.5 -47.5t19.5 -47t29 -34.5l32 -33q9 -8 19 -13t27 -5l-23 23l18.5 2.5t46.5 6.5t61 9.5t61 12t46.5 13.5t18.5 13v3l-49 137l4 497q4 0 9 1h-1q9 1 24 3q14 2 32 4t36 4.5t35 4t29 2.5h7q2 0 4.5 0.5t4.5 0.5h6l12 -19q1 -2 2 -3.5t2 -3.5
q11 -20 22 -36.5t28 -25.5l-1 1l26 -25q8 -8 17.5 -13t21.5 -5q21 0 33.5 20t18.5 49.5t8 63.5t2 61v56l-37 36v8q-37 0 -84 -2t-85 -4q-37 -2 -73 -4t-73 -2h-82q-29 0 -55.5 0.5t-54 2t-57.5 3.5t-65 5q-34 -13 -71 -36.5t-66 -60.5q8 -18 18 -28.5t21 -16.5l-1 1l23 -23
q11 -11 23.5 -15.5t23.5 -8.5l1 -0.5t2 -0.5v-1q1 -2 1 -7v-441q-8 -11 -9.5 -21t-1.5 -21v-3zM134 159v3q0 10 1.5 18.5t9.5 16.5v448q0 18 -5 29.5t-13 18.5t-18 10.5t-21 6.5q-15 5 -29 11.5t-23 22.5q21 27 53 45.5t64 31.5q34 -3 64 -5t57 -3.5t53 -2t53 -0.5h82
q37 0 73.5 2t73.5 4t73.5 4t72.5 2v-39q0 -25 -1.5 -55.5t-6 -57t-12.5 -44.5t-22 -18q-20 0 -33 19t-26 42q-14 26 -30.5 47.5t-41.5 21.5q-2 0 -6 -0.5t-8 -0.5h-9q-15 -1 -37.5 -3.5t-45 -5.5t-42.5 -6t-32 -4q-5 -1 -7 -1h-6l-12 -12l-4 -506l50 -137q0 -5 -12 -11
t-30 -12q-14 -4 -29.5 -7.5t-31.5 -7.5q10 2 15 2q-22 -5 -44.5 -9.5t-41 -8t-30 -5.5l-11.5 -2q-5 0 -9 2q-1 0 -1 -1h-1l-2 1q-17 6 -28.5 26t-19 44.5t-10.5 48t-3 37.5zM195 3l-8 9l11.5 0.5t30 2t42.5 4t49 5.5q-19 -4 -38 -7.5t-35.5 -6t-29 -4.5t-18.5 -3h-4z" />
    <glyph glyph-name="d" unicode="d" horiz-adv-x="1044" 
d="M14 13q0 -6 9 -16t16 -12l28 -28q10 -10 16 -10h770l188 94l-90 140l-1 -1l-296 595l-8 7h2l-5 4l-22 22l-4 8l-9 8l-22 22h-21q-14 -3 -35 -8.5t-42.5 -13.5t-40.5 -19t-29 -24q-5 -5 -9.5 -17.5t-8.5 -24.5q0 -1 -0.5 -2t-0.5 -2v-1q-2 -5 -2.5 -7t-1.5 -8
q-18 -47 -45.5 -101.5t-51.5 -100.5l-6 -12q-1 -2 -1.5 -3.5t-1.5 -3.5l-2 -4t-3 -5l-55 -97q-6 -11 -13 -21v1q-15 -26 -31.5 -55.5t-33.5 -58.5v1q-2 -4 -3 -5q-17 -29 -33.5 -58t-31.5 -55.5t-27.5 -48t-19.5 -34.5q-3 -5 -5.5 -9.5t-4.5 -7.5q-5 -8 -8.5 -17.5
t-3.5 -10.5zM36 13l4 7t6 11q4 8 15.5 27t27 46t34.5 59.5t39 67.5q24 41 47 81.5t42.5 74.5t33.5 58.5t19 33.5q4 7 7.5 14l7.5 15q23 44 49.5 97t45.5 102l6 20q4 12 7.5 25t4.5 14q9 11 26.5 20.5t38 17t40.5 12.5t34 8h8l18 -17l300 -601l75 -118l-165 -82h-764
q-2 0 -4.5 2.5t-2.5 4.5zM249 153v-2q0 -3 4 -7t7 -5q4 -1 13 -3t18.5 -3.5t18 -2.5t11.5 -1h309l44 11l-212 422h-14zM483 469l157 -314l-17 -4h-296z" />
    <glyph glyph-name="e" unicode="e" horiz-adv-x="825" 
d="M65 189q-6 -16 -14.5 -42t-17 -51t-14 -43.5t-5.5 -19.5v-49h8l37 -37h659q7 0 17 14.5t20.5 36t21 47t19 48.5t13.5 39.5t5 19.5q0 19 -9 28l-31 30q-4 8 -11.5 14t-19.5 6h-6q-2 0 -10 -1t-18 -2.5t-19.5 -3.5t-14.5 -3h-472q8 5 18 18.5t17 21.5h400q8 0 14.5 9
t9.5 15q21 48 37 92.5t16 94.5q0 11 -5 19h1l-3 3l-3 3h-1l-29 28q-2 6 -5.5 18.5t-8.5 15.5q11 0 20.5 0.5t17.5 0.5h28q28 43 48 100t20 113l-37 36v8h-60q-16 0 -45.5 -0.5t-67 -1.5t-80.5 -1.5t-88 -1.5q-6 0 -11.5 -0.5t-11.5 -0.5h-23q-40 -1 -78 -1t-70 -1t-57 -1.5
t-39 -0.5q-9 -4 -16 -13t-12 -19t-8.5 -20t-5.5 -16q-4 -11 -10 -29.5t-12.5 -38l-12 -36t-6.5 -22.5v-8q0 -16 6 -23t14 -9l33 -12q6 -6 14.5 -7t16.5 -1h27q16 0 45 0.5t67 1t82 1.5t89 2h26q39 1 78 1t73 1l-27 -35h-1q-1 -1 -2.5 -1.5t-7.5 -4.5h-395q-11 0 -18 -11
t-10 -20v-2q-6 -18 -14.5 -45t-17 -55.5t-14 -55.5t-5.5 -44v-11q3 -4 11 -9l1 -1l32 -30q3 -5 11 -8.5t16 -5.5h-82q-11 0 -18 -11t-9 -20zM679 199q3 1 11.5 2.5t18 3t18 3t10.5 1.5h6q7 0 9.5 -5t2.5 -12q0 -3 -4 -18t-10.5 -35.5t-15 -44t-17 -43t-16.5 -32.5t-14 -13
h-642v27q0 1 5.5 18t13 41t16 48.5t14.5 40.5q2 5 5 11.5t2 6.5h587zM104 725q2 0 2 4q1 4 3.5 12t6.5 17t8 16.5t9 10.5q16 0 46 0.5t67.5 1.5t81.5 1.5t89 1.5t88 1.5t80.5 1.5t67 1.5t45.5 0.5h38q0 -23 -5 -49.5t-13.5 -52.5t-19 -49.5t-22.5 -41.5q-16 0 -45.5 -0.5
t-67 -1.5t-80.5 -1.5t-88 -1.5t-89 -2t-82 -1.5t-67 -1t-45 -0.5h-27q-7 0 -13 1.5t-6 10.5v4q1 6 6 21.5t11 34t12 35.5t9 26zM125 285q0 16 5.5 40.5t13 51.5t15.5 52.5t14 42.5q1 2 1 3q0 2 1 4q2 5 5 11.5t2 6.5h397q2 0 10 4t11 6l28 19h5q8 0 15.5 -3t7.5 -13
q0 -47 -15.5 -95t-35.5 -93v1l-4.5 -9t-1.5 -5h-409q-2 -3 -7 -8.5t-11 -11t-12 -10t-9 -5.5q-3 0 -12.5 2.5t-13.5 5.5v3z" />
    <glyph glyph-name="FL0066h" unicode="f" horiz-adv-x="795" 
d="M15 704q3 -3 6 -3l1 -0.5t2 -0.5l36 -34q4 -2 9 -2.5t10 -2.5q8 -2 16.5 -4.5t16.5 -4.5q2 -8 2 -12v-660h8l37 -37l269 4l-1 349l212 29h3q3 1 12 5.5t14 7.5q11 8 27 24t26 27q8 9 9.5 11t3.5 4v50l-36 37v8h-271v155l5 5l-3 2q4 -1 15 -0.5t26.5 2t33 3.5t35.5 4
q12 1 22 1.5t18 1.5h25q2 0 3.5 0.5t3.5 0.5h10h7t10 -1l70 -69l2 2l38 -38l36 36v190l-37 36v8q-66 0 -138 -2t-135 -4q-62 -2 -124.5 -4t-129.5 -2h-46q-24 0 -47 1q-3 -2 -10 -5.5t-16 -8.5q-12 -8 -24.5 -16t-22.5 -15q-4 -2 -6.5 -4t-4.5 -4q-17 -13 -23 -20.5
t-6 -24.5v-6q0 -4 1 -4v-15zM37 722q0 2 -0.5 3.5t-0.5 3.5q0 10 4.5 15t15.5 13q2 1 9 6t17 11t20.5 12.5t19.5 11.5h-1q2 1 5.5 3.5t6.5 4.5q23 -1 44 -1h43q67 0 129.5 2t124.5 4q63 2 124.5 4t126.5 2v-166l-17 -17l-98 98q-15 1 -19 1h-10h-9q-3 0 -6.5 -0.5t-6.5 -0.5
h-19q-17 -2 -44 -5t-52.5 -6t-44.5 -6t-20 -4l-11 -11v-223h308v-26l-3.5 -3.5t-4.5 -5.5q-10 -11 -25.5 -27t-25.5 -23q-2 -2 -9 -5.5t-9 -3.5l-231 -29l1 -348l-233 -4v638q0 23 -9 37t-23 22.5t-31.5 13t-35.5 8.5v1zM388 700l3 -1l-2 -2z" />
    <glyph glyph-name="FL0067h" unicode="g" horiz-adv-x="886" 
d="M597 375q2 -2 4 -2l1 -1l37 -34q2 -1 3 -1t3 -1t5 -1.5t6 -2.5q1 -3 1 -10l1 -144q-9 -1 -18.5 -0.5t-20.5 -0.5q-7 0 -13.5 -0.5t-13.5 -0.5q-2 0 -2.5 -0.5t-2.5 -0.5h-5h-15t-15 -1q-26 -2 -51 -3t-50 -1h-31q25 46 35 76t18 56h-1q0 3 1 5q2 6 3 10q0 1 2 7
q1 4 2 8.5t3 10.5q0 1 0.5 2.5t0.5 3.5q2 7 3 13t1 11q0 3 -1 5l-2 4l-8 8h18q0 7 -13 33t-32.5 59.5t-42.5 69.5t-44 64q18 2 38.5 3.5t26.5 1.5q12 1 46 2t76.5 2t85.5 1.5t72 0.5h42q10 9 23.5 25.5t27.5 35.5t26 37.5t18 31.5q2 6 2 7v5l-2 8q-1 2 -3.5 5t-4.5 6l-29 28
v2q-2 5 -11.5 13t-15.5 10q-6 -1 -20 -3t-30 -3.5t-30 -2.5t-20 -1h-422q-5 0 -9 0.5t-8 0.5h-60q-2 0 -3.5 0.5t-3.5 0.5h-6q-3 -2 -8.5 -7t-11.5 -11t-11.5 -11t-6.5 -7q-11 -13 -28 -32t-31 -33t-22 -23t-8 -15v-25l202 -263l-151 -244l-15 -15q-5 -7 -14 -23t-19 -34
t-18.5 -34.5t-11.5 -22.5q0 -1 -0.5 -2t-0.5 -2v-7v-6q0 -1 2 -7l9 -9q5 -5 7 -6.5t8 -4.5l27 -27q4 -5 5.5 -6t9.5 -5l596 -4h18q17 0 35 1.5t30 6.5q22 4 42.5 10.5t36.5 14t25.5 15.5t9.5 16l-4 407l-37 37v8h-33q-2 0 -3 -0.5t-3 -0.5h-49q-17 0 -37 -2l-40 -4
q-2 0 -3.5 -0.5t-3.5 -0.5h-7q-8 -1 -16.5 -1.5t-16.5 -1.5h-3q1 0 1 1q-14 0 -21.5 -4.5t-11 -11.5t-4.5 -14.5t-1 -14.5q0 -2 0.5 -10t2.5 -11zM604 408q0 8 2 15.5t11 7.5q2 0 3 -0.5t3 -0.5q8 1 16.5 1.5t16.5 1.5q23 2 46.5 4.5t43.5 2.5h35q5 0 10 0.5t10 0.5h11
l4 -390q0 -4 -8.5 -8.5t-22.5 -9.5t-32.5 -10t-38.5 -9q-9 -5 -25 -6.5t-33 -1.5h-17l-595 4l-1 1.5t-3 3.5l-3 3l-1 4v2q0 1 0.5 1.5t0.5 1.5v-1l11 22t17.5 33t18 32.5t11.5 20.5l20 20l157 252l-208 268v20l22 23q15 15 32.5 34t28.5 32q1 1 4.5 5t8 8.5l9 9l6.5 6.5
q5 0 8.5 -0.5t6.5 -0.5h28q8 0 17.5 -0.5t23.5 -0.5h422q6 0 19.5 1t29 2.5t29.5 3t21 2.5q2 -1 4.5 -3t3.5 -4l1 -4l-1 -4q-6 -12 -17 -29t-23 -34.5t-24.5 -32.5t-21.5 -23h-34q-29 0 -72 -0.5t-85.5 -1.5t-77 -2t-46.5 -2q-4 0 -18.5 -1t-30.5 -2.5t-30 -3.5t-18 -3
q21 -24 46.5 -61t47.5 -73.5t37 -65.5t15 -36h2q-4 -7 -7.5 -20t-6.5 -26l-6 -24q-2 -5 -2.5 -10t-2.5 -10q-4 -15 -8.5 -30.5t-13 -36t-23 -48t-38.5 -65.5q23 -9 54.5 -12t66.5 -3q32 0 66 1.5t66 3.5q28 2 53 3t45 1l-2 165q0 19 -5.5 31t-15.5 20t-23.5 13t-29.5 9
q-1 3 -1 7v6z" />
    <glyph glyph-name="h" unicode="h" horiz-adv-x="1077" 
d="M117 14l17 -17q48 12 102 24t106 15l8 8v316l389 34v-391q0 -2 8.5 -4.5t13.5 -2.5q1 0 6 1t11 2.5t12 3.5l9 3q8 2 25 8t37 13q27 9 52.5 17t35.5 12q8 4 18 20t18.5 35.5t14.5 38.5t6 29v3q0 1 -5 5t-10 9q-6 5 -10 9t-5 6q-2 3 -4 10.5t-3.5 15.5t-2 14.5t-0.5 9.5v35
q0 12 -0.5 25t-0.5 27v87q0 44 1.5 86.5t3.5 87.5q2 44 4 87t2 88q0 10 -8 16t-17 6q-2 0 -4 -0.5t-4 -0.5h-2q-10 -2 -36 -6t-55 -9t-54 -9t-35 -6l-1 -1q-5 -2 -15.5 -7t-10.5 -9v-269l-11 -11q-1 -1 -14 -2.5t-31 -3.5t-36.5 -3.5t-29.5 -1.5h-22q-5 0 -9.5 -0.5
t-9.5 -0.5h-38q-10 0 -20.5 -0.5t-22.5 -0.5q-21 0 -44 1t-42.5 5t-34 10.5t-19.5 17.5v14q0 5 -0.5 9t-0.5 9v33q0 32 3.5 62.5t8.5 60.5t8 60t3 59h-9q-5 0 -9.5 -0.5t-9.5 -0.5h-31q-10 0 -31.5 -0.5t-48 -1.5t-55.5 -2t-55.5 -2t-47 -2t-30.5 -2h1q-6 -2 -7.5 -7
t-1.5 -10v-7q0 -5 6 -9.5t16 -10.5q9 -5 19.5 -11.5t19 -16t14 -23t5.5 -31.5v-655zM95 6v663q0 6 -1.5 12t-3.5 12q-2 0 -2 2q-5 3 -10.5 6.5t-10.5 8.5l-27 26l1 -1q-11 7 -18.5 14.5t-7.5 21.5v7q0 11 4 22.5t23 16.5q10 0 31 1t47.5 2t56 2t56.5 2t48.5 1.5t31.5 0.5h45
q2 0 2.5 0.5t2.5 0.5h31v-8l37 -36q0 -41 -3 -74t-8 -63q-5 -31 -8.5 -61.5t-3.5 -60.5v-33q17 -2 38.5 -3t43.5 -1q3 0 6.5 0.5t6.5 0.5h82q2 0 2.5 0.5t2.5 0.5h22q10 0 26.5 0.5t31.5 1t26.5 1.5l11.5 1l4 4v261q0 15 14.5 24t23.5 12q3 3 7 3q2 0 3.5 0.5t3.5 0.5
q4 1 8 1.5t9 1.5q13 2 30.5 5t36.5 6q29 5 53 8.5t34 5.5h8q1 0 1.5 0.5t1.5 0.5h5q14 0 26 -7t18 -21l28 -27q12 -9 12 -28q0 -45 -2 -88.5t-4 -87.5t-3.5 -86.5t-1.5 -86.5v-87q0 -7 0.5 -14t0.5 -14v-58q0 -5 1.5 -20.5t4.5 -19.5l24 -23q10 -10 10 -17v-3
q0 -12 -7 -33.5t-17.5 -44t-23 -40.5t-22.5 -23q-5 -2 -16 -5.5t-24 -8.5q-11 -4 -23.5 -7.5t-24.5 -7.5q-9 -3 -17.5 -6t-16.5 -6q-9 -3 -16.5 -5t-11.5 -4q-4 -1 -11 -3t-14 -3.5t-13 -3t-7 -1.5q-8 0 -19 6t-17 12l-30 30q-7 5 -12 9t-5 9v326l-308 -27v-305l-20 -20
q-54 -3 -111 -15.5t-108 -26.5l-38 38l-2 -2z" />
    <glyph glyph-name="i" unicode="i" horiz-adv-x="416" 
d="M29 740q2 -2 4 -2v-1l37 -35q4 -2 12 -4q2 -1 5 -2t5 -2q3 -8 3 -16v-698h7l37 -37q8 0 31 3t52.5 8t61.5 11.5t59 13t44.5 13t17.5 11.5v780l-37 36v8h-32q-2 0 -3 -0.5t-3 -0.5h-49q-14 0 -46 -1t-68 -2.5t-68.5 -3.5t-45.5 -3h-3q1 0 1 1q-13 0 -20.5 -4.5t-11 -11
t-4.5 -14t-1 -14.5q0 -2 0.5 -10t2.5 -11zM35 773q0 8 2 15.5t11 7.5q2 0 3 -0.5t3 -0.5q13 1 45 3t68 3.5t68 2.5t46 1h34q5 0 10.5 0.5t10.5 0.5h11v-763q0 -4 -14.5 -8t-37 -8.5t-50 -9t-53 -7.5t-46.5 -5.5t-30 -2.5v676q0 38 -23.5 56t-56.5 26q-1 3 -1 7v6z" />
    <glyph glyph-name="FL006Ah" unicode="j" horiz-adv-x="839" 
d="M456 768v-6t1 -7q32 -8 56 -26t24 -56l1 -517q-14 -19 -45.5 -25.5t-76.5 -6.5q-42 0 -74.5 4t-61 10.5t-56 16.5t-58.5 22q-27 10 -58.5 21.5t-71.5 24.5l2 -191q0 -1 9.5 -3.5t14.5 -3.5q29 -6 69 -10t82.5 -6t83.5 -3t73 -1q36 0 77 2.5t82.5 11t80.5 23t70.5 38
t52.5 58t28 81.5l2 2q0 3 1 4l5 576h-11q-5 0 -10 -0.5t-10 -0.5h-35q-14 0 -46.5 -1t-68.5 -2.5t-68 -3.5t-45 -3q-2 0 -3 0.5t-3 0.5q-9 0 -11 -7.5t-2 -15.5zM437 747q-2 3 -2.5 11t-0.5 10q0 7 1 14.5t4.5 14t11 11t21.5 4.5q0 -1 -1 -1h3q13 1 45 3t68.5 3.5t69 2.5
t46.5 1h49q2 0 3 0.5t3 0.5h33v-8l37 -36l-5 -611h-5q-9 -49 -32 -84t-56 -60t-73.5 -40t-83 -23t-84.5 -11t-79 -3q-32 0 -74 1t-85 3t-83.5 6t-70.5 10q-8 2 -19.5 9.5t-16.5 12.5l-28 27q-7 5 -12 10t-5 7l-2 221l87 -29t73 -26q31 -12 57.5 -21.5t54.5 -16t59 -10.5
t71 -4q36 0 61.5 4t38.5 14l-1 509q0 8 -3 16q-2 1 -5 2t-5 2q-8 2 -12 4l-36 35l-1 1q-2 0 -4 2z" />
    <glyph glyph-name="k" unicode="k" horiz-adv-x="1086" 
d="M696 7q10 -10 19 -18.5t15 -13.5l6 -4q29 -14 63 -22t70 -12.5t71.5 -5.5t68.5 -1h20q4 0 8 0.5t9 0.5h10q6 8 12 23t7 19v19l-6 12q-1 2 -2.5 4t-9.5 13l-26 25q-2 2 -4 5l-10 14q-3 2 -5 2h-8h-4q-1 0 -7 -2q-2 -2 -4 -3l-20.5 20.5l-23.5 23.5t-23.5 24t-19.5 21
q-18 21 -40.5 49t-47.5 58.5t-50 62t-46.5 59t-38.5 49.5t-25 34l-4 4q-3 3 -3 5q5 21 37.5 51t76 61.5t89.5 60.5t78 49h-1q5 3 14 7.5t10 5.5q13 7 20 13t7 17t-2 18t-7 12l-29 29q-5 18 -20.5 21.5t-39.5 3.5h-234q-14 -54 -42.5 -100t-56.5 -83q2 2 -1.5 -3t-7.5 -10v2
l-2 -2h-2q0 -1 -0.5 -2t-0.5 -2q-1 -1 -1 -2q-4 -6 -5 -7q-3 -5 -7 -8.5t-6 -7.5h1q-3 -3 -5 -7q-1 -2 -2 -3t-2 -3l1 1q-19 -28 -43 -53t-53 -39v7q-1 19 -1 37v36q0 43 3.5 85.5t15.5 90.5v9q0 9 -2 14t-6 9l-31 30q-5 15 -16 17.5t-23 2.5h-18q-11 0 -32.5 -0.5t-49 -1
t-58 -1.5t-58 -2t-49.5 -2t-32 -2h-2l-1 1q-12 0 -19.5 -4.5t-11.5 -11.5t-5 -15t-1 -15q0 -14 7.5 -22.5t19.5 -14.5l25 -25q5 -5 10.5 -9t11.5 -8q7 -12 7 -24v-666q0 -14 5.5 -20t13.5 -8l31 -31q6 -6 14 -7t14 -1h3q1 0 2 0.5t3 0.5h6q19 4 48 10.5t58 14t54 14t38 11.5
l7 -7l17 17v328h2q19 -26 44.5 -57.5t49.5 -61t44 -53.5t29 -34q6 -7 21.5 -23t32.5 -33t33 -32.5t23 -21.5l5 -4q0 -2 3 -2zM703 29q-7 6 -22.5 21.5l-32.5 32.5l-32.5 32.5t-21.5 22.5q-8 9 -24 28t-36 43.5t-41.5 51.5t-41 52t-35 44.5t-22.5 29.5h-44v-339l-10 -10
l-22.5 -5t-54 -11t-65 -12t-55.5 -10h-2q-2 0 -4 -0.5t-4 -0.5q-5 0 -10.5 1t-5.5 7v666q0 18 -5.5 31.5t-13.5 22.5t-18.5 15.5t-19.5 11.5q-11 5 -17.5 10t-6.5 12q0 8 2.5 16t11.5 8q2 0 2.5 -0.5t2.5 -0.5q10 1 32 2t49 2t57.5 2t58 2t49 1.5t32.5 0.5h18q7 0 13 -1.5
t6 -10.5v-4q-12 -48 -15.5 -91.5t-3.5 -89.5v-37q0 -18 1 -37t1 -41v-42q29 0 53.5 10t45.5 26.5t39 37t33 42.5q6 8 13 18t15 21q15 20 31.5 43t32 47.5t28.5 49.5t19 49h217q20 0 30 -3t10 -19q0 2 -11.5 -5.5t-31.5 -20.5q-33 -20 -80 -50.5t-91.5 -63.5t-78 -65
t-38.5 -57v-2q0 -4 3.5 -11.5t7.5 -9.5q10 -14 31 -41.5t48.5 -62t57.5 -72.5t58 -72t50 -60.5t33 -39.5q6 -7 21.5 -22.5t33.5 -33t34 -33.5t24 -23q1 3 4 7t5 5l4 1q2 0 3 -1q0 -2 4 -8l5 -10v-8q-1 -4 -4 -14t-5 -14q-3 0 -8 -0.5t-10 -0.5h-19q-32 0 -67 1t-70 5.5
t-68.5 12.5t-62.5 22zM651 466q0 1 -1 1q0 -1 1 -1z" />
    <glyph glyph-name="FL006Ch" unicode="l" horiz-adv-x="826" 
d="M134 654q0 -10 1.5 -18.5t9.5 -16.5v-448q0 -19 -5 -30.5t-13 -18.5t-18 -10.5t-21 -6.5q-15 -5 -29 -11.5t-23 -22.5q22 -27 54 -45.5t63 -30.5q34 3 64 5t57 3.5t53 2t53 0.5h82q37 0 73.5 -2t73.5 -4t73.5 -4t72.5 -2v39q0 25 -1.5 55.5t-6 57t-12.5 44.5t-22 18
q-20 0 -33 -19t-26 -42q-14 -26 -30.5 -48t-41.5 -22q-2 0 -6 0.5t-8 0.5h-9q-12 1 -28.5 2.5t-34.5 4t-35.5 4.5t-32.5 4q-8 1 -13 1.5t-9 1t-7.5 1t-9.5 1.5l-12 12v508l20 139v1q0 6 -14 13t-35.5 13t-46 12t-46 10t-36 6.5l-14.5 2.5q-20 0 -33.5 -19t-22 -45t-12 -52.5
t-3.5 -41.5v-3zM112 657q0 17 5 47t16 59.5t28.5 51t43.5 21.5l15 -3.5t38 -9t49.5 -13t50 -16t40 -17t19.5 -17.5l33 -31q6 -6 6 -11v-3l-20 -139v-462q2 0 4.5 -0.5t5.5 -0.5v-1q26 -4 59 -7t54 -5h9q1 0 1.5 -0.5t2.5 -0.5h10q15 0 28 17.5t24 39.5q17 29 33.5 51
t45.5 22q14 0 23 -8t17 -22l25 -24q12 -12 19 -33.5t11 -47t5 -52.5t1 -49v-58q-38 0 -83 2t-83 4q-37 2 -73 4t-74 2h-81q-29 0 -55.5 -0.5t-54 -2t-57 -3.5t-64.5 -5q-29 11 -59.5 29t-56.5 44l-12 12q-28 20 -51 50q14 30 33.5 40t37.5 15q16 4 29 11.5t13 33.5v440
q-8 11 -9.5 20.5t-1.5 22.5v3z" />
    <glyph glyph-name="m" unicode="m" horiz-adv-x="1307" 
d="M77 -2q0 -8 5 -10t12 -2h10q12 2 32 5.5t39 7.5q14 3 25 4.5t13 2.5l13 8v497l20 13l289 -499h-1l19 -19h4q15 0 23 10.5t16 23.5q1 1 2 2.5t2 2.5l-1 -1l259 457l26 25l21 -520h304q11 0 19.5 8t8.5 19q0 2 -0.5 3.5t-0.5 3.5q-46 7 -72 35t-38.5 67.5t-15.5 84t-3 84.5
v133q0 15 -0.5 31t-0.5 32v83q0 14 0.5 28.5t0.5 28.5v92q8 14 15 32.5t8 35.5q-20 -1 -39 -6.5t-39 -10.5q-20 -6 -40 -11t-42 -5q-7 0 -11.5 2t-8.5 4q-8 5 -14 5q-17 0 -23.5 -12.5t-11.5 -26.5q-3 -12 -7 -19l-50 -99q-43 -80 -91 -158.5t-110 -151.5q-1 0 -2 -0.5
t-2 -0.5h-2q-2 0 -6 1l-5 5t-7 6q-9 8 -18.5 17.5t-11.5 12.5l-259 427q-8 14 -12 17t-17 3q-34 0 -70 -3.5t-73 -7.5q-29 -3 -57.5 -6t-54.5 -4q-7 -2 -8 -8t-1 -12v-10v-5q3 -1 5.5 -1.5t5.5 -1.5q26 -9 52.5 -23.5t36.5 -44.5v-11q0 -6 0.5 -14t0.5 -17q0 -7 0.5 -13.5
t0.5 -14.5v-81q0 -7 -0.5 -14t-0.5 -15v-27q0 -10 -0.5 -18t-0.5 -12v-2q-2 -16 -6.5 -50.5t-10 -77.5t-11.5 -91t-12 -91t-11 -77.5t-8 -50.5v1q0 -1 -0.5 -1.5t-0.5 -1.5v-2zM55 4q0 1 0.5 1.5t0.5 1.5q3 16 8 50t11 77t12 90.5t11.5 90.5t10 77t6.5 50v17q0 3 0.5 6.5
t0.5 6.5v49q0 2 0.5 3.5t0.5 3.5v81q0 2 -0.5 3.5t-0.5 3.5v21q0 3 -0.5 5.5t-0.5 4.5v28h-1v1q-3 1 -5.5 2t-5.5 3q-5 2 -10 3.5t-9 3.5q-6 0 -8 1l-4 2q-8 2 -11 3l-36 35q-3 0 -4 1q-3 0 -5 4v8q0 2 -0.5 4.5t-0.5 4.5v14q0 11 3 23.5t22 18.5q17 1 35 2.5t36 3.5
q6 1 12 1t12 1q2 0 5 0.5t6 0.5q6 0 10 1q2 0 5.5 0.5t6.5 0.5q5 0 9 1q6 1 12 1q7 0 13 1q26 2 50.5 4t48.5 2q11 0 18 -0.5t11.5 -3t8.5 -8t10 -14.5h-1l24 -24q7 -7 15 -20l250 -414q54 66 98 138.5t85 147.5h-1l54 107q5 11 7 17q3 10 6 19.5t9 17t16 12.5t25 5
q14 0 23 -6q3 -5 11 -5q19 0 37 4.5t38 10.5q1 0 1.5 0.5t1.5 0.5v0q1 0 2 1q20 6 42.5 10.5t59.5 4.5v-7l36 -37q0 -29 -7 -51.5t-15 -38.5v-87q0 -8 -0.5 -14.5t-0.5 -14.5v-111q0 -8 0.5 -16t0.5 -16v-164q0 -46 4.5 -97.5t25.5 -92.5q23 -14 62 -20v-8l37 -37v-20
q0 -1 0.5 -1.5t0.5 -1.5q0 -18 -15 -32t-32 -14h-321l-37 37h-8l-16 387l-212 -377q-2 -2 -3 -4q-10 -17 -21.5 -30t-33.5 -13h-10q-11 11 -14 13.5t-8 7.5l-16 16h-3l-22 22l-10 10l-229 392v-443l-27 -18q-1 0 -12 -2t-26 -5q-14 -3 -29 -5.5t-28 -4.5q-5 -1 -8.5 -1.5
t-7.5 -1.5h-14q-19 0 -27 9l-31 30q-20 7 -20 32v6z" />
    <glyph glyph-name="n" unicode="n" horiz-adv-x="1008" 
d="M675 97q4 -5 12.5 -13t19 -17.5t22 -20t21.5 -19.5q19 -17 38.5 -33.5t28.5 -24.5q3 -2 10 -6t15 -7q7 -3 12 -4.5t12 -3.5t17 -4t27 -6q6 -2 12 -2.5t9 -1.5l21 21v369q0 63 0.5 113.5t2.5 74.5q2 65 9 120.5t30 112.5q0 1 0.5 6t1 10.5t1 10.5t0.5 6l-37 37v7
q-51 0 -96 -6t-82 -17v-1q-14 -3 -18 -13t-4 -19q0 -1 0.5 -1.5t0.5 -1.5v-9q0 -55 2 -106.5t5 -102.5q0 -5 0.5 -10t0.5 -10v-9t1 -9q2 -32 3 -65.5t2 -66.5l-465 454q-7 1 -9 1h-10q-24 0 -48.5 -2.5t-50.5 -4.5q-5 -1 -12 -1q-6 0 -11 -1h-8q-2 0 -5 -0.5t-5 -0.5
q-8 -2 -12 -2q-4 -1 -10 -1l-46 -4t-43 -3q-19 -6 -22 -18.5t-3 -23.5v-14q0 -2 0.5 -3.5t0.5 -3.5v-8q2 -4 6 -4q1 -1 4 -1l35 -35q14 -5 23.5 -10.5t19.5 -10.5q14 -19 18 -47t4 -68q0 -141 -9.5 -274.5t-34.5 -278.5q8 -24 22 -27l30 -30q6 -6 11.5 -7t12.5 -1h14
q9 1 22 3t27 4t27.5 4.5t23.5 4.5q14 2 18.5 3t15.5 4v504q27 -29 61.5 -64t71 -72.5t73 -74.5t68.5 -69l57 -57zM247 550v-527q-4 -1 -7 -1q-2 0 -11 -2q-11 -2 -24.5 -4.5l-27 -5t-26 -4.5t-20.5 -2h-13q-5 0 -8.5 1t-5.5 6q25 142 34.5 275.5t9.5 276.5q0 40 -3.5 69.5
t-15 51.5t-33.5 38.5t-59 30.5v5v10q0 6 1 12t8 8q25 1 51.5 4t55.5 6q35 4 70 7.5t68 3.5h3q2 0 8 -1l484 -472h11q0 54 -2.5 106.5t-4.5 103.5q-3 51 -5 102t-2 106v5q0 2 -0.5 3.5t-0.5 3.5q0 4 2 7.5t8 4.5q35 9 72.5 15.5t73.5 7.5q-2 -6 -2 -9q-24 -59 -30.5 -116
t-8.5 -124q-2 -23 -2.5 -74t-0.5 -114v-362l-8 -7q-21 4 -33 6.5t-19.5 4t-12.5 3.5t-13 5q-3 1 -10 4t-9 5q-7 6 -22 19t-30.5 27t-29 26t-17.5 17l-50 50t-76 77.5t-89 91t-89 90.5t-75.5 77.5t-49.5 51.5h-14z" />
    <glyph glyph-name="o" unicode="o" horiz-adv-x="1115" 
d="M425 190q1 0 1 -1h-1v1zM76 34q1 -2 3.5 -9.5t4.5 -9.5v1q29 -8 67 -10.5t74 -2.5q13 0 25 0.5t22 0.5h48q8 0 18 0.5t19 0.5q13 0 23 0.5t16 0.5h4l30 10q0 2 3 15t7 32.5t7 32.5q0 2 0.5 3t0.5 3v9q0 4 0.5 7.5t0.5 5.5q0 8 -10.5 20.5t-25.5 28.5q-14 14 -29 30.5
t-27.5 35t-20.5 39t-8 43.5v214q0 26 12 61t33 66.5t48.5 53t58.5 21.5h130q31 0 55.5 -22.5t42 -54.5t28.5 -66t16 -58v-60q0 -9 0.5 -17.5t0.5 -16.5v-22q0 -45 -2 -86.5t-13 -77.5t-36 -66t-70 -51q-2 -5 -3.5 -15.5t-4 -23.5t-4.5 -26t-4 -23l-1.5 -12t-1.5 -7
q-1 -4 -1.5 -12.5t-0.5 -13.5h277q25 0 52.5 11t51 29t38.5 41.5t15 49.5q0 1 -0.5 3t-0.5 4v4q-31 -8 -56.5 -9t-54.5 -1h-59q-34 0 -63.5 1.5t-70.5 11.5q52 27 101.5 60.5t88 74t62 90t23.5 109.5q0 58 -19.5 105t-52.5 83.5t-77 62.5t-93.5 43t-101.5 25t-101 8
q-54 0 -112.5 -8t-114.5 -25.5t-106.5 -45t-88.5 -66.5t-60.5 -90.5t-22.5 -116.5q0 -60 24.5 -106t63 -82t86 -64.5t94.5 -53.5l-1 -5h-14q-5 0 -10 -0.5t-10 -0.5h-31q-29 0 -56.5 3.5t-55.5 7.5q-27 4 -54 7t-54 3h-3q-2 -1 -4.5 -3.5t-3.5 -4.5v-8v-1q2 -5 5 -14l7 -21
q8 -23 16 -48.5t12 -34.5zM73 -3q-5 5 -11 15.5t-7 13.5q-2 4 -5.5 13.5t-7.5 21.5t-8 24.5t-7 24.5q-6 20 -11 33l-2 6v16q2 7 11 15.5t15 10.5h7q29 0 56.5 -3t54.5 -7q2 -1 7 -1q2 0 4.5 -0.5t4.5 -0.5q6 -1 12 -1.5t13 -1.5q9 -2 18.5 -3t18.5 -3q-18 13 -35 26.5
t-31 28.5l-8 7q-52 43 -85.5 98t-33.5 130q0 69 23.5 123.5t63 96t92.5 70.5t111.5 47.5t119.5 27t117 8.5q55 0 113.5 -9.5t113 -30t102 -52.5t80.5 -77l8 -7q40 -41 63.5 -93t23.5 -119q0 -48 -13.5 -89t-37.5 -76.5t-56.5 -65t-69.5 -54.5h36q26 0 54.5 2t78.5 15v-10
l37 -37v-26q0 -2 0.5 -3t0.5 -2v-2q0 -30 -17 -57t-43.5 -48t-57.5 -33t-58 -12h-294l-37 37h-8v12q0 8 0.5 16.5t1 16t0.5 9.5q1 4 1.5 7t1.5 8t1.5 10t1.5 10q3 23 7.5 46.5t9.5 36.5q44 21 67.5 49t34.5 61.5t13 72.5t2 81v38q0 2 -0.5 4.5t-0.5 4.5v62q-3 13 -8 31.5
t-12.5 38t-17 38.5t-20.5 35q-12 6 -23 6h-129q-27 0 -51 -19.5t-42.5 -48t-29 -59.5t-10.5 -55v-215q0 -25 11 -48t27 -43v-1h1h1q11 -12 20 -22.5t13 -16.5h-1q1 -1 5 -3q18 -19 30.5 -34t12.5 -29v-5q0 -2 -0.5 -3.5t-0.5 -3.5v-9q0 -1 -0.5 -2t-0.5 -3v-5q-1 -5 -2 -11
l-2 -12q-2 -12 -4.5 -24.5t-6 -23t-8 -17.5t-10.5 -8l-29 -10h-20q-5 0 -11.5 -0.5t-14.5 -0.5q-5 0 -9.5 -0.5t-9.5 -0.5h-88q-6 0 -12.5 -0.5t-12.5 -0.5q-38 0 -77.5 2.5t-68.5 10.5l-8 5l-31 32h-2z" />
    <glyph glyph-name="p" unicode="p" horiz-adv-x="896" 
d="M114 171q1 -23 3.5 -58t5.5 -75t6 -80.5t6 -74.5t5.5 -57t3.5 -27l12 -52q2 0 4 -0.5t3 -0.5h2l36 -35q11 -2 13.5 -2.5t5.5 -0.5q18 0 37.5 4t37 12t31.5 21.5t21 33.5q5 10 12 31t14 47t14 54.5t12.5 54t9 46.5t3.5 31v288l17 -17q5 -5 11 -9t13 -8l-1 1q1 -1 2 -1.5
t2 -1.5h22q2 0 4 -0.5t4 -0.5h24q65 0 131.5 14.5t120.5 47.5t88.5 85.5t34.5 128.5v20q0 2 -0.5 4.5t-0.5 5.5v32q-6 20 -17 37.5t-25 31.5l-19 18q-20 30 -50 49t-64.5 31t-70 18.5t-66.5 10.5h-108q-4 0 -7 0.5t-7 0.5h-149q-63 0 -123 -1.5t-126 -9.5h-1
q-26 0 -31.5 -11t-5.5 -27q0 -18 7.5 -27t19.5 -15l-1 1l27 -26q5 -5 10.5 -8.5t12.5 -6.5q2 -1 4.5 -1.5t3.5 -1.5q0 -3 3 -3q1 -4 1.5 -7t1.5 -7q0 -20 0.5 -59.5t1 -89.5t2 -105t2.5 -105t2 -89.5t2 -58.5zM126 679q-1 18 -6.5 30t-14 20t-19 13t-19.5 10q-13 6 -22 11.5
t-9 16.5q0 6 2.5 11t12.5 5h3q66 8 125 9.5t122 1.5h121q14 0 28.5 -0.5t28.5 -0.5h91q34 -4 74 -11.5t76.5 -23t65 -40t39.5 -63.5v-28q0 -5 0.5 -9.5t0.5 -9.5v-11q0 -71 -32.5 -119.5t-83.5 -79.5t-114 -44.5t-125 -13.5h-25q-4 0 -8 0.5t-7 0.5h-8q-14 8 -22 16t-8 21
q0 2 0.5 3.5t0.5 3.5q39 13 74 28t60.5 37t40.5 53t15 77q0 49 -21.5 78t-55.5 44t-74.5 19.5t-78.5 4.5v-656q0 -10 -3.5 -30.5t-9 -46t-12.5 -54t-14 -53.5t-14 -45t-12 -29q-6 -16 -17.5 -27.5t-26.5 -18.5t-32 -10t-32 -3q-2 0 -6 1l-9 38q-1 4 -3.5 26.5t-5.5 56
t-6 73.5t-6 79.5t-5.5 74.5t-3.5 57q-1 19 -2 58.5t-2 89.5t-2.5 105.5t-2 105.5t-1 89.5t-0.5 58.5zM546 654q16 -26 16 -61q0 -36 -11.5 -61.5t-31.5 -45t-47.5 -33.5t-59.5 -26v253q34 -1 69.5 -6.5t64.5 -19.5z" />
    <glyph glyph-name="q" unicode="q" horiz-adv-x="1256" 
d="M503 -92q1 -29 3 -59t9 -57t19.5 -49t34.5 -35l22 -22q14 -14 31.5 -21t43.5 -7h9q6 4 15 13.5t14 16.5l2 -2l48 257h2l12 3l12 3q29 8 75 21.5t97.5 37t104 58.5t94 84t68 115t26.5 151q0 71 -24 126t-67 97l-6 5q-35 50 -88 85t-118 60q-7 2 -20 6.5t-16 4.5l-122 11
q2 5 3.5 9t3.5 9q1 2 1.5 4t1.5 4q3 10 5.5 20.5t2.5 22.5q0 4 -8.5 28t-20.5 53t-25.5 55.5t-23.5 35.5l-27 28q-7 8 -11.5 13.5t-9.5 5.5q-1 0 -1 -1h-1h-16q-4 -2 -11 -7t-17 -10q-8 -5 -15 -10.5t-15 -10.5t-15 -9.5t-14 -9.5q-2 -2 -5 -3t-6 -3l-3.5 -2.5t-6.5 -4.5
l1 1q-4 -2 -6 -4q-7 -5 -16.5 -13t-18.5 -16.5t-15.5 -15.5t-6.5 -10l4 -155q-86 -18 -171 -43.5t-153.5 -69.5t-111 -112t-42.5 -172q0 -118 34.5 -197t96.5 -128l16 -16q60 -60 146 -88.5t193 -36.5q1 -11 1.5 -22t1.5 -22zM512 6q-102 5 -189 26t-151 68t-100 124
t-36 194q0 100 43.5 165.5t112.5 106.5t154 65t168 42l-4 173q0 1 5 5.5t12.5 10.5t16 12t14.5 10v-1q6 4 21.5 14t33.5 21q17 11 33 21t22 14h1q2 0 3.5 0.5t3.5 0.5q4 0 11 -11t14.5 -27.5t15 -36.5t13.5 -37.5t9.5 -30t3.5 -15.5q0 -12 -3 -23t-7 -23q-5 -15 -10 -32
t-5 -45l188 -19q1 0 11.5 -4t16.5 -6q55 -21 101.5 -50t80 -67t52 -86.5t18.5 -108.5q0 -82 -25.5 -145t-66.5 -110.5t-91.5 -80.5t-100.5 -55.5t-94.5 -35.5t-72.5 -21q-17 -5 -27 -7.5t-10 -7.5v1l-50 -259q0 -2 -6.5 -8.5t-11.5 -9.5h-4q-36 0 -55.5 17.5t-29.5 45
t-13 61.5t-4 68q-1 28 -3 52t-7 43zM718 713q0 -15 -0.5 -43.5t-1.5 -65t-1.5 -79.5t-1.5 -86q-1 -44 -2 -87t-1.5 -80t-1 -65.5t-0.5 -44.5v-55q63 0 112 24t83 65t51.5 95t17.5 115q0 45 -17 99t-48 100.5t-74.5 77.5t-97.5 31q-2 0 -4 -0.5t-4 -0.5h-9zM269 442
q0 -54 13 -112.5t42.5 -108t76 -81.5t113.5 -32v592q0 17 -13 20.5t-23 3.5q-55 0 -94.5 -28t-65 -70t-37.5 -91.5t-12 -92.5zM950 406q0 -48 -12 -92.5t-35.5 -80.5t-58 -61.5t-78.5 -35.5q0 18 0.5 46.5t1 63t1.5 73.5t2 80q1 39 1.5 77t1.5 72t1.5 61.5t0.5 45.5
q25 0 47.5 -8.5t42.5 -22.5q20 -23 35.5 -50t26.5 -56t16.5 -58t5.5 -54zM327 402q0 38 9.5 81t30 80.5t51.5 64.5t75 34v-532q-65 9 -108 49h1q-32 49 -45.5 109t-13.5 114z" />
    <glyph glyph-name="FL0072h" unicode="r" horiz-adv-x="903" 
d="M580 226l55 -226h8l36 -37h9q5 0 10 1q7 1 12.5 1.5t9.5 0.5q20 0 38 -3t34 -7q2 -1 5.5 -1.5t2.5 -0.5q8 -2 15.5 -3t17.5 -1q15 0 26 5t18.5 17.5t11 34.5t3.5 56q0 36 -9.5 75t-26.5 77t-40.5 72.5t-50.5 62.5l-41 40h-1q-6 6 -9 8q-5 5 -9 8.5t-9 7.5
q31 15 59.5 31.5t50.5 39t35 52t13 69.5q0 34 -11 58.5t-30 43.5l-4 2l-15 18q-17 25 -43.5 42t-56.5 28t-62 17.5t-61 10.5h-104q-5 0 -9 0.5t-8 0.5h-138q-5 0 -9.5 -0.5t-9.5 -0.5h-131q-13 0 -31.5 -2.5t-37 -6t-34.5 -7t-25 -6.5l-8 2l-17 -50l5 -2.5t8 -2.5l34 -34
q5 -2 8.5 -3t8.5 -3q8 -4 16.5 -7t16.5 -8q7 -14 7 -28v-645q0 -4 16 -15l29 -28q4 -4 17.5 -12.5t23.5 -10.5q26 -5 45 -7t36 -2q8 0 17 0.5t19 1.5h5q14 1 31 1.5t41 0.5h24l8 387q34 -1 63 -6.5t53 -19.5q25 -32 39 -87zM280 9q-11 -1 -20.5 -1.5t-19.5 -0.5
q-14 0 -31.5 2t-44.5 7q-7 1 -18 3.5t-11 3.5v645q0 25 -8 41.5t-21.5 27.5t-31.5 18.5t-37 14.5l9 27q0 1 13.5 2t32 2.5t38 2.5t32.5 1h80q17 0 34.5 0.5t35.5 0.5h94q14 0 29.5 -0.5t31.5 -0.5h102q35 -5 75 -14t73.5 -26.5t56 -46t22.5 -72.5q0 -40 -15 -68.5
t-39.5 -49.5t-55.5 -37t-63 -31q-4 -2 -8.5 -4t-8.5 -4v-15q43 -8 84 -42.5t72.5 -82.5t51 -103.5t19.5 -106.5q0 -56 -10 -74.5t-29 -18.5q-8 0 -17 2t-20 4q-16 4 -35 7t-42 3q-7 0 -13.5 -0.5t-13.5 -1.5l-51 209q-14 52 -35.5 84.5t-50.5 50.5t-66.5 24t-82.5 6l-8 -386
h-5q-25 0 -42.5 -0.5t-31.5 -1.5zM367 457q37 3 71 10t59.5 22.5t40.5 41.5t15 68q0 67 -41 105t-112 38q-2 0 -6.5 -0.5t-9.5 -0.5h-17v-284zM435 683h5q43 0 74 -17l-1 1q18 -29 18 -68q0 -54 -29.5 -78t-75.5 -34v195q2 0 4.5 0.5t4.5 0.5zM124 21l-1 1q1 0 1 -1z" />
    <glyph glyph-name="FL0073h" unicode="s" horiz-adv-x="832" 
d="M605 408q-1 0 -4 3l3 4l2 -1zM411 362q27 -5 52.5 -10.5t45.5 -18.5t32 -37t12 -65q0 -32 -5.5 -52t-17.5 -31t-30.5 -15.5t-44.5 -4.5q-16 0 -34.5 1t-40.5 3q-29 2 -63 3.5t-75 1.5q-11 0 -62.5 11.5t-142.5 44.5l-1 -161q0 -1 9.5 -3.5t14.5 -3.5q29 -6 69 -10
t82.5 -6t83.5 -3t73 -1q38 0 82 3t87.5 12.5t84.5 26.5t72 45t49.5 68t18.5 96q0 50 -17.5 81.5t-46 51t-65 30t-74.5 18.5q-21 11 -52 19t-67 16q-23 5 -47 10.5t-49 12.5q-18 6 -33 12.5t-26.5 17.5t-17.5 28.5t-6 45.5q0 67 37 105t101 38q6 0 34.5 -2.5t65.5 -10
t75.5 -21.5t64.5 -37h4q13 0 30 21.5t35 48.5h-1q4 7 9 13.5t10 12.5l-9 30q0 1 -12 2t-29 2.5t-34.5 2.5t-29.5 1h-71q-15 0 -31 0.5t-32 0.5h-85q-14 0 -27.5 -0.5t-27.5 -0.5h-91q-32 -5 -67.5 -14t-65.5 -26.5t-49.5 -46t-19.5 -72.5q0 -73 35.5 -126t88.5 -80zM31 15
q-7 5 -12 10t-5 7l1 191q105 -38 160.5 -51t66.5 -13q35 0 65.5 -1t56.5 -3q2 0 4 -0.5t4 -0.5h9q2 0 3.5 -0.5t3.5 -0.5h7q34 -3 60 -3q40 0 58 15.5t18 65.5q0 32 -11 54q-14 5 -29 8.5t-29 6.5q-3 1 -6.5 1.5t-6.5 1.5l-251 81q-16 8 -31 19.5t-29 25.5l-9 9
q-47 32 -76.5 85.5t-29.5 122.5q0 50 21.5 82.5t54.5 52.5t72 30t74 15h93q4 0 7.5 0.5t7.5 0.5h125q4 0 8 -0.5t8 -0.5h118q12 0 28.5 -2.5t33.5 -6t32 -7t23 -6.5l8 3l1 -9l36 -35l1 -3l10 -35v-1q0 1 -1 0t-2.5 -4.5t-5.5 -10.5q-4 -6 -7.5 -10t-6.5 -9
q-17 -25 -33.5 -46.5t-32.5 -29.5v-23q-33 30 -75.5 48t-80.5 28t-66.5 13t-34.5 3q-56 0 -87.5 -32.5t-31.5 -91.5q0 -11 0.5 -19t2.5 -15q5 -2 10 -4.5t12 -4.5v1q22 -5 46 -10.5t45 -10.5q1 -1 4 -1q4 0 6 -1t4 -1t3.5 -0.5t3.5 -0.5q31 -8 57.5 -15t49.5 -18
q28 -6 56.5 -13t54 -17.5t47 -26.5t36.5 -39h-1l17 -17q22 -22 34.5 -53t12.5 -76q0 -61 -19.5 -104.5t-52 -73.5t-75 -48.5t-88.5 -28t-92 -13t-86 -3.5q-32 0 -74 1t-85 3t-83.5 6t-70.5 10q-8 2 -19.5 9.5t-16.5 12.5z" />
    <glyph glyph-name="t" unicode="t" horiz-adv-x="909" 
d="M291 9l12 -25h6l37 -37h14q2 0 5 -0.5t6 -0.5h12q54 0 110.5 6.5t104.5 14.5q17 7 19.5 14.5t2.5 17.5v2q0 54 -2 107.5t-4 107.5q-2 53 -3.5 105.5t-1.5 106.5v41q0 8 0.5 15t0.5 14v87l7 38h39q3 0 5.5 0.5t4.5 0.5h8q5 1 10 1h15h38q6 0 12.5 -0.5t12.5 -0.5h46
l90 119v39l-37 36v8h-796q-6 -15 -15 -38t-17 -49.5t-13.5 -55.5t-5.5 -56h8l37 -37q4 0 17.5 0.5t21.5 2.5q5 0 13 3t17 8q3 2 6 2.5t6 2.5l10 4q29 5 70 7.5t76 3.5zM319 669l-12 12h-5q-5 0 -15.5 0.5t-16.5 0.5q-18 0 -40 -0.5t-44 -2t-43 -3.5t-37 -5h1q-3 0 -10.5 -3
t-15.5 -7q-8 -3 -15 -6t-9 -3q-2 -1 -9 -2t-12 -1q0 18 5 39.5t11.5 43t13.5 40.5t13 33h760v-17l-79 -106h-18q-10 0 -21.5 0.5t-23.5 0.5h-37h-16t-11 -1q-4 0 -8 -0.5t-9 -0.5h-55l-10 -51v-66q0 -14 -0.5 -27.5t-0.5 -27.5v-41q0 -55 1.5 -107.5t3.5 -106.5l4 -106
t2 -107v-2q0 -5 -1 -8t-7 -5q-48 -8 -103 -14.5t-106 -6.5q-5 0 -12 0.5t-12 0.5h-2l-5 10z" />
    <glyph glyph-name="FL0075h" unicode="u" horiz-adv-x="1098" 
d="M248 143q30 -32 57.5 -55t57 -40t63 -28t74.5 -18q33 2 55 3.5t37.5 4.5t26.5 8t23 15q32 9 58.5 25t49.5 37t43 45.5t39 49.5l33 41l-1 -1q2 4 9 39t16 85.5t19 108t19 107.5q8 49 14 81.5t7 37.5q1 3 3.5 8.5t5.5 11.5t6.5 11.5t5.5 8.5h-1q5 8 13.5 13t18.5 10
q11 5 19.5 10.5t8.5 13.5q0 18 -17 18q-26 0 -61.5 -1.5t-71.5 -8.5t-67 -20.5t-47 -38.5l1 1q-5 -20 -9 -47t-9 -59q-7 -46 -15.5 -100.5t-20.5 -109.5t-28 -106.5t-37 -91t-48 -63t-61 -23.5l-59 2q-35 1 -56.5 31.5t-33.5 80t-18 111.5t-10 127q-4 52 -8 102t-11.5 92
t-19.5 74t-31 48h-31q-5 0 -9.5 0.5t-9.5 0.5h-61q-32 0 -62 -2.5t-73 -8.5q-2 -3 -4.5 -9t-3.5 -9v-7q31 -8 50 -34.5t30 -65t16.5 -87t10.5 -99.5q4 -49 10 -98.5t17 -93.5t29.5 -80t48.5 -58zM419 439q5 -84 13.5 -161t28.5 -125q9 -3 17 -3l59 -2q29 0 52.5 23
t42.5 60.5t33.5 86.5t25.5 102t19 105.5t15 96.5v4q0 1 0.5 2t0.5 3q2 8 2.5 15t1.5 13q4 25 7 44.5t6 28.5q20 30 54.5 46.5t73 25t76 10t64.5 1.5q28 0 36 -22l30 -29q10 -10 10 -28q0 -17 -12.5 -25.5t-26.5 -16.5q-1 -1 -2 -1t-2 -1q-6 -3 -11.5 -6t-7.5 -6
q-4 -5 -10 -16t-9 -19v1l-2 -12q-2 -14 -7.5 -42.5t-11.5 -65.5q-8 -50 -18.5 -108.5t-19.5 -109t-16 -85.5t-8 -38l-37 -47q-20 -26 -40.5 -51t-44.5 -47t-51.5 -39t-60.5 -26l1 1q-12 -10 -23 -15.5t-25 -8.5t-33 -4.5t-46 -3.5h-12q-6 0 -12 -1q-39 6 -71 16t-60 24
t-54 34t-53 46q-17 12 -33 27.5t-33 34.5q-33 24 -53.5 62t-32.5 84.5t-18 98t-10 102.5q-3 33 -6.5 65.5t-8.5 61.5t-13 54.5t-20 43.5l-14 6l-35 35q-1 0 -2 0.5l-1 0.5q-4 0 -7 3v28q1 3 8 16t14 19q22 3 40.5 5t35 3.5t33 2t34.5 0.5h74q2 0 3 -0.5t3 -0.5h38
q8 -8 15 -14.5t12 -14.5h-1l23 -22q21 -21 33.5 -55t20 -77t11.5 -92.5t8 -100.5z" />
    <glyph glyph-name="v" unicode="v" horiz-adv-x="1015" 
d="M433 727l-6 5l-6 7q-29 42 -71.5 66t-102.5 24q-26 0 -65.5 -12t-76.5 -33t-64 -49t-27 -60v-6t1 -4q2 -5 9.5 -12.5t12.5 -9.5l2 -1l-1 1l28 -27q3 -4 6.5 -6.5t5.5 -3.5l7 -1q5 1 9 1h8q31 0 58 -9.5t50 -26.5q24 -27 44 -62.5t36 -73.5t29 -77.5t24 -75.5
q1 -3 3 -13.5t3.5 -39.5t2.5 -82t1 -141q0 -12 6 -18.5t14 -9.5l30 -30q6 -6 14.5 -8t16.5 -2q2 0 3 0.5t3 0.5h5q57 0 116.5 11t104.5 22q0 3 -0.5 9t-0.5 10v40q0 5 -0.5 12.5t-0.5 16.5q0 14 0.5 29t0.5 29v81q1 31 7.5 73t19 86t31 87t43 77t55.5 54.5t68 20.5
q8 0 16.5 -2t18.5 -4t20.5 -4t24.5 -2q12 0 23.5 7t11.5 25v7q-2 7 -7 23.5t-10 34.5t-9 33t-5 20q-4 14 -16 26l-25 25q-8 15 -21 24t-28.5 13.5t-32 5.5t-31.5 1h-10q-45 0 -81.5 -16t-65 -42t-50.5 -61t-39 -72q-3 -8 -7 -23.5t-8 -36t-8.5 -45t-8.5 -48.5
q-15 67 -40 132t-68 110zM37 671l-1 4q0 27 24.5 51t58 42.5t69.5 29t59 10.5q49 0 85.5 -19.5t63 -52.5t44.5 -75.5t30.5 -88.5t21 -92t15.5 -85l10 -51h26q1 3 1.5 5.5t1 6t1 10t2.5 17.5q4 26 9.5 63.5t11.5 74t12 67t11 42.5q15 35 35.5 67t47 57t59.5 39.5t74 14.5h10
q13 0 28.5 -1t29 -4.5t24 -11.5t14.5 -22q1 -5 5 -20t9 -32.5t9.5 -33.5t6.5 -23v-4q0 -8 -5 -10.5t-11 -2.5q-10 0 -19.5 2t-19.5 4l-20 4t-21 2q-41 0 -74 -21.5t-60 -57t-47 -80.5t-33.5 -91.5t-20.5 -90.5t-8 -77v-36q0 -21 -0.5 -47.5t-0.5 -55.5q0 -15 0.5 -24.5
t0.5 -15.5v-20q0 -2 0.5 -4.5t0.5 -6.5q-21 -5 -46 -10t-51.5 -9.5t-53 -7.5t-50.5 -3h-2q-2 0 -4 -0.5t-5 -0.5q-7 0 -13.5 1.5t-6.5 7.5q0 90 -1.5 144t-3 83.5t-3.5 40.5t-3 15q-17 60 -41 126t-59.5 122t-84.5 92.5t-116 36.5h-10q-4 0 -9 -1q-5 2 -7 7z" />
    <glyph glyph-name="FL0077h" unicode="w" horiz-adv-x="1285" 
d="M533 2q29 1 58 5.5t58 11.5q24 5 48.5 10t50.5 7l8 8l-6 40q53 8 102 21t91 36.5t74 59.5t52 91q2 5 7.5 35.5t13 74t15 93.5t14.5 92q6 42 10.5 70t5.5 33q1 3 3.5 8.5t5.5 11.5t6 11.5t5 8.5q4 8 13 13t19 10q11 5 19.5 10.5t8.5 13.5q0 18 -17 18q-26 0 -61.5 -1.5
t-71.5 -8.5t-67.5 -20.5t-47.5 -38.5l1 1q-4 -19 -6.5 -46t-6.5 -59q-5 -44 -11 -95t-16 -102t-23.5 -98t-32.5 -83.5t-45 -58t-60 -21.5l6 642q-4 -1 -8 -1h-9h-19q-11 0 -38 -1t-58 -3q-32 -2 -53 -3q-23 -1 -35.5 -1.5t-12.5 -4.5q0 -1 0.5 -1.5t0.5 -1.5v-318
q0 -30 0.5 -59t0.5 -57v-191q-6 0 -9.5 -0.5t-8.5 -1.5q-8 -2 -16 -2.5t-13 -0.5h-4q-34 7 -54.5 39.5t-32 80t-17 106t-9.5 118.5q-3 49 -7.5 96.5t-12 88t-19.5 71t-31 46.5h-32q-5 0 -9.5 0.5t-9.5 0.5h-61q-32 0 -61.5 -2.5t-73.5 -8.5q-2 -3 -4.5 -9t-3.5 -9v-7
q31 -8 50 -34.5t30 -65t16.5 -87t10.5 -99.5q4 -49 10 -98.5t17 -93.5t29.5 -80t48.5 -58q25 -19 56 -30.5t65 -19t68 -11t66 -6.5q5 -1 12 -1t12 -1zM509 31q-59 5 -119.5 18t-108.5 47v-1q-13 9 -24 20l-18 18q-35 25 -56 64t-33.5 85.5t-18.5 98t-10 102.5
q-3 33 -6.5 65.5t-8.5 61.5t-13 54.5t-20 43.5l-14 6l-35 35q-1 0 -2 0.5l-1 0.5q-4 0 -7 3v28q1 3 8 16t14 19q22 3 40.5 5t35 3.5t33 2t34.5 0.5h74q2 0 3 -0.5t3 -0.5h39q19 -14 29 -32h-1l21 -20q21 -21 33.5 -54t20.5 -74t12 -87.5t7 -94.5q3 -41 6 -80.5t8 -76
t12.5 -68t19.5 -54.5l-1 2q5 -3 8.5 -4t6.5 -2q7 0 21 3h2v227q0 8 -0.5 15t-0.5 15v343q-1 1 -1 6v2q0 20 16 23t43 4h10q21 1 53 3q31 2 58.5 3t38.5 1h27q3 0 6.5 0.5t6.5 0.5h18v-8l37 -36l-6 -567q26 28 44 76t30 105t19.5 116.5t13.5 109.5q4 36 7.5 65t6.5 44
q20 30 54.5 47t73.5 25.5t76.5 10t63.5 1.5q29 0 36 -22l30 -29q10 -10 10 -28q0 -17 -12.5 -25.5t-26.5 -16.5q-1 -1 -2 -1t-2 -1q-6 -3 -11.5 -6t-7.5 -6q-4 -5 -10 -16t-9 -19v-2q-2 -8 -6.5 -34.5t-9.5 -64.5q-7 -43 -14.5 -93t-15 -94.5t-13 -76.5t-8.5 -38h-1
q-20 -55 -52.5 -92t-73.5 -61.5t-89 -38t-99 -22.5l5 -31l-21 -21q-26 -2 -48.5 -6t-45.5 -9q-2 -1 -4 -1q-1 0 -3 -1q-30 -7 -62 -12t-75 -5l-36 37h-8z" />
    <glyph glyph-name="x" unicode="x" horiz-adv-x="1025" 
d="M14 12v-73l5 2.5t3 0.5l37 -36q27 4 58 11t61.5 17.5t57.5 25t46 33.5l229 229l114 -132q11 -13 23.5 -25t27.5 -23l11 -11q13 -13 26 -23.5t29 -18.5q24 -12 54 -21.5t61.5 -16t64 -10t61.5 -3.5h10q10 13 11.5 15t2.5 4l3 6q3 9 3.5 11t0.5 6q0 2 -0.5 3.5t-2.5 8.5
l-36 35v2q0 1 -0.5 2t-0.5 2l-59 58l-218 306l217 227v175q0 3 -5 8.5t-10 12.5l-23 22q-2 7 -13.5 19t-20.5 17q-4 1 -9 1h-6q-1 0 -7 -2l-265 -275l-135 192l-29 29h1l-10 15q-15 1 -24 1h-15h-10q-1 0 -2 -0.5t-2 -0.5h-29q-2 0 -4.5 -0.5t-5.5 -0.5q-9 -1 -22 -2.5
t-27 -2.5q-10 -1 -20.5 -2t-21.5 -2q-8 -1 -15 -1q-6 0 -13 -1q-15 -2 -31.5 -3t-31.5 -2.5t-27 -2.5t-17 -1v-59q3 -5 8 -7q0 -1 3 -1l32 -31q2 -2 3.5 -2.5t3.5 -1.5q4 -2 6 -2q2 -2 5.5 -3.5t5.5 -2.5q4 -2 10 -6q11 -15 32 -42.5t47 -59.5q4 -5 7.5 -11t8.5 -11l8 -10
l8 -10q17 -22 34 -44.5t31.5 -42t26 -35t17.5 -23.5l6 -9zM395 402l-22 31q-12 17 -41.5 55t-63.5 82q-18 24 -35.5 47.5t-33 44t-27.5 36t-18 24.5q-11 16 -30.5 28t-35.5 20q-2 0 -3 1v25q11 1 34.5 3t52.5 5q40 4 77.5 7t51.5 5h19q3 0 6.5 0.5t6.5 0.5h10h9t17 -1
l179 -251l281 291l4 1l4 -1q5 -3 11.5 -9t6.5 -8v-168l-222 -233l233 -327l88 -88l1 -3q0 -2 -1 -5l-5 -10q-4 -6 -4 -8h-2q-28 0 -59 3.5t-61.5 9.5t-59.5 15.5t-53 21.5q-21 11 -37.5 26t-31.5 32l-139 159q-3 4 -10.5 12t-10.5 9q-4 1 -6 1t-6 -1l-239 -239
q-17 -17 -40.5 -29.5t-50 -22t-53.5 -16t-50 -10.5v35z" />
    <glyph glyph-name="y" unicode="y" horiz-adv-x="1285" 
d="M815 783l-37 36v8h-18q-3 0 -6.5 -0.5t-6.5 -0.5h-27q-11 0 -38.5 -1t-58.5 -3q-29 -2 -51 -3q-34 -1 -52 -4.5t-18 -23.5v-16q0 -100 3 -199q2 -42 2.5 -86.5t1.5 -89.5v-8h-2q-14 -3 -21 -3q-16 3 -29 11v-1q-17 32 -24 74t-12 85q-4 31 -8.5 61t-12 58t-20 52.5
t-31.5 43.5l-20 20q-15 20 -31 33h-39q-2 0 -3 0.5t-3 0.5h-74q-18 0 -34.5 -0.5t-33 -2t-35 -3.5t-40.5 -5q-7 -6 -14 -19t-8 -16v-28q3 -2 9 -4l-1 1l37 -36q16 -5 30 -12q16 -23 23 -53t13 -64v1q5 -32 11.5 -64.5t18.5 -63.5t32 -60t53 -53l13 -12q8 -8 16 -14.5
t18 -14.5v1q47 -34 107 -47t118 -19v-259h8l36 -37q44 0 76 5t62 12q2 1 3 1q2 0 4 1q23 5 45.5 9t48.5 6l20 20v239q52 9 100.5 23t90 39t74.5 63t53 94q4 9 13.5 37t19 60t17.5 59t10 34l4 8q3 7 7 14.5t8 12.5q2 4 7.5 7t11.5 6q1 1 2 1t2 1q14 8 26.5 16.5t12.5 25.5
q0 18 -10 28l-30 29q-7 22 -36 22q-26 0 -63.5 -1.5t-76.5 -10t-73.5 -25.5t-54.5 -47q-2 -10 -3.5 -20.5t-3.5 -22.5q0 -2 -2 -10q-1 -4 -1 -8t-1 -8q-5 -35 -12 -73.5t-18 -73t-29 -63t-45 -44.5v374zM533 294q-5 1 -12 1t-12 1q-32 3 -66 6.5t-68 11t-65 19t-56 30.5
q-30 21 -48.5 48t-30 56.5t-17.5 60t-11 60.5q-5 31 -11.5 60.5t-18 53.5t-31 42t-50.5 26v7q1 3 3.5 9t4.5 9q44 6 73.5 8.5t61.5 2.5h61q5 0 9.5 -0.5t9.5 -0.5h32q19 -16 31 -39t19.5 -50.5t12 -58t8.5 -61.5q5 -39 11 -77t18.5 -69t33 -53t55.5 -29h4h13t16 2
q5 1 8.5 1.5t8.5 0.5q0 52 -1 103.5t-3 100.5q-1 50 -1.5 99t-0.5 100v16q0 5 49 7q22 1 51 3q31 2 58 3t38 1h19h9t8 1v-434q54 0 87 27.5t52.5 70.5t29 94t16.5 98q3 18 5 34t5 31l-1 -1q16 25 47.5 38.5t67.5 20.5t71.5 8.5t61.5 1.5q17 0 17 -18q0 -8 -8.5 -13.5
t-19.5 -10.5q-10 -5 -19 -10t-13 -13q-4 -6 -11 -20.5t-9 -20.5l-10 -35t-18.5 -60t-19.5 -59.5t-12 -33.5q-20 -54 -52.5 -90.5t-74.5 -59.5t-91 -36t-101 -21v-250l-8 -8q-26 -2 -50.5 -7t-48.5 -10q-29 -7 -58 -11.5t-58 -5.5v292zM113 687l3 1l-1 -3q-2 0 -2 2z" />
    <glyph glyph-name="z" unicode="z" horiz-adv-x="908" 
d="M36 23l9 -17h594q22 0 55.5 7.5t64.5 22t53.5 34.5t24.5 45h-35q-38 0 -92.5 1t-104.5 2q-36 1 -64 1h-41q-9 0 -23.5 1.5t-31 4.5t-32.5 7t-28 9l420 635v25h-693q-3 0 -11 -19.5t-16.5 -46.5t-15 -54.5t-7.5 -42.5h29q38 45 94.5 59.5t118.5 14.5q27 0 53 -1.5t51 -3.5
q22 -2 42.5 -3t38.5 -1q3 -5 3 -4q1 -2 1 -6q-1 -2 -4.5 -10t-6.5 -11zM12 24l427 625q-5 0 -8.5 0.5t-8.5 1.5q-39 3 -78 3q-59 0 -113 -14.5t-92 -60.5h-55l-36 37h-8q0 18 10 52t22.5 68.5t24 60t15.5 25.5h714v-8l37 -36v-50l-387 -586q8 -1 13 -1h11h41t64 -1h35
q9 0 18 -0.5t18 -0.5q35 -1 68 -1.5t58 -0.5h58q0 -1 -0.5 -3t-0.5 -3v-2l38 -37q0 -33 -24.5 -60t-59.5 -46t-72.5 -29t-62.5 -10h-605l-37 37h-6z" />
    <glyph glyph-name="FL007Bh" unicode="{" horiz-adv-x="665" 
d="M37 426l154 -165l279 -289l4 -1l4 1q5 3 11 9t6 8v168l-221 233l232 326l88 89l1 3q0 2 -1 5l-4 10q-4 6 -4 8h-2q-28 0 -59 -3.5t-61.5 -9.5t-59.5 -15.5t-53 -21.5q-21 -11 -37.5 -26.5t-31.5 -32.5zM267 736q15 19 33.5 36t41.5 29q51 25 116.5 38.5t125.5 13.5h10
q6 -9 10 -13q2 -3 4 -5l26 -26q8 -11 9.5 -13.5t3.5 -4.5l3 -6q3 -9 3.5 -11t0.5 -6q0 -2 -0.5 -3.5t-2.5 -8.5l-86 -86l-227 -319l179 -186v-3l37 -38v-175q0 -5 -12 -17.5t-21 -17.5q-4 -1 -8 -1h-5q-1 0 -7 2l-35 35h-1q-1 0 -2 0.5t-2 0.5l-285 295l-168 180z" />
    <glyph glyph-name="FL007Ch" unicode="|" horiz-adv-x="297" 
d="M161 826l-147 -16v-828h8l36 -37q7 0 27 3t45.5 7.5t53 10.5t50 12.5t37.5 13t15 11.5v780l-37 36v8h-32q-2 0 -3 -0.5t-3 -0.5h-50zM162 805h35q5 0 10 0.5t10 0.5h11v-763q0 -5 -25.5 -11.5t-58.5 -12.5t-65 -10.5t-44 -4.5v786z" />
    <glyph glyph-name="FL007Dh" unicode="}" horiz-adv-x="665" 
d="M365 736q-16 19 -34.5 36t-41.5 29q-25 12 -55 22t-61.5 16.5t-63.5 10t-61 3.5h-11l-16 -21l-3 -6q-3 -9 -3.5 -11t-0.5 -7q0 -3 0.5 -4.5t2.5 -8.5l90 -91l221 -314l-214 -225v-176q0 -3 3.5 -8.5t9 -11.5t11.5 -11.5t11 -7.5h1l21 -22q15 -14 16 -14q3 -1 4 -1h6h4
q2 0 8 2l283 294l167 178l-257 308q-5 5 -10 10.5t-10 10.5l-7 8zM161 -28l-3 -1l-4 1q-5 3 -11.5 9t-6.5 8v168l221 233l-232 326l-88 89l-1 3q0 2 1 5l5 10l2 4l2 4h2q27 0 58 -3.5t61.5 -9.5t59.5 -15.5t53 -21.5q21 -11 37.5 -26.5t31.5 -32.5l245 -296l-154 -165z" />
    <glyph glyph-name="FL007Eh" unicode="~" horiz-adv-x="578" 
d="M14 265v-11q5 -6 14 -10l29 -30q3 -3 10.5 -6.5t15 -6t13.5 -4t8 -1.5q5 1 12 9t14 18.5t13.5 22t11.5 20.5q0 1 1 2v1h343q4 3 7.5 9.5t7.5 11.5q0 1 2 3q21 46 36 91t15 95q0 15 -9 24l-31 29q-5 14 -16.5 19t-24.5 5h-17l-36 -64l-4 -2q-1 -1 -5 -3h-339
q-6 -6 -11.5 -15t-7.5 -14q-2 -6 -4 -10q-2 -5 -3 -9t-3 -8q-6 -18 -13 -40.5t-13.5 -45.5t-11 -44t-4.5 -36zM36 265q0 13 4 33.5t10.5 42.5t13.5 44t13 39q2 7 4 12.5t4 10.5q2 4 4 10t4 8h333q2 0 10.5 4t12.5 6l34 59h3q8 0 15 -3t7 -13q0 -47 -14 -90t-34 -88v1
q-2 -4 -5 -8t-4 -6h-344q-1 -2 -3.5 -5.5t-4.5 -8.5q-5 -8 -10.5 -17.5t-11 -18.5t-10 -15.5t-6.5 -7.5q-4 0 -12.5 2t-12.5 6v3z" />
    <glyph glyph-name="FL007Fh" horiz-adv-x="256" 
 />
    <glyph glyph-name="FL00A1h" unicode="&#xa1;" horiz-adv-x="282" 
d="M191 655q2 0 3.5 2.5t2.5 4.5q4 8 7 22t5 29t3 30.5t1 26.5v34q-15 0 -28.5 0.5t-24.5 0.5h-34q-18 0 -35.5 -0.5t-39.5 -2.5q-11 -20 -13.5 -47t-2.5 -53v-32q0 -5 1 -10.5t7 -5.5zM33 633q-14 3 -16.5 15.5t-2.5 21.5v32q0 27 4 59t20 61q30 3 50 3.5t38 0.5h64
q5 0 10.5 -0.5t11.5 -0.5h23v-8l36 -36v-51q0 -12 -1 -28.5t-3 -33t-5.5 -31.5t-8.5 -24h-1q-4 -5 -10.5 -11t-11.5 -6l-148 -1q-12 0 -18 7zM105 8l101 9l3 536q0 4 -6.5 5.5t-17.5 1.5q-18 0 -43 -4t-47.5 -9.5t-38.5 -11.5t-16 -10l-1 -518h31q5 0 10.5 0.5t10.5 0.5h14z
M25 -15h-7l1 540q0 6 18 16t44 19t54.5 15.5t49.5 6.5q40 0 45 -23l31 -31q6 -6 6 -15l-3 -553l-119 -11h-15q-3 0 -6 -0.5t-5 -0.5h-57z" />
    <glyph glyph-name="FL00A2h" unicode="&#xa2;" horiz-adv-x="895" 
d="M540 815l-150 -15v-143q-66 -8 -123 -22t-107 -41q-68 -38 -107 -93.5t-39 -133.5q0 -48 21 -85t59 -65l16 -16q44 -46 116.5 -71.5t163.5 -35.5v-123h8l37 -37q8 0 28 3t45.5 7.5t53.5 10.5t51 12.5t38 13t15 11.5v98h185l1 101l-37 36v8h-23q-6 0 -12 -0.5t-12 -0.5
q-8 0 -15 -0.5t-14 -0.5h-15t-13 -1t-12 -1h-12q-5 0 -10.5 -0.5t-10.5 -0.5v288l74 -28l94 5q50 46 50 72q0 11 -3 17.5t-10 13.5l-27 26q-4 11 -13.5 18.5t-24.5 17.5h-1v1q-1 0 -1 1v1h-138v109l-36 36v8h-33q-2 0 -3 -0.5t-3 -0.5h-51zM541 794h35q5 0 10.5 0.5
t10.5 0.5h11v-153h187q14 -11 22 -18t8 -17q0 -17 -37 -54l-84 -5l-96 39v-380q24 2 50 2.5t53 1.5q20 1 40 1.5t43 1.5l-1 -65h-185v-117q0 -5 -26 -11.5t-59.5 -12.5t-65.5 -10t-45 -5v157q-77 3 -145.5 17.5t-119.5 41t-81 66t-30 92.5q0 72 35 122t98 85q53 29 113 43
t130 21v141zM412 591q-41 -12 -65.5 -33.5t-37 -49t-16.5 -57.5t-4 -58t2 -55t11 -50.5t27 -43t50 -32.5l2 -1v-1l31 -13v394zM390 231q-8 2 -14.5 5.5t-11.5 6.5q-11 24 -13.5 53t-2.5 58q0 36 7 74.5t35 67.5v-265zM398 213l5 -2z" />
    <glyph glyph-name="FL00A3h" unicode="&#xa3;" horiz-adv-x="949" 
d="M36 264q4 -4 13 -6t13 -2q3 1 9 5.5t11.5 10t10.5 11t7 8.5h189v-113q0 -23 -9 -37.5t-23 -23t-31.5 -13.5t-35.5 -9q0 -2 -0.5 -3.5t-0.5 -3.5q0 -10 4.5 -14.5t15.5 -12.5q2 -2 9 -6.5t17 -10.5t20.5 -12.5t19.5 -11.5h-1q2 -2 5.5 -4t6.5 -4q23 1 44 1h44
q66 0 128.5 -2t125.5 -4l124 -4t127 -2v166l-17 17l-98 -99q-15 -1 -19 -1h-10h-23q-4 0 -7 0.5t-6 0.5h-6q-17 2 -43.5 5t-52 6t-44.5 5.5t-20 4.5l-11 11v213h308v26q-2 2 -3.5 3t-4.5 6q-10 11 -25.5 26.5t-25.5 22.5q-2 2 -9 5.5t-9 3.5l-231 30l1 348l-234 4v-343h-197
q1 0 -2 -6.5t-5 -11.5q-5 -12 -9 -30q-6 -17 -13 -37.5t-13 -40.5t-10 -38t-4 -31v-3zM14 267q0 13 3.5 30.5t8.5 36t11.5 37.5t12.5 36q4 10 5 14q4 10 5 15q1 2 1.5 5t0.5 2l3 9q3 9 9.5 20.5t17.5 11.5h175v342l277 -4v-8l37 -36l-1 -311l178 -22v-2q5 -2 13 -5.5
t13 -6.5q11 -8 27 -24.5t27 -28.5q4 -5 5.5 -6.5l7.5 -7.5v-2q6 -7 12.5 -13.5l11.5 -11.5q4 -5 5.5 -6.5l7.5 -7.5v-52h-308v-153q11 -1 24.5 -2t27.5 -3q18 -2 34.5 -3.5l27.5 -2.5h14q1 0 1.5 -0.5t2.5 -0.5h23h7q3 0 14 1l106 107l39 -39v-4l37 -37v-192q-66 0 -136.5 2
t-133.5 4t-125.5 4t-129.5 2h-45q-23 0 -46 -1h-4v2l-14 7q-6 3 -14.5 9t-18 12l-19 12t-15.5 11l-1 1v-1q-4 3 -7.5 6t-8.5 8l-22 22q-3 0 -3 2q-17 13 -22.5 20t-5.5 24v5v1q1 0 1 1v20q18 4 35.5 8.5t32 11.5t23 17t8.5 26v54h-118q-9 -9 -23.5 -20.5t-21.5 -13.5
q-2 0 -8 1.5t-13.5 4t-14.5 6t-10 7.5l-30 29q-9 4 -14 10v11z" />
    <glyph glyph-name="FL00A4h" unicode="&#xa4;" horiz-adv-x="1025" 
d="M435 374q0 -37 9 -62q11 -6 23 -8t26 -2q48 0 78.5 30.5t30.5 99.5q0 17 -4 32t-10 27q-18 8 -36 8q-49 0 -83 -28.5t-34 -96.5zM377 413q0 40 10.5 67.5t28.5 44.5t42.5 25t53.5 8q22 0 42.5 -7.5t36 -23t24.5 -39.5t9 -56q0 -80 -36 -116t-95 -36q-53 0 -84.5 31.5
t-31.5 101.5zM245 403q0 -40 6.5 -73.5t21.5 -62.5l-237 -264v-35q23 4 50 10.5t53.5 16t50 22t40.5 29.5l135 135q27 -13 56.5 -18.5t61.5 -5.5q58 0 100 13l58 -65q15 -17 31.5 -32t37.5 -26q24 -12 53 -21.5t59.5 -15.5t61.5 -9.5t59 -3.5h2q0 2 4 8l5 10q1 3 1 5l-1 3
l-88 88l-136 192q22 59 22 134q0 59 -20 105l123 129v168q0 2 -6.5 8t-11.5 9l-4 1l-4 -1l-204 -212q-54 21 -104 21h-22q-6 0 -11.5 -0.5t-10.5 -1.5l-108 153q-14 1 -17 1h-9h-10q-3 0 -6.5 -0.5t-6.5 -0.5h-19q-14 -2 -51.5 -5t-77.5 -7q-29 -3 -52.5 -5t-34.5 -3v-25
q1 -1 3 -1q16 -8 35.5 -20t30.5 -28q5 -6 12.5 -17t18.5 -25q19 -26 44.5 -60t51.5 -66q-36 -60 -36 -151zM223 403q0 45 8.5 81.5t22.5 68.5q-23 29 -46 59.5t-39 53.5q-3 3 -7 9l-9 12q-3 3 -7 9q-1 1 -1.5 2t-1.5 2l-10 6l-10 6q-2 0 -2 1q-3 0 -7 2q-2 1 -3.5 1.5
t-3.5 2.5l-32 31q-3 0 -3 1q-5 2 -8 7v59q5 0 17 1t27 2.5t31.5 2.5t31.5 3q7 1 13 1q7 0 15 1q11 1 21.5 2t20.5 2q14 1 27 2.5t22 2.5q3 0 5.5 0.5t4.5 0.5h29q1 0 2 0.5t2 0.5h10h14q9 0 24 -1l10 -15h-1l29 -29l75 -108h2q1 0 1.5 0.5t1.5 0.5h22q46 0 99 -18l200 208
q6 2 7 2h6q5 0 9 -1q9 -5 20.5 -17.5t13.5 -18.5l16 -17q2 0 2 -2l5 -3q5 -7 10 -12.5t5 -8.5v-175l-121 -126q18 -44 18 -100q0 -75 -21 -133l125 -174l59 -58q0 -2 0.5 -3.5t0.5 -2.5l36 -35q2 -7 2.5 -8.5t0.5 -3.5q0 -4 -0.5 -6t-3.5 -11l-3 -6q-1 -2 -2.5 -4t-11.5 -15
h-10q-29 0 -61.5 3.5t-64 10t-61.5 16t-54 21.5q-16 8 -29 18.5t-26 23.5l-11 11q-15 11 -27.5 23t-23.5 25l-16 16q-20 -5 -41.5 -6.5t-44.5 -1.5q-66 0 -116 19l-125 -124q-19 -19 -46 -33.5t-57.5 -25t-61.5 -17.5t-58 -11l-37 36q-2 0 -3 -0.5l-5 -2.5v73l233 258
q-24 58 -24 133z" />
    <glyph glyph-name="FL00A5h" unicode="&#xa5;" horiz-adv-x="1015" 
d="M139 264v-11q5 -6 14 -10l29 -28q1 -4 7 -8q-2 -5 -4 -8.5t-3 -6.5q1 4 -0.5 1.5t-3.5 -8t-4 -11.5l-3 -9q-1 -2 -1 -3l-1 -2l-3 -6q-1 -2 -1 -3t-1 -3q-11 -22 -19 -45t-8 -49v-11q5 -6 14 -10l30 -30q3 -4 10.5 -7.5t15 -6t13.5 -4t8 -1.5q7 3 21 14.5t23 20.5h81v-23
q0 -12 6 -18.5t14 -9.5l30 -30q6 -6 14.5 -8t16.5 -2q2 0 3 0.5t3 0.5h5q57 0 116.5 11t104.5 22v59l133 1q8 0 14.5 9t9.5 15q5 12 10 21t9 17h2q6 10 10.5 18.5t8 18.5t5 23t1.5 32q0 11 -5 19h1l-3 3l-3 3h-1l-29 28q-2 5 -5 8l-7 7q3 3 6 9q1 2 1 1l1 2q5 12 10 21.5
t9 17.5h2q6 10 10.5 18.5t8 18.5t5 23t1.5 31q0 11 -5 19h1l-3 3l-3 3h-1l-29 29q-5 14 -17 19t-25 5h-11l-35 -24h-1q0 -1 -1.5 -1.5t-7.5 -4.5l-33 -1q13 34 31.5 65t42 54.5t52 37.5t63.5 14q8 0 16.5 -2t18.5 -4t20.5 -4t24.5 -2q12 0 23.5 7t11.5 25v7q-2 7 -7 23.5
t-10 34.5t-9 33t-5 20q-4 14 -16 26l-25 25q-8 15 -21 24t-28.5 13.5t-32 5.5t-31.5 1h-10q-45 0 -81.5 -16t-65 -42t-50.5 -61t-39 -72q-7 -14 -13.5 -33.5t-12.5 -40.5q-11 47 -29.5 87t-47.5 72l-17 16q-30 42 -78.5 66t-127.5 24q-26 0 -65.5 -12t-76.5 -33t-64 -49
t-27 -60v-6t1 -4q2 -5 11 -13t15 -10l24 -24q4 -4 8.5 -8t8.5 -5q9 1 19 1.5t19 0.5q44 0 78 -10t60 -28q24 -28 42 -64t32 -81l-121 -1q-11 0 -17.5 -10.5t-9.5 -18.5q1 4 -0.5 1.5t-3.5 -8l-4 -11t-3 -8.5q-1 -2 -1 -3l-1 -2l-3 -6q-1 -2 -1 -3t-1 -3q-11 -22 -19 -45.5
t-8 -49.5zM161 264q0 22 8 44t18 43q5 11 10 21t7 19q2 5 5 11.5t2 6.5l151 1v5q-17 58 -39.5 105.5t-55.5 81.5t-78.5 53t-107.5 19q-9 0 -18 -0.5t-19 -1.5h1q-5 3 -8 8l-1 3q0 27 24.5 51t58 42.5t69.5 29t59 10.5q73 0 119 -23.5t73.5 -63.5t41.5 -93.5t24 -112.5
l10 -52h23q5 0 8.5 16t11.5 39q8 29 17.5 61.5t17.5 50.5q15 35 35.5 67t47 57t59.5 39.5t74 14.5h10q13 0 28.5 -1t29 -4.5t24 -11.5t14.5 -22q1 -5 5 -20t9 -32.5t9.5 -33.5t6.5 -23v-4q0 -8 -5 -10.5t-11 -2.5q-10 0 -19.5 2t-19.5 4l-20 4t-21 2q-46 0 -83 -22.5
t-65.5 -58.5t-48.5 -81t-31 -90l114 1q2 0 9.5 4t11.5 6l28 20h5q8 0 15.5 -3t7.5 -13q0 -32 -5.5 -47t-16.5 -33q-5 -8 -10.5 -18t-11.5 -24v1q-2 -4 -5 -9t-2 -5l-154 -1v-38q0 -11 -0.5 -24t-0.5 -27l127 1q2 0 9.5 4t11.5 6l28 19h5q8 0 15.5 -3t7.5 -12
q0 -32 -5.5 -47.5t-16.5 -33.5q-5 -8 -10.5 -18t-11.5 -24v1q-2 -4 -5 -9t-2 -5l-153 -1q0 -5 0.5 -11t0.5 -11v-39q-21 -5 -46 -10t-51.5 -9.5t-53 -7.5t-50.5 -3h-2q-2 0 -4 -0.5t-5 -0.5q-7 0 -13.5 1.5t-6.5 7.5v82l-151 -1q-2 -3 -7 -8t-11 -10.5t-12 -10t-9 -5.5h1
q-2 0 -12.5 2t-14.5 6v3q0 21 8 43t18 43q5 11 10 21t7 20q2 5 5 11.5t2 6.5l166 1v89l-149 -1q-2 -3 -7 -8.5t-11 -11t-12 -10t-9 -5.5h1q-2 0 -12.5 2t-14.5 6v3zM274 229h79v-7l-88 -1zM741 229l-10 -5l-65 -1v8h78l-2 -2h-1z" />
    <glyph glyph-name="FL00A6h" unicode="&#xa6;" horiz-adv-x="299" 
d="M163 874l-147 -16l-2 -942h8l36 -37q7 0 27 3t45.5 7.5t53 10.5t50 12.5t37.5 12.5t15 11l2 894l-37 37v8h-32q-2 0 -3 -0.5t-3 -0.5h-50zM164 852h35q5 0 10 0.5t10 0.5h11l-2 -877q0 -5 -25.5 -11.5t-58.5 -12.5t-65 -10t-44 -5l2 900z" />
    <glyph glyph-name="FL00A7h" unicode="&#xa7;" horiz-adv-x="924" 
d="M435 374q0 -37 9 -62q11 -6 23 -8t26 -2q47 0 78 31t31 99q0 17 -4 32t-10 27q-19 8 -37 8q-24 0 -45 -6.5t-37 -21.5t-25 -39t-9 -58zM376 413q0 40 10.5 67.5t29 44.5t43 25t53.5 8q22 0 42 -7.5t35.5 -23t25 -39.5t9.5 -56q0 -80 -36.5 -116t-94.5 -36q-53 0 -85 31.5
t-32 101.5zM244 403q0 -81 29 -136l-237 -264v-35q23 4 50 10.5t53 16t49.5 22t40.5 29.5l136 135q26 -13 56 -18.5t62 -5.5q55 0 98 13q48 21 88 53.5t60 80.5q23 61 23 133q0 57 -21 105l123 129v168q0 2 -6.5 8t-11.5 9l-4 1l-4 -1l-203 -212q-54 21 -104 21
q-20 -2 -49 -6t-62 -16t-67.5 -33.5t-63.5 -57.5h1q-17 -29 -26.5 -65.5t-9.5 -83.5zM223 403q0 100 30 151q35 44 73.5 69.5t74.5 39t67 18t52 6.5q47 0 100 -18l200 208q5 2 6 2h6q5 0 9 -1q9 -5 20.5 -17t13.5 -19l23 -22q5 -7 10 -12.5t5 -8.5v-175l-120 -126
q18 -44 18 -100q0 -78 -24 -141q-21 -51 -64 -86.5t-93 -57.5q-53 -15 -107 -15q-66 0 -117 19l-124 -124q-19 -19 -46 -33.5t-57.5 -25t-61.5 -17.5t-58 -11l-37 36q-2 0 -3 -0.5l-5 -2.5v73l232 258q-23 56 -23 133z" />
    <glyph glyph-name="FL00A8h" unicode="&#xa8;" horiz-adv-x="524" 
d="M58 790q-2 0 -4.5 -4t-3.5 -6q-4 -7 -7 -20t-4.5 -28t-2 -30t-0.5 -25v-33q14 0 28 -0.5t25 -0.5h35q17 0 35 0.5t41 2.5q10 20 12.5 46t2.5 51v32q0 4 -1 10t-6 6zM297 791q-2 0 -4 -4l-3 -6q-5 -7 -7.5 -20t-4.5 -28t-2.5 -30t-0.5 -25v-33q14 0 28 -0.5t25 -0.5h35
q17 0 35 0.5t41 2.5q11 20 13.5 46t2.5 51v32q0 4 -1 10t-7 6zM447 814q13 0 19 -6t8 -14l31 -29q6 -6 7 -14.5t1 -13.5v-32q0 -26 -4 -56.5t-20 -58.5q-30 -2 -49.5 -2.5t-37.5 -0.5h-64q-11 0 -21.5 0.5t-19.5 0.5l-34 33q-2 -8 -5 -16t-8 -16q-31 -2 -50 -2.5t-37 -0.5
h-64q-11 0 -21.5 0.5t-19.5 0.5l-36 36h-8v54q0 12 1 28.5t3 34t6 33.5t10 25l1 -1q4 5 10.5 10t12.5 5l150 1q13 0 19 -6t8 -14l26 -24q2 8 5 15.5t7 14.5l1 -1q4 5 11 10t12 5z" />
    <glyph glyph-name="FL00A9h" unicode="&#xa9;" horiz-adv-x="2370" 
d="M1787 187l3 -16q4 -4 12 -11.5t19 -15.5l13 -13q7 -6 22.5 -19t35.5 -30t42.5 -35.5t42.5 -35t36 -29.5t23 -19h1q5 -5 8 -6q0 -3 5 -3q2 -2 6 -4q2 -1 5 -2t20 -7l289 477l-39 37l6 9h-269q13 20 24.5 39t19.5 31l7 -4q3 -3 6 -5q0 -3 5 -3l8 -8l6 -3q7 -2 9 -4l4 -4
t5.5 -4t5.5 -4q4 -3 12 -5h1q5 -2 11 -3.5t16 -3.5l16 19l57 72l-38 38l2 2q-5 4 -16 15t-26 25t-32 29.5t-32 29.5t-26.5 24.5t-15.5 14.5v-2q-8 5 -19.5 13.5t-19.5 13.5v1q-2 1 -6 2.5t-6 2.5v-1q-5 4 -11.5 4.5t-23.5 0.5l-265 -456v384l-37 37v8h-143v-734h8l37 -37
h135v310l33 -34h88q-2 -2 -3 -2l-1 -1q-2 -1 -5 -4q-3 -2 -6.5 -5t-6.5 -6q-2 -2 -3 -2.5t-3 -2.5l4 -4q-4 -4 -8 -7.5t-6.5 -5t-2 0.5t6.5 8q-6 -5 -8 -6.5t-7 -5.5l-2 3l-5 -5t-6 -3l-4 -4l-7.5 -7.5t-5.5 -6.5zM14 579v-546h8l37 -37h136v32q0 11 0.5 23t1.5 20l2 2l7 7
q2 2 5.5 5t6.5 6h1l14 14q18 17 42 38t48 41v-143h8l37 -37h147v752l-37 37v11zM1197 755v-1q-2 0 -3 0.5t-3 0.5q1 -1 1 -2l1 -1h-1v1q-4 1 -8 1.5t-7 1.5q-2 1 -3.5 1.5t-4.5 0.5h-4q-1 0 -1.5 0.5t-1.5 0.5q-28 4 -45.5 6t-19.5 2h-51v-749h8l37 -36q29 6 39.5 10.5
t15.5 7.5h-1h1q0 1 1 1v0q1 0 3 1l10 4q18 6 37.5 15t41.5 20q2 2 6.5 4t9.5 4l6 3q29 14 59.5 28.5t60.5 28.5q12 6 24.5 11.5t23.5 10.5q15 8 29 14t26 12q16 8 30 14.5t22 10.5h-1q4 4 9 9.5t10 11.5q1 2 1 5v6q0 3 -1 6t-6 17l-119 225l-32 31l-7 16q-42 -14 -76 -30
t-59 -29l-14 -7v110l241 -35h17q6 5 13.5 13t11.5 13q4 8 5 13l2 10q0 2 0.5 3.5t0.5 3.5q2 11 2.5 14.5t1.5 6.5q3 11 5 20t4 15l-1 1q0 1 3 4v30l-37 37v6q-5 1 -13.5 4t-18 5.5t-18 4.5t-12.5 3q-23 3 -54 6q-12 2 -24 3t-26 3q-12 2 -24.5 3t-25.5 3q-11 2 -20.5 3
t-19.5 2q-12 1 -26.5 2t-26.5 3v2h-4zM526 295q0 -17 13.5 -30t24.5 -18l19 -19q8 -8 14.5 -12.5t9.5 -6.5q1 -1 2 -1.5l1 -0.5l-2 1q2 -2 5 -2l6 -3q10 -6 27 -15t38.5 -21t46.5 -26.5t51 -29.5l3 -1h-1q33 -20 67 -38t63 -34l3 -3l12 -7v1q13 -9 19 -11h-1q5 -3 14 -8.5
t8 -4.5l3.5 -1.5t9.5 -5.5l6 -3q7 -4 18.5 -6t34.5 -2v142l-37 37v4l-22 22q-30 14 -63 30t-65 35l154 99l38 38l-39 38l6 6q-32 10 -44 15t-18 9q-1 0 -1.5 0.5t-1.5 0.5h1q-4 2 -7 5q-2 0 -2 1l-2 2q-7 5 -18.5 11t-28.5 14v-1q-6 3 -12.5 5.5t-12.5 6.5q4 2 8.5 4t9.5 5
h-1q11 6 22.5 13t22.5 14h-1q7 4 13.5 8t13.5 8q22 14 40.5 25t27.5 16l19 19v150l-37 36v12l-435 -235q-1 -1 -4 -2v2l-6 -6q-1 -1 -2 -1q-6 -4 -15.5 -12.5t-23.5 -30.5l27 -25q0 -3 5 -3l14 -13l24 -23q6 -2 16.5 -8.5t24.5 -15.5q14 -8 30.5 -17t27.5 -16l-153 -90
q-6 -12 -7 -15t-1 -11zM345 300q-8 -8 -22 -19.5t-27 -22.5l-58 -48t-42 -37v1q-5 -5 -13 -13.5t-15 -14.5q-7 -7 -12.5 -12t-9.5 -9l-4 -4q0 -1 -1 -2q-2 -7 -3.5 -23.5t-1.5 -27.5v-13h-100v509l420 205v-706h-111v237zM1097 745q2 0 19 -2t45 -6q8 -1 16.5 -1.5
t17.5 -2.5q33 -5 71.5 -9t75.5 -9q30 -4 57 -6.5t47 -5.5q5 0 19.5 -4t22.5 -6v-13q0 1 -0.5 -2.5t-1.5 -5.5q-2 -6 -3.5 -13t-4.5 -18q-2 -5 -3 -10t-2 -12v1l-3.5 -17.5t-3.5 -11.5l1 1q-2 -3 -6.5 -8t-7.5 -7h-9l-262 38v-401l152 69l16 14q-2 0 -6.5 3t-9.5 7.5
t-9.5 8.5t-5.5 7l-50 84l-1 -1q-2 4 -4 10.5t-3 11.5q23 11 54 26.5t62 26.5l115 -217l4 -11q0 -2 -1 -4q0 -1 -0.5 -1.5t-0.5 -1.5q-2 -2 -5.5 -5t-5.5 -5q-14 -7 -41 -19t-61 -28q-39 -19 -83.5 -39.5t-84.5 -40.5q-5 -2 -9 -4l-8 -4h1q-28 -14 -49.5 -23t-34.5 -14
l-10 -4q-2 -1 -3 -1l-2 -1q-6 -3 -13 -6t-17 -6v699h29zM1816 198l2 2l6 4q-11 -6 -7 -3l14 10.5t22 16t18 13.5q5 4 8 6t5 4q18 -6 34.5 -19.5t31.5 -27.5q15 -15 28 -26.5t24 -11.5q4 2 5 6q1 2 3 5.5l2 3.5l84 143h-327l256 441q5 0 7 -0.5t4 -1.5l10 -5q1 0 1.5 -0.5
t1.5 -0.5h-1l12.5 -7.5t14 -9t11.5 -8t6 -4.5q6 -6 23.5 -22t37.5 -34t37.5 -35t25.5 -25l-46 -59l-9 -11q-5 1 -7 1.5t-5 2.5v1l-9 3l-12 8l-8 6t-9 6q-4 2 -7.5 5t-6.5 5q-8 5 -17 11.5t-15 10.5q0 -5 -1 -6.5t-3 -3.5q-6 -9 -18.5 -28.5t-26 -41.5t-25.5 -41t-17 -27
q-2 -5 -3 -6l-6 -6h332l-266 -438l-7 4q-8 4 -9 5q-4 2 -6 4q-4 4 -6 5l1 -1q-11 8 -38.5 30.5t-58 48t-58 48.5t-38.5 33l-2 9q1 2 7 8zM548 295q0 2 0.5 3l3.5 7l-1 -2l184 110q-16 16 -32 27.5t-30 19.5q-7 5 -29.5 17.5t-48.5 25.5h1q-11 7 -21 12.5t-17 8.5l-12 10
q8 11 15 16t12 9l1 1q1 0 2 1l-1 -1q4 2 5 3l402 219v-117l-9 -10q-11 -5 -38.5 -21t-57.5 -34t-56.5 -33.5t-37.5 -21.5q-1 -1 -2 -1.5t-6 -3.5q-2 -1 -11 -6q7 -4 18.5 -10t22.5 -11q4 -2 8 -3.5t9 -3.5q17 -9 35 -18t33 -17q14 -7 24.5 -12.5t15.5 -8.5q3 -4 6.5 -5.5
t7.5 -3.5q12 -8 30 -15l-13 -13v1l-189 -120v-1l-8 -7q51 -35 106.5 -63.5t103.5 -51.5l8 -9v-116q-10 0 -15 2t-9 4l-2 1l-5 3q-7 4 -15 8.5t-19 9.5h1q-8 5 -16.5 9.5t-17.5 9.5q-29 16 -62.5 35t-67.5 39q-29 16 -56.5 31.5t-50.5 28.5t-40 22t-25 14q-2 0 -6 4
q-5 3 -16.5 11.5t-11.5 16.5zM1588 738h99v-690h-99v690zM342 462v128q-20 -8 -53.5 -22t-66 -29t-56 -27.5t-23.5 -17.5v-228zM201 454l10.5 5t28 12.5t38.5 16t42 17.5v-35l-119 -117v101zM1247 403l-2 -2l50 -84q4 -5 8 -9.5t9 -9.5l-71 -33v159q1 -5 2.5 -10.5
t3.5 -10.5zM1965 218q-14 14 -28.5 25.5t-31.5 21.5h129l-42 -73q-6 5 -13 11.5t-14 14.5zM1836 233q2 1 5 4l-4 4l-2 -2zM1196 749v0q0 1 1 1v-1q1 -2 2 -2.5l1 -0.5q-4 1 -4 3q-1 0 -1 1zM1998 6l1 1l1 -1l-1 -1q-1 0 -1 1zM1827 207v-1q-2 -2 -3 -2zM1196 749h1h-1z" />
    <glyph glyph-name="FL00AAh" unicode="&#xaa;" horiz-adv-x="590" 
d="M14 467v-17q0 -5 13 -11l31 -32q5 -4 19.5 -10.5t24.5 -6.5h7q1 0 1.5 -0.5t2.5 -0.5h13h10q3 0 11 1l14 14l40 79q3 6 13.5 9.5t24.5 5.5t30.5 3t31.5 2h9q2 0 5 0.5t5 0.5h3q1 -3 2 -5.5t2 -4.5q2 -10 3 -14t3 -10q3 -15 7.5 -25t16.5 -13l-1 1l33 -32q6 -6 15 -6h153
q3 0 9.5 4.5t12.5 13.5q0 10 -5 18h1l-2 1q0 1 -2 3h-1l-30 29q-2 8 -7.5 12t-11.5 8l-6.5 13t-6.5 15l-145 307l-3 2l1 -1h-1v1q-1 1 -1 3l-30 30l-2 4v1q-4 6 -11 10.5t-15 4.5q-14 0 -27.5 -5t-23.5 -10q-26 -11 -36 -27.5t-16 -37.5l-6 -15q-1 -2 -1 -3l-1 -2t-1 -4
l-1 -1v-1l-40 -78q-31 -60 -64 -116t-67 -101zM169 682l40 79q5 12 10 26q5 17 12.5 30t24.5 21l4 2q8 4 19.5 8t21.5 4q4 0 6 -3l143 -306q10 -19 24 -39.5t34 -36.5l5 -3q6 -4 7 -6l-1 -2q-1 -2 -1 -3v0h-154q-2 0 -4.5 10t-7.5 24q-3 12 -7.5 26t-10 25t-12 18.5
t-15.5 7.5h-1l-26 -2q-5 0 -10 -0.5t-10 -0.5q-16 -1 -35 -2.5t-35.5 -4.5t-29.5 -9t-17 -15l-39 -79l-3 -3q-8 -1 -10 -1h-5h-13q-2 0 -3.5 0.5t-3.5 0.5h-4q-6 0 -16 1l-10 1v14q38 52 71 106.5t62 111.5zM183 612q1 -3 1.5 -3.5t5.5 -2.5h107l-49 112l-10 10l-55 -109v-7
z" />
    <glyph glyph-name="FL00ABh" unicode="&#xab;" horiz-adv-x="514" 
d="M14 301q0 -14 5 -19.5t13 -7.5l31 -32q4 -5 9 -5.5t11 -0.5q15 -15 42 -36.5t53.5 -41t46 -33t20.5 -13.5h37q0 9 0.5 20t0.5 22v91l1 -1q3 -5 8 -5.5t11 -0.5q16 -15 43 -36.5t53 -41t45.5 -33t20.5 -13.5h37q0 8 0.5 19.5t0.5 22.5v107q0 2 -0.5 7t-2.5 14l-36 34v2
q0 1 -0.5 2.5t-0.5 3.5q-5 2 -14.5 7.5t-20.5 13.5q16 12 37.5 26.5t32.5 21.5q2 6 2 11v10v20q0 1 -0.5 2.5t-0.5 3.5v7q-1 4 -1 11v65q0 11 -0.5 21t-0.5 19l-37 37v8h-39q-1 0 -16.5 -11t-37.5 -27t-46.5 -35.5t-42.5 -35.5v25q0 10 -0.5 19.5t-0.5 17.5l-37 37v8h-39
q-1 0 -21.5 -14t-47.5 -34.5t-54 -42.5t-41 -37q-15 -3 -20 -19v1q-2 -4 -2 -10zM37 452l2 2q2 5 8 6q12 14 37 35.5t50.5 41.5t45.5 34.5t21 14.5h17q0 -16 0.5 -29t0.5 -24v-35q0 -13 1 -17q0 -2 0.5 -4t0.5 -4v-19q0 -5 -1 -8q-5 -3 -16.5 -12t-25 -19.5t-26 -20.5
t-20.5 -17q8 -8 21 -18.5t27 -21t26 -18.5t17 -11q1 -3 1 -8v-77q0 -11 -0.5 -24.5t-0.5 -28.5h-18l-9.5 6.5t-23.5 17.5t-31.5 24.5t-35 27.5t-32 26.5t-23.5 21.5h-3q-5 0 -8 1t-3 6zM257 454l2 2q1 4 9 6q12 14 36.5 35.5t50 41.5t45.5 34.5t21 14.5h18q0 -16 0.5 -29
t0.5 -24v-35q0 -13 1 -17q0 -2 0.5 -4t0.5 -4v-19q0 -5 -1 -8q-5 -3 -16.5 -12t-25 -19.5t-26.5 -20.5t-20 -17q7 -8 20.5 -18.5t27.5 -21t26 -18.5t17 -11q1 -3 1 -8v-77q0 -11 -0.5 -24.5t-0.5 -28.5h-18q-1 0 -20.5 14.5t-45 34t-51 40.5t-38.5 35h-3q-5 0 -8.5 1t-3.5 6
zM208 344q6 5 12.5 10t13.5 10v-37q-9 5 -26 17z" />
    <glyph glyph-name="braceleft" unicode="&#xac;" horiz-adv-x="750" 
d="M289 641h2q0 -2 2.5 -9.5t4.5 -12.5q0 -2 2.5 -8.5t5.5 -14.5t6 -15t4 -11q0 1 1 1q5 0 6 4.5t1 9.5q0 3 -0.5 5.5t-0.5 4.5v6q0 16 -1 28.5t-6 29.5h-3q-5 0 -13 -3.5t-8 -11.5zM179 340q0 -18 6 -38.5t14 -39.5q2 10 6 18l8 16q5 11 9 22t4 22v2q0 5 -1 11t-8 6
q-1 0 -3 -0.5t-11 -3.5q8 12 11 21.5t4 18.5h-4q-3 0 -8.5 -0.5t-10.5 -0.5h-12q-4 -1 -8.5 -3t-5.5 -4t-1 -5q0 -9 7.5 -18t15.5 -9v-6q-2 0 -7 -2.5t-5 -4.5v-2zM346 651q0 -20 1 -34.5t6 -34.5q10 0 22 17.5t24 39.5q7 13 13.5 24.5t13.5 19.5h-22q-15 0 -27 -1t-31 -8
v-23zM214 461q-11 -6 -24 -10.5t-26 -4.5v-36q26 4 44 16t28.5 31t15 42.5t4.5 49.5h10q2 0 5 -0.5t6 -0.5q4 0 6 1.5t2 8.5v3q0 3 -3.5 12t-7.5 19t-8.5 18t-5.5 10q0 3 -5 6l-30 -30l36 -46h-8l-3 -3l-40 30l1 -1l-5 1v-1l-23 -39l32 -15v-12q-15 0 -18 -1q-2 0 -3.5 -0.5
t-2.5 -0.5q-3 0 -7 1t-13 6q-1 -4 -3 -14v1q0 -1 -0.5 -1.5t-0.5 -1.5l-3 -15t-1 -13v-5h50zM102 198q-2 -1 -4 -5.5t-3 -6.5q-2 -2 -6.5 -11.5t-9.5 -20.5q-3 -7 -6 -13l-5 -10q22 7 39.5 21.5t29.5 34t18.5 41.5t6.5 43q0 26 -5 51t-11 50q-6 24 -11 49.5t-5 51.5
q0 67 25 113t66.5 74.5t96 41.5t114.5 13h9q2 4 2.5 8.5t2.5 9.5q6 24 16 52t30 42l-27 11h-144q-13 -5 -27.5 -7.5t-28.5 -4.5q-10 -2 -19.5 -3.5t-19.5 -4.5q-42 -12 -77 -38t-59.5 -61.5t-38.5 -77.5t-14 -85v-22q0 -37 10.5 -73.5t23.5 -71.5t24 -71t11 -74v-9v-10
t-1 -10q0 -5 -0.5 -8.5t-0.5 -5.5zM425 96l10 -10q3 -3 12 -8q11 -8 26.5 -18t20.5 -10q36 -20 71 -29t76 -9q-2 19 -16 39.5t-24 31.5q-15 27 -24 56t-13.5 57.5t-6.5 54.5t-3 47q-5 14 -14.5 19t-19.5 9q-9 3 -17 7t-13 14q0 9 10 12t19 3h9q20 0 33.5 -14t27.5 -32
q15 -23 35.5 -42t54.5 -20q-1 14 -11.5 37.5t-27 51t-36.5 57t-39.5 56t-36.5 47t-28 30.5q-17 14 -42 21t-44 7q-40 0 -71 -14.5t-52.5 -40t-32.5 -60t-11 -74.5q0 -30 5.5 -58.5t12.5 -57.5t12.5 -58.5t5.5 -62.5q0 -26 -2.5 -46.5t-13.5 -46.5q24 9 50 23
q24 11 48.5 21.5t51.5 10.5zM52 103q-1 0 -1 -1h-1h-5v47q6 0 8.5 3t4.5 8q1 1 1 2q4 11 10 22.5t11 16.5l2 2v8q0 2 0.5 3t0.5 3q1 5 1 9v9v9q0 31 -8.5 61t-18.5 61l-6 14q-14 37 -25 74.5t-11 79.5v22q0 46 15 91.5t42 84t65 67t84 40.5q10 3 20.5 4.5t21.5 3.5
q2 0 2.5 0.5t2.5 0.5h-1q13 2 26 4.5t24 7.5h154l72 -30q-3 -2 -7 -4l36 -37q-18 -11 -30 -24t-19.5 -26.5t-11.5 -26.5t-7 -25q-4 -7 -5 -14q-1 -2 -1 -3v0l10 -10q-22 -22 -33 -38t-19 -30l-8 -12l1 1q-1 -1 -1 -2v0q17 -4 34.5 -11.5t31.5 -18.5q6 -6 14.5 -15t18.5 -22
l7 -7q12 -12 30.5 -35.5t39 -52.5t41 -61.5t37 -63t27 -56t10.5 -40.5q-37 0 -59.5 10.5t-38.5 25.5l-23 22l-2 2q-1 0 -3 2q1 -20 2.5 -44.5t6 -51t12 -53.5t21.5 -52l1 -1q5 -6 12.5 -16.5t14 -23.5t11.5 -29t5 -34q-51 0 -91.5 9.5t-78.5 29.5q-8 2 -24.5 13l-28.5 19v-1
q-4 2 -5 3.5t-6 4.5l-9 8l1 -1l-4 1q-21 -2 -42 -10t-41 -19q-2 -1 -2.5 -1.5t-2.5 -1.5q-12 -6 -31 -14t-54 -19l-39 36h-3q-1 0 -4 -0.5t-4 -0.5q10 25 16.5 43t9.5 32.5t4 26t1 24.5q0 17 -2.5 33.5t-5.5 33.5l-23 -1l-12 11q-3 -23 -13 -46t-26.5 -43t-39 -35t-50.5 -21
z" />
    <glyph glyph-name="FL00ADh" unicode="&#xad;" horiz-adv-x="497" 
d="M14 267v-11q5 -6 14 -10l29 -29q3 -4 10.5 -7.5t15 -6t13.5 -4t8 -1.5q7 2 21 13.5t23 21.5l262 -1q8 0 14.5 8.5t8.5 14.5q2 3 2.5 5.5t2.5 5.5q20 43 34 82t14 85q0 10 -5 18h1l-3 3l-3 3h-1l-29 29q-5 13 -16.5 18t-24.5 5h-11l-35 -23h-1q-1 -1 -2.5 -1.5t-6.5 -4.5
l-257 1q-11 0 -18 -11.5t-10 -20.5l-3 -8l-0.5 -2.5t-1.5 -4.5q-1 -5 -5 -15q-1 -4 -5 -14q-6 -17 -12 -35.5t-11 -37t-8.5 -35.5t-3.5 -30zM36 267q0 13 4 31t9.5 37.5t12.5 39.5t13 37l5.5 16.5t4.5 12.5t5 11.5t2 6.5l259 -1q2 0 9.5 4t11.5 6l28 20h5q8 0 15.5 -3
t7.5 -13q0 -47 -15.5 -86.5t-35.5 -83.5v1q-2 -4 -5 -9t-2 -5l-270 1q-2 -3 -7 -8t-11 -10.5t-12 -10t-9 -5.5q-4 0 -13 2t-12 6v3z" />
    <glyph glyph-name="FL00AEh" unicode="&#xae;" horiz-adv-x="2377" 
d="M14 581v-549h8l37 -37h154v41q0 8 1 19.5t3 19.5l7 7q4 4 11.5 11t12.5 12l7 7q5 4 19 16q10 8 21.5 17.5t24.5 20.5v-127h8l37 -37h166v268q6 -9 14 -15.5t15 -10.5v1l21 -20q7 -6 13 -11t11 -8q3 -4 6 -5l6 -2q11 -5 29 -14.5t42 -23.5q11 -6 22.5 -12.5t23.5 -13.5
q44 -24 91.5 -49.5t86.5 -47.5l1 -1q5 -3 10.5 -6.5t10.5 -6.5q4 -4 6.5 -5t5.5 -2l-1 1q11 -8 19 -12t13 -6l2 -2l12 -4v2q11 -5 26 -7.5t35 -2.5v23l30 -30q36 9 50.5 13t20.5 7q2 1 3.5 2l1.5 1l-1 -1l8 4q3 0 4 1q5 2 21 10q2 1 3.5 1.5t3.5 1.5q14 7 31 15t37 17
q37 16 79.5 35.5t81 37.5t69.5 33t45 22l-1 2q4 3 7.5 6.5l6.5 6.5v-169h8l37 -37h153v277l8 -8h76l-6 -6t-6 -5q-5 -5 -10.5 -9.5t-9.5 -8.5l-4 4q-4 -3 -8.5 -7.5t-9.5 -8.5l-5 -5l-3 -13l6 -29q9 -10 29 -26l15 -14q7 -6 22.5 -19t35 -29.5t41.5 -34.5t42 -34.5t35.5 -29
t22.5 -18.5h3l6 -6l19 -9.5t26 -12.5l301 490l-39 37l6 9h-140l15 15q2 2 2 3l2 2l62 79l-39 37l3 4q-5 4 -14.5 12t-20.5 18t-23 20.5t-22 19.5q-13 12 -26 24.5t-23 22.5l-7.5 7.5t-6.5 5.5l-7 7l-4 -4q-5 8 -11 12t-11 7v-1q-1 1 -4 3.5t-4 3.5v-3l-3 3q-2 2 -6 4
q-3 0 -3 2l-8 3h1h-1q-6 7 -15 8t-30 1l-249 -421v349l-37 37v8h-161v-94l-36 36v7l-10 2t-8 2q-9 2 -14.5 3t-8.5 2h-4q-4 0 -5 -1l-5 3l1 -1q-8 6 -13 7q-23 2 -54.5 5.5t-66.5 8.5q-31 4 -63 7t-60 6v2q-42 5 -72 8.5t-37 3.5h-45v7l-37 36v12l-435 -233l-4 5l-14 -14
l-3 -2h-2q-5 -3 -11 -8t-15 -16v207l-37 37v11zM342 281q-17 -14 -37.5 -31t-40 -33t-36 -29.5t-23.5 -19.5q-3 -3 -6 -6.5t-8 -7.5l-16 -16l-13 -13q0 -1 -1 -1v0l1 1q-2 -2 -2 -3q-2 -8 -3.5 -22.5t-1.5 -24.5v-21h-119v512l436 209v-714h-130v220zM1097 746q2 0 29 -3.5
t69 -8.5q30 -3 64 -6.5t68 -8.5t63.5 -8.5t52.5 -5.5q0 -1 9.5 -3t17.5 -4q6 -2 12.5 -3.5t12.5 -3.5v-18q-2 -5 -4.5 -14t-4.5 -20q-1 -2 -1 -4q0 -1 -1 -3l-6 -24l-3.5 -17.5t-3.5 -11.5l-2 -2q-3 -4 -7 -8t-8 -6h-14l-249 35v-365l136 60l17 16q-8 0 -21 4.5t-15 7.5h1
l-49 81l-1 -1q-2 6 -5 16t-4 16q23 12 58 28t72 29l120 -223l2.5 -7.5t0.5 -3.5v-6l-1 -1q-2 -2 -2 -3q-3 -4 -9.5 -8.5t-11.5 -6.5v-3q-17 -8 -46.5 -21.5t-65.5 -30t-75 -34.5t-74 -34q-22 -11 -41 -19.5t-34 -14.5q-8 -4 -14.5 -7t-11.5 -5t-7 -2t-4 -2v-1
q-5 -3 -14.5 -5.5t-32.5 -8.5v703h38zM2082 731v1q3 -2 5 -2.5l2 -0.5h1l-1 -1q7 -6 25.5 -23.5t40.5 -37.5q19 -19 37 -35l27 -24l-50 -65q-2 -2 -2 -3l-1 -1l-9 -10l-15 2.5t-7 2.5q-3 2 -4 2.5l-3 1.5q-1 0 -2 1q-2 1 -4.5 2t-4.5 3q-5 3 -10 7t-11 8v-1q-5 3 -8.5 6
t-8.5 6q-8 7 -15 10q5 0 8 5q0 1 0.5 1.5t0.5 1.5l-5 2q-2 -2 -2 -3l-7 -7h2q-8 -11 -20 -29t-24 -36.5t-23.5 -36t-18.5 -28.5h329l-277 -448q-5 2 -12 6t-12 6l1 1q-6 4 -13 6l1 -1l-38.5 31.5t-58.5 48t-58.5 48.5t-37.5 32l1 -1l-5 22q3 3 7 6l8 6l8.5 7t19.5 15.5
l22 17t16 11.5q23 -7 41 -21t33 -28q12 -14 23 -23.5t19 -10.5v3l79 132h-322l264 450q10 0 14 -1t6 -3q7 -2 13 -7q3 -2 5.5 -4.5t7.5 -4.5q5 -3 11 -6.5t11 -5.5l-1 -1zM544 298q0 4 0.5 5t2.5 6q0 1 1 2v-1l176 105q-14 12 -26 20t-22 13l-4 1l1 1q-6 4 -22.5 12.5
t-34.5 18.5l-21 12q-9 6 -19 11q-5 3 -9.5 5t-7.5 4l-20 17q11 14 19 20.5t13 10.5q1 1 2 1.5t3 2.5l1 -1l416 224v-133l-13 -13v1q-8 -5 -27.5 -15.5t-42.5 -24.5h1q-17 -9 -35 -19.5t-34.5 -20t-30.5 -17.5t-23 -13q11 -7 15.5 -9.5t9.5 -4.5l16 -7q20 -10 41 -21t38 -20
l31 -16q4 -4 9 -5q1 -1 4 -2.5l3 -1.5q2 -2 12 -5.5t26 -9.5l-28 -28v1l-183 -116q46 -30 98.5 -56t99.5 -47l13 -14v-126q-20 0 -27 2t-12 4l1 2l-7 2h1q-6 4 -14.5 8.5t-18.5 10.5q-8 4 -16.5 9t-17.5 10q-25 14 -54 30t-59 32.5t-59 32.5t-54 30q-26 14 -45 24t-28 15
q-2 0 -9 7q-8 5 -19 14t-11 20zM1575 739h117v-692h-117v692zM340 464v109q-22 -9 -52.5 -21t-58.5 -24t-47.5 -22t-19.5 -14v-200zM1398 503l-8 13q-41 -14 -77 -29.5t-63 -28.5v78l228 -31h20q8 3 14 8.5t10 10.5l6 6q4 8 5 13.5t2 10.5q1 2 1 4t1 5l5 21q0 2 1 4q0 2 2 4
q2 11 3.5 19.5t4.5 13.5v-383l-122 228zM1012 346l25 22v-215l-22 22v4l-26 26q-26 11 -55 24t-58 30zM557 488l33 -33q3 -2 7.5 -4t9.5 -5l6 -3q3 -2 6 -3.5l7 -3.5l22 -12q3 -2 5.5 -3.5t5.5 -3.5l-1 1q4 -2 6.5 -4t5.5 -4l-131 -78l-8 -8v186l18 -17q2 -2 6 -4l-1 1z
M960 546q11 7 21 13t20 11q11 6 19 11t13 8l4 3v-166l-8 8l6 6q-68 22 -71 26q-4 2 -7 5q-6 3 -8 5l-32 16q-5 2 -9.5 4.5t-9.5 5.5q-2 1 -4.5 2t-5.5 3q4 2 8 4.5t9 4.5q13 7 26.5 14.5t27.5 15.5h1zM318 488v-16l-98 -95v73q18 7 29.5 11.5t21 8t20 7.5t27.5 11zM2082 479
q6 10 12 19t13 17q1 0 1.5 -0.5t1.5 -0.5l-1 1q2 -2 4 -3t4 -3q3 -3 4.5 -4t3.5 -2q4 -2 7.5 -5t7.5 -5l6 -3q5 -5 9 -7v-1q1 0 1.5 -0.5t2.5 -0.5q0 -1 2 -1l4 -2h1l7.5 -3t13.5 -3h-110q2 2 2.5 3.5t2.5 3.5zM1285 314q2 -5 11 -10l-46 -20v87zM1965 229l-7 7l-24 21h74
l-27 -45q-4 4 -7.5 8t-8.5 9zM1299 312l-1 1q1 0 1 -1zM2086 735l-1 1q1 0 1 -1z" />
    <glyph glyph-name="FL00AFh" unicode="&#xaf;" horiz-adv-x="566" 
d="M14 653v-11q5 -6 14 -10l29 -29q3 -4 10.5 -7t15 -5.5t13.5 -4t8 -1.5q7 2 21 13t23 21l338 1q8 0 14.5 8.5t9.5 14.5q8 22 11 27.5t5 7.5l0.5 1t1.5 2h2q6 9 10.5 17.5t7.5 18t5 22t2 29.5q0 15 -9 24l-31 29q-5 14 -16.5 19t-24.5 5h-11l-35 -24h-1q-1 -1 -2.5 -1.5
t-7.5 -4.5l-332 -1q-11 0 -17.5 -10.5t-9.5 -18.5q-2 -9 -7 -19.5t-10 -21.5q-11 -21 -19 -43t-8 -48zM36 653q0 21 7.5 41.5t17.5 40.5q5 11 9.5 20t7.5 20q2 5 5 11.5t2 6.5l334 1q2 0 10 3.5t12 5.5l28 20h5q8 0 15 -3t7 -13q0 -15 -1.5 -26t-4 -19t-6.5 -15.5t-9 -15.5
t-10.5 -17.5t-11.5 -23.5v1q-2 -4 -5 -9t-2 -5l-346 -1q-2 -3 -7 -8t-11 -10.5t-12 -10t-9 -5.5q-4 0 -12.5 2t-12.5 6v3z" />
    <glyph glyph-name="FL00B0h" unicode="&#xb0;" horiz-adv-x="1099" 
d="M563 -45q3 -3 7.5 -7t12.5 -8l34 70v11q8 0 16 8l17 22l6 8v8l2 -2q10 0 14.5 1.5t8.5 5.5q2 0 4 2q2 1 3 1t3 1q12 3 26 11v20l-27 26l56 41l8 7h8q0 -15 7 -28.5t21 -18.5l-1 1l29 -29q11 -11 27 -11h46l-13 7l-31 32q-2 2 -2 3q9 -9 28 -9q15 0 29 7.5t14 27.5
q0 6 -1.5 14t-6.5 14q6 4 10.5 10.5t4.5 17.5l-1 1v4q-3 8 -8 13l-23 22v22q0 1 -2 11h24v16q5 -1 22 -1q0 8 -0.5 13t-0.5 9h20q0 8 -0.5 14t-1.5 11q8 1 12 5t4 15h15v29q5 1 9.5 5.5t4.5 18.5q-2 2 -2 7h3q2 0 10.5 5.5t11.5 8.5v7v7q10 7 10 20q0 4 -2 10q5 2 8.5 6.5
t3.5 12.5v4q4 1 11 6q1 1 2 1.5t2 1.5v14q0 2 -0.5 3t-0.5 2q5 4 9 9t4 15q0 2 -2 8q13 8 13 37l-3 3q4 5 8.5 11t8.5 14l-10 10q2 6 4 15.5t2 22.5l-10 9q3 8 5 15.5t2 17.5v6q0 10 -5 15l-12 11q1 4 1.5 7t0.5 8v16l-22 22v16l-11 23l-34 33l-5 12h-7l-29 30
q-1 6 -4.5 8.5t-14.5 3.5q-5 5 -7 9l-11 16v-32q-4 -5 -4 -14v-2q-7 5 -23 10v-29v-13t1 -11v-9q0 -2 0.5 -3t0.5 -3v-5q0 -42 -17.5 -77t-42.5 -73v-17q-18 -2 -31.5 -10.5t-24.5 -19.5q-8 14 -20.5 19.5t-23.5 9.5h-1q-1 1 -5 3h-2q-49 20 -96 31.5t-100 11.5
q-52 0 -98.5 -9t-94.5 -28q-5 -3 -11 -6.5t-11 -6.5q-2 -2 -6.5 -4l-4.5 -2l1 1l-6 -2l-8 -4l-13 -13l1 -2q-3 -3 -4 -5q-16 18 -31 26q-21 30 -35.5 64.5t-14.5 69.5q0 4 0.5 9.5t1.5 11.5h-1l-1 2q2 0 4 3.5t2 26.5v49l-37 36v22q-11 -16 -16.5 -24.5t-8.5 -13.5h-21
q-10 0 -17.5 -11t-12.5 -23q-26 -1 -33 -15t-7 -28v-2l-20 20v-29q0 -15 -1 -17q0 -1 -1 -3v-15t2 -13q-3 0 -7 0.5t-9 0.5q0 -21 2 -36.5t7 -29.5h-12q0 -23 1.5 -31t4.5 -13l-4 -4q0 -13 13 -28h-12q6 -28 21 -42q-5 -7 -5 -10v-9l11 -8l3 -2l-7 -7l21 -24v-19l8 -4l1 -1
l2 -1l-1 -1v-6q0 -11 3.5 -16t8.5 -7v-25h7l16 -16q-1 -5 -1 -10v-11h8l4 -4v-21h8l8 -8q2 -9 5.5 -11.5t8.5 -2.5v-1v-15v-10h8l37 -37h7l12 -13q-1 -8 -1 -15v-15q-13 0 -21.5 -3.5t-8.5 -23.5q0 -19 11 -28q-3 -5 -4 -12t-1 -15q0 -14 6.5 -22t16.5 -12l28 -28q0 -2 1 -2
v-8h8l36 -37q32 0 45.5 18t13.5 36v9q-1 2 -1 4q0 3 -1 5q-2 5 -2.5 10t-1.5 10q8 -4 16.5 -5t19.5 -1h6q1 0 1.5 0.5t1.5 0.5h5v3l6 -3l6 -6q4 -4 7.5 -7t6.5 -5v1q2 -1 2.5 -2t2.5 -2l-9 -4.5t-13 -5.5v-23q7 -7 13 -10l-1 1l32 -31q4 -3 11 -6.5t13 -5.5l-1 1l8 -7
q0 -4 9 -4l8 -8h4v-5q2 -5 7 -16.5t10 -18.5v1q3 -10 10.5 -21t23.5 -21v1zM363 353l-22 21q10 5 17.5 13.5t7.5 22.5v12l-2 1q6 14 9 30t3 27t-2 25t-7 28v65q8 2 23.5 5.5t25.5 8.5q26 11 55 17.5t60 11.5h-1q6 1 11.5 1.5t9.5 0.5h24q40 0 80 -9.5t80 -24.5v-16h7l2 -3
q-11 -17 -14 -33.5t-3 -34.5q0 -11 1 -23.5t6 -23.5v-26q0 -17 7 -25t18 -13l27 -27q0 -2 2 -4v-1q1 -8 1.5 -14.5t0.5 -12.5v-7l-9 10l1 -1q-4 9 -13.5 16.5t-29.5 7.5q-3 -22 -6 -37t-6.5 -25.5t-8 -19t-9.5 -17.5q-2 -2 -2.5 -3.5t-1.5 -2.5l1 1q-4 -4 -4 -6l-1 -1
q-10 -3 -18 -11h-1q-2 -2 -4 -3l-3 -3q-1 0 -3 -2q-3 -2 -5 -4l-129 -86l-154 98h-2q-8 17 -12 40t-6 55zM892 476q-6 0 -6 -4q0 -6 6 -6h1l31 -31v-3q-5 0 -11 3q-4 2 -7.5 3t-8.5 1h-8l11.5 -11.5t8.5 -13.5q0 -1 -2 -1q-5 0 -14 5t-12 8v-10q5 -5 9 -12.5t5 -15.5
q-6 0 -10 3q-3 1 -1.5 1.5t-9.5 1.5q0 5 -6 5l-2 -1q-2 -2 -2 -4v-5h4q0 -5 1 -8t3 -5q1 -2 2 -5t2 -5q-7 1 -13.5 6t-12.5 11v-9q0 -4 0.5 -6.5t1.5 -5.5q1 -2 1 -5t1 -6h-3l-23 26v-21q0 -2 0.5 -7.5t1.5 -12.5q1 -5 1.5 -9.5t0.5 -5.5v-64q1 -2 2 -3t2 -3q-3 2 -5.5 3
t-5.5 1q-11 0 -13 -12.5t-2 -18.5q0 -12 3.5 -24t20.5 -12q6 0 13.5 3.5t9.5 11.5q0 -10 -7.5 -13t-16.5 -3q-13 0 -19 8.5t-6 21.5q0 12 3 24t8 23q5 12 8.5 24t3.5 26v9h-6q-2 -16 -7.5 -31.5t-11.5 -31.5q-8 -18 -14 -37t-6 -39q0 -11 3 -17t10 -12q-9 3 -12 12.5
t-3 19.5q0 21 5.5 41t13.5 40q6 20 12 40.5t6 43.5q0 17 -2 35t-8 32h-1q0 5 -4 5t-4 -5t3 -5v-3v-8q-3 9 -9 18q-4 4 -11 6q5 -2 15 -2q11 0 22.5 5t11.5 19q0 20 -19 20h-2q-4 0 -8 -1t-4 -6v-14q-2 3 -4 8.5t-3 12t-1.5 12t-0.5 8.5v3q0 2 -0.5 4.5t-0.5 4.5v18
q0 11 0.5 19t1.5 15t3.5 14.5t7.5 16.5q0 2 1 3q2 2 2 5t-3 5.5t-7 4.5h-1q5 2 12 3t9 1q0 11 -10 11h-9q-12 0 -22 -6l1 1h-1q1 2 2 3.5t3 3.5h9q14 16 28.5 27t36.5 15l-1 5q11 -1 18.5 -6t9.5 -15l-1 1q0 1 -1 2l-4.5 4.5t-7.5 2.5q-8 0 -14.5 -5t-6.5 -13q0 -13 8 -19.5
t21 -6.5q17 0 26.5 11.5t9.5 27.5q0 23 -15 32t-34 15q25 38 42 74t17 84q0 5 -0.5 11t-0.5 11q-1 4 -1 14q2 -5 3 -11t3 -11q1 -3 1 -6q0 -2 2 -4q0 -2 0.5 -12.5t1.5 -15.5v-1q0 -12 -1 -20.5t-3 -18.5q-1 -5 -1.5 -10t-1.5 -10v-15q11 19 17 38.5t6 36.5v73q8 -14 10 -29
t2 -29q0 -19 -5 -42q-2 -10 -3.5 -20t-1.5 -19v-9q9 7 16 21.5t12 31t7.5 33.5t2.5 29l2 -5v-16q0 -29 -8 -52.5t-19 -49.5v-9q17 14 25 27.5t16 30.5l-1 -1q2 4 3 5l6 19v-3q0 -23 -10 -44.5t-21 -41.5l1 1l-8 -10q-2 -2 -2 -5l4 -4q17 11 29 28.5t22 34.5v-1v-6
q0 -20 -11 -38t-22 -35q-1 -2 -2.5 -3.5t-2.5 -3.5q9 0 13 4v-1l28 17q-2 -8 -8 -15t-15 -15q1 0 5.5 -0.5t6.5 -0.5q6 -2 9 -2q-4 -7 -9 -11.5t-10 -8.5t-9.5 -7.5t-11.5 -13.5h31q-2 -3 -5.5 -5t-7.5 -4t-7 -4.5t-7 -7.5q3 -1 7.5 -2t6.5 -3l2 2q5 0 5 -1l-3 -3h-2
q1 0 1 -1v0q0 -5 -4 -7t-9 -4q-3 -2 -6.5 -5t-5.5 -5l3 -2.5t5 -3.5q2 -2 5 -2v-1q-10 -5 -15 -7q-3 -1 -3 0t-1.5 0.5t-6 -3t-16.5 -11.5l27 -5q-1 -1 -3 -1t-4 -1h1q-3 0 -4 -1l-24 -6q5 -8 8.5 -9t6.5 -3q4 -2 7 -3t3 -4v-2l-41 -6q5 -7 12 -9.5t9 -3.5q0 -1 5 -3l-1 1
l6 -4q-1 -1 -2 -1.5l-1 -0.5h-49l9 -9q4 -5 9.5 -11.5t8.5 -8.5v-1t1 -2h-3q-7 0 -17 5l-10 4t-12 2q0 4 -4 4zM278 185q0 19 -5.5 36.5t-12.5 34.5q-7 15 -12.5 30.5t-6.5 32.5h-3q0 1 0.5 1.5t0.5 1.5q0 4 -5 4q1 8 1.5 16t0.5 17v16q-10 -9 -15.5 -14t-8.5 -10q0 7 1 14
t6 18l-5.5 -4t-9.5 -6q-9 -7 -14 -7h-2v1v0q0 1 1 2q0 3 1 4l2 4l2 4l2 4q2 3 3 6.5t1 11.5q-1 -1 -4 -3.5t-4 -3.5v1q-12 -8 -23 -10q1 8 4 14t8 13l8 8h-9q-4 0 -6.5 -1t-5.5 -3t-6 -3.5t-5 -1.5h-2q0 5 8.5 13t15.5 13h-13q-3 -2 -11 -4.5t-12 -3.5h1h-1q-3 0 -3 2
t1.5 3.5l2.5 2.5l33 33h-11l-9 -3q-8 -3 -15.5 -5.5t-14.5 -3.5q1 8 6.5 13t12.5 10q2 2 5.5 5t5.5 5h-52q0 2 -1 3q3 3 7.5 5t8.5 4q2 1 6.5 4.5t6.5 5.5q-3 0 -13 0.5t-12 1.5q-1 0 -2 0.5t-2 0.5h1q-3 1 -8 2t-5 3q3 4 9.5 7t11.5 5q1 0 1.5 0.5t1.5 0.5l1 6l-22 5
q-3 1 -5 1q-1 0 -6 2l27 6l-40 19l-2 2q1 1 2 1t3 1t5.5 2.5t5.5 2.5l-6 6l-22 14l-2 1q1 2 7 5l8 4v7q-17 3 -24 14h22q1 -1 4 -1q5 0 5 5q0 6 -5 6h-1q-7 5 -18.5 15t-14.5 15h4h9q0 7 -2.5 12t-5.5 10q-7 7 -7 14q2 -2 4 -3.5t5 -2.5l-1 1q8 -6 10 -6q6 -4 8 -5
q2 -2 4 -3l1 -1q3 0 7 4q-17 20 -25.5 38.5t-9.5 41.5q3 -2 6 -8t8 -12q3 -5 6.5 -10t8.5 -10q3 -4 10 -10.5t9 -7.5q0 -6 4 -6q6 0 6 6t-6 6q-4 13 -7.5 18t-7.5 13q-9 14 -16 29.5t-7 35.5v1q1 0 1 1q0 -1 2 -5q7 -18 15 -35.5t25 -34.5v-4q0 -5 5 -5q6 0 6 5q0 4 -5 6v3
q-11 23 -19 47.5t-8 50.5v8q0 5 0.5 10.5t2.5 8.5q0 -10 1.5 -25t5.5 -31t9.5 -31t14.5 -25v-2q0 -5 6 -5q4 0 4 5q0 6 -4 6q0 10 -1 19t-3 18t-3 18t-1 18v16q0 2 0.5 4t0.5 5v4q0 5 3 19.5t8 20.5q-2 -14 -2.5 -22t-0.5 -22q0 -24 3.5 -48t11.5 -46h3q-2 -2 -2 -3
q0 -2 2 -3v-1q0 -6 6 -6q4 0 4 6q0 5 -4 5v4q-2 0 -3 -1v8q0 6 -0.5 12t-1.5 12t-1 12v13q0 16 2 31.5t10 31.5q-2 -8 -2 -12q-3 -14 -3 -29q0 -43 17.5 -82t44.5 -72v-1q-20 -4 -36 -15t-16 -34q0 -16 12 -27t28 -11q9 0 17 6t8 17q0 10 -4 16t-15 6q-9 0 -15 -6q1 8 10 12
t18 5v-2q0 -4 6 -4h5q4 -2 7.5 -4.5t6.5 -3.5h-1q4 -2 7.5 -3.5t5.5 -2.5q1 0 5.5 -4t5.5 -5l2 -2q0 -4 5 -4q0 -2 2.5 -4.5l4.5 -4.5q0 -6 5 -6q4 0 4.5 0.5t0.5 5.5v2q2 -4 4 -7.5t4 -7.5q-3 0 -9 4q-8 4 -12 4h-11q-7 0 -11 -11q1 0 4 -0.5t5 -0.5q8 0 13 -3
q-10 -7 -10 -13q0 -8 7 -11v-3q0 -4 2 -4q0 -5 3 -5h1v-2v-11t1 -10q0 -5 0.5 -10.5t0.5 -10.5v-23q0 -5 -3 -20.5t-5 -25.5v1v2q0 7 -6.5 11.5t-11.5 4.5q-10 0 -14 -7.5t-4 -15.5q0 -11 8.5 -16.5t18.5 -7.5q-8 -15 -10.5 -29t-2.5 -26v-17q0 -27 6 -47.5t17 -43.5
q0 -2 1 -4.5t1 -4.5q1 -8 5 -21q2 -10 4 -19.5t4 -18.5v-6q0 -11 -4 -21.5t-15 -13.5l1 1q4 5 9 12.5t5 18.5zM529 129q-6 0 -6 2h-4q-5 0 -7.5 -8t-6.5 -18q-4 -8 -6.5 -15t-4.5 -10v2q-3 2 -10 11t-9 12l1 -1l-1 2q0 4 3 7.5t7 7.5q5 4 9 9t4 11v3q-1 1 -2 1.5t-8 5.5h-3
q-5 0 -13 -8q-1 -1 -1 -2l-1 -1q-2 -2 -8 -6q-11 -9 -13 -10l-1 -1q-3 0 -9 6l-2 1q1 0 -1 1q-1 0 -2 0.5t-2 0.5q-2 1 -12 5l12 6t3 2h-1q2 1 4 2.5t5 1.5l12.5 5t11.5 9l-6 6q-26 16 -48 29.5t-44 30.5l-1 1l6 3l152 -95v1q5 -5 9 -5h4q4 1 5 1l136 92q2 2 5 4q1 1 2 1.5
t2 1.5h1q3 0 6 -3l-2 -2l-91 -67l24 -12l13 -5h-1q1 -1 3 -2t13 -6l-14 -5q-2 -1 -4 -1q-1 -1 -2 -1q-3 -2 -5 -4.5t-4 -2.5l-36 28h-3q-12 0 -12 -10v-4l23 -33v-1l-1 -1l-17 -21q-1 -1 -2 -1h1q-4 2 -7 9.5t-5 16.5t-5 16t-9 7q-8 0 -9 -3t-1 -8q0 -15 5 -30t10 -26v-6
l-23 -48q-4 6 -4 9q-1 2 -1.5 4l-0.5 2q-2 3 -8.5 15.5t-9.5 19.5q6 14 10.5 32.5t7.5 38.5zM301 640v6l5 5q5 2 6.5 3t6.5 3q8 4 18 8.5t16 9.5q45 19 90 27.5t93 8.5q51 0 96 -11t93 -31l-1 1l6 -3q8 -4 17.5 -8t15.5 -11v-4q0 -2 0.5 -3t0.5 -2q0 -5 -1.5 -12.5
t-5.5 -10.5v24q-2 2 -2 4q-52 27 -107 42.5t-113 15.5h-24q-6 0 -12 -0.5t-12 -1.5q-30 -5 -60 -11.5t-58 -18.5q-7 -3 -17.5 -8t-20 -10t-16.5 -9l-7 -4v-23q-7 8 -7 24zM299 562v-5h-12v-11h13v6q0 -4 2 -8q2 -8 2 -9q1 -6 2 -22t1 -22h6v50q0 8 -10 26v3q0 5 -3 10t-8 10
q14 -11 19.5 -32.5t5.5 -37.5q0 -9 -2 -21.5t-6.5 -24.5t-12.5 -20t-20 -8h-3q2 3 4 11h6q4 0 8 1.5t4 5.5v5q-3 0 -6 2l-2 1q-3 0 -7 -4q3 11 4 22.5t1 23.5v10q0 3 0.5 6.5t0.5 7.5q0 15 -10 32v2l-3 3h2v-1h1v-1q0 -5 5 -6t9 -1v10q0 2 -4 6h1q2 -3 5 -8t7 -10v-2z
M779 472q-5 0 -7.5 -4t-2.5 -9h16v2q1 -6 3 -9v1l2 -7q-16 1 -24 12t-13 25h2q2 0 5 3v14q-3 0 -4 -1q2 14 3.5 26.5t4.5 23.5q3 -5 5 -5q1 -1 4 -1t4.5 3.5t1.5 6.5q0 2 -1.5 4.5t-5.5 2.5h-2l-3 -3q1 6 6 14q0 -5 6 -5q8 0 8 8q0 3 -0.5 6t-5.5 3h-2l6 9l11 -6
q-10 -19 -14 -32.5t-4 -34.5v-10q0 -7 0.5 -12.5t2.5 -13.5q0 -4 1 -7v-4h-3zM302 345q0 2 1 6l4 4q3 -29 11 -52t25 -47q3 -3 6 -4.5t6 -3.5q2 -2 3.5 -2.5t3.5 -1.5q-2 -2 -3 -2.5t-2 -1.5q-29 17 -42 45t-13 60zM709 247q9 2 12 9l-1 -1q2 2 2.5 4t2.5 4q7 12 12.5 22
t9.5 20.5t7 22t5 27.5q4 -4 4 -14q0 -29 -12 -51t-32 -41l-1 -1q-3 -4 -4.5 -5.5t-5.5 -1.5q-3 0 -6 3q4 2 7 3zM192 589q0 -21 21 -21q2 0 3 0.5t2 0.5h3l1 6q-17 5 -17 16v5l3 2l9 9q1 -1 3 -1q5 0 5 6q0 5 -5 5t-5 -5h-2q-10 0 -15.5 -7t-5.5 -16zM861 589q0 -5 -5 -7.5
t-10 -4.5q-2 -2 -10 -2q5 -5 7 -6t4 -1h3q22 0 22 21q0 9 -6 16t-16 7h-1q0 5 -6 5q-5 0 -5 -5q0 -6 5 -6q3 0 4 1q5 -3 9.5 -7.5t4.5 -10.5zM244 269q5 -13 9 -25.5t4 -26.5q0 -11 -5.5 -20.5t-18.5 -9.5q-10 0 -17 3q4 -2 14 -2q17 0 21 11t4 23v2q0 8 -2 19.5t-15 11.5
q-3 0 -6 -1.5t-5 -3.5q-4 -4 -9 -4q-16 0 -16 12q0 5 10 5h2v-2h-6q-4 0 -4 -4v-1q3 -6 4.5 -7t6.5 -1h2q14 0 16 15q-1 5 -1 10v11v22q2 -13 5.5 -21t6.5 -16zM227 631q0 -8 2 -9.5t11 -2.5q1 0 1 -1h1q5 0 7 6t2 9q0 12 -13 12q-11 0 -11 -14zM812 633q0 -7 4.5 -9.5
t8.5 -2.5q13 0 13 10q0 14 -13 14q-4 0 -8.5 -3.5t-4.5 -8.5zM736 239q3 1 6 1t5 1q32 14 47 42t17 62q-1 -18 -5 -36.5t-13 -34t-23 -25.5t-34 -10zM312 244l-1 1q2 -2 6 -3t9 -3q-30 2 -46 23.5t-22 50.5q5 -23 17.5 -41t36.5 -28zM772 492q-5 0 -6 -5t-1 -9h15
q0 4 -1.5 9t-6.5 5zM288 509q0 -3 1 -7t6 -4q2 0 3 1q1 0 5 4v2q0 5 -4 6t-8 1zM295 521q6 0 7 5t1 9q-4 0 -9.5 -1.5t-5.5 -9.5h1q1 -3 6 -3zM762 512q0 -4 1.5 -9t6.5 -5h4v3q3 4 3 6q0 5 -10 5h-5zM749 522q0 19 3.5 35.5t17.5 30.5q-20 -33 -20 -71v-15q-1 5 -1 10v10z
M287 478q5 0 9 0.5t4 5.5q0 8 -8 8h-5v-14zM766 521h2q5 0 5.5 5t0.5 9q-2 0 -8 -1.5t-6 -9.5h1q1 -3 5 -3zM266 425q8 0 20 4.5t20 13.5q-4 -10 -16 -14t-22 -7q-4 -6 -7 -16v9v10h5zM272 581h-2v2q0 5 7 10q0 -2 2 -4h-1q0 -1 2 -1h-1l2 -2v1h1l-1 -2h1v2v-1q1 -1 4 -1v-3
q-1 1 -1 2l-5 -5h-8v2zM847 248h5q7 0 7 6v2q0 2 -3 5h-8l1 1v1h1h8q3 0 5 -3q0 -1 0.5 -2l0.5 -1q0 -5 -4.5 -8t-9.5 -3q-2 0 -8 2h5zM778 428q-8 2 -14.5 5t-7.5 13q13 -16 29 -19q-5 0 -7 1zM208 203q0 10 4 16.5t14 6.5q5 0 9 -2t4 -8q0 -3 -3 -6q0 2 0.5 3.5t0.5 2.5
q0 9 -9 9q-8 0 -13.5 -5.5t-5.5 -15.5q0 -11 7 -14q-8 3 -8 13zM857 205l-1 1v4q-1 2 -4 6t-6 6q-1 1 -2 1.5t-2 1.5q-5 0 -9 -2q-1 -1 -5 -1q3 4 11 4q10 0 14 -7.5t4 -15.5v2zM307 487q-5 0 -5 -5q0 -4 4 -4q5 0 5 4q0 2 -2 4zM266 642h-1q-3 4 -6.5 7t-7.5 6
q8 -5 14.5 -11t12.5 -14q-5 0 -7 4q0 2 -2 3q0 5 -3 5zM828 210q-2 2 -2 6q0 2 2 6v-12zM794 636q12 14 26 22q-8 -5 -14 -10.5t-12 -11.5zM751 494q-1 1 -1 5h4q-3 -2 -3 -5zM278 630q1 -1 1 -2t1 -2q0 1 -2 1v3zM1007 607l-3 1l1 1q2 0 2 -2zM943 920h-3v0q0 1 2 1z
M306 456h-3v0q0 1 2 1zM258 313q-1 4 -1.5 7.5t-1.5 8.5q1 -5 1 -9q0 -3 2 -7zM269 575v-2l-1 1zM728 246v1h1q0 -1 -1 -1v0zM226 665h-3h3zM203 835q0 -1 -0.5 -1.5l-0.5 -0.5q1 0 1 2zM467 123v1l1 -1h-1zM281 585v1v-1zM1004 609v-1v1z" />
    <glyph glyph-name="FL00B1h" unicode="&#xb1;" horiz-adv-x="559" 
d="M15 37v-11q5 -6 14 -10l29 -30q3 -4 10 -7.5t14.5 -6t13 -4t7.5 -1.5h2q1 1 2 1q2 1 8 3q8 4 17 7.5t14 6.5h-2l340 1q6 0 13 9t11 15v1t1 2q7 14 12.5 24t11.5 18q4 7 7 12.5t4.5 13t2.5 18.5t1 29q0 11 -5 19h1l-3 3l-3 3h-1l-29 28q-5 14 -16.5 19t-24.5 5h-8l-31 -10
h-1q-2 -1 -3.5 -2t-8.5 -6h-19q1 2 1 8l-2 35q-2 4 -3.5 6t-6.5 10v81h98q6 0 13 9t11 15v1t1 2q7 14 12.5 24t11.5 18q4 7 7 12.5t4.5 13t2.5 18.5t1 29q0 15 -9 24l-31 30q-5 13 -16.5 18t-24.5 5h-8l-31 -9h-1q-2 -1 -3.5 -2t-8.5 -6h-30v50q0 6 -5 11l-32 32
q-2 9 -11.5 15t-16.5 8q-14 5 -23 9t-16 8q-17 10 -34 17.5t-40 7.5h-11q-4 -4 -8 -11t-7 -14.5t-5 -14t-2 -8.5v-7q0 -1 1 -5v-1q0 -2 1 -3q2 -19 8 -28v-67h-101q-11 0 -17.5 -10t-8.5 -18q-2 -3 -4.5 -8.5t-5.5 -12.5q-2 -4 -2 -7q-4 -10 -6 -14q-1 -1 -1 -2v0
q-10 -18 -16.5 -35.5t-6.5 -42.5v-11q5 -6 14 -10l29 -30q3 -4 10 -7.5t14.5 -6t13 -4t7.5 -1.5h2q1 1 2 1q7 2 18 6.5t19 10.5h41v-69q0 -8 8 -15.5t16 -11.5l24 -25q10 -10 18 -14q1 0 1.5 -0.5t1.5 -0.5q4 -3 8 -4h-178q-11 0 -17.5 -9.5t-8.5 -17.5q-2 -3 -4.5 -8.5
t-5.5 -12.5q-1 -2 -1.5 -3.5t-1.5 -3.5q-1 -7 -5 -14q-1 -1 -1 -3v1q-10 -18 -16.5 -36t-6.5 -42zM36 378q0 21 6.5 37t14.5 33q5 10 10 19.5t8 20.5q2 5 5 11.5t2 6.5h123v98q-4 2 -5.5 9t-2.5 15q-1 3 -2 8.5t0 3.5v-1q0 2 2 11.5t6 14.5h3q19 0 33.5 -6t28.5 -14
q17 -11 40 -19q4 -2 10.5 -5t6.5 -2v-112h91q2 0 10 4l12 6h-1l25 8h4q8 0 15.5 -3t7.5 -13q0 -15 -1 -25t-3 -17.5t-5.5 -14t-7.5 -13.5h1q-5 -8 -10.5 -17t-12.5 -23v1q-2 -4 -5 -9t-2 -5h-117v-102q0 -2 4 -10l6 -12v2l2 -29q0 -9 -3 -16t-13 -7q-30 0 -40.5 3t-21.5 11
q-8 5 -17.5 11t-23.5 13h1q-4 2 -9 5t-5 2v128h-108q-4 -5 -15 -10t-19 -7q-1 0 -1 -1h-1q-2 0 -12 2t-14 6v3zM37 37q0 20 6.5 36.5t14.5 33.5q5 10 10 19.5t8 20.5q2 5 5 11.5t2 6.5l334 1q2 0 10 4l12 6h-1l25 7h4q8 0 15 -3t7 -12q0 -15 -1 -25t-2.5 -17.5t-5 -14
t-7.5 -13.5h1q-5 -8 -10.5 -17.5t-12.5 -22.5v1q-2 -4 -5 -9t-2 -5l-345 -1q-4 -5 -15 -10t-19 -7q-1 0 -1 -1h-1q-2 0 -12 2t-14 6v3z" />
    <glyph glyph-name="FL00B4h" unicode="&#xb4;" horiz-adv-x="395" 
d="M318 812l-149 -1q-7 0 -12.5 -5t-9.5 -10v1q-2 -2 -2 -3q-14 -14 -36.5 -41t-43.5 -54.5t-36 -48.5t-15 -23v-39h8l36 -37q9 0 19.5 -0.5t20.5 -0.5h64q19 0 39 0.5t50 3.5q7 14 21.5 32t32.5 37q14 15 28 30.5t25.5 30.5t18.5 28t7 23q0 6 -1 14.5t-7 14.5l-31 29
q-2 8 -7.5 13.5t-19.5 5.5zM318 791q6 0 7 -6t1 -11q0 -8 -6.5 -19t-17 -24t-24 -27.5t-26.5 -28.5q-19 -20 -33 -36.5t-20 -27.5q-23 -2 -40.5 -2.5t-35.5 -0.5h-34q-11 0 -25 0.5t-29 0.5v18q0 1 15 21t35.5 45.5t41.5 50.5t34 37q1 1 1.5 2t1.5 2q2 5 5 5zM148 798
q-1 0 -1 -1z" />
    <glyph glyph-name="FL00B6h" unicode="&#xb6;" horiz-adv-x="750" 
d="M59 196q44 0 73 19q-4 -29 -12 -59.5t-22 -58.5l1 1q-12 -14 -28.5 -41.5t-16.5 -66.5h7l37 -37q49 0 89.5 9t78.5 29q8 2 21.5 10t25.5 18q2 2 4 3q5 4 6 5t6 3l8 8l3 1h1q20 -1 40.5 -9t40.5 -19l4 -2l4 -2q14 -7 34 -15t57 -20q-10 24 -15.5 41.5t-8.5 31.5t-4 26
t-1 24q0 29 5.5 58.5t12.5 58.5q1 3 1.5 7.5t1.5 8.5l29 -26l6 -1q10 -20 24.5 -38t34.5 -32l21 -21q30 -31 80 -44v38l-11 11l-3 6q-2 4 -4 8.5t-4 8.5v-1q-3 6 -6 11.5t-5 8.5l-1 1q0 -1 -2 3l-2 4q-1 4 -1 12q-1 5 -1 10v9v9q0 30 8.5 60t19.5 61q2 5 3 8.5t3 8.5
q14 36 25 73.5t11 78.5v22q0 58 -24 113.5t-65 97.5h-1l-11 11q-27 36 -63 62.5t-79 37.5q-9 2 -19 4l-20 4h-3q-3 0 -4 1q-13 2 -26 4.5t-24 7.5h-154l-70 -30q19 -12 31.5 -25t20.5 -25.5t12.5 -25t7.5 -23.5q1 -2 1 -4h6v1l0.5 -9.5t0.5 -11.5v-2h-17q25 -24 38.5 -44
t24.5 -38q1 -1 1 -3t1 -2q5 -10 10.5 -19t13.5 -18q-6 1 -12.5 1.5t-12.5 0.5q-23 0 -51.5 -8.5t-49.5 -25.5q-11 -10 -29.5 -33t-39 -52.5t-41.5 -63.5t-38.5 -65.5t-28 -59t-10.5 -43.5h8zM291 96l-9 -9l-4 -2.5t-9 -6.5v1q-13 -8 -29 -18.5t-18 -10.5q-35 -20 -71 -29
t-76 -9q2 19 15.5 39.5t24.5 31.5q15 27 24 56t13.5 57.5t6.5 54.5t3 47q5 14 14 19.5t20 9.5q9 3 17 7t13 12q0 10 -10 13t-19 3h-9q-20 0 -33.5 -14t-27.5 -32q-16 -23 -36 -42t-55 -20q1 14 12 37.5t27.5 51t36.5 57t39.5 56t36.5 47t28 30.5q17 14 41.5 21t44.5 7
q40 0 71 -14.5t52.5 -40t32.5 -60t11 -74.5q0 -30 -5.5 -58.5t-12.5 -57.5t-12.5 -58.5t-5.5 -62.5q0 -26 2 -46.5t13 -46.5q-13 5 -24.5 10.5t-24.5 12.5q-24 11 -48.5 21.5t-50.5 10.5zM614 198q2 -1 4 -5.5t3 -6.5q2 -2 6.5 -11.5t9.5 -20.5q3 -7 5.5 -13t5.5 -10
q-23 7 -40.5 21.5t-29.5 34t-18 41.5t-6 43q0 26 5 51t11 50q6 24 11 49.5t5 51.5q0 67 -25 113t-66.5 74.5t-96 41.5t-114.5 13h-9q-2 4 -2.5 8.5t-2.5 9.5q-7 24 -17 52t-29 42l27 11h144q13 -5 27.5 -7.5t28.5 -4.5q10 -2 19.5 -3.5t19.5 -4.5q42 -12 77 -38t59.5 -61.5
t38.5 -77.5t14 -85v-22q0 -37 -10 -73.5t-24 -71.5q-13 -35 -24 -71t-11 -74v-9v-10t1 -10q0 -5 0.5 -8.5t0.5 -5.5zM460 549h-11q-2 0 -4.5 -0.5t-5.5 -0.5q-4 0 -6 1.5t-2 8.5v3q0 3 3.5 12t7.5 19t8 18t6 10q0 4 4 6l31 -30l-36 -46h8l3 -3l40 30l-1 -1l4 1l1 -1l23 -39
l-32 -15v-12q15 0 18 -1q2 0 3.5 -0.5t2.5 -0.5q3 0 6.5 1t12.5 6q1 -2 1.5 -5.5t2.5 -8.5v1q0 -1 0.5 -1.5t0.5 -1.5l3 -15t1 -13v-5h-50l-1 -5q11 -6 24 -10.5t26 -4.5v-36q-27 4 -44.5 16t-28 31t-15 42.5t-4.5 49.5zM370 651q0 -20 -1.5 -34.5t-6.5 -34.5
q-10 0 -21.5 17.5t-23.5 39.5q-8 13 -14 24.5t-14 19.5h23q14 0 26 -1t32 -8v-23zM538 340q0 -18 -7 -38.5t-15 -39.5q-2 10 -5.5 18t-7.5 16q-5 11 -9 22t-4 22v2q0 5 1 11t8 6q1 0 3 -0.5t11 -3.5q-15 22 -15 40h4q3 0 8.5 -0.5t10.5 -0.5h12q4 -1 8 -3t6 -4
q0 -2 0.5 -2.5t0.5 -2.5q0 -9 -7 -18t-16 -9v-6q2 0 7.5 -2.5t5.5 -4.5v-2zM427 641h-2q-1 -2 -2.5 -9.5t-3.5 -12.5q0 -2 -2.5 -8.5t-6.5 -14.5q-8 -16 -10 -26q0 1 -1 1v0q-5 0 -6 4.5t-1 9.5q0 3 0.5 5.5t0.5 4.5v6q0 16 0.5 28.5t5.5 29.5h4q5 0 13 -3.5t8 -11.5z
M518 609q15 -19 25 -39l-10 11l1 -1l-8 15q-4 1 -7 1l1 1l-27 25q8 -3 14 -6.5t11 -6.5zM441 515l1 1l-1 -2v1zM445 516l-1 1q1 0 1 -1z" />
    <glyph glyph-name="FL00B7h" unicode="&#xb7;" horiz-adv-x="282" 
d="M58 477q-2 0 -4.5 -3.5t-3.5 -5.5q-5 -7 -7.5 -20t-4.5 -28t-2.5 -30t-0.5 -26v-33q15 0 28.5 -0.5t24.5 -0.5h34q18 0 35.5 0.5t39.5 2.5q11 20 13.5 46t2.5 52v31q0 5 -1 10.5t-7 5.5zM205 500q14 0 20 -6t8 -14l30 -29q6 -6 7 -14t1 -14v-31q0 -26 -4 -56.5t-20 -58.5
q-30 -3 -49 -3.5t-37 -0.5h-63q-11 0 -21.5 0.5t-18.5 0.5l-37 36h-7v54q0 12 1 29t3 34t5.5 33t9.5 25l1 -1q4 5 11 10t13 5z" />
    <glyph glyph-name="FL00B8h" unicode="&#xb8;" horiz-adv-x="228" 
d="M120 -110q13 25 28 54.5t26 55.5h-142q-14 -14 -35 -28.5t-42 -27.5t-39.5 -23t-28.5 -15l-5 -3l51 -57q17 0 30.5 -0.5t24.5 -0.5h35q17 0 35 0.5t39 2.5q4 7 9.5 17.5t13.5 24.5zM208 21l-5 -8l38 -36q-18 -45 -32.5 -74t-27.5 -52l-2 -4l-2 -4q-3 -7 -6.5 -13.5
t-6.5 -11.5q-4 -9 -7.5 -15.5t-5.5 -11.5q-31 -3 -50.5 -3.5t-38.5 -0.5h-61q-9 0 -18.5 0.5t-17.5 0.5l-37 36h-4l-75 84q10 7 15.5 10.5t8.5 5.5t3.5 2.5t1.5 0.5q10 5 28.5 15t40 22.5t42.5 27t35 29.5h184z" />
    <glyph glyph-name="FL00BAh" unicode="&#xba;" horiz-adv-x="282" 
d="M58 790q-2 0 -4.5 -4t-3.5 -6q-5 -7 -7.5 -20t-4.5 -28t-2.5 -30t-0.5 -25v-33q15 0 28.5 -0.5t24.5 -0.5h34q18 0 35.5 0.5t39.5 2.5q11 20 13.5 46t2.5 51v32q0 4 -1 10t-7 6zM205 813q14 0 20 -6t8 -14l30 -29q6 -6 7 -14.5t1 -13.5v-32q0 -26 -4 -56.5t-20 -58.5
q-30 -2 -49 -2.5t-37 -0.5h-63h-40l-37 37h-7v54q0 12 1 28.5t3 34t5.5 33.5t9.5 25l1 -1q4 5 11 10t13 5z" />
    <glyph glyph-name="FL00BBh" unicode="&#xbb;" horiz-adv-x="514" 
d="M314 374q5 3 6 4.5t-6 -1.5v-3zM282 395v-44l18 15q4 4 12 7q-11 7 -19 13t-10 8zM444 452l-2 2q-2 4 -9 6q-12 14 -37 35.5t-50.5 41.5t-45 34.5t-20.5 14.5h-18q0 -16 -0.5 -29t-0.5 -24v-35q0 -13 -1 -17q0 -2 -0.5 -4t-0.5 -4v-19q0 -2 -0.5 -4t0.5 -4q5 -3 16.5 -12
t25 -19.5t26.5 -20.5t21 -17q-8 -8 -21.5 -18.5t-27.5 -20.5t-26 -18t-17 -11q-1 -3 -0.5 -5t0.5 -4v-77q0 -11 0.5 -24.5t0.5 -28.5h18l9.5 6.5t24 17.5t32 24.5t34.5 27.5t31.5 26.5t23.5 21.5h3q5 0 8.5 1t3.5 6zM223 454l-2 2q-2 4 -9 6q-8 9 -22 22t-31 27l-34 28
t-31.5 24.5t-24 17.5t-10.5 7h-18v-53v-35q0 -13 -1 -17q0 -2 -0.5 -4t-0.5 -4v-19q0 -2 -0.5 -4t0.5 -4q5 -3 16.5 -12t25 -19.5t26 -20.5t20.5 -17q-8 -8 -21.5 -18.5t-27 -20.5t-25.5 -18t-17 -11q-1 -3 -0.5 -5t0.5 -4v-77q0 -11 0.5 -24.5t0.5 -28.5h17q1 0 20.5 14.5
t45 34t51 40.5t38.5 35h3q5 0 8.5 1t3.5 6zM34 424q-3 3 -9 7l1 -1q-4 2 -7 5q-2 6 -2 11v10v28q0 1 0.5 2.5t0.5 2.5q1 4 1 11v64q0 5 0.5 11t0.5 12v23h39q1 0 21.5 -14t47 -34.5t53.5 -42.5t42 -37q8 -2 14 -9v9q0 1 0.5 2.5t0.5 2.5q1 4 1 11v64q0 5 0.5 11t0.5 12v23
h40q1 0 21.5 -14.5t47.5 -34.5t54 -42.5t42 -37.5l-1 1q6 -2 11 -6.5t7 -12.5l32 -31v-2q3 -2 5 -7q3 -5 3 -9l1 -150q0 -19 -8.5 -22.5t-18.5 -3.5q-15 -15 -42 -36.5t-53.5 -41t-46 -33t-20.5 -13.5h-34l-37 36h-8v23q0 6 -0.5 12t-0.5 11v23q-19 -16 -43 -34t-45.5 -33.5
t-36.5 -25.5l-15 -10h-35l-36 36h-8v23q0 6 -0.5 12t-0.5 11v106v11t2 12q3 1 11 6.5t19 12.5t22.5 15t22.5 16q-6 5 -11 8.5t-9 6.5q-2 2 -4 3l-4 2z" />
    <glyph glyph-name="FL00BFh" unicode="&#xbf;" horiz-adv-x="739" 
d="M595 653q2 0 4 3t3 5q4 8 7 21.5t5 28.5t3 30.5t1 26.5v34q-16 0 -29.5 0.5t-24.5 0.5h-34q-6 0 -12.5 0.5t-13.5 0.5t-13.5 0.5t-13.5 0.5q-10 0 -19 -0.5t-17 -1.5q-11 -20 -13.5 -47t-2.5 -53v-32q0 -5 1 -10.5t7 -5.5zM423 634q-14 3 -16.5 15.5t-2.5 21.5v32
q0 27 4 59t20 61q9 0 16 0.5t12 1.5q7 1 12 1h9h6q2 0 3.5 -0.5t3.5 -0.5h14q2 0 4 -0.5t4 -0.5h82q5 0 11 -0.5t12 -0.5h23v-8l36 -36v-51q0 -12 -1 -28.5t-3 -33t-5.5 -31.5t-8.5 -24h-1q-3 -5 -10 -11t-12 -6l-162 2q-12 0 -19 7zM543 409q25 13 39 24t21 25t8 35.5
t1 55.5l-179 3q-6 -5 -6 -14q0 -5 3 -12q4 -10 4 -14q0 -10 -6.5 -17.5t-16.5 -13t-21.5 -10t-21.5 -7.5l1 1q-35 -29 -75.5 -40t-82.5 -19q-34 -6 -65.5 -14t-56 -24t-39 -44t-14.5 -74q0 -84 26 -133t68 -74.5t96 -32.5t111 -7q32 0 73 1t83.5 3t82 6t69.5 10
q5 1 14.5 3.5t9.5 3.5l-1 161q-92 -33 -143 -44.5t-62 -11.5q-14 0 -29.5 -0.5t-30.5 -1.5l-34 -2t-34 -1q-42 0 -71.5 10.5t-29.5 42.5q0 21 11 43q10 22 26.5 38t35.5 26.5t37 17t32 10.5q9 3 14.5 4.5t7.5 3.5zM634 563l36 -37q0 -44 -1 -71t-8.5 -45t-23.5 -30.5
t-46 -27.5h-1l-142 -81q-4 -3 -7 -4t-8 -3l-12 -4q-12 -4 -29 -9.5t-34 -15t-32 -23.5t-24 -33q-4 -8 -5.5 -14t-3.5 -11q9 -1 19.5 -1.5t22.5 -0.5q10 0 19.5 0.5t20.5 1.5h15q3 0 6 0.5t6 0.5q15 1 31 1.5t30 0.5q11 0 66.5 13t160.5 51v-9l37 -37l1 -185q0 -1 -4.5 -5
t-11 -8.5t-13.5 -8t-11 -4.5q-29 -6 -69.5 -10t-83.5 -6t-84.5 -3t-73.5 -1q-37 0 -73 2.5t-69 10t-62 21.5t-52 37l-16 15q-41 29 -66 81t-25 139q0 53 15.5 84.5t41.5 49.5t60 26.5t71 15.5v2q43 8 84.5 19t71.5 37q2 1 8 3q16 6 31.5 11.5t15.5 13.5q-2 2 -2 4
q0 1 -0.5 1.5t-0.5 1.5v-1q-4 8 -4 20q0 22 21 36l207 -3v-8z" />
    <glyph glyph-name="FL00C0h" unicode="&#xc0;" horiz-adv-x="1085" 
d="M418 342h106l-49 114zM337 338q0 2 1 6l108 216l17 -17l96 -223h-208q-1 0 -6.5 4.5t-6.5 7.5q-1 4 -1 6zM362 1050q-6 0 -7 -6t-1 -10q0 -8 6.5 -19.5t17.5 -25t24 -28.5t27 -29q17 -20 32 -37t21 -28q23 -2 40.5 -2.5t36.5 -0.5h35q11 0 24 0.5t29 0.5v18l-15 21
t-35.5 47.5t-42 52t-34.5 36.5q-1 1 -1.5 2t-1.5 2l-5 5zM304 472q-60 -112 -125 -223t-143 -215v-29l6.5 -1.5t15.5 -2.5t18.5 -2t15.5 -1h21q4 0 7.5 -0.5t7.5 -0.5h12q5 0 13.5 0.5t13.5 0.5h4l8 8l80 159q9 18 36.5 29.5t63.5 18t74.5 9.5t70.5 5q7 1 13 1h12l52 3h2
q16 0 29 -14t23 -36t18.5 -48.5t15.5 -50.5q9 -31 16 -52.5t14 -21.5h308q2 0 5 5q1 1 1.5 2t1.5 2l-1 -1l1 4q0 7 -6 10l-12 6q-3 1 -12 7q-35 30 -63 70.5t-47 79.5l-288 617q-3 7 -6.5 8t-9.5 1q-20 0 -46.5 -11.5t-43.5 -19.5q-38 -17 -52.5 -43t-24.5 -59
q-5 -13 -8.5 -26.5t-11.5 -28.5q-5 -9 -13.5 -26l-18.5 -37t-20 -39.5t-17 -34.5q-8 -17 -11 -22zM512 1071q8 0 13.5 -5.5l10.5 -10.5l-1 -1q13 -12 31 -31l2 -2q4 -4 5 -6l9 -9q15 -16 36 -43t40.5 -53.5t33.5 -46l14 -19.5v-37q-9 0 -20.5 -0.5t-22.5 -0.5h-43l15 -15
q2 -3 3.5 -5.5t3.5 -5.5h1l290 -619q11 -25 26 -50t33 -48q0 -2 1 -2l2 2q5 -3 6.5 -4t7.5 -3v-2q1 0 1.5 -0.5t1.5 -0.5l-1 1q8 -3 14.5 -8t9.5 -14l31 -30q8 -8 8 -22q0 -2 -0.5 -3.5t-2.5 -10.5h-2v-1q-5 -6 -10.5 -11t-11.5 -5h-308q-9 0 -16 7l-31 31q-16 4 -25.5 29
t-18.5 59q-1 3 -2 6.5t-2 6.5q-7 21 -14 43.5t-14 40.5l-47 -3h-11t-13 -1q-30 -2 -66.5 -5t-70.5 -8.5t-59.5 -14.5t-32.5 -23l-79 -159l-19 -19h-11q-3 0 -6.5 -0.5t-7.5 -0.5h-33q-2 0 -3.5 0.5t-3.5 0.5h-21q-8 0 -19 2.5t-22.5 6.5t-20 8t-11.5 6l-32 32q-13 6 -13 11
v36q78 104 142 213t124 218h-4q5 7 6 8.5t3 3.5l9 18l26.5 53t28.5 56l15 30q11 23 14.5 31t3.5 10v4q0 4 1 7q6 19 12 35.5t15.5 31.5t24.5 27t38 22q3 2 7 3.5t9 3.5q6 2 10 4l-26 26h-2q-1 0 -2 0.5t-2 0.5q-7 14 -21.5 33t-32.5 37q-15 15 -29.5 31.5t-26 31.5t-18.5 29
t-7 25q0 5 0.5 11.5t3.5 12.5t9 10t17 4z" />
    <glyph glyph-name="FL00C1h" unicode="&#xc1;" horiz-adv-x="1085" 
d="M656 1069l-150 -1q-7 0 -13 -5.5t-10 -10.5v1q-2 -2 -2 -3q-14 -14 -36.5 -41.5t-43.5 -55.5t-36.5 -49.5t-15.5 -23.5v-39h8l37 -37q9 0 19.5 -0.5t21.5 -0.5h24q-19 -10 -31 -22t-20.5 -25.5t-14 -29.5t-10.5 -33q-1 -3 -1 -7v-4q0 -2 -3.5 -10t-15.5 -33l-14 -28
q-13 -25 -28.5 -56l-26.5 -53l-9 -18q-2 -2 -3 -3.5t-6 -8.5h4q-61 -112 -125 -222t-138 -207l-3 -6v-32q0 -5 13 -11l32 -32q3 -2 11.5 -6t20 -8t22.5 -6.5t19 -2.5h21q2 0 3.5 -0.5t3.5 -0.5h33q4 0 7.5 0.5t6.5 0.5h11l19 19l79 159q7 14 32.5 23t59.5 14.5t70.5 8.5
t66.5 5q7 1 13 1h11l47 3q7 -18 14 -40.5t14 -43.5q1 -3 2 -6.5t2 -6.5q9 -34 18.5 -59t25.5 -29l31 -31q7 -7 16 -7h308q6 0 11.5 5t10.5 11v1h2q2 9 2.5 10.5t0.5 3.5q0 14 -8 22l-31 30q-3 9 -9.5 14t-14.5 8l1 -1q-1 0 -1.5 0.5t-1.5 0.5v2q-6 2 -7.5 3t-6.5 4l-2 -2
q-1 0 -1 2q-18 23 -33 48t-26 50l-290 619h-1q-2 3 -3.5 5.5t-3.5 5.5l-27 27l-3 6q-1 2 -2 2.5t-2 2.5q8 11 19 22.5t23 24.5q15 15 29 31t25.5 31t18.5 28.5t7 24.5q0 6 -1 14.5t-7 14.5l-31 29q-2 8 -8 14t-20 6zM304 471q2 3 4.5 9t6.5 14q7 15 17 34.5t20 39.5l18.5 37
t13.5 26q8 15 11.5 28.5t8.5 26.5q10 33 24.5 59t52.5 43q17 8 43.5 19.5t46.5 11.5q6 0 9.5 -1t6.5 -8l288 -617q19 -39 47 -79.5t63 -70.5q9 -6 12 -7l12 -6t6 -10l-1 -4l1 1q-1 -1 -1.5 -2t-1.5 -2q-3 -5 -5 -5h-308q-7 0 -14 21.5t-16 52.5q-7 24 -15.5 50.5t-18.5 48.5
t-23 36t-29 14h-2l-52 -3h-12q-6 0 -13 -1q-32 -2 -70.5 -5t-74.5 -9.5t-63.5 -18t-36.5 -29.5l-80 -159l-8 -8h-4q-5 0 -13.5 -0.5t-13.5 -0.5h-12q-4 0 -7.5 0.5t-7.5 0.5h-21q-6 0 -15.5 1t-18.5 2t-15.5 2.5l-6.5 1.5v29q78 104 143 214.5t125 222.5zM656 1047
q6 0 7 -5.5t1 -10.5q0 -8 -6.5 -19.5t-17 -25t-24 -28.5t-26.5 -29q-19 -20 -33.5 -37t-20.5 -28q-23 -2 -41 -2.5t-36 -0.5h-34q-11 0 -25 0.5t-29 0.5v18q0 1 15 21.5t35.5 46.5t42 51.5t34.5 37.5q1 1 1.5 2t1.5 2q2 5 5 5zM337 338q0 -2 1 -6q1 -3 6.5 -7.5t6.5 -4.5
h208l-96 223l-17 17l-108 -216q-1 -4 -1 -6zM475 456l49 -114h-106zM484 1054q-1 0 -1 -1z" />
    <glyph glyph-name="FL00C2h" unicode="&#xc2;" horiz-adv-x="1085" 
d="M455 1072q-17 0 -23 -9t-6 -19q-16 -16 -38 -43.5t-41.5 -54t-33 -46t-13.5 -20.5v-39h8l37 -37q9 0 19.5 -0.5t21.5 -0.5h64q2 0 4 -0.5t4 -0.5q-18 -10 -30 -22t-20.5 -25.5t-14 -29t-10.5 -32.5q-1 -3 -1 -7v-4q0 -2 -3.5 -10t-14.5 -31l-15 -30q-13 -25 -28.5 -56
l-26.5 -53l-9 -18q-2 -2 -3 -3.5t-6 -8.5h4q-61 -112 -125 -222t-138 -207l-3 -6v-32q0 -5 13 -11l32 -32q3 -2 11.5 -6t20 -8t22.5 -6.5t19 -2.5h21q2 0 3.5 -0.5t3.5 -0.5h33q4 0 7.5 0.5t6.5 0.5h11l19 19l79 159q7 14 32.5 23t59.5 14.5t70.5 8.5t66.5 5q7 1 13 1h11
l47 3q7 -18 14 -40.5t14 -43.5q1 -3 2 -6.5t2 -6.5q9 -34 18.5 -59t25.5 -29l31 -31q7 -7 16 -7h308q6 0 11.5 5t10.5 11v1h2q2 9 2.5 10.5t0.5 3.5q0 14 -8 22l-31 30q-3 9 -9.5 14t-14.5 8l1 -1q-1 0 -1.5 0.5t-1.5 0.5v2q-6 2 -7.5 3t-6.5 4l-2 -2q-1 0 -1 2
q-18 23 -33 48t-26 50l-290 619h-1q-2 3 -3.5 5.5t-3.5 5.5l-28 28q-8 17 -16.5 19.5t-19.5 2.5q-10 0 -19.5 -2.5t-19.5 -5.5l1 1q0 1 1 2l14 20t15 20q7 -8 12.5 -16.5t8.5 -12.5q4 -4 7 -4l1 -1l36 -35q6 -2 10 -2h9h35q2 0 4.5 0.5t5.5 0.5h65q11 0 22.5 0.5t19.5 0.5
v37q0 1 -13.5 20t-32.5 45t-41 53t-38 43l-4 4q-1 0 -1 2l-2 4h2l-34 33q-3 8 -7 13t-12 7l1 -1q-3 2 -5 3t-6 1zM304 472q3 5 11 22q7 15 17 34.5t20 39.5l18.5 37t13.5 26q8 15 11.5 28.5t8.5 26.5q10 33 24.5 59t52.5 43q17 8 43.5 19.5t46.5 11.5q6 0 9.5 -1t6.5 -8
l288 -617q19 -39 47 -79.5t63 -70.5q9 -6 12 -7l12 -6t6 -10l-1 -4l1 1q-1 -1 -1.5 -2t-1.5 -2q-3 -5 -5 -5h-308q-7 0 -14 21.5t-16 52.5q-7 24 -15.5 50.5t-18.5 48.5t-23 36t-29 14h-2l-52 -3h-12q-6 0 -13 -1q-32 -2 -70.5 -5t-74.5 -9.5t-63.5 -18t-36.5 -29.5
l-80 -159l-8 -8h-4q-5 0 -13.5 -0.5t-13.5 -0.5h-12q-4 0 -7.5 0.5t-7.5 0.5h-21q-6 0 -15.5 1t-18.5 2t-15.5 2.5l-6.5 1.5v29q78 104 143 215t125 223zM606 1049l2 -2q5 -1 7 -8q14 -12 35.5 -37.5t41.5 -51.5t34.5 -46t14.5 -21v-18q-16 0 -29.5 -0.5t-24.5 -0.5h-35
q-5 0 -9 -0.5t-7 -0.5h-28q-2 0 -4 -0.5t-4 0.5q-3 5 -12 17t-19.5 25.5t-20.5 26.5t-17 21q-8 -8 -19 -21.5t-21 -28t-18 -26.5t-11 -17q-3 -1 -5 -0.5t-4 0.5h-26q-3 0 -7 0.5t-9 0.5h-35q-11 0 -25 0.5t-29 0.5v18q0 1 14.5 20.5t34.5 45.5t41 51.5t35 38.5q0 4 1 9t7 5z
M337 338q0 -2 1 -6q1 -3 6.5 -7.5t6.5 -4.5h208l-96 223l-17 17l-108 -216q-1 -4 -1 -6zM475 456l49 -114h-106z" />
    <glyph glyph-name="FL00C3h" unicode="&#xc3;" horiz-adv-x="1085" 
d="M269 819v-11q5 -6 14 -10l30 -30q3 -4 10.5 -7.5t15 -6t13.5 -4t8 -1.5q5 1 12 9t14.5 19t14 22.5t11.5 20.5q0 1 1 2v1h90q-4 -2 -7.5 -3.5t-7.5 -3.5q-10 -5 -15 -7q-23 -10 -38 -22t-24.5 -27t-15.5 -31.5t-12 -35.5q-1 -3 -1 -7v-4q0 -2 -3.5 -10t-14.5 -31l-15 -30
q-13 -25 -28.5 -56l-26.5 -53l-9 -18q-2 -2 -3 -3.5t-6 -8.5h4q-61 -112 -125 -222t-138 -207l-3 -6v-32q0 -5 13 -11l32 -32q3 -2 11.5 -6t20 -8t22.5 -6.5t19 -2.5h21q2 0 3.5 -0.5t3.5 -0.5h33q4 0 7.5 0.5t6.5 0.5h11l19 19l79 159q8 16 38.5 26t69 16t78.5 8t67 2h34
q4 0 12 -2q14 -24 24 -53t18 -55q1 -2 1.5 -4t1.5 -4q8 -27 15 -45t20 -20l31 -31q6 -6 13 -6h308q6 0 11.5 5t10.5 11v1h2q2 9 2.5 10.5t0.5 3.5q0 14 -8 22l-31 30q-3 9 -9.5 14t-14.5 8l1 -1q-1 0 -1.5 0.5t-1.5 0.5v2q-6 2 -7.5 3t-6.5 4l-2 -2q-1 0 -1 2q-18 23 -33 48
t-26 50l-290 619h-1q-2 3 -3.5 5.5t-3.5 5.5l-28 28l-2 4h152q8 8 12 14l6 9l19 37q6 12 11 23t8 22.5t5 26t2 34.5q0 15 -9 24l-30 29q-5 14 -17 19t-25 5h-17l-36 -64l-4 -2q-1 -1 -5 -3h-341q-5 -5 -11.5 -15t-8.5 -15q-4 -12 -6.5 -19t-5.5 -13l-2 -4l-2 -4q0 -3 -1 -4
q-11 -25 -20.5 -51.5t-9.5 -52.5zM304 471q2 3 4.5 9t6.5 14q7 15 17 34.5t20 39.5l18.5 37t13.5 26q8 15 11.5 28.5t8.5 26.5q10 33 24.5 59t52.5 43q17 8 43.5 19.5t46.5 11.5q6 0 9.5 -1t6.5 -8l288 -617q19 -39 47 -79.5t63 -70.5q9 -6 12 -7l12 -6t6 -10l-1 -4l1 1
q-1 -1 -1.5 -2t-1.5 -2q-3 -5 -5 -5h-308q-3 0 -7 13.5t-10 34.5q-7 24 -17 54t-24 56.5t-33.5 44t-44.5 17.5h-34q-29 0 -71.5 -2.5t-83 -9.5t-73 -19.5t-42.5 -31.5l-80 -159l-8 -8h-4q-5 0 -13.5 -0.5t-13.5 -0.5h-12q-4 0 -7.5 0.5t-7.5 0.5h-21q-6 0 -15.5 1t-18.5 2
t-15.5 2.5l-6.5 1.5v29q78 104 143 214.5t125 222.5zM291 819q0 22 9 47t20 49q5 11 9.5 21t6.5 20q2 5 4 11t4 8h335q2 0 10.5 4t12.5 6l34 59h3q8 0 15.5 -3t7.5 -12q0 -35 -7 -54.5t-19 -43.5l-18 -36v1q-2 -4 -5 -8.5t-4 -6.5h-346q-1 -2 -3.5 -5.5t-4.5 -8.5
q-5 -8 -10.5 -17.5t-11 -18.5t-10 -15.5t-6.5 -7.5q-2 0 -12 2t-14 6v3zM337 338q0 -2 1 -6q1 -3 6.5 -7.5t6.5 -4.5h208l-96 223l-17 17l-108 -216q-1 -4 -1 -6zM475 456l49 -114h-106z" />
    <glyph glyph-name="FL00C4h" unicode="&#xc4;" horiz-adv-x="1085" 
d="M553 840l-0.5 -0.5t-0.5 -1.5q1 0 1.5 0.5l0.5 0.5zM418 342h106l-49 114zM347 1013q-2 0 -4.5 -3.5t-3.5 -5.5q-5 -7 -7.5 -20.5t-4.5 -29t-2.5 -30.5t-0.5 -26v-34q15 0 29 -0.5t25 -0.5h35q18 0 35.5 0.5t40.5 2.5q11 20 13.5 47t2.5 53v32q0 5 -1 10.5t-7 5.5z
M588 1014q-2 0 -4.5 -3.5t-3.5 -5.5q-5 -7 -7.5 -20.5t-4.5 -29t-2.5 -30.5t-0.5 -26v-34q15 0 28.5 -0.5t24.5 -0.5h35q18 0 36 0.5t41 2.5q11 20 13.5 47t2.5 53v32q0 5 -1 10.5t-7 5.5zM337 338q0 2 1 6l108 216l17 -17l96 -223h-208q-1 0 -6.5 4.5t-6.5 7.5q-1 4 -1 6z
M304 471q-60 -112 -125 -222.5t-143 -214.5v-29l6.5 -1.5t15.5 -2.5t18.5 -2t15.5 -1h21q4 0 7.5 -0.5t7.5 -0.5h12q5 0 13.5 0.5t13.5 0.5h4l8 8l80 159q10 19 42.5 31.5t73 19.5t83 9.5t71.5 2.5h34q25 0 44.5 -17.5t33.5 -44t24 -56.5t17 -54q6 -21 10 -34.5t7 -13.5h308
q2 0 5 5q1 1 1.5 2t1.5 2l-1 -1l1 4q0 7 -6 10l-12 6q-3 1 -12 7q-35 30 -63 70.5t-47 79.5l-288 617q-3 7 -6.5 8t-9.5 1q-20 0 -46.5 -11.5t-43.5 -19.5q-38 -17 -52.5 -43t-24.5 -59q-5 -13 -8.5 -27t-11.5 -28q-5 -9 -13.5 -26l-18.5 -37t-20 -39.5t-17 -34.5
q-4 -8 -6.5 -14t-4.5 -9zM14 41q78 104 142 213t124 218h-4q5 7 6 8.5t3 3.5l9 18l26.5 53t28.5 56l15 30q11 23 14.5 31t3.5 10v4q0 4 1 7q5 18 11 34t14.5 30t22 26t33.5 22h-76q-11 0 -21.5 0.5t-19.5 0.5l-37 36h-8v56q0 12 1 29t3 35t6 34t10 25l1 -1q4 5 11 10t13 5
l150 1q14 0 20 -6t8 -14l26 -24q2 8 5 15.5t7 14.5l1 -1q4 5 11 10t13 5l150 1q14 0 20 -6t8 -14l30 -29q6 -6 7 -14.5t1 -14.5v-32q0 -27 -4 -58t-19 -59q-31 -3 -50.5 -3.5t-37.5 -0.5h-35h-39l16 -15q2 -3 3.5 -5.5t3.5 -5.5h1l290 -619q11 -25 26 -50.5t33 -47.5
q0 -2 1 -2l2 2q5 -3 6.5 -4t7.5 -3v-2q1 0 1.5 -0.5t1.5 -0.5l-1 1q8 -3 14.5 -8t9.5 -14l31 -30q8 -8 8 -22q0 -2 -0.5 -3.5t-2.5 -10.5h-2v-1q-5 -6 -10.5 -11t-11.5 -5h-308q-7 0 -13 6l-31 31q-13 2 -20 20t-15 45q-1 2 -1.5 4t-1.5 4q-8 25 -18 54.5t-24 53.5
q-8 2 -12 2h-34q-27 0 -67 -2t-78.5 -8t-69 -16t-38.5 -26l-79 -159l-19 -19h-11q-3 0 -6.5 -0.5t-7.5 -0.5h-33q-2 0 -3.5 0.5t-3.5 0.5h-21q-8 0 -19 2.5t-22.5 6.5t-20 8t-11.5 6l-32 32q-13 6 -13 11v36z" />
    <glyph glyph-name="FL00C5h" unicode="&#xc5;" horiz-adv-x="1085" 
d="M418 342h106l-49 114zM450 1015q-2 0 -4.5 -3.5t-3.5 -5.5q-4 -7 -7 -20.5t-4.5 -29t-2 -30.5t-0.5 -26v-34q14 0 28 -0.5t25 -0.5h35q18 0 36 0.5t41 2.5q11 20 13.5 47t2.5 53v32q0 5 -1 10.5t-7 5.5zM337 338q0 2 1 6l108 216l17 -17l96 -223h-208q-1 0 -6.5 4.5
t-6.5 7.5q-1 4 -1 6zM304 471q-60 -112 -125 -222.5t-143 -214.5v-29l6.5 -1.5t15.5 -2.5t18.5 -2t15.5 -1h21q4 0 7.5 -0.5t7.5 -0.5h12q5 0 13.5 0.5t13.5 0.5h4l8 8l80 159q10 19 42.5 31.5t73 19.5t83 9.5t71.5 2.5h34q25 0 44.5 -17.5t33.5 -44t24 -56.5t17 -54
q6 -21 10 -34.5t7 -13.5h308q2 0 5 5q1 1 1.5 2t1.5 2l-1 -1l1 4q0 7 -6 10l-12 6q-3 1 -12 7q-35 30 -63 70.5t-47 79.5l-288 617q-3 7 -6.5 8t-9.5 1q-20 0 -46.5 -11.5t-43.5 -19.5q-38 -17 -52.5 -43t-24.5 -59q-5 -13 -8.5 -27t-11.5 -28q-5 -9 -13.5 -26l-18.5 -37
t-20 -39.5t-17 -34.5q-4 -8 -6.5 -14t-4.5 -9zM14 41q78 104 142 213t124 218h-4q5 7 6 8.5t3 3.5l9 18l26.5 53t28.5 56l15 30q11 23 14.5 31t3.5 10v4q0 4 1 7q6 18 11.5 35t15 31.5t23.5 26.5t37 22h-20l-36 36h-8v56q0 12 1 29t3 35t6 34t10 25l1 -1q4 5 10.5 10t12.5 5
l151 1q13 0 19 -6t8 -14l31 -29q6 -6 7 -14.5t1 -14.5v-32q0 -27 -4 -58t-20 -59q-8 -1 -15 -1q-6 0 -11 -1l18 -18q2 -3 3.5 -5.5t3.5 -5.5h1l290 -619q11 -25 26 -50.5t33 -47.5q0 -2 1 -2l2 2q5 -3 6.5 -4t7.5 -3v-2q1 0 1.5 -0.5t1.5 -0.5l-1 1q8 -3 14.5 -8t9.5 -14
l31 -30q8 -8 8 -22q0 -2 -0.5 -3.5t-2.5 -10.5h-2v-1q-5 -6 -10.5 -11t-11.5 -5h-308q-7 0 -13 6l-31 31q-13 2 -20 20t-15 45q-1 2 -1.5 4t-1.5 4q-8 25 -18 54.5t-24 53.5q-8 2 -12 2h-34q-27 0 -67 -2t-78.5 -8t-69 -16t-38.5 -26l-79 -159l-19 -19h-11q-3 0 -6.5 -0.5
t-7.5 -0.5h-33q-2 0 -3.5 0.5t-3.5 0.5h-21q-8 0 -19 2.5t-22.5 6.5t-20 8t-11.5 6l-32 32q-13 6 -13 11v36z" />
    <glyph glyph-name="FL00C6h" unicode="&#xc6;" horiz-adv-x="1531" 
d="M14 37v-32q0 -5 13 -11l32 -32q3 -2 12 -6t20 -8t22.5 -6.5t18.5 -2.5h21q2 0 3.5 -0.5t3.5 -0.5h33q4 0 7.5 0.5t6.5 0.5h11l19 19l80 159q8 16 38.5 26t69 16t78.5 8t67 2h34q4 0 12 -2q14 -24 24 -53.5t18 -54.5q1 -2 1.5 -4t1.5 -4q8 -27 15 -45t20 -20l31 -31
q6 -6 13 -6h17q4 -2 9 -2h508q34 0 76.5 12.5t80 36.5t63.5 59.5t26 81.5l-38 37v2q0 1 0.5 3t0.5 3q-42 0 -70.5 -2t-54.5 -4l-52 -4t-52 -2h-81h-34q-16 0 -33 1q20 20 40.5 38t42.5 35q37 32 73 64t69 67h-4q5 7 5 15q0 10 -29 39l-13 12h1q-11 17 -46.5 49.5t-80.5 70.5
q-2 1 -5 4l-2 2q-7 6 -14 12.5t-14 11.5q-11 8 -21 17t-21 18q11 2 20.5 3t14.5 1q9 1 29.5 3t46.5 4t54.5 4.5t55 4.5t47.5 3t31 1q10 9 22 20t24.5 24t23.5 27t18 28q2 6 2 7v5l-2 8q-1 2 -3.5 5t-4.5 6l-29 28v2q-2 5 -11.5 13t-16.5 10q-6 -1 -20 -2.5t-29.5 -3
t-29.5 -2.5t-20 -1h-104q-8 0 -15.5 -0.5t-15.5 -0.5h-190q-8 0 -15 0.5t-15 0.5h-109q-3 -2 -8.5 -7.5l-11.5 -11.5t-11.5 -11t-6.5 -7q-9 -11 -23.5 -29t-28 -35.5t-23.5 -31t-10 -15.5v-28l297 -319l-126 -87l-250 537h-1l-3 6h1l-2 1q-3 3 -4 5h-1l-26 27
q-8 16 -16.5 18.5t-19.5 2.5q-22 0 -47.5 -10t-44.5 -18l-6 -3q-24 -10 -39 -22t-24.5 -27t-15.5 -31.5t-12 -35.5q-1 -3 -1 -7v-4q0 -2 -3 -9.5t-14 -31.5l-15 -30q-13 -25 -28.5 -56t-26.5 -52l-9 -18q-2 -2 -3 -3.5t-6 -8.5h4q-62 -112 -125.5 -222t-138.5 -207zM305 471
q2 3 4.5 9t6.5 14l17 34t20 39.5t18.5 36.5t12.5 26q8 15 11.5 29t8.5 26q5 16 10.5 31t14 28t21 23.5t32.5 19.5q17 8 43.5 19.5t46.5 11.5q6 0 9.5 -1t6.5 -8l285 -607l180 125l-308 330v19l9 11.5t21.5 27t26 31.5t22.5 27q1 1 4.5 5t8 8.5l9 9l6.5 6.5h37q20 0 44 -0.5
t52 -0.5h190q29 0 53.5 0.5t44.5 0.5h37q6 0 19.5 1t28.5 2.5t29 3t21 2.5q2 -1 4.5 -3t3.5 -4l1 -4l-1 -4q-13 -25 -36.5 -48.5t-40.5 -39.5q-10 0 -30 -1t-45.5 -3t-53.5 -4.5t-53.5 -4.5t-46 -4t-29.5 -3q-3 0 -14 -1.5t-23.5 -3t-23.5 -4t-14 -3.5q10 -11 26 -26
t35.5 -32.5t41 -36t42.5 -37.5q24 -20 46 -39t39 -34.5t27 -26t10 -14.5q0 -2 -0.5 -5l-0.5 -3q-32 -35 -66 -64.5t-69 -59.5q-34 -29 -68 -59.5t-69 -68.5q42 -14 85.5 -18t87.5 -4h81q27 0 53 2l52 4q25 2 50.5 4t51.5 2q-1 -37 -25 -66t-58.5 -48.5t-73.5 -29.5t-70 -10
h-508l-2 2h-24q-3 0 -7 13.5t-10 34.5q-7 24 -17 54t-24 56t-33.5 43.5t-44.5 17.5h-34q-29 0 -71.5 -2.5t-83.5 -9t-73.5 -19t-42.5 -31.5l-80 -159l-8 -8h-4q-5 0 -13.5 -0.5t-13.5 -0.5h-12q-3 0 -6.5 0.5t-7.5 0.5h-21q-6 0 -16 1t-19 2t-15.5 2.5l-6.5 1.5v29
q78 104 143 214.5t126 222.5zM338 338q0 -2 1 -6q1 -3 6.5 -7.5t6.5 -4.5h208l-96 222l-17 17l-108 -215q-1 -4 -1 -6zM476 455l49 -113h-107z" />
    <glyph glyph-name="FL00C7h" unicode="&#xc7;" horiz-adv-x="924" 
d="M155 92q45 -45 103 -75.5t122 -48.5q-20 -12 -38.5 -22.5t-30.5 -17.5l-6 -3q-1 0 -1.5 -0.5t-3.5 -2.5t-8.5 -5.5t-15.5 -9.5l76 -86h4l36 -37q9 0 18.5 -0.5t18.5 -0.5h62q19 0 38.5 0.5t50.5 3.5q1 2 2.5 5.5t3.5 7.5l17 34q3 6 6 12.5t7 13.5q11 22 23 45t20 42h220
l1 147l-37 37v8q-48 -2 -100.5 -5t-90.5 -5q-48 -3 -88.5 -5t-72.5 -2q-21 0 -40 1t-35 5l-7 2l-7 3q-8 4 -9 5h1q-26 46 -31.5 107.5t-5.5 127.5q0 52 5.5 109t25 104t57 77.5t100.5 30.5l79 1l138 -87l103 9q26 38 37 64t11 45q0 22 -11 38.5t-31 37.5l-16 15
q-8 13 -24 29h-347q-94 -8 -174 -32.5t-149 -83.5q-70 -60 -108.5 -149.5t-38.5 -210.5q0 -87 35.5 -153t94.5 -114zM506 753q-70 0 -111.5 -32.5t-63 -82t-27.5 -110t-6 -115.5q0 -46 2 -91t11 -84t27 -71t50 -53l7 -3v-1l10 -3h1l4 -1q16 -4 36 -5t45 -1q32 0 73 2t89 5
q37 2 79 4.5t90 4.5l-1 -110h-214q-12 -30 -29.5 -64t-31.5 -60q-7 -11 -11.5 -21t-7.5 -16q-22 -2 -40 -2.5t-36 -0.5h-35q-12 0 -26 0.5t-29 0.5l-53 59l6 3q10 5 29 15t41 23.5t44 29t37 32.5q-78 7 -154.5 33t-137.5 71t-99 110t-38 151q0 117 36.5 202t102.5 142
q33 29 68.5 48t74.5 31.5t80.5 19.5t86.5 11h338q14 -17 22.5 -29.5t8.5 -28.5q0 -28 -41 -92l-84 -8l-137 88z" />
    <glyph glyph-name="FL00C8h" unicode="&#xc8;" horiz-adv-x="846" 
d="M272 1049q-6 0 -7 -6t-1 -11q0 -8 6.5 -19t17.5 -24.5t24 -28.5t27 -29q17 -20 32 -37t21 -28q23 -2 40.5 -2.5t36.5 -0.5h34q11 0 24.5 0.5t29.5 0.5v18q0 1 -15 21.5t-35.5 46.5t-42 51.5t-34.5 37.5q-1 1 -1.5 2t-1.5 2l-5 5zM37 14l3 -3q2 -2 3 -3.5l1 -1.5h506
q30 0 69 10t73.5 29.5t58.5 48.5t25 66q-26 0 -51 -2t-51 -4t-51.5 -4t-52.5 -2h-81q-44 0 -87.5 4t-84.5 18q35 38 68.5 68.5t68.5 59.5q35 30 68.5 60t65.5 65l0.5 3t0.5 5q0 4 -10 14.5t-27 25.5t-39 34t-45 40q-44 38 -84.5 73.5t-60.5 58.5q3 1 14 3.5t23 4t23 3
t14 1.5q9 1 29.5 3t45.5 4t53.5 4.5t53.5 4.5t45 3t30 1q17 16 41 39.5t37 48.5l1 4l-1 4q-1 2 -3.5 4t-4.5 3q-7 -1 -21 -2.5t-29.5 -3t-29 -2.5t-19.5 -1h-36q-20 0 -44.5 -0.5t-53.5 -0.5h-189q-28 0 -52 0.5t-44 0.5h-37l-6.5 -6.5l-9 -9t-8 -8.5t-4.5 -5
q-9 -11 -22.5 -27t-25.5 -31.5t-21 -27t-9 -12.5v-19l306 -330l-254 -177l-20 -20q-3 -5 -11.5 -20.5t-18 -32.5t-17.5 -33l-11 -22v1q0 -1 -0.5 -1.5t-0.5 -1.5v-2zM422 1070q8 0 13.5 -5.5l10.5 -10.5l-1 -1q6 -5 12 -11.5t13 -14.5l12 -11h-2q1 -1 1 -2l1 -1l5 -5
q15 -15 37 -42t42.5 -54t35 -47.5t14.5 -21.5v-18h9q6 0 20 1t30 2.5t30 3.5t20 3q7 -2 16.5 -10.5t11.5 -13.5v-2l28 -28q2 -3 4.5 -6t3.5 -5l2 -8v-5q0 -1 -2 -7q-7 -14 -18 -28t-23 -27t-24 -24.5t-22 -19.5q-11 0 -31.5 -1t-47 -3t-55 -4.5t-54.5 -4.5t-46 -4l-30 -3
q-5 0 -14.5 -1t-20.5 -3q11 -9 21.5 -18t21.5 -17q7 -5 14 -11.5t14 -12.5l2 -2l4 -4q45 -38 80.5 -70.5t46.5 -49.5h-1l12 -12q29 -29 29 -39q0 -8 -5 -16h4q-32 -35 -68 -67t-73 -63q-21 -18 -41.5 -36t-41.5 -38q17 -1 33 -1h34h81q26 0 51.5 2t51.5 4t54.5 4t70.5 2
q0 -1 -0.5 -3t-0.5 -3v-2l38 -37q0 -46 -26 -81.5t-63.5 -59.5t-80 -36.5t-75.5 -12.5h-508q-8 4 -9.5 5t-5.5 6l-27 27q-6 3 -8 4.5t-7 6.5l-9 9q-2 6 -2 7v6v7q0 1 0.5 2t0.5 2q3 6 11.5 22.5t18.5 34.5t19 34t14 23l24 24l235 162l-296 320v27q0 3 9.5 16.5t23 31
t28 35.5t23.5 29q1 2 6.5 7t11.5 11l11.5 11.5t8.5 7.5h109q8 0 15 -0.5t15 -0.5h103l-22 20h-2q-1 0 -2 0.5t-2 0.5q-7 14 -22 33.5t-32 37.5q-15 15 -29.5 31.5t-26 31.5t-18.5 28.5t-7 24.5q0 5 0.5 12t3.5 13t9 10t17 4z" />
    <glyph glyph-name="FL00C9h" unicode="&#xc9;" horiz-adv-x="846" 
d="M401 1049q-15 -14 -37 -42t-42.5 -55.5t-35 -48.5t-14.5 -22v-39h8l18 -18q-7 0 -13.5 0.5t-12.5 0.5h-109q-3 -2 -8.5 -7.5l-11.5 -11.5t-11.5 -11t-6.5 -7q-9 -11 -23.5 -29t-28 -35.5t-23 -31t-9.5 -16.5v-27l296 -320l-235 -162l-24 -24q-5 -7 -14 -23t-19 -34
t-18.5 -34.5t-11.5 -22.5q0 -1 -0.5 -2t-0.5 -2v-7v-6q0 -1 2 -7l9 -9q5 -5 7 -6.5t8 -4.5l27 -27q4 -5 5.5 -6t9.5 -5h508q33 0 75.5 12.5t80 36.5t63.5 59.5t26 81.5l-38 37v2q0 1 0.5 3t0.5 3q-42 0 -70.5 -2t-54.5 -4t-51.5 -4t-51.5 -2h-81h-34q-16 0 -33 1
q21 20 41.5 38t41.5 36q37 31 73 63t68 67h-4q5 8 5 16q0 10 -29 39l-11 11l-1 1h1q-11 17 -46.5 49.5t-80.5 70.5l-4 4l-2 2q-7 6 -14 12.5t-14 11.5q-11 8 -21.5 17t-21.5 18q11 2 20.5 3t14.5 1q9 1 29.5 3t46.5 4t54.5 4.5t55 4.5t47.5 3t31 1q10 8 22 19.5t24 24.5
t23 27t18 28q2 6 2 7v5l-2 8q-1 2 -3.5 5t-4.5 6l-28 28v2q-2 5 -11.5 13.5t-16.5 10.5q-6 -1 -20 -3t-30 -3.5t-30 -2.5t-20 -1h-93q-3 0 -6 -0.5t-6 -0.5q9 13 20.5 26t25.5 27q15 15 29 31t25 31t18 28.5t7 24.5q0 6 -1 14.5t-7 14.5l-30 29q-2 8 -8 14t-20 6l-150 -1
q-7 0 -13 -4.5t-9 -9.5zM36 18v2q0 1 0.5 1.5t0.5 1.5v-1l11 22t17.5 33t18 32.5t11.5 20.5l20 20l254 177l-306 330v19q0 1 9 12.5t21 27t25.5 31.5t22.5 27q1 1 4.5 5t8 8.5l9 9l6.5 6.5h37q20 0 44 -0.5t52 -0.5h189q29 0 53.5 0.5t44.5 0.5h36q6 0 19.5 1t29 2.5t29.5 3
t21 2.5q2 -1 4.5 -3t3.5 -4l1 -4l-1 -4q-13 -25 -37 -48.5t-41 -39.5q-10 0 -30 -1t-45 -3t-53.5 -4.5t-53.5 -4.5t-45 -4l-30 -3q-3 0 -14 -1.5t-23 -3t-23 -4t-14 -3.5q20 -23 60.5 -58.5t84.5 -73.5q23 -21 45 -40t39 -34t27 -25.5t10 -14.5q0 -2 -0.5 -5l-0.5 -3
q-32 -35 -65.5 -65t-68.5 -60q-35 -29 -68.5 -59.5t-68.5 -68.5q41 -14 84.5 -18t87.5 -4h81q27 0 52.5 2t51.5 4t51 4t51 2q-1 -37 -25 -66t-58.5 -48.5t-73.5 -29.5t-69 -10h-506l-1 1.5t-3 3.5l-3 3zM579 1048q6 0 7 -6t1 -11q0 -8 -6.5 -19t-17.5 -24.5t-24.5 -28.5
t-26.5 -29q-19 -20 -33 -37t-20 -28q-23 -2 -41 -2.5t-36 -0.5h-35q-11 0 -24.5 0.5t-28.5 0.5v18q0 1 15 21.5t35.5 47t42 52t34.5 36.5q1 1 1.5 2t1.5 2q2 5 5 5zM605 435q-1 0 -1 1z" />
    <glyph glyph-name="FL00CAh" unicode="&#xca;" horiz-adv-x="846" 
d="M342 1073q-18 0 -24 -9t-6 -19q-16 -16 -37.5 -43.5t-41 -54t-33 -46t-13.5 -20.5v-39h8l16 -17h-48q-3 -2 -8.5 -7.5l-11.5 -11.5t-11.5 -11t-6.5 -7q-9 -11 -23.5 -29t-28 -35.5t-23 -31t-9.5 -16.5v-27l296 -320l-235 -162l-24 -24q-5 -7 -14 -23t-19 -34t-18.5 -34.5
t-11.5 -22.5q0 -1 -0.5 -2t-0.5 -2v-7v-6q0 -1 2 -7l9 -9q5 -5 7 -6.5t8 -4.5l27 -27q4 -5 5.5 -6t9.5 -5h508q33 0 75.5 12.5t80 36.5t63.5 59.5t26 81.5l-38 37v2q0 1 0.5 3t0.5 3q-42 0 -70.5 -2t-54.5 -4t-51.5 -4t-51.5 -2h-81h-34q-16 0 -33 1q21 20 41.5 38t41.5 36
q37 31 73 63t68 67h-4q5 8 5 16q0 10 -29 39l-12 12h1q-11 17 -46.5 49.5t-80.5 70.5l-4 4l-2 2q-7 6 -14 12.5t-14 11.5q-11 8 -21.5 17t-21.5 18q11 2 20.5 3t14.5 1q9 1 29.5 3t46.5 4t54.5 4.5t55 4.5t47.5 3t31 1q10 8 22 19.5t24 24.5t23 27t18 28q2 6 2 7v5l-2 8
q-1 2 -3.5 5t-4.5 6l-28 28v2q-2 5 -11.5 13.5t-16.5 10.5q-5 -2 -16 -3t-24 -3v15q0 1 -13.5 20t-32.5 45.5t-41 53.5t-38 43l-2 1q-1 1 -1 2q-2 2 -2 3q-2 6 -5 9l-24 22q-4 4 -5 6q-3 8 -7.5 13t-12.5 7l1 -1q-3 2 -5 3t-6 1zM36 18v2q0 1 0.5 1.5t0.5 1.5v-1l11 22
t17.5 33t18 32.5t11.5 20.5l20 20l254 177l-306 330v19q0 1 9 12.5t21 27t25.5 31.5t22.5 27q1 1 4.5 5t8 8.5l9 9l6.5 6.5h37q20 0 44 -0.5t52 -0.5h189q29 0 53.5 0.5t44.5 0.5h36q6 0 19.5 1t29 2.5t29.5 3t21 2.5q2 -1 4.5 -3t3.5 -4l1 -4l-1 -4q-13 -25 -37 -48.5
t-41 -39.5q-10 0 -30 -1t-45 -3t-53.5 -4.5t-53.5 -4.5t-45 -4l-30 -3q-3 0 -14 -1.5t-23 -3t-23 -4t-14 -3.5q20 -23 60.5 -58.5t84.5 -73.5q23 -21 45 -40t39 -34t27 -25.5t10 -14.5q0 -2 -0.5 -5l-0.5 -3q-32 -35 -65.5 -65t-68.5 -60q-35 -29 -68.5 -59.5t-68.5 -68.5
q41 -14 84.5 -18t87.5 -4h81q27 0 52.5 2t51.5 4t51 4t51 2q-1 -37 -25 -66t-58.5 -48.5t-73.5 -29.5t-69 -10h-506l-1 1.5t-3 3.5l-3 3zM491 1050l2 -2q5 -1 7 -9q14 -12 35.5 -37t41.5 -51t34.5 -46t14.5 -21v-18q-15 0 -28.5 -0.5t-24.5 -0.5h-35q-5 0 -9 -0.5t-7 -0.5
h-29q-2 0 -4 -0.5t-4 0.5q-3 5 -11.5 17t-19 25.5t-20.5 26.5t-17 21q-8 -8 -19 -21.5t-21 -28t-18 -26.5t-11 -17q-3 -1 -4.5 -0.5t-3.5 0.5h-27q-3 0 -7 0.5t-9 0.5h-35q-11 0 -25 0.5t-29 0.5v18q0 1 14.5 20.5t34.5 45.5t41.5 51.5t35.5 37.5q0 5 1 10t7 5zM470 847
q4 -3 7 -3l1 -1l20 -19h-88q8 11 18.5 25t20.5 28q7 -8 12.5 -16.5t8.5 -13.5z" />
    <glyph glyph-name="FL00CBh" unicode="&#xcb;" horiz-adv-x="846" 
d="M442 840q-2 -5 -3 -9t-3 -8h24zM236 1013q-2 0 -4.5 -4t-3.5 -6q-5 -7 -7.5 -20t-4.5 -28.5t-2.5 -30.5t-0.5 -26v-34q15 0 29 -0.5t25 -0.5h35q18 0 35.5 0.5t40.5 2.5q11 20 13.5 47t2.5 53v32q0 4 -1 10t-7 6zM477 1014q-2 0 -4.5 -4t-3.5 -6q-5 -7 -7.5 -20
t-4.5 -28.5t-2.5 -30.5t-0.5 -26v-34q15 0 28.5 -0.5t24.5 -0.5h35q18 0 36 0.5t40 2.5q11 20 13.5 47t2.5 53v32q0 4 -1 10t-7 6zM37 14l3 -3q2 -2 3 -3.5l1 -1.5h506q30 0 69 10t73.5 29.5t58.5 48.5t25 66q-26 0 -51 -2t-51 -4t-51.5 -4t-52.5 -2h-81q-44 0 -87.5 4
t-84.5 18q35 38 68.5 68.5t68.5 59.5q35 30 68.5 60t65.5 65l0.5 3t0.5 5q0 4 -10 14.5t-27 25.5t-39 34t-45 40q-44 38 -84.5 73.5t-60.5 58.5q3 1 14 3.5t23 4t23 3t14 1.5q9 1 29.5 3t45.5 4t53.5 4.5t53.5 4.5t45 3t30 1q17 16 41 39.5t37 48.5l1 4l-1 4q-1 2 -3.5 4
t-4.5 3q-7 -1 -21 -2.5t-29.5 -3t-29 -2.5t-19.5 -1h-36q-20 0 -44.5 -0.5t-53.5 -0.5h-189q-28 0 -52 0.5t-44 0.5h-37l-6.5 -6.5l-9 -9t-8 -8.5t-4.5 -5q-9 -11 -22.5 -27t-25.5 -31.5t-21 -27t-9 -12.5v-19l306 -330l-254 -177l-20 -20q-3 -5 -11.5 -20.5t-18 -32.5
t-17.5 -33l-11 -22v1q0 -1 -0.5 -1.5t-0.5 -1.5v-2zM626 1037q14 0 20 -6t8 -14l31 -29q6 -6 7 -14.5t1 -14.5v-32q0 -24 -3 -50t-13 -50q16 2 29 3.5t19 3.5q7 -2 16.5 -10t11.5 -13v-2l28 -28q2 -3 4.5 -6t3.5 -5l2 -8v-5q0 -1 -2 -7q-7 -14 -18 -28t-23 -27t-24 -24.5
t-22 -20.5q-11 0 -31.5 -1t-47 -3t-55 -4t-54.5 -4t-46 -4l-30 -3q-5 0 -14.5 -1t-20.5 -3q11 -9 21.5 -18t21.5 -17q7 -5 14 -11.5t14 -12.5l2 -2l4 -4q45 -38 80.5 -71t46.5 -49h-1l12 -12q29 -29 29 -39q0 -8 -5 -16h4q-32 -35 -68 -67t-73 -63q-21 -18 -41.5 -36
t-41.5 -38q17 -1 33 -1h34h81q26 0 51.5 2t51.5 4t54.5 4t70.5 2q0 -1 -0.5 -3t-0.5 -3v-2l38 -37q0 -46 -26 -81.5t-63.5 -59.5t-80 -36.5t-75.5 -12.5h-508q-8 4 -9.5 5t-5.5 6l-27 27q-6 3 -8 4.5t-7 6.5l-9 9q-2 6 -2 7v6v7q0 1 0.5 2t0.5 2q3 6 11.5 22.5t18.5 34.5
t19 34t14 23l24 24l235 162l-296 319v28q0 3 9.5 16.5t23 31t28 35.5t23.5 29q1 2 6.5 7t11.5 11t11.5 11t8.5 7h54l-17 18h-8v56q0 12 1 29t3 35t5.5 34t9.5 25l1 -1q4 5 11 10t13 5l150 1q14 0 20 -6t8 -14l26 -24q2 8 5 15.5t7 14.5l1 -1q4 5 11 10t13 5z" />
    <glyph glyph-name="FL00CCh" unicode="&#xcc;" horiz-adv-x="841" 
d="M236 1049q-6 0 -7 -6t-1 -10q0 -8 6.5 -19.5t17.5 -25t24 -28.5t27 -29q18 -20 32.5 -37t20.5 -28q23 -2 40.5 -2.5t36.5 -0.5h35q11 0 24 0.5t29 0.5v18q0 1 -15 21.5t-35.5 46.5t-42 51.5t-34.5 37.5q-1 1 -1.5 2t-1.5 2l-5 5zM280 127q-2 0 -9.5 -1.5t-16.5 -3t-19 -3
t-16 -2.5q-8 -1 -20.5 -3t-26.5 -3.5t-27.5 -3t-21.5 -1.5l-87 -87v-16q82 5 150.5 6.5t128.5 1.5q63 0 116.5 -1t104.5 -3q46 -2 90.5 -3t92.5 -1h8q6 14 13.5 33t14 40t11 42.5t4.5 40.5q-5 -1 -12 -1.5t-9 -1.5q-2 0 -9 -3t-15 -7t-15 -7t-10 -3q-33 -6 -61.5 -8
t-65.5 -2q-6 0 -16.5 0.5t-15.5 0.5h-5l-7 7q-1 32 -1.5 62.5t-2.5 61.5q-2 52 -4 104.5t-2 106.5v40q0 14 0.5 28t0.5 28v66l10 49l7.5 2t17.5 4t20.5 3.5l17.5 2.5t19 2.5t25.5 3t26 2.5t20.5 1l87 88v16q-49 0 -91.5 -1.5t-83.5 -3.5q-43 -2 -86 -3.5t-92 -1.5
q-48 0 -88 1.5t-80 3.5q-38 2 -77.5 3.5t-84.5 1.5h-8q-6 -14 -13 -33t-13.5 -40.5t-11.5 -43t-5 -39.5q5 0 12 1t9 2q2 0 9 3t15 6t14.5 6t10.5 4q32 6 64 9t68 3q6 0 16.5 -0.5t15.5 -0.5h5l12 -12l-5 -543h-4h1zM217 139q15 2 35 5h-1q4 1 10 1l4 480q-31 -1 -58 -4
t-56 -8l-10 -4q-3 -2 -6 -2.5t-6 -2.5q-9 -5 -17 -8t-13 -3q-8 -2 -21.5 -2.5t-17.5 -0.5l-37 37h-8q0 27 5.5 56t13.5 55.5t17 49.5t15 39h22q35 0 65.5 -0.5t59.5 -2.5q9 -1 18.5 -1.5t18.5 -0.5q31 -2 62 -3.5t64 -1.5l-29 28h-2q-1 0 -2 0.5t-2 0.5q-6 14 -21 33t-33 37
q-15 15 -29.5 31.5t-26 31.5t-18.5 29t-7 25q0 5 0.5 11.5t3.5 12.5t9 10t17 4l150 -1q8 0 13.5 -5.5l10.5 -10.5l-1 -1q6 -5 12 -11.5t13 -14.5l13 -11h-2q1 -1 1 -2l1 -1l5 -5q14 -15 36 -42t42.5 -54t35 -47.5t14.5 -21.5v-22q10 0 15 1h12q3 0 5.5 0.5t5.5 0.5
q39 2 85.5 3t89.5 1v-8l37 -37v-40l-99 -99q-9 0 -23 -1t-28 -2.5t-27 -3t-20 -2.5q-10 -2 -24 -3.5t-22 -2.5l-8 -42v-88q0 -7 -0.5 -14t-0.5 -14v-41q0 -54 2 -106l4 -104v-19t1 -18v-17t1 -17q29 0 54 2t55 8q2 0 8 2.5t14 6.5q3 0 4 1l8 4l10 4t10 2q8 1 22 2t21 1v-8
l37 -37q0 -26 -5.5 -53.5t-13 -53t-16.5 -47.5t-15 -38h-21q-48 0 -92.5 1t-89.5 3q-51 2 -105 3t-117 1q-60 0 -135.5 -2t-159.5 -7l-38 38q-1 0 -1.5 -0.5l-0.5 -0.5h-5v47l101 101q10 0 24.5 1.5l29 3t27.5 3.5t21 3z" />
    <glyph glyph-name="FL00CDh" unicode="&#xcd;" horiz-adv-x="841" 
d="M563 1072l-150 -1q-7 0 -13 -4.5t-9 -9.5q-2 -2 -2 -3q0 1 1 1l-1 -1v-1v1q-15 -13 -37.5 -41t-43.5 -57t-36.5 -51l-15.5 -22v-39h8l23 -25q-10 1 -19 1.5t-18 1.5q-9 0 -18.5 0.5t-18.5 1.5q-29 2 -59.5 2.5t-65.5 0.5h-22q-6 -16 -15 -39t-17 -49.5t-13.5 -55.5
t-5.5 -56h8l37 -37q4 0 17.5 0.5t21.5 2.5q5 0 13 3t17 8q3 2 6 2.5t6 2.5l10 4q29 5 56 8t58 4l-4 -480q-6 0 -10 -1h1q-20 -3 -35 -5q-8 -1 -21 -3t-27.5 -3.5l-29 -3t-24.5 -1.5l-101 -101v-47h5l0.5 0.5t1.5 0.5l38 -38q84 5 159.5 7t135.5 2q63 0 117 -1t105 -3
q45 -2 89.5 -3t92.5 -1h21q6 16 15 38t16.5 47.5t13 53t5.5 53.5l-37 37v8q-6 0 -21 -1t-23 -2q-7 0 -17 -5l-10 -5q-1 -1 -4 -1q-8 -4 -14 -6.5t-8 -2.5q-30 -6 -55 -8t-54 -2q-1 8 -1 17v17q-1 9 -1 18v19l-4 104t-2 106v41q0 7 0.5 14t0.5 14v88l8 42q8 1 22 2.5t24 3.5
q7 1 20 2.5t27 3t28 2.5t23 1l99 99v40l-37 37v8q-43 0 -89.5 -1t-85.5 -3q-3 0 -5.5 -0.5t-5.5 -0.5h-17q-23 -2 -46 -3l-46 -2q8 13 21.5 29t30.5 33q15 15 29 31t25 31t18 28.5t7 24.5q0 6 -1 14.5t-7 14.5l-30 29q-2 8 -8 14t-20 6zM283 127l5 543l-12 12h-5
q-5 0 -15.5 0.5t-16.5 0.5q-36 0 -68 -3t-64 -9q-4 -1 -10.5 -4t-14.5 -6t-15 -6t-9 -3q-2 -1 -9 -2t-12 -1q0 18 5 39.5t11.5 43t13.5 40.5t13 33h8q45 0 84.5 -1.5t77.5 -3.5q40 -2 80 -3.5t88 -1.5q49 0 92 1.5t86 3.5q41 2 83.5 3.5t91.5 1.5v-16l-87 -88q-8 0 -20.5 -1
t-26 -2.5t-25.5 -3t-19 -2.5l-17.5 -2.5t-20.5 -3.5t-17.5 -4l-7.5 -2l-10 -49v-66q0 -14 -0.5 -28t-0.5 -28v-40q0 -54 2 -106.5t4 -104.5q2 -31 2.5 -61.5t1.5 -62.5l7 -7h5q5 0 15.5 -0.5t16.5 -0.5q37 0 65.5 2t61.5 8q3 0 10 3t15 7t15 7t9 3q2 1 9 1.5t12 1.5
q0 -19 -4.5 -40.5t-11 -42.5t-14 -40t-13.5 -33h-8q-48 0 -92.5 1t-90.5 3q-51 2 -104.5 3t-116.5 1q-60 0 -128.5 -1.5t-150.5 -6.5v16l87 87q8 0 21.5 1.5t27.5 3t26.5 3.5t20.5 3q6 1 16 2.5t19 3t16.5 3t9.5 1.5h-1h4zM563 1050q6 0 7 -6t1 -10q0 -8 -6.5 -19.5
t-17.5 -25t-24.5 -28.5t-26.5 -29q-18 -20 -32.5 -37t-20.5 -28q-23 -2 -41 -2.5t-36 -0.5h-34q-11 0 -25 0.5t-29 0.5v18l15 21t35.5 47.5t42 52t34.5 36.5q1 1 1.5 2t1.5 2q2 5 5 5z" />
    <glyph glyph-name="FL00CFh" unicode="&#xce;" horiz-adv-x="910" 
d="M354 1074q-18 0 -24 -9t-6 -19q-16 -16 -37.5 -43.5t-41 -54t-33 -46t-13.5 -20.5v-39h8l15 -18q-66 3 -134 3h-22q-6 -16 -15 -39t-17 -49.5t-13.5 -55.5t-5.5 -56h8l37 -37q4 0 17.5 0.5t21.5 2.5q5 0 13 3t17 8q3 2 6 2.5t6 2.5l10 4q29 5 70 7.5t76 3.5l-4 -480
q-6 0 -10 -1h1q-20 -3 -35 -5q-8 -1 -26.5 -3t-39.5 -3.5t-40 -2.5t-28 -1l-101 -101v-47h5v0q1 0 2 1l38 -38q85 5 166.5 7t149.5 2q72 0 136 -1t124 -3h12q48 -2 92.5 -3t87.5 -1h21q6 16 15 38t16.5 47.5t13 53t5.5 53.5l-37 37v8q-6 0 -21 -1t-23 -2q-7 0 -17 -5l-10 -5
q-1 -1 -4 -1q-8 -4 -14 -6.5t-8 -2.5q-30 -6 -70.5 -8.5t-75.5 -2.5q-1 8 -1 17v17q-1 9 -1 18v19l-4 104t-2 106v41q0 7 0.5 14t0.5 14v88l8 42q8 1 22.5 2.5t23.5 3.5q7 1 26 3t40.5 3.5t41 2.5t27.5 1l99 99v40l-37 37v8q-38 0 -81 -1t-84 -3v22l-13.5 19.5t-32.5 45.5
t-41 53t-38 43l-2 1q-1 1 -1 2q-2 2 -2 3q-2 6 -5 9l-24 22q-4 4 -5 6q-3 8 -7 13t-12 7l1 -1q-3 2 -5 3t-6 1zM315 127l5 543l-12 12h-5q-5 0 -15.5 0.5t-16.5 0.5q-18 0 -40 -0.5t-44 -2t-43 -3.5t-37 -5q-4 -1 -10.5 -4t-14.5 -6t-15 -6t-9 -3q-2 -1 -9 -2t-12 -1
q0 18 5 39.5t11.5 43t13.5 40.5t13 33h8q45 0 89 -1.5t89 -3.5q46 -2 91 -4t93 -2q50 0 98.5 1.5t98.5 3.5l96 4t97 2v-16l-87 -88q-9 0 -27 -1t-38 -2.5t-38 -3.5t-25 -3l-17.5 -2.5t-20.5 -3.5t-17.5 -4l-7.5 -2l-10 -49v-66q0 -14 -0.5 -28t-0.5 -28v-40q0 -54 2 -106.5
t4 -104.5q2 -31 2.5 -61.5t1.5 -62.5l7 -7h5q5 0 15.5 -0.5t16.5 -0.5q18 0 40 0.5t44 2t42.5 3.5t37.5 5q3 0 10 3t15 7t15 7t9 3q2 1 9 1.5t12 1.5q0 -19 -5 -40.5t-11.5 -42.5t-13.5 -40t-13 -33h-8q-47 0 -94.5 1t-98.5 3q-60 2 -123.5 3t-135.5 1q-68 0 -141.5 -1.5
t-158.5 -6.5v16l87 87q9 0 27 1t38 2.5t37.5 3.5t25.5 3q6 1 16 2.5t19 3t16.5 3t9.5 1.5h-1h4zM504 1051l2 -2q5 -1 7 -9q14 -12 35.5 -37t41.5 -51t34.5 -46t14.5 -21v-18q-16 0 -29.5 -0.5t-24.5 -0.5h-35q-5 0 -9 -0.5t-7 -0.5h-28q-2 0 -4 -0.5t-4 0.5q-3 5 -12 17
t-19.5 25.5t-20.5 26.5t-17 21q-8 -8 -18.5 -21.5t-20.5 -28t-18 -26.5t-11 -17q-3 -1 -5 -0.5t-4 0.5h-27q-3 0 -7 0.5t-9 0.5h-35q-11 0 -25 0.5t-28 0.5v18q0 1 14.5 20.5t34.5 45.5t41 51.5t35 37.5q0 5 1 10t7 5zM482 848q4 -3 7 -3l1 -1l27 -27h-99q8 13 20.5 31.5
t22.5 30.5q7 -9 12.5 -17.5t8.5 -13.5z" />
    <glyph glyph-name="FL00D1h" unicode="&#xcf;" horiz-adv-x="841" 
d="M446 817l-21 20q-5 -13 -9 -20h30zM459 1011q-2 0 -4.5 -4t-3.5 -6q-5 -7 -7.5 -20t-4.5 -28.5t-2.5 -30.5t-0.5 -26v-34q15 0 28.5 -0.5t24.5 -0.5h35q18 0 36 0.5t41 2.5q10 20 12.5 47t2.5 53v32q0 4 -1 10t-6 6zM218 1010q-2 0 -4.5 -4t-3.5 -6q-4 -7 -7 -20
t-4.5 -28.5t-2 -30.5t-0.5 -26v-34q14 0 28 -0.5t25 -0.5h35q18 0 36 0.5t40 2.5q11 20 13.5 47t2.5 53v32q0 4 -1 10t-7 6zM280 127q-2 0 -9.5 -1.5t-16.5 -3t-19 -3t-16 -2.5q-8 -1 -20.5 -3t-26.5 -3.5t-27.5 -3t-21.5 -1.5l-87 -87v-16q82 5 150.5 6.5t128.5 1.5
q63 0 116.5 -1t104.5 -3q46 -2 90.5 -3t92.5 -1h8q6 14 13.5 33t14 40t11 42.5t4.5 40.5q-5 -1 -12 -1.5t-9 -1.5q-2 0 -9 -3t-15 -7t-15 -7t-10 -3q-33 -6 -61.5 -8t-65.5 -2q-6 0 -16.5 0.5t-15.5 0.5h-5l-7 7q-1 32 -1.5 62.5t-2.5 61.5q-2 52 -4 104.5t-2 105.5v41
q0 14 0.5 28t0.5 28v66l10 49l7.5 2t17.5 4t20.5 3.5l17.5 2.5t19 2.5t25.5 3t26 2.5t20.5 1l87 88v16q-49 0 -91.5 -1.5t-83.5 -3.5q-43 -2 -86 -3.5t-92 -1.5q-48 0 -88 1.5t-80 3.5q-38 2 -77.5 3.5t-84.5 1.5h-8q-6 -14 -13 -33t-13.5 -40.5t-11.5 -43t-5 -40.5
q5 0 12 1t9 2q2 0 9 3t15 7q8 3 14.5 6t10.5 4q32 6 64 9t68 3q6 0 16.5 -0.5t15.5 -0.5h5l12 -12l-5 -543h-4h1zM217 139q15 2 35 5h-1q4 1 10 1l4 480q-31 -1 -58 -4t-56 -8l-10 -4q-3 -2 -6 -2.5t-6 -2.5q-9 -5 -17 -8t-13 -3q-8 -2 -21.5 -2.5t-17.5 -0.5l-37 37h-8
q0 27 5.5 56t13.5 55.5t17 49.5t15 38h22q57 0 108 -3l-14 16h-8v56q0 12 1 29t3 35t6 34t10 25l1 -1q4 5 10.5 10t12.5 5l150 1q14 0 20 -6t8 -14l26 -24q2 8 5 15.5t7 14.5l1 -1q4 5 11 10t13 5l150 1q13 0 19 -6t8 -14l31 -29q6 -6 7 -14.5t1 -14.5v-32q0 -24 -3 -50.5
t-13 -50.5q32 2 66.5 2.5t67.5 0.5v-8l37 -36v-40l-99 -100q-9 0 -23 -1t-28 -2.5t-27 -2.5t-20 -2q-10 -2 -24 -3.5t-22 -2.5l-8 -42v-88q0 -7 -0.5 -14t-0.5 -15v-40q0 -54 2 -106l4 -104v-19t1 -18v-17t1 -17q29 0 54 2t55 8q2 0 8 2.5t14 6.5q3 0 4 1l10 5q10 5 17 5
q8 1 23 2t21 1v-8l37 -37q0 -26 -5.5 -53.5t-13 -53t-16.5 -47.5t-15 -38h-21q-48 0 -92.5 1t-89.5 3q-51 2 -105 3t-117 1q-60 0 -135.5 -2t-159.5 -7l-38 38q-1 0 -1.5 -0.5l-0.5 -0.5h-5v47l101 101q10 0 24.5 1.5l29 3t27.5 3.5t21 3z" />
    <glyph glyph-name="FL00D0h" unicode="&#xd0;" horiz-adv-x="1193" 
d="M14 308v-11q5 -6 14 -10l30 -30q3 -4 10 -7.5t14.5 -6t13.5 -4t8 -1.5q7 2 21.5 13.5t23.5 21.5h77v-289h8l37 -37h456q92 0 174.5 22.5t145 69.5t99 119t36.5 172q0 106 -30.5 181t-87.5 131l-5 5q-13 14 -26 27.5t-27 27.5h1q-37 34 -76.5 56t-81.5 36.5t-86 22
t-91 11.5h-437l-8 -8t-13 -12q-14 -12 -21 -21.5t-7 -25.5q0 -15 9 -34t31 -52v-169h-133q-11 0 -18 -12t-10 -21q-2 -5 -3.5 -9.5t-3.5 -9.5t-4.5 -10.5t-4.5 -11.5q-12 -30 -23.5 -63t-11.5 -61zM36 308q0 23 11 55t23 61q5 12 9 23t7 19q2 5 5 11.5t2 6.5h155v199
q-22 32 -31 49.5t-9 28.5q0 8 5.5 15t15.5 17l14 14h428q90 -8 167 -31t142 -80q68 -56 105.5 -133.5t37.5 -193.5q0 -95 -35 -163.5t-95 -113t-139 -65.5t-167 -21h-439v326h-148q-2 -3 -6.5 -8.5t-10.5 -11t-12 -10t-9 -5.5q-4 0 -13 2t-13 6v3zM473 485h154q2 0 10 4
l12 6l28 19h4q8 0 15.5 -2.5t7.5 -12.5q0 -38 -10 -64.5t-24 -55.5q-4 -8 -7.5 -16t-8.5 -17v1q-2 -4 -5 -9t-2 -5h-174v-257q28 1 54 1h46h129q10 1 63 30q34 21 53.5 54.5t29 74t11.5 86t2 90.5q0 55 -6.5 112.5t-28.5 104.5t-64 76.5t-112 29.5l-177 1v-251zM686 274
q8 0 14.5 8.5t9.5 14.5t5.5 12.5t5.5 12.5q1 3 2 5t1 3h2q16 30 26.5 58t10.5 71q0 15 -9 24l-31 30q-5 13 -17 18t-25 5h-10l-35 -23h-1q-1 -1 -2.5 -1.5t-7.5 -4.5h-94v170l158 -1q29 0 52 -6.5t43 -17.5q17 -22 28 -50t17 -59.5t8 -65t2 -65.5q0 -43 -2.5 -86t-13 -82
t-31.5 -72t-59 -57q-13 -7 -21.5 -11t-12.5 -5h-168v175h155z" />
    </font>
</defs>
</svg>
