<?xml version="1.0" standalone="no"?>
<!DOCTYPE svg PUBLIC "-//W3C//DTD SVG 1.1//EN" "http://www.w3.org/Graphics/SVG/1.1/DTD/svg11.dtd" >
<svg xmlns="http://www.w3.org/2000/svg" xmlns:xlink="http://www.w3.org/1999/xlink" version="1.1">
<metadata>
Created by FontForge 20170731 at Fri Mar  3 02:38:51 2000
 By Aleksey,,,
Copyright (c) ShyFonts Type Foundry, 1999. All rights reserved.
</metadata>
<defs>
<font id="SFEspressoShack" horiz-adv-x="1640" >
  <font-face 
    font-family="SF Espresso Shack"
    font-weight="400"
    font-stretch="normal"
    units-per-em="2048"
    panose-1="0 0 4 0 0 0 0 0 0 0"
    ascent="1638"
    descent="-410"
    x-height="1476"
    cap-height="1640"
    bbox="-259 -407 2782 2152"
    underline-thickness="20"
    underline-position="-163"
    unicode-range="U+0020-00FF"
  />
<missing-glyph horiz-adv-x="1024" 
 />
    <glyph glyph-name=".notdef" horiz-adv-x="1024" 
 />
    <glyph glyph-name=".null" horiz-adv-x="0" 
 />
    <glyph glyph-name="nonmarkingreturn" horiz-adv-x="682" 
 />
    <glyph glyph-name="space" unicode=" " horiz-adv-x="923" 
 />
    <glyph glyph-name="exclam" unicode="!" horiz-adv-x="574" 
d="M471 533h-369v1517h369v-1517zM471 184q0 -75 -55 -130q-54 -54 -129 -54t-130 55t-55 129q0 76 54 130q55 55 131 55q77 0 130 -54q54 -54 54 -131z" />
    <glyph glyph-name="quotedbl" unicode="&#x22;" horiz-adv-x="882" 
d="M830 1455q0 -95 -51 -230q-60 -159 -133 -159q33 60 33 113q0 47 -33 92q-75 0 -130 55t-55 129q0 75 55 130t130 55q76 0 130 -55q54 -54 54 -130zM420 1455q0 -93 -51 -228q-60 -161 -133 -161q32 61 32 113q0 46 -32 92q-75 0 -130 55t-55 129t54 130q55 55 131 55
t130 -55q54 -54 54 -130z" />
    <glyph glyph-name="numbersign" unicode="#" horiz-adv-x="1502" 
d="M1400 613h-336l-47 -271h-244l47 271h-270l-48 -271h-244l47 271h-203v244h246l47 268h-293v244h336l49 271h245l-49 -271h270l47 271h244l-47 -271h203v-244h-246l-47 -268h293v-244zM910 1125h-270l-47 -268h270z" />
    <glyph glyph-name="dollar" unicode="$" horiz-adv-x="871" 
d="M820 369q0 -238 -248 -361v-312h-193v248q-117 -28 -236 -33l-82 376q106 3 192 23q136 33 136 100q0 110 -88 273q-41 72 -81 143t-81 143q-88 172 -88 302q0 231 230 351v326h186v-254q142 36 261 39l61 -380q-93 0 -181 -24q-127 -33 -127 -99q0 -97 89 -260l162 -291
q88 -176 88 -310z" />
    <glyph glyph-name="percent" unicode="%" horiz-adv-x="1972" 
d="M1921 410q0 -171 -120 -291q-119 -119 -291 -119t-291 119q-118 118 -118 291q0 171 119 290q120 120 290 120t290 -120q121 -120 121 -290zM1510 1720l-700 -1924l-349 127l701 1924zM871 1230q0 -172 -119 -291t-291 -119q-174 0 -292 118t-118 292q0 172 119 291
t291 119q171 0 290 -120q120 -120 120 -290zM1675 410q0 68 -48 116t-117 48q-67 0 -115 -49q-48 -48 -48 -115t48 -116q48 -48 115 -48q69 0 117 48t48 116zM626 1230q0 68 -48 116t-117 48q-67 0 -116 -49q-48 -48 -48 -115q0 -66 49 -115t115 -49q68 0 116 48
q49 49 49 116z" />
    <glyph glyph-name="ampersand" unicode="&#x26;" horiz-adv-x="1558" 
d="M1455 0q-149 0 -216 16q-50 11 -98 34.5t-96 60.5q-144 -111 -317 -111h-205q-202 0 -350 135q-153 139 -153 338q0 211 154 347q-154 136 -154 346q0 198 153 338q148 136 350 136h625v-369h-625q-54 0 -94 -40t-40 -93q0 -54 39 -94q40 -39 95 -39h932v-369h-225v-134
q0 -55 39 -94q40 -39 94 -39h92v-369zM861 499v137h-338q-54 0 -94 -40t-40 -94t39 -94q40 -39 95 -39h205q52 0 93 38q40 39 40 92z" />
    <glyph glyph-name="quotesingle" unicode="'" horiz-adv-x="471" 
d="M420 1455q0 -93 -51 -228q-60 -161 -133 -161q32 61 32 113q0 46 -32 92q-75 0 -130 55t-55 129t54 130q55 55 131 55t130 -55q54 -54 54 -130z" />
    <glyph glyph-name="parenleft" unicode="(" horiz-adv-x="800" 
d="M697 0l-287 -202q-221 229 -316 465q-94 234 -94 557q0 320 94 556q96 243 316 469l287 -205q-176 -186 -252 -376q-76 -188 -76 -444q0 -258 75 -445q77 -188 253 -375z" />
    <glyph glyph-name="parenright" unicode=")" horiz-adv-x="800" 
d="M800 820q0 -323 -94 -557q-95 -237 -317 -465l-287 202q177 186 252 375q76 188 76 445q0 256 -76 445q-77 190 -252 375l287 205q222 -228 317 -469q94 -236 94 -556z" />
    <glyph glyph-name="asterisk" unicode="*" horiz-adv-x="1218" 
d="M1115 978l-123 -213l-260 149v-299h-247v299l-260 -149l-123 213l260 149l-260 150l123 213l260 -150v300h247v-300l260 150l123 -213l-260 -150z" />
    <glyph glyph-name="plus" unicode="+" horiz-adv-x="1127" 
d="M1025 677h-317v-319h-288v319h-318v287h318v317h288v-317h317v-287z" />
    <glyph glyph-name="comma" unicode="," horiz-adv-x="471" 
d="M420 184q0 -93 -51 -226q-60 -160 -133 -160q32 61 32 113q0 48 -32 89q-75 0 -130 55t-55 129q0 76 54 130q55 55 131 55q77 0 130 -54q54 -54 54 -131z" />
    <glyph glyph-name="hyphen" unicode="-" horiz-adv-x="1127" 
d="M1025 677h-923v287h923v-287z" />
    <glyph glyph-name="period" unicode="." horiz-adv-x="471" 
d="M420 184q0 -75 -55 -130q-54 -54 -129 -54t-130 55t-55 129q0 76 54 130q55 55 131 55q77 0 130 -54q54 -54 54 -131z" />
    <glyph glyph-name="slash" unicode="/" horiz-adv-x="1050" 
d="M1050 1720l-702 -1924l-348 127l701 1924z" />
    <glyph glyph-name="zero" unicode="0" 
d="M1640 820q0 -341 -240 -581q-241 -239 -580 -239q-342 0 -581 239t-239 581q0 339 239 580q240 240 581 240q336 0 578 -242t242 -578zM1271 820q0 186 -133 318q-132 133 -318 133q-188 0 -320 -132q-131 -131 -131 -319q0 -189 131 -320t320 -131q188 0 319 131
q132 132 132 320z" />
    <glyph glyph-name="one" unicode="1" horiz-adv-x="574" 
d="M471 0h-369v1640h369v-1640z" />
    <glyph glyph-name="two" unicode="2" horiz-adv-x="1523" 
d="M1523 -407h-1410v369l779 489q262 166 262 390q0 180 -127 304t-307 124q-259 0 -378 -230l-322 174q223 427 704 427q329 0 564 -232t235 -561q0 -230 -107 -402q-88 -139 -269 -266q-58 -41 -355 -217h731v-369z" />
    <glyph glyph-name="three" unicode="3" horiz-adv-x="1565" 
d="M1565 348q0 -322 -239 -541q-232 -214 -557 -214q-436 0 -667 375l291 233q111 -239 378 -239q172 0 295 105q129 112 129 281q0 167 -124 279q-120 111 -286 111h-318l318 533h-683v369h1355l-354 -592q226 -96 344 -274.5t118 -425.5z" />
    <glyph glyph-name="four" unicode="4" horiz-adv-x="1538" 
d="M1435 0h-369v307h-1066l591 1333l336 -150l-359 -813h498v963h369v-1640z" />
    <glyph glyph-name="five" unicode="5" horiz-adv-x="1628" 
d="M1628 348q0 -322 -242 -541q-233 -214 -560 -214q-440 0 -668 375l291 233q113 -239 386 -239q170 0 294 106q129 112 129 280q0 170 -130 282q-125 108 -296 108q-148 0 -259 -81q-110 -80 -151 -223l-371 49l201 1157h1213v-369h-895l-32 -226q144 62 309 62
q319 0 548 -218q233 -222 233 -541z" />
    <glyph glyph-name="six" unicode="6" 
d="M1640 408q0 -172 -59 -312t-183 -263q-242 -240 -578 -240q-341 0 -581 240q-239 239 -239 579q0 295 219 558l562 670l283 -238l-148 -178q307 -28 516 -269q208 -235 208 -547zM1271 410q0 188 -131 321q-131 132 -318 132t-320 -132t-133 -319q0 -188 131 -319
q130 -129 320 -129q188 0 319 129q132 129 132 317z" />
    <glyph glyph-name="seven" unicode="7" horiz-adv-x="1410" 
d="M1565 1640l-1231 -2047l-334 193l892 1485h-763v369h1436z" />
    <glyph glyph-name="eight" unicode="8" horiz-adv-x="1563" 
d="M1563 205q0 -285 -257 -459q-225 -153 -525 -153q-301 0 -526 153q-255 174 -255 459q0 357 303 537q-178 154 -178 389q0 242 214 384q188 125 442 125q252 0 440 -126q216 -144 216 -383q0 -237 -179 -389q305 -182 305 -537zM1068 1105q0 102 -96 161q-83 50 -191 50
q-107 0 -190 -50q-97 -60 -97 -161q0 -105 96 -163q80 -52 191 -52q109 0 192 51q95 60 95 164zM1150 240q0 133 -122 213q-106 70 -247 70q-140 0 -246 -70q-123 -80 -123 -213q0 -137 121 -215q103 -67 248 -67t248 67q121 78 121 215z" />
    <glyph glyph-name="nine" unicode="9" 
d="M1640 818q0 -296 -220 -558l-561 -667l-283 238l148 175q-309 29 -517 268q-207 237 -207 548q0 340 239 579t581 239q337 0 579 -242q241 -241 241 -580zM1271 818q0 186 -133 318q-132 133 -318 133q-190 0 -320 -130q-131 -131 -131 -319q0 -186 131 -320
q130 -133 318 -133t321 131q132 130 132 320z" />
    <glyph glyph-name="colon" unicode=":" horiz-adv-x="471" 
d="M420 1045q0 -75 -55 -130q-54 -54 -129 -54t-130 55t-55 129q0 76 54 130q55 55 131 55q77 0 130 -54q54 -54 54 -131zM420 184q0 -75 -55 -130q-54 -54 -129 -54t-130 55t-55 129q0 76 54 130q55 55 131 55q77 0 130 -54q54 -54 54 -131z" />
    <glyph glyph-name="semicolon" unicode=";" horiz-adv-x="471" 
d="M420 1045q0 -75 -55 -130q-54 -54 -129 -54t-130 55t-55 129q0 76 54 130q55 55 131 55q77 0 130 -54q54 -54 54 -131zM420 184q0 -93 -51 -226q-60 -160 -133 -160q32 61 32 113q0 48 -32 89q-75 0 -130 55t-55 129q0 76 54 130q55 55 131 55q77 0 130 -54
q54 -54 54 -131z" />
    <glyph glyph-name="less" unicode="&#x3c;" horiz-adv-x="728" 
d="M677 410h-370l-307 410l307 410h370l-308 -410z" />
    <glyph glyph-name="equal" unicode="=" horiz-adv-x="1127" 
d="M1025 923h-923v286h923v-286zM1025 430h-923v288h923v-288z" />
    <glyph glyph-name="greater" unicode="&#x3e;" horiz-adv-x="728" 
d="M728 820l-308 -410h-369l307 410l-307 410h369z" />
    <glyph glyph-name="question" unicode="?" horiz-adv-x="1490" 
d="M1490 1404q0 -297 -247 -484q-227 -171 -533 -171v-216h-370v580h370q69 0 130 19q238 72 238 266q0 136 -121 215q-104 68 -247 68q-239 0 -337 -158l-373 158q100 177 304 277q189 92 406 92q302 0 529 -169q251 -186 251 -477zM710 184q0 -76 -55 -130
q-54 -54 -130 -54q-75 0 -130 55t-55 129q0 76 54 130q54 55 131 55t131 -54t54 -131z" />
    <glyph glyph-name="at" unicode="@" horiz-adv-x="1332" 
d="M1281 820q0 -255 -179 -436q-179 -179 -435 -179t-437 179q-179 181 -179 436q0 256 179 435q180 180 437 180q255 0 434 -180q180 -180 180 -435zM738 732l-71 197l-70 -197h141zM1066 820q0 167 -116 283q-116 117 -283 117q-168 0 -285 -117q-116 -116 -116 -283
q0 -166 116 -284q118 -116 285 -116q87 0 170 39l-56 150h-229l-35 -92l-130 47l208 567h145l213 -589q113 115 113 278z" />
    <glyph glyph-name="A" unicode="A" horiz-adv-x="1228" 
d="M1484 -282l-346 -125l-238 653h-617l-90 -246l-344 127l548 1513h392zM783 574l-190 525l-192 -525h382z" />
    <glyph glyph-name="B" unicode="B" horiz-adv-x="1589" 
d="M1538 457q0 -193 -157 -328q-150 -129 -346 -129h-933v1640h890q193 0 345 -126q161 -132 161 -321q0 -218 -180 -348q220 -133 220 -388zM1125 1138q0 53 -38 93q-37 40 -92 40h-524v-266h521q55 0 94 39t39 94zM1166 502q0 55 -40 94q-39 40 -93 40h-562v-267h562
q55 0 94 39t39 94z" />
    <glyph glyph-name="C" unicode="C" horiz-adv-x="1332" 
d="M1230 0h-410q-342 0 -581 239t-239 581q0 339 239 580q240 240 581 240h410v-369h-410q-188 0 -320 -132q-131 -131 -131 -319q0 -187 131 -320q133 -131 320 -131h410v-369z" />
    <glyph glyph-name="D" unicode="D" horiz-adv-x="1538" 
d="M1538 820q0 -340 -241 -580q-240 -240 -579 -240h-616v1640h616q338 0 579 -241t241 -579zM1168 820q0 186 -132 318q-132 133 -318 133h-247v-902h247q187 0 318 132q132 132 132 319z" />
    <glyph glyph-name="E" unicode="E" horiz-adv-x="1435" 
d="M1332 0h-1230v1640h1230v-369h-861v-266h656v-369h-656v-267h861v-369z" />
    <glyph glyph-name="F" unicode="F" horiz-adv-x="1353" 
d="M1332 1271h-861v-266h656v-369h-656v-636h-369v1640h1230v-369z" />
    <glyph glyph-name="G" unicode="G" horiz-adv-x="1538" 
d="M1435 -407h-369v407h-246q-342 0 -581 239t-239 581q0 339 239 580q240 240 581 240h615v-369h-615q-188 0 -320 -132q-131 -131 -131 -319q0 -189 131 -320t320 -131h246v267h-246v369h615v-1412z" />
    <glyph glyph-name="H" unicode="H" 
d="M1538 0h-370v636h-697v-636h-369v1640h369v-635h697v635h370v-1640z" />
    <glyph glyph-name="I" unicode="I" horiz-adv-x="574" 
d="M471 0h-369v1640h369v-1640z" />
    <glyph glyph-name="J" unicode="J" horiz-adv-x="923" 
d="M820 307q0 -298 -210 -506q-209 -208 -508 -208v369q147 0 247 100q102 100 102 245v1333h369v-1333z" />
    <glyph glyph-name="K" unicode="K" 
d="M1743 -146l-261 -261l-867 864l-144 -144v-313h-369v1640h369v-805l806 805l261 -261l-663 -661z" />
    <glyph glyph-name="L" unicode="L" horiz-adv-x="1332" 
d="M1332 0h-1230v1640h369v-1271h861v-369z" />
    <glyph glyph-name="M" unicode="M" horiz-adv-x="1753" 
d="M1855 -343l-363 -64l-244 1395l-377 -810l-377 810l-183 -1024l-359 61l281 1615h364l274 -588l275 588h362z" />
    <glyph glyph-name="N" unicode="N" 
d="M1538 0h-370l-697 966v-966h-369v1640h369l697 -965v965h370v-1640z" />
    <glyph glyph-name="O" unicode="O" 
d="M1640 820q0 -341 -240 -581q-241 -239 -580 -239q-342 0 -581 239t-239 581q0 339 239 580q240 240 581 240q336 0 578 -242t242 -578zM1271 820q0 186 -133 318q-132 133 -318 133q-188 0 -320 -132q-131 -131 -131 -319q0 -189 131 -320t320 -131q188 0 319 131
q132 132 132 320z" />
    <glyph glyph-name="P" unicode="P" horiz-adv-x="1558" 
d="M1538 1025q0 -256 -180 -436q-179 -179 -435 -179h-452v-410h-369v1640h821q256 0 435 -180q180 -179 180 -435zM1168 1025q0 99 -73 172q-74 74 -172 74h-452v-492h452q101 0 173 72q72 73 72 174z" />
    <glyph glyph-name="Q" unicode="Q" horiz-adv-x="1692" 
d="M1692 -146l-261 -261l-431 427q-85 -20 -180 -20q-342 0 -581 239t-239 581q0 339 239 580q240 240 581 240q336 0 578 -242t242 -578q0 -380 -291 -627zM1271 820q0 186 -133 318q-132 133 -318 133q-188 0 -320 -132q-131 -131 -131 -319q0 -189 131 -320t320 -131
q188 0 319 131q132 132 132 320z" />
    <glyph glyph-name="R" unicode="R" horiz-adv-x="1589" 
d="M1552 -144l-261 -263l-820 817v-410h-369v1640h821q256 0 435 -180q180 -179 180 -435q0 -237 -157 -410q-156 -174 -391 -201zM1168 1025q0 99 -73 172q-74 74 -172 74h-452v-492h452q101 0 173 72q72 73 72 174z" />
    <glyph glyph-name="S" unicode="S" horiz-adv-x="871" 
d="M820 369q0 -330 -470 -431q-104 -23 -207 -27l-82 376q106 3 192 23q136 33 136 100q0 110 -88 273q-41 72 -81 143t-81 143q-88 172 -88 302q0 331 470 435q106 24 207 27l61 -380q-93 0 -181 -24q-127 -33 -127 -99q0 -97 89 -260l162 -291q88 -176 88 -310z" />
    <glyph glyph-name="T" unicode="T" horiz-adv-x="1435" 
d="M1435 1271h-533v-1271h-369v1271h-533v369h1435v-369z" />
    <glyph glyph-name="U" unicode="U" horiz-adv-x="1538" 
d="M1486 718q0 -300 -209 -509t-508 -209q-300 0 -509 209t-209 509v922h369v-922q0 -145 102 -247t247 -102t246 102q102 102 102 247v922h369v-922z" />
    <glyph glyph-name="V" unicode="V" horiz-adv-x="1228" 
d="M1484 1925l-695 -1925h-392l-548 1512l344 128l400 -1098l545 1508z" />
    <glyph glyph-name="W" unicode="W" horiz-adv-x="1886" 
d="M2142 1925l-695 -1925h-391l-133 365l-134 -365h-392l-548 1512l344 128l402 -1100l131 364l-222 608l347 128l72 -197l71 197l346 -128l-221 -608l131 -362l546 1508z" />
    <glyph glyph-name="X" unicode="X" horiz-adv-x="1385" 
d="M1642 -196l-302 -211l-637 907l-402 -565l-301 208l477 677l-477 686l301 212l402 -576l381 546l301 -212l-458 -656z" />
    <glyph glyph-name="Y" unicode="Y" horiz-adv-x="1328" 
d="M1585 1428l-1290 -1835l-298 211l518 742l-614 882l298 212l541 -773l543 773z" />
    <glyph glyph-name="Z" unicode="Z" 
d="M1538 0h-1436l763 1271h-763v369h1436l-763 -1271h763v-369z" />
    <glyph glyph-name="bracketleft" unicode="[" horiz-adv-x="984" 
d="M882 -202h-780v2047h780v-369h-411v-1312h411v-366z" />
    <glyph glyph-name="backslash" unicode="\" horiz-adv-x="1050" 
d="M1050 -77l-349 -127l-701 1924l348 127z" />
    <glyph glyph-name="bracketright" unicode="]" horiz-adv-x="984" 
d="M882 -202h-780v366h411v1312h-411v369h780v-2047z" />
    <glyph glyph-name="asciicircum" unicode="^" horiz-adv-x="923" 
d="M871 1517l-82 -185l-328 103l-328 -103l-82 185l328 123h165z" />
    <glyph glyph-name="underscore" unicode="_" horiz-adv-x="923" 
d="M923 -407h-923v287h923v-287z" />
    <glyph glyph-name="grave" unicode="`" horiz-adv-x="794" 
d="M742 1845l-20 -102h-671v307z" />
    <glyph glyph-name="a" unicode="a" horiz-adv-x="1105" 
d="M1336 -253l-313 -113l-213 587h-556l-80 -221l-308 115l492 1361h352zM706 517l-173 471l-173 -471h346z" />
    <glyph glyph-name="b" unicode="b" horiz-adv-x="1428" 
d="M1383 412q0 -175 -141 -296q-134 -116 -311 -116h-839v1476h802q173 0 310 -113q145 -118 145 -289q0 -196 -162 -313q196 -120 196 -349zM1013 1023q0 46 -35 84q-34 37 -81 37h-473v-240h470q49 0 84 35t35 84zM1050 451q0 49 -34 84q-34 37 -82 37h-510v-240h507
q49 0 84 35t35 84z" />
    <glyph glyph-name="c" unicode="c" horiz-adv-x="1199" 
d="M1107 0h-369q-310 0 -524 214t-214 524q0 307 215 522q214 216 523 216h369v-332h-369q-168 0 -287 -119t-119 -287t119 -287t287 -119h369v-332z" />
    <glyph glyph-name="d" unicode="d" horiz-adv-x="1383" 
d="M1383 738q0 -308 -215 -523t-522 -215h-554v1476h554q305 0 521 -217q216 -216 216 -521zM1052 738q0 168 -119 287t-287 119h-222v-812h222q169 0 287 118q119 119 119 288z" />
    <glyph glyph-name="e" unicode="e" horiz-adv-x="1291" 
d="M1199 0h-1107v1476h1107v-332h-775v-240h591v-332h-591v-240h775v-332z" />
    <glyph glyph-name="f" unicode="f" horiz-adv-x="1218" 
d="M1199 1144h-775v-240h591v-332h-591v-572h-332v1476h1107v-332z" />
    <glyph glyph-name="g" unicode="g" horiz-adv-x="1383" 
d="M1291 -366h-332v366h-221q-310 0 -524 214t-214 524q0 307 215 522q214 216 523 216h553v-332h-553q-169 0 -288 -119q-118 -118 -118 -287q0 -168 119 -287t287 -119h221v240h-221v332h553v-1270z" />
    <glyph glyph-name="h" unicode="h" horiz-adv-x="1476" 
d="M1383 0h-331v572h-628v-572h-332v1476h332v-572h628v572h331v-1476z" />
    <glyph glyph-name="i" unicode="i" horiz-adv-x="517" 
d="M424 0h-332v1476h332v-1476z" />
    <glyph glyph-name="j" unicode="j" horiz-adv-x="830" 
d="M738 276q0 -267 -190 -454q-190 -188 -456 -188v332q130 0 222 90t92 220v1200h332v-1200z" />
    <glyph glyph-name="k" unicode="k" horiz-adv-x="1476" 
d="M1569 -132l-235 -234l-780 778l-130 -129v-283h-332v1476h332v-725l726 725l233 -234l-596 -596z" />
    <glyph glyph-name="l" unicode="l" horiz-adv-x="1199" 
d="M1199 0h-1107v1476h332v-1144h775v-332z" />
    <glyph glyph-name="m" unicode="m" horiz-adv-x="1577" 
d="M1669 -308l-327 -58l-219 1256l-340 -730l-339 730l-163 -922l-323 55l253 1453h327l245 -529l248 529h326z" />
    <glyph glyph-name="n" unicode="n" horiz-adv-x="1476" 
d="M1383 0h-331l-628 869v-869h-332v1476h332l628 -869v869h331v-1476z" />
    <glyph glyph-name="o" unicode="o" horiz-adv-x="1476" 
d="M1476 738q0 -309 -216 -523q-215 -215 -522 -215q-310 0 -524 214t-214 524q0 307 215 522q214 216 523 216q304 0 521 -217t217 -521zM1144 738q0 168 -119 287t-287 119q-169 0 -288 -119q-118 -118 -118 -287q0 -168 119 -287t287 -119q169 0 287 118q119 119 119 288
z" />
    <glyph glyph-name="p" unicode="p" horiz-adv-x="1402" 
d="M1383 923q0 -229 -161 -392q-161 -162 -392 -162h-406v-369h-332v1476h738q228 0 390 -163q163 -162 163 -390zM1052 923q0 90 -66 155q-66 66 -156 66h-406v-443h406q91 0 156 65q66 66 66 157z" />
    <glyph glyph-name="q" unicode="q" horiz-adv-x="1521" 
d="M1521 -132l-234 -234l-387 384q-80 -18 -162 -18q-310 0 -524 214t-214 524q0 307 215 522q214 216 523 216q304 0 521 -217t217 -521q0 -340 -263 -564zM1144 738q0 168 -119 287t-287 119q-169 0 -288 -119q-118 -118 -118 -287q0 -168 119 -287t287 -119
q169 0 287 118q119 119 119 288z" />
    <glyph glyph-name="r" unicode="r" horiz-adv-x="1428" 
d="M1396 -130l-234 -236l-738 735v-369h-332v1476h738q228 0 390 -163q163 -162 163 -390q0 -213 -141 -370q-139 -157 -350 -180zM1052 923q0 90 -66 155q-66 66 -156 66h-406v-443h406q91 0 156 65q66 66 66 157z" />
    <glyph glyph-name="s" unicode="s" horiz-adv-x="783" 
d="M738 332q0 -297 -423 -388q-107 -23 -186 -23l-74 337q295 12 295 111q0 102 -79 248l-147 255q-79 152 -79 272q0 303 424 391q107 23 185 23l56 -340q-87 0 -165 -21q-113 -30 -113 -90q0 -87 79 -232q37 -66 74 -131.5t74 -131.5q79 -159 79 -280z" />
    <glyph glyph-name="t" unicode="t" horiz-adv-x="1291" 
d="M1291 1144h-479v-1144h-333v1144h-479v332h1291v-332z" />
    <glyph glyph-name="u" unicode="u" horiz-adv-x="1383" 
d="M1336 646q0 -272 -187 -459t-458 -187q-272 0 -459 187t-187 459v830h332v-830q0 -130 92 -222t222 -92q129 0 221 92q93 93 93 222v830h331v-830z" />
    <glyph glyph-name="v" unicode="v" horiz-adv-x="1105" 
d="M1336 1733l-626 -1733h-352l-492 1361l308 115l359 -989l490 1358z" />
    <glyph glyph-name="w" unicode="w" horiz-adv-x="1698" 
d="M1927 1733l-626 -1733h-352l-119 328l-120 -328h-352l-492 1361l308 115l362 -991l118 329l-201 547l312 115l65 -177l64 177l313 -115l-200 -547l118 -327l491 1358z" />
    <glyph glyph-name="x" unicode="x" horiz-adv-x="1246" 
d="M1478 -175l-271 -191l-573 817l-364 -509l-270 187l430 609l-430 617l270 191l364 -519l342 492l270 -191l-411 -590z" />
    <glyph glyph-name="y" unicode="y" horiz-adv-x="1195" 
d="M1426 1285l-1160 -1651l-269 191l466 664l-552 796l267 191l489 -695l487 695z" />
    <glyph glyph-name="z" unicode="z" horiz-adv-x="1476" 
d="M1383 0h-1291l687 1144h-687v332h1291l-686 -1144h686v-332z" />
    <glyph glyph-name="braceleft" unicode="{" horiz-adv-x="1107" 
d="M1005 -202h-410q-156 0 -263 107t-107 259v349q0 85 -60 145t-145 60v205q85 0 145 60t60 144v349q0 154 107 261q108 108 263 108h410v-369h-349q-61 0 -61 -62v-389q0 -85 -61 -145q-60 -60 -145 -60q85 0 145 -60q61 -60 61 -145v-390q0 -61 61 -61h349v-366z" />
    <glyph glyph-name="bar" unicode="|" horiz-adv-x="574" 
d="M471 -202h-369v2047h369v-2047z" />
    <glyph glyph-name="braceright" unicode="}" horiz-adv-x="1107" 
d="M1086 718q-84 0 -144 -60t-60 -145v-349q0 -153 -108 -259q-109 -107 -261 -107h-411v366h349q62 0 62 61v390q0 85 60 145t145 60q-85 0 -145 60t-60 145v389q0 62 -62 62h-349v369h411q153 0 261 -109q108 -110 108 -260v-349q0 -84 60 -144t144 -60v-205z" />
    <glyph glyph-name="asciitilde" unicode="~" horiz-adv-x="1025" 
d="M974 1394q-133 -103 -307 -103q-56 0 -155 51q-98 52 -154 52q-171 0 -307 -103v247q135 102 307 102q56 0 154 -51q99 -51 155 -51q173 0 307 102v-246z" />
    <glyph glyph-name="quotesinglbase" horiz-adv-x="471" 
d="M420 184q0 -93 -51 -226q-60 -160 -133 -160q32 61 32 113q0 48 -32 89q-75 0 -130 55t-55 129q0 76 54 130q55 55 131 55q77 0 130 -54q54 -54 54 -131z" />
    <glyph glyph-name="quotesinglbase" unicode="&#x201a;" horiz-adv-x="471" 
d="M420 184q0 -93 -51 -226q-60 -160 -133 -160q32 61 32 113q0 48 -32 89q-75 0 -130 55t-55 129q0 76 54 130q55 55 131 55q77 0 130 -54q54 -54 54 -131z" />
    <glyph glyph-name="quotedblbase" horiz-adv-x="882" 
d="M830 184q0 -95 -51 -228q-62 -158 -133 -158q33 60 33 113q0 48 -33 89q-75 0 -130 55t-55 129q0 76 54 130q55 55 131 55q77 0 130 -54q54 -54 54 -131zM420 184q0 -93 -51 -226q-60 -160 -133 -160q32 61 32 113q0 48 -32 89q-75 0 -130 55t-55 129q0 76 54 130
q55 55 131 55q77 0 130 -54q54 -54 54 -131z" />
    <glyph glyph-name="quotedblbase" unicode="&#x201e;" horiz-adv-x="882" 
d="M830 184q0 -95 -51 -228q-62 -158 -133 -158q33 60 33 113q0 48 -33 89q-75 0 -130 55t-55 129q0 76 54 130q55 55 131 55q77 0 130 -54q54 -54 54 -131zM420 184q0 -93 -51 -226q-60 -160 -133 -160q32 61 32 113q0 48 -32 89q-75 0 -130 55t-55 129q0 76 54 130
q55 55 131 55q77 0 130 -54q54 -54 54 -131z" />
    <glyph glyph-name="ellipsis" unicode="&#x85;" horiz-adv-x="1291" 
d="M1240 184q0 -75 -55 -130q-54 -54 -129 -54t-130 55t-55 129q0 76 54 130q55 55 131 55q77 0 130 -54q54 -54 54 -131zM830 184q0 -75 -55 -130q-54 -54 -129 -54t-130 55t-55 129q0 76 54 130q55 55 131 55q77 0 130 -54q54 -54 54 -131zM420 184q0 -75 -55 -130
q-54 -54 -129 -54t-130 55t-55 129q0 76 54 130q55 55 131 55q77 0 130 -54q54 -54 54 -131z" />
    <glyph glyph-name="ellipsis" unicode="&#x2026;" horiz-adv-x="1291" 
d="M1240 184q0 -75 -55 -130q-54 -54 -129 -54t-130 55t-55 129q0 76 54 130q55 55 131 55q77 0 130 -54q54 -54 54 -131zM830 184q0 -75 -55 -130q-54 -54 -129 -54t-130 55t-55 129q0 76 54 130q55 55 131 55q77 0 130 -54q54 -54 54 -131zM420 184q0 -75 -55 -130
q-54 -54 -129 -54t-130 55t-55 129q0 76 54 130q55 55 131 55q77 0 130 -54q54 -54 54 -131z" />
    <glyph glyph-name="circumflex" horiz-adv-x="923" 
d="M871 1927l-82 -184l-328 102l-328 -102l-82 184l328 123h165z" />
    <glyph glyph-name="circumflex" unicode="&#x2c6;" horiz-adv-x="923" 
d="M871 1927l-82 -184l-328 102l-328 -102l-82 184l328 123h165z" />
    <glyph glyph-name="perthousand" horiz-adv-x="2833" 
d="M2782 410q0 -171 -120 -291q-119 -119 -290 -119q-174 0 -292 118t-118 292q0 172 119 291q121 119 291 119q168 0 289 -121q121 -120 121 -289zM1921 410q0 -171 -120 -291q-119 -119 -291 -119t-291 119q-118 118 -118 291q0 171 119 290q120 120 290 120t290 -120
q121 -120 121 -290zM1510 1720l-700 -1924l-349 127l701 1924zM871 1230q0 -172 -119 -291t-291 -119q-174 0 -292 118t-118 292q0 172 119 291t291 119q171 0 290 -120q120 -120 120 -290zM2535 410q0 67 -48 115q-48 49 -115 49q-68 0 -116 -48t-48 -116t48 -116t116 -48
q67 0 115 48t48 116zM1675 410q0 68 -48 116t-117 48q-67 0 -115 -49q-48 -48 -48 -115t48 -116q48 -48 115 -48q69 0 117 48t48 116zM626 1230q0 68 -48 116t-117 48q-67 0 -116 -49q-48 -48 -48 -115q0 -66 49 -115t115 -49q68 0 116 48q49 49 49 116z" />
    <glyph glyph-name="perthousand" unicode="&#x2030;" horiz-adv-x="2833" 
d="M2782 410q0 -171 -120 -291q-119 -119 -290 -119q-174 0 -292 118t-118 292q0 172 119 291q121 119 291 119q168 0 289 -121q121 -120 121 -289zM1921 410q0 -171 -120 -291q-119 -119 -291 -119t-291 119q-118 118 -118 291q0 171 119 290q120 120 290 120t290 -120
q121 -120 121 -290zM1510 1720l-700 -1924l-349 127l701 1924zM871 1230q0 -172 -119 -291t-291 -119q-174 0 -292 118t-118 292q0 172 119 291t291 119q171 0 290 -120q120 -120 120 -290zM2535 410q0 67 -48 115q-48 49 -115 49q-68 0 -116 -48t-48 -116t48 -116t116 -48
q67 0 115 48t48 116zM1675 410q0 68 -48 116t-117 48q-67 0 -115 -49q-48 -48 -48 -115t48 -116q48 -48 115 -48q69 0 117 48t48 116zM626 1230q0 68 -48 116t-117 48q-67 0 -116 -49q-48 -48 -48 -115q0 -66 49 -115t115 -49q68 0 116 48q49 49 49 116z" />
    <glyph glyph-name="Scaron" horiz-adv-x="871" 
d="M847 1968l-328 -123h-165l-327 123l82 184l327 -102l329 102zM820 369q0 -330 -470 -431q-104 -23 -207 -27l-82 376q106 3 192 23q136 33 136 100q0 110 -88 273q-41 72 -81 143t-81 143q-88 172 -88 302q0 331 470 435q106 24 207 27l61 -380q-93 0 -181 -24
q-127 -33 -127 -99q0 -97 89 -260l162 -291q88 -176 88 -310z" />
    <glyph glyph-name="Scaron" unicode="&#x160;" horiz-adv-x="871" 
d="M847 1968l-328 -123h-165l-327 123l82 184l327 -102l329 102zM820 369q0 -330 -470 -431q-104 -23 -207 -27l-82 376q106 3 192 23q136 33 136 100q0 110 -88 273q-41 72 -81 143t-81 143q-88 172 -88 302q0 331 470 435q106 24 207 27l61 -380q-93 0 -181 -24
q-127 -33 -127 -99q0 -97 89 -260l162 -291q88 -176 88 -310z" />
    <glyph glyph-name="guilsinglleft" horiz-adv-x="728" 
d="M677 410h-370l-307 410l307 410h370l-308 -410z" />
    <glyph glyph-name="guilsinglleft" unicode="&#x2039;" horiz-adv-x="728" 
d="M677 410h-370l-307 410l307 410h370l-308 -410z" />
    <glyph glyph-name="OE" horiz-adv-x="2604" 
d="M2501 0h-1230v135q-206 -135 -451 -135q-342 0 -581 239t-239 581q0 339 239 580q240 240 581 240q246 0 451 -136v136h1230v-369h-861v-266h656v-369h-656v-267h861v-369zM1271 820q0 186 -133 318q-132 133 -318 133q-188 0 -320 -132q-131 -131 -131 -319
q0 -189 131 -320t320 -131q188 0 319 131q132 132 132 320z" />
    <glyph glyph-name="OE" unicode="&#x152;" horiz-adv-x="2604" 
d="M2501 0h-1230v135q-206 -135 -451 -135q-342 0 -581 239t-239 581q0 339 239 580q240 240 581 240q246 0 451 -136v136h1230v-369h-861v-266h656v-369h-656v-267h861v-369zM1271 820q0 186 -133 318q-132 133 -318 133q-188 0 -320 -132q-131 -131 -131 -319
q0 -189 131 -320t320 -131q188 0 319 131q132 132 132 320z" />
    <glyph glyph-name="quoteleft" horiz-adv-x="471" 
d="M420 1250q0 -75 -55 -130q-54 -54 -129 -54t-130 55t-55 129q0 93 50 229q62 161 135 161q-33 -60 -33 -113q0 -49 33 -92q77 0 130 -54q54 -54 54 -131z" />
    <glyph glyph-name="quoteleft" unicode="&#x2018;" horiz-adv-x="471" 
d="M420 1250q0 -75 -55 -130q-54 -54 -129 -54t-130 55t-55 129q0 93 50 229q62 161 135 161q-33 -60 -33 -113q0 -49 33 -92q77 0 130 -54q54 -54 54 -131z" />
    <glyph glyph-name="quoteright" horiz-adv-x="471" 
d="M420 1455q0 -93 -51 -228q-60 -161 -133 -161q32 61 32 113q0 46 -32 92q-75 0 -130 55t-55 129t54 130q55 55 131 55t130 -55q54 -54 54 -130z" />
    <glyph glyph-name="quoteright" unicode="&#x2019;" horiz-adv-x="471" 
d="M420 1455q0 -93 -51 -228q-60 -161 -133 -161q32 61 32 113q0 46 -32 92q-75 0 -130 55t-55 129t54 130q55 55 131 55t130 -55q54 -54 54 -130z" />
    <glyph glyph-name="quotedblleft" horiz-adv-x="882" 
d="M830 1250q0 -75 -55 -130q-54 -54 -129 -54t-130 55t-55 129q0 97 52 229q60 161 133 161q-33 -62 -33 -113q0 -47 33 -92q77 0 130 -54q54 -54 54 -131zM420 1250q0 -75 -55 -130q-54 -54 -129 -54t-130 55t-55 129q0 93 50 229q62 161 135 161q-33 -60 -33 -113
q0 -49 33 -92q77 0 130 -54q54 -54 54 -131z" />
    <glyph glyph-name="quotedblleft" unicode="&#x201c;" horiz-adv-x="882" 
d="M830 1250q0 -75 -55 -130q-54 -54 -129 -54t-130 55t-55 129q0 97 52 229q60 161 133 161q-33 -62 -33 -113q0 -47 33 -92q77 0 130 -54q54 -54 54 -131zM420 1250q0 -75 -55 -130q-54 -54 -129 -54t-130 55t-55 129q0 93 50 229q62 161 135 161q-33 -60 -33 -113
q0 -49 33 -92q77 0 130 -54q54 -54 54 -131z" />
    <glyph glyph-name="quotedblright" horiz-adv-x="882" 
d="M830 1455q0 -95 -51 -230q-60 -159 -133 -159q33 60 33 113q0 47 -33 92q-75 0 -130 55t-55 129q0 75 55 130t130 55q76 0 130 -55q54 -54 54 -130zM420 1455q0 -93 -51 -228q-60 -161 -133 -161q32 61 32 113q0 46 -32 92q-75 0 -130 55t-55 129t54 130q55 55 131 55
t130 -55q54 -54 54 -130z" />
    <glyph glyph-name="quotedblright" unicode="&#x201d;" horiz-adv-x="882" 
d="M830 1455q0 -95 -51 -230q-60 -159 -133 -159q33 60 33 113q0 47 -33 92q-75 0 -130 55t-55 129q0 75 55 130t130 55q76 0 130 -55q54 -54 54 -130zM420 1455q0 -93 -51 -228q-60 -161 -133 -161q32 61 32 113q0 46 -32 92q-75 0 -130 55t-55 129t54 130q55 55 131 55
t130 -55q54 -54 54 -130z" />
    <glyph glyph-name="bullet" horiz-adv-x="1127" 
d="M1076 820q0 -215 -149 -364t-363 -149q-213 0 -364 149q-149 151 -149 364q0 215 148 363q149 149 365 149q214 0 363 -149t149 -363z" />
    <glyph glyph-name="bullet" unicode="&#x2022;" horiz-adv-x="1127" 
d="M1076 820q0 -215 -149 -364t-363 -149q-213 0 -364 149q-149 151 -149 364q0 215 148 363q149 149 365 149q214 0 363 -149t149 -363z" />
    <glyph glyph-name="endash" horiz-adv-x="1025" 
d="M923 677h-821v287h821v-287z" />
    <glyph glyph-name="endash" unicode="&#x2013;" horiz-adv-x="1025" 
d="M923 677h-821v287h821v-287z" />
    <glyph glyph-name="emdash" horiz-adv-x="1332" 
d="M1230 677h-1128v287h1128v-287z" />
    <glyph glyph-name="emdash" unicode="&#x2014;" horiz-adv-x="1332" 
d="M1230 677h-1128v287h1128v-287z" />
    <glyph glyph-name="tilde" horiz-adv-x="1025" 
d="M974 1907q-133 -103 -307 -103q-56 0 -155 51q-98 52 -154 52q-171 0 -307 -103v246q135 102 307 102q56 0 154 -51q99 -51 155 -51q173 0 307 102v-245z" />
    <glyph glyph-name="tilde" unicode="&#x2dc;" horiz-adv-x="1025" 
d="M974 1907q-133 -103 -307 -103q-56 0 -155 51q-98 52 -154 52q-171 0 -307 -103v246q135 102 307 102q56 0 154 -51q99 -51 155 -51q173 0 307 102v-245z" />
    <glyph glyph-name="trademark" horiz-adv-x="1248" 
d="M1197 896l-135 -25l-92 525l-142 -303l-141 303l-68 -385l-138 24l85 467h-177v-477h-137v477h-201v138h675l102 -222l103 222h137z" />
    <glyph glyph-name="trademark" unicode="&#x2122;" horiz-adv-x="1248" 
d="M1197 896l-135 -25l-92 525l-142 -303l-141 303l-68 -385l-138 24l85 467h-177v-477h-137v477h-201v138h675l102 -222l103 222h137z" />
    <glyph glyph-name="scaron" horiz-adv-x="783" 
d="M763 1771l-296 -110h-148l-294 110l73 166l295 -92l296 92zM738 332q0 -297 -423 -388q-107 -23 -186 -23l-74 337q295 12 295 111q0 102 -79 248l-147 255q-79 152 -79 272q0 303 424 391q107 23 185 23l56 -340q-87 0 -165 -21q-113 -30 -113 -90q0 -87 79 -232
q37 -66 74 -131.5t74 -131.5q79 -159 79 -280z" />
    <glyph glyph-name="scaron" unicode="&#x161;" horiz-adv-x="783" 
d="M763 1771l-296 -110h-148l-294 110l73 166l295 -92l296 92zM738 332q0 -297 -423 -388q-107 -23 -186 -23l-74 337q295 12 295 111q0 102 -79 248l-147 255q-79 152 -79 272q0 303 424 391q107 23 185 23l56 -340q-87 0 -165 -21q-113 -30 -113 -90q0 -87 79 -232
q37 -66 74 -131.5t74 -131.5q79 -159 79 -280z" />
    <glyph glyph-name="guilsinglright" horiz-adv-x="728" 
d="M728 820l-308 -410h-369l307 410l-307 410h369z" />
    <glyph glyph-name="guilsinglright" unicode="&#x203a;" horiz-adv-x="728" 
d="M728 820l-308 -410h-369l307 410l-307 410h369z" />
    <glyph glyph-name="oe" horiz-adv-x="2343" 
d="M2251 0h-1107v121q-185 -121 -406 -121q-310 0 -524 214t-214 524q0 307 215 522q214 216 523 216q221 0 406 -121v121h1107v-332h-775v-240h590v-332h-590v-240h775v-332zM1144 738q0 168 -119 287t-287 119q-169 0 -288 -119q-118 -118 -118 -287q0 -168 119 -287
t287 -119q169 0 287 118q119 119 119 288z" />
    <glyph glyph-name="oe" unicode="&#x153;" horiz-adv-x="2343" 
d="M2251 0h-1107v121q-185 -121 -406 -121q-310 0 -524 214t-214 524q0 307 215 522q214 216 523 216q221 0 406 -121v121h1107v-332h-775v-240h590v-332h-590v-240h775v-332zM1144 738q0 168 -119 287t-287 119q-169 0 -288 -119q-118 -118 -118 -287q0 -168 119 -287
t287 -119q169 0 287 118q119 119 119 288z" />
    <glyph glyph-name="Ydieresis" horiz-adv-x="1328" 
d="M1115 1896q0 -63 -45 -108t-108 -45t-109 45q-45 45 -45 108t45 108q46 46 109 46t108 -46q45 -45 45 -108zM685 1896q0 -63 -46 -108q-45 -45 -108 -45q-64 0 -109 45t-45 108t45 108q45 46 109 46q62 0 108 -46t46 -108zM1585 1428l-1290 -1835l-298 211l518 742
l-614 882l298 212l541 -773l543 773z" />
    <glyph glyph-name="Ydieresis" unicode="&#x178;" horiz-adv-x="1328" 
d="M1115 1896q0 -63 -45 -108t-108 -45t-109 45q-45 45 -45 108t45 108q46 46 109 46t108 -46q45 -45 45 -108zM685 1896q0 -63 -46 -108q-45 -45 -108 -45q-64 0 -109 45t-45 108t45 108q45 46 109 46q62 0 108 -46t46 -108zM1585 1428l-1290 -1835l-298 211l518 742
l-614 882l298 212l541 -773l543 773z" />
    <glyph glyph-name="nonbreakingspace" unicode="&#xa0;" horiz-adv-x="923" 
 />
    <glyph glyph-name="exclamdown" unicode="&#xa1;" horiz-adv-x="574" 
d="M471 1455q0 -75 -55 -130q-54 -54 -129 -54t-130 55t-55 129t54 130q55 55 131 55t130 -55q54 -54 54 -130zM471 -407h-369v1514h369v-1514z" />
    <glyph glyph-name="cent" unicode="&#xa2;" horiz-adv-x="1086" 
d="M1035 164h-338v-164h-224v209q-191 73 -307 240q-115 166 -115 371q0 204 115 370q115 165 307 241v209h224v-164h338v-295h-327q-150 0 -256 -106q-106 -105 -106 -255q0 -151 105 -256t257 -105h327v-295z" />
    <glyph glyph-name="yen" unicode="&#xa5;" horiz-adv-x="1482" 
d="M1585 1428l-423 -602h283v-280h-488v-104h463v-284h-463v-158h-442v158h-476v284h476v104h-476v280h278l-416 602l298 212l541 -773l543 773z" />
    <glyph glyph-name="dieresis" unicode="&#xa8;" horiz-adv-x="841" 
d="M789 1896q0 -63 -45 -108t-108 -45t-109 45t-46 108t46 108q46 46 109 46t108 -46q45 -45 45 -108zM358 1896q0 -63 -45 -108t-108 -45t-109 45q-45 45 -45 108t45 108q46 46 109 46t108 -46q45 -45 45 -108z" />
    <glyph glyph-name="copyright" unicode="&#xa9;" horiz-adv-x="718" 
d="M667 307q0 -127 -91 -217q-92 -90 -218 -90q-127 0 -218 89q-89 91 -89 218t89 218q90 90 218 90q127 0 218 -91q91 -90 91 -217zM560 307q0 83 -60 142q-59 59 -142 59q-82 0 -140 -60q-58 -58 -58 -141q0 -82 58 -140t140 -58q83 0 142 58q60 58 60 140zM436 154h-78
q-63 0 -108 45t-45 108t45 108q45 46 108 46h78v-70h-65t-7 1q-42 -2 -66 -26t-24 -59q0 -34 23.5 -58t65.5 -27q-8 1 10 1h63v-69z" />
    <glyph glyph-name="guillemotleft" unicode="&#xab;" horiz-adv-x="1199" 
d="M1148 410h-369l-308 410l308 410h369l-307 -410zM677 410h-370l-307 410l307 410h370l-308 -410z" />
    <glyph glyph-name="minus" unicode="&#xad;" horiz-adv-x="1127" 
d="M1025 677h-923v287h923v-287z" />
    <glyph glyph-name="registered" unicode="&#xae;" horiz-adv-x="718" 
d="M667 307q0 -127 -91 -217q-92 -90 -218 -90q-127 0 -218 89q-89 91 -89 218t89 218q90 90 218 90q127 0 218 -91q91 -90 91 -217zM430 344q0 47 -47 47h-84v-92h84q47 0 47 45zM560 307q0 83 -60 142q-59 59 -142 59q-82 0 -140 -60q-58 -58 -58 -141q0 -96 69 -153v305
h154q48 0 82 -34q35 -33 35 -81q0 -21 -8 -40.5t-22 -35t-33 -26t-40 -13.5l82 -82q81 58 81 160zM414 115l-115 114v-77h-66q52 -43 125 -43q33 0 56 6z" />
    <glyph glyph-name="macron" unicode="&#xaf;" horiz-adv-x="1127" 
d="M1025 1353h-923v287h923v-287z" />
    <glyph glyph-name="degree" unicode="&#xb0;" horiz-adv-x="508" 
d="M457 1437q0 -84 -60 -144q-59 -59 -143 -59q-83 0 -143 60t-60 143q0 84 59 143q60 60 144 60t143 -60q60 -59 60 -143zM354 1437q0 21 -8 39.5t-21.5 32t-31.5 21.5t-39 8t-39.5 -8t-32 -21.5t-21 -32t-7.5 -39.5q0 -43 28.5 -72t71.5 -29q21 0 39 8t31.5 22t21.5 32
t8 39z" />
    <glyph glyph-name="plusminus" unicode="&#xb1;" horiz-adv-x="1127" 
d="M1025 810h-317v-318h-288v318h-318v287h318v317h288v-317h317v-287zM1025 0h-923v287h923v-287z" />
    <glyph glyph-name="acute" unicode="&#xb4;" horiz-adv-x="794" 
d="M742 1743h-670l-21 102l691 205v-307z" />
    <glyph glyph-name="paragraph" unicode="&#xb6;" horiz-adv-x="1743" 
d="M1743 1271h-205v-1271h-370v1271h-163v-1271h-369v410q-256 0 -436 180t-180 435t180 435t436 180h1107v-369zM636 779v492q-101 0 -174 -73q-73 -72 -73 -173q0 -102 72 -174q73 -72 175 -72z" />
    <glyph glyph-name="periodcentered" unicode="&#xb7;" horiz-adv-x="471" 
d="M420 820q0 -75 -55 -130q-54 -54 -129 -54t-130 55t-55 129q0 76 54 130q55 55 131 55q77 0 130 -54q54 -54 54 -131z" />
    <glyph glyph-name="guillemotright" unicode="&#xbb;" horiz-adv-x="1199" 
d="M1199 820l-307 -410h-369l307 410l-307 410h369zM728 820l-308 -410h-369l307 410l-307 410h369z" />
    <glyph glyph-name="questiondown" unicode="&#xbf;" horiz-adv-x="1490" 
d="M1150 1455q0 -75 -55 -130q-54 -54 -129 -54t-130 55t-55 129t54 130q55 55 131 55t130 -55q54 -54 54 -130zM1490 -38q-101 -176 -304 -276q-191 -93 -405 -93q-301 0 -530 169q-251 185 -251 474q0 298 247 485q226 171 534 171v215h369v-580h-369q-98 0 -191 -41
q-103 -47 -147 -125q-31 -55 -31 -119q0 -136 121 -214q103 -66 248 -66q238 0 336 155z" />
    <glyph glyph-name="Agrave" unicode="&#xc0;" horiz-adv-x="1228" 
d="M755 1845l-21 -102h-671v307zM1484 -282l-346 -125l-238 653h-617l-90 -246l-344 127l548 1513h392zM783 574l-190 525l-192 -525h382z" />
    <glyph glyph-name="Aacute" unicode="&#xc1;" horiz-adv-x="1228" 
d="M1164 1743h-670l-21 102l691 205v-307zM1484 -282l-346 -125l-238 653h-617l-90 -246l-344 127l548 1513h392zM783 574l-190 525l-192 -525h382z" />
    <glyph glyph-name="Acircumflex" unicode="&#xc2;" horiz-adv-x="1228" 
d="M1025 1927l-82 -184l-328 102l-328 -102l-82 184l328 123h164zM1484 -282l-346 -125l-238 653h-617l-90 -246l-344 127l548 1513h392zM783 574l-190 525l-192 -525h382z" />
    <glyph glyph-name="Atilde" unicode="&#xc3;" horiz-adv-x="1228" 
d="M1076 1907q-133 -103 -307 -103q-55 0 -154 51q-98 52 -154 52q-171 0 -307 -103v246q135 102 307 102q56 0 154 -51q97 -51 154 -51q173 0 307 102v-245zM1484 -282l-346 -125l-238 653h-617l-90 -246l-344 127l548 1513h392zM783 574l-190 525l-192 -525h382z" />
    <glyph glyph-name="Adieresis" unicode="&#xc4;" horiz-adv-x="1228" 
d="M984 1896q0 -63 -46 -108q-45 -45 -108 -45t-108 45t-45 108t45 108q45 46 108 46q62 0 108 -46t46 -108zM554 1896q0 -63 -46 -108q-47 -45 -109 -45q-63 0 -108 45t-45 108t45 108q45 46 108 46q62 0 108 -46q47 -47 47 -108zM1484 -282l-346 -125l-238 653h-617
l-90 -246l-344 127l548 1513h392zM783 574l-190 525l-192 -525h382z" />
    <glyph glyph-name="Aring" unicode="&#xc5;" horiz-adv-x="1228" 
d="M796 1950q0 -84 -60 -144q-59 -59 -143 -59t-144 60t-60 143q0 84 59 143q61 59 145 59t143 -59q60 -59 60 -143zM1484 -282l-346 -125l-238 653h-617l-90 -246l-344 127l548 1513h392zM693 1950q0 21 -8 39t-21.5 31.5t-31.5 21.5t-39 8t-39.5 -8t-32 -21.5t-21.5 -31.5
t-8 -39q0 -43 29 -72t72 -29q21 0 39 8t31.5 22t21.5 32t8 39zM783 574l-190 525l-192 -525h382z" />
    <glyph glyph-name="AE" unicode="&#xc6;" horiz-adv-x="2329" 
d="M2226 0h-845l103 -282l-346 -125l-238 653h-617l-90 -246l-344 127l548 1513h392l207 -574v574h1230v-369h-861v-266h656v-369h-656v-267h861v-369zM783 574l-190 525l-192 -525h382z" />
    <glyph glyph-name="Egrave" unicode="&#xc8;" horiz-adv-x="1435" 
d="M859 1845l-20 -102h-671v307zM1332 0h-1230v1640h1230v-369h-861v-266h656v-369h-656v-267h861v-369z" />
    <glyph glyph-name="Eacute" unicode="&#xc9;" horiz-adv-x="1435" 
d="M1269 1743h-670l-20 102l690 205v-307zM1332 0h-1230v1640h1230v-369h-861v-266h656v-369h-656v-267h861v-369z" />
    <glyph glyph-name="Ecircumflex" unicode="&#xca;" horiz-adv-x="1435" 
d="M1127 1927l-82 -184l-327 102l-329 -102l-82 184l329 123h164zM1332 0h-1230v1640h1230v-369h-861v-266h656v-369h-656v-267h861v-369z" />
    <glyph glyph-name="Edieresis" unicode="&#xcb;" horiz-adv-x="1435" 
d="M1086 1896q0 -63 -45 -108t-108 -45t-109 45q-45 45 -45 108t45 108q46 46 109 46t108 -46q45 -45 45 -108zM656 1896q0 -63 -45 -108t-109 -45q-63 0 -109 45q-45 45 -45 108t45 108q46 46 109 46q64 0 109 -46q45 -45 45 -108zM1332 0h-1230v1640h1230v-369h-861v-266
h656v-369h-656v-267h861v-369z" />
    <glyph glyph-name="Igrave" unicode="&#xcc;" horiz-adv-x="574" 
d="M428 1845l-20 -102h-667v307zM471 0h-369v1640h369v-1640z" />
    <glyph glyph-name="Iacute" unicode="&#xcd;" horiz-adv-x="574" 
d="M839 1743h-671l-21 102l692 205v-307zM471 0h-369v1640h369v-1640z" />
    <glyph glyph-name="Icircumflex" unicode="&#xce;" horiz-adv-x="574" 
d="M697 1927l-82 -184l-328 102l-325 -102l-82 184l325 123h164zM471 0h-369v1640h369v-1640z" />
    <glyph glyph-name="Idieresis" unicode="&#xcf;" horiz-adv-x="574" 
d="M656 1896q0 -63 -45 -108t-109 -45q-63 0 -109 45q-45 45 -45 108t45 108q46 46 109 46q64 0 109 -46q45 -45 45 -108zM225 1896q0 -63 -45 -108t-108 -45q-64 0 -107 45q-44 46 -44 108q0 61 45 108q43 46 106 46t108 -46q45 -45 45 -108zM471 0h-369v1640h369v-1640z
" />
    <glyph glyph-name="Ntilde" unicode="&#xd1;" 
d="M1281 1907q-133 -103 -307 -103q-55 0 -154 51q-98 52 -153 52q-172 0 -309 -103v246q136 102 309 102q55 0 153 -51q97 -51 154 -51q173 0 307 102v-245zM1538 0h-370l-697 966v-966h-369v1640h369l697 -965v965h370v-1640z" />
    <glyph glyph-name="Ograve" unicode="&#xd2;" 
d="M962 1845l-21 -102h-671v307zM1640 820q0 -341 -240 -581q-241 -239 -580 -239q-342 0 -581 239t-239 581q0 339 239 580q240 240 581 240q336 0 578 -242t242 -578zM1271 820q0 186 -133 318q-132 133 -318 133q-188 0 -320 -132q-131 -131 -131 -319q0 -189 131 -320
t320 -131q188 0 319 131q132 132 132 320z" />
    <glyph glyph-name="Oacute" unicode="&#xd3;" 
d="M1371 1743h-670l-20 102l690 205v-307zM1640 820q0 -341 -240 -581q-241 -239 -580 -239q-342 0 -581 239t-239 581q0 339 239 580q240 240 581 240q336 0 578 -242t242 -578zM1271 820q0 186 -133 318q-132 133 -318 133q-188 0 -320 -132q-131 -131 -131 -319
q0 -189 131 -320t320 -131q188 0 319 131q132 132 132 320z" />
    <glyph glyph-name="Ocircumflex" unicode="&#xd4;" 
d="M1230 1927l-82 -184l-328 102l-328 -102l-82 184l328 123h164zM1640 820q0 -341 -240 -581q-241 -239 -580 -239q-342 0 -581 239t-239 581q0 339 239 580q240 240 581 240q336 0 578 -242t242 -578zM1271 820q0 186 -133 318q-132 133 -318 133q-188 0 -320 -132
q-131 -131 -131 -319q0 -189 131 -320t320 -131q188 0 319 131q132 132 132 320z" />
    <glyph glyph-name="Otilde" unicode="&#xd5;" 
d="M1281 1907q-133 -103 -307 -103q-55 0 -154 51q-98 52 -153 52q-172 0 -309 -103v246q136 102 309 102q55 0 153 -51q97 -51 154 -51q173 0 307 102v-245zM1640 820q0 -341 -240 -581q-241 -239 -580 -239q-342 0 -581 239t-239 581q0 339 239 580q240 240 581 240
q336 0 578 -242t242 -578zM1271 820q0 186 -133 318q-132 133 -318 133q-188 0 -320 -132q-131 -131 -131 -319q0 -189 131 -320t320 -131q188 0 319 131q132 132 132 320z" />
    <glyph glyph-name="Odieresis" unicode="&#xd6;" 
d="M1189 1896q0 -63 -46 -108q-45 -45 -108 -45t-108 45t-45 108t45 108q45 46 108 46q62 0 108 -46t46 -108zM759 1896q0 -63 -46 -108q-45 -45 -108 -45t-109 45q-45 45 -45 108t45 108q46 46 109 46q62 0 108 -46t46 -108zM1640 820q0 -341 -240 -581
q-241 -239 -580 -239q-342 0 -581 239t-239 581q0 339 239 580q240 240 581 240q336 0 578 -242t242 -578zM1271 820q0 186 -133 318q-132 133 -318 133q-188 0 -320 -132q-131 -131 -131 -319q0 -189 131 -320t320 -131q188 0 319 131q132 132 132 320z" />
    <glyph glyph-name="multiply" unicode="&#xd7;" horiz-adv-x="1062" 
d="M959 595l-202 -204l-226 226l-226 -226l-203 204l226 225l-226 225l203 203l226 -225l226 225l202 -203l-225 -225z" />
    <glyph glyph-name="Oslash" unicode="&#xd8;" 
d="M1640 820q0 -341 -240 -581q-241 -239 -580 -239q-240 0 -443 131l-131 -131l-246 246l131 131q-131 203 -131 443q0 339 239 580q240 240 581 240q240 0 443 -132l131 132l246 -246l-132 -131q132 -203 132 -443zM990 1236q-87 35 -170 35q-188 0 -320 -132
q-131 -131 -131 -319q0 -87 34 -170zM1271 820q0 83 -35 170l-586 -587q83 -34 170 -34q188 0 319 131q132 132 132 320z" />
    <glyph glyph-name="Ugrave" unicode="&#xd9;" horiz-adv-x="1538" 
d="M910 1845l-20 -102h-671v307zM1486 718q0 -300 -209 -509t-508 -209q-300 0 -509 209t-209 509v922h369v-922q0 -145 102 -247t247 -102t246 102q102 102 102 247v922h369v-922z" />
    <glyph glyph-name="Uacute" unicode="&#xda;" horiz-adv-x="1538" 
d="M1320 1743h-670l-20 102l690 205v-307zM1486 718q0 -300 -209 -509t-508 -209q-300 0 -509 209t-209 509v922h369v-922q0 -145 102 -247t247 -102t246 102q102 102 102 247v922h369v-922z" />
    <glyph glyph-name="Ucircumflex" unicode="&#xdb;" horiz-adv-x="1538" 
d="M1179 1927l-82 -184l-328 102l-329 -102l-82 184l329 123h164zM1486 718q0 -300 -209 -509t-508 -209q-300 0 -509 209t-209 509v922h369v-922q0 -145 102 -247t247 -102t246 102q102 102 102 247v922h369v-922z" />
    <glyph glyph-name="Udieresis" unicode="&#xdc;" horiz-adv-x="1538" 
d="M1138 1896q0 -63 -46 -108q-45 -45 -108 -45t-109 45q-45 45 -45 108t45 108q46 46 109 46q62 0 108 -46t46 -108zM708 1896q0 -63 -46 -108q-45 -45 -108 -45q-64 0 -110 45q-45 45 -45 108t45 108q46 46 110 46q62 0 108 -46t46 -108zM1486 718q0 -300 -209 -509
t-508 -209q-300 0 -509 209t-209 509v922h369v-922q0 -145 102 -247t247 -102t246 102q102 102 102 247v922h369v-922z" />
    <glyph glyph-name="Yacute" unicode="&#xdd;" horiz-adv-x="1328" 
d="M1215 1743h-669l-21 102l690 205v-307zM1585 1428l-1290 -1835l-298 211l518 742l-614 882l298 212l541 -773l543 773z" />
    <glyph glyph-name="agrave" unicode="&#xe0;" horiz-adv-x="1105" 
d="M679 1661l-19 -92h-603v276zM1336 -253l-313 -113l-213 587h-556l-80 -221l-308 115l492 1361h352zM706 517l-173 471l-173 -471h346z" />
    <glyph glyph-name="aacute" unicode="&#xe1;" horiz-adv-x="1105" 
d="M1048 1569h-604l-18 92l622 184v-276zM1336 -253l-313 -113l-213 587h-556l-80 -221l-308 115l492 1361h352zM706 517l-173 471l-173 -471h346z" />
    <glyph glyph-name="acircumflex" unicode="&#xe2;" horiz-adv-x="1105" 
d="M923 1735l-74 -166l-295 92l-296 -92l-74 166l295 110h149zM1336 -253l-313 -113l-213 587h-556l-80 -221l-308 115l492 1361h352zM706 517l-173 471l-173 -471h346z" />
    <glyph glyph-name="atilde" unicode="&#xe3;" horiz-adv-x="1105" 
d="M968 1716q-122 -92 -277 -92q-51 0 -139 46t-138 46q-152 0 -277 -92v221q122 92 277 92q50 0 138 -46t139 -46q155 0 277 92v-221zM1336 -253l-313 -113l-213 587h-556l-80 -221l-308 115l492 1361h352zM706 517l-173 471l-173 -471h346z" />
    <glyph glyph-name="adieresis" unicode="&#xe4;" horiz-adv-x="1105" 
d="M886 1706q0 -57 -42 -97q-40 -40 -98 -40q-55 0 -96 41t-41 96q0 57 40 97q40 42 97 42t98 -41q42 -41 42 -98zM498 1706q0 -57 -42 -97q-40 -40 -98 -40q-55 0 -96 41t-41 96q0 57 40 97q40 42 97 42t98 -41q42 -41 42 -98zM1336 -253l-313 -113l-213 587h-556l-80 -221
l-308 115l492 1361h352zM706 517l-173 471l-173 -471h346z" />
    <glyph glyph-name="aring" unicode="&#xe5;" horiz-adv-x="1105" 
d="M716 1755q0 -75 -54 -129q-53 -53 -129 -53q-75 0 -129 54t-54 128q0 75 53 128q54 54 130 54q77 0 130 -53t53 -129zM1336 -253l-313 -113l-213 587h-556l-80 -221l-308 115l492 1361h352zM624 1755q0 39 -26 64.5t-65 25.5q-19 0 -35.5 -7t-29 -19.5t-19.5 -29
t-7 -34.5t7 -34.5t19.5 -29t29 -19.5t35.5 -7q38 0 64.5 26t26.5 64zM706 517l-173 471l-173 -471h346z" />
    <glyph glyph-name="ae" unicode="&#xe6;" horiz-adv-x="2095" 
d="M2003 0h-759l92 -253l-313 -113l-213 587h-556l-80 -221l-308 115l492 1361h352l186 -517v517h1107v-332h-775v-240h591v-332h-591v-240h775v-332zM706 517l-173 471l-173 -471h346z" />
    <glyph glyph-name="egrave" unicode="&#xe8;" horiz-adv-x="1291" 
d="M773 1661l-18 -92h-603v276zM1199 0h-1107v1476h1107v-332h-775v-240h591v-332h-591v-240h775v-332z" />
    <glyph glyph-name="eacute" unicode="&#xe9;" horiz-adv-x="1291" 
d="M1142 1569h-602l-19 92l621 184v-276zM1199 0h-1107v1476h1107v-332h-775v-240h591v-332h-591v-240h775v-332z" />
    <glyph glyph-name="ecircumflex" unicode="&#xea;" horiz-adv-x="1291" 
d="M1015 1735l-74 -166l-295 92l-296 -92l-74 166l296 110h148zM1199 0h-1107v1476h1107v-332h-775v-240h591v-332h-591v-240h775v-332z" />
    <glyph glyph-name="edieresis" unicode="&#xeb;" horiz-adv-x="1291" 
d="M978 1706q0 -57 -42 -97q-40 -40 -97 -40t-97 40q-41 41 -41 97q0 58 40 98q41 41 98 41t98 -41t41 -98zM591 1706q0 -57 -42 -97q-41 -40 -98 -40t-97 40q-41 41 -41 97q0 58 40 98q41 41 98 41t98 -41q42 -41 42 -98zM1199 0h-1107v1476h1107v-332h-775v-240h591v-332
h-591v-240h775v-332z" />
    <glyph glyph-name="igrave" unicode="&#xec;" horiz-adv-x="517" 
d="M385 1661l-18 -92h-599v276zM424 0h-332v1476h332v-1476z" />
    <glyph glyph-name="iacute" unicode="&#xed;" horiz-adv-x="517" 
d="M755 1569h-603l-19 92l622 184v-276zM424 0h-332v1476h332v-1476z" />
    <glyph glyph-name="icircumflex" unicode="&#xee;" horiz-adv-x="517" 
d="M628 1735l-74 -166l-296 92l-292 -92l-74 166l292 110h148zM424 0h-332v1476h332v-1476z" />
    <glyph glyph-name="idieresis" unicode="&#xef;" horiz-adv-x="517" 
d="M591 1706q0 -57 -42 -97q-41 -40 -98 -40t-97 40q-41 41 -41 97q0 58 40 98q41 41 98 41t98 -41q42 -41 42 -98zM203 1706q0 -57 -42 -97q-40 -40 -98 -40q-53 0 -94 41q-40 41 -40 96q0 56 40 97q39 42 94 42q57 0 98 -41q42 -41 42 -98zM424 0h-332v1476h332v-1476z
" />
    <glyph glyph-name="ntilde" unicode="&#xf1;" horiz-adv-x="1476" 
d="M1152 1716q-122 -92 -277 -92q-50 0 -138 46t-138 46q-155 0 -277 -92v221q119 92 277 92q49 0 137 -46q89 -46 139 -46q155 0 277 92v-221zM1383 0h-331l-628 869v-869h-332v1476h332l628 -869v869h331v-1476z" />
    <glyph glyph-name="ograve" unicode="&#xf2;" horiz-adv-x="1476" 
d="M865 1661l-18 -92h-603v276zM1476 738q0 -309 -216 -523q-215 -215 -522 -215q-310 0 -524 214t-214 524q0 307 215 522q214 216 523 216q304 0 521 -217t217 -521zM1144 738q0 168 -119 287t-287 119q-169 0 -288 -119q-118 -118 -118 -287q0 -168 119 -287t287 -119
q169 0 287 118q119 119 119 288z" />
    <glyph glyph-name="oacute" unicode="&#xf3;" horiz-adv-x="1476" 
d="M1234 1569h-602l-19 92l621 184v-276zM1476 738q0 -309 -216 -523q-215 -215 -522 -215q-310 0 -524 214t-214 524q0 307 215 522q214 216 523 216q304 0 521 -217t217 -521zM1144 738q0 168 -119 287t-287 119q-169 0 -288 -119q-118 -118 -118 -287q0 -168 119 -287
t287 -119q169 0 287 118q119 119 119 288z" />
    <glyph glyph-name="ocircumflex" unicode="&#xf4;" horiz-adv-x="1476" 
d="M1107 1735l-74 -166l-295 92l-296 -92l-73 166l296 110h147zM1476 738q0 -309 -216 -523q-215 -215 -522 -215q-310 0 -524 214t-214 524q0 307 215 522q214 216 523 216q304 0 521 -217t217 -521zM1144 738q0 168 -119 287t-287 119q-169 0 -288 -119
q-118 -118 -118 -287q0 -168 119 -287t287 -119q169 0 287 118q119 119 119 288z" />
    <glyph glyph-name="otilde" unicode="&#xf5;" horiz-adv-x="1476" 
d="M1152 1716q-122 -92 -277 -92q-50 0 -138 46t-138 46q-155 0 -277 -92v221q119 92 277 92q49 0 137 -46q89 -46 139 -46q155 0 277 92v-221zM1476 738q0 -309 -216 -523q-215 -215 -522 -215q-310 0 -524 214t-214 524q0 307 215 522q214 216 523 216q304 0 521 -217
t217 -521zM1144 738q0 168 -119 287t-287 119q-169 0 -288 -119q-118 -118 -118 -287q0 -168 119 -287t287 -119q169 0 287 118q119 119 119 288z" />
    <glyph glyph-name="odieresis" unicode="&#xf6;" horiz-adv-x="1476" 
d="M1070 1706q0 -57 -42 -97q-40 -40 -97 -40q-55 0 -96 41t-41 96q0 57 40 97q40 42 97 42t98 -41t41 -98zM683 1706q0 -57 -42 -97q-40 -40 -97 -40q-56 0 -97 41t-41 96q0 57 40 97q40 42 98 42q57 0 98 -41t41 -98zM1476 738q0 -309 -216 -523q-215 -215 -522 -215
q-310 0 -524 214t-214 524q0 307 215 522q214 216 523 216q304 0 521 -217t217 -521zM1144 738q0 168 -119 287t-287 119q-169 0 -288 -119q-118 -118 -118 -287q0 -168 119 -287t287 -119q169 0 287 118q119 119 119 288z" />
    <glyph glyph-name="divide" unicode="&#xf7;" horiz-adv-x="1127" 
d="M708 1271q0 -60 -42 -102t-102 -42q-61 0 -103 42q-41 43 -41 102q0 60 41 101q42 42 103 42q60 0 102 -42q42 -41 42 -101zM1025 677h-923v287h923v-287zM708 369q0 -60 -42 -102t-102 -42q-61 0 -103 42q-41 43 -41 102t41 102q42 42 103 42q60 0 102 -42t42 -102z" />
    <glyph glyph-name="oslash" unicode="&#xf8;" horiz-adv-x="1476" 
d="M1476 738q0 -309 -216 -523q-215 -215 -522 -215q-216 0 -398 119l-119 -119l-221 221l119 119q-119 182 -119 398q0 307 215 522q214 216 523 216q217 0 398 -119l118 119l222 -222l-119 -118q119 -181 119 -398zM892 1113q-74 31 -154 31q-169 0 -288 -119
q-118 -118 -118 -287q0 -77 30 -153zM1144 738q0 80 -31 154l-528 -530q76 -30 153 -30q169 0 287 118q119 119 119 288z" />
    <glyph glyph-name="ugrave" unicode="&#xf9;" horiz-adv-x="1383" 
d="M820 1661l-18 -92h-605v276zM1336 646q0 -272 -187 -459t-458 -187q-272 0 -459 187t-187 459v830h332v-830q0 -130 92 -222t222 -92q129 0 221 92q93 93 93 222v830h331v-830z" />
    <glyph glyph-name="uacute" unicode="&#xfa;" horiz-adv-x="1383" 
d="M1189 1569h-604l-19 92l623 184v-276zM1336 646q0 -272 -187 -459t-458 -187q-272 0 -459 187t-187 459v830h332v-830q0 -130 92 -222t222 -92q129 0 221 92q93 93 93 222v830h331v-830z" />
    <glyph glyph-name="ucircumflex" unicode="&#xfb;" horiz-adv-x="1383" 
d="M1060 1735l-74 -166l-295 92l-296 -92l-73 166l295 110h148zM1336 646q0 -272 -187 -459t-458 -187q-272 0 -459 187t-187 459v830h332v-830q0 -130 92 -222t222 -92q129 0 221 92q93 93 93 222v830h331v-830z" />
    <glyph glyph-name="udieresis" unicode="&#xfc;" horiz-adv-x="1383" 
d="M1023 1706q0 -56 -41 -97q-40 -40 -96 -40q-57 0 -98 40q-42 40 -42 97t41 98q43 41 99 41t97 -41q40 -40 40 -98zM636 1706q0 -56 -41 -97q-40 -40 -97 -40t-98 40q-42 40 -42 97t41 98q43 41 99 41q57 0 98 -41q40 -40 40 -98zM1336 646q0 -272 -187 -459t-458 -187
q-272 0 -459 187t-187 459v830h332v-830q0 -130 92 -222t222 -92q129 0 221 92q93 93 93 222v830h331v-830z" />
    <glyph glyph-name="yacute" unicode="&#xfd;" horiz-adv-x="1195" 
d="M1095 1569h-606l-18 92l624 184v-276zM1426 1285l-1160 -1651l-269 191l466 664l-552 796l267 191l489 -695l487 695z" />
    <glyph glyph-name="ydieresis" unicode="&#xff;" horiz-adv-x="1195" 
d="M1005 1706q0 -57 -42 -97q-40 -40 -98 -40q-57 0 -97 40t-40 97q0 58 40 98q41 41 97 41q57 0 98 -41q42 -41 42 -98zM617 1706q0 -57 -42 -97q-40 -40 -98 -40q-57 0 -97 40t-40 97q0 58 40 98q41 41 97 41q58 0 99 -41t41 -98zM1426 1285l-1160 -1651l-269 191l466 664
l-552 796l267 191l489 -695l487 695z" />
  </font>
</defs>
</svg>
