<?xml version="1.0" standalone="no"?>
<!DOCTYPE svg PUBLIC "-//W3C//DTD SVG 1.1//EN" "http://www.w3.org/Graphics/SVG/1.1/DTD/svg11.dtd" >
<svg xmlns="http://www.w3.org/2000/svg" xmlns:xlink="http://www.w3.org/1999/xlink" version="1.1">
<metadata></metadata>
<defs>
<font id="vecnaregular" horiz-adv-x="1600" >
<font-face units-per-em="2048" ascent="1638" descent="-410" />
<missing-glyph horiz-adv-x="800" />
<glyph unicode="&#xd;" horiz-adv-x="508" />
<glyph horiz-adv-x="0" />
<glyph horiz-adv-x="0" />
<glyph unicode=" "  horiz-adv-x="800" />
<glyph unicode="&#x09;" horiz-adv-x="800" />
<glyph unicode="&#xa0;" horiz-adv-x="800" />
<glyph unicode="!" horiz-adv-x="317" d="M0 1271l178 126l39 -123l-62 -860l-85 -57zM22 39v101l86 52l88 -52v-101l-88 -49z" />
<glyph unicode="&#x22;" horiz-adv-x="657" d="M-15 824l93 280l-78 47v125l109 65l109 -65v-152zM323 824l96 280l-81 47v125l110 65l109 -65v-152z" />
<glyph unicode="#" horiz-adv-x="1086" d="M0 472l120 168q7 -22 25 -35t43 -19t56 -7q12 0 25 -1v181h1v98q-22 -1 -45 -1q-42 -2 -79.5 -10t-67 -22.5t-45.5 -39.5l-33 88l120 168q7 -22 25 -35t43 -19t56 -7q13 0 26 -1v15q0 47 -1.5 96t-8 94t-19 80t-34.5 51l-7 7l75 38q28 -23 52.5 -45t52.5 -46l60 -55 l-6 -3q-22 -7 -33.5 -28.5t-17 -50.5t-5.5 -64v-89h38v-1h184v16q0 47 -1.5 96t-8 94t-19 80t-34.5 51l-7 7l75 38q28 -23 52.5 -45t52.5 -46l60 -55l-6 -3q-22 -7 -33.5 -28.5t-17 -50.5t-5.5 -64v-90q26 1 53 2q42 1 79.5 9t67 22.5t45.5 39.5l33 -88l-120 -168 q-7 22 -25 35t-43 19t-55 7q-17 1 -35 1v-106h-1v-173l54 2q42 1 79.5 9t67 22.5t45.5 39.5l33 -88l-120 -168q-7 22 -25 35t-43 19t-55 7q-18 1 -36 1v-40q0 -47 1.5 -96t8 -94t19 -80t34.5 -51l7 -7l-75 -38q-28 23 -52.5 45t-52.5 46l-60 55l6 3q22 7 33.5 28.5t17 50.5 t5.5 65v113h-222v-40q0 -47 1.5 -96t8 -94t19 -80t34.5 -51l7 -7l-75 -38q-28 23 -52.5 45t-52.5 46l-60 55l6 3q22 7 33.5 28.5t17 50.5t5.5 65v114q-22 -1 -44 -1q-42 -2 -79.5 -10t-67 -22.5t-45.5 -39.5zM377 578h39v-1h183v182h1v97h-222v-106h-1v-172z" />
<glyph unicode="$" horiz-adv-x="953" d="M0 505l20 -10q14 -7 25.5 -12.5t11.5 -8.5q63 -118 156 -175q66 -41 153 -53q3 22 3 47v375q-44 20 -86 44q-59 32 -104.5 73t-73.5 92t-28 115q0 12 1.5 27t5.5 31q9 42 64 82.5t121 74.5q46 23 89 41q-6 36 -16 65q-13 35 -35 51l-7 7l75 38q28 -23 52.5 -45t52.5 -46 l37 -34l233 -86q4 -30 7 -60.5t7 -60.5q3 -17 5 -34.5t3 -34.5l-50 -27q-16 48 -34 89t-47.5 68.5t-75.5 43.5q-33 11 -78 14q-2 -7 -3 -15q-6 -29 -6 -64v-323q20 -10 40 -19q66 -27 124.5 -55.5t103 -64.5t73.5 -82.5t34 -112.5v-7q0 -52 -44.5 -106.5t-105 -103 t-120.5 -85.5q-53 -33 -81 -50q1 -6 4 -12q12 -35 34 -51l7 -7l-75 -38q-28 23 -52.5 45t-52.5 46l-60 55l6 3q9 3 17 8l-250 83q-19 68 -39.5 133t-40.5 132zM231 1035q0 -43 24.5 -81t63.5 -69q23 -19 51 -36v194q0 47 -1 96q-1 24 -3 48q-29 -7 -54 -21 q-34 -19 -57.5 -50t-23.5 -81zM477 366q0 -47 2 -96q0 -13 1 -26q26 5 58 15q55 17 93 52q32 37 40 67.5t8 65.5q-6 35 -30 63.5t-61.5 53t-84.5 46.5l-26 12v-253z" />
<glyph unicode="%" horiz-adv-x="1137" d="M0 1012q0 63 15 115t49.5 93.5t88.5 71.5t132 49q6 2 20.5 5t33 6.5t37 6.5t31.5 5q6 -3 21.5 -14.5t38 -30t46.5 -42.5t46 -52.5t38.5 -60t22.5 -62.5q4 -20 6 -41t2 -37q0 -28 -6 -63q-2 -14 -6 -27l276 446h112l-96 -133q-79 -129 -142 -229q-27 -43 -52.5 -85 t-45.5 -75.5t-33 -53.5q-12 -25 -125 -197q23 19 52 35q54 30 132 49q6 2 20.5 5t33 6.5t37 6.5t31.5 5q6 -3 21.5 -14.5t38 -30t46.5 -42.5t46 -52.5t38.5 -60t22.5 -62.5q4 -20 6 -41t2 -37q0 -28 -6 -63t-20 -71.5t-37 -70t-58.5 -60.5t-84.5 -43t-113 -16 q-73 0 -130.5 22t-97 63t-60.5 99t-21 128q0 54 11 99q-50 -81 -100 -166q-93 -157 -183 -305q-22 28 -42.5 52.5t-41.5 50.5l14 15q6 5 11.5 9.5t7.5 5.5q12 14 29 33.5t43.5 57t66 96.5t97.5 149q38 63 70 111q12 22 25 41.5t22.5 35.5t17 26t7.5 11q26 44 47 78 q-2 -1 -4 -3q-36 -27 -85 -43t-113 -16q-73 0 -130.5 22t-97 63t-60.5 99t-21 128zM159 1026q0 -27 4 -58.5t11.5 -63t19.5 -60.5t29 -51.5t40 -35.5t51 -13q55 0 90 48q14 20 24 46t16 52.5t8.5 52.5t2.5 49q0 56 -12 108.5t-33.5 92.5t-51 64t-65.5 24q-37 0 -62.5 -24 t-41.5 -61t-23 -82t-7 -88zM568 376q0 -27 4 -58.5t11.5 -63t19.5 -60.5t29 -51.5t40 -35.5t51 -13q55 0 90 48q14 20 24 46t16 52.5t8.5 52.5t2.5 49q0 56 -12 108.5t-33.5 92.5t-51 64t-65.5 24q-37 0 -62.5 -24t-41.5 -61t-23 -82t-7 -88z" />
<glyph unicode="&#x26;" horiz-adv-x="1418" d="M0 400q0 16 31.5 68t82 115.5t111.5 124.5t118 97l-14 14q-27 27 -55.5 59t-51 68t-38 75.5t-15.5 81.5q0 29 19 66t47.5 73t63.5 69t66.5 58t55.5 40q21 12 31 12h3q99 -36 176 -82q33 -20 64.5 -44t55.5 -53t38 -60q11 -28 11 -58v-7q-5 -56 -28.5 -94.5t-57.5 -68 t-76.5 -52t-83.5 -45.5l-19 -11l373 -396q37 43 68 95q25 45 47 106.5t27 136.5l94 -147q-9 -8 -37.5 -48.5t-63.5 -86.5q-39 -54 -85 -121q46 -66 106 -116q48 -43 113.5 -79t140.5 -36l-193 -166l-262 274q-59 -79 -113 -139q-23 -24 -47 -49.5t-47 -44t-42.5 -30 t-33.5 -11.5h-13q-148 0 -269 39q-53 18 -105.5 46.5t-93.5 73.5t-67.5 106.5t-31.5 146.5zM191 462q0 -67 24 -122.5t66 -96.5t100.5 -62.5t126.5 -21.5q97 0 168.5 46t134.5 114q-103 122 -203 229t-223 206q-40 -21 -75 -52.5t-62 -70t-42 -81t-15 -88.5zM320 1129 q0 -59 29.5 -97.5t69.5 -75.5l65 -63q27 21 56 43.5t52.5 47.5t37.5 54t14 66q0 38 -10 74.5t-30.5 66t-53 48.5t-76.5 19q-36 0 -64.5 -16.5t-49 -41.5t-30.5 -58t-10 -67z" />
<glyph unicode="'" horiz-adv-x="320" d="M-13 824l95 280l-81 47v125l110 65l109 -65v-152z" />
<glyph unicode="(" horiz-adv-x="496" d="M0 684q0 199 26 296t71.5 188t107 175t130.5 153l61 -61q-203 -269 -205 -751q2 -482 195 -733l-51 -61q-69 71 -131 150t-107 166t-71 182t-26 296z" />
<glyph unicode=")" horiz-adv-x="496" d="M0 1435l61 61q69 -69 130.5 -153t107 -175t71.5 -188t26 -296q0 -201 -26 -296t-71 -182t-107 -166t-131 -150l-51 61q193 251 195 733q-2 482 -205 751z" />
<glyph unicode="*" horiz-adv-x="613" d="M0 1366q0 15 5 32q10 31 32 46q14 11 29 11q8 0 16 -3q18 -5 65 -54q41 -43 98 -66q-4 62 -33 114q-32 58 -32 74q0 28 20.5 45t54.5 17q33 0 54.5 -16t21.5 -41q0 -19 -32 -78q-29 -53 -32 -114q57 22 99 66q44 48 60 53q10 3 18 3q16 0 31 -9q23 -15 33 -46 q5 -17 5 -32q0 -13 -3 -24q-9 -27 -33 -34q-6 -1 -17 -1q-22 0 -66 8q-25 4 -49 4q-35 0 -70 -10q38 -48 91 -72q60 -28 70 -41q11 -16 11 -34q0 -8 -2 -15q-7 -26 -34 -46q-25 -19 -52 -19v1q-28 0 -42 20q-11 15 -20 82q-8 59 -41 109q-33 -50 -40 -108q-8 -66 -18 -79 q-16 -22 -42 -23h-5q-24 0 -50 18t-34 45q-3 8 -3 17q0 15 9 28q12 15 73 45q53 25 92 71q-36 10 -70 10q-24 0 -47 -4q-47 -10 -68 -10q-8 0 -12 2q-26 8 -36 33q-5 11 -5 25z" />
<glyph unicode="+" horiz-adv-x="1087" d="M1 627l120 168q7 -22 25 -35t43 -19t55.5 -7t63.5 -1h109v-1h33v111q0 47 -1.5 96t-8 94t-19 80t-34.5 51l-7 7l75 38q28 -23 52.5 -45t52.5 -46l60 -55l-6 -3q-22 -7 -33.5 -28.5t-17 -50.5t-5.5 -64v-185h122q40 0 82 1.5t79.5 9.5t67 22.5t45.5 39.5l33 -88l-120 -168 q-7 22 -25 35t-43 19t-55.5 7t-63.5 1h-123v-145q0 -47 1.5 -96t8 -94t19 -80t34.5 -51l7 -7l-75 -38q-28 23 -52.5 45t-52.5 46l-60 55l6 3q22 7 33.5 28.5t17 50.5t5.5 65v218h-118v1h-23q-40 0 -82 -1.5t-79.5 -9.5t-67 -22.5t-45.5 -39.5z" />
<glyph unicode="," horiz-adv-x="320" d="M-13 -296l93 282l-79 45v127l109 61l110 -61v-154z" />
<glyph unicode="-" horiz-adv-x="1087" d="M1 627l120 168q7 -22 25 -35t43 -19t55.5 -7t63.5 -1l372 -1q40 0 82 1.5t79.5 9.5t67 22.5t45.5 39.5l33 -88l-120 -168q-7 22 -25 35t-43 19t-55.5 7t-63.5 1h-349v1h-23q-40 0 -82 -1.5t-79.5 -9.5t-67 -22.5t-45.5 -39.5z" />
<glyph unicode="." horiz-adv-x="319" d="M0 45v127l109 63l110 -63v-127l-110 -65z" />
<glyph unicode="/" horiz-adv-x="1054" d="M3 93l14 15q6 5 11.5 9.5t7.5 5.5q12 14 29 33.5t43.5 57t66 96.5t97.5 149q38 63 70 111q12 22 25 41.5t22.5 35.5t17 26t7.5 11q113 190 114 188l314 508h112l-96 -133q-79 -129 -142 -229q-27 -43 -52.5 -85t-45.5 -75.5t-33 -53.5q-12 -26 -130 -205 q-92 -147 -185 -304t-183 -305q-22 28 -42.5 52.5t-41.5 50.5z" />
<glyph unicode="0" horiz-adv-x="972" d="M0 652q0 268 96.5 440t307.5 257q9 4 35 12t53.5 16t51 14t25.5 6q75 -73 136 -159q52 -75 99.5 -172.5t60.5 -207.5q3 -42 5 -91.5t2 -90.5q0 -103 -21.5 -222t-72.5 -223t-134.5 -172.5t-207.5 -68.5q-99 0 -178.5 47t-137 134t-89 209.5t-31.5 271.5zM166 694 q0 -88 15 -193.5t48 -197t87 -153.5t132 -62t128 57t79 140t39.5 172.5t10.5 153.5v9q0 107 -22.5 217.5t-62 200t-94 146t-119.5 56.5t-112 -51t-75.5 -131t-41 -176.5t-12.5 -187.5z" />
<glyph unicode="1" horiz-adv-x="476" d="M0 36l25 14q28 17 45 50t26.5 76t12 91t2.5 95v828q-14 0 -26.5 -7.5t-22 -17t-16.5 -18.5t-12 -15l-34 111l274 154v-1035q0 -37 0.5 -71.5t8 -62.5t21.5 -47.5t41 -26.5l31 -7l-246 -157z" />
<glyph unicode="2" horiz-adv-x="975" d="M0 156l25 7q18 9 28.5 19.5t19.5 24.5l554 696q31 36 47 74.5t16 84.5v19q-5 53 -27.5 88t-53 54t-63 26.5t-56.5 7.5h-19q-66 -6 -107.5 -30.5t-65.5 -64.5t-37.5 -95t-22.5 -121l-77 47v247l260 156q102 -4 188 -36q38 -14 75 -34.5t70 -50.5t59 -71t40 -94 q5 -24 7 -43.5t2 -37.5q0 -59 -21.5 -102t-53.5 -90l-526 -563q-23 -23 -37 -46.5t-14 -49.5q0 -19 7 -38h299q18 0 35 -1t35 -1q32 0 62.5 6.5t57.5 27t48.5 60.5t37.5 110l83 -94l-65 -248h-568z" />
<glyph unicode="3" horiz-adv-x="887" d="M0 169l186 127v-33q0 -41 14.5 -80t39.5 -69t62 -48t79 -18q56 0 101.5 23.5t78 63t49.5 88.5t17 102q0 65 -31.5 120t-81 94.5t-110 60t-121.5 20.5q-34 0 -69.5 -0.5t-71.5 -8.5l96 145h56q17 0 39 -2l160 192q25 31 40.5 66t15.5 76v18q-4 50 -24 82.5t-47.5 50.5 t-58.5 24t-53 6h-17q-60 -5 -98.5 -27.5t-62.5 -59.5t-35 -87t-20 -111l-72 43v226l242 143q93 -4 174 -32q34 -13 69 -32t64.5 -46.5t53.5 -65t37 -86.5q12 -50 12 -98q0 -54 -16 -98.5t-43 -82.5l-141 -131q51 -16 100.5 -42.5t88 -68.5t62 -97.5t23.5 -125.5 q0 -89 -41.5 -162.5t-108 -126.5t-148.5 -82t-164 -29q-44 0 -96.5 9.5t-100.5 31t-83 55.5t-45 83z" />
<glyph unicode="4" horiz-adv-x="1036" d="M0 571l32 31q20 63 45 125q21 54 52.5 116t71.5 114q91 120 167 204t134 137q66 60 120 99l97 -150q-79 -34 -152 -79q-63 -37 -132.5 -89t-115.5 -116q-45 -60 -75.5 -113t-49.5 -95t-27.5 -72.5t-8.5 -42.5q0 -4 1 -5.5t1 -3.5q1 -7 14 -11q5 -1 8 -1h330v347l154 138 v-485h270l-191 -135h-79v-122q0 -37 1 -71.5t8.5 -62.5t23 -47.5t41.5 -26.5l32 -7l-238 -157l-138 46l25 14q29 17 48 50t27.5 76t12 91t3.5 95v122h-388l-89 -58z" />
<glyph unicode="5" horiz-adv-x="931" d="M0 163l171 135l7 -38q8 -43 34 -79t63.5 -62t82 -41t86.5 -15h18q8 0 17 2q48 7 85.5 32.5t62.5 61.5t37.5 82t12.5 94q0 36 -9 77q-14 65 -47 113t-79 80.5t-101.5 48.5t-110.5 16q-34 0 -67 -5q-36 -7 -72.5 -13.5t-70.5 -20.5h-27l30 541l-37 32l109 116l22 -5 q38 20 75 38q33 15 71.5 26t73.5 15q14 0 27 1t27 1q72 0 126.5 -8t92.5 -17q44 -11 75 -25l-101 -163q-36 28 -75 50q-34 20 -77 36t-88 16h-8q-48 -4 -79 -12t-52.5 -19t-34 -21.5t-17.5 -17.5q-5 -6 -10 -18q-2 -5 -2 -9l-28 -372q23 3 60 6.5t84 3.5q62 0 135.5 -11.5 t140 -45.5t117.5 -96t72 -160q9 -45 9 -81q0 -81 -32 -160t-87.5 -142t-131 -101.5t-161.5 -38.5h-21q-176 0 -267.5 42t-130.5 131z" />
<glyph unicode="6" horiz-adv-x="950" d="M0 480q0 113 31 224.5t83 213t123 189t151.5 151.5t166.5 101t172 37h14v-76q-88 -1 -164 -59.5t-140 -144t-114 -182.5t-84 -176q57 20 126 46t123 39l153 33q57 -66 103 -139q40 -63 73 -143.5t33 -167.5q0 -96 -35 -175.5t-95 -138.5t-140.5 -90.5t-172.5 -31.5 q-96 0 -171 41t-127.5 109t-80.5 156.5t-28 183.5zM180 431q0 -62 14.5 -130t46 -124.5t81 -93.5t123.5 -37q63 0 104 33.5t66.5 83t35 108.5t9.5 111q0 71 -13.5 140.5t-44.5 124t-82 87.5t-128 33h-14q-36 -2 -74 -27t-78 -48q-24 -70 -35 -129.5t-11 -131.5z" />
<glyph unicode="7" horiz-adv-x="981" d="M0 1132l62 248h581l238 -163q-10 -4 -21 -9q-8 -4 -18.5 -11t-18.5 -17l-426 -972q-5 -20 -5 -34q0 -23 8.5 -41t20.5 -27l20 -15l-224 -101l-111 99l16 8q43 23 67 55.5t53 96.5l401 907q7 14 7 45q0 16 -1.5 32t-5.5 31l-274 -9q-9 0 -18.5 -1t-18.5 -1q-46 0 -84.5 -5 t-69.5 -25.5t-56.5 -63t-42.5 -123.5z" />
<glyph unicode="8" horiz-adv-x="929" d="M0 310q0 72 28 130t73 105.5t101.5 84.5t112.5 66l-21 12q-35 24 -75.5 57.5t-74.5 75t-57.5 90.5t-23.5 105q0 53 28 113q3 9 27 48t53 84q32 53 74 115q49 -11 91 -18q35 -7 67.5 -12.5t43.5 -7.5q63 -10 125.5 -28t113.5 -50.5t82.5 -81.5t31.5 -121q0 -66 -22 -114.5 t-59 -87t-84.5 -70t-97.5 -61.5l17 -14q49 -38 98 -85.5t87.5 -103t64 -117.5t25.5 -132q0 -8 -19.5 -52.5t-43.5 -94.5q-27 -59 -61 -131q-75 -3 -138 -7q-54 -3 -102 -6.5t-58 -5.5q-29 -5 -60 -5q-65 0 -127.5 23t-111 64t-78.5 100t-30 133zM168 346q0 -57 19.5 -112 t54.5 -97t85.5 -68t112.5 -26q46 0 86 18t67.5 49.5t43.5 71.5t16 85q0 72 -30.5 130t-76 107.5t-100 89.5t-103.5 78q-37 -25 -68.5 -62t-55 -80.5t-37.5 -91.5t-14 -92zM226 1115q0 -63 28 -113.5t70 -92.5t92.5 -78t93.5 -68q57 53 89 126.5t32 150.5v10q0 50 -7.5 94 t-28.5 77.5t-57.5 55t-96.5 24.5h-12q-39 0 -76 -15t-65 -40t-45 -59.5t-17 -71.5z" />
<glyph unicode="9" horiz-adv-x="943" d="M0 927q0 53 21 118q1 3 13 21t31 43t42 56.5t48 63.5q57 74 131 167q48 -7 89 -14q36 -6 69 -12t48 -12q82 -34 147.5 -72.5t111.5 -89.5t69 -116.5t23 -151.5v-14q-3 -165 -61.5 -325.5t-160 -289t-237.5 -213t-293 -96.5l3 77q81 0 162 61.5t154 154t131 199t92 195.5 q-30 -15 -68.5 -35t-78 -37t-74 -28t-56.5 -11q-65 0 -127.5 27t-114 74.5t-83 114t-31.5 145.5zM189 963q0 -91 27 -152.5t67 -100t88 -55.5t89 -17q16 0 40 12t50 28t50 35.5t41 35.5q7 24 10.5 42t4.5 34t1.5 33.5t0.5 44.5v17q0 53 -10.5 118t-36.5 119t-70 91t-110 37 q-63 0 -108.5 -28.5t-75.5 -72.5t-44 -99.5t-14 -109.5v-12z" />
<glyph unicode=":" horiz-adv-x="319" d="M0 45v127l109 63l110 -63v-127l-110 -65zM0 765v128l109 63l110 -63v-128l-110 -64z" />
<glyph unicode=";" horiz-adv-x="319" d="M-14 -296l93 282l-79 45v127l109 61l110 -61v-154zM0 765v128l109 63l110 -63v-128l-110 -64z" />
<glyph unicode="&#x3c;" horiz-adv-x="808" d="M1 697q171 148 172 147l375 296h160q-185 -124 -260 -182q-101 -84 -198 -167l-49 -51q41 -42 72 -72t67.5 -67.5t75.5 -76.5q102 -99 127 -120q37 -42 149 -137l-178 -89q-53 58 -138 128q-94 95 -159 162q-27 29 -54 57.5t-49 50.5t-35 37t-16 18q-62 65 -62 66z" />
<glyph unicode="=" horiz-adv-x="1086" d="M0 422l120 168q7 -22 25 -35t43 -19t55.5 -7t63.5 -1h109v-1h263q40 0 82 1.5t79.5 9.5t67 22.5t45.5 39.5l33 -88l-120 -168q-7 22 -25 35t-43 19t-55.5 7t-63.5 1h-349v1h-23q-40 0 -82 -1.5t-79.5 -9.5t-67 -22.5t-45.5 -39.5zM0 822l120 168q7 -22 25 -35t43 -19 t55.5 -7t63.5 -1h109v-1h263q40 0 82 1.5t79.5 9.5t67 22.5t45.5 39.5l33 -88l-120 -168q-7 22 -25 35t-43 19t-55.5 7t-63.5 1h-349v1h-23q-40 0 -82 -1.5t-79.5 -9.5t-67 -22.5t-45.5 -39.5z" />
<glyph unicode="&#x3e;" horiz-adv-x="808" d="M1 1140h159l375 -296q2 1 173 -147q0 -1 -62 -66q-3 -3 -16 -18t-35 -37t-49 -50.5t-55 -57.5q-65 -67 -159 -162q-85 -70 -138 -128l-177 89q112 95 149 137q25 21 126 120q40 39 76 76.5t67 67.5t72 72l-48 51q-97 83 -198 167q-75 58 -260 182z" />
<glyph unicode="?" horiz-adv-x="827" d="M0 1199l210 203h5q4 0 35.5 -4t76 -12t98.5 -21.5t104 -32.5t90.5 -44.5t57.5 -59.5q49 -88 50 -160v-5q0 -70 -27 -131q-28 -63 -76 -119.5t-97 -109.5q-31 -33 -64.5 -65t-64 -66.5t-54 -70t-30.5 -77.5l-134 -92q-1 16 -1 33q0 51 12 100q16 64 45 123t68.5 112 t78.5 95q40 46 77.5 89.5t63 88.5t32.5 93q2 13 2 27q0 35 -13 72q-20 56 -53 83.5t-71 38.5q-29 8 -55 8q-9 0 -17 -1q-35 -3 -57 -11q-61 -19 -93.5 -50.5t-46.5 -74.5q-13 -41 -13 -90v-6q1 -53 10 -118l-86 26zM183 20v103l89 53l92 -53v-103l-92 -52z" />
<glyph unicode="@" horiz-adv-x="1659" d="M0 445q0 211 108.5 406t302 299.5t399.5 104.5q317 0 533 -201.5t216 -495.5q0 -236 -154 -384q-153 -147 -303 -149q-55 1 -88 16t-54 47q-25 -32 -71.5 -56t-116.5 -24q-126 0 -224.5 88t-98.5 204q1 76 46.5 145.5t116 101t151.5 43.5q59 14 96.5 37t37.5 65 q-1 61 -35.5 110t-112.5 49q-63 0 -106.5 -52t-44.5 -109h-39v139q0 17 63 35q64 17 155 17q96 -2 170 -56.5t74 -137.5v-515q0 -103 82 -103q162 31 233.5 168t71.5 334q-17 294 -203 473q-172 164 -420 164q-179 0 -343 -120t-236 -311q-59 -156 -59 -316 q0 -274 113.5 -447.5t267 -254t278.5 -80.5q240 0 503 182v-66q-230 -161 -499 -161q-210 0 -403.5 107.5t-300 299.5t-106.5 404zM571 300q0 -93 56 -169.5t160 -76.5q85 5 110 146v417q-47 -55 -134 -73q-73 -8 -132.5 -69.5t-59.5 -174.5z" />
<glyph unicode="A" horiz-adv-x="1333" d="M0 24l12 12q28 0 56 26t51 80q112 284 199 513q38 96 73.5 189t64 166.5t47.5 120.5t21 50q-23 52 -36.5 64.5t-34.5 12.5q-15 0 -30.5 -12.5t-15.5 -32.5q0 -21 15.5 -32t30.5 -11h16q8 0 12 3l-43 -98l-161 98l108 221q75 -12 160 -25t158 -25l463 -1238q16 -39 67 -74 q-8 -3 -25.5 -10.5t-36.5 -14.5q-22 -9 -46 -17q-47 24 -91 51t-90 56q-19 9 -35 20.5t-34 22.5q23 5 40 14t34 27l-60 163h-605l-106 -265q-14 -31 -26 -47t-28 -29t-33 -13q-28 0 -52 12t-39 22zM334 460h511l-250 671z" />
<glyph unicode="B" horiz-adv-x="1283" d="M0 1173l108 207l287 -36q91 20 184 29t170 23q36 -18 75.5 -45t76.5 -60t65.5 -69.5t44.5 -76.5q22 -54 22 -104q0 -41 -12.5 -80.5t-30.5 -72.5t-38 -59t-34 -41q124 -39 194.5 -126t70.5 -219v-27l-5 -97q-9 -156 -130 -237.5t-331 -81.5h-328q-41 24 -79.5 47 t-79.5 48l-81 49l9 3q51 14 66.5 58t15.5 110v634q0 78 -6 131.5t-16.5 87.5t-22.5 53t-22 28q-15 11 -31 11q-20 0 -35 -14q-13 -13 -13 -31v-4q2 -16 13.5 -24.5t24.5 -8.5q12 0 22 5l26 -118zM395 323q0 -239 263 -239q54 0 109.5 18t102.5 50.5t78.5 77t41.5 100.5 q2 9 2 18v18q0 36 -7.5 81.5t-23 91.5t-39.5 86t-56 65q-41 32 -95 32q-25 0 -49 -5l-327 -91v-303zM395 708l378 111q41 12 66 41t37.5 62.5t16 65t3.5 52.5q0 41 -23 82t-60.5 77t-82.5 61.5t-88 38.5q-26 7 -64 7q-111 0 -183 -97v-501z" />
<glyph unicode="C" horiz-adv-x="1276" d="M0 634q0 115 46.5 213.5t118.5 180.5t158.5 146t168.5 111t146 74.5t91 36.5l364 -211q-14 -45 -30.5 -85.5t-32.5 -83.5l-52 -137l-19 15q-19 16 -47 34q11 16 29.5 55.5t18.5 84.5q0 35 -20 64q-19 27 -55.5 44.5t-82.5 26t-98 12.5t-102 4q-158 0 -251 -94 q-39 -41 -63.5 -101t-37.5 -123t-18 -121t-5 -96q7 -109 40.5 -220t100 -199.5t169 -144t249.5 -55.5q76 0 139.5 39.5t112 88.5t78 94t34.5 55q7 -25 12.5 -41.5t13.5 -42.5q-19 -46 -38.5 -94.5t-37.5 -95.5q-39 -25 -97.5 -41t-122 -24t-125 -10.5t-108.5 -2.5 q-126 0 -244 49.5t-210 143.5q-91 91 -142 210.5t-51 240.5z" />
<glyph unicode="D" horiz-adv-x="1407" d="M0 1173l108 207l294 -36q2 2 47.5 9t102 15t110 17t75.5 12l118 -37q86 -26 157 -77.5t126.5 -119t92 -145t57.5 -158.5q10 -44 14.5 -91t4.5 -90q0 -89 -16.5 -173.5t-40.5 -155.5t-54.5 -124.5t-56.5 -81.5q-22 -28 -81 -54.5t-130 -49t-140 -36.5t-107 -14 q-16 0 -21 1l-516 158q9 2 10.5 2.5t8.5 2.5q29 9 46 31t25.5 50t10 62.5t1.5 66.5v522q0 96 -7.5 161.5t-18 108.5t-23 64.5t-24.5 28.5q-15 11 -31 11q-20 0 -35 -14q-13 -13 -13 -31v-4q2 -16 13.5 -24.5t24.5 -8.5q12 0 22 5l26 -118zM402 224q0 -34 31 -60.5t76 -44.5 t91.5 -28t77.5 -10q64 0 127 28t115 81q77 80 120 207.5t43 283.5v27q-4 113 -41.5 213t-95 179.5t-130 131t-145.5 69.5q-20 4 -37 6.5t-37 2.5q-130 0 -195 -122v-964z" />
<glyph unicode="E" horiz-adv-x="1203" d="M0 1276l55 104l150 -18q57 -7 104.5 -12.5t51.5 -5.5l337 52l114 -45q76 -31 138 -75.5t114 -90.5l-130 -135q-31 50 -75.5 95t-92.5 78.5t-98.5 52t-96.5 18.5h-7q-65 -3 -117 -35.5t-86 -95.5v-431h109q40 0 82 1.5t79.5 9.5t67 22.5t45.5 39.5l33 -88l-120 -168 q-7 22 -25 35t-43 19t-55.5 7t-63.5 1h-109v-387q0 -34 32.5 -60.5t76 -44.5t91.5 -28t78 -10q95 0 178.5 58t138.5 160l147 -152q-43 -29 -100.5 -57.5t-119.5 -51t-124.5 -35.5t-115.5 -13l-520 150q43 18 63.5 65.5t20.5 133.5v769q-12 65 -31 109.5t-50 60.5 q-23 8 -48 8q-9 0 -19 -0.5t-19 -2.5q-11 -2 -21 -4z" />
<glyph unicode="F" horiz-adv-x="1164" d="M0 1276l55 104q84 -11 152 -18q29 -4 56.5 -6.5t49 -5t35 -4.5t15.5 -2l335 52l113 -43q75 -29 138 -75.5t115 -92.5l-130 -135q-31 50 -75.5 95t-92.5 78.5t-98.5 52t-96.5 18.5h-7q-65 -3 -117 -35.5t-86 -95.5v-430h109q40 0 82 2t79.5 9t67 21.5t45.5 39.5l33 -88 l-120 -168q-7 22 -25 35t-43 19t-55.5 7t-63.5 1h-109v-258q0 -47 3.5 -95t13.5 -92t29 -78.5t49 -51.5l11 -7l-113 -38l-246 146q8 0 11 1q30 9 48 29.5t26.5 50.5t10 64.5t1.5 70.5v755q-10 65 -29 109.5t-50 60.5q-23 8 -48 8q-9 0 -21.5 -1.5t-25.5 -3.5q-14 -3 -31 -5z " />
<glyph unicode="G" horiz-adv-x="1306" d="M0 643q0 117 48.5 216.5t123 181t164 144t171 107.5t145 71t86.5 33l101 -55q67 -40 133.5 -83t134.5 -85q-23 -65 -46.5 -130t-46.5 -131q-19 9 -34.5 16t-35.5 18q9 24 19.5 54.5t10.5 61.5q0 15 -4 33t-13 34q-20 27 -57 44t-84 26.5t-101 13.5t-105 4 q-78 0 -142.5 -17t-110.5 -64q-38 -43 -62.5 -104t-38.5 -124.5t-19.5 -120.5t-5.5 -93q8 -111 41.5 -223t102.5 -202.5t175 -147t255 -56.5q132 0 194 44.5t62 141.5v163q0 77 -35 130t-73 70q-14 8 -35 8q-26 0 -42 -11q-28 -23 -28 -75q0 -25 4 -49.5t11 -48.5q0 -6 2 -7 l-122 -87v48q0 29 -1 54q0 27 -1 49.5t-1 36.5l61 68q34 40 71 83.5t70 81.5l264 -136v-511q-47 -30 -124 -54.5t-158.5 -40.5t-153 -24.5t-109.5 -8.5q-131 0 -252.5 51.5t-218.5 150.5q-90 90 -140 209t-50 242z" />
<glyph unicode="H" horiz-adv-x="1388" d="M0 1173l117 223q41 -9 70 -13.5t68 -11.5l147 -25v-586h616v620h183v-9q0 -5 -1 -7t-1 -6q-2 -16 -5.5 -42.5t-6 -56.5t-5 -55.5t-2.5 -38.5v-810q0 -47 2.5 -95t11.5 -92.5t25 -78.5t45 -51l24 -11l-116 -37l-245 147l7 1q31 7 48 27t25 47.5t9.5 60.5t1.5 69v301h-616 v-288q0 -45 4.5 -93t16 -92.5t30.5 -80.5t47 -55l10 -7l-115 -37q-41 22 -79 45t-78 47l-87 55q9 0 10 1q29 9 46 30.5t26.5 50.5t11 63.5t1.5 72.5v552q0 97 -7.5 159.5t-18.5 100t-24 56.5t-23 26q-15 11 -31 11q-20 0 -34 -13.5t-14 -35.5q2 -16 13.5 -24.5t24.5 -8.5 q12 0 22 5l26 -118z" />
<glyph unicode="I" horiz-adv-x="597" d="M0 1173l117 223q20 -4 37 -8.5t45.5 -9.5t73.5 -13.5t119 -20.5v-987q0 -47 2.5 -96t12 -94t28.5 -80t51 -51l11 -7l-113 -38q-41 23 -78 45t-78 46l-91 55l10 3q33 7 50 28.5t25 50.5t8.5 64.5t0.5 73.5v551q0 94 -4 155t-12 98.5t-19 57t-23 30.5q-15 11 -31 11 q-20 0 -35 -14q-13 -13 -13 -31v-4q2 -16 13.5 -24.5t24.5 -8.5q12 0 22 5l26 -118z" />
<glyph unicode="J" horiz-adv-x="960" d="M0 158l77 328l75 -40l-15 -25q-8 -26 -8 -70q0 -57 28.5 -96.5t62.5 -62.5q42 -29 91 -43t99 -14q40 0 73 8t52 26q33 19 52.5 102.5t19.5 207.5v643q0 29 -2.5 61t-14.5 59t-35 44t-62 17h-13q-15 -2 -29 -3.5t-32 -7.5l48 105q81 -12 158.5 -24.5t159.5 -24.5l-22 -142 v-727q0 -38 1 -72t9 -63t25 -48.5t49 -28.5l13 -4l-450 -272q-106 41 -205 83t-205 84z" />
<glyph unicode="K" horiz-adv-x="1443" d="M0 1173l115 223q41 -9 72.5 -14.5t72.5 -12.5q36 -5 70 -11.5t70 -13.5v-674l464 710h158q-13 -14 -34.5 -41t-44.5 -57.5t-43.5 -58.5t-30.5 -40q-62 -97 -113 -172q-21 -33 -41.5 -65t-36.5 -57t-27 -42t-13 -21q27 -59 69 -137t96 -161t115 -164.5t124.5 -145.5 t126.5 -103.5t120 -39.5q27 0 50 9q2 0 4 2v-5q0 -4 -1 -4t-1 -2v-1q-18 -22 -54.5 -45.5t-74.5 -31.5q-13 -4 -29 -5.5t-25 -1.5q-123 0 -260 99q-41 31 -94 100t-106.5 151.5t-102 164t-78.5 136.5q-4 -5 -13 -18.5t-18 -27.5q-10 -18 -25 -38q-16 -23 -28 -41 q-12 -16 -20.5 -28.5t-12.5 -12.5v-118q0 -47 3 -96t13.5 -93.5t29 -79.5t51.5 -52h-2l13 -7l-115 -38q-79 45 -155 91l-91 55l11 3h-2q33 7 50 28.5t24.5 50.5t10 64.5t2.5 73.5v551q0 97 -7.5 159t-18 100.5t-22.5 56.5t-22 25q-15 11 -31 11q-20 0 -35 -14 q-13 -13 -13 -31v-4q2 -16 13.5 -24.5t24.5 -8.5q12 0 22 5l26 -118z" />
<glyph unicode="L" horiz-adv-x="1206" d="M0 1292l46 104l305 -57v-977q0 -50 4.5 -116.5t24.5 -120.5h267q56 0 117.5 11t116 49.5t96 112t57.5 198.5q21 -30 35.5 -51.5t36.5 -51.5q-27 -97 -57.5 -196.5t-59.5 -196.5h-643l-245 147q7 0 10 2q29 10 46 30.5t26 49.5t10.5 63t1.5 70v582q0 34 -1.5 89 t-8.5 108.5t-23.5 95.5t-45.5 55q-10 6 -43 6q-39 0 -73 -6z" />
<glyph unicode="M" horiz-adv-x="1525" d="M0 1173l117 223q41 -9 70 -14.5t68 -12.5l147 -25v-133l181 -248q34 -47 67 -93t59 -81.5t43.5 -58t18.5 -24.5q11 14 44 59t77 102.5t91.5 121t88 116.5t66 88.5t25.5 37.5v149h180l-16 -122l-6 -54q-2 -12 -2 -21v-826q0 -47 4 -96t14.5 -94t31 -82t56.5 -56l-113 -38 q-46 29 -94 62t-125 87q34 7 52 27.5t26.5 50.5t10 65.5t1.5 73.5v686l-412 -520l-176 223q-34 42 -66 82.5t-59 74.5t-45 56.5t-23 27.5v-630q0 -47 3.5 -96t15.5 -94t33.5 -81t56.5 -57l-114 -38q-26 13 -49 26.5t-51 30.5t-64 38.5t-84 50.5q34 5 54 29t28.5 55.5 t11 66.5t2.5 61v559q0 97 -7.5 159t-18 99.5t-23.5 55.5t-23 27q-15 11 -31 11q-20 0 -35 -14q-13 -13 -13 -31v-4q2 -16 13.5 -24.5t24.5 -8.5q12 0 22 5l26 -118z" />
<glyph unicode="N" horiz-adv-x="1389" d="M0 1173l117 223q51 -9 89.5 -16t71 -12.5t61.5 -12t60 -11.5v-113q1 -9 36 -58t112 -152t200.5 -264.5t304.5 -390.5v756q0 27 -5 58t-18 57.5t-33.5 44t-50.5 17.5q-16 0 -35 -1.5t-41 -5.5q-3 0 -5.5 -0.5t-4.5 -0.5q16 36 27.5 60.5t23.5 44.5q10 -2 16 -4t15 -3 q65 -14 129 -25t133 -23q-9 -42 -13.5 -86t-4.5 -85v-817q0 -47 2.5 -95t13.5 -93t31.5 -81t56.5 -55l-111 -38l-219 146q70 17 86 82q-176 224 -315 401q-59 76 -117.5 149.5t-105 131.5t-76 95.5t-32.5 43.5v-687q0 -47 3.5 -95t14 -93t32 -81t57.5 -55q-20 -5 -57.5 -17 t-55.5 -19l-244 144q34 3 53 25.5t27.5 54.5t11 69t2.5 67v545q0 93 -7.5 157.5t-17 105t-22.5 61t-23 27.5q-15 11 -31 11q-20 0 -35 -14q-13 -13 -13 -31v-4q2 -16 13.5 -24.5t24.5 -8.5q12 0 22 5l26 -118z" />
<glyph unicode="O" horiz-adv-x="1430" d="M0 652q0 133 32 243t105 197.5t187.5 151.5t280.5 105q12 4 43 10.5t69.5 13.5t78 13t67.5 11q12 -7 45.5 -31t80.5 -63t98 -90.5t97.5 -111.5t81.5 -126.5t47 -133.5q10 -42 13.5 -86t3.5 -79q0 -59 -12 -132.5t-41.5 -151t-78.5 -149t-124.5 -128.5t-179.5 -91 t-240 -34q-154 0 -276 47t-206 134t-128 209.5t-44 271.5zM183 696q0 -63 11.5 -136t35.5 -145.5t63.5 -139.5t94 -118t126.5 -81.5t163 -30.5q176 0 287 111q45 46 76.5 105.5t51 121.5t27.5 121.5t8 112.5q0 130 -38.5 251t-106.5 213t-163 147t-208 55q-120 0 -201.5 -55 t-132 -140.5t-72.5 -189.5t-22 -202z" />
<glyph unicode="P" horiz-adv-x="1080" d="M0 1173l108 207q72 -14 142 -20.5t142 -15.5q85 11 135.5 21t166.5 31q13 -4 45 -22.5t70.5 -50.5t77 -75.5t63.5 -95.5q20 -41 25 -87.5t5 -82.5q0 -68 -18.5 -121.5t-49.5 -93.5q-28 -35 -64 -66.5t-71.5 -56t-67 -38t-52.5 -14.5l-258 116v-355q0 -47 3.5 -95t14 -93 t31.5 -81t56 -55l-112 -38l-246 146q36 8 55.5 31.5t28 55t11 65.5t2.5 64v547q0 93 -7.5 156.5t-17 104t-22.5 60t-23 28.5q-15 11 -31 11q-20 0 -35 -14q-13 -13 -13 -31v-4q2 -16 13.5 -24.5t24.5 -8.5q12 0 22 5l26 -118zM399 797q7 -3 45.5 -23t81 -43t77 -42.5 t34.5 -21.5q25 10 57 37.5t61 68.5t48.5 96.5t19.5 123.5v9q0 32 -13.5 71.5t-37 79t-57.5 72.5t-75 53q-19 8 -40.5 11t-41.5 3q-45 0 -84.5 -13.5t-74.5 -38.5v-443z" />
<glyph unicode="Q" horiz-adv-x="1517" d="M0 652q0 133 35 242.5t108.5 197.5t189 152t274.5 107l258 46q13 -7 48 -32.5t81.5 -64t97.5 -90t96.5 -111t80 -125.5t46.5 -133q4 -22 6.5 -50t6.5 -52q2 -31 3 -62q0 -120 -27 -211t-60.5 -155.5t-66 -100.5t-42.5 -47q139 -117 259 -117h21v-3q0 -2 1 -3t1 -2 q-21 -20 -56 -34t-79 -14q-51 0 -116.5 21t-143.5 68q-85 -47 -176.5 -68t-186.5 -21q-154 0 -276 47t-206.5 134t-130.5 209.5t-46 271.5zM186 696q0 -63 12 -136t36 -145.5t63.5 -139.5t94 -118t127 -81.5t161.5 -30.5q154 0 266 97l-50 57l-52 68q-15 12 -27 24 q-12 8 -25 15t-27 11h-7q-4 0 -8.5 1t-7.5 1q-26 0 -41 -13q-21 -12 -22 -43q0 -12 9 -25q18 -21 43 -21h9l24 -38q-26 4 -44.5 5t-42.5 4l-45 5q6 51 13 99t13 98q57 13 109 24.5t111 24.5q9 -29 23.5 -55.5t42.5 -60.5l85 -85q41 81 70 181.5t29 187.5v10 q-1 130 -39.5 251t-106.5 213t-162 147t-207 55q-119 0 -199.5 -55t-131.5 -140.5t-73.5 -189.5t-22.5 -202z" />
<glyph unicode="R" horiz-adv-x="1458" d="M0 1173l108 207l276 -36l309 52q12 -4 44.5 -22.5t71 -49t77 -74.5t62.5 -98q20 -37 29 -85.5t9 -86.5q0 -72 -27 -131t-63.5 -102.5t-74 -74.5t-59.5 -43q16 -43 60 -117t103 -154.5t130.5 -150t145.5 -103.5q34 -18 80 -18q21 0 39.5 3.5t32.5 7.5q2 -4 3.5 -9.5 t1.5 -8.5q-24 -36 -75 -62.5t-105 -26.5q-56 0 -120 23t-134 71q-35 24 -72.5 67.5t-73.5 96.5t-70 111t-59.5 110.5t-44.5 93.5t-24 63l-195 89v-354q0 -48 4 -95t16.5 -92t35.5 -83t61 -62l-109 -38q-63 36 -124.5 73t-122.5 73q36 8 55.5 31.5t28 55t11 65.5t2.5 64v547 q0 95 -7.5 157.5t-17 102t-22.5 60t-23 29.5q-15 11 -31 11q-20 0 -35 -14q-13 -13 -13 -31v-4q2 -16 13.5 -24.5t24.5 -8.5q12 0 22 5l26 -118zM384 807q3 -2 9 -4t20 -9l70 -36q53 -28 97 -48l44 -22q21 11 55.5 34.5t66 59t54.5 85t23 108.5v27q0 31 -14.5 71t-39.5 79.5 t-58 72.5t-71 49q-39 20 -89 20q-36 0 -82 -10t-85 -37v-440z" />
<glyph unicode="S" horiz-adv-x="953" d="M0 464l20 -11q14 -8 25.5 -15t11.5 -10q63 -139 156 -206.5t228 -67.5q41 0 96.5 20.5t93.5 61.5q32 43 40 79t8 78q-6 41 -30 74.5t-61.5 62.5t-85 55t-99.5 53q-61 31 -120 69.5t-104.5 87t-73.5 108.5t-28 135q0 14 1.5 32t5.5 36q9 50 64 97.5t121 87t127.5 67 t88.5 38.5l265 -115q4 -36 7 -72t7 -71q3 -20 5 -40.5t3 -40.5l-50 -32q-16 57 -34 105t-47.5 80.5t-75.5 50.5t-116 18q-28 0 -66 -7.5t-71.5 -29t-57 -58.5t-23.5 -95q0 -51 24.5 -95.5t63.5 -82t91.5 -68.5t107.5 -60q66 -32 124.5 -66t103 -76t73.5 -97t34 -132v-9 q0 -61 -44.5 -125t-105 -121.5t-120.5 -101.5t-89 -64l-414 161q-19 81 -39.5 157t-40.5 155z" />
<glyph unicode="T" horiz-adv-x="1333" d="M0 1173l117 223l499 -52l501 52l116 -223l-179 -108l25 118q7 -3 26 -3q17 0 24 14q5 13 5 24v6q-3 31 -25 40q-15 7 -33 7q-11 0 -22 -2l-296 -52q-14 -6 -26.5 -14.5t-21.5 -33.5t-13 -72t-4 -124v-616q0 -47 2.5 -96t13 -93.5t30 -79.5t52.5 -52l11 -7l-116 -38 q-39 21 -73.5 44t-74.5 46q-23 14 -48.5 27.5t-49.5 28.5l12 3q32 7 49 28.5t25 50.5t9 64.5t1 73.5v616q0 77 -4.5 124t-13 72t-22 34.5t-32.5 13.5l-284 52q-12 2 -22 2q-18 0 -32 -7q-23 -9 -27 -40v-6q0 -11 6 -24q7 -14 25 -14q17 0 24 3l26 -118z" />
<glyph unicode="U" horiz-adv-x="1197" d="M0 1380h283v-935q2 -31 16.5 -76.5t56.5 -89t121.5 -76t216.5 -38.5h8q62 0 111 25t84 63t53.5 82.5t18.5 85.5v759q0 39 -5 63t-17 36.5t-32.5 17t-52.5 4.5q-9 0 -23.5 -1.5t-45.5 -8.5l55 105l249 -48q-4 -16 -7 -47.5t-5.5 -65.5t-4 -65.5t-1.5 -47.5v-799 q-6 -39 -35.5 -77.5t-72.5 -73t-94 -65t-97.5 -54.5t-85 -40t-55.5 -23q-24 7 -79 24t-119.5 38.5t-129 46t-110.5 48.5q-68 45 -68 74v779q0 65 -6.5 108t-14.5 68.5t-19 38.5t-18 16q-14 5 -25 5q-13 26 -26.5 68t-23.5 76z" />
<glyph unicode="V" horiz-adv-x="1129" d="M0 1396l283 -52l260 -1000q2 -12 7 -25q5 -21 18 -43q9 -14 37 -14q24 0 36.5 11t16.5 25q60 224 109 401q21 75 40.5 148.5t36 132t26.5 96t10 42.5q3 18 3 26v10q-1 50 -15.5 84t-50.5 54q-14 6 -26 6.5t-24 0.5q-20 0 -31.5 -0.5t-29.5 -4.5l-18 -3l52 105l289 -55 l-72 -214q-31 -89 -65 -206.5t-66.5 -239.5t-60 -236.5t-45.5 -196.5q-9 -48 -13.5 -83.5t-4.5 -58.5q0 -38 9 -43l13 -5q-18 -13 -31.5 -23t-31.5 -21l-30 -21l-287 125l9 5q52 26 52 89q0 32 -9 66t-18 69l-139 529q-17 59 -36 118.5t-37.5 109.5t-37.5 88.5t-35 58.5 q-3 6 -14 14.5t-23 8.5l-19 -2z" />
<glyph unicode="W" horiz-adv-x="1654" d="M0 1396l280 -50l278 -1061q3 -13 18.5 -18t32.5 -5q19 0 30.5 11t15.5 25q57 208 117.5 418.5t116.5 417.5h87q-8 -19 -14 -37t-15 -40q-11 -26 -20.5 -54t-18.5 -59l175 -653q4 -15 18 -22t34 -7q34 0 47 39l225 802q-7 58 -17.5 111t-55.5 80q-12 4 -22 6.5t-21 2.5 q-10 0 -21 -2t-22 -3q-2 0 -3.5 -1t-3.5 -1l-25 -5l50 103l288 -53q-1 -2 -1 -6q-2 -3 -2 -6q0 -2 -2 -7l-30 -86q-7 -19 -13.5 -41t-13 -42.5t-10 -36.5t-5.5 -21q-15 -54 -40.5 -139t-54 -184.5t-57.5 -203.5t-51 -195t-36.5 -161t-14.5 -101q0 -2 4.5 -20.5t20.5 -32.5 l-95 -65q-72 31 -141.5 63.5t-143.5 63.5q35 15 48 37t13 55q0 32 -8 66t-18 69q-22 79 -40 144q-15 56 -28.5 106t-16.5 65q-36 -126 -58.5 -219.5t-36 -158.5t-18.5 -107t-5 -68q0 -23 4 -32.5t19 -18.5l-93 -65q-74 31 -144.5 63.5t-142.5 63.5q35 17 46 39t11 53 q0 32 -7.5 66t-17.5 69q-25 96 -53 200.5t-54 201.5l-34 127q-15 56 -37 117t-45.5 115.5t-45 96.5t-32.5 60q-2 4 -7 8.5t-14 4.5l-15 -2z" />
<glyph unicode="X" horiz-adv-x="1172" d="M0 1173l118 223q14 -4 45.5 -10t65 -14t66 -16t48.5 -12q72 -127 131 -229q25 -43 48.5 -86.5t42 -76t31.5 -55.5t14 -25l314 508h112l-96 -133q-79 -129 -142 -229q-27 -43 -52.5 -85t-45.5 -75.5t-33 -53.5l-14 -21q2 -5 15.5 -32t34 -65.5t44.5 -87t50 -97.5 q58 -114 130 -257q31 -54 62.5 -96t82.5 -67q-21 -16 -40.5 -31.5t-39.5 -31.5l-31 -25q-68 23 -135 47.5t-135 47.5q25 14 37.5 35.5t12.5 47.5l-6 24q-53 110 -96 195q-18 38 -36 74t-32.5 64.5t-23 47.5t-10.5 23q-92 -147 -185 -304t-183 -305q-22 28 -42.5 52.5 t-41.5 50.5l14 15q6 5 11.5 9.5t7.5 5.5q12 14 29 33.5t43.5 57t66 96.5t97.5 149q38 63 70 111q12 22 25 41.5t22.5 35.5t17 26t7.5 11q-92 180 -152 289t-97 169t-54 81.5t-20 25.5q-14 11 -31 11q-19 0 -34 -14q-14 -13 -14 -31v-4q2 -16 13.5 -24.5t24.5 -8.5q12 0 23 5 l25 -118z" />
<glyph unicode="Y" horiz-adv-x="1186" d="M0 1173l116 223q32 -7 59.5 -13.5t53 -12.5t52.5 -12.5t59 -13.5l307 -528q77 138 161 282t161 282h117l-90 -125q-82 -140 -150 -251q-29 -48 -57.5 -95t-51 -85.5t-37.5 -64.5t-20 -34v-368q0 -47 3.5 -96t14 -94t31 -82t56.5 -56q-11 -4 -27 -8.5t-32.5 -10t-31 -10.5 t-21.5 -9q-44 25 -85 51t-86 53l-72 42q34 8 54.5 27t31 45.5t13.5 60t3 70.5v291q-84 166 -150 283t-112 190.5t-71 108t-27 36.5q-15 11 -31 11q-20 0 -35 -14q-13 -13 -13 -31v-4q2 -16 13.5 -24.5t24.5 -8.5q12 0 23 5l25 -118z" />
<glyph unicode="Z" horiz-adv-x="1164" d="M0 115q12 1 30 9.5t39.5 22.5t45.5 38.5t46 60.5q169 279 306 500q57 92 112.5 183.5t99.5 162.5t71.5 116t29.5 49q-77 21 -151.5 26.5t-149.5 5.5q-41 0 -78.5 -5t-78.5 -20q-79 -35 -79 -92q0 -20 13.5 -33.5t32.5 -13.5l17 -73q-56 30 -105.5 60t-102.5 60l134 208 h832q-160 -260 -276 -447t-197 -318t-132.5 -212.5t-81.5 -128t-45.5 -66.5t-22.5 -25q83 -50 166 -75.5t176 -25.5q54 0 100 14.5t81.5 34.5t60 41t32.5 36l118 -138q-14 -9 -42.5 -22.5t-77 -26t-116.5 -21.5t-159 -9q-45 0 -98 12.5t-98.5 27.5t-77 28t-32.5 15 q-53 -21 -107.5 -41.5t-106.5 -39.5z" />
<glyph unicode="[" horiz-adv-x="748" d="M0 1353l245 147h373l29 -97l-83 -87q-109 57 -170.5 58t-114.5 1q-20 -54 -24.5 -120.5t-4.5 -116.5l1 -409v-467q0 -50 4.5 -116.5t24.5 -120.5q53 0 114.5 1t170.5 58l83 -87l-29 -97h-373l-245 147q7 0 10 2q29 10 46 30.5t26 49.5t10.5 63t1.5 70l-1 440v436 q0 36 -1.5 70t-10.5 63t-26 49.5t-46 30.5q-3 2 -10 2z" />
<glyph unicode="\" horiz-adv-x="1054" d="M3 1380h112l314 -508q1 2 114 -188q0 -1 7.5 -11t17 -26t22.5 -35.5t25 -41.5q32 -48 70 -111q58 -90 97.5 -149t66 -96.5t43.5 -57t29 -33.5q2 -1 7.5 -5.5t11.5 -9.5l14 -15q-21 -26 -41.5 -50.5t-42.5 -52.5q-90 148 -183 305t-185 304q-118 179 -130 205 q-13 20 -33 53.5t-45.5 75.5t-52.5 85q-63 100 -142 229z" />
<glyph unicode="]" horiz-adv-x="748" d="M0 1403l29 97h373l245 -147q-7 0 -10 -2q-29 -10 -46 -30.5t-26 -49.5t-10.5 -63t-1.5 -70l1 -440v-436q0 -36 1.5 -70t10.5 -63t26 -49.5t46 -30.5q3 -2 10 -2l-245 -147h-373l-29 97l83 87q109 -57 170.5 -58t114.5 -1q20 54 24.5 120.5t4.5 116.5l-1 409v467 q0 50 -4.5 116.5t-24.5 120.5q-53 0 -114.5 -1t-170.5 -58z" />
<glyph unicode="^" horiz-adv-x="710" d="M0 1533q81 117 305 320q98 -59 158 -125q32 -37 69 -75.5t78 -78.5l-120 -125q-146 166 -217 206q-101 -93 -183 -201z" />
<glyph unicode="_" horiz-adv-x="996" d="M0 -87h896v-53h-896v53z" />
<glyph unicode="`" horiz-adv-x="503" d="M0 1698q0 27 17.5 44.5t46.5 17.5q18 0 36 -10.5t48 -41.5l255 -259h-60l-289 177q-27 17 -40.5 34.5t-13.5 37.5z" />
<glyph unicode="a" horiz-adv-x="963" d="M0 17l8 8q20 0 39.5 18t36.5 56q77 199 139 359q26 68 51 133t45 116.5t33 84t15 35.5q-16 36 -25.5 45t-24.5 9q-10 0 -21 -9t-11 -23q0 -15 11 -22.5t21 -7.5h11q6 0 9 2l-30 -68l-113 68l75 155q53 -9 112.5 -18t110.5 -17l324 -867q11 -27 47 -51q-6 -3 -18 -8 t-25 -10q-15 -6 -33 -12q-33 17 -63.5 36t-62.5 39q-13 6 -24.5 14t-23.5 16q16 4 28 10t23 19l-41 114h-424l-74 -186q-10 -21 -18.5 -32.5t-19.5 -20.5t-24 -9q-19 0 -35.5 8.5t-27.5 15.5zM234 322h357l-174 469z" />
<glyph unicode="b" horiz-adv-x="928" d="M0 821l75 145l201 -25q64 14 129 20t119 16q25 -12 52.5 -31t53.5 -42t46 -49t31 -53q15 -38 15 -73q0 -29 -8.5 -56.5t-21.5 -51t-26.5 -41.5t-23.5 -28q86 -28 136 -89t50 -153v-19l-4 -67q-7 -110 -91.5 -167t-231.5 -57h-229q-29 17 -56 33t-56 34l-56 33l6 3 q35 10 46 41t11 77v444q0 54 -4 91.5t-11.5 61.5t-15.5 37t-16 19q-10 8 -21 8q-14 0 -25 -10q-9 -9 -9 -21v-3q1 -11 9 -17.5t17 -6.5t16 4l18 -83zM276 226q0 -167 184 -167q38 0 76.5 12.5t71.5 35t55.5 54t28.5 70.5q2 6 2 13v12q0 25 -5.5 57t-16 64t-27.5 60.5 t-40 45.5q-28 22 -66 22q-18 0 -34 -3l-229 -64v-212zM276 496l264 77q29 9 46.5 29t26.5 43.5t11.5 46t2.5 36.5q0 28 -16.5 57t-42.5 54t-57.5 43t-61.5 28q-19 4 -45 4q-78 0 -128 -68v-350z" />
<glyph unicode="c" horiz-adv-x="923" d="M0 444q0 80 33 149t83 126.5t111 102.5t118 77.5t102 52t64 25.5l254 -148q-10 -31 -21 -59.5t-22 -58.5l-37 -96l-13 11q-13 11 -33 24q7 11 20.5 38.5t13.5 59.5q0 24 -14 45q-14 19 -39.5 30.5t-58 18t-68.5 9t-71 2.5q-111 0 -176 -65q-27 -29 -44 -71t-26.5 -86 t-13 -85t-3.5 -67q5 -77 28.5 -154.5t70 -139.5t118.5 -101t175 -39q53 0 97.5 27.5t78 62t54.5 66t25 38.5q5 -17 8.5 -29t8.5 -29q-12 -33 -26 -67t-26 -66q-28 -18 -69 -29.5t-85.5 -17t-87.5 -7t-76 -1.5q-88 0 -170.5 34.5t-146.5 100.5q-64 64 -100 147.5t-36 168.5z " />
<glyph unicode="d" horiz-adv-x="1014" d="M0 821l75 145l206 -25q1 1 33 6t71.5 10.5t77 12t52.5 8.5l83 -26q60 -19 109.5 -54.5t88.5 -83t64.5 -102t40.5 -110.5q7 -31 10 -64t3 -63q0 -62 -11.5 -121t-28 -109t-38 -87t-40.5 -58q-15 -19 -56.5 -37.5t-91 -34.5t-98 -25.5t-74.5 -9.5q-11 0 -15 1l-361 110 q6 1 7.5 2t5.5 2q21 6 33 21.5t17.5 35t7 43.5t1.5 47v365q0 67 -5.5 113t-12.5 76t-16 45t-18 20q-10 8 -21 8q-14 0 -25 -10q-9 -9 -9 -21v-3q1 -11 9 -17.5t17 -6.5t16 4l18 -83zM281 157q0 -24 21.5 -42.5t53 -31.5t64 -20t54.5 -7q45 0 89 20t80 57q54 56 84 145.5 t30 198.5v19q-2 79 -28.5 149t-66.5 125.5t-91 91.5t-102 49q-14 2 -26 4t-26 2q-91 0 -136 -85v-675z" />
<glyph unicode="e" horiz-adv-x="872" d="M0 893l38 73l106 -13q40 -5 73 -8.5t36 -3.5l236 36l80 -31q52 -22 95.5 -53t80.5 -64l-91 -94q-22 35 -53 66.5t-64.5 55t-69 36.5t-67.5 13h-5q-46 -3 -82 -25.5t-60 -66.5v-302h76q28 0 57.5 1.5t55.5 7t47 15.5t32 28l23 -62l-84 -118q-5 16 -17.5 25t-30 13t-39 5 t-44.5 1h-76v-271q0 -24 22.5 -42.5t53 -31.5t64 -20t54.5 -7q67 0 125.5 41t96.5 112l103 -106q-30 -20 -70 -40t-83.5 -36t-87.5 -25t-81 -9l-364 105q30 12 44.5 45.5t14.5 93.5v538q-9 46 -22 77t-34 42q-17 6 -34 6q-7 0 -13.5 -0.5t-13.5 -1.5t-15 -3z" />
<glyph unicode="f" horiz-adv-x="845" d="M0 893l38 73q59 -7 107 -13q20 -2 39.5 -4t34.5 -4t24.5 -3t10.5 -1l235 36l79 -30q52 -20 96 -52.5t81 -65.5l-91 -94q-22 35 -53 66.5t-64.5 55t-69 36.5t-67.5 13h-5q-46 -3 -82 -25.5t-60 -66.5v-301h76q28 0 57.5 1.5t55.5 6.5t47 15t32 28l23 -62l-84 -118 q-5 16 -17.5 25t-30 13t-39 5t-44.5 1h-76v-181q0 -33 2.5 -66.5t9.5 -64.5t20 -55t34 -36l8 -5l-79 -26l-172 102q5 0 8 1q20 6 33 20.5t18.5 35t7 45t1.5 49.5v528q-8 46 -21 77t-34 42q-17 6 -34 6q-7 0 -15.5 -1t-17.5 -2q-10 -3 -22 -4z" />
<glyph unicode="g" horiz-adv-x="945" d="M0 450q0 82 34 151.5t86 126.5t115 101t120 75.5t101.5 49.5t60.5 23l71 -39q47 -27 93.5 -57t94.5 -60q-17 -46 -33 -91t-33 -92q-13 7 -24 12t-25 12q7 17 14.5 38.5t7.5 43.5q0 10 -3.5 22.5t-9.5 23.5q-14 19 -39.5 31t-58.5 18.5t-71 9.5t-74 3q-54 0 -99 -12 t-78 -45q-26 -30 -43 -72.5t-27 -87t-14 -84.5t-4 -65q5 -78 29 -156.5t72 -142t122.5 -103t178.5 -39.5q92 0 135.5 31.5t43.5 99.5v114q0 54 -24.5 91t-50.5 49q-11 5 -25 5q-18 0 -29 -7q-20 -16 -20 -53q0 -17 3 -34.5t8 -34.5q0 -3 1 -5l-85 -60v33q0 21 -1 38 q0 19 -1 35t-1 25l43 48q24 28 50 58.5t49 56.5l185 -95v-357q-33 -22 -87 -38.5t-111 -28t-107 -17.5t-77 -6q-92 0 -177 36t-153 105q-62 63 -97.5 146.5t-35.5 169.5z" />
<glyph unicode="h" horiz-adv-x="1001" d="M0 821l81 156q29 -6 49 -9t48 -8l103 -18v-410h431v434h128v-6q0 -4 -0.5 -5.5t-0.5 -3.5q-2 -11 -4 -30t-4 -39.5t-4 -39t-2 -27.5v-566q0 -33 2 -67t8 -65t17.5 -54.5t31.5 -36.5l17 -7l-81 -26l-172 103l5 1q22 5 33.5 18.5t17 33t7 42.5t1.5 48v211h-431v-201 q0 -32 3 -66t11 -64.5t21.5 -56t32.5 -38.5l7 -5l-80 -26q-29 16 -55.5 31.5t-54.5 33.5l-61 38q6 0 7 1q20 6 32 21t18.5 35t8 44.5t1.5 51.5v386q0 68 -5.5 111.5t-13.5 70t-16.5 39.5t-16.5 18q-10 8 -21 8q-14 0 -24 -9.5t-10 -24.5q1 -11 9 -17.5t17 -6.5t16 4l18 -83z " />
<glyph unicode="i" horiz-adv-x="447" d="M0 821l81 156q14 -3 26 -6t32 -6.5t51.5 -9.5t82.5 -14v-691q0 -33 2 -67.5t9 -66t20 -56t36 -35.5l7 -5l-79 -26q-29 16 -54.5 31t-54.5 33l-64 38l7 2q23 5 35 20t17.5 35t6 45.5t0.5 51.5v386q0 65 -3 107.5t-8.5 69t-13 40.5t-16.5 21q-10 8 -21 8q-14 0 -25 -10 q-9 -9 -9 -21v-3q1 -11 9 -17.5t17 -6.5t16 4l18 -83z" />
<glyph unicode="j" horiz-adv-x="702" d="M0 110l54 230l53 -28l-11 -17q-6 -19 -6 -49q0 -40 20.5 -67.5t44.5 -44.5q28 -20 62.5 -30t69.5 -10q28 0 51.5 5.5t36.5 18.5q23 14 36.5 72.5t13.5 144.5v450q0 20 -1.5 43t-10 41.5t-24.5 30.5t-44 12h-9q-10 -1 -20 -2.5t-22 -4.5l33 73q57 -8 111 -17t112 -18 l-16 -99v-509q0 -26 1 -50t6.5 -44t17.5 -34t34 -20l9 -3l-315 -190q-74 29 -143.5 58t-143.5 58z" />
<glyph unicode="k" horiz-adv-x="1039" d="M0 821l80 156q29 -6 51 -10t50 -8q26 -4 49.5 -8.5t48.5 -9.5v-472l325 497h110q-8 -10 -23 -29t-31.5 -40t-30.5 -40.5t-21 -28.5q-44 -68 -79 -121q-15 -22 -29.5 -45t-25.5 -40t-19 -29t-9 -15q19 -41 48.5 -95.5t67 -113t80 -115.5t87.5 -101.5t88.5 -72t84.5 -27.5 q18 0 35 6q1 0 2 1v-6q-1 0 -1 -1v-2q-13 -15 -38.5 -31t-51.5 -22q-9 -3 -20.5 -4t-17.5 -1q-86 0 -182 69q-29 22 -66 70.5t-74.5 106t-71.5 114.5t-55 96q-3 -4 -9 -13.5t-12 -18.5q-8 -13 -18 -27q-11 -16 -20 -29q-8 -11 -14 -19.5t-9 -8.5v-83q0 -33 2 -67.5 t9.5 -65.5t20.5 -55.5t36 -36.5h-1l9 -5l-80 -26q-56 31 -109 64l-64 38l8 2h-1q22 5 34 20t17.5 35t7 45.5t1.5 51.5v386q0 68 -5 111t-12.5 70t-15.5 39.5t-16 17.5q-10 8 -21 8q-14 0 -25 -10q-9 -9 -9 -21v-3q1 -11 9 -17.5t17 -6.5t16 4l18 -83z" />
<glyph unicode="l" horiz-adv-x="874" d="M0 905l33 72l213 -40v-683q0 -36 3 -82t17 -84h187q39 0 82 7.5t81.5 34.5t67 78.5t40.5 138.5q15 -21 25 -36t25 -36q-19 -68 -40.5 -137.5t-41.5 -137.5h-450l-171 103q4 0 7 1q20 7 32 21.5t18 35t7.5 44t1.5 49.5v407q0 24 -1.5 62t-6.5 76t-16 67t-31 39q-8 3 -30 3 q-28 0 -52 -3z" />
<glyph unicode="m" horiz-adv-x="1097" d="M0 821l81 156q29 -6 49 -10t48 -8l103 -18v-93l126 -174q24 -33 47 -65t41.5 -57t30.5 -40.5t13 -17.5q8 10 31 41.5t53.5 71.5t64 84.5t61.5 81.5t46.5 62.5t18.5 26.5v104h125l-11 -85l-4 -38q-1 -9 -1 -15v-578q0 -33 2.5 -67.5t10 -66t22 -57t39.5 -39.5l-79 -26 q-33 20 -66.5 43t-86.5 61q23 5 36 19.5t18.5 35t7 46t1.5 51.5v480l-289 -364l-123 156q-24 30 -46.5 58t-41.5 52t-31.5 39.5t-15.5 19.5v-441q0 -33 2.5 -67.5t10.5 -66t23 -56.5t40 -40l-80 -26q-18 8 -34 17.5t-35.5 21.5t-45 27t-58.5 36q24 3 37.5 20t19.5 39 t7.5 46.5t1.5 42.5v392q0 68 -5 111t-12.5 69.5t-16 39t-16.5 18.5q-10 8 -21 8q-14 0 -25 -10q-9 -9 -9 -21v-3q1 -11 9 -17.5t17 -6.5t16 4l18 -83z" />
<glyph unicode="n" horiz-adv-x="1002" d="M0 821l81 156q36 -6 62.5 -11t49.5 -9t43.5 -8.5t41.5 -7.5v-79q1 -6 25.5 -41t78.5 -106.5t140.5 -184.5t213.5 -274v529q0 19 -4 41t-12.5 40t-23 31t-36.5 13q-11 0 -24 -1.5t-28 -3.5q-3 0 -4.5 -1t-3.5 -1q11 26 19.5 43t17.5 31q6 -1 10.5 -2.5t10.5 -2.5 q45 -10 90 -17.5t93 -16.5q-6 -28 -9 -59t-3 -60v-572q0 -33 2 -66.5t9.5 -65t22 -56.5t39.5 -39l-78 -26l-153 102q49 12 60 57q-123 157 -221 281q-41 53 -82 104.5t-73.5 92t-53 67t-23.5 30.5v-481q0 -33 2.5 -66.5t10 -65t22.5 -56.5t41 -39q-14 -3 -40.5 -11.5 t-38.5 -13.5l-171 101q24 2 37 17.5t19 38.5t7.5 48.5t1.5 46.5v381q0 66 -5 111t-12 73t-15.5 42.5t-16.5 19.5q-10 8 -21 8q-14 0 -25 -10q-9 -9 -9 -21v-3q1 -11 9 -17.5t17 -6.5t16 4l18 -83z" />
<glyph unicode="o" horiz-adv-x="1031" d="M0 456q0 93 23 170.5t73.5 138.5t131 106t196.5 73q8 3 30 7.5t48.5 9.5t54.5 9t48 8q8 -5 31.5 -21.5t56 -44.5t68.5 -63.5t68.5 -77.5t57 -88.5t33.5 -93.5q6 -30 8.5 -60.5t2.5 -55.5q0 -41 -8 -92.5t-28.5 -105.5t-55.5 -104t-87.5 -90.5t-125.5 -64t-168 -23.5 q-107 0 -192.5 33t-144.5 94t-90 146.5t-31 189.5zM128 487q0 -44 8.5 -95t25 -102t44.5 -97.5t66 -82.5t88.5 -57.5t113.5 -21.5q123 0 201 78q31 32 53.5 74t36 85t19 85t5.5 79q0 91 -27 175.5t-74.5 149t-114 103t-145.5 38.5q-84 0 -141 -38.5t-92.5 -98.5t-51 -132.5 t-15.5 -141.5z" />
<glyph unicode="p" horiz-adv-x="786" d="M0 821l75 145q50 -10 99 -14.5t99 -10.5q60 7 95.5 14t116.5 22q9 -3 31.5 -16t49.5 -35.5t54 -52.5t44 -66q14 -29 18 -62t4 -58q0 -48 -13.5 -85t-34.5 -65q-20 -25 -45 -47t-50 -39t-47 -26.5t-37 -10.5l-181 82v-249q0 -33 2.5 -66.5t10 -65t22 -56.5t39.5 -39 l-79 -26l-172 102q25 6 39 22t20 38t7.5 46t1.5 45v383q0 65 -5 109.5t-12 72.5t-15.5 42t-16.5 20q-10 8 -21 8q-14 0 -25 -10q-9 -9 -9 -21v-3q1 -11 9 -17.5t17 -6.5t16 4l18 -83zM278 558q5 -2 32 -16t57 -30t54 -30t24 -15q18 7 40 26t42.5 48t34 67.5t13.5 86.5v6 q0 23 -9.5 50.5t-25.5 55t-40 51t-53 36.5q-13 6 -28 8.5t-29 2.5q-32 0 -59.5 -9.5t-52.5 -27.5v-310z" />
<glyph unicode="q" horiz-adv-x="1092" d="M0 456q0 93 24.5 170t76 138.5t132.5 106.5t192 75l181 32q9 -5 33.5 -23t57 -45t68.5 -62.5t67.5 -77.5t55.5 -88t33 -93q3 -16 5 -35.5t4 -36.5q1 -21 2 -43q0 -84 -19 -148t-42.5 -109t-46 -70t-29.5 -33q97 -82 182 -82h14v-2q0 -1 0.5 -1.5t0.5 -2.5 q-14 -14 -38.5 -23.5t-55.5 -9.5q-36 0 -81.5 15t-100.5 47q-60 -32 -124 -47t-130 -15q-108 0 -193.5 33t-144.5 94t-91.5 146.5t-32.5 189.5zM131 487q0 -44 8 -95t25 -102t44.5 -97.5t66 -82.5t89 -57.5t113.5 -21.5q107 0 186 68l-36 40l-36 48q-10 8 -19 16 q-8 6 -17 11t-19 8h-5q-3 0 -6 1t-5 1q-18 0 -29 -10q-14 -8 -15 -30q0 -8 6 -17q13 -15 30 -15h6l17 -26q-18 2 -31 2.5t-30 3.5l-31 3q4 36 9 69.5t9 68.5q40 9 76.5 17t77.5 17q6 -20 16.5 -38.5t29.5 -42.5l60 -59q28 57 48.5 127t20.5 131v7q-1 91 -28 175.5t-74.5 149 t-113 103t-144.5 38.5q-84 0 -140 -38.5t-92 -98.5t-51.5 -132.5t-15.5 -141.5z" />
<glyph unicode="r" horiz-adv-x="1050" d="M0 821l75 145l193 -25l216 36q9 -3 31.5 -16t49.5 -34t54 -52t44 -68q14 -27 20 -61t6 -60q0 -50 -18.5 -91.5t-44.5 -72t-52 -52t-42 -30.5q12 -30 42.5 -82t72 -108t91.5 -104.5t102 -72.5q24 -13 56 -13q14 0 27.5 2.5t22.5 5.5q2 -3 3 -6.5t1 -6.5q-17 -25 -53 -43.5 t-73 -18.5q-39 0 -84 16t-94 50q-24 16 -50.5 47t-51.5 68t-49 77.5t-42 77t-31 65.5t-17 44l-136 62v-248q0 -33 3 -66t11.5 -64.5t24.5 -58t43 -43.5l-76 -26q-45 25 -88 50.5t-86 51.5q25 6 39 22t20 38t7.5 46t1.5 45v383q0 66 -5 110t-12 71.5t-15.5 42t-16.5 20.5 q-10 8 -21 8q-14 0 -25 -10q-9 -9 -9 -21v-3q1 -11 9 -17.5t17 -6.5t16 4l18 -83zM268 565q2 -1 7 -3q3 -2 13 -6l49 -26q37 -19 68 -33q16 -8 31 -16q15 8 39 24.5t46 41.5t38 59.5t16 75.5v19q0 22 -10 50t-27.5 55.5t-40.5 51t-50 34.5q-27 14 -62 14q-25 0 -57.5 -7 t-59.5 -26v-308z" />
<glyph unicode="s" horiz-adv-x="697" d="M0 325l14 -8q10 -6 18.5 -11t8.5 -6q43 -98 108.5 -145t159.5 -47q29 0 68 14.5t65 42.5q23 30 28.5 55.5t5.5 54.5q-4 29 -21 52.5t-43 43.5t-59.5 38.5t-69.5 37.5q-43 21 -84.5 48t-73.5 61t-51.5 76t-19.5 94q0 10 1.5 22.5t3.5 25.5q7 35 45 68.5t84.5 61t89.5 47 t62 26.5l186 -80q2 -25 4.5 -50.5t4.5 -50.5q2 -13 3.5 -27.5t2.5 -28.5l-35 -23q-11 41 -24 74t-33.5 56t-52.5 35.5t-81 12.5q-20 0 -46.5 -5.5t-50 -20.5t-40 -40.5t-16.5 -65.5q0 -37 17 -67.5t44.5 -57t64 -48.5t75.5 -42q46 -22 87 -46t72 -53.5t51.5 -68t23.5 -92.5 v-6q0 -43 -31 -88t-73.5 -85t-84 -71t-62.5 -44l-289 113q-14 56 -28.5 109.5t-28.5 108.5z" />
<glyph unicode="t" horiz-adv-x="963" d="M0 821l81 156l349 -36l351 36l82 -156l-126 -76l18 83q5 -2 18 -2q12 0 17 10q3 9 3 17v4q-2 21 -17 28q-11 4 -24 4q-7 0 -15 -1l-207 -36q-10 -4 -19 -10.5t-15 -23.5t-9 -50t-3 -87v-431q0 -33 2 -67.5t9 -65.5t21 -55.5t37 -36.5l8 -5l-81 -26q-28 15 -52 30.5 t-52 31.5q-16 11 -34 20t-35 20l9 2q22 5 34 20t17.5 35t6 45.5t0.5 51.5v431q0 54 -3 87t-9 50t-15.5 24t-22.5 10l-199 36q-8 1 -15 1q-13 0 -23 -4q-16 -7 -18 -28v-4q0 -8 3 -17q5 -10 18 -10q12 0 17 2l18 -83z" />
<glyph unicode="u" horiz-adv-x="868" d="M0 966h199v-655q1 -21 11 -53t39.5 -62.5t85 -53.5t151.5 -27h6q43 0 77.5 18t59 44t37.5 57.5t13 60.5v531q0 27 -3.5 44t-12 26t-23 12t-36.5 3q-7 0 -17 -1.5t-31 -6.5l38 74l174 -34q-3 -11 -4.5 -33t-3.5 -46t-3.5 -46t-1.5 -33v-559q-3 -28 -24 -54.5t-51 -50.5 t-66 -45.5t-68 -38.5t-59 -28t-39 -16q-17 5 -55.5 16.5t-83.5 26.5t-90 32.5t-78 34.5q-48 31 -48 51v546q0 45 -4.5 75t-10 48.5t-13 27t-12.5 11.5q-10 3 -17 3q-9 18 -18.5 47.5t-17.5 53.5z" />
<glyph unicode="v" horiz-adv-x="821" d="M0 977l199 -36l182 -700q1 -9 5 -17q3 -16 12 -31q6 -10 26 -10q17 0 25.5 7.5t11.5 17.5q42 157 76 281q15 53 29 104.5t25 92t18 67t7 30.5q3 12 3 18v7q-1 35 -11.5 59t-35.5 38q-9 3 -17.5 4t-17.5 1q-14 0 -22 -1t-20 -3l-13 -3l36 74l203 -39l-51 -149 q-21 -63 -45 -145t-46.5 -167.5t-42 -165.5t-32.5 -138q-6 -33 -9 -58t-3 -41q0 -26 6 -30l9 -4q-12 -9 -21.5 -15.5t-22.5 -14.5l-21 -15l-201 88l7 3q36 18 36 62q0 23 -6 46.5t-13 48.5l-98 370q-11 42 -24.5 83t-26.5 76.5t-26 62.5t-24 41q-3 4 -10.5 10t-16.5 6 l-12 -1z" />
<glyph unicode="w" horiz-adv-x="1188" d="M0 977l196 -35l195 -742q2 -10 12.5 -13.5t22.5 -3.5q14 0 22 7.5t11 17.5q39 146 81.5 293.5t82.5 292.5h60q-5 -14 -9.5 -26.5t-10.5 -27.5q-8 -18 -14.5 -38t-12.5 -41l122 -458q3 -10 13 -15t24 -5q24 0 32 28l158 561q-5 41 -12.5 78t-38.5 56q-9 2 -16 4t-14 2 q-8 0 -15.5 -1t-14.5 -3q-1 0 -2.5 -0.5t-2.5 -0.5l-18 -4l35 73l202 -38q-1 -1 -1 -3q-1 -3 -1 -5q0 -1 -2 -5l-21 -60q-5 -13 -9 -28.5t-9 -29.5t-7.5 -25.5t-3.5 -15.5q-11 -37 -28.5 -97t-37.5 -129.5t-40.5 -142t-36 -136.5t-25.5 -113t-10 -70q0 -1 3 -14.5t15 -23.5 l-67 -45q-50 22 -99 44.5t-100 44.5q24 10 33 26t9 38q0 23 -5.5 46.5t-12.5 48.5q-15 55 -28 101q-10 39 -19.5 74t-12.5 45q-25 -88 -40.5 -153.5t-25 -111t-13 -75t-3.5 -46.5t3 -23.5t13 -13.5l-65 -45q-52 22 -101 44.5t-100 44.5q24 12 32 27.5t8 36.5q0 23 -5.5 46.5 t-11.5 48.5q-18 67 -37.5 140t-37.5 141l-24 89q-11 39 -26.5 81.5t-31.5 81t-31 68t-23 42.5q-1 2 -5 5t-10 3l-10 -1z" />
<glyph unicode="x" horiz-adv-x="851" d="M0 821l82 156q10 -3 32 -7t46 -9.5t46.5 -11.5t33.5 -8q51 -89 92 -161q17 -30 33.5 -60t29.5 -53t22 -39t10 -17l220 355h79l-68 -93q-56 -90 -99 -161q-19 -30 -37 -59t-32 -52.5t-23 -37.5l-10 -15q2 -3 11.5 -22t23.5 -46t31 -61t35 -68q41 -80 91 -180 q21 -38 43.5 -67.5t58.5 -47.5q-15 -11 -29 -21.5t-28 -22.5l-21 -17q-48 16 -95 33t-94 33q17 11 26 26t9 32l-4 18q-37 76 -68 136q-12 27 -24.5 52t-23 45t-16.5 33.5t-7 15.5q-64 -103 -129.5 -212.5t-127.5 -213.5q-16 19 -30.5 36.5t-28.5 35.5l10 10q3 4 7 7t5 4 q9 10 21 23.5t30.5 40t46 67.5t68.5 104q26 44 49 78q8 15 17 29t16 25t12 18t5 8q-64 126 -106 202.5t-68 118.5t-38 57t-14 17q-10 8 -21 8q-14 0 -24 -10q-10 -9 -10 -21v-3q1 -11 9.5 -17.5t16.5 -6.5q9 0 17 4l17 -83z" />
<glyph unicode="y" horiz-adv-x="860" d="M0 821l82 156q22 -5 41 -9.5t37 -8.5t37 -8.5t42 -9.5l214 -370q54 97 113 197.5t113 197.5h81l-62 -88q-58 -98 -105 -175q-21 -34 -40.5 -67t-35.5 -60t-26.5 -45t-13.5 -23v-258q0 -33 2 -67.5t9.5 -66t22 -57t39.5 -39.5q-8 -2 -19 -5.5t-22.5 -7t-21.5 -7.5l-15 -6 q-31 17 -60 35.5t-60 37.5l-50 29q23 6 37.5 19t22 31.5t9.5 42t2 49.5v204q-59 116 -105.5 198t-78.5 133t-49.5 75.5t-18.5 25.5q-11 8 -22 8q-14 0 -24 -10q-9 -9 -9 -21v-3q1 -11 9 -17.5t17 -6.5t16 4l18 -83z" />
<glyph unicode="z" horiz-adv-x="845" d="M0 80q8 1 20.5 7t27.5 16t32 27t32 42q119 196 215 350q40 65 78.5 129t69.5 113.5t50.5 81t20.5 34.5q-54 14 -106 18t-105 4q-28 0 -54.5 -3.5t-55.5 -14.5q-55 -23 -55 -64q0 -13 9.5 -22.5t22.5 -9.5l12 -52q-39 22 -73.5 42.5t-72.5 41.5l95 146h582 q-112 -182 -193 -313t-138 -222.5t-93 -148.5t-57 -90t-32 -46.5t-15 -17.5q57 -35 115.5 -52.5t123.5 -17.5q37 0 69.5 10t57.5 23.5t42 28.5t23 26l82 -97q-9 -6 -29.5 -15.5t-54 -18.5t-81.5 -15t-111 -6q-32 0 -69 8.5t-69 19t-54 19.5t-23 10q-37 -14 -75 -28t-74 -28z " />
<glyph unicode="{" horiz-adv-x="886" d="M3 619l97 135l35 -2q114 94 118 245l2 223q10 45 48 88q43 47 95 86.5t100 67t69 38.5l208 -115q3 -36 5.5 -72t5.5 -71l-113 -113q-13 57 -27 105t-32 80.5t-75 68.5q-84 -28 -112 -95q-8 -15 -9 -33q-4 -59 -4 -255q-9 -147 -165 -286q148 -16 158 -312l1 -195 q0 -58 18.5 -95t44.5 -58.5t68 -36.5q57 36 80 68.5t37 80.5t27 105l103 -113q-3 -35 -5.5 -71t-5.5 -72l-208 -115q-21 11 -69 38.5t-100 67t-95 87t-50 97.5l-1 222q-2 198 -175 208z" />
<glyph unicode="|" horiz-adv-x="467" d="M-3 1562l113 38q41 -23 78 -45t78 -46l91 -55l-10 -3q-33 -7 -50 -28.5t-25 -50.5t-8.5 -64.5t-0.5 -73.5v-543h-1v-534q0 -47 2.5 -96t12 -94t28.5 -80t51 -51l11 -7l-113 -38q-41 23 -78 45t-78 46l-91 55l10 3q33 7 50 28.5t25 50.5t8.5 64.5t0.5 73.5v543l1 534 q0 47 -2.5 96t-12 94t-28.5 80t-51 51z" />
<glyph unicode="}" horiz-adv-x="886" d="M3 158l113 113q12 -57 26.5 -105t32.5 -80.5t75 -68.5q84 28 112 95q8 15 9 33q3 59 4 255q9 147 165 286q-149 16 -159 312v195q0 58 -18.5 95t-45 58.5t-67.5 36.5q-57 -36 -80 -68.5t-37.5 -80.5t-26.5 -105l-103 113q3 35 5.5 71t5.5 72l208 115q21 -11 69 -38.5 t100 -67t95 -87t50 -97.5l1 -222q2 -198 175 -208l74 1l-97 -135l-36 2q-113 -94 -117 -245l-2 -223q-10 -45 -48 -88q-43 -47 -95 -86.5t-100 -67t-69 -38.5l-208 115q-3 36 -5.5 72t-5.5 71z" />
<glyph unicode="~" horiz-adv-x="874" d="M0 1476l183 183q124 55 185 55q41 0 103.5 -38.5t105.5 -38.5q54 0 197 53l-182 -171q-104 -27 -137 -27q-39 0 -104.5 35t-110.5 35q-60 -5 -240 -86z" />
<glyph unicode="&#xa1;" horiz-adv-x="317" d="M0 113l62 860l85 57l70 -914l-178 -126zM21 1247v101l88 49l86 -49v-101l-86 -52z" />
<glyph unicode="&#xa2;" horiz-adv-x="870" d="M0 653q0 69 30.5 128t77.5 108t104 87.5t110 66.5q26 13 49 24q-5 29 -13 52q-9 25 -24 36l-5 5l53 26q19 -16 36 -31.5t37 -31.5l17 -16q3 1 5 2l238 -126q-9 -27 -19.5 -51t-21.5 -50l-33 -82l-13 8q-13 10 -31 21q7 9 19.5 33t12.5 51q0 21 -14 38q-12 16 -36 26.5 t-54 16t-64 7.5l-7 1v-312h-1v-234q0 -33 1 -67t6 -66q0 -4 1 -8q25 -3 54 -3q49 0 91 24t73.5 53t51 56t22.5 33q4 -15 8 -24.5t9 -25.5q-13 -28 -25.5 -57t-24.5 -57q-26 -15 -64 -24.5t-79.5 -14.5t-81.5 -6q-12 -1 -22 -1v-1q9 -24 24 -35l5 -5l-53 -27q-19 16 -36 31.5 t-37 32.5l-8 7q-53 6 -104 26q-77 30 -137 86q-60 54 -93.5 125.5t-33.5 144.5zM148 683q5 -65 27 -131.5t65.5 -119.5t110.5 -87q8 -4 17 -7q3 10 5 22q4 20 4 45v291h1v234q0 33 -1 67v6q-92 -4 -147 -56q-26 -25 -42 -61t-24.5 -73.5t-12 -72.5t-3.5 -57z" />
<glyph unicode="&#xa3;" horiz-adv-x="1118" d="M0 622l120 168q7 -22 25 -35t43 -19q9 -2 19 -4v306q0 14 1.5 32t5.5 36q9 50 64 97.5t121 87t127.5 67t88.5 38.5l265 -115q4 -36 7 -72t7 -71q3 -20 5 -40.5t3 -40.5l-50 -32q-16 57 -34 105t-47.5 80.5t-75.5 50.5t-116 18q-28 0 -66 -7.5t-71.5 -29t-57 -58.5 t-23.5 -95l1 -361h54v-1h23q40 0 82 1.5t79.5 9.5t67 22.5t45.5 39.5l33 -88l-120 -168q-7 22 -25 35t-43 19t-55.5 7t-63.5 1h-77l1 -244q0 -50 4.5 -141.5t54.5 -95.5h137q56 0 117.5 11t116 49.5t96 112t57.5 198.5q21 -30 35.5 -51.5t36.5 -51.5q-27 -97 -57.5 -196.5 t-59.5 -196.5h-733l-165 149q49 10 116 30.5t76 49.5t10.5 63t1.5 70v243q-32 -3 -61 -9q-38 -8 -67.5 -22.5t-45.5 -39.5z" />
<glyph unicode="&#xa4;" horiz-adv-x="1172" d="M0 1173l118 223q14 -4 45.5 -10t65 -14t66 -16t48.5 -12q72 -127 131 -229q8 -13 15 -26q30 18 65 32q5 3 20 7.5t31 9t29.5 8t14.5 3.5q42 -41 77 -90l198 321h112l-96 -133q-79 -129 -142 -229q-12 -19 -24 -39q6 -10 11 -21q27 -57 35 -120q2 -25 3 -53.5t1 -52.5 q0 -59 -12 -128q-9 -45 -24 -86q5 -9 9 -17q58 -114 130 -257q31 -54 62.5 -96t82.5 -67q-21 -16 -40.5 -31.5t-39.5 -31.5l-31 -25q-68 23 -135 47.5t-135 47.5q25 14 37.5 35.5t12.5 47.5l-6 24q-42 87 -78 159q-37 -18 -85 -18q-57 0 -103 27q-28 16 -51 42l-66 -110 q-93 -157 -183 -305q-22 28 -42.5 52.5t-41.5 50.5l14 15q6 5 11.5 9.5t7.5 5.5q12 14 29 33.5t43.5 57t66 96.5t97.5 149q7 11 13 21q-18 37 -29 82q-18 71 -18 157q0 132 41 223q-9 16 -17 31q-60 109 -97 169t-54 81.5t-20 25.5q-14 11 -31 11q-19 0 -34 -14 q-14 -13 -14 -31v-4q2 -16 13.5 -24.5t24.5 -8.5q12 0 23 5l25 -118zM456 743q0 -44 6.5 -96.5t21 -98t38.5 -76t58 -30.5q35 0 57 28t34.5 69.5t17 86t4.5 76.5v4q0 53 -9.5 108t-27 99.5t-41.5 72.5t-53 28t-49.5 -25.5t-33 -65t-18 -87.5t-5.5 -93z" />
<glyph unicode="&#xa5;" horiz-adv-x="1186" d="M0 1173l116 223q32 -7 59.5 -13.5t53 -12.5t52.5 -12.5t59 -13.5l307 -528q77 138 161 282t161 282h117l-90 -125q-82 -140 -150 -251q-29 -48 -57.5 -95t-51 -85.5t-37.5 -64.5q-10 -18 -16 -27q33 0 68 2q42 1 79.5 9t67 22.5t45.5 39.5l33 -88l-120 -168q-7 22 -25 35 t-43 19t-55 7q-26 1 -54 1v-189q35 0 72 2q42 1 79.5 9t67 22.5t45.5 39.5l33 -88l-120 -168q-7 22 -25 35t-43 19t-55 7q-26 1 -53 1q1 -20 3 -40q3 -49 13.5 -94t31 -82t56.5 -56q-11 -4 -27 -8.5t-32.5 -10t-31 -10.5t-21.5 -9q-44 25 -85 51t-86 53l-72 42q34 8 54.5 27 t31 45.5t13.5 60.5q1 15 2 32q-37 0 -75 -1q-42 -2 -79.5 -10t-67 -22.5t-45.5 -39.5l-33 88l120 168q7 -22 25 -35t43 -19t56 -7q27 -1 57 -1v189q-37 0 -76 -1q-42 -2 -79.5 -10t-67 -22.5t-45.5 -39.5l-33 88l120 168q7 -22 25 -35t43 -19t56 -7h4q-52 101 -97 180 q-66 117 -112 190.5t-71 108t-27 36.5q-15 11 -31 11q-20 0 -35 -14q-13 -13 -13 -31v-4q2 -16 13.5 -24.5t24.5 -8.5q12 0 23 5l25 -118z" />
<glyph unicode="&#xa6;" horiz-adv-x="467" d="M-3 1562l113 38q41 -23 78 -45t78 -46l91 -55l-10 -3q-33 -7 -50 -28.5t-25 -50.5t-8.5 -64.5t-0.5 -73.5v-542l-162 101l1 441q0 47 -2.5 96t-12 94t-28.5 80t-51 51zM7 -63l10 3q33 7 50 28.5t25 50.5t8.5 64.5t0.5 73.5v514l161 -100v-414q0 -47 2.5 -96t12 -94 t28.5 -80t51 -51l11 -7l-113 -38q-41 23 -78 45t-78 46z" />
<glyph unicode="&#xa7;" horiz-adv-x="953" d="M0 464l20 -11q14 -8 25.5 -15t11.5 -10q63 -139 156 -206.5t228 -67.5q41 0 96.5 20.5t93.5 61.5q32 43 40 79t8 78q-6 41 -30 75q-2 3 -5 6q-2 -4 -4 -9q-30 -60 -78 -99.5t-120 -39.5q-57 0 -103 27t-79.5 77.5t-51.5 121.5t-18 157q0 37 3 70l-14 16q-46 48 -74 108 t-28 135q0 14 1.5 32t5.5 36q9 50 64 97.5t121 87t127.5 67t88.5 38.5l265 -115q4 -36 7 -72t7 -71q3 -20 5 -40.5t3 -40.5l-50 -32q-16 57 -34 105t-47.5 80.5t-75.5 50.5t-116 18q-28 0 -66 -7.5t-71.5 -29t-57 -58.5t-23.5 -95q0 -51 25 -95q2 -5 4 -8q56 82 164 125 q5 3 20 7.5t31 9t29.5 8t14.5 3.5q43 -42 78 -92q31 -43 58 -99.5t35 -119.5q2 -25 3 -53.5t1 -52.5q0 -18 -1 -38q28 -20 53 -43q44 -42 73 -97t34 -132v-9q0 -61 -44.5 -125t-105 -121.5t-120.5 -101.5t-89 -64l-414 161q-19 81 -39.5 157t-40.5 155zM326 733 q0 -44 6.5 -96.5t21 -98t38.5 -76t58 -30.5q35 0 57 28t34.5 69.5t17 86t4.5 76.5v4q0 53 -9.5 108t-27 99.5t-41.5 72.5t-53 28t-49.5 -25.5t-33 -65t-18 -87.5t-5.5 -93z" />
<glyph unicode="&#xa8;" horiz-adv-x="700" d="M0 1509v128l109 63l110 -63v-128l-110 -64zM381 1510v127l109 63l110 -63v-127l-110 -65z" />
<glyph unicode="&#xa9;" horiz-adv-x="1000" d="M0 1025q0 197 132 336t318 139t318 -139t132 -336t-132 -336t-318 -139t-318 139t-132 336zM50 1025q0 -176 117 -300.5t283 -124.5t283 124.5t117 300.5t-117 300.5t-283 124.5t-283 -124.5t-117 -300.5zM130 1015q0 58 23.5 107t59.5 90t79 73t84 55.5t73 37.5t46 18 l182 -105q-7 -23 -15.5 -43t-16.5 -42l-26 -68l-9 7q-10 8 -24 17q6 8 15 28t9 42q0 18 -10 32q-9 14 -27.5 22.5t-41.5 13t-49 6.5t-51 2q-79 0 -125 -47q-20 -21 -32 -51t-18.5 -61.5t-9 -60.5t-2.5 -48q3 -54 20 -109.5t50 -100t84.5 -72t124.5 -27.5q38 0 70 19.5t56 44 t39 47t17 27.5q4 -12 6.5 -20.5t6.5 -21.5q-9 -23 -19 -47t-19 -48q-19 -12 -48.5 -20t-61 -12t-62.5 -5.5t-54 -1.5q-63 0 -122 25t-105 72q-46 45 -71.5 105t-25.5 120z" />
<glyph unicode="&#xaa;" d="M0 200v1100q0 200 200 200h1100q200 0 200 -200v-1100q0 -200 -200 -200h-1100q-200 0 -200 200zM25 200q1 -175 175 -175h1101q174 0 174 176v1099q0 175 -175 175h-1100q-174 0 -175 -175v-1100z" />
<glyph unicode="&#xab;" horiz-adv-x="1208" d="M1 697q171 148 172 147l375 296h160q-185 -124 -260 -182q-101 -84 -198 -167l-49 -51q41 -42 72 -72t67.5 -67.5t75.5 -76.5q102 -99 127 -120q37 -42 149 -137l-178 -89q-53 58 -138 128q-94 95 -159 162q-27 29 -54 57.5t-49 50.5t-35 37t-16 18q-62 65 -62 66z M401 697q171 148 172 147l375 296h160q-185 -124 -260 -182q-101 -84 -198 -167l-49 -51q41 -42 72 -72t67.5 -67.5t75.5 -76.5q102 -99 127 -120q37 -42 149 -137l-178 -89q-53 58 -138 128q-94 95 -159 162q-27 29 -54 57.5t-49 50.5t-35 37t-16 18q-62 65 -62 66z" />
<glyph unicode="&#xac;" d="M0 200v1100q0 200 200 200h1100q200 0 200 -200v-1100q0 -200 -200 -200h-1100q-200 0 -200 200zM25 200q1 -175 175 -175h1101q174 0 174 176v1099q0 175 -175 175h-1100q-174 0 -175 -175v-1100z" />
<glyph unicode="&#xad;" horiz-adv-x="1087" d="M1 627l120 168q7 -22 25 -35t43 -19t55.5 -7t63.5 -1l372 -1q40 0 82 1.5t79.5 9.5t67 22.5t45.5 39.5l33 -88l-120 -168q-7 22 -25 35t-43 19t-55.5 7t-63.5 1h-349v1h-23q-40 0 -82 -1.5t-79.5 -9.5t-67 -22.5t-45.5 -39.5z" />
<glyph unicode="&#xae;" horiz-adv-x="1000" d="M0 1025q0 197 132 336t318 139t318 -139t132 -336t-132 -336t-318 -139t-318 139t-132 336zM50 1025q0 -176 117 -300.5t283 -124.5q143 0 250 93h-1q-28 0 -60 11.5t-67 35.5q-17 12 -36 34t-37 48.5t-35 55.5t-29.5 55t-22 46.5t-12.5 31.5l-97 45v-177q0 -24 2 -47.5 t8 -46t17.5 -41.5t30.5 -31l-54 -19q-32 18 -62.5 36.5t-61.5 36.5q18 4 28 15.5t14 27.5t5.5 33t1.5 32v273q0 48 -4 79t-8.5 51t-11 30t-11.5 15q-8 5 -16 5q-10 0 -17 -7q-7 -6 -7 -15v-2q1 -8 7 -12.5t12 -4.5t11 3l13 -59l-74 44q-76 -108 -76 -250zM228 1380l74 -10 l155 26q6 -2 22 -11t35.5 -24.5t38.5 -37.5t31 -49q10 -18 14.5 -42.5t4.5 -43.5q0 -36 -13.5 -65.5t-31.5 -51t-37 -37t-30 -21.5q8 -22 30 -59t51.5 -77t65.5 -75t73 -52q16 -8 37 -9q102 120 102 284q0 176 -117 300.5t-283 124.5q-125 0 -222 -70zM302 1102q2 -1 5 -2 t10 -5l35 -18q26 -14 48 -24q11 -5 22 -11q11 6 28 17.5t33 29.5t27.5 42.5t11.5 54.5v13q0 16 -7.5 36t-20 39.5t-29 36t-35.5 24.5q-19 10 -44 10q-18 0 -41 -5t-43 -18v-220z" />
<glyph unicode="&#xaf;" d="M0 200v1100q0 200 200 200h1100q200 0 200 -200v-1100q0 -200 -200 -200h-1100q-200 0 -200 200zM25 200q1 -175 175 -175h1101q174 0 174 176v1099q0 175 -175 175h-1100q-174 0 -175 -175v-1100z" />
<glyph unicode="&#xb0;" horiz-adv-x="586" d="M0 1019q0 101 71 172t173 71q100 0 171 -71.5t71 -171.5t-71.5 -172t-172.5 -72q-102 0 -172 71t-70 173zM61 1018q0 -76 53.5 -128.5t129.5 -52.5t128.5 52.5t52.5 128.5t-53 129.5t-128 53.5q-76 0 -129.5 -53.5t-53.5 -129.5z" />
<glyph unicode="&#xb1;" d="M0 200v1100q0 200 200 200h1100q200 0 200 -200v-1100q0 -200 -200 -200h-1100q-200 0 -200 200zM25 200q1 -175 175 -175h1101q174 0 174 176v1099q0 175 -175 175h-1100q-174 0 -175 -175v-1100z" />
<glyph unicode="&#xb2;" d="M0 200v1100q0 200 200 200h1100q200 0 200 -200v-1100q0 -200 -200 -200h-1100q-200 0 -200 200zM25 200q1 -175 175 -175h1101q174 0 174 176v1099q0 175 -175 175h-1100q-174 0 -175 -175v-1100z" />
<glyph unicode="&#xb3;" d="M0 200v1100q0 200 200 200h1100q200 0 200 -200v-1100q0 -200 -200 -200h-1100q-200 0 -200 200zM25 200q1 -175 175 -175h1101q174 0 174 176v1099q0 175 -175 175h-1100q-174 0 -175 -175v-1100z" />
<glyph unicode="&#xb4;" horiz-adv-x="503" d="M0 1449l255 259q30 31 48 41.5t36 10.5q29 0 46.5 -17.5t17.5 -44.5q0 -20 -13.5 -37.5t-40.5 -34.5l-289 -177h-60z" />
<glyph unicode="&#xb5;" horiz-adv-x="868" d="M0 966h198v-654q2 -22 12 -54t39.5 -62.5t85 -53t151.5 -26.5h5q44 0 78 17.5t58.5 44t37.5 57.5t13 60v531q0 27 -3.5 44t-11.5 25.5t-22.5 12t-37.5 3.5q-6 0 -16 -1t-32 -6l39 73l174 -33q-3 -12 -5 -34t-4 -45.5t-3 -45.5t-1 -34v-559q-4 -27 -24.5 -54t-50.5 -51 t-66 -45.5t-68.5 -38.5t-59.5 -28t-39 -16q-16 5 -54.5 17t-84.5 27q-34 11 -69 24q14 -25 36 -36l8 -5l-79 -26q-29 16 -55 31.5t-54 31.5l-64 39l7 2q23 5 35 20t17 35q2 6 3 12v535q0 46 -4.5 76t-10 47.5t-13.5 27t-12 11.5q-10 3 -18 3q-9 18 -18.5 47.5t-16.5 53.5z " />
<glyph unicode="&#xb6;" horiz-adv-x="832" d="M0 950q0 138 94.5 222t249.5 84h388v-62h-111v-1194h-72v1194h-145v-1194h-74v646q-152 7 -241 89.5t-89 214.5z" />
<glyph unicode="&#xb7;" horiz-adv-x="319" d="M0 765v128l109 63l110 -63v-128l-110 -64z" />
<glyph unicode="&#xb8;" horiz-adv-x="535" d="M0 -261q90 -54 162 -54q71 0 101 22.5t30 70.5t-52 69q-43 17 -108 17q-17 0 -37 -3l51 188h67l-39 -111q34 5 66 5q91 0 142.5 -42.5t51.5 -120.5q0 -82 -62 -129.5t-172 -47.5q-96 0 -151 34z" />
<glyph unicode="&#xb9;" d="M0 200v1100q0 200 200 200h1100q200 0 200 -200v-1100q0 -200 -200 -200h-1100q-200 0 -200 200zM25 200q1 -175 175 -175h1101q174 0 174 176v1099q0 175 -175 175h-1100q-174 0 -175 -175v-1100z" />
<glyph unicode="&#xba;" d="M0 200v1100q0 200 200 200h1100q200 0 200 -200v-1100q0 -200 -200 -200h-1100q-200 0 -200 200zM25 200q1 -175 175 -175h1101q174 0 174 176v1099q0 175 -175 175h-1100q-174 0 -175 -175v-1100z" />
<glyph unicode="&#xbb;" horiz-adv-x="1208" d="M1 1140h159l375 -296q2 1 173 -147q0 -1 -62 -66q-3 -3 -16 -18t-35 -37t-49 -50.5t-55 -57.5q-65 -67 -159 -162q-85 -70 -138 -128l-177 89q112 95 149 137q25 21 126 120q40 39 76 76.5t67 67.5t72 72l-48 51q-97 83 -198 167q-75 58 -260 182zM401 1140h159l375 -296 q2 1 173 -147q0 -1 -62 -66q-3 -3 -16 -18t-35 -37t-49 -50.5t-55 -57.5q-65 -67 -159 -162q-85 -70 -138 -128l-177 89q112 95 149 137q25 21 126 120q40 39 76 76.5t67 67.5t72 72l-48 51q-97 83 -198 167q-75 58 -260 182z" />
<glyph unicode="&#xbc;" d="M0 200v1100q0 200 200 200h1100q200 0 200 -200v-1100q0 -200 -200 -200h-1100q-200 0 -200 200zM25 200q1 -175 175 -175h1101q174 0 174 176v1099q0 175 -175 175h-1100q-174 0 -175 -175v-1100z" />
<glyph unicode="&#xbd;" d="M0 200v1100q0 200 200 200h1100q200 0 200 -200v-1100q0 -200 -200 -200h-1100q-200 0 -200 200zM25 200q1 -175 175 -175h1101q174 0 174 176v1099q0 175 -175 175h-1100q-174 0 -175 -175v-1100z" />
<glyph unicode="&#xbe;" d="M0 200v1100q0 200 200 200h1100q200 0 200 -200v-1100q0 -200 -200 -200h-1100q-200 0 -200 200zM25 200q1 -175 175 -175h1101q174 0 174 176v1099q0 175 -175 175h-1100q-174 0 -175 -175v-1100z" />
<glyph unicode="&#xbf;" horiz-adv-x="827" d="M0 302v5q0 70 27 131q28 63 76 119.5t97 109.5q31 33 64.5 65t64 66.5t54 70t30.5 77.5l134 92q1 -16 1 -33q0 -51 -12 -100q-16 -64 -45 -123t-68.5 -112t-78.5 -95q-40 -46 -77.5 -89.5t-63 -88.5t-32.5 -93q-2 -13 -2 -27q0 -35 13 -72q20 -56 53 -83.5t71 -38.5 q29 -8 55 -8q9 0 17 1q35 3 57 11q61 19 93.5 50.5t46.5 74.5q13 41 13 90v6q-1 53 -10 118l86 -26l63 -229l-210 -203h-5q-4 0 -35.5 4t-76 12t-98.5 21.5t-104 32.5t-90.5 44.5t-57.5 59.5q-49 88 -50 160zM363 1247v103l92 52l89 -52v-103l-89 -53z" />
<glyph unicode="&#xc0;" horiz-adv-x="1333" d="M0 24l12 12q28 0 56 26t51 80q112 284 199 513q38 96 73.5 189t64 166.5t47.5 120.5t21 50q-23 52 -36.5 64.5t-34.5 12.5q-15 0 -30.5 -12.5t-15.5 -32.5q0 -21 15.5 -32t30.5 -11h16q8 0 12 3l-43 -98l-161 98l108 221q75 -12 160 -25t158 -25l463 -1238q16 -39 67 -74 q-8 -3 -25.5 -10.5t-36.5 -14.5q-22 -9 -46 -17q-47 24 -91 51t-90 56q-19 9 -35 20.5t-34 22.5q23 5 40 14t34 27l-60 163h-605l-106 -265q-14 -31 -26 -47t-28 -29t-33 -13q-28 0 -52 12t-39 22zM334 460h511l-250 671zM420 1698q0 27 17.5 44.5t46.5 17.5q18 0 36 -10.5 t48 -41.5l255 -259h-60l-289 177q-27 17 -40.5 34.5t-13.5 37.5z" />
<glyph unicode="&#xc1;" horiz-adv-x="1333" d="M0 24l12 12q28 0 56 26t51 80q112 284 199 513q38 96 73.5 189t64 166.5t47.5 120.5t21 50q-23 52 -36.5 64.5t-34.5 12.5q-15 0 -30.5 -12.5t-15.5 -32.5q0 -21 15.5 -32t30.5 -11h16q8 0 12 3l-43 -98l-161 98l108 221q75 -12 160 -25t158 -25l463 -1238q16 -39 67 -74 q-8 -3 -25.5 -10.5t-36.5 -14.5q-22 -9 -46 -17q-47 24 -91 51t-90 56q-19 9 -35 20.5t-34 22.5q23 5 40 14t34 27l-60 163h-605l-106 -265q-14 -31 -26 -47t-28 -29t-33 -13q-28 0 -52 12t-39 22zM334 460h511l-250 671zM420 1449l255 259q30 31 48 41.5t36 10.5 q29 0 46.5 -17.5t17.5 -44.5q0 -20 -13.5 -37.5t-40.5 -34.5l-289 -177h-60z" />
<glyph unicode="&#xc2;" horiz-adv-x="1333" d="M0 24l12 12q28 0 56 26t51 80q112 284 199 513q38 96 73.5 189t64 166.5t47.5 120.5t21 50q-23 52 -36.5 64.5t-34.5 12.5q-15 0 -30.5 -12.5t-15.5 -32.5q0 -21 15.5 -32t30.5 -11h16q8 0 12 3l-43 -98l-161 98l108 221q75 -12 160 -25t158 -25l463 -1238q16 -39 67 -74 q-8 -3 -25.5 -10.5t-36.5 -14.5q-22 -9 -46 -17q-47 24 -91 51t-90 56q-19 9 -35 20.5t-34 22.5q23 5 40 14t34 27l-60 163h-605l-106 -265q-14 -31 -26 -47t-28 -29t-33 -13q-28 0 -52 12t-39 22zM320 1533q81 117 305 320q98 -59 158 -125q32 -37 69 -75.5t78 -78.5 l-120 -125q-146 166 -217 206q-101 -93 -183 -201zM334 460h511l-250 671z" />
<glyph unicode="&#xc3;" horiz-adv-x="1333" d="M0 24l12 12q28 0 56 26t51 80q112 284 199 513q38 96 73.5 189t64 166.5t47.5 120.5t21 50q-23 52 -36.5 64.5t-34.5 12.5q-15 0 -30.5 -12.5t-15.5 -32.5q0 -21 15.5 -32t30.5 -11h16q8 0 12 3l-43 -98l-161 98l108 221q75 -12 160 -25t158 -25l463 -1238q16 -39 67 -74 q-8 -3 -25.5 -10.5t-36.5 -14.5q-22 -9 -46 -17q-47 24 -91 51t-90 56q-19 9 -35 20.5t-34 22.5q23 5 40 14t34 27l-60 163h-605l-106 -265q-14 -31 -26 -47t-28 -29t-33 -13q-28 0 -52 12t-39 22zM240 1476l183 183q124 55 185 55q41 0 103.5 -38.5t105.5 -38.5 q54 0 197 53l-182 -171q-104 -27 -137 -27q-39 0 -104.5 35t-110.5 35q-60 -5 -240 -86zM334 460h511l-250 671z" />
<glyph unicode="&#xc4;" horiz-adv-x="1333" d="M0 24l12 12q28 0 56 26t51 80q112 284 199 513q38 96 73.5 189t64 166.5t47.5 120.5t21 50q-23 52 -36.5 64.5t-34.5 12.5q-15 0 -30.5 -12.5t-15.5 -32.5q0 -21 15.5 -32t30.5 -11h16q8 0 12 3l-43 -98l-161 98l108 221q75 -12 160 -25t158 -25l463 -1238q16 -39 67 -74 q-8 -3 -25.5 -10.5t-36.5 -14.5q-22 -9 -46 -17q-47 24 -91 51t-90 56q-19 9 -35 20.5t-34 22.5q23 5 40 14t34 27l-60 163h-605l-106 -265q-14 -31 -26 -47t-28 -29t-33 -13q-28 0 -52 12t-39 22zM330 1509v128l109 63l110 -63v-128l-110 -64zM334 460h511l-250 671z M711 1510v127l109 63l110 -63v-127l-110 -65z" />
<glyph unicode="&#xc5;" horiz-adv-x="1333" d="M0 24l12 12q28 0 56 26t51 80q112 284 199 513q38 96 73.5 189t64 166.5t47.5 120.5t21 50q-23 52 -36.5 64.5t-34.5 12.5q-15 0 -30.5 -12.5t-15.5 -32.5q0 -21 15.5 -32t30.5 -11h16q8 0 12 3l-43 -98l-161 98l108 221q75 -12 160 -25t158 -25l463 -1238q16 -39 67 -74 q-8 -3 -25.5 -10.5t-36.5 -14.5q-22 -9 -46 -17q-47 24 -91 51t-90 56q-19 9 -35 20.5t-34 22.5q23 5 40 14t34 27l-60 163h-605l-106 -265q-14 -31 -26 -47t-28 -29t-33 -13q-28 0 -52 12t-39 22zM334 460h511l-250 671zM400 1647q0 86 64 146.5t154 60.5t153.5 -60.5 t63.5 -146.5q0 -85 -63.5 -145.5t-153.5 -60.5t-154 60.5t-64 145.5zM485 1642q0 -53 30 -91t73 -38t73 38t30 91t-30 91t-73 38t-73 -38t-30 -91z" />
<glyph unicode="&#xc6;" horiz-adv-x="1953" d="M0 24l12 12q28 0 56 26t51 80q112 284 199 513q38 96 73.5 189t64 166.5t47.5 120.5t21 50q-23 52 -36.5 64.5t-34.5 12.5q-15 0 -30.5 -12.5t-15.5 -32.5q0 -21 15.5 -32t30.5 -11h16q8 0 12 3l-43 -98l-161 98l108 221q75 -12 160 -25t158 -25l254 -679v443 q-12 65 -31 109.5t-50 60.5q-23 8 -48 8q-9 0 -19 -0.5t-19 -2.5q-11 -2 -21 -4l-19 -3l55 104l150 -18q57 -7 104.5 -12.5t51.5 -5.5l337 52l114 -45q76 -31 138 -75.5t114 -90.5l-130 -135q-31 50 -75.5 95t-92.5 78.5t-98.5 52t-96.5 18.5h-7q-65 -3 -117 -35.5 t-86 -95.5v-431h109q40 0 82 1.5t79.5 9.5t67 22.5t45.5 39.5l33 -88l-120 -168q-7 22 -25 35t-43 19t-55.5 7t-63.5 1h-109v-358l34 -91q32 -25 75 -43t91 -28t78 -10q95 0 178.5 58t138.5 160l147 -152q-43 -29 -100.5 -57.5t-119.5 -51t-124.5 -35.5t-115.5 -13l-170 49 q5 -4 10 -7q-8 -3 -25.5 -10.5t-36.5 -14.5q-22 -9 -46 -17q-47 24 -91 51t-90 56q-19 9 -35 21q-15 10 -32 21l-4 1q43 18 64 66q0 2 1 4l-49 134h-605l-106 -265q-14 -31 -26 -47t-28 -29t-33 -13q-28 0 -52 12t-39 22zM334 460h511l-250 671z" />
<glyph unicode="&#xc7;" horiz-adv-x="1276" d="M0 634q0 115 46.5 213.5t118.5 180.5t158.5 146t168.5 111t146 74.5t91 36.5l364 -211q-14 -45 -30.5 -85.5t-32.5 -83.5l-52 -137l-19 15q-19 16 -47 34q11 16 29.5 55.5t18.5 84.5q0 35 -20 64q-19 27 -55.5 44.5t-82.5 26t-98 12.5t-102 4q-158 0 -251 -94 q-39 -41 -63.5 -101t-37.5 -123t-18 -121t-5 -96q7 -109 40.5 -220t100 -199.5t169 -144t249.5 -55.5q76 0 139.5 39.5t112 88.5t78 94t34.5 55q7 -25 12.5 -41.5t13.5 -42.5q-19 -46 -38.5 -94.5t-37.5 -95.5q-39 -25 -97.5 -41t-122 -24t-125 -10.5t-108.5 -2.5 q-27 0 -53 2l-19 -54q34 5 66 5q91 0 142.5 -42.5t51.5 -120.5q0 -82 -62 -129.5t-172 -47.5q-96 0 -151 34l-50 102q90 -54 162 -54q71 0 101 22.5t30 70.5t-52 69q-43 17 -108 17q-17 0 -37 -3l38 139q-67 13 -131 40q-118 49 -210 143q-91 91 -142 210.5t-51 240.5z" />
<glyph unicode="&#xc8;" horiz-adv-x="1203" d="M0 1276l55 104l150 -18q57 -7 104.5 -12.5t51.5 -5.5l337 52l114 -45q76 -31 138 -75.5t114 -90.5l-130 -135q-31 50 -75.5 95t-92.5 78.5t-98.5 52t-96.5 18.5h-7q-65 -3 -117 -35.5t-86 -95.5v-431h109q40 0 82 1.5t79.5 9.5t67 22.5t45.5 39.5l33 -88l-120 -168 q-7 22 -25 35t-43 19t-55.5 7t-63.5 1h-109v-387q0 -34 32.5 -60.5t76 -44.5t91.5 -28t78 -10q95 0 178.5 58t138.5 160l147 -152q-43 -29 -100.5 -57.5t-119.5 -51t-124.5 -35.5t-115.5 -13l-520 150q43 18 63.5 65.5t20.5 133.5v769q-12 65 -31 109.5t-50 60.5 q-23 8 -48 8q-9 0 -19 -0.5t-19 -2.5q-11 -2 -21 -4zM350 1698q0 27 17.5 44.5t46.5 17.5q18 0 36 -10.5t48 -41.5l255 -259h-60l-289 177q-27 17 -40.5 34.5t-13.5 37.5z" />
<glyph unicode="&#xc9;" horiz-adv-x="1203" d="M0 1276l55 104l150 -18q57 -7 104.5 -12.5t51.5 -5.5l337 52l114 -45q76 -31 138 -75.5t114 -90.5l-130 -135q-31 50 -75.5 95t-92.5 78.5t-98.5 52t-96.5 18.5h-7q-65 -3 -117 -35.5t-86 -95.5v-431h109q40 0 82 1.5t79.5 9.5t67 22.5t45.5 39.5l33 -88l-120 -168 q-7 22 -25 35t-43 19t-55.5 7t-63.5 1h-109v-387q0 -34 32.5 -60.5t76 -44.5t91.5 -28t78 -10q95 0 178.5 58t138.5 160l147 -152q-43 -29 -100.5 -57.5t-119.5 -51t-124.5 -35.5t-115.5 -13l-520 150q43 18 63.5 65.5t20.5 133.5v769q-12 65 -31 109.5t-50 60.5 q-23 8 -48 8q-9 0 -19 -0.5t-19 -2.5q-11 -2 -21 -4zM350 1449l255 259q30 31 48 41.5t36 10.5q29 0 46.5 -17.5t17.5 -44.5q0 -20 -13.5 -37.5t-40.5 -34.5l-289 -177h-60z" />
<glyph unicode="&#xca;" horiz-adv-x="1203" d="M0 1276l55 104l150 -18q57 -7 104.5 -12.5t51.5 -5.5l337 52l114 -45q76 -31 138 -75.5t114 -90.5l-130 -135q-31 50 -75.5 95t-92.5 78.5t-98.5 52t-96.5 18.5h-7q-65 -3 -117 -35.5t-86 -95.5v-431h109q40 0 82 1.5t79.5 9.5t67 22.5t45.5 39.5l33 -88l-120 -168 q-7 22 -25 35t-43 19t-55.5 7t-63.5 1h-109v-387q0 -34 32.5 -60.5t76 -44.5t91.5 -28t78 -10q95 0 178.5 58t138.5 160l147 -152q-43 -29 -100.5 -57.5t-119.5 -51t-124.5 -35.5t-115.5 -13l-520 150q43 18 63.5 65.5t20.5 133.5v769q-12 65 -31 109.5t-50 60.5 q-23 8 -48 8q-9 0 -19 -0.5t-19 -2.5q-11 -2 -21 -4zM260 1533q81 117 305 320q98 -59 158 -125q32 -37 69 -75.5t78 -78.5l-120 -125q-146 166 -217 206q-101 -93 -183 -201z" />
<glyph unicode="&#xcb;" horiz-adv-x="1203" d="M0 1276l55 104l150 -18q57 -7 104.5 -12.5t51.5 -5.5l337 52l114 -45q76 -31 138 -75.5t114 -90.5l-130 -135q-31 50 -75.5 95t-92.5 78.5t-98.5 52t-96.5 18.5h-7q-65 -3 -117 -35.5t-86 -95.5v-431h109q40 0 82 1.5t79.5 9.5t67 22.5t45.5 39.5l33 -88l-120 -168 q-7 22 -25 35t-43 19t-55.5 7t-63.5 1h-109v-387q0 -34 32.5 -60.5t76 -44.5t91.5 -28t78 -10q95 0 178.5 58t138.5 160l147 -152q-43 -29 -100.5 -57.5t-119.5 -51t-124.5 -35.5t-115.5 -13l-520 150q43 18 63.5 65.5t20.5 133.5v769q-12 65 -31 109.5t-50 60.5 q-23 8 -48 8q-9 0 -19 -0.5t-19 -2.5q-11 -2 -21 -4zM250 1509v128l109 63l110 -63v-128l-110 -64zM631 1510v127l109 63l110 -63v-127l-110 -65z" />
<glyph unicode="&#xcc;" horiz-adv-x="597" d="M0 1173l117 223q20 -4 37 -8.5t45.5 -9.5t73.5 -13.5t119 -20.5v-987q0 -47 2.5 -96t12 -94t28.5 -80t51 -51l11 -7l-113 -38q-41 23 -78 45t-78 46l-91 55l10 3q33 7 50 28.5t25 50.5t8.5 64.5t0.5 73.5v551q0 94 -4 155t-12 98.5t-19 57t-23 30.5q-15 11 -31 11 q-20 0 -35 -14q-13 -13 -13 -31v-4q2 -16 13.5 -24.5t24.5 -8.5q12 0 22 5l26 -118zM50 1698q0 27 17.5 44.5t46.5 17.5q18 0 36 -10.5t48 -41.5l255 -259h-60l-289 177q-27 17 -40.5 34.5t-13.5 37.5z" />
<glyph unicode="&#xcd;" horiz-adv-x="597" d="M0 1173l117 223q20 -4 37 -8.5t45.5 -9.5t73.5 -13.5t119 -20.5v-987q0 -47 2.5 -96t12 -94t28.5 -80t51 -51l11 -7l-113 -38q-41 23 -78 45t-78 46l-91 55l10 3q33 7 50 28.5t25 50.5t8.5 64.5t0.5 73.5v551q0 94 -4 155t-12 98.5t-19 57t-23 30.5q-15 11 -31 11 q-20 0 -35 -14q-13 -13 -13 -31v-4q2 -16 13.5 -24.5t24.5 -8.5q12 0 22 5l26 -118zM50 1449l255 259q30 31 48 41.5t36 10.5q29 0 46.5 -17.5t17.5 -44.5q0 -20 -13.5 -37.5t-40.5 -34.5l-289 -177h-60z" />
<glyph unicode="&#xce;" horiz-adv-x="653" d="M-57 1533q81 117 305 320q98 -59 158 -125q32 -37 69 -75.5t78 -78.5l-120 -125q-146 166 -217 206q-101 -93 -183 -201zM0 1173l117 223q20 -4 37 -8.5t45.5 -9.5t73.5 -13.5t119 -20.5v-987q0 -47 2.5 -96t12 -94t28.5 -80t51 -51l11 -7l-113 -38q-41 23 -78 45t-78 46 l-91 55l10 3q33 7 50 28.5t25 50.5t8.5 64.5t0.5 73.5v551q0 94 -4 155t-12 98.5t-19 57t-23 30.5q-15 11 -31 11q-20 0 -35 -14q-13 -13 -13 -31v-4q2 -16 13.5 -24.5t24.5 -8.5q12 0 22 5l26 -118z" />
<glyph unicode="&#xcf;" horiz-adv-x="650" d="M-50 1509v128l109 63l110 -63v-128l-110 -64zM0 1173l117 223q20 -4 37 -8.5t45.5 -9.5t73.5 -13.5t119 -20.5v-987q0 -47 2.5 -96t12 -94t28.5 -80t51 -51l11 -7l-113 -38q-41 23 -78 45t-78 46l-91 55l10 3q33 7 50 28.5t25 50.5t8.5 64.5t0.5 73.5v551q0 94 -4 155 t-12 98.5t-19 57t-23 30.5q-15 11 -31 11q-20 0 -35 -14q-13 -13 -13 -31v-4q2 -16 13.5 -24.5t24.5 -8.5q12 0 22 5l26 -118zM331 1510v127l109 63l110 -63v-127l-110 -65z" />
<glyph unicode="&#xd0;" horiz-adv-x="1407" d="M-3 827l120 168q7 -22 25 -35t43 -19t56 -7h4q-1 65 -6 114q-8 65 -18.5 108t-23 64.5t-24.5 28.5q-15 11 -31 11q-20 0 -35 -14q-13 -13 -13 -31v-4q2 -16 13.5 -24.5t24.5 -8.5q12 0 22 5l26 -118l-180 108l108 207l294 -36q2 2 47.5 9t102 15t110 17t75.5 12l118 -37 q86 -26 157 -77.5t126.5 -119t92 -145t57.5 -158.5q10 -44 14.5 -91t4.5 -90q0 -89 -16.5 -173.5t-40.5 -155.5t-54.5 -124.5t-56.5 -81.5q-22 -28 -81 -54.5t-130 -49t-140 -36.5t-107 -14q-16 0 -21 1l-516 158q9 2 10.5 2.5t8.5 2.5q29 9 46 31t25.5 50t10 62.5t1.5 66.5 v447h-24q-42 -2 -79.5 -10t-67 -22.5t-45.5 -39.5zM402 224q0 -34 31 -60.5t76 -44.5t91.5 -28t77.5 -10q64 0 127 28t115 81q77 80 120 207.5t43 283.5v27q-4 113 -41.5 213t-95 179.5t-130 131t-145.5 69.5q-20 4 -37 6.5t-37 2.5q-130 0 -195 -122v-255h11v-1h23 q40 0 82 1.5t79.5 9.5t67 22.5t45.5 39.5l33 -88l-120 -168q-7 22 -25 35t-43 19t-55.5 7t-63.5 1h-34v-587z" />
<glyph unicode="&#xd1;" horiz-adv-x="1389" d="M0 1173l117 223q51 -9 89.5 -16t71 -12.5t61.5 -12t60 -11.5v-113q1 -9 36 -58t112 -152t200.5 -264.5t304.5 -390.5v756q0 27 -5 58t-18 57.5t-33.5 44t-50.5 17.5q-16 0 -35 -1.5t-41 -5.5q-3 0 -5.5 -0.5t-4.5 -0.5q16 36 27.5 60.5t23.5 44.5q10 -2 16 -4t15 -3 q65 -14 129 -25t133 -23q-9 -42 -13.5 -86t-4.5 -85v-817q0 -47 2.5 -95t13.5 -93t31.5 -81t56.5 -55l-111 -38l-219 146q70 17 86 82q-176 224 -315 401q-59 76 -117.5 149.5t-105 131.5t-76 95.5t-32.5 43.5v-687q0 -47 3.5 -95t14 -93t32 -81t57.5 -55q-20 -5 -57.5 -17 t-55.5 -19l-244 144q34 3 53 25.5t27.5 54.5t11 69t2.5 67v545q0 93 -7.5 157.5t-17 105t-22.5 61t-23 27.5q-15 11 -31 11q-20 0 -35 -14q-13 -13 -13 -31v-4q2 -16 13.5 -24.5t24.5 -8.5q12 0 22 5l26 -118zM260 1476l183 183q124 55 185 55q41 0 103.5 -38.5t105.5 -38.5 q54 0 197 53l-182 -171q-104 -27 -137 -27q-39 0 -104.5 35t-110.5 35q-60 -5 -240 -86z" />
<glyph unicode="&#xd2;" horiz-adv-x="1430" d="M0 652q0 133 32 243t105 197.5t187.5 151.5t280.5 105q12 4 43 10.5t69.5 13.5t78 13t67.5 11q12 -7 45.5 -31t80.5 -63t98 -90.5t97.5 -111.5t81.5 -126.5t47 -133.5q10 -42 13.5 -86t3.5 -79q0 -59 -12 -132.5t-41.5 -151t-78.5 -149t-124.5 -128.5t-179.5 -91 t-240 -34q-154 0 -276 47t-206 134t-128 209.5t-44 271.5zM183 696q0 -63 11.5 -136t35.5 -145.5t63.5 -139.5t94 -118t126.5 -81.5t163 -30.5q176 0 287 111q45 46 76.5 105.5t51 121.5t27.5 121.5t8 112.5q0 130 -38.5 251t-106.5 213t-163 147t-208 55q-120 0 -201.5 -55 t-132 -140.5t-72.5 -189.5t-22 -202zM450 1698q0 27 17.5 44.5t46.5 17.5q18 0 36 -10.5t48 -41.5l255 -259h-60l-289 177q-27 17 -40.5 34.5t-13.5 37.5z" />
<glyph unicode="&#xd3;" horiz-adv-x="1430" d="M0 652q0 133 32 243t105 197.5t187.5 151.5t280.5 105q12 4 43 10.5t69.5 13.5t78 13t67.5 11q12 -7 45.5 -31t80.5 -63t98 -90.5t97.5 -111.5t81.5 -126.5t47 -133.5q10 -42 13.5 -86t3.5 -79q0 -59 -12 -132.5t-41.5 -151t-78.5 -149t-124.5 -128.5t-179.5 -91 t-240 -34q-154 0 -276 47t-206 134t-128 209.5t-44 271.5zM183 696q0 -63 11.5 -136t35.5 -145.5t63.5 -139.5t94 -118t126.5 -81.5t163 -30.5q176 0 287 111q45 46 76.5 105.5t51 121.5t27.5 121.5t8 112.5q0 130 -38.5 251t-106.5 213t-163 147t-208 55q-120 0 -201.5 -55 t-132 -140.5t-72.5 -189.5t-22 -202zM450 1449l255 259q30 31 48 41.5t36 10.5q29 0 46.5 -17.5t17.5 -44.5q0 -20 -13.5 -37.5t-40.5 -34.5l-289 -177h-60z" />
<glyph unicode="&#xd4;" horiz-adv-x="1430" d="M0 652q0 133 32 243t105 197.5t187.5 151.5t280.5 105q12 4 43 10.5t69.5 13.5t78 13t67.5 11q12 -7 45.5 -31t80.5 -63t98 -90.5t97.5 -111.5t81.5 -126.5t47 -133.5q10 -42 13.5 -86t3.5 -79q0 -59 -12 -132.5t-41.5 -151t-78.5 -149t-124.5 -128.5t-179.5 -91 t-240 -34q-154 0 -276 47t-206 134t-128 209.5t-44 271.5zM183 696q0 -63 11.5 -136t35.5 -145.5t63.5 -139.5t94 -118t126.5 -81.5t163 -30.5q176 0 287 111q45 46 76.5 105.5t51 121.5t27.5 121.5t8 112.5q0 130 -38.5 251t-106.5 213t-163 147t-208 55q-120 0 -201.5 -55 t-132 -140.5t-72.5 -189.5t-22 -202zM350 1533q81 117 305 320q98 -59 158 -125q32 -37 69 -75.5t78 -78.5l-120 -125q-146 166 -217 206q-101 -93 -183 -201z" />
<glyph unicode="&#xd5;" horiz-adv-x="1430" d="M0 652q0 133 32 243t105 197.5t187.5 151.5t280.5 105q12 4 43 10.5t69.5 13.5t78 13t67.5 11q12 -7 45.5 -31t80.5 -63t98 -90.5t97.5 -111.5t81.5 -126.5t47 -133.5q10 -42 13.5 -86t3.5 -79q0 -59 -12 -132.5t-41.5 -151t-78.5 -149t-124.5 -128.5t-179.5 -91 t-240 -34q-154 0 -276 47t-206 134t-128 209.5t-44 271.5zM183 696q0 -63 11.5 -136t35.5 -145.5t63.5 -139.5t94 -118t126.5 -81.5t163 -30.5q176 0 287 111q45 46 76.5 105.5t51 121.5t27.5 121.5t8 112.5q0 130 -38.5 251t-106.5 213t-163 147t-208 55q-120 0 -201.5 -55 t-132 -140.5t-72.5 -189.5t-22 -202zM260 1476l183 183q124 55 185 55q41 0 103.5 -38.5t105.5 -38.5q54 0 197 53l-182 -171q-104 -27 -137 -27q-39 0 -104.5 35t-110.5 35q-60 -5 -240 -86z" />
<glyph unicode="&#xd6;" horiz-adv-x="1430" d="M0 652q0 133 32 243t105 197.5t187.5 151.5t280.5 105q12 4 43 10.5t69.5 13.5t78 13t67.5 11q12 -7 45.5 -31t80.5 -63t98 -90.5t97.5 -111.5t81.5 -126.5t47 -133.5q10 -42 13.5 -86t3.5 -79q0 -59 -12 -132.5t-41.5 -151t-78.5 -149t-124.5 -128.5t-179.5 -91 t-240 -34q-154 0 -276 47t-206 134t-128 209.5t-44 271.5zM183 696q0 -63 11.5 -136t35.5 -145.5t63.5 -139.5t94 -118t126.5 -81.5t163 -30.5q176 0 287 111q45 46 76.5 105.5t51 121.5t27.5 121.5t8 112.5q0 130 -38.5 251t-106.5 213t-163 147t-208 55q-120 0 -201.5 -55 t-132 -140.5t-72.5 -189.5t-22 -202zM350 1509v128l109 63l110 -63v-128l-110 -64zM731 1510v127l109 63l110 -63v-127l-110 -65z" />
<glyph unicode="&#xd7;" horiz-adv-x="1052" d="M0 1073l118 223q14 -4 45.5 -10t65 -14t66 -16t48.5 -12q2 -27 61 -129q25 -43 48.5 -86.5t42 -76t31.5 -55.5t14 -25l254 408h112l-96 -133q-19 -29 -82 -129q-27 -43 -52.5 -85t-45.5 -75.5t-33 -53.5l-14 -21q2 -5 15.5 -32t34 -65.5t44.5 -87t50 -97.5 q58 -114 80 -157q31 -54 62.5 -96t82.5 -67q-21 -16 -40.5 -31.5t-39.5 -31.5l-31 -25q-68 23 -135 47.5t-135 47.5q25 14 37.5 35.5t12.5 47.5l-6 24q-3 10 -46 95q-18 38 -36 74t-32.5 64.5t-23 47.5t-10.5 23q-92 -147 -155 -254t-153 -255q-22 28 -42.5 52.5t-41.5 50.5 l14 15q6 5 11.5 9.5t7.5 5.5q12 14 29 33.5t43.5 57t36 46.5t67.5 99q38 63 70 111q12 22 25 41.5t22.5 35.5t17 26t7.5 11q-92 180 -117 239t-62 119t-54 81.5t-20 25.5q-14 11 -31 11q-19 0 -34 -14q-14 -13 -14 -31v-4q2 -16 13.5 -24.5t24.5 -8.5q12 0 23 5l25 -118z " />
<glyph unicode="&#xd8;" horiz-adv-x="1430" d="M0 652q0 133 32 243t105 197.5t187.5 151.5t280.5 105q12 4 43 10.5t69.5 13.5t78 13t67.5 11q12 -7 46 -31q30 -22 72 -56l43 70h112l-91 -126q21 -20 42 -41q51 -52 97.5 -112t81.5 -126.5t47 -133.5q10 -42 13.5 -86t3.5 -79q0 -59 -12 -132.5t-41.5 -151t-78.5 -149 t-124.5 -128.5t-179.5 -91t-240 -34q-154 0 -276 47q-33 13 -63 28q-23 -38 -46 -75q-22 28 -42.5 52.5t-41.5 50.5l14 15q6 5 11.5 9.5t7.5 5.5q1 2 3 3q-26 21 -49 45q-84 87 -128 209.5t-44 271.5zM183 696q0 -63 11.5 -136t35.5 -145.5t64 -139.5l18 -30q20 28 45 65 q39 59 97 149q38 63 70 111q12 22 25 41.5t22.5 35.5t17 26t7.5 11q113 190 114 188l186 301q-36 31 -77 55q-95 55 -208 55q-120 0 -201.5 -55t-132 -140.5t-72.5 -189.5t-22 -202zM376 168q6 -6 12 -11q54 -51 126 -81.5t163 -30.5q176 0 287 111q45 46 76.5 105.5 t51 121.5t27.5 121.5t8 112.5q0 130 -38.5 251t-106.5 213q-12 16 -25 31q-31 -50 -59 -94q-27 -43 -52.5 -85t-45.5 -75.5t-33 -53.5q-12 -26 -130 -205q-92 -147 -185 -304q-38 -64 -76 -127z" />
<glyph unicode="&#xd9;" horiz-adv-x="1197" d="M0 1380h283v-935q2 -31 16.5 -76.5t56.5 -89t121.5 -76t216.5 -38.5h8q62 0 111 25t84 63t53.5 82.5t18.5 85.5v759q0 39 -5 63t-17 36.5t-32.5 17t-52.5 4.5q-9 0 -23.5 -1.5t-45.5 -8.5l55 105l249 -48q-4 -16 -7 -47.5t-5.5 -65.5t-4 -65.5t-1.5 -47.5v-799 q-6 -39 -35.5 -77.5t-72.5 -73t-94 -65t-97.5 -54.5t-85 -40t-55.5 -23q-24 7 -79 24t-119.5 38.5t-129 46t-110.5 48.5q-68 45 -68 74v779q0 65 -6.5 108t-14.5 68.5t-19 38.5t-18 16q-14 5 -25 5q-13 26 -26.5 68t-23.5 76zM350 1698q0 27 17.5 44.5t46.5 17.5 q18 0 36 -10.5t48 -41.5l255 -259h-60l-289 177q-27 17 -40.5 34.5t-13.5 37.5z" />
<glyph unicode="&#xda;" horiz-adv-x="1197" d="M0 1380h283v-935q2 -31 16.5 -76.5t56.5 -89t121.5 -76t216.5 -38.5h8q62 0 111 25t84 63t53.5 82.5t18.5 85.5v759q0 39 -5 63t-17 36.5t-32.5 17t-52.5 4.5q-9 0 -23.5 -1.5t-45.5 -8.5l55 105l249 -48q-4 -16 -7 -47.5t-5.5 -65.5t-4 -65.5t-1.5 -47.5v-799 q-6 -39 -35.5 -77.5t-72.5 -73t-94 -65t-97.5 -54.5t-85 -40t-55.5 -23q-24 7 -79 24t-119.5 38.5t-129 46t-110.5 48.5q-68 45 -68 74v779q0 65 -6.5 108t-14.5 68.5t-19 38.5t-18 16q-14 5 -25 5q-13 26 -26.5 68t-23.5 76zM350 1449l255 259q30 31 48 41.5t36 10.5 q29 0 46.5 -17.5t17.5 -44.5q0 -20 -13.5 -37.5t-40.5 -34.5l-289 -177h-60z" />
<glyph unicode="&#xdb;" horiz-adv-x="1197" d="M0 1380h283v-935q2 -31 16.5 -76.5t56.5 -89t121.5 -76t216.5 -38.5h8q62 0 111 25t84 63t53.5 82.5t18.5 85.5v759q0 39 -5 63t-17 36.5t-32.5 17t-52.5 4.5q-9 0 -23.5 -1.5t-45.5 -8.5l55 105l249 -48q-4 -16 -7 -47.5t-5.5 -65.5t-4 -65.5t-1.5 -47.5v-799 q-6 -39 -35.5 -77.5t-72.5 -73t-94 -65t-97.5 -54.5t-85 -40t-55.5 -23q-24 7 -79 24t-119.5 38.5t-129 46t-110.5 48.5q-68 45 -68 74v779q0 65 -6.5 108t-14.5 68.5t-19 38.5t-18 16q-14 5 -25 5q-13 26 -26.5 68t-23.5 76zM260 1533q81 117 305 320q98 -59 158 -125 q32 -37 69 -75.5t78 -78.5l-120 -125q-146 166 -217 206q-101 -93 -183 -201z" />
<glyph unicode="&#xdc;" horiz-adv-x="1197" d="M0 1380h283v-935q2 -31 16.5 -76.5t56.5 -89t121.5 -76t216.5 -38.5h8q62 0 111 25t84 63t53.5 82.5t18.5 85.5v759q0 39 -5 63t-17 36.5t-32.5 17t-52.5 4.5q-9 0 -23.5 -1.5t-45.5 -8.5l55 105l249 -48q-4 -16 -7 -47.5t-5.5 -65.5t-4 -65.5t-1.5 -47.5v-799 q-6 -39 -35.5 -77.5t-72.5 -73t-94 -65t-97.5 -54.5t-85 -40t-55.5 -23q-24 7 -79 24t-119.5 38.5t-129 46t-110.5 48.5q-68 45 -68 74v779q0 65 -6.5 108t-14.5 68.5t-19 38.5t-18 16q-14 5 -25 5q-13 26 -26.5 68t-23.5 76zM250 1509v128l109 63l110 -63v-128l-110 -64z M631 1510v127l109 63l110 -63v-127l-110 -65z" />
<glyph unicode="&#xdd;" horiz-adv-x="1186" d="M0 1173l116 223q32 -7 59.5 -13.5t53 -12.5t52.5 -12.5t59 -13.5l307 -528q77 138 161 282t161 282h117l-90 -125q-82 -140 -150 -251q-29 -48 -57.5 -95t-51 -85.5t-37.5 -64.5t-20 -34v-368q0 -47 3.5 -96t14 -94t31 -82t56.5 -56q-11 -4 -27 -8.5t-32.5 -10t-31 -10.5 t-21.5 -9q-44 25 -85 51t-86 53l-72 42q34 8 54.5 27t31 45.5t13.5 60t3 70.5v291q-84 166 -150 283t-112 190.5t-71 108t-27 36.5q-15 11 -31 11q-20 0 -35 -14q-13 -13 -13 -31v-4q2 -16 13.5 -24.5t24.5 -8.5q12 0 23 5l25 -118zM350 1449l255 259q30 31 48 41.5t36 10.5 q29 0 46.5 -17.5t17.5 -44.5q0 -20 -13.5 -37.5t-40.5 -34.5l-289 -177h-60z" />
<glyph unicode="&#xde;" horiz-adv-x="1074" d="M0 1173l117 223q20 -4 37 -8.5t45.5 -9.5t73.5 -13.5t119 -20.5v-257q81 10 130 20q50 10 166 31q13 -4 45 -22.5t70.5 -50.5t77 -75.5t63.5 -95.5q20 -41 25 -87.5t5 -82.5q0 -68 -18.5 -121.5t-49.5 -93.5q-28 -35 -64 -66.5t-71.5 -56t-67 -38t-52.5 -14.5l-258 116 v-8h-1v-85q0 -47 2.5 -96t12 -94t28.5 -80t51 -51l11 -7l-113 -38q-41 23 -78 45t-78 46l-91 55l10 3q33 7 50 28.5t25 50.5t8.5 64.5t0.5 73.5v551q0 94 -4 155t-12 98.5t-19 57t-23 30.5q-15 11 -31 11q-20 0 -35 -14q-13 -13 -13 -31v-4q2 -16 13.5 -24.5t24.5 -8.5 q12 0 22 5l26 -118zM393 539q7 -3 45.5 -23t81 -43t77 -42.5t34.5 -21.5q25 10 57 37.5t61 68.5t48.5 96.5t19.5 123.5v9q0 32 -13.5 71.5t-37 79t-57.5 72.5t-75 53q-19 8 -40.5 11t-41.5 3q-45 0 -84.5 -13.5t-74.5 -38.5v-443z" />
<glyph unicode="&#xdf;" horiz-adv-x="1143" d="M0 137l10 3q33 7 50 28.5t25 50.5t8.5 64.5t0.5 73.5l6 692q6 305 307 347h112q126 -18 165.5 -45t76.5 -60t65.5 -69.5t44.5 -76.5q22 -54 22 -104q0 -41 -12.5 -80.5t-30.5 -72.5t-38 -59t-34 -41q124 -39 194.5 -126t70.5 -219v-27l-5 -97q-9 -156 -130 -237.5 t-331 -81.5h-41l-90 83l72 1q54 0 109.5 18t102.5 50.5t78.5 77t41.5 100.5q2 9 2 18v18q0 36 -7.5 81.5t-23 91.5t-39.5 86t-56 65q-41 32 -95 32h-149l-96 97h247q41 12 66 41t37.5 62.5t16 65t3.5 52.5q-43 260 -274 267l-44 -1q-181 -30 -183 -207v-742q0 -47 2.5 -96 t12 -94t28.5 -80t51 -51l11 -7l-113 -38q-41 23 -78 45t-78 46z" />
<glyph unicode="&#xe0;" horiz-adv-x="963" d="M0 17l8 8q20 0 39.5 18.5t35.5 55.5q79 199 140 360q26 67 51 132t45 116.5t33 84.5t15 35q-16 36 -25.5 45t-24.5 9q-10 0 -21 -9t-11 -23q0 -15 11 -22.5t21 -7.5h11q6 0 9 2l-30 -68l-113 68l76 155q52 -9 111.5 -18t110.5 -17l324 -867q11 -27 47 -52l-17.5 -7 t-25.5 -10l-32 -12q-33 17 -64 36t-63 39q-13 6 -24.5 14t-23.5 16q16 4 27.5 10t23.5 19l-42 114h-423l-74 -186q-10 -21 -18.5 -32.5t-19.5 -20.5t-23 -9q-20 0 -36.5 8.5t-27.5 15.5zM234 322h358l-175 470zM294 1189q0 19 12.5 31t32.5 12q12 0 25 -7.5t34 -28.5 l178 -182h-42l-202 124q-19 12 -28.5 24.5t-9.5 26.5z" />
<glyph unicode="&#xe1;" horiz-adv-x="963" d="M0 17l8 8q20 0 39.5 18.5t35.5 55.5q79 199 140 360q26 67 51 132t45 116.5t33 84.5t15 35q-16 36 -25.5 45t-24.5 9q-10 0 -21 -9t-11 -23q0 -15 11 -22.5t21 -7.5h11q6 0 9 2l-30 -68l-113 68l76 155q52 -9 111.5 -18t110.5 -17l324 -867q11 -27 47 -52l-17.5 -7 t-25.5 -10l-32 -12q-33 17 -64 36t-63 39q-13 6 -24.5 14t-23.5 16q16 4 27.5 10t23.5 19l-42 114h-423l-74 -186q-10 -21 -18.5 -32.5t-19.5 -20.5t-23 -9q-20 0 -36.5 8.5t-27.5 15.5zM234 322h358l-175 470zM294 1014l179 182q21 21 33.5 28.5t24.5 7.5q21 0 33 -12 t12 -31q0 -14 -9.5 -26.5t-28.5 -24.5l-202 -124h-42z" />
<glyph unicode="&#xe2;" horiz-adv-x="963" d="M0 17l8 8q20 0 39.5 18.5t35.5 55.5q79 199 140 360q26 67 51 132t45 116.5t33 84.5t15 35q-16 36 -25.5 45t-24.5 9q-10 0 -21 -9t-11 -23q0 -15 11 -22.5t21 -7.5h11q6 0 9 2l-30 -68l-113 68l76 155q52 -9 111.5 -18t110.5 -17l324 -867q11 -27 47 -52l-17.5 -7 t-25.5 -10l-32 -12q-33 17 -64 36t-63 39q-13 6 -24.5 14t-23.5 16q16 4 27.5 10t23.5 19l-42 114h-423l-74 -186q-10 -21 -18.5 -32.5t-19.5 -20.5t-23 -9q-20 0 -36.5 8.5t-27.5 15.5zM224 1073q57 82 214 224q68 -41 110 -87q23 -26 48.5 -53t54.5 -55l-84 -88 q-102 117 -152 145q-71 -66 -128 -141zM234 322h358l-175 470z" />
<glyph unicode="&#xe3;" horiz-adv-x="963" d="M0 17l8 8q20 0 39.5 18.5t35.5 55.5q79 199 140 360q26 67 51 132t45 116.5t33 84.5t15 35q-16 36 -25.5 45t-24.5 9q-10 0 -21 -9t-11 -23q0 -15 11 -22.5t21 -7.5h11q6 0 9 2l-30 -68l-113 68l76 155q52 -9 111.5 -18t110.5 -17l324 -867q11 -27 47 -52l-17.5 -7 t-25.5 -10l-32 -12q-33 17 -64 36t-63 39q-13 6 -24.5 14t-23.5 16q16 4 27.5 10t23.5 19l-42 114h-423l-74 -186q-10 -21 -18.5 -32.5t-19.5 -20.5t-23 -9q-20 0 -36.5 8.5t-27.5 15.5zM168 1033l128 128q87 39 130 39q28 0 72 -27t74 -27q38 0 138 37l-128 -120 q-72 -19 -95 -19q-28 0 -73.5 24.5t-77.5 24.5q-42 -3 -168 -60zM234 322h358l-175 470z" />
<glyph unicode="&#xe4;" horiz-adv-x="963" d="M0 17l8 8q20 0 39.5 18.5t35.5 55.5q79 199 140 360q26 67 51 132t45 116.5t33 84.5t15 35q-16 36 -25.5 45t-24.5 9q-10 0 -21 -9t-11 -23q0 -15 11 -22.5t21 -7.5h11q6 0 9 2l-30 -68l-113 68l76 155q52 -9 111.5 -18t110.5 -17l324 -867q11 -27 47 -52l-17.5 -7 t-25.5 -10l-32 -12q-33 17 -64 36t-63 39q-13 6 -24.5 14t-23.5 16q16 4 27.5 10t23.5 19l-42 114h-423l-74 -186q-10 -21 -18.5 -32.5t-19.5 -20.5t-23 -9q-20 0 -36.5 8.5t-27.5 15.5zM231 1056v90l76 44l77 -44v-90l-77 -44zM234 322h358l-175 470zM498 1057v89l76 44 l77 -44v-89l-77 -45z" />
<glyph unicode="&#xe5;" horiz-adv-x="963" d="M0 17l8 8q20 0 39.5 18.5t35.5 55.5q79 199 140 360q26 67 51 132t45 116.5t33 84.5t15 35q-16 36 -25.5 45t-24.5 9q-10 0 -21 -9t-11 -23q0 -15 11 -22.5t21 -7.5h11q6 0 9 2l-30 -68l-113 68l76 155q52 -9 111.5 -18t110.5 -17l324 -867q11 -27 47 -52l-17.5 -7 t-25.5 -10l-32 -12q-33 17 -64 36t-63 39q-13 6 -24.5 14t-23.5 16q16 4 27.5 10t23.5 19l-42 114h-423l-74 -186q-10 -21 -18.5 -32.5t-19.5 -20.5t-23 -9q-20 0 -36.5 8.5t-27.5 15.5zM234 322h358l-175 470zM280 1153q0 60 44.5 102.5t107.5 42.5q64 0 108.5 -42.5 t44.5 -102.5t-44.5 -102.5t-108.5 -42.5q-63 0 -107.5 42.5t-44.5 102.5zM339 1149q0 -37 21.5 -63.5t51.5 -26.5q29 0 50.5 26.5t21.5 63.5q0 38 -21.5 64.5t-50.5 26.5q-30 0 -51.5 -26.5t-21.5 -64.5z" />
<glyph unicode="&#xe6;" horiz-adv-x="1397" d="M0 17l8 8q20 0 39.5 18.5t35.5 55.5q79 199 140 360q26 67 51 132t45 116.5t33 84.5t15 35q-16 36 -25.5 45t-24.5 9q-10 0 -21 -9t-11 -23q0 -15 11 -22.5t21 -7.5h11q6 0 9 2l-30 -68l-113 68l76 155q52 -9 111.5 -18t110.5 -17l178 -476v311q-8 45 -21.5 76t-35.5 43 q-16 5 -33 5h-14q-7 0 -13 -2q-8 -1 -15 -3l-13 -2l39 73l105 -13q39 -4 72.5 -8t36.5 -4l236 36l79 -31q54 -22 97 -53t80 -63l-91 -95q-22 35 -53 66.5t-64.5 55t-69 36.5t-67.5 13h-5q-46 -2 -82 -25t-60 -67v-302h76q28 0 57.5 1.5t55.5 7t47 15.5t32 28l23 -62 l-84 -118q-5 16 -17.5 25t-30 13t-39 5t-44.5 1h-76v-251l23 -63q23 -18 53 -31q30 -12 63.5 -19t54.5 -7q67 0 125.5 40.5t96.5 111.5l103 -106q-30 -20 -70 -40t-83.5 -36t-87.5 -25t-81 -9l-119 34q4 -2 7 -5l-17.5 -7t-25.5 -10l-32 -12q-33 17 -64 36t-63 39 q-13 6 -25 14q-10 8 -22 15l-3 1q30 13 45 46q0 1 1 3l-35 94h-423l-74 -186q-10 -21 -18.5 -32.5t-19.5 -20.5t-23 -9q-20 0 -36.5 8.5t-27.5 15.5zM234 322h358l-175 470z" />
<glyph unicode="&#xe7;" horiz-adv-x="923" d="M0 444q0 80 32.5 149t83 126.5t111 102.5t118 77.5t102 52t63.5 25.5l255 -147q-10 -32 -21.5 -60.5t-22.5 -58.5l-36 -96l-14 11q-13 11 -33 24q8 11 21 38.5t13 59.5q0 24 -14 44q-13 19 -38.5 31.5t-58 18.5t-69 8.5t-71.5 2.5q-110 0 -175 -65q-28 -29 -45 -71 t-26 -86t-12.5 -85t-3.5 -67q5 -76 28.5 -154t70 -140t118 -100.5t174.5 -38.5q53 0 97.5 27.5t78.5 61.5t55 65.5t24 38.5q5 -17 9 -28.5t9 -29.5q-13 -33 -26.5 -66.5t-26.5 -66.5q-27 -18 -68 -29t-85.5 -16.5t-87.5 -7.5t-76 -2q-19 0 -37 2l-13 -38q23 3 46 3 q63 0 99.5 -29.5t36.5 -84.5q0 -57 -43.5 -90.5t-120.5 -33.5q-67 0 -106 24l-35 71q63 -37 113 -37t71 15.5t21 49.5q0 33 -36 48q-30 12 -76 12q-12 0 -26 -2l27 97q-47 9 -92 28q-82 34 -147 100q-64 64 -99.5 147.5t-35.5 168.5z" />
<glyph unicode="&#xe8;" horiz-adv-x="872" d="M0 893l39 73l105 -13q39 -4 72.5 -8t36.5 -4l236 36l79 -31q54 -22 97 -53t80 -63l-91 -95q-22 35 -53 66.5t-64.5 55t-69 36.5t-67.5 13h-5q-46 -2 -82 -25t-60 -67v-302h76q28 0 57.5 1.5t55.5 7t47 15.5t32 28l23 -62l-84 -118q-5 16 -17.5 25t-30 13t-39 5t-44.5 1 h-76v-271q0 -24 22.5 -42.5t53 -31t64 -19.5t54.5 -7q67 0 125.5 40.5t96.5 111.5l103 -106q-30 -20 -70 -40t-83.5 -36t-87.5 -25t-81 -9l-364 105q30 13 44.5 46t14.5 93v539q-8 45 -21.5 76t-35.5 43q-16 5 -33 5h-14q-7 0 -13 -2q-8 -1 -15 -3zM245 1189q0 19 12.5 31 t32.5 12q12 0 25 -7.5t34 -28.5l178 -182h-42l-202 124q-19 12 -28.5 24.5t-9.5 26.5z" />
<glyph unicode="&#xe9;" horiz-adv-x="872" d="M0 893l39 73l105 -13q39 -4 72.5 -8t36.5 -4l236 36l79 -31q54 -22 97 -53t80 -63l-91 -95q-22 35 -53 66.5t-64.5 55t-69 36.5t-67.5 13h-5q-46 -2 -82 -25t-60 -67v-302h76q28 0 57.5 1.5t55.5 7t47 15.5t32 28l23 -62l-84 -118q-5 16 -17.5 25t-30 13t-39 5t-44.5 1 h-76v-271q0 -24 22.5 -42.5t53 -31t64 -19.5t54.5 -7q67 0 125.5 40.5t96.5 111.5l103 -106q-30 -20 -70 -40t-83.5 -36t-87.5 -25t-81 -9l-364 105q30 13 44.5 46t14.5 93v539q-8 45 -21.5 76t-35.5 43q-16 5 -33 5h-14q-7 0 -13 -2q-8 -1 -15 -3zM245 1014l179 182 q21 21 33.5 28.5t24.5 7.5q21 0 33 -12t12 -31q0 -14 -9.5 -26.5t-28.5 -24.5l-202 -124h-42z" />
<glyph unicode="&#xea;" horiz-adv-x="872" d="M0 893l39 73l105 -13q39 -4 72.5 -8t36.5 -4l236 36l79 -31q54 -22 97 -53t80 -63l-91 -95q-22 35 -53 66.5t-64.5 55t-69 36.5t-67.5 13h-5q-46 -2 -82 -25t-60 -67v-302h76q28 0 57.5 1.5t55.5 7t47 15.5t32 28l23 -62l-84 -118q-5 16 -17.5 25t-30 13t-39 5t-44.5 1 h-76v-271q0 -24 22.5 -42.5t53 -31t64 -19.5t54.5 -7q67 0 125.5 40.5t96.5 111.5l103 -106q-30 -20 -70 -40t-83.5 -36t-87.5 -25t-81 -9l-364 105q30 13 44.5 46t14.5 93v539q-8 45 -21.5 76t-35.5 43q-16 5 -33 5h-14q-7 0 -13 -2q-8 -1 -15 -3zM182 1073q57 82 214 224 q68 -41 110 -87q23 -26 48.5 -53t54.5 -55l-84 -88q-102 117 -152 145q-71 -66 -128 -141z" />
<glyph unicode="&#xeb;" horiz-adv-x="872" d="M0 893l39 73l105 -13q39 -4 72.5 -8t36.5 -4l236 36l79 -31q54 -22 97 -53t80 -63l-91 -95q-22 35 -53 66.5t-64.5 55t-69 36.5t-67.5 13h-5q-46 -2 -82 -25t-60 -67v-302h76q28 0 57.5 1.5t55.5 7t47 15.5t32 28l23 -62l-84 -118q-5 16 -17.5 25t-30 13t-39 5t-44.5 1 h-76v-271q0 -24 22.5 -42.5t53 -31t64 -19.5t54.5 -7q67 0 125.5 40.5t96.5 111.5l103 -106q-30 -20 -70 -40t-83.5 -36t-87.5 -25t-81 -9l-364 105q30 13 44.5 46t14.5 93v539q-8 45 -21.5 76t-35.5 43q-16 5 -33 5h-14q-7 0 -13 -2q-8 -1 -15 -3zM175 1056v90l76 44 l77 -44v-90l-77 -44zM442 1057v89l76 44l77 -44v-89l-77 -45z" />
<glyph unicode="&#xec;" horiz-adv-x="448" d="M0 821l82 156q14 -3 26 -6t32 -6.5t51.5 -9.5t82.5 -14v-691q0 -33 2 -67.5t8.5 -66t20 -56t35.5 -35.5l8 -5l-79 -26q-29 16 -55 31.5t-54 31.5l-64 39l7 2q23 5 35 20t17.5 35.5t6 45t0.5 51.5v386q0 65 -3 108t-8.5 69t-13 40t-16.5 21q-10 8 -22 8q-14 0 -24 -10 q-9 -9 -9 -21v-3q1 -11 9 -17t17 -6t16 3l18 -82zM35 1189q0 19 12.5 31t32.5 12q12 0 25 -7.5t34 -28.5l178 -182h-42l-202 124q-19 12 -28.5 24.5t-9.5 26.5z" />
<glyph unicode="&#xed;" horiz-adv-x="448" d="M0 821l82 156q14 -3 26 -6t32 -6.5t51.5 -9.5t82.5 -14v-691q0 -33 2 -67.5t8.5 -66t20 -56t35.5 -35.5l8 -5l-79 -26q-29 16 -55 31.5t-54 31.5l-64 39l7 2q23 5 35 20t17.5 35.5t6 45t0.5 51.5v386q0 65 -3 108t-8.5 69t-13 40t-16.5 21q-10 8 -22 8q-14 0 -24 -10 q-9 -9 -9 -21v-3q1 -11 9 -17t17 -6t16 3l18 -82zM35 1014l179 182q21 21 33.5 28.5t24.5 7.5q21 0 33 -12t12 -31q0 -14 -9.5 -26.5t-28.5 -24.5l-202 -124h-42z" />
<glyph unicode="&#xee;" horiz-adv-x="487" d="M-40 1073q57 82 214 224q68 -41 110 -87q23 -26 48.5 -53t54.5 -55l-84 -88q-102 117 -152 145q-70 -66 -128 -141zM0 821l82 156q14 -3 26 -6t32 -6.5t51.5 -9.5t82.5 -14v-691q0 -33 2 -67.5t8.5 -66t20 -56t35.5 -35.5l8 -5l-79 -26q-29 16 -55 31.5t-54 31.5l-64 39 l7 2q23 5 35 20t17.5 35.5t6 45t0.5 51.5v386q0 65 -3 108t-8.5 69t-13 40t-16.5 21q-10 8 -22 8q-14 0 -24 -10q-9 -9 -9 -21v-3q1 -11 9 -17t17 -6t16 3l18 -82z" />
<glyph unicode="&#xef;" horiz-adv-x="485" d="M-35 1056v90l76 44l77 -44v-90l-77 -44zM0 821l82 156q14 -3 26 -6t32 -6.5t51.5 -9.5t82.5 -14v-691q0 -33 2 -67.5t8.5 -66t20 -56t35.5 -35.5l8 -5l-79 -26q-29 16 -55 31.5t-54 31.5l-64 39l7 2q23 5 35 20t17.5 35.5t6 45t0.5 51.5v386q0 65 -3 108t-8.5 69t-13 40 t-16.5 21q-10 8 -22 8q-14 0 -24 -10q-9 -9 -9 -21v-3q1 -11 9 -17t17 -6t16 3l18 -82zM232 1057v89l76 44l77 -44v-89l-77 -45z" />
<glyph unicode="&#xf0;" horiz-adv-x="1015" d="M-2 579l84 118q5 -16 17.5 -25t30 -13t38.5 -5h4q-1 45 -5 79q-5 46 -12.5 76t-16 45t-17.5 20q-10 8 -22 8q-14 0 -24 -10q-9 -9 -9 -21v-3q1 -11 9 -17t17 -6t16 3l18 -82l-126 75l76 145l205 -25q2 1 34 6t71.5 10.5t77 12t52.5 8.5l83 -26q60 -18 109.5 -54 t88.5 -83.5t64.5 -101.5t40.5 -111q7 -31 10 -64t3 -63q0 -62 -11.5 -121t-28.5 -109t-38 -87.5t-40 -56.5q-15 -20 -56.5 -38.5t-91 -34t-98 -25.5t-74.5 -10q-11 0 -15 1l-361 110q6 2 7 2t6 2q20 6 32 21.5t18 35t7 43.5t1 47v313l-17 -1q-29 -1 -55 -6.5t-47 -15.5 t-32 -28zM281 157q0 -24 22 -42.5t53.5 -31t64 -19.5t54.5 -7q44 0 88.5 19.5t80.5 56.5q54 56 84 145.5t30 198.5v19q-3 79 -29 149t-66.5 125.5t-91 91.5t-101.5 49q-14 3 -26 4.5t-26 1.5q-91 0 -137 -85v-179h8v-1h16q28 0 57.5 1.5t56 7t47 15.5t31.5 28l23 -62 l-84 -118q-5 16 -17.5 25t-30 13t-39 5t-44.5 1h-24v-411z" />
<glyph unicode="&#xf1;" horiz-adv-x="1002" d="M0 821l82 156q36 -6 63 -11t49.5 -9t43 -8.5t41.5 -7.5v-79q1 -7 25.5 -41t78.5 -106t140.5 -185t212.5 -274v529q0 19 -3.5 41t-12.5 40.5t-23 30.5t-35 12q-12 0 -25 -1t-29 -4h-7q12 25 20 42t16 31q7 -1 11 -2.5t11 -2.5q45 -9 90 -17t93 -16q-6 -30 -9 -60.5 t-3 -59.5v-572q0 -33 1.5 -66.5t9 -65t22 -56.5t39.5 -39l-77 -26l-154 102q49 12 61 57q-124 157 -221 281q-41 53 -82 104.5t-73.5 92t-53.5 67t-23 30.5v-481q0 -33 2.5 -66.5t10 -65t22.5 -56.5t40 -39q-14 -3 -40 -11.5t-39 -13.5l-171 101q24 2 37.5 18t19.5 38 t7.5 48t1.5 47v382q0 65 -5 110t-12 73.5t-16 42.5t-16 19q-10 8 -22 8q-14 0 -24 -10q-9 -9 -9 -21v-3q1 -11 9 -17t17 -6t16 3l18 -82zM182 1033l128 128q87 39 130 39q28 0 72 -27t74 -27q38 0 138 37l-128 -120q-72 -19 -95 -19q-28 0 -73.5 24.5t-77.5 24.5 q-42 -3 -168 -60z" />
<glyph unicode="&#xf2;" horiz-adv-x="1031" d="M0 456q0 94 22.5 171t73.5 138t131 106t197 73q8 3 29.5 7.5t48.5 9.5t55 9t47 8q9 -5 32 -22t56 -44t69 -63t68.5 -78t57 -88.5t32.5 -93.5q7 -30 9.5 -60.5t2.5 -55.5q0 -41 -8.5 -92.5t-29 -105.5t-55 -104.5t-87 -90t-125.5 -63.5t-168 -24q-108 0 -193.5 33t-144 94 t-89.5 146.5t-31 189.5zM128 487q0 -44 8 -95t25 -102t44.5 -97.5t65.5 -82.5t88.5 -57t114.5 -21q123 0 201 77q31 32 53 74t36 85.5t19.5 85t5.5 78.5q0 91 -27 175.5t-74.5 149t-114 103t-145.5 38.5q-84 0 -141 -38.5t-92.5 -98.5t-51 -132.5t-15.5 -141.5zM315 1189 q0 19 12.5 31t32.5 12q12 0 25 -7.5t34 -28.5l178 -182h-42l-202 124q-19 12 -28.5 24.5t-9.5 26.5z" />
<glyph unicode="&#xf3;" horiz-adv-x="1031" d="M0 456q0 94 22.5 171t73.5 138t131 106t197 73q8 3 29.5 7.5t48.5 9.5t55 9t47 8q9 -5 32 -22t56 -44t69 -63t68.5 -78t57 -88.5t32.5 -93.5q7 -30 9.5 -60.5t2.5 -55.5q0 -41 -8.5 -92.5t-29 -105.5t-55 -104.5t-87 -90t-125.5 -63.5t-168 -24q-108 0 -193.5 33t-144 94 t-89.5 146.5t-31 189.5zM128 487q0 -44 8 -95t25 -102t44.5 -97.5t65.5 -82.5t88.5 -57t114.5 -21q123 0 201 77q31 32 53 74t36 85.5t19.5 85t5.5 78.5q0 91 -27 175.5t-74.5 149t-114 103t-145.5 38.5q-84 0 -141 -38.5t-92.5 -98.5t-51 -132.5t-15.5 -141.5zM315 1014 l179 182q21 21 33.5 28.5t24.5 7.5q21 0 33 -12t12 -31q0 -14 -9.5 -26.5t-28.5 -24.5l-202 -124h-42z" />
<glyph unicode="&#xf4;" horiz-adv-x="1031" d="M0 456q0 94 22.5 171t73.5 138t131 106t197 73q8 3 29.5 7.5t48.5 9.5t55 9t47 8q9 -5 32 -22t56 -44t69 -63t68.5 -78t57 -88.5t32.5 -93.5q7 -30 9.5 -60.5t2.5 -55.5q0 -41 -8.5 -92.5t-29 -105.5t-55 -104.5t-87 -90t-125.5 -63.5t-168 -24q-108 0 -193.5 33t-144 94 t-89.5 146.5t-31 189.5zM128 487q0 -44 8 -95t25 -102t44.5 -97.5t65.5 -82.5t88.5 -57t114.5 -21q123 0 201 77q31 32 53 74t36 85.5t19.5 85t5.5 78.5q0 91 -27 175.5t-74.5 149t-114 103t-145.5 38.5q-84 0 -141 -38.5t-92.5 -98.5t-51 -132.5t-15.5 -141.5zM245 1073 q57 82 214 224q68 -41 110 -87q23 -26 48.5 -53t54.5 -55l-84 -88q-102 117 -152 145q-71 -66 -128 -141z" />
<glyph unicode="&#xf5;" horiz-adv-x="1031" d="M0 456q0 94 22.5 171t73.5 138t131 106t197 73q8 3 29.5 7.5t48.5 9.5t55 9t47 8q9 -5 32 -22t56 -44t69 -63t68.5 -78t57 -88.5t32.5 -93.5q7 -30 9.5 -60.5t2.5 -55.5q0 -41 -8.5 -92.5t-29 -105.5t-55 -104.5t-87 -90t-125.5 -63.5t-168 -24q-108 0 -193.5 33t-144 94 t-89.5 146.5t-31 189.5zM128 487q0 -44 8 -95t25 -102t44.5 -97.5t65.5 -82.5t88.5 -57t114.5 -21q123 0 201 77q31 32 53 74t36 85.5t19.5 85t5.5 78.5q0 91 -27 175.5t-74.5 149t-114 103t-145.5 38.5q-84 0 -141 -38.5t-92.5 -98.5t-51 -132.5t-15.5 -141.5zM182 1033 l128 128q87 39 130 39q28 0 72 -27t74 -27q38 0 138 37l-128 -120q-72 -19 -95 -19q-28 0 -73.5 24.5t-77.5 24.5q-42 -3 -168 -60z" />
<glyph unicode="&#xf6;" horiz-adv-x="1031" d="M0 456q0 94 22.5 171t73.5 138t131 106t197 73q8 3 29.5 7.5t48.5 9.5t55 9t47 8q9 -5 32 -22t56 -44t69 -63t68.5 -78t57 -88.5t32.5 -93.5q7 -30 9.5 -60.5t2.5 -55.5q0 -41 -8.5 -92.5t-29 -105.5t-55 -104.5t-87 -90t-125.5 -63.5t-168 -24q-108 0 -193.5 33t-144 94 t-89.5 146.5t-31 189.5zM128 487q0 -44 8 -95t25 -102t44.5 -97.5t65.5 -82.5t88.5 -57t114.5 -21q123 0 201 77q31 32 53 74t36 85.5t19.5 85t5.5 78.5q0 91 -27 175.5t-74.5 149t-114 103t-145.5 38.5q-84 0 -141 -38.5t-92.5 -98.5t-51 -132.5t-15.5 -141.5zM245 1056v90 l76 44l77 -44v-90l-77 -44zM512 1057v89l76 44l77 -44v-89l-77 -45z" />
<glyph unicode="&#xf7;" horiz-adv-x="1087" d="M1 627l120 168q7 -22 25 -35t43 -19t55.5 -7t63.5 -1h109v-1h263q40 0 82 1.5t79.5 9.5t67 22.5t45.5 39.5l33 -88l-120 -168q-7 22 -25 35t-43 19t-55.5 7t-63.5 1h-349v1h-23q-40 0 -82 -1.5t-79.5 -9.5t-67 -22.5t-45.5 -39.5zM390 245v127l109 63l110 -63v-127 l-110 -65zM390 965v128l109 63l110 -63v-128l-110 -64z" />
<glyph unicode="&#xf8;" horiz-adv-x="1031" d="M0 456q0 94 22.5 171t73.5 138t131 106t197 73q8 3 29.5 7.5t48.5 9.5t55 9t47 8q9 -5 32 -22q21 -15 50 -39l31 49h78l-64 -88q15 -14 30 -29q36 -36 68.5 -78t57 -88.5t32.5 -93.5q7 -30 9.5 -60.5t2.5 -55.5q0 -41 -8.5 -92.5t-29 -105.5t-55 -104.5t-87 -90 t-125.5 -63.5t-168 -24q-108 0 -193 33q-24 9 -45 20q-16 -27 -32 -53q-15 20 -29.5 37t-28.5 35l9 11q5 3 8.5 6t5.5 4l2 2q-18 15 -35 32q-58 61 -89 146.5t-31 189.5zM128 487q0 -44 8 -95t25 -102t44 -97q7 -11 14 -21q13 19 31 45q27 41 68 104q26 44 49 78q8 15 17 29 t16 25t12 18t5 8q79 133 80 131l130 211q-25 22 -54 39q-66 38 -145 38q-84 0 -141 -38.5t-92.5 -98.5t-51 -132.5t-15.5 -141.5zM263 117q4 -3 8 -7q38 -36 88.5 -57t114.5 -21q123 0 201 77q31 32 53 74t36 85.5t19.5 85t5.5 78.5q0 91 -27 175.5t-75 149.5q-8 11 -17 22 q-22 -35 -41 -66q-19 -30 -37 -59.5t-32 -53t-23 -37.5q-8 -18 -91 -144q-64 -103 -130 -212q-26 -45 -53 -90z" />
<glyph unicode="&#xf9;" horiz-adv-x="868" d="M0 966h198v-654q2 -22 12 -54t39.5 -62.5t85 -53t151.5 -26.5h5q44 0 78 17.5t58.5 44t37.5 57.5t13 60v531q0 27 -3.5 44t-11.5 25.5t-22.5 12t-37.5 3.5q-6 0 -16 -1t-32 -6l39 73l174 -33q-3 -12 -5 -34t-4 -45.5t-3 -45.5t-1 -34v-559q-4 -27 -24.5 -54t-50.5 -51 t-66 -45.5t-68.5 -38.5t-59.5 -28t-39 -16q-16 5 -54.5 17t-84 27t-90.5 32t-77 34q-48 31 -48 52v545q0 46 -4.5 76t-10 47.5t-13.5 27t-12 11.5q-10 3 -18 3q-9 18 -18.5 47.5t-16.5 53.5zM245 1189q0 19 12.5 31t32.5 12q12 0 25 -7.5t34 -28.5l178 -182h-42l-202 124 q-19 12 -28.5 24.5t-9.5 26.5z" />
<glyph unicode="&#xfa;" horiz-adv-x="868" d="M0 966h198v-654q2 -22 12 -54t39.5 -62.5t85 -53t151.5 -26.5h5q44 0 78 17.5t58.5 44t37.5 57.5t13 60v531q0 27 -3.5 44t-11.5 25.5t-22.5 12t-37.5 3.5q-6 0 -16 -1t-32 -6l39 73l174 -33q-3 -12 -5 -34t-4 -45.5t-3 -45.5t-1 -34v-559q-4 -27 -24.5 -54t-50.5 -51 t-66 -45.5t-68.5 -38.5t-59.5 -28t-39 -16q-16 5 -54.5 17t-84 27t-90.5 32t-77 34q-48 31 -48 52v545q0 46 -4.5 76t-10 47.5t-13.5 27t-12 11.5q-10 3 -18 3q-9 18 -18.5 47.5t-16.5 53.5zM245 1014l179 182q21 21 33.5 28.5t24.5 7.5q21 0 33 -12t12 -31 q0 -14 -9.5 -26.5t-28.5 -24.5l-202 -124h-42z" />
<glyph unicode="&#xfb;" horiz-adv-x="868" d="M0 966h198v-654q2 -22 12 -54t39.5 -62.5t85 -53t151.5 -26.5h5q44 0 78 17.5t58.5 44t37.5 57.5t13 60v531q0 27 -3.5 44t-11.5 25.5t-22.5 12t-37.5 3.5q-6 0 -16 -1t-32 -6l39 73l174 -33q-3 -12 -5 -34t-4 -45.5t-3 -45.5t-1 -34v-559q-4 -27 -24.5 -54t-50.5 -51 t-66 -45.5t-68.5 -38.5t-59.5 -28t-39 -16q-16 5 -54.5 17t-84 27t-90.5 32t-77 34q-48 31 -48 52v545q0 46 -4.5 76t-10 47.5t-13.5 27t-12 11.5q-10 3 -18 3q-9 18 -18.5 47.5t-16.5 53.5zM182 1073q57 82 214 224q68 -41 110 -87q23 -26 48.5 -53t54.5 -55l-84 -88 q-102 117 -152 145q-71 -66 -128 -141z" />
<glyph unicode="&#xfc;" horiz-adv-x="868" d="M0 966h198v-654q2 -22 12 -54t39.5 -62.5t85 -53t151.5 -26.5h5q44 0 78 17.5t58.5 44t37.5 57.5t13 60v531q0 27 -3.5 44t-11.5 25.5t-22.5 12t-37.5 3.5q-6 0 -16 -1t-32 -6l39 73l174 -33q-3 -12 -5 -34t-4 -45.5t-3 -45.5t-1 -34v-559q-4 -27 -24.5 -54t-50.5 -51 t-66 -45.5t-68.5 -38.5t-59.5 -28t-39 -16q-16 5 -54.5 17t-84 27t-90.5 32t-77 34q-48 31 -48 52v545q0 46 -4.5 76t-10 47.5t-13.5 27t-12 11.5q-10 3 -18 3q-9 18 -18.5 47.5t-16.5 53.5zM175 1056v90l76 44l77 -44v-90l-77 -44zM442 1057v89l76 44l77 -44v-89l-77 -45z " />
<glyph unicode="&#xfd;" horiz-adv-x="860" d="M0 821l81 156q23 -5 42 -9.5t37 -8.5t37 -8.5t41 -9.5l215 -370q54 97 112.5 197.5t112.5 197.5h82l-63 -87q-57 -98 -105 -176q-20 -34 -40 -67t-35.5 -59.5t-26 -45t-14.5 -23.5v-258q0 -33 2.5 -67.5t10 -66t21.5 -57t40 -39.5q-8 -2 -19.5 -5.5l-23 -7t-21.5 -7 t-15 -6.5q-31 17 -59.5 35.5t-60.5 37.5l-50 29q24 6 38.5 19t21.5 31.5t9 42t2 49.5v204q-58 116 -104.5 198t-78.5 133.5t-49.5 75.5t-19.5 25q-10 8 -21 8q-14 0 -25 -10q-9 -9 -9 -21v-3q2 -11 10 -17t17 -6q8 0 16 3l17 -82zM245 1014l179 182q21 21 33.5 28.5 t24.5 7.5q21 0 33 -12t12 -31q0 -14 -9.5 -26.5t-28.5 -24.5l-202 -124h-42z" />
<glyph unicode="&#xfe;" horiz-adv-x="782" d="M0 821l82 156q14 -3 26 -6t32 -6.5t51.5 -9.5t82.5 -14v-180q57 7 91 14q35 7 117 22q9 -3 31.5 -16t49 -35.5t53.5 -53t45 -66.5q14 -29 17.5 -61.5t3.5 -57.5q0 -48 -13 -85.5t-35 -65.5q-19 -24 -44.5 -46t-50 -39.5t-47 -26.5t-36.5 -10l-181 81v-6l-1 1v-60 q0 -33 2 -67.5t8.5 -66t20 -56t35.5 -35.5l8 -5l-79 -26q-29 16 -55 31.5t-54 31.5l-64 39l7 2q23 5 35 20t17.5 35.5t6 45t0.5 51.5v386q0 65 -3 108t-8.5 69t-13 40t-16.5 21q-10 8 -22 8q-14 0 -24 -10q-9 -9 -9 -21v-3q1 -11 9 -17t17 -6t16 3l18 -82zM275 377 q5 -2 32 -16t56.5 -30t54 -29.5t24.5 -15.5q17 7 39.5 26.5t43 48t34 67.5t13.5 87v6q0 22 -9.5 50t-26 55.5t-40 50.5t-52.5 37q-13 6 -28.5 8t-29.5 2q-31 0 -58.5 -9.5t-52.5 -27.5v-310z" />
<glyph unicode="&#xff;" horiz-adv-x="860" d="M0 821l81 156q23 -5 42 -9.5t37 -8.5t37 -8.5t41 -9.5l215 -370q54 97 112.5 197.5t112.5 197.5h82l-63 -87q-57 -98 -105 -176q-20 -34 -40 -67t-35.5 -59.5t-26 -45t-14.5 -23.5v-258q0 -33 2.5 -67.5t10 -66t21.5 -57t40 -39.5q-8 -2 -19.5 -5.5l-23 -7t-21.5 -7 t-15 -6.5q-31 17 -59.5 35.5t-60.5 37.5l-50 29q24 6 38.5 19t21.5 31.5t9 42t2 49.5v204q-58 116 -104.5 198t-78.5 133.5t-49.5 75.5t-19.5 25q-10 8 -21 8q-14 0 -25 -10q-9 -9 -9 -21v-3q2 -11 10 -17t17 -6q8 0 16 3l17 -82zM175 1056v90l76 44l77 -44v-90l-77 -44z M442 1057v89l76 44l77 -44v-89l-77 -45z" />
<glyph unicode="&#x152;" horiz-adv-x="2173" d="M0 652q0 133 32 243t105 197.5t187.5 151.5t280.5 105q12 4 43 10.5t69.5 13.5t78 13t67.5 11q12 -7 46 -31q32 -23 77 -60l39 74l150 -18q57 -7 104.5 -12.5t51.5 -5.5l337 52l114 -45q76 -31 138 -75.5t114 -90.5l-130 -135q-31 50 -75.5 95t-92.5 78.5t-98.5 52 t-96.5 18.5h-7q-65 -3 -117 -35.5t-86 -95.5v-431h109q40 0 82 1.5t79.5 9.5t67 22.5t45.5 39.5l33 -88l-120 -168q-7 22 -25 35t-43 19t-55.5 7t-63.5 1h-109v-387q0 -34 32.5 -60.5t76 -44.5t91.5 -28t78 -10q95 0 178.5 58t138.5 160l147 -152q-43 -29 -100.5 -57.5 t-119.5 -51t-124.5 -35.5t-115.5 -13l-511 148q-14 -12 -28 -23q-76 -57 -180 -91t-240 -34q-154 0 -276 47t-206 134t-128 209.5t-44 271.5zM183 696q0 -63 11.5 -136t35.5 -145.5t63.5 -139.5t94 -118t126.5 -81.5t163 -30.5q176 0 287 111q45 46 76.5 105.5t51 121.5 t27.5 121.5t8 112.5q0 130 -38.5 251t-106.5 213t-163 147t-208 55q-120 0 -201.5 -55t-132 -140.5t-72.5 -189.5t-22 -202zM1012 1283q36 -31 75 -70q47 -47 89 -102q-11 63 -30 107t-50 60q-23 8 -48 8h-19q-9 -1 -17 -3z" />
<glyph unicode="&#x153;" horiz-adv-x="1551" d="M0 456q0 94 22.5 171t73.5 138t131 106t197 73q8 3 29.5 7.5t48.5 9.5t55 9t47 8q9 -5 32 -22q23 -16 54 -42l28 52l105 -13q39 -4 72.5 -8t36.5 -4l236 36l79 -31q54 -22 97 -53t80 -63l-91 -95q-22 35 -53 66.5t-64.5 55t-69 36.5t-67.5 13h-5q-46 -2 -82 -25t-60 -67 v-302h76q28 0 57.5 1.5t55.5 7t47 15.5t32 28l23 -62l-84 -118q-5 16 -17.5 25t-30 13t-39 5t-44.5 1h-76v-271q0 -24 22.5 -42.5t53 -31t64 -19.5t54.5 -7q67 0 125.5 40.5t96.5 111.5l103 -106q-30 -20 -70 -40t-83.5 -36t-87.5 -25t-81 -9l-358 103q-9 -8 -20 -15 q-52 -40 -125 -64t-168 -24q-108 0 -193.5 33t-144 94t-89.5 146.5t-31 189.5zM128 487q0 -44 8 -95t25 -102t44.5 -97.5t65.5 -82.5t88.5 -57t114.5 -21q123 0 201 77q31 32 53 74t36 85.5t19.5 85t5.5 78.5q0 91 -27 175.5t-74.5 149t-114 103t-145.5 38.5 q-84 0 -141 -38.5t-92.5 -98.5t-51 -132.5t-15.5 -141.5zM708 898q26 -22 53 -49q32 -33 62 -71q-8 44 -21 74q-13 31 -35 43q-16 5 -33 5h-14q-6 0 -12 -2z" />
<glyph unicode="&#x2c6;" horiz-adv-x="710" d="M0 1533q81 117 305 320q98 -59 158 -125q32 -37 69 -75.5t78 -78.5l-120 -125q-146 166 -217 206q-101 -93 -183 -201z" />
<glyph unicode="&#x2dc;" horiz-adv-x="874" d="M0 1476l183 183q124 55 185 55q41 0 103.5 -38.5t105.5 -38.5q54 0 197 53l-182 -171q-104 -27 -137 -27q-39 0 -104.5 35t-110.5 35q-60 -5 -240 -86z" />
<glyph unicode="&#x2000;" horiz-adv-x="927" />
<glyph unicode="&#x2001;" horiz-adv-x="1854" />
<glyph unicode="&#x2002;" horiz-adv-x="927" />
<glyph unicode="&#x2003;" horiz-adv-x="1854" />
<glyph unicode="&#x2004;" horiz-adv-x="618" />
<glyph unicode="&#x2005;" horiz-adv-x="463" />
<glyph unicode="&#x2006;" horiz-adv-x="309" />
<glyph unicode="&#x2007;" horiz-adv-x="309" />
<glyph unicode="&#x2008;" horiz-adv-x="231" />
<glyph unicode="&#x2009;" horiz-adv-x="370" />
<glyph unicode="&#x200a;" horiz-adv-x="103" />
<glyph unicode="&#x2010;" horiz-adv-x="1087" d="M1 627l120 168q7 -22 25 -35t43 -19t55.5 -7t63.5 -1l372 -1q40 0 82 1.5t79.5 9.5t67 22.5t45.5 39.5l33 -88l-120 -168q-7 22 -25 35t-43 19t-55.5 7t-63.5 1h-349v1h-23q-40 0 -82 -1.5t-79.5 -9.5t-67 -22.5t-45.5 -39.5z" />
<glyph unicode="&#x2011;" horiz-adv-x="1087" d="M1 627l120 168q7 -22 25 -35t43 -19t55.5 -7t63.5 -1l372 -1q40 0 82 1.5t79.5 9.5t67 22.5t45.5 39.5l33 -88l-120 -168q-7 22 -25 35t-43 19t-55.5 7t-63.5 1h-349v1h-23q-40 0 -82 -1.5t-79.5 -9.5t-67 -22.5t-45.5 -39.5z" />
<glyph unicode="&#x2012;" horiz-adv-x="1087" d="M1 627l120 168q7 -22 25 -35t43 -19t55.5 -7t63.5 -1l372 -1q40 0 82 1.5t79.5 9.5t67 22.5t45.5 39.5l33 -88l-120 -168q-7 22 -25 35t-43 19t-55.5 7t-63.5 1h-349v1h-23q-40 0 -82 -1.5t-79.5 -9.5t-67 -22.5t-45.5 -39.5z" />
<glyph unicode="&#x2013;" horiz-adv-x="1087" d="M1 627l120 168q7 -22 25 -35t43 -19t55.5 -7t63.5 -1h109v-1h263q40 0 82 1.5t79.5 9.5t67 22.5t45.5 39.5l33 -88l-120 -168q-7 22 -25 35t-43 19t-55.5 7t-63.5 1h-349v1h-23q-40 0 -82 -1.5t-79.5 -9.5t-67 -22.5t-45.5 -39.5z" />
<glyph unicode="&#x2014;" horiz-adv-x="1287" d="M1 627l120 168q7 -22 25 -35t43 -19t55.5 -7t63.5 -1h109v-1h463q40 0 82 1.5t79.5 9.5t67 22.5t45.5 39.5l33 -88l-120 -168q-7 22 -25 35t-43 19t-55.5 7t-63.5 1h-549v1h-23q-40 0 -82 -1.5t-79.5 -9.5t-67 -22.5t-45.5 -39.5z" />
<glyph unicode="&#x2018;" horiz-adv-x="330" d="M-3 889v152l233 300l-95 -280l81 -47v-125l-110 -65z" />
<glyph unicode="&#x2019;" horiz-adv-x="320" d="M-13 824l95 280l-81 47v125l110 65l109 -65v-152z" />
<glyph unicode="&#x201a;" horiz-adv-x="320" d="M-13 -296l93 282l-79 45v127l109 61l110 -61v-154z" />
<glyph unicode="&#x201c;" horiz-adv-x="674" d="M2 889v152l234 300l-96 -280l81 -47v-125l-110 -65zM341 889v152l233 300l-93 -280l78 -47v-125l-109 -65z" />
<glyph unicode="&#x201d;" horiz-adv-x="672" d="M0 824l93 280l-78 47v125l109 65l109 -65v-152zM338 824l96 280l-81 47v125l110 65l109 -65v-152z" />
<glyph unicode="&#x201e;" horiz-adv-x="658" d="M-14 -269l93 280l-78 47v125l109 65l109 -65v-152zM324 -269l96 280l-81 47v125l110 65l109 -65v-152z" />
<glyph unicode="&#x2022;" horiz-adv-x="618" d="M0 628q0 108 76 183t184 75q107 0 182.5 -75.5t75.5 -182.5q0 -106 -76.5 -183t-183.5 -77t-182.5 76.5t-75.5 183.5z" />
<glyph unicode="&#x2026;" horiz-adv-x="919" d="M0 45v127l109 63l110 -63v-127l-110 -65zM300 44v128l109 63l110 -63v-128l-110 -64zM600 44v128l109 63l110 -63v-128l-110 -64z" />
<glyph unicode="&#x202f;" horiz-adv-x="370" />
<glyph unicode="&#x2039;" horiz-adv-x="808" d="M1 697q171 148 172 147l375 296h160q-185 -124 -260 -182q-101 -84 -198 -167l-49 -51q41 -42 72 -72t67.5 -67.5t75.5 -76.5q102 -99 127 -120q37 -42 149 -137l-178 -89q-53 58 -138 128q-94 95 -159 162q-27 29 -54 57.5t-49 50.5t-35 37t-16 18q-62 65 -62 66z" />
<glyph unicode="&#x203a;" horiz-adv-x="808" d="M1 1140h159l375 -296q2 1 173 -147q0 -1 -62 -66q-3 -3 -16 -18t-35 -37t-49 -50.5t-55 -57.5q-65 -67 -159 -162q-85 -70 -138 -128l-177 89q112 95 149 137q25 21 126 120q40 39 76 76.5t67 67.5t72 72l-48 51q-97 83 -198 167q-75 58 -260 182z" />
<glyph unicode="&#x205f;" horiz-adv-x="463" />
<glyph unicode="&#x20ac;" horiz-adv-x="1276" d="M0 634q0 115 46.5 213.5t118.5 180.5t158.5 146t168.5 111t146 74.5t91 36.5l364 -211q-14 -45 -30.5 -85.5t-32.5 -83.5l-52 -137l-19 15q-19 16 -47 34q11 16 29.5 55.5t18.5 84.5q0 35 -20 64q-19 27 -55.5 44.5t-82.5 26t-98 12.5t-102 4q-158 0 -251 -94 q-39 -41 -63 -101q-22 -53 -35 -108q15 -9 35 -14q25 -6 55.5 -7t63.5 -1h109v-1h23q40 0 82 1.5t79.5 9.5t67 22.5t45.5 39.5l33 -88l-120 -168q-7 22 -25 35t-43 19t-55.5 7t-63.5 1h-109v1h-23q-40 0 -82 -1.5t-79 -9.5l-16 -4q-3 -43 -3 -74q4 -64 17 -128l1 -1 q18 -13 43 -19t55.5 -7t63.5 -1h109v-1h23q40 0 82 1.5t79.5 9.5t67 22.5t45.5 39.5l33 -88l-120 -168q-7 22 -25 35t-43 19t-55.5 7t-63.5 1h-109v1h-23q-40 0 -82 -1q-18 -1 -36 -3q31 -75 79 -138q66 -89 168.5 -144.5t249.5 -55.5q76 0 139.5 39.5t112 88.5t78 94 t34.5 55q7 -25 12.5 -41.5t13.5 -42.5q-19 -46 -38.5 -94.5t-37.5 -95.5q-39 -25 -97.5 -41t-122 -24t-125 -10.5t-108.5 -2.5q-126 0 -244 49.5t-210 143.5q-91 91 -142 210.5t-51 240.5z" />
<glyph unicode="&#x2122;" horiz-adv-x="1378" d="M0 1285l59 111l249 -26l251 26l32 -62l33 62q20 -4 34.5 -7t34.5 -6l73 -13v-66l91 -124q17 -24 33.5 -47t29.5 -40.5t21.5 -29t9.5 -12.5q5 7 21.5 29.5t38.5 51.5t46 60.5t44 58t33 44.5t13 19v74h90l-8 -61l-3 -27q-1 -6 -1 -10v-413q0 -24 2 -48.5t7 -47t15.5 -41 t28.5 -27.5l-57 -19q-23 14 -47 30.5t-62 43.5q17 4 26 14t13 25t5 33t1 37v343l-206 -260l-88 111q-17 21 -33 41.5t-29.5 37.5t-22.5 28t-12 14v-315q0 -24 2 -48.5t8 -47t16.5 -40.5t28.5 -28l-57 -19q-13 6 -24.5 13t-25.5 15.5t-32 19t-42 25.5q17 2 27 14t14 28 t5.5 33.5t1.5 30.5v279q0 49 -4 80t-9 49.5t-11.5 27.5t-11.5 14q-8 5 -16 5q-10 0 -17 -7q-7 -6 -7 -15v-2q1 -8 7 -12.5t12 -4.5t11 3l13 -59l-64 38l-64 -38l13 59q3 -2 13 -2q8 0 12 7q2 7 2 12v3q-1 16 -12 20q-8 4 -17 4q-5 0 -11 -1l-148 -26q-7 -3 -13 -7.5 t-10.5 -17t-6.5 -36t-2 -61.5v-308q0 -24 1 -48.5t6.5 -46.5t15 -39.5t26.5 -26.5l5 -3l-58 -19q-19 10 -36.5 21.5t-37.5 23.5q-11 7 -24 13.5t-25 14.5l6 1q16 4 24.5 14.5t12.5 25t4.5 32.5t0.5 37v308q0 38 -2 61.5t-6.5 36t-11 17.5t-16.5 7l-142 26q-6 1 -11 1 q-9 0 -16 -4q-11 -4 -13 -20v-3q0 -5 3 -12t12 -7t12 2l13 -59z" />
<glyph unicode="&#x25fc;" horiz-adv-x="975" d="M0 0v975h975v-975h-975z" />
</font>
</defs>
</svg>
