<?xml version="1.0" standalone="no"?>
<!DOCTYPE svg PUBLIC "-//W3C//DTD SVG 1.1//EN" "http://www.w3.org/Graphics/SVG/1.1/DTD/svg11.dtd" >
<svg xmlns="http://www.w3.org/2000/svg" xmlns:xlink="http://www.w3.org/1999/xlink" version="1.1">
<metadata>
Created by FontForge 20170731 at Mon Apr 29 21:49:53 2013
 By Aleksey,,,
Copyright 2013 Adobe Systems Incorporated. All rights reserved.
</metadata>
<defs>
<font id="Quarca-ExtMedIt" horiz-adv-x="568" >
  <font-face 
    font-family="Quarca Ext Medium Italic"
    font-weight="600"
    font-style="italic"
    font-stretch="expanded"
    units-per-em="1000"
    panose-1="0 0 0 0 0 0 0 0 0 0"
    ascent="760"
    descent="-240"
    x-height="505"
    cap-height="710"
    bbox="-103 -250 1212.66 964"
    underline-thickness="50"
    underline-position="-200"
    unicode-range="U+0020-FB06"
  />
<missing-glyph horiz-adv-x="580" 
 />
    <glyph glyph-name="ff" unicode="ff" horiz-adv-x="696" 
d="M733 642q-70 0 -82 -58l-17 -79h129l-37 -98h-113l-86 -407h-111l86 407h-227l-86 -407h-110l86 407h-107l38 98h90l11 52q16 74 65.5 107t150.5 33h89l-47 -98h-68q-72 0 -83 -57l-8 -37h227l20 95q15 73 65.5 106.5t151.5 33.5h88l-47 -98h-68z" />
    <glyph glyph-name="fi" unicode="fi" horiz-adv-x="627" 
d="M502 407h-227l-86 -407h-110l86 407h-107l38 98h90l20 95q15 73 65.5 106.5t150.5 33.5h89l-47 -98h-68q-71 0 -83 -58l-17 -79h338l-107 -505h-111zM536 607l25 121h125l-25 -121h-125z" />
    <glyph glyph-name="fl" unicode="fl" horiz-adv-x="647" 
d="M451 195l45 212h-221l-86 -407h-110l86 407h-107l38 98h90l20 95q15 73 65.5 106.5t150.5 33.5h89l-47 -98h-68q-71 0 -83 -58l-17 -79h221l45 214l96 21h19l-76 -356h1l-51 -241q-10 -49 43 -49h22l-13 -99h-60q-134 0 -108 118l17 82h-1z" />
    <glyph glyph-name="ffi" unicode="ffi" horiz-adv-x="962" 
d="M247 273l-58 -273h-110l29 137h-1l57 270h-106l38 98h89l13 60q14 69 62 100.5t145 31.5h181q47 53 169 53h241l-47 -98h-213q-70 0 -82 -58l-19 -89h334l-107 -505h-110l86 407h-224l-46 -217h-1l-40 -190h-111l58 273h1l28 134h-229l-28 -134h1zM386 599q-72 0 -83 -57
l-8 -37h229l20 94h-158z" />
    <glyph glyph-name="ffl" unicode="ffl" horiz-adv-x="954" 
d="M247 273l-58 -273h-110l29 137h-1l57 270h-106l38 98h89l13 60q14 69 62 100.5t145 31.5h181q47 53 169 53h241l-47 -98h-213q-70 0 -82 -58l-19 -89h334l-107 -505h-110l86 407h-224l-46 -217h-1l-40 -190h-111l58 273h1l28 134h-229l-28 -134h1zM386 599q-72 0 -83 -57
l-8 -37h229l20 94h-158z" />
    <glyph glyph-name="f_f_j" unicode="ffj" horiz-adv-x="962" 
d="M247 273l-58 -273h-110l29 137h-1l57 270h-106l38 98h89l13 60q14 69 62 100.5t145 31.5h181q47 53 169 53h241l-47 -98h-213q-70 0 -82 -58l-19 -89h334l-107 -505h-110l86 407h-224l-46 -217h-1l-40 -190h-111l58 273h1l28 134h-229l-28 -134h1zM386 599q-72 0 -83 -57
l-8 -37h229l20 94h-158z" />
    <glyph glyph-name="f_j" unicode="fj" horiz-adv-x="627" 
d="M502 407h-227l-86 -407h-110l86 407h-107l38 98h90l20 95q15 73 65.5 106.5t150.5 33.5h89l-47 -98h-68q-71 0 -83 -58l-17 -79h338l-36 -170h2l-89 -417q-26 -120 -167 -120h-83l38 98h34q63 0 73 52l12 52h-2zM534 598l25 121h125l-25 -121h-125z" />
    <glyph glyph-name=".notdef" horiz-adv-x="580" 
 />
    <glyph glyph-name=".null" horiz-adv-x="0" 
 />
    <glyph glyph-name="nonmarkingreturn" horiz-adv-x="333" 
 />
    <glyph glyph-name="NULL" horiz-adv-x="967" 
 />
    <glyph glyph-name="NULL" horiz-adv-x="967" 
 />
    <glyph glyph-name="space" unicode=" " horiz-adv-x="221" 
 />
    <glyph glyph-name="exclam" unicode="!" horiz-adv-x="286" 
d="M191 183h-96l99 566l127 21h17zM45 -5l26 121h125l-26 -121h-125z" />
    <glyph glyph-name="quotedbl" unicode="&#x22;" horiz-adv-x="407" 
d="M156 720h145l-96 -226h-59zM344 720h145l-96 -226h-59z" />
    <glyph glyph-name="numbersign" unicode="#" horiz-adv-x="830" 
d="M8 0l131 177h-110l37 98h140l101 134h-159l37 98h189l151 203h107l-150 -203h161l151 203h107l-150 -203h122l-37 -98h-152l-102 -134h172l-37 -98h-202l-131 -177h-108l131 177h-160l-132 -177h-107zM415 409l-102 -134h161l102 134h-161z" />
    <glyph glyph-name="dollar" unicode="$" horiz-adv-x="628" 
d="M306 -76l-100 -24l22 100h-44q-91 0 -127.5 31t-22.5 94l20 93h118l-12 -56q-6 -29 8.5 -42.5t50.5 -13.5h160q71 0 82 56l9 43q5 26 -5.5 42t-41.5 27l-189 76q-79 33 -100.5 58.5t-8.5 87.5l19 88q14 64 53.5 95t112.5 31h68l17 76l99 21l-21 -97h33q92 0 130 -31
t22 -95l-18 -83h-118l10 46q7 31 -8.5 44t-52.5 13h-132q-40 0 -59.5 -13.5t-25.5 -44.5l-7 -29q-5 -27 5 -42.5t40 -27.5l191 -78q24 -9 36.5 -14.5t28.5 -13.5t23.5 -14t15.5 -15t10.5 -18.5t2.5 -22t-3 -27.5l-25 -119q-26 -125 -166 -125h-83z" />
    <glyph glyph-name="percent" unicode="%" horiz-adv-x="850" 
d="M160 0l518 710h85l-517 -710h-86zM132 627q17 83 121 83h110q104 0 87 -83l-37 -173q-18 -84 -122 -84h-110q-52 0 -73.5 21t-12.5 63zM331 643h-72q-47 0 -56 -37l-28 -132q-4 -19 6.5 -28t33.5 -9h72q47 0 54 37l28 132q5 19 -4.5 28t-33.5 9zM516 256q18 83 122 83
h110q53 0 74 -20.5t12 -62.5l-37 -173q-18 -84 -122 -84h-110q-52 0 -73.5 21t-12.5 63zM715 272h-72q-47 0 -55 -36l-29 -133q-4 -18 7 -27.5t34 -9.5h72q45 0 52 37l29 133q4 18 -5 27t-33 9z" />
    <glyph glyph-name="ampersand" unicode="&#x26;" horiz-adv-x="767" 
d="M503 604h-109q-78 0 -92 -65l-16 -75q-6 -26 8.5 -41.5t42.5 -15.5h462l-22 -105h-106l-36 -167q-14 -69 -61 -102t-135 -33h-248q-88 0 -120.5 33t-18.5 102l26 122q7 34 40.5 64.5t84.5 33.5q-27 5 -36.5 31t-4.5 50l30 139q14 69 61 102t135 33h141q103 0 141.5 -30
t22.5 -105l-16 -74h-118l8 38q7 34 -7.5 49.5t-56.5 15.5zM242 106h190q79 0 93 65l28 131h-227q-60 0 -93 -13.5t-40 -46.5l-15 -71q-8 -34 7 -49.5t57 -15.5z" />
    <glyph glyph-name="quotesingle" unicode="'" horiz-adv-x="219" 
d="M156 720h145l-96 -226h-59z" />
    <glyph glyph-name="parenleft" unicode="(" horiz-adv-x="313" 
d="M373 642h-24q-61 0 -73 -58l-122 -573q-13 -57 49 -57h29l-29 -99h-28q-86 0 -120 28.5t-19 97.5l135 634q15 69 61 97t135 28h35z" />
    <glyph glyph-name="parenright" unicode=")" horiz-adv-x="313" 
d="M166 642h-23l12 98h35q89 0 123 -28t19 -97l-135 -634q-15 -69 -60 -97.5t-131 -28.5h-27l12 99h29q61 0 74 57l122 573q12 58 -50 58z" />
    <glyph glyph-name="asterisk" unicode="*" horiz-adv-x="429" 
d="M295 721h72l-20 -91l102 48l39 -49l-125 -60l98 -58l-58 -51l-82 47l-20 -93h-72l21 95l-103 -48l-34 49l119 58l-99 60l61 49l81 -47z" />
    <glyph glyph-name="plus" unicode="+" horiz-adv-x="556" 
d="M45 243l39 106h172l31 148h118l-31 -148h188l-39 -106h-172l-32 -152h-118l32 152h-188z" />
    <glyph glyph-name="comma" unicode="," horiz-adv-x="243" 
d="M14 -142h-18l52 259h123l-24 -114z" />
    <glyph glyph-name="hyphen" unicode="-" horiz-adv-x="499" 
d="M487 341l-37 -98h-386l37 98h386z" />
    <glyph glyph-name="period" unicode="." horiz-adv-x="238" 
d="M18 -5l26 121h125l-26 -121h-125z" />
    <glyph glyph-name="slash" unicode="/" horiz-adv-x="497" 
d="M481 747h120l-503 -784h-121z" />
    <glyph glyph-name="zero" unicode="0" horiz-adv-x="707" 
d="M70 142l14 69h1l76 357q15 73 60 107.5t130 34.5h202q101 0 138.5 -34.5t22.5 -107.5l-90 -426q-16 -73 -60.5 -107.5t-129.5 -34.5h-203q-101 0 -139.5 35t-21.5 107zM525 604h-159q-80 0 -94 -65l-78 -368q-8 -34 7 -49.5t58 -15.5h160q42 0 63 15.5t29 49.5l10 47h1
l68 321q8 35 -7 50t-58 15z" />
    <glyph glyph-name="one" unicode="1" horiz-adv-x="327" 
d="M86 0l124 588l-111 -51l24 115l127 58h103l-41 -195h1l-109 -515h-118z" />
    <glyph glyph-name="two" unicode="2" horiz-adv-x="617" 
d="M470 604h-125q-79 0 -93 -65l-8 -38h-118l14 67q15 73 60.5 107.5t130.5 34.5h166q101 0 138.5 -34.5t22.5 -107.5l-15 -74h-1l-6 -27q-12 -56 -53 -89.5t-117 -60.5l-226 -78q-65 -22 -77 -75l-12 -58h222q78 0 92 65l10 47h119l-16 -76q-16 -73 -60.5 -107.5
t-129.5 -34.5h-377l39 186q12 57 55.5 92t121.5 63l228 79q30 11 45 26t21 43l11 49h2v1q8 35 -7 50t-57 15z" />
    <glyph glyph-name="three" unicode="3" horiz-adv-x="651" 
d="M223 106h156q42 0 63 15.5t29 49.5l4 20h-1l12 54q6 29 -11.5 44.5t-51.5 15.5h-187l23 105h161q66 0 79 58l15 71q8 34 -7.5 49.5t-57.5 15.5h-95q-80 0 -94 -65l-8 -38h-118l14 67q15 73 60.5 107.5t130.5 34.5h144q97 0 135 -33.5t23 -101.5l-18 -81l-12 -56
q-15 -69 -79 -80q42 -3 64 -25.5t13 -65.5l-10 -49h1l-16 -76q-16 -73 -60.5 -107.5t-129.5 -34.5h-198q-101 0 -139.5 35t-22.5 107l15 69h118l-8 -40q-8 -34 6.5 -49.5t57.5 -15.5z" />
    <glyph glyph-name="four" unicode="4" horiz-adv-x="647" 
d="M18 116l40 189q13 63 69 107l364 298h144l-404 -337q-48 -40 -58 -83l-14 -68h252l39 187l97 21h26l-44 -208h119l-39 -106h-103l-24 -116h-118l24 116h-370z" />
    <glyph glyph-name="five" unicode="5" horiz-adv-x="611" 
d="M224 106h131q78 0 92 65l3 14h-1l20 94q13 67 -62 67h-303l77 364h488l-38 -106h-354l-32 -152h216q162 0 134 -135l-21 -99h1l-16 -76q-16 -73 -60.5 -107.5t-128.5 -34.5h-188q-92 0 -127 35t-19 107l16 76h118l-10 -47q-8 -34 7 -49.5t57 -15.5z" />
    <glyph glyph-name="six" unicode="6" horiz-adv-x="666" 
d="M638 307l-37 -174q-28 -133 -185 -133h-206q-89 0 -123 33t-19 100l94 442q15 69 62 102t136 33h177q96 0 135 -32.5t24 -102.5l-16 -74h-118l8 38q8 34 -8 49.5t-58 15.5h-138q-80 0 -94 -64l-22 -107h257q81 0 113 -31t18 -95zM453 327h-226l-33 -157q-15 -64 64 -64
h142q78 0 92 64l20 94q13 63 -59 63z" />
    <glyph glyph-name="seven" unicode="7" horiz-adv-x="549" 
d="M117 604l22 106h503l-36 -171q-12 -58 -56 -107l-405 -432h-141l442 471q36 38 47 90l9 43h-385z" />
    <glyph glyph-name="eight" unicode="8" horiz-adv-x="690" 
d="M178 463l13 63h1l9 42q15 73 60.5 107.5t130.5 34.5h135q100 0 138 -35t23 -107l-15 -74h-1l-7 -31q-9 -42 -24 -63t-49 -32q41 -13 58 -37t6 -76l-8 -37h1l-16 -76q-16 -73 -60.5 -107.5t-128.5 -34.5h-207q-101 0 -139.5 35t-21.5 107l11 52h-1l13 61q11 52 39.5 76
t77.5 37q-32 11 -40 33.5t2 61.5zM474 315h-169q-75 0 -88 -60l-10 -44h1l-8 -40q-8 -34 7 -49.5t58 -15.5h163q42 0 63 15.5t29 49.5l18 84q6 30 -11.5 45t-52.5 15zM499 604h-92q-80 0 -94 -65l-8 -38h-1l-5 -23q-7 -31 9 -44.5t57 -13.5h95q78 0 90 58l13 61q8 35 -7 50
t-57 15z" />
    <glyph glyph-name="nine" unicode="9" horiz-adv-x="653" 
d="M462 201l18 85h-253q-76 0 -104 31t-14 96l29 135h1l4 20q15 73 60.5 107.5t130.5 34.5h166q101 0 138.5 -34.5t22.5 -107.5l-15 -74h-3l-59 -276h3l-16 -76q-16 -73 -60.5 -107.5t-129.5 -34.5h-167q-101 0 -139.5 35t-22.5 107l15 69h118l-8 -40q-8 -34 6 -49.5
t56 -15.5h127q78 0 92 65l6 30h-2zM472 604h-127q-77 -1 -90 -65l-8 -38h-1l-9 -44q-8 -34 6.5 -50t53.5 -16h206l25 120h3l6 28q8 35 -7 50t-58 15z" />
    <glyph glyph-name="colon" unicode=":" horiz-adv-x="243" 
d="M21 -5l26 121h125l-26 -121h-125zM96 361l26 121h125l-26 -121h-125z" />
    <glyph glyph-name="semicolon" unicode=";" horiz-adv-x="250" 
d="M17 -142h-18l52 259h123l-24 -114zM95 330l25 121h125l-25 -121h-125z" />
    <glyph glyph-name="less" unicode="&#x3c;" horiz-adv-x="451" 
d="M361 5l-313 276l11 50l430 276l-23 -108l-310 -193l228 -193z" />
    <glyph glyph-name="equal" unicode="=" horiz-adv-x="548" 
d="M365 267l-31 -88h-129l31 88h129zM394 400l-32 -87h-129l32 87h129z" />
    <glyph glyph-name="greater" unicode="&#x3e;" horiz-adv-x="450" 
d="M452 281l-429 -276l23 108l310 193l-228 193l23 108l312 -276z" />
    <glyph glyph-name="question" unicode="?" horiz-adv-x="575" 
d="M463 313l-55 -20q-37 -12 -52 -24.5t-20 -36.5l-19 -87h-118l25 118q11 50 40 73t84 43l69 25q36 12 50.5 24.5t18.5 35.5l18 82q6 32 -7.5 45t-52.5 13h-132q-74 0 -85 -57l-13 -61h-118l21 98q27 126 189 126h193q80 0 112.5 -31t19.5 -95l-28 -131q-13 -61 -43 -88
t-97 -52zM164 -5l26 121h125l-26 -121h-125z" />
    <glyph glyph-name="at" unicode="@" horiz-adv-x="873" 
d="M235 102h488l-35 -102h-473q-90 0 -125.5 34t-20.5 103l91 430q28 136 204 136h400q91 0 126.5 -33.5t21.5 -102.5l-60 -284q-22 -102 -153 -102h-53q-56 0 -77.5 11t-16.5 35q-24 -43 -91 -43h-49q-77 0 -104 21.5t-13 86.5l17 84q16 75 47.5 107.5t107.5 32.5h94
q68 0 99.5 -19.5t19.5 -76.5l-28 -133q-2 -6 5.5 -10.5t22.5 -4.5h23q40 0 47 34l51 242q6 27 -8 40t-50 13h-402q-68 0 -79 -53l-83 -392q-6 -28 7.5 -41t48.5 -13zM446 272h40q40 0 54 9.5t21 39.5l13 61q5 26 -5.5 36t-41.5 10h-49q-31 0 -45 -12t-20 -38l-11 -52
q-6 -29 2.5 -41.5t41.5 -12.5z" />
    <glyph glyph-name="A" unicode="A" horiz-adv-x="662" 
d="M383 710h121l113 -710h-124l-20 130h-303l-74 -130h-123zM411 549l-180 -313h227z" />
    <glyph glyph-name="B" unicode="B" horiz-adv-x="657" 
d="M33 0l150 710h289q108 0 152 -35.5t29 -107.5l-19 -91q-19 -87 -97 -103q119 -3 94 -118l-24 -113q-16 -72 -64.5 -107t-136.5 -35h-373zM219 320l-46 -214h218q90 0 105 66l16 76q8 37 -12.5 54.5t-72.5 17.5h-208zM279 604l-38 -179h180q82 0 97 65l10 48q7 34 -13 50
t-71 16h-165z" />
    <glyph glyph-name="C" unicode="C" horiz-adv-x="660" 
d="M247 106h160q78 0 92 65l10 47h118l-16 -76q-16 -73 -60.5 -107.5t-128.5 -34.5h-203q-101 0 -139.5 35t-22.5 107l13 59l78 367q15 73 60.5 107.5t130.5 34.5h202q100 0 137.5 -34.5t22.5 -107.5l-15 -74h-118l9 45q8 35 -7 50t-57 15h-159q-80 0 -94 -65l-78 -368
q-8 -34 7 -49.5t58 -15.5z" />
    <glyph glyph-name="D" unicode="D" horiz-adv-x="700" 
d="M161 604l22 106h326q127 0 176.5 -42t29.5 -130l-78 -366q-19 -88 -78.5 -130t-169.5 -42h-356l22 106h1l106 498h-1zM489 604h-209l-106 -498h207q65 0 100 24.5t46 77.5l62 294q11 54 -12 78t-88 24z" />
    <glyph glyph-name="E" unicode="E" horiz-adv-x="581" 
d="M279 604l-54 -255h303l-39 -105h-287l-29 -138h370l-38 -106h-472l150 710h486l-38 -106h-352z" />
    <glyph glyph-name="F" unicode="F" horiz-adv-x="562" 
d="M279 604l-54 -255h288l-39 -105h-272l-51 -244h-118l150 710h479l-38 -106h-345z" />
    <glyph glyph-name="G" unicode="G" horiz-adv-x="679" 
d="M361 267l39 106h266l-51 -238q-14 -68 -57 -101.5t-123 -33.5h-226q-91 0 -129.5 32.5t-23.5 99.5l94 443q27 135 173 135h236q92 0 129 -32.5t23 -99.5l-16 -77h-118l8 39q8 34 -7 49t-55 15h-171q-41 0 -62.5 -16t-29.5 -51l-78 -367q-7 -34 8 -49t56 -15h164
q81 0 94 62l21 99h-164z" />
    <glyph glyph-name="H" unicode="H" horiz-adv-x="693" 
d="M151 0h-118l150 710h118l-74 -349h319l74 349h118l-150 -710h-118l54 256h-319z" />
    <glyph glyph-name="I" unicode="I" horiz-adv-x="256" 
d="M151 0h-118l150 710h118z" />
    <glyph glyph-name="J" unicode="J" horiz-adv-x="419" 
d="M17 106h124q79 0 93 64l114 540h118l-119 -563q-31 -147 -197 -147h-171z" />
    <glyph glyph-name="K" unicode="K" horiz-adv-x="619" 
d="M151 0h-118l150 710h118l-70 -332l373 332h130l-397 -355l258 -355h-134l-240 332z" />
    <glyph glyph-name="L" unicode="L" horiz-adv-x="540" 
d="M301 710l-128 -604h346l-38 -106h-448l150 710h118z" />
    <glyph glyph-name="M" unicode="M" horiz-adv-x="793" 
d="M144 0h-111l150 710h125l130 -345l277 345h123l-150 -710h-111l110 521l-217 -277h-113l-102 282z" />
    <glyph glyph-name="N" unicode="N" horiz-adv-x="710" 
d="M151 0h-118l150 710h118l209 -454q11 -25 18 -61l109 515h118l-150 -710h-118l-201 433q-14 28 -26 84z" />
    <glyph glyph-name="O" unicode="O" horiz-adv-x="709" 
d="M70 201l78 367q15 73 60.5 107.5t130.5 34.5h229q100 0 138 -35t23 -107l-15 -74h-1l-75 -352q-16 -73 -60.5 -107.5t-128.5 -34.5h-230q-101 0 -139.5 35t-22.5 107zM540 604h-186q-80 0 -94 -65l-78 -368q-8 -34 7 -49.5t58 -15.5h187q78 0 92 65l78 368q8 35 -7 50
t-57 15z" />
    <glyph glyph-name="P" unicode="P" horiz-adv-x="635" 
d="M203 252l-53 -252h-118l150 710h330q100 0 142 -37t26 -110l-36 -164q-31 -147 -194 -147h-247zM278 604l-53 -247h214q79 0 92 65l25 118q7 33 -8.5 48.5t-55.5 15.5h-214z" />
    <glyph glyph-name="Q" unicode="Q" horiz-adv-x="709" 
d="M59 142l90 426q15 73 60.5 107.5t130.5 34.5h229q100 0 138 -35t23 -107l-15 -74h-3l-59 -276h2l-16 -76q-16 -73 -60.5 -107.5t-128.5 -34.5h-77l-23 -107h-110l23 107h-43q-101 0 -139.5 35t-21.5 107zM248 106h37l18 84h110l-18 -84h40q42 0 63 15.5t29 49.5l6 30h-2
l66 310h3l6 28q8 35 -7 50t-58 15h-186q-80 0 -94 -65l-78 -368q-8 -34 7 -49.5t58 -15.5z" />
    <glyph glyph-name="R" unicode="R" horiz-adv-x="651" 
d="M33 0l150 710h337q95 0 134.5 -33.5t25.5 -101.5l-42 -191q-29 -134 -179 -135l151 -249h-136l-151 249h-120l-52 -249h-118zM279 604l-53 -249h206q82 0 96 67l25 115q7 35 -9.5 51t-58.5 16h-206z" />
    <glyph glyph-name="S" unicode="S" horiz-adv-x="628" 
d="M423 274l-189 76q-79 33 -100.5 58.5t-8.5 87.5l19 88q14 64 53.5 95t112.5 31h196q92 0 130 -31t22 -95l-18 -83h-118l10 46q7 31 -8.5 44t-52.5 13h-132q-40 0 -59.5 -13.5t-25.5 -44.5l-7 -29q-5 -27 5 -42.5t40 -27.5l191 -78q24 -9 36.5 -14.5t28.5 -13.5t23.5 -14
t15.5 -15t10.5 -18.5t2.5 -22t-3 -27.5l-25 -119q-26 -125 -166 -125h-222q-91 0 -127.5 31t-22.5 94l20 93h118l-12 -56q-6 -29 8.5 -42.5t50.5 -13.5h160q71 0 82 56l9 43q5 26 -5.5 42t-41.5 27z" />
    <glyph glyph-name="T" unicode="T" horiz-adv-x="555" 
d="M634 604h-205l-128 -604h-119l128 604h-206l22 106h530z" />
    <glyph glyph-name="U" unicode="U" horiz-adv-x="681" 
d="M396 106q85 0 101 70l113 534h118l-121 -572q-15 -70 -60 -104t-127 -34h-201q-97 0 -136 34t-24 104l121 572h118l-113 -534q-8 -37 9 -53.5t61 -16.5h141z" />
    <glyph glyph-name="V" unicode="V" horiz-adv-x="634" 
d="M342 0h-123l-86 710h126l54 -515q1 -15 -4 -56q12 43 20 56l272 515h126z" />
    <glyph glyph-name="W" unicode="W" horiz-adv-x="1007" 
d="M336 0h-124l-77 710h120l44 -507q2 -43 1 -64q10 31 24 63l236 508h114l20 -508q2 -41 0 -62q12 32 26 61l260 509h120l-377 -710h-123l-27 469q-1 11 4 41t5 35q-15 -61 -22 -76z" />
    <glyph glyph-name="X" unicode="X" horiz-adv-x="583" 
d="M334 399l228 311h128l-262 -356l110 -354h-121l-96 295l-222 -295h-125l261 354l-115 356h115z" />
    <glyph glyph-name="Y" unicode="Y" horiz-adv-x="641" 
d="M344 0h-118l58 273l-164 437h119l108 -283q2 -9 5 -18t4.5 -14t2.5 -10.5t1 -11.5q9 23 33 53l228 284h126l-345 -434z" />
    <glyph glyph-name="Z" unicode="Z" horiz-adv-x="570" 
d="M632 613l-476 -507h383l-39 -106h-497l3 97l475 507h-351l6 106h499z" />
    <glyph glyph-name="bracketleft" unicode="[" horiz-adv-x="307" 
d="M151 -28h72l-12 -98h-191l178 837h179l-13 -98h-77z" />
    <glyph glyph-name="backslash" unicode="\" horiz-adv-x="751" 
d="M396 747h120l172 -784h-121z" />
    <glyph glyph-name="bracketright" unicode="]" horiz-adv-x="307" 
d="M207 613h-72l13 98h191l-178 -837h-179l13 98h76z" />
    <glyph glyph-name="asciicircum" unicode="^" horiz-adv-x="606" 
d="M74 390l315 320h52l183 -320h-114l-118 208l-204 -208h-114z" />
    <glyph glyph-name="underscore" unicode="_" horiz-adv-x="737" 
d="M644 0l-37 -98h-608l38 98h607z" />
    <glyph glyph-name="grave" unicode="`" horiz-adv-x="218" 
d="M8 750h116l71 -126h-76z" />
    <glyph glyph-name="a" unicode="a" horiz-adv-x="579" 
d="M587 505l-49 -232h1l-58 -273h-94l1 55q-40 -55 -142 -55h-70q-78 0 -109.5 31.5t-18.5 94.5l52 244q15 71 60.5 106t128.5 35h73q83 0 106 -41l8 35h111zM410 195l37 173q1 24 -16.5 36t-50.5 12h-81q-78 0 -91 -63l-42 -195q-13 -63 63 -63h83q74 0 90 57l9 43h-1z" />
    <glyph glyph-name="b" unicode="b" horiz-adv-x="578" 
d="M261 0q-97 0 -115 46l-9 -46h-111l152 719l97 21h19l-57 -267q49 38 131 38h56q88 0 122 -31t20 -95l-53 -252q-15 -71 -58 -102t-126 -31h-68zM212 357l-43 -202q-10 -60 66 -60h83q76 0 89 63l41 192q7 36 -8.5 51t-59.5 15h-77q-76 0 -91 -59z" />
    <glyph glyph-name="c" unicode="c" horiz-adv-x="545" 
d="M376 408h-88q-38 0 -57.5 -14t-25.5 -44l-41 -194q-7 -31 7.5 -44.5t51.5 -13.5h87q41 0 58.5 11t23.5 41l6 25h103l-10 -45q-14 -67 -52 -98.5t-109 -31.5h-133q-91 0 -127.5 33t-21.5 101l52 238q15 69 55 102t117 33h137q86 0 118.5 -31.5t17.5 -96.5l-11 -50h-104
l5 21q7 31 -7 44.5t-52 13.5z" />
    <glyph glyph-name="d" unicode="d" horiz-adv-x="579" 
d="M637 740l-157 -740h-94l1 55q-40 -55 -142 -55h-70q-78 0 -109.5 31.5t-18.5 94.5l52 244q15 71 60.5 106t128.5 35h73q83 0 107 -42l53 250l97 21h19zM311 95q77 0 90 60l44 205q4 28 -13 42t-53 14h-81q-78 0 -91 -63l-42 -195q-7 -33 9 -48t55 -15h82z" />
    <glyph glyph-name="e" unicode="e" horiz-adv-x="543" 
d="M221 92h83q70 0 82 51l4 17h103l-6 -24q-16 -80 -56.5 -108t-138.5 -28h-73q-109 0 -148.5 29t-22.5 106l54 247q17 79 59.5 104t142.5 25h59q117 0 155 -25t21 -104l-14 -59q-14 -68 -50.5 -95t-135.5 -27h-166l-11 -51q-6 -30 7 -44t52 -14zM380 420h-96q-65 0 -74 -45
l-17 -83h159q35 0 51.5 9.5t21.5 30.5l9 43q5 23 -7.5 34t-46.5 11z" />
    <glyph glyph-name="f" unicode="f" horiz-adv-x="340" 
d="M388 642q-70 0 -82 -58l-17 -79h117l-38 -98h-100l-86 -407h-111l86 407h-99l38 98h82l20 95q15 73 65.5 106.5t151.5 33.5h89l-47 -98h-69z" />
    <glyph glyph-name="g" unicode="g" horiz-adv-x="571" 
d="M251 96h143q81 0 111 -30.5t17 -93.5l-17 -78q-15 -71 -58.5 -97.5t-136.5 -26.5h-156q-111 0 -151 26.5t-25 97.5l7 34l9 44q17 90 101 115q-5 8 0 31l2 10q4 25 23 37q-58 26 -39 109l23 109q15 70 57.5 98t130.5 28h67q60 0 99 -9l105 76l57 -68l-92 -66q7 -22 -1 -59
l-23 -109q-15 -72 -63 -99t-149 -27h-37q-43 -1 -48 -23l-1 -5q-3 -14 7 -19t38 -5zM348 7h-167q-38 0 -57.5 -15t-26.5 -48l-5 -21q-7 -33 6.5 -48t51.5 -15h167q72 0 85 63l5 21q7 33 -7 48t-52 15zM290 423q-39 0 -58.5 -15.5t-26.5 -49.5l-13 -59q-7 -33 6.5 -49
t51.5 -16h67q73 0 86 65l13 59q7 34 -7 49.5t-52 15.5h-67z" />
    <glyph glyph-name="h" unicode="h" horiz-adv-x="569" 
d="M215 370l-78 -370h-111l152 719l97 21h19l-57 -268q44 39 124 39h53q86 0 120 -31t21 -94l-83 -386h-110l75 356q7 34 -7.5 49t-55.5 15h-70q-73 0 -89 -50z" />
    <glyph glyph-name="i" unicode="i" horiz-adv-x="262" 
d="M139 407h-71l21 98h182l-107 -505h-111zM168 596l26 121h125l-26 -121h-125z" />
    <glyph glyph-name="j" unicode="j" horiz-adv-x="262" 
d="M139 407h-71l21 98h182l-125 -587q-26 -120 -168 -120h-81l37 98h34q63 0 73 52zM170 596l26 121h125l-26 -121h-125z" />
    <glyph glyph-name="k" unicode="k" horiz-adv-x="518" 
d="M572 505l-282 -256l177 -249h-121l-161 228l-48 -228h-111l152 719l97 21h19l-99 -464l255 229h122z" />
    <glyph glyph-name="l" unicode="l" horiz-adv-x="261" 
d="M65 195l111 524l97 21h19l-127 -597q-10 -49 43 -49h23l-14 -99h-60q-134 0 -108 118l17 82h-1z" />
    <glyph glyph-name="m" unicode="m" horiz-adv-x="876" 
d="M27 0l102 484l91 21h17l-9 -41q56 41 144 41h43q97 0 121 -51q58 51 157 51h42q152 0 125 -125l-80 -380h-111l74 350q7 33 -9 48.5t-56 15.5h-51q-68 0 -89 -38l-79 -376h-111l74 350q7 33 -9 48.5t-56 15.5h-51q-72 0 -89 -41l-79 -373h-111z" />
    <glyph glyph-name="n" unicode="n" 
d="M26 0l102 484l90 21h17l-9 -43q27 27 57 38t77 11h53q86 0 120 -31t21 -94l-82 -386h-111l75 356q7 34 -7.5 49t-54.5 15h-71q-73 0 -89 -50l-78 -370h-110z" />
    <glyph glyph-name="o" unicode="o" horiz-adv-x="575" 
d="M273 511h140q92 0 128 -33.5t20 -101.5l-52 -244q-14 -67 -57 -99.5t-121 -32.5h-141q-86 0 -121 33t-21 99l52 244q15 69 56 102t117 33zM388 416h-98q-38 0 -57.5 -14t-25.5 -44l-44 -206q-7 -30 7.5 -43.5t51.5 -13.5h98q37 0 56.5 13.5t26.5 43.5l44 206
q6 30 -7.5 44t-51.5 14z" />
    <glyph glyph-name="p" unicode="p" horiz-adv-x="577" 
d="M145 46l-56 -266h-110l149 704l90 21h17l-9 -42q51 48 141 48h56q89 0 122.5 -31t19.5 -95l-53 -252q-15 -71 -58 -102t-126 -31h-67q-98 0 -116 46zM302 416q-75 0 -91 -59l-43 -205q-4 -29 13 -43t53 -14h83q77 0 90 63l41 192q7 36 -9 51t-60 15h-77z" />
    <glyph glyph-name="q" unicode="q" horiz-adv-x="579" 
d="M480 0h-1l-47 -220h-110l55 262q-42 -42 -131 -42h-70q-78 0 -109.5 31.5t-18.5 94.5l52 244q15 71 60.5 106t128.5 35h73q48 0 73 -11t38 -39l10 44h104zM399 143l47 220q2 27 -15 40t-51 13h-81q-78 0 -91 -63l-42 -195q-13 -63 63 -63h83q68 0 87 48z" />
    <glyph glyph-name="r" unicode="r" horiz-adv-x="380" 
d="M425 425l-144 -34q-36 -8 -53 -22.5t-23 -42.5l-69 -326h-110l102 484l90 21h17l-13 -62q29 35 74 47l130 31h11z" />
    <glyph glyph-name="s" unicode="s" horiz-adv-x="519" 
d="M354 420h-87q-59 0 -68 -43l-3 -12q-4 -20 8 -28t47 -17l123 -29q71 -16 92 -39t8 -83l-12 -57q-13 -63 -55.5 -87.5t-130.5 -24.5h-107q-97 0 -124.5 27.5t-12.5 100.5l6 29h102l-5 -21q-5 -24 7 -34.5t44 -10.5h110q59 0 68 43l3 14q9 41 -48 55l-121 29
q-83 20 -101.5 40.5t-5.5 81.5l8 37q13 66 52 93t136 27h84q98 0 125.5 -28.5t11.5 -103.5l-6 -30h-103l5 26q5 23 -6.5 34t-43.5 11z" />
    <glyph glyph-name="t" unicode="t" horiz-adv-x="357" 
d="M405 505l-29 -98h-112l-53 -251q-7 -30 6.5 -44t49.5 -14h45l-11 -98h-75q-158 0 -130 133l58 274h-88l29 98h80l17 80l113 60h10l-30 -140h120z" />
    <glyph glyph-name="u" unicode="u" 
d="M576 505l-107 -505h-80l-1 43q-55 -43 -143 -43h-62q-160 0 -131 132l79 373h111l-75 -350q-7 -33 9 -48.5t56 -15.5h63q37 0 62 14.5t31 37.5l77 362h111z" />
    <glyph glyph-name="v" unicode="v" horiz-adv-x="535" 
d="M299 0h-135l-73 505h114l48 -388l215 388h117z" />
    <glyph glyph-name="w" unicode="w" horiz-adv-x="844" 
d="M294 0h-137l-64 505h116l38 -388l189 388h114l21 -388l205 388h116l-275 -505h-138l-25 294q-2 4 -2 21q-3 -11 -10 -21z" />
    <glyph glyph-name="x" unicode="x" horiz-adv-x="510" 
d="M280 299l162 206h122l-201 -254l94 -251h-118l-77 191l-157 -191h-122l198 251l-93 254h118z" />
    <glyph glyph-name="y" unicode="y" horiz-adv-x="541" 
d="M55 -127q34 0 57.5 14.5t46.5 54.5l31 55h-27l-71 508h115l46 -396l221 396h120l-337 -582q-53 -93 -99.5 -120.5t-133.5 -27.5h-79l36 98h74z" />
    <glyph glyph-name="z" unicode="z" horiz-adv-x="480" 
d="M498 425l-353 -340h292l-29 -85h-405l5 80l353 340h-262l6 85h398z" />
    <glyph glyph-name="braceleft" unicode="{" horiz-adv-x="360" 
d="M257 -28h24l-13 -98h-36q-77 0 -111.5 17.5t-38.5 56.5t11 102l23 107q10 47 -3 66.5t-64 19.5h-20l21 98h31q45 0 65 20t28 60l34 161q16 72 59 100.5t139 28.5h28l-12 -98h-29q-44 0 -61 -18.5t-28 -70.5l-33 -153q-13 -65 -88 -80q35 -8 48 -28.5t4 -63.5l-31 -146
q-9 -42 2 -61.5t51 -19.5z" />
    <glyph glyph-name="bar" unicode="|" horiz-adv-x="272" 
d="M101 -250h-110l213 1006l98 21h18z" />
    <glyph glyph-name="braceright" unicode="}" horiz-adv-x="359" 
d="M-5 -28h24q39 0 57.5 19t28.5 62l31 146q9 43 30.5 63.5t60.5 28.5q-68 15 -55 80l33 153q12 50 2 69.5t-53 19.5h-28l29 98h28q97 0 127.5 -28t14.5 -101l-34 -161q-8 -40 3.5 -60t56.5 -20h30l-21 -98h-19q-51 0 -72 -19.5t-31 -66.5l-23 -107q-11 -52 -23 -81.5
t-35 -53t-60 -32.5t-95 -9h-35z" />
    <glyph glyph-name="asciitilde" unicode="~" horiz-adv-x="450" 
d="M427 331l-18 -85q-41 39 -79 39q-23 0 -75.5 -28.5t-89.5 -28.5q-48 0 -89 35l18 85q42 -40 79 -40q23 0 75.5 29t89.5 29q49 0 89 -35z" />
    <glyph glyph-name="exclamdown" unicode="&#xa1;" horiz-adv-x="262" 
d="M113 352h111l-119 -563l-98 -21h-18zM118 391l25 121h125l-25 -121h-125z" />
    <glyph glyph-name="cent" unicode="&#xa2;" horiz-adv-x="544" 
d="M441 614l-22 -103q84 -2 115 -30.5t16 -97.5l-9 -42h-104l3 14q6 29 -7.5 43.5t-50.5 14.5h-68q-51 0 -74 -11.5t-30 -46.5l-42 -199q-8 -36 10 -47t69 -11h66q41 0 60 13.5t26 48.5h104l-8 -35q-15 -68 -58 -95.5t-126 -29.5l-21 -97h-111l21 97h-23q-79 0 -109.5 31
t-16.5 94l55 258q15 71 61.5 99t140.5 29l18 82l97 21h18z" />
    <glyph glyph-name="sterling" unicode="&#xa3;" horiz-adv-x="654" 
d="M472 388l-37 -98h-154q-34 -71 -123 -184h452l-39 -106h-556l22 106q42 49 73 95q33 50 51 89h-105l37 98h104q6 21 13 55q3 21 1 61.5t2 56.5q18 89 64 119t150 30h111q90 -1 124 -34.5t20 -100.5l-15 -67h-118l7 31q7 33 -7 48.5t-54 16.5h-69q-78 0 -91 -60
q-1 -7 -2 -21t-1 -16q-10 -91 -16 -118v-1h156z" />
    <glyph glyph-name="currency" unicode="&#xa4;" horiz-adv-x="609" 
d="M449 50l-47 53l-36 -27q-52 -39 -93 -39q-35 0 -61 29l-35 37l-70 -52l-58 69l66 51l-32 34q-27 29 -21 62q8 36 60 75l36 26l-44 51l88 70l47 -54l34 26q55 41 96 41q35 0 62 -30l32 -36l69 52l58 -70l-65 -49l33 -36q27 -28 19 -61q-8 -38 -60 -76l-34 -25l45 -51z
M326 139l146 104q36 25 13 50l-103 107q-11 11 -25 11q-17 0 -34 -13l-145 -105q-19 -15 -22 -25q-2 -12 10 -24l104 -105q12 -12 26 -12t30 12z" />
    <glyph glyph-name="yen" unicode="&#xa5;" horiz-adv-x="603" 
d="M326 0h-118l26 125h-144l37 98h128l8 38h-144l37 98h86l-106 351h130l85 -307l211 307h131l-252 -351h110l-37 -98h-133l-8 -38h149l-37 -98h-133z" />
    <glyph glyph-name="brokenbar" unicode="&#xa6;" horiz-adv-x="274" 
d="M101 -250h-110l85 398h110zM320 777l-88 -413h-110l83 392l97 21h18z" />
    <glyph glyph-name="section" unicode="&#xa7;" horiz-adv-x="564" 
d="M547 279l-3 -15h1l-11 -50q-13 -59 -41 -90.5t-86 -40.5l-32 -4l16 -7q55 -23 41 -94l-10 -46q-15 -70 -56 -98t-135 -28h-63q-99 0 -126.5 33.5t-8.5 118.5l8 38h98l-8 -36q-14 -67 60 -67h55q39 0 57 14.5t26 50.5l4 19q5 26 -8 38.5t-47 21.5l-133 37q-76 19 -92 49
t2 115l3 14h-1l11 50q12 58 40.5 90t86.5 41l31 4l-16 7q-54 24 -40 95l10 46q14 69 55 97t135 28h63q99 0 126.5 -33.5t9.5 -117.5l-8 -38h-98l8 35q14 68 -60 68h-55q-39 0 -57 -15t-26 -51l-4 -18q-6 -26 7 -38.5t46 -22.5l135 -36q76 -20 92 -49.5t-2 -114.5zM196 171
l54 -16h79q50 -1 75.5 14t32.5 52l7 31h-2l7 34q6 26 -4.5 38.5t-39.5 21.5l-55 15l-78 1q-50 0 -75 -14.5t-33 -52.5l-6 -31h1l-8 -34q-5 -25 5.5 -37.5t39.5 -21.5z" />
    <glyph glyph-name="dieresis" unicode="&#xa8;" horiz-adv-x="966" 
d="M447 750h94l-21 -100h-94zM638 750h93l-21 -100h-93z" />
    <glyph glyph-name="copyright" unicode="&#xa9;" horiz-adv-x="852" 
d="M856 545l-80 -380q-30 -135 -209 -135h-343q-91 0 -128.5 33.5t-22.5 101.5l80 380q29 135 209 135h343q180 0 151 -135zM240 106h343q91 0 107 70l77 361q7 35 -12 51t-66 16h-343q-93 0 -106 -67l-77 -361q-8 -36 11 -53t66 -17zM518 453h-66q-46 0 -53 -32l-28 -132
q-4 -17 5.5 -25t33.5 -8h72q21 0 31.5 7.5t15.5 29.5h69l-4 -17q-17 -86 -108 -86h-109q-51 0 -72 20.5t-13 60.5l36 167q17 81 119 81h105q94 0 77 -81l-6 -28h-70l2 10q4 18 -5.5 25.5t-31.5 7.5z" />
    <glyph glyph-name="ordfeminine" unicode="&#xaa;" horiz-adv-x="352" 
d="M294 429l1 25q-25 -25 -73 -25h-41q-81 0 -66 66l9 43q13 63 89 63h108l6 28q7 30 -22 30h-55q-32 0 -39 -30l-2 -11h-59l5 23q15 69 88 69h88q78 0 63 -69l-45 -212h-55zM204 480h54q38 0 43 27l9 43h-97q-26 0 -31 -21l-6 -28q-2 -12 4 -16.5t24 -4.5z" />
    <glyph glyph-name="guillemotleft" unicode="&#xab;" horiz-adv-x="558" 
d="M292 69h-129l-113 183l191 183h129l-190 -183zM494 69h-129l-113 183l191 183h129l-191 -183z" />
    <glyph glyph-name="logicalnot" unicode="&#xac;" horiz-adv-x="664" 
d="M503 189l11 54h-440l22 105h543l-33 -159h-103z" />
    <glyph glyph-name="registered" unicode="&#xae;" horiz-adv-x="852" 
d="M856 545l-80 -380q-30 -135 -209 -135h-343q-91 0 -128.5 33.5t-22.5 101.5l80 380q29 135 209 135h343q180 0 151 -135zM240 106h343q91 0 107 70l77 361q7 35 -12 51t-66 16h-343q-93 0 -106 -67l-77 -361q-8 -36 11 -53t66 -17zM286 190l70 329h192q42 0 60 -15.5
t12 -46.5l-20 -91q-10 -50 -71 -60l65 -116h-83l-64 113h-63l-24 -113h-74zM417 459l-21 -100h90q38 0 45 28l10 46q3 14 -5.5 20t-28.5 6h-90z" />
    <glyph glyph-name="macron" unicode="&#xaf;" horiz-adv-x="408" 
d="M467 753l-36 -91h-276l36 91h276z" />
    <glyph glyph-name="degree" unicode="&#xb0;" horiz-adv-x="349" 
d="M282 770h38q67 0 85 -17.5t6 -76.5l-12 -57q-13 -60 -37 -77t-93 -17h-37q-68 0 -86 17.5t-6 76.5l12 57q13 59 37.5 76.5t92.5 17.5zM281 583q45 0 51 33l14 63q4 21 -7.5 27t-43.5 6h-25q-44 0 -51 -33l-14 -63q-4 -21 7.5 -27t43.5 -6h25z" />
    <glyph glyph-name="plusminus" unicode="&#xb1;" horiz-adv-x="592" 
d="M80 338l39 106h172l31 148h118l-31 -148h188l-39 -106h-172l-32 -152h-118l32 152h-188zM18 15l38 106h479l-39 -106h-478z" />
    <glyph glyph-name="twosuperior" unicode="&#xb2;" horiz-adv-x="343" 
d="M300 658h-48q-37 0 -44 -28l-1 -7h-60l5 25q14 62 97 62h75q40 0 57.5 -15.5t10.5 -45.5l-2 -12q-5 -23 -19 -37.5t-42 -27.5l-109 -53q-39 -17 -43 -38h89q36 0 43 28l1 7h60l-5 -24q-13 -63 -97 -63h-162l11 52q6 28 27.5 46t60.5 35l94 42q27 13 30 30q3 12 -4.5 18
t-24.5 6z" />
    <glyph glyph-name="threesuperior" unicode="&#xb3;" horiz-adv-x="336" 
d="M257 481q43 0 50 34q3 14 -8.5 21.5t-29.5 7.5h-49l19 52h35q31 0 38 31q3 17 -5.5 24t-31.5 7h-20q-38 0 -45 -28l-1 -7h-60l5 24q14 63 97 63h52q44 0 62.5 -16.5t10.5 -49.5l-7 -33q-2 -11 -12.5 -24.5t-24.5 -17.5q44 -5 36 -45l-6 -29q-14 -66 -103 -66h-78
q-42 0 -59.5 16t-10.5 48l5 23h60l-1 -7q-3 -15 4 -21.5t27 -6.5h51z" />
    <glyph glyph-name="acute" unicode="&#xb4;" horiz-adv-x="603" 
d="M228 587h-92l125 144h129z" />
    <glyph glyph-name="mu" unicode="&#xb5;" horiz-adv-x="565" 
d="M576 505l-107 -505h-80v43q-55 -43 -143 -43h-61q-27 0 -50 3l-30 -142h-111l82 384h1l55 260h111l-75 -350q-7 -33 9 -48.5t56 -15.5h63q37 0 62 14.5t32 37.5l76 362h110z" />
    <glyph glyph-name="paragraph" unicode="&#xb6;" horiz-adv-x="709" 
d="M434 -169l150 708q8 34 -7.5 49.5t-57.5 15.5h-6l-164 -773h-120l100 474h-107q-88 0 -120.5 33t-17.5 102l29 135q15 69 61 102t134 33h262q88 0 121 -33t19 -102l-158 -744h-118zM274 411h78l41 193h-78q-42 0 -63 -15.5t-29 -49.5l-13 -62q-8 -34 7 -50t57 -16z" />
    <glyph glyph-name="periodcentered" unicode="&#xb7;" horiz-adv-x="242" 
d="M69 234l26 121h125l-26 -121h-125z" />
    <glyph glyph-name="cedilla" unicode="&#xb8;" horiz-adv-x="982" 
d="M378 -80l-27 10q-17 5 -22.5 13t-1.5 25l11 55h70l-7 -35q-3 -12 14 -17l29 -10q18 -6 23 -17.5t0 -33.5l-7 -35q-8 -37 -27.5 -49t-68.5 -12h-40q-52 0 -64.5 12t-3.5 53l3 17h66l-1 -5q-2 -9 2 -12.5t16 -3.5h26q22 0 25 16l2 10q4 13 -17 19z" />
    <glyph glyph-name="onesuperior" unicode="&#xb9;" horiz-adv-x="201" 
d="M151 658h-15l2 52h35q43 0 60.5 -15.5t10.5 -47.5l-46 -218h-59l42 201q4 15 -4 21.5t-26 6.5z" />
    <glyph glyph-name="ordmasculine" unicode="&#xba;" horiz-adv-x="352" 
d="M119 492l33 155q14 63 96 63h83q43 0 60 -15.5t10 -47.5l-33 -155q-14 -63 -96 -63h-83q-42 0 -59.5 15.5t-10.5 47.5zM214 481h56q36 0 43 28l25 121q4 15 -3.5 21.5t-27.5 6.5h-56q-36 0 -43 -28l-25 -121q-4 -15 3.5 -21.5t27.5 -6.5z" />
    <glyph glyph-name="guillemotright" unicode="&#xbb;" horiz-adv-x="558" 
d="M148 69h-129l190 183l-112 183h129l113 -183zM350 69h-129l191 183l-113 183h129l112 -183z" />
    <glyph glyph-name="onequarter" unicode="&#xbc;" horiz-adv-x="677" 
d="M54 0l515 710h85l-517 -710h-83zM155 642h-20l2 68h46q56 0 79 -20.5t14 -61.5l-61 -287h-77l56 264q4 20 -5.5 28.5t-33.5 8.5zM315 62l20 97q7 31 37 57l187 153h96l-217 -183q-21 -18 -25 -37l-4 -19h95l10 48l55 10h25l-12 -58h54l-26 -68h-42l-13 -62h-78l13 62
h-175z" />
    <glyph glyph-name="onehalf" unicode="&#xbd;" horiz-adv-x="776" 
d="M54 0l515 710h85l-517 -710h-83zM155 642h-20l2 68h46q56 0 79 -20.5t14 -61.5l-61 -287h-77l56 264q4 20 -5.5 28.5t-33.5 8.5zM631 301h-63q-50 0 -57 -37l-2 -9h-79l7 33q17 81 127 81h99q53 0 75.5 -20t14.5 -60l-3 -16q-6 -30 -25 -49t-56 -36l-143 -69
q-51 -23 -57 -50h117q49 0 57 36l2 10h78l-7 -32q-18 -83 -127 -83h-213l14 69q8 36 36.5 60t79.5 46l123 55q36 16 41 40q3 16 -7 23.5t-32 7.5z" />
    <glyph glyph-name="threequarters" unicode="&#xbe;" horiz-adv-x="811" 
d="M192 0l515 710h85l-517 -710h-83zM452 62l20 97q7 31 37 57l187 153h96l-217 -183q-21 -18 -25 -37l-4 -19h95l10 48l55 10h25l-12 -58h54l-26 -68h-42l-13 -62h-78l13 62h-175zM278 410q56 0 65 44q4 19 -11 28.5t-39 9.5h-64l26 69h46q39 0 48 40q5 22 -6 31.5t-41 9.5
h-27q-51 0 -59 -37l-2 -9h-79l7 32q18 82 128 82h68q58 0 81.5 -21.5t14.5 -64.5l-9 -44q-4 -16 -17 -33t-31 -22q26 -3 39 -19t8 -40l-9 -38q-17 -87 -135 -87h-103q-54 0 -77 21.5t-14 62.5l6 31h79l-2 -10q-4 -19 5.5 -27.5t36.5 -8.5h67z" />
    <glyph glyph-name="questiondown" unicode="&#xbf;" horiz-adv-x="570" 
d="M193 177l-56 -20q-66 -23 -96 -51t-43 -89l-28 -131q-13 -64 18.5 -95t112.5 -31h193q164 0 190 126l21 98h-119l-13 -62q-12 -57 -84 -57h-132q-40 0 -54 13.5t-7 45.5l18 82q4 23 19 35t51 25l68 25q56 20 85 43t39 73l26 118h-118l-19 -87q-5 -24 -20.5 -36.5
t-51.5 -24.5zM286 388l26 121h125l-26 -121h-125z" />
    <glyph glyph-name="Agrave" unicode="&#xc0;" horiz-adv-x="662" 
d="M383 710h121l113 -710h-124l-20 130h-303l-74 -130h-123zM411 549l-180 -313h227zM314 875h116l72 -126h-76z" />
    <glyph glyph-name="Aacute" unicode="&#xc1;" horiz-adv-x="662" 
d="M383 710h121l113 -710h-124l-20 130h-303l-74 -130h-123zM411 549l-180 -313h227zM473 750h-92l125 144h129z" />
    <glyph glyph-name="Acircumflex" unicode="&#xc2;" horiz-adv-x="662" 
d="M383 710h121l113 -710h-124l-20 130h-303l-74 -130h-123zM411 549l-180 -313h227zM441 854h65l109 -105h-107l-47 40h-4l-63 -40h-106z" />
    <glyph glyph-name="Atilde" unicode="&#xc3;" horiz-adv-x="662" 
d="M383 710h121l113 -710h-124l-20 130h-303l-74 -130h-123zM411 549l-180 -313h227zM550 846q43 0 56 -12t6 -48l-10 -45h-75l5 23q2 7 -1.5 10.5t-13.5 3.5q-15 0 -36 -12l-24 -14q-24 -15 -82 -15q-45 0 -57 11.5t-4 48.5l9 44h75l-5 -23q-2 -8 0.5 -11t13.5 -3
q17 0 39 13l16 11q27 18 88 18z" />
    <glyph glyph-name="Adieresis" unicode="&#xc4;" horiz-adv-x="662" 
d="M383 710h121l113 -710h-124l-20 130h-303l-74 -130h-123zM411 549l-180 -313h227zM332 846h94l-21 -100h-94zM523 846h93l-21 -100h-93z" />
    <glyph glyph-name="Aring" unicode="&#xc5;" horiz-adv-x="661" 
d="M383 710h121l113 -710h-125l-20 130h-302l-74 -130h-124zM411 549l-180 -313h226zM458 910h59q56 0 71 -15t5 -64l-6 -31q-11 -50 -31.5 -64.5t-77.5 -14.5h-58q-56 0 -71.5 15t-4.5 64l6 31q10 49 31.5 64t76.5 15zM481 779q36 0 40 25l5 22q3 13 -5 19t-25 6h-40
q-35 0 -41 -25l-5 -22q-2 -12 6.5 -18.5t24.5 -6.5h40z" />
    <glyph glyph-name="AE" unicode="&#xc6;" horiz-adv-x="982" 
d="M1074 710l-38 -106h-360l-21 -257h269l-38 -105h-239l-11 -136h303l-38 -106h-398l10 129h-316l-108 -129h-134l605 710h514zM546 544l-260 -309h235z" />
    <glyph glyph-name="Ccedilla" unicode="&#xc7;" horiz-adv-x="660" 
d="M315 -80l-27 10q-17 5 -22.5 13t-1.5 25l7 32h-52q-101 0 -139.5 35t-22.5 107l13 59l78 367q15 73 60.5 107.5t130.5 34.5h202q100 0 137.5 -34.5t22.5 -107.5l-15 -74h-118l9 45q8 35 -7 50t-57 15h-159q-80 0 -94 -65l-78 -368q-8 -34 7 -49.5t58 -15.5h160
q78 0 92 65l10 47h118l-16 -76q-16 -73 -60.5 -107.5t-128.5 -34.5h-81l-3 -12q-2 -12 14 -17l29 -10q18 -6 23 -17.5t0 -33.5l-7 -35q-8 -37 -27.5 -49t-68.5 -12h-40q-52 0 -64.5 12t-3.5 53l3 17h66l-1 -5q-2 -9 2 -12.5t16 -3.5h26q22 0 25 16l2 10q4 13 -17 19z" />
    <glyph glyph-name="Egrave" unicode="&#xc8;" horiz-adv-x="581" 
d="M279 604l-54 -255h303l-39 -105h-287l-29 -138h370l-38 -106h-472l150 710h486l-38 -106h-352zM302 875h116l72 -126h-76z" />
    <glyph glyph-name="Eacute" unicode="&#xc9;" horiz-adv-x="581" 
d="M279 604l-54 -255h303l-39 -105h-287l-29 -138h370l-38 -106h-472l150 710h486l-38 -106h-352zM461 750h-92l125 144h129z" />
    <glyph glyph-name="Ecircumflex" unicode="&#xca;" horiz-adv-x="581" 
d="M279 604l-54 -255h303l-39 -105h-287l-29 -138h370l-38 -106h-472l150 710h486l-38 -106h-352zM430 854h65l109 -105h-107l-47 40h-4l-63 -40h-106z" />
    <glyph glyph-name="Edieresis" unicode="&#xcb;" horiz-adv-x="581" 
d="M279 604l-54 -255h303l-39 -105h-287l-29 -138h370l-38 -106h-472l150 710h486l-38 -106h-352zM321 846h94l-21 -100h-94zM512 846h93l-21 -100h-93z" />
    <glyph glyph-name="Igrave" unicode="&#xcc;" horiz-adv-x="256" 
d="M151 0h-118l150 710h118zM111 875h116l72 -126h-76z" />
    <glyph glyph-name="Iacute" unicode="&#xcd;" horiz-adv-x="256" 
d="M151 0h-118l150 710h118zM270 750h-92l125 144h129z" />
    <glyph glyph-name="Icircumflex" unicode="&#xce;" horiz-adv-x="256" 
d="M151 0h-118l150 710h118zM240 854h65l109 -105h-107l-47 40h-4l-63 -40h-106z" />
    <glyph glyph-name="Idieresis" unicode="&#xcf;" horiz-adv-x="256" 
d="M151 0h-118l150 710h118zM129 846h94l-21 -100h-94zM320 846h93l-21 -100h-93z" />
    <glyph glyph-name="Eth" unicode="&#xd0;" horiz-adv-x="698" 
d="M191 604l22 106h343q101 0 138.5 -34.5t22.5 -107.5l-15 -74h-2l-59 -276h1l-16 -76q-16 -73 -60 -107.5t-129 -34.5h-373l22 106h3l39 184h-111l37 98h95l46 216h-4zM440 388l-37 -98h-157l-39 -184h215q79 0 93 65l4 21h-1l75 352h1q5 32 -10 46t-56 14h-215l-46 -216
h173z" />
    <glyph glyph-name="Ntilde" unicode="&#xd1;" horiz-adv-x="710" 
d="M151 0h-118l150 710h118l209 -454q11 -25 18 -61l109 515h118l-150 -710h-118l-201 433q-14 28 -26 84zM573 846q43 0 56 -12t6 -48l-10 -45h-75l5 23q2 7 -1.5 10.5t-13.5 3.5q-15 0 -36 -12l-24 -14q-24 -15 -82 -15q-45 0 -57 11.5t-4 48.5l9 44h75l-5 -23
q-2 -8 0.5 -11t13.5 -3q17 0 39 13l16 11q27 18 88 18z" />
    <glyph glyph-name="Ograve" unicode="&#xd2;" horiz-adv-x="709" 
d="M70 201l78 367q15 73 60.5 107.5t130.5 34.5h229q100 0 138 -35t23 -107l-15 -74h-1l-75 -352q-16 -73 -60.5 -107.5t-128.5 -34.5h-230q-101 0 -139.5 35t-22.5 107zM540 604h-186q-80 0 -94 -65l-78 -368q-8 -34 7 -49.5t58 -15.5h187q78 0 92 65l78 368q8 35 -7 50
t-57 15zM336 875h116l72 -126h-76z" />
    <glyph glyph-name="Oacute" unicode="&#xd3;" horiz-adv-x="709" 
d="M70 201l78 367q15 73 60.5 107.5t130.5 34.5h229q100 0 138 -35t23 -107l-15 -74h-1l-75 -352q-16 -73 -60.5 -107.5t-128.5 -34.5h-230q-101 0 -139.5 35t-22.5 107zM540 604h-186q-80 0 -94 -65l-78 -368q-8 -34 7 -49.5t58 -15.5h187q78 0 92 65l78 368q8 35 -7 50
t-57 15zM495 750h-92l125 144h129z" />
    <glyph glyph-name="Ocircumflex" unicode="&#xd4;" horiz-adv-x="709" 
d="M70 201l78 367q15 73 60.5 107.5t130.5 34.5h229q100 0 138 -35t23 -107l-15 -74h-1l-75 -352q-16 -73 -60.5 -107.5t-128.5 -34.5h-230q-101 0 -139.5 35t-22.5 107zM540 604h-186q-80 0 -94 -65l-78 -368q-8 -34 7 -49.5t58 -15.5h187q78 0 92 65l78 368q8 35 -7 50
t-57 15zM463 854h65l109 -105h-107l-47 40h-4l-63 -40h-106z" />
    <glyph glyph-name="Otilde" unicode="&#xd5;" horiz-adv-x="701" 
d="M70 201l78 367q15 73 60.5 107.5t130.5 34.5h221q100 0 137.5 -34.5t22.5 -107.5l-90 -426q-16 -73 -60.5 -107.5t-128.5 -34.5h-222q-101 0 -139.5 35t-22.5 107zM532 604h-178q-80 0 -94 -65l-78 -368q-8 -34 7 -49.5t58 -15.5h179q78 0 92 65l78 368q8 35 -7 50
t-57 15zM525 846q43 0 56 -12t6 -48l-10 -45h-75l5 23q2 7 -1.5 10.5t-13.5 3.5q-15 0 -36 -12l-24 -14q-24 -15 -82 -15q-45 0 -57 11.5t-4 48.5l9 44h75l-5 -23q-2 -8 0.5 -11t13.5 -3q17 0 39 13l16 11q27 18 88 18z" />
    <glyph glyph-name="Odieresis" unicode="&#xd6;" horiz-adv-x="709" 
d="M70 201l78 367q15 73 60.5 107.5t130.5 34.5h229q100 0 138 -35t23 -107l-15 -74h-1l-75 -352q-16 -73 -60.5 -107.5t-128.5 -34.5h-230q-101 0 -139.5 35t-22.5 107zM540 604h-186q-80 0 -94 -65l-78 -368q-8 -34 7 -49.5t58 -15.5h187q78 0 92 65l78 368q8 35 -7 50
t-57 15zM355 846h94l-21 -100h-94zM546 846h93l-21 -100h-93z" />
    <glyph glyph-name="multiply" unicode="&#xd7;" horiz-adv-x="481" 
d="M481 377l-150 -109l104 -107l-85 -68l-104 108l-149 -108l-56 68l149 107l-103 109l85 67l103 -108l150 108z" />
    <glyph glyph-name="Oslash" unicode="&#xd8;" horiz-adv-x="704" 
d="M705 757h128l-111 -118q9 -30 0 -71l-15 -74h-1l-75 -352q-16 -73 -60.5 -107.5t-128.5 -34.5h-222q-53 0 -89 9l-52 -56h-127l106 115q-10 29 1 74l90 426q15 72 60.5 107t130.5 35h221q57 0 90 -10zM533 604h-178q-79 0 -93 -65l-70 -329l367 392q-14 2 -26 2zM248 106
h179q42 0 63 15.5t29 49.5l10 47h1l59 278l-366 -389q7 -1 25 -1z" />
    <glyph glyph-name="Ugrave" unicode="&#xd9;" horiz-adv-x="681" 
d="M396 106q85 0 101 70l113 534h118l-121 -572q-15 -70 -60 -104t-127 -34h-201q-97 0 -136 34t-24 104l121 572h118l-113 -534q-8 -37 9 -53.5t61 -16.5h141zM324 875h116l72 -126h-76z" />
    <glyph glyph-name="Uacute" unicode="&#xda;" horiz-adv-x="681" 
d="M396 106q85 0 101 70l113 534h118l-121 -572q-15 -70 -60 -104t-127 -34h-201q-97 0 -136 34t-24 104l121 572h118l-113 -534q-8 -37 9 -53.5t61 -16.5h141zM482 750h-92l125 144h129z" />
    <glyph glyph-name="Ucircumflex" unicode="&#xdb;" horiz-adv-x="681" 
d="M396 106q85 0 101 70l113 534h118l-121 -572q-15 -70 -60 -104t-127 -34h-201q-97 0 -136 34t-24 104l121 572h118l-113 -534q-8 -37 9 -53.5t61 -16.5h141zM451 854h65l109 -105h-107l-47 40h-4l-63 -40h-106z" />
    <glyph glyph-name="Udieresis" unicode="&#xdc;" horiz-adv-x="681" 
d="M396 106q85 0 101 70l113 534h118l-121 -572q-15 -70 -60 -104t-127 -34h-201q-97 0 -136 34t-24 104l121 572h118l-113 -534q-8 -37 9 -53.5t61 -16.5h141zM342 846h94l-21 -100h-94zM533 846h93l-21 -100h-93z" />
    <glyph glyph-name="Yacute" unicode="&#xdd;" horiz-adv-x="641" 
d="M344 0h-118l58 273l-164 437h119l108 -283q2 -15 7.5 -30.5t5.5 -20.5q10 22 33 50l228 284h126l-345 -434zM463 750h-92l125 144h129z" />
    <glyph glyph-name="Thorn" unicode="&#xde;" horiz-adv-x="635" 
d="M151 0h-118l160 756l106 21h17l-34 -159h212q200 0 168 -147l-36 -164q-31 -147 -194 -147h-247zM259 512l-52 -247h214q78 0 92 65l25 118q7 33 -9 48.5t-56 15.5h-214z" />
    <glyph glyph-name="germandbls" unicode="&#xdf;" horiz-adv-x="646" 
d="M-2 -140l138 654h1l11 54q15 73 60.5 107.5t130.5 34.5h160q91 0 128.5 -33.5t23.5 -101.5l-21 -96q-20 -91 -85 -106q92 -17 69 -125l-24 -113q-28 -135 -206 -135h-170l22 106h139q90 0 105 66l17 81q7 34 -9.5 50.5t-59.5 16.5h-146l22 105h126q71 0 84 60l11 53
q7 34 -12 50t-69 16h-90q-80 0 -94 -65l-8 -38h-1l-136 -641h-117z" />
    <glyph glyph-name="agrave" unicode="&#xe0;" horiz-adv-x="553" 
d="M362 0l2 51q-25 -30 -57 -40.5t-85 -10.5h-55q-83 0 -116.5 29t-20.5 91l17 73q22 112 144 112h218l13 59q5 26 -6.5 37.5t-41.5 11.5h-98q-61 0 -71 -48l-2 -11h-103l8 40q24 117 143 117h159q79 0 110.5 -29t18.5 -88l-83 -394h-94zM201 98h85q79 0 92 59l12 57h-180
q-61 0 -67 -49l-4 -23q-6 -26 9.5 -35t52.5 -9zM221 705h116l72 -126h-76z" />
    <glyph glyph-name="aacute" unicode="&#xe1;" horiz-adv-x="553" 
d="M362 0l2 51q-25 -30 -57 -40.5t-85 -10.5h-55q-83 0 -116.5 29t-20.5 91l17 73q22 112 144 112h218l13 59q5 26 -6.5 37.5t-41.5 11.5h-98q-61 0 -71 -48l-2 -11h-103l8 40q24 117 143 117h159q79 0 110.5 -29t18.5 -88l-83 -394h-94zM201 98h85q79 0 92 59l12 57h-180
q-61 0 -67 -49l-4 -23q-6 -26 9.5 -35t52.5 -9zM388 577h-92l125 144h129z" />
    <glyph glyph-name="acircumflex" unicode="&#xe2;" horiz-adv-x="553" 
d="M362 0l2 51q-25 -30 -57 -40.5t-85 -10.5h-55q-83 0 -116.5 29t-20.5 91l17 73q22 112 144 112h218l13 59q5 26 -6.5 37.5t-41.5 11.5h-98q-61 0 -71 -48l-2 -11h-103l8 40q24 117 143 117h159q79 0 110.5 -29t18.5 -88l-83 -394h-94zM201 98h85q79 0 92 59l12 57h-180
q-61 0 -67 -49l-4 -23q-6 -26 9.5 -35t52.5 -9zM350 684h65l109 -105h-107l-47 40h-4l-63 -40h-106z" />
    <glyph glyph-name="atilde" unicode="&#xe3;" horiz-adv-x="553" 
d="M362 0l2 51q-25 -30 -57 -40.5t-85 -10.5h-55q-83 0 -116.5 29t-20.5 91l17 73q22 112 144 112h218l13 59q5 26 -6.5 37.5t-41.5 11.5h-98q-61 0 -71 -48l-2 -11h-103l8 40q24 117 143 117h159q79 0 110.5 -29t18.5 -88l-83 -394h-94zM201 98h85q79 0 92 59l12 57h-180
q-61 0 -67 -49l-4 -23q-6 -26 9.5 -35t52.5 -9zM458 676q43 0 56 -12t5 -48l-9 -45h-75l5 23q1 7 -2 10.5t-13 3.5q-15 0 -36 -12l-24 -14q-24 -15 -82 -15q-45 0 -57 11.5t-4 48.5l9 44h75l-5 -23q-2 -8 0.5 -11t13.5 -3q17 0 39 13l16 11q27 18 88 18z" />
    <glyph glyph-name="adieresis" unicode="&#xe4;" horiz-adv-x="553" 
d="M362 0l2 51q-25 -30 -57 -40.5t-85 -10.5h-55q-83 0 -116.5 29t-20.5 91l17 73q22 112 144 112h218l13 59q5 26 -6.5 37.5t-41.5 11.5h-98q-61 0 -71 -48l-2 -11h-103l8 40q24 117 143 117h159q79 0 110.5 -29t18.5 -88l-83 -394h-94zM201 98h85q79 0 92 59l12 57h-180
q-61 0 -67 -49l-4 -23q-6 -26 9.5 -35t52.5 -9zM239 676h94l-21 -100h-94zM430 676h93l-21 -100h-93z" />
    <glyph glyph-name="aring" unicode="&#xe5;" horiz-adv-x="553" 
d="M362 0l2 51q-25 -30 -57 -40.5t-85 -10.5h-55q-83 0 -116.5 29t-20.5 91l17 73q22 112 144 112h218l13 59q5 26 -6.5 37.5t-41.5 11.5h-98q-61 0 -71 -48l-2 -11h-103l8 40q24 117 143 117h159q79 0 110.5 -29t18.5 -88l-83 -394h-94zM201 98h85q79 0 92 59l12 57h-180
q-61 0 -67 -49l-4 -23q-6 -26 9.5 -35t52.5 -9zM365 740h59q56 0 71 -15t5 -64l-7 -31q-10 -50 -30.5 -64.5t-77.5 -14.5h-58q-56 0 -71.5 15t-5.5 64l7 31q10 49 31.5 64t76.5 15zM388 609q34 0 40 25l5 22q3 13 -5 19t-25 6h-40q-35 0 -41 -25l-5 -22q-2 -12 6.5 -18.5
t24.5 -6.5h40z" />
    <glyph glyph-name="ae" unicode="&#xe6;" horiz-adv-x="870" 
d="M542 98h89q72 0 82 51l3 11h103l-6 -24q-16 -80 -59.5 -108t-144.5 -28h-84q-71 0 -109 13t-48 44q-27 -32 -62 -44.5t-89 -12.5h-67q-145 0 -120 120l16 73q23 112 168 112h191l14 64q4 23 -8.5 33.5t-41.5 10.5h-95q-59 0 -69 -48l-2 -11h-104l8 40q26 117 159 117h154
q54 0 84 -19q48 19 129 19h84q98 0 132 -24t18 -98l-15 -73q-9 -43 -25.5 -66t-54.5 -36t-105 -13h-173l-9 -45q-6 -29 7 -43.5t50 -14.5zM698 413h-74q-48 0 -69 -12t-28 -46l-13 -63h161q36 0 54 8.5t23 30.5l8 38q5 23 -9.5 33.5t-52.5 10.5zM193 98h89q76 0 91 53l13 63
h-169q-65 0 -74 -49l-5 -23q-6 -26 8 -35t47 -9z" />
    <glyph glyph-name="ccedilla" unicode="&#xe7;" horiz-adv-x="545" 
d="M243 -80l-27 10q-17 5 -22.5 13t-1.5 25l7 32h-2q-91 0 -127.5 33t-21.5 101l52 238q15 69 55 102t117 33h137q86 0 118.5 -31.5t17.5 -96.5l-11 -50h-104l5 21q7 31 -7 44.5t-52 13.5h-88q-38 0 -57.5 -14t-25.5 -44l-41 -194q-7 -31 7.5 -44.5t51.5 -13.5h87
q41 0 58.5 11t23.5 41l6 25h103l-10 -45q-14 -67 -52 -98.5t-109 -31.5h-61l-3 -12q-2 -12 14 -17l29 -10q18 -6 23 -17.5t0 -33.5l-7 -35q-8 -37 -27.5 -49t-68.5 -12h-40q-52 0 -64.5 12t-3.5 53l3 17h66l-1 -5q-2 -9 2 -12.5t16 -3.5h26q22 0 25 16l2 10q4 13 -17 19z
" />
    <glyph glyph-name="egrave" unicode="&#xe8;" horiz-adv-x="551" 
d="M221 92h83q70 0 82 51l4 17h103l-6 -24q-16 -80 -56.5 -108t-138.5 -28h-73q-109 0 -148.5 29t-22.5 106l54 247q17 79 59.5 104t142.5 25h59q117 0 155 -25t21 -104l-14 -59q-14 -68 -50.5 -95t-135.5 -27h-166l-11 -51q-6 -30 7 -44t52 -14zM380 420h-96q-65 0 -74 -45
l-17 -83h159q35 0 51.5 9.5t21.5 30.5l9 43q5 23 -7.5 34t-46.5 11zM231 705h116l72 -126h-76z" />
    <glyph glyph-name="eacute" unicode="&#xe9;" horiz-adv-x="551" 
d="M221 92h83q70 0 82 51l4 17h103l-6 -24q-16 -80 -56.5 -108t-138.5 -28h-73q-109 0 -148.5 29t-22.5 106l54 247q17 79 59.5 104t142.5 25h59q117 0 155 -25t21 -104l-14 -59q-14 -68 -50.5 -95t-135.5 -27h-166l-11 -51q-6 -30 7 -44t52 -14zM380 420h-96q-65 0 -74 -45
l-17 -83h159q35 0 51.5 9.5t21.5 30.5l9 43q5 23 -7.5 34t-46.5 11zM389 580h-92l124 144h129z" />
    <glyph glyph-name="ecircumflex" unicode="&#xea;" horiz-adv-x="551" 
d="M221 92h83q70 0 82 51l4 17h103l-6 -24q-16 -80 -56.5 -108t-138.5 -28h-73q-109 0 -148.5 29t-22.5 106l54 247q17 79 59.5 104t142.5 25h59q117 0 155 -25t21 -104l-14 -59q-14 -68 -50.5 -95t-135.5 -27h-166l-11 -51q-6 -30 7 -44t52 -14zM380 420h-96q-65 0 -74 -45
l-17 -83h159q35 0 51.5 9.5t21.5 30.5l9 43q5 23 -7.5 34t-46.5 11zM360 684h65l109 -105h-107l-47 40h-4l-63 -40h-106z" />
    <glyph glyph-name="edieresis" unicode="&#xeb;" horiz-adv-x="551" 
d="M221 92h83q70 0 82 51l4 17h103l-6 -24q-16 -80 -56.5 -108t-138.5 -28h-73q-109 0 -148.5 29t-22.5 106l54 247q17 79 59.5 104t142.5 25h59q117 0 155 -25t21 -104l-14 -59q-14 -68 -50.5 -95t-135.5 -27h-166l-11 -51q-6 -30 7 -44t52 -14zM380 420h-96q-65 0 -74 -45
l-17 -83h159q35 0 51.5 9.5t21.5 30.5l9 43q5 23 -7.5 34t-46.5 11zM249 676h94l-21 -100h-94zM440 676h93l-21 -100h-93z" />
    <glyph glyph-name="igrave" unicode="&#xec;" horiz-adv-x="262" 
d="M139 407h-71l21 98h182l-107 -505h-111zM89 705h116l72 -126h-76z" />
    <glyph glyph-name="iacute" unicode="&#xed;" horiz-adv-x="262" 
d="M139 407h-71l21 98h182l-107 -505h-111zM249 580h-92l124 144h129z" />
    <glyph glyph-name="icircumflex" unicode="&#xee;" horiz-adv-x="262" 
d="M139 407h-71l21 98h182l-107 -505h-111zM219 684h65l109 -105h-107l-47 40h-4l-63 -40h-106z" />
    <glyph glyph-name="idieresis" unicode="&#xef;" horiz-adv-x="262" 
d="M139 407h-71l21 98h182l-107 -505h-111zM108 676h94l-21 -100h-94zM299 676h93l-21 -100h-93z" />
    <glyph glyph-name="eth" unicode="&#xf0;" horiz-adv-x="559" 
d="M541 355l-48 -227q-16 -73 -63.5 -100.5t-146.5 -27.5h-92q-100 0 -136 27.5t-20 100.5l35 165q15 73 62.5 100.5t146.5 27.5h92q25 0 56 -7q-8 23 -27 47l-47 76l-166 -22l18 85l105 13l-59 97h131l47 -80l176 24l-19 -85l-117 -16q5 -7 19 -26.5t21 -30.5
q46 -73 32 -141zM257 323q-71 0 -83 -58l-23 -109q-7 -30 6.5 -44t51.5 -14h96q71 0 84 58l28 133q4 22 4 34h-164z" />
    <glyph glyph-name="ntilde" unicode="&#xf1;" 
d="M26 0l102 484l90 21h17l-9 -43q27 27 57 38t77 11h53q86 0 120 -31t21 -94l-82 -386h-111l75 356q7 34 -7.5 49t-54.5 15h-71q-73 0 -89 -50l-78 -370h-110zM482 676q43 0 56 -12t5 -48l-9 -45h-75l5 23q1 7 -2 10.5t-13 3.5q-15 0 -36 -12l-24 -14q-24 -15 -82 -15
q-45 0 -57 11.5t-4 48.5l9 44h75l-5 -23q-2 -8 0.5 -11t13.5 -3q17 0 39 13l16 11q27 18 88 18z" />
    <glyph glyph-name="ograve" unicode="&#xf2;" horiz-adv-x="575" 
d="M273 511h140q92 0 128 -33.5t20 -101.5l-52 -244q-14 -67 -57 -99.5t-121 -32.5h-141q-86 0 -121 33t-21 99l52 244q15 69 56 102t117 33zM388 416h-98q-38 0 -57.5 -14t-25.5 -44l-44 -206q-7 -30 7.5 -43.5t51.5 -13.5h98q37 0 56.5 13.5t26.5 43.5l44 206
q6 30 -7.5 44t-51.5 14zM235 705h116l72 -126h-76z" />
    <glyph glyph-name="oacute" unicode="&#xf3;" horiz-adv-x="575" 
d="M273 511h140q92 0 128 -33.5t20 -101.5l-52 -244q-14 -67 -57 -99.5t-121 -32.5h-141q-86 0 -121 33t-21 99l52 244q15 69 56 102t117 33zM388 416h-98q-38 0 -57.5 -14t-25.5 -44l-44 -206q-7 -30 7.5 -43.5t51.5 -13.5h98q37 0 56.5 13.5t26.5 43.5l44 206
q6 30 -7.5 44t-51.5 14zM394 580h-92l124 144h129z" />
    <glyph glyph-name="ocircumflex" unicode="&#xf4;" horiz-adv-x="575" 
d="M273 511h140q92 0 128 -33.5t20 -101.5l-52 -244q-14 -67 -57 -99.5t-121 -32.5h-141q-86 0 -121 33t-21 99l52 244q15 69 56 102t117 33zM388 416h-98q-38 0 -57.5 -14t-25.5 -44l-44 -206q-7 -30 7.5 -43.5t51.5 -13.5h98q37 0 56.5 13.5t26.5 43.5l44 206
q6 30 -7.5 44t-51.5 14zM363 684h65l109 -105h-107l-47 40h-4l-63 -40h-106z" />
    <glyph glyph-name="otilde" unicode="&#xf5;" horiz-adv-x="575" 
d="M273 511h140q92 0 128 -33.5t20 -101.5l-52 -244q-14 -67 -57 -99.5t-121 -32.5h-141q-86 0 -121 33t-21 99l52 244q15 69 56 102t117 33zM388 416h-98q-38 0 -57.5 -14t-25.5 -44l-44 -206q-7 -30 7.5 -43.5t51.5 -13.5h98q37 0 56.5 13.5t26.5 43.5l44 206
q6 30 -7.5 44t-51.5 14zM473 676q43 0 56 -12t5 -48l-9 -45h-75l5 23q1 7 -2 10.5t-13 3.5q-15 0 -36 -12l-24 -14q-24 -15 -82 -15q-45 0 -57 11.5t-4 48.5l9 44h75l-5 -23q-2 -8 0.5 -11t13.5 -3q17 0 39 13l16 11q27 18 88 18z" />
    <glyph glyph-name="odieresis" unicode="&#xf6;" horiz-adv-x="575" 
d="M273 511h140q92 0 128 -33.5t20 -101.5l-52 -244q-14 -67 -57 -99.5t-121 -32.5h-141q-86 0 -121 33t-21 99l52 244q15 69 56 102t117 33zM388 416h-98q-38 0 -57.5 -14t-25.5 -44l-44 -206q-7 -30 7.5 -43.5t51.5 -13.5h98q37 0 56.5 13.5t26.5 43.5l44 206
q6 30 -7.5 44t-51.5 14zM253 676h94l-21 -100h-94zM444 676h93l-21 -100h-93z" />
    <glyph glyph-name="divide" unicode="&#xf7;" horiz-adv-x="579" 
d="M57 244l39 106h479l-40 -106h-478zM278 402l26 121h125l-26 -121h-125zM205 59l26 121h125l-26 -121h-125z" />
    <glyph glyph-name="oslash" unicode="&#xf8;" horiz-adv-x="579" 
d="M276 511h140q55 0 91 -12l52 50h107l-104 -99q12 -30 2 -74l-52 -244q-28 -132 -178 -132h-141q-54 0 -91 14l-47 -45h-105l101 97q-9 27 0 66l52 244q15 69 56 102t117 33zM323 95q37 0 56.5 13.5t26.5 43.5l40 188l-255 -242q14 -3 34 -3h98zM391 416h-98
q-38 0 -57.5 -14t-25.5 -44l-38 -177l244 233q-12 2 -25 2z" />
    <glyph glyph-name="ugrave" unicode="&#xf9;" 
d="M576 505l-107 -505h-80l-1 43q-55 -43 -143 -43h-62q-160 0 -131 132l79 373h111l-75 -350q-7 -33 9 -48.5t56 -15.5h63q37 0 62 14.5t31 37.5l77 362h111zM222 705h116l72 -126h-76z" />
    <glyph glyph-name="uacute" unicode="&#xfa;" 
d="M576 505l-107 -505h-80l-1 43q-55 -43 -143 -43h-62q-160 0 -131 132l79 373h111l-75 -350q-7 -33 9 -48.5t56 -15.5h63q37 0 62 14.5t31 37.5l77 362h111zM381 580h-92l124 144h129z" />
    <glyph glyph-name="ucircumflex" unicode="&#xfb;" 
d="M576 505l-107 -505h-80l-1 43q-55 -43 -143 -43h-62q-160 0 -131 132l79 373h111l-75 -350q-7 -33 9 -48.5t56 -15.5h63q37 0 62 14.5t31 37.5l77 362h111zM351 684h65l109 -105h-107l-47 40h-4l-63 -40h-106z" />
    <glyph glyph-name="udieresis" unicode="&#xfc;" 
d="M576 505l-107 -505h-80l-1 43q-55 -43 -143 -43h-62q-160 0 -131 132l79 373h111l-75 -350q-7 -33 9 -48.5t56 -15.5h63q37 0 62 14.5t31 37.5l77 362h111zM241 676h94l-21 -100h-94zM432 676h93l-21 -100h-93z" />
    <glyph glyph-name="yacute" unicode="&#xfd;" horiz-adv-x="541" 
d="M55 -127q34 0 57.5 14.5t46.5 54.5l31 55h-27l-71 508h115l46 -396l221 396h120l-337 -582q-53 -93 -99.5 -120.5t-133.5 -27.5h-79l36 98h74zM362 580h-92l124 144h129z" />
    <glyph glyph-name="thorn" unicode="&#xfe;" horiz-adv-x="580" 
d="M84 -250h-110l213 1006l98 21h18l-65 -304q47 38 130 38h56q89 0 122.5 -31t19.5 -95l-53 -252q-15 -71 -58 -102t-126 -31h-67q-95 0 -115 45zM304 416q-70 0 -89 -51l-46 -219q-2 -26 15 -38.5t52 -12.5h82q77 0 90 63l41 192q7 36 -8.5 51t-59.5 15h-77z" />
    <glyph glyph-name="ydieresis" unicode="&#xff;" horiz-adv-x="541" 
d="M55 -127q34 0 57.5 14.5t46.5 54.5l31 55h-27l-71 508h115l46 -396l221 396h120l-337 -582q-53 -93 -99.5 -120.5t-133.5 -27.5h-79l36 98h74zM221 676h94l-21 -100h-94zM412 676h93l-21 -100h-93z" />
    <glyph glyph-name="Amacron" unicode="&#x100;" horiz-adv-x="662" 
d="M383 710h121l113 -710h-124l-20 130h-303l-74 -130h-123zM411 549l-180 -313h227zM630 844l-35 -91h-276l35 91h276z" />
    <glyph glyph-name="amacron" unicode="&#x101;" horiz-adv-x="553" 
d="M362 0l2 51q-25 -30 -57 -40.5t-85 -10.5h-55q-83 0 -116.5 29t-20.5 91l17 73q22 112 144 112h218l13 59q5 26 -6.5 37.5t-41.5 11.5h-98q-61 0 -71 -48l-2 -11h-103l8 40q24 117 143 117h159q79 0 110.5 -29t18.5 -88l-83 -394h-94zM201 98h85q79 0 92 59l12 57h-180
q-61 0 -67 -49l-4 -23q-6 -26 9.5 -35t52.5 -9zM537 674l-36 -91h-276l36 91h276z" />
    <glyph glyph-name="Abreve" unicode="&#x102;" horiz-adv-x="662" 
d="M383 710h121l113 -710h-124l-20 130h-303l-74 -130h-123zM411 549l-180 -313h227zM473 746h-37q-67 0 -85.5 17.5t-5.5 75.5l3 13h65l-4 -15q-3 -17 6 -25t32 -8h39q45 0 51 33l4 15h66l-3 -13q-13 -59 -37.5 -76t-93.5 -17z" />
    <glyph glyph-name="abreve" unicode="&#x103;" horiz-adv-x="553" 
d="M362 0l2 51q-25 -30 -57 -40.5t-85 -10.5h-55q-83 0 -116.5 29t-20.5 91l17 73q22 112 144 112h218l13 59q5 26 -6.5 37.5t-41.5 11.5h-98q-61 0 -71 -48l-2 -11h-103l8 40q24 117 143 117h159q79 0 110.5 -29t18.5 -88l-83 -394h-94zM201 98h85q79 0 92 59l12 57h-180
q-61 0 -67 -49l-4 -23q-6 -26 9.5 -35t52.5 -9zM379 576h-37q-67 0 -85.5 17.5t-5.5 75.5l2 13h65l-3 -15q-4 -17 5.5 -25t32.5 -8h39q44 0 51 33l3 15h66l-2 -13q-13 -59 -37.5 -76t-93.5 -17z" />
    <glyph glyph-name="Aogonek" unicode="&#x104;" horiz-adv-x="662" 
d="M400 -125l4 18q6 28 22 43.5t46 30.5q39 19 47 33h-26l-20 130h-303l-74 -130h-123l410 710h121l113 -710h-37l-3 -14q-6 -24 -17.5 -34.5t-41.5 -24.5q-26 -14 -33.5 -20.5t-9.5 -17.5q-2 -10 3 -14t19 -4h85l-20 -58h-92q-40 0 -58.5 15.5t-11.5 46.5zM411 549
l-180 -313h227z" />
    <glyph glyph-name="aogonek" unicode="&#x105;" horiz-adv-x="552" 
d="M362 0l2 51q-25 -30 -57 -40.5t-85 -10.5h-55q-83 0 -116.5 29t-20.5 91l17 73q22 112 144 112h218l13 59q5 26 -6.5 37.5t-41.5 11.5h-98q-61 0 -71 -48l-2 -11h-103l8 40q24 117 143 117h159q79 0 110.5 -29t18.5 -88l-83 -394h-19l-3 -10q-5 -24 -16.5 -34t-41.5 -25
q-26 -14 -33.5 -20.5t-9.5 -17.5q-2 -10 3 -14t19 -4h85l-20 -58h-92q-40 0 -58.5 15.5t-11.5 46.5l4 18q6 28 22 43.5t46 30.5q37 19 44 29h-12zM201 98h85q79 0 92 59l12 57h-180q-61 0 -67 -49l-4 -23q-6 -26 9.5 -35t52.5 -9z" />
    <glyph glyph-name="Cacute" unicode="&#x106;" horiz-adv-x="660" 
d="M247 106h160q78 0 92 65l10 47h118l-16 -76q-16 -73 -60.5 -107.5t-128.5 -34.5h-203q-101 0 -139.5 35t-22.5 107l13 59l78 367q15 73 60.5 107.5t130.5 34.5h202q100 0 137.5 -34.5t22.5 -107.5l-15 -74h-118l9 45q8 35 -7 50t-57 15h-159q-80 0 -94 -65l-78 -368
q-8 -34 7 -49.5t58 -15.5zM488 750h-92l125 144h129z" />
    <glyph glyph-name="cacute" unicode="&#x107;" horiz-adv-x="545" 
d="M376 408h-88q-38 0 -57.5 -14t-25.5 -44l-41 -194q-7 -31 7.5 -44.5t51.5 -13.5h87q41 0 58.5 11t23.5 41l6 25h103l-10 -45q-14 -67 -52 -98.5t-109 -31.5h-133q-91 0 -127.5 33t-21.5 101l52 238q15 69 55 102t117 33h137q86 0 118.5 -31.5t17.5 -96.5l-11 -50h-104
l5 21q7 31 -7 44.5t-52 13.5zM390 580h-92l124 144h129z" />
    <glyph glyph-name="Ccircumflex" unicode="&#x108;" horiz-adv-x="660" 
d="M247 106h160q78 0 92 65l10 47h118l-16 -76q-16 -73 -60.5 -107.5t-128.5 -34.5h-203q-101 0 -139.5 35t-22.5 107l13 59l78 367q15 73 60.5 107.5t130.5 34.5h202q100 0 137.5 -34.5t22.5 -107.5l-15 -74h-118l9 45q8 35 -7 50t-57 15h-159q-80 0 -94 -65l-78 -368
q-8 -34 7 -49.5t58 -15.5zM455 854h65l109 -105h-107l-47 40h-4l-63 -40h-106z" />
    <glyph glyph-name="ccircumflex" unicode="&#x109;" horiz-adv-x="545" 
d="M376 408h-88q-38 0 -57.5 -14t-25.5 -44l-41 -194q-7 -31 7.5 -44.5t51.5 -13.5h87q41 0 58.5 11t23.5 41l6 25h103l-10 -45q-14 -67 -52 -98.5t-109 -31.5h-133q-91 0 -127.5 33t-21.5 101l52 238q15 69 55 102t117 33h137q86 0 118.5 -31.5t17.5 -96.5l-11 -50h-104
l5 21q7 31 -7 44.5t-52 13.5zM360 684h65l109 -105h-107l-47 40h-4l-63 -40h-106z" />
    <glyph glyph-name="Cdotaccent" unicode="&#x10a;" horiz-adv-x="660" 
d="M247 106h160q78 0 92 65l10 47h118l-16 -76q-16 -73 -60.5 -107.5t-128.5 -34.5h-203q-101 0 -139.5 35t-22.5 107l13 59l78 367q15 73 60.5 107.5t130.5 34.5h202q100 0 137.5 -34.5t22.5 -107.5l-15 -74h-118l9 45q8 35 -7 50t-57 15h-159q-80 0 -94 -65l-78 -368
q-8 -34 7 -49.5t58 -15.5zM434 868h119l-25 -116h-119z" />
    <glyph glyph-name="cdotaccent" unicode="&#x10b;" horiz-adv-x="545" 
d="M376 408h-88q-38 0 -57.5 -14t-25.5 -44l-41 -194q-7 -31 7.5 -44.5t51.5 -13.5h87q41 0 58.5 11t23.5 41l6 25h103l-10 -45q-14 -67 -52 -98.5t-109 -31.5h-133q-91 0 -127.5 33t-21.5 101l52 238q15 69 55 102t117 33h137q86 0 118.5 -31.5t17.5 -96.5l-11 -50h-104
l5 21q7 31 -7 44.5t-52 13.5zM331 667h119l-24 -116h-119z" />
    <glyph glyph-name="Ccaron" unicode="&#x10c;" horiz-adv-x="660" 
d="M247 106h160q78 0 92 65l10 47h118l-16 -76q-16 -73 -60.5 -107.5t-128.5 -34.5h-203q-101 0 -139.5 35t-22.5 107l13 59l78 367q15 73 60.5 107.5t130.5 34.5h202q100 0 137.5 -34.5t22.5 -107.5l-15 -74h-118l9 45q8 35 -7 50t-57 15h-159q-80 0 -94 -65l-78 -368
q-8 -34 7 -49.5t58 -15.5zM502 749h-70l-103 107h101l48 -53l71 53h100z" />
    <glyph glyph-name="ccaron" unicode="&#x10d;" horiz-adv-x="545" 
d="M376 408h-88q-38 0 -57.5 -14t-25.5 -44l-41 -194q-7 -31 7.5 -44.5t51.5 -13.5h87q41 0 58.5 11t23.5 41l6 25h103l-10 -45q-14 -67 -52 -98.5t-109 -31.5h-133q-91 0 -127.5 33t-21.5 101l52 238q15 69 55 102t117 33h137q86 0 118.5 -31.5t17.5 -96.5l-11 -50h-104
l5 21q7 31 -7 44.5t-52 13.5zM407 579h-70l-103 107h101l48 -53l71 53h100z" />
    <glyph glyph-name="Dcaron" unicode="&#x10e;" horiz-adv-x="700" 
d="M161 604l22 106h326q127 0 176.5 -42t29.5 -130l-78 -366q-19 -88 -78.5 -130t-169.5 -42h-356l22 106h1l106 498h-1zM489 604h-209l-106 -498h207q65 0 100 24.5t46 77.5l62 294q11 54 -12 78t-88 24zM499 749h-70l-103 107h101l48 -53l71 53h100z" />
    <glyph glyph-name="dcaron" unicode="&#x10f;" horiz-adv-x="579" 
d="M637 740l-157 -740h-94l1 55q-40 -55 -142 -55h-70q-78 0 -109.5 31.5t-18.5 94.5l52 244q15 71 60.5 106t128.5 35h73q83 0 107 -42l53 250l97 21h19zM311 95q77 0 90 60l44 205q4 28 -13 42t-53 14h-81q-78 0 -91 -63l-42 -195q-7 -33 9 -48t55 -15h82zM692 760h145
l-96 -226h-59z" />
    <glyph glyph-name="Dcroat" unicode="&#x110;" horiz-adv-x="705" 
d="M39 0l66 314h-82l36 91h66l64 305h324q126 0 176 -42t31 -130l-78 -366q-19 -88 -78.5 -130t-169.5 -42h-355zM493 604h-208l-42 -199h130l-37 -91h-113l-44 -208h207q65 0 100 24.5t46 77.5l62 294q11 54 -12 78t-89 24z" />
    <glyph glyph-name="dcroat" unicode="&#x111;" horiz-adv-x="579" 
d="M720 676l-37 -98h-82l-64 -305h2l-58 -273h-94l1 55q-40 -55 -142 -55h-70q-78 0 -109.5 31.5t-18.5 94.5l52 244q15 71 60.5 106t128.5 35h73q82 0 106 -39l22 106h-151l37 98h135l9 43l97 21h19l-14 -64h98zM409 195l38 177q-3 44 -67 44h-81q-78 0 -91 -63l-42 -195
q-13 -63 63 -63h83q74 0 90 57l9 43h-2z" />
    <glyph glyph-name="Emacron" unicode="&#x112;" horiz-adv-x="581" 
d="M279 604l-54 -255h303l-39 -105h-287l-29 -138h370l-38 -106h-472l150 710h486l-38 -106h-352zM618 844l-35 -91h-276l35 91h276z" />
    <glyph glyph-name="emacron" unicode="&#x113;" horiz-adv-x="551" 
d="M221 92h83q70 0 82 51l4 17h103l-6 -24q-16 -80 -56.5 -108t-138.5 -28h-73q-109 0 -148.5 29t-22.5 106l54 247q17 79 59.5 104t142.5 25h59q117 0 155 -25t21 -104l-14 -59q-14 -68 -50.5 -95t-135.5 -27h-166l-11 -51q-6 -30 7 -44t52 -14zM380 420h-96q-65 0 -74 -45
l-17 -83h159q35 0 51.5 9.5t21.5 30.5l9 43q5 23 -7.5 34t-46.5 11zM547 674l-36 -91h-276l36 91h276z" />
    <glyph glyph-name="Ebreve" unicode="&#x114;" horiz-adv-x="581" 
d="M279 604l-54 -255h303l-39 -105h-287l-29 -138h370l-38 -106h-472l150 710h486l-38 -106h-352zM461 746h-37q-67 0 -85.5 17.5t-5.5 75.5l3 13h65l-4 -15q-3 -17 6 -25t32 -8h39q45 0 51 33l4 15h66l-3 -13q-13 -59 -37.5 -76t-93.5 -17z" />
    <glyph glyph-name="ebreve" unicode="&#x115;" horiz-adv-x="551" 
d="M221 92h83q70 0 82 51l4 17h103l-6 -24q-16 -80 -56.5 -108t-138.5 -28h-73q-109 0 -148.5 29t-22.5 106l54 247q17 79 59.5 104t142.5 25h59q117 0 155 -25t21 -104l-14 -59q-14 -68 -50.5 -95t-135.5 -27h-166l-11 -51q-6 -30 7 -44t52 -14zM380 420h-96q-65 0 -74 -45
l-17 -83h159q35 0 51.5 9.5t21.5 30.5l9 43q5 23 -7.5 34t-46.5 11zM390 576h-37q-67 0 -85.5 17.5t-5.5 75.5l2 13h65l-3 -15q-4 -17 5.5 -25t32.5 -8h39q44 0 51 33l3 15h66l-2 -13q-13 -59 -37.5 -76t-93.5 -17z" />
    <glyph glyph-name="Edotaccent" unicode="&#x116;" horiz-adv-x="581" 
d="M279 604l-54 -255h303l-39 -105h-287l-29 -138h370l-38 -106h-472l150 710h486l-38 -106h-352zM408 868h119l-25 -116h-119z" />
    <glyph glyph-name="edotaccent" unicode="&#x117;" horiz-adv-x="551" 
d="M221 92h83q70 0 82 51l4 17h103l-6 -24q-16 -80 -56.5 -108t-138.5 -28h-73q-109 0 -148.5 29t-22.5 106l54 247q17 79 59.5 104t142.5 25h59q117 0 155 -25t21 -104l-14 -59q-14 -68 -50.5 -95t-135.5 -27h-166l-11 -51q-6 -30 7 -44t52 -14zM380 420h-96q-65 0 -74 -45
l-17 -83h159q35 0 51.5 9.5t21.5 30.5l9 43q5 23 -7.5 34t-46.5 11zM332 675h119l-25 -116h-119z" />
    <glyph glyph-name="Eogonek" unicode="&#x118;" horiz-adv-x="581" 
d="M322 -123l4 18q6 28 22 44t47 30q36 18 45 31h-407l150 710h486l-38 -106h-352l-54 -255h303l-39 -105h-287l-29 -138h370l-38 -106h-3l-3 -12q-5 -24 -16.5 -34t-42.5 -25q-26 -14 -33.5 -20.5t-9.5 -17.5q-2 -10 3.5 -14t19.5 -4h85l-21 -58h-92q-40 0 -58.5 15.5
t-11.5 46.5z" />
    <glyph glyph-name="eogonek" unicode="&#x119;" horiz-adv-x="550" 
d="M96 -120l4 18q6 28 22 44t47 30q36 19 43 28q-105 1 -143 30.5t-21 104.5l54 247q17 79 59.5 104t142.5 25h59q117 0 155 -25t21 -104l-14 -59q-14 -68 -50.5 -95t-135.5 -27h-166l-11 -51q-6 -30 7 -44t52 -14h83q70 0 82 51l4 17h103l-6 -24q-16 -80 -56.5 -108
t-138.5 -28h-17l-2 -9q-6 -24 -17.5 -34.5t-41.5 -24.5q-26 -14 -33.5 -20.5t-9.5 -17.5q-2 -10 3 -14t19 -4h85l-20 -58h-92q-40 0 -58.5 15.5t-11.5 46.5zM380 420h-96q-65 0 -74 -45l-17 -83h159q35 0 51.5 9.5t21.5 30.5l9 43q5 23 -7.5 34t-46.5 11z" />
    <glyph glyph-name="Ecaron" unicode="&#x11a;" horiz-adv-x="581" 
d="M279 604l-54 -255h303l-39 -105h-287l-29 -138h370l-38 -106h-472l150 710h486l-38 -106h-352zM476 749h-70l-103 107h101l48 -53l71 53h100z" />
    <glyph glyph-name="ecaron" unicode="&#x11b;" horiz-adv-x="551" 
d="M221 92h83q70 0 82 51l4 17h103l-6 -24q-16 -80 -56.5 -108t-138.5 -28h-73q-109 0 -148.5 29t-22.5 106l54 247q17 79 59.5 104t142.5 25h59q117 0 155 -25t21 -104l-14 -59q-14 -68 -50.5 -95t-135.5 -27h-166l-11 -51q-6 -30 7 -44t52 -14zM380 420h-96q-65 0 -74 -45
l-17 -83h159q35 0 51.5 9.5t21.5 30.5l9 43q5 23 -7.5 34t-46.5 11zM406 579h-70l-103 107h101l48 -53l71 53h100z" />
    <glyph glyph-name="Gcircumflex" unicode="&#x11c;" horiz-adv-x="679" 
d="M361 267l39 106h266l-51 -238q-14 -68 -57 -101.5t-123 -33.5h-226q-91 0 -129.5 32.5t-23.5 99.5l94 443q27 135 173 135h236q92 0 129 -32.5t23 -99.5l-16 -77h-118l8 39q8 34 -7 49t-55 15h-171q-41 0 -62.5 -16t-29.5 -51l-78 -367q-7 -34 8 -49t56 -15h164
q81 0 94 62l21 99h-164zM460 854h65l109 -105h-107l-47 40h-4l-63 -40h-106z" />
    <glyph glyph-name="gcircumflex" unicode="&#x11d;" horiz-adv-x="572" 
d="M310 509h66q54 0 88 -9l99 73l58 -69l-90 -66q3 -25 -4 -57l-23 -110q-15 -71 -60.5 -98.5t-139.5 -29.5l-1 -4h-41q-25 0 -34.5 -4.5t-12.5 -19.5l-1 -4q-3 -17 8 -21h173q81 0 111 -31t16 -94l-17 -80q-15 -72 -64 -98.5t-151 -26.5h-156q-101 0 -137.5 26.5
t-21.5 98.5l17 80q20 94 108 117q-2 8 1 26l3 11q4 24 21 38q-64 24 -45 114l23 110q16 71 63.5 99.5t143.5 28.5zM181 -1q-39 0 -58 -15t-26 -48l-5 -22q-7 -33 6.5 -48t51.5 -15h166q71 0 84 63l5 22q7 33 -6.5 48t-51.5 15h-166zM357 422h-66q-38 0 -58 -16t-28 -50
l-13 -60q-7 -34 7 -50t51 -16h66q73 0 86 66l13 60q15 66 -58 66zM351 684h65l109 -105h-107l-47 40h-4l-63 -40h-106z" />
    <glyph glyph-name="Gbreve" unicode="&#x11e;" horiz-adv-x="679" 
d="M361 267l39 106h266l-51 -238q-14 -68 -57 -101.5t-123 -33.5h-226q-91 0 -129.5 32.5t-23.5 99.5l94 443q27 135 173 135h236q92 0 129 -32.5t23 -99.5l-16 -77h-118l8 39q8 34 -7 49t-55 15h-171q-41 0 -62.5 -16t-29.5 -51l-78 -367q-7 -34 8 -49t56 -15h164
q81 0 94 62l21 99h-164zM492 746h-37q-67 0 -85.5 17.5t-5.5 75.5l3 13h65l-4 -15q-3 -17 6 -25t32 -8h39q45 0 51 33l4 15h66l-3 -13q-13 -59 -37.5 -76t-93.5 -17z" />
    <glyph glyph-name="gbreve" unicode="&#x11f;" horiz-adv-x="572" 
d="M310 509h66q54 0 88 -9l99 73l58 -69l-90 -66q3 -25 -4 -57l-23 -110q-15 -71 -60.5 -98.5t-139.5 -29.5l-1 -4h-41q-25 0 -34.5 -4.5t-12.5 -19.5l-1 -4q-3 -17 8 -21h173q81 0 111 -31t16 -94l-17 -80q-15 -72 -64 -98.5t-151 -26.5h-156q-101 0 -137.5 26.5
t-21.5 98.5l17 80q20 94 108 117q-2 8 1 26l3 11q4 24 21 38q-64 24 -45 114l23 110q16 71 63.5 99.5t143.5 28.5zM181 -1q-39 0 -58 -15t-26 -48l-5 -22q-7 -33 6.5 -48t51.5 -15h166q71 0 84 63l5 22q7 33 -6.5 48t-51.5 15h-166zM357 422h-66q-38 0 -58 -16t-28 -50
l-13 -60q-7 -34 7 -50t51 -16h66q73 0 86 66l13 60q15 66 -58 66zM382 576h-37q-67 0 -85.5 17.5t-5.5 75.5l2 13h65l-3 -15q-4 -17 5.5 -25t32.5 -8h39q44 0 51 33l3 15h66l-2 -13q-13 -59 -37.5 -76t-93.5 -17z" />
    <glyph glyph-name="Gdotaccent" unicode="&#x120;" horiz-adv-x="679" 
d="M361 267l39 106h266l-51 -238q-14 -68 -57 -101.5t-123 -33.5h-226q-91 0 -129.5 32.5t-23.5 99.5l94 443q27 135 173 135h236q92 0 129 -32.5t23 -99.5l-16 -77h-118l8 39q8 34 -7 49t-55 15h-171q-41 0 -62.5 -16t-29.5 -51l-78 -367q-7 -34 8 -49t56 -15h164
q81 0 94 62l21 99h-164zM439 867h119l-25 -116h-119z" />
    <glyph glyph-name="gdotaccent" unicode="&#x121;" horiz-adv-x="572" 
d="M310 509h66q54 0 88 -9l99 73l58 -69l-90 -66q3 -25 -4 -57l-23 -110q-15 -71 -60.5 -98.5t-139.5 -29.5l-1 -4h-41q-25 0 -34.5 -4.5t-12.5 -19.5l-1 -4q-3 -17 8 -21h173q81 0 111 -31t16 -94l-17 -80q-15 -72 -64 -98.5t-151 -26.5h-156q-101 0 -137.5 26.5
t-21.5 98.5l17 80q20 94 108 117q-2 8 1 26l3 11q4 24 21 38q-64 24 -45 114l23 110q16 71 63.5 99.5t143.5 28.5zM181 -1q-39 0 -58 -15t-26 -48l-5 -22q-7 -33 6.5 -48t51.5 -15h166q71 0 84 63l5 22q7 33 -6.5 48t-51.5 15h-166zM357 422h-66q-38 0 -58 -16t-28 -50
l-13 -60q-7 -34 7 -50t51 -16h66q73 0 86 66l13 60q15 66 -58 66zM327 698h119l-25 -116h-119z" />
    <glyph glyph-name="Gcommaaccent" unicode="&#x122;" horiz-adv-x="679" 
d="M361 267l39 106h266l-51 -238q-14 -68 -57 -101.5t-123 -33.5h-226q-91 0 -129.5 32.5t-23.5 99.5l94 443q27 135 173 135h236q92 0 129 -32.5t23 -99.5l-16 -77h-118l8 39q8 34 -7 49t-55 15h-171q-41 0 -62.5 -16t-29.5 -51l-78 -367q-7 -34 8 -49t56 -15h164
q81 0 94 62l21 99h-164z" />
    <glyph glyph-name="gcommaaccent" unicode="&#x123;" horiz-adv-x="572" 
d="M310 509h66q54 0 88 -9l99 73l58 -69l-90 -66q3 -25 -4 -57l-23 -110q-15 -71 -60.5 -98.5t-139.5 -29.5l-1 -4h-41q-25 0 -34.5 -4.5t-12.5 -19.5l-1 -4q-3 -17 8 -21h173q81 0 111 -31t16 -94l-17 -80q-15 -72 -64 -98.5t-151 -26.5h-156q-101 0 -137.5 26.5
t-21.5 98.5l17 80q20 94 108 117q-2 8 1 26l3 11q4 24 21 38q-64 24 -45 114l23 110q16 71 63.5 99.5t143.5 28.5zM181 -1q-39 0 -58 -15t-26 -48l-5 -22q-7 -33 6.5 -48t51.5 -15h166q71 0 84 63l5 22q7 33 -6.5 48t-51.5 15h-166zM357 422h-66q-38 0 -58 -16t-28 -50
l-13 -60q-7 -34 7 -50t51 -16h66q73 0 86 66l13 60q15 66 -58 66zM429 564h-146l86 226h60v-226z" />
    <glyph glyph-name="Hcircumflex" unicode="&#x124;" horiz-adv-x="693" 
d="M151 0h-118l150 710h118l-74 -349h319l74 349h118l-150 -710h-118l54 256h-319zM460 854h65l109 -105h-107l-47 40h-4l-63 -40h-106z" />
    <glyph glyph-name="hcircumflex" unicode="&#x125;" horiz-adv-x="569" 
d="M215 368l-78 -368h-111l152 719l97 21h19l-57 -269q43 40 124 40h54q87 0 120.5 -31t20.5 -94l-83 -386h-111l75 356q7 34 -7.5 49t-54.5 15h-70q-36 0 -59.5 -14.5t-29.5 -37.5h-1zM434 697h65l108 -105h-107l-46 40h-4l-64 -40h-106z" />
    <glyph glyph-name="Hbar" unicode="&#x126;" horiz-adv-x="707" 
d="M157 0h-118l111 526h-75l35 91h60l19 93h118l-19 -93h320l19 93h117l-19 -93h78l-36 -91h-62l-111 -526h-117l54 256h-320zM268 526l-35 -165h320l35 165h-320z" />
    <glyph glyph-name="hbar" unicode="&#x127;" horiz-adv-x="570" 
d="M335 658l-31 -80h-43l-22 -106q43 39 123 39h54q87 0 120.5 -31t20.5 -94l-82 -386h-111l75 356q7 34 -7.5 49t-55.5 15h-69q-36 0 -60 -14.5t-30 -37.5l-78 -368h-111l122 578h-9l21 55l18 86l97 21h19l-18 -82h57z" />
    <glyph glyph-name="Itilde" unicode="&#x128;" horiz-adv-x="256" 
d="M151 0h-118l150 710h118zM348 846q43 0 56 -12t6 -48l-10 -45h-75l5 23q2 7 -1.5 10.5t-13.5 3.5q-15 0 -36 -12l-24 -14q-24 -15 -82 -15q-45 0 -57 11.5t-4 48.5l9 44h75l-5 -23q-2 -8 0.5 -11t13.5 -3q17 0 39 13l16 11q27 18 88 18z" />
    <glyph glyph-name="itilde" unicode="&#x129;" horiz-adv-x="262" 
d="M139 407h-71l21 98h182l-107 -505h-111zM327 676q43 0 56 -12t5 -48l-9 -45h-75l5 23q1 7 -2 10.5t-13 3.5q-15 0 -36 -12l-24 -14q-24 -15 -82 -15q-45 0 -57 11.5t-4 48.5l9 44h75l-5 -23q-2 -8 0.5 -11t13.5 -3q17 0 39 13l16 11q27 18 88 18z" />
    <glyph glyph-name="Imacron" unicode="&#x12a;" horiz-adv-x="256" 
d="M151 0h-118l150 710h118zM429 844l-35 -91h-276l35 91h276z" />
    <glyph glyph-name="imacron" unicode="&#x12b;" horiz-adv-x="262" 
d="M139 407h-71l21 98h182l-107 -505h-111zM409 674l-36 -91h-276l36 91h276z" />
    <glyph glyph-name="Ibreve" unicode="&#x12c;" horiz-adv-x="256" 
d="M151 0h-118l150 710h118zM270 746h-37q-67 0 -85.5 17.5t-5.5 75.5l3 13h65l-4 -15q-3 -17 6 -25t32 -8h39q45 0 51 33l4 15h66l-3 -13q-13 -59 -37.5 -76t-93.5 -17z" />
    <glyph glyph-name="ibreve" unicode="&#x12d;" horiz-adv-x="262" 
d="M139 407h-71l21 98h182l-107 -505h-111zM249 576h-37q-67 0 -85.5 17.5t-5.5 75.5l2 13h65l-3 -15q-4 -17 5.5 -25t32.5 -8h39q44 0 51 33l3 15h66l-2 -13q-13 -59 -37.5 -76t-93.5 -17z" />
    <glyph glyph-name="Iogonek" unicode="&#x12e;" horiz-adv-x="256" 
d="M-57 -124l4 18q6 29 22 44.5t46 29.5q37 19 45 32h-27l150 710h118l-150 -710h-29l-3 -13q-5 -24 -16.5 -34t-42.5 -25q-26 -14 -33.5 -20.5t-9.5 -17.5q-2 -10 3 -14t19 -4h85l-20 -58h-92q-39 0 -57.5 15.5t-11.5 46.5z" />
    <glyph glyph-name="iogonek" unicode="&#x12f;" horiz-adv-x="263" 
d="M-40 -120l4 18q6 28 21.5 44t46.5 30q36 19 43 28h-22l86 407h-71l21 98h182l-107 -505h-26l-2 -9q-6 -24 -17.5 -34.5t-41.5 -24.5q-26 -14 -33.5 -20.5t-9.5 -17.5q-2 -10 3 -14t19 -4h85l-20 -58h-92q-40 0 -58 15t-11 47zM175 627l25 121h125l-25 -121h-125z" />
    <glyph glyph-name="Idotaccent" unicode="&#x130;" horiz-adv-x="256" 
d="M151 0h-118l168 793h119l-25 -116h-1z" />
    <glyph glyph-name="dotlessi" unicode="&#x131;" horiz-adv-x="262" 
d="M139 407h-71l21 98h182l-107 -505h-111z" />
    <glyph glyph-name="IJ" unicode="&#x132;" horiz-adv-x="686" 
d="M151 0h-118l150 710h118zM284 106h124q79 0 93 64l114 540h118l-119 -563q-16 -74 -64 -110.5t-133 -36.5h-171z" />
    <glyph glyph-name="Jcircumflex" unicode="&#x134;" horiz-adv-x="419" 
d="M17 106h124q79 0 93 64l114 540h118l-119 -563q-31 -147 -197 -147h-171zM405 854h65l109 -105h-107l-47 40h-4l-63 -40h-106z" />
    <glyph glyph-name="jcircumflex" unicode="&#x135;" horiz-adv-x="262" 
d="M139 407h-71l21 98h182l-125 -587q-26 -120 -168 -120h-81l37 98h34q63 0 73 52zM221 686h65l109 -105h-107l-47 40h-4l-63 -40h-106z" />
    <glyph glyph-name="Kcommaaccent" unicode="&#x136;" horiz-adv-x="619" 
d="M151 0h-118l150 710h118l-70 -332l373 332h130l-397 -355l258 -355h-134l-240 332zM239 -69h84l-17 -79l-80 -81h-19z" />
    <glyph glyph-name="kcommaaccent" unicode="&#x137;" horiz-adv-x="518" 
d="M572 505l-282 -256l177 -249h-121l-161 228l-48 -228h-111l152 719l97 21h19l-99 -464l255 229h122zM196 -51h88l-16 -72l-94 -111h-15z" />
    <glyph glyph-name="Lacute" unicode="&#x139;" horiz-adv-x="540" 
d="M301 710l-128 -604h346l-38 -106h-448l150 710h118zM285 750h-92l125 144h129z" />
    <glyph glyph-name="lacute" unicode="&#x13a;" horiz-adv-x="261" 
d="M65 195l111 524l97 21h19l-127 -597q-10 -49 43 -49h23l-14 -99h-60q-134 0 -108 118l17 82h-1zM286 820h-92l124 144h129z" />
    <glyph glyph-name="Lcommaaccent" unicode="&#x13b;" horiz-adv-x="540" 
d="M301 710l-128 -604h346l-38 -106h-448l150 710h118zM200 -69h84l-17 -79l-80 -81h-19z" />
    <glyph glyph-name="lcommaaccent" unicode="&#x13c;" horiz-adv-x="261" 
d="M65 195l111 524l97 21h19l-127 -597q-10 -49 43 -49h23l-14 -99h-60q-134 0 -108 118l17 82h-1zM75 -51h88l-16 -72l-94 -111h-15z" />
    <glyph glyph-name="Lcaron" unicode="&#x13d;" horiz-adv-x="547" 
d="M301 710l-128 -604h346l-38 -106h-448l150 710h118zM496 710h145l-96 -226h-59z" />
    <glyph glyph-name="lcaron" unicode="&#x13e;" horiz-adv-x="261" 
d="M65 195l111 524l97 21h19l-127 -597q-10 -49 43 -49h23l-14 -99h-60q-134 0 -108 118l17 82h-1zM353 762h145l-96 -226h-59z" />
    <glyph glyph-name="Ldot" unicode="&#x13f;" horiz-adv-x="550" 
d="M301 710l-128 -604h346l-38 -106h-448l150 710h118zM425 262l26 121h125l-26 -121h-125z" />
    <glyph glyph-name="ldot" unicode="&#x140;" horiz-adv-x="383" 
d="M65 195l111 524l97 21h19l-127 -597q-10 -49 43 -49h23l-14 -99h-60q-134 0 -108 118l17 82h-1zM274 306l25 121h125l-25 -121h-125z" />
    <glyph glyph-name="Lslash" unicode="&#x141;" horiz-adv-x="571" 
d="M332 710l-64 -305l40 26l14 -83l-77 -49l-41 -193h346l-38 -106h-448l150 710h118z" />
    <glyph glyph-name="lslash" unicode="&#x142;" horiz-adv-x="347" 
d="M267 94h23l-14 -99h-60q-134 0 -108 118l42 201l-112 -39l21 100l112 38l65 306l96 21h19l-61 -286l116 40l-22 -99l-115 -40l-45 -212q-10 -49 43 -49z" />
    <glyph glyph-name="Nacute" unicode="&#x143;" horiz-adv-x="710" 
d="M151 0h-118l150 710h118l209 -454q11 -25 18 -61l109 515h118l-150 -710h-118l-201 433q-14 28 -26 84zM492 750h-92l125 144h129z" />
    <glyph glyph-name="nacute" unicode="&#x144;" 
d="M26 0l102 484l90 21h17l-9 -43q27 27 57 38t77 11h53q86 0 120 -31t21 -94l-82 -386h-111l75 356q7 34 -7.5 49t-54.5 15h-71q-73 0 -89 -50l-78 -370h-110zM403 580h-92l124 144h129z" />
    <glyph glyph-name="Ncommaaccent" unicode="&#x145;" horiz-adv-x="710" 
d="M151 0h-118l150 710h118l209 -454q11 -25 18 -61l109 515h118l-150 -710h-118l-201 433q-14 28 -26 84zM260 -36h88l-15 -72l-95 -111h-15z" />
    <glyph glyph-name="ncommaaccent" unicode="&#x146;" 
d="M26 0l102 484l90 21h17l-9 -43q27 27 57 38t77 11h53q86 0 120 -31t21 -94l-82 -386h-111l75 356q7 34 -7.5 49t-54.5 15h-71q-73 0 -89 -50l-78 -370h-110zM197 -51h88l-16 -72l-94 -111h-15z" />
    <glyph glyph-name="Ncaron" unicode="&#x147;" horiz-adv-x="710" 
d="M151 0h-118l150 710h118l209 -454q11 -25 18 -61l109 515h118l-150 -710h-118l-201 433q-14 28 -26 84zM510 749h-70l-103 107h101l48 -53l71 53h100z" />
    <glyph glyph-name="ncaron" unicode="&#x148;" 
d="M26 0l102 484l90 21h17l-9 -43q27 27 57 38t77 11h53q86 0 120 -31t21 -94l-82 -386h-111l75 356q7 34 -7.5 49t-54.5 15h-71q-73 0 -89 -50l-78 -370h-110zM418 579h-70l-103 107h101l48 -53l71 53h100z" />
    <glyph glyph-name="napostrophe" unicode="&#x149;" 
d="M26 0l102 484l90 21h17l-9 -43q27 27 57 38t77 11h53q86 0 120 -31t21 -94l-82 -386h-111l75 356q7 34 -7.5 49t-54.5 15h-71q-73 0 -89 -50l-78 -370h-74l-25 -29h-15l6 29h-2z" />
    <glyph glyph-name="Eng" unicode="&#x14a;" horiz-adv-x="710" 
d="M262 -98h124q79 0 92 64l8 35l-200 432q-14 28 -26 84l-109 -517h-118l150 710h118l209 -454q12 -29 18 -58l65 308h1l43 204h118l-150 -710h-1l-13 -57q-30 -147 -197 -147h-171z" />
    <glyph glyph-name="eng" unicode="&#x14b;" 
d="M276 -104q63 0 73 52l87 408q7 34 -7.5 49t-54.5 15h-71q-73 0 -89 -50l-78 -370h-110l102 484l90 21h17l-9 -43q27 27 57 38t77 11h53q86 0 120 -31t21 -94l-100 -468q-26 -120 -168 -120h-82l37 98h35z" />
    <glyph glyph-name="Omacron" unicode="&#x14c;" horiz-adv-x="709" 
d="M70 201l78 367q15 73 60.5 107.5t130.5 34.5h229q100 0 138 -35t23 -107l-15 -74h-1l-75 -352q-16 -73 -60.5 -107.5t-128.5 -34.5h-230q-101 0 -139.5 35t-22.5 107zM540 604h-186q-80 0 -94 -65l-78 -368q-8 -34 7 -49.5t58 -15.5h187q78 0 92 65l78 368q8 35 -7 50
t-57 15zM653 844l-35 -91h-276l35 91h276z" />
    <glyph glyph-name="omacron" unicode="&#x14d;" horiz-adv-x="576" 
d="M273 511h140q92 0 128 -33.5t20 -101.5l-52 -244q-14 -67 -57 -99.5t-121 -32.5h-141q-86 0 -121 33t-21 99l52 244q15 69 56 102t117 33zM388 416h-98q-38 0 -57.5 -14t-25.5 -44l-44 -206q-7 -30 7.5 -43.5t51.5 -13.5h98q37 0 56.5 13.5t26.5 43.5l44 206
q6 30 -7.5 44t-51.5 14zM552 674l-36 -91h-276l36 91h276z" />
    <glyph glyph-name="Obreve" unicode="&#x14e;" horiz-adv-x="709" 
d="M70 201l78 367q15 73 60.5 107.5t130.5 34.5h229q100 0 138 -35t23 -107l-15 -74h-1l-75 -352q-16 -73 -60.5 -107.5t-128.5 -34.5h-230q-101 0 -139.5 35t-22.5 107zM540 604h-186q-80 0 -94 -65l-78 -368q-8 -34 7 -49.5t58 -15.5h187q78 0 92 65l78 368q8 35 -7 50
t-57 15zM496 746h-37q-67 0 -85.5 17.5t-5.5 75.5l3 13h65l-4 -15q-3 -17 6 -25t32 -8h39q45 0 51 33l4 15h66l-3 -13q-13 -59 -37.5 -76t-93.5 -17z" />
    <glyph glyph-name="obreve" unicode="&#x14f;" horiz-adv-x="575" 
d="M273 511h140q92 0 128 -33.5t20 -101.5l-52 -244q-14 -67 -57 -99.5t-121 -32.5h-141q-86 0 -121 33t-21 99l52 244q15 69 56 102t117 33zM388 416h-98q-38 0 -57.5 -14t-25.5 -44l-44 -206q-7 -30 7.5 -43.5t51.5 -13.5h98q37 0 56.5 13.5t26.5 43.5l44 206
q6 30 -7.5 44t-51.5 14zM394 576h-37q-67 0 -85.5 17.5t-5.5 75.5l2 13h65l-3 -15q-4 -17 5.5 -25t32.5 -8h39q44 0 51 33l3 15h66l-2 -13q-13 -59 -37.5 -76t-93.5 -17z" />
    <glyph glyph-name="Ohungarumlaut" unicode="&#x150;" horiz-adv-x="709" 
d="M70 201l78 367q15 73 60.5 107.5t130.5 34.5h229q100 0 138 -35t23 -107l-15 -74h-1l-75 -352q-16 -73 -60.5 -107.5t-128.5 -34.5h-230q-101 0 -139.5 35t-22.5 107zM540 604h-186q-80 0 -94 -65l-78 -368q-8 -34 7 -49.5t58 -15.5h187q78 0 92 65l78 368q8 35 -7 50
t-57 15zM486 903h101l-146 -153h-71zM608 903h100l-146 -153h-70z" />
    <glyph glyph-name="ohungarumlaut" unicode="&#x151;" horiz-adv-x="575" 
d="M273 511h140q92 0 128 -33.5t20 -101.5l-52 -244q-14 -67 -57 -99.5t-121 -32.5h-141q-86 0 -121 33t-21 99l52 244q15 69 56 102t117 33zM388 416h-98q-38 0 -57.5 -14t-25.5 -44l-44 -206q-7 -30 7.5 -43.5t51.5 -13.5h98q37 0 56.5 13.5t26.5 43.5l44 206
q6 30 -7.5 44t-51.5 14zM385 732h101l-146 -153h-71zM507 732h100l-146 -153h-70z" />
    <glyph glyph-name="OE" unicode="&#x152;" horiz-adv-x="1037" 
d="M735 604l-4 -16q0 -1 -1 -8.5t-2 -11.5l-15 -74h-1l-31 -145h303l-39 -105h-287l-29 -138h370l-38 -106h-472v2q-13 -2 -41 -2h-229q-101 0 -139.5 35t-22.5 107l13 59l78 367q15 73 60.5 107.5t130.5 34.5h228q41 0 71 -6l1 6h486l-38 -106h-352zM539 604h-185
q-80 0 -94 -65l-78 -368q-8 -34 7 -49.5t58 -15.5h186q75 0 90 58l81 381q5 31 -10 45t-55 14z" />
    <glyph glyph-name="oe" unicode="&#x153;" horiz-adv-x="904" 
d="M574 92h83q70 0 82 51l4 17h103l-6 -24q-16 -80 -56.5 -108t-138.5 -28h-73q-98 0 -138 22q-40 -22 -103 -22h-141q-86 0 -121 33t-21 99l52 244q15 69 56 102t117 33h140q72 0 109 -21q38 21 135 21h59q117 0 155 -25t21 -104l-14 -59q-14 -68 -50.5 -95t-135.5 -27
h-166l-11 -51q-6 -30 7 -44t52 -14zM388 416h-98q-38 0 -57.5 -14t-25.5 -44l-44 -206q-7 -30 7.5 -43.5t51.5 -13.5h98q37 0 56.5 13.5t26.5 43.5l44 206q6 30 -7.5 44t-51.5 14zM733 420h-96q-65 0 -74 -45l-17 -83h159q35 0 51.5 9.5t21.5 30.5l9 43q5 23 -7.5 34
t-46.5 11z" />
    <glyph glyph-name="Racute" unicode="&#x154;" horiz-adv-x="651" 
d="M33 0l150 710h337q95 0 134.5 -33.5t25.5 -101.5l-42 -191q-29 -134 -179 -135l151 -249h-136l-151 249h-120l-52 -249h-118zM279 604l-53 -249h206q82 0 96 67l25 115q7 35 -9.5 51t-58.5 16h-206zM452 750h-92l125 144h129z" />
    <glyph glyph-name="racute" unicode="&#x155;" horiz-adv-x="380" 
d="M425 425l-144 -34q-36 -8 -53 -22.5t-23 -42.5l-69 -326h-110l102 484l90 21h17l-13 -62q29 35 74 47l130 31h11zM287 574h-92l124 144h129z" />
    <glyph glyph-name="Rcommaaccent" unicode="&#x156;" horiz-adv-x="651" 
d="M33 0l150 710h337q95 0 134.5 -33.5t25.5 -101.5l-42 -191q-29 -134 -179 -135l151 -249h-136l-151 249h-120l-52 -249h-118zM279 604l-53 -249h206q82 0 96 67l25 115q7 35 -9.5 51t-58.5 16h-206zM273 -51h88l-16 -72l-94 -111h-15z" />
    <glyph glyph-name="rcommaaccent" unicode="&#x157;" horiz-adv-x="380" 
d="M425 425l-144 -34q-36 -8 -53 -22.5t-23 -42.5l-69 -326h-110l102 484l90 21h17l-13 -62q29 35 74 47l130 31h11zM128 -51h88l-16 -72l-94 -111h-15z" />
    <glyph glyph-name="Rcaron" unicode="&#x158;" horiz-adv-x="651" 
d="M33 0l150 710h337q95 0 134.5 -33.5t25.5 -101.5l-42 -191q-29 -134 -179 -135l151 -249h-136l-151 249h-120l-52 -249h-118zM279 604l-53 -249h206q82 0 96 67l25 115q7 35 -9.5 51t-58.5 16h-206zM467 749h-70l-103 107h101l48 -53l71 53h100z" />
    <glyph glyph-name="rcaron" unicode="&#x159;" horiz-adv-x="380" 
d="M425 425l-144 -34q-36 -8 -53 -22.5t-23 -42.5l-69 -326h-110l102 484l90 21h17l-13 -62q29 35 74 47l130 31h11zM303 574h-70l-103 107h101l48 -53l71 53h100z" />
    <glyph glyph-name="Sacute" unicode="&#x15a;" horiz-adv-x="628" 
d="M423 274l-189 76q-79 33 -100.5 58.5t-8.5 87.5l19 88q14 64 53.5 95t112.5 31h196q92 0 130 -31t22 -95l-18 -83h-118l10 46q7 31 -8.5 44t-52.5 13h-132q-40 0 -59.5 -13.5t-25.5 -44.5l-7 -29q-5 -27 5 -42.5t40 -27.5l191 -78q24 -9 36.5 -14.5t28.5 -13.5t23.5 -14
t15.5 -15t10.5 -18.5t2.5 -22t-3 -27.5l-25 -119q-26 -125 -166 -125h-222q-91 0 -127.5 31t-22.5 94l20 93h118l-12 -56q-6 -29 8.5 -42.5t50.5 -13.5h160q71 0 82 56l9 43q5 26 -5.5 42t-41.5 27zM461 750h-92l125 144h129z" />
    <glyph glyph-name="sacute" unicode="&#x15b;" horiz-adv-x="519" 
d="M354 420h-87q-59 0 -68 -43l-3 -12q-4 -20 8 -28t47 -17l123 -29q71 -16 92 -39t8 -83l-12 -57q-13 -63 -55.5 -87.5t-130.5 -24.5h-107q-97 0 -124.5 27.5t-12.5 100.5l6 29h102l-5 -21q-5 -24 7 -34.5t44 -10.5h110q59 0 68 43l3 14q9 41 -48 55l-121 29
q-83 20 -101.5 40.5t-5.5 81.5l8 37q13 66 52 93t136 27h84q98 0 125.5 -28.5t11.5 -103.5l-6 -30h-103l5 26q5 23 -6.5 34t-43.5 11zM366 580h-92l124 144h129z" />
    <glyph glyph-name="Scircumflex" unicode="&#x15c;" horiz-adv-x="627" 
d="M423 274l-189 76q-79 33 -100.5 58.5t-8.5 87.5l19 88q14 64 53.5 95t112.5 31h196q92 0 130 -31t22 -95l-18 -83h-118l10 46q7 31 -8.5 44t-52.5 13h-132q-40 0 -59.5 -13.5t-25.5 -44.5l-7 -29q-5 -27 5 -42.5t40 -27.5l191 -78q24 -9 36.5 -14.5t28.5 -13.5t23.5 -14
t15.5 -15t10.5 -18.5t2.5 -22t-3 -27.5l-25 -119q-26 -125 -166 -125h-222q-91 0 -127.5 31t-22.5 94l20 93h118l-12 -56q-6 -29 8.5 -42.5t50.5 -13.5h160q71 0 82 56l9 43q5 26 -5.5 42t-41.5 27zM430 854h65l109 -105h-107l-47 40h-4l-63 -40h-106z" />
    <glyph glyph-name="scircumflex" unicode="&#x15d;" horiz-adv-x="519" 
d="M354 420h-87q-59 0 -68 -43l-3 -12q-4 -20 8 -28t47 -17l123 -29q71 -16 92 -39t8 -83l-12 -57q-13 -63 -55.5 -87.5t-130.5 -24.5h-107q-97 0 -124.5 27.5t-12.5 100.5l6 29h102l-5 -21q-5 -24 7 -34.5t44 -10.5h110q59 0 68 43l3 14q9 41 -48 55l-121 29
q-83 20 -101.5 40.5t-5.5 81.5l8 37q13 66 52 93t136 27h84q98 0 125.5 -28.5t11.5 -103.5l-6 -30h-103l5 26q5 23 -6.5 34t-43.5 11zM336 684h65l109 -105h-107l-47 40h-4l-63 -40h-106z" />
    <glyph glyph-name="Scedilla" unicode="&#x15e;" horiz-adv-x="628" 
d="M279 -80l-27 10q-17 5 -22.5 13t-1.5 25l7 32h-51q-91 0 -127.5 31t-22.5 94l20 93h118l-12 -56q-6 -29 8.5 -42.5t50.5 -13.5h160q71 0 82 56l9 43q5 26 -5.5 42t-41.5 27l-189 76q-79 33 -100.5 58.5t-8.5 87.5l19 88q14 64 53.5 95t112.5 31h196q92 0 130 -31t22 -95
l-18 -83h-118l10 46q7 31 -8.5 44t-52.5 13h-132q-40 0 -59.5 -13.5t-25.5 -44.5l-7 -29q-5 -27 5 -42.5t40 -27.5l191 -78q24 -9 36.5 -14.5t28.5 -13.5t23.5 -14t15.5 -15t10.5 -18.5t2.5 -22t-3 -27.5l-25 -119q-26 -125 -166 -125h-101l-3 -12q-2 -12 14 -17l29 -10
q18 -6 23 -17.5t0 -33.5l-7 -35q-8 -37 -27.5 -49t-68.5 -12h-40q-52 0 -64.5 12t-3.5 53l3 17h66l-1 -5q-2 -9 2 -12.5t16 -3.5h26q22 0 25 16l2 10q4 13 -17 19z" />
    <glyph glyph-name="scedilla" unicode="&#x15f;" horiz-adv-x="519" 
d="M221 -80l-27 10q-17 5 -22.5 13t-1.5 25l7 32h-8q-97 0 -124.5 27.5t-12.5 100.5l6 29h102l-5 -21q-5 -24 7 -34.5t44 -10.5h110q59 0 68 43l3 14q9 41 -48 55l-121 29q-83 20 -101.5 40.5t-5.5 81.5l8 37q13 66 52 93t136 27h84q98 0 125.5 -28.5t11.5 -103.5l-6 -30
h-103l5 26q5 23 -6.5 34t-43.5 11h-87q-59 0 -68 -43l-3 -12q-4 -20 8 -28t47 -17l123 -29q71 -16 92 -39t8 -83l-12 -57q-13 -63 -55.5 -87.5t-130.5 -24.5h-29l-3 -12q-2 -12 14 -17l29 -10q18 -6 23 -17.5t0 -33.5l-7 -35q-8 -37 -27.5 -49t-68.5 -12h-40q-52 0 -64.5 12
t-3.5 53l3 17h66l-1 -5q-2 -9 2 -12.5t16 -3.5h26q22 0 25 16l2 10q4 13 -17 19z" />
    <glyph glyph-name="Scaron" unicode="&#x160;" horiz-adv-x="628" 
d="M423 274l-189 76q-79 33 -100.5 58.5t-8.5 87.5l19 88q14 64 53.5 95t112.5 31h196q92 0 130 -31t22 -95l-18 -83h-118l10 46q7 31 -8.5 44t-52.5 13h-132q-40 0 -59.5 -13.5t-25.5 -44.5l-7 -29q-5 -27 5 -42.5t40 -27.5l191 -78q24 -9 36.5 -14.5t28.5 -13.5t23.5 -14
t15.5 -15t10.5 -18.5t2.5 -22t-3 -27.5l-25 -119q-26 -125 -166 -125h-222q-91 0 -127.5 31t-22.5 94l20 93h118l-12 -56q-6 -29 8.5 -42.5t50.5 -13.5h160q71 0 82 56l9 43q5 26 -5.5 42t-41.5 27zM476 749h-70l-103 107h101l48 -53l71 53h100z" />
    <glyph glyph-name="scaron" unicode="&#x161;" horiz-adv-x="519" 
d="M354 420h-87q-59 0 -68 -43l-3 -12q-4 -20 8 -28t47 -17l123 -29q71 -16 92 -39t8 -83l-12 -57q-13 -63 -55.5 -87.5t-130.5 -24.5h-107q-97 0 -124.5 27.5t-12.5 100.5l6 29h102l-5 -21q-5 -24 7 -34.5t44 -10.5h110q59 0 68 43l3 14q9 41 -48 55l-121 29
q-83 20 -101.5 40.5t-5.5 81.5l8 37q13 66 52 93t136 27h84q98 0 125.5 -28.5t11.5 -103.5l-6 -30h-103l5 26q5 23 -6.5 34t-43.5 11zM383 579h-70l-103 107h101l48 -53l71 53h100z" />
    <glyph glyph-name="Tcommaaccent" unicode="&#x162;" horiz-adv-x="555" 
d="M634 604h-205l-128 -604h-119l128 604h-206l22 106h530zM186 -51h88l-16 -72l-94 -111h-15z" />
    <glyph glyph-name="Tcaron" unicode="&#x164;" horiz-adv-x="555" 
d="M634 604h-205l-128 -604h-119l128 604h-206l22 106h530zM435 749h-70l-103 107h101l48 -53l71 53h100z" />
    <glyph glyph-name="tcaron" unicode="&#x165;" horiz-adv-x="366" 
d="M414 505l-29 -98h-112l-53 -251q-7 -30 6.5 -44t49.5 -14h45l-11 -98h-75q-158 0 -130 133l58 274h-88l29 98h80l17 80l113 60h10l-30 -140h120zM390 743h127l-84 -200h-52z" />
    <glyph glyph-name="Tbar" unicode="&#x166;" horiz-adv-x="558" 
d="M634 604h-205l-25 -115h28l-32 -88h-14l-85 -401h-119l85 401h-31l32 88h17l25 115h-206l22 106h530z" />
    <glyph glyph-name="Utilde" unicode="&#x168;" horiz-adv-x="681" 
d="M396 106q85 0 101 70l113 534h118l-121 -572q-15 -70 -60 -104t-127 -34h-201q-97 0 -136 34t-24 104l121 572h118l-113 -534q-8 -37 9 -53.5t61 -16.5h141zM559 846q43 0 56 -12t6 -48l-10 -45h-75l5 23q2 7 -1.5 10.5t-13.5 3.5q-15 0 -36 -12l-24 -14q-24 -15 -82 -15
q-45 0 -57 11.5t-4 48.5l9 44h75l-5 -23q-2 -8 0.5 -11t13.5 -3q17 0 39 13l16 11q27 18 88 18z" />
    <glyph glyph-name="utilde" unicode="&#x169;" 
d="M576 505l-107 -505h-80l-1 43q-55 -43 -143 -43h-62q-160 0 -131 132l79 373h111l-75 -350q-7 -33 9 -48.5t56 -15.5h63q37 0 62 14.5t31 37.5l77 362h111zM460 676q43 0 56 -12t5 -48l-9 -45h-75l5 23q1 7 -2 10.5t-13 3.5q-15 0 -36 -12l-24 -14q-24 -15 -82 -15
q-45 0 -57 11.5t-4 48.5l9 44h75l-5 -23q-2 -8 0.5 -11t13.5 -3q17 0 39 13l16 11q27 18 88 18z" />
    <glyph glyph-name="Umacron" unicode="&#x16a;" horiz-adv-x="681" 
d="M396 106q85 0 101 70l113 534h118l-121 -572q-15 -70 -60 -104t-127 -34h-201q-97 0 -136 34t-24 104l121 572h118l-113 -534q-8 -37 9 -53.5t61 -16.5h141zM640 844l-35 -91h-276l35 91h276z" />
    <glyph glyph-name="umacron" unicode="&#x16b;" 
d="M576 505l-107 -505h-80l-1 43q-55 -43 -143 -43h-62q-160 0 -131 132l79 373h111l-75 -350q-7 -33 9 -48.5t56 -15.5h63q37 0 62 14.5t31 37.5l77 362h111zM539 674l-36 -91h-276l36 91h276z" />
    <glyph glyph-name="Ubreve" unicode="&#x16c;" horiz-adv-x="681" 
d="M396 106q85 0 101 70l113 534h118l-121 -572q-15 -70 -60 -104t-127 -34h-201q-97 0 -136 34t-24 104l121 572h118l-113 -534q-8 -37 9 -53.5t61 -16.5h141zM483 746h-37q-67 0 -85.5 17.5t-5.5 75.5l3 13h65l-4 -15q-3 -17 6 -25t32 -8h39q45 0 51 33l4 15h66l-3 -13
q-13 -59 -37.5 -76t-93.5 -17z" />
    <glyph glyph-name="ubreve" unicode="&#x16d;" 
d="M576 505l-107 -505h-80l-1 43q-55 -43 -143 -43h-62q-160 0 -131 132l79 373h111l-75 -350q-7 -33 9 -48.5t56 -15.5h63q37 0 62 14.5t31 37.5l77 362h111zM382 576h-37q-67 0 -85.5 17.5t-5.5 75.5l2 13h65l-3 -15q-4 -17 5.5 -25t32.5 -8h39q44 0 51 33l3 15h66l-2 -13
q-13 -59 -37.5 -76t-93.5 -17z" />
    <glyph glyph-name="Uring" unicode="&#x16e;" horiz-adv-x="681" 
d="M396 106q85 0 101 70l113 534h118l-121 -572q-15 -70 -60 -104t-127 -34h-201q-97 0 -136 34t-24 104l121 572h118l-113 -534q-8 -37 9 -53.5t61 -16.5h141zM468 910h59q56 0 71 -15t5 -64l-6 -31q-11 -50 -31.5 -64.5t-77.5 -14.5h-58q-56 0 -71.5 15t-4.5 64l6 31
q10 49 31.5 64t76.5 15zM491 779q36 0 40 25l5 22q3 13 -5 19t-25 6h-40q-35 0 -41 -25l-5 -22q-2 -12 6.5 -18.5t24.5 -6.5h40z" />
    <glyph glyph-name="uring" unicode="&#x16f;" 
d="M576 505l-107 -505h-80l-1 43q-55 -43 -143 -43h-62q-160 0 -131 132l79 373h111l-75 -350q-7 -33 9 -48.5t56 -15.5h63q37 0 62 14.5t31 37.5l77 362h111zM368 740h59q56 0 71 -15t5 -64l-7 -31q-10 -50 -30.5 -64.5t-77.5 -14.5h-58q-56 0 -71.5 15t-5.5 64l7 31
q10 49 31.5 64t76.5 15zM391 609q34 0 40 25l5 22q3 13 -5 19t-25 6h-40q-35 0 -41 -25l-5 -22q-2 -12 6.5 -18.5t24.5 -6.5h40z" />
    <glyph glyph-name="Uhungarumlaut" unicode="&#x170;" horiz-adv-x="681" 
d="M396 106q85 0 101 70l113 534h118l-121 -572q-15 -70 -60 -104t-127 -34h-201q-97 0 -136 34t-24 104l121 572h118l-113 -534q-8 -37 9 -53.5t61 -16.5h141zM474 903h101l-146 -153h-71zM596 903h100l-146 -153h-70z" />
    <glyph glyph-name="uhungarumlaut" unicode="&#x171;" 
d="M576 505l-107 -505h-80l-1 43q-55 -43 -143 -43h-62q-160 0 -131 132l79 373h111l-75 -350q-7 -33 9 -48.5t56 -15.5h63q37 0 62 14.5t31 37.5l77 362h111zM373 732h101l-146 -153h-71zM495 732h100l-146 -153h-70z" />
    <glyph glyph-name="Uogonek" unicode="&#x172;" horiz-adv-x="681" 
d="M157 -115l4 18q6 28 22 44t47 30q25 13 39 23h-50q-97 0 -136 34t-24 104l121 572h118l-113 -534q-8 -37 9 -53.5t61 -16.5h141q85 0 101 70l113 534h118l-121 -572q-15 -70 -60 -104t-127 -34h-85l-1 -4q-6 -24 -17.5 -34.5t-41.5 -24.5q-26 -14 -33.5 -20.5t-9.5 -17.5
q-2 -10 3 -14t19 -4h85l-20 -58h-92q-40 0 -58.5 15.5t-11.5 46.5z" />
    <glyph glyph-name="uogonek" unicode="&#x173;" 
d="M267 -119l4 18q6 28 22 44t47 30q27 13 36 21t12 19v30q-55 -43 -143 -43h-62q-160 0 -131 132l79 373h111l-75 -350q-7 -33 9 -48.5t56 -15.5h63q37 0 62 14.5t31 37.5l77 362h111l-107 -505h-23l-2 -8q-5 -24 -16.5 -34t-42.5 -25q-26 -14 -33.5 -20.5t-9.5 -17.5
q-2 -10 3 -14t19 -4h85l-20 -58h-92q-40 0 -58.5 15.5t-11.5 46.5z" />
    <glyph glyph-name="Wcircumflex" unicode="&#x174;" horiz-adv-x="1007" 
d="M336 0h-124l-77 710h120l44 -507q2 -43 1 -64q10 31 24 63l236 508h114l20 -508q2 -41 0 -61q10 27 26 60l260 509h120l-377 -710h-123l-27 469q-1 11 4 41t5 35q-15 -61 -22 -76zM617 854h65l109 -105h-107l-47 40h-4l-63 -40h-106z" />
    <glyph glyph-name="wcircumflex" unicode="&#x175;" horiz-adv-x="844" 
d="M294 0h-137l-64 505h116l38 -388l189 388h114l21 -388l205 388h116l-275 -505h-138l-25 294q-3 7 -2 17q-4 -9 -10 -17zM496 684h65l109 -105h-107l-47 40h-4l-63 -40h-106z" />
    <glyph glyph-name="Ycircumflex" unicode="&#x176;" horiz-adv-x="641" 
d="M344 0h-118l58 273l-164 437h119l108 -283q2 -9 5 -18t4.5 -14t2.5 -10.5t1 -11.5q9 23 33 53l228 284h126l-345 -434zM431 854h65l109 -105h-107l-47 40h-4l-63 -40h-106z" />
    <glyph glyph-name="ycircumflex" unicode="&#x177;" horiz-adv-x="541" 
d="M55 -127q34 0 57.5 14.5t46.5 54.5l31 55h-27l-71 508h115l46 -396l221 396h120l-337 -582q-53 -93 -99.5 -120.5t-133.5 -27.5h-79l36 98h74zM332 684h65l109 -105h-107l-47 40h-4l-63 -40h-106z" />
    <glyph glyph-name="Ydieresis" unicode="&#x178;" horiz-adv-x="641" 
d="M344 0h-118l58 273l-164 437h119l108 -283q2 -9 5 -18t4.5 -14t2.5 -10.5t1 -11.5q9 23 33 53l228 284h126l-345 -434zM322 846h94l-21 -100h-94zM513 846h93l-21 -100h-93z" />
    <glyph glyph-name="Zacute" unicode="&#x179;" horiz-adv-x="570" 
d="M632 613l-476 -507h383l-39 -106h-497l3 97l475 507h-351l6 106h499zM422 750h-92l125 144h129z" />
    <glyph glyph-name="zacute" unicode="&#x17a;" horiz-adv-x="480" 
d="M498 425l-353 -340h292l-29 -85h-405l5 80l353 340h-262l6 85h398zM345 580h-92l124 144h129z" />
    <glyph glyph-name="Zdotaccent" unicode="&#x17b;" horiz-adv-x="570" 
d="M632 613l-476 -507h383l-39 -106h-497l3 97l475 507h-351l6 106h499zM369 868h119l-25 -116h-119z" />
    <glyph glyph-name="zdotaccent" unicode="&#x17c;" horiz-adv-x="480" 
d="M498 425l-353 -340h292l-29 -85h-405l5 80l353 340h-262l6 85h398zM292 698h119l-25 -116h-119z" />
    <glyph glyph-name="Zcaron" unicode="&#x17d;" horiz-adv-x="570" 
d="M632 613l-476 -507h383l-39 -106h-497l3 97l475 507h-351l6 106h499zM438 749h-70l-103 107h101l48 -53l71 53h100z" />
    <glyph glyph-name="zcaron" unicode="&#x17e;" horiz-adv-x="480" 
d="M498 425l-353 -340h292l-29 -85h-405l5 80l353 340h-262l6 85h398zM362 579h-70l-103 107h101l48 -53l71 53h100z" />
    <glyph glyph-name="florin" unicode="&#x192;" horiz-adv-x="413" 
d="M422 642q-70 0 -82 -58l-20 -91h117l-37 -98h-101l-93 -440q-15 -73 -65.5 -106.5t-151.5 -33.5h-87l47 98h67q70 0 82 58l90 424h-106l37 98h90l23 107q15 73 65.5 106.5t151.5 33.5h88l-46 -98h-69z" />
    <glyph glyph-name="AEacute" unicode="&#x1fc;" horiz-adv-x="982" 
d="M1074 710l-38 -106h-360l-21 -257h269l-38 -105h-239l-11 -136h303l-38 -106h-398l10 129h-316l-108 -129h-134l605 710h514zM546 544l-260 -309h235zM697 758h-92l124 144h129z" />
    <glyph glyph-name="aeacute" unicode="&#x1fd;" horiz-adv-x="871" 
d="M542 98h89q72 0 82 51l3 11h103l-6 -24q-16 -80 -59.5 -108t-144.5 -28h-84q-71 0 -109 13t-48 44q-27 -32 -62 -44.5t-89 -12.5h-67q-145 0 -120 120l16 73q23 112 168 112h191l14 64q4 23 -8.5 33.5t-41.5 10.5h-95q-59 0 -69 -48l-2 -11h-104l8 40q26 117 159 117h154
q54 0 84 -19q48 19 129 19h84q98 0 132 -24t18 -98l-15 -73q-9 -43 -25.5 -66t-54.5 -36t-105 -13h-173l-9 -45q-6 -29 7 -43.5t50 -14.5zM698 413h-74q-48 0 -69 -12t-28 -46l-13 -63h161q36 0 54 8.5t23 30.5l8 38q5 23 -9.5 33.5t-52.5 10.5zM193 98h89q76 0 91 53l13 63
h-169q-65 0 -74 -49l-5 -23q-6 -26 8 -35t47 -9zM553 571h-92l124 144h129z" />
    <glyph glyph-name="Oslashacute" unicode="&#x1fe;" horiz-adv-x="709" 
d="M705 757h128l-111 -118q9 -30 0 -71l-15 -74h-1l-75 -352q-16 -73 -60.5 -107.5t-128.5 -34.5h-222q-53 0 -89 9l-52 -56h-127l106 115q-10 29 1 74l90 426q15 72 60.5 107t130.5 35h221q57 0 90 -10zM533 604h-178q-79 0 -93 -65l-70 -329l367 392q-14 2 -26 2zM248 106
h179q42 0 63 15.5t29 49.5l10 47h1l59 278l-366 -389q7 -1 25 -1zM449 750h-92l125 144h129z" />
    <glyph glyph-name="oslashacute" unicode="&#x1ff;" horiz-adv-x="583" 
d="M276 511h140q55 0 91 -12l52 50h107l-104 -99q12 -30 2 -74l-52 -244q-28 -132 -178 -132h-141q-54 0 -91 14l-47 -45h-105l101 97q-9 27 0 66l52 244q15 69 56 102t117 33zM323 95q37 0 56.5 13.5t26.5 43.5l40 188l-255 -242q14 -3 34 -3h98zM391 416h-98
q-38 0 -57.5 -14t-25.5 -44l-38 -177l244 233q-12 2 -25 2zM396 580h-92l124 144h129z" />
    <glyph glyph-name="Scommaaccent" unicode="&#x218;" horiz-adv-x="628" 
d="M423 274l-189 76q-79 33 -100.5 58.5t-8.5 87.5l19 88q14 64 53.5 95t112.5 31h196q92 0 130 -31t22 -95l-18 -83h-118l10 46q7 31 -8.5 44t-52.5 13h-132q-40 0 -59.5 -13.5t-25.5 -44.5l-7 -29q-5 -27 5 -42.5t40 -27.5l191 -78q24 -9 36.5 -14.5t28.5 -13.5t23.5 -14
t15.5 -15t10.5 -18.5t2.5 -22t-3 -27.5l-25 -119q-26 -125 -166 -125h-222q-91 0 -127.5 31t-22.5 94l20 93h118l-12 -56q-6 -29 8.5 -42.5t50.5 -13.5h160q71 0 82 56l9 43q5 26 -5.5 42t-41.5 27zM235 -51h88l-16 -72l-94 -111h-15z" />
    <glyph glyph-name="scommaaccent" unicode="&#x219;" horiz-adv-x="519" 
d="M354 420h-87q-59 0 -68 -43l-3 -12q-4 -20 8 -28t47 -17l123 -29q71 -16 92 -39t8 -83l-12 -57q-13 -63 -55.5 -87.5t-130.5 -24.5h-107q-97 0 -124.5 27.5t-12.5 100.5l6 29h102l-5 -21q-5 -24 7 -34.5t44 -10.5h110q59 0 68 43l3 14q9 41 -48 55l-121 29
q-83 20 -101.5 40.5t-5.5 81.5l8 37q13 66 52 93t136 27h84q98 0 125.5 -28.5t11.5 -103.5l-6 -30h-103l5 26q5 23 -6.5 34t-43.5 11zM172 -51h88l-16 -72l-94 -111h-15z" />
    <glyph glyph-name="dotlessj" unicode="&#x237;" horiz-adv-x="262" 
d="M139 407h-71l21 98h182l-125 -587q-26 -120 -168 -120h-81l37 98h34q63 0 73 52z" />
    <glyph glyph-name="circumflex" unicode="&#x2c6;" horiz-adv-x="693" 
d="M387 730h65l108 -105h-107l-46 40h-4l-64 -40h-106z" />
    <glyph glyph-name="caron" unicode="&#x2c7;" horiz-adv-x="978" 
d="M432 625h-70l-102 107h101l48 -53l71 53h100z" />
    <glyph glyph-name="breve" unicode="&#x2d8;" horiz-adv-x="967" 
d="M537 581h-37q-67 0 -85.5 17.5t-5.5 75.5l3 13h65l-4 -15q-4 -17 5.5 -25t32.5 -8h39q44 0 51 33l4 15h66l-3 -13q-13 -59 -37.5 -76t-93.5 -17z" />
    <glyph glyph-name="dotaccent" unicode="&#x2d9;" horiz-adv-x="966" 
d="M434 724h119l-24 -116h-119z" />
    <glyph glyph-name="ring" unicode="&#x2da;" horiz-adv-x="967" 
d="M483 703h59q56 0 71 -15t5 -64l-6 -31q-11 -50 -31.5 -64.5t-77.5 -14.5h-58q-56 0 -71.5 15t-4.5 64l6 31q10 49 31.5 64t76.5 15zM506 572q36 0 40 25l5 22q3 13 -5 19t-25 6h-40q-35 0 -41 -25l-5 -22q-2 -12 6.5 -18.5t24.5 -6.5h40z" />
    <glyph glyph-name="ogonek" unicode="&#x2db;" horiz-adv-x="967" 
d="M255 -119l4 18q6 28 22 44t47 30q31 15 38.5 23t11.5 26l4 16h60l-10 -46q-5 -24 -16.5 -34t-42.5 -25q-26 -14 -33.5 -20.5t-9.5 -17.5q-2 -10 3 -14t19 -4h85l-20 -58h-92q-40 0 -58.5 15.5t-11.5 46.5z" />
    <glyph glyph-name="tilde" unicode="&#x2dc;" horiz-adv-x="956" 
d="M530 717q43 0 56 -12t5 -48l-9 -45h-75l4 23q2 7 -1.5 10.5t-13.5 3.5q-14 0 -35 -12l-24 -14q-25 -15 -82 -15q-45 0 -57 11.5t-5 48.5l10 44h75l-5 -23q-2 -8 0.5 -11t13.5 -3q17 0 39 13l16 11q26 18 88 18z" />
    <glyph glyph-name="hungarumlaut" unicode="&#x2dd;" horiz-adv-x="304" 
d="M254 745h101l-147 -153h-71zM376 745h100l-147 -153h-70z" />
    <glyph glyph-name="Wgrave" unicode="&#x1e80;" horiz-adv-x="1007" 
d="M336 0h-124l-77 710h120l44 -507q2 -43 1 -64q10 31 24 63l236 508h114l20 -508q2 -41 0 -61q10 27 26 60l260 509h120l-377 -710h-123l-27 469q-1 11 4 41t5 35q-15 -61 -22 -76zM490 875h116l72 -126h-76z" />
    <glyph glyph-name="wgrave" unicode="&#x1e81;" horiz-adv-x="844" 
d="M294 0h-137l-64 505h116l38 -388l189 388h114l21 -388l205 388h116l-275 -505h-138l-25 294q-3 7 -2 17q-4 -9 -10 -17zM369 705h116l72 -126h-76z" />
    <glyph glyph-name="Wacute" unicode="&#x1e82;" horiz-adv-x="1007" 
d="M336 0h-124l-77 710h120l44 -507q2 -43 1 -64q10 31 24 63l236 508h114l20 -508q2 -40 1 -59q6 18 25 58l260 509h120l-377 -710h-123l-27 469q-1 11 4 41t5 35q-15 -61 -22 -76zM649 750h-92l125 144h129z" />
    <glyph glyph-name="wacute" unicode="&#x1e83;" horiz-adv-x="844" 
d="M294 0h-137l-64 505h116l38 -388l189 388h114l21 -388l205 388h116l-275 -505h-138l-25 294q-3 7 -2 17q-4 -9 -10 -17zM527 580h-92l124 144h129z" />
    <glyph glyph-name="Wdieresis" unicode="&#x1e84;" horiz-adv-x="1007" 
d="M336 0h-124l-77 710h120l44 -507q2 -43 1 -64q10 31 24 63l236 508h114l20 -508q2 -41 0 -62q12 32 26 61l260 509h120l-377 -710h-123l-27 469q-1 11 4 41t5 35q-15 -61 -22 -76zM507 846h94l-21 -100h-94zM698 846h93l-21 -100h-93z" />
    <glyph glyph-name="wdieresis" unicode="&#x1e85;" horiz-adv-x="844" 
d="M294 0h-137l-64 505h116l38 -388l189 388h114l21 -388l205 388h116l-275 -505h-138l-25 294q-3 7 -2 17q-4 -9 -10 -17zM387 676h94l-21 -100h-94zM578 676h93l-21 -100h-93z" />
    <glyph glyph-name="Ygrave" unicode="&#x1ef2;" horiz-adv-x="641" 
d="M344 0h-118l58 273l-164 437h119l108 -283q2 -14 7.5 -29.5t5.5 -22.5q9 22 33 51l228 284h126l-345 -434zM304 875h116l72 -126h-76z" />
    <glyph glyph-name="ygrave" unicode="&#x1ef3;" horiz-adv-x="541" 
d="M55 -127q34 0 57.5 14.5t46.5 54.5l31 55h-27l-71 508h115l46 -396l221 396h120l-337 -582q-53 -93 -99.5 -120.5t-133.5 -27.5h-79l36 98h74zM203 705h116l72 -126h-76z" />
    <glyph glyph-name="endash" unicode="&#x2013;" horiz-adv-x="562" 
d="M550 341l-37 -98h-449l37 98h449z" />
    <glyph glyph-name="emdash" unicode="&#x2014;" horiz-adv-x="527" 
d="M584 341l-37 -98h-548l37 98h548z" />
    <glyph glyph-name="quoteleft" unicode="&#x2018;" horiz-adv-x="228" 
d="M257 494h-146l86 226h60v-226z" />
    <glyph glyph-name="quoteright" unicode="&#x2019;" horiz-adv-x="219" 
d="M156 720h145l-96 -226h-59z" />
    <glyph glyph-name="quotesinglbase" unicode="&#x201a;" horiz-adv-x="187" 
d="M12 129h145l-96 -226h-59z" />
    <glyph glyph-name="quotedblleft" unicode="&#x201c;" horiz-adv-x="419" 
d="M448 494h-146l86 226h60v-226zM257 494h-146l86 226h60v-226z" />
    <glyph glyph-name="quotedblright" unicode="&#x201d;" horiz-adv-x="409" 
d="M346 720h145l-96 -226h-59zM156 720h145l-96 -226h-59z" />
    <glyph glyph-name="quotedblbase" unicode="&#x201e;" horiz-adv-x="381" 
d="M215 153h145l-96 -226h-59zM14 153h145l-96 -226h-59z" />
    <glyph glyph-name="dagger" unicode="&#x2020;" horiz-adv-x="453" 
d="M40 243l37 98h126l88 415l98 21h18l-93 -436h150l-37 -98h-134l-105 -493h-111l105 493h-142z" />
    <glyph glyph-name="daggerdbl" unicode="&#x2021;" horiz-adv-x="460" 
d="M67 355l37 98h127l64 303l97 21h18l-69 -324h151l-38 -98h-134l-30 -141h151l-38 -98h-134l-78 -366h-110l78 366h-143l37 98h127l30 141h-143z" />
    <glyph glyph-name="bullet" unicode="&#x2022;" horiz-adv-x="479" 
d="M89 130l58 270h280l-58 -270h-280z" />
    <glyph glyph-name="ellipsis" unicode="&#x2026;" horiz-adv-x="887" 
d="M229 -5l26 121h142l-26 -121h-142zM554 -5l26 121h125l-26 -121h-125z" />
    <glyph glyph-name="perthousand" unicode="&#x2030;" horiz-adv-x="1225" 
d="M891 257q18 83 122 83h110q53 0 74.5 -21t12.5 -62l-37 -173q-18 -84 -122 -84h-110q-105 0 -87 84zM511 257q18 83 123 83h110q52 0 73.5 -21t12.5 -62l-37 -173q-18 -84 -121 -84h-110q-53 0 -75 21t-13 63zM640 273q-28 0 -40.5 -11.5t-18.5 -37.5l-25 -120
q-4 -19 6 -28t34 -9h71q27 0 38.5 11.5t17.5 37.5l26 120q4 19 -5 28t-33 9h-71zM1019 273q-28 0 -40 -12t-18 -39l-25 -118q-4 -19 6 -28t33 -9h72q27 0 39 12t18 39l25 118q4 20 -5 28.5t-33 8.5h-72zM131 627q17 83 121 83h110q104 0 87 -83l-37 -173q-18 -84 -122 -84
h-110q-104 0 -86 84zM330 643h-72q-47 0 -56 -37l-28 -132q-4 -19 6.5 -28t33.5 -9h72q47 0 54 37l28 132q5 19 -4.5 28t-33.5 9zM161 0l515 710h85l-517 -710h-83z" />
    <glyph glyph-name="guilsinglleft" unicode="&#x2039;" horiz-adv-x="356" 
d="M292 69h-129l-113 183l191 183h129l-190 -183z" />
    <glyph glyph-name="guilsinglright" unicode="&#x203a;" horiz-adv-x="356" 
d="M151 69h-129l190 183l-112 183h129l113 -183z" />
    <glyph glyph-name="fraction" unicode="&#x2044;" horiz-adv-x="427" 
d="M-45 0l515 710h85l-517 -710h-83z" />
    <glyph glyph-name="foursuperior" unicode="&#x2074;" horiz-adv-x="300" 
d="M101 476l15 74q5 24 29 43l141 117h73l-164 -140q-16 -14 -19 -28l-3 -14h72l7 36l42 8h19l-9 -44h41l-20 -52h-32l-10 -47h-59l10 47h-133z" />
    <glyph glyph-name="Euro" unicode="&#x20ac;" horiz-adv-x="748" 
d="M485 323l-37 -98h-177l-11 -54q-8 -33 7.5 -49t56.5 -16h163q42 0 63.5 15.5t29.5 49.5l8 40h118l-16 -76q-15 -75 -66 -105t-156 -30h-194q-87 0 -120.5 33.5t-19.5 101.5l19 90h-112l38 98h95l12 57h-112l38 98h95l21 97q14 68 61.5 101.5t134.5 33.5h194
q105 0 143 -30t23 -105l-16 -74h-118l8 38q7 34 -8 49.5t-57 15.5h-163q-42 0 -63 -15.5t-29 -49.5l-13 -61h235l-37 -98h-219l-12 -57h193z" />
    <glyph glyph-name="trademark" unicode="&#x2122;" horiz-adv-x="795" 
d="M768 350h-88l44 208l-66 -81h-68l-33 81l-44 -208h-86l76 360h86l54 -137l113 137h88zM448 633h-108l-60 -283h-85l60 283h-105l16 77h298z" />
    <glyph glyph-name="minus" unicode="&#x2212;" horiz-adv-x="598" 
d="M67 243l39 106h479l-40 -106h-478z" />
    <glyph glyph-name="commaaccent" unicode="&#xf6c3;" horiz-adv-x="580" 
d="M203 -51h88l-16 -72l-94 -111h-15z" />
    <glyph glyph-name="s_t" unicode="&#xfb06;" horiz-adv-x="939" 
d="M354 420h-87q-59 0 -68 -43l-3 -12q-4 -20 8 -28t47 -17l123 -29q71 -16 92 -39t8 -83l-12 -57q-13 -63 -55.5 -87.5t-130.5 -24.5h-107q-97 0 -124.5 27.5t-12.5 100.5l6 29h102l-5 -21q-5 -24 7 -34.5t44 -10.5h110q59 0 68 43l3 14q9 41 -48 55l-121 29
q-83 20 -101.5 40.5t-5.5 81.5l8 37q13 66 52 93t136 27h84q98 0 125.5 -28.5t11.5 -103.5l-6 -30h-103l5 26q5 23 -6.5 34t-43.5 11zM988 505l-29 -98h-112l-53 -251q-7 -30 6.5 -44t49.5 -14h45l-11 -98h-75q-158 0 -130 133l58 274h-88l29 98h80l17 80l113 60h10
l-30 -140h120z" />
    <glyph glyph-name="g.001" horiz-adv-x="586" 
d="M76 262l25 115q15 71 62.5 99.5t143.5 28.5h58q67 0 99 -10l123 87l64 -83l-119 -81q4 -30 -7 -77l-18 -84q-14 -67 -54.5 -97t-124.5 -31l-73 -2q-36 0 -41 -19l-1 -6q-2 -13 5.5 -18t35.5 -5h117q97 0 132.5 -27t19.5 -100l-12 -57q-17 -81 -60 -112.5t-146 -31.5h-161
q-78 0 -113 14t-40 45.5t7 83.5l12 55q12 56 34 81.5t72 35.5q-27 10 -22 33l1 7q3 15 11 22t28 12q-34 7 -49.5 25.5t-14.5 42.5t6 54zM190 -158h109q53 0 74 12t28 46l7 30q8 38 -11 48t-69 10h-110q-62 0 -77.5 -10t-24.5 -52l-6 -26q-7 -34 10 -46t70 -12zM345 414h-55
q-38 0 -57.5 -15.5t-26.5 -49.5l-14 -63q-8 -38 7.5 -52t62.5 -14h31q66 0 83 11.5t27 59.5l11 51q9 42 -5 57t-64 15z" />
    <glyph glyph-name="i.001" horiz-adv-x="389" 
d="M118 396h-54l21 98h61q93 0 127.5 -29t19.5 -99l-46 -216q-6 -29 7.5 -43.5t51.5 -14.5h53l-21 -98h-60q-94 0 -128.5 28.5t-19.5 99.5l46 216q6 29 -7 43.5t-51 14.5zM222 583l26 121h125l-26 -121h-125z" />
    <glyph glyph-name="G.001" horiz-adv-x="677" 
d="M358 270l22 105h284l-52 -244q-14 -69 -61 -102t-135 -33h-220q-88 0 -121 33t-19 102l95 444q14 69 61 102t135 33h220q88 0 121 -33t19 -102l-24 -110h-118l16 74q9 39 -11 52t-76 13h-141q-47 0 -66.5 -18.5t-29.5 -63.5l-75 -355q-8 -34 7 -50t57 -16h164
q41 0 62.5 16t29.5 50l22 103h-166z" />
    <glyph glyph-name="P.slt" horiz-adv-x="620" 
d="M149 0h-118l123 582q15 73 67 100.5t162 27.5h151q84 0 115.5 -31.5t17.5 -96.5l-34 -163q-21 -95 -64 -134.5t-149 -39.5h-140q-80 0 -95 -75zM353 604q-46 0 -64.5 -18t-28.5 -61l-45 -212q18 23 43 30.5t66 7.5h105q38 0 57.5 14t25.5 44l27 127q9 40 -4.5 54
t-61.5 14h-120z" />
    <glyph glyph-name="N.001" horiz-adv-x="660" 
d="M351 604q-74 0 -87 -62l-115 -542h-118l123 579q27 131 190 131h200q83 0 116 -32.5t19 -98.5l-123 -579h-118l115 542q7 32 -7.5 47t-53.5 15h-141z" />
    <glyph glyph-name="S.bd" horiz-adv-x="663" 
d="M449 307h-207q-84 0 -115.5 31.5t-17.5 95.5l31 148q14 65 58.5 96.5t128.5 31.5h235q84 0 116 -31.5t18 -96.5l-17 -81h-118l10 45q6 30 -7.5 44t-51.5 14h-178q-38 0 -57.5 -14t-25.5 -44l-16 -75q-7 -30 6.5 -44.5t51.5 -14.5h206q84 0 116 -31t18 -96l-35 -163
q-14 -65 -59 -96.5t-129 -31.5h-235q-84 0 -115.5 31.5t-17.5 96.5l19 89h118l-11 -53q-6 -30 7.5 -44t51.5 -14h178q38 0 57.5 14t25.5 44l19 91q7 30 -6.5 44t-51.5 14z" />
    <glyph glyph-name="N.bd" horiz-adv-x="701" 
d="M33 1l148 698h118l-17 -79q-4 -6 -1 -11.5t2.5 -8t6 -6t8.5 -4.5t10.5 -4t12.5 -5l258 -98l46 216h119l-148 -698h-119l72 341q4 6 1 11.5t-2 8t-5.5 6t-8.5 4.5t-10.5 4t-12.5 5l-259 98l-101 -478h-118z" />
    <glyph glyph-name="T.002" horiz-adv-x="635" 
d="M705 604h-241l-128 -604h-119l128 604h-245l38 106h606z" />
    <glyph glyph-name="I.bd" horiz-adv-x="431" 
d="M261 106h127l-22 -106h-373l22 106h127l106 498h-128l22 106h374l-22 -106h-127z" />
    <glyph glyph-name="Z.bd" horiz-adv-x="624" 
d="M504 385l-304 -164q-53 -30 -58 -55l-4 -16q-6 -28 10.5 -39t60.5 -11h354l-23 -106h-384q-168 0 -142 125l13 62q4 19 16 37t24 30t37.5 28t39 24t46.5 25l301 164q32 17 43.5 26.5t14.5 25.5l3 13q6 26 -11 38t-59 12h-322l22 106h353q168 0 142 -125l-12 -58
q-4 -19 -15.5 -36.5t-23 -29t-36.5 -27.5t-39 -24t-47 -25z" />
    <glyph glyph-name="V.bd" horiz-adv-x="723" 
d="M359 161l364 539l103 -40l-441 -662h-121l-158 662l118 40z" />
    <glyph glyph-name="X.bd" horiz-adv-x="611" 
d="M354 396l248 308l102 -40l-264 -314l133 -315l-119 -39l-123 294l-247 -294l-101 39l265 315l-130 314l118 40z" />
    <glyph glyph-name="a.001" horiz-adv-x="553" 
d="M362 0l2 51q-25 -30 -57 -40.5t-85 -10.5h-55q-83 0 -116.5 29t-20.5 91l17 73q22 112 144 112h218l13 59q5 26 -6.5 37.5t-41.5 11.5h-98q-61 0 -71 -48l-2 -11h-103l8 40q24 117 143 117h159q79 0 110.5 -29t18.5 -88l-83 -394h-94zM201 98h85q79 0 92 59l12 57h-180
q-61 0 -67 -49l-4 -23q-6 -26 9.5 -35t52.5 -9z" />
    <glyph glyph-name="G.002" horiz-adv-x="656" 
d="M378 267l23 106h247l-52 -242q-15 -68 -61 -101.5t-133 -33.5h-210q-81 0 -115.5 32.5t-20.5 99.5l95 447q29 135 187 135h374l-38 -106h-323q-40 0 -61 -16t-29 -51l-79 -371q-8 -34 7 -49.5t55 -15.5h148q43 0 64.5 15.5t29.5 50.5l21 100h-129z" />
    <glyph glyph-name="o.001" horiz-adv-x="967" 
 />
    <glyph glyph-name="i.002" horiz-adv-x="274" 
d="M150 406h-78l17 79l103 20h90l-107 -505h-111zM193 627l25 121h125l-25 -121h-125z" />
    <glyph glyph-name="u.bd" horiz-adv-x="576" 
d="M476 0h-103l8 41q-54 -41 -144 -41h-62q-152 0 -125 125l76 359l91 21h24l-75 -350q-7 -33 9.5 -48.5t56.5 -15.5h70q37 0 61.5 13t31.5 34h1v4l72 342l89 21h26z" />
    <glyph glyph-name="w.bd" horiz-adv-x="827" 
d="M309 0h-137l-86 505h116l62 -388l128 218h113l34 -218l229 388h115l-299 -505h-137l-31 184z" />
    <glyph glyph-name="H.slt" horiz-adv-x="694" 
d="M151 0h-118l146 689l97 21h25l-77 -363h320l73 342l97 21h25l-150 -710h-118l51 241h-320z" />
    <glyph glyph-name="I.slt" horiz-adv-x="257" 
d="M151 0h-118l146 689l97 21h25z" />
    <glyph glyph-name="J.slt" horiz-adv-x="390" 
d="M338 240h-1l-23 -107q-28 -133 -194 -133h-149l38 106h103q77 0 91 64l93 440h2l17 79l97 21h25z" />
    <glyph glyph-name="K.slt" horiz-adv-x="612" 
d="M151 0h-118l146 689l97 21h25l-66 -313l351 313h148l-400 -355l250 -355h-148l-219 312z" />
    <glyph glyph-name="L.slt" horiz-adv-x="524" 
d="M203 240h-1l-29 -134h330l-38 -106h-432l121 570h1l25 119l97 21h25z" />
    <glyph glyph-name="N.slt" horiz-adv-x="705" 
d="M600 0h-119l-228 484l-102 -484h-118l146 689l97 21h25l228 -481l98 460l98 21h25z" />
    <glyph glyph-name="M.slt" horiz-adv-x="797" 
d="M691 0h-117l102 483l-209 -248h-111l-103 249l-102 -484h-118l146 689l97 21h25l142 -330l266 307l17 3q16 3 46.5 10t43.5 10h25z" />
    <glyph glyph-name="U.slt" horiz-adv-x="681" 
d="M185 176q-8 -36 8.5 -53t58.5 -17h148q43 0 66 16.5t31 53.5l109 513l96 21h26l-121 -572q-30 -138 -199 -138h-208q-87 0 -121.5 34.5t-19.5 103.5l117 551l97 21h25z" />
    <glyph glyph-name="T.bd" horiz-adv-x="643" 
d="M721 604h-248l-128 -604h-119l128 604h-249l22 106h616z" />
    <glyph glyph-name="ampersand.001" horiz-adv-x="739" 
d="M65 243h1l5 23q24 112 121 135q-1 12 5 44l18 86h1l8 37q15 70 56.5 104t119.5 37v1h134q100 0 138 -35t23 -107l-15 -74h-1l-11 -49q-15 -72 -59 -106.5t-126 -35.5l110 -111l18 14l49 36l60 -69l-48 -37l-13 -10l45 -45l-99 -81l-50 50q-45 -29 -76.5 -39.5
t-74.5 -10.5h-198q-101 0 -139.5 35t-22.5 107zM233 106h185q35 0 67 16l-176 181h-32q-81 0 -94 -66l-14 -66q-8 -34 6.5 -49.5t57.5 -15.5zM554 468l14 64h1l1 7q8 34 -6 49t-55 16h-88q-72 -3 -85 -65l-8 -38h-1l-6 -27q-7 -33 5.5 -49t50.5 -17h87q75 0 91 60h-1z" />
    <glyph glyph-name="A.B" horiz-adv-x="673" 
d="M223 710h292l113 -710h-124l-9 57l-314 74l-74 -131h-123l349 604h-132zM422 549l-116 -201l151 -35zM251 252l-14 -24l241 -56l-4 27z" />
    <glyph glyph-name="B.s" horiz-adv-x="622" 
d="M33 0l150 710h211q87 0 122.5 -33t21.5 -99l-18 -85q-9 -42 -26 -61t-50 -27q26 0 43.5 -1t38.5 -3t34 -5.5t27 -10t21 -16t12 -22.5t5 -30.5t-5 -39.5l-30 -142q-28 -135 -207 -135h-350zM219 320l-46 -214h201q90 0 105 66l17 81q8 35 -8.5 51t-59.5 16h-209zM279 605
l-38 -180h90q65 0 76 53l15 70q6 29 -10.5 43t-56.5 14h-76z" />
    <glyph glyph-name="C.s" horiz-adv-x="634" 
d="M105 406l22 105h1l12 57q15 73 60.5 107.5t130.5 34.5h195q88 0 121 -33t19 -102l-13 -61h-118l5 25q8 34 -7.5 49.5t-57.5 15.5h-129q-80 0 -94 -65l-8 -38h-1l-19 -89h1l-8 -40q-8 -35 7 -50.5t58 -15.5h130q42 0 63.5 16t29.5 50l4 19h118l-12 -55q-14 -69 -61.5 -102
t-135.5 -33h-165q-101 0 -139 35t-22 107l14 63h-1zM571 106l-22 -106h-529l22 106h529z" />
    <glyph glyph-name="D.s" horiz-adv-x="689" 
d="M93 604l22 106h445q101 0 138 -38t20 -117l-42 -199q-17 -79 -70 -117t-154 -38h-340l86 403h-105zM616 106l-22 -106h-525l22 106h525zM509 604h-193l-63 -298h193q53 0 81.5 20.5t38.5 65.5l28 131q8 42 -12.5 61.5t-72.5 19.5z" />
    <glyph glyph-name="E.s.001" horiz-adv-x="586" 
d="M279 604l-29 -134h275l-38 -106h-259l-6 -27h241l-38 -106h-225l-27 -125h374l-39 -106h-475l150 710h491l-38 -106h-357z" />
    <glyph glyph-name="F.s.001" horiz-adv-x="561" 
d="M279 604l-29 -134h275l-38 -106h-259l-6 -27h241l-38 -106h-225l-49 -231h-118l150 710h479l-38 -106h-345z" />
    <glyph glyph-name="G.s" horiz-adv-x="616" 
d="M128 469l13 60h1l8 39q15 73 60 107.5t130 34.5h127q88 0 121 -33t19 -102l-37 -172q-14 -69 -61.5 -102t-135.5 -33h-68l-13 -62h128q101 0 138.5 -35t22.5 -108l-16 -74h-1l-10 -49q-15 -73 -60 -107.5t-130 -34.5h-199q-101 0 -139 35t-23 107l23 111h1l3 12
q14 64 50 99t102 42l15 71q-104 24 -80 135l12 59h-1zM193 -96h157q68 0 87 49l19 91h3q4 29 -12 42.5t-55 13.5h-156q-80 0 -94 -65l-14 -66q-8 -34 7 -49.5t58 -15.5zM305 374h71q71 3 84 65l21 100q13 62 -56 65h-78q-72 -3 -85 -65l-8 -38h-1l-5 -22h1l-8 -40
q-8 -35 6.5 -50t57.5 -15z" />
    <glyph glyph-name="H.s" horiz-adv-x="674" 
d="M151 1h-118l151 710h118l-57 -266l286 -63l69 328h118l-150 -710h-118l30 142l-286 64zM223 339l-6 -28l285 -63l6 28z" />
    <glyph glyph-name="I.s" horiz-adv-x="578" 
d="M537 106l-22 -106h-524l22 106h201l106 498h-202l22 106h525l-22 -106h-205l-106 -498h205z" />
    <glyph glyph-name="J.s" horiz-adv-x="649" 
d="M367 106q43 0 66 16.5t31 53.5l61 288h-174l14 106h183l7 34h-241l13 106h368l-121 -572q-30 -138 -198 -138h-209q-87 0 -121 34.5t-19 103.5l27 126h118l-19 -88q-8 -37 8 -53.5t59 -16.5h147z" />
    <glyph glyph-name="K.s" horiz-adv-x="637" 
d="M608 710h131l-421 -405l288 -69l-50 -236h-118l33 157l-273 65l-47 -222h-118l150 710h118l-78 -371z" />
    <glyph glyph-name="L.s" horiz-adv-x="556" 
d="M292 710l-85 -404h346l-39 -105h-448l108 509h118zM503 106l-22 -106h-457l22 106h457z" />
    <glyph glyph-name="M.s" horiz-adv-x="793" 
d="M151 0h-118l150 710h124l158 -215l249 215h124l-150 -710h-118l80 378l-255 -211l-164 211zM272 571l-11 -49l165 -211l254 211l11 49l-255 -210z" />
    <glyph glyph-name="N.s" horiz-adv-x="701" 
d="M33 1l148 698h118l-17 -79q-4 -6 -1 -11.5t2.5 -8t6 -6t8.5 -4.5t10.5 -4t12.5 -5l258 -98l46 216h119l-148 -698h-119l72 341q4 6 1 11.5t-2 8t-5.5 6t-8.5 4.5t-10.5 4t-12.5 5l-259 98l-101 -478h-118z" />
    <glyph glyph-name="O.s" horiz-adv-x="662" 
d="M91 344l38 180h1l9 44q15 73 60 107.5t130 34.5h206q100 0 138 -35t23 -107l-15 -74h-2l-16 -74h2l-16 -76q-16 -73 -61 -108t-130 -35h-207q-101 0 -139 35.5t-21 107.5zM280 307h164q42 0 63 15.5t29 50.5l32 151h1l3 15q8 35 -7 50t-58 15h-163q-79 0 -93 -65l-8 -38
h-1l-19 -89h1l-8 -39q-8 -34 6.5 -50t57.5 -16zM581 106l-22 -106h-533l22 106h533z" />
    <glyph glyph-name="P.s" horiz-adv-x="622" 
d="M161 604l22 106h349q82 0 116 -33t20 -99l-43 -205q-29 -132 -192 -132h-231l-51 -241h-118l73 347h316q79 0 93 64l27 129q7 33 -8.5 48.5t-56.5 15.5h-316z" />
    <glyph glyph-name="Q.s" horiz-adv-x="679" 
d="M318 201h-75q-100 0 -138.5 35.5t-22.5 107.5l35 167h1l12 57q15 73 60.5 107.5t130.5 34.5h220q100 0 137.5 -34.5t22.5 -107.5l-15 -74h-1l-16 -74h1l-16 -76q-13 -62 -49 -98l15 -3l-22 -106zM271 307h179q78 0 92 66v2h-1l29 136h1l6 28q8 35 -7 50t-57 15h-177
q-80 0 -94 -65l-8 -38h-1l-19 -89h1l-8 -39q-8 -34 6.5 -50t57.5 -16zM290 68l22 106l280 -65l-23 -106z" />
    <glyph glyph-name="R.s" horiz-adv-x="659" 
d="M513 -27l-150 268h-161l-51 -241h-118l73 347h198l-143 257l22 106h349q82 0 116 -33t20 -99l-43 -205q-21 -100 -120 -124l119 -211zM477 604h-171l143 -255q55 9 66 62l27 129q7 33 -8.5 48.5t-56.5 15.5z" />
    <glyph glyph-name="S.s" horiz-adv-x="623" 
d="M247 530q-4 -18 5.5 -27.5t33.5 -19.5l214 -85l-15 -70q65 -27 87.5 -50.5t12.5 -68.5l-18 -84q-27 -125 -182 -125h-216q-82 0 -115 31t-19 94l18 86h117l-10 -49q-6 -29 8.5 -42.5t51.5 -13.5h154q72 0 83 56l5 24q4 20 -5 29.5t-36 19.5l-226 91l14 69
q-53 22 -73.5 46.5t-12.5 66.5l17 76q27 126 185 126h200q81 0 114 -31t19 -95l-18 -83h-118l10 46q11 57 -57 57h-140q-40 0 -59 -13t-25 -45z" />
    <glyph glyph-name="T.s" horiz-adv-x="602" 
d="M324 0h-119l98 465h-185l23 106h493l-23 -106h-189zM672 604h-559l21 106h560z" />
    <glyph glyph-name="U.s" horiz-adv-x="657" 
d="M432 306q80 0 95 70l71 334h118l-78 -371q-30 -138 -199 -138h-209q-86 0 -120 34t-19 104l78 371h118l-71 -334q-15 -70 68 -70h148zM578 106l-22 -106h-533l22 106h533z" />
    <glyph glyph-name="V.s" horiz-adv-x="572" 
d="M354 201h-123l-87 509h123l59 -348l206 348h124zM538 106l-22 -106h-531l22 106h531z" />
    <glyph glyph-name="W.s" horiz-adv-x="794" 
d="M183 710h118l-81 -381l251 195l168 -195l81 381h118l-150 -710h-124l-159 215l-248 -215h-124zM190 186l-9 -41l254 210l165 -210l9 41l-165 210z" />
    <glyph glyph-name="X.s" horiz-adv-x="659" 
d="M501 427l120 -427h-131l-90 320l-32 -34l81 -286h-131l-51 179l-169 -179h-129l268 286l-118 424h130l89 -317l32 33l-80 284h132l49 -176l166 176h131z" />
    <glyph glyph-name="Y.s" horiz-adv-x="664" 
d="M244 523l85 -98l10 47l-194 238h138l133 -152l192 152h139l-290 -237l-10 -46l122 96h139l-291 -237l-60 -286h-118l60 285l-193 238h138z" />
    <glyph glyph-name="Z.s" horiz-adv-x="608" 
d="M133 472l5 105h332l26 27h-356l5 106h506l-4 -97l-355 -372h308l-40 -105h-369l-28 -30h385l-38 -106h-502l4 97l358 375h-237z" />
    <glyph glyph-name="E.s" horiz-adv-x="583" 
d="M276 604l-29 -134h275l-38 -106h-377l73 346h491l-38 -106h-357zM505 0h-475l71 337h359l-38 -106h-225l-27 -125h374z" />
    <glyph glyph-name="F.s" horiz-adv-x="559" 
d="M276 604l-29 -134h275l-38 -106h-377l73 346h479l-38 -106h-345zM148 0h-118l71 337h359l-38 -106h-225z" />
    <glyph glyph-name="H.s.001" horiz-adv-x="671" 
d="M151 1h-118l151 710h118l-61 -284h297l60 283h118l-150 -710h-118l38 181h-297zM219 321l-8 -35h297l8 35h-297z" />
    <glyph glyph-name="L.s.001" horiz-adv-x="557" 
d="M302 710l-98 -464h344l-40 -106h-327l-7 -34h346l-38 -106h-448l150 710h118z" />
    <glyph glyph-name="Q.s.001" horiz-adv-x="656" 
d="M348 1h-111l42 200h-39q-100 0 -138.5 35.5t-22.5 107.5l35 167h1l12 57q15 73 60.5 107.5t130.5 34.5h220q100 0 138 -35t23 -107l-15 -74h-1l-16 -74h1l-16 -76q-16 -73 -61 -108t-130 -35h-71zM268 307h34l19 91h111l-19 -91h34q42 0 63.5 15.5t29.5 50.5v2h-2l29 136
h2l6 28q8 35 -7 50t-58 15h-177q-80 0 -94 -65l-8 -38h-1l-19 -89h1l-8 -39q-8 -34 6.5 -50t57.5 -16z" />
    <glyph glyph-name="A.s.001" horiz-adv-x="809" 
d="M458 710h122l72 -459h183l-23 -106h-144l24 -145h-124l-23 145h-292l-82 -145h-123l83 145h-141l23 106h180l204 353h-132l22 105h170zM486 549l-171 -298h215z" />
    <glyph glyph-name="N.s.001" horiz-adv-x="711" 
d="M151 0h-118l150 710h118l-10 -50l320 -75l26 125h118l-150 -710h-118l73 346l-320 74zM268 554l-6 -28l321 -74l6 28z" />
    <glyph glyph-name="O.s.001" horiz-adv-x="701" 
d="M70 201l78 367q15 73 60.5 107.5t130.5 34.5h221q100 0 137.5 -34.5t22.5 -107.5l-90 -426q-16 -73 -60.5 -107.5t-128.5 -34.5h-222q-101 0 -139.5 35t-22.5 107zM532 604h-178q-80 0 -94 -65l-78 -368q-8 -34 7 -49.5t58 -15.5h179q78 0 92 65l78 368q8 35 -7 50
t-57 15zM316 292l25 121h125l-25 -121h-125z" />
    <glyph glyph-name="N.s.002" horiz-adv-x="711" 
d="M151 0h-118l150 710h118l-10 -50l320 -75l26 125h118l-150 -710h-118l102 480l-321 74z" />
    <glyph glyph-name="C.spec" horiz-adv-x="749" 
d="M601 604h-146q-79 0 -93 -65l-12 -55l181 -42l-22 -106l-181 42l-6 -28l181 -42l-22 -105l-181 42l-16 -74q-8 -34 6.5 -49.5t57.5 -15.5h147q79 0 93 65l10 47h118l-16 -76q-16 -73 -60.5 -107.5t-128.5 -34.5h-191q-101 0 -139 35t-22 107l27 129l-141 33l22 105
l141 -33l6 28l-141 33l23 106l141 -33v1h1l12 57q15 73 60.5 107.5t130.5 34.5h189q100 0 137.5 -34.5t22.5 -107.5l-15 -74h-118l9 45q8 35 -7 50t-58 15z" />
    <glyph glyph-name="A.sh" horiz-adv-x="674" 
d="M602 169l-456 112l191 323h-142l22 106h300zM132 252l476 -116l21 -136h-125l-12 56l-310 72l-75 -128h-123zM422 549l-121 -201l161 -33z" />
    <glyph glyph-name="H.sh" horiz-adv-x="671" 
d="M619 248l-509 121l72 341h118l-56 -265l286 -63l69 328h118zM150 1h-118l72 340l509 -121l-46 -220h-118l30 143l-286 63z" />
    <glyph glyph-name="M.sh" horiz-adv-x="794" 
d="M427 314l404 360l-143 -674h-117l88 418l-259 -232l-161 232l-88 -418h-118l143 674zM436 355l-253 355h120l160 -229l256 229h119z" />
    <glyph glyph-name="W.sh" horiz-adv-x="794" 
d="M695 36l-250 360l-405 -360l143 674h118l-88 -418l259 232l161 -232l88 418h117zM33 0l403 355l252 -355h-119l-160 229l-256 -229h-120z" />
    <glyph glyph-name="X.sh" horiz-adv-x="663" 
d="M269 183l-174 -183h-129l274 292l-118 418h131l200 -710h-131zM504 427l120 -427h-130l-200 710h131l48 -174l167 174h132z" />
    <glyph glyph-name="L.sh" horiz-adv-x="580" 
d="M539 73l-480 115l111 522h118l-94 -446l368 -84zM31 55l23 105l479 -114l-22 -106z" />
    <glyph glyph-name="B.sh" horiz-adv-x="629" 
d="M33 0l150 710h170q113 0 157.5 -25t30.5 -93l-17 -81q-14 -67 -69.5 -92.5t-168.5 -25.5h-52l-4 -19h207q31 0 51.5 -1t43.5 -4.5t36.5 -10t25.5 -17.5t16.5 -26.5t4.5 -38.5t-6 -52l-14 -67q-33 -157 -212 -157h-350zM209 276l-36 -170h201q90 0 105 66l8 37
q9 43 -15.5 55t-90.5 12h-172zM282 619l-29 -135h76q79 0 91 57l5 21q6 30 -10 43.5t-57 13.5h-76z" />
    <glyph glyph-name="undercommaaccent" horiz-adv-x="203" 
d="M7 -69h84l-17 -79l-80 -81h-19z" />
    <glyph glyph-name="O.mon2.001" horiz-adv-x="696" 
d="M351 604q-41 0 -62 -15.5t-29 -49.5l-78 -368q-8 -34 7 -49.5t56 -15.5h50l-22 -106h-78q-87 0 -120 33.5t-19 101.5l94 440q14 69 61 102t134 33h234q87 0 120 -33.5t19 -101.5l-94 -440q-28 -135 -195 -135h-80l22 106h52q76 0 90 65l78 368q8 34 -7 49.5t-55 15.5
h-178z" />
    <glyph glyph-name="P.mon2.001" horiz-adv-x="647" 
d="M161 604l22 106h364q175 0 147 -132l-43 -205q-29 -132 -203 -132h-246l-51 -241h-118l113 533h118l-40 -186h213q90 0 104 64l27 129q7 33 -11.5 48.5t-64.5 15.5h-331z" />
    <glyph glyph-name="S.mon2.001" horiz-adv-x="644" 
d="M444 261l-190 72q-29 11 -38 14.5t-30.5 13t-27 14t-18.5 14.5t-15.5 18t-7 21t-3 27.5t5.5 32.5l21 96q27 126 192 126h68l-22 -106h-37q-42 0 -63 -13.5t-27 -44.5l-10 -43q-4 -20 7 -30t49 -25l239 -93q56 -23 69.5 -47.5t0.5 -84.5l-21 -98q-27 -125 -188 -125h-65
l22 106h32q41 0 61.5 11.5t27.5 44.5l11 50q1 7 1 12t-0.5 9t-4.5 7.5t-6 5.5t-9 5l-10.5 4.5t-13.5 5.5zM497 604h-41l22 106h70q78 0 109.5 -32.5t19.5 -93.5l-18 -83h-118l10 46q11 57 -54 57zM162 162q-6 -29 9.5 -42.5t54.5 -13.5h51l-22 -106h-78q-86 0 -120.5 31
t-20.5 94l18 86h118z" />
    <glyph glyph-name="F.mon2.001" horiz-adv-x="590" 
d="M136 0h-118l113 533h118l-39 -184h322l-39 -105h-306zM146 604l22 106h523l-39 -106h-506z" />
    <glyph glyph-name="B.mon2.001" horiz-adv-x="630" 
d="M146 605l22 105h317q92 0 130.5 -33.5t24.5 -101.5l-26 -119q-6 -28 -27 -51.5t-54 -31.5q46 -8 65 -36t12 -60l-30 -142q-28 -135 -210 -135h-352l113 532h118l-23 -107h191q73 0 86 60l11 53q7 34 -13.5 50.5t-70.5 16.5h-284zM204 320l-46 -214h204q93 0 108 66l17 81
q8 35 -9.5 51t-61.5 16h-212z" />
    <glyph glyph-name="I.mon2.001" horiz-adv-x="258" 
d="M152 0h-118l150 710h118z" />
    <glyph glyph-name="E.mon2.001" horiz-adv-x="584" 
d="M506 0h-488l112 528h118l-38 -179h317l-39 -105h-301l-29 -138h387zM146 604l22 106h503l-38 -106h-487z" />
    <glyph glyph-name="Z.mon2.001" horiz-adv-x="608" 
d="M0 0l3 97l464 436h144l-457 -427h419l-38 -106h-535zM671 604h-540l5 106h540z" />
    <glyph glyph-name="A.mon2.001" horiz-adv-x="668" 
d="M101 0h-125l130 236h353l-46 313l-149 -243h-119l242 404h122l113 -710h-128l-20 130h-304z" />
    <glyph glyph-name="V.mon2.001" horiz-adv-x="661" 
d="M355 0h-119l404 710h126zM122 710h126l69 -412l-98 -178z" />
    <glyph glyph-name="X.mon2.001" horiz-adv-x="566" 
d="M-27 0l571 710h131l-263 -327l109 -383h-133l-78 257l-206 -257h-131zM249 710l60 -187l-96 -119l-94 306h130z" />
    <glyph glyph-name="N.mon2.001" horiz-adv-x="684" 
d="M455 0l-287 710h135l203 -491l104 491h119l-150 -710h-124zM136 0h-117l116 554l77 -195z" />
    <glyph glyph-name="R.mon2.001" horiz-adv-x="633" 
d="M146 604l22 106h347q82 0 115 -33t19 -99l-43 -205q-25 -115 -151 -130l152 -243h-136l-152 241h-132l-51 -241h-117l112 533h118l-40 -186h196q78 0 92 64l27 129q7 34 -8 49t-56 15h-314z" />
    <glyph glyph-name="G.mon2.001" horiz-adv-x="664" 
d="M182 170q-7 -33 8.5 -48.5t56.5 -15.5h38l-22 -106h-70q-81 0 -116.5 32.5t-20.5 99.5l94 443q28 135 189 135h219q83 0 117.5 -33t20.5 -99l-16 -77h-118l8 39q8 33 -8 48.5t-57 15.5h-153q-41 0 -62.5 -16t-29.5 -51zM374 267l40 106h236l-51 -238q-16 -76 -68 -105.5
t-159 -29.5h-33l22 106h33q82 0 95 62l21 99h-136z" />
    <glyph glyph-name="C.mon2.001" horiz-adv-x="649" 
d="M247 106h34l-22 -106h-62q-89 0 -122 33t-19 102l94 440q15 69 61.5 102t135.5 33h205q88 0 121 -33t19 -102l-16 -74h-118l8 38q8 34 -7.5 49.5t-57.5 15.5h-148q-79 0 -93 -65l-78 -368q-8 -34 7.5 -49.5t57.5 -15.5zM402 0h-70l22 106h32q50 0 73 17t31 58l6 30h118
l-16 -76q-14 -69 -61 -102t-135 -33z" />
    <glyph glyph-name="D.mon2.001" horiz-adv-x="641" 
d="M483 604h-337l22 106h365q88 0 121.5 -33.5t19.5 -101.5l-94 -440q-14 -69 -61.5 -102t-135.5 -33h-365l113 533h119l-91 -427h218q79 0 93 65l78 368q8 34 -7.5 49.5t-57.5 15.5z" />
    <glyph glyph-name="H.mon2.001" horiz-adv-x="667" 
d="M136 0h-118l74 349h426l76 361h118l-150 -710h-118l51 243h-308zM286 710l-61 -289h-118l61 289h118z" />
    <glyph glyph-name="U.mon2.001" horiz-adv-x="680" 
d="M254 106h34l-22 -106h-64q-88 0 -123 34.5t-20 103.5l121 572h118l-113 -534q-8 -37 8.5 -53.5t60.5 -16.5zM397 106h-33l-22 -106h63q171 0 201 138l121 572h-118l-113 -534q-8 -37 -31.5 -53.5t-67.5 -16.5z" />
    <glyph glyph-name="W.mon2.001" horiz-adv-x="896" 
d="M305 0h-117l314 710h118l-7 -549l242 549h127l-345 -710h-135v466zM140 710h127l28 -309l-111 -245z" />
    <glyph glyph-name="Y.mon2.001" horiz-adv-x="615" 
d="M331 0h-117l63 300l314 410h124l-323 -423zM256 710l79 -207l-90 -126l-119 333h130z" />
    <glyph glyph-name="L.mon2.001" horiz-adv-x="526" 
d="M461 0h-443l22 106h459zM286 710l-113 -533h-118l113 533h118z" />
    <glyph glyph-name="J.mon2.001" horiz-adv-x="508" 
d="M177 106q69 0 104 15t42 49l114 540h118l-122 -577q-28 -133 -251 -133h-205l37 106h163z" />
    <glyph glyph-name="Q.mon2.001" horiz-adv-x="696" 
d="M406 198l-20 -92h37q76 0 90 65l78 368q8 34 -6.5 49.5t-55.5 15.5h-52l22 106h80q87 0 120 -33.5t19 -101.5l-94 -440q-28 -135 -195 -135h-65l-22 -102h-111l22 102h-58q-87 0 -120 33.5t-19 101.5l94 440q14 69 61 102t134 33h78l-22 -106h-50q-77 0 -91 -65l-78 -368
q-8 -34 7 -49.5t56 -15.5h30l20 92h111z" />
    <glyph glyph-name="K.mon2.001" horiz-adv-x="598" 
d="M130 0h-117l71 341l490 369h147l-424 -324l274 -386h-147l-223 293l-10 -6zM280 710l-33 -158l-143 -117l58 275h118z" />
    <glyph glyph-name="M.mon2.001" horiz-adv-x="786" 
d="M681 0h-118l103 489l-199 -245h-133l-166 466h135l129 -319l263 319h136zM136 0h-117l114 545l70 -228z" />
    <glyph glyph-name="T.mon2.001" horiz-adv-x="628" 
d="M702 604h-592l22 106h592zM337 0h-119l113 533h119z" />
    <glyph glyph-name="O.mon2" horiz-adv-x="696" 
d="M56 135l94 440q14 69 61 102t134 33h234q87 0 120 -33.5t19 -101.5l-94 -440q-28 -135 -195 -135h-234q-87 0 -120 33.5t-19 101.5zM351 604q-41 0 -62 -15.5t-29 -49.5l-78 -368q-8 -34 7 -49.5t56 -15.5h178q76 0 90 65l78 368q8 34 -7 49.5t-55 15.5h-178z" />
    <glyph glyph-name="P.mon2" horiz-adv-x="647" 
d="M33 0l150 710h364q175 0 147 -132l-43 -205q-29 -132 -203 -132h-246l-51 -241h-118zM279 604l-55 -257h213q90 0 104 64l27 129q7 33 -11.5 48.5t-64.5 15.5h-213z" />
    <glyph glyph-name="S.mon2" horiz-adv-x="645" 
d="M445 261l-218 80q-69 26 -95 50t-16 72l26 121q27 126 191 126h206q84 0 118 -31t20 -95l-18 -83h-118l10 46q6 30 -9 43.5t-53 13.5h-146q-43 0 -63.5 -13.5t-26.5 -44.5l-10 -46q-5 -21 3.5 -29t37.5 -18l217 -79q20 -9 30.5 -13.5t25.5 -11.5t22 -12t16 -13t12.5 -15
t6.5 -16t2.5 -20t-3.5 -24l-26 -124q-27 -125 -188 -125h-222q-85 0 -119.5 31t-20.5 94l18 86h118l-10 -49q-6 -29 9.5 -42.5t54.5 -13.5h162q77 0 88 56l11 50q3 14 -1.5 23t-10.5 12.5t-24 10.5q-2 1 -3.5 1.5t-3.5 1.5z" />
    <glyph glyph-name="F.mon2" horiz-adv-x="605" 
d="M279 604l-54 -255h323l-40 -105h-306l-51 -244h-118l150 710h523l-38 -106h-389z" />
    <glyph glyph-name="B.mon2" horiz-adv-x="649" 
d="M33 0l150 710h318q92 0 130 -33.5t24 -101.5l-26 -119q-6 -28 -26.5 -51.5t-54.5 -31.5q47 -8 65.5 -36t11.5 -60l-30 -142q-29 -135 -209 -135h-353zM219 320l-46 -214h204q93 0 108 66l17 81q8 35 -9 51t-62 16h-212zM279 605l-38 -180h191q73 0 86 60l11 53
q7 34 -13 50.5t-70 16.5h-167z" />
    <glyph glyph-name="I.mon2" horiz-adv-x="258" 
d="M152 0h-118l150 710h118z" />
    <glyph glyph-name="E.mon2" horiz-adv-x="599" 
d="M279 604l-54 -255h317l-39 -105h-301l-29 -138h387l-38 -106h-489l150 710h504l-38 -106h-370z" />
    <glyph glyph-name="Z.mon2" horiz-adv-x="607" 
d="M672 613l-518 -507h419l-38 -106h-535l3 97l518 507h-390l5 106h540z" />
    <glyph glyph-name="A.mon2" horiz-adv-x="668" 
d="M387 710h122l113 -710h-128l-20 130h-300l-73 -130h-125zM413 549l-178 -313h224z" />
    <glyph glyph-name="V.mon2" horiz-adv-x="662" 
d="M356 0h-122l-111 710h126l79 -549l312 549h127z" />
    <glyph glyph-name="X.mon2" horiz-adv-x="583" 
d="M252 710l92 -310l216 310h130l-262 -356l112 -354h-136l-87 294l-213 -294h-129l261 354l-117 356h133z" />
    <glyph glyph-name="N.mon2" horiz-adv-x="703" 
d="M151 0h-118l150 710h124l220 -487l103 487h118l-150 -710h-123l-220 491z" />
    <glyph glyph-name="R.mon2" horiz-adv-x="649" 
d="M33 0l150 710h347q82 0 115 -33t19 -99l-43 -205q-26 -117 -151 -130l151 -243h-136l-152 241h-131l-51 -241h-118zM279 604l-55 -257h196q77 0 91 64l27 129q7 34 -7.5 49t-55.5 15h-196z" />
    <glyph glyph-name="G.mon2" horiz-adv-x="664" 
d="M374 267l40 106h236l-51 -238q-15 -68 -61.5 -101.5t-133.5 -33.5h-211q-81 0 -116.5 32.5t-20.5 99.5l94 443q28 135 189 135h219q83 0 117.5 -33t20.5 -99l-16 -77h-118l8 39q7 34 -8.5 49t-56.5 15h-153q-41 0 -62.5 -16t-29.5 -51l-78 -367q-7 -33 8.5 -48.5
t56.5 -15.5h147q82 0 95 62l21 99h-136z" />
    <glyph glyph-name="C.mon2" horiz-adv-x="649" 
d="M247 106h148q42 0 63.5 15.5t29.5 49.5l8 40h118l-16 -76q-14 -69 -61 -102t-135 -33h-205q-89 0 -122 33t-19 102l94 440q15 69 61.5 102t135.5 33h205q88 0 121 -33t19 -102l-16 -74h-118l8 38q8 34 -7.5 49.5t-57.5 15.5h-148q-42 0 -63.5 -15.5t-29.5 -49.5l-78 -368
q-8 -34 7.5 -49.5t57.5 -15.5z" />
    <glyph glyph-name="D.mon2" horiz-adv-x="668" 
d="M33 0l150 710h366q87 0 120.5 -33.5t19.5 -101.5l-94 -440q-14 -68 -61.5 -101.5t-134.5 -33.5h-366zM498 604h-218l-106 -498h218q79 0 93 65l78 368q8 34 -7.5 49.5t-57.5 15.5z" />
    <glyph glyph-name="H.mon2" horiz-adv-x="682" 
d="M151 0h-118l150 710h118l-76 -361h308l76 361h118l-150 -710h-118l51 243h-308z" />
    <glyph glyph-name="U.mon2" horiz-adv-x="689" 
d="M406 106q44 0 67.5 16.5t31.5 53.5l113 534h118l-121 -572q-30 -138 -201 -138h-212q-88 0 -123 34.5t-20 103.5l121 572h118l-113 -534q-8 -37 8.5 -53.5t60.5 -16.5h152z" />
    <glyph glyph-name="W.mon2" horiz-adv-x="896" 
d="M320 0h-136l-44 710h127l10 -549l225 549h119l-7 -549l242 549h127l-345 -710h-135v433z" />
    <glyph glyph-name="Y.mon2" horiz-adv-x="615" 
d="M331 0h-117l57 272l-145 438h130l101 -307l227 307h131l-326 -436z" />
    <glyph glyph-name="L.mon2" horiz-adv-x="603" 
d="M301 710l-128 -604h406l-38 -106h-508l150 710h118z" />
    <glyph glyph-name="J.mon2" horiz-adv-x="508" 
d="M177 106q69 0 104 15t42 49l114 540h118l-122 -577q-28 -133 -251 -133h-205l37 106h163z" />
    <glyph glyph-name="Q.mon2" horiz-adv-x="696" 
d="M56 135l94 440q14 69 61 102t134 33h234q87 0 120 -33.5t19 -101.5l-94 -440q-28 -135 -195 -135h-65l-22 -102h-111l22 102h-58q-87 0 -120 33.5t-19 101.5zM351 604q-41 0 -62 -15.5t-29 -49.5l-78 -368q-8 -34 7 -49.5t56 -15.5h30l20 92h111l-20 -92h37q76 0 90 65
l78 368q8 34 -7 49.5t-55 15.5h-178z" />
    <glyph glyph-name="K.mon2" horiz-adv-x="620" 
d="M151 0h-118l150 710h118l-67 -315l361 315h147l-406 -355l256 -355h-147l-228 314z" />
    <glyph glyph-name="M.mon2" horiz-adv-x="802" 
d="M697 0h-118l108 510l-199 -226h-126l-103 226l-108 -510h-118l150 710h137l127 -320l264 320h136z" />
    <glyph glyph-name="T.mon2" horiz-adv-x="628" 
d="M702 604h-237l-128 -604h-119l128 604h-236l22 106h592z" />
    <glyph glyph-name="K.mon2.002" horiz-adv-x="634" 
d="M136 0h-117l84 402h243l271 308h130l-300 -357l151 -353h-138l-134 296h-128zM286 710l-50 -236h-118l50 236h118z" />
    <glyph glyph-name="A.ae" horiz-adv-x="689" 
d="M398 710h122l-1 -2l122 -671l-119 -37l-24 130h-326l-77 -130l-104 37zM425 549l-188 -313h243z" />
    <glyph glyph-name="K.ae" horiz-adv-x="584" 
d="M151 0h-118l150 710h118l-66 -313l361 320l89 -66l-350 -296l220 -302l-113 -60l-225 319z" />
    <glyph glyph-name="M.ae" horiz-adv-x="793" 
d="M688 0h-118l104 491l-209 -247h-107l-103 247l-104 -491h-118l150 710h124l136 -318l271 318h124z" />
    <glyph glyph-name="R.ae" horiz-adv-x="643" 
d="M33 0l150 710h349q82 0 116 -33t20 -99l-43 -205q-26 -117 -154 -130l124 -200l-109 -50l-151 248h-133l-51 -241h-118zM279 604l-55 -257h198q78 0 92 64l27 129q7 34 -8 49t-56 15h-198z" />
    <glyph glyph-name="V.ae" horiz-adv-x="687" 
d="M369 0h-123v1l-121 672l119 37l98 -549l329 549l105 -37l-408 -672z" />
    <glyph glyph-name="W.ae" horiz-adv-x="1093" 
d="M775 0h-123l-66 361l-218 -360l1 -1h-123v1l-121 672l119 37l98 -549l329 549l105 -37l-92 -151l63 -361l330 549l105 -37z" />
    <glyph glyph-name="X.ae" horiz-adv-x="601" 
d="M604 729l92 -56l-282 -306l159 -321l-114 -56l-138 277l-256 -277l-90 56l296 321l-152 306l114 56l130 -262z" />
    <glyph glyph-name="Y.ae" horiz-adv-x="633" 
d="M340 0h-118l65 308l-159 372l113 49l130 -300l256 300l93 -49l-314 -369z" />
    <glyph glyph-name="A.SC" horiz-adv-x="615" 
d="M339 604h120l111 -604h-124l-20 103h-267l-61 -103h-123zM365 440l-141 -231h183z" />
    <glyph glyph-name="B.SC" horiz-adv-x="606" 
d="M29 0l128 604h295q82 0 117 -29t22 -86l-20 -95q-13 -64 -79 -77q103 -2 85 -86l-25 -116q-24 -115 -184 -115h-339zM203 265l-34 -159h190q73 0 83 47l13 63q5 24 -11 36.5t-55 12.5h-186zM252 497l-27 -127h155q68 0 78 47l7 34q5 24 -11.5 35t-57.5 11h-144z" />
    <glyph glyph-name="C.SC" horiz-adv-x="609" 
d="M231 106h138q66 0 76 47l7 34h117l-15 -72q-12 -58 -55 -86.5t-123 -28.5h-197q-80 0 -111 28.5t-19 86.5l79 374q26 115 179 115h197q80 0 111 -28.5t18 -86.5l-14 -70h-117l6 32q5 24 -8.5 35t-47.5 11h-138q-66 0 -76 -46l-63 -298q-5 -25 8.5 -36t47.5 -11z" />
    <glyph glyph-name="D.SC" horiz-adv-x="645" 
d="M29 0l128 604h335q97 0 134 -34.5t22 -106.5l-69 -323q-15 -71 -67 -105.5t-148 -34.5h-335zM356 106q99 0 113 72l53 247q8 38 -12 55t-71 17h-187l-83 -391h187z" />
    <glyph glyph-name="E.SC" horiz-adv-x="543" 
d="M252 497l-41 -193h269l-38 -105h-253l-20 -93h330l-38 -106h-432l128 604h447l-39 -107h-313z" />
    <glyph glyph-name="F.SC" horiz-adv-x="523" 
d="M252 497l-41 -193h257l-38 -105h-241l-42 -199h-118l128 604h440l-39 -107h-306z" />
    <glyph glyph-name="G.SC" horiz-adv-x="626" 
d="M325 220l39 106h242l-45 -211q-12 -58 -55 -86.5t-123 -28.5h-206q-76 0 -108.5 28.5t-19.5 85.5l79 375q26 115 173 115h213q76 0 108 -28.5t20 -85.5l-14 -64h-119l5 25q5 25 -8 35.5t-46 10.5h-148q-65 0 -75 -47l-63 -298q-5 -24 9 -35t48 -11h142q68 0 78 46l14 68
h-140z" />
    <glyph glyph-name="H.SC" horiz-adv-x="639" 
d="M147 0h-118l128 604h118l-61 -285h273l61 285h118l-128 -604h-118l45 213h-273z" />
    <glyph glyph-name="I.SC" horiz-adv-x="249" 
d="M147 0h-118l128 604h118z" />
    <glyph glyph-name="J.SC" horiz-adv-x="397" 
d="M137 106q64 0 74 46l96 452h118l-104 -490q-24 -114 -176 -114h-161l37 106h116z" />
    <glyph glyph-name="K.SC" horiz-adv-x="584" 
d="M147 0h-118l128 604h118l-60 -281l325 281h131l-348 -302l230 -302h-133l-214 281z" />
    <glyph glyph-name="L.SC" horiz-adv-x="500" 
d="M275 604l-106 -498h307l-39 -106h-408l128 604h118z" />
    <glyph glyph-name="M.SC" horiz-adv-x="732" 
d="M148 0h-119l128 604h123l117 -284l240 284h122l-128 -604h-118l87 411l-171 -212h-114l-80 211z" />
    <glyph glyph-name="N.SC" horiz-adv-x="655" 
d="M147 0h-118l128 604h118v-1l185 -354q10 -18 16 -58l88 413h118l-128 -604h-118l-180 337q-14 25 -23 72z" />
    <glyph glyph-name="O.SC" horiz-adv-x="655" 
d="M49 115l79 374q26 115 179 115h224q80 0 111 -28.5t18 -86.5l-79 -374q-12 -58 -55 -86.5t-123 -28.5h-224q-80 0 -111 28.5t-19 86.5zM314 497q-66 0 -76 -46l-63 -298q-5 -25 8.5 -36t47.5 -11h164q35 0 52.5 11t22.5 36l63 298q5 24 -7.5 35t-47.5 11h-164z" />
    <glyph glyph-name="P.SC" horiz-adv-x="591" 
d="M189 202l-8 -40h1l-35 -162h-118l28 130h-1l101 474h335q76 0 108 -28.5t20 -85.5l-38 -175q-24 -113 -176 -113h-217zM252 497l-40 -190h185q66 0 76 47l20 97q5 24 -8.5 35t-47.5 11h-185z" />
    <glyph glyph-name="Q.SC" horiz-adv-x="655" 
d="M49 115l79 374q26 115 179 115h224q80 0 111 -28.5t18 -86.5l-79 -374q-12 -58 -55 -86.5t-123 -28.5h-56l-19 -88h-110l19 88h-58q-80 0 -111 28.5t-19 86.5zM231 106h28l14 67h110l-14 -67h26q35 0 52.5 11t22.5 36l63 298q5 24 -7.5 35t-47.5 11h-164q-66 0 -76 -46
l-63 -298q-5 -25 8.5 -36t47.5 -11z" />
    <glyph glyph-name="R.SC" horiz-adv-x="606" 
d="M29 0l128 604h333q76 0 107.5 -28.5t19.5 -85.5l-38 -176q-23 -105 -152 -114l133 -200h-136l-131 200h-104l-42 -200h-118zM252 497l-40 -190h182q66 0 76 46l20 98q5 24 -8.5 35t-47.5 11h-182z" />
    <glyph glyph-name="S.SC" horiz-adv-x="580" 
d="M377 217l-165 61q-75 29 -96.5 55t-9.5 83l17 81q23 107 168 107h179q74 0 104.5 -27t19.5 -80l-15 -71h-118l7 32q4 20 -8.5 29.5t-41.5 9.5h-117q-60 0 -68 -39l-4 -20q-4 -20 3.5 -28t35.5 -19l166 -62q72 -28 96 -50t15 -65l-23 -108q-23 -106 -166 -106h-202
q-147 0 -124 106l17 81h118l-9 -42q-4 -20 8.5 -29.5t41.5 -9.5h139q60 0 67 39l6 29q4 16 -5.5 25t-35.5 18z" />
    <glyph glyph-name="T.SC" horiz-adv-x="522" 
d="M573 497h-185l-105 -497h-118l105 497h-184l23 107h487z" />
    <glyph glyph-name="U.SC" horiz-adv-x="628" 
d="M365 106q68 0 78 49l96 449h117l-104 -488q-24 -116 -178 -116h-193q-78 0 -110 29t-20 87l104 488h118l-96 -449q-5 -25 9 -37t49 -12h130z" />
    <glyph glyph-name="V.SC" horiz-adv-x="590" 
d="M320 0h-122l-84 604h126l52 -411q2 -20 -4 -52q14 43 19 52l227 411h126z" />
    <glyph glyph-name="W.SC" horiz-adv-x="929" 
d="M314 0h-122l-77 604h120l43 -409q4 -39 3 -52q10 30 21 52l197 408l114 1l24 -409q2 -37 0 -50q9 22 22 49l218 410h122l-335 -604h-122l-31 366q-1 10 4 39t5 32q-16 -62 -21 -71z" />
    <glyph glyph-name="X.SC" horiz-adv-x="547" 
d="M311 345l195 259h122l-231 -303l102 -301h-124l-86 242l-190 -242h-122l228 301l-105 303h122z" />
    <glyph glyph-name="Y.SC" horiz-adv-x="597" 
d="M322 0h-118l48 226l-153 378h121l102 -231q12 -29 9 -50q14 29 31 49l195 232h123l-310 -375z" />
    <glyph glyph-name="Z.SC" horiz-adv-x="535" 
d="M571 506l-411 -400h340l-38 -106h-455l4 97l410 400h-310l7 107h458z" />
    <glyph glyph-name="a.ital" horiz-adv-x="579" 
d="M587 505l-49 -232h1l-58 -273h-94l1 55q-40 -55 -142 -55h-70q-78 0 -109.5 31.5t-18.5 94.5l52 244q15 71 60.5 106t128.5 35h73q83 0 106 -41l8 35h111zM410 195l37 173q1 24 -16.5 36t-50.5 12h-81q-78 0 -91 -63l-42 -195q-13 -63 63 -63h83q74 0 90 57l9 43h-1z" />
    </font>
</defs>
</svg>
