<?xml version="1.0" standalone="no"?>
<!DOCTYPE svg PUBLIC "-//W3C//DTD SVG 1.1//EN" "http://www.w3.org/Graphics/SVG/1.1/DTD/svg11.dtd" >
<svg xmlns="http://www.w3.org/2000/svg" xmlns:xlink="http://www.w3.org/1999/xlink" version="1.1">
<metadata>
Created by FontForge 20170731 at Thu Jul 22 03:00:46 1999
 By Aleksey,,,
1.01  Polo Brush  Copr.1993   By Richard William Mueller
</metadata>
<defs>
<font id="PoloBrush" horiz-adv-x="200" >
  <font-face 
    font-family="Polo"
    font-weight="400"
    font-stretch="normal"
    units-per-em="1000"
    panose-1="0 0 4 0 0 0 0 0 0 0"
    ascent="800"
    descent="-200"
    x-height="408"
    cap-height="703"
    bbox="-46.5789 -201 1126 926.5"
    underline-thickness="20"
    underline-position="-163"
    unicode-range="U+0020-F002"
  />
<missing-glyph horiz-adv-x="500" 
d="M63 0v800h375v-800h-375zM125 63h250v675h-250v-675z" />
    <glyph glyph-name=".notdef" horiz-adv-x="500" 
d="M63 0v800h375v-800h-375zM125 63h250v675h-250v-675z" />
    <glyph glyph-name=".null" horiz-adv-x="0" 
 />
    <glyph glyph-name="nonmarkingreturn" horiz-adv-x="300" 
 />
    <glyph glyph-name="space" unicode=" " horiz-adv-x="300" 
 />
    <glyph glyph-name="exclam" unicode="!" 
d="M161 679q-7 -80 -26 -228q-21 -158 -28 -230q-5 -1 -17 -7t-18 -6q-4 0 -7 1q-17 14 -18 47q-3 49 -4 52q3 47 3 122q-1 98 0 123q2 82 14 138q8 15 17 16q-2 -1 24.5 -3t59.5 -25zM136 29q-6 -5 -8.5 -21t-11.5 -21q-4 -2 -7 -2q-14 0 -34 25q-26 31 -33 36q-2 1 -2 6
q0 15 9.5 42t18.5 30t23.5 -16t26.5 -17q6 0 13.5 -18t7.5 -32q0 -9 -3 -12z" />
    <glyph glyph-name="quotedbl" unicode="&#x22;" horiz-adv-x="330" 
d="M275 683q0 -40 -15 -111q-16 -82 -18 -101q0 -4 -10.5 -12.5t-14.5 -8.5q-1 0 -1 2q0 46 -13 110q-19 86 -21 104q-2 13 9.5 20t23.5 14t25 7q35 0 35 -24zM143 683q0 -40 -15 -111q-16 -82 -18 -101q0 -4 -10.5 -12.5t-14.5 -8.5q-1 0 -1 2q0 46 -13 110q-19 86 -21 104
q-2 13 9.5 20t23.5 14t25 7q35 0 35 -24z" />
    <glyph glyph-name="numbersign" unicode="#" horiz-adv-x="520" 
d="M479 432q2 -1 2 -2q0 -3 -11.5 -8t-19.5 -6q-22 -6 -49 6l-50 13l-14 -44q-2 -11 -8 -33q72 -24 128 -63l2 -2l-30 -15q-26 -5 -50 7l-63 16q-15 -56 -21 -128q-1 -6 -10 -16q-4 -1 -8 -1q-28 0 -35 29q-2 8 -2 19q0 39 20 115l-36 10q-27 8 -42 10q-24 -96 -29 -166
q-1 -6 -10 -16q-4 -1 -8 -1q-28 0 -36 29q-2 7 -2 19q0 42 28 149q-15 4 -72 8q-6 2 -16 10q-1 4 -1 8q0 28 30 36q23 6 74 -6q5 18 15 49q3 14 9 28q-38 9 -90 13q-5 1 -15 9q-1 5 -1 10q0 26 30 35q22 6 96 -11q21 58 60 113q1 2 2 2q10 0 15 -30q5 -19 -6 -51l-17 -49
q14 -4 74 -19q30 81 75 147l2 2q3 0 14 -30q5 -20 -5 -51l-29 -87q67 -23 110 -57zM294 452l-48 14q-3 1 -26 6l-24 -76q28 -7 78 -22q14 52 20 78z" />
    <glyph glyph-name="dollar" unicode="$" horiz-adv-x="362" 
d="M341 295q2 -48 -31 -78q-14 -12 -39.5 -20.5t-49.5 -15.5q-3 -2 -3 -13v-18q1 -13 1 -20q0 -45 -30 -45q-13 0 -16 37q-3 32 1 49q0 7 -22 11q-29 5 -37 8q-45 20 -61 30q-31 22 -38 55q15 -2 25 10q15 -1 55 -4q35 -3 55 -3q28 0 51 5q25 2 38 8t26 11q18 7 18 12
q0 2 -2 3q-96 32 -128 50q-67 38 -83 101q-2 7 8 40q9 29 14 40q10 21 37 42q45 35 50 40q6 41 18 86q4 2 7 2q14 0 19 -30q3 -16 6 -33.5t12 -28.5q24 -2 60.5 -15.5t32.5 -21.5q-3 -7 -3 -14q0 -8 7 -22.5t7 -24.5q0 -13 -9 -28t-40.5 -35t-39.5 -38q63 -30 84 -132z
M254 538q0 2 -5 2q-22 0 -67 -17q-49 -18 -45 -30q7 -16 35 -32q25 -15 52 -21q-5 10 -5 21q0 16 15 39q17 28 20 38z" />
    <glyph glyph-name="percent" unicode="%" horiz-adv-x="550" 
d="M268 509q-1 -19 -17 -43q-20 -33 -47 -32q-19 -23 -59 -23q-20 0 -43 6q-56 22 -64 101q0 109 56 144q10 14 28 14q5 0 14.5 -1.5t14.5 -1.5q17 0 26 13q1 2 7 2q38 0 70 -37q20 -22 20 -61q0 -13 -3 -40.5t-3 -40.5zM513 655q1 1 2 1q2 0 -4 -14q-6 -17 -6 -23
q-2 -18 -32 -58l-193 -256q-117 -155 -180 -295l-2.5 -5.5t-6.5 -5.5q-17 1 -27.5 15.5t-9.5 32.5q3 41 89 167q32 49 135 189q133 181 235 252zM502 104q-1 -19 -17 -43q-20 -33 -47 -32q-19 -23 -59 -23q-20 0 -43 6q-56 22 -64 101q0 109 56 144q10 14 28 14
q5 0 14.5 -1.5t14.5 -1.5q17 0 26 13q1 2 7 2q38 0 70 -37q20 -22 20 -61q0 -13 -3 -40.5t-3 -40.5zM212 618q-1 17 -8 34q-9 22 -23 21q-2 0 -3 -2q0 -2 8.5 -11.5t9.5 -14.5t-1 -8q-1 -2 -4 2q-11 13 -34 5q-39 -14 -57 -55q-11 -24 -20 -79q-1 -6 6 -21.5t15 -22.5
q35 -19 50 -19q11 0 18 7q35 55 43 164zM446 213q-1 17 -8 34q-9 22 -23 21q-2 0 -3 -2q0 -2 8.5 -11.5t9.5 -14.5t-1 -8q-1 -2 -4 2q-11 13 -34 5q-39 -14 -57 -55q-11 -24 -20 -79q-1 -6 6 -21.5t15 -22.5q35 -19 50 -19q11 0 18 7q35 55 43 164z" />
    <glyph glyph-name="ampersand" unicode="&#x26;" horiz-adv-x="572" 
d="M546 92q0 -26 -24 -53q-36 -31 -50 -31q-8 0 -17 4q-44 30 -75 61l-90 -34q-54 -17 -96 -17q-32 0 -62 10q-34 7 -67.5 34.5t-37.5 51.5q-1 8 -1 16q0 28 17 62q16 27 31 55q60 76 101 127q-16 50 -38 158q-3 10 -3 25q0 38 10 45q18 18 25 24q15 11 31 14q6 1 7 -40
q0 -52 2 -62q1 -21 18 -51.5t25 -31.5q11 2 22.5 26.5t11.5 38.5q0 12 -9 26l-16 22q-3 6 -21 19q-14 11 -13 22q9 2 19 2q49 0 96 -38q36 -36 36 -77q0 -13 -4 -24q-13 -26 -43 -58q-41 -43 -50 -55q42 -95 101 -151q17 3 29 27q3 6 3 13q0 15 -10.5 36t-9.5 21q4 2 8 2
q17 0 39 -40q20 -36 20 -69q0 -17 -6 -30q-10 -20 -10 -28q0 -7 5 -11l30 -24q19 -15 29 -15q4 0 8 3q19 15 20 15q9 0 9 -20zM295 176q-45 57 -70 108q-5 6 -9 3q-84 -71 -124 -129q-11 -16 -11 -26q0 -7 6 -8q81 -4 149 14q63 16 63 29q0 4 -4 9z" />
    <glyph glyph-name="quotesingle" unicode="'" 
d="M143 683q0 -40 -15 -111q-16 -82 -18 -101q0 -4 -10.5 -12.5t-14.5 -8.5q-1 0 -1 2q0 46 -13 110q-19 86 -21 104q-2 13 9.5 20t23.5 14t25 7q35 0 35 -24z" />
    <glyph glyph-name="parenleft" unicode="(" horiz-adv-x="300" 
d="M249 -179q0 -16 -49 -16q-51 0 -91 190q-34 166 -34 322v0q0 113 31 286q33 192 66 192q43 0 50 -1q20 -3 20 -16q0 -9 -22 -86q-26 -93 -39 -165q-22 -113 -22 -209q0 -293 90 -497z" />
    <glyph glyph-name="parenright" unicode=")" horiz-adv-x="300" 
d="M230 283q0 -113 -30 -286q-34 -192 -67 -192q-43 0 -50 1q-20 3 -20 16q0 9 22 86q26 93 39 165q22 113 22 209q0 293 -90 497q0 16 49 16q51 0 91 -190q34 -166 34 -322z" />
    <glyph glyph-name="asterisk" unicode="*" horiz-adv-x="330" 
d="M258 535q3 -8 -7 -8q-20 0 -48 18l-8 4q1 -33 0 -54q-2 -24 -5 -22q-5 4 -16.5 4t-19.5 8.5t-8 63.5q-58 -40 -63 -40q-2 1 -2 3.5t-7 12t-5 20.5q5 14 59 50q-75 50 -70 50q4 2 11 12t17 11q17 4 61 -26q0 28 -4 36q-2 5 -2 8q0 7 12.5 8t15 4t5.5 3q7 0 13.5 -16.5
t6.5 -32.5v-10q23 12 27 24q4 9 9 9q4 0 11 -9t10 -10q7 0 7 -6q0 -21 -29 -40q-5 -4 -21 -15q20 -13 48 -28q11 -1 11 -7q0 -3 -5 -12t-4 -13z" />
    <glyph glyph-name="plus" unicode="+" horiz-adv-x="385" 
d="M322 257q0 -11 -26.5 -21t-52.5 -9h-4q-2 -45 -8 -88q-6 4 -31 5q-21 1 -30 20.5t-8 59.5q-44 -2 -66 0q-28 1 -23 8t4.5 26t11.5 29q18 16 75 14q0 35 -8 51q-4 8 -4 13q0 10 20.5 12t24 6.5t9.5 4.5q11 0 21 -26.5t9 -52.5v-11q36 2 50 9q8 4 13 4q10 0 12 -19
q2 -22 6.5 -25.5t4.5 -9.5z" />
    <glyph glyph-name="comma" unicode="," 
d="M155 44q0 -37 -21 -48q-15 -68 -41.5 -87.5t-66.5 -47.5q-8 1 -15 7q6 18 33 68q22 42 27 72q-23 22 -27 71q-1 6 16 26t21 19q27 2 46 -27q14 -27 28 -53z" />
    <glyph glyph-name="hyphen" unicode="-" horiz-adv-x="275" 
d="M239 258q0 -17 -63 -28q-41 -7 -84 -7q-39 0 -34 9q4 7 3.5 26t9.5 29q14 15 46 15q9 0 28 -1.5t28 -1.5q24 0 37 8q6 4 11 4q8 0 9 -19q1 -22 5 -25.5t4 -8.5z" />
    <glyph glyph-name="hyphen" unicode="&#x2010;" horiz-adv-x="275" 
d="M239 258q0 -17 -63 -28q-41 -7 -84 -7q-39 0 -34 9q4 7 3.5 26t9.5 29q14 15 46 15q9 0 28 -1.5t28 -1.5q24 0 37 8q6 4 11 4q8 0 9 -19q1 -22 5 -25.5t4 -8.5z" />
    <glyph glyph-name="period" unicode="." 
d="M138 2q-4 0 -14 2.5t-15 2.5q-9 0 -15 -7q-3 -2 -6 -2q-8 0 -16.5 10t-7.5 14q2 14 -2 44q-5 36 -5 46q0 23 12 27q11 3 42 -13q36 -19 41 -45q9 -25 9 -43q0 -14 -5.5 -25t-17.5 -11z" />
    <glyph glyph-name="slash" unicode="/" horiz-adv-x="420" 
d="M487 640q0 -33 -33 -76l-187 -302q-69 -112 -104 -188q-23 -52 -57 -151q-7 -20 -17 -20q-25 0 -41.5 18t-16.5 43q0 74 209 422q125 209 239 304q2 2 3 2q5 0 5 -52z" />
    <glyph glyph-name="zero" unicode="0" horiz-adv-x="520" 
d="M484 181q-4 -39 -34 -86q-40 -65 -95 -64q-37 -45 -116 -45q-41 0 -87 12q-59 22 -94 81q-32 55 -34 121q-8 212 111 288q20 27 55 27q9 0 28.5 -2.5t29.5 -2.5q34 0 53 25q2 4 14 4q26 0 64 -17q45 -21 77 -57q39 -44 39 -120q0 -26 -6 -81.5t-5 -82.5zM371 400
q-1 34 -15 68q-19 43 -47 41q-5 -1 -5 -4q0 -4 17 -22.5t18 -29.5q4 -15 -3 -15q-2 0 -6 4q-12 14 -38 14q-16 0 -30 -5q-77 -27 -114 -108q-22 -49 -41 -159q-2 -13 12.5 -43.5t30.5 -44.5q65 -39 100 -39q22 0 35 14q73 113 86 329z" />
    <glyph glyph-name="one" unicode="1" horiz-adv-x="300" 
d="M225 -19q-32 0 -64.5 18t-48.5 46q-2 3 -2 6q0 8 13.5 25.5t15.5 27.5q-3 55 -2 146q2 123 2 149q0 11 -10 11q-6 0 -22 -4.5t-24 -4.5t-13 3t-28 16q-17 8 -25 20q0 17 19 17q3 0 11 -1t12 -1q8 0 13 3q20 6 40 13q34 12 34 28q-11 112 11 107q32 -7 59 -28
q31 -24 31 -53q0 -12 -6.5 -26.5t-12.5 -27.5q-2 -4 -2 -165q-1 -176 4 -277q0 -9 13.5 -20.5t13.5 -15.5q0 -5 -10 -8.5t-22 -3.5z" />
    <glyph glyph-name="two" unicode="2" horiz-adv-x="510" 
d="M399 541q-3 -7 -20 -6q-19 2 -24 0q-85 -35 -164 -129q-2 -2 -2 -4q0 -8 12 -18t22 -13q18 -5 18 -7t-5 -6q-10 -6 -37 -6q-43 0 -55 21q-21 22 -21 51q0 32 32 75q54 73 153 73q20 0 41 -3q11 -2 50 -28zM484 126q0 -61 -31 -91q-23 -23 -93 -22q-40 0 -117 -6.5
t-113 -6.5t-67 4q-10 3 -24.5 29t-15.5 47q-2 28 40 28q7 0 126 114q132 126 191 203q22 42 22 55t-8 24q2 8 11 6q46 -39 40 -105q-6 -60 -65 -121q-54 -49 -107 -98q-1 -1 -50 -46q-30 -26 -27 -30q9 -9 25 -11q12 -2 32 -1l31 1q26 5 85 7q55 3 84 10q5 2 12 17.5
t12 15.5q2 0 4.5 -2t2.5 -21z" />
    <glyph glyph-name="three" unicode="3" horiz-adv-x="470" 
d="M439 173q-9 -55 -45.5 -100.5t-89.5 -63.5q-44 -15 -95 -15q-110 0 -170 64q-18 19 -18 31q0 7 5 13q38 32 88 32q9 0 30.5 -2.5t32.5 -2.5q9 0 17 1q2 -1 4 -1q-1 -4 -6 -5l-72 -24q-42 -16 -43 -21q-3 -17 31 -21q21 -3 44 0q63 7 123 52q56 42 91 104q4 25 -23 37
q-15 0 -48 4.5t-49 4.5q-42 0 -65 -24q-74 44 -77 83q36 16 74 55q33 34 65 68q-3 24 -24 24q-9 0 -34 -7t-36 -5q-28 1 -57 1q-33 3 -44 29q-2 25 -7 76q5 3 9 3q6 0 21 -11q12 -11 22 -8q40 7 123.5 6.5t124.5 7.5q31 -15 47 -48q1 -4 1 -8q0 -17 -22 -29q-69 -38 -88 -50
q-48 -31 -76 -65q-4 -5 -4 -8q0 -8 24 -10q32 -2 34 -2q129 -40 165 -113q18 -47 17 -52z" />
    <glyph glyph-name="four" unicode="4" horiz-adv-x="570" 
d="M544 180q-9 -18 -53 -18h-15q-11 1 -15 1q-31 0 -36 -11q-8 -26 -6 -74q3 -52 -1 -74q-1 -2 -5 -2q-17 0 -46 16q-33 18 -36.5 35t-2.5 45q1 32 0 44q-2 16 -9 16h-214q-3 -2 -21 -16q-12 -11 -22 -11q-5 0 -10 2q-30 40 -25 107q2 5 9 5t9 3q6 -2 12 -2q21 0 46 35
q34 48 99 112q87 86 103 103q31 4 47.5 45t39.5 48q2 1 14 8.5t16 7.5q6 0 6 -11q-2 -16 -2 -33q0 -50 23 -114q22 -55 44 -109q17 -39 33 -78q20 -48 20 -69q0 -7 -2 -11zM499 270q-31 113 -62 175q-3 4 -8 2q-4 -2 -6 -7q1 -59 -3 -173q-4 -16 17 -18q21 1 41 2
q25 3 21 19zM335 400q-4 4 -9 4q-11 0 -52 -54q-5 -7 -48 -58q-29 -35 -28 -41q1 -8 57 -8q66 0 72 10q2 7 6 75t2 72z" />
    <glyph glyph-name="five" unicode="5" horiz-adv-x="420" 
d="M384 416q-2 0 -9 17.5t-22 14.5q-28 -5 -60 -5q-43 0 -137 16q-17 -1 -17 -40q0 -38 6 -50q12 -12 39 -14q34 -2 42 -5q119 -42 144 -130q5 -18 5 -36q0 -64 -66 -133q-64 -45 -220 -45q-28 0 -51 40q-20 33 -19 48q2 37 45 67q37 25 65 25q5 0 6 -2q0 -2 -24 -17.5
t-31 -25.5q-11 -12 -11 -15t4 -5q13 -7 29 -7q12 0 35 5t34 5q49 14 97 28q58 19 60 40q1 27 -61.5 54t-117.5 27q-13 0 -23 -2q-5 -11 -15 -11q-8 0 -25 11q-31 28 -31 73q0 14 3 29q2 22 -6 74q-8 56 -8 75q0 38 20 42q26 -5 121 -15q120 -13 185 -14q9 0 18.5 -30
t9.5 -57q0 -30 -14 -32z" />
    <glyph glyph-name="six" unicode="6" horiz-adv-x="430" 
d="M408 198q-25 -154 -129 -197q-8 -3 -17 -3q-17 0 -46 17q-21 -7 -44 -7q-58 0 -107 37q-46 63 -46 153q0 89 42 182q48 106 167 166q41 21 84 21q35 0 59 -15q12 -9 23.5 -19.5t13.5 -24.5q-3 1 -33 19q-20 12 -35 12q-10 0 -19 -4q-57 -24 -101 -89q-17 -25 -65 -119
q-8 -41 -17 -82q-10 -53 -10 -87q0 -80 55 -120q38 -2 71 33q12 12 50 65q18 38 18 83q0 15 -2 29q-14 10 -28 10q-10 0 -24.5 -6t-28.5 -12q-23 -17 -23 -33q0 -6 4 -12q3 -11 18.5 -24.5t17.5 -22.5q3 1 -20 4q-51 55 -73 90q0 54 57 74q22 10 49 10q43 0 80 -21
q26 -15 43 -44.5t16 -62.5z" />
    <glyph glyph-name="seven" unicode="7" horiz-adv-x="480" 
d="M450 333q-11 -20 -22.5 -42t-30 -31t-51.5 -13q-39 -5 -53 -9l-60 -126q-32 -75 -44 -135q-3 -7 -20 -5q-16 2 -20 7q-12 21 -17 59q-6 55 -8 63q-8 34 -15 68q-10 41 -22 67q-6 13 -37 17q-25 4 -22 26q4 8 4 35q-1 23 11 30q91 -13 194 -6q6 0 33 57q22 47 45 95
q4 6 0 12t-11 6q-130 0 -111 0q-61 -1 -106 -13q-10 -3 -17 -18t-16 -16q-11 24 -21 47q-12 28 -12 50q0 13 4 25q20 5 62 15q156 3 159 3q91 -1 157 -16q10 -23 20 -47q13 -30 13 -41q0 -6 -3 -7q-21 -9 -46 -56q-21 -39 -42 -79q-3 -4 -3 -8q0 -9 14 -8h46q26 1 42 10
q6 4 9 -3t-3 -13zM185 230q-5 5 -75 8q-4 0 -7 -1.5t-1 -5.5q17 -49 33 -76q3 -5 8 -5q12 0 28.5 38t13.5 42z" />
    <glyph glyph-name="eight" unicode="8" horiz-adv-x="460" 
d="M431 180q5 -92 -70 -140q-20 -13 -45 -13q-26 0 -79 22l-24 20q-15 12 -18 25q29 -5 38 -5q19 0 35 10q96 63 96 131q0 8 -1 15q-60 25 -78 25t-34 -10q-63 -50 -135 -121q12 -40 43.5 -70.5t72.5 -37.5q1 -3 1 -6q0 -8 -9.5 -12t-17.5 -7q-120 -4 -165 63q-20 20 -20 59
q0 16 5 53q18 60 104 132q-6 17 -31 44.5t-31 48.5q-5 17 -5 35q0 61 50 111q24 35 86 35q21 0 44 -4q29 -15 59 -31q37 -19 64 -26q30 -24 30 -69q0 -26 -10 -55q-7 -22 -35 -45q-31 -27 -40 -42q8 -15 33 -26q34 -15 39 -19q45 -44 48 -90zM313 481q3 8 3 16q0 21 -16 29
q-18 2 -41 -7l-38 -18q-50 -38 -60 -49q-30 -32 -25 -72q18 -29 47 -25q82 57 130 126z" />
    <glyph glyph-name="nine" unicode="9" horiz-adv-x="490" 
d="M452 259q-11 -81 -77 -150q-59 -62 -141 -98q-14 -6 -78 -16q-4 3 -50 19q-30 11 -28 35q34 28 105 62q79 38 107 57q55 38 81 91q0 8 -12 6q-51 -36 -61 -42q-37 -20 -72 -20q-9 0 -19 1q-91 0 -144 66q-27 48 -41 99q10 124 77 166q67 50 157 50q76 0 140 -36
q10 -8 11 -19q-1 0 -19 -1q-11 -1 -17 -8q0 -1 5 -17q82 -109 82 -196q0 -25 -6 -49zM382 326q5 20 5 41q0 65 -56 148q-35 0 -78 -18l-74 -34q-44 -37 -55 -48q-30 -31 -36 -65q43 -58 154 -58q87 0 140 34z" />
    <glyph glyph-name="colon" unicode=":" horiz-adv-x="250" 
d="M187 331q3 -63 -36 -81q-23 4 -44 19.5t-22 32.5q-2 39 26 77q7 2 14 2q18 0 35 -18q14 -16 27 -32zM181 86q-23 -40 -40 -40q-8 0 -19 4q-23 10 -48 27q3 50 14 82q7 12 29 12q14 0 22 -6q29 -24 31 -25q15 -16 15 -34q0 -9 -4 -20z" />
    <glyph glyph-name="semicolon" unicode=";" horiz-adv-x="250" 
d="M188 325q-5 -20 -11 -41t-25 -27q-20 2 -43 34q-12 62 -5 80q5 1 20 14q11 9 19 7q47 -25 47 -55q0 -6 -2 -12zM172 134q-12 -28 -72 -118q-20 -29 -60 -90q-3 -5 -18 -5t-11 5q26 43 45 107q15 56 30 111q3 11 34 16q36 7 43 11.5t11 4.5q7 0 7 -10q0 -11 -9 -32z" />
    <glyph glyph-name="less" unicode="&#x3c;" horiz-adv-x="420" 
d="M379 193l-5.5 -11.5t-5.5 -19.5q0 -4 1 -7q-2 -18 -27 -18q-14 0 -26 4q-63 29 -200 93q9 -6 19 -15q2 -4 -2 -4q-8 0 -32 13q-16 6 -33 13.5t-22 22.5q-3 9 4 20l14 22q8 -1 49 15q105 52 244 95q9 0 20 -8q2 -7 -5 -8t-6 -7q-9 -39 -46 -61q-41 -14 -158 -58l-1 -1
q0 -6 75 -30q53 -16 106 -33q5 -5 19 -6t18 -11z" />
    <glyph glyph-name="equal" unicode="=" horiz-adv-x="385" 
d="M320 317q0 -11 -26 -21t-53 -9q-169 6 -170 5q5 7 4.5 26t11.5 29q18 15 64 15q14 0 42 -1.5t41 -1.5q34 0 50 8q8 4 13 4q10 0 12 -19q2 -22 6.5 -25.5t4.5 -9.5zM322 199q0 -11 -26 -21t-53 -9q-169 6 -170 5q5 7 4.5 26t11.5 29q18 15 64 15q14 0 42 -1.5t41 -1.5
q34 0 50 8q8 4 13 4q10 0 12 -19q2 -22 6.5 -25.5t4.5 -9.5z" />
    <glyph glyph-name="greater" unicode="&#x3e;" horiz-adv-x="420" 
d="M378 264q-5 -15 -22 -22.5t-33 -13.5q-24 -13 -32 -13q-4 0 -2 4q1 3 19 15q-66 -30 -200 -93q-12 -4 -26 -4q-25 0 -27 18q1 3 1 7q0 8 -5.5 19.5l-5.5 11.5q4 10 18 11t19 6q53 17 106 33q75 24 75 30q0 1 -1 1q-57 21 -158 58q-37 22 -46 61q1 6 -6 7t-5 8
q2 4 8.5 5.5t11.5 2.5q139 -43 244 -95q19 -9 32 -11.5t17 -3.5l14 -22t4 -20z" />
    <glyph glyph-name="question" unicode="?" horiz-adv-x="350" 
d="M328 579q-22 -59 -87 -166q-7 -12 -55 -69q-33 -40 -40 -75l5 -5l84 28q49 17 77 45q11 0 11 -8q-31 -49 -61 -98q-41 -54 -94 -65q-67 7 -117 70q6 31 33 70q23 31 45 62q11 26 63 105q41 63 49 109q1 5 -3 9.5t-7 7.5q-108 -17 -170 -110q-4 -5 -4 -12q0 -10 10.5 -27
t10.5 -22q0 -8 -16 -10q-40 53 -46 85q14 119 150 194q30 10 60 10q25 0 43 -8q55 -25 59 -120zM199 39q-9 -34 -58 -53q-14 -4 -28 9q-23 21 -24 22q-16 10 -16 30q0 25 34 85q4 4 7 4q4 0 14 -27q8 -14 43 -28q30 -12 30 -30q0 -6 -2 -12z" />
    <glyph glyph-name="at" unicode="@" horiz-adv-x="830" 
d="M778 411q0 -109 -67.5 -192.5t-161.5 -83.5q-46 8 -46 51q0 19 22 129q-5 -2 -9 -3q-4 -4 -25 -29q-17 -21 -24 -27q-94 -81 -154 -81q-29 0 -55 14q-45 24 -45 98q0 12 1 28q7 11 5 29q41 83 104 141q73 66 151 72q58 -3 89 -48q22 -7 32 5q28 2 32 -35q-1 -27 -29 -134
q-25 -97 -21 -134q1 -8 7 -10q5 -1 13 0q11 1 10 1q47 27 80 79q40 63 40 136q0 94 -73 158t-173 64q-128 0 -233 -102t-105 -231q0 -103 81 -170.5t214 -67.5q109 0 250 88l35 -30q-94 -56 -143 -77q-82 -36 -150 -36q-157 0 -258 86q-96 82 -96 200q0 157 112 274
q114 121 276 121q134 0 224 -80.5t90 -202.5zM554 487q-11 13 -24 13q-12 0 -33 -14q-25 -15 -36 -18q-106 -82 -149 -169q-11 -22 -5 -38q72 -9 167 73q26 23 46 73q27 68 34 80z" />
    <glyph glyph-name="A" unicode="A" horiz-adv-x="810" 
d="M772 176q3 -8 -9 -11q-9 0 -29 3.5t-29 3.5q-23 0 -34 -16q14 -41 27 -82q18 -48 45 -74q2 -5 2 -12t-2 -12q-13 -10 -33 -10q-8 0 -51 8q-151 28 -386 104q-19 6 -28 6q-20 0 -27 -20q-6 -27 -21 -53q-19 -34 -41 -34q-19 0 -49 16.5t-30 25.5q0 11 12 33.5t13 32.5
q1 16 -16 28q-35 4 -70 61q-7 11 13 16q16 4 44 4q33 -1 45 1q27 4 40 21q52 158 211 493q1 3 6 3q13 0 55 -19q33 -15 66 -29q13 -5 13 -15q0 -3 -1.5 -9.5t-0.5 -9.5q3 -10 57 -189q34 -114 64 -183q12 -10 46 -14t47 -19q14 -3 28 -22q16 -23 23 -27zM538 250
q-9 14 -47 115q-40 108 -63 153q-10 15 -20 -2q-30 -49 -67 -151q-38 -106 -64 -151q-2 -4 0 -6q2 -1 7 0q70 19 167 28q-1 0 55 -1q34 -1 34 9q0 3 -2 6zM633 47q4 2 -9 32t-22 44q-18 27 -41 23q-84 -15 -270 -40q-26 0 -26 -8q0 -3 6 -8q87 -34 247 -49q11 0 34.5 -2.5
t35.5 -2.5q27 0 45 11z" />
    <glyph glyph-name="B" unicode="B" horiz-adv-x="660" 
d="M615 188q5 -17 5 -41q0 -40 -9 -55q-31 -40 -86 -64q-6 -2 -101 -34q-126 -10 -132 -10q-125 0 -167 83q-1 4 -13 37q-10 29 -10 40q0 12 9 10q9 -1 30.5 -26.5t39.5 -23.5q18 7 18 35q0 8 -3 32q1 40 -4 101q-6 85 -7 98q5 23 -19 32q-30 12 -35 22q-36 67 -44 81
q-26 45 -52 76q-10 18 -10 33q0 26 35 47l58 30q70 15 136 15q97 0 181 -32q8 -10 28.5 -16t27.5 -12q107 -55 110 -130q1 -26 -12 -60l-21 -57q-35 -43 -72 -73q7 -9 69 -61q46 -39 50 -77zM226 595q8 8 8 12q0 6 -13 6q-11 0 -26 -3q-25 -8 -49 -16q-28 -9 -28 -20
q-1 -47 21 -68q5 -8 14 -45q8 -29 23 -40q2 17 0 48q-3 44 -3 51q-1 42 53 75zM483 550q-29 37 -88 51q-29 8 -106 14q-10 1 -11 -8q-1 -15 3 -117q4 -112 4 -127q2 -19 13 -19q3 0 7 1q156 91 178 205zM503 201q1 11 -33 33q-23 14 -46 27q-17 12 -40 12q-10 0 -31.5 -3.5
t-32.5 -3.5q-12 0 -22 3q-5 1 -5 -23q0 -7 1 -29v-34q0 -53 -9 -79q-6 -17 26 -17q38 0 75 14q63 32 71 37q38 26 46 63z" />
    <glyph glyph-name="C" unicode="C" horiz-adv-x="570" 
d="M532 233q-5 -11 -12 -33q-20 -78 -84.5 -139t-145.5 -72q-35 -5 -65 -5q-93 0 -142 47q-62 85 -62 214q0 166 87 300q30 46 121 103q3 10 -6 13.5t-17 5.5q-20 0 -22 1q7 11 25 19t34 15q16 0 45 2.5t43 2.5q31 0 55 -9q13 6 28 6q40 0 82 -42q6 -5 6 -8q0 -4 -9 -8.5
t-10 -8.5q28 -49 28 -101q0 -47 -37 -85q-33 -35 -81 -48q-2 9 3 21q5 9 10 19q2 16 2 30q0 74 -50 119q-30 0 -57 -27q-40 -41 -45 -44q-63 -66 -100 -157q-38 -94 -38 -187q0 -16 1 -31q39 -29 98 -29q85 0 217 66q63 32 84 65q1 2 4 2q14 0 10 -17z" />
    <glyph glyph-name="D" unicode="D" horiz-adv-x="690" 
d="M648 312q5 -54 -10 -91q-9 -22 -39 -71q-33 -53 -48 -68q-104 -103 -264 -103q-80 0 -149 30q-27 15 -52 53q-22 35 -19 49q3 9 11 9q5 0 21 -8t24 -7h31q17 2 17 16q-1 46 -8 160q-6 99 -6 155q0 45 3 85q1 12 17 33.5t16 25.5q0 6 -11 6q-30 0 -65 -19q-38 -20 -36 -40
q2 -26 25 -84q21 -53 20 -86q-1 -4 -5 -3q-4 2 -5 7q-6 22 -55 130q-36 79 -36 134q0 19 3 36t34 31q70 31 151 31q149 0 288 -92q80 -53 116 -159q21 -60 31 -160zM582 314q-14 90 -89 163q-70 67 -163 95q-21 10 -39 10q-12 0 -15 -7q-21 -63 -9 -175q11 -101 0 -221
q-1 -11 -15.5 -35t-14.5 -30q0 -8 12 -8q188 24 291 123q14 17 27 34q16 22 16 39q0 6 -1 12z" />
    <glyph glyph-name="E" unicode="E" horiz-adv-x="680" 
d="M646 188q3 -6 3 -12q0 -14 -16 -34q-19 -25 -21 -29q-22 -53 -83 -74q-20 -8 -112 -22q-206 -32 -300 -28q-65 3 -82 41q-15 22 -15 52q0 23 8 42q19 48 54 48q-23 -26 -23 -42q0 -7 5 -10q21 -9 32 -9q8 0 15 4q9 9 8 26l-4 28q-1 5 -13 6t-20 -3q2 6 16 14t16 17t2 20
q0 18 -7.5 53.5t-8.5 52.5q-5 9 -24 15t-24 16q-2 7 -2 13q0 32 34 51q8 -1 22 22q2 10 2 22q0 16 -6 55q-6 36 -5 56q-7 6 -31 15q-19 8 -25 19q-11 55 -11 68q0 12 2 22q3 2 7 2q6 0 15 -6t12 -7q157 6 453 22q29 -6 41 -13q20 -10 26 -32q3 -12 3 -22q0 -30 -28 -48
q-16 -9 -59 -22.5t-58 -24.5q-66 -28 -203 -77q34 24 104 51q76 30 106 48q9 11 6 22q-7 10 -17 12q-135 -16 -195 -16q-21 0 -40 1q-13 -4 -13 -16q0 -7 7 -26.5t6 -27.5q-7 -19 -1 -43q1 -4 14 -6.5t12 -4.5q-8 -7 -20 -19q-4 -5 -1 -12q3 -9 12 -10q33 1 119 8
q72 5 117 5q48 0 93 -5q6 -4 7.5 -21.5t9.5 -22.5q-19 -38 -72 -51q-47 -9 -94 -17q-35 -9 -92 -34q-64 -28 -90 -37q-7 -40 -8 -83q-2 -46 5 -50q19 -7 44 -7q14 0 112 18q43 8 171 37q101 23 103 20zM331 320q-9 9 -26 9q-8 0 -31 -4q-19 -3 -28 -1q-19 4 -27 -7t-8 -29
q1 -22 10 -22q4 0 9 3q112 41 101 51z" />
    <glyph glyph-name="F" unicode="F" horiz-adv-x="650" 
d="M619 619q14 -15 -344 -194q-6 -3 -9 -39t4 -39q12 -2 25 -2q14 0 50 4q32 4 51 3q59 -4 127 16q3 2 10.5 13.5t12.5 11.5q2 0 4 -1q11 -9 11 -24q0 -4 -1 -12.5t-1 -12.5q0 -15 11 -23q4 -2 4 -16q0 -38 -20 -54q-12 -7 -36 -14q-6 0 -115 -6q-69 -4 -119 -2
q-10 0 -10 -24q0 -50 24.5 -80.5t24.5 -69.5q0 -27 -20 -44t-57 -17q-14 0 -55 5q-17 4 -18 34q-2 46 -4 52.5t-3 75.5q-1 64 -6 66q-27 10 -52 34q-30 28 -30 55q0 8 3 16q8 15 37 29q26 13 31 32q0 16 -2 48t-2 48q0 53 18 83q1 16 -17 18q-54 5 -89 72q-13 25 -27 34
q-3 3 7 13.5t16 9.5q4 -1 33 -18q6 -4 81 0q65 3 81 5q51 7 154 6.5t154 6.5q30 -4 40 -41q14 -49 23 -58zM498 588q-9 5 -109 5q-99 -1 -105 -5q-18 -19 -18 -48q0 -11 3 -34t3 -35q0 -11 -2 -21t3 -12q5 -3 16 1q51 30 150 88q61 36 61 56q0 3 -2 5zM151 349q3 17 -8 17
q-4 0 -8 -3q-19 -12 -19 -28q0 -13 23 -16q14 0 12 30z" />
    <glyph glyph-name="G" unicode="G" horiz-adv-x="740" 
d="M698 315l-12 -62q-10 -35 -28 -55q-8 -7 -22 -7q-5 0 -14.5 1t-13.5 1q-19 0 -26 -15q4 -14 4 -29q0 -16 -18 -73q-62 -90 -220 -90q-217 0 -297 156q-28 72 -28 153q0 103 44 186q48 91 136 133q10 5 47 11q29 6 29 12q0 3 -3 6q-20 11 -20 27q0 10 8 18q38 26 76 22
q71 -7 166 -56q50 -40 59 -50q29 -33 26 -74v-30q-1 -20 -12 -23q-4 -1 -9 -1q-18 0 -42 22q-30 27 -39 31q-23 12 -46 25q-29 15 -51 15q-11 0 -21 -3q-112 -36 -191 -139.5t-71 -211.5q4 -56 90 -89q70 -27 158 -29q106 -2 157 67q1 4 1 7q0 17 -21 22q-50 -2 -157 5
q-53 24 -68 85q1 25 1 49q6 29 34 26q23 2 44 2q64 0 103 -22q-7 -2 -22 3q-19 7 -25 8l-38 1q-24 0 -32 -15q3 -13 19 -15.5t30 -4.5q55 -4 158 -1q116 2 157 1z" />
    <glyph glyph-name="H" unicode="H" horiz-adv-x="810" 
d="M704 235q-40 -1 -41 -4q-7 -46 -6 -113q1 -62 6 -69q13 -19 13 -40q0 -10 -4 -19q-5 -12 -19 -12q-12 0 -24 7q-42 24 -92 52q-16 9 -6 24q2 1 17 21q0 92 -13 143q-49 9 -123 15q-106 9 -127 11q-6 -1 -9 -7t1 -10q27 -21 141 -99q86 -58 83 -63t-42 20q-31 21 -62 41
q-127 76 -137 73q-11 -3 -11 -29q0 -10 2.5 -35.5t1.5 -36.5q6 -27 4 -73t-8.5 -50t-12.5 -4q-13 0 -32 15q-24 18 -30 20q-42 17 -42 162q0 30 3 83q1 11 -23 23q-50 7 -66 60q-10 47 -19 94q0 4 4 7q2 0 6.5 -1.5t35.5 -13.5q25 -10 36 -10q8 0 10 5q14 41 14 108
q0 48 -7 110q-5 35 -9 69q-1 7 7 7q11 0 63 -28q23 -12 34 -22q20 -16 22 -35q0 -11 4 -63q3 -42 0 -75q-5 -71 -5 -70q0 -36 13 -39q162 -34 240 -34q43 0 46 6q1 3 1 7q2 186 14 344q4 5 12 5q7 0 11 -5q9 -7 39 -16q24 -8 34 -23q4 -32 4 -83q0 -45 -3.5 -121.5
t-3.5 -92.5q0 -19 2 -21q14 -14 68 -15q42 -1 38 -25q-2 -10 9 -25.5t11 -22.5q0 -9 -14 -18t-59 -9z" />
    <glyph glyph-name="I" unicode="I" horiz-adv-x="250" 
d="M209 205q-2 -16 -15 -56q-11 -36 -11 -57q0 -18 6 -34q5 -62 -20 -70q-9 -2 -18 -2q-26 0 -57 15q-26 13 -51 27q-6 12 -6 25q0 15 13.5 46.5t12.5 49.5q-2 35 -8 267q-4 160 -17 262q-3 21 33 25q3 0 7 -5.5t6 -5.5t6 7q1 -1 41 -24q25 -15 35 -33q11 -90 14 -212
q2 -108 4 -215q8 -3 25 -10z" />
    <glyph glyph-name="J" unicode="J" horiz-adv-x="510" 
d="M468 530q3 -33 3 -68q0 -171 -59 -352q-9 -50 -49 -109q-35 -48 -69 -96q-36 -30 -60 -39q-1 1 -10 16q-6 11 -13 11q-5 0 -11 -4q-11 -11 -31 -12q21 1 -34 3q-36 16 -54 59q-6 15 -21 81q2 62 8 83q11 44 46 63q7 1 22 7t22 6q9 0 15 -7q-12 -35 -12 -75q0 -89 51 -176
q8 -7 18 -7q14 0 19 13q82 213 82 496q0 82 -7 168q-11 25 -36 23q-138 -10 -203 -52q-3 -4 -3 -9q0 -10 14.5 -23.5t14.5 -16.5q0 -5 -19 -6q-60 30 -69 104q-4 31 25 53q27 15 54 31q37 17 57 17q46 0 93 1q52 -2 86 -18q8 6 20 6q17 0 31 -9q52 -42 79 -162z" />
    <glyph glyph-name="K" unicode="K" horiz-adv-x="610" 
d="M577 42q5 -34 -34 -58q-19 -6 -38 -6q-37 0 -83 28q-39 24 -77 48q-52 40 -155 117q-19 4 -19 -8q0 -2 1 -5q2 -110 -36 -169q-5 -8 -14 -8q-17 0 -36 18t-39.5 37.5t-25.5 42.5q-5 26 3 27q3 3 11 9q31 20 31 66q0 12 -3.5 43t-2.5 46q-9 12 -19 24.5t-10 25.5q0 8 4 17
q30 16 30 50q0 10 -3 32t-3 34q0 9 1 17q-5 87 -22 210q0 27 12 27q3 0 7 -1q68 -20 90 -103q11 -74 23 -148q-3 0 8 -2q8 -1 12 2q49 35 148 121q116 101 124 127v15q0 9 6 11q56 -33 77 -94q4 -25 -17 -49q-17 -20 -35 -40q-173 -158 -292 -240q-20 -9 -16 -33
q40 -41 111 -88q59 -38 119 -77q14 -4 22 9q2 14 -6 30q-13 23 -14 27q45 -27 91 -54q52 -35 69 -78z" />
    <glyph glyph-name="L" unicode="L" horiz-adv-x="600" 
d="M558 144q1 -14 -9 -33q-17 -32 -17 -33q0 8 4 -102q-33 -13 -68 1q-25 55 -110 55q-21 0 -69 -5q-43 -4 -61 -3l-10 -24q-6 -15 -20 -15q-53 8 -100 44t-70 86q-2 5 -2 8q0 21 26 14q6 0 20.5 -1.5t21.5 -1.5q22 0 28 14q-27 201 -27 256q0 73 16 132q5 19 24 36.5
t37 33.5q-4 10 -21 10q-3 0 -9 -1h-8q-12 0 -12 8q0 6 8 20q23 38 73 49q25 6 95 7q105 -17 133 -67q9 -27 4 -105q-1 -4 -4 -6q-4 -2 -5 1q-45 68 -175 76q-18 -13 -24 -42l-6 -50q-10 -78 -1 -225q-1 -44 6 -121q12 1 15 -13.5t16 -11.5q10 5 22 5q11 0 38 -7q24 -7 39 -5
q29 -2 59 -4q37 -2 61 2q30 18 41 52q6 20 8.5 65t9.5 65q1 2 -1 16q-1 11 5 11q3 0 7 -2q11 -26 0 -36q2 -8 2 -18q0 -14 -6 -43.5t-6 -42.5q0 -31 22 -49z" />
    <glyph glyph-name="M" unicode="M" horiz-adv-x="820" 
d="M618 532q-17 -88 -60 -198q-19 -49 -82 -189q-3 -9 1.5 -17.5t14.5 -7.5q22 5 31 34q15 46 16.5 48t3.5 2q4 0 3 -17q-2 -16 -5 -25q-9 -37 -19 -73q-12 -44 -33 -65q-2 -2 -5 -2q-6 0 -24.5 11.5t-28.5 11.5q-14 0 -23 -18q-1 -2 -4 -2q-12 0 -39 23t-31 36q-2 7 -2 14
q0 11 6.5 30.5t6.5 29.5q0 6 -2 12q-45 59 -129 180q-5 7 -13 7t-10 -7q-5 -38 -14 -110q-9 -92 -24 -140q-23 -74 -75 -113q-35 -6 -41 6q26 162 87 483q-42 68 -50 84q-24 49 -24 94q0 10 1 20q17 28 53 36q6 2 126 -193q130 -213 158 -246q9 -11 18 6q36 95 146 318
q21 29 45 29q19 -8 21 -42v-50zM773 -7q1 -15 -19 -22q-29 8 -58 17q-34 12 -49 36q-11 124 -8 336q3 246 -1 336q7 5 15 5q3 0 41 -16q4 -12 31 -30q24 -16 23 -35q-1 -47 -1 -95q0 -167 26 -532z" />
    <glyph glyph-name="N" unicode="N" horiz-adv-x="700" 
d="M658 227q7 -73 7 -101q0 -94 -43 -138q-17 -3 -34 -3q-95 0 -214 121q-26 22 -76 84q-48 59 -81 84q-12 -6 -12 -17q0 -6 3.5 -18t3.5 -19q0 -5 -2 -10q-9 -97 15 -172q-1 -4 -1 -8q0 -6 2 -16.5t2 -14.5q0 -14 -16 -19q-67 12 -108 42q-2 6 -6 16q-2 63 4 180
q6 132 6 185q0 31 -1 58q-76 95 -76 170q0 37 19 71q2 0 4 2t3 1h7q8 -10 17 -40q8 -26 23 -35q7 2 22 14.5t24 12.5q5 0 10 -2q36 -15 41 -69q2 -47 4 -93q29 -53 89 -122l100 -114q17 -12 59 -52q36 -35 62 -48q4 2 6.5 7t5.5 7q-2 195 -5 264q-6 146 -22 258q13 8 26 8
q15 0 39 -14q28 -16 39 -19q3 -10 20 -22q15 -92 11 -254q2 -38 -6 -102q-8 -70 -8 -98q0 -35 7 -64q19 -5 22 25q3 11 3 37t5 37z" />
    <glyph glyph-name="O" unicode="O" horiz-adv-x="700" 
d="M658 319q1 -10 1 -21q0 -31 -13 -73q-13 -34 -25 -69q-58 -48 -93 -48q-8 0 -17 2l-14 -54q-12 -30 -37 -38q-62 -39 -141 -39q-73 0 -129 33q-78 46 -120 130q-39 78 -39 172q0 42 8 84q17 87 63 156q51 77 124 108q13 9 65 18q41 6 54 35q73 4 135.5 -30t100.5 -96
q32 -30 65 -121q15 -93 12 -149zM528 389q-49 200 -177 225q-100 -42 -150 -156q-43 -97 -42 -224q34 -59 91 -93q36 -22 86 -22q69 0 127 37q13 14 13 32q0 14 -10 41t-11 39q2 7 6 7q6 0 14 -10q7 -35 28 -99q0 -10 8 -10t9 8q17 94 17 145q0 43 -9 80z" />
    <glyph glyph-name="P" unicode="P" horiz-adv-x="620" 
d="M577 480q10 -139 -73 -228q-129 -90 -245 -87q-20 -12 -5 -43q17 -35 30 -120q-11 -11 -31 -11q-15 0 -70 19q-35 19 -35 76v21q1 14 1 21q0 24 -5 40q-24 13 -48 25q-29 17 -31 43q1 30 1.5 61t7.5 56q11 -16 22 -31q16 -20 33 -20q4 0 9 1q1 2 3 4.5t3 3.5q2 19 2 43
q0 19 -2 59.5t-2 60.5q0 93 36 141q-10 11 -24 11q-12 0 -36 -11t-34 -12q-12 -7 -21 -25q10 -52 39 -151q-1 -1 -7 -1q-5 29 -38 95q-30 59 -30 93q0 26 13 49q69 50 171 50q79 0 181 -31q64 -26 114.5 -81.5t70.5 -120.5zM482 403q-17 57 -62 109q-43 49 -98 78
q-8 1 -25.5 9.5t-26.5 8.5t-16 -5q-3 -44 -2 -133t-2 -133q-8 -23 3 -38q26 -6 71 4q45 17 91 34q52 23 67 66z" />
    <glyph glyph-name="Q" unicode="Q" horiz-adv-x="680" 
d="M645 68q-21 -38 -31 -52q-19 -27 -43 -44q-28 -15 -64 -15q-28 0 -71 10q-60 14 -70 16q-30 5 -90 25.5t-90 25.5q-10 3 -19 -20t-21 -20q-5 1 -1.5 29.5t-14.5 33.5q-30 9 -60.5 43t-32.5 58q-6 69 -6 117q0 165 72 250q88 84 166 80q22 -1 50.5 -14t26.5 -19
q-5 -9 -20 -14q-21 -7 -25 -10q-81 -57 -130 -145t-49 -184q0 -38 8 -75q5 -24 22 -24q11 0 22.5 14.5t20.5 14.5q24 0 69.5 -15t68.5 -15t44 10q14 5 29.5 10.5t23.5 21.5q48 99 42 303q-29 144 -106 174q-21 14 -50 14q-20 0 -52 -8q-45 -10 -51 -11q-5 -2 -6 3q0 4 6 6
t94 36q57 23 95 23q48 0 88 -32q100 -79 117 -205q6 -42 6 -83q0 -202 -135 -290q13 -17 45 -23q26 -4 53 -9q49 -5 62 23q8 3 8 -4q1 -6 -1 -10z" />
    <glyph glyph-name="R" unicode="R" horiz-adv-x="660" 
d="M627 130q-5 -48 -39 -160q-26 -6 -22 -6q-8 0 -12 6q-70 34 -155 102q-71 57 -143 115q-14 3 -20 -7q-2 -48 -4 -97q-9 -56 -53 -71q-10 -6 -24 -6t-23 6q-2 25 2 75.5t4 72.5q-3 9 -3 22q0 12 4 39.5t4 39.5q0 49 -50 52q-10 8 -9 27q1 14 2.5 28t25.5 29q7 -6 13 -6
q10 0 16 12q3 12 3 30q0 6 -1 18v19q0 58 40 73q24 26 75 15q3 -2 3.5 -7t2.5 -7q2 -35 -6 -104q-8 -73 -7 -107q0 -5 -4 -14q58 -3 118 41q56 41 87 102q17 34 9 60q-94 68 -212 68q-93 0 -167 -46q-10 -6 -10 -19q0 -9 6 -27q1 -5 3 -14q-12 2 -30 34q-21 37 -21 76
q0 64 58.5 86t130.5 22q130 0 233 -65q119 -74 119 -178q0 -16 -3 -31q-8 -41 -54 -67q-41 -17 -83 -35q-25 -7 -62 -11q-32 -4 -63 -7q-14 -7 -5 -18q92 -72 281 -202q12 0 18.5 21.5t19.5 21.5q3 0 7 -1z" />
    <glyph glyph-name="S" unicode="S" horiz-adv-x="630" 
d="M574 645q2 -12 2 -24q0 -70 -64 -126q-10 3 -10 9q0 4 4.5 14.5t2.5 16.5q-5 43 -31 48q-35 7 -73 7q-137 0 -258 -81q-3 -2 -5.5 -10t-8.5 -7q-11 5 -22.5 11t-8.5 18q-1 8 -1 16q0 37 26 77q79 72 220 90q37 5 67 5q111 0 160 -64zM585 155q-24 -71 -106 -117
q-50 -28 -150 -57q-57 -9 -99 -9q-72 0 -126 26q-27 38 -74 112q-2 11 -2 21q0 56 71 100q61 24 104 19q-2 -9 -17.5 -15.5t-18.5 -11.5q-19 -27 -37 -54q-21 -32 -21 -59q34 -11 74 -11q61 0 151 29q122 40 191 114q4 19 -17 30q-19 6 -38 13q-89 14 -177 28
q-101 19 -161 62q-13 19 -26 37q-15 23 -15 42q0 11 4 21q27 -5 68 -27q45 -15 190 -32q118 -14 181 -54q50 -39 50 -97q0 -10 -2 -20q13 -12 13 -33q0 1 -10 -57z" />
    <glyph glyph-name="T" unicode="T" horiz-adv-x="570" 
d="M544 696q-4 -8 -14 -65q-6 -40 -37 -48q-87 -10 -138 -5q-4 -1 -6 -11q0 -2 6 -475l8 -36q6 -21 20 -31q-4 -19 -5 -21q-4 -12 -14 -15q-13 -2 -24 -2q-73 0 -125 61q-1 5 -1 11q0 15 14 43.5t14 43.5q0 7 -2 13q-16 95 -56 279q-5 13 -22 78q22 -11 31 -64
q11 -15 23 -69q11 -44 32 -57q4 19 4 53q-1 45 0 55q1 47 8 138q-1 2 -6 6q-123 -1 -205 16q-23 14 -23 47q0 13 4.5 38t4.5 34q3 4 10 9q4 1 6 1q7 0 9.5 -12t11.5 -14q50 -3 104 -3q113 0 353 19q8 2 11 -5z" />
    <glyph glyph-name="U" unicode="U" horiz-adv-x="620" 
d="M569 567q-5 -32 -21 -93t-21 -93q0 -124 5 -371q11 -31 0 -45q-27 5 -51 25t-26.5 44.5t-15.5 48.5q-12 1 -21 -13q-12 -18 -18 -22q-29 -32 -88 -41q-19 -3 -103 -6q-76 13 -135 76q-32 62 -36 169l-4 174q10 115 -5 267q-12 16 -12 23q0 8 11 8q10 0 30 -6l27 -8
q23 -19 36 -54q10 -31 21 -62l4 -216q2 -132 -2 -219q39 -26 99 -26q26 0 70 6q52 6 67 7q15 8 31.5 16.5t20.5 21.5q0 53 -2.5 156.5t-2.5 154.5q0 122 10 215q13 7 26 7q19 0 42 -15l38 -28q29 -21 29 -69q0 -14 -3 -32z" />
    <glyph glyph-name="V" unicode="V" horiz-adv-x="660" 
d="M626 627q-8 -70 -47 -166q-62 -151 -65 -160q-9 -21 -29 -61q-18 -31 -63 -94q-41 -57 -60 -92q4 -10 22 -3q5 11 10 23t18 13q12 4 12 -8q0 1 -3 -17q-31 -46 -33 -48q-21 -26 -48 -33q-7 -2 -13 -2q-14 0 -52 25q-4 0 -17 -3.5t-19 -3.5q-14 0 -20 12q-1 13 13.5 36.5
t14.5 35.5q0 8 -3 15q-73 163 -124 308q-30 94 -90 281v15q-1 9 6 10q4 1 7 1q6 0 6 -10t12 -9q78 -22 109 -83q28 -109 55 -217q34 -124 72 -211q1 -2 3 -2q6 0 36 63q77 162 175 423q7 8 11 35q2 22 20 29l16 -10q17 -10 32 -10q6 0 11 1q22 -3 24 -33q1 -25 1 -50z" />
    <glyph glyph-name="W" unicode="W" horiz-adv-x="900" 
d="M857 576q-6 -97 -38 -224q-30 -108 -61 -217l-34 -80q-23 -45 -61 -56q-6 -4 -9 -19q-2 -11 -15 -12q-33 5 -53 45q-15 32 -31 65q-21 48 -58 146q-6 17 -23 6q-17 -26 -41 -83t-41 -82q-5 -5 -16 -5h-11q-7 1 -10 1q-11 0 -11 -8q0 -4 3 -11q8 -20 3 -29q-15 -16 -45 -2
q-32 21 -47 58q-85 206 -101 264q-38 100 -119 299q-18 11 -18 28q0 9 12 12q89 10 125 -65q22 -45 49 -124q32 -89 46 -123q14 -43 28 -85q21 -66 22 -90q0 -12 9 -12q4 0 6 4q34 60 45 176q3 28 22 140q15 92 16 148q2 8 4.5 16t9.5 11q27 2 35 -22q8 -8 13 -45
q3 -29 23 -30q11 8 20 44q7 29 24 29q5 0 10 -1q25 -7 40 -41q12 -28 10 -46q-21 -60 -52 -150q-6 -17 -6 -32q0 -24 16 -46q2 -2 25.5 -86.5t36.5 -99.5q5 -5 10 -5q11 0 18 39q16 90 69 258q55 173 72 259q6 4 10 4q6 0 12.5 -9t10.5 -9t8 3q29 -11 36 -45q4 -19 2 -61z
M399 498q-3 0 -4 -6q-7 -46 -22 -135q-1 -13 6 -13t10 10q2 14 18 47t16 51q0 15 -9 30.5t-15 15.5z" />
    <glyph glyph-name="X" unicode="X" horiz-adv-x="700" 
d="M654 659q4 -5 4 -52q0 -92 -15 -142q0 -197 -31 -393q-3 -28 -7 -55q-6 -38 -22 -39q-50 -3 -104 41q-20 16 -83 82q-8 8 -45 54q-26 32 -32 32q-8 0 -92.5 -98t-113.5 -98q-12 0 -26 16.5t-25 16.5q-5 0 -11 -2.5t-8 -2.5q-4 0 -4 9q0 4 2 19.5t2 24.5q0 23 -9 33
q-3 3 -3 6q0 5 15 8q19 4 22 5l86 94q51 56 78 101q4 7 -62.5 129.5t-75.5 125.5q-10 1 -20 -12.5t-20 -10.5q3 19 21 39t36 38q27 17 45 17q16 0 28 -14q31 -38 62 -97q26 -52 53 -103q10 -13 32 -2q61 72 122 143q73 83 144 116q6 3 13 3q19 0 44 -32zM626 513
q-6 26 -23 27q-19 -11 -36.5 -33.5t-33.5 -43.5q-58 -79 -139 -187q68 -99 139 -163q33 -23 45 -23q53 167 48 423z" />
    <glyph glyph-name="Y" unicode="Y" horiz-adv-x="720" 
d="M682 668q-14 -150 -135 -245q-17 -19 -34.5 -67.5t-33.5 -68.5q-21 -41 -43 -82q-27 -47 -56 -71q-11 -9 -7 -25q2 -1 5.5 -3t5.5 -3l96 12q58 8 70 15q9 2 9 -1q0 -4 -19 -23t-23 -28q-18 -41 -58 -60q-30 -14 -81 -18q-40 -2 -81 -4q-81 4 -102 9q-61 13 -73 52
q-2 12 4 42q7 38 22 54q5 3 10 -15q6 -21 17 -24q7 -1 31 -9q20 -7 31 -7q13 0 23 7q13 11 24 39q10 23 19 46q8 12 16 25.5t8 23.5q0 8 -5 16q-13 -6 -27 -6q-48 0 -80 54q-28 48 -79 162q-48 107 -82 160q-14 -4 -21 -4q-13 0 3 23q20 30 20 36t8.5 11t15.5 5q32 -2 43 -4
q23 -6 34 -22q17 -12 27 -40q11 -31 18 -39l58 -146q37 -84 84 -134q26 1 37 28q7 23 14 47q44 130 59 160q44 92 113 136q19 15 48 15q14 0 42 -4q18 -7 25 -25zM634 598q-19 -19 -41.5 -68.5t-34.5 -61.5q-6 -6 -6 -10q0 -3 4 -3t11 5q19 25 58 75q21 26 21 60q0 8 -4 8
q-3 0 -8 -5z" />
    <glyph glyph-name="Z" unicode="Z" horiz-adv-x="800" 
d="M762 562q1 -8 -3 -23q-44 -39 -134 -101q-102 -71 -137 -99q-5 -15 8 -20q22 0 67 -1.5t68 -1.5q71 0 115 12q5 -7 5 -17l-11 -46q-5 -4 -14 -30q-7 -21 -25 -22q-21 -1 -67 -9q1 -10 14 -19t25 -17q53 -43 65 -139q-7 -24 -37 -31q-245 -12 -562 4q-7 -2 -35 -15
q-21 -10 -35 -10q-7 0 -14 2q-19 57 -19 69t4 24q2 2 18 14q17 2 50 6q45 34 91 69q54 41 86 75q-9 12 -40 23q-27 10 -34 29q-24 36 -21 90q27 8 56 8q75 0 163 -47q78 63 104 85q61 51 100 93q7 12 -9 16q-109 0 -219 -1q-129 2 -225 16q-30 -4 -44 16q-9 12 -16.5 46
t-15.5 47q24 -2 61 -14q68 -7 146 -7q156 0 387 32q30 -9 50 -45q17 -31 34 -61zM378 342q-13 2 -56 20q-33 14 -59 11q-5 -1 -14 -1q-10 1 -11 1q-5 -1 -3 -4q18 -28 61 -36q37 -3 74 -7q17 -3 17 4q0 5 -9 12zM684 131q-12 19 -39 39q-38 28 -42 32q-39 8 -112 12
q-76 5 -107 10q-29 5 -79 -36q-42 -35 -85 -71q-4 -3 -2 -8q1 -5 6 -6q72 5 204 5h60q112 0 177 3q19 -3 19 20z" />
    <glyph glyph-name="bracketleft" unicode="[" horiz-adv-x="289" 
d="M252 -112l-188 1v872h185v-55h-73v-763h76v-55z" />
    <glyph glyph-name="backslash" unicode="\" horiz-adv-x="450" 
d="M470 -36q0 -25 -16.5 -43t-41.5 -18q-10 0 -17 20q-34 99 -57 151q-35 76 -104 188l-187 302q-33 43 -33 76q0 52 5 52q1 -1 3 -2q114 -95 239 -304q209 -348 209 -422z" />
    <glyph glyph-name="bracketright" unicode="]" horiz-adv-x="289" 
d="M238 -111l-188 -1v55h77v763h-74v55h185v-872z" />
    <glyph glyph-name="asciicircum" unicode="^" horiz-adv-x="500" 
d="M429 284h-71l-98 239h-5l-140 -239h-68l201 338h38z" />
    <glyph glyph-name="underscore" unicode="_" horiz-adv-x="500" 
d="M500 -132h-500v57h500v-57z" />
    <glyph glyph-name="grave" unicode="`" horiz-adv-x="250" 
d="M232 468l1 -1q0 -4 -11.5 -9t-15.5 -2q-14 8 -58 36q-49 30 -116 77q-22 20 -22 31q0 8 15 7q9 -2 34 5t34 7t13 -5q8 -10 58 -78q31 -41 68 -68z" />
    <glyph glyph-name="a" unicode="a" horiz-adv-x="530" 
d="M492 100q-6 -54 -51 -141q-18 -23 -59 -11q-15 4 -19.5 22t-7.5 34q3 22 3 73q-1 47 4 73q-7 4 -14 4q-14 0 -31 -23q-22 -32 -25 -34q-97 -85 -163 -85q-29 0 -57 14q-48 30 -48 106q0 12 1 27q8 10 6 31q40 83 114 143q80 65 163 71q61 -3 94 -50q23 -6 34 5
q28 1 34 -37q-9 -165 -3 -216q6 -6 25 -6zM393 331q-11 13 -25 13q-12 0 -35 -14q-26 -16 -38 -19q-82 -64 -92 -73q-50 -46 -75 -96q-11 -23 -5 -40q10 -1 20 -1q86 0 165 69q27 24 49 76q28 72 36 85z" />
    <glyph glyph-name="b" unicode="b" horiz-adv-x="450" 
d="M402 126q-30 -68 -94 -108t-141 -37q-55 18 -48 41q2 7 -2 13t-10 5q-11 -3 -38 -24q-22 -17 -40 -14q-8 2 -9 20q-2 17 4 27q11 39 11 87q0 25 -7 100q-5 62 -2 101q5 65 9 130q8 72 31 121q6 3 27 20q17 13 28 13q9 0 18 -8q-12 -70 -18 -305q-1 -6 5 -9t10 3
q34 48 35 49q23 28 46 38q9 2 19 2q61 0 136 -92q38 -47 38 -115q0 -30 -8 -58zM296 157q3 13 3 27q0 60 -54 120q-22 11 -43 11q-17 0 -32 -8q-53 -41 -53 -120q0 -15 2.5 -32.5t8.5 -17.5q5 0 15 15q13 19 17 23t9 3q6 -1 3 -3q-20 -32 -28 -76q6 -21 28 -17q88 18 124 75
z" />
    <glyph glyph-name="c" unicode="c" horiz-adv-x="420" 
d="M390 171q2 -9 2 -19q0 -43 -46 -101q-74 -59 -166 -59q-58 0 -104 27q-58 42 -58 129q0 51 24 139q3 11 25.5 33.5t38.5 32.5q68 41 112 41q18 0 34 -6q1 1 18 17q11 11 20 11q8 0 16 -6q78 -58 78 -142q0 -17 -4 -33q-14 -11 -20 -11q-5 0 -9 5q-18 33 -27 45
q-18 24 -38 32q-70 -6 -132 -58q-58 -48 -84 -114q-4 -44 28 -47q15 -1 29 -1q110 0 263 85z" />
    <glyph glyph-name="d" unicode="d" horiz-adv-x="470" 
d="M434 599q2 -36 -16 -90q-21 -60 -22 -88q-2 -37 -2 -76q0 -38 17 -318q12 -22 12 -24q0 -5 -4 -9q-8 -6 -16 -6q-7 0 -20 5t-17 6q-49 29 -49 108v30q1 21 1 31q0 23 -3 40q0 3 -5 5q-6 1 -9 -3q-72 -133 -182 -197q-8 -2 -15 -2q-45 0 -75 64q-8 30 -8 61q0 75 45 145
q42 65 107 104q23 14 72 14q8 0 32 -26.5t34 -26.5t15 19q-4 25 -4 56q0 62 16 129q6 12 10 53q4 35 18 51q29 -16 38 -23q19 -14 30 -32zM318 277v21q-1 14 -14 18q-12 4 -23 0q-60 -30 -104 -74q-52 -53 -62 -108q-2 -14 8 -14q12 0 45 22l48 32q45 28 102 103z" />
    <glyph glyph-name="e" unicode="e" horiz-adv-x="470" 
d="M445 140q-24 -88 -104 -137q-42 -16 -91 -16q-63 0 -140 27q-80 29 -88 133q-9 121 97 193q4 3 52 27q31 16 46 37q9 13 40 13q32 0 58 -12q46 -22 75 -62q32 -45 27 -95q-2 -18 -12.5 -40t-18.5 -17q-16 21 -29 21q-5 0 -11 -2q-59 -24 -113 -24q-37 0 -103 13
q-11 3 -15.5 -5t-4.5 -17v-18q-1 -15 -1 -20q0 -42 37 -41q31 -3 63 -3q127 0 231 50q4 2 5 0q2 -2 0 -5zM321 280q6 3 6 9q0 17 -25 29t-49 23q-30 14 -48 14q-19 0 -48 -32q-15 -23 -15 -28q0 -9 10 -15q18 -6 91 -5q69 1 78 5z" />
    <glyph glyph-name="f" unicode="f" horiz-adv-x="340" 
d="M303 376q1 -9 1 -18q0 -24 -12 -68t-12 -68.5t-16 -60.5q-18 -40 -20 -59q-10 -6 -10 6q-1 10 4 21q11 33 21 83l16 86q2 32 -26 45q-13 4 -38 0q-28 -4 -28 -18q0 -26 -4 -94q-2 -61 -2 -96q0 -82 13 -139q-13 -28 -30 -28q-6 0 -12 3q-48 17 -57 73q-1 91 2 272
q-9 25 -29 23q5 0 -22 -3q-16 -2 -18 4q-9 25 -9 42q0 28 24 31q3 1 40 3q22 2 21 10q-4 25 -4 50q0 103 60 148q2 2 2 3q0 2 -20 16q-3 1 -7 1q-5 0 -15 -2t-14 -2q-6 0 -6 6q0 3 2 9q17 24 21 28q12 14 26 19q9 1 18 1q57 0 137 -54q2 -8 2 -16q0 -22 -14 -50
q-12 -23 -24 -47q-8 1 -8 9q0 4 4.5 15.5t3.5 15.5q-6 15 -25 25l-34 14q-8 3 -15 -16q0 -17 -3 -83q-2 -53 -2 -83q0 -10 30 -12q41 -3 49 -6q36 -14 39 -39z" />
    <glyph glyph-name="g" unicode="g" horiz-adv-x="530" 
d="M497 268q-1 -1 -2 10q-2 15 -10 17q-9 0 -11 -10q-1 -16 -2 -17l-8 -154q-7 -89 -37 -143q-2 -4 -2 -7q0 -5 10.5 -10.5t10.5 -12.5q0 -5 -3 -11q-51 -103 -230 -103q-21 0 -63 2q-24 1 -70.5 20t-49.5 27q-18 78 -18 97q0 22 7 43q1 2 2 2q3 0 16.5 -22.5t20.5 -26.5
q93 -36 176 -36q51 0 100 13q17 6 27 50q9 41 4 44q-7 4 -14 4q-10 0 -29 -14t-30 -16q-28 -6 -53 -6q-106 0 -186 107q-18 24 -23 45q-4 16 -4 32q0 82 79 134q118 52 186 52q46 0 82 -18q1 1 12 3q7 1 8 8l-1 32q-1 20 12 27q6 2 11 2q18 0 36 -21q14 -18 27 -35
q23 -38 23 -77q0 -16 -4 -31zM379 236q0 5 3 27q3 17 3 28q0 22 -10 35q-8 1 -17 1q-25 0 -57 -11q-27 -11 -54 -21l-82 -54q-46 -34 -65 -70q-11 -15 5 -27q53 -40 124 -40q48 0 128 22q15 4 19 43q1 34 3 67z" />
    <glyph glyph-name="h" unicode="h" horiz-adv-x="430" 
d="M392 -2q1 -4 -4 -6q-46 8 -55 11q-31 9 -46 29q-3 4 -10 21.5t-7 21.5q4 36 9 225q3 22 -31 22t-76.5 -37.5t-42.5 -53.5q-2 -26 -2 -114q1 -71 -9 -114q-9 -9 -21 -9q-10 0 -54 23q-24 12 -24 33q0 13 11.5 40.5t11.5 40.5q-1 15 -6 113q-4 72 -4 117q-2 103 2 315
q3 12 23 22q49 -16 64 -24q34 -18 46 -48q1 -35 -17 -87q-21 -59 -23 -86q0 -58 -5 -173q-1 -15 14 -15q4 0 7 3q21 36 41 72q25 43 53 61q10 1 39 7q24 5 38 5q24 0 43 -12t22 -43q1 -25 1 -51q1 -22 0 -155q-1 -94 12 -154z" />
    <glyph glyph-name="i" unicode="i" 
d="M189 578q-23 -20 -42 -56q-16 -32 -31 -63q-39 -1 -71 37q6 59 82 118q35 1 62 -36zM166 90q-33 -50 -84 -99q-3 -1 -6 -1q-11 0 -22 16q-19 128 -9 322q1 17 17 56q24 28 58 28q10 0 19 -3q0 -101 5 -303q4 -7 11 -9t11 3t6 5q9 0 -6 -15z" />
    <glyph glyph-name="j" unicode="j" horiz-adv-x="300" 
d="M245 521q-5 -2 -25 -20q-15 -14 -29 -14q-7 0 -16 4q-13 15 -26.5 31.5t-13.5 34.5q-5 30 18 54q22 14 59 9q15 -18 21.5 -45.5t11.5 -53.5zM242 372q15 -61 15 -158q0 -137 -18 -180q-11 -39 -21 -78q-20 -54 -65 -61q-9 -10 -18.5 -19.5t-24.5 -7.5q-44 5 -76 72
q-6 26 -6 53q0 72 60 185q3 -6 3 -12q0 -9 -8.5 -26t-8.5 -27q-2 -16 -2 -31q0 -80 52 -140q2 -2 4 -2q8 0 14 13q14 58 18 148l4 152q2 64 -11 170q39 5 89 -51z" />
    <glyph glyph-name="k" unicode="k" horiz-adv-x="470" 
d="M436 351q-35 -49 -88 -97q-52 -42 -103 -85q-15 -12 -15 -21q0 -4 3 -8q52 -38 162 -73q4 -2 13.5 2.5t11.5 4.5q5 0 8 -7q-12 -23 -23 -47q-14 -26 -33 -38q-139 59 -229 126q-22 -9 -30 -47q-9 -44 -20 -56q-30 -26 -45 -25l-6 6q0 20 3 56.5t3 52.5q0 17 -2 31
q-2 3 -13.5 9.5t-11.5 15.5q-2 14 11 27q16 18 19 24q-1 109 -1 218q-4 127 -24 210q12 5 30 2q14 -3 29 -6q53 -42 53 -145q0 -17 -1.5 -51.5t-1.5 -50.5q0 -19 1 -33q2 -20 0 -51q-4 -42 -4 -51q0 -5 4 -10q6 -8 7 -9q35 21 70 41q39 25 60 54q2 6 -2 11t-11 2
q-9 1 -18.5 -9.5t-18.5 -8.5q76 71 135 99q73 -22 78 -63z" />
    <glyph glyph-name="l" unicode="l" horiz-adv-x="220" 
d="M186 128q3 -12 -5 -29q-10 -24 -11 -28q-6 -29 -11 -41q-8 -21 -23 -34q-14 -2 -34.5 6.5t-30.5 8.5q-6 0 -11 -1q-24 91 -24 226q0 42 4 139q3 89 2 138q-1 14 7 37q8 40 65 64q9 4 19 0t12 -14q-18 -273 -9 -483q7 -12 14 -9q10 -2 18.5 10t17.5 10z" />
    <glyph glyph-name="m" unicode="m" horiz-adv-x="620" 
d="M582 21q4 -15 -30 -39.5t-45 -23.5q-46 4 -46 63q0 7 1 20v20q0 18 -3 30q-1 20 2 51q3 40 3 51q-4 13 -13 13q-5 0 -32 -21q-16 -25 -58.5 -67.5t-58.5 -69.5q-25 -17 -43 -4q-20 32 -20 77q0 13 2 41t2 43t-1 28q-10 21 -28 11q-44 -46 -78 -115q-19 -38 -52 -124
q-38 7 -54 56q-2 12 -2 24q0 13 2 26q8 221 4 315q40 2 70 -30q5 -4 9.5 -14t8.5 -14q0 -1 7 -84q5 -53 3 -88q0 -7 4 -7q3 0 8 5q7 17 23 50q27 59 90 144q10 11 25 11q11 0 38 -9q20 -10 23 -22q7 -17 6 -56v-58q3 -25 14 -24q6 1 55 41t80 47q43 2 61 -29q9 -32 9 -80
q0 -14 -1 -43.5t-1 -44.5q0 -62 16 -100z" />
    <glyph glyph-name="n" unicode="n" horiz-adv-x="470" 
d="M437 99q-16 -63 -82 -113q-6 -1 -12 -1q-27 0 -43 26q-23 52 -26 146q-4 138 -6 150q-5 14 -28 5q-73 -76 -107 -155q0 -94 -20 -168q-7 -2 -14 -2q-16 0 -36 11q-16 9 -33 19q-15 38 -2 90q8 35 8 83q0 22 -2 68t-2 69q-11 80 -11 87q61 7 92 -34q4 -6 12 -48
q5 -30 28 -28q69 84 168 78q36 -5 49 -39q13 -66 22 -252q6 -16 28 -9q3 2 6.5 11t6.5 9q2 0 4 -3z" />
    <glyph glyph-name="o" unicode="o" horiz-adv-x="450" 
d="M407 267q6 -3 6 -26q0 -79 -37 -140q-25 -42 -70 -71.5t-92 -34.5q-126 2 -165 81q-30 46 -30 104q0 102 75 172q64 60 158 57q3 -1 3 -3q0 -3 -3 -4q-66 -31 -92 -50q-49 -37 -54 -85q-3 -26 -3 -47q0 -96 56 -139q7 -3 17 -3q38 0 61 20q83 71 85 175q-1 10 -9.5 15.5
t-18.5 3.5q-13 -5 -56 -12q-34 -7 -54 -18q-13 -4 -15 10q-2 53 43 80q48 23 89 23q33 0 57 -15q23 -9 26.5 -46t22.5 -47z" />
    <glyph glyph-name="p" unicode="p" horiz-adv-x="490" 
d="M444 111q-30 -46 -90 -82t-113 -36q-12 0 -44 5q-27 3 -40 1q-11 -2 -11 -14q6 -25 8 -79q1 -59 5 -82q-4 -12 -13 -12q-4 0 -15.5 4t-16.5 3q-54 20 -54 85q0 14 2.5 44t2.5 44q0 13 -1 23q-30 34 -37 60q-2 5 -3 12q-1 8 0 12q1 6 6 3l10 -11q7 -9 14 -9q3 0 8 3t5 11
q-3 27 -9 155q-5 92 -16 153q-1 3 -10.5 9t-9.5 8q0 9 23 9t58 -29q20 -23 26 -71q7 -59 14 -76q1 -3 3 -3t17 25q9 15 21 53t23 53q17 25 46 29q60 -5 109.5 -36.5t73.5 -83.5q22 -78 22 -114t-14 -66zM354 263q-4 31 -40 40q-31 7 -62 13q-44 3 -70 -39q-12 -20 -34 -64
q-4 -108 3 -155q8 -3 17 -3q13 0 61 20q41 34 83 68q45 44 45 92q0 14 -3 28z" />
    <glyph glyph-name="q" unicode="q" horiz-adv-x="540" 
d="M503 172q-11 -40 -83 -364q-10 -9 -25 -9q11 0 -40 7q-26 9 -32 51q13 33 13 78q0 17 -2.5 52.5t-2.5 53.5q0 27 4 48q-6 3 -10 3q-11 0 -20 -15q-13 -22 -15 -24q-47 -45 -116 -45q-18 0 -36 3q-72 23 -98 71q-15 39 -15 82q0 67 36.5 125t96.5 85q107 48 129 42
q13 -5 27 -5q46 0 56 36q1 4 17 13t31 9q12 0 19 -8q1 -2 -6.5 -22t-7.5 -31q0 -10 5 -15q35 -31 35 -44q0 -6 -3 -12q-1 -2 -19 0q-17 2 -21 -11q1 -36 -4 -100q-4 -70 -4 -100q0 -32 3 -59q2 -5 7 -5h9q23 53 70 160q9 -5 9 -16q0 -5 -3.5 -17t-3.5 -17zM338 326
q2 5 -3 15q-8 2 -17 2q-33 0 -103 -54q-53 -41 -74 -103q-1 -5 -8 -33q-6 -23 -6 -36q0 -23 16 -35q100 -6 187 88q1 53 8 156z" />
    <glyph glyph-name="r" unicode="r" horiz-adv-x="320" 
d="M292 339q-15 -54 -56 -158q-2 -2 -4 -1t-1 5l16 44q9 28 9 47q0 16 -6 29q-4 8 -26 10t-38.5 -4t-28 -25.5t-9.5 -36.5q4 -38 1 -127q-3 -81 3 -126q-11 -5 -24 -5q-33 0 -67 30q-20 18 -20 46q0 25 15 44q3 34 3 70q0 114 -28 234q-1 5 0 11q2 6 7 5q8 -4 46 -10
q28 -4 39 -23q4 -6 11 -46q5 -35 17 -35q4 0 9 3t19 36q11 29 23 57q17 7 37 7q24 0 53 -11q10 -12 10 -31q0 -21 -10 -39z" />
    <glyph glyph-name="s" unicode="s" horiz-adv-x="430" 
d="M395 128q-2 -83 -76 -115q-36 -16 -89 -18h-90q-106 21 -121 86q-4 18 62 36q48 13 109 20q4 0 4 -2q0 -3 -4 -3q-122 -33 -121 -40q5 -16 24 -16q4 0 36 7q55 12 145 45q16 6 16 17q0 4 -3 6q-26 15 -91.5 26.5t-90.5 27.5q-42 24 -47 81q19 3 19 23v11q-1 7 -1 10
q0 11 4 18q42 70 152 70q33 0 68 -7q82 -28 90 -77q1 -3 -2 -3q-2 0 -16.5 7.5t-21.5 7.5q-146 -2 -211 -74q-2 -2 -2 -5q0 -10 22 -14q46 -7 93 -15q57 -11 89 -32q43 -27 54 -78z" />
    <glyph glyph-name="t" unicode="t" horiz-adv-x="300" 
d="M277 367q-3 -17 -6 -33q-4 -20 -14 -31q-9 -6 -25 -6h-12q-7 1 -11 1q-18 0 -19 -14q-3 -53 6 -131q4 -13 31 -52q24 -34 24 -54q0 -23 -25 -42q21 -21 -4 -21q-18 0 -37 7q-60 22 -88 64q-1 82 -5 245q-1 13 -34 3q-14 -8 -6 -22q11 -8 9 -15q-14 5 -28 11q-19 9 -20 25
q-3 43 14 79q7 6 23 6h25q16 2 20 18q1 5 -4 72q-7 74 -7 96q0 12 2.5 14t7.5 2q16 0 48.5 -19.5t35.5 -29.5q8 -24 8 -86q1 -55 4 -58q10 -7 24 -7q7 0 19.5 1.5t17.5 1.5q22 0 26 -25z" />
    <glyph glyph-name="u" unicode="u" horiz-adv-x="430" 
d="M399 335q-8 -21 -26 -63q-8 -124 11 -279q14 -16 7 -28q-21 -5 -65 5q-34 13 -45 34q-2 37 3 106q2 5 -1.5 10.5t-9.5 4.5q-17 -10 -43 -35q-33 -32 -44 -41q-9 -3 -31 -24q-18 -16 -34 -15q-41 28 -56 44q-29 30 -29 63q0 11 3 22q0 163 -8 225l-11 32q0 8 6 13
q30 0 81 -39q10 -41 11 -104v-109q6 -7 28 -2q49 45 99 90q56 57 62 114q6 14 20 14q10 0 24 -6.5t28 -12.5q16 -9 20 -19z" />
    <glyph glyph-name="v" unicode="v" horiz-adv-x="420" 
d="M393 359q5 -15 5 -30q0 -18 -7 -44q-6 -20 -12 -41q-20 -60 -57 -138q-33 -68 -66 -135q-37 -7 -77 51q1 6 1 11q0 19 -18 28t-35 17q-35 66 -63 159q-2 5 -45 166q-2 22 12 23q62 -19 90 -78q14 -31 31 -121q16 -81 39 -118q18 3 25 25t12 42q44 92 65 166q-7 12 -26 -2
q-14 -20 -43 -65q-5 4 -5 8t6 12.5t6 13.5q6 6 29 60q17 40 44 40q11 0 25 -6q49 -21 64 -44z" />
    <glyph glyph-name="w" unicode="w" horiz-adv-x="630" 
d="M597 324q-9 -118 -87 -247q-36 -59 -54 -77q-38 -39 -86 -32q-10 2 -23 16q3 9 14.5 27t13.5 29q-10 3 -32 -11t-30 -14q-14 0 -19 25t-16 60q-17 57 -18 59q-5 1 -17 3q-10 -17 -35 -73q-19 -46 -38 -67q-6 -2 -12 -2q-20 0 -31 20q-29 136 -99 360q1 1 1.5 6.5t5.5 5.5
q33 -3 65 -7q40 -5 42 -41q7 -17 22 -82q13 -53 31 -80q4 -5 14 -5q9 0 14 5q19 22 25 64q9 60 12 69q12 36 47 52q26 1 26 -28q0 -5 -1 -16t-1 -16q0 -15 5 -24q13 -59 36 -175q13 -14 21 -14q4 0 8 2q44 37 72 122q36 112 50 137q22 0 44 -14.5t30 -36.5z" />
    <glyph glyph-name="x" unicode="x" horiz-adv-x="520" 
d="M485 353q1 -68 -25 -156l-48 -148q-11 -39 -37 -47q-8 -2 -16 -2q-18 0 -37 16l-31 31q-4 4 -29 45q-17 28 -41 27q-24 -23 -49 -45q-28 -27 -39 -52q1 -6 9.5 -7t8.5 -5q0 -3 -1 -6q-11 -2 -33 -16.5t-34 -14.5q-9 0 -17 4q-43 54 -43 90q0 12 4 24q62 70 145 138
q-2 8 -28 75q-18 46 -18 79q0 19 5 37q3 10 12.5 15t18.5 10q17 2 17 -18v-8v-9q0 -12 4 -17q20 -40 27 -53q18 -30 38 -46q16 9 86 58q51 35 89 46q51 -17 62 -45zM451 288q-62 -28 -138 -95q0 -5 -2 -15q8 -19 33 -46q25 -30 32 -44q7 -4 12 -4q9 0 15.5 18.5t11.5 22.5
q12 36 24 71q13 42 13 73q0 10 -1 19z" />
    <glyph glyph-name="y" unicode="y" horiz-adv-x="430" 
d="M401 372q-10 -58 -39 -153q-34 -114 -43 -151q-18 -22 -37 -45q-22 -26 -45 -33q-9 4 -17 4q-19 0 -35 -29q-21 -40 -25 -44.5t-4 -9.5t5 -15.5t5 -15.5q0 -9 -14 -14q-68 -16 -76 -16q-27 0 -45 16q-13 8 -13 23q0 6 6 29q14 26 56 78q38 48 52 80q-6 19 -28 51.5
t-28 49.5q-29 76 -29 134q0 33 9 64l12 6q7 5 12 5t10 -3q8 -16 24 -73q40 -84 72 -120q3 -1 8 0q6 2 8 2q52 79 109 180q13 15 45 36q32 -8 45 -36zM337 226q-38 -56 -63 -113q-10 -22 11 -25q19 11 29 41l16 49q2 18 7 48z" />
    <glyph glyph-name="z" unicode="z" horiz-adv-x="490" 
d="M446 151q10 -22 10 -45q0 -25 -12 -42q-27 -56 -101 -73q-67 -7 -133 -15q-137 0 -155 1q-33 36 -33 90q0 11 3 21.5t14 14.5q21 5 49 22q38 24 46 28q-3 14 -22.5 25t-22.5 24q-7 25 0 45q30 -9 77 -9q75 1 78 1q32 24 95 76q2 3 2 7q0 12 -16 12q-41 1 -116 -4
q-78 -4 -118 -4q-33 0 -35 35q1 30 1 60q4 9 9 9q3 0 5 -3q2 -9 11 -10l18 -2h309q17 -10 23 -48l-3 -22l-66 -44q-39 -27 -58 -49q6 -17 17 -11q6 1 15 1q8 0 26 -1.5t27 -1.5q40 0 54 22q3 -8 3 -15q0 -25 -43 -66q4 -9 20.5 -13.5t21.5 -15.5zM415 115q11 6 11 17
q0 13 -11 21q-91 16 -220 9q-42 -22 -75 -67q21 -7 52 -7q14 0 48 3q29 2 44 1q38 2 75 4q49 3 76 19z" />
    <glyph glyph-name="braceleft" unicode="{" horiz-adv-x="304" 
d="M285 -132q-104 0 -146 23q-60 32 -60 125v185q0 38 -17 64q-14 20 -49 43q36 20 51 43.5t15 63.5v188q0 92 61 124q42 23 145 24v-55q-95 0 -95 -96v-185q0 -40 -13 -64t-47 -43q60 -33 60 -112v-180q0 -93 95 -93v-55z" />
    <glyph glyph-name="bar" unicode="|" 
d="M142 -133h-83v872h83v-872z" />
    <glyph glyph-name="braceright" unicode="}" horiz-adv-x="302" 
d="M297 308q-30 -22 -50 -45q-16 -22 -16 -62v-185q0 -92 -61 -124q-42 -23 -145 -24v55q95 0 95 93v180q0 77 60 112q-32 17 -46 40.5t-14 66.5v185q0 52 -21.5 73.5t-73.5 22.5v55q103 0 146 -23q60 -33 60 -125v-188q0 -42 14 -64t52 -43z" />
    <glyph glyph-name="asciitilde" unicode="~" horiz-adv-x="420" 
d="M361 315q-2 -45 -29.5 -75.5t-62.5 -30.5t-62 22t-43 22q-41 0 -46 -38q0 -3 -15.5 -4.5t-29.5 -0.5q-15 1 -15 5q3 55 40 82q29 22 68 22q21 0 47.5 -20t46.5 -20q27 0 36 15q2 4 6 24q0 3 30 2q29 0 29 -5z" />
    <glyph glyph-name="nonbreakingspace" unicode="&#xa0;" horiz-adv-x="300" 
 />
    <glyph glyph-name="exclamdown" unicode="&#xa1;" 
d="M158 646q2 -1 2 -6q0 -15 -9.5 -42t-18.5 -30t-23.5 16t-26.5 17q-6 0 -13.5 18t-7.5 32q0 9 4.5 13t7 20t11.5 21q4 2 7 2q14 0 34 -25q26 -31 33 -36zM157 384q-3 -47 -3 -122q1 -98 0 -123q-2 -82 -14 -138q-8 -15 -17 -16q2 1 -24.5 3t-59.5 25q7 80 26 228
q21 158 28 230q5 1 17 7t18 6q4 0 7 -1q17 -14 19 -47q2 -49 3 -52z" />
    <glyph glyph-name="cent" unicode="&#xa2;" horiz-adv-x="360" 
d="M325 310q2 -9 2 -19q0 -39 -36 -95q-39 -38 -90 -50v-13q0 -6 2 -58q2 -30 -4 -30q-1 0 -6 2.5t-8 3.5h-22q-12 1 -21 11q-15 17 -15 39q0 6 1.5 20t1.5 22q-30 8 -52 24q-45 39 -45 120q0 47 19 133q2 11 20 33t30 30q9 6 26 17q4 44 -6 65q-3 7 -3 12q0 10 19.5 12
t23 7t8.5 5q12 0 21.5 -26t9.5 -53v-1q6 -1 16 -4q2 2 14 16q9 11 16 11q6 0 12 -6q62 -55 62 -135q0 -16 -3 -31q-9 -11 -16 -11q-4 0 -7 4q-16 34 -21 43q-14 23 -30 30q-55 -5 -104 -54q-45 -46 -67 -108q-2 -42 23 -45q12 -1 24 -1q86 0 205 80z" />
    <glyph glyph-name="sterling" unicode="&#xa3;" horiz-adv-x="500" 
d="M455 132q-1 -12 -10 -29q-15 -27 -16 -30q-1 -32 -3 -92q-24 -11 -53 1q-16 49 -79 49q-16 0 -52 -4q-32 -4 -46 -3q-7 -11 -15 -23t-20 -12q-41 8 -75 40t-49 77q-1 4 -1 7q0 14 15 14q2 0 6 -0.5t15 -2t17 -1.5q17 0 23 13q-4 78 -7 119q-57 0 -52 8q5 7 5.5 25
t12.5 28t33 12q2 90 23 157q6 18 22 33l32 30q-2 9 -16 9q-3 0 -7 -1h-7q-10 0 -10 7q0 5 7 18q21 35 61 45q20 5 76 6q81 -17 101 -61q5 -23 -5 -94q0 -4 -3 -5q-2 -2 -4 0q-31 61 -132 69q-14 -12 -21 -38q-5 -22 -10 -45q-8 -72 -11 -129q74 -4 96 7q8 4 13 4q9 0 10 -18
q0 -22 4 -25.5t4 -8.5q0 -11 -26.5 -21.5t-52.5 -9.5q-20 0 -51 -1q-4 -53 -4 -109q5 -24 15 -24q4 0 9 1q10 2 66 -3q66 -6 87 -6q12 0 19 1q27 5 46 64q1 2 0 14q-1 10 4 10q2 0 5 -2q0 -1 6 -11.5t6 -15.5t-3 -8q-5 -11 2 -35z" />
    <glyph glyph-name="yen" unicode="&#xa5;" horiz-adv-x="630" 
d="M585 592q-12 -127 -115 -207q-15 -19 -28 -55q49 0 59 7q5 3 9 3q7 0 8 -14q2 -17 5.5 -20t3.5 -7q0 -9 -20 -16t-40 -6q-11 1 -50 -1q-2 -2 -4 -6q-10 -20 -16 -30q91 0 105 7q6 3 9 3q8 0 9 -14q1 -17 5 -20.5t4 -7.5q0 -8 -20 -15t-40 -6q-23 1 -101 -2
q-14 -27 -42 -65q-10 -8 -6 -23l10 -5q13 2 42 2q17 0 27 6q3 -2 5 -5l-18 -18q-13 -14 -15 -21q-19 -43 -49 -50q-37 -2 -75 -4q-36 1 -72 3q-38 6 -48 39q-2 16 5 43t18 38q5 3 8 -12q5 -19 13.5 -21t16 -4t10.5 -2q6 0 18 8q13 12 45 91q-76 -1 -124 0q-55 1 -53 5
q4 5 4 19.5t10 23.5t135 9q-24 10 -38 32q-114 2 -111 6q3 5 2.5 19.5t10 22t65.5 9.5q-26 57 -51 114q-31 69 -58 111q-12 -4 -17 -4q-12 0 2 20q17 25 16 32q0 4 7.5 8.5t13.5 4.5q28 -2 36 -4q20 -5 29 -19q15 -10 23 -33q9 -27 15 -33l50 -124q31 -72 71 -114
q22 1 31 23q6 21 12 41q35 106 52 140q38 76 96 113q24 14 73 7q17 -5 22 -22zM545 534q-17 -17 -36 -58.5t-30 -52.5q-5 -5 -5 -8q0 -7 13 1q16 21 50 64q17 22 17 52q0 6 -3 6q-2 0 -6 -4zM280 241v1l-1 -1h1z" />
    <glyph glyph-name="brokenbar" unicode="&#xa6;" horiz-adv-x="500" 
d="M475 79h-450v450h450v-450zM436 119v371h-371v-371h371z" />
    <glyph glyph-name="section" unicode="&#xa7;" horiz-adv-x="440" 
d="M399 664q1 -8 1 -17q0 -50 -44 -86q-6 2 -6 7q0 3 3 10t2 11q-5 28 -22 32q-25 5 -51 5q-92 0 -174 -55q-2 -1 -3.5 -6.5t-4.5 -5.5q-24 11 -22 21q-3 32 17 62q70 65 193 65q76 0 111 -43zM406 116q-27 -76 -173 -118q-36 -6 -65 -6q-50 0 -88 18q-18 25 -50 76
q-2 7 -2 14q0 38 49 68q40 15 70 13q-2 -7 -11 -11q-12 -5 -15 -8q-12 -18 -24 -37q-13 -22 -13 -39q22 -8 49 -8q41 0 104 20q80 25 128 77q3 13 -12 21q-12 4 -24 9q-61 9 -121 19q-70 13 -110 43q-9 12 -18 25.5t-9 26.5q0 8 3 16q28 -10 45 -21q34 -10 102 -18
q16 16 42 27q40 17 55 26q23 15 47 42q2 12 -12 19q-12 4 -24 9q-62 10 -89 14q-48 -10 -136 -67q-2 -2 -4 -7.5t-6 -5.5q-23 10 -21 19q-4 34 18 64q19 19 37 26l-30 18q-9 13 -18 27t-9 26q0 7 3 15q23 -3 45 -19q29 -9 130 -21q79 -10 123 -37q33 -25 33 -62q0 -8 -2 -16
q10 -8 10 -26q0 -7 -7 -42q-26 -34 -66 -53q4 -1 32 -15q33 -26 33 -63q0 -8 -2 -17q10 -8 10 -23q0 -3 -7 -38z" />
    <glyph glyph-name="dieresis" unicode="&#xa8;" horiz-adv-x="450" 
d="M166 515q-6 -19 -11 -38q-8 -20 -27 -26q-21 2 -41 30q-12 62 -5 80q5 1 20 14q11 9 19 7q47 -25 47 -55q0 -6 -2 -12zM358 515q-6 -19 -11 -38q-8 -20 -27 -26q-21 2 -41 30q-12 62 -5 80q5 1 20 14q11 9 19 7q47 -25 47 -55q0 -6 -2 -12z" />
    <glyph glyph-name="copyright" unicode="&#xa9;" horiz-adv-x="762" 
d="M704 328q2 -138 -94 -236t-232 -99q-138 -2 -236.5 95t-100.5 234t94 236t233 100t235.5 -96.5t100.5 -233.5zM656 328q-1 116 -86 198.5t-202 81.5q-115 -1 -198 -85.5t-82 -200.5t85.5 -198t202.5 -82q116 0 198.5 84t81.5 202zM519 267q-3 -7 -7 -20q-13 -47 -50 -83
q-40 -37 -88 -44q-20 -3 -38 -3q-56 0 -86 29q-37 50 -37 128q0 99 52 180q18 28 72 62q2 5 -13 11q-13 0 -14 1q2 3 36 20q-6 0 44 3q24 2 42 -5q8 3 16 3q24 0 50 -25q3 -3 3 -5t-5.5 -4.5t-5.5 -5.5q17 -29 17 -61q0 -28 -21 -50t-50 -29q-1 3 8 24q6 56 -29 89
q-18 0 -34 -16q-24 -24 -27 -26q-41 -44 -64 -103q-23 -62 -19 -122q24 -18 59 -18q50 0 130 40q38 19 51 39q2 3 5.5 -0.5t2.5 -8.5z" />
    <glyph glyph-name="minus" unicode="&#xad;" horiz-adv-x="385" 
d="M322 257q0 -11 -26 -21t-53 -9q-169 6 -170 5q5 7 4.5 26t11.5 29q18 15 64 15q14 0 42 -1.5t41 -1.5q34 0 50 8q8 4 13 4q10 0 12 -19q2 -22 6.5 -25.5t4.5 -9.5z" />
    <glyph glyph-name="minus" unicode="&#x2212;" horiz-adv-x="385" 
d="M322 257q0 -11 -26 -21t-53 -9q-169 6 -170 5q5 7 4.5 26t11.5 29q18 15 64 15q14 0 42 -1.5t41 -1.5q34 0 50 8q8 4 13 4q10 0 12 -19q2 -22 6.5 -25.5t4.5 -9.5z" />
    <glyph glyph-name="registered" unicode="&#xae;" horiz-adv-x="762" 
d="M704 328q2 -138 -94 -236t-232 -99q-138 -2 -236.5 95t-100.5 234t94 236t233 100t235.5 -96.5t100.5 -233.5zM656 328q-1 116 -86 198.5t-202 81.5q-115 -1 -198 -85.5t-82 -200.5t85.5 -198t202.5 -82q116 0 198.5 84t81.5 202zM555 200q-2 -21 -23 -96q-18 -3 -21 0
q-41 21 -92 61q-43 35 -86 69q-9 1 -12 -4l-2 -58q-6 -34 -33 -43q-5 -4 -14 -4t-14 4q-1 16 1 44q3 33 3 45q-2 6 -2 14q0 7 2.5 23.5t2.5 23.5q0 29 -30 31q-4 4 -5 10q-1 4 0 12q1 9 1 11q1 8 15 17q11 -8 18 4q0 24 1 47q1 28 24 37q15 15 45 9q0 -3 3 -9q2 -21 -3 -62
q-5 -44 -4 -64q0 -3 -3 -9q35 -1 70 24.5t53 61.5q11 21 6 36q-57 41 -127 41q-56 0 -101 -28q-9 -6 -2 -27q1 -1 1 -4t1 -5q-7 1 -18.5 22t-11.5 44q0 38 34.5 51.5t77.5 13.5q78 0 140 -39q72 -44 72 -107q0 -9 -2 -18q-5 -25 -33 -40q-24 -11 -49 -21q-11 -3 -75 -11
q-5 -3 -5 -7q0 -2 2 -4q40 -32 168 -121q7 0 11.5 14t15.5 11z" />
    <glyph glyph-name="macron" unicode="&#xaf;" horiz-adv-x="297" 
d="M267 462q0 -7 -11 -7h-218q-8 0 -8 7v39q0 7 8 7h220q9 0 9 -7v-39z" />
    <glyph glyph-name="macron" unicode="&#x2c9;" horiz-adv-x="297" 
d="M267 462q0 -7 -11 -7h-218q-8 0 -8 7v39q0 7 8 7h220q9 0 9 -7v-39z" />
    <glyph glyph-name="degree" unicode="&#xb0;" horiz-adv-x="250" 
d="M259 552q0 -40 -29.5 -68.5t-71.5 -28.5q-44 0 -75 30.5t-31 73.5q0 46 28 74.5t72 28.5t75.5 -32.5t31.5 -77.5zM204 555q0 52 -48 52q-47 0 -47 -49q0 -22 13.5 -36t35.5 -14q20 0 33 13.5t13 33.5z" />
    <glyph glyph-name="acute" unicode="&#xb4;" horiz-adv-x="250" 
d="M217 607q15 1 15 -7q0 -11 -22 -31q-18 -16 -116 -77q-13 -8 -58 -36q-4 -3 -15.5 2t-11.5 9q0 1 1 1q37 27 68 68q50 68 58 78q4 5 13 5t34 -7t34 -5z" />
    <glyph glyph-name="paragraph" unicode="&#xb6;" horiz-adv-x="530" 
d="M506 672q0 -8 -13 -11l-49 -2v-652q0 -12 -12 -12h-32q-12 0 -12 17v646q-21 0 -47 -2v-644q0 -17 -13 -17h-32q-11 0 -11 18v286q-244 17 -244 204q0 118 96 165q83 41 264 41h81q24 0 24 -12v-25z" />
    <glyph glyph-name="periodcentered" unicode="&#xb7;" horiz-adv-x="500" 
d="M306 317q-4 0 -14 2.5t-15 2.5q-9 0 -15 -7q-3 -2 -6 -2q-8 0 -16.5 10t-7.5 14q2 14 -2 44q-5 36 -5 46q0 23 12 27q11 3 42 -13q36 -19 41 -45q9 -25 9 -43q0 -14 -5.5 -25t-17.5 -11z" />
    <glyph glyph-name="periodcentered" unicode="&#x2219;" horiz-adv-x="500" 
d="M306 317q-4 0 -14 2.5t-15 2.5q-9 0 -15 -7q-3 -2 -6 -2q-8 0 -16.5 10t-7.5 14q2 14 -2 44q-5 36 -5 46q0 23 12 27q11 3 42 -13q36 -19 41 -45q9 -25 9 -43q0 -14 -5.5 -25t-17.5 -11z" />
    <glyph glyph-name="cedilla" unicode="&#xb8;" horiz-adv-x="241" 
d="M237 -79q0 -82 -161 -82q-20 0 -20 12q0 9 28 9t53.5 14.5t25.5 37.5q0 27 -67 44l44 44h51l-24 -14q70 -12 70 -65z" />
    <glyph glyph-name="questiondown" unicode="&#xbf;" horiz-adv-x="350" 
d="M255 675q16 -10 16 -30q0 -25 -34 -85q-4 -4 -7 -4q-4 0 -14 27q-8 14 -43 28q-30 12 -30 30q0 6 2 12q9 34 58 53q14 4 28 -9q23 -21 24 -22zM328 189q-14 -119 -150 -194q-30 -10 -60 -10q-25 0 -43 8q-55 25 -59 120q22 59 87 166q7 12 55 69q33 40 40 75q-1 2 -5 5
l-84 -28q-49 -17 -77 -45q-11 0 -11 8q31 49 61 98q41 54 94 65q67 -7 117 -70q-6 -31 -33 -70q-23 -31 -45 -62q-11 -26 -63 -105q-41 -63 -49 -109q-1 -5 3 -9.5t7 -7.5q108 17 170 110q4 5 4 12q0 10 -10.5 27t-10.5 22q0 8 16 10q40 -53 46 -85z" />
    <glyph glyph-name="Agrave" unicode="&#xc0;" horiz-adv-x="810" 
d="M772 176q3 -8 -9 -11q-9 0 -29 3.5t-29 3.5q-23 0 -34 -16q14 -41 27 -82q18 -48 45 -74q2 -5 2 -12t-2 -12q-13 -10 -33 -10q-8 0 -51 8q-151 28 -386 104q-19 6 -28 6q-20 0 -27 -20q-6 -27 -21 -53q-19 -34 -41 -34q-19 0 -49 16.5t-30 25.5q0 11 12 33.5t13 32.5
q1 16 -16 28q-35 4 -70 61q-7 11 13 16q16 4 44 4q33 -1 45 1q27 4 40 21q52 158 211 493q1 3 6 3q13 0 55 -19q33 -15 66 -29q13 -5 13 -15q0 -3 -1.5 -9.5t-0.5 -9.5q3 -10 57 -189q34 -114 64 -183q12 -10 46 -14t47 -19q14 -3 28 -22q16 -23 23 -27zM538 250
q-9 14 -47 115q-40 108 -63 153q-10 15 -20 -2q-30 -49 -67 -151q-38 -106 -64 -151q-2 -4 0 -6q2 -1 7 0q70 19 167 28q-1 0 55 -1q34 -1 34 9q0 3 -2 6zM633 47q4 2 -9 32t-22 44q-18 27 -41 23q-84 -15 -270 -40q-26 0 -26 -8q0 -3 6 -8q87 -34 247 -49q11 0 34.5 -2.5
t35.5 -2.5q27 0 45 11zM526 755l1 -1q0 -4 -11.5 -9t-15.5 -2q-14 8 -58 36q-49 30 -116 77q-22 20 -22 31q0 8 15 7q9 -2 34 5t34 7t13 -5q8 -10 58 -78q31 -41 68 -68z" />
    <glyph glyph-name="Aacute" unicode="&#xc1;" horiz-adv-x="810" 
d="M772 176q3 -8 -9 -11q-9 0 -29 3.5t-29 3.5q-23 0 -34 -16q14 -41 27 -82q18 -48 45 -74q2 -5 2 -12t-2 -12q-13 -10 -33 -10q-8 0 -51 8q-151 28 -386 104q-19 6 -28 6q-20 0 -27 -20q-6 -27 -21 -53q-19 -34 -41 -34q-19 0 -49 16.5t-30 25.5q0 11 12 33.5t13 32.5
q1 16 -16 28q-35 4 -70 61q-7 11 13 16q16 4 44 4q33 -1 45 1q27 4 40 21q52 158 211 493q1 3 6 3q13 0 55 -19q33 -15 66 -29q13 -5 13 -15q0 -3 -1.5 -9.5t-0.5 -9.5q3 -10 57 -189q34 -114 64 -183q12 -10 46 -14t47 -19q14 -3 28 -22q16 -23 23 -27zM538 250
q-9 14 -47 115q-40 108 -63 153q-10 15 -20 -2q-30 -49 -67 -151q-38 -106 -64 -151q-2 -4 0 -6q2 -1 7 0q70 19 167 28q-1 0 55 -1q34 -1 34 9q0 3 -2 6zM633 47q4 2 -9 32t-22 44q-18 27 -41 23q-84 -15 -270 -40q-26 0 -26 -8q0 -3 6 -8q87 -34 247 -49q11 0 34.5 -2.5
t35.5 -2.5q27 0 45 11zM511 901q15 1 15 -7q0 -11 -22 -31q-18 -16 -116 -77q-13 -8 -58 -36q-4 -3 -15.5 2t-11.5 9q0 1 1 1q37 27 68 68q50 68 58 78q4 5 13 5t34 -7t34 -5z" />
    <glyph glyph-name="Acircumflex" unicode="&#xc2;" horiz-adv-x="810" 
d="M772 176q3 -8 -9 -11q-9 0 -29 3.5t-29 3.5q-23 0 -34 -16q14 -41 27 -82q18 -48 45 -74q2 -5 2 -12t-2 -12q-13 -10 -33 -10q-8 0 -51 8q-151 28 -386 104q-19 6 -28 6q-20 0 -27 -20q-6 -27 -21 -53q-19 -34 -41 -34q-19 0 -49 16.5t-30 25.5q0 11 12 33.5t13 32.5
q1 16 -16 28q-35 4 -70 61q-7 11 13 16q16 4 44 4q33 -1 45 1q27 4 40 21q52 158 211 493q1 3 6 3q13 0 55 -19q33 -15 66 -29q13 -5 13 -15q0 -3 -1.5 -9.5t-0.5 -9.5q3 -10 57 -189q34 -114 64 -183q12 -10 46 -14t47 -19q14 -3 28 -22q16 -23 23 -27zM538 250
q-9 14 -47 115q-40 108 -63 153q-10 15 -20 -2q-30 -49 -67 -151q-38 -106 -64 -151q-2 -4 0 -6q2 -1 7 0q70 19 167 28q-1 0 55 -1q34 -1 34 9q0 3 -2 6zM633 47q4 2 -9 32t-22 44q-18 27 -41 23q-84 -15 -270 -40q-26 0 -26 -8q0 -3 6 -8q87 -34 247 -49q11 0 34.5 -2.5
t35.5 -2.5q27 0 45 11zM548 760q-7 -3 -20 -3q-12 1 -12 3q-25 0 -82 84q-1 2 -7 2q-4 1 -6 -1q-26 -28 -52 -55.5t-38 -29.5q-8 -2 -20.5 2.5t-12.5 8.5q0 12 112 155q1 2 17 -4q21 -8 26 -9t5 -7q30 -54 61 -106q6 -9 12 -19t17 -16q2 -4 0 -5z" />
    <glyph glyph-name="Atilde" unicode="&#xc3;" horiz-adv-x="810" 
d="M772 176q3 -8 -9 -11q-9 0 -29 3.5t-29 3.5q-23 0 -34 -16q14 -41 27 -82q18 -48 45 -74q2 -5 2 -12t-2 -12q-13 -10 -33 -10q-8 0 -51 8q-151 28 -386 104q-19 6 -28 6q-20 0 -27 -20q-6 -27 -21 -53q-19 -34 -41 -34q-19 0 -49 16.5t-30 25.5q0 11 12 33.5t13 32.5
q1 16 -16 28q-35 4 -70 61q-7 11 13 16q16 4 44 4q33 -1 45 1q27 4 40 21q52 158 211 493q1 3 6 3q13 0 55 -19q33 -15 66 -29q13 -5 13 -15q0 -3 -1.5 -9.5t-0.5 -9.5q3 -10 57 -189q34 -114 64 -183q12 -10 46 -14t47 -19q14 -3 28 -22q16 -23 23 -27zM538 250
q-9 14 -47 115q-40 108 -63 153q-10 15 -20 -2q-30 -49 -67 -151q-38 -106 -64 -151q-2 -4 0 -6q2 -1 7 0q70 19 167 28q-1 0 55 -1q34 -1 34 9q0 3 -2 6zM633 47q4 2 -9 32t-22 44q-18 27 -41 23q-84 -15 -270 -40q-26 0 -26 -8q0 -3 6 -8q87 -34 247 -49q11 0 34.5 -2.5
t35.5 -2.5q27 0 45 11zM556 868q6 -10 6 -25q0 -38 -23 -66q-17 -20 -49 -20q-31 0 -71 17q-20 11 -57 25q-5 1 -9 1q-16 0 -27 -20q-7 -11 -13 -23q-17 -4 -21 0q-7 11 -7 27q0 41 23 64q15 15 42 15q33 0 82 -22q48 -17 62 -17q17 0 28.5 22t12.5 22q16 5 21 0z" />
    <glyph glyph-name="Adieresis" unicode="&#xc4;" horiz-adv-x="810" 
d="M772 176q3 -8 -9 -11q-9 0 -29 3.5t-29 3.5q-23 0 -34 -16q14 -41 27 -82q18 -48 45 -74q2 -5 2 -12t-2 -12q-13 -10 -33 -10q-8 0 -51 8q-151 28 -386 104q-19 6 -28 6q-20 0 -27 -20q-6 -27 -21 -53q-19 -34 -41 -34q-19 0 -49 16.5t-30 25.5q0 11 12 33.5t13 32.5
q1 16 -16 28q-35 4 -70 61q-7 11 13 16q16 4 44 4q33 -1 45 1q27 4 40 21q52 158 211 493q1 3 6 3q13 0 55 -19q33 -15 66 -29q13 -5 13 -15q0 -3 -1.5 -9.5t-0.5 -9.5q3 -10 57 -189q34 -114 64 -183q12 -10 46 -14t47 -19q14 -3 28 -22q16 -23 23 -27zM538 250
q-9 14 -47 115q-40 108 -63 153q-10 15 -20 -2q-30 -49 -67 -151q-38 -106 -64 -151q-2 -4 0 -6q2 -1 7 0q70 19 167 28q-1 0 55 -1q34 -1 34 9q0 3 -2 6zM633 47q4 2 -9 32t-22 44q-18 27 -41 23q-84 -15 -270 -40q-26 0 -26 -8q0 -3 6 -8q87 -34 247 -49q11 0 34.5 -2.5
t35.5 -2.5q27 0 45 11zM358 815q-6 -19 -11 -38q-8 -20 -27 -26q-21 2 -41 30q-12 62 -5 80q5 1 20 14q11 9 19 7q47 -25 47 -55q0 -6 -2 -12zM550 815q-6 -19 -11 -38q-8 -20 -27 -26q-21 2 -41 30q-12 62 -5 80q5 1 20 14q11 9 19 7q47 -25 47 -55q0 -6 -2 -12z" />
    <glyph glyph-name="Aring" unicode="&#xc5;" horiz-adv-x="810" 
d="M772 176q3 -8 -9 -11q-9 0 -29 3.5t-29 3.5q-23 0 -34 -16q14 -41 27 -82q18 -48 45 -74q2 -5 2 -12t-2 -12q-13 -10 -33 -10q-8 0 -51 8q-151 28 -386 104q-19 6 -28 6q-20 0 -27 -20q-6 -27 -21 -53q-19 -34 -41 -34q-19 0 -49 16.5t-30 25.5q0 11 12 33.5t13 32.5
q1 16 -16 28q-35 4 -70 61q-7 11 13 16q16 4 44 4q33 -1 45 1q27 4 40 21q52 158 211 493q1 3 6 3q13 0 55 -19q33 -15 66 -29q13 -5 13 -15q0 -3 -1.5 -9.5t-0.5 -9.5q3 -10 57 -189q34 -114 64 -183q12 -10 46 -14t47 -19q14 -3 28 -22q16 -23 23 -27zM538 250
q-9 14 -47 115q-40 108 -63 153q-10 15 -20 -2q-30 -49 -67 -151q-38 -106 -64 -151q-2 -4 0 -6q2 -1 7 0q70 19 167 28q-1 0 55 -1q34 -1 34 9q0 3 -2 6zM633 47q4 2 -9 32t-22 44q-18 27 -41 23q-84 -15 -270 -40q-26 0 -26 -8q0 -3 6 -8q87 -34 247 -49q11 0 34.5 -2.5
t35.5 -2.5q27 0 45 11zM516 789q2 -1 2 -6q0 -25 -27 -49q-16 -14 -43 -14q-10 0 -30 2.5t-29 2.5q-13 0 -31 11q-23 14 -23 33q-16 14 -16 43q0 14 4 32q15 38 74 46q76 0 102 -42q11 -7 11 -21q0 -3 -1 -10t-1 -11q0 -11 8 -17zM497 789q0 4 -7 -2.5t-10 -6.5q-7 0 -2 2
q6 10 1 22q-12 37 -82 46q-15 0 -27 -12q-11 -19 -11 -32q0 -6 3 -9q38 -25 101 -26q34 -1 34 18z" />
    <glyph glyph-name="AE" unicode="&#xc6;" horiz-adv-x="1160" 
d="M1122 176q4 -7 4 -15q0 -13 -15 -34t-16 -26q-17 -53 -76 -74q-19 -7 -111 -22q-77 -12 -113 -17q-60 -8 -109 -10v-1q-1 0 -1 -1q-15 -9 -34 -9q-11 0 -26 3q-21 4 -25 4q-160 33 -358 104q-17 6 -27 6q-19 0 -32 -20q-14 -29 -35 -54q-28 -33 -51 -33q-19 0 -44 16.5
t-23 25.5q3 11 21.5 33.5t21.5 32.5q5 16 -9 28q-35 4 -53 61q-5 10 17 16q9 2 70 4q43 0 66 22q84 142 343 493q2 2 7 2q13 0 68 -28q126 5 367 19q29 -6 42 -13q22 -10 29 -32q5 -15 5 -28q0 -27 -26 -43q-15 -9 -58 -22q-39 -13 -53 -24q-64 -28 -196 -77q32 23 99 51
q73 30 102 48q8 12 4 22q-9 11 -18 12q-134 -16 -193 -16q-21 0 -41 1q-11 -4 -11 -14q0 -8 9 -28t9 -28q-6 -20 2 -43q2 -4 15 -6.5t12 -4.5q-7 -6 -18 -19q-4 -4 0 -12q3 -9 13 -10q33 1 118 8q72 5 116 5q49 0 94 -5q6 -4 9.5 -21.5t11.5 -22.5q-15 -38 -67 -51
q-46 -9 -93 -17q-35 -9 -89 -34q-61 -29 -86 -37q-3 -35 4.5 -82t15.5 -51q20 -7 43 -7q22 0 53 7q23 6 47 11q43 8 168 37q100 23 101 20zM553 250q-5 14 -15 115q-12 108 -23 153q-6 15 -21 -2q-43 -49 -107 -150q-67 -106 -105 -152q-2 -4 -1 -6q1 -1 7 0q75 19 174 28
q9 1 28 0q25 -1 32 -1q36 0 31 15zM796 308q-10 8 -27 8q-8 0 -31 -3q-19 -3 -28 -1q-18 3 -25.5 -7t-6.5 -29q4 -22 13 -22q3 0 8 3q107 41 97 51zM594 47q1 1 1 7q0 37 -12 69q-11 27 -35 23q-88 -15 -281 -40q-28 0 -28 -9q0 -3 4 -7q78 -34 234 -49q12 0 34.5 -2.5
t34.5 -2.5q27 0 48 11z" />
    <glyph glyph-name="Ccedilla" unicode="&#xc7;" horiz-adv-x="570" 
d="M532 233q-5 -11 -12 -33q-20 -79 -84 -138q-65 -63 -146 -73q-51 -7 -90 -4l-15 -11q70 -12 70 -65q0 -82 -161 -82q-20 0 -20 12q0 9 28 9t53.5 14.5t25.5 37.5q0 27 -67 44l44 47q-43 11 -75 40q-62 85 -62 214q0 166 87 300q30 46 121 103q3 10 -6 13.5t-17 5.5
q-20 0 -22 1q7 11 25 19t34 15q16 0 45 2.5t43 2.5q31 0 55 -9q13 6 28 6q40 0 82 -42q6 -5 6 -8q0 -4 -9 -8.5t-10 -8.5q28 -49 28 -101q0 -47 -37 -85q-33 -35 -81 -48q-2 9 3 21q5 9 10 19q2 16 2 30q0 74 -50 119q-30 0 -57 -27q-40 -41 -45 -44q-63 -66 -100 -157
q-38 -94 -38 -187q0 -16 1 -31q39 -29 98 -29q85 0 217 66q63 32 84 65q1 2 4 2q14 0 10 -17z" />
    <glyph glyph-name="Egrave" unicode="&#xc8;" horiz-adv-x="680" 
d="M646 188q3 -6 3 -12q0 -14 -16 -34q-19 -25 -21 -29q-22 -53 -83 -74q-20 -8 -112 -22q-206 -32 -300 -28q-65 3 -82 41q-15 22 -15 52q0 23 8 42q19 48 54 48q-23 -26 -23 -42q0 -7 5 -10q21 -9 32 -9q8 0 15 4q9 9 8 26l-4 28q-1 5 -13 6t-20 -3q2 6 16 14t16 17t2 20
q0 18 -7.5 53.5t-8.5 52.5q-5 9 -24 15t-24 16q-2 7 -2 13q0 32 34 51q8 -1 22 22q2 10 2 22q0 16 -6 55q-6 36 -5 56q-7 6 -31 15q-19 8 -25 19q-11 55 -11 68q0 12 2 22q3 2 7 2q6 0 15 -6t12 -7q157 6 453 22q29 -6 41 -13q20 -10 26 -32q3 -12 3 -22q0 -30 -28 -48
q-16 -9 -59 -22.5t-58 -24.5q-66 -28 -203 -77q34 24 104 51q76 30 106 48q9 11 6 22q-7 10 -17 12q-135 -16 -195 -16q-21 0 -40 1q-13 -4 -13 -16q0 -7 7 -26.5t6 -27.5q-7 -19 -1 -43q1 -4 14 -6.5t12 -4.5q-8 -7 -20 -19q-4 -5 -1 -12q3 -9 12 -10q33 1 119 8
q72 5 117 5q48 0 93 -5q6 -4 7.5 -21.5t9.5 -22.5q-19 -38 -72 -51q-47 -9 -94 -17q-35 -9 -92 -34q-64 -28 -90 -37q-7 -40 -8 -83q-2 -46 5 -50q19 -7 44 -7q14 0 112 18q43 8 171 37q101 23 103 20zM331 320q-9 9 -26 9q-8 0 -31 -4q-19 -3 -28 -1q-19 4 -27 -7t-8 -29
q1 -22 10 -22q4 0 9 3q112 41 101 51zM421 755l1 -1q0 -4 -11.5 -9t-15.5 -2q-14 8 -58 36q-49 30 -116 77q-22 20 -22 31q0 8 15 7q9 -2 34 5t34 7t13 -5q8 -10 58 -78q31 -41 68 -68z" />
    <glyph glyph-name="Eacute" unicode="&#xc9;" horiz-adv-x="680" 
d="M646 188q3 -6 3 -12q0 -14 -16 -34q-19 -25 -21 -29q-22 -53 -83 -74q-20 -8 -112 -22q-206 -32 -300 -28q-65 3 -82 41q-15 22 -15 52q0 23 8 42q19 48 54 48q-23 -26 -23 -42q0 -7 5 -10q21 -9 32 -9q8 0 15 4q9 9 8 26l-4 28q-1 5 -13 6t-20 -3q2 6 16 14t16 17t2 20
q0 18 -7.5 53.5t-8.5 52.5q-5 9 -24 15t-24 16q-2 7 -2 13q0 32 34 51q8 -1 22 22q2 10 2 22q0 16 -6 55q-6 36 -5 56q-7 6 -31 15q-19 8 -25 19q-11 55 -11 68q0 12 2 22q3 2 7 2q6 0 15 -6t12 -7q157 6 453 22q29 -6 41 -13q20 -10 26 -32q3 -12 3 -22q0 -30 -28 -48
q-16 -9 -59 -22.5t-58 -24.5q-66 -28 -203 -77q34 24 104 51q76 30 106 48q9 11 6 22q-7 10 -17 12q-135 -16 -195 -16q-21 0 -40 1q-13 -4 -13 -16q0 -7 7 -26.5t6 -27.5q-7 -19 -1 -43q1 -4 14 -6.5t12 -4.5q-8 -7 -20 -19q-4 -5 -1 -12q3 -9 12 -10q33 1 119 8
q72 5 117 5q48 0 93 -5q6 -4 7.5 -21.5t9.5 -22.5q-19 -38 -72 -51q-47 -9 -94 -17q-35 -9 -92 -34q-64 -28 -90 -37q-7 -40 -8 -83q-2 -46 5 -50q19 -7 44 -7q14 0 112 18q43 8 171 37q101 23 103 20zM331 320q-9 9 -26 9q-8 0 -31 -4q-19 -3 -28 -1q-19 4 -27 -7t-8 -29
q1 -22 10 -22q4 0 9 3q112 41 101 51zM414 900q15 1 15 -7q0 -11 -22 -31q-18 -16 -116 -77q-13 -8 -58 -36q-4 -3 -15.5 2t-11.5 9q0 1 1 1q37 27 68 68q50 68 58 78q4 5 13 5t34 -7t34 -5z" />
    <glyph glyph-name="Ecircumflex" unicode="&#xca;" horiz-adv-x="680" 
d="M646 188q3 -6 3 -12q0 -14 -16 -34q-19 -25 -21 -29q-22 -53 -83 -74q-20 -8 -112 -22q-206 -32 -300 -28q-65 3 -82 41q-15 22 -15 52q0 23 8 42q19 48 54 48q-23 -26 -23 -42q0 -7 5 -10q21 -9 32 -9q8 0 15 4q9 9 8 26l-4 28q-1 5 -13 6t-20 -3q2 6 16 14t16 17t2 20
q0 18 -7.5 53.5t-8.5 52.5q-5 9 -24 15t-24 16q-2 7 -2 13q0 32 34 51q8 -1 22 22q2 10 2 22q0 16 -6 55q-6 36 -5 56q-7 6 -31 15q-19 8 -25 19q-11 55 -11 68q0 12 2 22q3 2 7 2q6 0 15 -6t12 -7q157 6 453 22q29 -6 41 -13q20 -10 26 -32q3 -12 3 -22q0 -30 -28 -48
q-16 -9 -59 -22.5t-58 -24.5q-66 -28 -203 -77q34 24 104 51q76 30 106 48q9 11 6 22q-7 10 -17 12q-135 -16 -195 -16q-21 0 -40 1q-13 -4 -13 -16q0 -7 7 -26.5t6 -27.5q-7 -19 -1 -43q1 -4 14 -6.5t12 -4.5q-8 -7 -20 -19q-4 -5 -1 -12q3 -9 12 -10q33 1 119 8
q72 5 117 5q48 0 93 -5q6 -4 7.5 -21.5t9.5 -22.5q-19 -38 -72 -51q-47 -9 -94 -17q-35 -9 -92 -34q-64 -28 -90 -37q-7 -40 -8 -83q-2 -46 5 -50q19 -7 44 -7q14 0 112 18q43 8 171 37q101 23 103 20zM331 320q-9 9 -26 9q-8 0 -31 -4q-19 -3 -28 -1q-19 4 -27 -7t-8 -29
q1 -22 10 -22q4 0 9 3q112 41 101 51zM443 760q-7 -3 -20 -3q-12 1 -12 3q-25 0 -82 84q-1 2 -7 2q-4 1 -6 -1q-26 -28 -52 -55.5t-38 -29.5q-8 -2 -20.5 2.5t-12.5 8.5q0 12 112 155q1 2 17 -4q21 -8 26 -9t5 -7q30 -54 61 -106q6 -9 12 -19t17 -16q2 -4 0 -5z" />
    <glyph glyph-name="Edieresis" unicode="&#xcb;" horiz-adv-x="680" 
d="M646 188q3 -6 3 -12q0 -14 -16 -34q-19 -25 -21 -29q-22 -53 -83 -74q-20 -8 -112 -22q-206 -32 -300 -28q-65 3 -82 41q-15 22 -15 52q0 23 8 42q19 48 54 48q-23 -26 -23 -42q0 -7 5 -10q21 -9 32 -9q8 0 15 4q9 9 8 26l-4 28q-1 5 -13 6t-20 -3q2 6 16 14t16 17t2 20
q0 18 -7.5 53.5t-8.5 52.5q-5 9 -24 15t-24 16q-2 7 -2 13q0 32 34 51q8 -1 22 22q2 10 2 22q0 16 -6 55q-6 36 -5 56q-7 6 -31 15q-19 8 -25 19q-11 55 -11 68q0 12 2 22q3 2 7 2q6 0 15 -6t12 -7q157 6 453 22q29 -6 41 -13q20 -10 26 -32q3 -12 3 -22q0 -30 -28 -48
q-16 -9 -59 -22.5t-58 -24.5q-66 -28 -203 -77q34 24 104 51q76 30 106 48q9 11 6 22q-7 10 -17 12q-135 -16 -195 -16q-21 0 -40 1q-13 -4 -13 -16q0 -7 7 -26.5t6 -27.5q-7 -19 -1 -43q1 -4 14 -6.5t12 -4.5q-8 -7 -20 -19q-4 -5 -1 -12q3 -9 12 -10q33 1 119 8
q72 5 117 5q48 0 93 -5q6 -4 7.5 -21.5t9.5 -22.5q-19 -38 -72 -51q-47 -9 -94 -17q-35 -9 -92 -34q-64 -28 -90 -37q-7 -40 -8 -83q-2 -46 5 -50q19 -7 44 -7q14 0 112 18q43 8 171 37q101 23 103 20zM331 320q-9 9 -26 9q-8 0 -31 -4q-19 -3 -28 -1q-19 4 -27 -7t-8 -29
q1 -22 10 -22q4 0 9 3q112 41 101 51zM262 815q-6 -19 -11 -38q-8 -20 -27 -26q-21 2 -41 30q-12 62 -5 80q5 1 20 14q11 9 19 7q47 -25 47 -55q0 -6 -2 -12zM454 815q-6 -19 -11 -38q-8 -20 -27 -26q-21 2 -41 30q-12 62 -5 80q5 1 20 14q11 9 19 7q47 -25 47 -55
q0 -6 -2 -12z" />
    <glyph glyph-name="Igrave" unicode="&#xcc;" horiz-adv-x="250" 
d="M209 205q-2 -16 -15 -56q-11 -36 -11 -57q0 -18 6 -34q5 -62 -20 -70q-9 -2 -18 -2q-26 0 -57 15q-26 13 -51 27q-6 12 -6 25q0 15 13.5 46.5t12.5 49.5q-2 35 -8 267q-4 160 -17 262q-3 21 33 25q3 0 7 -5.5t6 -5.5t6 7q1 -1 41 -24q25 -15 35 -33q11 -90 14 -212
q2 -108 4 -215q8 -3 25 -10zM225 755l1 -1q0 -4 -11.5 -9t-15.5 -2q-14 8 -58 36q-49 30 -116 77q-22 20 -22 31q0 8 15 7q9 -2 34 5t34 7t13 -5q8 -10 58 -78q31 -41 68 -68z" />
    <glyph glyph-name="Iacute" unicode="&#xcd;" horiz-adv-x="250" 
d="M209 205q-2 -16 -15 -56q-11 -36 -11 -57q0 -18 6 -34q5 -62 -20 -70q-9 -2 -18 -2q-26 0 -57 15q-26 13 -51 27q-6 12 -6 25q0 15 13.5 46.5t12.5 49.5q-2 35 -8 267q-4 160 -17 262q-3 21 33 25q3 0 7 -5.5t6 -5.5t6 7q1 -1 41 -24q25 -15 35 -33q11 -90 14 -212
q2 -108 4 -215q8 -3 25 -10zM210 901q15 1 15 -7q0 -11 -22 -31q-18 -16 -116 -77q-13 -8 -58 -36q-4 -3 -15.5 2t-11.5 9q0 1 1 1q37 27 68 68q50 68 58 78q4 5 13 5t34 -7t34 -5z" />
    <glyph glyph-name="Icircumflex" unicode="&#xce;" horiz-adv-x="250" 
d="M209 205q-2 -16 -15 -56q-11 -36 -11 -57q0 -18 6 -34q5 -62 -20 -70q-9 -2 -18 -2q-26 0 -57 15q-26 13 -51 27q-6 12 -6 25q0 15 13.5 46.5t12.5 49.5q-2 35 -8 267q-4 160 -17 262q-3 21 33 25q3 0 7 -5.5t6 -5.5t6 7q1 -1 41 -24q25 -15 35 -33q11 -90 14 -212
q2 -108 4 -215q8 -3 25 -10zM254 760q-7 -3 -20 -3q-12 1 -12 3q-25 0 -82 84q-1 2 -7 2q-4 1 -6 -1q-26 -28 -52 -55.5t-38 -29.5q-8 -2 -20.5 2.5t-12.5 8.5q0 12 112 155q1 2 17 -4q21 -8 26 -9t5 -7q30 -54 61 -106q6 -9 12 -19t17 -16q2 -4 0 -5z" />
    <glyph glyph-name="Idieresis" unicode="&#xcf;" horiz-adv-x="250" 
d="M209 205q-2 -16 -15 -56q-11 -36 -11 -57q0 -18 6 -34q5 -62 -20 -70q-9 -2 -18 -2q-26 0 -57 15q-26 13 -51 27q-6 12 -6 25q0 15 13.5 46.5t12.5 49.5q-2 35 -8 267q-4 160 -17 262q-3 21 33 25q3 0 7 -5.5t6 -5.5t6 7q1 -1 41 -24q25 -15 35 -33q11 -90 14 -212
q2 -108 4 -215q8 -3 25 -10zM70 815q-6 -19 -11 -38q-8 -20 -27 -26q-21 2 -41 30q-12 62 -5 80q5 1 20 14q11 9 19 7q47 -25 47 -55q0 -6 -2 -12zM262 815q-6 -19 -11 -38q-8 -20 -27 -26q-21 2 -41 30q-12 62 -5 80q5 1 20 14q11 9 19 7q47 -25 47 -55q0 -6 -2 -12z" />
    <glyph glyph-name="Ntilde" unicode="&#xd1;" horiz-adv-x="700" 
d="M658 227q7 -73 7 -101q0 -94 -43 -138q-17 -3 -34 -3q-95 0 -214 121q-26 22 -76 84q-48 59 -81 84q-12 -6 -12 -17q0 -6 3.5 -18t3.5 -19q0 -5 -2 -10q-9 -97 15 -172q-1 -4 -1 -8q0 -6 2 -16.5t2 -14.5q0 -14 -16 -19q-67 12 -108 42q-2 6 -6 16q-2 63 4 180
q6 132 6 185q0 31 -1 58q-76 95 -76 170q0 37 19 71q2 0 4 2t3 1h7q8 -10 17 -40q8 -26 23 -35q7 2 22 14.5t24 12.5q5 0 10 -2q36 -15 41 -69q2 -47 4 -93q29 -53 89 -122l100 -114q17 -12 59 -52q36 -35 62 -48q4 2 6.5 7t5.5 7q-2 195 -5 264q-6 146 -22 258q13 8 26 8
q15 0 39 -14q28 -16 39 -19q3 -10 20 -22q15 -92 11 -254q2 -38 -6 -102q-8 -70 -8 -98q0 -35 7 -64q19 -5 22 25q3 11 3 37t5 37zM472 875q6 -10 6 -25q0 -38 -23 -66q-17 -20 -49 -20q-31 0 -71 17q-20 11 -57 25q-5 1 -9 1q-16 0 -27 -20q-7 -11 -13 -23q-17 -4 -21 0
q-7 11 -7 27q0 41 23 64q15 15 42 15q33 0 82 -22q48 -17 62 -17q17 0 28.5 22t12.5 22q16 5 21 0z" />
    <glyph glyph-name="Ograve" unicode="&#xd2;" horiz-adv-x="700" 
d="M658 319q1 -10 1 -21q0 -31 -13 -73q-13 -34 -25 -69q-58 -48 -93 -48q-8 0 -17 2l-14 -54q-12 -30 -37 -38q-62 -39 -141 -39q-73 0 -129 33q-78 46 -120 130q-39 78 -39 172q0 42 8 84q17 87 63 156q51 77 124 108q13 9 65 18q41 6 54 35q73 4 135.5 -30t100.5 -96
q32 -30 65 -121q15 -93 12 -149zM528 389q-49 200 -177 225q-100 -42 -150 -156q-43 -97 -42 -224q34 -59 91 -93q36 -22 86 -22q69 0 127 37q13 14 13 32q0 14 -10 41t-11 39q2 7 6 7q6 0 14 -10q7 -35 28 -99q0 -10 8 -10t9 8q17 94 17 145q0 43 -9 80zM463 755l1 -1
q0 -4 -11.5 -9t-15.5 -2q-14 8 -58 36q-49 30 -116 77q-22 20 -22 31q0 8 15 7q9 -2 34 5t34 7t13 -5q8 -10 58 -78q31 -41 68 -68z" />
    <glyph glyph-name="Oacute" unicode="&#xd3;" horiz-adv-x="700" 
d="M658 319q1 -10 1 -21q0 -31 -13 -73q-13 -34 -25 -69q-58 -48 -93 -48q-8 0 -17 2l-14 -54q-12 -30 -37 -38q-62 -39 -141 -39q-73 0 -129 33q-78 46 -120 130q-39 78 -39 172q0 42 8 84q17 87 63 156q51 77 124 108q13 9 65 18q41 6 54 35q73 4 135.5 -30t100.5 -96
q32 -30 65 -121q15 -93 12 -149zM528 389q-49 200 -177 225q-100 -42 -150 -156q-43 -97 -42 -224q34 -59 91 -93q36 -22 86 -22q69 0 127 37q13 14 13 32q0 14 -10 41t-11 39q2 7 6 7q6 0 14 -10q7 -35 28 -99q0 -10 8 -10t9 8q17 94 17 145q0 43 -9 80zM441 901
q15 1 15 -7q0 -11 -22 -31q-18 -16 -116 -77q-13 -8 -58 -36q-4 -3 -15.5 2t-11.5 9q0 1 1 1q37 27 68 68q50 68 58 78q4 5 13 5t34 -7t34 -5z" />
    <glyph glyph-name="Ocircumflex" unicode="&#xd4;" horiz-adv-x="700" 
d="M658 319q1 -10 1 -21q0 -31 -13 -73q-13 -34 -25 -69q-58 -48 -93 -48q-8 0 -17 2l-14 -54q-12 -30 -37 -38q-62 -39 -141 -39q-73 0 -129 33q-78 46 -120 130q-39 78 -39 172q0 42 8 84q17 87 63 156q51 77 124 108q13 9 65 18q41 6 54 35q73 4 135.5 -30t100.5 -96
q32 -30 65 -121q15 -93 12 -149zM528 389q-49 200 -177 225q-100 -42 -150 -156q-43 -97 -42 -224q34 -59 91 -93q36 -22 86 -22q69 0 127 37q13 14 13 32q0 14 -10 41t-11 39q2 7 6 7q6 0 14 -10q7 -35 28 -99q0 -10 8 -10t9 8q17 94 17 145q0 43 -9 80zM492 760
q-7 -3 -20 -3q-12 1 -12 3q-25 0 -82 84q-1 2 -7 2q-4 1 -6 -1q-26 -28 -52 -55.5t-38 -29.5q-8 -2 -20.5 2.5t-12.5 8.5q0 12 112 155q1 2 17 -4q21 -8 26 -9t5 -7q30 -54 61 -106q6 -9 12 -19t17 -16q2 -4 0 -5z" />
    <glyph glyph-name="Otilde" unicode="&#xd5;" horiz-adv-x="700" 
d="M658 319q1 -10 1 -21q0 -31 -13 -73q-13 -34 -25 -69q-58 -48 -93 -48q-8 0 -17 2l-14 -54q-12 -30 -37 -38q-62 -39 -141 -39q-73 0 -129 33q-78 46 -120 130q-39 78 -39 172q0 42 8 84q17 87 63 156q51 77 124 108q13 9 65 18q41 6 54 35q73 4 135.5 -30t100.5 -96
q32 -30 65 -121q15 -93 12 -149zM528 389q-49 200 -177 225q-100 -42 -150 -156q-43 -97 -42 -224q34 -59 91 -93q36 -22 86 -22q69 0 127 37q13 14 13 32q0 14 -10 41t-11 39q2 7 6 7q6 0 14 -10q7 -35 28 -99q0 -10 8 -10t9 8q17 94 17 145q0 43 -9 80zM493 861
q6 -10 6 -25q0 -38 -23 -66q-17 -20 -49 -20q-31 0 -71 17q-20 11 -57 25q-5 1 -9 1q-16 0 -27 -20q-7 -11 -13 -23q-17 -4 -21 0q-7 11 -7 27q0 41 23 64q15 15 42 15q33 0 82 -22q48 -17 62 -17q17 0 28.5 22t12.5 22q16 5 21 0z" />
    <glyph glyph-name="Odieresis" unicode="&#xd6;" horiz-adv-x="700" 
d="M658 319q1 -10 1 -21q0 -31 -13 -73q-13 -34 -25 -69q-58 -48 -93 -48q-8 0 -17 2l-14 -54q-12 -30 -37 -38q-62 -39 -141 -39q-73 0 -129 33q-78 46 -120 130q-39 78 -39 172q0 42 8 84q17 87 63 156q51 77 124 108q13 9 65 18q41 6 54 35q73 4 135.5 -30t100.5 -96
q32 -30 65 -121q15 -93 12 -149zM528 389q-49 200 -177 225q-100 -42 -150 -156q-43 -97 -42 -224q34 -59 91 -93q36 -22 86 -22q69 0 127 37q13 14 13 32q0 14 -10 41t-11 39q2 7 6 7q6 0 14 -10q7 -35 28 -99q0 -10 8 -10t9 8q17 94 17 145q0 43 -9 80zM298 815
q-6 -19 -11 -38q-8 -20 -27 -26q-21 2 -41 30q-12 62 -5 80q5 1 20 14q11 9 19 7q47 -25 47 -55q0 -6 -2 -12zM490 815q-6 -19 -11 -38q-8 -20 -27 -26q-21 2 -41 30q-12 62 -5 80q5 1 20 14q11 9 19 7q47 -25 47 -55q0 -6 -2 -12z" />
    <glyph glyph-name="multiply" unicode="&#xd7;" horiz-adv-x="385" 
d="M310 198q-9 -2 -21.5 -15.5t-28.5 -12.5q-23 1 -59 39q-55 -59 -65 -60q-3 0 -3 3q-2 8 -15.5 21t-12.5 29q2 22 43 63q-24 26 -40 30.5t-16 12.5q0 6 11 18.5t11 18.5q-2 14 12 14q16 0 40.5 -15.5t34.5 -30.5q26 27 30 42t12 15q6 0 18.5 -11t18.5 -11q14 2 14 -12
q0 -33 -37 -68q-3 -1 -3 -3q58 -57 58 -65q0 -2 -2 -2z" />
    <glyph glyph-name="Oslash" unicode="&#xd8;" horiz-adv-x="700" 
d="M474 523l-124 -162q-46 -65 -138 -191q19 -16 38 -29q37 -21 87 -21q69 0 126 36q13 14 13 32q0 14 -10 41t-11 39q2 7 6 7q6 0 14 -10q7 -35 28 -99q0 -10 8 -10t9 8q17 92 17 145q0 43 -9 80q-18 77 -54 134zM167 221q73 95 181 238q28 38 89 110q-37 35 -86 45
q-100 -42 -150 -156q-43 -97 -42 -224q2 -2 4.5 -6.5t3.5 -6.5zM90 110q-59 90 -59 206q0 41 8 82q18 88 63 156q51 77 124 108q13 9 65 18q41 6 54 35q99 5 175 -57q45 45 77 67q1 1 2 1q2 0 -4 -14q-6 -17 -6 -23q-2 -20 -32 -58q-1 -2 -4 -5q16 -16 28 -37
q32 -30 65 -121q15 -93 12 -149q1 -10 1 -21q0 -31 -13 -73q-13 -34 -25 -69q-58 -48 -93 -48q-8 0 -17 2l-14 -54q-12 -30 -37 -38q-61 -38 -139 -38q-73 0 -131 32q-29 16 -56 45q-23 -36 -34 -61l-2.5 -5.5t-6.5 -5.5q-17 1 -27.5 15.5t-9.5 32.5q2 21 36 77z" />
    <glyph glyph-name="Ugrave" unicode="&#xd9;" horiz-adv-x="620" 
d="M569 567q-5 -32 -21 -93t-21 -93q0 -124 5 -371q11 -31 0 -45q-27 5 -51 25t-26.5 44.5t-15.5 48.5q-12 1 -21 -13q-12 -18 -18 -22q-29 -32 -88 -41q-19 -3 -103 -6q-76 13 -135 76q-32 62 -36 169l-4 174q10 115 -5 267q-12 16 -12 23q0 8 11 8q10 0 30 -6l27 -8
q23 -19 36 -54q10 -31 21 -62l4 -216q2 -132 -2 -219q39 -26 99 -26q26 0 70 6q52 6 67 7q15 8 31.5 16.5t20.5 21.5q0 53 -2.5 156.5t-2.5 154.5q0 122 10 215q13 7 26 7q19 0 42 -15l38 -28q29 -21 29 -69q0 -14 -3 -32zM393 755l1 -1q0 -4 -11.5 -9t-15.5 -2
q-14 8 -58 36q-49 30 -116 77q-22 20 -22 31q0 8 15 7q9 -2 34 5t34 7t13 -5q8 -10 58 -78q31 -41 68 -68z" />
    <glyph glyph-name="Uacute" unicode="&#xda;" horiz-adv-x="620" 
d="M569 567q-5 -32 -21 -93t-21 -93q0 -124 5 -371q11 -31 0 -45q-27 5 -51 25t-26.5 44.5t-15.5 48.5q-12 1 -21 -13q-12 -18 -18 -22q-29 -32 -88 -41q-19 -3 -103 -6q-76 13 -135 76q-32 62 -36 169l-4 174q10 115 -5 267q-12 16 -12 23q0 8 11 8q10 0 30 -6l27 -8
q23 -19 36 -54q10 -31 21 -62l4 -216q2 -132 -2 -219q39 -26 99 -26q26 0 70 6q52 6 67 7q15 8 31.5 16.5t20.5 21.5q0 53 -2.5 156.5t-2.5 154.5q0 122 10 215q13 7 26 7q19 0 42 -15l38 -28q29 -21 29 -69q0 -14 -3 -32zM378 901q15 1 15 -7q0 -11 -22 -31
q-18 -16 -116 -77q-13 -8 -58 -36q-4 -3 -15.5 2t-11.5 9q0 1 1 1q37 27 68 68q50 68 58 78q4 5 13 5t34 -7t34 -5z" />
    <glyph glyph-name="Ucircumflex" unicode="&#xdb;" horiz-adv-x="620" 
d="M569 567q-5 -32 -21 -93t-21 -93q0 -124 5 -371q11 -31 0 -45q-27 5 -51 25t-26.5 44.5t-15.5 48.5q-12 1 -21 -13q-12 -18 -18 -22q-29 -32 -88 -41q-19 -3 -103 -6q-76 13 -135 76q-32 62 -36 169l-4 174q10 115 -5 267q-12 16 -12 23q0 8 11 8q10 0 30 -6l27 -8
q23 -19 36 -54q10 -31 21 -62l4 -216q2 -132 -2 -219q39 -26 99 -26q26 0 70 6q52 6 67 7q15 8 31.5 16.5t20.5 21.5q0 53 -2.5 156.5t-2.5 154.5q0 122 10 215q13 7 26 7q19 0 42 -15l38 -28q29 -21 29 -69q0 -14 -3 -32zM408 760q-7 -3 -20 -3q-12 1 -12 3q-25 0 -82 84
q-1 2 -7 2q-4 1 -6 -1q-26 -28 -52 -55.5t-38 -29.5q-8 -2 -20.5 2.5t-12.5 8.5q0 12 112 155q1 2 17 -4q21 -8 26 -9t5 -7q30 -54 61 -106q6 -9 12 -19t17 -16q2 -4 0 -5z" />
    <glyph glyph-name="Udieresis" unicode="&#xdc;" horiz-adv-x="620" 
d="M569 567q-5 -32 -21 -93t-21 -93q0 -124 5 -371q11 -31 0 -45q-27 5 -51 25t-26.5 44.5t-15.5 48.5q-12 1 -21 -13q-12 -18 -18 -22q-29 -32 -88 -41q-19 -3 -103 -6q-76 13 -135 76q-32 62 -36 169l-4 174q10 115 -5 267q-12 16 -12 23q0 8 11 8q10 0 30 -6l27 -8
q23 -19 36 -54q10 -31 21 -62l4 -216q2 -132 -2 -219q39 -26 99 -26q26 0 70 6q52 6 67 7q15 8 31.5 16.5t20.5 21.5q0 53 -2.5 156.5t-2.5 154.5q0 122 10 215q13 7 26 7q19 0 42 -15l38 -28q29 -21 29 -69q0 -14 -3 -32zM226 815q-6 -19 -11 -38q-8 -20 -27 -26
q-21 2 -41 30q-12 62 -5 80q5 1 20 14q11 9 19 7q47 -25 47 -55q0 -6 -2 -12zM418 815q-6 -19 -11 -38q-8 -20 -27 -26q-21 2 -41 30q-12 62 -5 80q5 1 20 14q11 9 19 7q47 -25 47 -55q0 -6 -2 -12z" />
    <glyph glyph-name="Yacute" unicode="&#xdd;" horiz-adv-x="720" 
d="M682 668q-14 -150 -135 -245q-17 -19 -34.5 -67.5t-33.5 -68.5q-21 -41 -43 -82q-27 -47 -56 -71q-11 -9 -7 -25q2 -1 5.5 -3t5.5 -3l96 12q58 8 70 15q9 2 9 -1q0 -4 -19 -23t-23 -28q-18 -41 -58 -60q-30 -14 -81 -18q-40 -2 -81 -4q-81 4 -102 9q-61 13 -73 52
q-2 12 4 42q7 38 22 54q5 3 10 -15q6 -21 17 -24q7 -1 31 -9q20 -7 31 -7q13 0 23 7q13 11 24 39q10 23 19 46q8 12 16 25.5t8 23.5q0 8 -5 16q-13 -6 -27 -6q-48 0 -80 54q-28 48 -79 162q-48 107 -82 160q-14 -4 -21 -4q-13 0 3 23q20 30 20 36t8.5 11t15.5 5q32 -2 43 -4
q23 -6 34 -22q17 -12 27 -40q11 -31 18 -39l58 -146q37 -84 84 -134q26 1 37 28q7 23 14 47q44 130 59 160q44 92 113 136q19 15 48 15q14 0 42 -4q18 -7 25 -25zM634 598q-19 -19 -41.5 -68.5t-34.5 -61.5q-6 -6 -6 -10q0 -3 4 -3t11 5q19 25 58 75q21 26 21 60q0 8 -4 8
q-3 0 -8 -5zM455 901q15 1 15 -7q0 -11 -22 -31q-18 -16 -116 -77q-13 -8 -58 -36q-4 -3 -15.5 2t-11.5 9q0 1 1 1q37 27 68 68q50 68 58 78q4 5 13 5t34 -7t34 -5z" />
    <glyph glyph-name="germandbls" unicode="&#xdf;" horiz-adv-x="373" 
d="M365 173q0 -55 -27.5 -103.5t-64.5 -68t-63 -19.5q-48 0 -89 65q-16 25 2 57q11 13 41 25q8 2 15 2q17 0 17 -8q0 -5 -8 -7q-32 -7 -42 -36q-2 -11 18 -14q16 -1 27 2q37 6 57 39q9 16 35 90q6 26 -26.5 55t-54.5 29q-26 0 -47 14q-24 16 -24 41q0 22 30 52q51 49 57 56
q-5 20 -42 20q-50 0 -80 -18q-8 -13 -6 -107q3 -83 5 -167q4 -10 8 -29q-1 -12 -5.5 -34t-4.5 -34q0 -13 3 -26q3 -53 -18 -62q-17 -4 -37 9q-16 12 -33 25q-3 9 -3 19q0 12 6 36t5 38q-2 50 0 181q2 115 -3 181q-4 49 -5 88q4 4 8 4q5 0 15 -8.5t16 -5.5q24 7 75 7
q36 0 86 -3.5t48 -3.5q19 0 36 -25.5t17 -46.5q0 -24 -9 -38q-8 -9 -45 -38q-29 -23 -45 -52q-5 -10 4 -10q3 0 13 2.5t13 1.5q54 -19 88 -64q37 -48 37 -111z" />
    <glyph glyph-name="agrave" unicode="&#xe0;" horiz-adv-x="530" 
d="M492 100q-6 -54 -51 -141q-18 -23 -59 -11q-15 4 -19.5 22t-7.5 34q3 22 3 73q-1 47 4 73q-7 4 -14 4q-14 0 -31 -23q-22 -32 -25 -34q-97 -85 -163 -85q-29 0 -57 14q-48 30 -48 106q0 12 1 27q8 10 6 31q40 83 114 143q80 65 163 71q61 -3 94 -50q23 -6 34 5
q28 1 34 -37q-9 -165 -3 -216q6 -6 25 -6zM393 331q-11 13 -25 13q-12 0 -35 -14q-26 -16 -38 -19q-82 -64 -92 -73q-50 -46 -75 -96q-11 -23 -5 -40q10 -1 20 -1q86 0 165 69q27 24 49 76q28 72 36 85zM372 468l1 -1q0 -4 -11.5 -9t-15.5 -2q-14 8 -58 36q-49 30 -116 77
q-22 20 -22 31q0 8 15 7q9 -2 34 5t34 7t13 -5q8 -10 58 -78q31 -41 68 -68z" />
    <glyph glyph-name="aacute" unicode="&#xe1;" horiz-adv-x="530" 
d="M492 100q-6 -54 -51 -141q-18 -23 -59 -11q-15 4 -19.5 22t-7.5 34q3 22 3 73q-1 47 4 73q-7 4 -14 4q-14 0 -31 -23q-22 -32 -25 -34q-97 -85 -163 -85q-29 0 -57 14q-48 30 -48 106q0 12 1 27q8 10 6 31q40 83 114 143q80 65 163 71q61 -3 94 -50q23 -6 34 5
q28 1 34 -37q-9 -165 -3 -216q6 -6 25 -6zM393 331q-11 13 -25 13q-12 0 -35 -14q-26 -16 -38 -19q-82 -64 -92 -73q-50 -46 -75 -96q-11 -23 -5 -40q10 -1 20 -1q86 0 165 69q27 24 49 76q28 72 36 85zM392 600q15 1 15 -7q0 -11 -22 -31q-18 -16 -116 -77q-13 -8 -58 -36
q-4 -3 -15.5 2t-11.5 9q0 1 1 1q37 27 68 68q50 68 58 78q4 5 13 5t34 -7t34 -5z" />
    <glyph glyph-name="acircumflex" unicode="&#xe2;" horiz-adv-x="530" 
d="M492 100q-6 -54 -51 -141q-18 -23 -59 -11q-15 4 -19.5 22t-7.5 34q3 22 3 73q-1 47 4 73q-7 4 -14 4q-14 0 -31 -23q-22 -32 -25 -34q-97 -85 -163 -85q-29 0 -57 14q-48 30 -48 106q0 12 1 27q8 10 6 31q40 83 114 143q80 65 163 71q61 -3 94 -50q23 -6 34 5
q28 1 34 -37q-9 -165 -3 -216q6 -6 25 -6zM393 331q-11 13 -25 13q-12 0 -35 -14q-26 -16 -38 -19q-82 -64 -92 -73q-50 -46 -75 -96q-11 -23 -5 -40q10 -1 20 -1q86 0 165 69q27 24 49 76q28 72 36 85zM415 459q-7 -3 -20 -3q-12 1 -12 3q-25 0 -82 84q-1 2 -7 2
q-4 1 -6 -1q-26 -28 -52 -55.5t-38 -29.5q-8 -2 -20.5 2.5t-12.5 8.5q0 12 112 155q1 2 17 -4q21 -8 26 -9t5 -7q30 -54 61 -106q6 -9 12 -19t17 -16q2 -4 0 -5z" />
    <glyph glyph-name="atilde" unicode="&#xe3;" horiz-adv-x="530" 
d="M492 100q-6 -54 -51 -141q-18 -23 -59 -11q-15 4 -19.5 22t-7.5 34q3 22 3 73q-1 47 4 73q-7 4 -14 4q-14 0 -31 -23q-22 -32 -25 -34q-97 -85 -163 -85q-29 0 -57 14q-48 30 -48 106q0 12 1 27q8 10 6 31q40 83 114 143q80 65 163 71q61 -3 94 -50q23 -6 34 5
q28 1 34 -37q-9 -165 -3 -216q6 -6 25 -6zM393 331q-11 13 -25 13q-12 0 -35 -14q-26 -16 -38 -19q-82 -64 -92 -73q-50 -46 -75 -96q-11 -23 -5 -40q10 -1 20 -1q86 0 165 69q27 24 49 76q28 72 36 85zM416 560q6 -10 6 -25q0 -38 -23 -66q-17 -20 -49 -20q-31 0 -71 17
q-20 11 -57 25q-5 1 -9 1q-16 0 -27 -20q-7 -11 -13 -23q-17 -4 -21 0q-7 11 -7 27q0 41 23 64q15 15 42 15q33 0 82 -22q48 -17 62 -17q17 0 28.5 22t12.5 22q16 5 21 0z" />
    <glyph glyph-name="adieresis" unicode="&#xe4;" horiz-adv-x="530" 
d="M492 100q-6 -54 -51 -141q-18 -23 -59 -11q-15 4 -19.5 22t-7.5 34q3 22 3 73q-1 47 4 73q-7 4 -14 4q-14 0 -31 -23q-22 -32 -25 -34q-97 -85 -163 -85q-29 0 -57 14q-48 30 -48 106q0 12 1 27q8 10 6 31q40 83 114 143q80 65 163 71q61 -3 94 -50q23 -6 34 5
q28 1 34 -37q-9 -165 -3 -216q6 -6 25 -6zM393 331q-11 13 -25 13q-12 0 -35 -14q-26 -16 -38 -19q-82 -64 -92 -73q-50 -46 -75 -96q-11 -23 -5 -40q10 -1 20 -1q86 0 165 69q27 24 49 76q28 72 36 85zM220 515q-6 -19 -11 -38q-8 -20 -27 -26q-21 2 -41 30q-12 62 -5 80
q5 1 20 14q11 9 19 7q47 -25 47 -55q0 -6 -2 -12zM412 515q-6 -19 -11 -38q-8 -20 -27 -26q-21 2 -41 30q-12 62 -5 80q5 1 20 14q11 9 19 7q47 -25 47 -55q0 -6 -2 -12z" />
    <glyph glyph-name="aring" unicode="&#xe5;" horiz-adv-x="530" 
d="M492 100q-6 -54 -51 -141q-18 -23 -59 -11q-15 4 -19.5 22t-7.5 34q3 22 3 73q-1 47 4 73q-7 4 -14 4q-14 0 -31 -23q-22 -32 -25 -34q-97 -85 -163 -85q-29 0 -57 14q-48 30 -48 106q0 12 1 27q8 10 6 31q40 83 114 143q80 65 163 71q61 -3 94 -50q23 -6 34 5
q28 1 34 -37q-9 -165 -3 -216q6 -6 25 -6zM393 331q-11 13 -25 13q-12 0 -35 -14q-26 -16 -38 -19q-82 -64 -92 -73q-50 -46 -75 -96q-11 -23 -5 -40q10 -1 20 -1q86 0 165 69q27 24 49 76q28 72 36 85zM417 496q2 -1 2 -6q0 -25 -27 -49q-16 -14 -43 -14q-10 0 -30 2.5
t-29 2.5q-13 0 -31 11q-23 14 -23 33q-16 14 -16 43q0 14 4 32q15 38 74 46q76 0 102 -42q11 -7 11 -21q0 -3 -1 -10t-1 -11q0 -11 8 -17zM398 496q0 4 -7 -2.5t-10 -6.5q-7 0 -2 2q6 10 1 22q-12 37 -82 46q-15 0 -27 -12q-11 -19 -11 -32q0 -6 3 -9q38 -25 101 -26
q34 -1 34 18z" />
    <glyph glyph-name="ae" unicode="&#xe6;" horiz-adv-x="800" 
d="M771 140q-24 -88 -104 -137q-41 -16 -90 -16t-110 17q-8 -14 -26 -45q-18 -23 -59 -11q-15 4 -19.5 22t-7.5 34q11 84 11 98q0 22 -7 22q-36 -1 -73 -33q-92 -80 -155 -80q-30 0 -59 15q-48 30 -48 106q0 12 1 27q8 10 6 31q40 83 114 143q80 65 163 71q61 -3 94 -50
q5 -6 13 -6t38 16q20 14 70 40q25 9 67 9q34 0 51 -8q46 -22 75 -62q32 -45 27 -95q-2 -18 -12.5 -40t-18.5 -17q-16 21 -29 21q-5 0 -11 -2q-59 -24 -102 -24q-28 0 -94 13q-11 3 -15.5 -5t-4.5 -17v-18q-1 -15 -1 -20q0 -42 37 -41q31 -3 61 -3q109 0 213 50q4 2 5 0
q2 -2 0 -5zM647 280q6 3 6 9q0 17 -25 29t-49 23q-30 14 -48 14q-19 0 -48 -32q-15 -23 -15 -28q0 -9 10 -15q18 -6 91 -5q69 1 78 5zM393 331q-12 14 -29 14q-15 0 -37 -13q-16 -11 -32 -21q-82 -64 -92 -73q-50 -46 -75 -96q-11 -23 -5 -40q10 -1 20 -1q86 0 165 69
q27 24 49 76q28 72 36 85z" />
    <glyph glyph-name="ccedilla" unicode="&#xe7;" horiz-adv-x="420" 
d="M390 171q2 -9 2 -19q0 -43 -46 -101q-77 -62 -173 -59l-21 -15q70 -12 70 -65q0 -82 -161 -82q-20 0 -20 12q0 9 28 9t53.5 14.5t25.5 37.5q0 27 -67 44l46 51q-32 8 -51 21q-58 41 -58 128q0 51 24 140q3 11 25.5 33.5t38.5 32.5q68 41 112 41q18 0 34 -6q1 1 18 17
q11 11 20 11q8 0 16 -6q78 -58 78 -142q0 -17 -4 -33q-14 -11 -20 -11q-5 0 -9 5q-18 33 -27 45q-18 24 -38 32q-70 -6 -132 -58q-58 -48 -84 -114q-4 -44 28 -47q15 -1 29 -1q110 0 263 85z" />
    <glyph glyph-name="egrave" unicode="&#xe8;" horiz-adv-x="470" 
d="M445 140q-24 -88 -104 -137q-42 -16 -91 -16q-63 0 -140 27q-80 29 -88 133q-9 121 97 193q4 3 52 27q31 16 46 37q9 13 40 13q32 0 58 -12q46 -22 75 -62q32 -45 27 -95q-2 -18 -12.5 -40t-18.5 -17q-16 21 -29 21q-5 0 -11 -2q-59 -24 -113 -24q-37 0 -103 13
q-11 3 -15.5 -5t-4.5 -17v-18q-1 -15 -1 -20q0 -42 37 -41q31 -3 63 -3q127 0 231 50q4 2 5 0q2 -2 0 -5zM321 280q6 3 6 9q0 17 -25 29t-49 23q-30 14 -48 14q-19 0 -48 -32q-15 -23 -15 -28q0 -9 10 -15q18 -6 91 -5q69 1 78 5zM358 468l1 -1q0 -4 -11.5 -9t-15.5 -2
q-14 8 -58 36q-49 30 -116 77q-22 20 -22 31q0 8 15 7q9 -2 34 5t34 7t13 -5q8 -10 58 -78q31 -41 68 -68z" />
    <glyph glyph-name="eacute" unicode="&#xe9;" horiz-adv-x="470" 
d="M445 140q-24 -88 -104 -137q-42 -16 -91 -16q-63 0 -140 27q-80 29 -88 133q-9 121 97 193q4 3 52 27q31 16 46 37q9 13 40 13q32 0 58 -12q46 -22 75 -62q32 -45 27 -95q-2 -18 -12.5 -40t-18.5 -17q-16 21 -29 21q-5 0 -11 -2q-59 -24 -113 -24q-37 0 -103 13
q-11 3 -15.5 -5t-4.5 -17v-18q-1 -15 -1 -20q0 -42 37 -41q31 -3 63 -3q127 0 231 50q4 2 5 0q2 -2 0 -5zM321 280q6 3 6 9q0 17 -25 29t-49 23q-30 14 -48 14q-19 0 -48 -32q-15 -23 -15 -28q0 -9 10 -15q18 -6 91 -5q69 1 78 5zM343 600q15 1 15 -7q0 -11 -22 -31
q-18 -16 -116 -77q-13 -8 -58 -36q-4 -3 -15.5 2t-11.5 9q0 1 1 1q37 27 68 68q50 68 58 78q4 5 13 5t34 -7t34 -5z" />
    <glyph glyph-name="ecircumflex" unicode="&#xea;" horiz-adv-x="470" 
d="M445 140q-24 -88 -104 -137q-42 -16 -91 -16q-63 0 -140 27q-80 29 -88 133q-9 121 97 193q4 3 52 27q31 16 46 37q9 13 40 13q32 0 58 -12q46 -22 75 -62q32 -45 27 -95q-2 -18 -12.5 -40t-18.5 -17q-16 21 -29 21q-5 0 -11 -2q-59 -24 -113 -24q-37 0 -103 13
q-11 3 -15.5 -5t-4.5 -17v-18q-1 -15 -1 -20q0 -42 37 -41q31 -3 63 -3q127 0 231 50q4 2 5 0q2 -2 0 -5zM321 280q6 3 6 9q0 17 -25 29t-49 23q-30 14 -48 14q-19 0 -48 -32q-15 -23 -15 -28q0 -9 10 -15q18 -6 91 -5q69 1 78 5zM380 459q-7 -3 -20 -3q-12 1 -12 3
q-25 0 -82 84q-1 2 -7 2q-4 1 -6 -1q-26 -28 -52 -55.5t-38 -29.5q-8 -2 -20.5 2.5t-12.5 8.5q0 12 112 155q1 2 17 -4q21 -8 26 -9t5 -7q30 -54 61 -106q6 -9 12 -19t17 -16q2 -4 0 -5z" />
    <glyph glyph-name="edieresis" unicode="&#xeb;" horiz-adv-x="470" 
d="M445 140q-24 -88 -104 -137q-42 -16 -91 -16q-63 0 -140 27q-80 29 -88 133q-9 121 97 193q4 3 52 27q31 16 46 37q9 13 40 13q32 0 58 -12q46 -22 75 -62q32 -45 27 -95q-2 -18 -12.5 -40t-18.5 -17q-16 21 -29 21q-5 0 -11 -2q-59 -24 -113 -24q-37 0 -103 13
q-11 3 -15.5 -5t-4.5 -17v-18q-1 -15 -1 -20q0 -42 37 -41q31 -3 63 -3q127 0 231 50q4 2 5 0q2 -2 0 -5zM321 280q6 3 6 9q0 17 -25 29t-49 23q-30 14 -48 14q-19 0 -48 -32q-15 -23 -15 -28q0 -9 10 -15q18 -6 91 -5q69 1 78 5zM184 515q-6 -19 -11 -38q-8 -20 -27 -26
q-21 2 -41 30q-12 62 -5 80q5 1 20 14q11 9 19 7q47 -25 47 -55q0 -6 -2 -12zM376 515q-6 -19 -11 -38q-8 -20 -27 -26q-21 2 -41 30q-12 62 -5 80q5 1 20 14q11 9 19 7q47 -25 47 -55q0 -6 -2 -12z" />
    <glyph glyph-name="igrave" unicode="&#xec;" 
d="M166 90q-33 -50 -84 -99q-3 -1 -6 -1q-11 0 -22 16q-19 128 -9 322q1 17 17 56q24 28 58 28q10 0 19 -3q0 -101 5 -303q4 -7 11 -9t11 3t6 5q9 0 -6 -15zM211 468l1 -1q0 -4 -11.5 -9t-15.5 -2q-14 8 -58 36q-49 30 -116 77q-22 20 -22 31q0 8 15 7q9 -2 34 5t34 7t13 -5
q8 -10 58 -78q31 -41 68 -68z" />
    <glyph glyph-name="iacute" unicode="&#xed;" 
d="M166 90q-33 -50 -84 -99q-3 -1 -6 -1q-11 0 -22 16q-19 128 -9 322q1 17 17 56q24 28 58 28q10 0 19 -3q0 -101 5 -303q4 -7 11 -9t11 3t6 5q9 0 -6 -15zM189 600q15 1 15 -7q0 -11 -22 -31q-18 -16 -116 -77q-13 -8 -58 -36q-4 -3 -15.5 2t-11.5 9q0 1 1 1q37 27 68 68
q50 68 58 78q4 5 13 5t34 -7t34 -5z" />
    <glyph glyph-name="icircumflex" unicode="&#xee;" 
d="M166 90q-33 -50 -84 -99q-3 -1 -6 -1q-11 0 -22 16q-19 128 -9 322q1 17 17 56q24 28 58 28q10 0 19 -3q0 -101 5 -303q4 -7 11 -9t11 3t6 5q9 0 -6 -15zM226 459q-7 -3 -20 -3q-12 1 -12 3q-25 0 -82 84q-1 2 -7 2q-4 1 -6 -1q-26 -28 -52 -55.5t-38 -29.5
q-8 -2 -20.5 2.5t-12.5 8.5q0 12 112 155q1 2 17 -4q21 -8 26 -9t5 -7q30 -54 61 -106q6 -9 12 -19t17 -16q2 -4 0 -5z" />
    <glyph glyph-name="idieresis" unicode="&#xef;" 
d="M166 90q-33 -50 -84 -99q-3 -1 -6 -1q-11 0 -22 16q-19 128 -9 322q1 17 17 56q24 28 58 28q10 0 19 -3q0 -101 5 -303q4 -7 11 -9t11 3t6 5q9 0 -6 -15zM40 515q-6 -19 -11 -38q-8 -20 -27 -26q-21 2 -41 30q-12 62 -5 80q5 1 20 14q11 9 19 7q47 -25 47 -55
q0 -6 -2 -12zM232 515q-6 -19 -11 -38q-8 -20 -27 -26q-21 2 -41 30q-12 62 -5 80q5 1 20 14q11 9 19 7q47 -25 47 -55q0 -6 -2 -12z" />
    <glyph glyph-name="ntilde" unicode="&#xf1;" horiz-adv-x="470" 
d="M437 99q-16 -63 -82 -113q-6 -1 -12 -1q-27 0 -43 26q-23 52 -26 146q-4 138 -6 150q-5 14 -28 5q-73 -76 -107 -155q0 -94 -20 -168q-7 -2 -14 -2q-16 0 -36 11q-16 9 -33 19q-15 38 -2 90q8 35 8 83q0 22 -2 68t-2 69q-11 80 -11 87q61 7 92 -34q4 -6 12 -48
q5 -30 28 -28q69 84 168 78q36 -5 49 -39q13 -66 22 -252q6 -16 28 -9q3 2 6.5 11t6.5 9q2 0 4 -3zM353 553q6 -10 6 -25q0 -38 -23 -66q-17 -20 -49 -20q-31 0 -71 17q-20 11 -57 25q-5 1 -9 1q-16 0 -27 -20q-7 -11 -13 -23q-17 -4 -21 0q-7 11 -7 27q0 41 23 64
q15 15 42 15q33 0 82 -22q48 -17 62 -17q17 0 28.5 22t12.5 22q16 5 21 0z" />
    <glyph glyph-name="ograve" unicode="&#xf2;" horiz-adv-x="450" 
d="M407 267q6 -3 6 -26q0 -79 -37 -140q-25 -42 -70 -71.5t-92 -34.5q-126 2 -165 81q-30 46 -30 104q0 102 75 172q64 60 158 57q3 -1 3 -3q0 -3 -3 -4q-66 -31 -92 -50q-49 -37 -54 -85q-3 -26 -3 -47q0 -96 56 -139q7 -3 17 -3q38 0 61 20q83 71 85 175q-1 10 -9.5 15.5
t-18.5 3.5q-13 -5 -56 -12q-34 -7 -54 -18q-13 -4 -15 10q-2 53 43 80q48 23 89 23q33 0 57 -15q23 -9 26.5 -46t22.5 -47zM323 468l1 -1q0 -4 -11.5 -9t-15.5 -2q-14 8 -58 36q-49 30 -116 77q-22 20 -22 31q0 8 15 7q9 -2 34 5t34 7t13 -5q8 -10 58 -78q31 -41 68 -68z
" />
    <glyph glyph-name="oacute" unicode="&#xf3;" horiz-adv-x="450" 
d="M407 267q6 -3 6 -26q0 -79 -37 -140q-25 -42 -70 -71.5t-92 -34.5q-126 2 -165 81q-30 46 -30 104q0 102 75 172q64 60 158 57q3 -1 3 -3q0 -3 -3 -4q-66 -31 -92 -50q-49 -37 -54 -85q-3 -26 -3 -47q0 -96 56 -139q7 -3 17 -3q38 0 61 20q83 71 85 175q-1 10 -9.5 15.5
t-18.5 3.5q-13 -5 -56 -12q-34 -7 -54 -18q-13 -4 -15 10q-2 53 43 80q48 23 89 23q33 0 57 -15q23 -9 26.5 -46t22.5 -47zM322 600q15 1 15 -7q0 -11 -22 -31q-18 -16 -116 -77q-13 -8 -58 -36q-4 -3 -15.5 2t-11.5 9q0 1 1 1q37 27 68 68q50 68 58 78q4 5 13 5t34 -7
t34 -5z" />
    <glyph glyph-name="ocircumflex" unicode="&#xf4;" horiz-adv-x="450" 
d="M407 267q6 -3 6 -26q0 -79 -37 -140q-25 -42 -70 -71.5t-92 -34.5q-126 2 -165 81q-30 46 -30 104q0 102 75 172q64 60 158 57q3 -1 3 -3q0 -3 -3 -4q-66 -31 -92 -50q-49 -37 -54 -85q-3 -26 -3 -47q0 -96 56 -139q7 -3 17 -3q38 0 61 20q83 71 85 175q-1 10 -9.5 15.5
t-18.5 3.5q-13 -5 -56 -12q-34 -7 -54 -18q-13 -4 -15 10q-2 53 43 80q48 23 89 23q33 0 57 -15q23 -9 26.5 -46t22.5 -47zM352 459q-7 -3 -20 -3q-12 1 -12 3q-25 0 -82 84q-1 2 -7 2q-4 1 -6 -1q-26 -28 -52 -55.5t-38 -29.5q-8 -2 -20.5 2.5t-12.5 8.5q0 12 112 155
q1 2 17 -4q21 -8 26 -9t5 -7q30 -54 61 -106q6 -9 12 -19t17 -16q2 -4 0 -5z" />
    <glyph glyph-name="otilde" unicode="&#xf5;" horiz-adv-x="450" 
d="M407 267q6 -3 6 -26q0 -79 -37 -140q-25 -42 -70 -71.5t-92 -34.5q-126 2 -165 81q-30 46 -30 104q0 102 75 172q64 60 158 57q3 -1 3 -3q0 -3 -3 -4q-66 -31 -92 -50q-49 -37 -54 -85q-3 -26 -3 -47q0 -96 56 -139q7 -3 17 -3q38 0 61 20q83 71 85 175q-1 10 -9.5 15.5
t-18.5 3.5q-13 -5 -56 -12q-34 -7 -54 -18q-13 -4 -15 10q-2 53 43 80q48 23 89 23q33 0 57 -15q23 -9 26.5 -46t22.5 -47zM360 553q6 -10 6 -25q0 -38 -23 -66q-17 -20 -49 -20q-31 0 -71 17q-20 11 -57 25q-5 1 -9 1q-16 0 -27 -20q-7 -11 -13 -23q-17 -4 -21 0
q-7 11 -7 27q0 41 23 64q15 15 42 15q33 0 82 -22q48 -17 62 -17q17 0 28.5 22t12.5 22q16 5 21 0z" />
    <glyph glyph-name="odieresis" unicode="&#xf6;" horiz-adv-x="450" 
d="M407 267q6 -3 6 -26q0 -79 -37 -140q-25 -42 -70 -71.5t-92 -34.5q-126 2 -165 81q-30 46 -30 104q0 102 75 172q64 60 158 57q3 -1 3 -3q0 -3 -3 -4q-66 -31 -92 -50q-49 -37 -54 -85q-3 -26 -3 -47q0 -96 56 -139q7 -3 17 -3q38 0 61 20q83 71 85 175q-1 10 -9.5 15.5
t-18.5 3.5q-13 -5 -56 -12q-34 -7 -54 -18q-13 -4 -15 10q-2 53 43 80q48 23 89 23q33 0 57 -15q23 -9 26.5 -46t22.5 -47zM166 515q-6 -19 -11 -38q-8 -20 -27 -26q-21 2 -41 30q-12 62 -5 80q5 1 20 14q11 9 19 7q47 -25 47 -55q0 -6 -2 -12zM358 515q-6 -19 -11 -38
q-8 -20 -27 -26q-21 2 -41 30q-12 62 -5 80q5 1 20 14q11 9 19 7q47 -25 47 -55q0 -6 -2 -12z" />
    <glyph glyph-name="oslash" unicode="&#xf8;" horiz-adv-x="450" 
d="M102 20q-10 -18 -16 -26.5t-5 -8.5q-12 1 -19.5 11t-6.5 22q1 10 11 32q-10 11 -17 26q-30 46 -30 104q0 102 75 172q64 60 158 57q3 -1 3 -3q0 -3 -3 -4q-66 -31 -92 -50q-49 -37 -54 -85q-9 -89 14 -138q8 10 102 124q10 13 31 37q-48 -16 -69 -28q-13 -4 -15 10
q-2 53 43 80q62 22 84 22q14 0 27 -4q54 58 63 58q1 0 -3 -11t-4 -15q-1 -13 -22 -39q-1 -1 -5 -6q18 -10 27 -45t28 -45q6 -3 6 -26q0 -79 -37 -140q-25 -42 -70 -71.5t-92 -34.5q-71 2 -112 25zM309 300l-86 -115q-25 -33 -74 -96q2 -1 5.5 -3.5t4.5 -4.5q7 -3 17 -3
q38 0 61 20q83 71 85 175q-2 18 -13 27z" />
    <glyph glyph-name="ugrave" unicode="&#xf9;" horiz-adv-x="430" 
d="M399 335q-8 -21 -26 -63q-8 -124 11 -279q14 -16 7 -28q-21 -5 -65 5q-34 13 -45 34q-2 37 3 106q2 5 -1.5 10.5t-9.5 4.5q-17 -10 -43 -35q-33 -32 -44 -41q-9 -3 -31 -24q-18 -16 -34 -15q-41 28 -56 44q-29 30 -29 63q0 11 3 22q0 163 -8 225l-11 32q0 8 6 13
q30 0 81 -39q10 -41 11 -104v-109q6 -7 28 -2q49 45 99 90q56 57 62 114q6 14 20 14q10 0 24 -6.5t28 -12.5q16 -9 20 -19zM330 468l1 -1q0 -4 -11.5 -9t-15.5 -2q-14 8 -58 36q-49 30 -116 77q-22 20 -22 31q0 8 15 7q9 -2 34 5t34 7t13 -5q8 -10 58 -78q31 -41 68 -68z
" />
    <glyph glyph-name="uacute" unicode="&#xfa;" horiz-adv-x="430" 
d="M399 335q-8 -21 -26 -63q-8 -124 11 -279q14 -16 7 -28q-21 -5 -65 5q-34 13 -45 34q-2 37 3 106q2 5 -1.5 10.5t-9.5 4.5q-17 -10 -43 -35q-33 -32 -44 -41q-9 -3 -31 -24q-18 -16 -34 -15q-41 28 -56 44q-29 30 -29 63q0 11 3 22q0 163 -8 225l-11 32q0 8 6 13
q30 0 81 -39q10 -41 11 -104v-109q6 -7 28 -2q49 45 99 90q56 57 62 114q6 14 20 14q10 0 24 -6.5t28 -12.5q16 -9 20 -19zM308 600q15 1 15 -7q0 -11 -22 -31q-18 -16 -116 -77q-13 -8 -58 -36q-4 -3 -15.5 2t-11.5 9q0 1 1 1q37 27 68 68q50 68 58 78q4 5 13 5t34 -7
t34 -5z" />
    <glyph glyph-name="ucircumflex" unicode="&#xfb;" horiz-adv-x="430" 
d="M399 335q-8 -21 -26 -63q-8 -124 11 -279q14 -16 7 -28q-21 -5 -65 5q-34 13 -45 34q-2 37 3 106q2 5 -1.5 10.5t-9.5 4.5q-17 -10 -43 -35q-33 -32 -44 -41q-9 -3 -31 -24q-18 -16 -34 -15q-41 28 -56 44q-29 30 -29 63q0 11 3 22q0 163 -8 225l-11 32q0 8 6 13
q30 0 81 -39q10 -41 11 -104v-109q6 -7 28 -2q49 45 99 90q56 57 62 114q6 14 20 14q10 0 24 -6.5t28 -12.5q16 -9 20 -19zM345 459q-7 -3 -20 -3q-12 1 -12 3q-25 0 -82 84q-1 2 -7 2q-4 1 -6 -1q-26 -28 -52 -55.5t-38 -29.5q-8 -2 -20.5 2.5t-12.5 8.5q0 12 112 155
q1 2 17 -4q21 -8 26 -9t5 -7q30 -54 61 -106q6 -9 12 -19t17 -16q2 -4 0 -5z" />
    <glyph glyph-name="udieresis" unicode="&#xfc;" horiz-adv-x="430" 
d="M399 335q-8 -21 -26 -63q-8 -124 11 -279q14 -16 7 -28q-21 -5 -65 5q-34 13 -45 34q-2 37 3 106q2 5 -1.5 10.5t-9.5 4.5q-17 -10 -43 -35q-33 -32 -44 -41q-9 -3 -31 -24q-18 -16 -34 -15q-41 28 -56 44q-29 30 -29 63q0 11 3 22q0 163 -8 225l-11 32q0 8 6 13
q30 0 81 -39q10 -41 11 -104v-109q6 -7 28 -2q49 45 99 90q56 57 62 114q6 14 20 14q10 0 24 -6.5t28 -12.5q16 -9 20 -19zM160 515q-6 -19 -11 -38q-8 -20 -27 -26q-21 2 -41 30q-12 62 -5 80q5 1 20 14q11 9 19 7q47 -25 47 -55q0 -6 -2 -12zM352 515q-6 -19 -11 -38
q-8 -20 -27 -26q-21 2 -41 30q-12 62 -5 80q5 1 20 14q11 9 19 7q47 -25 47 -55q0 -6 -2 -12z" />
    <glyph glyph-name="yacute" unicode="&#xfd;" horiz-adv-x="430" 
d="M401 372q-10 -58 -39 -153q-34 -114 -43 -151q-18 -22 -37 -45q-22 -26 -45 -33q-9 4 -17 4q-19 0 -35 -29q-21 -40 -25 -44.5t-4 -9.5t5 -15.5t5 -15.5q0 -9 -14 -14q-68 -16 -76 -16q-27 0 -45 16q-13 8 -13 23q0 6 6 29q14 26 56 78q38 48 52 80q-6 19 -28 51.5
t-28 49.5q-29 76 -29 134q0 33 9 64l12 6q7 5 12 5t10 -3q8 -16 24 -73q40 -84 72 -120q3 -1 8 0q6 2 8 2q52 79 109 180q13 15 45 36q32 -8 45 -36zM337 226q-38 -56 -63 -113q-10 -22 11 -25q19 11 29 41l16 49q2 18 7 48zM329 600q15 1 15 -7q0 -11 -22 -31
q-18 -16 -116 -77q-13 -8 -58 -36q-4 -3 -15.5 2t-11.5 9q0 1 1 1q37 27 68 68q50 68 58 78q4 5 13 5t34 -7t34 -5z" />
    <glyph glyph-name="ydieresis" unicode="&#xff;" horiz-adv-x="430" 
d="M401 372q-10 -58 -39 -153q-34 -114 -43 -151q-18 -22 -37 -45q-22 -26 -45 -33q-9 4 -17 4q-19 0 -35 -29q-21 -40 -25 -44.5t-4 -9.5t5 -15.5t5 -15.5q0 -9 -14 -14q-68 -16 -76 -16q-27 0 -45 16q-13 8 -13 23q0 6 6 29q14 26 56 78q38 48 52 80q-6 19 -28 51.5
t-28 49.5q-29 76 -29 134q0 33 9 64l12 6q7 5 12 5t10 -3q8 -16 24 -73q40 -84 72 -120q3 -1 8 0q6 2 8 2q52 79 109 180q13 15 45 36q32 -8 45 -36zM337 226q-38 -56 -63 -113q-10 -22 11 -25q19 11 29 41l16 49q2 18 7 48zM166 515q-6 -19 -11 -38q-8 -20 -27 -26
q-21 2 -41 30q-12 62 -5 80q5 1 20 14q11 9 19 7q47 -25 47 -55q0 -6 -2 -12zM358 515q-6 -19 -11 -38q-8 -20 -27 -26q-21 2 -41 30q-12 62 -5 80q5 1 20 14q11 9 19 7q47 -25 47 -55q0 -6 -2 -12z" />
    <glyph glyph-name="dotlessi" unicode="&#x131;" 
d="M166 90q-33 -50 -84 -99q-3 -1 -6 -1q-11 0 -22 16q-19 128 -9 322q1 17 17 56q24 28 58 28q10 0 19 -3q0 -101 5 -303q4 -7 11 -9t11 3t6 5q9 0 -6 -15z" />
    <glyph glyph-name="OE" unicode="&#x152;" horiz-adv-x="1100" 
d="M1096 188q3 -6 3 -12q0 -14 -16 -34q-19 -25 -21 -29q-22 -53 -83 -74q-20 -8 -112 -22q-206 -32 -300 -28q-66 3 -82 39q-6 -4 -25 -10q-62 -39 -141 -39q-73 0 -129 33q-78 46 -120 130q-39 78 -39 172q0 42 8 84q17 87 63 156q51 77 124 108q13 9 65 18q41 6 54 35
q72 3 135 -30q0 6 2 18q3 2 7 2q6 0 15 -6t12 -7q157 6 453 22q29 -6 41 -13q20 -10 26 -32q3 -12 3 -22q0 -30 -28 -48q-16 -9 -59 -22.5t-58 -24.5q-66 -28 -203 -77q34 24 104 51q76 30 106 48q9 11 6 22q-7 10 -17 12q-135 -16 -195 -16q-21 0 -40 1q-13 -4 -13 -16
q0 -7 7 -26.5t6 -27.5q-7 -19 -1 -43q1 -4 14 -6.5t12 -4.5q-8 -7 -20 -19q-4 -5 -1 -12q3 -9 12 -10q33 1 119 8q72 5 117 5q48 0 93 -5q6 -4 7.5 -21.5t9.5 -22.5q-19 -38 -72 -51q-47 -9 -94 -17q-35 -9 -92 -34q-64 -28 -90 -37q-7 -40 -8 -83q-2 -46 5 -50q19 -7 44 -7
q14 0 112 18q43 8 171 37q101 23 103 20zM528 389q-49 200 -177 225q-100 -42 -150 -156q-43 -97 -42 -224q34 -59 91 -93q36 -22 86 -22q69 0 127 37q13 14 13 32q0 14 -10 41t-11 39q2 7 6 7q6 0 14 -10q7 -35 28 -99q0 -10 8 -10t9 8q17 94 17 145q0 43 -9 80zM781 320
q-9 9 -26 9q-8 0 -31 -4q-19 -3 -28 -1q-19 4 -27 -7t-8 -29q1 -22 10 -22q4 0 9 3q112 41 101 51z" />
    <glyph glyph-name="oe" unicode="&#x153;" horiz-adv-x="780" 
d="M745 140q-24 -88 -104 -137q-42 -16 -90 -16q-150 0 -203 77q-58 -61 -134 -69q-126 2 -165 81q-30 46 -30 104q0 102 75 172q64 60 158 57q3 -1 3 -3q0 -3 -3 -4q-66 -31 -92 -50q-49 -37 -54 -85q-3 -26 -3 -47q0 -96 56 -139q7 -3 17 -3q38 0 61 20q83 71 85 175
q-1 10 -9.5 15.5t-18.5 3.5q-13 -5 -56 -12q-34 -7 -54 -18q-13 -4 -15 10q-2 53 43 80q48 23 89 23q33 0 57 -15q23 -9 27 -47q8 8 34 27q8 6 52 28q32 15 46 36q9 13 40 13q32 0 58 -12q46 -22 75 -62q32 -45 27 -95q-2 -18 -12.5 -40t-18.5 -17q-16 21 -29 21
q-5 0 -11 -2q-59 -24 -113 -24q-37 0 -103 13q-11 3 -15.5 -5t-4.5 -17v-18q-1 -15 -1 -20q0 -42 37 -41q31 -3 63 -3q127 0 231 50q4 2 5 0q2 -2 0 -5zM621 280q6 3 6 9q0 17 -25 29t-49 23q-30 14 -48 14q-19 0 -48 -32q-15 -23 -15 -28q0 -9 10 -15q18 -6 91 -5
q69 1 78 5z" />
    <glyph glyph-name="Ydieresis" unicode="&#x178;" horiz-adv-x="720" 
d="M682 668q-14 -150 -135 -245q-17 -19 -34.5 -67.5t-33.5 -68.5q-21 -41 -43 -82q-27 -47 -56 -71q-11 -9 -7 -25q2 -1 5.5 -3t5.5 -3l96 12q58 8 70 15q9 2 9 -1q0 -4 -19 -23t-23 -28q-18 -41 -58 -60q-30 -14 -81 -18q-40 -2 -81 -4q-81 4 -102 9q-61 13 -73 52
q-2 12 4 42q7 38 22 54q5 3 10 -15q6 -21 17 -24q7 -1 31 -9q20 -7 31 -7q13 0 23 7q13 11 24 39q10 23 19 46q8 12 16 25.5t8 23.5q0 8 -5 16q-13 -6 -27 -6q-48 0 -80 54q-28 48 -79 162q-48 107 -82 160q-14 -4 -21 -4q-13 0 3 23q20 30 20 36t8.5 11t15.5 5q32 -2 43 -4
q23 -6 34 -22q17 -12 27 -40q11 -31 18 -39l58 -146q37 -84 84 -134q26 1 37 28q7 23 14 47q44 130 59 160q44 92 113 136q19 15 48 15q14 0 42 -4q18 -7 25 -25zM634 598q-19 -19 -41.5 -68.5t-34.5 -61.5q-6 -6 -6 -10q0 -3 4 -3t11 5q19 25 58 75q21 26 21 60q0 8 -4 8
q-3 0 -8 -5zM298 815q-6 -19 -11 -38q-8 -20 -27 -26q-21 2 -41 30q-12 62 -5 80q5 1 20 14q11 9 19 7q47 -25 47 -55q0 -6 -2 -12zM490 815q-6 -19 -11 -38q-8 -20 -27 -26q-21 2 -41 30q-12 62 -5 80q5 1 20 14q11 9 19 7q47 -25 47 -55q0 -6 -2 -12z" />
    <glyph glyph-name="Zcaron" unicode="&#x17d;" horiz-adv-x="800" 
d="M762 562q1 -8 -3 -23q-44 -39 -134 -101q-102 -71 -137 -99q-5 -15 8 -20q22 0 67 -1.5t68 -1.5q71 0 115 12q5 -7 5 -17l-11 -46q-5 -4 -14 -30q-7 -21 -25 -22q-21 -1 -67 -9q1 -10 14 -19t25 -17q53 -43 65 -139q-7 -24 -37 -31q-245 -12 -562 4q-7 -2 -35 -15
q-21 -10 -35 -10q-7 0 -14 2q-19 57 -19 69t4 24q2 2 18 14q17 2 50 6q45 34 91 69q54 41 86 75q-9 12 -40 23q-27 10 -34 29q-24 36 -21 90q27 8 56 8q75 0 163 -47q78 63 104 85q61 51 100 93q7 12 -9 16q-109 0 -219 -1q-129 2 -225 16q-30 -4 -44 16q-9 12 -16.5 46
t-15.5 47q24 -2 61 -14q68 -7 146 -7q156 0 387 32q30 -9 50 -45q17 -31 34 -61zM378 342q-13 2 -56 20q-33 14 -59 11q-5 -1 -14 -1q-10 1 -11 1q-5 -1 -3 -4q18 -28 61 -36q37 -3 74 -7q17 -3 17 4q0 5 -9 12zM684 131q-12 19 -39 39q-38 28 -42 32q-39 8 -112 12
q-76 5 -107 10q-29 5 -79 -36q-42 -35 -85 -71q-4 -3 -2 -8q1 -5 6 -6q72 5 204 5h60q112 0 177 3q19 -3 19 20zM548 911q0 -12 -112 -155q-1 -2 -17 4q-21 8 -26 9t-5 7q-30 54 -61 106q-6 9 -12 19t-17 16q-2 4 0 5q7 3 20 3q12 -1 12 -3q25 0 82 -84q1 -2 7 -2q4 -1 6 1
q26 28 52 55.5t38 29.5q8 2 20.5 -2.5t12.5 -8.5z" />
    <glyph glyph-name="zcaron" unicode="&#x17e;" horiz-adv-x="490" 
d="M446 151q10 -22 10 -45q0 -25 -12 -42q-27 -56 -101 -73q-67 -7 -133 -15q-137 0 -155 1q-33 36 -33 90q0 11 3 21.5t14 14.5q21 5 49 22q38 24 46 28q-3 14 -22.5 25t-22.5 24q-7 25 0 45q30 -9 77 -9q75 1 78 1q32 24 95 76q2 3 2 7q0 12 -16 12q-41 1 -116 -4
q-78 -4 -118 -4q-33 0 -35 35q1 30 1 60q4 9 9 9q3 0 5 -3q2 -9 11 -10l18 -2h309q17 -10 23 -48l-3 -22l-66 -44q-39 -27 -58 -49q6 -17 17 -11q6 1 15 1q8 0 26 -1.5t27 -1.5q40 0 54 22q3 -8 3 -15q0 -25 -43 -66q4 -9 20.5 -13.5t21.5 -15.5zM415 115q11 6 11 17
q0 13 -11 21q-91 16 -220 9q-42 -22 -75 -67q21 -7 52 -7q14 0 48 3q29 2 44 1q38 2 75 4q49 3 76 19zM366 610q0 -12 -112 -155q-1 -2 -17 4q-21 8 -26 9t-5 7q-30 54 -61 106q-6 9 -12 19t-17 16q-2 4 0 5q7 3 20 3q12 -1 12 -3q25 0 82 -84q1 -2 7 -2q4 -1 6 1
q26 28 52 55.5t38 29.5q8 2 20.5 -2.5t12.5 -8.5z" />
    <glyph glyph-name="circumflex" unicode="&#x2c6;" horiz-adv-x="310" 
d="M282 459q-7 -3 -20 -3q-12 1 -12 3q-25 0 -82 84q-1 2 -7 2q-4 1 -6 -1q-26 -28 -52 -55.5t-38 -29.5q-8 -2 -20.5 2.5t-12.5 8.5q0 12 112 155q1 2 17 -4q21 -8 26 -9t5 -7q30 -54 61 -106q6 -9 12 -19t17 -16q2 -4 0 -5z" />
    <glyph glyph-name="caron" unicode="&#x2c7;" horiz-adv-x="310" 
d="M282 610q0 -12 -112 -155q-1 -2 -17 4q-21 8 -26 9t-5 7q-30 54 -61 106q-6 9 -12 19t-17 16q-2 4 0 5q7 3 20 3q12 -1 12 -3q25 0 82 -84q1 -2 7 -2q4 -1 6 1q26 28 52 55.5t38 29.5q8 2 20.5 -2.5t12.5 -8.5z" />
    <glyph glyph-name="breve" unicode="&#x2d8;" horiz-adv-x="326" 
d="M296 578q-12 -41 -54 -79q-46 -42 -91 -42q-47 0 -82.5 35.5t-37.5 83.5q-1 7 5 12l10 6q3 2 8 -6q16 -26 45 -44t58 -18q34 0 72 23q29 18 46 39q6 7 9 5l11 -7q3 -2 1 -8z" />
    <glyph glyph-name="dotaccent" unicode="&#x2d9;" horiz-adv-x="194" 
d="M144 515q-6 -19 -11 -38q-8 -20 -27 -26q-21 2 -41 30q-12 62 -5 80q5 1 20 14q11 9 19 7q47 -25 47 -55q0 -6 -2 -12z" />
    <glyph glyph-name="ring" unicode="&#x2da;" horiz-adv-x="300" 
d="M246 503q2 -1 2 -6q0 -25 -27 -49q-16 -14 -43 -14q-10 0 -30 2.5t-29 2.5q-13 0 -31 11q-23 14 -23 33q-16 14 -16 43q0 14 4 32q15 38 74 46q76 0 102 -42q11 -7 11 -21q0 -3 -1 -10t-1 -11q0 -11 8 -17zM227 503q0 4 -7 -2.5t-10 -6.5q-7 0 -2 2q6 10 1 22
q-12 37 -82 46q-15 0 -27 -12q-11 -19 -11 -32q0 -6 3 -9q38 -25 101 -26q34 -1 34 18z" />
    <glyph glyph-name="ogonek" unicode="&#x2db;" horiz-adv-x="240" 
d="M231 -158q0 -11 -25 -19.5t-56 -8.5q-105 0 -105 79q0 60 76 107h38q-22 -23 -28 -44q-4 -12 -4 -42q0 -28 17 -45.5t37 -17.5q12 0 25 3.5t16 3.5q9 0 9 -16z" />
    <glyph glyph-name="tilde" unicode="&#x2dc;" horiz-adv-x="341" 
d="M304 553q6 -10 6 -25q0 -38 -23 -66q-17 -20 -49 -20q-31 0 -71 17q-20 11 -57 25q-5 1 -9 1q-16 0 -27 -20q-7 -11 -13 -23q-17 -4 -21 0q-7 11 -7 27q0 41 23 64q15 15 42 15q33 0 82 -22q48 -17 62 -17q17 0 28.5 22t12.5 22q16 5 21 0z" />
    <glyph glyph-name="hungarumlaut" unicode="&#x2dd;" horiz-adv-x="367" 
d="M320 525l-122 -98q-4 -4 -7 -1l-14 11q-3 3 0 8l74 122q21 34 50 34q36 0 36 -39q0 -23 -17 -37zM172 522l-120 -95q-4 -4 -7 -1l-14 11q-3 3 0 8l74 122q21 34 50 34q39 0 39 -38q0 -23 -22 -41z" />
    <glyph glyph-name="endash" unicode="&#x2013;" horiz-adv-x="733" 
d="M670 257q0 -11 -26 -21t-53 -9q-106 4 -335 4l-201 1q5 7 4.5 26t11.5 29q18 15 173 15q45 0 138.5 -1.5t132.5 -1.5q103 0 119 8q8 4 13 4q10 0 12 -19q2 -22 6.5 -25.5t4.5 -9.5z" />
    <glyph glyph-name="emdash" unicode="&#x2014;" horiz-adv-x="1107" 
d="M1054 257q0 -11 -26 -21t-53 -9q-186 7 -575 6l-345 -1q5 7 4.5 26t11.5 29q18 15 287 15q78 0 240.5 -1.5t227.5 -1.5q176 0 192 8q8 4 13 4q10 0 12 -19q2 -22 6.5 -25.5t4.5 -9.5z" />
    <glyph glyph-name="quoteleft" unicode="&#x2018;" 
d="M155 701q-6 -18 -33 -68q-22 -42 -27 -72q23 -22 27 -71q1 -6 -16 -26t-21 -19q-27 -2 -46 27q-14 27 -28 53q0 38 21 48q15 68 43 88q25 19 65 47q8 -1 15 -7z" />
    <glyph glyph-name="quoteright" unicode="&#x2019;" 
d="M155 629q0 -37 -21 -48q-15 -68 -41.5 -87.5t-66.5 -47.5q-8 2 -15 7q6 18 33 69q22 41 27 71q-23 22 -27 71q-1 6 16 26t21 19q27 2 46 -27q14 -27 28 -53z" />
    <glyph glyph-name="quotesinglbase" unicode="&#x201a;" 
d="M155 44q0 -37 -21 -48q-15 -68 -41.5 -87.5t-66.5 -47.5q-8 1 -15 7q6 18 33 68q22 42 27 72q-23 22 -27 71q-1 6 16 26t21 19q27 2 46 -27q14 -27 28 -53z" />
    <glyph glyph-name="quotedblleft" unicode="&#x201c;" horiz-adv-x="330" 
d="M287 701q-6 -18 -33 -68q-22 -42 -27 -72q23 -22 27 -71q1 -6 -16 -26t-21 -19q-27 -2 -46 27q-14 27 -28 53q0 38 21 48q15 68 43 88q25 19 65 47q8 -1 15 -7zM155 701q-6 -18 -33 -68q-22 -42 -27 -72q23 -22 27 -71q1 -6 -16 -26t-21 -19q-27 -2 -46 27q-14 27 -28 53
q0 38 21 48q15 68 43 88q25 19 65 47q8 -1 15 -7z" />
    <glyph glyph-name="quotedblright" unicode="&#x201d;" horiz-adv-x="330" 
d="M287 629q0 -37 -21 -48q-15 -68 -41.5 -87.5t-66.5 -47.5q-8 2 -15 7q6 18 33 69q22 41 27 71q-23 22 -27 71q-1 6 16 26t21 19q27 2 46 -27q14 -27 28 -53zM155 629q0 -37 -21 -48q-15 -68 -41.5 -87.5t-66.5 -47.5q-8 2 -15 7q6 18 33 69q22 41 27 71q-23 22 -27 71
q-1 6 16 26t21 19q27 2 46 -27q14 -27 28 -53z" />
    <glyph glyph-name="quotedblbase" unicode="&#x201e;" horiz-adv-x="330" 
d="M287 45q0 -37 -21 -48q-15 -68 -41.5 -87.5t-66.5 -47.5q-8 1 -15 7q6 18 33 68q22 42 27 72q-23 22 -27 71q-1 6 16 26t21 19q27 2 46 -27q14 -27 28 -53zM155 44q0 -37 -21 -48q-15 -68 -41.5 -87.5t-66.5 -47.5q-8 1 -15 7q6 18 33 68q22 42 27 72q-23 22 -27 71
q-1 6 16 26t21 19q27 2 46 -27q14 -27 28 -53z" />
    <glyph glyph-name="dagger" unicode="&#x2020;" horiz-adv-x="330" 
d="M302 381l-8 -30q-5 -18 -15 -27q-5 -3 -12 -3q-11 0 -31.5 6.5t-26.5 6.5q-7 0 -7 -5q-4 -47 -2.5 -140t-2.5 -138q-8 -97 -21 -96q-15 1 -30 101q-9 61 -17 158.5t-11 120.5q-1 7 -25 6q-21 -1 -31 -4q-15 -2 -7 -18q8 -6 6 -15q-12 6 -24 13q-15 10 -15 23q1 41 18 71
q6 5 23 5q4 0 14 -1h15q30 0 36 15q0 79 6 165q2 1 5 1q14 0 43 -21t30 -30q4 -14 4 -36q0 -17 -2.5 -46.5t-2.5 -36.5q0 -10 2 -12q9 -8 32 -8h10h11q34 0 36 -25z" />
    <glyph glyph-name="daggerdbl" unicode="&#x2021;" horiz-adv-x="840" 
d="M786 108q0 -32 -19 -52.5t-51 -20.5h-590q-28 0 -50 20.5t-22 48.5v554q0 29 21.5 48.5t50.5 19.5h590q32 0 51 -18.5t19 -49.5v-550zM505 -131q0 -10 -11 -17.5t-25 -7.5q-26 0 -35 24l-30 75v-97h-40v106q0 27 33 27q32 0 40 -21l29 -77v95h39v-107zM786 -127
q0 -22 -35 -27h-91v30h76q7 0 7 7v10q0 4 -8 4h-35q-40 0 -40 28v33q0 18 41 18h85v-27h-74q-11 0 -11 -6v-9q1 -8 13 -8h33q39 0 39 -25v-28zM647 -51h-42v-103h-42v103h-43v27h127v-27zM338 -124q0 -30 -43 -30h-50q-37 0 -42 22v87q5 21 42 21h50q43 0 43 -27v-73z
M181 -103h-82v-51h-44v104q0 16 8 21t36 5h82v-27h-70q-12 0 -12 -6v-17h82v-29zM753 113v545q0 35 -37 35h-590q-37 0 -37 -35v-548q0 -37 37 -37h590q37 0 37 40zM297 -117v55q0 11 -14 11h-27q-13 0 -13 -11v-54q0 -8 13 -8h27q14 0 14 7zM701 127h-137v271l-171 -168
l-167 168v-271h-86v509h47l220 -216l217 216h77v-509zM668 162v443h-32l-229 -229l-235 229v-443h20v318l201 -205l203 205v-318h72z" />
    <glyph glyph-name="bullet" unicode="&#x2022;" horiz-adv-x="500" 
d="M429 326q1 -71 -48.5 -121t-119.5 -51q-71 -1 -121.5 49t-51.5 120q-1 71 48.5 121.5t119.5 51.5q71 1 121.5 -49.5t51.5 -120.5z" />
    <glyph glyph-name="ellipsis" unicode="&#x2026;" horiz-adv-x="500" 
d="M472 2q-4 0 -14 2.5t-15 2.5q-9 0 -15 -7q-3 -2 -6 -2q-8 0 -16.5 10t-7.5 14q2 14 -2 44q-5 36 -5 46q0 23 12 27q11 3 42 -13q36 -19 41 -45q9 -25 9 -43q0 -14 -5.5 -25t-17.5 -11zM306 2q-4 0 -14 2.5t-15 2.5q-9 0 -15 -7q-3 -2 -6 -2q-8 0 -16.5 10t-7.5 14
q2 14 -2 44q-5 36 -5 46q0 23 12 27q11 3 42 -13q36 -19 41 -45q9 -25 9 -43q0 -14 -5.5 -25t-17.5 -11zM138 2q-4 0 -14 2.5t-15 2.5q-9 0 -15 -7q-3 -2 -6 -2q-8 0 -16.5 10t-7.5 14q2 14 -2 44q-5 36 -5 46q0 23 12 27q11 3 42 -13q36 -19 41 -45q9 -25 9 -43
q0 -14 -5.5 -25t-17.5 -11z" />
    <glyph glyph-name="perthousand" unicode="&#x2030;" horiz-adv-x="830" 
d="M268 509q-1 -19 -17 -43q-20 -33 -47 -32q-19 -23 -59 -23q-20 0 -43 6q-56 22 -64 101q0 109 56 144q10 14 28 14q5 0 14.5 -1.5t14.5 -1.5q17 0 26 13q1 2 7 2q38 0 70 -37q20 -22 20 -61q0 -13 -3 -40.5t-3 -40.5zM513 655q1 1 2 1q2 0 -4 -14q-6 -17 -6 -23
q-2 -18 -32 -58l-193 -256q-117 -155 -180 -295l-2.5 -5.5t-6.5 -5.5q-17 1 -27.5 15.5t-9.5 32.5q3 41 89 167q32 49 135 189q133 181 235 252zM502 104q-1 -19 -17 -43q-20 -33 -47 -32q-19 -23 -59 -23q-20 0 -43 6q-56 22 -64 101q0 109 56 144q10 14 28 14
q5 0 14.5 -1.5t14.5 -1.5q17 0 26 13q1 2 7 2q38 0 70 -37q20 -22 20 -61q0 -13 -3 -40.5t-3 -40.5zM212 618q-1 17 -8 34q-9 22 -23 21q-2 0 -3 -2q0 -2 8.5 -11.5t9.5 -14.5t-1 -8q-1 -2 -4 2q-11 13 -34 5q-39 -14 -57 -55q-11 -24 -20 -79q-1 -6 6 -21.5t15 -22.5
q35 -19 50 -19q11 0 18 7q35 55 43 164zM446 213q-1 17 -8 34q-9 22 -23 21q-2 0 -3 -2q0 -2 8.5 -11.5t9.5 -14.5t-1 -8q-1 -2 -4 2q-11 13 -34 5q-39 -14 -57 -55q-11 -24 -20 -79q-1 -6 6 -21.5t15 -22.5q35 -19 50 -19q11 0 18 7q35 55 43 164zM782 104q-1 -19 -17 -43
q-20 -33 -47 -32q-19 -23 -59 -23q-20 0 -43 6q-56 22 -64 101q0 109 56 144q10 14 28 14q5 0 14.5 -1.5t14.5 -1.5q17 0 26 13q1 2 7 2q38 0 70 -37q20 -22 20 -61q0 -13 -3 -40.5t-3 -40.5zM726 213q-1 17 -8 34q-9 22 -23 21q-2 0 -3 -2q0 -2 8.5 -11.5t9.5 -14.5t-1 -8
q-1 -2 -4 2q-11 13 -34 5q-39 -14 -57 -55q-11 -24 -20 -79q-1 -6 6 -21.5t15 -22.5q35 -19 50 -19q11 0 18 7q35 55 43 164z" />
    <glyph glyph-name="trademark" unicode="&#x2122;" horiz-adv-x="850" 
d="M353 739q-2 -4 -8 -40q-4 -23 -22 -28q-49 -7 -83 -3q-2 -1 -4 -7l4 -285q2 -11 5 -21q3 -13 12 -19q-3 -12 -3 -13q-3 -7 -9 -9q-54 -6 -89 36q-3 11 6.5 30.5t9.5 27.5q0 4 -1 8q-10 57 -34 168q-5 12 -13 47q12 -6 19 -39q6 -9 14 -41q6 -27 19 -34q0 22 2 64
q1 28 5 83q-1 2 -4 4q-71 -1 -123 9q-14 8 -14 28q0 9 3 24t3 20q5 5 6 5q8 2 9.5 -6t6.5 -9q82 -4 274 10q5 1 6 -3zM714 644q-15 -74 -85 -232q-2 -5 0 -10q3 -6 9 -5q13 3 18 19t10 30q4 4 4 -1q1 -3 0 -12q-1 -5 -2 -11l-12 -44q-7 -26 -20 -39q-3 -3 -15.5 5t-18.5 8
q-9 0 -14 -11q-1 -1 -3 -1q-7 0 -23 13.5t-19 21.5q-2 10 2.5 24.5t4.5 19.5q0 4 -1 8q-25 36 -78 108q-2 5 -7 5t-6 -5q-4 -23 -9 -66q-11 -116 -59 -152q-21 -3 -25 4q16 97 52 290q-27 44 -32 55q-15 33 -11 63q10 17 31 22q4 1 76 -116q78 -127 95 -147q5 -9 11 3
q20 52 87 191q13 17 27 17q12 -4 13 -24v-31zM807 321q1 -10 -12 -13q-17 5 -36 11t-28 20q-7 74 -5 202q2 147 0 202q4 2 8 2q1 0 25 -9q3 -7 18 -17t15 -22q-3 -130 15 -376z" />
    <glyph glyph-name="apple" unicode="&#xf000;" horiz-adv-x="700" 
d="M561 811q6 0 -97 -122t-126 -122q-22 0 -22 47q0 38 11 51q37 43 115 75q82 34 119 71zM651 454q3 -7 3 -22q0 -25 -6 -49t-13 -20q-10 -5 -19 -5q-22 0 -45 37q-33 54 -34 56q-22 19 -25 22q-15 9 -33 7q-44 -4 -107 -45q-18 -12 -43 -12q-35 0 -55 17q-49 40 -82 39
q-56 -3 -56 -74q0 -41 15 -73q5 -17 28.5 -50.5t31.5 -55.5q6 -44 13 -89q9 -63 32 -63q28 0 53 36t45 36q18 0 43 -22.5t36 -22.5q5 0 10 3q49 28 73 85q2 4 9 4q16 0 41.5 -14.5t26.5 -26.5q0 -8 -8 -20q-42 -47 -51 -58q-29 -35 -43 -63q-5 -9 -11 -17q-13 -18 -27 -24
q-8 -4 -16 -4q-17 0 -40 22q-27 25 -38 29q-36 9 -48 -3q-13 -19 -45 -41q-37 -25 -60 -22q-31 4 -47 52q-9 29 -16 96q-7 63 -14 80q-13 30 -41 74q-25 39 -38 76q-10 29 -10 66q0 49 17 89q19 44 51 59q38 18 79 18q29 0 50 -11q52 -26 91 -26q37 0 68 22q41 29 101 29
q42 0 77 -15q28 -12 51 -46q19 -29 26 -60z" />
    <glyph glyph-name="fi" unicode="&#xf001;" horiz-adv-x="340" 
d="M303 376q1 -9 1 -18q0 -24 -12 -68t-12 -68.5t-16 -60.5q-18 -40 -20 -59q-10 -6 -10 6q-1 10 4 21q11 33 21 83l16 86q2 32 -26 45q-13 4 -38 0q-28 -4 -28 -18q0 -26 -4 -94q-2 -61 -2 -96q0 -82 13 -139q-13 -28 -30 -28q-6 0 -12 3q-48 17 -57 73q-1 91 2 272
q-9 25 -29 23q5 0 -22 -3q-16 -2 -18 4q-9 25 -9 42q0 28 24 31q3 1 40 3q22 2 21 10q-4 25 -4 50q0 103 60 148q2 2 2 3q0 2 -20 16q-3 1 -7 1q-5 0 -15 -2t-14 -2q-6 0 -6 6q0 3 2 9q17 24 21 28q12 14 26 19q9 1 18 1q57 0 137 -54q2 -8 2 -16q0 -22 -14 -50
q-12 -23 -24 -47q-8 1 -8 9q0 4 4.5 15.5t3.5 15.5q-6 15 -25 25l-34 14q-8 3 -15 -16q0 -17 -3 -83q-2 -53 -2 -83q0 -10 30 -12q41 -3 49 -6q36 -14 39 -39zM471 578q-23 -20 -42 -56q-16 -32 -31 -63q-39 -1 -71 37q6 59 82 118q35 1 62 -36zM448 90q-33 -50 -84 -99
q-3 -1 -6 -1q-11 0 -22 16q-19 128 -9 322q1 17 17 56q24 28 58 28q10 0 19 -3q0 -101 5 -303q4 -7 11 -9t11 3t6 5q9 0 -6 -15z" />
    <glyph glyph-name="fl" unicode="&#xf002;" horiz-adv-x="340" 
d="M303 376q1 -9 1 -18q0 -24 -12 -68t-12 -68.5t-16 -60.5q-18 -40 -20 -59q-10 -6 -10 6q-1 10 4 21q11 33 21 83l16 86q2 32 -26 45q-13 4 -38 0q-28 -4 -28 -18q0 -26 -4 -94q-2 -61 -2 -96q0 -82 13 -139q-13 -28 -30 -28q-6 0 -12 3q-48 17 -57 73q-1 91 2 272
q-9 25 -29 23q5 0 -22 -3q-16 -2 -18 4q-9 25 -9 42q0 28 24 31q3 1 40 3q22 2 21 10q-4 25 -4 50q0 103 60 148q2 2 2 3q0 2 -20 16q-3 1 -7 1q-5 0 -15 -2t-14 -2q-6 0 -6 6q0 3 2 9q17 24 21 28q12 14 26 19q9 1 18 1q57 0 137 -54q2 -8 2 -16q0 -22 -14 -50
q-12 -23 -24 -47q-8 1 -8 9q0 4 4.5 15.5t3.5 15.5q-6 15 -25 25l-34 14q-8 3 -15 -16q0 -17 -3 -83q-2 -53 -2 -83q0 -10 30 -12q41 -3 49 -6q36 -14 39 -39zM468 134q3 -12 -5 -29q-10 -24 -11 -28q-6 -29 -11 -41q-8 -21 -23 -34q-14 -2 -34.5 6.5t-30.5 8.5q-6 0 -11 -1
q-24 91 -24 226q0 42 4 139q3 89 2 138q-1 14 7 37q8 40 65 64q9 4 19 0t12 -14q-18 -273 -9 -483q7 -12 14 -9q10 -2 18.5 10t17.5 10z" />
    <glyph glyph-name="glyph204" horiz-adv-x="500" 
 />
  </font>
</defs>
</svg>
