<?xml version="1.0" standalone="no"?>
<!DOCTYPE svg PUBLIC "-//W3C//DTD SVG 1.1//EN" "http://www.w3.org/Graphics/SVG/1.1/DTD/svg11.dtd" >
<svg xmlns="http://www.w3.org/2000/svg" xmlns:xlink="http://www.w3.org/1999/xlink" version="1.1">
<metadata>
Created by FontForge 20170731 at Wed Dec 20 09:21:34 2006
 By Aleksey,,,
Copyright (c) 2002, 2006 Nick Curtis. All Rights Reserved. Distributed under non-exclusive license by 1001 Free Fonts.
</metadata>
<defs>
<font id="GramophoneShadedNF" horiz-adv-x="740" >
  <font-face 
    font-family="Gramophone Shaded NF"
    font-weight="400"
    font-stretch="normal"
    units-per-em="1000"
    panose-1="2 7 8 6 3 3 6 2 4 4"
    ascent="775"
    descent="-225"
    x-height="596"
    cap-height="744"
    bbox="-45 -295 1445 958"
    underline-thickness="20"
    underline-position="-163"
    unicode-range="U+0020-2122"
  />
<missing-glyph horiz-adv-x="202" 
 />
    <glyph glyph-name=".notdef" horiz-adv-x="202" 
 />
    <glyph glyph-name=".null" horiz-adv-x="0" 
 />
    <glyph glyph-name="nonmarkingreturn" horiz-adv-x="333" 
 />
    <glyph glyph-name="space" unicode=" " horiz-adv-x="202" 
 />
    <glyph glyph-name="exclam" unicode="!" horiz-adv-x="320" 
d="M234 98q0 20 -8 38t-21.5 31.5t-31.5 21.5t-38 8t-38 -8t-31.5 -21.5t-21.5 -31.5t-8 -38q0 -42 28.5 -71t70.5 -29q21 0 39 8t31.5 21.5t21 32t7.5 38.5zM254 635q0 24 -9.5 46t-25.5 38.5t-38 26t-46 9.5q-25 0 -46.5 -9.5t-37.5 -25.5t-25.5 -38t-9.5 -47
q0 -66 31 -203q15 -70 23 -122.5t8 -89.5h113q0 76 31 213q16 70 24 120t8 82zM300 48q0 -24 -9 -45t-24.5 -36.5t-36.5 -25t-45 -9.5q-34 0 -61.5 17.5t-41.5 45.5q-28 14 -45 41.5t-17 61.5q0 35 19.5 63.5t50.5 42.5h-28q0 44 -8 99.5t-23 124.5q-31 137 -31 207
q0 28 10.5 53t29 43.5t43 29t52.5 10.5q37 0 68 -19t48 -49q31 -18 50 -49t19 -69q0 -34 -8 -85t-24 -121q-31 -137 -31 -225h-23l3 -4q28 -15 45.5 -42.5t17.5 -59.5z" />
    <glyph glyph-name="quotedbl" unicode="&#x22;" horiz-adv-x="444" 
d="M378 670q0 40 -28 67t-69 27q-59 0 -84 -52q-27 52 -87 52q-40 0 -67 -27t-27 -67q0 -15 7.5 -40t17 -52t17 -52t7.5 -40h91q0 30 13.5 63t27.5 66q13 -33 26 -65.5t13 -63.5h91q0 15 8 40t17.5 52t17.5 52t8 40zM444 620q0 -17 -8.5 -43.5t-18.5 -54.5
q-10 -26 -17 -52.5t-7 -49.5h-123q0 14 -2 26.5t-4 23.5h-36q-6 -24 -6 -50h-123q0 12 -2 24.5t-5 25.5h-43q0 25 -7.5 50.5t-15.5 51.5q-9 28 -17.5 54.5t-8.5 43.5q0 47 31.5 78.5t78.5 31.5q57 0 87 -39q31 39 84 39q34 0 61 -17t41 -45q27 -14 44 -40t17 -58z" />
    <glyph glyph-name="numbersign" unicode="#" horiz-adv-x="606" 
d="M238 323l17 91h65l-18 -91h-64zM539 174v149h-85l19 91h66v150h-38l35 167h-153l-34 -167h-64l34 167h-153l-35 -167h-110v-150h82l-18 -91h-64v-149h33l-34 -174h152l35 174h65l-35 -174h153l34 174h115zM488 108q-8 -42 -17 -87.5t-17 -86.5h-187l10 50h-31
q-3 -13 -5.5 -25.5t-4.5 -24.5h-186l10 50h-60l35 174h-30v181h67l1 9h-18v50h-50v182h112q8 39 18 84t18 83h186l-11 -50h31l11 50h186l-11 -50h61l-36 -167h35v-182h-68l-2 -9h20v-50h50v-181h-117z" />
    <glyph glyph-name="dollar" unicode="$" horiz-adv-x="458" 
d="M387 500l-39 15l-7 -18q-46 20 -99 20v67h-43v-71q-60 -14 -99 -59.5t-39 -107.5q0 -24 4 -44t15.5 -41t30.5 -44t49 -53l28 -28l15.5 -15.5t6.5 -9t1 -8.5q0 -13 -21 -13q-11 0 -48 13l10 28l-37 17l-93 -201l39 -17l10 20q29 -10 58.5 -18.5t58.5 -8.5h11v-68h43v74
q32 8 58 24.5t44 39.5t28 50.5t10 57.5q0 24 -4 43t-15 39t-31 43.5t-52 56.5q-48 51 -48 59q0 6 9 6q25 0 38 -9l-7 -21l39 -16zM370 231l-27 10q33 -34 53.5 -58.5t32 -45.5t15.5 -41t4 -45q0 -63 -37.5 -114t-102.5 -71v-77h-75v50h-50v25q-14 4 -27.5 8t-26.5 9l-11 -21
l-68 28l11 25l-61 25l106 231l47 -21l-3 5q-32 31 -52.5 55.5t-32 46.5t-16 43.5t-4.5 47.5q0 66 37.5 114.5t100.5 65.5v74h75v-50h50v-25l24 -7l6 18l70 -27l-11 -27l61 -23zM192 110q-11 10 -14.5 14.5t-8.5 8.5l-6 -17l32 -13q0 2 -3 7z" />
    <glyph glyph-name="percent" unicode="%" horiz-adv-x="896" 
d="M662 266q12 0 19 -6.5t10.5 -16t5 -21t1.5 -20.5t-1.5 -20t-5 -20.5t-10.5 -16t-19 -6.5t-19 6.5t-11 16t-5 20.5t-1 20t1 20.5t5 21t11 16t19 6.5zM662 399q-42 0 -73.5 -16.5t-53 -44t-32 -63t-10.5 -73.5t10.5 -73t32 -62t53 -43.5t73.5 -16.5t73.5 16.5t52.5 43.5
t31.5 62t10.5 73t-10.5 73.5t-31.5 63t-52.5 44t-73.5 16.5zM184 547q12 0 19 -6.5t11 -16t5 -20.5t1 -20t-1 -19.5t-5 -20.5t-11 -16.5t-19 -6.5t-19 6.5t-10.5 16.5t-5 20.5t-1.5 19.5t1.5 20t5 20.5t10.5 16t19 6.5zM160 0h150l399 731h-155q-18 -24 -35 -43.5t-37.5 -34
t-45 -22t-56.5 -7.5q-29 0 -55 7t-49 21q-42 27 -92 27q-42 0 -73.5 -16t-52.5 -43t-31.5 -62.5t-10.5 -73.5t10.5 -73.5t31.5 -62.5t52.5 -43.5t73.5 -16.5t73.5 16.5t53 43.5t32 62.5t10.5 73.5v8q6 -1 13 -1.5t14 -0.5q23 0 51 5zM265 224q-8 -1 -15.5 -1.5t-15.5 -0.5
q-51 0 -87 21t-59 55q-45 29 -66.5 79t-21.5 107q0 41 11.5 79t34.5 67.5t57.5 47t80.5 17.5q54 0 101 -29q21 -14 45 -20t50 -6q30 0 53 7.5t42 22t36 34t35 43.5h190l-28 -50h78l-155 -285q15 3 31 3q50 0 86.5 -21t59.5 -56q44 -28 66 -78.5t22 -107.5q0 -41 -11.5 -79
t-34.5 -67t-57.5 -47t-80.5 -18q-51 0 -88 21t-60 56q-32 21 -52 53.5t-29 70.5l-113 -208h-187l27 50h-77z" />
    <glyph glyph-name="ampersand" unicode="&#x26;" horiz-adv-x="808" 
d="M356 172q-14 -3 -29 -3q-27 0 -52.5 8t-45 21.5t-31.5 32.5t-12 41q0 57 63 80zM737 340l-225 95l-16 -39l36 -15q-6 -61 -38 -109l-170 286h186v-40h42v237h-42v-28h-482l135 -228q-68 -34 -107 -93.5t-39 -133.5q0 -58 25 -107.5t67.5 -86t99 -57.5t118.5 -21
q61 0 118 22l13 -22h241v42h-69l-43 73q81 89 105 198l29 -12zM780 229l-27 12q-14 -51 -36 -93.5t-60 -84.5l3 -5h55v-50h50v-74h-266l-11 18q-56 -18 -111 -18q-83 0 -153.5 34t-115.5 91q-49 39 -78 93.5t-29 119.5q0 75 37 135.5t103 97.5q-33 56 -71 120t-70 118h494
v28h74v-50h50v-269h-74v40h-142q26 -45 50.5 -85.5t49.5 -82.5q5 11 8 23t5 24l-40 16l28 69l255 -107l-10 -25l60 -25zM277 273q-25 -20 -25 -51q0 -12 3 -22q31 -15 75 -15z" />
    <glyph glyph-name="quotesingle" unicode="'" horiz-adv-x="273" 
d="M207 670q0 40 -28 67t-69 27q-40 0 -67 -26.5t-27 -67.5q0 -17 7.5 -41.5t17 -51t17 -51t7.5 -40.5h91q0 16 8 40.5t17.5 51t17.5 51t8 41.5zM273 620q0 -20 -8.5 -46t-18.5 -53q-10 -26 -17 -51t-7 -50h-123q0 13 -2 25.5t-5 24.5h-43q0 28 -7.5 52t-15.5 50
q-9 27 -17.5 53t-8.5 45q0 48 31.5 79t78.5 31q34 0 61 -17t41 -45q27 -14 44 -40t17 -58z" />
    <glyph glyph-name="parenleft" unicode="(" horiz-adv-x="407" 
d="M335 35q-70 43 -109.5 117t-39.5 169t39.5 169.5t109.5 116.5l-89 145q-53 -32 -95.5 -78t-72.5 -102t-46 -120t-16 -131q0 -68 16.5 -132t47 -120t73 -102t93.5 -77zM301 -182q-66 41 -118 100q-42 36 -76 81.5t-57.5 97t-36.5 108.5t-13 116q0 69 17.5 135.5t50 125.5
t79 108t104.5 84l36 -59l14 9l106 -172q-73 -44 -114 -117t-41 -164q0 -60 18 -112.5t52 -94.5q15 -12 35 -24l-5 -8q12 -12 26 -22.5t29 -19.5z" />
    <glyph glyph-name="parenright" unicode=")" horiz-adv-x="407" 
d="M119 -123l-14 -9l-105 172q73 45 113.5 117.5t40.5 163.5q0 60 -18 112t-51 95l-35 24l5 8q-26 25 -55 42l105 172q34 -20 63.5 -46t55.5 -55q85 -74 134 -179.5t49 -222.5q0 -71 -18.5 -137.5t-51.5 -125.5t-79.5 -107.5t-102.5 -82.5zM110 -110q52 31 94.5 77t73 102
t47 120t16.5 132q0 67 -16.5 131t-46.5 120t-72.5 102t-95.5 78l-88 -145q70 -42 109 -116.5t39 -169.5t-39 -169t-109 -117z" />
    <glyph glyph-name="asterisk" unicode="*" horiz-adv-x="443" 
d="M366 459l-54 100l54 97h-111l-58 99l-58 -99h-111l54 -97l-54 -100h111l58 -96l58 96h111zM315 393q-7 -12 -16 -27t-18.5 -30t-18 -29.5t-15.5 -25.5l-40 67l-10 -17l-37 62h-109l26 50h-76l62 116l-63 113h129q7 13 16 28t18.5 31t18 30.5t15.5 26.5l39 -68q3 5 6 9
t5 9l38 -66h108l-28 -50h78l-62 -113l62 -116h-128z" />
    <glyph glyph-name="plus" unicode="+" horiz-adv-x="563" 
d="M16 468v-189h146v-147h189v147h146v189h-146v146h-189v-146h-146zM146 484v146h221v-50h50v-96h96v-50h50v-221h-146v-147h-221v50h-50v97h-96v50h-50v221h146z" />
    <glyph glyph-name="comma" unicode="," horiz-adv-x="284" 
d="M218 77q0 53 -28 86.5t-75 33.5q-20 0 -37.5 -7.5t-31.5 -21t-22 -31.5t-8 -39q0 -37 24 -65t59 -34q-30 -28 -69 -29l4 -84q38 1 71.5 17t58.5 42t39.5 60t14.5 72zM284 27q0 -41 -17 -78t-46 -65.5t-68 -45.5t-84 -18l-3 57q-11 -3 -23 -4.5t-24 -2.5l-6 115
q17 2 29.5 3.5t20.5 5.5q-28 14 -45.5 42t-17.5 62q0 24 9.5 45t25.5 36.5t36.5 24.5t43.5 9q35 0 61 -16.5t41 -45.5q32 -15 49.5 -47.5t17.5 -76.5z" />
    <glyph glyph-name="hyphen" unicode="-" horiz-adv-x="262" 
d="M196 294v138h-180v-138h180zM50 228v50h-50v170h212v-50h50v-170h-212z" />
    <glyph glyph-name="period" unicode="." horiz-adv-x="280" 
d="M214 96q0 42 -28.5 71t-70.5 29q-20 0 -37.5 -7.5t-31.5 -21t-22 -32t-8 -39.5q0 -20 8 -38t21.5 -31.5t31.5 -21.5t38 -8q21 0 39 8t31.5 22t21 31.5t7.5 37.5zM280 46q0 -23 -9 -43.5t-24.5 -36.5t-36.5 -25.5t-45 -9.5q-34 0 -61 17.5t-41 45.5q-28 14 -45.5 41
t-17.5 61q0 25 9.5 46t25.5 36.5t36.5 24.5t43.5 9q34 0 61 -17.5t41 -45.5q28 -14 45.5 -41.5t17.5 -61.5z" />
    <glyph glyph-name="slash" unicode="/" horiz-adv-x="549" 
d="M476 727h-143l-310 -834h142zM226 -173h-176l18 50h-68l322 866h177l-19 -50h69z" />
    <glyph glyph-name="zero" unicode="0" 
d="M505 364q0 -40 -12.5 -76t-34.5 -63t-51 -43t-63 -16t-63 16.5t-50.5 43.5t-33.5 63t-12 75t12 75t33.5 63t50.5 43.5t63 16.5t63 -16t51 -43.5t34.5 -63.5t12.5 -75zM674 364q0 74 -26 141t-71 118t-105 81t-128 30t-127.5 -30t-104 -81t-70.5 -118t-26 -141
t25.5 -141.5t70 -118.5t104.5 -81t128 -30q69 0 129 30t104.5 81t70.5 118.5t26 141.5zM740 314q0 -78 -27 -148t-74 -123t-110 -84.5t-135 -31.5q-75 0 -139.5 34t-112.5 91q-32 27 -58.5 61.5t-45 74.5t-28.5 84.5t-10 91.5q0 77 27 147t73.5 123t109.5 84.5t134 31.5
q75 0 140 -34.5t113 -92.5q65 -54 104 -134.5t39 -174.5zM489 364q0 32 -8.5 61t-24.5 52q-30 19 -62 19q-30 0 -56.5 -15t-45.5 -40t-30 -58t-11 -69q0 -32 8.5 -61.5t23.5 -53.5q29 -17 61 -17q30 0 56.5 15t46 40t31 58t11.5 69z" />
    <glyph glyph-name="one" unicode="1" horiz-adv-x="339" 
d="M273 0v42h-44v686h-213v-43h44v-643h-44v-42h257zM50 -66v50h-50v74h44v611h-44v75h245v-50h50v-686h44v-74h-289z" />
    <glyph glyph-name="two" unicode="2" horiz-adv-x="513" 
d="M447 481q0 51 -20 95.5t-53.5 78t-78.5 53t-94 19.5q-77 0 -132 -30l-9 33l-40 -10l56 -230l40 10l-6 30q40 28 91 28q32 0 54.5 -22.5t22.5 -54.5q0 -15 -3.5 -27t-13 -27.5t-27.5 -36.5t-48 -53q-34 -36 -61 -64t-45.5 -55.5t-28.5 -58.5t-10 -74v-85h346v-29h42v241
h-42v-43h-128q42 46 76.5 84.5t59 75t38.5 73.5t14 79zM513 431q0 -58 -23 -105.5t-63 -97.5h18v-50h50v-273h-74v29h-346v50h-50v101q0 40 8 70t23 56t37 51t50 54l31 32q28 31 45.5 51t27 34t12.5 25t3 23q0 2 -0.5 5t-0.5 5q-3 0 -5.5 0.5t-4.5 0.5q-20 0 -38 -4t-35 -15
l7 -36l-71 -17l-15 58l-35 -8l-64 262l72 18l7 -30q26 11 57.5 17t64.5 6q63 0 117.5 -29t90.5 -77q47 -36 75.5 -89.5t28.5 -116.5z" />
    <glyph glyph-name="three" unicode="3" horiz-adv-x="538" 
d="M472 238q0 104 -78 175q26 49 26 101q0 43 -17 81.5t-45.5 67t-67.5 45.5t-82 17q-74 0 -133 -47l-20 23l-32 -26l143 -177l33 27l-19 21q14 10 28 10q17 0 29.5 -12.5t12.5 -29.5t-12.5 -28.5t-29.5 -11.5v-170q4 0 10.5 1t15.5 1q29 0 49 -19.5t20 -48.5q0 -27 -20 -48
t-49 -21q-13 0 -23.5 4t-21.5 11l24 28l-33 27l-155 -190l32 -27l26 31q65 -53 151 -53q48 0 91.5 19t76 51.5t51.5 76t19 91.5zM538 188q0 -52 -20.5 -98t-55 -80.5t-80.5 -55t-98 -20.5q-84 0 -149 47q-8 -8 -15 -17.5t-12 -14.5l-55 48l3 3l-53 47l175 214l59 -48l-5 -5
l23 -19q14 7 23 20t9 29l-3 2q-10 0 -20.5 -0.5t-21.5 -1.5v51q-3 1 -8 1q-10 0 -20.5 -0.5t-21.5 -1.5v163l-23 29l-6 -5l-163 202l58 46l18 -23q29 20 62.5 30.5t69.5 10.5q57 0 104.5 -25.5t79.5 -68.5q43 -31 68.5 -79t25.5 -104q0 -25 -6 -49.5t-16 -47.5
q74 -73 74 -179z" />
    <glyph glyph-name="four" unicode="4" horiz-adv-x="561" 
d="M280 280h-89q19 138 89 224v-224zM495 111v169h-46v447h-85q-166 0 -265 -192q-83 -160 -83 -340v-84h264v-69h-44v-43h257v43h-44v69h46zM515 45v-37h44v-75h-289v50h-50v62h-170v50h-50v100q0 182 85 347q103 201 279 201h101v-50h50v-447h46v-201h-46z" />
    <glyph glyph-name="five" unicode="5" horiz-adv-x="541" 
d="M475 238q0 42 -14.5 81t-41 70.5t-63 53t-80.5 29.5l-22 4l14 82h71v-31h43v228h-43v-28h-216l-60 -388l182 -33q26 -5 43 -23t17 -45t-20 -48t-49 -21q-27 0 -47 19l21 24l-32 27l-156 -190l33 -27l28 34q67 -56 153 -56q49 0 92.5 19t76 51.5t51.5 76t19 91.5zM541 188
q0 -52 -20.5 -98t-55 -80.5t-81 -55t-98.5 -20.5q-85 0 -150 50q-8 -9 -16 -18.5t-13 -15.5l-57 47l4 5l-54 45l176 214l-81 15l6 39l-56 11l64 417h214v28h75v-50h50v-260h-75v31h-41l-4 -20q70 -29 113 -87q47 -35 73.5 -86.5t26.5 -110.5zM254 188q16 6 25.5 20t9.5 32
l-111 20l54 -46l-3 -4z" />
    <glyph glyph-name="six" unicode="6" horiz-adv-x="603" 
d="M368 247q0 -32 -22 -55t-54 -23q-15 0 -28.5 6.5t-23.5 17.5t-16 25t-6 29q0 32 21 55t53 23t54 -23t22 -55zM537 247q0 51 -19.5 95.5t-53 78.5t-78 53.5t-94.5 19.5q-13 0 -25.5 -1.5t-24.5 -3.5q50 64 108 68l5 -19l42 12l-60 206l-40 -11l6 -24q-62 -13 -114.5 -50.5
t-90.5 -91t-60 -119t-22 -134.5q0 -64 21.5 -123t59 -104t88 -72t107.5 -27q50 0 94.5 19.5t78 53.5t53 79t19.5 95zM603 197q0 -54 -20.5 -101.5t-56 -83.5t-83 -57t-101.5 -21q-63 0 -117 29.5t-94 79.5q-30 24 -54 55t-41 67.5t-26.5 77.5t-9.5 83q0 69 21.5 135
t59.5 121t89.5 94.5t112.5 56.5l-6 24l71 18l17 -59l33 9l69 -236l-47 -14q46 -27 79 -70q47 -36 75.5 -90.5t28.5 -117.5zM352 247q0 2 -0.5 5t-0.5 6q-2 0 -4.5 0.5t-4.5 0.5q-25 0 -41.5 -18t-16.5 -44q0 -8 1 -12h7q26 0 43 18t17 44z" />
    <glyph glyph-name="seven" unicode="7" horiz-adv-x="571" 
d="M500 727h-443v28h-41v-236h41v39h217l-150 -516h-41v-43h253v43h-37zM370 8h32v-75h-285v50h-50v75h46l125 434h-115v-39h-73v50h-50v268h73v-28h448l-15 -50h65z" />
    <glyph glyph-name="eight" unicode="8" horiz-adv-x="614" 
d="M378 256q0 -18 -8 -34t-21 -27.5t-31 -18.5t-37 -7t-36 6.5t-30.5 18t-21.5 27.5t-8 35t8.5 34.5t22 27t30.5 18t35 6.5q19 0 36.5 -6.5t31 -18.5t21.5 -27.5t8 -33.5zM317 526q0 -30 -36 -30q-14 0 -25 8t-11 22t11 23t25 9q36 0 36 -32zM548 256q0 111 -83 183
q22 46 22 87q0 42 -16.5 78.5t-45 63.5t-66 43t-78.5 16t-78.5 -15.5t-65.5 -43t-44.5 -64t-16.5 -78.5t21 -87q-81 -81 -81 -183q0 -53 21 -99.5t57.5 -81t84.5 -55t102 -20.5t102 19.5t85 54t58.5 81.5t21.5 101zM614 206q0 -57 -23 -107t-61.5 -86.5t-90 -57.5
t-108.5 -21q-69 0 -127.5 30t-96.5 79q-49 38 -78 93t-29 120q0 103 79 187q-9 22 -14 42.5t-5 40.5q0 45 18 85t48 69t70 46t85 17q55 0 102.5 -25.5t78.5 -68.5q42 -29 66.5 -74t24.5 -99q0 -20 -5.5 -41t-13.5 -41q80 -75 80 -188zM362 256q0 5 -2 15q-15 5 -29 5
q-15 0 -29 -5t-25.5 -14.5t-18.5 -22.5t-7 -28v-9t2 -8q12 -4 28 -4t30.5 5.5t26 15.5t18 22.5t6.5 27.5z" />
    <glyph glyph-name="nine" unicode="9" horiz-adv-x="602" 
d="M335 481q0 -32 -21 -56t-53 -24t-54 23.5t-22 56.5q0 32 22 54.5t54 22.5q15 0 28 -6.5t23.5 -17.5t16.5 -24.5t6 -28.5zM536 402q0 62 -21 120.5t-58 104t-87.5 73t-108.5 27.5q-50 0 -94.5 -19.5t-78 -53t-53 -78.5t-19.5 -95q0 -51 19.5 -96t52.5 -78.5t77.5 -53.5
t95.5 -20q22 0 50 5q-48 -63 -109 -69l-5 20l-41 -11l60 -207l40 12l-7 22q61 13 114 51t91 92t60 119.5t22 134.5zM602 352q0 -69 -21.5 -135t-59.5 -121t-89.5 -95.5t-112.5 -57.5l6 -21l-69 -21l-18 60l-32 -10l-70 239l45 12q-45 26 -76 68q-48 36 -76.5 91t-28.5 120
q0 54 21 101.5t56.5 83t83 56.5t100.5 21q63 0 116.5 -29.5t92.5 -79.5q30 -24 54.5 -55.5t41.5 -68t26.5 -76.5t9.5 -82zM319 481q0 2 -0.5 5t-0.5 5q-3 1 -7 1q-26 0 -43 -18t-17 -43q0 -9 1 -13q3 -1 9 -1q25 0 41.5 19t16.5 45z" />
    <glyph glyph-name="colon" unicode=":" horiz-adv-x="280" 
d="M214 96q0 42 -28.5 71t-70.5 29q-20 0 -37.5 -7.5t-31.5 -21t-22 -32t-8 -39.5q0 -20 8 -38t21.5 -31.5t31.5 -21.5t38 -8q21 0 39 8t31.5 22t21 31.5t7.5 37.5zM214 366q0 42 -28.5 71t-70.5 29q-20 0 -37.5 -7.5t-31.5 -21t-22 -32t-8 -39.5q0 -20 8 -38t21.5 -31.5
t31.5 -21.5t38 -8q21 0 39 8t31.5 22t21 31.5t7.5 37.5zM280 46q0 -23 -9 -43.5t-24.5 -36.5t-36.5 -25.5t-45 -9.5q-34 0 -61 17.5t-41 45.5q-28 14 -45.5 41t-17.5 61q0 25 9.5 46t25.5 36.5t37 24.5t44 9q-36 17 -53 52q-28 14 -45.5 41t-17.5 61q0 25 9.5 46t25.5 36.5
t36.5 24.5t43.5 9q34 0 61 -17.5t41 -45.5q28 -14 45.5 -41.5t17.5 -61.5q0 -23 -9 -43.5t-24.5 -36.5t-37 -25.5t-45.5 -9.5q36 -17 53 -52q28 -14 45.5 -41.5t17.5 -61.5z" />
    <glyph glyph-name="semicolon" unicode=";" horiz-adv-x="284" 
d="M16 367q0 -42 28.5 -70.5t70.5 -28.5t71 28.5t29 70.5t-29 71t-71 29t-70.5 -29t-28.5 -71zM218 77q0 53 -28 86.5t-75 33.5q-20 0 -37.5 -7.5t-31.5 -21t-22 -31.5t-8 -39q0 -37 24 -65t59 -34q-30 -28 -69 -29l4 -84q38 1 71.5 17t58.5 42t39.5 60t14.5 72zM0 367
q0 24 9 45t24.5 37t36.5 25t45 9q34 0 61 -17.5t42 -45.5q28 -15 45.5 -42t17.5 -61q0 -24 -9 -45t-25 -36.5t-36.5 -24.5t-44.5 -9q33 -17 51 -51q32 -15 49.5 -47.5t17.5 -76.5q0 -41 -17 -78t-46 -65.5t-68 -45.5t-84 -18l-3 57q-11 -3 -23 -4.5t-24 -2.5l-6 115
q17 2 29.5 3.5t20.5 5.5q-28 14 -45.5 42t-17.5 62q0 24 9.5 45t25.5 36.5t36.5 24.5t43.5 9q-34 16 -53 51q-28 14 -45 41.5t-17 61.5z" />
    <glyph glyph-name="less" unicode="&#x3c;" horiz-adv-x="558" 
d="M492 462v206l-476 -208v-173l476 -208v205l-203 89zM412 337l96 -42v-28l50 -22v-241l-508 222v28l-50 22v195l508 222v-72l50 22v-242z" />
    <glyph glyph-name="equal" unicode="=" horiz-adv-x="563" 
d="M16 589v-189h481v189h-481zM16 343v-188h481v188h-481zM513 605v-50h50v-221h-50v-25h50v-220h-513v50h-50v220h50v25h-50v221h513z" />
    <glyph glyph-name="greater" unicode="&#x3e;" horiz-adv-x="558" 
d="M0 295l146 64l-96 42v28l-50 22v242l508 -222v-28l50 -22v-195l-508 -222v72l-50 -22v241zM219 373l-203 -89v-205l476 208v173l-476 208v-206z" />
    <glyph glyph-name="question" unicode="?" horiz-adv-x="500" 
d="M303 98q0 20 -8 38t-21.5 31.5t-31.5 21.5t-38 8t-38 -7.5t-31.5 -21t-21.5 -31.5t-8 -39t8 -39.5t21.5 -32t31.5 -21t38 -7.5q42 0 70.5 29t28.5 71zM434 495q0 46 -19 88t-51 73.5t-74 50t-88 18.5q-35 0 -67.5 -8.5t-63.5 -27.5l-10 28l-40 -14l86 -231l40 14l-12 30
q18 40 67 40q24 0 43 -19t19 -42q0 -35 -52 -100q-24 -31 -39.5 -53.5t-25.5 -41.5t-15 -37t-8 -40h176q4 11 19.5 33t33 46t33 45.5t20.5 32.5q28 53 28 115zM369 48q0 -24 -9 -45t-24.5 -37t-36.5 -25t-45 -9q-34 0 -61 17.5t-41 45.5q-28 14 -45.5 41t-17.5 62
q0 39 22 67t54 42h-60q4 28 10 50.5t16.5 44.5t26.5 46.5t41 56.5l15 19l-67 -22l-22 59l-28 -9l-97 261l71 24l8 -25q28 14 59.5 21.5t63.5 7.5q59 0 110.5 -28t86.5 -74q45 -34 73 -85t28 -109q0 -62 -29 -122q-3 -8 -18 -28t-31 -43q-18 -25 -34.5 -49t-26.5 -46h-59
q2 -2 2.5 -3.5t1.5 -3.5q28 -14 45.5 -41.5t17.5 -60.5zM217 429q27 39 30 61q-30 -1 -44 -24z" />
    <glyph glyph-name="at" unicode="@" horiz-adv-x="824" 
d="M440 259q-29 -27 -61 -27q-19 0 -34.5 8.5t-27 22t-17.5 30.5t-6 35q0 37 22 59.5t64 22.5q13 0 22 -3q29 -80 38 -148zM758 364q0 75 -29.5 143.5t-79.5 120.5t-117.5 82.5t-143.5 30.5q-77 0 -144.5 -30.5t-118 -82.5t-80 -120t-29.5 -144t29.5 -144.5t80 -120.5
t118 -82.5t144.5 -30.5q71 0 141 29l-37 87q-47 -22 -104 -22q-58 0 -108.5 23t-88 62t-59.5 90.5t-22 108.5t22 108.5t59.5 90.5t88.5 62t108 23t107.5 -23.5t88 -62.5t59.5 -90.5t22 -107.5q0 -65 -29 -126h-100q-20 180 -105 334h-123v-23h29q17 -28 25 -46
q-37 -3 -66.5 -18t-50.5 -39t-32 -55.5t-11 -68.5q0 -38 13 -71.5t36 -58t54.5 -38.5t67.5 -14t76 16l1 -11h240q68 115 68 219zM824 314q0 -109 -75 -235h-230l7 -17l25 11l49 -117q-86 -36 -162 -36q-89 0 -164.5 38t-129.5 101q-66 55 -105 134.5t-39 170.5
q0 79 30.5 150.5t83 125.5t123.5 85.5t151 31.5q88 0 162.5 -38t128.5 -101q66 -55 105.5 -134t39.5 -170zM649 364q0 45 -15.5 87t-41.5 77q-32 24 -69 38t-79 16l22 -44h25q37 -67 62 -139t39 -145h34q11 25 17 53t6 57zM232 150q39 -31 89 -45q-29 19 -51 50
q-38 26 -61 69.5t-23 97.5q0 78 37.5 130.5t113.5 63.5l-9 17l-36 2q-53 -37 -84.5 -95t-31.5 -126q0 -46 15 -87.5t41 -76.5zM379 248q24 0 44 17q-3 18 -7.5 37t-9.5 39q-23 -6 -34.5 -23t-11.5 -40q0 -14 5 -29q4 -1 14 -1z" />
    <glyph glyph-name="A" unicode="A" horiz-adv-x="633" 
d="M353 385l-123 -40q35 120 110 213h13v-173zM567 0v42h-43v643h43v43h-380v-43h40q-93 -106 -140.5 -234.5t-47.5 -265.5q0 -35 3.5 -71t10.5 -72h-37v-42h256v42h-46q-8 29 -12 58.5t-5 59.5l144 48v-166h-44v-42h258zM343 -66v50h-5v-50h-288v50h-50v74h33
q-5 32 -7.5 63.5t-2.5 63.5q0 132 42.5 255t127.5 229h-22v75h412v-50h50v-75h-43v-611h43v-74h-290zM288 8h5v50h44v61l-62 -20l3 -41h10v-50z" />
    <glyph glyph-name="B" unicode="B" horiz-adv-x="577" 
d="M342 225q0 -23 -16.5 -39.5t-39.5 -16.5h-57v110h57q23 -2 39.5 -16.5t16.5 -37.5zM294 501q0 -51 -65 -53v109q65 0 65 -56zM511 225q0 101 -77 167q29 53 29 109q0 46 -18 87t-48.5 72t-71.5 49t-87 18h-222v-42h44v-643h-44v-42h270q46 0 86.5 18t71.5 48.5t49 71.5
t18 87zM577 175q0 -50 -19 -93.5t-52 -76.5t-77 -52t-93 -19h-286v50h-50v74h44v611h-44v74h238q58 0 108 -26.5t83 -70.5q45 -33 72.5 -84t27.5 -111q0 -55 -25 -106q73 -70 73 -170zM295 186q10 2 17.5 9.5t11.5 17.5h-29v-27z" />
    <glyph glyph-name="C" unicode="C" horiz-adv-x="750" 
d="M678 86l-181 181l-30 -29l29 -29q-53 -39 -116 -39q-41 0 -76.5 15.5t-61.5 41.5t-41.5 61.5t-15.5 75.5t15.5 75.5t41.5 61.5t61.5 41.5t76.5 15.5q65 0 117 -41l-30 -30l30 -30l181 182l-30 30l-31 -31q-101 89 -237 89q-75 0 -141 -28.5t-115.5 -78t-78.5 -115.5
t-29 -141t28.5 -141t78 -115.5t116 -78t141.5 -28.5q135 0 236 87l32 -32zM698 -16l-33 33q-50 -38 -109.5 -60t-125.5 -22q-89 0 -164.5 37.5t-128.5 100.5q-63 52 -100 127.5t-37 163.5q0 78 30 147t82 120.5t121 81.5t147 30q136 0 237 -83l31 31l102 -102l-203 -204
l-102 102l4 4q-5 0 -9.5 0.5t-9.5 0.5q-37 0 -69.5 -14t-57 -38t-38.5 -56.5t-14 -69.5q0 -27 7.5 -52t21.5 -46q22 -14 47 -22t53 -8q51 0 91 26l-27 27l53 50l253 -253z" />
    <glyph glyph-name="D" unicode="D" horiz-adv-x="692" 
d="M456 364q0 -40 -15 -75.5t-41.5 -62t-61.5 -42t-75 -15.5h-34v388h34q40 0 75 -15.5t61 -41.5t41.5 -61t15.5 -75zM626 364q0 74 -29 140t-78.5 115.5t-115.5 78.5t-140 29h-247v-42h44v-643h-44v-42h247q74 0 140 29t115.5 78.5t78.5 115.5t29 141zM692 314
q0 -78 -30 -147t-82 -121t-120.5 -82t-146.5 -30h-263v50h-50v74h44v611h-44v74h263q88 0 163 -37.5t128 -100.5q63 -53 100.5 -128t37.5 -163zM440 364q0 53 -30 97q-44 30 -97 30h-18v-303q31 6 57.5 22t46 39.5t30.5 53t11 61.5z" />
    <glyph glyph-name="E" unicode="E" horiz-adv-x="523" 
d="M457 0v214h-42v-44h-186v103h96v-34h43v237h-43v-34h-96v116h160v-45h41v215h-414v-43h44v-643h-44v-42h441zM50 -66v50h-50v74h44v611h-44v75h446v-50h50v-247h-73v45h-39v-50h50v-212h39v-50h50v-246h-473zM295 186h64v21h-64v-21zM309 492h-14v-34h14v34z" />
    <glyph glyph-name="F" unicode="F" horiz-adv-x="497" 
d="M431 513v215h-415v-43h43v-643h-43v-42h256v42h-43v231h97v-34h42v237h-42v-34h-97v116h160v-45h42zM423 447v45h-39v-50h50v-269h-74v34h-65v-199h43v-74h-288v50h-50v74h43v611h-43v75h447v-50h50v-247h-74zM310 492h-15v-34h15v34z" />
    <glyph glyph-name="G" unicode="G" horiz-adv-x="833" 
d="M767 0v42h-41q-9 87 -32.5 169t-52.5 141h-216v-42h48q10 -16 20 -37.5t21 -49.5q-59 -54 -135 -54q-40 0 -75.5 15.5t-61.5 41.5t-41.5 61.5t-15.5 75.5t15.5 75.5t41.5 61.5t61.5 41.5t75.5 15.5q66 0 118 -40l-30 -31l30 -30l181 182l-29 30l-31 -31q-102 89 -239 89
q-74 0 -140 -29t-115.5 -78.5t-78.5 -115.5t-29 -140q0 -75 28.5 -141t78 -115.5t115.5 -78t141 -28.5q94 0 176 46q2 -16 3 -27t1 -19h208zM593 -66v19.5t-1 17.5q-38 -18 -78.5 -27.5t-84.5 -9.5q-88 0 -163.5 37t-128.5 100q-63 53 -100 128.5t-37 163.5q0 78 30 146.5
t82 120.5t120.5 82t146.5 30q133 0 238 -84l33 33l100 -103l-203 -204l-102 102l4 4q-5 0 -10 0.5t-10 0.5q-37 0 -69.5 -14t-56.5 -38t-38 -56.5t-14 -69.5q0 -56 29 -99q43 -29 99 -29q64 0 116 43q-2 4 -3.5 8t-3.5 8h-29v50h-50v74h241q6 -12 11.5 -24.5t11.5 -25.5h27
q26 -54 49 -127.5t41 -182.5h43v-74h-240z" />
    <glyph glyph-name="H" unicode="H" horiz-adv-x="658" 
d="M592 0v42h-43v643h43v43h-256v-43h44v-149h-152v149h44v43h-256v-43h43v-643h-43v-42h256v42h-44v325h152v-325h-44v-42h256zM370 -66v50h-32v-50h-288v50h-50v74h43v611h-43v75h288v-50h32v50h288v-50h50v-75h-43v-611h43v-74h-288zM364 58v243h-70v-293h26v50h44z
M338 669v-50h-44v-67h70v117h-26z" />
    <glyph glyph-name="I" unicode="I" horiz-adv-x="339" 
d="M273 0v42h-44v643h44v43h-257v-43h44v-643h-44v-42h257zM50 -66v50h-50v74h44v611h-44v75h289v-50h50v-75h-44v-611h44v-74h-289z" />
    <glyph glyph-name="J" unicode="J" horiz-adv-x="504" 
d="M438 689v42h-256v-42h45v-497q0 -14 -10 -24.5t-24 -10.5q-16 0 -23 9l15 23l-35 23l-128 -190l35 -23l18 26q54 -37 118 -37q42 0 78.5 16t64.5 44t44 65t16 79v497h42zM462 623v-481q0 -45 -17.5 -85t-47 -70t-69.5 -47.5t-85 -17.5q-62 0 -114 31l-18 -26l-61 40l8 12
l-58 38l145 217l63 -41l-9 -12l5 -4q7 7 7 15v481h-45v74h288v-50h50v-74h-42z" />
    <glyph glyph-name="K" unicode="K" horiz-adv-x="653" 
d="M587 689v42h-279v-42h21l-101 -143v139h44v43h-256v-43h43v-643h-31v-42h244v42h-44v214l25 34q12 -70 34 -125.5t52 -94.5t67.5 -60t80.5 -21q22 0 40 9.5t31 25.5t20 36.5t7 42.5q0 48 -31 80q-8 -14 -25 -14q-69 0 -189 243l196 277h51zM594 623l-186 -263
q55 -112 98 -168q11 -7 23 -7q8 0 22 25q30 -32 42 -64l8 14q50 -51 50 -107q0 -25 -8 -48.5t-23 -41.5t-36 -29t-47 -11q-48 0 -88.5 22.5t-73.5 64.5q-48 35 -81 99v-101h44v-74h-276v50h-50v74h31v611h-43v75h288v-50h4v53h311v-50h50v-74h-59z" />
    <glyph glyph-name="L" unicode="L" horiz-adv-x="497" 
d="M431 0v214h-43v-44h-160v516h44v42h-256v-42h43v-644h-43v-42h415zM50 -66v50h-50v74h43v612h-43v74h288v-50h50v-74h-44v-434h78v44h75v-50h50v-246h-447z" />
    <glyph glyph-name="M" unicode="M" horiz-adv-x="794" 
d="M728 0v42h-41q18 62 26.5 123t8.5 122q0 212 -98 398h51v42h-212l-92 -317l-91 317h-211v-42h50q-98 -187 -98 -398q0 -125 35 -245h-40v-42h265v42h-46q-45 118 -45 245q0 56 10 112l90 -315h163l90 315q5 -29 7.5 -56.5t2.5 -55.5q0 -127 -45 -245h-47v-42h267z
M495 -66v50h-50v34h-117l-14 50h-36l3 -10h16v-50h50v-74h-297v50h-50v74h35q-30 112 -30 229q0 202 88 382h-40v74h239l14 -50h36l47 -164l62 214h240v-50h50v-74h-41q45 -91 66.5 -185.5t21.5 -196.5q0 -57 -7 -114t-23 -115h36v-74h-299z" />
    <glyph glyph-name="N" unicode="N" horiz-adv-x="637" 
d="M571 0v42h-43v643h43v43h-256v-43h44v-178l-87 221h-192v-43h37q-98 -205 -98 -398q0 -61 8.5 -122t26.5 -123h-38v-42h256v42h-40q-23 59 -33.5 120t-10.5 125q0 82 16 149l155 -394h-44v-42h256zM349 -66v50h-11v-50h-288v50h-50v74h33q-16 58 -23 115t-7 114
q0 185 89 382h-28v75h219l16 -41v41h288v-50h50v-75h-43v-611h43v-74h-288zM288 22q1 -7 5 -14h6v50h37l-82 206v-27q0 -90 23 -179h11v-36z" />
    <glyph glyph-name="O" unicode="O" 
d="M505 364q0 -40 -12.5 -76t-34.5 -63t-51 -43t-63 -16t-63 16.5t-50.5 43.5t-33.5 63t-12 75t12 75t33.5 63t50.5 43.5t63 16.5t63 -16t51 -43.5t34.5 -63.5t12.5 -75zM674 364q0 74 -26 141t-71 118t-105 81t-128 30t-127.5 -30t-104 -81t-70.5 -118t-26 -141
t25.5 -141.5t70 -118.5t104.5 -81t128 -30q69 0 129 30t104.5 81t70.5 118.5t26 141.5zM740 314q0 -78 -27 -148t-74 -123t-110 -84.5t-135 -31.5q-75 0 -139.5 34t-112.5 91q-32 27 -58.5 61.5t-45 74.5t-28.5 84.5t-10 91.5q0 77 27 147t73.5 123t109.5 84.5t134 31.5
q75 0 140 -34.5t113 -92.5q65 -54 104 -134.5t39 -174.5zM489 364q0 32 -8.5 61t-24.5 52q-30 19 -62 19q-30 0 -56.5 -15t-45.5 -40t-30 -58t-11 -69q0 -32 8.5 -61.5t23.5 -53.5q29 -17 61 -17q30 0 56.5 15t46 40t31 58t11.5 69z" />
    <glyph glyph-name="P" unicode="P" horiz-adv-x="563" 
d="M329 474q0 -35 -24.5 -58t-59.5 -23h-15v165h15q35 0 59.5 -24.5t24.5 -59.5zM497 474q0 52 -20 98t-54.5 80.5t-80 55t-97.5 20.5h-229v-43h45v-643h-33v-42h236v42h-34v181q57 0 106 19t84.5 53t56 79.5t20.5 99.5zM563 424q0 -55 -20 -102.5t-56 -83t-85 -57
t-106 -24.5v-149h34v-74h-268v50h-50v74h33v611h-45v75h245q64 0 119 -28.5t92 -76.5q49 -38 78 -93.5t29 -121.5zM313 474q0 6 -2 16q-10 2 -15 2v-62q17 20 17 44z" />
    <glyph glyph-name="Q" unicode="Q" 
d="M505 368q0 -39 -12.5 -75t-34 -63t-50.5 -43.5t-63 -16.5t-63 16t-50.5 43.5t-34 63.5t-12.5 75t12.5 75t34 63t51 43.5t62.5 16.5q34 0 63 -16.5t50.5 -43.5t34 -63t12.5 -75zM674 368q0 74 -25.5 141.5t-70 118.5t-104.5 81t-129 30t-129 -30.5t-104.5 -81.5t-70 -118
t-25.5 -141q0 -65 20.5 -126t56.5 -110.5t85.5 -83.5t108.5 -45q8 -39 23.5 -72t37 -56.5t47.5 -37t55 -13.5q24 0 45 9.5t36.5 25.5t24 37t8.5 44q0 37 -21 64q-16 -16 -36 -16q-30 0 -54 29q48 19 89 55t70 82.5t45.5 101.5t16.5 112zM740 318q0 -50 -12 -98.5t-34.5 -92
t-54 -80t-69.5 -62.5q2 -5 4 -11t3 -11q9 6 18 15q35 -46 35 -88q0 -26 -10 -50t-27.5 -42t-41 -29t-51.5 -11q-38 0 -71.5 20t-58.5 55q-28 19 -50 49.5t-36 69.5q-41 15 -76 41t-64 61q-33 27 -59.5 62t-45.5 75.5t-29 85t-10 91.5q0 77 27 147t73.5 123.5t109.5 85
t135 31.5q75 0 139.5 -33.5t112.5 -90.5q66 -54 104.5 -136.5t38.5 -176.5zM489 368q0 64 -33 114q-29 18 -61 18q-30 0 -56.5 -15t-46 -40t-30.5 -58t-11 -69q0 -32 8.5 -61.5t23.5 -52.5q27 -18 62 -18q30 0 56.5 15t46 40t30.5 58t11 69z" />
    <glyph glyph-name="R" unicode="R" horiz-adv-x="607" 
d="M330 474q0 -35 -24.5 -58t-59.5 -23h-15v165h15q17 0 32.5 -6.5t27 -18t18 -26.5t6.5 -33zM541 98q0 34 -21 66q-7 -10 -21 -10q-43 0 -101 120q101 75 101 200q0 52 -20 98t-54.5 80.5t-80.5 55t-98 20.5h-230v-43h46v-643h-33v-42h235v42h-33v182h25q2 -49 16 -92.5
t37 -76.5t53 -52t65 -19q23 0 43.5 9t36.5 24.5t25 36.5t9 44zM607 48q0 -27 -10.5 -50.5t-28.5 -41t-41.5 -28t-49.5 -10.5q-38 0 -70.5 20t-57.5 55l-19 14v-73h-267v50h-50v74h33v611h-46v75h246q65 0 120 -29t92 -77q49 -38 78 -93.5t29 -120.5q0 -61 -25.5 -113.5
t-71.5 -91.5q14 -29 31 -49q7 0 22 22q24 -38 33 -70q3 2 7.5 7t9.5 13q17 -26 26.5 -49.5t9.5 -44.5zM314 474q0 6 -2 16q-10 2 -15 2v-62q8 8 12.5 19t4.5 25zM329 8q-9 8 -16.5 17t-15.5 20v-37h32z" />
    <glyph glyph-name="S" unicode="S" horiz-adv-x="480" 
d="M414 202q0 71 -53 144q-11 13 -35.5 39.5t-64.5 66.5q-52 52 -52 83q0 17 12 27.5t38 10.5q30 0 51 -12t34 -32v-27h43v237h-43v-14q-20 6 -43 9.5t-48 3.5q-43 0 -82 -15.5t-68.5 -42.5t-47 -64t-17.5 -81q0 -74 54 -144q8 -13 33 -39t66 -68q54 -56 54 -84
q0 -20 -15 -32t-46 -12q-33 0 -64.5 12.5t-61.5 33.5v27h-42v-236h42v21q72 -25 123 -25q49 0 91.5 16.5t74 45t49.5 67.5t18 84zM480 152q0 -48 -19 -90t-53 -73t-79.5 -48.5t-97.5 -17.5q-46 0 -107 19v-15h-74v50h-50v268h74v-35q7 -2 17.5 -8.5t24 -13t31 -11.5t37.5 -5
q45 0 45 28q0 24 -49 73q-42 42 -67.5 69t-34.5 39q-56 76 -56 154q0 47 18.5 87t50.5 69.5t73.5 46t88.5 16.5q20 0 38.5 -1.5t36.5 -6.5v9h75v-50h50v-269h-75v38l-11 12h-39v19q-5 1 -9.5 1.5t-9.5 0.5q-34 0 -34 -22q0 -25 47 -72q38 -38 63 -65.5t38 -42.5
q57 -77 57 -153z" />
    <glyph glyph-name="T" unicode="T" horiz-adv-x="535" 
d="M469 513v215h-453v-215h43v46h99v-516h-44v-43h257v43h-44v516h100v-46h42zM461 447v46h-68v-484h44v-75h-289v50h-50v75h44v434h-17v-46h-75v50h-50v247h485v-50h50v-247h-74z" />
    <glyph glyph-name="U" unicode="U" horiz-adv-x="669" 
d="M603 685v43h-257v-43h46v-432q0 -35 -24.5 -59.5t-59.5 -24.5t-58 24.5t-23 59.5v432h45v43h-256v-43h41v-432q0 -53 20 -99t54 -80t79.5 -54t97.5 -20t98 20t80.5 54.5t54.5 80.5t20 98v432h42zM627 619v-416q0 -56 -21.5 -104.5t-58 -85.5t-85.5 -58t-104 -21
q-65 0 -120 28.5t-92 76.5q-48 37 -76.5 92.5t-28.5 121.5v416h-41v75h288v-50h42v50h289v-50h50v-75h-42zM338 669v-50h-45v-416q0 -5 0.5 -8.5t1.5 -8.5q4 -1 13 -1q28 0 48 20t20 48v416h-38z" />
    <glyph glyph-name="V" unicode="V" horiz-adv-x="634" 
d="M568 685v43h-258v-43h47q9 -34 13 -69.5t4 -72.5q0 -209 -132 -374h-13v516h43v43h-256v-43h44v-642h-44v-43h379v43h-40q188 217 188 500q0 38 -3 73.5t-11 68.5h39zM599 619q5 -29 7.5 -61t2.5 -65q0 -272 -170 -484h22v-75h-411v50h-50v75h44v610h-44v75h288v-50h6v50
h290v-50h50v-75h-35zM358 543q0 20 -1.5 38.5t-3.5 37.5h-9v50h-6v-50h-43v-340q63 121 63 264z" />
    <glyph glyph-name="W" unicode="W" horiz-adv-x="794" 
d="M728 686v42h-266v-42h46q45 -119 45 -245q0 -26 -2 -54t-7 -59l-91 316h-163l-90 -316q-5 31 -7 59t-2 54q0 64 10.5 125t33.5 120h46v42h-265v-42h40q-35 -120 -35 -245q0 -100 24 -202t74 -197h-50v-42h211l91 317l92 -317h212v42h-51q51 97 74.5 201.5t23.5 197.5
q0 63 -8.5 124t-26.5 121h41zM758 620q17 -57 23.5 -113t6.5 -116q0 -89 -20.5 -188.5t-67.5 -194.5h41v-74h-240l-15 50h-35l-48 165l-61 -215h-239v50h-50v74h40q-45 93 -66.5 190t-21.5 193q0 116 30 229h-35v74h297v-50h50v-34h118l14 -50h36l-3 10h-16v50h-50v74h298
v-50h50v-74h-36z" />
    <glyph glyph-name="X" unicode="X" horiz-adv-x="697" 
d="M631 0v43h-44l-166 320q21 33 45.5 70t45.5 77.5t35 84t14 91.5h49v42h-257v-42h36q-2 -46 -20 -80.5t-38 -71.5l-80 152h22v42h-257v-42h44l158 -304q-114 -149 -144 -339h-47v-43h256v43h-38q20 93 63 169l89 -169h-22v-43h256zM409 -66v50h-50v75h12l-25 46
q-19 -44 -31 -96h34v-75h-288v50h-50v75h49q17 94 50.5 173.5t88.5 151.5l-122 236h-27v50h-50v74h289v-50h48v50h289v-50h50v-74h-49q-5 -35 -17 -72t-28 -72.5t-34.5 -68.5t-35.5 -60l-23 -35l131 -253h27v-50h50v-75h-288zM339 670v-50h-12l16 -32q10 19 17.5 39t11.5 43
h-33z" />
    <glyph glyph-name="Y" unicode="Y" horiz-adv-x="687" 
d="M621 685v43h-259v-43h36l-81 -206l-79 206h37v43h-259v-43h40l178 -460v-182h-43v-43h256v43h-44v190l176 452h42zM640 619q-43 -112 -85.5 -219.5t-85.5 -219.5v-171h44v-75h-288v50h-50v75h43v163l-154 397h-14v37l-5 13h-45v75h291v-50h50v-75h-29l21 -56l41 106h-28
v75h291v-50h50v-75h-47z" />
    <glyph glyph-name="Z" unicode="Z" horiz-adv-x="660" 
d="M590 176l-41 12l-9 -29q-99 30 -219 30q-34 0 -64 -3l211 381v161h-429v-206h41v37h191l-252 -452l101 -121q52 17 103 26t104 9q81 0 164 -24l-7 -22l41 -12zM586 -107l-74 22l9 21q-35 9 -71 14t-73 5q-52 0 -104.5 -9.5t-107.5 -27.5l-44 53l-6 -3l-115 138l215 387
h-69v-37h-73v50h-50v238h461v-50h50v-181l-172 -309q90 -3 168 -25l9 29l71 -22l-10 -32l60 -18z" />
    <glyph glyph-name="bracketleft" unicode="[" horiz-adv-x="318" 
d="M16 -135h236v59h-75v755h75v58h-236v-872zM0 753h268v-50h50v-90h-75v-673h25v-50h50v-91h-268v50h-50v904z" />
    <glyph glyph-name="backslash" unicode="\" horiz-adv-x="549" 
d="M0 743h176l18 -50h32l323 -866h-177l-19 50h-31zM333 -107h143l-311 834h-142z" />
    <glyph glyph-name="bracketright" unicode="]" horiz-adv-x="318" 
d="M318 -201h-268v50h-50v91h75v673h-25v50h-50v90h268v-50h50v-904zM252 737h-236v-58h75v-755h-75v-59h236v872z" />
    <glyph glyph-name="asciicircum" unicode="^" horiz-adv-x="602" 
d="M25 358h206l45 103l45 -103h206l-174 398h-153zM189 772h175l22 -50h28l188 -430h-241l-22 50h-26l-21 -50h-242l22 50h-72z" />
    <glyph glyph-name="underscore" unicode="_" horiz-adv-x="450" 
d="M0 -80v74h450v-74h-450z" />
    <glyph glyph-name="grave" unicode="`" horiz-adv-x="253" 
d="M147 591q-35 26 -59.5 42.5t-40.5 27.5q-27 17 -37 28.5t-10 35.5q0 26 18 44.5t44 18.5q23 0 41 -19t44 -53q16 -22 40 -51.5t66 -73.5h-106zM215 607q-25 27 -44.5 52.5t-35.5 46.5q-23 30 -39 48t-34 18q-20 0 -33 -13.5t-13 -33.5q0 -9 1.5 -15t5.5 -11t12 -10.5
t20 -13.5q16 -11 39 -26.5t58 -41.5h63z" />
    <glyph glyph-name="a" unicode="a" horiz-adv-x="522" 
d="M282 310l-89 -29q26 86 83 158h6v-129zM456 0v40h-33v499h33v41h-306v-41h27q-71 -85 -107 -184t-36 -206q0 -55 9 -109h-27v-40h208v40h-37q-6 23 -9 43.5t-3 43.5l107 35v-122h-35v-40h209zM50 -66v50h-50v72h24q-3 22 -4.5 46t-1.5 47q0 100 32.5 196t93.5 178h-10v73
h338v-50h50v-73h-33v-467h33v-72h-472zM266 56v17q-14 -5 -25 -8v-9h25z" />
    <glyph glyph-name="b" unicode="b" horiz-adv-x="479" 
d="M272 181q0 -17 -11.5 -29t-28.5 -12h-41v80h41q17 -2 28.5 -12t11.5 -27zM235 399q0 -36 -44 -39v78q44 -3 44 -39zM413 181q0 78 -60 132q21 40 21 86q0 36 -14.5 69t-39 58t-57.5 39.5t-70 14.5h-177v-41h34v-499h-34v-40h216q36 0 69 14.5t58 39t39.5 57.5t14.5 70z
M479 131q0 -41 -16 -76.5t-43 -62.5t-62.5 -42.5t-75.5 -15.5h-232v50h-50v72h34v467h-34v73h193q50 0 92 -24t69 -62q39 -27 62.5 -69.5t23.5 -91.5q0 -23 -4 -42t-14 -40q57 -54 57 -136z" />
    <glyph glyph-name="c" unicode="c" horiz-adv-x="618" 
d="M546 72l-147 148l-30 -29l23 -23q-37 -28 -86 -28q-31 0 -58 12t-47.5 32.5t-32 48t-11.5 58.5q0 30 11.5 57t32 47.5t47.5 32t58 11.5q48 0 88 -28l-25 -24l30 -29l147 149l-29 28l-24 -24q-80 69 -187 69q-59 0 -112 -23t-92.5 -62.5t-62.5 -92t-23 -111.5
q0 -60 23 -113t62.5 -92t92 -62t112.5 -23q53 0 99.5 16t86.5 50l25 -25zM569 -30l-28 26q-81 -61 -185 -61q-73 0 -135.5 31.5t-104.5 84.5q-53 42 -84.5 104.5t-31.5 135.5q0 63 24.5 118.5t66 97t97 65.5t118.5 24q104 0 186 -64l25 25l101 -100l-169 -171l-89 87h-4
q-27 0 -51.5 -10.5t-42.5 -28.5t-28.5 -42t-10.5 -51q0 -19 5 -36t13 -32q29 -17 65 -17q34 0 61 15l-21 21l53 50l219 -220z" />
    <glyph glyph-name="d" unicode="d" horiz-adv-x="569" 
d="M363 290q0 -30 -12 -57.5t-32 -48t-47 -32.5t-58 -12h-23v298h23q30 0 57.5 -11.5t47.5 -31.5t32 -47t12 -58zM503 290q0 59 -23 111.5t-62.5 92.5t-92 63t-111.5 23h-198v-41h34v-499h-34v-40h198q60 0 112.5 23t91.5 62.5t62 92t23 112.5zM569 240q0 -63 -24 -118.5
t-65.5 -97.5t-97 -66t-118.5 -24h-214v50h-50v72h34v467h-34v73h214q72 0 133.5 -31.5t103.5 -84.5q54 -43 86 -105.5t32 -134.5zM347 290q0 35 -17 64q-30 18 -66 18h-7v-209q39 14 64.5 49t25.5 78z" />
    <glyph glyph-name="e" unicode="e" horiz-adv-x="437" 
d="M371 0v175h-41v-35h-139v74h68v-25h41v193h-41v-27h-68v84h119v-35h40v176h-334v-41h35v-499h-35v-40h355zM50 -66v50h-50v72h35v467h-35v73h366v-50h50v-208h-50v-147h21v-50h50v-207h-387zM316 373v-25h28v25h-28z" />
    <glyph glyph-name="f" unicode="f" horiz-adv-x="415" 
d="M349 404v176h-333v-41h34v-499h-34v-40h210v40h-35v174h69v-25h40v193h-40v-27h-69v84h119v-35h39zM366 338v-215h-72v25h-37v-142h35v-72h-242v50h-50v72h34v467h-34v73h365v-50h50v-208h-49zM316 373v-25h28v25h-28z" />
    <glyph glyph-name="g" unicode="g" horiz-adv-x="681" 
d="M615 0v40h-35q-7 69 -25.5 133.5t-39.5 110.5h-178v-39h40q7 -12 14.5 -28t15.5 -37q-44 -40 -103 -40q-30 0 -57 11.5t-47.5 32t-32 47.5t-11.5 58t11.5 58t32 47.5t47.5 32t57 11.5q47 0 89 -28l-25 -24l30 -28l147 148l-28 29l-24 -25q-83 70 -189 70
q-59 0 -111.5 -23.5t-91.5 -63t-62 -92.5t-23 -112t23 -111.5t62 -92t91.5 -62.5t111.5 -23q38 0 71.5 8.5t65.5 24.5q2 -12 2 -19.5v-13.5h172zM477 -66q0 4 0.5 6t0.5 7q0 7 -1 12q-59 -25 -123 -25q-72 0 -134 31.5t-104 84.5q-54 42 -85 104.5t-31 134.5q0 62 24 118
t65.5 98t97 66.5t117.5 24.5q103 0 188 -65l25 26l100 -101l-155 -156h64q5 -12 10.5 -24t10.5 -26h29q23 -48 42 -111.5t27 -132.5h36v-72h-204zM321 300h112l-74 72h-5q-27 0 -51 -10.5t-42 -28.5t-28.5 -42t-10.5 -52q0 -35 17 -66q29 -17 65 -17q22 0 40.5 5t35.5 18h-9
v44l-3 6h-47v71z" />
    <glyph glyph-name="h" unicode="h" horiz-adv-x="543" 
d="M477 0v40h-35v499h35v41h-210v-41h35v-110h-112v110h35v41h-209v-41h33v-499h-33v-40h209v40h-35v249h112v-249h-35v-40h210zM301 -66v50h-10v-50h-241v50h-50v72h33v467h-33v73h241v-50h10v50h242v-50h50v-73h-35v-467h35v-72h-242zM286 56v167h-30v-167h30zM286 445v28
h-30v-28h30z" />
    <glyph glyph-name="i" unicode="i" horiz-adv-x="291" 
d="M225 0v40h-34v499h34v41h-209v-41h34v-499h-34v-40h209zM50 -66v50h-50v72h34v467h-34v73h241v-50h50v-73h-34v-467h34v-72h-241z" />
    <glyph glyph-name="j" unicode="j" horiz-adv-x="423" 
d="M357 543v40h-208v-40h35v-389q0 -10 -6.5 -16.5t-15.5 -6.5q-4 0 -8 1.5t-7 3.5l12 17l-32 22l-105 -154l34 -23l13 21q42 -28 93 -28q33 0 62.5 13t52 35t35.5 52t13 63v389h32zM391 477v-373q0 -37 -14.5 -69.5t-39 -57t-57 -38.5t-68.5 -14q-47 0 -88 22l-12 -21
l-62 40l8 13l-58 37l123 181l45 -32v362h-35v72h240v-50h50v-72h-32z" />
    <glyph glyph-name="k" unicode="k" horiz-adv-x="538" 
d="M472 543v40h-225v-40h12q-17 -24 -35 -50t-34 -49v98h34v41h-208v-41h33v-502h-24v-40h199v40h-34v164q3 5 7 9.5t7 9.5q10 -53 27.5 -96t41.5 -73t54 -46.5t63 -16.5q18 0 33 8t25.5 21t16.5 30t6 35q0 37 -28 67q-8 -12 -19 -12q-51 0 -145 188q38 54 75 107.5
t76 107.5h42zM488 477q-22 -30 -44 -61.5t-43 -62.5l-54 -77q19 -37 36 -67t33 -52q3 -1 8 -1q1 0 5 4.5t12 17.5q14 -16 25 -31.5t16 -31.5l9 13q22 -23 34 -46.5t12 -46.5q0 -21 -7 -41t-20 -35.5t-31 -24.5t-39 -9q-40 0 -74.5 20t-61.5 57q-26 19 -48 48v-44h34v-72
h-231v50h-50v72h24v467h-33v76h488v-50h50v-72h-50z" />
    <glyph glyph-name="l" unicode="l" horiz-adv-x="415" 
d="M349 0v175h-40v-35h-119v400h36v40h-210v-40h34v-500h-34v-40h333zM50 -66v50h-50v72h34v468h-34v72h242v-50h50v-72h-36v-318h37v35h72v-50h50v-207h-365z" />
    <glyph glyph-name="m" unicode="m" horiz-adv-x="650" 
d="M584 0v40h-30q14 48 20 94.5t6 94.5q0 166 -74 310h37v41h-173l-70 -240l-69 240h-173v-41h36q-73 -146 -73 -310q0 -97 26 -189h-31v-40h217v40h-38q-17 47 -25.5 94t-8.5 95q0 17 1.5 35t3.5 37l68 -235h133l68 235q2 -17 3.5 -35.5t1.5 -36.5q0 -48 -9 -95t-26 -94
h-38v-40h217zM401 -66v50h-50v16h-52v-66h-249v50h-50v72h26q-11 44 -16 86t-5 87q0 76 17 151t47 143h-27v73h201l14 -50h36l25 -88l40 138h201v-50h50v-73h-28q32 -69 48.5 -142.5t16.5 -151.5q0 -44 -5 -86t-16 -87h25v-72h-249zM249 28q3 -14 7 -22h14l-13 44h-8v-22z
" />
    <glyph glyph-name="n" unicode="n" horiz-adv-x="526" 
d="M460 0v40h-33v499h33v41h-209v-41h34v-117l-62 158h-157v-41h26q-38 -81 -56 -157.5t-18 -152.5q0 -46 6.5 -94.5t18.5 -94.5h-27v-40h209v40h-32q-36 90 -36 189q0 53 11 106q29 -76 57.5 -148t57.5 -147h-32v-40h209zM50 -66v50h-50v72h23q-10 43 -15.5 87.5t-5.5 85.5
q0 72 15.5 144.5t49.5 149.5h-17v73h426v-50h50v-73h-33v-467h33v-72h-476zM259 56l-35 91q2 -23 5 -46t9 -45h21z" />
    <glyph glyph-name="o" unicode="o" horiz-adv-x="608" 
d="M401 290q0 -30 -9.5 -57.5t-26 -48.5t-39 -33.5t-47.5 -12.5q-26 0 -48 12.5t-38.5 33.5t-26 48.5t-9.5 57.5t9 57.5t25.5 48.5t39 33.5t48.5 12.5q25 0 47.5 -12.5t39 -33.5t26 -48.5t9.5 -57.5zM542 290q0 59 -21 113t-56.5 94.5t-83.5 64.5t-102 24t-102 -24.5
t-84 -65t-56.5 -94.5t-20.5 -112q0 -59 20.5 -112.5t56 -94t83.5 -64.5t103 -24t103 24t83.5 64.5t56 94t20.5 112.5zM608 240q0 -63 -22 -119t-59.5 -99t-88.5 -68t-109 -25q-63 0 -117 29t-92 77q-55 43 -87.5 110t-32.5 145q0 61 22 117.5t60 100t88.5 69t108.5 25.5
q62 0 115.5 -29t92.5 -78q55 -43 88 -110t33 -145zM385 290q0 43 -20 77q-17 9 -36 9q-23 0 -42.5 -11t-33.5 -30t-22 -43.5t-8 -51.5q0 -42 19 -78q18 -8 37 -8q22 0 41 11t33.5 30t23 43.5t8.5 51.5z" />
    <glyph glyph-name="p" unicode="p" horiz-adv-x="468" 
d="M262 377q0 -26 -18 -43t-44 -17h-9v122h9q26 0 44 -18t18 -44zM402 377q0 41 -16 78t-43.5 64.5t-64.5 44t-78 16.5h-184v-41h35v-499h-27v-40h194v40h-27v135q45 0 83.5 16t67 43t44.5 63.5t16 79.5zM468 327q0 -45 -16 -83.5t-44 -67t-66.5 -46t-84.5 -20.5v-104h27
v-72h-226v50h-50v72h27v467h-35v73h200q54 0 100 -25t76 -67q42 -30 67 -76.5t25 -100.5z" />
    <glyph glyph-name="q" unicode="q" horiz-adv-x="607" 
d="M400 293q0 -30 -9.5 -58t-25.5 -49t-38.5 -33.5t-47.5 -12.5q-26 0 -48 12.5t-38.5 33.5t-26 49t-9.5 58t9.5 57.5t26 48.5t38.5 33.5t48 12.5q25 0 47.5 -12.5t38.5 -33.5t25.5 -48.5t9.5 -57.5zM541 293q0 59 -20.5 113t-55.5 94.5t-83 64.5t-103 24t-103 -24
t-83.5 -65t-56 -94.5t-20.5 -112.5q0 -52 16 -100t44.5 -87.5t67.5 -66.5t85 -37q7 -31 20 -57t30 -45t38 -29.5t44 -10.5q20 0 37 8t29.5 21.5t19.5 31t7 35.5q0 27 -19 57q-14 -15 -29 -15q-19 0 -36 17q38 16 69.5 45t54 66t35 80t12.5 87zM607 243q0 -75 -31.5 -143
t-86.5 -112q14 -23 22.5 -44t8.5 -38q0 -21 -8 -41.5t-22.5 -36t-34.5 -25t-44 -9.5q-33 0 -62 18.5t-50 50.5q-23 14 -41.5 37.5t-30.5 54.5q-28 14 -53.5 34.5t-46.5 46.5q-28 22 -51 51t-40 62.5t-26.5 69.5t-9.5 74q0 62 21.5 118.5t59.5 99.5t88.5 68.5t109.5 25.5
q63 0 116 -29t91 -77q55 -43 88 -110.5t33 -145.5zM384 293q0 43 -20 78q-18 8 -35 8q-22 0 -41.5 -11t-33.5 -30t-22.5 -43.5t-8.5 -51.5q0 -43 19 -79q18 -8 37 -8q22 0 41 11t33.5 30t22.5 44t8 52z" />
    <glyph glyph-name="r" unicode="r" horiz-adv-x="502" 
d="M263 377q0 -26 -18 -43t-45 -17h-7v122h7q26 0 44.5 -18t18.5 -44zM436 81q0 28 -19 58q-10 -10 -17 -10q-31 0 -76 90q79 59 79 158q0 41 -16.5 78t-44 64.5t-64.5 44t-78 16.5h-184v-41h35v-499h-24v-40h191v40h-25v136h11q2 -39 13.5 -73.5t30.5 -60t43 -40.5t52 -15
q18 0 35 7.5t30 20.5t20.5 30t7.5 36zM502 31q0 -23 -9 -43t-24 -35t-35 -23.5t-41 -8.5q-32 0 -60 17.5t-49 46.5v-51h-223v50h-50v72h24v467h-35v73h200q54 0 100.5 -25t76.5 -67q42 -30 67 -76.5t25 -100.5q0 -102 -75 -163l9 -17l18 18q24 -37 30 -70l20 20
q31 -48 31 -84z" />
    <glyph glyph-name="s" unicode="s" horiz-adv-x="403" 
d="M337 162q0 57 -44 115q-9 13 -29 34t-50 51q-39 40 -39 62q0 28 37 28q20 0 36.5 -9t26.5 -23v-25h40v194h-40v-9q-32 9 -69 9q-35 0 -66 -12.5t-54.5 -34.5t-37.5 -52.5t-14 -65.5q0 -28 11.5 -57.5t31.5 -56.5q8 -13 28.5 -34t49.5 -51q41 -43 41 -64q0 -31 -44 -31
q-50 0 -95 34v23h-41v-192h41v15q54 -19 92 -19q40 0 74 13.5t59.5 36.5t40 54t14.5 67zM403 112q0 -39 -15.5 -73t-43 -59.5t-65 -40t-80.5 -14.5q-17 0 -36.5 3.5t-39.5 9.5v-9h-73v50h-50v224h73v-31q16 -12 36 -19t43 -7q28 0 28 15q0 14 -36 53q-35 35 -53.5 55
t-26.5 31q-22 29 -34 61t-12 63q0 39 15 72t41 57t60 38t72 14q14 0 27 -1t26 -4v5h72v-50h50v-226h-72v36q-4 4 -8 7.5t-9 6.5h-33v7q-18 -1 -18 -12q0 -15 35 -50q30 -32 50.5 -53.5t29.5 -33.5q47 -62 47 -125z" />
    <glyph glyph-name="t" unicode="t" horiz-adv-x="446" 
d="M380 404v176h-364v-176h42v36h71v-400h-35v-40h208v40h-34v400h72v-36h40zM374 338v36h-40v-368h34v-72h-240v50h-50v72h35v282h-63v50h-50v208h396v-50h50v-208h-72z" />
    <glyph glyph-name="u" unicode="u" horiz-adv-x="551" 
d="M485 539v41h-210v-41h37v-337q0 -26 -18.5 -44t-43.5 -18q-27 0 -44 18t-17 44v337h36v41h-209v-41h32v-337q0 -42 16 -78.5t43.5 -64t64 -43.5t78.5 -16q41 0 78 16t64.5 43.5t43.5 64.5t16 78v337h33zM518 473v-321q0 -45 -17.5 -84.5t-47 -69t-69 -47t-84.5 -17.5
q-55 0 -101.5 24.5t-75.5 66.5q-42 29 -66.5 75.5t-24.5 101.5v321h-32v73h241v-50h18v50h242v-50h50v-73h-33zM291 523v-50h-36v-317q17 2 29 15.5t12 30.5v321h-5z" />
    <glyph glyph-name="v" unicode="v" horiz-adv-x="523" 
d="M457 539v41h-210v-41h38q13 -51 13 -109q0 -81 -26 -153.5t-77 -136.5h-4v399h34v41h-209v-41h34v-499h-34v-40h304v40h-26q73 86 108 182.5t35 207.5q0 59 -9 109h29zM497 473q6 -42 6 -93q0 -106 -30 -197.5t-96 -176.5h9v-72h-336v50h-50v72h34v467h-34v73h473v-50h50
v-73h-26zM282 430q0 11 -0.5 21.5t-1.5 21.5h-23v-190q25 73 25 147z" />
    <glyph glyph-name="w" unicode="w" horiz-adv-x="649" 
d="M583 540v40h-216v-40h37q35 -94 35 -189q0 -17 -1 -34.5t-3 -37.5l-69 236h-132l-68 -236q-3 20 -4 37.5t-1 34.5q0 50 8.5 97t24.5 92h39v40h-217v-40h31q-14 -47 -20.5 -93t-6.5 -96q0 -78 18 -157t56 -154h-36v-40h172l70 240l69 -240h173v40h-37q38 75 56.5 156.5
t18.5 154.5q0 48 -6.5 96t-20.5 93h30zM624 474q11 -42 16.5 -86t5.5 -87q0 -70 -15.5 -145.5t-50.5 -149.5h28v-72h-201l-15 50h-35l-25 88l-40 -138h-200v50h-50v72h27q-32 71 -48.5 145.5t-16.5 149.5q0 91 22 173h-26v72h249v-50h50v-15h52v65h248v-50h50v-72h-25z
M380 524l12 -43h9v17q-2 6 -4 12.5t-4 13.5h-13z" />
    <glyph glyph-name="x" unicode="x" horiz-adv-x="573" 
d="M507 0v40h-35l-129 250l22 35q14 22 29 47.5t28 53t21 56t9 58.5h39v40h-209v-40h28q-4 -28 -15 -53t-24 -51l-3 -5l-57 109h14v40h-209v-40h35l124 -235q-90 -117 -114 -265h-37v-40h209v40h-29q8 33 19 65.5t25 58.5q17 -32 32.5 -61t32.5 -63h-14v-40h208zM333 -66v50
h-34v-50h-241v50h-50v72h39q25 138 109 252q-23 43 -45 83.5t-44 82.5h-17v32l-9 18h-41v72h241v-50h25v50h241v-50h50v-72h-40q-3 -30 -11.5 -58t-21 -54t-27 -50t-28.5 -45l-18 -28l94 -183h18v-35l8 -15h42v-72h-240zM274 6h9v30z" />
    <glyph glyph-name="y" unicode="y" horiz-adv-x="565" 
d="M499 539v41h-211v-41h28l-59 -148q-14 39 -28.5 74.5t-28.5 73.5h27v41h-211v-41h33l138 -359v-140h-33v-40h209v40h-35v146l137 353h34zM527 473q-31 -81 -66.5 -170t-66.5 -170v-127h35v-72h-241v50h-50v72h33v121q-30 76 -57.5 148.5t-56.5 147.5h-7v19l-12 31h-38v73
h243v-50h29v50h243v-50h50v-73h-38z" />
    <glyph glyph-name="z" unicode="z" horiz-adv-x="547" 
d="M477 145l-39 11l-7 -22q-38 10 -80.5 16t-89.5 6h-23t-23 -1l165 295v130h-345v-169h40v29h140l-196 -353l81 -100q42 15 83 22t83 7q60 0 125 -17l-7 -18l40 -11zM485 -99l-61 24l-4 13q-53 12 -104 12q-39 0 -81.5 -7.5t-89.5 -24.5l-43 53l-7 -3l-95 118l159 288h-18
v-29h-72v50h-50v201h377v-50h50v-150l-126 -227q52 -4 101 -15l6 21l70 -18l-11 -35l61 -15z" />
    <glyph glyph-name="braceleft" unicode="{" horiz-adv-x="434" 
d="M92 404q0 -24 -21.5 -46.5t-54.5 -33.5v-41q33 -11 54.5 -32.5t21.5 -47.5v-187q0 -47 15 -76.5t40 -46.5t58 -23.5t70 -6.5h93v55q-33 11 -55 31.5t-22 48.5v196q0 30 -14 58.5t-35 49.5q23 20 36 48.5t13 62.5v196q0 29 22 50t55 31v54h-93q-37 0 -70 -6t-58 -22.5
t-40 -46t-15 -77.5v-188zM76 592q0 52 16 85t43.5 51.5t63.5 25t76 6.5h109v-50h50v-82q-33 -10 -55 -28t-22 -41v-196q0 -34 -11.5 -62t-31.5 -50q17 -22 30 -50.5t13 -56.5v-204q6 -3 12.5 -5.5t14.5 -4.5v-26q19 -15 50 -24v-83h-109q-58 0 -106 15.5t-73 60.5
q-32 18 -51 52t-19 91v187q0 2 -0.5 4t-0.5 4q-6 2 -12 5t-13 5v25q-20 16 -50 25v64q33 11 54.5 30.5t21.5 38.5v188z" />
    <glyph glyph-name="bar" unicode="|" horiz-adv-x="22" 
 />
    <glyph glyph-name="braceright" unicode="}" horiz-adv-x="434" 
d="M358 354q0 -6 1 -9q5 -3 11.5 -5.5t13.5 -4.5v-24q10 -8 22.5 -14.5t27.5 -11.5v-64q-33 -11 -54.5 -29.5t-21.5 -38.5v-187q0 -52 -16 -85t-43.5 -51.5t-63.5 -25.5t-76 -7h-109v50h-50v83q33 11 54.5 28.5t21.5 39.5v196q0 30 12 57t32 50q-21 22 -32.5 51t-11.5 61
v196q0 7 -1 10l-25 9v26q-10 8 -23 13.5t-27 10.5v82h109q58 0 105.5 -15t72.5 -60q32 -17 51.5 -51t19.5 -92v-188zM292 592q0 48 -15 77.5t-40 46t-58 22.5t-70 6h-93v-54q33 -10 54.5 -31t21.5 -50v-196q0 -69 50 -111q-21 -21 -35.5 -49.5t-14.5 -58.5v-196
q0 -28 -21.5 -48.5t-54.5 -31.5v-55h93q37 0 70 6.5t58 23.5t40 46.5t15 76.5v187q0 26 21.5 47.5t54.5 32.5v41q-33 11 -54.5 33.5t-21.5 46.5v188z" />
    <glyph glyph-name="asciitilde" unicode="~" horiz-adv-x="739" 
d="M533 452q-16 -17 -30 -22t-28 -5q-25 0 -56 10t-65 22.5t-69.5 22.5t-69.5 10q-51 0 -99 -18t-94 -64l133 -134q16 15 30.5 21t28.5 6q24 0 54.5 -10t65 -22.5t70.5 -22.5t71 -10q58 0 105.5 21.5t86.5 61.5zM739 269q-47 -48 -100 -73.5t-114 -25.5q-42 0 -82 12t-77 26
q-29 11 -55.5 19t-46.5 8q-11 0 -25 -7t-34 -26l-205 206q55 55 108 76.5t107 21.5q39 0 78 -12t76 -25q30 -11 57.5 -19.5t48.5 -8.5q11 0 24 6.5t33 27.5z" />
    <glyph glyph-name="exclamdown" unicode="&#xa1;" horiz-adv-x="320" 
d="M36 546q0 -20 8 -38t21.5 -31.5t31.5 -21.5t38 -8q21 0 39 8t31.5 21.5t21 31.5t7.5 38q0 42 -28.5 71t-70.5 29q-20 0 -37.5 -7.5t-31.5 -21t-22 -32t-8 -39.5zM16 9q0 -25 9.5 -47t25.5 -38t37.5 -25.5t46.5 -9.5q24 0 46 9.5t38 26t25.5 38.5t9.5 46q0 17 -4.5 49
t-11.5 71.5t-15.5 83t-15.5 84t-11.5 74t-4.5 54.5h-113q0 -20 -4.5 -54.5t-11.5 -75t-15 -84t-15 -83t-11.5 -71t-4.5 -48.5zM20 546q0 25 9.5 46t25.5 36.5t36.5 24.5t43.5 9q34 0 61 -17.5t41 -45.5q28 -14 45.5 -41.5t17.5 -61.5q0 -35 -19 -63t-49 -42h25
q0 -21 3 -48.5t8 -58.5t11 -64l12 -66q5 -28 10.5 -57.5t9.5 -55.5t6.5 -47.5t2.5 -34.5q0 -28 -10.5 -52.5t-29 -43t-43 -29.5t-52.5 -11q-38 0 -69 18.5t-48 49.5q-31 17 -49.5 48.5t-18.5 69.5q0 12 2.5 33.5t6.5 47.5t9.5 55.5t10.5 57.5q6 33 12 66.5t10.5 64.5
t7.5 58.5t3 48.5h22q0 1 -0.5 1.5t-0.5 1.5q-28 14 -45.5 41t-17.5 61z" />
    <glyph glyph-name="cent" unicode="&#xa2;" horiz-adv-x="573" 
d="M256 268q-30 11 -50.5 36.5t-20.5 59.5q0 33 20.5 59t50.5 35v-190zM501 580l-35 23l-18 -27q-33 26 -70.5 39.5t-78.5 15.5v97h-43v-97q-50 -6 -93.5 -29.5t-76 -59.5t-51.5 -81.5t-19 -96.5q0 -52 19 -98t51.5 -82t76 -59t93.5 -28v-98h43v96q101 6 176 79l-121 119
q-24 -24 -55 -28v197q31 -5 54 -26l-16 -24l35 -23zM426 317l-60 39l7 12l-8 6v-70l182 -180q-43 -43 -87 -66t-95 -28v-97h-75v50h-50v62q-39 14 -72 37.5t-58 55.5q-51 39 -80.5 98t-29.5 128q0 52 18.5 99t51 84.5t76.5 63t94 34.5v99h75v-50h50v-57q21 -5 40.5 -14.5
t39.5 -23.5q5 8 9 14.5t7 11.5l62 -40l-9 -13l59 -37z" />
    <glyph glyph-name="sterling" unicode="&#xa3;" horiz-adv-x="511" 
d="M439 692l-35 23l-19 -26q-51 38 -118 38q-41 0 -78 -16t-65 -44t-44 -64.5t-16 -78.5v-251h-48v-43h48v-188h-48v-43h347l-4 -29l41 -6l36 237l-42 7l-5 -39h-156v61h80v43h-80v251q0 14 10 24t24 10t23 -9l-15 -23l35 -24zM364 430l-61 42l7 10l-6 4q-5 -5 -5 -12v-185
h30v-50h50v-13l75 -11l-6 -42l56 -8l-40 -269l-71 10l1 27h-344v50h-50v75h48v156h-48v75h48v235q0 45 17.5 85t47.5 69.5t69.5 47t84.5 17.5q33 0 60.5 -6.5t54.5 -24.5l18 25l61 -40l-8 -12l58 -38z" />
    <glyph glyph-name="currency" unicode="&#xa4;" horiz-adv-x="790" 
d="M597 227q-55 -58 -137 -58q-32 0 -62 10t-54.5 28.5t-42.5 44t-27 56.5h216l27 42h-250v27h268l26 42h-287q9 31 27 56.5t42.5 43.5t54.5 28t62 10q53 0 100 -27l-14 -22l36 -22l122 194l-35 23l-20 -30q-87 54 -189 54q-66 0 -127 -23.5t-109 -65t-80.5 -97.5
t-42.5 -122h-39l-27 -42h61v-27h-40l-27 -42h72q10 -66 42.5 -122.5t80.5 -98t108.5 -64.5t127.5 -23q150 0 257 107zM790 56q-65 -63 -133 -92.5t-147 -29.5q-89 0 -165 36.5t-129 99.5q-41 33 -70.5 76.5t-46.5 95.5h-49l32 50h-82l45 69h-39l48 74h33q13 65 48 121
t85 97.5t111.5 65.5t128.5 24q100 0 184 -48l20 30l62 -40l-8 -13l58 -37l-139 -221l-62 38l8 14l-32 20q-23 5 -41 5q-38 0 -72 -15t-59 -41h210l-31 -50h81l-91 -143h-202q5 -13 14 -27q22 -14 47.5 -22t52.5 -8q74 0 136 65z" />
    <glyph glyph-name="yen" unicode="&#xa5;" horiz-adv-x="687" 
d="M621 685v43h-259v-43h36l-81 -206l-79 206h38v43h-260v-43h41l102 -266h-121v-42h137l11 -27h-148v-42h164l32 -83v-183h-43v-43h256v43h-44v191l29 75h167v42h-150l11 27h139v42h-123l104 266h41zM641 619l-73 -184h47v-50h50v-143h-172q-6 -16 -12 -30t-12 -31v-173h44
v-75h-288v50h-50v75h43v164l-8 20h-138v50h-50v143h113q-19 48 -36 92.5t-34 91.5h-15v40q-2 4 -4 10h-46v75h292v-50h50v-75h-30l21 -56l41 106h-28v75h291v-50h50v-75h-46z" />
    <glyph glyph-name="brokenbar" unicode="&#xa6;" horiz-adv-x="43" 
 />
    <glyph glyph-name="section" unicode="&#xa7;" horiz-adv-x="1463" 
d="M1445 680v-334h-97v235h-57v99h154zM1112 267q-10 0 -10 -10t10 -10h197v-47h-197q-10 0 -10 -10q0 -11 10 -11h197v-47h-197q-23 0 -39.5 16.5t-16.5 41.5q0 19 10 33q-10 13 -10 34q0 23 16.5 40t39.5 17h197v-47h-197zM409 247v-47h-207v-68h-47v125q0 23 17 40t40 17
h197v-47h-197q-10 0 -10 -10v-10h207zM454 314h267v-63q0 -29 -19 -49t-46 -24l43 -46h-64l-43 46h-68v48h125q10 0 17 7t7 18v15h-172v-134h-47v182zM818 267q-10 0 -10 -10t10 -10h197v-47h-197q-10 0 -10 -10q0 -11 10 -11h197v-47h-197q-23 0 -40.5 16.5t-17.5 41.5
q0 9 3 17t8 16q-5 7 -8 15.5t-3 18.5q0 23 17.5 40t40.5 17h197v-47h-197zM1156 101v-48h-135v-87h58v-48h-104v135h-82v48h263zM1354 -34q24 0 38 20h-204v23q0 38 26.5 65t64.5 27h166v-48h-166q-24 0 -36 -20h202v-24q0 -19 -7 -35.5t-19.5 -29t-29 -19.5t-35.5 -7h-166
v48h166zM273 33v-47h-207v-68h-48v125q0 24 17 41t41 17h197v-48h-197q-10 0 -10 -10v-10h207zM853 -82h-70q-8 32 -23.5 56t-42.5 45q-32 26 -74 32v-133h-48v182h27q33 0 65 -11.5t58 -32.5q39 -30 60 -70v115h48v-183zM553 100v-84q0 -20 -8 -38t-21.5 -31.5t-31.5 -21
t-38 -7.5h-154v84q0 41 28.5 69.5t70.5 28.5h154zM399 53q-22 0 -37 -15t-15 -36v-36h107q21 0 36 14.5t15 35.5v37h-106zM174 680v-334h-99v235h-57v99h156zM1223 680v-154q0 -37 -14 -70t-38.5 -57.5t-57 -38.5t-69.5 -14h-278v154q0 37 14 70t38.5 57.5t57 38.5t70.5 14
h277zM946 581q-34 0 -58 -24t-24 -57v-56h180q33 0 57 24t24 58v55h-179zM698 680v-154q0 -37 -14 -70t-38.5 -57.5t-57.5 -38.5t-70 -14h-277v154q0 37 14 70t38.5 57.5t57.5 38.5t70 14h277zM421 581q-34 0 -58 -24t-24 -57v-56h179q34 0 57.5 24t23.5 58v55h-178z" />
    <glyph glyph-name="dieresis" unicode="&#xa8;" horiz-adv-x="264" 
d="M264 656q0 -26 -19 -45.5t-45 -19.5q-28 0 -46 19.5t-18 45.5q0 27 19 46t45 19t45 -19t19 -46zM248 656q0 21 -14 35t-34 14t-34 -14t-14 -35q0 -20 14 -34.5t34 -14.5t34 14.5t14 34.5zM128 656q0 -26 -19 -45.5t-45 -19.5q-28 0 -46 19.5t-18 45.5q0 27 19 46t45 19
q25 0 44.5 -19t19.5 -46zM112 656q0 21 -14.5 35t-33.5 14q-20 0 -34 -14t-14 -35q0 -20 14 -34.5t34 -14.5t34 14.5t14 34.5z" />
    <glyph glyph-name="copyright" unicode="&#xa9;" horiz-adv-x="718" 
d="M0 366q0 74 28 139.5t77 114t114.5 77t139.5 28.5t139.5 -28.5t114 -77t77 -114t28.5 -139.5t-28.5 -139.5t-77 -114.5t-114 -77t-139.5 -28t-139.5 28t-114.5 77t-77 114.5t-28 139.5zM36 366q0 -67 25.5 -125.5t69.5 -102.5t102.5 -69.5t125.5 -25.5t125.5 25.5
t102.5 69.5t69.5 102.5t25.5 125.5t-25.5 125.5t-69.5 102.5t-102.5 69.5t-125.5 25.5t-125.5 -25.5t-102.5 -69.5t-69.5 -102.5t-25.5 -125.5zM555 142l-23 24q-72 -63 -173 -63q-55 0 -103 20.5t-84 56.5t-56.5 84.5t-20.5 103.5q0 54 21 102.5t57 84.5t84 57t102 21
q99 0 174 -66l22 22l23 -21l-132 -132l-23 21l23 23q-40 29 -87 29q-29 0 -54.5 -11t-45 -30.5t-30.5 -45t-11 -54.5t11 -55t30.5 -45.5t45 -30.5t54.5 -11q50 0 85 28l-21 21l23 22l132 -132z" />
    <glyph glyph-name="ordfeminine" unicode="&#xaa;" horiz-adv-x="357" 
d="M185 557l-62 -20q17 60 55 106h7v-86zM291 364v22h-21v321h21v22h-190v-22h20q-93 -107 -93 -250q0 -18 1.5 -36t5.5 -35h-19v-22h128v22h-23q-8 30 -8 59l72 24v-83h-22v-22h128zM50 298v50h-50v54h15q-3 25 -3 55q0 69 17 125t56 109v54h222v-50h50v-54h-21v-289h21
v-54h-307z" />
    <glyph glyph-name="guillemotleft" unicode="&#xab;" horiz-adv-x="429" 
d="M223 202l-98 162l98 162l-58 50l-146 -212l146 -213zM358 202l-98 162l98 162l-58 50l-146 -212l146 -213zM347 77l-40 58l-10 -8l-11 15l-74 -65l-40 58l-10 -8l-162 237l162 235l82 -70l-3 -5l3 -3l53 78l82 -70l-3 -5l53 -45l-101 -165q23 -40 50.5 -83t50.5 -82z" />
    <glyph glyph-name="logicalnot" unicode="&#xac;" horiz-adv-x="623" 
d="M368 192h189v276h-541v-189h352v-87zM352 213h-302v50h-50v221h573v-50h50v-308h-221v50h-50v37z" />
    <glyph glyph-name="registered" unicode="&#xae;" horiz-adv-x="339" 
d="M0 577q0 35 13.5 65.5t36.5 53.5t54 36.5t66 13.5t65.5 -13.5t53.5 -36.5t36.5 -53.5t13.5 -65.5t-13.5 -66t-36.5 -54t-53.5 -36t-65.5 -13t-66 13t-54 36t-36.5 54t-13.5 66zM26 577q0 -30 11 -56t30.5 -45.5t46 -30.5t56.5 -11t56 11t45.5 30.5t31 45.5t11.5 56
t-11.5 56t-31 45.5t-45.5 31t-56 11.5t-56.5 -11.5t-46 -31t-30.5 -45.5t-11 -56zM260 501q0 -14 -11 -24t-25 -10q-21 0 -36 21.5t-17 52.5h-8v-56h11v-13h-72v13h10v197h-14v14h71q16 0 30 -6.5t24.5 -17t16.5 -25t6 -30.5q0 -39 -31 -61q18 -37 31 -37q4 0 6 3
q8 -10 8 -21zM195 617q0 11 -7.5 18.5t-18.5 7.5h-6v-50h6q11 0 18.5 6.5t7.5 17.5z" />
    <glyph glyph-name="macron" unicode="&#xaf;" horiz-adv-x="216" 
d="M15 590v81h187v-81h-187zM186 606v49h-155v-49h155z" />
    <glyph glyph-name="degree" unicode="&#xb0;" horiz-adv-x="377" 
d="M164 646q20 0 35 -14.5t15 -34.5q0 -21 -15 -36t-35 -15q-21 0 -36 15t-15 36q0 20 15 34.5t36 14.5zM164 743q-30 0 -57 -11.5t-47.5 -31t-32 -46.5t-11.5 -57t11.5 -57t32 -47.5t47.5 -32t57 -11.5t57 11.5t47 31.5t31.5 47t11.5 58q0 30 -11.5 57t-31.5 46.5t-47 31
t-57 11.5zM164 759q44 0 79.5 -20.5t57.5 -54.5q35 -22 55.5 -57.5t20.5 -79.5q0 -34 -13 -64t-35 -52t-51.5 -35t-63.5 -13q-44 0 -80 20.5t-58 55.5q-35 22 -55.5 58t-20.5 80q0 34 13 63.5t35.5 51.5t52 34.5t63.5 12.5z" />
    <glyph glyph-name="plusminus" unicode="&#xb1;" horiz-adv-x="563" 
d="M16 486v-189h146v-128h189v128h146v189h-146v128h-189v-128h-146zM16 143v-189h481v189h-481zM146 502v128h221v-50h50v-78h96v-50h50v-221h-146v-72h96v-50h50v-221h-513v50h-50v221h146v72h-96v50h-50v221h146z" />
    <glyph glyph-name="twosuperior" unicode="&#xb2;" horiz-adv-x="299" 
d="M233 606q0 25 -10 47.5t-26.5 39t-39 26.5t-47.5 10q-38 0 -66 -15l-4 16l-20 -5l28 -115l20 6l-3 14q10 8 21.5 11t23.5 3q17 0 28 -11t11 -27q0 -8 -1.5 -14t-6.5 -13.5t-14 -18t-24 -26.5q-17 -18 -30.5 -32t-23 -28t-14.5 -29.5t-5 -36.5v-43h174v-14h20v121h-20v-22
h-64q21 22 38 41.5t29 37.5t19 37t7 40zM299 556q0 -35 -14 -62t-39 -56h44v-153h-52v14h-174v50h-50v59q0 21 4 37t12 29.5t19.5 26.5t26.5 28l10 10l-15 61l-35 -11l-36 149l53 11l3 -13q24 9 54 9q38 0 69.5 -19t50.5 -50q31 -19 50 -50.5t19 -69.5z" />
    <glyph glyph-name="threesuperior" unicode="&#xb3;" horiz-adv-x="312" 
d="M246 487q0 52 -39 87q13 26 13 51q0 21 -8.5 40.5t-22.5 34t-33.5 23t-40.5 8.5q-39 0 -67 -25l-10 12l-16 -12l71 -90l17 14l-10 11q10 5 15 5q8 0 14 -6.5t6 -14.5t-6 -14t-14 -6v-85q1 0 4 0.5t8 0.5q14 0 24 -9.5t10 -24.5q0 -14 -10 -24t-24 -10q-12 0 -22 7l11 14
l-16 14l-77 -96l16 -13l13 15q32 -26 75 -26q24 0 46 9.5t38 25.5t25.5 38t9.5 46zM312 437q0 -28 -10.5 -52.5t-29 -43t-43 -29t-52.5 -10.5q-21 0 -38.5 4.5t-34.5 15.5l-13 -15l-40 33l18 23q-8 3 -15 9l-13 -15l-40 33l98 119v86l-3 3l-6 -5l-90 115l41 33l9 -12
q28 18 65 18q34 0 62 -18t44 -46q29 -16 47 -44.5t18 -63.5q0 -22 -10 -47q20 -19 28 -40.5t8 -50.5zM127 505q-2 0 -9 -0.5t-13 -0.5l33 -28l-5 -6q12 3 12 17q0 8 -5 13t-13 5z" />
    <glyph glyph-name="acute" unicode="&#xb4;" horiz-adv-x="251" 
d="M251 725q0 -24 -14.5 -38.5t-40.5 -31.5q-16 -11 -39.5 -26.5t-52.5 -37.5h-104l107 132q25 32 42 47t43 17q26 0 42.5 -18t16.5 -44zM235 725q0 20 -12.5 33t-30.5 13q-21 -2 -35 -15t-35 -39l-88 -110h65q29 22 51 36.5t38 25.5q26 17 36.5 27t10.5 29z" />
    <glyph glyph-name="paragraph" unicode="&#xb6;" horiz-adv-x="672" 
d="M266 733q-52 0 -97.5 -20t-79.5 -54t-53.5 -79.5t-19.5 -97.5q0 -51 19.5 -96.5t53.5 -79.5t79.5 -54t97.5 -20h15v-354h88v775h54v-775h91v756q0 14 10 24t24 10h58v65h-340zM622 749v-50h50v-97h-74q-8 0 -13 -5t-5 -13v-772h-123v50h-22v-50h-120v50h-50v309
q-49 9 -90 35t-70 64q-48 37 -76.5 92t-28.5 120q0 55 21 103.5t57 85t84.5 57.5t103.5 21h356z" />
    <glyph glyph-name="periodcentered" unicode="&#xb7;" horiz-adv-x="280" 
d="M214 366q0 42 -28.5 71t-70.5 29q-20 0 -37.5 -7.5t-31.5 -21t-22 -32t-8 -39.5q0 -20 8 -38t21.5 -31.5t31.5 -21.5t38 -8q21 0 39 8t31.5 22t21 31.5t7.5 37.5zM280 316q0 -23 -9 -43.5t-24.5 -36.5t-36.5 -25.5t-45 -9.5q-34 0 -61 17.5t-41 45.5q-28 14 -45.5 41
t-17.5 61q0 25 9.5 46t25.5 36.5t36.5 24.5t43.5 9q34 0 61 -17.5t41 -45.5q28 -14 45.5 -41.5t17.5 -61.5z" />
    <glyph glyph-name="cedilla" unicode="&#xb8;" horiz-adv-x="235" 
d="M235 -149q0 -26 -10 -49t-27.5 -40t-40 -27t-47.5 -10q-14 0 -25.5 2t-23.5 7l-5 -17l-56 18q14 44 23 74.5t17 58.5l54 -18l-5 -23q6 -5 11 -6t10 -1q30 0 30 29q0 13 -8.5 21.5t-21.5 8.5q-12 0 -36 -17l-33 27l26 88q50 0 82.5 -12t51.5 -31t26.5 -41t7.5 -42z
M219 -149q0 17 -6 36t-21.5 35.5t-42.5 27t-69 11.5q-5 -17 -10.5 -32.5t-10.5 -32.5q3 -2 7.5 -6.5l7.5 -7.5q22 13 36 13q19 0 32.5 -13.5t13.5 -32.5q0 -45 -46 -45q-8 0 -17.5 3.5t-22.5 13.5l6 20q-8 2 -12.5 3t-12.5 3l-31 -100l24 -9l5 20q17 -9 32 -13t29 -4
q22 0 42 8.5t35 23.5t23.5 35t8.5 43z" />
    <glyph glyph-name="onesuperior" unicode="&#xb9;" horiz-adv-x="211" 
d="M145 370v21h-23v342h-106v-21h22v-321h-22v-21h129zM50 304v50h-50v53h22v289h-22v53h138v-50h50v-342h23v-53h-161z" />
    <glyph glyph-name="ordmasculine" unicode="&#xba;" horiz-adv-x="411" 
d="M261 545q0 -20 -6.5 -38t-17 -31.5t-25.5 -21.5t-31 -8q-35 0 -57.5 29.5t-22.5 69.5t22.5 69.5t57.5 29.5q16 0 31 -8t25.5 -21.5t17 -31.5t6.5 -38zM345 545q0 36 -13 69.5t-35 59.5t-52 41.5t-64 15.5q-36 0 -66 -15.5t-52 -41.5t-34.5 -59.5t-12.5 -69.5t12.5 -69.5
t34.5 -59t52.5 -41t65.5 -15.5q34 0 64 15t52 40.5t35 59t13 70.5zM411 495q0 -41 -14 -77t-38.5 -64t-57.5 -44t-70 -16q-45 0 -82 22t-62 57q-40 28 -63.5 73.5t-23.5 98.5q0 39 13.5 75.5t38 64.5t57.5 45t72 17q43 0 79.5 -22.5t61.5 -57.5q40 -28 64.5 -74t24.5 -98z
M245 545q0 17 -6 32q-2 1 -8 1q-28 0 -46 -25t-18 -58q0 -16 5 -33h9q26 0 45 25t19 58z" />
    <glyph glyph-name="guillemotright" unicode="&#xbb;" horiz-adv-x="429" 
d="M50 149l2 4l-52 46l100 165q-23 39 -50 83t-50 82l82 70l40 -59l10 9l10 -14l75 64l40 -59l10 9l162 -235l-162 -237l-82 72l-53 -72zM214 151l146 213l-146 212l-58 -50l98 -162l-98 -162zM79 151l146 213l-146 212l-58 -50l98 -162l-98 -162z" />
    <glyph glyph-name="onequarter" unicode="&#xbc;" horiz-adv-x="776" 
d="M566 188h-60q14 95 60 150v-150zM710 75v113h-31v300h-56q-112 0 -179 -129q-55 -104 -55 -228v-56h177v-46h-30v-29h173v29h-30v46h31zM520 731h-95l-263 -731h95zM189 242v28h-30v460h-143v-29h30v-431h-30v-28h173zM745 9v-14h30v-61h-205v50h-50v25h-97v50h-50v27
l-55 -152h-129l18 50h-68l69 192h-158v50h-50v60h30v399h-30v61h175v-50h50v-460h4l185 511h129l-18 -50h68l-85 -235q53 42 115 42h72v-50h50v-300h31v-145h-31z" />
    <glyph glyph-name="onehalf" unicode="&#xbd;" horiz-adv-x="832" 
d="M520 731h-95l-263 -731h95zM189 242v28h-30v460h-143v-29h30v-431h-30v-28h173zM766 322q0 34 -13.5 64t-36 52.5t-53 35.5t-63.5 13q-52 0 -88 -20l-6 22l-27 -7l37 -154l27 8l-3 19q25 18 60 18q22 0 37 -14.5t15 -36.5q0 -10 -2 -18t-9 -18.5t-19 -24.5t-32 -35
q-23 -24 -40.5 -42.5t-30.5 -37t-19.5 -39.5t-6.5 -49v-58h232v-19h28v161h-28v-29h-85q27 30 50.5 56t40 50.5t26 49.5t9.5 53zM521 498l1 -8q33 13 78 13q47 0 86.5 -22.5t64.5 -59.5q36 -25 58.5 -64t22.5 -85q0 -41 -17 -75t-46 -69v-20h50v-193h-60v19h-232v50h-50v74
q0 27 5.5 47.5t16 38.5t25.5 34.5t34 36.5l20 21q11 11 19 20t14 17l-57 -14l-15 58l-35 -8l-21 84l-165 -459h-129l18 50h-68l69 192h-158v50h-50v60h30v399h-30v61h175v-50h50v-460h4l185 511h129l-18 -50h68zM612 273q9 11 14.5 18.5t7.5 14.5q-15 -3 -27 -9z" />
    <glyph glyph-name="threequarters" unicode="&#xbe;" horiz-adv-x="855" 
d="M645 188h-60q14 95 60 150v-150zM789 75v113h-31v300h-56q-112 0 -179 -129q-55 -104 -55 -228v-56h177v-46h-30v-29h173v29h-30v46h31zM599 731h-95l-263 -731h95zM324 403q0 70 -53 117q18 31 18 68q0 28 -11 54t-30.5 45t-45.5 30.5t-55 11.5q-49 0 -89 -32l-13 16
l-22 -17l96 -119l23 18l-13 14q10 7 18 7q11 0 19.5 -8.5t8.5 -19.5q0 -12 -8.5 -19.5t-19.5 -7.5v-115q3 0 7 1t10 1q20 0 33.5 -13t13.5 -32t-13.5 -33t-33.5 -14q-14 0 -29 10l16 19l-23 18l-103 -128l21 -18l17 22q43 -36 101 -36q33 0 62 13t51 34.5t34.5 50.5t12.5 62
zM824 9v-14h30v-61h-205v50h-50v25h-97v50h-50v27l-55 -152h-129l18 50h-68l76 213q-37 -20 -80 -20q-27 0 -51.5 7t-46.5 23l-17 -23l-46 39l22 27q-6 4 -9 7l-17 -23l-46 39l123 152l48 -39l-10 -14q8 0 12 2l5 6v47q-8 5 -17 5q-6 0 -9 -1q-2 0 -12 -0.5t-12 -0.5v119
l-9 10l-5 -4l-117 144l46 35l14 -15q38 26 87 26q42 0 77.5 -21t56.5 -54q33 -21 53.5 -56t20.5 -76q0 -33 -14 -64q24 -25 35 -52l117 325h129l-18 -50h68l-85 -235q53 42 115 42h72v-50h50v-300h31v-145h-31z" />
    <glyph glyph-name="questiondown" unicode="&#xbf;" horiz-adv-x="499" 
d="M147 517q0 -20 7.5 -38t21 -31.5t31.5 -21.5t39 -8t39 8t31.5 22t21 31.5t7.5 37.5t-8 38.5t-21.5 32t-31.5 21.5t-38 8q-42 0 -70.5 -29t-28.5 -71zM16 121q0 -47 19 -89t51 -73.5t74 -50t88 -18.5q69 0 131 36l10 -28l40 15l-86 231l-40 -14l12 -30q-18 -41 -67 -41
q-24 0 -43 19t-19 43q0 34 52 99q24 31 39.5 53.5t25.5 41.5t15 37t8 40h-176q-5 -11 -20 -32.5t-32.5 -45.5t-33 -46t-20.5 -32q-28 -53 -28 -115zM131 517q0 24 9 45t24.5 37t36.5 25t45 9q32 0 59.5 -17.5t42.5 -45.5q28 -15 45.5 -42.5t17.5 -60.5q0 -35 -21 -65
t-55 -44h60q-5 -29 -10.5 -51t-16 -44t-26.5 -46.5t-41 -56.5l-14 -19l66 23l22 -60l28 10l96 -261l-70 -26l-8 26q-28 -14 -59.5 -21.5t-63.5 -7.5q-60 0 -111.5 28t-86.5 74q-45 34 -72.5 84.5t-27.5 110.5q0 63 30 122q6 11 19.5 30.5t30.5 42.5q18 25 35 49.5t24 42.5
h58l-3 6q-29 14 -46 42t-17 61zM283 136q-30 -42 -31 -61q29 1 45 25z" />
    <glyph glyph-name="Agrave" unicode="&#xc0;" horiz-adv-x="633" 
d="M353 385l-123 -40q35 120 110 213h13v-173zM567 0v42h-43v643h43v43h-380v-43h40q-93 -106 -140.5 -234.5t-47.5 -265.5q0 -35 3.5 -71t10.5 -72h-37v-42h256v42h-46q-8 29 -12 58.5t-5 59.5l144 48v-166h-44v-42h258zM343 -66v50h-5v-50h-288v50h-50v74h33
q-5 32 -7.5 63.5t-2.5 63.5q0 132 42.5 255t127.5 229h-22v75h412v-50h50v-75h-43v-611h43v-74h-290zM288 8h5v50h44v61l-62 -20l3 -41h10v-50zM342 739q-35 26 -59.5 42.5t-40.5 27.5q-27 17 -37 28.5t-10 35.5q0 26 18 44.5t44 18.5q23 0 41 -19t44 -53q16 -22 40 -51.5
t66 -73.5h-106zM410 755q-25 27 -44.5 52.5t-35.5 46.5q-23 30 -39 48t-34 18q-20 0 -33 -13.5t-13 -33.5q0 -9 1.5 -15t5.5 -11t12 -10.5t20 -13.5q16 -11 39 -26.5t58 -41.5h63z" />
    <glyph glyph-name="Aacute" unicode="&#xc1;" horiz-adv-x="633" 
d="M353 385l-123 -40q35 120 110 213h13v-173zM567 0v42h-43v643h43v43h-380v-43h40q-93 -106 -140.5 -234.5t-47.5 -265.5q0 -35 3.5 -71t10.5 -72h-37v-42h256v42h-46q-8 29 -12 58.5t-5 59.5l144 48v-166h-44v-42h258zM343 -66v50h-5v-50h-288v50h-50v74h33
q-5 32 -7.5 63.5t-2.5 63.5q0 132 42.5 255t127.5 229h-22v75h412v-50h50v-75h-43v-611h43v-74h-290zM288 8h5v50h44v61l-62 -20l3 -41h10v-50zM537 873q0 -24 -14.5 -38.5t-40.5 -31.5q-16 -11 -39.5 -26.5t-52.5 -37.5h-104l107 132q25 32 42 47t43 17q26 0 42.5 -18
t16.5 -44zM521 873q0 20 -12.5 33t-30.5 13q-21 -2 -35 -15t-35 -39l-88 -110h65q29 22 51 36.5t38 25.5q26 17 36.5 27t10.5 29z" />
    <glyph glyph-name="Acircumflex" unicode="&#xc2;" horiz-adv-x="633" 
d="M353 385l-123 -40q35 120 110 213h13v-173zM567 0v42h-43v643h43v43h-380v-43h40q-93 -106 -140.5 -234.5t-47.5 -265.5q0 -35 3.5 -71t10.5 -72h-37v-42h256v42h-46q-8 29 -12 58.5t-5 59.5l144 48v-166h-44v-42h258zM343 -66v50h-5v-50h-288v50h-50v74h33
q-5 32 -7.5 63.5t-2.5 63.5q0 132 42.5 255t127.5 229h-22v75h412v-50h50v-75h-43v-611h43v-74h-290zM288 8h5v50h44v61l-62 -20l3 -41h10v-50zM509 739h-98l-47 49l-48 -49h-97l-25 25l170 170l168 -169zM509 764l-145 146l-146 -146l9 -9h81l56 57l55 -57h83z" />
    <glyph glyph-name="Atilde" unicode="&#xc3;" horiz-adv-x="633" 
d="M353 385l-123 -40q35 120 110 213h13v-173zM567 0v42h-43v643h43v43h-380v-43h40q-93 -106 -140.5 -234.5t-47.5 -265.5q0 -35 3.5 -71t10.5 -72h-37v-42h256v42h-46q-8 29 -12 58.5t-5 59.5l144 48v-166h-44v-42h258zM343 -66v50h-5v-50h-288v50h-50v74h33
q-5 32 -7.5 63.5t-2.5 63.5q0 132 42.5 255t127.5 229h-22v75h412v-50h50v-75h-43v-611h43v-74h-290zM288 8h5v50h44v61l-62 -20l3 -41h10v-50zM505 801q0 -24 -19 -43.5t-46 -20.5q-8 0 -16 1t-16 6l-113 46v-51h-76v86q0 25 17 44.5t46 19.5q13 0 32 -7l113 -46v52h78v-87
zM489 872h-46v-58l-135 54q-7 3 -14 4t-12 1q-21 0 -34 -14.5t-13 -33.5v-70h44v59l135 -56q6 -3 13 -4t13 -1q21 1 35 15.5t14 32.5v71z" />
    <glyph glyph-name="Adieresis" unicode="&#xc4;" horiz-adv-x="633" 
d="M353 385l-123 -40q35 120 110 213h13v-173zM567 0v42h-43v643h43v43h-380v-43h40q-93 -106 -140.5 -234.5t-47.5 -265.5q0 -35 3.5 -71t10.5 -72h-37v-42h256v42h-46q-8 29 -12 58.5t-5 59.5l144 48v-166h-44v-42h258zM343 -66v50h-5v-50h-288v50h-50v74h33
q-5 32 -7.5 63.5t-2.5 63.5q0 132 42.5 255t127.5 229h-22v75h412v-50h50v-75h-43v-611h43v-74h-290zM288 8h5v50h44v61l-62 -20l3 -41h10v-50zM504 804q0 -26 -19 -45.5t-45 -19.5q-28 0 -46 19.5t-18 45.5q0 27 19 46t45 19t45 -19t19 -46zM488 804q0 21 -14 35t-34 14
t-34 -14t-14 -35q0 -20 14 -34.5t34 -14.5t34 14.5t14 34.5zM368 804q0 -26 -19 -45.5t-45 -19.5q-28 0 -46 19.5t-18 45.5q0 27 19 46t45 19q25 0 44.5 -19t19.5 -46zM352 804q0 21 -14.5 35t-33.5 14q-20 0 -34 -14t-14 -35q0 -20 14 -34.5t34 -14.5t34 14.5t14 34.5z" />
    <glyph glyph-name="Aring" unicode="&#xc5;" horiz-adv-x="633" 
d="M353 385l-123 -40q35 120 110 213h13v-173zM567 0v42h-43v643h43v43h-380v-43h40q-93 -106 -140.5 -234.5t-47.5 -265.5q0 -35 3.5 -71t10.5 -72h-37v-42h256v42h-46q-8 29 -12 58.5t-5 59.5l144 48v-166h-44v-42h258zM343 -66v50h-5v-50h-288v50h-50v74h33
q-5 32 -7.5 63.5t-2.5 63.5q0 132 42.5 255t127.5 229h-22v75h412v-50h50v-75h-43v-611h43v-74h-290zM288 8h5v50h44v61l-62 -20l3 -41h10v-50zM463 848q0 -22 -8.5 -42t-23.5 -35t-34.5 -23.5t-41.5 -8.5t-42 8.5t-35 23.5t-24 34.5t-9 42.5q0 22 8.5 42t23.5 35t34 24
t40 9q23 0 43.5 -8.5t35.5 -23.5t24 -35t9 -43zM447 848q0 40 -28 67t-68 27q-18 0 -34.5 -7.5t-28.5 -20.5t-19.5 -30t-7.5 -36q0 -20 7.5 -36.5t20.5 -29.5t30 -20t36 -7t36 7.5t29.5 20t19.5 29.5t7 36zM381 848q0 11 -7.5 18.5t-18.5 7.5t-19 -7.5t-8 -18.5t8 -18.5
t19 -7.5t18.5 7.5t7.5 18.5zM397 848q0 -17 -12.5 -29.5t-29.5 -12.5t-30 12.5t-13 29.5t13 29.5t30 12.5t29.5 -12.5t12.5 -29.5z" />
    <glyph glyph-name="AE" unicode="&#xc6;" horiz-adv-x="817" 
d="M354 385l-123 -40q31 115 110 213h13v-173zM751 0v214h-42v-44h-185v103h95v-34h42v237h-42v-34h-95v116h159v-45h41v215h-537v-43h40q-90 -102 -139 -232t-49 -269q0 -36 3.5 -71.5t10.5 -70.5h-37v-42h256v42h-45q-15 55 -18 118l145 48v-166h-44v-42h441zM344 -66v50
h-6v-50h-288v50h-50v74h33q-10 59 -10 126q0 132 44 258t125 227h-21v75h569v-50h50v-247h-73v45h-40v-50h50v-212h40v-50h50v-246h-473zM288 12q0 -3 1 -4h5v50h44v62l-63 -21q1 -11 1.5 -21t2.5 -20h9v-46zM590 186h63v21h-63v-21zM603 492h-13v-34h13v34z" />
    <glyph glyph-name="Ccedilla" unicode="&#xc7;" horiz-adv-x="750" 
d="M678 86l-181 181l-30 -29l29 -29q-53 -39 -116 -39q-41 0 -76.5 15.5t-61.5 41.5t-41.5 61.5t-15.5 75.5t15.5 75.5t41.5 61.5t61.5 41.5t76.5 15.5q65 0 117 -41l-30 -30l30 -30l181 182l-30 30l-31 -31q-101 89 -237 89q-75 0 -141 -28.5t-115.5 -78t-78.5 -115.5
t-29 -141t28.5 -141t78 -115.5t116 -78t141.5 -28.5q135 0 236 87l32 -32zM698 -16l-33 33q-50 -38 -109.5 -60t-125.5 -22q-89 0 -164.5 37.5t-128.5 100.5q-63 52 -100 127.5t-37 163.5q0 78 30 147t82 120.5t121 81.5t147 30q136 0 237 -83l31 31l102 -102l-203 -204
l-102 102l4 4q-5 0 -9.5 0.5t-9.5 0.5q-37 0 -69.5 -14t-57 -38t-38.5 -56.5t-14 -69.5q0 -27 7.5 -52t21.5 -46q22 -14 47 -22t53 -8q51 0 91 26l-27 27l53 50l253 -253zM459 -161q0 -26 -10 -49t-27.5 -40t-40 -27t-47.5 -10q-14 0 -25.5 2t-23.5 7l-5 -17l-56 18
q14 44 23 74.5t17 58.5l54 -18l-5 -23q6 -5 11 -6t10 -1q30 0 30 29q0 13 -8.5 21.5t-21.5 8.5q-12 0 -36 -17l-33 27l26 88q50 0 82.5 -12t51.5 -31t26.5 -41t7.5 -42zM443 -161q0 17 -6 36t-21.5 35.5t-42.5 27t-69 11.5q-5 -17 -10.5 -32.5t-10.5 -32.5q3 -2 7.5 -6.5
l7.5 -7.5q22 13 36 13q19 0 32.5 -13.5t13.5 -32.5q0 -45 -46 -45q-8 0 -17.5 3.5t-22.5 13.5l6 20q-8 2 -12.5 3t-12.5 3l-31 -100l24 -9l5 20q17 -9 32 -13t29 -4q22 0 42 8.5t35 23.5t23.5 35t8.5 43z" />
    <glyph glyph-name="Egrave" unicode="&#xc8;" horiz-adv-x="523" 
d="M457 0v214h-42v-44h-186v103h96v-34h43v237h-43v-34h-96v116h160v-45h41v215h-414v-43h44v-643h-44v-42h441zM50 -66v50h-50v74h44v611h-44v75h446v-50h50v-247h-73v45h-39v-50h50v-212h39v-50h50v-246h-473zM295 186h64v21h-64v-21zM309 492h-14v-34h14v34zM213 739
q-35 26 -59.5 42.5t-40.5 27.5q-27 17 -37 28.5t-10 35.5q0 26 18 44.5t44 18.5q23 0 41 -19t44 -53q16 -22 40 -51.5t66 -73.5h-106zM281 755q-25 27 -44.5 52.5t-35.5 46.5q-23 30 -39 48t-34 18q-20 0 -33 -13.5t-13 -33.5q0 -9 1.5 -15t5.5 -11t12 -10.5t20 -13.5
q16 -11 39 -26.5t58 -41.5h63z" />
    <glyph glyph-name="Eacute" unicode="&#xc9;" horiz-adv-x="523" 
d="M457 0v214h-42v-44h-186v103h96v-34h43v237h-43v-34h-96v116h160v-45h41v215h-414v-43h44v-643h-44v-42h441zM50 -66v50h-50v74h44v611h-44v75h446v-50h50v-247h-73v45h-39v-50h50v-212h39v-50h50v-246h-473zM295 186h64v21h-64v-21zM309 492h-14v-34h14v34zM419 873
q0 -24 -14.5 -38.5t-40.5 -31.5q-16 -11 -39.5 -26.5t-52.5 -37.5h-104l107 132q25 32 42 47t43 17q26 0 42.5 -18t16.5 -44zM403 873q0 20 -12.5 33t-30.5 13q-21 -2 -35 -15t-35 -39l-88 -110h65q29 22 51 36.5t38 25.5q26 17 36.5 27t10.5 29z" />
    <glyph glyph-name="Ecircumflex" unicode="&#xca;" horiz-adv-x="523" 
d="M457 0v214h-42v-44h-186v103h96v-34h43v237h-43v-34h-96v116h160v-45h41v215h-414v-43h44v-643h-44v-42h441zM50 -66v50h-50v74h44v611h-44v75h446v-50h50v-247h-73v45h-39v-50h50v-212h39v-50h50v-246h-473zM295 186h64v21h-64v-21zM309 492h-14v-34h14v34zM382 739h-98
l-47 49l-48 -49h-97l-25 25l170 170l168 -169zM382 764l-145 146l-146 -146l9 -9h81l56 57l55 -57h83z" />
    <glyph glyph-name="Edieresis" unicode="&#xcb;" horiz-adv-x="523" 
d="M457 0v214h-42v-44h-186v103h96v-34h43v237h-43v-34h-96v116h160v-45h41v215h-414v-43h44v-643h-44v-42h441zM50 -66v50h-50v74h44v611h-44v75h446v-50h50v-247h-73v45h-39v-50h50v-212h39v-50h50v-246h-473zM295 186h64v21h-64v-21zM309 492h-14v-34h14v34zM368 804
q0 -26 -19 -45.5t-45 -19.5q-28 0 -46 19.5t-18 45.5q0 27 19 46t45 19t45 -19t19 -46zM352 804q0 21 -14 35t-34 14t-34 -14t-14 -35q0 -20 14 -34.5t34 -14.5t34 14.5t14 34.5zM232 804q0 -26 -19 -45.5t-45 -19.5q-28 0 -46 19.5t-18 45.5q0 27 19 46t45 19
q25 0 44.5 -19t19.5 -46zM216 804q0 21 -14.5 35t-33.5 14q-20 0 -34 -14t-14 -35q0 -20 14 -34.5t34 -14.5t34 14.5t14 34.5z" />
    <glyph glyph-name="Igrave" unicode="&#xcc;" horiz-adv-x="339" 
d="M273 0v42h-44v643h44v43h-257v-43h44v-643h-44v-42h257zM50 -66v50h-50v74h44v611h-44v75h289v-50h50v-75h-44v-611h44v-74h-289zM106 732q-35 26 -59.5 42.5t-40.5 27.5q-27 17 -37 28.5t-10 35.5q0 26 18 44.5t44 18.5q23 0 41 -19t44 -53q16 -22 40 -51.5t66 -73.5
h-106zM174 748q-25 27 -44.5 52.5t-35.5 46.5q-23 30 -39 48t-34 18q-20 0 -33 -13.5t-13 -33.5q0 -9 1.5 -15t5.5 -11t12 -10.5t20 -13.5q16 -11 39 -26.5t58 -41.5h63z" />
    <glyph glyph-name="Iacute" unicode="&#xcd;" horiz-adv-x="339" 
d="M273 0v42h-44v643h44v43h-257v-43h44v-643h-44v-42h257zM50 -66v50h-50v74h44v611h-44v75h289v-50h50v-75h-44v-611h44v-74h-289zM348 867q0 -24 -14.5 -38.5t-40.5 -31.5q-16 -11 -39.5 -26.5t-52.5 -37.5h-104l107 132q25 32 42 47t43 17q26 0 42.5 -18t16.5 -44z
M332 867q0 20 -12.5 33t-30.5 13q-21 -2 -35 -15t-35 -39l-88 -110h65q29 22 51 36.5t38 25.5q26 17 36.5 27t10.5 29z" />
    <glyph glyph-name="Icircumflex" unicode="&#xce;" horiz-adv-x="339" 
d="M273 0v42h-44v643h44v43h-257v-43h44v-643h-44v-42h257zM50 -66v50h-50v74h44v611h-44v75h289v-50h50v-75h-44v-611h44v-74h-289zM295 733h-98l-47 49l-48 -49h-97l-25 25l170 170l168 -169zM295 758l-145 146l-146 -146l9 -9h81l56 57l55 -57h83z" />
    <glyph glyph-name="Idieresis" unicode="&#xcf;" horiz-adv-x="339" 
d="M273 0v42h-44v643h44v43h-257v-43h44v-643h-44v-42h257zM50 -66v50h-50v74h44v611h-44v75h289v-50h50v-75h-44v-611h44v-74h-289zM273 797q0 -26 -19 -45.5t-45 -19.5q-28 0 -46 19.5t-18 45.5q0 27 19 46t45 19t45 -19t19 -46zM257 797q0 21 -14 35t-34 14t-34 -14
t-14 -35q0 -20 14 -34.5t34 -14.5t34 14.5t14 34.5zM137 797q0 -26 -19 -45.5t-45 -19.5q-28 0 -46 19.5t-18 45.5q0 27 19 46t45 19q25 0 44.5 -19t19.5 -46zM121 797q0 21 -14.5 35t-33.5 14q-20 0 -34 -14t-14 -35q0 -20 14 -34.5t34 -14.5t34 14.5t14 34.5z" />
    <glyph glyph-name="Eth" unicode="&#xd0;" horiz-adv-x="707" 
d="M472 364q0 -39 -15.5 -74.5t-41.5 -62.5t-61 -42.5t-75 -15.5h-34v152h80v85h-80v151h34q40 0 75 -15.5t61 -41.5t41.5 -61t15.5 -75zM641 364q0 74 -29 140t-78.5 115.5t-115 78.5t-139.5 29h-247v-42h44v-279h-60v-85h60v-279h-44v-42h247q75 0 140.5 29t115 78.5
t78 115.5t28.5 141zM707 314q0 -78 -30 -147t-81 -121t-120 -82t-147 -30h-263v50h-50v74h44v197h-10v50h-50v117h60v247h-44v74h263q87 0 162 -38t128 -101q63 -53 100.5 -128t37.5 -162zM456 364q0 53 -30 97q-44 30 -97 30h-18v-69h30v-50h50v-117h-80v-67
q31 6 57.5 22.5t46 40t30.5 52.5t11 61z" />
    <glyph glyph-name="Ntilde" unicode="&#xd1;" horiz-adv-x="637" 
d="M571 0v42h-43v643h43v43h-256v-43h44v-178l-87 221h-192v-43h37q-98 -205 -98 -398q0 -61 8.5 -122t26.5 -123h-38v-42h256v42h-40q-23 59 -33.5 120t-10.5 125q0 82 16 149l155 -394h-44v-42h256zM349 -66v50h-11v-50h-288v50h-50v74h33q-16 58 -23 115t-7 114
q0 185 89 382h-28v75h219l16 -41v41h288v-50h50v-75h-43v-611h43v-74h-288zM288 22q1 -7 5 -14h6v50h37l-82 206v-27q0 -90 23 -179h11v-36zM461 801q0 -24 -19 -43.5t-46 -20.5q-8 0 -16 1t-16 6l-113 46v-51h-76v86q0 25 17 44.5t46 19.5q13 0 32 -7l113 -46v52h78v-87z
M445 872h-46v-58l-135 54q-7 3 -14 4t-12 1q-21 0 -34 -14.5t-13 -33.5v-70h44v59l135 -56q6 -3 13 -4t13 -1q21 1 35 15.5t14 32.5v71z" />
    <glyph glyph-name="Ograve" unicode="&#xd2;" 
d="M505 364q0 -40 -12.5 -76t-34.5 -63t-51 -43t-63 -16t-63 16.5t-50.5 43.5t-33.5 63t-12 75t12 75t33.5 63t50.5 43.5t63 16.5t63 -16t51 -43.5t34.5 -63.5t12.5 -75zM674 364q0 74 -26 141t-71 118t-105 81t-128 30t-127.5 -30t-104 -81t-70.5 -118t-26 -141
t25.5 -141.5t70 -118.5t104.5 -81t128 -30q69 0 129 30t104.5 81t70.5 118.5t26 141.5zM740 314q0 -78 -27 -148t-74 -123t-110 -84.5t-135 -31.5q-75 0 -139.5 34t-112.5 91q-32 27 -58.5 61.5t-45 74.5t-28.5 84.5t-10 91.5q0 77 27 147t73.5 123t109.5 84.5t134 31.5
q75 0 140 -34.5t113 -92.5q65 -54 104 -134.5t39 -174.5zM489 364q0 32 -8.5 61t-24.5 52q-30 19 -62 19q-30 0 -56.5 -15t-45.5 -40t-30 -58t-11 -69q0 -32 8.5 -61.5t23.5 -53.5q29 -17 61 -17q30 0 56.5 15t46 40t31 58t11.5 69zM329 740q-35 26 -59.5 42.5t-40.5 27.5
q-27 17 -37 28.5t-10 35.5q0 26 18 44.5t44 18.5q23 0 41 -19t44 -53q16 -22 40 -51.5t66 -73.5h-106zM397 756q-25 27 -44.5 52.5t-35.5 46.5q-23 30 -39 48t-34 18q-20 0 -33 -13.5t-13 -33.5q0 -9 1.5 -15t5.5 -11t12 -10.5t20 -13.5q16 -11 39 -26.5t58 -41.5h63z" />
    <glyph glyph-name="Oacute" unicode="&#xd3;" 
d="M505 364q0 -40 -12.5 -76t-34.5 -63t-51 -43t-63 -16t-63 16.5t-50.5 43.5t-33.5 63t-12 75t12 75t33.5 63t50.5 43.5t63 16.5t63 -16t51 -43.5t34.5 -63.5t12.5 -75zM674 364q0 74 -26 141t-71 118t-105 81t-128 30t-127.5 -30t-104 -81t-70.5 -118t-26 -141
t25.5 -141.5t70 -118.5t104.5 -81t128 -30q69 0 129 30t104.5 81t70.5 118.5t26 141.5zM740 314q0 -78 -27 -148t-74 -123t-110 -84.5t-135 -31.5q-75 0 -139.5 34t-112.5 91q-32 27 -58.5 61.5t-45 74.5t-28.5 84.5t-10 91.5q0 77 27 147t73.5 123t109.5 84.5t134 31.5
q75 0 140 -34.5t113 -92.5q65 -54 104 -134.5t39 -174.5zM489 364q0 32 -8.5 61t-24.5 52q-30 19 -62 19q-30 0 -56.5 -15t-45.5 -40t-30 -58t-11 -69q0 -32 8.5 -61.5t23.5 -53.5q29 -17 61 -17q30 0 56.5 15t46 40t31 58t11.5 69zM496 874q0 -24 -14.5 -38.5t-40.5 -31.5
q-16 -11 -39.5 -26.5t-52.5 -37.5h-104l107 132q25 32 42 47t43 17q26 0 42.5 -18t16.5 -44zM480 874q0 20 -12.5 33t-30.5 13q-21 -2 -35 -15t-35 -39l-88 -110h65q29 22 51 36.5t38 25.5q26 17 36.5 27t10.5 29z" />
    <glyph glyph-name="Ocircumflex" unicode="&#xd4;" 
d="M505 364q0 -40 -12.5 -76t-34.5 -63t-51 -43t-63 -16t-63 16.5t-50.5 43.5t-33.5 63t-12 75t12 75t33.5 63t50.5 43.5t63 16.5t63 -16t51 -43.5t34.5 -63.5t12.5 -75zM674 364q0 74 -26 141t-71 118t-105 81t-128 30t-127.5 -30t-104 -81t-70.5 -118t-26 -141
t25.5 -141.5t70 -118.5t104.5 -81t128 -30q69 0 129 30t104.5 81t70.5 118.5t26 141.5zM740 314q0 -78 -27 -148t-74 -123t-110 -84.5t-135 -31.5q-75 0 -139.5 34t-112.5 91q-32 27 -58.5 61.5t-45 74.5t-28.5 84.5t-10 91.5q0 77 27 147t73.5 123t109.5 84.5t134 31.5
q75 0 140 -34.5t113 -92.5q65 -54 104 -134.5t39 -174.5zM489 364q0 32 -8.5 61t-24.5 52q-30 19 -62 19q-30 0 -56.5 -15t-45.5 -40t-30 -58t-11 -69q0 -32 8.5 -61.5t23.5 -53.5q29 -17 61 -17q30 0 56.5 15t46 40t31 58t11.5 69zM490 739h-98l-47 49l-48 -49h-97l-25 25
l170 170l168 -169zM490 764l-145 146l-146 -146l9 -9h81l56 57l55 -57h83z" />
    <glyph glyph-name="Otilde" unicode="&#xd5;" 
d="M505 364q0 -40 -12.5 -76t-34.5 -63t-51 -43t-63 -16t-63 16.5t-50.5 43.5t-33.5 63t-12 75t12 75t33.5 63t50.5 43.5t63 16.5t63 -16t51 -43.5t34.5 -63.5t12.5 -75zM674 364q0 74 -26 141t-71 118t-105 81t-128 30t-127.5 -30t-104 -81t-70.5 -118t-26 -141
t25.5 -141.5t70 -118.5t104.5 -81t128 -30q69 0 129 30t104.5 81t70.5 118.5t26 141.5zM740 314q0 -78 -27 -148t-74 -123t-110 -84.5t-135 -31.5q-75 0 -139.5 34t-112.5 91q-32 27 -58.5 61.5t-45 74.5t-28.5 84.5t-10 91.5q0 77 27 147t73.5 123t109.5 84.5t134 31.5
q75 0 140 -34.5t113 -92.5q65 -54 104 -134.5t39 -174.5zM489 364q0 32 -8.5 61t-24.5 52q-30 19 -62 19q-30 0 -56.5 -15t-45.5 -40t-30 -58t-11 -69q0 -32 8.5 -61.5t23.5 -53.5q29 -17 61 -17q30 0 56.5 15t46 40t31 58t11.5 69zM487 801q0 -24 -19 -43.5t-46 -20.5
q-8 0 -16 1t-16 6l-113 46v-51h-76v86q0 25 17 44.5t46 19.5q13 0 32 -7l113 -46v52h78v-87zM471 872h-46v-58l-135 54q-7 3 -14 4t-12 1q-21 0 -34 -14.5t-13 -33.5v-70h44v59l135 -56q6 -3 13 -4t13 -1q21 1 35 15.5t14 32.5v71z" />
    <glyph glyph-name="Odieresis" unicode="&#xd6;" 
d="M505 364q0 -40 -12.5 -76t-34.5 -63t-51 -43t-63 -16t-63 16.5t-50.5 43.5t-33.5 63t-12 75t12 75t33.5 63t50.5 43.5t63 16.5t63 -16t51 -43.5t34.5 -63.5t12.5 -75zM674 364q0 74 -26 141t-71 118t-105 81t-128 30t-127.5 -30t-104 -81t-70.5 -118t-26 -141
t25.5 -141.5t70 -118.5t104.5 -81t128 -30q69 0 129 30t104.5 81t70.5 118.5t26 141.5zM740 314q0 -78 -27 -148t-74 -123t-110 -84.5t-135 -31.5q-75 0 -139.5 34t-112.5 91q-32 27 -58.5 61.5t-45 74.5t-28.5 84.5t-10 91.5q0 77 27 147t73.5 123t109.5 84.5t134 31.5
q75 0 140 -34.5t113 -92.5q65 -54 104 -134.5t39 -174.5zM489 364q0 32 -8.5 61t-24.5 52q-30 19 -62 19q-30 0 -56.5 -15t-45.5 -40t-30 -58t-11 -69q0 -32 8.5 -61.5t23.5 -53.5q29 -17 61 -17q30 0 56.5 15t46 40t31 58t11.5 69zM476 804q0 -26 -19 -45.5t-45 -19.5
q-28 0 -46 19.5t-18 45.5q0 27 19 46t45 19t45 -19t19 -46zM460 804q0 21 -14 35t-34 14t-34 -14t-14 -35q0 -20 14 -34.5t34 -14.5t34 14.5t14 34.5zM340 804q0 -26 -19 -45.5t-45 -19.5q-28 0 -46 19.5t-18 45.5q0 27 19 46t45 19q25 0 44.5 -19t19.5 -46zM324 804
q0 21 -14.5 35t-33.5 14q-20 0 -34 -14t-14 -35q0 -20 14 -34.5t34 -14.5t34 14.5t14 34.5z" />
    <glyph glyph-name="multiply" unicode="&#xd7;" horiz-adv-x="602" 
d="M155 627l-133 -133l120 -121l-120 -120l133 -134l121 120l121 -120l133 134l-121 120l121 121l-133 133l-121 -120zM276 529l121 120l205 -205l-121 -121l121 -120l-155 -156l-121 120l-121 -120l-205 206l120 120l-120 121l155 155z" />
    <glyph glyph-name="Oslash" unicode="&#xd8;" horiz-adv-x="741" 
d="M221 240q-35 55 -35 124q0 39 12 75t33.5 63t50.5 43.5t63 16.5q32 0 62 -16zM506 364q0 -40 -12.5 -76t-34.5 -63t-51.5 -43t-62.5 -16q-34 0 -61 14l186 307q36 -56 36 -123zM675 364q0 78 -30 151t-82 126l53 88h-99l-21 -35q-68 40 -151 40q-69 0 -129 -30
t-104.5 -81t-70 -118t-25.5 -141q0 -165 112 -278l-53 -86h99l21 34q69 -41 150 -41q69 0 129 30t104.5 81t70.5 118.5t26 141.5zM741 314q0 -78 -27 -148t-74 -123t-110 -84.5t-135 -31.5q-78 0 -145 36l-17 -29h-137l31 50h-81l62 100q-56 60 -82 129t-26 151q0 77 27 147
t73.5 123t109.5 84.5t135 31.5q78 0 146 -35q5 8 8.5 15.5t8.5 14.5h136l-30 -50h80l-61 -102q51 -55 79.5 -128.5t28.5 -150.5zM353 488q-22 -9 -40 -25.5t-31.5 -38t-21 -48t-8.5 -54.5zM389 191q21 9 39 25t31.5 38t21.5 48t9 54z" />
    <glyph glyph-name="Ugrave" unicode="&#xd9;" horiz-adv-x="669" 
d="M603 685v43h-257v-43h46v-432q0 -35 -24.5 -59.5t-59.5 -24.5t-58 24.5t-23 59.5v432h45v43h-256v-43h41v-432q0 -53 20 -99t54 -80t79.5 -54t97.5 -20t98 20t80.5 54.5t54.5 80.5t20 98v432h42zM627 619v-416q0 -56 -21.5 -104.5t-58 -85.5t-85.5 -58t-104 -21
q-65 0 -120 28.5t-92 76.5q-48 37 -76.5 92.5t-28.5 121.5v416h-41v75h288v-50h42v50h289v-50h50v-75h-42zM338 669v-50h-45v-416q0 -5 0.5 -8.5t1.5 -8.5q4 -1 13 -1q28 0 48 20t20 48v416h-38zM312 739q-35 26 -59.5 42.5t-40.5 27.5q-27 17 -37 28.5t-10 35.5
q0 26 18 44.5t44 18.5q23 0 41 -19t44 -53q16 -22 40 -51.5t66 -73.5h-106zM380 755q-25 27 -44.5 52.5t-35.5 46.5q-23 30 -39 48t-34 18q-20 0 -33 -13.5t-13 -33.5q0 -9 1.5 -15t5.5 -11t12 -10.5t20 -13.5q16 -11 39 -26.5t58 -41.5h63z" />
    <glyph glyph-name="Uacute" unicode="&#xda;" horiz-adv-x="669" 
d="M603 685v43h-257v-43h46v-432q0 -35 -24.5 -59.5t-59.5 -24.5t-58 24.5t-23 59.5v432h45v43h-256v-43h41v-432q0 -53 20 -99t54 -80t79.5 -54t97.5 -20t98 20t80.5 54.5t54.5 80.5t20 98v432h42zM627 619v-416q0 -56 -21.5 -104.5t-58 -85.5t-85.5 -58t-104 -21
q-65 0 -120 28.5t-92 76.5q-48 37 -76.5 92.5t-28.5 121.5v416h-41v75h288v-50h42v50h289v-50h50v-75h-42zM338 669v-50h-45v-416q0 -5 0.5 -8.5t1.5 -8.5q4 -1 13 -1q28 0 48 20t20 48v416h-38zM457 873q0 -24 -14.5 -38.5t-40.5 -31.5q-16 -11 -39.5 -26.5t-52.5 -37.5
h-104l107 132q25 32 42 47t43 17q26 0 42.5 -18t16.5 -44zM441 873q0 20 -12.5 33t-30.5 13q-21 -2 -35 -15t-35 -39l-88 -110h65q29 22 51 36.5t38 25.5q26 17 36.5 27t10.5 29z" />
    <glyph glyph-name="Ucircumflex" unicode="&#xdb;" horiz-adv-x="669" 
d="M603 685v43h-257v-43h46v-432q0 -35 -24.5 -59.5t-59.5 -24.5t-58 24.5t-23 59.5v432h45v43h-256v-43h41v-432q0 -53 20 -99t54 -80t79.5 -54t97.5 -20t98 20t80.5 54.5t54.5 80.5t20 98v432h42zM627 619v-416q0 -56 -21.5 -104.5t-58 -85.5t-85.5 -58t-104 -21
q-65 0 -120 28.5t-92 76.5q-48 37 -76.5 92.5t-28.5 121.5v416h-41v75h288v-50h42v50h289v-50h50v-75h-42zM338 669v-50h-45v-416q0 -5 0.5 -8.5t1.5 -8.5q4 -1 13 -1q28 0 48 20t20 48v416h-38zM455 739h-98l-47 49l-48 -49h-97l-25 25l170 170l168 -169zM455 764l-145 146
l-146 -146l9 -9h81l56 57l55 -57h83z" />
    <glyph glyph-name="Udieresis" unicode="&#xdc;" horiz-adv-x="669" 
d="M603 685v43h-257v-43h46v-432q0 -35 -24.5 -59.5t-59.5 -24.5t-58 24.5t-23 59.5v432h45v43h-256v-43h41v-432q0 -53 20 -99t54 -80t79.5 -54t97.5 -20t98 20t80.5 54.5t54.5 80.5t20 98v432h42zM627 619v-416q0 -56 -21.5 -104.5t-58 -85.5t-85.5 -58t-104 -21
q-65 0 -120 28.5t-92 76.5q-48 37 -76.5 92.5t-28.5 121.5v416h-41v75h288v-50h42v50h289v-50h50v-75h-42zM338 669v-50h-45v-416q0 -5 0.5 -8.5t1.5 -8.5q4 -1 13 -1q28 0 48 20t20 48v416h-38zM441 804q0 -26 -19 -45.5t-45 -19.5q-28 0 -46 19.5t-18 45.5q0 27 19 46
t45 19t45 -19t19 -46zM425 804q0 21 -14 35t-34 14t-34 -14t-14 -35q0 -20 14 -34.5t34 -14.5t34 14.5t14 34.5zM305 804q0 -26 -19 -45.5t-45 -19.5q-28 0 -46 19.5t-18 45.5q0 27 19 46t45 19q25 0 44.5 -19t19.5 -46zM289 804q0 21 -14.5 35t-33.5 14q-20 0 -34 -14
t-14 -35q0 -20 14 -34.5t34 -14.5t34 14.5t14 34.5z" />
    <glyph glyph-name="Yacute" unicode="&#xdd;" horiz-adv-x="687" 
d="M621 685v43h-259v-43h36l-81 -206l-79 206h37v43h-259v-43h40l178 -460v-182h-43v-43h256v43h-44v190l176 452h42zM640 619q-43 -112 -85.5 -219.5t-85.5 -219.5v-171h44v-75h-288v50h-50v75h43v163l-154 397h-14v37l-5 13h-45v75h291v-50h50v-75h-29l21 -56l41 106h-28
v75h291v-50h50v-75h-47zM466 873q0 -24 -14.5 -38.5t-40.5 -31.5q-16 -11 -39.5 -26.5t-52.5 -37.5h-104l107 132q25 32 42 47t43 17q26 0 42.5 -18t16.5 -44zM450 873q0 20 -12.5 33t-30.5 13q-21 -2 -35 -15t-35 -39l-88 -110h65q29 22 51 36.5t38 25.5q26 17 36.5 27
t10.5 29z" />
    <glyph glyph-name="Thorn" unicode="&#xde;" horiz-adv-x="553" 
d="M317 367q0 -35 -24.5 -57.5t-59.5 -22.5h-15v165h15q35 0 59.5 -25t24.5 -60zM487 367q0 52 -20.5 98t-55 80.5t-80.5 54.5t-98 20h-15v65h35v43h-237v-43h33v-643h-33v-42h237v42h-35v75q2 0 4 0.5t4 0.5t3.5 -0.5t3.5 -0.5q52 0 98.5 19.5t81 53.5t54.5 79.5t20 97.5z
M553 317q0 -55 -21 -103.5t-58 -84.5t-86 -57t-104 -21v-43h35v-74h-269v50h-50v74h33v611h-33v75h269v-50h50v-73q38 -13 70.5 -36.5t57.5 -55.5q48 -37 77 -92t29 -120zM301 367q0 5 -0.5 8.5t-1.5 8.5q-10 2 -15 2v-63q8 8 12.5 19.5t4.5 24.5z" />
    <glyph glyph-name="germandbls" unicode="&#xdf;" horiz-adv-x="628" 
d="M422 161q0 -28 -42 -28q-10 0 -21.5 2t-22.5 5q0 5 0.5 7t0.5 6v9q0 29 -12 58.5t-32 57.5q-8 12 -28.5 34t-49.5 51q-41 41 -41 61q0 24 37 24q29 0 50 -14q-1 -6 -1.5 -12.5t-0.5 -9.5q0 -26 10.5 -52.5t32.5 -49.5l80 -84q20 -21 30 -37.5t10 -27.5zM562 162
q0 60 -43 116q-8 12 -28 33t-50 51q-20 20 -30.5 35.5t-10.5 26.5q0 24 38 24q45 0 64 -28v-25h40v194h-40v-9q-33 9 -69 9q-35 0 -63.5 -10.5t-54.5 -33.5v44h-40v-9q-32 9 -68 9q-35 0 -66.5 -12.5t-55 -35t-37.5 -52.5t-14 -65q0 -28 11 -57.5t32 -56.5q8 -11 27.5 -32.5
t50.5 -52.5q42 -42 42 -64q0 -28 -45 -28q-26 0 -49 7t-46 24v23h-41v-192h41v15q54 -19 93 -19q51 0 92 22v-18h41v15q54 -19 93 -19q37 0 71 13t59.5 35.5t40.5 54t15 68.5zM628 112q0 -41 -16.5 -75t-44 -59t-64.5 -39t-77 -14q-17 0 -36.5 3.5t-40.5 9.5v-9h-73v10
q-37 -14 -76 -14q-17 0 -36.5 3.5t-40.5 9.5v-9h-73v50h-50v224h73v-31q19 -14 42 -19l8 -2q7 -1 14 -1.5t15 -0.5q29 0 29 12q0 14 -36 53q-35 34 -54.5 55.5t-26.5 30.5q-46 60 -46 124q0 38 15 71t41 57.5t60 38.5t73 14q13 0 26 -1t26 -4v5h72v-27q45 27 102 27
q25 0 53 -5v5h72v-50h50v-226h-72v36q-10 10 -22 14l-28 3q-20 -2 -20 -8q0 -8 10 -20.5t27 -29.5q30 -32 50.5 -53.5t28.5 -32.5q46 -61 46 -126zM406 161q0 7 -8.5 20.5t-25.5 30.5q19 -32 26 -61q8 3 8 10zM263 337q-11 22 -17 43q-6 -2 -6 -6q0 -11 23 -37z" />
    <glyph glyph-name="agrave" unicode="&#xe0;" horiz-adv-x="522" 
d="M282 310l-89 -29q26 86 83 158h6v-129zM456 0v40h-33v499h33v41h-306v-41h27q-71 -85 -107 -184t-36 -206q0 -55 9 -109h-27v-40h208v40h-37q-6 23 -9 43.5t-3 43.5l107 35v-122h-35v-40h209zM50 -66v50h-50v72h24q-3 22 -4.5 46t-1.5 47q0 100 32.5 196t93.5 178h-10v73
h338v-50h50v-73h-33v-467h33v-72h-472zM266 56v17q-14 -5 -25 -8v-9h25zM264 591q-35 26 -59.5 42.5t-40.5 27.5q-27 17 -37 28.5t-10 35.5q0 26 18 44.5t44 18.5q23 0 41 -19t44 -53q16 -22 40 -51.5t66 -73.5h-106zM332 607q-25 27 -44.5 52.5t-35.5 46.5q-23 30 -39 48
t-34 18q-20 0 -33 -13.5t-13 -33.5q0 -9 1.5 -15t5.5 -11t12 -10.5t20 -13.5q16 -11 39 -26.5t58 -41.5h63z" />
    <glyph glyph-name="aacute" unicode="&#xe1;" horiz-adv-x="522" 
d="M282 310l-89 -29q26 86 83 158h6v-129zM456 0v40h-33v499h33v41h-306v-41h27q-71 -85 -107 -184t-36 -206q0 -55 9 -109h-27v-40h208v40h-37q-6 23 -9 43.5t-3 43.5l107 35v-122h-35v-40h209zM50 -66v50h-50v72h24q-3 22 -4.5 46t-1.5 47q0 100 32.5 196t93.5 178h-10v73
h338v-50h50v-73h-33v-467h33v-72h-472zM266 56v17q-14 -5 -25 -8v-9h25zM453 725q0 -24 -14.5 -38.5t-40.5 -31.5q-16 -11 -39.5 -26.5t-52.5 -37.5h-104l107 132q25 32 42 47t43 17q26 0 42.5 -18t16.5 -44zM437 725q0 20 -12.5 33t-30.5 13q-21 -2 -35 -15t-35 -39
l-88 -110h65q29 22 51 36.5t38 25.5q26 17 36.5 27t10.5 29z" />
    <glyph glyph-name="acircumflex" unicode="&#xe2;" horiz-adv-x="522" 
d="M282 310l-89 -29q26 86 83 158h6v-129zM456 0v40h-33v499h33v41h-306v-41h27q-71 -85 -107 -184t-36 -206q0 -55 9 -109h-27v-40h208v40h-37q-6 23 -9 43.5t-3 43.5l107 35v-122h-35v-40h209zM50 -66v50h-50v72h24q-3 22 -4.5 46t-1.5 47q0 100 32.5 196t93.5 178h-10v73
h338v-50h50v-73h-33v-467h33v-72h-472zM266 56v17q-14 -5 -25 -8v-9h25zM426 591h-98l-47 49l-48 -49h-97l-25 25l170 170l168 -169zM426 616l-145 146l-146 -146l9 -9h81l56 57l55 -57h83z" />
    <glyph glyph-name="atilde" unicode="&#xe3;" horiz-adv-x="522" 
d="M282 310l-89 -29q26 86 83 158h6v-129zM456 0v40h-33v499h33v41h-306v-41h27q-71 -85 -107 -184t-36 -206q0 -55 9 -109h-27v-40h208v40h-37q-6 23 -9 43.5t-3 43.5l107 35v-122h-35v-40h209zM50 -66v50h-50v72h24q-3 22 -4.5 46t-1.5 47q0 100 32.5 196t93.5 178h-10v73
h338v-50h50v-73h-33v-467h33v-72h-472zM266 56v17q-14 -5 -25 -8v-9h25zM425 653q0 -24 -19 -43.5t-46 -20.5q-8 0 -16 1t-16 6l-113 46v-51h-76v86q0 25 17 44.5t46 19.5q13 0 32 -7l113 -46v52h78v-87zM409 724h-46v-58l-135 54q-7 3 -14 4t-12 1q-21 0 -34 -14.5
t-13 -33.5v-70h44v59l135 -56q6 -3 13 -4t13 -1q21 1 35 15.5t14 32.5v71z" />
    <glyph glyph-name="adieresis" unicode="&#xe4;" horiz-adv-x="522" 
d="M282 310l-89 -29q26 86 83 158h6v-129zM456 0v40h-33v499h33v41h-306v-41h27q-71 -85 -107 -184t-36 -206q0 -55 9 -109h-27v-40h208v40h-37q-6 23 -9 43.5t-3 43.5l107 35v-122h-35v-40h209zM50 -66v50h-50v72h24q-3 22 -4.5 46t-1.5 47q0 100 32.5 196t93.5 178h-10v73
h338v-50h50v-73h-33v-467h33v-72h-472zM266 56v17q-14 -5 -25 -8v-9h25zM415 656q0 -26 -19 -45.5t-45 -19.5q-28 0 -46 19.5t-18 45.5q0 27 19 46t45 19t45 -19t19 -46zM399 656q0 21 -14 35t-34 14t-34 -14t-14 -35q0 -20 14 -34.5t34 -14.5t34 14.5t14 34.5zM279 656
q0 -26 -19 -45.5t-45 -19.5q-28 0 -46 19.5t-18 45.5q0 27 19 46t45 19q25 0 44.5 -19t19.5 -46zM263 656q0 21 -14.5 35t-33.5 14q-20 0 -34 -14t-14 -35q0 -20 14 -34.5t34 -14.5t34 14.5t14 34.5z" />
    <glyph glyph-name="aring" unicode="&#xe5;" horiz-adv-x="522" 
d="M282 310l-89 -29q26 86 83 158h6v-129zM456 0v40h-33v499h33v41h-306v-41h27q-71 -85 -107 -184t-36 -206q0 -55 9 -109h-27v-40h208v40h-37q-6 23 -9 43.5t-3 43.5l107 35v-122h-35v-40h209zM50 -66v50h-50v72h24q-3 22 -4.5 46t-1.5 47q0 100 32.5 196t93.5 178h-10v73
h338v-50h50v-73h-33v-467h33v-72h-472zM266 56v17q-14 -5 -25 -8v-9h25zM402 698q0 -22 -8.5 -42t-23.5 -35t-34.5 -23.5t-41.5 -8.5t-42 8.5t-35 23.5t-24 34.5t-9 42.5q0 22 8.5 42t23.5 35t34 24t40 9q23 0 43.5 -8.5t35.5 -23.5t24 -35t9 -43zM386 698q0 40 -28 67
t-68 27q-18 0 -34.5 -7.5t-28.5 -20.5t-19.5 -30t-7.5 -36q0 -20 7.5 -36.5t20.5 -29.5t30 -20t36 -7t36 7.5t29.5 20t19.5 29.5t7 36zM320 698q0 11 -7.5 18.5t-18.5 7.5t-19 -7.5t-8 -18.5t8 -18.5t19 -7.5t18.5 7.5t7.5 18.5zM336 698q0 -17 -12.5 -29.5t-29.5 -12.5
t-30 12.5t-13 29.5t13 29.5t30 12.5t29.5 -12.5t12.5 -29.5z" />
    <glyph glyph-name="ae" unicode="&#xe6;" horiz-adv-x="669" 
d="M283 310l-89 -29q26 84 84 158h5v-129zM603 0v175h-41v-35h-139v74h68v-25h41v193h-41v-27h-68v84h119v-35h39v176h-430v-41h27q-69 -80 -106 -181.5t-37 -209.5q0 -27 2.5 -54t7.5 -54h-29v-40h209v40h-37q-9 40 -12 87l107 35v-122h-35v-40h355zM50 -66v50h-50v72h26
q-3 23 -5 45.5t-2 46.5q0 101 33 198.5t93 176.5h-10v73h462v-50h50v-208h-49v-147h21v-50h50v-207h-619zM548 373v-25h28v25h-28zM267 56v17l-12 -4l-12 -4v-9h24z" />
    <glyph glyph-name="ccedilla" unicode="&#xe7;" horiz-adv-x="618" 
d="M546 72l-147 148l-30 -29l23 -23q-37 -28 -86 -28q-31 0 -58 12t-47.5 32.5t-32 48t-11.5 58.5q0 30 11.5 57t32 47.5t47.5 32t58 11.5q48 0 88 -28l-25 -24l30 -29l147 149l-29 28l-24 -24q-80 69 -187 69q-59 0 -112 -23t-92.5 -62.5t-62.5 -92t-23 -111.5
q0 -60 23 -113t62.5 -92t92 -62t112.5 -23q53 0 99.5 16t86.5 50l25 -25zM569 -30l-28 26q-81 -61 -185 -61q-73 0 -135.5 31.5t-104.5 84.5q-53 42 -84.5 104.5t-31.5 135.5q0 63 24.5 118.5t66 97t97 65.5t118.5 24q104 0 186 -64l25 25l101 -100l-169 -171l-89 87h-4
q-27 0 -51.5 -10.5t-42.5 -28.5t-28.5 -42t-10.5 -51q0 -19 5 -36t13 -32q29 -17 65 -17q34 0 61 15l-21 21l53 50l219 -220zM392 -159q0 -26 -10 -49t-27.5 -40t-40 -27t-47.5 -10q-14 0 -25.5 2t-23.5 7l-5 -17l-56 18q14 44 23 74.5t17 58.5l54 -18l-5 -23q6 -5 11 -6
t10 -1q30 0 30 29q0 13 -8.5 21.5t-21.5 8.5q-12 0 -36 -17l-33 27l26 88q50 0 82.5 -12t51.5 -31t26.5 -41t7.5 -42zM376 -159q0 17 -6 36t-21.5 35.5t-42.5 27t-69 11.5q-5 -17 -10.5 -32.5t-10.5 -32.5q3 -2 7.5 -6.5l7.5 -7.5q22 13 36 13q19 0 32.5 -13.5t13.5 -32.5
q0 -45 -46 -45q-8 0 -17.5 3.5t-22.5 13.5l6 20q-8 2 -12.5 3t-12.5 3l-31 -100l24 -9l5 20q17 -9 32 -13t29 -4q22 0 42 8.5t35 23.5t23.5 35t8.5 43z" />
    <glyph glyph-name="egrave" unicode="&#xe8;" horiz-adv-x="437" 
d="M371 0v175h-41v-35h-139v74h68v-25h41v193h-41v-27h-68v84h119v-35h40v176h-334v-41h35v-499h-35v-40h355zM50 -66v50h-50v72h35v467h-35v73h366v-50h50v-208h-50v-147h21v-50h50v-207h-387zM316 373v-25h28v25h-28zM197 591q-35 26 -59.5 42.5t-40.5 27.5
q-27 17 -37 28.5t-10 35.5q0 26 18 44.5t44 18.5q23 0 41 -19t44 -53q16 -22 40 -51.5t66 -73.5h-106zM265 607q-25 27 -44.5 52.5t-35.5 46.5q-23 30 -39 48t-34 18q-20 0 -33 -13.5t-13 -33.5q0 -9 1.5 -15t5.5 -11t12 -10.5t20 -13.5q16 -11 39 -26.5t58 -41.5h63z" />
    <glyph glyph-name="eacute" unicode="&#xe9;" horiz-adv-x="437" 
d="M371 0v175h-41v-35h-139v74h68v-25h41v193h-41v-27h-68v84h119v-35h40v176h-334v-41h35v-499h-35v-40h355zM50 -66v50h-50v72h35v467h-35v73h366v-50h50v-208h-50v-147h21v-50h50v-207h-387zM316 373v-25h28v25h-28zM338 725q0 -24 -14.5 -38.5t-40.5 -31.5
q-16 -11 -39.5 -26.5t-52.5 -37.5h-104l107 132q25 32 42 47t43 17q26 0 42.5 -18t16.5 -44zM322 725q0 20 -12.5 33t-30.5 13q-21 -2 -35 -15t-35 -39l-88 -110h65q29 22 51 36.5t38 25.5q26 17 36.5 27t10.5 29z" />
    <glyph glyph-name="ecircumflex" unicode="&#xea;" horiz-adv-x="437" 
d="M371 0v175h-41v-35h-139v74h68v-25h41v193h-41v-27h-68v84h119v-35h40v176h-334v-41h35v-499h-35v-40h355zM50 -66v50h-50v72h35v467h-35v73h366v-50h50v-208h-50v-147h21v-50h50v-207h-387zM316 373v-25h28v25h-28zM341 591h-98l-47 49l-48 -49h-97l-25 25l170 170
l168 -169zM341 616l-145 146l-146 -146l9 -9h81l56 57l55 -57h83z" />
    <glyph glyph-name="edieresis" unicode="&#xeb;" horiz-adv-x="437" 
d="M371 0v175h-41v-35h-139v74h68v-25h41v193h-41v-27h-68v84h119v-35h40v176h-334v-41h35v-499h-35v-40h355zM50 -66v50h-50v72h35v467h-35v73h366v-50h50v-208h-50v-147h21v-50h50v-207h-387zM316 373v-25h28v25h-28zM327 656q0 -26 -19 -45.5t-45 -19.5q-28 0 -46 19.5
t-18 45.5q0 27 19 46t45 19t45 -19t19 -46zM311 656q0 21 -14 35t-34 14t-34 -14t-14 -35q0 -20 14 -34.5t34 -14.5t34 14.5t14 34.5zM191 656q0 -26 -19 -45.5t-45 -19.5q-28 0 -46 19.5t-18 45.5q0 27 19 46t45 19q25 0 44.5 -19t19.5 -46zM175 656q0 21 -14.5 35
t-33.5 14q-20 0 -34 -14t-14 -35q0 -20 14 -34.5t34 -14.5t34 14.5t14 34.5z" />
    <glyph glyph-name="igrave" unicode="&#xec;" horiz-adv-x="291" 
d="M225 0v40h-34v499h34v41h-209v-41h34v-499h-34v-40h209zM50 -66v50h-50v72h34v467h-34v73h241v-50h50v-73h-34v-467h34v-72h-241zM102 591q-35 26 -59.5 42.5t-40.5 27.5q-27 17 -37 28.5t-10 35.5q0 26 18 44.5t44 18.5q23 0 41 -19t44 -53q16 -22 40 -51.5t66 -73.5
h-106zM170 607q-25 27 -44.5 52.5t-35.5 46.5q-23 30 -39 48t-34 18q-20 0 -33 -13.5t-13 -33.5q0 -9 1.5 -15t5.5 -11t12 -10.5t20 -13.5q16 -11 39 -26.5t58 -41.5h63z" />
    <glyph glyph-name="iacute" unicode="&#xed;" horiz-adv-x="291" 
d="M225 0v40h-34v499h34v41h-209v-41h34v-499h-34v-40h209zM50 -66v50h-50v72h34v467h-34v73h241v-50h50v-73h-34v-467h34v-72h-241zM317 725q0 -24 -14.5 -38.5t-40.5 -31.5q-16 -11 -39.5 -26.5t-52.5 -37.5h-104l107 132q25 32 42 47t43 17q26 0 42.5 -18t16.5 -44z
M301 725q0 20 -12.5 33t-30.5 13q-21 -2 -35 -15t-35 -39l-88 -110h65q29 22 51 36.5t38 25.5q26 17 36.5 27t10.5 29z" />
    <glyph glyph-name="icircumflex" unicode="&#xee;" horiz-adv-x="291" 
d="M225 0v40h-34v499h34v41h-209v-41h34v-499h-34v-40h209zM50 -66v50h-50v72h34v467h-34v73h241v-50h50v-73h-34v-467h34v-72h-241zM276 591h-98l-47 49l-48 -49h-97l-25 25l170 170l168 -169zM276 616l-145 146l-146 -146l9 -9h81l56 57l55 -57h83z" />
    <glyph glyph-name="idieresis" unicode="&#xef;" horiz-adv-x="291" 
d="M225 0v40h-34v499h34v41h-209v-41h34v-499h-34v-40h209zM50 -66v50h-50v72h34v467h-34v73h241v-50h50v-73h-34v-467h34v-72h-241zM257 656q0 -26 -19 -45.5t-45 -19.5q-28 0 -46 19.5t-18 45.5q0 27 19 46t45 19t45 -19t19 -46zM241 656q0 21 -14 35t-34 14t-34 -14
t-14 -35q0 -20 14 -34.5t34 -14.5t34 14.5t14 34.5zM121 656q0 -26 -19 -45.5t-45 -19.5q-28 0 -46 19.5t-18 45.5q0 27 19 46t45 19q25 0 44.5 -19t19.5 -46zM105 656q0 21 -14.5 35t-33.5 14q-20 0 -34 -14t-14 -35q0 -20 14 -34.5t34 -14.5t34 14.5t14 34.5z" />
    <glyph glyph-name="eth" unicode="&#xf0;" horiz-adv-x="582" 
d="M376 290q0 -30 -12 -57.5t-32 -48t-47 -32.5t-58 -12h-23v113h62v74h-62v111h23q31 0 58 -11.5t47 -31.5t32 -47t12 -58zM516 290q0 58 -23 111t-62.5 92.5t-92 63t-111.5 23.5h-198v-41h35v-212h-48v-74h48v-213h-35v-40h198q59 0 111.5 23t92 62.5t62.5 92t23 112.5z
M582 240q0 -63 -24 -118.5t-65.5 -97.5t-97 -66t-118.5 -24h-214v50h-50v72h35v181h-48v106h48v180h-35v73h214q72 0 134 -32t104 -86q54 -43 85.5 -104.5t31.5 -133.5zM360 290q0 17 -5 34t-13 31q-29 17 -65 17h-7v-29h12v-50h50v-84q13 17 20.5 37.5t7.5 43.5zM270 163
q23 9 41 24h-41v-24z" />
    <glyph glyph-name="ntilde" unicode="&#xf1;" horiz-adv-x="526" 
d="M460 0v40h-33v499h33v41h-209v-41h34v-117l-62 158h-157v-41h26q-38 -81 -56 -157.5t-18 -152.5q0 -46 6.5 -94.5t18.5 -94.5h-27v-40h209v40h-32q-36 90 -36 189q0 53 11 106q29 -76 57.5 -148t57.5 -147h-32v-40h209zM50 -66v50h-50v72h23q-10 43 -15.5 87.5t-5.5 85.5
q0 72 15.5 144.5t49.5 149.5h-17v73h426v-50h50v-73h-33v-467h33v-72h-476zM259 56l-35 91q2 -23 5 -46t9 -45h21zM399 653q0 -24 -19 -43.5t-46 -20.5q-8 0 -16 1t-16 6l-113 46v-51h-76v86q0 25 17 44.5t46 19.5q13 0 32 -7l113 -46v52h78v-87zM383 724h-46v-58l-135 54
q-7 3 -14 4t-12 1q-21 0 -34 -14.5t-13 -33.5v-70h44v59l135 -56q6 -3 13 -4t13 -1q21 1 35 15.5t14 32.5v71z" />
    <glyph glyph-name="ograve" unicode="&#xf2;" horiz-adv-x="608" 
d="M401 290q0 -30 -9.5 -57.5t-26 -48.5t-39 -33.5t-47.5 -12.5q-26 0 -48 12.5t-38.5 33.5t-26 48.5t-9.5 57.5t9 57.5t25.5 48.5t39 33.5t48.5 12.5q25 0 47.5 -12.5t39 -33.5t26 -48.5t9.5 -57.5zM542 290q0 59 -21 113t-56.5 94.5t-83.5 64.5t-102 24t-102 -24.5
t-84 -65t-56.5 -94.5t-20.5 -112q0 -59 20.5 -112.5t56 -94t83.5 -64.5t103 -24t103 24t83.5 64.5t56 94t20.5 112.5zM608 240q0 -63 -22 -119t-59.5 -99t-88.5 -68t-109 -25q-63 0 -117 29t-92 77q-55 43 -87.5 110t-32.5 145q0 61 22 117.5t60 100t88.5 69t108.5 25.5
q62 0 115.5 -29t92.5 -78q55 -43 88 -110t33 -145zM385 290q0 43 -20 77q-17 9 -36 9q-23 0 -42.5 -11t-33.5 -30t-22 -43.5t-8 -51.5q0 -42 19 -78q18 -8 37 -8q22 0 41 11t33.5 30t23 43.5t8.5 51.5zM266 591q-35 26 -59.5 42.5t-40.5 27.5q-27 17 -37 28.5t-10 35.5
q0 26 18 44.5t44 18.5q23 0 41 -19t44 -53q16 -22 40 -51.5t66 -73.5h-106zM334 607q-25 27 -44.5 52.5t-35.5 46.5q-23 30 -39 48t-34 18q-20 0 -33 -13.5t-13 -33.5q0 -9 1.5 -15t5.5 -11t12 -10.5t20 -13.5q16 -11 39 -26.5t58 -41.5h63z" />
    <glyph glyph-name="oacute" unicode="&#xf3;" horiz-adv-x="608" 
d="M401 290q0 -30 -9.5 -57.5t-26 -48.5t-39 -33.5t-47.5 -12.5q-26 0 -48 12.5t-38.5 33.5t-26 48.5t-9.5 57.5t9 57.5t25.5 48.5t39 33.5t48.5 12.5q25 0 47.5 -12.5t39 -33.5t26 -48.5t9.5 -57.5zM542 290q0 59 -21 113t-56.5 94.5t-83.5 64.5t-102 24t-102 -24.5
t-84 -65t-56.5 -94.5t-20.5 -112q0 -59 20.5 -112.5t56 -94t83.5 -64.5t103 -24t103 24t83.5 64.5t56 94t20.5 112.5zM608 240q0 -63 -22 -119t-59.5 -99t-88.5 -68t-109 -25q-63 0 -117 29t-92 77q-55 43 -87.5 110t-32.5 145q0 61 22 117.5t60 100t88.5 69t108.5 25.5
q62 0 115.5 -29t92.5 -78q55 -43 88 -110t33 -145zM385 290q0 43 -20 77q-17 9 -36 9q-23 0 -42.5 -11t-33.5 -30t-22 -43.5t-8 -51.5q0 -42 19 -78q18 -8 37 -8q22 0 41 11t33.5 30t23 43.5t8.5 51.5zM443 725q0 -24 -14.5 -38.5t-40.5 -31.5q-16 -11 -39.5 -26.5
t-52.5 -37.5h-104l107 132q25 32 42 47t43 17q26 0 42.5 -18t16.5 -44zM427 725q0 20 -12.5 33t-30.5 13q-21 -2 -35 -15t-35 -39l-88 -110h65q29 22 51 36.5t38 25.5q26 17 36.5 27t10.5 29z" />
    <glyph glyph-name="ocircumflex" unicode="&#xf4;" horiz-adv-x="608" 
d="M401 290q0 -30 -9.5 -57.5t-26 -48.5t-39 -33.5t-47.5 -12.5q-26 0 -48 12.5t-38.5 33.5t-26 48.5t-9.5 57.5t9 57.5t25.5 48.5t39 33.5t48.5 12.5q25 0 47.5 -12.5t39 -33.5t26 -48.5t9.5 -57.5zM542 290q0 59 -21 113t-56.5 94.5t-83.5 64.5t-102 24t-102 -24.5
t-84 -65t-56.5 -94.5t-20.5 -112q0 -59 20.5 -112.5t56 -94t83.5 -64.5t103 -24t103 24t83.5 64.5t56 94t20.5 112.5zM608 240q0 -63 -22 -119t-59.5 -99t-88.5 -68t-109 -25q-63 0 -117 29t-92 77q-55 43 -87.5 110t-32.5 145q0 61 22 117.5t60 100t88.5 69t108.5 25.5
q62 0 115.5 -29t92.5 -78q55 -43 88 -110t33 -145zM385 290q0 43 -20 77q-17 9 -36 9q-23 0 -42.5 -11t-33.5 -30t-22 -43.5t-8 -51.5q0 -42 19 -78q18 -8 37 -8q22 0 41 11t33.5 30t23 43.5t8.5 51.5zM426 591h-98l-47 49l-48 -49h-97l-25 25l170 170l168 -169zM426 616
l-145 146l-146 -146l9 -9h81l56 57l55 -57h83z" />
    <glyph glyph-name="otilde" unicode="&#xf5;" horiz-adv-x="608" 
d="M401 290q0 -30 -9.5 -57.5t-26 -48.5t-39 -33.5t-47.5 -12.5q-26 0 -48 12.5t-38.5 33.5t-26 48.5t-9.5 57.5t9 57.5t25.5 48.5t39 33.5t48.5 12.5q25 0 47.5 -12.5t39 -33.5t26 -48.5t9.5 -57.5zM542 290q0 59 -21 113t-56.5 94.5t-83.5 64.5t-102 24t-102 -24.5
t-84 -65t-56.5 -94.5t-20.5 -112q0 -59 20.5 -112.5t56 -94t83.5 -64.5t103 -24t103 24t83.5 64.5t56 94t20.5 112.5zM608 240q0 -63 -22 -119t-59.5 -99t-88.5 -68t-109 -25q-63 0 -117 29t-92 77q-55 43 -87.5 110t-32.5 145q0 61 22 117.5t60 100t88.5 69t108.5 25.5
q62 0 115.5 -29t92.5 -78q55 -43 88 -110t33 -145zM385 290q0 43 -20 77q-17 9 -36 9q-23 0 -42.5 -11t-33.5 -30t-22 -43.5t-8 -51.5q0 -42 19 -78q18 -8 37 -8q22 0 41 11t33.5 30t23 43.5t8.5 51.5zM424 653q0 -24 -19 -43.5t-46 -20.5q-8 0 -16 1t-16 6l-113 46v-51h-76
v86q0 25 17 44.5t46 19.5q13 0 32 -7l113 -46v52h78v-87zM408 724h-46v-58l-135 54q-7 3 -14 4t-12 1q-21 0 -34 -14.5t-13 -33.5v-70h44v59l135 -56q6 -3 13 -4t13 -1q21 1 35 15.5t14 32.5v71z" />
    <glyph glyph-name="odieresis" unicode="&#xf6;" horiz-adv-x="608" 
d="M401 290q0 -30 -9.5 -57.5t-26 -48.5t-39 -33.5t-47.5 -12.5q-26 0 -48 12.5t-38.5 33.5t-26 48.5t-9.5 57.5t9 57.5t25.5 48.5t39 33.5t48.5 12.5q25 0 47.5 -12.5t39 -33.5t26 -48.5t9.5 -57.5zM542 290q0 59 -21 113t-56.5 94.5t-83.5 64.5t-102 24t-102 -24.5
t-84 -65t-56.5 -94.5t-20.5 -112q0 -59 20.5 -112.5t56 -94t83.5 -64.5t103 -24t103 24t83.5 64.5t56 94t20.5 112.5zM608 240q0 -63 -22 -119t-59.5 -99t-88.5 -68t-109 -25q-63 0 -117 29t-92 77q-55 43 -87.5 110t-32.5 145q0 61 22 117.5t60 100t88.5 69t108.5 25.5
q62 0 115.5 -29t92.5 -78q55 -43 88 -110t33 -145zM385 290q0 43 -20 77q-17 9 -36 9q-23 0 -42.5 -11t-33.5 -30t-22 -43.5t-8 -51.5q0 -42 19 -78q18 -8 37 -8q22 0 41 11t33.5 30t23 43.5t8.5 51.5zM413 656q0 -26 -19 -45.5t-45 -19.5q-28 0 -46 19.5t-18 45.5
q0 27 19 46t45 19t45 -19t19 -46zM397 656q0 21 -14 35t-34 14t-34 -14t-14 -35q0 -20 14 -34.5t34 -14.5t34 14.5t14 34.5zM277 656q0 -26 -19 -45.5t-45 -19.5q-28 0 -46 19.5t-18 45.5q0 27 19 46t45 19q25 0 44.5 -19t19.5 -46zM261 656q0 21 -14.5 35t-33.5 14
q-20 0 -34 -14t-14 -35q0 -20 14 -34.5t34 -14.5t34 14.5t14 34.5z" />
    <glyph glyph-name="divide" unicode="&#xf7;" horiz-adv-x="563" 
d="M256 244q-21 0 -40.5 -8.5t-33.5 -22.5t-22.5 -33t-8.5 -41q0 -21 8.5 -40t22.5 -33.5t33.5 -22.5t40.5 -8t40 8t33.5 22.5t22.5 33.5t8 40q0 22 -8 41t-22.5 33t-33.5 22.5t-40 8.5zM256 712q-21 0 -40.5 -8.5t-33.5 -22.5t-22.5 -33t-8.5 -41q0 -21 8.5 -40t22.5 -33.5
t33.5 -22.5t40.5 -8t40 8t33.5 22.5t22.5 33.5t8 40q0 22 -8 41t-22.5 33t-33.5 22.5t-40 8.5zM16 468v-189h481v189h-481zM256 728q34 0 62.5 -17.5t43.5 -46.5q29 -16 46.5 -44t17.5 -63q0 -42 -25 -73h112v-50h50v-221h-212q3 -5 6 -8.5t5 -8.5q29 -16 46.5 -44t17.5 -63
q0 -25 -9.5 -46.5t-26 -38t-38 -26t-46.5 -9.5q-35 0 -63.5 18t-43.5 46q-29 16 -46.5 43.5t-17.5 62.5q0 41 25 74h-110v50h-50v221h210q-7 8 -11 17q-29 16 -46.5 43.5t-17.5 62.5q0 25 9.5 47t26 38.5t38.5 26t47 9.5z" />
    <glyph glyph-name="oslash" unicode="&#xf8;" horiz-adv-x="609" 
d="M157 290q0 30 9.5 57.5t26 48.5t39 33.5t48.5 12.5q19 0 42 -10l-141 -233q-11 20 -17.5 42t-6.5 49zM401 290q0 -30 -9.5 -57.5t-26 -48.5t-38.5 -33.5t-47 -12.5q-11 0 -22.5 2t-22.5 7q36 60 71.5 117t71.5 117q11 -20 17 -43.5t6 -47.5zM543 290q0 61 -23.5 119
t-65.5 100l45 72h-86q-3 -6 -8 -13.5l-9 -13.5q-53 32 -116 32q-55 0 -103 -24.5t-84 -65t-56.5 -94.5t-20.5 -112q0 -129 87 -219l-43 -71h87l15 26q55 -31 118 -31q54 0 102 24t84 64.5t56.5 94t20.5 112.5zM609 240q0 -63 -22 -119t-60 -99t-88.5 -68t-108.5 -25
q-60 0 -112 26l-12 -21h-124l30 50h-80l51 85q-42 47 -62.5 100.5t-20.5 120.5q0 61 22 117.5t59.5 100t88.5 69t110 25.5t110 -27q3 6 7 12t6 10h125l-32 -50h82l-54 -86q38 -44 61.5 -102.5t23.5 -118.5z" />
    <glyph glyph-name="ugrave" unicode="&#xf9;" horiz-adv-x="551" 
d="M485 539v41h-210v-41h37v-337q0 -26 -18.5 -44t-43.5 -18q-27 0 -44 18t-17 44v337h36v41h-209v-41h32v-337q0 -42 16 -78.5t43.5 -64t64 -43.5t78.5 -16q41 0 78 16t64.5 43.5t43.5 64.5t16 78v337h33zM518 473v-321q0 -45 -17.5 -84.5t-47 -69t-69 -47t-84.5 -17.5
q-55 0 -101.5 24.5t-75.5 66.5q-42 29 -66.5 75.5t-24.5 101.5v321h-32v73h241v-50h18v50h242v-50h50v-73h-33zM291 523v-50h-36v-317q17 2 29 15.5t12 30.5v321h-5zM251 591q-35 26 -59.5 42.5t-40.5 27.5q-27 17 -37 28.5t-10 35.5q0 26 18 44.5t44 18.5q23 0 41 -19
t44 -53q16 -22 40 -51.5t66 -73.5h-106zM319 607q-25 27 -44.5 52.5t-35.5 46.5q-23 30 -39 48t-34 18q-20 0 -33 -13.5t-13 -33.5q0 -9 1.5 -15t5.5 -11t12 -10.5t20 -13.5q16 -11 39 -26.5t58 -41.5h63z" />
    <glyph glyph-name="uacute" unicode="&#xfa;" horiz-adv-x="551" 
d="M485 539v41h-210v-41h37v-337q0 -26 -18.5 -44t-43.5 -18q-27 0 -44 18t-17 44v337h36v41h-209v-41h32v-337q0 -42 16 -78.5t43.5 -64t64 -43.5t78.5 -16q41 0 78 16t64.5 43.5t43.5 64.5t16 78v337h33zM518 473v-321q0 -45 -17.5 -84.5t-47 -69t-69 -47t-84.5 -17.5
q-55 0 -101.5 24.5t-75.5 66.5q-42 29 -66.5 75.5t-24.5 101.5v321h-32v73h241v-50h18v50h242v-50h50v-73h-33zM291 523v-50h-36v-317q17 2 29 15.5t12 30.5v321h-5zM403 725q0 -24 -14.5 -38.5t-40.5 -31.5q-16 -11 -39.5 -26.5t-52.5 -37.5h-104l107 132q25 32 42 47
t43 17q26 0 42.5 -18t16.5 -44zM387 725q0 20 -12.5 33t-30.5 13q-21 -2 -35 -15t-35 -39l-88 -110h65q29 22 51 36.5t38 25.5q26 17 36.5 27t10.5 29z" />
    <glyph glyph-name="ucircumflex" unicode="&#xfb;" horiz-adv-x="551" 
d="M485 539v41h-210v-41h37v-337q0 -26 -18.5 -44t-43.5 -18q-27 0 -44 18t-17 44v337h36v41h-209v-41h32v-337q0 -42 16 -78.5t43.5 -64t64 -43.5t78.5 -16q41 0 78 16t64.5 43.5t43.5 64.5t16 78v337h33zM518 473v-321q0 -45 -17.5 -84.5t-47 -69t-69 -47t-84.5 -17.5
q-55 0 -101.5 24.5t-75.5 66.5q-42 29 -66.5 75.5t-24.5 101.5v321h-32v73h241v-50h18v50h242v-50h50v-73h-33zM291 523v-50h-36v-317q17 2 29 15.5t12 30.5v321h-5zM397 591h-98l-47 49l-48 -49h-97l-25 25l170 170l168 -169zM397 616l-145 146l-146 -146l9 -9h81l56 57
l55 -57h83z" />
    <glyph glyph-name="udieresis" unicode="&#xfc;" horiz-adv-x="551" 
d="M485 539v41h-210v-41h37v-337q0 -26 -18.5 -44t-43.5 -18q-27 0 -44 18t-17 44v337h36v41h-209v-41h32v-337q0 -42 16 -78.5t43.5 -64t64 -43.5t78.5 -16q41 0 78 16t64.5 43.5t43.5 64.5t16 78v337h33zM518 473v-321q0 -45 -17.5 -84.5t-47 -69t-69 -47t-84.5 -17.5
q-55 0 -101.5 24.5t-75.5 66.5q-42 29 -66.5 75.5t-24.5 101.5v321h-32v73h241v-50h18v50h242v-50h50v-73h-33zM291 523v-50h-36v-317q17 2 29 15.5t12 30.5v321h-5zM384 656q0 -26 -19 -45.5t-45 -19.5q-28 0 -46 19.5t-18 45.5q0 27 19 46t45 19t45 -19t19 -46zM368 656
q0 21 -14 35t-34 14t-34 -14t-14 -35q0 -20 14 -34.5t34 -14.5t34 14.5t14 34.5zM248 656q0 -26 -19 -45.5t-45 -19.5q-28 0 -46 19.5t-18 45.5q0 27 19 46t45 19q25 0 44.5 -19t19.5 -46zM232 656q0 21 -14.5 35t-33.5 14q-20 0 -34 -14t-14 -35q0 -20 14 -34.5t34 -14.5
t34 14.5t14 34.5z" />
    <glyph glyph-name="yacute" unicode="&#xfd;" horiz-adv-x="565" 
d="M499 539v41h-211v-41h28l-59 -148q-14 39 -28.5 74.5t-28.5 73.5h27v41h-211v-41h33l138 -359v-140h-33v-40h209v40h-35v146l137 353h34zM527 473q-31 -81 -66.5 -170t-66.5 -170v-127h35v-72h-241v50h-50v72h33v121q-30 76 -57.5 148.5t-56.5 147.5h-7v19l-12 31h-38v73
h243v-50h29v50h243v-50h50v-73h-38zM413 725q0 -24 -14.5 -38.5t-40.5 -31.5q-16 -11 -39.5 -26.5t-52.5 -37.5h-104l107 132q25 32 42 47t43 17q26 0 42.5 -18t16.5 -44zM397 725q0 20 -12.5 33t-30.5 13q-21 -2 -35 -15t-35 -39l-88 -110h65q29 22 51 36.5t38 25.5
q26 17 36.5 27t10.5 29z" />
    <glyph glyph-name="thorn" unicode="&#xfe;" horiz-adv-x="459" 
d="M253 292q0 -26 -18.5 -42.5t-44.5 -16.5h-7v123h7q26 0 44.5 -18.5t18.5 -45.5zM393 292q0 42 -16.5 78.5t-44 64.5t-64.5 44t-78 16h-7v44h26v41h-193v-41h26v-499h-26v-40h193v40h-26v52h7q42 0 79 16t64.5 43t43.5 63.5t16 77.5zM459 242q0 -44 -16.5 -82.5t-45 -67.5
t-66.5 -47t-82 -19v-20h26v-72h-225v50h-50v72h26v467h-26v73h225v-50h50v-53q56 -24 92 -74q42 -30 67 -76.5t25 -100.5z" />
    <glyph glyph-name="ydieresis" unicode="&#xff;" horiz-adv-x="565" 
d="M499 539v41h-211v-41h28l-59 -148q-14 39 -28.5 74.5t-28.5 73.5h27v41h-211v-41h33l138 -359v-140h-33v-40h209v40h-35v146l137 353h34zM527 473q-31 -81 -66.5 -170t-66.5 -170v-127h35v-72h-241v50h-50v72h33v121q-30 76 -57.5 148.5t-56.5 147.5h-7v19l-12 31h-38v73
h243v-50h29v50h243v-50h50v-73h-38zM391 656q0 -26 -19 -45.5t-45 -19.5q-28 0 -46 19.5t-18 45.5q0 27 19 46t45 19t45 -19t19 -46zM375 656q0 21 -14 35t-34 14t-34 -14t-14 -35q0 -20 14 -34.5t34 -14.5t34 14.5t14 34.5zM255 656q0 -26 -19 -45.5t-45 -19.5
q-28 0 -46 19.5t-18 45.5q0 27 19 46t45 19q25 0 44.5 -19t19.5 -46zM239 656q0 21 -14.5 35t-33.5 14q-20 0 -34 -14t-14 -35q0 -20 14 -34.5t34 -14.5t34 14.5t14 34.5z" />
    <glyph glyph-name="OE" unicode="&#x152;" horiz-adv-x="965" 
d="M506 364q0 -40 -12.5 -76t-34.5 -63t-51.5 -43t-62.5 -16q-34 0 -63 16.5t-50.5 43.5t-33.5 63t-12 75t12 75t33.5 63t50.5 43.5t63 16.5t63 -16t51 -43.5t34.5 -63.5t12.5 -75zM899 0v214h-43v-44h-186v103h97v-34h42v237h-42v-34h-97v116h159v-45h43v215h-415v-15
q-56 21 -112 21q-69 0 -129 -30t-104.5 -81t-70 -118t-25.5 -141t26 -141.5t70.5 -118.5t104.5 -81t128 -30q58 0 112 20v-13h442zM491 -66v7q-23 -7 -46.5 -10.5t-49.5 -3.5q-75 0 -140 34t-113 91q-32 27 -58.5 61.5t-45 74.5t-28.5 84.5t-10 91.5q0 77 27 147t73.5 123
t109.5 84.5t135 31.5q24 0 48 -3t48 -11v8h447v-50h50v-247h-75v45h-38v-50h50v-212h40v-50h50v-246h-474zM490 364q0 32 -8.5 61t-24.5 52q-30 19 -62 19q-31 0 -57 -15t-45 -40t-30 -58t-11 -69q0 -32 8.5 -61.5t23.5 -53.5q29 -17 61 -17q30 0 56.5 15t46 40t31 58
t11.5 69zM736 186h65v21h-65v-21zM751 492h-15v-34h15v34z" />
    <glyph glyph-name="oe" unicode="&#x153;" horiz-adv-x="785" 
d="M401 290q0 -30 -9.5 -57.5t-26 -48.5t-39 -33.5t-47.5 -12.5q-26 0 -48.5 12.5t-39 33.5t-26 48.5t-9.5 57.5t9.5 57.5t26 48.5t39 33.5t48.5 12.5t48 -12.5t38.5 -33.5t26 -48.5t9.5 -57.5zM719 0v175h-42v-35h-138v74h67v-25h42v193h-42v-27h-67v84h117v-35h41v176
h-334v-9q-20 7 -41 11t-43 4q-55 0 -103 -24.5t-83.5 -65t-56 -94.5t-20.5 -112q0 -59 20.5 -112.5t56 -94t83.5 -64.5t103 -24q23 0 43.5 3t40.5 11v-9h356zM397 -66v3q-35 -8 -68 -8q-63 0 -117 29t-92 77q-55 43 -87.5 110t-32.5 145q0 61 22 117.5t59.5 100t88.5 69
t109 25.5q33 0 68 -9v3h366v-50h50v-208h-49v-147h21v-50h50v-207h-388zM385 290q0 42 -19 77q-18 9 -37 9q-23 0 -42.5 -11t-33.5 -30t-22.5 -43.5t-8.5 -51.5q0 -42 19 -78q19 -8 38 -8q22 0 41.5 11t33.5 30t22.5 43.5t8.5 51.5zM664 373v-25h26v25h-26z" />
    <glyph glyph-name="Scaron" unicode="&#x160;" horiz-adv-x="480" 
d="M414 202q0 71 -53 144q-11 13 -35.5 39.5t-64.5 66.5q-52 52 -52 83q0 17 12 27.5t38 10.5q30 0 51 -12t34 -32v-27h43v237h-43v-14q-20 6 -43 9.5t-48 3.5q-43 0 -82 -15.5t-68.5 -42.5t-47 -64t-17.5 -81q0 -74 54 -144q8 -13 33 -39t66 -68q54 -56 54 -84
q0 -20 -15 -32t-46 -12q-33 0 -64.5 12.5t-61.5 33.5v27h-42v-236h42v21q72 -25 123 -25q49 0 91.5 16.5t74 45t49.5 67.5t18 84zM480 152q0 -48 -19 -90t-53 -73t-79.5 -48.5t-97.5 -17.5q-46 0 -107 19v-15h-74v50h-50v268h74v-35q7 -2 17.5 -8.5t24 -13t31 -11.5t37.5 -5
q45 0 45 28q0 24 -49 73q-42 42 -67.5 69t-34.5 39q-56 76 -56 154q0 47 18.5 87t50.5 69.5t73.5 46t88.5 16.5q20 0 38.5 -1.5t36.5 -6.5v9h75v-50h50v-269h-75v38l-11 12h-39v19q-5 1 -9.5 1.5t-9.5 0.5q-34 0 -34 -22q0 -25 47 -72q38 -38 63 -65.5t38 -42.5
q57 -77 57 -153zM195 739l-129 130l24 25h98l47 -48l48 48h97l25 -25l-130 -130h-80zM267 755l114 114l-9 9h-81l-56 -56l-55 56h-82l-8 -9l113 -114h64z" />
    <glyph glyph-name="scaron" unicode="&#x161;" horiz-adv-x="403" 
d="M337 162q0 57 -44 115q-9 13 -29 34t-50 51q-39 40 -39 62q0 28 37 28q20 0 36.5 -9t26.5 -23v-25h40v194h-40v-9q-32 9 -69 9q-35 0 -66 -12.5t-54.5 -34.5t-37.5 -52.5t-14 -65.5q0 -28 11.5 -57.5t31.5 -56.5q8 -13 28.5 -34t49.5 -51q41 -43 41 -64q0 -31 -44 -31
q-50 0 -95 34v23h-41v-192h41v15q54 -19 92 -19q40 0 74 13.5t59.5 36.5t40 54t14.5 67zM403 112q0 -39 -15.5 -73t-43 -59.5t-65 -40t-80.5 -14.5q-17 0 -36.5 3.5t-39.5 9.5v-9h-73v50h-50v224h73v-31q16 -12 36 -19t43 -7q28 0 28 15q0 14 -36 53q-35 35 -53.5 55
t-26.5 31q-22 29 -34 61t-12 63q0 39 15 72t41 57t60 38t72 14q14 0 27 -1t26 -4v5h72v-50h50v-226h-72v36q-4 4 -8 7.5t-9 6.5h-33v7q-18 -1 -18 -12q0 -15 35 -50q30 -32 50.5 -53.5t29.5 -33.5q47 -62 47 -125zM159 591l-129 130l24 25h98l47 -48l48 48h97l25 -25
l-130 -130h-80zM231 607l114 114l-9 9h-81l-56 -56l-55 56h-82l-8 -9l113 -114h64z" />
    <glyph glyph-name="Ydieresis" unicode="&#x178;" horiz-adv-x="687" 
d="M621 685v43h-259v-43h36l-81 -206l-79 206h37v43h-259v-43h40l178 -460v-182h-43v-43h256v43h-44v190l176 452h42zM640 619q-43 -112 -85.5 -219.5t-85.5 -219.5v-171h44v-75h-288v50h-50v75h43v163l-154 397h-14v37l-5 13h-45v75h291v-50h50v-75h-29l21 -56l41 106h-28
v75h291v-50h50v-75h-47zM450 804q0 -26 -19 -45.5t-45 -19.5q-28 0 -46 19.5t-18 45.5q0 27 19 46t45 19t45 -19t19 -46zM434 804q0 21 -14 35t-34 14t-34 -14t-14 -35q0 -20 14 -34.5t34 -14.5t34 14.5t14 34.5zM314 804q0 -26 -19 -45.5t-45 -19.5q-28 0 -46 19.5
t-18 45.5q0 27 19 46t45 19q25 0 44.5 -19t19.5 -46zM298 804q0 21 -14.5 35t-33.5 14q-20 0 -34 -14t-14 -35q0 -20 14 -34.5t34 -14.5t34 14.5t14 34.5z" />
    <glyph glyph-name="Zcaron" unicode="&#x17d;" horiz-adv-x="660" 
d="M590 176l-41 12l-9 -29q-99 30 -219 30q-34 0 -64 -3l211 381v161h-429v-206h41v37h191l-252 -452l101 -121q52 17 103 26t104 9q81 0 164 -24l-7 -22l41 -12zM586 -107l-74 22l9 21q-35 9 -71 14t-73 5q-52 0 -104.5 -9.5t-107.5 -27.5l-44 53l-6 -3l-115 138l215 387
h-69v-37h-73v50h-50v238h461v-50h50v-181l-172 -309q90 -3 168 -25l9 29l71 -22l-10 -32l60 -18zM264 739l-129 130l24 25h98l47 -48l48 48h97l25 -25l-130 -130h-80zM336 755l114 114l-9 9h-81l-56 -56l-55 56h-82l-8 -9l113 -114h64z" />
    <glyph glyph-name="zcaron" unicode="&#x17e;" horiz-adv-x="547" 
d="M477 145l-39 11l-7 -22q-38 10 -80.5 16t-89.5 6h-23t-23 -1l165 295v130h-345v-169h40v29h140l-196 -353l81 -100q42 15 83 22t83 7q60 0 125 -17l-7 -18l40 -11zM485 -99l-61 24l-4 13q-53 12 -104 12q-39 0 -81.5 -7.5t-89.5 -24.5l-43 53l-7 -3l-95 118l159 288h-18
v-29h-72v50h-50v201h377v-50h50v-150l-126 -227q52 -4 101 -15l6 21l70 -18l-11 -35l61 -15zM209 591l-129 130l24 25h98l47 -48l48 48h97l25 -25l-130 -130h-80zM281 607l114 114l-9 9h-81l-56 -56l-55 56h-82l-8 -9l113 -114h64z" />
    <glyph glyph-name="florin" unicode="&#x192;" horiz-adv-x="697" 
d="M399 418q0 -8 -1 -12q8 2 14 2q19 0 38 -8.5t22 -28.5q8 4 21 6t24 2q29 0 51.5 -14t22.5 -44q0 -14 -9 -26q-3 -4 -7 -4q-9 0 -9 9q0 3 2 5q5 8 5 16q0 18 -13.5 29t-33.5 11q-21 0 -38 -6t-29 -14.5t-18 -18.5t-6 -19q0 -8 6 -17t31 -9q7 0 14.5 2.5t14.5 2.5
q9 0 9 -10q-3 -30 -29 -51q-13 -8 -28 -13.5t-33 -5.5q-20 0 -39.5 7.5t-32.5 23.5q-14 -16 -33.5 -23.5t-39.5 -7.5q-17 0 -32.5 5.5t-27.5 13.5q-25 21 -30 51q0 4 3 7t6 3h1q1 0 1 -0.5t1 -0.5q12 -4 28 -4q25 0 31.5 9t6.5 17t-6.5 18t-19 19t-30 15t-39.5 6
q-19 0 -32.5 -11t-13.5 -29q0 -9 6 -16q2 -2 2 -5q0 -9 -9 -9q-5 0 -8 4q-9 14 -9 26q0 30 22.5 44t51.5 14q11 0 24 -2t23 -6q2 20 21.5 28.5t36.5 8.5q5 0 15 -2v15q0 25 3 40q6 15 11 15q6 0 11 -15q2 -8 4 -23l-17 -20h18q0 -14 -3 -24q16 -11 16 -27q0 -15 -8 -23
t-18 -12q-11 -5 -19 -10t-8 -12q0 -9 6 -14.5t15 -9t19.5 -5t19.5 -1.5t19.5 1.5t19.5 5t15 9t6 14.5q0 6 -7.5 11.5t-18.5 10.5q-11 4 -19 11.5t-8 23.5t16 27q-3 12 -3 27q0 23 5 40q3 15 10 15q6 0 11 -15l4 -24l-16 -19h17zM413 396q-19 0 -34 -10q-5 -4 -9 -9t-4 -10
q0 -6 4 -11t9 -9q15 -10 34 -10t34 10q13 8 13 20q0 11 -13 19q-15 10 -34 10zM283 396q-20 0 -35 -10q-12 -9 -12 -19q0 -11 12 -20q15 -10 35 -10q19 0 34 10q12 7 12 20q0 11 -12 19q-15 10 -34 10zM409 280q-13 -11 -30 -14.5t-31 -3.5t-31.5 3.5t-29.5 14.5
q-27 -21 -62 -21q-5 0 -9.5 0.5t-9.5 0.5q9 -20 28.5 -30t40.5 -10q20 0 37.5 8t27.5 25q2 3 8 3q7 0 7 -3q10 -17 28 -25t37 -8q21 0 41 10t28 30q-5 0 -8.5 -0.5t-8.5 -0.5q-36 0 -63 21zM280 528q-47 -10 -78 -32t-31 -64q0 -6 1.5 -12.5t1.5 -14.5q0 -4 -3 -6.5t-6 -2.5
q-8 0 -8 8q-2 8 -2.5 14.5t-0.5 13.5q0 30 11.5 58t32.5 50q-17 10 -29.5 25.5t-17.5 36.5q0 5 3 7t6 2q6 0 8 -8q7 -29 32.5 -44t53.5 -15q26 0 50 13.5t32 40.5q2 5 9 5q6 0 8 -5q8 -27 32.5 -40.5t50.5 -13.5q27 0 52.5 15t31.5 44q2 8 9 8q8 0 8 -12q-4 -18 -15 -32.5
t-26 -23.5q22 -23 34 -51t12 -60q0 -13 -3 -28q-1 -8 -8 -8q-9 0 -9 12l2 12t1 12q0 45 -27 66t-68 28q-25 5 -48 15t-37 33q-11 -17 -28 -29t-37 -17zM617 137q-21 -23 -52 -37t-63 -14q-36 -19 -76 -19h-10q-16 -7 -33 -11t-35 -4t-35 4t-33 11h-10q-39 0 -77 19
q-32 0 -62.5 14t-52.5 37q-31 22 -54.5 54t-23.5 74q0 30 14 56t35 47q-23 41 -23 87q0 50 25.5 93.5t70.5 75.5q44 32 102 50.5t124 18.5t124 -18t102 -50q45 -33 70.5 -76.5t25.5 -93.5q0 -23 -6 -45t-17 -42q22 -21 36 -47t14 -56q0 -42 -24 -74t-56 -54zM532 108
q21 4 39.5 14.5t32.5 25.5t22 34t8 42q0 38 -23 67q-2 2 -2 6q0 3 2.5 6t5.5 3q5 0 8 -5q14 -16 20.5 -36t6.5 -41t-6 -39q14 17 23.5 37t9.5 43q0 28 -14.5 52t-34.5 43q-3 3 -3 6q0 1 2 5q11 20 17 41t6 43q0 46 -23.5 86t-65.5 70t-97 47.5t-118 17.5t-118.5 -17.5
t-97.5 -47.5t-65 -70t-23 -86q0 -44 23 -84v-4q0 -6 -1 -7q-20 -19 -34.5 -43t-14.5 -52q0 -23 9.5 -43t23.5 -37q-2 9 -4 18.5t-2 20.5q0 44 27 77q3 5 7 5t6.5 -3t2.5 -6q0 -2 -2 -6q-23 -29 -23 -67q0 -45 30.5 -76t72.5 -40q-20 18 -32 42.5t-12 53.5q0 23 7 43.5
t22 37.5q3 5 7 5t6.5 -3t2.5 -6q0 -1 -2 -7q-12 -14 -19 -32t-7 -38q0 -24 9 -44t24.5 -35.5t35.5 -25.5t42 -13q-23 19 -37 45t-14 58q0 10 9 10q3 0 6 -2.5t3 -7.5q0 -26 11.5 -48t30 -38t42 -25t48.5 -9t49 9t42.5 25t29.5 38t11 48q0 10 9 10q3 0 6 -2.5t3 -7.5
q0 -32 -14.5 -58t-37.5 -45q22 3 42.5 13t36 25.5t24.5 35.5t9 44q0 41 -26 70q-2 6 -2 7q0 3 2.5 6t6.5 3t6 -5q31 -34 31 -81q0 -29 -12 -53.5t-32 -42.5z" />
    <glyph glyph-name="circumflex" unicode="&#x2c6;" horiz-adv-x="338" 
d="M315 591h-98l-47 49l-48 -49h-97l-25 25l170 170l168 -169zM315 616l-145 146l-146 -146l9 -9h81l56 57l55 -57h83z" />
    <glyph glyph-name="caron" unicode="&#x2c7;" horiz-adv-x="339" 
d="M129 591l-129 130l24 25h98l47 -48l48 48h97l25 -25l-130 -130h-80zM201 607l114 114l-9 9h-81l-56 -56l-55 56h-82l-8 -9l113 -114h64z" />
    <glyph glyph-name="ring" unicode="&#x2da;" horiz-adv-x="218" 
d="M218 700q0 -22 -8.5 -42t-23.5 -35t-34.5 -23.5t-41.5 -8.5t-42 8.5t-35 23.5t-24 34.5t-9 42.5q0 22 8.5 42t23.5 35t34 24t40 9q23 0 43.5 -8.5t35.5 -23.5t24 -35t9 -43zM202 700q0 40 -28 67t-68 27q-18 0 -34.5 -7.5t-28.5 -20.5t-19.5 -30t-7.5 -36
q0 -20 7.5 -36.5t20.5 -29.5t30 -20t36 -7t36 7.5t29.5 20t19.5 29.5t7 36zM136 700q0 11 -7.5 18.5t-18.5 7.5t-19 -7.5t-8 -18.5t8 -18.5t19 -7.5t18.5 7.5t7.5 18.5zM152 700q0 -17 -12.5 -29.5t-29.5 -12.5t-30 12.5t-13 29.5t13 29.5t30 12.5t29.5 -12.5t12.5 -29.5z
" />
    <glyph glyph-name="tilde" unicode="&#x2dc;" horiz-adv-x="286" 
d="M286 653q0 -24 -19 -43.5t-46 -20.5q-8 0 -16 1t-16 6l-113 46v-51h-76v86q0 25 17 44.5t46 19.5q13 0 32 -7l113 -46v52h78v-87zM270 724h-46v-58l-135 54q-7 3 -14 4t-12 1q-21 0 -34 -14.5t-13 -33.5v-70h44v59l135 -56q6 -3 13 -4t13 -1q21 1 35 15.5t14 32.5v71z
" />
    <glyph glyph-name="mu" unicode="&#x3bc;" horiz-adv-x="695" 
d="M515 581h-129v-424q-26 -25 -61.5 -44t-70.5 -19q-47 0 -61 31t-14 87v369h-130v-453q0 -26 -1.5 -48.5t-4.5 -44t-8 -43t-12 -46.5q-7 -24 -7 -44q0 -15 4 -30t12.5 -28t21 -21t30.5 -8t31 8t21.5 20t12.5 27t4 29q0 17 -12 65l-10 43q18 -9 37 -15t39 -6q52 0 100 28.5
t85 64.5q11 -39 37 -66t71 -27q34 0 57 15t37 39t21.5 54.5t11.5 61.5h-58q-2 -9 -4 -21t-5.5 -23.5t-8.5 -19t-11 -7.5q-9 0 -14 8t-7.5 20t-3 26.5t-0.5 26.5v415zM581 172h64q-2 -13 -4 -25.5t-4 -24.5h58q-5 -36 -13.5 -72.5t-25 -65t-42 -46.5t-64.5 -18
q-38 0 -64 17.5t-42 45.5q-9 4 -17 11q-37 -31 -80.5 -52.5t-89.5 -21.5q-26 0 -54 10q0 -4 2 -8q1 -2 1 -4q13 -51 13 -69q0 -17 -5 -34.5t-15.5 -32t-26.5 -24t-38 -9.5q-29 0 -47 15.5t-27 38.5q-16 5 -27 15.5t-18.5 24t-11 29t-3.5 30.5q0 10 1.5 22.5t6.5 26.5
q14 47 19.5 86.5t5.5 90.5v469h162v-50h50v-385q0 -15 0.5 -28t2.5 -24h6q31 0 61 15.5t55 38.5v433h161v-50h50v-375z" />
    <glyph glyph-name="endash" unicode="&#x2013;" horiz-adv-x="514" 
d="M448 294v138h-432v-138h432zM50 228v50h-50v170h464v-50h50v-170h-464z" />
    <glyph glyph-name="emdash" unicode="&#x2014;" horiz-adv-x="964" 
d="M898 294v138h-882v-138h882zM50 228v50h-50v170h914v-50h50v-170h-914z" />
    <glyph glyph-name="quoteleft" unicode="&#x2018;" horiz-adv-x="260" 
d="M22 560h124l44 212h-99zM80 788h130l-11 -50h61l-51 -244h-159l16 50h-66z" />
    <glyph glyph-name="quoteright" unicode="&#x2019;" horiz-adv-x="260" 
d="M188 772h-124l-44 -212h99zM180 494h-130l10 50h-60l51 244h159l-17 -50h67z" />
    <glyph glyph-name="quotesinglbase" unicode="&#x201a;" horiz-adv-x="260" 
d="M188 106h-124l-44 -212h99zM180 -172h-130l10 50h-60l51 244h159l-17 -50h67z" />
    <glyph glyph-name="quotedblleft" unicode="&#x201c;" horiz-adv-x="395" 
d="M157 560h124l44 212h-99zM22 560h124l44 212h-99zM80 788h130l-9 -42l14 42h130l-11 -50h61l-51 -244h-294l16 50h-66z" />
    <glyph glyph-name="quotedblright" unicode="&#x201d;" horiz-adv-x="395" 
d="M188 772h-124l-44 -212h99zM323 772h-124l-44 -212h99zM315 494h-130l8 41l-13 -41h-130l10 50h-60l51 244h294l-17 -50h67z" />
    <glyph glyph-name="quotedblbase" unicode="&#x201e;" horiz-adv-x="395" 
d="M188 115h-124l-44 -212h99zM323 115h-124l-44 -212h99zM315 -163h-130l8 42l-13 -42h-130l10 50h-60l51 244h294l-17 -50h67z" />
    <glyph glyph-name="dagger" unicode="&#x2020;" horiz-adv-x="545" 
d="M260 -107q5 118 39 213.5t86 155.5q-26 11 -49 24t-40.5 30t-28 40t-10.5 53q27 -2 39.5 -14.5t23 -27t26.5 -26.5t50 -12q36 0 59.5 26.5t23.5 63.5q0 38 -23.5 63.5t-59.5 25.5q-34 0 -50 -11.5t-26.5 -26t-23 -27t-39.5 -14.5q1 24 6 42t13 31t19 23.5t23 19.5
q19 14 29.5 37.5t10.5 46.5q0 21 -9 39.5t-24 32t-35 21.5t-43 8t-43 -8t-35 -21.5t-23.5 -32t-8.5 -39.5q0 -23 10.5 -46t28.5 -37q12 -10 23 -20t19 -23.5t13 -31.5t6 -42q-27 2 -39.5 14.5t-23 27t-26.5 26t-50 11.5q-36 0 -59 -25.5t-23 -63.5q0 -37 23 -63.5t59 -26.5
q34 0 50 12t26.5 26.5t23 27t39.5 14.5q0 -30 -10.5 -53t-28 -40t-40.5 -30t-48 -24q52 -60 85.5 -155.5t38.5 -213.5h26zM269 -173q-1 13 -1.5 25.5t-2.5 24.5h-46q-5 122 -42 223.5t-94 167.5l17 7q-26 15 -40 45q-28 12 -44 38.5t-16 60.5q0 45 27.5 75t70.5 30
q21 0 36 -4.5t25.5 -11.5t17.5 -15.5t14 -17.5q6 -8 13 -13t15 -12q-6 29 -20 50q-9 11 -17 18.5t-16 14.5q-20 16 -32.5 43t-12.5 53q0 24 10 45.5t27 37.5t40 25t49 9q38 0 68.5 -18.5t45.5 -47.5q29 -16 46 -42.5t17 -58.5q0 -30 -14 -56q26 -4 45 -19t30 -38
q27 -12 43.5 -38t16.5 -59q0 -22 -7.5 -41t-20.5 -33.5t-31.5 -23t-39.5 -8.5q-22 0 -35 4q-3 -5 -6.5 -8.5t-7.5 -8.5q31 -19 65 -32q-57 -66 -94.5 -167.5t-42.5 -223.5h-56zM338 307q19 -13 43 -26q-9 7 -15.5 15.5t-12.5 16.5q-12 11 -17.5 15t-10.5 8q5 -17 13 -29z
" />
    <glyph glyph-name="daggerdbl" unicode="&#x2021;" horiz-adv-x="464" 
d="M320 311q-21 9 -40 25t-33.5 36t-23 43.5t-8.5 48.5q22 -1 32.5 -11.5t19 -22.5t21.5 -21.5t42 -9.5q30 0 49 21.5t19 51.5q0 32 -19 53.5t-49 21.5q-29 0 -42 -10t-21.5 -22t-19 -22.5t-32.5 -11.5q2 41 15.5 60.5t35.5 36.5q14 11 23 30t9 39q0 34 -26.5 58.5
t-64.5 24.5q-19 0 -35.5 -6.5t-29 -18t-19.5 -26.5t-7 -32q0 -20 8.5 -39t22.5 -30q22 -17 36 -36.5t16 -60.5q-15 1 -24 6.5t-15.5 12.5t-12.5 15.5t-13.5 15.5t-19.5 11.5t-31 4.5q-29 0 -48 -21.5t-19 -53.5q0 -30 19 -51.5t48 -21.5q28 0 41.5 9.5t22.5 21.5t19 22.5
t33 11.5q0 -25 -8.5 -48.5t-23.5 -43.5t-34 -36t-40 -25q21 -9 40 -24.5t34 -35.5t23.5 -44t8.5 -49q-15 1 -24 6.5t-15.5 12.5t-12.5 15.5t-13.5 15.5t-19.5 11.5t-31 4.5q-29 0 -48 -21.5t-19 -52.5t19 -52.5t48 -21.5q28 0 41.5 9.5t22.5 21.5t19 22.5t33 11.5
q-2 -40 -16 -59.5t-36 -36.5q-14 -11 -22.5 -30t-8.5 -39q0 -17 7 -32t19.5 -26.5t29 -18t35.5 -6.5q38 0 64.5 24.5t26.5 58.5q0 20 -9 39t-23 30q-22 17 -35.5 36.5t-15.5 59.5q22 -1 32.5 -11.5t19 -22.5t21.5 -21.5t42 -9.5q30 0 49 21.5t19 52.5t-19 52.5t-49 21.5
q-29 0 -42 -10t-21.5 -22t-19 -22.5t-32.5 -11.5q0 25 8.5 49t23 44t33.5 35.5t40 24.5zM403 265q-3 -1 -9.5 -5t-14 -9t-14.5 -9.5t-9 -5.5q38 -13 52 -51q26 -9 41 -32t15 -53q0 -38 -23.5 -64t-60.5 -26q-35 0 -52 14t-27 28q-3 5 -7.5 10.5t-9.5 7.5q5 -23 16 -37
t25 -25q17 -13 28 -36t11 -46q0 -20 -8.5 -38t-23 -31.5t-34 -21.5t-41.5 -8q-34 0 -60.5 17t-38.5 44q-26 12 -42 35.5t-16 52.5q0 20 7 38q-37 12 -51 50q-26 9 -41 32.5t-15 53.5q0 38 23.5 64t59.5 26q18 0 31 -4t22 -10t15 -13.5t12 -14.5l8 -10t9 -8q-8 33 -27 49
t-51 32q5 2 9 4t9 4q-15 13 -32.5 23.5t-35.5 18.5q13 5 25.5 12.5t24.5 15.5q-34 14 -46 48q-26 9 -41 32.5t-15 52.5q0 38 23.5 64.5t59.5 26.5q18 0 31 -4t22 -10t15 -13.5t12 -14.5l8 -10t9 -8q-5 24 -16 36.5t-26 25.5q-17 13 -27.5 36t-10.5 46q0 20 8.5 38t22.5 31.5
t33.5 21.5t42.5 8q33 0 59.5 -17.5t38.5 -43.5q26 -13 42.5 -36t16.5 -52q0 -19 -8 -38q18 -6 31 -19.5t20 -31.5q26 -9 41.5 -32t15.5 -54q0 -37 -23.5 -63t-60.5 -26q-35 0 -52 14t-27 28q-4 5 -8.5 10.5t-9.5 7.5q3 -21 22.5 -40t40.5 -27q0 -21 12 -34t45 -27z" />
    <glyph glyph-name="bullet" unicode="&#x2022;" horiz-adv-x="379" 
d="M313 367q0 30 -12 57.5t-32 47.5t-47.5 32t-57.5 12t-56.5 -12t-47 -32t-32.5 -47.5t-12 -57.5t12 -57t32 -47t47 -32t57 -12t57.5 12t47.5 32.5t32 47t12 56.5zM379 317q0 -33 -13 -63t-35.5 -52.5t-52.5 -35.5t-64 -13q-43 0 -79 21t-59 55q-34 23 -55 59t-21 79
q0 34 13 64t35.5 52.5t52.5 35.5t63 13q43 0 79.5 -21t58.5 -56q35 -22 56 -58.5t21 -79.5z" />
    <glyph glyph-name="ellipsis" unicode="&#x2026;" horiz-adv-x="748" 
d="M214 96q0 42 -28.5 71t-70.5 29q-20 0 -37.5 -7.5t-31.5 -21t-22 -32t-8 -39.5q0 -20 8 -38t21.5 -31.5t31.5 -21.5t38 -8q21 0 39 8t31.5 22t21 31.5t7.5 37.5zM448 96q0 42 -28.5 71t-70.5 29q-20 0 -37.5 -7.5t-31.5 -21t-22 -32t-8 -39.5q0 -20 8 -38t21.5 -31.5
t31.5 -21.5t38 -8q21 0 39 8t31.5 22t21 31.5t7.5 37.5zM682 96q0 42 -28.5 71t-70.5 29q-20 0 -37.5 -7.5t-31.5 -21t-22 -32t-8 -39.5q0 -20 8 -38t21.5 -31.5t31.5 -21.5t38 -8q21 0 39 8t31.5 22t21 31.5t7.5 37.5zM748 46q0 -23 -9 -43.5t-24.5 -36.5t-36.5 -25.5
t-45 -9.5q-34 0 -61 17.5t-41 45.5q-15 8 -24 16q-11 -33 -40.5 -56t-67.5 -23q-34 0 -61 17.5t-41 45.5q-15 8 -24 16q-11 -33 -40.5 -56t-67.5 -23q-34 0 -61 17.5t-41 45.5q-28 14 -45.5 41t-17.5 61q0 25 9.5 46t25.5 36.5t36.5 24.5t43.5 9q34 0 61 -17.5t41 -45.5
q13 -7 23 -15q12 35 42.5 56.5t66.5 21.5q34 0 61 -17.5t41 -45.5q13 -7 23 -15q12 35 42.5 56.5t66.5 21.5q34 0 61 -17.5t41 -45.5q28 -14 45.5 -41.5t17.5 -61.5z" />
    <glyph glyph-name="perthousand" unicode="&#x2030;" horiz-adv-x="1077" 
d="M184 547q12 0 19.5 -6.5t11 -16t4.5 -20.5t1 -20t-1 -19.5t-4.5 -20.5t-11 -16.5t-19.5 -6.5t-19 6.5t-10.5 16.5t-5 20.5t-1.5 19.5t1.5 20t5 20.5t10.5 16t19 6.5zM843 598q12 0 19 -6.5t11 -16t5 -20.5t1 -20t-1 -20t-5 -20.5t-11 -16t-19 -6.5t-19 6.5t-11 16
t-5 20.5t-1 20t1 20t5 20.5t11 16t19 6.5zM662 266q12 0 19 -6.5t11 -16t5 -21t1 -20.5t-1 -20t-5 -20.5t-11 -16t-19 -6.5t-19 6.5t-11 16t-5 20.5t-1 20t1 20.5t5 21t11 16t19 6.5zM843 731q-42 0 -73.5 -16.5t-53 -43.5t-32 -62.5t-10.5 -73.5q0 -44 13.5 -83t41.5 -67
q-15 6 -32 10t-35 4q-42 0 -73.5 -16.5t-52.5 -44t-32 -63t-11 -73.5t11 -73t32 -62t52.5 -43.5t73.5 -16.5t73.5 16.5t52.5 43.5t31.5 62t10.5 73q0 44 -13.5 83.5t-41.5 67.5q30 -14 68 -14q42 0 73.5 16.5t52.5 43.5t31.5 62.5t10.5 73.5t-10.5 73.5t-31.5 62.5
t-52.5 43.5t-73.5 16.5zM160 0h150l399 731h-155q-18 -24 -35 -43.5t-37.5 -34t-45 -22t-56.5 -7.5q-58 0 -104 28q-42 27 -92 27q-41 0 -72.5 -16t-52.5 -43t-32 -62.5t-11 -73.5t11 -73.5t32 -62.5t52.5 -43.5t72.5 -16.5q42 0 73.5 16.5t53 43.5t32 62.5t10.5 73.5v8
q7 -1 13.5 -1.5t13.5 -0.5q14 0 26.5 1.5t24.5 3.5zM265 224q-8 -1 -15.5 -1.5t-15.5 -0.5q-50 0 -86.5 21t-59.5 56q-44 29 -66 78.5t-22 106.5q0 41 12 79t35 67.5t57.5 47t79.5 17.5q54 0 100 -29q21 -14 45.5 -20t50.5 -6q30 0 53 7.5t42 22t36 34t35 43.5h190l-28 -50
h9q23 23 54 36.5t72 13.5q50 0 86.5 -21t59.5 -56q44 -28 66 -78t22 -107q0 -41 -11.5 -79t-34.5 -67.5t-57.5 -47.5t-80.5 -18q-7 0 -14 0.5t-13 1.5q15 -26 22.5 -58t7.5 -65q0 -41 -11.5 -79t-34.5 -67t-57.5 -47t-80.5 -18q-51 0 -87.5 21t-59.5 56q-32 20 -52.5 53
t-29.5 71l-113 -208h-187l27 50h-77zM688 413q-16 26 -24 61l-33 -62q15 3 31 3q7 0 13.5 -0.5t12.5 -1.5z" />
    <glyph glyph-name="guilsinglleft" unicode="&#x2039;" horiz-adv-x="294" 
d="M223 202l-98 162l98 162l-58 50l-146 -212l146 -213zM212 77l-40 58l-10 -8l-162 237l162 235l82 -70l-3 -5l53 -45l-101 -165q23 -40 50.5 -83t50.5 -82z" />
    <glyph glyph-name="guilsinglright" unicode="&#x203a;" horiz-adv-x="294" 
d="M50 149l2 4l-52 46l100 165q-23 39 -50 83t-50 82l82 70l40 -59l10 9l162 -235l-162 -237zM79 151l146 213l-146 212l-58 -50l98 -162l-98 -162z" />
    <glyph glyph-name="Euro" unicode="&#x20ac;" horiz-adv-x="789" 
d="M597 227q-55 -58 -137 -58q-32 0 -62 10t-54.5 28.5t-42.5 44t-27 56.5h216l27 42h-250v27h268l26 42h-287q9 31 27 56.5t42.5 43.5t54.5 28t62 10q53 0 100 -27l-14 -22l36 -22l122 194l-35 23l-20 -30q-87 54 -189 54q-66 0 -127 -23.5t-109 -65t-80.5 -97.5
t-42.5 -122h-39l-27 -42h61v-27h-40l-27 -42h72q10 -66 42.5 -122.5t80.5 -98t108.5 -64.5t127.5 -23q150 0 257 107zM789 58q-64 -65 -132 -94.5t-147 -29.5q-89 0 -165 36.5t-129 99.5q-41 33 -70.5 76.5t-46.5 95.5h-49l32 50h-82l45 69h-39l48 74h33q13 65 48 121
t85 97.5t111.5 65.5t128.5 24q100 0 184 -48l20 30l62 -40l-8 -13l58 -37l-139 -221l-62 38l8 14l-32 20q-23 5 -41 5q-38 0 -72 -15t-59 -41h210l-31 -50h81l-91 -143h-202q5 -13 14 -27q22 -14 47.5 -22t52.5 -8q74 0 136 65z" />
    <glyph glyph-name="trademark" unicode="&#x2122;" horiz-adv-x="606" 
d="M540 413v18h-18q8 27 11.5 54t3.5 53q0 46 -10 89t-32 85h21v18h-91l-41 -138l-40 138h-91v-18h21q-22 -41 -32 -84t-10 -90q0 -27 3.5 -54t11.5 -53h-18v-18h116v18h-20q-20 54 -20 107q0 12 1 24t3 25l40 -137h71l40 137q3 -24 3 -49q0 -56 -19 -107h-20v-18h116z
M214 637v94h-198v-94h19v20h43v-225h-19v-19h112v19h-19v225h44v-20h18zM458 347v37h-47v-37h-148v50h-26v-50h-144v50h-50v51h19v123h-12v50h-50v126h230v-50h7v49h119l14 -50h28q9 24 15 50h119v-50h50v-50h-12q33 -75 33 -158q0 -21 -2.5 -44.5t-7.5 -46.5h13v-50h-148z
" />
    </font>
</defs>
</svg>
