<?xml version="1.0" standalone="no"?>
<!DOCTYPE svg PUBLIC "-//W3C//DTD SVG 1.1//EN" "http://www.w3.org/Graphics/SVG/1.1/DTD/svg11.dtd" >
<svg xmlns="http://www.w3.org/2000/svg" xmlns:xlink="http://www.w3.org/1999/xlink" version="1.1">
<metadata>
Created by FontForge 20170731 at Sun Jul 23 21:28:30 2000
 By Aleksey,,,
Copyright (c) ShyFonts Type Foundry, 2000. All rights reserved.
</metadata>
<defs>
<font id="SFOrsonCasualHeavy-Oblique" horiz-adv-x="1399" >
  <font-face 
    font-family="SF Orson Casual Heavy"
    font-weight="400"
    font-style="oblique"
    font-stretch="normal"
    units-per-em="2048"
    panose-1="0 0 4 0 0 0 0 0 0 0"
    ascent="1638"
    descent="-410"
    x-height="1212"
    cap-height="1382"
    bbox="-78 -357 2350.76 1911"
    underline-thickness="20"
    underline-position="-163"
    slope="-12"
    unicode-range="U+0020-2122"
  />
<missing-glyph horiz-adv-x="1024" 
 />
    <glyph glyph-name=".notdef" horiz-adv-x="1024" 
 />
    <glyph glyph-name=".null" horiz-adv-x="0" 
 />
    <glyph glyph-name="nonmarkingreturn" horiz-adv-x="682" 
 />
    <glyph glyph-name="space" unicode=" " horiz-adv-x="802" 
 />
    <glyph glyph-name="exclam" unicode="!" horiz-adv-x="444" 
d="M384 401q-7 -37 -43 -66q-34 -28 -71 -28q-19 0 -34.5 7.5t-25.5 20.5t-14 30t0 36l189 888q7 36 42 65q34 28 72 28q18 0 33.5 -7.5t26 -20.5t14.5 -30t0 -35zM315 77q-7 -37 -43 -65q-35 -27 -70 -27q-38 0 -60.5 26.5t-14.5 65.5q7 36 42 65t72 29q36 0 59 -29t15 -65
z" />
    <glyph glyph-name="quotedbl" unicode="&#x22;" horiz-adv-x="717" 
d="M806 1101q-7 -37 -43 -66q-34 -28 -71 -28q-19 0 -34.5 7.5t-25.5 20.5t-14 30t0 36l40 188q7 36 42 65q34 28 72 28q18 0 33.5 -7.5t26 -20.5t14.5 -30t0 -35zM533 1101q-7 -37 -43 -66q-34 -28 -71 -28q-19 0 -34.5 7.5t-25.5 20.5t-14 30t0 36l40 188q7 36 42 65
q34 28 72 28q18 0 33.5 -7.5t26 -20.5t14.5 -30t0 -35z" />
    <glyph glyph-name="numbersign" unicode="#" horiz-adv-x="1314" 
d="M1314 683q-4 -19 -15.5 -36t-27 -30t-34 -20.5t-37.5 -7.5h-194q-13 -42 -24.5 -82t-24.5 -82q-44 -101 -122 -101q-20 0 -35 8t-24.5 21t-12 30t3.5 35l51 171h-154q-13 -42 -24.5 -82t-23.5 -82q-44 -101 -122 -101q-19 0 -34.5 8t-25 21t-12.5 30t3 35l52 171h-147
q-19 0 -34.5 7.5t-25.5 20.5t-14 30t0 36q7 36 42 65t72 29h164l46 153h-177q-19 0 -34.5 7.5t-25.5 20.5t-14 30t0 36t15 36t26.5 30t34 20.5t38.5 7.5h193q12 42 23.5 82t23.5 82q43 100 125 100q36 0 56 -26t12 -62q-1 -4 -14 -47.5t-39 -128.5h154q13 42 24.5 82
t23.5 82q43 100 124 100q36 0 56 -26t12 -62q-2 -9 -52 -176h148q19 0 34.5 -7.5t25.5 -20.5t14 -30t0 -36t-15.5 -36t-27 -30t-34 -20.5t-37.5 -7.5h-164l-46 -153h177q37 0 60 -29q22 -27 14 -65zM922 930h-154l-47 -153h154z" />
    <glyph glyph-name="dollar" unicode="$" horiz-adv-x="1048" 
d="M984 381q-29 -136 -138 -245q-107 -109 -246 -139l-19 -89q-8 -38 -43 -66q-34 -28 -71 -28q-69 0 -73 63q-3 34 18 120q-176 46 -211 186q-7 25 -3 44q7 37 41 66q34 28 71 28q45 0 74 -50q38 -62 70 -78l87 408q-124 31 -187 140q-62 111 -34 244q28 134 137 244
q108 110 247 141l19 89q4 19 15.5 36t27 30t34 20.5t37.5 7.5q37 0 59 -28q22 -29 15 -66l-19 -89q176 -47 211 -187q7 -26 3 -45q-8 -38 -42 -66q-32 -28 -71 -28q-43 0 -72 50q-37 61 -71 78l-86 -407q124 -33 185 -142q63 -110 35 -242zM583 799l79 373
q-125 -58 -154 -187q-27 -128 75 -186zM796 381q27 126 -74 186l-80 -374q127 60 154 188z" />
    <glyph glyph-name="percent" unicode="%" horiz-adv-x="1440" 
d="M1371 358q-33 -153 -167 -263q-136 -110 -287 -110q-152 0 -239 105q-86 106 -60 258l-336 -319q-37 -32 -80 -32q-39 0 -60 26t-12 66q8 34 32 58l514 488q-12 -2 -26 -3t-30 -1q-153 0 -241 111q-87 111 -54 265t167 264q135 111 288 111q151 0 238 -107
q88 -107 61 -256l335 317q34 34 80 34q39 0 60 -27t12 -66q-8 -37 -32 -58l-515 -489q12 2 26 3t31 1q153 0 240 -111q88 -110 55 -265zM888 1007q16 75 -28 132q-44 56 -120 56t-144 -56q-66 -55 -83 -132q-17 -79 26 -133q43 -55 121 -55q77 0 144 55t84 133zM1184 358
q16 75 -28 132q-44 56 -120 56q-77 0 -145 -56q-66 -55 -83 -132t27 -132q43 -55 121 -55q77 0 144 55t84 132z" />
    <glyph glyph-name="ampersand" unicode="&#x26;" horiz-adv-x="1060" 
d="M931 77q-7 -37 -43 -65q-35 -27 -70 -27q-51 0 -70 42q-102 -42 -196 -42q-180 0 -286 126q-105 126 -67 305q52 246 284 371q-90 99 -57 251q29 140 155 242q124 102 268 102q58 0 123 -27q34 27 73 27q18 0 33.5 -7.5t26 -20.5t14.5 -30t0 -35l-56 -262
q-4 -18 -15.5 -35t-27 -30t-34 -20.5t-36.5 -7.5q-39 0 -61 28q-22 27 -14 65l28 128q-40 40 -94 40q-66 0 -124 -49t-72 -113q-14 -66 23 -114q39 -49 104 -49h85q19 0 34.5 -7.5t25.5 -20.5t14 -30t0 -35q-4 -19 -15.5 -36t-27 -30t-34 -20.5t-37.5 -7.5h-85
q-105 0 -196 -76q-92 -77 -114 -180q-22 -102 37 -180q60 -76 164 -76q80 0 187 71l27 127q7 36 42 65t72 29q36 0 59 -29t15 -65z" />
    <glyph glyph-name="quotesingle" unicode="'" horiz-adv-x="444" 
d="M533 1101q-7 -37 -43 -66q-34 -28 -71 -28q-19 0 -34.5 7.5t-25.5 20.5t-14 30t0 36l40 188q7 36 42 65q34 28 72 28q18 0 33.5 -7.5t26 -20.5t14.5 -30t0 -35z" />
    <glyph glyph-name="parenleft" unicode="(" horiz-adv-x="666" 
d="M501 -92q-8 -38 -43 -66q-34 -28 -71 -28q-46 0 -71 51q-166 319 -60 818q96 454 343 749q49 58 85.5 89.5t73.5 31.5q19 0 34.5 -7.5t25.5 -20.5t13.5 -30t-0.5 -36q-6 -31 -63 -104q-22 -26 -42 -51t-40 -51q-170 -230 -242 -570q-73 -351 -3 -574q11 -26 20.5 -50.5
t20.5 -49.5q26 -72 19 -101z" />
    <glyph glyph-name="parenright" unicode=")" horiz-adv-x="666" 
d="M666 683q-106 -498 -408 -818q-50 -51 -93 -51q-19 0 -34.5 7.5t-25.5 20.5t-14 30t0 36q8 31 63 101q21 25 41.5 49.5t40.5 50.5q167 223 242 574q72 340 0 570q-9 26 -18.5 51t-19.5 51q-25 73 -19 104q7 37 41 66q34 28 71 28q43 0 73 -51q169 -305 60 -819z" />
    <glyph glyph-name="asterisk" unicode="*" horiz-adv-x="901" 
d="M946 893q-5 -20 -16 -37.5t-27 -30.5t-35 -20.5t-39 -7.5q-31 0 -68 34q-14 14 -28.5 28t-28.5 28q-4 -45 -8 -78t-9 -55q-8 -35 -42 -62q-35 -26 -70 -26t-59 26q-23 28 -16 62q5 22 15 55t26 78q-20 -14 -40.5 -28t-40.5 -28q-53 -34 -84 -34q-40 0 -62 28t-13 68
q14 61 65 80l137 51l-116 51q-43 19 -30 80q4 20 15 37.5t27 30.5t35 20.5t39 7.5q31 0 69 -34q14 -14 28.5 -28t28.5 -28q4 45 7.5 78t8.5 55q8 36 42 61q34 27 70 27q18 0 33.5 -7t26 -18.5t15 -27.5t0.5 -34q-9 -45 -40 -134q20 14 40.5 28t40.5 28q52 34 83 34
q41 0 62 -29t13 -68q-12 -59 -65 -79l-136 -51l115 -51q45 -20 31 -80z" />
    <glyph glyph-name="plus" unicode="+" horiz-adv-x="973" 
d="M973 683q-7 -37 -43 -66q-34 -28 -71 -28h-171l-36 -171q-8 -38 -42 -66t-72 -28q-19 0 -34.5 7.5t-25.5 20.5t-14 30t0 36l36 171h-170q-19 0 -34.5 7.5t-25.5 20.5t-14 30t0 36q7 36 42 65t72 29h170l36 170q7 37 42 66q34 28 72 28q19 0 34.5 -7.5t25.5 -20.5t14 -30
t0 -36l-36 -170h171q36 0 59 -29t15 -65z" />
    <glyph glyph-name="comma" unicode="," horiz-adv-x="444" 
d="M279 -92q-8 -38 -43 -66q-34 -28 -71 -28q-19 0 -34.5 7.5t-25.5 20.5t-14 30t0 36l40 186q7 36 42 65t72 29q36 0 59 -29t15 -65z" />
    <glyph glyph-name="hyphen" unicode="-" horiz-adv-x="973" 
d="M973 683q-7 -37 -43 -66q-34 -28 -71 -28h-529q-19 0 -34.5 7.5t-25.5 20.5t-14 30t0 36q7 36 42 65t72 29h529q36 0 59 -29t15 -65z" />
    <glyph glyph-name="period" unicode="." horiz-adv-x="444" 
d="M315 77q-7 -37 -43 -65q-35 -27 -70 -27q-38 0 -60.5 26.5t-14.5 65.5q7 36 42 65t72 29q36 0 59 -29t15 -65z" />
    <glyph glyph-name="slash" unicode="/" horiz-adv-x="597" 
d="M845 1442q-2 -5 -3 -9.5t-4 -9.5l-646 -1517q-33 -75 -109 -75q-18 0 -33.5 7.5t-25.5 20.5t-14 30t0 36q1 2 1 5t1 5l3 9l648 1517q30 75 107 75q38 0 60 -28q22 -29 15 -66z" />
    <glyph glyph-name="zero" unicode="0" horiz-adv-x="1655" 
d="M1655 683q-61 -287 -312 -493q-247 -205 -535 -205t-451 205q-163 206 -101 493t311 492q250 207 538 207q286 0 448 -207q163 -206 102 -492zM1468 683q45 209 -74 361q-118 151 -329 151t-393 -151q-183 -152 -228 -361q-44 -211 74 -361q118 -151 329 -151t393 151
q185 152 228 361z" />
    <glyph glyph-name="one" unicode="1" horiz-adv-x="529" 
d="M357 77q-4 -20 -15 -36.5t-26.5 -29t-34 -19.5t-37.5 -7q-37 0 -59.5 26.5t-14.5 65.5l258 1212q4 18 15.5 35t27 30t34 20.5t36.5 7.5q19 0 34.5 -7.5t25.5 -20.5t14 -30t0 -35z" />
    <glyph glyph-name="two" unicode="2" horiz-adv-x="1179" 
d="M1008 77q-7 -37 -43 -65q-35 -27 -70 -27h-659q-38 0 -60.5 26.5t-14.5 65.5q8 35 41 65l669 594q110 98 131 196q25 121 -50 194q-68 69 -193 69q-89 0 -198 -70t-134 -70q-37 0 -59 28q-21 28 -13 66q12 54 97 114q175 119 347 119q202 0 316 -122q118 -127 75 -328
q-34 -165 -214 -328l-476 -433h434q36 0 59 -29t15 -65z" />
    <glyph glyph-name="three" unicode="3" horiz-adv-x="1060" 
d="M1003 416q-37 -178 -196 -305q-158 -126 -339 -126q-154 0 -269 107q-57 55 -46 106q4 19 15.5 36.5t27 31t33.5 21t36 7.5q23 0 97 -62q71 -61 145 -61q105 0 196 76q92 76 115 180q22 103 -38 180q-60 76 -164 76h-85q-19 0 -34.5 7.5t-25.5 20.5t-14 30t0 36
q7 36 42 65q34 28 72 28h85q65 0 123 49q61 50 74 114q13 63 -25 113q-37 49 -103 49q-52 0 -119 -46q-68 -45 -96 -45q-39 0 -60 27.5t-12 66.5q16 79 137 135q101 49 190 49q141 0 224 -102q83 -101 53 -242q-33 -152 -165 -251q178 -124 126 -371z" />
    <glyph glyph-name="four" unicode="4" horiz-adv-x="1280" 
d="M1108 77q-4 -20 -15 -36.5t-26.5 -29t-34 -19.5t-37.5 -7q-37 0 -59.5 26.5t-14.5 65.5l73 341h-700q-19 0 -34.5 7.5t-25.5 20.5t-14 30t0 36q4 25 35 60l514 597q37 43 88 43q19 0 34 -8t24.5 -21t13 -30.5t-0.5 -36.5q-4 -22 -25 -48l-397 -462h528l145 683
q4 18 15.5 35t27 30t34 20.5t36.5 7.5q19 0 34.5 -7.5t25.5 -20.5t14 -30t0 -35z" />
    <glyph glyph-name="five" unicode="5" horiz-adv-x="1282" 
d="M1246 512q-46 -216 -235 -372q-188 -155 -405 -155q-186 0 -323 131q-61 61 -51 113q4 18 15 35t26.5 30t34 21t37.5 8q30 0 57 -24q9 -11 18.5 -23t19.5 -23q70 -82 205 -82q140 0 261 100q122 101 152 241q28 139 -51 240q-80 101 -218 101q-209 0 -316 -146
q-16 -23 -30 -46t-29 -45q-37 -49 -90 -49q-20 0 -36 7t-26 19.5t-13 29t2 36.5l2 8l192 623q5 19 17 36t27.5 29.5t33.5 19.5t36 7h607q19 0 34.5 -7.5t25.5 -20.5t14 -30t0 -35q-4 -19 -15.5 -36t-27 -30t-34 -20.5t-37.5 -7.5h-526l-80 -248q152 94 310 94
q215 0 338 -157q124 -158 78 -372z" />
    <glyph glyph-name="six" unicode="6" horiz-adv-x="1314" 
d="M1278 512q-46 -217 -235 -373q-187 -154 -406 -154q-220 0 -341 154q-123 154 -76 373q40 193 195 340l522 496q34 34 79 34q18 0 33.5 -7.5t26 -20.5t14.5 -30t0 -35q-8 -36 -35 -60l-200 -193h22q214 3 329 -154q117 -158 72 -370zM1090 512q28 139 -51 240
q-80 101 -218 101q-140 0 -262 -101q-121 -100 -151 -240q-30 -141 48 -241q79 -100 220 -100t262 100q122 101 152 241z" />
    <glyph glyph-name="seven" unicode="7" horiz-adv-x="1186" 
d="M1400 1289q-6 -26 -30 -55l-1038 -1208q-36 -41 -88 -41q-37 0 -59 28q-21 28 -13 66q4 24 26 47l916 1069h-698q-19 0 -34.5 7.5t-25.5 20.5t-14 30t0 36q4 18 15.5 35t27.5 30t34.5 20.5t36.5 7.5h871q18 0 33.5 -7.5t25.5 -20.5t14 -30t0 -35z" />
    <glyph glyph-name="eight" unicode="8" horiz-adv-x="1143" 
d="M1086 416q-37 -178 -196 -305q-158 -126 -338 -126q-183 0 -286 127q-104 127 -66 306q53 248 281 370q-88 95 -55 250q30 141 155 242q124 102 268 102q140 0 223 -102q84 -101 54 -242q-35 -157 -164 -251q177 -123 124 -371zM937 1033q13 63 -25 113q-37 49 -103 49
q-67 0 -125 -48q-57 -48 -71 -114t22 -115q37 -48 105 -48q65 0 124 48q58 48 73 115zM902 427q22 103 -38 180q-60 76 -164 76q-105 0 -196 -76q-92 -77 -114 -180q-22 -102 37 -180q60 -76 164 -76q105 0 196 76q92 76 115 180z" />
    <glyph glyph-name="nine" unicode="9" horiz-adv-x="1314" 
d="M1350 853q-41 -194 -195 -339l-521 -497q-37 -32 -79 -32q-19 0 -34.5 7t-26 19.5t-14.5 29.5t0 36q8 33 35 60l200 192h-22q-213 -3 -330 154q-116 158 -71 370q46 219 235 374q191 155 407 155q218 0 340 -155q123 -154 76 -374zM1162 853q30 140 -50 241t-218 101
q-140 0 -262 -101t-152 -241q-30 -141 49 -241t220 -100q140 0 261 100q123 101 152 241z" />
    <glyph glyph-name="colon" unicode=":" horiz-adv-x="444" 
d="M460 759q-3 -18 -14.5 -35t-27.5 -30t-35 -20.5t-36 -7.5q-39 0 -61 28q-22 27 -14 65q4 19 15.5 36t27 30t34 20.5t37.5 7.5q37 0 59 -28q22 -29 15 -66zM315 77q-7 -37 -43 -65q-35 -27 -70 -27q-38 0 -60.5 26.5t-14.5 65.5q7 36 42 65t72 29q36 0 59 -29t15 -65z" />
    <glyph glyph-name="semicolon" unicode=";" horiz-adv-x="444" 
d="M460 759q-3 -18 -14.5 -35t-27.5 -30t-35 -20.5t-36 -7.5q-39 0 -61 28q-22 27 -14 65q4 19 15.5 36t27 30t34 20.5t37.5 7.5q37 0 59 -28q22 -29 15 -66zM279 -92q-8 -38 -43 -66q-34 -28 -71 -28q-19 0 -34.5 7.5t-25.5 20.5t-14 30t0 36l40 186q7 36 42 65t72 29
q36 0 59 -29t15 -65z" />
    <glyph glyph-name="less" unicode="&#x3c;" horiz-adv-x="973" 
d="M897 323q-7 -37 -43 -66q-34 -28 -71 -28q-26 0 -39 10l-155 123q-52 40 -126.5 101t-174.5 143q-41 35 -32 77t87 90l589 353q20 11 40 11q42 0 64.5 -26t13.5 -68q-10 -48 -71 -84l-474 -276l356 -277q47 -36 36 -83z" />
    <glyph glyph-name="equal" unicode="=" horiz-adv-x="973" 
d="M1009 853q-7 -37 -43 -66q-34 -28 -71 -28h-529q-19 0 -34.5 7.5t-25.5 20.5t-14 30t0 36t15.5 36t27 30t34 20.5t37.5 7.5h529q37 0 59 -28q22 -29 15 -66zM937 512q-7 -37 -43 -66q-34 -28 -71 -28h-529q-19 0 -34.5 7.5t-25.5 20.5t-14 30t0 36t15.5 36t27 30t34 20.5
t37.5 7.5h529q37 0 59 -28q22 -29 15 -66z" />
    <glyph glyph-name="greater" unicode="&#x3e;" horiz-adv-x="973" 
d="M973 683q-9 -43 -88 -91l-588 -353q-17 -10 -43 -10q-19 0 -34.5 7.5t-25.5 20.5t-14 30t0 36q11 47 70 83l474 277l-356 276q-46 35 -35 84q9 42 42 68t75 26q10 0 18 -3t17.5 -9t21 -15.5t28.5 -22.5l116 -92q94 -72 165 -130.5t125 -106.5q40 -35 32 -75z" />
    <glyph glyph-name="question" unicode="?" horiz-adv-x="1009" 
d="M1073 985q-34 -164 -176 -280q-143 -116 -304 -116q-89 0 -122 -55q-19 -28 -41 -133q-7 -37 -43 -66q-34 -28 -71 -28q-19 0 -34.5 7.5t-25.5 20.5t-14 30t0 36l7 34q41 188 116 260q83 82 268 82q86 0 159 61q75 61 93 147q18 85 -30 147q-50 63 -133 63
q-93 0 -175 -76q-81 -75 -122 -75q-18 0 -33.5 8t-25 21t-13.5 30t0 35q4 19 21 45q61 87 176 145q109 54 212 54q162 0 254 -117q92 -116 57 -280zM361 77q-7 -37 -43 -65q-35 -27 -70 -27q-38 0 -60.5 26.5t-14.5 65.5q7 36 42 65t72 29q36 0 59 -29t15 -65z" />
    <glyph glyph-name="at" unicode="@" horiz-adv-x="1655" 
d="M1655 683q-61 -287 -312 -493q-247 -205 -535 -205t-451 205q-163 206 -101 493t311 492q250 207 538 207q286 0 448 -207q163 -206 102 -492zM1468 683q45 209 -74 361q-118 151 -329 151t-393 -151q-183 -152 -228 -361q-44 -211 74 -361q118 -151 329 -151t393 151
q185 152 228 361zM1425 980l-178 -598q-12 -36 -48 -65q-35 -27 -72 -27q-77 0 -71 75q-105 -75 -228 -75q-151 0 -235 104q-82 103 -51 256q36 171 192 298q152 127 325 127q125 0 187 -77q39 77 112 77q19 0 33.5 -7.5t23.5 -19.5t12.5 -28t-0.5 -34zM1153 701
q17 77 -27 131q-43 55 -120 55q-89 0 -171 -67q-80 -67 -100 -156q-16 -76 26 -132q43 -54 121 -54q90 0 170 67q81 67 101 156z" />
    <glyph glyph-name="A" unicode="A" horiz-adv-x="1208" 
d="M1190 77q-4 -20 -14.5 -36.5t-25.5 -29t-33.5 -19.5t-37.5 -7q-65 0 -77 56l-56 283h-580l-176 -283q-36 -56 -101 -56q-37 0 -59 26.5t-14 65.5q4 21 15 36l746 1201q44 68 104 68q62 0 74 -68l236 -1201q4 -13 -1 -36zM909 512l-101 526l-325 -526h426z" />
    <glyph glyph-name="B" unicode="B" horiz-adv-x="1186" 
d="M1207 379q-34 -162 -177 -278q-140 -116 -303 -116h-662l297 1397h628q162 0 254 -117q92 -116 58 -279q-37 -177 -200 -291q148 -112 105 -316zM1115 986q18 86 -31 147q-50 62 -134 62h-440l-89 -418h440q84 0 160 62q76 61 94 147zM1020 379q18 86 -31 147
q-50 63 -134 63h-474l-89 -418h474q87 0 160 61q74 61 94 147z" />
    <glyph glyph-name="C" unicode="C" horiz-adv-x="1350" 
d="M1302 254q-13 -61 -133 -131q-239 -138 -447 -138q-287 0 -450 205q-163 206 -101 493t311 492q250 207 537 207q237 0 414 -162q62 -56 51 -109q-7 -37 -43 -66q-34 -28 -71 -28q-17 0 -31 7t-26.5 18t-24 24t-22.5 25q-104 104 -287 104q-211 0 -393 -151
q-183 -152 -228 -361q-44 -211 74 -361q118 -151 329 -151q183 0 331 104q17 12 32.5 24t31.5 24q38 25 72 25q37 0 59 -28q22 -29 15 -66z" />
    <glyph glyph-name="D" unicode="D" horiz-adv-x="1374" 
d="M1459 683q-61 -287 -312 -493q-247 -205 -536 -205h-546l297 1397h546q287 0 449 -207q163 -206 102 -492zM1271 683q45 209 -74 361q-118 151 -329 151h-358l-218 -1024h358q211 0 393 151q185 152 228 361z" />
    <glyph glyph-name="E" unicode="E" horiz-adv-x="1143" 
d="M1057 77q-4 -20 -15 -36.5t-26.5 -29t-34 -19.5t-37.5 -7h-785q-19 0 -34.5 7t-26 19.5t-14.5 29.5t0 36l258 1212q4 18 15.5 35t27.5 30t34.5 20.5t36.5 7.5h785q19 0 34.5 -7.5t25.5 -20.5t14 -30t0 -35q-4 -19 -15.5 -36t-27 -30t-34 -20.5t-37.5 -7.5h-691l-89 -418
h521q18 0 33.5 -8t25.5 -21t14 -30t0 -35q-8 -38 -42 -66t-71 -28h-521l-89 -418h691q37 0 60 -29q22 -27 14 -65z" />
    <glyph glyph-name="F" unicode="F" horiz-adv-x="1101" 
d="M1315 1289q-4 -19 -15.5 -36t-27 -30t-34 -20.5t-37.5 -7.5h-691l-89 -418h521q18 0 33.5 -8t25.5 -21t14 -30t0 -35q-8 -38 -42 -66t-71 -28h-521l-109 -512q-4 -20 -15 -36.5t-26.5 -29t-34 -19.5t-37.5 -7t-34.5 7t-26 19.5t-14.5 29.5t0 36l258 1212q4 18 15.5 35
t27.5 30t34.5 20.5t36.5 7.5h785q19 0 34.5 -7.5t25.5 -20.5t14 -30t0 -35z" />
    <glyph glyph-name="G" unicode="G" horiz-adv-x="1372" 
d="M1286 77q-7 -37 -43 -65q-35 -27 -70 -27q-94 0 -70 114q-174 -114 -381 -114q-287 0 -450 205q-163 206 -101 493t311 492q250 207 537 207q209 0 388 -140q91 -71 77 -131q-7 -37 -43 -66q-34 -28 -71 -28q-32 0 -61 26l-44 48q-101 104 -286 104q-211 0 -393 -151
q-183 -152 -228 -361q-44 -211 74 -361q118 -151 329 -151q200 0 388 145l58 273h-451q-18 0 -33.5 7.5t-25.5 20.5t-14 30t0 36q4 18 15.5 35t27 30t34 21t36.5 8h545q36 0 59 -29t15 -65z" />
    <glyph glyph-name="H" unicode="H" 
d="M1313 77q-4 -20 -15 -36.5t-26.5 -29t-34 -19.5t-37.5 -7t-34.5 7t-26 19.5t-14.5 29.5t0 36l109 512h-853l-109 -512q-4 -20 -15 -36.5t-26.5 -29t-34 -19.5t-37.5 -7t-34.5 7t-26 19.5t-14.5 29.5t0 36l258 1212q4 18 15.5 35t27.5 30t34.5 20.5t36.5 7.5
q19 0 34.5 -7.5t25.5 -20.5t14 -30t0 -35l-109 -512h853l109 512q4 18 15.5 35t27.5 30t34.5 20.5t36.5 7.5q19 0 34.5 -7.5t25.5 -20.5t14 -30t0 -35z" />
    <glyph glyph-name="I" unicode="I" horiz-adv-x="358" 
d="M272 77q-4 -20 -15 -36.5t-26.5 -29t-34 -19.5t-37.5 -7t-34.5 7t-26 19.5t-14.5 29.5t0 36l258 1212q4 18 15.5 35t27.5 30t34.5 20.5t36.5 7.5q19 0 34.5 -7.5t25.5 -20.5t14 -30t0 -35z" />
    <glyph glyph-name="J" unicode="J" horiz-adv-x="1055" 
d="M1057 495q-45 -213 -234 -362q-187 -148 -403 -148q-194 0 -326 129q-57 59 -47 108q7 37 42 64q34 28 72 28q18 0 110 -72q92 -71 188 -71q138 0 260 93q123 95 151 231l169 794q4 18 15.5 35t27 30t34 20.5t36.5 7.5q19 0 34.5 -7.5t25.5 -20.5t14 -30t0 -35z" />
    <glyph glyph-name="K" unicode="K" horiz-adv-x="1101" 
d="M1057 77q-4 -20 -14.5 -36.5t-25.5 -29t-33.5 -19.5t-37.5 -7q-43 0 -66 32l-326 519l-231 -220l-51 -239q-4 -20 -15 -36.5t-26.5 -29t-34 -19.5t-37.5 -7t-34.5 7t-26 19.5t-14.5 29.5t0 36l258 1212q4 18 15.5 35t27.5 30t34.5 20.5t36.5 7.5q19 0 34.5 -7.5
t25.5 -20.5t14 -30t0 -35l-145 -680l778 739q34 34 80 34q39 0 59.5 -27t12.5 -66q-8 -35 -33 -60l-574 -546l342 -546q15 -25 7 -60z" />
    <glyph glyph-name="L" unicode="L" horiz-adv-x="1101" 
d="M1057 77q-4 -20 -15 -36.5t-26.5 -29t-34 -19.5t-37.5 -7h-785q-19 0 -34.5 7t-26 19.5t-14.5 29.5t0 36l258 1212q4 18 15.5 35t27.5 30t34.5 20.5t36.5 7.5q19 0 34.5 -7.5t25.5 -20.5t14 -30t0 -35l-238 -1118h691q37 0 60 -29q22 -27 14 -65z" />
    <glyph glyph-name="M" unicode="M" horiz-adv-x="1485" 
d="M1398 77q-4 -20 -15 -36.5t-26.5 -29t-34 -19.5t-36.5 -7q-38 0 -60.5 26.5t-14.5 65.5l191 898l-545 -634q-35 -42 -68 -42q-29 0 -56 59l-270 617l-191 -898q-4 -20 -15 -36.5t-26.5 -29t-34 -19.5t-37.5 -7t-34.5 7t-26 19.5t-14.5 29.5t0 36l258 1212q4 18 15.5 35
t27.5 30t34.5 20.5t36.5 7.5q53 0 71 -42l325 -744l641 744q37 42 90 42q18 0 33.5 -7.5t25.5 -20.5t14 -30t0 -35z" />
    <glyph glyph-name="N" unicode="N" 
d="M1313 77q-4 -20 -15 -36.5t-26.5 -29t-34 -19.5t-37.5 -7q-42 0 -70 39l-655 1005l-203 -952q-4 -20 -15 -36.5t-26.5 -29t-34 -19.5t-37.5 -7t-34.5 7t-26 19.5t-14.5 29.5t0 36l258 1212q4 18 15.5 35t27.5 30t34.5 20.5t36.5 7.5q45 0 62 -27l662 -1019l203 953
q4 18 15.5 35t27.5 30t34.5 20.5t36.5 7.5q19 0 34.5 -7.5t25.5 -20.5t14 -30t0 -35z" />
    <glyph glyph-name="O" unicode="O" horiz-adv-x="1485" 
d="M1570 683q-61 -287 -312 -493q-247 -205 -536 -205q-287 0 -450 205q-163 206 -101 493t311 492q250 207 537 207t449 -207q163 -206 102 -492zM1382 683q45 209 -74 361q-118 151 -329 151t-393 -151q-183 -152 -228 -361q-44 -211 74 -361q118 -151 329 -151t393 151
q185 152 228 361z" />
    <glyph glyph-name="P" unicode="P" horiz-adv-x="1186" 
d="M1318 901q-44 -200 -214 -342q-170 -141 -370 -141h-389l-73 -341q-4 -20 -15 -36.5t-26.5 -29t-34 -19.5t-37.5 -7t-34.5 7t-26 19.5t-14.5 29.5t0 36l278 1305h577q198 0 309 -142q112 -141 70 -339zM1131 901q25 120 -43 207t-189 87h-389l-125 -589h389q121 0 225 87
q107 87 132 208z" />
    <glyph glyph-name="Q" unicode="Q" horiz-adv-x="1485" 
d="M1570 683q-60 -284 -307 -492l104 -133q22 -26 14 -65q-4 -18 -15.5 -35t-27 -30t-34 -21t-36.5 -8q-40 0 -62 28l-118 148q-180 -90 -366 -90q-287 0 -450 205q-163 206 -101 493q62 289 311 493q253 206 537 206q287 0 449 -207q163 -206 102 -492zM1382 683
q45 209 -74 361q-118 151 -329 151t-393 -151q-183 -152 -228 -361q-44 -211 74 -361q118 -151 329 -151q105 0 219 44l-84 106q-22 26 -14 66q8 38 42 65q34 28 72 28q40 0 61 -28l103 -129q178 151 222 360z" />
    <glyph glyph-name="R" unicode="R" horiz-adv-x="1186" 
d="M1142 77q-4 -20 -15 -36.5t-26.5 -29t-34 -19.5t-36.5 -7q-39 0 -60 25l-321 408h-304l-73 -341q-4 -20 -15 -36.5t-26.5 -29t-34 -19.5t-37.5 -7t-34.5 7t-26 19.5t-14.5 29.5t0 36l278 1305h577q198 0 309 -142q112 -141 70 -339q-33 -154 -151 -281
q-116 -127 -273 -176l235 -301q22 -27 13 -66zM1131 901q25 120 -44 207q-68 87 -188 87h-389l-125 -589h389q121 0 225 87q107 87 132 208z" />
    <glyph glyph-name="S" unicode="S" horiz-adv-x="877" 
d="M898 381q-35 -164 -176 -280q-140 -116 -303 -116q-103 0 -191 54q-88 55 -112 144q-8 24 -3 44q4 19 15 36t26 30t33.5 20.5t37.5 7.5q41 0 91 -75q48 -75 142 -75q83 0 159 62q76 61 94 148q18 85 -31 146q-50 62 -133 62q-163 0 -255 116t-57 280t176 280
q139 117 305 117q100 0 189 -56q88 -55 112 -143q7 -24 3 -45q-7 -37 -41 -66q-32 -28 -71 -28q-43 0 -91 75q-48 76 -141 76q-88 0 -161 -63q-74 -62 -93 -147q-18 -86 30 -147t135 -61q162 0 254 -117q91 -116 57 -279z" />
    <glyph glyph-name="T" unicode="T" horiz-adv-x="1263" 
d="M1503 1289q-7 -37 -43 -66q-34 -28 -71 -28h-427l-238 -1118q-4 -20 -15 -36.5t-26.5 -29t-34 -19.5t-37.5 -7q-37 0 -59.5 26.5t-14.5 65.5l238 1118h-427q-19 0 -34.5 7.5t-25.5 20.5t-14 30t0 36q7 36 42 65q34 28 72 28h1041q18 0 33.5 -7.5t26 -20.5t14.5 -30t0 -35
z" />
    <glyph glyph-name="U" unicode="U" 
d="M1424 597q-54 -252 -273 -432q-221 -180 -471 -180q-254 0 -396 180q-143 180 -89 432l147 692q4 18 15.5 35t27.5 30t34.5 20.5t36.5 7.5q19 0 34.5 -7.5t25.5 -20.5t14 -30t0 -35l-147 -692q-37 -173 61 -301q101 -125 275 -125q175 0 327 125q153 126 190 301l147 692
q4 18 15.5 35t27.5 30t34.5 20.5t36.5 7.5q19 0 34.5 -7.5t25.5 -20.5t14 -30t0 -35z" />
    <glyph glyph-name="V" unicode="V" horiz-adv-x="1208" 
d="M1448 1289q-5 -21 -15 -36l-746 -1202q-41 -66 -103 -66t-75 66l-236 1202q-3 16 1 36q4 18 15 35t26.5 30t34 20.5t36.5 7.5q66 0 76 -58l195 -996l617 996q37 58 102 58q19 0 34.5 -7.5t25 -20.5t13 -30t-0.5 -35z" />
    <glyph glyph-name="W" unicode="W" horiz-adv-x="1720" 
d="M1960 1289q-5 -21 -15 -36l-746 -1202q-41 -66 -103 -66t-75 66l-80 410l-254 -410q-41 -66 -103 -66t-75 66l-236 1202q-3 16 1 36q4 18 15 35t26.5 30t34 20.5t36.5 7.5q66 0 76 -58l195 -996l234 379l-106 546q-3 16 1 36q4 18 15 35t26.5 30t34 20.5t36.5 7.5
q66 0 76 -58l72 -368l228 368q37 58 102 58q19 0 34.5 -7.5t25 -20.5t13 -30t-0.5 -35q-5 -21 -15 -36l-338 -546l74 -379l617 996q37 58 102 58q19 0 34.5 -7.5t25 -20.5t13 -30t-0.5 -35z" />
    <glyph glyph-name="X" unicode="X" horiz-adv-x="1292" 
d="M1248 77q-4 -20 -15 -36.5t-26.5 -29t-34 -19.5t-37.5 -7q-41 0 -64 32l-329 521l-547 -521q-37 -32 -80 -32q-38 0 -59.5 26.5t-13.5 65.5q7 32 33 58l577 548l-344 548q-16 23 -8 58q4 18 15 35t26 30t33 20.5t38 7.5q45 0 66 -34l326 -520l550 520q34 34 78 34
q19 0 34.5 -7.5t25.5 -20.5t14 -30t0 -35q-8 -36 -35 -60l-575 -546l343 -546q16 -26 9 -60z" />
    <glyph glyph-name="Y" unicode="Y" horiz-adv-x="1241" 
d="M1481 1289q-8 -35 -36 -60l-611 -580l-122 -572q-4 -20 -15 -36.5t-26.5 -29t-34 -19.5t-37.5 -7q-37 0 -59.5 26.5t-14.5 65.5l122 573l-365 581q-16 23 -8 58q4 18 15 35t26.5 30t34 20.5t36.5 7.5q46 0 67 -34l325 -520l550 520q34 34 79 34q18 0 33.5 -7.5t26 -20.5
t14.5 -30t0 -35z" />
    <glyph glyph-name="Z" unicode="Z" horiz-adv-x="1292" 
d="M1248 77q-4 -20 -15 -36.5t-26.5 -29t-34 -19.5t-37.5 -7h-1020q-38 0 -59.5 26.5t-13.5 65.5q7 32 33 58l1118 1060h-820q-18 0 -33.5 7.5t-25.5 20.5t-14 30t0 36q4 18 15.5 35t27 30t34 20.5t36.5 7.5h1019q19 0 34.5 -7.5t25.5 -20.5t14 -30t0 -35q-8 -33 -43 -67
l-1108 -1051h819q37 0 60 -29q22 -27 14 -65z" />
    <glyph glyph-name="bracketleft" unicode="[" horiz-adv-x="717" 
d="M552 -92q-8 -38 -43 -66q-34 -28 -71 -28h-273q-19 0 -34.5 7.5t-25.5 20.5t-14 30t0 36l330 1551q4 19 15.5 36t27 30t34 20.5t37.5 7.5h273q37 0 59 -28q22 -29 15 -66t-43 -66q-34 -28 -71 -28h-179l-290 -1365h179q18 0 33.5 -7.5t26 -20t14.5 -29.5t0 -35z" />
    <glyph glyph-name="backslash" unicode="\" horiz-adv-x="597" 
d="M522 -75q-7 -37 -43 -66q-34 -28 -71 -28q-78 0 -76 75l-3 1517q1 3 1 9q1 2 1.5 5t1.5 5q7 37 41 66q34 28 71 28q76 0 78 -75l1 -1517q0 -5 -0.5 -9.5t-1.5 -9.5z" />
    <glyph glyph-name="bracketright" unicode="]" horiz-adv-x="717" 
d="M552 -92q-8 -38 -43 -66q-34 -28 -71 -28h-273q-19 0 -34.5 7.5t-25.5 20.5t-14 30t0 36q7 36 42 65q34 27 72 27h179l290 1365h-179q-19 0 -34.5 7.5t-25.5 20.5t-14 30t0 36t15.5 36t27 30t34 20.5t37.5 7.5h273q37 0 59 -28q22 -29 15 -66z" />
    <glyph glyph-name="asciicircum" unicode="^" horiz-adv-x="1027" 
d="M971 418q-4 -20 -15 -37t-26.5 -29.5t-34 -20t-38.5 -7.5q-54 0 -73 55l-127 374l-286 -374q-43 -55 -97 -55q-19 0 -34.5 7.5t-25.5 20.5t-14 30t0 36q2 11 6.5 21t9.5 18l394 514q55 70 108 70t77 -70l176 -514q4 -17 0 -39z" />
    <glyph glyph-name="underscore" unicode="_" horiz-adv-x="973" 
d="M1049 77q-7 -37 -43 -65q-35 -27 -70 -27h-939q-18 0 -33 7t-25.5 19.5t-14.5 29t0 36.5q7 36 42 65t70 29h939q36 0 59 -29t15 -65z" />
    <glyph glyph-name="grave" unicode="`" horiz-adv-x="596" 
d="M776 1529q-4 -20 -15 -37t-26 -30t-33.5 -20.5t-38.5 -7.5q-50 0 -69 42l-106 226q-11 24 -4 51q4 19 15 36.5t26 30t33 20t38 7.5q50 0 70 -41l105 -226q11 -23 5 -51z" />
    <glyph glyph-name="a" unicode="a" horiz-adv-x="1357" 
d="M1270 77q-4 -20 -15 -36.5t-26.5 -29t-34 -19.5t-36.5 -7q-38 0 -60.5 26.5t-14.5 65.5l21 97q-212 -189 -467 -189q-254 0 -396 180t-88 432q53 252 272 434q220 181 473 181q255 0 386 -191l21 97q7 36 41 65q37 29 73 29q19 0 33.5 -8t24.5 -21t14 -30t1 -35z
M1194 597q38 176 -62 301q-98 126 -274 126t-329 -126q-151 -124 -189 -301q-37 -173 61 -301q101 -125 275 -125q176 0 328 125q153 126 190 301z" />
    <glyph glyph-name="b" unicode="b" horiz-adv-x="1357" 
d="M1424 597q-54 -252 -273 -432q-221 -180 -471 -180q-257 0 -387 189l-21 -97q-4 -20 -15 -36.5t-26.5 -29t-34 -19.5t-37.5 -7t-34.5 7t-26 19.5t-14.5 29.5t0 36l258 1212q4 18 15.5 35t27.5 30t34.5 20.5t36.5 7.5q19 0 34.5 -7.5t25.5 -20.5t14 -30t0 -35l-57 -268
q212 191 468 191q252 0 394 -181q143 -182 89 -434zM1236 597q38 176 -62 301q-98 126 -273 126q-176 0 -329 -126q-151 -124 -189 -301q-37 -173 61 -301q101 -125 275 -125q175 0 327 125q153 126 190 301z" />
    <glyph glyph-name="c" unicode="c" horiz-adv-x="1205" 
d="M1308 966q-7 -37 -43 -66q-34 -28 -71 -28q-17 0 -30.5 6.5t-25.5 16.5t-23 22t-21 23q-83 84 -236 84q-176 0 -329 -126q-151 -124 -189 -301q-37 -173 61 -301q101 -125 275 -125q153 0 272 83q15 11 30 22.5t31 23.5q37 24 69 24q18 0 33 -8t25 -21t14 -30.5t0 -35.5
q-14 -59 -120 -123q-203 -121 -393 -121q-254 0 -396 180t-88 432q53 252 272 434q220 181 473 181q188 0 340 -123q82 -67 70 -123z" />
    <glyph glyph-name="d" unicode="d" horiz-adv-x="1357" 
d="M1270 77q-4 -20 -15 -36.5t-26.5 -29t-34 -19.5t-36.5 -7q-38 0 -60.5 26.5t-14.5 65.5l21 97q-212 -189 -467 -189q-254 0 -396 180t-88 432q53 252 272 434q220 181 473 181q255 0 386 -191l57 268q7 36 42 65q34 28 72 28q18 0 33.5 -7.5t25.5 -20.5t14 -30t0 -35z
M1194 597q38 176 -62 301q-98 126 -274 126t-329 -126q-151 -124 -189 -301q-37 -173 61 -301q101 -125 275 -125q176 0 328 125q153 126 190 301z" />
    <glyph glyph-name="e" unicode="e" horiz-adv-x="1205" 
d="M1308 966q-7 -38 -42 -67l-803 -662q91 -66 213 -66q153 0 272 83q15 11 31 22.5t33 23.5q33 24 66 24q18 0 33 -8t25 -21t14 -30.5t0 -35.5q-14 -59 -120 -123q-203 -121 -393 -121q-254 0 -396 180t-88 432q53 252 272 434q220 181 473 181q182 0 340 -123
q83 -64 70 -123zM1081 951q-85 73 -223 73q-176 0 -329 -126q-151 -124 -189 -301q-29 -137 25 -237z" />
    <glyph glyph-name="f" unicode="f" horiz-adv-x="828" 
d="M1085 1289q-7 -37 -43 -66q-34 -28 -71 -28h-282l-69 -325h154q18 0 33.5 -7.5t26 -20.5t14.5 -30t0 -35q-7 -37 -43 -66q-34 -28 -71 -28h-154l-129 -606q-4 -20 -15 -36.5t-26.5 -29t-34 -19.5t-37.5 -7t-34.5 7t-26 19.5t-14.5 29.5t0 36l129 606h-153
q-19 0 -34.5 7.5t-25.5 20.5t-14 30t0 36q7 36 42 65q34 28 72 28h153l89 419q4 18 15.5 35t27.5 30t34.5 20.5t36.5 7.5h376q18 0 33.5 -7.5t26 -20.5t14.5 -30t0 -35z" />
    <glyph glyph-name="g" unicode="g" horiz-adv-x="1357" 
d="M1198 -263q-4 -18 -15 -35t-26.5 -30t-34 -21t-37.5 -8h-700q-37 0 -60 29q-22 27 -14 65q4 19 15.5 36t27 30t34 20.5t37.5 7.5h606l73 343q-212 -189 -467 -189q-254 0 -396 180t-88 432q53 252 272 434q220 181 473 181q255 0 386 -191l21 97q7 36 41 65q37 29 73 29
q19 0 33.5 -8t24.5 -21t14 -30t1 -35zM1194 597q38 176 -62 301q-98 126 -274 126t-329 -126q-151 -124 -189 -301q-37 -173 61 -301q101 -125 275 -125q176 0 328 125q153 126 190 301z" />
    <glyph glyph-name="h" unicode="h" 
d="M1313 77q-4 -20 -15 -36.5t-26.5 -29t-34 -19.5t-37.5 -7t-34.5 7t-26 19.5t-14.5 29.5t0 36l111 520q38 176 -62 301q-98 126 -273 126q-176 0 -329 -126q-151 -124 -189 -301l-111 -520q-4 -20 -15 -36.5t-26.5 -29t-34 -19.5t-37.5 -7t-34.5 7t-26 19.5t-14.5 29.5
t0 36l258 1212q4 18 15.5 35t27.5 30t34.5 20.5t36.5 7.5q19 0 34.5 -7.5t25.5 -20.5t14 -30t0 -35l-57 -268q212 191 483 191q247 0 384 -183q136 -182 84 -432z" />
    <glyph glyph-name="i" unicode="i" horiz-adv-x="358" 
d="M272 77q-4 -20 -15 -36.5t-26.5 -29t-34 -19.5t-37.5 -7t-34.5 7t-26 19.5t-14.5 29.5t0 36l222 1041q7 36 41 65q37 29 73 29t59 -29q22 -28 15 -65z" />
    <glyph glyph-name="j" unicode="j" horiz-adv-x="358" 
d="M200 -263q-7 -36 -42 -65t-72 -29t-60 29q-22 27 -14 65l294 1381q7 36 41 65q37 29 73 29t59 -29q22 -28 15 -65z" />
    <glyph glyph-name="k" unicode="k" horiz-adv-x="1082" 
d="M1038 77q-4 -20 -14.5 -36.5t-25.5 -29t-33.5 -19.5t-37.5 -7q-40 0 -61 25l-357 454l-187 -153l-50 -234q-4 -20 -15 -36.5t-26.5 -29t-34 -19.5t-37.5 -7t-34.5 7t-26 19.5t-14.5 29.5t0 36l258 1212q4 18 15.5 35t27.5 30t34.5 20.5t36.5 7.5q19 0 34.5 -7.5
t25.5 -20.5t14 -30t0 -35l-151 -712l737 607q32 28 72 28q39 0 59.5 -27.5t12.5 -66.5q-9 -42 -40 -67l-550 -454l357 -454q20 -26 11 -66z" />
    <glyph glyph-name="l" unicode="l" horiz-adv-x="358" 
d="M272 77q-4 -20 -15 -36.5t-26.5 -29t-34 -19.5t-37.5 -7t-34.5 7t-26 19.5t-14.5 29.5t0 36l258 1212q4 18 15.5 35t27.5 30t34.5 20.5t36.5 7.5q19 0 34.5 -7.5t25.5 -20.5t14 -30t0 -35z" />
    <glyph glyph-name="m" unicode="m" horiz-adv-x="1826" 
d="M1740 77q-7 -37 -43 -65q-35 -27 -70 -27q-38 0 -60.5 26.5t-14.5 65.5l144 674q23 112 -41 192q-63 81 -174 81t-210 -81q-99 -82 -121 -192l-144 -674q-4 -20 -15 -36.5t-26.5 -29t-34 -19.5t-37.5 -7q-38 0 -60.5 26.5t-14.5 65.5l144 674q23 112 -41 192
q-63 81 -174 81t-210 -81q-99 -82 -121 -192l-144 -674q-4 -20 -15 -36.5t-26.5 -29t-34 -19.5t-37.5 -7t-34.5 7t-26 19.5t-14.5 29.5t0 36l222 1041q7 36 41 65q37 29 73 29q42 0 61.5 -29.5t10.5 -71.5q142 101 295 101q114 0 200 -59q85 -58 120 -160q79 102 188 160
q113 59 226 59q190 0 296 -136q107 -137 67 -325z" />
    <glyph glyph-name="n" unicode="n" 
d="M1313 77q-4 -20 -15 -36.5t-26.5 -29t-34 -19.5t-37.5 -7t-34.5 7t-26 19.5t-14.5 29.5t0 36l111 520q38 176 -62 301q-98 126 -273 126q-176 0 -329 -126q-151 -124 -189 -301l-111 -520q-4 -20 -15 -36.5t-26.5 -29t-34 -19.5t-37.5 -7t-34.5 7t-26 19.5t-14.5 29.5
t0 36l222 1041q7 36 41 65q37 29 73 29t59 -29q22 -28 15 -65l-21 -97q212 191 483 191q247 0 384 -183q136 -182 84 -432z" />
    <glyph glyph-name="o" unicode="o" horiz-adv-x="1314" 
d="M1381 597q-54 -252 -273 -432q-218 -180 -471 -180q-254 0 -396 180t-88 432q53 252 272 434q220 181 473 181t394 -181q143 -182 89 -434zM1194 597q38 176 -62 301q-98 126 -274 126t-329 -126q-151 -124 -189 -301q-37 -173 61 -301q101 -125 275 -125q176 0 328 125
q153 126 190 301z" />
    <glyph glyph-name="p" unicode="p" horiz-adv-x="1357" 
d="M1424 597q-54 -252 -273 -432q-221 -180 -471 -180q-257 0 -387 189l-93 -437q-7 -36 -42 -65t-72 -29t-60 29q-22 27 -14 65l294 1381q7 36 41 65q37 29 73 29t59 -29q22 -28 15 -65l-21 -97q212 191 468 191q252 0 394 -181q143 -182 89 -434zM1236 597q38 176 -62 301
q-98 126 -273 126q-176 0 -329 -126q-151 -124 -189 -301q-37 -173 61 -301q101 -125 275 -125q175 0 327 125q153 126 190 301z" />
    <glyph glyph-name="q" unicode="q" horiz-adv-x="1357" 
d="M1198 -263q-4 -18 -15 -35t-26.5 -30t-34 -21t-37.5 -8q-37 0 -60 29q-22 27 -14 65l93 437q-212 -189 -467 -189q-254 0 -396 180t-88 432q53 252 272 434q220 181 473 181q255 0 386 -191l21 97q7 36 41 65q37 29 73 29q19 0 33.5 -8t24.5 -21t14 -30t1 -35zM1194 597
q38 176 -62 301q-98 126 -274 126t-329 -126q-151 -124 -189 -301q-37 -173 61 -301q101 -125 275 -125q176 0 328 125q153 126 190 301z" />
    <glyph glyph-name="r" unicode="r" horiz-adv-x="836" 
d="M1015 1118q-7 -37 -43 -66q-34 -28 -71 -28q-177 0 -329 -127q-152 -128 -189 -300l-111 -520q-4 -20 -15 -36.5t-26.5 -29t-34 -19.5t-37.5 -7t-34.5 7t-26 19.5t-14.5 29.5t0 36l222 1041q7 36 41 65q37 29 73 29t59 -29q22 -28 15 -65l-21 -97q209 191 468 191
q35 0 58 -29q23 -30 16 -65z" />
    <glyph glyph-name="s" unicode="s" horiz-adv-x="792" 
d="M804 338q-32 -146 -157 -249q-127 -104 -271 -104q-96 0 -170 44q-77 49 -100 133q-6 26 -2 46q4 19 15 36t26 29.5t33 19.5t38 7q38 0 85 -65q46 -64 114 -64q64 0 126 50q61 49 75 117q14 66 -26 115q-39 50 -104 50q-144 0 -227 104q-81 106 -51 250q31 144 157 250
q126 105 272 105q96 0 169 -49q76 -51 100 -130q6 -25 2 -45q-8 -38 -42 -66t-72 -28t-83 65t-114 65q-68 0 -128 -51q-61 -50 -74 -116q-14 -68 24 -117q39 -49 107 -49q144 0 227 -104q82 -104 51 -249z" />
    <glyph glyph-name="t" unicode="t" horiz-adv-x="828" 
d="M827 77q-7 -37 -43 -65q-35 -27 -70 -27h-376q-19 0 -34.5 7t-26 19.5t-14.5 29.5t0 36l202 947h-153q-19 0 -34.5 7.5t-25.5 20.5t-14 30t0 36q7 36 41 65q37 29 73 29h153l16 77q4 18 15.5 35t27.5 30t34.5 20.5t36.5 7.5q19 0 34.5 -7.5t25.5 -20.5t14 -30t0 -35
l-16 -77h154q35 0 58 -29q23 -30 16 -65q-7 -37 -43 -66q-34 -28 -71 -28h-154l-182 -853h282q36 0 59 -29t15 -65z" />
    <glyph glyph-name="u" unicode="u" 
d="M1313 77q-4 -20 -15 -36.5t-26.5 -29t-34 -19.5t-37.5 -7t-34.5 7t-26 19.5t-14.5 29.5t0 36l21 97q-210 -189 -482 -189q-249 0 -385 181q-137 182 -84 431l111 521q7 36 41 65q37 29 73 29t59 -29q22 -28 15 -65l-111 -521q-37 -173 61 -301q101 -125 275 -125
q175 0 327 125q153 126 190 301l111 521q7 36 41 65q37 29 73 29t59 -29q22 -28 15 -65z" />
    <glyph glyph-name="v" unicode="v" horiz-adv-x="1147" 
d="M1351 1118q-5 -20 -17 -38l-673 -1025q-5 -8 -12 -21q-31 -49 -96 -49t-75 49q0 4 -1 9t-1 12l-237 1025q-5 21 -1 38q7 36 41 65q37 29 73 29q59 0 73 -57l197 -843l558 843q37 57 97 57q35 0 58 -29q23 -30 16 -65z" />
    <glyph glyph-name="w" unicode="w" horiz-adv-x="1659" 
d="M1863 1118q-5 -20 -17 -38l-673 -1025q-5 -8 -12 -21q-31 -49 -96 -49t-75 49q0 4 -1 9t-1 12l-86 367l-241 -367q-5 -8 -12 -21q-31 -49 -96 -49t-75 49q0 4 -1 9t-1 12l-237 1025q-5 21 -1 38q7 36 41 65q37 29 73 29q59 0 73 -57l197 -844l227 343l-98 426
q-5 21 -1 38q7 36 41 65q37 29 73 29q59 0 73 -57l63 -269l180 269q37 57 97 57q35 0 58 -29q23 -30 16 -65q-5 -20 -17 -38l-280 -426l80 -343l558 844q37 57 97 57q35 0 58 -29q23 -30 16 -65z" />
    <glyph glyph-name="x" unicode="x" horiz-adv-x="1143" 
d="M1100 77q-7 -37 -43 -65q-35 -27 -70 -27q-42 0 -65 32l-271 434l-456 -434q-37 -32 -80 -32q-38 0 -59.5 26.5t-13.5 65.5q7 32 33 58l485 462l-289 463q-14 27 -7 58q8 37 40 65q35 29 72 29q46 0 65 -34l272 -434l455 434q35 34 80 34q35 0 58 -29q23 -30 16 -65
q-7 -34 -35 -60l-484 -461l288 -460q16 -29 9 -60z" />
    <glyph glyph-name="y" unicode="y" 
d="M1241 -263q-7 -36 -42 -65t-72 -29h-700q-18 0 -33 8t-25.5 21t-14.5 30t0 35q7 37 42 66q34 28 71 28h606l73 343q-210 -189 -482 -189q-249 0 -385 181q-137 182 -84 431l111 521q7 36 41 65q37 29 73 29t59 -29q22 -28 15 -65l-111 -521q-37 -174 62 -300
q100 -126 274 -126t327 126q152 125 190 300l111 521q7 36 41 65q37 29 73 29t59 -29q22 -28 15 -65z" />
    <glyph glyph-name="z" unicode="z" horiz-adv-x="1143" 
d="M1100 77q-7 -37 -43 -65q-35 -27 -70 -27h-872q-38 0 -59.5 26.5t-13.5 65.5q7 32 33 58l933 889h-671q-18 0 -33.5 7.5t-25.5 20.5t-14 30t0 36q3 18 14.5 35t27 30t34.5 21t37 8h871q35 0 58 -29q23 -30 16 -65q-8 -35 -43 -67l-924 -880h671q36 0 59 -29t15 -65z" />
    <glyph glyph-name="braceleft" unicode="{" horiz-adv-x="990" 
d="M825 -92q-8 -38 -43 -66q-34 -28 -71 -28h-273q-19 0 -34.5 7.5t-25.5 20.5t-14 30t0 36l145 681h-179q-19 0 -34.5 7.5t-25.5 20.5t-14 30t0 36q7 36 42 65t72 29h179l145 682q4 19 15.5 36t27 30t34 20.5t37.5 7.5h273q37 0 59 -28q22 -29 15 -66t-43 -66
q-34 -28 -71 -28h-179l-129 -606q-11 -48 -57 -76q35 -29 25 -77l-129 -606h179q18 0 33.5 -7.5t26 -20t14.5 -29.5t0 -35z" />
    <glyph glyph-name="bar" unicode="|" horiz-adv-x="444" 
d="M279 -92q-8 -38 -43 -66q-34 -28 -71 -28q-19 0 -34.5 7.5t-25.5 20.5t-14 30t0 36l330 1551q4 19 15.5 36t27 30t34 20.5t37.5 7.5q37 0 59 -28q22 -29 15 -66z" />
    <glyph glyph-name="braceright" unicode="}" horiz-adv-x="990" 
d="M990 683q-7 -37 -43 -66q-34 -28 -71 -28h-179l-145 -681q-8 -38 -43 -66q-34 -28 -71 -28h-273q-19 0 -34.5 7.5t-25.5 20.5t-14 30t0 36q7 36 42 65q34 27 72 27h179l129 606q11 49 57 77q-36 29 -25 76l129 606h-179q-19 0 -34.5 7.5t-25.5 20.5t-14 30t0 36t15.5 36
t27 30t34 20.5t37.5 7.5h273q37 0 59 -28q22 -29 15 -66l-145 -682h179q36 0 59 -29t15 -65z" />
    <glyph glyph-name="asciitilde" unicode="~" horiz-adv-x="1109" 
d="M1109 683q-10 -45 -144 -101q-129 -53 -179 -53q-62 0 -129 60q-68 60 -118 60t-144 -45q-96 -44 -124 -44q-41 0 -30 51l15 72q11 45 144 100q129 53 179 53q58 0 129 -60q71 -59 118 -59q48 0 144 44q94 45 124 45q40 0 30 -52z" />
    <glyph glyph-name="nonbreakingspace" unicode="&#xa0;" horiz-adv-x="802" 
 />
    <glyph glyph-name="exclamdown" unicode="&#xa1;" horiz-adv-x="444" 
d="M537 1118q-7 -37 -43 -66q-34 -28 -71 -28q-19 0 -34.5 7.5t-25.5 20.5t-14 30t0 36q7 36 41 65q37 29 73 29q35 0 58 -29q23 -30 16 -65zM279 -92q-8 -38 -43 -66q-34 -28 -71 -28q-19 0 -34.5 7.5t-25.5 20.5t-14 30t0 36l189 886q7 36 42 65q34 28 72 28q18 0 33 -7.5
t25.5 -20.5t15 -30t0.5 -35z" />
    <glyph glyph-name="cent" unicode="&#xa2;" horiz-adv-x="1333" 
d="M1411 1051q-8 -38 -42 -66t-72 -28q-16 0 -30 6.5t-26 16.5t-22.5 22.5t-20.5 23.5q-44 44 -111 65l-356 -832q30 -3 48 -3q154 0 273 84q16 11 30.5 22.5t30.5 23.5q36 24 68 24q19 0 34.5 -8t25 -21t13 -30.5t-0.5 -36.5q-14 -60 -120 -123q-209 -123 -394 -123
q-20 0 -42 1.5t-44 5.5l-72 -169q-33 -75 -108 -75q-19 0 -34.5 7.5t-25.5 20.5t-14 30t0 36q1 2 1 5t1 5l3 9l81 186q-143 76 -204 228q-62 153 -25 325q52 246 265 426q212 181 462 188q15 37 29 74t29 75q49 90 118 90q38 0 60 -28q22 -29 15 -66q-4 -19 -21.5 -61
t-48.5 -108q42 -14 79.5 -35.5t77.5 -49.5q104 -75 90 -137zM899 1104q-162 -22 -292 -143t-163 -278q-23 -108 10 -205q32 -95 113 -155z" />
    <glyph glyph-name="sterling" unicode="&#xa3;" horiz-adv-x="1237" 
d="M1108 77q-4 -20 -15 -36.5t-26.5 -29t-34 -19.5t-37.5 -7h-546q-19 0 -34.5 7t-26 19.5t-14.5 29.5t0 36l129 606h-153q-19 0 -34.5 7.5t-25.5 20.5t-14 30t0 36q7 36 42 65q34 28 72 28h153l89 419q4 18 15.5 35t27.5 30t34.5 20.5t36.5 7.5h376q18 0 33.5 -7.5
t26 -20.5t14.5 -30t0 -35q-7 -37 -43 -66q-34 -28 -71 -28h-282l-69 -325h154q18 0 33.5 -7.5t26 -20.5t14.5 -30t0 -35q-7 -37 -43 -66q-34 -28 -71 -28h-154l-109 -512h452q37 0 60 -29q22 -27 14 -65z" />
    <glyph glyph-name="currency" unicode="&#xa4;" horiz-adv-x="1314" 
d="M1243 220q-5 -20 -15.5 -37t-26 -29.5t-34 -20t-37.5 -7.5q-40 0 -61 28l-113 143q-132 -75 -269 -75q-138 0 -237 75l-173 -143q-32 -28 -73 -28q-39 0 -60.5 27.5t-12.5 66.5q8 38 41 67l173 143q-49 114 -21 253q30 138 129 252l-113 144q-21 26 -13 66q4 19 15 36.5
t26.5 30t33.5 20t38 7.5q39 0 62 -27l112 -144q130 75 269 75q136 0 237 -75l174 144q31 27 72 27q39 0 60.5 -27.5t12.5 -66.5q-7 -39 -41 -66l-173 -144q51 -114 21 -252q-28 -139 -129 -253l113 -143q21 -28 13 -67zM1058 683q24 111 -40 192q-65 81 -175 81
q-112 0 -209 -81q-98 -82 -122 -192q-23 -112 40 -192q64 -81 175 -81t209 81q100 81 122 192z" />
    <glyph glyph-name="yen" unicode="&#xa5;" horiz-adv-x="1241" 
d="M1481 1289q-8 -35 -36 -60l-576 -546h145q36 0 59 -29t15 -65q-7 -37 -43 -66q-34 -28 -71 -28h-173l-33 -154h173q38 0 60 -28q22 -29 15 -66q-4 -18 -16 -35t-27.5 -30t-34 -20.5t-36.5 -7.5h-173l-17 -77q-4 -20 -15 -36.5t-26.5 -29t-34 -19.5t-37.5 -7
q-37 0 -59.5 26.5t-14.5 65.5l17 77h-169q-19 0 -34.5 7.5t-25.5 20.5t-14 30t0 35q4 19 15 36t26.5 30t34 20.5t37.5 7.5h169l33 154h-169q-19 0 -34.5 7.5t-25.5 20.5t-14 30t0 36q7 36 42 65t72 29h141l-344 548q-16 23 -8 58q4 18 15 35t26.5 30t34 20.5t36.5 7.5
q46 0 67 -34l325 -520l550 520q34 34 79 34q18 0 33.5 -7.5t26 -20.5t14.5 -30t0 -35z" />
    <glyph glyph-name="brokenbar" unicode="&#xa6;" horiz-adv-x="444" 
d="M479 845q-7 -37 -43 -66q-34 -28 -71 -28q-19 0 -34.5 7.5t-25.5 20.5t-14 30t0 36l130 614q4 19 15.5 36t27 30t34 20.5t37.5 7.5q37 0 59 -28q22 -29 15 -66zM279 -92q-8 -38 -43 -66q-34 -28 -71 -28q-19 0 -34.5 7.5t-25.5 20.5t-14 30t0 36l131 613q7 36 42 65
q34 28 72 28q18 0 33 -7.5t25.5 -20.5t15 -30t0.5 -35z" />
    <glyph glyph-name="dieresis" unicode="&#xa8;" horiz-adv-x="751" 
d="M931 1527q-7 -36 -42 -65q-34 -28 -72 -28q-19 0 -34.5 7.5t-25.5 20.5t-14 30t0 35q4 19 15 36t26.5 30t34 20.5t38.5 7.5q19 0 34.5 -7.5t25.5 -20.5t14 -30t0 -36zM624 1527q-4 -18 -15.5 -35t-27.5 -30t-34.5 -20.5t-36.5 -7.5q-19 0 -34.5 7.5t-25.5 20.5t-14 30
t0 35q4 19 15 36t26.5 30t34 20.5t38.5 7.5q37 0 59 -28q22 -29 15 -66z" />
    <glyph glyph-name="copyright" unicode="&#xa9;" horiz-adv-x="1655" 
d="M1655 683q-61 -287 -312 -493q-247 -205 -535 -205t-451 205q-163 206 -101 493t311 492q250 207 538 207q286 0 448 -207q163 -206 102 -492zM1468 683q45 209 -74 361q-118 151 -329 151t-393 -151q-183 -152 -228 -361q-44 -211 74 -361q118 -151 329 -151t393 151
q185 152 228 361zM1215 473q-16 -79 -145 -135q-110 -48 -197 -48q-161 0 -253 116t-57 277q34 160 174 276q142 116 302 116q88 0 177 -48q104 -56 88 -134q-9 -40 -41.5 -66.5t-71.5 -26.5q-29 0 -81 43q-53 44 -110 44q-85 0 -158 -61q-73 -59 -91 -143q-18 -83 29 -145
q49 -60 133 -60q58 0 128 43q71 44 100 44q39 0 60.5 -26.5t13.5 -65.5z" />
    <glyph glyph-name="guillemotleft" unicode="&#xab;" horiz-adv-x="1536" 
d="M1407 77q-4 -20 -15 -36.5t-26.5 -29t-34 -19.5t-37.5 -7q-26 0 -39 10l-155 121q-52 40 -126.5 101t-174.5 143q-41 35 -32 77q9 43 87 90l589 354q16 10 40 10q42 0 64 -26t13 -68q-11 -48 -70 -84l-474 -276l356 -277q46 -34 35 -83zM844 77q-7 -37 -43 -65
q-35 -27 -70 -27q-26 0 -39 10l-155 121q-52 40 -126.5 101t-174.5 143q-41 35 -32 77q9 43 87 90l589 354q16 10 39 10q42 0 64.5 -26t13.5 -68q-11 -48 -70 -84l-474 -276l356 -277q46 -34 35 -83z" />
    <glyph glyph-name="minus" unicode="&#xad;" horiz-adv-x="973" 
d="M973 683q-7 -37 -43 -66q-34 -28 -71 -28h-529q-19 0 -34.5 7.5t-25.5 20.5t-14 30t0 36q7 36 42 65t72 29h529q36 0 59 -29t15 -65z" />
    <glyph glyph-name="registered" unicode="&#xae;" horiz-adv-x="1655" 
d="M1655 683q-61 -287 -312 -493q-247 -205 -535 -205t-451 205q-163 206 -101 493t311 492q250 207 538 207q286 0 448 -207q163 -206 102 -492zM1468 683q45 209 -74 361q-118 151 -329 151t-393 -151q-183 -152 -228 -361q-44 -211 74 -361q118 -151 329 -151t393 151
q185 152 228 361zM1209 341q-3 -16 -13 -30.5t-23.5 -25.5t-30 -17.5t-32.5 -6.5q-36 0 -52 22l-173 222h-131l-35 -164q-3 -16 -12.5 -30.5t-23 -25.5t-29.5 -17.5t-32 -6.5q-33 0 -52 24t-13 56l163 765h353q121 0 192 -89q69 -88 43 -211q-39 -183 -218 -267l108 -140
q19 -23 11 -58zM1146 806q12 55 -20 96q-31 40 -88 40h-191l-58 -273h191q56 0 105 40t61 97z" />
    <glyph glyph-name="glyph188" unicode="&#xaf;" horiz-adv-x="973" 
d="M1307 1289q-7 -37 -43 -66q-34 -28 -71 -28h-939q-18 0 -33 7.5t-25 20.5t-14 30t0 36q7 36 42 65q34 28 70 28h939q18 0 33.5 -7.5t26 -20.5t14.5 -30t0 -35z" />
    <glyph glyph-name="degree" unicode="&#xb0;" horiz-adv-x="631" 
d="M740 1195q-17 -78 -84 -133t-143 -55q-79 0 -122 55q-43 54 -26 133q16 76 83 131q68 56 145 56q75 0 119 -56q44 -57 28 -131zM621 1195q6 27 -10.5 47.5t-43.5 20.5q-28 0 -52.5 -20.5t-30.5 -47.5q-6 -28 10 -48.5t44 -20.5q27 0 52 20.5t31 48.5z" />
    <glyph glyph-name="plusminus" unicode="&#xb1;" horiz-adv-x="973" 
d="M973 683q-7 -37 -43 -66q-34 -28 -71 -28h-171l-36 -171q-8 -38 -42 -66t-72 -28q-19 0 -34.5 7.5t-25.5 20.5t-14 30t0 36l36 171h-170q-19 0 -34.5 7.5t-25.5 20.5t-14 30t0 36q7 36 42 65t72 29h170l36 170q7 37 42 66q34 28 72 28q19 0 34.5 -7.5t25.5 -20.5t14 -30
t0 -36l-36 -170h171q36 0 59 -29t15 -65zM844 77q-7 -37 -43 -65q-35 -27 -70 -27h-529q-38 0 -60.5 26.5t-14.5 65.5q7 36 42 65t72 29h529q36 0 59 -29t15 -65z" />
    <glyph glyph-name="acute" unicode="&#xb4;" horiz-adv-x="596" 
d="M824 1753q-8 -29 -27 -51l-201 -226q-38 -42 -88 -42q-39 0 -59.5 28t-12.5 67q6 28 26 51l202 226q36 41 87 41q40 0 60.5 -27.5t12.5 -66.5z" />
    <glyph glyph-name="paragraph" unicode="&#xb6;" horiz-adv-x="1480" 
d="M1609 1289q-7 -37 -43 -66q-34 -28 -71 -28h-154l-274 -1287q-4 -19 -15 -36t-26.5 -30t-34.5 -20.5t-38 -7.5t-34.5 7.5t-25.5 20.5t-14 30t0 36l274 1287h-136l-274 -1287q-4 -19 -15 -36t-26.5 -30t-34.5 -20.5t-38 -7.5t-34.5 7.5t-25.5 20.5t-14 30t0 36l109 510
q-192 7 -298 148q-105 141 -63 335q42 198 213 339q172 142 370 142h649q18 0 33.5 -7.5t26 -20.5t14.5 -30t0 -35zM704 606l125 589q-119 -8 -216 -93q-98 -86 -122 -201q-25 -115 37 -202q62 -86 176 -93z" />
    <glyph glyph-name="periodcentered" unicode="&#xb7;" horiz-adv-x="444" 
d="M444 683q-7 -37 -43 -66q-34 -28 -71 -28q-19 0 -34.5 7.5t-25.5 20.5t-14 30t0 36q7 36 42 65t72 29q36 0 59 -29t15 -65z" />
    <glyph glyph-name="guillemotright" unicode="&#xbb;" horiz-adv-x="1536" 
d="M1484 437q-9 -43 -87 -91l-589 -351q-16 -10 -43 -10q-38 0 -60.5 26.5t-14.5 65.5q11 48 71 83l474 277l-356 276q-47 36 -36 84q9 42 42 68t75 26q10 0 18.5 -3t18 -9t21 -15.5t28.5 -22.5l117 -92q92 -72 163.5 -130.5t125.5 -106.5q40 -35 32 -75zM921 437
q-9 -43 -88 -91l-588 -351q-17 -10 -43 -10q-38 0 -60.5 26.5t-14.5 65.5q11 48 71 83l474 277l-356 276q-47 36 -36 84q9 42 42 68t75 26q10 0 18.5 -3t18 -9t21 -15.5t28.5 -22.5l116 -92q94 -72 165 -130.5t125 -106.5q40 -35 32 -75z" />
    <glyph glyph-name="questiondown" unicode="&#xbf;" horiz-adv-x="1009" 
d="M1055 1118q-8 -38 -42 -66t-71 -28q-19 0 -34.5 7.5t-25.5 20.5t-14 30t0 36q7 36 41 65q37 29 73 29q19 0 33.5 -8t24.5 -21t14 -30t1 -35zM876 56q-4 -18 -21 -44q-62 -86 -174 -142q-114 -56 -214 -56q-163 0 -255 116q-91 115 -56 280t175 280q142 116 305 116
q87 0 122 54q19 30 41 134q7 36 42 65q34 28 72 28q18 0 33 -7.5t25.5 -20.5t14.5 -30t0 -35l-8 -35q-39 -186 -114 -259q-85 -82 -268 -82q-84 0 -160 -62q-74 -62 -92 -146q-20 -86 29 -148q50 -62 134 -62q92 0 173 75q82 75 123 75q19 0 34.5 -7.5t25.5 -20.5t13.5 -30
t-0.5 -36z" />
    <glyph glyph-name="Agrave" unicode="&#xc0;" horiz-adv-x="1208" 
d="M1190 77q-4 -20 -14.5 -36.5t-25.5 -29t-33.5 -19.5t-37.5 -7q-65 0 -77 56l-56 283h-580l-176 -283q-36 -56 -101 -56q-37 0 -59 26.5t-14 65.5q4 21 15 36l746 1201q44 68 104 68q62 0 74 -68l236 -1201q4 -13 -1 -36zM909 512l-101 526l-325 -526h426zM1081 1529
q-4 -20 -15 -37t-26 -30t-33.5 -20.5t-38.5 -7.5q-50 0 -69 42l-106 226q-11 24 -4 51q4 19 15 36.5t26 30t33 20t38 7.5q50 0 70 -41l105 -226q11 -23 5 -51z" />
    <glyph glyph-name="Aacute" unicode="&#xc1;" horiz-adv-x="1208" 
d="M1190 77q-4 -20 -14.5 -36.5t-25.5 -29t-33.5 -19.5t-37.5 -7q-65 0 -77 56l-56 283h-580l-176 -283q-36 -56 -101 -56q-37 0 -59 26.5t-14 65.5q4 21 15 36l746 1201q44 68 104 68q62 0 74 -68l236 -1201q4 -13 -1 -36zM909 512l-101 526l-325 -526h426zM1129 1753
q-8 -29 -27 -51l-201 -226q-38 -42 -88 -42q-39 0 -59.5 28t-12.5 67q6 28 26 51l202 226q36 41 87 41q40 0 60.5 -27.5t12.5 -66.5z" />
    <glyph glyph-name="Acircumflex" unicode="&#xc2;" horiz-adv-x="1208" 
d="M1190 77q-4 -20 -14.5 -36.5t-25.5 -29t-33.5 -19.5t-37.5 -7q-65 0 -77 56l-56 283h-580l-176 -283q-36 -56 -101 -56q-37 0 -59 26.5t-14 65.5q4 21 15 36l746 1201q44 68 104 68q62 0 74 -68l236 -1201q4 -13 -1 -36zM909 512l-101 526l-325 -526h426zM1199 1545
q-4 -20 -15 -37t-26.5 -30t-34.5 -20t-38 -7q-46 0 -72 53l-74 151l-138 -151q-50 -53 -95 -53q-39 0 -60.5 27t-13.5 67q6 27 19 40q2 2 24 26t65 72q37 40 78.5 85t89.5 96q45 47 85 47q42 0 77 -68l127 -258q8 -14 2 -40z" />
    <glyph glyph-name="Atilde" unicode="&#xc3;" horiz-adv-x="1208" 
d="M1190 77q-4 -20 -14.5 -36.5t-25.5 -29t-33.5 -19.5t-37.5 -7q-65 0 -77 56l-56 283h-580l-176 -283q-36 -56 -101 -56q-37 0 -59 26.5t-14 65.5q4 21 15 36l746 1201q44 68 104 68q62 0 74 -68l236 -1201q4 -13 -1 -36zM909 512l-101 526l-325 -526h426zM1248 1587
q-9 -46 -107 -100q-98 -53 -146 -53t-98 59q-47 60 -82 60q-36 0 -108 -45q-74 -44 -97 -44q-35 0 -25 52l15 71q10 46 111 103q93 51 144 51q48 0 95 -60q49 -60 85 -60q34 0 108 44q73 45 97 45q34 0 24 -51z" />
    <glyph glyph-name="Adieresis" unicode="&#xc4;" horiz-adv-x="1208" 
d="M1190 77q-4 -20 -14.5 -36.5t-25.5 -29t-33.5 -19.5t-37.5 -7q-65 0 -77 56l-56 283h-580l-176 -283q-36 -56 -101 -56q-37 0 -59 26.5t-14 65.5q4 21 15 36l746 1201q44 68 104 68q62 0 74 -68l236 -1201q4 -13 -1 -36zM909 512l-101 526l-325 -526h426zM1160 1527
q-7 -36 -42 -65q-34 -28 -72 -28q-19 0 -34.5 7.5t-25.5 20.5t-14 30t0 35q4 19 15 36t26.5 30t34 20.5t38.5 7.5q19 0 34.5 -7.5t25.5 -20.5t14 -30t0 -36zM853 1527q-4 -18 -15.5 -35t-27.5 -30t-34.5 -20.5t-36.5 -7.5q-19 0 -34.5 7.5t-25.5 20.5t-14 30t0 35
q4 19 15 36t26.5 30t34 20.5t38.5 7.5q37 0 59 -28q22 -29 15 -66z" />
    <glyph glyph-name="Aring" unicode="&#xc5;" horiz-adv-x="1208" 
d="M1190 77q-4 -20 -14.5 -36.5t-25.5 -29t-33.5 -19.5t-37.5 -7q-65 0 -77 56l-56 283h-580l-176 -283q-36 -56 -101 -56q-37 0 -59 26.5t-14 65.5q4 21 15 36l746 1201q44 68 104 68q62 0 74 -68l236 -1201q4 -13 -1 -36zM909 512l-101 526l-325 -526h426zM1119 1621
q-16 -76 -85 -132q-65 -55 -142 -55q-79 0 -122 55q-43 54 -26 132q17 77 83 132q68 56 145 56q75 0 119 -56q44 -57 28 -132zM1000 1621q6 28 -10.5 48.5t-43.5 20.5q-28 0 -52.5 -20.5t-30.5 -48.5q-6 -27 10 -47.5t44 -20.5q27 0 52 20.5t31 47.5z" />
    <glyph glyph-name="AE" unicode="&#xc6;" horiz-adv-x="1893" 
d="M1806 77q-4 -20 -15 -36.5t-26.5 -29t-34 -19.5t-37.5 -7h-614q-65 0 -77 56l-56 283h-580l-176 -283q-36 -56 -101 -56q-37 0 -59 26.5t-14 65.5q4 21 15 36l746 1201q44 68 104 68q62 0 74 -68l150 -763l157 738q7 36 42 65q34 28 72 28h614q19 0 34.5 -7.5t25.5 -20.5
t14 -30t0 -35q-4 -19 -15.5 -36t-27 -30t-34 -20.5t-37.5 -7.5h-520l-89 -418h350q36 0 59 -29t15 -65q-7 -37 -43 -66q-34 -28 -71 -28h-350l-89 -418h520q37 0 60 -29q22 -27 14 -65zM909 512l-101 526l-325 -526h426z" />
    <glyph glyph-name="Egrave" unicode="&#xc8;" horiz-adv-x="1143" 
d="M1057 77q-4 -20 -15 -36.5t-26.5 -29t-34 -19.5t-37.5 -7h-785q-19 0 -34.5 7t-26 19.5t-14.5 29.5t0 36l258 1212q4 18 15.5 35t27.5 30t34.5 20.5t36.5 7.5h785q19 0 34.5 -7.5t25.5 -20.5t14 -30t0 -35q-4 -19 -15.5 -36t-27 -30t-34 -20.5t-37.5 -7.5h-691l-89 -418
h521q18 0 33.5 -8t25.5 -21t14 -30t0 -35q-8 -38 -42 -66t-71 -28h-521l-89 -418h691q37 0 60 -29q22 -27 14 -65zM1049 1529q-4 -20 -15 -37t-26 -30t-33.5 -20.5t-38.5 -7.5q-50 0 -69 42l-106 226q-11 24 -4 51q4 19 15 36.5t26 30t33 20t38 7.5q50 0 70 -41l105 -226
q11 -23 5 -51z" />
    <glyph glyph-name="Eacute" unicode="&#xc9;" horiz-adv-x="1143" 
d="M1057 77q-4 -20 -15 -36.5t-26.5 -29t-34 -19.5t-37.5 -7h-785q-19 0 -34.5 7t-26 19.5t-14.5 29.5t0 36l258 1212q4 18 15.5 35t27.5 30t34.5 20.5t36.5 7.5h785q19 0 34.5 -7.5t25.5 -20.5t14 -30t0 -35q-4 -19 -15.5 -36t-27 -30t-34 -20.5t-37.5 -7.5h-691l-89 -418
h521q18 0 33.5 -8t25.5 -21t14 -30t0 -35q-8 -38 -42 -66t-71 -28h-521l-89 -418h691q37 0 60 -29q22 -27 14 -65zM1097 1753q-8 -29 -27 -51l-201 -226q-38 -42 -88 -42q-39 0 -59.5 28t-12.5 67q6 28 26 51l202 226q36 41 87 41q40 0 60.5 -27.5t12.5 -66.5z" />
    <glyph glyph-name="Ecircumflex" unicode="&#xca;" horiz-adv-x="1143" 
d="M1057 77q-4 -20 -15 -36.5t-26.5 -29t-34 -19.5t-37.5 -7h-785q-19 0 -34.5 7t-26 19.5t-14.5 29.5t0 36l258 1212q4 18 15.5 35t27.5 30t34.5 20.5t36.5 7.5h785q19 0 34.5 -7.5t25.5 -20.5t14 -30t0 -35q-4 -19 -15.5 -36t-27 -30t-34 -20.5t-37.5 -7.5h-691l-89 -418
h521q18 0 33.5 -8t25.5 -21t14 -30t0 -35q-8 -38 -42 -66t-71 -28h-521l-89 -418h691q37 0 60 -29q22 -27 14 -65zM1166 1545q-4 -20 -15 -37t-26.5 -30t-34.5 -20t-38 -7q-46 0 -72 53l-74 151l-138 -151q-50 -53 -95 -53q-39 0 -60.5 27t-13.5 67q6 27 19 40q2 2 24 26
t65 72q37 40 78.5 85t89.5 96q45 47 85 47q42 0 77 -68l127 -258q8 -14 2 -40z" />
    <glyph glyph-name="Edieresis" unicode="&#xcb;" horiz-adv-x="1143" 
d="M1057 77q-4 -20 -15 -36.5t-26.5 -29t-34 -19.5t-37.5 -7h-785q-19 0 -34.5 7t-26 19.5t-14.5 29.5t0 36l258 1212q4 18 15.5 35t27.5 30t34.5 20.5t36.5 7.5h785q19 0 34.5 -7.5t25.5 -20.5t14 -30t0 -35q-4 -19 -15.5 -36t-27 -30t-34 -20.5t-37.5 -7.5h-691l-89 -418
h521q18 0 33.5 -8t25.5 -21t14 -30t0 -35q-8 -38 -42 -66t-71 -28h-521l-89 -418h691q37 0 60 -29q22 -27 14 -65zM1127 1527q-7 -36 -42 -65q-34 -28 -72 -28q-19 0 -34.5 7.5t-25.5 20.5t-14 30t0 35q4 19 15 36t26.5 30t34 20.5t38.5 7.5q19 0 34.5 -7.5t25.5 -20.5
t14 -30t0 -36zM820 1527q-4 -18 -15.5 -35t-27.5 -30t-34.5 -20.5t-36.5 -7.5q-19 0 -34.5 7.5t-25.5 20.5t-14 30t0 35q4 19 15 36t26.5 30t34 20.5t38.5 7.5q37 0 59 -28q22 -29 15 -66z" />
    <glyph glyph-name="Igrave" unicode="&#xcc;" horiz-adv-x="358" 
d="M272 77q-4 -20 -15 -36.5t-26.5 -29t-34 -19.5t-37.5 -7t-34.5 7t-26 19.5t-14.5 29.5t0 36l258 1212q4 18 15.5 35t27.5 30t34.5 20.5t36.5 7.5q19 0 34.5 -7.5t25.5 -20.5t14 -30t0 -35zM658 1529q-4 -20 -15 -37t-26 -30t-33.5 -20.5t-38.5 -7.5q-50 0 -69 42
l-106 226q-11 24 -4 51q4 19 15 36.5t26 30t33 20t38 7.5q50 0 70 -41l105 -226q11 -23 5 -51z" />
    <glyph glyph-name="Iacute" unicode="&#xcd;" horiz-adv-x="358" 
d="M272 77q-4 -20 -15 -36.5t-26.5 -29t-34 -19.5t-37.5 -7t-34.5 7t-26 19.5t-14.5 29.5t0 36l258 1212q4 18 15.5 35t27.5 30t34.5 20.5t36.5 7.5q19 0 34.5 -7.5t25.5 -20.5t14 -30t0 -35zM706 1753q-8 -29 -27 -51l-201 -226q-38 -42 -88 -42q-39 0 -59.5 28t-12.5 67
q6 28 26 51l202 226q36 41 87 41q40 0 60.5 -27.5t12.5 -66.5z" />
    <glyph glyph-name="Icircumflex" unicode="&#xce;" horiz-adv-x="358" 
d="M272 77q-4 -20 -15 -36.5t-26.5 -29t-34 -19.5t-37.5 -7t-34.5 7t-26 19.5t-14.5 29.5t0 36l258 1212q4 18 15.5 35t27.5 30t34.5 20.5t36.5 7.5q19 0 34.5 -7.5t25.5 -20.5t14 -30t0 -35zM775 1545q-4 -20 -15 -37t-26.5 -30t-34.5 -20t-38 -7q-46 0 -72 53l-74 151
l-138 -151q-50 -53 -95 -53q-39 0 -60.5 27t-13.5 67q6 27 19 40q2 2 24 26t65 72q37 40 78.5 85t89.5 96q45 47 85 47q42 0 77 -68l127 -258q8 -14 2 -40z" />
    <glyph glyph-name="Idieresis" unicode="&#xcf;" horiz-adv-x="358" 
d="M272 77q-4 -20 -15 -36.5t-26.5 -29t-34 -19.5t-37.5 -7t-34.5 7t-26 19.5t-14.5 29.5t0 36l258 1212q4 18 15.5 35t27.5 30t34.5 20.5t36.5 7.5q19 0 34.5 -7.5t25.5 -20.5t14 -30t0 -35zM736 1527q-7 -36 -42 -65q-34 -28 -72 -28q-19 0 -34.5 7.5t-25.5 20.5t-14 30
t0 35q4 19 15 36t26.5 30t34 20.5t38.5 7.5q19 0 34.5 -7.5t25.5 -20.5t14 -30t0 -36zM429 1527q-4 -18 -15.5 -35t-27.5 -30t-34.5 -20.5t-36.5 -7.5q-19 0 -34.5 7.5t-25.5 20.5t-14 30t0 35q4 19 15 36t26.5 30t34 20.5t38.5 7.5q37 0 59 -28q22 -29 15 -66z" />
    <glyph glyph-name="Ntilde" unicode="&#xd1;" 
d="M1313 77q-4 -20 -15 -36.5t-26.5 -29t-34 -19.5t-37.5 -7q-42 0 -70 39l-655 1005l-203 -952q-4 -20 -15 -36.5t-26.5 -29t-34 -19.5t-37.5 -7t-34.5 7t-26 19.5t-14.5 29.5t0 36l258 1212q4 18 15.5 35t27.5 30t34.5 20.5t36.5 7.5q45 0 62 -27l662 -1019l203 953
q4 18 15.5 35t27.5 30t34.5 20.5t36.5 7.5q19 0 34.5 -7.5t25.5 -20.5t14 -30t0 -35zM1343 1587q-9 -46 -107 -100q-98 -53 -146 -53t-98 59q-47 60 -82 60q-36 0 -108 -45q-74 -44 -97 -44q-35 0 -25 52l15 71q10 46 111 103q93 51 144 51q48 0 95 -60q49 -60 85 -60
q34 0 108 44q73 45 97 45q34 0 24 -51z" />
    <glyph glyph-name="Ograve" unicode="&#xd2;" horiz-adv-x="1485" 
d="M1570 683q-61 -287 -312 -493q-247 -205 -536 -205q-287 0 -450 205q-163 206 -101 493t311 492q250 207 537 207t449 -207q163 -206 102 -492zM1382 683q45 209 -74 361q-118 151 -329 151t-393 -151q-183 -152 -228 -361q-44 -211 74 -361q118 -151 329 -151t393 151
q185 152 228 361zM1220 1529q-4 -20 -15 -37t-26 -30t-33.5 -20.5t-38.5 -7.5q-50 0 -69 42l-106 226q-11 24 -4 51q4 19 15 36.5t26 30t33 20t38 7.5q50 0 70 -41l105 -226q11 -23 5 -51z" />
    <glyph glyph-name="Oacute" unicode="&#xd3;" horiz-adv-x="1485" 
d="M1570 683q-61 -287 -312 -493q-247 -205 -536 -205q-287 0 -450 205q-163 206 -101 493t311 492q250 207 537 207t449 -207q163 -206 102 -492zM1382 683q45 209 -74 361q-118 151 -329 151t-393 -151q-183 -152 -228 -361q-44 -211 74 -361q118 -151 329 -151t393 151
q185 152 228 361zM1268 1753q-8 -29 -27 -51l-201 -226q-38 -42 -88 -42q-39 0 -59.5 28t-12.5 67q6 28 26 51l202 226q36 41 87 41q40 0 60.5 -27.5t12.5 -66.5z" />
    <glyph glyph-name="Ocircumflex" unicode="&#xd4;" horiz-adv-x="1485" 
d="M1570 683q-61 -287 -312 -493q-247 -205 -536 -205q-287 0 -450 205q-163 206 -101 493t311 492q250 207 537 207t449 -207q163 -206 102 -492zM1382 683q45 209 -74 361q-118 151 -329 151t-393 -151q-183 -152 -228 -361q-44 -211 74 -361q118 -151 329 -151t393 151
q185 152 228 361zM1337 1545q-4 -20 -15 -37t-26.5 -30t-34.5 -20t-38 -7q-46 0 -72 53l-74 151l-138 -151q-50 -53 -95 -53q-39 0 -60.5 27t-13.5 67q6 27 19 40q2 2 24 26t65 72q37 40 78.5 85t89.5 96q45 47 85 47q42 0 77 -68l127 -258q8 -14 2 -40z" />
    <glyph glyph-name="Otilde" unicode="&#xd5;" horiz-adv-x="1485" 
d="M1570 683q-61 -287 -312 -493q-247 -205 -536 -205q-287 0 -450 205q-163 206 -101 493t311 492q250 207 537 207t449 -207q163 -206 102 -492zM1382 683q45 209 -74 361q-118 151 -329 151t-393 -151q-183 -152 -228 -361q-44 -211 74 -361q118 -151 329 -151t393 151
q185 152 228 361zM1386 1587q-9 -46 -107 -100q-98 -53 -146 -53t-98 59q-47 60 -82 60q-36 0 -108 -45q-74 -44 -97 -44q-35 0 -25 52l15 71q10 46 111 103q93 51 144 51q48 0 95 -60q49 -60 85 -60q34 0 108 44q73 45 97 45q34 0 24 -51z" />
    <glyph glyph-name="Odieresis" unicode="&#xd6;" horiz-adv-x="1485" 
d="M1570 683q-61 -287 -312 -493q-247 -205 -536 -205q-287 0 -450 205q-163 206 -101 493t311 492q250 207 537 207t449 -207q163 -206 102 -492zM1382 683q45 209 -74 361q-118 151 -329 151t-393 -151q-183 -152 -228 -361q-44 -211 74 -361q118 -151 329 -151t393 151
q185 152 228 361zM1298 1527q-7 -36 -42 -65q-34 -28 -72 -28q-19 0 -34.5 7.5t-25.5 20.5t-14 30t0 35q4 19 15 36t26.5 30t34 20.5t38.5 7.5q19 0 34.5 -7.5t25.5 -20.5t14 -30t0 -36zM991 1527q-4 -18 -15.5 -35t-27.5 -30t-34.5 -20.5t-36.5 -7.5q-19 0 -34.5 7.5
t-25.5 20.5t-14 30t0 35q4 19 15 36t26.5 30t34 20.5t38.5 7.5q37 0 59 -28q22 -29 15 -66z" />
    <glyph glyph-name="multiply" unicode="&#xd7;" horiz-adv-x="867" 
d="M912 893q-8 -38 -41 -65l-176 -145l114 -145q19 -25 12 -65q-5 -20 -16 -37.5t-26.5 -30.5t-34 -20.5t-38.5 -7.5q-37 0 -59 27l-114 146l-176 -146q-33 -27 -70 -27q-40 0 -61 28t-12 68q7 39 38 65l176 145l-114 145q-21 27 -13 65q4 19 15 36t27 29.5t35 20t39 7.5
q39 0 58 -25l114 -145l176 145q31 25 71 25t62 -27.5t14 -65.5z" />
    <glyph glyph-name="Oslash" unicode="&#xd8;" horiz-adv-x="1485" 
d="M1742 1289q-9 -41 -42 -67l-174 -135q92 -182 44 -404q-61 -287 -312 -493q-247 -205 -536 -205q-249 0 -409 157l-168 -132q-32 -25 -71 -25t-60 26.5t-13 65.5q9 40 39 66l174 135q-90 182 -43 405q62 287 311 492q250 207 537 207q247 0 408 -158l168 131q34 27 73 27
t60.5 -27t13.5 -66zM1262 1094q-116 101 -283 101q-211 0 -393 -151q-183 -152 -228 -361q-31 -148 23 -275zM1382 683q31 145 -22 274l-880 -686q113 -100 281 -100q211 0 393 151q185 152 228 361z" />
    <glyph glyph-name="Ugrave" unicode="&#xd9;" 
d="M1424 597q-54 -252 -273 -432q-221 -180 -471 -180q-254 0 -396 180q-143 180 -89 432l147 692q4 18 15.5 35t27.5 30t34.5 20.5t36.5 7.5q19 0 34.5 -7.5t25.5 -20.5t14 -30t0 -35l-147 -692q-37 -173 61 -301q101 -125 275 -125q175 0 327 125q153 126 190 301l147 692
q4 18 15.5 35t27.5 30t34.5 20.5t36.5 7.5q19 0 34.5 -7.5t25.5 -20.5t14 -30t0 -35zM1177 1529q-4 -20 -15 -37t-26 -30t-33.5 -20.5t-38.5 -7.5q-50 0 -69 42l-106 226q-11 24 -4 51q4 19 15 36.5t26 30t33 20t38 7.5q50 0 70 -41l105 -226q11 -23 5 -51z" />
    <glyph glyph-name="Uacute" unicode="&#xda;" 
d="M1424 597q-54 -252 -273 -432q-221 -180 -471 -180q-254 0 -396 180q-143 180 -89 432l147 692q4 18 15.5 35t27.5 30t34.5 20.5t36.5 7.5q19 0 34.5 -7.5t25.5 -20.5t14 -30t0 -35l-147 -692q-37 -173 61 -301q101 -125 275 -125q175 0 327 125q153 126 190 301l147 692
q4 18 15.5 35t27.5 30t34.5 20.5t36.5 7.5q19 0 34.5 -7.5t25.5 -20.5t14 -30t0 -35zM1225 1753q-8 -29 -27 -51l-201 -226q-38 -42 -88 -42q-39 0 -59.5 28t-12.5 67q6 28 26 51l202 226q36 41 87 41q40 0 60.5 -27.5t12.5 -66.5z" />
    <glyph glyph-name="Ucircumflex" unicode="&#xdb;" 
d="M1424 597q-54 -252 -273 -432q-221 -180 -471 -180q-254 0 -396 180q-143 180 -89 432l147 692q4 18 15.5 35t27.5 30t34.5 20.5t36.5 7.5q19 0 34.5 -7.5t25.5 -20.5t14 -30t0 -35l-147 -692q-37 -173 61 -301q101 -125 275 -125q175 0 327 125q153 126 190 301l147 692
q4 18 15.5 35t27.5 30t34.5 20.5t36.5 7.5q19 0 34.5 -7.5t25.5 -20.5t14 -30t0 -35zM1294 1545q-4 -20 -15 -37t-26.5 -30t-34.5 -20t-38 -7q-46 0 -72 53l-74 151l-138 -151q-50 -53 -95 -53q-39 0 -60.5 27t-13.5 67q6 27 19 40q2 2 24 26t65 72q37 40 78.5 85t89.5 96
q45 47 85 47q42 0 77 -68l127 -258q8 -14 2 -40z" />
    <glyph glyph-name="Udieresis" unicode="&#xdc;" 
d="M1424 597q-54 -252 -273 -432q-221 -180 -471 -180q-254 0 -396 180q-143 180 -89 432l147 692q4 18 15.5 35t27.5 30t34.5 20.5t36.5 7.5q19 0 34.5 -7.5t25.5 -20.5t14 -30t0 -35l-147 -692q-37 -173 61 -301q101 -125 275 -125q175 0 327 125q153 126 190 301l147 692
q4 18 15.5 35t27.5 30t34.5 20.5t36.5 7.5q19 0 34.5 -7.5t25.5 -20.5t14 -30t0 -35zM1255 1527q-7 -36 -42 -65q-34 -28 -72 -28q-19 0 -34.5 7.5t-25.5 20.5t-14 30t0 35q4 19 15 36t26.5 30t34 20.5t38.5 7.5q19 0 34.5 -7.5t25.5 -20.5t14 -30t0 -36zM948 1527
q-4 -18 -15.5 -35t-27.5 -30t-34.5 -20.5t-36.5 -7.5q-19 0 -34.5 7.5t-25.5 20.5t-14 30t0 35q4 19 15 36t26.5 30t34 20.5t38.5 7.5q37 0 59 -28q22 -29 15 -66z" />
    <glyph glyph-name="Yacute" unicode="&#xdd;" horiz-adv-x="1241" 
d="M1481 1289q-8 -35 -36 -60l-611 -580l-122 -572q-4 -20 -15 -36.5t-26.5 -29t-34 -19.5t-37.5 -7q-37 0 -59.5 26.5t-14.5 65.5l122 573l-365 581q-16 23 -8 58q4 18 15 35t26.5 30t34 20.5t36.5 7.5q46 0 67 -34l325 -520l550 520q34 34 79 34q18 0 33.5 -7.5t26 -20.5
t14.5 -30t0 -35zM1145 1753q-8 -29 -27 -51l-201 -226q-38 -42 -88 -42q-39 0 -59.5 28t-12.5 67q6 28 26 51l202 226q36 41 87 41q40 0 60.5 -27.5t12.5 -66.5z" />
    <glyph glyph-name="Thorn" unicode="&#xde;" horiz-adv-x="1186" 
d="M1271 683q-42 -199 -215 -342q-170 -141 -368 -141h-389l-27 -123q-4 -20 -15 -36.5t-26.5 -29t-34 -19.5t-37.5 -7t-34.5 7t-26 19.5t-14.5 29.5t0 36l258 1212q4 18 15.5 35t27.5 30t34.5 20.5t36.5 7.5q19 0 34.5 -7.5t25.5 -20.5t14 -30t0 -35l-27 -125h389
q198 0 309 -142q112 -141 70 -339zM1084 683q25 118 -44 206q-68 87 -188 87h-389l-125 -589h389q121 0 226 87t131 209z" />
    <glyph glyph-name="germandbls" unicode="&#xdf;" horiz-adv-x="922" 
d="M943 381q-35 -165 -176 -281q-139 -115 -304 -115q-38 0 -60.5 26.5t-14.5 65.5q17 77 97 92l1 3q89 0 169 60q80 59 100 149q18 84 -31 145q-50 63 -133 63q-19 0 -34.5 7.5t-25.5 20.5t-14 30t0 36q7 36 42 65t72 29q83 0 159 62q76 61 93 146q18 82 -31 146
q-46 64 -130 64q-86 0 -162 -63q-77 -62 -95 -147l-265 -1248q-7 -36 -42 -65t-72 -29t-60 29q-22 27 -14 65l265 1248q35 165 176 281q142 116 307 116q163 0 255 -116q91 -115 56 -281q-39 -184 -204 -302q115 -120 76 -302z" />
    <glyph glyph-name="agrave" unicode="&#xe0;" horiz-adv-x="1357" 
d="M1270 77q-4 -20 -15 -36.5t-26.5 -29t-34 -19.5t-36.5 -7q-38 0 -60.5 26.5t-14.5 65.5l21 97q-212 -189 -467 -189q-254 0 -396 180t-88 432q53 252 272 434q220 181 473 181q255 0 386 -191l21 97q7 36 41 65q37 29 73 29q19 0 33.5 -8t24.5 -21t14 -30t1 -35z
M1194 597q38 176 -62 301q-98 126 -274 126t-329 -126q-151 -124 -189 -301q-37 -173 61 -301q101 -125 275 -125q176 0 328 125q153 126 190 301zM1119 1359q-4 -20 -15 -37t-26 -30t-33.5 -20.5t-38.5 -7.5q-50 0 -69 42l-106 226q-11 24 -4 51q4 19 15 36.5t26 30t33 20
t38 7.5q50 0 70 -41l105 -226q11 -23 5 -51z" />
    <glyph glyph-name="aacute" unicode="&#xe1;" horiz-adv-x="1357" 
d="M1270 77q-4 -20 -15 -36.5t-26.5 -29t-34 -19.5t-36.5 -7q-38 0 -60.5 26.5t-14.5 65.5l21 97q-212 -189 -467 -189q-254 0 -396 180t-88 432q53 252 272 434q220 181 473 181q255 0 386 -191l21 97q7 36 41 65q37 29 73 29q19 0 33.5 -8t24.5 -21t14 -30t1 -35z
M1194 597q38 176 -62 301q-98 126 -274 126t-329 -126q-151 -124 -189 -301q-37 -173 61 -301q101 -125 275 -125q176 0 328 125q153 126 190 301zM1167 1583q-8 -29 -27 -51l-201 -226q-38 -42 -88 -42q-39 0 -59.5 28t-12.5 67q6 28 26 51l202 226q36 41 87 41
q40 0 60.5 -27.5t12.5 -66.5z" />
    <glyph glyph-name="acircumflex" unicode="&#xe2;" horiz-adv-x="1357" 
d="M1270 77q-4 -20 -15 -36.5t-26.5 -29t-34 -19.5t-36.5 -7q-38 0 -60.5 26.5t-14.5 65.5l21 97q-212 -189 -467 -189q-254 0 -396 180t-88 432q53 252 272 434q220 181 473 181q255 0 386 -191l21 97q7 36 41 65q37 29 73 29q19 0 33.5 -8t24.5 -21t14 -30t1 -35z
M1194 597q38 176 -62 301q-98 126 -274 126t-329 -126q-151 -124 -189 -301q-37 -173 61 -301q101 -125 275 -125q176 0 328 125q153 126 190 301zM1236 1375q-4 -20 -15 -37t-26.5 -30t-34.5 -20t-38 -7q-46 0 -72 53l-74 151l-138 -151q-50 -53 -95 -53q-39 0 -60.5 27
t-13.5 67q6 27 19 40q2 2 24 26t65 72q37 40 78.5 85t89.5 96q45 47 85 47q42 0 77 -68l127 -258q8 -14 2 -40z" />
    <glyph glyph-name="atilde" unicode="&#xe3;" horiz-adv-x="1357" 
d="M1270 77q-4 -20 -15 -36.5t-26.5 -29t-34 -19.5t-36.5 -7q-38 0 -60.5 26.5t-14.5 65.5l21 97q-212 -189 -467 -189q-254 0 -396 180t-88 432q53 252 272 434q220 181 473 181q255 0 386 -191l21 97q7 36 41 65q37 29 73 29q19 0 33.5 -8t24.5 -21t14 -30t1 -35z
M1194 597q38 176 -62 301q-98 126 -274 126t-329 -126q-151 -124 -189 -301q-37 -173 61 -301q101 -125 275 -125q176 0 328 125q153 126 190 301zM1285 1417q-9 -46 -107 -100q-98 -53 -146 -53t-98 59q-47 60 -82 60q-36 0 -108 -45q-74 -44 -97 -44q-35 0 -25 52l15 71
q10 46 111 103q93 51 144 51q48 0 95 -60q49 -60 85 -60q34 0 108 44q73 45 97 45q34 0 24 -51z" />
    <glyph glyph-name="adieresis" unicode="&#xe4;" horiz-adv-x="1357" 
d="M1270 77q-4 -20 -15 -36.5t-26.5 -29t-34 -19.5t-36.5 -7q-38 0 -60.5 26.5t-14.5 65.5l21 97q-212 -189 -467 -189q-254 0 -396 180t-88 432q53 252 272 434q220 181 473 181q255 0 386 -191l21 97q7 36 41 65q37 29 73 29q19 0 33.5 -8t24.5 -21t14 -30t1 -35z
M1194 597q38 176 -62 301q-98 126 -274 126t-329 -126q-151 -124 -189 -301q-37 -173 61 -301q101 -125 275 -125q176 0 328 125q153 126 190 301zM1197 1357q-7 -36 -42 -65q-34 -28 -72 -28q-19 0 -34.5 7.5t-25.5 20.5t-14 30t0 35q4 19 15 36t26.5 30t34 20.5t38.5 7.5
q19 0 34.5 -7.5t25.5 -20.5t14 -30t0 -36zM890 1357q-4 -18 -15.5 -35t-27.5 -30t-34.5 -20.5t-36.5 -7.5q-19 0 -34.5 7.5t-25.5 20.5t-14 30t0 35q4 19 15 36t26.5 30t34 20.5t38.5 7.5q37 0 59 -28q22 -29 15 -66z" />
    <glyph glyph-name="aring" unicode="&#xe5;" horiz-adv-x="1357" 
d="M1270 77q-4 -20 -15 -36.5t-26.5 -29t-34 -19.5t-36.5 -7q-38 0 -60.5 26.5t-14.5 65.5l21 97q-212 -189 -467 -189q-254 0 -396 180t-88 432q53 252 272 434q220 181 473 181q255 0 386 -191l21 97q7 36 41 65q37 29 73 29q19 0 33.5 -8t24.5 -21t14 -30t1 -35z
M1194 597q38 176 -62 301q-98 126 -274 126t-329 -126q-151 -124 -189 -301q-37 -173 61 -301q101 -125 275 -125q176 0 328 125q153 126 190 301zM1157 1451q-16 -76 -85 -132q-65 -55 -142 -55q-79 0 -122 55q-43 54 -26 132q17 77 83 132q68 56 145 56q75 0 119 -56
q44 -57 28 -132zM1038 1451q6 28 -10.5 48.5t-43.5 20.5q-28 0 -52.5 -20.5t-30.5 -48.5q-6 -27 10 -47.5t44 -20.5q27 0 52 20.5t31 47.5z" />
    <glyph glyph-name="ae" unicode="&#xe6;" horiz-adv-x="2246" 
d="M2349 966q-7 -38 -42 -67l-803 -662q91 -66 213 -66q153 0 272 83q15 11 31 22.5t33 23.5q33 24 66 24q18 0 33 -8t25 -21t14 -30.5t0 -35.5q-14 -60 -120 -123q-206 -121 -393 -121q-249 0 -391 172l-17 -80q-4 -20 -15 -36.5t-26.5 -29t-34 -19.5t-36.5 -7
q-38 0 -60.5 26.5t-14.5 65.5l21 97q-212 -189 -467 -189q-254 0 -396 180t-88 432q53 252 272 434q220 181 473 181q255 0 386 -191l21 97q7 36 41 65q37 29 73 29q19 0 33.5 -8t24.5 -21t14 -30t1 -35l-17 -80q217 174 464 174q182 0 340 -123q83 -64 70 -123zM2122 951
q-85 73 -220 73q-175 0 -328 -126q-151 -124 -189 -301q-30 -140 21 -237zM1194 597q38 176 -62 301q-98 126 -274 126t-329 -126q-151 -124 -189 -301q-37 -173 61 -301q101 -125 275 -125q176 0 328 125q153 126 190 301z" />
    <glyph glyph-name="egrave" unicode="&#xe8;" horiz-adv-x="1205" 
d="M1308 966q-7 -38 -42 -67l-803 -662q91 -66 213 -66q153 0 272 83q15 11 31 22.5t33 23.5q33 24 66 24q18 0 33 -8t25 -21t14 -30.5t0 -35.5q-14 -59 -120 -123q-203 -121 -393 -121q-254 0 -396 180t-88 432q53 252 272 434q220 181 473 181q182 0 340 -123
q83 -64 70 -123zM1081 951q-85 73 -223 73q-176 0 -329 -126q-151 -124 -189 -301q-29 -137 25 -237zM1044 1359q-4 -20 -15 -37t-26 -30t-33.5 -20.5t-38.5 -7.5q-50 0 -69 42l-106 226q-11 24 -4 51q4 19 15 36.5t26 30t33 20t38 7.5q50 0 70 -41l105 -226q11 -23 5 -51z
" />
    <glyph glyph-name="eacute" unicode="&#xe9;" horiz-adv-x="1205" 
d="M1308 966q-7 -38 -42 -67l-803 -662q91 -66 213 -66q153 0 272 83q15 11 31 22.5t33 23.5q33 24 66 24q18 0 33 -8t25 -21t14 -30.5t0 -35.5q-14 -59 -120 -123q-203 -121 -393 -121q-254 0 -396 180t-88 432q53 252 272 434q220 181 473 181q182 0 340 -123
q83 -64 70 -123zM1081 951q-85 73 -223 73q-176 0 -329 -126q-151 -124 -189 -301q-29 -137 25 -237zM1092 1583q-8 -29 -27 -51l-201 -226q-38 -42 -88 -42q-39 0 -59.5 28t-12.5 67q6 28 26 51l202 226q36 41 87 41q40 0 60.5 -27.5t12.5 -66.5z" />
    <glyph glyph-name="ecircumflex" unicode="&#xea;" horiz-adv-x="1205" 
d="M1308 966q-7 -38 -42 -67l-803 -662q91 -66 213 -66q153 0 272 83q15 11 31 22.5t33 23.5q33 24 66 24q18 0 33 -8t25 -21t14 -30.5t0 -35.5q-14 -59 -120 -123q-203 -121 -393 -121q-254 0 -396 180t-88 432q53 252 272 434q220 181 473 181q182 0 340 -123
q83 -64 70 -123zM1081 951q-85 73 -223 73q-176 0 -329 -126q-151 -124 -189 -301q-29 -137 25 -237zM1161 1375q-4 -20 -15 -37t-26.5 -30t-34.5 -20t-38 -7q-46 0 -72 53l-74 151l-138 -151q-50 -53 -95 -53q-39 0 -60.5 27t-13.5 67q6 27 19 40q2 2 24 26t65 72
q37 40 78.5 85t89.5 96q45 47 85 47q42 0 77 -68l127 -258q8 -14 2 -40z" />
    <glyph glyph-name="edieresis" unicode="&#xeb;" horiz-adv-x="1205" 
d="M1308 966q-7 -38 -42 -67l-803 -662q91 -66 213 -66q153 0 272 83q15 11 31 22.5t33 23.5q33 24 66 24q18 0 33 -8t25 -21t14 -30.5t0 -35.5q-14 -59 -120 -123q-203 -121 -393 -121q-254 0 -396 180t-88 432q53 252 272 434q220 181 473 181q182 0 340 -123
q83 -64 70 -123zM1081 951q-85 73 -223 73q-176 0 -329 -126q-151 -124 -189 -301q-29 -137 25 -237zM1122 1357q-7 -36 -42 -65q-34 -28 -72 -28q-19 0 -34.5 7.5t-25.5 20.5t-14 30t0 35q4 19 15 36t26.5 30t34 20.5t38.5 7.5q19 0 34.5 -7.5t25.5 -20.5t14 -30t0 -36z
M815 1357q-4 -18 -15.5 -35t-27.5 -30t-34.5 -20.5t-36.5 -7.5q-19 0 -34.5 7.5t-25.5 20.5t-14 30t0 35q4 19 15 36t26.5 30t34 20.5t38.5 7.5q37 0 59 -28q22 -29 15 -66z" />
    <glyph glyph-name="igrave" unicode="&#xec;" horiz-adv-x="358" 
d="M272 77q-4 -20 -15 -36.5t-26.5 -29t-34 -19.5t-37.5 -7t-34.5 7t-26 19.5t-14.5 29.5t0 36l222 1041q7 36 41 65q37 29 73 29t59 -29q22 -28 15 -65zM622 1359q-4 -20 -15 -37t-26 -30t-33.5 -20.5t-38.5 -7.5q-50 0 -69 42l-106 226q-11 24 -4 51q4 19 15 36.5t26 30
t33 20t38 7.5q50 0 70 -41l105 -226q11 -23 5 -51z" />
    <glyph glyph-name="iacute" unicode="&#xed;" horiz-adv-x="358" 
d="M272 77q-4 -20 -15 -36.5t-26.5 -29t-34 -19.5t-37.5 -7t-34.5 7t-26 19.5t-14.5 29.5t0 36l222 1041q7 36 41 65q37 29 73 29t59 -29q22 -28 15 -65zM670 1583q-8 -29 -27 -51l-201 -226q-38 -42 -88 -42q-39 0 -59.5 28t-12.5 67q6 28 26 51l202 226q36 41 87 41
q40 0 60.5 -27.5t12.5 -66.5z" />
    <glyph glyph-name="icircumflex" unicode="&#xee;" horiz-adv-x="358" 
d="M272 77q-4 -20 -15 -36.5t-26.5 -29t-34 -19.5t-37.5 -7t-34.5 7t-26 19.5t-14.5 29.5t0 36l222 1041q7 36 41 65q37 29 73 29t59 -29q22 -28 15 -65zM739 1375q-4 -20 -15 -37t-26.5 -30t-34.5 -20t-38 -7q-46 0 -72 53l-74 151l-138 -151q-50 -53 -95 -53
q-39 0 -60.5 27t-13.5 67q6 27 19 40q2 2 24 26t65 72q37 40 78.5 85t89.5 96q45 47 85 47q42 0 77 -68l127 -258q8 -14 2 -40z" />
    <glyph glyph-name="idieresis" unicode="&#xef;" horiz-adv-x="358" 
d="M272 77q-4 -20 -15 -36.5t-26.5 -29t-34 -19.5t-37.5 -7t-34.5 7t-26 19.5t-14.5 29.5t0 36l222 1041q7 36 41 65q37 29 73 29t59 -29q22 -28 15 -65zM700 1357q-7 -36 -42 -65q-34 -28 -72 -28q-19 0 -34.5 7.5t-25.5 20.5t-14 30t0 35q4 19 15 36t26.5 30t34 20.5
t38.5 7.5q19 0 34.5 -7.5t25.5 -20.5t14 -30t0 -36zM393 1357q-4 -18 -15.5 -35t-27.5 -30t-34.5 -20.5t-36.5 -7.5q-19 0 -34.5 7.5t-25.5 20.5t-14 30t0 35q4 19 15 36t26.5 30t34 20.5t38.5 7.5q37 0 59 -28q22 -29 15 -66z" />
    <glyph glyph-name="ntilde" unicode="&#xf1;" 
d="M1313 77q-4 -20 -15 -36.5t-26.5 -29t-34 -19.5t-37.5 -7t-34.5 7t-26 19.5t-14.5 29.5t0 36l111 520q38 176 -62 301q-98 126 -273 126q-176 0 -329 -126q-151 -124 -189 -301l-111 -520q-4 -20 -15 -36.5t-26.5 -29t-34 -19.5t-37.5 -7t-34.5 7t-26 19.5t-14.5 29.5
t0 36l222 1041q7 36 41 65q37 29 73 29t59 -29q22 -28 15 -65l-21 -97q212 191 483 191q247 0 384 -183q136 -182 84 -432zM1307 1417q-9 -46 -107 -100q-98 -53 -146 -53t-98 59q-47 60 -82 60q-36 0 -108 -45q-74 -44 -97 -44q-35 0 -25 52l15 71q10 46 111 103
q93 51 144 51q48 0 95 -60q49 -60 85 -60q34 0 108 44q73 45 97 45q34 0 24 -51z" />
    <glyph glyph-name="ograve" unicode="&#xf2;" horiz-adv-x="1314" 
d="M1381 597q-54 -252 -273 -432q-218 -180 -471 -180q-254 0 -396 180t-88 432q53 252 272 434q220 181 473 181t394 -181q143 -182 89 -434zM1194 597q38 176 -62 301q-98 126 -274 126t-329 -126q-151 -124 -189 -301q-37 -173 61 -301q101 -125 275 -125q176 0 328 125
q153 126 190 301zM1098 1359q-4 -20 -15 -37t-26 -30t-33.5 -20.5t-38.5 -7.5q-50 0 -69 42l-106 226q-11 24 -4 51q4 19 15 36.5t26 30t33 20t38 7.5q50 0 70 -41l105 -226q11 -23 5 -51z" />
    <glyph glyph-name="oacute" unicode="&#xf3;" horiz-adv-x="1314" 
d="M1381 597q-54 -252 -273 -432q-218 -180 -471 -180q-254 0 -396 180t-88 432q53 252 272 434q220 181 473 181t394 -181q143 -182 89 -434zM1194 597q38 176 -62 301q-98 126 -274 126t-329 -126q-151 -124 -189 -301q-37 -173 61 -301q101 -125 275 -125q176 0 328 125
q153 126 190 301zM1146 1583q-8 -29 -27 -51l-201 -226q-38 -42 -88 -42q-39 0 -59.5 28t-12.5 67q6 28 26 51l202 226q36 41 87 41q40 0 60.5 -27.5t12.5 -66.5z" />
    <glyph glyph-name="ocircumflex" unicode="&#xf4;" horiz-adv-x="1314" 
d="M1381 597q-54 -252 -273 -432q-218 -180 -471 -180q-254 0 -396 180t-88 432q53 252 272 434q220 181 473 181t394 -181q143 -182 89 -434zM1194 597q38 176 -62 301q-98 126 -274 126t-329 -126q-151 -124 -189 -301q-37 -173 61 -301q101 -125 275 -125q176 0 328 125
q153 126 190 301zM1216 1375q-4 -20 -15 -37t-26.5 -30t-34.5 -20t-38 -7q-46 0 -72 53l-74 151l-138 -151q-50 -53 -95 -53q-39 0 -60.5 27t-13.5 67q6 27 19 40q2 2 24 26t65 72q37 40 78.5 85t89.5 96q45 47 85 47q42 0 77 -68l127 -258q8 -14 2 -40z" />
    <glyph glyph-name="otilde" unicode="&#xf5;" horiz-adv-x="1314" 
d="M1381 597q-54 -252 -273 -432q-218 -180 -471 -180q-254 0 -396 180t-88 432q53 252 272 434q220 181 473 181t394 -181q143 -182 89 -434zM1194 597q38 176 -62 301q-98 126 -274 126t-329 -126q-151 -124 -189 -301q-37 -173 61 -301q101 -125 275 -125q176 0 328 125
q153 126 190 301zM1265 1417q-9 -46 -107 -100q-98 -53 -146 -53t-98 59q-47 60 -82 60q-36 0 -108 -45q-74 -44 -97 -44q-35 0 -25 52l15 71q10 46 111 103q93 51 144 51q48 0 95 -60q49 -60 85 -60q34 0 108 44q73 45 97 45q34 0 24 -51z" />
    <glyph glyph-name="odieresis" unicode="&#xf6;" horiz-adv-x="1314" 
d="M1381 597q-54 -252 -273 -432q-218 -180 -471 -180q-254 0 -396 180t-88 432q53 252 272 434q220 181 473 181t394 -181q143 -182 89 -434zM1194 597q38 176 -62 301q-98 126 -274 126t-329 -126q-151 -124 -189 -301q-37 -173 61 -301q101 -125 275 -125q176 0 328 125
q153 126 190 301zM1177 1357q-7 -36 -42 -65q-34 -28 -72 -28q-19 0 -34.5 7.5t-25.5 20.5t-14 30t0 35q4 19 15 36t26.5 30t34 20.5t38.5 7.5q19 0 34.5 -7.5t25.5 -20.5t14 -30t0 -36zM870 1357q-4 -18 -15.5 -35t-27.5 -30t-34.5 -20.5t-36.5 -7.5q-19 0 -34.5 7.5
t-25.5 20.5t-14 30t0 35q4 19 15 36t26.5 30t34 20.5t38.5 7.5q37 0 59 -28q22 -29 15 -66z" />
    <glyph glyph-name="divide" unicode="&#xf7;" horiz-adv-x="973" 
d="M764 947q-8 -38 -42 -66t-72 -28q-19 0 -34.5 7.5t-25.5 20.5t-14 30t0 36q7 37 42 66q34 28 72 28q19 0 34.5 -7.5t25.5 -20.5t14 -30t0 -36zM973 683q-7 -37 -43 -66q-34 -28 -71 -28h-529q-19 0 -34.5 7.5t-25.5 20.5t-14 30t0 36q7 36 42 65t72 29h529q36 0 59 -29
t15 -65zM652 418q-8 -38 -42 -66t-72 -28q-19 0 -34.5 7.5t-25.5 20.5t-14 30t0 36q7 37 42 66q34 28 72 28q19 0 34.5 -7.5t25.5 -20.5t14 -30t0 -36z" />
    <glyph glyph-name="oslash" unicode="&#xf8;" horiz-adv-x="1314" 
d="M1535 1118q-9 -41 -42 -67l-144 -111q71 -159 32 -343q-54 -252 -273 -432q-218 -180 -471 -180q-214 0 -354 133l-138 -108q-32 -25 -71 -25t-60 26.5t-13 65.5q9 40 39 66l145 111q-72 158 -32 343q53 252 272 434q220 181 473 181q212 0 353 -135l138 107q34 28 72 28
q19 0 34.5 -7.5t25.5 -20t14 -30t0 -36.5zM1083 949q-95 75 -225 75q-176 0 -329 -126q-151 -124 -189 -301q-24 -114 13 -211zM1194 597q24 115 -13 212l-730 -563q93 -75 225 -75q176 0 328 125q153 126 190 301z" />
    <glyph glyph-name="ugrave" unicode="&#xf9;" 
d="M1313 77q-4 -20 -15 -36.5t-26.5 -29t-34 -19.5t-37.5 -7t-34.5 7t-26 19.5t-14.5 29.5t0 36l21 97q-210 -189 -482 -189q-249 0 -385 181q-137 182 -84 431l111 521q7 36 41 65q37 29 73 29t59 -29q22 -28 15 -65l-111 -521q-37 -173 61 -301q101 -125 275 -125
q175 0 327 125q153 126 190 301l111 521q7 36 41 65q37 29 73 29t59 -29q22 -28 15 -65zM1141 1359q-4 -20 -15 -37t-26 -30t-33.5 -20.5t-38.5 -7.5q-50 0 -69 42l-106 226q-11 24 -4 51q4 19 15 36.5t26 30t33 20t38 7.5q50 0 70 -41l105 -226q11 -23 5 -51z" />
    <glyph glyph-name="uacute" unicode="&#xfa;" 
d="M1313 77q-4 -20 -15 -36.5t-26.5 -29t-34 -19.5t-37.5 -7t-34.5 7t-26 19.5t-14.5 29.5t0 36l21 97q-210 -189 -482 -189q-249 0 -385 181q-137 182 -84 431l111 521q7 36 41 65q37 29 73 29t59 -29q22 -28 15 -65l-111 -521q-37 -173 61 -301q101 -125 275 -125
q175 0 327 125q153 126 190 301l111 521q7 36 41 65q37 29 73 29t59 -29q22 -28 15 -65zM1189 1583q-8 -29 -27 -51l-201 -226q-38 -42 -88 -42q-39 0 -59.5 28t-12.5 67q6 28 26 51l202 226q36 41 87 41q40 0 60.5 -27.5t12.5 -66.5z" />
    <glyph glyph-name="ucircumflex" unicode="&#xfb;" 
d="M1313 77q-4 -20 -15 -36.5t-26.5 -29t-34 -19.5t-37.5 -7t-34.5 7t-26 19.5t-14.5 29.5t0 36l21 97q-210 -189 -482 -189q-249 0 -385 181q-137 182 -84 431l111 521q7 36 41 65q37 29 73 29t59 -29q22 -28 15 -65l-111 -521q-37 -173 61 -301q101 -125 275 -125
q175 0 327 125q153 126 190 301l111 521q7 36 41 65q37 29 73 29t59 -29q22 -28 15 -65zM1258 1375q-4 -20 -15 -37t-26.5 -30t-34.5 -20t-38 -7q-46 0 -72 53l-74 151l-138 -151q-50 -53 -95 -53q-39 0 -60.5 27t-13.5 67q6 27 19 40q2 2 24 26t65 72q37 40 78.5 85
t89.5 96q45 47 85 47q42 0 77 -68l127 -258q8 -14 2 -40z" />
    <glyph glyph-name="udieresis" unicode="&#xfc;" 
d="M1313 77q-4 -20 -15 -36.5t-26.5 -29t-34 -19.5t-37.5 -7t-34.5 7t-26 19.5t-14.5 29.5t0 36l21 97q-210 -189 -482 -189q-249 0 -385 181q-137 182 -84 431l111 521q7 36 41 65q37 29 73 29t59 -29q22 -28 15 -65l-111 -521q-37 -173 61 -301q101 -125 275 -125
q175 0 327 125q153 126 190 301l111 521q7 36 41 65q37 29 73 29t59 -29q22 -28 15 -65zM1219 1357q-7 -36 -42 -65q-34 -28 -72 -28q-19 0 -34.5 7.5t-25.5 20.5t-14 30t0 35q4 19 15 36t26.5 30t34 20.5t38.5 7.5q19 0 34.5 -7.5t25.5 -20.5t14 -30t0 -36zM912 1357
q-4 -18 -15.5 -35t-27.5 -30t-34.5 -20.5t-36.5 -7.5q-19 0 -34.5 7.5t-25.5 20.5t-14 30t0 35q4 19 15 36t26.5 30t34 20.5t38.5 7.5q37 0 59 -28q22 -29 15 -66z" />
    <glyph glyph-name="yacute" unicode="&#xfd;" 
d="M1241 -263q-7 -36 -42 -65t-72 -29h-700q-18 0 -33 8t-25.5 21t-14.5 30t0 35q7 37 42 66q34 28 71 28h606l73 343q-210 -189 -482 -189q-249 0 -385 181q-137 182 -84 431l111 521q7 36 41 65q37 29 73 29t59 -29q22 -28 15 -65l-111 -521q-37 -174 62 -300
q100 -126 274 -126t327 126q152 125 190 300l111 521q7 36 41 65q37 29 73 29t59 -29q22 -28 15 -65zM1189 1583q-8 -29 -27 -51l-201 -226q-38 -42 -88 -42q-39 0 -59.5 28t-12.5 67q6 28 26 51l202 226q36 41 87 41q40 0 60.5 -27.5t12.5 -66.5z" />
    <glyph glyph-name="thorn" unicode="&#xfe;" horiz-adv-x="1186" 
d="M1235 512q-44 -201 -215 -342t-369 -141h-389l-26 -121q-4 -19 -15 -36t-26.5 -30t-34.5 -20.5t-38 -7.5t-34.5 7.5t-25.5 20.5t-14 30t0 36l258 1210q7 36 41 65q37 29 73 29t59 -29q22 -28 15 -65l-27 -125h389q198 0 309 -142q112 -141 70 -339zM1048 512
q25 118 -43 206q-69 88 -189 88h-389l-125 -589h389q121 0 226 87q106 88 131 208z" />
    <glyph glyph-name="ydieresis" unicode="&#xff;" 
d="M1241 -263q-7 -36 -42 -65t-72 -29h-700q-18 0 -33 8t-25.5 21t-14.5 30t0 35q7 37 42 66q34 28 71 28h606l73 343q-210 -189 -482 -189q-249 0 -385 181q-137 182 -84 431l111 521q7 36 41 65q37 29 73 29t59 -29q22 -28 15 -65l-111 -521q-37 -174 62 -300
q100 -126 274 -126t327 126q152 125 190 300l111 521q7 36 41 65q37 29 73 29t59 -29q22 -28 15 -65zM1219 1357q-7 -36 -42 -65q-34 -28 -72 -28q-19 0 -34.5 7.5t-25.5 20.5t-14 30t0 35q4 19 15 36t26.5 30t34 20.5t38.5 7.5q19 0 34.5 -7.5t25.5 -20.5t14 -30t0 -36z
M912 1357q-4 -18 -15.5 -35t-27.5 -30t-34.5 -20.5t-36.5 -7.5q-19 0 -34.5 7.5t-25.5 20.5t-14 30t0 35q4 19 15 36t26.5 30t34 20.5t38.5 7.5q37 0 59 -28q22 -29 15 -66z" />
    <glyph glyph-name="dotlessi" unicode="&#x131;" horiz-adv-x="358" 
d="M272 77q-4 -20 -15 -36.5t-26.5 -29t-34 -19.5t-37.5 -7t-34.5 7t-26 19.5t-14.5 29.5t0 36l222 1041q7 36 41 65q37 29 73 29t59 -29q22 -28 15 -65z" />
    <glyph glyph-name="OE" unicode="&#x152;" horiz-adv-x="2142" 
d="M2055 77q-4 -20 -15 -36.5t-26.5 -29t-34 -19.5t-36.5 -7h-615q-19 0 -34.5 7t-26 19.5t-14.5 29.5t0 36l28 130q-257 -222 -559 -222q-287 0 -450 205q-163 206 -101 493t311 492q250 207 537 207q304 0 464 -223l28 130q4 18 15.5 35t27.5 30t34.5 20.5t36.5 7.5h615
q18 0 33.5 -7.5t25.5 -20.5t14 -30t0 -35q-8 -38 -42 -66t-71 -28h-521l-89 -418h350q36 0 59 -29t15 -65q-7 -37 -43 -66q-34 -28 -71 -28h-350l-89 -418h521q18 0 33.5 -8t25.5 -21t14 -30t0 -35zM1382 683q45 209 -74 361q-118 151 -329 151t-393 -151
q-183 -152 -228 -361q-44 -211 74 -361q118 -151 329 -151t393 151q185 152 228 361z" />
    <glyph glyph-name="oe" unicode="&#x153;" horiz-adv-x="2246" 
d="M2349 966q-7 -38 -42 -67l-803 -662q91 -66 213 -66q153 0 272 83q15 11 31 22.5t33 23.5q33 24 66 24q18 0 33 -8t25 -21t14 -30.5t0 -35.5q-14 -59 -120 -123q-203 -121 -393 -121q-156 0 -281 77q-126 81 -178 211q-113 -135 -269 -212q-153 -76 -313 -76
q-254 0 -396 180t-88 432q53 252 272 434q220 181 473 181q156 0 279 -78q121 -78 180 -212q109 132 268 211q155 79 314 79q210 0 365 -144q55 -51 45 -102zM2122 951q-85 73 -223 73q-176 0 -329 -126q-151 -124 -189 -301q-29 -137 25 -237zM1194 597q38 176 -62 301
q-98 126 -274 126t-329 -126q-151 -124 -189 -301q-37 -173 61 -301q101 -125 275 -125q176 0 328 125q153 126 190 301z" />
    <glyph glyph-name="Scaron" unicode="&#x160;" horiz-adv-x="877" 
d="M898 381q-35 -164 -176 -280q-140 -116 -303 -116q-103 0 -191 54q-88 55 -112 144q-8 24 -3 44q4 19 15 36t26 30t33.5 20.5t37.5 7.5q41 0 91 -75q48 -75 142 -75q83 0 159 62q76 61 94 148q18 85 -31 146q-50 62 -133 62q-163 0 -255 116t-57 280t176 280
q139 117 305 117q100 0 189 -56q88 -55 112 -143q7 -24 3 -45q-7 -37 -41 -66q-32 -28 -71 -28q-43 0 -91 75q-48 76 -141 76q-88 0 -161 -63q-74 -62 -93 -147q-18 -86 30 -147t135 -61q162 0 254 -117q91 -116 57 -279zM1091 1818q-4 -18 -13 -31.5t-22.5 -28t-31 -32
t-38.5 -43.5q-29 -31 -70.5 -76.5t-101.5 -108.5q-47 -47 -85 -47q-42 0 -75 68l-128 258q-8 14 -2 41q4 19 15.5 36t26.5 30t33.5 20t38.5 7q47 0 72 -52l74 -152l138 152q48 52 95 52q39 0 61 -27t13 -66z" />
    <glyph glyph-name="scaron" unicode="&#x161;" horiz-adv-x="792" 
d="M804 338q-32 -146 -157 -249q-127 -104 -271 -104q-96 0 -170 44q-77 49 -100 133q-6 26 -2 46q4 19 15 36t26 29.5t33 19.5t38 7q38 0 85 -65q46 -64 114 -64q64 0 126 50q61 49 75 117q14 66 -26 115q-39 50 -104 50q-144 0 -227 104q-81 106 -51 250q31 144 157 250
q126 105 272 105q96 0 169 -49q76 -51 100 -130q6 -25 2 -45q-8 -38 -42 -66t-72 -28t-83 65t-114 65q-68 0 -128 -51q-61 -50 -74 -116q-14 -68 24 -117q39 -49 107 -49q144 0 227 -104q82 -104 51 -249zM1014 1648q-4 -18 -13 -31.5t-22.5 -28t-31 -32t-38.5 -43.5
q-29 -31 -70.5 -76.5t-101.5 -108.5q-47 -47 -85 -47q-42 0 -75 68l-128 258q-8 14 -2 41q4 19 15.5 36t26.5 30t33.5 20t38.5 7q47 0 72 -52l74 -152l138 152q48 52 95 52q39 0 61 -27t13 -66z" />
    <glyph glyph-name="Ydieresis" unicode="&#x178;" horiz-adv-x="1241" 
d="M1481 1289q-8 -35 -36 -60l-611 -580l-122 -572q-4 -20 -15 -36.5t-26.5 -29t-34 -19.5t-37.5 -7q-37 0 -59.5 26.5t-14.5 65.5l122 573l-365 581q-16 23 -8 58q4 18 15 35t26.5 30t34 20.5t36.5 7.5q46 0 67 -34l325 -520l550 520q34 34 79 34q18 0 33.5 -7.5t26 -20.5
t14.5 -30t0 -35zM1175 1527q-7 -36 -42 -65q-34 -28 -72 -28q-19 0 -34.5 7.5t-25.5 20.5t-14 30t0 35q4 19 15 36t26.5 30t34 20.5t38.5 7.5q19 0 34.5 -7.5t25.5 -20.5t14 -30t0 -36zM868 1527q-4 -18 -15.5 -35t-27.5 -30t-34.5 -20.5t-36.5 -7.5q-19 0 -34.5 7.5
t-25.5 20.5t-14 30t0 35q4 19 15 36t26.5 30t34 20.5t38.5 7.5q37 0 59 -28q22 -29 15 -66z" />
    <glyph glyph-name="Zcaron" unicode="&#x17d;" horiz-adv-x="1292" 
d="M1248 77q-4 -20 -15 -36.5t-26.5 -29t-34 -19.5t-37.5 -7h-1020q-38 0 -59.5 26.5t-13.5 65.5q7 32 33 58l1118 1060h-820q-18 0 -33.5 7.5t-25.5 20.5t-14 30t0 36q4 18 15.5 35t27 30t34 20.5t36.5 7.5h1019q19 0 34.5 -7.5t25.5 -20.5t14 -30t0 -35q-8 -33 -43 -67
l-1108 -1051h819q37 0 60 -29q22 -27 14 -65zM1298 1818q-4 -18 -13 -31.5t-22.5 -28t-31 -32t-38.5 -43.5q-29 -31 -70.5 -76.5t-101.5 -108.5q-47 -47 -85 -47q-42 0 -75 68l-128 258q-8 14 -2 41q4 19 15.5 36t26.5 30t33.5 20t38.5 7q47 0 72 -52l74 -152l138 152
q48 52 95 52q39 0 61 -27t13 -66z" />
    <glyph glyph-name="zcaron" unicode="&#x17e;" horiz-adv-x="1143" 
d="M1100 77q-7 -37 -43 -65q-35 -27 -70 -27h-872q-38 0 -59.5 26.5t-13.5 65.5q7 32 33 58l933 889h-671q-18 0 -33.5 7.5t-25.5 20.5t-14 30t0 36q3 18 14.5 35t27 30t34.5 21t37 8h871q35 0 58 -29q23 -30 16 -65q-8 -35 -43 -67l-924 -880h671q36 0 59 -29t15 -65z
M1188 1648q-4 -18 -13 -31.5t-22.5 -28t-31 -32t-38.5 -43.5q-29 -31 -70.5 -76.5t-101.5 -108.5q-47 -47 -85 -47q-42 0 -75 68l-128 258q-8 14 -2 41q4 19 15.5 36t26.5 30t33.5 20t38.5 7q47 0 72 -52l74 -152l138 152q48 52 95 52q39 0 61 -27t13 -66z" />
    <glyph glyph-name="circumflex" unicode="&#x2c6;" horiz-adv-x="823" 
d="M1006 1545q-4 -20 -15 -37t-26.5 -30t-34.5 -20t-38 -7q-46 0 -72 53l-74 151l-138 -151q-50 -53 -95 -53q-39 0 -60.5 27t-13.5 67q6 27 19 40q2 2 24 26t65 72q37 40 78.5 85t89.5 96q45 47 85 47q42 0 77 -68l127 -258q8 -14 2 -40z" />
    <glyph glyph-name="caron" unicode="&#x2c7;" horiz-adv-x="823" 
d="M1064 1818q-4 -18 -13 -31.5t-22.5 -28t-31 -32t-38.5 -43.5q-29 -31 -70.5 -76.5t-101.5 -108.5q-47 -47 -85 -47q-42 0 -75 68l-128 258q-8 14 -2 41q4 19 15.5 36t26.5 30t33.5 20t38.5 7q47 0 72 -52l74 -152l138 152q48 52 95 52q39 0 61 -27t13 -66z" />
    <glyph glyph-name="macron" unicode="&#x2c9;" horiz-adv-x="802" 
d="M982 1527q-7 -36 -42 -65q-34 -28 -72 -28h-358q-19 0 -34.5 7.5t-25.5 20.5t-14 30t0 35q4 19 15 36t26.5 30t34 20.5t38.5 7.5h358q19 0 34.5 -7.5t25.5 -20.5t14 -30t0 -36z" />
    <glyph glyph-name="ring" unicode="&#x2da;" horiz-adv-x="631" 
d="M831 1621q-16 -76 -85 -132q-65 -55 -142 -55q-79 0 -122 55q-43 54 -26 132q17 77 83 132q68 56 145 56q75 0 119 -56q44 -57 28 -132zM712 1621q6 28 -10.5 48.5t-43.5 20.5q-28 0 -52.5 -20.5t-30.5 -48.5q-6 -27 10 -47.5t44 -20.5q27 0 52 20.5t31 47.5z" />
    <glyph glyph-name="tilde" unicode="&#x2dc;" horiz-adv-x="905" 
d="M1096 1587q-9 -46 -107 -100q-98 -53 -146 -53t-98 59q-47 60 -82 60q-36 0 -108 -45q-74 -44 -97 -44q-35 0 -25 52l15 71q10 46 111 103q93 51 144 51q48 0 95 -60q49 -60 85 -60q34 0 108 44q73 45 97 45q34 0 24 -51z" />
    <glyph glyph-name="endash" unicode="&#x2013;" horiz-adv-x="802" 
d="M802 683q-4 -19 -15.5 -36t-27 -30t-34 -20.5t-37.5 -7.5h-358q-19 0 -34.5 7.5t-25.5 20.5t-14 30t0 36q7 36 42 65t72 29h358q37 0 60 -29q22 -27 14 -65z" />
    <glyph glyph-name="emdash" unicode="&#x2014;" horiz-adv-x="1143" 
d="M1143 683q-8 -38 -42 -66t-71 -28h-700q-19 0 -34.5 7.5t-25.5 20.5t-14 30t0 36q7 36 42 65t72 29h700q18 0 33.5 -8t25.5 -21t14 -30t0 -35z" />
    <glyph glyph-name="quoteleft" unicode="&#x2018;" horiz-adv-x="544" 
d="M640 1133q-4 -20 -15 -37t-26 -30t-33.5 -20.5t-37.5 -7.5q-49 0 -69 44l-70 157q-10 23 -4 50q4 19 15 36t26 30t33 20t38 7q50 0 70 -42l68 -157q10 -23 5 -50z" />
    <glyph glyph-name="quoteright" unicode="&#x2019;" horiz-adv-x="544" 
d="M673 1289q-6 -25 -26 -50l-135 -157q-38 -44 -88 -44q-39 0 -59.5 28t-12.5 67q4 25 25 50l137 157q36 42 87 42q39 0 59.5 -27t12.5 -66z" />
    <glyph glyph-name="quotesinglbase" unicode="&#x201a;" horiz-adv-x="544" 
d="M419 94q-6 -25 -26 -50l-135 -155q-38 -44 -88 -44q-39 0 -59.5 28t-12.5 67q6 25 26 50l136 155q36 43 87 43q39 0 59.5 -27.5t12.5 -66.5z" />
    <glyph glyph-name="quotedblleft" unicode="&#x201c;" horiz-adv-x="869" 
d="M965 1133q-4 -20 -15 -37t-26 -30t-33.5 -20.5t-38.5 -7.5q-49 0 -69 44l-69 157q-11 23 -5 50q4 19 15 36t26 30t33 20t38 7q52 0 70 -42l68 -157q12 -23 6 -50zM640 1133q-4 -20 -15 -37t-26 -30t-33.5 -20.5t-37.5 -7.5q-49 0 -69 44l-70 157q-10 23 -4 50q4 19 15 36
t26 30t33 20t38 7q50 0 70 -42l68 -157q10 -23 5 -50z" />
    <glyph glyph-name="quotedblright" unicode="&#x201d;" horiz-adv-x="869" 
d="M998 1289q-6 -28 -27 -50l-135 -157q-38 -44 -88 -44q-39 0 -59.5 28t-12.5 67q6 27 26 50l136 157q36 42 87 42q40 0 60.5 -27t12.5 -66zM673 1289q-6 -25 -26 -50l-135 -157q-38 -44 -88 -44q-39 0 -59.5 28t-12.5 67q4 25 25 50l137 157q36 42 87 42q39 0 59.5 -27
t12.5 -66z" />
    <glyph glyph-name="quotedblbase" unicode="&#x201e;" horiz-adv-x="869" 
d="M744 94q-6 -28 -27 -50l-135 -155q-38 -44 -88 -44q-39 0 -59.5 28t-12.5 67q6 28 27 50l135 155q36 43 87 43q40 0 60.5 -27.5t12.5 -66.5zM419 94q-6 -25 -26 -50l-135 -155q-38 -44 -88 -44q-39 0 -59.5 28t-12.5 67q6 25 26 50l136 155q36 43 87 43q39 0 59.5 -27.5
t12.5 -66.5z" />
    <glyph glyph-name="dagger" unicode="&#x2020;" horiz-adv-x="939" 
d="M995 947q-7 -37 -43 -66q-34 -28 -71 -28h-154l-201 -945q-4 -19 -15 -36t-26.5 -30t-34.5 -20.5t-38 -7.5t-34.5 7.5t-25.5 20.5t-14 30t0 36l201 945h-153q-19 0 -34.5 7.5t-25.5 20.5t-14 30t0 36t15.5 36t27 30t34 20.5t37.5 7.5h153l53 248q4 18 15.5 35t27.5 30
t34.5 20.5t36.5 7.5q19 0 34.5 -7.5t25.5 -20.5t14 -30t0 -35l-53 -248h154q37 0 59 -28q22 -29 15 -66z" />
    <glyph glyph-name="daggerdbl" unicode="&#x2021;" horiz-adv-x="939" 
d="M923 606q-7 -37 -43 -66q-34 -28 -71 -28h-154l-129 -604q-4 -19 -15 -36t-26.5 -30t-34.5 -20.5t-38 -7.5t-34.5 7.5t-25.5 20.5t-14 30t0 36l129 604h-153q-19 0 -34.5 7.5t-25.5 20.5t-14 30t0 36q7 36 42 65t72 29h153l32 153h-153q-19 0 -34.5 7.5t-25.5 20.5
t-14 30t0 36t15.5 36t27 30t34 20.5t37.5 7.5h153l53 248q4 18 15.5 35t27.5 30t34.5 20.5t36.5 7.5q19 0 34.5 -7.5t25.5 -20.5t14 -30t0 -35l-53 -248h154q37 0 59 -28q22 -29 15 -66t-43 -66q-34 -28 -71 -28h-154l-32 -153h154q35 0 58 -29q23 -30 16 -65z" />
    <glyph glyph-name="bullet" unicode="&#x2022;" horiz-adv-x="1178" 
d="M1178 683q-40 -190 -205 -326q-167 -135 -354 -135q-191 0 -297 135q-106 136 -66 326q40 189 204 324q164 136 355 136q190 0 296 -136q107 -136 67 -324z" />
    <glyph glyph-name="ellipsis" unicode="&#x2026;" horiz-adv-x="1058" 
d="M929 77q-4 -20 -15 -36.5t-26.5 -29t-34 -19.5t-37.5 -7t-34.5 7t-26 19.5t-14.5 29.5t0 36q7 36 42 65t72 29t60 -29q22 -27 14 -65zM622 77q-4 -20 -15 -36.5t-26.5 -29t-34 -19.5t-37.5 -7q-38 0 -60.5 26.5t-14.5 65.5q7 36 42 65t72 29t60 -29q22 -27 14 -65z
M315 77q-7 -37 -43 -65q-35 -27 -70 -27q-38 0 -60.5 26.5t-14.5 65.5q7 36 42 65t72 29q36 0 59 -29t15 -65z" />
    <glyph glyph-name="perthousand" unicode="&#x2030;" horiz-adv-x="2004" 
d="M1935 358q-33 -153 -167 -263q-136 -110 -288 -110q-170 0 -255 126q-140 -126 -308 -126q-152 0 -239 105q-86 106 -60 258l-336 -319q-37 -32 -80 -32q-39 0 -60 26t-12 66q8 34 32 58l514 488q-12 -2 -26 -3t-30 -1q-153 0 -241 111q-87 111 -54 265t167 264
q135 111 288 111q151 0 238 -107q88 -107 61 -256l335 317q34 34 80 34q39 0 60 -27t12 -66q-8 -37 -32 -58l-515 -489q12 2 26 3t31 1q168 0 254 -128q140 128 309 128q154 0 241 -111q88 -110 55 -265zM1747 358q16 75 -28 132q-44 56 -120 56q-77 0 -145 -56
q-66 -55 -83 -132t27 -132q43 -55 121 -55q77 0 144 55t84 132zM888 1007q16 75 -28 132q-44 56 -120 56t-144 -56q-66 -55 -83 -132q-17 -79 26 -133q43 -55 121 -55q77 0 144 55t84 133zM1184 358q16 75 -28 132q-44 56 -120 56q-77 0 -145 -56q-66 -55 -83 -132t27 -132
q43 -55 121 -55q77 0 144 55t84 132z" />
    <glyph glyph-name="guilsinglleft" unicode="&#x2039;" horiz-adv-x="973" 
d="M911 391q-7 -37 -43 -66q-34 -28 -71 -28q-23 0 -37 8l-453 286q-62 39 -51 92t90 92l574 285q19 8 41 8q39 0 61 -27t13 -66q-10 -54 -73 -86l-418 -206l330 -207q49 -31 37 -85z" />
    <glyph glyph-name="guilsinglright" unicode="&#x203a;" horiz-adv-x="973" 
d="M973 683q-11 -53 -89 -92l-575 -286q-19 -8 -41 -8q-19 0 -34.5 7.5t-25.5 20.5t-14 30t0 36q12 54 73 85l417 207l-329 206q-47 31 -37 86q4 19 15.5 36t26.5 30t33.5 20t38.5 7q23 0 37 -8l454 -285q61 -38 50 -92z" />
    <glyph glyph-name="Euro" unicode="&#x20ac;" horiz-adv-x="1734" 
d="M1643 254q-14 -61 -132 -131q-239 -138 -447 -138q-213 0 -365 118t-190 315h-215q-19 0 -34.5 7.5t-25.5 20.5t-14 30t0 36t15.5 36t27 30t34 20.5t37.5 7.5h167q2 22 5 41t6 36q4 16 9.5 35t11.5 41h-82q-19 0 -34.5 7.5t-25.5 20.5t-14 30t0 36q7 37 42 66
q34 28 72 28h130q121 196 324 315q204 120 416 120q206 0 388 -140q89 -71 76 -131q-4 -19 -15.5 -36t-27 -30t-34 -20.5t-37.5 -7.5q-32 0 -61 26q-11 12 -21 24t-21 24q-102 104 -287 104q-134 0 -265 -67q-130 -64 -227 -181h618q37 0 59 -28q22 -29 15 -66t-43 -66
q-34 -28 -71 -28h-686q-5 -16 -10.5 -35t-10.5 -41q-5 -23 -7.5 -42t-3.5 -35h601q18 0 33.5 -7.5t25.5 -20.5t14 -30t0 -36q-8 -38 -42 -66t-71 -28h-533q46 -113 149 -181q103 -66 237 -66q185 0 331 104q17 12 32 24t31 24q38 25 72 25q19 0 34.5 -7.5t25.5 -20.5t14 -30
t0 -36z" />
    <glyph glyph-name="trademark" unicode="&#x2122;" horiz-adv-x="1212" 
d="M1249 857q-6 -29 -31 -50.5t-54 -21.5t-46 21.5t-11 50.5l46 215l-118 -135q-30 -32 -58 -32q-31 0 -47 37l-57 130l-46 -215q-3 -15 -11.5 -28t-20.5 -22.5t-26 -15.5t-29 -6q-29 0 -45.5 21.5t-10.5 50.5l82 384h-51l-82 -384q-3 -15 -11.5 -28t-20.5 -22.5t-26 -15.5
t-29 -6q-29 0 -46 21.5t-11 50.5l82 384h-124q-29 0 -46.5 20.5t-10.5 49.5q3 15 11.5 27.5t20.5 22.5t26 15.5t29 5.5h390q38 0 53 -34l103 -230l201 230q28 34 67 34q29 0 45 -21t10 -50z" />
    </font>
</defs>
</svg>
