<?xml version="1.0" standalone="no"?>
<!DOCTYPE svg PUBLIC "-//W3C//DTD SVG 1.1//EN" "http://www.w3.org/Graphics/SVG/1.1/DTD/svg11.dtd" >
<svg xmlns="http://www.w3.org/2000/svg" xmlns:xlink="http://www.w3.org/1999/xlink" version="1.1">
<metadata>
Created by FontForge 20170731 at Fri Jun 20 01:25:58 2014
 By Aleksey,,,
Copyright (c) 2014 Indian Type Foundry (info@indiantypefoundry.com)
</metadata>
<defs>
<font id="Teko-Medium" horiz-adv-x="210" >
  <font-face 
    font-family="Teko Medium"
    font-weight="500"
    font-stretch="normal"
    units-per-em="1000"
    panose-1="2 0 0 0 0 0 0 0 0 0"
    ascent="750"
    descent="-250"
    x-height="491"
    cap-height="631"
    bbox="-439 -369 1836 886"
    underline-thickness="50"
    underline-position="-150"
    unicode-range="U+000D-FB02"
  />
<missing-glyph horiz-adv-x="510" 
d="M0 0v701h502v-701h-502zM51 652v-603h400v603h-400zM251 302h-4l-100 -209h-60l134 260l-134 255h60l105 -206h4l100 206h60l-135 -261l135 -254h-60z" />
    <glyph glyph-name=".notdef" horiz-adv-x="510" 
d="M0 0v701h502v-701h-502zM51 652v-603h400v603h-400zM251 302h-4l-100 -209h-60l134 260l-134 255h60l105 -206h4l100 206h60l-135 -261l135 -254h-60z" />
    <glyph glyph-name=".null" horiz-adv-x="0" 
 />
    <glyph glyph-name="nonmarkingreturn" horiz-adv-x="333" 
 />
    <glyph glyph-name="NULL" horiz-adv-x="0" 
 />
    <glyph glyph-name="NULL" horiz-adv-x="0" 
 />
    <glyph glyph-name="CR" unicode="&#xd;" horiz-adv-x="0" 
 />
    <glyph glyph-name="space" unicode=" " horiz-adv-x="161" 
 />
    <glyph glyph-name="exclam" unicode="!" horiz-adv-x="234" 
d="M50 631h134l-20 -419h-94zM56 0v135h121v-135h-121z" />
    <glyph glyph-name="quotedbl" unicode="&#x22;" horiz-adv-x="333" 
d="M37 631h103v-236h-103v236zM193 631h103v-236h-103v236z" />
    <glyph glyph-name="numbersign" unicode="#" horiz-adv-x="549" 
d="M314 236l31 158h-110l-31 -158h110zM519 394h-75l-31 -158h69v-81h-84l-30 -155h-99l30 155h-110l-30 -155h-99l30 155h-60v81h75l31 158h-69v81h84l30 155h99l-30 -155h110l30 155h99l-30 -155h60v-81z" />
    <glyph glyph-name="dollar" unicode="$" horiz-adv-x="399" 
d="M180 362h79q105 0 105 -98v-165q0 -99 -109 -99h-1v-79h-109v79q-107 1 -107 99v87h115v-71q0 -16 6 -21.5t23 -5.5h38q16 0 22 5.5t6 21.5v135q0 16 -6 21.5t-22 5.5h-81q-103 0 -103 100v155q0 99 108 99h1v79h109v-79q108 0 108 -99v-88h-116v72q0 16 -6 21.5t-22 5.5
h-38q-17 0 -23 -5.5t-6 -21.5v-127q0 -16 6 -21.5t23 -5.5z" />
    <glyph glyph-name="percent" unicode="%" horiz-adv-x="716" 
d="M283 547v-184q0 -83 -89 -83h-77q-89 0 -89 83v184q0 84 89 84h77q89 0 89 -84zM688 267v-183q0 -84 -89 -84h-77q-89 0 -89 84v183q0 42 21 63t68 21h77q89 0 89 -84zM190 377v156q0 15 -4.5 20t-19.5 5h-20q-15 0 -20 -5.5t-5 -19.5v-156q0 -14 5 -19t20 -5h20
q15 0 19.5 5t4.5 19zM595 98v155q0 15 -5 20t-20 5h-20q-15 0 -19.5 -5t-4.5 -20v-155q0 -15 4.5 -20t19.5 -5h20q15 0 20 5t5 20zM469 631h90l-312 -631h-89z" />
    <glyph glyph-name="ampersand" unicode="&#x26;" horiz-adv-x="509" 
d="M175 84h159l-139 158l-21 -13q-16 -11 -22 -21t-6 -30v-67q0 -16 6 -21.5t23 -5.5zM176 521v-83q0 -30 36 -71q36 24 47.5 38.5t11.5 39.5v76q0 16 -5.5 21.5t-22.5 5.5h-39q-17 0 -22.5 -5.5t-5.5 -21.5zM369 0h-224q-109 0 -109 99v90q0 38 15 60.5t55 46.5l26 18
q-24 29 -36 46q-33 45 -33 84v88q0 99 109 99h103q107 0 107 -99v-85q0 -52 -20 -81.5t-65 -58.5l-21 -13l113 -133v75h92v-137q0 -21 -6 -39l82 -95h-118l-34 38q-17 -3 -36 -3z" />
    <glyph glyph-name="quotesingle" unicode="'" horiz-adv-x="185" 
d="M37 631h111v-236h-111v236z" />
    <glyph glyph-name="parenleft" unicode="(" horiz-adv-x="285" 
d="M45 214v196q0 187 60.5 287t177.5 100h13v-96l-12 -1q-124 -6 -124 -288v-200q0 -282 124 -288l12 -1v-96h-13q-117 0 -177.5 100t-60.5 287z" />
    <glyph glyph-name="parenright" unicode=")" horiz-adv-x="285" 
d="M239 410v-196q0 -187 -60.5 -287t-177.5 -100h-13v96l12 1q124 6 124 288v200q0 282 -124 288l-12 1v96h13q117 0 177.5 -100t60.5 -287z" />
    <glyph glyph-name="asterisk" unicode="*" horiz-adv-x="341" 
d="M126 601v30h89v-31q0 -37 -8 -66q28 18 62 28l28 9l28 -85l-30 -9q-36 -11 -65 -13q22 -16 46 -49l18 -25l-72 -53l-19 26q-19 27 -32 58q-12 -31 -33 -60l-18 -24l-73 53l19 25q23 30 45 49q-34 2 -66 13l-29 9l28 85l29 -9q33 -10 61 -29q-8 36 -8 68z" />
    <glyph glyph-name="plus" unicode="+" horiz-adv-x="439" 
d="M418 359v-89h-143v-152h-111v152h-143v89h143v152h111v-152h143z" />
    <glyph glyph-name="comma" unicode="," horiz-adv-x="190" 
d="M34 -142v277h122v-72l-84 -205h-38z" />
    <glyph glyph-name="hyphen" unicode="-" horiz-adv-x="323" 
d="M40 255v83h243v-83h-243z" />
    <glyph glyph-name="period" unicode="." horiz-adv-x="190" 
d="M34 0v135h122v-135h-122z" />
    <glyph glyph-name="slash" unicode="/" horiz-adv-x="396" 
d="M279 700h101l-283 -803h-101z" />
    <glyph glyph-name="zero" unicode="0" horiz-adv-x="423" 
d="M378 532v-433q0 -99 -109 -99h-116q-109 0 -109 99v433q0 99 109 99h116q109 0 109 -99zM263 115v401q0 16 -6 21.5t-23 5.5h-46q-16 0 -22 -5.5t-6 -21.5v-401q0 -16 6 -21.5t22 -5.5h46q17 0 23 5.5t6 21.5z" />
    <glyph glyph-name="one" unicode="1" horiz-adv-x="260" 
d="M212 631v-631h-115v543h-78v88h193z" />
    <glyph glyph-name="two" unicode="2" horiz-adv-x="369" 
d="M139 516v-94h-115v110q0 99 109 99h96q110 0 110 -99v-71q0 -74 -45 -144l-131 -229h179v-88h-315v83l163 264q35 53 35 116v53q0 16 -6 21.5t-22 5.5h-29q-17 0 -23 -5.5t-6 -21.5z" />
    <glyph glyph-name="three" unicode="3" horiz-adv-x="390" 
d="M143 516v-85h-115v101q0 99 109 99h101q109 0 109 -99v-135q0 -62 -42 -76q42 -14 42 -72v-150q0 -99 -109 -99h-101q-109 0 -109 99v100h115v-84q0 -16 6 -21.5t22 -5.5h34q16 0 22 5.5t6 21.5v135q0 16 -5.5 22t-22.5 6h-77v84h77q16 0 22 5.5t6 21.5v127q0 16 -6 21.5
t-22 5.5h-34q-16 0 -22 -5.5t-6 -21.5z" />
    <glyph glyph-name="four" unicode="4" horiz-adv-x="405" 
d="M405 211v-89h-60v-122h-109v122h-229v98l198 411h115l-208 -420h124v122h109v-122h60z" />
    <glyph glyph-name="five" unicode="5" horiz-adv-x="399" 
d="M158 401h98q109 0 109 -99v-203q0 -99 -109 -99h-107q-109 0 -109 99v108h116v-92q0 -16 6 -21.5t22 -5.5h38q17 0 23 5.5t6 21.5v171q0 16 -6 21.5t-23 5.5h-178v318h317v-88h-203v-142z" />
    <glyph glyph-name="six" unicode="6" horiz-adv-x="414" 
d="M263 115v139q0 16 -6 21.5t-23 5.5h-76v-166q0 -16 6 -21.5t22 -5.5h48q17 0 23 5.5t6 21.5zM158 367h109q109 0 109 -99v-169q0 -99 -109 -99h-114q-109 0 -109 99v433q0 99 109 99h109q109 0 109 -99v-97h-113v81q0 16 -6 21.5t-22 5.5h-44q-16 0 -22 -5.5t-6 -21.5
v-149z" />
    <glyph glyph-name="seven" unicode="7" horiz-adv-x="329" 
d="M324 631v-68l-176 -563h-118l171 538h-194v93h317z" />
    <glyph glyph-name="eight" unicode="8" horiz-adv-x="421" 
d="M266 385v132q0 16 -6 21.5t-23 5.5h-54q-16 0 -22 -5.5t-6 -21.5v-132q0 -16 6 -21.5t22 -5.5h54q17 0 23 5.5t6 21.5zM266 114v138q0 16 -6 21.5t-23 5.5h-54q-16 0 -22 -5.5t-6 -21.5v-138q0 -16 6 -21.5t22 -5.5h54q17 0 23 5.5t6 21.5zM377 532v-137q0 -62 -42 -76
q42 -14 42 -72v-148q0 -99 -109 -99h-116q-109 0 -109 99v148q0 58 42 72q-42 14 -42 76v137q0 99 109 99h116q109 0 109 -99z" />
    <glyph glyph-name="nine" unicode="9" horiz-adv-x="412" 
d="M177 337h77v179q0 16 -6 21.5t-22 5.5h-49q-16 0 -22 -5.5t-6 -21.5v-152q0 -16 6 -21.5t22 -5.5zM145 631h113q109 0 109 -99v-433q0 -99 -109 -99h-109q-109 0 -109 99v95h113v-79q0 -16 6 -21.5t22 -5.5h45q16 0 22 5.5t6 21.5v139h-109q-109 0 -109 99v179
q0 99 109 99z" />
    <glyph glyph-name="colon" unicode=":" horiz-adv-x="190" 
d="M34 344h122v-197h-122v197z" />
    <glyph glyph-name="semicolon" unicode=";" horiz-adv-x="190" 
d="M34 356v135h122v-135h-122zM34 -142v277h122v-72l-84 -205h-38z" />
    <glyph glyph-name="less" unicode="&#x3c;" horiz-adv-x="453" 
d="M425 400l-288 -84l288 -85v-96l-397 128v108l397 125v-96z" />
    <glyph glyph-name="equal" unicode="=" horiz-adv-x="453" 
d="M28 364v91h397v-91h-397zM28 174v92h397v-92h-397z" />
    <glyph glyph-name="greater" unicode="&#x3e;" horiz-adv-x="453" 
d="M316 316l-288 84v96l397 -125v-108l-397 -128v96z" />
    <glyph glyph-name="question" unicode="?" horiz-adv-x="379" 
d="M113 0v135h122v-135h-122zM129 631h107q109 0 109 -98v-158q0 -98 -109 -98h-8l-5 -65h-96l-10 138h86q15 0 20.5 6t5.5 22v142q0 16 -5.5 22t-20.5 6h-40q-16 0 -21.5 -6t-5.5 -22v-71h-116v84q0 98 109 98z" />
    <glyph glyph-name="at" unicode="@" horiz-adv-x="744" 
d="M237 337q0 94 97 94h24q54 0 68 -44v44h97v-272h45q16 0 22 5.5t6 21.5v289q0 17 -6 22.5t-22 5.5h-370q-16 0 -22 -5.5t-6 -22.5v-443q0 -16 6 -21.5t22 -5.5h326v-85h-356q-103 0 -103 99v470q0 99 103 99h428q102 0 102 -99v-310q0 -98 -102 -98h-166v54
q-9 -54 -72 -54h-24q-97 0 -97 94v162zM340 326v-140q0 -16 5.5 -21t21.5 -5h28q29 0 29 32v128q0 32 -29 32h-28q-16 0 -21.5 -5t-5.5 -21z" />
    <glyph glyph-name="A" unicode="A" horiz-adv-x="431" 
d="M160 218h107l-55 302zM307 0l-24 131h-138l-22 -131h-115l127 631h155l133 -631h-116z" />
    <glyph glyph-name="B" unicode="B" horiz-adv-x="440" 
d="M48 631h240q109 0 109 -99v-136q0 -63 -42 -77q42 -14 42 -72v-148q0 -99 -109 -99h-240v631zM283 111v139q0 16 -6 21.5t-23 5.5h-91v-193h91q17 0 23 5.5t6 21.5zM283 388v132q0 16 -6 21.5t-23 5.5h-91v-186h91q17 0 23 5.5t6 21.5z" />
    <glyph glyph-name="C" unicode="C" horiz-adv-x="411" 
d="M378 422h-116v98q0 16 -6 21.5t-22 5.5h-47q-16 0 -22 -5.5t-6 -21.5v-410q0 -16 6 -21.5t22 -5.5h47q16 0 22 5.5t6 21.5v96h116v-108q0 -99 -109 -99h-117q-109 0 -109 99v434q0 99 109 99h117q109 0 109 -99v-110z" />
    <glyph glyph-name="D" unicode="D" horiz-adv-x="446" 
d="M286 111v409q0 16 -6 21.5t-22 5.5h-90v-463h90q16 0 22 5.5t6 21.5zM53 631h240q109 0 109 -99v-433q0 -99 -109 -99h-240v631z" />
    <glyph glyph-name="E" unicode="E" horiz-adv-x="374" 
d="M164 88h192v-88h-308v631h300v-88h-184v-175h155v-89h-155v-191z" />
    <glyph glyph-name="F" unicode="F" horiz-adv-x="363" 
d="M354 543h-190v-192h155v-84h-155v-267h-116v631h306v-88z" />
    <glyph glyph-name="G" unicode="G" horiz-adv-x="416" 
d="M378 437h-116v83q0 16 -6 21.5t-22 5.5h-47q-16 0 -22 -5.5t-6 -21.5v-410q0 -16 6 -21.5t22 -5.5h47q16 0 22 5.5t6 21.5v140h-50v81h166v-233q0 -99 -109 -99h-117q-109 0 -109 99v434q0 99 109 99h117q109 0 109 -99v-95z" />
    <glyph glyph-name="H" unicode="H" horiz-adv-x="456" 
d="M293 631h115v-631h-115v269h-130v-269h-115v631h115v-274h130v274z" />
    <glyph glyph-name="I" unicode="I" horiz-adv-x="223" 
d="M54 631h115v-631h-115v631z" />
    <glyph glyph-name="J" unicode="J" horiz-adv-x="370" 
d="M13 221h115v-106q0 -16 6 -21.5t23 -5.5h24q16 0 22 5.5t6 21.5v516h116v-532q0 -99 -109 -99h-94q-109 0 -109 99v122z" />
    <glyph glyph-name="K" unicode="K" horiz-adv-x="426" 
d="M48 0v631h115v-631h-115zM418 631l-130 -314l129 -317h-124l-125 317l126 314h124z" />
    <glyph glyph-name="L" unicode="L" horiz-adv-x="334" 
d="M163 88h168v-88h-283v631h115v-543z" />
    <glyph glyph-name="M" unicode="M" horiz-adv-x="561" 
d="M150 0h-102v631h126l106 -375l106 375h126v-631h-101v443l-84 -306h-93l-84 305v-442z" />
    <glyph glyph-name="N" unicode="N" horiz-adv-x="446" 
d="M292 631h105v-631h-108l-135 418v-418h-106v631h111l133 -412v412z" />
    <glyph glyph-name="O" unicode="O" horiz-adv-x="429" 
d="M269 115v401q0 16 -6 21.5t-22 5.5h-53q-17 0 -23 -5.5t-6 -21.5v-401q0 -16 6 -21.5t23 -5.5h53q16 0 22 5.5t6 21.5zM153 631h122q109 0 109 -99v-433q0 -99 -109 -99h-122q-109 0 -109 99v433q0 99 109 99z" />
    <glyph glyph-name="P" unicode="P" horiz-adv-x="415" 
d="M274 347v169q0 16 -6 21.5t-22 5.5h-83v-223h83q16 0 22 5.5t6 21.5zM48 631h232q109 0 109 -99v-201q0 -99 -109 -99h-117v-232h-115v631z" />
    <glyph glyph-name="Q" unicode="Q" horiz-adv-x="429" 
d="M159 516v-401q0 -16 6 -21.5t23 -5.5h53q16 0 22 5.5t6 21.5v401q0 16 -6 21.5t-22 5.5h-53q-17 0 -23 -5.5t-6 -21.5zM153 0q-109 0 -109 99v433q0 99 109 99h122q109 0 109 -99v-433q0 -68 -50 -89l77 -94h-126l-67 84h-65z" />
    <glyph glyph-name="R" unicode="R" horiz-adv-x="430" 
d="M163 543v-212h83q16 0 22 5.5t6 21.5v158q0 16 -6 21.5t-22 5.5h-83zM163 246v-246h-115v631h232q109 0 109 -99v-187q0 -82 -73 -96l105 -249h-124l-96 246h-38z" />
    <glyph glyph-name="S" unicode="S" horiz-adv-x="399" 
d="M248 115v135q0 16 -6 21.5t-22 5.5h-81q-103 0 -103 100v155q0 99 108 99h110q108 0 108 -99v-88h-116v72q0 16 -6 21.5t-22 5.5h-38q-17 0 -23 -5.5t-6 -21.5v-127q0 -16 6 -21.5t23 -5.5h79q105 0 105 -98v-165q0 -99 -109 -99h-108q-109 0 -109 99v87h115v-71
q0 -16 6 -21.5t23 -5.5h38q16 0 22 5.5t6 21.5z" />
    <glyph glyph-name="T" unicode="T" horiz-adv-x="346" 
d="M341 631v-88h-111v-543h-115v543h-110v88h336z" />
    <glyph glyph-name="U" unicode="U" horiz-adv-x="434" 
d="M272 631h115v-532q0 -99 -109 -99h-122q-109 0 -109 99v532h115v-516q0 -16 6 -21.5t22 -5.5h53q17 0 23 5.5t6 21.5v516z" />
    <glyph glyph-name="V" unicode="V" horiz-adv-x="413" 
d="M289 631h118l-125 -631h-151l-125 631h119l81 -510z" />
    <glyph glyph-name="W" unicode="W" horiz-adv-x="675" 
d="M551 631h114l-111 -631h-146l-71 445l-70 -445h-146l-111 631h119l65 -512l83 512h121l82 -512z" />
    <glyph glyph-name="X" unicode="X" horiz-adv-x="416" 
d="M269 322l144 -322h-128l-79 221l-80 -221h-123l139 322l-132 309h129l67 -208l67 208h124z" />
    <glyph glyph-name="Y" unicode="Y" horiz-adv-x="407" 
d="M265 0h-115v200l-147 431h117l86 -324l81 324h117l-139 -428v-203z" />
    <glyph glyph-name="Z" unicode="Z" horiz-adv-x="357" 
d="M345 631v-88l-215 -455h210v-88h-328v88l215 455h-204v88h322z" />
    <glyph glyph-name="bracketleft" unicode="[" horiz-adv-x="313" 
d="M266 697h-97v-772h97v-88h-213v948h213v-88z" />
    <glyph glyph-name="backslash" unicode="\" horiz-adv-x="396" 
d="M16 700h102l283 -803h-102z" />
    <glyph glyph-name="bracketright" unicode="]" horiz-adv-x="313" 
d="M247 785v-948h-213v88h97v772h-97v88h213z" />
    <glyph glyph-name="asciicircum" unicode="^" horiz-adv-x="558" 
d="M195 670h149l129 -364h-118l-86 263l-85 -263h-118z" />
    <glyph glyph-name="underscore" unicode="_" horiz-adv-x="474" 
d="M0 -126v84h474v-84h-474z" />
    <glyph glyph-name="grave" unicode="`" horiz-adv-x="444" 
d="M231 660l86 -137h-94l-113 137h121z" />
    <glyph glyph-name="a" unicode="a" horiz-adv-x="394" 
d="M177 88h30q31 0 31 33v249q0 33 -31 33h-30q-16 0 -22 -5.5t-6 -21.5v-261q0 -16 6 -21.5t22 -5.5zM240 491h112v-491h-114v42q-15 -42 -69 -42h-31q-102 0 -102 99v293q0 99 102 99h31q59 0 71 -48v48z" />
    <glyph glyph-name="b" unicode="b" horiz-adv-x="394" 
d="M245 115v262q0 16 -6 21.5t-22 5.5h-30q-31 0 -31 -34v-249q0 -33 31 -33h30q16 0 22 5.5t6 21.5zM226 492h30q103 0 103 -99v-294q0 -99 -103 -99h-30q-57 0 -71 45v-45h-112v669h113v-219q15 42 70 42z" />
    <glyph glyph-name="c" unicode="c" horiz-adv-x="380" 
d="M352 326h-111v50q0 16 -6 21.5t-22 5.5h-36q-16 0 -22 -5.5t-6 -21.5v-261q0 -16 6 -21.5t22 -5.5h36q16 0 22 5.5t6 21.5v51h111v-67q0 -99 -109 -99h-98q-109 0 -109 99v293q0 99 109 99h98q109 0 109 -99v-66z" />
    <glyph glyph-name="d" unicode="d" horiz-adv-x="394" 
d="M177 88h30q31 0 31 33v249q0 19 -7 26.5t-24 7.5h-30q-16 0 -22 -5.5t-6 -21.5v-262q0 -16 6 -21.5t22 -5.5zM238 669h114v-669h-112v49q-12 -49 -71 -49h-31q-102 0 -102 99v294q0 99 102 99h31q54 0 69 -42v219z" />
    <glyph glyph-name="e" unicode="e" horiz-adv-x="392" 
d="M148 286h104v94q0 16 -6 21.5t-22 5.5h-48q-16 0 -22 -5.5t-6 -21.5v-94zM147 491h106q108 0 108 -99v-179h-213v-101q0 -16 5.5 -21.5t22.5 -5.5h46q16 0 22 5.5t6 21.5v37h110v-50q0 -99 -109 -99h-104q-109 0 -109 99v293q0 99 109 99z" />
    <glyph glyph-name="f" unicode="f" horiz-adv-x="248" 
d="M243 580h-45q-16 0 -22 -5.5t-6 -21.5v-62h73v-88h-73v-403h-113v403h-50v88h50v79q0 99 108 99h78v-89z" />
    <glyph glyph-name="g" unicode="g" horiz-adv-x="394" 
d="M177 101h30q17 0 24 7.5t7 26.5v235q0 33 -31 33h-30q-16 0 -22 -5.5t-6 -21.5v-248q0 -16 6 -21.5t22 -5.5zM240 491h112v-528q0 -99 -109 -99h-189v86h156q16 0 22 5.5t6 21.5v78q-15 -42 -69 -42h-31q-102 0 -102 99v280q0 99 102 99h31q59 0 71 -48v48z" />
    <glyph glyph-name="h" unicode="h" horiz-adv-x="399" 
d="M226 491h30q103 0 103 -99v-392h-114v376q0 16 -6 21.5t-22 5.5h-30q-31 0 -31 -33v-370h-113v669h113v-220q15 42 70 42z" />
    <glyph glyph-name="i" unicode="i" horiz-adv-x="199" 
d="M156 0h-113v491h113v-491zM40 571v99h119v-99h-119z" />
    <glyph glyph-name="j" unicode="j" horiz-adv-x="199" 
d="M43 -23v514h113v-528q0 -99 -109 -99h-55v86h22q17 0 23 5.5t6 21.5zM40 571v99h119v-99h-119z" />
    <glyph glyph-name="k" unicode="k" horiz-adv-x="391" 
d="M43 0v669h113v-669h-113zM390 491l-110 -236l110 -255h-119l-106 255l107 236h118z" />
    <glyph glyph-name="l" unicode="l" horiz-adv-x="199" 
d="M156 0h-113v669h113v-669z" />
    <glyph glyph-name="m" unicode="m" horiz-adv-x="599" 
d="M428 491h31q102 0 102 -99v-392h-113v376q0 16 -6 21.5t-22 5.5h-30q-31 0 -31 -33v-370h-114v376q0 16 -6 21.5t-22 5.5h-30q-31 0 -31 -33v-370h-113v491h112v-45q14 45 71 45h30q74 0 94 -50q14 50 78 50z" />
    <glyph glyph-name="n" unicode="n" horiz-adv-x="399" 
d="M226 491h30q103 0 103 -99v-392h-114v376q0 16 -6 21.5t-22 5.5h-30q-31 0 -31 -33v-370h-113v491h112v-45q14 45 71 45z" />
    <glyph glyph-name="o" unicode="o" horiz-adv-x="402" 
d="M253 112v267q0 16 -6 21.5t-23 5.5h-46q-17 0 -23 -5.5t-6 -21.5v-267q0 -16 6 -21.5t23 -5.5h46q17 0 23 5.5t6 21.5zM145 491h113q106 0 106 -99v-293q0 -99 -106 -99h-113q-107 0 -107 99v293q0 99 107 99z" />
    <glyph glyph-name="p" unicode="p" horiz-adv-x="394" 
d="M245 115v261q0 16 -6 21.5t-22 5.5h-30q-31 0 -31 -33v-249q0 -33 31 -33h30q16 0 22 5.5t6 21.5zM226 491h30q103 0 103 -99v-293q0 -99 -103 -99h-30q-55 0 -70 42v-178h-113v627h112v-45q14 45 71 45z" />
    <glyph glyph-name="q" unicode="q" horiz-adv-x="394" 
d="M177 88h30q31 0 31 33v249q0 33 -31 33h-30q-16 0 -22 -5.5t-6 -21.5v-261q0 -16 6 -21.5t22 -5.5zM240 491h112v-627h-114v178q-15 -42 -69 -42h-31q-102 0 -102 99v293q0 99 102 99h31q59 0 71 -48v48z" />
    <glyph glyph-name="r" unicode="r" horiz-adv-x="266" 
d="M243 493h18v-98h-42q-63 0 -63 -72v-323h-113v491h112v-63q8 29 31 47t57 18z" />
    <glyph glyph-name="s" unicode="s" horiz-adv-x="362" 
d="M221 108v69q0 16 -6 21.5t-23 5.5h-54q-107 0 -107 98v90q0 99 109 99h79q108 0 108 -99v-46h-109v37q0 16 -6 21.5t-22 5.5h-20q-17 0 -23 -5.5t-6 -21.5v-72q0 -16 6 -21.5t23 -5.5h54q108 0 108 -98v-87q0 -99 -109 -99h-81q-109 0 -109 99v45h111v-36q0 -16 6 -21.5
t22 -5.5h20q17 0 23 5.5t6 21.5z" />
    <glyph glyph-name="t" unicode="t" horiz-adv-x="244" 
d="M234 403h-67v-285q0 -16 6 -21.5t23 -5.5h37v-91h-70q-109 0 -109 99v304h-49v88h49v88h113v-88h67v-88z" />
    <glyph glyph-name="u" unicode="u" horiz-adv-x="399" 
d="M243 491h114v-491h-112v49q-12 -49 -71 -49h-31q-102 0 -102 99v392h113v-376q0 -16 6 -21.5t22 -5.5h30q31 0 31 33v370z" />
    <glyph glyph-name="v" unicode="v" horiz-adv-x="358" 
d="M3 491h113l63 -385l63 385h113l-101 -491h-150z" />
    <glyph glyph-name="w" unicode="w" horiz-adv-x="583" 
d="M472 491h106l-96 -491h-133l-59 347l-59 -347h-133l-93 491h106l57 -383l64 383h119l60 -382z" />
    <glyph glyph-name="x" unicode="x" horiz-adv-x="373" 
d="M247 252l123 -252h-117l-68 163l-65 -163h-115l118 251l-115 240h120l58 -153l56 153h116z" />
    <glyph glyph-name="y" unicode="y" horiz-adv-x="377" 
d="M126 -136h-67v87h51q44 0 54 35l8 32h-54l-112 473h117l70 -378l65 378h114l-110 -521q-26 -106 -136 -106z" />
    <glyph glyph-name="z" unicode="z" horiz-adv-x="321" 
d="M308 85v-85h-295v85l172 321h-161v85h280v-85l-174 -321h178z" />
    <glyph glyph-name="braceleft" unicode="{" horiz-adv-x="295" 
d="M217 674v-239q0 -110 -76 -123q76 -8 76 -116v-246q0 -28 30 -28h40v-84h-81q-104 0 -104 103v229q0 52 -18.5 76.5t-59.5 24.5h-14v83h14q41 0 59.5 24t18.5 77v228q0 102 104 102h81v-83h-40q-30 0 -30 -28z" />
    <glyph glyph-name="bar" unicode="|" horiz-adv-x="217" 
d="M53 769h107v-909h-107v909z" />
    <glyph glyph-name="braceright" unicode="}" horiz-adv-x="295" 
d="M77 435v239q0 28 -30 28h-39v83h81q103 0 103 -102v-228q0 -53 18.5 -77t60.5 -24h14v-83h-14q-42 0 -60.5 -24.5t-18.5 -76.5v-229q0 -103 -103 -103h-81v84h39q30 0 30 28v246q0 52 20 82t57 34q-77 13 -77 123z" />
    <glyph glyph-name="asciitilde" unicode="~" horiz-adv-x="581" 
d="M372 211q-36 0 -65 20t-53.5 40t-45.5 20t-27 -8t-6 -26v-46h-104v71q0 44 22 65.5t70 21.5h46q36 0 65 -20t54 -40t45.5 -20t26 7.5t5.5 26.5v45h104v-71q0 -43 -22 -64.5t-71 -21.5h-44z" />
    <glyph glyph-name="uni00A0" unicode="&#xa0;" horiz-adv-x="161" 
 />
    <glyph glyph-name="exclamdown" unicode="&#xa1;" horiz-adv-x="234" 
d="M56 356v135h121v-135h-121zM184 -140h-134l20 419h94z" />
    <glyph glyph-name="cent" unicode="&#xa2;" horiz-adv-x="380" 
d="M352 326h-111v50q0 16 -6 21.5t-22 5.5h-36q-16 0 -22 -5.5t-6 -21.5v-261q0 -16 6 -21.5t22 -5.5h36q16 0 22 5.5t6 21.5v51h111v-67q0 -95 -101 -99v-77h-109v77q-106 1 -106 99v293q0 98 106 99v78h109v-78q101 -4 101 -99v-66z" />
    <glyph glyph-name="sterling" unicode="&#xa3;" horiz-adv-x="421" 
d="M401 88v-88h-373v84q28 2 37.5 22.5t9.5 68.5v85h-47v84h47v188q0 99 109 99h104q109 0 109 -99v-92h-115v76q0 16 -6 21.5t-23 5.5h-34q-16 0 -22 -5.5t-6 -21.5v-172h136v-84h-136v-94q0 -60 -27 -78h237z" />
    <glyph glyph-name="currency" unicode="&#xa4;" horiz-adv-x="516" 
d="M239 182h41q29 0 40.5 9.5t11.5 41.5v132q0 32 -11.5 41.5t-40.5 9.5h-41q-29 0 -40 -9.5t-11 -41.5v-132q0 -32 11 -41.5t40 -9.5zM430 371v-144q0 -36 -9 -62l42 -42l-70 -71l-52 52q-17 -3 -36 -3h-90q-25 0 -41 4l-53 -53l-71 71l48 48q-7 22 -7 56v144q0 38 10 64
l-51 51l71 70l62 -61q20 2 32 2h90q19 0 27 -1l61 60l70 -70l-45 -45q12 -28 12 -70z" />
    <glyph glyph-name="yen" unicode="&#xa5;" horiz-adv-x="425" 
d="M400 353v-79h-103l-18 -52h121v-78h-128v-144h-115v144h-129v78h122l-17 52h-105v79h78l-95 278h116l87 -314l84 314h117l-92 -278h77z" />
    <glyph glyph-name="brokenbar" unicode="&#xa6;" horiz-adv-x="217" 
d="M48 254h116v-350h-116v350zM164 376h-116v349h116v-349z" />
    <glyph glyph-name="section" unicode="&#xa7;" horiz-adv-x="784" 
d="M459 380h-64q-16 0 -22 -5.5t-6 -21.5v-88q0 -16 5.5 -21.5t22.5 -5.5h64q17 0 22.5 5.5t5.5 21.5v88q0 16 -6 21.5t-22 5.5zM599 528h-113v32q0 16 -6 21.5t-23 5.5h-35q-16 0 -22 -5.5t-6 -21.5v-70q0 -16 6 -21.5t22 -5.5h65q109 0 109 -99v-77q0 -68 -36 -91
q13 -23 13 -57v-91q0 -99 -109 -99h-100q-109 0 -109 99v42h113v-33q0 -16 6 -21.5t22 -5.5h35q17 0 23 5.5t6 21.5v70q0 16 -6 21.5t-23 5.5h-64q-109 0 -109 99v71q0 70 38 93q-16 23 -16 61v92q0 98 109 98h101q109 0 109 -98v-42z" />
    <glyph glyph-name="dieresis" unicode="&#xa8;" horiz-adv-x="444" 
d="M62 541v105h116v-105h-116zM266 541v105h116v-105h-116z" />
    <glyph glyph-name="copyright" unicode="&#xa9;" horiz-adv-x="722" 
d="M691 340v-54q0 -144 -53 -215t-176 -71h-192q-124 0 -176.5 71t-52.5 215v54q0 144 53 217.5t176 73.5h192q123 0 176 -73.5t53 -217.5zM285 77h162q81 0 115 48t34 152v72q0 105 -34.5 155.5t-114.5 50.5h-162q-80 0 -115 -50.5t-35 -155.5v-72q0 -104 34.5 -152
t115.5 -48zM409 249v28h90v-43q0 -82 -88 -82h-89q-89 0 -89 82v171q0 81 89 81h89q88 0 88 -81v-43h-90v28q0 14 -5 19t-20 5h-36q-15 0 -20 -5t-5 -19v-141q0 -14 5 -19t20 -5h36q15 0 20 5t5 19z" />
    <glyph glyph-name="ordfeminine" unicode="&#xaa;" horiz-adv-x="280" 
d="M118 346h37q22 0 22 24v177q0 23 -22 23h-37q-11 0 -15.5 -4t-4.5 -15v-186q0 -11 4.5 -15t15.5 -4zM178 631h72v-347h-73v27q-9 -27 -45 -27h-34q-73 0 -73 70v207q0 70 73 70h32q39 0 48 -31v31z" />
    <glyph glyph-name="guillemotleft" unicode="&#xab;" horiz-adv-x="493" 
d="M147 102l-116 154l116 154h113l-117 -154l117 -154h-113zM352 102l-116 154l116 154h113l-116 -154l116 -154h-113z" />
    <glyph glyph-name="logicalnot" unicode="&#xac;" horiz-adv-x="491" 
d="M443 405v-261h-84v146h-320v115h404z" />
    <glyph glyph-name="uni00AD" unicode="&#xad;" horiz-adv-x="323" 
d="M40 255v83h243v-83h-243z" />
    <glyph glyph-name="registered" unicode="&#xae;" horiz-adv-x="433" 
d="M400 541v-30q0 -81 -30 -121t-100 -40h-108q-70 0 -99.5 40t-29.5 121v30q0 81 29.5 122.5t99.5 41.5h108q70 0 100 -41.5t30 -122.5zM171 395h91q46 0 65 26t19 84v41q0 59 -19.5 86.5t-64.5 27.5h-91q-45 0 -64.5 -28t-19.5 -86v-41q0 -58 19.5 -84t64.5 -26zM159 630
h79q38 0 38 -35v-55q0 -28 -24 -34l35 -79h-45l-32 77h-8v-77h-43v203zM234 545v46q0 7 -7 7h-25v-60h25q7 0 7 7z" />
    <glyph glyph-name="macron" unicode="&#xaf;" horiz-adv-x="444" 
d="M70 552v79h303v-79h-303z" />
    <glyph glyph-name="degree" unicode="&#xb0;" horiz-adv-x="412" 
d="M359 533v-104q0 -98 -106 -98h-97q-106 0 -106 98v104q0 98 106 98h97q106 0 106 -98zM254 435v92q0 15 -6 20.5t-23 5.5h-41q-17 0 -23 -5.5t-6 -20.5v-92q0 -15 6 -20.5t23 -5.5h41q17 0 23 5.5t6 20.5z" />
    <glyph glyph-name="plusminus" unicode="&#xb1;" horiz-adv-x="453" 
d="M28 161v89h397v-89h-397zM282 446h143v-87h-143v-78h-111v78h-143v87h143v77h111v-77z" />
    <glyph glyph-name="twosuperior" unicode="&#xb2;" horiz-adv-x="227" 
d="M87 562v-50h-73v65q0 54 59 54h74q60 0 60 -54v-36q0 -53 -29 -89l-76 -111h106v-57h-194v53l101 137q18 23 18 65v23q0 15 -15 15h-16q-15 0 -15 -15z" />
    <glyph glyph-name="threesuperior" unicode="&#xb3;" horiz-adv-x="234" 
d="M88 562v-41h-73v56q0 54 60 54h75q60 0 60 -54v-76q0 -35 -23 -42q23 -8 23 -40v-81q0 -54 -60 -54h-75q-60 0 -60 54v56h73v-41q0 -15 16 -15h18q9 0 12 3t3 12v64q0 9 -3 12t-12 3h-33v52h33q15 0 15 15v63q0 15 -15 15h-18q-16 0 -16 -15z" />
    <glyph glyph-name="acute" unicode="&#xb4;" horiz-adv-x="444" 
d="M117 523l86 137h121l-113 -137h-94z" />
    <glyph glyph-name="uni00B5" unicode="&#xb5;" horiz-adv-x="405" 
d="M243 491h113v-491h-112v49q-12 -49 -71 -49h-20v-136h-113v627h113v-376q0 -16 6 -21.5t23 -5.5h30q31 0 31 33v370z" />
    <glyph glyph-name="paragraph" unicode="&#xb6;" horiz-adv-x="525" 
d="M300 631v-767h-98v357h-50q-109 0 -109 99v212q0 99 109 99h148zM369 631h97v-767h-97v767z" />
    <glyph glyph-name="periodcentered" unicode="&#xb7;" horiz-adv-x="233" 
d="M38 259v130h122v-130h-122z" />
    <glyph glyph-name="cedilla" unicode="&#xb8;" horiz-adv-x="444" 
d="M204 -95v46h107v-55q0 -104 -115 -104h-67v83h44q31 0 31 30z" />
    <glyph glyph-name="onesuperior" unicode="&#xb9;" horiz-adv-x="166" 
d="M128 631v-347h-75v293h-42v54h117z" />
    <glyph glyph-name="ordmasculine" unicode="&#xba;" horiz-adv-x="272" 
d="M174 357v201q0 11 -4.5 15t-16.5 4h-34q-12 0 -16 -4t-4 -15v-201q0 -11 4 -15t16 -4h34q12 0 16.5 4t4.5 15zM101 631h70q76 0 76 -70v-207q0 -70 -76 -70h-70q-75 0 -75 70v207q0 70 75 70z" />
    <glyph glyph-name="guillemotright" unicode="&#xbb;" horiz-adv-x="493" 
d="M260 256l-116 -154h-113l116 154l-116 154h113zM465 256l-116 -154h-113l116 154l-116 154h113z" />
    <glyph glyph-name="questiondown" unicode="&#xbf;" horiz-adv-x="379" 
d="M252 491v-135h-122v135h122zM229 42h116v-84q0 -98 -109 -98h-107q-109 0 -109 98v158q0 98 109 98h8l5 65h96l10 -138h-86q-15 0 -20.5 -6t-5.5 -22v-142q0 -16 5.5 -22t20.5 -6h40q16 0 21.5 6t5.5 22v71z" />
    <glyph glyph-name="Agrave" unicode="&#xc0;" horiz-adv-x="431" 
d="M253 663h-94l-113 137h121zM160 218h107l-55 302zM307 0l-24 131h-138l-22 -131h-115l127 631h155l133 -631h-116z" />
    <glyph glyph-name="Aacute" unicode="&#xc1;" horiz-adv-x="431" 
d="M374 800l-113 -137h-94l86 137h121zM160 218h107l-55 302zM307 0l-24 131h-138l-22 -131h-115l127 631h155l133 -631h-116z" />
    <glyph glyph-name="Acircumflex" unicode="&#xc2;" horiz-adv-x="431" 
d="M212 740l-52 -77h-112l106 137h117l106 -137h-112zM160 218h107l-55 302zM307 0l-24 131h-138l-22 -131h-115l127 631h155l133 -631h-116z" />
    <glyph glyph-name="Atilde" unicode="&#xc3;" horiz-adv-x="431" 
d="M144 683v-20h-94v32q0 42 19 63.5t65 21.5h12q28 0 62.5 -21.5t42.5 -21.5q18 0 18 23v20h94v-35q0 -41 -19 -61.5t-65 -20.5h-10q-28 0 -63.5 21.5t-43.5 21.5q-18 0 -18 -23zM160 218h107l-55 302zM307 0l-24 131h-138l-22 -131h-115l127 631h155l133 -631h-116z" />
    <glyph glyph-name="Adieresis" unicode="&#xc4;" horiz-adv-x="431" 
d="M372 767v-105h-116v105h116zM168 767v-105h-116v105h116zM160 218h107l-55 302zM307 0l-24 131h-138l-22 -131h-115l127 631h155l133 -631h-116z" />
    <glyph glyph-name="Aring" unicode="&#xc5;" horiz-adv-x="431" 
d="M171 750v-9q0 -14 5 -18.5t20 -4.5h34q15 0 20 4.5t5 18.5v9q0 14 -5 19t-20 5h-34q-15 0 -20 -5t-5 -19zM249 662h-72q-81 0 -81 75v17q0 76 81 76h72q81 0 81 -76v-17q0 -75 -81 -75zM160 218h107l-55 302zM307 0l-24 131h-138l-22 -131h-115l127 631h155l133 -631
h-116z" />
    <glyph glyph-name="AE" unicode="&#xc6;" horiz-adv-x="634" 
d="M310 225v293l-106 -293h106zM421 88h193v-88h-304v139h-138l-50 -139h-114l239 631h359v-88h-185v-175h155v-89h-155v-191z" />
    <glyph glyph-name="Ccedilla" unicode="&#xc7;" horiz-adv-x="411" 
d="M158 -95v46h107v-55q0 -104 -115 -104h-67v83h44q31 0 31 30zM378 422h-116v98q0 16 -6 21.5t-22 5.5h-47q-16 0 -22 -5.5t-6 -21.5v-410q0 -16 6 -21.5t22 -5.5h47q16 0 22 5.5t6 21.5v96h116v-108q0 -99 -109 -99h-117q-109 0 -109 99v434q0 99 109 99h117
q109 0 109 -99v-110z" />
    <glyph glyph-name="Egrave" unicode="&#xc8;" horiz-adv-x="374" 
d="M246 663h-94l-113 137h121zM164 88h192v-88h-308v631h300v-88h-184v-175h155v-89h-155v-191z" />
    <glyph glyph-name="Eacute" unicode="&#xc9;" horiz-adv-x="374" 
d="M356 800l-113 -137h-94l86 137h121zM164 279v-191h192v-88h-308v631h300v-88h-184v-175h155v-89h-155z" />
    <glyph glyph-name="Ecircumflex" unicode="&#xca;" horiz-adv-x="374" 
d="M200 740l-52 -77h-112l106 137h117l106 -137h-112zM164 279v-191h192v-88h-308v631h300v-88h-184v-175h155v-89h-155z" />
    <glyph glyph-name="Edieresis" unicode="&#xcb;" horiz-adv-x="396" 
d="M154 767v-105h-116v105h116zM164 279v-191h192v-88h-308v631h300v-88h-184v-175h155v-89h-155zM242 767h116v-105h-116v105z" />
    <glyph glyph-name="Igrave" unicode="&#xcc;" horiz-adv-x="223" 
d="M54 631h115v-631h-115v631zM72 800l86 -137h-94l-113 137h121z" />
    <glyph glyph-name="Iacute" unicode="&#xcd;" horiz-adv-x="223" 
d="M54 631h115v-631h-115v631zM65 663l86 137h121l-113 -137h-94z" />
    <glyph glyph-name="Icircumflex" unicode="&#xce;" horiz-adv-x="223" 
d="M54 631h115v-631h-115v631zM-53 663l106 137h117l106 -137h-112l-53 77l-52 -77h-112z" />
    <glyph glyph-name="Idieresis" unicode="&#xcf;" horiz-adv-x="223" 
d="M-49 662v105h116v-105h-116zM155 662v105h116v-105h-116zM54 631h115v-631h-115v631z" />
    <glyph glyph-name="Eth" unicode="&#xd0;" horiz-adv-x="445" 
d="M286 111v409q0 16 -6 21.5t-22 5.5h-90v-187h69v-83h-69v-193h90q16 0 22 5.5t6 21.5zM53 631h240q109 0 109 -99v-433q0 -99 -109 -99h-240v277h-52v83h52v271z" />
    <glyph glyph-name="Ntilde" unicode="&#xd1;" horiz-adv-x="446" 
d="M292 631h105v-631h-108l-135 418v-418h-106v631h111l133 -412v412zM286 663q-28 0 -63.5 21.5t-43.5 21.5q-18 0 -18 -23v-20h-94v32q0 42 19 63.5t65 21.5h12q28 0 62.5 -21.5t42.5 -21.5q18 0 18 23v20h94v-35q0 -41 -19 -61.5t-65 -20.5h-10z" />
    <glyph glyph-name="Ograve" unicode="&#xd2;" horiz-adv-x="429" 
d="M254 663h-94l-113 137h121zM269 115v401q0 16 -6 21.5t-22 5.5h-53q-17 0 -23 -5.5t-6 -21.5v-401q0 -16 6 -21.5t23 -5.5h53q16 0 22 5.5t6 21.5zM153 631h122q109 0 109 -99v-433q0 -99 -109 -99h-122q-109 0 -109 99v433q0 99 109 99z" />
    <glyph glyph-name="Oacute" unicode="&#xd3;" horiz-adv-x="429" 
d="M371 800l-113 -137h-94l86 137h121zM269 115v401q0 16 -6 21.5t-22 5.5h-53q-17 0 -23 -5.5t-6 -21.5v-401q0 -16 6 -21.5t23 -5.5h53q16 0 22 5.5t6 21.5zM153 631h122q109 0 109 -99v-433q0 -99 -109 -99h-122q-109 0 -109 99v433q0 99 109 99z" />
    <glyph glyph-name="Ocircumflex" unicode="&#xd4;" horiz-adv-x="429" 
d="M212 740l-52 -77h-112l106 137h117l106 -137h-112zM269 115v401q0 16 -6 21.5t-22 5.5h-53q-17 0 -23 -5.5t-6 -21.5v-401q0 -16 6 -21.5t23 -5.5h53q16 0 22 5.5t6 21.5zM153 631h122q109 0 109 -99v-433q0 -99 -109 -99h-122q-109 0 -109 99v433q0 99 109 99z" />
    <glyph glyph-name="Otilde" unicode="&#xd5;" horiz-adv-x="429" 
d="M150 683v-20h-94v32q0 42 19 63.5t65 21.5h12q28 0 62.5 -21.5t42.5 -21.5q18 0 18 23v20h94v-35q0 -41 -19 -61.5t-65 -20.5h-10q-28 0 -63.5 21.5t-43.5 21.5q-18 0 -18 -23zM269 115v401q0 16 -6 21.5t-22 5.5h-53q-17 0 -23 -5.5t-6 -21.5v-401q0 -16 6 -21.5
t23 -5.5h53q16 0 22 5.5t6 21.5zM153 631h122q109 0 109 -99v-433q0 -99 -109 -99h-122q-109 0 -109 99v433q0 99 109 99z" />
    <glyph glyph-name="Odieresis" unicode="&#xd6;" horiz-adv-x="422" 
d="M374 767v-105h-116v105h116zM170 767v-105h-116v105h116zM269 115v401q0 16 -6 21.5t-22 5.5h-53q-17 0 -23 -5.5t-6 -21.5v-401q0 -16 6 -21.5t23 -5.5h53q16 0 22 5.5t6 21.5zM153 631h122q109 0 109 -99v-433q0 -99 -109 -99h-122q-109 0 -109 99v433q0 99 109 99z
" />
    <glyph glyph-name="multiply" unicode="&#xd7;" horiz-adv-x="408" 
d="M385 424l-113 -113l113 -113l-68 -68l-113 113l-113 -113l-68 68l113 113l-113 113l68 68l113 -113l113 113z" />
    <glyph glyph-name="Oslash" unicode="&#xd8;" horiz-adv-x="434" 
d="M277 109v274l-120 -278q1 -13 7 -18t22 -5h62q17 0 23 5.5t6 21.5zM157 522v-280l120 279v1q0 16 -6 21.5t-23 5.5h-62q-17 0 -23 -5.5t-6 -21.5zM387 532v-433q0 -99 -109 -99h-122q-22 0 -42 5l-11 -25h-59l23 52q-20 24 -20 67v433q0 99 109 99h122q24 0 44 -5l11 25
h60l-24 -55q18 -24 18 -64z" />
    <glyph glyph-name="Ugrave" unicode="&#xd9;" horiz-adv-x="434" 
d="M263 663h-94l-113 137h121zM272 631h115v-532q0 -99 -109 -99h-122q-109 0 -109 99v532h115v-516q0 -16 6 -21.5t22 -5.5h53q17 0 23 5.5t6 21.5v516z" />
    <glyph glyph-name="Uacute" unicode="&#xda;" horiz-adv-x="434" 
d="M373 800l-113 -137h-94l86 137h121zM272 631h115v-532q0 -99 -109 -99h-122q-109 0 -109 99v532h115v-516q0 -16 6 -21.5t22 -5.5h53q17 0 23 5.5t6 21.5v516z" />
    <glyph glyph-name="Ucircumflex" unicode="&#xdb;" horiz-adv-x="434" 
d="M216 740l-52 -77h-112l106 137h117l106 -137h-112zM272 631h115v-532q0 -99 -109 -99h-122q-109 0 -109 99v532h115v-516q0 -16 6 -21.5t22 -5.5h53q17 0 23 5.5t6 21.5v516z" />
    <glyph glyph-name="Udieresis" unicode="&#xdc;" horiz-adv-x="434" 
d="M376 767v-105h-116v105h116zM172 767v-105h-116v105h116zM272 631h115v-532q0 -99 -109 -99h-122q-109 0 -109 99v532h115v-516q0 -16 6 -21.5t22 -5.5h53q17 0 23 5.5t6 21.5v516z" />
    <glyph glyph-name="Yacute" unicode="&#xdd;" horiz-adv-x="407" 
d="M362 800l-113 -137h-94l86 137h121zM265 0h-115v200l-147 431h117l86 -324l81 324h117l-139 -428v-203z" />
    <glyph glyph-name="Thorn" unicode="&#xde;" horiz-adv-x="428" 
d="M272 233v164q0 16 -6 21.5t-22 5.5h-78v-218h78q16 0 22 5.5t6 21.5zM166 510h112q109 0 109 -99v-192q0 -98 -109 -98h-112v-121h-115v631h115v-121z" />
    <glyph glyph-name="germandbls" unicode="&#xdf;" horiz-adv-x="535" 
d="M218 155h113v-45q0 -16 5 -21t21 -6h13q16 0 22 5.5t6 21.5v69q0 16 -6 21.5t-22 5.5h-46q-56 0 -80.5 25t-24.5 74v46q0 94 103 94q20 0 26 4.5t6 18.5v27q0 16 -5.5 22t-21.5 6h-138q-16 0 -22.5 -6t-6.5 -22v-495h-115v514q0 48 24.5 73t80.5 25h217q105 0 105 -95
v-66q0 -43 -21 -62.5t-73 -19.5h-20q-17 0 -23 -5.5t-6 -21.5v-28q0 -16 6 -21.5t23 -5.5h44q108 0 108 -99v-89q0 -49 -24 -74t-80 -25h-82q-106 1 -106 99v56z" />
    <glyph glyph-name="agrave" unicode="&#xe0;" horiz-adv-x="394" 
d="M271 523h-94l-113 137h121zM177 88h30q31 0 31 33v249q0 33 -31 33h-30q-16 0 -22 -5.5t-6 -21.5v-261q0 -16 6 -21.5t22 -5.5zM240 491h112v-491h-114v42q-15 -42 -69 -42h-31q-102 0 -102 99v293q0 99 102 99h31q59 0 71 -48v48z" />
    <glyph glyph-name="aacute" unicode="&#xe1;" horiz-adv-x="394" 
d="M362 660l-113 -137h-94l86 137h121zM177 88h30q31 0 31 33v249q0 33 -31 33h-30q-16 0 -22 -5.5t-6 -21.5v-261q0 -16 6 -21.5t22 -5.5zM240 491h112v-491h-114v42q-15 -42 -69 -42h-31q-102 0 -102 99v293q0 99 102 99h31q59 0 71 -48v48z" />
    <glyph glyph-name="acircumflex" unicode="&#xe2;" horiz-adv-x="394" 
d="M199 600l-52 -77h-112l106 137h117l106 -137h-112zM177 88h30q31 0 31 33v249q0 33 -31 33h-30q-16 0 -22 -5.5t-6 -21.5v-261q0 -16 6 -21.5t22 -5.5zM240 491h112v-491h-114v42q-15 -42 -69 -42h-31q-102 0 -102 99v293q0 99 102 99h31q59 0 71 -48v48z" />
    <glyph glyph-name="atilde" unicode="&#xe3;" horiz-adv-x="394" 
d="M131 553v-20h-94v32q0 42 19 63.5t65 21.5h12q28 0 62.5 -21.5t42.5 -21.5q18 0 18 23v20h94v-35q0 -41 -19 -61.5t-65 -20.5h-10q-28 0 -63.5 21.5t-43.5 21.5q-18 0 -18 -23zM177 88h30q31 0 31 33v249q0 33 -31 33h-30q-16 0 -22 -5.5t-6 -21.5v-261q0 -16 6 -21.5
t22 -5.5zM240 491h112v-491h-114v42q-15 -42 -69 -42h-31q-102 0 -102 99v293q0 99 102 99h31q59 0 71 -48v48z" />
    <glyph glyph-name="adieresis" unicode="&#xe4;" horiz-adv-x="394" 
d="M156 646v-105h-116v105h116zM177 88h30q31 0 31 33v249q0 33 -31 33h-30q-16 0 -22 -5.5t-6 -21.5v-261q0 -16 6 -21.5t22 -5.5zM240 491h112v-491h-114v42q-15 -42 -69 -42h-31q-102 0 -102 99v293q0 99 102 99h31q59 0 71 -48v48zM244 646h116v-105h-116v105z" />
    <glyph glyph-name="aring" unicode="&#xe5;" horiz-adv-x="394" 
d="M158 617v-9q0 -14 5 -18.5t20 -4.5h34q15 0 20 4.5t5 18.5v9q0 14 -5 19t-20 5h-34q-15 0 -20 -5t-5 -19zM236 529h-72q-81 0 -81 75v17q0 76 81 76h72q81 0 81 -76v-17q0 -75 -81 -75zM177 88h30q31 0 31 33v249q0 33 -31 33h-30q-16 0 -22 -5.5t-6 -21.5v-261
q0 -16 6 -21.5t22 -5.5zM240 491h112v-491h-114v42q-15 -42 -69 -42h-31q-102 0 -102 99v293q0 99 102 99h31q59 0 71 -48v48z" />
    <glyph glyph-name="ae" unicode="&#xe6;" horiz-adv-x="609" 
d="M182 88h30q30 0 31 30v88l-89 -36v-55q0 -16 6 -21.5t22 -5.5zM427 405h-44q-17 0 -23 -5.5t-6 -21.5v-90h101v90q0 16 -6 21.5t-22 5.5zM559 211h-205v-98q0 -16 6 -21.5t23 -5.5h42q16 0 22 5.5t6 21.5v36h112v-50q0 -99 -109 -99h-73q-67 0 -88 46q-8 -20 -30.5 -33
t-51.5 -13h-70q-102 0 -102 99v105l202 83v86q-1 30 -31 30h-30q-16 0 -22 -5.5t-6 -21.5v-65h-113v81q0 99 102 99h70q29 0 51.5 -13t30.5 -33q21 46 89 46h73q109 0 109 -99v-171h-7v-10z" />
    <glyph glyph-name="ccedilla" unicode="&#xe7;" horiz-adv-x="380" 
d="M145 -95v46h107v-55q0 -104 -115 -104h-67v83h44q31 0 31 30zM352 326h-111v50q0 16 -6 21.5t-22 5.5h-36q-16 0 -22 -5.5t-6 -21.5v-261q0 -16 6 -21.5t22 -5.5h36q16 0 22 5.5t6 21.5v51h111v-67q0 -99 -109 -99h-98q-109 0 -109 99v293q0 99 109 99h98q109 0 109 -99
v-66z" />
    <glyph glyph-name="egrave" unicode="&#xe8;" horiz-adv-x="392" 
d="M239 523h-94l-113 137h121zM148 286h104v94q0 16 -6 21.5t-22 5.5h-48q-16 0 -22 -5.5t-6 -21.5v-94zM147 491h106q108 0 108 -99v-179h-213v-101q0 -16 5.5 -21.5t22.5 -5.5h46q16 0 22 5.5t6 21.5v37h110v-50q0 -99 -109 -99h-104q-109 0 -109 99v293q0 99 109 99z" />
    <glyph glyph-name="eacute" unicode="&#xe9;" horiz-adv-x="392" 
d="M359 660l-113 -137h-94l86 137h121zM148 286h104v94q0 16 -6 21.5t-22 5.5h-48q-16 0 -22 -5.5t-6 -21.5v-94zM147 491h106q108 0 108 -99v-179h-213v-101q0 -16 5.5 -21.5t22.5 -5.5h46q16 0 22 5.5t6 21.5v37h110v-50q0 -99 -109 -99h-104q-109 0 -109 99v293
q0 99 109 99z" />
    <glyph glyph-name="ecircumflex" unicode="&#xea;" horiz-adv-x="391" 
d="M201 600l-52 -77h-112l106 137h117l106 -137h-112zM148 286h104v94q0 16 -6 21.5t-22 5.5h-48q-16 0 -22 -5.5t-6 -21.5v-94zM147 491h106q108 0 108 -99v-179h-213v-101q0 -16 5.5 -21.5t22.5 -5.5h46q16 0 22 5.5t6 21.5v37h110v-50q0 -99 -109 -99h-104
q-109 0 -109 99v293q0 99 109 99z" />
    <glyph glyph-name="edieresis" unicode="&#xeb;" horiz-adv-x="391" 
d="M357 646v-105h-116v105h116zM153 646v-105h-116v105h116zM148 286h104v94q0 16 -6 21.5t-22 5.5h-48q-16 0 -22 -5.5t-6 -21.5v-94zM147 491h106q108 0 108 -99v-179h-213v-101q0 -16 5.5 -21.5t22.5 -5.5h46q16 0 22 5.5t6 21.5v37h110v-50q0 -99 -109 -99h-104
q-109 0 -109 99v293q0 99 109 99z" />
    <glyph glyph-name="igrave" unicode="&#xec;" horiz-adv-x="199" 
d="M156 0h-113v491h113v-491zM61 660l86 -137h-94l-113 137h121z" />
    <glyph glyph-name="iacute" unicode="&#xed;" horiz-adv-x="199" 
d="M156 0h-113v491h113v-491zM49 523l86 137h121l-113 -137h-94z" />
    <glyph glyph-name="icircumflex" unicode="&#xee;" horiz-adv-x="199" 
d="M156 0h-113v491h113v-491zM-66 523l106 137h117l106 -137h-112l-53 77l-52 -77h-112z" />
    <glyph glyph-name="idieresis" unicode="&#xef;" horiz-adv-x="199" 
d="M156 0h-113v491h113v-491zM-62 541v105h116v-105h-116zM142 541v105h116v-105h-116z" />
    <glyph glyph-name="eth" unicode="&#xf0;" horiz-adv-x="412" 
d="M255 115v188q0 11 -2 33h-76q-17 0 -22.5 -6t-5.5 -22v-193q0 -16 6 -21.5t22 -5.5h50q16 0 22 5.5t6 21.5zM367 308v-209q0 -99 -109 -99h-113q-109 0 -109 99v221q0 99 109 99h89q-15 42 -45 88l-100 -34v64l60 20q-35 40 -80 74h157q19 -17 35 -36l89 30v-64l-52 -17
q69 -107 69 -236z" />
    <glyph glyph-name="ntilde" unicode="&#xf1;" horiz-adv-x="399" 
d="M129 553v-20h-94v32q0 42 19 63.5t65 21.5h12q28 0 62.5 -21.5t42.5 -21.5q18 0 18 23v20h94v-35q0 -41 -19 -61.5t-65 -20.5h-10q-28 0 -63.5 21.5t-43.5 21.5q-18 0 -18 -23zM226 491h30q103 0 103 -99v-392h-114v376q0 16 -6 21.5t-22 5.5h-30q-31 0 -31 -33v-370
h-113v491h112v-45q14 45 71 45z" />
    <glyph glyph-name="ograve" unicode="&#xf2;" horiz-adv-x="402" 
d="M244 523h-94l-113 137h121zM253 112v267q0 16 -6 21.5t-23 5.5h-46q-17 0 -23 -5.5t-6 -21.5v-267q0 -16 6 -21.5t23 -5.5h46q17 0 23 5.5t6 21.5zM145 491h113q106 0 106 -99v-293q0 -99 -106 -99h-113q-107 0 -107 99v293q0 99 107 99z" />
    <glyph glyph-name="oacute" unicode="&#xf3;" horiz-adv-x="402" 
d="M361 660l-113 -137h-94l86 137h121zM253 112v267q0 16 -6 21.5t-23 5.5h-46q-17 0 -23 -5.5t-6 -21.5v-267q0 -16 6 -21.5t23 -5.5h46q17 0 23 5.5t6 21.5zM145 491h113q106 0 106 -99v-293q0 -99 -106 -99h-113q-107 0 -107 99v293q0 99 107 99z" />
    <glyph glyph-name="ocircumflex" unicode="&#xf4;" horiz-adv-x="402" 
d="M199 600l-52 -77h-112l106 137h117l106 -137h-112zM253 112v267q0 16 -6 21.5t-23 5.5h-46q-17 0 -23 -5.5t-6 -21.5v-267q0 -16 6 -21.5t23 -5.5h46q17 0 23 5.5t6 21.5zM145 491h113q106 0 106 -99v-293q0 -99 -106 -99h-113q-107 0 -107 99v293q0 99 107 99z" />
    <glyph glyph-name="otilde" unicode="&#xf5;" horiz-adv-x="402" 
d="M133 553v-20h-94v32q0 42 19 63.5t65 21.5h12q28 0 62.5 -21.5t42.5 -21.5q18 0 18 23v20h94v-35q0 -41 -19 -61.5t-65 -20.5h-10q-28 0 -63.5 21.5t-43.5 21.5q-18 0 -18 -23zM253 112v267q0 16 -6 21.5t-23 5.5h-46q-17 0 -23 -5.5t-6 -21.5v-267q0 -16 6 -21.5
t23 -5.5h46q17 0 23 5.5t6 21.5zM145 491h113q106 0 106 -99v-293q0 -99 -106 -99h-113q-107 0 -107 99v293q0 99 107 99z" />
    <glyph glyph-name="odieresis" unicode="&#xf6;" horiz-adv-x="402" 
d="M361 646v-105h-116v105h116zM157 646v-105h-116v105h116zM253 112v267q0 16 -6 21.5t-23 5.5h-46q-17 0 -23 -5.5t-6 -21.5v-267q0 -16 6 -21.5t23 -5.5h46q17 0 23 5.5t6 21.5zM145 491h113q106 0 106 -99v-293q0 -99 -106 -99h-113q-107 0 -107 99v293q0 99 107 99z
" />
    <glyph glyph-name="divide" unicode="&#xf7;" horiz-adv-x="447" 
d="M25 270v89h397v-89h-397zM168 511h111v-95h-111v95zM168 214h111v-96h-111v96z" />
    <glyph glyph-name="oslash" unicode="&#xf8;" horiz-adv-x="408" 
d="M259 107v187l-107 -206q5 -9 26 -9h52q17 0 23 6t6 22zM149 384v-187l107 206q-5 9 -26 9h-52q-17 0 -23 -5.5t-6 -22.5zM367 392v-293q0 -99 -107 -99h-113q-23 0 -39 4l-12 -24h-60l26 50q-21 22 -21 69v293q0 99 106 99h113q24 0 40 -4l12 24h60l-26 -50
q21 -24 21 -69z" />
    <glyph glyph-name="ugrave" unicode="&#xf9;" horiz-adv-x="399" 
d="M249 523h-94l-113 137h121zM243 491h114v-491h-112v49q-12 -49 -71 -49h-31q-102 0 -102 99v392h113v-376q0 -16 6 -21.5t22 -5.5h30q31 0 31 33v370z" />
    <glyph glyph-name="uacute" unicode="&#xfa;" horiz-adv-x="399" 
d="M355 660l-113 -137h-94l86 137h121zM243 491h114v-491h-112v49q-12 -49 -71 -49h-31q-102 0 -102 99v392h113v-376q0 -16 6 -21.5t22 -5.5h30q31 0 31 33v370z" />
    <glyph glyph-name="ucircumflex" unicode="&#xfb;" horiz-adv-x="397" 
d="M196 600l-52 -77h-112l106 137h117l106 -137h-112zM243 491h114v-491h-112v49q-12 -49 -71 -49h-31q-102 0 -102 99v392h113v-376q0 -16 6 -21.5t22 -5.5h30q31 0 31 33v370z" />
    <glyph glyph-name="udieresis" unicode="&#xfc;" horiz-adv-x="404" 
d="M355 646v-105h-116v105h116zM151 646v-105h-116v105h116zM243 491h114v-491h-112v49q-12 -49 -71 -49h-31q-102 0 -102 99v392h113v-376q0 -16 6 -21.5t22 -5.5h30q31 0 31 33v370z" />
    <glyph glyph-name="yacute" unicode="&#xfd;" horiz-adv-x="377" 
d="M126 -136h-67v87h51q44 0 54 35l8 32h-54l-112 473h117l70 -378l65 378h114l-110 -521q-26 -106 -136 -106zM145 523l86 137h121l-113 -137h-94z" />
    <glyph glyph-name="thorn" unicode="&#xfe;" horiz-adv-x="399" 
d="M243 115v261q0 16 -6 21.5t-23 5.5h-29q-31 0 -31 -33v-249q0 -33 31 -33h29q17 0 23 5.5t6 21.5zM223 491h30q103 0 103 -99v-293q0 -99 -103 -99h-30q-54 0 -69 42v-178h-114v805h112v-226q12 48 71 48z" />
    <glyph glyph-name="ydieresis" unicode="&#xff;" horiz-adv-x="393" 
d="M29 541v105h116v-105h-116zM233 541v105h116v-105h-116zM126 -136h-67v87h51q44 0 54 35l8 32h-54l-112 473h117l70 -378l65 378h114l-110 -521q-26 -106 -136 -106z" />
    <glyph glyph-name="Amacron" unicode="&#x100;" horiz-adv-x="431" 
d="M364 741v-79h-303v79h303zM160 218h107l-55 302zM307 0l-24 131h-138l-22 -131h-115l127 631h155l133 -631h-116z" />
    <glyph glyph-name="amacron" unicode="&#x101;" horiz-adv-x="394" 
d="M346 631v-79h-303v79h303zM177 88h30q31 0 31 33v249q0 33 -31 33h-30q-16 0 -22 -5.5t-6 -21.5v-261q0 -16 6 -21.5t22 -5.5zM240 491h112v-491h-114v42q-15 -42 -69 -42h-31q-102 0 -102 99v293q0 99 102 99h31q59 0 71 -48v48z" />
    <glyph glyph-name="Abreve" unicode="&#x102;" horiz-adv-x="431" 
d="M263 663h-102q-108 0 -108 99v38h102v-37q0 -16 6 -21.5t23 -5.5h56q17 0 23 5.5t6 21.5v37h102v-38q0 -99 -108 -99zM160 218h107l-55 302zM307 0l-24 131h-138l-22 -131h-115l127 631h155l133 -631h-116z" />
    <glyph glyph-name="abreve" unicode="&#x103;" horiz-adv-x="394" 
d="M177 88h30q31 0 31 33v249q0 33 -31 33h-30q-16 0 -22 -5.5t-6 -21.5v-261q0 -16 6 -21.5t22 -5.5zM240 491h112v-491h-114v42q-15 -42 -69 -42h-31q-102 0 -102 99v293q0 99 102 99h31q59 0 71 -48v48zM262 660h102v-38q0 -99 -108 -99h-102q-108 0 -108 99v38h102v-37
q0 -16 6 -21.5t23 -5.5h56q17 0 23 5.5t6 21.5v37z" />
    <glyph glyph-name="Aogonek" unicode="&#x104;" horiz-adv-x="431" 
d="M160 218h107l-55 302zM357 -166h84v-73h-102q-50 0 -72.5 22.5t-22.5 67.5v38q0 90 95 90h7v21h-39l-24 131h-138l-22 -131h-115l127 631h155l130 -619h3v-106h-66q-16 0 -21.5 -5t-5.5 -20v-23q0 -14 5.5 -19t21.5 -5z" />
    <glyph glyph-name="aogonek" unicode="&#x105;" horiz-adv-x="394" 
d="M177 88h30q31 0 31 33v249q0 33 -31 33h-30q-16 0 -22 -5.5t-6 -21.5v-261q0 -16 6 -21.5t22 -5.5zM286 -166h84v-73h-102q-50 0 -72.5 22.5t-22.5 67.5v38q0 90 95 90h7v21h-37v42q-15 -42 -69 -42h-31q-102 0 -102 99v293q0 99 102 99h31q59 0 71 -48v48h112v-585h-66
q-16 0 -21.5 -5t-5.5 -20v-23q0 -14 5.5 -19t21.5 -5z" />
    <glyph glyph-name="Cacute" unicode="&#x106;" horiz-adv-x="411" 
d="M369 800l-113 -137h-94l86 137h121zM378 422h-116v98q0 16 -6 21.5t-22 5.5h-47q-16 0 -22 -5.5t-6 -21.5v-410q0 -16 6 -21.5t22 -5.5h47q16 0 22 5.5t6 21.5v96h116v-108q0 -99 -109 -99h-117q-109 0 -109 99v434q0 99 109 99h117q109 0 109 -99v-110z" />
    <glyph glyph-name="cacute" unicode="&#x107;" horiz-adv-x="380" 
d="M353 660l-113 -137h-94l86 137h121zM145 491h98q109 0 109 -99v-66h-111v50q0 16 -6 21.5t-22 5.5h-36q-16 0 -22 -5.5t-6 -21.5v-261q0 -16 6 -21.5t22 -5.5h36q16 0 22 5.5t6 21.5v51h111v-67q0 -99 -109 -99h-98q-109 0 -109 99v293q0 99 109 99z" />
    <glyph glyph-name="Ccaron" unicode="&#x10c;" horiz-adv-x="411" 
d="M268 663h-117l-106 137h112l52 -77l53 77h112zM378 422h-116v98q0 16 -6 21.5t-22 5.5h-47q-16 0 -22 -5.5t-6 -21.5v-410q0 -16 6 -21.5t22 -5.5h47q16 0 22 5.5t6 21.5v96h116v-108q0 -99 -109 -99h-117q-109 0 -109 99v434q0 99 109 99h117q109 0 109 -99v-110z" />
    <glyph glyph-name="ccaron" unicode="&#x10d;" horiz-adv-x="380" 
d="M251 523h-117l-106 137h112l52 -77l53 77h112zM145 491h98q109 0 109 -99v-66h-111v50q0 16 -6 21.5t-22 5.5h-36q-16 0 -22 -5.5t-6 -21.5v-261q0 -16 6 -21.5t22 -5.5h36q16 0 22 5.5t6 21.5v51h111v-67q0 -99 -109 -99h-98q-109 0 -109 99v293q0 99 109 99z" />
    <glyph glyph-name="Dcaron" unicode="&#x10e;" horiz-adv-x="446" 
d="M278 663h-117l-106 137h112l52 -77l53 77h112zM286 111v409q0 16 -6 21.5t-22 5.5h-90v-463h90q16 0 22 5.5t6 21.5zM53 631h240q109 0 109 -99v-433q0 -99 -109 -99h-240v631z" />
    <glyph glyph-name="dcaron" unicode="&#x10f;" horiz-adv-x="427" 
d="M177 88h30q31 0 31 33v249q0 19 -7 26.5t-24 7.5h-30q-16 0 -22 -5.5t-6 -21.5v-262q0 -16 6 -21.5t22 -5.5zM238 669h114v-669h-112v49q-12 -49 -71 -49h-31q-102 0 -102 99v294q0 99 102 99h31q54 0 69 -42v219zM394 669h86v-56l-53 -127h-33v183z" />
    <glyph glyph-name="Dcroat" unicode="&#x110;" horiz-adv-x="450" 
d="M286 115v401q0 16 -6 21.5t-22 5.5h-90v-183h69v-83h-69v-189h90q16 0 22 5.5t6 21.5zM53 631h240q109 0 109 -99v-433q0 -99 -109 -99h-240v277h-52v83h52v271z" />
    <glyph glyph-name="dcroat" unicode="&#x111;" horiz-adv-x="399" 
d="M182 88h30q31 0 31 33v249q0 33 -31 33h-30q-16 0 -22 -5.5t-6 -21.5v-261q0 -16 6 -21.5t22 -5.5zM404 611v-66h-47v-545h-112v49q-12 -49 -71 -49h-31q-102 0 -102 99v293q0 99 102 99h31q54 0 69 -42v96h-74v66h74v58h114v-58h47z" />
    <glyph glyph-name="Emacron" unicode="&#x112;" horiz-adv-x="374" 
d="M348 751v-79h-303v79h303zM164 88h192v-88h-308v631h300v-88h-184v-175h155v-89h-155v-191z" />
    <glyph glyph-name="emacron" unicode="&#x113;" horiz-adv-x="392" 
d="M347 631v-79h-303v79h303zM148 286h104v94q0 16 -6 21.5t-22 5.5h-48q-16 0 -22 -5.5t-6 -21.5v-94zM147 491h106q108 0 108 -99v-179h-213v-101q0 -16 5.5 -21.5t22.5 -5.5h46q16 0 22 5.5t6 21.5v37h110v-50q0 -99 -109 -99h-104q-109 0 -109 99v293q0 99 109 99z" />
    <glyph glyph-name="Edotaccent" unicode="&#x116;" horiz-adv-x="374" 
d="M267 768v-105h-122v105h122zM164 88h192v-88h-308v631h300v-88h-184v-175h155v-89h-155v-191z" />
    <glyph glyph-name="edotaccent" unicode="&#x117;" horiz-adv-x="392" 
d="M262 644v-105h-122v105h122zM148 286h104v94q0 16 -6 21.5t-22 5.5h-48q-16 0 -22 -5.5t-6 -21.5v-94zM147 491h106q108 0 108 -99v-179h-213v-101q0 -16 5.5 -21.5t22.5 -5.5h46q16 0 22 5.5t6 21.5v37h110v-50q0 -99 -109 -99h-104q-109 0 -109 99v293q0 99 109 99z
" />
    <glyph glyph-name="Eogonek" unicode="&#x118;" horiz-adv-x="374" 
d="M291 -166h84v-73h-102q-50 0 -72.5 22.5t-22.5 67.5v38q0 90 95 90h7v21h-232v631h300v-88h-184v-175h155v-89h-155v-191h192v-76h1v-106h-66q-16 0 -21.5 -5t-5.5 -20v-23q0 -14 5.5 -19t21.5 -5z" />
    <glyph glyph-name="eogonek" unicode="&#x119;" horiz-adv-x="392" 
d="M148 286h104v94q0 16 -6 21.5t-22 5.5h-48q-16 0 -22 -5.5t-6 -21.5v-94zM147 491h106q108 0 108 -99v-179h-213v-101q0 -16 5.5 -21.5t22.5 -5.5h46q16 0 22 5.5t6 21.5v37h110v-50q0 -99 -109 -99h-4v-94h-66q-16 0 -21.5 -5t-5.5 -20v-23q0 -14 5.5 -19t21.5 -5h84
v-73h-102q-50 0 -72.5 22.5t-22.5 67.5v38q0 90 95 90h7v21h-23q-109 0 -109 99v293q0 99 109 99z" />
    <glyph glyph-name="Ecaron" unicode="&#x11a;" horiz-adv-x="374" 
d="M258 663h-117l-106 137h112l52 -77l53 77h112zM164 279v-191h192v-88h-308v631h300v-88h-184v-175h155v-89h-155z" />
    <glyph glyph-name="ecaron" unicode="&#x11b;" horiz-adv-x="392" 
d="M258 523h-117l-106 137h112l52 -77l53 77h112zM148 286h104v94q0 16 -6 21.5t-22 5.5h-48q-16 0 -22 -5.5t-6 -21.5v-94zM147 491h106q108 0 108 -99v-179h-213v-101q0 -16 5.5 -21.5t22.5 -5.5h46q16 0 22 5.5t6 21.5v37h110v-50q0 -99 -109 -99h-104q-109 0 -109 99
v293q0 99 109 99z" />
    <glyph glyph-name="Gbreve" unicode="&#x11e;" horiz-adv-x="416" 
d="M262 663h-102q-108 0 -108 99v38h102v-37q0 -16 6 -21.5t23 -5.5h56q17 0 23 5.5t6 21.5v37h102v-38q0 -99 -108 -99zM378 437h-116v83q0 16 -6 21.5t-22 5.5h-47q-16 0 -22 -5.5t-6 -21.5v-410q0 -16 6 -21.5t22 -5.5h47q16 0 22 5.5t6 21.5v140h-50v81h166v-233
q0 -99 -109 -99h-117q-109 0 -109 99v434q0 99 109 99h117q109 0 109 -99v-95z" />
    <glyph glyph-name="gbreve" unicode="&#x11f;" horiz-adv-x="394" 
d="M177 101h30q17 0 24 7.5t7 26.5v235q0 33 -31 33h-30q-16 0 -22 -5.5t-6 -21.5v-248q0 -16 6 -21.5t22 -5.5zM240 491h112v-528q0 -99 -109 -99h-189v86h156q16 0 22 5.5t6 21.5v78q-15 -42 -69 -42h-31q-102 0 -102 99v280q0 99 102 99h31q59 0 71 -48v48zM254 660h102
v-38q0 -99 -108 -99h-102q-108 0 -108 99v38h102v-37q0 -16 6 -21.5t23 -5.5h56q17 0 23 5.5t6 21.5v37z" />
    <glyph glyph-name="uni0122" unicode="&#x122;" horiz-adv-x="416" 
d="M158 -250v201h118v-60l-80 -141h-38zM378 437h-116v83q0 16 -6 21.5t-22 5.5h-47q-16 0 -22 -5.5t-6 -21.5v-410q0 -16 6 -21.5t22 -5.5h47q16 0 22 5.5t6 21.5v140h-50v81h166v-233q0 -99 -109 -99h-117q-109 0 -109 99v434q0 99 109 99h117q109 0 109 -99v-95z" />
    <glyph glyph-name="uni0123" unicode="&#x123;" horiz-adv-x="394" 
d="M265 724v-201h-118v60l80 141h38zM177 101h30q17 0 24 7.5t7 26.5v235q0 33 -31 33h-30q-16 0 -22 -5.5t-6 -21.5v-248q0 -16 6 -21.5t22 -5.5zM240 491h112v-528q0 -99 -109 -99h-189v86h156q16 0 22 5.5t6 21.5v78q-15 -42 -69 -42h-31q-102 0 -102 99v280q0 99 102 99
h31q59 0 71 -48v48z" />
    <glyph glyph-name="Imacron" unicode="&#x12a;" horiz-adv-x="223" 
d="M54 631h115v-631h-115v631zM-40 672v79h303v-79h-303z" />
    <glyph glyph-name="imacron" unicode="&#x12b;" horiz-adv-x="199" 
d="M156 0h-113v491h113v-491zM-52 552v79h303v-79h-303z" />
    <glyph glyph-name="Iogonek" unicode="&#x12e;" horiz-adv-x="223" 
d="M103 -166h84v-73h-102q-50 0 -72.5 22.5t-22.5 67.5v38q0 90 95 90h7v21h-38v631h115v-725h-66q-16 0 -21.5 -5t-5.5 -20v-23q0 -14 5.5 -19t21.5 -5z" />
    <glyph glyph-name="iogonek" unicode="&#x12f;" horiz-adv-x="199" 
d="M159 670v-99h-119v99h119zM90 -166h84v-73h-102q-50 0 -72.5 22.5t-22.5 67.5v38q0 90 95 90h7v21h-36v491h113v-585h-66q-16 0 -21.5 -5t-5.5 -20v-23q0 -14 5.5 -19t21.5 -5z" />
    <glyph glyph-name="Idotaccent" unicode="&#x130;" horiz-adv-x="223" 
d="M54 631h115v-631h-115v631zM50 672v105h122v-105h-122z" />
    <glyph glyph-name="dotlessi" unicode="&#x131;" horiz-adv-x="199" 
d="M156 0h-113v491h113v-491z" />
    <glyph glyph-name="uni0136" unicode="&#x136;" horiz-adv-x="426" 
d="M163 631v-631h-115v631h115zM155 -250v201h118v-60l-80 -141h-38zM418 631l-130 -314l129 -317h-124l-125 317l126 314h124z" />
    <glyph glyph-name="uni0137" unicode="&#x137;" horiz-adv-x="391" 
d="M156 669v-669h-113v669h113zM145 -250v201h118v-60l-80 -141h-38zM390 491l-110 -236l110 -255h-119l-106 255l107 236h118z" />
    <glyph glyph-name="Lacute" unicode="&#x139;" horiz-adv-x="334" 
d="M267 800l-113 -137h-94l86 137h121zM163 88h168v-88h-283v631h115v-543z" />
    <glyph glyph-name="lacute" unicode="&#x13a;" horiz-adv-x="199" 
d="M51 701l86 137h121l-113 -137h-94zM156 0h-113v669h113v-669z" />
    <glyph glyph-name="uni013B" unicode="&#x13b;" horiz-adv-x="334" 
d="M129 -250v201h118v-60l-80 -141h-38zM163 88h168v-88h-283v631h115v-543z" />
    <glyph glyph-name="uni013C" unicode="&#x13c;" horiz-adv-x="199" 
d="M40 -250v201h119v-60l-81 -141h-38zM156 0h-113v669h113v-669z" />
    <glyph glyph-name="Lcaron" unicode="&#x13d;" horiz-adv-x="334" 
d="M269 803l-106 -137h-117l-106 137h112l52 -77l53 77h112zM163 88h168v-88h-283v631h115v-543z" />
    <glyph glyph-name="lcaron" unicode="&#x13e;" horiz-adv-x="236" 
d="M156 0h-113v669h113v-669zM199 486v183h86v-56l-53 -127h-33z" />
    <glyph glyph-name="Lslash" unicode="&#x141;" horiz-adv-x="346" 
d="M167 88h168v-88h-283v247l-79 -37v84l79 37v300h115v-245l104 49v-84l-104 -49v-214z" />
    <glyph glyph-name="lslash" unicode="&#x142;" horiz-adv-x="209" 
d="M161 0h-113v298l-88 -42v83l88 42v288h113v-235l97 46v-83l-97 -46v-351z" />
    <glyph glyph-name="Nacute" unicode="&#x143;" horiz-adv-x="446" 
d="M173 663l86 137h121l-113 -137h-94zM292 631h105v-631h-108l-135 418v-418h-106v631h111l133 -412v412z" />
    <glyph glyph-name="nacute" unicode="&#x144;" horiz-adv-x="399" 
d="M352 660l-113 -137h-94l86 137h121zM226 491h30q103 0 103 -99v-392h-114v376q0 16 -6 21.5t-22 5.5h-30q-31 0 -31 -33v-370h-113v491h112v-45q14 45 71 45z" />
    <glyph glyph-name="uni0145" unicode="&#x145;" horiz-adv-x="446" 
d="M155 -250v201h118v-60l-80 -141h-38zM292 631h105v-631h-108l-135 418v-418h-106v631h111l133 -412v412z" />
    <glyph glyph-name="uni0146" unicode="&#x146;" horiz-adv-x="399" 
d="M140 -250v201h118v-60l-80 -141h-38zM226 491h30q103 0 103 -99v-392h-114v376q0 16 -6 21.5t-22 5.5h-30q-31 0 -31 -33v-370h-113v491h112v-45q14 45 71 45z" />
    <glyph glyph-name="Ncaron" unicode="&#x147;" horiz-adv-x="446" 
d="M165 662l-106 137h112l52 -77l53 77h112l-106 -137h-117zM292 631h105v-631h-108l-135 418v-418h-106v631h111l133 -412v412z" />
    <glyph glyph-name="ncaron" unicode="&#x148;" horiz-adv-x="399" 
d="M250 523h-117l-106 137h112l52 -77l53 77h112zM226 491h30q103 0 103 -99v-392h-114v376q0 16 -6 21.5t-22 5.5h-30q-31 0 -31 -33v-370h-113v491h112v-45q14 45 71 45z" />
    <glyph glyph-name="Omacron" unicode="&#x14c;" horiz-adv-x="429" 
d="M365 741v-79h-303v79h303zM269 115v401q0 16 -6 21.5t-22 5.5h-53q-17 0 -23 -5.5t-6 -21.5v-401q0 -16 6 -21.5t23 -5.5h53q16 0 22 5.5t6 21.5zM153 631h122q109 0 109 -99v-433q0 -99 -109 -99h-122q-109 0 -109 99v433q0 99 109 99z" />
    <glyph glyph-name="omacron" unicode="&#x14d;" horiz-adv-x="402" 
d="M348 631v-79h-303v79h303zM253 112v267q0 16 -6 21.5t-23 5.5h-46q-17 0 -23 -5.5t-6 -21.5v-267q0 -16 6 -21.5t23 -5.5h46q17 0 23 5.5t6 21.5zM145 491h113q106 0 106 -99v-293q0 -99 -106 -99h-113q-107 0 -107 99v293q0 99 107 99z" />
    <glyph glyph-name="Ohungarumlaut" unicode="&#x150;" horiz-adv-x="422" 
d="M324 662h-79l86 137h106zM297 799l-113 -137h-79l86 137h106zM269 115v401q0 16 -6 21.5t-22 5.5h-53q-17 0 -23 -5.5t-6 -21.5v-401q0 -16 6 -21.5t23 -5.5h53q16 0 22 5.5t6 21.5zM153 631h122q109 0 109 -99v-433q0 -99 -109 -99h-122q-109 0 -109 99v433q0 99 109 99
z" />
    <glyph glyph-name="ohungarumlaut" unicode="&#x151;" horiz-adv-x="402" 
d="M308 523h-79l86 137h106zM281 660l-113 -137h-79l86 137h106zM253 112v267q0 16 -6 21.5t-23 5.5h-46q-17 0 -23 -5.5t-6 -21.5v-267q0 -16 6 -21.5t23 -5.5h46q17 0 23 5.5t6 21.5zM145 491h113q106 0 106 -99v-293q0 -99 -106 -99h-113q-107 0 -107 99v293q0 99 107 99
z" />
    <glyph glyph-name="OE" unicode="&#x152;" horiz-adv-x="615" 
d="M282 111v409q0 16 -6 21.5t-23 5.5h-53q-16 0 -22 -5.5t-6 -21.5v-409q0 -16 6 -21.5t22 -5.5h53q17 0 23 5.5t6 21.5zM394 84h192v-84h-280v19q-24 -19 -63 -19h-77q-109 0 -109 99v433q0 99 109 99h76q41 0 64 -20v20h272v-84h-184v-182h155v-83h-155v-198z" />
    <glyph glyph-name="oe" unicode="&#x153;" horiz-adv-x="657" 
d="M354 288h101v90q0 16 -6 21.5t-22 5.5h-44q-17 0 -23 -5.5t-6 -21.5v-90zM212 403h-30q-16 0 -22 -5.5t-6 -21.5v-261q0 -16 6 -21.5t22 -5.5h30q30 0 31 30v255q-1 30 -31 30zM384 491h73q109 0 109 -99v-181h-212v-98q0 -16 6 -21.5t23 -5.5h42q16 0 22 5.5t6 21.5v36
h112v-50q0 -99 -109 -99h-73q-67 0 -88 46q-8 -20 -30.5 -33t-51.5 -13h-70q-102 0 -102 99v293q0 99 102 99h70q29 0 51.5 -13t30.5 -33q21 46 89 46z" />
    <glyph glyph-name="Racute" unicode="&#x154;" horiz-adv-x="430" 
d="M367 799l-113 -137h-94l86 137h121zM163 543v-212h83q16 0 22 5.5t6 21.5v158q0 16 -6 21.5t-22 5.5h-83zM163 246v-246h-115v631h232q109 0 109 -99v-187q0 -82 -73 -96l105 -249h-124l-96 246h-38z" />
    <glyph glyph-name="racute" unicode="&#x155;" horiz-adv-x="266" 
d="M313 660l-113 -137h-94l86 137h121zM155 491v-63q8 29 31 47t57 18h18v-98h-42q-63 0 -63 -72v-323h-113v491h112z" />
    <glyph glyph-name="uni0156" unicode="&#x156;" horiz-adv-x="430" 
d="M155 -250v201h118v-60l-80 -141h-38zM163 543v-212h83q16 0 22 5.5t6 21.5v158q0 16 -6 21.5t-22 5.5h-83zM163 246v-246h-115v631h232q109 0 109 -99v-187q0 -82 -73 -96l105 -249h-124l-96 246h-38z" />
    <glyph glyph-name="uni0157" unicode="&#x157;" horiz-adv-x="266" 
d="M42 -250v201h118v-60l-80 -141h-38zM243 493h18v-98h-42q-63 0 -63 -72v-323h-113v491h112v-63q8 29 31 47t57 18z" />
    <glyph glyph-name="Rcaron" unicode="&#x158;" horiz-adv-x="430" 
d="M271 662h-117l-106 137h112l52 -77l53 77h112zM163 543v-212h83q16 0 22 5.5t6 21.5v158q0 16 -6 21.5t-22 5.5h-83zM163 246v-246h-115v631h232q109 0 109 -99v-187q0 -82 -73 -96l105 -249h-124l-96 246h-38z" />
    <glyph glyph-name="rcaron" unicode="&#x159;" horiz-adv-x="266" 
d="M210 523h-117l-106 137h112l52 -77l53 77h112zM155 491v-63q8 29 31 47t57 18h18v-98h-42q-63 0 -63 -72v-323h-113v491h112z" />
    <glyph glyph-name="Sacute" unicode="&#x15a;" horiz-adv-x="399" 
d="M156 663l86 137h121l-113 -137h-94zM248 115v135q0 16 -6 21.5t-22 5.5h-81q-103 0 -103 100v155q0 99 108 99h110q108 0 108 -99v-88h-116v72q0 16 -6 21.5t-22 5.5h-38q-17 0 -23 -5.5t-6 -21.5v-127q0 -16 6 -21.5t23 -5.5h79q105 0 105 -98v-165q0 -99 -109 -99h-108
q-109 0 -109 99v87h115v-71q0 -16 6 -21.5t23 -5.5h38q16 0 22 5.5t6 21.5z" />
    <glyph glyph-name="sacute" unicode="&#x15b;" horiz-adv-x="362" 
d="M141 523l86 137h121l-113 -137h-94zM221 108v69q0 16 -6 21.5t-23 5.5h-54q-107 0 -107 98v90q0 99 109 99h79q108 0 108 -99v-46h-109v37q0 16 -6 21.5t-22 5.5h-20q-17 0 -23 -5.5t-6 -21.5v-72q0 -16 6 -21.5t23 -5.5h54q108 0 108 -98v-87q0 -99 -109 -99h-81
q-109 0 -109 99v45h111v-36q0 -16 6 -21.5t22 -5.5h20q17 0 23 5.5t6 21.5z" />
    <glyph glyph-name="uni015E" unicode="&#x15e;" horiz-adv-x="399" 
d="M140 -250v201h118v-60l-80 -141h-38zM248 115v135q0 16 -6 21.5t-22 5.5h-81q-103 0 -103 100v155q0 99 108 99h110q108 0 108 -99v-88h-116v72q0 16 -6 21.5t-22 5.5h-38q-17 0 -23 -5.5t-6 -21.5v-127q0 -16 6 -21.5t23 -5.5h79q105 0 105 -98v-165q0 -99 -109 -99
h-108q-109 0 -109 99v87h115v-71q0 -16 6 -21.5t23 -5.5h38q16 0 22 5.5t6 21.5z" />
    <glyph glyph-name="uni015F" unicode="&#x15f;" horiz-adv-x="362" 
d="M121 -250v201h118v-60l-80 -141h-38zM221 108v69q0 16 -6 21.5t-23 5.5h-54q-107 0 -107 98v90q0 99 109 99h79q108 0 108 -99v-46h-109v37q0 16 -6 21.5t-22 5.5h-20q-17 0 -23 -5.5t-6 -21.5v-72q0 -16 6 -21.5t23 -5.5h54q108 0 108 -98v-87q0 -99 -109 -99h-81
q-109 0 -109 99v45h111v-36q0 -16 6 -21.5t22 -5.5h20q17 0 23 5.5t6 21.5z" />
    <glyph glyph-name="Scaron" unicode="&#x160;" horiz-adv-x="399" 
d="M141 663l-106 137h112l52 -77l53 77h112l-106 -137h-117zM248 115v135q0 16 -6 21.5t-22 5.5h-81q-103 0 -103 100v155q0 99 108 99h110q108 0 108 -99v-88h-116v72q0 16 -6 21.5t-22 5.5h-38q-17 0 -23 -5.5t-6 -21.5v-127q0 -16 6 -21.5t23 -5.5h79q105 0 105 -98v-165
q0 -99 -109 -99h-108q-109 0 -109 99v87h115v-71q0 -16 6 -21.5t23 -5.5h38q16 0 22 5.5t6 21.5z" />
    <glyph glyph-name="scaron" unicode="&#x161;" horiz-adv-x="362" 
d="M121 523l-106 137h112l52 -77l53 77h112l-106 -137h-117zM221 108v69q0 16 -6 21.5t-23 5.5h-54q-107 0 -107 98v90q0 99 109 99h79q108 0 108 -99v-46h-109v37q0 16 -6 21.5t-22 5.5h-20q-17 0 -23 -5.5t-6 -21.5v-72q0 -16 6 -21.5t23 -5.5h54q108 0 108 -98v-87
q0 -99 -109 -99h-81q-109 0 -109 99v45h111v-36q0 -16 6 -21.5t22 -5.5h20q17 0 23 5.5t6 21.5z" />
    <glyph glyph-name="uni0162" unicode="&#x162;" horiz-adv-x="346" 
d="M113 -250v201h118v-60l-80 -141h-38zM5 631h336v-88h-111v-543h-115v543h-110v88z" />
    <glyph glyph-name="uni0163" unicode="&#x163;" horiz-adv-x="346" 
d="M114 -250v201h118v-60l-80 -141h-38zM5 631h336v-88h-111v-543h-115v543h-110v88z" />
    <glyph glyph-name="Tcaron" unicode="&#x164;" horiz-adv-x="346" 
d="M230 663h-117l-106 137h112l52 -77l53 77h112zM341 631v-88h-111v-543h-115v543h-110v88h336z" />
    <glyph glyph-name="tcaron" unicode="&#x165;" horiz-adv-x="244" 
d="M167 579v-88h67v-88h-67v-285q0 -16 6 -21.5t23 -5.5h37v-91h-70q-109 0 -109 99v304h-49v88h49v88h113zM210 687h94v-55l-62 -108h-32v163z" />
    <glyph glyph-name="Umacron" unicode="&#x16a;" horiz-adv-x="434" 
d="M369 741v-79h-303v79h303zM272 631h115v-532q0 -99 -109 -99h-122q-109 0 -109 99v532h115v-516q0 -16 6 -21.5t22 -5.5h53q17 0 23 5.5t6 21.5v516z" />
    <glyph glyph-name="umacron" unicode="&#x16b;" horiz-adv-x="399" 
d="M349 631v-79h-303v79h303zM243 491h114v-491h-112v49q-12 -49 -71 -49h-31q-102 0 -102 99v392h113v-376q0 -16 6 -21.5t22 -5.5h30q31 0 31 33v370z" />
    <glyph glyph-name="Uring" unicode="&#x16e;" horiz-adv-x="434" 
d="M174 750v-9q0 -14 5 -18.5t20 -4.5h34q15 0 20 4.5t5 18.5v9q0 14 -5 19t-20 5h-34q-15 0 -20 -5t-5 -19zM252 662h-72q-81 0 -81 75v17q0 76 81 76h72q81 0 81 -76v-17q0 -75 -81 -75zM272 631h115v-532q0 -99 -109 -99h-122q-109 0 -109 99v532h115v-516q0 -16 6 -21.5
t22 -5.5h53q17 0 23 5.5t6 21.5v516z" />
    <glyph glyph-name="uring" unicode="&#x16f;" horiz-adv-x="399" 
d="M161 615v-9q0 -14 5 -18.5t20 -4.5h34q15 0 20 4.5t5 18.5v9q0 14 -5 19t-20 5h-34q-15 0 -20 -5t-5 -19zM239 527h-72q-81 0 -81 75v17q0 76 81 76h72q81 0 81 -76v-17q0 -75 -81 -75zM243 491h114v-491h-112v49q-12 -49 -71 -49h-31q-102 0 -102 99v392h113v-376
q0 -16 6 -21.5t22 -5.5h30q31 0 31 33v370z" />
    <glyph glyph-name="Uhungarumlaut" unicode="&#x170;" horiz-adv-x="424" 
d="M321 663h-79l86 137h106zM294 800l-113 -137h-79l86 137h106zM272 115v516h115v-532q0 -99 -109 -99h-122q-109 0 -109 99v532h115v-516q0 -16 6 -21.5t22 -5.5h53q17 0 23 5.5t6 21.5z" />
    <glyph glyph-name="uhungarumlaut" unicode="&#x171;" horiz-adv-x="399" 
d="M300 523h-79l86 137h106zM273 660l-113 -137h-79l86 137h106zM243 491h114v-491h-112v49q-12 -49 -71 -49h-31q-102 0 -102 99v392h113v-376q0 -16 6 -21.5t22 -5.5h30q31 0 31 33v370z" />
    <glyph glyph-name="Uogonek" unicode="&#x172;" horiz-adv-x="434" 
d="M272 631h115v-532q0 -99 -109 -99h-14v-94h-66q-16 0 -21.5 -5t-5.5 -20v-23q0 -14 5.5 -19t21.5 -5h84v-73h-102q-50 0 -72.5 22.5t-22.5 67.5v38q0 90 95 90h7v21h-31q-109 0 -109 99v532h115v-516q0 -16 6 -21.5t22 -5.5h53q17 0 23 5.5t6 21.5v516z" />
    <glyph glyph-name="uogonek" unicode="&#x173;" horiz-adv-x="399" 
d="M291 -166h84v-73h-102q-50 0 -72.5 22.5t-22.5 67.5v38q0 90 95 90h7v21h-35v49q-12 -49 -71 -49h-31q-102 0 -102 99v392h113v-376q0 -16 6 -21.5t22 -5.5h30q31 0 31 33v370h114v-585h-66q-16 0 -21.5 -5t-5.5 -20v-23q0 -14 5.5 -19t21.5 -5z" />
    <glyph glyph-name="Ydieresis" unicode="&#x178;" horiz-adv-x="399" 
d="M361 775v-105h-116v105h116zM157 775v-105h-116v105h116zM265 0h-115v200l-147 431h117l86 -324l81 324h117l-139 -428v-203z" />
    <glyph glyph-name="Zacute" unicode="&#x179;" horiz-adv-x="357" 
d="M344 800l-113 -137h-94l86 137h121zM345 631v-88l-215 -455h210v-88h-328v88l215 455h-204v88h322z" />
    <glyph glyph-name="zacute" unicode="&#x17a;" horiz-adv-x="321" 
d="M327 660l-113 -137h-94l86 137h121zM308 85v-85h-295v85l172 321h-161v85h280v-85l-174 -321h178z" />
    <glyph glyph-name="Zdotaccent" unicode="&#x17b;" horiz-adv-x="357" 
d="M249 768v-105h-122v105h122zM345 631v-88l-215 -455h210v-88h-328v88l215 455h-204v88h322z" />
    <glyph glyph-name="zdotaccent" unicode="&#x17c;" horiz-adv-x="321" 
d="M228 644v-105h-122v105h122zM308 85v-85h-295v85l172 321h-161v85h280v-85l-174 -321h178z" />
    <glyph glyph-name="Zcaron" unicode="&#x17d;" horiz-adv-x="357" 
d="M245 663h-117l-106 137h112l52 -77l53 77h112zM23 543v88h322v-88l-215 -455h210v-88h-328v88l215 455h-204z" />
    <glyph glyph-name="zcaron" unicode="&#x17e;" horiz-adv-x="321" 
d="M223 523h-117l-106 137h112l52 -77l53 77h112zM308 85v-85h-295v85l172 321h-161v85h280v-85l-174 -321h178z" />
    <glyph glyph-name="florin" unicode="&#x192;" horiz-adv-x="381" 
d="M338 578h-49q-16 0 -21 -5t-7 -22l-8 -60h85v-88h-97l-60 -448q-7 -50 -30.5 -74.5t-78.5 -24.5h-82v91h49q16 0 21.5 5.5t7.5 21.5l58 429h-67v88h78l11 79q6 50 30 74.5t78 24.5h82v-91z" />
    <glyph glyph-name="uni0218" unicode="&#x218;" horiz-adv-x="399" 
d="M140 -250v201h118v-60l-80 -141h-38zM248 115v135q0 16 -6 21.5t-22 5.5h-81q-103 0 -103 100v155q0 99 108 99h110q108 0 108 -99v-88h-116v72q0 16 -6 21.5t-22 5.5h-38q-17 0 -23 -5.5t-6 -21.5v-127q0 -16 6 -21.5t23 -5.5h79q105 0 105 -98v-165q0 -99 -109 -99
h-108q-109 0 -109 99v87h115v-71q0 -16 6 -21.5t23 -5.5h38q16 0 22 5.5t6 21.5z" />
    <glyph glyph-name="uni0219" unicode="&#x219;" horiz-adv-x="362" 
d="M126 -250v201h119v-60l-81 -141h-38zM221 108v69q0 16 -6 21.5t-23 5.5h-54q-107 0 -107 98v90q0 99 109 99h79q108 0 108 -99v-46h-109v37q0 16 -6 21.5t-22 5.5h-20q-17 0 -23 -5.5t-6 -21.5v-72q0 -16 6 -21.5t23 -5.5h54q108 0 108 -98v-87q0 -99 -109 -99h-81
q-109 0 -109 99v45h111v-36q0 -16 6 -21.5t22 -5.5h20q17 0 23 5.5t6 21.5z" />
    <glyph glyph-name="uni021A" unicode="&#x21a;" horiz-adv-x="346" 
d="M114 -250v201h118v-60l-80 -141h-38zM5 631h336v-88h-111v-543h-115v543h-110v88z" />
    <glyph glyph-name="uni021B" unicode="&#x21b;" horiz-adv-x="244" 
d="M80 -250v201h118v-60l-80 -141h-38zM234 403h-67v-285q0 -16 6 -21.5t23 -5.5h37v-91h-70q-109 0 -109 99v304h-49v88h49v88h113v-88h67v-88z" />
    <glyph glyph-name="circumflex" unicode="&#x2c6;" horiz-adv-x="444" 
d="M57 523l106 137h117l106 -137h-112l-53 77l-52 -77h-112z" />
    <glyph glyph-name="caron" unicode="&#x2c7;" horiz-adv-x="444" 
d="M163 523l-106 137h112l52 -77l53 77h112l-106 -137h-117z" />
    <glyph glyph-name="uni02C9" unicode="&#x2c9;" horiz-adv-x="444" 
d="M70 552v79h303v-79h-303z" />
    <glyph glyph-name="breve" unicode="&#x2d8;" horiz-adv-x="444" 
d="M279 660h102v-38q0 -99 -108 -99h-102q-108 0 -108 99v38h102v-37q0 -16 6 -21.5t23 -5.5h56q17 0 23 5.5t6 21.5v37z" />
    <glyph glyph-name="dotaccent" unicode="&#x2d9;" horiz-adv-x="444" 
d="M161 539v105h122v-105h-122z" />
    <glyph glyph-name="ring" unicode="&#x2da;" horiz-adv-x="444" 
d="M339 600v-17q0 -75 -81 -75h-72q-81 0 -81 75v17q0 76 81 76h72q81 0 81 -76zM264 587v9q0 14 -5 19t-20 5h-34q-15 0 -20 -5t-5 -19v-9q0 -14 5 -18.5t20 -4.5h34q15 0 20 4.5t5 18.5z" />
    <glyph glyph-name="ogonek" unicode="&#x2db;" horiz-adv-x="444" 
d="M240 -166h84v-73h-102q-50 0 -72.5 22.5t-22.5 67.5v38q0 90 95 90h7v33h77v-106h-66q-16 0 -21.5 -5t-5.5 -20v-23q0 -14 5.5 -19t21.5 -5z" />
    <glyph glyph-name="tilde" unicode="&#x2dc;" horiz-adv-x="444" 
d="M284 533q-28 0 -63.5 21.5t-43.5 21.5q-18 0 -18 -23v-20h-94v32q0 42 19 63.5t65 21.5h12q28 0 62.5 -21.5t42.5 -21.5q18 0 18 23v20h94v-35q0 -41 -19 -61.5t-65 -20.5h-10z" />
    <glyph glyph-name="hungarumlaut" unicode="&#x2dd;" horiz-adv-x="444" 
d="M196 523l86 137h106l-113 -137h-79zM56 523l86 137h106l-113 -137h-79z" />
    <glyph glyph-name="pi" unicode="&#x3c0;" horiz-adv-x="475" 
d="M470 491v-83h-70v-408h-115v408h-104v-309q0 -99 -109 -99h-68v91h35q16 0 22 5.5t6 21.5v373h403z" />
    <glyph glyph-name="uni0901" unicode="&#x901;" horiz-adv-x="0" 
d="M-150 791v95h92v-95h-92zM-286 767v66h98v-54q0 -17 6 -23t23 -6h111q17 0 23 6t6 23v54h98v-66q0 -45 -26.5 -66.5t-84.5 -21.5h-143q-58 0 -84.5 21.5t-26.5 66.5z" />
    <glyph glyph-name="uni0902" unicode="&#x902;" horiz-adv-x="0" 
d="M-152 727v105h94v-105h-94z" />
    <glyph glyph-name="uni0903" unicode="&#x903;" horiz-adv-x="201" 
d="M-108 387v105h95v-105h-95zM-108 60v105h95v-105h-95z" />
    <glyph glyph-name="uni0905" unicode="&#x905;" horiz-adv-x="601" 
d="M621 631v-83h-68v-548h-113v274h-89v-100q0 -48 -24.5 -72t-81.5 -24h-100q-57 0 -81.5 24t-24.5 72v90h114v-77q0 -16 5.5 -21t21.5 -5h30q16 0 22 5.5t6 20.5v96q0 17 -6.5 23.5t-23.5 6.5h-52v82h52q17 0 23.5 6.5t6.5 23.5v99q0 15 -6 20.5t-22 5.5h-30
q-16 0 -21.5 -5t-5.5 -21v-72h-114v85q0 48 24.5 72t81.5 24h100q57 0 81.5 -24t24.5 -72v-130q0 -46 -41 -51h130v275h181z" />
    <glyph glyph-name="uni0906" unicode="&#x906;" horiz-adv-x="812" 
d="M831 631v-83h-68v-548h-113v548h-97v-548h-113v274h-89v-100q0 -48 -24.5 -72t-81.5 -24h-100q-57 0 -81.5 24t-24.5 72v90h114v-77q0 -16 5.5 -21t21.5 -5h30q16 0 22 5.5t6 20.5v96q0 17 -6.5 23.5t-23.5 6.5h-52v82h52q17 0 23.5 6.5t6.5 23.5v99q0 15 -6 20.5
t-22 5.5h-30q-16 0 -21.5 -5t-5.5 -21v-72h-114v85q0 48 24.5 72t81.5 24h100q57 0 81.5 -24t24.5 -72v-130q0 -46 -41 -51h130v275h391z" />
    <glyph glyph-name="uni0907" unicode="&#x907;" horiz-adv-x="394" 
d="M341 401h-167q-16 0 -22 -5.5t-6 -20.5v-33q0 -15 6 -20.5t22 -5.5h75q57 0 81.5 -22t24.5 -70v-89q0 -47 -24.5 -69t-81.5 -22h-95v-71h-114v206h114v-57h60q17 0 22.5 5t5.5 21v63q0 16 -5.5 21t-22.5 5h-75q-57 0 -81.5 22t-24.5 70v59q0 47 24.5 69t81.5 22h89v69
h-248v83h434v-83h-73v-147z" />
    <glyph glyph-name="uni0908" unicode="&#x908;" horiz-adv-x="394" 
d="M341 401h-167q-16 0 -22 -5.5t-6 -20.5v-33q0 -15 6 -20.5t22 -5.5h75q57 0 81.5 -22t24.5 -70v-89q0 -47 -24.5 -69t-81.5 -22h-95v-71h-114v206h114v-57h60q17 0 22.5 5t5.5 21v63q0 16 -5.5 21t-22.5 5h-75q-57 0 -81.5 22t-24.5 70v59q0 47 24.5 69t81.5 22h89v69
h-248v83h248v68q0 47 24.5 69t81.5 22h77v-78h-42q-16 0 -22 -5.5t-6 -20.5v-55h73v-83h-73v-147z" />
    <glyph glyph-name="uni0909" unicode="&#x909;" horiz-adv-x="389" 
d="M405 631v-83h-76q7 -11 7 -26v-116q0 -48 -41 -51v-4q41 -5 41 -50v-210q0 -47 -24.5 -69t-81.5 -22h-101q-57 0 -81.5 22t-24.5 69v122h113v-108q0 -16 5.5 -21.5t19.5 -5.5h34q17 0 22.5 5.5t5.5 21.5v177q0 17 -5.5 22.5t-22.5 5.5h-67v83h67q17 0 22.5 5.5t5.5 22.5
v94q0 21 -7.5 27t-33.5 6h-202v83h425z" />
    <glyph glyph-name="uni090A" unicode="&#x90a;" horiz-adv-x="553" 
d="M573 631v-83h-244q7 -11 7 -26v-116q0 -48 -41 -51v-4h131q102 0 102 -100v-160q0 -47 -24.5 -69t-81.5 -22h-52v83h17q16 0 21.5 5t5.5 21v132q0 17 -5.5 22.5t-21.5 5.5h-51v-178q0 -47 -24.5 -69t-81.5 -22h-101q-57 0 -81.5 22t-24.5 69v122h113v-108
q0 -16 5.5 -21.5t19.5 -5.5h34q17 0 22.5 5.5t5.5 21.5v177q0 17 -5.5 22.5t-22.5 5.5h-67v83h67q17 0 22.5 5.5t5.5 22.5v94q0 21 -7.5 27t-33.5 6h-202v83h593z" />
    <glyph glyph-name="uni090B" unicode="&#x90b;" horiz-adv-x="796" 
d="M582 375v-77q0 -27 24 -27h17q23 0 23 27v77q0 15 -5.5 21t-21.5 6h-11q-15 0 -20.5 -6t-5.5 -21zM404 548v-277h79q-14 16 -14 45v64q0 52 26.5 75.5t88.5 23.5h60q62 0 88.5 -23.5t26.5 -75.5v-67q0 -35 -9 -50t-30 -21v-5q38 -9 38 -57v-89q0 -46 -24 -68.5t-82 -22.5
h-80q-54 0 -77 23t-23 68v49h112v-35q0 -15 5.5 -21t18.5 -6h11q15 0 20.5 6t5.5 21v64q0 15 -5.5 19.5t-20.5 4.5h-215v-193h-113v193h-23l-125 -193h-129l155 238l-57 103q-16 30 -31.5 41t-43.5 11h-28v84h67q51 0 77 -14.5t48 -52.5l80 -139h10v277h-311v83h836v-83
h-412z" />
    <glyph glyph-name="uni090C" unicode="&#x90c;" horiz-adv-x="599" 
d="M554 39h-82q-17 0 -22.5 -5t-5.5 -21v-35q0 -16 5.5 -21t22.5 -5h132v-82h-167q-57 0 -81.5 22t-24.5 69v65q0 48 24 70t80 22h6v279h-58q-17 0 -22.5 -6t-5.5 -22v-172h-113v172q0 16 -5.5 22t-22.5 6h-30q-16 0 -22 -5.5t-6 -22.5v-258q0 -16 6 -21.5t22 -5.5h39v-84
h-74q-57 0 -81.5 22t-24.5 69v288q0 52 25 76t77 24h102q46 0 51 -41h3q5 41 51 41h89v69h-461v83h639v-83h-65v-509z" />
    <glyph glyph-name="uni090D" unicode="&#x90d;" horiz-adv-x="436" 
d="M170 670h-142q-59 0 -85 21.5t-26 66.5v66h97v-54q0 -17 6.5 -23t23.5 -6h110q18 0 24 6t6 23v54h98v-66q0 -45 -26.5 -66.5t-85.5 -21.5zM456 631v-83h-62v-180q0 -47 -24.5 -69t-81.5 -22h-74v83h39q16 0 21.5 5t5.5 21v162h-118v-443q0 -16 5.5 -21.5t21.5 -5.5h65
q14 0 19 5.5t5 21.5v103h114v-117q0 -47 -24.5 -69t-81.5 -22h-132q-57 0 -81.5 22t-24.5 69v457h-68v83h476z" />
    <glyph glyph-name="uni090E" unicode="&#x90e;" horiz-adv-x="436" 
d="M456 631v-83h-62v-180q0 -47 -24.5 -69t-81.5 -22h-74v83h39q16 0 21.5 5t5.5 21v162h-118v-443q0 -16 5.5 -21.5t21.5 -5.5h65q14 0 19 5.5t5 21.5v103h114v-117q0 -47 -24.5 -69t-81.5 -22h-132q-57 0 -81.5 22t-24.5 69v457h-68v83h300v27q0 21 -6 27t-27 6h-90
q-85 0 -85 85v54h114v-23q0 -21 6 -27t27 -6h90q85 0 85 -85v-58h62z" />
    <glyph glyph-name="uni090F" unicode="&#x90f;" horiz-adv-x="436" 
d="M456 631v-83h-62v-180q0 -47 -24.5 -69t-81.5 -22h-74v83h39q16 0 21.5 5t5.5 21v162h-118v-443q0 -16 5.5 -21.5t21.5 -5.5h65q14 0 19 5.5t5 21.5v103h114v-117q0 -47 -24.5 -69t-81.5 -22h-132q-57 0 -81.5 22t-24.5 69v457h-68v83h476z" />
    <glyph glyph-name="uni0910" unicode="&#x910;" horiz-adv-x="436" 
d="M456 631v-83h-62v-180q0 -47 -24.5 -69t-81.5 -22h-74v83h39q16 0 21.5 5t5.5 21v162h-118v-443q0 -16 5.5 -21.5t21.5 -5.5h65q14 0 19 5.5t5 21.5v103h114v-117q0 -47 -24.5 -69t-81.5 -22h-132q-57 0 -81.5 22t-24.5 69v457h-68v83h292q-42 38 -95 108l-63 87h136
l137 -195h69z" />
    <glyph glyph-name="uni0911" unicode="&#x911;" horiz-adv-x="812" 
d="M831 631v-83h-68v-548h-113v548h-97v-548h-113v274h-89v-100q0 -48 -24.5 -72t-81.5 -24h-100q-57 0 -81.5 24t-24.5 72v90h114v-77q0 -16 5.5 -21t21.5 -5h30q16 0 22 5.5t6 20.5v96q0 17 -6.5 23.5t-23.5 6.5h-52v82h52q17 0 23.5 6.5t6.5 23.5v99q0 15 -6 20.5
t-22 5.5h-30q-16 0 -21.5 -5t-5.5 -21v-72h-114v85q0 48 24.5 72t81.5 24h100q57 0 81.5 -24t24.5 -72v-130q0 -46 -41 -51h130v275h391zM791 833h98v-66q0 -45 -26.5 -66.5t-85.5 -21.5h-142q-59 0 -85 21.5t-26 66.5v66h97v-54q0 -17 6.5 -23t23.5 -6h110q18 0 24 6t6 23
v54z" />
    <glyph glyph-name="uni0912" unicode="&#x912;" horiz-adv-x="811" 
d="M831 631v-83h-68v-548h-113v548h-97v-548h-113v274h-89v-100q0 -48 -24.5 -72t-81.5 -24h-100q-57 0 -81.5 24t-24.5 72v90h114v-77q0 -16 5.5 -21t21.5 -5h30q16 0 22 5.5t6 20.5v96q0 17 -6.5 23.5t-23.5 6.5h-52v82h52q17 0 23.5 6.5t6.5 23.5v99q0 15 -6 20.5
t-22 5.5h-30q-16 0 -21.5 -5t-5.5 -21v-72h-114v85q0 48 24.5 72t81.5 24h100q57 0 81.5 -24t24.5 -72v-130q0 -46 -41 -51h130v275h209v27q0 21 -6 27t-27 6h-90q-85 0 -85 85v54h114v-23q0 -21 6 -27t27 -6h90q85 0 85 -85v-58h68z" />
    <glyph glyph-name="uni0913" unicode="&#x913;" horiz-adv-x="811" 
d="M831 631v-83h-68v-548h-113v548h-97v-548h-113v274h-89v-100q0 -48 -24.5 -72t-81.5 -24h-100q-57 0 -81.5 24t-24.5 72v90h114v-77q0 -16 5.5 -21t21.5 -5h30q16 0 22 5.5t6 20.5v96q0 17 -6.5 23.5t-23.5 6.5h-52v82h52q17 0 23.5 6.5t6.5 23.5v99q0 15 -6 20.5
t-22 5.5h-30q-16 0 -21.5 -5t-5.5 -21v-72h-114v85q0 48 24.5 72t81.5 24h100q57 0 81.5 -24t24.5 -72v-130q0 -46 -41 -51h130v275h207q-42 38 -95 108l-63 87h136l137 -195h69z" />
    <glyph glyph-name="uni0914" unicode="&#x914;" horiz-adv-x="812" 
d="M831 631v-83h-68v-548h-113v548h-97v-548h-113v274h-89v-100q0 -48 -24.5 -72t-81.5 -24h-100q-57 0 -81.5 24t-24.5 72v90h114v-77q0 -16 5.5 -21t21.5 -5h30q16 0 22 5.5t6 20.5v96q0 17 -6.5 23.5t-23.5 6.5h-52v82h52q17 0 23.5 6.5t6.5 23.5v99q0 15 -6 20.5
t-22 5.5h-30q-16 0 -21.5 -5t-5.5 -21v-72h-114v85q0 48 24.5 72t81.5 24h100q57 0 81.5 -24t24.5 -72v-130q0 -46 -41 -51h130v275h201q-40 26 -98 78l-130 117h139l43 -50q66 -78 105 -139h4q-17 31 -34.5 73t-25.5 59l-23 57h109l31 -195h70z" />
    <glyph glyph-name="uni0915" unicode="&#x915;" horiz-adv-x="592" 
d="M612 548h-259v-80q11 11 41 11h62q52 0 77 -24t25 -76v-210q0 -47 -24.5 -69t-81.5 -22h-59v78h24q16 0 21.5 5.5t5.5 21.5v186q0 17 -5.5 22.5t-21.5 5.5h-35q-16 0 -22.5 -6.5t-6.5 -23.5v-367h-114v90q-12 -12 -41 -12h-62q-102 0 -102 100v210q0 47 24.5 69t81.5 22
h59v-78h-24q-16 0 -22 -5.5t-6 -20.5v-186q0 -17 6 -22.5t22 -5.5h35q16 0 22.5 6t6.5 23v358h-259v83h632v-83z" />
    <glyph glyph-name="uni0916" unicode="&#x916;" horiz-adv-x="737" 
d="M757 631v-83h-69v-548h-111v116q-12 -15 -44 -15h-56q-102 0 -102 100v179q0 47 24.5 69t81.5 22h61v-78h-28q-16 0 -22 -5.5t-6 -20.5v-155q0 -17 6 -22.5t22 -5.5h30q18 0 25.5 7t7.5 25v332h-252q7 -11 7 -26v-188q0 -50 -25.5 -72.5t-82.5 -22.5h-66v-122
q0 -19 6.5 -26t25.5 -7h229v-84h-251q-64 0 -94 23t-30 72v376h114v-149h28q19 0 25.5 6.5t6.5 25.5v162q0 20 -6 26t-26 6h-206v83h777z" />
    <glyph glyph-name="uni0917" unicode="&#x917;" horiz-adv-x="606" 
d="M174 161h35q16 0 22 5.5t6 22.5v174h-61q-20 0 -25.5 -5.5t-5.5 -25.5v-143q0 -17 6.5 -22.5t22.5 -5.5zM626 631v-83h-68v-548h-114v548h-93v-370q0 -53 -27 -76.5t-88 -23.5h-89q-61 0 -88 23.5t-27 76.5v173q0 50 29.5 72.5t93.5 22.5h82v102h-257v83h646z" />
    <glyph glyph-name="uni0918" unicode="&#x918;" horiz-adv-x="467" 
d="M305 195v353h-98q-32 0 -40.5 -5t-8.5 -27v-93q0 -17 5.5 -22.5t21.5 -5.5h53v-82h-53q-16 0 -21.5 -5.5t-5.5 -22.5v-96q0 -17 5.5 -22.5t21.5 -5.5h86q19 0 26.5 7.5t7.5 26.5zM487 631v-83h-68v-548h-114v90q-12 -12 -39 -12h-106q-60 0 -88 24t-28 76v123q0 47 42 50
v4q-42 5 -42 51v114q0 19 9 28h-73v83h507z" />
    <glyph glyph-name="uni0919" unicode="&#x919;" horiz-adv-x="442" 
d="M344 297v105h94v-105h-94zM-20 631h482v-83h-126v-147h-147q-16 0 -21.5 -5t-5.5 -21v-50q0 -16 5.5 -21t21.5 -5h57q57 0 81.5 -22t24.5 -69v-117q0 -47 -24.5 -69t-81.5 -22h-101q-57 0 -81.5 22t-24.5 69v71h114v-57q0 -16 5 -21.5t19 -5.5h34q16 0 22 5.5t6 21.5v90
q0 15 -6 20.5t-22 5.5h-57q-57 0 -81 22t-24 69v76q0 47 24 69t81 22h69v69h-243v83z" />
    <glyph glyph-name="uni091A" unicode="&#x91a;" horiz-adv-x="436" 
d="M456 631v-83h-69v-548h-113v90q-12 -12 -41 -12h-74q-102 0 -102 100v180q0 26 13 39h-72v82h233v-82h-16q-29 0 -36.5 -4.5t-7.5 -23.5v-180q0 -17 5.5 -22.5t21.5 -5.5h47q16 0 22.5 6t6.5 23v358h-295v83h477z" />
    <glyph glyph-name="uni091B" unicode="&#x91b;" horiz-adv-x="589" 
d="M354 548h-151l5 -1q-8 1 -20.5 1t-20.5 -5t-8 -27v-135q0 -17 6 -22.5t22 -5.5h35v-82h-35q-16 0 -22 -5.5t-6 -22.5v-131q0 -17 6 -22.5t22 -5.5h219q17 0 22.5 5.5t5.5 22.5v267q0 16 -5.5 21t-22.5 5h-18q-16 0 -21.5 -5t-5.5 -21v-92q0 -16 5.5 -21t21.5 -5h16v-74
h-38q-98 0 -98 91v110q0 44 21 65.5t65 24.5v70zM609 548h-149v-70q43 -4 64 -25.5t21 -64.5v-288q0 -52 -28 -76t-88 -24h-268q-59 0 -87 24t-28 76v159q0 46 41 51v3q-41 5 -41 51v158q0 18 7 26h-73v83h629v-83z" />
    <glyph glyph-name="uni091C" unicode="&#x91c;" horiz-adv-x="595" 
d="M615 631v-83h-69v-548h-113v397h-80v-219q0 -53 -26.5 -76.5t-88.5 -23.5h-80q-62 0 -88.5 23.5t-26.5 76.5v301h113v-290q0 -17 6 -22.5t23 -5.5h27q16 0 22 5.5t6 22.5v290h193v69h-453v83h635z" />
    <glyph glyph-name="uni091D" unicode="&#x91d;" horiz-adv-x="611" 
d="M450 316v232h-104v-147h-166q-16 0 -22 -5.5t-6 -20.5v-33q0 -15 6 -20.5t22 -5.5h270zM631 631v-83h-68v-548h-114v237h-93q2 -14 2 -21v-81q0 -47 -24.5 -69t-81.5 -22h-98v-71h-114v206h114v-57h63q16 0 22 5.5t6 20.5v63q0 15 -6 20.5t-22 5.5h-72q-57 0 -81.5 22
t-24.5 70v59q0 47 24.5 69t81.5 22h87v69h-261v83h660z" />
    <glyph glyph-name="uni091E" unicode="&#x91e;" horiz-adv-x="586" 
d="M606 631v-83h-68v-548h-114v250h-91v-72q0 -53 -26.5 -76.5t-88.5 -23.5h-77q-62 0 -88.5 23.5t-26.5 76.5v84h113v-73q0 -17 6 -22.5t22 -5.5h25q16 0 22 5.5t6 22.5v181q0 16 -5.5 21.5t-22.5 5.5h-93v82h129q56 0 80.5 -24t24.5 -71v-51h91v215h-444v83h626z" />
    <glyph glyph-name="uni091F" unicode="&#x91f;" horiz-adv-x="402" 
d="M355 397h-165q-16 0 -22 -5.5t-6 -22.5v-258q0 -17 6 -22.5t22 -5.5h27q16 0 22.5 5.5t6.5 22.5v103h113v-114q0 -53 -27 -76.5t-88 -23.5h-81q-61 0 -88 23.5t-27 76.5v288q0 47 24.5 69t81.5 22h88v69h-262v83h442v-83h-67v-151z" />
    <glyph glyph-name="uni0920" unicode="&#x920;" horiz-adv-x="421" 
d="M263 111v258q0 17 -6 22.5t-22 5.5h-45q-16 0 -22 -5.5t-6 -22.5v-258q0 -17 6 -22.5t22 -5.5h45q16 0 22 5.5t6 22.5zM441 548h-172v-69q58 -1 82.5 -24.5t24.5 -75.5v-279q0 -53 -26.5 -76.5t-88.5 -23.5h-98q-61 0 -88 23.5t-27 76.5v279q0 52 25 75.5t83 24.5v69
h-176v83h461v-83z" />
    <glyph glyph-name="uni0921" unicode="&#x921;" horiz-adv-x="403" 
d="M336 401h-147q-16 0 -21.5 -5t-5.5 -21v-50q0 -16 5.5 -21t21.5 -5h57q57 0 81.5 -22t24.5 -69v-117q0 -47 -24.5 -69t-81.5 -22h-101q-57 0 -81.5 22t-24.5 69v71h114v-57q0 -16 5 -21.5t19 -5.5h34q16 0 22 5.5t6 21.5v90q0 15 -6 20.5t-22 5.5h-57q-57 0 -81 22
t-24 69v76q0 47 24 69t81 22h69v69h-243v83h443v-83h-87v-147z" />
    <glyph glyph-name="uni0922" unicode="&#x922;" horiz-adv-x="439" 
d="M355 397h-165q-16 0 -22 -5.5t-6 -22.5v-258q0 -17 6 -22.5t22 -5.5h63q16 0 22 5.5t6 22.5v71q0 16 -6 21.5t-22 5.5h-43v83h70q61 0 88 -23.5t27 -76.5v-92q0 -53 -27 -76.5t-88 -23.5h-117q-61 0 -88 23.5t-27 76.5v288q0 47 24.5 69t81.5 22h88v69h-262v83h479v-83
h-104v-151z" />
    <glyph glyph-name="uni0923" unicode="&#x923;" horiz-adv-x="599" 
d="M240 189v359h-84v-359q0 -17 6 -22.5t23 -5.5h27q16 0 22 5.5t6 22.5zM619 631v-83h-68v-548h-114v548h-84v-370q0 -53 -26.5 -76.5t-88.5 -23.5h-80q-62 0 -88.5 23.5t-26.5 76.5v370h-63v83h639z" />
    <glyph glyph-name="uni0924" unicode="&#x924;" horiz-adv-x="426" 
d="M446 631v-83h-69v-548h-113v397h-80q-16 0 -22 -5.5t-6 -21.5v-259q0 -16 6 -21.5t22 -5.5h24v-84h-59q-57 0 -81.5 22t-24.5 69v297q0 47 24.5 69t81.5 22h115v69h-284v83h466z" />
    <glyph glyph-name="uni0925" unicode="&#x925;" horiz-adv-x="527" 
d="M547 631v-83h-68v-548h-114v90q-12 -12 -39 -12h-163q-59 0 -87 24t-28 76v196h110q16 0 22 5.5t6 21.5v126q0 15 -6 20.5t-22 5.5h-6q-16 0 -21.5 -5t-5.5 -21v-41h-69v59q0 47 24 69t76 22h42q101 0 101 -91v-158q0 -48 -24.5 -71.5t-81.5 -23.5h-32v-103
q0 -17 6 -22.5t22 -5.5h142q19 0 26.5 7.5t7.5 26.5v436h182z" />
    <glyph glyph-name="uni0926" unicode="&#x926;" horiz-adv-x="403" 
d="M354 397h-170q-16 0 -22 -5.5t-6 -22.5v-180q0 -17 5.5 -22.5t21.5 -5.5h33q16 0 22.5 6t6.5 23v87h113v-277h-113v90q-12 -12 -41 -12h-47q-61 0 -88 23.5t-27 76.5v210q0 47 24.5 69t81.5 22h93v69h-267v83h449v-83h-69v-151z" />
    <glyph glyph-name="uni0927" unicode="&#x927;" horiz-adv-x="515" 
d="M538 631v-83h-68v-548h-113v91q-12 -13 -40 -13h-153q-102 0 -102 91v123q0 45 42 50v4q-42 5 -42 51v148q0 91 102 91h43q101 0 101 -91v-59h-69v41q0 16 -5.5 21t-21.5 5h-9q-16 0 -21.5 -5t-5.5 -21v-113q0 -17 5.5 -22.5t21.5 -5.5h69v-83h-69q-16 0 -21.5 -5.5
t-5.5 -21.5v-87q0 -17 5.5 -22.5t21.5 -5.5h120q19 0 26.5 7.5t7.5 26.5v353l-1 83h182z" />
    <glyph glyph-name="uni0928" unicode="&#x928;" horiz-adv-x="578" 
d="M227 189v208h-53q-16 0 -22 -5.5t-6 -21.5v-181q0 -17 6 -22.5t23 -5.5h24q16 0 22 5.5t6 22.5zM598 631v-83h-68v-548h-114v397h-75v-219q0 -53 -27 -76.5t-89 -23.5h-77q-62 0 -88.5 23.5t-26.5 76.5v210q0 47 24.5 69t81.5 22h277v69h-436v83h618z" />
    <glyph glyph-name="uni0928093C" unicode="&#x929;" horiz-adv-x="578" 
d="M243 -106v105h95v-105h-95zM227 189v208h-53q-16 0 -22 -5.5t-6 -21.5v-181q0 -17 6 -22.5t23 -5.5h24q16 0 22 5.5t6 22.5zM598 631v-83h-68v-548h-114v397h-75v-219q0 -53 -27 -76.5t-89 -23.5h-77q-62 0 -88.5 23.5t-26.5 76.5v210q0 47 24.5 69t81.5 22h277v69h-436
v83h618z" />
    <glyph glyph-name="uni092A" unicode="&#x92a;" horiz-adv-x="415" 
d="M254 190v358h-92v-359q0 -17 5.5 -22.5t21.5 -5.5h35q17 0 23.5 6t6.5 23zM435 631v-83h-68v-548h-113v91q-12 -13 -42 -13h-62q-102 0 -102 100v370h-68v83h455z" />
    <glyph glyph-name="uni092B" unicode="&#x92b;" horiz-adv-x="602" 
d="M250 190v358h-92v-359q0 -17 5.5 -22.5t21.5 -5.5h36q16 0 22.5 6t6.5 23zM622 548h-259v-81q12 12 41 12h63q51 0 76 -24t25 -76v-210q0 -47 -24 -69t-81 -22h-59v78h23q17 0 22.5 5.5t5.5 21.5v186q0 17 -5.5 22.5t-22.5 5.5h-35q-16 0 -22.5 -6.5t-6.5 -23.5v-367
h-113v91q-12 -13 -42 -13h-62q-102 0 -102 100v370h-64v83h642v-83z" />
    <glyph glyph-name="uni092C" unicode="&#x92c;" horiz-adv-x="469" 
d="M182 161h101l-73 112q-46 83 -55 94v-178q0 -17 5.5 -22.5t21.5 -5.5zM489 631v-83h-68v-548h-114v85q-11 -7 -34 -7h-130q-102 0 -102 100v210q0 47 24.5 69t81.5 22h119v-78h-74l61 -101l60 -96q-6 32 -6 121v223h-327v83h509z" />
    <glyph glyph-name="uni092D" unicode="&#x92d;" horiz-adv-x="620" 
d="M247 189v146h-63q-16 0 -22 -5.5t-6 -20.5v-120q0 -17 6 -22.5t23 -5.5h34q16 0 22 5.5t6 22.5zM640 631v-83h-68v-548h-114v335h-97v-157q0 -53 -27 -76.5t-88 -23.5h-88q-62 0 -88.5 23.5t-26.5 76.5v149q0 47 24.5 69t81.5 22h98v106q0 16 -5.5 21t-21.5 5h-28
q-16 0 -21.5 -5t-5.5 -21v-43h-114v56q0 48 24.5 72t81.5 24h98q56 0 81 -24t25 -72v-119h97v213h182z" />
    <glyph glyph-name="uni092E" unicode="&#x92e;" horiz-adv-x="610" 
d="M448 432v116h-97v-116h97zM237 205v144h-71q-16 0 -22 -5.5t-6 -20.5v-118q0 -16 6.5 -21.5t22.5 -5.5h42q16 0 22 5.5t6 21.5zM630 631v-83h-68v-548h-114v349h-97v-154q0 -53 -27 -76.5t-88 -23.5h-88q-62 0 -88.5 23.5t-26.5 76.5v146q0 47 24.5 69t81.5 22h98v116
h-257v83h650z" />
    <glyph glyph-name="uni092F" unicode="&#x92f;" horiz-adv-x="516" 
d="M354 195v353h-90q10 -13 10 -34v-119q0 -48 -23.5 -72t-79.5 -24h-20v-110q0 -17 5.5 -22.5t21.5 -5.5h142q20 0 27 7.5t7 26.5zM536 631v-83h-68v-548h-114v91q-12 -13 -39 -13h-163q-59 0 -87 24t-28 76v204h100q16 0 21.5 5t5.5 21v107q0 21 -7 27t-33 6h-155v83h567z
" />
    <glyph glyph-name="uni0930" unicode="&#x930;" horiz-adv-x="393" 
d="M413 631v-83h-67q7 -8 7 -26v-158q0 -49 -29.5 -71.5t-93.5 -22.5h-74v-165q0 -16 6 -21.5t22 -5.5h30q15 0 20 5.5t5 21.5v103h113v-117q0 -47 -24 -69t-81 -22h-98q-57 0 -81.5 22t-24.5 69v366h113v-105h52q19 0 25.5 7t6.5 26v131q0 20 -6 26t-26 6h-228v83h433z" />
    <glyph glyph-name="uni0930093C" unicode="&#x931;" horiz-adv-x="393" 
d="M139 -174v105h95v-105h-95zM413 631v-83h-67q7 -8 7 -26v-158q0 -49 -29.5 -71.5t-93.5 -22.5h-74v-165q0 -16 6 -21.5t22 -5.5h30q15 0 20 5.5t5 21.5v103h113v-117q0 -47 -24 -69t-81 -22h-98q-57 0 -81.5 22t-24.5 69v366h113v-105h52q19 0 25.5 7t6.5 26v131
q0 20 -6 26t-26 6h-228v83h433z" />
    <glyph glyph-name="uni0932" unicode="&#x932;" horiz-adv-x="602" 
d="M622 631v-83h-64v-548h-114v397h-55q-17 0 -22.5 -6t-5.5 -22v-189h-113v189q0 16 -5.5 22t-22.5 6h-31q-16 0 -21.5 -5.5t-5.5 -22.5v-258q0 -16 5.5 -21.5t21.5 -5.5h57v-84h-92q-57 0 -81 22t-24 69v288q0 52 25 76t76 24h103q46 0 51 -41h3q5 41 50 41h87v69h-464v83
h642z" />
    <glyph glyph-name="uni0933" unicode="&#x933;" horiz-adv-x="614" 
d="M463 189v180q0 17 -5.5 22.5t-21.5 5.5h-47q-17 0 -22 -6t-5 -22v-180q0 -16 5 -22t22 -6h47q16 0 21.5 5.5t5.5 22.5zM253 189v180q0 16 -5.5 22t-22.5 6h-47q-16 0 -21.5 -5.5t-5.5 -22.5v-180q0 -17 5.5 -22.5t21.5 -5.5h47q17 0 22.5 6t5.5 22zM645 548h-164v-69
q49 -2 72.5 -25.5t23.5 -74.5v-201q0 -100 -102 -100h-106q-54 0 -59 41h-4q-3 -41 -59 -41h-108q-102 0 -102 100v201q0 100 102 100h108q56 0 59 -41h4q5 40 57 41v69h-398v83h676v-83z" />
    <glyph glyph-name="uni0933093C" unicode="&#x934;" horiz-adv-x="614" 
d="M75 -95v105h95v-105h-95zM463 189v180q0 17 -5.5 22.5t-21.5 5.5h-47q-17 0 -22 -6t-5 -22v-180q0 -16 5 -22t22 -6h47q16 0 21.5 5.5t5.5 22.5zM253 189v180q0 16 -5.5 22t-22.5 6h-47q-16 0 -21.5 -5.5t-5.5 -22.5v-180q0 -17 5.5 -22.5t21.5 -5.5h47q17 0 22.5 6
t5.5 22zM645 548h-164v-69q49 -2 72.5 -25.5t23.5 -74.5v-201q0 -100 -102 -100h-106q-54 0 -59 41h-4q-3 -41 -59 -41h-108q-102 0 -102 100v201q0 100 102 100h108q56 0 59 -41h4q5 40 57 41v69h-398v83h676v-83z" />
    <glyph glyph-name="uni0935" unicode="&#x935;" horiz-adv-x="412" 
d="M432 631v-83h-69v-548h-113v91q-12 -13 -42 -13h-62q-102 0 -102 100v210q0 47 24.5 69t81.5 22h59v-82h-24q-16 0 -21.5 -5.5t-5.5 -21.5v-181q0 -17 5.5 -22.5t21.5 -5.5h36q16 0 22.5 6t6.5 23v358h-270v83h452z" />
    <glyph glyph-name="uni0936" unicode="&#x936;" horiz-adv-x="603" 
d="M159 634h97q57 0 81.5 -24t24.5 -72v-191q0 -49 -29.5 -71.5t-93.5 -22.5h-74v-148q0 -16 5.5 -21.5t22.5 -5.5h30q14 0 19.5 5.5t5.5 21.5v86h113v-100q0 -47 -24.5 -69t-81.5 -22h-98q-57 0 -81 22t-24 69v297h113v-53h52q19 0 25.5 7t6.5 26v157q0 16 -5.5 21t-22.5 5
h-30q-15 0 -20 -5.5t-5 -20.5v-69h-113v82q0 48 24.5 72t81.5 24zM442 631h181v-83h-69v-548h-112v631z" />
    <glyph glyph-name="uni0937" unicode="&#x937;" horiz-adv-x="459" 
d="M297 393v155h-131l89 -172q25 -47 45 -100l6 -15q-9 54 -9 132zM189 161h79q23 0 27 14l-93 181q-30 58 -44 96l-5 13q9 -50 9 -121v-155q0 -17 5.5 -22.5t21.5 -5.5zM479 631v-83h-68v-548h-114v90q-12 -12 -41 -12h-106q-102 0 -102 100v370h-68v83h499z" />
    <glyph glyph-name="uni0938" unicode="&#x938;" horiz-adv-x="596" 
d="M434 352v196h-88q7 -8 7 -26v-125q0 -29 -14 -45h95zM616 631v-83h-69v-548h-113v270h-278v-165q0 -16 6 -21.5t22 -5.5h30q15 0 20 5.5t5 21.5v103h113v-117q0 -47 -24 -69t-81 -22h-98q-57 0 -81.5 22t-24.5 69v366h113v-105h52q19 0 25.5 7t6.5 26v131q0 20 -6 26
t-26 6h-228v83h636z" />
    <glyph glyph-name="uni0939" unicode="&#x939;" horiz-adv-x="418" 
d="M370 397h-181q-16 0 -21.5 -5.5t-5.5 -20.5v-30q0 -15 5.5 -20.5t21.5 -5.5h71q62 0 88.5 -23.5t26.5 -76.5v-47h-113v37q0 17 -6 22.5t-23 5.5h-44q-16 0 -21.5 -5.5t-5.5 -22.5v-94q0 -17 5.5 -22.5t21.5 -5.5h186v-83h-212q-59 0 -87 24t-28 76v121q0 46 42 51v3
q-42 5 -42 51v62q0 47 24.5 69t81.5 22h102v69h-276v83h464v-83h-74v-151z" />
    <glyph glyph-name="uni093C" unicode="&#x93c;" horiz-adv-x="0" 
d="M-151 -157v105h95v-105h-95z" />
    <glyph glyph-name="uni093E" unicode="&#x93e;" horiz-adv-x="211" 
d="M230 631v-83h-68v-548h-113v548h-68v83h249z" />
    <glyph glyph-name="uni093F" unicode="&#x93f;" 
d="M146 833h320q98 0 98 -94v-68h-114v46q0 21 -5.5 27t-27.5 6h-222q-21 0 -27 -6t-6 -27v-86h68v-83h-68v-548h-114v548h-68v83h68v108q0 94 98 94z" />
    <glyph glyph-name="uni0940" unicode="&#x940;" 
d="M230 631v-83h-68v-548h-114v548h-68v83h68v86q0 21 -6 27t-27 6h-43q-22 0 -28 -6t-6 -27v-46h-113v68q0 94 98 94h141q98 0 98 -94v-108h68z" />
    <glyph glyph-name="uni0941" unicode="&#x941;" horiz-adv-x="0" 
d="M-162 4h101q102 0 102 -100v-52q0 -52 -25 -76t-77 -24h-117q-65 0 -98.5 18.5t-63.5 69.5l-34 59h134l23 -38q16 -27 51 -27h63q19 0 25 6t6 25v24q0 19 -6 25t-25 6h-59v84z" />
    <glyph glyph-name="uni0942" unicode="&#x942;" horiz-adv-x="0" 
d="M-155 4h94q62 0 94 -18.5t62 -68.5l102 -164h-134l-87 138q-18 30 -48 30h-41q-19 0 -25 -5.5t-6 -25.5v-24q0 -20 6 -25.5t25 -5.5h52v-84h-94q-52 0 -77 24t-25 77v51q0 53 25 77t77 24z" />
    <glyph glyph-name="uni0943" unicode="&#x943;" horiz-adv-x="0" 
d="M-148 4h100v-83h-57q-19 0 -25 -5.5t-6 -25.5v-24q0 -20 6 -25.5t25 -5.5h93v-84h-136q-102 0 -102 101v51q0 101 102 101z" />
    <glyph glyph-name="uni0945" unicode="&#x945;" horiz-adv-x="0" 
d="M-288 767v66h97v-54q0 -17 6.5 -23t23.5 -6h110q18 0 24 6t6 23v54h98v-66q0 -45 -26.5 -66.5t-85.5 -21.5h-142q-59 0 -85 21.5t-26 66.5z" />
    <glyph glyph-name="uni0946" unicode="&#x946;" horiz-adv-x="0" 
d="M-370 776v54h114v-23q0 -21 6 -27t27 -6h90q85 0 85 -85v-95h-114v64q0 21 -6 27t-27 6h-90q-85 0 -85 85z" />
    <glyph glyph-name="uni0947" unicode="&#x947;" horiz-adv-x="0" 
d="M-331 826h136l143 -204h-111q-45 38 -105 117z" />
    <glyph glyph-name="uni0948" unicode="&#x948;" horiz-adv-x="0" 
d="M-272 709l-130 117h139l43 -50q66 -78 105 -139h4q-17 31 -34.5 73t-25.5 59l-23 57h109l32 -202h-110q-42 25 -109 85z" />
    <glyph glyph-name="uni0949" unicode="&#x949;" horiz-adv-x="211" 
d="M-19 548v83h249v-83h-68v-548h-113v548h-68zM190 833h98v-66q0 -45 -26.5 -66.5t-85.5 -21.5h-142q-59 0 -85 21.5t-26 66.5v66h97v-54q0 -17 6.5 -23t23.5 -6h110q18 0 24 6t6 23v54z" />
    <glyph glyph-name="uni094A" unicode="&#x94a;" horiz-adv-x="211" 
d="M230 631v-83h-68v-548h-113v548h-68v83h67v27q0 21 -6 27t-27 6h-90q-85 0 -85 85v54h114v-23q0 -21 6 -27t27 -6h90q85 0 85 -85v-58h68z" />
    <glyph glyph-name="uni094B" unicode="&#x94b;" horiz-adv-x="211" 
d="M230 631v-83h-68v-548h-113v548h-68v83h60q-42 38 -95 108l-63 87h136l137 -195h74z" />
    <glyph glyph-name="uni094C" unicode="&#x94c;" horiz-adv-x="211" 
d="M230 631v-83h-68v-548h-113v548h-68v83h59q-40 26 -98 78l-130 117h139l43 -50q66 -78 105 -139h4q-17 31 -34.5 73t-25.5 59l-23 57h109l31 -195h70z" />
    <glyph glyph-name="uni094D" unicode="&#x94d;" horiz-adv-x="0" 
d="M-175 -61h115l114 -139h-116z" />
    <glyph glyph-name="uni0915093C" unicode="&#x958;" horiz-adv-x="592" 
d="M67 -89v105h95v-105h-95zM612 548h-259v-80q11 11 41 11h62q52 0 77 -24t25 -76v-210q0 -47 -24.5 -69t-81.5 -22h-59v78h24q16 0 21.5 5.5t5.5 21.5v186q0 17 -5.5 22.5t-21.5 5.5h-35q-16 0 -22.5 -6.5t-6.5 -23.5v-367h-114v90q-12 -12 -41 -12h-62q-102 0 -102 100
v210q0 47 24.5 69t81.5 22h59v-78h-24q-16 0 -22 -5.5t-6 -20.5v-186q0 -17 6 -22.5t22 -5.5h35q16 0 22.5 6t6.5 23v358h-259v83h632v-83z" />
    <glyph glyph-name="uni0916093C" unicode="&#x959;" horiz-adv-x="737" 
d="M141 -161v105h95v-105h-95zM757 631v-83h-69v-548h-111v116q-12 -15 -44 -15h-56q-102 0 -102 100v179q0 47 24.5 69t81.5 22h61v-78h-28q-16 0 -22 -5.5t-6 -20.5v-155q0 -17 6 -22.5t22 -5.5h30q18 0 25.5 7t7.5 25v332h-252q7 -11 7 -26v-188q0 -50 -25.5 -72.5
t-82.5 -22.5h-66v-122q0 -19 6.5 -26t25.5 -7h229v-84h-251q-64 0 -94 23t-30 72v376h114v-149h28q19 0 25.5 6.5t6.5 25.5v162q0 20 -6 26t-26 6h-206v83h777z" />
    <glyph glyph-name="uni0917093C" unicode="&#x95a;" horiz-adv-x="606" 
d="M141 -101v105h95v-105h-95zM174 161h35q16 0 22 5.5t6 22.5v174h-61q-20 0 -25.5 -5.5t-5.5 -25.5v-143q0 -17 6.5 -22.5t22.5 -5.5zM626 631v-83h-68v-548h-114v548h-93v-370q0 -53 -27 -76.5t-88 -23.5h-89q-61 0 -88 23.5t-27 76.5v173q0 50 29.5 72.5t93.5 22.5h82
v102h-257v83h646z" />
    <glyph glyph-name="uni091C093C" unicode="&#x95b;" horiz-adv-x="595" 
d="M151 -100v105h95v-105h-95zM615 631v-83h-69v-548h-113v397h-80v-219q0 -53 -26.5 -76.5t-88.5 -23.5h-80q-62 0 -88.5 23.5t-26.5 76.5v301h113v-290q0 -17 6 -22.5t23 -5.5h27q16 0 22 5.5t6 22.5v290h193v69h-453v83h635z" />
    <glyph glyph-name="uni0921093C" unicode="&#x95c;" horiz-adv-x="403" 
d="M147 -164v105h95v-105h-95zM336 401h-147q-16 0 -21.5 -5t-5.5 -21v-50q0 -16 5.5 -21t21.5 -5h57q57 0 81.5 -22t24.5 -69v-117q0 -47 -24.5 -69t-81.5 -22h-101q-57 0 -81.5 22t-24.5 69v71h114v-57q0 -16 5 -21.5t19 -5.5h34q16 0 22 5.5t6 21.5v90q0 15 -6 20.5
t-22 5.5h-57q-57 0 -81 22t-24 69v76q0 47 24 69t81 22h69v69h-243v83h443v-83h-87v-147z" />
    <glyph glyph-name="uni0922093C" unicode="&#x95d;" horiz-adv-x="439" 
d="M175 -159v105h95v-105h-95zM355 397h-165q-16 0 -22 -5.5t-6 -22.5v-258q0 -17 6 -22.5t22 -5.5h63q16 0 22 5.5t6 22.5v71q0 16 -6 21.5t-22 5.5h-43v83h70q61 0 88 -23.5t27 -76.5v-92q0 -53 -27 -76.5t-88 -23.5h-117q-61 0 -88 23.5t-27 76.5v288q0 47 24.5 69
t81.5 22h88v69h-262v83h479v-83h-104v-151z" />
    <glyph glyph-name="uni092B093C" unicode="&#x95e;" horiz-adv-x="602" 
d="M93 -105v105h95v-105h-95zM250 190v358h-92v-359q0 -17 5.5 -22.5t21.5 -5.5h36q16 0 22.5 6t6.5 23zM622 548h-259v-81q12 12 41 12h63q51 0 76 -24t25 -76v-210q0 -47 -24 -69t-81 -22h-59v78h23q17 0 22.5 5.5t5.5 21.5v186q0 17 -5.5 22.5t-22.5 5.5h-35
q-16 0 -22.5 -6.5t-6.5 -23.5v-367h-113v91q-12 -13 -42 -13h-62q-102 0 -102 100v370h-64v83h642v-83z" />
    <glyph glyph-name="uni092F093C" unicode="&#x95f;" horiz-adv-x="516" 
d="M177 -102v105h95v-105h-95zM354 195v353h-90q10 -13 10 -34v-119q0 -48 -23.5 -72t-79.5 -24h-20v-110q0 -17 5.5 -22.5t21.5 -5.5h142q20 0 27 7.5t7 26.5zM536 631v-83h-68v-548h-114v91q-12 -13 -39 -13h-163q-59 0 -87 24t-28 76v204h100q16 0 21.5 5t5.5 21v107
q0 21 -7 27t-33 6h-155v83h567z" />
    <glyph glyph-name="uni0960" unicode="&#x960;" horiz-adv-x="802" 
d="M597 375v-77q0 -15 5.5 -21t20.5 -6h12q15 0 20.5 6t5.5 21v77q0 15 -5.5 21t-20.5 6h-12q-15 0 -20.5 -6t-5.5 -21zM415 548v-277h83q-14 16 -14 45v64q0 52 26 75.5t89 23.5h60q62 0 88.5 -23.5t26.5 -75.5v-87q0 -52 -26.5 -76t-88.5 -24h-37q-14 0 -19.5 -5.5
t-5.5 -22.5v-30q0 -17 5.5 -22.5t21.5 -5.5h45v-83h-45q-16 0 -21.5 -5.5t-5.5 -22.5v-31q0 -17 5.5 -22.5t21.5 -5.5h95v-82h-120q-59 0 -87 23.5t-28 76.5v57q0 46 41 51v3q-41 5 -41 51v48q0 17 9 28h-78v-193h-113v193h-23l-125 -193h-129l155 238l-57 103
q-16 30 -31.5 41t-43.5 11h-28v84h67q51 0 77 -14.5t48 -52.5l80 -139h10v277h-322v83h849v-83h-414z" />
    <glyph glyph-name="uni0961" unicode="&#x961;" horiz-adv-x="599" 
d="M554 142h-52q-16 0 -21.5 -5.5t-5.5 -22.5v-30q0 -17 5.5 -22.5t21.5 -5.5h47v-83h-47q-16 0 -21.5 -5.5t-5.5 -22.5v-31q0 -17 5.5 -22.5t21.5 -5.5h98v-82h-124q-59 0 -87 23.5t-28 76.5v57q0 46 41 51v3q-41 5 -41 51v72q0 78 80 86v173h-58q-17 0 -22.5 -6t-5.5 -22
v-133h-113v133q0 16 -5.5 22t-22.5 6h-30q-16 0 -22 -5.5t-6 -22.5v-258q0 -16 6 -21.5t22 -5.5h39v-84h-74q-57 0 -81.5 22t-24.5 69v288q0 52 25 76t77 24h102q46 0 51 -41h3q5 41 51 41h89v69h-461v83h639v-83h-65v-406z" />
    <glyph glyph-name="uni0966" unicode="&#x966;" horiz-adv-x="423" 
d="M378 532v-433q0 -99 -109 -99h-116q-109 0 -109 99v433q0 99 109 99h116q109 0 109 -99zM263 115v401q0 16 -6 21.5t-23 5.5h-46q-16 0 -22 -5.5t-6 -21.5v-401q0 -16 6 -21.5t22 -5.5h46q17 0 23 5.5t6 21.5z" />
    <glyph glyph-name="uni0967" unicode="&#x967;" horiz-adv-x="260" 
d="M212 631v-631h-115v543h-78v88h193z" />
    <glyph glyph-name="uni0968" unicode="&#x968;" horiz-adv-x="369" 
d="M139 516v-94h-115v110q0 99 109 99h96q110 0 110 -99v-71q0 -74 -45 -144l-131 -229h179v-88h-315v83l163 264q35 53 35 116v53q0 16 -6 21.5t-22 5.5h-29q-17 0 -23 -5.5t-6 -21.5z" />
    <glyph glyph-name="uni0969" unicode="&#x969;" horiz-adv-x="390" 
d="M143 516v-85h-115v101q0 99 109 99h101q109 0 109 -99v-135q0 -62 -42 -76q42 -14 42 -72v-150q0 -99 -109 -99h-101q-109 0 -109 99v100h115v-84q0 -16 6 -21.5t22 -5.5h34q16 0 22 5.5t6 21.5v135q0 16 -5.5 22t-22.5 6h-77v84h77q16 0 22 5.5t6 21.5v127q0 16 -6 21.5
t-22 5.5h-34q-16 0 -22 -5.5t-6 -21.5z" />
    <glyph glyph-name="uni096A" unicode="&#x96a;" horiz-adv-x="405" 
d="M405 211v-89h-60v-122h-109v122h-229v98l198 411h115l-208 -420h124v122h109v-122h60z" />
    <glyph glyph-name="uni096B" unicode="&#x96b;" horiz-adv-x="399" 
d="M158 401h98q109 0 109 -99v-203q0 -99 -109 -99h-107q-109 0 -109 99v108h116v-92q0 -16 6 -21.5t22 -5.5h38q17 0 23 5.5t6 21.5v171q0 16 -6 21.5t-23 5.5h-178v318h317v-88h-203v-142z" />
    <glyph glyph-name="uni096C" unicode="&#x96c;" horiz-adv-x="414" 
d="M263 115v139q0 16 -6 21.5t-23 5.5h-76v-166q0 -16 6 -21.5t22 -5.5h48q17 0 23 5.5t6 21.5zM158 367h109q109 0 109 -99v-169q0 -99 -109 -99h-114q-109 0 -109 99v433q0 99 109 99h109q109 0 109 -99v-97h-113v81q0 16 -6 21.5t-22 5.5h-44q-16 0 -22 -5.5t-6 -21.5
v-149z" />
    <glyph glyph-name="uni096D" unicode="&#x96d;" horiz-adv-x="329" 
d="M324 631v-68l-176 -563h-118l171 538h-194v93h317z" />
    <glyph glyph-name="uni096E" unicode="&#x96e;" horiz-adv-x="421" 
d="M266 385v132q0 16 -6 21.5t-23 5.5h-54q-16 0 -22 -5.5t-6 -21.5v-132q0 -16 6 -21.5t22 -5.5h54q17 0 23 5.5t6 21.5zM266 114v138q0 16 -6 21.5t-23 5.5h-54q-16 0 -22 -5.5t-6 -21.5v-138q0 -16 6 -21.5t22 -5.5h54q17 0 23 5.5t6 21.5zM377 532v-137q0 -62 -42 -76
q42 -14 42 -72v-148q0 -99 -109 -99h-116q-109 0 -109 99v148q0 58 42 72q-42 14 -42 76v137q0 99 109 99h116q109 0 109 -99z" />
    <glyph glyph-name="uni096F" unicode="&#x96f;" horiz-adv-x="412" 
d="M177 337h77v179q0 16 -6 21.5t-22 5.5h-49q-16 0 -22 -5.5t-6 -21.5v-152q0 -16 6 -21.5t22 -5.5zM145 631h113q109 0 109 -99v-433q0 -99 -109 -99h-109q-109 0 -109 99v95h113v-79q0 -16 6 -21.5t22 -5.5h45q16 0 22 5.5t6 21.5v139h-109q-109 0 -109 99v179
q0 99 109 99z" />
    <glyph glyph-name="uni200B" unicode="&#x200b;" horiz-adv-x="0" 
 />
    <glyph glyph-name="uni200C" unicode="&#x200c;" horiz-adv-x="0" 
d="M24 -230h-47v1041h47v-1041z" />
    <glyph glyph-name="uni200D" unicode="&#x200d;" horiz-adv-x="0" 
d="M24 -230h-47v865l-69 -73l-33 33l93 93l-95 95l33 33l95 -95l96 95l32 -32l-96 -96l96 -95l-33 -33l-72 75v-865z" />
    <glyph glyph-name="endash" unicode="&#x2013;" horiz-adv-x="474" 
d="M31 255v83h365v-83h-365z" />
    <glyph glyph-name="emdash" unicode="&#x2014;" horiz-adv-x="598" 
d="M20 255v83h554v-83h-554z" />
    <glyph glyph-name="quoteleft" unicode="&#x2018;" horiz-adv-x="191" 
d="M157 631v-277h-123v72l87 205h36z" />
    <glyph glyph-name="quoteright" unicode="&#x2019;" horiz-adv-x="191" 
d="M34 354v277h123v-72l-87 -205h-36z" />
    <glyph glyph-name="quotesinglbase" unicode="&#x201a;" horiz-adv-x="190" 
d="M34 -142v277h122v-72l-84 -205h-38z" />
    <glyph glyph-name="quotedblleft" unicode="&#x201c;" horiz-adv-x="358" 
d="M156 631v-277h-122v72l87 205h35zM323 631v-277h-121v72l86 205h35z" />
    <glyph glyph-name="quotedblright" unicode="&#x201d;" horiz-adv-x="358" 
d="M202 354v277h121v-72l-86 -205h-35zM34 354v277h122v-72l-87 -205h-35z" />
    <glyph glyph-name="quotedblbase" unicode="&#x201e;" horiz-adv-x="358" 
d="M202 -142v277h121v-72l-86 -205h-35zM34 -142v277h122v-72l-87 -205h-35z" />
    <glyph glyph-name="dagger" unicode="&#x2020;" horiz-adv-x="389" 
d="M382 472v-84h-130v-498h-115v498h-130v84h130v159h115v-159h130z" />
    <glyph glyph-name="daggerdbl" unicode="&#x2021;" horiz-adv-x="413" 
d="M394 388h-130v-294h130v-83h-130v-159h-115v159h-130v83h130v294h-130v84h130v159h115v-159h130v-84z" />
    <glyph glyph-name="bullet" unicode="&#x2022;" horiz-adv-x="396" 
d="M62 321q0 56 40 96t96 40t96 -40t40 -96t-40 -96t-96 -40t-96 40t-40 96z" />
    <glyph glyph-name="ellipsis" unicode="&#x2026;" horiz-adv-x="612" 
d="M48 0v132h128v-132h-128zM259 0v132h127v-132h-127zM470 0v132h127v-132h-127z" />
    <glyph glyph-name="perthousand" unicode="&#x2030;" horiz-adv-x="1018" 
d="M283 547v-184q0 -83 -89 -83h-77q-89 0 -89 83v184q0 84 89 84h77q89 0 89 -84zM688 267v-183q0 -84 -89 -84h-77q-89 0 -89 84v183q0 42 21 63t68 21h77q89 0 89 -84zM190 377v156q0 15 -4.5 20t-19.5 5h-20q-15 0 -20 -5.5t-5 -19.5v-156q0 -14 5 -19t20 -5h20
q15 0 19.5 5t4.5 19zM595 98v155q0 15 -5 20t-20 5h-20q-15 0 -19.5 -5t-4.5 -20v-155q0 -15 4.5 -20t19.5 -5h20q15 0 20 5t5 20zM469 631h90l-312 -631h-89zM990 267v-183q0 -84 -89 -84h-77q-89 0 -89 84v183q0 42 21 63t68 21h77q89 0 89 -84zM897 98v155q0 15 -5 20
t-20 5h-20q-15 0 -19.5 -5t-4.5 -20v-155q0 -15 4.5 -20t19.5 -5h20q15 0 20 5t5 20z" />
    <glyph glyph-name="guilsinglleft" unicode="&#x2039;" horiz-adv-x="292" 
d="M147 102l-116 154l116 154h117l-116 -154l116 -154h-117z" />
    <glyph glyph-name="guilsinglright" unicode="&#x203a;" horiz-adv-x="293" 
d="M264 256l-116 -154h-117l116 154l-116 154h117z" />
    <glyph glyph-name="fraction" unicode="&#x2044;" horiz-adv-x="396" 
d="M279 700h101l-283 -803h-101z" />
    <glyph glyph-name="Euro" unicode="&#x20ac;" horiz-adv-x="433" 
d="M400 422h-116v98q0 16 -6 21.5t-22 5.5h-46q-17 0 -23 -5.5t-6 -21.5v-107h79v-74h-79v-46h79v-76h-79v-107q0 -16 6 -21.5t23 -5.5h46q16 0 22 5.5t6 21.5v96h116v-108q0 -99 -109 -99h-117q-108 0 -108 99v119h-45v76h45v46h-45v74h45v119q0 99 108 99h117
q109 0 109 -99v-110z" />
    <glyph glyph-name="trademark" unicode="&#x2122;" horiz-adv-x="657" 
d="M7 556v75h257v-75h-83v-252h-91v252h-83zM627 631v-327h-82v195l-46 -143h-73l-47 143v-195h-82v327h102l63 -185l62 185h103z" />
    <glyph glyph-name="uni2126" unicode="&#x2126;" horiz-adv-x="441" 
d="M429 88v-88h-187v88h10q14 0 19 7t5 24v397q0 16 -6 21.5t-23 5.5h-53q-16 0 -22 -5.5t-6 -21.5v-397q0 -17 4.5 -24t19.5 -7h10v-88h-188v88h68q-29 19 -29 67v377q0 99 109 99h122q109 0 109 -99v-377q0 -48 -29 -67h67z" />
    <glyph glyph-name="product" unicode="&#x220f;" horiz-adv-x="466" 
d="M65 631h352v-631h-115v547h-124v-448q0 -99 -109 -99h-63v91h30q17 0 23 5.5t6 21.5v513z" />
    <glyph glyph-name="minus" unicode="&#x2212;" horiz-adv-x="506" 
d="M21 270v89h397v-89h-397z" />
    <glyph glyph-name="uni2215" unicode="&#x2215;" horiz-adv-x="396" 
d="M279 700h101l-283 -803h-101z" />
    <glyph glyph-name="uni2219" unicode="&#x2219;" horiz-adv-x="190" 
d="M34 248v135h122v-135h-122z" />
    <glyph glyph-name="infinity" unicode="&#x221e;" horiz-adv-x="595" 
d="M483 301v94q0 20 -5.5 27t-25.5 7h-41q-19 0 -37 -27l-35 -59l35 -47q20 -29 45 -29h33q20 0 25.5 7t5.5 27zM142 267h31q30 0 48 30l30 47l-33 48q-13 19 -24 27.5t-29 8.5h-23q-19 0 -24.5 -7t-5.5 -26v-94q0 -20 5.5 -27t24.5 -7zM416 505h48q109 0 109 -97v-120
q0 -97 -109 -97h-36q-44 0 -67 12.5t-50 50.5l-14 19q-31 -55 -56 -68.5t-79 -13.5h-32q-108 0 -108 97v120q0 97 108 97h37q41 0 62 -14.5t49 -53.5l16 -24l13 21q28 45 46 58t63 13z" />
    <glyph glyph-name="integral" unicode="&#x222b;" horiz-adv-x="349" 
d="M235 -31q0 -99 -109 -99h-82v91h49q16 0 21.5 5.5t7.5 21.5v627q0 99 109 99h82v-91h-49q-16 0 -22 -5.5t-7 -21.5v-627z" />
    <glyph glyph-name="approxequal" unicode="&#x2248;" horiz-adv-x="512" 
d="M336 364q-36 0 -64 18t-51.5 35.5t-44 17.5t-26.5 -8t-6 -26v-37h-104v62q0 44 22 65.5t70 21.5h45q28 0 52.5 -11t38.5 -24q37 -36 73 -36q17 0 22 7.5t5 26.5v36h104v-62q0 -43 -21.5 -64.5t-70.5 -21.5h-44zM336 182q-36 0 -64 18t-51.5 35.5t-44 17.5t-26.5 -7.5
t-6 -25.5v-37h-104v62q0 44 21.5 65t70.5 21h45q28 0 52.5 -11t38.5 -24q37 -36 73 -36q17 0 22 7.5t5 26.5v37h104v-62q0 -43 -21.5 -65t-70.5 -22h-44z" />
    <glyph glyph-name="notequal" unicode="&#x2260;" horiz-adv-x="500" 
d="M461 365v-96h-195l-85 -169h-79l85 169h-148v96h196l84 166h79l-84 -166h147z" />
    <glyph glyph-name="lessequal" unicode="&#x2264;" horiz-adv-x="478" 
d="M433 450l-302 -62l302 -64v-93l-400 112v94l400 104v-91zM433 205v-83h-400v83h400z" />
    <glyph glyph-name="greaterequal" unicode="&#x2265;" horiz-adv-x="478" 
d="M341 388l-302 62v91l400 -104v-94l-400 -112v93zM39 122v83h400v-83h-400z" />
    <glyph glyph-name="lozenge" unicode="&#x25ca;" horiz-adv-x="557" 
d="M277 94l110 222l-110 221l-107 -221zM331 631l170 -315l-170 -316h-108l-167 316l167 315h108z" />
    <glyph glyph-name="uni25CC" unicode="&#x25cc;" horiz-adv-x="419" 
d="M137 151v-73q-29 0 -47.5 20t-18.5 53h66zM71 262h66v-73h-66v73zM71 374h66v-73h-66v73zM137 412h-66q0 34 18 53.5t48 19.5v-73zM279 151h66q0 -30 -18 -51.5t-48 -21.5v73zM279 262h66v-73h-66v73zM279 374h66v-73h-66v73zM279 412v73q66 0 66 -73h-66zM175 485h66
v-73h-66v73zM175 151h66v-73h-66v73z" />
    <glyph glyph-name="commaaccent" unicode="&#xf6c3;" horiz-adv-x="444" 
d="M163 -250v201h118v-60l-80 -141h-38z" />
    <glyph glyph-name="fi" unicode="&#xfb01;" horiz-adv-x="415" 
d="M373 491v-491h-113v403h-91v-403h-112v403h-50v88h50v79q0 99 108 99h51v-88h-19q-16 0 -22 -5.5t-6 -21.5v-63h204zM260 669h113v-88h-113v88z" />
    <glyph glyph-name="fl" unicode="&#xfb02;" horiz-adv-x="415" 
d="M261 669h112v-669h-112v403h-92v-403h-112v403h-50v88h50v79q0 99 108 99h51v-88h-19q-16 0 -22 -5.5t-6 -21.5v-63h92v178z" />
    <glyph glyph-name="itfLogo" horiz-adv-x="1648" 
d="M147 0v634h196v-634h-196zM383 449v185h196v-185h-196zM619 0v634h196v-634h-196zM855 449v185h196v-185h-196zM1091 0v634h196v-634h-196zM1327 449v185h196v-185h-196zM1327 224v185h196v-185h-196z" />
    <glyph glyph-name="uni0915094D" horiz-adv-x="485" 
d="M394 449h121v-82h-133q-16 0 -22.5 -6.5t-6.5 -23.5v-337h-114v90q-12 -12 -41 -12h-62q-102 0 -102 100v210q0 47 24.5 69t81.5 22h59v-78h-24q-16 0 -22 -5.5t-6 -20.5v-186q0 -17 6 -22.5t22 -5.5h35q16 0 22.5 6t6.5 23v358h-259v83h525v-83h-152v-110q11 11 41 11z
" />
    <glyph glyph-name="uni0916094D" horiz-adv-x="570" 
d="M486 367v-155q0 -17 6 -22.5t22 -5.5h92v-83h-129q-102 0 -102 100v179q0 47 24.5 69t81.5 22h61v-78h-28q-16 0 -22 -5.5t-6 -20.5zM-20 631h626v-83h-281q7 -11 7 -26v-197q0 -50 -25.5 -72t-82.5 -22h-66v-114q0 -19 6.5 -26t25.5 -7h208v-84h-230q-64 0 -94 23
t-30 72v376h114v-158h28q19 0 25.5 7t6.5 26v170q0 20 -6 26t-26 6h-206v83z" />
    <glyph glyph-name="uni0917094D" horiz-adv-x="444" 
d="M174 161h35q16 0 22 5.5t6 22.5v174h-61q-20 0 -25.5 -5.5t-5.5 -25.5v-143q0 -17 6.5 -22.5t22.5 -5.5zM464 631v-83h-113v-370q0 -53 -27 -76.5t-88 -23.5h-89q-61 0 -88 23.5t-27 76.5v173q0 50 29.5 72.5t93.5 22.5h82v102h-257v83h484z" />
    <glyph glyph-name="uni0918094D" horiz-adv-x="295" 
d="M319 548h-129q-20 0 -26 -6t-6 -26v-93q0 -17 5.5 -22.5t21.5 -5.5h53v-82h-53q-16 0 -21.5 -5.5t-5.5 -22.5v-96q0 -17 5.5 -22.5t21.5 -5.5h134v-83h-159q-60 0 -88 24t-28 76v123q0 47 42 50v4q-42 5 -42 51v116q0 16 7 26h-71v83h339v-83z" />
    <glyph glyph-name="uni0919094D" horiz-adv-x="442" 
d="M138 -61h115l114 -139h-116zM344 297v105h94v-105h-94zM-20 631h482v-83h-126v-147h-147q-16 0 -21.5 -5t-5.5 -21v-50q0 -16 5.5 -21t21.5 -5h57q57 0 81.5 -22t24.5 -69v-117q0 -47 -24.5 -69t-81.5 -22h-101q-57 0 -81.5 22t-24.5 69v71h114v-57q0 -16 5 -21.5
t19 -5.5h34q16 0 22 5.5t6 21.5v90q0 15 -6 20.5t-22 5.5h-57q-57 0 -81 22t-24 69v76q0 47 24 69t81 22h69v69h-243v83z" />
    <glyph glyph-name="uni091A094D" horiz-adv-x="273" 
d="M171 369v-180q0 -17 5.5 -22.5t21.5 -5.5h100v-83h-139q-102 0 -102 100v180q0 27 14 39h-73v82h233v-82h-33q-16 0 -21.5 -5.5t-5.5 -22.5zM-21 631h319v-83h-319v83z" />
    <glyph glyph-name="uni091B094D" horiz-adv-x="589" 
d="M609 631v-83h-406l5 -1q-8 1 -20.5 1t-20.5 -5t-8 -27v-135q0 -17 6 -22.5t22 -5.5h35v-82h-35q-16 0 -22 -5.5t-6 -22.5v-131q0 -17 6 -22.5t22 -5.5h219q17 0 22.5 5.5t5.5 22.5v267q0 16 -5.5 21t-22.5 5h-18q-16 0 -21.5 -5t-5.5 -21v-92q0 -16 5.5 -21t21.5 -5h16
v-74h-38q-98 0 -98 91v110q0 49 26 70t81 21h62q55 0 81.5 -21t26.5 -70v-288q0 -52 -28 -76t-88 -24h-268q-59 0 -87 24t-28 76v159q0 46 41 51v3q-41 5 -41 51v158q0 18 7 26h-73v83h629z" />
    <glyph glyph-name="uni091C094D" horiz-adv-x="429" 
d="M43 178v301h113v-290q0 -17 6 -22.5t23 -5.5h27q16 0 22 5.5t6 22.5v290h239v-82h-126v-219q0 -53 -26.5 -76.5t-88.5 -23.5h-80q-62 0 -88.5 23.5t-26.5 76.5zM-20 548v83h499v-83h-499z" />
    <glyph glyph-name="uni091D094D" horiz-adv-x="425" 
d="M346 401h-166q-16 0 -22 -5.5t-6 -20.5v-33q0 -15 6 -20.5t22 -5.5h290v-79h-114q2 -14 2 -21v-81q0 -47 -24.5 -69t-81.5 -22h-98v-71h-114v206h114v-57h63q16 0 22 5.5t6 20.5v63q0 15 -6 20.5t-22 5.5h-72q-57 0 -81.5 22t-24.5 70v59q0 47 24.5 69t81.5 22h87v69
h-252v83h490v-83h-124v-147z" />
    <glyph glyph-name="uni091E094D" horiz-adv-x="424" 
d="M333 384v-51h141v-83h-141v-72q0 -53 -26.5 -76.5t-88.5 -23.5h-77q-62 0 -88.5 23.5t-26.5 76.5v84h113v-73q0 -17 6 -22.5t22 -5.5h25q16 0 22 5.5t6 22.5v181q0 16 -5.5 21.5t-22.5 5.5h-93v82h129q56 0 80.5 -24t24.5 -71zM-20 631h494v-83h-494v83z" />
    <glyph glyph-name="uni091F094D" horiz-adv-x="402" 
d="M156 -61h115l114 -139h-116zM-20 631h442v-83h-67v-151h-165q-16 0 -22 -5.5t-6 -22.5v-258q0 -17 6 -22.5t22 -5.5h27q16 0 22.5 5.5t6.5 22.5v103h113v-114q0 -53 -27 -76.5t-88 -23.5h-81q-61 0 -88 23.5t-27 76.5v288q0 47 24.5 69t81.5 22h88v69h-262v83z" />
    <glyph glyph-name="uni0920094D" horiz-adv-x="421" 
d="M138 -61h115l114 -139h-116zM263 111v258q0 17 -6 22.5t-22 5.5h-45q-16 0 -22 -5.5t-6 -22.5v-258q0 -17 6 -22.5t22 -5.5h45q16 0 22 5.5t6 22.5zM441 548h-172v-69q58 -1 82.5 -24.5t24.5 -75.5v-279q0 -53 -26.5 -76.5t-88.5 -23.5h-98q-61 0 -88 23.5t-27 76.5v279
q0 52 25 75.5t83 24.5v69h-176v83h461v-83z" />
    <glyph glyph-name="uni0921094D" horiz-adv-x="403" 
d="M138 -61h115l114 -139h-116zM-20 631h443v-83h-87v-147h-147q-16 0 -21.5 -5t-5.5 -21v-50q0 -16 5.5 -21t21.5 -5h57q57 0 81.5 -22t24.5 -69v-117q0 -47 -24.5 -69t-81.5 -22h-101q-57 0 -81.5 22t-24.5 69v71h114v-57q0 -16 5 -21.5t19 -5.5h34q16 0 22 5.5t6 21.5v90
q0 15 -6 20.5t-22 5.5h-57q-57 0 -81 22t-24 69v76q0 47 24 69t81 22h69v69h-243v83z" />
    <glyph glyph-name="uni0922094D" horiz-adv-x="439" 
d="M156 -61h115l114 -139h-116zM355 397h-165q-16 0 -22 -5.5t-6 -22.5v-258q0 -17 6 -22.5t22 -5.5h63q16 0 22 5.5t6 22.5v71q0 16 -6 21.5t-22 5.5h-43v83h70q61 0 88 -23.5t27 -76.5v-92q0 -53 -27 -76.5t-88 -23.5h-117q-61 0 -88 23.5t-27 76.5v288q0 47 24.5 69
t81.5 22h88v69h-262v83h479v-83h-104v-151z" />
    <glyph glyph-name="uni0923094D" horiz-adv-x="396" 
d="M240 189v359h-84v-359q0 -17 6 -22.5t23 -5.5h27q16 0 22 5.5t6 22.5zM416 631v-83h-63v-370q0 -53 -26.5 -76.5t-88.5 -23.5h-80q-62 0 -88.5 23.5t-26.5 76.5v370h-63v83h436z" />
    <glyph glyph-name="uni0924094D" horiz-adv-x="264" 
d="M149 479h135v-82h-100q-16 0 -22 -5.5t-6 -21.5v-259q0 -16 6 -21.5t22 -5.5h24v-84h-59q-57 0 -81.5 22t-24.5 69v297q0 47 24.5 69t81.5 22zM-20 548v83h304v-83h-304z" />
    <glyph glyph-name="uni0925094D" horiz-adv-x="371" 
d="M189 161h212v-83h-238q-59 0 -87 24t-28 76v196h110q16 0 22 5.5t6 21.5v126q0 15 -6 20.5t-22 5.5h-6q-16 0 -21.5 -5t-5.5 -21v-41h-69v59q0 47 24 69t76 22h42q101 0 101 -91v-158q0 -48 -24.5 -71.5t-81.5 -23.5h-32v-103q0 -17 6 -22.5t22 -5.5z" />
    <glyph glyph-name="uni0926094D" horiz-adv-x="403" 
d="M245 0v90q-12 -12 -41 -12h-47q-61 0 -88 23.5t-27 76.5v210q0 47 24.5 69t81.5 22h93v69h-267v83h449v-83h-69v-151h-170q-16 0 -22 -5.5t-6 -22.5v-180q0 -17 5.5 -22.5t21.5 -5.5h33q16 0 22.5 6t6.5 23v87h113v-277h-113zM351 -61l114 -139h-116l-113 139h115z" />
    <glyph glyph-name="uni0927094D" horiz-adv-x="357" 
d="M176 527v-113q0 -17 5.5 -22.5t21.5 -5.5h69v-83h-69q-16 0 -21.5 -5.5t-5.5 -21.5v-87q0 -17 5.5 -22.5t21.5 -5.5h174v-83h-213q-102 0 -102 91v123q0 45 42 50v4q-42 5 -42 51v148q0 91 102 91h43q101 0 101 -91v-59h-69v41q0 16 -5.5 21t-21.5 5h-9q-16 0 -21.5 -5
t-5.5 -21z" />
    <glyph glyph-name="uni0928094D" horiz-adv-x="416" 
d="M146 370v-181q0 -17 6 -22.5t23 -5.5h24q16 0 22 5.5t6 22.5v208h-53q-16 0 -22 -5.5t-6 -21.5zM33 178v210q0 47 24.5 69t81.5 22h297v-82h-95v-219q0 -53 -27 -76.5t-89 -23.5h-77q-62 0 -88.5 23.5t-26.5 76.5zM-20 631h456v-83h-456v83z" />
    <glyph glyph-name="uni092A094D" horiz-adv-x="250" 
d="M290 548h-132v-359q0 -17 5.5 -22.5t21.5 -5.5h105v-83h-144q-102 0 -102 100v370h-64v83h310v-83z" />
    <glyph glyph-name="uni092B094D" horiz-adv-x="481" 
d="M250 190v358h-92v-359q0 -17 5.5 -22.5t21.5 -5.5h36q16 0 22.5 6t6.5 23zM501 548h-138v-81q12 12 41 12h97v-82h-109q-16 0 -22.5 -6.5t-6.5 -23.5v-367h-113v91q-12 -13 -42 -13h-62q-102 0 -102 100v370h-64v83h521v-83z" />
    <glyph glyph-name="uni092C094D" horiz-adv-x="319" 
d="M155 189q0 -17 5.5 -22.5t21.5 -5.5h97l-69 112q-46 83 -55 94v-178zM338 78h-195q-102 0 -102 100v210q0 47 24.5 69t81.5 22h119v-78h-74l61 -101l85 -148v-74zM-20 548v83h358v-83h-358z" />
    <glyph glyph-name="uni092D094D" horiz-adv-x="430" 
d="M247 189v146h-63q-16 0 -22 -5.5t-6 -20.5v-120q0 -17 6 -22.5t23 -5.5h34q16 0 22 5.5t6 22.5zM480 418v-83h-119v-157q0 -53 -27 -76.5t-88 -23.5h-88q-62 0 -88.5 23.5t-26.5 76.5v149q0 47 24.5 69t81.5 22h98v106q0 16 -5.5 21t-21.5 5h-28q-16 0 -21.5 -5t-5.5 -21
v-43h-114v56q0 48 24.5 72t81.5 24h98q56 0 81 -24t25 -72v-119h119z" />
    <glyph glyph-name="uni092E094D" horiz-adv-x="448" 
d="M237 205v144h-71q-16 0 -22 -5.5t-6 -20.5v-118q0 -16 6.5 -21.5t22.5 -5.5h42q16 0 22 5.5t6 21.5zM486 548h-135v-116h135v-83h-135v-154q0 -53 -27 -76.5t-88 -23.5h-88q-62 0 -88.5 23.5t-26.5 76.5v146q0 47 24.5 69t81.5 22h98v116h-261v83h510v-83z" />
    <glyph glyph-name="uni092F094D" horiz-adv-x="353" 
d="M373 631v-83h-109q10 -13 10 -34v-119q0 -48 -23.5 -72t-79.5 -24h-20v-110q0 -17 5.5 -22.5t21.5 -5.5h195v-83h-221q-59 0 -87 24t-28 76v204h100q16 0 21.5 5t5.5 21v107q0 21 -7 27t-33 6h-155v83h404z" />
    <glyph glyph-name="uni0930094D" horiz-adv-x="393" 
d="M352 208v-117q0 -47 -24 -69t-81 -22h-98q-57 0 -81.5 22t-24.5 69v366h113v-105h52q19 0 25.5 7t6.5 26v131q0 20 -6 26t-26 6h-228v83h433v-83h-67q7 -8 7 -26v-158q0 -49 -29.5 -71.5t-93.5 -22.5h-74v-165q0 -16 6 -21.5t22 -5.5h30q15 0 20 5.5t5 21.5v103h113z
M342 -61l114 -139h-116l-113 139h115z" />
    <glyph glyph-name="uni0932094D" horiz-adv-x="444" 
d="M150 479h103q46 0 51 -41h3q5 41 50 41h107v-82h-75q-17 0 -22.5 -6t-5.5 -22v-189h-113v189q0 16 -5.5 22t-22.5 6h-31q-16 0 -21.5 -5.5t-5.5 -22.5v-258q0 -16 5.5 -21.5t21.5 -5.5h57v-84h-92q-57 0 -81 22t-24 69v288q0 52 25 76t76 24zM-20 548v83h484v-83h-484z
" />
    <glyph glyph-name="uni0933094D" horiz-adv-x="614" 
d="M253 189v180q0 16 -5.5 22t-22.5 6h-47q-16 0 -21.5 -5.5t-5.5 -22.5v-180q0 -17 5.5 -22.5t21.5 -5.5h47q17 0 22.5 6t5.5 22zM463 189v180q0 17 -5.5 22.5t-21.5 5.5h-47q-17 0 -22 -6t-5 -22v-180q0 -16 5 -22t22 -6h47q16 0 21.5 5.5t5.5 22.5zM369 479h106
q52 0 77 -24t25 -76v-201q0 -100 -102 -100h-106q-54 0 -59 41h-4q-3 -41 -59 -41h-108q-102 0 -102 100v201q0 100 102 100h108q56 0 59 -41h4q5 41 59 41zM-31 548v83h676v-83h-676z" />
    <glyph glyph-name="uni0935094D" horiz-adv-x="250" 
d="M150 479h59v-78h-24q-16 0 -21.5 -5t-5.5 -21v-186q0 -17 5.5 -22.5t21.5 -5.5h85v-83h-124q-102 0 -102 100v210q0 47 24.5 69t81.5 22zM-20 548v83h290v-83h-290z" />
    <glyph glyph-name="uni0936094D" horiz-adv-x="417" 
d="M239 253h-74v-148q0 -16 5.5 -21.5t22.5 -5.5h30q14 0 19.5 5.5t5.5 21.5v86h113v-100q0 -47 -24.5 -69t-81.5 -22h-98q-57 0 -81 22t-24 69v297h113v-53h52q19 0 25.5 7t6.5 26v157q0 16 -5.5 21t-22.5 5h-30q-15 0 -20 -5.5t-5 -20.5v-69h-113v82q0 48 24.5 72t81.5 24
h97q57 0 81.5 -24t24.5 -72v-191q0 -49 -29.5 -71.5t-93.5 -22.5z" />
    <glyph glyph-name="uni0937094D" horiz-adv-x="324" 
d="M162 344v-155q0 -17 5.5 -22.5t21.5 -5.5h79q23 0 27 14l-93 181q-30 58 -44 96l-5 13q9 -50 9 -121zM369 631v-83h-203l89 -172q47 -90 76 -176l1 -65q-6 -57 -76 -57h-106q-102 0 -102 100v370h-68v83h389z" />
    <glyph glyph-name="uni0938094D" horiz-adv-x="424" 
d="M457 631v-83h-111q7 -8 7 -26v-125q0 -29 -14 -45h118v-82h-301v-165q0 -16 6 -21.5t22 -5.5h30q15 0 20 5.5t5 21.5v103h113v-117q0 -47 -24 -69t-81 -22h-98q-57 0 -81.5 22t-24.5 69v366h113v-105h52q19 0 25.5 7t6.5 26v131q0 20 -6 26t-26 6h-228v83h477z" />
    <glyph glyph-name="uni0939094D" horiz-adv-x="445" 
d="M370 397h-181q-16 0 -21.5 -5.5t-5.5 -20.5v-34q0 -15 5.5 -20t21.5 -5h276v-83h-276q-16 0 -21.5 -5.5t-5.5 -22.5v-90q0 -17 5.5 -22.5t21.5 -5.5h186v-83h-212q-59 0 -87 24t-28 76v118q0 45 42 50v3q-42 5 -42 51v66q0 47 24.5 69t81.5 22h102v69h-276v83h485v-83
h-95v-151z" />
    <glyph glyph-name="uni0915093C094D" horiz-adv-x="485" 
d="M89 -106v105h95v-105h-95zM394 449h121v-82h-133q-16 0 -22.5 -6.5t-6.5 -23.5v-337h-114v90q-12 -12 -41 -12h-62q-102 0 -102 100v210q0 47 24.5 69t81.5 22h59v-78h-24q-16 0 -22 -5.5t-6 -20.5v-186q0 -17 6 -22.5t22 -5.5h35q16 0 22.5 6t6.5 23v358h-259v83h525
v-83h-152v-110q11 11 41 11z" />
    <glyph glyph-name="uni0916093C094D" horiz-adv-x="570" 
d="M141 -161v105h95v-105h-95zM486 367v-155q0 -17 6 -22.5t22 -5.5h92v-83h-129q-102 0 -102 100v179q0 47 24.5 69t81.5 22h61v-78h-28q-16 0 -22 -5.5t-6 -20.5zM-20 631h626v-83h-281q7 -11 7 -26v-197q0 -50 -25.5 -72t-82.5 -22h-66v-114q0 -19 6.5 -26t25.5 -7h208
v-84h-230q-64 0 -94 23t-30 72v376h114v-158h28q19 0 25.5 7t6.5 26v170q0 20 -6 26t-26 6h-206v83z" />
    <glyph glyph-name="uni0917093C094D" horiz-adv-x="444" 
d="M140 -106v105h95v-105h-95zM174 161h35q16 0 22 5.5t6 22.5v174h-61q-20 0 -25.5 -5.5t-5.5 -25.5v-143q0 -17 6.5 -22.5t22.5 -5.5zM464 631v-83h-113v-370q0 -53 -27 -76.5t-88 -23.5h-89q-61 0 -88 23.5t-27 76.5v173q0 50 29.5 72.5t93.5 22.5h82v102h-257v83h484z
" />
    <glyph glyph-name="uni091C093C094D" horiz-adv-x="429" 
d="M43 178v301h113v-290q0 -17 6 -22.5t23 -5.5h27q16 0 22 5.5t6 22.5v290h239v-82h-126v-219q0 -53 -26.5 -76.5t-88.5 -23.5h-80q-62 0 -88.5 23.5t-26.5 76.5zM-20 548v83h499v-83h-499zM152 -105v105h95v-105h-95z" />
    <glyph glyph-name="uni0928093C094D" horiz-adv-x="416" 
d="M-22 -81v105h95v-105h-95zM146 370v-181q0 -17 6 -22.5t23 -5.5h24q16 0 22 5.5t6 22.5v208h-53q-16 0 -22 -5.5t-6 -21.5zM33 178v210q0 47 24.5 69t81.5 22h297v-82h-95v-219q0 -53 -27 -76.5t-89 -23.5h-77q-62 0 -88.5 23.5t-26.5 76.5zM-20 631h456v-83h-456v83z
" />
    <glyph glyph-name="uni092B093C094D" horiz-adv-x="481" 
d="M90 -106v105h95v-105h-95zM250 190v358h-92v-359q0 -17 5.5 -22.5t21.5 -5.5h36q16 0 22.5 6t6.5 23zM501 548h-138v-81q12 12 41 12h97v-82h-109q-16 0 -22.5 -6.5t-6.5 -23.5v-367h-113v91q-12 -13 -42 -13h-62q-102 0 -102 100v370h-64v83h521v-83z" />
    <glyph glyph-name="uni092F093C094D" horiz-adv-x="353" 
d="M88 -106v105h95v-105h-95zM373 631v-83h-109q10 -13 10 -34v-119q0 -48 -23.5 -72t-79.5 -24h-20v-110q0 -17 5.5 -22.5t21.5 -5.5h195v-83h-221q-59 0 -87 24t-28 76v204h100q16 0 21.5 5t5.5 21v107q0 21 -7 27t-33 6h-155v83h404z" />
    <glyph glyph-name="itfStar" horiz-adv-x="672" 
d="M663 452l-218 -140q7 -16 48 -125.5t46 -121.5l-204 168q-20 -14 -205 -168l96 247q-14 8 -111 70t-110 70l261 -8q26 102 69 246l66 -246q136 8 262 8z" />
    <glyph glyph-name="uni09080902" horiz-adv-x="394" 
d="M341 751v-120h73v-83h-73v-147h-167q-16 0 -22 -5.5t-6 -20.5v-33q0 -15 6 -20.5t22 -5.5h75q57 0 81.5 -22t24.5 -70v-89q0 -47 -24.5 -69t-81.5 -22h-95v-71h-114v206h114v-57h60q17 0 22.5 5t5.5 21v63q0 16 -5.5 21t-22.5 5h-75q-57 0 -81.5 22t-24.5 70v59
q0 47 24.5 69t81.5 22h89v69h-248v83h248v133q0 47 24 69t81 22h86v-78h-50q-17 0 -22.5 -5t-5.5 -21zM374 744h79v-84h-79v84z" />
    <glyph glyph-name="uni09300941" horiz-adv-x="590" 
d="M610 631v-83h-264q7 -8 7 -26v-43h110q57 0 81 -22t24 -69v-132h-113v114q0 16 -5.5 21t-22.5 5h-74v-32q0 -49 -29.5 -71.5t-93.5 -22.5h-74v-165q0 -16 6 -21.5t22 -5.5h30q15 0 20 5.5t5 21.5v103h113v-117q0 -47 -24 -69t-81 -22h-98q-57 0 -81.5 22t-24.5 69v366
h113v-105h52q19 0 25.5 7t6.5 26v131q0 20 -6 26t-26 6h-228v83h630z" />
    <glyph glyph-name="uni09300942" horiz-adv-x="610" 
d="M630 631v-83h-284q7 -8 7 -26v-43h113q57 0 81.5 -22t24.5 -69v-205q0 -48 -24.5 -70t-81.5 -22h-68v85h33q16 0 21.5 5t5.5 21v168q0 16 -5.5 21t-21.5 5h-78v-32q0 -49 -29.5 -71.5t-93.5 -22.5h-74v-165q0 -16 6 -21.5t22 -5.5h30q15 0 20 5.5t5 21.5v103h113v-117
q0 -47 -24 -69t-81 -22h-98q-57 0 -81.5 22t-24.5 69v366h113v-105h52q19 0 25.5 7t6.5 26v131q0 20 -6 26t-26 6h-228v83h650z" />
    <glyph glyph-name="uni09390941" horiz-adv-x="418" 
d="M370 397h-181q-16 0 -21.5 -5.5t-5.5 -20.5v-30q0 -15 5.5 -20.5t21.5 -5.5h71q62 0 88.5 -23.5t26.5 -76.5v-47h-113v37q0 17 -6 22.5t-23 5.5h-44q-16 0 -21.5 -5.5t-5.5 -22.5v-94q0 -17 5.5 -22.5t21.5 -5.5h86q52 0 77 -24t25 -76v-52q0 -100 -102 -100h-111
q-66 0 -99.5 18.5t-63.5 70.5l-34 58h134l23 -38q16 -26 51 -26h58q19 0 25 6t6 25v24q0 19 -6 25t-25 6h-70q-64 0 -89.5 23t-25.5 77v121q0 46 42 51v3q-42 5 -42 51v62q0 47 24.5 69t81.5 22h102v69h-276v83h464v-83h-74v-151z" />
    <glyph glyph-name="uni09390942" horiz-adv-x="424" 
d="M264 0h-42q-20 0 -25.5 -6t-5.5 -25v-24q0 -19 5.5 -25t25.5 -6h52v-83h-94q-51 0 -74.5 23.5t-23.5 76.5v52q0 18 3 32q-37 16 -37 81v125q0 46 42 51v3q-42 5 -42 51v62q0 47 24.5 69t81.5 22h102v69h-276v83h464v-83h-74v-151h-181q-16 0 -21.5 -5.5t-5.5 -20.5v-30
q0 -15 5.5 -20.5t21.5 -5.5h71q62 0 88.5 -23.5t26.5 -76.5v-47h-113v37q0 17 -6 22.5t-23 5.5h-44q-16 0 -21.5 -5.5t-5.5 -22.5v-94q0 -17 5.5 -22.5t21.5 -5.5h81q61 0 90 -18t62 -69l102 -164h-126l-87 139q-18 29 -47 29z" />
    <glyph glyph-name="uni09260943" horiz-adv-x="403" 
d="M354 397h-170q-16 0 -22 -5.5t-6 -22.5v-180q0 -17 5.5 -22.5t21.5 -5.5h33q16 0 22.5 6t6.5 23v87h113v-355h-82q-17 0 -22.5 -5t-5.5 -21v-35q0 -16 5.5 -21t22.5 -5h132v-83h-167q-57 0 -81.5 22t-24.5 69v66q0 48 23.5 69.5t80.5 21.5h6v90q-12 -12 -41 -12h-47
q-61 0 -88 23.5t-27 76.5v210q0 47 24.5 69t81.5 22h93v69h-267v83h449v-83h-69v-151z" />
    <glyph glyph-name="uni09390943" horiz-adv-x="411" 
d="M362 401h-173q-16 0 -21.5 -5.5t-5.5 -19.5v-25q0 -15 5.5 -20.5t21.5 -5.5h85q69 0 69 -50q0 -22 -19 -52t-19 -38q0 -12 15 -12h40v-60h-78q-66 0 -66 48q0 20 18 47.5t18 35.5q0 12 -15 12h-48q-16 0 -21.5 -5.5t-5.5 -22.5v-126q0 -17 5.5 -22.5t21.5 -5.5h186v-74
h-212q-59 0 -87 24t-28 76v127q0 45 42 50v3q-42 5 -42 51v57q0 47 24.5 69t81.5 22h95v69h-269v83h456v-83h-74v-147z" />
    <glyph glyph-name="uni094D0930" horiz-adv-x="0" 
d="M-268 -143l100 171h127l98 -171h-101l-60 118l-62 -118h-102z" />
    <glyph glyph-name="uni0930094D.1" horiz-adv-x="316" 
d="M-20 631h356v-83h-356v83zM248 382h88v-83h-122q-56 0 -80 23.5t-24 72.5v65h110v-52q0 -15 6 -20.5t22 -5.5z" />
    <glyph glyph-name="uni0930094D.2" horiz-adv-x="0" 
d="M23 785v-79h-43q-16 0 -21.5 -5t-5.5 -20v-67h-114v80q0 47 24.5 69t81.5 22h78z" />
    <glyph glyph-name="uni0930094D0902" horiz-adv-x="0" 
d="M-16 660v84h79v-84h-79zM-57 855h86v-78h-50q-17 0 -22.5 -5t-5.5 -21v-137h-113v150q0 47 24 69t81 22z" />
    <glyph glyph-name="uni093E0930094D" horiz-adv-x="211" 
d="M232 706h-43q-16 0 -21.5 -5t-5.5 -20v-50h68v-83h-68v-548h-113v548h-68v83h67v63q0 47 24.5 69t81.5 22h78v-79z" />
    <glyph glyph-name="uni093E0930094D0902" horiz-adv-x="211" 
d="M162 751v-120h68v-83h-68v-548h-113v548h-68v83h68v133q0 47 24 69t81 22h86v-78h-50q-17 0 -22.5 -5t-5.5 -21zM195 744h79v-84h-79v84z" />
    <glyph glyph-name="uni0930094D.aMatraI" horiz-adv-x="0" 
d="M70 785v-79h-43q-16 0 -21.5 -5t-5.5 -20v-67h-114v80q0 47 24.5 69t81.5 22h78z" />
    <glyph glyph-name="uni0902.aMatraI" horiz-adv-x="0" 
d="M24 657v105h95v-105h-95z" />
    <glyph glyph-name="uni0930094D0902.aMatraI" horiz-adv-x="0" 
d="M33 660v84h79v-84h-79zM-8 855h86v-78h-50q-17 0 -22.5 -5t-5.5 -21v-137h-113v150q0 47 24 69t81 22z" />
    <glyph glyph-name="uni09400930094D" 
d="M247 788h-52q-21 0 -27 -6t-6 -27v-124h68v-83h-68v-548h-114v548h-68v83h68v86q0 21 -6 27t-27 6h-43q-21 0 -27.5 -6t-6.5 -27v-46h-113v68q0 94 98 94h117q61 0 63 -44h4v18q0 64 72 64h68v-83z" />
    <glyph glyph-name="uni09400902" 
d="M162 739v-108h68v-83h-68v-548h-114v548h-68v83h68v86q0 21 -6 27t-27 6h-43q-22 0 -28 -6t-6 -27v-46h-113v68q0 94 98 94h141q98 0 98 -94zM195 780h94v-105h-94v105z" />
    <glyph glyph-name="uni09400930094D0902" 
d="M162 755v-124h68v-83h-68v-548h-114v548h-68v83h68v86q0 21 -6 27t-27 6h-43q-21 0 -27.5 -6t-6.5 -27v-46h-113v68q0 94 98 94h117q61 0 63 -44h4v18q0 64 72 64h68v-83h-52q-21 0 -27 -6t-6 -27zM197 750h80v-83h-80v83z" />
    <glyph glyph-name="uni0940.aLong" 
d="M230 631v-83h-68v-548h-114v548h-68v83h68v86q0 21 -6 27t-27 6h-219q-22 0 -28 -6t-6 -27v-46h-113v68q0 94 98 94h317q98 0 98 -94v-108h68z" />
    <glyph glyph-name="uni09400930094D.aLong" 
d="M247 788h-52q-21 0 -27 -6t-6 -27v-124h68v-83h-68v-548h-114v548h-68v83h68v86q0 21 -6 27t-27 6h-219q-21 0 -27 -6t-6 -27v-46h-114v68q0 94 98 94h293q61 0 63 -44h4v18q0 64 72 64h68v-83z" />
    <glyph glyph-name="uni09400902.aLong" 
d="M162 739v-108h68v-83h-68v-548h-114v548h-68v83h68v86q0 21 -6 27t-27 6h-219q-22 0 -28 -6t-6 -27v-46h-113v68q0 94 98 94h317q98 0 98 -94zM195 780h94v-105h-94v105z" />
    <glyph glyph-name="uni09400930094D0902.aLong" 
d="M162 755v-124h68v-83h-68v-548h-114v548h-68v83h68v86q0 21 -6 27t-27 6h-219q-21 0 -27 -6t-6 -27v-46h-114v68q0 94 98 94h293q61 0 63 -44h4v18q0 64 72 64h68v-83h-52q-21 0 -27 -6t-6 -27zM199 745h80v-84h-80v84z" />
    <glyph glyph-name="uni09470930094D" horiz-adv-x="0" 
d="M-133 784q0 87 97 87h55v-83h-37q-21 0 -27 -6t-6 -27v-133h-109q-75 55 -132 130l-55 74h137l39 -55q33 -49 46 -90h3q-11 58 -11 103z" />
    <glyph glyph-name="uni09470902" horiz-adv-x="0" 
d="M-99 716v105h94v-105h-94zM-327 826h136l143 -204h-111q-45 38 -105 117z" />
    <glyph glyph-name="uni09470930094D0902" horiz-adv-x="0" 
d="M-133 784q0 87 97 87h55v-83h-37q-21 0 -27 -6t-6 -27v-133h-109q-75 55 -132 130l-55 74h137l39 -55q33 -49 46 -90h3q-11 58 -11 103zM-28 666v84h80v-84h-80z" />
    <glyph glyph-name="uni09480930094D" horiz-adv-x="0" 
d="M-104 770q0 66 73 66h50v-83h-34q-21 0 -28.5 -7t-7.5 -29v-93h-111q-40 19 -126 85l-151 117h139l52 -50q83 -85 129 -139h4q-49 62 -88 127l-40 62h110l11 -39q17 -58 22 -88h3q-7 35 -7 71z" />
    <glyph glyph-name="uni09480902" horiz-adv-x="0" 
d="M-40 664v105h94v-105h-94zM-272 709l-130 117h139l43 -50q66 -78 105 -139h4q-17 31 -34.5 73t-25.5 59l-23 57h109l32 -202h-110q-42 25 -109 85z" />
    <glyph glyph-name="uni09480930094D0902" horiz-adv-x="0" 
d="M-23 665v84h80v-84h-80zM-96 699q-8 64 -8 106q0 66 74 66h50v-83h-33q-22 0 -29 -7t-7 -28v-129h-112q-37 18 -125 85l-151 117h139l51 -50q76 -76 129 -139h5q-44 53 -89 127l-39 62h109l11 -39q17 -58 22 -88h3z" />
    <glyph glyph-name="uni094A0902" horiz-adv-x="211" 
d="M162 689v-58h68v-83h-68v-548h-113v548h-68v83h67v27q0 21 -6 27t-27 6h-90q-85 0 -85 85v54h114v-23q0 -21 6 -27t27 -6h90q85 0 85 -85zM174 829h94v-105h-94v105z" />
    <glyph glyph-name="uni094B0930094D" horiz-adv-x="211" 
d="M232 788h-37q-21 0 -27 -6t-6 -27v-124h68v-83h-68v-548h-113v548h-68v83h60q-70 54 -120 121l-55 74h137l39 -55q33 -49 46 -90h3q-11 58 -11 103q0 87 97 87h55v-83z" />
    <glyph glyph-name="uni094B0902" horiz-adv-x="211" 
d="M209 821v-105h-94v105h94zM230 631v-83h-68v-548h-113v548h-68v83h64q-42 38 -95 108l-63 87h136l137 -195h70z" />
    <glyph glyph-name="uni094B0930094D0902" horiz-adv-x="211" 
d="M163 755v-124h67v-83h-68v-548h-113v548h-68v83h61q-70 54 -120 121l-55 74h137l39 -55q33 -49 46 -90h3q-11 58 -11 103q0 87 97 87h55v-83h-37q-21 0 -27 -6t-6 -27zM186 750h79v-84h-79v84z" />
    <glyph glyph-name="uni094C0930094D" horiz-adv-x="211" 
d="M232 753h-34q-21 0 -28.5 -7t-7.5 -29v-86h68v-83h-68v-548h-113v548h-68v83h56q-35 19 -112 78l-151 117h139l52 -50q83 -85 129 -139h4q-49 62 -88 127l-40 62h110l11 -39q17 -58 22 -88h3q-7 35 -7 71q0 66 73 66h50v-83z" />
    <glyph glyph-name="uni094C0902" horiz-adv-x="211" 
d="M230 631v-83h-68v-548h-113v548h-68v83h61q-40 26 -98 78l-130 117h139l43 -50q66 -78 105 -139h4q-17 31 -34.5 73t-25.5 59l-23 57h109l31 -195h68zM176 769h94v-105h-94v105z" />
    <glyph glyph-name="uni094C0930094D0902" horiz-adv-x="211" 
d="M115 699q-8 64 -8 106q0 66 74 66h50v-83h-33q-22 0 -29 -7t-7 -28v-122h68v-83h-68v-548h-113v548h-68v83h55q-31 17 -111 78l-151 117h139l51 -50q76 -76 129 -139h5q-44 53 -89 127l-39 62h109l11 -39q17 -58 22 -88h3zM188 749h80v-84h-80v84z" />
    <glyph glyph-name="uni0915094D0937" horiz-adv-x="644" 
d="M280 390v135q0 17 -6.5 22.5t-22.5 5.5h-30q-16 0 -22 -5.5t-6 -22.5v-135q0 -17 6 -22.5t22 -5.5h30q16 0 22.5 5.5t6.5 22.5zM664 631v-83h-69v-548h-113v280h-312q-17 0 -23 -5.5t-6 -21.5v-99q0 -17 6 -22.5t23 -5.5h73q18 0 26 7.5t8 25.5v51h114v-237h-114v86
q-11 -15 -44 -15h-114q-91 0 -91 92v132q0 79 64 92q-13 12 -13 37v139q0 53 27 76.5t88 23.5h84q61 0 88 -23.5t27 -76.5v-148q0 -16 -8 -26h97v269h182z" />
    <glyph glyph-name="uni0915094D0937094D" horiz-adv-x="482" 
d="M193 525v-135q0 -17 6 -22.5t22 -5.5h30q16 0 22.5 5.5t6.5 22.5v135q0 17 -6.5 22.5t-22.5 5.5h-30q-16 0 -22 -5.5t-6 -22.5zM515 280h-345q-17 0 -23 -5.5t-6 -21.5v-99q0 -17 6 -22.5t23 -5.5h73q18 0 26 7.5t8 25.5v51h114v-237h-114v86q-11 -15 -44 -15h-114
q-91 0 -91 92v132q0 79 64 92q-13 12 -13 37v139q0 53 27 76.5t88 23.5h84q61 0 88 -23.5t27 -76.5v-148q0 -16 -8 -26h130v-82z" />
    <glyph glyph-name="uni0915094D0937094D092E" horiz-adv-x="1066" 
d="M904 432v116h-97v-116h97zM693 205v144h-71q-16 0 -22 -5.5t-6 -20.5v-118q0 -16 6.5 -21.5t22.5 -5.5h42q16 0 22 5.5t6 21.5zM280 390v135q0 17 -6.5 22.5t-22.5 5.5h-30q-16 0 -22 -5.5t-6 -22.5v-135q0 -17 6 -22.5t22 -5.5h30q16 0 22.5 5.5t6.5 22.5zM1086 631v-83
h-68v-548h-114v349h-97v-154q0 -53 -27 -76.5t-88 -23.5h-88q-62 0 -88.5 23.5t-26.5 76.5v85h-319q-17 0 -23 -5.5t-6 -21.5v-99q0 -17 6 -22.5t23 -5.5h73q18 0 26 7.5t8 25.5v51h114v-237h-114v86q-11 -15 -44 -15h-114q-91 0 -91 92v132q0 79 64 92q-13 12 -13 37v139
q0 53 27 76.5t88 23.5h84q61 0 88 -23.5t27 -76.5v-148q0 -16 -8 -26h105q10 70 105 70h98v116h-257v83h650z" />
    <glyph glyph-name="uni0915094D0937094D092E094D" horiz-adv-x="904" 
d="M701 205v144h-71q-16 0 -22 -5.5t-6 -20.5v-118q0 -16 6.5 -21.5t22.5 -5.5h42q16 0 22 5.5t6 21.5zM280 390v135q0 17 -6.5 22.5t-22.5 5.5h-30q-16 0 -22 -5.5t-6 -22.5v-135q0 -17 6 -22.5t22 -5.5h30q16 0 22.5 5.5t6.5 22.5zM950 548h-135v-116h135v-83h-135v-154
q0 -53 -27 -76.5t-88 -23.5h-88q-62 0 -88.5 23.5t-26.5 76.5v85h-327q-17 0 -23 -5.5t-6 -21.5v-99q0 -17 6 -22.5t23 -5.5h73q18 0 26 7.5t8 25.5v51h114v-237h-114v86q-11 -15 -44 -15h-114q-91 0 -91 92v132q0 79 64 92q-13 12 -13 37v139q0 53 27 76.5t88 23.5h84
q61 0 88 -23.5t27 -76.5v-148q0 -16 -8 -26h113q10 70 105 70h98v116h-261v83h510v-83z" />
    <glyph glyph-name="uni0915094D0937094D092E094D092F" horiz-adv-x="1357" 
d="M1195 195v353h-90q11 -13 11 -34v-67q0 -49 -24 -72.5t-80 -23.5h-20v-162q0 -17 5.5 -22.5t21.5 -5.5h142q19 0 26.5 7.5t7.5 26.5zM797 434h181q16 0 22 5.5t6 20.5v55q0 21 -7.5 27t-33.5 6h-168v-114zM683 189v162h-53q-16 0 -22 -5.5t-6 -20.5v-136q0 -17 6 -22.5
t23 -5.5h24q16 0 22 5.5t6 22.5zM280 390v135q0 17 -6.5 22.5t-22.5 5.5h-30q-16 0 -22 -5.5t-6 -22.5v-135q0 -17 6 -22.5t22 -5.5h30q16 0 22.5 5.5t6.5 22.5zM1377 631v-83h-68v-548h-114v90q-12 -12 -39 -12h-163q-59 0 -87 24t-28 76v173h-81v-173q0 -53 -27 -76.5
t-89 -23.5h-77q-62 0 -88.5 23.5t-26.5 76.5v102h-319q-17 0 -23 -5.5t-6 -21.5v-99q0 -17 6 -22.5t23 -5.5h73q18 0 26 7.5t8 25.5v51h114v-237h-114v86q-11 -15 -44 -15h-114q-91 0 -91 92v132q0 79 64 92q-13 12 -13 37v139q0 53 27 76.5t88 23.5h84q61 0 88 -23.5
t27 -76.5v-148q0 -16 -8 -26h105q9 72 105 72h88v114h-247v83h941z" />
    <glyph glyph-name="uni0915094D0937094D092F" horiz-adv-x="961" 
d="M800 195v353h-91q11 -13 11 -34v-122q0 -48 -24 -72t-80 -24h-20v-107q0 -17 5.5 -22.5t22.5 -5.5h142q20 0 27 7.5t7 26.5zM280 407v118q0 17 -6.5 22.5t-22.5 5.5h-30q-16 0 -22 -5.5t-6 -22.5v-118q0 -17 6 -22.5t22 -5.5h30q16 0 22.5 5.5t6.5 22.5zM981 631v-83h-68
v-548h-113v91q-12 -13 -40 -13h-162q-59 0 -87 24t-28 76v119h-313q-17 0 -23 -6.5t-6 -27.5v-109q0 -17 6 -22.5t23 -5.5h73q18 0 26 7.5t8 25.5v51h114v-237h-114v86q-11 -15 -44 -15h-114q-91 0 -91 92v143q0 85 64 98q-13 12 -13 37v122q0 53 27 76.5t88 23.5h84
q61 0 88 -23.5t27 -76.5v-132q0 -15 -7 -25h196q17 0 22.5 5t5.5 21v110q0 21 -7.5 27t-33.5 6h-111v83h523z" />
    <glyph glyph-name="uni0915094D0937094D0935" horiz-adv-x="857" 
d="M280 390v135q0 17 -6.5 22.5t-22.5 5.5h-30q-16 0 -22 -5.5t-6 -22.5v-135q0 -17 6 -22.5t22 -5.5h30q16 0 22.5 5.5t6.5 22.5zM870 631v-83h-69v-548h-113v91q-12 -13 -41 -13h-63q-101 0 -101 100v102h-313q-17 0 -23 -5.5t-6 -21.5v-99q0 -17 6 -22.5t23 -5.5h73
q18 0 26 7.5t8 25.5v51h114v-237h-114v86q-11 -15 -44 -15h-114q-91 0 -91 92v132q0 79 64 92q-13 12 -13 37v139q0 53 27 76.5t88 23.5h84q61 0 88 -23.5t27 -76.5v-148q0 -16 -8 -26h98v26q0 47 24 69t81 22h59v-78h-23q-17 0 -22.5 -5t-5.5 -21v-186q0 -17 5.5 -22.5
t22.5 -5.5h35q16 0 22.5 6t6.5 23v358h-230v83h412z" />
    <glyph glyph-name="uni091C094D091E" horiz-adv-x="744" 
d="M176 78h48v111q0 17 -6 22.5t-22 5.5h-19q-17 0 -23 -5.5t-6 -22.5v-84q0 -16 6 -21.5t22 -5.5zM764 631v-83h-69v-548h-113v367h-88q8 -10 8 -26v-250q0 -47 -24.5 -69t-81.5 -22h-67v-152h-105v152h-75q-57 0 -81 22t-24 69v105q0 53 26.5 76.5t88.5 23.5h55
q61 0 88 -23.5t27 -76.5v-118h41q16 0 21.5 5.5t5.5 21.5v229q0 20 -6.5 26.5t-25.5 6.5h-315v82h532v99h-602v83h784z" />
    <glyph glyph-name="uni091C094D091E094D" horiz-adv-x="462" 
d="M487 548h-141v-69h141v-78h-307q-16 0 -22 -5.5t-6 -20.5v-33q0 -15 6 -20.5t22 -5.5h72q57 0 81.5 -22t24.5 -70v-89q0 -47 -24.5 -69t-81.5 -22h-98v-71h-114v206h114v-57h63q16 0 22 5.5t6 20.5v63q0 15 -6 20.5t-22 5.5h-72q-57 0 -81.5 22t-24.5 70v59q0 47 24.5 69
t81.5 22h87v69h-261v83h516v-83z" />
    <glyph glyph-name="uni091C094D091E094D092F" horiz-adv-x="1059" 
d="M897 195v353h-90q10 -13 10 -34v-69q0 -48 -23.5 -72t-79.5 -24h-21v-160q0 -17 6 -22.5t22 -5.5h142q19 0 26.5 7.5t7.5 26.5zM170 78h49v104q0 16 -6.5 22t-22.5 6h-19q-16 0 -22 -5.5t-6 -22.5v-77q0 -16 5.5 -21.5t21.5 -5.5zM1079 631v-83h-69v-548h-113v91
q-12 -13 -40 -13h-162q-59 0 -87 24t-28 76v171h-90q7 -11 7 -25v-233q0 -47 -24.5 -69t-81.5 -22h-68v-152h-104v152h-75q-57 0 -81.5 22t-24.5 69v97q0 53 27 76.5t88 23.5h55q62 0 88.5 -23.5t26.5 -76.5v-110h41q17 0 22.5 5.5t5.5 21.5v212q0 19 -6 25.5t-26 6.5h-316
v83h636q16 0 21.5 5t5.5 21v57q0 21 -7 27t-33 6h-687v83h1099z" />
    <glyph glyph-name="uni0915094D0928" horiz-adv-x="990" 
d="M828 449v99h-475v-110q11 11 41 11h434zM639 189v178h-54q-16 0 -21.5 -5.5t-5.5 -21.5v-151q0 -17 6 -22.5t22 -5.5h24q17 0 23 5.5t6 22.5zM1010 631v-83h-69v-548h-113v367h-76v-189q0 -53 -26.5 -76.5t-88.5 -23.5h-77q-62 0 -89 23.5t-27 76.5v189h-62
q-16 0 -22.5 -6.5t-6.5 -23.5v-337h-114v90q-12 -12 -41 -12h-62q-102 0 -102 100v210q0 47 24.5 69t81.5 22h59v-78h-24q-16 0 -22 -5.5t-6 -20.5v-186q0 -17 6 -22.5t22 -5.5h35q16 0 22.5 6t6.5 23v358h-259v83h1030z" />
    <glyph glyph-name="uni0916094D0928" horiz-adv-x="1122" 
d="M771 189v208h-53q-16 0 -21.5 -5.5t-5.5 -21.5v-181q0 -17 6 -22.5t22 -5.5h24q16 0 22 5.5t6 22.5zM1142 631v-83h-68v-548h-113v397h-76v-219q0 -53 -27 -76.5t-88 -23.5h-78q-78 0 -101 39q-15 -16 -49 -16h-65q-102 0 -102 100v187q0 47 24.5 69t81.5 22h61v-78h-28
q-16 0 -22 -5.5t-6 -20.5v-163q0 -17 6 -22.5t22 -5.5h30q18 0 25.5 7t7.5 25v172q0 47 24.5 69t81.5 22h278v69h-636q7 -11 7 -26v-188q0 -50 -25.5 -72.5t-82.5 -22.5h-66v-122q0 -19 6.5 -26t25.5 -7h229v-84h-251q-64 0 -94 23t-30 72v376h114v-149h28q19 0 25.5 6.5
t6.5 25.5v162q0 20 -6 26t-26 6h-206v83h1162z" />
    <glyph glyph-name="uni0917094D0928" horiz-adv-x="980" 
d="M629 189v208h-53q-16 0 -22 -5.5t-6 -21.5v-181q0 -17 6 -22.5t23 -5.5h24q16 0 22 5.5t6 22.5zM174 161h35q16 0 22 5.5t6 22.5v174h-61q-20 0 -25.5 -5.5t-5.5 -25.5v-143q0 -17 6.5 -22.5t22.5 -5.5zM1000 631v-83h-68v-548h-114v397h-75v-219q0 -53 -27 -76.5
t-89 -23.5h-77q-62 0 -88.5 23.5t-26.5 76.5v210q0 47 24.5 69t81.5 22h277v69h-467v-370q0 -53 -27 -76.5t-88 -23.5h-89q-61 0 -88 23.5t-27 76.5v173q0 50 29.5 72.5t93.5 22.5h82v102h-257v83h1020z" />
    <glyph glyph-name="uni0918094D0928" horiz-adv-x="843" 
d="M680 479v69h-490q-20 0 -26 -6t-6 -26v-93q0 -17 5.5 -22.5t21.5 -5.5h53v-82h-53q-16 0 -21.5 -5.5t-5.5 -22.5v-96q0 -17 5.5 -22.5t21.5 -5.5h77q19 0 26.5 7t7.5 26v194q0 47 24.5 69t81.5 22h278zM491 189v208h-54q-16 0 -21.5 -5.5t-5.5 -21.5v-181q0 -17 6 -22.5
t22 -5.5h24q16 0 22.5 5.5t6.5 22.5zM862 631v-83h-69v-548h-113v397h-76v-219q0 -53 -27 -76.5t-88 -23.5h-78q-61 0 -88 23q-17 -23 -60 -23h-103q-60 0 -88 24t-28 76v123q0 47 42 50v4q-42 5 -42 51v116q0 16 7 26h-71v83h882z" />
    <glyph glyph-name="uni091A094D0928" horiz-adv-x="821" 
d="M470 189v208h-53q-16 0 -21.5 -5.5t-5.5 -21.5v-181q0 -17 6 -22.5t22 -5.5h24q16 0 22 5.5t6 22.5zM841 631v-83h-68v-548h-113v397h-76v-219q0 -53 -27 -76.5t-88 -23.5h-78q-66 0 -93 28q-16 -28 -64 -28h-75q-102 0 -102 100v180q0 27 14 39h-73v82h233v-82h-33
q-16 0 -21.5 -5.5t-5.5 -22.5v-180q0 -17 5.5 -22.5t21.5 -5.5h44q19 0 26.5 7t7.5 26v194q0 47 24.5 69t81.5 22h278v69h-680v83h861z" />
    <glyph glyph-name="uni091B094D0928" horiz-adv-x="589" 
d="M354 548h-151l5 -1q-8 1 -20.5 1t-20.5 -5t-8 -27v-135q0 -17 6 -22.5t22 -5.5h35v-82h-35q-16 0 -22 -5.5t-6 -22.5v-131q0 -17 6 -22.5t22 -5.5h219q17 0 22.5 5.5t5.5 22.5v267q0 16 -5.5 21t-22.5 5h-18q-16 0 -21.5 -5t-5.5 -21v-92q0 -16 5.5 -21t21.5 -5h16v-74
h-38q-98 0 -98 91v110q0 44 21 65.5t65 24.5v70zM609 548h-149v-70q43 -4 64 -25.5t21 -64.5v-288q0 -51 -27.5 -75t-84.5 -25v-248h-92v108h-76q-16 0 -21.5 -5.5t-5.5 -22.5v-33l-92 1v46q0 91 95 91h100v63h-180q-59 0 -87 24t-28 76v159q0 46 41 51v3q-41 5 -41 51v158
q0 18 7 26h-73v83h629v-83z" />
    <glyph glyph-name="uni091C094D0928" horiz-adv-x="982" 
d="M631 189v208h-53q-16 0 -22 -5.5t-6 -21.5v-181q0 -17 6.5 -22.5t22.5 -5.5h24q16 0 22 5.5t6 22.5zM1002 631v-83h-68v-548h-114v397h-75v-219q0 -53 -27 -76.5t-88 -23.5h-78q-61 0 -88 23.5t-27 76.5v219h-84v-219q0 -53 -26.5 -76.5t-88.5 -23.5h-80
q-62 0 -88.5 23.5t-26.5 76.5v301h113v-290q0 -17 6 -22.5t23 -5.5h27q16 0 22 5.5t6 22.5v290h580v69h-840v83h1022z" />
    <glyph glyph-name="uni091D094D0928" horiz-adv-x="984" 
d="M822 479v69h-476v-147h-166q-16 0 -22 -5.5t-6 -20.5v-33q0 -15 6 -20.5t22 -5.5h259v72q0 47 24.5 69t81.5 22h277zM633 189v208h-53q-16 0 -22 -5.5t-6 -21.5v-181q0 -17 6 -22.5t23 -5.5h24q16 0 22 5.5t6 22.5zM1004 631v-83h-68v-548h-114v397h-75v-219
q0 -53 -27 -76.5t-89 -23.5h-77q-62 0 -88.5 23.5t-26.5 76.5v59h-83q2 -14 2 -21v-81q0 -47 -24.5 -69t-81.5 -22h-98v-71h-114v206h114v-57h63q16 0 22 5.5t6 20.5v63q0 15 -6 20.5t-22 5.5h-72q-57 0 -81.5 22t-24.5 70v59q0 47 24.5 69t81.5 22h87v69h-252v83h1024z" />
    <glyph glyph-name="uni091F094D0928" horiz-adv-x="402" 
d="M355 397h-165q-16 0 -22 -5.5t-6 -22.5v-258q0 -17 6 -22.5t22 -5.5h27q16 0 22.5 5.5t6.5 22.5v103h113v-114q0 -50 -25 -75v-273h-91v108h-50q-16 0 -22 -5.5t-6 -22.5v-33l-91 1v46q0 91 95 91h74v63h-80q-61 0 -88 23.5t-27 76.5v288q0 47 24.5 69t81.5 22h88v69
h-262v83h442v-83h-67v-151z" />
    <glyph glyph-name="uni0920094D0928" horiz-adv-x="421" 
d="M190 83h45q16 0 22 5.5t6 22.5v258q0 17 -6 22.5t-22 5.5h-45q-16 0 -22 -5.5t-6 -22.5v-258q0 -17 6 -22.5t22 -5.5zM441 548h-172v-69q58 -1 82.5 -24.5t24.5 -75.5v-279q0 -66 -43 -87v-261h-92v108h-44q-16 0 -22 -5.5t-6 -22.5v-33l-91 1v46q0 48 23.5 69.5
t71.5 21.5h68v63h-78q-61 0 -88 23.5t-27 76.5v279q0 52 25 75.5t83 24.5v69h-176v83h461v-83z" />
    <glyph glyph-name="uni0921094D0928" horiz-adv-x="403" 
d="M336 401h-147q-16 0 -21.5 -5t-5.5 -21v-50q0 -16 5.5 -21t21.5 -5h57q57 0 81.5 -22t24.5 -69v-117q0 -52 -30 -73v-266h-92v108h-49q-17 0 -22.5 -5.5t-5.5 -22.5v-33l-91 1v46q0 48 23.5 69.5t71.5 21.5h73v63h-85q-57 0 -81.5 22t-24.5 69v71h114v-57q0 -16 5 -21.5
t19 -5.5h34q16 0 22 5.5t6 21.5v90q0 15 -6 20.5t-22 5.5h-57q-57 0 -81 22t-24 69v76q0 47 24 69t81 22h69v69h-243v83h443v-83h-87v-147z" />
    <glyph glyph-name="uni0924094D0928" horiz-adv-x="809" 
d="M458 189v208h-53q-16 0 -22 -5.5t-6 -21.5v-181q0 -17 6.5 -22.5t22.5 -5.5h24q16 0 22 5.5t6 22.5zM829 631v-83h-68v-548h-114v397h-75v-219q0 -53 -27 -76.5t-88 -23.5h-78q-61 0 -88 23.5t-27 76.5v219h-80q-16 0 -22 -5.5t-6 -21.5v-259q0 -16 6 -21.5t22 -5.5h24
v-84h-59q-57 0 -81.5 22t-24.5 69v297q0 47 24.5 69t81.5 22h498v69h-667v83h849z" />
    <glyph glyph-name="uni0925094D0928" horiz-adv-x="911" 
d="M560 189v208h-54q-16 0 -21.5 -5.5t-5.5 -21.5v-181q0 -17 6 -22.5t22 -5.5h24q17 0 23 5.5t6 22.5zM931 631v-83h-69v-548h-113v397h-76v-219q0 -53 -26.5 -76.5t-88.5 -23.5h-78q-59 0 -87 22q-10 -22 -46 -22h-184q-59 0 -87 24t-28 76v196h110q16 0 22 5.5t6 21.5
v126q0 15 -6 20.5t-22 5.5h-6q-16 0 -21.5 -5t-5.5 -21v-41h-69v59q0 47 24 69t76 22h42q101 0 101 -91v-158q0 -48 -24.5 -71.5t-81.5 -23.5h-32v-103q0 -17 6 -22.5t22 -5.5h142q19 0 26.5 7.5t7.5 26.5v193q0 47 24.5 69t81.5 22h278v69h-384v83h566z" />
    <glyph glyph-name="uni0926094D0928" horiz-adv-x="403" 
d="M354 397h-170q-16 0 -22 -5.5t-6 -22.5v-180q0 -17 5.5 -22.5t21.5 -5.5h42q16 0 22.5 6t6.5 23v87h104v-448h-104v108h-55q-16 0 -22 -5.5t-6 -22.5v-32h-91v46q0 91 95 91h79v77q-12 -13 -41 -13h-56q-61 0 -88 23.5t-27 76.5v210q0 47 24.5 69t81.5 22h93v69h-267v83
h449v-83h-69v-151z" />
    <glyph glyph-name="uni0927094D0928" horiz-adv-x="902" 
d="M551 189v208h-54q-16 0 -21.5 -5.5t-5.5 -21.5v-181q0 -17 6 -22.5t22 -5.5h24q17 0 23 5.5t6 22.5zM922 631v-83h-69v-548h-113v397h-76v-219q0 -53 -26.5 -76.5t-88.5 -23.5h-77q-61 0 -87 23q-10 -23 -47 -23h-174q-102 0 -102 91v123q0 45 42 50v4q-42 5 -42 51v148
q0 91 102 91h43q101 0 101 -91v-59h-69v41q0 16 -5.5 21t-21.5 5h-9q-16 0 -21.5 -5t-5.5 -21v-113q0 -17 5.5 -22.5t21.5 -5.5h69v-83h-69q-16 0 -21.5 -5.5t-5.5 -21.5v-87q0 -17 5.5 -22.5t21.5 -5.5h120q19 0 26.5 7.5t7.5 26.5v193q0 47 24 69t81 22h278v69h-383l-1 83
h566z" />
    <glyph glyph-name="uni0928094D0928" horiz-adv-x="967" 
d="M616 189v208h-54q-16 0 -21.5 -5.5t-5.5 -21.5v-181q0 -17 6 -22.5t22 -5.5h24q17 0 23 5.5t6 22.5zM227 189v208h-53q-16 0 -22 -5.5t-6 -21.5v-181q0 -17 6 -22.5t23 -5.5h24q16 0 22 5.5t6 22.5zM987 631v-83h-69v-548h-113v397h-76v-219q0 -53 -26.5 -76.5
t-88.5 -23.5h-77q-62 0 -89 23.5t-27 76.5v219h-80v-219q0 -53 -27 -76.5t-89 -23.5h-77q-62 0 -88.5 23.5t-26.5 76.5v210q0 47 24.5 69t81.5 22h666v69h-825v83h1007z" />
    <glyph glyph-name="uni092A094D0928" horiz-adv-x="799" 
d="M637 479v69h-475v-359q0 -17 5.5 -22.5t21.5 -5.5h31q20 0 27 7.5t7 26.5v193q0 47 24 69t81 22h278zM448 189v208h-53q-17 0 -22.5 -5.5t-5.5 -21.5v-181q0 -17 6 -22.5t22 -5.5h25q16 0 22 5.5t6 22.5zM819 631v-83h-68v-548h-114v397h-76v-219q0 -53 -26.5 -76.5
t-88.5 -23.5h-77q-61 0 -87 23q-10 -23 -47 -23h-85q-102 0 -102 100v370h-68v83h839z" />
    <glyph glyph-name="uni092B094D0928" horiz-adv-x="1000" 
d="M838 479v69h-475v-81q12 12 41 12h434zM649 189v208h-53q-16 0 -22 -5.5t-6 -21.5v-181q0 -17 6.5 -22.5t22.5 -5.5h24q16 0 22 5.5t6 22.5zM185 161h36q16 0 22.5 6t6.5 23v358h-92v-359q0 -17 5.5 -22.5t21.5 -5.5zM1020 631v-83h-68v-548h-114v397h-75v-219
q0 -53 -27 -76.5t-88 -23.5h-78q-61 0 -88 23.5t-27 76.5v219h-63q-16 0 -22.5 -6.5t-6.5 -23.5v-367h-113v91q-12 -13 -42 -13h-62q-102 0 -102 100v370h-64v83h1040z" />
    <glyph glyph-name="uni092C094D0928" horiz-adv-x="855" 
d="M504 189v208h-53q-16 0 -22 -5.5t-6 -21.5v-181q0 -17 6.5 -22.5t22.5 -5.5h24q16 0 22 5.5t6 22.5zM185 161h101l-73 112q-44 78 -56 94v-178q0 -17 6 -22.5t22 -5.5zM875 631v-83h-68v-548h-114v397h-75v-219q0 -53 -27 -76.5t-88 -23.5h-78q-61 0 -88 23
q-16 -23 -59 -23h-132q-102 0 -102 100v210q0 47 24.5 69t81.5 22h119v-78h-74l60 -101l61 -96q-6 27 -6 68v116q0 47 24.5 69t81.5 22h277v69h-713v83h895z" />
    <glyph glyph-name="uni092D094D0928" horiz-adv-x="985" 
d="M634 189v208h-53q-16 0 -22 -5.5t-6 -21.5v-181q0 -17 6 -22.5t23 -5.5h24q16 0 22 5.5t6 22.5zM247 189v138h-63q-16 0 -22 -5.5t-6 -21.5v-111q0 -17 6 -22.5t23 -5.5h34q16 0 22 5.5t6 22.5zM1005 631v-83h-68v-548h-114v397h-75v-219q0 -53 -27 -76.5t-88 -23.5h-78
q-62 0 -88.5 23.5t-26.5 76.5v149h-79v-149q0 -53 -27 -76.5t-88 -23.5h-88q-62 0 -88.5 23.5t-26.5 76.5v140q0 47 24.5 69t81.5 22h98v115q0 16 -5.5 21t-21.5 5h-28q-16 0 -21.5 -5t-5.5 -21v-43h-114v56q0 48 24.5 72t81.5 24h98q56 0 81 -24t25 -72v-128h80
q5 36 29.5 53t75.5 17h277v69h-383v83h565z" />
    <glyph glyph-name="uni092E094D0928" horiz-adv-x="992" 
d="M830 479v69h-475v-116h99q18 47 99 47h277zM641 189v208h-53q-16 0 -22 -5.5t-6 -21.5v-181q0 -17 6 -22.5t23 -5.5h24q16 0 22 5.5t6 22.5zM241 205v144h-71q-16 0 -22 -5.5t-6 -20.5v-118q0 -16 6.5 -21.5t22.5 -5.5h42q16 0 22 5.5t6 21.5zM1012 631v-83h-68v-548
h-114v397h-75v-219q0 -53 -27 -76.5t-89 -23.5h-77q-62 0 -88.5 23.5t-26.5 76.5v171h-92v-154q0 -53 -27 -76.5t-88 -23.5h-88q-62 0 -88.5 23.5t-26.5 76.5v146q0 47 24.5 69t81.5 22h98v116h-261v83h1032z" />
    <glyph glyph-name="uni092F094D0928" horiz-adv-x="899" 
d="M738 479v69h-474q10 -13 10 -34v-119q0 -48 -23.5 -72t-79.5 -24h-20v-110q0 -17 5.5 -22.5t21.5 -5.5h142q20 0 27 7.5t7 26.5v193q0 47 24.5 69t81.5 22h278zM548 189v208h-53q-16 0 -21.5 -5.5t-5.5 -21.5v-181q0 -17 6 -22.5t22 -5.5h24q16 0 22 5.5t6 22.5zM919 631
v-83h-68v-548h-113v397h-76v-219q0 -53 -27 -76.5t-88 -23.5h-78q-59 0 -87 22q-10 -22 -46 -22h-184q-59 0 -87 24t-28 76v204h100q16 0 21.5 5t5.5 21v107q0 21 -7 27t-33 6h-144v83h939z" />
    <glyph glyph-name="uni0935094D0928" horiz-adv-x="795" 
d="M444 189v208h-53q-17 0 -22.5 -5.5t-5.5 -21.5v-181q0 -17 6 -22.5t23 -5.5h24q16 0 22 5.5t6 22.5zM815 631v-83h-68v-548h-114v397h-76v-219q0 -53 -26.5 -76.5t-88.5 -23.5h-77q-66 0 -93 28q-17 -28 -64 -28h-62q-102 0 -102 100v210q0 47 24.5 69t81.5 22h59v-82
h-24q-16 0 -21.5 -5.5t-5.5 -21.5v-181q0 -17 5.5 -22.5t21.5 -5.5h36q16 0 22.5 6.5t6.5 22.5v198q0 47 24.5 69t81.5 22h277v69h-653v83h835z" />
    <glyph glyph-name="uni0936094D0928" horiz-adv-x="995" 
d="M159 634h97q57 0 81.5 -24t24.5 -72v-191q0 -49 -29.5 -71.5t-93.5 -22.5h-74v-148q0 -16 5.5 -21.5t22.5 -5.5h30q14 0 19.5 5.5t5.5 21.5v86h113v-100q0 -47 -24.5 -69t-81.5 -22h-98q-57 0 -81 22t-24 69v297h113v-53h52q19 0 25.5 7t6.5 26v157q0 16 -5.5 21t-22.5 5
h-30q-15 0 -20 -5.5t-5 -20.5v-69h-113v82q0 48 24.5 72t81.5 24zM644 189v208h-53q-16 0 -22 -5.5t-6 -21.5v-181q0 -17 6 -22.5t23 -5.5h24q16 0 22 5.5t6 22.5zM1015 631v-83h-68v-548h-114v397h-75v-219q0 -53 -27 -76.5t-89 -23.5h-77q-62 0 -88.5 23.5t-26.5 76.5v210
q0 47 24.5 69t81.5 22h277v69h-436v83h618z" />
    <glyph glyph-name="uni0938094D0928" horiz-adv-x="980" 
d="M818 479v69h-472q7 -8 7 -26v-125q0 -29 -14 -45h96v36q0 47 24.5 69t81.5 22h277zM629 189v208h-53q-16 0 -22 -5.5t-6 -21.5v-181q0 -17 6 -22.5t23 -5.5h24q16 0 22 5.5t6 22.5zM1000 631v-83h-68v-548h-114v397h-75v-219q0 -53 -27 -76.5t-89 -23.5h-77
q-62 0 -88.5 23.5t-26.5 76.5v92h-279v-165q0 -16 6 -21.5t22 -5.5h30q15 0 20 5.5t5 21.5v103h113v-117q0 -47 -24 -69t-81 -22h-98q-57 0 -81.5 22t-24.5 69v366h113v-105h52q19 0 25.5 7t6.5 26v131q0 20 -6 26t-26 6h-228v83h1020z" />
    <glyph glyph-name="uni0939094D0928" horiz-adv-x="450" 
d="M362 401h-173q-16 0 -21.5 -5.5t-5.5 -19.5v-14q0 -15 5.5 -20t21.5 -5h146q88 0 88 -82v-142h-72v63h-47q-17 0 -22.5 -5t-5.5 -22v-20h-77v26q0 77 84 77h68v13q0 17 -6.5 22.5t-22.5 5.5h-133q-16 0 -21.5 -5.5t-5.5 -22.5v-143q0 -17 5.5 -22.5t21.5 -5.5h174v-74
h-200q-59 0 -87 24t-28 76v138q0 45 42 50v4q-42 5 -42 51v45q0 47 24.5 69t81.5 22h95v69h-269v83h490v-83h-108v-147z" />
    <glyph glyph-name="uni0915094D0930" horiz-adv-x="592" 
d="M612 548h-259v-80q11 11 41 11h62q52 0 77 -24t25 -76v-184q0 -47 -24.5 -69t-81.5 -22h-59v78h24q16 0 21.5 5t5.5 21v161q0 17 -5.5 22.5t-21.5 5.5h-35q-16 0 -22.5 -6.5t-6.5 -23.5v-367h-114v109l-103 -163h-121l103 159q-43 4 -63.5 27.5t-20.5 71.5v184
q0 47 24.5 69t81.5 22h59v-78h-24q-16 0 -22 -5.5t-6 -20.5v-161q0 -17 6 -22.5t22 -5.5h35q16 0 22.5 6.5t6.5 23.5v332h-259v83h632v-83z" />
    <glyph glyph-name="uni0916094D0930" horiz-adv-x="737" 
d="M757 631v-83h-69v-548h-111v117l-113 -171h-120l108 161q-77 11 -77 98v175q0 47 24.5 69t81.5 22h61v-78h-28q-16 0 -22 -5.5t-6 -20.5v-151q0 -17 6 -22.5t22 -5.5h30q18 0 25.5 7t7.5 25v328h-252q7 -11 7 -26v-188q0 -50 -25.5 -72.5t-82.5 -22.5h-66v-122
q0 -19 6.5 -26t25.5 -7h157v-84h-179q-64 0 -94 23t-30 72v376h114v-149h28q19 0 25.5 6.5t6.5 25.5v162q0 20 -6 26t-26 6h-206v83h777z" />
    <glyph glyph-name="uni0917094D0930" horiz-adv-x="606" 
d="M174 235h35q16 0 22 5.5t6 22.5v134h-61q-20 0 -25.5 -5.5t-5.5 -25.5v-103q0 -17 6.5 -22.5t22.5 -5.5zM626 631v-83h-68v-548h-114v123l-174 -186h-118l292 308v303h-93v-295q0 -53 -27 -77t-88 -24h-89q-61 0 -88 24t-27 77v131q0 50 29.5 72.5t93.5 22.5h82v69h-257
v83h646z" />
    <glyph glyph-name="uni0918094D0930" horiz-adv-x="468" 
d="M306 216v332h-99q-32 0 -40.5 -5t-8.5 -27v-84q0 -17 5.5 -22.5t21.5 -5.5h53v-83h-53q-16 0 -21.5 -5.5t-5.5 -21.5v-80q0 -17 5.5 -22.5t21.5 -5.5h92q16 0 22.5 6.5t6.5 23.5zM488 631v-83h-68v-548h-114v109l-103 -163h-121l102 158h-46q-94 0 -94 91v115q0 45 42 50
v4q-42 5 -42 51v105q0 19 9 28h-73v83h508z" />
    <glyph glyph-name="uni0919094D0930" horiz-adv-x="442" 
d="M344 297v105h94v-105h-94zM-20 631h482v-83h-126v-147h-147q-16 0 -21.5 -5t-5.5 -21v-50q0 -16 5.5 -21t21.5 -5h57q57 0 81.5 -22t24.5 -69v-117q0 -40 -17 -61.5t-56 -27.5l83 -145h-101l-60 118l-62 -118h-102l84 144q-44 4 -63 26t-19 64v71h114v-57q0 -16 5 -21.5
t19 -5.5h34q16 0 22 5.5t6 21.5v90q0 15 -6 20.5t-22 5.5h-57q-57 0 -81 22t-24 69v76q0 47 24 69t81 22h69v69h-243v83z" />
    <glyph glyph-name="uni091A094D0930" horiz-adv-x="439" 
d="M456 631v-83h-69v-548h-113v110l-103 -164h-122l103 158h-1q-94 0 -94 91v163q0 26 13 39h-72v82h233v-82h-16q-29 0 -36.5 -4.5t-7.5 -23.5v-155q0 -17 5.5 -22.5t21.5 -5.5h47q16 0 22.5 6.5t6.5 23.5v332h-295v83h477z" />
    <glyph glyph-name="uni091B094D0930" horiz-adv-x="589" 
d="M354 548h-151l5 -1q-8 1 -20.5 1t-20.5 -5t-8 -27v-135q0 -17 6 -22.5t22 -5.5h35v-82h-35q-16 0 -22 -5.5t-6 -22.5v-131q0 -17 6 -22.5t22 -5.5h219q17 0 22.5 5.5t5.5 22.5v267q0 16 -5.5 21t-22.5 5h-18q-16 0 -21.5 -5t-5.5 -21v-92q0 -16 5.5 -21t21.5 -5h16v-74
h-38q-98 0 -98 91v110q0 44 21 65.5t65 24.5v70zM609 548h-149v-70q43 -4 64 -25.5t21 -64.5v-288q0 -52 -28 -76t-88 -24h-49l82 -143h-101l-60 118l-62 -118h-102l84 143h-60q-59 0 -87 24t-28 76v159q0 46 41 51v3q-41 5 -41 51v158q0 18 7 26h-73v83h629v-83z" />
    <glyph glyph-name="uni091C094D0930" horiz-adv-x="595" 
d="M615 631v-83h-69v-548h-113v93l-140 -147h-125l265 268v183h-80v-168q0 -53 -26.5 -76.5t-88.5 -23.5h-80q-62 0 -88.5 23.5t-26.5 76.5v250h113v-240q0 -17 6 -22.5t23 -5.5h27q16 0 22 5.5t6 22.5v240h193v69h-453v83h635z" />
    <glyph glyph-name="uni091D094D0930" horiz-adv-x="611" 
d="M450 336v212h-104v-133h-166q-16 0 -22 -5.5t-6 -20.5v-28q0 -15 6 -20t22 -5h270zM631 631v-83h-68v-548h-114v83l-137 -137h-111l248 237v81h-93q2 -12 2 -20v-67q0 -44 -24.5 -64t-81.5 -20h-98v-93h-114v208h114v-43h63q16 0 22 5t6 20v49q0 15 -6 20t-22 5h-72
q-57 0 -81.5 20.5t-24.5 64.5v53q0 44 24.5 64t81.5 20h87v62h-261v83h660z" />
    <glyph glyph-name="uni091E094D0930" horiz-adv-x="586" 
d="M606 631v-83h-68v-548h-114v123l-174 -186h-118l292 308v5h-91q-1 -52 -27.5 -75t-87.5 -23h-77q-62 0 -88.5 23.5t-26.5 77.5v28h113v-18q0 -17 6 -22.5t22 -5.5h25q16 0 22 5.5t6 22.5v107q0 16 -5.5 21.5t-22.5 5.5h-93v82h129q56 0 80.5 -24t24.5 -71v-51h91v215
h-444v83h626z" />
    <glyph glyph-name="uni091F094D0930" horiz-adv-x="402" 
d="M355 397h-165q-16 0 -22 -5.5t-6 -22.5v-258q0 -17 6 -22.5t22 -5.5h27q16 0 22.5 5.5t6.5 22.5v103h113v-114q0 -83 -72 -96l84 -147h-101l-60 118l-62 -118h-102l85 145q-44 5 -63.5 28.5t-19.5 69.5v288q0 47 24.5 69t81.5 22h88v69h-262v83h442v-83h-67v-151z" />
    <glyph glyph-name="uni0920094D0930" horiz-adv-x="421" 
d="M263 111v258q0 17 -6 22.5t-22 5.5h-45q-16 0 -22 -5.5t-6 -22.5v-258q0 -17 6 -22.5t22 -5.5h45q16 0 22 5.5t6 22.5zM441 548h-172v-69q58 -1 82.5 -24.5t24.5 -75.5v-279q0 -46 -20 -69.5t-64 -28.5l83 -145h-101l-60 118l-62 -118h-102l84 144q-45 5 -65.5 29
t-20.5 70v279q0 52 25 75.5t83 24.5v69h-176v83h461v-83z" />
    <glyph glyph-name="uni0921094D0930" horiz-adv-x="403" 
d="M336 401h-147q-16 0 -21.5 -5t-5.5 -21v-50q0 -16 5.5 -21t21.5 -5h57q57 0 81.5 -22t24.5 -69v-117q0 -40 -17 -61.5t-57 -27.5l83 -145h-101l-60 118l-62 -118h-102l84 144q-43 4 -62 26t-19 64v71h114v-57q0 -16 5 -21.5t19 -5.5h34q16 0 22 5.5t6 21.5v90
q0 15 -6 20.5t-22 5.5h-57q-57 0 -81 22t-24 69v76q0 47 24 69t81 22h69v69h-243v83h443v-83h-87v-147z" />
    <glyph glyph-name="uni0922094D0930" horiz-adv-x="439" 
d="M355 397h-165q-16 0 -22 -5.5t-6 -22.5v-258q0 -17 6 -22.5t22 -5.5h63q16 0 22 5.5t6 22.5v71q0 16 -6 21.5t-22 5.5h-43v83h70q61 0 88 -23.5t27 -76.5v-92q0 -47 -21.5 -71t-69.5 -28l82 -144h-101l-60 118l-62 -118h-102l84 144q-51 3 -74 26.5t-23 72.5v288
q0 47 24.5 69t81.5 22h88v69h-262v83h479v-83h-104v-151z" />
    <glyph glyph-name="uni0923094D0930" horiz-adv-x="603" 
d="M240 267v281h-84v-281q0 -16 6 -21.5t23 -5.5h27q16 0 22 5.5t6 21.5zM623 631v-83h-68v-548h-113v123l-174 -186h-118l292 308v303h-89v-291q0 -53 -26.5 -76.5t-88.5 -23.5h-80q-62 0 -88.5 23.5t-26.5 76.5v291h-63v83h643z" />
    <glyph glyph-name="uni0924094D0930" horiz-adv-x="452" 
d="M472 631v-83h-68v-548h-113v193h-23l-125 -193h-129l155 238l-57 103q-16 30 -31.5 41t-43.5 11h-28v84h67q51 0 77 -14.5t48 -52.5l80 -139h10v277h-311v83h492z" />
    <glyph glyph-name="uni0925094D0930" horiz-adv-x="527" 
d="M547 631v-83h-68v-548h-114v109l-103 -163h-121l103 158h-103q-93 0 -93 91v179h110q16 0 22 5.5t6 21.5v126q0 15 -6 20.5t-22 5.5h-6q-16 0 -21.5 -5t-5.5 -21v-41h-69v59q0 47 24 69t76 22h42q101 0 101 -91v-158q0 -48 -24.5 -71.5t-81.5 -23.5h-32v-78
q0 -17 6 -22.5t22 -5.5h147q16 0 22.5 6.5t6.5 23.5v415h182z" />
    <glyph glyph-name="uni0926094D0930" horiz-adv-x="403" 
d="M354 397h-170q-16 0 -22 -5.5t-6 -22.5v-155q0 -17 5.5 -22.5t21.5 -5.5h33q16 0 22.5 6.5t6.5 23.5v61h113v-277h-113v109l-103 -163h-121l102 158q-81 6 -81 91v193q0 47 24.5 69t81.5 22h93v69h-267v83h449v-83h-69v-151z" />
    <glyph glyph-name="uni0927094D0930" horiz-adv-x="515" 
d="M538 631v-83h-68v-548h-113v110l-104 -164h-121l103 158h-80q-93 0 -93 91v111q0 45 42 50v3q-42 5 -42 51v135q0 91 102 91h43q101 0 101 -91v-59h-69v41q0 16 -5.5 21t-21.5 5h-9q-16 0 -21.5 -5t-5.5 -21v-99q0 -17 5.5 -22.5t21.5 -5.5h69v-83h-69q-16 0 -21.5 -5.5
t-5.5 -22.5v-75q0 -17 5.5 -22.5t21.5 -5.5h124q17 0 23.5 6.5t6.5 23.5v332l-1 83h182z" />
    <glyph glyph-name="uni0928094D0930" horiz-adv-x="586" 
d="M227 276v121h-53q-16 0 -22 -5.5t-6 -21.5v-94q0 -17 6 -22.5t23 -5.5h24q16 0 22 5.5t6 22.5zM598 631v-83h-68v-548h-114v123l-174 -186h-118l292 308v152h-75v-131q0 -53 -27 -76.5t-89 -23.5h-77q-62 0 -88.5 23.5t-26.5 76.5v122q0 47 24.5 69t81.5 22h277v69h-436
v83h618z" />
    <glyph glyph-name="uni092A094D0930" horiz-adv-x="415" 
d="M254 216v332h-92v-334q0 -17 5.5 -22.5t21.5 -5.5h35q17 0 23.5 6.5t6.5 23.5zM435 631v-83h-68v-548h-113v110l-103 -164h-122l103 159q-84 8 -84 99v344h-68v83h455z" />
    <glyph glyph-name="uni092B094D0930" horiz-adv-x="602" 
d="M250 216v332h-92v-334q0 -17 5.5 -22.5t21.5 -5.5h36q16 0 22.5 6.5t6.5 23.5zM622 548h-259v-81q12 12 41 12h63q51 0 76 -24t25 -76v-210q0 -47 -24 -69t-81 -22h-59v78h23q17 0 22.5 5.5t5.5 21.5v186q0 17 -5.5 22.5t-22.5 5.5h-35q-16 0 -22.5 -6.5t-6.5 -23.5v-367
h-113v110l-103 -164h-122l103 158q-84 4 -84 91v353h-64v83h642v-83z" />
    <glyph glyph-name="uni092C094D0930" horiz-adv-x="469" 
d="M182 178h78q10 0 16 3l-66 100q-39 65 -55 85v-161q0 -16 5.5 -21.5t21.5 -5.5zM489 631v-83h-68v-548h-114v107l-102 -161h-121l97 149h-38q-102 0 -102 100v193q0 47 24.5 69t81.5 22h119v-78h-74l121 -182q-6 32 -6 121v208h-327v83h509z" />
    <glyph glyph-name="uni092D094D0930" horiz-adv-x="620" 
d="M247 250v88h-63q-16 0 -22 -5.5t-6 -20.5v-62q0 -17 6 -22.5t23 -5.5h34q16 0 22 5.5t6 22.5zM640 631v-83h-68v-548h-114v123l-174 -186h-118l292 308v93h-97v-99q0 -53 -27 -76.5t-88 -23.5h-88q-62 0 -88.5 23.5t-26.5 76.5v91q0 47 24.5 69t81.5 22h98v103
q0 16 -5.5 21t-21.5 5h-28q-16 0 -21.5 -5t-5.5 -21v-43h-114v56q0 48 24.5 72t81.5 24h98q56 0 81 -24t25 -72v-116h97v210h182z" />
    <glyph glyph-name="uni092E094D0930" horiz-adv-x="610" 
d="M448 439v109h-97v-109h97zM237 250v106h-71q-16 0 -22 -5.5t-6 -20.5v-80q0 -17 6.5 -22.5t22.5 -5.5h42q16 0 22 5.5t6 22.5zM630 631v-83h-68v-548h-114v123l-174 -186h-118l292 308v111h-97v-117q0 -53 -27 -76.5t-88 -23.5h-88q-62 0 -88.5 23.5t-26.5 76.5v108
q0 48 24.5 70t81.5 22h98v109h-257v83h650z" />
    <glyph glyph-name="uni092F094D0930" horiz-adv-x="516" 
d="M354 216v332h-90q10 -13 10 -34v-119q0 -48 -23.5 -72t-79.5 -24h-20v-85q0 -17 5.5 -22.5t21.5 -5.5h147q16 0 22.5 6.5t6.5 23.5zM536 631v-83h-68v-548h-114v109l-103 -163h-121l103 158h-103q-93 0 -93 91v187h100q16 0 21.5 5t5.5 21v107q0 21 -7 27t-33 6h-155v83
h567z" />
    <glyph glyph-name="uni0935094D0930" horiz-adv-x="412" 
d="M432 631v-83h-69v-548h-113v110l-103 -164h-122l103 158q-84 4 -84 91v193q0 47 24.5 69t81.5 22h59v-82h-24q-16 0 -21.5 -5.5t-5.5 -21.5v-156q0 -17 5.5 -22.5t21.5 -5.5h37q16 0 22 5.5t6 22.5v334h-270v83h452z" />
    <glyph glyph-name="uni0936094D0930" horiz-adv-x="592" 
d="M163 527v-136q0 -15 5.5 -20.5t21.5 -5.5h21q16 0 21.5 5.5t5.5 20.5v136q0 15 -5.5 20.5t-21.5 5.5h-21q-16 0 -21.5 -5.5t-5.5 -20.5zM430 631h182v-83h-68v-548h-114v173l-128 -128h-127l245 242h-132l-147 -139h-133l148 139q-57 2 -81.5 26t-24.5 74v144
q0 52 26.5 76t88.5 24h71q62 0 88.5 -24t26.5 -76v-122q0 -28 -14 -44h93v266z" />
    <glyph glyph-name="uni0938094D0930" horiz-adv-x="596" 
d="M434 352v196h-88q7 -8 7 -26v-125q0 -29 -14 -45h95zM616 631v-83h-69v-548h-113v249l-108 -116h-118l146 142h-198v-170q0 -16 6 -21.5t22 -5.5h169v-78h-204q-57 0 -81.5 22t-24.5 69v366h113v-105h52q19 0 25.5 7t6.5 26v131q0 20 -6 26t-26 6h-228v83h636z" />
    <glyph glyph-name="uni0939094D0930" horiz-adv-x="464" 
d="M362 401h-173q-16 0 -21.5 -5.5t-5.5 -19.5v-31q0 -15 5.5 -20t21.5 -5h153q88 0 88 -82v-78h-74v68q0 24 -17 27l-68 -132h-76l68 133h-74q-16 0 -21.5 -5.5t-5.5 -22.5v-126q0 -17 5.5 -22.5t21.5 -5.5h179v-74h-205q-59 0 -87 24t-28 76v121q0 46 42 51v3
q-42 5 -42 51v62q0 47 24.5 69t81.5 22h95v69h-269v83h504v-83h-122v-147z" />
    <glyph glyph-name="uni0915093C094D0930" horiz-adv-x="592" 
d="M187 -154v105h95v-105h-95zM612 548h-259v-80q11 11 41 11h62q52 0 77 -24t25 -76v-184q0 -47 -24.5 -69t-81.5 -22h-59v78h24q16 0 21.5 5t5.5 21v161q0 17 -5.5 22.5t-21.5 5.5h-35q-16 0 -22.5 -6.5t-6.5 -23.5v-367h-114v109l-103 -163h-121l103 159
q-43 4 -63.5 27.5t-20.5 71.5v184q0 47 24.5 69t81.5 22h59v-78h-24q-16 0 -22 -5.5t-6 -20.5v-161q0 -17 6 -22.5t22 -5.5h35q16 0 22.5 6.5t6.5 23.5v332h-259v83h632v-83z" />
    <glyph glyph-name="uni0916093C094D0930" horiz-adv-x="737" 
d="M521 -152v105h95v-105h-95zM757 631v-83h-69v-548h-111v117l-113 -171h-120l108 161q-77 11 -77 98v175q0 47 24.5 69t81.5 22h61v-78h-28q-16 0 -22 -5.5t-6 -20.5v-151q0 -17 6 -22.5t22 -5.5h30q18 0 25.5 7t7.5 25v328h-252q7 -11 7 -26v-188q0 -50 -25.5 -72.5
t-82.5 -22.5h-66v-122q0 -19 6.5 -26t25.5 -7h157v-84h-179q-64 0 -94 23t-30 72v376h114v-149h28q19 0 25.5 6.5t6.5 25.5v162q0 20 -6 26t-26 6h-206v83h777z" />
    <glyph glyph-name="uni0917093C094D0930" horiz-adv-x="606" 
d="M354 -152v105h95v-105h-95zM174 235h35q16 0 22 5.5t6 22.5v134h-61q-20 0 -25.5 -5.5t-5.5 -25.5v-103q0 -17 6.5 -22.5t22.5 -5.5zM626 631v-83h-68v-548h-114v123l-174 -186h-118l292 308v303h-93v-295q0 -53 -27 -77t-88 -24h-89q-61 0 -88 24t-27 77v131
q0 50 29.5 72.5t93.5 22.5h82v69h-257v83h646z" />
    <glyph glyph-name="uni0918093C094D0930" horiz-adv-x="468" 
d="M264 -152v105h95v-105h-95zM306 216v332h-99q-32 0 -40.5 -5t-8.5 -27v-84q0 -17 5.5 -22.5t21.5 -5.5h53v-83h-53q-16 0 -21.5 -5.5t-5.5 -21.5v-80q0 -17 5.5 -22.5t21.5 -5.5h92q16 0 22.5 6.5t6.5 23.5zM488 631v-83h-68v-548h-114v109l-103 -163h-121l102 158h-46
q-94 0 -94 91v115q0 45 42 50v4q-42 5 -42 51v105q0 19 9 28h-73v83h508z" />
    <glyph glyph-name="uni0919093C094D0930" horiz-adv-x="442" 
d="M152 -256v105h95v-105h-95zM344 297v105h94v-105h-94zM-20 631h482v-83h-126v-147h-147q-16 0 -21.5 -5t-5.5 -21v-50q0 -16 5.5 -21t21.5 -5h57q57 0 81.5 -22t24.5 -69v-117q0 -40 -17 -61.5t-56 -27.5l83 -145h-101l-60 118l-62 -118h-102l84 144q-44 4 -63 26t-19 64
v71h114v-57q0 -16 5 -21.5t19 -5.5h34q16 0 22 5.5t6 21.5v90q0 15 -6 20.5t-22 5.5h-57q-57 0 -81 22t-24 69v76q0 47 24 69t81 22h69v69h-243v83z" />
    <glyph glyph-name="uni091A093C094D0930" horiz-adv-x="439" 
d="M220 -152v105h95v-105h-95zM456 631v-83h-69v-548h-113v110l-103 -164h-122l103 158h-1q-94 0 -94 91v163q0 26 13 39h-72v82h233v-82h-16q-29 0 -36.5 -4.5t-7.5 -23.5v-155q0 -17 5.5 -22.5t21.5 -5.5h47q16 0 22.5 6.5t6.5 23.5v332h-295v83h477z" />
    <glyph glyph-name="uni091B093C094D0930" horiz-adv-x="589" 
d="M251 -262v105h95v-105h-95zM354 548h-151l5 -1q-8 1 -20.5 1t-20.5 -5t-8 -27v-135q0 -17 6 -22.5t22 -5.5h35v-82h-35q-16 0 -22 -5.5t-6 -22.5v-131q0 -17 6 -22.5t22 -5.5h219q17 0 22.5 5.5t5.5 22.5v267q0 16 -5.5 21t-22.5 5h-18q-16 0 -21.5 -5t-5.5 -21v-92
q0 -16 5.5 -21t21.5 -5h16v-74h-38q-98 0 -98 91v110q0 44 21 65.5t65 24.5v70zM609 548h-149v-70q43 -4 64 -25.5t21 -64.5v-288q0 -52 -28 -76t-88 -24h-49l82 -143h-101l-60 118l-62 -118h-102l84 143h-60q-59 0 -87 24t-28 76v159q0 46 41 51v3q-41 5 -41 51v158
q0 18 7 26h-73v83h629v-83z" />
    <glyph glyph-name="uni091C093C094D0930" horiz-adv-x="595" 
d="M361 -146v105h95v-105h-95zM615 631v-83h-69v-548h-113v93l-140 -147h-125l265 268v183h-80v-168q0 -53 -26.5 -76.5t-88.5 -23.5h-80q-62 0 -88.5 23.5t-26.5 76.5v250h113v-240q0 -17 6 -22.5t23 -5.5h27q16 0 22 5.5t6 22.5v240h193v69h-453v83h635z" />
    <glyph glyph-name="uni091D093C094D0930" horiz-adv-x="611" 
d="M386 -154v105h95v-105h-95zM450 336v212h-104v-133h-166q-16 0 -22 -5.5t-6 -20.5v-28q0 -15 6 -20t22 -5h270zM631 631v-83h-68v-548h-114v83l-137 -137h-111l248 237v81h-93q2 -12 2 -20v-67q0 -44 -24.5 -64t-81.5 -20h-98v-93h-114v208h114v-43h63q16 0 22 5t6 20v49
q0 15 -6 20t-22 5h-72q-57 0 -81.5 20.5t-24.5 64.5v53q0 44 24.5 64t81.5 20h87v62h-261v83h660z" />
    <glyph glyph-name="uni091E093C094D0930" horiz-adv-x="586" 
d="M330 -156v105h95v-105h-95zM606 631v-83h-68v-548h-114v123l-174 -186h-118l292 308v5h-91q-1 -52 -27.5 -75t-87.5 -23h-77q-62 0 -88.5 23.5t-26.5 77.5v28h113v-18q0 -17 6 -22.5t22 -5.5h25q16 0 22 5.5t6 22.5v107q0 16 -5.5 21.5t-22.5 5.5h-93v82h129
q56 0 80.5 -24t24.5 -71v-51h91v215h-444v83h626z" />
    <glyph glyph-name="uni091F093C094D0930" horiz-adv-x="402" 
d="M162 -255v105h95v-105h-95zM355 397h-165q-16 0 -22 -5.5t-6 -22.5v-258q0 -17 6 -22.5t22 -5.5h27q16 0 22.5 5.5t6.5 22.5v103h113v-114q0 -83 -72 -96l84 -147h-101l-60 118l-62 -118h-102l85 145q-44 5 -63.5 28.5t-19.5 69.5v288q0 47 24.5 69t81.5 22h88v69h-262
v83h442v-83h-67v-151z" />
    <glyph glyph-name="uni0920093C094D0930" horiz-adv-x="421" 
d="M165 -257v105h95v-105h-95zM263 111v258q0 17 -6 22.5t-22 5.5h-45q-16 0 -22 -5.5t-6 -22.5v-258q0 -17 6 -22.5t22 -5.5h45q16 0 22 5.5t6 22.5zM441 548h-172v-69q58 -1 82.5 -24.5t24.5 -75.5v-279q0 -46 -20 -69.5t-64 -28.5l83 -145h-101l-60 118l-62 -118h-102
l84 144q-45 5 -65.5 29t-20.5 70v279q0 52 25 75.5t83 24.5v69h-176v83h461v-83z" />
    <glyph glyph-name="uni0921093C094D0930" horiz-adv-x="403" 
d="M154 -258v105h95v-105h-95zM336 401h-147q-16 0 -21.5 -5t-5.5 -21v-50q0 -16 5.5 -21t21.5 -5h57q57 0 81.5 -22t24.5 -69v-117q0 -40 -17 -61.5t-57 -27.5l83 -145h-101l-60 118l-62 -118h-102l84 144q-43 4 -62 26t-19 64v71h114v-57q0 -16 5 -21.5t19 -5.5h34
q16 0 22 5.5t6 21.5v90q0 15 -6 20.5t-22 5.5h-57q-57 0 -81 22t-24 69v76q0 47 24 69t81 22h69v69h-243v83h443v-83h-87v-147z" />
    <glyph glyph-name="uni0922093C094D0930" horiz-adv-x="439" 
d="M177 -258v105h95v-105h-95zM355 397h-165q-16 0 -22 -5.5t-6 -22.5v-258q0 -17 6 -22.5t22 -5.5h63q16 0 22 5.5t6 22.5v71q0 16 -6 21.5t-22 5.5h-43v83h70q61 0 88 -23.5t27 -76.5v-92q0 -47 -21.5 -71t-69.5 -28l82 -144h-101l-60 118l-62 -118h-102l84 144
q-51 3 -74 26.5t-23 72.5v288q0 47 24.5 69t81.5 22h88v69h-262v83h479v-83h-104v-151z" />
    <glyph glyph-name="uni0923093C094D0930" horiz-adv-x="603" 
d="M349 -142v105h95v-105h-95zM240 267v281h-84v-281q0 -16 6 -21.5t23 -5.5h27q16 0 22 5.5t6 21.5zM623 631v-83h-68v-548h-113v123l-174 -186h-118l292 308v303h-89v-291q0 -53 -26.5 -76.5t-88.5 -23.5h-80q-62 0 -88.5 23.5t-26.5 76.5v291h-63v83h643z" />
    <glyph glyph-name="uni0924093C094D0930" horiz-adv-x="452" 
d="M182 -148v105h95v-105h-95zM472 631v-83h-68v-548h-113v193h-23l-125 -193h-129l155 238l-57 103q-16 30 -31.5 41t-43.5 11h-28v84h67q51 0 77 -14.5t48 -52.5l80 -139h10v277h-311v83h492z" />
    <glyph glyph-name="uni0925093C094D0930" horiz-adv-x="527" 
d="M325 -147v105h95v-105h-95zM547 631v-83h-68v-548h-114v109l-103 -163h-121l103 158h-103q-93 0 -93 91v179h110q16 0 22 5.5t6 21.5v126q0 15 -6 20.5t-22 5.5h-6q-16 0 -21.5 -5t-5.5 -21v-41h-69v59q0 47 24 69t76 22h42q101 0 101 -91v-158q0 -48 -24.5 -71.5
t-81.5 -23.5h-32v-78q0 -17 6 -22.5t22 -5.5h147q16 0 22.5 6.5t6.5 23.5v415h182z" />
    <glyph glyph-name="uni0926093C094D0930" horiz-adv-x="403" 
d="M205 -151v105h95v-105h-95zM354 397h-170q-16 0 -22 -5.5t-6 -22.5v-155q0 -17 5.5 -22.5t21.5 -5.5h33q16 0 22.5 6.5t6.5 23.5v61h113v-277h-113v109l-103 -163h-121l102 158q-81 6 -81 91v193q0 47 24.5 69t81.5 22h93v69h-267v83h449v-83h-69v-151z" />
    <glyph glyph-name="uni0927093C094D0930" horiz-adv-x="515" 
d="M308 -154v105h95v-105h-95zM538 631v-83h-68v-548h-113v110l-104 -164h-121l103 158h-80q-93 0 -93 91v111q0 45 42 50v3q-42 5 -42 51v135q0 91 102 91h43q101 0 101 -91v-59h-69v41q0 16 -5.5 21t-21.5 5h-9q-16 0 -21.5 -5t-5.5 -21v-99q0 -17 5.5 -22.5t21.5 -5.5h69
v-83h-69q-16 0 -21.5 -5.5t-5.5 -22.5v-75q0 -17 5.5 -22.5t21.5 -5.5h124q17 0 23.5 6.5t6.5 23.5v332l-1 83h182z" />
    <glyph glyph-name="uni0928093C094D0930" horiz-adv-x="586" 
d="M331 -151v105h95v-105h-95zM227 276v121h-53q-16 0 -22 -5.5t-6 -21.5v-94q0 -17 6 -22.5t23 -5.5h24q16 0 22 5.5t6 22.5zM598 631v-83h-68v-548h-114v123l-174 -186h-118l292 308v152h-75v-131q0 -53 -27 -76.5t-89 -23.5h-77q-62 0 -88.5 23.5t-26.5 76.5v122
q0 47 24.5 69t81.5 22h277v69h-436v83h618z" />
    <glyph glyph-name="uni092A093C094D0930" horiz-adv-x="415" 
d="M204 -139v105h95v-105h-95zM254 216v332h-92v-334q0 -17 5.5 -22.5t21.5 -5.5h35q17 0 23.5 6.5t6.5 23.5zM435 631v-83h-68v-548h-113v110l-103 -164h-122l103 159q-84 8 -84 99v344h-68v83h455z" />
    <glyph glyph-name="uni092B093C094D0930" horiz-adv-x="602" 
d="M202 -152v105h95v-105h-95zM250 216v332h-92v-334q0 -17 5.5 -22.5t21.5 -5.5h36q16 0 22.5 6.5t6.5 23.5zM622 548h-259v-81q12 12 41 12h63q51 0 76 -24t25 -76v-210q0 -47 -24 -69t-81 -22h-59v78h23q17 0 22.5 5.5t5.5 21.5v186q0 17 -5.5 22.5t-22.5 5.5h-35
q-16 0 -22.5 -6.5t-6.5 -23.5v-367h-113v110l-103 -164h-122l103 158q-84 4 -84 91v353h-64v83h642v-83z" />
    <glyph glyph-name="uni092C093C094D0930" horiz-adv-x="469" 
d="M259 -150v105h95v-105h-95zM182 178h78q10 0 16 3l-66 100q-39 65 -55 85v-161q0 -16 5.5 -21.5t21.5 -5.5zM489 631v-83h-68v-548h-114v107l-102 -161h-121l97 149h-38q-102 0 -102 100v193q0 47 24.5 69t81.5 22h119v-78h-74l121 -182q-6 32 -6 121v208h-327v83h509z
" />
    <glyph glyph-name="uni092D093C094D0930" horiz-adv-x="620" 
d="M365 -153v105h95v-105h-95zM247 250v88h-63q-16 0 -22 -5.5t-6 -20.5v-62q0 -17 6 -22.5t23 -5.5h34q16 0 22 5.5t6 22.5zM640 631v-83h-68v-548h-114v123l-174 -186h-118l292 308v93h-97v-99q0 -53 -27 -76.5t-88 -23.5h-88q-62 0 -88.5 23.5t-26.5 76.5v91
q0 47 24.5 69t81.5 22h98v103q0 16 -5.5 21t-21.5 5h-28q-16 0 -21.5 -5t-5.5 -21v-43h-114v56q0 48 24.5 72t81.5 24h98q56 0 81 -24t25 -72v-116h97v210h182z" />
    <glyph glyph-name="uni092E093C094D0930" horiz-adv-x="610" 
d="M356 -151v105h95v-105h-95zM448 439v109h-97v-109h97zM237 250v106h-71q-16 0 -22 -5.5t-6 -20.5v-80q0 -17 6.5 -22.5t22.5 -5.5h42q16 0 22 5.5t6 22.5zM630 631v-83h-68v-548h-114v123l-174 -186h-118l292 308v111h-97v-117q0 -53 -27 -76.5t-88 -23.5h-88
q-62 0 -88.5 23.5t-26.5 76.5v108q0 48 24.5 70t81.5 22h98v109h-257v83h650z" />
    <glyph glyph-name="uni092F093C094D0930" horiz-adv-x="516" 
d="M312 -149v105h95v-105h-95zM354 216v332h-90q10 -13 10 -34v-119q0 -48 -23.5 -72t-79.5 -24h-20v-85q0 -17 5.5 -22.5t21.5 -5.5h147q16 0 22.5 6.5t6.5 23.5zM536 631v-83h-68v-548h-114v109l-103 -163h-121l103 158h-103q-93 0 -93 91v187h100q16 0 21.5 5t5.5 21v107
q0 21 -7 27t-33 6h-155v83h567z" />
    <glyph glyph-name="uni0935093C094D0930" horiz-adv-x="412" 
d="M216 -156v105h95v-105h-95zM432 631v-83h-69v-548h-113v110l-103 -164h-122l103 158q-84 4 -84 91v193q0 47 24.5 69t81.5 22h59v-82h-24q-16 0 -21.5 -5.5t-5.5 -21.5v-156q0 -17 5.5 -22.5t21.5 -5.5h37q16 0 22 5.5t6 22.5v334h-270v83h452z" />
    <glyph glyph-name="uni0915094D0930094D" horiz-adv-x="482" 
d="M528 548h-175v-110q11 11 41 11h134v-82h-146q-16 0 -22.5 -6.5t-6.5 -23.5v-337h-114v109l-103 -163h-121l103 159q-43 4 -63.5 27.5t-20.5 71.5v184q0 47 24.5 69t81.5 22h59v-78h-24q-16 0 -22 -5.5t-6 -20.5v-161q0 -17 6 -22.5t22 -5.5h35q16 0 22.5 6.5t6.5 23.5
v332h-259v83h548v-83z" />
    <glyph glyph-name="uni0916094D0930094D" horiz-adv-x="554" 
d="M347 84v-84h-179q-64 0 -94 23t-30 72v376h114v-149h28q19 0 25.5 6.5t6.5 25.5v162q0 20 -6 26t-26 6h-206v83h598v-83h-253q7 -11 7 -26v-188q0 -50 -25.5 -72.5t-82.5 -22.5h-66v-122q0 -19 6.5 -26t25.5 -7h157zM514 188h80v-45l-130 -197h-120l108 161
q-77 11 -77 98v175q0 47 24.5 69t81.5 22h61v-78h-28q-16 0 -22 -5.5t-6 -20.5v-151q0 -17 6 -22.5t22 -5.5z" />
    <glyph glyph-name="uni0917094D0930094D" horiz-adv-x="457" 
d="M270 -63h-118l332 350v-124zM174 235h35q16 0 22 5.5t6 22.5v134h-61q-20 0 -25.5 -5.5t-5.5 -25.5v-103q0 -17 6.5 -22.5t22.5 -5.5zM-20 631h504v-83h-133v-295q0 -53 -27 -77t-88 -24h-89q-61 0 -88 24t-27 77v131q0 50 29.5 72.5t93.5 22.5h82v69h-257v83z" />
    <glyph glyph-name="uni0918094D0930094D" horiz-adv-x="315" 
d="M339 548h-132q-32 0 -40.5 -5t-8.5 -27v-83q0 -17 5.5 -22.5t21.5 -5.5h53v-83h-53q-16 0 -21.5 -5.5t-5.5 -22.5v-80q0 -17 5.5 -22.5t21.5 -5.5h154v-52l-119 -188h-121l117 180l-46 -22h-32q-94 0 -94 91v116q0 45 42 50v3q-42 5 -42 51v105q0 19 9 28h-73v83h359v-83
z" />
    <glyph glyph-name="uni091A094D0930094D" horiz-adv-x="269" 
d="M171 369v-155q0 -17 5.5 -22.5t21.5 -5.5h91v-52l-118 -188h-122l103 158h-1q-94 0 -94 91v163q0 26 13 39h-72v82h233v-82h-16q-29 0 -36.5 -4.5t-7.5 -23.5zM-21 631h310v-83h-310v83z" />
    <glyph glyph-name="uni091C094D0930094D" horiz-adv-x="465" 
d="M168 -54l317 321v-119l-192 -202h-125zM43 229v250h113v-240q0 -17 6 -22.5t23 -5.5h27q16 0 22 5.5t6 22.5v240h245v-82h-132v-168q0 -53 -26.5 -76.5t-88.5 -23.5h-80q-62 0 -88.5 23.5t-26.5 76.5zM-20 548v83h505v-83h-505z" />
    <glyph glyph-name="uni091D094D0930094D" horiz-adv-x="509" 
d="M347 -93h-121l313 308v-111zM346 401h-166q-16 0 -22 -5.5t-6 -20.5v-33q0 -15 6 -20.5t22 -5.5h359v-79h-183q2 -14 2 -21v-81q0 -47 -24.5 -69t-81.5 -22h-98v-71h-114v206h114v-57h63q16 0 22 5.5t6 20.5v63q0 15 -6 20.5t-22 5.5h-72q-57 0 -81.5 22t-24.5 70v59
q0 47 24.5 69t81.5 22h87v69h-252v83h559v-83h-193v-147z" />
    <glyph glyph-name="uni091E094D0930094D" horiz-adv-x="444" 
d="M310 -93h-121l285 282v-113zM333 384v-51h141v-83h-141v-72q0 -53 -26.5 -76.5t-88.5 -23.5h-77q-62 0 -88.5 23.5t-26.5 76.5v84h113v-73q0 -17 6 -22.5t22 -5.5h25q16 0 22 5.5t6 22.5v181q0 16 -5.5 21.5t-22.5 5.5h-93v82h129q56 0 80.5 -24t24.5 -71zM-20 631h494
v-83h-494v83z" />
    <glyph glyph-name="uni091F094D0930094D" horiz-adv-x="402" 
d="M138 -160h115l114 -139h-116zM355 397h-165q-16 0 -22 -5.5t-6 -22.5v-258q0 -17 6 -22.5t22 -5.5h27q16 0 22.5 5.5t6.5 22.5v103h113v-114q0 -83 -72 -96l84 -147h-101l-60 118l-62 -118h-102l85 145q-44 5 -63.5 28.5t-19.5 69.5v288q0 47 24.5 69t81.5 22h88v69h-262
v83h442v-83h-67v-151z" />
    <glyph glyph-name="uni0920094D0930094D" horiz-adv-x="421" 
d="M146 -160h115l114 -139h-116zM263 111v258q0 17 -6 22.5t-22 5.5h-45q-16 0 -22 -5.5t-6 -22.5v-258q0 -17 6 -22.5t22 -5.5h45q16 0 22 5.5t6 22.5zM441 548h-172v-69q58 -1 82.5 -24.5t24.5 -75.5v-279q0 -46 -20 -69.5t-64 -28.5l83 -145h-101l-60 118l-62 -118h-102
l84 144q-45 5 -65.5 29t-20.5 70v279q0 52 25 75.5t83 24.5v69h-176v83h461v-83z" />
    <glyph glyph-name="uni0921094D0930094D" horiz-adv-x="403" 
d="M138 -160h115l114 -139h-116zM-20 631h443v-83h-87v-147h-147q-16 0 -21.5 -5t-5.5 -21v-50q0 -16 5.5 -21t21.5 -5h57q57 0 81.5 -22t24.5 -69v-117q0 -40 -17 -61.5t-57 -27.5l83 -145h-101l-60 118l-62 -118h-102l84 144q-43 4 -62 26t-19 64v71h114v-57
q0 -16 5 -21.5t19 -5.5h34q16 0 22 5.5t6 21.5v90q0 15 -6 20.5t-22 5.5h-57q-57 0 -81 22t-24 69v76q0 47 24 69t81 22h69v69h-243v83z" />
    <glyph glyph-name="uni0922094D0930094D" horiz-adv-x="439" 
d="M158 -160h115l114 -139h-116zM355 397h-165q-16 0 -22 -5.5t-6 -22.5v-258q0 -17 6 -22.5t22 -5.5h63q16 0 22 5.5t6 22.5v71q0 16 -6 21.5t-22 5.5h-43v83h70q61 0 88 -23.5t27 -76.5v-92q0 -47 -21.5 -71t-69.5 -28l82 -144h-101l-60 118l-62 -118h-102l84 144
q-51 3 -74 26.5t-23 72.5v288q0 47 24.5 69t81.5 22h88v69h-262v83h479v-83h-104v-151z" />
    <glyph glyph-name="uni0923094D0930094D" horiz-adv-x="409" 
d="M284 -93h-122l277 271v-113zM240 211v337h-84v-337q0 -17 6 -22.5t23 -5.5h27q16 0 22 5.5t6 22.5zM-20 631h459v-83h-86v-347q0 -54 -26.5 -77.5t-88.5 -23.5h-80q-62 0 -88.5 23.5t-26.5 77.5v347h-63v83z" />
    <glyph glyph-name="uni0924094D0930094D" horiz-adv-x="334" 
d="M354 271v-78h-86l-125 -193h-129l155 238l-57 103q-16 30 -31.5 41t-43.5 11h-28v84h67q51 0 77 -14.5t48 -52.5l80 -139h73zM-20 631h374v-83h-374v83z" />
    <glyph glyph-name="uni0925094D0930094D" horiz-adv-x="361" 
d="M189 186h192v-52l-119 -188h-121l103 158h-103q-93 0 -93 91v179h110q16 0 22 5.5t6 21.5v126q0 15 -6 20.5t-22 5.5h-6q-16 0 -21.5 -5t-5.5 -21v-41h-69v59q0 47 24 69t76 22h42q101 0 101 -91v-158q0 -48 -24.5 -71.5t-81.5 -23.5h-32v-78q0 -17 6 -22.5t22 -5.5z" />
    <glyph glyph-name="uni0926094D0930094D" horiz-adv-x="403" 
d="M245 0v109l-103 -163h-121l102 158q-81 6 -81 91v193q0 47 24.5 69t81.5 22h93v69h-267v83h449v-83h-69v-151h-170q-16 0 -22 -5.5t-6 -22.5v-155q0 -17 5.5 -22.5t21.5 -5.5h33q16 0 22.5 6.5t6.5 23.5v61h113v-277h-113zM351 -61l114 -139h-116l-113 139h115z" />
    <glyph glyph-name="uni0927094D0930094D" horiz-adv-x="342" 
d="M62 195v111q0 45 42 50v3q-42 5 -42 51v135q0 91 102 91h43q101 0 101 -91v-59h-69v41q0 16 -5.5 21t-21.5 5h-9q-16 0 -21.5 -5t-5.5 -21v-99q0 -17 5.5 -22.5t21.5 -5.5h69v-83h-69q-16 0 -21.5 -5.5t-5.5 -22.5v-75q0 -17 5.5 -22.5t21.5 -5.5h169v-52l-119 -188h-121
l117 180l-42 -22h-52q-93 0 -93 91z" />
    <glyph glyph-name="uni0928094D0930094D" horiz-adv-x="449" 
d="M242 -63h-118l345 363v-122zM146 370v-94q0 -17 6 -22.5t23 -5.5h24q16 0 22 5.5t6 22.5v121h-53q-16 0 -22 -5.5t-6 -21.5zM33 266v122q0 47 24.5 69t81.5 22h330v-82h-128v-131q0 -53 -27 -76.5t-89 -23.5h-77q-62 0 -88.5 23.5t-26.5 76.5zM-20 631h489v-83h-489v83z
" />
    <glyph glyph-name="uni092A094D0930094D" horiz-adv-x="249" 
d="M269 548h-107v-334q0 -17 5.5 -22.5t21.5 -5.5h80v-52l-118 -188h-122l103 159q-84 8 -84 99v344h-68v83h289v-83z" />
    <glyph glyph-name="uni092B094D0930094D" horiz-adv-x="481" 
d="M250 216v332h-92v-334q0 -17 5.5 -22.5t21.5 -5.5h36q16 0 22.5 6.5t6.5 23.5zM501 548h-138v-81q12 12 41 12h97v-82h-109q-16 0 -22.5 -6.5t-6.5 -23.5v-367h-113v110l-103 -164h-122l103 158q-84 4 -84 91v353h-64v83h521v-83z" />
    <glyph glyph-name="uni092C094D0930094D" horiz-adv-x="311" 
d="M41 178v210q0 47 24.5 69t81.5 22h119v-78h-74l61 -101q14 -22 41.5 -76t34.5 -61v-83l-96 -134h-120l97 132h-67q-102 0 -102 100zM155 189q0 -17 5.5 -22.5t21.5 -5.5h97l-69 112q-46 83 -55 94v-178zM-20 548v83h349v-83h-349z" />
    <glyph glyph-name="uni092D094D0930094D" horiz-adv-x="478" 
d="M284 -63h-118l332 349v-122zM247 250v88h-63q-16 0 -22 -5.5t-6 -20.5v-62q0 -17 6 -22.5t23 -5.5h34q16 0 22 5.5t6 22.5zM361 421h137v-83h-137v-99q0 -53 -27 -76.5t-88 -23.5h-88q-62 0 -88.5 23.5t-26.5 76.5v91q0 47 24.5 69t81.5 22h98v103q0 16 -5.5 21t-21.5 5
h-28q-16 0 -21.5 -5t-5.5 -21v-43h-114v56q0 48 24.5 72t81.5 24h98q56 0 81 -24t25 -72v-116z" />
    <glyph glyph-name="uni092E094D0930094D" horiz-adv-x="466" 
d="M274 -63h-118l330 346v-121zM237 250v106h-71q-16 0 -22 -5.5t-6 -20.5v-80q0 -17 6.5 -22.5t22.5 -5.5h42q16 0 22 5.5t6 22.5zM486 548h-135v-109h135v-83h-135v-117q0 -53 -27 -76.5t-88 -23.5h-88q-62 0 -88.5 23.5t-26.5 76.5v108q0 48 24.5 70t81.5 22h98v109h-257
v83h506v-83z" />
    <glyph glyph-name="uni092F094D0930094D" horiz-adv-x="350" 
d="M370 631v-83h-106q10 -13 10 -34v-119q0 -48 -23.5 -72t-79.5 -24h-20v-85q0 -17 5.5 -22.5t21.5 -5.5h192v-52l-119 -188h-121l103 158h-103q-93 0 -93 91v187h100q16 0 21.5 5t5.5 21v107q0 21 -7 27t-33 6h-144v83h390z" />
    <glyph glyph-name="uni0935094D0930094D" horiz-adv-x="256" 
d="M158 370v-156q0 -17 5.5 -22.5t21.5 -5.5h81v-52l-119 -188h-122l103 158q-84 4 -84 91v193q0 47 24.5 69t81.5 22h59v-82h-24q-16 0 -21.5 -5.5t-5.5 -21.5zM-20 631h286v-83h-286v83z" />
    <glyph glyph-name="uni0938094D0930094D" horiz-adv-x="451" 
d="M471 631v-83h-125q7 -8 7 -26v-125q0 -29 -14 -45h132v-65l-145 -154h-118l145 142h-197v-170q0 -16 6 -21.5t22 -5.5h169v-78h-204q-57 0 -81.5 22t-24.5 69v366h113v-105h52q19 0 25.5 7t6.5 26v131q0 20 -6 26t-26 6h-228v83h491z" />
    <glyph glyph-name="uni0915093C094D0930094D" horiz-adv-x="482" 
d="M191 -151v105h95v-105h-95zM528 548h-175v-110q11 11 41 11h134v-82h-146q-16 0 -22.5 -6.5t-6.5 -23.5v-337h-114v109l-103 -163h-121l103 159q-43 4 -63.5 27.5t-20.5 71.5v184q0 47 24.5 69t81.5 22h59v-78h-24q-16 0 -22 -5.5t-6 -20.5v-161q0 -17 6 -22.5t22 -5.5
h35q16 0 22.5 6.5t6.5 23.5v332h-259v83h548v-83z" />
    <glyph glyph-name="uni0916093C094D0930094D" horiz-adv-x="554" 
d="M347 84v-84h-179q-64 0 -94 23t-30 72v376h114v-149h28q19 0 25.5 6.5t6.5 25.5v162q0 20 -6 26t-26 6h-206v83h598v-83h-253q7 -11 7 -26v-188q0 -50 -25.5 -72.5t-82.5 -22.5h-66v-122q0 -19 6.5 -26t25.5 -7h157zM213 -154v105h95v-105h-95zM514 188h80v-45l-130 -197
h-120l108 161q-77 11 -77 98v175q0 47 24.5 69t81.5 22h61v-78h-28q-16 0 -22 -5.5t-6 -20.5v-151q0 -17 6 -22.5t22 -5.5z" />
    <glyph glyph-name="uni0917093C094D0930094D" horiz-adv-x="457" 
d="M382 -126v105h95v-105h-95zM270 -63h-118l332 350v-124zM174 235h35q16 0 22 5.5t6 22.5v134h-61q-20 0 -25.5 -5.5t-5.5 -25.5v-103q0 -17 6.5 -22.5t22.5 -5.5zM-20 631h504v-83h-133v-295q0 -53 -27 -77t-88 -24h-89q-61 0 -88 24t-27 77v131q0 50 29.5 72.5
t93.5 22.5h82v69h-257v83z" />
    <glyph glyph-name="uni0918093C094D0930094D" horiz-adv-x="315" 
d="M339 186v-52l-119 -188h-121l117 180l-46 -22h-32q-94 0 -94 91v116q0 45 42 50v3q-42 5 -42 51v105q0 19 9 28h-73v83h359v-83h-132q-32 0 -40.5 -5t-8.5 -27v-83q0 -17 5.5 -22.5t21.5 -5.5h53v-83h-53q-16 0 -21.5 -5.5t-5.5 -22.5v-80q0 -17 5.5 -22.5t21.5 -5.5h154
zM285 -30h95v-105h-95v105z" />
    <glyph glyph-name="uni0919093C094D0930094D" horiz-adv-x="442" 
d="M87 -273v105h95v-105h-95zM194 -168h115l114 -139h-116zM344 297v105h94v-105h-94zM-20 631h482v-83h-126v-147h-147q-16 0 -21.5 -5t-5.5 -21v-50q0 -16 5.5 -21t21.5 -5h57q57 0 81.5 -22t24.5 -69v-117q0 -40 -17 -61.5t-56 -27.5l83 -145h-101l-60 118l-62 -118h-102
l84 144q-44 4 -63 26t-19 64v71h114v-57q0 -16 5 -21.5t19 -5.5h34q16 0 22 5.5t6 21.5v90q0 15 -6 20.5t-22 5.5h-57q-57 0 -81 22t-24 69v76q0 47 24 69t81 22h69v69h-243v83z" />
    <glyph glyph-name="uni091A093C094D0930094D" horiz-adv-x="269" 
d="M289 631v-83h-310v83h310zM289 186v-52l-118 -188h-122l103 158h-1q-94 0 -94 91v163q0 26 13 39h-72v82h233v-82h-16q-29 0 -36.5 -4.5t-7.5 -23.5v-155q0 -17 5.5 -22.5t21.5 -5.5h91zM214 -42h95v-105h-95v105z" />
    <glyph glyph-name="uni091B093C094D0930094D" horiz-adv-x="589" 
d="M183 -273v105h95v-105h-95zM291 -168h115l114 -139h-116zM354 548h-151l5 -1q-8 1 -20.5 1t-20.5 -5t-8 -27v-135q0 -17 6 -22.5t22 -5.5h35v-82h-35q-16 0 -22 -5.5t-6 -22.5v-131q0 -17 6 -22.5t22 -5.5h219q17 0 22.5 5.5t5.5 22.5v267q0 16 -5.5 21t-22.5 5h-18
q-16 0 -21.5 -5t-5.5 -21v-92q0 -16 5.5 -21t21.5 -5h16v-74h-38q-98 0 -98 91v110q0 44 21 65.5t65 24.5v70zM609 548h-149v-70q43 -4 64 -25.5t21 -64.5v-288q0 -52 -28 -76t-88 -24h-49l82 -143h-101l-60 118l-62 -118h-102l84 143h-60q-59 0 -87 24t-28 76v159
q0 46 41 51v3q-41 5 -41 51v158q0 18 7 26h-73v83h629v-83z" />
    <glyph glyph-name="uni091C093C094D0930094D" horiz-adv-x="465" 
d="M356 -147v105h95v-105h-95zM168 -54l317 321v-119l-192 -202h-125zM43 229v250h113v-240q0 -17 6 -22.5t23 -5.5h27q16 0 22 5.5t6 22.5v240h245v-82h-132v-168q0 -53 -26.5 -76.5t-88.5 -23.5h-80q-62 0 -88.5 23.5t-26.5 76.5zM-20 548v83h505v-83h-505z" />
    <glyph glyph-name="uni091D093C094D0930094D" horiz-adv-x="509" 
d="M252 44h-98v-71h-114v206h114v-57h63q16 0 22 5.5t6 20.5v63q0 15 -6 20.5t-22 5.5h-72q-57 0 -81.5 22t-24.5 70v59q0 47 24.5 69t81.5 22h87v69h-252v83h559v-83h-193v-147h-166q-16 0 -22 -5.5t-6 -20.5v-33q0 -15 6 -20.5t22 -5.5h359v-79h-183q2 -14 2 -21v-81
q0 -47 -24.5 -69t-81.5 -22zM539 215v-111l-192 -197h-121zM449 -42h95v-105h-95v105z" />
    <glyph glyph-name="uni091E093C094D0930094D" horiz-adv-x="444" 
d="M474 631v-83h-494v83h494zM333 250v-72q0 -53 -26.5 -76.5t-88.5 -23.5h-77q-62 0 -88.5 23.5t-26.5 76.5v84h113v-73q0 -17 6 -22.5t22 -5.5h25q16 0 22 5.5t6 22.5v181q0 16 -5.5 21.5t-22.5 5.5h-93v82h129q56 0 80.5 -24t24.5 -71v-51h141v-83h-141zM474 189v-113
l-164 -169h-121zM403 -70h95v-105h-95v105z" />
    <glyph glyph-name="uni091F093C094D0930094D" horiz-adv-x="402" 
d="M48 100v288q0 47 24.5 69t81.5 22h88v69h-262v83h442v-83h-67v-151h-165q-16 0 -22 -5.5t-6 -22.5v-258q0 -17 6 -22.5t22 -5.5h27q16 0 22.5 5.5t6.5 22.5v103h113v-114q0 -83 -72 -96l84 -147h-101l-60 118l-62 -118h-102l85 145q-44 5 -63.5 28.5t-19.5 69.5z
M100 -273v105h95v-105h-95zM323 -168l114 -139h-116l-113 139h115z" />
    <glyph glyph-name="uni0920093C094D0930094D" horiz-adv-x="421" 
d="M102 -273v105h95v-105h-95zM210 -168h115l114 -139h-116zM263 111v258q0 17 -6 22.5t-22 5.5h-45q-16 0 -22 -5.5t-6 -22.5v-258q0 -17 6 -22.5t22 -5.5h45q16 0 22 5.5t6 22.5zM-20 631h461v-83h-172v-69q58 -1 82.5 -24.5t24.5 -75.5v-279q0 -46 -20 -69.5t-64 -28.5
l83 -145h-101l-60 118l-62 -118h-102l84 144q-45 5 -65.5 29t-20.5 70v279q0 52 25 75.5t83 24.5v69h-176v83z" />
    <glyph glyph-name="uni0921093C094D0930094D" horiz-adv-x="403" 
d="M39 91v71h114v-57q0 -16 5 -21.5t19 -5.5h34q16 0 22 5.5t6 21.5v90q0 15 -6 20.5t-22 5.5h-57q-57 0 -81 22t-24 69v76q0 47 24 69t81 22h69v69h-243v83h443v-83h-87v-147h-147q-16 0 -21.5 -5t-5.5 -21v-50q0 -16 5.5 -21t21.5 -5h57q57 0 81.5 -22t24.5 -69v-117
q0 -40 -17 -61.5t-57 -27.5l83 -145h-101l-60 118l-62 -118h-102l84 144q-43 4 -62 26t-19 64zM90 -273v105h95v-105h-95zM313 -168l114 -139h-116l-113 139h115z" />
    <glyph glyph-name="uni0922093C094D0930094D" horiz-adv-x="439" 
d="M114 -273v105h95v-105h-95zM222 -168h115l114 -139h-116zM-20 631h479v-83h-104v-151h-165q-16 0 -22 -5.5t-6 -22.5v-258q0 -17 6 -22.5t22 -5.5h63q16 0 22 5.5t6 22.5v71q0 16 -6 21.5t-22 5.5h-43v83h70q61 0 88 -23.5t27 -76.5v-92q0 -47 -21.5 -71t-69.5 -28
l82 -144h-101l-60 118l-62 -118h-102l84 144q-51 3 -74 26.5t-23 72.5v288q0 47 24.5 69t81.5 22h88v69h-262v83z" />
    <glyph glyph-name="uni0923093C094D0930094D" horiz-adv-x="409" 
d="M185 183h27q16 0 22 5.5t6 22.5v337h-84v-337q0 -17 6 -22.5t23 -5.5zM353 548v-347q0 -54 -26.5 -77.5t-88.5 -23.5h-80q-62 0 -88.5 23.5t-26.5 77.5v347h-63v83h459v-83h-86zM439 178v-113l-155 -158h-122zM358 -60h95v-105h-95v105z" />
    <glyph glyph-name="uni0924093C094D0930094D" horiz-adv-x="334" 
d="M204 -130v105h95v-105h-95zM354 271v-78h-86l-125 -193h-129l155 238l-57 103q-16 30 -31.5 41t-43.5 11h-28v84h67q51 0 77 -14.5t48 -52.5l80 -139h73zM-20 631h374v-83h-374v83z" />
    <glyph glyph-name="uni0925093C094D0930094D" horiz-adv-x="361" 
d="M381 186v-52l-119 -188h-121l103 158h-103q-93 0 -93 91v179h110q16 0 22 5.5t6 21.5v126q0 15 -6 20.5t-22 5.5h-6q-16 0 -21.5 -5t-5.5 -21v-41h-69v59q0 47 24 69t76 22h42q101 0 101 -91v-158q0 -48 -24.5 -71.5t-81.5 -23.5h-32v-78q0 -17 6 -22.5t22 -5.5h192z
M309 -40h95v-105h-95v105z" />
    <glyph glyph-name="uni0926093C094D0930094D" horiz-adv-x="403" 
d="M42 195v193q0 47 24.5 69t81.5 22h93v69h-267v83h449v-83h-69v-151h-170q-16 0 -22 -5.5t-6 -22.5v-155q0 -17 5.5 -22.5t21.5 -5.5h33q16 0 22.5 6.5t6.5 23.5v61h113v-277h-113v109l-103 -163h-121l102 158q-81 6 -81 91zM125 -172v105h95v-105h-95zM347 -67l114 -139
h-116l-113 139h115z" />
    <glyph glyph-name="uni0927093C094D0930094D" horiz-adv-x="342" 
d="M310 -132v105h95v-105h-95zM62 195v111q0 45 42 50v3q-42 5 -42 51v135q0 91 102 91h43q101 0 101 -91v-59h-69v41q0 16 -5.5 21t-21.5 5h-9q-16 0 -21.5 -5t-5.5 -21v-99q0 -17 5.5 -22.5t21.5 -5.5h69v-83h-69q-16 0 -21.5 -5.5t-5.5 -22.5v-75q0 -17 5.5 -22.5
t21.5 -5.5h169v-52l-119 -188h-121l117 180l-42 -22h-52q-93 0 -93 91z" />
    <glyph glyph-name="uni0928093C094D0930094D" horiz-adv-x="449" 
d="M325 -110v105h95v-105h-95zM242 -63h-118l345 363v-122zM146 370v-94q0 -17 6 -22.5t23 -5.5h24q16 0 22 5.5t6 22.5v121h-53q-16 0 -22 -5.5t-6 -21.5zM33 266v122q0 47 24.5 69t81.5 22h330v-82h-128v-131q0 -53 -27 -76.5t-89 -23.5h-77q-62 0 -88.5 23.5t-26.5 76.5z
M-20 631h489v-83h-489v83z" />
    <glyph glyph-name="uni092A093C094D0930094D" horiz-adv-x="249" 
d="M269 186v-52l-118 -188h-122l103 159q-84 8 -84 99v344h-68v83h289v-83h-107v-334q0 -17 5.5 -22.5t21.5 -5.5h80zM203 -14h95v-105h-95v105z" />
    <glyph glyph-name="uni092B093C094D0930094D" horiz-adv-x="481" 
d="M208 -150v105h95v-105h-95zM250 216v332h-92v-334q0 -17 5.5 -22.5t21.5 -5.5h36q16 0 22.5 6.5t6.5 23.5zM501 548h-138v-81q12 12 41 12h97v-82h-109q-16 0 -22.5 -6.5t-6.5 -23.5v-367h-113v110l-103 -164h-122l103 158q-84 4 -84 91v353h-64v83h521v-83z" />
    <glyph glyph-name="uni092C093C094D0930094D" horiz-adv-x="311" 
d="M281 -153v105h95v-105h-95zM41 178v210q0 47 24.5 69t81.5 22h119v-78h-74l61 -101q14 -22 41.5 -76t34.5 -61v-83l-96 -134h-120l97 132h-67q-102 0 -102 100zM155 189q0 -17 5.5 -22.5t21.5 -5.5h97l-69 112q-46 83 -55 94v-178zM-20 548v83h349v-83h-349z" />
    <glyph glyph-name="uni092D093C094D0930094D" horiz-adv-x="478" 
d="M381 -121v105h95v-105h-95zM284 -63h-118l332 349v-122zM247 250v88h-63q-16 0 -22 -5.5t-6 -20.5v-62q0 -17 6 -22.5t23 -5.5h34q16 0 22 5.5t6 22.5zM361 421h137v-83h-137v-99q0 -53 -27 -76.5t-88 -23.5h-88q-62 0 -88.5 23.5t-26.5 76.5v91q0 47 24.5 69t81.5 22h98
v103q0 16 -5.5 21t-21.5 5h-28q-16 0 -21.5 -5t-5.5 -21v-43h-114v56q0 48 24.5 72t81.5 24h98q56 0 81 -24t25 -72v-116z" />
    <glyph glyph-name="uni092E093C094D0930094D" horiz-adv-x="466" 
d="M369 -126v105h95v-105h-95zM274 -63h-118l330 346v-121zM237 250v106h-71q-16 0 -22 -5.5t-6 -20.5v-80q0 -17 6.5 -22.5t22.5 -5.5h42q16 0 22 5.5t6 22.5zM486 548h-135v-109h135v-83h-135v-117q0 -53 -27 -76.5t-88 -23.5h-88q-62 0 -88.5 23.5t-26.5 76.5v108
q0 48 24.5 70t81.5 22h98v109h-257v83h506v-83z" />
    <glyph glyph-name="uni092F093C094D0930094D" horiz-adv-x="350" 
d="M370 186v-52l-119 -188h-121l103 158h-103q-93 0 -93 91v187h100q16 0 21.5 5t5.5 21v107q0 21 -7 27t-33 6h-144v83h390v-83h-106q10 -13 10 -34v-119q0 -48 -23.5 -72t-79.5 -24h-20v-85q0 -17 5.5 -22.5t21.5 -5.5h192zM299 -34h95v-105h-95v105z" />
    <glyph glyph-name="uni0935093C094D0930094D" horiz-adv-x="256" 
d="M266 631v-83h-286v83h286zM266 186v-52l-119 -188h-122l103 158q-84 4 -84 91v193q0 47 24.5 69t81.5 22h59v-82h-24q-16 0 -21.5 -5.5t-5.5 -21.5v-156q0 -17 5.5 -22.5t21.5 -5.5h81zM203 -29h95v-105h-95v105z" />
    <glyph glyph-name="uni0915094D0915" horiz-adv-x="994" 
d="M641 190v358h-288v-80q11 11 41 11h207v-78h-24q-16 0 -21.5 -5t-5.5 -21v-186q0 -17 5.5 -22.5t21.5 -5.5h35q16 0 22.5 6t6.5 23zM1014 548h-259v-80q11 11 41 11h62q52 0 77 -24t25 -76v-210q0 -47 -24.5 -69t-81.5 -22h-59v78h24q16 0 22 5.5t6 21.5v186
q0 17 -6 22.5t-22 5.5h-35q-16 0 -22.5 -6.5t-6.5 -23.5v-367h-114v90q-12 -12 -41 -12h-62q-102 0 -102 100v183q0 18 6 36h-60q-16 0 -22.5 -6.5t-6.5 -23.5v-367h-114v90q-12 -12 -41 -12h-62q-102 0 -102 100v210q0 47 24.5 69t81.5 22h59v-78h-24q-16 0 -22 -5.5
t-6 -20.5v-186q0 -17 6 -22.5t22 -5.5h35q16 0 22.5 6t6.5 23v358h-259v83h1034v-83z" />
    <glyph glyph-name="uni0915094D0916" horiz-adv-x="1137" 
d="M618 354v162q0 20 -6 26t-26 6h-233v-110q11 11 41 11h164v-127h28q19 0 25.5 6.5t6.5 25.5zM1157 631v-83h-69v-548h-111v116q-12 -15 -44 -15h-56q-102 0 -102 100v179q0 47 24.5 69t81.5 22h61v-78h-28q-16 0 -22 -5.5t-6 -20.5v-155q0 -17 6 -22.5t22 -5.5h30
q18 0 25.5 7t7.5 25v332h-252q7 -11 7 -26v-188q0 -50 -25.5 -72.5t-82.5 -22.5h-66v-122q0 -19 6.5 -26t25.5 -7h229v-84h-251q-64 0 -94 23t-30 72v272h-62q-16 0 -22.5 -6.5t-6.5 -23.5v-337h-114v90q-12 -12 -41 -12h-62q-102 0 -102 100v210q0 47 24.5 69t81.5 22h59
v-78h-24q-16 0 -22 -5.5t-6 -20.5v-186q0 -17 6 -22.5t22 -5.5h35q16 0 22.5 6t6.5 23v358h-259v83h1177z" />
    <glyph glyph-name="uni0915094D091A" horiz-adv-x="818" 
d="M657 190v358h-304v-110q11 11 41 11h220v-82h-16q-29 0 -36.5 -4.5t-7.5 -23.5v-150q0 -17 5.5 -22.5t21.5 -5.5h46q17 0 23.5 6t6.5 23zM838 631v-83h-68v-548h-113v91q-12 -13 -42 -13h-73q-102 0 -102 100v150q0 26 13 39h-71q-16 0 -22.5 -6.5t-6.5 -23.5v-337h-114
v90q-12 -12 -41 -12h-62q-102 0 -102 100v210q0 47 24.5 69t81.5 22h59v-78h-24q-16 0 -22 -5.5t-6 -20.5v-186q0 -17 6 -22.5t22 -5.5h35q16 0 22.5 6t6.5 23v358h-259v83h858z" />
    <glyph glyph-name="uni0915094D091C" horiz-adv-x="996" 
d="M835 479v69h-482v-80q11 11 41 11h164v-290q0 -17 6 -22.5t22 -5.5h27q16 0 22.5 5.5t6.5 22.5v290h193zM1016 631v-83h-68v-548h-113v397h-80v-219q0 -53 -27 -76.5t-88 -23.5h-80q-62 0 -89 23.5t-27 76.5v219h-62q-16 0 -22.5 -6.5t-6.5 -23.5v-367h-114v90
q-12 -12 -41 -12h-62q-102 0 -102 100v210q0 47 24.5 69t81.5 22h59v-78h-24q-16 0 -22 -5.5t-6 -20.5v-186q0 -17 6 -22.5t22 -5.5h35q16 0 22.5 6t6.5 23v358h-259v83h1036z" />
    <glyph glyph-name="uni0915094D091F" horiz-adv-x="803" 
d="M353 548v-80q11 11 41 11h244v69h-285zM751 397h-165q-16 0 -22 -5.5t-6 -22.5v-258q0 -17 6 -22.5t22 -5.5h27q16 0 22.5 5.5t6.5 22.5v103h113v-114q0 -53 -27 -76.5t-88 -23.5h-80q-62 0 -89 23.5t-27 76.5v297h-62q-16 0 -22.5 -6.5t-6.5 -23.5v-367h-114v90
q-12 -12 -41 -12h-62q-102 0 -102 100v210q0 47 24.5 69t81.5 22h59v-78h-24q-16 0 -22 -5.5t-6 -20.5v-186q0 -17 6 -22.5t22 -5.5h35q16 0 22.5 6t6.5 23v358h-259v83h843v-83h-72v-151z" />
    <glyph glyph-name="uni0915094D0923" horiz-adv-x="1005" 
d="M646 189v359h-84v-359q0 -17 6.5 -22.5t22.5 -5.5h27q16 0 22 5.5t6 22.5zM394 449h55v99h-96v-110q11 11 41 11zM1025 631v-83h-68v-548h-114v548h-84v-370q0 -53 -26.5 -76.5t-88.5 -23.5h-80q-62 0 -88.5 23.5t-26.5 76.5v189h-67q-16 0 -22.5 -6.5t-6.5 -23.5v-337
h-114v90q-12 -12 -41 -12h-62q-102 0 -102 100v210q0 47 24.5 69t81.5 22h59v-78h-24q-16 0 -22 -5.5t-6 -20.5v-186q0 -17 6 -22.5t22 -5.5h35q16 0 22.5 6t6.5 23v358h-259v83h1045z" />
    <glyph glyph-name="uni0915094D0924" horiz-adv-x="622" 
d="M642 548h-259v-81q12 12 41 12h63q51 0 76 -24t25 -76v-210q0 -47 -24 -69t-81 -22h-59v78h24q16 0 21.5 5.5t5.5 21.5v186q0 17 -5.5 22.5t-21.5 5.5h-36q-16 0 -22.5 -6.5t-6.5 -23.5v-367h-113v367q0 17 -6.5 23.5t-22.5 6.5h-36q-16 0 -21.5 -5.5t-5.5 -22.5v-186
q0 -16 5.5 -21.5t21.5 -5.5h24v-78h-59q-57 0 -81 22t-24 69v187q0 29 15 41h-74v82h223q29 0 41 -12v81h-290v83h662v-83z" />
    <glyph glyph-name="uni0915094D0925" horiz-adv-x="933" 
d="M953 631v-83h-68v-548h-113v91q-12 -13 -40 -13h-168q-59 0 -87 24t-28 76v114h-67q-16 0 -22.5 -6.5t-6.5 -23.5v-262h-114v90q-12 -12 -41 -12h-62q-102 0 -102 100v210q0 47 24.5 69t81.5 22h59v-78h-24q-16 0 -22 -5.5t-6 -20.5v-186q0 -17 6 -22.5t22 -5.5h35
q16 0 22.5 6t6.5 23v358h-259v83h428v-83h-55v-185q11 11 41 11h157q16 0 21.5 5.5t5.5 21.5v126q0 16 -5.5 21t-21.5 5h-6q-16 0 -21.5 -5t-5.5 -21v-41h-69v59q0 47 24 69t76 22h41q102 0 102 -91v-158q0 -48 -24.5 -71.5t-81.5 -23.5h-24v-103q0 -17 6 -22.5t22 -5.5h148
q20 0 27 7.5t7 26.5v353l-1 83h182z" />
    <glyph glyph-name="uni0915094D0926" horiz-adv-x="805" 
d="M353 548v-103q12 12 41 12h249v91h-290zM757 374h-171q-16 0 -22 -5.5t-6 -22.5v-157q0 -17 5.5 -22.5t21.5 -5.5h33q16 0 22.5 6t6.5 23v81h114v-271h-114v90q-12 -12 -41 -12h-46q-62 0 -89 23.5t-27 76.5v196h-62q-16 0 -22.5 -6.5t-6.5 -23.5v-344h-114v90
q-12 -12 -41 -12h-62q-102 0 -102 100v210q0 47 24.5 69t81.5 22h59v-78h-24q-16 0 -22 -5.5t-6 -20.5v-186q0 -17 6 -22.5t22 -5.5h35q16 0 22.5 6t6.5 23v358h-259v83h849v-83h-72v-174z" />
    <glyph glyph-name="uni0915094D092A" horiz-adv-x="816" 
d="M658 190v358h-92v-359q0 -17 5.5 -22.5t21.5 -5.5h35q17 0 23.5 6t6.5 23zM394 449h58v99h-99v-110q11 11 41 11zM839 631v-83h-68v-548h-113v91q-12 -13 -42 -13h-62q-102 0 -102 100v189h-70q-16 0 -22.5 -6.5t-6.5 -23.5v-337h-114v90q-12 -12 -41 -12h-62
q-102 0 -102 100v210q0 47 24.5 69t81.5 22h59v-78h-24q-16 0 -22 -5.5t-6 -20.5v-186q0 -17 6 -22.5t22 -5.5h35q16 0 22.5 6t6.5 23v358h-259v83h859z" />
    <glyph glyph-name="uni0915094D092B" horiz-adv-x="1006" 
d="M654 190v358h-92v-359q0 -17 5.5 -22.5t21.5 -5.5h36q16 0 22.5 6t6.5 23zM394 449h54v99h-95v-110q11 11 41 11zM1026 548h-259v-81q12 12 41 12h63q51 0 76 -24t25 -76v-210q0 -47 -24 -69t-81 -22h-59v78h23q17 0 22.5 5.5t5.5 21.5v186q0 17 -5.5 22.5t-22.5 5.5h-35
q-16 0 -22.5 -6.5t-6.5 -23.5v-367h-113v91q-12 -13 -42 -13h-62q-102 0 -102 100v189h-66q-16 0 -22.5 -6.5t-6.5 -23.5v-337h-114v90q-12 -12 -41 -12h-62q-102 0 -102 100v210q0 47 24.5 69t81.5 22h59v-78h-24q-16 0 -22 -5.5t-6 -20.5v-186q0 -17 6 -22.5t22 -5.5h35
q16 0 22.5 6t6.5 23v358h-259v83h1046v-83z" />
    <glyph glyph-name="uni0915094D092E" horiz-adv-x="1022" 
d="M860 432v116h-98v-116h98zM649 205v144h-72q-16 0 -21.5 -5t-5.5 -21v-118q0 -16 6 -21.5t22 -5.5h43q16 0 22 5.5t6 21.5zM353 548v-128q12 12 41 12h255v116h-296zM1042 631v-83h-69v-548h-113v349h-98v-154q0 -53 -26.5 -76.5t-88.5 -23.5h-87q-62 0 -89 23.5
t-27 76.5v154h-62q-16 0 -22.5 -6t-6.5 -23v-320h-114v90q-12 -12 -41 -12h-62q-102 0 -102 100v210q0 47 24.5 69t81.5 22h59v-78h-24q-16 0 -22 -5.5t-6 -20.5v-186q0 -17 6 -22.5t22 -5.5h35q16 0 22.5 6t6.5 23v358h-259v83h1062z" />
    <glyph glyph-name="uni0915094D092F" horiz-adv-x="920" 
d="M759 195v353h-91q11 -13 11 -34v-119q0 -49 -23.5 -72.5t-80.5 -23.5h-20v-110q0 -17 5.5 -22.5t22.5 -5.5h142q19 0 26.5 7.5t7.5 26.5zM394 382h147q17 0 22.5 5t5.5 21v107q0 21 -7.5 27t-33.5 6h-175v-178q12 12 41 12zM940 631v-83h-68v-548h-113v91
q-12 -13 -40 -13h-162q-59 0 -87 24t-28 76v121h-60q-16 0 -22.5 -6.5t-6.5 -22.5v-270h-114v90q-12 -12 -41 -12h-62q-102 0 -102 100v210q0 47 24.5 69t81.5 22h59v-78h-24q-16 0 -22 -5.5t-6 -20.5v-186q0 -17 6 -22.5t22 -5.5h35q16 0 22.5 6t6.5 23v358h-259v83h960z
" />
    <glyph glyph-name="uni0915094D0932" horiz-adv-x="998" 
d="M840 449v99h-487v-110q11 11 41 11h255q46 0 51 -41h3q5 41 50 41h87zM1018 631v-83h-64v-548h-114v367h-56q-16 0 -21.5 -6t-5.5 -22v-159h-113v159q0 16 -5.5 22t-22.5 6h-31q-16 0 -21.5 -5.5t-5.5 -22.5v-228q0 -16 5.5 -21.5t21.5 -5.5h57v-84h-92q-57 0 -81.5 22
t-24.5 69v258q0 12 1 18h-63q-16 0 -22.5 -6.5t-6.5 -23.5v-337h-114v90q-12 -12 -41 -12h-62q-102 0 -102 100v210q0 47 24.5 69t81.5 22h59v-78h-24q-16 0 -22 -5.5t-6 -20.5v-186q0 -17 6 -22.5t22 -5.5h35q16 0 22.5 6t6.5 23v358h-259v83h1038z" />
    <glyph glyph-name="uni0915094D0935" horiz-adv-x="812" 
d="M650 190v358h-297v-110q11 11 41 11h215v-78h-24q-16 0 -21.5 -5t-5.5 -21v-156q0 -17 5.5 -22.5t21.5 -5.5h36q16 0 22.5 6t6.5 23zM832 631v-83h-69v-548h-113v91q-12 -13 -42 -13h-62q-102 0 -102 100v189h-62q-16 0 -22.5 -6.5t-6.5 -23.5v-337h-114v90
q-12 -12 -41 -12h-62q-102 0 -102 100v210q0 47 24.5 69t81.5 22h59v-78h-24q-16 0 -22 -5.5t-6 -20.5v-186q0 -17 6 -22.5t22 -5.5h35q16 0 22.5 6t6.5 23v358h-259v83h852z" />
    <glyph glyph-name="uni0915094D0936" horiz-adv-x="1002" 
d="M558 634h97q57 0 81.5 -24t24.5 -72v-191q0 -49 -29.5 -71.5t-93.5 -22.5h-74v-148q0 -16 5.5 -21.5t22.5 -5.5h30q14 0 19.5 5.5t5.5 21.5v86h113v-100q0 -47 -24.5 -69t-81.5 -22h-98q-57 0 -81 22t-24 69v214h-69q-16 0 -22.5 -6t-6.5 -23v-276h-114v90
q-12 -12 -41 -12h-62q-102 0 -102 100v210q0 47 24.5 69t81.5 22h59v-78h-24q-16 0 -22 -5.5t-6 -20.5v-186q0 -17 6 -22.5t22 -5.5h35q16 0 22.5 6t6.5 23v358h-259v83h429v-83h-56v-172q12 12 41 12h170v-53h52q19 0 25.5 7t6.5 26v157q0 16 -5.5 21t-22.5 5h-30
q-14 0 -19.5 -5.5t-5.5 -20.5v-69h-113v82q0 48 24.5 72t81.5 24zM841 631h181v-83h-69v-548h-112v631z" />
    <glyph glyph-name="uni0915094D0938" horiz-adv-x="997" 
d="M836 352v196h-88q7 -11 7 -26v-125q0 -30 -15 -45h96zM642 385v131q0 19 -6.5 25.5t-26.5 6.5h-256v-110q11 11 41 11h164v-97h51q19 0 26 7t7 26zM1017 631v-83h-68v-548h-113v270h-278v-165q0 -16 5.5 -21.5t21.5 -5.5h31q14 0 19.5 5.5t5.5 21.5v103h113v-117
q0 -47 -24.5 -69t-81.5 -22h-98q-57 0 -81.5 22t-24.5 69v276h-62q-16 0 -22.5 -6.5t-6.5 -23.5v-337h-114v90q-12 -12 -41 -12h-62q-102 0 -102 100v210q0 47 24.5 69t81.5 22h59v-78h-24q-16 0 -22 -5.5t-6 -20.5v-186q0 -17 6 -22.5t22 -5.5h35q16 0 22.5 6t6.5 23v358
h-259v83h1037z" />
    <glyph glyph-name="uni0916094D0916" horiz-adv-x="1269" 
d="M1289 631v-83h-68v-548h-111v116q-12 -15 -44 -15h-56q-52 0 -77 24t-25 76v179q0 47 24.5 69t81.5 22h61v-78h-29q-16 0 -21.5 -5t-5.5 -21v-155q0 -17 5.5 -22.5t21.5 -5.5h31q18 0 25.5 7t7.5 25v332h-253q7 -8 7 -26v-188q0 -50 -25 -72.5t-82 -22.5h-66v-122
q0 -20 6.5 -26.5t25.5 -6.5h228v-84h-250q-65 0 -94.5 23t-29.5 72v21q-12 -15 -44 -15h-56q-102 0 -102 100v179q0 47 24.5 69t81.5 22h61v-78h-28q-16 0 -22 -5.5t-6 -20.5v-155q0 -17 6 -22.5t22 -5.5h30q18 0 25.5 7t7.5 25v255h114v-149h27q20 0 26.5 6.5t6.5 25.5v162
q0 19 -6.5 25.5t-26.5 6.5h-393q7 -11 7 -26v-188q0 -50 -25.5 -72.5t-82.5 -22.5h-66v-122q0 -19 6.5 -26t25.5 -7h229v-84h-251q-64 0 -94 23t-30 72v376h114v-149h28q19 0 25.5 6.5t6.5 25.5v162q0 20 -6 26t-26 6h-206v83h1309z" />
    <glyph glyph-name="uni0916094D0924" horiz-adv-x="960" 
d="M980 631v-83h-68v-548h-114v397h-80q-16 0 -21.5 -5.5t-5.5 -21.5v-259q0 -16 5.5 -21.5t21.5 -5.5h24v-84h-59q-57 0 -81.5 22t-24.5 69v25q-12 -15 -44 -15h-56q-102 0 -102 100v179q0 47 24.5 69t81.5 22h61v-78h-28q-16 0 -22 -5.5t-6 -20.5v-155q0 -17 6 -22.5
t22 -5.5h30q18 0 25.5 7t7.5 25v172q0 47 24.5 69t81.5 22h115v69h-473q7 -11 7 -26v-197q0 -50 -25.5 -72t-82.5 -22h-66v-114q0 -19 6.5 -26t25.5 -7h208v-84h-230q-64 0 -94 23t-30 72v376h114v-158h28q19 0 25.5 7t6.5 26v170q0 20 -6 26t-26 6h-206v83h1000z" />
    <glyph glyph-name="uni0916094D092E" horiz-adv-x="1130" 
d="M979 432v116h-84v-116h84zM781 205v144h-71q-16 0 -21.5 -5t-5.5 -21v-118q0 -16 6 -21.5t22 -5.5h42q16 0 22 5.5t6 21.5zM1160 631v-83h-68v-548h-113v349h-84v-154q0 -53 -27 -76.5t-88 -23.5h-88q-65 0 -91 26q-14 -26 -59 -26h-65q-102 0 -102 100v193q0 47 24.5 69
t81.5 22h61v-78h-28q-16 0 -22 -5.5t-6 -20.5v-170q0 -16 6 -21.5t22 -5.5h30q18 0 25.5 7t7.5 25v131q0 47 24.5 69t81.5 22h98v116h-456q7 -11 7 -26v-188q0 -50 -25.5 -72.5t-82.5 -22.5h-66v-122q0 -19 6.5 -26t25.5 -7h229v-84h-251q-64 0 -94 23t-30 72v376h114v-149
h28q19 0 25.5 6.5t6.5 25.5v162q0 20 -6 26t-26 6h-206v83h1180z" />
    <glyph glyph-name="uni0916094D092F" horiz-adv-x="1056" 
d="M894 195v353h-90q10 -13 10 -34v-119q0 -48 -23.5 -72t-79.5 -24h-20v-110q0 -17 5.5 -22.5t21.5 -5.5h142q20 0 27 7.5t7 26.5zM1076 631v-83h-69v-548h-113v91q-12 -13 -39 -13h-163q-71 0 -97 35q-17 -18 -53 -18h-65q-102 0 -102 100v193q0 47 24.5 69t81.5 22h61
v-78h-28q-16 0 -22 -5.5t-6 -20.5v-170q0 -16 6 -21.5t22 -5.5h30q18 0 25.5 7t7.5 25v172h100q16 0 21.5 5t5.5 21v107q0 21 -7 27t-33 6h-339q7 -11 7 -26v-188q0 -50 -25.5 -72.5t-82.5 -22.5h-66v-122q0 -19 6.5 -26t25.5 -7h229v-84h-251q-64 0 -94 23t-30 72v376h114
v-149h28q19 0 25.5 6.5t6.5 25.5v162q0 20 -6 26t-26 6h-206v83h1096z" />
    <glyph glyph-name="uni0916094D0935" horiz-adv-x="935" 
d="M955 631v-83h-59v-548h-114v90q-12 -12 -41 -12h-62q-81 0 -97 61q-15 -12 -44 -12h-61q-102 0 -102 100v161q0 47 24.5 69t81.5 22h61v-78h-28q-16 0 -22 -5.5t-6 -20.5v-137q0 -17 6 -22.5t22 -5.5h30q18 0 25.5 7.5t7.5 25.5v145q0 47 24.5 69t81.5 22h59v-78h-24
q-16 0 -21.5 -5t-5.5 -21v-186q0 -17 5.5 -22.5t21.5 -5.5h35q16 0 22.5 6t6.5 23v358h-457q7 -11 7 -26v-188q0 -50 -25.5 -72.5t-82.5 -22.5h-66v-122q0 -19 6.5 -26t25.5 -7h259v-84h-281q-64 0 -94 23t-30 72v376h114v-149h28q19 0 25.5 6.5t6.5 25.5v162q0 20 -6 26
t-26 6h-206v83h975z" />
    <glyph glyph-name="uni0916094D0936" horiz-adv-x="1129" 
d="M158 239v-122q0 -19 6.5 -26t25.5 -7h229v-84h-251q-64 0 -94 23t-30 72v376h114v-149h28q19 0 25.5 6.5t6.5 25.5v162q0 20 -6 26t-26 6h-206v83h556v-83h-211q7 -11 7 -26v-188q0 -50 -25.5 -72.5t-82.5 -22.5h-66zM684 634h98q57 0 81.5 -24t24.5 -72v-191
q0 -49 -30 -71.5t-94 -22.5h-73v-148q0 -16 5.5 -21.5t21.5 -5.5h30q15 0 20 5.5t5 21.5v86h114v-100q0 -47 -24.5 -69t-81.5 -22h-98q-57 0 -81.5 22t-24.5 69v25q-12 -15 -44 -15h-56q-102 0 -102 100v179q0 47 24.5 69t81.5 22h55v-78h-22q-16 0 -22 -5.5t-6 -20.5v-155
q0 -17 6 -22.5t22 -5.5h30q18 0 25.5 7t7.5 25v172h114v-53h51q19 0 25.5 6.5t6.5 26.5v157q0 16 -5.5 21t-21.5 5h-31q-14 0 -19 -5.5t-5 -20.5v-69h-114v82q0 48 24.5 72t81.5 24zM967 631h182v-83h-69v-548h-113v631z" />
    <glyph glyph-name="uni0917094D0917" horiz-adv-x="996" 
d="M564 161h35q16 0 22 5.5t6 22.5v174h-61q-20 0 -25.5 -5.5t-5.5 -25.5v-143q0 -17 6.5 -22.5t22.5 -5.5zM174 161h35q16 0 22 5.5t6 22.5v174h-61q-20 0 -25.5 -5.5t-5.5 -25.5v-143q0 -17 6.5 -22.5t22.5 -5.5zM1016 631v-83h-68v-548h-114v548h-93v-370
q0 -53 -27 -76.5t-88 -23.5h-89q-61 0 -88 23.5t-27 76.5v173q0 50 29.5 72.5t93.5 22.5h82v102h-276v-370q0 -53 -27 -76.5t-88 -23.5h-89q-61 0 -88 23.5t-27 76.5v173q0 50 29.5 72.5t93.5 22.5h82v102h-257v83h1036z" />
    <glyph glyph-name="uni0917094D0918" horiz-adv-x="860" 
d="M703 195v353h-98q-32 0 -40.5 -5t-8.5 -27v-93q0 -17 5.5 -22.5t21.5 -5.5h53v-82h-53q-16 0 -21.5 -5.5t-5.5 -22.5v-96q0 -17 5.5 -22.5t21.5 -5.5h86q19 0 26.5 7.5t7.5 26.5zM174 161h35q16 0 22 5.5t6 22.5v174h-61q-20 0 -25.5 -5.5t-5.5 -25.5v-143
q0 -17 6.5 -22.5t22.5 -5.5zM885 631v-83h-68v-548h-114v90q-12 -12 -39 -12h-106q-60 0 -88 24t-28 76v123q0 47 42 50v4q-42 5 -42 51v114q0 19 9 28h-100v-370q0 -53 -27 -76.5t-88 -23.5h-89q-61 0 -88 23.5t-27 76.5v173q0 50 29.5 72.5t93.5 22.5h82v102h-257v83h905z
" />
    <glyph glyph-name="uni0917094D091C" horiz-adv-x="986" 
d="M174 161h35q16 0 22 5.5t6 22.5v174h-61q-20 0 -25.5 -5.5t-5.5 -25.5v-143q0 -17 6.5 -22.5t22.5 -5.5zM1010 631v-83h-69v-548h-113v397h-80v-219q0 -53 -26.5 -76.5t-88.5 -23.5h-80q-62 0 -88.5 23.5t-26.5 76.5v301h113v-290q0 -17 6 -22.5t23 -5.5h27q16 0 22 5.5
t6 22.5v290h193v69h-477v-370q0 -53 -27 -76.5t-88 -23.5h-89q-61 0 -88 23.5t-27 76.5v173q0 50 29.5 72.5t93.5 22.5h82v102h-257v83h1030z" />
    <glyph glyph-name="uni0917094D0923" horiz-adv-x="991" 
d="M632 189v359h-84v-359q0 -17 6 -22.5t23 -5.5h27q16 0 22 5.5t6 22.5zM174 161h35q16 0 22 5.5t6 22.5v174h-61q-20 0 -25.5 -5.5t-5.5 -25.5v-143q0 -17 6.5 -22.5t22.5 -5.5zM1011 631v-83h-68v-548h-114v548h-84v-370q0 -53 -26.5 -76.5t-88.5 -23.5h-80
q-62 0 -88.5 23.5t-26.5 76.5v370h-84v-370q0 -53 -27 -76.5t-88 -23.5h-89q-61 0 -88 23.5t-27 76.5v173q0 50 29.5 72.5t93.5 22.5h82v102h-257v83h1031z" />
    </font>
</defs>
</svg>
