<?xml version="1.0" standalone="no"?>
<!DOCTYPE svg PUBLIC "-//W3C//DTD SVG 1.1//EN" "http://www.w3.org/Graphics/SVG/1.1/DTD/svg11.dtd" >
<svg xmlns="http://www.w3.org/2000/svg" xmlns:xlink="http://www.w3.org/1999/xlink" version="1.1">
<metadata>
Created by FontForge 20170731 at Wed Jan 31 01:11:33 2018
 By Aleksey,,,
Typeface (c) (Jaime Rangel Castro). 2018. All Rights Reserved
</metadata>
<defs>
<font id="StarStrella" horiz-adv-x="921" >
  <font-face 
    font-family="Star Strella"
    font-weight="400"
    font-stretch="normal"
    units-per-em="1800"
    panose-1="2 0 5 0 0 0 0 0 0 0"
    ascent="1440"
    descent="-360"
    x-height="672"
    cap-height="1431"
    bbox="-534.409 -740.365 2078.86 1586.88"
    underline-thickness="150"
    underline-position="-442"
    unicode-range="U+001D-007A"
  />
<missing-glyph horiz-adv-x="1024" 
d="M13 -21v1466h994v-1466h-994zM111 61h798v1302h-798v-1302zM913 132l-184 2l1 125q-35 -67 -139 -112.5t-192.5 3t-119.5 103.5l2 -126l-182 -6l86 701l162 -1q-25 -351 61 -513t179 -0.5t96 508.5l160 2zM742 1017.5q29 -31.5 29 -73.5t-29 -74t-74 -32q-44 0 -73.5 32
t-29.5 74t29.5 73.5t73.5 31.5q45 0 74 -31.5zM429 1017.5q29 -31.5 29 -73.5t-29 -74t-74 -32q-44 0 -73.5 32t-29.5 74t29.5 73.5t73.5 31.5q45 0 74 -31.5zM506 1020l-110 26l-53 149l-53 -134l-115 -51l142 344l60 -25zM846 1020l-110 26l-53 149l-53 -134l-115 -51
l142 344l60 -25zM298 248l75 -19l16 -44l14 36l81 36l-78 -187l-41 18zM518 248l75 -19l16 -44l14 36l81 36l-78 -187l-41 18zM425 915l75 -16l16 -41l12 34l79 36l-72 -185l-42 18z" />
    <glyph glyph-name=".notdef" horiz-adv-x="1024" 
d="M13 -21v1466h994v-1466h-994zM111 61h798v1302h-798v-1302zM913 132l-184 2l1 125q-35 -67 -139 -112.5t-192.5 3t-119.5 103.5l2 -126l-182 -6l86 701l162 -1q-25 -351 61 -513t179 -0.5t96 508.5l160 2zM742 1017.5q29 -31.5 29 -73.5t-29 -74t-74 -32q-44 0 -73.5 32
t-29.5 74t29.5 73.5t73.5 31.5q45 0 74 -31.5zM429 1017.5q29 -31.5 29 -73.5t-29 -74t-74 -32q-44 0 -73.5 32t-29.5 74t29.5 73.5t73.5 31.5q45 0 74 -31.5zM506 1020l-110 26l-53 149l-53 -134l-115 -51l142 344l60 -25zM846 1020l-110 26l-53 149l-53 -134l-115 -51
l142 344l60 -25zM298 248l75 -19l16 -44l14 36l81 36l-78 -187l-41 18zM518 248l75 -19l16 -44l14 36l81 36l-78 -187l-41 18zM425 915l75 -16l16 -41l12 34l79 36l-72 -185l-42 18z" />
    <glyph glyph-name=".null" horiz-adv-x="0" 
 />
    <glyph glyph-name=".null" horiz-adv-x="0" 
 />
    <glyph glyph-name="nonmarkingreturn" horiz-adv-x="600" 
 />
    <glyph glyph-name="space" unicode=" " horiz-adv-x="508" 
 />
    <glyph glyph-name="space" unicode="&#xa0;" horiz-adv-x="508" 
 />
    <glyph glyph-name="comma" unicode="," horiz-adv-x="301" 
d="M150 -96q-4 -2 -8 -3q-57 -19 -88 22t-10 95t83 55.5t90 -37t26 -87.5t-26 -92t-88 -109q-53 -13 -58 17.5t18 57t48 59.5q8 11 13 22z" />
    <glyph glyph-name="hyphen" unicode="-" horiz-adv-x="472" 
d="M162 1079l-143 -15q-152 -2 -245.5 26t-142.5 95.5t-28 157t120 58.5q-76 -117 -8.5 -181.5t167 -71t170.5 -2.5l112 12q40 5 90 13q152 22 281.5 -18t166 -146t-51.5 -124q-18 278 -488 196zM194 219q-9 -265 2 -304q-3 -91 25 -73t102 176.5t175 401.5q63 8 75 -34
q-118 -324 -217.5 -481.5t-190.5 -147.5q-78 8 -107 84t-46 315q-16 204 19.5 651.5t43.5 596.5q115 117 194 -1q-78 -950 -75 -1184z" />
    <glyph glyph-name="hyphen" unicode="&#xad;" horiz-adv-x="472" 
d="M162 1079l-143 -15q-152 -2 -245.5 26t-142.5 95.5t-28 157t120 58.5q-76 -117 -8.5 -181.5t167 -71t170.5 -2.5l112 12q40 5 90 13q152 22 281.5 -18t166 -146t-51.5 -124q-18 278 -488 196zM194 219q-9 -265 2 -304q-3 -91 25 -73t102 176.5t175 401.5q63 8 75 -34
q-118 -324 -217.5 -481.5t-190.5 -147.5q-78 8 -107 84t-46 315q-16 204 19.5 651.5t43.5 596.5q115 117 194 -1q-78 -950 -75 -1184z" />
    <glyph glyph-name="period" unicode="." horiz-adv-x="301" 
d="M204 66.5q30 -20.5 36 -55.5q6 -36 -15 -65.5t-58 -39.5q-40 -6 -71 15t-36 57q-6 33 15 63.5t58 38.5q41 7 71 -13.5z" />
    <glyph glyph-name="zero" unicode="0" horiz-adv-x="1054" 
d="M682.5 1347q-88.5 95 -166 -4t-113.5 -399.5t-24.5 -574.5t64 -396.5t204 -11t194 408.5t25 487.5t-56 292.5t-127 197zM389 1480q230 64 382 -41t216 -450q57 -362 -25.5 -721.5t-322.5 -442.5q-263 -83 -441 132q-237 385 -97 1131q87 315 288 392z" />
    <glyph glyph-name="one" unicode="1" horiz-adv-x="757" 
d="M516 -88l136 -10q101 -41 24 -100l-532 2q-53 45 7 98l170 17q-12 588 5 1241q-4 100 8 157l-161 -87l-98 -80q-92 24 -66 94q37 38 144 105t175.5 118t199.5 24q45 -787 -12 -1579z" />
    <glyph glyph-name="two" unicode="2" horiz-adv-x="961" 
d="M311 -65q198 4 545 2q80 -84 -5 -128q-357 0 -667 -1q-63 -2 -89 36t-25 167q3 193 221.5 369t320.5 396.5t39 391t-149.5 201t-166 2.5t-125.5 -97.5t-39 -210.5q-82 -52 -122 15q7 165 52.5 244.5t153 139.5t311.5 27t285 -201q231 -381 -248 -892
q-238 -188 -273 -279.5t-19 -181.5z" />
    <glyph glyph-name="three" unicode="3" horiz-adv-x="979" 
d="M64 1386q190 93 383 107t310 -88.5t115 -282.5t-144 -358q139 -87 185 -293q52 -284 -114.5 -497t-587.5 -153q-112 20 -182 95.5t52 97.5q168 -125 356.5 -82t226.5 295.5t-97.5 346.5t-221 100t-144.5 1t-63.5 37.5t88.5 47.5q188 -29 313 138t81 307t-146 155.5
t-187 -6.5t-169 -72q-107 36 -54 104z" />
    <glyph glyph-name="four" unicode="4" horiz-adv-x="982" 
d="M471 523q110 25 179 180q0 371 14 741q101 104 227 -5q-13 -401 2.5 -850.5t33.5 -773.5q-216 -68 -238 117q-20 200 -27 498l-5 76q-44 -50 -120 -74.5t-197.5 -13.5t-208 67.5t-116.5 175.5q-21 287 216 821q88 49 119 -35q-111 -498 -132 -638.5t61 -225.5t192 -60z
" />
    <glyph glyph-name="five" unicode="5" horiz-adv-x="961" 
d="M236 -45.5q92 -82.5 200 -55t169.5 217t44.5 315t-96.5 202.5t-322.5 77q-170 -27 -190 85q7 476 44 698q605 -6 716 1q63 -71 15 -122q-65 -9 -235 -7l-361 -6q-3 -216 -42 -526q220 20 409 -13.5t275 -244t24.5 -446t-269 -303t-375.5 5.5t-198 336q15 91 67 22
q33 -154 125 -236.5z" />
    <glyph glyph-name="six" unicode="6" horiz-adv-x="982" 
d="M660 350q23 261 -50 347t-225.5 1t-135 -331.5t99 -395.5t185 -15.5t126.5 394.5zM585.5 1362.5q-68.5 18.5 -141.5 0t-105 -64t-55 -144t-37 -456.5q101 166 365.5 126.5t310.5 -260t-56 -460.5t-307.5 -287.5t-353.5 56t-158 457.5t12 658q30 320 174 426t316.5 81
t248.5 -120.5t89 -215.5q-50 -75 -99 -26q-54 123 -94.5 167t-109 62.5z" />
    <glyph glyph-name="seven" unicode="7" horiz-adv-x="985" 
d="M498 1286h-12h12zM15 1352q39 137 181 139q245 25 542 -18h11q248 -16 194 -233q-163 -488 -320 -1413q-200 -68 -204 100q130 832 313 1419q-309 44 -459.5 38t-153.5 -79t41 -201q-20 -65 -86 -45q-82 149 -59 293z" />
    <glyph glyph-name="eight" unicode="8" horiz-adv-x="910" 
d="M425 588q-207 -151 -237 -386q12 -204 112.5 -273.5t232.5 12.5t111 267q-21 166 -95.5 262.5t-123.5 117.5zM491 727q117 97 172 209t31.5 236t-125 194.5t-184 -2t-108.5 -198.5t32 -221t101 -139.5t81 -78.5zM551 678q47 -35 105 -89t139 -180q83 -153 71 -304
t-136 -237q-108 -69 -276 -66q-158 10 -260 94q-123 95 -140.5 248.5t59.5 266.5q63 100 247 223q-58 33 -114 81q-72 62 -137.5 165.5t-58 259.5t122 262.5t287.5 96.5t271 -128.5t98 -260t-62 -244.5q-56 -90 -216 -188z" />
    <glyph glyph-name="nine" unicode="9" horiz-adv-x="954" 
d="M292 952.5q-23 -260.5 50.5 -346t226 -1t134.5 331t-99 394.5t-185 15t-127 -393.5zM367.5 -58.5q67.5 -18.5 140.5 0t105 64t55 144t37 456.5q-100 -167 -365.5 -128t-309.5 260t57 460.5t306 286.5t352.5 -56.5t158.5 -456.5t-12 -656q-30 -321 -173.5 -426.5t-316 -80
t-248.5 120.5t-86 213q47 77 96 28q54 -124 95 -167.5t108.5 -62z" />
    <glyph glyph-name="colon" unicode=":" horiz-adv-x="291" 
d="M210 56.5q30 -20.5 36 -55.5q6 -36 -15 -65.5t-58 -39.5q-40 -6 -71 15t-36 57q-6 33 15 63.5t58 38.5q41 7 71 -13.5zM201 559.5q30 -20.5 36 -55.5q6 -36 -15 -65.5t-58 -39.5q-40 -6 -71 15t-36 57q-6 33 15 63.5t58 38.5q41 7 71 -13.5z" />
    <glyph glyph-name="semicolon" unicode=";" horiz-adv-x="301" 
d="M155 -106q-4 -2 -8 -3q-57 -19 -88 22t-10 95t83 55.5t90 -37t26 -87.5t-26 -92t-88 -109q-53 -13 -58 17.5t18 57t48 59.5q8 11 13 22zM207 557.5q30 -20.5 36 -55.5q6 -36 -15 -65.5t-58 -39.5q-40 -6 -71 15t-36 57q-6 33 15 63.5t58 38.5q41 7 71 -13.5z" />
    <glyph glyph-name="semicolon" unicode="&#x37e;" horiz-adv-x="301" 
d="M155 -106q-4 -2 -8 -3q-57 -19 -88 22t-10 95t83 55.5t90 -37t26 -87.5t-26 -92t-88 -109q-53 -13 -58 17.5t18 57t48 59.5q8 11 13 22zM207 557.5q30 -20.5 36 -55.5q6 -36 -15 -65.5t-58 -39.5q-40 -6 -71 15t-36 57q-6 33 15 63.5t58 38.5q41 7 71 -13.5z" />
    <glyph glyph-name="A" unicode="A" horiz-adv-x="804" 
d="M530 573q-42 403 -84 732q-70 -369 -110 -711q100 -33 194 -21zM238 1153l26 300q147 82 305 -29q4 -174 19.5 -330.5t61 -554t118.5 -681.5q-39 -73 -84 -41.5t-67 189t-72 469.5q-104 4 -220 23q-24 -159 -44 -315.5t-51.5 -264t-71.5 -123t-92 18t-31 123.5
t43.5 205.5t65.5 380.5q67 400 94 630z" />
    <glyph glyph-name="B" unicode="B" horiz-adv-x="978" 
d="M291 443l5 -551q327 -32 492 118q162 147 -497 433zM822 1211q113 -129 47 -360q-184 -282 -440 -378q272 -35 419 -213.5t-16 -317t-453.5 -156t-256.5 92.5q-26 352 -26.5 636.5t23.5 687.5q106 70 168 -16q9 -386 -9 -661q363 190 390 347q29 159 -63 260l2 2
q-100 114 -239 186q-176 90 -133 14t-28.5 -75.5t-101.5 123t281 72.5q280 -46 436 -244z" />
    <glyph glyph-name="C" unicode="C" horiz-adv-x="967" 
d="M822.5 1225q-2.5 -82 -52 -110.5t-97.5 7t16.5 80.5t36 79.5t-125 69t-204.5 -155.5q-138 -278 -147 -562t32 -474.5t197 -226t242 54.5t119 282q65 43 82.5 -9t-25 -187.5t-180 -210.5t-337.5 -44q-162 44 -260.5 233t-100.5 531.5t105 637.5q105 240 281 264
q191 37 306 -70t112.5 -189z" />
    <glyph glyph-name="D" unicode="D" horiz-adv-x="1029" 
d="M631 1070q-116 155 -293.5 242t-132.5 11.5t-26.5 -76t-104 121t279.5 77.5q309 -44 470 -275q148 -224 147 -549q-4 -236 -86.5 -418t-219 -279t-256 -118t-225.5 -21t-83 176q-11 491 -8 731t7 491q51 75 147 2l22 -430l-2 -853q182 -51 336.5 75.5t192 303.5t-6.5 407
q-44 226 -158 381z" />
    <glyph glyph-name="E" unicode="E" horiz-adv-x="882" 
d="M119 1397q-9 85 289 75.5t392 -26t8 -77.5q-290 31 -508 -12q3 -162 -5 -543v-95q300 -11 359 -17.5t48 -49t-67 -39t-341 4.5l-7 -674l290 -12q186 16 237.5 1t15.5 -54t-265.5 -40.5t-346 4.5t-104.5 239l-12 606q2 321 2 443t15 266z" />
    <glyph glyph-name="F" unicode="F" horiz-adv-x="865" 
d="M117 1396q-12 80 287.5 74t393.5 -22.5t8 -98.5q-289 31 -507 -12q2 -142 -5 -523v-95q280 -2 339.5 -7.5t48.5 -48.5t-67.5 -39t-320.5 -7l16 -772q-119 -78 -197 17l2 221l-13 606q1 320 1 442t14 265z" />
    <glyph glyph-name="G" unicode="G" horiz-adv-x="983" 
d="M590 1348q-97 34 -215 -149q-126 -284 -147.5 -559t37 -498.5t209 -265t240.5 212t99 423.5q-6 65 -121 76q-160 14 -57 -114q43 -84 -33.5 -81t-104.5 135t155.5 134.5t227.5 -80.5q25 -49 25.5 -76.5t-4.5 -65.5q-4 -120 -62.5 -302.5t-164.5 -267t-305 -52.5
q-183 33 -271 227.5t-89.5 536.5t103.5 636q105 239 281 264q191 37 305 -71q111 -105 109 -186q-3 -82 -52.5 -110.5t-97.5 7t16.5 80.5t36.5 80q-27 33 -120 66z" />
    <glyph glyph-name="H" unicode="H" horiz-adv-x="1006" 
d="M294 593l9 -784q-119 -49 -196 45l3 231l-8 606q4 320 5 442.5t8 296.5q97 123 194 -4q-3 -214 -14 -728q314 -7 414 -12q9 0 17 -1v11q4 320 5 442t7 297q97 123 194 -4q-3 -230 -16 -808l11 -809q-120 -50 -196 45l2 231l-6 499q-18 -2 -42 -1q-96 4 -391 5z" />
    <glyph glyph-name="I" unicode="I" horiz-adv-x="401" 
d="M147 1431q75 107 194 -7q-27 -230 -49 -807l-2 -809q-121 -48 -196 48l6 231l3 606q9 320 12 442t32 296z" />
    <glyph glyph-name="J" unicode="J" horiz-adv-x="740" 
d="M650 1441q10 -308 21.5 -666t-14.5 -663.5t-295.5 -311t-368.5 161.5q-80 144 -53.5 174t75.5 -19q37 -115 115.5 -179.5t200.5 -51.5t119 418.5t13 1138.5q62 95 187 -2z" />
    <glyph glyph-name="K" unicode="K" horiz-adv-x="950" 
d="M308 609l-16 -784q-89 -37 -193 9q-8 314 -2 611t11 448.5t17 573.5q65 77 201 -13l-12 -558l-2 -97l-2 -116l156 300q182 326 245 439.5t105 76.5t3 -121.5t-92 -172.5t-328 -554l375 -543q100 -140 167 -238q25 -120 -103 -42q-131 205 -530 781z" />
    <glyph glyph-name="L" unicode="L" 
d="M105 1434q90 98 189 -3q3 -299 -10 -813l-5 -694l290 -12q248 16 293 1t15 -54t-290.5 -40.5t-376 4.5t-107.5 260q-17 585 -13.5 828.5t15.5 522.5z" />
    <glyph glyph-name="M" unicode="M" horiz-adv-x="1199" 
d="M308 1227q21 -664 -7 -1414q-106 -57 -197 19q-13 550 -11.5 881t5.5 753q57 77 210 -7l296 -960q132 520 204.5 694.5t129 267t135.5 16.5q58 -48 45 -126l14 -1244q4 -161 3 -273q-56 -75 -127 17q14 218 -9 1277q-164 -578 -277 -788q-71 -103 -130 -36
q-117 231 -284 923z" />
    <glyph glyph-name="N" unicode="N" horiz-adv-x="1097" 
d="M315 1164q23 -601 -5 -1351q-106 -57 -197 19q-13 550 -11.5 881t5.5 753q57 77 178 -12l559 -1294q3 452 23 1307q112 75 207 -28l-25 -421q-8 -490 -79 -1163q-72 -103 -131 -36q-344 948 -524 1345z" />
    <glyph glyph-name="O" unicode="O" horiz-adv-x="1170" 
d="M981 483q33 224 -4 418q-23 181 -120 313.5t-210 151.5t-275 -220q-111 -265 -127.5 -544t29.5 -503t218 -213t273 105t145 202.5t71 289.5zM1062 340q-30 -160 -109.5 -284t-211.5 -196.5t-332 -41.5q-183 33 -291 227.5t-110 537t130 647.5q120 230 296 254
q191 37 348.5 -78t237.5 -309.5t77 -397.5t-35 -359z" />
    <glyph glyph-name="P" unicode="P" 
d="M587 1135q-99 114 -239 186q-176 90 -132.5 14t-28 -75t-102 123t281 71.5t458.5 -289.5q83 -158 -1 -362q-159 -234 -431 -326l-111 -30q1 -288 -24 -593q-50 -137 -156 -5q-13 371 -11 681t8 673q106 70 169 -16q16 -312 1 -513l1 -153q351 195 378 352q29 159 -63 260
z" />
    <glyph glyph-name="Q" unicode="Q" horiz-adv-x="1176" 
d="M981 483q33 224 -4 418q-23 181 -120 313.5t-210 151.5t-275 -220q-111 -265 -127.5 -544t29.5 -503t218 -213t273 105t145 202.5t71 289.5zM1062 340q-30 -160 -109.5 -284t-211.5 -196.5t-332 -41.5q-183 33 -291 227.5t-110 537t130 647.5q120 230 296 254
q191 37 348.5 -78t237.5 -309.5t77 -397.5t-35 -359zM646.5 266.5q-35.5 -4.5 -62 10.5t10 48.5t108.5 29.5t109.5 -52t66.5 -114.5t104.5 -184t201.5 -166.5q-31 -57 -106 -22q-97 57 -158 136.5t-101 149t-54.5 89.5t-49 50t-70 25.5z" />
    <glyph glyph-name="R" unicode="R" horiz-adv-x="1000" 
d="M531 526q227 -345 289.5 -439.5t125 -158t27 -112.5t-94 20.5t-146.5 183.5t-321 458l-128 -24q9 -293 -13 -598q-52 -137 -156 -4q-8 388 -15.5 689.5t26.5 664.5q107 69 168 -17q-6 -347 -9 -651q109 21 197 66l2 4l1 -2q166 88 198 265q20 158 -71 261l2 2
q-99 114 -238 188q-175 92 -132.5 15t-29 -75t-100.5 124.5t282 68.5t455 -294q82 -159 -29 -385q-105 -160 -290 -250z" />
    <glyph glyph-name="S" unicode="S" horiz-adv-x="837" 
d="M272 1335q-106 -85 -59.5 -291t361.5 -493q272 -263 220 -493q-39 -187 -200.5 -236t-298.5 -13.5t-236 134.5q-70 98 39 113q93 -104 203.5 -147t236 -4t94.5 178t-293 388q-207 236 -282 366.5t-41.5 308.5t199.5 287q98 54 203 65.5t187 -49.5q73 -64 70 -151
t-55 -117t-103.5 7.5t17.5 85.5t38 84q-28 36 -111 49t-189 -72z" />
    <glyph glyph-name="T" unicode="T" horiz-adv-x="837" 
d="M477 1376q7 -181 -2 -411.5t-17 -1131.5q-118 -68 -194 28q-1 651 8.5 904t12.5 375q3 108 5 238q-8 1 -16 1l-275 36q-111 108 195 71q477 -13 551.5 -23.5t-7.5 -92.5q-104 3 -261 6z" />
    <glyph glyph-name="U" unicode="U" horiz-adv-x="1029" 
d="M970 1440q-5 -1041 -54 -1254.5t-151 -304t-241 -78.5q-216 31 -301 221t-110.5 531t-7.5 854q104 163 255 -8q-48 -501 -37.5 -797t93.5 -529t187.5 -202t171 258t72.5 1297q40 138 123 12z" />
    <glyph glyph-name="V" unicode="V" horiz-adv-x="939" 
d="M879 1457q-140 -1082 -202 -1327.5t-151 -316t-215 15.5q-88 93 -136.5 271t-92.5 501t-76 863q124 75 253 -18q-1 -531 33.5 -808.5t76 -512t88 -231.5t106.5 225.5t192 1333.5q71 60 124 4z" />
    <glyph glyph-name="W" unicode="W" horiz-adv-x="1199" 
d="M903 72q-17 664 52 1413q107 57 197 -20q-11 -550 -22 -880.5t-17 -752.5q-57 -77 -210 8l-306 852q-121 -410 -194.5 -584.5t-130.5 -266.5t-135 -16q-58 49 -45 127q-34 785 -29.5 1094.5t14.5 421.5q58 74 117 -18q-14 -218 8 -1276q163 468 278 677q71 103 130 36
q120 -265 293 -815z" />
    <glyph glyph-name="X" unicode="X" horiz-adv-x="842" 
d="M610 1463q53 67 115 11q-122 -365 -264 -730q189 -531 313 -865q-4 -135 -146 -88l-251 715l-215 -640q-29 -115 -135 -46q131 412 282 823q-176 420 -289 798q22 138 140 20q121 -256 231 -607z" />
    <glyph glyph-name="Y" unicode="Y" horiz-adv-x="734" 
d="M405 765q76 517 120 706q93 118 150 -20q-45 -361 -101 -798l-16 -137l-103 -715q-137 -47 -175 88q47 334 98 691q-223 452 -426 904q67 56 118 -11q178 -354 335 -708z" />
    <glyph glyph-name="Z" unicode="Z" 
d="M10 1370q-39 72 37 91l784 30q119 -26 44 -192q-134 -291 -247 -558t-383 -847l658 10q39 -72 -36 -92l-795 -20q-50 64 -24 142q147 315 342 765.5t320 700.5z" />
    <glyph glyph-name="bracketright" unicode="]" horiz-adv-x="2103" 
d="M1476 627l38 -129l56 31l-90 99zM1716 515l60 -40l42 104zM1541 417l43 -109l117 -4q17 37 39 88v3l-104 72zM1467 378l-116 -57l141 -11zM1786 300l163 -9l-132 61l-4 -1zM1606 223l22 -88l37 86zM1229 352q76 36 209 111q-42 113 -55 237q-7 59 62 47q124 -75 210 -169
q105 53 207 124q71 16 67 -45q-37 -140 -83 -226l208 -117q59 -57 -22 -85q-174 -11 -279 -9q-47 -105 -104 -203q-44 -49 -71 18l-65 195q-150 11 -276 30q-81 -27 -153 -58t-151.5 -66t-203.5 -77q-103 -29 -168.5 -38t-122 -4.5t-105 24.5t-101 66.5t-123.5 155.5
l-67 112q-8 0 -24 12q-21 14 -24 39q-5 23 10 44t42 27q29 4 50 -10.5t25 -38.5q4 -20 -2 -31q106 -189 159 -240q52 -51 103 -69t100.5 -16t99.5 10t134 34.5t177 67t177 76.5t160 72z" />
    <glyph glyph-name="underscore" unicode="_" 
d="M594 521q55 335 78.5 480.5t25 286.5t-35.5 5.5t-46 -298.5q-27 -188 -22 -474zM611 228q-20 -138 2.5 -288.5t78.5 -80t115 200.5t143 338q58 3 68 -32q-99 -285 -181 -438t-173.5 -143.5t-148 206.5t-77.5 376q-38 372 -33.5 528.5t25 297t70.5 260.5q138 69 277 -46
q44 -221 -31 -583zM158 629q55 335 78 480.5t25 286.5t-35.5 5.5t-45.5 -298.5q-27 -188 -22 -474zM175 336q-20 -138 2.5 -288.5t78.5 -80t107 198t131 368.5q50 37 68 -32q-90 -324 -167 -471.5t-168 -138t-148 206.5t-78 376q-37 372 -32.5 528.5t25 297t69.5 260.5
q138 69 277 -46q45 -221 -31 -583z" />
    <glyph glyph-name="a" unicode="a" horiz-adv-x="783" 
d="M278 641q-56 -121 -96 -305q-20 -157 -5 -194t61.5 27.5t70 207.5t24.5 264t-55 0zM482 690q7 -23 12 -66q26 -236 36.5 -335t24.5 -232.5t96 36.5t151 335q74 38 83 -38q-201 -448 -325 -483q-109 -31 -155 429q-49 -194 -139 -304q-78 -63 -162 -14t-109 188
q-27 239 89 469l68 101q131 78 266 5q53 -25 64 -91z" />
    <glyph glyph-name="b" unicode="b" horiz-adv-x="684" 
d="M370 339q27 136 2 171q-38 30 -48 -9q-11 -59 46 -162zM154 521q55 335 78.5 480.5t25 286.5t-35.5 5.5t-46 -298.5q-27 -188 -22 -474zM264 573q100 88 205 9q117 -106 71 -373q108 -23 181 244q57 23 82 -25q-83 -335 -283 -291q-62 -182 -137 -270.5t-165 -55.5
q-93 33 -146 205t-74 351q-38 372 -33.5 528.5t25 297t70.5 260.5q138 69 277 -46q44 -221 -31 -583zM353 247q-84 79 -110 220l-72 -239q-20 -138 13 -230.5t69.5 -37t99.5 286.5z" />
    <glyph glyph-name="c" unicode="c" horiz-adv-x="701" 
d="M590 694q-1 -54 -49 -72.5t-79 -2t-6 42.5t15.5 40t-49.5 14t-112 -67q-104 -124 -127.5 -231t1 -212.5t100 -132.5t179 35.5t163.5 140.5t108 142q49 48 60 -4t-116.5 -197.5t-238.5 -182t-229 -16.5q-120 24 -179 135.5t-39 257t113 282.5q87 111 211 132
q119 20 197 -15t77 -89z" />
    <glyph glyph-name="d" unicode="d" horiz-adv-x="786" 
d="M217.5 474q-45.5 -121 -69.5 -305q-7 -157 11.5 -194t59 27.5t52 207.5t2 264t-55 0zM482 522q55 335 78.5 480.5t25 286.5t-35.5 5.5t-46 -298.5q-27 -188 -22 -474zM372 171q-21 -181 -113 -306q-74 -63 -161.5 -14t-121.5 187q-40 261 12 407t92 164q122 31 227 -34
q-17 213 -14 322q4 156 24.5 296.5t70.5 260.5q138 69 277 -46q44 -221 -31 -583l-135 -596q-20 -138 2.5 -288.5t78.5 -80t107.5 198t131.5 368.5q56 3 67 -32q-89 -324 -166 -471.5t-168.5 -138t-148.5 206.5q-31 109 -31 179z" />
    <glyph glyph-name="e" unicode="e" horiz-adv-x="500" 
d="M128 750q177 53 264 -79q-22 -143 -111.5 -261t-156.5 -153q29 -187 80 -220.5t122 23.5t207 355q83 18 74 -45q-162 -345 -282.5 -384t-224.5 23.5t-132 238t41 319.5q31 77 119 183zM117 335q75 67 133 165t42.5 146t-58.5 -24.5t-70 -141.5t-47 -145z" />
    <glyph glyph-name="f" unicode="f" horiz-adv-x="455" 
d="M21 610q4 116 9 171t19.5 176t44 267t71.5 229l4 2l2 4q114 59 202 6.5t147 -214.5q12 -49 -22.5 -42.5t-54.5 56.5q-34 72 -54 96t-36 11q-14 -18 -31 -64t-38 -130.5t-40 -205t-24 -188t-8 -183.5q1 -1 2 -1q91 -73 168 -10q83 45 58 -13t-99 -81q-62 -20 -132 14
q-22 -711 -8 -918q-72 -55 -166 -7q-29 293 -26.5 459.5t7.5 476.5q-64 -28 -74.5 0t10.5 50t69 39z" />
    <glyph glyph-name="g" unicode="g" horiz-adv-x="615" 
d="M343 -44q-269 -208 -331.5 -277.5t-85.5 -137t-0.5 -115t108.5 15.5t152 166t157 348zM278 641q-56 -121 -96 -305q-20 -157 -5 -194t61.5 27.5t70 207.5t24.5 264t-55 0zM494 561q-4 -163 -32 -416q124 141 197 289q49 11 18 -91q-94 -170 -210 -313l-7 -80
q-51 -456 -257 -631q-134 -87 -227 -46.5t-131 138.5t12 206t212 237l297 215l39 265q-49 -193 -139 -302q-78 -63 -162 -14t-109 188q-17 228 45.5 370t132.5 217q110 51 245 -12q91 -59 76 -220z" />
    <glyph glyph-name="h" unicode="h" horiz-adv-x="633" 
d="M141 785q60 129 77 194.5t29 160t12 193.5t-29 -16t-59 -251q-24 -135 -30 -281zM116 212q73 315 119 346.5t151.5 -13.5t111 -224t-21 -355.5t37 -26t148.5 467.5q30 38 72 -22q-72 -355 -170.5 -524.5t-149 -123t-68 255.5t-49 418.5t-76 56.5t-55.5 -329l-7 -286
q-91 -73 -109 121q-13 155 -28 245q-4 59 -22 198q-49 372 -36 544t33 294t65 210q151 71 280 -55q35 -226 -18 -443q-61 -228 -176 -319q-10 -296 -32 -436z" />
    <glyph glyph-name="i" unicode="i" horiz-adv-x="328" 
d="M433 392q-89 -180 -163.5 -319.5t-144 -167t-113 54.5t-52 256.5t13.5 445.5q123 64 194 -4q-31 -222 -49.5 -355t-30 -273t58 -14.5t202.5 418.5q62 22 84 -42zM131 873.5q27 -17.5 38 -49.5q9 -32 -5 -57.5t-44 -32.5q-33 -7 -60 11t-38 50q-7 30 7 56t45 32
q30 8 57 -9.5z" />
    <glyph glyph-name="j" unicode="j" horiz-adv-x="299" 
d="M150.5 873.5q25.5 -17.5 33.5 -49.5q6 -32 -10 -57.5t-47 -32.5q-33 -7 -58.5 11t-33.5 50q-5 30 11.5 56t47.5 32q31 8 56.5 -9.5zM-20 -45q-269 -207 -331.5 -276.5t-85.5 -137t-0.5 -115t108.5 15.5t165 177t144 336zM148 654q-21 -256 -34 -454q119 86 230 266
q48 11 65 -59q-179 -234 -305 -377l-7 -80q-51 -456 -257 -631q-134 -87 -227 -46.5t-131 138.5t12 206t212 237l286 226l55 586q54 37 101 -12z" />
    <glyph glyph-name="k" unicode="k" horiz-adv-x="701" 
d="M142 790q60 129 76.5 194.5t29 160t12 193.5t-29.5 -16t-59 -251q-24 -135 -29 -281zM166 140l-8 -282q-90 -73 -107 121q-14 155 -30 245q-3 59 -21 198q-49 372 -36.5 544t33 294t65.5 210q150 71 280 -55q36 -226 -17 -443q-61 -228 -176 -319q-7 -217 -10 -296
q51 170 128 202q77 31 212.5 -39t-117.5 -361q146 -653 372 257q62 10 67 -61q-105 -342 -186 -496.5t-167.5 -128t-209.5 430.5q136 503 37.5 328.5t-109.5 -350.5v1z" />
    <glyph glyph-name="l" unicode="l" horiz-adv-x="461" 
d="M154 521q55 335 78.5 480.5t25 286.5t-35.5 5.5t-46 -298.5q-27 -188 -22 -474zM171 228q-20 -138 2.5 -288.5t78.5 -80t107.5 198t131.5 368.5q70 54 68 -32q-90 -324 -167 -471.5t-168.5 -138t-148 206.5t-77.5 376q-38 372 -33.5 528.5t25 297t70.5 260.5
q138 69 277 -46q44 -221 -31 -583z" />
    <glyph glyph-name="m" unicode="m" horiz-adv-x="962" 
d="M459 48q-11 -88 -88.5 -75.5t-78.5 156t4.5 341t-32 53t-81.5 -320.5l-21 -288q-180 -61 -162 117q5 156 3.5 245.5t-8.5 357.5q177 37 141 -343q66 324 127 346.5t129 -26.5q59 -44 48 -341q100 369 134 393q47 32 151 -18t109 -221.5t-59 -404.5t60 59l152 368
q52 11 55 -71q-100 -257 -216 -472.5t-174 -142.5q-45 76 -26 335q22 212 7.5 405t-52.5 60q-40 -117 -70 -257.5t-52 -254.5z" />
    <glyph glyph-name="n" unicode="n" horiz-adv-x="639" 
d="M-23 647q179 32 139 -344q52 296 121.5 327.5t175 -13.5t104.5 -216.5t-62.5 -428.5t210.5 456q52 10 59 -76q-109 -282 -209 -466t-155 -144t-46.5 286t-3.5 439.5t-59 72t-99 -328.5l-32 -286q-174 -56 -147 120q8 156 5 245.5t-1 356.5z" />
    <glyph glyph-name="o" unicode="o" horiz-adv-x="652" 
d="M433 319q17 107 -27 268t-70 86t-0.5 -170.5t97.5 -183.5zM397 224q-126 120 -171 357q-33 213 66 249.5t186 -93.5q89 -178 20 -480q30 -36 75.5 11.5t117.5 176.5q67 2 62 -38q-95 -181 -164 -217t-123 -11q-41 -108 -111 -164t-177 -31t-171 156q-72 176 47 601
q52 129 196 47q-95 -430 -94.5 -517.5t39 -160.5t110.5 -20.5t92 134.5z" />
    <glyph glyph-name="p" unicode="p" horiz-adv-x="652" 
d="M1149 -81zM180 230.5q75 37.5 131 110.5t67 158.5t-32.5 177.5t-96 58.5t-99 -178t-46 -254.5t75.5 -72.5zM355 173q225 29 323 238q63 34 68 -23q-74 -178 -233.5 -250.5t-341.5 2.5q80 -297 87 -474q-3 -170 -65 -280t-139 -60t-106 148t-17 273q11 173 44 490
q3 188 20 345l-9 289q53 46 111 -6l-13 -268q102 247 233 237t193 -174q41 -160 -13 -300t-142 -187zM130 77q-15 -145 -25 -271q-16 -191 -9.5 -334.5t50.5 -21.5t38 222q-1 198 -54 405z" />
    <glyph glyph-name="q" unicode="q" horiz-adv-x="799" 
d="M515 41q-16 -145 -25 -271q-16 -191 -9.5 -334.5t50.5 -21.5t38 222q-1 198 -54 405zM179 397q-21 -157 -5.5 -194t62 27.5t70 207.5t24.5 264t-55 0t-96 -305zM443.5 833q29.5 -45 68.5 -272l27 -316q20 -136 117.5 -41.5t161.5 280.5q74 38 83 -38q-183 -415 -343 -350
q78 -291 84 -466q-2 -170 -64 -280t-139 -60t-106 148t-17 273q11 173 70 490q2 73 3 142q-47 -154 -126 -250q-79 -63 -162.5 -14t-108.5 188q-28 239 88 469q60 135 125 149.5t137 3.5t101.5 -56z" />
    <glyph glyph-name="r" unicode="r" horiz-adv-x="612" 
d="M130 442q51 -34 170 49q72 41 126.5 26t48.5 -57.5t-46.5 -200.5t-88.5 -426t289 589q57 12 71 -48q-164 -388 -239 -520.5t-145 -151.5t-95.5 119.5t67.5 587.5q-66 -44 -140 -41.5t-129 28t-83 88t-10 129t57 100.5t108 25t86 -66.5t7 -108t-54 -121.5zM45 466
q43 110 22 183.5t-54 10.5t-27 -112.5t59 -81.5z" />
    <glyph glyph-name="s" unicode="s" horiz-adv-x="723" 
d="M397 88q-263 -169 -214 -192q71 -45 214 95q68 91 0 97zM474 223q162 65 269 244q54 22 58 -34q-81 -140 -237 -238q61 -44 24 -135q-51 -117 -267 -226q-227 -71 -232 72q14 98 233 209q-393 112 -336 323q78 160 211 214q166 77 224 7.5t-2.5 -156t-131.5 -111.5
t-118 30q164 44 206.5 151.5t-101 10t-150.5 -185.5q107 -120 350 -175z" />
    <glyph glyph-name="t" unicode="t" horiz-adv-x="472" 
d="M225 1092q-43 -640 -40 -874q-9 -265 2 -304q-3 -91 25 -73t102 176.5t175 401.5q63 8 75 -34q-118 -324 -217.5 -481.5t-190.5 -147.5q-78 8 -107 84t-46 315q-16 204 44 951q-271 20 -400 -50q-44 70 108 113q134 34 295 25q8 60 16 209q115 117 194 -1l-23 -214
q140 -18 275 -41.5t133 -91.5l-183 22q-166 14 -237 15z" />
    <glyph glyph-name="u" unicode="u" horiz-adv-x="745" 
d="M426 754q87 48 155 3q-41 -448 -32 -608t205 252q35 41 58 -39q-107 -278 -251.5 -370t-132.5 232q-99 -292 -230 -271.5t-171.5 120.5t-41 191t56.5 439q57 134 196 35q-71 -391 -70 -484.5t19 -174t78 -38.5q106 115 161 713z" />
    <glyph glyph-name="v" unicode="v" horiz-adv-x="682" 
d="M724 445q42 -9 37 -79q-195 -334 -331 -117q-24 -60 -88 -167q-147 -239 -248.5 -241t-130 105.5t-33 208t4.5 227t59 290.5q110 70 212 -42q-64 -247 -100 -441q-40 -366 102 -147q122 175 171 300q-77 193 -16 271.5t151.5 19t-28.5 -292.5q67 -221 238 105zM469 552
q-9 47 -34.5 20.5t0.5 -145.5q43 78 34 125z" />
    <glyph glyph-name="w" unicode="w" horiz-adv-x="1179" 
d="M916 548.5q-24 -27.5 6 -146.5q40 80 29 127t-35 19.5zM431 118q-2 -21 -7 -28q-94 -163 -221.5 -202.5t-161 66.5t-43 206.5t-5.5 227.5t40 265q97 110 231 21q-69 -271 -79 -411q-24 -444 149 -228q63 86 91 166q-1 63 1 134q4 127 46 293q107 75 213 -32
q-53 -250 -80 -446q-24 -368 108 -143q113 181 157 308q-84 190 -27 271t150 25.5t-16 -293.5q77 -219 232 115q43 -7 41 -77q-180 -343 -325 -132q-21 -61 -81 -171q-135 -246 -236 -252.5t-134 100t-43 207.5v10z" />
    <glyph glyph-name="x" unicode="x" horiz-adv-x="623" 
d="M7 384q-55 140 -5 253t163.5 143.5t183.5 -286.5l152 291q67 26 75 -31l-183 -336q80 -307 144.5 -281t134.5 283q81 11 58 -72q-113 -318 -238.5 -362t-213.5 242l-171 -323q-68 -4 -79 35l216 369q-89 372 -158 291q-56 -65 -52 -165q4 2 9 3q19 3 34 -7t19 -28
q5 -19 -5 -34.5t-28 -19.5q-19 -4 -35 7q-13 8 -21 28z" />
    <glyph glyph-name="y" unicode="y" horiz-adv-x="668" 
d="M345 -45q-269 -207 -331.5 -276.5t-85.5 -137t-0.5 -115t108.5 15.5t165 177t144 336zM392 447l27 304q54 37 100 -12q-27 -353 -44 -570q129 80 234 297q73 8 65 -59q-100 -208 -305 -377l-7 -80q-51 -456 -257 -631q-134 -87 -227 -46.5t-131 138.5t12 206t212 237
l286 226l10 101q-18 -41 -38 -74q-87 -132 -188.5 -114t-133 96.5t-31.5 169.5t37 498q107 43 179 -9q-20 -243 -44 -386t-17 -226t70 -52q125 59 191 363z" />
    <glyph glyph-name="z" unicode="z" horiz-adv-x="707" 
d="M380 -36q-269 -207 -331.5 -276.5t-86 -137t-1 -115t108.5 15.5t165.5 177t144.5 336zM84 455q12 -1 23 -8q14 -10 18 -28q5 -19 -5 -34.5t-28 -19.5q-19 -4 -34 7q-8 5 -12 9t-8 6q-44 63 -8.5 121t114 107t189 67.5t174 -6t93.5 -94.5t-48.5 -150.5t-111.5 -113
t-22 -50t55 -71.5q5 -12 10 -42q89 67 122 107q47 58 138 213q49 11 74 -39q-138 -260 -313 -397l-8 -80q-51 -456 -257 -631q-133 -87 -226 -46.5t-131.5 138.5t12 206t211.5 237l286 226q1 1 2 1q3 74 -47 126q-103 78 -39 149.5t125 123.5t-55 58q-102 8 -200 -28
q-76 -27 -93 -64z" />
    </font>
</defs>
</svg>
