<?xml version="1.0" standalone="no"?>
<!DOCTYPE svg PUBLIC "-//W3C//DTD SVG 1.1//EN" "http://www.w3.org/Graphics/SVG/1.1/DTD/svg11.dtd" >
<svg xmlns="http://www.w3.org/2000/svg" xmlns:xlink="http://www.w3.org/1999/xlink" version="1.1">
<metadata></metadata>
<defs>
<font id="typo_roundthin_italic_demo" horiz-adv-x="1019" >
<font-face units-per-em="2048" ascent="1638" descent="-410" />
<missing-glyph horiz-adv-x="550" />
<glyph unicode="&#xd;" horiz-adv-x="200" />
<glyph horiz-adv-x="200" />
<glyph horiz-adv-x="200" />
<glyph unicode=" "  horiz-adv-x="550" />
<glyph unicode="&#x09;" horiz-adv-x="550" />
<glyph unicode="&#xa0;" horiz-adv-x="550" />
<glyph unicode="!" horiz-adv-x="293" d="M110 46q4 20 21 34q16 13 36 13q19 0 30 -13q10 -14 6 -34q-4 -19 -20 -32q-17 -14 -36 -14t-30 14q-11 13 -7 32zM222 436l66 362l138 649h57l-138 -649l-88 -362h-35z" />
<glyph unicode="&#x22;" horiz-adv-x="449" d="M349 1121l22 154l37 172h56l-37 -172l-43 -154h-35zM541 1120l22 154l36 172h57l-36 -172l-44 -154h-35z" />
<glyph unicode="#" horiz-adv-x="1292" d="M148 486l1 3q2 9 9 15q6 6 16 6h282l171 413h-286q-9 0 -13 6t-2 15v2q2 9 9 15t16 6h295l129 318q4 8 12 13q6 3 12 3q14 -1 19 -8q4 -6 -1 -18l-128 -308h412l129 318q4 8 12 13q7 4 17 3q11 -2 14 -8q3 -8 -1 -18l-128 -308h289q8 0 12 -6q5 -6 3 -15v-2 q-2 -9 -10 -15q-7 -6 -15 -6h-298l-171 -413h301q9 0 14 -6t3 -15l-1 -3q-1 -8 -9 -14q-7 -6 -16 -6h-310l-138 -337q-3 -9 -10 -13q-8 -4 -17 -3q-11 2 -14 10t-1 15l137 328h-412l-138 -337q-3 -9 -10 -13q-6 -3 -13 -3q-15 2 -18 10q-3 7 -1 15l137 328h-273q-10 0 -14 6 t-3 14zM499 510h412l171 413h-412z" />
<glyph unicode="$" horiz-adv-x="921" d="M165 281q-2 12 7 20q9 9 20 9h21q17 0 17 -16q12 -122 145 -197q51 -18 102 -18q49 -1 112 19q114 51 171 116q68 78 88 170q48 183 -143 273q-86 28 -180 53q-128 55 -170 116q-71 90 -40 234q28 130 129 231q93 92 231 129q41 11 89 11q44 0 85 -12q97 -28 148 -91 q59 -69 66 -165q1 -11 -7 -20q-9 -9 -20 -9h-21q-17 0 -18 16q-11 123 -144 197q-48 19 -103 19q-50 0 -110 -19q-115 -52 -174 -118q-66 -77 -86 -169q-39 -183 141 -277q95 -34 182 -53q135 -52 178 -111q68 -84 32 -235q-28 -129 -130 -231q-94 -92 -230 -128 q-53 -11 -90 -11t-85 11q-97 29 -148 92q-58 69 -65 164zM311 -173l381 1793q6 27 34 27t22 -27l-381 -1793q-6 -27 -32 -27h-2q-28 0 -22 27zM477 -173l381 1793q6 27 33 27q29 0 23 -27l-381 -1793q-6 -27 -32 -27h-3q-27 0 -21 27z" />
<glyph unicode="%" horiz-adv-x="1244" d="M314 0l866 1447h58l-866 -1447h-58zM358 1212q20 97 104 166q83 69 180 69h32q97 0 151 -69t34 -166q-21 -96 -104 -165q-84 -69 -181 -69h-32q-97 0 -150 69q-55 69 -34 165zM415 1212q-16 -75 26 -128q43 -54 119 -54h20q75 0 139 54q66 53 82 128q16 76 -27 130 q-41 53 -116 53h-20q-76 0 -142 -53q-65 -54 -81 -130zM693 234q20 97 103 166q84 69 181 69h32q97 0 151 -69t34 -166q-21 -97 -104 -165q-84 -69 -181 -69h-32q-97 0 -151 69q-54 68 -33 165zM750 234q-16 -75 26 -129q42 -53 118 -53h20q76 0 140 53q65 54 81 129 q16 76 -26 129q-41 54 -117 54h-20q-76 0 -141 -54q-65 -53 -81 -129z" />
<glyph unicode="&#x26;" horiz-adv-x="1263" d="M182 387q41 192 218 310q34 23 102 53q-52 28 -77 55q-108 108 -72 278q32 151 162 258q130 106 280 106q88 0 157 -40l-44 -47q-56 31 -125 31q-127 0 -237 -91q-108 -90 -135 -217t43 -217q71 -90 198 -90h333l55 258l62 21l-57 -271h285l-13 -58h-285l-106 -501 q-15 -72 25 -123t111 -51h112l-11 -51h-112q-170 0 -185 189q-29 -34 -86 -81q-135 -108 -292 -108q-161 0 -250 113q-90 114 -56 274zM238 387q-29 -136 48 -233q76 -97 213 -97q147 0 259 92q110 91 144 238l71 332h-333q-137 0 -255 -97q-118 -98 -147 -235z" />
<glyph unicode="'" horiz-adv-x="256" d="M349 1121l22 154l37 172h56l-37 -172l-43 -154h-35z" />
<glyph unicode="(" horiz-adv-x="596" d="M108 38l202 948q37 175 179 306q140 131 315 156l-11 -53q-152 -24 -277 -145q-125 -120 -156 -269l-199 -936q-32 -150 41 -270q74 -121 215 -146l-11 -52q-164 25 -249 155q-86 132 -49 306z" />
<glyph unicode=")" horiz-adv-x="596" d="M10 -423l11 52q152 25 278 146q125 120 157 270l199 936q31 149 -42 269q-75 121 -216 145l11 53q163 -25 249 -156t49 -306l-202 -948q-37 -174 -179 -306q-141 -130 -315 -155z" />
<glyph unicode="*" horiz-adv-x="856" d="M354 1035q-3 9 0 14l2 3q8 14 19 19q10 5 19 1l219 -75l52 246q3 11 12 18q9 8 20 8h2q11 0 16 -8q7 -7 4 -18l-52 -246l251 75q11 4 19 -1q9 -5 11 -19v-3q1 -6 -6 -16q-8 -10 -19 -13l-251 -76l104 -199q5 -8 -1 -20q-3 -11 -16 -19l-2 -2q-6 -3 -18 -1q-10 1 -15 9 l-102 201l-188 -201q-7 -8 -18 -9q-13 -3 -10 -4l-1 2q-17 13 -16 24q0 11 8 19l187 200l-217 76q-10 3 -13 15z" />
<glyph unicode="+" horiz-adv-x="1032" d="M233 720v2q3 14 14 23t24 9h373l80 373q2 13 13 22t24 9h2q14 0 21 -9t5 -22l-80 -373h371q14 0 21 -9t4 -23v-2q-3 -13 -14 -22t-25 -9h-371l-78 -371q-3 -14 -14 -23t-25 -9h-2q-13 0 -20 9t-4 23l78 371h-373q-13 0 -20 9t-4 22z" />
<glyph unicode="," horiz-adv-x="343" d="M49 -157l122 241q5 8 13 8h46q6 0 8 -4q3 -5 -1 -11l-132 -240q-3 -8 -12 -8h-36q-6 0 -8 4q-3 5 0 10z" />
<glyph unicode="-" horiz-adv-x="692" d="M233 720v2q3 14 14 23t24 9h469q14 0 21 -9t4 -23v-2q-3 -13 -14 -22t-25 -9h-469q-13 0 -20 9t-4 22z" />
<glyph unicode="." horiz-adv-x="1547" d="M100 -282v1710h1335v-1710h-1335zM135 -242h1264v1640h-1264v-1640zM199 438q18 24 50 24h9q28 -5 28 -40q0 -34 -33 -49q-12 -5 -27 -7v-37h-1q-5 0 -14 3v34h-5l-5 1q0 11 5 19h5q0 41 -6 41q-6 7 -6 11zM211 -108q0 5 11 16h3q8 -18 30 -18q18 0 18 20q0 15 -21 18 q-27 0 -32 12q-4 8 -4 12v8q0 34 42 34q24 -5 24 -21v-1q-1 -2 -12 -9h-3q0 7 -13 8h-1q-13 0 -20 -10v-4q0 -6 31 -6q27 -12 27 -38v-5q0 -28 -22 -38q-5 -3 -10 -3h-9q-23 0 -39 25zM224 435q1 -35 1 -47q1 0 1 -2q29 6 37 17q8 10 8 18q0 18 -15 21h-6q-26 -3 -26 -7z M288 374q0 40 32 53l11 1q23 -4 23 -22v-6q0 -20 -39 -36h-10q0 -11 17 -16q11 0 21 18h4q8 -12 8 -15q-17 -22 -30 -22h-7q-26 0 -30 45zM296 -16h15v9q0 46 5 46l15 -5q-2 -23 -2 -36v-14q13 3 15 3q2 -20 2 -24h-2q-9 -1 -15 -1q3 -63 5 -91q-12 -2 -17 -2v1q-5 61 -5 88 l-2 2h-14v24zM305 385q19 0 33 18v2q-7 2 -9 2q-16 0 -24 -19v-3zM325 911v56h9q0 -72 140 -84h177q66 0 66 -65v-103q0 -83 -103 -83h-158q-131 120 -131 279zM350 -11q17 -5 17 -6v-20q0 -67 12 -67h5q17 19 24 55q5 10 6 38h2q15 -2 15 -6q-3 -42 -3 -59v-10q0 -10 5 -20 q0 -6 -10 -18q-12 12 -12 25h-1q-11 -29 -28 -29h-3q-29 0 -29 93v24zM352 146v4q0 58 45 79l7 2h10q14 0 23 -23q-6 -6 -6 -9h-3q-9 15 -21 15q-17 0 -35 -26q-9 -19 -9 -34v-5q0 -29 24 -35q2 -1 8 -1q31 3 31 20v10q-4 3 -12 3h-10v17q28 0 33 -9q2 -7 2 -9 q-2 -25 -2 -29q0 -11 4 -26q-1 0 -8 -5h-1q-4 0 -6 22q-6 -8 -29 -12h-2q-38 0 -43 51zM353 1088v10q147 270 364 270v-242h-261q-54 0 -103 -38zM357 413q12 2 15 2v-1q0 -4 3 -19h1q10 43 28 43q19 0 28 -49q-1 0 -15 -4q-6 33 -13 33q-17 -9 -20 -75q1 -14 1 -15 q-10 -2 -15 -2q-13 69 -13 87zM409 986v37q3 19 19 19h289v-94q-35 19 -75 19h-214q-19 0 -19 19zM432 347v1q1 3 9 11h1q12 -15 28 -15q14 4 14 16q-4 15 -21 15q-28 0 -28 22v3q0 30 37 30q18 -5 18 -17v-1q0 -2 -10 -8h-1q-4 7 -13 7q-13 0 -16 -11q0 -5 29 -6 q20 -11 20 -34q0 -25 -20 -34l-8 -2h-5q-24 0 -34 23zM437 -63q0 48 34 58h4q14 0 29 -16v1q0 8 3 65q1 0 17 -4q-4 -38 -5 -92q0 -34 10 -69q-11 -10 -12 -10h-1q-3 0 -6 13h-2q0 -8 -21 -16q-33 0 -47 42q-3 12 -3 28zM446 132v15q0 33 26 46q5 2 15 2q20 -4 20 -20 q1 0 1 -2q0 -23 -35 -36q-5 -3 -15 -3v-1q0 -11 17 -17h1q10 0 23 16h3q0 -2 6 -9v-1q-14 -22 -29 -22h-6q-19 0 -27 32zM454 -64v-3q0 -34 30 -40h3q12 0 15 26v3q0 36 -21 48l-6 1h-2q-17 0 -19 -35zM457 150q23 0 39 22q-2 6 -11 6h-3q-19 0 -25 -28zM501 364q0 50 25 65 q2 1 11 3q20 0 33 -32q2 -9 2 -17v-3q0 -36 -35 -53q-5 -1 -9 -1q-27 4 -27 38zM513 172v16l11 1h2v18q0 27 3 27q8 -2 10 -2q-2 -29 -2 -42h2l12 2v-17q-1 0 -14 -2l4 -74l-2 -2h-8q-3 29 -5 75h-13zM516 365q2 -18 12 -18h3q24 7 26 35v3q-6 26 -20 26h-2q-13 0 -18 -32 q-1 -7 -1 -14zM534 22q2 14 12 14q9 0 11 -14v-1q0 -11 -8 -16h-7q-8 5 -8 17zM537 -10h12l6 -1q0 -3 -1 -8q1 -67 4 -109h-18l-1 8q-2 68 -2 110zM566 -76q0 51 30 69q10 2 11 2q25 0 41 -38q2 -11 2 -17v-9q0 -40 -39 -60q-4 -2 -13 -2q-27 0 -32 41v14zM567 538v10 q132 0 187 56h9q61 -56 187 -56v-10q-108 -37 -187 -37h-9q-80 0 -187 37zM575 409q7 2 14 2q3 -17 3 -20h1q7 41 21 41q19 0 36 -89q1 0 1 -7q-8 -7 -12 -7q-15 62 -23 80q-9 -13 -18 -70q-1 0 -5 -10h-7q-7 0 -9 57q-2 14 -2 23zM583 -82q0 -22 15 -25h4q15 0 29 29 q2 4 2 9v9q-7 31 -24 31h-2q-21 0 -24 -53zM592 154v17q6 0 10 2q-3 21 -3 52q3 29 17 29h2q13 0 15 -34v-3l-6 -1h-2q-3 21 -8 21q-6 0 -8 -19q1 -2 1 -4q0 -10 2 -39q5 3 9 3h3v-15l-11 -3q5 -57 5 -69h-11q-4 54 -4 65h-1q-5 -2 -10 -2zM634 193q2 0 11 -3q0 -74 14 -74 q19 12 28 66q1 5 1 11h1q3 0 10 -3q-3 -24 -3 -45v-12q0 -9 5 -19q-5 -7 -5 -11h-2q-7 4 -8 26h-2q-4 -15 -19 -29h-9q-20 0 -20 75v10zM652 348v8q0 30 32 35q11 -1 20 -6v1q-4 25 -17 25q-9 0 -18 -10h-3q-2 1 -8 11v2q12 14 23 14h11q27 -9 27 -45q-1 -21 -1 -35l2 -16 q-9 -8 -13 -8h-1l-2 11q-12 -8 -23 -8h-7q-22 3 -22 21zM654 -16h17q0 34 3 55h1l15 -5q-2 -28 -2 -45v-5q14 3 16 3l1 -14v-10q-16 -1 -16 -2q0 -23 5 -90q-13 -2 -17 -2v1q-5 75 -5 90h-18v24zM667 351q0 -3 10 -6q17 0 25 17q-8 7 -19 7q-16 -3 -16 -15v-3zM709 198v39h4 h6v-9q0 -61 3 -132h-11q-2 65 -2 102zM710 -40q0 33 3 33q12 -4 15 -4q-1 -23 -1 -34v-6q0 -33 12 -44h5q22 18 22 72v10h17v-1q8 -89 8 -103v-10q0 -44 -28 -60q-10 -4 -16 -4q-22 0 -29 20q-2 4 -2 9v9q0 15 4 15l14 -7l-1 -8v-4q0 -8 11 -10h4q20 0 25 33q1 4 1 12v20 l-1 13h-1q-10 -30 -29 -30h-2q-23 0 -30 50q-1 8 -1 20v9zM725 462v3v6h3l11 -1v-18q2 -70 2 -126l-7 -2h-6q-3 71 -3 138zM733 232v3q0 2 2 2h1h8v-30q0 -32 3 -111h-11q-3 66 -3 136zM782 411v11q0 25 8 44h4q0 -2 7 -12q-4 -18 -4 -30v-18q0 -44 15 -58h1q21 0 35 117h2 q12 -4 13 -4q-6 -58 -6 -86q0 -31 12 -31q2 -16 2 -20h-8q-13 0 -20 32h-1q-11 -28 -27 -28h-5q-20 0 -27 61q-1 4 -1 22zM789 154v17l11 1q-3 46 -3 52q0 30 19 30q12 0 16 -37l-8 -1h-2v1q0 15 -7 20q-8 -5 -8 -15q0 -8 3 -46v-1q5 3 10 3h1l1 -8v-7q-1 0 -12 -3l2 -3 q0 -12 4 -66h-11q0 6 -4 65q-9 -2 -12 -2zM800 -5h5q11 0 11 -3v-2q9 5 19 5q25 0 33 -44q0 -11 1 -14q-3 -52 -31 -64l-8 -1h-10l1 -8q0 -6 1 -40h-17q-5 132 -5 171zM800 725v317h383l9 -94v-18q0 -185 -131 -298h-167q-94 12 -94 93zM800 1126v242h10q132 0 279 -149 q56 -68 56 -93h-345zM816 -37q0 -3 3 -67l7 -1q22 0 26 42q-3 34 -17 34h-1q-10 0 -18 -8zM833 133v4q0 41 19 57q8 5 14 5q23 0 34 -38v-14q0 -34 -34 -50l-7 -1q-16 0 -24 20q-2 11 -2 17zM843 137q2 -23 15 -23h1q16 0 27 25q3 8 3 11q-6 31 -22 31h-4q-15 0 -20 -44z M871 347v1q8 11 10 11h1q12 -15 27 -15q14 4 14 16t-16 15q-25 0 -30 11q-2 11 -2 14q0 30 37 30q13 0 20 -18v-1q-11 -7 -14 -7q0 6 -11 7q-12 0 -17 -10v-1q0 -5 29 -6q19 -9 19 -36q0 -26 -24 -34h-8q-23 0 -35 23zM873 -81q0 54 30 74q11 2 12 2q23 0 39 -35 q4 -13 4 -24q0 -43 -38 -65q-8 -2 -14 -2q-22 0 -31 27q-2 12 -2 23zM890 -82v-5q0 -17 15 -20h2q16 0 30 26q4 8 4 18q-6 34 -28 34q-19 0 -23 -53zM905 176l8 2h2q3 -16 3 -33h1q9 54 24 54t34 -94h-1q-5 -4 -9 -4q-15 67 -24 79q-7 -7 -23 -79l-2 -1h-4q-6 0 -9 76z M941 373q0 40 30 54l12 1q24 -4 24 -23q0 -29 -42 -41h-7v-2q7 -14 16 -14q10 0 23 18h1q1 0 9 -12q0 -9 -21 -22q-4 -3 -9 -3h-7q-24 0 -29 44zM958 385h3q17 0 31 19q-6 3 -9 3h-3q-16 0 -22 -21v-1zM966 -113q1 17 11 17q9 0 12 -14v-5q-3 -13 -12 -13t-11 15zM979 172 l1 8v8l11 1h1v1q0 21 2 44q3 0 12 -2q-3 -13 -3 -29v-13h3l12 2v-17h-3l-12 -2l5 -74l-5 -2h-6q-3 62 -3 75h-15zM996 -84q0 34 19 64q12 12 18 12h8q6 0 15 -9q11 -12 11 -18q-11 -13 -12 -13q-11 15 -18 15h-2q-12 -5 -18 -28l-4 -21q0 -22 14 -24h3q11 0 34 16h1 q6 -20 6 -22q-25 -18 -47 -18q-23 0 -28 46zM1044 367v9q0 50 40 88q8 2 10 2h6q12 0 28 -28q12 -22 12 -44v-9q0 -37 -40 -58q-7 -3 -14 -3h-7q-30 0 -35 43zM1058 117v8q3 32 30 32q12 0 21 -8v3q0 25 -18 29h-3q-6 0 -17 -8h-1q-1 0 -6 7v2q10 13 19 13h11q16 0 24 -28 q2 -16 3 -18q-1 -6 -3 -26q2 -4 2 -23l-6 -4h-3l-3 12q-10 -11 -25 -11h-4q-21 3 -21 20zM1059 368q0 -21 25 -24q22 0 37 27q5 8 5 18v3q0 27 -26 53q-3 0 -3 2q-17 0 -35 -50q-3 -11 -3 -21v-8zM1068 122q3 -8 11 -8h6q14 0 22 18q-9 8 -17 8h-2q-20 -3 -20 -18zM1076 -76 q0 51 30 69q10 2 11 2q24 0 39 -35q4 -8 4 -19v-8q0 -43 -39 -62q-4 -2 -13 -2q-28 0 -32 41v14zM1092 -82q0 -25 17 -25h3q14 0 29 30q2 6 2 10v7q-8 31 -25 31h-1q-20 0 -25 -53zM1126 172v16l11 1h1l2 45q3 0 12 -2q-2 -18 -2 -34v-8h2l12 2v-8v-9q-1 0 -14 -2v-6 q0 -15 4 -68l-2 -2h-9l-4 75h-13zM1144 409q6 2 15 2q1 -19 1 -22h1q7 43 24 43q16 0 35 -96q-9 -7 -13 -7q-15 66 -24 80q-6 -12 -19 -74q-3 -6 -4 -6h-6q-7 0 -10 80zM1164 -23q13 6 17 6q2 -8 4 -31h2q9 43 24 43q17 0 27 -58h1q8 58 27 58h1q24 0 40 -118h-2 q-11 -5 -13 -5h-1q-19 98 -25 98q-10 -22 -17 -82q-3 -10 -10 -10q-8 0 -11 15q-13 76 -19 76q-16 -58 -16 -93q-10 -4 -17 -4v1zM1223 453q1 12 1 18h1l14 -1q-1 -9 -1 -13q0 -55 3 -131l-11 -2h-4q-2 58 -3 129zM1247 383v17q0 10 2 29q13 -2 14 -2q-1 -18 -1 -26v-9 q2 -35 13 -35h1q18 13 18 67h15v-3q7 -78 7 -88q0 -46 -30 -56h-5h-5q-18 0 -23 19q-1 5 -1 10q0 15 3 15h1q9 -6 12 -6l-1 -9q0 -8 9 -9h2q23 0 23 42q0 5 -1 21h-1q-8 -24 -26 -24h-1q-19 0 -25 47z" />
<glyph unicode="/" horiz-adv-x="687" d="M100 0l736 1447h59l-736 -1447h-59z" />
<glyph unicode="0" horiz-adv-x="1133" d="M199 467l110 514q41 193 206 329q167 137 360 137t299 -137q109 -136 68 -329l-110 -514q-41 -193 -207 -330q-165 -137 -358 -137t-301 137t-67 330zM259 474q-36 -170 58 -290t264 -120q169 0 315 120t182 290l106 501q36 169 -58 289q-96 120 -265 120 q-170 0 -314 -120q-146 -120 -182 -289z" />
<glyph unicode="1" horiz-adv-x="422" d="M252 27l290 1364h-168q-28 0 -23 26q7 30 35 30h197q27 0 21 -27l-296 -1393q-6 -27 -33 -27h-3q-26 0 -20 27z" />
<glyph unicode="2" horiz-adv-x="1079" d="M106 27l21 99q38 178 212 332q121 106 358 237q233 129 288 169q130 98 156 219q27 127 -43 218q-71 90 -197 90h-393q-28 0 -23 26q7 30 35 30h393q150 0 234 -106q84 -107 52 -258q-28 -132 -168 -244q-82 -66 -300 -186q-239 -131 -338 -215q-165 -139 -202 -312 l-15 -69h789q26 0 20 -28q-6 -29 -32 -29h-825q-28 0 -22 27z" />
<glyph unicode="3" horiz-adv-x="881" d="M76 27q6 30 34 30h295q136 0 254 97q117 97 146 233q30 138 -47 235q-76 97 -212 97h-249q-28 0 -22 28q6 29 34 29h249q126 0 235 90t136 217t-43 218q-71 90 -197 90h-295q-28 0 -23 26q7 30 35 30h295q150 0 234 -106q84 -107 52 -258q-36 -171 -189 -278 q-40 -29 -101 -55q45 -21 80 -53q127 -118 86 -310q-34 -160 -172 -273q-138 -114 -298 -114h-295q-28 0 -22 27z" />
<glyph unicode="4" horiz-adv-x="1130" d="M121 333l3 16q2 7 6 13l942 1071q11 14 27 14h50l-2 -1q20 -5 16 -26l-225 -1058h223q26 0 20 -27q-6 -30 -32 -30h-223l-59 -278q-6 -27 -36 -27q-26 0 -20 27l59 278h-729q-26 0 -20 28zM195 362h687l218 1028z" />
<glyph unicode="5" horiz-adv-x="1006" d="M106 27q6 30 32 30h422q137 0 255 97q117 97 146 233q30 138 -47 235q-76 97 -213 97h-422q-26 0 -20 28l143 673q6 27 32 27h643q28 0 22 -27q-6 -29 -34 -29h-613l-131 -615h392q161 0 251 -114q88 -114 54 -275q-34 -160 -171 -273q-138 -114 -299 -114h-422 q-26 0 -20 27z" />
<glyph unicode="6" horiz-adv-x="1085" d="M182 387l143 672q34 161 172 274q139 114 299 114h323q26 0 20 -27q-6 -29 -32 -29h-323q-136 0 -254 -97q-118 -98 -147 -235l-62 -283h471q160 0 250 -114q89 -114 55 -275q-34 -160 -172 -273q-138 -114 -298 -114h-139q-160 0 -250 114q-90 113 -56 273zM238 387 q-29 -136 49 -233q76 -97 213 -97h139q136 0 254 97q117 97 146 233q30 138 -47 235q-76 97 -212 97h-471z" />
<glyph unicode="7" horiz-adv-x="880" d="M311 1417q7 30 33 30h716q28 0 22 -27l-296 -1393q-6 -27 -34 -27h-2q-27 0 -21 27l290 1364h-687q-26 0 -21 26z" />
<glyph unicode="8" horiz-adv-x="1074" d="M152 387q41 192 218 310q37 25 90 53q-31 20 -65 55q-108 108 -72 278q32 151 162 258q130 106 281 106h158q151 0 234 -106q84 -107 52 -258q-36 -170 -189 -278q-33 -23 -91 -55q36 -22 70 -53q127 -118 86 -310q-34 -160 -171 -273q-138 -114 -299 -114h-158 q-160 0 -250 114q-90 113 -56 273zM208 387q-29 -136 49 -233q76 -97 213 -97h158q137 0 255 97q117 97 146 233q30 138 -47 235q-76 97 -213 97h-158q-137 0 -255 -97t-148 -235zM381 1083q-27 -127 44 -217t198 -90h158q127 0 236 90t136 217t-43 218q-71 90 -198 90h-158 q-127 0 -236 -90q-110 -91 -137 -218z" />
<glyph unicode="9" horiz-adv-x="1085" d="M161 27q6 30 33 30h415q136 0 254 97q117 97 146 233l61 284h-469q-160 0 -250 114q-90 113 -56 274t172 274q139 114 299 114h139q160 0 249 -114q90 -113 56 -274l-143 -672q-34 -160 -172 -273q-138 -114 -298 -114h-415q-27 0 -21 27zM353 1059q-29 -137 47 -235 q77 -97 213 -97h469l70 332q29 137 -47 235q-76 97 -212 97h-139q-136 0 -254 -97q-118 -98 -147 -235z" />
<glyph unicode=":" horiz-adv-x="316" d="M112 58q5 24 26 41t46 17q24 0 36 -17q13 -17 8 -41t-25 -41q-21 -17 -44 -17q-25 0 -38 17q-14 17 -9 41zM303 956q5 24 26 41t46 17q24 0 36 -17q13 -17 8 -41t-26 -41q-20 -17 -43 -17q-25 0 -39 17q-13 17 -8 41z" />
<glyph unicode=";" horiz-adv-x="323" d="M49 -157l122 241q5 8 13 8h46q6 0 8 -4q3 -5 -1 -11l-132 -240q-3 -8 -12 -8h-36q-6 0 -8 4q-3 5 0 10zM303 956q5 24 26 41t46 17q24 0 36 -17q13 -17 8 -41t-26 -41q-20 -17 -43 -17q-25 0 -39 17q-13 17 -8 41z" />
<glyph unicode="&#x3c;" horiz-adv-x="1232" d="M244 678l14 67l1128 448l-13 -59l-1053 -423l873 -422l-12 -59z" />
<glyph unicode="=" horiz-adv-x="932" d="M191 520v2q3 14 14 23t24 9h709q14 0 21 -9t4 -23v-2q-3 -13 -14 -22t-25 -9h-709q-13 0 -20 9t-4 22zM276 920v2q3 14 14 23t24 9h709q14 0 21 -9t4 -23v-2q-3 -13 -14 -22t-25 -9h-709q-13 0 -20 9t-4 22z" />
<glyph unicode="&#x3e;" horiz-adv-x="1232" d="M149 230l12 59l1054 422l-874 423l13 59l936 -448l-14 -67z" />
<glyph unicode="?" horiz-adv-x="990" d="M362 1149q-5 11 3 25q61 121 178 197q120 77 249 77q161 0 250 -112q88 -113 54 -274q-29 -136 -137 -242q-107 -105 -304 -148l-75 -354q-3 -11 -14 -20q-8 -8 -21 -8h-3q-13 0 -19 8q-7 9 -4 22l82 387q3 13 13 20q11 10 23 10h4q134 0 249 95q116 96 145 230 q28 134 -47 230q-75 95 -209 95q-109 0 -209 -65q-99 -64 -152 -165q-4 -10 -12 -15q-9 -5 -19 -5h-3q-15 0 -22 12zM436 58q5 24 26 41t46 17q24 0 36 -17q13 -17 8 -41t-25 -41q-21 -17 -44 -17q-25 0 -38 17q-14 17 -9 41z" />
<glyph unicode="@" horiz-adv-x="2115" d="M208 506q94 446 449 707q319 234 707 232q389 -2 609 -238q243 -261 150 -701q-50 -233 -209 -409q-143 -159 -266 -164q-80 0 -111 40q-53 62 -9 268l56 256q41 200 -71 319q-100 107 -277 108q-177 2 -322 -105q-162 -118 -203 -321q-48 -234 126 -359 q170 -124 403 -36l10 -50q-178 -69 -346 -15q-170 55 -228 207q-46 115 -17 253q47 224 225 356q167 124 368 124q200 0 315 -124q122 -132 75 -356l-58 -264q-39 -182 1 -232q20 -25 60 -25q111 2 244 163q132 163 176 366q87 413 -141 659q-206 221 -572 223t-664 -218 q-334 -245 -422 -664q-76 -375 128 -636q205 -261 578 -265q180 0 368 73l7 -49q-192 -74 -386 -74q-398 0 -617 276q-221 277 -136 675z" />
<glyph unicode="A" horiz-adv-x="1091" d="M106 27l207 974q39 185 198 316q159 130 343 130t286 -130q75 -95 74 -218q0 -47 -10 -98l-207 -974q-6 -27 -35 -27q-28 0 -22 27l121 571h-778l-121 -571q-6 -27 -32 -27q-30 0 -24 27zM295 655h778l74 346q9 44 9 85q0 108 -65 191q-89 114 -249 114q-161 0 -300 -114 q-139 -115 -173 -276z" />
<glyph unicode="B" horiz-adv-x="1007" d="M142 197l224 1053q17 82 87 140q71 57 152 57h251q151 0 235 -106q61 -77 61 -178q0 -38 -9 -80q-36 -170 -189 -278q-43 -31 -90 -55q46 -32 69 -53q96 -89 96 -221q0 -42 -10 -89q-34 -160 -172 -273q-138 -114 -299 -114h-251q-81 0 -127 58q-33 42 -33 96q0 21 5 43z M198 197q-3 -15 -4 -30q0 -39 25 -69q32 -41 90 -41h251q137 0 256 97q117 97 146 233q8 39 8 74q0 91 -55 161q-77 97 -214 97h-392zM321 776h392q127 0 237 90q109 90 136 217q8 35 8 68q0 84 -51 150q-72 90 -199 90h-251q-58 0 -108 -41q-51 -42 -63 -100z" />
<glyph unicode="C" horiz-adv-x="1152" d="M254 724q63 299 321 511q257 212 557 212q131 0 241 -45q16 -6 12 -25q-4 -18 -17 -25q-8 -5 -16 -5q-6 0 -10 2q-103 42 -222 42q-276 0 -514 -196q-237 -195 -296 -471q-16 -76 -17 -146q0 -184 113 -326q154 -195 430 -195q122 0 241 41q6 2 10 2q7 0 14 -5 q9 -8 7 -22q-5 -22 -25 -29q-129 -44 -259 -44q-300 0 -467 212q-121 153 -121 353q0 76 18 159z" />
<glyph unicode="D" horiz-adv-x="1251" d="M142 197l224 1053q17 82 87 140q71 57 152 57h159q300 0 467 -212q121 -154 121 -354q0 -75 -17 -157q-64 -300 -322 -512q-257 -212 -557 -212h-159q-81 0 -127 58q-33 42 -33 96q0 21 5 43zM198 197q-3 -15 -4 -30q0 -39 25 -69q32 -41 90 -41h159q276 0 514 195 q236 196 295 472q16 76 16 147q0 183 -111 324q-154 196 -430 196h-159q-58 0 -108 -41q-51 -42 -63 -100z" />
<glyph unicode="E" horiz-adv-x="733" d="M160 284l187 879q25 117 126 201q102 83 220 83h272q26 0 20 -27q-6 -29 -32 -29h-272q-94 0 -176 -67q-80 -67 -100 -161l-87 -412h497q28 0 22 -26q-6 -30 -34 -30h-497l-88 -411q-6 -26 -6 -50q0 -62 38 -111q53 -66 147 -66h272q26 0 20 -28q-6 -29 -32 -29h-272 q-118 0 -184 83q-48 60 -48 139q0 30 7 62z" />
<glyph unicode="F" horiz-adv-x="727" d="M106 27l241 1136q25 117 126 201q102 83 220 83h270q27 0 21 -27q-6 -29 -33 -29h-270q-95 0 -177 -67q-81 -67 -101 -161l-87 -412h499q27 0 21 -26q-6 -30 -33 -30h-499l-142 -668q-6 -27 -33 -27h-3q-26 0 -20 27z" />
<glyph unicode="G" horiz-adv-x="1587" d="M224 724q63 299 321 511q257 212 557 212q317 0 483 -233q6 -9 2 -21t-11 -18l-7 -3q-8 -6 -17 -6q-11 0 -18 9q-152 216 -444 216q-276 0 -514 -196q-237 -195 -296 -471q-16 -76 -16 -146q0 -184 112 -326q154 -195 430 -195q246 0 465 157q220 158 312 401l30 80h-487 q-27 0 -21 28t33 28h513q26 0 20 -26q-64 -300 -321 -513q-257 -212 -556 -212q-300 0 -467 212q-121 153 -121 353q0 76 18 159z" />
<glyph unicode="H" horiz-adv-x="1140" d="M126 27l296 1393q6 27 33 27q29 0 23 -27l-142 -669h787l142 669q6 27 33 27q30 0 24 -27l-296 -1393q-6 -27 -34 -27h-2q-27 0 -21 27l142 668h-787l-142 -668q-6 -27 -33 -27q-29 0 -23 27z" />
<glyph unicode="I" horiz-adv-x="336" d="M146 27l296 1393q6 27 34 27t22 -27l-296 -1393q-6 -27 -32 -27h-2q-28 0 -22 27z" />
<glyph unicode="J" horiz-adv-x="637" d="M16 27q6 30 34 30h194q95 0 176 66q81 67 101 161l242 1136q6 27 33 27q29 0 23 -27l-242 -1136q-25 -118 -125 -201q-102 -83 -220 -83h-194q-28 0 -22 27z" />
<glyph unicode="K" horiz-adv-x="1010" d="M126 27l296 1393q6 27 34 27t22 -27l-131 -616h211q186 0 346 131t200 316l36 169q6 27 33 27q29 0 23 -27l-36 -169q-54 -253 -290 -405q-48 -31 -124 -61q75 -32 105 -54q101 -69 141 -184q23 -67 23 -140q0 -53 -12 -110l-57 -270q-6 -27 -32 -27h-2q-28 0 -22 27 l57 270q10 50 10 95q0 125 -76 221q-104 131 -290 131h-257l-152 -717q-6 -27 -32 -27q-30 0 -24 27z" />
<glyph unicode="L" horiz-adv-x="749" d="M180 284l242 1136q6 27 34 27t22 -27l-242 -1136q-5 -26 -6 -49q0 -63 39 -112q53 -66 148 -66h307q27 0 21 -28q-6 -29 -33 -29h-307q-118 0 -184 83q-48 60 -48 139q0 30 7 62z" />
<glyph unicode="M" horiz-adv-x="1790" d="M116 27l215 1014q36 168 180 287q146 119 314 119q201 0 289 -160q17 -33 36 -84q43 55 74 84q157 160 358 160q168 0 261 -119q68 -86 68 -198q0 -43 -10 -89l-215 -1014q-6 -27 -32 -27h-3q-27 0 -21 27l215 1014q9 40 9 77q0 96 -59 170q-80 103 -225 103t-270 -103 t-156 -247l-215 -1014q-6 -27 -33 -27q-29 0 -23 27l215 1014q9 40 9 77q0 96 -59 170q-80 103 -225 103t-270 -103t-156 -247l-215 -1014q-6 -27 -33 -27q-29 0 -23 27z" />
<glyph unicode="N" horiz-adv-x="1111" d="M116 27l207 974q39 185 197 316q159 130 343 130t287 -130q75 -95 74 -218q0 -47 -10 -98l-207 -974q-6 -27 -34 -27h-2q-28 0 -22 27l207 974q9 44 9 85q0 108 -65 191q-89 114 -249 114q-161 0 -300 -114q-138 -115 -172 -276l-207 -974q-6 -27 -33 -27q-29 0 -23 27z " />
<glyph unicode="O" horiz-adv-x="1587" d="M224 724q63 299 321 511q257 212 557 212q299 0 466 -212q120 -154 120 -353q0 -76 -17 -158q-64 -300 -321 -512t-556 -212q-300 0 -467 212q-121 153 -121 353q0 76 18 159zM280 724q-16 -76 -17 -146q0 -184 113 -326q154 -195 430 -195q275 0 513 195 q237 196 296 472q16 76 16 146q0 184 -112 325q-154 196 -429 196q-276 0 -514 -196q-237 -195 -296 -471z" />
<glyph unicode="P" horiz-adv-x="1099" d="M116 27l204 961q40 190 204 325q164 134 354 134t296 -134q76 -98 76 -224q0 -48 -11 -101q-41 -191 -203 -325q-164 -135 -354 -135h-404l-106 -501q-6 -27 -33 -27h-3q-26 0 -20 27zM290 584h404q166 0 309 119q144 118 179 285q10 46 10 88q0 111 -67 197 q-93 118 -259 118q-167 0 -310 -118q-145 -119 -180 -285z" />
<glyph unicode="Q" horiz-adv-x="1587" d="M224 723q63 300 321 512q257 212 557 212q299 0 466 -212q120 -154 120 -354q0 -75 -17 -158q-59 -274 -284 -480q-225 -205 -504 -238l-62 -7l-55 -256q-6 -27 -32 -27h-3q-27 0 -21 27l55 256l-60 7q-264 33 -402 238q-97 144 -97 322q0 76 18 158zM280 723 q-16 -76 -16 -146q0 -157 82 -286q118 -186 353 -226q38 -6 78 -9l72 338q5 27 32 27h3q26 0 21 -27l-73 -340q29 3 83 11q251 39 450 226q197 186 250 432q16 76 16 145q0 185 -112 327q-155 195 -430 195q-276 0 -513 -195q-238 -196 -296 -472z" />
<glyph unicode="R" horiz-adv-x="1037" d="M136 27l243 1143q24 115 121 196q100 81 215 81h121q157 0 244 -111q63 -80 63 -186q0 -40 -9 -83q-34 -157 -168 -268q-57 -47 -139 -83q61 -34 105 -83q62 -79 63 -184q0 -40 -10 -84l-72 -338q-3 -11 -12 -19q-10 -8 -21 -8h-2q-10 0 -16 8q-7 8 -4 19l72 338 q8 36 8 69q0 90 -56 159q-67 87 -188 95h-363l-140 -661q-3 -12 -11 -19q-10 -8 -21 -8h-2q-11 0 -17 8q-7 8 -4 19zM343 744h343q133 0 248 94q117 96 145 229q8 36 8 70q0 90 -55 160q-75 94 -208 94h-107q-104 0 -183 -64q-61 -48 -86 -115q-9 -19 -16 -50z" />
<glyph unicode="S" horiz-adv-x="947" d="M76 28l1 6q6 26 32 26h403q131 0 244 94q114 93 141 224q8 39 8 73q0 101 -72 162q-57 48 -230 104q-168 56 -227 109q-71 64 -71 169q0 37 9 80q34 157 168 268q135 110 292 110h284q27 0 21 -26l-1 -6q-6 -28 -33 -28h-284q-132 0 -245 -93t-142 -225q-7 -34 -7 -63 q0 -97 75 -154q53 -40 231 -97q165 -53 227 -113q68 -67 67 -176q0 -44 -10 -94q-33 -156 -167 -267q-135 -111 -291 -111h-403q-26 0 -20 28z" />
<glyph unicode="T" horiz-adv-x="846" d="M311 1417q7 30 33 30h774q26 0 20 -27q-6 -29 -32 -29h-359l-290 -1364q-6 -27 -32 -27h-4q-26 0 -20 27l290 1364h-359q-26 0 -21 26z" />
<glyph unicode="U" horiz-adv-x="1131" d="M215 445l207 975q6 27 34 27t22 -27l-207 -975q-10 -45 -10 -86q0 -107 66 -189q90 -113 251 -113q160 0 298 113q138 114 173 275l207 975q6 27 34 27q29 0 23 -27l-207 -975q-40 -184 -198 -314q-158 -131 -342 -131q-185 0 -287 131q-75 94 -75 216q0 47 11 98z" />
<glyph unicode="V" horiz-adv-x="1149" d="M314 1411q-1 13 10 26q10 10 24 10h7q20 0 21 -17l162 -1263q13 -75 14 -82q10 -29 33 -29t44 27q5 8 48 79l703 1266q10 19 29 19h7q14 0 20 -12q6 -11 -2 -24l-763 -1356q-33 -55 -96 -55t-75 58z" />
<glyph unicode="W" horiz-adv-x="1810" d="M207 407l215 1013q6 27 32 27q30 0 24 -27l-215 -1013q-9 -40 -9 -77q0 -96 59 -171q81 -102 226 -102t269 102q125 103 156 248l215 1013q6 27 32 27q30 0 24 -27l-215 -1013q-9 -40 -9 -77q0 -96 59 -171q81 -102 226 -102t269 102q125 103 156 248l215 1013 q6 27 34 27t22 -27l-215 -1013q-36 -168 -181 -288q-144 -119 -312 -119q-202 0 -289 159q-25 50 -35 96q-23 -38 -75 -95q-157 -160 -358 -160q-168 0 -263 119q-67 87 -67 198q0 43 10 90z" />
<glyph unicode="X" horiz-adv-x="1089" d="M106 27l68 319q48 229 260 361q56 34 114 56q-65 36 -90 56q-119 100 -119 257q0 49 12 104l51 240q6 27 33 27q29 0 23 -27l-51 -240q-9 -44 -10 -85q0 -107 66 -189q89 -114 250 -114q160 0 299 114q138 113 172 274l51 240q6 27 34 27t22 -27l-51 -240 q-49 -229 -261 -361q-40 -25 -113 -56q63 -34 89 -56q119 -101 119 -259q0 -49 -11 -102l-68 -319q-6 -27 -34 -27t-22 27l68 319q9 44 9 85q0 108 -65 190q-90 114 -250 114q-161 0 -299 -114t-172 -275l-68 -319q-6 -27 -33 -27q-29 0 -23 27z" />
<glyph unicode="Y" horiz-adv-x="1091" d="M302 951l100 469q6 27 34 27q30 0 24 -27l-100 -469q-9 -45 -9 -85q0 -108 64 -190q89 -114 250 -114q160 0 299 114q138 114 172 275l100 469q6 27 34 27q29 0 23 -27l-100 -469q-34 -161 -162 -284t-292 -153l-58 -11l-101 -476q-6 -27 -33 -27q-30 0 -24 27l101 476 l-54 11q-150 30 -226 153q-53 86 -53 189q0 46 11 95z" />
<glyph unicode="Z" horiz-adv-x="968" d="M77 126q6 29 26 57l999 1099q24 26 24 53q0 9 -3 19q-12 37 -53 37h-650q-28 0 -23 26q7 30 35 30h653q49 -1 77 -38q21 -26 21 -60q0 -13 -3 -27q-8 -39 -35 -70l-990 -1087q-23 -25 -23 -52q0 -9 3 -19q12 -37 54 -37h714q27 0 21 -28q-6 -29 -33 -29h-731 q-46 6 -70 42q-16 25 -16 56q0 13 3 28z" />
<glyph unicode="[" horiz-adv-x="538" d="M8 -435l400 1882h338l-12 -48h-281l-379 -1787h282l-10 -47h-338z" />
<glyph unicode="\" horiz-adv-x="687" d="M408 1447h59l120 -1447h-59z" />
<glyph unicode="]" horiz-adv-x="538" d="M8 -435l10 47h281l379 1787h-281l11 48h338l-400 -1882h-338z" />
<glyph unicode="^" horiz-adv-x="899" d="M320 855l384 556h93l146 -556h-67l-134 524l-356 -524h-66zM944 848h1v-4z" />
<glyph unicode="_" horiz-adv-x="1047" d="M-50 -28q0 29 28 29h1093q26 0 26 -27v-2q0 -28 -26 -28h-1093q-28 0 -28 28z" />
<glyph unicode="`" horiz-adv-x="435" d="M310 1398h89l126 -220h-66z" />
<glyph unicode="a" horiz-adv-x="1194" d="M188 507q44 210 225 358q180 149 390 149t326 -149q85 -108 85 -248q0 -53 -12 -110l-102 -480q-6 -27 -33 -27h-3q-26 0 -20 27l52 246q-66 -87 -147 -146q-169 -127 -362 -127q-210 0 -326 149q-85 107 -85 247q0 53 12 111zM244 507q-11 -51 -11 -99q0 -124 76 -219 q104 -132 290 -132t346 132q161 132 201 318q11 50 11 97q0 125 -77 221q-104 131 -290 131t-346 -131q-161 -132 -200 -318z" />
<glyph unicode="b" horiz-adv-x="1184" d="M207 504l195 916q6 27 34 27t22 -27l-145 -681q80 98 146 147q174 128 364 128q210 0 326 -149q85 -108 85 -248q0 -53 -12 -110q-45 -210 -225 -358q-180 -149 -390 -149q-208 0 -326 148q-85 109 -85 250q0 51 11 106zM263 504q-11 -50 -10 -97q0 -125 76 -221 q103 -132 289 -132t347 132q160 132 199 318q11 52 11 99q0 124 -75 219q-104 132 -290 132t-346 -132q-161 -132 -201 -318z" />
<glyph unicode="c" horiz-adv-x="849" d="M208 507q44 210 225 358q180 149 390 149q75 0 147 -24q18 -6 14 -25l-1 -6q-3 -14 -16 -22q-9 -6 -15 -6q-3 0 -8 2q-62 21 -134 21q-186 0 -346 -132q-161 -132 -201 -318q-11 -50 -10 -97q0 -125 76 -221q103 -132 289 -132q72 0 142 21q6 2 9 2q7 0 14 -6q9 -8 7 -21 q-5 -21 -24 -26q-80 -24 -159 -24q-210 0 -326 149q-85 107 -85 247q0 53 12 111z" />
<glyph unicode="d" horiz-adv-x="1184" d="M178 507q44 210 225 358q180 149 390 149q190 0 308 -128q46 -49 84 -147l145 681q6 27 34 27t22 -27l-195 -916q-46 -208 -226 -356t-388 -148q-210 0 -326 149q-85 107 -85 247q0 53 12 111zM233 504q-11 -50 -10 -97q0 -125 76 -221q103 -132 289 -132t347 132 t200 318q11 51 11 99q0 124 -76 219q-104 132 -290 132t-346 -132q-161 -132 -201 -318z" />
<glyph unicode="e" horiz-adv-x="1150" d="M188 507q44 210 225 358q180 149 390 149q148 0 255 -81q108 -80 142 -215q2 -11 -3 -20q-6 -12 -16 -16q-151 -61 -427 -175q-281 -116 -425 -175q-16 -6 -40 -17l-40 -16q9 -40 31 -73q99 -172 318 -172q143 0 278 84q135 83 212 218q10 19 32 19q14 0 18 -11 q7 -12 -1 -26q-85 -151 -237 -245q-152 -93 -313 -93q-210 0 -326 149q-85 107 -85 247q0 53 12 111zM233 439q-1 -14 0 -27q0 -31 4 -62q150 62 451 186q297 122 450 185q-17 42 -38 73q-102 160 -310 160q-186 0 -346 -132q-161 -132 -201 -318q-7 -33 -10 -65z" />
<glyph unicode="f" horiz-adv-x="582" d="M106 27l224 1056q34 153 162 259q129 105 280 105h61q27 0 21 -27q-6 -29 -33 -29h-61q-128 0 -236 -89t-138 -218l-14 -70l69 -1h299q27 0 22 -27q-7 -30 -34 -30h-369l-197 -929q-6 -27 -33 -27h-2q-27 0 -21 27z" />
<glyph unicode="g" horiz-adv-x="1184" d="M85 -204q-5 11 2 25q7 11 20 15q9 3 13 3q14 0 21 -14q88 -202 356 -202q167 0 332 128q175 136 214 321l43 199q-64 -85 -146 -145q-172 -127 -363 -127q-210 0 -327 149q-84 108 -84 247q0 53 12 111q44 210 225 359q179 148 389 148q208 0 326 -148q85 -109 85 -250 q0 -51 -11 -107l-93 -436q-43 -206 -242 -361q-187 -146 -372 -146q-300 0 -400 231zM234 506q-11 -51 -11 -99q0 -123 76 -219q104 -132 290 -132t346 132q161 132 201 318l1 7v7q8 43 8 83q0 128 -80 225q-104 128 -285 128q-186 0 -346 -132q-161 -132 -200 -318z" />
<glyph unicode="h" horiz-adv-x="1029" d="M116 27l296 1393q6 27 34 27t22 -27l-130 -613q64 80 138 127q125 80 260 80q169 0 263 -120q68 -86 69 -199q0 -44 -11 -91l-122 -577q-6 -27 -33 -27h-3q-26 0 -20 27l122 577q9 40 9 77q0 97 -60 172q-81 103 -227 103t-272 -103t-157 -249l-122 -577q-6 -27 -32 -27 q-30 0 -24 27z" />
<glyph unicode="i" horiz-adv-x="316" d="M136 27l204 959q6 28 33 28q29 0 23 -28l-204 -959q-6 -27 -32 -27h-3q-27 0 -21 27zM413 1403q4 18 20 31t35 13q18 0 27 -13q10 -13 6 -31t-19 -31q-16 -13 -33 -13q-19 0 -29 13q-11 13 -7 31z" />
<glyph unicode="j" horiz-adv-x="353" d="M-306 -407q7 30 34 30h61q128 0 236 89t136 218l225 1056q5 27 32 27q30 0 25 -27l-225 -1056q-34 -153 -162 -259t-279 -106h-61q-27 0 -22 28zM459 1402q4 18 20 31q15 13 34 13q18 0 28 -13t6 -31t-20 -31q-15 -13 -32 -13q-19 0 -30 13q-10 13 -6 31z" />
<glyph unicode="k" horiz-adv-x="911" d="M116 27l296 1393q6 27 34 27t22 -27l-177 -832h142q173 0 325 115q153 115 208 286q9 25 33 25q14 0 20 -9q6 -10 3 -22q-70 -220 -278 -355q-54 -36 -118 -62q49 -18 100 -52q101 -69 141 -184q23 -67 23 -140q0 -53 -12 -109l-11 -54q-6 -27 -32 -27h-4q-26 0 -20 27 l11 54q11 50 11 96q0 124 -77 220q-104 131 -290 131h-188l-106 -501q-6 -27 -32 -27q-30 0 -24 27z" />
<glyph unicode="l" horiz-adv-x="336" d="M146 27l296 1393q6 27 34 27t22 -27l-296 -1393q-6 -27 -32 -27q-30 0 -24 27z" />
<glyph unicode="m" horiz-adv-x="1770" d="M106 27l123 580q36 169 180 288q146 119 314 119q201 0 289 -160q25 -48 33 -96q32 50 76 95q158 161 359 161q168 0 261 -119q68 -86 68 -198q0 -43 -10 -90l-123 -580q-6 -27 -33 -27h-2q-27 0 -21 27l123 580q9 40 9 77q0 96 -59 170q-81 102 -226 102t-269 -102 q-125 -102 -156 -247l-123 -580q-6 -27 -33 -27q-29 0 -23 27l123 580q9 40 9 77q0 96 -59 170q-81 102 -226 102t-269 -102q-125 -102 -156 -247l-123 -580q-6 -27 -33 -27q-29 0 -23 27z" />
<glyph unicode="n" d="M106 27l122 577q37 170 182 290q147 120 316 120t263 -120q68 -86 69 -199q0 -44 -11 -91l-122 -577q-6 -27 -32 -27h-4q-26 0 -20 27l122 577q9 40 9 77q0 97 -60 172q-81 103 -227 103t-272 -103t-157 -249l-122 -577q-6 -27 -32 -27q-30 0 -24 27z" />
<glyph unicode="o" horiz-adv-x="1154" d="M178 507q44 210 225 358q180 149 390 149t326 -149q85 -108 85 -248q0 -53 -12 -110q-45 -210 -225 -358q-180 -149 -390 -149t-326 149q-85 107 -85 247q0 53 12 111zM233 504q-11 -50 -10 -97q0 -125 76 -221q103 -132 289 -132t347 132t200 318q11 51 11 99 q0 124 -76 219q-104 132 -290 132t-346 -132q-161 -132 -201 -318z" />
<glyph unicode="p" horiz-adv-x="1184" d="M13 -408l194 913q46 211 226 359t389 148q210 0 327 -148q85 -108 85 -247q0 -54 -13 -112q-44 -209 -225 -358q-179 -149 -389 -149q-193 0 -309 127q-47 52 -84 148l-145 -681q-6 -28 -33 -28h-2q-27 0 -21 28zM264 508q-11 -52 -11 -99q0 -124 76 -220 q104 -132 290 -132t346 132t200 319q11 52 11 99q0 124 -75 219q-104 132 -290 132t-346 -132q-161 -132 -201 -318z" />
<glyph unicode="q" horiz-adv-x="1184" d="M178 506q44 210 225 359q179 148 389 148q209 0 327 -148q85 -108 85 -249q0 -53 -12 -110l-195 -913q-5 -28 -32 -28h-2q-27 0 -22 28l145 681q-77 -96 -146 -148q-170 -127 -363 -127q-210 0 -327 149q-84 108 -84 247q0 53 12 111zM234 509q-11 -52 -11 -99 q0 -124 76 -220q104 -132 290 -132t346 132q161 132 201 319q11 51 11 99q0 123 -76 219q-104 132 -290 132t-346 -132q-161 -132 -201 -318z" />
<glyph unicode="r" horiz-adv-x="574" d="M106 27l132 622q33 153 162 259q128 106 280 106h61q27 0 21 -28q-7 -30 -34 -30h-61q-128 0 -236 -88q-107 -89 -137 -219l-132 -622q-6 -27 -33 -27h-3q-26 0 -20 27z" />
<glyph unicode="s" horiz-adv-x="710" d="M76 27q6 30 34 30h274q87 0 162 61q75 62 94 149q6 27 6 50q0 65 -46 97q-27 20 -143 53q-128 37 -178 88q-46 48 -46 124q0 31 8 67q23 111 118 189q95 79 206 79h195q27 0 21 -28q-7 -30 -34 -30h-195q-87 0 -161 -61q-73 -62 -91 -149q-6 -26 -6 -49q0 -72 55 -115 q40 -32 154 -65q126 -35 165 -75q37 -38 37 -106q0 -31 -8 -69q-24 -110 -118 -188q-96 -79 -207 -79h-274q-28 0 -22 27z" />
<glyph unicode="t" horiz-adv-x="498" d="M169 231l253 1189q6 27 34 27t22 -27l-86 -406h260q27 0 21 -28q-7 -30 -34 -30h-260l-154 -725q-4 -19 -4 -37q0 -49 30 -86q40 -51 113 -51h84q27 0 21 -28q-6 -29 -33 -29h-84q-96 0 -150 68q-38 49 -38 113q0 24 5 50z" />
<glyph unicode="u" d="M187 409l123 577q6 28 34 28t22 -28l-123 -577q-9 -40 -9 -77q0 -97 60 -172q82 -103 228 -103t271 103q126 103 157 249l123 577q6 28 32 28q30 0 24 -28l-123 -577q-36 -169 -181 -289q-146 -120 -315 -120t-264 120q-69 87 -69 200q0 43 10 89z" />
<glyph unicode="v" horiz-adv-x="990" d="M223 976q-3 14 8 25q11 13 26 13q20 0 23 -16l178 -823q4 -19 11 -50q4 -27 7 -36q8 -29 32 -30q21 -1 44 30q8 12 24 38q22 35 31 49l526 821q12 17 29 17t23 -13q5 -12 -4 -25l-586 -916q-37 -60 -100 -60t-74 59z" />
<glyph unicode="w" horiz-adv-x="1772" d="M187 407l123 579q6 28 34 28t22 -28l-123 -579q-9 -40 -9 -77q0 -96 59 -171q81 -102 226 -102t269 102q125 103 156 248l123 579q6 28 34 28t22 -28l-123 -579q-9 -40 -9 -77q0 -96 59 -171q81 -102 226 -102t269 102q125 103 156 248l123 579q6 28 34 28q30 0 24 -28 l-123 -579q-36 -168 -182 -288q-145 -119 -313 -119q-202 0 -289 159q-24 42 -39 78q-39 -46 -71 -77q-157 -160 -358 -160q-168 0 -263 119q-67 87 -67 198q0 43 10 90z" />
<glyph unicode="x" d="M106 27l22 103q43 204 231 327q54 35 130 55q-76 28 -106 55q-103 93 -103 233q0 44 10 93l20 93q6 28 34 28t22 -28l-20 -93q-9 -40 -8 -77q0 -97 59 -172q81 -103 227 -103t272 103t157 249l20 93q6 28 32 28q30 0 24 -28l-20 -93q-43 -202 -231 -326q-45 -30 -128 -55 q73 -27 104 -55q103 -94 104 -234q0 -44 -11 -93l-22 -103q-6 -27 -33 -27h-3q-26 0 -20 27l22 103q9 40 9 77q0 98 -60 173q-82 104 -228 104t-271 -104q-126 -103 -157 -250l-22 -103q-6 -27 -32 -27q-30 0 -24 27z" />
<glyph unicode="y" d="M76 -209q-4 11 2 21q9 13 18 17l4 1l3 1q5 1 9 1q16 0 20 -14q29 -90 110 -143t187 -53q143 0 270 104q127 105 157 248l54 252q-63 -79 -137 -125q-126 -80 -260 -80q-169 0 -263 120q-68 86 -68 199q0 43 10 91l117 554q6 27 33 27q29 0 23 -27l-117 -554 q-9 -40 -9 -78q0 -97 59 -172q82 -103 228 -103t270 103q126 103 157 248l118 556q6 27 33 27q30 0 24 -27l-215 -1011q-34 -164 -184 -287q-149 -123 -313 -123q-127 0 -218 61q-92 61 -122 166z" />
<glyph unicode="z" horiz-adv-x="930" d="M87 57q-2 11 -2 22q0 45 44 81q242 208 381 327q259 223 382 329q105 86 105 116q0 19 -18 24q-5 2 -34 2h-610q-27 0 -22 26q7 30 34 30h634q66 0 77 -57q3 -11 2 -22q0 -45 -43 -81q-647 -555 -765 -656q-104 -85 -104 -116q0 -20 17 -24q6 -2 36 -2h116v1h539 q26 0 20 -28q-6 -29 -32 -29h-539h-141q-65 0 -77 57z" />
<glyph unicode="{" horiz-adv-x="617" d="M188 507l2 9q5 23 29 29q49 15 90 44q76 52 115 140t71 240q39 184 52 224q23 75 51 115q26 39 57 61q32 23 77 35q29 7 95 8q5 0 8 -2q1 -3 0 -8l-6 -30q-1 -4 -4 -7q-2 -2 -6 -2q-94 3 -153 -46q-60 -53 -105 -268q-56 -241 -64 -260q-80 -224 -230 -279 q140 -56 104 -309q-8 -77 -33 -198q-33 -152 -36 -178q-8 -92 33 -135q33 -33 121 -30q4 0 5 -3q3 -2 2 -6l-6 -29q-1 -5 -5 -8q-2 -2 -7 -2q-77 1 -106 12q-44 17 -67 56q-24 39 -19 102q2 69 40 247q38 175 36 264q-1 89 -54 141q-27 30 -70 44q-22 6 -17 29z" />
<glyph unicode="|" horiz-adv-x="356" d="M68 -387l390 1834h56l-390 -1834h-56z" />
<glyph unicode="}" horiz-adv-x="617" d="M0 -378l6 29q1 4 4 6q3 3 7 3q86 -3 133 30q59 43 91 135q7 26 40 178q25 121 51 198q72 253 234 309q-126 55 -110 279q0 19 46 260q47 215 9 268q-39 49 -133 46q-4 0 -6 2q-1 3 0 7l6 30q1 5 4 8q3 2 8 2q66 -1 91 -8q41 -12 63 -35q21 -22 31 -61q12 -40 3 -115 q-5 -40 -44 -224q-32 -152 -31 -240t55 -140q29 -29 72 -44q22 -6 17 -29l-2 -9q-5 -23 -29 -29q-49 -14 -90 -44q-75 -52 -114 -141q-40 -89 -76 -264q-38 -178 -64 -247q-23 -63 -63 -102q-39 -39 -91 -56q-33 -11 -110 -12q-5 0 -7 2q-2 3 -1 8z" />
<glyph unicode="~" horiz-adv-x="934" d="M201 610q-6 11 3 31q86 76 202 81q49 4 103 -10q37 -10 100 -33q73 -30 102 -38q64 -18 119 -15q83 3 179 64q7 -14 -4 -36q-48 -37 -95 -55q-48 -19 -107 -23q-55 -4 -110 12q-37 11 -113 43q-111 46 -198 42q-90 -6 -181 -63z" />
<glyph unicode="&#xa1;" horiz-adv-x="293" d="M26 -433l138 649l88 362h35l-66 -362l-138 -649h-57zM306 968q4 19 20 32q17 14 36 14t30 -14q11 -13 7 -32q-4 -20 -21 -34q-16 -13 -36 -13q-19 0 -30 13q-10 14 -6 34z" />
<glyph unicode="&#xa2;" horiz-adv-x="1039" d="M178 507q44 210 225 358q180 149 390 149h112l85 226h59l-85 -226h247l-13 -60h-257l-341 -900h406l-11 -54h-415l-78 -207h-59l80 210q-172 17 -272 146q-118 148 -73 358zM233 504q-39 -186 66 -318q90 -115 243 -130l340 898h-102q-186 0 -346 -132 q-161 -132 -201 -318z" />
<glyph unicode="&#xa3;" horiz-adv-x="1076" d="M198 27l126 592h-69q-23 0 -19 23l3 10q4 23 27 23h69l82 384q34 161 172 274q139 114 299 114q132 0 219 -79q88 -79 95 -205q1 -14 -9 -24q-11 -11 -25 -11q-23 0 -24 19q-8 108 -83 176q-74 68 -185 68q-137 0 -255 -97q-118 -98 -147 -235l-82 -384h405q27 0 22 -27 q-6 -29 -33 -29h-405l-120 -562h700q27 0 21 -28q-6 -29 -33 -29h-729q-28 0 -22 27z" />
<glyph unicode="&#xa4;" horiz-adv-x="1114" d="M131 317l183 151q-60 127 -31 263q29 135 142 260l-120 151l100 83l120 -152q143 87 280 87q136 0 243 -87l183 152l64 -81l-184 -153q60 -124 31 -260q-29 -137 -142 -261l119 -153l-99 -81l-119 152q-144 -87 -279 -87q-137 0 -243 87l-184 -152zM385 731 q-29 -136 47 -232t211 -96t251 96t145 232q29 135 -46.5 231t-210.5 96t-251.5 -96t-145.5 -231z" />
<glyph unicode="&#xa5;" horiz-adv-x="1095" d="M244 226l22 103h284l35 163h-284l21 103h294l-267 910h127l219 -760l561 760h129l-673 -910h313l-21 -103h-302l-35 -163h302l-22 -103h-302l-48 -226h-117l48 226h-284z" />
<glyph unicode="&#xa6;" horiz-adv-x="356" d="M63 -411l167 788h56l-167 -788h-56zM302 714l167 788h56l-167 -788h-56z" />
<glyph unicode="&#xa7;" horiz-adv-x="1015" d="M46 -159l114 19q2 -163 142 -238q49 -27 127 -32q154 -11 280 89q62 50 94 116q49 101 16 178q-28 68 -122 114q-70 30 -156 57q-207 64 -269 132q-75 84 -44 234q40 184 191 281q30 18 122 61q-102 54 -129 83q-75 84 -44 234q40 184 191 281q88 56 200 74q55 9 112 7 q172 -6 253 -84q82 -81 77 -218l-119 -17q2 136 -118 202q-52 28 -128 28q-110 0 -206 -61q-109 -70 -136 -182q-15 -59 -7 -106q7 -45 34 -80q41 -53 101.5 -75t169.5 -53q222 -71 277 -179q18 -38 21 -84q3 -48 -12 -108q-28 -113 -124 -203q-61 -58 -200 -121 q142 -79 175 -143q18 -38 21 -84q3 -48 -12 -108q-28 -113 -124 -203q-87 -82 -213 -123q-95 -31 -181 -28q-378 10 -374 340zM347 434q7 -45 34 -80q41 -53 104 -76q35 -12 90 -29q151 -8 274 89q62 50 95 116q48 101 15 178q-28 68 -121 114q-38 16 -79 31q-31 6 -64 6 q-110 0 -206 -61q-108 -70 -135 -182q-15 -59 -7 -106z" />
<glyph unicode="&#xa8;" horiz-adv-x="637" d="M368 1263q4 18 20 31t35 13q18 0 27 -13q10 -13 6 -31q-3 -18 -19 -31t-33 -13q-19 0 -29 13t-7 31zM717 1262q4 19 19 32q16 13 35 13q18 0 28 -13t6 -32q-3 -17 -19 -30t-34 -13t-28 12q-11 13 -7 31z" />
<glyph unicode="&#xa9;" horiz-adv-x="1751" d="M100 717q0 202 104.5 389t290.5 287t381 100t381 -100t290 -287t104 -389q0 -200 -102 -385.5t-287 -287.5t-386 -102t-385.5 102t-287.5 287.5t-103 385.5zM173 717q0 -182 93.5 -348.5t260.5 -260t349 -93.5t349 93.5t260 260t93 348.5q0 183 -94.5 352t-262.5 260 t-345 91q-178 0 -345.5 -91t-262.5 -260t-95 -352zM502 629v166q0 165 113 281q114 117 276 117q138 0 241 -95q83 -78 101 -161l-57 -12q-14 64 -78 128q-84 80 -207 80q-136 0 -231 -98q-93 -96 -93 -234v-178q0 -137 93 -233q95 -99 231 -99q120 0 204 79q80 77 92 165 l59 -6q-15 -110 -115 -203q-102 -94 -240 -94q-162 0 -276 117q-113 116 -113 280z" />
<glyph unicode="&#xaa;" horiz-adv-x="861" d="M343 1144q26 123 141 210q116 88 253 88q138 0 216 -88q77 -87 51 -210l-58 -273q-2 -9 -11 -16q-11 -8 -24 -8h-2q-14 0 -21 8q-6 7 -4 16l28 130q-112 -154 -302 -154q-137 0 -215 88q-78 87 -52 209zM432 1144q-20 -93 38 -157q56 -64 156 -64t184 64q85 64 105 157 t-38 158q-57 64 -157 64t-183 -64q-85 -65 -105 -158z" />
<glyph unicode="&#xab;" horiz-adv-x="898" d="M247 693l434 322h75l-427 -322l290 -323h-75zM535 693l434 322h75l-427 -322l290 -323h-75z" />
<glyph unicode="&#xac;" horiz-adv-x="987" d="M278 695l13 61h727l-87 -406h-72l74 345h-655z" />
<glyph unicode="&#xad;" horiz-adv-x="692" d="M233 720v2q3 14 14 23t24 9h469q14 0 21 -9t4 -23v-2q-3 -13 -14 -22t-25 -9h-469q-13 0 -20 9t-4 22z" />
<glyph unicode="&#xae;" horiz-adv-x="1751" d="M100 727q0 202 104.5 389t290.5 287t381 100t381 -100t290 -287t104 -389q0 -200 -102 -385.5t-287 -287.5t-386 -102t-385.5 102t-287.5 287.5t-103 385.5zM173 727q0 -182 93.5 -348.5t260.5 -260t349 -93.5t349 93.5t260 260t93 348.5q0 183 -94.5 352t-262.5 260 t-345 91q-178 0 -345.5 -91t-262.5 -260t-95 -352zM615 211v966l353 -1q100 -1 171 -72q70 -71 70 -171q0 -114 -88 -189q-45 -38 -96.5 -48.5t-134.5 -7.5l304 -477h-65l-308 477h-139v-477h-67zM682 747h286q86 7 129 56q53 54 53 130q0 75 -53 129t-129 56h-286v-371z " />
<glyph unicode="&#xaf;" horiz-adv-x="832" d="M359 1313l1 2q2 14 13 23t24 9h469q14 0 21 -9t5 -23l-1 -2q-3 -13 -14 -22t-25 -9h-469q-13 0 -20 9t-4 22z" />
<glyph unicode="&#xb0;" horiz-adv-x="814" d="M336 1109q25 121 130 207q104 87 225 87h40q122 0 190 -87q67 -86 42 -207q-26 -121 -130 -207q-105 -86 -227 -86h-40q-121 0 -188 86q-68 86 -42 207zM397 1109q-21 -99 34 -168q56 -70 154 -70h27q98 0 183 70q85 69 106 168t-34 169t-153 70h-27q-98 0 -184 -70 q-85 -70 -106 -169z" />
<glyph unicode="&#xb1;" horiz-adv-x="1032" d="M112 151l1 2q2 14 13 23t24 9h809q14 0 21 -9t5 -23l-1 -2q-3 -13 -14 -22q-10 -9 -24 -9h-809q-13 0 -21 9q-7 9 -4 22zM259 840v2q3 14 14 23t24 9h373l79 373q3 13 14 22t24 9h2q14 0 21 -9t4 -22l-79 -373h371q14 0 21 -9t4 -23v-2q-3 -13 -14 -22t-25 -9h-371 l-79 -371q-3 -14 -14 -23t-25 -9h-2q-13 0 -20 9t-4 23l79 371h-373q-13 0 -20 9t-4 22z" />
<glyph unicode="&#xb2;" horiz-adv-x="699" d="M184 605l12 57q19 92 107 170q64 55 193 123q164 87 197 107q102 68 118 144q15 69 -27 116q-37 45 -104 45h-261q-20 0 -30 10q-7 9 -5 19v1q2 10 13 19q15 11 34 11h261q105 0 164 -65q56 -67 37 -156q-16 -76 -99 -141q-55 -44 -190 -113q-143 -73 -198 -115 q-103 -78 -129 -200h461q19 0 29 -12q8 -9 6 -18v-2q-2 -9 -13 -18q-16 -11 -35 -11h-508q-18 0 -28 11q-7 9 -5 18z" />
<glyph unicode="&#xb3;" horiz-adv-x="595" d="M184 605v2q2 9 16 20q12 10 30 10h182q73 0 136 48q66 52 81 126q16 74 -28 126q-42 48 -115 48h-153q-19 0 -27 10t-6 20v1q2 9 13 18q14 11 33 11l153 1q67 0 124 44q61 47 75 116q15 68 -25 116q-38 45 -105 45h-182q-18 0 -29 11q-7 8 -5 18v1q2 10 13 19 q15 11 33 11h182q104 0 165 -67q55 -65 36 -154q-21 -101 -154 -190q109 -92 85 -205q-20 -95 -111 -166q-91 -69 -202 -69h-182q-18 0 -28 11q-7 9 -5 18z" />
<glyph unicode="&#xb4;" horiz-adv-x="435" d="M412 1178l220 220h89l-243 -220h-66z" />
<glyph unicode="&#xb5;" d="M15 -402l296 1393q5 26 35 26q26 0 21 -26l-123 -577q-31 -146 51 -250q82 -103 228 -103t271 103q126 104 157 250l123 577q5 26 31 26h3q27 0 22 -26l-222 -1045q-6 -28 -34 -28t-22 28l55 259q-36 -43 -82 -81q-145 -121 -314 -121q-135 0 -226 80q-54 47 -84 128 l-130 -613q-6 -28 -34 -28t-22 28z" />
<glyph unicode="&#xb6;" horiz-adv-x="1008" d="M100 1043q0 146 98 259q103 129 268 143h486v-89h-87v-1357h-89v1357h-182v-1357h-99v642q-201 30 -297 143q-98 111 -98 259z" />
<glyph unicode="&#xb7;" horiz-adv-x="550" d="M254 723q4 21 22 35q17 15 38 15t31 -15q12 -14 7 -35q-4 -20 -22 -35q-17 -14 -37 -14q-21 0 -32 14q-12 15 -7 35z" />
<glyph unicode="&#xb8;" horiz-adv-x="549" d="M19 -385l1 4q6 19 22 19h58q117 0 178 36q60 37 71 91q8 36 -8 63q-19 28 -60 42q-17 6 -50 10q-19 3 -12 21l40 102h57l-34 -84q143 -26 116 -159q-17 -82 -104 -128q-72 -38 -161 -38h-100q-7 0 -14 7q-3 5 0 14z" />
<glyph unicode="&#xb9;" horiz-adv-x="377" d="M352 1396v1q2 10 13 19q15 11 33 11h187q19 0 30 -11q6 -8 4 -19l-168 -792q-3 -10 -15 -20q-13 -9 -32 -9h-2q-18 0 -27 9q-9 10 -6 20l162 762h-145q-18 0 -29 11q-7 8 -5 18z" />
<glyph unicode="&#xbb;" horiz-adv-x="907" d="M179 370l427 323l-290 322h75l296 -322l-433 -323h-75zM467 370l427 323l-290 322h75l296 -322l-433 -323h-75z" />
<glyph unicode="&#xbc;" horiz-adv-x="1540" d="M352 1396v1q2 10 13 19q15 11 33 11h187q19 0 30 -11q6 -8 4 -19l-168 -792q-3 -10 -15 -20q-13 -9 -32 -9h-2q-18 0 -27 9q-9 10 -6 20l162 762h-145q-18 0 -29 11q-7 8 -5 18zM372 -124l832 1636h48l-831 -1636h-49zM851 203l9 42q2 7 6 12l468 576q14 18 41 18h97 q19 0 30 -11q7 -9 5 -19l-125 -586h113q18 0 28 -12q7 -9 6 -18l-1 -2q-2 -10 -14 -20q-13 -9 -32 -9h-113l-31 -145q-2 -9 -12 -17q-16 -12 -35 -12h-1q-19 0 -29 12q-8 8 -6 17l31 145h-401q-18 0 -29 11q-7 9 -5 18zM938 235h361l128 604z" />
<glyph unicode="&#xbd;" horiz-adv-x="1452" d="M292 -124l832 1636h48l-831 -1636h-49zM352 1396v1q2 10 13 19q15 11 33 11h187q19 0 30 -11q6 -8 4 -19l-168 -792q-3 -10 -15 -20q-13 -9 -32 -9h-2q-18 0 -27 9q-9 10 -6 20l162 762h-145q-18 0 -29 11q-7 8 -5 18zM814 29l12 57q20 92 107 170q64 55 194 123 q164 87 196 107q103 68 119 144q15 69 -27 116q-38 45 -105 45h-261q-20 0 -30 10q-7 9 -5 19l1 1q2 10 13 19q15 11 34 11h261q105 0 163 -65q57 -67 38 -156q-16 -76 -99 -141q-55 -44 -190 -113q-144 -73 -199 -115q-102 -78 -128 -200h461q19 0 28 -12q9 -9 7 -18l-1 -2 q-2 -9 -13 -18q-15 -11 -34 -11h-508q-18 0 -29 11q-7 9 -5 18z" />
<glyph unicode="&#xbe;" horiz-adv-x="1758" d="M184 605v2q2 9 16 20q12 10 30 10h182q73 0 136 48q66 52 81 126q16 74 -28 126q-42 48 -115 48h-153q-19 0 -27 10t-6 20v1q2 9 13 18q14 11 33 11l153 1q67 0 124 44q61 47 75 116q15 68 -25 116q-38 45 -105 45h-182q-18 0 -29 11q-7 8 -5 18v1q2 10 13 19 q15 11 33 11h182q104 0 165 -67q55 -65 36 -154q-21 -101 -154 -190q109 -92 85 -205q-20 -95 -111 -166q-91 -69 -202 -69h-182q-18 0 -28 11q-7 9 -5 18zM510 -124l832 1636h48l-831 -1636h-49zM1069 203l9 42q2 7 6 12l468 576q14 18 41 18h97q19 0 30 -11q7 -9 5 -19 l-125 -586h113q18 0 28 -12q7 -9 6 -18l-1 -2q-2 -10 -14 -20q-13 -9 -32 -9h-113l-31 -145q-2 -9 -12 -17q-16 -12 -35 -12h-1q-19 0 -29 12q-8 8 -6 17l31 145h-401q-18 0 -29 11q-7 9 -5 18zM1156 235h361l128 604z" />
<glyph unicode="&#xbf;" horiz-adv-x="990" d="M100 -48q29 136 136 242q108 105 305 148l75 354q2 11 13 20q9 8 22 8h3q13 0 18 -8q7 -9 5 -22l-83 -387q-3 -13 -12 -20q-11 -10 -23 -10h-4q-134 0 -249 -95q-117 -96 -145 -230q-29 -134 47 -230q75 -95 209 -95q109 0 209 65q98 64 152 165q4 10 12 15q9 5 19 5h3 q15 0 21 -12q6 -11 -2 -25q-62 -121 -179 -197q-119 -77 -248 -77q-161 0 -250 112q-88 113 -54 274zM643 956q5 24 26 41t44 17q25 0 38 -17t8 -41t-26 -41q-20 -17 -45 -17q-24 0 -37 17t-8 41z" />
<glyph unicode="&#xc0;" horiz-adv-x="1091" d="M106 27l207 974q39 185 198 316q159 130 343 130t286 -130q103 -131 64 -316l-207 -974q-6 -27 -35 -27q-28 0 -22 27l121 571h-778l-121 -571q-6 -27 -32 -27q-30 0 -24 27zM295 655h778l74 346q34 161 -56 276q-89 114 -249 114q-161 0 -300 -114q-139 -115 -173 -276z M760 1831h89l126 -220h-66z" />
<glyph unicode="&#xc1;" horiz-adv-x="1091" d="M106 27l207 974q39 185 198 316q159 130 343 130t286 -130q103 -131 64 -316l-207 -974q-6 -27 -35 -27q-28 0 -22 27l121 571h-778l-121 -571q-6 -27 -32 -27q-30 0 -24 27zM295 655h778l74 346q34 161 -56 276q-89 114 -249 114q-161 0 -300 -114q-139 -115 -173 -276z M800 1611l220 220h89l-243 -220h-66z" />
<glyph unicode="&#xc2;" horiz-adv-x="1091" d="M106 27l207 974q39 185 198 316q159 130 343 130t286 -130q103 -131 64 -316l-207 -974q-6 -27 -35 -27q-28 0 -22 27l121 571h-778l-121 -571q-6 -27 -32 -27q-30 0 -24 27zM295 655h778l74 346q34 161 -56 276q-89 114 -249 114q-161 0 -300 -114q-139 -115 -173 -276z M580 1524q-2 7 5 13l291 241q4 3 9 3h79q5 0 7 -3l189 -241q3 -6 -1 -13q-5 -7 -13 -7h-27q-5 0 -7 3l-190 214q-6 7 -15 0l-282 -214q-4 -3 -9 -3h-27q-8 0 -9 7z" />
<glyph unicode="&#xc3;" horiz-adv-x="1091" d="M106 27l207 974q39 185 198 316q159 130 343 130t286 -130q103 -131 64 -316l-207 -974q-6 -27 -35 -27q-28 0 -22 27l121 571h-778l-121 -571q-6 -27 -32 -27q-30 0 -24 27zM295 655h778l74 346q34 161 -56 276q-89 114 -249 114q-161 0 -300 -114q-139 -115 -173 -276z M563 1558q-5 9 1 20q61 115 196 115q55 0 142 -41q88 -41 142 -41q88 0 124 73q9 18 26 17h9q11 0 16 -9t-1 -20q-57 -116 -182 -116q-63 0 -148 42q-85 41 -137 41q-92 0 -135 -76q-9 -15 -25 -15h-12q-11 0 -16 10z" />
<glyph unicode="&#xc4;" horiz-adv-x="1091" d="M106 27l207 974q39 185 198 316q159 130 343 130t286 -130q103 -131 64 -316l-207 -974q-6 -27 -35 -27q-28 0 -22 27l121 571h-778l-121 -571q-6 -27 -32 -27q-30 0 -24 27zM295 655h778l74 346q34 161 -56 276q-89 114 -249 114q-161 0 -300 -114q-139 -115 -173 -276z M687 1696q4 18 20 31t35 13q18 0 27 -13q10 -13 6 -31q-3 -18 -19 -31t-33 -13q-19 0 -29 13t-7 31zM1036 1695q4 19 19 32q16 13 35 13q18 0 28 -13t6 -32q-3 -17 -19 -30t-34 -13t-28 12q-11 13 -7 31z" />
<glyph unicode="&#xc5;" horiz-adv-x="1091" d="M106 27l207 974q39 185 198 316q159 130 343 130t286 -130q103 -131 64 -316l-207 -974q-6 -27 -35 -27q-28 0 -22 27l121 571h-778l-121 -571q-6 -27 -32 -27q-30 0 -24 27zM295 655h778l74 346q34 161 -56 276q-89 114 -249 114q-161 0 -300 -114q-139 -115 -173 -276z M644 1642q17 80 86 137q68 57 148 57h27q80 0 125 -57t28 -137t-86 -137t-149 -57h-27q-80 0 -124 57q-45 57 -28 137zM707 1642q-12 -57 20 -96q31 -40 87 -40h15q57 0 106 40q47 39 59 96q12 56 -19 96t-88 40h-15q-56 0 -105 -40q-48 -40 -60 -96z" />
<glyph unicode="&#xc6;" horiz-adv-x="1555" d="M106 27l207 974q39 185 198 316q159 130 343 130t286 -130q38 -48 56 -103q33 85 111 150q102 83 220 83h272q26 0 20 -27q-6 -29 -32 -29h-272q-94 0 -176 -67q-80 -67 -100 -161l-87 -412h497q28 0 22 -26q-6 -30 -34 -30h-497l-88 -411q-20 -94 32 -161 q53 -66 147 -66h272q26 0 20 -28q-6 -29 -32 -29h-272q-118 0 -184 83t-41 201l67 314h-778l-121 -571q-6 -27 -32 -27q-30 0 -24 27zM295 655h778l74 346q34 161 -56 276q-89 114 -249 114q-161 0 -300 -114q-139 -115 -173 -276z" />
<glyph unicode="&#xc7;" horiz-adv-x="1152" d="M254 724q63 299 321 511q257 212 557 212q131 0 241 -45q16 -6 12 -25q-4 -18 -17 -25q-8 -5 -16 -5q-6 0 -10 2q-103 42 -222 42q-276 0 -514 -196q-237 -195 -296 -471t96 -472q154 -195 430 -195q122 0 241 41q6 2 10 2q7 0 14 -5q9 -8 7 -22q-5 -22 -25 -29 q-129 -44 -259 -44q-300 0 -467 212t-103 512zM340 -385l1 4q6 19 22 19h58q117 0 178 36q60 37 71 91q8 36 -8 63q-19 28 -60 42q-17 6 -50 10q-19 3 -12 21l40 102h57l-34 -84q143 -26 116 -159q-17 -82 -104 -128q-72 -38 -161 -38h-100q-7 0 -14 7q-3 5 0 14z" />
<glyph unicode="&#xc8;" horiz-adv-x="733" d="M160 284l187 879q25 117 126 201q102 83 220 83h272q26 0 20 -27q-6 -29 -32 -29h-272q-94 0 -176 -67q-80 -67 -100 -161l-87 -412h497q28 0 22 -26q-6 -30 -34 -30h-497l-88 -411q-20 -94 32 -161q53 -66 147 -66h272q26 0 20 -28q-6 -29 -32 -29h-272q-118 0 -184 83 t-41 201zM562 1831h89l126 -220h-66z" />
<glyph unicode="&#xc9;" horiz-adv-x="733" d="M160 284l187 879q25 117 126 201q102 83 220 83h272q26 0 20 -27q-6 -29 -32 -29h-272q-94 0 -176 -67q-80 -67 -100 -161l-87 -412h497q28 0 22 -26q-6 -30 -34 -30h-497l-88 -411q-20 -94 32 -161q53 -66 147 -66h272q26 0 20 -28q-6 -29 -32 -29h-272q-118 0 -184 83 t-41 201zM587 1611l220 220h89l-243 -220h-66z" />
<glyph unicode="&#xca;" horiz-adv-x="733" d="M161 284l187 879q25 117 126 201q102 83 220 83h272q26 0 20 -27q-6 -29 -32 -29h-272q-94 0 -176 -67q-80 -67 -100 -161l-87 -412h497q28 0 22 -26q-6 -30 -34 -30h-497l-88 -411q-20 -94 32 -161q53 -66 147 -66h272q26 0 20 -28q-6 -29 -32 -29h-272q-118 0 -184 83 t-41 201zM488 1524q-2 7 5 13l291 241q4 3 9 3h79q5 0 7 -3l189 -241q3 -6 -1 -13q-5 -7 -13 -7h-27q-5 0 -7 3l-190 214q-6 7 -15 0l-282 -214q-4 -3 -9 -3h-27q-8 0 -9 7z" />
<glyph unicode="&#xcb;" horiz-adv-x="733" d="M160 284l187 879q25 117 126 201q102 83 220 83h272q26 0 20 -27q-6 -29 -32 -29h-272q-94 0 -176 -67q-80 -67 -100 -161l-87 -412h497q28 0 22 -26q-6 -30 -34 -30h-497l-88 -411q-20 -94 32 -161q53 -66 147 -66h272q26 0 20 -28q-6 -29 -32 -29h-272q-118 0 -184 83 t-41 201zM533 1696q4 18 20 31t35 13q18 0 27 -13q10 -13 6 -31q-3 -18 -19 -31t-33 -13q-19 0 -29 13t-7 31zM882 1695q4 19 19 32q16 13 35 13q18 0 28 -13t6 -32q-3 -17 -19 -30t-34 -13t-28 12q-11 13 -7 31z" />
<glyph unicode="&#xcc;" horiz-adv-x="370" d="M146 27l296 1393q6 27 34 27t22 -27l-296 -1393q-6 -27 -32 -27h-2q-28 0 -22 27zM339 1831h89l126 -220h-66z" />
<glyph unicode="&#xcd;" horiz-adv-x="341" d="M146 27l296 1393q6 27 34 27t22 -27l-296 -1393q-6 -27 -32 -27h-2q-28 0 -22 27zM364 1611l220 220h89l-243 -220h-66z" />
<glyph unicode="&#xce;" horiz-adv-x="356" d="M146 27l296 1393q6 27 34 27t22 -27l-296 -1393q-6 -27 -32 -27h-2q-28 0 -22 27zM203 1524q-2 7 5 13l291 241q4 3 9 3h79q5 0 7 -3l189 -241q3 -6 -1 -13q-5 -7 -13 -7h-27q-5 0 -7 3l-190 214q-6 7 -15 0l-282 -214q-4 -3 -9 -3h-27q-8 0 -9 7z" />
<glyph unicode="&#xcf;" horiz-adv-x="341" d="M146 27l296 1393q6 27 34 27t22 -27l-296 -1393q-6 -27 -32 -27h-2q-28 0 -22 27zM310 1696q4 18 20 31t35 13q18 0 27 -13q10 -13 6 -31q-3 -18 -19 -31t-33 -13q-19 0 -29 13t-7 31zM659 1695q4 19 19 32q16 13 35 13q18 0 28 -13t6 -32q-3 -17 -19 -30t-34 -13t-28 12 q-11 13 -7 31z" />
<glyph unicode="&#xd0;" horiz-adv-x="1373" d="M164 723q6 29 34 29h184l106 498q17 82 87 140q71 57 152 57h159q300 0 467 -212t104 -511q-64 -300 -322 -512q-257 -212 -557 -212h-159q-81 0 -127 58q-45 58 -28 139l106 498h-184q-28 0 -22 28zM321 197q-12 -58 20 -99t90 -41h159q276 0 514 195q236 196 295 472 t-95 471q-154 196 -430 196h-159q-58 0 -108 -41q-50 -42 -62 -100l-106 -498h536q26 0 20 -27v-2q-6 -28 -32 -28h-536z" />
<glyph unicode="&#xd1;" horiz-adv-x="1111" d="M116 27l207 974q39 185 197 316q159 130 343 130t287 -130q103 -131 64 -316l-207 -974q-6 -27 -34 -27h-2q-28 0 -22 27l207 974q34 161 -56 276q-89 114 -249 114q-161 0 -300 -114q-138 -115 -172 -276l-207 -974q-6 -27 -33 -27q-29 0 -23 27zM573 1558q-5 9 1 20 q61 115 196 115q55 0 142 -41q88 -41 142 -41q88 0 124 73q9 18 26 17h9q11 0 16 -9t-1 -20q-57 -116 -182 -116q-63 0 -148 42q-85 41 -137 41q-92 0 -135 -76q-9 -15 -25 -15h-12q-11 0 -16 10z" />
<glyph unicode="&#xd2;" horiz-adv-x="1587" d="M224 724q63 299 321 511q257 212 557 212q299 0 466 -212q166 -212 103 -511q-64 -300 -321 -512t-556 -212q-300 0 -467 212t-103 512zM280 724q-59 -276 96 -472q154 -195 430 -195q275 0 513 195q237 196 296 472t-96 471q-154 196 -429 196q-276 0 -514 -196 q-237 -195 -296 -471zM1008 1831h89l126 -220h-66z" />
<glyph unicode="&#xd3;" horiz-adv-x="1587" d="M224 724q63 299 321 511q257 212 557 212q299 0 466 -212q166 -212 103 -511q-64 -300 -321 -512t-556 -212q-300 0 -467 212t-103 512zM280 724q-59 -276 96 -472q154 -195 430 -195q275 0 513 195q237 196 296 472t-96 471q-154 196 -429 196q-276 0 -514 -196 q-237 -195 -296 -471zM1048 1611l220 220h89l-243 -220h-66z" />
<glyph unicode="&#xd4;" horiz-adv-x="1587" d="M224 724q63 299 321 511q257 212 557 212q299 0 466 -212q166 -212 103 -511q-64 -300 -321 -512t-556 -212q-300 0 -467 212t-103 512zM280 724q-59 -276 96 -472q154 -195 430 -195q275 0 513 195q237 196 296 472t-96 471q-154 196 -429 196q-276 0 -514 -196 q-237 -195 -296 -471zM828 1524q-2 7 5 13l291 241q4 3 9 3h79q5 0 7 -3l189 -241q3 -6 -1 -13q-5 -7 -13 -7h-27q-5 0 -7 3l-190 214q-6 7 -15 0l-282 -214q-4 -3 -9 -3h-27q-8 0 -9 7z" />
<glyph unicode="&#xd5;" horiz-adv-x="1587" d="M224 724q63 299 321 511q257 212 557 212q299 0 466 -212q166 -212 103 -511q-64 -300 -321 -512t-556 -212q-300 0 -467 212t-103 512zM280 724q-59 -276 96 -472q154 -195 430 -195q275 0 513 195q237 196 296 472t-96 471q-154 196 -429 196q-276 0 -514 -196 q-237 -195 -296 -471zM811 1558q-5 9 1 20q61 115 196 115q55 0 142 -41q88 -41 142 -41q88 0 124 73q9 18 26 17h9q11 0 16 -9t-1 -20q-57 -116 -182 -116q-63 0 -148 42q-85 41 -137 41q-92 0 -135 -76q-9 -15 -25 -15h-12q-11 0 -16 10z" />
<glyph unicode="&#xd6;" horiz-adv-x="1587" d="M224 724q63 299 321 511q257 212 557 212q299 0 466 -212q166 -212 103 -511q-64 -300 -321 -512t-556 -212q-300 0 -467 212t-103 512zM280 724q-59 -276 96 -472q154 -195 430 -195q275 0 513 195q237 196 296 472t-96 471q-154 196 -429 196q-276 0 -514 -196 q-237 -195 -296 -471zM935 1696q4 18 20 31t35 13q18 0 27 -13q10 -13 6 -31q-3 -18 -19 -31t-33 -13q-19 0 -29 13t-7 31zM1284 1695q4 19 19 32q16 13 35 13q18 0 28 -13t6 -32q-3 -17 -19 -30t-34 -13t-28 12q-11 13 -7 31z" />
<glyph unicode="&#xd7;" horiz-adv-x="737" d="M143 436q2 13 13 22l320 264l-207 264q-8 9 -5 22t14 22l1 1q12 10 25 10t20 -9l208 -264l318 262q12 10 25 10t20 -10l2 -1q7 -9 4 -22t-15 -23l-318 -262l207 -262q8 -10 5 -23t-15 -23l-2 -1q-10 -9 -23 -9t-21 10l-206 262l-320 -264q-11 -9 -24 -9t-20 9l-1 2 q-8 9 -5 22z" />
<glyph unicode="&#xd8;" horiz-adv-x="1587" d="M224 724q63 299 321 511q257 212 557 212q166 0 290 -65l106 148l45 -25l-107 -149q74 -48 132 -121q166 -212 103 -511q-64 -300 -321 -512t-556 -212q-162 0 -285 62l-139 -195l-46 25l139 195q-76 49 -136 125q-167 212 -103 512zM280 724q-59 -276 96 -472 q55 -69 124 -114l856 1194q-115 59 -266 59q-276 0 -514 -196q-237 -195 -296 -471zM546 113q112 -56 260 -56q275 0 513 195q237 196 296 472t-96 471q-53 67 -118 111z" />
<glyph unicode="&#xd9;" horiz-adv-x="1131" d="M215 445l207 975q6 27 34 27t22 -27l-207 -975q-35 -161 56 -275q90 -113 251 -113q160 0 298 113q138 114 173 275l207 975q6 27 34 27q29 0 23 -27l-207 -975q-40 -184 -198 -314q-158 -131 -342 -131q-185 0 -287 131q-104 130 -64 314zM780 1831h89l126 -220h-66z " />
<glyph unicode="&#xda;" horiz-adv-x="1131" d="M215 445l207 975q6 27 34 27t22 -27l-207 -975q-35 -161 56 -275q90 -113 251 -113q160 0 298 113q138 114 173 275l207 975q6 27 34 27q29 0 23 -27l-207 -975q-40 -184 -198 -314q-158 -131 -342 -131q-185 0 -287 131q-104 130 -64 314zM820 1611l220 220h89 l-243 -220h-66z" />
<glyph unicode="&#xdb;" horiz-adv-x="1131" d="M215 445l207 975q6 27 34 27t22 -27l-207 -975q-35 -161 56 -275q90 -113 251 -113q160 0 298 113q138 114 173 275l207 975q6 27 34 27q29 0 23 -27l-207 -975q-40 -184 -198 -314q-158 -131 -342 -131q-185 0 -287 131q-104 130 -64 314zM600 1524q-2 7 5 13l291 241 q4 3 9 3h79q5 0 7 -3l189 -241q3 -6 -1 -13q-5 -7 -13 -7h-27q-5 0 -7 3l-190 214q-6 7 -15 0l-282 -214q-4 -3 -9 -3h-27q-8 0 -9 7z" />
<glyph unicode="&#xdc;" horiz-adv-x="1131" d="M215 445l207 975q6 27 34 27t22 -27l-207 -975q-35 -161 56 -275q90 -113 251 -113q160 0 298 113q138 114 173 275l207 975q6 27 34 27q29 0 23 -27l-207 -975q-40 -184 -198 -314q-158 -131 -342 -131q-185 0 -287 131q-104 130 -64 314zM707 1696q4 18 20 31t35 13 q18 0 27 -13q10 -13 6 -31q-3 -18 -19 -31t-33 -13q-19 0 -29 13t-7 31zM1056 1695q4 19 19 32q16 13 35 13q18 0 28 -13t6 -32q-3 -17 -19 -30t-34 -13t-28 12q-11 13 -7 31z" />
<glyph unicode="&#xdd;" horiz-adv-x="1091" d="M302 951l100 469q6 27 34 27q30 0 24 -27l-100 -469q-34 -161 55 -275t250 -114q160 0 299 114q138 114 172 275l100 469q6 27 34 27q29 0 23 -27l-100 -469q-34 -161 -162 -284t-292 -153l-58 -11l-101 -476q-6 -27 -33 -27q-30 0 -24 27l101 476l-54 11 q-150 30 -226 153q-76 124 -42 284zM800 1611l220 220h89l-243 -220h-66z" />
<glyph unicode="&#xde;" horiz-adv-x="1141" d="M177 31l294 1385q3 14 14 22q11 9 24 9h3q13 0 20 -9q7 -8 4 -22l-64 -301h426q164 0 255 -115q90 -115 55 -278q-34 -164 -174 -279q-139 -115 -303 -115h-426l-63 -297q-3 -13 -14 -22t-24 -9h-3q-13 0 -20 9t-4 22zM319 393h426q135 0 252 96q118 97 146 233 q29 135 -47 232q-77 96 -212 96h-426z" />
<glyph unicode="&#xdf;" horiz-adv-x="933" d="M106 27l260 1223q17 82 87 140q71 57 152 57h148q150 0 234 -106q84 -107 52 -258q-36 -171 -189 -278q-43 -31 -101 -55q51 -26 80 -53q127 -118 86 -310q-34 -160 -172 -273q-138 -114 -298 -114h-19q-28 0 -22 27q6 30 34 30h19q136 0 254 97q117 97 146 233 q30 138 -47 235q-76 97 -212 97h-62q-26 0 -20 28q6 29 32 29h62q126 0 235 90t136 217t-43 218q-71 90 -197 90h-148q-58 0 -108 -41q-51 -42 -63 -100l-260 -1223q-6 -27 -32 -27q-30 0 -24 27z" />
<glyph unicode="&#xe0;" horiz-adv-x="1194" d="M188 507q44 210 225 358q180 149 390 149t326 -149q117 -148 73 -358l-102 -480q-6 -27 -33 -27h-3q-26 0 -20 27l52 246q-66 -87 -147 -146q-169 -127 -362 -127q-210 0 -326 149q-118 148 -73 358zM244 507q-40 -186 65 -318q104 -132 290 -132t346 132 q161 132 201 318q39 186 -66 318q-104 131 -290 131t-346 -131q-161 -132 -200 -318zM709 1398h89l126 -220h-66z" />
<glyph unicode="&#xe1;" horiz-adv-x="1194" d="M188 507q44 210 225 358q180 149 390 149t326 -149q117 -148 73 -358l-102 -480q-6 -27 -33 -27h-3q-26 0 -20 27l52 246q-66 -87 -147 -146q-169 -127 -362 -127q-210 0 -326 149q-118 148 -73 358zM244 507q-40 -186 65 -318q104 -132 290 -132t346 132 q161 132 201 318q39 186 -66 318q-104 131 -290 131t-346 -131q-161 -132 -200 -318zM750 1178l220 220h89l-243 -220h-66z" />
<glyph unicode="&#xe2;" horiz-adv-x="1194" d="M188 507q44 210 225 358q180 149 390 149t326 -149q117 -148 73 -358l-102 -480q-6 -27 -33 -27h-3q-26 0 -20 27l52 246q-66 -87 -147 -146q-169 -127 -362 -127q-210 0 -326 149q-118 148 -73 358zM244 507q-40 -186 65 -318q104 -132 290 -132t346 132 q161 132 201 318q39 186 -66 318q-104 131 -290 131t-346 -131q-161 -132 -200 -318zM529 1091q-2 7 5 13l291 241q4 3 9 3h79q5 0 7 -3l189 -241q3 -6 -1 -13q-5 -7 -13 -7h-27q-5 0 -7 3l-190 214q-6 7 -15 0l-282 -214q-4 -3 -9 -3h-27q-8 0 -9 7z" />
<glyph unicode="&#xe3;" horiz-adv-x="1194" d="M188 507q44 210 225 358q180 149 390 149t326 -149q117 -148 73 -358l-102 -480q-6 -27 -33 -27h-3q-26 0 -20 27l52 246q-66 -87 -147 -146q-169 -127 -362 -127q-210 0 -326 149q-118 148 -73 358zM244 507q-40 -186 65 -318q104 -132 290 -132t346 132 q161 132 201 318q39 186 -66 318q-104 131 -290 131t-346 -131q-161 -132 -200 -318zM512 1125q-5 9 1 20q61 115 196 115q55 0 142 -41q88 -41 142 -41q88 0 124 73q9 18 26 17h9q11 0 16 -9t-1 -20q-57 -116 -182 -116q-63 0 -148 42q-85 41 -137 41q-92 0 -135 -76 q-9 -15 -25 -15h-12q-11 0 -16 10z" />
<glyph unicode="&#xe4;" horiz-adv-x="1194" d="M188 507q44 210 225 358q180 149 390 149t326 -149q117 -148 73 -358l-102 -480q-6 -27 -33 -27h-3q-26 0 -20 27l52 246q-66 -87 -147 -146q-169 -127 -362 -127q-210 0 -326 149q-118 148 -73 358zM244 507q-40 -186 65 -318q104 -132 290 -132t346 132 q161 132 201 318q39 186 -66 318q-104 131 -290 131t-346 -131q-161 -132 -200 -318zM637 1263q4 18 20 31t35 13q18 0 27 -13q10 -13 6 -31q-3 -18 -19 -31t-33 -13q-19 0 -29 13t-7 31zM986 1262q4 19 19 32q16 13 35 13q18 0 28 -13t6 -32q-3 -17 -19 -30t-34 -13t-28 12 q-11 13 -7 31z" />
<glyph unicode="&#xe5;" horiz-adv-x="1194" d="M188 507q44 210 225 358q180 149 390 149t326 -149q117 -148 73 -358l-102 -480q-6 -27 -33 -27h-3q-26 0 -20 27l52 246q-66 -87 -147 -146q-169 -127 -362 -127q-210 0 -326 149q-118 148 -73 358zM244 507q-40 -186 65 -318q104 -132 290 -132t346 132 q161 132 201 318q39 186 -66 318q-104 131 -290 131t-346 -131q-161 -132 -200 -318zM637 1209q17 80 86 137q68 57 148 57h27q80 0 125 -57t28 -137t-86 -137t-149 -57h-27q-80 0 -124 57q-45 57 -28 137zM700 1209q-12 -57 20 -96q31 -40 87 -40h15q57 0 106 40 q47 39 59 96q12 56 -19 96t-88 40h-15q-56 0 -105 -40q-48 -40 -60 -96z" />
<glyph unicode="&#xe6;" horiz-adv-x="2082" d="M188 507q44 210 225 358q180 149 390 149t326 -149q66 -84 81 -187q58 103 160 187q181 149 391 149q147 0 255 -81q108 -80 142 -215q2 -11 -4 -20q-6 -12 -16 -16q-151 -61 -426 -175q-281 -116 -426 -175q-15 -6 -40 -17q-25 -10 -39 -16q9 -40 31 -73 q98 -172 318 -172q143 0 278 84q135 83 211 218q11 19 32 19q14 0 19 -11q6 -12 -1 -26q-86 -151 -238 -245q-152 -93 -312 -93q-210 0 -327 149q-45 57 -66 123l-52 -246q-6 -27 -33 -27h-3q-26 0 -20 27l52 247q-66 -87 -147 -146q-169 -127 -362 -127q-210 0 -326 149 q-118 148 -73 358zM244 507q-40 -186 65 -318q104 -132 290 -132t346 132q161 132 201 318q39 186 -66 318q-104 131 -290 131t-346 -131q-161 -132 -200 -318zM1191 439q-3 -45 3 -89q151 62 451 186q297 122 450 185q-17 42 -37 73q-102 160 -310 160q-187 0 -347 -132 t-200 -318q-7 -33 -10 -65z" />
<glyph unicode="&#xe7;" horiz-adv-x="849" d="M208 507q44 210 225 358q180 149 390 149q75 0 147 -24q18 -6 14 -25l-1 -6q-3 -14 -16 -22q-9 -6 -15 -6q-3 0 -8 2q-62 21 -134 21q-186 0 -346 -132q-161 -132 -201 -318q-39 -186 66 -318q103 -132 289 -132q72 0 142 21q6 2 9 2q7 0 14 -6q9 -8 7 -21 q-5 -21 -24 -26q-80 -24 -159 -24q-210 0 -326 149q-118 148 -73 358zM337 -380l1 4q6 19 22 19h58q117 0 178 36q60 37 71 91q8 36 -7 63q-20 28 -61 42q-17 6 -49 10q-20 3 -13 21l40 102h57l-34 -84q143 -26 116 -159q-17 -82 -104 -128q-72 -38 -161 -38h-100 q-7 0 -14 7q-3 5 0 14z" />
<glyph unicode="&#xe8;" horiz-adv-x="1150" d="M188 507q44 210 225 358q180 149 390 149q148 0 255 -81q108 -80 142 -215q2 -11 -3 -20q-6 -12 -16 -16q-151 -61 -427 -175q-281 -116 -425 -175q-16 -6 -40 -17l-40 -16q9 -40 31 -73q99 -172 318 -172q143 0 278 84q135 83 212 218q10 19 32 19q14 0 18 -11 q7 -12 -1 -26q-85 -151 -237 -245q-152 -93 -313 -93q-210 0 -326 149q-118 148 -73 358zM233 439q-3 -45 4 -89q150 62 451 186q297 122 450 185q-17 42 -38 73q-102 160 -310 160q-186 0 -346 -132q-161 -132 -201 -318q-7 -33 -10 -65zM696 1398h89l126 -220h-66z" />
<glyph unicode="&#xe9;" horiz-adv-x="1150" d="M188 507q44 210 225 358q180 149 390 149q148 0 255 -81q108 -80 142 -215q2 -11 -3 -20q-6 -12 -16 -16q-151 -61 -427 -175q-281 -116 -425 -175q-16 -6 -40 -17l-40 -16q9 -40 31 -73q99 -172 318 -172q143 0 278 84q135 83 212 218q10 19 32 19q14 0 18 -11 q7 -12 -1 -26q-85 -151 -237 -245q-152 -93 -313 -93q-210 0 -326 149q-118 148 -73 358zM233 439q-3 -45 4 -89q150 62 451 186q297 122 450 185q-17 42 -38 73q-102 160 -310 160q-186 0 -346 -132q-161 -132 -201 -318q-7 -33 -10 -65zM736 1178l220 220h89l-243 -220 h-66z" />
<glyph unicode="&#xea;" horiz-adv-x="1150" d="M188 507q44 210 225 358q180 149 390 149q148 0 255 -81q108 -80 142 -215q2 -11 -3 -20q-6 -12 -16 -16q-151 -61 -427 -175q-281 -116 -425 -175q-16 -6 -40 -17l-40 -16q9 -40 31 -73q99 -172 318 -172q143 0 278 84q135 83 212 218q10 19 32 19q14 0 18 -11 q7 -12 -1 -26q-85 -151 -237 -245q-152 -93 -313 -93q-210 0 -326 149q-118 148 -73 358zM233 439q-3 -45 4 -89q150 62 451 186q297 122 450 185q-17 42 -38 73q-102 160 -310 160q-186 0 -346 -132q-161 -132 -201 -318q-7 -33 -10 -65zM516 1091q-2 7 5 13l291 241 q4 3 9 3h79q5 0 7 -3l189 -241q3 -6 -1 -13q-5 -7 -13 -7h-27q-5 0 -7 3l-190 214q-6 7 -15 0l-282 -214q-4 -3 -9 -3h-27q-8 0 -9 7z" />
<glyph unicode="&#xeb;" horiz-adv-x="1150" d="M188 507q44 210 225 358q180 149 390 149q148 0 255 -81q108 -80 142 -215q2 -11 -3 -20q-6 -12 -16 -16q-151 -61 -427 -175q-281 -116 -425 -175q-16 -6 -40 -17l-40 -16q9 -40 31 -73q99 -172 318 -172q143 0 278 84q135 83 212 218q10 19 32 19q14 0 18 -11 q7 -12 -1 -26q-85 -151 -237 -245q-152 -93 -313 -93q-210 0 -326 149q-118 148 -73 358zM233 439q-3 -45 4 -89q150 62 451 186q297 122 450 185q-17 42 -38 73q-102 160 -310 160q-186 0 -346 -132q-161 -132 -201 -318q-7 -33 -10 -65zM623 1263q4 18 20 31t35 13 q18 0 27 -13q10 -13 6 -31q-3 -18 -19 -31t-33 -13q-19 0 -29 13t-7 31zM972 1262q4 19 19 32q16 13 35 13q18 0 28 -13t6 -32q-3 -17 -19 -30t-34 -13t-28 12q-11 13 -7 31z" />
<glyph unicode="&#xec;" horiz-adv-x="306" d="M136 27l204 959q6 28 33 28q29 0 23 -28l-204 -959q-6 -27 -32 -27h-3q-27 0 -21 27zM281 1398h89l126 -220h-66z" />
<glyph unicode="&#xed;" horiz-adv-x="306" d="M136 27l204 959q6 28 33 28q29 0 23 -28l-204 -959q-6 -27 -32 -27h-3q-27 0 -21 27zM321 1178l220 220h89l-243 -220h-66z" />
<glyph unicode="&#xee;" horiz-adv-x="289" d="M101 1091q-2 7 5 13l291 241q4 3 9 3h79q5 0 7 -3l189 -241q3 -6 -1 -13q-5 -7 -13 -7h-27q-5 0 -7 3l-190 214q-6 7 -15 0l-282 -214q-4 -3 -9 -3h-27q-8 0 -9 7zM136 27l204 959q6 28 33 28q29 0 23 -28l-204 -959q-6 -27 -32 -27h-3q-27 0 -21 27z" />
<glyph unicode="&#xef;" horiz-adv-x="283" d="M136 27l204 959q6 28 33 28q29 0 23 -28l-204 -959q-6 -27 -32 -27h-3q-27 0 -21 27zM208 1263q4 18 20 31t35 13q18 0 27 -13q10 -13 6 -31q-3 -18 -19 -31t-33 -13q-19 0 -29 13t-7 31zM557 1262q4 19 19 32q16 13 35 13q18 0 28 -13t6 -32q-3 -17 -19 -30t-34 -13 t-28 12q-11 13 -7 31z" />
<glyph unicode="&#xf0;" horiz-adv-x="1214" d="M208 507q44 210 225 358q180 149 390 149q227 0 342 -170q-46 257 -225 417l-138 -120q-10 -8 -16 0l-17 18q-6 8 4 16l131 116q-77 60 -173 103q-4 2 -5 7q-1 4 3 9l19 25q6 9 15 6q107 -43 190 -108l122 106q10 8 17 0l16 -18q6 -8 -3 -16l-116 -101q209 -183 244 -497 q17 -156 -7 -276q-2 -13 -4 -24q-45 -210 -225 -358q-180 -149 -390 -149t-326 149q-118 148 -73 358zM263 504q-39 -186 66 -318q103 -132 289 -132t347 132t200 318q2 7 3 17v-1q1 7 3 20q23 174 -81 294q-103 120 -280 120q-186 0 -346 -132q-161 -132 -201 -318z" />
<glyph unicode="&#xf1;" d="M106 27l122 577q37 170 182 290q147 120 316 120t263 -120q95 -120 58 -290l-122 -577q-6 -27 -32 -27h-4q-26 0 -20 27l122 577q31 146 -51 249q-81 103 -227 103t-272 -103t-157 -249l-122 -577q-6 -27 -32 -27q-30 0 -24 27zM435 1125q-5 9 1 20q61 115 196 115 q55 0 142 -41q88 -41 142 -41q88 0 124 73q9 18 26 17h9q11 0 16 -9t-1 -20q-57 -116 -182 -116q-63 0 -148 42q-85 41 -137 41q-92 0 -135 -76q-9 -15 -25 -15h-12q-11 0 -16 10z" />
<glyph unicode="&#xf2;" horiz-adv-x="1154" d="M178 507q44 210 225 358q180 149 390 149t326 -149q117 -148 73 -358q-45 -210 -225 -358q-180 -149 -390 -149t-326 149q-118 148 -73 358zM233 504q-39 -186 66 -318q103 -132 289 -132t347 132t200 318q40 186 -65 318q-104 132 -290 132t-346 -132 q-161 -132 -201 -318zM699 1398h89l126 -220h-66z" />
<glyph unicode="&#xf3;" horiz-adv-x="1154" d="M178 507q44 210 225 358q180 149 390 149t326 -149q117 -148 73 -358q-45 -210 -225 -358q-180 -149 -390 -149t-326 149q-118 148 -73 358zM233 504q-39 -186 66 -318q103 -132 289 -132t347 132t200 318q40 186 -65 318q-104 132 -290 132t-346 -132 q-161 -132 -201 -318zM740 1178l220 220h89l-243 -220h-66z" />
<glyph unicode="&#xf4;" horiz-adv-x="1154" d="M178 507q44 210 225 358q180 149 390 149t326 -149q117 -148 73 -358q-45 -210 -225 -358q-180 -149 -390 -149t-326 149q-118 148 -73 358zM233 504q-39 -186 66 -318q103 -132 289 -132t347 132t200 318q40 186 -65 318q-104 132 -290 132t-346 -132 q-161 -132 -201 -318zM519 1091q-2 7 5 13l291 241q4 3 9 3h79q5 0 7 -3l189 -241q3 -6 -1 -13q-5 -7 -13 -7h-27q-5 0 -7 3l-190 214q-6 7 -15 0l-282 -214q-4 -3 -9 -3h-27q-8 0 -9 7z" />
<glyph unicode="&#xf5;" horiz-adv-x="1154" d="M178 507q44 210 225 358q180 149 390 149t326 -149q117 -148 73 -358q-45 -210 -225 -358q-180 -149 -390 -149t-326 149q-118 148 -73 358zM233 504q-39 -186 66 -318q103 -132 289 -132t347 132t200 318q40 186 -65 318q-104 132 -290 132t-346 -132 q-161 -132 -201 -318zM502 1125q-5 9 1 20q61 115 196 115q55 0 142 -41q88 -41 142 -41q88 0 124 73q9 18 26 17h9q11 0 16 -9t-1 -20q-57 -116 -182 -116q-63 0 -148 42q-85 41 -137 41q-92 0 -135 -76q-9 -15 -25 -15h-12q-11 0 -16 10z" />
<glyph unicode="&#xf6;" horiz-adv-x="1154" d="M178 507q44 210 225 358q180 149 390 149t326 -149q117 -148 73 -358q-45 -210 -225 -358q-180 -149 -390 -149t-326 149q-118 148 -73 358zM233 504q-39 -186 66 -318q103 -132 289 -132t347 132t200 318q40 186 -65 318q-104 132 -290 132t-346 -132 q-161 -132 -201 -318zM627 1263q4 18 20 31t35 13q18 0 27 -13q10 -13 6 -31q-3 -18 -19 -31t-33 -13q-19 0 -29 13t-7 31zM976 1262q4 19 19 32q16 13 35 13q18 0 28 -13t6 -32q-3 -17 -19 -30t-34 -13t-28 12q-11 13 -7 31z" />
<glyph unicode="&#xf7;" horiz-adv-x="832" d="M233 720v2q3 14 14 23t24 9h609q14 0 21 -9t4 -23v-2q-3 -13 -14 -22t-25 -9h-609q-13 0 -20 9t-4 22zM437 372q5 25 26 42t46 17q23 0 36 -17q13 -18 8 -42q-5 -23 -25 -40q-21 -17 -44 -17q-25 0 -39 16q-13 17 -8 41zM585 1070q6 24 26 41q21 17 46 17q23 0 36 -17 q14 -17 8 -41q-5 -24 -25 -41q-21 -17 -44 -17q-25 0 -38 17q-14 17 -9 41z" />
<glyph unicode="&#xf8;" horiz-adv-x="1154" d="M178 507q44 210 225 358q180 149 390 149q66 0 121 -15l114 223h58l-122 -239q91 -37 155 -118q117 -148 73 -358q-45 -210 -225 -358q-180 -149 -390 -149q-57 0 -107 11l-120 -236h-58l127 250q-100 37 -168 124q-118 148 -73 358zM233 504q-39 -186 66 -318 q59 -76 147 -108l439 864q-48 12 -105 12q-186 0 -346 -132q-161 -132 -201 -318zM496 63q43 -9 92 -9q186 0 347 132t200 318q40 186 -65 318q-56 71 -135 103z" />
<glyph unicode="&#xf9;" d="M187 409l123 577q6 28 34 28t22 -28l-123 -577q-31 -146 51 -249t228 -103t271 103q126 103 157 249l123 577q6 28 32 28q30 0 24 -28l-123 -577q-36 -169 -181 -289q-146 -120 -315 -120t-264 120t-59 289zM632 1398h89l126 -220h-66z" />
<glyph unicode="&#xfa;" d="M187 409l123 577q6 28 34 28t22 -28l-123 -577q-31 -146 51 -249t228 -103t271 103q126 103 157 249l123 577q6 28 32 28q30 0 24 -28l-123 -577q-36 -169 -181 -289q-146 -120 -315 -120t-264 120t-59 289zM672 1178l220 220h89l-243 -220h-66z" />
<glyph unicode="&#xfb;" d="M187 409l123 577q6 28 34 28t22 -28l-123 -577q-31 -146 51 -249t228 -103t271 103q126 103 157 249l123 577q6 28 32 28q30 0 24 -28l-123 -577q-36 -169 -181 -289q-146 -120 -315 -120t-264 120t-59 289zM452 1091q-2 7 5 13l291 241q4 3 9 3h79q5 0 7 -3l189 -241 q3 -6 -1 -13q-5 -7 -13 -7h-27q-5 0 -7 3l-190 214q-6 7 -15 0l-282 -214q-4 -3 -9 -3h-27q-8 0 -9 7z" />
<glyph unicode="&#xfc;" d="M187 409l123 577q6 28 34 28t22 -28l-123 -577q-31 -146 51 -249t228 -103t271 103q126 103 157 249l123 577q6 28 32 28q30 0 24 -28l-123 -577q-36 -169 -181 -289q-146 -120 -315 -120t-264 120t-59 289zM559 1263q4 18 20 31t35 13q18 0 27 -13q10 -13 6 -31 q-3 -18 -19 -31t-33 -13q-19 0 -29 13t-7 31zM908 1262q4 19 19 32q16 13 35 13q18 0 28 -13t6 -32q-3 -17 -19 -30t-34 -13t-28 12q-11 13 -7 31z" />
<glyph unicode="&#xfd;" d="M76 -209q-4 11 2 21q9 13 18 17l4 1l3 1q5 1 9 1q16 0 20 -14q29 -90 110 -143t187 -53q143 0 270 104q127 105 157 248l54 252q-63 -79 -137 -125q-126 -80 -260 -80q-169 0 -263 120q-95 120 -58 290l117 554q6 27 33 27q29 0 23 -27l-117 -554q-31 -146 50 -250 q82 -103 228 -103t270 103q126 103 157 248l118 556q6 27 33 27q30 0 24 -27l-215 -1011q-34 -164 -184 -287q-149 -123 -313 -123q-127 0 -218 61q-92 61 -122 166zM672 1178l220 220h89l-243 -220h-66z" />
<glyph unicode="&#xfe;" horiz-adv-x="1184" d="M13 -408l389 1828q6 27 34 27t22 -27l-145 -681q49 67 120 125q180 148 389 148q210 0 327 -148q117 -149 72 -359q-44 -209 -225 -358q-179 -149 -389 -149q-193 0 -309 127q-47 52 -84 148l-145 -681q-6 -28 -33 -28h-2q-27 0 -21 28zM264 508q-40 -187 65 -319 q104 -132 290 -132t346 132t200 319q40 186 -64 318t-290 132t-346 -132q-161 -132 -201 -318z" />
<glyph unicode="&#xff;" d="M76 -209q-4 11 2 21q9 13 18 17l4 1l3 1q5 1 9 1q16 0 20 -14q29 -90 110 -143t187 -53q143 0 270 104q127 105 157 248l54 252q-63 -79 -137 -125q-126 -80 -260 -80q-169 0 -263 120q-95 120 -58 290l117 554q6 27 33 27q29 0 23 -27l-117 -554q-31 -146 50 -250 q82 -103 228 -103t270 103q126 103 157 248l118 556q6 27 33 27q30 0 24 -27l-215 -1011q-34 -164 -184 -287q-149 -123 -313 -123q-127 0 -218 61q-92 61 -122 166zM559 1263q4 18 20 31t35 13q18 0 27 -13q10 -13 6 -31q-3 -18 -19 -31t-33 -13q-19 0 -29 13t-7 31z M908 1262q4 19 19 32q16 13 35 13q18 0 28 -13t6 -32q-3 -17 -19 -30t-34 -13t-28 12q-11 13 -7 31z" />
<glyph unicode="&#x152;" horiz-adv-x="2114" d="M224 724q63 299 321 511q257 212 557 212q299 0 466 -212q82 -105 108 -231l34 159q25 118 127 201q101 84 219 84h272q26 0 20 -28q-6 -29 -32 -29h-272q-94 0 -175 -67q-81 -66 -101 -161l-87 -411h498q27 0 21 -27q-6 -30 -33 -30h-498l-88 -411q-20 -94 33 -160 q52 -67 146 -67h272q26 0 20 -28t-32 -28h-272q-118 0 -183 83q-67 83 -42 200l34 160q-80 -127 -207 -232q-257 -212 -556 -212q-300 0 -467 212t-103 512zM280 724q-59 -276 96 -472q154 -195 430 -195q275 0 513 195q237 196 296 472t-96 471q-154 196 -429 196 q-276 0 -514 -196q-237 -195 -296 -471z" />
<glyph unicode="&#x153;" horiz-adv-x="2081" d="M178 507q44 210 225 358q180 149 390 149t326 -149q66 -83 81 -186q58 103 160 186q180 149 390 149q148 0 255 -81q108 -80 142 -215q2 -11 -3 -20q-6 -12 -16 -16q-151 -62 -427 -175q-281 -116 -425 -175q-16 -6 -40 -17l-40 -16q9 -40 31 -73q99 -172 318 -172 q143 0 278 84q135 83 212 218q10 19 32 19q14 0 18 -11q7 -12 -1 -26q-85 -151 -237 -245q-152 -93 -313 -93q-210 0 -326 149q-67 83 -81 186q-59 -103 -160 -186q-180 -149 -390 -149t-326 149q-118 148 -73 358zM233 504q-39 -186 66 -318q103 -132 289 -132t347 132 q151 124 195 296q2 12 5 25l4 22q29 170 -69 293q-104 132 -290 132t-346 -132q-161 -132 -201 -318zM1180 439q-3 -45 4 -89q150 62 451 186q297 122 450 185q-17 42 -38 73q-102 160 -310 160q-186 0 -346 -132q-150 -123 -195 -293l-4 -22q-3 -13 -7 -25q-3 -22 -5 -43z " />
<glyph unicode="&#x178;" horiz-adv-x="1091" d="M302 951l100 469q6 27 34 27q30 0 24 -27l-100 -469q-34 -161 55 -275t250 -114q160 0 299 114q138 114 172 275l100 469q6 27 34 27q29 0 23 -27l-100 -469q-34 -161 -162 -284t-292 -153l-58 -11l-101 -476q-6 -27 -33 -27q-30 0 -24 27l101 476l-54 11 q-150 30 -226 153q-76 124 -42 284zM687 1696q4 18 20 31t35 13q18 0 27 -13q10 -13 6 -31q-3 -18 -19 -31t-33 -13q-19 0 -29 13t-7 31zM1036 1695q4 19 19 32q16 13 35 13q18 0 28 -13t6 -32q-3 -17 -19 -30t-34 -13t-28 12q-11 13 -7 31z" />
<glyph unicode="&#x2c6;" horiz-adv-x="785" d="M335 1091q-2 7 5 13l291 241q4 3 9 3h79q5 0 7 -3l189 -241q3 -6 -1 -13q-5 -7 -13 -7h-27q-5 0 -7 3l-190 214q-6 7 -15 0l-282 -214q-4 -3 -9 -3h-27q-8 0 -9 7z" />
<glyph unicode="&#x2dc;" horiz-adv-x="841" d="M346 1125q-5 9 1 20q61 115 196 115q55 0 142 -41q88 -41 142 -41q88 0 124 73q9 18 26 17h9q11 0 16 -9t-1 -20q-57 -116 -182 -116q-63 0 -148 42q-85 41 -137 41q-92 0 -135 -76q-9 -15 -25 -15h-12q-11 0 -16 10z" />
<glyph unicode="&#x2000;" horiz-adv-x="918" />
<glyph unicode="&#x2001;" horiz-adv-x="1836" />
<glyph unicode="&#x2002;" horiz-adv-x="918" />
<glyph unicode="&#x2003;" horiz-adv-x="1836" />
<glyph unicode="&#x2004;" horiz-adv-x="612" />
<glyph unicode="&#x2005;" horiz-adv-x="459" />
<glyph unicode="&#x2006;" horiz-adv-x="306" />
<glyph unicode="&#x2007;" horiz-adv-x="306" />
<glyph unicode="&#x2008;" horiz-adv-x="229" />
<glyph unicode="&#x2009;" horiz-adv-x="367" />
<glyph unicode="&#x200a;" horiz-adv-x="102" />
<glyph unicode="&#x2010;" horiz-adv-x="692" d="M233 720v2q3 14 14 23t24 9h469q14 0 21 -9t4 -23v-2q-3 -13 -14 -22t-25 -9h-469q-13 0 -20 9t-4 22z" />
<glyph unicode="&#x2011;" horiz-adv-x="692" d="M233 720v2q3 14 14 23t24 9h469q14 0 21 -9t4 -23v-2q-3 -13 -14 -22t-25 -9h-469q-13 0 -20 9t-4 22z" />
<glyph unicode="&#x2012;" horiz-adv-x="692" d="M233 720v2q3 14 14 23t24 9h469q14 0 21 -9t4 -23v-2q-3 -13 -14 -22t-25 -9h-469q-13 0 -20 9t-4 22z" />
<glyph unicode="&#x2013;" horiz-adv-x="1077" d="M204 490l11 49h877l-11 -49h-877z" />
<glyph unicode="&#x2014;" horiz-adv-x="1477" d="M204 490l11 49h1277l-11 -49h-1277z" />
<glyph unicode="&#x2018;" horiz-adv-x="319" d="M356 1188q-3 4 0 10l100 240q3 8 12 8h45q6 0 10 -4q1 -5 -2 -11l-108 -240q-4 -8 -13 -8h-37q-5 0 -7 5z" />
<glyph unicode="&#x2019;" horiz-adv-x="319" d="M405 1431q0 6 5 11q3 4 9 4h46q9 0 10 -8l-3 -240q0 -6 -4 -10q-5 -5 -11 -5h-36q-9 0 -9 8z" />
<glyph unicode="&#x201a;" horiz-adv-x="319" d="M126 116q0 6 4 11q4 4 10 4h46q9 0 9 -8l-3 -240q1 -6 -4 -10q-4 -5 -10 -5h-36q-9 0 -9 8z" />
<glyph unicode="&#x201c;" horiz-adv-x="482" d="M356 1188q-3 4 0 10l100 240q3 8 12 8h45q6 0 10 -4q1 -5 -2 -11l-108 -240q-4 -8 -13 -8h-37q-5 0 -7 5zM520 1188q-3 4 0 10l100 240q3 8 12 8h45q6 0 10 -4q1 -5 -2 -11l-108 -240q-4 -8 -13 -8h-37q-5 0 -7 5z" />
<glyph unicode="&#x201d;" horiz-adv-x="482" d="M405 1431q0 6 5 11q3 4 9 4h46q9 0 10 -8l-3 -240q0 -6 -4 -10q-5 -5 -11 -5h-36q-9 0 -9 8zM569 1431q0 6 5 11q3 4 9 4h46q9 0 10 -8l-3 -240q0 -6 -4 -10q-5 -5 -11 -5h-36q-9 0 -9 8z" />
<glyph unicode="&#x201e;" horiz-adv-x="482" d="M126 116q0 6 4 11q4 4 10 4h46q9 0 9 -8l-3 -240q1 -6 -4 -10q-4 -5 -10 -5h-36q-9 0 -9 8zM290 116q0 6 4 11q4 4 10 4h46q9 0 9 -8l-3 -240q1 -6 -4 -10q-4 -5 -10 -5h-36q-9 0 -9 8z" />
<glyph unicode="&#x2022;" horiz-adv-x="773" d="M243 674q26 119 127 202.5t220 83.5q120 0 186 -83.5t40 -202.5q-25 -120 -126.5 -203.5t-221.5 -83.5q-119 0 -184.5 83.5t-40.5 203.5z" />
<glyph unicode="&#x2026;" horiz-adv-x="2048" d="M112 58q5 24 26 41t46 17q24 0 36 -17q13 -17 8 -41t-25 -41q-21 -17 -44 -17q-25 0 -38 17q-14 17 -9 41zM795 58q5 24 26 41t46 17q24 0 36 -17q13 -17 8 -41t-25 -41q-21 -17 -44 -17q-25 0 -38 17q-14 17 -9 41zM1478 58q5 24 26 41t46 17q24 0 36 -17q13 -17 8 -41 t-25 -41q-21 -17 -44 -17q-25 0 -38 17q-14 17 -9 41z" />
<glyph unicode="&#x202f;" horiz-adv-x="367" />
<glyph unicode="&#x2039;" horiz-adv-x="640" d="M247 693l434 322h75l-427 -322l290 -323h-75z" />
<glyph unicode="&#x203a;" horiz-adv-x="640" d="M179 370l427 323l-290 322h75l296 -322l-433 -323h-75z" />
<glyph unicode="&#x205f;" horiz-adv-x="459" />
<glyph unicode="&#x20ac;" horiz-adv-x="1385" d="M235 590l3 10q4 23 27 23h167q4 50 15 101q11 50 28 100h-177q-23 0 -18 23l2 11q5 23 28 23h187q106 245 337 404q234 162 490 162q132 0 241 -45q17 -6 13 -25q-4 -18 -17 -25q-8 -5 -17 -5q-5 0 -10 2q-102 42 -222 42q-233 0 -446 -146q-211 -143 -311 -364h638 q23 0 18 -23l-2 -11q-5 -23 -28 -23h-649q-18 -49 -29 -100t-14 -101h580q23 0 19 -23l-3 -10q-4 -23 -27 -23h-569q5 -222 155 -365q151 -145 384 -145q123 0 242 41q6 2 10 2q7 0 14 -5q9 -8 7 -22q-5 -22 -26 -29q-128 -44 -259 -44q-256 0 -421 162q-163 160 -164 405 h-177q-23 0 -19 23z" />
<glyph unicode="&#x2122;" horiz-adv-x="1113" d="M336 1392l12 56h400l-12 -56h-166l-114 -534h-68l114 534h-166zM632 858l126 590h58l105 -484l312 484h58l-126 -590h-69l87 406l-261 -406h-47l-88 406l-87 -406h-68z" />
<glyph unicode="&#x25fc;" horiz-adv-x="1014" d="M0 0v1015h1015v-1015h-1015z" />
</font>
</defs>
</svg>
