<?xml version="1.0" standalone="no"?>
<!DOCTYPE svg PUBLIC "-//W3C//DTD SVG 1.1//EN" "http://www.w3.org/Graphics/SVG/1.1/DTD/svg11.dtd" >
<svg xmlns="http://www.w3.org/2000/svg" xmlns:xlink="http://www.w3.org/1999/xlink" version="1.1">
<metadata>
Created by FontForge 20170731 at Mon Apr 29 21:49:33 2013
 By Aleksey,,,
Copyright 2013 Adobe Systems Incorporated. All rights reserved.
</metadata>
<defs>
<font id="Quarca-ConBooIt" horiz-adv-x="156" >
  <font-face 
    font-family="Quarca Cond Book Italic"
    font-weight="400"
    font-style="italic"
    font-stretch="condensed"
    units-per-em="1000"
    panose-1="0 0 0 0 0 0 0 0 0 0"
    ascent="760"
    descent="-240"
    x-height="505"
    cap-height="710"
    bbox="-93 -279 831 939"
    underline-thickness="50"
    underline-position="-200"
    unicode-range="U+0020-FB06"
  />
<missing-glyph horiz-adv-x="400" 
 />
    <glyph glyph-name="ff" unicode="ff" horiz-adv-x="441" 
d="M522 692q-33 0 -53 -21.5t-30 -68.5l-20 -97h89l-18 -48h-81l-97 -457h-48l97 457h-172l-97 -457h-49l97 457h-71l18 48h63l12 57q27 131 142 131h52l-21 -48h-43q-33 0 -52.5 -22t-30.5 -69l-10 -49h172l22 104q14 67 48 99t93 32h52l-22 -48h-42z" />
    <glyph glyph-name="fi" unicode="fi" horiz-adv-x="397" 
d="M302 692q-33 0 -53 -21.5t-30 -68.5l-20 -97h220l-107 -505h-49l97 457h-171l-97 -457h-49l97 457h-71l18 48h63l22 104q14 67 48.5 99t93.5 32h52l-21 -48h-43zM396 653l15 71h55l-15 -71h-55z" />
    <glyph glyph-name="fl" unicode="fl" horiz-adv-x="407" 
d="M298 205l54 252h-163l-97 -457h-49l97 457h-71l18 48h63l22 104q14 67 48.5 99t93.5 32h52l-21 -48h-43q-33 0 -53 -21.5t-30 -68.5l-20 -97h163l48 225l41 10h10l-133 -626q-14 -69 26 -69h18l-7 -47h-31q-79 0 -57 103l22 104h-1z" />
    <glyph glyph-name="ffi" unicode="ffi" horiz-adv-x="615" 
d="M525 702q-33 0 -52.5 -21.5t-29.5 -68.5l-23 -107h218l-107 -505h-49l97 457h-169l-57 -267h-1l-40 -190h-48l58 273h1l39 184h-174l-39 -184h1l-58 -273h-49l97 457h-71l18 48h63l12 59q15 66 47.5 97.5t90.5 31.5h123q34 57 111 57h144l-21 -48h-132zM291 645
q-33 0 -52.5 -22t-30.5 -69l-10 -49h174l25 117q1 10 6 23h-112z" />
    <glyph glyph-name="ffl" unicode="ffl" horiz-adv-x="610" 
d="M525 702q-33 0 -52.5 -21.5t-29.5 -68.5l-23 -107h218l-107 -505h-49l97 457h-169l-57 -267h-1l-40 -190h-48l58 273h1l39 184h-174l-39 -184h1l-58 -273h-49l97 457h-71l18 48h63l12 59q15 66 47.5 97.5t90.5 31.5h123q34 57 111 57h144l-21 -48h-132zM291 645
q-33 0 -52.5 -22t-30.5 -69l-10 -49h174l25 117q1 10 6 23h-112z" />
    <glyph glyph-name="f_f_j" unicode="ffj" horiz-adv-x="615" 
d="M525 702q-33 0 -52.5 -21.5t-29.5 -68.5l-23 -107h218l-107 -505h-49l97 457h-169l-57 -267h-1l-40 -190h-48l58 273h1l39 184h-174l-39 -184h1l-58 -273h-49l97 457h-71l18 48h63l12 59q15 66 47.5 97.5t90.5 31.5h123q34 57 111 57h144l-21 -48h-132zM291 645
q-33 0 -52.5 -22t-30.5 -69l-10 -49h174l25 117q1 10 6 23h-112z" />
    <glyph glyph-name="f_j" unicode="fj" horiz-adv-x="397" 
d="M360 457h-171l-97 -457h-49l97 457h-71l18 48h63l22 104q14 67 48.5 99t93.5 32h52l-21 -48h-43q-33 0 -53 -21.5t-30 -68.5l-20 -97h220l-36 -170h2l-86 -402q-23 -111 -113 -111h-38l17 48h20q52 0 68 76l12 54h-2zM390 624l15 71h55l-15 -71h-55z" />
    <glyph glyph-name=".notdef" horiz-adv-x="400" 
 />
    <glyph glyph-name=".null" horiz-adv-x="0" 
 />
    <glyph glyph-name="nonmarkingreturn" horiz-adv-x="333" 
 />
    <glyph glyph-name="NULL" horiz-adv-x="666" 
 />
    <glyph glyph-name="NULL" horiz-adv-x="666" 
 />
    <glyph glyph-name="space" unicode=" " horiz-adv-x="161" 
 />
    <glyph glyph-name="exclam" unicode="!" horiz-adv-x="177" 
d="M97 117h-43l129 643l53 10h9zM24 -5l16 71h55l-16 -71h-55z" />
    <glyph glyph-name="quotedbl" unicode="&#x22;" horiz-adv-x="230" 
d="M153 720h61l-60 -189h-27zM252 720h61l-60 -189h-27z" />
    <glyph glyph-name="numbersign" unicode="#" horiz-adv-x="533" 
d="M-7 0l114 207h-78l17 47h91l101 183h-112l18 48h125l126 225h49l-126 -225h124l127 225h49l-127 -225h88l-18 -48h-101l-101 -183h122l-17 -47h-136l-114 -207h-49l115 207h-125l-115 -207h-47zM287 437l-102 -183h125l101 183h-124z" />
    <glyph glyph-name="dollar" unicode="$" horiz-adv-x="420" 
d="M176 -88l-46 -12l22 100h-42q-59 0 -79.5 31t-6.5 94l19 89h52l-16 -76q-10 -46 1 -67t43 -21h119q65 0 83 88l15 70q8 37 1 57.5t-32 36.5l-139 84q-42 26 -54 52t-1 75l14 69q14 67 42.5 97.5t79.5 30.5h51l19 86l45 11l-21 -97h30q59 0 80.5 -30.5t6.5 -97.5l-17 -81
h-51l15 69q11 50 -1 70t-46 20h-99q-36 0 -55 -21t-30 -73l-10 -45q-7 -33 -0.5 -53t30.5 -35l140 -85q41 -26 53.5 -52t1.5 -75l-20 -96q-26 -125 -119 -125h-59z" />
    <glyph glyph-name="percent" unicode="%" horiz-adv-x="568" 
d="M99 0l403 710h40l-403 -710h-40zM125 627q17 83 89 83h66q72 0 55 -83l-37 -173q-18 -84 -90 -84h-66q-72 0 -54 84zM266 673h-53q-42 0 -54 -55l-33 -156q-12 -55 30 -55h53q42 0 54 55l33 156q12 55 -30 55zM349 257q18 83 90 83h67q72 0 54 -83l-37 -173
q-18 -84 -89 -84h-67q-73 0 -55 84zM491 303h-53q-44 0 -55 -56l-33 -155q-11 -56 31 -56h53q42 0 54 56l33 155q11 56 -30 56z" />
    <glyph glyph-name="ampersand" unicode="&#x26;" horiz-adv-x="518" 
d="M381 660h-82q-35 0 -55.5 -23t-31.5 -73l-24 -114q-6 -32 5 -51.5t31 -19.5h325l-11 -51h-79l-41 -193q-15 -70 -46.5 -102.5t-89.5 -32.5h-163q-59 0 -77.5 33t-3.5 102l26 122q7 32 33 63.5t61 34.5q-18 6 -23.5 35.5t0.5 49.5l29 135q15 70 46.5 102.5t90.5 32.5h89
q65 0 85.5 -31.5t5.5 -103.5l-16 -74h-52l13 63q11 48 1 72t-46 24zM137 50h146q35 0 55.5 23t31.5 73l38 182h-188q-89 0 -106 -77l-22 -105q-11 -48 -1 -72t46 -24z" />
    <glyph glyph-name="quotesingle" unicode="'" horiz-adv-x="131" 
d="M153 720h61l-60 -189h-27z" />
    <glyph glyph-name="parenleft" unicode="(" horiz-adv-x="199" 
d="M286 692h-16q-28 0 -44.5 -21.5t-27.5 -68.5l-124 -586q-10 -47 -2.5 -69t35.5 -22h16l-14 -47h-15q-50 0 -67.5 30.5t-4.5 94.5l130 611q14 65 45 95.5t81 30.5h22z" />
    <glyph glyph-name="parenright" unicode=")" horiz-adv-x="199" 
d="M153 692h-16l6 48h22q51 0 68.5 -30.5t3.5 -95.5l-130 -611q-13 -64 -43.5 -94.5t-80.5 -30.5h-15l6 47h16q28 0 44.5 21.5t26.5 69.5l124 586q11 47 3.5 68.5t-35.5 21.5z" />
    <glyph glyph-name="asterisk" unicode="*" horiz-adv-x="293" 
d="M247 723h33l-26 -121l90 66l18 -26l-101 -73l71 -71l-28 -28l-63 67l-27 -125h-33l27 127l-92 -68l-16 26l100 72l-69 73l28 26l62 -66z" />
    <glyph glyph-name="plus" unicode="+" horiz-adv-x="361" 
d="M45 271l18 50h123l32 152h52l-32 -152h131l-19 -50h-123l-33 -156h-52l33 156h-130z" />
    <glyph glyph-name="comma" unicode="," horiz-adv-x="152" 
d="M1 -116h-10l36 185h55l-14 -65z" />
    <glyph glyph-name="hyphen" unicode="-" horiz-adv-x="326" 
d="M323 319l-17 -48h-250l18 48h249z" />
    <glyph glyph-name="period" unicode="." horiz-adv-x="143" 
d="M6 -5l16 71h55l-16 -71h-55z" />
    <glyph glyph-name="slash" unicode="/" horiz-adv-x="314" 
d="M370 743h52l-398 -776h-52z" />
    <glyph glyph-name="zero" unicode="0" horiz-adv-x="471" 
d="M51 138l92 434q16 71 47 104.5t89 33.5h132q63 0 83 -33.5t5 -104.5l-92 -434q-16 -71 -46.5 -104.5t-87.5 -33.5h-134q-63 0 -83 33.5t-5 104.5zM400 660h-118q-36 0 -57 -23t-32 -73l-88 -418q-12 -49 -2 -72.5t48 -23.5h119q36 0 56 22.5t31 73.5l88 418q11 52 1.5 74
t-46.5 22z" />
    <glyph glyph-name="one" unicode="1" horiz-adv-x="201" 
d="M50 0l106 501h-1l32 150l-83 -64l12 56l89 67h46l-150 -710h-51z" />
    <glyph glyph-name="two" unicode="2" horiz-adv-x="412" 
d="M366 660h-101q-36 0 -57 -23t-32 -73l-13 -63h-52l15 71q16 71 47 104.5t89 33.5h115q63 0 83 -33.5t5 -104.5l-16 -74h-1l-3 -17q-11 -50 -36 -79t-68 -50l-184 -94q-56 -30 -72 -103l-22 -105h179q36 0 56 22.5t31 73.5l14 68h52l-16 -76q-16 -72 -46.5 -105t-87.5 -33
h-243l34 162q21 96 113 143l186 95q47 24 59 89l12 53h1l4 22q12 52 2 74t-47 22z" />
    <glyph glyph-name="three" unicode="3" horiz-adv-x="436" 
d="M125 50h121q36 0 56 22.5t31 73.5l9 45h-1l14 67q8 40 -6.5 59.5t-43.5 19.5h-130l11 51h117q56 0 71 72l22 104q11 49 0.5 72.5t-45.5 23.5h-79q-36 0 -57 -23t-32 -73l-13 -63h-52l15 71q16 71 47 104.5t89 33.5h94q62 0 82.5 -33t5.5 -102l-27 -127q-17 -73 -66 -84
q71 -8 51 -97l-27 -129q-16 -72 -46 -105t-88 -33h-135q-63 0 -83 33.5t-5 104.5l15 73h52l-13 -65q-12 -49 -2 -72.5t48 -23.5z" />
    <glyph glyph-name="four" unicode="4" horiz-adv-x="431" 
d="M17 136l36 169q13 63 54 107l271 298h63l-291 -321q-35 -40 -47 -89l-24 -114h208l41 191l42 10h12l-43 -201h86l-18 -50h-79l-28 -136h-52l28 136h-259z" />
    <glyph glyph-name="five" unicode="5" horiz-adv-x="409" 
d="M126 50h104q35 0 55.5 22.5t31.5 73.5l8 39h-1l20 96q11 53 0.5 77t-46.5 24h-202l69 328h314l-17 -50h-256l-49 -228h160q111 0 83 -134l-18 -84h1l-16 -76q-16 -71 -46.5 -104.5t-87.5 -33.5h-124q-60 0 -78.5 33.5t-3.5 104.5l16 75h51l-14 -67q-11 -49 -0.5 -72.5
t46.5 -23.5z" />
    <glyph glyph-name="six" unicode="6" horiz-adv-x="444" 
d="M427 290l-34 -159q-27 -131 -129 -131h-132q-60 0 -78.5 32.5t-4.5 98.5l95 444q15 70 46.5 102.5t91.5 32.5h116q60 0 83 -30.5t7 -104.5l-16 -74h-52l14 65q11 49 0 71.5t-47 22.5h-106q-68 0 -88 -94l-32 -151h190q103 0 76 -125zM330 365h-180l-47 -223
q-20 -92 44 -92h113q34 0 53.5 22.5t30.5 71.5l28 131q20 90 -42 90z" />
    <glyph glyph-name="seven" unicode="7" horiz-adv-x="362" 
d="M120 660l10 50h328l-33 -157q-15 -71 -51 -122l-305 -431h-61l324 454q29 40 44 107l21 99h-277z" />
    <glyph glyph-name="eight" unicode="8" horiz-adv-x="459" 
d="M145 463l14 67h1l9 42q15 71 46 104.5t88 33.5h89q64 0 84 -33.5t5 -104.5l-16 -74h-1l-7 -35q-16 -75 -55 -89q56 -15 38 -105l-28 -131q-16 -72 -46.5 -105t-87.5 -33h-137q-64 0 -84 33.5t-5 104.5l28 131q19 90 88 105q-22 8 -27 29.5t4 59.5zM337 347h-123
q-67 0 -84 -79l-12 -57h1l-13 -65q-12 -49 -2.5 -72.5t47.5 -23.5h125q35 0 55.5 22.5t31.5 73.5l11 52h-1l14 70q18 79 -50 79zM381 660h-74q-36 0 -57 -23t-32 -73l-20 -94q-9 -43 3.5 -57.5t50.5 -14.5h69q38 0 57 14.5t28 57.5l20 94q12 52 2 74t-47 22z" />
    <glyph glyph-name="nine" unicode="9" horiz-adv-x="431" 
d="M327 201l26 120h-178q-54 0 -70.5 32t-1.5 101l21 97h1l4 21q15 71 46 104.5t88 33.5h108q63 0 83 -33.5t5 -104.5l-16 -74h-2l-60 -284h2l-16 -76q-16 -72 -46.5 -105t-87.5 -33h-109q-63 0 -83 33.5t-5 104.5l15 73h52l-13 -65q-12 -49 -2.5 -72.5t46.5 -23.5h96
q36 0 56 22.5t31 73.5l11 55h-1zM360 660h-96q-35 -1 -55 -24.5t-31 -71.5l-13 -63h-1l-7 -34q-11 -49 -0.5 -72t45.5 -23h162l29 139h1l11 53q12 52 2 74t-47 22z" />
    <glyph glyph-name="colon" unicode=":" horiz-adv-x="145" 
d="M7 -5l16 71h55l-16 -71h-55zM95 410l15 71h55l-15 -71h-55z" />
    <glyph glyph-name="semicolon" unicode=";" horiz-adv-x="151" 
d="M3 -116h-10l36 185h55l-14 -65zM79 330l15 71h55l-15 -71h-55z" />
    <glyph glyph-name="less" unicode="&#x3c;" horiz-adv-x="311" 
d="M241 15l-198 276l7 30l314 276l-12 -57l-259 -234l160 -234z" />
    <glyph glyph-name="equal" unicode="=" horiz-adv-x="379" 
d="M178 319l8 18h82l-7 -18h-83zM161 237l8 18h82l-7 -18h-83z" />
    <glyph glyph-name="greater" unicode="&#x3e;" horiz-adv-x="312" 
d="M322 291l-314 -276l12 57l260 234l-161 234l12 57l198 -276z" />
    <glyph glyph-name="question" unicode="?" horiz-adv-x="379" 
d="M320 341l-35 -17q-32 -15 -46 -33.5t-22 -56.5l-25 -118h-51l28 129q11 52 31.5 77.5t60.5 43.5l43 20q29 14 42 32t20 52l21 96q11 52 1 73t-46 21h-99q-66 0 -85 -90l-16 -74h-51l18 86q14 67 47 97.5t88 30.5h121q53 0 72 -31t5 -97l-24 -116q-12 -52 -33 -78t-65 -47
zM113 -5l16 71h55l-16 -71h-55z" />
    <glyph glyph-name="at" unicode="@" horiz-adv-x="587" 
d="M141 49h321l-17 -49h-312q-60 0 -79 33t-4 103l93 436q15 70 47.5 103t92.5 33h271q60 0 79 -33t4 -103l-59 -278q-22 -107 -107 -107h-28q-32 0 -45 13t-9 32q-19 -44 -76 -44h-34q-50 0 -65.5 25.5t-2.5 87.5l20 94q15 65 39 94.5t74 29.5h54q46 0 62.5 -25.5
t4.5 -83.5l-33 -153q-2 -8 5 -16.5t23 -8.5h16q41 0 56 72l56 263q11 47 1.5 69.5t-43.5 22.5h-275q-63 0 -82 -92l-91 -427q-10 -46 0 -68.5t43 -22.5zM293 232h33q32 0 47.5 16t24.5 54l20 97q9 39 1 57.5t-35 18.5h-40q-28 0 -42.5 -18.5t-23.5 -59.5l-19 -87
q-9 -38 -2 -58t36 -20z" />
    <glyph glyph-name="A" unicode="A" horiz-adv-x="434" 
d="M302 710h55l27 -710h-55l-3 156h-226l-69 -156h-53zM316 639l-194 -433h202z" />
    <glyph glyph-name="B" unicode="B" horiz-adv-x="438" 
d="M17 0l150 710h178q145 0 114 -141l-18 -83q-20 -97 -85 -114q90 -9 62 -138l-20 -96q-30 -138 -149 -138h-232zM141 345l-63 -295h167q82 0 103 97l18 84q13 60 -5 87t-69 27h-151zM208 660l-57 -265h142q78 0 97 94l16 71q11 53 -6 76.5t-66 23.5h-126z" />
    <glyph glyph-name="C" unicode="C" horiz-adv-x="446" 
d="M142 50h126q36 0 56 22.5t31 73.5l14 68h53l-16 -76q-16 -71 -46.5 -104.5t-87.5 -33.5h-141q-63 0 -83 33.5t-5 104.5l92 434q16 71 46.5 104.5t88.5 33.5h139q64 0 84 -33.5t5 -104.5l-16 -74h-52l14 66q12 52 1.5 74t-47.5 22h-125q-36 0 -57 -23t-32 -73l-88 -418
q-12 -49 -2 -72.5t48 -23.5z" />
    <glyph glyph-name="D" unicode="D" horiz-adv-x="469" 
d="M157 660l10 50h220q78 0 105 -41t9 -127l-17 -76l-64 -298q-18 -86 -59.5 -127t-113.5 -41h-230l10 50h1l130 610h-1zM378 660h-169l-130 -610h167q51 0 80.5 31t43.5 97l76 354q14 67 -1 97.5t-67 30.5z" />
    <glyph glyph-name="E" unicode="E" horiz-adv-x="387" 
d="M208 660l-72 -337h220l-18 -51h-213l-47 -222h263l-17 -50h-307l150 710h313l-17 -50h-255z" />
    <glyph glyph-name="F" unicode="F" horiz-adv-x="376" 
d="M208 660l-72 -337h207l-18 -51h-200l-57 -272h-51l150 710h310l-17 -50h-252z" />
    <glyph glyph-name="G" unicode="G" horiz-adv-x="456" 
d="M253 291l18 50h177l-44 -206q-13 -67 -43.5 -101t-85.5 -34h-150q-112 0 -85 127l96 448q28 135 121 135h162q57 0 77.5 -31t6.5 -97l-17 -81h-52l14 65q11 49 1 71.5t-44 22.5h-135q-34 0 -55 -24t-32 -77l-88 -415q-11 -49 0.5 -71.5t45.5 -22.5h126q36 0 56.5 21.5
t30.5 66.5l32 153h-133z" />
    <glyph glyph-name="H" unicode="H" horiz-adv-x="464" 
d="M68 0h-51l150 710h51l-82 -390h256l82 390h52l-150 -710h-52l57 270h-256z" />
    <glyph glyph-name="I" unicode="I" 
d="M68 0h-51l150 710h51z" />
    <glyph glyph-name="J" unicode="J" horiz-adv-x="265" 
d="M-7 50h77q67 0 87 94l120 566h52l-122 -576q-14 -68 -46.5 -101t-87.5 -33h-97z" />
    <glyph glyph-name="K" unicode="K" horiz-adv-x="392" 
d="M68 0h-51l150 710h51l-72 -339l302 339h57l-314 -355l168 -355h-58l-161 339z" />
    <glyph glyph-name="L" unicode="L" horiz-adv-x="362" 
d="M218 710l-140 -660h250l-17 -50h-294l150 710h51z" />
    <glyph glyph-name="M" unicode="M" horiz-adv-x="528" 
d="M66 0h-49l150 710h60l72 -379l232 379h59l-150 -710h-49l128 603l-205 -329h-50l-69 337z" />
    <glyph glyph-name="N" unicode="N" horiz-adv-x="477" 
d="M68 0h-51l150 710h51l124 -537q8 -31 14 -79l131 616h52l-150 -710h-52l-120 514q-5 21 -18 105z" />
    <glyph glyph-name="O" unicode="O" horiz-adv-x="476" 
d="M43 138l92 434q16 71 46.5 104.5t88.5 33.5h153q64 0 84 -33.5t5 -104.5l-92 -434q-16 -71 -46.5 -104.5t-87.5 -33.5h-155q-63 0 -83 33.5t-5 104.5zM412 660h-139q-36 0 -57 -23t-32 -73l-88 -418q-12 -49 -2 -72.5t48 -23.5h140q36 0 56 22.5t31 73.5l88 418
q12 52 2 74t-47 22z" />
    <glyph glyph-name="P" unicode="P" horiz-adv-x="420" 
d="M130 295l-62 -295h-51l32 153h-1l118 557h218q120 0 92 -133l-32 -150q-27 -132 -130 -132h-184zM208 660l-67 -315h168q35 0 55.5 22t30.5 71l27 128q11 49 -0.5 71.5t-45.5 22.5h-168z" />
    <glyph glyph-name="Q" unicode="Q" horiz-adv-x="475" 
d="M43 138l92 434q16 71 46.5 104.5t88.5 33.5h153q64 0 84 -33.5t5 -104.5l-16 -74h-2l-60 -284h2l-16 -76q-16 -71 -46.5 -104.5t-87.5 -33.5h-62l-25 -117h-48l25 117h-45q-63 0 -83 33.5t-5 104.5zM142 50h44l22 102h48l-22 -102h48q36 0 56 22.5t31 73.5l11 55h-1
l66 310h1l11 53q12 52 2 74t-47 22h-139q-36 0 -57 -23t-32 -73l-88 -418q-12 -49 -2 -72.5t48 -23.5z" />
    <glyph glyph-name="R" unicode="R" horiz-adv-x="429" 
d="M17 0l150 710h212q121 0 93 -135l-34 -153q-28 -135 -134 -135h-17l98 -287h-59l-98 287h-99l-61 -287h-51zM208 660l-69 -323h159q37 0 59.5 24.5t33.5 76.5l25 121q11 53 -0.5 77t-48.5 24h-159z" />
    <glyph glyph-name="S" unicode="S" horiz-adv-x="419" 
d="M309 302l-139 84q-42 26 -54 52t-1 75l14 69q14 67 42.5 97.5t79.5 30.5h124q59 0 80.5 -30.5t6.5 -97.5l-17 -81h-51l15 69q11 50 -1 70t-46 20h-99q-36 0 -55 -21t-30 -73l-10 -45q-7 -33 -0.5 -53t30.5 -35l140 -85q41 -26 53.5 -52t1.5 -75l-20 -96
q-26 -125 -119 -125h-144q-59 0 -79.5 31t-6.5 94l19 89h52l-16 -76q-10 -46 1 -67t43 -21h119q65 0 83 88l15 70q8 37 1 57.5t-32 36.5z" />
    <glyph glyph-name="T" unicode="T" horiz-adv-x="359" 
d="M454 660h-144l-140 -660h-51l140 660h-146l10 50h341z" />
    <glyph glyph-name="U" unicode="U" horiz-adv-x="458" 
d="M252 50q40 0 64 26t36 82l117 552h52l-120 -567q-30 -143 -141 -143h-124q-121 0 -91 143l120 567h51l-117 -552q-12 -56 0 -82t52 -26h101z" />
    <glyph glyph-name="V" unicode="V" horiz-adv-x="419" 
d="M202 0h-56l-12 710h53l1 -607q1 -7 -2 -41q7 23 14 41l258 607h56z" />
    <glyph glyph-name="W" unicode="W" horiz-adv-x="669" 
d="M195 0h-58l-3 710h53l-8 -585l-1 -63q4 15 20 62l225 586h51l-24 -586q-2 -47 -4 -58q7 24 22 57l242 587h53l-303 -710h-57l23 581q0 17 7 52q-9 -35 -15 -52z" />
    <glyph glyph-name="X" unicode="X" horiz-adv-x="373" 
d="M229 378l196 332h55l-211 -356l60 -354h-53l-54 325l-193 -325h-55l210 354l-63 356h50z" />
    <glyph glyph-name="Y" unicode="Y" horiz-adv-x="417" 
d="M198 0h-51l62 294l-83 416h52l59 -316q7 -41 6 -55q7 21 28 54l192 317h54l-257 -415z" />
    <glyph glyph-name="Z" unicode="Z" horiz-adv-x="368" 
d="M450 663l-396 -613h276l-17 -50h-326l2 47l397 613h-259l3 50h323z" />
    <glyph glyph-name="bracketleft" unicode="[" horiz-adv-x="189" 
d="M58 -78h51l-6 -48h-104l177 836h96l-6 -47h-51z" />
    <glyph glyph-name="backslash" unicode="\" horiz-adv-x="488" 
d="M310 743h52l68 -776h-52z" />
    <glyph glyph-name="bracketright" unicode="]" horiz-adv-x="189" 
d="M183 663h-51l6 47h104l-177 -836h-95l6 48h50z" />
    <glyph glyph-name="asciicircum" unicode="^" horiz-adv-x="409" 
d="M67 390l235 320h27l105 -320h-54l-75 266l-185 -266h-53z" />
    <glyph glyph-name="underscore" unicode="_" horiz-adv-x="490" 
d="M410 0l-18 -48h-395l18 48h395z" />
    <glyph glyph-name="grave" unicode="`" horiz-adv-x="115" 
d="M60 730h53l46 -106h-36z" />
    <glyph glyph-name="a" unicode="a" horiz-adv-x="382" 
d="M406 505l-107 -505h-43l7 56q-34 -56 -96 -56h-54q-104 0 -76 128l53 250q14 66 45 99.5t87 33.5h56q57 0 70 -49l9 43h49zM193 46q29 0 53 24t33 67l52 248q6 38 -7 59t-42 21h-59q-66 0 -85 -91l-50 -237q-20 -91 44 -91h61z" />
    <glyph glyph-name="b" unicode="b" horiz-adv-x="382" 
d="M145 0q-64 0 -73 52l-11 -52h-49l155 730l42 10h9l-60 -280q35 51 94 51h47q59 0 78.5 -31.5t5.5 -96.5l-54 -252q-14 -68 -44 -99.5t-84 -31.5h-56zM141 381l-51 -244q-18 -91 46 -91h62q64 0 84 91l49 230q11 54 -0.5 76t-50.5 22h-55q-61 0 -84 -84z" />
    <glyph glyph-name="c" unicode="c" horiz-adv-x="360" 
d="M279 462h-59q-35 0 -54.5 -22.5t-29.5 -70.5l-49 -229q-10 -51 0.5 -71.5t44.5 -20.5h58q38 0 54.5 17.5t26.5 64.5l8 35h46l-10 -45q-14 -65 -40.5 -92.5t-77.5 -27.5h-75q-59 0 -79 32.5t-6 100.5l51 241q15 70 44 102.5t84 32.5h74q58 0 76.5 -32t4.5 -100l-10 -40
h-46l7 32q11 49 1 71t-44 22z" />
    <glyph glyph-name="d" unicode="d" horiz-adv-x="382" 
d="M455 740l-157 -740h-42l8 58q-35 -58 -98 -58h-54q-104 0 -76 128l53 250q14 66 45 99.5t87 33.5h57q58 0 69 -50l58 269l41 10h9zM278 132l52 249q7 39 -6 61.5t-43 22.5h-59q-66 0 -85 -91l-50 -237q-20 -91 44 -91h61q28 0 51 22t35 64z" />
    <glyph glyph-name="e" unicode="e" horiz-adv-x="361" 
d="M130 46h59q34 0 53 21.5t29 68.5l4 18h46l-4 -18q-16 -74 -44.5 -105t-89.5 -31h-54q-65 0 -86 31.5t-6 103.5l55 258q14 65 44.5 91.5t91.5 26.5h44q69 0 90.5 -26.5t7.5 -91.5l-11 -56q-13 -61 -40 -87t-90 -26h-124l-18 -85q-11 -46 -2 -69.5t45 -23.5zM280 466h-63
q-33 0 -50.5 -18.5t-26.5 -57.5l-25 -121h120q35 0 53 17t26 54l11 51q8 38 -2 56.5t-43 18.5z" />
    <glyph glyph-name="f" unicode="f" horiz-adv-x="211" 
d="M299 692q-33 0 -52 -21.5t-30 -68.5l-20 -97h82l-17 -48h-75l-97 -457h-49l97 457h-69l18 48h61l22 104q14 67 48 99t93 32h52l-21 -48h-43z" />
    <glyph glyph-name="g" unicode="g" horiz-adv-x="376" 
d="M88 375q15 69 44.5 100t88.5 31h45q41 0 66 -14l72 64l24 -33l-70 -63q12 -31 0 -85l-12 -57h-1l-7 -34q-15 -71 -46.5 -101.5t-94.5 -30.5h-39q-22 -1 -31.5 -7t-13.5 -24l-1 -4q-4 -18 2 -24.5t25 -7.5h106q56 0 73.5 -30.5t3.5 -93.5l-12 -58q-14 -67 -44 -95.5
t-89 -28.5h-109q-66 0 -88 28.5t-8 95.5l12 58q20 95 82 116q-9 12 -3 39l2 7q7 33 27 43q-42 25 -23 118zM113 40q-35 0 -54 -21t-28 -66l-9 -42q-11 -45 -0.5 -66.5t45.5 -21.5h114q35 0 54 21t29 67l9 42q9 46 -1 66.5t-45 20.5h-114zM218 463q-35 0 -54 -22.5t-30 -72.5
l-17 -78q-11 -48 -0.5 -71.5t44.5 -23.5h48q34 0 53.5 23t29.5 72l17 78q11 49 1.5 72t-44.5 23h-48z" />
    <glyph glyph-name="h" unicode="h" horiz-adv-x="375" 
d="M145 396l-84 -396h-49l155 730l42 10h9l-59 -275q34 46 89 46h45q57 0 76 -30.5t6 -94.5l-83 -386h-49l79 376q10 49 0.5 69.5t-43.5 20.5h-53q-29 0 -51.5 -22t-29.5 -48z" />
    <glyph glyph-name="i" unicode="i" 
d="M121 457h-45l10 48h93l-107 -505h-48zM154 641l15 71h55l-15 -71h-55z" />
    <glyph glyph-name="j" unicode="j" 
d="M121 457h-45l10 48h93l-122 -572q-23 -111 -111 -111h-39l18 48h20q51 0 67 76zM155 641l15 71h55l-15 -71h-55z" />
    <glyph glyph-name="k" unicode="k" horiz-adv-x="323" 
d="M382 505l-224 -256l117 -249h-54l-111 234l-49 -234h-49l155 730l42 10h9l-100 -470l209 235h55z" />
    <glyph glyph-name="l" unicode="l" horiz-adv-x="163" 
d="M55 205l112 525l42 10h9l-77 -359h1l-56 -267q-8 -36 -2 -52.5t28 -16.5h18l-7 -47h-32q-79 0 -57 103l22 104h-1z" />
    <glyph glyph-name="m" unicode="m" horiz-adv-x="584" 
d="M13 0l105 495l39 10h9l-9 -41q40 41 100 41h32q65 0 77 -50q43 50 110 50h31q53 0 71 -31t4 -94l-80 -380h-49l78 370q10 48 -1.5 69t-45.5 21h-35q-28 0 -50.5 -14.5t-30.5 -33.5q-2 -22 -5 -32l-80 -380h-49l78 370q10 48 -1.5 69t-45.5 21h-35q-29 0 -52 -15.5
t-31 -35.5l1 -1l-86 -408h-49z" />
    <glyph glyph-name="n" unicode="n" horiz-adv-x="374" 
d="M12 0l105 495l39 10h9l-10 -46q36 52 93 52h45q56 0 75 -31t6 -94l-82 -386h-49l79 376q10 49 0.5 69.5t-43.5 20.5h-53q-28 0 -50 -21t-31 -47l-84 -398h-49z" />
    <glyph glyph-name="o" unicode="o" horiz-adv-x="380" 
d="M216 511h78q60 0 80 -33.5t5 -101.5l-52 -248q-27 -128 -128 -128h-80q-110 0 -83 128l52 248q16 70 45 102.5t83 32.5zM285 465h-65q-35 0 -54 -22.5t-29 -70.5l-50 -233q-11 -52 -0.5 -72.5t44.5 -20.5h65q34 0 53.5 21t30.5 72l50 233q10 48 0 70.5t-45 22.5z" />
    <glyph glyph-name="p" unicode="p" horiz-adv-x="382" 
d="M71 50l-57 -270h-49l152 715l39 10h9l-11 -52q36 58 97 58h48q59 0 78.5 -31.5t5.5 -96.5l-55 -252q-14 -68 -43.5 -99.5t-83.5 -31.5h-56q-64 0 -74 50zM225 465q-31 0 -53.5 -23.5t-30.5 -64.5l-51 -240q-10 -44 2.5 -67.5t43.5 -23.5h61q65 0 85 91l49 230
q11 54 -0.5 76t-50.5 22h-55z" />
    <glyph glyph-name="q" unicode="q" horiz-adv-x="383" 
d="M299 0h-1l-47 -220h-49l51 243h1l6 28q-35 -51 -93 -51h-54q-104 0 -76 128l53 250q14 66 45 99.5t87 33.5h56q60 0 71 -54l10 48h47zM193 46q29 0 53 24t33 67l52 248q6 38 -7 59t-42 21h-59q-66 0 -85 -91l-50 -237q-20 -91 44 -91h61z" />
    <glyph glyph-name="r" unicode="r" horiz-adv-x="241" 
d="M298 468l-102 -39q-45 -18 -59 -67l-76 -362h-49l105 495l39 10h9l-15 -68q19 27 51 39l96 39h7z" />
    <glyph glyph-name="s" unicode="s" horiz-adv-x="339" 
d="M259 466h-54q-30 0 -46 -16.5t-24 -51.5l-4 -19q-8 -35 0.5 -48t37.5 -28l81 -36q38 -16 50 -38.5t1 -74.5l-10 -46q-11 -57 -39 -82.5t-85 -25.5h-67q-60 0 -76.5 27.5t-2.5 91.5l7 33h47l-7 -31q-8 -40 0.5 -58t38.5 -18h70q30 0 46.5 16.5t24.5 51.5l6 32
q7 34 -1 51.5t-30 28.5l-79 36q-48 20 -60 40t-1 75l6 25q12 58 39 84t87 26h51q60 0 75.5 -27.5t1.5 -93.5l-5 -27h-45l5 27q17 76 -39 76z" />
    <glyph glyph-name="t" unicode="t" horiz-adv-x="227" 
d="M278 505l-13 -48h-82l-68 -319q-10 -47 -0.5 -68.5t41.5 -21.5h33l-6 -48h-43q-103 0 -76 128l70 329h-62l14 48h58l24 116l49 24h6l-30 -140h85z" />
    <glyph glyph-name="u" unicode="u" horiz-adv-x="373" 
d="M396 505l-107 -505h-38l7 52q-41 -52 -102 -52h-42q-105 0 -77 128l80 377h49l-79 -370q-10 -48 1.5 -69t45.5 -21h43q31 0 55 22t32 48h3l1 3v12l79 375h49z" />
    <glyph glyph-name="v" unicode="v" horiz-adv-x="348" 
d="M170 0h-62l-17 505h50l8 -451l199 451h51z" />
    <glyph glyph-name="w" unicode="w" horiz-adv-x="553" 
d="M164 0h-62l-9 505h50v-451l179 451h52l-15 -451l193 451h51l-223 -505h-62l10 385q-2 14 0 29q-5 -16 -12 -29z" />
    <glyph glyph-name="x" unicode="x" horiz-adv-x="331" 
d="M186 274l146 231h55l-166 -257l60 -248h-52l-52 217l-143 -217h-55l164 248l-57 257h53z" />
    <glyph glyph-name="y" unicode="y" horiz-adv-x="352" 
d="M-9 -177q54 0 86 71l44 98h-13l-17 513h51l9 -444l201 444h53l-287 -619q-27 -61 -56.5 -86t-82.5 -25h-46l17 48h41z" />
    <glyph glyph-name="z" unicode="z" horiz-adv-x="314" 
d="M350 464l-296 -421h215l-15 -43h-264l2 41l299 421h-200l4 43h259z" />
    <glyph glyph-name="braceleft" unicode="{" horiz-adv-x="242" 
d="M149 -78h17l-6 -48h-22q-31 0 -49.5 8.5t-27.5 22.5t-9 41t4 53.5t14 72.5l20 93q12 50 2.5 76.5t-47.5 26.5h-14l11 48h15q38 0 57 24t30 76l32 152q17 81 46.5 111.5t90.5 30.5h16l-6 -47h-17q-37 0 -54.5 -25t-31.5 -90l-31 -147q-19 -88 -72 -109q44 -22 24 -114
l-33 -157q-11 -50 -2 -74.5t43 -24.5z" />
    <glyph glyph-name="bar" unicode="|" horiz-adv-x="169" 
d="M19 -250h-48l216 1017l42 10h9z" />
    <glyph glyph-name="braceright" unicode="}" horiz-adv-x="242" 
d="M-30 -78h17q34 0 53 24t30 75l33 157q21 94 74 114q-45 21 -26 109l31 147q15 62 7 88.5t-45 26.5h-17l14 47h15q62 0 78.5 -30.5t-0.5 -111.5l-32 -152q-12 -49 -3 -74.5t47 -25.5h16l-11 -48h-14q-38 0 -57 -24.5t-30 -78.5l-20 -93q-24 -112 -52 -155t-99 -43h-21z
" />
    <glyph glyph-name="asciitilde" unicode="~" horiz-adv-x="288" 
d="M276 321l-10 -46q-19 35 -44 35q-15 0 -49 -24.5t-53 -24.5q-31 0 -49 32l9 45q21 -35 44 -35q15 0 49 24.5t53 24.5q29 0 50 -31z" />
    <glyph glyph-name="exclamdown" unicode="&#xa1;" horiz-adv-x="161" 
d="M102 389h49l-135 -636l-43 -10h-8zM111 441l15 71h55l-15 -71h-55z" />
    <glyph glyph-name="cent" unicode="&#xa2;" horiz-adv-x="359" 
d="M308 590l-17 -79q59 -1 76.5 -32t3.5 -100l-8 -38h-46l6 29q11 46 1 69.5t-45 23.5h-47q-39 0 -59.5 -21.5t-31.5 -71.5l-49 -230q-11 -51 1.5 -71.5t50.5 -20.5h47q37 0 55.5 23.5t32.5 88.5h46l-8 -35q-14 -66 -46 -95.5t-88 -29.5l-16 -73h-49l16 73h-18
q-103 0 -76 125l54 254q15 71 47.5 101.5t94.5 30.5h6l15 69l41 10h10z" />
    <glyph glyph-name="sterling" unicode="&#xa3;" horiz-adv-x="425" 
d="M308 361l-17 -48h-106q-39 -128 -124 -263h316l-17 -50h-363l10 51q33 49 66 109q37 78 59 153h-80l18 48h75q1 7 5 23t6 23q0 2 3.5 19.5t5.5 26.5q5 25 7 59.5t3 42.5q19 86 50 120.5t97 34.5h62q60 0 78.5 -33t3.5 -102l-11 -52h-51l8 41q12 47 2 71t-46 25h-49
q-36 0 -56 -22.5t-30 -71.5q-2 -6 -4 -24q-22 -136 -27 -161l-4 -20h110z" />
    <glyph glyph-name="currency" unicode="&#xa4;" horiz-adv-x="395" 
d="M295 98l-26 41l-34 -32q-35 -34 -61 -34q-21 0 -37 25l-26 42l-42 -39l-25 34l45 42l-24 39q-16 26 -10 55t40 63l36 34l-27 44l40 34l26 -41l32 32q35 34 62 34q22 0 37 -25l25 -40l41 39l26 -34l-45 -42l26 -42q16 -27 10 -52q-8 -31 -42 -66l-34 -33l28 -43zM210 131
l114 112q14 14 17 28t-5 28l-66 114q-15 27 -43 -2l-113 -112q-29 -29 -11 -54l66 -114q16 -27 41 0z" />
    <glyph glyph-name="yen" unicode="&#xa5;" horiz-adv-x="378" 
d="M179 0h-52l43 203h-105l17 48h98l11 52h-105l17 48h91l-63 359h57l46 -329l183 329h57l-213 -359h102l-17 -48h-103l-11 -52h110l-17 -48h-103z" />
    <glyph glyph-name="brokenbar" unicode="&#xa6;" horiz-adv-x="171" 
d="M20 -250h-49l85 399h49zM239 777l-88 -413h-49l86 403l43 10h8z" />
    <glyph glyph-name="section" unicode="&#xa7;" horiz-adv-x="376" 
d="M370 300l-7 -36h1l-11 -52q-15 -66 -38.5 -96.5t-67.5 -34.5l-28 -2l14 -7q53 -28 38 -102l-10 -46q-13 -63 -42 -90.5t-87 -27.5h-47q-61 0 -78 31t-2 101l10 45h44l-10 -46q-19 -88 46 -88h46q33 0 51.5 21t27.5 65l7 34q7 33 -3 48t-40 30l-93 44q-42 18 -51 38.5
t3 86.5l8 36h-1l11 52q14 66 38 96.5t68 34.5l27 2l-13 7q-54 25 -38 101l10 46q14 64 42.5 91.5t85.5 27.5h46q62 0 79 -31t2 -102l-9 -45h-44l10 47q9 44 -1.5 66t-45.5 22h-46q-33 0 -50.5 -20.5t-26.5 -65.5l-7 -35q-8 -33 1.5 -48t39.5 -29l94 -44q42 -19 50.5 -39
t-3.5 -86zM115 139l38 -18l68 -2q36 0 56 21.5t30 70.5l19 90q7 35 0.5 49.5t-29.5 25.5l-37 19l-67 1q-36 1 -56.5 -21.5t-31.5 -70.5l-8 -40h1l-11 -49q-7 -36 -1 -50t29 -26z" />
    <glyph glyph-name="dieresis" unicode="&#xa8;" horiz-adv-x="666" 
d="M354 704h43l-12 -59h-43zM467 704h43l-12 -59h-43z" />
    <glyph glyph-name="copyright" unicode="&#xa9;" horiz-adv-x="577" 
d="M600 545l-80 -380q-30 -135 -153 -135h-217q-125 0 -95 135l80 380q29 135 153 135h217q123 0 95 -135zM158 70h217q43 0 68.5 26t37.5 82l77 361q11 53 -3.5 77t-57.5 24h-217q-85 0 -106 -101l-77 -361q-12 -56 3 -82t58 -26zM378 483h-48q-41 0 -51 -46l-34 -164
q-10 -47 31 -47h56q17 0 27.5 14.5t18.5 52.5h32l-2 -9q-20 -94 -79 -94h-68q-70 0 -53 81l36 167q17 81 87 81h63q64 0 47 -81l-6 -28h-34l4 22q11 51 -27 51z" />
    <glyph glyph-name="ordfeminine" unicode="&#xaa;" horiz-adv-x="238" 
d="M221 429l3 22q-19 -22 -51 -22h-27q-56 0 -42 62l10 47q13 63 63 63h76l8 35q5 24 2 34t-15 10h-42q-26 0 -34 -44l-4 -18h-30l5 23q15 69 63 69h54q49 0 34 -69l-45 -212h-28zM156 459h33q34 0 42 37l16 75h-73q-9 0 -18 -8.5t-12 -22.5l-10 -50q-7 -31 22 -31z" />
    <glyph glyph-name="guillemotleft" unicode="&#xab;" horiz-adv-x="334" 
d="M168 69h-58l-66 183l144 183h58l-144 -183zM280 69h-59l-66 183l144 183h59l-144 -183z" />
    <glyph glyph-name="logicalnot" unicode="&#xac;" horiz-adv-x="443" 
d="M365 239l7 30h-303l11 51h350l-18 -81h-47z" />
    <glyph glyph-name="registered" unicode="&#xae;" horiz-adv-x="577" 
d="M600 545l-80 -380q-30 -135 -153 -135h-217q-125 0 -95 135l80 380q29 135 153 135h217q123 0 95 -135zM158 70h217q43 0 68.5 26t37.5 82l77 361q11 53 -3.5 77t-57.5 24h-217q-85 0 -106 -101l-77 -361q-12 -56 3 -82t58 -26zM203 190l70 329h117q57 0 45 -62l-17 -77
q-12 -57 -57 -60l34 -130h-40l-34 127h-56l-27 -127h-35zM301 485l-29 -135h71q34 0 42 38l13 61q7 36 -26 36h-71z" />
    <glyph glyph-name="macron" unicode="&#xaf;" horiz-adv-x="265" 
d="M344 757l-16 -45h-173l16 45h173z" />
    <glyph glyph-name="degree" unicode="&#xb0;" horiz-adv-x="227" 
d="M225 753h25q38 0 49 -16t2 -57l-10 -47q-9 -42 -26 -57.5t-55 -15.5h-26q-37 0 -48.5 16t-2.5 57l10 47q9 42 26.5 57.5t55.5 15.5zM216 593q34 0 43 38l10 51q5 21 -2.5 29.5t-29.5 8.5h-18q-37 0 -45 -38l-10 -51q-5 -21 3 -29.5t30 -8.5h19z" />
    <glyph glyph-name="plusminus" unicode="&#xb1;" horiz-adv-x="396" 
d="M82 366l18 50h123l32 152h52l-32 -152h131l-19 -50h-123l-33 -156h-52l33 156h-130zM16 43l17 50h305l-17 -50h-305z" />
    <glyph glyph-name="twosuperior" unicode="&#xb2;" horiz-adv-x="234" 
d="M246 679h-35q-34 0 -41 -38l-2 -8h-30l3 15q14 62 71 62h44q26 0 37.5 -15.5t5.5 -43.5l-2 -8q-7 -33 -45 -63l-82 -59q-31 -22 -39 -61h67q33 0 40 38l2 8h30l-3 -14q-14 -63 -71 -63h-101l6 31q7 34 21.5 51.5t41.5 36.5l75 56q22 16 28 41q6 34 -21 34z" />
    <glyph glyph-name="threesuperior" unicode="&#xb3;" horiz-adv-x="229" 
d="M189 460q39 0 50 51q5 23 -5.5 33.5t-27.5 10.5h-28l11 31h27q26 0 36 48q10 45 -30 45h-9q-35 0 -42 -38l-2 -8h-31l3 14q13 63 72 63h22q65 0 50 -70l-5 -19q-7 -38 -34 -52q15 -4 21.5 -19t1.5 -35l-3 -13q-15 -73 -78 -73h-42q-59 0 -45 64l3 13h30l-1 -7
q-9 -39 24 -39h32z" />
    <glyph glyph-name="acute" unicode="&#xb4;" horiz-adv-x="415" 
d="M180 611h-42l90 120h58z" />
    <glyph glyph-name="mu" unicode="&#xb5;" horiz-adv-x="370" 
d="M396 505l-107 -505h-37l6 51q-40 -51 -101 -51h-42q-35 0 -54 13l-32 -152h-49l82 384h1l55 260h49l-79 -370q-10 -48 1.5 -69t45.5 -21h43q31 0 55 22t32 48h2l1 3v12l79 375h49z" />
    <glyph glyph-name="paragraph" unicode="&#xb6;" horiz-adv-x="458" 
d="M272 -170l156 734q11 49 1 72.5t-46 23.5h-13l-177 -830h-53l106 495h-84q-59 0 -77.5 33t-3.5 102l25 115q15 69 46.5 102t90.5 33h159q59 0 77.5 -33t3.5 -102l-159 -745h-52zM181 375h75l61 285h-75q-35 0 -55.5 -23t-31.5 -73l-20 -94q-10 -50 0.5 -72.5t45.5 -22.5z
" />
    <glyph glyph-name="periodcentered" unicode="&#xb7;" horiz-adv-x="144" 
d="M62 258l15 71h55l-15 -71h-55z" />
    <glyph glyph-name="cedilla" unicode="&#xb8;" horiz-adv-x="672" 
d="M251 -70l-17 5q-21 4 -14 37l9 45h34l-7 -33q-4 -18 7 -22l20 -6q24 -6 16 -45l-5 -21q-7 -31 -21.5 -43t-43.5 -12h-21q-29 0 -37 11.5t-3 40.5l4 15h33l-2 -10q-6 -24 13 -24h17q22 0 28 25l2 12q5 20 -12 25z" />
    <glyph glyph-name="onesuperior" unicode="&#xb9;" horiz-adv-x="138" 
d="M142 679h-11l2 31h17q58 0 45 -63l-46 -218h-30l45 213q7 37 -22 37z" />
    <glyph glyph-name="ordmasculine" unicode="&#xba;" horiz-adv-x="242" 
d="M108 492l33 155q13 63 71 63h46q58 0 45 -63l-33 -155q-14 -63 -71 -63h-46q-59 0 -45 63zM164 460h38q32 0 39 38l31 143q4 20 -1 29t-22 9h-38q-34 0 -41 -38l-31 -143q-4 -20 1.5 -29t23.5 -9z" />
    <glyph glyph-name="guillemotright" unicode="&#xbb;" horiz-adv-x="335" 
d="M69 69h-58l144 183l-66 183h58l66 -183zM181 69h-59l144 183l-66 183h59l66 -183z" />
    <glyph glyph-name="onequarter" unicode="&#xbc;" horiz-adv-x="466" 
d="M37 0l403 710h40l-404 -710h-39zM143 670h-14l3 40h22q77 0 59 -82l-61 -287h-39l59 280q12 49 -29 49zM223 75l18 84q7 31 29 57l140 153h47l-156 -174q-17 -19 -23 -46l-7 -33h82l14 66l29 6h11l-15 -72h40l-14 -41h-35l-15 -75h-39l15 75h-121z" />
    <glyph glyph-name="onehalf" unicode="&#xbd;" horiz-adv-x="532" 
d="M37 0l403 710h40l-404 -710h-39zM143 670h-14l3 40h22q77 0 59 -82l-61 -287h-39l59 280q12 49 -29 49zM454 329h-46q-43 0 -53 -50l-3 -11h-40l5 20q17 81 94 81h58q34 0 49 -20.5t7 -56.5l-3 -11q-8 -41 -59 -82l-108 -78q-41 -30 -51 -80h88q43 0 53 50l2 10h40
l-4 -18q-18 -83 -94 -83h-133l8 41q7 31 20 53.5t25.5 34t37.5 28.5l98 73q29 19 37 54q9 45 -28 45z" />
    <glyph glyph-name="threequarters" unicode="&#xbe;" horiz-adv-x="554" 
d="M127 0l403 710h40l-404 -710h-39zM312 75l18 84q7 31 29 57l140 153h47l-156 -174q-17 -19 -23 -46l-7 -33h82l14 66l29 6h11l-15 -72h40l-14 -41h-35l-15 -75h-39l15 75h-121zM194 382q51 0 65 67q7 31 -7 44.5t-36 13.5h-37l14 41h36q35 0 47 63q13 59 -39 59h-12
q-44 0 -56 -50l-2 -11h-41l4 19q18 82 95 82h29q84 0 65 -92l-5 -25q-12 -51 -45 -68q19 -4 27 -24t2 -47l-4 -17q-20 -96 -102 -96h-56q-76 0 -58 84l3 17h39l-1 -9q-12 -51 33 -51h42z" />
    <glyph glyph-name="questiondown" unicode="&#xbf;" horiz-adv-x="375" 
d="M111 107l-34 -17q-44 -20 -65 -46.5t-32 -78.5l-24 -116q-14 -66 4.5 -97t70.5 -31h121q55 0 88.5 30.5t47.5 97.5l19 86h-52l-16 -74q-19 -90 -84 -90h-99q-36 0 -46.5 20.5t0.5 73.5l20 96q7 33 21 51.5t43 32.5l41 20q41 19 62 44.5t32 76.5l27 129h-52l-25 -118
q-8 -38 -22 -56.5t-46 -33.5zM222 435l15 71h55l-15 -71h-55z" />
    <glyph glyph-name="Agrave" unicode="&#xc0;" horiz-adv-x="434" 
d="M302 710h55l27 -710h-55l-3 156h-226l-69 -156h-53zM316 639l-194 -433h202zM267 855h53l47 -106h-36z" />
    <glyph glyph-name="Aacute" unicode="&#xc1;" horiz-adv-x="434" 
d="M302 710h55l27 -710h-55l-3 156h-226l-69 -156h-53zM316 639l-194 -433h202zM343 749h-42l89 120h58z" />
    <glyph glyph-name="Acircumflex" unicode="&#xc2;" horiz-adv-x="434" 
d="M302 710h55l27 -710h-55l-3 156h-226l-69 -156h-53zM316 639l-194 -433h202zM343 844h32l63 -95h-50l-35 60h-4l-60 -60h-49z" />
    <glyph glyph-name="Atilde" unicode="&#xc3;" horiz-adv-x="434" 
d="M302 710h55l27 -710h-55l-3 156h-226l-69 -156h-53zM316 639l-194 -433h202zM403 827q25 0 32.5 -10t2.5 -36l-7 -29h-35l5 22q3 17 -12 17t-27 -11l-21 -22q-15 -14 -48 -14q-27 0 -33.5 9.5t-1.5 36.5l7 29h35l-5 -22q-2 -9 0 -13t12 -4q15 0 31 16l15 16q15 15 50 15z
" />
    <glyph glyph-name="Adieresis" unicode="&#xc4;" horiz-adv-x="434" 
d="M302 710h55l27 -710h-55l-3 156h-226l-69 -156h-53zM316 639l-194 -433h202zM274 800h43l-13 -59h-43zM387 800h43l-13 -59h-43z" />
    <glyph glyph-name="Aring" unicode="&#xc5;" horiz-adv-x="434" 
d="M302 710h55l27 -710h-55l-3 156h-226l-69 -156h-53zM316 639l-194 -433h202zM356 893h27q35 0 45.5 -15t2.5 -53l-5 -25q-8 -38 -25 -53t-52 -15h-27q-34 0 -44.5 15t-2.5 53l5 25q8 38 24.5 53t51.5 15zM394 801l5 24q4 17 -3 26t-21 9h-25q-32 0 -39 -35l-5 -24
q-7 -35 24 -35h25q31 0 39 35z" />
    <glyph glyph-name="AE" unicode="&#xc6;" horiz-adv-x="658" 
d="M758 710l-17 -50h-268l-42 -343h192l-18 -51h-180l-27 -216h211l-17 -50h-252l18 153h-238l-98 -153h-60l464 710h332zM414 607l-261 -404h212z" />
    <glyph glyph-name="Ccedilla" unicode="&#xc7;" horiz-adv-x="446" 
d="M203 -70l-17 5q-21 4 -14 37l6 28h-47q-63 0 -83 33.5t-5 104.5l92 434q16 71 46.5 104.5t88.5 33.5h139q64 0 84 -33.5t5 -104.5l-16 -74h-52l14 66q12 52 1.5 74t-47.5 22h-125q-36 0 -57 -23t-32 -73l-88 -418q-12 -49 -2 -72.5t48 -23.5h126q36 0 56 22.5t31 73.5
l14 68h53l-16 -76q-16 -71 -46.5 -104.5t-87.5 -33.5h-60l-4 -16q-4 -18 7 -22l20 -6q24 -6 16 -45l-5 -21q-7 -31 -21.5 -43t-43.5 -12h-21q-29 0 -37 11.5t-3 40.5l4 15h33l-2 -10q-6 -24 13 -24h17q22 0 28 25l2 12q5 20 -12 25z" />
    <glyph glyph-name="Egrave" unicode="&#xc8;" horiz-adv-x="387" 
d="M208 660l-72 -337h220l-18 -51h-213l-47 -222h263l-17 -50h-307l150 710h313l-17 -50h-255zM265 855h53l47 -106h-36z" />
    <glyph glyph-name="Eacute" unicode="&#xc9;" horiz-adv-x="387" 
d="M208 660l-72 -337h220l-18 -51h-213l-47 -222h263l-17 -50h-307l150 710h313l-17 -50h-255zM341 749h-42l89 120h58z" />
    <glyph glyph-name="Ecircumflex" unicode="&#xca;" horiz-adv-x="387" 
d="M208 660l-72 -337h220l-18 -51h-213l-47 -222h263l-17 -50h-307l150 710h313l-17 -50h-255zM340 844h32l63 -95h-50l-35 60h-4l-60 -60h-49z" />
    <glyph glyph-name="Edieresis" unicode="&#xcb;" horiz-adv-x="387" 
d="M208 660l-72 -337h220l-18 -51h-213l-47 -222h263l-17 -50h-307l150 710h313l-17 -50h-255zM272 800h43l-13 -59h-43zM385 800h43l-13 -59h-43z" />
    <glyph glyph-name="Igrave" unicode="&#xcc;" 
d="M68 0h-51l150 710h51zM129 855h53l47 -106h-36z" />
    <glyph glyph-name="Iacute" unicode="&#xcd;" 
d="M68 0h-51l150 710h51zM206 749h-42l89 120h58z" />
    <glyph glyph-name="Icircumflex" unicode="&#xce;" 
d="M68 0h-51l150 710h51zM206 844h32l63 -95h-50l-35 60h-4l-60 -60h-49z" />
    <glyph glyph-name="Idieresis" unicode="&#xcf;" 
d="M68 0h-51l150 710h51zM136 800h43l-13 -59h-43zM249 800h43l-13 -59h-43z" />
    <glyph glyph-name="Eth" unicode="&#xd0;" horiz-adv-x="452" 
d="M169 660l10 50h219q64 0 84 -33.5t5 -104.5l-16 -74h-1l-60 -284h1l-16 -76q-16 -72 -46.5 -105t-87.5 -33h-232l10 50h4l57 268h-74l18 48h66l63 294h-4zM293 366l-17 -48h-125l-57 -268h164q36 0 56 22.5t31 73.5l9 46h-1l75 352h1l4 20q12 52 2 74t-47 22h-164
l-63 -294h132z" />
    <glyph glyph-name="Ntilde" unicode="&#xd1;" horiz-adv-x="477" 
d="M68 0h-51l150 710h51l124 -537q8 -31 14 -79l131 616h52l-150 -710h-52l-120 514q-5 21 -18 105zM427 827q25 0 32.5 -10t2.5 -36l-7 -29h-35l5 22q3 17 -12 17t-27 -11l-21 -22q-15 -14 -48 -14q-27 0 -33.5 9.5t-1.5 36.5l7 29h35l-5 -22q-2 -9 0 -13t12 -4q15 0 31 16
l15 16q15 15 50 15z" />
    <glyph glyph-name="Ograve" unicode="&#xd2;" horiz-adv-x="476" 
d="M43 138l92 434q16 71 46.5 104.5t88.5 33.5h153q64 0 84 -33.5t5 -104.5l-92 -434q-16 -71 -46.5 -104.5t-87.5 -33.5h-155q-63 0 -83 33.5t-5 104.5zM412 660h-139q-36 0 -57 -23t-32 -73l-88 -418q-12 -49 -2 -72.5t48 -23.5h140q36 0 56 22.5t31 73.5l88 418
q12 52 2 74t-47 22zM289 855h53l47 -106h-36z" />
    <glyph glyph-name="Oacute" unicode="&#xd3;" horiz-adv-x="476" 
d="M43 138l92 434q16 71 46.5 104.5t88.5 33.5h153q64 0 84 -33.5t5 -104.5l-92 -434q-16 -71 -46.5 -104.5t-87.5 -33.5h-155q-63 0 -83 33.5t-5 104.5zM412 660h-139q-36 0 -57 -23t-32 -73l-88 -418q-12 -49 -2 -72.5t48 -23.5h140q36 0 56 22.5t31 73.5l88 418
q12 52 2 74t-47 22zM366 749h-42l89 120h58z" />
    <glyph glyph-name="Ocircumflex" unicode="&#xd4;" horiz-adv-x="476" 
d="M43 138l92 434q16 71 46.5 104.5t88.5 33.5h153q64 0 84 -33.5t5 -104.5l-92 -434q-16 -71 -46.5 -104.5t-87.5 -33.5h-155q-63 0 -83 33.5t-5 104.5zM412 660h-139q-36 0 -57 -23t-32 -73l-88 -418q-12 -49 -2 -72.5t48 -23.5h140q36 0 56 22.5t31 73.5l88 418
q12 52 2 74t-47 22zM365 844h32l63 -95h-50l-35 60h-4l-60 -60h-49z" />
    <glyph glyph-name="Otilde" unicode="&#xd5;" horiz-adv-x="465" 
d="M43 138l92 434q16 71 46.5 104.5t88.5 33.5h142q64 0 84 -33.5t5 -104.5l-92 -434q-16 -72 -46.5 -105t-87.5 -33h-144q-63 0 -83 33.5t-5 104.5zM402 660h-129q-36 0 -57 -23t-32 -73l-88 -418q-12 -49 -2 -72.5t48 -23.5h130q36 0 56 22.5t31 73.5l88 418q12 52 2 74
t-47 22zM402 827q25 0 32.5 -10t2.5 -36l-7 -29h-35l5 22q3 17 -12 17t-27 -11l-21 -22q-15 -14 -48 -14q-27 0 -33.5 9.5t-1.5 36.5l7 29h35l-5 -22q-2 -9 0 -13t12 -4q15 0 31 16l15 16q15 15 50 15z" />
    <glyph glyph-name="Odieresis" unicode="&#xd6;" horiz-adv-x="476" 
d="M43 138l92 434q16 71 46.5 104.5t88.5 33.5h153q64 0 84 -33.5t5 -104.5l-92 -434q-16 -71 -46.5 -104.5t-87.5 -33.5h-155q-63 0 -83 33.5t-5 104.5zM412 660h-139q-36 0 -57 -23t-32 -73l-88 -418q-12 -49 -2 -72.5t48 -23.5h140q36 0 56 22.5t31 73.5l88 418
q12 52 2 74t-47 22zM296 800h43l-13 -59h-43zM409 800h43l-13 -59h-43z" />
    <glyph glyph-name="multiply" unicode="&#xd7;" horiz-adv-x="316" 
d="M326 389l-115 -114l67 -114l-38 -33l-67 114l-114 -114l-24 33l113 114l-65 114l38 33l66 -114l115 114z" />
    <glyph glyph-name="Oslash" unicode="&#xd8;" horiz-adv-x="466" 
d="M531 753h57l-81 -112q3 -29 -6 -69l-92 -434q-16 -72 -46.5 -105t-87.5 -33h-144q-48 0 -70 19l-45 -62h-56l76 108q-2 32 7 73l92 434q16 71 47 104.5t89 33.5h142q49 0 72 -20zM402 660h-128q-36 0 -57 -23t-32 -73l-88 -415l351 490q-8 21 -46 21zM143 50h129
q36 0 56 22.5t31 73.5l86 409l-349 -486q12 -19 47 -19z" />
    <glyph glyph-name="Ugrave" unicode="&#xd9;" horiz-adv-x="458" 
d="M252 50q40 0 64 26t36 82l117 552h52l-120 -567q-30 -143 -141 -143h-124q-121 0 -91 143l120 567h51l-117 -552q-12 -56 0 -82t52 -26h101zM279 855h53l47 -106h-36z" />
    <glyph glyph-name="Uacute" unicode="&#xda;" horiz-adv-x="458" 
d="M252 50q40 0 64 26t36 82l117 552h52l-120 -567q-30 -143 -141 -143h-124q-121 0 -91 143l120 567h51l-117 -552q-12 -56 0 -82t52 -26h101zM356 749h-42l89 120h58z" />
    <glyph glyph-name="Ucircumflex" unicode="&#xdb;" horiz-adv-x="458" 
d="M252 50q40 0 64 26t36 82l117 552h52l-120 -567q-30 -143 -141 -143h-124q-121 0 -91 143l120 567h51l-117 -552q-12 -56 0 -82t52 -26h101zM355 844h32l63 -95h-50l-35 60h-4l-60 -60h-49z" />
    <glyph glyph-name="Udieresis" unicode="&#xdc;" horiz-adv-x="458" 
d="M252 50q40 0 64 26t36 82l117 552h52l-120 -567q-30 -143 -141 -143h-124q-121 0 -91 143l120 567h51l-117 -552q-12 -56 0 -82t52 -26h101zM286 800h43l-13 -59h-43zM399 800h43l-13 -59h-43z" />
    <glyph glyph-name="Yacute" unicode="&#xdd;" horiz-adv-x="417" 
d="M198 0h-51l62 294l-83 416h52l59 -316q7 -45 6 -54q9 23 28 53l192 317h54l-257 -415zM336 749h-42l89 120h58z" />
    <glyph glyph-name="Thorn" unicode="&#xde;" horiz-adv-x="420" 
d="M68 0h-51l163 767l45 10h8l-36 -166h167q120 0 92 -133l-33 -150q-27 -133 -130 -133h-184zM187 561l-67 -315h169q35 0 55.5 22t30.5 71l27 128q11 49 -0.5 71.5t-45.5 22.5h-169z" />
    <glyph glyph-name="germandbls" unicode="&#xdf;" horiz-adv-x="425" 
d="M-17 -140l139 654h1l12 58q16 71 46.5 104.5t88.5 33.5h86q124 0 96 -135l-22 -101q-18 -86 -66 -102q62 -19 40 -124l-24 -113q-28 -135 -150 -135h-112l10 50h101q82 0 103 97l21 99q11 52 -2.5 75.5t-53.5 23.5h-106l10 50h100q62 0 78 79l19 86q10 52 -5.5 76
t-60.5 24h-59q-36 0 -57 -23t-32 -73l-13 -63h-1l-136 -641h-51z" />
    <glyph glyph-name="agrave" unicode="&#xe0;" horiz-adv-x="367" 
d="M241 0l7 54q-18 -32 -42 -43t-60 -11h-41q-55 0 -76 26t-8 84l15 73q12 55 38 81.5t69 26.5h153l23 107q14 66 -34 66h-81q-51 0 -65 -66l-4 -19h-47l6 30q22 102 102 102h104q93 0 70 -103l-86 -408h-43zM119 48h52q39 0 61 22t33 73l22 103h-139q-52 0 -68 -72l-11 -56
q-9 -41 3.5 -55.5t46.5 -14.5zM197 685h53l47 -106h-36z" />
    <glyph glyph-name="aacute" unicode="&#xe1;" horiz-adv-x="367" 
d="M241 0l7 54q-18 -32 -42 -43t-60 -11h-41q-55 0 -76 26t-8 84l15 73q12 55 38 81.5t69 26.5h153l23 107q14 66 -34 66h-81q-51 0 -65 -66l-4 -19h-47l6 30q22 102 102 102h104q93 0 70 -103l-86 -408h-43zM119 48h52q39 0 61 22t33 73l22 103h-139q-52 0 -68 -72l-11 -56
q-9 -41 3.5 -55.5t46.5 -14.5zM277 581h-42l90 120h58z" />
    <glyph glyph-name="acircumflex" unicode="&#xe2;" horiz-adv-x="367" 
d="M241 0l7 54q-18 -32 -42 -43t-60 -11h-41q-55 0 -76 26t-8 84l15 73q12 55 38 81.5t69 26.5h153l23 107q14 66 -34 66h-81q-51 0 -65 -66l-4 -19h-47l6 30q22 102 102 102h104q93 0 70 -103l-86 -408h-43zM119 48h52q39 0 61 22t33 73l22 103h-139q-52 0 -68 -72l-11 -56
q-9 -41 3.5 -55.5t46.5 -14.5zM274 674h32l63 -95h-50l-35 60h-4l-60 -60h-49z" />
    <glyph glyph-name="atilde" unicode="&#xe3;" horiz-adv-x="367" 
d="M241 0l7 54q-18 -32 -42 -43t-60 -11h-41q-55 0 -76 26t-8 84l15 73q12 55 38 81.5t69 26.5h153l23 107q14 66 -34 66h-81q-51 0 -65 -66l-4 -19h-47l6 30q22 102 102 102h104q93 0 70 -103l-86 -408h-43zM119 48h52q39 0 61 22t33 73l22 103h-139q-52 0 -68 -72l-11 -56
q-9 -41 3.5 -55.5t46.5 -14.5zM333 657q25 0 32.5 -10t1.5 -36l-6 -29h-35l5 22q3 17 -13 17q-14 0 -26 -11l-22 -22q-14 -14 -47 -14q-27 0 -33.5 9.5t-1.5 36.5l6 29h35l-4 -22q-5 -17 12 -17q15 0 31 16l15 16q15 15 50 15z" />
    <glyph glyph-name="adieresis" unicode="&#xe4;" horiz-adv-x="367" 
d="M241 0l7 54q-18 -32 -42 -43t-60 -11h-41q-55 0 -76 26t-8 84l15 73q12 55 38 81.5t69 26.5h153l23 107q14 66 -34 66h-81q-51 0 -65 -66l-4 -19h-47l6 30q22 102 102 102h104q93 0 70 -103l-86 -408h-43zM119 48h52q39 0 61 22t33 73l22 103h-139q-52 0 -68 -72l-11 -56
q-9 -41 3.5 -55.5t46.5 -14.5zM203 630h43l-12 -59h-43zM316 630h43l-12 -59h-43z" />
    <glyph glyph-name="aring" unicode="&#xe5;" horiz-adv-x="367" 
d="M241 0l7 54q-18 -32 -42 -43t-60 -11h-41q-55 0 -76 26t-8 84l15 73q12 55 38 81.5t69 26.5h153l23 107q14 66 -34 66h-81q-51 0 -65 -66l-4 -19h-47l6 30q22 102 102 102h104q93 0 70 -103l-86 -408h-43zM119 48h52q39 0 61 22t33 73l22 103h-139q-52 0 -68 -72l-11 -56
q-9 -41 3.5 -55.5t46.5 -14.5zM288 723h27q35 0 45.5 -15t2.5 -53l-6 -25q-8 -38 -24.5 -53t-51.5 -15h-27q-34 0 -45 15t-3 53l6 25q8 38 24.5 53t51.5 15zM326 631l5 24q4 17 -3 26t-21 9h-25q-32 0 -39 -35l-5 -24q-7 -35 24 -35h25q31 0 39 35z" />
    <glyph glyph-name="ae" unicode="&#xe6;" horiz-adv-x="584" 
d="M352 48h59q34 0 53 21.5t29 68.5l3 16h47l-4 -18q-15 -73 -46.5 -104.5t-94.5 -31.5h-54q-86 0 -93 62q-37 -62 -113 -62h-40q-51 0 -70.5 26t-6.5 84l15 73q23 108 123 108h131l23 107q14 66 -34 66h-77q-50 0 -64 -66l-4 -19h-46l6 30q22 102 107 102h99q45 0 60 -28
q32 28 92 28h54q62 0 82 -25.5t7 -89.5l-14 -62q-12 -59 -39.5 -84.5t-90.5 -25.5h-126l-18 -83q-9 -48 0.5 -70.5t44.5 -22.5zM116 48h49q39 0 61 22t33 73l22 103h-125q-60 0 -76 -72l-11 -56q-9 -41 3 -55.5t44 -14.5zM499 463h-54q-38 0 -58 -21.5t-31 -71.5l-21 -101
h124q34 0 51.5 16.5t25.5 54.5l10 49q9 38 -2 56t-45 18z" />
    <glyph glyph-name="ccedilla" unicode="&#xe7;" horiz-adv-x="360" 
d="M153 -70l-17 5q-21 4 -14 37l6 28h-6q-59 0 -79 32.5t-6 100.5l51 241q15 70 44 102.5t84 32.5h74q58 0 76.5 -32t4.5 -100l-10 -40h-46l7 32q11 49 1 71t-44 22h-59q-35 0 -54.5 -22.5t-29.5 -70.5l-49 -229q-10 -51 0.5 -71.5t44.5 -20.5h58q38 0 54.5 17.5t26.5 64.5
l8 35h46l-10 -45q-14 -65 -40.5 -92.5t-77.5 -27.5h-35l-4 -16q-4 -18 7 -22l20 -6q24 -6 16 -45l-5 -21q-7 -31 -21.5 -43t-43.5 -12h-21q-29 0 -37 11.5t-3 40.5l4 15h33l-2 -10q-6 -24 13 -24h17q22 0 28 25l2 12q5 20 -12 25z" />
    <glyph glyph-name="egrave" unicode="&#xe8;" horiz-adv-x="365" 
d="M130 46h59q34 0 53 21.5t29 68.5l4 18h46l-4 -18q-16 -74 -44.5 -105t-89.5 -31h-54q-65 0 -86 31.5t-6 103.5l55 258q14 65 44.5 91.5t91.5 26.5h44q69 0 90.5 -26.5t7.5 -91.5l-11 -56q-13 -61 -40 -87t-90 -26h-124l-18 -85q-11 -46 -2 -69.5t45 -23.5zM280 466h-63
q-33 0 -50.5 -18.5t-26.5 -57.5l-25 -121h120q35 0 53 17t26 54l11 51q8 38 -2 56.5t-43 18.5zM201 685h53l47 -106h-36z" />
    <glyph glyph-name="eacute" unicode="&#xe9;" horiz-adv-x="365" 
d="M130 46h59q34 0 53 21.5t29 68.5l4 18h46l-4 -18q-16 -74 -44.5 -105t-89.5 -31h-54q-65 0 -86 31.5t-6 103.5l55 258q14 65 44.5 91.5t91.5 26.5h44q69 0 90.5 -26.5t7.5 -91.5l-11 -56q-13 -61 -40 -87t-90 -26h-124l-18 -85q-11 -46 -2 -69.5t45 -23.5zM280 466h-63
q-33 0 -50.5 -18.5t-26.5 -57.5l-25 -121h120q35 0 53 17t26 54l11 51q8 38 -2 56.5t-43 18.5zM277 579h-42l89 120h58z" />
    <glyph glyph-name="ecircumflex" unicode="&#xea;" horiz-adv-x="365" 
d="M130 46h59q34 0 53 21.5t29 68.5l4 18h46l-4 -18q-16 -74 -44.5 -105t-89.5 -31h-54q-65 0 -86 31.5t-6 103.5l55 258q14 65 44.5 91.5t91.5 26.5h44q69 0 90.5 -26.5t7.5 -91.5l-11 -56q-13 -61 -40 -87t-90 -26h-124l-18 -85q-11 -46 -2 -69.5t45 -23.5zM280 466h-63
q-33 0 -50.5 -18.5t-26.5 -57.5l-25 -121h120q35 0 53 17t26 54l11 51q8 38 -2 56.5t-43 18.5zM277 674h32l63 -95h-50l-35 60h-4l-60 -60h-49z" />
    <glyph glyph-name="edieresis" unicode="&#xeb;" horiz-adv-x="365" 
d="M130 46h59q34 0 53 21.5t29 68.5l4 18h46l-4 -18q-16 -74 -44.5 -105t-89.5 -31h-54q-65 0 -86 31.5t-6 103.5l55 258q14 65 44.5 91.5t91.5 26.5h44q69 0 90.5 -26.5t7.5 -91.5l-11 -56q-13 -61 -40 -87t-90 -26h-124l-18 -85q-11 -46 -2 -69.5t45 -23.5zM280 466h-63
q-33 0 -50.5 -18.5t-26.5 -57.5l-25 -121h120q35 0 53 17t26 54l11 51q8 38 -2 56.5t-43 18.5zM206 630h43l-12 -59h-43zM319 630h43l-12 -59h-43z" />
    <glyph glyph-name="igrave" unicode="&#xec;" 
d="M121 457h-45l10 48h93l-107 -505h-48zM98 685h53l47 -106h-36z" />
    <glyph glyph-name="iacute" unicode="&#xed;" 
d="M121 457h-45l10 48h93l-107 -505h-48zM175 579h-42l89 120h58z" />
    <glyph glyph-name="icircumflex" unicode="&#xee;" 
d="M121 457h-45l10 48h93l-107 -505h-48zM175 674h32l63 -95h-50l-35 60h-4l-60 -60h-49z" />
    <glyph glyph-name="idieresis" unicode="&#xef;" 
d="M121 457h-45l10 48h93l-107 -505h-48zM103 630h43l-12 -59h-43zM216 630h43l-12 -59h-43z" />
    <glyph glyph-name="eth" unicode="&#xf0;" horiz-adv-x="368" 
d="M364 359l-48 -227q-15 -71 -47.5 -101.5t-94.5 -30.5h-61q-62 0 -81.5 30.5t-4.5 101.5l33 157q15 71 47 101.5t95 30.5h64q18 0 52 -2q-3 33 -21 82l-27 79l-118 -23l9 45l89 18l-34 90h61l27 -80l123 24l-10 -45l-95 -20l31 -103q21 -79 11 -127zM190 373
q-35 0 -54 -22t-30 -71l-30 -139q-10 -49 0 -71t45 -22h66q34 0 53 22t29 71l42 195q1 6 2.5 18.5t2.5 18.5h-126z" />
    <glyph glyph-name="ntilde" unicode="&#xf1;" horiz-adv-x="374" 
d="M12 0l105 495l39 10h9l-10 -46q36 52 93 52h45q56 0 75 -31t6 -94l-82 -386h-49l79 376q10 49 0.5 69.5t-43.5 20.5h-53q-28 0 -50 -21t-31 -47l-84 -398h-49zM346 657q25 0 32.5 -10t1.5 -36l-6 -29h-35l5 22q3 17 -13 17q-14 0 -26 -11l-22 -22q-14 -14 -47 -14
q-27 0 -33.5 9.5t-1.5 36.5l6 29h35l-4 -22q-5 -17 12 -17q15 0 31 16l15 16q15 15 50 15z" />
    <glyph glyph-name="ograve" unicode="&#xf2;" horiz-adv-x="380" 
d="M216 511h78q60 0 80 -33.5t5 -101.5l-52 -248q-27 -128 -128 -128h-80q-110 0 -83 128l52 248q16 70 45 102.5t83 32.5zM285 465h-65q-35 0 -54 -22.5t-29 -70.5l-50 -233q-11 -52 -0.5 -72.5t44.5 -20.5h65q34 0 53.5 21t30.5 72l50 233q10 48 0 70.5t-45 22.5zM205 685
h53l47 -106h-36z" />
    <glyph glyph-name="oacute" unicode="&#xf3;" horiz-adv-x="380" 
d="M216 511h78q60 0 80 -33.5t5 -101.5l-52 -248q-27 -128 -128 -128h-80q-110 0 -83 128l52 248q16 70 45 102.5t83 32.5zM285 465h-65q-35 0 -54 -22.5t-29 -70.5l-50 -233q-11 -52 -0.5 -72.5t44.5 -20.5h65q34 0 53.5 21t30.5 72l50 233q10 48 0 70.5t-45 22.5zM281 579
h-42l89 120h58z" />
    <glyph glyph-name="ocircumflex" unicode="&#xf4;" horiz-adv-x="380" 
d="M216 511h78q60 0 80 -33.5t5 -101.5l-52 -248q-27 -128 -128 -128h-80q-110 0 -83 128l52 248q16 70 45 102.5t83 32.5zM285 465h-65q-35 0 -54 -22.5t-29 -70.5l-50 -233q-11 -52 -0.5 -72.5t44.5 -20.5h65q34 0 53.5 21t30.5 72l50 233q10 48 0 70.5t-45 22.5zM282 674
h32l63 -95h-50l-35 60h-4l-60 -60h-49z" />
    <glyph glyph-name="otilde" unicode="&#xf5;" horiz-adv-x="380" 
d="M216 511h78q60 0 80 -33.5t5 -101.5l-52 -248q-27 -128 -128 -128h-80q-110 0 -83 128l52 248q16 70 45 102.5t83 32.5zM285 465h-65q-35 0 -54 -22.5t-29 -70.5l-50 -233q-11 -52 -0.5 -72.5t44.5 -20.5h65q34 0 53.5 21t30.5 72l50 233q10 48 0 70.5t-45 22.5zM341 657
q25 0 32.5 -10t1.5 -36l-6 -29h-35l5 22q3 17 -13 17q-14 0 -26 -11l-22 -22q-14 -14 -47 -14q-27 0 -33.5 9.5t-1.5 36.5l6 29h35l-4 -22q-5 -17 12 -17q15 0 31 16l15 16q15 15 50 15z" />
    <glyph glyph-name="odieresis" unicode="&#xf6;" horiz-adv-x="380" 
d="M216 511h78q60 0 80 -33.5t5 -101.5l-52 -248q-27 -128 -128 -128h-80q-110 0 -83 128l52 248q16 70 45 102.5t83 32.5zM285 465h-65q-35 0 -54 -22.5t-29 -70.5l-50 -233q-11 -52 -0.5 -72.5t44.5 -20.5h65q34 0 53.5 21t30.5 72l50 233q10 48 0 70.5t-45 22.5zM210 630
h43l-12 -59h-43zM323 630h43l-12 -59h-43z" />
    <glyph glyph-name="divide" unicode="&#xf7;" horiz-adv-x="390" 
d="M61 274l17 50h305l-17 -50h-305zM217 397l15 71h55l-15 -71h-55zM160 131l15 71h55l-15 -71h-55z" />
    <glyph glyph-name="oslash" unicode="&#xf8;" horiz-adv-x="383" 
d="M416 544h49l-80 -101q3 -28 -6 -67l-52 -248q-27 -128 -128 -128h-80q-50 0 -71 24l-48 -60h-48l79 100q-3 29 5 64l52 248q16 70 45 102.5t83 32.5h78q51 0 75 -26zM285 465h-65q-35 0 -54 -22.5t-29 -70.5l-51 -240l246 306q-10 27 -47 27zM280 139l50 237l-245 -306
q10 -24 46 -24h65q34 0 53.5 21t30.5 72z" />
    <glyph glyph-name="ugrave" unicode="&#xf9;" horiz-adv-x="373" 
d="M396 505l-107 -505h-38l7 52q-41 -52 -102 -52h-42q-105 0 -77 128l80 377h49l-79 -370q-10 -48 1.5 -69t45.5 -21h43q31 0 55 22t32 48h3l1 3v12l79 375h49zM197 685h53l47 -106h-36z" />
    <glyph glyph-name="uacute" unicode="&#xfa;" horiz-adv-x="373" 
d="M396 505l-107 -505h-38l7 52q-41 -52 -102 -52h-42q-105 0 -77 128l80 377h49l-79 -370q-10 -48 1.5 -69t45.5 -21h43q31 0 55 22t32 48h3l1 3v12l79 375h49zM273 579h-42l89 120h58z" />
    <glyph glyph-name="ucircumflex" unicode="&#xfb;" horiz-adv-x="373" 
d="M396 505l-107 -505h-38l7 52q-41 -52 -102 -52h-42q-105 0 -77 128l80 377h49l-79 -370q-10 -48 1.5 -69t45.5 -21h43q31 0 55 22t32 48h3l1 3v12l79 375h49zM274 674h32l63 -95h-50l-35 60h-4l-60 -60h-49z" />
    <glyph glyph-name="udieresis" unicode="&#xfc;" horiz-adv-x="373" 
d="M396 505l-107 -505h-38l7 52q-41 -52 -102 -52h-42q-105 0 -77 128l80 377h49l-79 -370q-10 -48 1.5 -69t45.5 -21h43q31 0 55 22t32 48h3l1 3v12l79 375h49zM202 630h43l-12 -59h-43zM315 630h43l-12 -59h-43z" />
    <glyph glyph-name="yacute" unicode="&#xfd;" horiz-adv-x="352" 
d="M-9 -177q54 0 86 71l44 98h-13l-17 513h51l9 -444l201 444h53l-287 -619q-27 -61 -56.5 -86t-82.5 -25h-46l17 48h41zM260 579h-42l89 120h58z" />
    <glyph glyph-name="thorn" unicode="&#xfe;" horiz-adv-x="383" 
d="M8 -250h-47l215 1017l42 10h9l-68 -316q37 50 93 50h48q59 0 78 -31.5t5 -96.5l-54 -252q-14 -67 -43.5 -99t-83.5 -32h-57q-63 0 -73 50zM226 465q-57 0 -81 -72l-58 -273q-8 -74 50 -74h61q65 0 85 91l49 230q11 55 -0.5 76.5t-51.5 21.5h-54z" />
    <glyph glyph-name="ydieresis" unicode="&#xff;" horiz-adv-x="352" 
d="M-9 -177q54 0 86 71l44 98h-13l-17 513h51l9 -444l201 444h53l-287 -619q-27 -61 -56.5 -86t-82.5 -25h-46l17 48h41zM188 630h43l-12 -59h-43zM301 630h43l-12 -59h-43z" />
    <glyph glyph-name="Amacron" unicode="&#x100;" horiz-adv-x="434" 
d="M302 710h55l27 -710h-55l-3 156h-226l-69 -156h-53zM316 639l-194 -433h202zM445 799l-16 -45h-173l16 45h173z" />
    <glyph glyph-name="amacron" unicode="&#x101;" horiz-adv-x="367" 
d="M241 0l7 54q-18 -32 -42 -43t-60 -11h-41q-55 0 -76 26t-8 84l15 73q12 55 38 81.5t69 26.5h153l23 107q14 66 -34 66h-81q-51 0 -65 -66l-4 -19h-47l6 30q22 102 102 102h104q93 0 70 -103l-86 -408h-43zM119 48h52q39 0 61 22t33 73l22 103h-139q-52 0 -68 -72l-11 -56
q-9 -41 3.5 -55.5t46.5 -14.5zM375 629l-16 -45h-173l16 45h173z" />
    <glyph glyph-name="Abreve" unicode="&#x102;" horiz-adv-x="434" 
d="M302 710h55l27 -710h-55l-3 156h-226l-69 -156h-53zM316 639l-194 -433h202zM352 747h-25q-37 0 -48.5 16t-2.5 58l2 11h32l-3 -14q-8 -38 27 -38h25q36 0 43 38l3 14h31l-2 -11q-9 -42 -26.5 -58t-55.5 -16z" />
    <glyph glyph-name="abreve" unicode="&#x103;" horiz-adv-x="367" 
d="M241 0l7 54q-18 -32 -42 -43t-60 -11h-41q-55 0 -76 26t-8 84l15 73q12 55 38 81.5t69 26.5h153l23 107q14 66 -34 66h-81q-51 0 -65 -66l-4 -19h-47l6 30q22 102 102 102h104q93 0 70 -103l-86 -408h-43zM119 48h52q39 0 61 22t33 73l22 103h-139q-52 0 -68 -72l-11 -56
q-9 -41 3.5 -55.5t46.5 -14.5zM283 577h-25q-37 0 -48.5 16t-2.5 58l2 11h32l-3 -14q-8 -38 27 -38h25q36 0 43 38l3 14h31l-2 -11q-9 -42 -26.5 -58t-55.5 -16z" />
    <glyph glyph-name="Aogonek" unicode="&#x104;" horiz-adv-x="434" 
d="M255 -117l2 12q8 34 46 58q19 11 25 18t9 24l2 5h-10l-3 156h-226l-69 -156h-53l324 710h55l27 -710h-15l-4 -15q-5 -24 -14.5 -35.5t-29.5 -23.5q-26 -14 -30 -33q-3 -11 2 -15t17 -4h50l-12 -34h-51q-51 0 -42 43zM316 639l-194 -433h202z" />
    <glyph glyph-name="aogonek" unicode="&#x105;" horiz-adv-x="366" 
d="M241 0l7 54q-18 -32 -42 -43t-60 -11h-41q-55 0 -76 26t-8 84l15 73q12 55 38 81.5t69 26.5h153l23 107q14 66 -34 66h-81q-51 0 -65 -66l-4 -19h-47l6 30q22 102 102 102h104q93 0 70 -103l-86 -408h-8q-6 -23 -15.5 -34.5t-29.5 -23.5q-26 -15 -30 -33q-2 -11 2.5 -15
t16.5 -4h50l-11 -34h-51q-52 0 -43 43l3 12q7 34 45 58q17 10 23 15.5t9 15.5h-4zM119 48h52q39 0 61 22t33 73l22 103h-139q-52 0 -68 -72l-11 -56q-9 -41 3.5 -55.5t46.5 -14.5z" />
    <glyph glyph-name="Cacute" unicode="&#x106;" horiz-adv-x="446" 
d="M142 50h126q36 0 56 22.5t31 73.5l14 68h53l-16 -76q-16 -71 -46.5 -104.5t-87.5 -33.5h-141q-63 0 -83 33.5t-5 104.5l92 434q16 71 46.5 104.5t88.5 33.5h139q64 0 84 -33.5t5 -104.5l-16 -74h-52l14 66q12 52 1.5 74t-47.5 22h-125q-36 0 -57 -23t-32 -73l-88 -418
q-12 -49 -2 -72.5t48 -23.5zM363 749h-42l89 120h58z" />
    <glyph glyph-name="cacute" unicode="&#x107;" horiz-adv-x="360" 
d="M279 462h-59q-35 0 -54.5 -22.5t-29.5 -70.5l-49 -229q-10 -51 0.5 -71.5t44.5 -20.5h58q38 0 54.5 17.5t26.5 64.5l8 35h46l-10 -45q-14 -65 -40.5 -92.5t-77.5 -27.5h-75q-59 0 -79 32.5t-6 100.5l51 241q15 70 44 102.5t84 32.5h74q58 0 76.5 -32t4.5 -100l-10 -40
h-46l7 32q11 49 1 71t-44 22zM277 579h-42l89 120h58z" />
    <glyph glyph-name="Ccircumflex" unicode="&#x108;" horiz-adv-x="446" 
d="M142 50h126q36 0 56 22.5t31 73.5l14 68h53l-16 -76q-16 -71 -46.5 -104.5t-87.5 -33.5h-141q-63 0 -83 33.5t-5 104.5l92 434q16 71 46.5 104.5t88.5 33.5h139q64 0 84 -33.5t5 -104.5l-16 -74h-52l14 66q12 52 1.5 74t-47.5 22h-125q-36 0 -57 -23t-32 -73l-88 -418
q-12 -49 -2 -72.5t48 -23.5zM362 844h32l63 -95h-50l-35 60h-4l-60 -60h-49z" />
    <glyph glyph-name="ccircumflex" unicode="&#x109;" horiz-adv-x="360" 
d="M279 462h-59q-35 0 -54.5 -22.5t-29.5 -70.5l-49 -229q-10 -51 0.5 -71.5t44.5 -20.5h58q38 0 54.5 17.5t26.5 64.5l8 35h46l-10 -45q-14 -65 -40.5 -92.5t-77.5 -27.5h-75q-59 0 -79 32.5t-6 100.5l51 241q15 70 44 102.5t84 32.5h74q58 0 76.5 -32t4.5 -100l-10 -40
h-46l7 32q11 49 1 71t-44 22zM278 674h32l63 -95h-50l-35 60h-4l-60 -60h-49z" />
    <glyph glyph-name="Cdotaccent" unicode="&#x10a;" horiz-adv-x="446" 
d="M142 50h126q36 0 56 22.5t31 73.5l14 68h53l-16 -76q-16 -71 -46.5 -104.5t-87.5 -33.5h-141q-63 0 -83 33.5t-5 104.5l92 434q16 71 46.5 104.5t88.5 33.5h139q64 0 84 -33.5t5 -104.5l-16 -74h-52l14 66q12 52 1.5 74t-47.5 22h-125q-36 0 -57 -23t-32 -73l-88 -418
q-12 -49 -2 -72.5t48 -23.5zM344 813h57l-13 -63h-57z" />
    <glyph glyph-name="cdotaccent" unicode="&#x10b;" horiz-adv-x="360" 
d="M279 462h-59q-35 0 -54.5 -22.5t-29.5 -70.5l-49 -229q-10 -51 0.5 -71.5t44.5 -20.5h58q38 0 54.5 17.5t26.5 64.5l8 35h46l-10 -45q-14 -65 -40.5 -92.5t-77.5 -27.5h-75q-59 0 -79 32.5t-6 100.5l51 241q15 70 44 102.5t84 32.5h74q58 0 76.5 -32t4.5 -100l-10 -40
h-46l7 32q11 49 1 71t-44 22zM256 633h57l-13 -63h-57z" />
    <glyph glyph-name="Ccaron" unicode="&#x10c;" horiz-adv-x="446" 
d="M142 50h126q36 0 56 22.5t31 73.5l14 68h53l-16 -76q-16 -71 -46.5 -104.5t-87.5 -33.5h-141q-63 0 -83 33.5t-5 104.5l92 434q16 71 46.5 104.5t88.5 33.5h139q64 0 84 -33.5t5 -104.5l-16 -74h-52l14 66q12 52 1.5 74t-47.5 22h-125q-36 0 -57 -23t-32 -73l-88 -418
q-12 -49 -2 -72.5t48 -23.5zM373 749h-31l-60 96h47l36 -64l62 64h48z" />
    <glyph glyph-name="ccaron" unicode="&#x10d;" horiz-adv-x="360" 
d="M279 462h-59q-35 0 -54.5 -22.5t-29.5 -70.5l-49 -229q-10 -51 0.5 -71.5t44.5 -20.5h58q38 0 54.5 17.5t26.5 64.5l8 35h46l-10 -45q-14 -65 -40.5 -92.5t-77.5 -27.5h-75q-59 0 -79 32.5t-6 100.5l51 241q15 70 44 102.5t84 32.5h74q58 0 76.5 -32t4.5 -100l-10 -40
h-46l7 32q11 49 1 71t-44 22zM289 579h-31l-60 96h47l35 -64l63 64h48z" />
    <glyph glyph-name="Dcaron" unicode="&#x10e;" horiz-adv-x="469" 
d="M157 660l10 50h220q78 0 105 -41t9 -127l-17 -76l-64 -298q-18 -86 -59.5 -127t-113.5 -41h-230l10 50h1l130 610h-1zM378 660h-169l-130 -610h167q51 0 80.5 31t43.5 97l76 354q14 67 -1 97.5t-67 30.5zM362 749h-31l-60 96h47l36 -64l62 64h48z" />
    <glyph glyph-name="dcaron" unicode="&#x10f;" horiz-adv-x="382" 
d="M455 740l-157 -740h-42l8 58q-35 -58 -98 -58h-54q-104 0 -76 128l53 250q14 66 45 99.5t87 33.5h57q58 0 69 -50l58 269l41 10h9zM278 132l52 249q7 39 -6 61.5t-43 22.5h-59q-66 0 -85 -91l-50 -237q-20 -91 44 -91h61q28 0 51 22t35 64zM503 759h61l-59 -189h-27z" />
    <glyph glyph-name="Dcroat" unicode="&#x110;" horiz-adv-x="471" 
d="M19 0l73 348h-57l17 45h50l67 317h219q78 0 105 -41t9 -127l-80 -374q-18 -86 -59.5 -127t-113.5 -41h-230zM380 660h-169l-57 -267h85l-17 -45h-78l-63 -298h167q50 0 79.5 31t43.5 97l15 68h1l61 286q14 67 -1.5 97.5t-66.5 30.5z" />
    <glyph glyph-name="dcroat" unicode="&#x111;" horiz-adv-x="382" 
d="M510 674l-17 -48h-62l-75 -353h1l-58 -273h-43l7 56q-34 -56 -96 -56h-54q-104 0 -76 128l53 250q14 66 45 99.5t87 33.5h56q57 0 69 -47l35 162h-104l18 48h96l12 56l41 10h10l-14 -66h69zM292 205l41 191q5 69 -51 69h-59q-66 0 -85 -91l-50 -237q-20 -91 44 -91h61
q27 0 50 21.5t34 60.5l16 77h-1z" />
    <glyph glyph-name="Emacron" unicode="&#x112;" horiz-adv-x="387" 
d="M208 660l-72 -337h220l-18 -51h-213l-47 -222h263l-17 -50h-307l150 710h313l-17 -50h-255zM443 799l-16 -45h-173l16 45h173z" />
    <glyph glyph-name="emacron" unicode="&#x113;" horiz-adv-x="365" 
d="M130 46h59q34 0 53 21.5t29 68.5l4 18h46l-4 -18q-16 -74 -44.5 -105t-89.5 -31h-54q-65 0 -86 31.5t-6 103.5l55 258q14 65 44.5 91.5t91.5 26.5h44q69 0 90.5 -26.5t7.5 -91.5l-11 -56q-13 -61 -40 -87t-90 -26h-124l-18 -85q-11 -46 -2 -69.5t45 -23.5zM280 466h-63
q-33 0 -50.5 -18.5t-26.5 -57.5l-25 -121h120q35 0 53 17t26 54l11 51q8 38 -2 56.5t-43 18.5zM378 629l-16 -45h-173l16 45h173z" />
    <glyph glyph-name="Ebreve" unicode="&#x114;" horiz-adv-x="387" 
d="M208 660l-72 -337h220l-18 -51h-213l-47 -222h263l-17 -50h-307l150 710h313l-17 -50h-255zM350 747h-25q-37 0 -48.5 16t-2.5 58l2 11h32l-3 -14q-8 -38 27 -38h25q36 0 43 38l3 14h31l-2 -11q-9 -42 -26.5 -58t-55.5 -16z" />
    <glyph glyph-name="ebreve" unicode="&#x115;" horiz-adv-x="365" 
d="M130 46h59q34 0 53 21.5t29 68.5l4 18h46l-4 -18q-16 -74 -44.5 -105t-89.5 -31h-54q-65 0 -86 31.5t-6 103.5l55 258q14 65 44.5 91.5t91.5 26.5h44q69 0 90.5 -26.5t7.5 -91.5l-11 -56q-13 -61 -40 -87t-90 -26h-124l-18 -85q-11 -46 -2 -69.5t45 -23.5zM280 466h-63
q-33 0 -50.5 -18.5t-26.5 -57.5l-25 -121h120q35 0 53 17t26 54l11 51q8 38 -2 56.5t-43 18.5zM286 577h-25q-37 0 -48.5 16t-2.5 58l2 11h32l-3 -14q-8 -38 27 -38h25q36 0 43 38l3 14h31l-2 -11q-9 -42 -26.5 -58t-55.5 -16z" />
    <glyph glyph-name="Edotaccent" unicode="&#x116;" horiz-adv-x="387" 
d="M208 660l-72 -337h220l-18 -51h-213l-47 -222h263l-17 -50h-307l150 710h313l-17 -50h-255zM323 813h57l-13 -63h-57z" />
    <glyph glyph-name="edotaccent" unicode="&#x117;" horiz-adv-x="365" 
d="M130 46h59q34 0 53 21.5t29 68.5l4 18h46l-4 -18q-16 -74 -44.5 -105t-89.5 -31h-54q-65 0 -86 31.5t-6 103.5l55 258q14 65 44.5 91.5t91.5 26.5h44q69 0 90.5 -26.5t7.5 -91.5l-11 -56q-13 -61 -40 -87t-90 -26h-124l-18 -85q-11 -46 -2 -69.5t45 -23.5zM280 466h-63
q-33 0 -50.5 -18.5t-26.5 -57.5l-25 -121h120q35 0 53 17t26 54l11 51q8 38 -2 56.5t-43 18.5zM256 635h57l-13 -63h-57z" />
    <glyph glyph-name="Eogonek" unicode="&#x118;" horiz-adv-x="387" 
d="M210 -107l2 12q8 34 46 58q17 10 23.5 16.5t10.5 20.5h-275l150 710h313l-17 -50h-255l-72 -337h220l-18 -51h-213l-47 -222h263l-17 -50h-2l-2 -5q-5 -24 -14.5 -35.5t-29.5 -23.5q-26 -14 -30 -33q-3 -11 2 -15t17 -4h50l-11 -34h-51q-52 0 -43 43z" />
    <glyph glyph-name="eogonek" unicode="&#x119;" horiz-adv-x="364" 
d="M52 -104l3 12q7 34 45 58q28 15 34 34h-5q-65 0 -86 31.5t-6 103.5l55 258q14 65 44.5 91.5t91.5 26.5h44q69 0 90.5 -26.5t7.5 -91.5l-11 -56q-13 -61 -40 -87t-90 -26h-124l-18 -85q-11 -46 -2 -69.5t45 -23.5h59q34 0 53 21.5t29 68.5l4 18h46l-4 -18
q-16 -74 -44.5 -105t-89.5 -31h-19l-1 -2q-5 -24 -14.5 -35.5t-29.5 -23.5q-16 -9 -22 -15.5t-8 -17.5q-3 -11 1.5 -15t16.5 -4h50l-11 -34h-51q-51 0 -43 43zM280 466h-63q-33 0 -50.5 -18.5t-26.5 -57.5l-25 -121h120q35 0 53 17t26 54l11 51q8 38 -2 56.5t-43 18.5z" />
    <glyph glyph-name="Ecaron" unicode="&#x11a;" horiz-adv-x="387" 
d="M208 660l-72 -337h220l-18 -51h-213l-47 -222h263l-17 -50h-307l150 710h313l-17 -50h-255zM351 749h-31l-60 96h47l36 -64l62 64h48z" />
    <glyph glyph-name="ecaron" unicode="&#x11b;" horiz-adv-x="365" 
d="M130 46h59q34 0 53 21.5t29 68.5l4 18h46l-4 -18q-16 -74 -44.5 -105t-89.5 -31h-54q-65 0 -86 31.5t-6 103.5l55 258q14 65 44.5 91.5t91.5 26.5h44q69 0 90.5 -26.5t7.5 -91.5l-11 -56q-13 -61 -40 -87t-90 -26h-124l-18 -85q-11 -46 -2 -69.5t45 -23.5zM280 466h-63
q-33 0 -50.5 -18.5t-26.5 -57.5l-25 -121h120q35 0 53 17t26 54l11 51q8 38 -2 56.5t-43 18.5zM288 579h-31l-60 96h47l35 -64l63 64h48z" />
    <glyph glyph-name="Gcircumflex" unicode="&#x11c;" horiz-adv-x="456" 
d="M253 291l18 50h177l-44 -206q-13 -67 -43.5 -101t-85.5 -34h-150q-112 0 -85 127l96 448q28 135 121 135h162q57 0 77.5 -31t6.5 -97l-17 -81h-52l14 65q11 49 1 71.5t-44 22.5h-135q-34 0 -55 -24t-32 -77l-88 -415q-11 -49 0.5 -71.5t45.5 -22.5h126q36 0 56.5 21.5
t30.5 66.5l32 153h-133zM367 844h32l63 -95h-50l-35 60h-4l-60 -60h-49z" />
    <glyph glyph-name="gcircumflex" unicode="&#x11d;" horiz-adv-x="376" 
d="M228 506h46q37 0 60 -13l71 63l23 -34l-68 -63q10 -30 -2 -85l-20 -92q-14 -70 -47 -101t-95 -31v-1h-33q-19 0 -27 -6t-12 -25l-1 -5q-7 -27 10 -30h113q56 0 73 -30.5t4 -94.5l-13 -58q-14 -67 -46.5 -96t-95.5 -29h-108q-62 0 -82.5 29t-6.5 96l13 58q21 101 87 120
q-2 15 3 35l1 6q6 28 21 42q-48 23 -28 121l20 92q15 70 47 101t93 31zM113 38q-35 0 -54 -21t-29 -67l-9 -42q-10 -46 0 -67t45 -21h114q35 0 54 21t29 67l9 42q11 45 0.5 66.5t-45.5 21.5h-114zM266 463h-48q-35 0 -54.5 -23t-29.5 -73l-17 -78q-21 -95 44 -95h48
q34 0 53 23t30 72l17 78q11 49 1 72.5t-44 23.5zM275 674h32l63 -95h-50l-35 60h-4l-60 -60h-49z" />
    <glyph glyph-name="Gbreve" unicode="&#x11e;" horiz-adv-x="456" 
d="M253 291l18 50h177l-44 -206q-13 -67 -43.5 -101t-85.5 -34h-150q-112 0 -85 127l96 448q28 135 121 135h162q57 0 77.5 -31t6.5 -97l-17 -81h-52l14 65q11 49 1 71.5t-44 22.5h-135q-34 0 -55 -24t-32 -77l-88 -415q-11 -49 0.5 -71.5t45.5 -22.5h126q36 0 56.5 21.5
t30.5 66.5l32 153h-133zM377 747h-25q-37 0 -48.5 16t-2.5 58l2 11h32l-3 -14q-8 -38 27 -38h25q36 0 43 38l3 14h31l-2 -11q-9 -42 -26.5 -58t-55.5 -16z" />
    <glyph glyph-name="gbreve" unicode="&#x11f;" horiz-adv-x="376" 
d="M228 506h46q37 0 60 -13l71 63l23 -34l-68 -63q10 -30 -2 -85l-20 -92q-14 -70 -47 -101t-95 -31v-1h-33q-19 0 -27 -6t-12 -25l-1 -5q-7 -27 10 -30h113q56 0 73 -30.5t4 -94.5l-13 -58q-14 -67 -46.5 -96t-95.5 -29h-108q-62 0 -82.5 29t-6.5 96l13 58q21 101 87 120
q-2 15 3 35l1 6q6 28 21 42q-48 23 -28 121l20 92q15 70 47 101t93 31zM113 38q-35 0 -54 -21t-29 -67l-9 -42q-10 -46 0 -67t45 -21h114q35 0 54 21t29 67l9 42q11 45 0.5 66.5t-45.5 21.5h-114zM266 463h-48q-35 0 -54.5 -23t-29.5 -73l-17 -78q-21 -95 44 -95h48
q34 0 53 23t30 72l17 78q11 49 1 72.5t-44 23.5zM283 577h-25q-37 0 -48.5 16t-2.5 58l2 11h32l-3 -14q-8 -38 27 -38h25q36 0 43 38l3 14h31l-2 -11q-9 -42 -26.5 -58t-55.5 -16z" />
    <glyph glyph-name="Gdotaccent" unicode="&#x120;" horiz-adv-x="456" 
d="M253 291l18 50h177l-44 -206q-13 -67 -43.5 -101t-85.5 -34h-150q-112 0 -85 127l96 448q28 135 121 135h162q57 0 77.5 -31t6.5 -97l-17 -81h-52l14 65q11 49 1 71.5t-44 22.5h-135q-34 0 -55 -24t-32 -77l-88 -415q-11 -49 0.5 -71.5t45.5 -22.5h126q36 0 56.5 21.5
t30.5 66.5l32 153h-133zM349 813h57l-13 -63h-57z" />
    <glyph glyph-name="gdotaccent" unicode="&#x121;" horiz-adv-x="376" 
d="M228 506h46q37 0 60 -13l71 63l23 -34l-68 -63q10 -30 -2 -85l-20 -92q-14 -70 -47 -101t-95 -31v-1h-33q-19 0 -27 -6t-12 -25l-1 -5q-7 -27 10 -30h113q56 0 73 -30.5t4 -94.5l-13 -58q-14 -67 -46.5 -96t-95.5 -29h-108q-62 0 -82.5 29t-6.5 96l13 58q21 101 87 120
q-2 15 3 35l1 6q6 28 21 42q-48 23 -28 121l20 92q15 70 47 101t93 31zM113 38q-35 0 -54 -21t-29 -67l-9 -42q-10 -46 0 -67t45 -21h114q35 0 54 21t29 67l9 42q11 45 0.5 66.5t-45.5 21.5h-114zM266 463h-48q-35 0 -54.5 -23t-29.5 -73l-17 -78q-21 -95 44 -95h48
q34 0 53 23t30 72l17 78q11 49 1 72.5t-44 23.5zM255 643h57l-13 -63h-57z" />
    <glyph glyph-name="Gcommaaccent" unicode="&#x122;" horiz-adv-x="456" 
d="M253 291l18 50h177l-44 -206q-13 -67 -43.5 -101t-85.5 -34h-150q-112 0 -85 127l96 448q28 135 121 135h162q57 0 77.5 -31t6.5 -97l-17 -81h-52l14 65q11 49 1 71.5t-44 22.5h-135q-34 0 -55 -24t-32 -77l-88 -415q-11 -49 0.5 -71.5t45.5 -22.5h126q36 0 56.5 21.5
t30.5 66.5l32 153h-133z" />
    <glyph glyph-name="gcommaaccent" unicode="&#x123;" horiz-adv-x="376" 
d="M228 506h46q37 0 60 -13l71 63l23 -34l-68 -63q10 -30 -2 -85l-20 -92q-14 -70 -47 -101t-95 -31v-1h-33q-19 0 -27 -6t-12 -25l-1 -5q-7 -27 10 -30h113q56 0 73 -30.5t4 -94.5l-13 -58q-14 -67 -46.5 -96t-95.5 -29h-108q-62 0 -82.5 29t-6.5 96l13 58q21 101 87 120
q-2 15 3 35l1 6q6 28 21 42q-48 23 -28 121l20 92q15 70 47 101t93 31zM113 38q-35 0 -54 -21t-29 -67l-9 -42q-10 -46 0 -67t45 -21h114q35 0 54 21t29 67l9 42q11 45 0.5 66.5t-45.5 21.5h-114zM266 463h-48q-35 0 -54.5 -23t-29.5 -73l-17 -78q-21 -95 44 -95h48
q34 0 53 23t30 72l17 78q11 49 1 72.5t-44 23.5zM295 569h-62l56 189h28z" />
    <glyph glyph-name="Hcircumflex" unicode="&#x124;" horiz-adv-x="464" 
d="M68 0h-51l150 710h51l-82 -390h256l82 390h52l-150 -710h-52l57 270h-256zM360 845h32l63 -95h-50l-34 60h-4l-61 -60h-49z" />
    <glyph glyph-name="hcircumflex" unicode="&#x125;" horiz-adv-x="375" 
d="M145 398l-84 -398h-49l155 730l42 10h9l-59 -276q35 47 90 47h45q56 0 75 -31t6 -94l-83 -386h-48l79 376q10 49 0 69.5t-44 20.5h-53q-28 0 -50 -21t-31 -47zM315 708h32l63 -95h-50l-34 60h-4l-61 -60h-49z" />
    <glyph glyph-name="Hbar" unicode="&#x126;" horiz-adv-x="470" 
d="M71 0h-51l121 572h-50l17 45h43l19 93h51l-19 -93h256l19 93h52l-19 -93h52l-18 -45h-44l-121 -572h-52l57 270h-256zM192 572l-53 -252h256l53 252h-256z" />
    <glyph glyph-name="hbar" unicode="&#x127;" horiz-adv-x="375" 
d="M146 396l-84 -396h-49l155 730l42 10h9l-59 -276q35 47 90 47h45q56 0 75 -31t6 -94l-83 -386h-48l79 376q10 49 0 69.5t-44 20.5h-53q-29 0 -51.5 -22t-29.5 -48zM183 627l-8 -16h12l8 16h-12z" />
    <glyph glyph-name="Itilde" unicode="&#x128;" 
d="M68 0h-51l150 710h51zM265 827q25 0 32.5 -10t2.5 -36l-7 -29h-35l5 22q3 17 -12 17t-27 -11l-21 -22q-15 -14 -48 -14q-27 0 -33.5 9.5t-1.5 36.5l7 29h35l-5 -22q-2 -9 0 -13t12 -4q15 0 31 16l15 16q15 15 50 15z" />
    <glyph glyph-name="itilde" unicode="&#x129;" 
d="M121 457h-45l10 48h93l-107 -505h-48zM234 657q25 0 32.5 -10t1.5 -36l-6 -29h-35l5 22q3 17 -13 17q-14 0 -26 -11l-22 -22q-14 -14 -47 -14q-27 0 -33.5 9.5t-1.5 36.5l6 29h35l-4 -22q-5 -17 12 -17q15 0 31 16l15 16q15 15 50 15z" />
    <glyph glyph-name="Imacron" unicode="&#x12a;" 
d="M68 0h-51l150 710h51zM308 799l-16 -45h-173l16 45h173z" />
    <glyph glyph-name="imacron" unicode="&#x12b;" 
d="M121 457h-45l10 48h93l-107 -505h-48zM277 629l-16 -45h-173l16 45h173z" />
    <glyph glyph-name="Ibreve" unicode="&#x12c;" 
d="M68 0h-51l150 710h51zM214 747h-25q-37 0 -48.5 16t-2.5 58l2 11h32l-3 -14q-8 -38 27 -38h25q36 0 43 38l3 14h31l-2 -11q-9 -42 -26.5 -58t-55.5 -16z" />
    <glyph glyph-name="ibreve" unicode="&#x12d;" 
d="M121 457h-45l10 48h93l-107 -505h-48zM183 577h-25q-37 0 -48.5 16t-2.5 58l2 11h32l-3 -14q-8 -38 27 -38h25q36 0 43 38l3 14h31l-2 -11q-9 -42 -26.5 -58t-55.5 -16z" />
    <glyph glyph-name="Iogonek" unicode="&#x12e;" 
d="M-53 -106l3 12q7 34 44 58q18 10 24 16.5t10 19.5h-11l150 710h51l-150 -710h-10l-1 -4q-6 -24 -15.5 -35.5t-29.5 -23.5q-26 -15 -30 -33q-2 -11 2.5 -15t16.5 -4h50l-11 -34h-51q-51 0 -42 43z" />
    <glyph glyph-name="iogonek" unicode="&#x12f;" 
d="M-48 -104l3 12q7 34 44 58q28 15 34 34h-9l97 457h-45l10 48h93l-107 -505h-9l-1 -2q-5 -24 -14.5 -35.5t-29.5 -23.5q-16 -9 -22 -15.5t-8 -17.5q-3 -11 1.5 -15t16.5 -4h50l-11 -34h-51q-50 0 -42 43zM160 672l15 71h55l-15 -71h-55z" />
    <glyph glyph-name="Idotaccent" unicode="&#x130;" 
d="M68 0h-51l150 710h51zM182 787h57l-14 -63h-57z" />
    <glyph glyph-name="dotlessi" unicode="&#x131;" 
d="M121 457h-45l10 48h93l-107 -505h-48z" />
    <glyph glyph-name="IJ" unicode="&#x132;" horiz-adv-x="438" 
d="M68 0h-51l150 710h51zM166 50h77q67 0 87 94l120 566h52l-122 -576q-14 -68 -46.5 -101t-87.5 -33h-97z" />
    <glyph glyph-name="Jcircumflex" unicode="&#x134;" horiz-adv-x="265" 
d="M-7 50h77q67 0 87 94l120 566h52l-122 -576q-14 -68 -46.5 -101t-87.5 -33h-97zM316 844h32l63 -95h-50l-35 60h-4l-60 -60h-49z" />
    <glyph glyph-name="jcircumflex" unicode="&#x135;" 
d="M121 457h-45l10 48h93l-122 -572q-23 -111 -111 -111h-39l18 48h20q51 0 67 76zM175 675h32l63 -95h-50l-34 60h-4l-61 -60h-49z" />
    <glyph glyph-name="Kcommaaccent" unicode="&#x136;" horiz-adv-x="392" 
d="M68 0h-51l150 710h51l-72 -339l302 339h57l-314 -355l168 -355h-58l-161 339zM130 -88h39l-11 -53l-44 -84h-10z" />
    <glyph glyph-name="kcommaaccent" unicode="&#x137;" horiz-adv-x="323" 
d="M382 505l-224 -256l117 -249h-54l-111 234l-49 -234h-49l155 730l42 10h9l-100 -470l209 235h55zM110 -67h41l-11 -51l-49 -94h-9z" />
    <glyph glyph-name="Lacute" unicode="&#x139;" horiz-adv-x="362" 
d="M218 710l-140 -660h250l-17 -50h-294l150 710h51zM212 749h-42l89 120h58z" />
    <glyph glyph-name="lacute" unicode="&#x13a;" horiz-adv-x="163" 
d="M55 205l112 525l42 10h9l-77 -359h1l-56 -267q-8 -36 -2 -52.5t28 -16.5h18l-7 -47h-32q-79 0 -57 103l22 104h-1zM225 819h-42l89 120h58z" />
    <glyph glyph-name="Lcommaaccent" unicode="&#x13b;" horiz-adv-x="362" 
d="M218 710l-140 -660h250l-17 -50h-294l150 710h51zM125 -88h39l-11 -53l-44 -84h-10z" />
    <glyph glyph-name="lcommaaccent" unicode="&#x13c;" horiz-adv-x="163" 
d="M55 205l112 525l42 10h9l-77 -359h1l-56 -267q-8 -36 -2 -52.5t28 -16.5h18l-7 -47h-32q-79 0 -57 103l22 104h-1zM42 -67h41l-11 -51l-49 -94h-9z" />
    <glyph glyph-name="Lcaron" unicode="&#x13d;" horiz-adv-x="365" 
d="M218 710l-140 -660h250l-17 -50h-294l150 710h51zM392 710h61l-59 -189h-27z" />
    <glyph glyph-name="lcaron" unicode="&#x13e;" horiz-adv-x="164" 
d="M55 205l112 525l42 10h9l-77 -359h1l-56 -267q-8 -36 -2 -52.5t28 -16.5h18l-7 -47h-32q-79 0 -57 103l22 104h-1zM271 762h61l-59 -189h-27z" />
    <glyph glyph-name="Ldot" unicode="&#x13f;" horiz-adv-x="369" 
d="M218 710l-140 -660h250l-17 -50h-294l150 710h51zM312 248l15 71h55l-15 -71h-55z" />
    <glyph glyph-name="ldot" unicode="&#x140;" horiz-adv-x="230" 
d="M55 205l112 525l42 10h9l-77 -359h1l-56 -267q-8 -36 -2 -52.5t28 -16.5h18l-7 -47h-32q-79 0 -57 103l22 104h-1zM194 333l15 71h55l-15 -71h-55z" />
    <glyph glyph-name="Lslash" unicode="&#x141;" horiz-adv-x="380" 
d="M117 290l5 -18l27 27l-53 -249h250l-17 -50h-294l150 710h51l-81 -383zM192 364l-37 -37l-6 -28l47 48z" />
    <glyph glyph-name="lslash" unicode="&#x142;" horiz-adv-x="214" 
d="M144 45h17l-6 -47h-32q-79 0 -57 103l53 248l-80 -45l10 48l80 45l71 333l41 10h10l-66 -311l88 51l-11 -49l-88 -50l-56 -267q-8 -36 -2 -52.5t28 -16.5z" />
    <glyph glyph-name="Nacute" unicode="&#x143;" horiz-adv-x="477" 
d="M68 0h-51l150 710h51l124 -537q8 -31 14 -79l131 616h52l-150 -710h-52l-120 514q-5 21 -18 105zM363 749h-42l89 120h58z" />
    <glyph glyph-name="nacute" unicode="&#x144;" horiz-adv-x="374" 
d="M12 0l105 495l39 10h9l-10 -46q36 52 93 52h45q56 0 75 -31t6 -94l-82 -386h-49l79 376q10 49 0.5 69.5t-43.5 20.5h-53q-28 0 -50 -21t-31 -47l-84 -398h-49zM286 579h-42l89 120h58z" />
    <glyph glyph-name="Ncommaaccent" unicode="&#x145;" horiz-adv-x="477" 
d="M68 0h-51l150 710h51l124 -537q8 -31 14 -79l131 616h52l-150 -710h-52l-120 514q-5 21 -18 105zM160 -62h41l-11 -51l-48 -94h-9z" />
    <glyph glyph-name="ncommaaccent" unicode="&#x146;" horiz-adv-x="374" 
d="M12 0l105 495l39 10h9l-10 -46q36 52 93 52h45q56 0 75 -31t6 -94l-82 -386h-49l79 376q10 49 0.5 69.5t-43.5 20.5h-53q-28 0 -50 -21t-31 -47l-84 -398h-49zM117 -67h41l-11 -51l-49 -94h-9z" />
    <glyph glyph-name="Ncaron" unicode="&#x147;" horiz-adv-x="477" 
d="M68 0h-51l150 710h51l124 -537q8 -31 14 -79l131 616h52l-150 -710h-52l-120 514q-5 21 -18 105zM379 749h-31l-60 96h47l36 -64l62 64h48z" />
    <glyph glyph-name="ncaron" unicode="&#x148;" horiz-adv-x="374" 
d="M12 0l105 495l39 10h9l-10 -46q36 52 93 52h45q56 0 75 -31t6 -94l-82 -386h-49l79 376q10 49 0.5 69.5t-43.5 20.5h-53q-28 0 -50 -21t-31 -47l-84 -398h-49zM297 579h-31l-60 96h47l35 -64l63 64h48z" />
    <glyph glyph-name="napostrophe" unicode="&#x149;" horiz-adv-x="374" 
d="M12 0l105 495l39 10h9l-10 -46q36 52 93 52h45q56 0 75 -31t6 -94l-82 -386h-49l79 376q10 49 0.5 69.5t-43.5 20.5h-53q-28 0 -50 -21t-31 -47l-84 -398h-34l-4 -7h-9l2 7h-4z" />
    <glyph glyph-name="Eng" unicode="&#x14a;" horiz-adv-x="477" 
d="M160 -144h77q67 0 87 94l11 54l-118 510q-5 21 -18 105l-131 -619h-51l150 710h51l124 -537q4 -16 8 -40.5t6 -33.5l88 417h2l41 194h52l-150 -710h-2l-13 -60q-29 -134 -135 -134h-97z" />
    <glyph glyph-name="eng" unicode="&#x14b;" horiz-adv-x="374" 
d="M163 -130q52 0 68 76l91 430q10 49 0.5 69.5t-43.5 20.5h-53q-28 0 -50 -21t-31 -47l-84 -398h-49l105 495l39 10h9l-10 -46q36 52 93 52h45q56 0 75 -31t6 -94l-97 -453q-23 -111 -112 -111h-39l17 48h20z" />
    <glyph glyph-name="Omacron" unicode="&#x14c;" horiz-adv-x="476" 
d="M43 138l92 434q16 71 46.5 104.5t88.5 33.5h153q64 0 84 -33.5t5 -104.5l-92 -434q-16 -71 -46.5 -104.5t-87.5 -33.5h-155q-63 0 -83 33.5t-5 104.5zM412 660h-139q-36 0 -57 -23t-32 -73l-88 -418q-12 -49 -2 -72.5t48 -23.5h140q36 0 56 22.5t31 73.5l88 418
q12 52 2 74t-47 22zM467 799l-16 -45h-173l16 45h173z" />
    <glyph glyph-name="omacron" unicode="&#x14d;" horiz-adv-x="379" 
d="M216 511h78q60 0 80 -33.5t5 -101.5l-52 -248q-27 -128 -128 -128h-80q-110 0 -83 128l52 248q16 70 45 102.5t83 32.5zM285 465h-65q-35 0 -54 -22.5t-29 -70.5l-50 -233q-11 -52 -0.5 -72.5t44.5 -20.5h65q34 0 53.5 21t30.5 72l50 233q10 48 0 70.5t-45 22.5zM383 629
l-16 -45h-173l16 45h173z" />
    <glyph glyph-name="Obreve" unicode="&#x14e;" horiz-adv-x="476" 
d="M43 138l92 434q16 71 46.5 104.5t88.5 33.5h153q64 0 84 -33.5t5 -104.5l-92 -434q-16 -71 -46.5 -104.5t-87.5 -33.5h-155q-63 0 -83 33.5t-5 104.5zM412 660h-139q-36 0 -57 -23t-32 -73l-88 -418q-12 -49 -2 -72.5t48 -23.5h140q36 0 56 22.5t31 73.5l88 418
q12 52 2 74t-47 22zM375 747h-25q-37 0 -48.5 16t-2.5 58l2 11h32l-3 -14q-8 -38 27 -38h25q36 0 43 38l3 14h31l-2 -11q-9 -42 -26.5 -58t-55.5 -16z" />
    <glyph glyph-name="obreve" unicode="&#x14f;" horiz-adv-x="380" 
d="M216 511h78q60 0 80 -33.5t5 -101.5l-52 -248q-27 -128 -128 -128h-80q-110 0 -83 128l52 248q16 70 45 102.5t83 32.5zM285 465h-65q-35 0 -54 -22.5t-29 -70.5l-50 -233q-11 -52 -0.5 -72.5t44.5 -20.5h65q34 0 53.5 21t30.5 72l50 233q10 48 0 70.5t-45 22.5zM290 577
h-25q-37 0 -48.5 16t-2.5 58l2 11h32l-3 -14q-8 -38 27 -38h25q36 0 43 38l3 14h31l-2 -11q-9 -42 -26.5 -58t-55.5 -16z" />
    <glyph glyph-name="Ohungarumlaut" unicode="&#x150;" horiz-adv-x="476" 
d="M43 138l92 434q16 71 46.5 104.5t88.5 33.5h153q64 0 84 -33.5t5 -104.5l-92 -434q-16 -71 -46.5 -104.5t-87.5 -33.5h-155q-63 0 -83 33.5t-5 104.5zM412 660h-139q-36 0 -57 -23t-32 -73l-88 -418q-12 -49 -2 -72.5t48 -23.5h140q36 0 56 22.5t31 73.5l88 418
q12 52 2 74t-47 22zM387 868h47l-99 -122h-35zM456 868h47l-100 -122h-33z" />
    <glyph glyph-name="ohungarumlaut" unicode="&#x151;" horiz-adv-x="380" 
d="M216 511h78q60 0 80 -33.5t5 -101.5l-52 -248q-27 -128 -128 -128h-80q-110 0 -83 128l52 248q16 70 45 102.5t83 32.5zM285 465h-65q-35 0 -54 -22.5t-29 -70.5l-50 -233q-11 -52 -0.5 -72.5t44.5 -20.5h65q34 0 53.5 21t30.5 72l50 233q10 48 0 70.5t-45 22.5zM303 698
h47l-99 -122h-35zM372 698h47l-100 -122h-33z" />
    <glyph glyph-name="OE" unicode="&#x152;" horiz-adv-x="700" 
d="M521 660l-11 -50q-2 -17 -6 -38l-16 -74h-2l-37 -175h220l-18 -51h-213l-12 -58h1l-16 -76q-1 -5 -3.5 -14t-3.5 -13l-13 -61h263l-17 -50h-307l2 10q-23 -10 -55 -10h-146q-63 0 -83 33.5t-5 104.5l92 434q16 71 46.5 104.5t88.5 33.5h145q37 0 63 -13l2 13h313l-17 -50
h-255zM404 660h-131q-36 0 -57 -23t-32 -73l-88 -418q-12 -49 -2 -72.5t48 -23.5h132q36 0 56 22.5t31 73.5l91 428q8 47 -2.5 66.5t-45.5 19.5z" />
    <glyph glyph-name="oe" unicode="&#x153;" horiz-adv-x="608" 
d="M372 46h59q34 0 53 21.5t29 68.5l4 18h46l-4 -18q-16 -74 -44.5 -105t-89.5 -31h-54q-67 0 -87 33q-33 -33 -85 -33h-80q-110 0 -83 128l52 248q16 70 45 102.5t83 32.5h78q58 0 78 -32q32 32 98 32h44q69 0 90.5 -26.5t7.5 -91.5l-11 -56q-13 -61 -40 -87t-90 -26h-124
l-18 -85q-11 -46 -2 -69.5t45 -23.5zM285 465h-65q-35 0 -54 -22.5t-29 -70.5l-50 -233q-11 -52 -0.5 -72.5t44.5 -20.5h65q32 0 51.5 19t30.5 64l53 252q15 84 -46 84zM522 466h-63q-33 0 -50.5 -18.5t-26.5 -57.5l-25 -121h120q35 0 53 17t26 54l11 51q8 38 -2 56.5
t-43 18.5z" />
    <glyph glyph-name="Racute" unicode="&#x154;" horiz-adv-x="429" 
d="M17 0l150 710h212q121 0 93 -135l-34 -153q-28 -135 -134 -135h-17l98 -287h-59l-98 287h-99l-61 -287h-51zM208 660l-69 -323h159q37 0 59.5 24.5t33.5 76.5l25 121q11 53 -0.5 77t-48.5 24h-159zM332 749h-42l89 120h58z" />
    <glyph glyph-name="racute" unicode="&#x155;" horiz-adv-x="241" 
d="M298 468l-102 -39q-45 -18 -59 -67l-76 -362h-49l105 495l39 10h9l-15 -68q19 27 51 39l96 39h7zM220 574h-42l89 120h58z" />
    <glyph glyph-name="Rcommaaccent" unicode="&#x156;" horiz-adv-x="429" 
d="M17 0l150 710h212q121 0 93 -135l-34 -153q-28 -135 -134 -135h-17l98 -287h-59l-98 287h-99l-61 -287h-51zM208 660l-69 -323h159q37 0 59.5 24.5t33.5 76.5l25 121q11 53 -0.5 77t-48.5 24h-159zM168 -67h41l-11 -51l-49 -94h-9z" />
    <glyph glyph-name="rcommaaccent" unicode="&#x157;" horiz-adv-x="241" 
d="M298 468l-102 -39q-45 -18 -59 -67l-76 -362h-49l105 495l39 10h9l-15 -68q19 27 51 39l96 39h7zM73 -67h41l-11 -51l-49 -94h-9z" />
    <glyph glyph-name="Rcaron" unicode="&#x158;" horiz-adv-x="429" 
d="M17 0l150 710h212q121 0 93 -135l-34 -153q-28 -135 -134 -135h-17l98 -287h-59l-98 287h-99l-61 -287h-51zM208 660l-69 -323h159q37 0 59.5 24.5t33.5 76.5l25 121q11 53 -0.5 77t-48.5 24h-159zM343 749h-31l-60 96h47l36 -64l62 64h48z" />
    <glyph glyph-name="rcaron" unicode="&#x159;" horiz-adv-x="241" 
d="M298 468l-102 -39q-45 -18 -59 -67l-76 -362h-49l105 495l39 10h9l-15 -68q19 27 51 39l96 39h7zM232 574h-31l-60 96h47l35 -64l63 64h48z" />
    <glyph glyph-name="Sacute" unicode="&#x15a;" horiz-adv-x="419" 
d="M309 302l-139 84q-42 26 -54 52t-1 75l14 69q14 67 42.5 97.5t79.5 30.5h124q59 0 80.5 -30.5t6.5 -97.5l-17 -81h-51l15 69q11 50 -1 70t-46 20h-99q-36 0 -55 -21t-30 -73l-10 -45q-7 -33 -0.5 -53t30.5 -35l140 -85q41 -26 53.5 -52t1.5 -75l-20 -96
q-26 -125 -119 -125h-144q-59 0 -79.5 31t-6.5 94l19 89h52l-16 -76q-10 -46 1 -67t43 -21h119q65 0 83 88l15 70q8 37 1 57.5t-32 36.5zM342 749h-42l89 120h58z" />
    <glyph glyph-name="sacute" unicode="&#x15b;" horiz-adv-x="339" 
d="M259 466h-54q-30 0 -46 -16.5t-24 -51.5l-4 -19q-8 -35 0.5 -48t37.5 -28l81 -36q38 -16 50 -38.5t1 -74.5l-10 -46q-11 -57 -39 -82.5t-85 -25.5h-67q-60 0 -76.5 27.5t-2.5 91.5l7 33h47l-7 -31q-8 -40 0.5 -58t38.5 -18h70q30 0 46.5 16.5t24.5 51.5l6 32
q7 34 -1 51.5t-30 28.5l-79 36q-48 20 -60 40t-1 75l6 25q12 58 39 84t87 26h51q60 0 75.5 -27.5t1.5 -93.5l-5 -27h-45l5 27q17 76 -39 76zM260 579h-42l89 120h58z" />
    <glyph glyph-name="Scircumflex" unicode="&#x15c;" horiz-adv-x="419" 
d="M309 302l-139 84q-42 26 -54 52t-1 75l14 69q14 67 42.5 97.5t79.5 30.5h124q59 0 80.5 -30.5t6.5 -97.5l-17 -81h-51l15 69q11 50 -1 70t-46 20h-99q-36 0 -55 -21t-30 -73l-10 -45q-7 -33 -0.5 -53t30.5 -35l140 -85q41 -26 53.5 -52t1.5 -75l-20 -96
q-26 -125 -119 -125h-144q-59 0 -79.5 31t-6.5 94l19 89h52l-16 -76q-10 -46 1 -67t43 -21h119q65 0 83 88l15 70q8 37 1 57.5t-32 36.5zM340 844h32l63 -95h-50l-35 60h-4l-60 -60h-49z" />
    <glyph glyph-name="scircumflex" unicode="&#x15d;" horiz-adv-x="339" 
d="M259 466h-54q-30 0 -46 -16.5t-24 -51.5l-4 -19q-8 -35 0.5 -48t37.5 -28l81 -36q38 -16 50 -38.5t1 -74.5l-10 -46q-11 -57 -39 -82.5t-85 -25.5h-67q-60 0 -76.5 27.5t-2.5 91.5l7 33h47l-7 -31q-8 -40 0.5 -58t38.5 -18h70q30 0 46.5 16.5t24.5 51.5l6 32
q7 34 -1 51.5t-30 28.5l-79 36q-48 20 -60 40t-1 75l6 25q12 58 39 84t87 26h51q60 0 75.5 -27.5t1.5 -93.5l-5 -27h-45l5 27q17 76 -39 76zM261 674h32l63 -95h-50l-35 60h-4l-60 -60h-49z" />
    <glyph glyph-name="Scedilla" unicode="&#x15e;" horiz-adv-x="419" 
d="M176 -70l-17 5q-21 4 -14 37l6 28h-41q-59 0 -79.5 31t-6.5 94l19 89h52l-16 -76q-10 -46 1 -67t43 -21h119q65 0 83 88l15 70q8 37 1 57.5t-32 36.5l-139 84q-42 26 -54 52t-1 75l14 69q14 67 42.5 97.5t79.5 30.5h124q59 0 80.5 -30.5t6.5 -97.5l-17 -81h-51l15 69
q11 50 -1 70t-46 20h-99q-36 0 -55 -21t-30 -73l-10 -45q-7 -33 -0.5 -53t30.5 -35l140 -85q41 -26 53.5 -52t1.5 -75l-20 -96q-26 -125 -119 -125h-69l-4 -16q-4 -18 7 -22l20 -6q24 -6 16 -45l-5 -21q-7 -31 -21.5 -43t-43.5 -12h-21q-29 0 -37 11.5t-3 40.5l4 15h33
l-2 -10q-6 -24 13 -24h17q22 0 28 25l2 12q5 20 -12 25z" />
    <glyph glyph-name="scedilla" unicode="&#x15f;" horiz-adv-x="338" 
d="M130 -70l-17 5q-21 4 -14 37l6 28h-5q-60 0 -76.5 27.5t-2.5 91.5l7 33h47l-7 -31q-8 -40 0.5 -58t38.5 -18h70q30 0 46.5 16.5t24.5 51.5l6 32q7 34 -1 51.5t-30 28.5l-79 36q-48 20 -60 40t-1 75l6 25q12 58 39 84t87 26h51q60 0 75.5 -27.5t1.5 -93.5l-5 -27h-45l5 27
q17 76 -39 76h-54q-30 0 -46 -16.5t-24 -51.5l-4 -19q-8 -35 0.5 -48t37.5 -28l81 -36q38 -16 50 -38.5t1 -74.5l-10 -46q-11 -57 -39 -82.5t-85 -25.5h-28l-4 -16q-4 -18 7 -22l20 -6q24 -6 16 -45l-5 -21q-7 -31 -21.5 -43t-43.5 -12h-21q-29 0 -37 11.5t-3 40.5l4 15h33
l-2 -10q-6 -24 13 -24h17q22 0 28 25l2 12q5 20 -12 25z" />
    <glyph glyph-name="Scaron" unicode="&#x160;" horiz-adv-x="420" 
d="M309 302l-139 84q-42 26 -54 52t-1 75l14 69q14 67 42.5 97.5t79.5 30.5h124q59 0 80.5 -30.5t6.5 -97.5l-17 -81h-51l15 69q11 50 -1 70t-46 20h-99q-36 0 -55 -21t-30 -73l-10 -45q-7 -33 -0.5 -53t30.5 -35l140 -85q41 -26 53.5 -52t1.5 -75l-20 -96
q-26 -125 -119 -125h-144q-59 0 -79.5 31t-6.5 94l19 89h52l-16 -76q-10 -46 1 -67t43 -21h119q65 0 83 88l15 70q8 37 1 57.5t-32 36.5zM351 749h-31l-60 96h47l36 -64l62 64h48z" />
    <glyph glyph-name="scaron" unicode="&#x161;" horiz-adv-x="339" 
d="M259 466h-54q-30 0 -46 -16.5t-24 -51.5l-4 -19q-8 -35 0.5 -48t37.5 -28l81 -36q38 -16 50 -38.5t1 -74.5l-10 -46q-11 -57 -39 -82.5t-85 -25.5h-67q-60 0 -76.5 27.5t-2.5 91.5l7 33h47l-7 -31q-8 -40 0.5 -58t38.5 -18h70q30 0 46.5 16.5t24.5 51.5l6 32
q7 34 -1 51.5t-30 28.5l-79 36q-48 20 -60 40t-1 75l6 25q12 58 39 84t87 26h51q60 0 75.5 -27.5t1.5 -93.5l-5 -27h-45l5 27q17 76 -39 76zM272 579h-31l-60 96h47l35 -64l63 64h48z" />
    <glyph glyph-name="Tcommaaccent" unicode="&#x162;" horiz-adv-x="359" 
d="M454 660h-144l-140 -660h-51l140 660h-146l10 50h341zM108 -67h41l-11 -51l-49 -94h-9z" />
    <glyph glyph-name="Tcaron" unicode="&#x164;" horiz-adv-x="359" 
d="M454 660h-144l-140 -660h-51l140 660h-146l10 50h341zM318 749h-31l-60 96h47l36 -64l62 64h48z" />
    <glyph glyph-name="tcaron" unicode="&#x165;" horiz-adv-x="230" 
d="M281 505l-13 -48h-82l-68 -319q-10 -47 -0.5 -68.5t41.5 -21.5h33l-6 -48h-43q-103 0 -76 128l70 329h-62l14 48h58l24 116l49 24h6l-30 -140h85zM292 732h58l-56 -181h-26z" />
    <glyph glyph-name="Tbar" unicode="&#x166;" horiz-adv-x="361" 
d="M240 475l-6 -18h11l7 18h-12zM454 660h-144l-140 -660h-51l140 660h-146l10 50h341z" />
    <glyph glyph-name="Utilde" unicode="&#x168;" horiz-adv-x="458" 
d="M252 50q40 0 64 26t36 82l117 552h52l-120 -567q-30 -143 -141 -143h-124q-121 0 -91 143l120 567h51l-117 -552q-12 -56 0 -82t52 -26h101zM414 827q25 0 32.5 -10t2.5 -36l-7 -29h-35l5 22q3 17 -12 17t-27 -11l-21 -22q-15 -14 -48 -14q-27 0 -33.5 9.5t-1.5 36.5
l7 29h35l-5 -22q-2 -9 0 -13t12 -4q15 0 31 16l15 16q15 15 50 15z" />
    <glyph glyph-name="utilde" unicode="&#x169;" horiz-adv-x="373" 
d="M396 505l-107 -505h-38l7 52q-41 -52 -102 -52h-42q-105 0 -77 128l80 377h49l-79 -370q-10 -48 1.5 -69t45.5 -21h43q31 0 55 22t32 48h3l1 3v12l79 375h49zM333 657q25 0 32.5 -10t1.5 -36l-6 -29h-35l5 22q3 17 -13 17q-14 0 -26 -11l-22 -22q-14 -14 -47 -14
q-27 0 -33.5 9.5t-1.5 36.5l6 29h35l-4 -22q-5 -17 12 -17q15 0 31 16l15 16q15 15 50 15z" />
    <glyph glyph-name="Umacron" unicode="&#x16a;" horiz-adv-x="458" 
d="M252 50q40 0 64 26t36 82l117 552h52l-120 -567q-30 -143 -141 -143h-124q-121 0 -91 143l120 567h51l-117 -552q-12 -56 0 -82t52 -26h101zM457 799l-16 -45h-173l16 45h173z" />
    <glyph glyph-name="umacron" unicode="&#x16b;" horiz-adv-x="373" 
d="M396 505l-107 -505h-38l7 52q-41 -52 -102 -52h-42q-105 0 -77 128l80 377h49l-79 -370q-10 -48 1.5 -69t45.5 -21h43q31 0 55 22t32 48h3l1 3v12l79 375h49zM374 629l-16 -45h-173l16 45h173z" />
    <glyph glyph-name="Ubreve" unicode="&#x16c;" horiz-adv-x="458" 
d="M252 50q40 0 64 26t36 82l117 552h52l-120 -567q-30 -143 -141 -143h-124q-121 0 -91 143l120 567h51l-117 -552q-12 -56 0 -82t52 -26h101zM365 747h-25q-37 0 -48.5 16t-2.5 58l2 11h32l-3 -14q-8 -38 27 -38h25q36 0 43 38l3 14h31l-2 -11q-9 -42 -26.5 -58t-55.5 -16
z" />
    <glyph glyph-name="ubreve" unicode="&#x16d;" horiz-adv-x="373" 
d="M396 505l-107 -505h-38l7 52q-41 -52 -102 -52h-42q-105 0 -77 128l80 377h49l-79 -370q-10 -48 1.5 -69t45.5 -21h43q31 0 55 22t32 48h3l1 3v12l79 375h49zM282 577h-25q-37 0 -48.5 16t-2.5 58l2 11h32l-3 -14q-8 -38 27 -38h25q36 0 43 38l3 14h31l-2 -11
q-9 -42 -26.5 -58t-55.5 -16z" />
    <glyph glyph-name="Uring" unicode="&#x16e;" horiz-adv-x="458" 
d="M252 50q40 0 64 26t36 82l117 552h52l-120 -567q-30 -143 -141 -143h-124q-121 0 -91 143l120 567h51l-117 -552q-12 -56 0 -82t52 -26h101zM369 893h27q35 0 45.5 -15t2.5 -53l-5 -25q-8 -38 -25 -53t-52 -15h-27q-34 0 -44.5 15t-2.5 53l5 25q8 38 24.5 53t51.5 15z
M407 801l5 24q4 17 -3 26t-21 9h-25q-32 0 -39 -35l-5 -24q-7 -35 24 -35h25q31 0 39 35z" />
    <glyph glyph-name="uring" unicode="&#x16f;" horiz-adv-x="373" 
d="M396 505l-107 -505h-38l7 52q-41 -52 -102 -52h-42q-105 0 -77 128l80 377h49l-79 -370q-10 -48 1.5 -69t45.5 -21h43q31 0 55 22t32 48h3l1 3v12l79 375h49zM287 723h27q35 0 45.5 -15t2.5 -53l-6 -25q-8 -38 -24.5 -53t-51.5 -15h-27q-34 0 -45 15t-3 53l6 25
q8 38 24.5 53t51.5 15zM325 631l5 24q4 17 -3 26t-21 9h-25q-32 0 -39 -35l-5 -24q-7 -35 24 -35h25q31 0 39 35z" />
    <glyph glyph-name="Uhungarumlaut" unicode="&#x170;" horiz-adv-x="458" 
d="M252 50q40 0 64 26t36 82l117 552h52l-120 -567q-30 -143 -141 -143h-124q-121 0 -91 143l120 567h51l-117 -552q-12 -56 0 -82t52 -26h101zM378 868h47l-99 -122h-35zM447 868h47l-100 -122h-33z" />
    <glyph glyph-name="uhungarumlaut" unicode="&#x171;" horiz-adv-x="373" 
d="M396 505l-107 -505h-38l7 52q-41 -52 -102 -52h-42q-105 0 -77 128l80 377h49l-79 -370q-10 -48 1.5 -69t45.5 -21h43q31 0 55 22t32 48h3l1 3v12l79 375h49zM295 698h47l-99 -122h-35zM364 698h47l-100 -122h-33z" />
    <glyph glyph-name="Uogonek" unicode="&#x172;" horiz-adv-x="458" 
d="M97 -101l3 12q7 34 45 58q17 10 23 15.5t9 15.5h-41q-121 0 -91 143l120 567h51l-117 -552q-12 -56 0 -82t52 -26h101q40 0 64 26t36 82l117 552h52l-120 -567q-30 -143 -141 -143h-52q-6 -23 -15.5 -34.5t-29.5 -23.5q-26 -15 -30 -33q-2 -11 2.5 -15t16.5 -4h50
l-11 -34h-51q-52 0 -43 43z" />
    <glyph glyph-name="uogonek" unicode="&#x173;" horiz-adv-x="373" 
d="M171 -100l3 12q7 34 45 58q28 16 32 30l7 52q-41 -52 -102 -52h-42q-105 0 -77 128l80 377h49l-79 -370q-10 -48 1.5 -69t45.5 -21h43q31 0 55 22t32 48h3l1 3v12l79 375h49l-107 -505h-7q-6 -23 -16 -34t-29 -23q-26 -15 -30 -33q-2 -11 2.5 -15t16.5 -4h50l-11 -34h-51
q-52 0 -43 43z" />
    <glyph glyph-name="Wcircumflex" unicode="&#x174;" horiz-adv-x="669" 
d="M195 0h-58l-3 710h53l-8 -585l-1 -63q4 15 20 62l225 586h51l-24 -586q-2 -42 -4 -55q5 15 22 54l242 587h53l-303 -710h-57l23 581q0 17 7 52q-9 -35 -15 -52zM462 844h32l63 -95h-50l-35 60h-4l-60 -60h-49z" />
    <glyph glyph-name="wcircumflex" unicode="&#x175;" horiz-adv-x="553" 
d="M164 0h-62l-9 505h50v-451l179 451h52l-15 -451l193 451h51l-223 -505h-62l10 385q-1 6 -1 24q-3 -15 -11 -24zM366 674h32l63 -95h-50l-35 60h-4l-60 -60h-49z" />
    <glyph glyph-name="Ycircumflex" unicode="&#x176;" horiz-adv-x="417" 
d="M198 0h-51l62 294l-83 416h52l59 -316q7 -41 6 -55q7 21 28 54l192 317h54l-257 -415zM335 844h32l63 -95h-50l-35 60h-4l-60 -60h-49z" />
    <glyph glyph-name="ycircumflex" unicode="&#x177;" horiz-adv-x="352" 
d="M-9 -177q54 0 86 71l44 98h-13l-17 513h51l9 -444l201 444h53l-287 -619q-27 -61 -56.5 -86t-82.5 -25h-46l17 48h41zM260 674h32l63 -95h-50l-35 60h-4l-60 -60h-49z" />
    <glyph glyph-name="Ydieresis" unicode="&#x178;" horiz-adv-x="417" 
d="M198 0h-51l62 294l-83 416h52l59 -316q7 -41 6 -55q7 21 28 54l192 317h54l-257 -415zM266 800h43l-13 -59h-43zM379 800h43l-13 -59h-43z" />
    <glyph glyph-name="Zacute" unicode="&#x179;" horiz-adv-x="368" 
d="M450 663l-396 -613h276l-17 -50h-326l2 47l397 613h-259l3 50h323zM308 749h-42l89 120h58z" />
    <glyph glyph-name="zacute" unicode="&#x17a;" horiz-adv-x="314" 
d="M350 464l-296 -421h215l-15 -43h-264l2 41l299 421h-200l4 43h259zM248 579h-42l89 120h58z" />
    <glyph glyph-name="Zdotaccent" unicode="&#x17b;" horiz-adv-x="368" 
d="M450 663l-396 -613h276l-17 -50h-326l2 47l397 613h-259l3 50h323zM289 813h57l-13 -63h-57z" />
    <glyph glyph-name="zdotaccent" unicode="&#x17c;" horiz-adv-x="314" 
d="M350 464l-296 -421h215l-15 -43h-264l2 41l299 421h-200l4 43h259zM230 643h57l-13 -63h-57z" />
    <glyph glyph-name="Zcaron" unicode="&#x17d;" horiz-adv-x="368" 
d="M450 663l-396 -613h276l-17 -50h-326l2 47l397 613h-259l3 50h323zM320 749h-31l-60 96h47l36 -64l62 64h48z" />
    <glyph glyph-name="zcaron" unicode="&#x17e;" horiz-adv-x="314" 
d="M350 464l-296 -421h215l-15 -43h-264l2 41l299 421h-200l4 43h259zM260 579h-31l-60 96h47l35 -64l63 64h48z" />
    <glyph glyph-name="florin" unicode="&#x192;" horiz-adv-x="258" 
d="M319 692q-33 0 -53 -21.5t-30 -68.5l-27 -131h83l-19 -48h-75l-99 -469q-14 -67 -47.5 -99t-92.5 -32h-52l21 47h42q33 0 52 21.5t29 69.5l98 462h-71l19 48h63l29 138q14 67 48.5 99t93.5 32h52l-21 -48h-43z" />
    <glyph glyph-name="AEacute" unicode="&#x1fc;" horiz-adv-x="658" 
d="M758 710l-17 -50h-268l-42 -343h192l-18 -51h-180l-27 -216h211l-17 -50h-252l18 153h-238l-98 -153h-60l464 710h332zM414 607l-261 -404h212zM495 759h-42l89 120h58z" />
    <glyph glyph-name="aeacute" unicode="&#x1fd;" horiz-adv-x="585" 
d="M352 48h59q34 0 53 21.5t29 68.5l3 16h47l-4 -18q-15 -73 -46.5 -104.5t-94.5 -31.5h-54q-86 0 -93 62q-37 -62 -113 -62h-40q-51 0 -70.5 26t-6.5 84l15 73q23 108 123 108h131l23 107q14 66 -34 66h-77q-50 0 -64 -66l-4 -19h-46l6 30q22 102 107 102h99q45 0 60 -28
q32 28 92 28h54q62 0 82 -25.5t7 -89.5l-14 -62q-12 -59 -39.5 -84.5t-90.5 -25.5h-126l-18 -83q-9 -48 0.5 -70.5t44.5 -22.5zM116 48h49q39 0 61 22t33 73l22 103h-125q-60 0 -76 -72l-11 -56q-9 -41 3 -55.5t44 -14.5zM499 463h-54q-38 0 -58 -21.5t-31 -71.5l-21 -101
h124q34 0 51.5 16.5t25.5 54.5l10 49q9 38 -2 56t-45 18zM394 576h-42l89 120h58z" />
    <glyph glyph-name="Oslashacute" unicode="&#x1fe;" horiz-adv-x="469" 
d="M531 753h57l-81 -112q3 -29 -6 -69l-92 -434q-16 -72 -46.5 -105t-87.5 -33h-144q-48 0 -70 19l-45 -62h-56l76 108q-2 32 7 73l92 434q16 71 47 104.5t89 33.5h142q49 0 72 -20zM402 660h-128q-36 0 -57 -23t-32 -73l-88 -415l351 490q-8 21 -46 21zM143 50h129
q36 0 56 22.5t31 73.5l86 409l-349 -486q12 -19 47 -19zM344 749h-42l89 120h58z" />
    <glyph glyph-name="oslashacute" unicode="&#x1ff;" horiz-adv-x="385" 
d="M416 544h49l-80 -101q3 -28 -6 -67l-52 -248q-27 -128 -128 -128h-80q-50 0 -71 24l-48 -60h-48l79 100q-3 29 5 64l52 248q16 70 45 102.5t83 32.5h78q51 0 75 -26zM285 465h-65q-35 0 -54 -22.5t-29 -70.5l-51 -240l246 306q-10 27 -47 27zM280 139l50 237l-245 -306
q10 -24 46 -24h65q34 0 53.5 21t30.5 72zM284 579h-42l89 120h58z" />
    <glyph glyph-name="Scommaaccent" unicode="&#x218;" horiz-adv-x="419" 
d="M309 302l-139 84q-42 26 -54 52t-1 75l14 69q14 67 42.5 97.5t79.5 30.5h124q59 0 80.5 -30.5t6.5 -97.5l-17 -81h-51l15 69q11 50 -1 70t-46 20h-99q-36 0 -55 -21t-30 -73l-10 -45q-7 -33 -0.5 -53t30.5 -35l140 -85q41 -26 53.5 -52t1.5 -75l-20 -96
q-26 -125 -119 -125h-144q-59 0 -79.5 31t-6.5 94l19 89h52l-16 -76q-10 -46 1 -67t43 -21h119q65 0 83 88l15 70q8 37 1 57.5t-32 36.5zM149 -67h41l-11 -51l-49 -94h-9z" />
    <glyph glyph-name="scommaaccent" unicode="&#x219;" horiz-adv-x="339" 
d="M259 466h-54q-30 0 -46 -16.5t-24 -51.5l-4 -19q-8 -35 0.5 -48t37.5 -28l81 -36q38 -16 50 -38.5t1 -74.5l-10 -46q-11 -57 -39 -82.5t-85 -25.5h-67q-60 0 -76.5 27.5t-2.5 91.5l7 33h47l-7 -31q-8 -40 0.5 -58t38.5 -18h70q30 0 46.5 16.5t24.5 51.5l6 32
q7 34 -1 51.5t-30 28.5l-79 36q-48 20 -60 40t-1 75l6 25q12 58 39 84t87 26h51q60 0 75.5 -27.5t1.5 -93.5l-5 -27h-45l5 27q17 76 -39 76zM99 -67h41l-11 -51l-49 -94h-9z" />
    <glyph glyph-name="dotlessj" unicode="&#x237;" 
d="M121 457h-45l10 48h93l-122 -572q-23 -111 -111 -111h-39l18 48h20q51 0 67 76z" />
    <glyph glyph-name="circumflex" unicode="&#x2c6;" horiz-adv-x="478" 
d="M309 720h32l62 -95h-50l-34 60h-4l-61 -60h-49z" />
    <glyph glyph-name="caron" unicode="&#x2c7;" horiz-adv-x="671" 
d="M319 625h-31l-59 96h47l35 -64l63 64h48z" />
    <glyph glyph-name="breve" unicode="&#x2d8;" horiz-adv-x="666" 
d="M399 592h-25q-37 0 -48.5 16t-2.5 58l2 11h32l-3 -14q-8 -38 27 -38h25q36 0 43 38l3 14h31l-2 -11q-9 -42 -26.5 -58t-55.5 -16z" />
    <glyph glyph-name="dotaccent" unicode="&#x2d9;" horiz-adv-x="667" 
d="M348 718h57l-13 -63h-57z" />
    <glyph glyph-name="ring" unicode="&#x2da;" horiz-adv-x="666" 
d="M372 686h27q35 0 45.5 -15t2.5 -53l-5 -25q-8 -38 -25 -53t-52 -15h-27q-34 0 -44.5 15t-2.5 53l5 25q8 38 24.5 53t51.5 15zM410 594l5 24q4 17 -3 26t-21 9h-25q-32 0 -39 -35l-5 -24q-7 -35 24 -35h25q31 0 39 35z" />
    <glyph glyph-name="ogonek" unicode="&#x2db;" horiz-adv-x="666" 
d="M171 -100l3 12q7 34 45 58q19 11 25 18t10 24l3 16h30l-5 -26q-6 -24 -15.5 -35.5t-29.5 -23.5q-26 -15 -30 -33q-2 -11 2.5 -15t16.5 -4h50l-11 -34h-51q-52 0 -43 43z" />
    <glyph glyph-name="tilde" unicode="&#x2dc;" horiz-adv-x="664" 
d="M392 698q25 0 32.5 -10t1.5 -36l-6 -29h-35l5 22q3 17 -13 17q-14 0 -26 -11l-22 -22q-15 -14 -48 -14q-27 0 -33.5 9.5t-0.5 36.5l6 29h35l-5 -22q-3 -17 13 -17q15 0 30 16l16 16q15 15 50 15z" />
    <glyph glyph-name="hungarumlaut" unicode="&#x2dd;" horiz-adv-x="213" 
d="M226 735h47l-99 -122h-35zM295 735h47l-100 -122h-33z" />
    <glyph glyph-name="Wgrave" unicode="&#x1e80;" horiz-adv-x="669" 
d="M195 0h-58l-3 710h53l-8 -585l-1 -63q4 15 20 62l225 586h51l-24 -586q-2 -42 -4 -55q5 15 22 54l242 587h53l-303 -710h-57l23 581q0 17 7 52q-9 -35 -15 -52zM386 855h53l47 -106h-36z" />
    <glyph glyph-name="wgrave" unicode="&#x1e81;" horiz-adv-x="553" 
d="M164 0h-62l-9 505h50v-451l179 451h52l-15 -451l193 451h51l-223 -505h-62l10 385q-1 6 -1 24q-3 -15 -11 -24zM291 685h53l47 -106h-36z" />
    <glyph glyph-name="Wacute" unicode="&#x1e82;" horiz-adv-x="669" 
d="M195 0h-58l-3 710h53l-8 -585l-1 -63q4 15 20 62l225 586h51l-24 -586q-2 -42 -4 -55q5 15 22 54l242 587h53l-303 -710h-57l23 581q0 17 7 52q-9 -35 -15 -52zM463 749h-42l89 120h58z" />
    <glyph glyph-name="wacute" unicode="&#x1e83;" horiz-adv-x="553" 
d="M164 0h-62l-9 505h50v-451l179 451h52l-15 -451l193 451h51l-223 -505h-62l10 385q-1 6 -1 24q-3 -15 -11 -24zM367 579h-42l89 120h58z" />
    <glyph glyph-name="Wdieresis" unicode="&#x1e84;" horiz-adv-x="669" 
d="M195 0h-58l-3 710h53l-8 -585l-1 -63q4 15 20 62l225 586h51l-24 -586q-2 -42 -4 -55q5 15 22 54l242 587h53l-303 -710h-57l23 581q0 17 7 52q-9 -35 -15 -52zM504 800h43l-13 -59h-43zM391 800h43l-13 -59h-43z" />
    <glyph glyph-name="wdieresis" unicode="&#x1e85;" horiz-adv-x="553" 
d="M164 0h-62l-9 505h50v-451l179 451h52l-15 -451l193 451h51l-223 -505h-62l10 385q-1 6 -1 24q-3 -15 -11 -24zM409 630h43l-12 -59h-43zM296 630h43l-12 -59h-43z" />
    <glyph glyph-name="Ygrave" unicode="&#x1ef2;" horiz-adv-x="417" 
d="M198 0h-51l62 294l-83 416h52l59 -316q7 -41 6 -55q7 21 28 54l192 317h54l-257 -415zM259 855h53l47 -106h-36z" />
    <glyph glyph-name="ygrave" unicode="&#x1ef3;" horiz-adv-x="352" 
d="M-9 -177q54 0 86 71l44 98h-13l-17 513h51l9 -444l201 444h53l-287 -619q-27 -61 -56.5 -86t-82.5 -25h-46l17 48h41zM184 685h53l47 -106h-36z" />
    <glyph glyph-name="endash" unicode="&#x2013;" horiz-adv-x="371" 
d="M368 319l-17 -48h-295l18 48h294z" />
    <glyph glyph-name="emdash" unicode="&#x2014;" horiz-adv-x="258" 
d="M343 319l-17 -48h-353l17 48h353z" />
    <glyph glyph-name="quoteleft" unicode="&#x2018;" horiz-adv-x="134" 
d="M175 531h-62l56 189h28z" />
    <glyph glyph-name="quoteright" unicode="&#x2019;" horiz-adv-x="131" 
d="M153 720h61l-60 -189h-27z" />
    <glyph glyph-name="quotesinglbase" unicode="&#x201a;" horiz-adv-x="72" 
d="M-4 119h61l-59 -189h-27z" />
    <glyph glyph-name="quotedblleft" unicode="&#x201c;" horiz-adv-x="235" 
d="M276 531h-62l56 189h28zM175 531h-62l56 189h28z" />
    <glyph glyph-name="quotedblright" unicode="&#x201d;" horiz-adv-x="230" 
d="M252 720h61l-60 -189h-27zM153 720h61l-60 -189h-27z" />
    <glyph glyph-name="quotedblbase" unicode="&#x201e;" horiz-adv-x="185" 
d="M108 115h61l-59 -189h-27zM-7 115h61l-59 -189h-27z" />
    <glyph glyph-name="dagger" unicode="&#x2020;" horiz-adv-x="293" 
d="M40 271l17 48h92l96 448l43 10h8l-98 -458h108l-17 -48h-101l-111 -521h-49l111 521h-99z" />
    <glyph glyph-name="daggerdbl" unicode="&#x2021;" horiz-adv-x="296" 
d="M59 355l17 48h93l78 364l42 10h9l-80 -374h107l-17 -48h-100l-35 -165h107l-17 -48h-100l-84 -392h-49l84 392h-100l17 48h93l35 165h-100z" />
    <glyph glyph-name="bullet" unicode="&#x2022;" horiz-adv-x="255" 
d="M70 196l31 146h114l-31 -146h-114z" />
    <glyph glyph-name="ellipsis" unicode="&#x2026;" horiz-adv-x="591" 
d="M299 -5l16 71h64l-16 -71h-64zM84 -5l16 71h55l-16 -71h-55z" />
    <glyph glyph-name="perthousand" unicode="&#x2030;" horiz-adv-x="811" 
d="M594 257q18 83 90 83h66q72 0 54 -83l-37 -173q-18 -84 -89 -84h-66q-73 0 -55 84zM343 257q18 83 90 83h65q72 0 54 -83l-37 -173q-18 -84 -89 -84h-65q-73 0 -55 84zM431 303q-23 0 -35.5 -14t-19.5 -46l-32 -151q-12 -55 30 -55h54q23 0 35 14t19 46l32 151
q12 55 -29 55h-54zM683 303q-24 0 -36.5 -14t-19.5 -46l-32 -151q-12 -55 31 -55h53q23 0 35.5 14t19.5 46l32 151q12 55 -30 55h-53zM125 627q17 83 88 83h67q72 0 55 -83l-37 -173q-18 -84 -90 -84h-67q-71 0 -53 84zM266 673h-53q-42 0 -54 -55l-33 -156q-12 -55 30 -55
h53q42 0 54 55l33 156q12 55 -30 55zM99 0l403 710h40l-404 -710h-39z" />
    <glyph glyph-name="guilsinglleft" unicode="&#x2039;" horiz-adv-x="222" 
d="M168 69h-58l-66 183l144 183h58l-144 -183z" />
    <glyph glyph-name="guilsinglright" unicode="&#x203a;" horiz-adv-x="222" 
d="M71 69h-58l144 183l-66 183h58l66 -183z" />
    <glyph glyph-name="fraction" unicode="&#x2044;" horiz-adv-x="284" 
d="M-38 0l403 710h40l-404 -710h-39z" />
    <glyph glyph-name="foursuperior" unicode="&#x2074;" horiz-adv-x="205" 
d="M96 486l13 64q5 24 23 43l105 117h36l-118 -133q-13 -15 -17 -35l-6 -25h62l11 50l22 5h9l-12 -55h30l-10 -31h-26l-12 -57h-30l12 57h-92z" />
    <glyph glyph-name="Euro" unicode="&#x20ac;" horiz-adv-x="483" 
d="M317 299l-17 -48h-133l-22 -105q-11 -48 -0.5 -72t46.5 -24h110q35 0 55.5 23t31.5 73l13 65h51l-16 -76q-15 -72 -48.5 -103.5t-97.5 -31.5h-118q-59 0 -77.5 33t-3.5 102l25 116h-76l17 48h69l19 91h-76l18 48h69l29 137q15 70 46.5 102.5t90.5 32.5h118
q64 0 84.5 -31.5t5.5 -103.5l-16 -74h-51l13 63q11 48 1 72t-46 24h-110q-36 0 -56.5 -23t-31.5 -73l-26 -126h167l-18 -48h-160l-19 -91h140z" />
    <glyph glyph-name="trademark" unicode="&#x2122;" horiz-adv-x="458" 
d="M471 447h-39l38 180l-54 -87h-31l-16 87l-38 -180h-39l55 263h39l26 -113l75 113h39zM311 672h-66l-47 -225h-38l47 225h-65l8 38h169z" />
    <glyph glyph-name="minus" unicode="&#x2212;" horiz-adv-x="389" 
d="M60 271l18 50h305l-18 -50h-305z" />
    <glyph glyph-name="commaaccent" unicode="&#xf6c3;" horiz-adv-x="400" 
d="M130 -67h41l-11 -51l-49 -94h-9z" />
    <glyph glyph-name="s_t" unicode="&#xfb06;" horiz-adv-x="603" 
d="M259 466h-54q-30 0 -46 -16.5t-24 -51.5l-4 -19q-8 -35 0.5 -48t37.5 -28l81 -36q38 -16 50 -38.5t1 -74.5l-10 -46q-11 -57 -39 -82.5t-85 -25.5h-67q-60 0 -76.5 27.5t-2.5 91.5l7 33h47l-7 -31q-8 -40 0.5 -58t38.5 -18h70q30 0 46.5 16.5t24.5 51.5l6 32
q7 34 -1 51.5t-30 28.5l-79 36q-48 20 -60 40t-1 75l6 25q12 58 39 84t87 26h51q60 0 75.5 -27.5t1.5 -93.5l-5 -27h-45l5 27q17 76 -39 76zM655 505l-13 -48h-82l-68 -319q-10 -47 -0.5 -68.5t41.5 -21.5h33l-6 -48h-43q-103 0 -76 128l70 329h-62l14 48h58l24 116l49 24h6
l-30 -140h85z" />
    <glyph glyph-name="g.001" horiz-adv-x="380" 
d="M65 273l21 100q15 69 47.5 100.5t93.5 31.5h38q48 0 68 -23l82 74l26 -39l-81 -75q5 -24 -7 -79l-20 -92q-16 -76 -42.5 -104.5t-86.5 -29.5h-45q-29 0 -33 -21l-3 -14q-3 -14 3 -18.5t29 -4.5h75q66 0 87 -26t4 -104l-10 -47q-15 -70 -45 -103.5t-96 -33.5h-101
q-49 0 -71 17t-21 47.5t9 72.5l10 47q14 69 32 93.5t53 30.5q-14 5 -9 27l3 14q5 23 22 30q-33 9 -39.5 42.5t7.5 86.5zM90 -190h78q44 0 64 22t30 71l8 38q12 60 -1.5 76.5t-56.5 16.5h-73q-53 0 -68 -16.5t-28 -77.5l-8 -36q-12 -47 -0.5 -70.5t55.5 -23.5zM256 460h-39
q-34 0 -53.5 -23t-30.5 -73l-18 -85q-11 -53 0 -74t50 -21h29q49 0 63.5 17t28.5 80l18 82q12 48 1.5 72.5t-49.5 24.5z" />
    <glyph glyph-name="i.001" horiz-adv-x="263" 
d="M100 426h-36l10 48h38q60 0 79 -31.5t4 -100.5l-44 -207q-11 -46 -1 -69.5t44 -23.5h35l-10 -48h-36q-60 0 -78.5 31.5t-4.5 100.5l44 207q11 46 1 69.5t-45 23.5zM194 583l16 71h55l-16 -71h-55z" />
    <glyph glyph-name="G.001" horiz-adv-x="452" 
d="M236 298l11 51h201l-46 -216q-15 -69 -47 -102t-91 -33h-142q-59 0 -77 32.5t-3 102.5l94 442q15 70 46.5 102.5t90.5 32.5h142q59 0 77.5 -33t3.5 -102l-19 -87h-52l16 76q14 63 -2 79.5t-73 16.5h-94q-43 0 -61.5 -31t-36.5 -112l-79 -373q-11 -47 0 -71t47 -24h124
q36 0 55.5 22.5t30.5 72.5l33 154h-149z" />
    <glyph glyph-name="P.slt" horiz-adv-x="408" 
d="M67 0h-51l122 578q15 71 50 101.5t103 30.5h93q58 0 75.5 -32t2.5 -100l-32 -152q-17 -80 -47.5 -114.5t-95.5 -34.5h-95q-39 0 -60 -33t-34 -94zM277 660q-40 0 -60 -24t-32 -77l-60 -284q29 52 88 52h82q34 0 53.5 22.5t30.5 70.5l30 143q13 47 1.5 72t-52.5 25h-81z
" />
    <glyph glyph-name="N.001" horiz-adv-x="444" 
d="M275 660q-35 0 -57 -25.5t-34 -80.5l-117 -554h-51l120 569q30 141 138 141h124q108 0 78 -141l-120 -569h-52l117 554q12 54 2 80t-46 26h-102z" />
    <glyph glyph-name="S.bd" horiz-adv-x="441" 
d="M321 341h-138q-58 0 -76 32.5t-3 100.5l22 104q15 68 46 100t89 32h147q57 0 75.5 -32t3.5 -100l-16 -77h-53l14 66q11 47 1 70t-44 23h-130q-34 0 -53.5 -22.5t-29.5 -70.5l-18 -83q-10 -47 0 -70t44 -23h139q57 0 75 -32t4 -100l-28 -129q-15 -68 -46.5 -100t-88.5 -32
h-147q-58 0 -76 32t-3 100l17 81h52l-15 -70q-10 -47 0 -70t44 -23h130q34 0 53 22t29 71l23 107q11 47 1.5 70t-44.5 23z" />
    <glyph glyph-name="N.bd" horiz-adv-x="474" 
d="M18 0l148 699h51l-18 -83q-1 -5 -1 -9v-7t1.5 -5.5t3 -4t4 -3.5t4.5 -3t5.5 -3t6.5 -4l205 -134l54 256h52l-148 -699h-52l77 364q1 7 1 12t-0.5 8t-3.5 6t-5 4t-7.5 4t-8.5 5l-204 134l-114 -537h-51z" />
    <glyph glyph-name="T.002" horiz-adv-x="437" 
d="M529 660h-184l-140 -660h-52l140 660h-182l17 50h418z" />
    <glyph glyph-name="I.bd" horiz-adv-x="262" 
d="M131 50h88l-10 -50h-227l10 50h87l130 610h-88l10 50h228l-10 -50h-88z" />
    <glyph glyph-name="Z.bd" horiz-adv-x="415" 
d="M385 445l-267 -218q-41 -33 -48 -65l-6 -26q-18 -88 59 -88h234l-11 -50h-246q-116 0 -89 125l9 44q5 24 23 48.5t30 35t37 29.5l266 215q39 31 45 62l3 15q19 88 -56 88h-218l10 50h228q116 0 90 -125l-7 -34q-2 -10 -5.5 -19t-11 -19t-11 -15t-14.5 -15.5t-13.5 -12.5
t-16.5 -14z" />
    <glyph glyph-name="V.bd" horiz-adv-x="475" 
d="M217 75l318 615l44 -19l-352 -672h-53l-66 672l52 19z" />
    <glyph glyph-name="X.bd" horiz-adv-x="383" 
d="M236 378l200 323l42 -19l-205 -329l68 -336l-52 -19l-65 323l-202 -323l-44 20l211 335l-67 329l52 19z" />
    <glyph glyph-name="a.001" horiz-adv-x="367" 
d="M241 0l7 54q-18 -32 -42 -43t-60 -11h-41q-55 0 -76 26t-8 84l15 73q12 55 38 81.5t69 26.5h153l23 107q14 66 -34 66h-81q-51 0 -65 -66l-4 -19h-47l6 30q22 102 102 102h104q93 0 70 -103l-86 -408h-43zM119 48h52q39 0 61 22t33 73l22 103h-139q-52 0 -68 -72l-11 -56
q-9 -41 3.5 -55.5t46.5 -14.5z" />
    <glyph glyph-name="G.002" horiz-adv-x="427" 
d="M260 291l11 50h154l-44 -208q-15 -68 -46 -101.5t-88 -33.5h-130q-104 0 -77 127l96 450q28 135 127 135h233l-18 -50h-209q-34 0 -54.5 -24t-31.5 -77l-88 -417q-11 -49 -0.5 -71t44.5 -22h104q38 0 58 22.5t31 74.5l30 145h-102z" />
    <glyph glyph-name="o.001" horiz-adv-x="666" 
 />
    <glyph glyph-name="i.002" horiz-adv-x="164" 
d="M127 454h-47l9 44l56 7h42l-107 -505h-49zM169 672l15 71h55l-15 -71h-55z" />
    <glyph glyph-name="u.bd" horiz-adv-x="376" 
d="M292 0h-46l8 42q-38 -42 -100 -42h-42q-53 0 -71 31t-4 94l79 370l39 10h12l-79 -370q-10 -48 1.5 -69t45.5 -21h46q31 0 54 17t29 38h3l7 36l-1 6l75 353l40 10h11z" />
    <glyph glyph-name="w.bd" horiz-adv-x="541" 
d="M175 0h-61l-26 505h52l15 -451l126 281h51l5 -281l208 451h51l-240 -505h-61l-11 235z" />
    <glyph glyph-name="H.slt" horiz-adv-x="473" 
d="M69 0h-51l148 700l42 10h11l-84 -395h264l82 385l42 10h12l-150 -710h-52l56 265h-264z" />
    <glyph glyph-name="I.slt" horiz-adv-x="158" 
d="M69 0h-51l148 700l42 10h11z" />
    <glyph glyph-name="J.slt" horiz-adv-x="261" 
d="M225 240h-1l-24 -112q-27 -128 -132 -128h-97l17 50h78q34 0 54.5 22.5t31.5 71.5l118 556l43 10h11z" />
    <glyph glyph-name="K.slt" horiz-adv-x="393" 
d="M69 0h-51l148 700l42 10h11l-70 -332l295 332h65l-316 -355l166 -355h-65l-155 331z" />
    <glyph glyph-name="L.slt" horiz-adv-x="341" 
d="M121 240h-1l-41 -190h229l-17 -50h-273l121 570h1l27 130l42 10h11z" />
    <glyph glyph-name="N.slt" horiz-adv-x="470" 
d="M382 0h-52l-134 598l-127 -598h-51l148 700l42 10h11l134 -600l125 590l42 10h12z" />
    <glyph glyph-name="M.slt" horiz-adv-x="532" 
d="M444 0h-51l126 595l-212 -348h-47l-64 351l-127 -598h-51l148 700l42 10h11l80 -390l238 379l14 4l33 7h10z" />
    <glyph glyph-name="U.slt" horiz-adv-x="451" 
d="M99 158q-12 -56 -0.5 -82t48.5 -26h104q37 0 59.5 26t34.5 82l115 542l42 10h11l-120 -567q-30 -143 -141 -143h-126q-111 0 -81 143l118 557l43 10h10z" />
    <glyph glyph-name="T.bd" horiz-adv-x="445" 
d="M539 660h-187l-140 -660h-51l140 660h-188l10 50h426z" />
    <glyph glyph-name="ampersand.001" horiz-adv-x="500" 
d="M170 506l10 45h1l4 21q13 61 38 94.5t68 40.5v3h97q64 0 83.5 -33.5t4.5 -104.5l-22 -103q-15 -71 -45.5 -104.5t-88.5 -33.5h-41l115 -190q8 9 26 27l37 39l26 -34l-35 -36l-32 -32l40 -65l-45 -40l-38 63q-66 -63 -112 -63h-138q-64 0 -84 33.5t-5 104.5l22 105h1v1
q13 61 37 94t66 41q-9 33 3 90l8 37h-1zM133 50h136q32 0 83 48l-139 233h-18q-36 0 -57 -23t-31 -72l-19 -90q-12 -49 -2.5 -72.5t47.5 -23.5zM402 468l18 84h1l2 12q12 52 1.5 74t-47.5 22h-60q-62 -4 -82 -96l-18 -87q-12 -48 -2.5 -71t46.5 -24h58q33 0 53 20.5t31 65.5
h-1z" />
    <glyph glyph-name="A.B" horiz-adv-x="438" 
d="M187 710h176l26 -710h-54l-3 111l-214 71l-81 -182h-54l301 660h-107zM322 639l-143 -320l150 -52zM158 271l-19 -43l192 -63l-1 48z" />
    <glyph glyph-name="B.s" horiz-adv-x="404" 
d="M18 0l150 710h120q114 0 87 -128l-22 -103q-16 -75 -60 -91q72 0 98.5 -27t10.5 -104l-26 -122q-28 -135 -150 -135h-208zM142 345l-63 -295h146q82 0 103 97l21 99q11 52 -3 75.5t-54 23.5h-150zM209 661l-57 -266h75q60 0 76 76l21 99q10 48 -3.5 69.5t-51.5 21.5h-60z
" />
    <glyph glyph-name="C.s" horiz-adv-x="414" 
d="M91 406l22 105h1l13 61q16 71 46.5 104.5t88.5 33.5h118q59 0 77 -33t3 -102l-8 -37h-51l5 26q11 49 0.5 72.5t-45.5 23.5h-95q-37 0 -58 -23t-32 -73l-13 -63h-1l-19 -90h1l-14 -65q-12 -49 -1.5 -72t48.5 -23h97q35 0 55 22.5t31 72.5l6 26h51l-8 -37
q-15 -69 -46.5 -102t-90.5 -33h-107q-63 0 -83 33.5t-5 104.5l15 68h-1zM354 50l-10 -50h-339l10 50h339z" />
    <glyph glyph-name="D.s" horiz-adv-x="443" 
d="M105 660l10 50h277q68 0 89 -37.5t3 -117.5l-42 -200q-17 -80 -53.5 -117.5t-104.5 -37.5h-209l98 460h-68zM376 50l-10 -50h-333l10 50h333zM374 660h-149l-87 -409h149q44 0 69 27.5t37 87.5l38 179q12 59 -1 87t-56 28z" />
    <glyph glyph-name="E.s.001" horiz-adv-x="392" 
d="M209 660l-52 -244h206l-19 -50h-198l-9 -45h182l-18 -50h-175l-47 -221h269l-17 -50h-313l150 710h318l-18 -50h-259z" />
    <glyph glyph-name="F.s.001" horiz-adv-x="378" 
d="M209 660l-52 -244h206l-19 -50h-198l-9 -45h182l-18 -50h-175l-57 -271h-51l150 710h310l-18 -50h-251z" />
    <glyph glyph-name="G.s" horiz-adv-x="406" 
d="M-12 -63l18 83h1l4 22q15 67 43.5 100.5t80.5 36.5l18 87q-42 8 -54.5 42t1.5 92l14 69h-1l20 92h1l2 11q16 71 46.5 104.5t88.5 33.5h70q59 0 77.5 -33t3.5 -102l-38 -177q-15 -69 -47 -102t-91 -33h-45l-17 -83h97q64 0 83.5 -33.5t4.5 -104.5l-15 -74h-1l-4 -19
q-16 -72 -46.5 -105t-88.5 -33h-135q-61 0 -81.5 30.5t-8.5 95.5h-1zM270 130h-120q-36 0 -57 -23t-32 -73l-17 -77q-11 -49 -1 -72.5t48 -23.5h122q33 0 52.5 20t30.5 66l17 78h1l2 9q12 52 1.5 74t-47.5 22zM199 313h49q36 0 56 23t30 73l33 155q20 92 -38 96h-55
q-36 0 -56.5 -23.5t-31.5 -72.5l-13 -63h-1l-6 -27h1l-14 -65q-11 -49 -1.5 -72.5t47.5 -23.5z" />
    <glyph glyph-name="H.s" horiz-adv-x="445" 
d="M69 0h-51l150 710h51l-61 -289l219 -77l77 366h53l-150 -710h-53l42 200l-219 76zM147 371l-9 -44l219 -77l9 44z" />
    <glyph glyph-name="I.s" horiz-adv-x="365" 
d="M323 50l-10 -50h-332l9 50h140l130 610h-140l10 50h333l-10 -50h-141l-130 -610h141z" />
    <glyph glyph-name="J.s" horiz-adv-x="428" 
d="M490 710l-120 -567q-30 -143 -141 -143h-126q-111 0 -81 143l26 121h51l-23 -106q-12 -56 -0.5 -82t48.5 -26h104q37 0 59 25.5t34 82.5l86 403h-142l5 50h147l11 49h-182l6 50h238z" />
    <glyph glyph-name="K.s" horiz-adv-x="414" 
d="M458 710h57l-313 -399l192 -67l-51 -244h-52l44 211l-206 72l-60 -283h-51l150 710h51l-80 -377l17 -6z" />
    <glyph glyph-name="L.s" horiz-adv-x="374" 
d="M211 710l-97 -459h250l-18 -51h-294l108 510h51zM319 50l-10 -50h-300l10 50h300z" />
    <glyph glyph-name="M.s" horiz-adv-x="528" 
d="M68 0h-51l150 710h59l84 -322l220 322h60l-150 -710h-52l106 501l-231 -333l-89 333zM205 646l-14 -67l89 -333l231 333l14 67l-231 -333z" />
    <glyph glyph-name="N.s" horiz-adv-x="474" 
d="M18 0l148 699h51l-18 -83q-1 -5 -1 -9v-7t1.5 -5.5t3 -4t4 -3.5t4.5 -3t5.5 -3t6.5 -4l205 -134l54 256h52l-148 -699h-52l77 364q1 7 1 12t-0.5 8t-3.5 6t-5 4t-7.5 4t-8.5 5l-204 134l-114 -537h-51z" />
    <glyph glyph-name="O.s" horiz-adv-x="438" 
d="M82 372l37 177h1l5 23q16 71 46.5 104.5t88.5 33.5h137q64 0 83.5 -33.5t4.5 -104.5l-16 -74h-1l-18 -84h1l-16 -76q-15 -71 -46 -104t-89 -33h-137q-64 0 -83.5 33t-4.5 104l8 34h-1zM390 372l37 177h1l3 15q12 52 2 74t-47 22h-123q-36 0 -57 -23t-32 -73l-13 -63h-1
l-19 -89h1l-14 -66q-12 -49 -1.5 -72t47.5 -23h125q36 0 55.5 22.5t30.5 72.5l6 26h-1zM360 50l-10 -50h-337l10 50h337z" />
    <glyph glyph-name="P.s" horiz-adv-x="411" 
d="M158 660l10 50h221q103 0 76 -128l-40 -189q-27 -128 -130 -128h-170l-56 -265h-51l66 315h206q67 0 86 94l34 157q11 49 -0.5 71.5t-45.5 22.5h-206z" />
    <glyph glyph-name="Q.s" horiz-adv-x="457" 
d="M213 201h-52q-64 0 -83.5 33t-4.5 104l7 29h-1l30 144h1l13 61q16 71 46.5 104.5t88.5 33.5h142q64 0 83.5 -33.5t4.5 -104.5l-16 -74h-1l-18 -84h1l-16 -76q-12 -57 -33 -88.5t-57 -42.5l70 -24l-10 -50zM172 251h131q35 0 55 22.5t31 72.5l5 21h-1l30 144h1l11 53
q12 52 2 74t-47 22h-129q-36 0 -57 -23t-32 -73l-13 -63h-1l-19 -89h1l-14 -66q-12 -49 -1.5 -72t47.5 -23zM193 106l11 50l194 -67l-10 -50z" />
    <glyph glyph-name="R.s" horiz-adv-x="444" 
d="M360 -23l-85 288h-150l-56 -265h-51l66 315h175l-101 345l10 50h221q103 0 76 -128l-40 -189q-21 -102 -92 -123l76 -261zM364 660h-144l98 -341q43 16 58 90l34 157q11 49 -0.5 71.5t-45.5 22.5z" />
    <glyph glyph-name="S.s" horiz-adv-x="410" 
d="M300 249l-172 112l12 55l186 -119q37 -23 48.5 -44t2.5 -64l-14 -64q-27 -125 -127 -125h-129q-56 0 -75 31t-5 94l18 86h51l-15 -73q-10 -46 1 -67t43 -21h107q64 0 82 88l9 44q5 32 0.5 43.5t-23.5 23.5zM166 526q-5 -25 0.5 -38t22.5 -25l166 -118l-12 -54l-179 124
q-36 23 -48 43.5t-3 59.5l13 64q14 66 46 97t85 31h124q53 0 71.5 -30.5t4.5 -97.5l-17 -81h-52l15 69q19 90 -41 90h-102q-36 0 -55 -21t-30 -73z" />
    <glyph glyph-name="T.s" horiz-adv-x="383" 
d="M181 0h-52l119 560h-127l10 50h308l-10 -50h-129zM471 660h-351l9 50h352z" />
    <glyph glyph-name="U.s" horiz-adv-x="429" 
d="M284 251q37 0 59 25.5t34 82.5l74 351h52l-78 -367q-30 -143 -141 -143h-126q-111 0 -81 143l78 367h51l-74 -351q-12 -57 -0.5 -82.5t48.5 -25.5h104zM356 50l-10 -50h-336l10 50h336z" />
    <glyph glyph-name="V.s" horiz-adv-x="366" 
d="M218 200h-56l-26 510h53l16 -440l200 440h55zM326 50l-10 -50h-336l10 50h336z" />
    <glyph glyph-name="W.s" horiz-adv-x="529" 
d="M167 710h51l-108 -508l230 328l90 -328l108 508h52l-150 -710h-60l-84 322l-220 -322h-59zM94 126l-13 -62l231 333l89 -333l13 62l-89 333z" />
    <glyph glyph-name="X.s" horiz-adv-x="399" 
d="M306 416l51 -416h-58l-42 342l-28 -41l37 -301h-57l-28 228l-151 -228h-56l198 300l-49 410h58l40 -337l28 42l-36 295h58l26 -221l147 221h58z" />
    <glyph glyph-name="Y.s" horiz-adv-x="409" 
d="M174 584l65 -137l10 51l-109 212h60l83 -175l156 175h59l-196 -211l-11 -52l122 137h59l-197 -210l-79 -374h-52l79 373l-109 211h60z" />
    <glyph glyph-name="Z.s" horiz-adv-x="391" 
d="M124 560l2 51h237l33 49h-261l3 50h326l-3 -47l-334 -508h241l-17 -51h-256l-36 -54h276l-18 -50h-324l2 47l336 513h-207z" />
    <glyph glyph-name="E.s" horiz-adv-x="388" 
d="M206 660l-52 -244h205l-18 -50h-249l73 344h317l-17 -50h-259zM327 0h-312l68 321h233l-19 -50h-174l-47 -221h269z" />
    <glyph glyph-name="F.s" horiz-adv-x="375" 
d="M206 660l-52 -244h205l-18 -50h-249l73 344h309l-17 -50h-251zM66 0h-51l68 321h233l-19 -50h-174z" />
    <glyph glyph-name="H.s.001" horiz-adv-x="442" 
d="M69 0h-51l150 710h51l-67 -319h233l67 319h52l-150 -710h-52l51 244h-233zM141 341l-10 -47h233l10 47h-233z" />
    <glyph glyph-name="L.s.001" horiz-adv-x="373" 
d="M219 710l-118 -559h248l-18 -50h-241l-11 -51h250l-17 -50h-294l150 710h51z" />
    <glyph glyph-name="Q.s.001" horiz-adv-x="434" 
d="M206 0h-49l42 201h-41q-64 0 -83.5 33t-4.5 104l7 29h-1l30 144h1l13 61q16 71 46.5 104.5t88.5 33.5h142q64 0 83.5 -33.5t4.5 -104.5l-16 -74h-1l-18 -84h1l-16 -76q-15 -71 -45.5 -104t-88.5 -33h-53zM170 251h40l25 120h49l-25 -120h41q35 0 55 22.5t31 72.5l5 21h-1
l30 144h1l11 53q12 52 2 74t-47 22h-129q-36 0 -57 -23t-32 -73l-13 -63h-1l-19 -89h1l-14 -66q-12 -49 -1.5 -72t48.5 -23z" />
    <glyph glyph-name="A.s.001" horiz-adv-x="551" 
d="M574 231l-11 -50h-128l7 -181h-55l-4 181h-214l-80 -181h-53l82 181h-122l11 50h134l196 428h-107l10 51h175l18 -479h141zM374 639l-182 -408h190z" />
    <glyph glyph-name="N.s.001" horiz-adv-x="478" 
d="M68 0h-51l150 710h51l-10 -51l250 -86l29 137h52l-150 -710h-52l90 428l-250 87zM197 609l-9 -44l250 -87l9 44z" />
    <glyph glyph-name="O.s.001" horiz-adv-x="466" 
d="M43 138l92 434q16 71 46.5 104.5t88.5 33.5h142q64 0 84 -33.5t5 -104.5l-92 -434q-16 -72 -46.5 -105t-87.5 -33h-144q-63 0 -83 33.5t-5 104.5zM402 660h-129q-36 0 -57 -23t-32 -73l-88 -418q-12 -49 -2 -72.5t48 -23.5h130q36 0 56 22.5t31 73.5l88 418q12 52 2 74
t-47 22zM241 327l15 71h55l-15 -71h-55z" />
    <glyph glyph-name="N.s.002" horiz-adv-x="478" 
d="M68 0h-51l150 710h51l-10 -51l250 -86l29 137h52l-150 -710h-52l110 522l-250 87z" />
    <glyph glyph-name="C.spec" horiz-adv-x="499" 
d="M451 660h-102q-36 0 -57 -23t-32 -73l-29 -137l145 -50l-11 -50l-144 50l-10 -44l145 -50l-11 -50l-145 49l-28 -136q-12 -49 -2 -72.5t48 -23.5h103q36 0 56 22.5t31 73.5l14 68h52l-16 -76q-16 -72 -46.5 -105t-87.5 -33h-117q-63 0 -83 33.5t-5 104.5l13 63h-1l21 98
l-107 37l11 51l107 -37l9 44l-107 37l11 50l107 -37l14 67h1l13 61q16 71 46.5 104.5t88.5 33.5h116q64 0 83.5 -33.5t4.5 -104.5l-16 -74h-52l14 66q12 52 2 74t-47 22z" />
    <glyph glyph-name="A.sh" horiz-adv-x="438" 
d="M385 198l-271 90l168 372h-107l10 50h179zM95 242l289 -95l5 -147h-55v110l-218 73l-79 -183h-54zM321 640l-140 -321l143 -53z" />
    <glyph glyph-name="H.sh" horiz-adv-x="442" 
d="M413 280l-316 104l69 326h51l-61 -290l219 -76l77 366h52zM67 0h-51l72 342l316 -105l-50 -237h-52l42 200l-219 77z" />
    <glyph glyph-name="M.sh" horiz-adv-x="528" 
d="M281 251l300 413l-141 -664h-52l110 521l-232 -341l-88 341l-110 -521h-51l141 664zM294 313l-127 397h53l89 -327l227 327h54z" />
    <glyph glyph-name="W.sh" horiz-adv-x="528" 
d="M449 46l-124 413l-299 -413l141 664h51l-110 -521l232 341l88 -341l110 521h52zM17 0l295 397l128 -397h-54l-89 327l-227 -327h-53z" />
    <glyph glyph-name="X.sh" horiz-adv-x="399" 
d="M179 233l-149 -233h-57l198 301l-48 409h57l86 -710h-58zM306 417l51 -417h-58l-86 710h58l27 -227l146 227h57z" />
    <glyph glyph-name="L.sh" horiz-adv-x="375" 
d="M334 38l-299 98l122 574h51l-114 -538l250 -84zM16 43l10 51l298 -100l-10 -50z" />
    <glyph glyph-name="B.sh" horiz-adv-x="411" 
d="M18 0l150 710h104q66 0 92 -29t12 -93l-12 -59q-14 -64 -52 -93t-104 -29h-53l-6 -30h142q71 0 98 -26.5t9 -111.5l-20 -96q-31 -143 -152 -143h-208zM139 330l-60 -280h146q82 0 103 97l17 83q5 24 5.5 41t-5.5 28t-13 17.5t-23.5 9.5t-30.5 3.5t-39 0.5h-100zM210 665
l-45 -213h60q39 0 60.5 21t31.5 68l8 35q10 46 -3 67.5t-52 21.5h-60z" />
    <glyph glyph-name="undercommaaccent" horiz-adv-x="113" 
d="M-19 -88h39l-11 -53l-44 -84h-9z" />
    <glyph glyph-name="O.mon2.001" horiz-adv-x="460" 
d="M270 660q-35 0 -55 -23t-31 -73l-88 -418q-11 -49 -1 -72.5t45 -23.5h47l-10 -50h-56q-58 0 -76 33t-3 102l94 440q15 70 46 102.5t89 32.5h146q58 0 76.5 -33t3.5 -102l-94 -440q-15 -69 -46.5 -102t-89.5 -33h-55l10 50h46q35 0 55 23t31 73l88 418q11 49 1 72.5
t-45 23.5h-128z" />
    <glyph glyph-name="P.mon2.001" horiz-adv-x="424" 
d="M157 660l10 50h228q112 0 85 -128l-40 -189q-27 -128 -139 -128h-177l-56 -265h-51l131 621h51l-65 -306h162q75 0 94 94l34 157q10 49 -3 71.5t-51 22.5h-213z" />
    <glyph glyph-name="S.mon2.001" horiz-adv-x="425" 
d="M320 283l-126 75q-21 12 -27 15.5t-21 13.5t-19 15t-12 15.5t-9 20t-1.5 23.5t3.5 30l19 91q14 66 47 97t89 31h49l-10 -50h-36q-38 0 -58.5 -21t-31.5 -73l-15 -70q-6 -27 3 -42t38 -32l158 -92q32 -19 39.5 -39.5t-2.5 -69.5l-20 -96q-27 -125 -131 -125h-43l10 50h28
q35 0 56 20t31 68l16 78q6 31 1 43t-25 24zM375 660h-38l10 50h56q48 0 64.5 -35t3.5 -93l-17 -81h-52l15 69q19 90 -42 90zM82 138q-10 -46 2 -67t46 -21h45l-10 -50h-53q-111 0 -84 125l18 86h51z" />
    <glyph glyph-name="F.mon2.001" horiz-adv-x="393" 
d="M62 0h-51l131 621h51l-63 -298h223l-18 -51h-216zM151 660l10 50h332l-17 -50h-325z" />
    <glyph glyph-name="B.mon2.001" horiz-adv-x="416" 
d="M151 661l10 49h186q127 0 98 -135l-23 -109q-18 -78 -66 -94q32 -10 42 -43t2 -72l-26 -122q-28 -135 -153 -135h-210l132 622h51l-49 -227h147q64 0 80 79l19 86q11 53 -5.5 77t-62.5 24h-172zM135 345l-63 -295h148q84 0 105 97l21 99q11 52 -3 75.5t-55 23.5h-153z
" />
    <glyph glyph-name="I.mon2.001" horiz-adv-x="158" 
d="M69 0h-51l150 710h51z" />
    <glyph glyph-name="E.mon2.001" horiz-adv-x="386" 
d="M324 0h-313l131 620h51l-63 -297h223l-18 -51h-216l-47 -222h269zM151 660l10 50h318l-17 -50h-311z" />
    <glyph glyph-name="Z.mon2.001" horiz-adv-x="398" 
d="M-14 0l1 47l408 574h63l-406 -571h306l-17 -50h-355zM485 660h-357l3 50h356z" />
    <glyph glyph-name="A.mon2.001" horiz-adv-x="440" 
d="M34 0h-55l94 206h255l-8 434l-176 -396h-52l214 466h57l27 -710h-56l-4 156h-225z" />
    <glyph glyph-name="V.mon2.001" horiz-adv-x="435" 
d="M209 0h-52l326 710h55zM124 710h56l14 -566l-44 -85z" />
    <glyph glyph-name="X.mon2.001" horiz-adv-x="355" 
d="M-25 0l432 710h57l-211 -347l55 -363h-58l-42 290l-176 -290h-57zM178 710l34 -277l-43 -58l-47 335h56z" />
    <glyph glyph-name="N.mon2.001" horiz-adv-x="456" 
d="M310 0l-149 710h59l116 -620l131 620h51l-150 -710h-58zM63 0h-51l133 634l32 -96z" />
    <glyph glyph-name="R.mon2.001" horiz-adv-x="421" 
d="M152 660l10 50h220q103 0 76 -128l-40 -189q-27 -128 -130 -128l97 -265h-61l-96 265h-109l-56 -265h-51l131 621h51l-65 -306h155q67 0 86 94l34 157q20 94 -46 94h-206z" />
    <glyph glyph-name="G.mon2.001" horiz-adv-x="434" 
d="M95 144q-20 -94 47 -94h35l-10 -50h-48q-106 0 -79 127l96 448q28 135 127 135h139q106 0 79 -128l-17 -81h-51l14 65q19 94 -47 94h-110q-34 0 -55 -24t-32 -77zM255 291l18 50h154l-44 -206q-15 -70 -49 -102.5t-98 -32.5h-34l10 50h32q69 0 88 88l32 153h-109z" />
    <glyph glyph-name="C.mon2.001" horiz-adv-x="423" 
d="M142 50h32l-10 -50h-41q-59 0 -77.5 33t-3.5 102l94 440q15 70 46.5 102.5t90.5 32.5h122q59 0 77.5 -33t3.5 -102l-16 -74h-52l13 63q11 49 1 72.5t-46 23.5h-104q-36 0 -56.5 -23.5t-31.5 -72.5l-88 -418q-11 -49 -0.5 -72.5t46.5 -23.5zM245 0h-47l10 50h35
q42 0 61.5 28.5t34.5 96.5l7 36h52l-16 -76q-15 -69 -46.5 -102t-90.5 -33z" />
    <glyph glyph-name="D.mon2.001" horiz-adv-x="428" 
d="M368 660h-217l10 50h226q59 0 78 -33t4 -102l-94 -440q-15 -69 -47 -102t-91 -33h-226l131 621h51l-121 -571h166q36 0 56 23t31 73l88 418q11 49 1 72.5t-46 23.5z" />
    <glyph glyph-name="H.mon2.001" horiz-adv-x="439" 
d="M62 0h-51l67 316h289l83 394h51l-150 -710h-51l56 266h-238zM212 710l-75 -356h-51l75 356h51z" />
    <glyph glyph-name="U.mon2.001" horiz-adv-x="454" 
d="M148 50h35l-10 -50h-45q-59 0 -78.5 35.5t-4.5 107.5l120 567h51l-117 -552q-12 -56 0 -82t49 -26zM254 50h-35l-10 -50h45q113 0 143 143l120 567h-51l-117 -552q-12 -56 -34.5 -82t-60.5 -26z" />
    <glyph glyph-name="W.mon2.001" horiz-adv-x="593" 
d="M177 0h-50l257 710h53l-51 -640l240 640h57l-285 -710h-61l36 549zM139 710h55l-20 -521l-50 -118z" />
    <glyph glyph-name="Y.mon2.001" horiz-adv-x="405" 
d="M193 0h-52l69 327l239 383h54l-243 -391zM186 710l50 -287l-41 -59l-65 346h56z" />
    <glyph glyph-name="L.mon2.001" horiz-adv-x="354" 
d="M301 0h-290l10 50h297zM212 710l-132 -621h-51l132 621h51z" />
    <glyph glyph-name="J.mon2.001" horiz-adv-x="341" 
d="M109 50q54 0 83 22.5t40 71.5l120 566h51l-123 -582q-27 -128 -172 -128h-134l17 50h118z" />
    <glyph glyph-name="Q.mon2.001" horiz-adv-x="460" 
d="M251 174l-26 -124h43q35 0 55 23t31 73l88 418q11 48 1 72t-45 24h-46l10 50h55q58 0 76.5 -33t3.5 -102l-94 -440q-15 -69 -46.5 -102t-89.5 -33h-52l-22 -102h-49l22 102h-45q-58 0 -76 33t-3 102l94 440q15 70 46 102.5t89 32.5h56l-10 -50h-47q-34 0 -54.5 -23.5
t-31.5 -72.5l-88 -418q-11 -48 -1 -72t45 -24h36l26 124h49z" />
    <glyph glyph-name="K.mon2.001" horiz-adv-x="388" 
d="M55 0h-51l72 341l364 369h64l-331 -344l181 -366h-64l-158 325l-10 -9zM205 710l-55 -261l-63 -58l67 319h51z" />
    <glyph glyph-name="M.mon2.001" horiz-adv-x="502" 
d="M414 0h-52l130 612l-196 -338h-50l-85 436h59l66 -360l217 360h61zM63 0h-51l132 626l28 -109z" />
    <glyph glyph-name="T.mon2.001" horiz-adv-x="408" 
d="M499 660h-382l10 50h382zM194 0h-52l131 621h52z" />
    <glyph glyph-name="O.mon2" horiz-adv-x="460" 
d="M42 135l94 440q15 70 46 102.5t89 32.5h146q58 0 76.5 -33t3.5 -102l-94 -440q-15 -69 -46.5 -102t-89.5 -33h-146q-58 0 -76 33t-3 102zM270 660q-35 0 -55 -23t-31 -73l-88 -418q-11 -49 -1 -72.5t45 -23.5h128q35 0 55 23t31 73l88 418q11 49 1 72.5t-45 23.5h-128z
" />
    <glyph glyph-name="P.mon2" horiz-adv-x="424" 
d="M17 0l150 710h228q112 0 85 -128l-40 -189q-27 -128 -139 -128h-177l-56 -265h-51zM208 660l-74 -345h162q75 0 94 94l34 157q10 49 -3 71.5t-51 22.5h-162z" />
    <glyph glyph-name="S.mon2" horiz-adv-x="425" 
d="M320 283l-161 97q-36 20 -48.5 41t-4.5 62l21 99q14 66 47 97t89 31h127q55 0 75 -30.5t6 -97.5l-17 -81h-52l15 69q19 90 -45 90h-106q-39 0 -59 -21t-31 -73l-15 -70q-6 -26 0 -39t25 -24l159 -97q39 -20 51.5 -41t2.5 -66l-22 -104q-27 -125 -131 -125h-134
q-111 0 -84 125l18 86h51l-15 -73q-10 -46 2 -67t46 -21h112q68 0 86 88l16 78q6 33 1 44.5t-25 22.5z" />
    <glyph glyph-name="F.mon2" horiz-adv-x="400" 
d="M208 660l-72 -337h224l-18 -51h-217l-57 -272h-51l150 710h333l-18 -50h-274z" />
    <glyph glyph-name="B.mon2" horiz-adv-x="423" 
d="M17 0l150 710h186q127 0 99 -135l-23 -109q-18 -79 -67 -94q33 -10 42.5 -43t1.5 -72l-26 -122q-28 -135 -152 -135h-211zM141 345l-63 -295h148q85 0 106 97l21 99q10 52 -3.5 75.5t-54.5 23.5h-154zM208 661l-57 -266h148q63 0 79 79l19 86q11 53 -5 77t-63 24h-121z
" />
    <glyph glyph-name="I.mon2" horiz-adv-x="158" 
d="M69 0h-51l150 710h51z" />
    <glyph glyph-name="E.mon2" horiz-adv-x="392" 
d="M208 660l-72 -337h223l-18 -51h-216l-47 -222h269l-17 -50h-313l150 710h318l-17 -50h-260z" />
    <glyph glyph-name="Z.mon2" horiz-adv-x="397" 
d="M485 663l-433 -613h306l-17 -50h-355l1 47l433 613h-292l3 50h356z" />
    <glyph glyph-name="A.mon2" horiz-adv-x="440" 
d="M306 710h57l27 -710h-56l-4 156h-227l-69 -156h-55zM320 640l-195 -434h203z" />
    <glyph glyph-name="V.mon2" horiz-adv-x="438" 
d="M212 0h-57l-28 710h55l15 -640l287 640h56z" />
    <glyph glyph-name="X.mon2" horiz-adv-x="374" 
d="M180 710l53 -331l191 331h57l-213 -356l61 -354h-60l-51 322l-187 -322h-57l212 354l-65 356h59z" />
    <glyph glyph-name="N.mon2" horiz-adv-x="467" 
d="M68 0h-51l150 710h59l120 -618l131 618h52l-150 -710h-58l-122 620z" />
    <glyph glyph-name="R.mon2" horiz-adv-x="427" 
d="M17 0l150 710h220q103 0 76 -128l-40 -189q-27 -128 -130 -128l96 -265h-60l-96 265h-109l-56 -265h-51zM208 660l-74 -345h154q67 0 86 94l34 157q11 49 -0.5 71.5t-45.5 22.5h-154z" />
    <glyph glyph-name="G.mon2" horiz-adv-x="434" 
d="M255 291l18 50h154l-44 -206q-14 -67 -46 -101t-89 -34h-129q-106 0 -79 127l96 448q28 135 127 135h139q106 0 79 -128l-17 -81h-51l14 65q20 94 -47 94h-110q-34 0 -55 -24t-32 -77l-88 -415q-20 -94 47 -94h102q69 0 88 88l32 153h-109z" />
    <glyph glyph-name="C.mon2" horiz-adv-x="423" 
d="M142 50h104q36 0 56 23t31 73l13 65h52l-16 -76q-15 -69 -46.5 -102t-90.5 -33h-122q-59 0 -77.5 33t-3.5 102l94 440q15 70 46.5 102.5t90.5 32.5h122q59 0 77.5 -33t3.5 -102l-16 -74h-52l13 63q11 49 1 72.5t-46 23.5h-104q-36 0 -56.5 -23t-31.5 -73l-88 -418
q-11 -49 -0.5 -72.5t46.5 -23.5z" />
    <glyph glyph-name="D.mon2" horiz-adv-x="438" 
d="M17 0l150 710h227q59 0 77.5 -33t3.5 -102l-94 -440q-15 -69 -46.5 -102t-90.5 -33h-227zM375 660h-166l-130 -610h166q36 0 56 23t31 73l88 418q11 49 1 72.5t-46 23.5z" />
    <glyph glyph-name="H.mon2" horiz-adv-x="446" 
d="M68 0h-51l150 710h51l-83 -394h238l83 394h52l-150 -710h-52l56 266h-238z" />
    <glyph glyph-name="U.mon2" horiz-adv-x="456" 
d="M255 50q37 0 60 26t35 82l117 552h52l-120 -567q-30 -143 -143 -143h-128q-59 0 -78.5 35.5t-4.5 107.5l120 567h51l-117 -552q-12 -56 -0.5 -82t49.5 -26h107z" />
    <glyph glyph-name="W.mon2" horiz-adv-x="592" 
d="M183 0h-60l16 710h55l-31 -640l221 640h54l-51 -640l240 640h56l-284 -710h-61l35 534z" />
    <glyph glyph-name="Y.mon2" horiz-adv-x="405" 
d="M193 0h-52l69 325l-80 385h56l61 -329l198 329h58l-241 -385z" />
    <glyph glyph-name="L.mon2" horiz-adv-x="402" 
d="M218 710l-140 -660h289l-17 -50h-333l150 710h51z" />
    <glyph glyph-name="J.mon2" horiz-adv-x="341" 
d="M109 50q54 0 83 22.5t40 71.5l120 566h51l-123 -582q-27 -128 -172 -128h-134l17 50h118z" />
    <glyph glyph-name="Q.mon2" horiz-adv-x="460" 
d="M42 135l94 440q15 70 46 102.5t89 32.5h146q58 0 76.5 -33t3.5 -102l-94 -440q-15 -69 -46.5 -102t-89.5 -33h-51l-22 -102h-49l22 102h-46q-58 0 -76 33t-3 102zM270 660q-35 0 -55 -23t-31 -73l-88 -418q-11 -49 -1 -72.5t45 -23.5h37l26 124h49l-26 -124h42
q35 0 55 23t31 73l88 418q11 49 1 72.5t-45 23.5h-128z" />
    <glyph glyph-name="K.mon2" horiz-adv-x="402" 
d="M68 0h-51l150 710h51l-71 -335l306 335h65l-325 -355l175 -355h-65l-164 335z" />
    <glyph glyph-name="M.mon2" horiz-adv-x="509" 
d="M421 0h-51l131 618l-193 -324h-54l-55 324l-131 -618h-51l150 710h62l63 -363l218 363h61z" />
    <glyph glyph-name="T.mon2" horiz-adv-x="408" 
d="M499 660h-165l-140 -660h-52l140 660h-165l10 50h382z" />
    <glyph glyph-name="K.mon2.002" horiz-adv-x="409" 
d="M63 0h-51l78 373h147l226 337h56l-239 -360l90 -350h-60l-83 323h-96zM213 710l-63 -298h-52l63 298h52z" />
    <glyph glyph-name="A.ae" horiz-adv-x="454" 
d="M313 710h57l36 -692l-51 -18l-7 156h-247l-72 -156l-45 18l329 690v2zM326 639l-202 -433h221z" />
    <glyph glyph-name="K.ae" horiz-adv-x="378" 
d="M68 0h-51l150 710h51l-70 -333l300 336l36 -32l-291 -326l150 -328l-47 -30l-158 336z" />
    <glyph glyph-name="M.ae" horiz-adv-x="528" 
d="M440 0h-52l131 620l-212 -346h-42l-66 346l-131 -620h-51l150 710h59l76 -359l228 359h60z" />
    <glyph glyph-name="R.ae" horiz-adv-x="424" 
d="M17 0l150 710h221q103 0 76 -128l-40 -189q-27 -128 -130 -128h-1l84 -241l-47 -27l-97 268h-109l-56 -265h-51zM208 660l-74 -345h155q68 0 87 94l34 157q20 94 -47 94h-155z" />
    <glyph glyph-name="V.ae" horiz-adv-x="451" 
d="M218 0h-57v1l-35 691l52 18l27 -639l298 639l45 -18z" />
    <glyph glyph-name="W.ae" horiz-adv-x="734" 
d="M502 0h-57l-24 428l-203 -428h-57v1l-35 691l52 18l27 -639l298 639l45 -18l-79 -165l19 -456l297 639l46 -18l-330 -691z" />
    <glyph glyph-name="X.ae" horiz-adv-x="387" 
d="M448 718l38 -27l-223 -327l89 -343l-50 -27l-80 310l-212 -310l-38 27l234 343l-85 327l51 27l76 -293z" />
    <glyph glyph-name="Y.ae" horiz-adv-x="411" 
d="M196 0h-52l74 352l-87 342l49 24l75 -317l207 317l40 -24l-231 -341z" />
    <glyph glyph-name="A.SC" horiz-adv-x="400" 
d="M265 604h54l32 -604h-54l-5 129h-201l-59 -129h-53zM277 530l-162 -351h175z" />
    <glyph glyph-name="B.SC" horiz-adv-x="403" 
d="M14 0l128 604h177q117 0 91 -115l-17 -81q-16 -77 -72 -92q79 -7 57 -112l-19 -89q-24 -115 -134 -115h-211zM126 290l-51 -240h147q70 0 87 78l15 71q10 47 -5 69t-58 22h-135zM182 553l-45 -213h125q66 0 82 76l12 57q9 43 -6 61.5t-56 18.5h-112z" />
    <glyph glyph-name="C.SC" horiz-adv-x="410" 
d="M131 50h111q31 0 48.5 18.5t26.5 59.5l11 55h51l-14 -68q-12 -59 -41 -87t-82 -28h-132q-52 0 -69.5 28t-5.5 87l79 374q13 58 42.5 86.5t81.5 28.5h132q53 0 70 -28.5t4 -86.5l-14 -66h-51l12 53q8 40 -1.5 58.5t-40.5 18.5h-111q-31 0 -48.5 -18.5t-25.5 -58.5
l-74 -348q-10 -40 -0.5 -59t41.5 -19z" />
    <glyph glyph-name="D.SC" horiz-adv-x="431" 
d="M14 0l128 604h213q65 0 86 -34t6 -107l-69 -323q-15 -72 -50.5 -106t-100.5 -34h-213zM227 50q42 0 66.5 25t35.5 78l63 297q11 53 -2.5 78t-55.5 25h-152l-107 -503h152z" />
    <glyph glyph-name="E.SC" horiz-adv-x="359" 
d="M182 553l-58 -275h196l-18 -51h-189l-38 -177h236l-17 -50h-280l128 604h286l-18 -51h-228z" />
    <glyph glyph-name="F.SC" horiz-adv-x="349" 
d="M182 553l-58 -275h186l-18 -51h-179l-48 -227h-51l128 604h283l-18 -51h-225z" />
    <glyph glyph-name="G.SC" horiz-adv-x="419" 
d="M225 244l18 50h160l-38 -179q-12 -58 -41 -86.5t-81 -28.5h-135q-98 0 -74 109l80 380q26 115 116 115h146q96 0 73 -110l-15 -68h-52l11 51q8 40 -1 58t-39 18h-118q-30 0 -47 -19.5t-26 -61.5l-74 -346q-16 -76 42 -76h111q59 0 74 72l26 122h-116z" />
    <glyph glyph-name="H.SC" horiz-adv-x="427" 
d="M65 0h-51l128 604h51l-69 -326h224l69 326h52l-128 -604h-52l48 227h-224z" />
    <glyph glyph-name="I.SC" horiz-adv-x="151" 
d="M65 0h-51l128 604h51z" />
    <glyph glyph-name="J.SC" horiz-adv-x="251" 
d="M68 50q57 0 73 76l102 478h51l-105 -495q-23 -109 -119 -109h-91l17 50h72z" />
    <glyph glyph-name="K.SC" horiz-adv-x="366" 
d="M65 0h-51l128 604h51l-61 -288l264 288h58l-276 -302l152 -302h-59l-145 288z" />
    <glyph glyph-name="L.SC" horiz-adv-x="334" 
d="M193 604l-118 -554h223l-17 -50h-267l128 604h51z" />
    <glyph glyph-name="M.SC" horiz-adv-x="486" 
d="M66 0h-52l128 604h58l66 -318l204 318h58l-128 -604h-52l105 496l-174 -267h-49l-59 267z" />
    <glyph glyph-name="N.SC" horiz-adv-x="439" 
d="M65 0h-51l128 604h51v-1l116 -443q8 -36 11 -68l109 512h52l-128 -604h-52l-111 426q-9 33 -17 85z" />
    <glyph glyph-name="O.SC" horiz-adv-x="437" 
d="M35 115l79 374q13 58 42.5 86.5t81.5 28.5h145q53 0 70 -28t4 -87l-79 -374q-12 -59 -40.5 -87t-82.5 -28h-145q-52 0 -69.5 28t-5.5 87zM238 553q-31 0 -48.5 -18.5t-25.5 -58.5l-74 -348q-10 -40 -0.5 -59t41.5 -19h124q31 0 48.5 18.5t26.5 59.5l74 348
q8 40 -1.5 58.5t-40.5 18.5h-124z" />
    <glyph glyph-name="P.SC" horiz-adv-x="389" 
d="M117 245l-14 -62h1l-39 -183h-51l128 604h214q95 0 72 -110l-30 -141q-24 -108 -118 -108h-163zM182 553l-55 -258h149q57 0 73 75l23 107q16 76 -41 76h-149z" />
    <glyph glyph-name="Q.SC" horiz-adv-x="437" 
d="M35 115l79 374q13 58 42.5 86.5t81.5 28.5h145q53 0 70 -28t4 -87l-79 -374q-12 -59 -40.5 -87t-82.5 -28h-49l-21 -98h-49l21 98h-47q-52 0 -69.5 28t-5.5 87zM131 50h36l18 85h49l-18 -85h39q31 0 48.5 18.5t26.5 59.5l74 348q8 40 -1.5 58.5t-40.5 18.5h-124
q-31 0 -48.5 -18.5t-25.5 -58.5l-74 -348q-10 -40 -0.5 -59t41.5 -19z" />
    <glyph glyph-name="R.SC" horiz-adv-x="397" 
d="M14 0l128 604h210q94 0 71 -110l-32 -146q-23 -110 -117 -110h-14l90 -238h-59l-89 238h-87l-50 -238h-51zM182 553l-56 -264h144q58 0 74 76l24 112q16 76 -42 76h-144z" />
    <glyph glyph-name="S.SC" horiz-adv-x="386" 
d="M274 249l-125 70q-40 23 -51 46t-1 68l13 62q23 109 117 109h112q50 0 68.5 -26t6.5 -83l-15 -69h-52l12 55q14 72 -41 72h-88q-31 0 -47 -16.5t-25 -58.5l-8 -36q-5 -28 0 -41.5t27 -26.5l125 -74q40 -23 51.5 -44t2.5 -65l-18 -85q-23 -106 -114 -106h-129
q-98 0 -75 106l16 77h51l-13 -62q-14 -71 40 -71h106q56 0 70 71l12 56q6 29 0 43.5t-28 28.5z" />
    <glyph glyph-name="T.SC" horiz-adv-x="337" 
d="M406 553h-130l-117 -553h-53l117 553h-129l11 51h312z" />
    <glyph glyph-name="U.SC" horiz-adv-x="421" 
d="M235 50q32 0 50.5 21t28.5 66l99 467h52l-103 -483q-26 -121 -126 -121h-122q-102 0 -76 121l103 483h51l-99 -467q-19 -87 42 -87h100z" />
    <glyph glyph-name="V.SC" horiz-adv-x="388" 
d="M187 0h-56l-18 604h55l6 -503q0 -4 -3 -37q12 33 14 37l220 503h55z" />
    <glyph glyph-name="W.SC" horiz-adv-x="616" 
d="M179 0h-55l-11 604h53v-487q0 -40 -1 -49q1 4 17 49l192 486l51 1l-16 -487q0 -38 -2 -49l9 24l9 24l208 488h53l-267 -604h-55l12 478q2 25 7 47q-13 -43 -15 -47z" />
    <glyph glyph-name="X.SC" horiz-adv-x="349" 
d="M206 324l172 280h53l-187 -303l57 -301h-53l-53 272l-165 -272h-54l184 301l-59 303h53z" />
    <glyph glyph-name="Y.SC" horiz-adv-x="387" 
d="M184 0h-51l52 247l-79 357h53l56 -264q5 -23 5 -47q7 16 26 46l165 265h54l-229 -356z" />
    <glyph glyph-name="Z.SC" horiz-adv-x="344" 
d="M403 556l-347 -506h247l-17 -50h-296l1 47l346 506h-230l4 51h295z" />
    <glyph glyph-name="a.ital" horiz-adv-x="382" 
d="M406 505l-107 -505h-43l7 56q-34 -56 -96 -56h-54q-104 0 -76 128l53 250q14 66 45 99.5t87 33.5h56q57 0 70 -49l9 43h49zM193 46q29 0 53 24t33 67l52 248q6 38 -7 59t-42 21h-59q-66 0 -85 -91l-50 -237q-20 -91 44 -91h61z" />
    </font>
</defs>
</svg>
