<?xml version="1.0" standalone="no"?>
<!DOCTYPE svg PUBLIC "-//W3C//DTD SVG 1.1//EN" "http://www.w3.org/Graphics/SVG/1.1/DTD/svg11.dtd" >
<svg xmlns="http://www.w3.org/2000/svg" xmlns:xlink="http://www.w3.org/1999/xlink" version="1.1">
<metadata>
Created by FontForge 20170731 at Fri Mar  3 02:34:29 2000
 By Aleksey,,,
Copyright (c) ShyFonts Type Foundry, 1999. All rights reserved.
</metadata>
<defs>
<font id="SFEspressoShackCondensed-BoldItalic" horiz-adv-x="1229" >
  <font-face 
    font-family="SF Espresso Shack Condensed"
    font-weight="700"
    font-style="italic"
    font-stretch="normal"
    units-per-em="2048"
    panose-1="0 0 11 0 0 0 0 0 0 0"
    ascent="1638"
    descent="-410"
    x-height="1476"
    cap-height="1640"
    bbox="-121 -415 2327 2170"
    underline-thickness="20"
    underline-position="-163"
    slope="-12"
    unicode-range="U+0020-00FF"
  />
<missing-glyph horiz-adv-x="1024" 
 />
    <glyph glyph-name=".notdef" horiz-adv-x="1024" 
 />
    <glyph glyph-name=".null" horiz-adv-x="0" 
 />
    <glyph glyph-name="nonmarkingreturn" horiz-adv-x="682" 
 />
    <glyph glyph-name="space" unicode=" " horiz-adv-x="692" 
 />
    <glyph glyph-name="exclam" unicode="!" horiz-adv-x="430" 
d="M915 2050l-409 -1523h-302l409 1523h302zM425 258q0 -87 -61 -169q-66 -89 -149 -89q-108 0 -108 136q0 85 63 166q67 87 149 87q106 0 106 -131z" />
    <glyph glyph-name="quotedbl" unicode="&#x22;" horiz-adv-x="662" 
d="M1032 1509q0 -33 -7 -58q-23 -91 -107 -226q-97 -157 -167 -159q68 98 68 163q0 19 -4 34q-100 6 -100 133q0 82 62 162q66 82 147 82q108 0 108 -131zM725 1509q0 -33 -7 -58q-23 -91 -107 -226q-98 -158 -168 -159q68 98 68 162q0 20 -4 35q-100 6 -100 132
q0 82 62 162q68 83 148 83q108 0 108 -131z" />
    <glyph glyph-name="numbersign" unicode="#" horiz-adv-x="1127" 
d="M1431 1374l-71 -264h-186l-97 -238h219l-70 -264h-254l-106 -266h-208l106 266h-177l-108 -266h-208l107 266h-152l70 264h187l97 238h-220l71 264h255l108 266h208l-108 -266h178l106 266h208l-106 -266h151zM966 1110h-178l-96 -238h177z" />
    <glyph glyph-name="dollar" unicode="$" horiz-adv-x="653" 
d="M1022 1736l-59 -401q-227 0 -260 -109q-16 -51 -16 -132q0 -45 8 -111.5t24 -155.5t24 -155.5t8 -112.5q0 -373 -308 -549l-84 -314h-170l65 241q-91 -25 -183 -29l42 397q246 7 278 110q18 58 18 142q0 45 -8.5 111.5t-25.5 154.5q-33 175 -33 266q0 358 291 531l87 328
h165l-66 -246q102 31 203 34z" />
    <glyph glyph-name="percent" unicode="%" horiz-adv-x="1478" 
d="M1011 1361q0 -187 -129 -362q-140 -191 -319 -191q-115 0 -175 85q-53 74 -53 193q0 188 129 364q141 192 322 192q113 0 173 -86q52 -76 52 -195zM1608 1716l-1048 -1925l-249 136l1049 1925zM1583 548q0 -186 -132 -361q-141 -188 -319 -188q-115 0 -173 84
q-52 73 -52 193q0 187 129 364q139 192 320 192q114 0 174 -88q53 -77 53 -196zM792 1274q0 101 -77 101q-62 0 -111 -70q-45 -65 -45 -128q0 -102 76 -102q62 0 111 70q46 64 46 129zM1361 464q0 101 -77 101q-62 0 -111 -70q-46 -64 -46 -128q0 -102 77 -102q63 0 112 70
q45 64 45 129z" />
    <glyph glyph-name="ampersand" unicode="&#x26;" horiz-adv-x="1168" 
d="M1376 1015l-105 -389h-168q-36 -135 -36 -159q0 -62 44 -76q10 -3 97 -3l-104 -388h-7q-107 0 -158 14q-74 21 -127 90q-137 -104 -266 -104h-155q-136 0 -212 102q-67 91 -67 232q0 130 62 265q59 129 159 221q-42 76 -42 180q0 220 158 423q169 217 382 217h482
l-104 -388h-482q-48 0 -87 -56q-36 -53 -36 -102q0 -79 60 -79h712zM800 626h-241q-49 0 -88 -56q-35 -52 -35 -102q0 -80 59 -80h155q67 0 108 93q11 25 42 145z" />
    <glyph glyph-name="quotesingle" unicode="'" horiz-adv-x="353" 
d="M725 1509q0 -33 -7 -58q-23 -91 -107 -226q-98 -158 -168 -159q68 98 68 162q0 20 -4 35q-100 6 -100 132q0 82 62 162q68 83 148 83q108 0 108 -131z" />
    <glyph glyph-name="parenleft" unicode="(" horiz-adv-x="600" 
d="M976 1632q-181 -184 -291 -374q-109 -189 -176 -438q-61 -228 -61 -400q0 -208 93 -412l-292 -216q-120 256 -120 524q0 213 77 504q84 317 224 559q138 241 371 472z" />
    <glyph glyph-name="parenright" unicode=")" horiz-adv-x="600" 
d="M909 1328q0 -216 -78 -508q-86 -321 -223 -558q-69 -120 -161 -236.5t-209 -233.5l-177 216q184 185 291 373q110 189 177 439q61 228 61 397q0 214 -94 415l294 219q119 -252 119 -523z" />
    <glyph glyph-name="asterisk" unicode="*" horiz-adv-x="914" 
d="M1191 1270l-227 -143l151 -142l-164 -231l-150 140l-74 -279h-210l75 279l-226 -140l-41 231l228 142l-152 143l166 231l150 -141l74 280h210l-75 -280l225 141z" />
    <glyph glyph-name="plus" unicode="+" horiz-adv-x="845" 
d="M1042 972l-81 -303h-239l-83 -311h-240l83 311h-240l81 303h241l83 309h239l-83 -309h239z" />
    <glyph glyph-name="comma" unicode="," horiz-adv-x="353" 
d="M384 239q0 -14 -2 -28.5t-6 -30.5q-25 -94 -106 -224q-97 -156 -166 -158q67 97 67 161q0 21 -4 34q-100 6 -100 131q0 83 62 162q66 83 147 83q108 0 108 -130z" />
    <glyph glyph-name="hyphen" unicode="-" horiz-adv-x="845" 
d="M1040 964l-77 -287h-719l77 287h719z" />
    <glyph glyph-name="period" unicode="." horiz-adv-x="353" 
d="M385 241q0 -83 -62 -160q-65 -81 -146 -81q-109 0 -109 130q0 82 62 159q66 80 146 80q109 0 109 -128z" />
    <glyph glyph-name="slash" unicode="/" horiz-adv-x="788" 
d="M1262 1716l-1049 -1925l-247 136l1048 1925z" />
    <glyph glyph-name="zero" unicode="0" 
d="M1501 1095q0 -307 -183 -610q-61 -100 -134 -182.5t-161 -148.5q-202 -154 -408 -154q-217 0 -339 170q-107 151 -107 377q0 309 181 607q122 200 296 331q203 155 408 155q259 0 379 -243q68 -138 68 -302zM1178 961q0 123 -52 200q-60 91 -176 91q-149 0 -282 -145
q-115 -127 -159 -287q-19 -72 -19 -145q0 -120 53 -199q60 -88 176 -88q183 0 327 200q132 183 132 373z" />
    <glyph glyph-name="one" unicode="1" horiz-adv-x="430" 
d="M805 1640l-440 -1640h-302l439 1640h303z" />
    <glyph glyph-name="two" unicode="2" horiz-adv-x="1142" 
d="M1416 1106q0 -129 -36 -262q-82 -307 -283 -512q-63 -64 -180.5 -151t-291.5 -199h524l-104 -389h-1081l101 383l720 486q310 211 310 511q0 117 -51 191q-58 85 -170 85q-189 0 -340 -235l-212 187q292 439 660 439q210 0 329 -168q105 -147 105 -366z" />
    <glyph glyph-name="three" unicode="3" horiz-adv-x="1173" 
d="M1552 1640l-428 -592q195 -134 195 -422q0 -319 -186 -605q-116 -177 -284 -295q-190 -133 -382 -133q-336 0 -412 385l306 251q18 -247 212 -247q166 0 297 161q123 153 123 324q0 109 -50 179q-56 78 -160 78h-257l379 527h-507l104 389h1050z" />
    <glyph glyph-name="four" unicode="4" horiz-adv-x="1153" 
d="M1527 1640l-439 -1640h-301l81 302h-804l813 1344l231 -161l-480 -794h344l254 949h301z" />
    <glyph glyph-name="five" unicode="5" horiz-adv-x="1220" 
d="M1551 1640l-105 -389h-672l-71 -189q114 51 230 51q204 0 322 -157q106 -142 106 -353q0 -294 -171 -565q-117 -185 -288 -306q-194 -139 -392 -139q-340 0 -413 385l306 251q19 -247 218 -247q164 0 295 161q124 151 124 321q0 112 -54 183q-60 77 -168 77
q-122 0 -228 -96q-89 -78 -151 -206l-288 52l467 1166h933z" />
    <glyph glyph-name="six" unicode="6" 
d="M1388 681q0 -301 -165 -584q-119 -203 -300 -342q-210 -162 -418 -162q-216 0 -338 173q-106 151 -106 377q0 426 352 829q103 113 255.5 281t356.5 395l162 -254l-151 -168q184 -32 275 -201q77 -142 77 -344zM1070 559q0 121 -51 199q-60 90 -175 90q-148 0 -282 -146
q-121 -130 -161 -288q-19 -70 -19 -145q0 -122 51 -198q60 -87 177 -87q185 0 328 198q132 183 132 377z" />
    <glyph glyph-name="seven" unicode="7" horiz-adv-x="1058" 
d="M1632 1640l-1488 -2054l-214 206l1055 1459h-566l105 389h1108z" />
    <glyph glyph-name="eight" unicode="8" horiz-adv-x="1172" 
d="M1411 1269q0 -140 -72 -288q-69 -142 -178 -239q113 -119 113 -309q0 -326 -234 -579q-240 -261 -564 -261q-204 0 -331 121q-126 120 -126 322q0 81 24 174q90 347 365 532q-50 89 -50 205q0 271 197 480q199 213 470 213q172 0 277 -99q109 -102 109 -272zM1090 1153
q0 67 -46 106q-44 36 -111 36q-103 0 -183 -76q-80 -77 -80 -177q0 -67 44 -105t113 -38q103 0 182 76q81 76 81 178zM926 319q0 89 -57 140q-55 52 -146 52q-135 0 -241 -105t-106 -240q0 -90 55.5 -139t148.5 -49q136 0 241 102q105 103 105 239z" />
    <glyph glyph-name="nine" unicode="9" 
d="M1500 1093q0 -443 -355 -835l-610 -673l-163 254l151 165q-183 31 -275 201q-77 142 -77 345q0 313 186 615q121 196 294 324q200 151 403 151q259 0 379 -244q67 -134 67 -303zM1177 957q0 123 -52 200q-60 92 -176 92q-184 0 -327 -200q-132 -183 -132 -376
q0 -122 51 -200q60 -91 175 -91q184 0 328 200q133 184 133 375z" />
    <glyph glyph-name="colon" unicode=":" horiz-adv-x="353" 
d="M615 1098q0 -85 -62 -167q-68 -87 -150 -87q-107 0 -107 134q0 84 62 166q66 86 148 86q109 0 109 -132zM388 255q0 -85 -62 -167q-66 -88 -149 -88q-107 0 -107 134q0 84 62 166q66 86 148 86q108 0 108 -131z" />
    <glyph glyph-name="semicolon" unicode=";" horiz-adv-x="353" 
d="M615 1098q0 -85 -62 -167q-67 -88 -150 -88q-107 0 -107 134q0 84 62 166q66 87 148 87q109 0 109 -132zM387 252q0 -16 -2 -31t-6 -31q-25 -94 -108 -229q-97 -161 -167 -163q68 101 68 166q0 19 -4 34q-99 4 -99 133q0 84 62 166q66 87 149 87q107 0 107 -132z" />
    <glyph glyph-name="less" unicode="&#x3c;" horiz-adv-x="546" 
d="M858 1230l-348 -410l129 -410h-306l-128 410l348 410h305z" />
    <glyph glyph-name="equal" unicode="=" horiz-adv-x="845" 
d="M1106 1209l-81 -301h-719l81 301h719zM978 733l-81 -303h-719l81 303h719z" />
    <glyph glyph-name="greater" unicode="&#x3e;" horiz-adv-x="546" 
d="M779 820l-347 -410h-305l346 410l-127 410h306z" />
    <glyph glyph-name="question" unicode="?" horiz-adv-x="1118" 
d="M1532 1589q0 -312 -238 -574q-242 -267 -551 -275l-57 -213h-303l161 597h290q132 0 239 107t107 239q0 45 -14.5 80.5t-41.5 60t-64 37.5t-82 13q-172 0 -289 -161l-259 168q115 165 283 269q182 113 369 113q201 0 325 -130q125 -131 125 -331zM605 258q0 -87 -61 -169
q-68 -89 -151 -89q-107 0 -107 136q0 84 62 166q67 87 149 87q108 0 108 -131z" />
    <glyph glyph-name="at" unicode="@" horiz-adv-x="999" 
d="M1220 1018q0 -98 -27 -198q-62 -231 -230 -411q-192 -204 -408 -204q-165 0 -256 126q-82 112 -82 283q0 225 128 445q89 153 226 257q157 119 313 119q169 0 258 -129q78 -113 78 -288zM1023 945q0 108 -46 176q-54 79 -156 79q-161 0 -288 -175q-118 -160 -118 -329
q0 -67 18 -119l307 560h129l5 -561q149 163 149 369zM738 746l-2 134l-72 -134h74zM739 472l-1 129h-154l-53 -96l-89 49q51 -114 176 -114q55 0 121 32z" />
    <glyph glyph-name="A" unicode="A" horiz-adv-x="921" 
d="M1053 -278l-318 -134l-6 650h-443l-136 -247l-244 135l822 1514h313zM728 587l-3 459l-251 -459h254z" />
    <glyph glyph-name="B" unicode="B" horiz-adv-x="1191" 
d="M1471 1310q0 -127 -68 -258q-64 -123 -169 -207q78 -86 78 -221q0 -75 -23 -162q-47 -176 -189 -312q-155 -150 -324 -150h-713l439 1640h681q134 0 214 -99q74 -94 74 -231zM1139 1172q0 80 -58 80h-379l-63 -237h377q49 0 88 55q35 50 35 102zM1003 545q0 81 -61 81
h-408l-64 -238h409q49 0 88 55q36 49 36 102z" />
    <glyph glyph-name="C" unicode="C" horiz-adv-x="999" 
d="M1375 1640l-104 -388h-321q-133 0 -263 -126q-90 -87 -142 -206q-55 -122 -55 -245q0 -120 53 -199q60 -88 176 -88h321l-104 -388h-321q-218 0 -339 169q-108 150 -108 376q0 314 184 613q122 198 296 329q202 153 406 153h321z" />
    <glyph glyph-name="D" unicode="D" horiz-adv-x="1153" 
d="M1422 1092q0 -299 -171 -591q-121 -205 -297 -341q-206 -160 -415 -160h-476l439 1640h476q216 0 337 -172q107 -152 107 -376zM1101 961q0 122 -51 200q-61 91 -176 91h-172l-232 -864h173q183 0 326 200q132 183 132 373z" />
    <glyph glyph-name="E" unicode="E" horiz-adv-x="1076" 
d="M1450 1640l-104 -388h-644l-63 -237h491l-105 -389h-491l-64 -238h645l-104 -388h-948l439 1640h948z" />
    <glyph glyph-name="F" unicode="F" horiz-adv-x="1015" 
d="M1450 1640l-104 -388h-644l-63 -237h491l-105 -389h-491l-169 -626h-302l439 1640h948z" />
    <glyph glyph-name="G" unicode="G" horiz-adv-x="1153" 
d="M1527 1640l-104 -389h-473q-150 0 -282 -146q-116 -128 -159 -287q-20 -78 -20 -146q0 -122 53 -199q60 -89 176 -89h172l64 239h-184l104 390h485l-380 -1420h-301l108 403h-172q-217 0 -339 170q-107 151 -107 377q0 301 172 593q122 206 299 343q206 161 415 161h473z
" />
    <glyph glyph-name="H" unicode="H" 
d="M1605 1640l-440 -1640h-302l167 626h-496l-169 -626h-302l439 1640h303l-166 -625h496l167 625h303z" />
    <glyph glyph-name="I" unicode="I" horiz-adv-x="430" 
d="M805 1640l-440 -1640h-302l439 1640h303z" />
    <glyph glyph-name="J" unicode="J" horiz-adv-x="692" 
d="M1067 1640l-356 -1329q-73 -273 -273 -482q-224 -236 -483 -236l103 389q122 2 225 107q91 94 126 222l357 1329h301z" />
    <glyph glyph-name="K" unicode="K" 
d="M1537 1370l-673 -653l422 -854l-285 -278l-423 853l-128 -125l-86 -317h-302l440 1644h303l-205 -771l799 779z" />
    <glyph glyph-name="L" unicode="L" horiz-adv-x="999" 
d="M1115 388l-104 -388h-948l439 1640h303l-335 -1252h645z" />
    <glyph glyph-name="M" unicode="M" horiz-adv-x="1314" 
d="M1582 1640l-269 -1981l-315 -69l181 1340l-487 -784l-67 785l-393 -974l-276 66l648 1617h292l47 -556l347 556h292z" />
    <glyph glyph-name="N" unicode="N" 
d="M1605 1640l-440 -1640h-296l-257 915l-247 -915h-302l439 1640h298l257 -914l245 914h303z" />
    <glyph glyph-name="O" unicode="O" 
d="M1501 1095q0 -307 -183 -610q-61 -100 -134 -182.5t-161 -148.5q-202 -154 -408 -154q-217 0 -339 170q-107 151 -107 377q0 309 181 607q122 200 296 331q203 155 408 155q259 0 379 -243q68 -138 68 -302zM1178 961q0 123 -52 200q-60 91 -176 91q-149 0 -282 -145
q-115 -127 -159 -287q-19 -72 -19 -145q0 -120 53 -199q60 -88 176 -88q183 0 327 200q132 183 132 373z" />
    <glyph glyph-name="P" unicode="P" horiz-adv-x="1168" 
d="M1468 1230q0 -227 -130 -448q-89 -153 -225 -257q-154 -121 -313 -121h-326l-109 -404h-302l439 1640h629q163 0 255 -128q82 -112 82 -282zM1146 1094q0 158 -119 158h-325l-123 -460h325q95 0 171 106q71 98 71 196z" />
    <glyph glyph-name="Q" unicode="Q" horiz-adv-x="1268" 
d="M1501 1094q0 -240 -119 -490q-58 -121 -132.5 -222.5t-168.5 -183.5l166 -335l-285 -278l-214 428q-34 -8 -67 -12.5t-67 -4.5q-217 0 -339 170q-107 152 -107 378q0 322 193 627q120 192 294 320q200 149 399 149q258 0 379 -244q68 -138 68 -302zM1177 959
q0 122 -51 200q-60 92 -176 92q-148 0 -282 -146q-115 -127 -159 -287q-20 -78 -20 -146q0 -122 53 -199q60 -89 176 -89q183 0 327 201q132 183 132 374z" />
    <glyph glyph-name="R" unicode="R" horiz-adv-x="1191" 
d="M1467 1230q0 -261 -169 -509q-179 -266 -424 -313l269 -543l-286 -280l-391 790l-102 -379h-302l440 1644h629q163 0 255 -128q81 -113 81 -282zM1145 1093q0 158 -118 158h-325l-124 -462h325q96 0 172 106q70 98 70 198z" />
    <glyph glyph-name="S" unicode="S" horiz-adv-x="653" 
d="M1021 1733l-58 -399q-225 0 -260 -110q-16 -48 -16 -130q0 -45 8 -111.5t24 -155.5q33 -176 33 -267q0 -293 -197 -469q-186 -165 -483 -181l41 396q245 8 278 110q18 55 18 141q0 45 -8.5 111.5t-25.5 154.5q-33 175 -33 266q0 285 200 464q187 166 479 180z" />
    <glyph glyph-name="T" unicode="T" horiz-adv-x="1076" 
d="M1527 1640l-104 -388h-399l-335 -1252h-303l337 1252h-401l104 388h1101z" />
    <glyph glyph-name="U" unicode="U" horiz-adv-x="1153" 
d="M1568 1640l-247 -920q-45 -166 -140 -317q-106 -165 -256 -276q-173 -127 -348 -127q-191 0 -297 147q-96 130 -96 327q0 114 35 246l246 920h303l-246 -920q-16 -54 -16 -110q0 -94 40 -153q46 -69 135 -69q115 0 216 111q89 100 122 221l246 920h303z" />
    <glyph glyph-name="V" unicode="V" horiz-adv-x="921" 
d="M1643 1921l-1041 -1921h-314l-12 1513l320 137l8 -1055l792 1460z" />
    <glyph glyph-name="W" unicode="W" horiz-adv-x="1414" 
d="M2136 1921l-1041 -1921h-313l-3 326l-177 -326h-314l-12 1513l320 137l9 -1057l169 312l-5 608l319 137l1 -166l91 166l245 -137l-331 -608l3 -310l792 1460z" />
    <glyph glyph-name="X" unicode="X" horiz-adv-x="1039" 
d="M1447 1469l-519 -651l268 -1007l-305 -226l-237 890l-446 -552l-185 223l541 672l-178 681l306 227l146 -563l426 533z" />
    <glyph glyph-name="Y" unicode="Y" horiz-adv-x="996" 
d="M1585 1421l-1472 -1836l-181 226l586 736l-228 874l304 227l199 -758l607 758z" />
    <glyph glyph-name="Z" unicode="Z" 
d="M1612 1640l-908 -1252h565l-104 -388h-1108l908 1252h-567l104 388h1110z" />
    <glyph glyph-name="bracketleft" unicode="[" horiz-adv-x="738" 
d="M1169 1845l-104 -389h-308l-343 -1272h310l-103 -386h-612l549 2047h611z" />
    <glyph glyph-name="backslash" unicode="\" horiz-adv-x="788" 
d="M783 -73l-322 -136l-17 1925l322 136z" />
    <glyph glyph-name="bracketright" unicode="]" horiz-adv-x="738" 
d="M1169 1845l-548 -2047h-612l103 386h308l342 1272h-309l105 389h611z" />
    <glyph glyph-name="asciicircum" unicode="^" horiz-adv-x="692" 
d="M1075 1521l-119 -193l-227 98l-281 -98l-18 193l291 119h129z" />
    <glyph glyph-name="underscore" unicode="_" horiz-adv-x="692" 
d="M673 -120l-77 -287h-717l77 287h717z" />
    <glyph glyph-name="grave" unicode="`" horiz-adv-x="596" 
d="M1068 1856l-49 -113h-527l85 312z" />
    <glyph glyph-name="a" unicode="a" horiz-adv-x="829" 
d="M950 -249l-291 -122l-4 584h-398l-122 -222l-219 123l738 1362h284zM656 530l-5 406l-223 -406h228z" />
    <glyph glyph-name="b" unicode="b" horiz-adv-x="1071" 
d="M1326 1179q0 -117 -61 -232q-59 -111 -153 -186q70 -77 70 -201q0 -195 -143 -373q-151 -187 -341 -187h-641l395 1476h614q122 0 194 -90q66 -83 66 -207zM1025 1051q0 74 -51 74h-342l-56 -211h340q42 0 77 48q32 44 32 89zM902 491q0 71 -51 71h-371l-56 -211h368
q44 0 78 49q32 47 32 91z" />
    <glyph glyph-name="c" unicode="c" horiz-adv-x="899" 
d="M1237 1476l-94 -351h-288q-164 0 -293 -179q-119 -164 -119 -335q0 -111 46 -179q55 -81 159 -81h288l-94 -351h-288q-197 0 -307 152q-97 133 -97 338q0 281 166 552q109 178 267 297q182 137 366 137h288z" />
    <glyph glyph-name="d" unicode="d" horiz-adv-x="1037" 
d="M1281 983q0 -280 -165 -551q-110 -180 -265 -296q-181 -136 -367 -136h-427l395 1476h428q195 0 304 -154q97 -136 97 -339zM990 866q0 110 -46 178q-54 81 -158 81h-154l-208 -774h155q164 0 293 180q118 163 118 335z" />
    <glyph glyph-name="e" unicode="e" horiz-adv-x="968" 
d="M1306 1476l-94 -351h-580l-56 -211h443l-95 -352h-444l-56 -211h581l-94 -351h-854l395 1476h854z" />
    <glyph glyph-name="f" unicode="f" horiz-adv-x="914" 
d="M1306 1476l-94 -351h-580l-56 -211h443l-95 -352h-444l-150 -562h-273l395 1476h854z" />
    <glyph glyph-name="g" unicode="g" horiz-adv-x="1037" 
d="M1376 1476l-94 -352h-427q-164 0 -293 -180q-120 -165 -120 -336q0 -110 46 -180q55 -81 159 -81h153l57 212h-166l94 353h440l-342 -1278h-275l98 362h-153q-197 0 -306 151q-97 134 -97 339q0 272 155 537q110 186 269 309q187 144 375 144h427z" />
    <glyph glyph-name="h" unicode="h" horiz-adv-x="1107" 
d="M1445 1476l-395 -1476h-274l150 562h-446l-150 -562h-273l395 1476h274l-150 -562h445l150 562h274z" />
    <glyph glyph-name="i" unicode="i" horiz-adv-x="387" 
d="M726 1476l-396 -1476h-273l395 1476h274z" />
    <glyph glyph-name="j" unicode="j" horiz-adv-x="623" 
d="M961 1476l-320 -1196q-66 -247 -245 -434q-203 -212 -436 -212l93 352q110 2 201 95q83 86 113 199l321 1196h273z" />
    <glyph glyph-name="k" unicode="k" horiz-adv-x="1107" 
d="M1383 1233l-604 -588l380 -768l-258 -251l-380 767l-115 -110l-77 -287h-273l396 1480h274l-185 -691l719 699z" />
    <glyph glyph-name="l" unicode="l" horiz-adv-x="899" 
d="M1005 351l-94 -351h-854l395 1476h274l-302 -1125h581z" />
    <glyph glyph-name="m" unicode="m" horiz-adv-x="1182" 
d="M1424 1476l-241 -1782l-286 -63l162 1202l-438 -705l-59 704l-351 -871l-250 60l582 1455h265l41 -497l310 497h265z" />
    <glyph glyph-name="n" unicode="n" horiz-adv-x="1107" 
d="M1445 1476l-395 -1476h-268l-232 818l-220 -818h-273l395 1476h269l231 -818l219 818h274z" />
    <glyph glyph-name="o" unicode="o" horiz-adv-x="1107" 
d="M1351 981q0 -278 -165 -548q-55 -90 -121 -163.5t-145 -132.5q-182 -137 -366 -137q-198 0 -307 151q-97 133 -97 338q0 271 155 536q107 183 270 308q187 143 374 143q195 0 305 -155q97 -137 97 -340zM1059 866q0 110 -46 178q-54 81 -158 81q-165 0 -292 -178
q-120 -165 -120 -335q0 -110 46 -180q55 -81 159 -81q164 0 293 180q118 163 118 335z" />
    <glyph glyph-name="p" unicode="p" horiz-adv-x="1052" 
d="M1320 1097q0 -86 -24 -177q-54 -208 -207 -371q-173 -186 -369 -186h-293l-97 -363h-273l395 1476h566q153 0 232 -118q70 -101 70 -261zM1031 985q0 140 -107 140h-292l-110 -411h292q85 0 154 95q63 88 63 176z" />
    <glyph glyph-name="q" unicode="q" horiz-adv-x="1141" 
d="M1351 979q0 -221 -105 -438q-101 -212 -272 -362l150 -302l-259 -251l-192 385q-62 -15 -120 -15q-197 0 -307 152q-96 135 -96 339q0 295 178 573q109 172 264 285q179 131 357 131q195 0 305 -156q97 -137 97 -341zM1059 865q0 110 -46 178q-54 81 -158 81
q-164 0 -293 -180q-120 -165 -120 -336q0 -110 46 -180q55 -81 159 -81q165 0 294 181q118 166 118 337z" />
    <glyph glyph-name="r" unicode="r" horiz-adv-x="1071" 
d="M1319 1096q0 -229 -152 -452q-161 -237 -378 -277l241 -488l-258 -253l-352 709l-91 -339h-273l396 1480h566q152 0 232 -119q69 -102 69 -261zM1030 984q0 140 -106 140h-292l-111 -413h292q85 0 154 96q63 88 63 177z" />
    <glyph glyph-name="s" unicode="s" horiz-adv-x="587" 
d="M919 1558l-51 -359q-205 0 -235 -98q-14 -48 -14 -113q0 -41 7.5 -100.5t21.5 -140.5q30 -159 30 -242q0 -443 -454 -561q-87 -23 -159 -23l35 356q222 11 249 98q17 57 17 130q0 80 -30 238q-30 157 -30 239q0 214 123 360q118 139 332 193q86 23 158 23z" />
    <glyph glyph-name="t" unicode="t" horiz-adv-x="968" 
d="M1376 1476l-94 -351h-360l-301 -1125h-274l301 1125h-360l94 351h994z" />
    <glyph glyph-name="u" unicode="u" horiz-adv-x="1037" 
d="M1410 1476l-222 -828q-64 -242 -241 -433q-200 -215 -429 -215q-178 0 -271 133q-81 115 -81 301q0 111 28 214l222 828h276l-223 -828q-13 -48 -13 -98q0 -84 35 -137q42 -62 121 -62q102 0 193 100q81 90 109 197l222 828h274z" />
    <glyph glyph-name="v" unicode="v" horiz-adv-x="829" 
d="M1480 1729l-937 -1729h-285l-9 1362l288 124l8 -945l709 1309z" />
    <glyph glyph-name="w" unicode="w" horiz-adv-x="1273" 
d="M1924 1729l-938 -1729h-284l-2 289l-157 -289h-285l-9 1362l288 124l9 -947l150 276l-5 547l289 124l2 -145l79 145l224 -124l-299 -547l3 -274l710 1309z" />
    <glyph glyph-name="x" unicode="x" horiz-adv-x="935" 
d="M1304 1321l-467 -585l243 -904l-278 -206l-212 800l-404 -496l-167 202l486 604l-159 612l276 206l135 -506l381 479z" />
    <glyph glyph-name="y" unicode="y" horiz-adv-x="896" 
d="M1428 1278l-1326 -1652l-164 206l526 658l-204 788l274 206l181 -680l545 680z" />
    <glyph glyph-name="z" unicode="z" horiz-adv-x="1107" 
d="M1451 1476l-815 -1125h508l-94 -351h-1000l816 1125h-508l94 351h999z" />
    <glyph glyph-name="braceleft" unicode="{" horiz-adv-x="830" 
d="M1260 1845l-104 -389h-274q-33 0 -46 -49l-103 -384q-41 -153 -163 -203q63 -33 63 -133q0 -36 -9 -70l-103 -385q-4 -13 -4 -24q0 -24 24 -24h274l-103 -386h-321q-100 0 -155 76q-51 69 -51 170q0 60 18 128l92 345q9 34 9 65q0 125 -112 125l61 227q73 0 132 60
q54 54 73 129l93 345q42 157 153 265q115 112 236 112h320z" />
    <glyph glyph-name="bar" unicode="|" horiz-adv-x="430" 
d="M860 1845l-549 -2047h-302l549 2047h302z" />
    <glyph glyph-name="braceright" unicode="}" horiz-adv-x="830" 
d="M1085 1590q0 -57 -17 -122l-92 -345q-9 -35 -9 -64q0 -125 111 -125l-61 -227q-74 0 -132 -60q-53 -54 -72 -130l-92 -345q-40 -152 -157 -263q-116 -111 -234 -111h-321l103 386h275q32 0 46 48l104 385q41 153 163 203q-63 33 -63 134q0 34 9 69l103 384q4 13 4 25
q0 24 -24 24h-276l105 389h321q100 0 156 -80q50 -71 50 -175z" />
    <glyph glyph-name="asciitilde" unicode="~" horiz-adv-x="769" 
d="M1186 1657l-70 -263q-133 -103 -270 -103q-46 0 -107 48q-60 48 -99 48q-121 0 -273 -113l71 264q136 102 270 102q46 0 106 -48q61 -47 99 -47q125 0 273 112z" />
    <glyph glyph-name="quotesinglbase" horiz-adv-x="353" 
d="M384 239q0 -14 -2 -28.5t-6 -30.5q-25 -94 -106 -224q-97 -156 -166 -158q67 97 67 161q0 21 -4 34q-100 6 -100 131q0 83 62 162q66 83 147 83q108 0 108 -130z" />
    <glyph glyph-name="quotesinglbase" unicode="&#x201a;" horiz-adv-x="353" 
d="M384 239q0 -14 -2 -28.5t-6 -30.5q-25 -94 -106 -224q-97 -156 -166 -158q67 97 67 161q0 21 -4 34q-100 6 -100 131q0 83 62 162q66 83 147 83q108 0 108 -130z" />
    <glyph glyph-name="quotedblbase" horiz-adv-x="662" 
d="M692 239q0 -14 -2 -28.5t-6 -30.5q-25 -95 -106 -224q-97 -156 -167 -158q68 98 68 164q0 19 -4 31q-101 6 -101 132q0 82 62 161q66 83 148 83q108 0 108 -130zM384 239q0 -14 -2 -28.5t-6 -30.5q-25 -94 -106 -224q-97 -156 -166 -158q67 97 67 161q0 21 -4 34
q-100 6 -100 131q0 83 62 162q66 83 147 83q108 0 108 -130z" />
    <glyph glyph-name="quotedblbase" unicode="&#x201e;" horiz-adv-x="662" 
d="M692 239q0 -14 -2 -28.5t-6 -30.5q-25 -95 -106 -224q-97 -156 -167 -158q68 98 68 164q0 19 -4 31q-101 6 -101 132q0 82 62 161q66 83 148 83q108 0 108 -130zM384 239q0 -14 -2 -28.5t-6 -30.5q-25 -94 -106 -224q-97 -156 -166 -158q67 97 67 161q0 21 -4 34
q-100 6 -100 131q0 83 62 162q66 83 147 83q108 0 108 -130z" />
    <glyph glyph-name="ellipsis" unicode="&#x85;" horiz-adv-x="968" 
d="M999 242q0 -84 -61 -160q-64 -82 -146 -82q-53 0 -83 40q-27 36 -27 91q0 81 63 158q66 80 146 80q108 0 108 -127zM693 241q0 -83 -62 -160q-65 -81 -147 -81q-54 0 -82 40q-27 37 -27 91q0 81 62 158q66 80 147 80q109 0 109 -128zM385 241q0 -83 -62 -160
q-65 -81 -146 -81q-109 0 -109 130q0 82 62 159q66 80 146 80q109 0 109 -128z" />
    <glyph glyph-name="ellipsis" unicode="&#x2026;" horiz-adv-x="968" 
d="M999 242q0 -84 -61 -160q-64 -82 -146 -82q-53 0 -83 40q-27 36 -27 91q0 81 63 158q66 80 146 80q108 0 108 -127zM693 241q0 -83 -62 -160q-65 -81 -147 -81q-54 0 -82 40q-27 37 -27 91q0 81 62 158q66 80 147 80q109 0 109 -128zM385 241q0 -83 -62 -160
q-65 -81 -146 -81q-109 0 -109 130q0 82 62 159q66 80 146 80q109 0 109 -128z" />
    <glyph glyph-name="circumflex" horiz-adv-x="692" 
d="M1185 1931l-120 -192l-227 97l-280 -97l-17 192l290 119h129z" />
    <glyph glyph-name="circumflex" unicode="&#x2c6;" horiz-adv-x="692" 
d="M1185 1931l-120 -192l-227 97l-280 -97l-17 192l290 119h129z" />
    <glyph glyph-name="perthousand" horiz-adv-x="2124" 
d="M2228 548q0 -185 -131 -361q-141 -188 -319 -188q-114 0 -174 83q-52 73 -52 193q0 186 129 365q139 192 321 192q114 0 174 -89q52 -76 52 -195zM1011 1361q0 -187 -129 -362q-140 -191 -319 -191q-115 0 -175 85q-53 74 -53 193q0 188 129 364q141 192 322 192
q113 0 173 -86q52 -76 52 -195zM1608 1716l-1048 -1925l-249 136l1049 1925zM1583 548q0 -186 -132 -361q-141 -188 -319 -188q-115 0 -173 84q-52 73 -52 193q0 187 129 364q139 192 320 192q114 0 174 -88q53 -77 53 -196zM2007 464q0 101 -77 101q-63 0 -112 -70
q-45 -65 -45 -129q0 -101 77 -101q62 0 111 70q46 64 46 129zM792 1274q0 101 -77 101q-62 0 -111 -70q-45 -65 -45 -128q0 -102 76 -102q62 0 111 70q46 64 46 129zM1361 464q0 101 -77 101q-62 0 -111 -70q-46 -64 -46 -128q0 -102 77 -102q63 0 112 70q45 64 45 129z" />
    <glyph glyph-name="perthousand" unicode="&#x2030;" horiz-adv-x="2124" 
d="M2228 548q0 -185 -131 -361q-141 -188 -319 -188q-114 0 -174 83q-52 73 -52 193q0 186 129 365q139 192 321 192q114 0 174 -89q52 -76 52 -195zM1011 1361q0 -187 -129 -362q-140 -191 -319 -191q-115 0 -175 85q-53 74 -53 193q0 188 129 364q141 192 322 192
q113 0 173 -86q52 -76 52 -195zM1608 1716l-1048 -1925l-249 136l1049 1925zM1583 548q0 -186 -132 -361q-141 -188 -319 -188q-115 0 -173 84q-52 73 -52 193q0 187 129 364q139 192 320 192q114 0 174 -88q53 -77 53 -196zM2007 464q0 101 -77 101q-63 0 -112 -70
q-45 -65 -45 -129q0 -101 77 -101q62 0 111 70q46 64 46 129zM792 1274q0 101 -77 101q-62 0 -111 -70q-45 -65 -45 -128q0 -102 76 -102q62 0 111 70q46 64 46 129zM1361 464q0 101 -77 101q-62 0 -111 -70q-46 -64 -46 -128q0 -102 77 -102q63 0 112 70q45 64 45 129z" />
    <glyph glyph-name="Scaron" horiz-adv-x="653" 
d="M1172 1951l-292 -127h-129l-223 127l124 205l225 -104l282 104zM1022 1738l-58 -401q-226 0 -260 -109q-16 -51 -16 -132q0 -45 8 -111.5t24 -155.5t24 -155.5t8 -112.5q0 -294 -197 -470q-186 -165 -483 -181l41 397q248 8 279 110q17 56 17 142q0 90 -33 266
q-33 175 -33 266q0 240 136 401q131 155 367 218q89 23 176 28z" />
    <glyph glyph-name="Scaron" unicode="&#x160;" horiz-adv-x="653" 
d="M1172 1951l-292 -127h-129l-223 127l124 205l225 -104l282 104zM1022 1738l-58 -401q-226 0 -260 -109q-16 -51 -16 -132q0 -45 8 -111.5t24 -155.5t24 -155.5t8 -112.5q0 -294 -197 -470q-186 -165 -483 -181l41 397q248 8 279 110q17 56 17 142q0 90 -33 266
q-33 175 -33 266q0 240 136 401q131 155 367 218q89 23 176 28z" />
    <glyph glyph-name="guilsinglleft" horiz-adv-x="546" 
d="M858 1230l-348 -410l129 -410h-306l-128 410l348 410h305z" />
    <glyph glyph-name="guilsinglleft" unicode="&#x2039;" horiz-adv-x="546" 
d="M858 1230l-348 -410l129 -410h-306l-128 410l348 410h305z" />
    <glyph glyph-name="OE" horiz-adv-x="1953" 
d="M2327 1640l-104 -388h-646l-64 -237h493l-105 -389h-493l-63 -238h647l-104 -388h-948l32 119q-182 -119 -357 -119q-218 0 -339 169q-107 151 -107 377q0 309 179 605q121 201 297 333q202 156 409 156q174 0 293 -120l32 120h948zM1178 961q0 123 -52 200
q-60 91 -176 91q-149 0 -282 -145q-115 -127 -159 -287q-19 -72 -19 -145q0 -120 53 -199q60 -88 176 -88q183 0 327 200q132 183 132 373z" />
    <glyph glyph-name="OE" unicode="&#x152;" horiz-adv-x="1953" 
d="M2327 1640l-104 -388h-646l-64 -237h493l-105 -389h-493l-63 -238h647l-104 -388h-948l32 119q-182 -119 -357 -119q-218 0 -339 169q-107 151 -107 377q0 309 179 605q121 201 297 333q202 156 409 156q174 0 293 -120l32 120h948zM1178 961q0 123 -52 200
q-60 91 -176 91q-149 0 -282 -145q-115 -127 -159 -287q-19 -72 -19 -145q0 -120 53 -199q60 -88 176 -88q183 0 327 200q132 183 132 373z" />
    <glyph glyph-name="quoteleft" horiz-adv-x="353" 
d="M673 1313q0 -83 -62 -163q-66 -84 -149 -84q-108 0 -108 132q0 89 99 259q106 181 183 183q-69 -98 -69 -161q0 -24 4 -36q102 -5 102 -130z" />
    <glyph glyph-name="quoteleft" unicode="&#x2018;" horiz-adv-x="353" 
d="M673 1313q0 -83 -62 -163q-66 -84 -149 -84q-108 0 -108 132q0 89 99 259q106 181 183 183q-69 -98 -69 -161q0 -24 4 -36q102 -5 102 -130z" />
    <glyph glyph-name="quoteright" horiz-adv-x="353" 
d="M725 1509q0 -33 -7 -58q-23 -91 -107 -226q-98 -158 -168 -159q68 98 68 162q0 20 -4 35q-100 6 -100 132q0 82 62 162q68 83 148 83q108 0 108 -131z" />
    <glyph glyph-name="quoteright" unicode="&#x2019;" horiz-adv-x="353" 
d="M725 1509q0 -33 -7 -58q-23 -91 -107 -226q-98 -158 -168 -159q68 98 68 162q0 20 -4 35q-100 6 -100 132q0 82 62 162q68 83 148 83q108 0 108 -131z" />
    <glyph glyph-name="quotedblleft" horiz-adv-x="662" 
d="M980 1313q0 -83 -62 -163q-66 -84 -148 -84q-108 0 -108 133q0 89 100 258q105 182 181 183q-68 -98 -68 -160q0 -24 4 -37q101 -5 101 -130zM673 1313q0 -83 -62 -163q-66 -84 -149 -84q-108 0 -108 132q0 89 99 259q106 181 183 183q-69 -98 -69 -161q0 -24 4 -36
q102 -5 102 -130z" />
    <glyph glyph-name="quotedblleft" unicode="&#x201c;" horiz-adv-x="662" 
d="M980 1313q0 -83 -62 -163q-66 -84 -148 -84q-108 0 -108 133q0 89 100 258q105 182 181 183q-68 -98 -68 -160q0 -24 4 -37q101 -5 101 -130zM673 1313q0 -83 -62 -163q-66 -84 -149 -84q-108 0 -108 132q0 89 99 259q106 181 183 183q-69 -98 -69 -161q0 -24 4 -36
q102 -5 102 -130z" />
    <glyph glyph-name="quotedblright" horiz-adv-x="662" 
d="M1032 1509q0 -33 -7 -58q-23 -91 -107 -226q-97 -157 -167 -159q68 98 68 163q0 19 -4 34q-100 6 -100 133q0 82 62 162q66 82 147 82q108 0 108 -131zM725 1509q0 -33 -7 -58q-23 -91 -107 -226q-98 -158 -168 -159q68 98 68 162q0 20 -4 35q-100 6 -100 132
q0 82 62 162q68 83 148 83q108 0 108 -131z" />
    <glyph glyph-name="quotedblright" unicode="&#x201d;" horiz-adv-x="662" 
d="M1032 1509q0 -33 -7 -58q-23 -91 -107 -226q-97 -157 -167 -159q68 98 68 163q0 19 -4 34q-100 6 -100 133q0 82 62 162q66 82 147 82q108 0 108 -131zM725 1509q0 -33 -7 -58q-23 -91 -107 -226q-98 -158 -168 -159q68 98 68 162q0 20 -4 35q-100 6 -100 132
q0 82 62 162q68 83 148 83q108 0 108 -131z" />
    <glyph glyph-name="bullet" horiz-adv-x="845" 
d="M1062 988q0 -230 -161 -447q-173 -234 -397 -234q-141 0 -216 106q-65 94 -65 241q0 230 161 445q174 233 396 233q142 0 216 -105q66 -92 66 -239z" />
    <glyph glyph-name="bullet" unicode="&#x2022;" horiz-adv-x="845" 
d="M1062 988q0 -230 -161 -447q-173 -234 -397 -234q-141 0 -216 106q-65 94 -65 241q0 230 161 445q174 233 396 233q142 0 216 -105q66 -92 66 -239z" />
    <glyph glyph-name="endash" horiz-adv-x="769" 
d="M963 964l-77 -287h-642l77 287h642z" />
    <glyph glyph-name="endash" unicode="&#x2013;" horiz-adv-x="769" 
d="M963 964l-77 -287h-642l77 287h642z" />
    <glyph glyph-name="emdash" horiz-adv-x="999" 
d="M1194 964l-77 -287h-873l77 287h873z" />
    <glyph glyph-name="emdash" unicode="&#x2014;" horiz-adv-x="999" 
d="M1194 964l-77 -287h-873l77 287h873z" />
    <glyph glyph-name="tilde" horiz-adv-x="769" 
d="M1324 2169l-71 -262q-133 -103 -270 -103q-46 0 -106 48t-99 48q-122 0 -274 -113l72 263q136 102 269 102q46 0 106 -48q62 -47 100 -47q125 0 273 112z" />
    <glyph glyph-name="tilde" unicode="&#x2dc;" horiz-adv-x="769" 
d="M1324 2169l-71 -262q-133 -103 -270 -103q-46 0 -106 48t-99 48q-122 0 -274 -113l72 263q136 102 269 102q46 0 106 -48q62 -47 100 -47q125 0 273 112z" />
    <glyph glyph-name="trademark" horiz-adv-x="936" 
d="M1251 1640l-99 -742l-134 -30l63 472l-176 -278l-25 278l-136 -336l-119 29l183 449h-105l-124 -462h-130l125 462h-151l42 158h528l16 -190l119 190h123z" />
    <glyph glyph-name="trademark" unicode="&#x2122;" horiz-adv-x="936" 
d="M1251 1640l-99 -742l-134 -30l63 472l-176 -278l-25 278l-136 -336l-119 29l183 449h-105l-124 -462h-130l125 462h-151l42 158h528l16 -190l119 190h123z" />
    <glyph glyph-name="scaron" horiz-adv-x="587" 
d="M1056 1754l-263 -114h-117l-203 114l113 187l204 -94l255 94zM920 1563l-51 -361q-205 0 -235 -97q-14 -48 -14 -115q0 -41 7.5 -100.5t21.5 -140.5q14 -80 21.5 -140t7.5 -102q0 -443 -454 -563q-87 -23 -159 -23l35 357q223 10 250 98q16 51 16 131t-30 238
q-30 157 -30 239q0 216 124 361q118 139 332 195q89 23 158 23z" />
    <glyph glyph-name="scaron" unicode="&#x161;" horiz-adv-x="587" 
d="M1056 1754l-263 -114h-117l-203 114l113 187l204 -94l255 94zM920 1563l-51 -361q-205 0 -235 -97q-14 -48 -14 -115q0 -41 7.5 -100.5t21.5 -140.5q14 -80 21.5 -140t7.5 -102q0 -443 -454 -563q-87 -23 -159 -23l35 357q223 10 250 98q16 51 16 131t-30 238
q-30 157 -30 239q0 216 124 361q118 139 332 195q89 23 158 23z" />
    <glyph glyph-name="guilsinglright" horiz-adv-x="546" 
d="M779 820l-347 -410h-305l346 410l-127 410h306z" />
    <glyph glyph-name="guilsinglright" unicode="&#x203a;" horiz-adv-x="546" 
d="M779 820l-347 -410h-305l346 410l-127 410h306z" />
    <glyph glyph-name="oe" horiz-adv-x="1758" 
d="M2096 1476l-94 -351h-581l-56 -211h443l-95 -352h-443l-56 -211h581l-94 -351h-856l29 105q-162 -105 -320 -105q-197 0 -307 152q-97 133 -97 338q0 277 162 546q109 181 268 301q182 139 369 139q157 0 264 -105l27 105h856zM1059 866q0 110 -46 178q-54 81 -158 81
q-165 0 -292 -178q-120 -165 -120 -335q0 -110 46 -180q55 -81 159 -81q164 0 293 180q118 163 118 335z" />
    <glyph glyph-name="oe" unicode="&#x153;" horiz-adv-x="1758" 
d="M2096 1476l-94 -351h-581l-56 -211h443l-95 -352h-443l-56 -211h581l-94 -351h-856l29 105q-162 -105 -320 -105q-197 0 -307 152q-97 133 -97 338q0 277 162 546q109 181 268 301q182 139 369 139q157 0 264 -105l27 105h856zM1059 866q0 110 -46 178q-54 81 -158 81
q-165 0 -292 -178q-120 -165 -120 -335q0 -110 46 -180q55 -81 159 -81q164 0 293 180q118 163 118 335z" />
    <glyph glyph-name="Ydieresis" horiz-adv-x="996" 
d="M1360 1937q0 -74 -52 -142q-56 -74 -125 -74q-91 0 -91 112q0 74 52 142q57 75 127 75q89 0 89 -113zM1038 1935q0 -71 -53 -141q-55 -73 -126 -73q-89 0 -89 111q0 72 51 143q55 75 126 75q91 0 91 -115zM1586 1424l-1473 -1839l-181 227l587 737l-228 875l304 228
l199 -759l607 759z" />
    <glyph glyph-name="Ydieresis" unicode="&#x178;" horiz-adv-x="996" 
d="M1360 1937q0 -74 -52 -142q-56 -74 -125 -74q-91 0 -91 112q0 74 52 142q57 75 127 75q89 0 89 -113zM1038 1935q0 -71 -53 -141q-55 -73 -126 -73q-89 0 -89 111q0 72 51 143q55 75 126 75q91 0 91 -115zM1586 1424l-1473 -1839l-181 227l587 737l-228 875l304 228
l199 -759l607 759z" />
    <glyph glyph-name="nonbreakingspace" unicode="&#xa0;" horiz-adv-x="692" 
 />
    <glyph glyph-name="exclamdown" unicode="&#xa1;" horiz-adv-x="430" 
d="M761 1508q0 -86 -61 -168q-66 -89 -149 -89q-109 0 -109 136q0 84 63 167q68 86 150 86q106 0 106 -132zM664 1113l-408 -1520h-301l406 1520h303z" />
    <glyph glyph-name="cent" unicode="&#xa2;" horiz-adv-x="815" 
d="M1184 1478l-85 -315h-257q-146 0 -260 -160q-106 -146 -106 -299q0 -96 43 -157q48 -70 140 -70h257l-85 -315h-253l-42 -162h-194l57 211q-184 112 -184 390q0 246 144 483q145 241 367 345l56 211h193l-44 -162h253z" />
    <glyph glyph-name="yen" unicode="&#xa5;" horiz-adv-x="1112" 
d="M1584 1421l-467 -583h204l-80 -300h-366l-21 -78h346l-81 -304h-346l-42 -156h-359l42 156h-356l81 304h356l22 78h-357l80 300h201l-151 583l304 227l200 -755l606 755z" />
    <glyph glyph-name="dieresis" unicode="&#xa8;" horiz-adv-x="631" 
d="M1118 1941q0 -70 -52 -132q-56 -66 -123 -66q-92 0 -92 107q0 71 52 133q55 67 123 67q92 0 92 -109zM796 1942q0 -70 -52 -132q-55 -67 -123 -67q-93 0 -93 107q0 69 54 134q54 66 122 66q92 0 92 -108z" />
    <glyph glyph-name="copyright" unicode="&#xa9;" horiz-adv-x="539" 
d="M608 403q0 -138 -100 -266q-107 -137 -240 -137q-86 0 -132 64q-41 56 -41 145q0 137 98 267q106 139 240 139q88 0 134 -64q41 -59 41 -148zM496 365q0 62 -32 97l-23 -86q-9 0 -27.5 1t-28.5 1q-20 0 -36 -8t-28 -21.5t-18.5 -31.5t-6.5 -38q0 -35 41 -41h67l-22 -83
q114 76 114 210zM458 467q-24 21 -59 21q-74 0 -136 -83q-56 -77 -56 -154q0 -122 96 -122q34 0 68 19h-63q-91 0 -91 110q0 71 52 138q56 71 124 71h65z" />
    <glyph glyph-name="guillemotleft" unicode="&#xab;" horiz-adv-x="899" 
d="M1211 1230l-347 -410l128 -410h-305l-128 410l347 410h305zM858 1230l-348 -410l129 -410h-306l-128 410l348 410h305z" />
    <glyph glyph-name="minus" unicode="&#xad;" horiz-adv-x="845" 
d="M1040 964l-77 -287h-719l77 287h719z" />
    <glyph glyph-name="registered" unicode="&#xae;" horiz-adv-x="539" 
d="M608 403q0 -138 -100 -266q-107 -137 -240 -137q-86 0 -132 64q-41 56 -41 145q0 137 98 267q106 139 240 139q88 0 134 -64q41 -59 41 -148zM496 365q0 123 -97 123q-36 0 -73 -23q95 0 107 -4q51 -14 51 -80q0 -47 -31 -93q-29 -45 -73 -62l26 -54q90 76 90 193z
M404 360q0 16 -16 16h-50l-18 -65h50q34 0 34 49zM271 414q-65 -82 -65 -168q0 -28 7 -49zM323 130l-33 66l-14 -50h-29q23 -17 50 -17h14q7 0 12 1z" />
    <glyph glyph-name="macron" unicode="&#xaf;" horiz-adv-x="845" 
d="M1221 1640l-77 -287h-719l77 287h719z" />
    <glyph glyph-name="degree" unicode="&#xb0;" horiz-adv-x="381" 
d="M749 1499q0 -91 -67 -176q-72 -89 -161 -89q-119 0 -119 141q0 91 67 176q72 89 161 89q119 0 119 -141zM641 1465q0 54 -43 54q-36 0 -63 -37q-26 -38 -26 -74q0 -54 45 -54q35 0 62 39q25 35 25 72z" />
    <glyph glyph-name="plusminus" unicode="&#xb1;" horiz-adv-x="845" 
d="M1077 1103l-82 -307h-239l-84 -313h-240l85 313h-241l82 307h241l84 311h239l-84 -311h239zM864 307l-82 -307h-719l82 307h719z" />
    <glyph glyph-name="acute" unicode="&#xb4;" horiz-adv-x="596" 
d="M1120 2055l-84 -312h-527l13 113z" />
    <glyph glyph-name="paragraph" unicode="&#xb6;" horiz-adv-x="1307" 
d="M1760 1640l-104 -388h-156l-335 -1252h-302l335 1252h-97l-335 -1252h-303l109 404q-157 4 -246 134q-78 112 -78 278q0 235 138 460q92 150 224 248q152 116 306 116h844zM799 1251q-93 -9 -163 -112q-66 -98 -66 -194q0 -143 106 -153z" />
    <glyph glyph-name="periodcentered" unicode="&#xb7;" horiz-adv-x="353" 
d="M556 877q0 -84 -63 -160q-65 -81 -146 -81q-109 0 -109 130q0 82 62 159q66 80 146 80q110 0 110 -128z" />
    <glyph glyph-name="guillemotright" unicode="&#xbb;" horiz-adv-x="899" 
d="M1132 820l-346 -410h-306l348 410l-128 410h305zM779 820l-347 -410h-305l346 410l-127 410h306z" />
    <glyph glyph-name="questiondown" unicode="&#xbf;" horiz-adv-x="1118" 
d="M1270 1508q0 -86 -61 -168q-66 -89 -149 -89q-108 0 -108 136q0 84 63 167q68 86 149 86q106 0 106 -132zM1173 1113l-160 -597h-289q-134 0 -241 -107t-107 -240q0 -45 15 -79.5t42 -58.5t65 -36.5t83 -12.5q173 0 289 158l257 -165q-115 -164 -282 -268
q-182 -114 -369 -114q-202 0 -326 130q-125 131 -125 330q0 312 238 574q244 267 552 274l56 212h302z" />
    <glyph glyph-name="Agrave" unicode="&#xc0;" horiz-adv-x="921" 
d="M1073 1843l-50 -122h-527l90 335zM1053 -278l-318 -134l-6 651h-443l-135 -247l-245 135l823 1517h313zM729 589l-3 460l-251 -460h254z" />
    <glyph glyph-name="Aacute" unicode="&#xc1;" horiz-adv-x="921" 
d="M1436 2056l-89 -335h-526l14 122zM1053 -278l-318 -134l-6 651h-443l-135 -247l-245 135l823 1517h313zM729 589l-3 460l-251 -460h254z" />
    <glyph glyph-name="Acircumflex" unicode="&#xc2;" horiz-adv-x="921" 
d="M1298 1922l-123 -205l-227 104l-280 -104l-14 205l292 128h129zM1053 -278l-318 -134l-6 651h-443l-135 -247l-245 135l823 1517h313zM729 589l-3 460l-251 -460h254z" />
    <glyph glyph-name="Atilde" unicode="&#xc3;" horiz-adv-x="921" 
d="M1401 2170l-75 -278q-134 -109 -272 -109q-47 0 -105 51q-59 51 -97 51q-125 0 -276 -120l75 279q136 108 272 108q46 0 105 -51q59 -50 98 -50q124 0 275 119zM1053 -278l-318 -134l-6 652h-443l-135 -248l-245 136l823 1517h313zM729 589l-3 461l-251 -461h254z" />
    <glyph glyph-name="Adieresis" unicode="&#xc4;" horiz-adv-x="921" 
d="M1262 1936q0 -73 -52 -141q-56 -74 -126 -74q-91 0 -91 113q0 71 53 142q56 74 126 74q90 0 90 -114zM940 1935q0 -71 -53 -141q-55 -73 -126 -73q-91 0 -91 113q0 71 53 142q56 74 126 74q91 0 91 -115zM1053 -278l-318 -134l-6 651h-443l-135 -247l-245 135l823 1517
h313zM729 589l-3 460l-251 -460h254z" />
    <glyph glyph-name="Aring" unicode="&#xc5;" horiz-adv-x="921" 
d="M1137 2009q0 -96 -67 -185q-72 -98 -163 -98q-116 0 -116 145q0 96 67 184q72 97 163 97q116 0 116 -143zM1053 -278l-318 -134l-6 652h-443l-135 -248l-245 136l823 1517h313zM1030 1970q0 56 -43 56q-37 0 -64 -42q-25 -37 -25 -76q0 -56 43 -56q35 0 64 42
q25 37 25 76zM729 589l-3 461l-251 -461h254z" />
    <glyph glyph-name="AE" unicode="&#xc6;" horiz-adv-x="1747" 
d="M2122 1640l-104 -389h-647l-64 -238h493l-104 -390h-493l-64 -239h647l-104 -388h-631l2 -274l-318 -134l-6 650h-443l-136 -247l-244 135l822 1514h313l2 -487l130 487h949zM728 587l-3 459l-251 -459h254z" />
    <glyph glyph-name="Egrave" unicode="&#xc8;" horiz-adv-x="1076" 
d="M1151 1843l-50 -121h-525l89 334zM1451 1645l-104 -389h-644l-64 -238h491l-104 -390h-491l-65 -239h645l-104 -389h-948l440 1645h948z" />
    <glyph glyph-name="Eacute" unicode="&#xc9;" horiz-adv-x="1076" 
d="M1514 2056l-89 -334h-526l14 121zM1451 1645l-104 -389h-644l-64 -238h491l-104 -390h-491l-65 -239h645l-104 -389h-948l440 1645h948z" />
    <glyph glyph-name="Ecircumflex" unicode="&#xca;" horiz-adv-x="1076" 
d="M1374 1922l-122 -204l-225 104l-282 -104l-15 204l293 128h129zM1451 1645l-104 -389h-644l-64 -238h491l-104 -390h-491l-65 -239h645l-104 -389h-948l440 1645h948z" />
    <glyph glyph-name="Edieresis" unicode="&#xcb;" horiz-adv-x="1076" 
d="M1339 1936q0 -73 -52 -141q-55 -73 -126 -73q-91 0 -91 111q0 74 52 142q57 75 127 75q90 0 90 -114zM1016 1936q0 -73 -52 -141q-55 -73 -126 -73q-90 0 -90 111q0 74 52 142q55 75 126 75q90 0 90 -114zM1451 1645l-104 -389h-644l-64 -238h491l-104 -390h-491
l-65 -239h645l-104 -389h-948l440 1645h948z" />
    <glyph glyph-name="Igrave" unicode="&#xcc;" horiz-adv-x="430" 
d="M829 1843l-50 -121h-525l89 334zM806 1645l-441 -1645h-302l440 1645h303z" />
    <glyph glyph-name="Iacute" unicode="&#xcd;" horiz-adv-x="430" 
d="M1192 2056l-89 -334h-526l13 121zM806 1645l-441 -1645h-302l440 1645h303z" />
    <glyph glyph-name="Icircumflex" unicode="&#xce;" horiz-adv-x="430" 
d="M1052 1922l-123 -204l-225 104l-281 -104l-15 204l293 128h129zM806 1645l-441 -1645h-302l440 1645h303z" />
    <glyph glyph-name="Idieresis" unicode="&#xcf;" horiz-adv-x="430" 
d="M1016 1936q0 -73 -52 -141q-55 -73 -126 -73q-90 0 -90 111q0 74 52 142q55 75 126 75q90 0 90 -114zM694 1936q0 -73 -52 -141q-55 -73 -126 -73q-91 0 -91 112q0 73 52 141q58 75 127 75q90 0 90 -114zM806 1645l-441 -1645h-302l440 1645h303z" />
    <glyph glyph-name="Ntilde" unicode="&#xd1;" 
d="M1556 2170l-76 -278q-136 -109 -272 -109q-46 0 -106 51q-59 51 -97 51q-124 0 -276 -119l74 278q138 108 273 108q46 0 105 -51q61 -50 99 -50q124 0 276 119zM1607 1646l-442 -1646h-296l-256 918l-248 -918h-302l441 1646h298l256 -918l246 918h303z" />
    <glyph glyph-name="Ograve" unicode="&#xd2;" 
d="M1229 1843l-51 -121h-526l89 334zM1502 1098q0 -307 -184 -611q-122 -200 -295 -333q-202 -154 -408 -154q-218 0 -339 171q-107 152 -107 378q0 306 182 608q61 100 134.5 183t161.5 149q202 156 408 156q259 0 379 -244q68 -138 68 -303zM1179 964q0 123 -52 200
q-60 92 -176 92q-148 0 -282 -146q-116 -129 -159 -288q-19 -72 -19 -146q0 -123 52 -199q60 -88 176 -88q183 0 327 200q133 184 133 375z" />
    <glyph glyph-name="Oacute" unicode="&#xd3;" 
d="M1592 2056l-90 -334h-526l14 121zM1502 1098q0 -307 -184 -611q-122 -200 -295 -333q-202 -154 -408 -154q-218 0 -339 171q-107 152 -107 378q0 306 182 608q61 100 134.5 183t161.5 149q202 156 408 156q259 0 379 -244q68 -138 68 -303zM1179 964q0 123 -52 200
q-60 92 -176 92q-148 0 -282 -146q-116 -129 -159 -288q-19 -72 -19 -146q0 -123 52 -199q60 -88 176 -88q183 0 327 200q133 184 133 375z" />
    <glyph glyph-name="Ocircumflex" unicode="&#xd4;" 
d="M1452 1922l-123 -204l-226 104l-281 -104l-15 204l293 128h129zM1502 1098q0 -307 -184 -611q-122 -200 -295 -333q-202 -154 -408 -154q-218 0 -339 171q-107 152 -107 378q0 306 182 608q61 100 134.5 183t161.5 149q202 156 408 156q259 0 379 -244q68 -138 68 -303z
M1179 964q0 123 -52 200q-60 92 -176 92q-148 0 -282 -146q-116 -129 -159 -288q-19 -72 -19 -146q0 -123 52 -199q60 -88 176 -88q183 0 327 200q133 184 133 375z" />
    <glyph glyph-name="Otilde" unicode="&#xd5;" 
d="M1556 2170l-76 -278q-136 -109 -272 -109q-46 0 -106 51q-59 51 -97 51q-124 0 -276 -119l74 278q138 108 273 108q46 0 105 -51q61 -50 99 -50q124 0 276 119zM1502 1099q0 -308 -184 -612q-122 -200 -295 -333q-202 -154 -408 -154q-218 0 -339 171q-107 152 -107 378
q0 307 182 609q122 200 297 332q202 156 408 156q258 0 378 -244q68 -138 68 -303zM1179 964q0 123 -52 200q-60 92 -176 92q-148 0 -282 -146q-115 -127 -159 -287q-19 -72 -19 -146q0 -123 52 -199q60 -89 176 -89q183 0 327 201q133 182 133 374z" />
    <glyph glyph-name="Odieresis" unicode="&#xd6;" 
d="M1416 1935q0 -72 -53 -140q-55 -73 -126 -73q-89 0 -89 111q0 72 52 142q55 75 125 75q91 0 91 -115zM1093 1936q0 -73 -52 -141q-55 -73 -126 -73q-90 0 -90 111q0 72 52 142q55 75 126 75q90 0 90 -114zM1502 1098q0 -307 -184 -611q-122 -200 -295 -333
q-202 -154 -408 -154q-218 0 -339 171q-107 152 -107 378q0 306 182 608q61 100 134.5 183t161.5 149q202 156 408 156q259 0 379 -244q68 -138 68 -303zM1179 964q0 123 -52 200q-60 92 -176 92q-148 0 -282 -146q-116 -129 -159 -288q-19 -72 -19 -146q0 -123 52 -199
q60 -88 176 -88q183 0 327 200q133 184 133 375z" />
    <glyph glyph-name="multiply" unicode="&#xd7;" horiz-adv-x="797" 
d="M1013 1039l-227 -219l110 -219l-225 -218l-112 220l-227 -220l-111 218l228 219l-111 219l228 217l110 -219l228 219z" />
    <glyph glyph-name="Oslash" unicode="&#xd8;" 
d="M1617 1385l-135 -130q17 -82 17 -165q0 -301 -179 -600q-61 -102 -134.5 -185t-160.5 -150q-205 -155 -410 -155q-182 0 -297 123l-136 -130l-130 262l134 130q-17 80 -17 166q0 300 179 598q61 102 134.5 185t161.5 150q204 156 410 156q178 0 297 -125l136 133z
M1052 1225q-50 27 -102 27q-182 0 -326 -199q-134 -183 -135 -373zM1179 960l-561 -546q49 -26 101 -26q182 0 326 199q132 182 134 373z" />
    <glyph glyph-name="Ugrave" unicode="&#xd9;" horiz-adv-x="1153" 
d="M1190 1843l-50 -121h-527l89 334zM1569 1645l-248 -923q-45 -167 -140 -318q-54 -85 -117.5 -153.5t-138.5 -123.5q-172 -127 -348 -127q-191 0 -297 147q-96 132 -96 328q0 115 35 247l247 923h303l-247 -923q-15 -53 -15 -110q0 -94 40 -153q46 -70 134 -70
q116 0 216 112q89 100 122 221l247 923h303z" />
    <glyph glyph-name="Uacute" unicode="&#xda;" horiz-adv-x="1153" 
d="M1554 2056l-90 -334h-526l14 121zM1569 1645l-248 -923q-45 -167 -140 -318q-54 -85 -117.5 -153.5t-138.5 -123.5q-172 -127 -348 -127q-191 0 -297 147q-96 132 -96 328q0 115 35 247l247 923h303l-247 -923q-15 -53 -15 -110q0 -94 40 -153q46 -70 134 -70
q116 0 216 112q89 100 122 221l247 923h303z" />
    <glyph glyph-name="Ucircumflex" unicode="&#xdb;" horiz-adv-x="1153" 
d="M1413 1922l-122 -204l-226 104l-282 -104l-15 204l293 128h129zM1569 1645l-248 -923q-45 -167 -140 -318q-54 -85 -117.5 -153.5t-138.5 -123.5q-172 -127 -348 -127q-191 0 -297 147q-96 132 -96 328q0 115 35 247l247 923h303l-247 -923q-15 -53 -15 -110
q0 -94 40 -153q46 -70 134 -70q116 0 216 112q89 100 122 221l247 923h303z" />
    <glyph glyph-name="Udieresis" unicode="&#xdc;" horiz-adv-x="1153" 
d="M1377 1936q0 -73 -52 -141q-55 -73 -126 -73q-91 0 -91 112q0 72 53 142q56 74 126 74q90 0 90 -114zM1054 1937q0 -73 -52 -141q-56 -74 -125 -74q-92 0 -92 112q0 71 53 142q57 74 127 74q89 0 89 -113zM1569 1645l-248 -923q-45 -167 -140 -318q-54 -85 -117.5 -153.5
t-138.5 -123.5q-172 -127 -348 -127q-191 0 -297 147q-96 132 -96 328q0 115 35 247l247 923h303l-247 -923q-15 -53 -15 -110q0 -94 40 -153q46 -70 134 -70q116 0 216 112q89 100 122 221l247 923h303z" />
    <glyph glyph-name="Yacute" unicode="&#xdd;" horiz-adv-x="996" 
d="M1473 2056l-89 -335h-524l13 122zM1586 1424l-1473 -1839l-181 227l587 737l-228 875l304 228l199 -759l607 759z" />
    <glyph glyph-name="agrave" unicode="&#xe0;" horiz-adv-x="829" 
d="M967 1659l-47 -112h-476l82 304zM950 -249l-291 -122l-4 585h-398l-122 -223l-219 124l739 1365h284zM656 532l-5 407l-223 -407h228z" />
    <glyph glyph-name="aacute" unicode="&#xe1;" horiz-adv-x="829" 
d="M1293 1851l-81 -304h-475l13 112zM950 -249l-291 -122l-4 585h-398l-122 -223l-219 124l739 1365h284zM656 532l-5 407l-223 -407h228z" />
    <glyph glyph-name="acircumflex" unicode="&#xe2;" horiz-adv-x="829" 
d="M1170 1730l-112 -187l-204 94l-255 -94l-12 187l264 115h117zM950 -249l-291 -122l-4 585h-398l-122 -223l-219 124l739 1365h284zM656 532l-5 407l-223 -407h228z" />
    <glyph glyph-name="atilde" unicode="&#xe3;" horiz-adv-x="829" 
d="M1262 1955l-68 -254q-125 -98 -247 -98q-42 0 -96 45q-52 46 -87 46q-109 0 -248 -109l68 254q125 98 245 98q42 0 94 -46q54 -45 89 -45q114 0 250 109zM950 -249l-291 -122l-3 586h-398l-122 -223l-220 124l740 1365h284zM656 532l-5 407l-223 -407h228z" />
    <glyph glyph-name="adieresis" unicode="&#xe4;" horiz-adv-x="829" 
d="M1137 1743q0 -66 -48 -129q-51 -67 -115 -67q-82 0 -82 104q0 64 48 127q52 67 114 67q83 0 83 -102zM846 1743q0 -66 -48 -129q-51 -67 -115 -67q-81 0 -81 103q0 65 48 128q51 67 113 67q83 0 83 -102zM950 -249l-291 -122l-4 585h-398l-122 -223l-219 124l739 1365
h284zM656 532l-5 407l-223 -407h228z" />
    <glyph glyph-name="aring" unicode="&#xe5;" horiz-adv-x="829" 
d="M1025 1807q0 -87 -61 -167q-66 -88 -149 -88q-106 0 -106 134q0 86 61 165q66 86 148 86q107 0 107 -130zM950 -249l-291 -122l-3 586h-398l-122 -223l-220 124l740 1365h284zM926 1773q0 48 -39 48q-31 0 -55 -34q-24 -33 -24 -66q0 -53 38 -53q32 0 57 37q23 35 23 68z
M656 532l-5 407l-223 -407h228z" />
    <glyph glyph-name="ae" unicode="&#xe6;" horiz-adv-x="1572" 
d="M1911 1476l-94 -352h-582l-57 -212h443l-95 -353h-442l-57 -212h582l-95 -351h-566l2 -245l-291 -122l-4 584h-398l-122 -222l-219 123l738 1362h284l2 -429l115 429h856zM656 530l-5 406l-223 -406h228z" />
    <glyph glyph-name="egrave" unicode="&#xe8;" horiz-adv-x="968" 
d="M1038 1659l-47 -111h-474l81 303zM1308 1481l-95 -352h-580l-57 -212h443l-94 -353h-444l-57 -212h581l-94 -352h-854l397 1481h854z" />
    <glyph glyph-name="eacute" unicode="&#xe9;" horiz-adv-x="968" 
d="M1365 1851l-81 -303h-476l13 111zM1308 1481l-95 -352h-580l-57 -212h443l-94 -353h-444l-57 -212h581l-94 -352h-854l397 1481h854z" />
    <glyph glyph-name="ecircumflex" unicode="&#xea;" horiz-adv-x="968" 
d="M1239 1730l-112 -186l-204 94l-255 -94l-12 186l264 115h117zM1308 1481l-95 -352h-580l-57 -212h443l-94 -353h-444l-57 -212h581l-94 -352h-854l397 1481h854z" />
    <glyph glyph-name="edieresis" unicode="&#xeb;" horiz-adv-x="968" 
d="M1207 1742q0 -66 -49 -128q-51 -66 -115 -66q-81 0 -81 102q0 64 47 128q51 67 114 67q84 0 84 -103zM915 1743q0 -66 -47 -128q-51 -67 -115 -67q-81 0 -81 102q0 64 47 128q51 67 114 67q82 0 82 -102zM1308 1481l-95 -352h-580l-57 -212h443l-94 -353h-444l-57 -212
h581l-94 -352h-854l397 1481h854z" />
    <glyph glyph-name="igrave" unicode="&#xec;" horiz-adv-x="387" 
d="M748 1659l-47 -111h-474l81 303zM728 1481l-398 -1481h-273l397 1481h274z" />
    <glyph glyph-name="iacute" unicode="&#xed;" horiz-adv-x="387" 
d="M1073 1851l-81 -303h-474l13 111zM728 1481l-398 -1481h-273l397 1481h274z" />
    <glyph glyph-name="icircumflex" unicode="&#xee;" horiz-adv-x="387" 
d="M949 1730l-112 -186l-205 94l-253 -94l-13 186l264 115h117zM728 1481l-398 -1481h-273l397 1481h274z" />
    <glyph glyph-name="idieresis" unicode="&#xef;" horiz-adv-x="387" 
d="M915 1743q0 -66 -47 -128q-51 -67 -115 -67q-81 0 -81 102q0 64 47 128q51 67 114 67q82 0 82 -102zM625 1743q0 -67 -48 -128q-51 -67 -116 -67q-79 0 -79 103q0 63 47 127q49 67 113 67q83 0 83 -102zM728 1481l-398 -1481h-273l397 1481h274z" />
    <glyph glyph-name="ntilde" unicode="&#xf1;" horiz-adv-x="1107" 
d="M1399 1955l-68 -254q-125 -98 -246 -98q-41 0 -95 45q-53 46 -88 46q-113 0 -249 -108l68 253q122 98 246 98q42 0 95 -46q54 -45 88 -45q112 0 249 109zM1447 1482l-397 -1482h-268l-231 822l-221 -822h-273l397 1482h269l230 -822l220 822h274z" />
    <glyph glyph-name="ograve" unicode="&#xf2;" horiz-adv-x="1107" 
d="M1107 1659l-47 -111h-474l81 303zM1352 984q0 -278 -165 -549q-109 -178 -266 -297q-183 -138 -367 -138q-196 0 -306 152q-97 133 -97 338q0 272 155 538q108 184 270 309q187 144 375 144q194 0 304 -156q97 -137 97 -341zM1060 869q0 109 -46 179q-54 81 -158 81
q-164 0 -293 -180q-120 -165 -120 -336q0 -110 46 -180q55 -81 159 -81q165 0 294 180q118 164 118 337z" />
    <glyph glyph-name="oacute" unicode="&#xf3;" horiz-adv-x="1107" 
d="M1434 1851l-81 -303h-476l13 111zM1352 984q0 -278 -165 -549q-109 -178 -266 -297q-183 -138 -367 -138q-196 0 -306 152q-97 133 -97 338q0 272 155 538q108 184 270 309q187 144 375 144q194 0 304 -156q97 -137 97 -341zM1060 869q0 109 -46 179q-54 81 -158 81
q-164 0 -293 -180q-120 -165 -120 -336q0 -110 46 -180q55 -81 159 -81q165 0 294 180q118 164 118 337z" />
    <glyph glyph-name="ocircumflex" unicode="&#xf4;" horiz-adv-x="1107" 
d="M1308 1730l-112 -186l-204 94l-255 -94l-11 186l264 115h116zM1352 984q0 -278 -165 -549q-109 -178 -266 -297q-183 -138 -367 -138q-196 0 -306 152q-97 133 -97 338q0 272 155 538q108 184 270 309q187 144 375 144q194 0 304 -156q97 -137 97 -341zM1060 869
q0 109 -46 179q-54 81 -158 81q-164 0 -293 -180q-120 -165 -120 -336q0 -110 46 -180q55 -81 159 -81q165 0 294 180q118 164 118 337z" />
    <glyph glyph-name="otilde" unicode="&#xf5;" horiz-adv-x="1107" 
d="M1399 1955l-68 -254q-125 -98 -246 -98q-41 0 -95 45q-53 46 -88 46q-113 0 -249 -108l68 253q122 98 246 98q42 0 95 -46q54 -45 88 -45q112 0 249 109zM1352 985q0 -279 -165 -550q-109 -178 -266 -297q-183 -138 -367 -138q-196 0 -306 152q-97 133 -97 338
q0 273 155 539q108 184 270 309q187 144 375 144q194 0 304 -156q97 -137 97 -341zM1060 870q0 110 -46 178q-54 81 -158 81q-164 0 -293 -180q-120 -165 -120 -336q0 -110 46 -180q55 -81 159 -81q165 0 294 181q118 164 118 337z" />
    <glyph glyph-name="odieresis" unicode="&#xf6;" horiz-adv-x="1107" 
d="M1276 1742q0 -66 -49 -128q-51 -66 -115 -66q-81 0 -81 103q0 65 47 127q51 67 114 67q84 0 84 -103zM985 1742q0 -67 -48 -128q-51 -66 -115 -66q-81 0 -81 102q0 64 47 128q51 67 114 67q83 0 83 -103zM1352 984q0 -278 -165 -549q-109 -178 -266 -297
q-183 -138 -367 -138q-196 0 -306 152q-97 133 -97 338q0 272 155 538q108 184 270 309q187 144 375 144q194 0 304 -156q97 -137 97 -341zM1060 869q0 109 -46 179q-54 81 -158 81q-164 0 -293 -180q-120 -165 -120 -336q0 -110 46 -180q55 -81 159 -81q165 0 294 180
q118 164 118 337z" />
    <glyph glyph-name="divide" unicode="&#xf7;" horiz-adv-x="845" 
d="M888 1312q0 -70 -49 -134q-52 -70 -119 -70q-85 0 -85 104q0 68 48 133q52 69 119 69q86 0 86 -102zM1042 973l-81 -305h-719l81 305h719zM651 428q0 -70 -49 -134q-53 -69 -120 -69q-84 0 -84 103q0 69 48 134q51 70 119 70q86 0 86 -104z" />
    <glyph glyph-name="oslash" unicode="&#xf8;" horiz-adv-x="1107" 
d="M1456 1245l-121 -117q16 -70 16 -150q0 -272 -160 -537q-109 -181 -267 -301q-185 -140 -370 -140q-164 0 -267 111l-123 -118l-118 237l121 118q-16 68 -16 150q0 271 160 536q109 181 268 302q185 140 370 140q162 0 266 -111l123 119zM945 1103q-40 22 -90 22
q-162 0 -291 -177q-119 -164 -123 -333zM1061 862l-503 -489q43 -22 90 -22q163 0 292 178q120 165 121 333z" />
    <glyph glyph-name="ugrave" unicode="&#xf9;" horiz-adv-x="1037" 
d="M1073 1659l-46 -111h-476l81 303zM1412 1481l-223 -831q-64 -244 -241 -434q-200 -216 -430 -216q-178 0 -271 134q-81 115 -81 301q0 105 29 215l223 831h276l-224 -831q-13 -48 -13 -99q0 -199 155 -199q103 0 194 100q81 90 109 198l223 831h274z" />
    <glyph glyph-name="uacute" unicode="&#xfa;" horiz-adv-x="1037" 
d="M1400 1851l-81 -303h-477l13 111zM1412 1481l-223 -831q-64 -244 -241 -434q-200 -216 -430 -216q-178 0 -271 134q-81 115 -81 301q0 105 29 215l223 831h276l-224 -831q-13 -48 -13 -99q0 -199 155 -199q103 0 194 100q81 90 109 198l223 831h274z" />
    <glyph glyph-name="ucircumflex" unicode="&#xfb;" horiz-adv-x="1037" 
d="M1273 1730l-112 -186l-205 94l-254 -94l-12 186l264 115h117zM1412 1481l-223 -831q-64 -244 -241 -434q-200 -216 -430 -216q-178 0 -271 134q-81 115 -81 301q0 105 29 215l223 831h276l-224 -831q-13 -48 -13 -99q0 -199 155 -199q103 0 194 100q81 90 109 198
l223 831h274z" />
    <glyph glyph-name="udieresis" unicode="&#xfc;" horiz-adv-x="1037" 
d="M1240 1744q0 -65 -47 -129q-49 -67 -114 -67q-83 0 -83 103q0 65 48 128q52 66 115 66q81 0 81 -101zM949 1744q0 -65 -47 -129q-51 -67 -114 -67q-84 0 -84 104q0 66 49 127q52 66 115 66q81 0 81 -101zM1412 1481l-223 -831q-64 -244 -241 -434q-200 -216 -430 -216
q-178 0 -271 134q-81 115 -81 301q0 105 29 215l223 831h276l-224 -831q-13 -48 -13 -99q0 -199 155 -199q103 0 194 100q81 90 109 198l223 831h274z" />
    <glyph glyph-name="yacute" unicode="&#xfd;" horiz-adv-x="896" 
d="M1328 1851l-81 -304h-476l13 112zM1429 1281l-1327 -1655l-164 207l527 659l-204 789l274 207l181 -681l545 681z" />
    <glyph glyph-name="ydieresis" unicode="&#xff;" horiz-adv-x="896" 
d="M1226 1743q0 -66 -48 -129q-51 -67 -115 -67q-82 0 -82 102q0 65 48 128q51 68 114 68q83 0 83 -102zM935 1743q0 -65 -47 -129q-51 -67 -115 -67q-82 0 -82 102q0 65 48 128q51 68 114 68q82 0 82 -102zM1429 1281l-1327 -1655l-164 207l527 659l-204 789l274 207
l181 -681l545 681z" />
  </font>
</defs>
</svg>
