<?xml version="1.0" standalone="no"?>
<!DOCTYPE svg PUBLIC "-//W3C//DTD SVG 1.1//EN" "http://www.w3.org/Graphics/SVG/1.1/DTD/svg11.dtd" >
<svg xmlns="http://www.w3.org/2000/svg" xmlns:xlink="http://www.w3.org/1999/xlink" version="1.1">
<metadata>
Created by FontForge 20170731 at Sun Jun  5 17:10:14 2016
 By Aleksey,,,
Copyright (c) 2016 Walter E Stewart, SIL Open Font License (OFL).
</metadata>
<defs>
<font id="SemiCasual" horiz-adv-x="573" >
  <font-face 
    font-family="Semi-Casual"
    font-weight="450"
    font-stretch="normal"
    units-per-em="1024"
    panose-1="0 0 0 0 0 0 0 0 0 0"
    ascent="819"
    descent="-205"
    x-height="504"
    cap-height="806"
    bbox="-102 -350 938 1026"
    underline-thickness="1"
    underline-position="-2"
    unicode-range="U+000D-2154"
  />
<missing-glyph horiz-adv-x="543" 
d="M51 102h307v601h-307v-150v-451zM0 755h410v-704h-206h-204v704z" />
    <glyph glyph-name=".notdef" horiz-adv-x="543" 
d="M51 102h307v601h-307v-150v-451zM0 755h410v-704h-206h-204v704z" />
    <glyph glyph-name=".null" horiz-adv-x="0" 
 />
    <glyph glyph-name=".null" horiz-adv-x="0" 
 />
    <glyph glyph-name="nonmarkingreturn" unicode="&#xd;" horiz-adv-x="0" 
 />
    <glyph glyph-name="space" unicode=" " horiz-adv-x="481" 
 />
    <glyph glyph-name="exclam" unicode="!" horiz-adv-x="210" 
d="M71 11q-34 15 -46 46q-5 13 -5 26q0 18 10 37q16 35 53 43q9 2 18 2q25 0 46 -18q12 -11 22 -29t10 -30v-1q0 -23 -14 -44q-15 -23 -36 -33q-17 -7 -29 -7t-29 8zM84 223q-3 1 -9 5q-5 4 -8 8q-6 7 -8 25q-2 19 -5 91q-1 38 -1 85q-1 28 -1 56q0 20 1 40q0 90 3 165
q2 75 6 84q5 12 14 18t23 6t23 -9q10 -9 13 -27q2 -8 3 -73t1 -146v-38v-90q-1 -64 -1 -107q-1 -23 -1 -38q-1 -15 -2 -19q-4 -22 -19 -33q-9 -6 -19 -6q-6 0 -13 3z" />
    <glyph glyph-name="quotedbl" unicode="&#x22;" horiz-adv-x="440" 
d="M87 618q-11 6 -17 22t-23 84q-16 65 -16 92v3q0 26 14 50q19 32 51 39q7 2 13 2q22 0 31 -20q6 -13 9 -63q1 -33 1 -67v-33q-1 -33 -3 -59q-3 -27 -7 -35q-7 -15 -22 -20q-5 -1 -11 -1q-10 0 -20 6zM301 618q-9 6 -13 16t-5 40q-1 15 -1 38v1v57q1 26 1 46q0 19 1 33
q0 32 3 39t9 13q12 10 27 10q4 0 9 -1q20 -4 39 -24q20 -21 26 -52q2 -11 2 -23q0 -22 -7 -45q-4 -14 -9 -35q-5 -22 -9 -38q-4 -17 -8 -32t-6 -20q-7 -20 -26 -27q-8 -3 -15 -3q-10 0 -18 7z" />
    <glyph glyph-name="numbersign" unicode="#" horiz-adv-x="637" 
d="M93 149q-16 8 -19 25q-3 16 6 47q3 10 4 19q2 9 1 12q-1 2 -8 6q-6 3 -15 5q-26 7 -37 27q-5 9 -5 18q0 10 7 20q8 11 20 16t39 7q18 2 27 5q9 2 12 6q6 9 19 49q13 41 13 51q0 9 -4 12q-5 3 -26 7q-6 2 -13 6q-7 5 -12 10q-21 25 -4 48q18 22 58 23q26 0 35 9
q10 10 25 52q8 21 17 39q9 19 13 24q12 13 26 13q14 -1 27 -14q11 -11 13 -28q1 -18 -7 -44q-3 -9 -5 -19t-2 -15q0 -11 10 -14q11 -3 49 -3q37 -1 48 9q12 10 29 57q7 21 15 37t13 21q12 12 26 12t27 -12q9 -8 11 -14q3 -6 3 -20q0 -9 -2 -21l-5 -20q-3 -8 -5 -18
q-2 -9 -2 -14q0 -10 5 -12q5 -3 41 -7q37 -5 44 -34q1 -6 1 -11q0 -21 -25 -34q-8 -4 -21 -6q-12 -2 -33 -2q-28 0 -41 -5q-12 -5 -23 -32q-4 -12 -10 -29q-5 -17 -12 -40q-2 -10 7 -16t26 -6q31 0 48 -16q18 -16 12 -38q-5 -19 -21 -25q-15 -7 -56 -9q-42 -2 -51 -8
t-17 -36q-8 -25 -19 -46q-10 -21 -18 -25q-14 -7 -35 -2q-20 6 -25 18q-3 9 -2 26q1 18 7 36q8 25 0 30q-7 5 -52 5q-44 0 -54 -8q-9 -7 -23 -49q-11 -32 -23 -46t-28 -14q-6 0 -13 1q-7 2 -11 4zM336 361q8 9 23 54q13 37 12 49v3q-3 7 -15 10q-12 2 -44 2h-1q-28 0 -39 -3
q-12 -4 -18 -15q-7 -12 -18 -53q-10 -36 -10 -44v-2q3 -6 13 -8t45 -2h11q19 0 25 1q9 1 16 8z" />
    <glyph glyph-name="dollar" unicode="$" 
d="M263 8q-9 6 -16 17q-6 10 -6 22q0 13 -10 23q-10 11 -26 16q-53 15 -89 51q-37 35 -50 83q-5 19 -5 34t5 26q9 23 33 23q17 1 28 -10t18 -34q4 -12 10 -24q7 -12 15 -21q19 -24 39 -32q21 -9 28 8q2 7 3 38q1 32 1 63q-1 21 -2 38q-1 16 -3 21q-3 8 -8 13q-5 4 -19 8
q-43 14 -79 43t-53 64q-10 21 -13 32q-2 11 -2 40q0 28 2 39t11 28q16 34 55 65q40 31 94 52q7 3 10 9q4 5 7 19q5 23 14 34q10 10 27 10q15 0 27 -11q11 -10 14 -28t10 -27t21 -14q41 -13 78 -42q36 -29 51 -59q11 -24 15 -48q4 -25 -1 -41q-10 -34 -42 -29q-33 5 -40 42
q-5 26 -25 52q-21 25 -42 30q-16 4 -19 -11q-4 -14 -4 -79q0 -67 5 -81q4 -14 30 -23q22 -7 55 -29t46 -38q24 -29 34 -66q6 -21 6 -42q0 -16 -3 -31q-11 -52 -46 -87t-106 -64q-11 -4 -14 -9q-4 -5 -7 -21q-6 -28 -24 -41q-10 -6 -20 -6q-9 0 -18 5zM364 187q21 11 35 32
t14 41v1q0 23 -22 50q-21 28 -43 33q-3 1 -6 1q-10 0 -13 -11q-4 -13 -4 -70q0 -66 6 -78q3 -6 10 -6q9 0 23 7zM231 471q3 3 4 22q1 20 1 60q0 64 -3 74q-3 6 -9 6t-16 -5q-29 -14 -45 -38q-14 -20 -14 -41v-7q2 -18 15 -36q13 -19 30 -29q15 -9 23 -11h3q6 0 11 5z" />
    <glyph glyph-name="percent" unicode="%" horiz-adv-x="656" 
d="M149 47q-13 5 -18 14q-6 9 -6 25q0 2 6 15q5 13 15 34q17 39 47 100q30 62 64 130q42 85 84 169q43 83 72 139q16 30 27 49t14 24q16 18 31 19h2q14 0 28 -14q10 -11 10 -25q0 -3 -1 -8q-4 -18 -35 -84q-23 -48 -59 -120t-74 -147q-21 -40 -40 -78q-20 -39 -38 -74
q-33 -64 -57 -107q-23 -43 -27 -48q-12 -14 -22 -16q-3 -1 -7 -1q-7 0 -16 4zM425 44q-26 8 -52 30t-38 46q-18 35 -18 70q0 21 7 42q17 57 73 90q17 11 27 14q11 2 37 4h20q10 0 16 -1q11 -1 27 -8q21 -10 45 -34q24 -23 35 -46q11 -22 12 -55v-4q0 -31 -10 -57
q-9 -24 -30 -46q-20 -23 -45 -35q-18 -9 -29 -11q-9 -3 -28 -3h-4q-14 1 -27 2t-18 2zM500 140q26 17 26 47v7q-3 35 -36 51q-12 6 -24 6q-4 0 -9 -1q-16 -4 -32 -20q-11 -11 -14 -17q-3 -7 -3 -20q0 -16 5 -30t14 -21q13 -10 35 -11h3q20 0 35 9zM119 485q-34 16 -57 46
q-22 30 -29 67q-2 13 -2 26q0 34 17 67q24 44 72 67q16 9 27 11t36 2q34 0 56 -9q22 -10 48 -35q24 -24 33 -50q8 -21 8 -51q0 -6 -1 -12q-2 -46 -22 -78q-21 -31 -62 -50q-17 -8 -29 -11q-11 -2 -34 -2q-22 0 -33 2q-12 3 -28 10zM217 574q16 10 21 34q2 9 2 18q0 14 -5 26
q-11 24 -44 28h-11q-26 0 -42 -16q-17 -17 -17 -39q0 -8 2 -17q9 -33 40 -42q7 -2 16 -2q5 0 12 1q16 2 26 9z" />
    <glyph glyph-name="ampersand" unicode="&#x26;" horiz-adv-x="621" 
d="M210 9q-39 12 -79 46t-57 70q-14 28 -18 55q-5 27 -5 85q0 74 14 113t58 82q12 13 21 23t9 12t-4 11q-3 9 -7 20q-27 63 -16 127q10 63 46 105q19 22 45 35q25 13 55 13t55 -12q26 -12 45 -34q35 -38 46 -101q10 -62 -14 -127q-5 -14 -14 -26q-8 -12 -23 -27
q-11 -11 -23 -21q-11 -10 -16 -14q-6 -3 -9 -8q-3 -4 -2 -7q1 -4 18 -29q16 -25 38 -57q26 -39 51 -75q26 -37 31 -42q9 -9 17 -8t8 10q0 12 10 30q10 17 20 22q13 7 26 2q14 -4 21 -17t7 -42v-11q-2 -36 -12 -64q-10 -29 -10 -39q0 -9 10 -29q11 -22 11 -38t-10 -27
q-11 -11 -26 -11l-1 1q-15 0 -32 13q-17 12 -27 12t-34 -11q-19 -9 -35 -11q-16 -1 -84 -2q-38 -1 -69 0t-35 3zM380 98q18 4 25 12q6 5 6 10v5q-1 3 -24 38q-23 34 -54 78q-36 54 -71 103q-34 49 -39 54q-4 4 -9 6t-10 2q-9 0 -25 -16q-16 -17 -27 -37q-7 -14 -9 -28
q-1 -14 -1 -64q0 -63 6 -82q5 -19 32 -46q18 -18 36 -27t42 -13q15 -3 40 -3q10 0 23 1q41 1 59 7zM305 542q28 29 28 76v2q0 49 -30 79q-17 16 -33 16q-5 1 -11 -1q-21 -7 -38 -40q-12 -25 -12 -51q0 -9 1 -18q5 -36 29 -61q18 -19 34 -19v0q15 0 32 17z" />
    <glyph glyph-name="quotesingle" unicode="'" horiz-adv-x="222" 
d="M83 622q-10 10 -21 42q-10 32 -28 113q-3 15 -3 29q0 18 5 35q8 30 32 51q17 16 36 16h1q17 0 37 -14q21 -15 31 -39q9 -20 9 -43q0 -5 -1 -10q-1 -9 -4 -28q-4 -19 -8 -42q-8 -34 -16 -66q-8 -31 -11 -38q-3 -6 -18 -13q-14 -8 -22 -8q-2 0 -7 5q-6 4 -12 10z" />
    <glyph glyph-name="parenleft" unicode="(" horiz-adv-x="482" 
d="M333 -137q-29 3 -49 10t-40 21q-17 12 -47 42q-30 31 -43 51q-28 40 -50 99q-23 58 -34 118q-3 15 -5 38t-3 49q-1 23 -1 46q0 25 1 52q2 49 8 75q16 77 42 137q25 61 61 106q41 52 85 75t104 24h11q19 0 25 -1q9 -2 16 -9q11 -10 14 -22q3 -11 -2 -26q-5 -14 -18 -21
q-13 -6 -46 -8q-35 -3 -60 -15q-24 -12 -50 -38q-35 -36 -61 -98q-26 -61 -37 -135q-7 -49 -5 -118q2 -70 12 -117q13 -63 36 -113q22 -49 52 -81q24 -26 46 -37q23 -11 62 -16q47 -6 63 -18q10 -9 10 -24q0 -7 -2 -16q-6 -20 -28 -27q-13 -4 -35 -4q-14 0 -32 1z" />
    <glyph glyph-name="parenright" unicode=")" horiz-adv-x="480" 
d="M67 -136q-13 5 -21 20q-5 11 -5 21q0 4 1 7q4 16 18 24q14 7 50 12q41 6 63 16t45 33q31 32 55 83t38 117q6 27 8 80t1 103q-1 27 -3 50t-6 37q-15 69 -38 117q-24 49 -59 84q-27 27 -48 36q-20 9 -62 13q-34 3 -47 12q-13 10 -13 32q0 29 24 39q14 6 37 6q17 0 38 -3
q33 -5 60 -18q28 -13 54 -36q50 -45 85 -112q36 -67 56 -157q7 -31 8 -56q2 -23 2 -85v-9q0 -68 -2 -93q-2 -26 -8 -54q-19 -87 -53 -152t-82 -111q-25 -23 -47 -36q-23 -13 -52 -20q-23 -6 -53 -6t-44 6z" />
    <glyph glyph-name="asterisk" unicode="*" horiz-adv-x="547" 
d="M244 186q-10 8 -12 16q-3 8 -6 31q-1 15 -2 34q-2 20 -2 33q0 25 -5 34q-4 8 -15 4q-4 -1 -19 -9t-32 -17q-40 -22 -54 -27q-15 -4 -29 1q-10 5 -19 17q-8 13 -8 25q0 11 19 28t56 39q25 15 36 24q10 8 10 13q0 4 -11 13q-10 9 -36 24q-46 28 -59 41t-13 30q0 9 3 16
q2 6 8 12q15 17 34 13q18 -4 73 -35q18 -10 33 -17t18 -6q7 1 10 22q4 20 4 66q0 18 2 34t4 21q7 15 24 21q8 3 16 3q9 0 17 -5q12 -6 17 -25q4 -20 4 -62t4 -59q3 -17 12 -17q3 0 21 9q18 8 40 20q48 25 66 28t31 -13q12 -13 11 -26q0 -9 -5 -18q-14 -21 -69 -55
q-23 -14 -35 -23t-12 -13t13 -13q12 -9 38 -25q46 -27 56 -37q11 -10 13 -27q2 -11 0 -17t-10 -15q-15 -17 -33 -14q-17 2 -65 29q-22 12 -40 21q-18 8 -21 7q-7 -1 -11 -19q-3 -17 -4 -55q0 -36 -5 -55q-4 -19 -14 -28q-12 -9 -22 -9h-1q-12 1 -24 12z" />
    <glyph glyph-name="plus" unicode="+" horiz-adv-x="565" 
d="M257 165q-5 2 -9 6q-5 5 -6 8t-3 31t-3 64q-2 60 -3 75q-2 15 -8 19q-5 4 -24 5t-67 1q-55 0 -70 2q-16 1 -26 7q-18 11 -18 32q0 3 1 5q3 25 26 33q5 2 33 5q27 2 59 3q40 2 61 4q22 2 26 5q5 3 7 19q1 16 3 72q1 66 5 84t17 25q8 5 18 5q2 -1 4 -1q13 -1 21 -8
q11 -11 15 -33q4 -23 4 -81q0 -69 7 -79q8 -10 62 -11q64 0 92 -4q29 -3 39 -12q10 -10 13 -22q1 -4 1 -9q0 -7 -3 -15q-7 -17 -25 -21q-19 -5 -87 -5h-35q-15 1 -26 0q-32 -2 -35 -20q-3 -17 -3 -75q0 -62 -4 -83q-5 -21 -19 -31q-9 -6 -19 -7q-9 0 -21 7z" />
    <glyph glyph-name="comma" unicode="," horiz-adv-x="268" 
d="M33 -180q-12 13 -13 26q0 7 3 14q9 20 45 42q21 13 35 26q13 13 21 28q8 17 7 27q-2 11 -12 15q-26 10 -40 30q-14 21 -14 49q0 20 6 34q7 14 21 25q25 18 49 18q13 0 26 -5q36 -15 52 -65q9 -30 9 -61q0 -44 -19 -89q-33 -76 -101 -111q-30 -15 -46 -15h-1q-15 0 -28 12
z" />
    <glyph glyph-name="hyphen" unicode="-" horiz-adv-x="566" 
d="M49 360q-11 4 -20 17t-9 23q0 5 4 12q3 8 7 13q7 8 17 10q9 3 50 6q24 1 90 2h64h73q106 -1 141 -3q35 -1 45 -6q22 -9 24 -31q1 -2 1 -4q0 -19 -18 -32q-6 -5 -20 -7q-13 -1 -71 -2q-25 0 -61 -1h-84h-54h-107q-68 1 -72 3z" />
    <glyph glyph-name="period" unicode="." horiz-adv-x="201" 
d="M67 7q-31 13 -42 46q-5 14 -5 27q0 19 9 38q17 34 52 41q7 1 14 1q27 1 48 -20q6 -5 13 -14q6 -8 8 -14q6 -14 6 -28t-4 -27q-11 -30 -40 -47q-16 -9 -32 -9q-14 0 -27 6z" />
    <glyph glyph-name="slash" unicode="/" horiz-adv-x="517" 
d="M38 -36q-13 10 -12 27q0 18 12 48q3 7 12 26q9 20 23 49q27 55 66 134q39 80 80 162q41 84 79 158q37 74 58 114q21 41 40 74q18 32 23 37q12 13 26 13h1q15 0 28 -14q9 -8 11 -14q1 -3 1 -8q0 -4 -1 -8q-1 -6 -16 -42q-15 -35 -35 -78q-28 -57 -70 -142t-86 -173
q-23 -47 -46 -92q-23 -46 -44 -86q-38 -75 -65 -126q-27 -50 -30 -55q-13 -14 -27 -15h-3q-13 0 -25 11z" />
    <glyph glyph-name="zero" unicode="0" 
d="M250 3q-46 12 -82 52q-36 41 -61 100q-29 71 -40 161q-6 44 -6 88q0 45 6 90q6 49 19 95q13 45 34 86q42 85 97 113q33 18 65 18q21 0 42 -8q28 -9 54 -32q26 -22 48 -56q34 -52 55 -128q20 -75 20 -169v-1q0 -126 -33 -224q-32 -97 -86 -146q-29 -27 -62 -37
q-18 -6 -37 -6q-16 0 -33 4zM306 98q46 19 75 100q28 81 32 180q1 14 1 28q0 39 -5 79q-5 54 -21 102q-38 123 -104 126h-3q-63 0 -101 -117q-20 -60 -26 -126q-3 -35 -3 -69q0 -30 2 -59q3 -40 11 -77t19 -67q21 -57 53 -87q21 -19 44 -19q13 0 26 6z" />
    <glyph glyph-name="one" unicode="1" horiz-adv-x="282" 
d="M150 9q-13 7 -18 21q-5 13 -6 82q-1 29 -1 72t-1 104q0 102 -1 177q-1 76 -2 80q-2 10 -7 9t-18 -12q-15 -13 -27 -16t-25 4t-17 22q-1 5 -1 11q0 11 4 25q3 11 13 33t23 48q19 38 39 73q21 36 30 46q12 12 18 15q4 3 12 3h5q9 -1 15 -4t10 -10q6 -8 8 -24q3 -15 5 -69
q2 -47 2 -136q1 -50 1 -103v-86q-1 -53 -1 -107q-1 -53 -2 -101q-1 -32 -1 -56q-1 -23 -2 -40q-2 -38 -7 -48q-5 -9 -16 -15q-9 -4 -15 -4h-1q-6 1 -16 6z" />
    <glyph glyph-name="two" unicode="2" horiz-adv-x="550" 
d="M75 11q-6 3 -11 8q-6 6 -8 10q-5 12 -5 29q0 15 4 34q10 41 33 76q8 12 36 45q27 33 57 67q111 126 160 184t53 68q3 7 5 22q1 14 1 31q0 34 -9 55q-8 22 -31 42q-27 24 -56 32q-30 8 -63 0q-43 -12 -68 -41q-26 -30 -35 -80q-6 -32 -14 -46q-7 -14 -21 -19
q-21 -7 -36 12q-16 19 -15 52q0 39 15 77q16 37 47 71q16 16 29 26t35 21q29 14 40 17q12 2 52 2t52 -3q11 -2 41 -16q36 -18 63 -45q28 -27 45 -60q11 -22 13 -34q3 -12 4 -50q1 -34 -1 -58q-3 -23 -17 -50q-8 -15 -20 -32t-31 -40q-22 -27 -55 -64q-32 -37 -78 -88
q-33 -38 -57 -65t-39 -46q-28 -34 -32 -45q-3 -11 6 -15q3 -1 37 -2q33 -1 77 -1t88 -1t62 -2q29 -2 38 -4t14 -9q9 -11 9 -26v-2q-1 -17 -11 -29q-6 -7 -16 -9q-10 -3 -59 -3q-21 -1 -51 -1h-74q-43 -1 -74 -1h-16h-37q-40 1 -55 2t-21 4z" />
    <glyph glyph-name="three" unicode="3" horiz-adv-x="510" 
d="M166 5q-24 7 -45 18q-20 11 -36 24q-29 24 -37 51t17 42q13 8 25 6q12 -3 35 -19q28 -20 44 -26q16 -7 40 -9q28 -2 53 5t46 23q32 24 43 64t5 105q-4 42 -13 62q-8 20 -30 40q-19 16 -44 26t-57 12q-36 4 -50 14q-15 9 -15 31q0 12 16 36q15 25 70 97q16 21 27 36
q12 16 19 26q18 25 19 31t-4 9q-4 2 -32 4t-65 3q-89 3 -112 5q-24 3 -33 13q-11 11 -11 27q0 17 11 27q12 12 56 16q29 2 89 2q31 0 70 -1q38 0 65 -1q26 -1 44 -2q35 -2 46 -7t17 -15q6 -11 0 -28q-5 -16 -29 -52q-13 -20 -33 -47q-19 -26 -46 -62q-19 -26 -33 -47
t-14 -25t8 -10q7 -6 26 -15q42 -20 74 -57q31 -37 44 -81q3 -9 5 -28q1 -19 2 -43v-30q0 -20 -1 -41q-1 -36 -5 -53q-12 -52 -57 -95t-104 -61q-22 -6 -54 -6h-1q-32 0 -55 6z" />
    <glyph glyph-name="four" unicode="4" horiz-adv-x="502" 
d="M335 7q-4 2 -9 6q-5 5 -8 10q-6 8 -7 31q-2 22 -4 102q-1 85 -3 104q-1 19 -7 23q-5 4 -29 5q-25 2 -92 2q-90 0 -114 3q-25 4 -33 19q-2 4 -3 12v7v7q2 11 29 70q27 58 63 130q28 58 57 114t49 93q12 20 20 33q7 13 11 16q12 11 25 12h1q13 0 25 -10q12 -11 12 -26
q1 -15 -22 -66q-12 -27 -32 -69t-50 -102q-27 -56 -46 -97t-19 -44q0 -8 16 -11q17 -3 62 -3q34 0 50 1q15 2 20 5q6 4 7 19q2 14 4 73q1 66 5 84t16 25q8 5 20 5t21 -5q12 -7 16 -25t5 -84q2 -72 6 -84q5 -12 29 -16q16 -2 28 -15t12 -27t-12 -27t-28 -16q-17 -3 -24 -8
q-6 -5 -8 -39q-1 -15 -2 -36q0 -22 -1 -52q-1 -80 -3 -102q-2 -23 -7 -31q-3 -5 -9 -10q-5 -5 -10 -6q-10 -4 -13 -4q-4 0 -14 4z" />
    <glyph glyph-name="five" unicode="5" horiz-adv-x="563" 
d="M233 3q-44 6 -87 41q-44 34 -70 84q-9 18 -11 30q-3 13 -4 46q-1 35 0 44q1 8 10 19q7 8 13 11q5 3 14 3q17 0 28 -14q10 -14 18 -50q9 -39 19 -59t28 -36q34 -30 80 -32q47 -2 81 24q36 28 47 60q12 32 9 100q-2 48 -8 68q-7 20 -29 45q-24 26 -65 35t-138 9
q-62 0 -79 4q-16 4 -26 22q-3 7 -5 19q-1 11 -2 43v25v19q0 25 1 61v59q1 24 1 41q1 40 4 49t10 15q10 9 20 12q10 2 50 4q23 1 78 2h33q39 0 76 -1q34 0 58 -1q25 0 42 -1q40 -3 50 -9q10 -7 14 -23q3 -9 3 -15v-1q0 -6 -4 -13q-5 -12 -16 -17t-55 -6q-19 -1 -46 -1h-63
q-94 0 -125 -1q-31 -2 -37 -5q-6 -5 -7 -19t-1 -74q0 -61 1 -75t7 -19q5 -3 19 -4q14 -2 41 -2q67 -1 99 -5q33 -4 57 -16q39 -20 71 -52q31 -33 46 -68q7 -20 9 -37q1 -17 0 -88q-1 -74 -3 -90t-13 -39q-14 -28 -41 -56q-28 -28 -55 -42q-35 -19 -70 -24q-16 -3 -34 -3
q-20 0 -43 4z" />
    <glyph glyph-name="six" unicode="6" horiz-adv-x="556" 
d="M205 12q-40 15 -78 52q-39 38 -55 79q-8 18 -9 37q-2 17 -2 85v8q1 161 25 270q25 110 79 189q26 37 52 53q26 17 66 20q10 1 18 1q5 0 9 -1q9 -1 18 -6q17 -8 22 -21q6 -12 1 -29q-5 -15 -16 -22q-12 -7 -39 -10q-34 -4 -52 -20q-18 -15 -38 -57q-11 -25 -24 -68
q-12 -42 -12 -57q0 -12 6 -13q7 -2 31 6q16 5 32 6t48 1q37 -1 49 -4q12 -2 34 -13q32 -16 64 -47q31 -31 46 -62q11 -23 12 -39q2 -16 2 -91v-33v-25q-1 -33 -4 -44q-3 -12 -12 -31q-17 -32 -45 -60q-29 -28 -64 -45q-24 -11 -37 -13q-12 -3 -50 -4h-19q-19 0 -28 1
q-15 1 -30 7zM341 107q20 11 34 26q14 16 25 38q7 14 9 28q1 14 1 60q0 48 -1 62q-2 13 -10 29q-29 60 -94 74q-16 3 -30 3q-47 1 -86 -32q-32 -27 -42 -91q-4 -24 -4 -47q0 -40 11 -77q7 -24 32 -49q24 -25 48 -33q19 -6 41 -6q7 0 14 1q31 2 52 14z" />
    <glyph glyph-name="seven" unicode="7" horiz-adv-x="503" 
d="M113 12q-12 10 -13 21q-2 10 -2 63q1 77 14 152q13 74 39 151q20 60 55 131q36 72 72 127q12 18 21 32q8 14 8 16q0 8 -30 12q-31 3 -109 3q-87 0 -110 3q-23 4 -31 19q-6 12 -7 23q0 5 2 9q4 15 22 24q6 4 19 5q13 2 52 2q20 1 51 1h75h78q33 0 55 -1q54 -1 67 -6
q13 -6 19 -18q5 -9 5 -17q0 -7 -3 -13q-6 -16 -29 -43q-71 -81 -116 -156q-44 -76 -76 -168q-25 -72 -41 -151q-16 -78 -17 -133q0 -50 -9 -72q-10 -22 -33 -26q-3 -1 -6 -1q-5 0 -8 1q-5 2 -14 10z" />
    <glyph glyph-name="eight" unicode="8" horiz-adv-x="552" 
d="M216 9q-38 9 -82 45q-43 37 -62 75q-8 16 -12 31t-6 39q-3 24 -3 52q0 20 1 42q3 54 11 80q7 22 28 52t38 42q5 4 11 10t9 11q5 7 4 14t-10 32q-30 76 -9 151q20 75 80 108q15 8 25 11q10 2 34 2q32 0 50 -8t41 -30q19 -20 31 -40t19 -45q8 -27 6 -69q-2 -41 -13 -69
q-13 -36 -11 -47q2 -12 26 -38q27 -30 44 -57q17 -28 21 -50q4 -21 4 -66v-1q0 -45 -4 -89q-4 -42 -16 -68q-12 -25 -43 -56q-26 -26 -50 -40q-23 -14 -53 -22q-21 -5 -55 -6h-7q-29 0 -47 4zM325 105q19 9 36 24t28 34q9 15 10 28q2 13 2 72t-2 72q-1 13 -10 28
q-20 33 -50 50t-69 17q-20 0 -31 -2q-10 -2 -24 -9q-19 -10 -39 -31q-21 -21 -28 -38t-9 -66q-1 -14 -1 -27q0 -31 4 -53q11 -64 68 -94q30 -17 61 -17q27 0 54 12zM301 537q4 3 10 12q7 9 11 19q7 16 9 27q1 5 1 15q0 8 -1 19q-2 43 -17 64q-16 22 -44 22q-21 0 -36 -23
q-16 -24 -19 -55q-1 -8 -1 -17q0 -8 1 -17q2 -17 8 -31q16 -33 35 -41q7 -3 15 -3q13 0 28 9z" />
    <glyph glyph-name="nine" unicode="9" horiz-adv-x="563" 
d="M432 7q-11 6 -16 16q-5 11 -7 45q-2 18 -2 46q-1 27 -2 66q-1 36 -1 60q-1 25 -2 41q-2 38 -12 37t-39 -14q-28 -12 -67 -14q-39 -3 -68 6q-48 14 -85 45q-36 31 -60 77q-12 25 -15 37t-4 49q-1 19 -1 37q0 38 4 69q5 45 18 71q13 27 43 57q29 30 56 44q45 24 99 24h2
q55 -1 102 -26q25 -13 55 -45q31 -32 45 -59q8 -16 11 -35q3 -18 4 -94q1 -33 1 -79q0 -47 1 -112v-125v-85q-1 -91 -2 -99q-4 -26 -21 -38q-9 -6 -19 -6q-9 0 -18 4zM326 390q18 8 37 26q18 18 29 38q7 13 8 27q2 14 2 67q0 55 -2 67q-1 13 -10 27q-11 20 -29 36
q-17 17 -36 27q-20 10 -50 10h-1q-30 0 -52 -9q-20 -10 -41 -29q-20 -19 -30 -38q-6 -14 -8 -28t-2 -61q0 -63 7 -85t33 -47q17 -17 29 -24t33 -12q9 -3 23 -3q8 0 18 1q25 2 42 10z" />
    <glyph glyph-name="colon" unicode=":" horiz-adv-x="206" 
d="M66 10q-41 19 -45 66q-1 5 -1 9q1 41 35 64q22 15 44 14q18 0 36 -9q40 -22 40 -71q0 -44 -35 -68q-20 -13 -41 -13q-16 0 -33 8zM66 442q-42 20 -45 67q-1 4 -1 7q0 43 36 67q21 13 41 13q19 0 38 -11q40 -22 40 -69q0 -45 -35 -68q-19 -13 -40 -13q-16 0 -34 7z" />
    <glyph glyph-name="semicolon" unicode=";" horiz-adv-x="254" 
d="M32 -175q-11 12 -12 25q0 5 3 12q7 19 37 41q25 17 41 33t23 31q7 14 4 22t-19 16q-17 8 -30 24q-14 17 -17 31q-5 28 4 49q8 21 30 36q10 7 18 9h14h13q27 -1 40 -10q14 -9 27 -34q8 -16 10 -29q3 -12 5 -42v-19q0 -44 -11 -74q-13 -37 -51 -76q-23 -25 -47 -38
q-23 -13 -47 -16q-8 -1 -14 -1q-5 0 -7 1q-6 1 -14 9zM107 440q-15 8 -23 16q-9 9 -15 23q-8 18 -8 36q0 7 1 14q5 25 25 44q15 15 31 20q8 2 17 2q8 0 17 -3q28 -7 43 -28q16 -20 16 -49t-16 -49q-15 -21 -41 -28q-15 -5 -25 -5l-1 1q-10 0 -21 6z" />
    <glyph glyph-name="less" unicode="&#x3c;" horiz-adv-x="381" 
d="M264 138q-11 8 -54 49q-42 41 -85 84q-28 29 -51 53q-22 24 -30 33q-11 15 -15 23q-3 8 -3 20t3 20q4 8 18 25q10 11 35 37t56 56q45 45 89 86q43 41 50 45q10 5 18 5q14 0 24 -13q18 -20 7 -48q-3 -6 -32 -38t-68 -72q-39 -39 -67 -69q-27 -31 -27 -34t26 -32
q26 -30 62 -68q37 -38 66 -69t34 -37q11 -15 10 -32q0 -16 -11 -27q-10 -11 -22 -11h-2q-14 1 -31 14z" />
    <glyph glyph-name="equal" unicode="=" horiz-adv-x="604" 
d="M70 243q-15 6 -22 14q-7 9 -7 22v2q0 14 4 21t15 13q6 4 20 5q14 2 56 3q22 0 54 1h78q60 1 102 1h13q34 0 58 -1q54 -1 72 -4q18 -4 27 -11q14 -12 14 -26q0 -7 -3 -14q-9 -23 -38 -28q-8 -2 -73 -3q-66 -1 -150 -1q-120 0 -165 1q-45 2 -55 5zM67 529q-11 4 -19 15
q-7 10 -7 22v2q0 14 4 21t15 13q6 3 19 5t49 3q19 0 47 1h67q40 1 79 1q28 0 57 -1q66 0 91 -1q43 -3 53 -5t19 -11q6 -7 9 -13t3 -15q0 -14 -8 -24q-8 -9 -26 -14q-7 -2 -65 -3t-131 -1h-29h-85q-56 1 -94 2q-20 0 -33 1q-12 1 -15 2z" />
    <glyph glyph-name="greater" unicode="&#x3e;" horiz-adv-x="384" 
d="M57 135q-8 6 -10 12q-3 6 -3 16t6 22t30 38q13 15 32 35t46 48q37 38 58 63q22 25 22 29t-25 32q-25 29 -68 74q-39 40 -68 74q-29 33 -32 39q-4 10 -4 18q0 4 1 7q2 12 14 22q10 10 22 10h2q13 0 30 -13q9 -6 37 -33q29 -28 63 -62q42 -41 80 -80t45 -49q12 -17 13 -33
v-4q0 -14 -8 -28q-5 -8 -38 -44t-71 -75q-25 -26 -48 -49q-23 -22 -36 -35q-42 -38 -57 -44q-4 -1 -8 -1q-12 0 -25 11z" />
    <glyph glyph-name="question" unicode="?" horiz-adv-x="623" 
d="M371 803q36 -3 65 -17q29 -15 60 -45q28 -28 43 -57t20 -64q3 -19 3 -36q0 -73 -44 -131q-55 -71 -154 -90q-51 -9 -65 -22q-14 -12 -19 -52q-4 -30 -10 -44q-5 -13 -17 -19q-11 -6 -20 -6h-3q-10 2 -22 12q-10 10 -12 17q-2 8 -2 42q0 43 9 66q10 23 38 50q23 22 39 30
q17 7 57 14q51 9 79 26q27 17 44 49q12 23 13 57q0 34 -11 57q-10 21 -28 38q-17 17 -39 27q-11 5 -27 8q-17 3 -36 5q-34 2 -70 -2t-57 -15q-15 -7 -31 -25q-17 -18 -26 -37q-4 -7 -9 -23q-4 -15 -7 -29q-5 -30 -12 -44q-8 -14 -20 -17q-18 -5 -36 14t-18 43q0 23 8 54
q8 30 19 51q13 25 45 56t58 43q27 13 76 17q21 2 45 2q34 0 74 -3zM267 154q16 -8 28 -27q13 -18 15 -37v-9q0 -36 -31 -61q-23 -17 -46 -17q-14 0 -29 6q-29 12 -39 47q-4 14 -4 27q0 20 9 39q14 27 43 36q11 4 22 4q16 0 32 -8z" />
    <glyph glyph-name="at" unicode="@" horiz-adv-x="772" 
d="M322 13q-8 1 -24 7q-15 6 -28 12q-82 39 -136 117q-54 79 -69 181q-4 27 -4 63q0 18 1 38q3 61 12 93q26 89 86 160q61 71 134 97q26 10 82 11h8q49 0 77 -8q61 -19 116 -71q54 -52 87 -124q27 -58 37 -128q4 -33 4 -62q0 -33 -5 -60q-10 -45 -36 -87q-27 -42 -56 -57
q-32 -16 -60 -12q-28 5 -53 31q-9 10 -18 17q-8 7 -11 7t-15 -4q-12 -3 -27 -8q-23 -8 -33 -9q-9 -1 -27 2q-35 7 -64 31q-29 25 -48 65q-8 18 -10 31t-2 55q0 43 2 55t12 33q14 30 31 48q18 19 42 31q22 12 47 14q24 2 51 -5q11 -3 20 -3t23 3q13 3 21 3q8 1 15 -2
q16 -6 21 -31t8 -120q2 -90 6 -115q4 -24 17 -32q8 -5 20 2q11 6 19 20q10 15 15 37q6 22 7 47q2 47 -9 100t-35 95q-15 26 -49 60q-34 33 -57 44q-33 16 -68 18t-77 -9q-21 -6 -33 -13q-13 -7 -37 -27q-27 -23 -47 -53q-21 -31 -34 -66q-25 -67 -24 -143t31 -144
q16 -37 45 -70q28 -33 59 -53q25 -16 48 -21q24 -5 84 -8q39 -2 61 -5q23 -3 30 -6q10 -5 17 -15t7 -21q0 -10 -8 -21q-9 -12 -19 -15q-7 -3 -41 -4q-22 -1 -45 -1q-11 0 -23 1q-23 0 -43 1q-19 1 -28 3zM410 320q31 26 32 76v6q0 47 -26 75q-16 16 -33 16q-8 0 -16 -4
q-27 -12 -39 -50q-6 -21 -6 -41q0 -15 4 -30q9 -34 35 -52q11 -7 21 -7h3q13 1 25 11z" />
    <glyph glyph-name="A" unicode="A" 
d="M88 5q-16 8 -20 27q-5 19 -6 80q-1 16 -1 32q0 88 10 177q11 106 32 197q11 49 25 92t30 77q31 64 69 95q30 24 58 24q8 0 17 -2q40 -11 73 -58t61 -132q35 -103 51 -229q15 -111 15 -231v-32q-1 -63 -3 -79q-1 -16 -8 -24q-13 -18 -32 -18q-18 1 -30 19q-5 8 -7 26
q-2 17 -3 72q-2 58 -3 73q-2 14 -8 19q-5 3 -30 5q-24 1 -92 1q-47 0 -84 -1q-36 -2 -41 -3q-8 -3 -9 -14q-2 -12 -4 -76q-2 -70 -6 -90q-5 -20 -21 -27q-11 -5 -17 -5t-16 5zM399 310q6 5 6 13v2q0 11 -3 44q-11 113 -37 208t-54 122q-10 11 -26 11h-2q-13 0 -25 -9
q-10 -7 -20 -28q-11 -20 -21 -48q-20 -54 -35 -128q-16 -74 -22 -145q-1 -18 -1 -27v-6q1 -7 6 -10q5 -2 35 -4q30 -1 67 -1h5q43 0 81 1q42 2 46 5z" />
    <glyph glyph-name="B" unicode="B" horiz-adv-x="567" 
d="M87 6q-9 5 -14 11q-5 7 -7 40q-1 15 -2 35q0 21 -1 50q0 42 -1 103v150q0 87 -1 149v38q0 38 1 67v51q1 22 2 37q2 35 7 44q5 8 13 15q8 6 46 8q28 2 58 2h23q29 -1 55 -3q27 -2 43 -6q37 -8 67 -27q29 -18 49 -42q38 -46 41 -105q3 -60 -39 -112q-14 -17 -11 -28t27 -39
q29 -31 39 -51q11 -19 13 -61q1 -14 1 -31v-41q0 -107 -25 -155t-100 -85q-13 -6 -43 -11t-66 -8q-49 -4 -96 -4h-12q-53 1 -67 9zM302 92q60 11 85 49t25 119q0 101 -42 137q-41 35 -161 35h-2q-37 0 -48 -5q-11 -4 -12 -61v-32v-13v-61v-68q0 -28 1 -45q0 -34 2 -42t6 -11
q3 -2 15 -4q12 -1 29 -2q12 -1 25 -1q14 0 30 1q29 1 47 4zM303 531q40 13 59 42q15 22 15 46q0 6 -1 13q-3 16 -13 32q-10 15 -27 26q-10 6 -29 12q-20 5 -42 9q-35 6 -68 7h-9q-25 0 -32 -5q-5 -3 -7 -27q-3 -24 -3 -53v-13q0 -29 2 -56q2 -34 8 -38q5 -4 30 -5h16
q18 0 38 1q19 2 36 4t27 5z" />
    <glyph glyph-name="C" unicode="C" horiz-adv-x="574" 
d="M216 10q-44 15 -78 46q-33 30 -56 75q-4 8 -7 29q-4 20 -7 49q-4 53 -6 125q-1 35 -1 70q0 36 1 72q2 71 7 128q5 56 13 73q20 42 50 69q29 28 62 43q36 15 74 17h11q32 0 63 -9q68 -20 115 -79q48 -60 44 -150q-2 -45 -23 -61t-44 12q-9 10 -12 21t-8 52q-4 31 -18 55
q-13 23 -33 39q-45 36 -107 27q-62 -10 -94 -74q-5 -10 -9 -66q-3 -56 -4 -127v-113q1 -56 3 -96q1 -21 3 -36t4 -21q9 -27 24 -45q15 -19 34 -29q36 -21 79 -14t75 39q17 17 29 42q12 24 16 54q5 43 15 59t32 16q27 0 36 -39q4 -15 4 -34q0 -28 -8 -64q-7 -30 -24 -56
t-40 -47q-44 -39 -102 -55q-28 -7 -54 -7q-30 0 -59 10z" />
    <glyph glyph-name="D" unicode="D" horiz-adv-x="569" 
d="M87 7q-9 5 -14 12q-5 6 -7 39q-1 15 -2 36q0 21 -1 50q0 41 -1 103v149q0 88 -1 150v38q0 38 1 67v51q1 21 2 37q2 35 7 43q5 9 14 15q9 7 25 8q9 1 37 1q22 0 55 -1h52q22 -1 38 -2q38 -3 55 -12q16 -10 39 -32q20 -21 31 -37t30 -55q25 -52 35 -81t13 -78q1 -16 1 -37
q1 -20 1 -46q1 -30 1 -54q0 -53 -3 -80q-3 -39 -17 -78q-25 -71 -60 -124t-70 -71q-18 -9 -59 -13t-113 -4h-2q-42 0 -61 1q-20 2 -26 5zM309 101q27 12 51 53t40 102q8 30 9 52q2 22 2 92v6v46q-1 23 -2 41q-2 34 -8 58t-18 54q-13 32 -25 51q-11 19 -26 34q-18 18 -36 23
q-17 4 -69 6q-23 1 -37 1h-15q-14 -1 -19 -5t-6 -19q-2 -16 -3 -94v-82v-115v-116v-81q1 -79 3 -94q1 -16 6 -19q6 -5 34 -6h17q20 0 40 1q20 2 37 5q17 2 25 6z" />
    <glyph glyph-name="E" unicode="E" horiz-adv-x="553" 
d="M90 4q-11 5 -16 11t-8 39q-1 14 -2 34q0 21 -1 51q0 42 -1 104v151q0 87 -1 149v38q0 37 1 66v52q1 22 2 36q2 35 6 44q5 9 14 15q7 6 25 8t85 3q32 1 74 1h23q56 0 94 -2q65 -2 80 -4t24 -9q11 -11 12 -30t-11 -31q-5 -5 -14 -7t-51 -3q-18 -1 -44 -1q-26 -1 -62 -1
q-92 -1 -128 -3q-35 -2 -38 -5t-5 -23q-1 -20 -1 -69q0 -60 1 -74q2 -14 8 -18q5 -4 27 -6q23 -1 85 -1q43 0 80 -1q36 -1 44 -3q33 -6 39 -35q7 -28 -21 -42q-8 -4 -33 -6q-25 -1 -96 -1t-95 -1q-25 -2 -30 -5q-4 -3 -6 -11q-2 -9 -2 -42q-1 -18 -1 -46v-67q0 -93 1 -127
t5 -38q3 -3 37 -5q35 -1 124 -3q38 0 66 -1q27 0 46 -1q46 -2 56 -7q11 -5 16 -18q3 -7 3 -14q0 -6 -1 -13q-5 -13 -17 -22q-6 -5 -17 -7q-12 -2 -60 -3h-49t-70 -1h-76q-50 0 -74 1q-39 1 -47 4z" />
    <glyph glyph-name="F" unicode="F" horiz-adv-x="532" 
d="M89 3q-4 1 -9 6q-6 5 -9 10t-5 25q-2 19 -3 95v102q-1 61 -1 150q0 88 -1 150v39q0 38 1 66v53q1 21 2 36q2 35 6 44q5 9 14 15q7 6 25 8t85 3q32 1 74 1h23q56 0 94 -2q65 -2 80 -4t24 -9q12 -11 12 -30v-2q0 -18 -11 -29q-5 -5 -14 -7t-51 -3q-18 -1 -44 -1
q-26 -1 -62 -1q-92 -1 -128 -3q-35 -2 -38 -5t-5 -23q-1 -20 -1 -69q0 -60 1 -74q2 -14 8 -18q5 -4 28 -6q22 -1 84 -1q43 0 80 -1q36 -1 44 -3q33 -6 39 -35q7 -28 -21 -42q-8 -4 -33 -6q-25 -1 -96 -1t-95 -1q-25 -2 -30 -5q-4 -3 -6 -13t-3 -51q-1 -22 -1 -55
q-1 -34 -1 -83q-1 -48 -1 -81q-1 -34 -1 -58q-2 -54 -7 -65q-4 -11 -16 -16q-10 -4 -15 -4q-6 0 -16 4z" />
    <glyph glyph-name="G" unicode="G" 
d="M215 11q-45 16 -79 46q-33 31 -55 75q-8 17 -13 73q-4 56 -6 127q-1 34 -1 67q0 37 1 75q2 72 7 125q2 29 6 49q3 20 7 29q21 41 50 68q29 28 62 42q35 16 73 18q7 1 14 1q30 0 59 -8q66 -18 114 -76q48 -57 48 -147q0 -49 -22 -67t-46 11q-9 10 -12 21t-8 52
q-4 31 -18 55q-13 23 -33 39q-45 36 -107 27q-62 -10 -95 -74q-2 -4 -3 -17q-2 -14 -4 -35q-2 -37 -4 -92q-1 -56 -1 -113q0 -71 2 -129q3 -59 7 -73q13 -35 39 -56q26 -20 57 -27q47 -10 93 11q46 22 61 75q17 58 7 78q-10 21 -56 24q-52 3 -70 18q-19 15 -6 45q7 17 24 21
q18 4 87 4q65 0 84 -5t22 -61v-45q0 -26 1 -61v-74q0 -31 -1 -52q-1 -38 -6 -50q-4 -11 -14 -17q-15 -7 -25 -5q-9 2 -24 15t-24 13t-51 -15q-35 -13 -74 -14q-4 -1 -7 -1q-34 0 -60 10z" />
    <glyph glyph-name="H" unicode="H" horiz-adv-x="574" 
d="M86 9q-8 5 -13 11t-7 39q-1 14 -2 35q0 20 -1 49q0 42 -1 103v148q0 84 -1 145v35q0 39 1 68v59q1 25 2 41q2 30 5 40q4 9 10 16q8 8 22 8h6q17 -2 26 -15q5 -6 7 -17q2 -10 3 -51q1 -17 1 -42t1 -59q0 -39 1 -66q0 -27 1 -45q1 -32 3 -41q2 -8 6 -11q5 -4 50 -6
q44 -1 94 -1q40 0 72 2t36 5t6 11q2 9 3 41q0 18 1 45q0 27 1 65q0 37 1 63q0 27 1 46q2 44 6 55t14 16q9 6 22 5q14 -1 21 -8q9 -7 13 -29t5 -105v-98v-13v-163q-1 -86 -1 -146t-1 -99q-1 -73 -2 -93q-2 -20 -6 -27q-11 -21 -29 -22h-2q-17 0 -31 18q-5 7 -7 17
q-2 11 -3 53q0 17 -1 42v60q-1 39 -1 66q-1 28 -1 46q-1 33 -3 42q-2 8 -6 11t-36 5t-72 2q-50 0 -94 -1q-45 -2 -50 -6q-4 -3 -6 -11q-2 -9 -3 -43q-1 -18 -1 -46q-1 -28 -1 -68q-1 -53 -2 -161l-11 -11q-11 -11 -23 -13q-11 -2 -23 4z" />
    <glyph glyph-name="I" unicode="I" horiz-adv-x="318" 
d="M65 5q-5 3 -10 7q-6 4 -8 7q-5 7 -6 22q0 15 4 24q4 7 17 14t22 7q4 0 9 2q4 2 7 5t4 22q2 19 2 82q1 35 1 85v120v302q-3 2 -10 7q-4 2 -11 5t-13 4q-22 5 -30 27q-2 7 -2 14q0 14 10 25q5 7 13 10t23 6q9 1 22 2q12 1 27 2h25q14 0 29 -1q27 -1 38 -3q18 -4 28 -16
t10 -28t-11 -26q-11 -11 -32 -15q-8 -1 -15 -4q-8 -3 -9 -5q-2 -2 -3 -92q-1 -91 -1 -215v-126t1 -87q1 -81 6 -91q5 -11 18 -11q11 0 24 -7t17 -15q5 -9 5 -20v-7q-2 -15 -11 -23q-11 -11 -30 -13q-17 -3 -76 -3h-2q-40 0 -57 1q-17 2 -25 6z" />
    <glyph glyph-name="J" unicode="J" horiz-adv-x="565" 
d="M227 6q-34 8 -70 31q-36 24 -59 54q-20 26 -31 58q-12 32 -15 62q-1 11 -1 21q0 31 11 53q14 30 45 18q13 -5 20 -20q6 -14 12 -49q10 -69 52 -107q43 -38 91 -36q27 2 52 16q25 13 45 42q9 11 14 22q4 11 7 40q1 13 2 31q0 17 1 41q1 34 1 83q1 49 1 118q1 73 2 125
q0 53 1 89q1 24 2 42q2 17 4 30q4 28 13 32q8 4 25 4q20 0 28 -10q8 -9 11 -58q1 -20 1 -50q1 -30 1 -72q1 -66 1 -122q0 -137 -4 -221q-5 -119 -17 -144q-32 -65 -105 -101q-52 -26 -101 -26q-20 0 -40 4z" />
    <glyph glyph-name="K" unicode="K" horiz-adv-x="551" 
d="M89 6q-4 2 -10 7q-5 4 -8 9q-4 6 -5 25q-2 20 -3 95q0 40 -1 101v151q-1 79 -1 141q0 82 1 134q1 92 3 101q6 23 23 32q8 4 16 4q9 0 19 -5q14 -8 18 -32t4 -108q0 -80 3 -103q2 -23 9 -25q2 -1 41 35q38 35 90 86q35 36 61 60q25 25 44 43q33 31 47 40t25 9q14 0 24 -11
t10 -26q0 -16 -11 -34t-64 -73q-23 -24 -55 -57q-33 -33 -77 -78q-48 -48 -82 -84q-34 -37 -34 -39q0 -3 45 -50t109 -111q63 -64 110 -114q48 -50 51 -56q8 -16 8 -31q0 -4 -1 -9q-4 -18 -21 -25q-10 -4 -15 -4t-16 5q-7 4 -49 42q-41 39 -98 95q-67 67 -101 98
q-35 32 -39 32t-7 -1h-4q0 -1 -1 -37q-1 -37 -2 -88q-1 -40 -3 -122q-4 -5 -14 -13q-11 -10 -19 -12h-4q-7 0 -16 3z" />
    <glyph glyph-name="L" unicode="L" horiz-adv-x="532" 
d="M98 6q-11 4 -17 9q-7 6 -12 14q-2 5 -4 32q-1 28 -2 104q0 40 -1 97v135q-1 78 -1 140q0 83 1 135q1 90 3 100q6 19 15 27q8 7 22 7h4q10 -1 16 -4t11 -10q4 -5 5 -13q2 -7 3 -39q1 -13 1 -32q1 -19 1 -45q0 -38 1 -92q0 -54 1 -129q0 -70 1 -123q0 -53 1 -91
q1 -71 2 -99t4 -30q3 -3 38 -5q34 -2 125 -3q40 0 69 -1q29 0 48 -1q46 -2 55 -9q9 -6 12 -22q2 -6 1 -11q0 -8 -2 -15q-5 -11 -17 -19q-6 -4 -18 -5q-12 -2 -50 -3h-51q-31 -1 -75 -1h-49q-45 0 -81 1q-56 0 -60 1z" />
    <glyph glyph-name="M" unicode="M" horiz-adv-x="572" 
d="M87 9q-5 3 -11 8q-5 4 -7 8q-1 2 -2 16t-1 37q-2 43 -3 113q0 69 -1 148v104q-1 32 -1 61v41q1 90 2 154q1 65 3 72q5 18 14 27q9 8 25 8q15 0 24 -10q10 -9 34 -64q11 -24 25 -58t34 -82q33 -80 44 -101t18 -21q4 0 10 9q5 8 20 41q7 18 18 44q11 27 27 65q15 37 27 64
q11 27 19 46q15 35 23 47q7 12 13 15q8 5 20 5t19 -4q8 -4 12 -12t6 -44q1 -15 1 -37q1 -21 1 -51v-105q1 -62 1 -149q0 -89 -1 -151v-103q0 -76 -2 -97t-5 -28q-10 -18 -25 -22q-14 -3 -29 8q-10 8 -14 23q-5 15 -7 67q-1 27 -2 69q0 42 -1 102q-1 89 -3 153t-4 66
q-4 4 -13 -13q-10 -16 -32 -67q-33 -77 -46 -98q-12 -21 -29 -26q-13 -3 -25 6q-13 9 -24 30q-5 11 -17 38l-24 54q-24 58 -31 71q-8 13 -14 7q-3 -3 -5 -53t-3 -179q-1 -55 -1 -93t-1 -64q-1 -48 -3 -62t-5 -19q-5 -8 -16 -15q-10 -6 -17 -6v0q-2 0 -6 2t-9 5z" />
    <glyph glyph-name="N" unicode="N" 
d="M89 6q-4 1 -10 6q-5 5 -8 10q-4 5 -5 25q-2 19 -3 94q0 40 -1 102v150q-1 79 -1 141q0 82 1 135q1 92 3 101q5 17 15 26t23 9q15 0 27 -12q11 -11 21 -36q8 -19 40 -82q33 -64 72 -137q31 -58 61 -113t50 -90q11 -19 18 -30q6 -11 8 -11q2 -1 5 0t5 3q1 2 3 71
q1 68 2 162q1 58 1 99q1 41 1 69q2 67 8 82q5 14 19 21q10 5 19 5q5 0 10 -2q13 -5 20 -21q3 -7 5 -29q1 -23 2 -95q1 -39 1 -96v-137q1 -65 1 -120q0 -79 -1 -138q-1 -101 -3 -115q-2 -20 -5 -28q-4 -8 -11 -14t-12 -8q-6 -2 -13 0q-16 3 -25 15q-10 11 -18 36
q-8 24 -44 95t-120 227q-57 105 -74 132q-16 27 -22 21q-2 -2 -4 -73q-3 -72 -4 -174q-1 -60 -2 -103q-1 -42 -2 -72q-2 -69 -8 -83q-5 -14 -19 -19q-9 -3 -13 -3t-13 4z" />
    <glyph glyph-name="O" unicode="O" horiz-adv-x="575" 
d="M216 11q-44 15 -78 46q-33 30 -56 74q-8 17 -13 71t-7 122q-1 38 -1 77v3q0 37 1 73q2 71 7 128q5 56 13 73q40 83 117 112q42 16 82 16q35 0 69 -12q40 -13 75 -42t59 -74q8 -13 12 -60q5 -47 6 -109q1 -34 2 -69v-19q0 -27 -1 -53q-1 -83 -7 -152q-5 -69 -14 -89
q-22 -45 -67 -77q-44 -32 -94 -43q-24 -6 -49 -6h-5q-27 1 -51 10zM341 107q37 18 53 47q17 30 20 85q2 32 2 81v34v67q-1 78 -5 144q-3 66 -7 75q-25 49 -72 66q-25 9 -49 9q-22 0 -43 -7q-24 -8 -44 -25q-21 -17 -34 -43q-7 -14 -11 -73q-3 -59 -3 -132v-7v-56
q1 -32 2 -61q2 -55 6 -95q3 -41 9 -52q24 -47 76 -64q22 -7 43 -7q30 0 57 14z" />
    <glyph glyph-name="P" unicode="P" horiz-adv-x="558" 
d="M83 6q-8 5 -13 12q-4 8 -6 42q-1 15 -1 37q-1 21 -1 51v105q-1 63 -1 151v134v12q0 49 1 86v54q1 23 1 40q3 50 10 57q6 7 21 13q14 6 64 6h3q53 0 105 -5q36 -3 64 -7q29 -5 41 -10q30 -15 64 -48q34 -34 47 -61q6 -12 9 -29t5 -36v-23q0 -24 -3 -49q-4 -37 -16 -58
q-36 -69 -92 -95q-56 -25 -169 -26q-44 0 -57 -4q-12 -4 -14 -61q-1 -19 -1 -46q0 -26 -1 -63q0 -36 -1 -62q0 -26 -1 -44q-1 -42 -3 -51t-8 -15q-12 -12 -23 -13q-3 -1 -5 -1q-9 1 -19 7zM332 461q27 12 45 32q18 21 26 46q7 22 7 44q0 25 -8 50q-17 48 -67 69q-10 4 -30 7
q-21 4 -44 5q-29 3 -56 3h-11q-33 -1 -40 -6q-5 -4 -7 -36q-3 -33 -3 -74v-17q0 -41 2 -80q3 -46 8 -50q7 -6 40 -7h18q24 0 49 2q23 2 43 5q19 3 28 7z" />
    <glyph glyph-name="Q" unicode="Q" horiz-adv-x="603" 
d="M258 2q-55 13 -99 65q-44 53 -73 137q-14 44 -20 85q-5 41 -5 117q0 75 5 113q5 39 22 86q27 82 71 135q44 52 94 63q12 3 24 3q27 0 57 -13q42 -19 70 -57q21 -28 45 -78t32 -83q10 -37 13 -103q4 -67 0 -131q-3 -60 -12 -98q-8 -37 -26 -78q-15 -34 -18 -47
q-2 -12 6 -16q4 -2 17 -5t29 -5q45 -6 59 -11q13 -5 19 -18q4 -9 4 -18q0 -5 -1 -10q-3 -15 -16 -24q-9 -6 -18 -8q-10 -1 -38 -1q-26 0 -42 3t-43 12q-14 4 -42 14q-11 -5 -33 -13q-25 -10 -47 -15q-13 -2 -23 -2q-6 0 -11 1zM295 96q5 3 4 15q-2 12 -12 41q-9 24 -12 65
q-3 40 3 58q4 12 15 20q11 9 22 9q18 0 30 -16q11 -16 15 -47q1 -10 3 -20q3 -9 5 -13q4 -5 6 -4q2 0 7 8q16 25 24 92q5 48 5 97q0 20 -1 40q-2 38 -6 73q-5 34 -13 60q-30 94 -74 127q-20 15 -39 15q-25 0 -48 -24q-17 -17 -35 -54q-19 -37 -29 -75q-11 -41 -15 -97
q-2 -33 -2 -65q0 -23 1 -45q1 -30 5 -57t9 -49q13 -52 37 -93t49 -57q11 -6 25 -8h5q10 0 16 4z" />
    <glyph glyph-name="R" unicode="R" horiz-adv-x="566" 
d="M84 6q-8 5 -13 14q-5 10 -7 47q-1 15 -1 37q-1 23 -1 53q-1 33 -1 77v30q1 63 1 151v130q0 55 1 95q0 30 1 52q0 23 1 39q2 49 9 56t21 13q15 6 65 6h3q52 0 105 -5q35 -3 64 -7q29 -5 40 -10q65 -31 94 -80q30 -49 30 -124q0 -90 -48 -148q-48 -57 -133 -69
q-39 -5 -47 -7t-8 -8q0 -2 19 -26t46 -55q46 -53 78 -90t52 -62q38 -48 42 -66q2 -5 2 -10q0 -12 -8 -23q-14 -20 -29 -18q-16 2 -60 47q-23 25 -58 64q-35 40 -85 98q-65 75 -83 93q-17 17 -23 12q-1 -1 -3 -38t-3 -87q-3 -135 -15 -169q-7 -21 -23 -21q-10 0 -25 9z
M334 461q27 12 45 32q17 21 26 46q7 22 7 44q0 25 -9 50q-17 48 -66 69q-10 4 -31 7q-20 4 -43 5q-29 3 -56 3h-12q-32 -1 -39 -6q-5 -4 -7 -36q-3 -33 -3 -74v-17q0 -41 2 -80q2 -46 8 -50q7 -6 40 -7h18q24 0 49 2q23 2 42 5q20 3 29 7z" />
    <glyph glyph-name="S" unicode="S" horiz-adv-x="575" 
d="M230 6q-27 7 -53 23q-25 15 -46 37q-40 41 -59 94q-11 30 -11 56q0 21 7 41q14 40 49 22q35 -19 35 -66q0 -14 12 -39q12 -26 26 -41q35 -37 79 -40q45 -3 81 19q20 11 35 29q15 17 24 39q7 20 8 43q0 24 -9 49q-16 41 -46 61q-31 19 -95 30q-95 16 -150 79
q-54 64 -56 140q0 40 16 81t51 75q36 36 78 52q40 16 81 16h3q77 -1 140 -56t73 -149q1 -11 1 -21q0 -34 -15 -49q-20 -18 -42 -1q-9 8 -17 22q-8 15 -13 37q-9 38 -28 65q-18 28 -43 44q-45 29 -98 16q-53 -12 -84 -74q-32 -63 4 -120q37 -56 118 -68q74 -11 120 -42
q46 -30 75 -87q19 -36 20 -97q0 -62 -18 -99q-33 -69 -106 -104q-49 -23 -97 -23q-25 0 -50 6z" />
    <glyph glyph-name="T" unicode="T" horiz-adv-x="565" 
d="M259 7q-8 5 -12 12t-6 39q-1 13 -2 33q0 19 -1 46q-1 39 -1 96t-1 137q0 74 -1 128q0 53 -1 89q-1 87 -2 105q-2 18 -7 22q-5 3 -23 4q-18 2 -64 2q-67 0 -87 5q-20 4 -27 22q-3 8 -4 16q0 6 3 13q5 13 21 21q9 4 24 6t72 3h59h81h89t62 -1q46 0 61 -2q15 -1 21 -5
q14 -7 19 -23q3 -7 3 -15q0 -7 -3 -14q-7 -18 -26 -22q-18 -4 -86 -4q-57 0 -71 -2q-14 -1 -20 -7q-5 -5 -6 -22q-2 -17 -3 -100v-88v-122v-91t-1 -82q0 -71 -1 -117t-2 -51q-2 -7 -5 -15q-4 -7 -7 -10q-9 -9 -22 -11h-6q-10 0 -17 5z" />
    <glyph glyph-name="U" unicode="U" horiz-adv-x="572" 
d="M224 9q-42 12 -82 46t-62 78q-9 18 -12 37q-4 20 -5 96v79q-1 47 -1 112q0 79 -1 136v19q0 44 1 75q0 27 1 46q1 20 3 33q4 30 12 35q9 5 24 5q19 0 27 -13q9 -12 13 -60q1 -26 2 -64t1 -93q1 -174 5 -281q3 -107 9 -121q11 -26 31 -43q19 -17 43 -26q44 -16 92 -4
q47 13 70 57q8 16 12 37q3 22 5 98q0 33 1 79t1 109q1 74 2 127q0 52 2 88q0 25 2 43q1 17 3 30q4 28 13 33q9 4 25 4q15 0 23 -4t12 -33q1 -12 2 -31q1 -18 2 -45v-92v-133v-116v-82q0 -78 -3 -96q-2 -18 -8 -31q-37 -78 -112 -116q-49 -25 -98 -25q-27 0 -55 7z" />
    <glyph glyph-name="V" unicode="V" horiz-adv-x="563" 
d="M264 6q-10 5 -18 20t-31 87q-10 31 -24 75q-13 45 -32 105q-60 197 -97 323q-37 125 -40 145q-1 6 -1 10v7q2 5 11 14q8 8 14 11q7 3 16 3q12 0 20 -6q9 -5 21 -36q6 -13 12 -33q7 -19 16 -46q12 -39 29 -96q17 -56 41 -134q25 -86 46 -150q20 -64 23 -68q5 -7 7 -8t6 4
q3 3 24 67q20 64 47 151q50 168 74 243q24 76 32 91q9 17 28 20q3 1 6 1q15 0 28 -11q8 -7 10 -17q1 -2 1 -6q0 -12 -6 -40q-4 -15 -10 -37t-14 -52q-13 -43 -32 -105q-19 -63 -45 -150q-26 -84 -44 -145q-18 -60 -31 -101q-9 -30 -16 -50q-7 -21 -12 -34q-12 -33 -18 -40
q-6 -6 -14 -10q-6 -2 -11 -4l-5 -2q-1 0 -4 2q-3 1 -7 2z" />
    <glyph glyph-name="W" unicode="W" horiz-adv-x="758" 
d="M257 25q-4 2 -8 5l-7 7q-1 2 -6 16t-13 37q-14 43 -36 111q-21 68 -45 145q-15 50 -31 101q-15 52 -29 99q-26 88 -44 151t-18 71q0 4 4 11q3 7 7 12q6 7 12 10q6 2 16 2q16 0 25 -6q8 -7 16 -25q7 -17 39 -116q31 -99 71 -232q16 -55 30 -100q14 -46 18 -55
q8 -22 15 -23t14 17t16 48q9 29 16 55q5 17 8 29q3 13 3 16q0 5 -14 54q-14 50 -33 115q-20 65 -34 117q-15 52 -16 61q-1 14 1 19q2 6 11 15q11 11 21 13q10 1 23 -6q9 -4 15 -15q7 -10 19 -45q7 -19 16 -47t21 -67q5 -17 13 -26q7 -9 12 -4q1 1 9 25t18 56t20 61
q10 28 13 36q7 15 19 24t25 9q10 0 23 -14q12 -14 12 -25q0 -9 -20 -82q-21 -73 -55 -186q-9 -31 -16 -56q-6 -25 -6 -30q0 -9 8 -39t17 -60q8 -26 15 -46q7 -19 11 -23q6 -6 12 4t28 83q10 32 24 78t33 111q40 137 62 201t31 73q11 11 23 11q8 0 15 -4q21 -10 21 -37
q0 -16 -24 -104t-71 -246q-16 -53 -37 -124q-20 -70 -34 -116q-10 -33 -17 -57q-6 -23 -12 -39q-9 -29 -15 -38t-15 -14q-12 -7 -21 -7h-1q-10 1 -21 10q-7 6 -16 27q-8 21 -27 78q-13 38 -24 67q-10 28 -12 28q-6 2 -13 -14t-25 -74q-20 -65 -30 -87q-10 -23 -22 -29
t-18 -6t-15 5z" />
    <glyph glyph-name="X" unicode="X" horiz-adv-x="604" 
d="M65 8q-10 4 -17 15t-7 23q0 9 24 52q23 43 90 155q34 56 58 99t25 47q1 7 -12 32q-13 24 -50 87q-37 62 -62 104q-25 43 -41 72q-29 53 -30 69q-2 17 10 29q14 14 29 14q14 0 28 -15q6 -6 32 -47q27 -41 58 -93t56 -91q24 -39 27 -43q6 -7 14 -7t14 7q3 4 27 43l56 91
q31 52 58 93t33 47q15 14 28 15q14 0 27 -13t12 -28q0 -15 -26 -63q-14 -26 -37 -64q-22 -39 -56 -95q-32 -54 -55 -96q-24 -41 -24 -44q0 -4 24 -46t58 -98q68 -114 92 -160q25 -46 25 -59q0 -11 -10 -22t-22 -14q-3 -1 -7 -1q-10 0 -21 8q-15 10 -29 31q-6 10 -31 50
t-53 86q-28 47 -51 81q-22 34 -25 36q-3 3 -7 3q-3 0 -7 -3q-3 -2 -28 -39q-24 -38 -55 -89q-57 -91 -82 -125t-38 -38q-3 0 -10 1q-6 1 -12 3z" />
    <glyph glyph-name="Y" unicode="Y" horiz-adv-x="490" 
d="M227 6q-4 2 -9 7q-6 4 -9 9q-5 8 -7 34t-3 124q-1 49 -3 146q-20 50 -62 148q-63 150 -88 216q-26 66 -26 80q0 23 26 33q9 3 17 3q14 1 25 -11q8 -9 26 -47t49 -115q38 -90 53 -124q16 -34 20 -36q3 -1 6 0q4 2 7 5t19 39t36 83q17 40 30 70q12 29 21 50q17 38 25 53
t15 21q12 12 25 11q14 0 27 -12q12 -13 12 -29v-1q0 -18 -30 -93q-13 -32 -32 -78q-20 -46 -47 -111q-24 -57 -42 -102t-20 -53q-3 -8 -4 -47q-1 -40 -1 -102v-66q-1 -26 -2 -45q-2 -33 -8 -43q-5 -9 -19 -15q-6 -2 -11 -4l-5 -2q-1 0 -4 1q-3 2 -7 3z" />
    <glyph glyph-name="Z" unicode="Z" horiz-adv-x="534" 
d="M69 5q-15 6 -22 18t-5 26q2 12 62 137q60 124 160 326q38 74 64 129t26 59q0 3 -2 7q-2 3 -5 5q-4 1 -45 3q-42 2 -98 3q-37 0 -62 1q-26 1 -42 2q-32 2 -41 6t-14 13q-4 8 -4 18v6q2 13 10 23q6 7 15 10t35 6q16 2 73 2q30 1 62 1h60q33 -1 58 -1q24 0 41 -1
q41 -1 52 -3q10 -2 17 -6q13 -10 16 -22t-2 -29q-1 -3 -8 -17q-7 -15 -18 -39q-22 -45 -57 -117q-36 -71 -77 -154q-22 -45 -43 -86q-20 -42 -38 -78q-32 -67 -52 -109q-21 -42 -21 -44q0 -3 3 -6q3 -4 7 -5q5 -1 44 -2h90q51 -1 93 -2q41 -1 48 -3q16 -3 25 -13
q8 -10 8 -25t-3 -22q-4 -8 -16 -14q-6 -3 -19 -5q-14 -2 -53 -2q-21 -1 -52 -1q-30 0 -73 -1h-76q-51 0 -74 1q-39 1 -47 5z" />
    <glyph glyph-name="bracketleft" unicode="[" horiz-adv-x="551" 
d="M95 -136q-6 2 -13 8q-8 5 -11 10q-4 5 -6 14q-1 9 -2 49q-1 16 -1 41v59q0 48 -1 119v169q0 108 1 182v124q0 91 2 115q2 23 5 29q8 12 19 17q12 4 63 5q22 1 54 1h77h77q32 0 53 -1q39 0 51 -2t17 -5q14 -9 18 -20t-1 -27t-15 -22q-11 -7 -56 -8q-19 -1 -47 -1h-67
q-92 0 -122 -1q-31 -2 -36 -6q-3 -2 -5 -8q-1 -7 -2 -35q-1 -15 -1 -38v-57q-1 -41 -1 -100v-142v-141t1 -101v-56t1 -38q1 -28 2 -35q2 -7 5 -9q5 -4 36 -5t123 -1h61q25 0 42 -1q32 0 44 -2q12 -1 19 -5q20 -10 21 -34v-1q0 -22 -20 -35q-5 -4 -17 -5q-12 -2 -50 -3
q-21 0 -51 -1h-73h-68h-75q-43 1 -51 4z" />
    <glyph glyph-name="backslash" unicode="\" horiz-adv-x="525" 
d="M424 -36q-4 4 -22 36q-17 32 -44 84q-50 95 -123 240q-72 145 -143 291q-20 41 -33 69q-13 29 -21 48q-12 30 -13 44q0 2 1 4q3 12 17 20q12 6 21 6h4q11 -2 23 -14q12 -13 88 -160q75 -146 188 -378q29 -58 49 -99q20 -42 34 -71q25 -52 32 -70q7 -17 7 -24q0 -4 -3 -10
q-4 -7 -8 -12q-11 -13 -27 -15h-3q-14 0 -24 11z" />
    <glyph glyph-name="bracketright" unicode="]" horiz-adv-x="555" 
d="M88 -137q-23 3 -30 7t-13 19q-4 9 -4 15v2q0 5 2 12q5 14 14 20q9 5 55 7q19 1 47 2q28 0 67 1q39 0 67 1q27 0 45 1q33 1 41 3q9 1 12 5q1 2 2 16q0 14 1 38q2 44 2 115q1 72 1 152q1 53 0 106v103q-1 91 -2 155q-2 63 -4 67q-3 4 -12 5q-8 2 -42 3q-18 1 -45 1
q-27 1 -67 1q-36 1 -61 1q-26 1 -43 1q-42 1 -51 3q-9 3 -15 8q-4 4 -8 11q-4 6 -5 11q-2 13 5 27q6 14 17 19q7 2 54 4q47 1 145 1h32h48q33 0 56 -1q53 -1 62 -7q10 -6 16 -23q2 -6 3 -58t2 -131q1 -43 1 -90v-98v-68v-55v-120q-1 -106 -2 -180q-2 -75 -4 -82
q-6 -17 -16 -23q-9 -6 -58 -8q-20 -1 -50 -1h-73h-37h-89q-56 1 -66 2z" />
    <glyph glyph-name="asciicircum" unicode="^" horiz-adv-x="474" 
d="M47 562q-21 11 -21 30v1q-1 18 18 42q8 10 24 27q16 18 36 38q29 31 58 59q28 28 38 35q16 12 29 12t32 -13q7 -5 26 -22q19 -18 43 -42q34 -34 67 -69t37 -43q5 -10 5 -20q0 -14 -11 -27q-12 -13 -27 -13q-8 0 -17 4q-6 3 -28 23q-23 21 -49 46q-32 31 -51 46
q-18 16 -23 16t-22 -14q-17 -15 -45 -42q-64 -61 -83 -73q-18 -11 -36 -1z" />
    <glyph glyph-name="underscore" unicode="_" horiz-adv-x="583" 
d="M24 -80q-24 11 -24 35v5q3 29 30 36q5 2 83 3q77 1 181 1h95t68 -1q66 0 81 -2t23 -6q21 -12 22 -32v-2q0 -18 -19 -32q-6 -5 -21 -7q-14 -2 -80 -2q-29 -1 -70 -1h-98h-97h-16h-55q-55 0 -76 1q-21 2 -27 4z" />
    <glyph glyph-name="grave" unicode="`" horiz-adv-x="335" 
d="M239 609q-11 6 -32 22q-21 17 -94 79q-32 27 -52 47q-21 20 -26 29q-9 16 -9 33v3q0 16 7 33q15 32 43 42q11 4 23 4q17 0 35 -9q12 -5 24 -20q12 -14 42 -59q28 -41 47 -70q19 -28 31 -48q22 -35 25 -48v-6q0 -9 -4 -18q-4 -7 -18 -14q-14 -8 -22 -8h-1q-2 0 -8 3
q-5 2 -11 5z" />
    <glyph glyph-name="a" unicode="a" horiz-adv-x="548" 
d="M208 10q-48 11 -82 36q-35 25 -54 57q-26 42 -26 89q0 21 6 43q16 72 93 114q35 19 94 24q59 6 101 -5q23 -7 27 -6q4 0 4 7q0 6 -17 24q-18 19 -30 25q-13 7 -41 11t-76 6q-58 3 -74 11q-15 8 -15 35t18 33q15 5 73 5h25q25 0 45 -1q19 -1 34 -3q35 -4 56 -18
q22 -13 51 -43q27 -27 40 -46q12 -20 17 -50q2 -12 4 -28q1 -16 2 -37q4 -71 4 -124q0 -93 -11 -131q-10 -34 -31 -34q-16 0 -39 19q-9 8 -16 8q-6 -1 -35 -11q-35 -12 -74 -15q-40 -3 -73 5zM314 103q48 14 70 49q12 20 12 40q0 15 -7 31q-9 17 -24 30q-16 13 -36 21
q-30 12 -66 12h-15q-44 -3 -76 -28q-19 -14 -28 -30t-10 -32q-1 -2 -1 -5q0 -14 6 -27q6 -16 19 -29q24 -25 66 -36q17 -4 36 -4q26 0 54 8z" />
    <glyph glyph-name="b" unicode="b" horiz-adv-x="557" 
d="M86 9q-8 5 -13 11t-7 39q-1 14 -2 35q0 20 -1 49q0 42 -1 103v148q0 84 -1 145v35q0 39 1 68v59q1 25 2 41q2 30 5 40q4 9 10 16q8 8 22 8h6q17 -2 26 -15q5 -6 7 -16t3 -47q1 -17 1 -39q1 -22 1 -52q1 -59 2 -101l1 -42q3 -4 17 -1t29 10q10 5 27 10q17 4 30 6
q67 11 133 -24t97 -98q8 -17 11 -28q3 -12 4 -46v-26v-34v-35v-26q-1 -34 -4 -45q-3 -12 -11 -29q-22 -44 -67 -79q-46 -34 -95 -43q-27 -5 -58 -2q-30 3 -55 14q-42 17 -49 18q-7 0 -18 -11q-8 -10 -20 -16q-10 -7 -17 -7h-1t-5 2q-5 2 -10 5zM338 107q19 9 36 25
q16 17 28 39q6 12 8 26t3 56q1 11 1 22q0 44 -6 64q-6 25 -31 50q-42 42 -95 41q-10 0 -21 -1q-67 -10 -97 -73q-9 -18 -11 -31t-2 -62q0 -50 2 -63t11 -31q14 -29 41 -49t59 -25q11 -2 21 -2q9 0 16 2q16 2 37 12z" />
    <glyph glyph-name="c" unicode="c" horiz-adv-x="494" 
d="M218 10q-52 14 -96 54t-60 89q-7 21 -10 75q-1 22 -1 41q0 29 3 53q4 45 18 73q13 28 45 60q17 17 32 28t31 19q23 11 35 13t58 2t57 -2q12 -2 33 -13q30 -15 46 -29q17 -14 25 -29t8 -23q1 -8 -6 -21q-10 -20 -31 -19q-20 1 -52 23q-25 17 -43 22q-18 6 -45 4
q-38 -2 -67 -21t-45 -52q-9 -18 -11 -31t-2 -63q0 -45 2 -60t8 -29q14 -31 41 -51q26 -21 60 -27q25 -5 48 1t54 25q32 20 47 22q16 1 30 -13q13 -13 13 -27q0 -4 -2 -9q-4 -19 -30 -41q-38 -33 -91 -45q-27 -6 -52 -6t-50 7z" />
    <glyph glyph-name="d" unicode="d" horiz-adv-x="562" 
d="M217 9q-46 13 -84 45q-38 31 -62 77q-11 21 -15 33t-4 43q-1 10 -1 23v31v31v23q1 31 5 43q3 13 14 34q26 52 69 85q44 33 99 43q29 5 56 1t60 -17q11 -4 19 -8q8 -3 14 -4q12 0 14 27q1 28 3 111q1 38 2 65q0 26 2 45q2 34 7 45q4 11 13 16t20 5h3q14 -1 22 -8
q4 -3 8 -10q4 -8 5 -15q2 -6 3 -67t1 -147v-96v-48v-52v-80v-74q-1 -65 -2 -109t-2 -51q-6 -37 -26 -44t-45 18q-14 13 -21 13q-7 -1 -49 -19q-27 -11 -64 -13q-9 -1 -17 -1q-26 0 -47 6zM326 107q22 10 42 33q21 22 28 44q4 13 5 30q1 10 1 27v30q-1 44 -3 58t-10 28
q-13 26 -33 42q-21 17 -44 24q-21 7 -42 7q-24 0 -49 -9q-46 -17 -69 -64q-9 -19 -11 -32q-1 -13 -1 -62q0 -50 1 -63q2 -12 11 -31q14 -29 41 -49t59 -25q11 -1 22 -1q8 0 15 1q17 2 37 12z" />
    <glyph glyph-name="e" unicode="e" horiz-adv-x="542" 
d="M221 7q-45 10 -86 45q-42 35 -65 82q-12 24 -17 75q-2 24 -2 49q0 27 3 56q3 34 6 48q4 14 15 36q42 86 133 112q32 10 64 10q58 0 114 -31q20 -11 45 -37t36 -48q13 -24 19 -50q5 -19 5 -34v-9q-2 -18 -12 -27q-9 -10 -76 -38q-22 -10 -52 -22q-30 -13 -71 -29
q-40 -17 -71 -31q-30 -14 -32 -18q-3 -4 -2 -8q2 -4 8 -11q13 -14 33 -22q19 -8 44 -10q30 -1 50 4q20 6 47 24q32 21 51 20q19 0 31 -21q14 -28 -22 -64q-37 -36 -93 -49q-24 -6 -53 -7h-6q-26 0 -44 5zM273 291q42 17 74 32q33 15 36 18q6 6 6 10v1q0 4 -3 11
q-10 25 -40 44t-64 22h-13q-53 0 -90 -37q-40 -43 -40 -112q0 -12 1 -22q1 -9 2 -11q2 -2 7 -2q7 0 23 6q26 8 101 40z" />
    <glyph glyph-name="f" unicode="f" horiz-adv-x="479" 
d="M186 6q-5 2 -11 8t-9 13q-4 7 -5 21q-2 13 -3 53q-1 21 -1 52t-1 75v70q0 29 -1 50q-1 63 -11 68q-9 5 -41 5q-25 0 -44 4q-20 5 -28 12q-11 10 -11 27q0 4 1 8q3 24 18 31q4 1 21 3t37 3q28 1 40 3q12 3 14 6t4 13q1 10 2 22q7 73 17 104q11 31 42 64q26 29 72 50
q44 21 79 21h1q29 0 47 -18q13 -13 13 -27q0 -5 -2 -11q-4 -14 -18 -22t-43 -13q-30 -6 -48 -15q-18 -8 -34 -23q-17 -18 -27 -43q-9 -24 -11 -58q-2 -39 8 -46t69 -7q47 0 65 -4q17 -5 25 -18q5 -10 4 -24q-2 -13 -10 -22q-10 -11 -30 -16q-20 -4 -67 -4h-24q-10 1 -17 -1
q-14 -2 -19 -17q-4 -15 -5 -58q-1 -21 -1 -51v-72q0 -46 -1 -79q0 -33 -1 -55q-2 -54 -8 -65t-21 -17q-5 -2 -10 -3l-4 -1l-4 1q-3 2 -8 3z" />
    <glyph glyph-name="g" unicode="g" horiz-adv-x="554" 
d="M194 -338q-25 8 -54 27t-43 38q-16 22 -14 40q2 19 22 29q13 7 27 3q13 -5 41 -25q49 -35 97 -32q47 3 84 44q30 32 32 59t-24 55q-17 19 -41 30q-24 10 -61 14q-77 8 -114 50t-59 147q-4 18 -11 43q-8 25 -14 43q-12 34 -15 63q-1 8 -1 16q0 20 5 38q6 21 26 49t43 46
q31 25 57 33q27 8 91 11q30 2 56 4q25 2 30 4q16 5 38 16q21 12 47 30q29 20 46 22q2 1 5 1q13 0 24 -13q10 -11 10 -25q0 -10 -5 -21q-13 -26 -52 -52q-38 -25 -42 -30q-3 -4 6 -19q15 -26 22 -45t9 -40q2 -31 -7 -59q-9 -29 -26 -52q-31 -45 -87 -69q-55 -25 -118 -18
q-12 2 -22 2t-13 -1q-10 -3 3 -31t31 -39q4 -3 21 -8q16 -4 35 -8q18 -3 39 -8q20 -5 31 -9q35 -14 66 -42t49 -63q15 -28 13 -64q-1 -35 -18 -70q-12 -24 -41 -54q-28 -29 -52 -42q-38 -21 -85 -26q-14 -1 -26 -1q-33 0 -61 9zM293 211q33 10 57 36q24 27 24 53
q0 14 -10 33q-11 20 -26 32q-17 15 -38 22t-46 7h-1q-23 0 -41 -6q-18 -5 -34 -17q-35 -27 -41 -60q-1 -6 -1 -12q0 -26 20 -50q25 -29 62 -39q17 -5 35 -5q20 0 40 6z" />
    <glyph glyph-name="h" unicode="h" horiz-adv-x="562" 
d="M85 9q-8 6 -12 12t-7 20q0 3 -1 18t-1 39q-1 44 -2 113q0 68 -1 145v57v44q1 51 1 98q0 87 1 148q2 61 3 68q6 19 15 26q8 7 21 7h5q10 -1 16 -4t11 -10q5 -6 7 -16q2 -11 3 -48q0 -16 1 -38q0 -22 1 -52q1 -59 2 -101t1 -43q2 -3 17 0q14 3 29 10q9 5 26 9q16 5 29 7
q48 9 99 -8q50 -16 87 -52q32 -32 45 -56q14 -24 17 -81q2 -24 2 -57q1 -33 1 -78v-46v-12v-41q-1 -40 -3 -50t-6 -17q-14 -18 -30 -18h-5q-19 3 -31 28q-4 7 -5 19q-2 11 -3 42q-1 16 -1 40q-1 24 -1 58q-1 92 -3 120q-2 27 -7 39q-8 19 -26 38t-38 29q-14 8 -24 10
q-11 2 -33 2q-43 0 -73 -18t-47 -54q-7 -13 -9 -23q-3 -11 -4 -44q-1 -14 -2 -34q0 -20 -1 -47q-1 -43 -2 -73t-3 -50q-2 -37 -4 -49q-3 -12 -9 -18q-10 -12 -22 -14q-11 -1 -24 6z" />
    <glyph glyph-name="i" unicode="i" horiz-adv-x="305" 
d="M191 3q-8 3 -16 11t-11 17q-2 5 -4 55q-2 51 -3 128q-1 41 -2 70q0 28 -1 48q-1 37 -3 49q-1 12 -5 17q-9 14 -22 21q-12 6 -37 10q-13 2 -25 5q-13 2 -18 4q-12 5 -19 18q-5 10 -5 20q0 4 1 8q4 22 30 31q14 5 33 5q14 0 32 -3q28 -5 50 -18q23 -12 41 -32t25 -36
q7 -17 9 -68q1 -21 1 -52q1 -30 1 -73q1 -48 1 -82v-19v-39q-1 -44 -4 -60q-3 -15 -10 -23q-8 -8 -19 -12q-6 -2 -11 -2t-9 2zM135 583q-29 15 -40 45q-4 13 -4 26q0 16 8 33q14 28 40 41q15 7 29 7q11 0 22 -4q32 -14 45 -42q8 -18 8 -36q0 -11 -2 -21q-4 -14 -14 -27
t-27 -21q-18 -10 -32 -10q-15 0 -33 9z" />
    <glyph glyph-name="j" unicode="j" horiz-adv-x="316" 
d="M-30 -338q-10 8 -14 24q-2 6 -2 12q0 8 3 15q6 13 20 19q13 5 47 9q50 6 77 23q28 17 45 52q7 13 9 29q3 16 4 85v71q1 42 1 100q1 108 0 190q0 82 -1 90q-4 27 -27 43q-22 15 -57 15q-22 0 -37 13q-14 13 -14 32q0 11 8 23t18 16q11 4 32 5q9 0 20 -1q36 -3 55 -12
q19 -8 43 -30q23 -21 32 -38q8 -15 11 -44q4 -28 5 -99q1 -37 1 -89v-4q0 -53 -1 -127v-105q-1 -43 -1 -73q-1 -71 -4 -89t-11 -34q-17 -32 -48 -63q-31 -30 -65 -47q-24 -12 -37 -15q-12 -3 -49 -4q-18 -1 -30 -1q-10 1 -15 1q-10 1 -18 8zM138 590q-35 18 -41 60
q-1 7 -1 14q0 32 23 56q23 23 52 22q30 0 53 -23t23 -54q0 -8 -1 -17q-9 -41 -48 -59q-16 -8 -30 -8h-1q-14 1 -29 9z" />
    <glyph glyph-name="k" unicode="k" horiz-adv-x="545" 
d="M86 9q-8 5 -13 11t-7 39q-1 14 -2 35q0 20 -1 49q0 42 -1 103v148q0 84 -1 145v35q0 39 1 68v59q1 25 2 41q2 30 5 40q4 9 10 16q8 8 22 8h6q17 -2 26 -15q5 -6 7 -19t3 -70q1 -24 1 -58q1 -35 1 -82q1 -90 2 -154t1 -65h4q3 -1 7 -1t28 22q25 21 68 64q40 39 67 64
q27 24 32 25q17 4 32 -10t15 -34q0 -11 -17 -33q-18 -23 -59 -65q-21 -21 -34 -37q-14 -17 -14 -21q0 -3 30 -37q30 -33 80 -84q45 -47 80 -85q34 -38 37 -44q5 -11 5 -20q0 -3 -1 -7q-2 -11 -15 -22t-23 -11q-11 0 -25 11q-6 4 -43 39q-36 34 -81 78q-62 60 -88 83t-32 23
q-5 0 -13 -6q-8 -5 -18 -16q-9 -9 -15 -16l-6 -7q-1 -1 -2 -26q-1 -24 -2 -58q-2 -61 -3 -73q-2 -13 -10 -21q-11 -11 -23 -13q-3 0 -6 -1q-8 0 -17 5z" />
    <glyph glyph-name="l" unicode="l" horiz-adv-x="315" 
d="M174 8q-35 12 -60 33q-24 20 -38 51q-5 10 -7 20q-3 10 -4 41q-1 13 -1 31q-1 18 -1 43q0 35 -1 87v122q0 74 -1 128v29q0 36 1 63q0 89 4 111q4 21 13 31q8 8 22 8h6q17 -2 26 -15q5 -6 7 -23t3 -97q1 -34 1 -83q1 -50 1 -119q1 -45 1 -87q1 -41 1 -78q1 -68 2 -111
q2 -44 2 -47q5 -18 17 -31q12 -12 31 -18q9 -2 20 -4t17 -2q17 0 29 -8t17 -21q2 -8 2 -16q1 -5 -1 -10q-2 -11 -13 -21q-7 -7 -15 -9t-30 -3h-7q-11 0 -22 1q-15 2 -22 4z" />
    <glyph glyph-name="m" unicode="m" horiz-adv-x="629" 
d="M80 7q-15 6 -21 19q-5 14 -7 76q0 27 -1 65v93v50v30v58q1 55 3 70q1 15 6 24q9 19 22 24q12 5 30 -1q17 -7 30 -7q12 0 32 6q19 6 35 6q10 0 19 -3q23 -6 52 -31q9 -7 17 -13q9 -5 12 -5q4 0 12 5q9 5 17 12q24 21 38 27q15 6 39 6q46 0 82 -33q37 -34 58 -95
q7 -20 9 -35q3 -15 3 -65v-40q1 -22 1 -52v-20q0 -27 -1 -48v-48q-2 -47 -7 -59q-6 -12 -19 -17q-22 -9 -36 4q-15 14 -17 46q-1 10 -3 57q-1 48 -3 103q0 25 -1 45q0 19 -1 34q-1 43 -4 56t-11 30q-23 46 -47 47q-23 1 -46 -45q-7 -15 -10 -27t-5 -55q0 -18 -1 -43
q-1 -26 -2 -62q-1 -38 -1 -66q-1 -28 -2 -48q-3 -47 -8 -58q-5 -12 -17 -18q-7 -4 -15 -4q-7 0 -15 3q-16 8 -23 26q-2 4 -4 51q-2 48 -4 110q-1 42 -2 71q0 30 -2 51q-2 39 -8 55q-5 17 -15 33q-18 26 -38 25q-20 -2 -37 -32q-5 -9 -10 -23q-5 -13 -7 -23t-5 -60
q-2 -50 -3 -110q-2 -96 -4 -123q-2 -28 -7 -35q-7 -12 -20 -16t-27 2z" />
    <glyph glyph-name="n" unicode="n" horiz-adv-x="576" 
d="M91 6q-15 6 -21 19q-6 14 -8 76v65q-1 38 -1 91v19q0 106 2 151q1 49 4 58q10 28 30 32t42 -17q13 -13 18 -14t22 7q26 11 55 19q29 7 48 7h1q23 1 52 -7q29 -7 51 -19q23 -13 53 -41q29 -29 41 -51q12 -23 17 -59q4 -36 6 -140q1 -45 1 -78v-1q0 -32 -1 -54
q-3 -42 -12 -55t-28 -13q-12 0 -23 8q-10 7 -16 21q-1 4 -4 49q-2 45 -3 107q-1 32 -1 54q-1 23 -1 40q-1 38 -4 50q-2 11 -7 21q-18 34 -46 53t-65 22q-32 2 -55 -6q-23 -9 -47 -32q-19 -19 -27 -36t-12 -63q-1 -21 -2 -48q-1 -28 -2 -66q-2 -86 -4 -115t-7 -38
q-7 -13 -20 -18q-12 -4 -26 2z" />
    <glyph glyph-name="o" unicode="o" horiz-adv-x="552" 
d="M207 11q-41 14 -79 47q-37 32 -56 70q-13 28 -18 77q-3 24 -3 51t3 57q4 50 17 79q12 28 45 61q39 40 86 56q32 10 67 10q17 0 35 -2q36 -5 66 -21q29 -15 58 -44q34 -34 45 -60q12 -26 16 -76q1 -24 1 -54q0 -29 -1 -53q-3 -34 -6 -49t-10 -30q-19 -39 -58 -72t-81 -46
q-27 -8 -65 -9h-3q-36 0 -59 8zM326 104q17 8 36 26t29 38q7 13 9 27q1 14 1 67q0 52 -1 66q-2 14 -9 27q-13 26 -34 43q-21 16 -45 24q-20 6 -41 6q-24 0 -50 -9q-46 -17 -70 -66q-4 -10 -7 -25q-3 -16 -4 -35q-1 -13 -1 -26q0 -22 2 -46q4 -37 13 -56q21 -45 73 -63
q24 -9 47 -9q27 0 52 11z" />
    <glyph glyph-name="p" unicode="p" horiz-adv-x="552" 
d="M71 -336q-4 5 -8 13t-5 17q0 3 -1 21v48q-1 55 -1 145v28q0 78 1 166v144q1 61 1 106q1 82 2 113q2 32 4 36q5 9 20 16q11 5 18 5q3 0 5 -1q4 -1 11 -7q7 -5 14 -12q12 -11 17 -12t23 7q34 15 55 19t58 3q34 -1 46 -4t39 -17q34 -16 63 -45q30 -29 45 -60q10 -19 11 -36
q2 -16 2 -94v-34t-1 -26q0 -34 -3 -46q-3 -11 -11 -28q-14 -29 -42 -57q-28 -29 -56 -43q-45 -23 -91 -25q-45 -2 -92 16q-32 12 -41 13q-10 1 -12 -9q-1 -4 -2 -57t-1 -123q-1 -38 -1 -65t-1 -46q0 -44 -3 -54q-2 -9 -9 -14q-12 -11 -28 -11q-15 0 -26 10zM332 107
q20 9 36 26q17 17 28 38q7 13 9 27t3 53q1 11 1 22q0 37 -5 58q-6 26 -26 51q-19 24 -44 35q-24 12 -57 12q-41 0 -71 -18q-29 -17 -48 -53q-8 -16 -10 -29t-2 -66q0 -50 2 -65q1 -14 8 -28q9 -18 29 -38q20 -19 37 -26q29 -12 55 -12h1q27 0 54 13z" />
    <glyph glyph-name="q" unicode="q" horiz-adv-x="564" 
d="M421 -336q-9 8 -11 20t-4 74q-1 34 -2 86t-1 91q-1 78 -4 91q-4 12 -25 3q-63 -26 -109 -26t-98 26q-28 14 -53 41q-25 26 -43 61q-11 21 -15 33t-4 43q-1 10 -1 23v31v31v23q1 31 5 43q3 12 14 33q18 37 45 65t62 45q25 12 36 14q12 2 57 2q43 0 55 -2q13 -2 35 -13
q12 -5 23 -10q10 -4 12 -4q3 0 7 4q5 3 9 8q13 13 27 18q7 3 13 3q7 0 12 -3q10 -4 15 -11q5 -6 7 -38q2 -14 2 -34q1 -20 2 -49q0 -41 1 -100q0 -60 1 -145q0 -92 1 -169q1 -78 1 -124q1 -24 1 -38v-14l5 -3l10 -5q19 -10 27 -19q8 -10 8 -23q0 -24 -36 -58
q-35 -34 -60 -34q-7 0 -14 2q-7 3 -13 8zM326 107q22 10 42 33q21 22 28 44q3 9 4 27q2 18 2 39v6q0 28 -2 55q-3 30 -8 41q-10 20 -27 37t-37 27q-26 13 -56 13q-14 0 -27 -2q-46 -9 -73 -39q-21 -25 -27 -46q-5 -22 -5 -79q0 -45 1 -60q2 -15 8 -29q14 -31 42 -52
q27 -21 61 -27q11 -1 22 -1q8 0 15 1q17 2 37 12z" />
    <glyph glyph-name="r" unicode="r" horiz-adv-x="551" 
d="M80 7q-5 2 -10 9q-6 7 -10 14q-4 9 -6 24t-2 71q-1 23 -1 57v80v80t1 57q0 56 2 71t6 24q12 25 32 26q19 2 38 -20q5 -5 10 -9t8 -4q2 0 13 4q10 4 21 9q28 13 72 19q29 3 57 3q13 0 27 -1q21 -1 40 -5q18 -3 30 -10q18 -9 42 -34t31 -42q10 -22 12 -56q1 -11 1 -20
q0 -20 -4 -32q-6 -19 -21 -27q-16 -9 -31 -2q-15 6 -21 18q-7 12 -10 40q-1 14 -5 27q-3 14 -6 20q-12 24 -53 31q-41 8 -83 -1q-23 -4 -44 -13q-20 -9 -34 -22q-16 -15 -24 -30t-12 -35q-2 -10 -4 -56q-3 -46 -4 -101q-1 -37 -2 -63q-1 -27 -3 -45q-2 -33 -8 -43
q-5 -10 -17 -14q-10 -4 -14 -4v0q-4 0 -14 5z" />
    <glyph glyph-name="s" unicode="s" horiz-adv-x="480" 
d="M174 10q-10 3 -23 9q-13 5 -21 10q-19 11 -41 34q-21 23 -29 41q-12 26 -7 52q4 26 22 34q20 9 35 0q15 -10 29 -41q11 -24 25 -35q13 -11 42 -18q18 -5 34 -5q17 1 31 5q43 12 56 46q13 35 -33 58q-7 3 -26 8t-38 8q-60 8 -92 23t-55 45q-32 40 -32 83q0 18 5 37
q19 63 91 97q20 10 33 12q13 3 46 4h22h22q15 -2 32 -8q55 -18 86 -53q30 -35 30 -80q0 -27 -17 -41q-17 -15 -38 -5q-11 5 -16 13q-5 7 -17 34q-10 25 -34 39q-24 13 -58 13q-25 0 -43 -6t-34 -20q-19 -17 -21 -32t13 -31q12 -14 31 -22q20 -7 57 -12q64 -9 105 -32t61 -61
q12 -23 12 -57v-4q-1 -36 -15 -63q-12 -25 -44 -47q-31 -22 -70 -34q-23 -7 -54 -7q-2 0 -4 1q-34 0 -58 8z" />
    <glyph glyph-name="t" unicode="t" horiz-adv-x="472" 
d="M320 12q-50 18 -88 54q-39 36 -56 82q-4 12 -6 41t-4 106q-2 89 -3 109q-2 20 -8 24q-5 4 -17 5q-13 2 -36 2q-36 0 -50 4t-25 19q-5 7 -6 13v3q0 5 1 12q5 19 22 26q16 8 60 10q22 2 37 4q14 2 17 5t5 17q2 15 3 40q1 36 3 45q2 8 11 16q13 11 28 11q3 0 6 -1
q19 -2 27 -18q3 -4 5 -21q3 -17 4 -37t3 -35q3 -15 5 -18q2 -2 17 -4q14 -2 33 -3q38 -3 54 -9q17 -6 24 -20q6 -13 4 -22t-12 -21q-10 -11 -18 -13t-46 -3q-25 -2 -39 -4q-15 -2 -18 -4q-3 -4 -4 -27q-1 -24 0 -86q0 -33 1 -57t2 -42q3 -31 10 -46t22 -31q20 -21 38 -30
q19 -10 51 -16q40 -8 55 -23q9 -10 9 -22q0 -8 -3 -16q-10 -23 -43 -28q-9 -1 -19 -1q-26 0 -56 10z" />
    <glyph glyph-name="u" unicode="u" horiz-adv-x="556" 
d="M218 9q-43 12 -82 45q-40 33 -63 77q-9 18 -13 32q-3 13 -5 57q-1 15 -1 34q-1 19 -1 44q-2 57 -2 96q0 38 2 60q3 42 14 54q14 16 34 12t28 -24q2 -7 5 -45q2 -38 4 -102q1 -38 2 -66t2 -49q4 -48 13 -66t30 -38q22 -21 44 -28q21 -8 54 -6q29 2 50 11q20 10 38 30
q15 18 23 36q7 19 10 58q2 22 2 51q1 29 1 69q0 45 1 82q2 38 3 46q6 28 27 38q7 4 14 4q13 0 24 -12q8 -8 13 -31q4 -22 5 -78q1 -30 1 -72v-3q0 -41 -1 -95q-1 -118 -2 -155q-2 -36 -6 -46q-11 -24 -33 -25t-38 21q-8 12 -15 12q-8 0 -28 -10q-35 -18 -77 -22
q-14 -2 -28 -2q-26 0 -49 6z" />
    <glyph glyph-name="v" unicode="v" horiz-adv-x="494" 
d="M217 13q-7 6 -14 19t-23 51q-9 21 -22 50q-12 30 -30 72q-55 131 -77 188t-24 74q-1 7 -1 12q0 4 1 7q1 5 10 15q7 6 14 10q6 3 13 3q14 0 24 -9q11 -10 32 -55q11 -24 27 -61t38 -91q19 -44 35 -77q15 -33 18 -35q4 -3 8 -3q3 1 6 4t19 40q17 37 37 86q16 40 28 68
q12 29 21 50q17 38 25 53q9 14 16 21q11 10 25 11q6 0 12 -2q21 -7 25 -28q1 -3 1 -7q0 -14 -8 -37q-9 -30 -45 -118q-58 -143 -94 -225t-45 -88q-11 -9 -25 -9h-2q-15 1 -25 11z" />
    <glyph glyph-name="w" unicode="w" horiz-adv-x="702" 
d="M195 7q-10 4 -19 18q-8 14 -28 68q-10 30 -26 75q-15 44 -36 109q-25 73 -43 128q-17 56 -17 60q0 13 7 25q8 12 20 16q9 4 14 4q5 -1 15 -6q17 -9 31 -40q15 -31 49 -132q27 -78 38 -103q11 -24 18 -18q2 3 13 32t24 69q7 22 15 45t15 45q10 33 19 59t12 30q11 17 30 17
q18 0 32 -18q4 -5 19 -46q16 -41 33 -95q18 -53 31 -93q14 -39 15 -42q7 -11 18 10q10 21 35 94q35 100 47 132q13 32 22 43q15 17 31 17q10 1 20 -6q19 -13 20 -37q0 -9 -3 -19q-6 -22 -20 -66q-14 -45 -32 -98q-9 -27 -19 -55q-9 -28 -18 -54q-17 -50 -31 -87t-19 -48
q-13 -27 -33 -34q-6 -2 -12 -2q-13 1 -25 11q-10 9 -21 36q-12 26 -39 109q-15 44 -28 76q-12 33 -15 36q-4 4 -6 4t-6 -4q-3 -3 -15 -34q-11 -31 -25 -72q-30 -84 -42 -114q-12 -29 -21 -37q-8 -7 -21 -10q-14 -2 -23 2z" />
    <glyph glyph-name="x" unicode="x" horiz-adv-x="521" 
d="M55 14q-11 11 -13 22q-2 12 4 25q3 6 23 33q21 27 46 59q26 32 46 58q20 27 23 32q6 11 2 20t-23 33q-52 62 -84 105q-32 42 -35 53q-3 9 -3 14v2q1 5 5 12q3 5 10 10q7 6 13 8q19 8 34 -2q16 -11 55 -57q53 -63 73 -82q19 -20 28 -20q6 0 20 14q15 15 47 53q49 57 66 74
q16 17 29 22q6 2 12 2q10 0 20 -7q15 -12 15 -31q0 -18 -18 -45q-19 -27 -84 -106q-20 -23 -32 -40q-11 -17 -11 -21q0 -5 12 -22t32 -41q71 -85 89 -114q13 -22 13 -38q0 -5 -2 -10q-4 -13 -14 -19q-10 -7 -24 -7q-13 0 -35 21t-76 85q-19 22 -35 40q-16 17 -19 19
q-7 4 -13 2q-6 -3 -31 -32q-11 -12 -27 -30t-38 -44q-39 -46 -61 -57q-21 -10 -39 7z" />
    <glyph glyph-name="y" unicode="y" horiz-adv-x="494" 
d="M84 -345q-12 5 -19 15q-7 11 -7 24q1 14 21 70q21 56 68 172q16 40 29 71q12 32 14 36q1 5 -3 20t-24 62q-10 26 -25 63q-16 38 -38 91q-48 114 -62 156q-12 35 -12 51v6q4 21 25 28q20 8 36 -6q9 -8 28 -50q20 -41 66 -149q19 -45 35 -80q15 -35 18 -39q4 -5 6 -6
q3 0 8 2q3 2 22 44t43 100q16 37 28 65q11 27 19 46q20 45 28 56q7 11 16 16q9 4 17 4q7 0 13 -2q15 -5 22 -20q5 -10 5 -17v-1q-1 -7 -8 -29q-7 -24 -41 -107q-33 -84 -84 -208q-46 -110 -78 -188q-32 -77 -54 -129q-12 -31 -22 -53q-10 -23 -17 -40q-22 -50 -28 -57
q-6 -8 -14 -12q-11 -7 -16 -8h-2q-5 0 -13 3z" />
    <glyph glyph-name="z" unicode="z" horiz-adv-x="619" 
d="M70 13q-16 14 -18 28q-1 2 -1 4q0 12 9 28q5 8 56 62t118 121q40 40 67 68t45 47q33 34 39 43t2 12q-5 4 -35 5t-116 1q-41 0 -69 1q-29 0 -48 1q-35 2 -45 7t-15 16q-10 22 2 40t40 22q9 1 75 1h22h128q50 -1 86 -2q36 0 61 -1q58 -2 71 -7t19 -18q3 -7 2 -12
q0 -5 -5 -14q-3 -7 -56 -63q-52 -57 -118 -125q-35 -36 -70 -71q-35 -36 -63 -64q-17 -16 -28 -29q-12 -13 -12 -16q0 -6 27 -8t136 -2q73 -1 113 -2q39 -1 48 -4q27 -8 30 -34q1 -3 1 -6q0 -21 -21 -33q-6 -3 -22 -5q-15 -1 -62 -2q-26 -1 -63 -1h-91q-50 -1 -86 -1h-37
h-24q-58 0 -71 3t-21 10z" />
    <glyph glyph-name="braceleft" unicode="{" horiz-adv-x="543" 
d="M370 -132q-49 16 -91 56q-41 41 -55 86q-3 9 -7 40q-4 30 -6 63q-3 35 -7 63t-6 34q-13 31 -41 51t-70 28q-31 6 -45 13q-13 6 -18 19q-4 8 -4 15q0 13 10 24q16 17 47 20q31 4 51 13q20 10 41 30q23 23 30 44q6 22 12 95q5 61 12 88q7 26 26 56q24 37 66 64q42 26 89 34
q15 2 28 2q22 0 36 -7q23 -10 23 -35q0 -15 -12 -27q-12 -13 -30 -16q-53 -9 -84 -25q-30 -17 -47 -46q-7 -14 -11 -28q-3 -13 -6 -45q-2 -28 -4 -50q-2 -21 -4 -37q-6 -51 -16 -71t-35 -50q-10 -12 -17 -22q-7 -9 -7 -11t6 -11q7 -9 16 -21q27 -34 39 -61q11 -26 14 -65
q2 -18 4 -45q3 -26 5 -45q3 -41 12 -62t30 -40q17 -15 40 -24q23 -10 50 -14q31 -4 44 -14t13 -30q0 -22 -16 -32q-16 -9 -50 -9h-3q-14 0 -29 1q-16 2 -23 4z" />
    <glyph glyph-name="bar" unicode="|" horiz-adv-x="219" 
d="M93 -279q-11 5 -16 13q-6 8 -8 65q-1 18 -1 44q-1 26 -1 61v147v214v211v144q0 38 1 64v44q1 33 3 44q1 11 3 15q10 17 30 19h4q18 0 29 -15q3 -5 5 -15q2 -9 3 -55q0 -19 1 -47v-67q1 -55 1 -135v-193q1 -72 1 -140v-80v-46q0 -109 -1 -178q0 -70 -1 -75q-2 -15 -11 -27
t-20 -15q-2 -1 -4 -1q-3 0 -6 1q-7 1 -12 3z" />
    <glyph glyph-name="braceright" unicode="}" horiz-adv-x="543" 
d="M54 -125q-7 7 -10 14q-3 6 -3 15q0 17 11 27t36 15q47 10 71 22t42 35q14 17 20 44t9 87q5 68 15 98q10 31 43 71q9 12 16 21q6 9 6 11q0 1 -6 10q-7 9 -16 21q-22 27 -33 49q-11 21 -17 55q-4 19 -6 43q-2 25 -5 58q-3 45 -10 65t-27 40q-20 19 -41 28q-22 9 -69 17
q-17 3 -28 15q-11 11 -11 27q0 26 23 36q14 7 36 7q13 0 28 -2q45 -7 83 -31q37 -24 67 -64q19 -26 26 -53q7 -26 13 -96q3 -32 6 -59q3 -28 5 -34q5 -18 25 -40q21 -21 41 -30q9 -4 25 -8q16 -5 29 -8q30 -6 42 -12q11 -6 17 -18q4 -7 5 -13v-1q0 -5 -3 -13q-5 -15 -18 -23
q-13 -7 -41 -11q-13 -2 -29 -7q-16 -4 -25 -8q-21 -10 -42 -32q-20 -22 -25 -41q-3 -7 -6 -36q-4 -28 -6 -61q-3 -32 -6 -60q-4 -29 -6 -36q-22 -63 -80 -105q-57 -42 -124 -42h-1q-23 0 -30 2t-16 11z" />
    <glyph glyph-name="asciitilde" unicode="~" horiz-adv-x="609" 
d="M360 259q-32 10 -58 32q-25 22 -36 49q-2 6 -5 19t-4 26q-5 45 -19 62q-13 16 -45 16q-31 0 -46 -14q-15 -15 -18 -48q-4 -46 -19 -65q-14 -19 -38 -9q-19 8 -25 22t-6 46v3q0 54 19 87t61 53q21 10 32 13q11 2 40 2t39 -2q11 -2 29 -12q39 -20 58 -49q18 -29 24 -75
q3 -31 10 -45t23 -21q35 -14 65 5t30 55q0 38 13 58t35 16q6 -1 13 -4t10 -6q14 -12 16 -54v-12q0 -35 -10 -65q-16 -48 -76 -75q-35 -15 -68 -15q-22 0 -44 7z" />
    <glyph glyph-name="exclamdown" unicode="&#xa1;" horiz-adv-x="209" 
d="M76 -277q-6 5 -9 14q-3 8 -4 20q-2 10 -2 89v72v107q0 53 1 92v66q1 63 3 77t7 21q12 17 30 17h4q19 -2 30 -25q4 -7 5 -23q2 -16 3 -70v-71v-103v-2q0 -128 -1 -193q-1 -64 -4 -71q-7 -20 -28 -25q-6 -2 -11 -2q-14 0 -24 10zM73 358q-20 8 -36 32q-17 23 -17 45
q0 24 19 47q18 23 44 30q8 3 17 3q16 0 33 -9q26 -14 38 -40q8 -17 8 -31q0 -15 -8 -31q-14 -31 -42 -44q-15 -7 -30 -7q-13 0 -26 5z" />
    <glyph glyph-name="cent" unicode="&#xa2;" horiz-adv-x="494" 
d="M83 65q-10 4 -17 15t-7 24q0 6 4 20q4 13 10 27q18 41 18 52q0 12 -15 45q-17 36 -22 72q-3 22 -3 55q0 20 1 43q4 65 17 98q14 33 55 72q30 30 69 45q38 15 83 15q24 0 36 7q11 7 27 32q17 27 31 35q7 4 15 4q7 0 14 -3q21 -8 25 -29q5 -20 -7 -48q-9 -21 -8 -33
q1 -11 14 -27q19 -21 20 -39v-3q0 -15 -14 -29q-6 -5 -12 -7q-6 -1 -18 1q-28 4 -38 2t-31 -42q-6 -13 -16 -32q-9 -19 -22 -45q-25 -50 -44 -91q-20 -40 -22 -48q-3 -11 -3 -15q1 -4 6 -8q9 -6 31 -9q22 -2 42 3q11 2 26 9q14 6 29 16q27 18 42 21q16 2 29 -10
q10 -10 13 -23t-4 -25q-11 -23 -42 -44q-31 -22 -64 -30q-22 -6 -58 -6q-37 0 -63 6t-37 1t-23 -29q-10 -18 -16 -26q-7 -8 -17 -16q-9 -6 -16 -6q-1 -1 -2 -1q-7 0 -16 4zM210 434l37 74q15 32 15 35v1q0 11 -12 11q-7 0 -17 -3q-29 -9 -53 -34t-33 -50q-8 -25 -8 -72
q0 -36 3 -52q3 -13 9 -13h2q2 1 19 31t38 72z" />
    <glyph glyph-name="sterling" unicode="&#xa3;" horiz-adv-x="580" 
d="M113 10q-18 6 -36 24t-27 36q-7 16 -8 36q-1 19 5 32q4 9 16 16q11 8 22 8q9 0 21 -11q12 -10 17 -24q7 -17 15 -24q8 -8 18 -8q14 0 18 9q5 9 5 31q0 12 -5 49q-5 36 -10 73q-4 20 -7 38t-6 30q-5 25 -13 31t-39 9q-25 2 -33 5q-8 2 -14 10q-11 13 -11 26q0 8 3 15
q10 21 39 28q28 7 35 11t7 14q0 5 -2 20q-2 14 -4 30q-10 57 -4 99q7 42 32 80q35 54 89 81q45 22 101 22q9 0 19 -1q23 -1 36 -5t36 -15q50 -25 71 -53t9 -53q-10 -19 -29 -19q-20 0 -46 19q-30 21 -51 29t-49 8q-21 0 -32 -3q-11 -2 -26 -10q-31 -15 -51 -42
q-20 -28 -23 -60q0 -9 2 -32q2 -22 6 -45q9 -54 18 -62q10 -9 62 -9q50 0 75 -4q24 -5 34 -16t10 -26t-11 -27q-7 -10 -17 -12t-57 -4q-26 -1 -47 -3q-20 -1 -23 -3q-10 -3 -10 -16q-1 -13 6 -53q9 -55 16 -104q6 -49 6 -65q0 -13 2 -18q2 -4 9 -7q5 -1 33 -3q27 -1 61 -1
q86 -1 122 -4q36 -4 43 -14q8 -10 8 -25v-2q-1 -17 -10 -29q-6 -6 -17 -9q-10 -2 -62 -3q-22 0 -54 -1h-76h-77h-6h-50q-42 1 -59 2t-25 4z" />
    <glyph glyph-name="currency" unicode="&#xa4;" horiz-adv-x="604" 
d="M63 144q-5 2 -10 8q-5 5 -8 10q-6 14 1 32q6 17 30 43q11 12 18 23q8 10 8 13t-3 13q-4 11 -9 23q-8 21 -10 35t-2 55q0 42 2 54q2 13 10 31q5 11 9 21q3 10 3 14q0 3 -5 12q-6 8 -14 17q-32 34 -39 54q-3 8 -3 15q0 11 8 21q15 19 36 14q20 -5 53 -35q23 -21 35 -23
q12 -1 48 14q20 9 32 10q12 2 48 1q32 -2 46 -4t31 -10q10 -5 21 -8q10 -4 14 -4t15 7t22 17q36 32 56 37q5 1 9 1q15 0 26 -14q15 -17 9 -37q-6 -21 -37 -53q-20 -21 -22 -30t8 -34q8 -19 10 -34q1 -14 1 -56q0 -43 -1 -57q-2 -14 -10 -34q-10 -25 -7 -35q3 -9 30 -39
q29 -30 30 -53v-4q0 -21 -23 -32q-15 -7 -32 0q-18 8 -43 31q-26 23 -38 25t-41 -11q-19 -8 -32 -10t-49 -2q-35 0 -49 2q-13 2 -33 10q-12 5 -23 9q-11 3 -15 3t-15 -7t-22 -18q-19 -16 -35 -27q-17 -10 -25 -10q-1 0 -6 2zM346 274q36 16 57 49q22 33 22 72q0 28 -8 49
q-8 22 -24 41q-20 23 -43 33q-23 11 -53 11q-40 0 -69 -17t-50 -51q-6 -11 -9 -22t-4 -31v-15q0 -21 3 -36q5 -20 20 -39q28 -37 73 -50q17 -5 34 -5q26 0 51 11z" />
    <glyph glyph-name="yen" unicode="&#xa5;" horiz-adv-x="604" 
d="M276 11q-7 4 -12 11q-4 6 -7 16q-7 25 -21 30q-13 5 -78 5q-61 0 -81 3q-21 4 -29 17q-7 10 -7 25t7 24q8 11 30 15q23 4 82 4q73 0 83 7t10 57q0 35 -3 48q-3 12 -28 15q-10 1 -26 1h-39q-74 0 -95 8t-21 36q0 27 19 36q19 8 79 8q53 0 66 3t13 14q0 4 -13 39
q-13 34 -31 78q-25 61 -43 104q-17 43 -29 72q-26 69 -26 83q1 13 14 24q11 9 24 11t25 -4q8 -5 26 -42t62 -143q16 -39 27 -65q11 -27 19 -43q14 -31 19 -35q6 -4 12 2q2 3 18 38q16 36 36 83q19 45 32 77q14 31 22 52q17 39 23 50q7 11 13 18q12 13 26 13t27 -13
q7 -8 10 -14q2 -7 2 -17t-3 -24q-4 -13 -21 -55q-9 -24 -23 -57q-14 -34 -34 -82q-25 -60 -42 -104q-18 -45 -18 -47q0 -9 14 -12q14 -4 49 -4q48 0 74 -4q25 -5 34 -16q8 -9 10 -23v-5q0 -11 -5 -18q-10 -13 -29 -17q-19 -3 -84 -5q-52 -1 -69 -3q-18 -2 -20 -6
q-5 -6 -5 -55t5 -55q2 -4 20 -6q17 -2 70 -3q59 -2 74 -3q16 -2 24 -9q19 -13 19 -32t-19 -33q-8 -6 -24 -8q-15 -2 -73 -3q-35 -1 -61 -3q-27 -2 -29 -3q-3 -2 -4 -4q-2 -3 -2 -6q0 -13 -9 -28t-19 -20q-13 -6 -19 -6v0q-5 0 -18 8z" />
    <glyph glyph-name="brokenbar" unicode="&#xa6;" horiz-adv-x="217" 
d="M88 -277q-14 7 -19 19q-6 13 -7 64v43v10v73q1 36 1 62v45q1 43 3 54q2 12 7 18q13 18 32 18q3 0 6 -1q23 -3 30 -28q2 -8 3 -54q1 -25 1 -62q0 -32 -1 -71v-66q0 -28 -1 -47q-1 -44 -3 -54q-2 -9 -8 -15q-12 -11 -21 -13h-5q-8 0 -18 5zM84 402q-10 8 -15 19t-6 50
q-1 20 -1 52q-1 30 -1 74v2q0 44 1 76q0 31 1 52q1 40 5 53t12 19q10 7 23 7h4q16 -2 25 -12q6 -6 8 -15q2 -10 3 -54q1 -20 1 -47v-66q1 -49 1 -83v-5q0 -30 -1 -51q-1 -42 -6 -54q-4 -12 -15 -17q-12 -7 -21 -7q-8 1 -18 7z" />
    <glyph glyph-name="section" unicode="&#xa7;" horiz-adv-x="569" 
d="M226 -233q-31 6 -67 31q-37 24 -48 45q-7 15 -6 30q0 15 9 24q12 13 28 10q15 -2 45 -21q31 -20 56 -28q26 -8 45 -5q25 3 45 12q19 8 34 21q40 35 44 87t-30 96q-12 16 -40 29q-29 13 -61 18q-72 10 -119 39q-46 29 -74 82q-15 29 -21 58q-5 23 -5 52q0 8 1 17
q1 28 4 40t14 34q6 14 17 30q11 17 19 26t14 18t6 12t-6 12t-14 18q-8 10 -19 26q-11 17 -17 30q-13 25 -15 37q-2 11 -2 56t2 57q3 12 15 38q18 35 44 60q26 26 63 44q29 15 41 17q12 3 54 3q41 0 52 -2q12 -3 36 -14q28 -14 49 -31t29 -32q8 -14 7 -30q-1 -15 -10 -24
q-12 -13 -27 -10q-15 2 -46 21q-31 20 -56 28q-25 9 -45 6q-25 -4 -44 -13q-20 -8 -35 -21q-40 -35 -44 -87t30 -96q13 -16 41 -29t61 -17q72 -10 118 -40q47 -29 75 -82q14 -28 20 -59q5 -24 5 -53q0 -9 -1 -17q-1 -26 -4 -39q-3 -12 -13 -33q-7 -14 -18 -30
q-10 -16 -19 -26q-8 -9 -14 -18t-6 -12t6 -12t14 -18q9 -10 19 -26q11 -16 18 -30q12 -25 14 -37q2 -11 2 -56t-2 -57q-2 -11 -15 -37q-17 -36 -43 -61t-63 -44q-27 -13 -39 -16t-44 -4h-16h-22q-18 1 -26 3zM334 222q19 8 34 23q16 14 28 34q11 19 13 52q1 7 1 15
q0 24 -6 43q-13 39 -48 62q-33 24 -75 24h-1q-41 0 -73 -21q-33 -21 -49 -57q-8 -18 -8 -49v-3q0 -29 6 -49q18 -53 72 -75q26 -11 52 -11q27 0 54 12z" />
    <glyph glyph-name="dieresis" unicode="&#xa8;" horiz-adv-x="640" 
d="M184 954q37 0 37 -38q0 -36 -37 -36q-36 0 -36 36q0 38 36 38zM405 954q38 0 38 -38q0 -36 -38 -36q-37 0 -37 36q0 38 37 38z" />
    <glyph glyph-name="copyright" unicode="&#xa9;" horiz-adv-x="894" 
d="M391 21q-100 14 -179 73q-80 58 -127 152q-20 40 -27 74t-7 93v2q0 51 2 68t11 43q35 105 108 175q74 70 176 95q37 9 91 10h8q49 0 80 -8q110 -27 188 -103t107 -185q10 -37 10 -97q0 -59 -10 -97q-15 -59 -51 -115t-82 -94q-27 -22 -72 -44q-46 -23 -80 -32
q-26 -7 -75 -10q-24 -2 -42 -2t-29 2zM516 118q70 16 132 74q61 58 85 131q11 33 13 78v12q0 38 -8 68q-11 47 -30 78q-18 32 -52 66q-47 48 -98 70q-51 21 -116 22h-2q-83 0 -151 -39t-108 -105q-22 -35 -34 -76q-11 -41 -12 -85v-1q1 -42 8 -72t26 -66q16 -32 44 -62
q27 -30 59 -51q54 -37 116 -47q25 -4 51 -4q38 -1 77 9zM420 163q-45 14 -78 54q-33 41 -49 101q-3 11 -5 27t-3 35v31q0 20 1 41q2 36 7 56q20 70 63 115q43 44 92 44q20 0 47 -14q26 -14 45 -33q29 -32 34 -55q1 -4 1 -8q0 -18 -16 -34q-18 -18 -30 -13q-13 5 -48 46
q-9 11 -15 15q-6 3 -15 3q-16 0 -29 -8q-12 -8 -23 -26q-17 -26 -21 -48q-5 -21 -5 -79t5 -79q4 -22 21 -47q12 -18 24 -27q13 -8 27 -8q11 0 21 8q10 9 36 40q13 16 27 16t28 -15q17 -19 9 -46t-41 -57q-27 -25 -55 -34q-15 -5 -29 -5q-13 0 -26 4z" />
    <glyph glyph-name="ordfeminine" unicode="&#xaa;" horiz-adv-x="477" 
d="M178 367q-37 9 -70 36q-34 26 -50 58q-12 25 -12 53v1q0 28 12 51q10 19 34 43t43 34q33 17 72 21q40 4 79 -5q11 -3 21 -4q9 -1 11 0q5 3 3 15t-11 22q-11 14 -32 18q-21 5 -84 7q-59 2 -79 7t-27 19q-6 14 -4 25t12 21q9 9 20 11q12 2 72 5q33 1 55 1h12q25 -1 38 -3
q24 -5 51 -24q28 -19 42 -40q14 -19 20 -36q6 -18 8 -54q1 -20 2 -48v-68v-38v-20v-42q-2 -40 -7 -50t-19 -16q-10 -4 -15 -4q-6 0 -16 4q-15 7 -30 7q-16 0 -45 -6q-27 -6 -55 -6h-1q-28 0 -50 5zM284 462q31 13 39 37q3 7 3 14q0 16 -13 31q-10 11 -24 18t-31 10
q-12 2 -25 2q-18 0 -37 -4q-31 -8 -49 -29q-12 -14 -12 -28q0 -15 15 -30q28 -27 73 -30q5 -1 10 -1q10 0 21 2q15 2 30 8z" />
    <glyph glyph-name="guillemotleft" unicode="&#xab;" horiz-adv-x="509" 
d="M190 13q-7 5 -23 20q-17 15 -36 33q-28 28 -56 57t-36 40q-5 8 -9 17t-4 14q0 12 22 39q22 26 78 81q59 57 79 69q8 4 16 4q12 0 22 -9q12 -11 15 -24v-6q1 -10 -4 -20q-3 -6 -21 -27q-19 -21 -42 -45q-22 -23 -39 -42q-16 -18 -16 -20t17 -21q17 -20 41 -46t42 -47
q18 -22 20 -27q4 -11 1 -21t-13 -21q-11 -11 -24 -11h-1q-12 0 -29 13zM394 9q-6 5 -23 20q-16 15 -35 34l-59 59q-29 30 -35 38q-12 16 -12 32q0 11 5 22q14 26 85 95q64 63 85 74q8 4 15 4q13 0 25 -12q12 -11 13 -26t-9 -31q-3 -6 -20 -25t-37 -39q-25 -27 -37 -41
q-11 -14 -11 -20q0 -5 9 -17q9 -11 28 -31q41 -40 59 -65t18 -40q0 -26 -21 -36q-9 -4 -17 -4q-13 0 -26 9z" />
    <glyph glyph-name="logicalnot" unicode="&#xac;" horiz-adv-x="589" 
d="M464 266q-7 7 -10 15t-5 31q-2 14 -3 41t-1 50q0 42 -2 50q-1 8 -10 11q-5 2 -60 3t-139 1h-72h-51q-49 1 -60 4q-10 2 -17 9q-14 13 -14 29q0 5 2 10q5 21 29 27q8 3 70 4t164 1h84h59q57 -1 69 -4q12 -2 20 -9q10 -10 12 -24t3 -90q1 -29 1 -52q0 -47 -2 -67
q-3 -29 -14 -39q-10 -11 -25 -11q-16 0 -28 10z" />
    <glyph glyph-name="registered" unicode="&#xae;" horiz-adv-x="896" 
d="M380 22q-88 14 -168 72q-79 59 -119 139q-25 50 -34 95q-8 36 -8 81q0 11 1 22q2 47 11 83t28 75q30 60 81 108q50 49 111 76q55 25 126 31q20 2 39 2q48 0 88 -11q36 -9 77 -29q41 -19 68 -39q50 -38 88 -96q38 -57 55 -121q10 -38 10 -97q0 -60 -10 -97
q-16 -60 -51 -115q-36 -56 -82 -94q-27 -22 -72 -45q-46 -23 -80 -32q-31 -8 -80 -10q-17 -1 -32 -1q-28 0 -47 3zM518 117q57 13 114 59q57 47 84 102q33 66 33 133v4q-1 69 -37 138q-18 36 -55 73q-36 37 -70 55q-70 36 -147 36h-4q-79 -1 -147 -40q-27 -16 -61 -50
t-51 -62q-21 -37 -30 -71q-9 -35 -10 -79v-4q1 -42 7 -71q7 -30 27 -67q16 -32 44 -62q27 -30 59 -52q54 -36 116 -47q25 -4 50 -4q38 0 78 9zM319 183q-12 7 -16 20q-5 14 -7 70v59v83v79v56q1 41 2 55q2 14 5 20q9 17 27 21q14 3 50 3q12 0 27 -1q49 -1 63 -3t32 -10
q20 -11 42 -32q21 -21 33 -43q6 -12 8 -23t2 -36q0 -26 -2 -37q-2 -12 -10 -28q-5 -11 -14 -24q-8 -12 -16 -20q-7 -7 -12 -15t-5 -12t7 -22t18 -40q22 -48 26 -71t-9 -35q-12 -13 -27 -12q-14 1 -27 15q-6 6 -20 29t-28 50q-27 51 -39 64q-12 12 -31 8q-11 -3 -13 -14
q-3 -12 -4 -66q-2 -47 -7 -65q-5 -17 -21 -24q-10 -5 -16 -5h-1q-6 0 -17 6zM468 450q15 6 24 21q9 14 9 31q0 13 -10 28q-11 15 -23 22q-14 6 -46 6q-32 1 -36 -6t-4 -47v-7q0 -47 5 -51q5 -6 28 -6q4 0 8 1q30 1 45 8z" />
    <glyph glyph-name="macron" unicode="&#xaf;" horiz-adv-x="488" 
d="M42 723q-8 4 -15 16q-7 13 -7 24q0 5 3 12q2 7 5 12q6 9 14 11q7 2 42 5q19 2 78 3h56h64q99 -2 127 -3q27 -2 34 -6q9 -7 12 -14t3 -23q0 -14 -7 -24q-6 -10 -18 -13q-6 -2 -56 -3q-51 -1 -114 -1h-27h-73q-49 0 -81 1q-18 1 -28 1q-11 1 -12 2z" />
    <glyph glyph-name="degree" unicode="&#xb0;" horiz-adv-x="393" 
d="M147 511q-38 13 -62 39q-25 26 -37 64q-7 23 -7 42v10q2 23 16 52q27 56 82 78q26 10 52 10q29 0 57 -13q49 -22 73 -65q21 -37 21 -75q0 -7 -1 -14q-3 -25 -14 -48q-11 -24 -31 -44q-29 -28 -71 -39q-20 -4 -38 -4q-21 0 -40 7zM225 606q14 9 20 20q6 12 6 28
q1 34 -26 51q-14 8 -30 8q-13 1 -28 -6q-12 -5 -18 -11t-12 -18q-6 -13 -7 -20v-3q0 -6 2 -14q8 -30 38 -42q12 -4 23 -4q17 0 32 11z" />
    <glyph glyph-name="plusminus" unicode="&#xb1;" horiz-adv-x="605" 
d="M86 76q-14 2 -21 5t-13 10q-9 10 -10 23q-1 3 -1 5q0 11 5 20q6 10 20 15q15 4 76 5q26 1 63 1h84h5q100 0 161 -1t68 -3q23 -7 29 -27q2 -6 2 -11q0 -14 -11 -27q-7 -8 -16 -11q-9 -2 -42 -4q-18 -1 -61 -2t-95 -1h-47h-9h-54q-49 0 -86 1t-47 2zM275 228q-13 9 -16 28
q-4 19 -5 82q0 19 -1 34q0 14 -1 24q-2 31 -16 34q-14 4 -58 4q-61 0 -88 4q-28 4 -38 13q-9 9 -11 23v7q0 10 5 19q7 13 25 17q19 4 86 5q36 1 62 3q27 2 28 3q2 2 4 28q1 26 2 60q2 70 7 90t21 28q8 3 16 3q5 0 11 -2q14 -4 22 -18q5 -9 7 -27q2 -17 3 -71q1 -34 3 -60
t3 -29q2 -3 22 -5t69 -3q45 -1 69 -3t29 -5q17 -9 18 -29q1 -2 1 -4q0 -17 -13 -30q-6 -5 -13 -9q-6 -4 -11 -4q-4 0 -30 -1t-58 -2q-48 -2 -64 -4q-17 -2 -19 -6q-2 -3 -3 -25q-2 -22 -2 -50q0 -62 -4 -85q-3 -23 -15 -33q-10 -8 -24 -10h-5q-11 0 -18 6z" />
    <glyph glyph-name="twosuperior" unicode="&#xb2;" horiz-adv-x="471" 
d="M74 367q-17 8 -22 20q-6 12 -6 41q0 45 18 76q17 32 55 54q22 13 43 19q21 7 64 14q56 9 77 23t21 42q0 27 -32 44q-33 17 -74 13q-36 -4 -56 -18t-30 -42q-10 -31 -31 -40q-22 -9 -41 10q-8 8 -10 15q-2 6 -1 24q0 40 21 69q22 30 66 52q32 15 62 20q15 3 31 3t32 -3
q81 -12 124 -66q31 -38 31 -82q0 -18 -6 -38q-4 -16 -11 -27q-6 -11 -20 -26q-27 -28 -58 -41t-106 -27q-15 -2 -30 -7q-16 -5 -22 -9q-12 -7 -15 -16q-2 -9 7 -12q3 -1 35 -2t74 -1q43 0 77 -1q35 -1 42 -3q15 -4 22 -14q8 -10 8 -26t-8 -25q-7 -10 -22 -14q-11 -3 -66 -4
q-35 -1 -70 -1h-43q-48 1 -86 2q-38 2 -44 4z" />
    <glyph glyph-name="threesuperior" unicode="&#xb3;" horiz-adv-x="478" 
d="M165 368q-53 17 -86 56q-33 38 -33 83q0 13 3 20q2 6 10 14q19 19 39 12q21 -8 32 -37q9 -24 19 -35q9 -10 31 -20q24 -10 52 -10t52 10q21 10 31 21q9 12 9 28q0 23 -20 39t-59 23q-28 6 -42 17q-13 12 -13 31q0 20 12 30q11 10 41 16q38 8 58 21t10 24q-2 2 -34 4
q-31 2 -87 3q-47 1 -83 2q-37 2 -40 4q-17 8 -20 29t12 35q8 9 18 11q9 3 47 5q31 2 75 2h17q57 -1 103 -3q32 -1 53 -3q22 -3 26 -5q18 -12 19 -50q0 -8 -1 -17q-5 -51 -32 -87q-11 -14 -10 -22q0 -7 12 -24q22 -30 26 -70q5 -40 -11 -71q-10 -21 -33 -42q-22 -22 -45 -32
q-33 -15 -79 -19h-22q-33 0 -57 7z" />
    <glyph glyph-name="acute" unicode="&#xb4;" horiz-adv-x="640" 
d="M251 926q14 12 56 46q13 16 37 31q28 16 53 18h4q23 0 31 -13q2 -5 2 -11q0 -11 -9 -25q-14 -21 -42 -38q-23 -14 -44 -17q-23 -8 -68 -25q-19 -11 -30 -11q-10 0 -14 8q-3 4 -3 8q0 14 27 29z" />
    <glyph glyph-name="mu" unicode="&#xb5;" horiz-adv-x="596" 
d="M79 -211q-4 1 -10 6q-5 5 -8 10q-4 5 -5 23q-2 19 -3 87q0 37 -1 93v136q-1 82 -1 140v34v64q1 28 1 47q1 20 2 34q2 32 8 39q5 7 15 13q11 5 16 6v0q5 0 13 -4q11 -6 17 -15q5 -10 8 -41q1 -17 2 -42q1 -26 2 -63q1 -40 3 -70q1 -30 3 -52q4 -51 13 -71q10 -19 32 -39
q17 -14 37 -22q20 -7 41 -8q39 -2 74 18q36 20 53 57q5 12 8 24q2 13 3 51q1 16 1 39q1 22 1 53q1 63 3 107q3 43 5 48q7 18 24 25q17 6 33 -3q11 -5 15 -17t6 -63q1 -22 1 -54q1 -32 1 -76q1 -47 1 -80q1 -34 2 -56q2 -53 8 -62q6 -10 23 -15q19 -6 29 -17q10 -12 10 -28
q0 -37 -37 -42t-80 27q-11 8 -20 14q-9 5 -11 5t-13 -5q-10 -5 -23 -12q-49 -27 -95 -30q-46 -4 -96 16q-30 12 -40 13t-13 -6q-1 -3 -2 -33v-69q0 -72 -4 -96q-3 -23 -15 -32q-6 -6 -18 -8q-4 -1 -8 -1q-6 1 -11 3z" />
    <glyph glyph-name="paragraph" unicode="&#xb6;" horiz-adv-x="664" 
d="M319 -209q-11 6 -15 23t-5 99q-1 35 -1 86v121q0 173 -1 236t-4 67q-3 3 -18 8q-14 5 -33 10q-68 17 -114 48q-47 32 -66 74q-8 18 -10 28q-1 7 -1 17q0 7 1 14q1 30 12 52q11 23 34 46q20 20 60 41t74 30q23 6 87 10q63 4 128 5h36q24 0 45 -1q38 -1 57 -3q17 -3 25 -6
t14 -10q10 -12 10 -26q0 -7 -3 -15q-8 -22 -33 -26q-7 -1 -14 -3q-7 -3 -9 -5t-4 -29q-1 -27 -2 -74q-3 -89 -4 -238q-2 -150 -2 -332v-88v-63q-1 -61 -5 -75q-3 -14 -12 -21q-6 -4 -20 -5h-6q-10 0 -16 3q-7 2 -11 10t-6 49q-1 18 -2 43q0 26 -1 62q-1 52 -1 127
q-1 75 -2 180q0 100 -1 171q0 72 -1 121q0 35 -1 60q0 25 -1 41q-1 40 -3 48q-3 8 -6 11q-11 6 -42 5t-35 -8q-2 -3 -3 -125q-1 -123 -1 -317q-1 -210 -2 -326q-1 -117 -3 -125q-2 -7 -6 -13q-5 -7 -9 -10q-10 -6 -24 -7q-15 0 -24 5z" />
    <glyph glyph-name="periodcentered" unicode="&#xb7;" horiz-adv-x="208" 
d="M63 360q-23 12 -35 39q-8 17 -8 33q0 9 3 18q4 16 18 33t29 23t30 7q22 0 43 -14q34 -24 34 -66q0 -24 -12 -43q-12 -20 -33 -31q-11 -6 -31 -6h-2q-22 1 -36 7z" />
    <glyph glyph-name="cedilla" unicode="&#xb8;" horiz-adv-x="224" 
d="M47 -213q-35 17 -44 40q-3 8 -3 15q0 15 14 29q12 10 25 11q13 2 31 -6q15 -6 24 -6q8 0 14 8q8 8 7 18t-9 25q-7 11 -9 22q-1 11 -1 40q0 37 6 52q5 15 24 23q7 4 14 4q12 0 24 -13q18 -19 18 -50q0 -7 3 -24q3 -16 8 -33q10 -35 10 -49v-2q0 -14 -6 -34
q-16 -48 -61 -69q-23 -11 -46 -11q-22 0 -43 10z" />
    <glyph glyph-name="onesuperior" unicode="&#xb9;" horiz-adv-x="286" 
d="M164 364q-4 2 -9 7t-8 11q-5 10 -7 33q-2 24 -3 99q-2 70 -4 95t-11 24q-4 0 -10 -5q-5 -4 -14 -10q-19 -15 -32 -15q-14 -1 -27 12t-13 30v1q0 17 12 32q6 8 18 21q12 12 25 27q21 21 42 41q20 20 28 26q18 13 33 13q7 0 13 -3q18 -10 24 -47q2 -16 3 -84v-90v-46
q0 -45 -1 -81t-3 -47q-4 -31 -18 -42q-8 -6 -19 -6q-9 0 -19 4z" />
    <glyph glyph-name="ordmasculine" unicode="&#xba;" horiz-adv-x="480" 
d="M193 366q-47 14 -85 57q-39 44 -52 99q-2 9 -3 28q-2 18 -2 35v1q0 83 44 143q44 61 114 74q17 3 32 3q24 0 44 -8q34 -12 68 -48q38 -39 52 -74t14 -92q0 -56 -15 -95q-15 -40 -50 -74q-33 -33 -77 -46q-24 -8 -47 -8q-19 0 -37 5zM268 460q33 17 52 62q13 30 13 61
q-1 14 -3 27q-14 77 -68 98q-15 6 -29 6q-37 1 -67 -39q-14 -18 -20 -43q-5 -20 -5 -46v-13q2 -36 13 -62q12 -26 34 -43q13 -9 20 -12q8 -3 24 -3q10 0 20 2q11 2 16 5z" />
    <glyph glyph-name="guillemotright" unicode="&#xbb;" horiz-adv-x="498" 
d="M57 8q-12 10 -15 25q-2 15 7 31q3 7 21 28t39 43t36 40q15 17 15 19t-14 17q-13 16 -31 36q-58 61 -69 84q-4 9 -4 18q0 13 10 25q10 13 24 14h3q12 0 27 -9q6 -4 23 -19q16 -15 37 -35q30 -30 60 -61q29 -31 35 -39q8 -15 9 -31v-1q0 -15 -8 -28q-5 -8 -33 -37
q-29 -30 -59 -60q-20 -20 -37 -35q-17 -16 -24 -21q-15 -11 -28 -12h-2q-11 0 -22 8zM258 10q-13 11 -16 23q-3 11 4 24q3 6 21 27t41 45t39 44q16 19 16 22q0 4 -16 22q-15 18 -39 42q-22 23 -40 44q-19 21 -22 27q-5 10 -5 20v5q3 11 15 22q10 10 22 11h2q11 0 23 -8
q10 -6 37 -31q28 -26 56 -54l28 -28q13 -14 21 -24q24 -27 28 -43v-5q0 -15 -20 -40q-11 -13 -27 -30q-16 -16 -38 -39q-67 -67 -89 -80q-9 -5 -18 -5q-12 0 -23 9z" />
    <glyph glyph-name="onequarter" unicode="&#xbc;" horiz-adv-x="676" 
d="M507 -3q-11 9 -13 18q-3 9 -6 49q-3 36 -6 46q-2 9 -8 12q-3 1 -28 2q-24 1 -55 1q-34 1 -57 2q-22 1 -27 4q-18 9 -23 25q-1 5 -1 10q0 12 7 24q5 8 33 39q27 31 60 66q18 19 36 37t32 33q37 37 54 44q7 3 13 3q10 0 20 -7q11 -8 17 -20q5 -12 3 -22q-3 -10 -30 -42
q-26 -33 -57 -63q-24 -23 -28 -33q-4 -9 9 -13q13 -3 23 3q10 5 12 18q6 26 15 37q10 10 29 10q13 0 25 -12q13 -13 17 -29q4 -15 11 -22q8 -7 20 -7q3 0 10 -4q7 -3 12 -8q8 -7 11 -12q3 -6 3 -16q0 -17 -10 -28q-9 -11 -27 -16q-9 -2 -16 -6t-9 -7q-2 -4 -3 -18
q-1 -15 -1 -32q0 -34 -7 -51t-22 -23q-10 -4 -16 -4h-4q-7 2 -18 12zM85 0q-9 9 -10 22v2q0 14 13 47q8 20 21 50q14 29 34 71q25 52 61 125q37 73 87 173l43 86q21 41 39 77q34 68 57 111q22 44 25 49q18 27 42 27h7q30 -5 30 -38q0 -11 -17 -51t-64 -136q-25 -52 -61 -123
q-35 -70 -82 -165l-65 -130q-27 -53 -45 -90q-35 -67 -47 -87t-18 -24q-9 -7 -21 -7h-5q-14 1 -24 11zM155 418q-3 4 -7 9t-5 8q-2 3 -4 38q-2 36 -3 83q0 35 -1 57q0 23 -2 37q-2 25 -10 23q-7 -1 -25 -15q-19 -15 -32 -15q-13 -1 -26 13q-14 14 -14 28v2q1 15 21 39
q10 11 21 24l25 25q24 23 46 41q22 19 30 21q7 3 14 3t12 -2q12 -5 19 -19q6 -10 7 -37q2 -27 3 -125q0 -48 1 -83v-8q0 -30 -1 -52q-1 -46 -5 -64q-3 -19 -11 -27q-10 -13 -26 -14h-2q-15 0 -25 10z" />
    <glyph glyph-name="onehalf" unicode="&#xbd;" horiz-adv-x="756" 
d="M363 -9q-23 10 -27 51v14q0 33 15 64q16 33 52 56t88 32q15 3 32 6t26 5q10 2 20 5q11 4 17 8q13 8 21 23t5 27q-6 23 -38 38t-68 12q-33 -4 -55 -19q-21 -16 -30 -42q-4 -13 -11 -21q-6 -9 -13 -13q-23 -13 -44 6q-22 19 -13 59q4 19 18 41q14 21 29 34q57 44 131 44h9
q79 -3 131 -53q20 -20 28 -39q9 -19 10 -47q3 -39 -11 -67q-13 -27 -44 -50q-24 -17 -50 -26q-26 -10 -59 -14q-34 -4 -56 -11q-21 -7 -31 -17q-14 -15 3 -19q17 -3 107 -5q68 -2 91 -4q23 -1 32 -6q20 -11 22 -32v-3q0 -19 -18 -32q-6 -5 -16 -7t-49 -2q-15 -1 -38 -1h-55
q-33 -1 -58 -1q-42 0 -62 1q-33 1 -41 5zM85 0q-9 9 -10 21v3q0 13 13 47q8 20 21 49q13 30 34 72q25 52 61 125q37 73 87 173q41 82 77 152q36 71 58 116q13 23 20 38q8 14 9 17q18 27 43 27h6q30 -5 30 -39q0 -11 -16 -48q-15 -37 -65 -138q-26 -54 -65 -131
q-38 -77 -91 -183q-74 -147 -114 -223q-39 -76 -45 -80q-11 -9 -25 -9h-2q-16 1 -26 11zM155 418q-3 4 -7 9t-5 8q-2 3 -4 38q-2 36 -3 83q0 34 -1 57q0 23 -2 37q-2 25 -10 23q-7 -1 -25 -15q-19 -15 -32 -15q-13 -1 -26 13q-14 14 -14 28v2q1 15 21 39q10 11 21 23
q12 13 25 26q24 23 46 41q22 19 30 21q7 3 14 3t12 -2q12 -5 19 -19q6 -10 7 -37q2 -27 3 -125q0 -48 1 -83v-8q0 -30 -1 -52q-1 -46 -5 -64q-3 -19 -11 -28q-10 -12 -26 -13h-2q-15 0 -25 10z" />
    <glyph glyph-name="threequarters" unicode="&#xbe;" horiz-adv-x="815" 
d="M658 -18q-16 6 -22 20q-5 13 -7 54q-2 32 -4 42q-2 11 -7 15q-5 3 -23 4q-19 2 -62 2q-36 0 -59 1t-27 4q-17 8 -23 23q-2 6 -2 12q0 9 4 18q6 11 41 51q36 40 74 81q26 27 48 49q22 23 33 31q20 16 33 17h2q13 0 25 -13q12 -12 13 -27t-10 -29q-13 -19 -36 -45t-41 -43
q-10 -8 -16 -17q-7 -9 -7 -12q0 -8 8 -10q9 -3 20 1q8 3 11 9t7 26q3 13 13 20q9 7 25 7q15 0 27 -11q12 -10 15 -26q2 -14 10 -21q7 -7 21 -10q36 -7 37 -42v-2q0 -33 -34 -40q-22 -6 -27 -14q-5 -9 -5 -40q0 -16 -1 -32q-2 -17 -4 -23q-5 -18 -20 -27q-10 -6 -19 -6
q-6 0 -11 3zM225 -7q-11 10 -11 26v2q1 17 14 50q4 10 16 35q11 25 29 61q33 68 80 162t94 187q38 76 72 143t56 108q12 23 20 36q7 13 9 15q14 15 29 16q2 1 3 0q14 0 26 -11q11 -10 11 -24v0q0 -14 -17 -55q-10 -22 -26 -55q-15 -33 -38 -80q-35 -72 -72 -147l-72 -144
q-23 -45 -44 -87t-40 -79q-34 -67 -57 -110t-27 -47q-12 -13 -28 -14h-1q-15 0 -26 12zM154 410q-48 17 -78 53t-30 76q0 20 6 31t20 16q8 4 13 3q6 0 15 -3q11 -5 16 -13q6 -8 18 -35q9 -23 30 -34q20 -11 54 -13q21 -2 32 0q10 1 25 8q21 8 33 22q12 13 12 27q0 20 -30 40
q-30 21 -59 21q-10 0 -22 7q-13 7 -17 15q-5 9 -4 24q0 15 6 23q5 8 18 13q12 5 38 10q33 7 49 23q15 16 -6 22q-4 1 -37 3q-33 1 -74 1q-80 0 -102 4q-22 3 -29 18q-6 11 -4 24q1 13 9 23q7 7 15 10q9 3 35 6q16 2 61 2q24 1 50 1h41q32 -1 55 -1q22 -1 38 -2q28 -2 37 -8
q10 -5 15 -17q5 -11 5 -39q0 -27 -5 -45q-2 -7 -8 -21q-7 -13 -14 -25q-14 -20 -14 -27q0 -6 12 -23q16 -24 23 -41q6 -18 6 -37q0 -42 -23 -76q-24 -34 -69 -56q-24 -12 -36 -14q-12 -3 -50 -4h-20q-18 0 -28 1q-14 1 -28 7z" />
    <glyph glyph-name="questiondown" unicode="&#xbf;" horiz-adv-x="618" 
d="M242 -278q-36 3 -65 18q-29 14 -60 44q-28 29 -43 57q-15 29 -20 65q-3 18 -3 36q0 72 44 130q55 72 154 90q51 9 65 22q14 12 19 52q4 31 10 44q5 13 17 19q11 6 20 6h3q10 -1 22 -12q10 -10 12 -17q2 -8 2 -42q0 -43 -9 -66q-10 -23 -38 -50q-23 -22 -39 -30
q-17 -7 -57 -14q-51 -9 -79 -26q-27 -17 -44 -49q-12 -23 -13 -57q0 -34 11 -56q10 -22 28 -39q17 -16 39 -26q21 -10 57 -13q37 -3 71 1q19 2 35 6t27 9q15 8 31 26q17 18 26 36q4 7 9 23q4 15 7 30q5 29 12 43q8 14 20 17q18 5 36 -14t18 -43q0 -23 -8 -53q-8 -31 -19 -52
q-13 -25 -45 -55q-32 -31 -58 -44q-27 -13 -76 -17q-21 -2 -45 -2q-34 0 -74 3zM346 371q-16 9 -28 27q-13 19 -15 37v10q0 36 31 60q23 17 46 17q14 0 29 -6q29 -12 39 -47q4 -13 4 -27q0 -20 -10 -39q-13 -27 -42 -36q-11 -4 -22 -4q-17 0 -32 8z" />
    <glyph glyph-name="Agrave" unicode="&#xc0;" 
d="M327 926q27 -15 27 -29q0 -4 -2 -8q-5 -8 -15 -8q-12 0 -29 11q-23 8 -68 25q-23 3 -45 17q-28 17 -43 38q-9 14 -9 25q0 6 4 11q7 13 29 13h4q26 -2 55 -18q22 -13 37 -31q18 -15 55 -46zM88 5q-16 8 -20 27q-5 19 -6 80q-1 16 -1 32q0 88 10 177q11 106 32 197
q11 49 25 92t30 77q31 64 69 95q30 24 58 24q8 0 17 -2q40 -11 73 -58t61 -132q35 -103 51 -229q15 -111 15 -231v-32q-1 -63 -3 -79q-1 -16 -8 -24q-13 -18 -32 -18q-18 1 -30 19q-5 8 -7 26q-2 17 -3 72q-2 58 -3 73q-2 14 -8 19q-5 3 -30 5q-24 1 -92 1q-47 0 -84 -1
q-36 -2 -41 -3q-8 -3 -9 -14q-2 -12 -4 -76q-2 -70 -6 -90q-5 -20 -21 -27q-11 -5 -17 -5t-16 5zM399 310q6 5 6 13v2q0 11 -3 44q-11 113 -37 208t-54 122q-10 11 -26 11h-2q-13 0 -25 -9q-10 -7 -20 -28q-11 -20 -21 -48q-20 -54 -35 -128q-16 -74 -22 -145q-1 -18 -1 -27
v-6q1 -7 6 -10q5 -2 35 -4q30 -1 67 -1h5q43 0 81 1q42 2 46 5z" />
    <glyph glyph-name="Aacute" unicode="&#xc1;" 
d="M239 926q14 12 56 46q13 16 37 31q28 16 53 18h4q23 0 31 -13q2 -5 2 -11q0 -11 -9 -25q-14 -21 -42 -38q-23 -14 -44 -17q-23 -8 -68 -25q-19 -11 -30 -11q-10 0 -14 8q-3 4 -3 8q0 14 27 29zM88 5q-16 8 -20 27q-5 19 -6 80q-1 16 -1 32q0 88 10 177q11 106 32 197
q11 49 25 92t30 77q31 64 69 95q30 24 58 24q8 0 17 -2q40 -11 73 -58t61 -132q35 -103 51 -229q15 -111 15 -231v-32q-1 -63 -3 -79q-1 -16 -8 -24q-13 -18 -32 -18q-18 1 -30 19q-5 8 -7 26q-2 17 -3 72q-2 58 -3 73q-2 14 -8 19q-5 3 -30 5q-24 1 -92 1q-47 0 -84 -1
q-36 -2 -41 -3q-8 -3 -9 -14q-2 -12 -4 -76q-2 -70 -6 -90q-5 -20 -21 -27q-11 -5 -17 -5t-16 5zM399 310q6 5 6 13v2q0 11 -3 44q-11 113 -37 208t-54 122q-10 11 -26 11h-2q-13 0 -25 -9q-10 -7 -20 -28q-11 -20 -21 -48q-20 -54 -35 -128q-16 -74 -22 -145q-1 -18 -1 -27
v-6q1 -7 6 -10q5 -2 35 -4q30 -1 67 -1h5q43 0 81 1q42 2 46 5z" />
    <glyph glyph-name="Acircumflex" unicode="&#xc2;" horiz-adv-x="514" 
d="M222 935l-78 -78q-13 -13 -26 -13t-27 13q-12 13 -12 25v2q0 13 12 25q35 35 105 104q13 13 26 13t26 -13l104 -104q13 -13 13 -26t-13 -26q-26 -26 -52 0zM18 21q-11 10 -15 22q-3 11 -3 44v8q0 17 1 41t2 57q4 95 14 179q11 84 27 154q30 131 77 205q48 75 105 75
q21 0 36 -6q14 -6 31 -22q23 -22 44 -61q22 -40 40 -92q34 -97 55 -228q20 -131 20 -264q0 -61 -3 -81t-16 -32q-7 -8 -17 -14q-10 -5 -16 -5q-5 0 -15 5q-10 6 -17 14q-13 12 -16 30q-3 19 -3 73v85h-123h-122v-85q0 -54 -4 -73q-3 -18 -15 -30q-18 -18 -33 -18
q-16 0 -34 19zM339 333q0 22 -8 73q-7 51 -17 100q-6 28 -11 51q-6 24 -11 40q-8 26 -20 52q-13 26 -22 37q-7 9 -22 26q-8 -7 -23 -22q-10 -9 -23 -33q-13 -25 -21 -51q-5 -16 -11 -39q-6 -24 -11 -51q-11 -50 -18 -101q-8 -52 -8 -77v-26h113q83 0 98 3q15 2 15 18z" />
    <glyph glyph-name="Atilde" unicode="&#xc3;" horiz-adv-x="594" 
d="M222 928q-35 -12 -23 -46q11 -35 -23 -47q-35 -12 -47 24v0v0q-6 18 -6 35q0 25 12 49q21 40 64 55q18 6 35 6q25 0 49 -12q41 -21 56 -64q11 -35 46 -23q35 11 24 46q-12 35 23 47q36 12 46 -23q7 -18 7 -36q-1 -25 -12 -49q-21 -41 -64 -55q-18 -6 -36 -6q-25 0 -49 12
q-41 21 -55 64q-12 34 -47 23zM108 5q-15 8 -20 27t-6 80v32q0 88 9 177q11 106 32 197q12 49 26 92t30 77q31 64 69 95q29 24 57 24q9 0 18 -2q39 -11 72 -58q34 -47 62 -132q34 -103 51 -229q15 -111 15 -231q0 -16 -1 -32q-1 -63 -2 -79q-2 -16 -8 -24q-13 -18 -32 -18
q-19 1 -31 19q-5 8 -7 26q-1 17 -3 72q-1 58 -3 73q-2 14 -8 19q-5 3 -29 5q-24 1 -93 1q-47 0 -83 -1q-37 -2 -41 -3q-8 -3 -10 -14q-1 -12 -3 -76q-2 -70 -7 -90q-4 -20 -21 -27q-11 -5 -17 -5t-16 5zM419 310q6 5 7 13v2q0 11 -3 44q-12 113 -38 208t-53 122
q-11 11 -26 11h-2q-14 0 -25 -9q-10 -7 -21 -28q-10 -20 -21 -48q-19 -54 -35 -128t-21 -145q-2 -18 -2 -27q0 -4 1 -6q0 -7 6 -10q4 -2 34 -4q30 -1 67 -1h5q43 0 82 1q41 2 45 5z" />
    <glyph glyph-name="Adieresis" unicode="&#xc4;" 
d="M393 954q38 0 38 -38q0 -36 -38 -36q-37 0 -37 36q0 38 37 38zM172 954q37 0 37 -38q0 -36 -37 -36q-36 0 -36 36q0 38 36 38zM88 5q-16 8 -20 27q-5 19 -6 80q-1 16 -1 32q0 88 10 177q11 106 32 197q11 49 25 92t30 77q31 64 69 95q30 24 58 24q8 0 17 -2
q40 -11 73 -58t61 -132q35 -103 51 -229q15 -111 15 -231v-32q-1 -63 -3 -79q-1 -16 -8 -24q-13 -18 -32 -18q-18 1 -30 19q-5 8 -7 26q-2 17 -3 72q-2 58 -3 73q-2 14 -8 19q-5 3 -30 5q-24 1 -92 1q-47 0 -84 -1q-36 -2 -41 -3q-8 -3 -9 -14q-2 -12 -4 -76q-2 -70 -6 -90
q-5 -20 -21 -27q-11 -5 -17 -5t-16 5zM399 310q6 5 6 13v2q0 11 -3 44q-11 113 -37 208t-54 122q-10 11 -26 11h-2q-13 0 -25 -9q-10 -7 -20 -28q-11 -20 -21 -48q-20 -54 -35 -128q-16 -74 -22 -145q-1 -18 -1 -27v-6q1 -7 6 -10q5 -2 35 -4q30 -1 67 -1h5q43 0 81 1
q42 2 46 5z" />
    <glyph glyph-name="Aring" unicode="&#xc5;" horiz-adv-x="574" 
d="M89 5q-14 6 -20 15q-6 10 -7 39q-1 13 -1 29v12q1 23 2 58q1 48 4 101q2 52 5 78q16 137 47 243q31 105 74 170q6 8 10 15q4 8 4 11t-4 10q-4 8 -9 16q-36 53 -13 111q22 59 83 71q11 2 21 2q14 0 27 -3q24 -7 44 -24q34 -29 40 -75q5 -46 -22 -84q-5 -8 -9 -15t-4 -9
q0 -3 6 -13q5 -10 13 -21q35 -57 64 -149q28 -93 43 -200q4 -31 8 -88t6 -113q1 -30 1 -57v-22v-25q-1 -38 -3 -50t-8 -20q-8 -11 -20 -15q-12 -3 -25 3q-17 7 -21 24t-6 87q-2 59 -3 73q-2 15 -8 19q-5 4 -50 5q-45 2 -94 2q-40 -1 -72 -2q-32 -2 -36 -5q-6 -4 -8 -19
q-1 -15 -3 -76q-2 -65 -3 -78q-2 -13 -10 -21q-11 -11 -21 -13q-2 -1 -5 -1q-8 0 -17 4zM397 308q9 5 8 26q0 22 -9 82q-23 159 -56 235q-26 62 -57 62q-7 0 -14 -3q-27 -11 -55 -90t-44 -191q-11 -72 -11 -96v0q0 -24 12 -27q5 -1 34 -2h57h9q43 0 83 1t43 3zM293 854
q13 5 13 18v2q0 14 -14 18q-4 1 -8 1q-6 0 -12 -4q-8 -5 -8 -15q0 -13 9 -19q4 -3 10 -3q4 0 10 2z" />
    <glyph glyph-name="AE" unicode="&#xc6;" horiz-adv-x="624" 
d="M90 5q-4 1 -10 7q-5 5 -9 11q-4 8 -7 26q-2 19 -2 45q-1 6 -1 12q0 45 5 108q6 71 16 145q8 61 19 118q11 58 23 102q27 95 59 150t68 69q14 5 40 7q23 1 98 1h18h59q25 -1 42 -1q40 -2 49 -8q8 -7 13 -23q3 -10 3 -16v-1q0 -6 -4 -13q-7 -16 -25 -20q-17 -4 -82 -4
q-47 0 -65 -1q-19 -2 -24 -5q-6 -5 -7 -23q-1 -19 -1 -106v-48v-34q1 -44 12 -48t47 -4q26 0 37 -2t20 -7q14 -9 19 -21q4 -13 -1 -29q-5 -18 -20 -24q-16 -6 -56 -6q-35 0 -46 -4t-12 -49v-35v-48q0 -72 1 -99t4 -31q4 -3 24 -4q21 -2 67 -4q71 -1 87 -6q17 -5 23 -24
q4 -15 0 -27q-5 -13 -17 -21q-8 -5 -28 -7q-20 -1 -90 -2h-43h-41q-31 1 -39 3q-17 5 -23 15q-7 9 -9 55q-1 20 -1 49q-1 28 -1 68q-1 35 -1 61t-1 45q-2 55 -12 60t-45 5q-24 0 -33 -1q-9 -2 -14 -8q-4 -3 -7 -9q-2 -5 -2 -9t-2 -22q-1 -18 -3 -39q-1 -21 -4 -62t-4 -77
q-4 -73 -9 -94q-4 -22 -17 -32q-9 -7 -16 -8q-8 -1 -19 4zM268 457q6 4 7 18q2 13 3 67v45q0 42 -2 68q-2 39 -10 42h-3q-11 0 -24 -26q-14 -31 -34 -101q-15 -55 -18 -81q-1 -7 -1 -13q1 -15 7 -19q8 -6 36 -6h1q29 0 38 6z" />
    <glyph glyph-name="Ccedilla" unicode="&#xc7;" horiz-adv-x="570" 
d="M192 -188q-16 8 -31 22q-15 15 -18 26q-2 10 5 25t17 21q9 4 23 3q15 -1 31 -8q8 -3 13 -4q6 0 12 3q12 5 11 18q0 13 -12 47q-9 27 -15 34q-7 6 -36 21q-40 19 -66 46q-27 26 -46 64q-10 20 -14 37q-3 18 -4 81v65q-1 38 -1 91t1 92v65q1 63 4 80q4 18 13 37
q23 48 64 81q42 33 90 43q11 3 29 3q8 1 17 1t18 -1q40 -2 72 -18q33 -15 66 -49q38 -37 52 -74q11 -32 11 -79v-16q-1 -26 -3 -35t-9 -16q-12 -13 -28 -12q-16 0 -27 14q-9 10 -12 21t-8 52q-4 29 -12 47t-27 36q-21 22 -43 31q-21 9 -49 9q-39 -1 -71 -21q-33 -20 -51 -55
q-5 -11 -7 -24q-3 -14 -3 -69v-56v-82v-87v-60q1 -45 2 -60q2 -15 6 -25q8 -21 29 -42q20 -22 41 -31q23 -10 55 -11q33 0 50 9q28 15 47 36t27 46q2 6 5 22q3 17 4 33q3 27 6 35q3 9 12 17q13 11 26 12q14 0 26 -11q9 -7 11 -14q2 -8 3 -34q3 -83 -31 -138
q-35 -55 -116 -96q-15 -8 -17 -17q-1 -8 7 -45q6 -28 3 -51q-3 -22 -17 -44q-19 -31 -60 -43q-19 -6 -37 -6q-20 0 -38 8z" />
    <glyph glyph-name="Egrave" unicode="&#xc8;" horiz-adv-x="552" 
d="M327 926q27 -15 27 -29q0 -4 -2 -8q-5 -8 -15 -8q-12 0 -29 11q-23 8 -68 25q-23 3 -45 17q-28 17 -43 38q-9 14 -9 25q0 6 4 11q7 13 29 13h4q26 -2 55 -18q22 -13 37 -31q18 -15 55 -46zM90 4q-11 5 -16 11t-8 39q-1 14 -2 34q0 21 -1 51q0 42 -1 104v151q0 87 -1 149
v38q0 37 1 66v52q1 22 2 36q2 35 6 44q5 9 14 15q7 6 25 8t85 3q32 1 74 1h23q56 0 94 -2q65 -2 80 -4t24 -9q11 -11 12 -30t-11 -31q-5 -5 -14 -7t-51 -3q-18 -1 -44 -1q-26 -1 -62 -1q-92 -1 -128 -3q-35 -2 -38 -5t-5 -23q-1 -20 -1 -69q0 -60 1 -74q2 -14 8 -18
q5 -4 27 -6q23 -1 85 -1q43 0 80 -1q36 -1 44 -3q33 -6 39 -35q7 -28 -21 -42q-8 -4 -33 -6q-25 -1 -96 -1t-95 -1q-25 -2 -30 -5q-4 -3 -6 -11q-2 -9 -2 -42q-1 -18 -1 -46v-67q0 -93 1 -127t5 -38q3 -3 37 -5q35 -1 124 -3q38 0 66 -1q27 0 46 -1q46 -2 56 -7
q11 -5 16 -18q3 -7 3 -14q0 -6 -1 -13q-5 -13 -17 -22q-6 -5 -17 -7q-12 -2 -60 -3h-49t-70 -1h-76q-50 0 -74 1q-39 1 -47 4z" />
    <glyph glyph-name="Eacute" unicode="&#xc9;" horiz-adv-x="552" 
d="M239 926q14 12 56 46q13 16 37 31q28 16 53 18h4q23 0 31 -13q2 -5 2 -11q0 -11 -9 -25q-14 -21 -42 -38q-23 -14 -44 -17q-23 -8 -68 -25q-19 -11 -30 -11q-10 0 -14 8q-3 4 -3 8q0 14 27 29zM90 4q-11 5 -16 11t-8 39q-1 14 -2 34q0 21 -1 51q0 42 -1 104v151
q0 87 -1 149v38q0 37 1 66v52q1 22 2 36q2 35 6 44q5 9 14 15q7 6 25 8t85 3q32 1 74 1h23q56 0 94 -2q65 -2 80 -4t24 -9q11 -11 12 -30t-11 -31q-5 -5 -14 -7t-51 -3q-18 -1 -44 -1q-26 -1 -62 -1q-92 -1 -128 -3q-35 -2 -38 -5t-5 -23q-1 -20 -1 -69q0 -60 1 -74
q2 -14 8 -18q5 -4 27 -6q23 -1 85 -1q43 0 80 -1q36 -1 44 -3q33 -6 39 -35q7 -28 -21 -42q-8 -4 -33 -6q-25 -1 -96 -1t-95 -1q-25 -2 -30 -5q-4 -3 -6 -11q-2 -9 -2 -42q-1 -18 -1 -46v-67q0 -93 1 -127t5 -38q3 -3 37 -5q35 -1 124 -3q38 0 66 -1q27 0 46 -1q46 -2 56 -7
q11 -5 16 -18q3 -7 3 -14q0 -6 -1 -13q-5 -13 -17 -22q-6 -5 -17 -7q-12 -2 -60 -3h-49t-70 -1h-76q-50 0 -74 1q-39 1 -47 4z" />
    <glyph glyph-name="Ecircumflex" unicode="&#xca;" horiz-adv-x="552" 
d="M283 935l-78 -78q-13 -13 -26 -13t-27 13q-12 13 -12 25v2q0 13 12 25q35 35 105 104q13 13 26 13t26 -13l104 -104q13 -13 13 -26t-13 -26q-26 -26 -52 0zM90 4q-11 5 -16 11t-8 39q-1 14 -2 34q0 21 -1 51q0 42 -1 104v151q0 87 -1 149v38q0 37 1 66v52q1 22 2 36
q2 35 6 44q5 9 14 15q7 6 25 8t85 3q32 1 74 1h23q56 0 94 -2q65 -2 80 -4t24 -9q11 -11 12 -30t-11 -31q-5 -5 -14 -7t-51 -3q-18 -1 -44 -1q-26 -1 -62 -1q-92 -1 -128 -3q-35 -2 -38 -5t-5 -23q-1 -20 -1 -69q0 -60 1 -74q2 -14 8 -18q5 -4 27 -6q23 -1 85 -1q43 0 80 -1
q36 -1 44 -3q33 -6 39 -35q7 -28 -21 -42q-8 -4 -33 -6q-25 -1 -96 -1t-95 -1q-25 -2 -30 -5q-4 -3 -6 -11q-2 -9 -2 -42q-1 -18 -1 -46v-67q0 -93 1 -127t5 -38q3 -3 37 -5q35 -1 124 -3q38 0 66 -1q27 0 46 -1q46 -2 56 -7q11 -5 16 -18q3 -7 3 -14q0 -6 -1 -13
q-5 -13 -17 -22q-6 -5 -17 -7q-12 -2 -60 -3h-49t-70 -1h-76q-50 0 -74 1q-39 1 -47 4z" />
    <glyph glyph-name="Edieresis" unicode="&#xcb;" horiz-adv-x="552" 
d="M172 954q37 0 37 -38q0 -36 -37 -36q-36 0 -36 36q0 38 36 38zM393 954q38 0 38 -38q0 -36 -38 -36q-37 0 -37 36q0 38 37 38zM90 4q-11 5 -16 11t-8 39q-1 14 -2 34q0 21 -1 51q0 42 -1 104v151q0 87 -1 149v38q0 37 1 66v52q1 22 2 36q2 35 6 44q5 9 14 15q7 6 25 8
t85 3q32 1 74 1h23q56 0 94 -2q65 -2 80 -4t24 -9q11 -11 12 -30t-11 -31q-5 -5 -14 -7t-51 -3q-18 -1 -44 -1q-26 -1 -62 -1q-92 -1 -128 -3q-35 -2 -38 -5t-5 -23q-1 -20 -1 -69q0 -60 1 -74q2 -14 8 -18q5 -4 27 -6q23 -1 85 -1q43 0 80 -1q36 -1 44 -3q33 -6 39 -35
q7 -28 -21 -42q-8 -4 -33 -6q-25 -1 -96 -1t-95 -1q-25 -2 -30 -5q-4 -3 -6 -11q-2 -9 -2 -42q-1 -18 -1 -46v-67q0 -93 1 -127t5 -38q3 -3 37 -5q35 -1 124 -3q38 0 66 -1q27 0 46 -1q46 -2 56 -7q11 -5 16 -18q3 -7 3 -14q0 -6 -1 -13q-5 -13 -17 -22q-6 -5 -17 -7
q-12 -2 -60 -3h-49t-70 -1h-76q-50 0 -74 1q-39 1 -47 4z" />
    <glyph glyph-name="Igrave" unicode="&#xcc;" horiz-adv-x="317" 
d="M232 926q27 -15 27 -29q0 -4 -2 -8q-5 -8 -15 -8q-12 0 -29 11q-23 8 -68 25q-23 3 -45 17q-28 17 -43 38q-9 14 -9 25q0 6 4 11q7 13 29 13h4q26 -2 55 -18q22 -13 37 -31q18 -15 55 -46zM65 5q-5 3 -10 7q-6 4 -8 7q-5 7 -6 22q0 15 4 24q4 7 17 14t22 7q4 0 9 2
q4 2 7 5t4 22q2 19 2 82q1 35 1 85v120v302q-3 2 -10 7q-4 2 -11 5t-13 4q-22 5 -30 27q-2 7 -2 14q0 14 10 25q5 7 13 10t23 6q9 1 22 2q12 1 27 2h25q14 0 29 -1q27 -1 38 -3q18 -4 28 -16t10 -28t-11 -26q-11 -11 -32 -15q-8 -1 -15 -4q-8 -3 -9 -5q-2 -2 -3 -92
q-1 -91 -1 -215v-126t1 -87q1 -81 6 -91q5 -11 18 -11q11 0 24 -7t17 -15q5 -9 5 -20v-7q-2 -15 -11 -23q-11 -11 -30 -13q-17 -3 -76 -3h-2q-40 0 -57 1q-17 2 -25 6z" />
    <glyph glyph-name="Iacute" unicode="&#xcd;" horiz-adv-x="317" 
d="M144 926q14 12 56 46q13 16 37 31q28 16 53 18h4q23 0 31 -13q2 -5 2 -11q0 -11 -9 -25q-14 -21 -42 -38q-23 -14 -44 -17q-23 -8 -68 -25q-19 -11 -30 -11q-10 0 -14 8q-3 4 -3 8q0 14 27 29zM65 5q-5 3 -10 7q-6 4 -8 7q-5 7 -6 22q0 15 4 24q4 7 17 14t22 7q4 0 9 2
q4 2 7 5t4 22q2 19 2 82q1 35 1 85v120v302q-3 2 -10 7q-4 2 -11 5t-13 4q-22 5 -30 27q-2 7 -2 14q0 14 10 25q5 7 13 10t23 6q9 1 22 2q12 1 27 2h25q14 0 29 -1q27 -1 38 -3q18 -4 28 -16t10 -28t-11 -26q-11 -11 -32 -15q-8 -1 -15 -4q-8 -3 -9 -5q-2 -2 -3 -92
q-1 -91 -1 -215v-126t1 -87q1 -81 6 -91q5 -11 18 -11q11 0 24 -7t17 -15q5 -9 5 -20v-7q-2 -15 -11 -23q-11 -11 -30 -13q-17 -3 -76 -3h-2q-40 0 -57 1q-17 2 -25 6z" />
    <glyph glyph-name="Icircumflex" unicode="&#xce;" horiz-adv-x="317" 
d="M153 926q-20 -19 -78 -78q-13 -13 -26 -13t-26 13t-13 26t13 26l104 104q13 13 26 13t26 -13l104 -104q13 -13 13 -26v-2q0 -12 -13 -24q-26 -26 -52 0zM62 5q-5 3 -10 7q-6 4 -8 7q-5 7 -6 22q0 15 4 24q4 7 17 14t22 7q4 0 9 2q4 2 7 5t5 22q1 19 2 82v85v120v302
q-3 2 -10 7q-4 2 -11 5t-13 4q-22 5 -30 27q-2 7 -2 14q0 14 10 25q5 7 13 10t23 6q9 1 22 2q12 1 27 2h25q15 0 29 -1q27 -1 38 -3q18 -4 28 -16t10 -28t-11 -26q-11 -11 -32 -15q-8 -1 -15 -4q-8 -3 -9 -5t-3 -92q-1 -91 -1 -215v-126t1 -87q1 -81 6 -91q5 -11 18 -11
q11 0 24 -7t17 -15q5 -9 5 -20v-7q-2 -15 -11 -23q-11 -11 -30 -13q-17 -3 -76 -3h-2q-39 0 -57 1q-17 2 -25 6z" />
    <glyph glyph-name="Idieresis" unicode="&#xcf;" horiz-adv-x="314" 
d="M42 954q36 0 36 -38q0 -36 -36 -36q-37 0 -37 36q0 38 37 38zM262 954q37 0 37 -38q0 -36 -37 -36q-36 0 -36 36q0 38 36 38zM66 5q-5 3 -10 7q-6 4 -8 7q-5 7 -6 22q0 15 4 24q4 7 17 14t22 7q4 0 9 2q4 2 7 5t5 22q1 19 2 82v85v120v302q-3 2 -10 7q-4 2 -11 5t-13 4
q-22 5 -30 27q-2 7 -2 14q0 14 10 25q5 7 13 10t23 6q9 1 22 2q12 1 27 2h25q15 0 29 -1q27 -1 38 -3q18 -4 28 -16t10 -28t-11 -26q-11 -11 -32 -15q-8 -1 -15 -4q-8 -3 -9 -5t-3 -92q-1 -91 -1 -215v-126t1 -87q1 -81 6 -91q5 -11 18 -11q11 0 24 -7t17 -15q5 -9 5 -20v-7
q-2 -15 -11 -23q-11 -11 -30 -13q-17 -3 -76 -3h-2q-39 0 -57 1q-17 2 -25 6z" />
    <glyph glyph-name="Eth" unicode="&#xd0;" horiz-adv-x="604" 
d="M114 9q-6 3 -11 10q-6 6 -8 11q-3 6 -5 49q-1 42 -3 119q0 37 -1 64q0 27 -1 44q-2 42 -6 49t-15 7q-9 0 -22 7q-13 8 -17 15q-5 9 -5 19t6 21q12 20 37 26q11 3 15 6q5 3 7 9q0 4 1 50q1 45 2 105q1 97 2 124q2 27 7 37q6 11 15 16q9 6 35 7q14 1 36 2h52h35h27
q34 -1 46 -4q11 -2 28 -11q42 -21 79 -73q37 -53 60 -126q15 -48 19 -89q3 -28 3 -77v-47q-2 -68 -4 -90t-10 -50q-25 -85 -63 -143q-38 -59 -84 -81q-15 -7 -25 -10q-11 -2 -46 -3q-11 0 -27 -1h-36h-55h-39q-18 1 -29 8zM320 93q49 10 82 78q33 69 43 177q3 28 3 56
q0 11 -1 22q-1 39 -7 76q-10 68 -33 122q-24 54 -55 75q-15 11 -42 16q-28 5 -71 5q-38 0 -50 -5q-12 -4 -13 -48q-1 -14 -1 -34v-48v-47q0 -19 1 -32q0 -32 2 -38q2 -7 7 -11q4 -3 14 -5q9 -2 19 -2q25 0 40 -7t21 -21q11 -25 -6 -43q-16 -17 -51 -17q-13 0 -23 -2
q-9 -1 -14 -5q-5 -3 -7 -10t-2 -39q-1 -14 -1 -34v-47v-48v-9v-27q2 -45 15 -49t57 -4q21 0 43 2q21 1 30 3z" />
    <glyph glyph-name="Ntilde" unicode="&#xd1;" 
d="M201 928q-35 -12 -23 -46q11 -35 -23 -47q-35 -12 -47 24v0v0q-6 18 -6 35q0 25 12 49q21 40 64 55q18 6 35 6q25 0 49 -12q41 -21 56 -64q11 -35 46 -23q35 11 24 46q-12 35 23 47q36 12 46 -23q7 -18 7 -36q-1 -25 -12 -49q-21 -41 -64 -55q-18 -6 -36 -6q-25 0 -49 12
q-41 21 -55 64q-12 34 -47 23zM89 6q-4 1 -10 6q-5 5 -8 10q-4 5 -5 25q-2 19 -3 94q0 40 -1 102v150q-1 79 -1 141q0 82 1 135q1 92 3 101q5 17 15 26t23 9q15 0 27 -12q11 -11 21 -36q8 -19 40 -82q33 -64 72 -137q17 -32 33 -63q17 -31 32 -58q29 -53 49 -87
q20 -35 23 -36q2 -1 5 0t5 3q1 2 3 71q1 68 2 162q1 58 1 99q1 41 1 69q2 67 8 82q5 14 19 21q10 5 19 5q5 0 10 -2q13 -5 20 -21q3 -7 5 -29q1 -23 2 -95q1 -39 1 -96v-137q1 -65 1 -120q0 -79 -1 -138q-1 -101 -3 -115q-2 -20 -5 -28q-4 -8 -11 -14t-12 -8q-6 -2 -13 0
q-16 3 -25 15q-10 11 -18 36q-8 24 -44 95t-120 227q-57 105 -74 132q-16 27 -22 21q-2 -2 -4 -73q-3 -72 -4 -174q-1 -60 -2 -103q-1 -42 -2 -72q-2 -69 -8 -83q-5 -14 -19 -19q-9 -3 -13 -3t-13 4z" />
    <glyph glyph-name="Ograve" unicode="&#xd2;" horiz-adv-x="575" 
d="M327 926q27 -15 27 -29q0 -4 -2 -8q-5 -8 -15 -8q-12 0 -29 11q-23 8 -68 25q-23 3 -45 17q-28 17 -43 38q-9 14 -9 25q0 6 4 11q7 13 29 13h4q26 -2 55 -18q22 -13 37 -31q18 -15 55 -46zM216 11q-44 15 -78 46q-33 30 -56 74q-4 9 -7 30q-4 20 -7 49q-4 52 -6 125
q-1 35 -1 70q0 36 1 72q2 71 7 128q5 56 13 73q22 45 56 74q33 29 72 42q34 12 69 12q41 0 83 -16q78 -29 122 -112q9 -17 14 -85t6 -151v-21q0 -25 -1 -50q0 -36 -2 -70q-2 -63 -7 -110q-5 -48 -12 -64q-22 -45 -67 -77q-44 -32 -94 -43q-24 -6 -49 -6h-5q-27 1 -51 10z
M341 107q37 18 53 47q17 30 20 85q2 32 2 81v34v67q-1 78 -5 144q-3 66 -7 75q-25 49 -72 66q-25 9 -49 9q-22 0 -43 -7q-24 -8 -44 -25q-21 -17 -34 -43q-7 -14 -11 -73q-3 -59 -3 -132v-7v-56q1 -32 2 -61q2 -55 6 -95q3 -41 9 -52q24 -47 76 -64q22 -7 43 -7q30 0 57 14z
" />
    <glyph glyph-name="Oacute" unicode="&#xd3;" horiz-adv-x="575" 
d="M239 926q14 12 56 46q13 16 37 31q28 16 53 18h4q23 0 31 -13q2 -5 2 -11q0 -11 -9 -25q-14 -21 -42 -38q-23 -14 -44 -17q-23 -8 -68 -25q-19 -11 -30 -11q-10 0 -14 8q-3 4 -3 8q0 14 27 29zM216 11q-44 15 -78 46q-33 30 -56 74q-4 9 -7 30q-4 20 -7 49q-4 52 -6 125
q-1 35 -1 70q0 36 1 72q2 71 7 128q5 56 13 73q22 45 56 74q33 29 72 42q34 12 69 12q41 0 83 -16q78 -29 122 -112q9 -17 14 -85t6 -151v-21q0 -25 -1 -50q0 -36 -2 -70q-2 -63 -7 -110q-5 -48 -12 -64q-22 -45 -67 -77q-44 -32 -94 -43q-24 -6 -49 -6h-5q-27 1 -51 10z
M341 107q37 18 53 47q17 30 20 85q2 32 2 81v34v67q-1 78 -5 144q-3 66 -7 75q-25 49 -72 66q-25 9 -49 9q-22 0 -43 -7q-24 -8 -44 -25q-21 -17 -34 -43q-7 -14 -11 -73q-3 -59 -3 -132v-7v-56q1 -32 2 -61q2 -55 6 -95q3 -41 9 -52q24 -47 76 -64q22 -7 43 -7q30 0 57 14z
" />
    <glyph glyph-name="Ocircumflex" unicode="&#xd4;" horiz-adv-x="575" 
d="M283 935l-78 -78q-13 -13 -26 -13t-27 13q-12 13 -12 25v2q0 13 12 25q35 35 105 104q13 13 26 13t26 -13l104 -104q13 -13 13 -26t-13 -26q-26 -26 -52 0zM216 11q-44 15 -78 46q-33 30 -56 74q-4 9 -7 30q-4 20 -7 49q-4 52 -6 125q-1 35 -1 70q0 36 1 72q2 71 7 128
q5 56 13 73q22 45 56 74q33 29 72 42q34 12 69 12q41 0 83 -16q78 -29 122 -112q9 -17 14 -85t6 -151v-21q0 -25 -1 -50q0 -36 -2 -70q-2 -63 -7 -110q-5 -48 -12 -64q-22 -45 -67 -77q-44 -32 -94 -43q-24 -6 -49 -6h-5q-27 1 -51 10zM341 107q37 18 53 47q17 30 20 85
q2 32 2 81v34v67q-1 78 -5 144q-3 66 -7 75q-25 49 -72 66q-25 9 -49 9q-22 0 -43 -7q-24 -8 -44 -25q-21 -17 -34 -43q-7 -14 -11 -73q-3 -59 -3 -132v-7v-56q1 -32 2 -61q2 -55 6 -95q3 -41 9 -52q24 -47 76 -64q22 -7 43 -7q30 0 57 14z" />
    <glyph glyph-name="Otilde" unicode="&#xd5;" horiz-adv-x="575" 
d="M201 928q-35 -12 -23 -46q11 -35 -23 -47q-35 -12 -47 24v0v0q-6 18 -6 35q0 25 12 49q21 40 64 55q18 6 35 6q25 0 49 -12q41 -21 56 -64q11 -35 46 -23q35 11 24 46q-12 35 23 47q36 12 46 -23q7 -18 7 -36q-1 -25 -12 -49q-21 -41 -64 -55q-18 -6 -36 -6q-25 0 -49 12
q-41 21 -55 64q-12 34 -47 23zM216 11q-44 15 -78 46q-33 30 -56 74q-4 9 -7 30q-4 20 -7 49q-4 52 -6 125q-1 35 -1 70q0 36 1 72q2 71 7 128q5 56 13 73q22 45 56 74q33 29 72 42q34 12 69 12q41 0 83 -16q78 -29 122 -112q9 -17 14 -85t6 -151v-21q0 -25 -1 -50
q0 -36 -2 -70q-2 -63 -7 -110q-5 -48 -12 -64q-22 -45 -67 -77q-44 -32 -94 -43q-24 -6 -49 -6h-5q-27 1 -51 10zM341 107q37 18 53 47q17 30 20 85q2 32 2 81v34v67q-1 78 -5 144q-3 66 -7 75q-25 49 -72 66q-25 9 -49 9q-22 0 -43 -7q-24 -8 -44 -25q-21 -17 -34 -43
q-7 -14 -11 -73q-3 -59 -3 -132v-7v-56q1 -32 2 -61q2 -55 6 -95q3 -41 9 -52q24 -47 76 -64q22 -7 43 -7q30 0 57 14z" />
    <glyph glyph-name="Odieresis" unicode="&#xd6;" horiz-adv-x="575" 
d="M172 954q37 0 37 -38q0 -36 -37 -36q-36 0 -36 36q0 38 36 38zM393 954q38 0 38 -38q0 -36 -38 -36q-37 0 -37 36q0 38 37 38zM216 11q-44 15 -78 46q-33 30 -56 74q-4 9 -7 30q-4 20 -7 49q-4 52 -6 125q-1 35 -1 70q0 36 1 72q2 71 7 128q5 56 13 73q22 45 56 74
q33 29 72 42q34 12 69 12q41 0 83 -16q78 -29 122 -112q9 -17 14 -85t6 -151v-21q0 -25 -1 -50q0 -36 -2 -70q-2 -63 -7 -110q-5 -48 -12 -64q-22 -45 -67 -77q-44 -32 -94 -43q-24 -6 -49 -6h-5q-27 1 -51 10zM341 107q37 18 53 47q17 30 20 85q2 32 2 81v34v67
q-1 78 -5 144q-3 66 -7 75q-25 49 -72 66q-25 9 -49 9q-22 0 -43 -7q-24 -8 -44 -25q-21 -17 -34 -43q-7 -14 -11 -73q-3 -59 -3 -132v-7v-56q1 -32 2 -61q2 -55 6 -95q3 -41 9 -52q24 -47 76 -64q22 -7 43 -7q30 0 57 14z" />
    <glyph glyph-name="multiply" unicode="&#xd7;" horiz-adv-x="526" 
d="M61 160q-11 11 -14 23q-2 11 4 24q3 6 24 33q20 27 46 59q25 32 45 59q21 26 23 31q6 11 2 20t-23 33q-52 62 -84 105q-32 42 -35 53q-3 9 -3 14v2q1 5 5 13l10 10q7 5 13 7q19 8 34 -2q16 -11 55 -57q53 -62 73 -82q19 -20 28 -20q6 0 21 14q14 15 47 53q48 58 65 74
q16 17 29 22q6 2 12 2q11 0 20 -7q15 -12 15 -31q0 -18 -18 -45q-19 -27 -84 -105q-20 -24 -32 -41q-11 -17 -11 -21q0 -5 12 -22t32 -41q71 -84 89 -114q13 -21 13 -37q0 -6 -2 -11q-4 -12 -14 -19t-23 -7q-14 0 -36 21t-76 85q-19 22 -35 40q-16 17 -19 19q-7 5 -13 2
t-31 -31q-11 -12 -27 -31q-16 -18 -38 -44q-39 -46 -61 -56q-21 -11 -38 6z" />
    <glyph glyph-name="Oslash" unicode="&#xd8;" horiz-adv-x="545" 
d="M35 -18q-19 10 -20 30v1q0 20 19 61q11 27 12 35q0 9 -7 35q-5 17 -8 35q-2 17 -2 78v64v89v89v64q1 61 4 78q4 16 13 34q21 44 60 77q38 32 81 44q32 9 74 6q42 -2 68 -14q28 -13 40 -12q12 2 24 20q5 8 12 16q7 7 11 10q10 7 22 7h3q15 -1 26 -11q12 -10 11 -26v-2
q-1 -18 -17 -55q-7 -17 -11 -30q-4 -14 -3 -18t4 -15q2 -11 5 -22t5 -31q1 -20 2 -71v-65q1 -39 1 -91v-89q-1 -38 -1 -64q0 -61 -2 -75t-8 -26q-19 -40 -50 -71q-32 -31 -74 -51q-22 -11 -34 -13t-48 -2q-35 0 -48 3q-13 2 -37 12q-14 5 -26 10q-11 4 -13 4t-11 -8l-19 -19
q-20 -21 -31 -25q-4 -1 -8 -1q-8 0 -19 5zM300 101q20 9 39 28t28 39q5 12 7 25q3 12 3 57q1 18 1 45t1 64v60q0 35 -1 62q0 49 -2 52q-2 2 -4 3h-2h-3q-2 -2 -23 -42q-21 -41 -49 -96q-35 -68 -69 -138q-35 -70 -47 -97t-12 -39v-3q2 -11 22 -19q28 -12 56 -12h1
q28 0 54 11zM211 429q25 52 44 89q19 38 32 65q25 51 32 71q6 17 6 24v3q-6 22 -52 29q-15 3 -28 3q-29 0 -51 -11q-21 -9 -39 -26t-27 -35q-9 -19 -13 -73q-4 -55 -4 -161v-6q0 -84 2 -108q2 -23 9 -24h1q3 1 27 43q23 43 61 117z" />
    <glyph glyph-name="Ugrave" unicode="&#xd9;" horiz-adv-x="572" 
d="M327 926q27 -15 27 -29q0 -4 -2 -8q-5 -8 -15 -8q-12 0 -29 11q-23 8 -68 25q-23 3 -45 17q-28 17 -43 38q-9 14 -9 25q0 6 4 11q7 13 29 13h4q26 -2 55 -18q22 -13 37 -31q18 -15 55 -46zM224 9q-42 12 -82 46t-62 78q-9 18 -12 37q-4 20 -5 96v79q-1 47 -1 112
q0 79 -1 136v19q0 44 1 75q0 27 1 46q1 20 3 33q4 30 12 35q9 5 24 5q19 0 27 -13q9 -12 13 -60q1 -26 2 -64t1 -93q1 -174 5 -281q3 -107 9 -121q11 -26 31 -43q19 -17 43 -26q44 -16 92 -4q47 13 70 57q8 16 12 37q3 22 5 98q0 33 1 79t1 109q1 74 2 127q0 52 2 88
q0 25 2 43q1 17 3 30q4 28 13 33q9 4 25 4q15 0 23 -4t12 -33q1 -12 2 -31q1 -18 2 -45v-92v-133v-116v-82q0 -78 -3 -96q-2 -18 -8 -31q-37 -78 -112 -116q-49 -25 -98 -25q-27 0 -55 7z" />
    <glyph glyph-name="Uacute" unicode="&#xda;" horiz-adv-x="572" 
d="M239 926q14 12 56 46q13 16 37 31q28 16 53 18h4q23 0 31 -13q2 -5 2 -11q0 -11 -9 -25q-14 -21 -42 -38q-23 -14 -44 -17q-23 -8 -68 -25q-19 -11 -30 -11q-10 0 -14 8q-3 4 -3 8q0 14 27 29zM224 9q-42 12 -82 46t-62 78q-9 18 -12 37q-4 20 -5 96v79q-1 47 -1 112
q0 79 -1 136v19q0 44 1 75q0 27 1 46q1 20 3 33q4 30 12 35q9 5 24 5q19 0 27 -13q9 -12 13 -60q1 -26 2 -64t1 -93q1 -174 5 -281q3 -107 9 -121q11 -26 31 -43q19 -17 43 -26q44 -16 92 -4q47 13 70 57q8 16 12 37q3 22 5 98q0 33 1 79t1 109q1 74 2 127q0 52 2 88
q0 25 2 43q1 17 3 30q4 28 13 33q9 4 25 4q15 0 23 -4t12 -33q1 -12 2 -31q1 -18 2 -45v-92v-133v-116v-82q0 -78 -3 -96q-2 -18 -8 -31q-37 -78 -112 -116q-49 -25 -98 -25q-27 0 -55 7z" />
    <glyph glyph-name="Ucircumflex" unicode="&#xdb;" horiz-adv-x="572" 
d="M283 935l-78 -78q-13 -13 -26 -13t-27 13q-12 13 -12 25v2q0 13 12 25q35 35 105 104q13 13 26 13t26 -13l104 -104q13 -13 13 -26t-13 -26q-26 -26 -52 0zM224 9q-42 12 -82 46t-62 78q-9 18 -12 37q-4 20 -5 96v79q-1 47 -1 112q0 79 -1 136v19q0 44 1 75q0 27 1 46
q1 20 3 33q4 30 12 35q9 5 24 5q19 0 27 -13q9 -12 13 -60q1 -26 2 -64t1 -93q1 -174 5 -281q3 -107 9 -121q11 -26 31 -43q19 -17 43 -26q44 -16 92 -4q47 13 70 57q8 16 12 37q3 22 5 98q0 33 1 79t1 109q1 74 2 127q0 52 2 88q0 25 2 43q1 17 3 30q4 28 13 33q9 4 25 4
q15 0 23 -4t12 -33q1 -12 2 -31q1 -18 2 -45v-92v-133v-116v-82q0 -78 -3 -96q-2 -18 -8 -31q-37 -78 -112 -116q-49 -25 -98 -25q-27 0 -55 7z" />
    <glyph glyph-name="Udieresis" unicode="&#xdc;" horiz-adv-x="572" 
d="M172 954q37 0 37 -38q0 -36 -37 -36q-36 0 -36 36q0 38 36 38zM393 954q38 0 38 -38q0 -36 -38 -36q-37 0 -37 36q0 38 37 38zM224 9q-42 12 -82 46t-62 78q-9 18 -12 37q-4 20 -5 96v79q-1 47 -1 112q0 79 -1 136v19q0 44 1 75q0 27 1 46q1 20 3 33q4 30 12 35q9 5 24 5
q19 0 27 -13q9 -12 13 -60q1 -26 2 -64t1 -93q1 -174 5 -281q3 -107 9 -121q11 -26 31 -43q19 -17 43 -26q44 -16 92 -4q47 13 70 57q8 16 12 37q3 22 5 98q0 33 1 79t1 109q1 74 2 127q0 52 2 88q0 25 2 43q1 17 3 30q4 28 13 33q9 4 25 4q15 0 23 -4t12 -33q1 -12 2 -31
q1 -18 2 -45v-92v-133v-116v-82q0 -78 -3 -96q-2 -18 -8 -31q-37 -78 -112 -116q-49 -25 -98 -25q-27 0 -55 7z" />
    <glyph glyph-name="Yacute" unicode="&#xdd;" horiz-adv-x="495" 
d="M204 926q14 12 56 46q13 16 37 31q28 16 53 18h4q23 0 31 -13q2 -5 2 -11q0 -11 -9 -25q-14 -21 -42 -38q-23 -14 -44 -17q-23 -8 -68 -25q-19 -11 -30 -11q-10 0 -14 8q-3 4 -3 8q0 14 27 29zM232 6q-4 2 -9 7q-6 4 -9 9q-5 8 -7 34t-3 124q-1 49 -3 146q-20 50 -62 148
q-62 150 -88 216q-25 66 -25 80q0 23 25 33q9 3 17 3q14 1 25 -11q8 -9 26 -47t49 -115q38 -90 53 -124q16 -34 20 -36q3 -1 7 0q3 2 6 5t19 39t36 83q17 40 30 70q12 29 21 50q17 38 25 53q9 15 15 21q12 12 25 11q14 0 27 -12q12 -13 12 -29v-1q0 -18 -30 -93
q-13 -32 -32 -78q-20 -46 -47 -111q-23 -57 -42 -102q-18 -45 -20 -53t-4 -47q-1 -40 -1 -102v-66q-1 -26 -2 -45q-2 -33 -7 -43q-6 -9 -20 -15q-6 -2 -11 -4l-5 -2q-1 0 -4 1q-3 2 -7 3z" />
    <glyph glyph-name="Thorn" unicode="&#xde;" horiz-adv-x="564" 
d="M86 9q-8 5 -13 11t-7 39q-1 14 -2 35q0 20 -1 49q0 42 -1 103v148q0 83 -1 144v35q0 39 1 69v59q1 24 2 40q2 31 5 40q4 10 10 16q9 9 24 9h2q17 -1 27 -12q8 -8 9 -20q2 -11 4 -62q2 -62 8 -72q6 -11 38 -11q11 0 38 -2q27 -1 53 -2q46 -2 60 -5q14 -2 33 -12
q44 -21 79 -66q36 -46 44 -89q5 -25 5 -49q0 -54 -25 -101q-35 -69 -111 -105q-17 -8 -34 -10q-16 -2 -81 -4q-46 -1 -70 -3q-23 -2 -27 -5q-5 -4 -7 -17q-2 -14 -3 -59q-2 -52 -4 -63q-1 -11 -9 -19q-11 -11 -23 -13q-3 -1 -6 -1q-8 0 -17 5zM297 276q38 5 64 26
q26 20 43 57q11 22 11 46q0 22 -10 46q-18 49 -63 71q-18 9 -51 14q-32 4 -78 5h-3q-24 0 -37 -2q-13 -1 -17 -5q-6 -4 -8 -23q-1 -18 -1 -105t1 -105q2 -19 8 -23q7 -6 56 -7h10q43 0 75 5z" />
    <glyph glyph-name="germandbls" unicode="&#xdf;" horiz-adv-x="557" 
d="M88 7q-10 4 -16 10q-5 7 -7 38q-1 13 -2 32q-1 20 -1 47q0 39 -1 96v137v126q1 52 1 88v44q1 19 1 32q2 32 5 42q3 11 8 22q20 41 55 63q34 22 78 22t79 -22q34 -21 55 -62q10 -18 12 -28q2 -11 2 -38q0 -33 -8 -54t-33 -55q-15 -20 -18 -33q-2 -14 8 -19q4 -2 15 -5
q12 -3 25 -6t29 -8t25 -10q23 -12 47 -36q23 -24 36 -49q7 -15 10 -26q3 -12 3 -48v-27v-37v-37v-28q0 -36 -3 -47t-11 -26q-13 -25 -36 -48q-23 -24 -47 -37q-17 -10 -29 -11q-11 -2 -55 -2q-43 0 -55 2t-33 12q-12 5 -27 15q-15 9 -24 17q-19 16 -26 17t-9 -11
q-6 -27 -10 -37q-5 -10 -14 -15q-12 -6 -14 -6q-3 0 -15 6zM354 101q7 4 16 11t15 13q18 19 23 38q4 20 4 75v2q0 58 -3 80q-4 21 -18 37q-13 17 -28 25t-46 14q-33 7 -50 16q-18 9 -34 27q-32 36 -28 78q3 43 41 88q23 27 25 50q2 22 -16 39q-19 18 -38 21q-4 1 -8 1
q-15 0 -29 -9q-17 -10 -23 -23t-8 -83q-1 -23 -1 -55q-1 -31 -2 -73q-1 -83 -2 -160v-72v-31q1 -46 4 -54t19 -7q17 1 30 -4q14 -6 39 -24q8 -6 19 -12q10 -6 17 -9q15 -7 38 -7h4q25 1 40 8z" />
    <glyph glyph-name="agrave" unicode="&#xe0;" horiz-adv-x="549" 
d="M312 631q26 -16 26 -29q0 -4 -2 -7q-4 -9 -15 -9t-29 11q-23 8 -68 26q-23 4 -44 16q-28 16 -43 38q-9 14 -9 25q0 6 3 12q7 12 30 12h4q26 -2 55 -18q23 -13 36 -30q19 -16 56 -47zM208 8q-89 20 -130 84q-32 49 -32 99q0 16 3 32q7 36 31 69q24 32 65 55q35 19 94 24
q59 6 101 -5q23 -7 27 -6q4 0 4 7q0 6 -17 24q-18 19 -30 25q-13 7 -41 11t-76 6q-58 3 -74 11q-15 8 -15 35t18 33q15 5 73 5h25q25 0 45 -1q19 -1 34 -3q35 -5 56 -18q22 -13 51 -43q27 -27 40 -47q12 -19 17 -49q2 -12 4 -28q1 -16 2 -37q4 -71 4 -124q0 -93 -11 -131
q-10 -34 -31 -34q-16 0 -39 19q-9 8 -16 7q-6 0 -35 -10q-35 -12 -74 -15q-40 -3 -73 5zM314 101q48 14 70 49q12 20 12 40q0 15 -7 31q-16 32 -54 48q-34 15 -71 15h-10q-22 -1 -44 -8q-21 -7 -38 -20q-19 -14 -28 -30t-10 -32q-1 -2 -1 -5q0 -14 6 -27q6 -16 19 -29
q24 -25 66 -36q17 -4 36 -4q26 0 54 8z" />
    <glyph glyph-name="aacute" unicode="&#xe1;" horiz-adv-x="548" 
d="M190 631q14 12 56 47q13 17 37 30q28 16 54 18h4q22 0 30 -12q3 -5 3 -11q0 -11 -10 -26q-14 -22 -42 -38q-22 -12 -45 -16q-22 -9 -67 -26q-18 -11 -30 -11q-10 0 -14 9q-2 3 -2 8q0 13 26 28zM208 8q-89 20 -130 84q-32 49 -32 99q0 16 3 32q7 36 31 69q24 32 65 55
q35 19 94 24q59 6 101 -5q23 -7 27 -6q4 0 4 7q0 6 -17 24q-18 19 -30 25q-13 7 -41 11t-76 6q-58 3 -74 11q-15 8 -15 35t18 33q15 5 73 5h25q25 0 45 -1q19 -1 34 -3q35 -5 56 -18q22 -13 51 -43q27 -27 40 -47q12 -19 17 -49q2 -12 4 -28q1 -16 2 -37q4 -71 4 -124
q0 -93 -11 -131q-10 -34 -31 -34q-16 0 -39 19q-9 8 -16 7q-6 0 -35 -10q-35 -12 -74 -15q-40 -3 -73 5zM314 101q48 14 70 49q12 20 12 40q0 15 -7 31q-9 17 -24 30q-16 13 -36 21q-30 12 -66 12h-15q-44 -4 -76 -28q-19 -14 -28 -30t-10 -32q-1 -2 -1 -5q0 -14 6 -27
q6 -16 19 -29q24 -25 66 -36q17 -4 36 -4q26 0 54 8z" />
    <glyph glyph-name="acircumflex" unicode="&#xe2;" horiz-adv-x="548" 
d="M286 659q-19 -20 -78 -79q-13 -13 -26 -13t-27 13q-12 13 -12 26t12 26l105 105q13 13 26 13t26 -13q35 -35 104 -105q13 -13 13 -26t-13 -26q-26 -26 -52 0t-78 79zM208 8q-89 20 -130 84q-32 49 -32 99q0 16 3 32q7 36 31 69q24 32 65 55q35 19 94 24q59 6 101 -6
q23 -6 27 -6q4 1 4 8q0 6 -17 24q-18 19 -30 25q-13 7 -41 11t-76 6q-58 3 -74 11q-15 8 -15 35t18 33q15 5 73 5h25q25 0 45 -1q19 -1 34 -3q35 -5 56 -18q22 -13 51 -43q27 -27 40 -47q12 -19 17 -49q2 -12 4 -28q1 -16 2 -37q4 -71 4 -125q0 -92 -11 -130
q-10 -34 -31 -34q-16 0 -39 19q-9 8 -16 7q-6 0 -35 -10q-35 -12 -74 -15q-40 -3 -73 5zM314 101q48 14 70 49q12 20 12 40q0 15 -7 30q-16 33 -54 49q-34 15 -71 15h-10q-22 -1 -44 -8q-21 -7 -38 -20q-19 -14 -28 -30t-10 -32q-1 -3 -1 -6q0 -27 22 -52q23 -26 63 -37
q21 -6 45 -6q25 0 51 8z" />
    <glyph glyph-name="atilde" unicode="&#xe3;" horiz-adv-x="548" 
d="M183 671q-35 -12 -23 -47q11 -36 -23 -47q-35 -12 -47 23v1v1q-6 17 -6 34q0 25 12 49q21 41 64 55q18 6 35 6q25 0 49 -12q41 -20 56 -64q11 -35 46 -23t24 47q-12 35 23 46q36 11 46 -23q7 -18 7 -36q-1 -25 -12 -49q-21 -41 -64 -55q-18 -6 -36 -6q-25 0 -49 12
q-41 20 -55 64q-12 34 -47 24zM208 8q-89 20 -130 84q-32 49 -32 99q0 16 3 32q7 36 31 69q24 32 65 55q35 19 94 24q59 6 101 -6q23 -6 27 -6q4 1 4 8q0 6 -17 24q-18 19 -30 25q-13 7 -41 11t-76 6q-58 3 -74 11q-15 8 -15 35t18 33q15 5 73 5h25q25 0 45 -1q19 -1 34 -3
q35 -5 56 -18q22 -13 51 -43q27 -27 40 -47q12 -19 17 -49q2 -12 4 -28q1 -16 2 -37q4 -71 4 -125q0 -92 -11 -130q-10 -34 -31 -34q-16 0 -39 19q-9 8 -16 7q-6 0 -35 -10q-35 -12 -74 -15q-40 -3 -73 5zM314 101q48 14 70 49q12 20 12 40q0 15 -7 30q-16 33 -54 49
q-34 15 -71 15h-10q-22 -1 -44 -8q-21 -7 -38 -20q-19 -14 -28 -30t-10 -32q-1 -2 -1 -5q0 -14 6 -27q6 -16 19 -29q24 -25 66 -36q17 -4 36 -4q26 0 54 8z" />
    <glyph glyph-name="adieresis" unicode="&#xe4;" horiz-adv-x="548" 
d="M158 695q37 0 37 -36q0 -37 -37 -37q-36 0 -36 37q0 36 36 36zM379 695q38 0 38 -36q0 -37 -38 -37q-37 0 -37 37q0 36 37 36zM208 8q-89 20 -130 84q-32 49 -32 100q0 15 3 32q7 36 31 68q24 33 65 56q35 18 94 24q59 5 101 -6q23 -6 27 -6t4 7t-17 25q-18 18 -30 24
q-13 7 -41 11t-76 7q-58 3 -74 11q-15 8 -15 34q0 28 18 34q15 5 73 5h25q25 -1 45 -2q19 -1 34 -2q35 -5 56 -18q22 -14 51 -43q27 -28 40 -47q12 -19 17 -49q2 -13 4 -29q1 -16 2 -37q4 -71 4 -124q0 -93 -11 -131q-10 -33 -31 -34q-16 0 -39 19q-9 8 -16 8q-6 0 -35 -10
q-35 -13 -74 -15q-40 -3 -73 4zM314 101q48 15 70 50q12 19 12 39q0 16 -7 31q-9 17 -24 30q-16 13 -36 21q-30 12 -66 12q-7 1 -15 0q-44 -3 -76 -27q-19 -15 -28 -31q-9 -15 -10 -31q-1 -3 -1 -5q0 -14 6 -28q6 -16 19 -29q24 -24 66 -35q17 -5 36 -5q26 0 54 8z" />
    <glyph glyph-name="aring" unicode="&#xe5;" horiz-adv-x="548" 
d="M271 806q45 0 78 -33q32 -32 32 -78q0 -45 -32 -78q-33 -32 -78 -32q-46 0 -78 32q-33 33 -33 78q0 46 33 78q32 33 78 33zM271 732q-37 0 -37 -37q0 -36 37 -36t37 36q0 37 -37 37zM208 7q-89 20 -130 84q-32 49 -32 100q0 15 3 31q7 37 31 69q24 33 65 55q35 19 94 25
q59 5 101 -6q23 -6 27 -6t4 7t-17 25q-18 18 -30 24q-13 7 -41 11t-76 7q-58 3 -74 11q-15 8 -15 34q0 28 18 34q15 5 73 5h25q25 -1 45 -2q19 -1 34 -3q35 -4 56 -17q22 -14 51 -43q27 -28 40 -47q12 -19 17 -49q2 -13 4 -29q1 -16 2 -37q4 -71 4 -124q0 -93 -11 -131
q-10 -34 -31 -34q-16 0 -39 19q-9 8 -16 8q-6 0 -35 -10q-35 -13 -74 -15q-40 -3 -73 4zM314 100q48 15 70 50q12 19 12 39q0 16 -7 31q-16 32 -54 49q-34 14 -71 15q-5 0 -10 -1q-22 -1 -44 -8q-21 -6 -38 -19q-36 -28 -38 -61v-5q0 -29 20 -53q11 -14 29 -24
q17 -10 39 -16q18 -4 40 -4h3q24 0 49 7z" />
    <glyph glyph-name="ae" unicode="&#xe6;" horiz-adv-x="680" 
d="M167 8q-49 19 -81 59q-31 39 -38 91q-2 18 -2 34q0 35 10 63q15 43 53 78q26 25 48 33t65 8q36 0 41 4q6 4 -5 22q-9 14 -24 21q-16 7 -51 12q-38 5 -51 14q-14 9 -14 30q0 27 29 39q18 7 41 7q16 0 34 -3q28 -5 47 -15q19 -11 40 -32q8 -8 16 -14q9 -6 12 -6q4 0 14 7
q10 8 21 18q26 23 45 32t45 9q40 0 75 -26q34 -27 59 -77q17 -35 25 -66q7 -30 8 -66q0 -27 -1 -34q-2 -8 -11 -17q-6 -6 -13 -9q-7 -2 -34 -3q-12 -1 -29 -1q-17 -1 -40 -1q-85 -2 -99 -6q-14 -3 -11 -23q3 -14 17 -43q13 -29 22 -37q17 -19 46 -16t68 28q28 19 41 21
q14 2 28 -10q16 -14 16 -31q0 -6 -2 -12q-7 -25 -40 -50q-38 -28 -85 -35q-14 -3 -29 -3q-31 0 -59 11q-19 7 -26 8q-6 1 -13 -3q-23 -14 -33 -15q-9 -1 -30 8q-14 7 -19 7q-6 0 -20 -5q-20 -7 -55 -9q-36 -1 -51 4zM246 102q40 25 45 79q1 7 1 13q0 44 -31 70
q-17 15 -34 18q-6 1 -11 1q-12 0 -24 -4q-47 -18 -57 -69q-2 -12 -2 -23q0 -37 28 -68q18 -21 41 -25q7 -1 13 -1q16 0 31 9zM526 312q8 4 8 16v1q0 13 -10 36q-10 26 -21 40t-24 20q-10 4 -15 4q-6 0 -15 -4q-26 -11 -46 -57q-10 -24 -10 -38q0 -13 8 -18q7 -4 62 -5h2
q53 0 61 5z" />
    <glyph glyph-name="ccedilla" unicode="&#xe7;" horiz-adv-x="495" 
d="M180 -184q-28 14 -39 34q-10 21 1 40q8 16 20 20q13 5 31 -1q27 -8 34 -8q7 -1 14 5q8 8 8 18t-8 31q-4 9 -8 19q-4 11 -6 17q-3 8 -11 14q-9 7 -32 18q-37 19 -66 47t-45 60q-14 29 -19 77q-3 24 -3 50q0 27 3 58q3 34 6 49q4 15 13 33q15 31 45 60q29 29 62 45
q24 12 36 15t44 4q7 1 15 1q40 0 72 -11q36 -12 67 -41q24 -22 28 -40q1 -5 1 -9q0 -13 -10 -25q-12 -14 -29 -13t-40 16q-34 22 -48 27t-42 5q-22 0 -33 -2t-25 -9q-20 -11 -38 -30q-18 -18 -27 -39q-7 -15 -10 -46q-3 -32 -2 -62q0 -16 2 -30t4 -23q12 -36 40 -61
q27 -25 62 -31q29 -6 54 1q25 6 57 26q14 9 27 15q12 7 16 7q10 0 22 -8t16 -18q10 -23 -10 -49q-19 -25 -63 -48q-14 -7 -26 -14q-11 -7 -13 -10q-2 -4 -2 -11q1 -7 5 -20q21 -65 -11 -113q-32 -49 -94 -49h-1q-13 0 -24 2t-20 7z" />
    <glyph glyph-name="egrave" unicode="&#xe8;" horiz-adv-x="542" 
d="M334 631q26 -16 26 -29q0 -4 -2 -7q-4 -9 -15 -9t-29 11q-23 8 -68 26q-23 4 -44 16q-28 16 -43 38q-9 14 -9 25q0 6 3 12q7 12 30 12h4q26 -2 55 -18q23 -13 36 -30q19 -16 56 -47zM221 8q-45 10 -86 45q-42 35 -65 82q-12 24 -17 75q-2 24 -2 49q0 28 3 56q3 34 6 48
q4 14 15 36q42 86 133 112q32 10 64 10q58 0 114 -31q20 -11 45 -37t36 -48q13 -24 19 -50q5 -19 5 -34v-8q-2 -19 -12 -28q-9 -9 -76 -38q-22 -9 -52 -22q-30 -12 -71 -29q-40 -17 -71 -31q-30 -14 -32 -17q-3 -5 -2 -9q2 -4 8 -10q13 -15 33 -23q19 -8 44 -9q30 -2 50 3
q20 6 47 24q32 21 51 21q19 -1 31 -22q14 -28 -22 -64q-37 -36 -93 -49q-24 -6 -53 -6h-6q-26 0 -44 4zM273 292q42 17 74 32q33 15 36 19q6 5 6 9v1q0 4 -3 11q-10 26 -40 45t-64 21q-7 1 -13 1q-53 0 -90 -38q-40 -43 -40 -112q0 -12 1 -22q1 -9 2 -11q2 -1 7 -1q7 0 23 5
q26 9 101 40z" />
    <glyph glyph-name="eacute" unicode="&#xe9;" horiz-adv-x="542" 
d="M162 631q14 12 56 47q13 17 37 30q28 16 54 18h4q22 0 30 -12q3 -5 3 -11q0 -11 -10 -26q-14 -22 -42 -38q-22 -12 -45 -16q-22 -9 -67 -26q-18 -11 -30 -11q-10 0 -14 9q-2 3 -2 8q0 13 26 28zM221 8q-45 10 -86 45q-42 35 -65 82q-12 24 -17 75q-2 24 -2 49q0 28 3 56
q3 34 6 48q4 14 15 36q42 86 133 112q32 10 64 10q58 0 114 -31q20 -11 45 -37t36 -48q13 -24 19 -50q5 -19 5 -34v-8q-2 -19 -12 -28q-9 -9 -76 -38q-22 -9 -52 -22q-30 -12 -71 -29q-40 -17 -71 -31q-30 -14 -32 -17q-3 -5 -2 -9q2 -4 8 -10q13 -15 33 -23q19 -8 44 -9
q30 -2 50 3q20 6 47 24q32 21 51 21q19 -1 31 -22q14 -28 -22 -64q-37 -36 -93 -49q-24 -6 -53 -6h-6q-26 0 -44 4zM273 292q42 17 74 32q33 15 36 19q6 5 6 9v1q0 4 -3 11q-10 26 -40 45t-64 21q-7 1 -13 1q-53 0 -90 -38q-40 -43 -40 -112q0 -12 1 -22q1 -9 2 -11
q2 -1 7 -1q7 0 23 5q26 9 101 40z" />
    <glyph glyph-name="ecircumflex" unicode="&#xea;" horiz-adv-x="543" 
d="M262 659q-19 -20 -78 -79q-13 -13 -26 -13t-27 13q-12 13 -12 26t12 26l105 105q13 13 26 13t26 -13q35 -35 104 -105q13 -13 13 -26t-13 -26q-26 -26 -52 0t-78 79zM221 7q-45 10 -86 45q-42 35 -65 82q-12 24 -17 75q-2 24 -2 49q0 27 3 56q3 34 6 48q4 14 15 36
q42 86 133 112q32 10 64 10q58 0 114 -31q20 -11 45 -37t36 -48q13 -24 19 -50q5 -19 5 -34v-9q-2 -18 -12 -27q-9 -10 -76 -38q-22 -10 -52 -22q-30 -13 -71 -29q-40 -17 -71 -31q-30 -14 -32 -18q-3 -4 -2 -8q2 -4 8 -11q13 -14 33 -22q19 -8 44 -10q30 -1 50 4
q20 6 47 24q32 21 51 20q19 0 31 -21q14 -28 -22 -64q-37 -36 -93 -49q-24 -6 -53 -7h-6q-26 0 -44 5zM273 291q42 17 74 32q33 15 36 18q6 6 6 10v1q0 4 -3 11q-10 25 -40 44t-64 22h-13q-53 0 -90 -37q-40 -43 -40 -112q0 -12 1 -22q1 -9 2 -11q2 -2 7 -2q7 0 23 6
q26 8 101 40z" />
    <glyph glyph-name="edieresis" unicode="&#xeb;" horiz-adv-x="542" 
d="M149 695q37 0 37 -36q0 -37 -37 -37q-36 0 -36 37q0 36 36 36zM370 695q38 0 38 -36q0 -37 -38 -37q-37 0 -37 37q0 36 37 36zM221 8q-45 10 -86 45q-42 35 -65 82q-12 24 -17 75q-2 24 -2 49q0 28 3 56q3 34 6 48q4 14 15 36q42 86 133 112q32 10 64 10q58 0 114 -31
q20 -11 45 -37t36 -48q13 -24 19 -50q5 -19 5 -34v-8q-2 -19 -12 -28q-9 -9 -76 -38q-22 -9 -52 -22q-30 -12 -71 -29q-40 -17 -71 -31q-30 -14 -32 -17q-3 -5 -2 -9q2 -4 8 -10q13 -15 33 -23q19 -8 44 -9q30 -2 50 3q20 6 47 24q32 21 51 21q19 -1 31 -22q14 -28 -22 -64
q-37 -36 -93 -49q-24 -6 -53 -6h-6q-26 0 -44 4zM273 292q42 17 74 32q33 15 36 19q6 5 6 9v1q0 4 -3 11q-10 26 -40 45t-64 21q-7 1 -13 1q-53 0 -90 -38q-40 -43 -40 -112q0 -12 1 -22q1 -9 2 -11q2 -1 7 -1q7 0 23 5q26 9 101 40z" />
    <glyph glyph-name="igrave" unicode="&#xec;" horiz-adv-x="311" 
d="M224 631q26 -16 26 -29q0 -4 -2 -7q-4 -9 -15 -9t-29 11q-23 8 -68 26q-23 4 -44 16q-28 16 -43 38q-9 14 -9 25q0 6 3 12q7 12 30 12h4q26 -2 55 -18q23 -13 36 -30q19 -16 56 -47zM191 3q-8 3 -16 11t-11 17q-2 5 -4 55q-2 51 -3 128q-1 41 -2 70q0 28 -1 48
q-1 37 -3 49q-1 12 -5 17q-9 14 -22 21q-12 6 -37 10q-13 2 -25 5q-13 2 -18 4q-12 5 -19 18q-5 10 -5 20q0 4 1 8q4 22 30 31q14 5 33 5q14 0 32 -3q28 -5 50 -18q23 -12 41 -32t25 -36q7 -17 9 -68q1 -21 1 -52q1 -30 1 -73q1 -48 1 -82v-19v-39q-1 -44 -4 -60
q-3 -15 -10 -23q-8 -8 -19 -12q-6 -2 -11 -2t-9 2z" />
    <glyph glyph-name="iacute" unicode="&#xed;" horiz-adv-x="305" 
d="M54 631q14 12 56 47q13 17 37 30q28 16 54 18h4q22 0 30 -12q3 -5 3 -11q0 -11 -10 -26q-14 -22 -42 -38q-22 -12 -45 -16q-22 -9 -67 -26q-18 -11 -30 -11q-10 0 -14 9q-2 3 -2 8q0 13 26 28zM191 1q-8 4 -16 11q-8 8 -11 17q-2 5 -4 56t-3 128q-1 40 -2 69q0 29 -1 49
q-1 36 -3 49q-1 12 -5 17q-9 14 -22 20q-12 7 -37 11q-13 1 -25 4q-13 3 -18 5q-12 4 -19 18q-5 9 -5 19q0 4 1 8q4 23 30 32q14 5 33 5q14 0 32 -4q28 -5 50 -17q23 -13 41 -33q18 -19 25 -36q7 -16 9 -67q1 -22 1 -52q1 -31 1 -73q1 -48 1 -82v-19v-40q-1 -44 -4 -59
t-10 -23q-8 -9 -19 -12q-6 -2 -11 -2t-9 1z" />
    <glyph glyph-name="icircumflex" unicode="&#xee;" horiz-adv-x="342" 
d="M158 659q-19 -20 -78 -79q-13 -13 -26 -13t-27 13q-12 13 -12 26t12 26l105 105q13 13 26 13t26 -13q35 -35 104 -105q13 -13 13 -26t-13 -26q-26 -26 -52 0t-78 79zM213 4q-8 3 -16 11t-11 17q-3 5 -5 55q-2 51 -3 128q0 41 -1 70q0 28 -1 48q-1 37 -3 49t-5 18
q-9 13 -22 20q-13 6 -37 10q-13 2 -25 5q-13 2 -18 4q-12 5 -19 18q-5 10 -5 20q0 4 1 8q4 22 30 31q14 5 32 5q15 0 33 -3q28 -5 50 -18q23 -12 41 -32q17 -20 24 -36q8 -17 10 -68q1 -21 1 -52q1 -30 1 -73q1 -48 1 -82v-19v-39q-1 -44 -4 -59q-4 -16 -11 -24t-18 -12
q-6 -2 -12 -2q-4 0 -8 2z" />
    <glyph glyph-name="idieresis" unicode="&#xef;" horiz-adv-x="315" 
d="M27 695q36 0 36 -36q0 -37 -36 -37q-37 0 -37 37q0 36 37 36zM247 695q37 0 37 -36q0 -37 -37 -37q-36 0 -36 37q0 36 36 36zM198 3q-8 3 -16 11t-12 17q-2 4 -4 55t-3 128q-1 41 -1 69q-1 29 -1 49q-1 37 -3 49t-5 17q-9 14 -22 20q-13 7 -38 11l-24 4q-13 3 -18 5
q-12 4 -19 18q-5 9 -5 19q0 4 1 9q4 22 30 31q14 5 32 5q15 0 33 -3q27 -6 50 -18t40 -32q18 -20 25 -37q7 -16 10 -67q1 -21 1 -52t1 -73q0 -48 1 -82v-19q0 -22 -1 -39q0 -44 -4 -60q-3 -15 -10 -23t-18 -12q-7 -2 -12 -2q-4 0 -8 2z" />
    <glyph glyph-name="eth" unicode="&#xf0;" horiz-adv-x="567" 
d="M224 5q-43 8 -84 41t-64 77q-12 22 -16 36q-3 13 -6 47q-3 28 -3 55q0 26 3 51q5 50 18 79q14 30 46 62q31 31 63 47q21 10 34 13q12 2 49 3q34 1 48 0q14 -2 32 -8q29 -11 34 -5q5 5 -2 39q-6 27 -11 36t-14 9q-3 0 -18 -5q-14 -6 -32 -14q-19 -9 -34 -15q-16 -5 -23 -5
q-17 0 -28 10t-14 28q-1 11 1 17q1 5 10 13q5 6 20 15q14 10 29 18q32 17 42 26q9 10 4 18q-6 10 -22 17t-39 9q-18 3 -26 6t-14 10q-12 13 -11 30q1 16 14 28q9 9 17 11q6 2 28 2h3q34 0 58 -12t52 -41q23 -25 32 -26t53 17q15 6 29 11t18 5q11 0 24 -14q12 -13 12 -25
q0 -15 -11 -29q-12 -13 -42 -31q-27 -17 -32 -23q-5 -5 -5 -18q1 -7 5 -27t9 -41q14 -52 19 -112q5 -61 4 -164q-1 -22 -1 -38v-29q-1 -37 -4 -49q-4 -12 -12 -30q-15 -30 -48 -63q-33 -34 -58 -46q-31 -14 -67 -18q-14 -2 -28 -2q-21 0 -41 4zM327 104q21 10 37 25
q16 16 26 39q8 17 10 31t2 66q0 64 -7 84q-6 19 -35 46q-38 34 -85 34q-14 0 -28 -3q-64 -13 -93 -72q-9 -18 -11 -31t-2 -62q0 -50 2 -63t11 -31q14 -29 41 -49q26 -20 58 -25q12 -2 22 -2q8 0 15 1q17 3 37 12z" />
    <glyph glyph-name="ntilde" unicode="&#xf1;" horiz-adv-x="555" 
d="M190 671q-35 -12 -23 -47q11 -36 -23 -47q-35 -12 -47 23v1v1q-6 17 -6 34q0 25 12 49q21 41 64 55q18 6 35 6q25 0 49 -12q41 -20 56 -64q11 -35 46 -23t24 47q-12 35 23 46q36 11 46 -23q7 -18 7 -36q-1 -25 -12 -49q-21 -41 -64 -55q-18 -6 -36 -6q-25 0 -49 12
q-41 20 -55 64q-12 34 -47 24zM80 5q-15 7 -21 20q-5 13 -7 75q0 27 -1 65v92v18q0 107 1 152q1 48 5 58q10 27 30 32q20 4 41 -17q14 -13 19 -14t22 7q25 11 55 18q29 8 48 8h1q23 0 51 -7q30 -8 52 -20q23 -12 53 -41q29 -28 41 -50q12 -23 16 -59q5 -36 7 -141
q1 -45 1 -77v-1q0 -32 -1 -55q-3 -41 -12 -54t-28 -13q-12 0 -23 8q-10 7 -16 20q-2 5 -4 50t-3 107q-1 31 -1 54q-1 23 -1 39q-2 39 -4 50q-2 12 -7 21q-18 35 -46 54q-29 19 -65 22q-33 2 -55 -7q-23 -8 -47 -32q-20 -19 -28 -35q-8 -17 -11 -64q-1 -20 -2 -48
q-1 -27 -2 -65q-3 -86 -5 -115q-2 -30 -6 -38q-7 -14 -20 -18q-12 -5 -27 1z" />
    <glyph glyph-name="ograve" unicode="&#xf2;" horiz-adv-x="552" 
d="M351 631q26 -16 26 -29q0 -4 -2 -7q-4 -9 -15 -9t-29 11q-23 8 -68 26q-23 4 -44 16q-28 16 -43 38q-9 14 -9 25q0 6 3 12q7 12 30 12h4q26 -2 55 -18q23 -13 36 -30q19 -16 56 -47zM207 11q-41 14 -79 47q-37 32 -56 70q-13 28 -18 77q-3 24 -3 51t3 57q4 50 17 78
q12 29 45 62q39 39 86 55q32 11 67 11q17 0 35 -2q36 -6 66 -21q29 -16 58 -45q34 -33 45 -59q12 -26 16 -77q1 -23 1 -53t-1 -54q-3 -33 -6 -48t-10 -31q-19 -38 -58 -71t-81 -46q-27 -9 -65 -9h-3q-36 0 -59 8zM326 104q17 8 36 26t29 37q7 13 9 28q1 14 1 66t-1 67
q-2 14 -9 27q-25 48 -72 64q-25 9 -49 9q-22 0 -42 -7q-24 -8 -44 -25t-33 -43q-4 -10 -7 -26t-4 -34q-1 -13 -1 -26q0 -23 2 -46q4 -37 13 -57q21 -44 73 -63q24 -8 47 -8q27 0 52 11z" />
    <glyph glyph-name="oacute" unicode="&#xf3;" horiz-adv-x="552" 
d="M191 631q14 12 56 47q13 17 37 30q28 16 54 18h4q22 0 30 -12q3 -5 3 -11q0 -11 -10 -26q-14 -22 -42 -38q-22 -12 -45 -16q-22 -9 -67 -26q-18 -11 -30 -11q-10 0 -14 9q-2 3 -2 8q0 13 26 28zM207 10q-41 14 -79 46q-37 33 -56 71q-13 28 -18 77q-3 24 -3 51t3 57
q4 50 17 78q12 28 45 61q39 40 86 56q32 11 67 11q17 0 35 -3q36 -5 66 -20q29 -16 58 -45q34 -33 45 -59q12 -26 16 -77q1 -24 1 -53q0 -30 -1 -54q-3 -34 -6 -49q-3 -14 -10 -30q-19 -39 -58 -72t-81 -46q-27 -8 -65 -8h-3q-36 0 -59 8zM326 102q17 8 36 26q19 19 29 38
q7 13 9 27q1 15 1 67t-1 66q-2 15 -9 28q-25 48 -72 64q-25 9 -49 9q-22 0 -42 -7q-24 -8 -44 -25t-33 -43q-4 -10 -7 -26t-4 -34q-1 -13 -1 -27q0 -22 2 -45q4 -37 13 -57q21 -45 73 -63q24 -8 47 -9q27 0 52 11z" />
    <glyph glyph-name="ocircumflex" unicode="&#xf4;" horiz-adv-x="452" 
d="M222 659q-19 -20 -78 -79q-13 -13 -26 -13t-27 13q-12 13 -12 26t12 26l105 105q13 13 26 13t26 -13q35 -35 104 -105q13 -13 13 -26t-13 -26q-26 -26 -52 0t-78 79zM156 11q-72 26 -112 86q-39 60 -43 147q-1 12 -1 23q0 57 13 98q17 50 56 89q30 30 75 51q45 20 82 20
q38 0 81 -22q44 -23 77 -57q18 -18 32 -39q14 -20 21 -41q15 -45 15 -97q0 -25 -3 -51q-11 -82 -50 -133q-40 -52 -112 -74q-36 -11 -69 -11t-62 11zM283 116q35 18 50 51q15 34 15 94q0 40 -4 62t-15 39q-12 21 -30 34t-38 19q-17 6 -35 6q-21 0 -42 -8q-40 -13 -63 -51
q-6 -10 -10 -27q-4 -16 -6 -35q-3 -20 -3 -42q0 -16 2 -33q3 -38 13 -59q23 -43 72 -58q20 -6 39 -6q28 0 55 14z" />
    <glyph glyph-name="otilde" unicode="&#xf5;" horiz-adv-x="503" 
d="M140 671q-35 -12 -23 -47q11 -36 -23 -47q-35 -12 -47 23v1v1q-6 17 -6 34q0 25 12 49q21 41 64 55q18 6 35 6q25 0 49 -12q41 -20 56 -64q11 -35 46 -23t24 47q-12 35 23 46q36 11 46 -23q7 -18 7 -36q-1 -25 -12 -49q-21 -41 -64 -55q-18 -6 -36 -6q-25 0 -49 12
q-41 20 -55 64q-12 34 -47 24zM156 11q-72 26 -112 86q-39 60 -43 147q-1 12 -1 23q0 57 13 98q17 50 56 89q30 30 75 51q45 20 82 20q38 0 81 -22q44 -23 77 -57q18 -18 32 -39q14 -20 21 -41q15 -45 15 -97q0 -25 -3 -51q-11 -82 -50 -133q-40 -52 -112 -74
q-36 -11 -69 -11t-62 11zM283 116q35 18 50 51q15 34 15 94q0 40 -4 62t-15 39q-12 21 -30 34t-38 19q-17 6 -35 6q-21 0 -42 -8q-40 -13 -63 -51q-6 -10 -10 -27q-4 -16 -6 -35q-3 -20 -3 -42q0 -16 2 -33q3 -38 13 -59q23 -43 72 -58q20 -6 39 -6q28 0 55 14z" />
    <glyph glyph-name="odieresis" unicode="&#xf6;" horiz-adv-x="503" 
d="M110 695q37 0 37 -36q0 -37 -37 -37q-36 0 -36 37q0 36 36 36zM331 695q38 0 38 -36q0 -37 -38 -37q-37 0 -37 37q0 36 37 36zM156 10q-72 27 -112 86q-39 60 -43 147q-1 12 -1 24q0 56 13 97q17 50 56 90q30 30 75 50t82 20q38 0 81 -22q44 -23 77 -57q18 -18 32 -38
q14 -21 21 -42q15 -45 15 -97q0 -25 -3 -51q-11 -82 -50 -132q-40 -53 -112 -75q-36 -11 -69 -11t-62 11zM283 115q35 18 50 51q15 34 15 94q0 41 -4 62q-4 22 -15 39q-12 21 -30 34t-38 20q-17 5 -35 5q-21 0 -42 -7q-40 -14 -63 -52q-6 -10 -10 -26q-4 -17 -6 -36
q-3 -20 -3 -41q0 -17 2 -34q3 -38 13 -59q23 -43 72 -58q20 -6 39 -6q28 0 55 14z" />
    <glyph glyph-name="divide" unicode="&#xf7;" horiz-adv-x="563" 
d="M243 150q-23 12 -35 29q-11 17 -11 39q0 28 16 48q17 20 46 28q12 3 19 3h2q7 -1 20 -6q28 -11 44 -37q10 -18 10 -36q0 -8 -2 -16q-4 -15 -18 -31q-15 -16 -30 -22q-13 -6 -29 -6h-2q-18 1 -30 7zM83 359q-29 2 -37 4t-15 11q-10 11 -10 23q-1 2 -1 3q1 11 7 21
q8 11 23 16q15 4 76 5q27 1 65 1h90h90h63q61 -2 74 -6q14 -4 20 -16q4 -8 4 -20v-5q-1 -15 -8 -24q-5 -6 -15 -9q-9 -2 -41 -4q-25 -2 -96 -3h-90h-52q-49 0 -89 1t-58 2zM250 503q-38 16 -49 51q-5 12 -5 24q0 22 14 43q10 16 29 27q19 12 37 12q21 0 45 -19
q24 -18 28 -38q2 -5 3 -10t2 -8q1 -2 1 -5q0 -7 -5 -22q-6 -19 -15 -30q-9 -12 -27 -22t-32 -10q-4 0 -12 2t-14 5z" />
    <glyph glyph-name="oslash" unicode="&#xf8;" horiz-adv-x="561" 
d="M220 9q-10 2 -25 9q-15 6 -28 13q-12 6 -21 11q-10 4 -11 4t-7 -3q-6 -4 -13 -9q-20 -13 -32 -16t-24 2q-11 5 -18 18q-5 10 -5 19q0 4 1 7q1 5 7 15q6 9 13 19q14 19 15 28t-9 55q-6 26 -7 73t4 81q5 30 20 60t38 55q52 56 129 67q17 2 34 2q58 0 108 -29q18 -11 28 -10
q10 0 28 12q24 16 44 13q21 -4 30 -26q4 -8 4 -15q0 -5 -2 -10q-3 -11 -19 -31q-15 -19 -17 -29q-1 -10 6 -37q3 -14 5 -46t1 -65q0 -22 -1 -42q-1 -19 -3 -30q-8 -39 -36 -78q-29 -40 -68 -63q-36 -21 -82 -28q-18 -3 -35 -3q-27 0 -52 7zM327 102q19 7 37 23t29 35
q7 14 10 28q3 13 6 42q2 23 2 38q0 11 -1 19q-3 17 -12 19v0q-4 0 -28 -22q-25 -22 -56 -52q-37 -37 -71 -72q-33 -35 -33 -40q0 -7 12 -15t27 -11q9 -1 20 -1q8 0 18 1q22 2 40 8zM253 303q47 47 69 71q21 23 21 29q0 11 -17 18q-16 7 -45 7q-43 0 -74 -20q-32 -20 -49 -57
q-7 -14 -9 -29q-3 -14 -4 -44q-1 -20 -1 -32q0 -15 1 -21q2 -11 11 -11q3 0 32 26q28 26 65 63z" />
    <glyph glyph-name="ugrave" unicode="&#xf9;" horiz-adv-x="556" 
d="M352 631q26 -16 26 -29q0 -4 -2 -7q-4 -9 -15 -9t-29 11q-23 8 -68 26q-23 4 -44 16q-28 16 -43 38q-9 14 -9 25q0 6 3 12q7 12 30 12h4q26 -2 55 -18q23 -13 36 -30q19 -16 56 -47zM218 9q-43 12 -82 45q-40 33 -63 76q-9 19 -13 33q-3 13 -5 57q-1 15 -1 34
q-1 19 -1 44q-2 57 -2 96q0 38 2 60q3 42 14 54q14 16 34 12t28 -24q2 -7 5 -45q2 -38 4 -102q1 -38 2 -66t2 -49q4 -48 13 -66t30 -38q22 -21 44 -28q21 -8 54 -6q29 2 50 11q20 10 38 30q15 18 23 36q7 19 10 58q2 21 2 51q1 29 1 69q0 45 1 82q2 38 3 46q6 28 27 38
q7 3 14 4q13 0 24 -12q8 -8 13 -31q4 -22 5 -78q1 -30 1 -72v-3q0 -41 -1 -95q-1 -118 -2 -155q-2 -36 -6 -46q-11 -24 -33 -25t-38 21q-8 12 -15 12q-8 0 -28 -10q-35 -18 -77 -22q-14 -2 -28 -2q-26 0 -49 6z" />
    <glyph glyph-name="uacute" unicode="&#xfa;" horiz-adv-x="556" 
d="M189 631q14 12 56 47q13 17 37 30q28 16 54 18h4q22 0 30 -12q3 -5 3 -11q0 -11 -10 -26q-14 -22 -42 -38q-22 -12 -45 -16q-22 -9 -67 -26q-18 -11 -30 -11q-10 0 -14 9q-2 3 -2 8q0 13 26 28zM218 8q-43 12 -82 45q-40 33 -63 76q-9 19 -13 32q-3 14 -5 58q-1 14 -1 34
q-1 19 -1 44q-2 57 -2 96q0 38 2 59q3 43 14 55q14 15 34 11q20 -3 28 -23q2 -7 5 -45q2 -38 4 -102q1 -38 2 -66t2 -49q4 -48 13 -66q9 -19 30 -38q22 -21 44 -29q21 -7 54 -5q29 1 50 11q20 9 38 30q15 17 23 36q7 19 10 58q2 21 2 50q1 30 1 70q0 45 1 82q2 38 3 45
q6 29 27 39q7 3 14 3q13 0 24 -11q8 -8 13 -31q4 -22 5 -78q1 -30 1 -72v-3q0 -41 -1 -95q-1 -119 -2 -155q-2 -37 -6 -47q-11 -23 -33 -24t-38 21q-8 11 -15 12q-8 0 -28 -11q-35 -17 -77 -22q-14 -1 -28 -1q-26 0 -49 6z" />
    <glyph glyph-name="ucircumflex" unicode="&#xfb;" horiz-adv-x="556" 
d="M271 659q-19 -20 -78 -79q-13 -13 -26 -13t-27 13q-12 13 -12 26t12 26l105 105q13 13 26 13t26 -13q35 -35 104 -105q13 -13 13 -26t-13 -26q-26 -26 -52 0t-78 79zM218 8q-43 12 -82 45q-40 33 -63 76q-9 19 -13 32q-3 14 -5 58q-1 14 -1 34q-1 19 -1 44q-2 57 -2 96
q0 38 2 59q3 43 14 55q14 15 34 11q20 -3 28 -23q2 -7 5 -45q2 -38 4 -102q1 -38 2 -66t2 -49q4 -48 13 -66q9 -19 30 -38q22 -21 44 -29q21 -7 54 -5q29 1 50 11q20 9 38 30q15 17 23 36q7 19 10 58q2 21 2 50q1 30 1 70q0 45 1 82q2 38 3 45q6 29 27 39q7 3 14 3
q13 0 24 -11q8 -8 13 -31q4 -22 5 -78q1 -30 1 -72v-3q0 -41 -1 -95q-1 -119 -2 -155q-2 -37 -6 -47q-11 -23 -33 -24t-38 21q-8 11 -15 12q-8 0 -28 -11q-35 -17 -77 -22q-14 -1 -28 -1q-26 0 -49 6z" />
    <glyph glyph-name="udieresis" unicode="&#xfc;" horiz-adv-x="556" 
d="M161 695q37 0 37 -36q0 -37 -37 -37q-36 0 -36 37q0 36 36 36zM382 695q38 0 38 -36q0 -37 -38 -37q-37 0 -37 37q0 36 37 36zM218 8q-43 12 -82 45q-40 33 -63 76q-9 19 -13 32q-3 14 -5 58q-1 14 -1 34q-1 19 -1 44q-2 57 -2 96q0 38 2 59q3 43 14 55q14 15 34 11
q20 -3 28 -23q2 -7 5 -45q2 -38 4 -102q1 -38 2 -66t2 -49q4 -48 13 -66q9 -19 30 -38q22 -21 44 -29q21 -7 54 -5q29 1 50 11q20 9 38 30q15 17 23 36q7 19 10 58q2 21 2 50q1 30 1 70q0 45 1 82q2 38 3 45q6 29 27 39q7 3 14 3q13 0 24 -11q8 -8 13 -31q4 -22 5 -78
q1 -30 1 -72v-3q0 -41 -1 -95q-1 -119 -2 -155q-2 -37 -6 -47q-11 -23 -33 -24t-38 21q-8 11 -15 12q-8 0 -28 -11q-35 -17 -77 -22q-14 -1 -28 -1q-26 0 -49 6z" />
    <glyph glyph-name="yacute" unicode="&#xfd;" horiz-adv-x="491" 
d="M160 631q14 12 56 47q13 17 37 30q28 16 54 18h4q22 0 30 -12q3 -5 3 -11q0 -11 -10 -26q-14 -22 -42 -38q-22 -12 -45 -16q-22 -9 -67 -26q-18 -11 -30 -11q-10 0 -14 9q-2 3 -2 8q0 13 26 28zM84 -341q-12 5 -19 15t-7 23q1 14 21 70q21 56 68 172q16 40 29 72
q12 31 14 35q1 6 -3 20q-4 15 -24 62q-10 26 -25 64q-16 37 -38 91q-48 114 -62 156q-12 34 -12 51v6q4 20 25 28q20 7 36 -7q9 -7 28 -49q20 -42 66 -149q19 -46 35 -81q15 -35 18 -38q4 -5 6 -6q3 -1 8 2q3 2 22 44t43 99q16 38 28 65q11 27 19 46q20 45 28 57q7 11 16 15
q9 5 17 5q7 0 13 -2q15 -6 22 -21q5 -10 5 -17v0q-1 -7 -8 -30t-41 -107q-33 -83 -84 -208q-46 -110 -78 -187q-32 -78 -54 -130q-12 -30 -22 -53t-17 -39q-22 -50 -28 -58q-6 -7 -14 -12q-11 -7 -16 -8h-2q-5 0 -13 4z" />
    <glyph glyph-name="thorn" unicode="&#xfe;" horiz-adv-x="561" 
d="M93 -279q-11 5 -16 13q-6 8 -8 65q-1 18 -1 44q-1 26 -1 61v147v214v211v144q0 38 1 64v44q1 33 3 44q1 11 3 15q10 17 30 19h4q18 0 29 -15q4 -6 6 -17q2 -10 4 -47q0 -16 1 -38q0 -22 1 -53q1 -58 2 -100t1 -43q2 -3 16 0q15 3 30 10q10 5 26 9q17 5 31 7
q67 11 133 -25q66 -35 96 -97q9 -17 12 -29q3 -11 3 -45v-26v-35v-34v-26q0 -34 -3 -45q-3 -12 -12 -29q-15 -31 -43 -58q-27 -28 -59 -43q-45 -22 -89 -24t-90 16q-32 13 -41 13q-8 0 -11 -13q-1 -6 -2 -46t-1 -91q0 -70 -1 -100q-1 -29 -5 -37q-7 -19 -20 -25
q-6 -3 -12 -3q-8 0 -17 4zM341 106q19 9 36 26t28 39q7 12 9 26t3 55v22q0 44 -5 65q-7 25 -31 49q-42 42 -95 42q-11 0 -22 -2q-66 -10 -97 -72q-9 -18 -10 -31q-2 -13 -2 -63q0 -49 2 -62q1 -13 10 -31q15 -29 41 -49q27 -20 59 -25q12 -2 22 -2q8 0 15 1q17 3 37 12z" />
    <glyph glyph-name="ydieresis" unicode="&#xff;" horiz-adv-x="491" 
d="M133 695q37 0 37 -36q0 -37 -37 -37q-36 0 -36 37q0 36 36 36zM354 695q38 0 38 -36q0 -37 -38 -37q-37 0 -37 37q0 36 37 36zM84 -343q-12 5 -19 16q-7 10 -7 23q1 14 21 70q21 56 68 172q16 40 29 72q12 31 14 35q1 5 -3 20t-24 62q-10 26 -25 63q-16 38 -38 91
q-48 115 -62 156q-12 35 -12 51v6q4 21 25 28q20 8 36 -6q9 -8 28 -49q20 -42 66 -150q19 -45 35 -80q15 -35 18 -39q4 -5 6 -5q3 -1 8 1q3 2 22 44q19 43 43 100q16 37 28 65q11 27 19 46q20 45 28 56q7 11 16 16t17 5q7 0 13 -3q15 -5 22 -20q5 -10 5 -17v-1q-1 -6 -8 -29
t-41 -107q-33 -83 -84 -208q-46 -110 -78 -188q-32 -77 -54 -129q-12 -30 -22 -53t-17 -40q-22 -49 -28 -57t-14 -12q-11 -7 -16 -8h-2q-5 0 -13 3z" />
    <glyph glyph-name="OE" unicode="&#x152;" horiz-adv-x="696" 
d="M206 11q-26 12 -46 34q-19 22 -38 59q-31 62 -46 132q-14 71 -15 160v2q0 88 14 160q14 73 42 131q25 52 49 76q23 25 58 35q22 6 40 2t46 -23q20 -14 26 -14q5 0 17 14q10 12 18 16q7 4 22 7q13 2 52 3q28 1 56 1h23q26 -1 48 -1q22 -1 31 -3q29 -5 39 -27q4 -8 4 -16
q0 -13 -11 -26q-8 -10 -21 -12q-12 -1 -78 -3q-49 -1 -70 -3t-25 -5q-5 -4 -6 -20q-2 -16 -2 -71q0 -35 1 -61q2 -27 3 -29q2 -3 17 -6t44 -6q39 -4 49 -6q10 -3 17 -11q15 -18 8 -38q-8 -20 -32 -27q-7 -1 -22 -3q-15 -1 -30 -1q-33 0 -43 -5q-10 -6 -12 -61v-45v-60
q0 -69 2 -115q1 -47 3 -50q2 -4 20 -6q17 -1 69 -3q80 -2 99 -9q19 -8 19 -36q0 -15 -7 -25q-8 -9 -23 -13q-7 -2 -41 -4q-35 -1 -78 -1q-85 0 -107 4t-36 22q-9 13 -16 13t-26 -13q-32 -22 -54 -25q-21 -3 -51 12zM277 106q31 34 49 113q18 80 19 172v7q0 46 -5 93
q-5 49 -15 94q-15 62 -34 93q-20 31 -44 31q-10 0 -16 -3q-6 -4 -16 -15q-31 -34 -47 -109q-17 -76 -17 -180q0 -88 11 -153q12 -65 36 -111q20 -38 39 -46q5 -2 11 -2q14 0 29 16z" />
    <glyph glyph-name="oe" unicode="&#x153;" horiz-adv-x="687" 
d="M176 11q-36 14 -68 56q-31 42 -45 94q-12 47 -12 97q0 21 2 42q7 72 36 127q15 29 41 53q25 24 49 33q34 13 66 5q32 -9 66 -41q12 -11 21 -18q10 -7 12 -7t12 7q9 7 19 17q47 45 93 46h2q46 0 88 -42q31 -30 54 -88q23 -59 24 -110v-6q0 -24 -5 -35q-5 -13 -33 -18
q-15 -2 -37 -3q-23 -1 -56 -2q-40 -1 -70 -3q-31 -2 -33 -3q-11 -7 4 -47q14 -41 34 -58q9 -8 16 -10q7 -3 19 -3q17 0 38 8q20 8 37 21q26 20 44 21t32 -18q15 -18 4 -43q-10 -25 -41 -46q-28 -18 -53 -26q-24 -7 -57 -7q-36 0 -55 8t-49 36q-11 10 -20 17t-11 7t-12 -8
q-9 -7 -21 -18q-36 -32 -67 -40q-12 -4 -25 -4q-21 1 -43 9zM242 101q30 18 46 76q11 40 11 81q0 20 -3 41q-2 17 -6 37q-5 20 -9 31q-8 23 -27 43q-18 20 -31 20q-31 0 -53 -36t-29 -95q-2 -19 -2 -37q0 -13 1 -25q2 -30 9 -56q13 -48 39 -72q15 -15 31 -15q11 0 23 7z
M534 311q8 4 8 14q0 9 -9 33q-24 65 -58 71q-3 1 -6 1q-30 0 -54 -50q-14 -28 -17 -45v-8q0 -11 6 -15q7 -5 64 -6h11q46 0 55 5z" />
    <glyph glyph-name="Scaron" unicode="&#x160;" horiz-adv-x="575" 
d="M283 935q20 19 78 78q13 13 26 13t26 -13t13 -26t-13 -26q-34 -35 -104 -104q-13 -13 -26 -13t-26 13q-35 35 -105 104q-12 13 -12 26v2q0 12 12 24q27 26 53 0zM230 6q-27 7 -53 23q-25 15 -46 37q-40 41 -59 94q-11 30 -11 56q0 21 7 41q14 40 49 22q35 -19 35 -66
q0 -14 12 -39q12 -26 26 -41q35 -37 79 -40q45 -3 81 19q20 11 35 29q15 17 24 39q7 20 8 43q0 24 -9 49q-16 41 -46 61q-31 19 -95 30q-51 9 -91 32q-40 24 -67 57q-49 61 -47 141q1 81 66 145q36 36 78 52q40 16 81 16h3q77 -1 140 -56t73 -149q1 -10 1 -19q0 -10 -2 -19
q-3 -16 -9 -26q-15 -23 -40 -11q-24 12 -36 63q-9 38 -28 65q-18 28 -43 44q-45 29 -98 16q-53 -12 -84 -74q-32 -63 4 -120q37 -56 118 -68q74 -11 120 -42q46 -30 75 -87q19 -36 20 -97q0 -62 -18 -99q-33 -69 -106 -104q-49 -23 -97 -23q-25 0 -50 6z" />
    <glyph glyph-name="scaron" unicode="&#x161;" horiz-adv-x="480" 
d="M234 659q20 19 78 78q13 13 26 13t26 -13q14 -13 14 -26q0 -14 -14 -27l-104 -104q-13 -13 -26 -13t-26 13l-104 104q-13 13 -13 27q0 13 13 26q25 26 52 0zM174 10q-10 3 -23 9t-21 10q-19 11 -41 34q-21 23 -29 41q-12 27 -7 52q4 26 22 34q20 10 35 0t29 -40
q11 -25 25 -36q13 -11 42 -18q53 -14 91 11t31 56q-2 10 -11 20q-8 9 -23 17q-7 4 -26 8q-19 5 -38 8q-60 9 -92 24q-32 14 -55 44q-32 40 -32 84q0 18 5 36q19 64 91 98q20 9 33 12q13 2 46 3q12 1 22 1q14 0 22 -1q15 -1 32 -7q55 -19 86 -54q30 -34 30 -79q0 -28 -17 -42
t-38 -4q-11 5 -16 12q-5 8 -17 34q-10 26 -34 39q-24 14 -58 14q-25 0 -43 -6q-18 -7 -34 -20q-19 -17 -21 -32q-2 -16 13 -32q12 -13 31 -21q20 -8 57 -13q64 -9 105 -32t61 -61q12 -23 12 -57v-3q-1 -37 -15 -63q-12 -25 -44 -48q-31 -22 -70 -33q-23 -7 -54 -7h-4
q-34 0 -58 8z" />
    <glyph glyph-name="Ydieresis" unicode="&#x178;" horiz-adv-x="495" 
d="M137 954q37 0 37 -38q0 -36 -37 -36q-36 0 -36 36q0 38 36 38zM358 954q38 0 38 -38q0 -36 -38 -36q-37 0 -37 36q0 38 37 38zM232 6q-4 2 -9 7q-6 4 -9 9q-5 8 -7 34t-3 124q-1 49 -3 146q-20 50 -62 148q-62 150 -88 216q-25 66 -25 80q0 23 25 33q9 3 17 3
q14 1 25 -11q8 -9 26 -47t49 -115q38 -90 53 -124q16 -34 20 -36q3 -1 7 0q3 2 6 5t19 39t36 83q17 40 30 70q12 29 21 50q17 38 25 53q9 15 15 21q12 12 25 11q14 0 27 -12q12 -13 12 -29v-1q0 -18 -30 -93q-13 -32 -32 -78q-20 -46 -47 -111q-23 -57 -42 -102
q-18 -45 -20 -53t-4 -47q-1 -40 -1 -102v-66q-1 -26 -2 -45q-2 -33 -7 -43q-6 -9 -20 -15q-6 -2 -11 -4l-5 -2q-1 0 -4 1q-3 2 -7 3z" />
    <glyph glyph-name="Zcaron" unicode="&#x17d;" horiz-adv-x="533" 
d="M276 929q20 19 78 78q13 13 26 13t26 -13t13 -26t-13 -26q-34 -35 -104 -104q-13 -13 -26 -13t-26 13q-35 35 -105 104q-12 13 -12 26v2q0 12 12 24q27 26 53 0zM69 5q-15 6 -22 18t-5 26q2 12 62 137q60 124 160 326q38 74 64 129t26 59q0 3 -2 7q-2 3 -5 5q-4 1 -45 3
q-42 2 -98 3q-37 0 -62 1q-26 1 -42 2q-32 2 -41 6t-14 13q-4 8 -4 18v6q2 13 10 23q6 7 15 10t35 6q16 2 73 2q30 1 62 1h60q33 -1 58 -1q24 0 41 -1q41 -1 52 -3q10 -2 17 -6q13 -10 16 -22t-2 -29q-1 -3 -8 -17q-7 -15 -18 -39q-22 -45 -57 -117q-36 -71 -77 -154
q-22 -45 -43 -86q-20 -42 -38 -78q-32 -67 -52 -109q-21 -42 -21 -44q0 -3 3 -6q3 -4 7 -5q5 -1 44 -2h90q51 -1 93 -2q41 -1 48 -3q16 -3 25 -13q8 -10 8 -25t-3 -22q-4 -8 -16 -14q-6 -3 -19 -5q-14 -2 -53 -2q-21 -1 -52 -1q-30 0 -73 -1h-76q-51 0 -74 1q-39 1 -47 5z
" />
    <glyph glyph-name="zcaron" unicode="&#x17e;" horiz-adv-x="609" 
d="M296 705q20 19 78 78q13 13 26 13t26 -13q14 -13 14 -26q0 -14 -14 -27l-104 -104q-13 -13 -26 -13t-26 13l-104 104q-13 13 -13 27q0 13 13 26q25 26 52 0zM60 15q-16 15 -19 28v4q0 12 9 28q5 8 56 62t118 122q39 40 67 68q27 28 45 46q33 34 39 44q6 9 2 12
q-5 4 -35 5t-116 1h-70q-28 0 -47 1q-35 2 -45 7t-15 17q-10 22 2 39q11 18 39 22q9 2 76 2h22q58 0 128 -1q50 -1 86 -1q36 -1 61 -2q58 -2 71 -7t18 -18q3 -6 3 -12q-1 -5 -5 -14q-3 -6 -56 -63q-53 -56 -118 -124q-35 -37 -70 -72l-63 -63q-17 -17 -29 -30
q-11 -13 -11 -15q0 -7 27 -9q27 -1 136 -2q72 0 112 -1q40 -2 49 -4q27 -8 30 -34q1 -4 1 -7q-1 -21 -21 -32q-6 -3 -22 -5q-15 -2 -63 -3h-63q-37 -1 -90 -1h-86q-20 -1 -37 -1q-13 0 -24 1q-59 0 -71 3q-13 2 -21 9z" />
    <glyph glyph-name="florin" unicode="&#x192;" horiz-adv-x="482" 
d="M-31 -340q-6 5 -9 12q-4 7 -5 16q-1 6 -1 10q0 5 1 8q2 5 10 14q10 10 22 13q11 3 52 8q46 5 78 34q32 30 39 74q2 13 4 82q1 70 1 155v74v71q-1 62 -2 107q-1 44 -3 50q-5 19 -21 31t-39 15q-42 4 -57 14t-15 33q0 8 3 15q2 7 8 14q7 9 16 11t46 3q46 2 55 9q9 6 9 37
q0 57 15 97q14 40 46 72q31 32 80 52q37 15 67 15q8 0 15 -1q31 -5 43 -28q4 -9 4 -17q0 -13 -12 -25q-8 -8 -21 -13q-13 -4 -50 -12q-34 -8 -59 -32q-26 -24 -35 -56q-5 -18 -5 -53q1 -36 6 -39q2 -1 23 -3q20 -2 47 -3q43 -1 56 -3t21 -8q12 -9 16 -21q4 -13 -1 -26
q-7 -16 -25 -22t-71 -8q-26 -1 -45 -3q-20 -2 -22 -4q-1 -2 -3 -89q-2 -88 -3 -222q0 -69 -1 -119q0 -49 -1 -84v-42q-1 -18 -2 -30q-2 -31 -5 -42t-9 -23q-9 -17 -20 -32t-27 -30q-36 -36 -74 -51q-37 -15 -90 -15q-25 0 -34 2q-9 1 -16 8z" />
    <glyph glyph-name="circumflex" unicode="&#x2c6;" horiz-adv-x="640" 
d="M295 935l-78 -78q-13 -13 -26 -13t-27 13q-12 13 -12 25v2q0 13 12 25q35 35 105 104q13 13 26 13t26 -13l104 -104q13 -13 13 -26t-13 -26q-26 -26 -52 0z" />
    <glyph glyph-name="tilde" unicode="&#x2dc;" horiz-adv-x="640" 
d="M213 928q-35 -12 -23 -46q11 -35 -23 -47q-35 -12 -47 24v0v0q-6 18 -6 35q0 25 12 49q21 40 64 55q18 6 35 6q25 0 49 -12q41 -21 56 -64q11 -35 46 -23q35 11 24 46q-12 35 23 47q36 12 46 -23q7 -18 7 -36q-1 -25 -12 -49q-21 -41 -64 -55q-18 -6 -36 -6q-25 0 -49 12
q-41 21 -55 64q-12 34 -47 23z" />
    <glyph glyph-name="endash" unicode="&#x2013;" horiz-adv-x="488" 
d="M42 360q-8 4 -15 17q-7 12 -7 23q0 5 3 12q2 7 5 12q6 9 14 11q7 3 42 5q19 2 78 3h56h64q99 -1 127 -3q27 -2 34 -6q9 -6 12 -14q3 -7 3 -23q0 -14 -7 -24q-6 -10 -18 -13q-6 -2 -56 -3q-51 -1 -114 -1h-27h-73q-49 0 -81 1q-18 1 -28 1q-11 1 -12 2z" />
    <glyph glyph-name="emdash" unicode="&#x2014;" horiz-adv-x="634" 
d="M49 365q-11 4 -20 17t-9 24q0 6 4 12q3 7 9 13q9 9 19 11t57 4q38 2 119 2h82h76q51 0 92 -1t58 -2q29 -2 39 -5q10 -2 17 -9q6 -5 9 -12q2 -6 2 -14q0 -16 -7 -26t-23 -14q-2 -1 -18 -1q-15 -1 -39 -2q-44 -1 -111 -1h-105h-29q-85 0 -151 1q-67 1 -71 3z" />
    <glyph glyph-name="quoteleft" unicode="&#x2018;" horiz-adv-x="285" 
d="M103 563q-22 10 -36 34q-13 25 -19 66q-2 12 -2 25q0 51 29 105q36 67 94 95q27 13 47 13q5 0 10 -1q23 -5 28 -30v-7q0 -12 -8 -23q-10 -15 -38 -32q-26 -16 -42 -33t-21 -34q-5 -13 0 -19q4 -7 22 -16q16 -8 26 -21q10 -12 15 -26q8 -27 -3 -55q-10 -28 -40 -41
q-17 -8 -31 -8t-31 8z" />
    <glyph glyph-name="quoteright" unicode="&#x2019;" horiz-adv-x="285" 
d="M39 560q-5 3 -9 9q-5 6 -7 12q-3 6 -2 12q0 10 5 20q10 15 36 32q27 18 42 33q15 14 22 30t4 24q-2 7 -19 15q-16 9 -26 21q-11 12 -16 26q-13 32 3 66q16 33 57 40q5 1 10 1q12 0 26 -5q20 -7 31 -20q20 -23 28 -67q5 -24 5 -46q0 -18 -3 -34q-7 -29 -26 -65
q-19 -35 -40 -57q-30 -31 -66 -44q-19 -8 -34 -8q-12 0 -21 5z" />
    <glyph glyph-name="quotesinglbase" unicode="&#x201a;" horiz-adv-x="286" 
d="M39 -218q-5 2 -9 9q-5 6 -7 11q-3 7 -2 13q0 10 5 19q10 16 36 33q27 18 42 32q15 15 22 31t4 23q-2 8 -19 16q-16 8 -26 21q-11 12 -16 26q-13 32 3 65q16 34 57 41q5 1 10 1q12 0 26 -5q20 -7 31 -21q20 -23 28 -66q5 -24 5 -46q0 -18 -3 -34q-7 -30 -26 -65t-40 -57
q-30 -31 -66 -45q-19 -7 -34 -7q-12 0 -21 5z" />
    <glyph glyph-name="quotedblleft" unicode="&#x201c;" horiz-adv-x="536" 
d="M107 559q-14 7 -30 27t-22 38q-9 28 -9 60q0 11 1 21q4 44 23 81q26 53 77 89q38 26 64 26q10 0 18 -3q13 -5 20 -18q5 -10 5 -19q0 -4 -1 -7q-2 -11 -14 -23q-12 -11 -36 -27q-22 -14 -37 -30t-21 -32q-4 -15 -2 -20q3 -5 19 -14q33 -16 44 -47q11 -30 -3 -62
q-12 -26 -42 -38q-15 -7 -29 -7q-13 0 -25 5zM362 558q-25 10 -41 34q-15 24 -21 64q-3 16 -2 32q0 32 10 66q17 50 52 87q45 47 87 58q10 2 19 2q25 0 35 -24q4 -9 4 -17q0 -9 -5 -18q-10 -15 -42 -35q-29 -18 -49 -44t-15 -39q1 -3 8 -8t16 -10q29 -14 40 -43
q10 -28 -1 -59q-11 -28 -40 -42q-17 -8 -33 -8q-11 0 -22 4z" />
    <glyph glyph-name="quotedblright" unicode="&#x201d;" horiz-adv-x="534" 
d="M35 565q-9 8 -12 13q-3 6 -3 15l1 1q0 15 9 25q8 10 36 28q23 16 35 27q11 11 22 28q9 16 9 25q-1 8 -14 14q-40 22 -52 57q-11 35 11 68q9 14 28 25q19 10 34 10q14 0 32 -9t27 -19q19 -25 26 -67q4 -19 4 -38q0 -22 -5 -43q-8 -37 -21 -62q-14 -25 -43 -53
q-26 -26 -49 -40q-22 -14 -44 -16q-4 -1 -8 -1q-5 0 -8 1q-6 2 -15 11zM291 559q-11 6 -17 19q-4 8 -3 17v7q3 10 14 21q10 10 39 30q24 16 39 34t19 34q2 8 0 12q-2 3 -11 8q-28 15 -43 36t-15 45q0 41 37 65q21 14 41 14q16 0 32 -8t30 -28q14 -19 20 -41q5 -17 5 -46
q0 -5 -1 -10q0 -37 -7 -59q-13 -46 -43 -84q-31 -37 -71 -57q-25 -13 -38 -15h-5q-11 0 -22 6z" />
    <glyph glyph-name="quotedblbase" unicode="&#x201e;" horiz-adv-x="534" 
d="M35 -214q-9 8 -12 14t-3 14q0 1 1 2q0 15 9 25q8 10 36 28q23 15 35 26q11 11 22 29q9 16 9 24q-1 8 -14 15q-40 22 -52 57q-11 35 11 68q9 14 28 24q19 11 34 11q14 0 32 -9t27 -20q19 -24 26 -66q4 -20 4 -38q0 -22 -5 -44q-8 -37 -21 -61q-14 -25 -43 -54
q-26 -25 -49 -39q-22 -14 -44 -17h-8q-5 0 -8 1q-6 2 -15 10zM291 -219q-11 5 -17 18q-4 9 -3 17v8q3 10 14 20q10 10 39 31q24 16 39 34t19 34q2 8 0 11q-2 4 -11 9q-28 15 -43 36t-15 44q0 42 37 66q21 13 41 13q16 0 32 -8t30 -27q14 -20 20 -41q5 -17 5 -46q0 -5 -1 -11
q0 -36 -7 -59q-13 -46 -43 -83q-31 -37 -71 -57q-25 -13 -38 -15h-5q-11 0 -22 6z" />
    <glyph glyph-name="dagger" unicode="&#x2020;" horiz-adv-x="421" 
d="M266 389q-92 107 -368 429v1v0q92 -107 368 -430zM186 -207q-5 4 -9 11q-5 8 -7 14q-2 8 -3 88t-1 218q0 64 -1 111v79q0 61 -2 83q-1 22 -4 25q-4 6 -14 8t-43 3q-32 1 -43 4q-12 2 -20 8q-18 13 -19 32q0 19 18 32q7 6 20 8q12 2 43 4q24 1 39 3q15 3 18 5q3 3 5 31
q1 28 3 95q1 80 3 102q1 23 7 31q11 17 30 18h1q19 0 31 -17q7 -9 8 -28q2 -20 3 -105q2 -68 3 -96q2 -27 5 -31q3 -2 17 -5q13 -2 34 -3q38 -2 54 -8q17 -6 23 -20q5 -11 5 -18v-5q-2 -9 -12 -20t-18 -13t-46 -4q-25 -1 -39 -3q-15 -2 -18 -5q-2 -2 -3 -27q-2 -25 -3 -89
q0 -34 -1 -81q0 -47 -1 -110q0 -74 -1 -125q0 -51 -1 -85q-1 -63 -2 -81q-2 -17 -6 -23q-5 -8 -16 -14q-10 -6 -20 -6q-2 0 -7 3q-5 2 -10 6z" />
    <glyph glyph-name="daggerdbl" unicode="&#x2021;" horiz-adv-x="459" 
d="M209 -208q-15 8 -20 28q-4 20 -6 88q-1 35 -3 61t-4 27q-1 2 -17 3q-17 2 -38 3q-39 2 -51 5q-13 4 -24 17q-2 2 -3 9q-2 7 -2 13q0 7 2 14q1 6 3 9q11 12 23 16q13 3 52 5q30 2 42 4q13 2 15 5q1 2 1 13q1 11 2 28q0 34 1 85v102q0 65 -1 116t-3 54q-2 4 -14 5
q-13 2 -42 4q-23 1 -40 3q-18 2 -22 4q-20 12 -19 36q1 25 23 37q4 2 21 4q18 2 39 4q27 1 39 3q13 3 15 6t3 22t1 44q1 81 9 109q9 28 35 28q16 0 26 -11q11 -10 15 -30q1 -8 2 -33q1 -26 1 -54q1 -28 2 -50t3 -25t14 -5q12 -3 38 -4q20 -2 37 -4t21 -5q15 -8 20 -25
q3 -7 3 -14q0 -10 -5 -19q-6 -12 -23 -16q-16 -5 -49 -5h-22q-10 1 -17 -1q-12 -3 -16 -18q-5 -16 -5 -60q-1 -22 0 -54v-74q0 -82 1 -140q1 -57 3 -59q2 -4 14 -6t40 -4q22 -1 39 -3q16 -3 20 -5q15 -9 18 -27q4 -17 -6 -30q-8 -12 -25 -18q-18 -5 -48 -5q-43 0 -49 -11
q-7 -10 -8 -85q-1 -68 -6 -87q-5 -20 -22 -28q-10 -5 -16 -5h-1q-6 1 -16 6z" />
    <glyph glyph-name="bullet" unicode="&#x2022;" horiz-adv-x="413" 
d="M161 291q-35 12 -59 33t-39 54q-7 15 -10 27q-2 11 -2 35q0 25 3 36q2 11 12 31q12 25 31 43q18 18 44 30q27 13 60 13q34 0 61 -13q24 -11 45 -32t33 -46q7 -15 9 -27t2 -35q0 -24 -2 -35q-2 -12 -9 -28q-11 -24 -33 -45q-21 -21 -44 -32q-22 -10 -52 -13h-17
q-19 0 -33 4z" />
    <glyph glyph-name="ellipsis" unicode="&#x2026;" horiz-adv-x="635" 
d="M66 7q-15 8 -23 16q-8 9 -15 24q-8 17 -8 34q0 20 11 39q20 35 61 38q4 1 8 1q25 0 44 -14q21 -15 30 -47q3 -9 3 -18q0 -8 -2 -16q-3 -18 -15 -34q-14 -20 -43 -27q-11 -3 -22 -3q-16 0 -29 7zM277 9q-15 9 -26 27q-12 19 -14 37v7q0 24 15 46q19 27 44 31q7 2 14 2
q17 -1 34 -9q24 -12 36 -35q6 -12 6 -34v-2q0 -23 -7 -38q-12 -25 -46 -36q-14 -5 -27 -5q-16 0 -29 9zM493 8q-29 14 -36 47q-3 12 -3 23q0 20 8 38q6 12 15 22q10 10 23 15q14 6 28 6q9 0 16 -2q22 -5 40 -26q20 -23 20 -49v-2q0 -25 -18 -48q-17 -23 -43 -30
q-9 -2 -18 -2q-16 0 -32 8z" />
    <glyph glyph-name="perthousand" unicode="&#x2030;" horiz-adv-x="746" 
d="M251 53q-17 8 -29 21q-12 12 -23 33q-7 16 -8 46q0 31 8 49q22 52 78 65q14 3 28 3q39 0 72 -28q37 -31 37 -85q0 -53 -36 -88q-23 -22 -60 -27q-8 -1 -17 -1q-27 0 -50 12zM320 139q5 5 5 13v2q-1 11 -9 17q-6 7 -14 7q-3 -1 -7 -2q-12 -5 -13 -19v-3q0 -14 11 -20
q5 -2 10 -2q8 0 17 7zM544 49q-29 14 -46 36q-16 23 -21 56q-1 8 -1 15q0 40 28 74q34 41 80 41q62 0 95 -46q21 -30 21 -67q0 -19 -6 -40q-7 -24 -26 -44q-19 -21 -41 -28q-17 -5 -38 -5h-5q-25 1 -40 8zM610 148q2 6 2 10q-1 12 -15 17q-6 2 -10 2q-13 0 -19 -14
q-3 -6 -3 -11q0 -6 3 -10q6 -7 18 -8q1 0 3 1q10 0 14 3t7 10zM65 205q-11 10 -14 22q-2 5 -2 11t3 13q2 8 35 41q32 33 105 101q81 77 159 149q78 73 135 124q30 28 52 48q23 19 34 29q27 23 41 26q3 1 6 1q11 0 22 -11t13 -22q1 -4 1 -7q0 -8 -4 -17q-4 -6 -51 -53
t-118 -116q-38 -37 -82 -78q-43 -41 -88 -83q-40 -38 -69 -64q-29 -27 -48 -45q-37 -35 -51 -47t-24 -19q-15 -11 -30 -12h-3q-13 0 -22 9zM123 548q-35 13 -56 42q-21 30 -21 67q0 36 18 64q18 27 52 43q22 10 44 10q9 0 19 -2q31 -6 57 -33q20 -19 28 -38q8 -18 8 -43
q0 -60 -47 -94q-30 -23 -64 -23q-18 0 -38 7zM176 640q8 7 8 16q0 5 -3 10q-6 15 -23 15q-11 0 -17 -5q-5 -6 -5 -17q0 -18 13 -24q5 -2 10 -2q9 0 17 7z" />
    <glyph glyph-name="guilsinglleft" unicode="&#x2039;" horiz-adv-x="310" 
d="M185 18q-11 9 -30 27l-40 40q-32 33 -59 63q-28 30 -29 36q-1 4 -1 11t1 12t29 35q27 31 59 63q21 22 40 40q19 19 30 27q19 16 33 17h3q12 0 22 -10q12 -12 14 -24t-4 -26q-3 -6 -21 -27q-19 -21 -42 -45q-22 -23 -39 -41q-16 -18 -16 -21q0 -2 15 -19q14 -16 34 -38
q45 -46 58 -63q12 -16 15 -29q1 -4 1 -7q0 -4 -1 -7q-3 -6 -13 -16q-14 -14 -26 -14q0 -1 -1 0q-12 0 -32 16z" />
    <glyph glyph-name="guilsinglright" unicode="&#x203a;" horiz-adv-x="311" 
d="M59 12q-13 11 -16 22q-3 12 4 25q3 6 21 27t41 44q23 24 39 43t16 22q0 4 -18 24q-17 21 -41 46q-47 48 -57 66q-7 10 -7 20q0 7 4 13q9 18 25 24q6 1 11 1q11 0 21 -7q18 -12 56 -48t70 -71q12 -13 21 -23t14 -17q12 -16 12 -29q0 -6 -3 -11q-9 -17 -44 -55
q-33 -36 -71 -72q-37 -35 -55 -47q-11 -7 -20 -7h-2q-10 0 -21 10z" />
    <glyph glyph-name="uni20ac" unicode="&#x20ac;" horiz-adv-x="634" 
d="M274 12q-37 13 -66 36q-30 24 -53 58q-16 26 -23 50q-7 25 -11 70q-3 40 -8 49t-28 12q-25 4 -38 25q-12 20 -1 40q4 9 18 15q13 7 26 7q11 0 21 8q10 9 10 18q0 10 -10 18t-25 11q-26 4 -39 24q-6 11 -6 21t5 19q4 9 17 15q14 7 26 7q18 0 24 11q5 10 8 52q4 63 17 96
q14 32 49 67q32 32 64 47t74 17q9 1 17 1q43 0 77 -13q41 -16 80 -55q33 -32 48 -72q15 -39 15 -89q0 -24 -5 -41t-14 -23q-10 -8 -25 -6q-15 1 -24 10q-8 8 -14 29q-6 22 -6 41q0 33 -21 65t-55 51q-45 25 -98 6q-54 -19 -78 -68q-8 -17 -13 -58q-5 -40 0 -53q4 -10 18 -12
q15 -3 78 -4q51 -1 62 -2q12 -2 20 -9q11 -10 14 -22t-2 -24q-8 -17 -26 -23q-19 -5 -78 -6q-29 -1 -52 -3q-23 -1 -26 -3q-9 -5 -8 -22q0 -17 9 -22q3 -2 26 -3q24 -1 55 -1q53 0 65 -2q11 -1 21 -9q12 -10 15 -22q4 -13 -1 -25q-7 -17 -26 -23q-19 -5 -78 -7q-29 0 -52 -2
t-27 -4q-5 -3 -6 -10q-1 -8 0 -38q2 -51 20 -80q17 -28 58 -47q25 -11 55 -11q30 -1 52 10q38 18 56 46t23 77q5 45 12 58t29 17q24 4 36 -14q11 -17 11 -56q0 -51 -16 -90t-50 -73q-35 -34 -74 -50q-38 -16 -86 -16h-1q-18 0 -33 2q-15 3 -28 7z" />
    <glyph glyph-name="trademark" unicode="&#x2122;" horiz-adv-x="638" 
d="M114 329q-11 6 -16 19t-8 55q-1 23 -2 57t-1 83q-1 38 -1 64q-1 27 -2 46q-1 44 -4 52q-2 8 -9 10q-32 9 -43 22q-7 9 -7 21q0 6 2 14q5 18 23 24q17 7 66 9q23 1 40 1q27 0 42 -2q26 -4 39 -15q15 -14 15 -29q-1 -16 -15 -30q-6 -5 -13 -9q-7 -3 -11 -3q-3 0 -9 -2
q-5 -1 -8 -3q-6 -3 -8 -19q-1 -17 -1 -92q-1 -116 -4 -180q-4 -65 -10 -78q-5 -9 -16 -17q-11 -7 -20 -7q-2 0 -8 3q-5 2 -11 6zM333 326q-4 2 -10 9t-10 14q-4 9 -6 23t-2 64v53v28v44v91q0 38 1 63q2 46 6 60q4 13 14 20t24 6q14 0 24 -8q5 -4 12 -16q6 -11 12 -25
q16 -43 25 -58q9 -16 18 -15q6 1 12 11q5 10 18 41q17 42 29 56q12 15 29 15q14 0 24 -10q10 -9 14 -26q3 -9 4 -62v-77v-74q0 -46 -1 -78v-55q-1 -42 -3 -56t-5 -20q-10 -19 -29 -21t-34 15q-5 6 -8 19q-2 14 -5 54q-2 26 -4 45q-3 20 -4 21q-1 2 -7 0q-7 -1 -14 -4
q-12 -6 -18 -6q-5 0 -20 5q-8 4 -15 5t-8 0t-3 -20q-1 -18 -2 -43q-2 -51 -7 -66q-5 -14 -22 -22q-13 -5 -16 -5q-2 0 -13 5z" />
    <glyph glyph-name="uni2153" unicode="&#x2153;" horiz-adv-x="811" 
d="M507 -8q-47 12 -82 48t-40 76q0 6 -1 10q0 7 2 13q2 10 6 17q14 22 40 18q25 -4 36 -39q8 -28 35 -44q26 -16 64 -16t65 18q27 17 27 42q0 16 -19 32t-44 21q-33 7 -44 12q-12 5 -19 16q-8 12 -6 28q1 16 12 24q3 3 12 7q8 3 15 5q8 2 19 5q10 3 18 5t17 7q10 5 16 10
q20 16 3 20q-16 4 -109 6q-32 1 -55 2q-22 1 -37 2q-28 3 -37 9q-8 6 -13 20t0 26t19 21q6 4 16 6q10 1 40 2q17 0 41 1h61h58q25 -1 42 -1q30 -1 41 -2q11 -2 18 -6q13 -6 19 -20q7 -14 7 -36v-1q0 -21 -8 -46q-8 -26 -21 -44q-6 -9 -10 -17q-5 -8 -5 -10q0 -3 5 -12
q5 -10 12 -20q31 -43 25 -88t-46 -83q-36 -33 -90 -46q-26 -6 -51 -6q-27 0 -54 8zM85 0q-9 9 -10 22v2q0 14 13 47q8 20 21 50q14 29 34 71q25 52 61 125q37 73 87 173l43 86q21 41 39 77q34 67 57 111q22 44 25 49q18 27 43 27h6q30 -5 30 -39q0 -11 -17 -50
q-17 -40 -67 -141q-27 -55 -65 -132t-90 -181q-73 -144 -112 -219q-40 -76 -45 -80q-12 -9 -25 -9h-2q-16 1 -26 11zM155 418q-3 4 -7 9t-5 8q-2 3 -4 38q-2 36 -3 83q0 34 -1 57q0 23 -2 37q-2 25 -10 23q-7 -1 -25 -15q-19 -15 -32 -15q-13 -1 -26 13q-14 14 -14 28v2
q1 15 21 39q10 11 21 24l25 25q24 23 46 41q22 19 30 21q7 3 14 3t12 -2q12 -5 19 -19q6 -10 7 -37q2 -27 3 -125q0 -48 1 -83v-8q0 -30 -1 -52q-1 -46 -5 -64q-3 -19 -11 -28q-10 -12 -26 -13h-2q-15 0 -25 10z" />
    <glyph glyph-name="uni2154" unicode="&#x2154;" horiz-adv-x="999" 
d="M710 -16q-36 6 -73 32q-36 25 -53 57q-5 10 -7 20q-2 11 -2 26q-1 18 1 25q2 6 10 14q18 17 38 10t30 -34q12 -32 38 -49q26 -16 66 -16q50 1 76 31q27 31 0 57q-12 12 -25 18q-12 6 -36 11q-26 6 -37 11t-16 16q-13 26 1 44q15 19 52 24q18 2 38 13q20 10 23 18
q4 10 -18 13q-23 4 -102 5q-43 1 -77 3q-35 2 -40 4q-9 4 -17 15q-8 12 -8 21q0 11 7 21t18 15q9 4 38 6q29 1 119 1h63q27 -1 46 -1q44 -2 54 -9q11 -6 17 -23q4 -14 4 -30t-4 -35q-9 -38 -28 -62q-12 -13 -10 -23q1 -10 16 -32q16 -23 22 -48q5 -25 0 -49q-9 -44 -49 -79
q-40 -34 -101 -42q-28 -3 -39 -3v0q-11 0 -35 4zM274 -6q-10 10 -11 26v2q1 17 14 51q4 9 15 34q12 25 30 61q32 67 79 161t95 188q38 76 72 143q35 66 57 108q12 23 19 36q8 14 10 16q14 15 29 16h2q15 0 27 -12q10 -10 10 -24v0q0 -14 -16 -51q-8 -20 -22 -49
q-14 -30 -34 -72q-33 -68 -70 -142q-37 -75 -73 -146q-23 -47 -45 -91q-23 -44 -43 -83q-37 -72 -62 -118q-25 -47 -29 -52q-13 -13 -27 -13h-3q-13 0 -24 11zM97 402q-9 2 -17 4q-9 2 -12 3q-11 5 -16 20q-5 16 -5 45q0 23 2 35q2 11 9 25q19 38 57 60q39 23 103 34
q23 4 44 9t28 8q32 17 30 45q-2 29 -37 46q-28 14 -69 10q-40 -3 -61 -22q-4 -4 -11 -15t-12 -22q-14 -33 -34 -39t-38 16q-12 14 -12 34q0 14 6 32q15 41 55 70q28 20 59 28q25 7 58 7h14q29 -2 42 -4q13 -3 33 -12q26 -13 50 -34q25 -22 33 -40q20 -46 6 -93
q-14 -46 -57 -75q-25 -16 -50 -25q-26 -9 -63 -13q-29 -3 -52 -12t-29 -19q-8 -13 11 -16q19 -4 107 -6q46 -1 81 -2q35 -2 38 -4q7 -3 14 -16t7 -23q0 -5 -3 -12q-3 -6 -7 -11q-7 -8 -15 -11q-8 -2 -31 -5q-12 -1 -39 -2t-60 -1h-29q-33 0 -66 1q-47 0 -62 2z" />
  </font>
</defs>
</svg>
