<?xml version="1.0" standalone="no"?>
<!DOCTYPE svg PUBLIC "-//W3C//DTD SVG 1.1//EN" "http://www.w3.org/Graphics/SVG/1.1/DTD/svg11.dtd" >
<svg xmlns="http://www.w3.org/2000/svg" xmlns:xlink="http://www.w3.org/1999/xlink" version="1.1">
<metadata>
Created by FontForge 20170731 at Sat Mar  5 13:09:35 2011
 By Aleksey,,,
Copyright (c) 2010 by Mans Greba:ck. All rights reserved.
</metadata>
<defs>
<font id="MAWNSHandwriting" horiz-adv-x="489" >
  <font-face 
    font-family="MAWNS Handwriting "
    font-weight="400"
    font-stretch="normal"
    units-per-em="1000"
    panose-1="3 8 0 0 0 0 0 0 0 0"
    ascent="750"
    descent="-250"
    x-height="499"
    cap-height="759"
    bbox="-280 -752.125 1046 1082.64"
    underline-thickness="50"
    underline-position="-150"
    unicode-range="U+0020-FB02"
  />
<missing-glyph horiz-adv-x="500" 
 />
    <glyph glyph-name=".notdef" horiz-adv-x="500" 
 />
    <glyph glyph-name=".null" horiz-adv-x="0" 
 />
    <glyph glyph-name="nonmarkingreturn" horiz-adv-x="500" 
 />
    <glyph glyph-name="space" unicode=" " horiz-adv-x="500" 
 />
    <glyph glyph-name="space" unicode="&#xa0;" horiz-adv-x="500" 
 />
    <glyph glyph-name="exclam" unicode="!" horiz-adv-x="204" 
d="M151 693q2 -45 2 -90t-1 -90q-1 -23 -1.5 -45.5t-0.5 -45.5q-1 -22 -1 -44t-2 -44q-1 -7 -5 -13.5t-9 -11.5q-14 -15 -33 -27q-3 -2 -10 -5.5t-14.5 -6t-13.5 -1.5t-7 9q-2 14 -1.5 29t0.5 29q1 15 1 29.5t1 29.5q2 46 3 91t0 91q0 44 -3 88q-1 11 -1.5 21.5t-2.5 21.5
q-1 5 -1 11t-1 11t-1 10t-1 10q-2 6 3.5 13t9.5 12q13 14 32 27q8 4 16 7.5t16 4.5q7 1 12 -3q0 -2 0.5 -2.5t0.5 -2.5q3 -7 3.5 -14.5t2.5 -14.5l3 -27q2 -14 2.5 -28.5t1.5 -28.5zM128 140q-6 -29 -5 -55q0 -8 0.5 -16t1.5 -16q2 -8 3 -15.5t2 -15.5q1 -7 -4 -13.5
t-9 -11.5q-7 -8 -15.5 -14.5t-17.5 -12.5q-7 -4 -15 -7.5t-16 -4.5q-8 -2 -12 3q-3 6 -4.5 12.5t-2.5 12.5q-3 10 -3 21q-1 11 -1.5 20.5t1.5 20.5q2 20 6 39.5t12 37.5q4 8 9.5 14.5t11.5 12.5q8 7 16.5 13t18.5 11q6 2 13 5t14 1q6 -2 6.5 -6.5t-1.5 -8.5z" />
    <glyph glyph-name="quotedbl" unicode="&#x22;" horiz-adv-x="380" 
d="M169 768q2 1 6 1.5t8 0.5t6.5 -2t2.5 -7q0 -8 -3 -15t-5 -15v-2q-1 -7 -5 -13.5t-9 -11.5q-6 -8 -18 -16q-1 -3 -1 -5.5t-1 -4.5q-8 -35 -6 -70.5t8 -70.5q1 -6 -4.5 -13t-9.5 -12q-14 -15 -33 -27q-7 -5 -15 -8t-16 -4q-8 -2 -12 3q-18 60 -10 124q2 17 6.5 33.5
t11.5 31.5q9 22 22.5 40t30.5 34q20 20 46 29zM309 768q2 1 6 1.5t8 0.5t6.5 -2t2.5 -7q0 -8 -3 -15t-5 -15v-2q-1 -7 -5 -13.5t-9 -11.5q-6 -8 -18 -16q-1 -3 -1 -5.5t-1 -4.5q-8 -35 -6 -70.5t8 -70.5q1 -6 -4.5 -13t-9.5 -12q-14 -15 -33 -27q-7 -5 -15 -8t-16 -4
q-8 -2 -12 3q-18 60 -10 124q2 17 6.5 33.5t11.5 31.5q9 22 22.5 40t30.5 34q20 20 46 29z" />
    <glyph glyph-name="numbersign" unicode="#" horiz-adv-x="625" 
d="M37 245q2 2 -0.5 0.5t-10.5 -9.5q3 3 11 9zM645 414q5 -2 5.5 -6t-1.5 -9q-3 -8 -9 -15t-12 -12q-8 -7 -16.5 -13.5t-18.5 -10.5q-12 -6 -24 -9q-14 -5 -26 -6q-11 -2 -21 -3.5t-21 -3.5q-50 -6 -100 -6l-4 -40t-3 -40q31 -4 61.5 -7t61.5 -5q5 -1 13 -1h-7h22.5t22.5 2
q5 2 9.5 2t7.5 -4q3 -5 0 -11l-5 -10q-12 -17 -28 -27q-7 -6 -16 -11.5t-18 -7.5q-13 -4 -25 -5t-26 -2q-17 -1 -35 0t-36 3q3 -22 9 -47q5 -15 11.5 -30t16.5 -28q3 -5 0 -11l-5 -10q-11 -16 -27 -27q-8 -6 -16.5 -11t-18.5 -8q-5 -2 -11 -3t-10 4q-13 13 -20 28
q-5 9 -8 18t-6 19q-5 20 -7.5 40t-3.5 40q-1 19 0 38q-11 2 -21.5 3t-21.5 3q-15 2 -30.5 4.5t-31.5 4.5q5 -40 15 -75q2 -8 4 -13q-1 1 -1 2t-1 3q2 -5 2.5 -8.5t2.5 -8.5q3 -6 0 -12q-2 -2 -2.5 -4t-2.5 -4q-10 -15 -27 -29q-8 -5 -17 -10.5t-18 -8.5q-3 -1 -11 -2t-10 4
q-7 14 -11.5 29t-7.5 30q-4 16 -6 31.5t-4 31.5q-3 28 -3 57l-36 3h-12t-12 -1l-15 -6q-4 -2 -10.5 -3t-10.5 4q-3 5 0 11l5 10q3 5 8 10l10 10l2 2l-1 -1q1 0 1 1q3 2 5.5 4t4.5 4l1 1q6 4 13 8q14 10 29 14l-10 -4l11 5h1h1l12 3h3q0 2 0.5 3t0.5 3q1 17 2 32.5t3 31.5
q-18 4 -36 8.5t-35 12.5q-14 6 -27 15q-4 3 -8 8t-5 11q-4 10 1 25q3 8 9 15t12 12q8 7 16.5 13t18.5 11q6 2 13 5t14 1q5 -2 6 -6t-1 -8v-4q4 -10 16 -17q4 -2 8.5 -4.5t9.5 -4.5q12 67 30 131q4 9 11 17l10 10q15 15 35 24q6 3 13.5 5.5t14.5 0.5q5 -2 5.5 -6t-1.5 -9
q-2 -10 -4 -15q-4 -18 -6 -36.5t-7 -37.5q-1 -2 -2 -3.5t-2 -3.5q-5 -25 -8.5 -49t-6.5 -49q34 -6 67.5 -9.5t67.5 -5.5q2 12 5 24t5 24q2 11 4.5 21t4.5 20q3 19 9 41q1 8 5 19q2 6 2 8q4 10 7 14q2 3 4 5.5t4 5.5q9 10 20.5 19t23.5 14q9 4 16 5q4 0 9.5 -0.5t6.5 -1.5
q2 -8 -1 -19q0 -5 -4 -13q-1 -3 -3 -11q0 2 2 8l-3 -12q-1 -2 -1 -3t-1 -3q-2 -8 -2.5 -15t-2.5 -15q-3 -13 -5.5 -25t-5.5 -25q-5 -22 -9 -44t-9 -44h37q24 0 47.5 1t47.5 3q17 2 32.5 3.5t32.5 4.5q2 1 4 1t4 1q3 1 7.5 3t0.5 0q5 2 9.5 3t9.5 -1zM30 198l-3 -1.5t4 1.5
h-1zM306 253q2 17 5 33.5t6 33.5q-3 1 -8 1q-30 1 -59.5 2.5t-58.5 4.5q-1 -15 -1.5 -29.5t0.5 -29.5q3 -1 6 -1t6 -1q26 -3 52 -6.5t52 -7.5zM442 618l-2 1h6q-2 0 -4 -1zM453 619h-2h2zM451 619h-5h5z" />
    <glyph glyph-name="dollar" unicode="$" horiz-adv-x="568" 
d="M490 328q14 -32 19.5 -66.5t0.5 -69.5q-8 -73 -47 -134q-18 -30 -43.5 -54t-55.5 -41q9 -54 20 -107t24 -107q-2 -8 -6 -15q-3 -3 -7 -9q-16 -16 -33 -26q-7 -5 -15 -8.5t-16 -4.5q-6 -2 -11 3q-1 2 -1 3t-1 3q-30 119 -51 242h-8q-19 2 -36.5 9.5t-33.5 17.5
q-33 21 -58 52q-13 16 -22.5 33.5t-17.5 36.5q-7 19 -11.5 39.5t-3.5 40.5q1 46 26 87q20 29 42 49q7 7 13.5 12.5t14.5 10.5q5 4 10.5 7.5t11.5 7.5q1 1 2 1.5t2 1.5q1 0 1.5 0.5t1.5 0.5l7.5 4.5t3.5 2.5q-2 -2 -9 -6v1q2 2 4.5 2.5t4.5 2.5q-2 18 -3.5 36t-3.5 36v2
q-20 5 -39 8.5t-39 8.5q-27 6 -54 12.5t-53 15.5q-24 8 -44 18q-9 5 -18 10.5t-16 13.5q-12 14 -12.5 34.5t4.5 37.5q2 9 7 17.5t10 16.5q11 14 23 26t26 22q44 33 97 47q20 5 39 7.5t39 3.5q-5 41 -8.5 81t-8.5 81q-1 7 4 13.5t9 11.5q14 15 32 26q3 2 10 6t14.5 6t13.5 1
t7 -8q8 -57 14 -112t11 -112q21 -4 41 -9t39 -13q16 -6 31.5 -14.5t28.5 -20.5q8 -8 15 -20q2 -4 3 -8t3 -8q0 -2 0.5 -3t0.5 -3q0 -5 -1 -8q0 -5 -1 -10t-3 -10q-2 -8 -8.5 -15t-11.5 -12q-8 -7 -16.5 -13t-18.5 -11q-6 -2 -13 -5t-14 -1q-6 2 -6 6t2 9v6q0 1 -0.5 2
t-0.5 2q0 5 -1 7q-5 13 -14.5 22.5t-20.5 17.5q-3 2 -6 3.5t-6 3.5q-8 4 -12 5l6 -60t6 -61q3 -1 6.5 -1.5t6.5 -2.5q11 -3 20.5 -8t19.5 -10q34 -19 62 -42q26 -22 46.5 -48t33.5 -57zM112 541q21 -6 41.5 -11t41.5 -10q-3 32 -6 63l-6 62q-10 2 -19.5 2.5t-19.5 1.5
q-49 2 -93 -7q-6 -2 -12 -3.5t-11 -3.5q-1 -2 -1.5 -3.5t-1.5 -3.5q-3 -19 1 -35q3 -8 9 -14t14 -11q15 -9 31 -15.5t32 -11.5zM191 289q0 1 1 1q-5 -5 -4 -4zM183 155q11 -27 27 -51.5t38 -44.5q-9 62 -16.5 124t-14.5 125q-4 -3 -7.5 -5.5t-7.5 -4.5q-2 -1 -2.5 -1.5
t-2.5 -1.5l-2 -2l-1 -1l-3 -3q-3 -4 -7 -10q-3 -7 -5.5 -13.5t-4.5 -13.5q-5 -20 -3 -41t7 -41q1 -5 5 -15zM411 103q7 32 6.5 64t-8.5 64q-13 43 -39.5 78.5t-61.5 63.5q5 -42 9.5 -83t9.5 -83q6 -49 13 -97.5t15 -96.5q7 0 11 1q1 0 2 0.5t2 0.5q1 1 1.5 2t1.5 2l1 2
q3 3 5 7q3 4 7 12q16 28 25 63z" />
    <glyph glyph-name="percent" unicode="%" horiz-adv-x="500" 
d="M480 760q3 -8 -1 -13q-2 -5 -5 -10q-5 -10 -10 -19.5t-10 -18.5q-8 -15 -20.5 -27t-27.5 -20q-8 -11 -15 -22t-15 -22q-45 -68 -84 -138q-16 -29 -31 -58.5t-29 -59.5q-36 -76 -67.5 -153.5t-61.5 -155.5q-3 -8 -9 -15t-12 -12q-15 -15 -35 -24q-6 -3 -13.5 -5.5
t-14.5 -0.5q-5 2 -5.5 6t1.5 9q11 32 22.5 62.5t23.5 62.5q33 81 69.5 159.5t78.5 155.5q42 75 89 146t104 135q11 13 25.5 23.5t30.5 15.5q5 2 11.5 3t10.5 -4zM293 690q5 -11 7 -22.5t0 -23.5q-6 -29 -22 -54q-8 -14 -17.5 -26t-20.5 -23q-30 -31 -61 -54
q-17 -12 -34.5 -23t-35.5 -20q-14 -7 -28.5 -12.5t-29.5 -8.5q-14 -4 -28.5 -5.5t-29.5 0.5q-11 2 -20.5 6.5t-18.5 11.5q-17 13 -26 32.5t-11 41.5q-2 23 3 46.5t13 45.5q9 25 22.5 47.5t30.5 42.5q19 23 44 42q14 11 30.5 20t34.5 11q19 3 29 -8q7 -7 11 -20
q20 5 41.5 7.5t42.5 0.5q24 -3 44.5 -17.5t29.5 -37.5zM124 502q0 -1 -1 -1q7 3 5 2.5t-4 -1.5zM141 510q2 2 4 2.5t-5 -2.5h1zM205 585q3 14 0 29q-5 14 -12.5 25t-19.5 19q-10 6 -20.5 8.5t-21.5 3.5q-10 0 -20 -1t-20 -3q-8 -2 -16.5 -4.5t-16.5 -5.5q-2 -1 -4.5 -2
t-4.5 -2q-4 -2 -7.5 -3.5t-7.5 -3.5q-2 -2 -4 -2.5t-4 -2.5l-6 -3q-1 -5 -2 -9t-3 -9q-4 -17 -4.5 -35.5t3.5 -35.5q10 -29 37 -48q7 -4 13.5 -5.5t13.5 -2.5q6 0 12 0.5t12 1.5l18 6q1 0 1 1h2q3 2 5.5 3t5.5 3q1 0 2 0.5t2 0.5l9 6q4 2 5 3q2 1 5 4q2 2 4 3t4 3q1 1 1.5 1
t1.5 1l8 8l2 2q6 6 9 10v1q3 4 5.5 7.5t4.5 7.5q3 5 4.5 10t3.5 10zM551 265q5 -11 7 -22.5t0 -23.5q-6 -29 -22 -54q-8 -14 -17.5 -26t-20.5 -23q-30 -31 -61 -54q-17 -12 -34.5 -23t-35.5 -20q-14 -7 -28.5 -12.5t-29.5 -8.5q-14 -4 -28.5 -5.5t-29.5 0.5q-11 2 -20.5 6.5
t-18.5 11.5q-17 13 -26 32.5t-11 41.5q-2 23 3 46.5t13 45.5q9 25 22.5 47.5t30.5 42.5q19 23 44 42q14 11 30.5 20t34.5 11q19 3 29 -8q7 -7 11 -20q20 5 41.5 7.5t42.5 0.5q24 -3 44.5 -17.5t29.5 -37.5zM382 77q0 -1 -1 -1q7 3 5 2.5t-4 -1.5zM399 85q2 2 4 2.5t-5 -2.5
h1zM463 160q3 14 0 29q-5 14 -12.5 25t-19.5 19q-10 6 -20.5 8.5t-21.5 3.5q-10 0 -20 -1t-20 -3q-8 -2 -16.5 -4.5t-16.5 -5.5q-2 -1 -4.5 -2t-4.5 -2q-4 -2 -7.5 -3.5t-7.5 -3.5q-2 -2 -4 -2.5t-4 -2.5l-6 -3q-1 -5 -2 -9t-3 -9q-4 -17 -4.5 -35.5t3.5 -35.5
q10 -29 37 -48q7 -4 13.5 -5.5t13.5 -2.5q6 0 12 0.5t12 1.5l18 6q1 0 1 1h2q3 2 5.5 3t5.5 3q1 0 2 0.5t2 0.5l9 6q4 2 5 3q2 1 5 4q2 2 4 3t4 3q1 1 1.5 1t1.5 1l8 8l2 2q6 6 9 10v1q3 4 5.5 7.5t4.5 7.5q3 5 4.5 10t3.5 10z" />
    <glyph glyph-name="ampersand" unicode="&#x26;" horiz-adv-x="644" 
d="M706 4q4 -5 0.5 -11t-5.5 -10q-5 -9 -11 -17.5t-12 -16.5q-10 -14 -25 -26q-21 -19 -47 -34t-55 -13q-11 1 -21.5 7.5t-18.5 14.5q-11 10 -18.5 22t-14.5 26q-8 17 -15 34t-13 35q-15 43 -26 86.5t-21 88.5q-2 8 -2 13q-12 -37 -26.5 -72.5t-33.5 -69.5q-25 -43 -58 -75
q-21 -21 -47 -36.5t-55 -21.5q-19 -4 -36.5 1t-32.5 15.5t-27.5 25t-21.5 29.5q-14 20 -20 44t-3 49q5 27 16.5 51.5t28.5 45.5q19 25 41 46.5t45 41.5h-10q-24 1 -48 4t-47 11q-19 6 -37 16t-32 24q-13 13 -20.5 29.5t-9.5 34.5q-2 23 4 45t16 42q18 35 42.5 65.5
t52.5 58.5q35 35 75 65t85 51q35 17 72.5 26t76.5 6q59 -5 106 -45q25 -21 41.5 -49t24.5 -59q0 2 -0.5 2.5t-0.5 2.5l9 -33q-2 -10 -7 -15q-3 -6 -7 -10q-14 -15 -33 -27q-15 -10 -31 -13q-7 -1 -12 4q-1 1 -1 2t-1 3q-2 10 -3 14q-11 38 -32.5 70t-53.5 54
q-19 11 -39.5 17t-41.5 8q-13 0 -25 -1.5t-25 -3.5q-7 -2 -13.5 -4t-13.5 -4l-4 -2q-1 0 -1.5 -0.5t-1.5 -0.5q-5 -2 -8.5 -4t-7.5 -4q-1 0 -2 -0.5t-2 -0.5l-2 -2q-9 -5 -16 -10q-1 0 -1 -1q-4 -2 -5 -3q-5 -3 -8.5 -6t-7.5 -6q-4 -4 -7 -6q-4 -3 -7 -6.5t-7 -6.5l-9 -9
q-2 -2 -4.5 -5t-4.5 -5q-13 -13 -23 -26q-1 -1 -1.5 -2t-1.5 -2q-6 -8 -8 -12q-4 -5 -6.5 -9.5t-5.5 -9.5q-10 -16 -16 -39q-5 -26 1 -49q6 -18 18 -32t27 -25q26 -15 55 -21.5t58 -8.5q34 -1 67 3q5 2 10.5 5t10.5 6q12 7 24.5 13t25.5 12v4q2 12 3 24t1 24q0 7 4.5 13.5
t9.5 11.5q8 9 16.5 16t17.5 13q3 1 10.5 5t16 6.5t15 1.5t6.5 -9q0 -13 1 -25.5t3 -24.5q1 -5 1.5 -8.5t0.5 -8.5q8 3 17 5.5t17 4.5q5 2 11.5 3t10.5 -4q3 -7 0 -13q-5 -12 -14.5 -21t-19.5 -17q-4 -3 -7 -6t-7 -5q3 -20 6 -38.5t7 -37.5q8 -44 17.5 -87t21.5 -85
q6 -21 12.5 -41t14.5 -40q7 -16 14 -31.5t16 -29.5q7 -10 14 -19t18 -16q2 -2 4 -2v1q5 8 13 15.5t16 13.5t17 11t19 8q4 2 11 3t10 -4zM204 252h1q2 2 4 3.5t-5 -3.5zM347 313q-20 -8 -41 -14.5t-43 -11.5q-3 -1 -5.5 -1t-5.5 -1q-2 -2 -4 -2.5t-4 -2.5t-5 -3.5t-5 -3.5
q-1 0 -1.5 -0.5t-1.5 -0.5q-11 -10 -23 -17l-6 -6q-2 -1 -4 -3q-5 -4 -9 -8l-8 -8q-2 -1 -4 -3q-2 -4 -8 -10q-1 -1 -2.5 -3t-3.5 -4t-2 -4q-6 -7 -11 -16q-7 -14 -12 -32q-3 -14 -2.5 -27.5t3.5 -27.5q5 -16 13.5 -29.5t18.5 -26.5q8 -10 17 -18.5t19 -15.5q7 -4 14.5 -6.5
t15.5 -3.5h1q2 4 4 6q4 6 8 12.5t8 13.5l12 24t11 25q17 42 30 85t24 87z" />
    <glyph glyph-name="quotesingle" unicode="'" horiz-adv-x="218" 
d="M160 765q2 1 6 1.5t8 0.5t6.5 -2t2.5 -7q0 -8 -3 -15t-5 -15v-2q-1 -7 -5 -13.5t-9 -11.5q-6 -8 -18 -16q-1 -3 -1 -5.5t-1 -4.5q-8 -35 -6 -70.5t8 -70.5q1 -6 -4.5 -13t-9.5 -12q-14 -15 -33 -27q-7 -5 -15 -8t-16 -4q-8 -2 -12 3q-18 60 -10 124q2 17 6.5 33.5
t11.5 31.5q9 22 22.5 40t30.5 34q20 20 46 29z" />
    <glyph glyph-name="parenleft" unicode="(" horiz-adv-x="299" 
d="M206 624q-2 2 -3 2t-3 1h2q-3 0 -5 1h-2q0 -2 -2 -2v-1q-5 -5 -9 -10t-9 -10q-1 -1 -1.5 -2t-2.5 -3l-6 -9q-5 -5 -8.5 -10.5t-7.5 -10.5q-5 -9 -11 -18t-11 -19q-25 -49 -39 -104q-1 -3 -1 -6t-1 -6q-11 -52 -11 -105.5t14 -104.5q12 -41 35 -75.5t58 -57.5
q24 -14 50 -21.5t53 -10.5q5 -1 5.5 -6t-1.5 -9q-3 -8 -9 -15t-12 -12q-18 -16 -35 -24l-10 -4t-10 -3q-12 1 -23.5 2t-23.5 3q-53 11 -96 46q-37 33 -57 78q-23 49 -29 103.5t0 108.5q6 56 23.5 110t46.5 102q19 30 40.5 58t47.5 53q31 33 74 55q9 5 18.5 8t20.5 5h16
q2 -1 5 -1t5 -2q4 -2 8 -5t7 -6q4 -5 1 -11.5t-5 -9.5q-13 -16 -28 -27q-8 -6 -16 -11t-18 -8q-5 -2 -10.5 -2.5t-9.5 3.5q-1 1 -2 1.5t-2 1.5z" />
    <glyph glyph-name="parenright" unicode=")" horiz-adv-x="353" 
d="M320 390q8 -42 9 -84.5t-7 -84.5q-8 -45 -26 -85.5t-49 -74.5q-43 -48 -102 -77q-23 -12 -47.5 -18.5t-50.5 -9.5q-5 -1 -9 1t-4 7q0 7 4.5 13.5t8.5 11.5q7 8 15.5 14.5t16.5 11.5t16 8.5t16 4.5l21 3q5 2 10 3t10 3q2 1 3 1t2 1q1 0 1.5 0.5t1.5 0.5q2 2 4.5 2.5
t4.5 2.5q1 0 5 2l2 2q2 1 2.5 2t1.5 2l4 4l4 4q0 1 2 3q2 4 5 7q4 8 7 12q15 31 23 64q8 37 10 79q1 42 -5 84t-17 83q-17 61 -46 113q-17 30 -39 57t-51 46q-13 8 -27.5 13t-29.5 6h-11.5t-10.5 -2q-4 0 -10 -2q2 0 2.5 0.5t1.5 0.5q-2 -1 -4 -1.5t-4 -1.5
q-4 -2 -10.5 -2.5t-9.5 3.5q-4 5 -1 11l5 10q9 14 28 27q5 5 11 8l12 6q8 4 17 7l1 1h1q1 0 2 1h3q6 2 16 4q15 5 32 4t32 -6q15 -4 28.5 -11t25.5 -16q29 -22 50.5 -51.5t38.5 -61.5q20 -39 33 -81t21 -85z" />
    <glyph glyph-name="asterisk" unicode="*" horiz-adv-x="577" 
d="M551 325h-1h-6h7zM557 324q5 0 5.5 -6t-1.5 -9q-3 -8 -9 -15t-12 -12q-18 -16 -35 -24l-10 -4t-10 -3q-17 -1 -33 -0.5t-32 0.5q-18 1 -36 1.5t-35 2.5q-10 1 -19.5 2t-19.5 2q1 -14 6 -27q5 -17 12.5 -32.5t16.5 -30.5q3 -5 0.5 -10.5t-5.5 -9.5q-10 -15 -27 -29
q-8 -5 -17 -10t-18 -8q-5 -2 -11 -3t-10 4q-20 21 -29.5 49t-13.5 57q-2 12 -3 23.5t-1 23.5q-4 -3 -7.5 -6t-8.5 -6l-36 -30t-37 -30q-8 -5 -17 -10.5t-18 -7.5q-4 -2 -11 -3t-10 4q-4 5 -1 11t6 9q3 5 7 9.5t9 9.5q24 21 49 41.5t51 40.5q-29 11 -57 25t-54 34
q-8 6 -14.5 13t-14.5 14q-6 5 -12 10.5t-11 12.5q-2 2 -4.5 6.5t-2.5 7.5v4q1 5 2.5 8.5t4.5 8.5q5 8 13.5 15.5t16.5 13.5t16.5 11t18.5 8q9 4 21 4q5 0 9 -1t4 -8q0 -4 -2 -7.5t-4 -7.5q1 0 1 -0.5t1 -0.5q5 -5 10.5 -10t11.5 -10l12 -12t13 -11q6 -5 12 -9t13 -8
q13 -9 27 -15q4 39 6 78q-10 -3 -17 -2q-5 2 -5.5 6.5t1.5 8.5q2 7 7 13t10 11q2 2 3 2v1q1 1 1 1.5t1 1.5v2q3 8 9.5 15t12.5 12q15 15 35 24q3 1 8.5 3.5t11 3.5t9.5 -1t5 -8q1 -9 1.5 -18t-0.5 -19q0 -37 -4 -73t-6 -73q13 8 25 15.5t25 14.5q8 4 15.5 8t15.5 8q4 3 14 7
q2 0 6 2q0 1 0.5 1t0.5 1q17 9 32.5 17.5t33.5 12.5q5 0 7 -1q4 0 7 -3t2.5 -7.5t-1.5 -6.5q0 2 0.5 3.5t0.5 3.5q-2 -6 -3 -10t-5 -10q-3 -5 -6.5 -9t-7.5 -9q-6 -8 -14.5 -14.5t-17.5 -11.5q-15 -10 -30 -13q-8 0 -11 3q-2 -2 -5 -3t-5 -3q-5 -3 -10 -5q-2 -1 -4 -1.5
t-4 -1.5q0 -1 -2 -1q0 -1 -1 -1q-8 -4 -11 -6q-5 -2 -9 -4.5t-8 -5.5q34 -7 68.5 -10.5t68.5 -5.5q20 -1 39 -1t38 -1q2 -1 7 -1zM405 427l3 1.5t-4 -1.5h1z" />
    <glyph glyph-name="plus" unicode="+" horiz-adv-x="578" 
d="M318 525q-16 -8 -13 -8q8 6 12 8h1zM516 318q6 -2 6 -8q0 -2 -0.5 -3.5t-0.5 -3.5q-3 -8 -9 -15t-12 -12q-18 -16 -35 -24q-5 -3 -13 -5.5t-14 -0.5q-8 2 -13 3q-21 6 -43 10t-45 7q-5 1 -11 1.5t-11 1.5v-25q1 -20 3 -39.5t7 -38.5q2 -6 3 -10q0 2 -0.5 3t-0.5 3
q0 -3 2 -7q4 -9 -5 -20q-10 -15 -27 -29q-8 -5 -17 -10.5t-18 -8.5q-4 -1 -11 -2t-10 4q-6 8 -9 17t-5 19q-4 22 -6 46q-2 26 -1.5 52t2.5 52v5l-50 6t-50 7q-10 2 -19.5 4t-18.5 4q-4 1 -7.5 2t-6.5 2l-6 3q-5 1 -7 4q-4 3 -6.5 6t-2.5 8q0 7 4.5 13.5t8.5 11.5
q7 8 15.5 14.5t16.5 11.5q3 1 9.5 5t14 6.5t14 2t7.5 -7.5l2 -2q1 0 7 -2q17 -6 36 -9l38 -6q2 0 5 -0.5t6 -0.5q1 4 1.5 8t1.5 8q5 21 10 42.5t15 41.5q3 5 5.5 10t6.5 10q8 9 16 17.5t17 16.5q1 0 3 2q2 1 4.5 2.5t4.5 3.5q1 0 1 0.5t1 0.5q-1 0 -1 -1q2 2 3 2q3 2 6.5 4
t6.5 4q4 2 7 3t7 2q6 2 12 3t12 -1q7 -2 6.5 -8.5t-5 -13t-10 -12.5t-7.5 -8q-3 -3 -6.5 -5.5t-6.5 -5.5q-3 -8 -5.5 -15.5t-4.5 -15.5q-11 -53 -15 -106q3 0 5.5 -0.5t5.5 -0.5q27 -3 54.5 -6t55.5 -8q22 -3 45 -9q19 -3 32 -10z" />
    <glyph glyph-name="comma" unicode="," horiz-adv-x="181" 
d="M125 141q9 -26 10.5 -52.5t-1.5 -52.5q-4 -38 -13 -75t-20 -74q-11 -32 -22.5 -63.5t-25.5 -62.5q-4 -8 -9.5 -14.5t-11.5 -12.5q-18 -16 -35 -24q-6 -3 -13.5 -5.5t-14.5 -0.5q-5 2 -5.5 6t1.5 9q18 48 35 95.5t29 97.5q5 21 8.5 42.5t5.5 43.5q1 19 0 38t-6 38v1
q-3 6 0 12l2 4l2 4q12 17 28 28q8 6 16.5 11t18.5 9q2 1 10.5 2t10.5 -4z" />
    <glyph glyph-name="hyphen" unicode="-" horiz-adv-x="523" 
d="M455 373q5 -1 9.5 -2t4.5 -7q-1 -7 -5 -13.5t-9 -11.5q-14 -15 -33 -27q-6 -4 -14.5 -8.5t-16.5 -4.5h-24q-42 0 -83.5 -1t-83.5 -3q-20 -1 -40 -2.5t-40 -4.5l-18 -2t-18 -3l-18 -3q-3 -1 -6.5 -2t-7.5 -1q-5 -1 -9 -1t-7 4q-3 5 0 10.5t5 9.5q5 8 12 14.5t15 12.5
q8 5 16 10.5t17 7.5q1 0 1 1q4 1 7 2t7 2q5 2 10 2.5t10 2.5q38 8 77 11t78 5q42 2 82 2h82z" />
    <glyph glyph-name="period" unicode="." horiz-adv-x="175" 
d="M129 52q1 -7 1.5 -13.5t0.5 -14.5q0 -7 -4.5 -13.5t-9.5 -11.5q-14 -15 -33 -27q-7 -5 -15 -8.5t-16 -4.5q-8 -2 -12 3q-5 11 -6 22l-2 22q-1 10 -1 19v18q0 14 5 31q4 9 10.5 17t13.5 14q15 17 35 25q5 2 10.5 4t10.5 2t9 -1t4 -7q0 -7 -3 -11v-4q-1 -3 -1 -9v-23
q1 -8 1.5 -14.5t1.5 -14.5z" />
    <glyph glyph-name="slash" unicode="/" horiz-adv-x="468" 
d="M465 768q3 -8 -1 -13q-2 -5 -5 -10q-5 -10 -10 -19.5t-10 -18.5q-8 -15 -20.5 -27t-27.5 -20q-8 -11 -15 -22t-15 -22q-45 -68 -84 -138q-16 -29 -31 -58.5t-29 -59.5q-36 -76 -67.5 -153.5t-61.5 -155.5q-3 -8 -9 -15t-12 -12q-15 -15 -35 -24q-6 -3 -13.5 -5.5
t-14.5 -0.5q-5 2 -5.5 6t1.5 9q11 32 22.5 62.5t23.5 62.5q33 81 69.5 159.5t78.5 155.5q42 75 89 146t104 135q11 13 25.5 23.5t30.5 15.5q5 2 11.5 3t10.5 -4z" />
    <glyph glyph-name="zero" unicode="0" horiz-adv-x="592" 
d="M525 493q12 -38 13 -78t-4 -79q-8 -56 -25.5 -109t-47.5 -101q-17 -28 -39.5 -52t-49.5 -43q-26 -20 -57 -34.5t-65 -16.5q-44 -2 -84.5 16t-69.5 51q-28 32 -44.5 70.5t-27.5 79.5q-24 90 -22 187q1 48 7 94.5t20 91.5q13 44 34.5 82.5t54.5 70.5q22 20 47 35
q22 14 47 22q9 2 18.5 4t18.5 2q5 -1 10.5 -1t11.5 -1q3 -1 8 -2t9 -3q7 -1 14 -5q10 -5 6 -14t-12 -17q16 -6 33 -15q24 -14 46 -31t42 -37q19 -19 36.5 -40.5t32.5 -44.5q13 -20 23.5 -42t17.5 -46q-1 2 -1 3t-1 3zM356 69q2 2 3.5 3t-5.5 -4zM443 338q0 21 -2 42.5
t-8 41.5q-2 6 -2 8q0 -2 0.5 -3t0.5 -2q-5 18 -13 34.5t-18 33.5q-14 23 -30.5 44t-34.5 41t-38 37.5t-43 31.5q-19 11 -39 19t-42 10h-13q-1 -2 -3 -4q-3 -8 -6 -15.5t-7 -15.5l-6 -18q-5 -9 -12 -18l-9 -9l-3 -3v-1q-10 -40 -14 -80.5t-3 -81.5q0 -46 5.5 -91.5
t18.5 -90.5q3 -13 7 -25t9 -24q14 -34 35.5 -65t53.5 -51q37 -23 80 -26q12 -1 28 2q2 1 5 1.5t5 1.5q1 1 3 1q0 1 1 1l1 1q1 0 1 1q1 0 3 2l2 2q1 1 1.5 2t2.5 2q2 2 3 4t3 4q6 8 11.5 16.5t10.5 16.5q27 53 41 111q1 3 1.5 5.5t0.5 5.5q10 49 12 101z" />
    <glyph glyph-name="one" unicode="1" horiz-adv-x="373" 
d="M333 -22q2 1 9.5 5t15.5 6t14.5 1.5t6.5 -8.5q0 -7 -4.5 -13.5t-9.5 -11.5q-7 -8 -15.5 -14.5t-17.5 -12.5q-17 -11 -38 -21q-22 -10 -45.5 -16t-47.5 -5q-20 2 -39.5 5.5t-38.5 11.5q-37 13 -71.5 30t-70.5 30q-8 3 -7 9t5.5 13t10.5 13l8 8q15 15 35 24q14 7 25 7h2
q1 0 1 0.5t1 0.5h1q1 1 2 1t2 1q5 2 9 3t9 1t9 -1.5t4 -7.5q0 -4 -3 -10q11 -4 22.5 -9t22.5 -10v37t1 36q2 84 6 166.5t5 165.5q1 51 -1 100.5t-7 99.5q-4 -8 -7.5 -14.5t-7.5 -14.5q-3 -5 -6 -10.5t-5 -10.5q-3 -6 -5.5 -12t-5.5 -12q-1 -1 -1 -2t-1 -2q-3 -8 -9 -15
t-12 -12q-15 -15 -35 -24q-6 -3 -13.5 -5.5t-14.5 -0.5q-5 2 -5.5 6t1.5 9q0 2 2 4q1 5 2.5 9t3.5 8t3.5 7.5t3.5 7.5q3 7 6.5 13.5t7.5 14.5q8 14 15 28t15 28q16 29 29.5 58t21.5 61q4 10 12 18q2 3 5 5.5t5 4.5q8 8 17 14t20 11q6 3 13.5 6t14.5 1q7 -1 7 -9
q8 -32 13 -64.5t8 -64.5q8 -82 7 -164.5t-4 -165.5q-2 -41 -3.5 -81.5t-3.5 -82.5q-2 -38 -2 -76.5t1 -76.5q0 -7 -4.5 -13.5t-9.5 -11.5q-4 -4 -5 -6q27 -10 54 -11q19 -1 37 3q3 0 7 2q3 0 5 2q6 2 8 3t4 3z" />
    <glyph glyph-name="two" unicode="2" horiz-adv-x="734" 
d="M747 35q-1 0 -2 -1h1zM813 69q6 -2 6.5 -6.5t-1.5 -9.5q-4 -8 -9.5 -14.5t-12.5 -12.5q-5 -5 -10.5 -10t-11.5 -10q-1 -1 -2 -1.5t-2 -1.5q-1 0 -2 -1l-1 -1l-18 -12q-35 -23 -74.5 -33t-81.5 -10q-37 0 -73.5 5t-72.5 13q-14 3 -26.5 6.5t-25.5 9.5q-29 13 -51 28
q-14 8 -28.5 17.5t-28.5 18.5q-17 -20 -37 -37q-19 -17 -39.5 -31t-43.5 -24q-11 -5 -22 -8t-23 -5q-9 -2 -17.5 -1.5t-16.5 1.5q-30 3 -53 19q-19 12 -29 33t-9 44q0 32 17 60.5t40 49.5q19 17 41 31t46 22q32 11 64 7q26 -5 51 -17t48 -26v1q11 26 19 52.5t15 53.5
q15 64 21 131q5 51 4 102t-15 100q-10 32 -27.5 61t-46.5 49q-12 7 -26.5 12t-28.5 7q-5 0 -10.5 -0.5t-11.5 -1.5l-9 -3q-2 0 -3 -1h-1l-6 -3q-2 -2 -3.5 -2.5t-3.5 -2.5q-2 0 -4 -2q-3 -3 -5 -4l-9 -9l-4 -4l-4 -4q-5 -5 -8.5 -9t-8.5 -9q-2 -2 -3 -4t-3 -4q-4 -4 -6 -8
q-16 -21 -27 -40q-4 -11 -9 -21l-10 -20q-5 -9 -9 -17.5t-6 -17.5q-1 -2 -1 -5q5 2 10.5 2.5t8.5 -4.5q4 -5 1 -11t-5 -9q-12 -17 -28 -28q-8 -6 -16.5 -11t-18.5 -8q-8 -3 -21.5 -5t-18.5 7q-2 2 -3 8q0 1 -0.5 1.5t-0.5 1.5q0 5 1 8.5t2 7.5q5 15 10 25q6 14 13 27t12 27
q2 5 5.5 10.5t6.5 10.5q2 4 4 7l4 6q5 8 10 15l10 14q30 39 65.5 74t78.5 58q22 12 44.5 21.5t47.5 11.5q29 1 57 -9q42 -17 70 -53q14 -19 23.5 -40.5t15.5 -44.5q7 -24 10 -48.5t5 -50.5q2 -53 -3.5 -105t-16.5 -104q-9 -47 -24 -94q-5 -18 -12 -36q-5 -11 -10.5 -22
t-11.5 -22l-27 -45q18 -12 36 -24.5t36 -23.5q11 -7 23 -14t24 -12q11 -5 23 -9t24 -7q32 -8 63 -13t63 -7q40 -2 78 6q5 1 8.5 2t7.5 2q4 2 7 3h1l1 1h1v1h1h1q0 1 1 1q0 1 1 1q-1 -1 -2 -1q14 14 36 24q5 3 12.5 6t14.5 1zM91 126q-5 -2 -3.5 -1.5t3.5 1.5zM246 69l1 2
q-5 2 -9 5t-9 6q-14 9 -29 17.5t-31 15.5q-13 5 -26 9.5t-27 5.5q-10 0 -15 -1h-1q-2 -5 -3.5 -9t-3.5 -9q-4 -19 1 -42q10 -27 32 -42q11 -6 23 -9t24 -5q5 0 9 0.5t9 1.5q2 1 3 1t3 1h1q1 1 2 1q1 1 2 1l3 3q1 1 1.5 1t1.5 1l8 8q8 8 16 19q2 1 4 5q5 5 10 13zM745 34
q-3 -2 1 0q0 1 1 1v1v-1q0 1 1 1q-4 -2 -5 -2q0 -2 2 0zM747 36l-2 -2h-1l1 1q1 0 2 1zM750 37l3 3l-2 -2h-1l2 1q1 1 1.5 1t1.5 1q-2 -1 -2.5 -2t-2.5 -2zM748 36q-1 0 -2 -1q2 2 4 3q-1 -1 -2 -1v-1z" />
    <glyph glyph-name="three" unicode="3" horiz-adv-x="540" 
d="M489 389q22 -44 13 -90q-7 -36 -24 -66.5t-40 -59.5q-35 -44 -87 -73q-42 -24 -87.5 -40.5t-93.5 -27.5t-95.5 -17.5t-95.5 -3.5q-16 2 -32 4.5t-30 10.5q-7 4 -13 8t-11 10q-4 6 -6 10q-1 2 -1.5 5t-1.5 5q-1 3 -1 6v-1q-2 9 0 18t4 17q4 12 9.5 22.5t12.5 20.5
q5 8 12.5 15.5t15.5 13.5t17 11t18 8q5 2 11.5 3t10.5 -4t0.5 -11t-5.5 -10q-1 -1 -1 -1.5t-1 -1.5q-2 -5 -4.5 -11t-4.5 -11q-1 -5 -1 -8.5v-8.5q1 -2 1 -3t1 -2q2 -8 7 -13t11 -10q15 -8 33 -11.5t35 -4.5q38 -2 75.5 3t74.5 13q15 4 29.5 7.5t28.5 8.5l30 9q7 4 14 5
q2 2 5 2q8 4 16 7.5t16 7.5q2 2 4 2l2 2l1 1q4 4 8 10q2 2 2 3q2 2 2.5 3t2.5 3q4 5 7 11t7 11q5 10 9 19.5t6 20.5q8 32 -1 63q-8 28 -28 50t-45 38q-38 23 -80.5 34.5t-85.5 13.5q-4 0 -5 1q-20 -7 -41 -12.5t-41 -9.5q-18 -4 -37 -6t-37 2q-6 2 -6.5 7t1.5 9q4 10 12 18
q10 11 21.5 20.5t25.5 15.5q38 16 77.5 24.5t81.5 7.5h5q2 2 5 2.5t5 1.5q3 2 6.5 2.5t6.5 2.5l6 3q13 5 25 10.5t23 11.5q1 1 2 1q2 2 5 3.5t6 3.5q2 2 5 3.5t6 3.5q1 0 1 0.5t1 0.5q8 6 11 8l2 2q2 1 2.5 2t1.5 2l2 2l3 3q1 2 2 3.5t2 3.5q4 8 5 13q3 12 0 25
q-4 11 -11.5 20t-17.5 16q-17 10 -36 14t-39 5q-34 2 -67.5 -2t-66.5 -12q-29 -6 -58 -15q-6 -4 -14 -6l-16 -6l-16 -6q-5 -3 -11 -4q-1 0 -1.5 -0.5t-1.5 -0.5q-1 -1 -2 -1t-2 -1l-2 -1q-1 -1 -1.5 -1t-1.5 -1q-5 -2 -11 -4t-11 -2q-2 1 -5 1q-5 0 -9.5 1t-4.5 7
q0 8 4.5 14t9.5 11q14 17 33 28q6 4 11.5 6.5t11.5 4.5q3 1 6.5 2t6.5 2q3 2 6 2.5t6 2.5q12 5 23.5 9.5t23.5 8.5q51 16 102 27q29 6 57.5 9.5t57.5 3.5q25 -1 51 -4t49 -16q10 -6 18.5 -12.5t14.5 -16.5q11 -17 11 -39q0 -25 -13.5 -48t-30.5 -40q-22 -23 -47 -42.5
t-53 -36.5q66 -14 120 -49q18 -13 33.5 -29t26.5 -36zM366 158l-1 -1q5 5 4 4z" />
    <glyph glyph-name="four" unicode="4" horiz-adv-x="414" 
d="M321 399q-6 -60 -9 -120q-4 -69 -2 -137t9 -137h5q5 1 9.5 -0.5t4.5 -7.5q0 -5 -2.5 -9.5t-5.5 -8.5q-2 -4 -2 -6q0 2 1 4q-3 -11 -10.5 -20.5t-15.5 -17.5t-17.5 -14.5t-20.5 -11.5q-6 -2 -11.5 -4t-12.5 -3q-12 -2 -13 9q-1 2 -1 6q-2 8 -3 15.5t-2 15.5l-3 33
q-2 17 -2.5 34.5t-1.5 34.5q-6 138 9 273l-6 -3q-59 -30 -124.5 -38t-131.5 -3q-6 0 -6 6t1 9q2 5 4 9.5t4 9.5q26 69 54 136.5t45 139.5q8 34 11.5 69.5t-5.5 69.5q0 8 6 16q4 6 7 9q7 8 15.5 14.5t17.5 12.5q15 10 31 13q7 1 12 -4q2 -5 3 -9t2 -9q2 -8 2.5 -17.5
t1.5 -17.5q0 -10 -0.5 -19t-1.5 -19q-6 -44 -18 -87q-18 -66 -43.5 -129.5t-50.5 -128.5q34 -1 67 1t65 9q6 2 10 2q6 2 12.5 4t12.5 4q4 2 6 2q1 1 1.5 1t1.5 1q11 77 27.5 152.5t43.5 148.5q3 8 9.5 15.5t12.5 12.5q18 17 37 26q6 2 13.5 5t14.5 1q7 -1 7 -9
q10 -55 10.5 -111.5t-16.5 -110.5q-10 -32 -27.5 -60t-40.5 -52z" />
    <glyph glyph-name="five" unicode="5" horiz-adv-x="568" 
d="M510 419q13 -29 19.5 -61.5t4.5 -64.5q-2 -36 -12.5 -70.5t-27.5 -66.5q-33 -63 -85 -112q-50 -47 -114 -78q-48 -22 -98.5 -30.5t-102.5 -1.5q-39 5 -77.5 20t-67.5 42q-12 11 -22 24t-15 28q-7 18 -8 35q-1 8 0 16.5t3 16.5q9 36 28 63q14 20 30 36.5t33 32.5
q8 7 16.5 13t18.5 11q6 3 13.5 5.5t14.5 0.5t6 -8t-5.5 -13t-10 -13.5t-7.5 -7.5q-2 -2 -4.5 -4t-4.5 -4l-1 -1q-2 -3 -5 -6t-5 -6q-2 -2 -3 -4l-2 -4q-4 -6 -6 -10q-4 -6 -6.5 -12.5t-4.5 -13.5q-4 -23 2 -48q8 -24 25 -43t38 -33q29 -18 63 -27.5t68 -11.5q20 -1 39 1
t38 6q9 2 18 4.5t17 5.5q2 1 3.5 2t3.5 1q2 2 5 2.5t5 2.5l4 2q4 2 5 3q3 2 7 4q0 1 1 1q6 4 8 6v1q4 2 10 8v1q8 7 15 17q2 2 3 4q2 2 4 5l4 6l6 10l6 10q10 19 18 38.5t13 39.5q14 64 -3 128q-17 55 -53.5 99.5t-84.5 74.5q-41 25 -86 39.5t-93 16.5q-23 1 -46 -1t-46 -7
q-4 -1 -9.5 1.5t-4.5 7.5q6 38 3 76.5t-3 76.5q0 7 4.5 13.5t9.5 11.5q9 10 22 20q11 8 25 16t28 6q52 -6 103 -14t104 -11h30q4 0 7.5 0.5t7.5 0.5q8 2 12 2q5 2 11 3.5t11 -0.5q5 -1 5.5 -5.5t-1.5 -9.5q-3 -8 -8.5 -14.5t-11.5 -11.5q-18 -16 -35 -24q-13 -5 -23 -8
q-4 -2 -8 -3t-9 -3q-4 0 -6 -1q-3 0 -6.5 -0.5t-6.5 -0.5q-33 -2 -66.5 0.5t-66.5 7.5q-8 1 -16.5 2t-16.5 2q1 -15 1 -30t-2 -31q57 10 114 3t109 -30q60 -26 109 -69.5t75 -103.5zM-93 115v1v-1zM-93 116q1 2 1 3t1 3q-1 -2 -1 -3t-1 -3z" />
    <glyph glyph-name="six" unicode="6" horiz-adv-x="580" 
d="M517 408q10 -31 14 -63.5t0 -64.5q-8 -72 -45 -136t-91 -112q-27 -23 -59 -44t-66.5 -33t-71 -13t-71.5 15q-28 12 -52 32t-40 46q-21 33 -31 76q-10 45 -8 90t10 90q20 106 63 201q22 49 49 94t60 87q34 42 76 76q20 16 42.5 29.5t46.5 21.5q17 6 35 8.5t35 -2.5
q15 -4 28 -13t24 -20q4 -4 0.5 -10.5t-5.5 -9.5q-10 -16 -27 -28q-8 -6 -16.5 -11t-18.5 -8q-5 -2 -11 -3t-10 4q-10 9 -20 17q-16 9 -34 11q-5 0 -8.5 -0.5t-8.5 -1.5q-1 0 -2 -0.5t-3 -0.5q-1 0 -2 -1q-4 -2 -6 -2v-1q-1 -1 -2 -1t-2 -1t-2 -1.5t-3 -2.5l-1 -1
q-3 -2 -8 -7q-2 -2 -3 -2.5t-2 -2.5q-4 -4 -7 -7.5t-6 -6.5q-4 -5 -7.5 -8.5t-6.5 -8.5q-3 -3 -7 -9q-13 -18 -24.5 -36.5t-22.5 -38.5q-3 -5 -6 -10.5t-6 -11.5q-46 -92 -70 -189v-1q17 18 35.5 33.5t38.5 29.5q27 19 55.5 34.5t60.5 26.5q24 8 48.5 11t49.5 1
q42 -5 75 -33q17 -15 28.5 -35t18.5 -42zM350 46q2 2 4 3.5t-5 -3.5h1zM431 191q15 74 -4 146q-8 26 -23 49.5t-38 39.5q-28 16 -58 17q-11 0 -21 -1t-20 -3t-15 -4q-6 -2 -10 -3l-4 -2t-14 -6l-6 -3q-1 -1 -2 -1q-4 -2 -7.5 -5t-8.5 -5q-2 -2 -3 -2q-3 -3 -9 -7
q-2 -1 -4 -3q-1 -2 -2 -2.5t-2 -1.5q-4 -3 -7 -6l-6 -6l-6 -6q-2 -2 -3.5 -4.5t-3.5 -4.5t-4 -4.5t-4 -4.5l-1 -2q-8 -10 -14.5 -20.5t-13.5 -21.5q2 2 2 3q-5 -8 -12 -16t-15 -14q-3 -33 -1 -65.5t11 -64.5q8 -29 24 -53q24 -37 63 -62q17 -10 35.5 -16t38.5 -8q19 0 36 3
q5 2 9.5 3t9.5 3l4 2q3 1 7 3q2 1 3.5 2t3.5 2l2 2l9 6q2 2 5 4.5t5 5.5q1 0 2 1q5 5 8.5 10t8.5 10q1 2 2 2.5t2 2.5q2 3 4.5 6.5t4.5 6.5l12 21q19 36 30 77z" />
    <glyph glyph-name="seven" unicode="7" horiz-adv-x="486" 
d="M470 744q5 0 9.5 -1.5t4.5 -7.5q-1 -8 -6 -16q-14 -22 -28 -43.5t-28 -43.5q-35 -55 -69.5 -109.5t-66.5 -111.5q14 -2 29 -2.5t30 -1.5q3 0 6 -0.5t6 -0.5q5 0 9.5 -1t3.5 -7q0 -7 -4 -13.5t-9 -11.5q-7 -8 -15.5 -14.5t-17.5 -12.5q-6 -4 -14.5 -8t-16.5 -4
q-12 -1 -24 -0.5t-23 1.5q-18 -38 -33 -76.5t-26 -78.5q-3 -14 -5 -27t-3 -27q-1 -7 -1 -13.5v-13.5q-1 -7 0 -14t-1 -14q0 2 1 3q0 -8 1 -12q-2 -9 -6 -15q-2 -2 -4 -5t-4 -5q-14 -15 -33 -27q-7 -5 -15 -8.5t-16 -4.5q-13 -2 -14 9q0 2 -0.5 4t-0.5 4q-2 2 -2 6.5t-1 6.5
q0 8 -1 11v12t1 12q2 27 7 49q5 29 13.5 56.5t19.5 54.5q12 31 26 60t29 58q-8 1 -17 1.5t-18 1.5q-15 1 -29.5 0.5t-28.5 -2.5q-5 0 -9.5 1.5t-4.5 7.5q0 7 4.5 13t8.5 11q14 15 33 28q17 10 32 13q34 4 72 1q10 17 19 32.5t20 31.5q29 48 59.5 94t61.5 94h-35h-200h-100
h-25t-25 1h-26q-7 0 -14.5 -0.5t-14.5 0.5q-4 1 -5 4q-1 1 -1 5q0 5 2.5 9t5.5 8q2 5 5.5 8t6.5 7q3 2 5.5 4.5t5.5 4.5l3 3q1 0 3 2h1l6 4l6 4q8 4 13 6l1 1h1l1 1l12 3q8 1 15 0.5t14 -0.5h28q100 1 200 0.5t200 0.5z" />
    <glyph glyph-name="eight" unicode="8" horiz-adv-x="549" 
d="M466 553q-10 -12 -21.5 -23t-23.5 -22q-21 -17 -41 -32q13 -7 24.5 -15.5t20.5 -19.5q23 -27 37 -60t20 -68q6 -41 1 -81.5t-20 -78t-38.5 -71.5t-52.5 -62q-16 -14 -32.5 -27.5t-35.5 -25.5q-14 -9 -30 -17t-33 -13q-21 -6 -43.5 -7t-42.5 9q-39 19 -58 58t-25 79
q-8 50 -2 98q4 27 11 53t18 51q28 63 78 111q12 11 26 21t28 19q1 1 2 1.5t2 1.5q-15 6 -30.5 12t-31.5 12q-26 11 -52 21t-50 24q-11 5 -21 11.5t-19 14.5q-13 13 -17 26l1 -2q-1 1 -1 3q0 1 -0.5 1.5t-0.5 1.5q0 -2 1 -2q-3 9 -4 17.5t1 18.5q2 5 3.5 11t4.5 11
q9 16 20 30q12 15 27 27t31 23q21 14 46 25q59 25 117 32q22 3 46 3q10 -1 20 -1.5t20 -2.5q8 -2 7 -8.5t-6 -14.5q4 0 7.5 -0.5t8.5 -1.5q27 -5 54.5 -13t50.5 -25q20 -13 27 -33q2 -5 4 -11t2 -12t-1 -12t-3 -12q-4 -15 -12.5 -28t-18.5 -25zM123 659q6 2 4.5 2t-3.5 -1
q-1 0 -1 -1zM139 581q23 -14 47.5 -24t50.5 -21q26 -10 51 -19.5t51 -20.5q2 2 4 2.5t4 2.5l2 2q3 2 5.5 3.5t5.5 3.5q5 4 9.5 7.5t9.5 7.5l3 3q3 2 9 8l1 1l6 6q0 1 2 3q1 2 1.5 2.5t1.5 2.5t2 5l2 6q1 10 0 21q-5 12 -13 21t-19 17q-20 11 -42.5 17.5t-45.5 11.5t-45.5 7
t-45.5 3q-6 0 -12.5 0.5t-12.5 0.5q-5 0 -9 1t-4 7v1q-7 -2 -13.5 -4t-13.5 -4q-6 -2 -10 -3v-1l-15 -6q-1 -2 -1.5 -4t-1.5 -4q-2 -16 2 -27q4 -12 13.5 -20.5t20.5 -15.5zM385 149q15 67 -3 136q-11 38 -34 72q-5 8 -11 15.5t-13 13.5l-8 6l-8 6q-7 4 -13 7.5t-14 6.5
q-6 -4 -12.5 -7.5t-12.5 -8.5q-5 -3 -10.5 -6t-10.5 -7q-2 -1 -3.5 -2t-3.5 -2q-1 -1 -1.5 -1t-1.5 -1q-2 -2 -4 -4.5t-4 -4.5q0 -1 -0.5 -1t-0.5 -1q-2 -2 -3.5 -5t-3.5 -5l-12 -18q-9 -17 -15.5 -35t-11.5 -37q-9 -40 -9 -81t11 -81q8 -25 21.5 -48.5t36.5 -38.5
q16 -11 36 -12q5 0 9 0.5t9 1.5q4 1 10 3l6 3q2 1 2.5 1.5t2.5 1.5l1 1q3 1 7 5q1 0 1 1q3 2 9 8l2 2q2 2 4.5 5t4.5 5l3 3v1q2 3 4.5 6t4.5 7q4 5 7 10l6 10q17 35 26 69z" />
    <glyph glyph-name="nine" unicode="9" horiz-adv-x="577" 
d="M513 734q2 1 6.5 1.5t8.5 0.5t6.5 -2t2.5 -7q-2 -21 -9 -41t-16 -39q-10 -19 -21 -37.5t-24 -35.5q-2 -6 -3 -11.5t-2 -10.5q-8 -35 -13.5 -69.5t-9.5 -69.5q-7 -66 -8.5 -131.5t0.5 -131.5q2 -60 6 -118q2 -25 4.5 -49t6.5 -48q-1 -8 -6 -16q-4 -4 -7 -10
q-8 -8 -16.5 -15t-17.5 -12q-8 -5 -16 -8.5t-16 -4.5q-13 -2 -14 8q-2 12 -4 23.5t-4 22.5q-2 13 -3 26l-2 26q-6 63 -7.5 124.5t0.5 124.5q2 59 7 117t16 115q-23 -20 -46 -37.5t-49 -32.5q-24 -14 -49.5 -26t-53.5 -18q-21 -5 -43.5 -6.5t-42.5 7.5q-39 15 -56 54
q-11 24 -16 51t0 54q5 30 18.5 56.5t33.5 49.5q47 52 109 83t129 45q48 11 98 12.5t99 -6.5q5 -2 5.5 -6.5t-1.5 -8.5q0 -1 -0.5 -1.5t-0.5 -1.5q5 3 10.5 5.5t10.5 4.5zM344 499q6 6 8 9q5 5 9 10t9 10q2 2 3.5 4.5t3.5 4.5q5 15 9.5 30t10.5 29t12.5 27t13.5 26q3 5 6 9.5
t7 9.5q2 4 8 12q0 -1 -0.5 -1.5t-0.5 -1.5q0 1 0.5 1.5t0.5 1.5q-3 -3 -7 -4q-6 -3 -12.5 -5t-14.5 -1q-8 2 -13 2q-6 0 -12 1t-12 1h7h-10q-73 3 -142 -12q-5 -2 -11 -3t-11 -3q-11 -3 -25 -8q-8 -2 -12 -4q-1 0 -1 -0.5t-1 -0.5q-6 -2 -11.5 -5t-10.5 -5q-1 -1 -2 -1
q-6 -4 -10 -6q-1 -2 -5 -4l-1 -1l-4 -4q-1 -1 -1.5 -2t-2.5 -2q0 -1 -0.5 -1t-0.5 -1q-2 -3 -4.5 -6t-4.5 -7q-4 -7 -6.5 -14.5t-4.5 -15.5q-9 -39 2 -79q6 -20 16.5 -37.5t27.5 -28.5q18 -11 39 -12q15 0 30 3q8 2 12 4q4 0 9 3h2q7 3 14 7q4 1 8 4q4 2 8 4.5t8 4.5
q6 4 7 5q5 3 8.5 6t8.5 6q3 3 9 7l1 1q9 8 17.5 16t17.5 16z" />
    <glyph glyph-name="colon" unicode=":" horiz-adv-x="197" 
d="M150 526q5 -2 5.5 -6.5t-1.5 -8.5v-2q-2 -5 -3 -9t-3 -8l-2 -8l-2 -8q-7 -28 -8 -51v-13.5t1 -13.5l3 -24q1 -7 -4 -13.5t-9 -11.5q-7 -8 -15.5 -14.5t-17.5 -12.5q-7 -4 -15 -7.5t-16 -4.5q-6 -1 -12 3q-2 5 -3.5 11t-2.5 11t-1.5 10t-0.5 10q0 22 4 41q3 20 9 44l4 12
t5 12q0 1 0.5 1t0.5 1t0.5 1.5t0.5 1.5q9 17 24 30t32 21q6 2 13 5t14 1zM143 65q2 -5 3 -9.5t2 -9.5q0 -9 -6 -15q-3 -6 -7 -10q-7 -8 -15.5 -14.5t-17.5 -12.5q-7 -4 -15 -7.5t-16 -4.5q-8 -2 -12 3q-8 15 -13 36q-2 8 -3.5 16t-1.5 16q-2 17 0.5 33t10.5 31q8 17 23 30
t32 21l12.5 5t14.5 1q5 -2 5.5 -6.5t-1.5 -8.5l-2 -6l-2 -6q-3 -18 -1 -36.5t7 -36.5q2 -4 2.5 -7.5t2.5 -7.5q-1 2 -1 3t-1 3z" />
    <glyph glyph-name="semicolon" unicode=";" horiz-adv-x="231" 
d="M185 518q-2 -3 -4.5 -6t-4.5 -7q-9 -19 -15 -41q-2 -11 -3.5 -21.5t-3.5 -21.5q-1 -12 -1 -24t-1 -23q-1 -8 -5 -14t-9 -11q-14 -15 -33 -27q-3 -2 -10 -5.5t-14.5 -5.5t-13.5 -1.5t-7 8.5q-1 11 -0.5 22t1.5 22q2 11 3.5 22.5t3.5 22.5q3 12 6.5 24t8.5 23q6 14 14 25.5
t17 23.5q7 8 15.5 14.5t16.5 11.5t16 8.5t16 4.5q5 1 9 -1t4 -7q-1 -8 -6 -16zM166 163q3 -9 3 -18t-2 -19q-4 -29 -11.5 -58t-18.5 -58q-11 -31 -25.5 -61.5t-37.5 -55.5q-14 -15 -33 -27q-7 -5 -15 -8t-16 -4q-5 -1 -9.5 0.5t-4.5 7.5q1 6 4 11t7 10l1 1q1 2 2 3.5t2 3.5
q2 2 3.5 5t3.5 5q17 33 29 68.5t21 71.5q2 9 3.5 18t3.5 18q0 5 1 10.5t0 10.5q-2 6 1 11l2 4l2 4q12 17 28 28q8 6 16.5 11t18.5 8q2 1 10.5 2.5t10.5 -3.5z" />
    <glyph glyph-name="less" unicode="&#x3c;" horiz-adv-x="490" 
d="M467 126q5 -1 5.5 -6t-1.5 -9q-3 -8 -9 -15t-12 -12q-15 -15 -35 -24q-7 -3 -13.5 -5.5t-14.5 -0.5q-6 0 -9 1q-37 5 -71 20.5t-65 35.5q-31 19 -60 39.5t-60 40.5q-23 14 -46.5 26t-49.5 20q-6 2 -6.5 6.5t2 9.5t6.5 10t6 7q18 23 46 35q3 2 6.5 3.5t7.5 3.5
q2 1 2.5 1.5t2.5 1.5q4 2 7.5 4.5t6.5 4.5l6 3l24 18q4 4 6 5q2 2 4.5 4t4.5 4q29 26 55.5 53t54.5 53q45 46 99 88q3 3 6.5 5.5t6.5 5.5q5 3 9.5 6t9.5 6q1 0 1 0.5t1 0.5l2 2v-1q4 3 12 7q2 1 7.5 3t11.5 3t10.5 -0.5t4.5 -7.5q-1 -7 -5 -13.5t-9 -11.5q-8 -10 -20 -18
q-2 -1 -5 -4q-9 -14 -22.5 -24.5t-28.5 -18.5q-1 0 -5 -2q-8 -8 -16.5 -16t-16.5 -16q-27 -26 -53.5 -53t-55.5 -53q-16 -15 -33 -28.5t-34 -26.5q48 -21 90.5 -52t87.5 -59q34 -20 69.5 -36t74.5 -24z" />
    <glyph glyph-name="equal" unicode="=" horiz-adv-x="511" 
d="M455 513q5 -1 9.5 -2t4.5 -7q-1 -7 -5 -13.5t-9 -11.5q-14 -15 -33 -27q-6 -4 -14.5 -8.5t-16.5 -4.5h-24q-42 0 -83.5 -1t-83.5 -3q-20 -1 -40 -2.5t-40 -4.5l-18 -2t-18 -3l-18 -3q-3 -1 -6.5 -2t-7.5 -1q-5 -1 -9 -1t-7 4q-3 5 0 10.5t5 9.5q5 8 12 14.5t15 12.5
q8 5 16 10.5t17 7.5q1 0 1 1q4 1 7 2t7 2q5 2 10 2.5t10 2.5q38 8 77 11t78 5q42 2 82 2h82zM455 393q5 -1 9.5 -2t4.5 -7q-1 -7 -5 -13.5t-9 -11.5q-14 -15 -33 -27q-6 -4 -14.5 -8.5t-16.5 -4.5h-24q-42 0 -83.5 -1t-83.5 -3q-20 -1 -40 -2.5t-40 -4.5l-18 -2t-18 -3
l-18 -3q-3 -1 -6.5 -2t-7.5 -1q-5 -1 -9 -1t-7 4q-3 5 0 10.5t5 9.5q5 8 12 14.5t15 12.5q8 5 16 10.5t17 7.5q1 0 1 1q4 1 7 2t7 2q5 2 10 2.5t10 2.5q38 8 77 11t78 5q42 2 82 2h82z" />
    <glyph glyph-name="greater" unicode="&#x3e;" horiz-adv-x="509" 
d="M468 333q4 -8 -1.5 -16.5t-10.5 -14.5q-8 -8 -16 -14.5t-18 -12.5q-4 -4 -10 -7l-1 -1q-5 -4 -10 -7t-10 -7l-42 -30q-38 -26 -75 -52t-76 -49q-42 -25 -85 -46.5t-89 -35.5q-5 -1 -11.5 -2t-9.5 4q-4 5 -1 11t5 9q11 17 28 29t35 18q6 2 12.5 5t12.5 5q1 0 1.5 0.5
t1.5 0.5q3 1 5.5 2t4.5 2l45 21q5 2 9 4.5t9 5.5q3 1 9 5l36 21q9 6 18 11.5t17 11.5q5 3 8.5 5.5t8.5 5.5q2 2 3.5 2.5t3.5 2.5l46 32t46 33q-6 11 -13 20.5t-15 19.5q-17 23 -37 44.5t-41 41.5q-22 20 -44.5 38.5t-47.5 34.5q-19 11 -39 20.5t-42 11.5h-4q-2 0 -3 -0.5
t-3 -0.5q-5 -2 -11 -4t-11 0t-5.5 6.5t1.5 8.5q3 8 8.5 15t11.5 12q8 7 16.5 13t18.5 11l15 6q2 1 3.5 1.5t-0.5 -0.5h2q5 2 9 2.5t9 1.5q24 3 47 -4.5t44 -18.5q51 -28 98 -70q22 -20 42.5 -41.5t40.5 -44.5q14 -17 27.5 -36t23.5 -40z" />
    <glyph glyph-name="question" unicode="?" horiz-adv-x="458" 
d="M459 677q4 -26 -2.5 -52t-20.5 -49q-19 -32 -47 -57t-59 -45q-27 -18 -56.5 -32t-60.5 -25q-8 -2 -17 -5t-17 -5q6 -5 11.5 -11t10.5 -12q23 -28 41 -60t26 -67q-2 -9 -7 -16q-2 -2 -3.5 -4.5t-3.5 -5.5q-8 -8 -16 -15t-18 -12q-7 -5 -15.5 -8.5t-16.5 -4.5q-8 -2 -12 3
q-20 59 -58 108t-90 83q-6 3 -12 6.5t-12 6.5q-7 1 -7 9l2 7q3 8 9 15t13 13q18 17 37 26q6 2 13.5 5t14.5 1q10 -2 19 -3t19 -2q48 -2 95 9q9 2 17.5 4.5t17.5 4.5q6 2 12.5 4.5t12.5 4.5q1 0 1 1h2l12 6q8 4 13 6l4 2l15 9l1 1q6 4 7 5l2 2l3 3q2 1 2.5 2t1.5 2t1 1.5
t1 1.5q6 8 8 12q3 6 5.5 12t4.5 12q3 15 2 30t-5 30q-6 23 -19 38q-5 7 -11.5 12.5t-13.5 10.5q-30 18 -65.5 25t-70.5 9q-64 3 -131 -11q-9 -2 -17.5 -4.5t-17.5 -5.5q-2 -1 -4 -1.5t-4 -1.5t-3.5 -1t-3.5 -1v-1q-1 -5 -0.5 -9.5t1.5 -9.5q1 -2 1 -2.5t1 -2.5q4 -10 -5 -21
q-5 -8 -12.5 -15.5t-15.5 -13.5t-17 -11t-19 -8q-2 -1 -10.5 -2.5t-10.5 3.5t-4 11t-2 12q-2 24 12 44.5t30 36.5q23 21 50 36.5t56 26.5q23 8 47.5 13.5t49.5 9.5q24 3 48.5 4.5t49.5 0.5q25 -2 49.5 -4.5t48.5 -9.5q20 -6 38.5 -14.5t34.5 -22.5q17 -14 26 -34.5t13 -42.5
zM-11 698q-2 -2 -3.5 -3t5.5 3v1q0 -1 -2 -1zM278 146q4 0 10 -1.5t4 -7.5q-3 -16 -4.5 -31t-2.5 -31q0 -8 -0.5 -15.5t-0.5 -15.5v-17.5t-3 -17.5q-2 -8 -8.5 -15t-12.5 -12q-11 -11 -24 -18q-7 -5 -15 -8.5t-17 -4.5q-6 -2 -12 3q-2 5 -2 9.5v9.5v15v15.5t1 15.5
q1 15 2.5 30t4.5 30q3 14 14 25q14 17 33 28q8 5 16.5 8.5t16.5 5.5z" />
    <glyph glyph-name="at" unicode="@" horiz-adv-x="651" 
d="M590 538q8 -15 11 -32t1 -34q-3 -24 -12.5 -45t-23.5 -40t-31 -35.5t-35 -30.5q-44 -34 -91 -53q-37 -14 -73 -11h-4l-1 -1q-14 -15 -30 -28.5t-34 -24.5q-16 -10 -32.5 -17t-34.5 -10q-9 -2 -20 -1t-19 6q-19 10 -25 30q-2 7 -3 13.5t-1 14.5q2 15 8 30q8 20 22 37.5
t29 32.5q33 32 71 52q19 11 39 19t42 13q13 2 26.5 2t24.5 -5q6 -2 6 -8v-9l-3 -12q-3 -10 -7 -16q-3 -5 -6 -8.5t-5 -7.5v1q-2 -5 -5 -8q6 -8 13 -12q13 -7 29 -9q6 0 11.5 0.5t10.5 1.5l9 3q2 1 2.5 1t2.5 1q6 2 9 4h1q3 3 5 4l4 2q0 1 0.5 1t0.5 1h1l5 5q6 6 8 9q2 2 4 6
q2 2 3.5 5l2.5 5q4 7 6.5 13.5t4.5 13.5q5 24 -1 45q-7 22 -22 38.5t-34 28.5q-19 11 -40 19.5t-42 14.5q-14 4 -27.5 6.5t-27.5 3.5q-12 1 -24 -0.5t-23 -3.5t-21 -6l-1 -1q-6 -1 -11 -5h-1l-4 -2t-4 -3q-2 -1 -6 -5q-2 -1 -4 -3l-8 -8q-4 -4 -7.5 -8t-6.5 -8
q-2 -2 -2.5 -3t-1.5 -2q-2 -4 -4.5 -7t-4.5 -6l-15 -24q-25 -49 -39 -104q-3 -14 -5.5 -28.5t-3.5 -29.5q-3 -29 -1.5 -57.5t9.5 -55.5q0 -2 0.5 -3t0.5 -3q8 -22 20.5 -41.5t32.5 -32.5q22 -13 50 -15q18 0 38 3q4 2 7.5 2.5t8.5 2.5q2 1 5 1.5t5 2.5q2 0 2.5 0.5t2.5 0.5
q8 4 15 7t15 8q1 0 2 1q6 4 10 5q11 8 20 13q2 1 5 4q4 2 5 3q6 4 11.5 8t10.5 8q6 5 12 9.5t11 9.5q2 1 4 3q1 0 1 1q6 4 9 7q8 7 16.5 13t18.5 11q6 3 13.5 5.5t13.5 0.5q7 -2 6.5 -8t-5 -13t-10 -13.5t-7.5 -7.5q-27 -23 -55 -45t-57 -42q-22 -14 -44 -26.5t-46 -23.5
q-34 -14 -71 -23t-74 0q-24 5 -44 20.5t-33 36.5q-14 23 -21 51t-9 55q-2 33 2 66t12 65q16 68 54 130q21 35 49 66.5t61 56.5q35 26 74 43.5t83 21.5q36 3 74 -5q26 -6 51.5 -15t48.5 -23q18 -11 34 -24.5t27 -32.5zM418 189q-1 0 -1 -0.5t-1 -0.5q-2 -2 -3 -2.5t-2 -2.5
q4 4 7 6zM227 277q5 -14 15 -23q10 -4 15 -4t8 1h1q1 0 1 1q2 2 4 6q2 5 3.5 9t3.5 9q1 4 1 12q-8 12 -12 26.5t-6 28.5q-4 -2 -5 -3q-2 -1 -3.5 -1.5t-3.5 -2.5q-1 -1 -2 -1.5t-2 -1.5t-2 -1.5t-2 -1.5q-1 -2 -2 -2.5t-2 -2.5q-2 -2 -3 -4l-2 -4q-2 -4 -3 -7t-3 -7
q-2 -15 1 -26zM468 346l-3.5 -3.5t3.5 3.5z" />
    <glyph glyph-name="A" unicode="A" horiz-adv-x="598" 
d="M508 223q7 -35 11.5 -70t7.5 -70q3 -33 5 -66.5t0 -65.5q-1 -8 -5 -14.5t-9 -11.5q-8 -8 -16 -15t-18 -12q-3 -2 -10 -6t-15 -6.5t-14 -1.5t-7 9q-2 33 -3 65.5t-4 65.5q-6 69 -17.5 136.5t-30.5 133.5q-1 1 -3 1q-20 4 -41 7.5t-41 5.5q-33 5 -66.5 8t-67.5 5
q-11 -39 -21 -78.5t-21 -79.5q-5 -17 -9 -33.5t-9 -33.5q-2 -6 -3 -12.5t-3 -12.5q-1 -2 -1.5 -5t-1.5 -5q0 -2 -0.5 -2.5t-0.5 -2.5q-1 -1 -1 -2t-1 -2q0 -2 -1 -3q1 -5 -2 -10.5t-7 -11t-8.5 -10l-5.5 -5.5q-20 -20 -46 -29q-5 -2 -11 -2.5t-11 3.5q-1 1 -1 4q-1 1 -1 2
q0 3 1 6t1 6q0 2 0.5 2.5t0.5 2.5q0 -1 -0.5 -2t-0.5 -2q3 13 6 25t7 25l20 76l20 76q8 28 15.5 56t15.5 57l-10 4t-10 6q-4 4 -0.5 11.5t5.5 9.5q8 11 17 19q3 3 6.5 6t7.5 6q1 4 2 7.5t2 8.5q11 43 22 85.5t21 85.5q4 15 7 29.5t6 29.5q2 5 2.5 11t2.5 12q0 2 0.5 4.5
t0.5 4.5q0 3 1 4q0 2 0.5 3.5t0.5 3.5t0.5 2.5t-0.5 2.5q-1 4 0 8q0 2 -1 3v1q0 4 2 8t4 7q12 17 28 28q8 6 16.5 11t18.5 8q9 3 16 2q5 -1 8.5 -4t6.5 -6l9 -9q50 -47 86.5 -105t63.5 -121q14 -33 26 -67.5t23 -69.5q17 -3 33.5 -7t32.5 -10q7 -3 6.5 -9.5t-5 -13
t-10 -12.5t-8.5 -8q-11 -11 -29 -21q4 -16 7 -32zM214 398q35 -2 69.5 -4t69.5 -7q-7 19 -15 37.5t-16 37.5q-14 31 -31 61t-37 59q-5 6 -8.5 11.5t-8.5 11.5q0 -2 -1 -3l1 3q-5 -19 -9 -37t-9 -37q-8 -33 -17 -66t-17 -66q7 0 14 -0.5t15 -0.5z" />
    <glyph glyph-name="B" unicode="B" horiz-adv-x="649" 
d="M579 352q20 -22 27.5 -49.5t2.5 -55.5q-8 -48 -34.5 -90.5t-57.5 -78.5q-26 -30 -55.5 -56.5t-61.5 -49.5q-35 -26 -71.5 -49.5t-75.5 -41.5q-38 -18 -76.5 -31t-80.5 -19q-35 -5 -71 -2.5t-70 15.5q-20 7 -37.5 17.5t-33.5 23.5q-14 11 -26 23t-20 27q-16 28 -15 55
q0 14 4 28t10 27q20 37 49.5 67t63.5 54q8 5 16 10.5t16 10.5q-11 -2 -21 -4.5t-21 -4.5q-17 -2 -34 -2.5t-33 4.5q-6 1 -6 8q2 7 3.5 13.5t3.5 13.5q15 35 43 63q36 39 81 66q17 11 38 21q-3 70 -3 142q-2 40 0 81q-21 -17 -46 -23q-8 -1 -14.5 -2.5t-14.5 -2.5
q-21 -5 -40 -2q-16 3 -33 13l-4 2l-4 2q-3 7 0 13q4 10 12 18q20 23 47 35q23 11 48 19.5t51 15.5q1 5 1 9t1 9q0 7 4 13t9 11q8 8 16 15.5t17 12.5q3 2 10.5 5.5t15 6t13.5 1.5t7 -9q2 -13 4 -25.5t4 -25.5q52 10 104 14.5t105 -0.5q22 -2 43.5 -6.5t41.5 -15.5
q8 -5 16.5 -11t14.5 -14q10 -15 15 -35q5 -18 2 -36.5t-9 -35.5q-9 -24 -23 -45.5t-30 -41.5q-9 -12 -18.5 -22.5t-20.5 -21.5q24 -2 47 -6t46 -10q30 -8 58.5 -22.5t49.5 -37.5zM159 314l4 2l4 2q6 4 12 7t12 7q12 8 23 14q3 3 7 5q-46 -2 -87 -10q0 -3 1 -5q0 -8 0.5 -17
t0.5 -17q5 2 10 5t10 5q1 1 1.5 1t1.5 1zM20 258q5 1 10.5 2t10.5 3l-3 51q-1 0 -5 -2q-12 -4 -25 -12q-4 -2 -5 -3q-3 -2 -5.5 -2.5t-4.5 -2.5q-1 -2 -5 -4l-1 -1l-4 -4q-2 -2 -2.5 -3t-2.5 -3l-2 -2q-2 -2 -2.5 -4t-2.5 -4q-4 -8 -5 -13q2 0 4.5 -0.5t4.5 -0.5q22 0 45 5z
M131 430v-13.5t1 -14.5q5 2 10.5 3t11.5 3q41 10 81.5 15.5t82.5 6.5h1l2 2l3 3q4 5 8 9t8 9q5 5 7 9q5 7 10 14.5t10 15.5q10 18 14 36q2 11 2.5 22.5t-2.5 22.5q-10 27 -32 42q-22 13 -47.5 17.5t-50.5 6.5q-26 1 -51 -0.5t-50 -3.5q0 -2 0.5 -3t0.5 -3q0 -8 -6 -15
q-4 -6 -7 -9q-2 -3 -5 -5.5t-6 -5.5q0 -42 1 -82t3 -82zM4 299l-4 -2l-1 -1l4 2q1 0 1 1zM6 153l-4 -2q-2 -2 -4 -2.5t8 4.5zM511 181q6 29 0 58q-8 22 -22.5 39t-33.5 29q-9 5 -18.5 9.5t-19.5 9.5q-31 11 -62.5 17t-63.5 8q-14 -11 -28.5 -21t-29.5 -20q-44 -31 -95 -57
v-2v-95q1 -25 3 -50t8 -49q2 -3 2.5 -6.5t2.5 -6.5q2 -2 3.5 -5t3.5 -5q0 -2 2 -2q0 -1 2 -1q4 1 8 -1.5t4 -7.5q0 -7 -4.5 -13.5t-8.5 -11.5q-8 -8 -16 -15t-18 -12q-15 -10 -32 -13q-16 -2 -25 6q-5 2 -8 7t-5 10q-2 7 -4 13.5t-4 13.5q-3 14 -4.5 29t-2.5 30
q-2 26 -2 52.5v52.5q-2 -1 -4.5 -2t-4.5 -2q-7 -3 -13.5 -6.5t-13.5 -6.5q-1 -1 -2 -1.5t-2 -1.5q-3 -2 -6.5 -3.5t-6.5 -3.5q-6 -5 -13 -8q0 -1 -1 -1l-12 -9q-2 -2 -3 -2.5t-2 -1.5q-3 -2 -7 -6l-6 -6l-4 -4q-1 -2 -3 -4q-2 -4 -4.5 -7t-4.5 -7q-6 -11 -9 -22
q-3 -21 1 -40q10 -29 32 -50t47 -37q25 -15 52.5 -23t56.5 -10q43 -2 80 7q29 6 52 16q2 1 5.5 2t5.5 2q3 1 7 3l27 12q3 2 6.5 4t7.5 4q1 0 2 1q7 4 13 7.5t13 7.5q5 3 10.5 6.5t10.5 7.5l4 2q8 6 11 9q8 5 14.5 10.5t14.5 10.5v1q2 0 2 2q4 2 7 5t6 5q6 6 12 11.5t12 11.5
l2 2q2 3 4.5 5.5t4.5 5.5q5 5 9 9.5t8 9.5q1 1 1 1.5t1 1.5q2 2 3.5 4.5t3.5 5.5q6 8 11.5 16.5t10.5 16.5q11 22 19 49z" />
    <glyph glyph-name="C" unicode="C" horiz-adv-x="617" 
d="M551 446q6 -21 9.5 -43.5t1.5 -44.5q0 -8 -4 -14t-9 -11q-7 -8 -15.5 -14.5t-17.5 -12.5q-7 -4 -15 -7.5t-16 -4.5q-5 -1 -9.5 1t-3.5 7q1 23 -3 46t-10 45q-20 63 -50 120q-14 26 -30 50.5t-35 47.5q-17 20 -36 38t-42 32q-35 22 -74 25h-12t-12 -2q-3 0 -9 -2
q0 -1 -0.5 -1t-0.5 -1q-7 -8 -13 -19q-11 -20 -18 -41.5t-12 -43.5q-12 -52 -16 -104.5t-2 -105.5q2 -52 8.5 -103.5t20.5 -102.5q5 -17 11 -33t14 -32q4 -6 7.5 -12.5t8.5 -12.5q15 -20 40 -36q30 -18 66 -21q19 0 37 3q7 2 13 4t11 4h2q1 1 1.5 1t1.5 1q10 4 14 6l4 2
q4 2 7.5 4.5t6.5 4.5t5.5 3t5.5 3q1 2 5 4q7 5 13.5 10t13.5 11q1 1 1.5 1t1.5 1q3 3 6 5.5t7 5.5l48 45q15 15 35 25q6 2 13.5 5t14.5 1q6 -2 6.5 -6.5t-1.5 -9.5q-3 -7 -8 -12.5t-10 -10.5q5 5 4 4l-4 -4l-6 -6l-3 -3q-2 -2 -2.5 -3t-2.5 -3t-5 -4.5t-5 -4.5
q-5 -5 -10.5 -10t-10.5 -10q-14 -13 -28 -24.5t-28 -22.5q-36 -29 -75 -51q-21 -11 -42.5 -21t-44.5 -16q-20 -5 -40 -7.5t-41 0.5q-35 4 -68 26q-13 8 -24.5 18t-19.5 23q-11 14 -17 29q-10 21 -17 42.5t-12 43.5q-13 53 -18.5 106.5t-6.5 107.5q0 56 6 111t22 109
q14 49 40 90q17 26 40.5 49t51.5 39q29 16 60 24.5t64 3.5q25 -5 47.5 -16.5t42.5 -26.5q22 -17 40.5 -37.5t35.5 -42.5q17 -24 32 -50t28 -52q25 -51 40 -109z" />
    <glyph glyph-name="D" unicode="D" horiz-adv-x="591" 
d="M524 398q8 -29 10.5 -58t1.5 -58q-1 -32 -6.5 -64.5t-17.5 -62.5q-16 -39 -42 -71.5t-59 -57.5t-71 -43t-78 -27q-37 -8 -74 -10t-73 6q-17 3 -33 8.5t-30 13.5q-8 5 -15.5 10t-14.5 10q-7 6 -11.5 12t-9.5 12q-4 5 -1 11.5t5 9.5q12 17 28 28q1 1 2 1.5t2 1.5
q-3 17 -5.5 33t-4.5 33q-7 51 -12 101t-10 101q-5 52 -8 104t-4 105q-1 20 -1 40t2 40q0 15 3 30q2 16 6 28v-1q2 6 4.5 11t6.5 10q-2 -1 -4.5 -1t-4.5 -1l-12 -3q-6 -2 -8 -3h-1q-3 -2 -5.5 -3t-5.5 -3q-4 -2 -5 -2h13q5 0 9.5 -1.5t4.5 -7.5q0 -7 -4.5 -13.5t-9.5 -11.5
q-14 -15 -33 -27q-6 -4 -14.5 -8.5t-16.5 -4.5h-49q-5 0 -9.5 1t-3.5 8q0 7 4.5 13t8.5 11q15 19 32.5 35.5t36.5 31.5q17 13 35.5 24.5t38.5 19.5q34 15 68 21q27 4 57 1q26 -2 51.5 -9.5t49.5 -18.5q54 -26 99.5 -65t82.5 -86q36 -45 63.5 -96t41.5 -108zM431 148
q12 53 9 107q-2 50 -13 94q-12 39 -30 75.5t-41 70.5q-33 48 -74 90t-91 74q-50 31 -103 43q-1 -3 -1 -10q-1 -13 -1 -25.5v-25.5q0 -51 2.5 -100t7.5 -99q7 -105 21 -210q2 -21 5 -42t6 -41q2 -8 3 -16t3 -16q1 -3 1 -6t1 -6q1 -2 1 -6q1 -2 1 -5v-2q3 -5 0 -11
q-2 -2 -3 -4l-2 -4q-6 -9 -12 -15q3 -3 5 -4q26 -15 54 -22.5t57 -9.5q37 -2 75 6q12 3 23.5 6.5t23.5 7.5v1q4 2 6 2q2 2 4.5 2.5t4.5 2.5q1 0 1.5 0.5t1.5 0.5q2 2 4 3q2 2 4 3q1 1 2 1.5t2 2.5l3 3q1 2 2.5 3.5l3.5 3.5q1 1 1 2t1 2q3 4 5.5 7.5t4.5 7.5q13 26 21 58z
" />
    <glyph glyph-name="E" unicode="E" horiz-adv-x="696" 
d="M650 124q4 -5 1 -11l-5 -10q-12 -17 -29 -29q-8 -6 -17 -11.5t-19 -7.5q-2 -1 -4 -1.5t-4 -1.5q-6 -2 -11 -5t-10 -5q-14 -7 -28 -13.5t-28 -14.5q-50 -26 -99.5 -50.5t-101.5 -44.5q-26 -10 -51.5 -18t-52.5 -13q-21 -5 -43 -6t-43 4q-17 5 -32 15.5t-23 26.5
q-10 19 -10 38.5t7 38.5q8 24 23 45t32 39q22 24 46 45t50 40q45 34 92 63t96 56q-33 -5 -66 -8t-66 -5q-32 -1 -63.5 -0.5t-62.5 5.5q-25 3 -49 10.5t-44 21.5q-22 15 -30.5 37t-8.5 46.5t6 49t15 45.5q13 29 29 55.5t35 52.5q21 28 44 53.5t49 48.5q28 25 61 47q8 5 15 9
t15 8q6 4 9 5t7.5 3t7.5 3.5t2.5 1t-8.5 -3.5q19 8 39 13t41 5q17 -1 33.5 -4t33.5 -10q32 -13 59.5 -34.5t50.5 -47.5q11 -14 21 -27.5t18 -28.5l15 -30l6 -15q2 -5 3.5 -9.5t1.5 -9.5v1q2 -6 3 -11.5t2 -11.5q0 -9 -6 -16l-7 -9q-7 -8 -15.5 -14.5t-17.5 -12.5
q-7 -4 -15 -7.5t-16 -4.5q-8 -2 -12 3q0 2 -0.5 2.5t-0.5 2.5l-3 12q-8 26 -21 50.5t-30 46.5q-36 48 -84 80q-20 12 -41.5 19.5t-44.5 9.5h-15t-14 -2q-6 -2 -8 -3q-2 0 -2.5 -0.5t-2.5 -0.5l-2 -1h-1l-6 -3q-1 -1 -2 -1q-1 -1 -5 -3q-3 -2 -6 -5t-6 -5q-2 -2 -3 -2
q-6 -6 -10 -9l-10 -10l-1 -1q-5 -5 -9.5 -10t-9.5 -10t-9 -10.5t-8 -11.5q-2 -1 -2.5 -2t-2.5 -3q-2 -4 -8 -12q-8 -11 -15 -22.5t-14 -23.5q-21 -36 -29 -73q-8 -34 -1 -64q9 -29 36 -47q12 -8 25.5 -12.5t27.5 -7.5q17 -4 34.5 -5.5t34.5 -3.5q25 -1 49 -0.5t48 2.5
q55 5 108.5 12.5t106.5 19.5h1q5 1 11.5 2.5t10.5 -3.5q3 -7 0 -13q-6 -15 -19.5 -27t-27.5 -20q-13 -8 -27 -15.5t-28 -15.5q-16 -9 -31.5 -17.5t-30.5 -16.5l-12 -6q-13 -6 -22 -13q-13 -6 -25 -13l-24 -14l-24 -14t-24 -15q-6 -4 -12 -7.5t-12 -8.5q-7 -4 -13 -8
q-1 0 -3 -2q-11 -7 -20.5 -14t-20.5 -15q-2 -2 -5 -4.5t-5 -4.5q-1 0 -1 -1q-5 -4 -9 -7t-8 -7l-9 -9l-7.5 -7.5t-6.5 -8.5q-2 -2 -2 -3q-2 -1 -4 -5l-4 -6l-4 -6q-2 -5 -4.5 -10.5t-4.5 -11.5q-3 -18 1 -34q8 -24 28 -38q10 -5 20.5 -7.5t21.5 -4.5q14 0 27 2t27 4
q7 2 13.5 4t14.5 4l24 8t24 9q2 0 2.5 0.5t1.5 0.5q3 2 5.5 2.5t5.5 2.5q6 2 12 5t13 6q25 11 49 22.5t48 23.5q42 22 83 43q19 9 38.5 17.5t39.5 13.5l-9 -2h2q4 2 11 3t10 -4zM576 53h1q2 2 3.5 2t-4.5 -2z" />
    <glyph glyph-name="F" unicode="F" horiz-adv-x="572" 
d="M649 667q4 -5 1 -10.5t-5 -9.5q-11 -16 -28 -29q-8 -5 -17 -10.5t-18 -8.5q-5 -2 -11 -2.5t-10 4.5q-22 22 -48 38q-11 8 -23.5 14t-25.5 11q-57 23 -116.5 33t-119.5 13q-32 2 -64 1.5t-64 -3.5q-5 -32 -5.5 -65.5t0.5 -66.5q1 -35 2.5 -69.5t4.5 -69.5q2 2 3.5 2.5
t3.5 2.5q7 4 15.5 8t16.5 5h1h40.5t40.5 -1q31 0 61 -3q11 0 20.5 -1.5t19.5 -3.5q8 -2 7 -8t-5.5 -13t-10 -13t-7.5 -8q-18 -16 -35 -24q-16 -7 -27 -6q-9 1 -17.5 1.5t-16.5 1.5q4 0 7 -1q-8 1 -14.5 1t-14.5 1q-15 1 -30 1t-31 1h-22q0 -3 0.5 -6.5t0.5 -7.5
q5 -53 12 -105t16 -104q6 -38 13 -76t18 -76q2 -8 4 -12q5 2 12 4.5t14 0.5q6 -2 6 -6.5t-2.5 -9.5t-6 -10t-5.5 -7l-4 -4q6 8 5.5 7t-7.5 -10l-14 -14q-2 -1 -2.5 -2t-2.5 -3l5 5l-2 -2q-11 -11 -22 -20t-25 -15q-8 -5 -21 -7q-6 -2 -12 3q-4 7 -5 13q-5 14 -9 29l-8 30
q-5 19 -9 38t-7 39q-18 102 -30 200q-6 54 -10.5 107.5t-6.5 107.5q-2 45 -2 88.5t6 87.5q2 14 4 27t7 26q-3 0 -5 -1q-7 -2 -14 -3.5t-14 -3.5q-5 -2 -10.5 -3t-11.5 1q-6 1 -6.5 5.5t1.5 9.5q3 8 9 15t12 13q15 14 36 25q4 2 9.5 3.5t10.5 3.5q6 2 12.5 2.5t12.5 2.5l12 3
q11 8 26 15q6 3 13.5 5.5t14.5 0.5q4 -1 5 -4t0 -6q39 5 76 6q65 3 129 -2t127 -19q59 -12 108 -37q23 -11 44 -25.5t35 -35.5z" />
    <glyph glyph-name="G" unicode="G" horiz-adv-x="599" 
d="M628 459q1 -11 0.5 -22t-2.5 -22q-6 -36 -18 -69.5t-29 -65.5q-16 -80 -24.5 -160.5t-17.5 -161.5q-7 -57 -14.5 -112t-18.5 -110q-5 -23 -10 -45.5t-13 -45.5q-3 -9 -6.5 -18t-7.5 -18q-12 -27 -26 -53.5t-29 -52.5q-16 -27 -34 -53.5t-39 -49.5q-13 -14 -26.5 -27
t-28.5 -24q-17 -12 -36 -22t-41 -13q-24 -3 -41 11q-4 3 -7 6.5t-6 7.5q-3 5 -6.5 11.5t-5.5 13.5q-5 15 -8.5 30.5t-6.5 30.5q-1 6 4.5 13.5t9.5 11.5q8 8 16 15.5t17 12.5q3 2 10.5 6t15 6t13.5 1t8 -8q1 -8 3 -16l4 -16q5 -15 12 -31t21 -26l9 -3q4 4 10 12q2 1 2.5 2
t1.5 2q2 2 3 3.5t2 2.5l30 45q4 6 7.5 12.5t7.5 13.5q2 3 3.5 6.5t3.5 6.5q1 2 1.5 2.5t1.5 2.5q7 12 13 24t12 25q5 10 9 19.5t8 20.5q5 14 8.5 28t7.5 28q18 79 28 158.5t19 160.5q5 39 9 78t10 78q-4 -4 -7 -6q-36 -37 -77 -69.5t-89 -53.5q-36 -17 -75.5 -23.5
t-78.5 2.5q-29 7 -54 24.5t-42 42.5q-17 27 -26.5 58t-14.5 63q-5 33 -5 66.5t4 67.5q8 65 30 123q14 38 35 73.5t46 67.5q35 45 74.5 83.5t87.5 70.5q40 27 87 46t95 18q12 0 24 -1t23 -3q9 -2 18 -5t19 -6q16 -4 29 -12t18 -25q-1 2 -1 2.5t-1 2.5q3 -8 4.5 -16t3.5 -16
q1 -6 -4.5 -12.5t-8.5 -11.5q-16 -16 -33 -26q-3 -2 -10 -6t-14 -6t-13 -1t-7 9q-1 3 -1 6t-2 6q-5 16 -16 26q-8 5 -17.5 7t-18.5 4q-7 2 -13.5 3.5t-13.5 3.5l-24 3q-13 0 -25 -1t-24 -3q-1 -1 -2 -1t-2 -1q-2 0 -3 -0.5t-3 -0.5q-4 -2 -7.5 -2.5t-7.5 -2.5q-1 0 -5 -2
q-6 -1 -11 -5q-3 -2 -5.5 -2.5t-5.5 -2.5l-6 -3q-3 -2 -6 -4.5t-7 -4.5q-11 -7 -19 -14q-2 -2 -4 -3.5t-4 -3.5t-5 -4.5t-5 -4.5l-9 -9l-1 -1q-3 -3 -6 -6.5t-7 -6.5q-6 -8 -12.5 -15t-12.5 -15q-1 -2 -4 -5l-6 -9q-6 -7 -11 -16q-13 -19 -22 -35q-1 -2 -2 -3.5t-2 -3.5
q-1 -1 -1 -1.5t-1 -1.5q-2 -4 -4 -7.5t-4 -8.5q-3 -8 -6.5 -15.5t-6.5 -15.5q-5 -13 -9 -26t-7 -26q-14 -58 -15 -119t15 -118q10 -32 27 -60.5t46 -47.5q31 -18 69 -21q25 0 44 4h1h2q4 2 12 4q2 1 4 1.5t4 1.5q1 0 2 0.5t2 0.5q8 4 11 6q1 0 2 1q5 2 8.5 5t8.5 5
q1 1 2 1.5t2 1.5q3 2 5.5 4.5t5.5 4.5q2 1 4 3t3.5 3t3.5 2l15 15q2 2 3 2.5t3 2.5q8 8 14.5 16t13.5 16q2 2 4 4.5t4 4.5l2 4q3 3 5.5 6t4.5 6l24 36q3 5 5.5 9t5.5 9q2 2 2.5 4.5t2.5 4.5q9 45 21 89t29 87q3 8 9.5 15.5t12.5 12.5q8 8 17 14t20 11q3 1 8.5 3.5t11 3.5
t10 -1t4.5 -8zM275 -609q2 0 4 1t-4 -1z" />
    <glyph glyph-name="H" unicode="H" horiz-adv-x="515" 
d="M462 740q1 -5 1 -10v-10v-18q0 -10 -0.5 -19t-0.5 -19q-1 -21 -1.5 -42.5t-2.5 -42.5q-3 -75 -7 -149t-7 -149q-2 -37 -3 -74t-1 -75q-1 -34 -0.5 -67t-0.5 -67q0 -7 -4.5 -13.5t-9.5 -11.5q-14 -15 -33 -27q-3 -2 -10 -5.5t-14.5 -6t-13.5 -1.5t-7 9q-3 42 -3 86
q0 23 0.5 47t1.5 47q3 113 9 230q-15 -13 -30 -20q-7 -3 -13.5 -5.5t-14.5 -0.5q-37 7 -74.5 12.5t-75.5 7.5q-14 1 -27 0.5t-27 -2.5q-2 -64 3 -127q2 -22 4.5 -43.5t6.5 -43.5q4 -21 9.5 -42t10.5 -42q-2 -9 -6 -15q-4 -4 -7 -10q-8 -8 -16 -15t-18 -12q-7 -5 -15 -8.5
t-17 -4.5q-6 -2 -12 3q-11 27 -17 56t-11 58q-5 28 -7 56t-3 57q-2 45 -0.5 89.5t4.5 89.5q1 23 2 44.5t3 43.5q1 16 2 31t1 31v41t1 42l3 45q1 5 1 8.5t1 8.5q2 8 4 14q1 6 5 11q2 4 4.5 7.5t5.5 6.5q8 8 16 15t17 12q8 5 16 9t17 4q12 1 16 -9t-5 -20q-1 -3 -4 -6
q-1 -5 -1 -10.5v-10.5q-1 -14 -1.5 -28.5t-0.5 -28.5q-1 -20 -0.5 -40.5t-1.5 -40.5q-2 -42 -4.5 -84.5t-4.5 -85.5q15 7 30 12q32 10 66 9.5t68 -3.5q25 -2 50 -5.5t50 -9.5v11t1 11q2 35 3.5 70t3.5 70q1 15 1.5 30.5t1.5 30.5v14.5t1 14.5v16t2 16q0 -2 -0.5 -3.5
t-0.5 -3.5v8q0 4 0.5 7t0.5 7q0 7 4 13.5t9 11.5q13 14 32 27q3 1 10 4.5t15 6t14 1.5t6 -8v-13q1 -3 1 -9l-1 4v0z" />
    <glyph glyph-name="I" unicode="I" horiz-adv-x="428" 
d="M371 55q6 -2 6 -7t-2 -9q-3 -8 -9 -15t-12 -12q-15 -15 -35 -24q-15 -8 -28 -7q-20 3 -38 3q-30 1 -58 0q-14 -10 -31 -16q14 5 10 3t-12 -4q-6 -2 -13.5 -3t-12.5 2q-8 5 -12 10q-14 -2 -28.5 -4.5t-28.5 -4.5q-16 -3 -32 -5.5t-33 -4.5q-5 -1 -9.5 1t-4.5 7q2 9 7 16
q5 9 11.5 17.5t13.5 16.5q8 8 16 16.5t16 16.5t17 13.5t18 10.5q4 2 8 3.5t9 2.5q-2 51 0 102q1 50 3.5 98.5t5.5 98.5q3 47 6 92.5t7 92.5q1 18 2 35.5t3 35.5q0 7 0.5 13.5t0.5 13.5q1 5 0.5 9.5t0.5 9.5q-5 1 -11 1.5t-12 0.5q-36 2 -68 -4q-5 -1 -9 1t-4 8q0 7 4.5 13
t8.5 11q13 15 29.5 26t36.5 15q23 5 45.5 6t45.5 -1l12 3q11 0 13 -6q5 -1 10 -1t10 -1q70 -11 135 -33q7 -2 6.5 -8.5t-5 -13t-10.5 -12.5l-8 -8q-15 -15 -35 -24q-6 -3 -13.5 -6t-14.5 -1q-19 5 -38 9.5t-38 9.5q-2 -26 -3.5 -51t-3.5 -50q-8 -98 -12 -195
q-2 -48 -4 -94.5t-1 -94.5q0 -38 3 -74q2 -13 3.5 -25t4.5 -24v-1q3 1 7 1q38 5 77 6t77 -7zM99 37q2 0 4.5 0.5t4.5 0.5q-1 3 -1 7l-4 -4z" />
    <glyph glyph-name="J" unicode="J" horiz-adv-x="579" 
d="M540 311q5 -32 6.5 -64t-3.5 -64q-5 -33 -15.5 -64t-29.5 -59q-23 -34 -54 -61t-67 -44q-15 -8 -30 -12.5t-31 -7.5q-13 -2 -25.5 -2.5t-25.5 0.5q-23 2 -45.5 8t-42.5 16q-45 21 -81.5 55t-58.5 79q-11 22 -17 45.5t-6 48.5q0 28 7 52l4 12l4 12q4 8 5 11l3 6q2 2 3 5
t3 5q2 4 4 6l6 9q5 8 12.5 15.5t15.5 13.5t17 11t18 8q5 2 11.5 3t10.5 -4t0.5 -11t-5.5 -10q-1 -1 -1 -1.5t-1 -1.5q-1 -2 -2 -4.5t-2 -4.5q-8 -15 -13 -34q-9 -45 3 -88q0 -3 1 -4q14 -45 45.5 -81.5t70.5 -62.5q26 -16 54.5 -26t57.5 -12q19 0 39 3q6 1 11 4q2 0 3 1h1
q1 1 1.5 1t1.5 1q1 0 1 1l6 6q1 2 2 3.5t2 3.5q6 8 8 12q13 25 21 54q13 59 6 119.5t-24 117.5q-10 33 -21.5 65t-25.5 64t-29 62.5t-32 61.5q-14 23 -27.5 46t-28.5 46q-11 -5 -22 -7.5t-22 -5.5q-29 -6 -58.5 -8t-59.5 -4q-14 -1 -28 -1.5t-28 -2.5q-10 -1 -19 -1.5
t-19 -2.5l-1 -1q-4 -2 -7 -3t-7 -2q-4 -2 -11 -3t-10 4q-4 5 -1 11t6 9q10 16 27 28q22 15 43 24q2 0 3 1h2l-10 -4l11 5q5 1 8.5 1.5t7.5 1.5q26 6 51.5 7.5t51.5 3.5q29 2 57 4.5t57 8.5q9 1 20 6q8 4 15.5 7.5t15.5 4.5q7 1 13 -4q10 -14 19.5 -28.5t18.5 -29.5
q73 -118 118 -248q12 -35 21.5 -70t15.5 -71z" />
    <glyph glyph-name="K" unicode="K" horiz-adv-x="648" 
d="M863 -51q4 -5 1 -11t-5 -9q-3 -4 -5.5 -7.5t-4.5 -6.5l2 4l2 4q-6 -12 -14.5 -22.5t-17.5 -20.5q-11 -14 -22 -25q-14 -14 -28 -27.5t-31 -24.5q-17 -12 -36.5 -23t-40.5 -16q-14 -3 -27 -4.5t-27 3.5q-23 8 -38.5 27t-25.5 40q-8 15 -13 31t-9 32q-5 19 -8.5 37.5
t-7.5 37.5q-9 45 -21 90q-1 1 -1 2q-16 54 -36.5 105t-47.5 99q-26 45 -59 86t-77 69q-50 30 -104 34q-8 0 -14.5 -0.5t-14.5 -1.5q-7 -3 -13 -5.5t-13 -5.5q0 -5 0.5 -9.5t0.5 -9.5q0 -7 -0.5 -14t-0.5 -14q-1 -16 -1.5 -31.5t-1.5 -32.5q-2 -35 -3 -70t0 -70
q1 -33 4.5 -65.5t11.5 -64.5q5 -16 12 -31.5t16 -29.5q3 -5 0.5 -11t-5.5 -10q-10 -16 -28 -29q-8 -6 -17 -11t-19 -8q-5 -2 -11 -3t-10 4q-15 17 -23.5 39t-13.5 44q-10 48 -12 99q-2 35 -1 70.5t3 70.5q1 17 1.5 33t1.5 32t1.5 31t-1.5 31q-3 44 -6 87t-5 87q-1 44 1 87.5
t12 85.5q1 8 6 16q2 2 4 4.5t4 4.5q14 17 33 28q8 5 16.5 8.5t16.5 4.5q5 1 9.5 -0.5t4.5 -7.5q-1 -17 -1 -32.5v-32.5q0 -5 -3 -10l-6 -10q-2 -16 -2 -32v-32q0 -34 2 -67.5t5 -67.5q38 16 74 23q2 1 2.5 1.5t2.5 1.5t2.5 1.5t2.5 1.5q3 3 6.5 5.5t6.5 5.5q4 2 6 4q3 2 6 5
t6 5l24 24l1 1q2 2 3.5 3t3.5 3q3 4 6 7t6 7q6 7 12 13.5t12 14.5q3 4 6 7t6 7q2 4 4 5v1l21 27q2 4 4.5 7.5t4.5 6.5q5 8 10 15.5t10 14.5q1 4 5 8q12 16 28 29t35 19q4 1 11 2t10 -4q4 -5 1 -10.5t-5 -9.5q-11 -18 -22.5 -35t-24.5 -34q-9 -16 -19 -28q-8 -12 -18 -20
q-8 -9 -15 -18t-15 -17q-18 -20 -37 -38.5t-39 -35.5q18 -2 36.5 -6t35.5 -12q49 -21 86.5 -58t66.5 -81q31 -47 54 -97.5t40 -103.5q9 -26 16 -51.5t14 -51.5q7 -29 12 -59t13 -59q9 -34 26 -65q7 -11 15 -21t19 -18q13 -7 26 -8q6 0 9 1q3 0 7 2h1l4 4q1 0 1 1q1 0 2 1
l4 4q2 1 2.5 2t1.5 2l4 4l9 9q4 5 8 10.5t9 10.5q1 1 1 1.5t1 1.5q2 3 4.5 5.5t1.5 1.5q1 2 2 3t2 3q12 16 28 29t35 18q4 2 11 3t10 -4z" />
    <glyph glyph-name="L" unicode="L" horiz-adv-x="471" 
d="M572 398q6 -2 6.5 -6.5t-1.5 -8.5q-3 -8 -9 -15t-12 -12q-8 -8 -17 -13.5t-18 -10.5l9 4.5t-2 -1t-7.5 -4t-7.5 -3.5l-1 -1q-2 -2 -5 -3t-5 -3q-8 -4 -15.5 -8t-15.5 -8q-15 -9 -29.5 -18t-29.5 -18q-8 -5 -15 -9.5t-15 -9.5q-4 -2 -7.5 -5t-7.5 -5q-2 -2 -4 -2
q-14 -11 -28 -21t-28 -21l-15 -12q-4 -2 -5 -4q-7 -5 -13.5 -11t-13.5 -12q-8 -7 -14.5 -13t-13.5 -13q0 -1 -0.5 -1t-0.5 -1q-2 -2 -4 -3q-3 -4 -6 -7l-6 -6q-6 -8 -12 -14.5t-12 -14.5q-2 -2 -3.5 -4t-3.5 -4l-1 -1q-2 -3 -4 -5.5t-4 -5.5q-20 -27 -37 -58
q-9 -17 -17 -34.5t-14 -35.5q-3 -8 -9.5 -15.5t-12.5 -12.5q-8 -8 -17 -14t-20 -11q-3 -2 -8.5 -4t-11.5 -3t-10.5 1t-4.5 8v11l-15 390q-2 48 -4 96.5t-4 97.5v76v99v43q1 7 0.5 14.5t1.5 14.5v6q0 6 4.5 12.5t8.5 11.5q13 14 32 27q4 1 16.5 7.5t20.5 5.5q8 -2 8 -9v-3
q1 -1 1 -4v-1q0 -43 0.5 -86t0.5 -86v-41.5t1 -40.5q2 -49 4 -97t4 -97q3 -70 5.5 -139.5t5.5 -140.5q36 48 79 90t91 80q32 26 66 49t69 45q16 10 31.5 19t31.5 18q4 2 5 3q12 6 12.5 6.5t-9.5 -5.5q0 1 1 1q5 2 9 5t9 5q4 2 7.5 4t7.5 4q8 5 15.5 8.5t15.5 7.5q5 3 13 5.5
t14 0.5z" />
    <glyph glyph-name="M" unicode="M" horiz-adv-x="593" 
d="M682 12q4 -5 1 -11l-5 -10q-5 -7 -9 -13.5t-9 -12.5q-5 -7 -10.5 -13t-10.5 -11q-5 -4 -8.5 -7t-8.5 -7q-8 -7 -16.5 -12t-17.5 -10q-11 -5 -22.5 -8.5t-24.5 -1.5q-12 2 -21.5 10t-16.5 18q-13 17 -21 37.5t-14 40.5q-8 22 -13.5 44.5t-10.5 45.5q-14 70 -19 141t-7 142
q-2 38 -2.5 75.5t-2.5 75.5q-14 -64 -30 -127t-40 -123q-24 -61 -60 -116t-90 -93q-8 -6 -17 -11.5t-19 -8.5q-5 -2 -12 -3t-10 4q-26 35 -42 73q-3 -78 -12 -156q1 -1 1 -6v-15q-2 -10 -4 -16q-1 -6 -6.5 -13t-7.5 -11l-2 -2q-11 -12 -25.5 -22.5t-31.5 -15.5
q-2 -1 -6 -1.5t-8 -0.5t-6.5 1.5t-2.5 6.5q7 58 12 116q8 99 8.5 196t-1.5 196q-2 100 -4 198t0 198q1 7 5 13.5t9 11.5q15 16 34 29q8 5 16.5 8.5t17.5 4.5q6 1 12 -3q0 -2 2 -6l9 -39q14 -68 18 -136.5t9 -137.5t12 -138.5t26 -137.5q16 -53 42 -97l12 21q2 3 3 5.5t3 5.5
q27 55 45 113t32 117q8 33 14.5 66t14.5 66q7 31 13.5 61t14.5 61q6 24 13 48t17 47q3 8 9 15t13 13q18 17 37 26q6 2 13.5 5t14.5 1q7 -1 7 -9q7 -34 11.5 -68.5t7.5 -69.5q8 -94 8.5 -188t8.5 -188q5 -52 13 -103t22 -102q5 -17 11 -34t14 -34q5 -11 11.5 -21.5
t15.5 -18.5q5 4 8.5 7.5t8.5 6.5q8 6 17 11t19 8q4 2 11 3t10 -4zM587 -49l-3.5 -3.5t3.5 3.5z" />
    <glyph glyph-name="N" unicode="N" horiz-adv-x="614" 
d="M554 439q7 -51 12 -101t4 -101q0 -21 -1 -42t-5 -42q-2 -18 -7 -36t-13 -35q-5 -11 -11.5 -20.5t-14.5 -18.5q-11 -13 -24 -24t-28 -19q-13 -8 -26.5 -13t-28.5 -7q-16 -1 -36 2q-19 5 -35.5 15t-30.5 22q-17 15 -31 32t-27 35q-31 45 -54.5 94t-44.5 100l-10 26l-10 26
q1 -74 -3.5 -147.5t-18.5 -145.5q-3 -13 -14 -26q-15 -17 -34 -27q-7 -5 -15.5 -8.5t-16.5 -5.5t-12 4q-2 4 -2 5q-1 2 -1 3.5t-1 3.5q-6 28 -9 59q-5 42 -6 84q-3 53 -4 105t0 105q1 52 3.5 103.5t7.5 103.5q2 20 4 40.5t7 40.5q0 2 0.5 4.5t0.5 4.5q-1 8 -1 15.5t-1 15.5
q-1 7 4.5 14t9.5 11q6 7 13 13q4 7 11 14q8 9 17 17t20 14q8 5 17 9t19 5q5 1 9.5 -0.5t4.5 -7.5q-1 -7 -5 -13.5t-9 -11.5l-7 -7q-1 -3 -3 -7q0 -2 -0.5 -3t-0.5 -2q8 -23 15.5 -46t15.5 -46q17 -52 34.5 -103t36.5 -102q20 -54 42 -106t51 -102q12 -22 25 -42.5t29 -39.5
q12 -16 26 -29.5t31 -24.5q18 -10 38 -15q2 4 2.5 8t2.5 8q4 17 5.5 33.5t2.5 33.5q3 49 0 98t-9 97q-6 51 -14.5 101.5t-19.5 101.5q-15 75 -36 150l-9 30q-4 10 5 22q5 8 13 15.5t16 13.5t17 11.5t19 8.5q3 1 11.5 2.5t10.5 -3.5q6 -9 7 -18q2 -5 4 -11l4 -12q3 -4 1 -11
q7 -25 13 -50t12 -51q11 -50 20 -98.5t16 -98.5z" />
    <glyph glyph-name="O" unicode="O" horiz-adv-x="602" 
d="M579 489q4 -46 -5 -93q-5 -26 -12.5 -50t-16.5 -47q-23 -57 -52.5 -109t-67.5 -100q-21 -26 -44.5 -49t-49.5 -43q-25 -20 -53.5 -36.5t-59.5 -25.5q-25 -6 -50 -7t-49 7q-13 5 -24 11t-22 14q-18 12 -31 28q-14 17 -23 37t-15 40q-15 52 -18 107q-3 58 3 116t20 115
q13 55 32 108t50 101q8 11 15.5 21t16.5 20q10 12 22 22q2 2 4 3q1 2 2 2.5t2 1.5q2 2 4.5 4t6.5 5q3 3 6 5.5t6 4.5q17 14 36.5 26.5t41.5 19.5q14 5 28 4q50 16 100 5q26 -5 50.5 -18t44.5 -31q48 -41 72.5 -99.5t29.5 -119.5zM478 330q10 42 8 85t-13 85q-14 48 -42 89.5
t-70 68.5q-22 14 -45 20h-1l-6 -9q-16 -16 -33 -26q-7 -5 -15 -8.5t-16 -4.5q-6 -2 -11 3q-1 2 -1 3t-1 3q0 4 -2 10t-4.5 11.5t-6.5 10.5l-3 3l-4 -2q-1 -1 -1.5 -1t-1.5 -1t-2 -1t-2 -1q-2 -2 -3 -2q-1 -1 -1.5 -2t-2.5 -2q-1 -1 -2 -1.5t-2 -1.5l-7 -7l-2 -2
q-5 -5 -9 -10t-9 -10v-1q-1 -1 -1 -1.5t-1 -1.5q-2 -2 -2.5 -3t-2.5 -3q0 -1 -1 -1q-20 -38 -33.5 -77.5t-23.5 -80.5q-6 -28 -11 -56t-8 -57q-5 -54 -3.5 -108t15.5 -107q11 -35 28 -63q20 -28 47 -45q28 -18 63 -21q15 0 29 3q7 1 16 5q2 0 2 1q6 2 8 3q1 1 2 1q6 4 7 5
q1 0 1 0.5t1 0.5q2 2 4.5 3.5t4.5 3.5q6 6 9 8l9 9h1q5 5 9 10t9 10q6 8 9 11q1 2 1.5 2.5t1.5 2.5q16 20 30 42.5t27 45.5q20 38 36.5 77.5t27.5 81.5zM153 683q8 7 7.5 6.5t-4 -3.5t-6 -5t2.5 2z" />
    <glyph glyph-name="P" unicode="P" horiz-adv-x="441" 
d="M402 537q9 -20 14.5 -42.5t3.5 -44.5q-2 -16 -5 -31.5t-8 -29.5q-5 -13 -11 -25t-14 -23q-23 -32 -54 -56t-67 -38q-22 -9 -44.5 -11.5t-45.5 -0.5q-29 3 -61 14q0 -34 1.5 -67t5.5 -67q5 -38 12 -74.5t17 -72.5q-1 -8 -6 -16q-2 -2 -3.5 -4.5t-3.5 -4.5q-15 -17 -33 -27
q-8 -5 -16 -8.5t-16 -4.5q-8 -2 -12 3q-13 34 -20 69t-12 70q-8 64 -9 128t3 128q-9 8 -16.5 17t-12.5 20q-3 6 -5 12.5t-1 13.5q0 9 3 17l3.5 7t3.5 6q0 1 0.5 1.5t0.5 1.5l1 1l8 9l-7 -9v1q5 8 12.5 15t15.5 13q3 3 5 4q7 63 15.5 124.5t17.5 124.5q3 10 9 19q-9 5 -19 9
t-20 9q-14 5 -29.5 9.5t-31.5 6.5q-8 -7 -16.5 -13t-18.5 -11q-6 -2 -13.5 -5t-14.5 -1q-6 2 -6 6.5t2 8.5q3 10 9 20q11 20 29.5 33.5t37.5 24.5q21 10 45 12q19 2 38 -2t37 -10q22 -8 43 -18t41 -22q23 -14 46 -29.5t44 -33.5q38 -32 73 -70.5t55 -85.5zM307 318
q2 1 4 1.5t-5 -1.5h1zM320 363l4 22t1 22q0 18 -6 36q-8 26 -21 49.5t-30 45.5q-26 34 -58 63t-67 54q-2 -14 -3.5 -27t-3.5 -26q-8 -59 -13.5 -116.5t-9.5 -116.5q6 -5 12.5 -9.5t13.5 -9.5q27 -17 56.5 -27t61.5 -12q19 0 37 3q1 0 7 2q2 2 2.5 3.5t2.5 3.5q5 10 8.5 19.5
t5.5 20.5z" />
    <glyph glyph-name="Q" unicode="Q" horiz-adv-x="659" 
d="M602 -76q7 -2 6.5 -8.5t-5 -13.5t-10 -13t-7.5 -7q-16 -14 -35 -24q-6 -3 -13.5 -5.5t-14.5 -0.5q-61 14 -109.5 54.5t-80.5 93.5q-17 28 -30 60q-5 -3 -11 -5.5t-12 -4.5q-29 -11 -60.5 -14.5t-62.5 1.5q-26 5 -51 16.5t-45 28.5q-35 29 -54 68.5t-25 83.5
q-6 48 0.5 95.5t21.5 92.5q32 100 99 179q18 21 38.5 40t43.5 34q23 17 48 30t53 19q22 5 43.5 6t42.5 -6q21 -6 39.5 -17.5t35.5 -25.5q3 -3 1 -8t-4 -9q11 -2 21 -5t20 -8q52 -22 84 -66q18 -25 28 -53.5t12 -57.5q3 -29 -3 -58t-16 -55q-11 -31 -27 -59.5t-35 -54.5
q-48 -66 -112 -118q-5 -4 -9 -7t-9 -7q22 -49 56 -91t80 -71q33 -20 68 -29zM257 110q8 0 15 0.5t14 1.5q-2 10 -4 15q-7 31 -8.5 62t3.5 63q1 7 4.5 13t8.5 11q15 16 33 27q8 5 16 8.5t16 4.5q4 1 9.5 -1t3.5 -7q-5 -35 -2 -70.5t13 -69.5l3 -9q0 -2 0.5 -2.5t0.5 -2.5
q2 2 3 2l2 2q4 3 11 10l5 5t6 5q1 1 1 1.5t1 1.5q5 5 10.5 11t10.5 12q2 2 3 3.5t3 3.5l1 1l6 9q8 11 15.5 23t15.5 24q22 42 32 84q6 22 6 48t-8 55q-20 69 -80 109q-45 27 -98 30q-13 0 -26 -1t-26 -4q-5 -1 -11 -2.5t-11 -3.5l-4 -2q-3 -2 -6 -2.5t-6 -2.5q-1 -1 -2 -1
v-1q-3 -1 -9 -5q-1 -1 -5 -3l-4 -4q-3 -2 -5 -4l-4 -4q-14 -14 -36 -24q-5 -3 -12.5 -5.5t-14.5 -0.5q-5 1 -5.5 5.5t1.5 9.5q3 7 8 13t10 11l10 10q4 4 6 5l2 2l2 2q8 6 13 11q2 2 3.5 2.5t3.5 2.5q9 8 19 14.5t21 12.5q28 16 54 26q-7 2 -14 3t-15 2q-15 0 -31 -3
q-3 -1 -11 -3q-2 0 -2.5 -0.5t-1.5 -0.5q0 -1 -1 -1q-2 -1 -5.5 -2.5t-5.5 -2.5t-2.5 -1.5t-2.5 -1.5q-4 -4 -6 -5q-1 -1 -2 -1l-3 -3l-8 -8h-1q-3 -4 -6 -7t-6 -7q-2 -2 -3.5 -4t-3.5 -4q0 -1 -1 -1q-3 -5 -6 -9l-6 -8q-5 -8 -10.5 -17t-10.5 -17q-30 -57 -45 -118
q-10 -43 -11 -87.5t10 -87.5q11 -36 33 -66.5t54 -50.5q20 -12 41.5 -19.5t44.5 -9.5z" />
    <glyph glyph-name="R" unicode="R" horiz-adv-x="620" 
d="M1032 171q4 1 9 -1t5 -7q-1 -4 -1 -7t-1 -6q-3 -31 -8.5 -61.5t-15.5 -59.5q-7 -23 -16.5 -44t-23.5 -40q-41 -55 -100 -86q-36 -19 -77 -19q-38 0 -73 13t-68 31q-42 23 -80 51t-76 57q-40 32 -78.5 63.5t-77.5 63.5q-24 20 -48 39t-50 37q-15 -9 -31 -16t-33 -12
q-21 -7 -44 -9.5t-45 3.5q2 -14 5 -26.5t6 -25.5q6 -20 14 -38t21 -34l7 7q8 8 17 13.5t18 10.5q6 3 13.5 5.5t13.5 0.5t6.5 -6.5t-2 -9.5t-6 -10t-5.5 -7q-7 -7 -13 -14.5t-13 -14.5q-14 -16 -29.5 -29.5t-33.5 -25.5q-7 -5 -15.5 -8.5t-16.5 -4.5q-8 -2 -13 4
q-31 24 -44.5 62.5t-21.5 75.5q-11 60 -11.5 120.5t2.5 120.5q3 54 8 106t9 106q1 27 6 54q2 11 3 21t3 21l3 21q1 5 1.5 11t2.5 12q1 2 1 4.5t1 5.5q-17 -1 -35 -2t-35 -3q-9 -2 -18 -2.5t-18 -2.5q-2 -4 -5 -7.5t-5 -6.5q-13 -14 -29.5 -25t-36.5 -15q-29 -6 -59.5 -7
t-60.5 -2q-5 0 -9.5 1.5t-4.5 7.5q1 8 6 16q8 11 19 20.5t22 16.5q3 2 6 3.5t5 3.5q8 3 13 7q-2 -2 -5 -3t-5 -3q3 2 6.5 4t7.5 4q1 1 2 1t3 1l12 6t12 5q16 7 32 13t32 11q65 19 136 28q69 9 139 6q35 -2 70 -6.5t69 -14.5q28 -8 56 -20.5t52 -30t42.5 -40.5t29.5 -51
q11 -30 10.5 -60.5t-8.5 -60.5q-8 -32 -22.5 -62t-32.5 -58q-35 -51 -83 -96q17 -12 33.5 -25t33.5 -26q40 -31 78 -62.5t77 -63.5q37 -29 74 -57.5t77 -53.5q9 -6 19 -11q30 -17 63 -31.5t68 -17.5h8.5t8.5 1q2 0 4.5 0.5t4.5 0.5q1 0 2 1l3 3q2 2 2.5 4t2.5 4q2 4 3 5
q18 37 28 80q1 5 3 13q2 5 2.5 10.5t2.5 10.5q1 8 2 15t3 15q1 6 1.5 12.5t1.5 12.5q1 8 5 14t9 11q8 8 16 15.5t17 12.5q8 5 16 8.5t17 4.5zM306 631q-42 26 -90 38t-97 17l-4 -30l-4 -30t-2.5 -30t-1.5 -30q-5 -57 -9.5 -113t-6.5 -113v-9q24 13 53 18q32 5 63.5 -6.5
t59.5 -26.5q11 -6 21.5 -12.5t21.5 -13.5l3 3q5 5 9.5 11t9.5 11v1q2 2 2.5 3t2.5 3q2 3 4.5 6t4.5 7q5 7 8.5 13.5t7.5 13.5q1 0 1 1l3 6q2 3 3 6.5t3 6.5q13 28 20 54q5 22 5 44.5t-5 44.5q-11 34 -33.5 60.5t-52.5 45.5zM160 247q13 -9 31 -12q-11 7 -22.5 12.5
t-23.5 10.5q4 -3 7.5 -6t7.5 -5z" />
    <glyph glyph-name="S" unicode="S" horiz-adv-x="665" 
d="M591 324q4 -29 -4 -61q-9 -37 -24 -71q-37 -76 -92 -135q-15 -17 -31.5 -32.5t-35.5 -29.5q-4 -4 -6 -5q-3 -2 -4 -3t12 10q-4 -3 -7 -6t-7 -6q-3 -3 -6.5 -5.5t-6.5 -4.5q-20 -15 -39 -27q-23 -14 -50 -26t-55 -17t-56 -2t-53 19q-39 24 -62 64q-24 44 -32 93
q-9 54 0 107.5t34 101.5q5 9 10.5 18.5t12.5 17.5q1 3 5 7q2 3 4 5.5t4 5.5l-6 -8l7 9q1 2 3 4q3 3 6 6.5t6 6.5q14 15 33 28q8 5 16 8.5t17 4.5q5 1 9 -1t4 -8q0 -7 -4.5 -13.5t-8.5 -11.5l-9 -9v-1q-2 -2 -4 -6q-5 -6 -8.5 -12t-7.5 -12q-8 -16 -14 -32.5t-10 -33.5
q-8 -38 -8 -76t11 -75q10 -33 29 -63t48 -50q26 -16 58 -19q17 0 32 3q5 1 15 5q3 0 5 2q2 0 2.5 0.5t2.5 0.5q2 2 6 4l4 2l4 2q2 2 6 4q2 2 4.5 3.5t4.5 3.5t4 3t4 3t3 2l-2 -2q4 4 8 7t9 7l1 1q3 2 6 5t6 5q1 1 1.5 2t2.5 2q2 3 5 6t5 6q3 3 6 6.5t6 7.5q2 1 4 5
q23 29 38 57q10 19 17.5 38t12.5 39q4 17 5 35.5t-4 35.5q-8 27 -24 49.5t-40 38.5q-20 12 -41 19t-43 12q-30 6 -60 9t-60 8q-28 5 -56 9t-56 10q-29 7 -56 17.5t-50 29.5q-24 19 -36.5 46.5t-11.5 57.5q0 20 5.5 38.5t15.5 35.5q14 23 34.5 42t43.5 33q17 11 36.5 19.5
t40.5 13.5q17 5 34.5 5t35.5 -2q35 -4 69 -13.5t67 -20.5q31 -11 61 -23.5t60 -24.5q7 -3 6.5 -9t-5 -12.5t-10 -12.5t-7.5 -8q-18 -16 -35 -24q-5 -2 -13.5 -5t-13.5 -1q-6 1 -13 5q-32 12 -63.5 24t-63.5 23q-32 10 -64.5 18.5t-66.5 10.5h-15.5t-15.5 -2l-9 -3
q-2 0 -4.5 -1t-4.5 -2l-1 -1q-2 -5 -3.5 -9.5t-3.5 -9.5q-3 -15 -3 -30.5t5 -30.5q7 -21 20.5 -38t31.5 -29q21 -13 44.5 -20.5t47.5 -12.5t48.5 -8.5t49.5 -7.5q29 -5 59 -8.5t60 -8.5q29 -6 57 -16t53 -28q22 -16 38 -42q5 -7 8 -14t6 -15q4 -8 6.5 -17.5t3.5 -18.5z
M66 288q2 2 2.5 3.5t1.5 3.5q-1 -2 -1.5 -3.5t-2.5 -3.5zM66 287v1v-1z" />
    <glyph glyph-name="T" unicode="T" horiz-adv-x="633" 
d="M676 670q7 -2 6.5 -8.5t-5 -13t-10 -12.5t-7.5 -8q-18 -16 -35 -24q-6 -3 -13 -5.5t-14 -0.5q-47 10 -92.5 23t-92.5 25q-30 8 -60 15t-61 13q1 -11 1 -22t1 -22q1 -68 -1.5 -135.5t-1.5 -135.5q1 -70 6.5 -139.5t24.5 -136.5q4 -12 7.5 -24t8.5 -23q3 -8 -1 -13l-2 -4
l-2 -4q-11 -16 -28 -29q-8 -6 -17 -11t-18 -8q-4 -1 -11.5 -2.5t-10.5 3.5q-12 23 -19 48.5t-12 51.5q-11 54 -15 108q-6 72 -5.5 143.5t2.5 143.5q0 32 0.5 63t-0.5 63q0 24 -1.5 48.5t-6.5 48.5q0 4 1 6q-24 4 -48.5 6t-49.5 4q-54 1 -108 -3q-5 -5 -10.5 -9t-11.5 -7
q-6 -5 -14.5 -9t-16.5 -4h-36t-36 -1q-5 0 -9.5 1.5t-4.5 7.5q1 9 6 15q12 17 28 28q12 9 24 15q67 28 143 37q82 10 164 1.5t163 -25.5q40 -8 79.5 -18t78.5 -21q36 -10 72 -19.5t71 -20.5z" />
    <glyph glyph-name="U" unicode="U" horiz-adv-x="626" 
d="M600 235q4 -20 7 -40t3 -40q0 -16 -5 -36q-3 -11 -9 -20t-13 -17q-17 -21 -42 -33.5t-52 -19.5q-48 -12 -96.5 -21t-97.5 -17q-24 -4 -48 -7.5t-47 -7.5q-16 -2 -31 -4t-31 -4h-7q-12 0 -19 5q-14 7 -27 20q-12 14 -19 31.5t-12 35.5q-6 22 -10 44t-6 45q-4 52 -6 107
q-1 58 -0.5 115t-0.5 115q-1 26 -2 51.5t-3 51.5q-2 20 -5 40.5t-8 40.5q0 1 -2 7q-1 2 -1 2.5t-1 2.5q-3 6 0 14q1 2 2 4.5t3 5.5q5 8 12 14.5t15 12.5t16.5 11t18.5 8q2 1 7 2t9 0q5 0 6 -4q2 -2 2 -5q7 -9 15 -16.5t13 -18.5q3 -5 0.5 -10t-5.5 -10q-4 -6 -7 -10
q5 -33 6.5 -66.5t2.5 -66.5q1 -58 0.5 -115t1.5 -115l2 -54t4 -53q2 -23 5.5 -44.5t9.5 -43.5q6 -20 16 -40t28 -32q8 -4 13 -6q10 1 20 2.5t20 2.5q22 4 43.5 7t43.5 7q46 8 91.5 15.5t90.5 17.5q1 17 -1.5 34.5t-5.5 34.5q-5 24 -10.5 48t-12.5 47q-2 7 -4 13.5t-4 12.5
q-16 54 -34 106t-37 104q-8 22 -15 43l-14 42q-5 15 -9.5 30t-7.5 31q2 10 7 15q4 6 7 10q13 14 32 27q8 4 16 7.5t16 4.5q7 1 12 -3q0 -2 0.5 -2.5t0.5 -2.5q1 -1 1 -2v1l3 -12v-1q5 -11 8 -23t7 -23q17 -48 34.5 -96t34.5 -96q17 -52 34 -104.5t28 -106.5zM508 65
q-4 -6 -5 -9q2 3 3 5.5t3 5.5h1v2z" />
    <glyph glyph-name="V" unicode="V" horiz-adv-x="497" 
d="M463 770q-9 -18 -17 -35.5t-16 -35.5q-7 -19 -12 -37.5t-10 -37.5q-18 -78 -22 -158t-5 -160q-2 -81 -5 -162t-20 -161q-3 -14 -14 -25q-13 -16 -34 -29q-15 -10 -32 -13q-8 -2 -13 4q-14 20 -26 40.5t-23 42.5q-35 72 -58 147l-46 150q-11 36 -23.5 71t-27.5 70
q-8 17 -13.5 33.5t-11.5 33.5q-9 23 -18 47t-19 47q-5 11 -9.5 21.5t-9.5 20.5l-9 18q-2 3 -4.5 6.5t-4.5 7.5v-1q-1 1 -1.5 2t-1.5 2q-10 -2 -15 -1q-5 2 -5.5 6.5t1.5 8.5q9 19 25 33.5t35 22.5q6 3 15 6t17 1q1 -1 3 -1q2 -2 6 -4q2 -2 3 -2q2 -2 3 -4t3 -4l-1 1
q8 -6 13 -19q4 -6 7 -12l6 -12q20 -42 36 -84.5t32 -86.5q4 -10 8 -19.5t9 -20.5q7 -17 13.5 -34.5t12.5 -35.5q13 -38 24.5 -75t22.5 -75q12 -38 24.5 -75t27.5 -74q3 75 3 149t6 149q6 86 25 166q5 20 11 39t14 38q16 42 39 81q5 8 12.5 15.5t15.5 13.5t17 11t18 8
q5 2 11.5 3t10.5 -4q3 -5 1 -9.5t-4 -8.5zM19 726l2 2q0 1 1 2q-1 -1 -1.5 -2t-1.5 -2z" />
    <glyph glyph-name="W" unicode="W" horiz-adv-x="579" 
d="M605 191q2 2 -4 -5.5t-9 -9.5q7 8 7 7.5t-8 -9.5l-11 -11l-3 -3q-5 -5 -10.5 -9t-11.5 -9l15 -54q2 -6 3.5 -11.5t3.5 -10.5q-1 1 -1 2t-1 3q5 -18 10.5 -35.5t10.5 -35.5q-2 -9 -6 -15q-2 -2 -3.5 -4.5t-3.5 -4.5q-14 -15 -33 -28q-17 -10 -32 -13q-7 -1 -12 4l-9 24
q-22 66 -40 135q-18 -5 -36 -6.5t-37 -1.5q-11 -1 -22.5 -0.5t-22.5 0.5q1 -5 1.5 -9.5t2.5 -9.5q7 3 15 1q5 -2 5.5 -6.5t-1.5 -8.5l-3 -9q-2 -8 -2 -15.5v-15.5q1 -7 -4 -13.5t-9 -11.5q-16 -17 -34 -28q-8 -5 -16 -8.5t-17 -5.5q-7 -1 -12 4q-7 16 -10.5 32.5t-7.5 33.5
q-4 18 -7 36t-6 37q-24 0 -48 -2t-47 -7q-5 -1 -8.5 -2t-8.5 -2q-3 -2 -9 -4h-1q-2 -1 -4 -1.5t-4 -2.5l-1 -1q-2 -1 -2.5 -1.5t-2.5 -1.5q-9 -8 -21 -14t-24 -8q-5 -1 -9.5 1t-4.5 8q0 17 -1 35t-3 35q-2 21 -4.5 42t-5.5 42q-9 68 -18 135t-12 135q-1 31 -0.5 62t5.5 62
q5 29 13.5 56.5t25.5 51.5q9 14 23 25t29 18q5 3 15.5 6.5t15.5 -3.5q5 -6 9.5 -13t5.5 -15q0 -6 -1.5 -11.5t-3.5 -11.5q0 -2 -0.5 -5t-0.5 -5q0 -7 -4 -13.5t-9 -11.5q-6 -6 -12.5 -11.5t-13.5 -10.5q-1 -8 -1.5 -17t-1.5 -17q-4 -67 3 -133.5t16 -133.5q7 -53 14.5 -105
t10.5 -106q24 10 48 18q11 2 21.5 4.5t21.5 4.5q-2 9 -3 18.5t-2 18.5q-14 109 -21 217q-3 46 -4.5 91.5t1.5 91.5q1 16 2.5 32t6.5 32q3 11 11 24t20 23q11 10 24 18t27 13q4 2 10.5 3t10.5 -4t0.5 -11t-5.5 -10q-2 -3 -3.5 -5.5t-3.5 -4.5q-1 -1 -1 -3q-5 -25 -5 -44
q-2 -17 -2 -34v-34q1 -52 4 -103t8 -102q5 -53 11 -105.5t14 -105.5q1 -3 1 -5.5t1 -5.5q20 -1 40 -1.5t40 -1.5h35q-9 39 -16 78l-14 78q-8 46 -14.5 91.5t-13.5 91.5q-6 46 -12 91.5t-11 91.5q-1 6 4.5 13t9.5 12q15 16 33 27q7 5 15.5 8.5t16.5 4.5q7 1 12 -3q2 -4 3 -5
q4 -8 5 -16.5t1 -16.5q0 -3 -2 -7q10 -66 18 -130.5t19 -130.5q10 -65 22 -129t27 -127q5 5 11 8.5t12 7.5q7 5 15.5 8.5t16.5 4.5q5 1 9.5 -1t4.5 -8q0 -5 -2.5 -9t-5.5 -8z" />
    <glyph glyph-name="X" unicode="X" horiz-adv-x="580" 
d="M657 -93q3 -5 0 -11l-5 -10q-11 -16 -27 -27q-8 -6 -16.5 -11t-18.5 -8q-5 -2 -11 -3t-10 4q-27 29 -52 60t-48 63q-53 74 -100.5 150.5t-93.5 154.5q-12 20 -24 41t-24 41q-9 -17 -17.5 -33t-17.5 -33q-20 -42 -39.5 -83t-36.5 -84t-31 -86.5t-28 -88.5q-2 -8 -8.5 -15
t-12.5 -12q-15 -15 -35 -24q-6 -3 -13.5 -6t-14.5 -1q-6 3 -6 9q12 57 31 111.5t42 108.5q33 77 71.5 150t80.5 146l-9 15q-17 28 -32.5 56t-31.5 57q-17 31 -35.5 61t-39.5 59q-27 34 -58 64q-1 -1 -3 -1q-3 -2 -11 -3t-10 4q-4 8 -6.5 15t-7.5 13q-4 2 -6 4q1 -1 2 -1.5
t2 -1.5q-3 2 -11 6l-2 1q-6 1 -6 8q1 2 1 3.5t1 3.5q3 8 9 15t12 12q15 15 35 24q5 2 13 5t14 1t10 -4q30 -16 55.5 -38.5t46.5 -48.5q40 -50 70 -105.5t62 -110.5q13 21 26 41.5t25 42.5q10 18 18.5 37.5t13.5 39.5q2 10 2 15q-5 -2 -11 -4t-12 0q-5 2 -5.5 6t1.5 9
q3 8 9 14l12 12q14 16 36 29q7 4 14.5 7.5t15.5 5.5q5 2 10 2.5t10 2.5q5 1 9.5 -1.5t4.5 -7.5q0 -40 -15 -76t-34 -70q-18 -32 -38 -62.5t-38 -62.5q-5 -8 -8.5 -17t-8.5 -17q-1 -1 -1.5 -2t-1.5 -2l78 -132t80 -132q48 -77 100 -150.5t109 -143.5z" />
    <glyph glyph-name="Y" unicode="Y" horiz-adv-x="672" 
d="M26 656l1 1q-3 -3 -3 -3.5t2 1.5v1zM679 77q8 -40 14 -79.5t6 -80.5q-1 -19 -2 -37.5t-5 -36.5q-5 -19 -10.5 -37t-13.5 -35q-15 -33 -37.5 -62.5t-51.5 -52t-62.5 -38.5t-69.5 -22q-52 -10 -104 1.5t-98 35.5q-48 26 -89 62.5t-68 84.5q-14 23 -23 48.5t-11 51.5
q-6 54 13 109q3 8 9.5 15t12.5 12q15 15 35 24q6 3 13.5 6t14.5 1q6 -2 6.5 -6.5t-1.5 -9.5q-4 -9 -5 -16q-6 -26 -5 -52.5t8 -52.5q3 -8 6 -16.5t7 -16.5q21 -48 57 -86.5t81 -66.5q36 -23 76.5 -37.5t83.5 -16.5q14 -1 27 0.5t26 3.5q8 2 13 4q2 0 6 2q3 1 7 3q1 1 2 1
q0 1 1 1l2 2l5 5q0 1 0.5 1t0.5 1q1 2 4 5q2 4 4.5 7.5t4.5 6.5q8 16 14 32t11 33v2q8 38 8 76.5t-5 76.5q-5 42 -13.5 81.5t-19.5 80.5q-10 37 -20 73.5t-19 73.5q-5 20 -8.5 40.5t-7.5 40.5q-5 19 -8.5 37.5t-7.5 37.5q-7 -10 -13.5 -19.5t-13.5 -18.5q-27 -35 -58 -67
t-66 -60q-35 -27 -76 -47q-35 -18 -72 -22q-12 -2 -25 -1t-24 5q-20 6 -38 19t-32 29.5t-25 35.5q-25 43 -39 94q-15 51 -21.5 104.5t1.5 106.5q4 26 11.5 49t21.5 46q0 1 2 3v1q4 4 6 7q-4 -4 -5 -6q1 1 1 1.5t1 1.5l12 15q8 11 21 22q3 2 6 5t6 5q12 8 12 8.5t-11 -7.5
q1 0 2 1t1.5 1t1.5 1q5 3 9 6.5t9 6.5q9 5 18 9t19 8q4 1 11 2t10 -4q4 -5 1 -11t-5 -9q-19 -27 -47 -41q-1 0 -1 -1q-2 -5 -4 -9t-4 -9q1 2 1 3.5t1 3.5q-2 -8 -4 -14.5t-4 -14.5q-2 -5 -2.5 -9t-1.5 -9q-8 -51 -3 -102t19 -101l3 -9q8 -24 17.5 -47.5t23.5 -44.5
q11 -17 25 -33t31 -27q21 -14 45 -15q6 0 12.5 0.5t12.5 1.5l9 3q2 1 3 1t2 1q6 1 11 5q1 1 3 1q2 2 3.5 2.5t3.5 2.5t4 3l4 2q4 4 10 8q1 2 2 2.5t3 2.5l6 6t7 6l3 3l24 27q3 3 6 6.5t6 7.5l2 4q1 0 1 0.5t1 0.5q5 8 10.5 15t10.5 14q19 29 33 55q20 35 32 73
q-15 75 -25.5 150.5t-6.5 152.5q0 7 4.5 13.5t9.5 11.5q8 9 16.5 16t17.5 13q8 5 16.5 8.5t17.5 4.5q7 1 12 -3q1 -2 1 -3t1 -3l6 -24q13 -49 23.5 -98t10.5 -100q2 -43 -7 -80q8 -42 17.5 -83.5t17.5 -83.5q5 -20 8.5 -41t8.5 -41q5 -17 9.5 -35t9.5 -35q11 -39 21 -78
t18 -79z" />
    <glyph glyph-name="Z" unicode="Z" horiz-adv-x="648" 
d="M973 -94q2 1 9.5 5t16 6.5t14.5 1.5t6 -9q0 -7 -4.5 -13.5t-8.5 -11.5q-16 -16 -34 -27q-12 -8 -24 -15.5t-26 -14.5q-8 -5 -16.5 -9.5t-16.5 -8.5l-12 -6l-6 -3q10 5 9 5t-12 -6l-2 -1q-40 -17 -81.5 -29.5t-85.5 -14.5q-35 -2 -70 2t-69 15q-34 10 -66 23.5t-63.5 29.5
t-62.5 33t-62 33q-35 18 -70.5 34.5t-72.5 30.5q-6 2 -11.5 4t-11.5 4l-24 -27q-24 -26 -50 -50.5t-55 -44.5t-60 -36.5t-66 -19.5q-25 -3 -51 5q-19 5 -33 17q-10 10 -13 26q-2 8 0 16l4 16q3 11 7.5 20t9.5 18q13 22 28 42t34 37q37 35 83.5 56.5t97.5 26.5q26 2 50.5 0.5
t49.5 -6.5q25 35 48.5 71t47.5 73q5 8 10.5 16t10.5 16q10 14 20.5 26.5t21.5 25.5q26 31 53.5 61t56.5 59q29 32 58.5 64t57.5 66q4 5 7 8.5t7 8.5q4 6 6 8l3 3q5 8 11 15.5t11 15.5q22 30 41 64q2 2 2.5 4t2.5 4q-12 -7 -23.5 -13t-24.5 -11q-20 -8 -40 -13.5t-41 -8.5
q-33 -5 -66 -3q-38 2 -76 7.5t-76 13.5q-36 7 -72 12.5t-72 7.5q-23 1 -45 0q-10 -2 -15 -2q-2 -1 -4 -1t-4 -1q-2 0 -3 -1q0 -4 1 -6q4 -12 14 -18q10 -5 22 -7q8 0 11 1h4q2 1 3 1t3 1q4 2 10.5 3t10.5 -4q3 -5 0 -11l-5 -10q-11 -16 -27.5 -28t-34.5 -18
q-15 -5 -32.5 -7.5t-33.5 2.5q-10 3 -19 9t-14 16q-9 19 -1 42q4 10 9 17.5t12 15.5q8 10 17 18t19 15q11 8 22.5 15.5t24.5 12.5q12 5 24.5 9t25.5 6q18 4 36.5 5t37.5 0q38 -2 76 -7.5t76 -12.5q35 -7 71 -12.5t72 -7.5q21 -1 41.5 0t41.5 5q4 2 14 4l9 3q2 2 5 2l12 6
q2 1 3.5 2t3.5 2q2 2 3 2.5t3 2.5h1q2 2 2.5 3t2.5 2q1 1 2 1.5t2 2.5l4 4q2 2 4 4.5t4 4.5q1 2 2 3t2 3q2 2 2 1.5t-1 -1.5q12 15 27.5 27t33.5 17q4 2 11 3t10 -4q4 -6 0 -12q-8 -31 -21.5 -59t-29.5 -55q-36 -58 -83 -114q-54 -66 -112 -126.5t-114 -125.5
q-6 -7 -12 -13.5t-12 -14.5q-2 -2 -2.5 -3t-2.5 -3q-2 -4 -3 -5q-6 -8 -11 -15.5t-10 -15.5q-14 -21 -28.5 -42.5t-28.5 -43.5q-17 -26 -34.5 -51.5t-36.5 -51.5q73 -23 140.5 -58t136.5 -70q59 -32 121 -57t131 -29q43 -1 89 8q10 2 19 4.5t18 5.5q5 2 10.5 4t10.5 4
q1 0 1 0.5t1 0.5q3 1 5.5 2t4.5 2q1 1 3 1q1 1 1.5 1t1.5 1q1 0 5 2l12 6q3 1 11 5q2 2 4 2q11 6 21.5 12.5t20.5 13.5zM84 -30q2 2 3.5 4.5t3.5 4.5q-35 9 -70 12q-31 1 -65 -5q-4 -1 -7.5 -2t-7.5 -2q-2 -1 -4 -1.5t-4 -1.5l-1 -1q-3 -1 -7 -3q-1 0 -1 -1q-1 0 -2 -1h-1
q0 -1 -1 -1l-1 -1q-1 -2 -2 -2.5t-2 -2.5q0 -1 -1 -1q-5 -8 -10.5 -16t-10.5 -17t-10 -22q-2 -9 0 -18q4 -11 15 -18q18 -11 43 -13q5 0 9.5 0.5t9.5 1.5l9 3h3v1q3 1 7 3q2 1 4.5 2.5t4.5 2.5q1 1 1.5 1t1.5 1q2 1 6 5q6 4 9 7q1 0 1 0.5t1 0.5q5 5 10.5 10t10.5 10
q2 1 6 5q2 2 3.5 4t3.5 3q11 12 21 23.5t21 24.5z" />
    <glyph glyph-name="backslash" unicode="\" horiz-adv-x="532" 
d="M510 12q-8 0 -11 6q-3 3 -7 9q-7 9 -13.5 17.5t-12.5 16.5q-11 14 -15.5 30.5t-6.5 33.5q-6 11 -12.5 22.5t-14.5 23.5q-20 35 -42.5 68.5t-45.5 66.5q-20 27 -40 53t-41 52q-54 65 -110 126.5t-114 121.5q-7 7 -10.5 15t-5.5 16q-8 20 -6 42q-1 7 0 15t6 13q4 4 8 2
t7 -5q24 -23 47.5 -47t46.5 -48q59 -65 114.5 -131t106.5 -138q51 -69 94.5 -142.5t76.5 -151.5q7 -16 10.5 -33.5t1.5 -34.5q-1 -5 -3 -11t-8 -8z" />
    <glyph glyph-name="asciicircum" unicode="^" horiz-adv-x="443" 
d="M398 424q5 -4 1 -11.5t-6 -9.5q-10 -16 -28 -29q-8 -6 -17 -11t-19 -8q-6 -4 -17 -2q-14 6 -26 15.5t-23 20.5q-10 10 -18.5 20.5t-16.5 22.5q-9 14 -17 29.5t-14 32.5q-25 -26 -50 -51.5t-51 -50.5q-16 -16 -36 -25l-12.5 -5t-14.5 -1q-6 2 -6.5 6.5t1.5 9.5q5 10 12 17
q0 2 2 2v1q2 2 2.5 3t2.5 3q4 6 8.5 12.5t9.5 11.5q8 8 15.5 14.5t16.5 11.5l2 2q1 1 2 1.5t2 1.5q5 5 10 10.5t10 10.5q20 20 39 41t37 42q8 9 16.5 16t17.5 13l12 6t12 5q7 3 17 1q6 -2 6 -8q2 -8 4 -13q14 -48 42 -88q16 -22 33 -38q10 -9 20 -16.5t19 -15.5z" />
    <glyph glyph-name="underscore" unicode="_" horiz-adv-x="519" 
d="M455 -7q5 -1 9.5 -2t4.5 -7q-1 -7 -5 -13.5t-9 -11.5q-14 -15 -33 -27q-6 -4 -14.5 -8.5t-16.5 -4.5h-24q-42 0 -83.5 -1t-83.5 -3q-20 -1 -40 -2.5t-40 -4.5l-18 -2t-18 -3l-18 -3q-3 -1 -6.5 -2t-7.5 -1q-5 -1 -9 -1t-7 4q-3 5 0 10.5t5 9.5q5 8 12 14.5t15 12.5
q8 5 16 10.5t17 7.5q1 0 1 1q4 1 7 2t7 2q5 2 10 2.5t10 2.5q38 8 77 11t78 5q42 2 82 2h82z" />
    <glyph glyph-name="grave" unicode="`" horiz-adv-x="339" 
d="M272 630q9 -5 4 -15q-3 -8 -8.5 -15t-11.5 -12q-16 -14 -35 -24q-5 -2 -13.5 -5t-13.5 -1q-9 3 -17 6.5t-16 7.5q-26 13 -51.5 26t-51.5 26q-11 6 -22 11.5t-22 10.5q-4 2 -8.5 4t-9.5 4q-7 -2 -12 -1t-5 9t4.5 14t9.5 11q8 11 20 20t25 14q17 8 31 7q10 -2 19 -6
q24 -10 47.5 -22t46.5 -24q23 -11 45 -23t45 -23z" />
    <glyph glyph-name="a" unicode="a" 
d="M463 211q1 -5 1.5 -10.5t-0.5 -11.5q-1 -7 -2 -13.5t-3 -12.5q-6 -26 -22 -50q-2 -4 -5 -8t-6 -7q-12 -17 -27 -30q-13 -13 -27 -23.5t-29 -20.5q-23 -15 -49 -26t-52 -18t-53 -9q-23 -2 -45.5 -0.5t-44.5 8.5q-19 5 -36.5 15t-31.5 25q-14 16 -21.5 35.5t-9.5 40.5
q-1 27 5 57q4 15 9 29t13 28q12 19 28.5 34.5t35.5 27.5q14 9 30 15.5t33 8.5q20 3 41 -1t41 -12q23 -9 44 -21.5t41 -26.5q7 -5 14 -10.5t15 -10.5v32q-1 25 -3 50.5t-9 49.5q-7 22 -18 40.5t-30 31.5q-26 13 -54 15q-5 1 -10.5 0.5t-10.5 -1.5q-5 -2 -8.5 -2.5t-8.5 -2.5
q-3 -2 -6.5 -2.5t-6.5 -2.5q-1 0 -1.5 -0.5t-2.5 -0.5q-13 -5 -25.5 -11.5t-25.5 -12.5l-12 -6l-2 -2q-11 -6 -23 -13q-3 -4 -6.5 -7.5l-7.5 -7.5q-8 -7 -16.5 -13t-18.5 -11q-11 -5 -20 -6h-8q-4 2 -5.5 3.5t-1.5 6.5t2.5 9.5t4.5 7.5q4 8 13 17l11 11q4 3 7 5.5t7 5.5
q3 3 5 4q6 5 12.5 9t12.5 9q8 5 17 10.5t18 10.5q30 17 61 32t64 26q13 5 26.5 8.5t27.5 3.5t28.5 -2t28.5 -7q23 -8 39 -23.5t27 -36.5q11 -23 16 -48.5t7 -51.5q2 -30 1.5 -60t-1.5 -61q8 2 13.5 1t5.5 -9zM78 364q0 1 1 1q-6 -5 -4.5 -4t3.5 3zM290 53q5 1 8.5 2t7.5 3
q3 1 5.5 1.5t5.5 1.5l4 2l15 6q0 1 1 1q-13 14 -26.5 27t-27.5 25q-17 15 -35.5 28.5t-38.5 26.5q-24 14 -50.5 26.5t-54.5 15.5q-2 -6 -2 -8q-5 -20 -6 -40.5t4 -40.5q13 -38 46 -59q19 -11 40 -16.5t42 -6.5q30 -1 62 5z" />
    <glyph glyph-name="b" unicode="b" horiz-adv-x="552" 
d="M504 344q6 -56 -8 -113q-15 -58 -52 -107t-85 -84q-22 -15 -46.5 -28.5t-51 -22t-54 -10t-54.5 6.5q-44 14 -75 48q-1 2 -4 5q-2 -5 -5.5 -10t-6.5 -9q-8 -8 -16.5 -15t-17.5 -13q-3 -2 -10.5 -6t-15.5 -6.5t-14.5 -1.5t-7.5 9q-2 10 -1.5 20t1.5 20l2 16t3 16
q7 72 20 141.5t28 139.5q18 83 35.5 165t28.5 166q-2 4 -2 6v9t1 8q-1 3 1 10q3 8 8 15.5t10 13.5q11 13 25.5 23.5t30.5 15.5q2 1 6.5 1.5t8.5 0.5t6.5 -2t2.5 -7q-8 -91 -26.5 -179.5t-37.5 -177.5q-5 -23 -9.5 -44.5t-9.5 -44.5l24 30t26 29q20 20 41 39.5t44 35.5
t47.5 30t51.5 20q18 4 37 4.5t37 -7.5q33 -16 52 -51q10 -20 18 -44q5 -15 8.5 -30t5.5 -31zM403 187q8 36 6.5 72.5t-11.5 71.5q-8 25 -20 49.5t-35 40.5q-17 9 -32 10q-5 0 -9 -0.5t-9 -1.5l-9 -3h-2l-1 -1q-4 -2 -7 -3q-2 -2 -4 -2.5t-4 -2.5t-4 -3t-6 -5q-2 -2 -5 -4.5
t-5 -4.5q-4 -3 -7 -6l-6 -6l-8 -8q-4 -5 -7.5 -9t-8.5 -9q-3 -5 -6.5 -8.5t-7.5 -8.5q-1 -1 -1 -1.5t-1 -1.5q-2 -2 -3.5 -4.5t-3.5 -4.5q-14 -20 -27 -40.5t-25 -41.5q-5 -9 -9.5 -18t-8.5 -19v-1v1q0 -2 1 -3q11 -39 31 -75t55 -59q14 -9 30 -13.5t33 -6.5q18 0 35 3
q4 1 10 3l9 3q2 1 5 2t5 2v1q4 1 7 4q2 1 3 2t3 2l6 6l2 1q3 4 6 7t5 7q1 0 1 0.5t1 0.5q4 6 6 10q3 4 5.5 8t4.5 8q15 29 23 60z" />
    <glyph glyph-name="c" unicode="c" horiz-adv-x="524" 
d="M474 356q2 -5 0 -10.5t-5 -10.5q-5 -8 -12.5 -15t-15.5 -13t-16.5 -11t-18.5 -8q-4 -2 -11.5 -3t-9.5 4q-24 42 -55.5 81.5t-73.5 66.5q-17 10 -34 16t-36 8q-6 0 -11.5 -0.5t-11.5 -1.5q-2 -1 -8 -3q-2 0 -2 -1h-1q-2 -2 -3 -2q0 -1 -2 -3q-1 -1 -2 -1.5t-2 -2.5v-1
q-6 -7 -11 -16q-16 -31 -25 -69q-11 -50 -11 -102t14 -102q9 -32 26.5 -61.5t45.5 -48.5q23 -14 52 -16q16 0 34 3q4 1 7.5 2t8.5 3q1 0 1.5 0.5t1.5 0.5q2 1 4 1.5t4 1.5q1 1 5 3q2 2 4 2q2 2 4 3q1 0 3 2t3 2q1 2 2 2.5t2 1.5l3 3q3 3 4 5q2 1 2.5 2t1.5 2q2 2 2.5 3
t1.5 2l9 15q8 15 13 34q1 5 1.5 9t1.5 8q0 8 4.5 14.5t9.5 11.5q7 8 15.5 15t18.5 13q7 5 15.5 8.5t17.5 4.5q5 1 9.5 -1t4.5 -8q-1 -16 -6 -34q-5 -16 -12.5 -31t-16.5 -29q-12 -18 -26 -34t-30 -30q-35 -30 -75 -52.5t-85 -32.5q-34 -7 -63 -1q-29 4 -55 24q-22 17 -37 40
t-24 49q-23 61 -23.5 126.5t16.5 128.5q9 31 23 59.5t34 53.5q11 14 23.5 25t25.5 22q13 10 26.5 18.5t27.5 15.5q25 13 50 17q10 2 19.5 2.5t18.5 0.5q35 -2 66 -20.5t56 -41.5q27 -26 49 -56t39 -63zM141 444q-2 -2 -3 -3.5t4 4.5z" />
    <glyph glyph-name="d" unicode="d" horiz-adv-x="499" 
d="M545 271q5 -2 5.5 -6.5t-1.5 -8.5q-10 -27 -26.5 -50.5t-35.5 -44.5q-9 -10 -18.5 -20t-20.5 -19q2 -46 0 -91q-1 -7 -5 -13.5t-9 -11.5q-8 -9 -16.5 -16t-18.5 -13q-3 -2 -10.5 -5.5t-15.5 -6t-14.5 -1.5t-6.5 9q0 4 -0.5 7.5t-0.5 7.5q-1 14 -2 28.5t-2 28.5
q-28 -17 -56.5 -31.5t-58.5 -25.5t-62 -16.5t-64 -0.5q-13 2 -25.5 8.5t-23.5 14.5q-16 11 -31 32q-13 21 -19 45.5t-7 49.5q-1 29 3 57t11 56q7 26 16 52t21 51q7 13 13.5 25.5t14.5 25.5l12 18l6 9q3 3 5.5 6t4.5 6l2 2v1q20 26 43.5 48.5t52.5 39.5q20 11 43.5 19.5
t46.5 2.5q14 -4 22 -10q-2 33 -3.5 66t-1.5 66q-5 3 -5 9q0 11 1.5 23t3.5 24q1 6 1 11.5v11.5v2q1 5 3.5 9t5.5 9q2 2 2.5 3t2.5 2q14 17 33 28q2 1 9.5 5t16 6.5t15 2t6.5 -8.5q-2 -96 4.5 -189.5t15.5 -188.5q5 -59 10.5 -116.5t8.5 -116.5q2 3 3 5.5t3 5.5q5 8 6 13
q4 8 10 15.5t12 12.5q8 8 17 14t19 11q6 3 14 5.5t15 0.5zM337 88q2 1 2.5 1.5t2.5 1.5l-6 51q-6 46 -14.5 91.5t-21.5 90.5l-6 21q-6 18 -13.5 36t-17.5 35q-7 12 -15.5 23t-20.5 19q-10 5 -22 7h-4h-1q-2 -2 -2 -4l-9 -9q-1 -2 -3 -4.5t-3.5 -4t-0.5 0t6 7.5q-2 -4 -5 -7
t-5 -6q-1 -2 -3 -4q-13 -18 -21 -34q-32 -59 -47 -124q-8 -35 -10.5 -72t6.5 -72q7 -22 19.5 -40t31.5 -30q5 -4 11 -6.5t12 -4.5t12.5 -3t12.5 -2q26 0 46 4q9 3 18.5 6t18.5 6q1 0 2 1q3 1 5.5 2t5.5 3q5 2 10.5 4.5t10.5 5.5q2 1 2.5 1t2.5 1q3 2 6.5 4t6.5 4z" />
    <glyph glyph-name="e" unicode="e" horiz-adv-x="516" 
d="M606 208q3 -5 0 -11l-5 -10q-20 -31 -45.5 -57t-54.5 -49q-28 -22 -59 -40t-64 -32t-67 -23t-70 -11q-30 -2 -60.5 2.5t-58.5 17.5q-59 28 -94 81q-34 55 -28 119q3 35 15.5 67t31.5 61q22 35 51 65t62 55q32 24 68.5 43.5t75.5 29.5q17 4 34 6t34 2q14 0 28 -1t28 -4
q21 -5 35 -16q12 -8 15 -24q2 -8 1 -15.5t-3 -14.5q-6 -18 -19 -35q-17 -25 -39 -46t-45 -40q-22 -18 -45.5 -33.5t-48.5 -29.5q-26 -14 -54 -27t-57 -23q-17 -5 -34.5 -8.5t-35.5 -5.5q2 -8 3 -11q10 -33 32.5 -61t51.5 -47q23 -14 48.5 -21t52.5 -9q36 -2 72 6q8 2 15 4
t15 5q5 1 15 5q2 0 2.5 0.5t1.5 0.5q8 3 14.5 6.5t13.5 7.5q1 0 1.5 0.5t1.5 0.5q4 2 7 4l6 4q2 2 5 3t5 3q1 1 2 1.5t2 1.5l12 9l2 2q4 3 7.5 6.5t7.5 6.5q2 2 3.5 4t3.5 4q6 6 9 10q2 2 2.5 3t2.5 3t6 8q5 8 12.5 15.5t15.5 13.5t17 11t18 8q5 2 11.5 3t10.5 -4zM121 336
q-13 -26 -21 -56q-2 -8 -3 -15.5t-2 -15.5q5 4 9 7t9 6q6 4 11.5 6.5t11.5 4.5q8 2 10 2q18 4 35.5 6t35.5 6q5 2 8.5 3t7.5 3q1 0 5 2q16 6 33 15q8 3 13 7q3 1 7 3q5 4 11 7t11 7q4 1 9 6q11 7 19 14q2 1 3.5 2t3.5 3q4 4 7.5 7t8.5 7q1 2 5 6q2 2 2.5 3t2.5 3q4 6 6 10
q2 2 2.5 5t1.5 5q1 7 0 14q-3 9 -13 16q-13 7 -28 9.5t-29 3.5q-32 2 -58 -4q-2 0 -2.5 -0.5t-1.5 -0.5q-7 -2 -13 -4l-12 -4q-1 0 -2 -1q-2 -1 -3.5 -1.5t-3.5 -1.5q-3 -2 -5.5 -3t-5.5 -2q-2 -1 -3 -2t-3 -2l-9 -6q-4 -2 -5 -4l-9 -6q-2 -2 -3 -2.5t-3 -2.5l-9 -9l-5 -5
q-2 -3 -5 -6l-5 -5q-1 -2 -4 -5q-2 -3 -4.5 -6t-4.5 -7q-4 -5 -7 -10.5t-7 -11.5zM404 72q-2 -1 -4 -1.5t4 1.5z" />
    <glyph glyph-name="f" unicode="f" horiz-adv-x="318" 
d="M376 743q3 -29 3 -56.5v-56.5q0 -7 -4.5 -13.5t-9.5 -11.5q-14 -15 -33 -27q-2 -2 -9.5 -5.5t-15.5 -6t-14 -1.5t-6 9q0 42 -3 84q-2 21 -4.5 41t-7.5 40q-5 17 -14 33.5t-24 27.5q-7 3 -13 5t-14 3q-5 0 -9 -0.5t-9 -1.5l-2 -1q-2 -3 -6 -7q-1 0 -1 -1q-1 -1 -1.5 -2
t-2.5 -3q-5 -7 -9 -14t-9 -15q-20 -38 -34 -78.5t-24 -82.5q-5 -24 -9.5 -48.5t-6.5 -50.5q20 4 40.5 4.5t40.5 1.5h48t48 2q5 0 9.5 -1.5t4.5 -7.5q0 -7 -4.5 -13.5t-9.5 -11.5q-12 -14 -28.5 -25t-35.5 -15q-23 -4 -46 -4h-46h-20q2 -30 4.5 -60t6.5 -59q5 -50 13 -98.5
t22 -96.5q6 -23 17 -47l8 -14t10 -12h2q6 1 13 0q5 -2 5.5 -6t-1.5 -9q-3 -8 -9 -15t-12 -12q-8 -8 -16.5 -14t-18.5 -10q-9 -4 -19 -7t-20 -1q-5 1 -13 7q-6 3 -10.5 9.5t-7.5 12.5q-5 8 -8.5 17t-6.5 17q-16 47 -24.5 96t-15.5 97q-6 45 -10 89t-5 89q-9 -2 -12 3l-2 6
t0 6t1 5.5t2 4.5q1 3 2 4.5t2 3.5l2 4q4 4 5 6q1 5 1 9t1 9q3 26 8.5 51.5t11.5 51.5q8 29 17 57.5t21 55.5q14 31 30 59.5t39 53.5q31 35 68 58q35 23 75 29q13 2 26.5 1t25.5 -7q23 -11 34 -31q8 -11 12 -23.5t8 -25.5q4 -14 5.5 -27t3.5 -27z" />
    <glyph glyph-name="g" unicode="g" horiz-adv-x="597" 
d="M595 413q5 -20 3 -39t-7 -38q-5 -22 -15 -42.5t-22 -39.5q-14 -21 -30 -41t-33 -38q-25 -25 -50 -47q3 -52 8.5 -103.5t10.5 -103.5q7 -65 11.5 -129.5t2.5 -129.5q-2 -29 -5 -58t-9 -57q-13 -60 -43 -115q-18 -31 -42.5 -57.5t-52.5 -48.5q-32 -26 -70 -46
q-29 -15 -62 -24q-31 -7 -61.5 -8t-60.5 6q-29 6 -55 18t-51 27q-51 32 -91 77t-66 98q-28 57 -38 116q-5 29 -3.5 57.5t7.5 57.5q6 22 14 41.5t19 38.5q13 22 30 42q9 11 18 20.5t20 18.5q9 8 18.5 15.5t18.5 14.5q8 6 17 11t18 8q5 2 11.5 3t10.5 -4q3 -5 0 -11l-5 -10
q-5 -8 -12.5 -15t-15.5 -13q-2 -2 -5 -4t-5 -4l-3 -3q-4 -4 -7 -6q-3 -4 -6 -7t-6 -7q-2 -2 -3 -4l-2 -4q-3 -4 -5.5 -7.5t-4.5 -7.5l-2 -4l-2 -4q-4 -8 -7 -17q-6 -13 -9 -29q-8 -35 -6 -72t12 -72q10 -36 27 -69q27 -53 66.5 -97t89.5 -76q30 -19 64 -31t70 -14
q8 -1 16.5 -0.5t16.5 1.5q5 1 9 1.5t8 1.5q2 0 3 1q2 0 8 2q2 1 5 1.5t5 1.5q1 0 1 0.5t1 0.5q5 2 13 6q2 1 8 5q1 0 3 2q6 4 8 6q1 0 1 0.5t1 0.5q4 4 6 7l3 3q6 6 9 10l1 1q4 5 7.5 10.5t6.5 10.5l3 6q4 6 5 9q3 6 5.5 12t5.5 12q9 25 15 49q2 8 2 13q12 60 12.5 122
t-3.5 123q-5 67 -12.5 133t-12.5 133q-2 12 -2.5 24.5t-1.5 24.5q-12 -7 -24.5 -13.5t-25.5 -12.5q-42 -19 -88.5 -30.5t-92.5 -0.5q-17 5 -33.5 13.5t-29.5 22.5q-15 16 -24 35.5t-14 40.5q-3 11 -5 23t-1 24q1 14 3.5 27t6.5 26q11 28 28 53.5t37 47.5q50 52 111 91
t129 64q26 9 52.5 15.5t53.5 8.5q11 1 20.5 1t20.5 -2q4 3 8 5.5t9 4.5q9 5 21 7h8q24 -14 42 -31q14 -14 23.5 -30.5t14.5 -36.5zM316 -621q2 2 3 3.5t-4 -4.5zM321 413q-2 0 -3.5 -0.5t4.5 1.5zM335 104q2 1 3.5 2t3.5 2q-2 38 -0.5 75t6.5 75q4 28 10 56t17 54
q10 25 26 51q-4 1 -7.5 1h-6.5q-7 1 -13.5 0.5t-13.5 -1.5q-13 0 -23 -3q-5 0 -13 -2q-1 0 -1.5 -0.5t-1.5 -0.5q-26 -6 -51 -15l-6 -3q-6 -2 -9 -4q-7 -3 -13 -5.5t-12 -6.5q-4 -1 -10 -5q-2 0 -4 -2q-7 -4 -13 -7.5t-12 -7.5l-2 -1q-3 -3 -9 -7l-12 -9q-5 -4 -8.5 -7.5
l-8.5 -8.5l-3 -3q-2 -3 -8 -9q-1 -2 -4 -5q-2 -2 -2.5 -3.5t-2.5 -3.5t-3.5 -5t-3.5 -6l-2 -4t-3 -4q-4 -8 -7.5 -17t-5.5 -18q-7 -37 4 -76q7 -23 19.5 -43t32.5 -34q14 -8 29 -12t30 -5q12 -1 24.5 0.5t24.5 3.5q1 0 1.5 0.5t1.5 0.5q2 1 3.5 1t3.5 1q4 1 7.5 2t7.5 2
q10 4 14 6q3 0 5 2zM498 291q4 17 4.5 33t-4.5 33q-1 2 -1.5 3.5t-1.5 3.5q-10 -5 -22.5 -8t-12.5 9q-1 3 -1 6.5t-1 7.5q-1 0 -1 2q-2 -5 -3 -9t-2 -9q-10 -44 -12.5 -89t-1.5 -90l15 18h1l6 9l12 18q4 6 6 10v1l9 18q4 8 6.5 16.5t4.5 16.5zM-230 -299q1 2 1 3.5t1 3.5
q0 -2 -1 -3q0 -3 -1 -4z" />
    <glyph glyph-name="h" unicode="h" horiz-adv-x="523" 
d="M440 71v-40t5 -40q-1 -8 -6 -16q-2 -2 -4 -4.5t-4 -4.5q-8 -9 -16.5 -16t-18.5 -13q-8 -5 -16 -8.5t-17 -5.5q-6 -1 -13 4q0 2 -0.5 3t-0.5 2q-5 20 -5.5 40t-0.5 40q1 27 1.5 53.5t2.5 53.5q2 59 0 116q-2 26 -5 52t-10 51q-7 23 -19 44t-33 35q-19 12 -43 15
q-3 0 -6 -0.5t-7 -0.5q-1 -2 -4 -5q-1 -2 -1.5 -2.5t-1.5 -2.5q-5 -7 -9 -13.5t-8 -13.5q-23 -42 -37.5 -87.5t-25.5 -91.5q-2 -7 -4 -17q-8 -37 -14.5 -75t-9.5 -76q-1 -8 -5 -14t-9 -11q-8 -9 -16.5 -16t-18.5 -13q-7 -5 -15.5 -8.5t-17.5 -4.5q-8 -2 -12 3q-1 2 -1 3
t-1 3q-6 33 -9 70q-9 93 -10.5 185.5t-11.5 185.5q-3 31 -8 61t-10 61l-4 32t-3 33q-2 31 4 56q-1 0 -1 -2q0 2 1 2q0 4 1 6q0 -1 -0.5 -1.5t-0.5 -1.5q2 5 3.5 10.5t3.5 10.5q6 11 13.5 20.5t16.5 18.5q8 8 17 13.5t18 10.5q6 3 13.5 5.5t14.5 0.5q5 -1 6 -5t-1 -8.5t-5 -9
l-5 -7.5q-1 -2 -1.5 -3.5t-1.5 -3.5q-3 -21 -3 -41q1 -33 6 -65.5t10 -64.5q6 -30 9 -56q3 -21 4.5 -42.5t3.5 -42.5q2 -27 3 -54t2 -55q14 34 30 62q14 23 30.5 44t36.5 38q15 12 31 23t34 19q12 5 25 9.5t27 4.5q22 1 43 -6.5t38 -21.5q17 -15 27 -34.5t16 -40.5
q16 -55 17.5 -112t-0.5 -114l-2 -54t-1 -54z" />
    <glyph glyph-name="i" unicode="i" horiz-adv-x="236" 
d="M171 62q1 -11 1 -20.5t-2 -19.5q0 1 0.5 1.5t0.5 1.5v-3q-1 -7 -5 -13.5t-9 -11.5q-14 -15 -33 -27q-15 -10 -31 -13q-12 0 -14 8q-1 2 -1 6q-1 2 -1 4q-2 5 -2 11v11q-1 5 -1 11v11q-1 11 -1.5 23t-1.5 23q-2 42 -5 82.5t-6 82.5q-2 19 -3 37.5t-3 38.5q-1 8 -2 17
l-2 18q-1 4 -1 8t-1 8q0 2 -0.5 4t-0.5 4q0 5 1 7v2q-1 6 4 13t9 12q13 14 32 27q8 4 16 7.5t16 4.5q7 1 12 -3q0 -2 1 -2q2 -2 2 -7q5 -20 7 -41t4 -41q5 -41 7.5 -80.5t4.5 -80.5q2 -20 3 -40.5t2 -41.5zM145 603q2 -5 0 -10.5t-5 -10.5q-12 -17 -28 -27q-8 -6 -16 -11
t-18 -8q-5 -2 -11 -3t-10 4q-16 18 -18 43q-2 18 8.5 33t22.5 27q8 8 17 13.5t18 10.5q6 2 13 5t14 1q9 -2 6 -10.5t-8 -15.5v-6.5t1 -6.5q3 -8 6.5 -14.5t7.5 -13.5z" />
    <glyph glyph-name="j" unicode="j" horiz-adv-x="258" 
d="M233 -41q0 -59 -5 -117.5t-19 -116.5q-5 -22 -12 -43t-18 -41q-17 -31 -40.5 -58t-54.5 -44q-14 -8 -30 -14.5t-33 -7.5q-22 -2 -39 4q-20 7 -36.5 19.5t-30.5 26.5q-32 35 -54 78t-33 89q-5 21 -6.5 42t1.5 42q2 11 5 21t8 20q5 9 9.5 16.5t10.5 15.5l7.5 7.5t7.5 8.5
q1 1 1.5 1t1.5 1l2 2q5 3 7 5l4 4q13 10 26 17q6 2 13.5 5t14.5 1t7 -7t-3.5 -11.5t-8.5 -12.5t-9 -9q0 -2 -1 -2q-2 -5 -3.5 -9t-2.5 -9q-5 -26 -2.5 -51.5t9.5 -50.5q3 -9 6 -17.5t6 -17.5q9 -22 20.5 -42.5t25.5 -39.5q12 -16 26.5 -30.5t31.5 -25.5q18 -12 41 -15
q2 2 2.5 4t2.5 4q10 18 16.5 38t11.5 40q7 30 11 60t6 61q5 62 3.5 123.5t-7.5 124.5q-5 57 -14 112.5t-25 110.5q-5 14 -9.5 28.5t-10.5 28.5q-4 -2 -8.5 -3t-9.5 1t-5.5 6t1.5 9v1q0 6 -1 9v8q-1 5 2 9.5l5 7.5q7 11 17 21q9 8 19.5 15t21.5 13q5 2 16.5 6t16.5 -3
q7 -12 12 -24q11 -22 18 -44.5t13 -45.5q8 -26 13 -53t10 -55q21 -122 21 -247zM-72 -96l1 1l3 3t-4 -4zM-123 -88l6 4.5t4 3.5q-7 -6 -9 -8h-1zM137 635q4 -5 1 -11t-5 -9q-11 -16 -28 -29q-8 -5 -17 -10.5t-18 -8.5q-14 -4 -21 2q-14 11 -20.5 27t-6.5 33q0 8 4.5 14
t9.5 11q8 8 16 15.5t17 12.5q3 1 10.5 5t15.5 6.5t14.5 1.5t6.5 -9v-9.5t2 -9.5q3 -9 8.5 -16.5t10.5 -15.5z" />
    <glyph glyph-name="k" unicode="k" horiz-adv-x="608" 
d="M444 465q2 2 3 4t3 4q-5 -8 -6.5 -9t0.5 1zM595 -20q1 -4 -1 -10q-4 -9 -13 -18q-4 -5 -10.5 -11t-11.5 -10t-12 -8.5t-14 -7.5q-6 -2 -12.5 -4.5t-13.5 -2.5q-8 -2 -12 3q-11 34 -22.5 67t-28.5 65q-26 50 -62 92.5t-84 72.5q-4 2 -7 4t-7 4q-38 22 -79.5 34.5
t-85.5 18.5q3 -36 9 -76q2 -20 5 -39.5t7 -39.5q2 -10 4 -19t4 -19q4 -13 5 -22q3 -8 3 -15q1 -7 -4 -13.5t-10 -11.5q-7 -9 -15.5 -16t-18.5 -13q-7 -5 -15.5 -8.5t-16.5 -4.5q-8 -2 -13 4q-2 7 -3.5 14t-3.5 14q-2 6 -3 12l-2 12q-3 13 -5.5 25t-4.5 25q-8 49 -13.5 98
t-8.5 100q-5 0 -9.5 1t-4.5 8q2 9 7 16q2 2 3 3.5t3 3.5q-3 52 -3 104q-1 70 1.5 140.5t9.5 140.5q-3 0 -5 1q-5 2 -5.5 6t1.5 9l9 21q3 8 8 15t10 13q12 13 25.5 23.5t30.5 15.5q4 1 14 1.5t9 -8.5l-4 -48l-4 -48q-11 -164 -3 -328q4 1 7 2l6 2q45 17 91 31.5t91 31.5
q10 3 23 8q3 1 7 3t5 2l27 12q-3 4 0 10.5t5 9.5q5 8 12 14.5t15 12.5t16.5 11t18.5 8q5 2 10.5 2.5t10.5 -3.5q3 -4 5 -8q1 -2 1 -3t1 -3q1 -5 0 -9.5t-3 -8.5t-4 -7.5t-4 -6.5q-1 -1 -1.5 -2t-1.5 -2v1v-1q-4 -4 -5 -7q-1 0 -1 -1q-3 -3 -6.5 -6t-6.5 -6
q-16 -16 -34 -27.5t-38 -21.5q-23 -12 -46.5 -21.5t-47.5 -18.5l-28 -10l-28 -10q20 -4 40.5 -8.5t40.5 -10.5q54 -17 101.5 -47.5t85.5 -74.5q36 -43 61 -93t42 -104q0 1 1 1q5 0 9.5 -1.5t4.5 -7.5q0 -2 -2 -8v-1q2 -6 2 -9z" />
    <glyph glyph-name="l" unicode="l" horiz-adv-x="216" 
d="M181 20q4 -10 -4 -21q-11 -16 -28 -29q-8 -6 -17 -11t-18 -8q-4 -1 -11.5 -2.5t-10.5 3.5q-8 17 -14.5 34.5t-11.5 36.5q-5 17 -8.5 34.5t-7.5 35.5q-6 37 -9 74t-5 75q-4 82 -1.5 163.5t0.5 162.5q-1 17 -1.5 34t-1.5 34q-1 10 -1 20t-1 21q-1 5 -1 9v9q0 3 -1 4v3v5
q-2 5 0 8v1q-1 2 1 7q1 1 1 1.5t1 1.5q1 3 2.5 5.5t3.5 4.5q0 1 0.5 1t0.5 1h1v1l2 2q18 21 45 34h2q3 2 9 4t8 2h1q3 2 5 0q4 0 7 -3q2 -6 2 -9q2 -2 2 -6v-6q0 -3 0.5 -6t0.5 -5q1 -8 1 -14.5t1 -13.5q1 -13 1.5 -25.5t1.5 -26.5q3 -66 1.5 -132.5t-1.5 -133.5
q1 -81 6 -161.5t27 -158.5l10 -30z" />
    <glyph glyph-name="m" unicode="m" horiz-adv-x="630" 
d="M578 160q0 -30 1 -60.5t6 -59.5q0 -5 -2 -9l-4 -8q-2 -2 -4 -4.5t-4 -4.5q-8 -9 -16.5 -16t-18.5 -13q-8 -5 -16 -8.5t-17 -5.5q-8 -2 -13 4l-3 6q-2 6 -2 7v2q-2 5 -4 9.5t-5 8.5q-5 4 -1.5 11t5.5 10q2 2 2 3q-2 23 -1.5 47t0.5 48q0 35 0.5 69.5t-1.5 69.5
q-2 32 -5.5 63.5t-11.5 61.5q-2 5 -3 8.5t-3 8.5q-9 -27 -15 -54q-17 -74 -26.5 -149.5t-32.5 -148.5q-2 -8 -9 -15.5t-13 -12.5q-15 -15 -37 -26q-3 -1 -8.5 -3.5t-11.5 -3t-10.5 1t-4.5 7.5v14q1 43 1.5 85t-0.5 85q-2 52 -6 105q-3 23 -6.5 46t-10.5 45q-5 20 -14.5 39.5
t-26.5 30.5q-2 2 -3 2q-9 -19 -15 -39t-11 -40q-2 -10 -4 -15q-11 -53 -17.5 -105.5t-11.5 -106.5q-3 -23 -5 -45.5t-5 -45.5q-2 -17 -4 -33.5t-7 -33.5q-5 -11 -12 -18l-10 -10q-8 -8 -17 -14t-20 -11q-6 -3 -13.5 -6t-14.5 -1q-7 4 -6 9q-19 81 -28 162t-14 163
q-2 31 -4 61.5t-2 60.5v41v17v7q0 3 0.5 5.5t1.5 5.5q2 5 6 10t7 9q7 8 15.5 15t16.5 12l16 8t21 5q6 0 7 -4q3 -3 3 -6v-58v-27q0 -12 0.5 -24t1.5 -24q2 -15 2.5 -29.5t1.5 -29.5q5 18 9.5 36t11.5 35q8 23 19.5 44t27.5 38q15 15 31.5 28.5t36.5 22.5q13 6 26.5 9.5
t27.5 1.5q16 -2 28.5 -12.5t20.5 -24.5q11 -18 17 -38.5t11 -40.5q2 -8 3 -15t3 -14q12 28 28 54t36 49q9 11 21 20t26 16q6 2 17 6t17 -3q18 -22 28.5 -49t16.5 -55q7 -32 9 -65t3 -65q1 -35 0.5 -69.5t0.5 -69.5z" />
    <glyph glyph-name="n" unicode="n" horiz-adv-x="475" 
d="M415 284q3 -33 3.5 -66t0.5 -66q-1 -32 -1.5 -63.5t-2.5 -63.5q-2 -26 -3 -52t-1 -52q0 -7 -5 -13.5t-9 -11.5q-8 -9 -16.5 -16t-18.5 -13q-2 -2 -10 -5.5t-16 -6t-14.5 -1.5t-6.5 9v1q-1 26 0 51.5t3 51.5q2 32 2.5 63.5t1.5 63.5q1 33 0 66t-4 66q-2 30 -6.5 59.5
t-12.5 58.5q-5 17 -12 33.5t-16 31.5q-7 11 -15 21t-19 17q-20 -39 -32.5 -82t-23.5 -86q-6 -26 -11.5 -52.5t-10.5 -53.5q-6 -37 -12 -73.5t-8 -74.5q-1 -8 -5 -14t-9 -11q-8 -9 -16.5 -16t-18.5 -13q-2 -2 -10 -5.5t-16 -6t-14.5 -1.5t-6.5 9q0 52 -2.5 103.5t-6.5 102.5
q-3 38 -6.5 76.5t-7.5 77.5q-2 17 -3.5 34t-3.5 34q-1 8 -2 15t-2 15q0 4 -0.5 7.5t-0.5 7.5q-1 2 -1 6q-1 4 1 8q-1 3 -1 5.5t-1 5.5q-1 6 4.5 12.5t8.5 11.5q15 15 32 26q3 2 10 5.5t14.5 6t13.5 1t7 -8.5q0 -4 1 -7q3 -2 3 -7q5 -41 10 -81t9 -81q5 11 9 22.5t9 22.5
q10 21 21.5 41t26.5 37q11 13 24.5 24.5t28.5 20.5q12 7 25.5 13t27.5 6q8 0 15 -1t15 -6t15 -10.5t13 -13.5q17 -20 27.5 -44.5t18.5 -50.5q8 -29 13 -59.5t7 -60.5z" />
    <glyph glyph-name="o" unicode="o" horiz-adv-x="473" 
d="M420 372q3 -11 5 -22.5t2 -23.5q0 -26 -6 -51q-12 -60 -41 -117q-17 -32 -38.5 -62t-48.5 -56q-28 -27 -64 -47q-17 -10 -35.5 -17.5t-38.5 -9.5q-26 -5 -51 5q-26 9 -49 30q-10 9 -18.5 19t-14.5 22q-5 8 -8 16l-6 16q-14 45 -16 92t3 93q4 50 20 100q7 22 16 43t23 40
q20 29 48.5 52t62.5 35q11 5 22.5 6t23.5 0q2 0 3 -0.5t3 -0.5l1 1q18 7 36.5 10t37.5 -4q25 -8 44.5 -26.5t34.5 -39.5q33 -45 49 -103zM331 264q0 12 -1.5 24.5t-5.5 23.5q-6 23 -16 43.5t-22 39.5q-11 17 -24 32t-30 27q-14 -10 -28 -15q-6 -2 -11 -2t-10 4q-4 2 -6 4
l-6 3q-7 -5 -15 -10t-17 -7q-4 -2 -11 -3t-10 4l-1 1q-10 -23 -16 -52q-3 -14 -5.5 -27t-4.5 -27q-5 -45 -4 -90.5t13 -89.5q6 -21 17 -40q21 -32 50 -51q19 -12 43 -15q5 0 8.5 0.5t8.5 1.5q2 0 2.5 0.5t2.5 0.5q0 1 2 1q1 0 1.5 0.5t1.5 0.5v1h1l2 2q2 2 3 2.5t3 2.5
q0 1 0.5 1t0.5 1q3 2 7 8l5 5q1 2 2 3t1 2q7 9 13 18.5t12 19.5q12 23 21 47t16 49q3 14 5 28t2 28z" />
    <glyph glyph-name="p" unicode="p" horiz-adv-x="522" 
d="M467 348q8 -55 -2.5 -109t-37.5 -102q-16 -28 -37.5 -51.5t-47.5 -42.5q-25 -18 -54.5 -32.5t-61.5 -15.5q-12 0 -24 1t-24 5q-14 4 -27 12q1 -60 3.5 -119t10.5 -119q-2 -9 -7 -16q-2 -2 -3.5 -4.5t-3.5 -4.5q-8 -9 -16.5 -16t-18.5 -13q-8 -5 -16 -8.5t-17 -4.5
q-8 -2 -12 3q-1 2 -1 3t-1 3q-6 22 -9 47q-4 35 -5.5 70t-2.5 70q0 30 0.5 59.5t1.5 59.5q0 15 -0.5 30t-0.5 31q0 7 -0.5 14t-0.5 15q-2 2 -2.5 3.5t-1.5 3.5q-3 5 -1.5 9.5t4.5 8.5q-3 61 -10 121.5t-24 119.5q-3 11 -6.5 21t-7.5 21q-5 12 -10 23q-1 3 -5 11q-1 2 -3 5.5
t-1 7.5q-2 5 0.5 9t4.5 8q12 17 28 28q8 6 16.5 11t18.5 8q5 2 11 3t10 -4l1 -1l1 -1l30 -30q4 -4 0.5 -11t-5.5 -10l-1 -2q3 -10 6.5 -19.5t5.5 -19.5q2 -7 4 -13.5t4 -14.5l3 9q8 18 18.5 34.5t22.5 32.5q9 11 18.5 19.5t19.5 17.5q10 8 21 14.5t22 11.5q17 8 34.5 11
t35.5 -1q15 -4 28.5 -12t24.5 -18q42 -34 67 -80.5t33 -99.5zM367 174q17 75 -3 148q-17 56 -51 97q-12 14 -25.5 27t-29.5 24q-15 9 -33 12l-2 -4q-14 -26 -22.5 -53t-15.5 -55q-8 -36 -13.5 -72t-10.5 -73q-2 -15 -3 -30.5t-3 -30.5q8 -9 15 -17.5t15 -16.5
q10 -11 20.5 -20t22.5 -17q14 -8 29 -13.5t31 -7.5q6 0 11.5 0.5t10.5 1.5q2 1 4 1.5t4 1.5h2q0 1 0.5 1t0.5 1q3 2 7 8q2 2 2 3q2 2 3 4t3 4t3.5 5t3.5 6q16 33 24 65zM113 433l-2 4v1z" />
    <glyph glyph-name="q" unicode="q" 
d="M617 -157q6 -3 6 -9l-1 -7q-4 -8 -10 -15t-12 -12q-8 -8 -16.5 -14t-18.5 -11q-5 -2 -13.5 -5t-14.5 -1q-25 11 -50 21.5t-51 20.5q2 -6 3 -11.5t3 -10.5q11 -37 25.5 -72.5t35.5 -67.5q3 -5 0.5 -11t-5.5 -11q-5 -8 -13 -15.5t-16 -13.5t-17 -11.5t-19 -8.5
q-4 -2 -11.5 -3t-10.5 4q-12 18 -21 36q-28 54 -44 111.5t-24 117.5q-11 2 -22.5 3t-22.5 2q-14 1 -27.5 0t-27.5 -4q-7 -1 -16 -5q-2 -1 -3 -1t-3 -1q-2 -2 -9.5 -5.5t-15.5 -6t-14.5 -2t-6.5 8.5q1 8 5 14t9 11q8 8 16 15.5t17 12.5q52 32 111 38q-5 48 -6.5 96.5
t-1.5 96.5q-17 -20 -36 -38t-40 -34q-14 -10 -28.5 -19t-29.5 -17l-22 -10t-22 -7q-19 -5 -39 -6t-37 9q-18 9 -29.5 24t-18.5 34q-4 9 -7 19t-3 21q-1 8 0 16t3 16q5 23 12 44t17 42q12 25 25.5 49t28.5 47q31 48 68 88q24 26 50.5 47.5t57.5 38.5q24 12 50 18q4 0 7.5 0.5
t7.5 0.5q5 -1 10.5 -1t10.5 -3l-1 1q6 -2 9 -4q2 -2 4.5 -2.5t4.5 -2.5t3 -2l1 1q8 5 16.5 8.5t17.5 4.5q6 1 12 -3q16 -38 17.5 -79t-7.5 -82q-3 -14 -7 -27.5t-9 -27.5q-2 -54 -1.5 -107t2.5 -107q2 -38 5.5 -75t8.5 -75q17 -4 34.5 -9t34.5 -10q35 -11 67.5 -25t64.5 -30
zM212 84q-1 0 -1 -1q6 5 4.5 4t-3.5 -3zM283 178q7 11 12.5 23t10.5 25q1 45 2.5 90t3.5 90q-4 -2 -6 -2q-4 -2 -10.5 -3t-10.5 4q-3 4 -10 11q-4 2 -6 4t-5 2.5t-5 1.5h5q-4 0 -7 0.5t-6 0.5h-8q-3 -1 -7 -3q-1 0 -2 -1q-4 -2 -5 -4q-1 0 -3 -2t-4 -3.5t-4 -3.5l-3 -3
q-1 -2 -2 -2.5t-2 -2.5q-4 -5 -8 -9t-8 -9q-2 -2 -4 -5t-4 -5q-1 0 -1 -1q-15 -20 -28.5 -40.5t-25.5 -42.5q-13 -25 -24 -50t-18 -52q-2 -14 -3 -26.5t3 -26.5q5 -18 14.5 -34.5t25.5 -27.5q13 -7 29 -9q6 0 16 2q4 0 8 2q1 0 2 1q2 1 4.5 2t4.5 2t2.5 1.5t2.5 1.5q2 2 6 4
l3 3q2 2 3 2l12 12l4 4q2 2 4 4.5t4 4.5q5 5 11 13q4 6 6 7q3 6 7 10q14 21 24 40z" />
    <glyph glyph-name="r" unicode="r" horiz-adv-x="505" 
d="M668 130q3 -5 0 -11l-5 -10q-7 -11 -14.5 -19.5t-16.5 -17.5l-4 -4l-15 -12q-2 -2 -4 -3.5t-4 -3.5q-29 -22 -66 -33q-26 -8 -49 -8q-28 -1 -55.5 3.5t-53.5 11.5q-29 8 -56.5 18t-55.5 20q-27 11 -54 21t-55 19q-11 4 -21 7t-21 6q4 -33 8.5 -66t8.5 -67
q1 -6 -4.5 -13.5t-9.5 -11.5q-8 -9 -16.5 -16t-18.5 -13q-7 -5 -15.5 -8.5t-17.5 -4.5q-8 -2 -12 3q-8 24 -13.5 49t-9.5 51q-5 45 -6 89.5t-2 89.5v64.5t-5 64.5q-2 24 -5.5 47.5t-5.5 47.5q-1 10 -1.5 19.5t0.5 19.5q1 5 2 9.5t3 9.5q5 9 10.5 16t13.5 14q6 6 11.5 10
t12.5 9q14 11 32 14q8 2 15 -1q7 -5 14 -11q4 -4 1 -11t-5 -9q-8 -11 -17 -19q1 -2 1 -6q1 -23 6 -49q1 -7 1.5 -14t2.5 -15l4 4l4 4q14 14 31 26.5t34 22.5q17 9 34.5 16.5t36.5 12.5q22 5 44 6t41 -13q13 -9 18.5 -24.5t6.5 -30.5q1 -20 -3.5 -40.5t-12.5 -39.5
q-19 -49 -49 -86q-17 -21 -35.5 -40t-39.5 -36q5 -2 15 -4q27 -8 53.5 -18t52.5 -20q29 -11 56.5 -21t56.5 -19q25 -8 50.5 -13.5t51.5 -7.5q9 0 18.5 0.5t19.5 2.5h2q10 13 24 24q8 6 17 11t18 8q5 2 11.5 3t10.5 -4zM181 215q-1 0 -2 -1q-1 0 -1 -0.5t-1 -0.5l2 1l2 1
l-2 -1q1 0 1 1h1zM122 328q-8 -33 -10 -66.5t0 -67.5q9 4 17 5q5 0 9 0.5t9 1.5q2 1 5 1.5t5 1.5t3 1t3 1q4 2 5 2q2 1 2.5 1.5t2.5 1.5q2 0 4 2q1 1 2 1q1 2 5 4q2 2 3.5 3t3.5 3q1 1 1 1.5t1 1.5q2 1 2.5 2t2.5 3t4 4.5t4 4.5q0 1 0.5 1t0.5 1q11 14 21 32q16 29 23 57
q3 14 3.5 28t-2.5 28q-6 17 -19 27q-5 3 -10.5 4t-11.5 2q-5 0 -10.5 -0.5t-10.5 -1.5l-12 -3q-3 -1 -7 -3h-1q-2 -1 -3.5 -2t-3.5 -2q-1 0 -1.5 -0.5t-1.5 -0.5l-2 -2q-2 -3 -5 -5q-2 -4 -4 -6q-4 -8 -7 -11q-7 -14 -11.5 -28t-8.5 -28zM582 82q-7 -5 -5 -4t4 3z" />
    <glyph glyph-name="s" unicode="s" horiz-adv-x="435" 
d="M391 157q4 -27 -6.5 -52t-29.5 -44q-38 -39 -84 -61q-20 -10 -40.5 -16t-41.5 -10q-29 -6 -58 -3.5t-55 14.5q-21 11 -39.5 26t-29.5 37q-10 22 -10 42q0 14 4.5 26.5t12.5 23.5q14 20 33 37t40 29q40 24 87 33q5 1 9 -1t4 -8q0 -7 -4.5 -13.5t-8.5 -11.5q-8 -8 -16 -15
t-18 -12q-5 -4 -10.5 -6.5t-11.5 -4.5t-12 -3.5t-12 -3.5v-1q-3 -13 1 -30q6 -19 19.5 -34.5t30.5 -26.5q32 -19 71 -22q20 0 43 5q16 3 31 9q1 0 1.5 0.5t1.5 0.5l3 9q3 20 -2 42q-7 21 -19 40t-26 36q-17 19 -36 35t-41 29q4 -2 5 -3q-18 11 -35 23t-34 26
q-15 13 -29.5 26t-27.5 29q-5 7 -10.5 15t-8.5 17q-2 5 -3 9.5t0 9.5q2 16 10 26q18 25 43.5 41.5t55.5 22.5q16 4 32 3.5t32 -2.5q21 0 41 -6q15 -5 32 -14q14 -8 27 -14t29 -8q3 1 10 1q5 1 9.5 -1t3.5 -7q0 -7 -4 -13.5t-9 -11.5q-7 -8 -15.5 -14.5t-17.5 -12.5
q-7 -5 -15 -8t-16 -4q-11 -2 -22 -1.5t-22 3.5q-8 2 -15.5 5.5t-15.5 7.5q-14 8 -28 13.5t-29 8.5q14 -17 31 -31q39 -36 81 -62q5 -4 11 -7.5t11 -7.5q41 -28 74 -70q14 -18 24.5 -39.5t13.5 -44.5zM96 166q3 2 2.5 2t-2.5 -2z" />
    <glyph glyph-name="t" unicode="t" horiz-adv-x="375" 
d="M176 391q-19 2 -37.5 7t-37.5 8q-3 -24 -4 -48t-1 -48q0 -34 4 -67.5t13 -66.5q5 -16 11 -31t15 -29q8 -12 17 -24t22 -20l10 -4t10 -3q3 4 5.5 8t4.5 8q20 39 31 84q1 2 1 5t1 5q0 -3 -2 -7q1 2 1 3t1 2q3 15 13 25q8 8 16 15.5t18 12.5q7 5 15.5 8.5t16.5 4.5
q4 1 9.5 -1t4.5 -8q-4 -26 -11.5 -51t-19.5 -48q-6 -13 -12.5 -24.5t-14.5 -22.5q-24 -32 -54 -56q-17 -14 -38.5 -25.5t-44.5 -14.5q-28 -4 -54 14q-14 9 -24 22.5t-18 27.5q-10 17 -16 34t-11 34q-9 34 -12.5 68t-3.5 69q0 38 3.5 75t9.5 74q7 39 16 77t21 76
q5 17 11 33.5t12 33.5q6 15 12 30.5t14 29.5q2 4 3.5 7.5t3.5 7.5q9 17 25 30.5t33 21.5q2 1 7.5 3t11.5 3t10.5 -1t4.5 -8q0 -2 -0.5 -3.5t-0.5 -3.5q-1 -16 -2.5 -33t-8.5 -32q-10 -21 -31 -35q-10 -27 -17.5 -54.5t-14.5 -55.5q-4 -15 -7 -30l-6 -30l18 6q19 4 38 3
t38 -6q16 -3 31.5 -6.5t32.5 -5.5q5 0 11 0.5t11 1.5q1 0 2 0.5t2 0.5q8 5 15.5 10t16.5 7q5 2 11.5 3t9.5 -4q4 -5 1 -11t-6 -10q-5 -8 -12 -14.5t-15 -12.5q-21 -18 -46 -29q-8 -4 -16.5 -7.5t-16.5 -5.5q-31 -6 -60 -2zM206 65q5 2 3.5 2t-3.5 -2z" />
    <glyph glyph-name="u" unicode="u" horiz-adv-x="454" 
d="M445 98q2 1 9.5 5t15.5 6.5t14.5 1.5t6.5 -9q0 -7 -4.5 -13.5t-9.5 -11.5q-11 -12 -24 -21q1 0 1 0.5t1 0.5q-1 0 -2 -1l-9 -6l-1 -1h-1l-2 -2l-4 -2q-8 -5 -19 -10q-9 -5 -17 -8q-2 -1 -5 -2l-6 -2t-6.5 -1.5t-6.5 -1.5q-2 0 -4.5 -0.5t-4.5 -0.5h1q-26 -3 -48 13
q-14 8 -22.5 21.5t-14.5 27.5q-4 8 -7.5 16.5t-5.5 16.5q-7 -14 -14.5 -28t-16.5 -27q-21 -32 -48 -59t-59 -47q-7 -5 -15.5 -8.5t-17.5 -4.5q-7 -2 -12 3q-8 8 -13.5 17.5t-10.5 19.5q-8 16 -12.5 32t-9.5 33q-14 49 -22 99.5t-13 101.5q-2 24 -3.5 47.5t-1.5 47.5
q0 18 1 37t6 36l-2 -7q2 11 5.5 19.5t9.5 16.5q2 2 3.5 4.5t3.5 4.5q8 8 16.5 16t18.5 13q9 5 21.5 11t23.5 2q12 -4 5 -16t-15 -20q-2 -15 -2.5 -31t-0.5 -32q1 -47 6 -95q5 -51 13 -100.5t22 -97.5q4 -14 8.5 -27.5t11.5 -26.5q1 -3 2 -5.5t2 -4.5q3 4 5.5 8t4.5 8
q20 37 33.5 76.5t23.5 80.5q3 12 5.5 24.5t4.5 24.5q1 7 2 13.5t2 13.5q-1 16 -1.5 31.5t-0.5 31.5q-1 20 -0.5 40.5t1.5 40.5q1 14 2 27t3 27q2 8 5.5 14t8.5 11q15 16 34 29q8 5 16.5 8.5t16.5 4.5q13 2 14 -9q5 -29 6 -58t-1 -58l-4 -40l-4 -40q2 -40 7 -79.5t16 -77.5
l10 -28t13 -27q5 -10 12 -18.5t17 -15.5q9 -4 20 -6h5h3q1 0 1.5 0.5t1.5 0.5z" />
    <glyph glyph-name="v" unicode="v" horiz-adv-x="377" 
d="M538 538q5 -17 6 -34t1 -34q-1 -7 -5 -13.5t-9 -11.5q-14 -15 -33 -27q-2 -2 -9.5 -5.5t-15 -6t-14 -1.5t-6.5 9q0 13 -1.5 25t-3.5 25l-1 1q-3 10 -7.5 19.5t-13.5 16.5q-2 1 -5 2t-6 1h-6l-1 -1q-1 -1 -2 -1.5t-2 -1.5q-3 -2 -8 -7l-2 -2q-4 -5 -7.5 -8.5l-7.5 -7.5
q-4 -6 -6 -8t-2 -3q-7 -9 -13 -17.5t-11 -18.5q-11 -22 -19 -46t-14 -49q-8 -35 -13 -71l-10 -72q-5 -38 -11 -75.5t-15 -74.5q-5 -11 -12 -18l-10 -10q-11 -10 -25 -19q-7 -5 -15.5 -8.5t-17.5 -4.5q-8 -2 -12 3q-13 17 -23.5 36t-20.5 38q-54 106 -95 217
q-10 26 -18.5 52.5t-16.5 54.5q-6 19 -9 41q-2 10 -2 17v7v7q1 5 1.5 8.5t1.5 7.5q2 5 5 9t7 9l9 9q8 7 16.5 13t18.5 11q6 2 13 5t14 1q5 -2 5.5 -5t-0.5 -7q1 1 1 3q0 -2 -0.5 -3.5t-0.5 -3.5q1 -3 1 -7v-7q2 -8 2 -14l3 -15q2 -8 4 -15.5t4 -15.5q16 -54 36 -105.5
t43 -102.5q7 -15 13.5 -30t14.5 -30q7 50 16 98t28 94q12 30 29.5 56.5t37.5 50.5q11 12 21.5 23t22.5 22q14 12 28 23.5t31 20.5q11 6 24 12.5t27 9.5t27.5 2t25.5 -10q8 -6 12.5 -14.5t7.5 -17.5zM411 505h1q2 1 3.5 1.5t-4.5 -1.5zM400 497q-2 -2 -3.5 -3t5.5 5z" />
    <glyph glyph-name="w" unicode="w" horiz-adv-x="518" 
d="M456 286q2 -26 1 -52t-3 -52q-2 -24 -7 -48t-13 -47q-8 -22 -21 -41q-24 -34 -63 -59q-13 -9 -28.5 -15t-31.5 -8q-8 -1 -17.5 -0.5t-17.5 4.5q-16 7 -26 19.5t-17 27.5q-8 19 -13.5 38.5t-8.5 39.5q-1 -2 -1.5 -2.5t-1.5 -2.5q-7 -14 -14.5 -28t-17.5 -27
q-14 -18 -29 -33.5t-33 -29.5q-8 -6 -17 -11.5t-19 -8.5q-4 -2 -11.5 -3t-10.5 4t-6 10.5t-6 11.5q-12 27 -18 57t-9 59q-3 34 -2.5 67.5t3.5 67.5q6 68 18 136q6 29 13 58.5t16 58.5q3 8 9.5 15t12.5 12q8 8 16.5 14t18.5 11q3 1 8.5 3t11 3t10 -1t4.5 -8q0 -12 3.5 -24
t4.5 -24q0 -7 -4.5 -13.5t-9.5 -11.5l-7.5 -7.5t-8.5 -7.5q-5 -26 -9.5 -53t-7.5 -54q-4 -35 -6 -69t-1 -69q0 -31 3.5 -61t11.5 -59q1 -2 1 -3t1 -3q11 25 18.5 51.5t14.5 52.5q2 11 4.5 21.5t4.5 21.5q11 60 18.5 119.5t18.5 119.5q3 14 14 25q15 16 34 29q3 1 10.5 5
t16 6.5t15 1.5t6.5 -9q0 -7 -0.5 -14t-0.5 -14q-2 -45 -3.5 -89t-1.5 -89q0 -26 1 -51.5t4 -51.5q3 -47 15 -90q5 -18 14 -36.5t25 -29.5q2 -1 3.5 -1.5t3.5 -1.5q3 7 5 13.5t4 13.5q9 41 10.5 83t-0.5 84q-2 50 -9 98l-2 12l-2 12q-2 -1 -3 -2t-3 -2q-6 -2 -13.5 -5
t-14.5 -1q-6 2 -6.5 6.5t1.5 9.5q1 1 1 4l4 20t5 20q6 26 25 45q11 11 22 20t25 15q8 5 21 7q7 2 12 -3q3 -8 5.5 -15t4.5 -15q5 -19 8.5 -38t6.5 -39q3 -25 5 -50t3 -50z" />
    <glyph glyph-name="x" unicode="x" horiz-adv-x="468" 
d="M427 75q5 -3 1.5 -10.5t-5.5 -9.5q-11 -16 -28 -29q-8 -5 -17 -10.5t-18 -8.5q-8 -3 -17 -1q-8 4 -15.5 9t-15.5 10l4 -3q-23 14 -44 33t-40 40q-33 36 -63 80l-1 2q-13 -23 -26 -44.5t-27 -42.5q-4 -5 -5 -11q-2 -5 -4 -10.5t-5 -10.5q-4 -9 -11 -17q-16 -17 -34 -28
q-6 -4 -11.5 -6.5t-12.5 -4.5q-2 -1 -6 -1.5t-8 -0.5t-6.5 1.5t-2.5 6.5t2 10l4 10q0 2 1 2l6 15q5 13 13 24.5t16 23.5q15 23 28.5 47t26.5 48q7 11 13 23t13 23q-11 17 -20.5 34t-19.5 34q-11 20 -23.5 40t-24.5 40q-7 0 -9 3q-5 12 -11 24t-14 23q-3 5 0 11l5 10
q5 8 12.5 15.5t15.5 13.5t17 11t18 8q5 2 11.5 3t10.5 -4q28 -36 51 -74.5t46 -77.5q4 5 7.5 11t7.5 11q11 15 21 30l20 30q-4 4 -4 8q1 7 5 13.5t9 11.5q13 14 32 27q7 4 14 7.5t14 5.5q3 1 9.5 2.5t9.5 -0.5q7 -4 7 -11q0 -3 -0.5 -5.5t-1.5 -5.5h-1q-1 -6 -5 -13.5
t-6 -11.5t-4.5 -7.5t-5.5 -7.5q-11 -18 -24 -36q-10 -16 -20.5 -31t-19.5 -31q-4 -6 -7 -12.5t-7 -12.5q-4 -8 -8 -14.5t-8 -14.5q18 -29 38 -58t43 -56q13 -14 26 -27.5t27 -25.5q15 -13 30.5 -25t31.5 -24z" />
    <glyph glyph-name="y" unicode="y" horiz-adv-x="564" 
d="M546 70q16 -73 25 -147.5t-1 -149.5q-5 -36 -15 -71.5t-27 -68.5q-14 -28 -31.5 -53t-39.5 -48q-44 -46 -98 -81t-116 -51q-45 -12 -91 -12.5t-90 16.5q-39 15 -70.5 43t-48.5 67q-20 44 -22 96q-2 32 2.5 62t12.5 61q5 10 12 17q4 6 10 10q8 8 16.5 14t18.5 11
q6 2 13.5 5t14.5 1q5 -2 5.5 -5t0.5 -6q-5 -23 -8.5 -46.5t-3.5 -47.5q0 -40 10 -74q11 -35 32 -65t52 -50q50 -29 109 -32q34 -2 69 6q8 2 16.5 4.5t16.5 5.5q1 1 2.5 1t3.5 1q1 1 1.5 1t1.5 1q5 2 9 4t9 4q6 4 9 5q2 2 3.5 2.5t3.5 2.5h1q2 2 4.5 4t5.5 4l2 2q3 3 6.5 6
t7.5 6q2 3 8 9q4 6 8 10l2 2q7 9 13 18.5t12 20.5q22 40 34 90q11 50 11.5 100.5t-5.5 101.5q-8 77 -26.5 152t-35.5 151q-2 10 -4 15q-4 -10 -8.5 -19l-9.5 -19q-14 -27 -30 -52.5t-35 -49.5q-18 -23 -39 -43t-45 -37q-26 -17 -53.5 -31.5t-59.5 -17.5q-22 -2 -43.5 3
t-40.5 18q-17 11 -28.5 28t-17.5 36q-8 25 -11 50t-2 51q2 57 15 111q14 60 37 116q11 26 23.5 51t29.5 48q15 22 33 42l13 13l2 2q11 9 11.5 9t-10.5 -8h1l6 6q9 8 17.5 14.5t18.5 12.5q2 1 9.5 5t15.5 6.5t14 1.5t6 -8t-4.5 -13.5t-8.5 -11.5q-6 -6 -12.5 -11.5
t-13.5 -10.5l-1 -1l-3.5 -3.5l-3.5 -3.5q-1 -2 -2 -3t-2 -3q-2 -2 -2 -3q-7 -9 -12.5 -18t-10.5 -18q-20 -37 -34 -75.5t-24 -78.5q-13 -53 -14 -104q-2 -23 0 -46t8 -46q7 -20 18.5 -38.5t29.5 -30.5q11 -6 23 -9t24 -5q5 0 11 0.5t11 1.5l9 3q4 2 5 2h1l3 3q2 1 4 3h1l4 4
l4 4h1q3 4 6.5 7.5t6.5 8.5q2 2 3 3.5t3 3.5l3 3q3 5 6.5 10t7.5 10l24 39q47 89 72 192q3 14 6 27t5 27q-4 29 -5.5 58t0.5 58q1 7 5 13.5t9 11.5q15 16 34 29q8 5 16.5 8.5t16.5 4.5q7 1 13 -3q1 -2 1 -3t1 -3q5 -19 6.5 -37t0.5 -38q-1 -9 -1.5 -17.5t-1.5 -17.5
q1 -12 2.5 -23.5t3.5 -22.5q13 -77 31.5 -151.5t35.5 -149.5zM183 483l-1 -1zM344 -509q-6 -3 -4 -2z" />
    <glyph glyph-name="z" unicode="z" horiz-adv-x="575" 
d="M538 48q5 -4 1 -11.5t-6 -9.5q-10 -16 -28 -29q-8 -6 -17 -11t-19 -8q-5 -2 -10.5 -2.5t-10.5 3.5q-5 5 -11 8t-12 7q-21 13 -43.5 23t-45.5 17t-47 10.5t-48 5.5q-25 1 -49.5 -1t-49.5 -7q-12 -3 -28 -8q-4 -2 -7.5 -2.5t-6.5 -2.5h-1q-2 -1 -3.5 -1.5t-3.5 -1.5
l-7 -3.5t-6 -3.5l-6 -3q-4 -2 -5 -4q-3 -2 -5.5 -3.5t-5.5 -3.5q-15 -14 -36 -20q-8 -4 -18 -2q-9 2 -6 11t6 14q40 60 83.5 116t92.5 109q89 97 193 175q-66 2 -130 6t-130 7h-9.5t-9.5 1q-4 -3 -12 -7q-9 -4 -20 -6h-7q-22 11 -42 15h-12q-9 2 -9 9t4.5 13t9.5 11
q12 15 32 28q7 4 15.5 8.5t16.5 4.5h39t39 -1l81 -3q36 -2 72.5 -4t72.5 -4q60 -3 122 -3q5 0 9.5 -1t4.5 -8q-2 -9 -7 -16q-8 -12 -19 -21t-23 -17q-5 -4 -11 -7.5t-12 -7.5q-2 -2 -4.5 -3.5t-4.5 -2.5q-8 -6 -14 -10q-14 -10 -26.5 -20t-26.5 -21q-1 -1 -3 -2.5t-4 -3.5
t-3.5 -3t-3.5 -3q-6 -5 -12.5 -10.5t-12.5 -10.5q-12 -11 -23.5 -22.5t-23.5 -22.5l-3 -3l-3 -3q-3 -4 -6.5 -7t-6.5 -7q-7 -8 -14 -15t-13 -15q-28 -31 -53 -62q-2 -3 -5 -6.5t-5 -6.5q-2 -2 -2 -3q-2 -2 -3 -3.5t-3 -3.5l-24 -33q-2 -2 -3 -4t-3 -4q66 28 138 33
q76 5 147 -15q17 -5 33 -11.5t32 -14.5q9 -4 17 -9l16 -10t14 -10t13 -10zM113 422q2 0 3 -0.5t3 -0.5q-2 0 -3 0.5t-3 0.5z" />
    <glyph glyph-name="bar" unicode="|" horiz-adv-x="238" 
d="M148 49q1 -23 2.5 -46.5t4.5 -46.5q3 -24 7 -47.5t9 -46.5q-2 -9 -6 -15q-2 -2 -4 -5t-4 -5q-14 -15 -33 -27q-15 -10 -31 -13q-8 -2 -12 4l-3 9q-10 33 -15 67t-7 68q-2 33 -3 66.5t1 66.5q3 95 14 188.5t16 187.5q2 38 2.5 76t-0.5 76q0 14 -0.5 26.5t-1.5 26.5
q-2 22 -6 43q-2 6 -4 9q-6 -2 -12 0q-5 2 -5.5 6t1.5 9q3 8 9 14l12 12q15 17 37 26q8 5 18 8t19 -1q5 0 8 -3q6 -6 8 -15t4 -17q2 -11 3 -22l2 -22q2 -23 2 -46.5v-46.5q1 -95 -9 -188t-17 -187q-4 -48 -6 -94.5t0 -94.5z" />
    <glyph glyph-name="asciitilde" unicode="~" horiz-adv-x="496" 
d="M439 447q5 0 9.5 -1.5t4.5 -7.5q-1 -15 -4.5 -30t-11.5 -29q-10 -19 -22 -33l-13 -13t-14 -11q-8 -6 -15 -10t-15 -9q-37 -20 -77 -9q-16 5 -31 11.5t-30 14.5t-30.5 16.5t-31.5 16.5q-8 4 -16.5 7.5t-16.5 5.5q-2 -8 -5 -13.5t-8 -10.5q-14 -15 -33 -28q-17 -10 -32 -13
q-4 0 -9.5 1.5t-4.5 7.5q6 32 20 57q5 9 12 16.5t15 15.5q15 16 34 26q13 7 26.5 12.5t27.5 6.5q19 0 34 -4q16 -4 31 -10.5t29 -14.5q16 -8 31.5 -16t31.5 -16q8 -4 16.5 -7.5t17.5 -5.5q1 3 1 6t1 6q2 8 5.5 13.5t8.5 11.5q7 8 15 15t18 12q7 5 15 8.5t16 4.5z" />
    <glyph glyph-name="exclamdown" unicode="&#xa1;" horiz-adv-x="204" 
d="M162 -184.873q2 44.9922 2 89.9834q0 44.9922 -1 89.9834q-1 22.9961 -1.5 45.4922q-0.5 22.4951 -0.5 45.4912q-1 21.9961 -1 43.9922t-2 43.9922q-1 6.99805 -5 13.4971t-9 11.498q-14 14.9971 -33 26.9951q-3 1.99902 -10 5.49902q-7 3.49902 -14.5 5.99902
q-7.5 2.49902 -13.5 1.49902q-6 -0.999023 -7 -8.99805q-2 -13.9971 -1.5 -28.9941q0.5 -14.998 0.5 -28.9951q1 -14.9971 1 -29.4941q0 -14.498 1 -29.4951q2 -45.9912 3 -90.9834q1 -44.9912 0 -90.9834q0 -43.9922 -3 -87.9834q-1 -10.998 -1.5 -21.4961t-2.5 -21.4961
q-1 -4.99902 -1 -10.998t-1 -10.998t-1 -9.99805t-1 -9.99805q-2 -5.99902 3.5 -12.998t9.5 -11.998q13 -13.9971 32 -26.9951q8 -3.99902 16 -7.49805q8 -3.5 16 -4.49902q7 -1 12 2.99902q0 2 0.5 2.5t0.5 2.49902q3 6.99902 3.5 14.4971q0.5 7.49902 2.5 14.498
l3 26.9951q2 13.9971 2.5 28.4941q0.5 14.498 1.5 28.4951zM139 368.025q-6 28.9951 -5 54.9902q0 7.99805 0.5 15.9971q0.5 7.99805 1.5 15.9971q2 7.99805 3 15.4971t2 15.4971q1 6.99902 -4 13.498q-5 6.49805 -9 11.4971q-7 7.99902 -15.5 14.498t-17.5 12.4971
q-7 4 -15 7.49902t-16 4.49902q-8 2 -12 -2.99902q-3 -5.99902 -4.5 -12.498t-2.5 -12.498q-3 -9.99805 -3 -20.9961q-1 -10.998 -1.5 -20.4961t1.5 -20.4961q2 -19.9961 6 -39.4932q4 -19.4961 12 -37.4932q4 -7.99805 9.5 -14.4971t11.5 -12.498q8 -6.99805 16.5 -12.9971
t18.5 -10.998q6 -2 13 -4.99902q7 -3 14 -1q6 2 6.5 6.49902t-1.5 8.49805z" />
    <glyph glyph-name="cent" unicode="&#xa2;" horiz-adv-x="558" 
d="M519 183q6 -2 6.5 -6.5t-1.5 -8.5q-12 -31 -31.5 -57.5t-43.5 -48.5t-52 -39.5t-58 -28.5q8 -39 16.5 -78t17.5 -77q0 -9 -6 -16q-2 -2 -3.5 -4.5t-3.5 -4.5q-7 -8 -15.5 -14.5t-17.5 -12.5q-7 -4 -15 -7.5t-16 -4.5q-8 -2 -12 3q-8 25 -14.5 50.5t-12.5 51.5
q-5 25 -10 49.5t-10 50.5q-52 3 -98 26q-44 22 -77 57t-48 82q-16 50 -10 106q3 17 7 33.5t12 32.5q18 40 47 73q17 20 37.5 37.5t43.5 32.5q11 7 21.5 12.5t22.5 10.5q-1 7 -1 14v14v44v23q0 5 -0.5 10.5t0.5 10.5q0 7 4.5 13.5t9.5 11.5q13 14 32 27q8 4 16 7.5t16 4.5
q7 1 12 -3q1 -2 1 -2.5t1 -2.5q1 -6 0.5 -13t-0.5 -13v-24q1 -13 1 -25v-25q1 -14 1 -29t1 -30q4 0 7 -1t7 -2q18 -6 33 -16.5t27 -24.5q4 -5 1 -11.5t-5 -9.5q-13 -16 -28 -27q-8 -6 -16 -11t-18 -8q-1 0 -1.5 -0.5t-2.5 -0.5q3 -48 7 -95.5t9 -95.5q4 -35 8.5 -69.5
t10.5 -69.5q9 1 18.5 1.5t18.5 2.5q4 2 7.5 2.5t7.5 2.5q3 0 5 2q2 0 3 1q4 2 7 3q2 2 4 2q0 1 0.5 1t0.5 1h1q1 2 2 2.5t2 1.5l7 7q0 1 1 2l6 9q2 4 5 7.5t5 8.5q2 4 3.5 7.5t3.5 7.5q4 8 9.5 14.5t11.5 12.5q15 15 35 24q6 3 13.5 5.5t13.5 0.5zM201 90q5 -3 10.5 -6
t10.5 -5q-5 40 -9 80t-7 80q-4 46 -6 91.5t-4 90.5v4q-5 0 -10.5 -0.5t-10.5 -1.5q-8 -2 -12 -4l-2 -1q-1 0 -1.5 -0.5t-2.5 -0.5l-2 -2q-1 0 -1 -0.5t-1 -0.5l-3 -3q-2 -1 -6 -5q-3 -3 -5.5 -6t-5.5 -6q0 -1 -2 -3t-2.5 -4t-2.5 -4q-2 -3 -4.5 -6.5t-4.5 -7.5q-5 -9 -9 -19
t-7 -20q-12 -59 2 -113q12 -40 37.5 -72t60.5 -55z" />
    <glyph glyph-name="sterling" unicode="&#xa3;" horiz-adv-x="611" 
d="M725 78q5 -2 5.5 -6t-1.5 -9q-3 -8 -9 -15t-12 -12q-16 -14 -35 -24q-32 -17 -70 -31q-86 -32 -176 -23q-41 4 -80 15.5t-76 29.5q-41 20 -80 46q-14 8 -25 16q-2 -4 -5 -7t-6 -7q-9 -11 -19 -20.5t-21 -17.5q-17 -12 -36 -22.5t-40 -16.5t-42 -6t-42 8q-14 6 -26.5 15
t-21.5 21q-19 27 -19 59q0 19 6 39q2 8 5 16.5t6 16.5q21 45 62 75q18 13 38.5 23t43.5 11q25 0 51 -9q3 -2 5.5 -3t5.5 -2v23t-2 23q0 8 -0.5 14.5t-1.5 14.5l-27 3q-23 0 -45 -3q-2 -1 -3 -1t-2 -1q-5 -1 -11.5 -2.5t-10.5 3.5q-3 5 0 11l5 10q11 16 28 29q8 5 17 10.5
t18 8.5q6 2 12 3t11 2q-5 46 -8 91.5t0 91.5q2 23 6 46t12 46q4 11 9.5 21.5t11.5 20.5q11 16 24 29t27 25q24 20 53.5 32.5t61.5 14.5q28 1 57 -3q17 -3 32.5 -8.5t30.5 -12.5q25 -11 47.5 -28.5t34.5 -43.5q14 -28 14.5 -58.5t-6.5 -59.5q-4 -17 -18 -30t-28 -21
q-7 -5 -15 -8.5t-16 -4.5q-3 -1 -9 1t-4 7q5 23 6 45.5t-5 44.5q-8 23 -22 40t-34 30q-52 32 -114 37q-17 0 -35 -3h-2q-1 -2 -1.5 -2.5t-1.5 -2.5q-5 -10 -8.5 -19.5t-6.5 -20.5q-2 -7 -3 -13.5t-2 -13.5q-7 -49 -4 -98t8 -98q2 -19 4 -37.5t4 -37.5h1q38 -6 74 -16t72 -21
q35 -9 69.5 -17.5t69.5 -11.5q6 -1 6 -6.5t-2 -9.5q-3 -8 -9 -15t-12 -12q-15 -15 -35 -24q-9 -5 -21 -7h-7q-11 1 -21 2t-21 3q-37 7 -73 17t-72 21q-4 1 -7 1.5t-7 1.5q1 -4 1 -8v-9q1 -24 1 -48.5t-2 -49.5l33 -27q5 -4 9 -7.5t9 -6.5q8 -7 16.5 -12.5t17.5 -10.5
q-2 1 -2.5 1.5t-2.5 1.5q54 -34 113 -57t123 -27q42 -1 88 8q12 3 23.5 6t23.5 8q4 2 6 2q0 1 1 1q2 1 5 2t5 2q6 3 12.5 6t12.5 6t13.5 5.5t14.5 0.5zM200 724h1q-7 -3 -5 -2.5t4 2.5zM-28 176q-2 -1 -3.5 -1.5t4.5 1.5h-1zM86 41q-2 -2 -4 -3.5t5 3.5h-1zM106 85q1 7 2 13
t2 13q-13 10 -26 19.5t-27 18.5q-15 9 -31.5 17t-33.5 10q-3 -6 -4.5 -12t-3.5 -12q-2 -11 -2.5 -23t2.5 -23q11 -31 38 -49q10 -6 21 -9t23 -5q5 0 10.5 0.5t10.5 1.5q1 0 1.5 0.5t1.5 0.5q1 1 1.5 2t1.5 2q4 8 7 17z" />
    <glyph glyph-name="currency" unicode="&#xa4;" horiz-adv-x="739" 
d="M664 216q7 -2 6.5 -8.5t-5 -13t-10 -12.5t-7.5 -8q-18 -16 -35 -24q-7 -3 -13 -5t-14 -1q-22 2 -42.5 11.5t-37.5 21.5l-15 12q-6 -5 -12 -9.5t-12 -9.5q-29 -21 -61 -38.5t-67 -25.5q-27 -7 -54.5 -8.5t-54.5 6.5q-44 12 -75 46q-1 0 -1 -0.5t-1 -0.5q-11 -10 -20.5 -20
t-20.5 -20q-8 -8 -16 -15.5t-16 -15.5q-18 -16 -35 -24q-6 -3 -13.5 -5.5t-13.5 -0.5q-6 1 -6.5 5.5t2 10t6 10.5t5.5 7q11 13 23.5 25t25.5 24q14 14 28 27l28 26q-6 10 -12 24q-14 33 -20 66q-5 27 -4 54.5t6 54.5q7 38 21 75.5t35 70.5q-50 37 -94.5 80t-72.5 99
q-3 5 -0.5 10t5.5 10q10 16 27 28q8 6 16.5 11t18.5 8q3 2 11 3t10 -4q26 -51 66.5 -90t84.5 -76q3 3 6 5.5t6 4.5q19 13 38.5 23.5t40.5 17.5q17 5 34 7t34 0q8 -1 16 -1.5t16 -2.5q6 -1 12.5 -1.5t12.5 -1.5q13 -3 21 -10q2 -2 6 -7q0 -2 1 -3q5 0 8 -1q17 -3 32 -10.5
t28 -18.5q8 8 14.5 16t14.5 16q2 2 3.5 4.5t3.5 5.5h1q6 8 8 12l-2 -3q9 16 23.5 27.5t30.5 19.5q6 3 13.5 5.5t13.5 0.5q5 -2 6 -6.5t-1 -8.5q-5 -11 -12 -20.5t-14 -18.5q-17 -22 -36 -42l-38 -40q12 -17 20 -37t13 -40q14 -51 9 -104q-3 -29 -11.5 -58t-25.5 -53
q-2 -4 -4 -7l-4 -6q6 -8 15 -15.5t17 -12.5q16 -10 32.5 -16t33.5 -11zM354 610q-2 -2 -9 -5q3 1 9 5zM512 306q8 34 6.5 69t-10.5 69q-7 24 -21 49l-15 -15q-18 -16 -35 -24q-6 -2 -13 -5t-14 -1q-6 1 -6.5 5.5t2 10t6 10.5t5.5 7q15 17 32 32q2 3 5 5.5t6 5.5v1q1 1 1.5 1
t1.5 1q-6 6 -12 11.5t-14 10.5q-4 2 -7 3q-4 -2 -8 -4.5t-9 -4.5q-5 -3 -12.5 -5.5t-14.5 -0.5q-5 2 -5.5 6t1.5 9l1 2q0 3 0.5 5.5t0.5 4.5q-6 0 -11.5 -0.5t-11.5 -1.5l-9 -3q-3 0 -7 -2q-3 -2 -5.5 -2.5t-5.5 -2.5l-6 -3q-2 -2 -9 -5.5t-15 -6t-14 -2t-6 8.5
q0 7 4.5 13.5t8.5 11.5q5 6 11.5 11.5t13.5 10.5h-6.5t-6.5 1q-16 0 -31 -3q-3 -1 -5.5 -1.5t-5.5 -1.5q-1 0 -1 -0.5t-1 -0.5t-1.5 -0.5t-1.5 -0.5q0 -1 -1 -1q-1 -1 -2 -1l1 -1q5 -4 1.5 -11t-5.5 -10q-12 -17 -28 -27q-3 -3 -5 -4q-9 -18 -15 -36t-11 -37
q-8 -37 -9 -74.5t9 -74.5q9 -30 24 -56q2 2 7 4q7 4 14.5 6t15.5 4q12 3 19 -4q4 -4 0.5 -11t-5.5 -10q-5 -7 -11 -13t-13 -12q11 -11 26 -21q31 -19 70 -21q11 -1 21 0t20 3q5 2 10 3t10 3q2 1 2.5 1t2.5 1q6 2 9 4l6 3q4 2 6 4q4 1 7 4q2 1 2.5 1.5t2.5 1.5q3 3 5 4
q2 2 3.5 3t2.5 2l8 8l4 4l2 2q0 2 -0.5 3.5t-0.5 3.5q0 7 4.5 13.5t9.5 11.5q8 9 21 19q3 8 5.5 15t4.5 15z" />
    <glyph glyph-name="yen" unicode="&#xa5;" horiz-adv-x="672" 
d="M26 656l1 1q-3 -3 -3 -3.5t2 1.5v1zM679 77q8 -40 14 -79.5t6 -80.5q-1 -19 -2 -37.5t-5 -36.5q-5 -19 -10.5 -37t-13.5 -35q-15 -33 -37.5 -62.5t-51.5 -52t-62.5 -38.5t-69.5 -22q-52 -10 -104 1.5t-98 35.5q-48 26 -89 62.5t-68 84.5q-14 23 -23 48.5t-11 51.5
q-6 54 13 109q3 8 9.5 15t12.5 12q15 15 35 24q6 3 13.5 6t14.5 1q6 -2 6.5 -6.5t-1.5 -9.5q-4 -9 -5 -16q-6 -26 -5 -52.5t8 -52.5q3 -8 6 -16.5t7 -16.5q21 -48 57 -86.5t81 -66.5q36 -23 76.5 -37.5t83.5 -16.5q14 -1 27 0.5t26 3.5q8 2 13 4q2 0 6 2q3 1 7 3q1 1 2 1
q0 1 1 1l2 2l5 5q0 1 0.5 1t0.5 1q1 2 4 5q2 4 4.5 7.5t4.5 6.5q8 16 14 32t11 33v2q8 38 8 76.5t-5 76.5q-5 42 -13.5 81.5t-19.5 80.5q-10 37 -20 73.5t-19 73.5q-5 20 -8.5 40.5t-7.5 40.5q-5 19 -8.5 37.5t-7.5 37.5q-7 -10 -13.5 -19.5t-13.5 -18.5q-27 -35 -58 -67
t-66 -60q-35 -27 -76 -47q-35 -18 -72 -22q-12 -2 -25 -1t-24 5q-20 6 -38 19t-32 29.5t-25 35.5q-25 43 -39 94q-15 51 -21.5 104.5t1.5 106.5q4 26 11.5 49t21.5 46q0 1 2 3v1q4 4 6 7q-4 -4 -5 -6q1 1 1 1.5t1 1.5l12 15q8 11 21 22q3 2 6 5t6 5q12 8 12 8.5t-11 -7.5
q1 0 2 1t1.5 1t1.5 1q5 3 9 6.5t9 6.5q9 5 18 9t19 8q4 1 11 2t10 -4q4 -5 1 -11t-5 -9q-19 -27 -47 -41q-1 0 -1 -1q-2 -5 -4 -9t-4 -9q1 2 1 3.5t1 3.5q-2 -8 -4 -14.5t-4 -14.5q-2 -5 -2.5 -9t-1.5 -9q-8 -51 -3 -102t19 -101l3 -9q8 -24 17.5 -47.5t23.5 -44.5
q11 -17 25 -33t31 -27q21 -14 45 -15q6 0 12.5 0.5t12.5 1.5l9 3q2 1 3 1t2 1q6 1 11 5q1 1 3 1q2 2 3.5 2.5t3.5 2.5t4 3l4 2q4 4 10 8q1 2 2 2.5t3 2.5l6 6t7 6l3 3l24 27q3 3 6 6.5t6 7.5l2 4q1 0 1 0.5t1 0.5q5 8 10.5 15t10.5 14q19 29 33 55q20 35 32 73
q-15 75 -25.5 150.5t-6.5 152.5q0 7 4.5 13.5t9.5 11.5q8 9 16.5 16t17.5 13q8 5 16.5 8.5t17.5 4.5q7 1 12 -3q1 -2 1 -3t1 -3l6 -24q13 -49 23.5 -98t10.5 -100q2 -43 -7 -80q8 -42 17.5 -83.5t17.5 -83.5q5 -20 8.5 -41t8.5 -41q5 -17 9.5 -35t9.5 -35q11 -39 21 -78
t18 -79zM798 216q5 -1 9.5 -2t4.5 -7q-1 -7 -5 -13.5t-9 -11.5q-14 -15 -33 -27q-6 -4 -14.5 -8.5t-16.5 -4.5h-24q-42 0 -83.5 -1t-83.5 -3q-20 -1 -40 -2.5t-40 -4.5l-18 -2t-18 -3l-18 -3q-3 -1 -6.5 -2t-7.5 -1q-5 -1 -9 -1t-7 4q-3 5 0 10.5t5 9.5q5 8 12 14.5t15 12.5
q8 5 16 10.5t17 7.5q1 0 1 1q4 1 7 2t7 2q5 2 10 2.5t10 2.5q38 8 77 11t78 5q42 2 82 2h82zM809 102q5 -1 9.5 -2t4.5 -7q-1 -7 -5 -13.5t-9 -11.5q-14 -15 -33 -27q-6 -4 -14.5 -8.5t-16.5 -4.5h-24q-42 0 -83.5 -1t-83.5 -3q-20 -1 -40 -2.5t-40 -4.5l-18 -2t-18 -3
l-18 -3q-3 -1 -6.5 -2t-7.5 -1q-5 -1 -9 -1t-7 4q-3 5 0 10.5t5 9.5q5 8 12 14.5t15 12.5q8 5 16 10.5t17 7.5q1 0 1 1q4 1 7 2t7 2q5 2 10 2.5t10 2.5q38 8 77 11t78 5q42 2 82 2h82z" />
    <glyph glyph-name="brokenbar" unicode="&#xa6;" horiz-adv-x="237" 
d="M148 49q1 -23 2.5 -46.5t4.5 -46.5q3 -24 7 -47.5t9 -46.5q-2 -9 -6 -15q-2 -2 -4 -5t-4 -5q-14 -15 -33 -27q-15 -10 -31 -13q-8 -2 -12 4l-3 9q-10 33 -15 67t-7 68q-2 33 -3 66.5t1 66.5q3 95 14 188.5t16 187.5q2 38 2.5 76t-0.5 76q0 14 -0.5 26.5t-1.5 26.5
q-2 22 -6 43q-2 6 -4 9q-6 -2 -12 0q-5 2 -5.5 6t1.5 9q3 8 9 14l12 12q15 17 37 26q8 5 18 8t19 -1q5 0 8 -3q6 -6 8 -15t4 -17q2 -11 3 -22l2 -22q2 -23 2 -46.5v-46.5q1 -95 -9 -188t-17 -187q-4 -48 -6 -94.5t0 -94.5z" />
    <glyph glyph-name="section" unicode="&#xa7;" horiz-adv-x="451" 
d="M296 215q20 -20 39.5 -42t30.5 -50t7 -55q-6 -38 -31 -71q-18 -25 -40.5 -46t-49.5 -38q-20 -12 -41.5 -21t-44.5 -11q-31 -4 -60 6.5t-51 32.5q-24 23 -36 54t-14 64q0 7 4.5 13.5t9.5 10.5q12 15 32 28q3 1 10.5 5t15 6t13.5 1t7 -8q2 -19 6 -35q8 -26 23.5 -49
t38.5 -38q25 -14 53 -17q5 0 11 0.5t11 1.5l9 3q1 0 1.5 0.5t1.5 0.5v1q1 0 2 1l2 2q1 2 5 6q2 4 4 5q4 6 5 10q5 8 9 21q4 19 -1 42q-11 32 -34.5 57.5t-46.5 48.5q-24 24 -46.5 48.5t-41.5 53.5q-19 27 -30 59q-4 13 -6 26t0 27q1 7 3 14t4 13q5 10 10.5 18.5t11.5 16.5
q6 7 12 13.5t13 11.5l12 10t13 10q-18 5 -36.5 11t-36.5 13q-11 5 -21 10.5t-21 11.5q-8 5 -15 11t-12 14q-13 16 -13 36q-1 23 10 47q9 21 25 39t35 32q20 14 41 23.5t44 12.5q27 4 54.5 -1.5t52.5 -16.5q20 -10 39.5 -24t27.5 -37q2 -5 0.5 -10t-5.5 -10q-5 -8 -12 -14.5
t-15 -12.5t-16 -11t-17 -8q-3 -1 -11 -2.5t-10 3.5q-5 14 -16.5 24.5t-23.5 18.5q-41 24 -90 29q-5 0 -8.5 -0.5t-8.5 -0.5q-2 -4 -2 -6q-3 -14 0 -27q5 -13 14.5 -22.5t20.5 -17.5q29 -18 61.5 -27.5t64.5 -19.5q14 -5 27 -9t26 -10q2 0 4.5 0.5t4.5 0.5q5 0 9.5 -1.5
t4.5 -7.5q0 -1 -0.5 -1.5t-0.5 -2.5q1 0 1.5 -0.5t1.5 -0.5q11 -7 18 -16.5t13 -20.5q9 -16 15 -34t6 -36q0 -37 -20 -65q-18 -26 -44 -44q-13 -9 -26.5 -17t-28.5 -12q-5 -2 -15 -4l3 -3zM288 338q2 20 -3 38q-9 28 -27 50q-7 10 -17 17q-4 2 -8 4.5t-9 4.5
q-7 -2 -13.5 -2.5t-12.5 -2.5q-8 -2 -14.5 -4t-13.5 -4l-3 -9q-2 -11 -1 -22.5t3 -22.5q1 -3 3 -7q5 3 10.5 5.5t11.5 4.5q5 2 10.5 2.5t10.5 -3.5q18 -20 41 -35q16 -10 32 -14zM313 338l-1 -1q6 3 4.5 2.5t-3.5 -1.5z" />
    <glyph glyph-name="dieresis" unicode="&#xa8;" horiz-adv-x="305" 
d="M152 637q3 -5 1 -10.5t-5 -10.5q-12 -17 -28 -27q-8 -6 -16 -11t-18 -8q-4 -2 -10.5 -3t-9.5 4q-14 20 -22.5 43t-13.5 47q-5 23 -8.5 45.5t-6.5 45.5q-1 6 4.5 13t9.5 12q13 14 32 27q3 1 10 5t14.5 6t13.5 1t7 -8l8 -52t11 -52q5 -17 12 -33.5t15 -33.5zM305 661
q4 -5 0.5 -11t-5.5 -10q-11 -16 -27 -27q-8 -6 -16.5 -11t-18.5 -8q-5 -2 -10.5 -2.5t-10.5 3.5q-17 14 -26.5 34t-14.5 41q-5 20 -7 40.5t-2 41.5q0 7 4.5 13t8.5 11q14 15 33 28q3 1 10.5 5t15.5 6.5t14 1.5t6 -9q0 -20 2 -40.5t7 -40.5q12 -37 37 -66z" />
    <glyph glyph-name="copyright" unicode="&#xa9;" horiz-adv-x="770" 
d="M473 243q3 -5 0 -11l-5 -10q-4 -5 -7.5 -9.5t-8.5 -8.5q-23 -20 -47.5 -38.5t-51.5 -33.5q-22 -12 -44.5 -21.5t-46.5 -14.5q-14 -3 -28.5 -2.5t-27.5 5.5q-24 11 -37 30q-8 11 -12 24t-6 26q-5 29 -2 55q6 67 40 127q20 33 51 61q19 18 41 32.5t47 22.5q33 11 67 5
q17 -4 32.5 -12t29.5 -19q4 -3 0.5 -11t-5.5 -10q-12 -17 -28 -27q-8 -6 -16 -11t-18 -8q-12 -5 -21 1l-9 6q-13 8 -27 13t-29 6h-8.5t-8.5 -1q-2 0 -2 -1q-2 -2 -3 -2l-6 -10l-6 -10q-14 -25 -22 -59q-6 -25 -7 -51t6 -51q5 -14 12.5 -27t19.5 -21q7 -4 13.5 -5.5
t14.5 -2.5q5 0 10 0.5t10 1.5q3 0 9 2q4 2 7 3t11 5q2 0 4 2q9 5 16 10q4 2 5 3q1 0 1 1q20 14 37 28q16 13 35 19q4 2 10.5 3t10.5 -4zM283 407l1 1zM716 581q17 -40 20.5 -83.5t-1.5 -86.5q-5 -48 -17 -95t-30 -92q-17 -43 -40.5 -84t-54.5 -76q-23 -26 -50.5 -48
t-56.5 -42q-29 -19 -60.5 -34t-64.5 -24q-54 -16 -111.5 -16t-109.5 25t-85 67q-19 24 -31.5 52t-20.5 58q-17 62 -12 127q6 67 32 133q30 75 82.5 137t121.5 105q19 11 38.5 20.5t40.5 17.5q8 3 15.5 5.5t15.5 4.5t16 4.5t16 4.5q41 9 79 8q4 -1 8 -1t8 -1q13 9 29 12
q5 1 9.5 1t9.5 1q7 2 13.5 2h12.5q7 1 14 0.5t14 -0.5q19 -2 39 -6q39 -9 70 -37q14 -12 23.5 -27t17.5 -32zM636 321q7 42 7 84.5t-11 84.5q-8 29 -24.5 53.5t-41.5 41.5q-7 4 -14 7q-2 -5 -5 -10q-5 -8 -12 -14.5t-15 -12.5t-16 -11t-17 -8q-3 -1 -11 -2t-10 4
q-12 24 -35 41q-26 14 -59 16q-24 1 -53 -5q-7 -2 -13.5 -4t-13.5 -4l-14 -4t-15 -4q-1 -1 -1.5 -1t-1.5 -1q-2 0 -2 -1l-15 -6q-1 -1 -5 -3q-3 -2 -6 -3.5t-6 -3.5q-1 -1 -5 -3q-2 -2 -5 -4t-5 -4q-1 -1 -2 -1.5t-2 -1.5q-4 -3 -10 -9q-2 -2 -5 -4.5t-5 -4.5q-2 -3 -5 -5
q-2 -4 -5 -7l-6 -6q-1 -2 -2 -3t-2 -3q-17 -22 -33 -50q-26 -50 -39 -103q-23 -98 4 -192q13 -44 38.5 -81t63.5 -62q26 -16 55.5 -24.5t60.5 -10.5q20 -1 38.5 1t37.5 6q8 2 15 4t15 4q4 2 14 6h1q2 1 3.5 1.5t3.5 1.5q5 2 8.5 4t8.5 4q1 1 1.5 1t1.5 1h1q5 2 8.5 5t7.5 5
q2 2 4 2l12 9q1 1 2.5 2t3.5 3q4 4 7.5 7t7.5 7l3 3l6 6t6 7q1 1 1 1.5t1 1.5q2 2 2 3l6 8l6 8q5 8 9.5 16t9.5 16q39 74 59 157l4 22z" />
    <glyph glyph-name="ordfeminine" unicode="&#xaa;" 
d="M344.553 609.651q0.478516 -2.14844 0.717773 -4.51172q0.239258 -2.3623 -0.239258 -4.94043q-0.478516 -3.00684 -0.957031 -5.7998t-1.43555 -5.37012q-2.87109 -11.1709 -10.5273 -21.4814q-0.957031 -1.71875 -2.39258 -3.4375q-1.43555 -1.71777 -2.87109 -3.00684
q-5.74219 -7.30371 -12.9199 -12.8887q-6.2207 -5.58496 -12.9199 -10.0967q-6.69922 -4.51074 -13.877 -8.80762q-11.0059 -6.44434 -23.4473 -11.1699t-24.8828 -7.7334q-12.4414 -3.00684 -25.3613 -3.86621q-11.0059 -0.859375 -21.7725 -0.214844t-21.2939 3.65137
q-9.0918 2.14844 -17.4658 6.44434q-8.37402 4.29688 -15.0732 10.7412q-6.69922 6.87402 -10.2881 15.252q-3.58887 8.37695 -4.5459 17.3994q-0.478516 11.5996 2.39258 24.4883q1.91406 6.44531 4.30664 12.46t6.2207 12.0293q5.74219 8.16309 13.6377 14.8223
t16.9873 11.8145q6.69922 3.86621 14.3555 6.65918t15.791 3.65234q9.57031 1.28809 19.6191 -0.429688q10.0488 -1.71875 19.6191 -5.15625q11.0059 -3.86621 21.0547 -9.23633q10.0488 -5.37109 19.6191 -11.3857q3.34961 -2.14746 6.69922 -4.51074t7.17773 -4.51074
v13.748q-0.478516 10.7402 -1.43555 21.6963q-0.957031 10.9551 -4.30664 21.2656q-3.34961 9.45215 -8.61328 17.4004t-14.3555 13.5332q-12.4414 5.58496 -25.8398 6.44434q-2.39258 0.429688 -5.02441 0.214844t-5.02441 -0.644531q-2.39258 -0.859375 -4.06738 -1.07422
t-4.06738 -1.07422q-1.43555 -0.858398 -3.11035 -1.07324t-3.11035 -1.07422q-0.478516 0 -0.717773 -0.214844t-1.19629 -0.214844q-6.2207 -2.14844 -12.2021 -4.94141q-5.98145 -2.79199 -12.2021 -5.37012l-5.74219 -2.57715l-0.957031 -0.859375
q-5.26367 -2.57812 -11.0059 -5.58496q-1.43555 -1.71875 -3.11035 -3.22266t-3.58887 -3.22168q-3.82812 -3.00781 -7.89551 -5.58594q-4.06738 -2.57715 -8.85254 -4.72559q-5.26367 -2.14844 -9.57031 -2.57812h-3.82812q-1.91406 0.859375 -2.63184 1.50391
t-0.717773 2.79297q0 2.14746 1.19629 4.08105t2.15332 3.22266q1.91406 3.43652 6.2207 7.30371l5.26367 4.72559q1.91406 1.28906 3.34961 2.36328q1.43555 1.07324 3.34961 2.3623q1.43555 1.28906 2.39258 1.71875q2.87109 2.14844 5.98145 3.86621
q3.11035 1.71875 5.98145 3.86719q3.82812 2.14844 8.13477 4.51074q4.30664 2.36328 8.61328 4.51172q14.3555 7.30371 29.1895 13.748t30.625 11.1699q6.2207 2.14844 12.6807 3.65137q6.45996 1.50391 13.1592 1.50391t13.6377 -0.859375t13.6377 -3.00684
q11.0059 -3.4375 18.6621 -10.0967t12.9199 -15.6816q5.26367 -9.88086 7.65625 -20.8359q2.39258 -10.9561 3.34961 -22.126q0.957031 -12.8887 0.717773 -25.7783q-0.239258 -12.8887 -0.717773 -26.207q3.82812 0.859375 6.45996 0.429688t2.63184 -3.86621z
M160.324 675.384q0 0.429688 0.478516 0.429688q-2.87109 -2.14746 -2.15332 -1.71875q0.717773 0.429688 1.6748 1.28906zM261.77 541.771q2.39258 0.429688 4.06738 0.859375q1.6748 0.428711 3.58887 1.28809q1.43555 0.429688 2.63184 0.644531t2.63184 0.644531
l1.91406 0.859375l7.17773 2.57812q0 0.429688 0.478516 0.429688q-6.2207 6.01465 -12.6807 11.5996t-13.1592 10.7402q-8.13477 6.44434 -16.9873 12.2451q-8.85254 5.7998 -18.4229 11.3848q-11.4844 6.01465 -24.165 11.3848t-26.0791 6.65918
q-0.957031 -2.57715 -0.957031 -3.43652q-2.39258 -8.59277 -2.87109 -17.4004q-0.478516 -8.80664 1.91406 -17.3994q6.2207 -16.3262 22.0117 -25.3477q9.0918 -4.72656 19.1406 -7.08887q10.0488 -2.36328 20.0977 -2.79297q14.3555 -0.429688 29.668 2.14844z" />
    <glyph glyph-name="guillemotleft" unicode="&#xab;" horiz-adv-x="833" 
d="M467 126q5 -1 5.5 -6t-1.5 -9q-3 -8 -9 -15t-12 -12q-15 -15 -35 -24q-7 -3 -13.5 -5.5t-14.5 -0.5q-6 0 -9 1q-37 5 -71 20.5t-65 35.5q-31 19 -60 39.5t-60 40.5q-23 14 -46.5 26t-49.5 20q-6 2 -6.5 6.5t2 9.5t6.5 10t6 7q18 23 46 35q3 2 6.5 3.5t7.5 3.5
q2 1 2.5 1.5t2.5 1.5q4 2 7.5 4.5t6.5 4.5l6 3l24 18q4 4 6 5q2 2 4.5 4t4.5 4q29 26 55.5 53t54.5 53q45 46 99 88q3 3 6.5 5.5t6.5 5.5q5 3 9.5 6t9.5 6q1 0 1 0.5t1 0.5l2 2v-1q4 3 12 7q2 1 7.5 3t11.5 3t10.5 -0.5t4.5 -7.5q-1 -7 -5 -13.5t-9 -11.5q-8 -10 -20 -18
q-2 -1 -5 -4q-9 -14 -22.5 -24.5t-28.5 -18.5q-1 0 -5 -2q-8 -8 -16.5 -16t-16.5 -16q-27 -26 -53.5 -53t-55.5 -53q-16 -15 -33 -28.5t-34 -26.5q48 -21 90.5 -52t87.5 -59q34 -20 69.5 -36t74.5 -24zM775 83q3 -5 0.5 -10.5t-5.5 -9.5q-10 -16 -27 -28q-8 -6 -16.5 -11
t-18.5 -8q-5 -2 -11 -3t-10 4l-5 5q-20 23 -41.5 44.5t-44.5 41.5q-51 45 -113 84q-25 16 -50.5 29t-52.5 24q-23 9 -47.5 15.5t-49.5 8.5h-13q-7 0 -11 1q-6 0 -6 6t2 9q4 9 11 17q17 19 32.5 38t32.5 38q24 28 48.5 55t50.5 53q14 13 27.5 25.5t27.5 23.5q8 6 15.5 11.5
t15.5 10.5q9 6 18.5 11.5t20.5 8.5q2 1 3 1t3 1q4 2 10.5 3t10.5 -4q3 -5 0 -10.5t-5 -9.5q-9 -14 -22.5 -24t-27.5 -17q-1 0 -1 -0.5t-1 -0.5t-1.5 -0.5t-1.5 -0.5l-2 -2q-4 -2 -5 -4q-2 -1 -2.5 -1.5t-2.5 -1.5q-2 -2 -2 -3q-5 -4 -9 -7.5t-9 -8.5q-4 -3 -12 -11
q-2 -2 -3 -4q-6 -5 -11.5 -11t-11.5 -12l-45 -51q-12 -14 -23.5 -27.5t-23.5 -27.5q4 0 6 -1q14 0 28 -3q16 -3 31 -7.5t29 -9.5q34 -13 65.5 -29.5t61.5 -36.5q58 -37 113 -86q22 -20 43 -41t38 -46z" />
    <glyph glyph-name="registered" unicode="&#xae;" horiz-adv-x="833" 
d="M627 299q5 0 9.5 -1.5t3.5 -7.5q0 -7 -4.5 -13.5t-8.5 -11.5q-13 -14 -30 -25.5t-36 -14.5h-1q-8 -2 -15.5 -2.5t-15.5 -0.5h-17t-17 1q-14 1 -27.5 3t-27.5 5q-26 5 -51.5 15.5t-46.5 27.5q-2 -5 -5.5 -9t-6.5 -8q-14 -15 -33 -27q-3 -2 -10 -5.5t-14.5 -6t-13.5 -1.5
t-7 9q-1 16 -1 31.5t-1 31.5q0 16 -0.5 31.5t-1.5 31.5q0 21 -0.5 41.5t1.5 40.5l-3 3q-1 2 -1 2.5t-1 2.5q-5 16 3.5 31t19.5 26q8 9 18 16.5t20 13.5q8 5 15.5 8t15.5 6t15.5 4.5t15.5 2.5q17 2 33.5 1t33.5 -4q34 -5 64 -18q14 -7 27.5 -15.5t24.5 -20.5q8 -10 13 -22.5
t3 -25.5q-3 -20 -16 -40q-19 -27 -41 -46q-24 -19 -46 -33q28 -13 58 -19t60 -8q5 -1 10.5 -1h10.5q7 0 10 1q3 0 7 0.5t7 -0.5h1zM352 306q10 11 21.5 20.5t25.5 14.5q11 5 22.5 10.5t22.5 11.5h1l9 6q2 1 3.5 1.5t3.5 2.5q1 1 2 1.5t2 1.5q1 0 1 1q1 0 1 1l1 2l3 6
q2 10 -1 18q-5 13 -14.5 22.5t-20.5 16.5q-42 26 -94 32q-1 -17 -0.5 -33.5t1.5 -33.5q0 -17 0.5 -32.5t0.5 -31.5q1 -12 1.5 -24t-0.5 -24q2 3 4 5.5t4 4.5zM712 622q44 -45 69 -104t23 -122q-2 -72 -37 -134t-89 -109q-58 -50 -126 -83.5t-143 -47.5q-65 -12 -127 -8
q-29 2 -57 9t-54 19q-57 26 -94 72q-22 26 -36 57t-22 64q-15 67 0.5 133.5t48.5 125.5q19 34 43 64t53 56q34 32 73 57t83 41q82 28 169 25.5t170 -20.5q6 -2 6.5 -6.5t-1.5 -8.5q-3 -8 -9 -14.5t-12 -12.5l27 -18q11 -8 21.5 -16.5t20.5 -18.5zM633 168q-1 0 -1 -1
q7 6 5 4.5t-4 -3.5zM703 288q14 67 -4 132q-17 56 -52 101.5t-83 76.5q-8 5 -16.5 9.5t-16.5 9.5q4 -2 5 -3q-28 13 -57.5 21t-60.5 10h-6q-5 0 -9 1t-4 7q0 5 3 10q-23 -1 -45.5 -3.5t-45.5 -7.5q-15 -3 -26 -7q-5 -2 -9.5 -3.5t-9.5 -3.5l-9 -3l-1 -1q-1 0 -1.5 -0.5
t-1.5 -0.5q-6 -5 -13 -8l-2 -2q-4 -2 -7 -4.5t-6 -4.5l-3 -3q-4 -3 -11 -10q-4 -4 -7 -6l-4 -4t-3 -4l-6 -6t-5 -7q-2 -2 -4 -4.5t-4 -4.5q-8 -11 -15 -22.5t-14 -22.5q-21 -40 -34 -89q-8 -37 -8.5 -75t10.5 -76q14 -45 41.5 -84t67.5 -65q33 -20 70 -30t75 -12
q29 -1 57 1.5t56 8.5q10 3 20 5.5t20 6.5q5 2 11 3.5t11 3.5q1 1 1.5 1t1.5 1q2 1 4 1.5t4 1.5q7 3 13.5 6t13.5 7l4 2q8 4 11 6q4 2 7 4.5t7 4.5l12 9q2 1 5 4q4 3 7.5 6.5t7.5 6.5q2 2 2 3q3 4 9 10q3 3 4 5q4 6 6 8q7 9 13 22q15 29 24 61z" />
    <glyph glyph-name="degree" unicode="&#xb0;" horiz-adv-x="450" 
d="M387 687q5 -11 7 -22.5t0 -23.5q-6 -29 -22 -54q-8 -14 -17.5 -26t-20.5 -23q-30 -31 -61 -54q-17 -12 -34.5 -23t-35.5 -20q-14 -7 -28.5 -12.5t-29.5 -8.5q-14 -4 -28.5 -5.5t-29.5 0.5q-11 2 -20.5 6.5t-18.5 11.5q-17 13 -26 32.5t-11 41.5q-2 23 3 46.5t13 45.5
q9 25 22.5 47.5t30.5 42.5q19 23 44 42q14 11 30.5 20t34.5 11q19 3 29 -8q7 -7 11 -20q20 5 41.5 7.5t42.5 0.5q24 -3 44.5 -17.5t29.5 -37.5zM218 499q0 -1 -1 -1q7 3 5 2.5t-4 -1.5zM235 507q2 2 4 2.5t-5 -2.5h1zM299 582q3 14 0 29q-5 14 -12.5 25t-19.5 19
q-10 6 -20.5 8.5t-21.5 3.5q-10 0 -20 -1t-20 -3q-8 -2 -16.5 -4.5t-16.5 -5.5q-2 -1 -4.5 -2t-4.5 -2q-4 -2 -7.5 -3.5t-7.5 -3.5q-2 -2 -4 -2.5t-4 -2.5l-6 -3q-1 -5 -2 -9t-3 -9q-4 -17 -4.5 -35.5t3.5 -35.5q10 -29 37 -48q7 -4 13.5 -5.5t13.5 -2.5q6 0 12 0.5t12 1.5
l18 6q1 0 1 1h2q3 2 5.5 3t5.5 3q1 0 2 0.5t2 0.5l9 6q4 2 5 3q2 1 5 4q2 2 4 3t4 3q1 1 1.5 1t1.5 1l8 8l2 2q6 6 9 10v1q3 4 5.5 7.5t4.5 7.5q3 5 4.5 10t3.5 10z" />
    <glyph glyph-name="twosuperior" unicode="&#xb2;" horiz-adv-x="360" 
d="M314.098 522.074q-0.382812 0 -0.765625 -0.374023h0.382812zM339.375 534.773q2.29883 -0.746094 2.49023 -2.42773q0.191406 -1.68066 -0.575195 -3.54883q-1.53125 -2.98828 -3.6377 -5.41602t-4.78809 -4.66895q-1.91504 -1.86816 -4.02148 -3.73535
t-4.4043 -3.73535q-0.382812 -0.374023 -0.765625 -0.560547t-0.766602 -0.55957q-0.382812 0 -0.765625 -0.374023l-0.382812 -0.374023l-6.89453 -4.48242q-13.4043 -8.59082 -28.5332 -12.3262q-15.1279 -3.73535 -31.2139 -3.73535q-14.1709 0 -28.1504 1.86816
q-13.9785 1.86719 -27.7666 4.85547q-5.3623 1.12109 -10.1494 2.42773q-4.78809 1.30762 -9.7666 3.54883q-11.1064 4.85547 -19.5332 10.459q-5.36133 2.98828 -10.915 6.53711t-10.915 6.91016q-6.51074 -7.4707 -14.1709 -13.8203q-7.27734 -6.35059 -15.1289 -11.5801
q-7.85059 -5.22949 -16.6602 -8.96484q-4.21289 -1.86719 -8.42578 -2.98828t-8.80859 -1.86719q-3.44727 -0.748047 -6.70215 -0.560547q-3.25586 0.186523 -6.32031 0.560547q-11.4893 1.12012 -20.2979 7.09668q-7.27734 4.48242 -11.1074 12.3271
q-3.83008 7.84375 -3.44727 16.4355q0 11.9531 6.51172 22.5986q6.51074 10.6455 15.3193 18.4893q7.27734 6.35059 15.7031 11.5801t17.6172 8.21777q12.2559 4.1084 24.5117 2.61426q9.95801 -1.86719 19.5332 -6.34961t18.3838 -9.71191v0.374023
q4.21289 9.71094 7.27734 19.6104q3.06348 9.89844 5.74414 19.9834q5.74512 23.9062 8.04297 48.9336q1.91504 19.0508 1.53223 38.1006t-5.74512 37.3535q-3.83008 11.9531 -10.5322 22.7861q-6.70215 10.832 -17.8096 18.3027q-4.5957 2.61523 -10.1494 4.48242
q-5.55273 1.86719 -10.915 2.61523q-1.91504 0 -4.02148 -0.1875q-2.10645 -0.186523 -4.4043 -0.560547l-3.44727 -1.12012q-0.765625 0 -1.14844 -0.374023h-0.383789l-2.29785 -1.12012q-0.765625 -0.74707 -1.33984 -0.933594q-0.575195 -0.186523 -1.34082 -0.93457
q-0.765625 0 -1.53223 -0.746094q-1.14844 -1.12109 -1.91504 -1.49414l-3.44629 -3.3623q-0.766602 -0.74707 -1.53223 -1.49414t-1.53223 -1.49414q-1.91504 -1.86816 -3.25488 -3.3623q-1.34082 -1.49414 -3.25586 -3.36133q-0.765625 -0.74707 -1.14941 -1.49414
q-0.382812 -0.74707 -1.14844 -1.49414q-1.53223 -1.49414 -2.29785 -2.98828q-6.12793 -7.84375 -10.3408 -14.9414q-1.53223 -4.10938 -3.44727 -7.84375q-1.91504 -3.73633 -3.83008 -7.4707q-1.91504 -3.3623 -3.44727 -6.53711q-1.53125 -3.17578 -2.29785 -6.53711
q-0.382812 -0.74707 -0.382812 -1.86719q1.91504 0.746094 4.02148 0.933594q2.10645 0.186523 3.25586 -1.68164q1.53125 -1.86719 0.382812 -4.1084q-1.14941 -2.24121 -1.91504 -3.3623q-4.5957 -6.34961 -10.7236 -10.459q-3.06445 -2.24023 -6.31934 -4.1084
q-3.25586 -1.86816 -7.08594 -2.98828q-3.06348 -1.12012 -8.23438 -1.86816q-5.16992 -0.746094 -7.08496 2.61523q-0.766602 0.74707 -1.14941 2.98828q0 0.373047 -0.191406 0.560547q-0.191406 0.186523 -0.191406 0.560547q0 1.86719 0.382812 3.1748t0.765625 2.80176
q1.91504 5.60254 3.83008 9.33789q2.29785 5.22949 4.97949 10.0859q2.68066 4.85547 4.5957 10.085q0.765625 1.86816 2.10645 3.92188q1.34082 2.05469 2.48926 3.92285q0.766602 1.49414 1.53223 2.61426t1.53223 2.24121q1.91504 2.98828 3.83008 5.60352
l3.83008 5.22852q11.4893 14.5684 25.0859 27.6426q13.5957 13.0732 30.0645 21.6641q8.42676 4.48242 17.0439 8.03125t18.1924 4.2959q11.1064 0.374023 21.8301 -3.3623q16.0859 -6.34961 26.8105 -19.7969q5.36133 -7.09766 9 -15.1279
q3.63867 -8.03125 5.93652 -16.6221q2.68066 -8.96484 3.83008 -18.1172q1.14844 -9.15137 1.91504 -18.8633q0.765625 -19.7969 -1.34082 -39.2207t-6.31934 -38.8477q-3.44727 -17.5566 -9.19238 -35.1133q-1.91504 -6.72266 -4.5957 -13.4473
q-1.91504 -4.1084 -4.02148 -8.2168q-2.10645 -4.10938 -4.4043 -8.21875l-10.3408 -16.8086q6.89355 -4.48242 13.7881 -9.15137q6.89355 -4.66895 13.7881 -8.77832q4.21289 -2.61523 8.80859 -5.22949t9.19141 -4.48242q4.21289 -1.86816 8.80957 -3.3623
q4.5957 -1.49414 9.19141 -2.61426q12.2559 -2.98828 24.1289 -4.85645q11.873 -1.86719 24.1289 -2.61426q15.3193 -0.74707 29.873 2.24121q1.91504 0.373047 3.25586 0.74707t2.87207 0.74707q1.53223 0.74707 2.68164 1.12109h0.382812l0.382812 0.373047h0.382812
v0.373047h0.382812h0.383789q0 0.374023 0.382812 0.374023q0 0.374023 0.382812 0.374023q-0.382812 -0.374023 -0.765625 -0.374023q5.36133 5.22949 13.7871 8.96484q1.91504 1.12012 4.78809 2.24121q2.87207 1.12109 5.55273 0.373047zM62.8525 556.065
q-1.91504 -0.74707 -1.34082 -0.560547q0.575195 0.186523 1.34082 0.560547zM122.217 534.773l0.382812 0.748047q-1.91504 0.746094 -3.44629 1.86719q-1.53223 1.12109 -3.44727 2.24121q-5.3623 3.3623 -11.1064 6.53711q-5.74512 3.1748 -11.873 5.79004
q-4.97949 1.86719 -9.95801 3.54785q-4.97949 1.68066 -10.3408 2.05469q-3.83008 0 -5.74512 -0.374023h-0.382812q-0.766602 -1.86719 -1.34082 -3.36133t-1.34082 -3.36133q-1.53125 -7.09766 0.383789 -15.6895q3.83008 -10.085 12.2559 -15.6875
q4.21289 -2.24219 8.80859 -3.3623t9.19141 -1.86816q1.91504 0 3.44727 0.1875q1.53223 0.186523 3.44727 0.560547q0.765625 0.373047 1.14844 0.373047q0.383789 0 1.14941 0.373047h0.382812q0.382812 0.374023 0.766602 0.374023q0.382812 0.374023 0.765625 0.374023
l1.14844 1.12012q0.383789 0.374023 0.575195 0.374023t0.574219 0.373047l3.06348 2.98828q3.06445 2.98828 6.12891 7.09766q0.765625 0.373047 1.53125 1.86719q1.91504 1.86719 3.83008 4.85547zM313.332 521.7q-1.14941 -0.74707 0.382812 0
q0 0.374023 0.382812 0.374023v0.373047v-0.373047q0 0.373047 0.382812 0.373047q-1.53125 -0.74707 -1.91504 -0.74707q0 -0.74707 0.766602 0zM314.098 522.447l-0.765625 -0.74707h-0.382812l0.382812 0.374023q0.382812 0 0.765625 0.373047zM315.247 522.82
l1.14844 1.12109l-0.765625 -0.74707h-0.382812l0.765625 0.374023q0.382812 0.373047 0.574219 0.373047t0.575195 0.373047q-0.766602 -0.373047 -0.958008 -0.746094q-0.191406 -0.374023 -0.957031 -0.748047zM314.48 522.447q-0.382812 0 -0.765625 -0.373047
q0.765625 0.746094 1.53223 1.12012q-0.383789 -0.374023 -0.766602 -0.374023v-0.373047z" />
    <glyph glyph-name="threesuperior" unicode="&#xb3;" horiz-adv-x="294" 
d="M249.713 621.364q9.92969 -20.7402 5.86719 -42.4229q-3.15918 -16.9697 -10.832 -31.3467q-7.67383 -14.377 -18.0547 -28.0469q-15.7969 -20.7402 -39.2676 -34.4102q-18.957 -11.3135 -39.4941 -19.0908q-20.5361 -7.77734 -42.2012 -12.9629t-43.1045 -8.24902
t-43.1045 -1.64941q-7.22168 0.942383 -14.4434 2.12109q-7.22168 1.17773 -13.541 4.94922q-3.15918 1.88574 -5.86719 3.77051q-2.70801 1.88574 -4.96484 4.71387q-1.80566 2.82812 -2.70801 4.71387q-0.451172 0.942383 -0.676758 2.35742
q-0.226562 1.41406 -0.677734 2.35645q-0.451172 1.41406 -0.451172 2.82812v-0.47168q-0.902344 4.24316 0 8.48535t1.80566 8.01367q1.80566 5.65625 4.28809 10.6055t5.6416 9.66309q2.25684 3.77148 5.6416 7.30664q3.38574 3.53516 6.99609 6.36328
q3.61133 2.82812 7.67285 5.18555q4.0625 2.35645 8.125 3.77051q2.25684 0.942383 5.19043 1.41406t4.73926 -1.88574q1.80566 -2.35645 0.225586 -5.18457t-2.48242 -4.71387q-0.451172 -0.47168 -0.451172 -0.707031t-0.451172 -0.707031
q-0.90332 -2.35742 -2.03125 -5.18555q-1.12891 -2.82812 -2.03125 -5.18457q-0.451172 -2.35742 -0.451172 -4.00684v-4.00684q0.451172 -0.942383 0.451172 -1.41406t0.451172 -0.942383q0.902344 -3.77148 3.15918 -6.12793q2.25684 -2.35742 4.96484 -4.71387
q6.77051 -3.77148 14.8955 -5.4209q8.12402 -1.65039 15.7969 -2.12109q17.1514 -0.943359 34.0771 1.41406q16.9258 2.35645 33.626 6.12793q6.77051 1.88574 13.3154 3.53516t12.8633 4.00684l13.541 4.24219q3.15918 1.88574 6.31836 2.35645
q0.90332 0.943359 2.25684 0.943359q3.61133 1.88574 7.22168 3.53516q3.61133 1.64941 7.22168 3.53516q0.90332 0.942383 1.80566 0.942383l0.90332 0.943359l0.451172 0.47168q1.80469 1.88477 3.61035 4.71289q0.90332 0.943359 0.90332 1.41504
q0.902344 0.942383 1.12793 1.41406q0.225586 0.470703 1.12793 1.41406q1.80566 2.35645 3.16016 5.18457q1.35352 2.82812 3.15918 5.18555q2.25684 4.71387 4.0625 9.19141q1.80566 4.47852 2.70801 9.66309q3.61035 15.084 -0.451172 29.6973
q-3.61133 13.1982 -12.6387 23.5684q-9.02637 10.3701 -20.3105 17.9121q-17.1514 10.8418 -36.334 16.2627t-38.5908 6.36328q-1.80566 0 -2.25684 0.47168q-9.02734 -3.2998 -18.5059 -5.89258t-18.5049 -4.47754q-8.125 -1.88574 -16.7002 -2.8291
q-8.57617 -0.942383 -16.7002 0.943359q-2.70801 0.942383 -2.93359 3.2998q-0.226562 2.35645 0.676758 4.24219q1.80566 4.71387 5.41602 8.48438q4.51367 5.18555 9.7041 9.66309q5.19043 4.47852 11.5098 7.30664q17.1514 7.54199 34.9795 11.5488
q17.8291 4.00684 36.7861 3.53516h2.25684q0.902344 0.942383 2.25684 1.17871q1.35352 0.235352 2.25684 0.707031q1.35352 0.942383 2.93359 1.17773q1.5791 0.236328 2.93359 1.17871l2.70801 1.41406q5.86816 2.35742 11.2842 4.94922q5.41602 2.59277 10.3809 5.4209
q0.451172 0.47168 0.902344 0.47168q0.90332 0.942383 2.25684 1.64941q1.35449 0.708008 2.70801 1.65039q0.90332 0.942383 2.25684 1.64941q1.35449 0.707031 2.70898 1.65039q0.451172 0 0.451172 0.235352t0.451172 0.235352q3.61035 2.82812 4.96484 3.77148
l0.902344 0.942383q0.90332 0.47168 1.12891 0.943359q0.225586 0.470703 0.676758 0.942383l0.902344 0.942383l1.35449 1.41406q0.451172 0.943359 0.902344 1.65039q0.452148 0.707031 0.90332 1.64941q1.80566 3.77148 2.25684 6.12793q1.35352 5.65625 0 11.7842
q-1.80566 5.18555 -5.19043 9.42773q-3.38574 4.24219 -7.89941 7.54199q-7.67285 4.71387 -16.248 6.59961q-8.57617 1.88574 -17.6035 2.35645q-15.3457 0.943359 -30.4658 -0.942383q-15.1211 -1.88574 -30.0156 -5.65625q-13.0889 -2.8291 -26.1787 -7.07129
q-2.70801 -1.88477 -6.31836 -2.82812q-3.61133 -1.41406 -7.22168 -2.82812q-3.61133 -1.41406 -7.22168 -2.82812q-2.25684 -1.41406 -4.96484 -1.88574q-0.452148 0 -0.677734 -0.235352q-0.225586 -0.236328 -0.676758 -0.236328
q-0.451172 -0.470703 -0.902344 -0.470703q-0.452148 0 -0.90332 -0.47168l-0.902344 -0.47168q-0.451172 -0.470703 -0.676758 -0.470703q-0.226562 0 -0.677734 -0.47168q-2.25684 -0.942383 -4.96484 -1.88574q-2.70801 -0.942383 -4.96484 -0.942383
q-0.902344 0.47168 -2.25684 0.47168q-2.25684 0 -4.28809 0.470703q-2.03027 0.47168 -2.03027 3.2998q0 3.77148 2.03027 6.59961q2.03125 2.82812 4.28809 5.18457q6.31934 8.01367 14.8945 13.1992q2.70898 1.88477 5.19141 3.06348t5.19043 2.12109
q1.35352 0.47168 2.93359 0.942383q1.58008 0.47168 2.93359 0.943359q1.35449 0.942383 2.70801 1.17871q1.35449 0.235352 2.70801 1.17773q5.41699 2.35742 10.6074 4.47852t10.6064 4.00684q23.0195 7.54199 46.0381 12.7266q13.0898 2.82812 25.9531 4.47852
q12.8633 1.64941 25.9531 1.64941q11.2842 -0.47168 23.0195 -1.88574q11.7344 -1.41406 22.1162 -7.54199q4.51367 -2.82812 8.34961 -5.8916q3.83691 -3.06445 6.54492 -7.77832q4.96484 -8.0127 4.96484 -18.3828q0 -11.7852 -6.09375 -22.626
q-6.09277 -10.8418 -13.7656 -18.8555q-9.92969 -10.8418 -21.2139 -20.0332t-23.9219 -17.2051q29.7891 -6.59961 54.1621 -23.0977q8.125 -6.12793 15.1211 -13.6699t11.9609 -16.9697zM194.196 512.478l-0.452148 -0.47168q2.25684 2.35645 1.80566 1.88574
q-0.451172 -0.47168 -1.35352 -1.41406z" />
    <glyph glyph-name="acute" unicode="&#xb4;" horiz-adv-x="306" 
d="M223 777q2 1 9.5 5t15.5 6.5t14 1.5t6 -8t-4.5 -13.5t-8.5 -11.5q-9 -11 -21 -18q-7 -5 -13.5 -9.5t-13.5 -9.5l-1 -1q-2 -2 -5 -3.5t-5 -3.5q-10 -7 -19.5 -13.5t-19.5 -14.5q-2 -2 -4.5 -3.5t-4.5 -3.5q-2 -1 -4 -3t-5 -4.5t-5 -4.5l-3 -3l-1 -1q-1 -2 -1.5 -2.5
t-1.5 -2.5q0 1 0.5 1.5t0.5 1.5q-9 -16 -23 -27.5t-30 -19.5q-6 -3 -13.5 -5.5t-13.5 -0.5q-5 2 -6 6.5t1 8.5q6 12 14.5 23t17.5 21q13 13 27 25t28 23q23 17 46.5 33t46.5 31z" />
    <glyph glyph-name="cedilla" unicode="&#xb8;" horiz-adv-x="392" 
d="M271 -125q12 -24 12 -53q0 -32 -11 -62q-11 -29 -30 -53t-42 -44q-55 -49 -120 -74q-20 -8 -42 -12.5t-45 -2.5q-16 2 -28 12q-7 5 -9.5 11t-4.5 13q-2 10 0 20t5 19q5 14 12 27.5t15 25.5q11 16 28 29q8 5 16.5 10.5t18.5 8.5q5 1 11.5 2t9.5 -4q4 -5 1 -10.5t-5 -9.5
q-2 -2 -2.5 -4t-2.5 -4q-7 -13 -12 -29q-1 -6 -1.5 -11.5t0.5 -10.5q4 -9 11 -14q9 -5 21 -6q12 0 24 3q5 1 9 2t9 3l4 2q1 0 5 2q2 1 4.5 2t4.5 2l9 6q2 2 3.5 2.5t3.5 2.5q3 2 5 5q3 2 7 8q2 3 4.5 6.5t4.5 6.5q3 7 5.5 13.5t4.5 13.5q8 34 1 64q-9 26 -33 43
q-24 14 -52 18t-55 6q-16 1 -31.5 1h-31.5q-5 0 -9.5 1.5t-4.5 7.5q0 8 4.5 14t9.5 11q19 24 42.5 42.5t49.5 34.5l18 12t18 11l9 6l1 1q6 3 11 8q16 13 35 19q4 2 10.5 3t10.5 -4q3 -5 0 -11l-5 -10q-5 -8 -12.5 -14.5t-15.5 -12.5l-15 -12q-5 -4 -10 -7t-10 -7q-1 0 -2 -1
l9 6q-4 -2 -7.5 -5t-7.5 -5q-5 -3 -9.5 -6t-9.5 -7q25 0 50 -2t49 -7q23 -6 45.5 -18t34.5 -34z" />
    <glyph glyph-name="onesuperior" unicode="&#xb9;" horiz-adv-x="185" 
d="M144.854 498.02q0.780273 0.363281 3.70508 1.81445q2.92383 1.4502 6.04395 2.17578q3.11914 0.725586 5.6543 0.543945q2.53418 -0.180664 2.53418 -3.08301q0 -2.53906 -1.75391 -4.89648q-1.75488 -2.3584 -3.70508 -4.17188q-2.72949 -2.90137 -6.04395 -5.25977
q-3.31445 -2.35742 -6.82422 -4.53418q-6.62988 -3.98926 -14.8184 -7.61719q-8.5791 -3.62695 -17.7432 -5.80371q-9.16406 -2.17578 -18.5225 -1.81348q-7.79883 0.725586 -15.4033 1.99512t-15.0137 4.1709q-14.4277 4.71582 -27.8809 10.8828
q-13.4541 6.16602 -27.4922 10.8818q-3.11914 1.08789 -2.72949 3.26465q0.389648 2.17578 2.14453 4.71484t4.09473 4.71582t3.11914 2.90234q5.84961 5.44043 13.6484 8.70508q5.45996 2.53906 9.74902 2.53906h0.780273q0.389648 0 0.389648 0.181641t0.389648 0.181641
h0.390625q0.389648 0.362305 0.779297 0.362305q0.390625 0 0.780273 0.362305q1.94922 0.725586 3.50977 1.08887q1.55957 0.362305 3.50977 0.362305q1.94922 0 3.50879 -0.543945q1.56055 -0.543945 1.56055 -2.7207q0 -1.45117 -1.16992 -3.62695
q4.28906 -1.45117 8.77344 -3.26465t8.77441 -3.62695v13.4209t0.389648 13.0576q0.780273 30.4697 2.33984 60.3955q1.55957 29.9248 1.9502 60.0322q0.389648 18.499 -0.390625 36.4541q-0.779297 17.9551 -2.72949 36.0918q-1.55957 -2.90137 -2.9248 -5.25977
q-1.36426 -2.35742 -2.9248 -5.25879q-1.16992 -1.81445 -2.33984 -3.80957q-1.16895 -1.99512 -1.94922 -3.80859q-1.16992 -2.17578 -2.14453 -4.35254q-0.975586 -2.17676 -2.14551 -4.35254q-0.389648 -0.363281 -0.389648 -0.725586q0 -0.363281 -0.389648 -0.725586
q-1.16992 -2.90137 -3.50977 -5.44043q-2.33984 -2.54004 -4.67969 -4.35352q-5.84863 -5.44043 -13.6484 -8.70508q-2.33984 -1.08887 -5.26367 -1.99512q-2.9248 -0.907227 -5.6543 -0.181641q-1.9502 0.725586 -2.14551 2.17676q-0.194336 1.45117 0.584961 3.26465
q0 0.725586 0.780273 1.4502q0.389648 1.81445 0.974609 3.26465q0.584961 1.45117 1.36523 2.90234q0.779297 1.45117 1.36426 2.7207t1.36523 2.71973q1.16992 2.53906 2.53516 4.89746q1.36426 2.35742 2.92383 5.25977q3.12012 5.07812 5.84961 10.1562t5.84961 10.1562
q6.23926 10.5195 11.5029 21.0391q5.26465 10.5186 8.38477 22.126q1.55957 3.62793 4.67871 6.5293q0.780273 1.08789 1.9502 1.99512t1.9502 1.63184q3.11914 2.90234 6.62891 5.0791q3.50977 2.17578 7.79883 3.98926q2.33984 1.08887 5.26465 2.17676t5.6543 0.362305
q2.72949 -0.362305 2.72949 -3.26367q3.12012 -11.6074 5.06934 -23.3965q1.9502 -11.7891 3.12012 -23.3965q3.11914 -29.7441 2.72949 -59.6689q-0.389648 -29.9258 -1.55957 -60.0322q-0.780273 -14.8721 -1.36523 -29.5625q-0.584961 -14.6914 -1.36523 -29.9258
q-0.779297 -13.7842 -0.779297 -27.749t0.389648 -27.749q0 -2.53906 -1.75488 -4.89648q-1.75488 -2.3584 -3.7041 -4.17188q-1.56055 -1.45117 -1.9502 -2.17578q10.5293 -3.62793 21.0576 -3.99023q7.40918 -0.363281 14.4287 1.08789q1.16992 0 2.72949 0.725586
q1.16992 0 1.94922 0.725586q2.33984 0.725586 3.12012 1.08789q0.779297 0.363281 1.55957 1.08789z" />
    <glyph glyph-name="ordmasculine" unicode="&#xba;" horiz-adv-x="316" 
d="M281.76 658.564q1.77734 -6.31543 2.96094 -12.918q1.18555 -6.60156 1.18555 -13.4912q0 -14.9268 -3.55469 -29.2783q-7.10742 -34.4463 -24.2832 -67.1699q-10.0684 -18.3711 -22.8027 -35.5938t-28.7266 -32.1494q-16.584 -15.501 -37.9062 -26.9824
q-10.0684 -5.74121 -21.0254 -10.0469t-22.8027 -5.4541q-15.4004 -2.87012 -30.207 2.87109q-15.3994 5.16602 -29.0215 17.2227q-5.92383 5.16699 -10.958 10.9082q-5.03418 5.74023 -8.58789 12.6299q-2.96191 4.59277 -4.73828 9.18555t-3.55371 9.18555
q-8.29199 25.834 -9.47656 52.8164t1.77734 53.3916q2.36914 28.7041 11.8457 57.4092q4.14551 12.6299 9.47656 24.6865q5.33008 12.0557 13.6221 22.9639q11.8457 16.6484 28.7256 29.8525q16.8809 13.2041 37.0176 20.0938q6.51562 2.87012 13.3271 3.44434t13.9189 0
q1.18359 0 1.77637 -0.287109t1.77637 -0.287109l0.592773 0.574219q10.6611 4.01855 21.6182 5.74121t22.2109 -2.29688q14.8066 -4.59277 26.3564 -15.2129q11.5498 -10.6211 20.4346 -22.6768q19.5449 -25.835 29.0215 -59.1318zM229.047 596.562
q0 6.88965 -0.888672 14.0654t-3.25781 13.4912q-3.55371 13.2041 -9.47656 24.9736q-5.92285 11.7686 -13.0303 22.6768q-6.51465 9.75879 -14.2148 18.3711q-7.7002 8.61133 -17.7686 15.5q-8.29199 -5.74121 -16.584 -8.61133q-3.55371 -1.14844 -6.51562 -1.14844
q-2.96094 0 -5.92188 2.29688q-2.36914 1.14844 -3.55469 2.2959l-3.55273 1.72266q-4.14648 -2.87012 -8.88477 -5.74121q-4.73828 -2.87012 -10.0684 -4.01855q-2.36914 -1.14844 -6.51562 -1.72266q-4.14648 -0.573242 -5.92285 2.29688l-0.592773 0.574219
q-5.92188 -13.2041 -9.47656 -29.8535q-1.77637 -8.03711 -3.25684 -15.5q-1.48145 -7.46387 -2.66504 -15.501q-2.96191 -25.834 -2.36914 -51.9561q0.591797 -26.1211 7.69922 -51.3809q3.55371 -12.0566 10.0684 -22.9639q12.4385 -18.3711 29.6152 -29.2793
q11.2529 -6.88965 25.4678 -8.61133q2.96191 0 5.03418 0.287109q2.07324 0.287109 5.03516 0.861328q1.18359 0 1.48047 0.287109q0.295898 0.286133 1.48047 0.286133q0 0.574219 1.18457 0.574219q0.592773 0 0.888672 0.287109t0.887695 0.287109v0.574219h0.592773
l1.18457 1.14844q1.18457 1.14844 1.77734 1.43555q0.591797 0.287109 1.77637 1.43457q0 0.574219 0.295898 0.574219q0.296875 0 0.296875 0.574219q1.77637 1.14844 4.14551 4.59277l2.96191 2.87012q0.591797 1.14844 1.18359 1.72266
q0.592773 0.574219 0.592773 1.14844q4.14551 5.16699 7.7002 10.6201q3.55273 5.4541 7.10742 11.1953q7.10742 13.2041 12.4375 26.9824t9.47656 28.1309q1.77734 8.03711 2.96094 16.0742q1.18555 8.03809 1.18555 16.0752z" />
    <glyph glyph-name="guillemotright" unicode="&#xbb;" horiz-adv-x="672" 
d="M658 333q4 -8 -1.5 -16.5t-10.5 -14.5q-8 -8 -16 -14.5t-18 -12.5q-4 -4 -10 -7l-1 -1q-5 -4 -10 -7t-10 -7l-42 -30q-38 -26 -75 -52t-76 -49q-42 -25 -85 -46.5t-89 -35.5q-5 -1 -11.5 -2t-9.5 4q-4 5 -1 11t5 9q11 17 28 29t35 18q6 2 12.5 5t12.5 5q1 0 1.5 0.5
t1.5 0.5q3 1 5.5 2t4.5 2l45 21q5 2 9 4.5t9 5.5q3 1 9 5l36 21q9 6 18 11.5t17 11.5q5 3 8.5 5.5t8.5 5.5q2 2 3.5 2.5t3.5 2.5l46 32t46 33q-6 11 -13 20.5t-15 19.5q-17 23 -37 44.5t-41 41.5q-22 20 -44.5 38.5t-47.5 34.5q-19 11 -39 20.5t-42 11.5h-4q-2 0 -3 -0.5
t-3 -0.5q-5 -2 -11 -4t-11 0t-5.5 6.5t1.5 8.5q3 8 8.5 15t11.5 12q8 7 16.5 13t18.5 11l15 6q2 1 3.5 1.5t-0.5 -0.5h2q5 2 9 2.5t9 1.5q24 3 47 -4.5t44 -18.5q51 -28 98 -70q22 -20 42.5 -41.5t40.5 -44.5q14 -17 27.5 -36t23.5 -40zM476 340q3 -6 0 -13q-5 -9 -12 -18
q-10 -11 -21.5 -19t-24.5 -15q-1 0 -3 -2q-3 -2 -11 -6q-6 -3 -12 -6.5t-12 -7.5q-12 -8 -24 -15.5t-23 -15.5q-2 0 -4 -2q-2 -1 -4 -3l-18 -12q-9 -7 -18 -13.5t-18 -12.5q-18 -14 -36.5 -27t-36.5 -27q-38 -28 -78 -55.5t-82 -51.5q-7 -4 -15 -7.5t-16 -5.5q-5 0 -9.5 1.5
t-4.5 7.5q1 7 5 13.5t9 11.5q13 14 32 27q13 8 25.5 15.5t25.5 15.5q3 2 6.5 4.5t6.5 4.5q2 2 3 2q5 4 10.5 7.5t11.5 7.5q60 42 117.5 85.5t119.5 82.5q-32 28 -67 51t-70 45q2 -1 2.5 -1.5t2.5 -1.5q-20 13 -39.5 25t-39.5 25q-8 5 -16 11t-16 11q-3 3 -6.5 5.5t-7.5 5.5
q-3 2 -6 4.5t-5 6.5q-2 1 -5 4q-4 3 -0.5 10t5.5 10q5 8 12 14.5t15 12.5q15 12 33 18q5 2 10.5 2.5t10.5 -3.5l2 -2q1 0 5 -2q0 -1 0.5 -1t0.5 -1l4 -2q2 -2 3.5 -3t3.5 -3q5 -2 8.5 -5t8.5 -6q9 -6 18.5 -12t18.5 -12q4 -2 5 -4l-4 3q30 -19 60 -37t60 -38q27 -18 54 -38
t50 -43z" />
    <glyph glyph-name="onequarter" unicode="&#xbc;" horiz-adv-x="643" 
d="M223.931 416.455q0.966797 0.524414 4.5918 2.62402q3.62402 2.09863 7.49023 3.14844t7.00781 0.787109t3.1416 -4.46094q0 -3.67285 -2.1748 -7.08398t-4.5918 -6.03516q-3.38281 -4.19824 -7.49023 -7.60938q-4.1084 -3.41113 -8.45801 -6.55957
q-8.21484 -5.77246 -18.3643 -11.0205q-10.6318 -5.24805 -21.9893 -8.39648q-11.3564 -3.14844 -22.9551 -2.62402q-9.66602 1.0498 -19.0898 2.88672q-9.42383 1.83594 -18.6055 6.03418q-17.8818 6.82227 -34.5547 15.7441q-16.6729 8.9209 -34.0713 15.7432
q-3.86621 1.57422 -3.38281 4.72266t2.6582 6.82227t5.07422 6.82227t3.86621 4.19824q7.24902 7.87207 16.915 12.5947q6.76562 3.67383 12.082 3.67383h0.96582q0.483398 0 0.483398 0.261719q0 0.262695 0.483398 0.262695h0.483398q0.483398 0.524414 0.966797 0.524414
t0.966797 0.525391q2.41602 1.04883 4.34863 1.57422q1.93359 0.524414 4.34961 0.524414q2.41699 0 4.34961 -0.787109q1.93359 -0.787109 1.93359 -3.93555q0 -2.09961 -1.4502 -5.24805q5.31641 -2.09863 10.874 -4.72266t10.873 -5.24805v19.417t0.483398 18.8916
q0.966797 44.082 2.90039 87.376q1.93262 43.2949 2.41602 86.8516q0.483398 26.7637 -0.483398 52.7402t-3.38281 52.2158q-1.93359 -4.19824 -3.625 -7.60938t-3.62402 -7.60938q-1.4502 -2.62402 -2.89941 -5.50977q-1.4502 -2.88672 -2.41699 -5.51074
q-1.44922 -3.14844 -2.6582 -6.29688q-1.20801 -3.14941 -2.65723 -6.29785q-0.483398 -0.524414 -0.483398 -1.0498q0 -0.524414 -0.483398 -1.04883q-1.4502 -4.19824 -4.34961 -7.87207t-5.79883 -6.29785q-7.25 -7.87109 -16.915 -12.5938
q-2.89941 -1.5752 -6.52441 -2.88672q-3.625 -1.3125 -7.00781 -0.262695q-2.41602 1.0498 -2.65723 3.14941q-0.242188 2.09863 0.724609 4.72266q0 1.0498 0.966797 2.09863q0.483398 2.62402 1.20801 4.72363q0.724609 2.09863 1.69141 4.19824
q0.966797 2.09863 1.69141 3.93555t1.69141 3.93555q1.4502 3.67383 3.1416 7.08496t3.62402 7.60938q3.86621 7.34668 7.24902 14.6934q3.38379 7.34766 7.24902 14.6943q7.73242 15.2188 14.2568 30.4375q6.52441 15.2178 10.3906 32.0107q1.93359 5.24805 5.7998 9.44629
q0.96582 1.57422 2.41602 2.88672q1.4502 1.31152 2.41602 2.36133q3.86621 4.19824 8.21582 7.34668t9.66602 5.77246q2.89941 1.5752 6.52441 3.14941q3.62402 1.57422 7.00684 0.524414q3.38281 -0.524414 3.38281 -4.72266q3.86621 -16.793 6.2832 -33.8486
q2.41602 -17.0557 3.86621 -33.8486q3.86621 -43.0322 3.38281 -86.3262t-1.93359 -86.8506q-0.96582 -21.5166 -1.69141 -42.7705q-0.724609 -21.2529 -1.69141 -43.2939q-0.966797 -19.9414 -0.966797 -40.1455t0.483398 -40.1455q0 -3.67383 -2.1748 -7.08496
q-2.17383 -3.41113 -4.59082 -6.03516q-1.93262 -2.09863 -2.41602 -3.14844q13.0479 -5.24805 26.0967 -5.77246q9.18262 -0.525391 17.8809 1.57422q1.4502 0 3.38281 1.0498q1.4502 0 2.41699 1.0498q2.89941 1.04883 3.86621 1.57422q0.966797 0.524414 1.93262 1.57422
zM542 756q3 -8 -1 -13q-2 -5 -5 -10q-5 -10 -10 -19.5t-10 -18.5q-8 -15 -20.5 -27t-27.5 -20q-8 -11 -15 -22t-15 -22q-45 -68 -84 -138q-16 -29 -31 -58.5t-29 -59.5q-36 -76 -67.5 -153.5t-61.5 -155.5q-3 -8 -9 -15t-12 -12q-15 -15 -35 -24q-6 -3 -13.5 -5.5
t-14.5 -0.5q-5 2 -5.5 6t1.5 9q11 32 22.5 62.5t23.5 62.5q33 81 69.5 159.5t78.5 155.5q42 75 89 146t104 135q11 13 25.5 23.5t30.5 15.5q5 2 11.5 3t10.5 -4zM507.536 200.247q-3.52344 -35.6758 -5.28613 -71.3525q-2.34863 -41.0273 -1.17383 -81.4609
q1.17383 -40.4326 5.28613 -81.4609h2.93652q2.93652 0.594727 5.5791 -0.296875q2.64355 -0.891602 2.64355 -4.45996q0 -2.97266 -1.46875 -5.64844q-1.46777 -2.67578 -3.23047 -5.05371q-1.17383 -2.37891 -1.17383 -3.56836q0 1.18945 0.586914 2.37891
q-1.76172 -6.54102 -6.16699 -12.1895t-9.10352 -10.4053q-4.69922 -4.75684 -10.2793 -8.62207q-5.5791 -3.86523 -12.04 -6.83789q-3.52441 -1.18945 -6.75488 -2.37891q-3.23047 -1.18848 -7.3418 -1.7832q-7.04785 -1.18945 -7.63477 5.35156
q-0.587891 1.18848 -0.587891 3.56738q-1.1748 4.75684 -1.76172 9.21582q-0.586914 4.45996 -1.1748 9.2168l-1.76172 19.6221q-1.1748 10.1084 -1.46875 20.5137t-0.880859 20.5137q-3.52441 82.0557 5.28613 162.327l-3.52441 -1.7832
q-34.6523 -17.8389 -73.124 -22.5957q-38.4707 -4.75684 -77.2354 -1.7832q-3.52344 0 -3.52344 3.56738t0.586914 5.35156q1.1748 2.97266 2.34961 5.64844t2.34961 5.64844q15.2705 41.0283 31.7158 81.1641q16.4463 40.1357 26.4307 82.9473
q4.69922 20.2168 6.75488 41.3252t-3.23047 41.3242q0 4.75781 3.52344 9.51367q2.34961 3.56836 4.11133 5.35156q4.11133 4.75684 9.10449 8.62207q4.99219 3.86523 10.2783 7.43262q8.80957 5.94629 18.207 7.72949q4.11133 0.594727 7.04883 -2.37793
q1.17383 -2.97266 1.76172 -5.35156q0.586914 -2.37891 1.1748 -5.35156q1.1748 -4.75684 1.46777 -10.4053q0.293945 -5.64941 0.881836 -10.4053q0 -5.94629 -0.293945 -11.2979t-0.880859 -11.2979q-3.52441 -26.1621 -10.5723 -51.7305
q-10.5723 -39.2441 -25.5498 -77.001q-14.9766 -37.7578 -29.6602 -76.4072q19.9688 -0.59375 39.3516 0.594727q19.3818 1.18945 38.1768 5.35156q3.52441 1.18945 5.87402 1.18945q3.52344 1.18945 7.3418 2.37793q3.81738 1.18945 7.3418 2.37891
q2.34863 1.18945 3.52344 1.18945q0.587891 0.59375 0.880859 0.59375q0.293945 0 0.881836 0.594727q6.45996 45.7852 16.1514 90.6777t25.5498 88.2988q1.76172 4.75684 5.5791 9.21582q3.81836 4.45996 7.3418 7.43262q10.5723 10.1084 21.7324 15.46
q3.52344 1.18945 7.92871 2.97266q4.40527 1.78418 8.5166 0.594727q4.11133 -0.594727 4.11133 -5.35156q5.87305 -32.7031 6.16699 -66.2979q0.293945 -33.5957 -9.69141 -65.7041q-5.87305 -19.0273 -16.1514 -35.6758q-10.2793 -16.6494 -23.7881 -30.9199z" />
    <glyph glyph-name="onehalf" unicode="&#xbd;" horiz-adv-x="550" 
d="M161.309 422.473q0.981445 0.478516 4.65918 2.39258q3.67871 1.91406 7.60156 2.87109q3.92383 0.957031 7.11133 0.717773t3.1875 -4.06738q0 -3.34961 -2.20703 -6.45996t-4.65918 -5.50293q-3.43262 -3.82812 -7.60059 -6.93848q-4.16895 -3.11035 -8.58301 -5.98145
q-8.33691 -5.26367 -18.6357 -10.0488q-10.7891 -4.78516 -22.3135 -7.65625q-11.5254 -2.87109 -23.2949 -2.39258q-9.80859 0.957031 -19.3721 2.63184q-9.5625 1.6748 -18.8809 5.50293q-18.1455 6.2207 -35.0645 14.3555q-16.9199 8.13477 -34.5752 14.3555
q-3.92285 1.43555 -3.43262 4.30664t2.69727 6.2207t5.14941 6.2207t3.92383 3.82812q7.35547 7.17773 17.1641 11.4844q6.86621 3.34961 12.2607 3.34961h0.980469q0.490234 0 0.490234 0.239258t0.491211 0.239258h0.490234q0.490234 0.478516 0.980469 0.478516
t0.981445 0.478516q2.45215 0.957031 4.41309 1.43555q1.96191 0.478516 4.41406 0.478516t4.41406 -0.717773q1.96094 -0.717773 1.96094 -3.58887q0 -1.91406 -1.4707 -4.78516q5.39453 -1.91406 11.0342 -4.30664t11.0342 -4.78516v17.7051t0.490234 17.2266
q0.981445 40.1953 2.94336 79.6729q1.96094 39.4775 2.45117 79.1943q0.491211 24.4043 -0.490234 48.0908q-0.980469 23.6865 -3.43262 47.6123q-1.96191 -3.82812 -3.67773 -6.93848q-1.7168 -3.11035 -3.67871 -6.93848q-1.4707 -2.39258 -2.94238 -5.02441
t-2.45215 -5.02441q-1.4707 -2.87109 -2.69727 -5.74219q-1.22559 -2.87109 -2.69727 -5.74219q-0.490234 -0.478516 -0.490234 -0.957031t-0.490234 -0.957031q-1.47168 -3.82812 -4.41406 -7.17773t-5.88477 -5.74219q-7.35645 -7.17773 -17.165 -11.4844
q-2.94238 -1.43555 -6.62012 -2.63184q-3.67871 -1.19629 -7.11133 -0.239258q-2.45215 0.957031 -2.69727 2.87109t0.735352 4.30664q0 0.957031 0.981445 1.91406q0.490234 2.39258 1.22559 4.30664t1.7168 3.82812q0.980469 1.91406 1.71582 3.58887
q0.736328 1.6748 1.7168 3.58887q1.47168 3.34961 3.1875 6.45996q1.7168 3.11035 3.67871 6.93848q3.92285 6.69922 7.35547 13.3984q3.43359 6.69922 7.35645 13.3984q7.84668 13.877 14.4678 27.7539q6.62012 13.877 10.5439 29.1895q1.96191 4.78516 5.88477 8.61328
q0.980469 1.43555 2.45215 2.63184t2.45215 2.15332q3.92285 3.82812 8.33691 6.69922t9.80859 5.26367q2.94238 1.43555 6.62012 2.87109q3.67871 1.43555 7.11133 0.478516q3.43262 -0.478516 3.43262 -4.30664q3.92383 -15.3125 6.37598 -30.8643t3.92285 -30.8643
q3.92383 -39.2383 3.43359 -78.7158q-0.491211 -39.4775 -1.96191 -79.1943q-0.980469 -19.6191 -1.7168 -38.999q-0.735352 -19.3799 -1.71582 -39.4775q-0.981445 -18.1836 -0.981445 -36.6064t0.490234 -36.6064q0 -3.34961 -2.20605 -6.45996
q-2.20703 -3.11035 -4.65918 -5.50293q-1.96191 -1.91406 -2.45215 -2.87109q13.2412 -4.78516 26.4824 -5.26367q9.31836 -0.478516 18.1455 1.43555q1.4707 0 3.43262 0.957031q1.47168 0 2.45215 0.957031q2.94238 0.957031 3.92383 1.43555
q0.980469 0.478516 1.96094 1.43555zM518 751q3 -8 -1 -13q-2 -5 -5 -10q-5 -10 -10 -19.5t-10 -18.5q-8 -15 -20.5 -27t-27.5 -20q-8 -11 -15 -22t-15 -22q-45 -68 -84 -138q-16 -29 -31 -58.5t-29 -59.5q-36 -76 -67.5 -153.5t-61.5 -155.5q-3 -8 -9 -15t-12 -12
q-15 -15 -35 -24q-6 -3 -13.5 -5.5t-14.5 -0.5q-5 2 -5.5 6t1.5 9q11 32 22.5 62.5t23.5 62.5q33 81 69.5 159.5t78.5 155.5q42 75 89 146t104 135q11 13 25.5 23.5t30.5 15.5q5 2 11.5 3t10.5 -4zM621.94 -7.19629q-0.473633 0 -0.947266 -0.422852h0.473633z
M653.212 7.18555q2.84375 -0.84668 3.08008 -2.75q0.237305 -1.90332 -0.710938 -4.01758q-1.89453 -3.38379 -4.50098 -6.13379q-2.60547 -2.74902 -5.92285 -5.28711q-2.36914 -2.11426 -4.97461 -4.22949q-2.60645 -2.11523 -5.44922 -4.22949
q-0.473633 -0.422852 -0.947266 -0.634766t-0.948242 -0.634766q-0.473633 0 -0.947266 -0.422852l-0.473633 -0.422852l-8.5293 -5.0752q-16.583 -9.72852 -35.2988 -13.959q-18.7158 -4.22949 -38.6162 -4.22949q-17.5312 0 -34.8252 2.11523
q-17.2939 2.11426 -34.3516 5.49902q-6.63379 1.26855 -12.5566 2.74902t-12.082 4.01855q-13.7402 5.49805 -24.165 11.8428q-6.63281 3.38379 -13.5029 7.40234q-6.87109 4.01758 -13.5039 7.8252q-8.05469 -8.45996 -17.5312 -15.6504
q-9.00293 -7.19043 -18.7158 -13.1123t-20.6113 -10.1514q-5.21191 -2.11523 -10.4238 -3.38379t-10.8975 -2.11523q-4.26465 -0.845703 -8.29199 -0.633789q-4.02734 0.210938 -7.81836 0.633789q-14.2139 1.26953 -25.1113 8.03711q-9.00293 5.0752 -13.7412 13.958
t-4.26465 18.6104q0 13.5352 8.05566 25.5898q8.05469 12.0557 18.9521 20.9375q9.00293 7.19043 19.4268 13.1123t21.7949 9.30566q15.1621 4.65234 30.3242 2.96094q12.3193 -2.11523 24.165 -7.19043q11.8457 -5.07617 22.7432 -10.998v0.422852
q5.21191 10.998 9.00293 22.2061q3.79004 11.209 7.10645 22.6299q7.10742 27.0703 9.9502 55.4092q2.36914 21.5713 1.89551 43.1436q-0.473633 21.5713 -7.10742 42.2969q-4.73828 13.5352 -13.0293 25.8018q-8.29199 12.2656 -22.0332 20.7256
q-5.68555 2.96094 -12.5557 5.0752q-6.87012 2.11523 -13.5039 2.96094q-2.36914 0 -4.97461 -0.210938q-2.60645 -0.211914 -5.44922 -0.634766l-4.26465 -1.26855q-0.947266 0 -1.4209 -0.422852h-0.474609l-2.84277 -1.26953q-0.947266 -0.845703 -1.6582 -1.05762
q-0.710938 -0.210938 -1.6582 -1.05664q-0.947266 0 -1.89551 -0.84668q-1.4209 -1.26855 -2.36914 -1.69141l-4.26367 -3.80664q-0.948242 -0.845703 -1.89551 -1.69238q-0.947266 -0.845703 -1.89551 -1.69141q-2.36914 -2.11523 -4.02734 -3.80664
q-1.6582 -1.69238 -4.02734 -3.80762q-0.947266 -0.845703 -1.42188 -1.69141q-0.473633 -0.845703 -1.4209 -1.69141q-1.89551 -1.69238 -2.84277 -3.38477q-7.58105 -8.88184 -12.793 -16.918q-1.89551 -4.65332 -4.26465 -8.88281t-4.73828 -8.45996
q-2.36914 -3.80664 -4.26465 -7.40137q-1.89453 -3.5957 -2.84277 -7.40234q-0.473633 -0.845703 -0.473633 -2.11523q2.36914 0.84668 4.97559 1.05762q2.60547 0.211914 4.02734 -1.90332q1.89453 -2.11523 0.473633 -4.65234q-1.42188 -2.53809 -2.36914 -3.80664
q-5.68555 -7.19141 -13.2666 -11.8438q-3.79102 -2.53809 -7.81836 -4.65234q-4.02734 -2.11523 -8.76562 -3.38379q-3.79004 -1.26953 -10.1865 -2.11523t-8.76562 2.96094q-0.948242 0.845703 -1.42188 3.38379q0 0.422852 -0.237305 0.634766
q-0.236328 0.210938 -0.236328 0.633789q0 2.11523 0.473633 3.5957t0.947266 3.17188q2.36914 6.34473 4.73828 10.5752q2.84277 5.9209 6.16016 11.4199q3.31641 5.49805 5.68555 11.4199q0.947266 2.11523 2.60645 4.44141q1.6582 2.32617 3.0791 4.44141
q0.948242 1.69141 1.89551 2.96094q0.947266 1.26855 1.89551 2.53711q2.36914 3.38477 4.73828 6.34473l4.73828 5.92188q14.2139 16.4961 31.0342 31.2998q16.8203 14.8047 37.1943 24.5332q10.4248 5.0752 21.085 9.09375q10.6611 4.01758 22.5068 4.86426
q13.7402 0.422852 27.0068 -3.80664q19.9004 -7.19043 33.168 -22.418q6.63281 -8.03613 11.1338 -17.1309q4.50195 -9.09375 7.34473 -18.8223q3.31641 -10.1514 4.73828 -20.5137q1.4209 -10.3633 2.36914 -21.3604q0.947266 -22.418 -1.6582 -44.4121
q-2.60645 -21.9951 -7.81836 -43.9893q-4.26465 -19.8799 -11.3721 -39.7598q-2.36914 -7.61328 -5.68555 -15.2266q-2.36914 -4.65332 -4.97461 -9.30566q-2.60645 -4.65234 -5.44922 -9.30566l-12.793 -19.0342q8.52832 -5.0752 17.0576 -10.3623
q8.52832 -5.28711 17.0576 -9.94043q5.21191 -2.95996 10.8975 -5.9209t11.3711 -5.07617q5.21191 -2.11426 10.8984 -3.80664q5.68555 -1.69141 11.3711 -2.96094q15.1621 -3.38379 29.8506 -5.49805q14.6885 -2.11523 29.8506 -2.96094q18.9521 -0.84668 36.957 2.53809
q2.36914 0.422852 4.02734 0.845703q1.65918 0.422852 3.55371 0.845703q1.89551 0.845703 3.31738 1.26855h0.473633l0.473633 0.422852h0.473633v0.423828h0.473633h0.474609q0 0.422852 0.473633 0.422852q0 0.422852 0.473633 0.422852
q-0.473633 -0.422852 -0.947266 -0.422852q6.63281 5.9209 17.0566 10.1514q2.36914 1.26855 5.92285 2.53711q3.55371 1.26953 6.87012 0.423828zM311.117 31.2949q-2.36914 -0.845703 -1.6582 -0.634766q0.710938 0.211914 1.6582 0.634766zM384.559 7.18555
l0.473633 0.845703q-2.36914 0.845703 -4.26367 2.11523q-1.89551 1.26855 -4.26465 2.53711q-6.63379 3.80664 -13.7402 7.40234q-7.10742 3.5957 -14.6885 6.55566q-6.16016 2.11523 -12.3193 4.01855q-6.16016 1.90332 -12.793 2.32617q-4.73828 0 -7.10742 -0.422852
h-0.473633q-0.948242 -2.11426 -1.6582 -3.80664q-0.710938 -1.69238 -1.65918 -3.80664q-1.89453 -8.03613 0.474609 -17.7646q4.73828 -11.4209 15.1621 -17.7656q5.21191 -2.53711 10.8975 -3.80664q5.68555 -1.26855 11.3711 -2.11426q2.36914 0 4.26465 0.210938
q1.89551 0.211914 4.26465 0.634766q0.947266 0.422852 1.4209 0.422852q0.474609 0 1.42188 0.422852h0.473633q0.473633 0.422852 0.948242 0.422852q0.473633 0.422852 0.947266 0.422852l1.4209 1.26953q0.474609 0.422852 0.710938 0.422852
q0.237305 0 0.710938 0.422852l3.79004 3.38379q3.79102 3.38379 7.58203 8.03613q0.947266 0.422852 1.89453 2.11523q2.36914 2.11523 4.73828 5.49902zM620.993 -7.61914q-1.42188 -0.845703 0.473633 0q0 0.422852 0.473633 0.422852v0.422852v-0.422852
q0 0.422852 0.473633 0.422852q-1.89453 -0.845703 -2.36914 -0.845703q0 -0.845703 0.948242 0zM621.94 -6.77344l-0.947266 -0.845703h-0.473633l0.473633 0.422852q0.473633 0 0.947266 0.422852zM623.362 -6.34961l1.4209 1.26855l-0.947266 -0.845703h-0.473633
l0.947266 0.422852q0.473633 0.422852 0.710938 0.422852q0.236328 0 0.710938 0.422852q-0.948242 -0.422852 -1.18457 -0.845703q-0.237305 -0.422852 -1.18457 -0.845703zM622.414 -6.77344q-0.473633 0 -0.947266 -0.422852q0.947266 0.84668 1.89551 1.26953
q-0.474609 -0.422852 -0.948242 -0.422852v-0.423828z" />
    <glyph glyph-name="threequarters" unicode="&#xbe;" horiz-adv-x="672" 
d="M304.564 547.893q9.47363 -22.4971 5.59863 -46.0166q-3.01465 -18.4062 -10.335 -34.001q-7.32031 -15.5938 -17.2236 -30.4219q-15.0713 -22.4961 -37.4629 -37.3242q-18.085 -12.2705 -37.6777 -20.707t-40.2617 -14.0605t-41.1221 -8.94727
q-20.4541 -3.32422 -41.123 -1.79004q-6.88965 1.02246 -13.7793 2.30078t-12.918 5.36914q-3.01367 2.04492 -5.59766 4.08984t-4.73633 5.11328q-1.72266 3.06738 -2.58398 5.1123q-0.430664 1.02344 -0.645508 2.55664q-0.21582 1.53418 -0.646484 2.55664
q-0.430664 1.53418 -0.430664 3.06738v-0.510742q-0.861328 4.60156 0 9.20312t1.72266 8.69141q1.72266 6.13574 4.09082 11.5049q2.36816 5.36816 5.38281 10.4814q2.15234 4.08984 5.38184 7.9248t6.6748 6.90234q3.44434 3.06738 7.32031 5.62402
q3.875 2.55664 7.75098 4.09082q2.15234 1.02246 4.95215 1.5332q2.79883 0.511719 4.52051 -2.04492q1.72266 -2.55664 0.21582 -5.62402t-2.36816 -5.11328q-0.430664 -0.510742 -0.430664 -0.766602t-0.430664 -0.766602q-0.861328 -2.55664 -1.9375 -5.625
q-1.07715 -3.06738 -1.93848 -5.62402q-0.430664 -2.55664 -0.430664 -4.3457v-4.3457q0.430664 -1.02246 0.430664 -1.53418t0.430664 -1.02246q0.861328 -4.09082 3.01465 -6.64648q2.15332 -2.55664 4.73633 -5.11328q6.45898 -4.09082 14.21 -5.87988t15.0713 -2.30078
q16.3633 -1.02246 32.5107 1.53418q16.1475 2.55566 32.0801 6.64648q6.45898 2.04492 12.7021 3.83496q6.24414 1.78906 12.2725 4.3457l12.918 4.60156q3.01465 2.04492 6.02832 2.55664q0.861328 1.02246 2.15332 1.02246q3.44434 2.04492 6.88965 3.83496
q3.44434 1.78906 6.88965 3.83398q0.861328 1.02344 1.72266 1.02344l0.861328 1.02246l0.429688 0.510742q1.72266 2.04492 3.44531 5.11328q0.861328 1.02246 0.861328 1.5332q0.861328 1.02344 1.07617 1.53418q0.21582 0.511719 1.07617 1.53418
q1.72266 2.55664 3.01465 5.62402t3.01465 5.62402q2.15234 5.11328 3.875 9.9707t2.58398 10.4814q3.44434 16.3613 -0.430664 32.2109q-3.44531 14.3164 -12.0576 25.5645q-8.61133 11.249 -19.377 19.4297q-16.3623 11.7598 -34.6631 17.6396t-36.8164 6.90234
q-1.72266 0 -2.15332 0.510742q-8.6123 -3.5791 -17.6543 -6.39062q-9.04297 -2.8125 -17.6553 -4.85742q-7.75098 -2.04492 -15.9326 -3.06738q-8.18066 -1.02344 -15.9316 1.02246q-2.58398 1.02246 -2.79883 3.5791q-0.21582 2.55566 0.645508 4.60156
q1.72266 5.1123 5.16699 9.20312q4.30664 5.62402 9.25781 10.4814q4.95215 4.85742 10.9805 7.9248q16.3633 8.18066 33.3721 12.5264q17.0088 4.34668 35.0938 3.83496h2.15332q0.861328 1.02246 2.15332 1.27832t2.15332 0.766602q1.29102 1.02246 2.79883 1.27832
q1.50684 0.255859 2.79883 1.27832l2.58301 1.53418q5.59863 2.55664 10.7656 5.36816q5.16699 2.8125 9.90332 5.87988q0.430664 0.511719 0.861328 0.511719q0.861328 1.02246 2.15332 1.78906t2.58301 1.79004q0.861328 1.02246 2.15332 1.78906t2.58398 1.79004
q0.430664 0 0.430664 0.254883q0 0.255859 0.430664 0.255859q3.44434 3.06836 4.73633 4.09082l0.861328 1.02246q0.861328 0.510742 1.07617 1.02246q0.21582 0.510742 0.646484 1.02246l0.860352 1.02246l1.29199 1.53418q0.430664 1.02246 0.861328 1.78906
q0.430664 0.767578 0.861328 1.79004q1.72266 4.08984 2.15332 6.64648q1.29199 6.13574 0 12.7822q-1.72266 5.62402 -4.95215 10.2256t-7.53516 8.18066q-7.32031 5.11328 -15.502 7.1582t-16.7939 2.55664q-14.6406 1.02246 -29.0654 -1.02246t-28.6348 -6.13574
q-12.4883 -3.06738 -24.9756 -7.66895q-2.58301 -2.0459 -6.02832 -3.06836q-3.44434 -1.5332 -6.88965 -3.06738q-3.44434 -1.53418 -6.88965 -3.06738q-2.15332 -1.53418 -4.73633 -2.0459q-0.430664 0 -0.646484 -0.254883q-0.214844 -0.255859 -0.645508 -0.255859
q-0.430664 -0.511719 -0.861328 -0.511719t-0.861328 -0.510742l-0.861328 -0.511719q-0.430664 -0.510742 -0.645508 -0.510742q-0.21582 0 -0.645508 -0.511719q-2.15332 -1.02246 -4.7373 -2.04492q-2.58301 -1.02246 -4.73633 -1.02246
q-0.861328 0.510742 -2.15332 0.510742q-2.15234 0 -4.09082 0.511719q-1.9375 0.510742 -1.9375 3.5791q0 4.08984 1.9375 7.1582q1.93848 3.06738 4.09082 5.62402q6.02832 8.69141 14.21 14.3154q2.58398 2.0459 4.95215 3.32422t4.95215 2.30078
q1.29199 0.510742 2.79883 1.02246q1.50684 0.510742 2.79883 1.02246q1.29199 1.02246 2.58398 1.27832q1.29102 0.255859 2.58301 1.27832q5.16699 2.55664 10.1191 4.85742t10.1191 4.3457q21.9609 8.18066 43.9219 13.8047q12.4873 3.06738 24.7598 4.85742
q12.2715 1.78906 24.7598 1.78906q10.7646 -0.510742 21.9609 -2.04492q11.1953 -1.53418 21.0986 -8.18066q4.30664 -3.06738 7.9668 -6.39062q3.66016 -3.32422 6.24316 -8.43652q4.7373 -8.69238 4.7373 -19.9404q0 -12.7822 -5.81348 -24.542t-13.1338 -20.4521
q-9.47266 -11.7598 -20.2383 -21.7295q-10.7646 -9.9707 -22.8213 -18.6621q28.4199 -7.1582 51.6719 -25.0537q7.75098 -6.64648 14.4258 -14.8271q6.67383 -8.18066 11.4102 -18.4062zM251.601 429.784l-0.430664 -0.511719q2.15332 2.55664 1.72266 2.0459
q-0.430664 -0.511719 -1.29199 -1.53418zM605 737q3 -8 -1 -13q-2 -5 -5 -10q-5 -10 -10 -19.5t-10 -18.5q-8 -15 -20.5 -27t-27.5 -20q-8 -11 -15 -22t-15 -22q-45 -68 -84 -138q-16 -29 -31 -58.5t-29 -59.5q-36 -76 -67.5 -153.5t-61.5 -155.5q-3 -8 -9 -15t-12 -12
q-15 -15 -35 -24q-6 -3 -13.5 -5.5t-14.5 -0.5q-5 2 -5.5 6t1.5 9q11 32 22.5 62.5t23.5 62.5q33 81 69.5 159.5t78.5 155.5q42 75 89 146t104 135q11 13 25.5 23.5t30.5 15.5q5 2 11.5 3t10.5 -4zM581.61 162.372q-3.16992 -32.9883 -4.75488 -65.9766
q-2.11426 -37.9365 -1.05762 -75.3232q1.05762 -37.3867 4.75586 -75.3232h2.6416q2.64258 0.549805 5.01953 -0.274414q2.37793 -0.825195 2.37793 -4.12402q0 -2.74902 -1.32129 -5.22363q-1.32031 -2.47363 -2.90527 -4.67285q-1.05762 -2.19922 -1.05762 -3.29883
q0 1.09961 0.529297 2.19922q-1.58594 -6.04785 -5.54883 -11.2705q-3.96289 -5.22363 -8.18945 -9.62207q-4.22754 -4.39844 -9.24707 -7.97168q-5.01953 -3.57422 -10.8311 -6.32324q-3.1709 -1.09961 -6.07715 -2.19922q-2.90527 -1.09961 -6.60449 -1.64941
q-6.34082 -1.09961 -6.86914 4.94824q-0.52832 1.09961 -0.52832 3.29883q-1.05664 4.39844 -1.58496 8.52246q-0.52832 4.12305 -1.05664 8.52148l-1.58496 18.1436q-1.05664 9.34668 -1.32129 18.9678q-0.263672 9.62207 -0.792969 18.9688
q-3.16992 75.873 4.75586 150.097l-3.16992 -1.64941q-31.1748 -16.4941 -65.7842 -20.8926q-34.6084 -4.39844 -69.4814 -1.64941q-3.1709 0 -3.1709 3.29883t0.52832 4.94824q1.05664 2.74902 2.11426 5.22266q1.05664 2.47461 2.11328 5.22363
q13.7373 37.9365 28.5322 75.0479q14.7949 37.1123 23.7773 76.6982q4.22656 18.6934 6.07617 38.2119q1.84961 19.5176 -2.90625 38.2109q0 4.39844 3.1709 8.79688q2.11328 3.29883 3.69824 4.94824q3.69922 4.39844 8.19043 7.97168q4.49121 3.57422 9.24609 6.87305
q7.92578 5.49805 16.3799 7.14746q3.69922 0.549805 6.34082 -2.19922q1.05664 -2.74902 1.58496 -4.94824t1.05664 -4.94824q1.05664 -4.39844 1.32129 -9.62207q0.263672 -5.22266 0.791992 -9.62109q0 -5.49805 -0.263672 -10.4463
q-0.264648 -4.94824 -0.792969 -10.4463q-3.16992 -24.1914 -9.51074 -47.833q-9.51074 -36.2871 -22.9844 -71.2002q-13.4736 -34.9121 -26.6836 -70.6494q17.9658 -0.549805 35.4023 0.549805t34.3447 4.94824q3.16992 1.09961 5.2832 1.09961
q3.1709 1.09961 6.60547 2.19922q3.43359 1.09961 6.60449 2.19922q2.11328 1.09961 3.16992 1.09961q0.52832 0.549805 0.792969 0.549805q0.263672 0 0.791992 0.549805q5.8125 42.335 14.5312 83.8447q8.71777 41.5107 22.9844 81.6465q1.58496 4.39844 5.01953 8.52148
q3.43457 4.12402 6.60449 6.87305q9.51074 9.34668 19.5498 14.2949q3.1709 1.09961 7.13379 2.74902t7.66113 0.549805q3.69922 -0.549805 3.69922 -4.94824q5.2832 -30.2393 5.54785 -61.3037q0.263672 -31.0635 -8.71875 -60.7529q-5.2832 -17.5938 -14.5303 -32.9883
q-9.24609 -15.3945 -21.3994 -28.5898z" />
    <glyph glyph-name="questiondown" unicode="&#xbf;" horiz-adv-x="458" 
d="M-38.916 -119.876q-3.99902 25.9951 2.5 51.9902q6.49805 25.9951 20.4961 48.9912q18.9961 31.9941 46.9912 56.9893q27.9951 24.9961 58.9893 44.9922q26.9951 17.9971 56.4893 31.9941q29.4951 13.9971 60.4893 24.9951q7.99805 2 16.9971 4.99902
q8.99805 3 16.9971 4.99902q-5.99902 4.99902 -11.498 10.998t-10.498 11.998q-22.9961 27.9951 -40.9932 59.9893q-17.9961 31.9941 -25.9951 66.9873q2 8.99805 6.99902 15.9971q2 2 3.49902 4.49902q1.5 2.5 3.5 5.49902q7.99805 7.99902 15.9971 14.9971
q7.99805 6.99902 17.9961 11.998q6.99902 4.99902 15.4971 8.49902q8.49902 3.49902 16.4971 4.49902q7.99902 1.99902 11.998 -3q19.9961 -58.9893 57.9893 -107.979q37.9932 -48.9912 89.9834 -82.9854q5.99902 -2.99902 11.998 -6.49902
q5.99902 -3.49902 11.998 -6.49805q6.99805 -1 6.99805 -8.99902l-1.99902 -6.99805q-3 -7.99902 -8.99805 -14.998q-5.99902 -6.99805 -12.998 -12.9971q-17.9971 -16.9971 -36.9932 -25.9951q-5.99902 -2 -13.498 -4.99902q-7.49805 -3 -14.4971 -1
q-9.99805 1.99902 -18.9961 2.99902q-8.99902 1 -18.9971 2q-47.9912 2 -94.9824 -8.99805q-8.99805 -2 -17.4971 -4.5q-8.49805 -2.49902 -17.4961 -4.49902q-5.99902 -1.99902 -12.498 -4.49902q-6.49902 -2.49902 -12.498 -4.49902q-1 0 -1 -1h-1.99902l-11.998 -5.99902
q-7.99805 -3.99902 -12.9971 -5.99902l-4 -1.99902l-14.9971 -8.99805l-1 -1q-5.99902 -4 -6.99805 -4.99902l-2 -2l-2.99902 -2.99902q-2 -1 -2.5 -2t-1.5 -2t-1 -1.49902q0 -0.5 -0.999023 -1.5q-5.99902 -7.99902 -7.99902 -11.998q-2.99902 -5.99902 -5.49902 -11.998
q-2.49902 -5.99902 -4.49902 -11.9971q-2.99902 -14.998 -2 -29.9951q1 -14.9971 5 -29.9941q5.99805 -22.9961 18.9961 -37.9932q4.99902 -6.99902 11.498 -12.498t13.4971 -10.498q29.9951 -17.9961 65.4883 -24.9951t70.4873 -8.99805q63.9883 -3 130.976 10.998
q8.99902 1.99902 17.4971 4.49902q8.49805 2.49902 17.4971 5.49902q1.99902 1 3.99902 1.49902q2 0.5 3.99902 1.5q2 1 3.49902 1q1.5 0 3.5 1v1q1 4.99902 0.5 9.49805t-1.5 9.49805q-1 2 -1 2.5t-1 2.49902q-3.99902 9.99805 4.99902 20.9961
q4.99902 7.99902 12.498 15.4971q7.49902 7.49902 15.4971 13.498q7.99902 5.99902 16.9971 10.998t18.9961 7.99805q2 1 10.498 2.5q8.49902 1.49902 10.499 -3.5q1.99902 -4.99902 3.99902 -10.998q1.99902 -5.99805 1.99902 -11.9971q2 -23.9961 -11.9971 -44.4922
q-13.998 -20.4961 -29.9951 -36.4932q-22.9951 -20.9961 -49.9902 -36.4932t-55.9902 -26.4951q-22.9961 -7.99902 -47.4912 -13.498t-49.4912 -9.49805q-23.9951 -2.99902 -48.4912 -4.49902q-24.4951 -1.5 -49.4902 -0.5q-24.9961 2 -49.4912 4.49902
q-24.4951 2.5 -48.4912 9.49805q-19.9961 5.99902 -38.4932 14.498q-18.4961 8.49805 -34.4932 22.4951q-16.9971 13.998 -25.9951 34.4941q-8.99902 20.4961 -12.998 42.4922zM430.998 -140.872q2 1.99902 3.49902 2.99902q1.5 1 -5.49902 -2.99902v-1q0 1 2 1z
M142.051 411.026q-3.99902 0 -9.99805 1.5t-3.99902 7.49902q2.99902 15.9971 4.49902 30.9941t2.49902 30.9941q0 7.99902 0.5 15.4971q0.5 7.49902 0.5 15.4971v17.4971t3 17.4971q1.99902 7.99805 8.49805 14.9971t12.498 11.998q10.998 10.998 23.9951 17.9961
q6.99902 4.99902 14.9971 8.49902q7.99902 3.49902 16.9971 4.49902q5.99902 1.99902 11.998 -3q2 -4.99902 2 -9.49805v-9.49805v-14.9971v-15.4971q0 -7.49902 -1 -15.4971q-1 -14.998 -2.5 -29.9951q-1.49902 -14.9971 -4.49902 -29.9941
q-2.99902 -13.998 -13.9971 -24.9951q-13.998 -16.9971 -32.9941 -27.9951q-7.99902 -4.99902 -16.4971 -8.49902q-8.49805 -3.49902 -16.4971 -5.49902z" />
    <glyph glyph-name="Agrave" unicode="&#xc0;" horiz-adv-x="598" 
d="M508 223q7 -35 11.5 -70t7.5 -70q3 -33 5 -66.5t0 -65.5q-1 -8 -5 -14.5t-9 -11.5q-8 -8 -16 -15t-18 -12q-3 -2 -10 -6t-15 -6.5t-14 -1.5t-7 9q-2 33 -3 65.5t-4 65.5q-6 69 -17.5 136.5t-30.5 133.5q-1 1 -3 1q-20 4 -41 7.5t-41 5.5q-33 5 -66.5 8t-67.5 5
q-11 -39 -21 -78.5t-21 -79.5q-5 -17 -9 -33.5t-9 -33.5q-2 -6 -3 -12.5t-3 -12.5q-1 -2 -1.5 -5t-1.5 -5q0 -2 -0.5 -2.5t-0.5 -2.5q-1 -1 -1 -2t-1 -2q0 -2 -1 -3q1 -5 -2 -10.5t-7 -11t-8.5 -10l-5.5 -5.5q-20 -20 -46 -29q-5 -2 -11 -2.5t-11 3.5q-1 1 -1 4q-1 1 -1 2
q0 3 1 6t1 6q0 2 0.5 2.5t0.5 2.5q0 -1 -0.5 -2t-0.5 -2q3 13 6 25t7 25l20 76l20 76q8 28 15.5 56t15.5 57l-10 4t-10 6q-4 4 -0.5 11.5t5.5 9.5q8 11 17 19q3 3 6.5 6t7.5 6q1 4 2 7.5t2 8.5q11 43 22 85.5t21 85.5q4 15 7 29.5t6 29.5q2 5 2.5 11t2.5 12q0 2 0.5 4.5
t0.5 4.5q0 3 1 4q0 2 0.5 3.5t0.5 3.5t0.5 2.5t-0.5 2.5q-1 4 0 8q0 2 -1 3v1q0 4 2 8t4 7q12 17 28 28q8 6 16.5 11t18.5 8q9 3 16 2q5 -1 8.5 -4t6.5 -6l9 -9q50 -47 86.5 -105t63.5 -121q14 -33 26 -67.5t23 -69.5q17 -3 33.5 -7t32.5 -10q7 -3 6.5 -9.5t-5 -13
t-10 -12.5t-8.5 -8q-11 -11 -29 -21q4 -16 7 -32zM214 398q35 -2 69.5 -4t69.5 -7q-7 19 -15 37.5t-16 37.5q-14 31 -31 61t-37 59q-5 6 -8.5 11.5t-8.5 11.5q0 -2 -1 -3l1 3q-5 -19 -9 -37t-9 -37q-8 -33 -17 -66t-17 -66q7 0 14 -0.5t15 -0.5zM442 830q9 -5 4 -15
q-3 -8 -8.5 -15t-11.5 -12q-16 -14 -35 -24q-5 -2 -13.5 -5t-13.5 -1q-9 3 -17 6.5t-16 7.5q-26 13 -51.5 26t-51.5 26q-11 6 -22 11.5t-22 10.5q-4 2 -8.5 4t-9.5 4q-7 -2 -12 -1t-5 9t4.5 14t9.5 11q8 11 20 20t25 14q17 8 31 7q10 -2 19 -6q24 -10 47.5 -22t46.5 -24
q23 -11 45 -23t45 -23z" />
    <glyph glyph-name="Aacute" unicode="&#xc1;" horiz-adv-x="598" 
d="M508 223q7 -35 11.5 -70t7.5 -70q3 -33 5 -66.5t0 -65.5q-1 -8 -5 -14.5t-9 -11.5q-8 -8 -16 -15t-18 -12q-3 -2 -10 -6t-15 -6.5t-14 -1.5t-7 9q-2 33 -3 65.5t-4 65.5q-6 69 -17.5 136.5t-30.5 133.5q-1 1 -3 1q-20 4 -41 7.5t-41 5.5q-33 5 -66.5 8t-67.5 5
q-11 -39 -21 -78.5t-21 -79.5q-5 -17 -9 -33.5t-9 -33.5q-2 -6 -3 -12.5t-3 -12.5q-1 -2 -1.5 -5t-1.5 -5q0 -2 -0.5 -2.5t-0.5 -2.5q-1 -1 -1 -2t-1 -2q0 -2 -1 -3q1 -5 -2 -10.5t-7 -11t-8.5 -10l-5.5 -5.5q-20 -20 -46 -29q-5 -2 -11 -2.5t-11 3.5q-1 1 -1 4q-1 1 -1 2
q0 3 1 6t1 6q0 2 0.5 2.5t0.5 2.5q0 -1 -0.5 -2t-0.5 -2q3 13 6 25t7 25l20 76l20 76q8 28 15.5 56t15.5 57l-10 4t-10 6q-4 4 -0.5 11.5t5.5 9.5q8 11 17 19q3 3 6.5 6t7.5 6q1 4 2 7.5t2 8.5q11 43 22 85.5t21 85.5q4 15 7 29.5t6 29.5q2 5 2.5 11t2.5 12q0 2 0.5 4.5
t0.5 4.5q0 3 1 4q0 2 0.5 3.5t0.5 3.5t0.5 2.5t-0.5 2.5q-1 4 0 8q0 2 -1 3v1q0 4 2 8t4 7q12 17 28 28q8 6 16.5 11t18.5 8q9 3 16 2q5 -1 8.5 -4t6.5 -6l9 -9q50 -47 86.5 -105t63.5 -121q14 -33 26 -67.5t23 -69.5q17 -3 33.5 -7t32.5 -10q7 -3 6.5 -9.5t-5 -13
t-10 -12.5t-8.5 -8q-11 -11 -29 -21q4 -16 7 -32zM214 398q35 -2 69.5 -4t69.5 -7q-7 19 -15 37.5t-16 37.5q-14 31 -31 61t-37 59q-5 6 -8.5 11.5t-8.5 11.5q0 -2 -1 -3l1 3q-5 -19 -9 -37t-9 -37q-8 -33 -17 -66t-17 -66q7 0 14 -0.5t15 -0.5zM367 977q2 1 9.5 5t15.5 6.5
t14 1.5t6 -8t-4.5 -13.5t-8.5 -11.5q-9 -11 -21 -18q-7 -5 -13.5 -9.5t-13.5 -9.5l-1 -1q-2 -2 -5 -3.5t-5 -3.5q-10 -7 -19.5 -13.5t-19.5 -14.5q-2 -2 -4.5 -3.5t-4.5 -3.5q-2 -1 -4 -3t-5 -4.5t-5 -4.5l-3 -3l-1 -1q-1 -2 -1.5 -2.5t-1.5 -2.5q0 1 0.5 1.5t0.5 1.5
q-9 -16 -23 -27.5t-30 -19.5q-6 -3 -13.5 -5.5t-13.5 -0.5q-5 2 -6 6.5t1 8.5q6 12 14.5 23t17.5 21q13 13 27 25t28 23q23 17 46.5 33t46.5 31z" />
    <glyph glyph-name="Acircumflex" unicode="&#xc2;" horiz-adv-x="598" 
d="M508 223q7 -35 11.5 -70t7.5 -70q3 -33 5 -66.5t0 -65.5q-1 -8 -5 -14.5t-9 -11.5q-8 -8 -16 -15t-18 -12q-3 -2 -10 -6t-15 -6.5t-14 -1.5t-7 9q-2 33 -3 65.5t-4 65.5q-6 69 -17.5 136.5t-30.5 133.5q-1 1 -3 1q-20 4 -41 7.5t-41 5.5q-33 5 -66.5 8t-67.5 5
q-11 -39 -21 -78.5t-21 -79.5q-5 -17 -9 -33.5t-9 -33.5q-2 -6 -3 -12.5t-3 -12.5q-1 -2 -1.5 -5t-1.5 -5q0 -2 -0.5 -2.5t-0.5 -2.5q-1 -1 -1 -2t-1 -2q0 -2 -1 -3q1 -5 -2 -10.5t-7 -11t-8.5 -10l-5.5 -5.5q-20 -20 -46 -29q-5 -2 -11 -2.5t-11 3.5q-1 1 -1 4q-1 1 -1 2
q0 3 1 6t1 6q0 2 0.5 2.5t0.5 2.5q0 -1 -0.5 -2t-0.5 -2q3 13 6 25t7 25l20 76l20 76q8 28 15.5 56t15.5 57l-10 4t-10 6q-4 4 -0.5 11.5t5.5 9.5q8 11 17 19q3 3 6.5 6t7.5 6q1 4 2 7.5t2 8.5q11 43 22 85.5t21 85.5q4 15 7 29.5t6 29.5q2 5 2.5 11t2.5 12q0 2 0.5 4.5
t0.5 4.5q0 3 1 4q0 2 0.5 3.5t0.5 3.5t0.5 2.5t-0.5 2.5q-1 4 0 8q0 2 -1 3v1q0 4 2 8t4 7q12 17 28 28q8 6 16.5 11t18.5 8q9 3 16 2q5 -1 8.5 -4t6.5 -6l9 -9q50 -47 86.5 -105t63.5 -121q14 -33 26 -67.5t23 -69.5q17 -3 33.5 -7t32.5 -10q7 -3 6.5 -9.5t-5 -13
t-10 -12.5t-8.5 -8q-11 -11 -29 -21q4 -16 7 -32zM214 398q35 -2 69.5 -4t69.5 -7q-7 19 -15 37.5t-16 37.5q-14 31 -31 61t-37 59q-5 6 -8.5 11.5t-8.5 11.5q0 -2 -1 -3l1 3q-5 -19 -9 -37t-9 -37q-8 -33 -17 -66t-17 -66q7 0 14 -0.5t15 -0.5zM482 864q5 -4 1 -11.5
t-6 -9.5q-10 -16 -28 -29q-8 -6 -17 -11t-19 -8q-6 -4 -17 -2q-14 6 -26 15.5t-23 20.5q-10 10 -18.5 20.5t-16.5 22.5q-9 14 -17 29.5t-14 32.5q-25 -26 -50 -51.5t-51 -50.5q-16 -16 -36 -25l-12.5 -5t-14.5 -1q-6 2 -6.5 6.5t1.5 9.5q5 10 12 17q0 2 2 2v1q2 2 2.5 3
t2.5 3q4 6 8.5 12.5t9.5 11.5q8 8 15.5 14.5t16.5 11.5l2 2q1 1 2 1.5t2 1.5q5 5 10 10.5t10 10.5q20 20 39 41t37 42q8 9 16.5 16t17.5 13l12 6t12 5q7 3 17 1q6 -2 6 -8q2 -8 4 -13q14 -48 42 -88q16 -22 33 -38q10 -9 20 -16.5t19 -15.5z" />
    <glyph glyph-name="Atilde" unicode="&#xc3;" horiz-adv-x="598" 
d="M508 223q7 -35 11.5 -70t7.5 -70q3 -33 5 -66.5t0 -65.5q-1 -8 -5 -14.5t-9 -11.5q-8 -8 -16 -15t-18 -12q-3 -2 -10 -6t-15 -6.5t-14 -1.5t-7 9q-2 33 -3 65.5t-4 65.5q-6 69 -17.5 136.5t-30.5 133.5q-1 1 -3 1q-20 4 -41 7.5t-41 5.5q-33 5 -66.5 8t-67.5 5
q-11 -39 -21 -78.5t-21 -79.5q-5 -17 -9 -33.5t-9 -33.5q-2 -6 -3 -12.5t-3 -12.5q-1 -2 -1.5 -5t-1.5 -5q0 -2 -0.5 -2.5t-0.5 -2.5q-1 -1 -1 -2t-1 -2q0 -2 -1 -3q1 -5 -2 -10.5t-7 -11t-8.5 -10l-5.5 -5.5q-20 -20 -46 -29q-5 -2 -11 -2.5t-11 3.5q-1 1 -1 4q-1 1 -1 2
q0 3 1 6t1 6q0 2 0.5 2.5t0.5 2.5q0 -1 -0.5 -2t-0.5 -2q3 13 6 25t7 25l20 76l20 76q8 28 15.5 56t15.5 57l-10 4t-10 6q-4 4 -0.5 11.5t5.5 9.5q8 11 17 19q3 3 6.5 6t7.5 6q1 4 2 7.5t2 8.5q11 43 22 85.5t21 85.5q4 15 7 29.5t6 29.5q2 5 2.5 11t2.5 12q0 2 0.5 4.5
t0.5 4.5q0 3 1 4q0 2 0.5 3.5t0.5 3.5t0.5 2.5t-0.5 2.5q-1 4 0 8q0 2 -1 3v1q0 4 2 8t4 7q12 17 28 28q8 6 16.5 11t18.5 8q9 3 16 2q5 -1 8.5 -4t6.5 -6l9 -9q50 -47 86.5 -105t63.5 -121q14 -33 26 -67.5t23 -69.5q17 -3 33.5 -7t32.5 -10q7 -3 6.5 -9.5t-5 -13
t-10 -12.5t-8.5 -8q-11 -11 -29 -21q4 -16 7 -32zM214 398q35 -2 69.5 -4t69.5 -7q-7 19 -15 37.5t-16 37.5q-14 31 -31 61t-37 59q-5 6 -8.5 11.5t-8.5 11.5q0 -2 -1 -3l1 3q-5 -19 -9 -37t-9 -37q-8 -33 -17 -66t-17 -66q7 0 14 -0.5t15 -0.5zM495 967q5 0 9.5 -1.5
t4.5 -7.5q-1 -15 -4.5 -30t-11.5 -29q-10 -19 -22 -33l-13 -13t-14 -11q-8 -6 -15 -10t-15 -9q-37 -20 -77 -9q-16 5 -31 11.5t-30 14.5t-30.5 16.5t-31.5 16.5q-8 4 -16.5 7.5t-16.5 5.5q-2 -8 -5 -13.5t-8 -10.5q-14 -15 -33 -28q-17 -10 -32 -13q-4 0 -9.5 1.5t-4.5 7.5
q6 32 20 57q5 9 12 16.5t15 15.5q15 16 34 26q13 7 26.5 12.5t27.5 6.5q19 0 34 -4q16 -4 31 -10.5t29 -14.5q16 -8 31.5 -16t31.5 -16q8 -4 16.5 -7.5t17.5 -5.5q1 3 1 6t1 6q2 8 5.5 13.5t8.5 11.5q7 8 15 15t18 12q7 5 15 8.5t16 4.5z" />
    <glyph glyph-name="Adieresis" unicode="&#xc4;" horiz-adv-x="598" 
d="M508 223q7 -35 11.5 -70t7.5 -70q3 -33 5 -66.5t0 -65.5q-1 -8 -5 -14.5t-9 -11.5q-8 -8 -16 -15t-18 -12q-3 -2 -10 -6t-15 -6.5t-14 -1.5t-7 9q-2 33 -3 65.5t-4 65.5q-6 69 -17.5 136.5t-30.5 133.5q-1 1 -3 1q-20 4 -41 7.5t-41 5.5q-33 5 -66.5 8t-67.5 5
q-11 -39 -21 -78.5t-21 -79.5q-5 -17 -9 -33.5t-9 -33.5q-2 -6 -3 -12.5t-3 -12.5q-1 -2 -1.5 -5t-1.5 -5q0 -2 -0.5 -2.5t-0.5 -2.5q-1 -1 -1 -2t-1 -2q0 -2 -1 -3q1 -5 -2 -10.5t-7 -11t-8.5 -10l-5.5 -5.5q-20 -20 -46 -29q-5 -2 -11 -2.5t-11 3.5q-1 1 -1 4q-1 1 -1 2
q0 3 1 6t1 6q0 2 0.5 2.5t0.5 2.5q0 -1 -0.5 -2t-0.5 -2q3 13 6 25t7 25l20 76l20 76q8 28 15.5 56t15.5 57l-10 4t-10 6q-4 4 -0.5 11.5t5.5 9.5q8 11 17 19q3 3 6.5 6t7.5 6q1 4 2 7.5t2 8.5q11 43 22 85.5t21 85.5q4 15 7 29.5t6 29.5q2 5 2.5 11t2.5 12q0 2 0.5 4.5
t0.5 4.5q0 3 1 4q0 2 0.5 3.5t0.5 3.5t0.5 2.5t-0.5 2.5q-1 4 0 8q0 2 -1 3v1q0 4 2 8t4 7q12 17 28 28q8 6 16.5 11t18.5 8q9 3 16 2q5 -1 8.5 -4t6.5 -6l9 -9q50 -47 86.5 -105t63.5 -121q14 -33 26 -67.5t23 -69.5q17 -3 33.5 -7t32.5 -10q7 -3 6.5 -9.5t-5 -13
t-10 -12.5t-8.5 -8q-11 -11 -29 -21q4 -16 7 -32zM214 398q35 -2 69.5 -4t69.5 -7q-7 19 -15 37.5t-16 37.5q-14 31 -31 61t-37 59q-5 6 -8.5 11.5t-8.5 11.5q0 -2 -1 -3l1 3q-5 -19 -9 -37t-9 -37q-8 -33 -17 -66t-17 -66q7 0 14 -0.5t15 -0.5zM289 837q3 -5 1 -10.5
t-5 -10.5q-12 -17 -28 -27q-8 -6 -16 -11t-18 -8q-4 -2 -10.5 -3t-9.5 4q-14 20 -22.5 43t-13.5 47q-5 23 -8.5 45.5t-6.5 45.5q-1 6 4.5 13t9.5 12q13 14 32 27q3 1 10 5t14.5 6t13.5 1t7 -8l8 -52t11 -52q5 -17 12 -33.5t15 -33.5zM442 861q4 -5 0.5 -11t-5.5 -10
q-11 -16 -27 -27q-8 -6 -16.5 -11t-18.5 -8q-5 -2 -10.5 -2.5t-10.5 3.5q-17 14 -26.5 34t-14.5 41q-5 20 -7 40.5t-2 41.5q0 7 4.5 13t8.5 11q14 15 33 28q3 1 10.5 5t15.5 6.5t14 1.5t6 -9q0 -20 2 -40.5t7 -40.5q12 -37 37 -66z" />
    <glyph glyph-name="Aring" unicode="&#xc5;" horiz-adv-x="598" 
d="M508 223q7 -35 11.5 -70t7.5 -70q3 -33 5 -66.5t0 -65.5q-1 -8 -5 -14.5t-9 -11.5q-8 -8 -16 -15t-18 -12q-3 -2 -10 -6t-15 -6.5t-14 -1.5t-7 9q-2 33 -3 65.5t-4 65.5q-6 69 -17.5 136.5t-30.5 133.5q-1 1 -3 1q-20 4 -41 7.5t-41 5.5q-33 5 -66.5 8t-67.5 5
q-11 -39 -21 -78.5t-21 -79.5q-5 -17 -9 -33.5t-9 -33.5q-2 -6 -3 -12.5t-3 -12.5q-1 -2 -1.5 -5t-1.5 -5q0 -2 -0.5 -2.5t-0.5 -2.5q-1 -1 -1 -2t-1 -2q0 -2 -1 -3q1 -5 -2 -10.5t-7 -11t-8.5 -10l-5.5 -5.5q-20 -20 -46 -29q-5 -2 -11 -2.5t-11 3.5q-1 1 -1 4q-1 1 -1 2
q0 3 1 6t1 6q0 2 0.5 2.5t0.5 2.5q0 -1 -0.5 -2t-0.5 -2q3 13 6 25t7 25l20 76l20 76q8 28 15.5 56t15.5 57l-10 4t-10 6q-4 4 -0.5 11.5t5.5 9.5q8 11 17 19q3 3 6.5 6t7.5 6q1 4 2 7.5t2 8.5q11 43 22 85.5t21 85.5q4 15 7 29.5t6 29.5q2 5 2.5 11t2.5 12q0 2 0.5 4.5
t0.5 4.5q0 3 1 4q0 2 0.5 3.5t0.5 3.5t0.5 2.5t-0.5 2.5q-1 4 0 8q0 2 -1 3v1q0 4 2 8t4 7q12 17 28 28q8 6 16.5 11t18.5 8q9 3 16 2q5 -1 8.5 -4t6.5 -6l9 -9q50 -47 86.5 -105t63.5 -121q14 -33 26 -67.5t23 -69.5q17 -3 33.5 -7t32.5 -10q7 -3 6.5 -9.5t-5 -13
t-10 -12.5t-8.5 -8q-11 -11 -29 -21q4 -16 7 -32zM214 398q35 -2 69.5 -4t69.5 -7q-7 19 -15 37.5t-16 37.5q-14 31 -31 61t-37 59q-5 6 -8.5 11.5t-8.5 11.5q0 -2 -1 -3l1 3q-5 -19 -9 -37t-9 -37q-8 -33 -17 -66t-17 -66q7 0 14 -0.5t15 -0.5zM483 1007q5 -11 7 -22.5
t0 -23.5q-6 -29 -22 -54q-8 -14 -17.5 -26t-20.5 -23q-30 -31 -61 -54q-17 -12 -34.5 -23t-35.5 -20q-14 -7 -28.5 -12.5t-29.5 -8.5q-14 -4 -28.5 -5.5t-29.5 0.5q-11 2 -20.5 6.5t-18.5 11.5q-17 13 -26 32.5t-11 41.5q-2 23 3 46.5t13 45.5q9 25 22.5 47.5t30.5 42.5
q19 23 44 42q14 11 30.5 20t34.5 11q19 3 29 -8q7 -7 11 -20q20 5 41.5 7.5t42.5 0.5q24 -3 44.5 -17.5t29.5 -37.5zM314 819q0 -1 -1 -1q7 3 5 2.5t-4 -1.5zM331 827q2 2 4 2.5t-5 -2.5h1zM395 902q3 14 0 29q-5 14 -12.5 25t-19.5 19q-10 6 -20.5 8.5t-21.5 3.5
q-10 0 -20 -1t-20 -3q-8 -2 -16.5 -4.5t-16.5 -5.5q-2 -1 -4.5 -2t-4.5 -2q-4 -2 -7.5 -3.5t-7.5 -3.5q-2 -2 -4 -2.5t-4 -2.5l-6 -3q-1 -5 -2 -9t-3 -9q-4 -17 -4.5 -35.5t3.5 -35.5q10 -29 37 -48q7 -4 13.5 -5.5t13.5 -2.5q6 0 12 0.5t12 1.5l18 6q1 0 1 1h2q3 2 5.5 3
t5.5 3q1 0 2 0.5t2 0.5l9 6q4 2 5 3q2 1 5 4q2 2 4 3t4 3q1 1 1.5 1t1.5 1l8 8l2 2q6 6 9 10v1q3 4 5.5 7.5t4.5 7.5q3 5 4.5 10t3.5 10z" />
    <glyph glyph-name="AE" unicode="&#xc6;" horiz-adv-x="868" 
d="M853 94q5 1 9.5 -0.5t3.5 -7.5q0 -7 -4 -13.5t-9 -11.5q-7 -8 -15.5 -14.5t-17.5 -12.5q-7 -5 -15 -8t-16 -4q-24 -4 -48 -6.5t-47 -5.5q-54 -6 -106.5 -13.5t-105.5 -18.5q0 -5 -0.5 -9t-0.5 -9q0 -7 -4.5 -13.5t-9.5 -11.5q-7 -8 -15.5 -15t-17.5 -12q-3 -2 -10 -6
t-15 -6.5t-14.5 -1.5t-6.5 9q-1 11 -1.5 20.5t-0.5 19.5q-3 3 -3 7q0 3 2 9q-1 19 -1.5 37.5t-2.5 37.5q-12 139 -48 270q-2 0 -2.5 0.5t-1.5 0.5q-20 4 -40.5 7t-41.5 6q-33 5 -66 8t-67 5q-11 -39 -21 -78.5t-21 -79.5q-5 -17 -9 -33.5t-9 -33.5q-2 -6 -3.5 -12.5
t-3.5 -12.5t-2 -10q-1 -2 -1 -2.5t-1 -2.5q0 -1 -0.5 -2t-0.5 -3q-1 -1 -1 -3q1 -4 -2 -10t-7 -11t-8.5 -9.5l-5.5 -5.5q-22 -20 -47 -29q-5 -2 -11 -2.5t-10 3.5q-2 2 -2 4v2q0 4 2 12q0 3 1 5q-1 -1 -1 -4q2 13 5.5 25t6.5 25q10 38 20 75.5t21 75.5l30 114l-10 4t-9 6
q-5 4 -1.5 11t5.5 10q4 5 8 9.5t9 9.5q4 3 7 6t7 5q2 5 2.5 8.5t1.5 7.5q11 44 22 86.5t22 85.5q3 14 6.5 29t6.5 29l2 12t2 11q1 3 1 5.5t1 4.5v4q0 3 2 7v5q-2 3 0 8q-1 1 -1 3v1q0 7 6 15q5 8 12.5 15t15.5 13q16 13 34 19q10 3 17 2q4 -1 7.5 -4.5t6.5 -5.5q2 -2 5 -4.5
t5 -4.5q34 -33 63 -72q5 4 9.5 7.5t9.5 7.5q33 26 72.5 40.5t82.5 9.5q28 -4 52.5 -16t47.5 -28q23 -15 43.5 -31.5t43.5 -30.5q19 -11 39.5 -19.5t42.5 -10.5h17q5 1 9 -1t4 -7q0 -7 -4.5 -13.5t-8.5 -11.5q-7 -8 -15.5 -14.5t-17.5 -12.5q-7 -4 -15 -7t-16 -5
q-17 -3 -39 -1q-28 2 -52.5 14.5t-46.5 28.5q-22 15 -43 31.5t-44 30.5q-20 12 -41 20t-44 10q-17 0 -32 -3q-4 0 -8 -2h-1l-1 -1q-1 -2 -2.5 -3t-2.5 -3l-2 -2q-1 -2 -1.5 -2.5t-1.5 -2.5t-2 -5t-2 -5v-2l2 -2q3 -3 1 -8q31 -51 53 -104q29 -66 49 -137q5 -1 9.5 -2t9.5 -2
q11 3 23 5.5t23 4.5q12 2 24 3.5t24 1.5q26 2 54.5 -2.5t49.5 -23.5q4 -4 0.5 -11t-5.5 -10q-11 -16 -27 -27q-8 -6 -16.5 -11t-18.5 -8q-9 -3 -16 -2q-33 18 -70 21h-17q-11 -10 -26 -18q4 -17 7 -32.5t6 -31.5q12 -71 18 -141q2 -14 3 -28.5t2 -29.5q36 13 79 21
q27 6 54 10t55 9q27 4 54 7l54 6l38 4t38 3zM331 654q-2 -2 -4 -3t5 3h-1zM163 408q35 -2 70 -4.5t70 -6.5q-8 19 -15.5 37.5t-15.5 36.5q-15 32 -32 62t-37 59q-4 5 -8 11t-9 11v-2v2q-7 -34 -18 -73q-8 -33 -16.5 -66t-17.5 -66q8 0 14.5 -0.5t14.5 -0.5z" />
    <glyph glyph-name="Ccedilla" unicode="&#xc7;" horiz-adv-x="617" 
d="M551 446q6 -21 9.5 -43.5t1.5 -44.5q0 -8 -4 -14t-9 -11q-7 -8 -15.5 -14.5t-17.5 -12.5q-7 -4 -15 -7.5t-16 -4.5q-5 -1 -9.5 1t-3.5 7q1 23 -3 46t-10 45q-20 63 -50 120q-14 26 -30 50.5t-35 47.5q-17 20 -36 38t-42 32q-35 22 -74 25h-12t-12 -2q-3 0 -9 -2
q0 -1 -0.5 -1t-0.5 -1q-7 -8 -13 -19q-11 -20 -18 -41.5t-12 -43.5q-12 -52 -16 -104.5t-2 -105.5q2 -52 8.5 -103.5t20.5 -102.5q5 -17 11 -33t14 -32q4 -6 7.5 -12.5t8.5 -12.5q15 -20 40 -36q30 -18 66 -21q19 0 37 3q7 2 13 4t11 4h2q1 1 1.5 1t1.5 1q10 4 14 6l4 2
q4 2 7.5 4.5t6.5 4.5t5.5 3t5.5 3q1 2 5 4q7 5 13.5 10t13.5 11q1 1 1.5 1t1.5 1q3 3 6 5.5t7 5.5l48 45q15 15 35 25q6 2 13.5 5t14.5 1q6 -2 6.5 -6.5t-1.5 -9.5q-3 -7 -8 -12.5t-10 -10.5q5 5 4 4l-4 -4l-6 -6l-3 -3q-2 -2 -2.5 -3t-2.5 -3t-5 -4.5t-5 -4.5
q-5 -5 -10.5 -10t-10.5 -10q-14 -13 -28 -24.5t-28 -22.5q-36 -29 -75 -51q-21 -11 -42.5 -21t-44.5 -16q-20 -5 -40 -7.5t-41 0.5q-35 4 -68 26q-13 8 -24.5 18t-19.5 23q-11 14 -17 29q-10 21 -17 42.5t-12 43.5q-13 53 -18.5 106.5t-6.5 107.5q0 56 6 111t22 109
q14 49 40 90q17 26 40.5 49t51.5 39q29 16 60 24.5t64 3.5q25 -5 47.5 -16.5t42.5 -26.5q22 -17 40.5 -37.5t35.5 -42.5q17 -24 32 -50t28 -52q25 -51 40 -109zM380 -125q12 -24 12 -53q0 -32 -11 -62q-11 -29 -30 -53t-42 -44q-55 -49 -120 -74q-20 -8 -42 -12.5t-45 -2.5
q-16 2 -28 12q-7 5 -9.5 11t-4.5 13q-2 10 0 20t5 19q5 14 12 27.5t15 25.5q11 16 28 29q8 5 16.5 10.5t18.5 8.5q5 1 11.5 2t9.5 -4q4 -5 1 -10.5t-5 -9.5q-2 -2 -2.5 -4t-2.5 -4q-7 -13 -12 -29q-1 -6 -1.5 -11.5t0.5 -10.5q4 -9 11 -14q9 -5 21 -6q12 0 24 3q5 1 9 2t9 3
l4 2q1 0 5 2q2 1 4.5 2t4.5 2l9 6q2 2 3.5 2.5t3.5 2.5q3 2 5 5q3 2 7 8q2 3 4.5 6.5t4.5 6.5q3 7 5.5 13.5t4.5 13.5q8 34 1 64q-9 26 -33 43q-24 14 -52 18t-55 6q-16 1 -31.5 1h-31.5q-5 0 -9.5 1.5t-4.5 7.5q0 8 4.5 14t9.5 11q19 24 42.5 42.5t49.5 34.5l18 12t18 11
l9 6l1 1q6 3 11 8q16 13 35 19q4 2 10.5 3t10.5 -4q3 -5 0 -11l-5 -10q-5 -8 -12.5 -14.5t-15.5 -12.5l-15 -12q-5 -4 -10 -7t-10 -7q-1 0 -2 -1l9 6q-4 -2 -7.5 -5t-7.5 -5q-5 -3 -9.5 -6t-9.5 -7q25 0 50 -2t49 -7q23 -6 45.5 -18t34.5 -34z" />
    <glyph glyph-name="Egrave" unicode="&#xc8;" horiz-adv-x="696" 
d="M650 124q4 -5 1 -11l-5 -10q-12 -17 -29 -29q-8 -6 -17 -11.5t-19 -7.5q-2 -1 -4 -1.5t-4 -1.5q-6 -2 -11 -5t-10 -5q-14 -7 -28 -13.5t-28 -14.5q-50 -26 -99.5 -50.5t-101.5 -44.5q-26 -10 -51.5 -18t-52.5 -13q-21 -5 -43 -6t-43 4q-17 5 -32 15.5t-23 26.5
q-10 19 -10 38.5t7 38.5q8 24 23 45t32 39q22 24 46 45t50 40q45 34 92 63t96 56q-33 -5 -66 -8t-66 -5q-32 -1 -63.5 -0.5t-62.5 5.5q-25 3 -49 10.5t-44 21.5q-22 15 -30.5 37t-8.5 46.5t6 49t15 45.5q13 29 29 55.5t35 52.5q21 28 44 53.5t49 48.5q28 25 61 47q8 5 15 9
t15 8q6 4 9 5t7.5 3t7.5 3.5t2.5 1t-8.5 -3.5q19 8 39 13t41 5q17 -1 33.5 -4t33.5 -10q32 -13 59.5 -34.5t50.5 -47.5q11 -14 21 -27.5t18 -28.5l15 -30l6 -15q2 -5 3.5 -9.5t1.5 -9.5v1q2 -6 3 -11.5t2 -11.5q0 -9 -6 -16l-7 -9q-7 -8 -15.5 -14.5t-17.5 -12.5
q-7 -4 -15 -7.5t-16 -4.5q-8 -2 -12 3q0 2 -0.5 2.5t-0.5 2.5l-3 12q-8 26 -21 50.5t-30 46.5q-36 48 -84 80q-20 12 -41.5 19.5t-44.5 9.5h-15t-14 -2q-6 -2 -8 -3q-2 0 -2.5 -0.5t-2.5 -0.5l-2 -1h-1l-6 -3q-1 -1 -2 -1q-1 -1 -5 -3q-3 -2 -6 -5t-6 -5q-2 -2 -3 -2
q-6 -6 -10 -9l-10 -10l-1 -1q-5 -5 -9.5 -10t-9.5 -10t-9 -10.5t-8 -11.5q-2 -1 -2.5 -2t-2.5 -3q-2 -4 -8 -12q-8 -11 -15 -22.5t-14 -23.5q-21 -36 -29 -73q-8 -34 -1 -64q9 -29 36 -47q12 -8 25.5 -12.5t27.5 -7.5q17 -4 34.5 -5.5t34.5 -3.5q25 -1 49 -0.5t48 2.5
q55 5 108.5 12.5t106.5 19.5h1q5 1 11.5 2.5t10.5 -3.5q3 -7 0 -13q-6 -15 -19.5 -27t-27.5 -20q-13 -8 -27 -15.5t-28 -15.5q-16 -9 -31.5 -17.5t-30.5 -16.5l-12 -6q-13 -6 -22 -13q-13 -6 -25 -13l-24 -14l-24 -14t-24 -15q-6 -4 -12 -7.5t-12 -8.5q-7 -4 -13 -8
q-1 0 -3 -2q-11 -7 -20.5 -14t-20.5 -15q-2 -2 -5 -4.5t-5 -4.5q-1 0 -1 -1q-5 -4 -9 -7t-8 -7l-9 -9l-7.5 -7.5t-6.5 -8.5q-2 -2 -2 -3q-2 -1 -4 -5l-4 -6l-4 -6q-2 -5 -4.5 -10.5t-4.5 -11.5q-3 -18 1 -34q8 -24 28 -38q10 -5 20.5 -7.5t21.5 -4.5q14 0 27 2t27 4
q7 2 13.5 4t14.5 4l24 8t24 9q2 0 2.5 0.5t1.5 0.5q3 2 5.5 2.5t5.5 2.5q6 2 12 5t13 6q25 11 49 22.5t48 23.5q42 22 83 43q19 9 38.5 17.5t39.5 13.5l-9 -2h2q4 2 11 3t10 -4zM576 53h1q2 2 3.5 2t-4.5 -2zM520 866q9 -5 4 -15q-3 -8 -8.5 -15t-11.5 -12q-16 -14 -35 -24
q-5 -2 -13.5 -5t-13.5 -1q-9 3 -17 6.5t-16 7.5q-26 13 -51.5 26t-51.5 26q-11 6 -22 11.5t-22 10.5q-4 2 -8.5 4t-9.5 4q-7 -2 -12 -1t-5 9t4.5 14t9.5 11q8 11 20 20t25 14q17 8 31 7q10 -2 19 -6q24 -10 47.5 -22t46.5 -24q23 -11 45 -23t45 -23z" />
    <glyph glyph-name="Eacute" unicode="&#xc9;" horiz-adv-x="696" 
d="M650 124q4 -5 1 -11l-5 -10q-12 -17 -29 -29q-8 -6 -17 -11.5t-19 -7.5q-2 -1 -4 -1.5t-4 -1.5q-6 -2 -11 -5t-10 -5q-14 -7 -28 -13.5t-28 -14.5q-50 -26 -99.5 -50.5t-101.5 -44.5q-26 -10 -51.5 -18t-52.5 -13q-21 -5 -43 -6t-43 4q-17 5 -32 15.5t-23 26.5
q-10 19 -10 38.5t7 38.5q8 24 23 45t32 39q22 24 46 45t50 40q45 34 92 63t96 56q-33 -5 -66 -8t-66 -5q-32 -1 -63.5 -0.5t-62.5 5.5q-25 3 -49 10.5t-44 21.5q-22 15 -30.5 37t-8.5 46.5t6 49t15 45.5q13 29 29 55.5t35 52.5q21 28 44 53.5t49 48.5q28 25 61 47q8 5 15 9
t15 8q6 4 9 5t7.5 3t7.5 3.5t2.5 1t-8.5 -3.5q19 8 39 13t41 5q17 -1 33.5 -4t33.5 -10q32 -13 59.5 -34.5t50.5 -47.5q11 -14 21 -27.5t18 -28.5l15 -30l6 -15q2 -5 3.5 -9.5t1.5 -9.5v1q2 -6 3 -11.5t2 -11.5q0 -9 -6 -16l-7 -9q-7 -8 -15.5 -14.5t-17.5 -12.5
q-7 -4 -15 -7.5t-16 -4.5q-8 -2 -12 3q0 2 -0.5 2.5t-0.5 2.5l-3 12q-8 26 -21 50.5t-30 46.5q-36 48 -84 80q-20 12 -41.5 19.5t-44.5 9.5h-15t-14 -2q-6 -2 -8 -3q-2 0 -2.5 -0.5t-2.5 -0.5l-2 -1h-1l-6 -3q-1 -1 -2 -1q-1 -1 -5 -3q-3 -2 -6 -5t-6 -5q-2 -2 -3 -2
q-6 -6 -10 -9l-10 -10l-1 -1q-5 -5 -9.5 -10t-9.5 -10t-9 -10.5t-8 -11.5q-2 -1 -2.5 -2t-2.5 -3q-2 -4 -8 -12q-8 -11 -15 -22.5t-14 -23.5q-21 -36 -29 -73q-8 -34 -1 -64q9 -29 36 -47q12 -8 25.5 -12.5t27.5 -7.5q17 -4 34.5 -5.5t34.5 -3.5q25 -1 49 -0.5t48 2.5
q55 5 108.5 12.5t106.5 19.5h1q5 1 11.5 2.5t10.5 -3.5q3 -7 0 -13q-6 -15 -19.5 -27t-27.5 -20q-13 -8 -27 -15.5t-28 -15.5q-16 -9 -31.5 -17.5t-30.5 -16.5l-12 -6q-13 -6 -22 -13q-13 -6 -25 -13l-24 -14l-24 -14t-24 -15q-6 -4 -12 -7.5t-12 -8.5q-7 -4 -13 -8
q-1 0 -3 -2q-11 -7 -20.5 -14t-20.5 -15q-2 -2 -5 -4.5t-5 -4.5q-1 0 -1 -1q-5 -4 -9 -7t-8 -7l-9 -9l-7.5 -7.5t-6.5 -8.5q-2 -2 -2 -3q-2 -1 -4 -5l-4 -6l-4 -6q-2 -5 -4.5 -10.5t-4.5 -11.5q-3 -18 1 -34q8 -24 28 -38q10 -5 20.5 -7.5t21.5 -4.5q14 0 27 2t27 4
q7 2 13.5 4t14.5 4l24 8t24 9q2 0 2.5 0.5t1.5 0.5q3 2 5.5 2.5t5.5 2.5q6 2 12 5t13 6q25 11 49 22.5t48 23.5q42 22 83 43q19 9 38.5 17.5t39.5 13.5l-9 -2h2q4 2 11 3t10 -4zM576 53h1q2 2 3.5 2t-4.5 -2zM416 977q2 1 9.5 5t15.5 6.5t14 1.5t6 -8t-4.5 -13.5t-8.5 -11.5
q-9 -11 -21 -18q-7 -5 -13.5 -9.5t-13.5 -9.5l-1 -1q-2 -2 -5 -3.5t-5 -3.5q-10 -7 -19.5 -13.5t-19.5 -14.5q-2 -2 -4.5 -3.5t-4.5 -3.5q-2 -1 -4 -3t-5 -4.5t-5 -4.5l-3 -3l-1 -1q-1 -2 -1.5 -2.5t-1.5 -2.5q0 1 0.5 1.5t0.5 1.5q-9 -16 -23 -27.5t-30 -19.5
q-6 -3 -13.5 -5.5t-13.5 -0.5q-5 2 -6 6.5t1 8.5q6 12 14.5 23t17.5 21q13 13 27 25t28 23q23 17 46.5 33t46.5 31z" />
    <glyph glyph-name="Ecircumflex" unicode="&#xca;" horiz-adv-x="696" 
d="M650 124q4 -5 1 -11l-5 -10q-12 -17 -29 -29q-8 -6 -17 -11.5t-19 -7.5q-2 -1 -4 -1.5t-4 -1.5q-6 -2 -11 -5t-10 -5q-14 -7 -28 -13.5t-28 -14.5q-50 -26 -99.5 -50.5t-101.5 -44.5q-26 -10 -51.5 -18t-52.5 -13q-21 -5 -43 -6t-43 4q-17 5 -32 15.5t-23 26.5
q-10 19 -10 38.5t7 38.5q8 24 23 45t32 39q22 24 46 45t50 40q45 34 92 63t96 56q-33 -5 -66 -8t-66 -5q-32 -1 -63.5 -0.5t-62.5 5.5q-25 3 -49 10.5t-44 21.5q-22 15 -30.5 37t-8.5 46.5t6 49t15 45.5q13 29 29 55.5t35 52.5q21 28 44 53.5t49 48.5q28 25 61 47q8 5 15 9
t15 8q6 4 9 5t7.5 3t7.5 3.5t2.5 1t-8.5 -3.5q19 8 39 13t41 5q17 -1 33.5 -4t33.5 -10q32 -13 59.5 -34.5t50.5 -47.5q11 -14 21 -27.5t18 -28.5l15 -30l6 -15q2 -5 3.5 -9.5t1.5 -9.5v1q2 -6 3 -11.5t2 -11.5q0 -9 -6 -16l-7 -9q-7 -8 -15.5 -14.5t-17.5 -12.5
q-7 -4 -15 -7.5t-16 -4.5q-8 -2 -12 3q0 2 -0.5 2.5t-0.5 2.5l-3 12q-8 26 -21 50.5t-30 46.5q-36 48 -84 80q-20 12 -41.5 19.5t-44.5 9.5h-15t-14 -2q-6 -2 -8 -3q-2 0 -2.5 -0.5t-2.5 -0.5l-2 -1h-1l-6 -3q-1 -1 -2 -1q-1 -1 -5 -3q-3 -2 -6 -5t-6 -5q-2 -2 -3 -2
q-6 -6 -10 -9l-10 -10l-1 -1q-5 -5 -9.5 -10t-9.5 -10t-9 -10.5t-8 -11.5q-2 -1 -2.5 -2t-2.5 -3q-2 -4 -8 -12q-8 -11 -15 -22.5t-14 -23.5q-21 -36 -29 -73q-8 -34 -1 -64q9 -29 36 -47q12 -8 25.5 -12.5t27.5 -7.5q17 -4 34.5 -5.5t34.5 -3.5q25 -1 49 -0.5t48 2.5
q55 5 108.5 12.5t106.5 19.5h1q5 1 11.5 2.5t10.5 -3.5q3 -7 0 -13q-6 -15 -19.5 -27t-27.5 -20q-13 -8 -27 -15.5t-28 -15.5q-16 -9 -31.5 -17.5t-30.5 -16.5l-12 -6q-13 -6 -22 -13q-13 -6 -25 -13l-24 -14l-24 -14t-24 -15q-6 -4 -12 -7.5t-12 -8.5q-7 -4 -13 -8
q-1 0 -3 -2q-11 -7 -20.5 -14t-20.5 -15q-2 -2 -5 -4.5t-5 -4.5q-1 0 -1 -1q-5 -4 -9 -7t-8 -7l-9 -9l-7.5 -7.5t-6.5 -8.5q-2 -2 -2 -3q-2 -1 -4 -5l-4 -6l-4 -6q-2 -5 -4.5 -10.5t-4.5 -11.5q-3 -18 1 -34q8 -24 28 -38q10 -5 20.5 -7.5t21.5 -4.5q14 0 27 2t27 4
q7 2 13.5 4t14.5 4l24 8t24 9q2 0 2.5 0.5t1.5 0.5q3 2 5.5 2.5t5.5 2.5q6 2 12 5t13 6q25 11 49 22.5t48 23.5q42 22 83 43q19 9 38.5 17.5t39.5 13.5l-9 -2h2q4 2 11 3t10 -4zM576 53h1q2 2 3.5 2t-4.5 -2zM531 864q5 -4 1 -11.5t-6 -9.5q-10 -16 -28 -29q-8 -6 -17 -11
t-19 -8q-6 -4 -17 -2q-14 6 -26 15.5t-23 20.5q-10 10 -18.5 20.5t-16.5 22.5q-9 14 -17 29.5t-14 32.5q-25 -26 -50 -51.5t-51 -50.5q-16 -16 -36 -25l-12.5 -5t-14.5 -1q-6 2 -6.5 6.5t1.5 9.5q5 10 12 17q0 2 2 2v1q2 2 2.5 3t2.5 3q4 6 8.5 12.5t9.5 11.5q8 8 15.5 14.5
t16.5 11.5l2 2q1 1 2 1.5t2 1.5q5 5 10 10.5t10 10.5q20 20 39 41t37 42q8 9 16.5 16t17.5 13l12 6t12 5q7 3 17 1q6 -2 6 -8q2 -8 4 -13q14 -48 42 -88q16 -22 33 -38q10 -9 20 -16.5t19 -15.5z" />
    <glyph glyph-name="Edieresis" unicode="&#xcb;" horiz-adv-x="696" 
d="M650 124q4 -5 1 -11l-5 -10q-12 -17 -29 -29q-8 -6 -17 -11.5t-19 -7.5q-2 -1 -4 -1.5t-4 -1.5q-6 -2 -11 -5t-10 -5q-14 -7 -28 -13.5t-28 -14.5q-50 -26 -99.5 -50.5t-101.5 -44.5q-26 -10 -51.5 -18t-52.5 -13q-21 -5 -43 -6t-43 4q-17 5 -32 15.5t-23 26.5
q-10 19 -10 38.5t7 38.5q8 24 23 45t32 39q22 24 46 45t50 40q45 34 92 63t96 56q-33 -5 -66 -8t-66 -5q-32 -1 -63.5 -0.5t-62.5 5.5q-25 3 -49 10.5t-44 21.5q-22 15 -30.5 37t-8.5 46.5t6 49t15 45.5q13 29 29 55.5t35 52.5q21 28 44 53.5t49 48.5q28 25 61 47q8 5 15 9
t15 8q6 4 9 5t7.5 3t7.5 3.5t2.5 1t-8.5 -3.5q19 8 39 13t41 5q17 -1 33.5 -4t33.5 -10q32 -13 59.5 -34.5t50.5 -47.5q11 -14 21 -27.5t18 -28.5l15 -30l6 -15q2 -5 3.5 -9.5t1.5 -9.5v1q2 -6 3 -11.5t2 -11.5q0 -9 -6 -16l-7 -9q-7 -8 -15.5 -14.5t-17.5 -12.5
q-7 -4 -15 -7.5t-16 -4.5q-8 -2 -12 3q0 2 -0.5 2.5t-0.5 2.5l-3 12q-8 26 -21 50.5t-30 46.5q-36 48 -84 80q-20 12 -41.5 19.5t-44.5 9.5h-15t-14 -2q-6 -2 -8 -3q-2 0 -2.5 -0.5t-2.5 -0.5l-2 -1h-1l-6 -3q-1 -1 -2 -1q-1 -1 -5 -3q-3 -2 -6 -5t-6 -5q-2 -2 -3 -2
q-6 -6 -10 -9l-10 -10l-1 -1q-5 -5 -9.5 -10t-9.5 -10t-9 -10.5t-8 -11.5q-2 -1 -2.5 -2t-2.5 -3q-2 -4 -8 -12q-8 -11 -15 -22.5t-14 -23.5q-21 -36 -29 -73q-8 -34 -1 -64q9 -29 36 -47q12 -8 25.5 -12.5t27.5 -7.5q17 -4 34.5 -5.5t34.5 -3.5q25 -1 49 -0.5t48 2.5
q55 5 108.5 12.5t106.5 19.5h1q5 1 11.5 2.5t10.5 -3.5q3 -7 0 -13q-6 -15 -19.5 -27t-27.5 -20q-13 -8 -27 -15.5t-28 -15.5q-16 -9 -31.5 -17.5t-30.5 -16.5l-12 -6q-13 -6 -22 -13q-13 -6 -25 -13l-24 -14l-24 -14t-24 -15q-6 -4 -12 -7.5t-12 -8.5q-7 -4 -13 -8
q-1 0 -3 -2q-11 -7 -20.5 -14t-20.5 -15q-2 -2 -5 -4.5t-5 -4.5q-1 0 -1 -1q-5 -4 -9 -7t-8 -7l-9 -9l-7.5 -7.5t-6.5 -8.5q-2 -2 -2 -3q-2 -1 -4 -5l-4 -6l-4 -6q-2 -5 -4.5 -10.5t-4.5 -11.5q-3 -18 1 -34q8 -24 28 -38q10 -5 20.5 -7.5t21.5 -4.5q14 0 27 2t27 4
q7 2 13.5 4t14.5 4l24 8t24 9q2 0 2.5 0.5t1.5 0.5q3 2 5.5 2.5t5.5 2.5q6 2 12 5t13 6q25 11 49 22.5t48 23.5q42 22 83 43q19 9 38.5 17.5t39.5 13.5l-9 -2h2q4 2 11 3t10 -4zM576 53h1q2 2 3.5 2t-4.5 -2zM338 837q3 -5 1 -10.5t-5 -10.5q-12 -17 -28 -27q-8 -6 -16 -11
t-18 -8q-4 -2 -10.5 -3t-9.5 4q-14 20 -22.5 43t-13.5 47q-5 23 -8.5 45.5t-6.5 45.5q-1 6 4.5 13t9.5 12q13 14 32 27q3 1 10 5t14.5 6t13.5 1t7 -8l8 -52t11 -52q5 -17 12 -33.5t15 -33.5zM491 861q4 -5 0.5 -11t-5.5 -10q-11 -16 -27 -27q-8 -6 -16.5 -11t-18.5 -8
q-5 -2 -10.5 -2.5t-10.5 3.5q-17 14 -26.5 34t-14.5 41q-5 20 -7 40.5t-2 41.5q0 7 4.5 13t8.5 11q14 15 33 28q3 1 10.5 5t15.5 6.5t14 1.5t6 -9q0 -20 2 -40.5t7 -40.5q12 -37 37 -66z" />
    <glyph glyph-name="Igrave" unicode="&#xcc;" horiz-adv-x="428" 
d="M371 55q6 -2 6 -7t-2 -9q-3 -8 -9 -15t-12 -12q-15 -15 -35 -24q-15 -8 -28 -7q-20 3 -38 3q-30 1 -58 0q-14 -10 -31 -16q14 5 10 3t-12 -4q-6 -2 -13.5 -3t-12.5 2q-8 5 -12 10q-14 -2 -28.5 -4.5t-28.5 -4.5q-16 -3 -32 -5.5t-33 -4.5q-5 -1 -9.5 1t-4.5 7q2 9 7 16
q5 9 11.5 17.5t13.5 16.5q8 8 16 16.5t16 16.5t17 13.5t18 10.5q4 2 8 3.5t9 2.5q-2 51 0 102q1 50 3.5 98.5t5.5 98.5q3 47 6 92.5t7 92.5q1 18 2 35.5t3 35.5q0 7 0.5 13.5t0.5 13.5q1 5 0.5 9.5t0.5 9.5q-5 1 -11 1.5t-12 0.5q-36 2 -68 -4q-5 -1 -9 1t-4 8q0 7 4.5 13
t8.5 11q13 15 29.5 26t36.5 15q23 5 45.5 6t45.5 -1l12 3q11 0 13 -6q5 -1 10 -1t10 -1q70 -11 135 -33q7 -2 6.5 -8.5t-5 -13t-10.5 -12.5l-8 -8q-15 -15 -35 -24q-6 -3 -13.5 -6t-14.5 -1q-19 5 -38 9.5t-38 9.5q-2 -26 -3.5 -51t-3.5 -50q-8 -98 -12 -195
q-2 -48 -4 -94.5t-1 -94.5q0 -38 3 -74q2 -13 3.5 -25t4.5 -24v-1q3 1 7 1q38 5 77 6t77 -7zM99 37q2 0 4.5 0.5t4.5 0.5q-1 3 -1 7l-4 -4zM357 830q9 -5 4 -15q-3 -8 -8.5 -15t-11.5 -12q-16 -14 -35 -24q-5 -2 -13.5 -5t-13.5 -1q-9 3 -17 6.5t-16 7.5q-26 13 -51.5 26
t-51.5 26q-11 6 -22 11.5t-22 10.5q-4 2 -8.5 4t-9.5 4q-7 -2 -12 -1t-5 9t4.5 14t9.5 11q8 11 20 20t25 14q17 8 31 7q10 -2 19 -6q24 -10 47.5 -22t46.5 -24q23 -11 45 -23t45 -23z" />
    </font>
</defs>
</svg>
