<?xml version="1.0" standalone="no"?>
<!DOCTYPE svg PUBLIC "-//W3C//DTD SVG 1.1//EN" "http://www.w3.org/Graphics/SVG/1.1/DTD/svg11.dtd" >
<svg xmlns="http://www.w3.org/2000/svg" xmlns:xlink="http://www.w3.org/1999/xlink" version="1.1">
<metadata>
Created by FontForge 20170731 at Mon Jun  9 21:10:00 2014
 By Aleksey,,,
2013 Iconian Fonts - www.iconian.com
</metadata>
<defs>
<font id="SingaporeSlingExpandedItalic" horiz-adv-x="942" >
  <font-face 
    font-family="Singapore Sling Expanded Italic"
    font-weight="400"
    font-style="italic"
    font-stretch="expanded"
    units-per-em="1000"
    panose-1="0 0 0 0 0 0 0 0 0 0"
    ascent="800"
    descent="-200"
    x-height="609"
    cap-height="609"
    bbox="-63 -170 1480 771"
    underline-thickness="50"
    underline-position="-175"
    unicode-range="U+0020-2122"
  />
<missing-glyph horiz-adv-x="500" 
 />
    <glyph glyph-name=".notdef" horiz-adv-x="500" 
 />
    <glyph glyph-name=".null" horiz-adv-x="0" 
 />
    <glyph glyph-name="nonmarkingreturn" horiz-adv-x="500" 
 />
    <glyph glyph-name="space" unicode=" " horiz-adv-x="499" 
 />
    <glyph glyph-name="space" unicode="&#xa0;" horiz-adv-x="499" 
 />
    <glyph glyph-name="FL0021h" unicode="!" horiz-adv-x="295" 
d="M93 107l-27 -107h163l27 107h-163zM218 609l-105 -419h163l105 419h-163z" />
    <glyph glyph-name="FL0022h" unicode="&#x22;" horiz-adv-x="506" 
d="M435 609h163l-34 -135l-185 -89zM212 609h163l-34 -135l-185 -89z" />
    <glyph glyph-name="FL0023h" unicode="#" horiz-adv-x="866" 
d="M921 462l-29 -116h-126l-16 -66h126l-29 -116h-126l-41 -164h-163l41 164h-167l-41 -164h-163l41 164h-127l29 116h127l16 66h-127l29 116h127l37 147h163l-37 -147h167l37 147h163l-37 -147h126zM603 346h-167l-16 -66h167z" />
    <glyph glyph-name="FL0024h" unicode="$" horiz-adv-x="786" 
d="M89 107h249l36 145h-55q-47 0 -80.5 14.5t-53.5 39t-26.5 56t1.5 65.5q10 39 35.5 72.5t61 57.5t79 38t90.5 14h37l25 102h156l-25 -102h257l-27 -107h-257l-35 -143h55q47 0 82 -15t56.5 -39.5t28.5 -57t-2 -68.5q-8 -29 -29 -61t-50.5 -58t-66.5 -43t-78 -17h-86
l-25 -102h-156l25 102h-249zM530 252l-36 -145h39q15 0 30 6.5t28.5 17t23 22.5t12.5 24q7 28 -8 51.5t-50 23.5h-39zM436 502h-46q-14 0 -27.5 -7t-24.5 -18.5t-18.5 -24.5t-10.5 -25q-3 -11 0.5 -23t10 -22t16 -16.5t18.5 -6.5h47z" />
    <glyph glyph-name="FL0025h" unicode="%" horiz-adv-x="784" 
d="M370 103q3 13 8 24t11 22l-167 -149h-193l409 364q-28 -11 -55 -17.5t-57 -6.5q-41 0 -74.5 12.5t-55 34.5t-29.5 52t1 65q9 34 32 64.5t55.5 53t72 36t80.5 13.5q42 0 75 -13t54 -35.5t29 -53t-1 -65.5q-2 -10 -6.5 -20t-9.5 -20l163 145h192l-412 -367q55 28 119 28
q42 0 75 -13t54 -35.5t29 -53t-1 -65.5t-32 -65t-55 -52t-71 -34.5t-81 -12.5t-75 12.5t-55 34.5t-30 52t1 65zM303 503q-5 -21 9.5 -36t40.5 -15t47.5 14t26.5 37q5 21 -7.5 37t-40.5 16q-26 0 -48.5 -16t-27.5 -37zM505 102q-5 -21 10 -36t40 -15q26 0 48 14t27 37
q5 21 -7.5 37t-41.5 16q-26 0 -48.5 -16t-27.5 -37z" />
    <glyph glyph-name="FL0026h" unicode="&#x26;" horiz-adv-x="881" 
d="M357 379h558l-27 -110h-69q8 -18 10.5 -35.5t-3.5 -39.5q-9 -36 -31.5 -71t-57 -62.5t-80 -44t-99.5 -16.5h-296q-55 0 -92 16.5t-58 44t-26 62.5t4 71q9 35 32.5 62t60.5 59q-23 25 -31 58.5t1 68.5q9 36 32.5 67t58 53t78 34.5t92.5 12.5h325l-29 -117h-325
q-34 0 -56.5 -14.5t-27.5 -35.5q-6 -24 8.5 -42.5t47.5 -20.5zM333 269q-35 -4 -61 -26.5t-32 -47.5q-3 -11 -1.5 -24.5t7.5 -25.5t17 -20t28 -8h296q16 0 31.5 8t27.5 20t20.5 25.5t11.5 24.5q6 25 -8.5 48t-49.5 26h-287z" />
    <glyph glyph-name="FL0027h" unicode="'" horiz-adv-x="283" 
d="M212 609h163l-34 -135l-185 -89z" />
    <glyph glyph-name="FL0028h" unicode="(" horiz-adv-x="434" 
d="M118 304q-13 -53 -5 -107t39 -98t85.5 -71.5t135.5 -27.5l27 107q-35 0 -64 17t-48.5 45t-26.5 63.5t2 72.5t36.5 72.5t62.5 63t72 44.5t65 17l27 107q-80 0 -147.5 -24t-120 -65t-88.5 -96.5t-52 -119.5z" />
    <glyph glyph-name="FL0029h" unicode=")" horiz-adv-x="434" 
d="M468 304q-13 -53 -48 -107t-88 -98t-121.5 -71.5t-149.5 -27.5l27 107q34 0 72 17t71 45t58 63.5t34 72.5t-1 72.5t-31 63.5t-49.5 44.5t-56.5 16.5l27 107q79 0 135 -24t88 -65t40.5 -96.5t-7.5 -119.5z" />
    <glyph glyph-name="asterisk" unicode="*" horiz-adv-x="384" 
d="M489 541l-102 -15l52 -60l-98 -53l-28 76l-68 -76l-73 53l87 61l-94 14l55 83l80 -37l7 85h105l-36 -86l103 38z" />
    <glyph glyph-name="FL002Bh" unicode="+" horiz-adv-x="493" 
d="M435 476l-25 -97h117l-28 -116h-117l-25 -98h-140l25 98h-116l28 116h116l25 97h140z" />
    <glyph glyph-name="FL002Ch" unicode="," horiz-adv-x="283" 
d="M87 107h163l-34 -135l-185 -89z" />
    <glyph glyph-name="FL002Dh" unicode="-" horiz-adv-x="475" 
d="M154 379l-28 -116h355l28 116h-355z" />
    <glyph glyph-name="FL002Eh" unicode="." horiz-adv-x="283" 
d="M87 107l-27 -107h163l27 107h-163z" />
    <glyph glyph-name="FL002Fh" unicode="/" horiz-adv-x="784" 
d="M904 609l-682 -609h-193l683 609h192z" />
    <glyph glyph-name="FL0030h" unicode="0" horiz-adv-x="878" 
d="M117 301q17 69 63 130t111.5 106t144.5 71.5t161 26.5q85 0 151.5 -26t108.5 -71t57 -106t-3 -131t-63.5 -130t-109.5 -104t-142.5 -69t-163.5 -25q-82 0 -148 25t-109 69t-59.5 104t1.5 130zM265 301q-17 -71 19 -122l362 321q-35 12 -79 12q-51 0 -101 -17t-91.5 -46.5
t-70.5 -67.5t-39 -80zM765 301q8 34 3.5 65.5t-20.5 57.5l-356 -319q33 -9 69 -9q52 0 102 15.5t91 42.5t70.5 64.5t40.5 82.5z" />
    <glyph glyph-name="FL0031h" unicode="1" horiz-adv-x="373" 
d="M153 492h119l-123 -492h164l152 609h-176z" />
    <glyph glyph-name="FL0032h" unicode="2" horiz-adv-x="793" 
d="M757 107l-27 -107h-670l45 179q9 36 32 68.5t57 57t76.5 39.5t89.5 15h258q9 0 21.5 7.5t24.5 18.5t20.5 22.5t10.5 19.5q3 10 2 23t-6.5 24.5t-15 19.5t-23.5 8h-459l27 107h450q46 0 83 -14t60.5 -38t32 -57.5t-1.5 -72.5q-8 -34 -30 -65.5t-54.5 -56t-73.5 -39
t-87 -14.5h-236q-18 0 -34 -6.5t-28.5 -17t-21.5 -24t-12 -27.5l-17 -70h507z" />
    <glyph glyph-name="FL0033h" unicode="3" horiz-adv-x="785" 
d="M266 269l-59 110h409q34 2 58 20.5t30 42.5q5 21 -9.5 35.5t-48.5 14.5h-463l29 117h463q49 0 86 -12.5t60 -34.5t31.5 -53t-0.5 -67q-9 -35 -33.5 -68.5t-59.5 -58.5q21 -32 31 -59t1 -62q-9 -36 -31.5 -71t-57 -62.5t-80 -44t-99.5 -16.5h-463l29 117h463q16 0 31.5 8
t27.5 20t20.5 25.5t11.5 24.5q6 25 -8.5 48t-49.5 26h-319z" />
    <glyph glyph-name="FL0034h" unicode="4" horiz-adv-x="812" 
d="M741 609h163l-152 -609h-163l67 267h-529l85 342h163l-59 -234h366z" />
    <glyph glyph-name="FL0035h" unicode="5" horiz-adv-x="792" 
d="M87 107l-27 -107h499q41 0 78 17t66.5 43t50.5 58t29 61q9 36 2 68.5t-28.5 57t-56.5 39.5t-82 15h-319l35 143h521l27 107h-670l-89 -357h452q35 0 50 -23.5t8 -51.5q-3 -12 -12.5 -24t-23 -22.5t-28.5 -17t-30 -6.5h-452z" />
    <glyph glyph-name="FL0036h" unicode="6" horiz-adv-x="841" 
d="M118 304q16 64 58.5 119.5t104 96.5t137.5 65t159 24h356l-27 -107h-403q-23 0 -50 -10.5t-54.5 -28t-53 -40.5t-44.5 -48h573l-93 -375h-410q-80 0 -134 27.5t-85 71.5t-39 98t5 107zM690 267h-430q1 -31 14 -60t34 -51t48 -35.5t56 -13.5h238z" />
    <glyph glyph-name="FL0037h" unicode="7" horiz-adv-x="744" 
d="M264 0h-204l538 502h-413l27 107h624l-25 -100z" />
    <glyph glyph-name="FL0038h" unicode="8" horiz-adv-x="828" 
d="M153 442q9 36 33 67t58.5 53t78 34.5t92.5 12.5h305q48 0 85 -12.5t60 -34.5t31 -53t-1 -67q-9 -35 -33 -68.5t-59 -58.5q20 -32 30 -59t1 -62q-9 -36 -31.5 -71t-56.5 -62.5t-79 -44t-99 -16.5h-305q-54 0 -91.5 16.5t-58.5 44t-26.5 62.5t3.5 71q9 35 32.5 62t60.5 59
q-23 25 -31 58.5t1 68.5zM629 269h-296q-35 -4 -61 -26.5t-32 -47.5q-3 -11 -1.5 -24.5t7.5 -25.5t17 -20t28 -8h304q16 0 31.5 8t27.5 20t20.5 25.5t11.5 24.5q6 25 -8.5 48t-48.5 26zM357 379h302q35 2 58.5 20.5t29.5 42.5q5 21 -9.5 35.5t-48.5 14.5h-304
q-34 0 -56.5 -14.5t-27.5 -35.5q-6 -24 8.5 -42.5t47.5 -20.5z" />
    <glyph glyph-name="FL0039h" unicode="9" horiz-adv-x="841" 
d="M875 305q-16 -64 -58.5 -119.5t-104 -97t-137.5 -65t-159 -23.5h-356l27 107h403q22 0 49.5 10.5t55 28t53 40.5t44.5 48h-574l94 375h410q79 0 133.5 -27.5t85.5 -71.5t39 -98t-5 -107zM303 342h430q-2 31 -14.5 60t-33 51t-47.5 35.5t-57 13.5h-238z" />
    <glyph glyph-name="FL003Ah" unicode=":" horiz-adv-x="283" 
d="M87 107l-27 -107h163l27 107h-163zM154 379l-26 -107h163l26 107h-163z" />
    <glyph glyph-name="FL003Bh" unicode=";" horiz-adv-x="283" 
d="M128 272l26 107h163l-26 -107h-163zM87 107h163l-34 -135l-185 -89z" />
    <glyph glyph-name="FL003Ch" unicode="&#x3c;" horiz-adv-x="518" 
d="M639 609l-341 -304l190 -305h-193l-189 305l341 304h192z" />
    <glyph glyph-name="FL003Dh" unicode="=" horiz-adv-x="535" 
d="M175 462h415l-29 -116h-415zM134 297h415l-29 -116h-415z" />
    <glyph glyph-name="FL003Eh" unicode="&#x3e;" horiz-adv-x="518" 
d="M183 609l189 -304l-342 -305h193l341 305l-189 304h-192z" />
    <glyph glyph-name="FL003Fh" unicode="?" horiz-adv-x="772" 
d="M173 179l163 -1q1 0 5.5 11.5t15.5 25.5t29 25.5t47 11.5h158q46 0 87 14.5t73.5 39t54.5 56t30 65.5q10 39 1.5 72.5t-32 57.5t-60.5 38t-83 14h-450l-27 -107h458q14 0 24 -8t15.5 -19.5t6.5 -24.5t-2 -23q-2 -8 -10.5 -19.5t-20.5 -22.5t-24.5 -18.5t-21.5 -7.5h-182
q-61 0 -105 -15t-74.5 -39.5t-48.5 -57t-27 -68.5zM155 107l-27 -107h164l27 107h-164z" />
    <glyph glyph-name="at" unicode="@" horiz-adv-x="880" 
d="M804 189q-22 -17 -39.5 -31t-37.5 -25h156l-13 -12q-60 -40 -114 -70t-96 -44q-57 -19 -107.5 -26.5t-104.5 -7.5h-22q-100 0 -167.5 24.5t-105 67.5t-47 100t7.5 122l4 16q16 65 53 125t96.5 105.5t141.5 73t189 27.5h40q72 0 130 -21t95.5 -57.5t52 -87t-0.5 -110.5
q-13 -52 -39.5 -91.5t-71.5 -77.5zM469 70q82 0 187 35q-34 -10 -84 -10q-32 0 -47.5 10.5t-25.5 25.5q-8 -5 -14 -6q-3 -1 -5 -2t-5 -2l-27 -12l1 2h-2l-1 -1q-7 -4 -13 -5t-27 -1q-37 0 -62.5 15.5t-41.5 39.5t-23 53.5t-7 56.5q24 96 94 160q47 49 92.5 72t105.5 23
q28 0 40 -6t22 -19l5 13h99q-26 14 -60.5 23t-72.5 9q-72 0 -129 -17t-105 -49q-49 -32 -81 -75t-48 -106q-13 -51 -4.5 -94.5t37.5 -72.5q30 -29 78.5 -44.5t123.5 -15.5zM463 202l55 68q33 54 46 106q2 11 1.5 20.5t-8.5 16.5l2 8q0 1 -5 1q-26 0 -45.5 -15t-41.5 -48
q-39 -60 -52 -110q-2 -6 -1 -16t6 -21q10 -19 29 -19q6 0 8 2.5t6 5.5v1zM789 358q10 39 4 72t-25 56l-132 -286q16 2 40.5 16t69.5 52q17 20 27.5 43.5t15.5 46.5z" />
    <glyph glyph-name="FL0041h" unicode="A" 
d="M591 479h-5l-163 -201h233zM30 0l510 609h164l208 -609h-175l-57 169h-206l-59 94l-210 -263h-175z" />
    <glyph glyph-name="FL0042h" unicode="B" horiz-adv-x="786" 
d="M212 609h464q49 0 86 -12.5t60 -34.5t31.5 -53t-0.5 -67q-9 -35 -37.5 -69t-62.5 -55q23 -21 35.5 -55t3.5 -69q-9 -36 -31.5 -71t-57 -62.5t-79.5 -44t-100 -16.5h-464zM313 362l-61 -245h301q16 0 31.5 8t27.5 20t20.5 25.5t11.5 24.5q6 25 -8.5 48t-48.5 26h-210z
M346 492l-29 -113h300q35 2 58.5 20.5t29.5 42.5q5 21 -9.5 35.5t-48.5 14.5h-301z" />
    <glyph glyph-name="FL0043h" unicode="C" horiz-adv-x="794" 
d="M118 304q-13 -53 -5 -107t39 -98t85 -71.5t134 -27.5h363l27 107h-349q-35 0 -66 17t-52.5 45t-30.5 63.5t0 72.5t36.5 72.5t63 63t73 44.5t67.5 17h356l27 107h-360q-76 0 -143.5 -25.5t-121.5 -68t-91 -97.5t-52 -114z" />
    <glyph glyph-name="FL0044h" unicode="D" horiz-adv-x="841" 
d="M589 502h-404l27 107h382q82 0 142.5 -24t96.5 -65t47 -96.5t-5 -119.5q-13 -53 -48 -107t-87.5 -98t-120.5 -71.5t-147 -27.5h-412l98 395h158l-71 -288h238q34 0 73.5 17t75 45t62.5 63.5t36 72.5q9 36 -2.5 71t-34 63t-51 45.5t-53.5 17.5z" />
    <glyph glyph-name="FL0045h" unicode="E" horiz-adv-x="710" 
d="M212 609h590l-27 -107h-590zM60 0l27 107h590l-27 -107h-590zM127 267l26 108h590l-26 -108h-590z" />
    <glyph glyph-name="FL0046h" unicode="F" horiz-adv-x="710" 
d="M60 0l93 374h536l-26 -106h-373l-67 -268h-163zM212 609h590l-27 -107h-590z" />
    <glyph glyph-name="FL0047h" unicode="G" horiz-adv-x="841" 
d="M118 304q-13 -53 -5 -107t39 -98t85 -71.5t134 -27.5h410l98 395h-158l-71 -288h-238q-35 0 -66 17t-52.5 45t-30.5 63.5t0 72.5q9 36 36 71t62 63t73 45.5t69 17.5h403l27 107h-383q-89 0 -162 -24t-127.5 -65t-90.5 -96.5t-52 -119.5z" />
    <glyph glyph-name="FL0068h" unicode="H" horiz-adv-x="744" 
d="M673 609h163l-152 -609h-163l67 267h-298l-67 -267h-163l152 609h163l-59 -234h298z" />
    <glyph glyph-name="FL0049h" unicode="I" horiz-adv-x="697" 
d="M637 0h-577l27 107h208l98 395h-208l27 107h577l-27 -107h-206l-98 -395h206z" />
    <glyph glyph-name="FL004Ah" unicode="J" horiz-adv-x="653" 
d="M59 117h316q21 0 38.5 7t30.5 18.5t21 25t11 25.5l77 309h-147l27 107h312l-110 -441q-8 -33 -27 -63.5t-49.5 -54t-72 -37t-95.5 -13.5h-254z" />
    <glyph glyph-name="FL004Bh" unicode="K" horiz-adv-x="743" 
d="M375 609l-72 -289l369 289h193l-380 -302l228 -307h-193l-225 289l-72 -289h-163l152 609h163z" />
    <glyph glyph-name="FL004Ch" unicode="L" horiz-adv-x="626" 
d="M212 609l-152 -609h428l135 107h-373l125 502h-163z" />
    <glyph glyph-name="FL004Dh" unicode="M" horiz-adv-x="1283" 
d="M211 609h163l-23 -91l112 91h210q79 0 123 -27t52 -72l114 99h210q54 0 89 -13.5t53.5 -37t22 -54t-4.5 -63.5l-110 -441h-165l104 416q3 12 0 25.5t-11 25t-21.5 18.5t-31.5 7h-253l-123 -492h-163l104 416q8 35 -7 55.5t-57 20.5h-253l-123 -492h-163z" />
    <glyph glyph-name="FL004Eh" unicode="N" horiz-adv-x="812" 
d="M212 609l-152 -609h163l123 492h282q26 0 41 -4.5t21.5 -14t6 -24t-4.5 -33.5l-104 -416h164l110 441q8 33 4.5 63.5t-22 54t-53 37t-88.5 13.5h-239l-112 -91l23 91h-163z" />
    <glyph glyph-name="FL004Fh" unicode="O" horiz-adv-x="878" 
d="M117 301q-18 -70 -1.5 -130t59.5 -104t109 -69t148 -25q85 0 163.5 25t142.5 69t109.5 104t63.5 130t3 131t-57 106t-108.5 71t-151.5 26q-82 0 -161 -26.5t-144.5 -71.5t-111.5 -106t-63 -130zM265 301q10 42 39 80t70.5 67.5t91.5 46.5t101 17q54 0 95.5 -17t67.5 -46
t35.5 -67.5t-0.5 -80.5q-11 -45 -40.5 -82.5t-70.5 -64.5t-91 -42.5t-102 -15.5q-50 0 -91 16.5t-68 44t-37.5 65t0.5 79.5z" />
    <glyph glyph-name="FL0050h" unicode="P" horiz-adv-x="756" 
d="M212 609l-152 -609h163l72 287l64 -91h208q45 0 86 19.5t74 49.5t55.5 65.5t30.5 68.5q9 36 6 73.5t-22 68t-55.5 49.5t-93.5 19h-436zM346 492h273q16 0 26.5 -10.5t15.5 -25.5t6 -31t-2 -26q-3 -13 -12.5 -29.5t-23 -31t-31 -24.5t-35.5 -10h-264z" />
    <glyph glyph-name="FL0071h" unicode="Q" horiz-adv-x="878" 
d="M479 -170l37 150q70 11 135 39.5t117.5 70.5t90 95.5t52.5 115.5q17 69 1 130t-58.5 106t-108.5 71.5t-148 26.5q-86 0 -164.5 -26t-143 -71t-109.5 -106t-63 -131q-15 -61 -5 -114.5t41.5 -96t82.5 -71.5t117 -40l-15 -60zM573 210l-140 91l-48 -194q-72 20 -105.5 72
t-16.5 122q10 42 39 80.5t70 67.5t91.5 46t103.5 17q52 0 93 -17t67.5 -46.5t36.5 -67.5t0 -80q-18 -71 -76 -121t-140 -73z" />
    <glyph glyph-name="FL0061h" unicode="R" horiz-adv-x="760" 
d="M212 609l-29 -117h436q15 0 26 -9t17 -22t7.5 -27.5t-1.5 -24.5q-3 -13 -14 -29.5t-26 -31t-33.5 -24.5t-36.5 -10h-206l234 -314h195l-153 225q81 17 126.5 67t62.5 122q9 37 4.5 72t-24.5 62.5t-57 44t-92 16.5h-436z" />
    <glyph glyph-name="FL0053h" unicode="S" horiz-adv-x="786" 
d="M89 107l-27 -107h491q41 0 78 17t66.5 43t50.5 58t29 61q9 36 2 68.5t-28.5 57t-56.5 39.5t-82 15h-258q-9 0 -18.5 6.5t-16 16.5t-10 22t-0.5 23q3 12 10.5 25t18.5 24.5t24.5 18.5t27.5 7h459l27 107h-450q-47 0 -90.5 -14t-79 -38t-61 -57.5t-35.5 -72.5
q-8 -34 -1.5 -65.5t26.5 -56t53.5 -39t80.5 -14.5h250q35 0 50 -23.5t8 -51.5q-3 -12 -12.5 -24t-23 -22.5t-28.5 -17t-30 -6.5h-444z" />
    <glyph glyph-name="FL0054h" unicode="T" horiz-adv-x="744" 
d="M212 609h624l-27 -107h-230l-125 -502h-164l125 502h-230z" />
    <glyph glyph-name="FL0055h" unicode="U" horiz-adv-x="812" 
d="M752 0l152 609h-163l-123 -492h-282q-53 0 -63.5 18.5t-0.5 57.5l104 416h-164l-110 -441q-8 -33 -4.5 -63.5t22 -54t53.5 -37t89 -13.5h238l112 91l-23 -91h163z" />
    <glyph glyph-name="FL0056h" unicode="V" 
d="M517 156l372 453h175l-510 -609h-163l-209 609h175l150 -453h10z" />
    <glyph glyph-name="FL0057h" unicode="W" horiz-adv-x="1283" 
d="M1223 0h-163l23 91l-112 -91h-210q-81 0 -124.5 27t-51.5 72l-113 -99h-210q-54 0 -89 13.5t-53.5 37t-22 54t4.5 63.5l110 441h164l-104 -416q-3 -12 0 -25.5t11 -25t21.5 -18.5t31.5 -7h253l123 492h164l-104 -416q-9 -35 6 -55.5t57 -20.5h254l123 492h163z" />
    <glyph glyph-name="FL0058h" unicode="X" horiz-adv-x="785" 
d="M906 609l-342 -304l191 -305h-193l-122 194l-217 -194h-193l342 305l-189 304h192l120 -194l219 194h192z" />
    <glyph glyph-name="FL0059h" unicode="Y" horiz-adv-x="800" 
d="M727 609h165l-107 -429q-7 -28 -28 -59.5t-51.5 -58.5t-68.5 -44.5t-78 -17.5h-491l27 107h444q15 0 28.5 6.5t24 16.5t18 22t10.5 24l19 76h-314q-47 0 -80.5 14.5t-53.5 39t-26.5 56t1.5 65.5l46 182h161l-46 -182q-3 -14 0.5 -26.5t11 -21.5t17.5 -14.5t20 -5.5h289z
" />
    <glyph glyph-name="FL005Ah" unicode="Z" horiz-adv-x="744" 
d="M684 0h-624l27 107l511 395h-413l27 107h624l-27 -107l-511 -395h413z" />
    <glyph glyph-name="FL005Bh" unicode="[" horiz-adv-x="432" 
d="M372 0h-312l152 609h312l-27 -107h-149l-98 -395h149z" />
    <glyph glyph-name="FL005Ch" unicode="\" horiz-adv-x="784" 
d="M182 609l378 -609h194l-380 609h-192z" />
    <glyph glyph-name="FL005Dh" unicode="]" horiz-adv-x="432" 
d="M60 0h312l152 609h-312l-27 -107h149l-98 -395h-149z" />
    <glyph glyph-name="FL005Eh" unicode="^" 
d="M577 453l-373 -453h-175l509 609h164l209 -609h-175l-149 453h-10z" />
    <glyph glyph-name="FL005Fh" unicode="_" horiz-adv-x="535" 
d="M89 116h415l-29 -116h-415z" />
    <glyph glyph-name="FL0060h" unicode="`" horiz-adv-x="260" 
d="M358 515h-116l-60 94h150z" />
    <glyph glyph-name="a" unicode="a" 
d="M540 609l-510 -609h175l136 168h341l55 -168h175l-208 609h-164zM585 479h6l70 -203h-242z" />
    <glyph glyph-name="FL0062h" unicode="b" horiz-adv-x="786" 
d="M212 609h464q49 0 86 -12.5t60 -34.5t31.5 -53t-0.5 -67q-10 -35 -38.5 -69.5t-63.5 -54.5q23 -29 36.5 -59t4.5 -65q-9 -36 -31.5 -71t-57 -62.5t-79.5 -44t-100 -16.5h-464zM313 362l-61 -245h301q16 0 31.5 8t27.5 20t20.5 25.5t11.5 24.5q6 25 -8.5 48t-48.5 26h-210
zM346 492l-29 -113h300q35 2 58.5 20.5t29.5 42.5q5 21 -9.5 35.5t-48.5 14.5h-301z" />
    <glyph glyph-name="FL0063h" unicode="c" horiz-adv-x="794" 
d="M118 304q-13 -53 -5 -107t39 -98t85 -71.5t134 -27.5h363l27 107h-349q-35 0 -66 17t-52.5 45t-30.5 63.5t0 72.5t36.5 72.5t63 63t73 44.5t67.5 17h356l27 107h-360q-76 0 -143.5 -25.5t-121.5 -68t-91 -97.5t-52 -114z" />
    <glyph glyph-name="FL0064h" unicode="d" horiz-adv-x="841" 
d="M875 304q-13 -53 -48 -107t-87.5 -98t-120.5 -71.5t-147 -27.5h-412l152 609h382q92 0 153.5 -24t95 -65t41 -96.5t-8.5 -119.5zM589 502h-246l-98 -395h238q34 0 73.5 17t75 45t62.5 63.5t36 72.5q10 41 -1.5 77t-34 62.5t-51.5 42t-54 15.5z" />
    <glyph glyph-name="E" unicode="e" horiz-adv-x="710" 
d="M212 609l-152 -609h590l27 107h-427l40 160h373l26 108h-373l32 127h427l27 107h-590z" />
    <glyph glyph-name="FL0066h" unicode="f" horiz-adv-x="710" 
d="M212 609l-152 -609h163l67 268h373l26 106h-373l32 128h427l27 107h-590z" />
    <glyph glyph-name="g" unicode="g" horiz-adv-x="841" 
d="M118 304q-13 -53 -5 -107t39 -98t85 -71.5t134 -27.5h410l98 395h-158l-71 -288h-238q-35 0 -66 17t-52.5 45t-30.5 63.5t0 72.5q9 36 37.5 71t64.5 63t73.5 45.5t64.5 17.5h403l27 107h-356q-96 0 -174 -24t-136 -65t-95.5 -96.5t-53.5 -119.5z" />
    <glyph glyph-name="FL0048h" unicode="h" horiz-adv-x="812" 
d="M741 609h163l-152 -609h-163l67 267h-366l-67 -267h-163l152 609h163l-59 -234h366z" />
    <glyph glyph-name="i" unicode="i" horiz-adv-x="295" 
d="M218 609l-152 -609h163l152 609h-163z" />
    <glyph glyph-name="FL006Ah" unicode="j" horiz-adv-x="653" 
d="M59 117h316q21 0 38.5 7t30.5 18.5t21 25t11 25.5l104 416h165l-110 -441q-8 -33 -27 -63.5t-49.5 -54t-72 -37t-95.5 -13.5h-254z" />
    <glyph glyph-name="FL006Bh" unicode="k" horiz-adv-x="743" 
d="M375 609l-72 -289l369 289h193l-380 -302l228 -307h-193l-225 289l-72 -289h-163l152 609h163z" />
    <glyph glyph-name="l" unicode="l" horiz-adv-x="656" 
d="M212 609l-152 -609h536l27 107h-373l125 502h-163z" />
    <glyph glyph-name="FL006Dh" unicode="m" horiz-adv-x="1283" 
d="M211 609h163l-23 -91l112 91h210q79 0 123 -27t52 -72l114 99h210q54 0 89 -13.5t53.5 -37t22 -54t-4.5 -63.5l-110 -441h-165l104 416q3 12 0 25.5t-11 25t-21.5 18.5t-31.5 7h-253l-123 -492h-163l104 416q8 35 -7 55.5t-57 20.5h-253l-123 -492h-163z" />
    <glyph glyph-name="FL006Eh" unicode="n" horiz-adv-x="812" 
d="M212 609l-152 -609h163l123 492h282q26 0 41 -4.5t21.5 -14t6 -24t-4.5 -33.5l-104 -416h164l110 441q8 33 4.5 63.5t-22 54t-53 37t-88.5 13.5h-239l-112 -91l23 91h-163z" />
    <glyph glyph-name="o" unicode="o" horiz-adv-x="878" 
d="M117 301q-18 -70 -1.5 -130t59.5 -104t109 -69t148 -25q85 0 163.5 25t142.5 69t109.5 104t63.5 130t3 131t-57 106t-108.5 71t-151.5 26q-82 0 -161 -26.5t-144.5 -71.5t-111.5 -106t-63 -130zM265 301q10 42 39 80t70.5 67.5t91.5 46.5t101 17q54 0 95.5 -17t67.5 -46
t35.5 -67.5t-0.5 -80.5q-11 -45 -40.5 -82.5t-70.5 -64.5t-91 -42.5t-102 -15.5q-50 0 -91 16.5t-68 44t-37.5 65t0.5 79.5z" />
    <glyph glyph-name="p" unicode="p" horiz-adv-x="756" 
d="M212 609l-152 -609h163l72 287l64 -91h208q45 0 86 19.5t74 49.5t55.5 65.5t30.5 68.5q9 36 6 73.5t-22 68t-55.5 49.5t-93.5 19h-436zM346 492h273q16 0 26.5 -10.5t15.5 -25.5t6 -31t-2 -26q-3 -13 -12.5 -29.5t-23 -31t-31 -24.5t-35.5 -10h-264z" />
    <glyph glyph-name="FL0051h" unicode="q" horiz-adv-x="878" 
d="M117 301q17 69 63 130t111.5 106t144.5 71.5t161 26.5q85 0 151.5 -26t108.5 -71t57 -106t-3 -131q-23 -91 -89 -162.5t-160 -114.5l25 -46l-117 -148l-76 147q-11 -2 -27 -3t-35 -1q-82 0 -148 25t-109 69t-59.5 104t1.5 130zM405 151l116 150l88 -172q57 26 99.5 70.5
t56.5 101.5q10 42 0.5 80.5t-35.5 67.5t-67.5 46t-95.5 17q-51 0 -101 -17t-91.5 -46.5t-70.5 -67.5t-39 -80q-10 -39 -1.5 -74t31 -62.5t58 -45.5t79.5 -22z" />
    <glyph glyph-name="R" unicode="r" horiz-adv-x="770" 
d="M212 609l-152 -609h163l123 492h281q18 0 27.5 -10t13 -24t2.5 -29.5t-4 -25.5q-2 -8 -10.5 -22t-20.5 -27.5t-25.5 -23.5t-25.5 -10h-239l245 -320h194l-164 220q37 8 70.5 27t60.5 45t46 57t27 63q9 36 5.5 71.5t-22.5 63.5t-56 45t-95 17h-444z" />
    <glyph glyph-name="S" unicode="s" horiz-adv-x="786" 
d="M89 107l-27 -107h491q41 0 78 17t66.5 43t50.5 58t29 61q9 36 2 68.5t-28.5 57t-56.5 39.5t-82 15h-258q-9 0 -18.5 6.5t-16 16.5t-10 22t-0.5 23q3 12 10.5 25t18.5 24.5t24.5 18.5t27.5 7h459l27 107h-450q-47 0 -90.5 -14t-79 -38t-61 -57.5t-35.5 -72.5
q-8 -34 -1.5 -65.5t26.5 -56t53.5 -39t80.5 -14.5h250q35 0 50 -23.5t8 -51.5q-3 -12 -12.5 -24t-23 -22.5t-28.5 -17t-30 -6.5h-444z" />
    <glyph glyph-name="FL0074h" unicode="t" horiz-adv-x="744" 
d="M212 609h624l-27 -107h-230l-125 -502h-164l125 502h-230z" />
    <glyph glyph-name="FL0075h" unicode="u" horiz-adv-x="812" 
d="M752 0l152 609h-163l-123 -492h-282q-53 0 -63.5 18.5t-0.5 57.5l104 416h-164l-110 -441q-8 -33 -4.5 -63.5t22 -54t53.5 -37t89 -13.5h238l112 91l-23 -91h163z" />
    <glyph glyph-name="FL0076h" unicode="v" 
d="M515 156l374 453h175l-510 -609h-163l-209 609h175l149 -453h9z" />
    <glyph glyph-name="FL0077h" unicode="w" horiz-adv-x="1283" 
d="M1223 0h-163l23 91l-112 -91h-210q-81 0 -124.5 27t-51.5 72l-113 -99h-210q-54 0 -89 13.5t-53.5 37t-22 54t4.5 63.5l110 441h164l-104 -416q-3 -12 0 -25.5t11 -25t21.5 -18.5t31.5 -7h253l123 492h164l-104 -416q-9 -35 6 -55.5t57 -20.5h254l123 492h163z" />
    <glyph glyph-name="FL0078h" unicode="x" horiz-adv-x="785" 
d="M906 609l-342 -304l191 -305h-193l-122 194l-217 -194h-193l342 305l-189 304h192l120 -194l219 194h192z" />
    <glyph glyph-name="FL0079h" unicode="y" horiz-adv-x="782" 
d="M382 288l-200 321h192l120 -194l218 194h192l-359 -321l-72 -288h-163z" />
    <glyph glyph-name="FL007Ah" unicode="z" horiz-adv-x="744" 
d="M684 0h-624l27 107l511 395h-413l27 107h624l-27 -107l-511 -395h413z" />
    <glyph glyph-name="FL007Bh" unicode="{" horiz-adv-x="432" 
d="M358 -55h-312l179 718h312l-26 -107h-149l-126 -504h149z" />
    <glyph glyph-name="FL007Ch" unicode="|" horiz-adv-x="295" 
d="M243 711h163l-202 -813h-163z" />
    <glyph glyph-name="FL007Dh" unicode="}" horiz-adv-x="432" 
d="M77 -55h312l179 718h-312l-26 -107h149l-126 -504h-149z" />
    <glyph glyph-name="FL007Eh" unicode="~" horiz-adv-x="515" 
d="M266 609h142l31 -51l48 51h150l-108 -94h-142l-32 50l-47 -50h-150z" />
    <glyph glyph-name="FL007Fh" horiz-adv-x="218" 
 />
    <glyph glyph-name="FL20ACh" horiz-adv-x="931" 
d="M152 290h130l10 38h-130l29 116h161q55 75 141.5 120t200.5 45h329l-27 -107h-325q-29 0 -65.5 -16t-70.5 -42h219l-29 -116h-287q-2 -5 -5 -14l-6 -24h288l-29 -116h-228q22 -30 54 -48.5t68 -18.5h318l-27 -107h-332q-56 0 -99 13.5t-74.5 37.5t-51.5 55.5t-29 67.5
h-162z" />
    <glyph glyph-name="FL20ACh" unicode="&#x20ac;" horiz-adv-x="931" 
d="M152 290h130l10 38h-130l29 116h161q55 75 141.5 120t200.5 45h329l-27 -107h-325q-29 0 -65.5 -16t-70.5 -42h219l-29 -116h-287q-2 -5 -5 -14l-6 -24h288l-29 -116h-228q22 -30 54 -48.5t68 -18.5h318l-27 -107h-332q-56 0 -99 13.5t-74.5 37.5t-51.5 55.5t-29 67.5
h-162z" />
    <glyph glyph-name="FL017Dh" horiz-adv-x="744" 
d="M684 0h-624l27 107l511 395h-413l27 107h624l-27 -107l-511 -395h413zM377 771h150l25 -59l54 59h150l-107 -94h-211z" />
    <glyph glyph-name="FL017Dh" unicode="&#x17d;" horiz-adv-x="744" 
d="M684 0h-624l27 107l511 395h-413l27 107h624l-27 -107l-511 -395h413zM377 771h150l25 -59l54 59h150l-107 -94h-211z" />
    <glyph glyph-name="FL017Eh" horiz-adv-x="744" 
d="M684 0h-624l27 107l511 395h-413l27 107h624l-27 -107l-511 -395h413zM377 771h150l25 -59l54 59h150l-107 -94h-211z" />
    <glyph glyph-name="FL017Eh" unicode="&#x17e;" horiz-adv-x="744" 
d="M684 0h-624l27 107l511 395h-413l27 107h624l-27 -107l-511 -395h413zM377 771h150l25 -59l54 59h150l-107 -94h-211z" />
    <glyph glyph-name="FL00A1h" unicode="&#xa1;" horiz-adv-x="295" 
d="M354 502l27 107h-163l-27 -107h163zM229 0l104 419h-163l-104 -419h163z" />
    <glyph glyph-name="FL00A2h" unicode="&#xa2;" horiz-adv-x="806" 
d="M130 304q15 59 52 114t91 97.5t121.5 68t143.5 25.5l25 102h156l-25 -102h204l-27 -107h-204l-98 -395h204l-27 -107h-204l-25 -102h-156l25 102h-3q-80 0 -134 27.5t-85 71.5t-39 98t5 107zM511 502q-30 -1 -67.5 -18t-72 -44.5t-61 -62.5t-35.5 -72q-9 -35 -1 -69.5
t28 -62t49 -45.5t62 -21z" />
    <glyph glyph-name="FL00A3h" unicode="&#xa3;" horiz-adv-x="700" 
d="M154 379h128q-6 28 3 63q9 36 32.5 67t58 53t78 34.5t92.5 12.5h39l-29 -117h-39q-34 0 -56.5 -14.5t-27.5 -35.5q-6 -24 8.5 -42.5t47.5 -20.5h144l-27 -110h-148q-34 -5 -57.5 -28t-28.5 -46q-3 -11 -1.5 -24.5t7.5 -25.5t17 -20.5t28 -8.5h246l-29 -116h-580l29 116
h131q-5 18 -4 38t6 40q10 41 43 74h-138z" />
    <glyph glyph-name="FL00A4h" unicode="&#xa4;" horiz-adv-x="785" 
d="M234 306q-15 -64 12 -113l-216 -193h193l130 115q14 -5 30.5 -6.5t34.5 -1.5q26 0 72 8l72 -115h193l-121 194q50 48 66 112q8 31 5 59.5t-14 51.5l215 192h-192l-126 -111q-24 10 -70 10q-42 0 -75 -10l-68 111h-192l119 -191q-51 -50 -68 -112zM394 304q7 26 32 45.5
t57 19.5t48 -19.5t9 -45.5q-7 -27 -31.5 -44t-56.5 -17q-29 0 -46.5 18t-11.5 43z" />
    <glyph glyph-name="FL00A5h" unicode="&#xa5;" horiz-adv-x="782" 
d="M229 178h125l15 58h-125l29 116h68l-159 257h192l120 -194l218 194h192l-288 -257h72l-29 -116h-127l-15 -58h127l-29 -116h-127l-15 -62h-163l15 62h-125z" />
    <glyph glyph-name="FL00A6h" unicode="&#xa6;" horiz-adv-x="295" 
d="M134 271l-68 -271h163l68 271h-163zM218 609l-64 -255h163l64 255h-163z" />
    <glyph glyph-name="FL00A7h" unicode="&#xa7;" horiz-adv-x="785" 
d="M234 306q-15 -64 12 -113l-216 -193h193l130 115q14 -5 30.5 -6.5t34.5 -1.5q22 1 47.5 4t53.5 12t57 25.5t58 45.5q50 48 66 112q8 31 5 59.5t-14 51.5l215 192h-192l-126 -111q-24 10 -70 10q-21 -2 -48 -6t-56 -13.5t-58 -26.5t-54 -44q-51 -50 -68 -112zM394 304
q7 26 32 45.5t57 19.5t48 -19.5t9 -45.5q-7 -27 -31.5 -44t-56.5 -17q-29 0 -46.5 18t-11.5 43z" />
    <glyph glyph-name="FL00A8h" unicode="&#xa8;" horiz-adv-x="499" 
d="M591 609l-24 -94h-150l24 94h150zM188 515l24 94h150l-24 -94h-150z" />
    <glyph glyph-name="FL00A9h" unicode="&#xa9;" horiz-adv-x="338" 
d="M337 671q36 0 55 -13q33 -16 38 -41q13 -29 7 -52t-33 -52q-12 -14 -21 -20t-24 -13l-12 -6q-31 -11 -46.5 -12.5l-15.5 -1.5q-9 0 -63 14q-12 11 -19 18t-17 21q-10 22 -3 52q15 59 88 93q27 13 66 13zM333 655q-61 0 -104 -45q-20 -22 -26 -45q-6 -21 5 -41
q6 -18 28 -34l10 -1q15 -5 26 -7t18 -2q11 0 24.5 1.5t29.5 8.5q25 11 46 33t26 42l1 6q4 15 -1 30t-16.5 27t-28 19.5t-35.5 7.5h-3zM346 550l18 -5q-20 -41 -68 -41q-68 0 -53 61q15 60 83 60q43 0 49 -32l-22 -4q-8 21 -31 21q-46 0 -56 -45q-11 -41 34 -41q31 0 46 26z
" />
    <glyph glyph-name="FL00AAh" unicode="&#xaa;" horiz-adv-x="509" 
d="M338 515l62 76l23 -76h-85zM376 671l-254 -304h100l64 81h157l27 -81h101l-106 304h-89z" />
    <glyph glyph-name="FL00ABh" unicode="&#xab;" horiz-adv-x="617" 
d="M405 389l-98 -68l66 -70l-120 -82l-143 152l217 150zM683 390l-99 -68l66 -70l-120 -82l-143 152l218 150z" />
    <glyph glyph-name="FL00ACh" unicode="&#xac;" horiz-adv-x="493" 
d="M154 379h373l-53 -214h-140l25 98h-233z" />
    <glyph glyph-name="FL00ADh" unicode="&#xad;" horiz-adv-x="391" 
d="M154 379l-28 -116h271l28 116h-271z" />
    <glyph glyph-name="registered" unicode="&#xae;" horiz-adv-x="338" 
d="M337 671q37 0 55 -15q33 -16 38 -39q13 -29 7 -52t-33 -52q-17 -24 -57 -39q-27 -11 -44.5 -12.5l-17.5 -1.5q-32 0 -63 14q-10 8 -19 17.5t-17 21.5q-10 22 -3 52q5 17 11 27t17 23l1 2q13 13 27 22.5t32 16.5q31 15 66 15zM333 655q-61 0 -104 -45q-20 -22 -26 -45
l0.5 -11t3.5 -31q5 -9 29 -33l9 -3q23 -5 34 -6l11 -1q14 0 26 1.5t28 8.5q15 7 26 15.5t19 17.5q13 17 20 29.5l7 12.5l1 6q4 15 -1 30t-16.5 27t-28 19.5t-35.5 7.5h-3zM240 507l29 114h46q27 0 35 -5q4 -3 7 -4t6 -4q5 -11 2 -18q-7 -29 -48 -31q6 -3 9 -5.5t5 -5.5
t4.5 -7.5t7.5 -11.5l10 -22h-29l-5 19q-6 15 -16 25q-4 4 -16 4h-13l-12 -48h-22zM278 571h25q20 0 28.5 3.5t11.5 14.5t-10 15q-2 2 -22 2h-24z" />
    <glyph glyph-name="FL00AFh" unicode="&#xaf;" horiz-adv-x="535" 
d="M212 609h415l-29 -116h-415z" />
    <glyph glyph-name="FL00B0h" unicode="&#xb0;" horiz-adv-x="270" 
d="M212 610l-23 -94h150l23 94h-150zM301 575l-6 -24h-45l6 24h45z" />
    <glyph glyph-name="FL00B1h" unicode="&#xb1;" horiz-adv-x="493" 
d="M435 476l-25 -97h117l-28 -116h-117l-25 -98h-140l25 98h-116l28 116h116l25 97h140zM89 116h373l-29 -116h-373z" />
    <glyph glyph-name="FL00B2h" unicode="&#xb2;" horiz-adv-x="458" 
d="M502 430l-15 -63h-335l22 91q4 18 15.5 35t28.5 30t38.5 20.5t47.5 7.5h125q6 0 16 10.5t12 16.5q2 8 -1 19t-14 11h-226l15 63h223q48 0 73 -26.5t15 -66.5q-4 -17 -15 -33.5t-27.5 -29t-37.5 -20t-45 -7.5h-113q-14 0 -24.5 -9.5t-13.5 -21.5l-7 -27h243z" />
    <glyph glyph-name="FL00B3h" unicode="&#xb3;" horiz-adv-x="443" 
d="M255 496l-36 64h209q29 5 34 25q4 19 -22 19h-229l16 67h229q51 0 75.5 -24.5t15.5 -61.5q-5 -17 -16.5 -32.5t-26.5 -28.5q10 -14 14 -27.5t-1 -30.5q-5 -19 -16.5 -36.5t-29 -31.5t-40.5 -22.5t-50 -8.5h-229l16 67h229q12 0 22.5 12t12.5 20q6 26 -22 30h-155z" />
    <glyph glyph-name="FL00B4h" unicode="&#xb4;" horiz-adv-x="260" 
d="M157 515h116l108 94h-150z" />
    <glyph glyph-name="FL00B5h" unicode="&#xb5;" horiz-adv-x="800" 
d="M376 609h-165l-107 -429q-7 -28 -2 -59.5t22 -58.5t46 -44.5t70 -17.5h491l27 107h-444q-15 0 -27 6.5t-20.5 17t-12 22.5t-0.5 24q3 14 12 27.5t21.5 24t28.5 17t34 6.5h251q46 0 87 14.5t73 39t54 56t30 65.5l46 182h-161l-46 -182q-3 -14 -12.5 -26.5t-21.5 -21.5
t-24.5 -14.5t-21.5 -5.5h-243q-8 0 -20 -1.5t-29 -3.5z" />
    <glyph glyph-name="FL2122h" unicode="&#xb6;" horiz-adv-x="1160" 
d="M1200 281l-3 11l-110 49l80 17h9l-6 12l-169 29l71 35h-204l24 41l-203 -23l3 36l-15 4l-151 -52l-52 35l-98 -68q-8 -3 -19 -3q-30 0 -69 24l-35 -83l-95 8l-2 -26l40 -52l-98 -4l116 -53l-93 -29l177 -33l-69 -32l208 -6l-33 -40l198 26l17 -22l-14 -23l168 59l61 -36
l94 71l92 -25l28 83l98 -12q1 5 2 5.5l1 0.5q4 16 -47 70zM1064 324l-34 -77l-22 2l24 79zM1025 215l-25 -16l-13 12l18 11zM968 221q-33 0 -66 51l-13 -50l-24 -2l26 104l59 -69l22 73l22 -4zM842 222l-16 3q-8 24 -27 24q-15 0 -39 -24h-30q27 52 83 102q1 4 20 4
q23 0 28 -33zM744 328l-33 -101l-34 -7l40 104zM650 217q-32 0 -68 50l-13 -49l-24 -3l26 104l62 -65l24 70l19 -5zM548 290q-28 -73 -68 -73l-12 -1.5t-11 -0.5q-36 0 -43 16q17 68 73 93h16q44 0 45 -34zM428 326l-9 -25q-2 2 -4 2.5l-2 0.5q0 1 -8 1q-14 0 -39 -15
q-23 -20 -29 -43q-6 -20 22 -20q8 0 14 0.5t13 1.5l-4 -17q-13 -2 -17 -3.5t-11 -1.5q-38 0 -40 47q-3 0 -1 6l2 7q12 48 113 59zM315 324l-33 -101l-30 -8l39 106zM830 272l-8 35l-34 -35h42zM517 274q1 1 1 5q0 2 2 8q-9 12 -23 12q-23 0 -46 -32l-2 -7q-6 -25 14 -25
q4 0 13 2t25 7q9 8 11.5 14t4.5 16z" />
    <glyph glyph-name="FL00B7h" unicode="&#xb7;" horiz-adv-x="283" 
d="M154 379l-26 -107h163l26 107h-163z" />
    <glyph glyph-name="FL00B8h" unicode="&#xb8;" horiz-adv-x="226" 
d="M59 0h107l-39 -155h-190l21 82h83z" />
    <glyph glyph-name="FL00B9h" unicode="&#xb9;" horiz-adv-x="239" 
d="M177 367h94l75 304h-90l-75 -67h55z" />
    <glyph glyph-name="FL00BAh" unicode="&#xba;" horiz-adv-x="481" 
d="M303 503q5 21 27.5 37t48.5 16q28 0 40.5 -16t7.5 -37q-5 -23 -26.5 -37t-47.5 -14t-40.5 15t-9.5 36zM168 504q-9 -35 -1 -65t29.5 -52t55 -34.5t74.5 -12.5q42 0 81 12.5t71.5 34.5t55 52t31.5 65t1 65.5t-29 53t-54 35.5t-75 13q-41 0 -80.5 -13.5t-72 -36t-55.5 -53
t-32 -64.5z" />
    <glyph glyph-name="FL00BBh" unicode="&#xbb;" horiz-adv-x="617" 
d="M405 389l65 -68l-100 -70l78 -82l219 152l-143 150zM128 390l65 -68l-100 -70l77 -82l220 152l-142 150z" />
    <glyph glyph-name="FL00BCh" unicode="&#xbc;" horiz-adv-x="866" 
d="M269 305h-93l59 237h-56l76 67h90zM819 609l-641 -609h-148l638 609h151zM790 304h92l-76 -304h-92l31 126h-253l45 178h92l-28 -111h161z" />
    <glyph glyph-name="FL00BDh" unicode="&#xbd;" horiz-adv-x="856" 
d="M269 305h-93l59 237h-56l76 67h90zM819 609l-641 -609h-148l638 609h151zM808 63l-16 -63h-335l23 91q4 18 15.5 35t28.5 30t38.5 20.5t47.5 7.5h125q6 0 16 10.5t12 16.5q2 8 -1.5 19t-13.5 11h-227l16 63h223q48 0 73.5 -26.5t15.5 -66.5q-5 -17 -16.5 -33.5t-28 -29
t-37.5 -20t-45 -7.5h-112q-15 0 -25 -9.5t-13 -21.5l-6 -27h242z" />
    <glyph glyph-name="FL00BEh" unicode="&#xbe;" horiz-adv-x="980" 
d="M938 609l-642 -609h-147l638 609h151zM904 304h92l-76 -304h-92l31 126h-253l45 178h92l-28 -111h161zM239 434l-36 64h209q29 5 34 25q6 19 -22 19h-229l17 67h229q51 0 75.5 -24.5t14.5 -61.5q-4 -17 -16 -32.5t-27 -28.5q10 -14 14 -27.5t0 -30.5q-5 -19 -16.5 -36.5
t-29.5 -31.5t-41 -22.5t-50 -8.5h-229l17 67h229q12 0 22.5 12t12.5 20q6 25 -23 30h-155z" />
    <glyph glyph-name="FL00BFh" unicode="&#xbf;" horiz-adv-x="772" 
d="M750 430l-163 1q-2 0 -6.5 -11.5t-15 -25.5t-28.5 -25.5t-46 -11.5h-158q-47 0 -88 -14.5t-73 -39t-54 -56t-31 -65.5q-10 -39 -1.5 -72.5t32 -57.5t60.5 -38t84 -14h450l27 107h-459q-14 0 -23.5 8t-14.5 19.5t-6.5 24.5t0.5 23q2 8 11 19.5t21 22.5t24.5 18.5t21.5 7.5
h181q61 0 105 15t74.5 39.5t48.5 57t27 68.5zM768 502l27 107h-163l-27 -107h163z" />
    <glyph glyph-name="FL00C0h" unicode="&#xc0;" 
d="M720 677h-117l-61 94h150zM591 479h-5l-157 -194h224zM30 0l510 609h164l208 -609h-175l-57 169h-206l-59 94l-210 -263h-175z" />
    <glyph glyph-name="FL00C1h" unicode="&#xc1;" 
d="M675 677h-116l73 94h150zM591 479h-5l-157 -194h224zM30 0l510 609h164l208 -609h-175l-57 169h-206l-59 94l-210 -263h-175z" />
    <glyph glyph-name="FL00C2h" unicode="&#xc2;" 
d="M827 677h-150l-25 59l-55 -59h-150l107 94h212zM591 479h-5l-157 -194h224zM30 0l510 609h164l208 -609h-175l-57 169h-206l-59 94l-210 -263h-175z" />
    <glyph glyph-name="FL00C3h" unicode="&#xc3;" 
d="M516 771h142l32 -51l47 51h150l-107 -94h-142l-33 50l-46 -50h-150zM591 479h-5l-157 -194h224zM30 0l510 609h164l208 -609h-175l-57 169h-206l-59 94l-210 -263h-175z" />
    <glyph glyph-name="FL00C4h" unicode="&#xc4;" 
d="M850 771l-23 -94h-150l23 94h150zM447 677l23 94h150l-23 -94h-150zM591 479h-5l-157 -194h224zM30 0l510 609h164l208 -609h-175l-57 169h-206l-59 94l-210 -263h-175z" />
    <glyph glyph-name="FL00C5h" unicode="&#xc5;" 
d="M540 609l-510 -609h175l210 263l59 -94h206l57 -169h175l-208 609h-164zM586 479h5l62 -194h-224zM584 771l-23 -94h150l23 94h-150zM675 736l-6 -24h-46l6 24h46z" />
    <glyph glyph-name="FL00C6h" unicode="&#xc6;" horiz-adv-x="1387" 
d="M30 0l510 609h164l107 -313l20 83h590l-28 -116h-571l53 -156h479l-27 -107h-590l-57 169h-206l-59 94l-210 -263h-175zM889 609h590l-27 -107h-590zM591 479h-5l-157 -194h224z" />
    <glyph glyph-name="FL00C7h" unicode="&#xc7;" horiz-adv-x="794" 
d="M118 304q15 59 52 114t91 97.5t121.5 68t143.5 25.5h360l-27 -107h-356q-30 0 -67.5 -17t-73 -44.5t-63 -63t-36.5 -72.5t0 -72.5t30.5 -63.5t52.5 -45t66 -17h349l-27 -107h-205l-39 -155h-189l21 82h82l18 73h-51q-80 0 -134 27.5t-85 71.5t-39 98t5 107z" />
    <glyph glyph-name="FL00C8h" unicode="&#xc8;" horiz-adv-x="710" 
d="M599 677h-117l-61 94h150zM677 107l-27 -107h-590l27 107h590zM212 609h590l-27 -107h-590zM127 267l26 108h590l-26 -108h-590z" />
    <glyph glyph-name="FL00C9h" unicode="&#xc9;" horiz-adv-x="710" 
d="M212 609h590l-27 -107h-590zM60 0l27 107h590l-27 -107h-590zM566 677h-116l73 94h150zM127 267l26 108h590l-26 -108h-590z" />
    <glyph glyph-name="FL00CAh" unicode="&#xca;" horiz-adv-x="710" 
d="M212 609h590l-27 -107h-590zM60 0l27 107h590l-27 -107h-590zM715 677h-150l-25 59l-54 -59h-150l107 94h211zM127 267l26 108h590l-26 -108h-590z" />
    <glyph glyph-name="FL00CBh" unicode="&#xcb;" horiz-adv-x="710" 
d="M212 609h590l-27 -107h-590zM60 0l27 107h590l-27 -107h-590zM738 771l-23 -94h-150l23 94h150zM336 677l23 94h150l-23 -94h-150zM127 267l26 108h590l-26 -108h-590z" />
    <glyph glyph-name="FL00CCh" unicode="&#xcc;" horiz-adv-x="697" 
d="M59 0h577l27 107h-208l98 395h208l27 107h-577l-27 -107h206l-98 -395h-206zM480 677h116l-27 94h-150z" />
    <glyph glyph-name="FL00CDh" unicode="&#xcd;" horiz-adv-x="697" 
d="M637 0h-577l27 107h208l98 395h-208l27 107h577l-27 -107h-206l-98 -395h206zM554 677h-116l73 94h150z" />
    <glyph glyph-name="FL00CEh" unicode="&#xce;" horiz-adv-x="697" 
d="M637 0h-577l27 107h208l98 395h-208l27 107h577l-27 -107h-206l-98 -395h206zM707 677h-150l-25 59l-55 -59h-150l107 94h212z" />
    <glyph glyph-name="FL00CFh" unicode="&#xcf;" horiz-adv-x="697" 
d="M637 0h-577l27 107h208l98 395h-208l27 107h577l-27 -107h-206l-98 -395h206zM730 771l-23 -94h-150l23 94h150zM327 677l23 94h150l-23 -94h-150z" />
    <glyph glyph-name="FL00D0h" unicode="&#xd0;" horiz-adv-x="976" 
d="M154 379h134l58 230h382q83 0 143.5 -24t96.5 -65t47 -96.5t-5 -119.5q-13 -53 -48.5 -107t-88 -98t-120.5 -71.5t-147 -27.5h-412l66 263h-134zM478 502l-31 -123h150l-28 -116h-150l-39 -156h237q35 0 74.5 17t75 45t62 63.5t35.5 72.5q9 36 -2.5 71t-34 63t-50.5 45.5
t-53 17.5h-246z" />
    <glyph glyph-name="FL00D1h" unicode="&#xd1;" horiz-adv-x="812" 
d="M60 0l152 609h163l-23 -91l112 91h239q54 0 88.5 -13.5t53 -37t22 -54t-4.5 -63.5l-110 -441h-164l104 416q4 19 4.5 33.5t-6 24t-21.5 14t-41 4.5h-282l-123 -492h-163zM457 771h142l32 -51l47 51h150l-107 -94h-142l-33 50l-46 -50h-150z" />
    <glyph glyph-name="FL00D2h" unicode="&#xd2;" horiz-adv-x="878" 
d="M265 301q-11 -42 -0.5 -79.5t37.5 -65t68 -44t91 -16.5q52 0 102 15.5t91 42.5t70.5 64.5t40.5 82.5q10 42 0.5 80.5t-35.5 67.5t-67.5 46t-95.5 17q-51 0 -101 -17t-91.5 -46.5t-70.5 -67.5t-39 -80zM117 301q17 69 63 130t111.5 106t144.5 71.5t161 26.5
q85 0 151.5 -26t108.5 -71t57 -106t-3 -131t-63.5 -130t-109.5 -104t-142.5 -69t-163.5 -25q-82 0 -148 25t-109 69t-59.5 104t1.5 130zM683 677h-117l-61 94h150z" />
    <glyph glyph-name="FL00D3h" unicode="&#xd3;" horiz-adv-x="878" 
d="M265 301q-11 -42 -0.5 -79.5t37.5 -65t68 -44t91 -16.5q52 0 102 15.5t91 42.5t70.5 64.5t40.5 82.5q10 42 0.5 80.5t-35.5 67.5t-67.5 46t-95.5 17q-51 0 -101 -17t-91.5 -46.5t-70.5 -67.5t-39 -80zM117 301q17 69 63 130t111.5 106t144.5 71.5t161 26.5
q85 0 151.5 -26t108.5 -71t57 -106t-3 -131t-63.5 -130t-109.5 -104t-142.5 -69t-163.5 -25q-82 0 -148 25t-109 69t-59.5 104t1.5 130zM650 677h-116l73 94h150z" />
    <glyph glyph-name="FL00D4h" unicode="&#xd4;" horiz-adv-x="878" 
d="M265 301q-11 -42 -0.5 -79.5t37.5 -65t68 -44t91 -16.5q52 0 102 15.5t91 42.5t70.5 64.5t40.5 82.5q10 42 0.5 80.5t-35.5 67.5t-67.5 46t-95.5 17q-51 0 -101 -17t-91.5 -46.5t-70.5 -67.5t-39 -80zM117 301q17 69 63 130t111.5 106t144.5 71.5t161 26.5
q85 0 151.5 -26t108.5 -71t57 -106t-3 -131t-63.5 -130t-109.5 -104t-142.5 -69t-163.5 -25q-82 0 -148 25t-109 69t-59.5 104t1.5 130zM798 677h-150l-25 59l-54 -59h-150l107 94h211z" />
    <glyph glyph-name="FL00D5h" unicode="&#xd5;" horiz-adv-x="878" 
d="M117 301q17 69 63 130t111.5 106t144.5 71.5t161 26.5q85 0 151.5 -26t108.5 -71t57 -106t-3 -131t-63.5 -130t-109.5 -104t-142.5 -69t-163.5 -25q-82 0 -148 25t-109 69t-59.5 104t1.5 130zM265 301q-11 -42 -0.5 -79.5t37.5 -65t68 -44t91 -16.5q52 0 102 15.5
t91 42.5t70.5 64.5t40.5 82.5q10 42 0.5 80.5t-35.5 67.5t-67.5 46t-95.5 17q-51 0 -101 -17t-91.5 -46.5t-70.5 -67.5t-39 -80zM487 771h142l32 -51l47 51h150l-107 -94h-142l-33 50l-46 -50h-150z" />
    <glyph glyph-name="FL00D6h" unicode="&#xd6;" horiz-adv-x="878" 
d="M265 301q-11 -42 -0.5 -79.5t37.5 -65t68 -44t91 -16.5q52 0 102 15.5t91 42.5t70.5 64.5t40.5 82.5q10 42 0.5 80.5t-35.5 67.5t-67.5 46t-95.5 17q-51 0 -101 -17t-91.5 -46.5t-70.5 -67.5t-39 -80zM117 301q17 69 63 130t111.5 106t144.5 71.5t161 26.5
q85 0 151.5 -26t108.5 -71t57 -106t-3 -131t-63.5 -130t-109.5 -104t-142.5 -69t-163.5 -25q-82 0 -148 25t-109 69t-59.5 104t1.5 130zM822 771l-23 -94h-150l23 94h150zM420 677l23 94h150l-23 -94h-150z" />
    <glyph glyph-name="FL00D7h" unicode="&#xd7;" horiz-adv-x="424" 
d="M489 389l-98 -68l66 -70l-120 -82l-65 70l-102 -70l-77 82l101 70l-66 68l119 82l65 -68l99 68z" />
    <glyph glyph-name="FL00D8h" unicode="&#xd8;" horiz-adv-x="878" 
d="M943 609l-84 -74q43 -45 56 -105t-4 -129q-18 -70 -63.5 -130t-109.5 -104t-142.5 -69t-163.5 -25q-48 0 -89 8t-83 19h-193l93 83q-35 43 -47 98.5t4 119.5q17 69 63 130t111.5 106t144.5 71.5t161 26.5q43 0 85.5 -6.5t75.5 -19.5h185zM765 301q9 36 3 69.5t-25 60.5
l-362 -323q36 -12 80 -12q52 0 102 15.5t91 42.5t70.5 64.5t40.5 82.5zM265 301q-16 -63 14 -113l355 316q-17 4 -33.5 6t-33.5 2q-51 0 -101 -17t-91.5 -46.5t-70.5 -67.5t-39 -80z" />
    <glyph glyph-name="FL00D9h" unicode="&#xd9;" horiz-adv-x="812" 
d="M752 0h-163l23 91l-112 -91h-238q-54 0 -89 13.5t-53.5 37t-22 54t4.5 63.5l110 441h164l-104 -416q-10 -39 0.5 -57.5t63.5 -18.5h282l123 492h163zM649 677h-116l-61 94h150z" />
    <glyph glyph-name="FL00DAh" unicode="&#xda;" horiz-adv-x="812" 
d="M752 0h-163l23 91l-112 -91h-238q-54 0 -89 13.5t-53.5 37t-22 54t4.5 63.5l110 441h164l-104 -416q-10 -39 0.5 -57.5t63.5 -18.5h282l123 492h163zM617 677h-117l74 94h150z" />
    <glyph glyph-name="FL00DBh" unicode="&#xdb;" horiz-adv-x="812" 
d="M752 0h-163l23 91l-112 -91h-238q-54 0 -89 13.5t-53.5 37t-22 54t4.5 63.5l110 441h164l-104 -416q-10 -39 0.5 -57.5t63.5 -18.5h282l123 492h163zM764 677h-150l-24 59l-55 -59h-150l107 94h211z" />
    <glyph glyph-name="FL00DCh" unicode="&#xdc;" horiz-adv-x="812" 
d="M787 771l-23 -94h-150l23 94h150zM385 677l23 94h150l-23 -94h-150zM904 609l-152 -609h-163l23 91l-112 -91h-238q-54 0 -89 13.5t-53.5 37t-22 54t4.5 63.5l110 441h164l-104 -416q-10 -39 0.5 -57.5t63.5 -18.5h282l123 492h163z" />
    <glyph glyph-name="FL00DDh" unicode="&#xdd;" horiz-adv-x="800" 
d="M614 677h-116l73 94h150zM727 609h165l-107 -429q-7 -28 -28 -59.5t-51.5 -58.5t-68.5 -44.5t-78 -17.5h-491l27 107h444q15 0 28.5 6.5t24 16.5t18 22t10.5 24l19 76h-314q-47 0 -80.5 14.5t-53.5 39t-26.5 56t1.5 65.5l46 182h161l-46 -182q-3 -14 0.5 -26.5t11 -21.5
t17.5 -14.5t20 -5.5h289z" />
    <glyph glyph-name="FL00DEh" unicode="&#xde;" horiz-adv-x="756" 
d="M211 609h163l-25 -100h274q49 0 84.5 -19t56.5 -49.5t27.5 -68t-2.5 -73.5q-8 -33 -31 -69t-56.5 -66t-74.5 -50t-86 -20h-208l-63 93l-47 -187h-164zM321 392l-47 -188h264q18 0 35 10t31.5 24.5t24 31t12.5 29.5q3 10 2 26t-6.5 31t-16 25.5t-26.5 10.5h-273z" />
    <glyph glyph-name="FL00DFh" unicode="&#xdf;" horiz-adv-x="785" 
d="M212 609h463q49 0 86 -12.5t60 -34.5t31.5 -53t-0.5 -67q-9 -35 -33.5 -68.5t-59.5 -58.5q21 -32 31 -59t1 -62q-9 -36 -31.5 -71t-57 -62.5t-80 -44t-99.5 -16.5h-170l29 117h170q16 0 31.5 8t27.5 20t20.5 25.5t11.5 24.5q6 25 -8.5 48t-49.5 26h-166l27 110h170
q34 2 58 20.5t30 42.5q5 21 -9.5 35.5t-48.5 14.5h-300l-157 -628h-163z" />
    <glyph glyph-name="FL00E0h" unicode="&#xe0;" 
d="M592 479h-9l-154 -194h224zM30 0l510 609h164l208 -609h-175l-55 168h-341l-136 -168h-175zM720 677h-117l-61 94h150z" />
    <glyph glyph-name="FL00E1h" unicode="&#xe1;" 
d="M592 479h-9l-154 -194h224zM30 0l510 609h164l208 -609h-175l-55 168h-341l-136 -168h-175zM675 677h-116l73 94h150z" />
    <glyph glyph-name="FL00E2h" unicode="&#xe2;" 
d="M592 479h-9l-154 -194h224zM30 0l510 609h164l208 -609h-175l-55 168h-341l-136 -168h-175zM827 677h-150l-25 59l-55 -59h-150l107 94h212z" />
    <glyph glyph-name="FL00E3h" unicode="&#xe3;" 
d="M592 479h-9l-154 -194h224zM30 0l510 609h164l208 -609h-175l-55 168h-341l-136 -168h-175zM516 771h142l32 -51l47 51h150l-107 -94h-142l-33 50l-46 -50h-150z" />
    <glyph glyph-name="FL00E4h" unicode="&#xe4;" 
d="M592 479h-9l-154 -194h224zM30 0l510 609h164l208 -609h-175l-55 168h-341l-136 -168h-175zM850 771l-23 -94h-150l23 94h150zM447 677l23 94h150l-23 -94h-150z" />
    <glyph glyph-name="FL00E5h" unicode="&#xe5;" 
d="M584 771l-23 -94h150l23 94h-150zM540 609l-510 -609h175l136 168h341l55 -168h175l-208 609h-164zM583 479h9l61 -194h-224zM675 736l-6 -24h-46l6 24h46z" />
    <glyph glyph-name="FL00E6h" unicode="&#xe6;" horiz-adv-x="1388" 
d="M890 609h590l-27 -107h-427l-31 -123h373l-28 -116h-373l-39 -156h427l-27 -107h-591l-55 168h-341l-136 -168h-175l510 609h164l107 -315zM585 479l-156 -194h224l-62 194h-6z" />
    <glyph glyph-name="FL00E7h" unicode="&#xe7;" horiz-adv-x="794" 
d="M118 304q15 59 52 114t91 97.5t121.5 68t143.5 25.5h360l-27 -107h-356q-30 0 -67.5 -17t-73 -44.5t-63 -63t-36.5 -72.5t0 -72.5t30.5 -63.5t52.5 -45t66 -17h349l-27 -107h-205l-39 -155h-189l21 82h82l18 73h-51q-80 0 -134 27.5t-85 71.5t-39 98t5 107z" />
    <glyph glyph-name="FL00E8h" unicode="&#xe8;" horiz-adv-x="710" 
d="M482 677h117l-28 94h-150zM212 609l-152 -609h590l27 107h-427l40 160h373l26 108h-373l32 127h427l27 107h-590z" />
    <glyph glyph-name="FL00E9h" unicode="&#xe9;" horiz-adv-x="710" 
d="M450 677h116l107 94h-150zM212 609l-152 -609h590l27 107h-427l40 160h373l26 108h-373l32 127h427l27 107h-590z" />
    <glyph glyph-name="FL00EAh" unicode="&#xea;" horiz-adv-x="710" 
d="M565 677h150l-61 94h-211l-107 -94h150l54 59zM212 609l-152 -609h590l27 107h-427l40 160h373l26 108h-373l32 127h427l27 107h-590z" />
    <glyph glyph-name="FL00EBh" unicode="&#xeb;" horiz-adv-x="710" 
d="M359 771l-23 -94h150l23 94h-150zM715 677l23 94h-150l-23 -94h150zM212 609l-152 -609h590l27 107h-427l40 160h373l26 108h-373l32 127h427l27 107h-590z" />
    <glyph glyph-name="FL00ECh" unicode="&#xec;" horiz-adv-x="295" 
d="M66 0l152 609h163l-152 -609h-163zM401 677h-117l-61 94h150z" />
    <glyph glyph-name="FL00EDh" unicode="&#xed;" horiz-adv-x="295" 
d="M66 0l152 609h163l-152 -609h-163zM344 677h-116l73 94h150z" />
    <glyph glyph-name="FL00EEh" unicode="&#xee;" horiz-adv-x="295" 
d="M66 0l152 609h163l-152 -609h-163zM506 677h-150l-24 59l-55 -59h-150l107 94h211z" />
    <glyph glyph-name="FL00EFh" unicode="&#xef;" horiz-adv-x="295" 
d="M66 0l152 609h163l-152 -609h-163zM529 771l-23 -94h-150l23 94h150zM127 677l23 94h150l-23 -94h-150z" />
    <glyph glyph-name="FL00F0h" unicode="&#xf0;" horiz-adv-x="841" 
d="M875 304q16 64 1 119.5t-56 96.5t-105.5 65t-146.5 24h-356l-27 -107h403q23 0 45 -10t40.5 -26.5t33 -39t21.5 -47.5h-574l-94 -379h410q79 0 147.5 27.5t121.5 71.5t88 98t48 107zM284 263h430q-17 -32 -44 -60.5t-59 -49.5t-65.5 -33.5t-62.5 -12.5h-238z" />
    <glyph glyph-name="FL00F1h" unicode="&#xf1;" horiz-adv-x="812" 
d="M60 0l152 609h163l-23 -91l112 91h239q54 0 88.5 -13.5t53 -37t22 -54t-4.5 -63.5l-110 -441h-164l104 416q4 19 4.5 33.5t-6 24t-21.5 14t-41 4.5h-282l-123 -492h-163zM457 771h142l32 -51l47 51h150l-107 -94h-142l-33 50l-46 -50h-150z" />
    <glyph glyph-name="FL00F2h" unicode="&#xf2;" horiz-adv-x="878" 
d="M265 301q-11 -42 -0.5 -79.5t37.5 -65t68 -44t91 -16.5q52 0 102 15.5t91 42.5t70.5 64.5t40.5 82.5q10 42 0.5 80.5t-35.5 67.5t-67.5 46t-95.5 17q-51 0 -101 -17t-91.5 -46.5t-70.5 -67.5t-39 -80zM117 301q17 69 63 130t111.5 106t144.5 71.5t161 26.5
q85 0 151.5 -26t108.5 -71t57 -106t-3 -131t-63.5 -130t-109.5 -104t-142.5 -69t-163.5 -25q-82 0 -148 25t-109 69t-59.5 104t1.5 130zM683 677h-117l-61 94h150z" />
    <glyph glyph-name="FL00F3h" unicode="&#xf3;" horiz-adv-x="878" 
d="M265 301q-11 -42 -0.5 -79.5t37.5 -65t68 -44t91 -16.5q52 0 102 15.5t91 42.5t70.5 64.5t40.5 82.5q10 42 0.5 80.5t-35.5 67.5t-67.5 46t-95.5 17q-51 0 -101 -17t-91.5 -46.5t-70.5 -67.5t-39 -80zM117 301q17 69 63 130t111.5 106t144.5 71.5t161 26.5
q85 0 151.5 -26t108.5 -71t57 -106t-3 -131t-63.5 -130t-109.5 -104t-142.5 -69t-163.5 -25q-82 0 -148 25t-109 69t-59.5 104t1.5 130zM650 677h-116l73 94h150z" />
    <glyph glyph-name="FL00F4h" unicode="&#xf4;" horiz-adv-x="878" 
d="M265 301q-11 -42 -0.5 -79.5t37.5 -65t68 -44t91 -16.5q52 0 102 15.5t91 42.5t70.5 64.5t40.5 82.5q10 42 0.5 80.5t-35.5 67.5t-67.5 46t-95.5 17q-51 0 -101 -17t-91.5 -46.5t-70.5 -67.5t-39 -80zM117 301q17 69 63 130t111.5 106t144.5 71.5t161 26.5
q85 0 151.5 -26t108.5 -71t57 -106t-3 -131t-63.5 -130t-109.5 -104t-142.5 -69t-163.5 -25q-82 0 -148 25t-109 69t-59.5 104t1.5 130zM798 677h-150l-25 59l-54 -59h-150l107 94h211z" />
    <glyph glyph-name="FL00F5h" unicode="&#xf5;" horiz-adv-x="878" 
d="M117 301q17 69 63 130t111.5 106t144.5 71.5t161 26.5q85 0 151.5 -26t108.5 -71t57 -106t-3 -131t-63.5 -130t-109.5 -104t-142.5 -69t-163.5 -25q-82 0 -148 25t-109 69t-59.5 104t1.5 130zM265 301q-11 -42 -0.5 -79.5t37.5 -65t68 -44t91 -16.5q52 0 102 15.5
t91 42.5t70.5 64.5t40.5 82.5q10 42 0.5 80.5t-35.5 67.5t-67.5 46t-95.5 17q-51 0 -101 -17t-91.5 -46.5t-70.5 -67.5t-39 -80zM487 771h142l32 -51l47 51h150l-107 -94h-142l-33 50l-46 -50h-150z" />
    <glyph glyph-name="FL00F6h" unicode="&#xf6;" horiz-adv-x="878" 
d="M265 301q-11 -42 -0.5 -79.5t37.5 -65t68 -44t91 -16.5q52 0 102 15.5t91 42.5t70.5 64.5t40.5 82.5q10 42 0.5 80.5t-35.5 67.5t-67.5 46t-95.5 17q-51 0 -101 -17t-91.5 -46.5t-70.5 -67.5t-39 -80zM117 301q17 69 63 130t111.5 106t144.5 71.5t161 26.5
q85 0 151.5 -26t108.5 -71t57 -106t-3 -131t-63.5 -130t-109.5 -104t-142.5 -69t-163.5 -25q-82 0 -148 25t-109 69t-59.5 104t1.5 130zM822 771l-23 -94h-150l23 94h150zM420 677l23 94h150l-23 -94h-150z" />
    <glyph glyph-name="FL00F7h" unicode="&#xf7;" horiz-adv-x="605" 
d="M154 379h485l-28 -116h-485zM435 219l-24 -94h-146l24 94h146zM339 419l24 94h147l-24 -94h-147z" />
    <glyph glyph-name="FL00F8h" unicode="&#xf8;" horiz-adv-x="878" 
d="M117 301q17 69 63 130t111.5 106t144.5 71.5t161 26.5q85 0 151.5 -26t108.5 -71t57 -106t-3 -131t-63.5 -130t-109.5 -104t-142.5 -69t-163.5 -25q-82 0 -148 25t-109 69t-59.5 104t1.5 130zM265 301q-17 -71 19 -122l362 321q-35 12 -79 12q-51 0 -101 -17t-91.5 -46.5
t-70.5 -67.5t-39 -80zM765 301q8 34 3.5 65.5t-20.5 57.5l-356 -319q33 -9 69 -9q52 0 102 15.5t91 42.5t70.5 64.5t40.5 82.5z" />
    <glyph glyph-name="FL00F9h" unicode="&#xf9;" horiz-adv-x="812" 
d="M752 0h-163l23 91l-112 -91h-238q-54 0 -89 13.5t-53.5 37t-22 54t4.5 63.5l110 441h164l-104 -416q-10 -39 0.5 -57.5t63.5 -18.5h282l123 492h163zM649 677h-116l-61 94h150z" />
    <glyph glyph-name="FL00FAh" unicode="&#xfa;" horiz-adv-x="812" 
d="M752 0h-163l23 91l-112 -91h-238q-54 0 -89 13.5t-53.5 37t-22 54t4.5 63.5l110 441h164l-104 -416q-10 -39 0.5 -57.5t63.5 -18.5h282l123 492h163zM617 677h-117l74 94h150z" />
    <glyph glyph-name="FL00FBh" unicode="&#xfb;" horiz-adv-x="812" 
d="M752 0h-163l23 91l-112 -91h-238q-54 0 -89 13.5t-53.5 37t-22 54t4.5 63.5l110 441h164l-104 -416q-10 -39 0.5 -57.5t63.5 -18.5h282l123 492h163zM764 677h-150l-24 59l-55 -59h-150l107 94h211z" />
    <glyph glyph-name="FL00FCh" unicode="&#xfc;" horiz-adv-x="812" 
d="M787 771l-23 -94h-150l23 94h150zM385 677l23 94h150l-23 -94h-150zM904 609l-152 -609h-163l23 91l-112 -91h-238q-54 0 -89 13.5t-53.5 37t-22 54t4.5 63.5l110 441h164l-104 -416q-10 -39 0.5 -57.5t63.5 -18.5h282l123 492h163z" />
    <glyph glyph-name="FL00FDh" unicode="&#xfd;" horiz-adv-x="782" 
d="M382 288l-200 321h192l120 -194l218 194h192l-359 -321l-72 -288h-163zM601 677h-116l73 94h150z" />
    <glyph glyph-name="FL00FEh" unicode="&#xfe;" horiz-adv-x="756" 
d="M211 609h163l-25 -100h274q49 0 84.5 -19t56.5 -49.5t27.5 -68t-2.5 -73.5q-8 -33 -31 -69t-56.5 -66t-74.5 -50t-86 -20h-208l-63 93l-47 -187h-164zM321 392l-47 -188h264q18 0 35 10t31.5 24.5t24 31t12.5 29.5q3 10 2 26t-6.5 31t-16 25.5t-26.5 10.5h-273z" />
    <glyph glyph-name="FL00FFh" unicode="&#xff;" horiz-adv-x="782" 
d="M382 288l-200 321h192l120 -194l218 194h192l-359 -321l-72 -288h-163zM769 771l-23 -94h-150l23 94h150zM367 677l23 94h150l-23 -94h-150z" />
    <glyph glyph-name="FL0152h" unicode="&#x152;" horiz-adv-x="1225" 
d="M118 304q15 59 52 114t91 97.5t121.5 68t143.5 25.5h791l-27 -107h-787q-30 0 -67.5 -17t-73 -44.5t-63 -63t-36.5 -72.5t0 -72.5t30.5 -63.5t52.5 -45t66 -17h780l-27 -107h-794q-80 0 -134 27.5t-85 71.5t-39 98t5 107zM642 263l28 116h589l-28 -116h-589z" />
    <glyph glyph-name="FL0153h" unicode="&#x153;" horiz-adv-x="1225" 
d="M118 304q15 59 52 114t91 97.5t121.5 68t143.5 25.5h791l-27 -107h-427l-31 -123h373l-28 -116h-373l-39 -156h427l-27 -107h-794q-80 0 -134 27.5t-85 71.5t-39 98t5 107zM700 502h-197q-30 0 -67.5 -17t-73 -44.5t-63 -63t-36.5 -72.5t0 -72.5t30.5 -63.5t52.5 -45
t66 -17h190z" />
    <glyph glyph-name="FL0160h" unicode="&#x160;" horiz-adv-x="786" 
d="M62 0l27 107h444q15 0 30 6.5t28.5 17t23 22.5t12.5 24q7 28 -8 51.5t-50 23.5h-250q-47 0 -80.5 14.5t-53.5 39t-26.5 56t1.5 65.5q10 39 35.5 72.5t61 57.5t79 38t90.5 14h450l-27 -107h-459q-14 0 -27.5 -7t-24.5 -18.5t-18.5 -24.5t-10.5 -25q-3 -11 0.5 -23t10 -22
t16 -16.5t18.5 -6.5h258q47 0 82 -15t56.5 -39.5t28.5 -57t-2 -68.5q-8 -29 -29 -61t-50.5 -58t-66.5 -43t-78 -17h-491zM398 771h150l26 -59l54 59h150l-107 -94h-212z" />
    <glyph glyph-name="FL0161h" unicode="&#x161;" horiz-adv-x="786" 
d="M62 0l27 107h444q15 0 30 6.5t28.5 17t23 22.5t12.5 24q7 28 -8 51.5t-50 23.5h-250q-47 0 -80.5 14.5t-53.5 39t-26.5 56t1.5 65.5q10 39 35.5 72.5t61 57.5t79 38t90.5 14h450l-27 -107h-459q-14 0 -27.5 -7t-24.5 -18.5t-18.5 -24.5t-10.5 -25q-3 -11 0.5 -23t10 -22
t16 -16.5t18.5 -6.5h258q47 0 82 -15t56.5 -39.5t28.5 -57t-2 -68.5q-8 -29 -29 -61t-50.5 -58t-66.5 -43t-78 -17h-491zM398 771h150l26 -59l54 59h150l-107 -94h-212z" />
    <glyph glyph-name="FL0178h" unicode="&#x178;" horiz-adv-x="800" 
d="M784 771l-23 -94h-150l23 94h150zM381 677l23 94h150l-23 -94h-150zM727 609h165l-107 -429q-7 -28 -28 -59.5t-51.5 -58.5t-68.5 -44.5t-78 -17.5h-491l27 107h444q15 0 28.5 6.5t24 16.5t18 22t10.5 24l19 76h-314q-47 0 -80.5 14.5t-53.5 39t-26.5 56t1.5 65.5l46 182
h161l-46 -182q-3 -14 0.5 -26.5t11 -21.5t17.5 -14.5t20 -5.5h289z" />
    <glyph glyph-name="FL0192h" unicode="&#x192;" horiz-adv-x="905" 
d="M926 324l-34 -77l-22 2l24 79zM887 215l-25 -16l-13 12l18 11zM830 221q-33 0 -66 51l-13 -50l-24 -2l26 104l59 -69l22 73l22 -4zM704 222l-16 3q-8 24 -27 24q-15 0 -39 -24h-30q27 52 83 102q1 4 20 4q23 0 28 -33zM606 328l-33 -101l-34 -7l40 104zM512 217
q-32 0 -68 50l-13 -49l-24 -3l26 104l62 -65l24 70l19 -5zM410 290q-28 -73 -68 -73l-12 -1.5t-11 -0.5q-36 0 -43 16q17 68 73 93h16q44 0 45 -34zM290 326l-9 -25q-2 2 -4 2.5l-2 0.5q0 1 -8 1q-14 0 -39 -15q-23 -20 -29 -43q-6 -20 22 -20q8 0 14 0.5t13 1.5l-4 -17
q-13 -2 -17 -3.5t-11 -1.5q-38 0 -40 47q-3 0 -1 6l2 7q12 48 113 59zM177 324l-33 -101l-30 -8l39 106zM692 272l-8 35l-34 -35h42zM379 274q1 1 1 5q0 2 2 8q-9 12 -23 12q-23 0 -46 -32l-2 -7q-6 -25 14 -25q4 0 13 2t25 7q9 8 11.5 14t4.5 16z" />
    <glyph glyph-name="FL02C6h" unicode="&#x2c6;" horiz-adv-x="439" 
d="M538 516h-150l-25 59l-54 -59h-150l107 94h211z" />
    <glyph glyph-name="FL02DCh" unicode="&#x2dc;" horiz-adv-x="515" 
d="M266 609h142l31 -51l48 51h150l-108 -94h-142l-32 50l-47 -50h-150z" />
    <glyph glyph-name="FL2013h" unicode="&#x2013;" horiz-adv-x="475" 
d="M154 379l-28 -116h355l28 116h-355z" />
    <glyph glyph-name="FL2014h" unicode="&#x2014;" horiz-adv-x="542" 
d="M154 379h422l-28 -116h-422z" />
    <glyph glyph-name="FL2018h" unicode="&#x2018;" horiz-adv-x="283" 
d="M319 385h-163l34 135l185 89z" />
    <glyph glyph-name="FL2019h" unicode="&#x2019;" horiz-adv-x="283" 
d="M212 609h163l-34 -135l-185 -89z" />
    <glyph glyph-name="FL201Ah" unicode="&#x201a;" horiz-adv-x="283" 
d="M87 107h163l-34 -135l-185 -89z" />
    <glyph glyph-name="FL201Ch" unicode="&#x201c;" horiz-adv-x="506" 
d="M319 385h-163l34 135l185 89zM542 385h-163l34 135l185 89z" />
    <glyph glyph-name="FL201Dh" unicode="&#x201d;" horiz-adv-x="506" 
d="M435 609h163l-34 -135l-185 -89zM212 609h163l-34 -135l-185 -89z" />
    <glyph glyph-name="FL201Eh" unicode="&#x201e;" horiz-adv-x="506" 
d="M310 107h163l-34 -135l-185 -89zM87 107h163l-34 -135l-185 -89z" />
    <glyph glyph-name="FL2020h" unicode="&#x2020;" horiz-adv-x="536" 
d="M591 462l-29 -116h-126l-86 -346h-163l86 346h-127l29 116h127l37 147h163l-37 -147h126z" />
    <glyph glyph-name="FL2021h" unicode="&#x2021;" horiz-adv-x="536" 
d="M591 462l-29 -116h-126l-16 -66h126l-29 -116h-126l-41 -164h-163l41 164h-127l29 116h127l16 66h-127l29 116h127l37 147h163l-37 -147h126z" />
    <glyph glyph-name="FL2022h" unicode="&#x2022;" horiz-adv-x="584" 
d="M117 301q10 42 39.5 80t70.5 67.5t91 46.5t102 17q53 0 94.5 -17t67.5 -46t35.5 -67.5t-0.5 -80.5q-11 -45 -40.5 -82.5t-70.5 -64.5t-91 -42.5t-102 -15.5q-50 0 -91 16.5t-68 44t-37.5 65t0.5 79.5z" />
    <glyph glyph-name="FL2026h" unicode="&#x2026;" horiz-adv-x="730" 
d="M533 107l-27 -107h164l27 107h-164zM310 107l-27 -107h163l27 107h-163zM87 107l-27 -107h163l27 107h-163z" />
    <glyph glyph-name="FL2030h" unicode="&#x2030;" horiz-adv-x="1174" 
d="M372 103q6 25 18 46l-167 -149h-193l409 364q-27 -11 -54.5 -17.5t-57.5 -6.5q-41 0 -74.5 12.5t-55 34.5t-29.5 52t1 65q9 34 32 64.5t55.5 53t72 36t80.5 13.5q42 0 75 -13t54 -35.5t29 -53t-1 -65.5q-2 -10 -6.5 -20t-9.5 -20l164 145h192l-413 -367q55 28 119 28
q36 0 65.5 -10t50.5 -27.5t32.5 -42t11.5 -52.5q14 28 38.5 52.5t55 42.5t65.5 28t71 10q42 0 75 -13t54 -35.5t28.5 -53t-1.5 -65.5t-31.5 -65t-55 -52t-71.5 -34.5t-81 -12.5q-36 0 -66 9.5t-51.5 27t-34 41t-12.5 51.5q-14 -28 -37 -52t-53 -41t-64.5 -27t-70.5 -10
q-42 0 -75 12.5t-54.5 34.5t-29.5 52t1 65zM304 503q-5 -21 10 -36t40 -15q26 0 48 14t27 37q5 21 -8 37t-41 16q-26 0 -48.5 -16t-27.5 -37zM506 102q-5 -21 10 -36t41 -15t47.5 14t26.5 37q5 21 -7.5 37t-40.5 16q-26 0 -49 -16t-28 -37zM896 103q-5 -21 9.5 -36t39.5 -15
q26 0 48 14t28 37q5 21 -8 37t-42 16q-26 0 -48 -16t-27 -37z" />
    <glyph glyph-name="FL2039h" unicode="&#x2039;" horiz-adv-x="340" 
d="M405 389l-98 -68l66 -70l-120 -82l-143 152l217 150z" />
    <glyph glyph-name="FL203Ah" unicode="&#x203a;" horiz-adv-x="340" 
d="M127 389l65 -68l-100 -70l77 -82l219 152l-143 150z" />
    <glyph glyph-name="mu" unicode="&#x2122;" horiz-adv-x="1210" 
d="M1252 290l-3 -1l-20 -26h-67l31 -45v-8l-1 -4q-5 -18 -27 -25l-73 13l-28 -70q-6 -13 -30 -13q-20 0 -33 5t-32 15l-10 2l-89 -63l-38 -5l-39 34l-160 -58l-21 7l8 34l-196 -23l-21 11l18 29l-194 13l5 21l28 20l-119 18q-22 0 -17 23l56 29l-77 31l-3 27l88 11l-32 43
l12 35l86 -8q21 83 59 83h3l78 -21q39 30 62.5 45t46.5 23l61 -33l152 53l21 -20l-7 -17l1 -6l160 23l53 -4l-15 -36h179l14 -12q-9 -32 -39 -33l145 -32l-1 -7q-7 -27 -64 -33q93 -29 89 -45zM1224 281l-3 11l-110 49l80 17h9l-6 12l-169 29l71 35h-204l24 41l-203 -23
l3 36l-15 4l-151 -52l-52 35l-98 -68q-8 -3 -19 -3q-30 0 -69 24l-35 -83l-95 8l-2 -26l40 -52l-98 -4l116 -53l-93 -29l177 -33l-69 -32l208 -6l-33 -40l198 26l17 -22l-14 -23l168 59l61 -36l94 71l92 -25l28 83l98 -12q1 5 2 5.5l1 0.5q4 16 -47 70zM1088 324l-34 -77
l-22 2l24 79zM1049 215l-25 -16l-13 12l18 11zM992 221q-33 0 -66 51l-13 -50l-24 -2l26 104l59 -69l22 73l22 -4zM866 222l-16 3q-8 24 -27 24q-15 0 -39 -24h-30q27 52 83 102q1 4 20 4q23 0 28 -33zM768 328l-33 -101l-34 -7l40 104zM674 217q-32 0 -68 50l-13 -49
l-24 -3l26 104l62 -65l24 70l19 -5zM572 290q-28 -73 -68 -73l-12 -1.5t-11 -0.5q-36 0 -43 16q17 68 73 93h16q44 0 45 -34zM452 326l-9 -25q-2 2 -4 2.5l-2 0.5q0 1 -8 1q-14 0 -39 -15q-23 -20 -29 -43q-6 -20 22 -20q8 0 14 0.5t13 1.5l-4 -17q-13 -2 -17 -3.5t-11 -1.5
q-38 0 -40 47q-3 0 -1 6l2 7q12 48 113 59zM339 324l-33 -101l-30 -8l39 106zM854 272l-8 35l-34 -35h42zM541 274q1 1 1 5q0 2 2 8q-9 12 -23 12q-23 0 -46 -32l-2 -7q-6 -25 14 -25q4 0 13 2t25 7q9 8 11.5 14t4.5 16z" />
    </font>
</defs>
</svg>
