<?xml version="1.0" standalone="no"?>
<!DOCTYPE svg PUBLIC "-//W3C//DTD SVG 1.1//EN" "http://www.w3.org/Graphics/SVG/1.1/DTD/svg11.dtd" >
<svg xmlns="http://www.w3.org/2000/svg" xmlns:xlink="http://www.w3.org/1999/xlink" version="1.1">
<metadata>
Created by FontForge 20170731 at Fri Oct  3 11:48:50 2003
 By Aleksey,,,
Copyright (c) Typographer Mediengestaltung, 2000. All rights reserved.
</metadata>
<defs>
<font id="LouisianneContour-Black" horiz-adv-x="751" >
  <font-face 
    font-family="Louisianne Contour"
    font-weight="900"
    font-stretch="normal"
    units-per-em="1000"
    panose-1="2 0 10 3 2 0 0 2 0 4"
    ascent="800"
    descent="-200"
    x-height="533"
    cap-height="685"
    bbox="12 -330 1584 923"
    underline-thickness="50"
    underline-position="-175"
    unicode-range="U+0005-E004"
  />
<missing-glyph horiz-adv-x="409" 
d="M35 19h339v790h-339v-790zM91 79v671h226v-671h-226zM100 89h208v651h-208v-651zM26 818h357v-808h-357v808zM17 0h375v828h-375v-828zM109 731h190v-633h-190v633z" />
    <glyph glyph-name=".notdef" horiz-adv-x="409" 
d="M35 19h339v790h-339v-790zM91 79v671h226v-671h-226zM100 89h208v651h-208v-651zM26 818h357v-808h-357v808zM17 0h375v828h-375v-828zM109 731h190v-633h-190v633z" />
    <glyph glyph-name=".null" unicode="&#xe000;" horiz-adv-x="0" 
 />
    <glyph glyph-name="nonmarkingreturn" unicode="&#xe001;" horiz-adv-x="20" 
 />
    <glyph glyph-name="breve" horiz-adv-x="379" 
d="M250 549l-62 -66l-62 66h-79l85 -112h106l92 112h-80zM348 556l-105 -127h-116l-96 127h99l58 -61l58 61h102zM242 564l-54 -57l-54 57h-120l108 -143h125l118 143h-123z" />
    <glyph glyph-name="ring" horiz-adv-x="212" 
d="M106 588q-32 0 -53.5 -21.5t-21.5 -53.5t21.5 -53t53.5 -21t53 21t21 53t-21 53.5t-53 21.5zM106 472q-17 0 -29 12t-12 29t12 29t29 12t29 -12t12 -29t-12 -29t-29 -12zM106 480q14 0 23.5 9.5t9.5 23.5t-9.5 23.5t-23.5 9.5t-23.5 -9.5t-9.5 -23.5t9.5 -23.5t23.5 -9.5
zM106 596q35 0 59 -23.5t24 -59.5q0 -35 -24 -59t-59 -24q-36 0 -59.5 24t-23.5 59q0 36 23.5 59.5t59.5 23.5zM106 604q-39 0 -65 -26t-26 -65q0 -38 26 -64.5t65 -26.5q38 0 64.5 26.5t26.5 64.5q0 39 -26.5 65t-64.5 26zM106 489q-11 0 -18 6.5t-7 17.5t7 18t18 7
t17.5 -7t6.5 -18t-6.5 -17.5t-17.5 -6.5z" />
    <glyph glyph-name="caron" horiz-adv-x="379" 
d="M250 549l-62 -66l-62 66h-79l85 -112h106l92 112h-80zM348 556l-105 -127h-116l-96 127h99l58 -61l58 61h102zM242 564l-54 -57l-54 57h-120l108 -143h125l118 143h-123z" />
    <glyph glyph-name="dotlessi" unicode="&#xd;" horiz-adv-x="329" 
d="M296 186l-28 -21q-14 -8 -28 -11v360h-207v-434q0 -27 43 -45q35 -16 64 -16q58 0 103 24q53 29 53 73v70zM305 116q0 -48 -58 -82q-48 -25 -107 -25q-29 0 -68 18q-48 21 -48 53v444h224v-357q8 1 16 6l-2 -1l43 32v-88zM314 222l-55 -42h-2l3 1q-1 -1 -3 -1v353h-241
v-453q0 -40 53 -62v1q43 -19 71 -19q61 0 111 26q63 35 63 90v106z" />
    <glyph glyph-name="fraction" horiz-adv-x="559" 
d="M426 688l-382 -669h85l386 669h-89zM531 698l-396 -689h-108l393 689h111zM415 707l-403 -707h127l408 707h-132z" />
    <glyph glyph-name="Lslash" horiz-adv-x="566" 
d="M490 472l-92 -37v131q1 10 44 10l30 -3l27 -7v62q-52 50 -161 50q-26 0 -53.5 -6.5t-57.5 -18.5q-74 -30 -74 -75v-247l-114 -47l38 -96l76 32q0 -69 -109 -102v-72q25 12 71 12q47 0 113 -17l143 -37q49 0 90 22q47 26 65 67v81q-23 -35 -61.5 -55.5t-80.5 -18.5l-47 4
q-21 5 -41 14q45 14 73.5 47t28.5 74v85l129 54zM539 373l-132 -56v-78q0 -39 -23.5 -71t-61.5 -50q4 -2 8 -2.5t9 -1.5h-1l47 -4h8q38 0 76 26.5t67 68.5v-114q-22 -46 -71 -74q-44 -23 -96 -23l-144 37q-32 9 -59.5 13t-50.5 4q-47 0 -80 -16v94q96 29 107 79l-69 -29
l-46 113l116 48v241q0 52 80 84q60 25 115 25q113 0 171 -55v-78l-38 9l-30 3q-34 0 -34 -1v-117l88 37zM500 497l-83 -34v98q1 -4 23 -4l31 -3l-3 1l50 -12v93q-64 61 -180 61q-56 0 -117 -26q-44 -17 -65.5 -40.5t-21.5 -52.5v-233l-120 -51l53 -131l55 23
q-13 -16 -36.5 -29t-60.5 -24v-115q46 21 90 21q23 0 50.5 -4t57.5 -12l147 -38q53 0 100 24q53 28 75 80v148q-35 -52 -76 -85t-76 -33h-7l-38 3q32 20 50.5 50.5t18.5 66.5v72l134 56z" />
    <glyph glyph-name="lslash" horiz-adv-x="409" 
d="M333 440l-29 -12v237h-198v-321l-68 -28l37 -96l31 13v-133q0 -85 112 -85q38 0 91 24q61 30 61 65v77q-25 -34 -66 -46v183l66 27zM382 340l-69 -29v-163q31 15 66 62v-106q0 -41 -67 -74q-26 -13 -50 -18.5t-44 -5.5q-121 0 -121 94v119l-26 -11l-45 112l71 30v325h216
v-233l24 11zM343 466l-21 -10v228h-234v-327l-74 -31l50 -130l24 9v-105q0 -104 130 -104q41 0 98 26q72 33 72 82v133q-20 -26 -36 -44t-30 -29v140l72 31z" />
    <glyph glyph-name="Zcaron" horiz-adv-x="655" 
d="M621 184q-63 -67 -133 -67h-128l79 200h138v115h-79l95 241h-526v-89h216l-72 -148h-126v-116h80l-123 -301h463q73 11 116 63v102zM447 863l-66 -80l-65 80h-83l89 -137h113l97 137h-85zM550 872l-110 -155h-122l-103 155h105l61 -75l61 75h108zM630 78q-24 -29 -55 -46
t-69 -22h-478l123 300h-76v136h131l62 128h-211v109h550l-96 -241h75v-135h-142l-71 -181h115q66 0 142 82v-130zM640 232q-90 -96 -152 -96h-100l64 162h143v154h-69l95 241h-573v-129h204l-53 -109h-133v-155h71l-123 -300h494q77 10 132 76v156zM439 882l-58 -70l-57 70
h-127l115 -175h132l124 175h-129z" />
    <glyph glyph-name="zcaron" horiz-adv-x="493" 
d="M460 175l-69 -53q-27 -20 -70 -20q-40 0 -69 26l184 269v106l-26 -3l-27 2l-30 5q-83 26 -147 26q-48 0 -94 -24.5t-75 -65.5v-88q74 79 125 79q17 0 35 -9l-164 -221v-195l8 14q2 4 47 14q43 10 53 10l85 -27q38 -11 66 -11q50 0 95.5 26.5t72.5 72.5v67zM314 725
l-64 -80l-65 80h-81l88 -136h110l95 136h-83zM415 734l-108 -155h-120l-100 155h103l60 -75l60 75h105zM469 105q-29 -48 -77 -76.5t-100 -28.5q-17 0 -34 2.5t-35 7.5l-85 27q-4 -1 -16.5 -3.5t-31.5 -5.5q-18 -5 -28.5 -7t-12.5 -3l-9 -17l-16 4v202l159 214q-11 3 -21 3
q-49 0 -134 -93v115q30 43 79 69.5t99 26.5q69 0 150 -25h-2l30 -5l26 -2l35 4v-120l-181 -265q25 -18 57 -18q39 0 64 19l84 64v-89zM478 212l-98 -74q-21 -17 -59 -17q-13 0 -23.5 2t-20.5 9l177 259v133l-45 -5l-25 2h2l-30 5l2 -1q-84 27 -152 27q-26 0 -52.5 -7.5
t-51 -21t-46 -32t-37.5 -41.5v-141q100 106 143 106h4l-151 -204v-211l29 -9l12 22v-1q0 -3 35 6q20 5 32.5 7.5t14.5 2.5l82 -26q20 -6 38 -8.5t34 -2.5q54 0 104.5 30t81.5 83v108zM306 744l-56 -70l-56 70h-125l113 -174h129l122 174h-127z" />
    <glyph glyph-name="space" unicode=" " horiz-adv-x="429" 
 />
    <glyph glyph-name="exclam" unicode="!" horiz-adv-x="261" 
d="M228 665h-195v-530h195v530zM216 108h-169v-91h169v91zM225 8h-186v109h186v-109zM237 126h-212v549h212v-549zM245 684h-229v-568h14v-118h203v118h12v568z" />
    <glyph glyph-name="quotedbl" unicode="&#x22;" horiz-adv-x="448" 
d="M414 597h-179v-87q42 -13 54 -68l6 -24h62q2 16 4 25t4 14q15 42 49 55v85zM213 597h-178v-87q30 -10 48 -53q6 -14 12 -39h63q2 16 3.5 25t3.5 14q15 42 49 55zM423 506q-37 -14 -50 -51h1q-2 -5 -4 -16t-4 -30h-79l-7 31q-10 49 -54 64v101h197v-99zM223 506
q-37 -14 -50 -51h1q-2 -5 -3.5 -16t-4.5 -30h-79q-6 31 -12 45q-16 37 -50 50v101h197zM432 614h-416v-116q35 -12 50 -48q2 -6 5.5 -18t7.5 -31h95q4 25 5 37t3 15v-1q6 14 15.5 25.5t24.5 18.5q38 -14 49 -57l8 -38h95q6 48 8 52v-1q13 35 50 48v114z" />
    <glyph glyph-name="numbersign" unicode="#" horiz-adv-x="589" 
d="M446 477l42 172h-67l-46 -172h-97l45 176h-78l-42 -176h-101l-32 -91h111l-24 -108h-91l-27 -91h100l-42 -166h76l46 166h84l-48 -166h80l46 166h84l31 88h-94l27 111h78l40 91h-101zM326 276h-102l31 112h101zM237 285h82l24 93h-80zM458 487h103l-49 -110h-76l-21 -93
h94l-38 -107h-83l-45 -166h-101l48 166h-64l-45 -166h-96l42 166h-101l33 111h91l19 89h-112l40 110h99l42 175h97l-45 -175h78l46 172h86zM511 668h-104l-46 -172h-60l46 176h-116l-43 -176h-99l-46 -129h113l-14 -70h-90l-38 -129h101l-41 -166h113l46 166h45l-48 -166
h119l46 166h83l45 125h-97l16 74h77l56 129h-106zM269 369h63l-20 -75h-63z" />
    <glyph glyph-name="dollar" unicode="$" horiz-adv-x="477" 
d="M445 175l-45 -20q6 10 6 22l1 26q1 46 -45 93q-94 95 -94 112q0 21 10 27q12 9 28 9q46 0 101 -73v93q-26 36 -65 58t-80 22v88h-52v-85h-16q-61 0 -104 -46q-42 -45 -42 -110q0 -47 17 -66q1 -4 58 -62l56 -59q11 -12 11 -38q0 -42 -41 -42q-29 0 -38 33q-5 17 -5 58
h-62q-11 -31 -11 -60q0 -71 56 -109q51 -33 121 -33v-85h52v85q120 14 183 88v74zM454 96q-65 -76 -183 -91v-87h-70v86q-69 3 -116 34q-61 40 -61 117q0 28 15 70h76q0 -48 5 -66q6 -25 29 -25q32 0 32 32q0 22 -9 32l-56 58q-25 26 -39 40.5t-19 21.5q-19 22 -19 73
q0 66 45 117q45 49 110 49h7v84h70v-89q41 -2 80 -25t65 -60v-124q-69 92 -110 92q-12 0 -25 -10q-4 -4 -4 -17q0 -14 92 -105q47 -48 47 -97v-3l-1 -26v-5l39 17v-93zM463 203l-38 -17v16v4q0 53 -50 103q-89 89 -89 99q0 11 4 12q5 5 16 5q38 0 119 -110v155
q-26 38 -64.5 62.5t-80.5 29.5v89h-89v-85q-67 0 -114 -52h1q-48 -51 -48 -123q0 -27 5 -47.5t16 -32.5l-2 3q5 -7 20 -22.5t41 -41.5l14 -16h-92q-17 -48 -17 -79q0 -81 64 -126q50 -31 112 -34v-86h89v87q115 18 183 98v109zM172 166q0 -23 -23 -23q-15 0 -21 19v-1
q-2 7 -3 25.5t-1 47.5l41 -41q7 -12 7 -27z" />
    <glyph glyph-name="percent" unicode="%" horiz-adv-x="1127" 
d="M1094 352q-34 -23 -62 -20v121h-134v-19q-63 36 -131 36q-64 0 -109 -42q-35 -32 -35 -61v-322q0 -52 77 -82q60 -23 122 -23q38 0 66 7q125 27 125 86v207q45 0 81 45v67zM586 711l-211 -753h87l211 753h-87zM505 611q-30 -22 -62 -20v122h-134v-20q-63 37 -130 37
q-62 0 -109 -42q-36 -33 -36 -61v-323q0 -54 77 -84q60 -23 122 -23q38 0 67 7q124 27 124 89v207q48 0 81 45v66zM879 22l-31 7q-11 3 -20 12v296q0 4 4 10t9.5 11.5t11.5 9t11 3.5q11 -1 16 -8l10 -7l-3 -28q0 -74 58 -80v-156q0 -70 -66 -70zM291 281l-32 7q-12 5 -19 12
v296q0 5 4 11t9 11.5t11 9t11 3.5q12 -2 17 -8l9 -8l-2 -27q0 -75 57 -81v-156q0 -70 -65 -70zM293 291q54 0 54 60v148q-58 12 -58 90l2 22l-6 5q-2 3 -11 5q-7 -1 -16 -10t-9 -15v-293q6 -4 14 -6l-2 1zM881 31q54 0 54 61v147q-58 12 -58 90l2 22l-5 6q-2 3 -11 5
q-8 -1 -16.5 -10.5t-8.5 -14.5v-293q7 -6 13 -7l-2 1zM686 720l-217 -772h-108l217 772h108zM1103 282q-35 -47 -81 -51v-198q0 -32 -33 -57t-99 -39q-28 -7 -68 -7q-65 0 -126 24q-83 32 -83 91v322q0 32 39 68q48 45 115 45q62 0 121 -30v13h153v-121q12 0 27 7t35 21v-88
zM515 542q-34 -47 -81 -52v-197q0 -69 -133 -98q-28 -7 -68 -7q-65 0 -125 24q-83 32 -83 92v323q0 33 38 67q48 45 116 45q64 0 121 -29v12h153v-121q23 2 62 29v-88zM524 648q-41 -29 -61 -36v120h-173v-8q-28 12 -55 18.5t-56 6.5q-73 0 -123 -47q-41 -38 -41 -75v-323
q0 -68 90 -102q60 -24 128 -24q18 0 35.5 1.5t35.5 6.5l-1 -1q140 30 140 108v190q38 6 71 43l-164 -587h126l222 791h-126l-48 -168v86zM1113 388q-39 -27 -62 -35v119h-173v-7q-54 24 -111 24q-71 0 -122 -46q-42 -39 -42 -76v-322q0 -66 90 -100q31 -13 62.5 -18.5
t66.5 -5.5q37 0 71 7h-1q71 15 105.5 42t34.5 63v190q45 7 81 56v109zM883 41l-32 7q-1 0 -3 2v287q0 4 5 9t10 6q2 -2 3 -2l4 -3l-2 -17q0 -83 58 -98v-140q0 -49 -43 -51zM295 300l-32 7q-2 0 -4 2v287q0 5 5.5 10t9.5 5q1 0 1.5 -0.5t1.5 -0.5l4 -3l-2 -17q0 -82 58 -99
v-140q0 -50 -42 -51z" />
    <glyph glyph-name="ampersand" unicode="&#x26;" horiz-adv-x="634" 
d="M601 228q-15 -20 -28 -29l-32 -25l-39 58q9 18 12 36l2 40l-32 58q-10 -38 -28 -58q-14 19 -33 40.5t-42 44.5q73 38 73 137q0 152 -195 152q-42 0 -77 -12t-60 -35.5t-39 -57t-14 -75.5q0 -85 63 -128q-99 -47 -99 -177q0 -89 53.5 -139.5t144.5 -50.5q95 0 141 43
q29 -32 72 -32q51 0 97 37q23 19 37.5 41t22.5 47v85zM319 454l-42 27q-8 6 -14 25.5t-6 31.5q0 25 16.5 44.5t39.5 19.5t40.5 -17.5t17.5 -40.5q0 -26 -14.5 -52.5t-37.5 -37.5zM278 142q-17 0 -32.5 7.5t-27.5 20t-19 28.5t-7 33q0 42 28 77l106 -154q-24 -12 -48 -12z
M278 152q8 0 17 1t17 5l-93 134q-18 -29 -18 -61t23 -55.5t54 -23.5zM282 489l37 -25q18 12 30.5 35t12.5 45q0 19 -15 34t-34 15t-33 -17t-14 -38q0 -11 5 -28t12 -21h-1zM610 140q-15 -52 -64 -93q-47 -38 -102 -38q-42 0 -73 28q-49 -40 -140 -40q-95 0 -151 53t-56 147
q0 127 90 178q-54 45 -54 127q0 45 14.5 80t40.5 59t62.5 37t81.5 13q204 0 204 -161q0 -97 -67 -140q18 -18 33 -34.5t26 -31.5q8 11 14 28.5t11 40.5l46 -82l-3 -46q-1 -8 -3.5 -16t-6.5 -16l30 -46l24 19q7 6 18 18t25 34v-118zM620 288q-23 -34 -37 -51t-22 -23l-15 -12
l-22 32q4 8 5.5 15t2.5 14l3 49l-59 106q-5 -26 -10.5 -45t-10.5 -32q-10 11 -21 23t-23 25q61 45 61 141q0 171 -213 171q-47 0 -85 -13.5t-66 -39t-43 -62.5t-15 -84q0 -77 49 -125q-84 -56 -84 -180q0 -49 15 -87.5t43.5 -65.5t68 -41.5t89.5 -14.5q91 0 140 37
q32 -26 73 -26q56 0 108 41q50 41 68 102v146zM275 538q0 17 11.5 31t26.5 14q16 0 27.5 -12t11.5 -27q0 -19 -9.5 -38t-23.5 -30l-31 21q-5 4 -9 18t-4 23zM278 161q-13 0 -25 5.5t-21.5 15.5t-15 22.5t-5.5 26.5q0 11 2 21.5t8 21.5l77 -111q-5 -2 -10 -2h-10z" />
    <glyph glyph-name="quotesingle" unicode="'" horiz-adv-x="227" 
d="M195 597h-163l1 -87q37 -13 49 -68l5 -24h57q2 16 3.5 25t3.5 14q13 41 44 55v85zM204 506q-34 -13 -46 -51h1q-2 -5 -3.5 -16t-4.5 -30h-71l-7 31q-9 49 -49 64l-1 101h180zM211 614h-196l1 -116q40 -15 49 -59l7 -38h87q6 47 7 52v-1q13 35 46 48z" />
    <glyph glyph-name="parenleft" unicode="(" horiz-adv-x="365" 
d="M332 1q-17 -5 -33 -5q-29 0 -51 13q-25 12 -28 42v625q10 61 87 61l25 -3v85q-35 13 -61 14q-23 5 -67 5q-84 0 -130 -81q-37 -65 -37 -163q-5 -5 -4 -63l3 -308q1 -59 2 -90.5t3 -38.5q5 -95 49 -144q49 -54 138 -54q53 0 104 20v85zM340 -90q-27 -12 -55.5 -17.5
t-56.5 -5.5q-91 0 -144 56q-47 52 -52 151q-2 11 -3 43t-2 86l-3 308v20q0 33 4 44q0 101 38 167q48 85 138 85q24 0 41 -1t28 -3q14 -1 31 -5.5t36 -12.5v-102l-34 4q-68 0 -77 -53v-623q1 -23 23 -34q20 -11 47 -11q6 0 17 2.5t24 5.5v-104zM349 26q-33 -11 -50 -11
q-26 0 -43 10t-18 28v620q8 44 67 45l44 -5v119q-23 10 -42 14.5t-35 5.5h2q-10 2 -27 3.5t-43 1.5q-94 0 -145 -90q-40 -70 -40 -173q-2 -8 -3 -18.5t-1 -24.5v-20l3 -308q1 -55 2 -87.5t3 -43.5q4 -102 55 -155q54 -60 150 -60q58 0 121 26v123z" />
    <glyph glyph-name="parenright" unicode=")" horiz-adv-x="366" 
d="M328 590q-3 100 -38 163q-45 81 -129 81q-35 0 -67 -5t-61 -14v-85l24 3q35 0 60 -16t28 -44v-626q-5 -29 -29 -41q-23 -14 -50 -14q-7 0 -14.5 1.5t-18.5 3.5v-84q49 -21 104 -21q88 0 137.5 52.5t49.5 145.5q2 26 3 49.5t2 45.5l2 105q1 27 1 59v70q0 17 -0.5 43
t-1.5 60zM339 522q0 -9 0.5 -17t0.5 -16q1 -23 1 -40v-30v-70t-1 -59l-2 -105q-1 -22 -2 -46t-3 -50q-1 -96 -53 -151t-143 -55q-58 0 -113 23v103q14 -3 24.5 -5t17.5 -2q13 0 24 3.5t21 8.5q20 10 25 35v623q-3 23 -25 37t-53 14l-34 -3v102q32 11 65.5 16.5t71.5 5.5
q89 0 137 -86q19 -33 28 -75t11 -93zM346 591q-2 51 -11.5 94t-29.5 78q-50 90 -144 90q-76 0 -145 -24v-120l43 5q28 -1 47 -12.5t21 -31.5v-621q-3 -18 -20 -27q-17 -10 -41 -10q-4 0 -17 2t-33 7v-122q63 -26 121 -26q97 0 150.5 57.5t53.5 157.5q4 50 6 96l2 106v-1
q1 27 1 59v71v30q0 18 -1 41q0 8 -0.5 15.5t-0.5 16.5z" />
    <glyph glyph-name="asterisk" unicode="*" horiz-adv-x="422" 
d="M353 505l-100 18q-12 4 -12 15q0 2 3 8q24 6 38.5 9.5t19.5 4.5q20 3 34 5.5t22 4.5q30 4 30 48q0 43 -46 43q-21 0 -33 -14l-75 -84q-4 -4 -11 4l-3 3l37 119l1 9q-5 41 -45 41q-47 -6 -47 -42l3 -18l32 -107l-6 -6l-5 -3l-53 58l-22 24q-19 20 -42 17q-40 -5 -40 -47
q0 -37 38 -45l98 -20q14 -3 11 -18l-51 -16l-61 -8q-36 -5 -36 -48q0 -21 13 -33.5t33 -12.5l19 4q11 5 17 12l75 80q5 5 10 2q7 -3 4 -11l-32 -94l-4 -24q0 -20 13 -33t33 -13q18 0 29.5 14t11.5 34v11l-1 11l-33 94q-2 8 6 12.5t10 0.5l84 -93q6 -8 36 -8q13 0 23.5 16.5
t10.5 30.5q0 38 -37 45zM230 508q0 -1 1 -1zM194 505q0 -1 1 -1v1h-1zM195 505v1v-1zM355 514q44 -8 44 -54q0 -9 -3.5 -18.5t-9.5 -18t-13.5 -14t-16.5 -5.5q-17 0 -27.5 2.5t-15.5 7.5l-82 92q-2 0 -2 -2v-3l34 -96l1 -7v-13q0 -24 -14 -40.5t-37 -16.5t-39 16.5t-16 40.5
l3 20l33 97l-74 -79l1 1q-9 -11 -23 -15l-18 -4q-25 0 -41 14.5t-16 40.5q0 53 44 57l61 8h-2l44 14q-1 1 -2 1l-1 1l-98 20q-45 9 -45 54q0 49 48 57h6q23 0 43 -20l23 -24l45 -52l-28 98l-4 22q0 45 55 52q50 0 55 -50l-1 -13l-36 -113l73 81q15 17 39 17q55 0 55 -52
t-38 -57h1q-4 -1 -9 -1.5t-11 -2.5q-8 -2 -17 -3t-20 -3q-4 -1 -17 -4.5t-36 -8.5q0 -5 5 -7l-1 1zM357 523l-76 14q8 2 13.5 3t9.5 2q24 3 38 6q6 2 11 2.5t9 1.5h-1q45 6 45 66q0 61 -64 61q-28 0 -47 -20l-44 -51l24 78l1 12q-6 59 -65 59q-63 -8 -63 -62l3 -18l19 -67
l-20 23l-23 25h1q-21 23 -50 23h-8q-55 -8 -55 -66q0 -53 52 -63l69 -15l-10 -3l-60 -8h1q-53 -6 -53 -66q0 -29 19.5 -46.5t48.5 -17.5l18 4q18 7 27 18v-1l44 47l-18 -54l-4 -24q0 -29 18.5 -48t45.5 -19q26 0 43 19t17 47v14l-2 12l-21 60l56 -63q13 -13 50 -13
q10 0 19.5 6.5t17 16t11.5 21t4 21.5q0 54 -51 63zM186 509l-1 -2v0q0 1 1 2z" />
    <glyph glyph-name="plus" unicode="+" horiz-adv-x="518" 
d="M487 320h-197v224h-69v-224h-189v-67h189v-211h69v211h197v67zM496 244h-197v-211h-87v211h-190v86h190v223h87v-223h197v-86zM505 339h-197v223h-105v-223h-190v-104h190v-212h105v212h197v104z" />
    <glyph glyph-name="comma" unicode="," horiz-adv-x="239" 
d="M207 109h-164v-92h56q11 0 11 -16q0 -25 -16 -25q-3 -8 -33 -8l-28 2v-37l32 -4l18 -1q74 -3 124 49v132zM215 -26q-50 -54 -123 -54h-9l-19 1l-39 4v55l37 -4q23 0 26 8q14 0 14 17q0 7 -3 7h-64v109h180v-143zM223 126h-197v-126h68q-2 -8 -12 -8q-3 -5 -19 -7l-47 4
v-72l47 -5l19 -1h10q38 0 71 15t60 44v156z" />
    <glyph glyph-name="hyphen" unicode="-" horiz-adv-x="426" 
d="M392 274h-358v-79h358v79zM401 187h-376v95h376v-95zM410 289h-394v-109h394v109z" />
    <glyph glyph-name="period" unicode="." horiz-adv-x="227" 
d="M194 76h-161v-62h161v62zM203 7h-179v76h179v-76zM211 90h-195v-90h195v90z" />
    <glyph glyph-name="slash" unicode="/" horiz-adv-x="325" 
d="M220 692l-183 -673h68l183 673h-68zM301 702l-189 -693h-88l189 693h88zM207 711l-194 -711h105l194 711h-105z" />
    <glyph glyph-name="zero" unicode="0" horiz-adv-x="483" 
d="M448 515q0 75 -72 113q-58 31 -136 31q-79 0 -132 -25q-74 -35 -74 -104v-384q0 -131 227 -131q187 0 187 128v372zM262 161v354q0 40 51 40q19 0 33 -7q20 -11 20 -26v-358q0 -23 -14 -36.5t-37 -13.5q-21 0 -37 13.5t-16 33.5zM271 161q0 -16 13 -26.5t31 -10.5t30 11
t12 29v358q0 11 -14 17q-14 7 -30 7q-42 0 -42 -31v-354zM458 143q0 -137 -197 -137q-236 0 -236 140v384q0 76 79 112q57 27 136 27q81 0 140 -32q78 -42 78 -122v-372zM467 515q0 85 -83 130q-62 33 -144 33q-80 0 -140 -27q-84 -41 -84 -121v-384q0 -150 245 -150
q206 0 206 147v372zM280 161v354q0 22 33 22q15 0 26 -6h-1q9 -4 9 -9v-358q0 -14 -9 -22.5t-23 -8.5t-24.5 8t-10.5 20z" />
    <glyph glyph-name="one" unicode="1" horiz-adv-x="372" 
d="M338 665h-159l-147 -127v-101l81 50v-468h225v646zM347 9h-243v461l-81 -50v122l152 133h172v-666zM356 684h-183l-159 -138v-142l81 50v-454h261v684z" />
    <glyph glyph-name="two" unicode="2" horiz-adv-x="487" 
d="M232 668q-44 0 -77 -12q-56 -20 -89 -63q-36 -46 -33 -104l2 -32l5 -30h82l-2 24q-3 35 12 65q18 36 49 36q57 0 57 -134q0 -23 -2.5 -43.5t-9.5 -39.5q-15 -46 -41 -70l-38 -36q-18 -18 -29 -30.5t-13 -19.5q-20 -23 -40 -76q-8 -24 -14 -45t-8 -39h381v99h-246l137 103
q39 30 60 48t23 25q29 21 44 83q12 48 12 95q0 95 -68 147q-61 49 -154 49zM232 678q97 0 160 -51q71 -55 71 -155q0 -50 -12 -98v1q-17 -65 -47 -89q-13 -19 -84 -72l-115 -86h228v-119h-400q6 48 24 98q9 26 18.5 44t20.5 31q6 17 45 53l38 36q23 23 39 66q6 18 8.5 38
t2.5 43q0 124 -48 124q-26 0 -41 -31v1q-11 -25 -11 -50v-10l3 -34h-101l-5 37l-2 34v12q0 54 35 98q34 43 93 65h-1q17 8 37.5 11t43.5 3zM232 687q-24 0 -45.5 -3t-38.5 -10q-60 -23 -96 -69q-37 -46 -37 -104v-12l2 -35l7 -46h118l-4 45v9q0 25 10 45q14 26 33 26
q39 0 39 -115q0 -22 -3 -41t-8 -37v1q-14 -40 -37 -62l-38 -36q-18 -18 -29.5 -31.5t-16.5 -23.5q-21 -29 -40 -78q-10 -26 -16 -53.5t-10 -56.5h421v137h-209l92 69q35 26 56.5 45t29.5 30q29 26 47 91q13 51 13 100q0 103 -75 162q-65 53 -165 53z" />
    <glyph glyph-name="three" unicode="3" horiz-adv-x="477" 
d="M380 362q22 34 32 70t10 75q0 84 -57 126q-50 35 -135 35q-78 0 -133 -38q-62 -44 -62 -120q0 -23 9 -51h71l2 46q1 20 14 38.5t30 18.5l25 -8q20 -6 20 -12v-126q0 -38 -44 -33l-21 2l-22 4v-82l30 1q42 1 57 -23v-135q0 -43 -47 -43q-50 0 -50 58q0 13 6 28h-77
q-2 -11 -3.5 -21.5t-1.5 -22.5q0 -84 60 -117q43 -23 135 -23q215 0 215 199q0 101 -63 154zM432 507q0 -75 -40 -143q61 -56 61 -156q0 -208 -225 -208q-95 0 -140 24q-64 34 -64 125q0 12 2 25.5t4 27.5h99q-10 -26 -10 -37q0 -49 40 -49q38 0 38 34v133q-7 8 -17 12
t-27 4h-4l-39 -1v102l32 -6h-1l22 -2h7q27 0 27 24v125q-4 0 -13 4l-26 7q-13 -2 -22 -16t-10 -31l-2 -56h-86q-7 20 -9.5 35t-2.5 26q0 82 66 127q56 40 138 40q89 0 141 -37q61 -44 61 -133zM441 507q0 94 -65 141q-56 39 -146 39q-83 0 -143 -42v1q-70 -48 -70 -136
q0 -11 3 -28.5t11 -41.5h101l3 64q0 14 7 25.5t17 13.5l23 -7q4 -1 5 3v-123q0 -14 -17 -14h-7l-21 2h1l-42 7v-124l49 2h3q25 0 34 -11v-128q0 -24 -28 -24q-31 0 -31 39q0 5 3 16t11 31h-120q-3 -17 -5 -33t-2 -30q0 -94 70 -134q46 -24 143 -24q234 0 234 217
q0 100 -58 158q37 64 37 141z" />
    <glyph glyph-name="four" unicode="4" horiz-adv-x="511" 
d="M477 246h-41v419h-179l-225 -408v-100h191v-138h213v138h41v89zM122 246l101 170v-170h-101zM214 255v127l-76 -127h76zM486 147h-41v-138h-231v138h-191v113l229 415h193v-420h41v-108zM496 265h-42v419h-207l-233 -422v-124h191v-138h249v138h42v127zM154 265l51 84
v-84h-51z" />
    <glyph glyph-name="five" unicode="5" horiz-adv-x="464" 
d="M245 499q-73 0 -128 -44v106h268v108h-348v-323h77l6 14q16 36 51 36l23 -5q12 -5 12 -10v-242q0 -14 -19 -21q-15 -6 -30 -6q-12 1 -20.5 6t-8.5 13q-9 4 -14 52v32h-70l-8 -38q-1 -5 -1.5 -13t-0.5 -19q0 -80 70 -110q49 -19 136 -19q113 0 157 65q37 56 34 181l-1 36
v37q0 76 -57 123q-52 41 -128 41zM245 509q40 0 73.5 -11.5t60.5 -32.5q60 -48 60 -130v-37l1 -36v-17q0 -115 -36 -169q-46 -69 -164 -69q-92 0 -140 19q-75 33 -75 119q0 12 0.5 20t1.5 13l9 46h87v-41q5 -41 14 -46q0 -7 6 -10.5t14 -4.5q11 0 28 5q12 4 12 12v241
q-2 0 -6 2l-22 5q-28 -2 -40 -31l-10 -19h-91v342h366v-127h-268v-78q26 17 55.5 26t63.5 9zM245 518q-30 0 -58 -7t-52 -21v53h268v145h-384v-361h106l12 26v-1q10 22 30 25l21 -5v-233l-2 -0.5t-5 -2.5q-15 -5 -24 -5q-11 2 -11 13q-9 4 -14 39v50h-104l-10 -53
q-1 -5 -1.5 -13.5t-0.5 -21.5q0 -94 81 -128q51 -20 143 -20q122 0 172 74q37 58 37 174v17l-1 37v36q0 86 -64 138q-56 45 -139 45zM188 378v-5l-2 1q1 0 2 4z" />
    <glyph glyph-name="six" unicode="6" horiz-adv-x="467" 
d="M432 393q0 34 -35 54q-30 14 -66 14q-17 0 -21 -1q-15 -2 -28.5 -7t-24.5 -11v74q0 37 75 37q36 0 74 -11v96q-73 32 -193 32q-59 0 -115 -40q-64 -43 -64 -99v-409q0 -118 209 -118q61 0 115 22q74 28 74 82v285zM257 108v249q0 26 50 26q43 0 43 -17v-248
q-2 -11 -27 -18q-16 -4 -36 -4q-30 0 -30 12zM267 108q0 -3 20 -3q14 0 34 5h-1q20 6 21 9v247q0 8 -34 8q-40 0 -40 -17v-249zM442 108q0 -58 -81 -91q-60 -23 -118 -23q-218 0 -218 128v409q0 61 68 107q59 41 120 41q60 0 110 -8.5t92 -27.5v-114q-51 14 -83 14
q-65 0 -65 -27v-59q18 7 42 12h-1q4 1 23 1q20 0 37.5 -3.5t31.5 -11.5q42 -21 42 -62v-285zM451 393q0 46 -46 71q-34 16 -74 16q-20 0 -25 -1q-8 -2 -15.5 -4t-14.5 -4v45q0 18 56 18q18 0 41.5 -4t50.5 -12v132q-45 20 -97 29.5t-114 9.5q-66 0 -125 -43
q-72 -50 -72 -115v-409q0 -137 227 -137q64 0 122 23q86 35 86 100v285zM276 357q0 7 31 7q25 0 25 2v-246q0 3 -14 -2h1q-7 -2 -14.5 -3t-17.5 -1t-11 -5v248z" />
    <glyph glyph-name="seven" unicode="7" horiz-adv-x="507" 
d="M35 672v-134h160l-154 -519h232l195 653h-433zM481 682l-200 -673h-253l154 519h-156v154h455zM16 691v-172h154l-154 -519h271l206 691h-477z" />
    <glyph glyph-name="eight" unicode="8" horiz-adv-x="500" 
d="M384 361q43 66 43 146t-54 128q-50 43 -130 43q-99 0 -147 -65q-43 -58 -43 -161q0 -79 51 -128q-71 -36 -71 -150q0 -176 228 -176q112 0 162 60q43 52 43 148q0 113 -82 155zM299 424q-60 0 -60 70q0 28 15 49.5t38 21.5q20 0 35.5 -16t15.5 -37q0 -17 -14 -51
q-15 -37 -30 -37zM184 92q-59 0 -59 74q0 38 19 69q21 36 56 36q24 0 36 -35q5 -12 7 -26t2 -29q0 -89 -61 -89zM299 434q10 0 22 31q6 16 9.5 27.5t3.5 19.5q0 17 -12.5 30.5t-29.5 13.5q-19 0 -31.5 -18.5t-12.5 -43.5q0 -60 51 -60zM184 101q52 0 52 80q0 27 -8 51
q-10 29 -28 29q-31 0 -49 -31q-17 -27 -17 -64q0 -65 50 -65zM436 507q0 -78 -40 -143q40 -23 60 -62t20 -96q0 -99 -45 -155q-53 -62 -170 -62q-237 0 -237 185q0 110 66 152q-47 52 -47 126q0 104 46 167q51 69 154 69q84 0 136 -46q57 -48 57 -135zM445 507q0 91 -60 142
q-56 48 -142 48q-108 0 -162 -73q-47 -62 -47 -172q0 -72 41 -124q-60 -45 -60 -154q0 -195 246 -195q120 0 176 66q48 60 48 161q0 112 -76 162q36 63 36 139zM184 111q-41 0 -41 55q0 17 4.5 30.5t12.5 27.5q16 28 40 28q10 0 19 -24q8 -24 8 -47q0 -70 -43 -70zM299 443
q-42 0 -42 51q0 21 10 37t25 16q13 0 23 -10.5t10 -24.5q0 -15 -12 -43q-11 -26 -14 -26z" />
    <glyph glyph-name="nine" unicode="9" horiz-adv-x="473" 
d="M439 511q0 75 -83 110q-60 27 -144 27q-63 0 -116 -25q-61 -30 -61 -86v-276q0 -41 35 -65q32 -22 72 -22q7 0 16.5 2t19 6t17.5 8t13 9v-64q0 -39 -72 -39q-15 0 -17 1q-22 1 -52 18v-83q69 -23 179 -23q62 0 121 25q72 33 72 90v387zM122 277v241q0 27 43 27t43 -27
v-234q0 -23 -50 -23l-27 3q-9 4 -9 13zM131 277q0 -2 2 -3l25 -4q41 0 41 14v234q0 17 -34 17t-34 -17v-241zM448 124q0 -64 -78 -99q-56 -25 -124 -25q-116 0 -188 25v106q21 -12 36.5 -17.5t26.5 -6.5q2 -1 15 -1q63 0 63 29v46q-14 -7 -30 -12t-27 -5q-43 0 -77 25h1
q-40 26 -40 72v276q0 62 66 95q26 13 56.5 19t63.5 6q42 0 79.5 -6.5t68.5 -20.5q88 -39 88 -119v-387zM457 511q0 86 -93 127q-66 29 -152 29q-35 0 -65.5 -7t-57.5 -20q-73 -34 -73 -103v-276q0 -51 44 -81v1q36 -26 82 -26q10 0 22.5 3.5t25.5 8.5v-32q0 -20 -54 -20
q-10 0 -11 1q-22 1 -77 31v-128q84 -28 198 -28q67 0 128 26q83 37 83 107v387zM140 518q0 8 25 8t25 -8v-234q0 -5 -32 -5h2l-20 3v236z" />
    <glyph glyph-name="colon" unicode=":" horiz-adv-x="225" 
d="M195 406h-162v-90h162v90zM195 101h-162v-83h162v83zM203 9h-178v101h178v-101zM203 307h-178v108h178v-108zM211 424h-195v-126h195v126zM211 119h-195v-119h195v119z" />
    <glyph glyph-name="semicolon" unicode=";" horiz-adv-x="239" 
d="M206 425h-170v-88h170v88zM206 120h-170v-101h54q15 0 15 -27q0 -23 -12 -23q0 -8 -27 -8q-15 0 -33 5v-45q12 -2 23.5 -3.5t23.5 -1.5q90 0 126 63v141zM215 328h-187v106h187v-106zM215 -23q-40 -70 -135 -70q-14 0 -27.5 1.5t-28.5 3.5v66q29 -8 42 -8q19 0 19 9
q12 0 12 13q0 17 -7 17h-62v121h187v-153zM223 139h-204v-139h70q-1 0 -1 -8q0 -4 -12 -4q0 -8 -10 -8q-19 0 -50 9v-84q19 -4 35 -5.5t29 -1.5q99 0 143 75v166zM223 444h-204v-125h204v125z" />
    <glyph glyph-name="less" unicode="&#x3c;" horiz-adv-x="195" 
d="M163 184l-81 78l79 80v100l-132 -131v-101l134 -128v102zM171 62l-150 143v109l148 148v-123l-75 -77l77 -74v-126zM179 192l-73 70l71 72v148l-164 -163v-117l166 -159v149z" />
    <glyph glyph-name="equal" unicode="=" horiz-adv-x="398" 
d="M365 348h-331v-57h331v57zM365 219h-331v-57h331v57zM374 154h-349v73h349v-73zM374 282h-349v74h349v-74zM383 364h-367v-90h367v90zM383 236h-367v-91h367v91z" />
    <glyph glyph-name="greater" unicode="&#x3e;" horiz-adv-x="191" 
d="M162 318l-130 128v-100l78 -78l-76 -79v-102l128 123v108zM170 205l-144 -138v126l72 75l-74 74v125l146 -145v-117zM178 326l-162 160v-148l70 -70l-68 -70v-150l160 154v124z" />
    <glyph glyph-name="question" unicode="?" horiz-adv-x="553" 
d="M199 701q-87 0 -165 -30v-89l64 11q31 6 61 6q122 0 122 -129v-21l1 -20q1 -11 -2 -28q-6 -48 -30 -54l-94 -32q-42 -15 -42 -34v-138h210l-2 50q-1 29 22 57l49 11q64 17 98 72q30 52 30 124q0 124 -104 190q-87 54 -218 54zM314 112h-186v-93h186v93zM323 9h-204v112
h204v-112zM199 711q136 0 222 -55q109 -69 109 -199q0 -38 -8 -69.5t-23 -58.5q-40 -62 -104 -77l-46 -11q-18 -23 -18 -45v-3l2 -59h-228v147q0 27 48 42l94 32q16 5 24 47q1 5 1.5 10.5t0.5 10.5v6l-1 20v21q0 119 -113 119q-13 0 -27.5 -1.5t-31.5 -3.5l-75 -14v107
q42 17 85.5 25.5t88.5 8.5zM199 720q-90 0 -184 -36v-125l86 15q33 6 58 6q104 0 104 -110v-22l1 -20v-5q0 -4 -0.5 -9.5t-1.5 -10.5v1q-6 -35 -18 -39l-94 -32q-55 -20 -55 -52v-157h14v-124h223v124h11l-2 70v2q0 9 3 19t11 18l41 10q74 20 111 80q32 56 32 134
q0 136 -113 206q-90 57 -227 57z" />
    <glyph glyph-name="at" unicode="@" horiz-adv-x="721" 
d="M350 638q-166 0 -247 -119q-69 -101 -69 -274q0 -168 88 -241q81 -69 255 -69q149 0 223 80v85q-99 -85 -238 -85q-131 0 -191.5 57t-60.5 185q0 293 252 293q47 0 86 -9q156 -38 156 -162q0 -139 -70 -197v270h-159v-29q-35 41 -108 41q-30 0 -61 -17q-34 -19 -34 -49
v-239q0 -34 32 -57q27 -18 66 -18q73 0 102 46q30 -48 84 -48q107 0 174 106q29 46 43 97t14 109q0 126 -110 190q-90 54 -227 54zM318 179v185q0 19 32 19q25 0 25 -11v-187q0 -24 -29 -24q-28 0 -28 18zM327 179q0 -8 19 -8t19 14v187q0 2 -15 2q-23 0 -23 -10v-185z
M350 647q140 0 232 -54q115 -70 115 -199q0 -117 -60 -211q-69 -111 -181 -111q-52 0 -85 42q-33 -39 -101 -39q-40 0 -71 20h1q-37 24 -37 64v239q0 36 39 57q28 18 65 18q62 0 98 -27v15h179v-256q25 29 38 71.5t13 102.5q0 118 -149 152q-37 10 -84 10q-243 0 -243 -284
q0 -123 58.5 -177.5t184.5 -54.5q136 0 248 95v-109q-81 -86 -233 -86q-175 0 -261 71q-91 75 -91 249q0 176 71 280q83 122 254 122zM350 657q-175 0 -262 -128q-73 -106 -73 -284q0 -177 95 -255q44 -38 110 -56t157 -18q158 0 242 91v133q-1 -1 -2 -1v0q8 8 14.5 17.5
t14.5 20.5q60 96 60 217q0 136 -120 207q-94 56 -236 56zM362 531q44 0 82 -8q71 -18 105 -52h-193v-8q-38 20 -89 20q-35 0 -70 -20v1q-13 -8 -19 -13q58 80 184 80zM362 34q-120 0 -176.5 53t-56.5 170q0 90 24 150v-9v-239q0 -46 41 -73q31 -21 76 -21q66 0 101 34
q33 -36 85 -36q15 0 29.5 1.5t28.5 5.5q-75 -36 -152 -36zM585 379q0 -91 -32 -146v234q32 -37 32 -88zM337 179v185h13q4 0 6 5v-184q0 -5 -10 -5q-9 0 -9 -1z" />
    <glyph glyph-name="A" unicode="A" horiz-adv-x="749" 
d="M716 172q-8 -5 -12.5 -8t-8.5 -5q-24 -13 -37 -12q-13 0 -16 10l-161 509h-192l-156 -519q-15 -50 -76 -50l-24 3v-81q24 -15 58 -15q44 0 77 40q28 31 43 80h185q14 -52 53.5 -85t90.5 -33q96 0 176 83v83zM242 215l66 194l62 -194h-128zM255 224h102l-50 154zM725 85
q-86 -89 -185 -89q-53 0 -94 33t-58 85h-169q-16 -45 -43 -77q-38 -43 -85 -43q-36 0 -68 20v97l35 -4h-1q53 0 67 42l157 526h208l163 -515q0 -4 6 -4h2q5 0 13.5 3.5t19.5 8.5h2h-3q5 2 16 9.5t17 12.5v-105zM735 208q-6 -5 -21.5 -15t-23.5 -15q-23 -12 -30 -12h-2
l-163 519h-221l-159 -533q-11 -36 -56 -36l-45 6v-113q19 -13 38 -18.5t39 -5.5q52 0 92 46q26 31 41 74h158q18 -53 61 -85.5t97 -32.5q102 0 195 94v127zM307 348l37 -114h-75zM660 162l-2 4z" />
    <glyph glyph-name="B" unicode="B" horiz-adv-x="758" 
d="M629 366q55 55 55 143q0 76 -56 120q-52 41 -130 41h-450v-82h72v-453q0 -15 -22 -24q-18 -8 -35 -8q-15 0 -28 5v-65q53 -34 124 -34q56 0 124 31q80 38 80 88v185l9 2h10q29 0 58 -10q39 -12 39 -35v-131q0 -35 -54 -35q-16 0 -38 8v-74q27 -14 62 -21.5t80 -7.5
q195 0 195 207q0 100 -95 150zM363 395v196q3 1 5.5 1.5t6.5 0.5l15 2q41 0 64.5 -26t23.5 -70q0 -45 -24.5 -75.5t-65.5 -30.5zM372 584v-180l17 -2q36 0 57.5 28t21.5 69q0 38 -20.5 62t-56.5 24l-15 -1h-4zM694 509q0 -86 -50 -140q89 -53 89 -153q0 -216 -204 -216
q-93 0 -151 32v93q31 -12 47 -12q45 0 45 26v131q0 15 -33 26q-15 5 -28.5 7t-26.5 2h-8h-2v-177q0 -55 -85 -97q-68 -31 -128 -31q-75 0 -134 38v82q20 -7 38 -7q9 0 16.5 1.5t15.5 4.5q16 8 16 16v444h-72v100h459q82 0 136 -42q60 -48 60 -128zM703 509q0 44 -16 77
t-47 58h1q-56 45 -143 45h-469v-120h72v-434q0 -2 -10 -7q-14 -6 -28 -6q-5 0 -17.5 3.5t-29.5 8.5v-102q65 -41 143 -41q32 0 64 8t68 24q55 27 78 60v-57q63 -35 160 -35q214 0 214 225q0 97 -84 155q44 58 44 138zM434 288q26 -9 26 -18v-131q0 -16 -35 -16q-10 0 -43 11
v162q23 0 52 -8zM392 576q32 -1 49.5 -21.5t17.5 -55.5q0 -37 -18.5 -62t-50.5 -26l-8 1v162z" />
    <glyph glyph-name="C" unicode="C" horiz-adv-x="512" 
d="M479 165l-76 -47q-10 -6 -23 -9l-23 -3q-27 0 -46.5 13t-19.5 35v346q0 76 60 76q51 0 105 -45v86q-66 63 -182 63q-114 0 -182 -113q-58 -94 -58 -220q0 -146 53 -236q66 -111 198 -111q96 0 194 85v80zM488 81q-102 -90 -203 -90q-68 0 -120 28.5t-86 86.5
q-28 48 -41 107t-13 134q0 127 60 225q71 118 189 118q121 0 191 -70v-108q-68 54 -114 54q-50 0 -50 -66v-346q0 -17 16.5 -27.5t39.5 -10.5h-1l23 2h-1q13 3 21 8l89 56v-101zM497 198l-104 -63q-7 -5 -16 -7h1l-23 -3h2q-20 0 -33.5 7.5t-13.5 21.5v346q0 57 41 57
q44 0 123 -64v131q-77 75 -200 75q-125 0 -198 -121q-61 -101 -61 -231q0 -149 57 -246q70 -120 213 -120q102 0 212 96v121z" />
    <glyph glyph-name="D" unicode="D" horiz-adv-x="660" 
d="M466 665h-428v-96h71v-461h-74v-91h470q72 0 100 100q23 77 20 175l-1 39l-1 24q-8 177 -28 227q-36 83 -129 83zM466 108h-106v461h84q23 0 37 -15.5t22 -46.5q5 -21 7.5 -59t2.5 -93q0 -247 -47 -247zM466 117q38 0 38 238q0 54 -3 91.5t-8 59.5q-14 53 -49 53h-75
v-442h97zM466 675q99 0 137 -89q11 -26 18.5 -84t11.5 -147v-24l1 -39v-22q0 -90 -19 -156q-31 -106 -110 -106h-480v109h74v442h-70v116h437zM466 684h-446v-134h70v-423h-74v-129h489q85 0 118 113q21 72 21 159v22l-1 39l-1 25q-8 179 -30 234q-39 94 -146 94zM466 127
h-87v423h65q15 0 24.5 -12t16.5 -35q9 -39 9 -148q0 -228 -28 -228z" />
    <glyph glyph-name="E" unicode="E" horiz-adv-x="498" 
d="M465 182q-57 -54 -128 -54q-36 0 -55 38q-15 31 -15 70q0 44 35 82t77 34l17 -1v77l-24 -2q-40 -2 -66 22t-26 60q0 26 13.5 46.5t35.5 20.5q49 0 98 -23v79q-71 59 -171 59q-80 0 -141 -45q-69 -50 -69 -129q0 -92 76 -138q-88 -43 -88 -157q0 -94 61 -155
q64 -59 155 -59q125 0 215 105v70zM474 107q-94 -110 -224 -110q-95 0 -161 63q-65 63 -65 161q0 109 80 157q-67 49 -67 138q0 84 72 137q66 46 147 46q53 0 97.5 -16t82.5 -47v-98q-62 28 -107 28q-18 0 -28.5 -17.5t-10.5 -40.5q0 -31 21 -51.5t53 -20.5h7l34 3v-99
l-27 3h-7q-35 0 -63 -31q-32 -37 -32 -76q0 -38 15 -66v1q16 -34 46 -34q67 0 137 67v-97zM483 226q-83 -79 -146 -79q-25 0 -38 27q-14 28 -14 62t30 69q25 28 56 28h6l37 -3v119l-44 -4h-6q-28 0 -46.5 18t-18.5 45q0 19 8 33.5t22 14.5q43 0 116 -32v116q-83 69 -189 69
q-85 0 -152 -49q-76 -56 -76 -144q0 -87 60 -137q-73 -51 -73 -158q0 -102 67 -169q68 -64 168 -64q132 0 233 117v121z" />
    <glyph glyph-name="F" unicode="F" horiz-adv-x="559" 
d="M526 666h-367q-52 0 -89 -60q-36 -60 -36 -125h84q0 35 19.5 61t51.5 26l15 -2v-170h-61v-96h61v-178q0 -21 -43 -21q-37 0 -68 14v-87q38 -14 78 -22t84 -8q26 0 53.5 6.5t59.5 18.5q78 31 78 74v203h63v96h-63v166h80v104zM535 553h-80v-148h63v-114h-63v-194
q0 -47 -84 -83q-62 -25 -116 -25q-90 0 -171 33v109q40 -20 77 -20q34 0 34 11v169h-62v114h62v152l-7 1q-27 -1 -44 -26.5t-17 -60.5h-102q0 80 37 139q40 66 97 66h376v-123zM544 685h-385q-62 0 -105 -69q-39 -63 -39 -154h121q0 33 14 59t35 28v-134h-61v-134h61v-159
q0 -2 -24 -2q-32 0 -86 26v-131q87 -36 180 -36q53 0 119 26q90 37 90 92v184h64v134h-64v128h80v142z" />
    <glyph glyph-name="G" unicode="G" horiz-adv-x="611" 
d="M577 455h-236v-112q-5 -27 -39 -27l-22 4v180q0 87 140 87q50 0 115 -17v89q-101 18 -213 18q-127 0 -203 -60q-85 -66 -85 -191q0 -85 67 -149q75 -70 154 -63l46 4q24 5 40 14v-93q-35 -31 -90 -31q-76 0 -167 57v-100q112 -59 229 -59q110 0 191 51q73 47 73 86v312z
M586 143q0 -45 -78 -94q-85 -53 -195 -53q-121 0 -239 64v122q103 -65 177 -65q46 0 81 26v73q-8 -3 -14.5 -4.5t-13.5 -3.5l-48 -4h-15q-77 0 -147 67q-69 64 -69 155q0 129 89 199q79 61 208 61q59 0 114.5 -4t107.5 -15v-109q-72 19 -124 19q-130 0 -130 -77v-172l14 -2
q25 0 28 19v120h254v-322zM595 474h-273v-128v-1q-3 -10 -17 -10l-6 1v164q0 68 121 68q47 0 133 -23v130q-114 21 -231 21q-135 0 -214 -64q-93 -72 -93 -206q0 -93 73 -163q72 -69 153 -69q4 0 8 0.5t8 0.5l49 4q4 1 8 1.5t8 2.5v-55q-14 -11 -32.5 -16t-38.5 -5
q-70 0 -186 71v-144q125 -67 248 -67q115 0 201 54q81 52 81 102v331z" />
    <glyph glyph-name="H" unicode="H" horiz-adv-x="840" 
d="M806 178q-42 -25 -60 -25l-18 4v513h-266v-208h-82v208h-341v-89h84v-427q0 -42 -59 -42l-29 3v-76q37 -14 76 -21t81 -7q50 0 113 26q75 33 75 75v234h82v-238q0 -51 54 -78q21 -9 45.5 -14t53.5 -5q37 0 110 29q81 31 81 64v74zM815 104q0 -37 -86 -73
q-73 -29 -114 -29q-58 0 -103 20q-60 30 -60 86v229h-62v-225q0 -48 -81 -84q-32 -14 -61.5 -20t-55.5 -6q-85 0 -166 31v93l39 -5q48 0 48 33v417h-84v108h361v-207h62v207h285v-514l11 -2q17 2 67 32v-91zM825 211q-29 -18 -48.5 -27.5t-27.5 -11.5h-1h1h-2v516h-304v-207
h-44v207h-379v-126h84v-408q0 -24 -37 -24l-51 7v-111q44 -17 87.5 -25.5t88.5 -8.5q53 0 120 28q87 36 87 92v215h44v-219q0 -62 65 -95q23 -10 49 -15.5t58 -5.5q42 0 117 30q48 19 70.5 40t22.5 42v107z" />
    <glyph glyph-name="I" unicode="I" horiz-adv-x="419" 
d="M385 666h-337v-82h98v-437q0 -34 -63 -34q-15 0 -27 2t-22 7v-86q8 -4 17 -7.5t18 -5.5q50 -14 112 -14q73 0 132 32q72 40 72 109v516zM394 150q0 -74 -77 -118q-58 -32 -136 -32q-33 0 -62 3.5t-53 9.5q-8 3 -18.5 7t-22.5 9v108q30 -15 58 -15q54 0 54 25v428h-98v100
h355v-525zM403 685h-373v-120h98v-418q0 -16 -45 -16q-25 0 -67 21v-128q14 -7 26.5 -11.5t20.5 -7.5q26 -8 56 -11t62 -3q78 0 140 33q82 47 82 126v535z" />
    <glyph glyph-name="J" unicode="J" horiz-adv-x="411" 
d="M377 671h-330v-85h85v-116h-85v-93h85v-360q0 -25 -40 -25l-32 4q-15 5 -26 12v-77q60 -45 144 -45q66 0 123 29q76 38 76 95v661zM386 10q0 -63 -81 -103q-61 -31 -127 -31q-87 0 -153 51v97q11 -8 20 -12t17 -6h-1l32 -4q30 0 30 15v350h-85v113h85v96h-85v105h348
v-671zM395 690h-366v-124h85v-77h-85v-131h85v-341q0 -6 -22 -6h1l-31 4l3 -1q-6 2 -17.5 8.5t-31.5 17.5v-118q73 -56 162 -56q35 0 67.5 8t64.5 24q85 42 85 112v680z" />
    <glyph glyph-name="K" unicode="K" horiz-adv-x="835" 
d="M801 174l-51 -24q-12 -3 -22 -3q-12 1 -13 10l-10 154q-4 67 -110 67q-37 0 -81 -16l166 304h-139l-166 -257v257h-326v-89h79v-438q0 -27 -44 -27l-28 2l-21 8v-79q73 -37 137 -37q80 0 137 30q66 37 66 107v145q1 15 36 15q15 0 19 -1q35 -6 35 -15q11 0 9 -23l-2 -29
l-4 -48q0 -97 35 -133q37 -41 130 -41q77 0 168 95v66zM811 104q-97 -100 -178 -100q-97 0 -137 43q-38 43 -38 141l5 48l2 29v5q0 7 -10 7q0 11 -27 15q-4 1 -17 1q-24 0 -26 -5v-145q0 -74 -72 -116q-29 -15 -63.5 -23t-77.5 -8q-32 0 -69 10t-77 31v98l33 -12l-2 1l28 -3
q33 0 33 18v428h-78v108h345v-235l151 235h160l-162 -297q17 5 32 7.5t29 2.5q116 0 119 -76l11 -154q0 -2 4 -2q8 0 17 3l65 29v-84zM820 203l-78 -36l1 1q-8 -2 -10 -2l-9 146q-6 85 -129 85q-11 0 -21 -1t-21 -3l160 292h-182l-137 -211v211h-364v-127h79v-419
q0 -8 -23 -8l-25 1l-45 17v-118q90 -44 156 -44q44 0 79.5 8t65.5 24q77 44 77 124v143q0 -2 17 -2h11t10 -2q14 -2 14 -14q9 0 9 2v-5l-2 -29l-4 -47q0 -107 40 -148v1q41 -48 144 -48q85 0 187 106v103z" />
    <glyph glyph-name="L" unicode="L" horiz-adv-x="548" 
d="M515 174q-23 -35 -61.5 -55.5t-80.5 -18.5l-48 4q-20 6 -40 14q45 14 73.5 47t28.5 74v327q1 10 43 10l31 -3l27 -7v62q-52 50 -162 50q-26 0 -53 -6.5t-57 -18.5q-74 -30 -74 -75v-357q0 -70 -109 -103v-72q25 12 71 12q47 0 113 -17l143 -37q49 0 90 22q47 26 65 67v81
zM524 91q-22 -47 -70 -74q-44 -23 -96 -23l-144 37q-32 9 -59.5 13t-50.5 4q-47 0 -80 -16v94q108 33 108 95v357q0 52 80 84q60 25 114 25q113 0 171 -55v-78l-38 9h1l-31 3q-33 0 -33 -1v-326q0 -39 -23.5 -71t-61.5 -50q4 -2 8 -2.5t8 -1.5h-1l48 -4h8q37 0 75.5 26.5
t66.5 68.5v-114zM533 237q-34 -52 -75 -85t-76 -33h-7l-38 3q31 20 49.5 50.5t18.5 66.5v322q1 -4 24 -4l30 -3l-3 1l51 -12v93q-64 61 -181 61q-54 0 -117 -26q-43 -17 -64.5 -40.5t-21.5 -52.5v-357q0 -57 -109 -88v-115q46 21 90 21q23 0 50.5 -4t57.5 -12l147 -38
q54 0 99 24q54 28 75 80v148z" />
    <glyph glyph-name="M" unicode="M" horiz-adv-x="929" 
d="M895 157q-11 -5 -20.5 -8.5t-15.5 -5.5h-16l-25 4v519h-203l-152 -285l-133 285h-295v-93h71v-445q0 -15 -17 -25.5t-36 -10.5l-11 1v-80q9 -3 19 -4t21 -1q15 0 32 2.5t36 8.5q48 15 48 39v316l183 -366l194 352v-287q0 -25 62 -47q53 -17 82 -17q37 0 101 23
q75 27 75 57v68zM857 151h-1h1zM905 89q0 -37 -82 -65q-66 -24 -104 -24q-31 0 -85 18q-68 24 -68 55v249l-185 -335l-173 346v-275q0 -17 -13.5 -28t-41.5 -21q-39 -11 -71 -11q-24 0 -49 9v96l21 -2q15 0 29 8t14 19v436h-71v111h310l127 -273l146 273h219v-520l17 -3h14
l-2 -1l17.5 7t30.5 13v-82zM914 185q-21 -9 -35.5 -15t-22.5 -8h-10l-8 1v522h-235l-139 -261l-122 261h-326v-131h71v-426q0 -8 -10.5 -12.5t-21.5 -4.5l-32 2v-113q17 -6 32 -8.5t27 -2.5q17 0 35.5 2.5t38.5 9.5q30 10 45.5 23.5t15.5 33.5v234l163 -326l176 319v-212
q0 -39 74 -64q27 -10 49.5 -14t39.5 -4q22 0 48.5 5.5t59.5 17.5q87 31 87 75v96zM853 161h1h-1z" />
    <glyph glyph-name="N" unicode="N" horiz-adv-x="776" 
d="M741 669h-239v-327l-169 327h-298v-88h78v-438q-1 -15 -13 -22.5t-30 -7.5q-22 0 -35 9v-76q25 -16 56 -24.5t67 -8.5q38 0 69.5 8t58.5 22q66 39 66 107v258l196 -391h193v652zM750 8h-207l-182 361v-219q0 -75 -70 -115q-55 -31 -133 -31q-75 0 -133 38v97
q29 -16 45 -16q14 0 23 5t10 15v428h-78v108h314l153 -297v297h258v-671zM760 688h-277v-268l-139 268h-328v-126h78v-419q-2 -6 -8.5 -8.5t-15.5 -2.5q-14 0 -54 23v-119q65 -42 142 -42q40 0 74.5 8.5t63.5 23.5q75 45 75 124v178l165 -330h224v690z" />
    <glyph glyph-name="O" unicode="O" horiz-adv-x="607" 
d="M574 638q-31 -21 -61 -26v54h-152v-19q-104 27 -184 27q-58 0 -100 -45q-42 -44 -42 -102v-409q0 -37 45 -70q64 -44 187 -44q89 0 154 25q92 38 92 114v357q39 6 61 39v99zM340 100q-22 0 -42 10q-27 10 -27 29v419q12 40 48 46q18 0 39 -12l-7 -20q-2 -8 -2 -19
q0 -13 4.5 -25.5t12.5 -22.5t18.5 -16t23.5 -6l14 2v-342q0 -22 -32 -34q-23 -9 -50 -9zM340 110q14 0 25.5 2t21.5 5q26 11 26 26v330h-4q-30 0 -49.5 25t-19.5 55q0 13 2 21l4 13q-14 7 -27 7q-26 -4 -39 -38v-417q0 -10 22 -21q21 -8 38 -8zM583 536q-24 -35 -61 -45
v-348q0 -83 -97 -122q-68 -27 -158 -27q-126 0 -193 47q-48 34 -48 77v409q0 62 45 109t106 47q39 0 82.5 -5.5t92.5 -17.5v16h170v-52q13 3 28.5 10.5t32.5 21.5v-120zM592 675q-36 -26 -60 -37v47h-189v-14q-92 22 -166 22q-65 0 -113 -50t-48 -116v-409q0 -47 53 -85
q69 -48 198 -48q47 0 87 6t74 20q104 42 104 132v342q19 5 33.5 17.5t26.5 29.5v143zM340 119q-19 0 -35 8t-16 12v417q11 25 31 29q7 0 15 -3l-2 -6q-2 -4 -2 -10v-13q0 -32 20 -58.5t52 -30.5v-321q0 -9 -19 -16q-21 -8 -44 -8z" />
    <glyph glyph-name="P" unicode="P" horiz-adv-x="641" 
d="M470 665h-435v-89h84v-422q0 -43 -24 -43h-60v-92h283q12 0 29 17q16 19 16 33v74l50 8l62 10q132 19 132 268q0 91 -25 151q-34 85 -112 85zM410 241q-3 -5 -23 0l-24 5v327l22 4l27 3q102 0 102 -147q0 -192 -104 -192zM410 250q94 0 94 183q0 136 -91 138l-27 -3h1
l-15 -4v-311l20 -4q2 -1 5 -1h6h1zM470 675q82 0 121 -91q26 -64 26 -155q0 -257 -141 -278l-62 -9h1l-43 -8v-65q0 -16 -19 -40q-17 -20 -35 -20h-292v112h69q15 0 15 33v413h-84v108h444zM470 684h-454v-127h85v-403q0 -24 -6 -24h-79v-130h302q23 0 43 23q10 12 15 23
t5 23v58l35 5l62 10q148 22 148 287q0 93 -27 159q-41 96 -129 96zM397 254q2 2 3 2.5t2 1.5q-3 0 -7.5 0.5t-11.5 2.5h-2v295l8 2h-2l27 3q81 -2 81 -128q0 -173 -85 -173z" />
    <glyph glyph-name="Q" unicode="Q" horiz-adv-x="546" 
d="M511 538q0 75 -82 114q-62 28 -146 28q-41 0 -79 -6t-73 -20q-98 -36 -98 -104v-402q23 -83 101 -121q67 -32 157 -32q46 0 85 9l124 -93v112l-27 27q38 52 38 108v380zM399 109l-80 49v-61q-49 6 -49 28v406q0 28 20.5 47t49.5 19q30 0 53 -13q31 -15 31 -42v-391
q0 -27 -25 -42zM310 175l89 -55q16 13 16 31v391q0 20 -25 33q-12 6 -24 9.5t-26 3.5q-25 0 -43 -17t-18 -40v-406q0 -13 31 -17v67zM520 158q0 -29 -9 -55t-26 -52l24 -24v-135l-135 101q-19 -3 -39.5 -5t-43.5 -2q-95 0 -160 32q-84 41 -107 127v405q0 73 104 112
q72 28 155 28q84 0 149 -30q88 -39 88 -122v-380zM530 538q0 87 -94 131q-68 30 -153 30q-43 0 -82.5 -6.5t-76.5 -20.5q-109 -40 -109 -122v-403q24 -96 111 -137q71 -34 165 -34q43 0 81 8l147 -110v156l-22 22q33 49 33 106v380zM301 119q-13 3 -13 6v406q0 20 16 33.5
t36 13.5q26 0 45 -11q20 -10 20 -25v-391q0 -12 -8 -20l-96 61v-73z" />
    <glyph glyph-name="R" unicode="R" horiz-adv-x="817" 
d="M783 172q-29 -22 -58 -21q-15 0 -15 10v55q0 143 -91 154q21 32 31 66.5t10 72.5q0 61 -32 106q-36 51 -94 51h-499v-85h82v-450q0 -22 -32 -22q-27 0 -50 13v-76q69 -37 155 -37q71 0 121 29q61 34 61 101v161h68q18 0 18 -26v-162q0 -52 47 -78q19 -9 42 -14t52 -5
q58 0 107 20q56 24 77 73v64zM504 385h-132v206h146q28 0 49 -27q17 -26 17 -55q0 -35 -23 -76q-26 -48 -57 -48zM504 394q26 0 49 44q22 41 22 71q0 27 -16 49q-17 23 -41 23h-137v-187h123zM792 106q-11 -26 -31.5 -46.5t-50.5 -33.5q-47 -20 -111 -20q-62 0 -99 20
q-52 28 -52 86v162q0 16 -8 16h-59v-151q0 -72 -65 -110q-51 -29 -126 -29q-92 0 -165 41v97q38 -20 60 -20t22 13v440h-82v104h509q64 0 101 -55q35 -49 35 -111q0 -35 -9.5 -68t-26.5 -65q85 -19 85 -160v-55h10q25 0 63 30v-85zM802 211q-50 -41 -73 -41v46
q0 137 -80 166q30 58 30 127q0 68 -36 117v-1q-42 60 -109 60h-518v-123h82v-431q0 -3 -13 -3q-23 0 -69 25v-118q79 -44 174 -44q77 0 130 31q71 40 71 117v142h48q-1 -1 -1 -7v-162q0 -63 58 -95q20 -10 45.5 -15.5t57.5 -5.5t60 5.5t54 16.5q64 27 89 87v106zM504 404
h-113v168h127q19 0 34 -20l-1 1q14 -22 14 -44q0 -30 -21 -67q-19 -38 -40 -38z" />
    <glyph glyph-name="S" unicode="S" horiz-adv-x="481" 
d="M427 312l-122 161q-14 18 -19 32q-8 27 -8 41q4 32 25 32q58 0 123 -46v100q-83 72 -186 72q-79 0 -138 -59q-57 -60 -57 -140q0 -20 8 -50q12 -30 23 -45l63 -85q60 -79 67 -98q12 -20 12 -36q0 -28 -20.5 -46.5t-48.5 -18.5q-58 0 -105 56l-10 -109q95 -65 202 -65
q92 0 151 57q61 59 61 153q0 33 -5.5 56.5t-15.5 37.5zM434 318q23 -31 23 -100q0 -98 -64 -159q-61 -61 -157 -61q-109 0 -212 70l13 138q58 -70 112 -70q24 0 42 15.5t18 39.5q0 16 -10 30q-3 8 -19.5 33t-47.5 66l-64 84q-5 7 -11 19.5t-13 30.5q-4 14 -6 26.5t-2 24.5
q0 86 60 146q60 62 144 62q109 0 195 -77v-122q-77 55 -132 55q-13 0 -16 -23q0 -8 2 -17.5t5 -20.5q3 -8 19 -29zM441 323l-121 162q-7 9 -11 15t-6 11q-3 10 -5 18t-2 14v1v2v-2q1 16 7 16q53 0 141 -64v144q-94 83 -204 83q-86 0 -151 -65q-62 -65 -62 -153
q0 -12 2.5 -27.5t7.5 -34.5q5 -13 11.5 -24t12.5 -21l63 -84q31 -39 46.5 -62.5t18.5 -31.5q11 -17 11 -29q0 -20 -15.5 -33t-35.5 -13q-50 0 -119 84l-15 -165q109 -75 221 -75q101 0 164 63v-1q66 63 66 167q0 72 -25 105z" />
    <glyph glyph-name="T" unicode="T" horiz-adv-x="584" 
d="M550 168q-47 -39 -82 -39q-8 0 -15.5 1t-15.5 5v434h95v101h-365q-63 0 -98.5 -43.5t-35.5 -112.5v-15l2 -19h73l-1 14q-1 31 25 55q27 24 60 24v-461q0 -56 63 -83q46 -18 110 -18q144 0 185 74v83zM559 82q-43 -80 -194 -80q-66 0 -114 19q-69 29 -69 91v451
q-24 -3 -44 -20q-22 -19 -22 -47v-1l2 -24h-92l-2 27v16q0 37 10 67t28.5 52t45 34t59.5 12h374v-119h-95v-419q10 -3 22 -3q32 0 91 51v-107zM568 209q-70 -61 -100 -61h-13v402h96v138h-384q-35 0 -63.5 -12.5t-48.5 -35.5t-30.5 -55t-10.5 -71v-17l4 -36h109l-2 34v1
q0 22 19 39q6 7 13.5 10.5t15.5 5.5v-439q0 -69 74 -101q48 -19 118 -19q154 0 203 88v129z" />
    <glyph glyph-name="U" unicode="U" horiz-adv-x="791" 
d="M757 181q-30 -24 -70 -24v512h-243v-476q0 -32 -58 -32q-38 0 -38 17v487h-314v-70h67v-452q0 -55 53 -91q46 -33 104 -33q70 0 107 23q28 16 61 62q73 -87 163 -87q52 0 97 25t71 70v69zM767 109q-28 -48 -75.5 -74.5t-102.5 -26.5q-90 0 -163 80q-29 -40 -57 -55
q-39 -24 -111 -24q-30 0 -57.5 9t-52.5 26q-57 39 -57 99v442h-66v90h332v-497q0 -8 29 -8q48 0 48 23v486h262v-513q33 5 71 35v-92zM776 222q-41 -34 -70 -43v509h-281v-495q0 -13 -39 -13q-19 0 -19 -2v506h-352v-108h67v-433q0 -66 61 -107v1q53 -37 115 -37
q73 0 116 26q26 13 52 48q75 -76 163 -76q57 0 107 29t80 80v115z" />
    <glyph glyph-name="V" unicode="V" horiz-adv-x="663" 
d="M629 651l-61 -39v54h-164v-112q0 -33 19.5 -53t52.5 -20v-307q0 -23 -30 -36q-23 -10 -50 -10q-41 0 -41 22v516h-322v-93h68v-430q0 -70 82 -109q66 -30 157 -30q92 0 153 37q75 45 75 131v324l61 42v113zM638 534l-61 -43v-319q0 -92 -79 -140q-64 -38 -158 -38
q-92 0 -161 32q-87 40 -87 117v421h-68v111h340v-525q0 -13 32 -13q23 0 46 10q25 9 25 27v297q-33 3 -52.5 25.5t-19.5 57.5v121h182v-47l61 39v-133zM648 686l-62 -40v39h-201v-131q0 -37 19 -61.5t54 -29.5v-289q0 -10 -19 -19q-17 -8 -43 -8q-22 0 -22 3v535h-359v-131
h67v-411q0 -83 93 -126q72 -32 165 -32q96 0 163 40q83 50 83 147v314l62 43v157z" />
    <glyph glyph-name="W" unicode="W" horiz-adv-x="1001" 
d="M966 662q-20 -29 -50 -35v42h-180v-78q0 -45 19 -74q8 -14 20 -20t27 -6q10 0 12 1v-295q0 -26 -17.5 -42t-43.5 -16q-51 0 -51 43v487h-259v-476q0 -29 -42 -29q-39 0 -39 29v476h-328v-81h73v-414q0 -74 54 -116q49 -39 127 -39q52 0 99 22.5t73 62.5q82 -89 222 -89
q84 0 152 37q82 47 82 122v331q30 9 50 40v117zM976 544q-22 -34 -50 -46v-324q0 -79 -88 -131q-68 -37 -156 -37q-138 0 -221 83q-29 -38 -75.5 -59t-97.5 -21q-42 0 -74.5 10.5t-57.5 30.5q-58 43 -58 124v405h-73v100h347v-486q0 -20 29 -20q32 0 32 20v486h279v-497
q0 -34 41 -34q22 0 37 13.5t15 35.5v284h-3q-36 0 -56 31q-20 32 -20 79v88h200v-39q20 13 50 51v-147zM985 720q-29 -41 -50 -60v28h-512v-495q0 -11 -22 -11q-20 0 -20 11v495h-366v-119h73v-395q0 -84 62 -131q52 -43 138 -43q51 0 97.5 19.5t76.5 55.5q85 -79 220 -79
q89 0 161 39q92 52 92 139v318q29 13 50 48v180zM738 507v1q19 -33 57 -36v-275q0 -17 -12 -28t-30 -11q-32 0 -32 24v366q6 -22 17 -41z" />
    <glyph glyph-name="X" unicode="X" horiz-adv-x="632" 
d="M599 174l-45 -27q-47 -28 -82 -28q-18 0 -37 9v186h87v110h-87v78q0 34 29 53q24 18 59 18q20 0 45 -10v91q-28 17 -52 17q-62 0 -111 -58q-80 71 -229 71q-41 0 -78 -8l-45 -9v-89q20 10 43 10q36 0 63.5 -20t27.5 -52v-92h-88v-110h88v-149q0 -48 -71 -48q-7 0 -13 0.5
t-11 1.5q-37 8 -57 28v-101q38 -35 77 -35q68 0 106 62q73 -71 185 -71q60 0 112.5 24.5t83.5 70.5v77zM608 94q-16 -25 -38.5 -44t-49.5 -32t-56.5 -19.5t-60.5 -6.5q-57 0 -102 17t-82 50q-39 -57 -107 -57q-44 0 -86 41v127q18 -19 34.5 -28t33.5 -13h-1q5 -1 11 -1.5
t12 -0.5q62 0 62 38v139h-88v130h88v82q0 27 -25 45t-57 18q-11 0 -23.5 -4t-28.5 -12v112l52 11q34 7 80 7q147 0 227 -67q49 54 113 54q29 0 61 -22v-109q-17 7 -30 11t-24 4q-31 0 -54 -16q-25 -18 -25 -46v-68h87v-130h-87v-169q13 -6 28 -6q33 0 77 26l59 36v-97z
M617 207l-73 -44q-20 -12 -37.5 -18.5t-34.5 -6.5h-10q-4 0 -9 2v155h87v148h-87v59q0 23 21 37q21 15 49 15q18 0 63 -20v130q-40 26 -70 26q-64 0 -113 -51q-85 64 -227 64q-44 0 -82 -8l-60 -12v-134q42 20 62 20q29 0 50.5 -15t21.5 -38v-73h-88v-148h88v-130
q0 -29 -52 -29q-5 0 -10.5 0.5t-10.5 1.5h1q-16 4 -35 16t-45 38v-154q51 -46 96 -46q68 0 109 53q74 -62 182 -62q65 0 122 28t92 79v117z" />
    <glyph glyph-name="Y" unicode="Y" horiz-adv-x="722" 
d="M687 677h-245v-472q0 -17 -11.5 -29.5t-28.5 -12.5q-18 0 -30 12.5t-12 29.5v468h-326v-113h70v-416q0 -52 41 -97q51 -44 124 -44q61 0 106 29q52 33 67 87v-96q0 -19 -21 -46t-40 -27q-10 -8 -48 -8q-39 0 -74 5t-66 16v-75q32 -18 74 -26.5t94 -8.5h61q130 0 181 21
q84 34 84 143v660zM697 17q0 -115 -90 -152q-51 -22 -185 -22h-61q-106 0 -178 39v94q72 -25 150 -25q36 0 44 9q18 0 36 23q19 23 19 40v50q-19 -30 -52 -50q-48 -30 -111 -30q-38 0 -71 12.5t-63 37.5q-40 47 -40 101v406h-70v132h345v-477q0 -14 9 -23t23 -9q13 0 21.5 9
t8.5 23v481h265v-669zM706 696h-283v-491q0 -10 -6 -16t-15 -6q-10 0 -16.5 6t-6.5 16v487h-364v-151h70v-397q0 -57 47 -111q58 -49 137 -49q66 0 116 31q23 15 38 31v-23q0 -11 -17 -34q-16 -20 -33 -20q-8 -8 -40 -8q-76 0 -159 28v-111q78 -44 187 -44h61q136 0 189 23
v-1q95 38 95 161v679z" />
    <glyph glyph-name="Z" unicode="Z" horiz-adv-x="660" 
d="M624 181q-63 -66 -133 -66h-128l79 198h138v114h-79l95 238h-526v-89h216l-72 -145h-126v-115h80l-123 -297h463q74 11 116 62v100zM633 77q-24 -28 -55 -45.5t-69 -22.5h-478l123 297h-76v134h131l62 127h-211v108h550l-96 -239h75v-133h-142l-71 -178h115q66 0 142 80
v-128zM643 230q-90 -96 -152 -96h-100l64 160h143v152h-69l95 238h-573v-127h204l-53 -107h-133v-153h71l-123 -297h494q78 10 132 75v155z" />
    <glyph glyph-name="bracketleft" unicode="[" horiz-adv-x="278" 
d="M243 -18h-97v669h96v94h-208v-859h209v96zM252 -123h-227v877h225v-113h-95v-650h97v-114zM261 1h-97v631h95v132h-242v-897h244v134z" />
    <glyph glyph-name="backslash" unicode="\" horiz-adv-x="584" 
d="M148 629h-101l394 -608h96zM554 11h-118l-406 627h123zM159 648h-146l418 -646h140z" />
    <glyph glyph-name="bracketright" unicode="]" horiz-adv-x="279" 
d="M245 744h-211v-91h100v-671h-100v-96h211v858zM253 -123h-228v114h100v652h-100v110h228v-876zM262 763h-245v-129h99v-633h-99v-134h245v896z" />
    <glyph glyph-name="asciicircum" unicode="^" horiz-adv-x="371" 
d="M233 550h-95l-88 -107h62l74 66l73 -66h63zM339 435h-84l-69 64l-71 -64h-82l100 122h105zM242 565h-113l-114 -138h104l67 60l66 -60h104z" />
    <glyph glyph-name="underscore" unicode="_" horiz-adv-x="638" 
d="M602 -42h-566v-47h566v47zM612 -95h-586v59h586v-59zM621 -30h-604v-72h604v72z" />
    <glyph glyph-name="grave" unicode="`" horiz-adv-x="264" 
d="M162 550h-110l106 -107h62zM234 435h-79l-122 122h134zM172 565h-158l137 -138h97z" />
    <glyph glyph-name="a" unicode="a" horiz-adv-x="623" 
d="M588 162q-11 -8 -21.5 -11.5t-19.5 -3.5l-11 1v368h-222v-38q-51 56 -140 56q-46 0 -88 -22q-50 -26 -50 -69v-326q0 -54 49 -82q39 -19 100 -19q22 0 39 3q55 12 86 58q33 -65 113 -65q44 0 94 25q44 24 71 62v63zM235 145v253q5 29 42 29q12 0 24.5 -6t12.5 -14v-255
q0 -32 -40 -32q-14 0 -26.5 8t-12.5 17zM245 145q0 -6 9 -10.5t20 -4.5q31 0 31 22v255q0 5 -9 8t-19 3q-30 0 -32 -20v-253zM598 96q-33 -44 -76 -67q-25 -14 -50 -20t-49 -6q-79 0 -114 57q-28 -37 -83 -51q-8 -2 -19 -2h-22q-65 0 -104 20q-55 29 -55 90v326
q0 26 14 44.5t42 33.5q21 11 44.5 16.5t47.5 5.5q79 0 131 -44v26h240v-368h5q7 0 19 5.5t29 18.5v-85zM607 199q-39 -29 -52 -33v369h-260v-16q-50 33 -121 33q-50 0 -96 -23q-30 -16 -45.5 -36.5t-15.5 -49.5v-326q0 -68 59 -98q22 -11 49 -16.5t60 -5.5q25 0 42 3
q52 11 81 44q39 -51 115 -51q49 0 103 28q47 26 81 72v106zM254 145v250q2 14 23 14q6 0 12 -0.5t6 -1.5v-255q0 -13 -21 -13q-8 0 -14 2t-6 4z" />
    <glyph glyph-name="b" unicode="b" horiz-adv-x="558" 
d="M523 435q0 45 -58 81q-51 32 -100 32q-66 0 -114 -42v164h-215v-548q0 -78 120 -108q37 -9 81 -14t98 -5q70 0 126 36q62 43 62 112v292zM251 97v306q0 27 32 27q10 0 16 -3q16 -9 16 -34v-293q-4 -23 -35 -23q-29 4 -29 20zM260 97q0 -8 21 -11q20 0 25 15v292
q0 18 -11 26h1q-2 0 -5.5 0.5t-7.5 0.5q-23 0 -23 -17v-306zM533 143q0 -73 -67 -119q-58 -38 -131 -38q-110 0 -180 19q-129 31 -129 117v558h234v-154q46 32 105 32q26 0 51.5 -8.5t53.5 -25.5v1q63 -40 63 -90v-292zM542 435q0 56 -68 97h1q-54 35 -110 35q-53 0 -95 -24
v146h-253v-567q0 -93 135 -126q38 -10 83.5 -15t99.5 -5q38 0 72.5 10t63.5 29q71 47 71 128v292zM270 403q0 8 13 8q2 0 3.5 -0.5t3.5 -0.5q7 -4 7 -17v-290q-1 -7 -14 -7h-2h2h-2l-11 1v306zM293 409l-3 1q1 -1 3 -1z" />
    <glyph glyph-name="c" unicode="c" horiz-adv-x="375" 
d="M341 172q-50 -38 -90 -38q-16 0 -16 11v273q1 9 18 9q21 0 41 -9v84q-54 35 -132 35q-35 0 -78 -29q-49 -31 -49 -64v-338q0 -48 47 -75q41 -22 89 -22q45 0 93 23q44 21 77 60v80zM350 88q-36 -42 -82 -65q-25 -12 -49.5 -17.5t-47.5 -5.5q-53 0 -93 22q-52 29 -52 84
v338q0 36 54 72q46 30 82 30q81 0 141 -38v-104q-29 13 -50 13h-9v-272q0 -1 7 -1q39 0 99 47v-103zM359 208q-70 -54 -106 -55v255q10 0 24.5 -4t34.5 -14v123q-67 43 -150 43q-38 0 -88 -32q-57 -38 -57 -80v-338q0 -60 56 -92q44 -23 98 -23q49 0 100 24q50 24 88 68v125
z" />
    <glyph glyph-name="d" unicode="d" horiz-adv-x="633" 
d="M598 172l-16 -16q-15 -12 -30 -12l-14 3v519h-214v-167l-66 30q-34 14 -70 14q-46 0 -95 -27q-58 -30 -58 -71v-345q0 -88 154 -88q69 0 124 53q26 -28 68.5 -43.5t82.5 -15.5q107 0 134 79v87zM240 174v215q0 31 40 31q44 0 44 -35v-207q0 -20 -12 -32.5t-32 -12.5
q-17 0 -28.5 12t-11.5 29zM249 174q0 -13 9.5 -22t21.5 -9q15 0 24.5 10t9.5 25v207q0 25 -34 25q-31 0 -31 -21v-215zM608 85q-30 -89 -144 -89q-39 0 -81.5 15t-70.5 41q-55 -49 -123 -49q-164 0 -164 97v345q0 45 63 80q26 14 50.5 20.5t49.5 6.5q20 0 38.5 -3.5
t35.5 -11.5l52 -23v161h234v-521l6 -1h-2q13 0 25 11l31 31v-110zM617 218l-47 -48q-7 -5 -13 -7v522h-252v-157l-40 18q-18 8 -37 12t-40 4q-52 0 -104 -29q-68 -36 -68 -88v-345q0 -107 173 -107q69 0 123 46q30 -24 72 -38t80 -14q62 0 99 23.5t54 71.5v136zM259 174v215
q0 12 21 12q25 0 25 -16v-207q0 -11 -7 -18.5t-18 -7.5q-9 0 -15 6.5t-6 15.5z" />
    <glyph glyph-name="e" unicode="e" horiz-adv-x="457" 
d="M422 175l-53 -29q-57 -33 -94 -33q-16 0 -35 7l-3 21l3 21q32 17 58.5 39t47.5 49q45 60 45 130q0 78 -58 118q-49 34 -130 34q-49 0 -106 -39q-62 -44 -62 -90v-298q0 -49 54 -76q43 -19 96 -19q63 0 126.5 27t110.5 73v65zM240 261v167q12 20 32 20q51 0 51 -65
q0 -38 -19 -76q-25 -46 -64 -46zM272 439q-16 0 -23 -13v-155q29 5 46 41q19 36 19 71q0 56 -42 56zM432 106q-50 -48 -116.5 -76.5t-130.5 -28.5q-59 0 -100 20q-59 29 -59 84v298q0 50 66 97q59 41 111 41q83 0 135 -35q62 -43 62 -126q0 -73 -47 -135q-41 -56 -105 -89
l-2 -15l2 -14q13 -5 27 -5q32 0 90 32l67 37v-85zM441 208l-81 -46q-53 -30 -85 -30q-5 0 -9.5 0.5t-9.5 1.5l-1 7l1 8q64 35 104 90q50 65 50 141q0 88 -67 134q-27 18 -61.5 27.5t-78.5 9.5q-55 0 -116 -43q-70 -49 -70 -105v-298q0 -61 64 -93q46 -20 104 -20
q33 0 67.5 8t67.5 22t64 34.5t57 46.5v105zM272 429q32 0 32 -46q0 -37 -17 -68v1q-14 -25 -29 -32v138q7 7 14 7z" />
    <glyph glyph-name="f" unicode="f" horiz-adv-x="386" 
d="M352 182l-107 -66v295h70v113h-70v46h70v93q-64 35 -142 35q-42 0 -88 -39q-50 -39 -50 -81v-559h203l114 78v85zM361 92l-122 -83h-213v569q0 45 53 89q26 20 49 30.5t45 10.5q77 0 151 -39v-108h-70v-28h70v-131h-70v-269l107 66v-107zM370 215l-107 -67v244h70v151
h-70v8h70v123q-79 43 -160 43q-49 0 -99 -43q-57 -45 -57 -96v-578h226l127 86v129z" />
    <glyph glyph-name="g" unicode="g" horiz-adv-x="641" 
d="M606 172l-56 -25v376h-217v-42q-61 61 -158 61q-50 0 -92 -29q-48 -32 -48 -79v-330q0 -39 32 -63q29 -22 70 -22q0 -66 55 -106q48 -32 120 -32q108 0 164 41q60 48 70 151l60 31v68zM248 178v217q0 25 42 25q35 0 35 -25v-210q0 -14 -13.5 -23.5t-33.5 -9.5
q-30 0 -30 26zM273 -30q-20 0 -35.5 13t-12.5 30l53 27l46 25q2 -9 3 -17.5t1 -16.5q0 -61 -55 -61zM273 -21q46 0 46 52q0 5 -0.5 9.5t-1.5 9.5l-35 -19l-48 -23q1 -12 12.5 -20.5t26.5 -8.5zM258 178q0 -16 20 -16q16 0 27 6t11 17v210q0 16 -26 16q-32 0 -32 -16v-217z
M615 98l-61 -32q-11 -104 -73 -151q-58 -44 -169 -44q-72 0 -125 34q-57 40 -60 104q-19 2 -35 8t-30 16q-37 27 -37 71v330q0 51 54 86h-1q46 31 97 31q87 0 149 -50v32h235v-372l56 25v-88zM625 201l-57 -26v367h-254v-22q-59 41 -139 41q-53 0 -102 -32q-57 -39 -57 -95
v-330q0 -49 40 -78q28 -20 63 -25q8 -66 63 -104q52 -35 130 -35q113 0 175 45q64 50 77 154l61 32v108zM267 178v217q0 6 23 6q17 0 17 -6v-210q0 -6 -8.5 -10t-20.5 -4q-11 0 -11 7zM273 -11q-9 0 -17 3.5t-11 9.5l42 21l22 12v-4q0 -42 -36 -42z" />
    <glyph glyph-name="h" unicode="h" horiz-adv-x="625" 
d="M591 172q-25 -29 -64 -29v291q0 50 -48 80q-41 25 -95 25q-80 0 -142 -62v193h-207v-651h207v380h78v-314q0 -39 35 -60q28 -17 70 -17q40 0 99 28q67 34 67 68v68zM600 104q0 -40 -72 -77q-63 -29 -103 -29q-44 0 -75 18q-39 24 -39 69v305h-60v-381h-225v670h225v-181
q58 51 133 51q54 0 99 -28v1q54 -33 54 -88v-281q14 3 30 14t33 32v-95zM610 223q-39 -45 -64 -57v268q0 60 -58 96h1q-44 28 -105 28q-68 0 -124 -41v172h-243v-689h243v380h42v-295q0 -24 10.5 -43.5t33.5 -32.5q33 -20 79 -20q42 0 107 30q78 39 78 85v119z" />
    <glyph glyph-name="i" unicode="i" horiz-adv-x="329" 
d="M227 649h-179v-85h179v85zM296 189q-31 -29 -57 -32v365h-204v-441q0 -29 44 -47q36 -15 68 -15q41 0 91 28q58 33 58 71v71zM235 555h-196v104h196v-104zM305 118q0 -45 -63 -79q-53 -30 -95 -30q-35 0 -71 16q-50 22 -50 56v450h222v-362q20 9 57 41v-92zM314 230
q-18 -16 -32 -27.5t-25 -18.5v357h-240v-460q0 -43 56 -65h-1q38 -16 75 -16q45 0 99 30q68 39 68 88v112zM244 668h-214v-123h214v123z" />
    <glyph glyph-name="j" unicode="j" horiz-adv-x="258" 
d="M213 647h-163v-85h163v85zM224 526h-186v-444q0 -15 23 -39q23 -25 23 -33q0 -33 -28 -33q-16 2 -22 5v-74q14 -5 25 -7.5t21 -3.5l47 -3q42 6 69.5 38.5t27.5 77.5v516zM222 552h-180v105h180v-105zM233 10q0 -24 -8 -46t-22.5 -38.5t-34 -27t-41.5 -13.5l-48 3
q-9 1 -22 3.5t-31 9.5v96q11 -5 17.5 -7t12.5 -3q19 2 19 23q0 4 -20 26q-26 29 -26 46v454h204v-526zM241 545h-11v121h-196v-121h-13v-463q0 -11 7 -24.5t21 -28.5q9 -10 13.5 -14.5l4.5 -4.5q0 -12 -10 -14q-6 1 -14.5 3.5t-25.5 12.5v-118q44 -15 62 -16l49 -3
q24 3 44.5 14.5t36 29.5t24 41t8.5 50v535z" />
    <glyph glyph-name="k" unicode="k" horiz-adv-x="629" 
d="M595 168l-32 -15q-4 -2 -8 -2.5t-8 -2.5q-6 -1 -12.5 -2t-12.5 -3v153q0 24 -30 39q-35 17 -66 16l-15 -1l-18 -4q6 38 34.5 61.5t67.5 23.5l27 -3v84q-27 8 -51 8q-68 0 -130 -48q-58 -44 -84 -111v309h-222v-651h222v235l16 2q17 0 30.5 -9t13.5 -23v-127q0 -44 40 -71
q34 -24 80 -24q48 0 90.5 28.5t67.5 73.5v64zM604 101q-26 -48 -71 -78.5t-96 -30.5q-45 0 -86 27h1q-45 30 -45 78v127q0 10 -10 16t-23 7l-8 -2v-236h-240v671h240v-280q14 23 30.5 43t38.5 37q66 49 136 49q14 0 29.5 -2.5t30.5 -6.5v-103l-37 4q-31 -1 -55 -17.5
t-33 -44.5l3 1l16 1h6q33 0 66 -17q34 -19 34 -48v-141q4 1 7 1q4 0 7 1q8 2 15 5h-1l45 22v-83zM614 199l-59 -29l3 1q-4 -2 -8 -2.5t-7 -1.5q-1 0 -1 -1h-1v130q0 35 -41 56q-35 18 -69 18h-6l-5 -1q11 20 30 31t43 12l48 -5v119q-42 12 -70 12q-77 0 -141 -51
q-32 -24 -55 -55v257h-258v-689h258v238q10 -1 16.5 -5t6.5 -9v-127q0 -54 49 -87q39 -27 90 -27q53 0 100.5 32.5t76.5 83.5v100z" />
    <glyph glyph-name="l" unicode="l" horiz-adv-x="326" 
d="M292 181q-25 -34 -64 -46v530h-194v-565q0 -85 110 -85q38 0 88 24q60 30 60 65v77zM301 104q0 -41 -65 -74q-26 -13 -49 -18.5t-43 -5.5q-118 0 -118 94v575h211v-527q29 14 64 62v-106zM310 237q-20 -26 -35.5 -44t-28.5 -29v520h-229v-584q0 -104 127 -104q40 0 95 26
q71 33 71 82v133z" />
    <glyph glyph-name="m" unicode="m" horiz-adv-x="936" 
d="M901 183q-31 -26 -70 -38v283q-9 48 -48 74t-90 26q-83 0 -146 -62q-66 68 -151 68q-55 0 -143 -56v42h-217v-501h217v365q0 13 17 20q11 7 29 7q21 0 21 -10v-382h221v365q0 20 42 20q19 0 29 -10v-295q0 -40 34 -64q17 -11 36 -17.5t40 -6.5q38 0 104 31q75 34 75 64
v77zM910 106q0 -35 -80 -72q-67 -32 -108 -32q-44 0 -82 26q-38 27 -38 71v290q-8 6 -19 6q-33 0 -33 -11v-375h-240v392h-11q-15 0 -22 -3q-15 -8 -15 -14v-375h-235v520h235v-35q84 49 134 49q84 0 151 -64q65 59 146 59q55 0 96.5 -28.5t51.5 -79.5v-272q32 14 69 46v-98
zM920 223q-20 -17 -37.5 -29.5t-32.5 -20.5v258q-10 56 -54 86t-103 30q-79 0 -145 -55q-69 61 -152 61q-52 0 -124 -42v28h-255v-539h255v384l6 3q10 5 21 5v1t1 4v-397h260v384q0 1 23 1h10v-286q0 -50 42 -78q37 -28 87 -28q21 0 48.5 8t63.5 24q86 41 86 81v117z" />
    <glyph glyph-name="n" unicode="n" horiz-adv-x="627" 
d="M592 179q-27 -26 -60 -46v315q0 30 -58 55q-48 21 -85 21q-82 0 -135 -59v54h-218v-500h218v368q0 13 16 21q12 9 27 9q21 0 21 -16v-310q0 -38 36 -60q31 -18 72 -18q43 0 100 28q66 33 66 69v69zM602 110q0 -41 -73 -77q-57 -29 -103 -29q-22 0 -41 4t-35 14
q-42 25 -42 69v310q0 6 -11 6q-12 0 -25 -9q-9 -5 -9 -11v-378h-237v519h237v-40q51 45 126 45q20 0 42 -5t47 -16q64 -29 64 -64v-298q12 9 27 21t33 28v-89zM611 221q-17 -17 -32.5 -29t-27.5 -22v278q0 42 -69 72q-51 22 -93 22q-66 0 -116 -35v31h-256v-538h256v387
q0 1 3 3q13 8 21 8v0q1 0 2 1v-308q0 -48 46 -76q34 -21 81 -21q23 0 50 8t58 22q77 39 77 86v111z" />
    <glyph glyph-name="o" unicode="o" horiz-adv-x="521" 
d="M486 418q-24 -20 -57 -20v118h-130v-16l-60 24q-31 11 -61 11q-22 0 -44 -8t-46 -22q-53 -33 -53 -73v-315q0 -60 73 -85q27 -9 57 -14t64 -5q54 0 110 21q72 27 72 72v203q45 0 75 43v66zM234 114v289q0 9 12.5 20t21.5 11q8 -1 13 -4t10 -8q-6 -15 -6 -38q0 -70 45 -70
l14 1v-153q0 -70 -71 -70q-39 0 -39 22zM243 114q0 -12 30 -12q62 0 62 60v142h-4q-55 0 -55 80q0 22 4 35q-4 4 -13 6q-7 -1 -15.5 -8.5t-8.5 -13.5v-289zM496 349q-34 -46 -76 -49v-194q0 -51 -78 -81q-29 -11 -57 -16t-56 -5q-67 0 -123 19q-80 30 -80 94v315q0 46 57 81
q49 31 95 31q34 0 64 -12l48 -19v12h148v-118q24 5 58 31v-89zM505 456q-36 -27 -57 -36v115h-168v-8l-35 14q-15 7 -32 9.5t-35 2.5q-48 0 -100 -32h1q-62 -37 -62 -89v-315q0 -72 85 -103q29 -10 60 -15t67 -5q60 0 116 22q84 31 84 90v186q43 7 76 54v110zM253 114v289
q0 3 4.5 6.5t8.5 5.5q1 0 1.5 -0.5t1.5 -0.5q-3 -15 -3 -30q0 -85 60 -89v-133q0 -51 -53 -51q-20 0 -20 3z" />
    <glyph glyph-name="p" unicode="p" horiz-adv-x="633" 
d="M599 177q-22 -16 -47 -23l-15 -4v298q0 37 -55 64q-48 23 -89 23q-72 0 -142 -56v43h-215v-617h215v156q45 -48 141 -48q44 0 120 28q87 33 87 70v66zM251 135v271q0 13 18 21q14 7 29 7q30 0 30 -19v-265q0 -27 -49 -27q-28 0 -28 12zM261 135q0 -3 18 -3q40 0 40 18
v265q0 10 -21 10q-13 0 -25 -6q-12 -5 -12 -13v-271zM609 111q0 -42 -94 -79q-75 -28 -123 -28q-85 0 -131 36v-145h-235v636h235v-33q66 46 132 46q22 0 45.5 -5.5t47.5 -17.5q61 -31 61 -73v-286l3 1q11 3 25 11t34 22v-85zM618 215q-40 -32 -62 -40v273q0 51 -66 81
q-52 25 -97 25q-64 0 -123 -38v25h-253v-655h253v136q48 -28 122 -28q49 0 127 29q99 37 99 88v104zM270 406q0 3 7 4q5 3 10.5 4t10.5 1h11v-265q0 -8 -30 -8q-7 0 -9 -5v269z" />
    <glyph glyph-name="q" unicode="q" horiz-adv-x="633" 
d="M598 189q-15 -14 -28 -20q-13 -9 -28 -12v369h-215v-46q-67 60 -161 60q-50 0 -94 -44q-37 -37 -37 -69v-312q0 -51 56 -78q45 -20 101 -20q88 0 135 44v-168h215v168q37 22 56 47v81zM243 161v231q0 17 15.5 26.5t37.5 9.5q31 0 31 -20v-240q0 -16 -18 -22
q-11 -7 -31 -7q-35 0 -35 22zM252 161q0 -13 26 -13q15 0 25 5q15 6 15 15v240q0 11 -22 11q-18 0 -31 -7.5t-13 -19.5v-231zM608 105q-12 -15 -26 -27t-31 -22v-172h-233v158q-47 -34 -126 -34q-61 0 -105 20q-62 30 -62 87v312q0 35 41 76q47 47 100 47q85 0 152 -49v35
h233v-367q7 3 13 8q13 5 44 33v-105zM617 231q-47 -41 -54 -45l-2 -2v361h-253v-27q-64 41 -142 41q-57 0 -107 -50q-43 -43 -43 -82v-312q0 -62 67 -95q49 -22 109 -22q70 0 116 26v-150h253v176q33 22 56 51v130zM262 161v231q0 8 10 12.5t24 4.5q12 0 12 -1v-240
q0 -3 -3 -4q-14 -6 -27 -6q-16 0 -16 3z" />
    <glyph glyph-name="r" unicode="r" horiz-adv-x="451" 
d="M435 105v116q-35 -19 -67.5 -36t-62.5 -33q-21 -8 -28 -8h-12v158q28 25 54 25l6 -1l18 -3q14 -10 25 -17t19 -12v244q-73 0 -122 -28v28h-248v-454q0 -90 182 -90q105 0 236 111zM426 109q-122 -107 -227 -107q-173 0 -173 82v444h230v-35q50 35 121 35v-216
q-23 15 -33 21q-24 3 -23 3q-33 0 -65 -29v-172q34 -1 63 14l107 57v-97zM417 114v76l-93 -49q-29 -15 -47 -15h-30v185q38 35 75 35q21 0 46 -16v189q-75 0 -121 -46v46h-212v-435q0 -73 164 -73q100 0 218 103z" />
    <glyph glyph-name="s" unicode="s" horiz-adv-x="477" 
d="M443 175l-45 -23q4 11 6 25l1 18q3 53 -36 86l-82 71q-23 19 -22 55q0 11 7 20t15 9q57 0 111 -71v89q-59 81 -185 81q-73 0 -123 -36q-52 -40 -52 -114q0 -24 4.5 -43t13.5 -30l122 -135q4 -6 4 -14q0 -17 -12 -34t-28 -17q-45 0 -45 89h-55l-6 -22q-1 -5 -1 -14v-23
q0 -127 181 -127q138 0 227 88v72zM452 99q-93 -93 -236 -93q-191 0 -191 136q0 27 3 42l7 26h71q0 -89 36 -89q12 0 21.5 14t9.5 28q0 6 -2 8l-123 135q-19 25 -19 79q0 81 56 122q49 37 128 37q131 0 194 -87v-120q-67 89 -120 89q-5 0 -9 -6t-4 -13v-4q0 -29 18 -44
l83 -71q39 -32 39 -86v-8l-1 -18v-5l39 20v-92zM461 206l-38 -19l1 7v8q0 30 -11 53t-32 41v-1l-82 71q-16 13 -16 37v4q0 3 1 6.5t3 3.5q49 0 129 -107v151q-66 92 -203 92q-83 0 -134 -39q-59 -45 -59 -129q0 -57 25 -89l68 -77h-85l-11 -41q-1 -4 -1 -36q0 -146 200 -146
q144 0 245 99v111zM164 164v-1q0 -11 -6.5 -21.5t-15.5 -10.5q-27 0 -27 86z" />
    <glyph glyph-name="t" unicode="t" horiz-adv-x="378" 
d="M344 177q-55 -58 -97 -55l-11 1v288h78v114h-78v96h-201v-503q0 -58 46 -86q38 -23 95 -23q64 0 120 37q48 33 48 58v73zM353 104q0 -30 -52 -65q-59 -39 -125 -39q-61 0 -100 24q-50 30 -50 94v512h219v-96h78v-133h-78v-269h3h5q37 0 100 68v-96zM362 222
q-38 -39 -65 -60t-44 -21v251h79v152h-79v96h-236v-522q0 -68 55 -102q40 -25 104 -25q71 0 130 39q56 39 56 74v118z" />
    <glyph glyph-name="u" unicode="u" horiz-adv-x="630" 
d="M595 182q-14 -12 -28.5 -19t-29.5 -8v364h-216v-337q0 -29 -37 -29q-25 0 -25 16v350h-223v-371q0 -131 107 -131q85 0 165 93q37 -51 54 -65q32 -26 79 -26q59 0 112 42q42 36 42 53v68zM605 114q0 -22 -46 -60q-54 -45 -118 -45q-46 0 -85 28q-18 15 -48 57
q-81 -87 -165 -87q-117 0 -117 141v380h242v-359q0 -7 16 -7q27 0 27 20v346h236v-362q25 7 58 37v-89zM614 224q-38 -33 -58 -44v357h-254v-355q0 -11 -18 -11q-6 0 -6 -2v368h-261v-389q0 -150 126 -150q83 0 164 82q28 -39 43 -50q36 -30 91 -30q66 0 124 47q49 41 49 67
v110z" />
    <glyph glyph-name="v" unicode="v" horiz-adv-x="518" 
d="M483 417q-24 -20 -56 -20v118h-131v-178q6 -22 38 -31v-165q0 -22 -17.5 -34t-41.5 -12l-23 4q-9 4 -9 11v342q0 7 -2.5 16.5t-9.5 21.5q-13 25 -24 25h-172v-405q0 -98 194 -98q56 0 109 22q66 28 66 80v194q46 9 79 36v73zM493 340q-17 -16 -37 -25.5t-43 -14.5v-186
q0 -30 -18 -51.5t-53 -37.5q-51 -22 -113 -22q-203 0 -203 107v414h181q17 0 33 -31v1q7 -12 9.5 -23t2.5 -19v-342l2 -2l23 -4h-2q20 0 35 9.5t15 27.5v158q-33 10 -38 36v189h149v-118q25 5 57 31v-97zM502 455q-34 -27 -56 -36v114h-169v-197q9 -30 38 -43v-152
q0 -13 -11.5 -20t-28.5 -7h2l-15 1v337q0 18 -14 46q-9 17 -18 26t-23 9h-190v-423q0 -117 212 -117q63 0 117 23q76 33 76 98v178q21 7 41 17.5t39 26.5v119z" />
    <glyph glyph-name="w" unicode="w" horiz-adv-x="811" 
d="M776 411q-20 -17 -47 -20v126h-139v-175q0 -25 39 -38v-178q0 -35 -57 -35q-21 0 -36 8v366q0 30 -52 51q-21 8 -40 12t-39 4h-10l-20 -1l-10 -3l-111 -49v42h-218v-400q0 -124 113 -124q70 0 163 87q93 -87 201 -87q56 0 117 28q72 34 72 85v190q18 4 36.5 12.5
t37.5 22.5v76zM254 176v215q0 29 30 29q38 -4 38 -32v-209q0 -37 -34 -37t-34 34zM263 176q0 -25 25 -25t25 28v209q0 19 -30 22q-20 -2 -20 -19v-215zM785 330q-19 -15 -38 -24t-36 -13v-183q0 -57 -77 -93q-30 -15 -60.5 -22t-60.5 -7q-106 0 -201 83q-92 -83 -163 -83
q-123 0 -123 133v409h237v-37l103 45l5 2l24 1h10q42 0 83 -17q58 -24 58 -59v-360q13 -5 26 -5q47 0 47 26v171q-39 16 -39 45v184h159v-124q18 6 46 31v-103zM795 452q-14 -12 -25.5 -21t-21.5 -14v119h-178v-194q0 -33 39 -51v-165q0 -17 -37 -17h-9q-3 0 -8 2v354
q0 42 -64 69q-45 17 -86 17h-11l-22 -1l-12 -4l-87 -39v32h-256v-418q0 -142 132 -142q71 0 163 80q95 -80 201 -80q62 0 126 29q82 39 82 102v174q32 10 74 41v127zM273 176v215q0 10 11 10h-1q11 -1 15.5 -4.5t4.5 -8.5v-209q0 -18 -15 -18t-15 15z" />
    <glyph glyph-name="x" unicode="x" horiz-adv-x="567" 
d="M532 172l-80 -38q-24 -12 -43 -12l-24 4v117h60v80h-60v96q20 17 49 17q45 0 72 -38v80q-12 51 -79 51q-39 0 -77 -20q-60 37 -120 37q-54 0 -101.5 -30t-80.5 -76v-82q51 64 120 64v-99h-55v-80h55v-106q0 -21 -38 -21q-17 0 -17 6q-9 0 -12 27q-5 28 -5 33l2 19h-57
l-4 -24l-3 -31q0 -124 95 -124q54 0 92 24q50 -31 117 -31q120 0 194 91v66zM542 103q-79 -97 -204 -97q-33 0 -62.5 7t-54.5 22q-41 -22 -92 -22q-104 0 -104 134l3 31l5 32h75l-3 -27q0 -2 1 -11t3 -17q0 -2 0.5 -3t0.5 -3q3 -17 12 -17q0 -7 8 -7q29 0 29 12v97h-56v99
h56v79q-63 -6 -120 -81v112q35 48 85 80t106 32q31 0 61 -8.5t59 -26.5q37 18 77 18q74 0 89 -58v-110q-43 57 -82 57q-20 0 -39 -14v-80h59v-99h-59v-100l15 -2h-1q20 0 40 10l93 45v-84zM551 202l-107 -52q-18 -9 -33 -9l-7 1v82h59v118h-59v67q12 9 30 9q34 0 91 -77v138
q-16 68 -98 68q-40 0 -76 -16q-59 33 -121 33q-58 0 -110.5 -33.5t-89.5 -84.5v-142q66 83 120 97v-59h-56v-118h56v-87q0 -2 -20 -2q1 0 1 6q-4 0 -7.5 2t-4.5 7v-1q0 1 -0.5 3t-0.5 4q-2 8 -2.5 16.5t-1.5 10.5l4 37h-93l-6 -41l-3 -31q0 -144 113 -144q55 0 92 20
q54 -28 117 -28q128 0 213 103v103z" />
    <glyph glyph-name="y" unicode="y" horiz-adv-x="626" 
d="M591 185q-11 -12 -23 -22l-27 -17v376h-221v-348q0 -21 -32 -35l-33 -4v387h-219v-411q0 -20 7 -37.5t19 -31t28.5 -21.5t36.5 -8q-5 -12 -5 -22q0 -20 8 -36q42 -78 185 -78q98 0 167 48q59 42 59 83v57q31 13 50 35v85zM264 -40q-17 0 -33 13.5t-16 30.5l60 33l45 28
v-75q0 -30 -56 -30zM264 -30q47 0 47 20v58l-32 -20l-55 -30q3 -11 15 -19.5t25 -8.5zM601 96q-22 -25 -51 -37v-51q0 -47 -63 -90q-71 -50 -172 -50q-150 0 -193 82q-10 16 -10 41v7q0 3 1 7q-38 5 -62.5 35t-24.5 71v421h238v-387l22 3q25 12 25 26v358h239v-370l13 9h-1
q5 4 15.5 15t23.5 26v-116zM610 235q-17 -20 -31 -35.5t-20 -20.5v362h-257v-367q0 -8 -18 -16l-10 -2v385h-257v-430q0 -42 24 -73.5t62 -40.5v-6q0 -27 10 -46q46 -87 202 -87q102 0 177 52q67 46 67 98v44q27 13 51 42v141zM264 -21q-8 0 -15.5 4.5t-12.5 10.5l48 26
l18 11v-41q0 -11 -38 -11z" />
    <glyph glyph-name="z" unicode="z" horiz-adv-x="496" 
d="M462 172l-69 -52q-27 -20 -70 -20q-40 0 -69 26l184 264v104l-26 -3l-27 2l-30 5q-79 25 -147 25q-48 0 -94 -24t-75 -64v-86q74 77 125 77q16 0 35 -8l-164 -218v-191l8 13q4 5 47 14q23 5 36 8t17 2l85 -26q38 -11 66 -11q50 0 95.5 26t72.5 71v66zM471 103
q-29 -48 -77 -75.5t-100 -27.5q-17 0 -34 2.5t-35 7.5l-85 26q-4 -1 -16.5 -3t-31.5 -6q-18 -5 -28.5 -6.5t-12.5 -2.5l-9 -17l-16 4v198l159 210q-5 2 -10.5 3t-10.5 1q-48 0 -134 -92v113q15 21 35.5 38.5t44 29.5t48.5 19t50 7q69 0 150 -25h-2l30 -4l26 -2l35 3v-117
l-181 -260q25 -18 57 -18q39 0 64 19l84 62v-87zM480 208l-98 -73q-23 -17 -59 -17q-13 0 -23.5 2.5t-20.5 9.5l177 254v131l-45 -5l-25 2h2l-30 5q-42 12 -79 18.5t-71 6.5q-52 0 -103.5 -27.5t-83.5 -72.5v-139q99 104 143 104h4l-151 -200v-207l29 -8l12 21v-1q0 -3 35 6
l32.5 6.5t14.5 2.5l82 -25q20 -6 38 -8.5t34 -2.5q54 0 104.5 30t81.5 81v106z" />
    <glyph glyph-name="braceleft" unicode="{" horiz-adv-x="286" 
d="M253 -91h-47q-13 4 -13 20v315q-16 72 -71 85q30 5 50.5 28t20.5 54v314l1 17q5 8 9 8h50v59h-84q-32 0 -57 -25q-24 -24 -24 -57v-306q0 -26 -15.5 -46t-39.5 -23v-47q58 -15 58 -77v-325q0 -20 14 -35.5t32 -15.5h116v57zM262 -158h-125q-21 0 -37.5 18.5t-16.5 42.5
v325q0 54 -59 69v64q24 2 39.5 19.5t15.5 40.5v306q0 37 27 64q28 28 63 28h93v-79h-59q0 -1 -1 -2l-1 -14v-313q0 -27 -14 -49t-38 -34q40 -23 52 -82v-317q0 -8 7 -11h54v-76zM270 -72h-60v1v316q-13 57 -44 83q20 14 32 35.5t12 47.5v312l1 8h59v98h-101q-20 0 -36.5 -8
t-31.5 -22q-30 -29 -30 -72v-306q0 -20 -16 -34.5t-40 -17.5v-80q59 -14 59 -61v-325q0 -29 19 -49.5t44 -20.5h133v95z" />
    <glyph glyph-name="bar" unicode="|" horiz-adv-x="116" 
d="M86 737h-55v-722h55v722zM92 6h-68v741h68v-741zM99 756h-82v-760h82v760z" />
    <glyph glyph-name="braceright" unicode="}" horiz-adv-x="286" 
d="M254 350q-24 3 -39.5 23t-15.5 46v306q0 31 -25 58q-27 25 -57 25h-83v-60h50q10 -1 10 -25v-313q0 -15 6 -28.5t15.5 -25t22.5 -19t27 -10.5q-59 -19 -71 -85v-315q-4 -20 -14 -20h-46v-57h115q19 0 32.5 15.5t13.5 35.5v325q0 29 16.5 50t42.5 27v47zM263 295
q-26 -6 -42.5 -24.5t-16.5 -44.5v-325q0 -24 -16.5 -42.5t-38.5 -18.5h-124v76h55q4 0 5 13v315q10 58 53 82q-22 12 -37.5 35t-15.5 49v313q0 14 -2 15h-58v79h92q36 0 63 -28q27 -27 27 -64v-306q0 -23 16 -40.5t40 -19.5v-64zM271 367q-24 3 -39.5 17.5t-15.5 34.5v306
q0 42 -31 72q-32 30 -68 30h-101v-98h63q-2 -2 -2 -6v-313q0 -25 12.5 -47.5t32.5 -37.5q-36 -27 -45 -79v-315q-2 -2 0 -3q0 -2 2 -2h-63v-95h133q26 0 45 20.5t19 49.5v325q0 22 16 38.5t42 21.5v81z" />
    <glyph glyph-name="asciitilde" unicode="~" horiz-adv-x="404" 
d="M310 527q-15 -32 -41 -32q-8 1 -23 5t-37 11q-43 16 -59 16q-21 0 -39.5 -7t-35.5 -21q-33 -25 -39 -62h53q15 24 41 24l62 -19q28 -9 55 -9l19 1q37 0 66 33q22 23 33 60h-55zM377 535q-13 -45 -38 -73q-15 -18 -33.5 -26.5t-38.5 -8.5l-19 -2q-14 0 -29 2.5t-30 7.5
l-61 19q-9 -1 -18 -7t-16 -17h-67q6 46 42 75q38 29 81 29q21 0 63 -16q21 -8 35 -11t22 -4h1q17 0 34 32h72zM299 542q-16 -31 -28 -31h-2q-13 0 -52 15v-1q-48 17 -67 17q-46 0 -87 -32v1q-39 -30 -47 -89h84q15 23 27 24l59 -19q30 -10 63 -10l19 2q45 0 78 39
q13 13 23 34t19 50h-89z" />
    <glyph glyph-name="exclamdown" unicode="&#xa1;" horiz-adv-x="263" 
d="M217 575h-169v-89h169v89zM229 456h-195v-528h195v528zM226 476h-186v109h186v-109zM238 -81h-212v547h212v-547zM246 475h-12v119h-203v-119h-14v-566h229v566z" />
    <glyph glyph-name="cent" unicode="&#xa2;" horiz-adv-x="372" 
d="M339 183l-26 -18q-25 -18 -60 -18q-14 0 -25 4v279q11 7 27 7t38 -11v86q-38 36 -75 34l-16 -1v102h-51v-102q-40 0 -77 -28q-40 -34 -40 -73v-339q0 -46 39 -73q32 -22 78 -22v-110h51v110q100 31 137 95v78zM348 102q-37 -67 -137 -100v-111h-69v109q-40 3 -74 25
q-43 31 -43 80v339q0 44 44 80q36 28 73 31v102h69v-102l6 1h3q37 0 82 -39v-105q-33 15 -47 15q-11 0 -19 -4v-265q4 -1 8 -1.5t9 -0.5q32 0 55 16l40 27v-97zM357 218l-54 -37q-11 -8 -23.5 -11.5t-26.5 -3.5h-8v251q3 1 10 1t21 -5.5t35 -14.5v122q-50 45 -91 45h-1v101
h-86v-103q-37 -6 -69 -31q-48 -39 -48 -88v-339q0 -56 47 -89q32 -21 70 -25v-110h86v114q97 34 138 105v118z" />
    <glyph glyph-name="sterling" unicode="&#xa3;" horiz-adv-x="625" 
d="M515 221q-32 -23 -50.5 -31t-40.5 -8q-8 0 -18.5 2t-25.5 6q-54 17 -68 15l-36 -2l-32 -3l-7 5q49 32 62 104h84v84h-95l-23 38q-13 20 -13 42q0 31 20.5 48.5t52.5 17.5q17 0 32 -7t26 -18.5t17.5 -27t6.5 -33.5h170q0 229 -287 229q-92 0 -156 -46q-71 -52 -71 -142
q0 -24 6 -54q9 -27 22 -47h-52v-82h77q0 -53 -12 -83q-17 -41 -63 -65l69 -144q71 40 125 40q20 -3 38 -9q26 -8 44.5 -14t31.5 -10q42 -13 77 -13q94 0 160 54zM597 64q-75 -60 -171 -60q-37 0 -80 12q-13 5 -31.5 11t-43.5 14q-11 2 -19.5 4t-16.5 4q-26 0 -58 -10.5
t-70 -32.5l-78 162q51 27 66 64q11 26 12 70h-77v100h44q-5 8 -8 17l-6 18q-7 28 -7 57q0 94 75 150q67 48 162 48q296 0 296 -248h-188q0 17 -6 32.5t-15.5 27.5t-23 19t-28.5 7q-28 0 -46 -15.5t-18 -41.5q0 -8 3.5 -17.5t8.5 -20.5h-1l21 -33h99v-102h-86
q-12 -57 -49 -90l18 2l36 3h3q10 0 26.5 -4t42.5 -11q28 -9 41 -9q20 0 39.5 9t55.5 35zM522 249q-39 -29 -59.5 -38.5t-38.5 -9.5q-15 0 -39 7q-52 16 -71 16h-3l-28 -3q11 14 18.5 31.5t12.5 38.5h88v121h-103l-18 29v-1q-10 16 -10 33q0 23 15.5 35.5t38.5 12.5
q13 0 24.5 -7t20 -19t13.5 -27.5t5 -33.5h207q0 267 -305 267q-48 0 -90 -12t-77 -38q-79 -58 -79 -157q0 -13 1.5 -27.5t6.5 -32.5q2 -12 8 -22h-39v-120h76q-2 -38 -10 -56q-14 -35 -71 -65l86 -179q40 24 72.5 35.5t57.5 12.5q10 -2 19 -4t17 -4q25 -8 44 -14t32 -10
q23 -8 43.5 -11t38.5 -3q101 0 183 68z" />
    <glyph glyph-name="currency" unicode="&#xa4;" horiz-adv-x="395" 
d="M325 482l-53 -53q-11 8 -22 13q-27 12 -53 12q-24 0 -55 -13l-21 -12l-53 52l-15 -14l-12 -15l52 -50q-5 -6 -7.5 -11.5t-4.5 -9.5q-12 -23 -12 -52q0 -24 13 -56l12 -20l-54 -52q6 -8 13 -15t15 -14l54 52q6 -5 11 -8t10 -4q29 -13 53 -13q14 0 27 3.5t28 9.5l21 12
l52 -53l16 14l14 14l-54 53q9 12 12 21q13 29 13 55q0 13 -3.5 27t-9.5 29q-2 6 -11 18l53 50q-7 9 -14 16.5t-15 13.5zM197 242q-35 0 -60.5 24.5t-25.5 59.5q0 38 25.5 62t60.5 24t60.5 -25t25.5 -60q0 -17 -7 -32.5t-18.5 -27t-27 -18.5t-33.5 -7zM197 251q32 0 54.5 22
t22.5 54t-22.5 54t-54.5 22t-54.5 -22t-22.5 -55q0 -31 22.5 -53t54.5 -22zM330 490q9 -7 18 -16t18 -23l-54 -50l8 -14q14 -33 14 -59q0 -29 -14 -59v1q-2 -8 -9 -17l55 -54l-21 -21l-22 -19l-53 54l-12 -9q-36 -14 -62 -14q-27 0 -57 14h1q-9 2 -18 9l-54 -53
q-11 9 -20.5 20t-18.5 22l54 52l-9 13q-14 36 -14 62q0 32 13 57v-2q2 8 9 17l-52 50l16 22l22 21l54 -54l13 8q17 7 32.5 11t29.5 4t28.5 -3t28.5 -10q9 -4 17 -9l48 48zM312 495l-43 -43q-2 2 -5 3t-6 3q-33 14 -61 14q-15 0 -30 -3.5t-29 -8.5l-14 -9l-56 56l-27 -26
l-24 -31l53 -51q-5 -7 -6 -11q-13 -28 -13 -59q0 -16 3.5 -30.5t8.5 -28.5l9 -14l-56 -53q11 -14 24 -28t29 -27l55 53q8 -6 13 -6h-2q16 -6 31.5 -10t29.5 -4q16 0 30.5 3.5t28.5 8.5l14 9l54 -55l33 28l23 24l-56 55q4 5 6 13l-1 -2q7 16 11 32t4 31q0 14 -4 30t-11 33
q-2 4 -4 7l55 51q-12 18 -23 29.5t-20 18.5zM197 260q-27 0 -47.5 19.5t-20.5 46.5q0 29 20 48.5t48 19.5q27 0 47.5 -20t20.5 -47t-20 -47t-48 -20z" />
    <glyph glyph-name="yen" unicode="&#xa5;" horiz-adv-x="603" 
d="M568 207h-62v57h62v45h-62v187h-175v-187h-57v184h-232v-80h49v-104h-57v-45h57v-57h-57v-46h57v-42q0 -34 29 -69q37 -31 89 -31q45 0 78 21.5t44 60.5v-68q0 -15 -14 -32q-14 -19 -29 -19q-5 -7 -34 -5l-52 3q-13 2 -24.5 5t-22.5 6v-53q46 -24 130 -24h32q98 0 130 14
q59 24 59 100v133h62v46zM274 207v57h57v-57h-57zM274 161h57q0 -29 -28 -29q-29 0 -29 29zM303 142q12 0 17 9h-35q4 -9 18 -9zM283 216h39v39h-39v-39zM577 151h-61v-123q0 -82 -65 -109q-36 -15 -134 -15h-32q-84 0 -140 28v71q14 -5 28.5 -8t28.5 -5l53 -4h7q17 0 23 6
q13 0 25 15q12 16 12 26v27q-18 -25 -48 -38t-65 -13q-52 0 -95 34q-32 38 -32 76v32h-57v65h57v39h-57v63h57v86h-50v99h251v-185h39v187h194v-187h61v-63h-61v-39h61v-65zM587 225h-62v20h62v83h-62v187h-212v-187h-21v184h-269v-117h50v-67h-57v-83h57v-20h-57v-83h57
v-23q0 -41 37 -85q13 -12 33 -20q-2 0 -3.5 0.5t-3.5 0.5v-88q61 -32 149 -32h32q51 0 85 3.5t52 11.5q71 30 71 118v114h62v83zM209 0q30 0 57 9.5t47 27.5v-4q0 -7 -11 -21q-8 -11 -21 -11q-6 -6 -19 -6h-7l-53 4q-1 1 -3 1q-1 0 -3 1q4 -1 13 -1zM292 245h21v-20h-21v20z
" />
    <glyph glyph-name="brokenbar" unicode="&#xa6;" horiz-adv-x="137" 
d="M106 754h-74v-296h74v296zM107 316h-75v-296h75v296zM113 449h-88v314h88v-314zM114 10h-89v315h89v-315zM121 335h-104v-334h104v334zM120 773h-103v-334h103v334z" />
    <glyph glyph-name="section" unicode="&#xa7;" horiz-adv-x="353" 
d="M319 132l-31 -17q9 16 9 34q0 25 -20 53l-20 18q46 18 62 43v54l-31 -17q5 12 5 32q0 35 -25 64l-47 44q-24 24 -24 43q0 22 14 22q39 0 77 -51v63q-40 62 -129 62q-48 0 -83 -34q-36 -35 -36 -85q0 -21 11 -45l43 -49q-55 -11 -55 -97l5 -21l7 -17l86 -93q3 -3 3 -17
q0 -28 -35 -28q-5 0 -14 4q-5 0 -8 24q-4 17 -4 29h-38q-7 -17 -7 -37q0 -95 132 -95q98 0 153 62v52zM328 76q-62 -68 -162 -68q-141 0 -141 105q0 22 10 46h53q0 -19 4 -36q3 -19 1 -18q9 -3 12 -3q27 0 27 19q0 9 -1 10l-87 94l-9 22l-5 20q0 83 47 103l-33 40
q-13 28 -13 50q0 55 38 91q38 38 90 38q93 0 138 -70v-93q-52 70 -86 70q-6 0 -6 -13q0 -16 23 -37l46 -44q27 -30 27 -70v-14l27 15v-72q-14 -24 -55 -44l11 -10q11 -15 16.5 -29t5.5 -29q0 -4 -0.5 -7t-1.5 -7l24 13v-72zM337 163l-22 -12q-1 16 -7.5 31t-17.5 32h-1
q31 18 48 45v89l-27 -15q-1 40 -30 76l-47 45q-19 19 -19 29q0 2 -2 4q31 -2 94 -90v124q-50 77 -147 77q-56 0 -96 -39h1q-42 -41 -42 -99q0 -26 14 -57l26 -30q-41 -26 -41 -108l5 -18l10 -27l48 -51h-56q-12 -32 -12 -56q0 -114 150 -114q105 0 171 73v91zM123 121
q0 -9 -18 -9q-4 0 -8 1q6 -2 3 12q-1 6 -2 13.5t-1 15.5l27 -29q-1 1 -1 -4z" />
    <glyph glyph-name="dieresis" unicode="&#xa8;" horiz-adv-x="463" 
d="M428 508h-158v-73h158v73zM194 508h-158v-75h158v75zM437 428h-176v88h176v-88zM203 426h-176v90h176v-90zM212 523h-195v-104h195v104zM446 523h-194v-103h194v103z" />
    <glyph glyph-name="copyright" unicode="&#xa9;" horiz-adv-x="642" 
d="M321 715q-120 0 -203 -83t-83 -203q0 -118 83 -203q83 -82 203 -82t203 82q83 85 83 203t-84 202q-83 84 -202 84zM320 192q-99 0 -169 70q-68 68 -68 169q0 102 68 169t170 67q100 0 168 -69q69 -69 69 -169q0 -102 -69 -169q-68 -68 -169 -68zM428 344l-38 -22
q-11 -6 -23 -6q-34 5 -34 24v170q0 35 32 35q29 0 52 -19v43q-40 33 -90 31l-17 -1q-47 -3 -82 -61q-26 -45 -26 -103q0 -173 139 -173q26 0 49 13l38 30v39zM438 300l-45 -34q-25 -14 -52 -14q-148 0 -148 183q0 31 6.5 57t20.5 50q36 63 89 66l17 1h8q48 0 92 -36v-65
q-36 28 -61 28q-22 0 -22 -26v-170q0 -13 25 -14q9 0 17 4l53 31v-61zM320 202q98 0 163 64q65 65 65 163q0 97 -65 162q-34 33 -74 50t-88 17q-96 0 -163 -65q-66 -65 -66 -162t66 -163t162 -66zM321 724q124 0 208 -87q88 -84 88 -208t-87 -209q-85 -86 -209 -86t-209 86
q-86 86 -86 209q0 124 85 209q86 86 210 86zM321 734q-128 0 -217 -89q-88 -88 -88 -216q0 -127 89 -216q88 -88 216 -88t216 88q89 89 89 216q0 128 -90 215q-87 90 -215 90zM320 211q-47 0 -85.5 16t-70.5 48q-62 62 -62 156t62 155q63 62 157 62q92 0 155 -63
q63 -65 63 -156q0 -95 -63 -156q-62 -62 -156 -62zM447 377l-67 -39q-5 -3 -11 -3h-2q-15 1 -15 5v170q0 16 13 16q22 0 71 -37v89q-51 40 -102 40h-8l-17 -1q-56 -3 -97 -70q-29 -52 -29 -112q0 -192 158 -192q26 0 58 16l48 37v81z" />
    <glyph glyph-name="ordfeminine" unicode="&#xaa;" horiz-adv-x="389" 
d="M355 490l-15 -8h-15v216h-128v-23q-24 33 -80 33q-25 0 -51 -13q-29 -15 -29 -40v-192q0 -60 85 -60q49 0 73 38q19 -40 65 -40q25 0 53 15.5t42 36.5v37zM152 480v148q0 18 24 18l15 -4q2 -2 3.5 -4t2.5 -4v-150q0 -19 -23 -19q-22 0 -22 15zM349 374h-314v-45h314v45z
M161 480q0 -6 13 -6q14 0 14 10v148q-1 0 -3 2l-10 3q-14 -2 -14 -9v-148zM358 320h-332v63h332v-63zM364 451q-8 -12 -20 -22.5t-26 -18.5t-29.5 -13t-28.5 -5q-44 0 -66 32q-27 -30 -72 -30q-94 0 -94 69v192q0 31 33 48q26 14 56 14q45 0 71 -20v10h146v-216h3l27 14v-54
zM367 392h-65q21 8 40.5 23t30.5 33v72l-30 -17v213h-164v-3q-28 13 -62 13q-31 0 -59 -15q-39 -20 -39 -56v-192q0 -55 49 -71h-51v-81h350v81zM175 628l4 -1v-143q0 -1 -5 -1q-4 0 -4 -2v147h5zM193 410q10 -12 23 -18h-51q14 6 28 18z" />
    <glyph glyph-name="guillemotleft" unicode="&#xab;" horiz-adv-x="368" 
d="M333 184l-89 78l89 80v100l-146 -131v-101l146 -128v102zM181 184l-89 78l88 80v100l-147 -131v-101l148 -128v102zM342 61l-164 144v109l164 148v-123l-85 -77l85 -74v-127zM190 62l-166 143v109l165 148v-123l-84 -77l85 -74v-126zM351 192l-80 70l80 72v148l-154 -138
v138l-182 -163v-117l184 -159v132l152 -132v149zM119 262l50 46v-90z" />
    <glyph glyph-name="logicalnot" unicode="&#xac;" horiz-adv-x="386" 
d="M245 116v454h70v93q-64 35 -142 35q-42 0 -88 -39q-50 -39 -50 -81v-559h203l114 78v85zM254 561v-428l107 66v-107l-122 -83h-213v569q0 45 53 89q26 20 49 30.5t45 10.5q77 0 151 -39v-108h-70zM333 551v123q-79 43 -160 43q-49 0 -99 -43q-57 -45 -57 -96v-578h226
l127 86v129l-107 -67v403h70z" />
    <glyph glyph-name="registered" unicode="&#xae;" horiz-adv-x="640" 
d="M320 715q-120 0 -203 -83q-82 -82 -82 -202q0 -122 81 -203q85 -82 204 -82q60 0 110 20.5t92 62.5q83 83 83 202q0 118 -83 201q-84 84 -202 84zM320 192q-100 0 -170 68q-67 68 -67 170q0 101 68 169t169 68q99 0 168 -69t69 -168q0 -101 -68 -169q-69 -69 -169 -69z
M493 357q-13 -10 -21 -10l-12 4q0 34 -3 51q-8 39 -37 42q18 28 18 66q0 21 -18 44q-19 22 -39 22h-222v-38h36v-200q-1 -10 -15 -10q-11 0 -21 6v-34q31 -18 69 -18q35 0 58.5 15.5t23.5 43.5v72h30q7 0 7 -11v-73q0 -43 69 -43q59 0 77 41v30zM368 451h-58v91h65
q29 0 29 -34q0 -15 -12 -36q-9 -21 -24 -21zM368 461q9 0 16 15q5 10 7.5 17.5t2.5 14.5q0 25 -19 25h-56v-72h49zM502 326q-21 -49 -86 -49q-78 0 -78 52v73l0.5 0.5t1.5 0.5h-21v-62q0 -32 -26 -50t-65 -18t-79 22v54q21 -11 31 -11q6 0 6 1v189h-37v55q-57 -65 -57 -153
q0 -96 65 -164q65 -64 163 -64q97 0 162 65q66 65 66 163q0 95 -67 161q-67 67 -161 67q-96 0 -162 -66l-7 -7h230q25 0 46 -26t21 -49q0 -31 -14 -61q26 -9 32 -46q3 -14 3 -45l5 -1q5 1 28 18v-49zM320 724q122 0 208 -86q87 -86 87 -208t-87 -209q-85 -85 -208 -85
t-210 84q-42 43 -63.5 95t-21.5 115q0 123 86 209q85 85 209 85zM320 734q-128 0 -216 -89q-88 -88 -88 -215q0 -129 87 -216q90 -87 217 -87t215 88q89 89 89 215q0 124 -89 215q-89 89 -215 89zM511 395q-12 -10 -20 -16l-12 -9q-2 25 -3 35q-7 37 -29 50q10 28 10 55
q0 28 -22 56q-24 29 -54 29h-207q61 53 146 53q92 0 155 -64q64 -64 64 -154q0 -93 -63 -156t-156 -63q-92 0 -157 62l-8 8q37 -17 73 -17q42 0 70.5 19t30.5 55v-9q0 -62 87 -62q72 0 95 58v70zM101 430q0 73 39 126v-37h37v-172q-5 2 -14 6t-23 11v-64q-39 55 -39 130z
M368 470h-39v54h46q10 0 10 -16q0 -10 -10 -29q-3 -9 -7 -9z" />
    <glyph glyph-name="macron" unicode="&#xaf;" horiz-adv-x="381" 
d="M251 549l-62 -66l-62 66h-79l85 -112h106l92 112h-80zM349 556l-105 -127h-116l-96 127h99l58 -61l58 61h102zM243 564l-54 -57l-54 57h-120l108 -143h125l118 143h-123z" />
    <glyph glyph-name="degree" unicode="&#xb0;" horiz-adv-x="214" 
d="M107 588q-32 0 -53 -21.5t-21 -53.5t21 -53t53 -21t53.5 21t21.5 53t-21.5 53.5t-53.5 21.5zM107 470q-19 0 -31 13t-12 30q0 18 13 31t30 13t30.5 -13.5t13.5 -30.5t-13.5 -30t-30.5 -13zM107 478q14 0 25 10.5t11 24.5t-11 24.5t-25 10.5t-24.5 -10t-10.5 -25
q0 -14 10 -24.5t25 -10.5zM107 596q36 0 59.5 -23.5t23.5 -59.5q0 -35 -23.5 -59t-59.5 -24q-35 0 -58.5 24t-23.5 59q0 36 23.5 59.5t58.5 23.5zM107 604q-38 0 -64.5 -26t-26.5 -65q0 -38 26.5 -64.5t64.5 -26.5q39 0 65 26.5t26 64.5q0 39 -26 65t-65 26zM107 486
q-11 0 -19 8t-8 19t8 19t19 8t19 -8t8 -19t-8 -19t-19 -8z" />
    <glyph glyph-name="plusminus" unicode="&#xb1;" horiz-adv-x="522" 
d="M489 464h-197v225h-69v-225h-189v-68l189 1v-214h-140l1 -70h364l-1 70h-155v213h197v68zM498 387h-197v-195h155l1 -89h-383v89h140v196l-190 -1v86h190v225h87v-225h197v-86zM507 483h-197v225h-105v-225h-190v-106l190 1v-176h-141l1 -108h402l-1 108h-156v175h197
v106z" />
    <glyph glyph-name="twosuperior" unicode="&#xb2;" horiz-adv-x="260" 
d="M124 669q-19 0 -35.5 -6.5t-29 -18.5t-19.5 -28t-7 -35l2 -29h38v13q-1 14 6 32q8 14 22 14q16 0 25.5 -16t9.5 -37q0 -18 -5.5 -36t-18.5 -35q-7 -11 -19.5 -25t-30.5 -32l-13 -28q-4 -8 -7 -19t-5 -24h176v47h-114l29 20q13 9 27 21q23 21 35.5 33t15.5 17q20 33 20 77
q0 41 -31 68q-32 27 -71 27zM124 678q42 0 76 -29q35 -29 35 -75q0 -43 -22 -82q-3 -5 -16.5 -17.5t-36.5 -34.5q-11 -10 -28 -21l-5 -4h94v-65h-194q4 36 14 55l14 31q35 33 51 56q22 34 22 66q0 18 -7.5 31t-19.5 13q-10 0 -15 -9h1q-2 -6 -4 -12.5t-2 -12.5v-2l2 -23h-56
l-3 37q0 42 29 70t71 28zM124 687q-23 0 -42.5 -8t-34 -22.5t-23 -34.5t-8.5 -43l4 -45h71l-1 32v2q0 13 5 22l-1 -3q2 6 7 6q8 0 13 -10.5t5 -24.5q0 -30 -20 -61q-5 -8 -17.5 -21.5t-32.5 -33.5l-16 -32q-9 -17 -16 -69h213v83h-75q2 2 5 4.5t6 5.5q24 22 37 35t17 18
q24 40 24 87q0 50 -39 82q-37 31 -81 31z" />
    <glyph glyph-name="threesuperior" unicode="&#xb3;" horiz-adv-x="255" 
d="M193 527q20 31 20 68q0 77 -88 77q-37 0 -62 -18q-29 -19 -29 -57v-10l4 -15h32v8l2 18l7 16q7 7 13 7l14 -6l7 -3v-60q-2 -15 -20 -15l-20 2v-38l30 -2q10 -2 10 -9v-64q0 -20 -21 -20q-18 0 -22 14q-2 6 -2 13l2 13h-35q-1 -4 -1.5 -9t-0.5 -13q0 -65 90 -65
q99 0 99 95q0 48 -29 73zM221 595q0 -17 -5 -34t-13 -33q28 -27 28 -74q0 -104 -108 -104q-98 0 -98 74q0 17 3 31h53l-5 -23q0 -6 2 -10l-1 1q3 -9 15 -9t12 12v64h-2l-38 3v56l30 -4h-1q9 0 11 8v53l-1 1l-11 5q-5 -2 -6 -4l-5 -12l-2 -16v-17h-48l-6 21v13q0 41 33 64
q29 20 67 20q96 0 96 -86zM230 595q0 95 -105 95q-42 0 -72 -21q-36 -26 -36 -72v-13l8 -30h31v-70l40 -3v-55q0 -3 -4 -3q-6 0 -6 3v-2q-1 1 -1 6l7 34h-72q-2 -9 -3 -19t-1 -21q0 -83 107 -83q116 0 116 113q0 47 -25 75q16 31 16 66zM93 554h2l-8 1v24l2 15l3 7l4 -1v-46
h-3z" />
    <glyph glyph-name="acute" unicode="&#xb4;" horiz-adv-x="262" 
d="M101 544l-59 -108h62l106 108h-109zM229 551l-122 -123h-78l67 123h133zM91 559l-76 -139h97l136 139h-157z" />
    <glyph glyph-name="mu" unicode="&#xb5;" horiz-adv-x="462" 
d="M429 137q-16 -18 -41 -21v262h-153v-241q0 -22 -25 -22q-18 0 -18 12v251h-157v-486h73l2 126q60 0 117 67q6 -10 11 -16t7 -10q29 -40 75 -40q53 0 92 43q17 19 17 24v51zM438 86q0 -7 -20 -30q-42 -47 -98 -47q-52 0 -83 45l-7 11l-4 4q-51 -55 -107 -60l-2 -126h-91
v504h176v-260q0 -3 8 -3q16 0 16 13v250h171v-259q8 4 18 11t23 20v-73zM447 181l-22.5 -22.5t-17.5 -14.5v253h-190v-260q0 -3 -6 -3v263h-194v-523h110l1 126q50 8 96 55q2 -2 2.5 -3.5t2.5 -3.5q36 -48 91 -48q60 0 106 49q21 24 21 37v95z" />
    <glyph glyph-name="paragraph" unicode="&#xb6;" horiz-adv-x="642" 
d="M172 672q-79 0 -113 -85q-25 -60 -25 -154q0 -250 132 -271q1 -2 53 -10l60 -8l-2 -278h140v720l60 -1v-719h128l1 806h-434zM615 682v-825h-148v719l-40 1v-720h-160l2 279l-50 6q-45 5 -57 11q-138 22 -138 280q0 95 27 158q36 91 121 91h443zM172 691q-91 0 -130 -96
q-27 -66 -27 -162q0 -266 145 -290q9 -4 23 -6t34 -4l43 -6l-2 -280h178v719h22v-719h166l1 844h-453z" />
    <glyph glyph-name="periodcentered" unicode="&#xb7;" horiz-adv-x="172" 
d="M86 362q-24 0 -39.5 -16t-15.5 -40q0 -23 16 -38t39 -15t38.5 16t15.5 39t-16.5 38.5t-37.5 15.5zM86 369q24 0 43 -17.5t19 -43.5t-18 -44.5t-44 -18.5t-44.5 17.5t-18.5 43.5q0 27 18 45t45 18zM86 377q-30 0 -50 -20.5t-20 -50.5q0 -29 20.5 -49t49.5 -20t49.5 21
t20.5 50t-21 49t-49 20z" />
    <glyph glyph-name="periodcentered" unicode="&#x2219;" horiz-adv-x="172" 
d="M86 362q-24 0 -39.5 -16t-15.5 -40q0 -23 16 -38t39 -15t38.5 16t15.5 39t-16.5 38.5t-37.5 15.5zM86 369q24 0 43 -17.5t19 -43.5t-18 -44.5t-44 -18.5t-44.5 17.5t-18.5 43.5q0 27 18 45t45 18zM86 377q-30 0 -50 -20.5t-20 -50.5q0 -29 20.5 -49t49.5 -20t49.5 21
t20.5 50t-21 49t-49 20z" />
    <glyph glyph-name="cedilla" unicode="&#xb8;" horiz-adv-x="288" 
d="M170 -24l19 42h-44l-30 -75l3 -1q15 5 26 5q34 0 34 -31q0 -32 -50 -32q-17 0 -42 7l-40 15q-13 -13 -13 -25v-10l33 -11q39 -11 94 -11q21 0 35 5q60 18 60 67q0 27 -19.5 42.5t-48.5 13.5zM183 -15h10q31 0 51 -17.5t20 -46.5q0 -54 -66 -76q-18 -5 -38 -5
q-29 0 -53 3.5t-44 8.5h1q-8 2 -37 13q-2 8 -2.5 10.5t-0.5 5.5q0 15 19 34l47 -17l-2 1q13 -3 22.5 -5t17.5 -2q41 0 41 24q0 22 -25 22q-6 0 -12 -1t-14 -5l-14 7l35 88h63zM215 35h-82l-41 -100l25 -12q9 3 15.5 5t11.5 2q17 0 17 -14q0 -15 -33 -15q-14 0 -37 5h1
l-51 19q-26 -26 -26 -44q0 -4 0.5 -8.5t4.5 -14.5q28 -11 41 -13q40 -13 99 -13q20 0 41 6q71 23 71 83q0 32 -21 51.5t-55 20.5z" />
    <glyph glyph-name="onesuperior" unicode="&#xb9;" horiz-adv-x="203" 
d="M170 691h-72l-67 -60v-47l37 23v-222h102v306zM178 376h-118v215l-37 -23v68l72 64h83v-324zM186 709h-94l-77 -70v-86l37 24v-210h134v342z" />
    <glyph glyph-name="ordmasculine" unicode="&#xba;" horiz-adv-x="338" 
d="M304 630q-17 -15 -32 -12v69h-75v-9l-34 14q-17 6 -35 6q-27 0 -52 -17q-30 -20 -30 -43v-185q0 -34 42 -50q28 -12 70 -12q26 0 62 14q41 17 41 42v119q27 0 43 25v39zM160 452v169q0 18 20 18q9 -1 13 -7q-4 -7 -4 -22q0 -20 9.5 -32t24.5 -8v-90q0 -41 -41 -41l-16 3
q-6 4 -6 10zM281 373h-246v-44h246v44zM170 452l14 -4h-2q32 0 32 32v80q-15 2 -24 15.5t-9 34.5q0 14 1 19q-2 0 -3 1q-10 -1 -10 -9v-169h1zM290 320h-264v62h121q-37 2 -63 13q-47 20 -47 58v185q0 30 35 51v-1q28 19 56 19q23 0 38 -7l23 -9v5h92v-69q5 2 13 6.5
t19 15.5v-61q-20 -27 -43 -31v-110q0 -30 -47 -50q-30 -13 -58 -15h125v-62zM299 391h-64q44 20 44 56v103q23 7 43 35v83q-11 -9 -19.5 -15.5t-13.5 -9.5v62h-109l-11 4l1 -1q-19 8 -42 8q-32 0 -61 -20q-38 -23 -38 -58v-185q0 -41 40 -62h-52v-81h282v81zM205 552v-72
q0 -22 -19 -23l-8 2v118q8 -20 27 -25z" />
    <glyph glyph-name="guillemotright" unicode="&#xbb;" horiz-adv-x="366" 
d="M333 318l-145 128v-100l87 -78l-87 -79v-102l145 123v108zM179 318l-144 128v-100l86 -78l-84 -79v-102l142 123v108zM188 205l-160 -138v126l80 75l-82 74v125l162 -145v-117zM342 205l-163 -137v125l83 75l-83 74v125l163 -145v-117zM351 326l-181 160v-136l-153 136
v-148l78 -70l-76 -70v-150l151 130v-130l181 154v124zM248 268l-51 -46v91z" />
    <glyph glyph-name="onequarter" unicode="&#xbc;" horiz-adv-x="570" 
d="M216 733h-82l-76 -64v-50l41 25v-236h117v325zM432 690l-384 -671h86l387 671h-89zM507 138h-21v210h-90l-113 -205v-50h97v-69h106v69h21v45zM329 138l51 85v-85h-51zM370 147v42l-25 -42h25zM226 399h-136v228l-42 -25v72l82 69h96v-344zM516 84h-21v-70h-125v70h-96
v62l117 212h104v-211h21v-63zM538 700l-399 -691h-107l395 691h111zM422 709l-406 -709h128l410 709h-132zM525 157h-20v210h-119l-121 -219v-74h96v-69h144v69h20v83zM235 752h-108l-88 -74v-91l42 24v-222h154v363z" />
    <glyph glyph-name="onehalf" unicode="&#xbd;" horiz-adv-x="591" 
d="M244 728h-83l-77 -64v-50l42 25v-236h118v325zM443 361q-39 0 -69 -30t-30 -68l3 -30h42l-1 14q-2 15 8 34q9 15 23 15q30 -6 30 -69q0 -59 -65 -115q-26 -29 -35 -84h193v51h-125l51 37q55 39 60 51q29 23 29 88q0 46 -35 75q-36 31 -79 31zM434 690l-386 -671h86
l389 671h-89zM443 370q48 0 85 -32q38 -32 38 -83q0 -68 -31 -95q-10 -13 -61 -52l-28 -20h105v-69h-213q9 67 40 101q61 52 61 107q0 56 -22 60q-9 -2 -14 -11l1 1q-6 -12 -6 -26v-3l1 -24h-60l-4 38q0 44 33 76q31 32 75 32zM540 700l-401 -691h-108l221 385h-135v228
l-42 -25v72l82 69h96v-343l175 305h112zM424 709l-162 -280v318h-108l-88 -74v-91l42 25v-223h128l-220 -384h128l412 709h-132zM443 380q-47 0 -82 -35t-35 -84l4 -46h79l-2 33v3q0 10 5 22v-2q1 3 5 5q13 -5 13 -49q0 -52 -59 -102q-32 -33 -44 -116h234v89h-85l4 3
q46 33 60 51q35 29 35 103q0 54 -40 90q-21 17 -43.5 26t-48.5 9z" />
    <glyph glyph-name="threequarters" unicode="&#xbe;" horiz-adv-x="570" 
d="M227 556q22 35 22 73t-31 61q-28 20 -67 20q-38 0 -66 -19q-32 -20 -32 -60l5 -26h35l1 23q4 28 23 28q16 -3 22 -9v-64q-2 -15 -24 -15l-19 2v-41h14q20 0 29 -11v-68q-5 -22 -24 -22q-25 0 -25 30l3 13h-39l-2 -19q0 -73 98 -73q109 0 109 101q0 51 -32 76zM432 689
l-384 -670h86l387 670h-89zM487 137h-20v211h-90l-113 -205v-50h96v-69h107v69h20v44zM309 137l51 86v-86h-51zM351 147v42l-25 -42h25zM496 83h-20v-69h-125v69h-97v63l117 211h105v-210h20v-64zM258 629q0 -37 -20 -71q30 -27 30 -78q0 -110 -118 -110q-107 0 -107 83
l3 28h59l-6 -25q0 -18 16 -18q12 0 15 14v61q-6 6 -20 6h-24v61l30 -3h-1q13 0 15 6v59q-3 2 -6.5 2.5t-8.5 2.5q-9 -2 -12 -20v1l-1 -33h-53l-5 34q0 46 36 70q32 21 71 21q43 0 73 -22q34 -25 34 -69zM538 699l-399 -690h-107l395 690h111zM422 708l-146 -256q1 7 1 13v15
q0 48 -26 79q16 32 16 70q0 47 -38 76q-32 24 -78 24q-23 0 -41.5 -5.5t-35.5 -16.5q-40 -27 -40 -79l8 -42h35v-76h33q5 0 11 -2v-54q-1 -7 -6 -7q-6 0 -6 7l7 36h-79l-3 -36q0 -94 116 -94q52 0 85 21l-219 -381h128l410 708h-132zM506 156h-21v211h-119l-121 -219v-74h96
v-69h144v69h21v82zM112 627v-1q2 10 4 11l2 -1q1 0 3 -1v-50q-2 2 -4 2h-6z" />
    <glyph glyph-name="questiondown" unicode="&#xbf;" horiz-adv-x="555" 
d="M427 521h-186v-93h186v93zM521 -40l-64 -11q-33 -6 -61 -6q-58 0 -85 24q-33 28 -37 103l-1 20v21q0 71 32 82l94 32q42 15 42 34v138h-210l1 -50q1 -30 -21 -57l-49 -12q-63 -15 -98 -72q-30 -51 -30 -123q0 -62 25.5 -109t78.5 -79q88 -54 217 -54q82 0 166 30v89z
M436 419h-204v111h204v-111zM530 -135q-46 -17 -89.5 -25.5t-85.5 -8.5q-133 0 -222 55q-108 67 -108 197q0 75 30 128q38 61 105 77l46 10q8 11 12.5 22t4.5 23v4l-1 59h228v-147q0 -27 -48 -42l-94 -32q-26 -11 -26 -74v-21l1 -20q4 -70 33 -96q25 -21 80 -21q14 0 28 1.5
t31 3.5l75 14v-107zM539 -17l-85 -15q-33 -6 -58 -6q-51 0 -73 19q-26 22 -31 90l-1 20v20q0 58 21 64h-1l94 32q55 20 55 52v157h-14v124h-223v-124h-11l1 -69v-4q0 -21 -13 -37l-42 -10q-72 -16 -110 -80q-16 -28 -24.5 -61t-8.5 -72q0 -135 114 -204q91 -57 226 -57
q85 0 184 36v125z" />
    <glyph glyph-name="Agrave" unicode="&#xc0;" 
d="M717 174q-8 -5 -12.5 -8t-8.5 -5q-25 -14 -37 -13q-13 0 -16 11l-161 515h-192l-156 -526q-15 -49 -76 -49l-24 2v-82q24 -15 58 -15q44 0 77 40q29 33 43 81h185q14 -52 53.5 -85.5t90.5 -33.5q95 0 176 84v84zM243 217l66 196l62 -196h-128zM362 860h-124l120 -133h70z
M256 227h102l-50 156zM444 718h-90l-138 151h151zM726 86q-86 -90 -185 -90q-53 0 -94 33.5t-58 86.5h-169q-16 -48 -43 -79q-38 -43 -85 -43q-36 0 -68 20v98l35 -4h-1q53 0 67 43l157 532h208l163 -521q0 -4 6 -4h2q5 0 13.5 3.5t19.5 8.5h2h-3q5 2 16 10t17 12v-106z
M736 211q-6 -5 -21.5 -15.5t-23.5 -15.5q-23 -12 -30 -12h-2l-163 525h-221l-159 -539q-10 -36 -56 -36l-45 5v-114q19 -13 38 -18.5t39 -5.5q52 0 92 47q26 31 41 74h158q18 -54 61 -86.5t97 -32.5q103 0 195 95v129zM373 879h-179l155 -171h110zM308 352l37 -116h-75z
M661 164l-2 4z" />
    <glyph glyph-name="Aacute" unicode="&#xc1;" 
d="M717 174q-8 -5 -12.5 -8t-8.5 -5q-25 -14 -37 -13q-13 0 -16 11l-161 515h-192l-156 -526q-15 -49 -76 -49l-24 2v-82q24 -15 58 -15q44 0 77 40q29 33 43 81h185q14 -52 53.5 -85.5t90.5 -33.5q96 0 176 84v84zM243 217l66 196l62 -196h-128zM383 859l-66 -133h70
l121 133h-125zM256 227h102l-50 156zM529 868l-138 -152h-89l76 152h151zM726 86q-86 -90 -185 -90q-53 0 -94 33.5t-58 86.5h-169q-16 -48 -43 -79q-38 -43 -85 -43q-36 0 -68 20v98l35 -4h-1q53 0 67 43l157 532h208l163 -521q0 -4 6 -4h2q5 0 13.5 3.5t19.5 8.5h2h-3
q5 2 16 10t17 12v-106zM736 211q-6 -5 -21.5 -15.5t-23.5 -15.5q-24 -13 -30 -13h-2l2 -3l-2 3l-163 526h-221l-159 -539q-10 -36 -56 -36l-45 5v-114q19 -13 38 -18.5t39 -5.5q52 0 92 47q26 31 41 74h158q18 -54 61 -86.5t97 -32.5q103 0 195 95v129zM372 878l-86 -172
h110l154 172h-178zM308 352l37 -116h-75z" />
    <glyph glyph-name="Acircumflex" unicode="&#xc2;" 
d="M717 174q-8 -5 -12.5 -8t-8.5 -5q-25 -14 -37 -13q-13 0 -16 11l-161 515h-192l-156 -526q-15 -49 -76 -49l-24 2v-82q24 -15 58 -15q44 0 77 40q29 33 43 81h185q14 -52 53.5 -85.5t90.5 -33.5q96 0 176 84v84zM243 217l66 196l62 -196h-128zM428 859h-115l-93 -133h73
l76 79l74 -79h78zM256 227h102l-50 156zM539 717h-100l-70 74l-72 -74h-95l107 151h124zM726 86q-86 -90 -185 -90q-53 0 -94 33.5t-58 86.5h-169q-16 -48 -43 -79q-38 -43 -85 -43q-36 0 -68 20v98l35 -4h-1q53 0 67 43l157 532h208l163 -521q0 -4 6 -4h2q5 0 13.5 3.5
t19.5 8.5h2h-3q5 2 16 10t17 12v-106zM736 211q-6 -5 -21.5 -15.5t-23.5 -15.5q-24 -13 -30 -13h-2l2 -3l-2 3l-163 526h-221l-159 -539q-10 -36 -56 -36l-45 5v-114q19 -13 38 -18.5t39 -5.5q52 0 92 47q26 31 41 74h158q18 -54 61 -86.5t97 -32.5q103 0 195 95v129z
M437 878h-133l-121 -171h118l68 70l67 -70h122zM308 352l37 -116h-75z" />
    <glyph glyph-name="Atilde" unicode="&#xc3;" horiz-adv-x="752" 
d="M718 174q-8 -5 -12.5 -8t-8.5 -5q-25 -14 -37 -13q-13 0 -16 11l-161 515h-192l-156 -526q-15 -49 -76 -49l-24 2v-82q24 -15 58 -15q44 0 77 40q29 33 43 81h185q14 -53 53.5 -86t90.5 -33q96 0 176 84v84zM244 217l66 196l62 -196h-128zM485 851q-14 -39 -49 -39
l-65 23q-33 12 -55 12q-48 0 -83 -30.5t-42 -79.5l57 -10l15 27q10 13 25 13q10 -2 27.5 -6.5t42.5 -14.5q40 -15 77 -15q41 0 72 40q27 35 34 80h-56zM257 227h102l-50 156zM552 860q-9 -56 -38 -95q-33 -44 -79 -44q-19 0 -38.5 4t-42.5 13h1q-49 17 -68 20q-9 -1 -16 -10
l1 1l-19 -32l-72 12q8 57 45.5 92t89.5 35q23 0 58 -12l62 -22q30 0 42 38h74zM727 86q-86 -90 -185 -90q-53 0 -94 33.5t-58 86.5h-169q-16 -48 -43 -79q-38 -43 -85 -43q-36 0 -68 20v98l35 -4h-1q54 0 67 43l157 532h208l163 -521q0 -4 6 -4h2q5 0 13.5 3.5t19.5 8.5h2
h-3q5 2 16 10t17 12v-106zM737 210l-9 -6t-13 -8.5t-13 -9t-10 -6.5q-24 -13 -30 -13h-2l-163 526h-221l-159 -539q-10 -36 -56 -36l-45 5v-114q19 -13 38 -18.5t39 -5.5q52 0 92 47q26 31 41 74h158q18 -54 61 -86.5t97 -32.5q103 0 195 95v128zM472 870q-12 -36 -33 -39
l-61 22q-33 13 -62 13q-56 0 -97 -40t-50 -106l88 -14l22 38l-1 -2q2 2 4 3.5t4 2.5q9 -2 25.5 -6.5t39.5 -13.5q44 -16 84 -16q49 0 87 48q30 39 42 110h-92zM309 352l37 -116h-75zM662 164l-2 3q1 -1 2 -3z" />
    <glyph glyph-name="Adieresis" unicode="&#xc4;" horiz-adv-x="753" 
d="M718 174q-15 -11 -21 -13q-25 -14 -37 -13q-13 0 -16 11l-161 514h-192l-156 -525q-15 -50 -76 -50l-24 3v-82q24 -15 58 -15q44 0 77 40q29 33 43 81h185q14 -53 53.5 -86t90.5 -33q96 0 176 84v84zM244 217l66 196l62 -196h-128zM590 824h-164v-98h164v98zM347 824
h-163v-100h163v100zM257 226h102l-50 156zM600 717h-183v116h183v-116zM357 715h-183v118h183v-118zM727 86q-86 -90 -185 -90q-53 0 -94 33.5t-58 86.5h-169q-16 -48 -43 -79q-38 -43 -85 -43q-36 0 -68 20v98l35 -4h-1q54 0 67 43l157 531h208l163 -521q0 -3 6 -3h2
q10 0 33 12h2h-3q5 2 16 9.5t17 12.5v-106zM737 210q-6 -5 -21.5 -15.5t-23.5 -14.5q-24 -13 -30 -13h-2l2 -4l-2 4l-163 525h-221l-159 -538q-10 -36 -56 -36l-45 5v-114q19 -13 38 -18.5t39 -5.5q52 0 92 47q13 15 23 33t18 41h158q18 -54 61 -86.5t97 -32.5q103 0 195 95
v128zM366 843h-201v-138h201v138zM609 843h-202v-136h202v136zM309 352l37 -116h-75z" />
    <glyph glyph-name="Aring" unicode="&#xc5;" 
d="M383 903q-38 0 -62.5 -24.5t-24.5 -62.5t24.5 -62.5t62.5 -24.5q37 0 61.5 24.5t24.5 62.5t-24.5 62.5t-61.5 24.5zM717 175q-14 -10 -21 -14q-24 -13 -37 -12q-13 0 -16 10l-161 516h-192l-156 -526q-15 -50 -76 -50l-24 3v-83q24 -15 58 -15q44 0 77 40q14 16 24.5 36
t18.5 46h185q14 -53 53.5 -86.5t90.5 -33.5q95 0 176 84v85zM383 765q-23 0 -37 15.5t-14 35.5q0 21 15 36t36 15q20 0 35 -15.5t15 -35.5t-15 -35.5t-35 -15.5zM243 218l66 196l62 -196h-128zM383 775q16 0 28 12t12 29t-12 29t-28 12q-17 0 -29 -12t-12 -29t11.5 -29
t29.5 -12zM256 227h102l-50 157zM383 913q41 0 68 -27.5t27 -69.5t-27 -69.5t-68 -27.5q-42 0 -69 27.5t-27 69.5t27 69.5t69 27.5zM726 86q-86 -90 -185 -90q-53 0 -94 33.5t-58 86.5h-169q-8 -24 -19 -43.5t-24 -35.5q-38 -43 -85 -43q-36 0 -68 20v98l35 -4h-1
q53 0 67 44l157 533h208l163 -523q0 -4 6 -4h2q9 0 33 13h2h-3q5 2 16 9.5t17 12.5v-107zM736 211q-6 -5 -21.5 -15.5t-23.5 -15.5q-11 -5 -18.5 -8.5t-11.5 -3.5h-2l-163 526h-221l-159 -540q-10 -36 -56 -36l-45 6v-115q19 -13 38 -18.5t39 -5.5q52 0 92 47q26 31 41 74
h158q18 -54 61 -86.5t97 -32.5q103 0 195 95v129zM383 923q-23 0 -42 -8t-33.5 -22.5t-22.5 -34t-8 -42.5t8 -42t22.5 -33.5t33.5 -22.5t42 -8q22 0 41 8t33.5 22.5t22.5 33.5t8 42t-8 42.5t-22.5 34t-33.5 22.5t-41 8zM308 353l37 -116h-75zM383 785q-14 0 -23 9.5t-9 21.5
q0 13 9 22.5t23 9.5q12 0 21.5 -10t9.5 -22t-9.5 -21.5t-21.5 -9.5zM661 164l-2 4z" />
    <glyph glyph-name="AE" unicode="&#xc6;" horiz-adv-x="859" 
d="M824 182q-63 -54 -126 -54q-75 0 -75 108q0 46 33 82q34 36 81 34l17 -1v77l-10 -1h-15q-67 0 -90 40q-3 8 -5 19.5t-2 26.5q0 29 20 46.5t52 17.5q44 0 81 -25v79q-79 59 -194 59q-54 0 -104 -32l-2 9h-194l-156 -520q-7 -23 -29.5 -37.5t-45.5 -12.5l-13 1l-12 2v-81
q24 -15 51 -15q55 0 86 35q11 13 21.5 34t19.5 51h194q49 -116 189 -116q64 0 127 27q65 29 101 77v70zM244 215l66 194l63 -194h-129zM257 225h103l-51 154zM834 109q-21 -26 -47.5 -47t-59.5 -35q-66 -29 -131 -29q-143 0 -195 117h-180q-21 -59 -41 -83q-35 -38 -94 -38
q-29 0 -61 20v99l24 -6h-1l13 -1h4q20 0 37.5 12.5t22.5 31.5l158 527h209l1 -5q48 27 98 27q118 0 204 -63v-100q-50 32 -91 32q-27 0 -45 -15.5t-18 -39.5q0 -26 7 -42v1q17 -35 81 -35h14l20 2v-99l-27 2h-6q-37 0 -67 -30q-30 -33 -30 -76q0 -99 65 -99q59 0 136 67v-95
zM843 224q-89 -77 -145 -77t-56 89q0 37 29 69h-1q28 28 60 28h6l37 -2v118l-31 -3h-13q-57 0 -73 30v-1q-5 12 -5 38q0 20 15 32.5t38 12.5q35 0 100 -41v124q-92 68 -213 68q-26 0 -48.5 -6t-45.5 -17h-220l-160 -534q-5 -16 -20 -26t-32 -10h-4l-13 1l3 -1l-36 8v-115
q37 -24 71 -24q64 0 100 42q22 25 40 78h168q57 -116 202 -116q66 0 135 29q68 30 112 87v119zM309 349l37 -115h-75z" />
    <glyph glyph-name="Ccedilla" unicode="&#xc7;" horiz-adv-x="513" 
d="M479 166l-76 -47q-10 -6 -23 -9l-23 -3q-27 0 -46.5 13t-19.5 36v349q0 76 60 76q51 0 105 -45v86q-65 64 -182 64q-114 0 -182 -113q-58 -95 -58 -223q0 -147 53 -238q66 -112 198 -112h18l-31 -52l4 -1q12 5 22 5q31 0 31 -30q0 -18 -11 -22q-18 -9 -34 -9q-24 0 -37 6
l-38 15q-11 -16 -11 -33q57 -22 116 -22q33 0 59.5 18.5t26.5 50.5q0 26 -18.5 42t-44.5 14l-14 -1l30 29q20 5 35.5 12.5t28.5 15.5q16 13 24 18q14 11 23.5 18t14.5 12v80zM488 82q-10 -10 -16 -14t-16 -12q-6 -4 -9 -7q-2 -2 -4.5 -4t-5.5 -4q-2 -2 -6 -5t-8 -5
q-14 -10 -30.5 -17t-35.5 -13l-9 -10q25 -2 43 -19.5t18 -45.5q0 -18 -8 -32.5t-21 -25t-30.5 -16t-35.5 -5.5q-55 0 -125 26q0 27 18 51l44 -19q11 -4 33 -4q14 0 31 7q5 3 5 14q0 21 -22 21q-9 0 -22 -6l-19 6l29 47h-1q-68 0 -120 29.5t-86 87.5q-28 48 -41 108t-13 135
q0 128 60 227q71 119 189 119q121 0 191 -70v-110q-67 56 -114 56q-50 0 -50 -67v-349q0 -18 16 -28.5t39 -10.5l23 2h-1q13 3 21 8l89 57v-102zM497 200l-104 -64q-7 -5 -16 -7h1l-23 -3q-19 0 -32 8t-13 22v349q0 57 41 57q44 0 123 -65v133q-75 75 -200 75
q-126 0 -198 -122q-61 -102 -61 -233q0 -151 57 -248q65 -114 198 -120l-27 -46l35 -9q13 6 20 6q13 0 13 -11q0 -4 -1 -5h1q-13 -7 -27 -7q-17 0 -30 5l-50 20q-24 -32 -24 -70q76 -28 134 -28q20 0 38.5 6.5t33 18t23.5 28t9 36.5q0 26 -13 44t-33 26q17 6 30.5 12
t24.5 14q5 3 9 6t7 5t4.5 3.5l3.5 3.5q3 2 5 4l4 4q5 3 8 5t7 4.5t9 7t13 13.5v122z" />
    <glyph glyph-name="Egrave" unicode="&#xc8;" horiz-adv-x="499" 
d="M466 184q-56 -55 -128 -55q-35 0 -55 38q-15 33 -15 71q0 44 35 84q37 38 77 34l17 -2v79l-24 -2q-40 -3 -66 21t-26 61q0 26 13.5 47t35.5 21q46 0 98 -23v79q-71 60 -171 60q-40 0 -75 -11.5t-66 -33.5q-69 -51 -69 -130q0 -94 76 -140q-88 -45 -88 -159q0 -95 61 -156
q63 -60 155 -60q125 0 215 106v71zM223 858h-120l117 -132h68zM304 717h-88l-134 151h147zM475 108q-93 -111 -224 -111q-95 0 -161 63q-65 65 -65 163q0 57 20 95.5t60 63.5q-67 49 -67 140q0 84 72 137q65 47 147 47q53 0 97.5 -16t82.5 -48v-98q-60 27 -107 27
q-18 0 -28.5 -17.5t-10.5 -40.5q0 -31 21 -52t53 -21h7l34 3v-99l-27 2h-7q-35 0 -63 -31q-32 -37 -32 -77q0 -37 15 -67v1q16 -33 46 -33q67 0 137 67v-98zM234 878h-174l148 -167q-58 -11 -103 -44q-76 -56 -76 -145t60 -139q-73 -52 -73 -160q0 -103 67 -170
q68 -65 168 -65q133 0 233 118v123q-84 -81 -146 -81q-25 0 -38 28q-14 28 -14 62q0 35 30 70q26 29 56 29h6l37 -4v121l-44 -4h-6q-28 0 -46.5 18t-18.5 45q0 20 8 34.5t22 14.5q23 0 51.5 -8.5t64.5 -24.5v118q-29 24 -61.5 40t-68.5 23z" />
    <glyph glyph-name="Eacute" unicode="&#xc9;" horiz-adv-x="499" 
d="M465 184q-56 -55 -128 -55q-35 0 -55 38q-15 33 -15 71q0 44 35 84q37 38 77 34l17 -2v79l-24 -2q-40 -3 -66 21t-26 61q0 26 13.5 47t35.5 21q46 0 98 -23v79q-71 60 -171 60q-40 0 -75 -11.5t-66 -33.5q-69 -51 -69 -130q0 -94 76 -140q-88 -45 -88 -159q0 -95 61 -156
q63 -60 155 -60q125 0 215 106v71zM268 858l-64 -133h68l117 133h-121zM410 868l-134 -152h-87l74 152h147zM474 108q-93 -111 -224 -111q-95 0 -161 63q-65 65 -65 163q0 57 20 95.5t60 63.5q-67 49 -67 140q0 84 72 137q65 47 147 47q53 0 97.5 -16t82.5 -48v-98
q-60 27 -107 27q-18 0 -28.5 -17.5t-10.5 -40.5q0 -31 21 -52t53 -21h7l34 3v-99l-27 2h-7q-35 0 -63 -31q-32 -37 -32 -77q0 -37 15 -67v1q16 -33 46 -33q67 0 137 67v-98zM257 878l-83 -172h10q-44 -12 -80 -39q-76 -56 -76 -145t60 -139q-73 -52 -73 -160q0 -103 67 -170
q68 -65 168 -65q133 0 233 118v123q-84 -81 -146 -81q-25 0 -38 28q-14 28 -14 62q0 35 30 70q26 29 56 29h6l37 -4v121l-44 -4h-6q-28 0 -46.5 18t-18.5 45q0 20 8 34.5t22 14.5q23 0 51.5 -8.5t64.5 -24.5v118q-70 58 -158 67l144 164h-174z" />
    <glyph glyph-name="Ecircumflex" unicode="&#xca;" horiz-adv-x="500" 
d="M466 184q-56 -55 -128 -55q-35 0 -55 38q-15 33 -15 71q0 44 35 84q37 38 77 34l17 -2v79l-24 -2q-40 -3 -66 21t-26 61q0 26 13.5 47t35.5 21q46 0 98 -23v79q-71 60 -171 60q-40 0 -75 -11.5t-66 -33.5q-69 -51 -69 -130q0 -94 76 -140q-88 -45 -88 -159q0 -95 61 -156
q63 -60 155 -60q125 0 215 106v71zM291 857h-112l-91 -132h72l74 79l71 -79h76zM398 716h-96l-68 73l-70 -73h-94l105 151h120zM475 108q-93 -111 -224 -111q-95 0 -161 63q-65 65 -65 163q0 57 20 95.5t60 63.5q-67 49 -67 140q0 84 72 137q65 47 147 47q53 0 97.5 -16
t82.5 -48v-98q-60 27 -107 27q-18 0 -28.5 -17.5t-10.5 -40.5q0 -31 21 -52t53 -21h7l34 3v-99l-27 2h-7q-35 0 -63 -31q-32 -37 -32 -77q0 -37 15 -67v1q16 -33 46 -33q67 0 137 67v-98zM300 877h-130l-118 -171h115l67 70l57 -62q-8 1 -17 1.5t-17 0.5q-85 0 -152 -49
q-76 -56 -76 -145t60 -139q-73 -52 -73 -160q0 -103 67 -170q68 -65 168 -65q133 0 233 118v123q-84 -81 -146 -81q-25 0 -38 28q-14 28 -14 62q0 35 30 70q26 29 56 29h6l37 -4v121l-44 -4h-6q-28 0 -46.5 18t-18.5 45q0 20 8 34.5t22 14.5q23 0 51.5 -8.5t64.5 -24.5v118
q-51 42 -113 59h84z" />
    <glyph glyph-name="Edieresis" unicode="&#xcb;" horiz-adv-x="500" 
d="M466 183q-57 -54 -128 -54q-36 0 -55 38q-15 31 -15 71q0 43 35 83q35 38 77 34l17 -2v79l-24 -2q-40 -3 -66 21t-26 61q0 26 13.5 47t35.5 21q46 0 98 -23v79q-71 59 -171 59q-79 0 -141 -44q-69 -51 -69 -130q0 -92 76 -140q-88 -43 -88 -158q0 -95 61 -156
q63 -60 155 -60q125 0 215 106v70zM452 824h-159v-97h159v97zM216 824h-159v-99h159v99zM461 717h-178v117h178v-117zM225 716h-178v118h178v-118zM475 108q-93 -111 -224 -111q-95 0 -161 63q-65 65 -65 163q0 110 80 158q-67 51 -67 140q0 84 72 137q65 47 147 47
q53 0 97.5 -16t82.5 -48v-98q-60 27 -107 27q-18 0 -28.5 -17.5t-10.5 -40.5q0 -31 21 -52t53 -21h7l34 3v-99l-27 3h-7q-34 0 -63 -32q-32 -37 -32 -76q0 -37 15 -67v1q16 -33 46 -33q68 0 137 66v-97zM470 844h-196v-130q-5 1 -9 1h-8q-6 0 -11.5 -0.5t-11.5 -0.5v130
h-196v-138h149q-46 -14 -82 -40q-76 -56 -76 -145q0 -88 60 -139q-73 -51 -73 -159q0 -104 67 -170q68 -65 168 -65q133 0 233 118v122q-85 -80 -146 -80q-25 0 -38 28q-14 28 -14 62q0 35 30 70q25 28 56 28h6l37 -4v121l-44 -4h-6q-28 0 -46.5 18t-18.5 45q0 20 8 34.5
t22 14.5q23 0 51.5 -8.5t64.5 -24.5v118q-55 45 -125 62h149v136z" />
    <glyph glyph-name="Igrave" unicode="&#xcc;" horiz-adv-x="419" 
d="M385 674h-337v-83h98v-443q0 -34 -63 -34q-30 0 -49 9v-87q8 -3 17 -6.5t18 -6.5q24 -7 52 -10t60 -3q74 0 132 31q72 42 72 111v522zM229 857h-118l115 -132h67zM308 716h-86l-132 151h145zM394 152q0 -75 -77 -119q-60 -33 -136 -33q-33 0 -62 3.5t-53 9.5
q-8 3 -18.5 7.5t-22.5 9.5v109q29 -16 58 -16q54 0 54 25v434h-98v101h355v-531zM403 693h-373v-121h98v-424q0 -15 -45 -15q-25 0 -67 21v-130q14 -7 26.5 -11.5t20.5 -7.5q52 -15 118 -15q77 0 140 34q82 47 82 128v541zM240 876h-171l148 -170h106z" />
    <glyph glyph-name="Iacute" unicode="&#xcd;" horiz-adv-x="418" 
d="M384 674h-337v-83h98v-443q0 -34 -63 -34q-30 0 -49 9v-87q8 -3 17 -6.5t18 -6.5q24 -7 52 -10t60 -3q74 0 132 31q72 42 72 111v522zM214 859l-64 -133h67l115 133h-118zM353 869l-132 -152h-85l72 152h145zM393 152q0 -75 -77 -119q-60 -33 -136 -33q-33 0 -62 3.5
t-53 9.5q-8 3 -18.5 7.5t-22.5 9.5v109q29 -16 58 -16q54 0 54 25v434h-98v101h355v-531zM402 693h-373v-121h98v-424q0 -15 -45 -15q-25 0 -67 21v-130q14 -7 26.5 -11.5t20.5 -7.5q52 -15 118 -15q77 0 140 34q82 47 82 128v541zM203 878l-83 -171h106l147 171h-170z" />
    <glyph glyph-name="Icircumflex" unicode="&#xce;" horiz-adv-x="452" 
d="M386 674h-338v-83h98v-443q0 -34 -62 -34q-31 0 -50 9v-87q8 -3 17 -6.5t18 -6.5q46 -13 113 -13q74 0 132 31q72 42 72 111v522zM311 859h-110l-90 -132h71l73 79l71 -79h74zM417 718h-95l-67 73l-70 -73h-91l102 151h120zM396 152q0 -75 -78 -119q-60 -33 -136 -33
q-34 0 -63 3.5t-53 9.5q-8 3 -18.5 7.5t-22.5 9.5v109q29 -16 59 -16q53 0 53 25v434h-98v101h357v-531zM405 693h-375v-121h98v-424q0 -15 -44 -15q-26 0 -68 21v-130q14 -7 27 -11.5t21 -7.5q51 -15 118 -15q77 0 140 34q83 48 83 128v541zM320 878h-128l-117 -170h114
l66 70l63 -70h118z" />
    <glyph glyph-name="Idieresis" unicode="&#xcf;" horiz-adv-x="498" 
d="M392 672h-342v-82h99v-442q0 -34 -63 -34q-31 0 -50 9v-87q8 -3 17 -6.5t18 -6.5q24 -7 53 -10t61 -3q75 0 133 31q74 42 74 111v520zM464 824h-159v-97h159v97zM228 824h-159v-99h159v99zM473 717h-178v117h178v-117zM237 715h-177v119h177v-119zM401 152
q0 -75 -78 -120q-61 -32 -138 -32q-34 0 -63.5 3.5t-53.5 9.5q-8 3 -19 7.5t-22 9.5v109q29 -16 59 -16q54 0 54 25v433h-100v101h361v-530zM411 692h-380v-121h100v-423q0 -15 -45 -15q-14 0 -30.5 5t-38.5 16v-130q15 -7 27.5 -11.5t20.5 -7.5q52 -15 120 -15q77 0 142 34
q84 47 84 128v540zM247 843h-196v-137h196v137zM482 843h-196v-135h196v135z" />
    <glyph glyph-name="Eth" unicode="&#xd0;" horiz-adv-x="662" 
d="M467 665h-428v-96h71v-164h-72v-103h72v-194h-74v-91h470q72 0 100 100q23 77 20 175l-1 39l-1 24q-8 177 -28 227q-36 83 -129 83zM467 108h-106v194h53v103h-53v164h84q23 0 37 -15.5t22 -46.5q5 -21 7.5 -59t2.5 -93q0 -247 -47 -247zM467 117q38 0 38 238
q0 54 -3 91.5t-8 59.5q-14 53 -49 53h-75v-144h53v-122h-53v-176h97zM467 675q99 0 137 -89q11 -26 18.5 -84t11.5 -147v-24l1 -39v-22q0 -90 -19 -156q-31 -106 -110 -106h-480v109h74v176h-71v122h71v144h-70v116h437zM467 684h-446v-134h70v-126h-71v-141h71v-156h-74
v-129h489q85 0 118 113q21 72 21 159v22l-1 39l-1 25q-8 179 -30 234q-39 94 -146 94zM467 127h-87v156h52v141h-52v126h65q15 0 24.5 -12t16.5 -35q9 -39 9 -148q0 -228 -28 -228z" />
    <glyph glyph-name="Ntilde" unicode="&#xd1;" horiz-adv-x="777" 
d="M741 677h-239v-331l-169 331h-298v-90h78v-443q-1 -15 -13 -22t-30 -7q-21 0 -35 8v-76q51 -34 123 -34q38 0 69.5 8t58.5 23q66 39 66 108v261l196 -396h193v660zM543 848q-13 -38 -50 -38l-64 23q-35 11 -55 11q-49 0 -84 -30.5t-42 -79.5l57 -9l16 27q10 13 24 13
q20 -3 70 -21q21 -8 40.5 -11.5t36.5 -3.5q42 0 72 40q28 35 35 79h-56zM610 858q-5 -30 -14.5 -53t-23.5 -42q-34 -44 -80 -44q-38 0 -80 16h1q-24 9 -41 13.5t-28 6.5q-10 -2 -16 -9l1 1l-19 -33l-72 13q8 57 45.5 92t90.5 35q25 0 58 -13l61 -22q29 0 43 39h74zM750 8
h-207l-182 365v-221q0 -75 -70 -117q-55 -31 -133 -31q-75 0 -133 38v99q28 -17 45 -17q14 0 23 5t10 15v434h-78v109h314l153 -301v301h258v-679zM760 696h-277v-271l-139 271h-328v-128h78v-423q-2 -11 -24 -11q-14 0 -54 23v-121q65 -42 142 -42q40 0 74.5 8.5t63.5 24.5
q75 43 75 125v180l165 -334h224v698zM529 867q-10 -35 -32 -38l-62 22q-17 7 -32 9.5t-29 2.5q-28 0 -53 -10.5t-44.5 -29.5t-32.5 -46t-17 -59l88 -14l22 38l-1 -2q2 4 7 6q17 -3 66 -20q22 -9 42.5 -13t40.5 -4q26 0 47.5 12.5t40.5 35.5q15 20 25.5 47t15.5 63h-92z" />
    <glyph glyph-name="Ograve" unicode="&#xd2;" horiz-adv-x="607" 
d="M574 645q-31 -21 -61 -26v55h-152v-19q-52 14 -98 20t-86 6q-58 0 -100 -45q-42 -44 -42 -103v-413q0 -38 45 -71q63 -45 187 -45q90 0 154 26q92 38 92 115v360q39 7 61 40v100zM340 101q-22 0 -42 10q-27 12 -27 30v424q12 40 48 46q19 0 39 -13l-7 -20q-2 -8 -2 -19
q0 -13 4.5 -26t12.5 -23t18.5 -16t23.5 -6l14 2v-345q0 -22 -32 -35q-23 -9 -50 -9zM292 859h-122l118 -133h70zM374 717h-89l-137 151h150zM340 111q26 0 47 8q26 9 26 26v334h-4q-30 0 -49.5 25t-19.5 55q0 13 2 21l4 13q-7 4 -13 5.5t-12 2.5q-29 -4 -41 -39v-421
q0 -12 22 -21q19 -9 38 -9zM583 542q-12 -17 -26.5 -28.5t-34.5 -16.5v-352q0 -83 -97 -124q-68 -27 -158 -27q-64 0 -112 12t-81 35q-48 36 -48 79v413q0 63 45 110q45 48 106 48q77 0 175 -24v16h170v-52q13 4 28.5 11t32.5 21v-121zM592 682q-36 -26 -60 -37v48h-189v-14
q-92 22 -166 22q-64 0 -113 -51q-48 -51 -48 -117v-413q0 -49 53 -87q69 -48 198 -48q47 0 87 6t74 20q104 42 104 134v345q19 6 33.5 18.5t26.5 29.5v144zM340 121q-18 0 -35 7q-16 8 -16 13v421q11 26 31 30q7 0 15 -3l-2 -6q-2 -5 -2 -11v-13q0 -16 5 -31.5t14.5 -28
t23 -20.5t29.5 -10v-324q0 -10 -19 -17q-18 -7 -44 -7zM303 878h-176l153 -171h109z" />
    <glyph glyph-name="Oacute" unicode="&#xd3;" horiz-adv-x="608" 
d="M574 645q-31 -21 -61 -26v55h-152v-19q-104 27 -184 27q-57 0 -100 -45q-42 -45 -42 -104v-413q0 -38 45 -71q63 -45 187 -45q90 0 154 26q92 38 92 115v360q39 7 61 40v100zM340 101q-22 0 -42 10q-27 12 -27 30v424q12 40 48 46q19 0 39 -13l-7 -20q-2 -8 -2 -19
q0 -13 4.5 -26t12.5 -23t18.5 -16t23.5 -6l14 2v-345q0 -22 -32 -35q-23 -9 -50 -9zM338 860l-65 -134h69l119 134h-123zM482 869l-137 -152h-87l74 152h150zM340 111q26 0 47 8q26 9 26 26v334h-4q-30 0 -49.5 25t-19.5 55q0 13 2 21l4 13q-16 8 -27 8q-27 -6 -39 -39v-421
q0 -12 22 -21q19 -9 38 -9zM583 542q-12 -17 -26.5 -28.5t-34.5 -16.5v-352q0 -83 -97 -124q-68 -27 -158 -27q-64 0 -112 12t-81 35q-48 36 -48 79v413q0 63 45 110q45 48 106 48q77 0 175 -24v16h170v-52q13 4 28.5 11t32.5 21v-121zM592 682q-36 -26 -60 -37v48h-189v-14
q-92 22 -166 22q-64 0 -113 -51q-48 -51 -48 -117v-413q0 -49 53 -86q68 -49 198 -49q47 0 87 6t74 20q104 42 104 134v345q19 6 33.5 18.5t26.5 29.5v144zM340 121q-18 0 -35 7q-16 8 -16 13v421q11 26 33 30q3 -1 6.5 -1.5t6.5 -1.5l-2 -6q-2 -5 -2 -11v-13q0 -16 5 -31.5
t14.5 -28t23 -20.5t29.5 -10v-324q0 -10 -19 -17q-18 -7 -44 -7zM327 879l-85 -172h108l153 172h-176z" />
    <glyph glyph-name="Ocircumflex" unicode="&#xd4;" horiz-adv-x="608" 
d="M574 645q-31 -21 -61 -26v55h-152v-19q-52 14 -98 20t-86 6q-58 0 -100 -45q-42 -44 -42 -103v-413q0 -38 45 -71q63 -45 187 -45q90 0 154 26q92 38 92 115v360q39 7 61 40v100zM340 101q-22 0 -42 10q-27 12 -27 30v424q12 40 48 46q19 0 39 -13l-7 -20q-2 -8 -2 -19
q0 -13 4.5 -26t12.5 -23t18.5 -16t23.5 -6l14 2v-345q0 -22 -32 -35q-23 -9 -50 -9zM369 858h-113l-93 -133h73l75 79l73 -79h77zM478 716h-98l-69 74l-71 -74h-95l106 151h123zM340 111q26 0 47 8q26 9 26 26v334h-4q-30 0 -49.5 25t-19.5 55q0 13 2 21l4 13q-7 4 -13 5.5
t-12 2.5q-29 -4 -41 -39v-421q0 -12 22 -21q19 -9 38 -9zM583 542q-12 -17 -26.5 -28.5t-34.5 -16.5v-352q0 -83 -97 -124q-68 -27 -158 -27q-64 0 -112 12t-81 35q-48 36 -48 79v413q0 63 45 110q45 48 106 48q77 0 175 -24v16h170v-52q13 4 28.5 11t32.5 21v-121zM592 682
q-36 -26 -60 -37v48h-189v-14q-92 22 -166 22q-64 0 -113 -51q-48 -51 -48 -117v-413q0 -49 53 -87q69 -48 198 -48q47 0 87 6t74 20q104 42 104 134v345q19 6 33.5 18.5t26.5 29.5v144zM340 121q-18 0 -35 7q-16 8 -16 13v421q11 26 33 29q5 0 13 -2l-2 -6q-2 -5 -2 -11
v-13q0 -16 5 -31.5t14.5 -28t23 -20.5t29.5 -10v-324q0 -10 -19 -17q-18 -7 -44 -7zM378 877h-132l-119 -171h117l67 70l65 -70h121z" />
    <glyph glyph-name="Otilde" unicode="&#xd5;" horiz-adv-x="608" 
d="M574 645q-31 -21 -61 -26v55h-152v-20q-52 14 -98 20.5t-86 6.5q-58 0 -100 -45q-42 -44 -42 -103v-413q0 -38 45 -71q63 -45 187 -45q90 0 154 26q92 38 92 114v361q40 7 61 39v101zM340 101q-22 0 -42 10q-27 12 -27 30v423q12 42 48 46q20 0 39 -12l-7 -20
q-2 -8 -2 -19q0 -27 16.5 -49t42.5 -22l14 2v-346q0 -21 -32 -34q-23 -9 -50 -9zM423 851q-12 -39 -49 -39l-63 23q-33 12 -54 12q-48 0 -82.5 -30.5t-41.5 -79.5l56 -10l15 27q10 13 25 13q10 -2 27 -6.5t42 -14.5q40 -15 76 -15q40 0 71 40q13 18 21.5 37.5t11.5 42.5h-55
zM489 860q-7 -56 -37 -95q-33 -44 -78 -44q-39 0 -80 17h1q-23 8 -39.5 13t-27.5 7q-9 -1 -16 -10l1 1l-19 -32l-71 12q8 57 45 92t89 35q22 0 57 -12l60 -22q30 0 43 38h72zM340 111q26 0 47 8q26 9 26 25v334h-4q-15 0 -27.5 7t-22 18.5t-14.5 26t-5 29.5q0 13 2 21l4 13
q-7 4 -13 5.5t-12 2.5q-29 -4 -41 -39v-421q0 -12 22 -21q19 -9 38 -9zM583 542q-12 -17 -26.5 -28.5t-34.5 -16.5v-353q0 -82 -97 -123q-68 -27 -158 -27q-64 0 -112 12t-81 35q-48 36 -48 79v413q0 62 45 110t106 48q77 0 175 -24v16h170v-52q13 3 28.5 10.5t32.5 21.5
v-121zM592 682q-36 -26 -60 -37v48h-189v-15q-48 12 -89 17t-77 5q-65 0 -113 -50q-48 -51 -48 -117v-413q0 -49 53 -87q69 -48 198 -48q47 0 87 6t74 20q104 42 104 133v346q19 6 33.5 18.5t26.5 29.5v144zM340 121q-9 0 -17.5 1t-17.5 6q-16 8 -16 13v421q11 25 31 29
q7 0 15 -3l-2 -5q-2 -5 -2 -11v-13q0 -16 5 -31.5t14.5 -28t23 -20.5t29.5 -10v-325q0 -9 -19 -16q-18 -7 -44 -7zM410 870q-10 -36 -32 -39l-61 22q-32 13 -60 13q-27 0 -51.5 -10.5t-44 -30t-32.5 -46t-17 -59.5l87 -14l21 38l-1 -2q2 2 4 3.5t4 2.5q9 -2 25 -6.5
t39 -13.5q42 -16 83 -16q48 0 86 48q29 40 41 110h-91z" />
    <glyph glyph-name="Odieresis" unicode="&#xd6;" horiz-adv-x="609" 
d="M575 644q-31 -21 -61 -26v55h-152v-19q-52 14 -98 20t-86 6q-58 0 -100 -45q-42 -44 -42 -103v-413q0 -37 45 -70q63 -45 187 -45q90 0 154 26q92 36 92 114v361q39 6 61 39v100zM341 101q-22 0 -42 10q-27 10 -27 29v424q12 40 48 46q19 0 39 -13l-7 -20q-2 -8 -2 -19
q0 -13 4.5 -26t12.5 -23t18.5 -16t23.5 -6l14 2v-345q0 -22 -32 -34q-23 -9 -50 -9zM507 826h-161v-98h161v98zM268 826h-162v-100h162v100zM517 719h-181v116h181v-116zM277 717h-180v118h180v-118zM341 111q14 0 25.5 2t21.5 5q26 11 26 26v334h-4q-30 0 -49.5 25
t-19.5 55q0 13 2 21l4 13q-7 4 -13 5.5t-12 2.5q-29 -4 -41 -39v-421q0 -10 22 -21q21 -8 38 -8zM584 541q-24 -35 -61 -45v-352q0 -82 -97 -123q-68 -27 -158 -27q-64 0 -112 12t-81 35q-48 36 -48 78v413q0 63 45 110q45 48 106 48q77 0 175 -24v16h170v-52
q13 3 28.5 10.5t32.5 21.5v-121zM593 681q-36 -26 -60 -37v48h-189v-15q-48 12 -89 17t-77 5q-65 0 -113 -50q-48 -51 -48 -117v-413q0 -48 53 -86q69 -48 198 -48q47 0 87 6t74 20q104 42 104 133v345q19 6 33.5 18.5t26.5 29.5v144zM341 120q-19 0 -35 8t-16 12v421
q11 26 31 30q7 0 15 -3l-2 -6q-2 -5 -2 -11v-13q0 -16 5 -31.5t14.5 -28t23 -20.5t29.5 -10v-324q0 -9 -19 -16q-21 -8 -44 -8zM287 845h-200v-138h200v138zM526 845h-199v-136h199v136z" />
    <glyph glyph-name="multiply" unicode="&#xd7;" horiz-adv-x="487" 
d="M358 499l-115 -178l-113 178h-80l155 -239l-153 -240h75l116 180l117 -180h75l-152 240l154 239h-79zM454 509l-161 -249l159 -249h-96l-113 172l-111 -172h-96l158 248l-162 250h103l108 -172l110 172h101zM348 518l-105 -163l-103 163h-124l167 -258l-164 -258h118
l106 163l107 -163h119l-164 258l166 258h-123z" />
    <glyph glyph-name="Oslash" unicode="&#xd8;" horiz-adv-x="641" 
d="M497 751l-44 -79h-77v-19q-99 24 -168 24t-112 -37q-47 -41 -47 -108v-403q0 -48 51 -93l-52 -95h94l38 69l69 -3q46 -2 67 -3t18 -1q70 0 126 34q68 42 68 107v360q39 7 60 39v101q-25 -33 -60 -45v39l64 113h-95zM284 360v203q2 14 20 28t34 14q45 0 51 -45zM349 98
q-19 0 -40 12q-25 12 -25 30v59l153 278v-333q-3 -16 -36 -31q-32 -15 -52 -15zM310 583q-8 -5 -11.5 -10.5t-4.5 -10.5v-164l85 164q-6 34 -41 34q-12 0 -28 -13zM349 108q9 0 21 3.5t28 9.5q29 14 29 25v293l-133 -243v-56q0 -12 19 -22q22 -10 36 -10zM609 760l-72 -126
v-21q28 17 61 57v-129q-12 -17 -26.5 -28.5t-34.5 -16.5v-352q0 -72 -72 -115q-59 -36 -131 -36v16q-2 -4 -5 -9.5t-8 -5.5q-10 1 -29 1q-18 0 -44 2h1l-63 3l-38 -69h-116l56 102q-48 46 -48 96v403q0 73 51 115q44 40 117 40q66 0 159 -21v16h80l44 78h118zM486 770
l-44 -79h-85v-14q-45 10 -82 14.5t-67 4.5q-76 0 -124 -42q-53 -44 -53 -122v-403q0 -51 46 -97l-61 -110h136l39 68l57 -2q26 -2 44 -2q19 0 29 -1q5 0 8 11t5 19v-31q74 0 136 37q76 48 76 123v345q20 6 34.5 18.5t26.5 29.5v160q-34 -43 -61 -65l79 138h-139zM349 117
q-15 0 -32 10q-14 8 -14 13v54l115 210v-256v-1q-2 -5 -25 -17h1q-14 -7 -25.5 -10t-19.5 -3zM315 576q14 10 23 10q26 0 31 -24l-66 -126v126q2 4 12 14z" />
    <glyph glyph-name="Ugrave" unicode="&#xd9;" horiz-adv-x="792" 
d="M758 184q-29 -25 -70 -25v518h-243v-482q0 -32 -58 -32q-38 0 -38 17v493h-314v-71h67v-458q0 -55 53 -91q48 -34 104 -34q67 0 107 23q29 18 61 63q74 -88 163 -88q52 0 97 25.5t71 70.5v71zM368 855h-125l121 -132h70zM450 713h-90l-139 152h152zM768 110
q-28 -48 -75.5 -75t-102.5 -27q-91 0 -163 81q-31 -41 -57 -56q-37 -23 -111 -23q-60 0 -110 35q-57 39 -57 99v448h-66v91h332v-503q0 -8 29 -8q48 0 48 23v492h262v-519q32 5 71 36v-94zM777 225q-43 -36 -70 -44v515h-281v-501q0 -13 -39 -13q-19 0 -19 -2v512h-352v-110
h67v-438q0 -65 61 -108v1q53 -37 115 -37q73 0 116 26q24 12 52 49q74 -77 163 -77q57 0 107 29t80 81v117zM379 874h-180l156 -170h110z" />
    <glyph glyph-name="Uacute" unicode="&#xda;" horiz-adv-x="792" 
d="M757 184q-29 -25 -70 -25v518h-243v-482q0 -32 -58 -32q-38 0 -38 17v493h-314v-71h67v-458q0 -55 53 -91q48 -34 104 -34q67 0 107 23q29 18 61 63q74 -88 163 -88q52 0 97 25.5t71 70.5v71zM424 860l-67 -133h70l121 133h-124zM570 870l-139 -153h-89l76 153h152z
M767 110q-28 -48 -75.5 -75t-102.5 -27q-91 0 -163 81q-31 -41 -57 -56q-37 -23 -111 -23q-60 0 -110 35q-57 39 -57 99v448h-66v91h332v-503q0 -8 29 -8q48 0 48 23v492h262v-519q32 5 71 36v-94zM776 225q-43 -36 -70 -44v515h-281v-501q0 -13 -39 -13q-19 0 -19 -2v513
h-352v-110h67v-439q0 -65 61 -108v1q53 -37 115 -37q73 0 116 26q24 12 52 49q74 -77 163 -77q57 0 107 29t80 81v117zM412 879l-86 -171h110l155 171h-179z" />
    <glyph glyph-name="Ucircumflex" unicode="&#xdb;" horiz-adv-x="793" 
d="M758 184q-29 -25 -70 -25v518h-243v-482q0 -32 -58 -32q-38 0 -38 17v493h-314v-71h67v-458q0 -55 53 -91q48 -34 104 -34q67 0 107 23q29 18 61 63q74 -88 163 -88q52 0 97 25.5t71 70.5v71zM451 857h-115l-94 -132h74l76 78l74 -78h78zM562 715h-99l-71 74l-72 -74h-96
l108 152h124zM768 110q-28 -48 -75.5 -75t-102.5 -27q-91 0 -163 81q-31 -41 -57 -56q-37 -23 -111 -23q-60 0 -110 35q-57 39 -57 99v448h-66v91h332v-503q0 -8 29 -8q48 0 48 23v492h262v-519q32 5 71 36v-94zM777 225q-43 -36 -70 -44v515h-281v-501q0 -13 -39 -13
q-19 0 -19 -2v512h-352v-110h67v-438q0 -65 61 -108v1q53 -37 115 -37q73 0 116 26q24 12 52 49q74 -77 163 -77q57 0 107 29t80 81v117zM461 876h-134l-122 -170h119l68 70l67 -70h122z" />
    <glyph glyph-name="Udieresis" unicode="&#xdc;" horiz-adv-x="793" 
d="M758 183q-31 -25 -70 -25v518h-243v-481q0 -33 -58 -33q-38 0 -38 17v493h-314v-71h67v-457q0 -56 53 -91q48 -34 104 -34q67 0 107 23q29 18 61 63q74 -88 163 -88q52 0 97 25.5t71 70.5v70zM598 822h-164v-97h164v97zM355 822h-164v-99h164v99zM608 715h-183v117h183
v-117zM365 713h-184v119h184v-119zM768 110q-28 -48 -75.5 -75t-102.5 -27q-91 0 -163 81q-31 -41 -57 -56q-37 -23 -111 -23q-60 0 -110 35q-57 39 -57 99v447h-66v91h332v-503q0 -7 29 -7q48 0 48 23v490h262v-517q33 5 71 35v-93zM777 224q-40 -33 -70 -44v515h-281v-500
q0 -14 -39 -14q-19 0 -19 -2v512h-352v-110h67v-437q0 -65 61 -108v1q53 -37 115 -37q73 0 116 26q24 12 52 48q75 -76 163 -76q57 0 107 29t80 81v116zM374 841h-202v-137h202v137zM617 841h-202v-135h202v135z" />
    <glyph glyph-name="Yacute" unicode="&#xdd;" horiz-adv-x="723" 
d="M687 682h-245v-475q0 -18 -11.5 -30t-28.5 -12q-18 0 -30 12t-12 30v471h-326v-114h70v-419q0 -51 41 -98q51 -44 124 -44q59 0 106 29q52 33 67 88v-97q0 -19 -21 -46t-40 -27q-9 -9 -48 -9q-79 0 -140 21v-75q32 -18 74 -26.5t94 -8.5h61q66 0 110.5 5t70.5 16
q84 34 84 144v665zM421 862l-66 -134h70l120 134h-124zM566 872l-138 -153h-89l76 153h151zM697 17q0 -116 -90 -153q-51 -22 -185 -22h-61q-107 0 -178 40v94q72 -25 150 -25q36 0 44 9q19 0 36 23q19 23 19 40v50q-17 -27 -52 -50q-48 -30 -111 -30q-38 0 -71 12.5
t-63 37.5q-40 47 -40 102v410h-70v133h345v-481q0 -14 9 -23.5t23 -9.5q13 0 21.5 9.5t8.5 23.5v485h265v-675zM706 701h-283v-494q0 -10 -6 -16.5t-15 -6.5q-10 0 -16.5 6.5t-6.5 16.5v490h-364v-152h70v-400q0 -58 47 -111q57 -50 137 -50q66 0 116 31q20 13 38 31v-23
q0 -10 -17 -35q-16 -19 -33 -19q-7 -8 -40 -8q-76 0 -159 28v-112q79 -45 187 -45h61q133 0 189 24v-1q95 39 95 162v684zM409 881l-86 -172h110l154 172h-178z" />
    <glyph glyph-name="germandbls" unicode="&#xdf;" horiz-adv-x="597" 
d="M233 376v199l22 3q43 0 64.5 -30t21.5 -75q0 -43 -22 -70q-23 -29 -65 -29l-21 3v-1zM233 295q9 3 28 3q48 0 68.5 -24t21.5 -82q3 -105 -36 -105l-15 4l-45 -70q65 -28 97 -28q19 0 42 4q42 8 65 22q18 10 49 43q55 57 55 152q0 68 -35 114q-39 48 -105 48q62 60 62 121
q0 10 -3 24q-14 68 -79 120q-26 23 -62 40l-67 20q-8 7 -81 6q-59 -1 -106 -38q-52 -40 -52 -82v-694h198v402zM233 377v198v-198zM243 566v-181l12 -1q35 0 57 25q20 23 20 64q0 40 -19.5 67t-56.5 28zM261 288h-18v-270l53 83l21 -5q25 3 25 83v13q-1 54 -19.5 75
t-61.5 21zM352 -16q-36 0 -109 32v-133h-217v704q0 47 55 89q49 39 112 40h23q49 0 61 -6l-1 1l65 -19q20 -11 37 -21.5t31 -21.5q70 -57 82 -127q3 -12 3 -25q0 -58 -49 -113q56 -8 90 -51q37 -48 37 -119q0 -99 -57 -159q-36 -36 -51 -44q-25 -17 -68 -23q-13 -2 -24 -3
t-20 -1zM352 -26q22 0 45 4q22 4 39.5 9.5t32.5 15.5q9 6 22 17.5t30 28.5q61 63 61 165q0 78 -39 126v-1q-33 40 -80 52q40 50 40 106q0 8 -0.5 14.5t-1.5 12.5q-15 74 -86 132l1 -1q-27 24 -68 43l-69 21q-17 7 -63 7h-23q-66 -1 -117 -42q-59 -46 -59 -97v-713h235v128
q70 -28 100 -28zM261 279q38 0 54.5 -19.5t16.5 -67.5v-13q0 -72 -16 -73l-25 7l-39 -61v227h9zM258 559q32 -2 48 -25.5t16 -60.5q0 -39 -17 -57q-18 -22 -51 -22h3h-5v164z" />
    <glyph glyph-name="agrave" unicode="&#xe0;" horiz-adv-x="621" 
d="M587 165q-23 -17 -41 -15l-11 1v374h-222v-39q-51 57 -140 57q-46 0 -88 -22q-50 -27 -50 -70v-332q0 -55 49 -83q20 -10 44.5 -15t55.5 -5q22 0 39 3q57 13 86 60q33 -67 113 -67q45 0 94 26q44 24 71 63v64zM234 147v257q5 31 42 31q12 0 24.5 -6.5t12.5 -14.5v-259
q0 -33 -40 -33q-14 0 -26.5 8t-12.5 17zM272 716h-123l119 -131h69zM244 147q0 -6 9 -10.5t20 -4.5q31 0 31 23v259q0 5 -9 8t-19 3q-30 0 -32 -22v-256zM353 576h-89l-137 150h150zM597 98q-32 -44 -76 -69q-25 -14 -50 -20t-49 -6q-78 0 -114 58q-15 -20 -36 -32.5
t-47 -19.5q-8 -1 -18.5 -1.5t-22.5 -0.5q-32 0 -58 5t-46 16q-55 27 -55 91v332q0 49 56 78q21 12 44.5 17.5t47.5 5.5q79 0 131 -44v26h240v-375h5q14 0 48 25v-86zM606 202q-39 -29 -52 -33v375h-260v-16q-51 34 -121 34q-25 0 -49 -6.5t-47 -17.5q-30 -17 -45.5 -37.5
t-15.5 -49.5v-332q0 -68 59 -100q22 -11 49 -16.5t60 -5.5q25 0 42 3q53 12 81 45q39 -52 115 -52q49 0 103 28q48 28 81 74v107zM283 735h-177l153 -169h109zM253 147v255q2 14 23 14q6 0 12 -0.5t6 -1.5v-259q0 -14 -21 -14q-8 0 -14 2t-6 4z" />
    <glyph glyph-name="aacute" unicode="&#xe1;" horiz-adv-x="622" 
d="M587 165q-23 -17 -41 -15l-11 1v374h-222v-39q-51 57 -140 57q-46 0 -88 -22q-50 -27 -50 -70v-332q0 -55 49 -83q20 -10 44.5 -15t55.5 -5q22 0 39 3q57 13 86 60q33 -67 113 -67q45 0 94 26q44 24 71 63v64zM234 147v257q5 31 42 31q12 0 24.5 -6.5t12.5 -14.5v-259
q0 -33 -40 -33q-14 0 -26.5 8t-12.5 17zM317 718l-66 -132h69l119 132h-122zM244 147q0 -6 9 -10.5t20 -4.5q31 0 31 23v259q0 5 -9 8t-19 3q-31 0 -32 -22v-256zM461 728l-137 -151h-88l75 151h150zM597 98q-32 -44 -76 -69q-25 -14 -50 -20t-49 -6q-78 0 -114 58
q-15 -20 -36 -32.5t-47 -19.5q-8 -1 -18.5 -1.5t-22.5 -0.5q-32 0 -58 5t-46 16q-55 27 -55 91v332q0 49 56 79q21 11 44.5 16.5t47.5 5.5q79 0 131 -44v26h240v-375h5q14 0 48 25v-86zM606 202q-39 -29 -52 -33v375h-260v-16q-51 34 -121 34q-25 0 -49 -6.5t-47 -17.5
q-30 -17 -45.5 -37.5t-15.5 -49.5v-332q0 -68 59 -100q22 -11 49 -16.5t60 -5.5q25 0 42 3q53 12 81 45q39 -52 115 -52q49 0 103 28q48 28 81 74v107zM305 737l-85 -170h109l152 170h-176zM253 147v255q2 14 23 14q6 0 12 -0.5t6 -1.5v-259q0 -14 -21 -14q-8 0 -14 2t-6 4z
" />
    <glyph glyph-name="acircumflex" unicode="&#xe2;" horiz-adv-x="622" 
d="M587 165q-23 -17 -41 -15l-11 1v374h-222v-39q-51 57 -140 57q-46 0 -88 -22q-50 -27 -50 -70v-332q0 -55 49 -83q20 -10 44.5 -15t55.5 -5q22 0 39 3q57 13 86 60q33 -67 113 -67q45 0 94 26q44 24 71 63v64zM234 147v257q5 31 42 31q12 0 24.5 -6.5t12.5 -14.5v-259
q0 -33 -40 -33q-14 0 -26.5 8t-12.5 17zM372 718h-113l-93 -131h73l75 78l73 -78h77zM244 147q0 -6 9 -10.5t20 -4.5q31 0 31 23v259q0 5 -9 8t-19 3q-31 0 -32 -21v-257zM481 578h-98l-69 73l-71 -73h-95l106 150h123zM597 98q-32 -44 -76 -69q-25 -14 -50 -20t-49 -6
q-78 0 -114 58q-15 -20 -36 -32.5t-47 -19.5q-8 -1 -18.5 -1.5t-22.5 -0.5q-32 0 -58 5t-46 16q-55 27 -55 91v332q0 49 56 79q21 11 44.5 16.5t47.5 5.5q79 0 131 -44v26h240v-375h5q14 0 48 25v-86zM606 202q-39 -29 -52 -33v375h-260v-16q-51 34 -121 34q-25 0 -49 -6.5
t-47 -17.5q-30 -17 -45.5 -37.5t-15.5 -49.5v-332q0 -68 59 -100q22 -11 49 -16.5t60 -5.5q25 0 42 3q53 12 81 45q39 -52 115 -52q49 0 103 28q48 28 81 74v107zM381 737h-132l-120 -169h117l68 70l65 -70h121zM253 147v255q2 14 23 14q6 0 12 -0.5t6 -1.5v-259
q0 -14 -21 -14q-8 0 -14 2t-6 4z" />
    <glyph glyph-name="atilde" unicode="&#xe3;" horiz-adv-x="622" 
d="M587 165q-23 -17 -41 -15l-11 1v373h-222v-38q-51 56 -140 56q-48 0 -88 -21q-50 -27 -50 -71v-331q0 -55 49 -83q20 -10 44.5 -15t55.5 -5q22 0 39 3q57 13 86 60q33 -67 113 -67q45 0 94 26q44 24 71 63v64zM234 147v257q4 30 42 30q12 0 24.5 -6t12.5 -15v-258
q0 -33 -40 -33q-14 0 -26.5 8t-12.5 17zM430 708q-12 -38 -49 -38l-63 23q-33 12 -55 12q-24 0 -45 -8t-37.5 -22.5t-27 -34.5t-13.5 -44l56 -10l15 27q10 13 24 13q22 -3 69 -21q42 -15 76 -15q41 0 71 40q28 36 34 78h-55zM244 147q0 -6 9 -10.5t20 -4.5q31 0 31 23v258
q0 5 -9 8.5t-19 3.5q-30 0 -32 -22v-256zM496 718q-4 -29 -13.5 -52t-23.5 -42q-35 -44 -79 -44q-37 0 -79 16h1q-23 8 -39.5 13.5t-27.5 6.5q-10 0 -17 -9l1 1l-19 -32l-71 12q8 57 45.5 91.5t88.5 34.5q24 0 57 -12l61 -22q30 0 42 38h73zM597 98q-32 -44 -76 -69
q-25 -14 -50 -20t-49 -6q-78 0 -114 58q-15 -20 -36 -32.5t-47 -19.5q-8 -1 -18.5 -1.5t-22.5 -0.5q-32 0 -58 5t-46 16q-55 27 -55 91v331q0 26 14 45t42 34q43 23 92 23q80 0 131 -45v27h240v-375h5q14 0 48 25v-86zM606 202q-39 -29 -52 -33v374h-260v-16q-49 34 -121 34
q-50 0 -96 -23q-30 -17 -45.5 -38t-15.5 -50v-331q0 -68 59 -100q22 -11 49 -16.5t60 -5.5q25 0 42 3q53 12 81 45q39 -52 115 -52q49 0 103 28q48 28 81 74v107zM417 727q-12 -35 -32 -38l-61 22q-32 13 -61 13q-27 0 -51.5 -10.5t-44 -29.5t-32.5 -46t-17 -59l87 -14
l22 38l-1 -2q2 4 7 6q16 -3 65 -20q42 -16 82 -16q50 0 86 47q30 41 42 109h-91zM253 147v255q1 13 23 13q6 0 12 -0.5t6 -1.5v-258q0 -14 -21 -14q-8 0 -14 2t-6 4z" />
    <glyph glyph-name="adieresis" unicode="&#xe4;" horiz-adv-x="623" 
d="M588 165q-21 -17 -41 -15l-11 1v372h-222v-38q-50 56 -140 56q-48 0 -88 -21q-50 -27 -50 -70v-332q0 -54 49 -82q20 -10 44.5 -15t55.5 -5q22 0 39 3q56 12 86 60q33 -67 113 -67q45 0 94 26q44 24 71 62v65zM235 147v256q5 31 42 31q12 0 24.5 -6.5t12.5 -14.5v-259
q0 -32 -40 -32q-14 0 -26.5 7.5t-12.5 17.5zM511 683h-162v-96h162v96zM272 683h-162v-98h162v98zM245 147q0 -6 9 -10.5t20 -4.5q31 0 31 22v259q0 5 -9 8t-19 3q-31 0 -32 -21v-256zM521 577h-181v116h181v-116zM281 576h-181v117h181v-117zM598 97q-16 -21 -34.5 -38.5
t-41.5 -29.5q-25 -14 -50 -20t-49 -6q-78 0 -114 58q-15 -20 -36 -32.5t-47 -19.5q-8 -1 -18.5 -1.5t-22.5 -0.5q-65 0 -104 20q-55 29 -55 91v332q0 26 14 44.5t42 33.5q43 23 92 23q80 0 131 -45v27h240v-374h5q14 0 48 25v-87zM607 202q-20 -14 -32.5 -23t-19.5 -11v374
h-260v-16q-49 34 -121 34q-50 0 -96 -23q-61 -34 -61 -87v-332q0 -67 59 -99q22 -11 49 -16.5t60 -5.5q25 0 42 3q52 12 81 44q39 -51 115 -51q49 0 103 28q23 14 43.5 32t37.5 42v107zM290 702h-199v-136h199v136zM530 702h-199v-134h199v134zM254 147v254q2 14 23 14
q6 0 12 -0.5t6 -1.5v-259q0 -13 -21 -13q-8 0 -14 2t-6 4z" />
    <glyph glyph-name="aring" unicode="&#xe5;" horiz-adv-x="622" 
d="M320 756q-36 0 -60.5 -24.5t-24.5 -61.5q0 -38 24.5 -62.5t60.5 -24.5q37 0 61.5 24.5t24.5 62.5q0 37 -24.5 61.5t-61.5 24.5zM587 166q-22 -18 -41 -16l-11 1v375h-222v-39q-51 57 -140 57q-48 0 -88 -22q-50 -27 -50 -70v-333q0 -55 49 -83q20 -10 44.5 -15t55.5 -5
q22 0 39 3q56 13 86 60q33 -67 113 -67q45 0 94 26q44 24 71 63v65zM320 619q-22 0 -35.5 15.5t-13.5 35.5t14.5 35t34.5 15t35 -15t15 -35t-15 -35.5t-35 -15.5zM234 147v258q5 31 42 31q12 0 24.5 -6.5t12.5 -14.5v-260q0 -32 -40 -32q-14 0 -26.5 7.5t-12.5 16.5z
M320 629q17 0 29 12t12 29t-12 29t-29 12t-28.5 -12t-11.5 -29t11.5 -29t28.5 -12zM244 147q0 -5 9 -10t20 -5q31 0 31 23v260q0 5 -9 8t-19 3q-31 0 -32 -22v-257zM320 766q42 0 68.5 -27t26.5 -69t-26.5 -69t-68.5 -27q-41 0 -67.5 27t-26.5 69t26.5 69t67.5 27zM597 98
q-32 -44 -76 -69q-25 -14 -50 -20t-49 -6q-78 0 -114 58q-29 -39 -83 -51q-17 -3 -41 -3q-32 0 -58 5t-46 16q-55 29 -55 91v333q0 49 56 79q43 23 92 23q78 0 131 -45v27h240v-376h5q7 0 19 5.5t29 19.5v-87zM606 203q-20 -14 -32.5 -23t-19.5 -11v376h-260v-16
q-49 34 -121 34q-51 0 -96 -24q-61 -32 -61 -87v-333q0 -68 59 -100q22 -11 49 -16.5t60 -5.5q25 0 42 3q53 12 81 45q39 -52 115 -52q49 0 103 28q48 28 81 74v108zM320 775q-22 0 -41 -8t-33 -22t-22 -33.5t-8 -41.5q0 -23 8 -42t22 -33.5t33 -22.5t41 -8t41 8t33 22.5
t22 33.5t8 42q0 22 -8 41.5t-22 33.5t-33 22t-41 8zM253 147v256q2 14 23 14q6 0 12 -0.5t6 -1.5v-260q0 -13 -21 -13q-8 0 -14 1.5t-6 3.5zM320 638q-13 0 -22 10t-9 22q0 13 9.5 22t21.5 9t21.5 -9.5t9.5 -21.5t-9.5 -22t-21.5 -10z" />
    <glyph glyph-name="ae" unicode="&#xe6;" horiz-adv-x="798" 
d="M763 175q-128 -63 -165 -63q-32 0 -32 29l117 100q56 61 53 139l-1 23q-1 57 -66 98q-53 33 -121 33q-11 0 -32 -6l-48 -12h-150v-38q-56 56 -147 56q-66 0 -105 -36q-30 -30 -30 -55v-326q0 -32 27 -59q37 -39 118 -39q47 0 76.5 12.5t58.5 45.5q75 -67 181 -67
q69 0 142 26q74 27 124 74v65zM574 261v167l11 13q6 6 14 6q60 0 60 -68q0 -41 -22 -76q-26 -42 -63 -42zM238 145v253q0 25 50 25q30 0 30 -16v-255q0 -33 -37 -33q-6 0 -13 1t-14 5q-16 8 -16 20zM583 425v-154q26 5 46 37q10 17 15.5 35t5.5 36q0 59 -51 59q-4 0 -7 -4z
M248 145q0 -8 16 -14q4 -3 17 -3q28 0 28 24v255q0 7 -21 7q-40 0 -40 -16v-253zM772 106q-27 -24 -59.5 -44t-70.5 -34t-74 -20.5t-71 -6.5q-106 0 -180 62q-29 -31 -59 -42.5t-77 -11.5q-85 0 -125 42q-30 33 -30 66v326q0 29 34 61q42 39 111 39q83 0 138 -44v27h156
l48 12q23 5 35 5q35 0 66 -8.5t60 -25.5q34 -22 52 -48.5t19 -57.5l1 -23v-8q0 -78 -60 -142l-110 -94q3 -15 22 -15q32 0 174 70v-85zM782 206q-152 -75 -184 -75q-7 0 -11 3l109 94q59 65 59 144v8l-1 24q-3 65 -75 113q-29 17 -61 26.5t-70 9.5q-13 0 -37 -7l-44 -11
h-168v-17q-26 17 -58 26t-70 9q-73 0 -118 -42q-36 -36 -36 -68v-326q0 -39 32 -72q45 -45 132 -45q46 0 77 11t59 39q74 -58 180 -58q37 0 74 6.5t75 20.5t72.5 35t63.5 48v104zM257 145v253q0 6 31 6q10 0 11 2v-254q0 -15 -18 -15q-11 0 -18 4q-6 3 -6 4zM599 428
q41 0 41 -49q0 -37 -19 -66q-12 -21 -28 -29v137z" />
    <glyph glyph-name="ccedilla" unicode="&#xe7;" horiz-adv-x="373" 
d="M340 174q-20 -15 -36 -25q-22 -10 -39 -10q-13 0 -31 8v277q12 6 30 6q14 0 29 -6v85q-29 17 -58 26.5t-59 9.5q-56 0 -95 -30q-47 -35 -47 -66v-341q0 -49 41 -75q36 -24 82 -24l-23 -51l22 2q16 1 23.5 -3.5t7.5 -17.5q-1 -22 -43 -22q-11 0 -18.5 1.5t-15.5 3.5
l-32 10q-13 -11 -10 -25q34 -11 58 -13l46 -3q25 -1 50 12q29 14 29 39q0 21 -20 32q-18 10 -39 9l-11 -1l21 31q86 17 138 80v81zM349 88q-29 -34 -63.5 -54.5t-78.5 -28.5l-8 -13q11 0 19.5 -2t16.5 -7q25 -14 25 -41q0 -31 -35 -48q-24 -12 -48 -12h-6l-46 3
q-11 1 -27 4.5t-39 11.5q0 2 -0.5 5.5t-0.5 5.5q0 17 17 31l38 -12q15 -5 31 -5q31 0 34 13q0 12 -18 12h-4l-36 -3l23 53q-40 3 -72 25v-1q-46 28 -46 83v341q0 35 51 74q41 31 100 31q63 0 125 -40v-105q-13 7 -22 9.5t-15 2.5q-13 0 -21 -4v-265q9 -4 22 -4q16 0 36 10
h-1q17 10 49 35v-105zM358 211q-44 -33 -63 -45h2q-18 -8 -32 -8q-9 0 -13 1v251q4 1 12 1q5 0 15.5 -3.5t30.5 -13.5v125q-73 44 -134 44q-65 0 -105 -33q-55 -41 -55 -81v-341q0 -59 50 -91h-1q30 -19 65 -25l-24 -50l-33 11q-11 -11 -17.5 -20.5t-6.5 -20.5q0 -2 0.5 -9
t0.5 -9q53 -18 75 -19l46 -3h6q14 0 26.5 3.5t26.5 10.5q39 21 39 56q0 32 -30 49h1q-5 2 -8.5 4t-7.5 4q79 20 134 87v125zM157 -59h3q9 0 9 -2q-2 -1 -8 -2t-17 -1q-14 0 -24 3z" />
    <glyph glyph-name="egrave" unicode="&#xe8;" horiz-adv-x="455" 
d="M421 178l-53 -30q-57 -33 -94 -33q-16 0 -35 7l-3 21l3 22q63 32 106 89q45 61 45 132q0 79 -58 121q-49 34 -130 34q-50 0 -106 -40q-62 -44 -62 -91v-304q0 -50 54 -77q43 -19 96 -19q63 0 126.5 27.5t110.5 74.5v66zM239 266v170q12 20 32 20q51 0 51 -67
q0 -37 -19 -77q-25 -46 -64 -46zM195 719h-120l116 -131h68zM271 446q-16 0 -23 -12v-159q29 6 46 42q9 18 14 35.5t5 36.5q0 57 -42 57zM274 579h-87l-133 150h146zM431 108q-50 -49 -116.5 -78t-130.5 -29q-55 0 -100 20q-59 30 -59 85v304q0 51 66 99q29 20 57 31t54 11
q83 0 135 -37q62 -43 62 -128q0 -73 -47 -137q-20 -28 -46.5 -50.5t-58.5 -39.5l-2 -16l2 -14q13 -5 27 -5q17 0 39 8.5t51 24.5l67 38v-87zM440 212l-81 -47q-52 -31 -85 -31q-10 0 -19 3l-1 6l1 9q64 35 104 91q50 67 50 143q0 91 -67 137q-53 37 -140 37q-56 0 -116 -44
q-70 -49 -70 -106v-304q0 -62 64 -94q23 -10 48.5 -15.5t55.5 -5.5q33 0 67.5 8t67.5 23t64 35.5t57 46.5v108zM206 738h-173l150 -168h106zM271 437q32 0 32 -48q0 -37 -17 -68v1q-7 -12 -14 -20.5t-15 -12.5v140q6 8 14 8z" />
    <glyph glyph-name="eacute" unicode="&#xe9;" horiz-adv-x="455" 
d="M421 178l-53 -30q-57 -33 -94 -33q-16 0 -35 7l-3 21l3 22q63 32 106 89q45 61 45 132q0 79 -58 121q-51 34 -130 34q-50 0 -106 -40q-62 -44 -62 -91v-304q0 -50 54 -77q43 -19 96 -19q63 0 126.5 27.5t110.5 74.5v66zM239 266v170q12 19 32 19q51 0 51 -66
q0 -20 -5 -39t-14 -38q-25 -46 -64 -46zM207 715l-64 -131h67l116 131h-119zM271 446q-16 0 -23 -12v-159q29 6 46 42q9 18 14 35.5t5 36.5q0 57 -42 57zM347 725l-133 -151h-86l73 151h146zM431 108q-50 -49 -116.5 -78t-130.5 -29q-55 0 -100 20q-59 30 -59 85v304
q0 51 66 99q59 41 111 41q84 0 135 -36q62 -43 62 -128q0 -73 -47 -137q-42 -57 -105 -91l-2 -15l2 -14q13 -5 27 -5q17 0 39 8.5t51 24.5l67 38v-87zM440 212l-81 -47q-52 -31 -85 -31q-10 0 -19 3l-1 6l1 9q64 35 104 91q50 67 50 143q0 91 -67 137q-53 37 -140 37
q-56 0 -116 -44q-70 -49 -70 -106v-304q0 -62 64 -94q23 -10 48.5 -15.5t55.5 -5.5q33 0 67.5 8t67.5 23t64 35.5t57 46.5v108zM196 734l-83 -169h106l148 169h-171zM271 437q32 0 32 -48q0 -37 -17 -68v1q-15 -26 -29 -34v141q6 8 14 8z" />
    <glyph glyph-name="ecircumflex" unicode="&#xea;" horiz-adv-x="456" 
d="M421 178l-53 -30q-57 -33 -94 -33q-16 0 -35 7l-3 21l3 22q63 32 106 89q45 61 45 132q0 79 -58 121q-49 34 -130 34q-50 0 -106 -40q-62 -44 -62 -91v-304q0 -50 54 -77q43 -19 96 -19q63 0 126.5 27.5t110.5 74.5v66zM239 266v170q12 20 32 20q51 0 51 -67
q0 -37 -19 -77q-25 -46 -64 -46zM266 718h-111l-90 -131h71l73 78l72 -78h75zM271 446q-16 0 -23 -12v-159q29 6 46 42q9 18 14 35.5t5 36.5q0 57 -42 57zM373 578h-96l-68 73l-69 -73h-92l103 150h120zM431 108q-50 -49 -116.5 -78t-130.5 -29q-55 0 -100 20q-59 30 -59 85
v304q0 51 66 99q59 41 111 41q84 0 135 -36q62 -43 62 -128q0 -73 -47 -137q-20 -28 -46.5 -50.5t-58.5 -39.5l-2 -16l2 -14q13 -5 27 -5q17 0 39 8.5t51 24.5l67 38v-87zM440 212l-81 -47q-52 -31 -85 -31q-10 0 -19 3l-1 6l1 9q64 35 104 91q50 67 50 143q0 91 -67 137
q-53 37 -140 37q-56 0 -116 -44q-70 -49 -70 -106v-304q0 -62 64 -94q23 -10 48.5 -15.5t55.5 -5.5q33 0 67.5 8t67.5 23t64 35.5t57 46.5v108zM275 737h-129l-117 -168h115l65 69l64 -69h118zM271 437q32 0 32 -48q0 -37 -17 -68v1q-7 -12 -14 -20.5t-15 -12.5v140
q6 8 14 8z" />
    <glyph glyph-name="edieresis" unicode="&#xeb;" horiz-adv-x="470" 
d="M423 178l-53 -30q-57 -33 -94 -33q-19 0 -36 7l-3 21l3 22q32 16 59 38.5t47 50.5q23 30 34.5 63t11.5 68q0 80 -58 120q-50 35 -130 35q-49 0 -107 -40q-62 -45 -62 -91v-303q0 -50 54 -77q44 -19 96 -19q31 0 63.5 7t63.5 20.5t59.5 32.5t51.5 42v66zM240 265v169
q11 20 32 20q52 0 52 -66q0 -39 -20 -77q-24 -46 -64 -46zM435 682h-158v-97h158v97zM201 682h-159v-99h159v99zM272 445q-14 0 -23 -12v-158q27 4 47 41q18 36 18 72q0 57 -42 57zM445 576h-177v115h177v-115zM210 574h-177v117h177v-117zM433 108q-25 -24 -55 -44t-62 -34
t-65.5 -21.5t-65.5 -7.5q-55 0 -100 20q-59 30 -59 85v303q0 51 66 98q58 42 112 42q82 0 135 -36q62 -43 62 -128q0 -72 -47 -137q-21 -28 -47 -50.5t-59 -39.5l-1 -15l1 -14q15 -5 28 -5q32 0 90 32l67 38v-86zM442 211l-81 -46q-55 -32 -85 -32q-10 0 -19 3l-1 7l1 8
q64 35 104 91q50 67 50 143q0 89 -67 137q-54 36 -140 36q-56 0 -117 -43q-70 -49 -70 -106v-303q0 -62 64 -94q23 -10 49 -15.5t55 -5.5q33 0 67.5 8t68 23t64.5 35.5t57 46.5v107zM219 700h-195v-136h195v136zM454 700h-195v-134h195v134zM272 435q33 0 33 -47
q0 -37 -17 -68v1q-7 -12 -14 -20.5t-15 -12.5v140q2 4 6 5.5t7 1.5z" />
    <glyph glyph-name="igrave" unicode="&#xec;" horiz-adv-x="352" 
d="M319 190l-28 -22q-14 -8 -28 -11v368h-207v-443q0 -28 43 -46q37 -17 64 -17q56 0 103 25q53 30 53 75v71zM172 721h-116l112 -131h65zM248 581h-83l-129 150h141zM328 119q0 -50 -58 -84q-47 -26 -107 -26q-30 0 -68 19q-48 21 -48 54v452h224v-364q10 4 14 6l43 32v-89
zM337 227l-55 -43l-2 -1l3 2q-1 -1 -2 -1l-1 -1v361h-241v-462q0 -42 53 -64v1q43 -19 71 -19q61 0 111 27q63 35 63 92v108zM182 740h-166l144 -169h103z" />
    <glyph glyph-name="iacute" unicode="&#xed;" horiz-adv-x="330" 
d="M296 190l-28 -22q-14 -8 -28 -11v367h-207v-442q0 -28 43 -46q37 -17 64 -17q59 0 103 25q53 30 53 75v71zM143 712l-62 -132h65l112 132h-115zM278 722l-128 -151h-83l70 151h141zM305 119q0 -50 -58 -84q-47 -26 -107 -26q-29 0 -68 18q-48 22 -48 55v452h224v-364
q10 4 14 5l43 33v-89zM314 227l-55 -43l-2 -1l3 2q-1 -1 -2 -1l-1 -1v360h-241v-461q0 -42 53 -64v1q43 -19 71 -19q61 0 111 27q63 35 63 92v108zM132 731l-80 -170h102l144 170h-166z" />
    <glyph glyph-name="icircumflex" unicode="&#xee;" horiz-adv-x="374" 
d="M328 190l-29 -22q-7 -4 -13.5 -6.5t-14.5 -3.5v367h-208v-443q0 -28 43 -46q39 -17 65 -17q56 0 103 25q54 30 54 75v71zM235 724h-96l-88 -131h62l75 82l72 -82h63zM341 584h-84l-69 77l-71 -77h-83l100 150h105zM336 119q0 -51 -58 -84q-47 -26 -107 -26q-31 0 -69 19
q-47 21 -47 54v452h225v-364q4 2 7.5 3t8.5 3h-2l42 32v-89zM345 227l-55 -43l-1 -1l2 2l-2 -2v361h-243v-462q0 -42 53 -64v1q43 -19 72 -19q63 0 111 27q63 34 63 92v108zM243 743h-113l-114 -169h104l68 73l65 -73h105z" />
    <glyph glyph-name="idieresis" unicode="&#xef;" horiz-adv-x="459" 
d="M394 189l-29 -22q-7 -3 -14 -5.5t-15 -4.5v366h-214v-442q0 -27 43 -45q40 -17 67 -17q61 0 107 25q55 28 55 74v71zM424 683h-158v-96h158v96zM190 683h-156v-98h156v98zM433 577h-176v116h176v-116zM199 575h-174v118h174v-118zM403 118q0 -50 -60 -83
q-49 -26 -111 -26q-31 0 -70 18q-50 23 -50 54v452h233v-364q4 2 8 3.5t8 3.5l-2 -1l44 32v-89zM412 226l-56 -42l-2 -1l3 1q-2 0 -3 -1v359h-251v-461q0 -40 55 -63v1q44 -19 74 -19q65 0 115 26q65 36 65 92v108zM208 702h-192v-136h192v136zM443 702h-195v-134h195v134z
" />
    <glyph glyph-name="eth" unicode="&#xf0;" horiz-adv-x="467" 
d="M432 535q0 33 -31 67q-28 31 -76 54l47 54l-77 67l-85 -102q-65 0 -150 -33v-96l26 7l28 3l-12 -16l77 -66l30 37v-66q-30 19 -73 19q-38 0 -66 -14q-36 -20 -36 -55v-286q0 -53 73 -83q56 -22 116 -22q209 0 209 119v412zM116 119v250q0 17 42 17q51 0 51 -27v-250
q0 -13 -28 -13q-20 0 -44 7q-21 10 -21 16zM185 467l15 -6v24zM125 119q0 -1 16 -7h-1q25 -6 41 -6q19 0 19 3v250q0 17 -42 17q-33 0 -33 -7v-250zM441 123q0 -129 -218 -129q-59 0 -120 23q-78 31 -78 92v286q0 42 41 63q28 16 70 16q16 0 31 -3l-78 68l3 4h-5h1l-37 -9
v114q46 18 83.5 26.5t69.5 9.5l89 106l92 -79l-45 -52q20 -11 37 -23.5t31 -26.5q33 -39 33 -74v-412zM451 535q0 40 -37 81q-12 13 -27 24.5t-33 20.5l43 51l-104 91l-92 -109q-65 -3 -159 -38v-134l40 11l57 -50h-3q-41 0 -75 -16q-45 -24 -45 -72v-286q0 -68 85 -101
q29 -12 59.5 -17.5t62.5 -5.5q228 0 228 138v412zM158 367q32 0 32 -8v-250q0 6 -9 6q-17 0 -39 6h2q-8 3 -9 -1v248q1 -1 23 -1z" />
    <glyph glyph-name="ntilde" unicode="&#xf1;" horiz-adv-x="627" 
d="M592 182q-27 -26 -60 -46v320q0 31 -58 56q-48 21 -85 21q-83 0 -135 -60v55h-218v-509h218v375q0 13 16 21q12 9 27 9q21 0 21 -16v-315q0 -40 36 -62q31 -18 72 -18q40 0 100 29q66 33 66 70v70zM392 710q-14 -38 -49 -38l-64 23q-32 12 -54 12q-48 0 -82.5 -30.5
t-41.5 -79.5l56 -9l15 27q11 13 25 13q19 -3 69 -21q40 -15 76 -15q41 0 71 40q26 34 34 78h-55zM458 720q-4 -29 -13.5 -52t-23.5 -42q-35 -44 -79 -44q-38 0 -80 16h1q-23 9 -39.5 13.5t-27.5 6.5q-10 -1 -16 -9l1 1l-19 -32l-71 12q4 28 15.5 51.5t29.5 40t40.5 25.5
t48.5 9q24 0 57 -12l61 -22q30 0 42 38h73zM602 112q0 -41 -73 -79q-57 -29 -103 -29q-22 0 -41 4t-35 15q-42 26 -42 70v315q0 6 -11 6q-12 0 -25 -9q-9 -5 -9 -11v-385h-237v529h237v-41q51 45 126 45q20 0 42 -5t47 -16q64 -29 64 -65v-303q12 9 27 21t33 29v-91z
M611 225q-17 -17 -32.5 -29.5t-27.5 -22.5v283q0 43 -69 73q-26 11 -49 17t-44 6q-67 0 -116 -36v31h-256v-547h256v394l3 2q12 9 21 9v0q1 0 2 1v-313q0 -50 46 -78q34 -21 81 -21q44 0 108 31q77 39 77 87v113zM379 729q-12 -35 -32 -38l-61 22q-33 13 -61 13
q-27 0 -51.5 -10.5t-44 -29.5t-32.5 -46t-17 -59l87 -14l21 38l-1 -2q2 2 4 3.5t4 2.5q16 -3 65 -20q42 -16 82 -16q50 0 86 47q15 20 25.5 47t15.5 62h-90z" />
    <glyph glyph-name="ograve" unicode="&#xf2;" horiz-adv-x="519" 
d="M485 425q-26 -21 -57 -21v121h-130v-16l-60 23q-30 12 -61 12q-22 0 -44 -8t-46 -23q-53 -33 -53 -74v-320q0 -60 73 -87q27 -9 57 -14t64 -5q54 0 110 21q72 28 72 74v206q46 0 75 44v67zM233 116v294q0 9 12.5 20t21.5 11q8 -1 13 -4t10 -8q-6 -17 -6 -38q0 -72 45 -72
l14 2v-156q0 -71 -71 -71q-39 0 -39 22zM223 716h-121l117 -131h69zM303 576h-87l-135 150h147zM242 116q0 -13 30 -13q62 0 62 62v144h-4q-55 0 -55 82q0 9 1 18t3 17q-5 4 -12 6q-6 0 -15.5 -8t-9.5 -14v-294zM495 355q-35 -47 -76 -50v-197q0 -52 -78 -82
q-29 -12 -57 -17t-56 -5q-34 0 -64 4.5t-59 15.5q-80 30 -80 95v320q0 46 57 83q49 31 95 31q34 0 64 -12l48 -19v12h148v-120q24 5 58 31v-90zM504 464q-35 -27 -57 -37v117h-168v-8l-35 14q-29 13 -67 13q-47 0 -100 -34h1q-62 -37 -62 -90v-320q0 -74 85 -105
q29 -10 60 -15t67 -5q60 0 116 22q84 33 84 92v189q42 7 76 55v112zM234 735h-175l152 -169h107zM252 116v294q0 3 4.5 6.5t8.5 5.5q1 0 1.5 -0.5t1.5 -0.5q-3 -15 -3 -30q0 -87 60 -91v-135q0 -52 -53 -52q-20 0 -20 3z" />
    <glyph glyph-name="oacute" unicode="&#xf3;" horiz-adv-x="519" 
d="M485 425q-26 -21 -57 -21v121h-130v-16l-60 23q-30 12 -61 12q-22 0 -44 -8t-46 -23q-53 -33 -53 -74v-320q0 -60 73 -87q27 -9 57 -14t64 -5q54 0 110 21q72 28 72 74v206q46 0 75 44v67zM233 116v294q0 9 12.5 20t21.5 11q8 -1 13 -4t10 -8q-6 -17 -6 -38q0 -72 45 -72
l14 2v-156q0 -71 -71 -71q-39 0 -39 22zM239 715l-65 -132h68l118 132h-121zM381 725l-135 -151h-87l74 151h148zM242 116q0 -13 30 -13q62 0 62 62v144h-4q-55 0 -55 82q0 9 1 18t3 17q-5 4 -12 6q-6 0 -15.5 -8t-9.5 -14v-294zM495 355q-35 -47 -76 -50v-197
q0 -52 -78 -82q-29 -12 -57 -17t-56 -5q-34 0 -64 4.5t-59 15.5q-80 30 -80 95v320q0 46 57 83q49 31 95 31q34 0 64 -12l48 -19v12h148v-120q22 3 58 31v-90zM504 464q-35 -27 -57 -37v117h-168v-8l-35 14q-29 13 -67 13q-47 0 -100 -34h1q-62 -37 -62 -90v-320
q0 -74 85 -105q29 -10 60 -15t67 -5q60 0 116 22q84 33 84 92v189q42 7 76 55v112zM228 734l-85 -170h108l150 170h-173zM252 116v294q0 3 4.5 6.5t8.5 5.5q1 0 1.5 -0.5t1.5 -0.5q-3 -15 -3 -30q0 -87 60 -91v-135q0 -52 -53 -52q-20 0 -20 3z" />
    <glyph glyph-name="ocircumflex" unicode="&#xf4;" horiz-adv-x="519" 
d="M485 425q-26 -21 -57 -21v121h-130v-17l-60 24q-30 12 -61 12q-22 0 -44 -8t-46 -23q-53 -33 -53 -74v-320q0 -60 73 -87q27 -9 57 -14t64 -5q54 0 110 21q72 28 72 74v206q46 0 75 44v67zM233 116v294q0 9 12.5 20t21.5 11q8 -1 13 -4t10 -8q-6 -17 -6 -38q0 -72 45 -72
l14 2v-156q0 -71 -71 -71q-39 0 -39 22zM297 712h-112l-91 -131h72l74 78l72 -78h75zM242 116q0 -13 30 -13q62 0 62 62v144h-4q-55 0 -55 82q0 20 4 35q-4 4 -13 6q-7 -1 -15.5 -9t-8.5 -13v-294zM405 572h-97l-68 73l-71 -73h-93l104 150h122zM495 355q-33 -47 -76 -51
v-196q0 -52 -78 -82q-29 -12 -57 -17t-56 -5q-34 0 -64 4.5t-59 15.5q-80 30 -80 95v320q0 46 57 83q49 31 95 31q34 0 64 -12l48 -19v12h148v-120q22 3 58 31v-90zM306 731h-130l-118 -169h111q-23 -1 -46 -9.5t-46 -23.5h1q-62 -37 -62 -90v-320q0 -74 85 -105
q29 -10 60 -15t67 -5q60 0 116 22q84 33 84 92v189q42 7 76 55v112q-35 -27 -57 -37v117h-168v-8l-35 14q-15 7 -32 9.5t-35 2.5h-4l67 70l64 -70h120zM252 116v294q0 3 4.5 6.5t8.5 5.5q1 0 1.5 -0.5t1.5 -0.5q-3 -15 -3 -30q0 -87 60 -91v-135q0 -52 -53 -52q-20 0 -20 3z
" />
    <glyph glyph-name="otilde" unicode="&#xf5;" horiz-adv-x="521" 
d="M486 425q-26 -21 -57 -21v120h-130v-16l-60 24q-28 11 -61 11q-42 0 -90 -30q-53 -33 -53 -74v-320q0 -60 73 -87q27 -9 57 -14t64 -5q54 0 110 21q72 28 72 74v206q45 0 75 43v68zM234 116v294q0 9 12.5 20t21.5 11q8 -1 13 -4t10 -8q-6 -17 -6 -38q0 -72 45 -72l14 2
v-156q0 -71 -71 -71q-39 0 -39 22zM351 708q-12 -38 -48 -38l-62 23q-33 12 -54 12q-48 0 -82 -30.5t-40 -78.5l55 -10l15 27q11 13 24 13q19 -3 69 -21q39 -15 75 -15q39 0 70 40q25 34 33 78h-55zM243 116q0 -13 30 -13q62 0 62 62v144h-4q-55 0 -55 82q0 20 4 35
q-5 5 -12 5q-6 0 -15.5 -7.5t-9.5 -13.5v-294zM417 718q-4 -29 -13.5 -52t-23.5 -42q-33 -44 -77 -44q-37 0 -79 16h1q-23 9 -39.5 13.5t-27.5 6.5q-11 -2 -15 -9l1 1l-19 -32l-70 12q8 57 44.5 91.5t87.5 34.5q23 0 56 -12l60 -22q30 0 42 38h72zM496 355q-33 -47 -76 -51
v-196q0 -52 -78 -82q-29 -12 -57 -17t-56 -5q-34 0 -64 4.5t-59 15.5q-80 30 -80 95v320q0 46 57 83q25 15 48 23t47 8q34 0 64 -12l48 -19v12h148v-121q23 4 58 32v-90zM505 464q-38 -30 -57 -37v116h-168v-7l-35 14q-15 7 -32 9.5t-35 2.5q-49 0 -100 -33h1
q-62 -37 -62 -90v-320q0 -74 85 -105q29 -10 60 -15t67 -5q60 0 116 22q84 33 84 92v189q42 7 76 55v112zM339 727q-12 -35 -32 -38l-60 22q-32 13 -60 13q-27 0 -51 -10.5t-43 -29.5t-32 -46t-17 -59l86 -14l21 38l-1 -2q2 2 4 3.5t3 2.5q17 -3 64 -20q42 -16 82 -16
q49 0 85 47q14 20 24.5 47t15.5 62h-89zM253 116v294q0 2 4.5 6t8.5 6q1 0 1.5 -0.5t1.5 -0.5q-3 -15 -3 -30q0 -88 60 -91v-135q0 -52 -53 -52q-20 0 -20 3z" />
    <glyph glyph-name="odieresis" unicode="&#xf6;" horiz-adv-x="521" 
d="M486 424q-26 -21 -57 -21v120h-130v-16l-60 24q-28 11 -61 11q-42 0 -90 -30q-53 -33 -53 -74v-320q0 -59 73 -86q27 -9 57 -14t64 -5q54 0 110 21q72 28 72 74v205q45 0 75 44v67zM234 115v294q0 9 12.5 20t21.5 11q8 -1 13 -4t10 -8q-6 -17 -6 -38q0 -72 45 -72l14 2
v-155q0 -71 -71 -71q-39 0 -39 21zM439 684h-160v-96h160v96zM203 684h-160v-98h160v98zM449 578h-179v116h179v-116zM212 576h-178v118h178v-118zM243 115q0 -12 30 -12q62 0 62 62v144h-4q-55 0 -55 81q0 9 1 18t3 17q-4 4 -13 6q-7 -1 -15.5 -8.5t-8.5 -13.5v-294z
M496 354q-34 -46 -76 -50v-196q0 -54 -78 -82q-29 -12 -57 -17t-56 -5q-34 0 -64 4.5t-59 15.5q-80 30 -80 94v320q0 46 57 83q25 15 48 23t47 8q34 0 64 -12l48 -19v12h148v-120q24 5 58 31v-90zM505 463q-35 -27 -57 -37v116h-168v-7l-35 14q-15 7 -32 9.5t-35 2.5
q-49 0 -100 -33h1q-62 -37 -62 -90v-320q0 -73 85 -104q29 -10 60 -15t67 -5q60 0 116 22q84 33 84 92v188q42 7 76 55v112zM221 703h-197v-136h197v136zM458 703h-197v-134h197v134zM253 115v294q0 3 4.5 6.5t8.5 5.5q1 0 1.5 -0.5t1.5 -0.5q-3 -15 -3 -30q0 -87 60 -91
v-134q0 -52 -53 -52q-20 0 -20 2z" />
    <glyph glyph-name="divide" unicode="&#xf7;" horiz-adv-x="424" 
d="M274 482h-113v-89h113v89zM391 343h-358v-100h358v100zM274 177h-113v-82h113v82zM283 86h-131v100h131v-100zM283 384h-131v108h131v-108zM400 234h-376v118h376v-118zM409 361h-394v-136h394v136zM292 501h-150v-126h150v126zM292 196h-150v-119h150v119z" />
    <glyph glyph-name="oslash" unicode="&#xf8;" horiz-adv-x="519" 
d="M485 425q-29 -21 -60 -21v121h-16l44 104h-85l-45 -104h-25v-18q-61 35 -125 35q-45 0 -89 -28q-50 -33 -50 -74v-321q0 -44 45 -72q7 -4 18 -9t25 -10l-46 -111h77l43 102q10 -2 25 -3l30 -1q40 -1 95 23q62 30 62 70v206q42 0 77 44v67zM230 297v113q0 11 12 22t23 11
q8 -1 13 -2t10 -5zM287 100q-16 0 -26 14.5t-10 32.5l77 185l15 -11v-156q0 -28 -15.5 -46.5t-40.5 -18.5zM239 343l37 88q-2 2 -5 2t-6 1q-8 0 -17 -8t-9 -16v-67zM287 109q20 0 33.5 16.5t13.5 39.5v151l-2 1l-72 -172q0 -14 8 -25t19 -11zM495 354q-37 -44 -78 -49v-197
q0 -46 -68 -79q-50 -23 -94 -23h-4l-31 1q-5 1 -10 1t-8 1l-44 -101h-96l48 115q-28 9 -36 16q-49 32 -49 80v321q0 45 55 81q48 31 93 31q59 0 115 -29v11h28l46 105h105l-44 -105h11v-120q26 4 61 29v-89zM504 462q-19 -14 -34 -22.5t-26 -13.5v118h-7l44 104h-125
l-45 -104h-32v-7q-54 24 -106 24t-99 -31q-58 -39 -58 -90v-321q0 -54 52 -88q5 -2 12.5 -5.5t16.5 -7.5l-49 -120h117l42 100q7 0 12 -1l31 -1h5q23 0 46.5 6.5t51.5 18.5q73 36 73 87v189q40 7 78 54v111zM287 119q-8 0 -12.5 7.5t-5.5 16.5l55 133v-111q0 -20 -10 -33
t-27 -13zM249 410q0 5 4.5 9t9.5 5l-14 -36v22z" />
    <glyph glyph-name="ugrave" unicode="&#xf9;" horiz-adv-x="628" 
d="M594 186q-27 -26 -58 -29v371h-216v-342q0 -30 -37 -30q-25 0 -25 17v355h-223v-377q0 -134 107 -134q85 0 165 95q18 -25 31.5 -41.5t22.5 -24.5q33 -27 79 -27q61 0 112 44q42 34 42 53v70zM279 716h-122l119 -131h69zM361 576h-89l-137 150h150zM604 116
q0 -21 -46 -61q-55 -46 -118 -46q-47 0 -85 29q-19 16 -48 58q-81 -88 -165 -88q-117 0 -117 143v387h242v-365q0 -8 16 -8q27 0 27 21v352h236v-369q11 4 26 13t32 25v-91zM613 229q-35 -32 -58 -46v364h-254v-361q0 -11 -18 -11q-6 0 -6 -2v374h-261v-396q0 -153 126 -153
q83 0 164 84q27 -39 43 -52q36 -30 91 -30q67 0 124 48q49 43 49 68v113zM291 735h-178l154 -169h109z" />
    <glyph glyph-name="uacute" unicode="&#xfa;" horiz-adv-x="629" 
d="M594 186q-27 -26 -58 -29v371h-216v-342q0 -30 -37 -30q-25 0 -25 17v355h-223v-377q0 -134 107 -134q85 0 165 95q18 -25 31.5 -41.5t22.5 -24.5q33 -27 79 -27q61 0 112 44q42 34 42 53v70zM337 719l-66 -132h69l119 132h-122zM481 729l-137 -151h-88l75 151h150z
M604 116q0 -21 -46 -61q-55 -46 -118 -46q-47 0 -85 29q-19 16 -48 58q-81 -88 -165 -88q-117 0 -117 143v387h242v-365q0 -8 16 -8q27 0 27 21v352h236v-369q11 4 26 13t32 25v-91zM613 229q-35 -32 -58 -46v364h-254v-361q0 -11 -18 -11q-6 0 -6 -2v374h-261v-396
q0 -153 126 -153q83 0 164 84q27 -39 43 -52q36 -30 91 -30q67 0 124 48q49 43 49 68v113zM325 738l-85 -170h109l152 170h-176z" />
    <glyph glyph-name="ucircumflex" unicode="&#xfb;" horiz-adv-x="629" 
d="M594 186q-27 -26 -58 -29v371h-216v-342q0 -30 -37 -30q-25 0 -25 17v355h-223v-377q0 -134 107 -134q85 0 165 95q18 -25 31.5 -41.5t22.5 -24.5q33 -27 79 -27q61 0 112 44q42 34 42 53v70zM358 718h-113l-93 -131h73l75 78l73 -78h77zM468 578h-99l-69 73l-71 -73h-95
l106 150h123zM604 116q0 -21 -46 -61q-55 -46 -118 -46q-47 0 -85 29q-19 16 -48 58q-81 -88 -165 -88q-117 0 -117 143v387h242v-365q0 -8 16 -8q27 0 27 21v352h236v-369q11 4 26 13t32 25v-91zM613 229q-35 -32 -58 -46v364h-254v-361q0 -11 -18 -11q-6 0 -6 -2v374h-261
v-396q0 -153 126 -153q83 0 164 84q27 -39 43 -52q36 -30 91 -30q67 0 124 48q49 43 49 68v113zM367 737h-132l-120 -169h117l68 69l66 -69h120z" />
    <glyph glyph-name="udieresis" unicode="&#xfc;" horiz-adv-x="630" 
d="M595 185q-26 -25 -58 -28v370h-216v-342q0 -30 -37 -30q-25 0 -25 17v355h-223v-377q0 -133 107 -133q85 0 165 95q18 -25 31.5 -42t22.5 -25q32 -26 79 -26q60 0 112 43q42 36 42 53v70zM493 684h-162v-96h162v96zM253 684h-162v-98h162v98zM502 578h-180v116h180v-116z
M263 576h-181v118h181v-118zM605 115q0 -22 -46 -60q-55 -46 -118 -46q-47 0 -85 29q-19 16 -48 58q-81 -88 -165 -88q-117 0 -117 142v387h242v-365q0 -7 16 -7q27 0 27 20v352h236v-369q11 4 26 13t32 25v-91zM614 228q-37 -34 -58 -45v363h-254v-361q0 -11 -18 -11
q-6 0 -6 -2v374h-261v-396q0 -152 126 -152q83 0 164 83q28 -38 43 -51q36 -30 91 -30q67 0 124 48q24 21 36.5 37t12.5 30v113zM272 703h-200v-136h200v136zM512 703h-200v-134h200v134z" />
    <glyph glyph-name="yacute" unicode="&#xfd;" horiz-adv-x="625" 
d="M590 188q-10 -13 -23 -22l-27 -18v381h-221v-353q0 -21 -32 -35l-33 -4v392h-219v-416q0 -21 7 -39t19 -31.5t28.5 -21.5t36.5 -8q-5 -12 -5 -23t2 -19.5t6 -16.5q41 -78 185 -78q98 0 167 48q59 42 59 84v58q31 13 50 35v87zM263 -40q-17 0 -33 13.5t-16 30.5l60 33
l45 29v-77q0 -29 -56 -29zM338 726l-65 -133h69l119 133h-123zM263 -31q47 0 47 20v60l-32 -20l-55 -31q3 -11 15 -20t25 -9zM482 736l-136 -152h-88l75 152h149zM600 98q-11 -14 -24 -23t-27 -16v-51q0 -48 -63 -91q-71 -51 -172 -51q-149 0 -193 83q-10 17 -10 41
q0 10 1 15q-38 5 -62.5 35.5t-24.5 72.5v426h238v-392l22 3q25 12 25 26v363h239v-374l13 8h-1q5 4 15.5 15t23.5 26v-116zM609 238q-17 -20 -31 -35.5t-20 -20.5v366h-257v-372q0 -5 -5 -8t-13 -8l-10 -2v390h-257v-435q0 -43 24 -75t62 -41v-7q0 -26 10 -46
q46 -88 202 -88q51 0 95.5 13.5t81.5 39.5q67 48 67 99v45q27 13 51 42v143zM327 745l-85 -171h108l153 171h-176zM263 -21q-8 0 -15.5 4.5t-12.5 10.5l48 26l18 12v-43q0 -10 -38 -10z" />
    <glyph glyph-name="ydieresis" unicode="&#xff;" horiz-adv-x="625" 
d="M590 187q-11 -12 -23 -22l-27 -17v380h-221v-352q0 -21 -32 -36l-33 -3v391h-219v-415q0 -21 7 -39t19 -31.5t28.5 -21.5t36.5 -8q-5 -12 -5 -23t2 -19.5t6 -16.5q42 -78 185 -78q48 0 90 12t77 37q59 41 59 83v58q31 13 50 35v86zM263 -40q-17 0 -33 13.5t-16 30.5
l60 33l45 29v-77q0 -29 -56 -29zM502 691h-162v-98h162v98zM262 691h-162v-100h162v100zM263 -31q47 0 47 20v60l-32 -20l-55 -31q3 -11 15 -20t25 -9zM512 584h-181v116h181v-116zM272 582h-181v118h181v-118zM600 97q-21 -24 -51 -38v-51q0 -46 -63 -91q-71 -51 -172 -51
q-149 0 -193 83q-10 17 -10 41q0 10 1 15q-38 5 -62.5 35.5t-24.5 72.5v425h238v-391l22 3q25 12 25 26v362h239v-374l13 9h-1q5 4 15.5 15t23.5 26v-117zM609 238q-17 -21 -31 -36.5t-20 -20.5v366h-257v-371q0 -8 -18 -16l-10 -2v389h-257v-434q0 -43 24 -75t62 -41v-7
q0 -26 10 -45q45 -88 202 -88q102 0 177 52q67 48 67 99v45q29 14 51 42v143zM281 710h-199v-138h199v138zM521 710h-200v-136h200v136zM263 -21q-8 0 -15.5 4.5t-12.5 10.5l48 26l18 12v-43q0 -10 -38 -10z" />
    <glyph glyph-name="OE" unicode="&#x152;" horiz-adv-x="814" 
d="M778 182q-61 -53 -124 -53q-76 0 -76 104q0 25 8 47t23 38t35 25t44 9l20 -1v77q-119 0 -119 78q0 67 66 67q17 0 38 -5t46 -16v79q-87 57 -182 57q-48 0 -102 -21h-87v-15l-81 16q-20 4 -42 6t-48 2q-62 0 -112 -44q-49 -43 -49 -104v-400q0 -68 88 -101q62 -23 144 -23
q71 0 130 15q8 2 18 6t23 11q23 -17 56 -23.5t64 -6.5q62 0 122 28q62 31 97 78v70zM334 226q0 -50 18 -92q2 -5 6.5 -12.5l10.5 -17.5l-24 -3q-29 0 -49.5 10.5t-20.5 27.5v420q0 37 72 33l19 -1h7q-22 -39 -22 -81q0 -83 75 -132q-92 -42 -92 -152zM325 226q0 107 82 153
q-65 50 -65 131q0 37 15 72l-10 1h-14q-48 0 -48 -24v-420q0 -13 17 -20.5t43 -7.5h-1l8 1q-3 5 -4.5 9.5t-3.5 8.5q-11 22 -15 46t-4 50zM788 109q-42 -54 -104 -83q-63 -30 -125 -30q-31 0 -63.5 7t-57.5 22q-13 -6 -22 -10t-15 -6q-59 -15 -133 -15q-82 0 -148 25h1
q-95 36 -95 109v400q0 63 52 111q53 46 119 46q26 0 49 -2t43 -6l69 -14v14h95q27 11 53 15.5t51 4.5q98 0 192 -61v-98q-59 26 -94 26q-56 0 -56 -58q0 -68 119 -68v-98l-31 3q-44 -1 -72 -32.5t-28 -77.5q0 -95 67 -95q59 0 134 66v-95zM798 223q-89 -75 -144 -75
q-57 0 -57 85q0 42 25.5 71t63.5 30l41 -4v117q-119 0 -119 59q0 48 47 48q15 0 41 -7t63 -23v117q-101 66 -202 66q-53 0 -107 -21h-101v-10l-59 11q-40 8 -93 8q-67 0 -124 -49q-56 -49 -56 -118v-400q0 -82 100 -119q34 -13 71.5 -18.5t79.5 -5.5q75 0 135 16q8 2 17 5.5
t18 7.5q26 -15 58.5 -21t62.5 -6q33 0 64.5 7.5t64.5 22.5q67 33 110 88v118zM315 226q0 -52 20 -100q0 -2 1 -3t2 -3q-19 1 -31.5 6t-12.5 13v420q0 14 39 14h11q-12 -32 -12 -63q0 -38 14.5 -71t44.5 -59q-76 -51 -76 -154z" />
    <glyph glyph-name="oe" unicode="&#x153;" horiz-adv-x="732" 
d="M697 176q-37 -21 -59.5 -33.5t-31.5 -16.5q-33 -14 -58 -14q-20 0 -39 8l-3 21l3 21q68 36 111 91q48 63 48 132t-58 112q-53 39 -126 39q-20 0 -35 -5l-37 -13h-107v-19q-61 32 -126 32t-109 -41q-34 -31 -34 -58v-315q0 -52 74 -82q57 -24 118 -24t111 21
q54 -20 118 -20q136 0 240 98v66zM509 261v168l11 11q9 7 14 7q34 0 48 -18q10 -18 10 -50q0 -40 -21 -76q-24 -42 -62 -42zM239 114v289q0 14 11.5 23t23.5 9q15 -2 28 -7v-327q-13 -7 -27 -7q-36 5 -36 20zM518 425v-154q25 4 45 37q20 34 20 71q0 31 -9 45v-1
q-12 15 -40 15q-2 0 -7 -5zM249 114q0 -9 26 -10q7 0 17 2v315q-5 2 -9.5 3t-9.5 2q-8 -1 -16 -8t-8 -15v-289zM707 106q-109 -103 -250 -103q-66 0 -118 18q-48 -19 -111 -19q-32 0 -61.5 5.5t-60.5 18.5q-80 35 -80 91v315q0 17 9.5 32.5t27.5 32.5q49 44 116 44
q58 0 117 -28v14h116l34 13q18 5 38 5q77 0 132 -41q61 -46 61 -119t-50 -138q-41 -56 -110 -91l-2 -15l2 -14q15 -6 31 -6q12 0 25.5 3.5t28.5 9.5q5 2 31.5 17t73.5 41v-86zM716 207q-49 -28 -78.5 -44t-38.5 -20q-14 -7 -27 -9.5t-24 -2.5q-6 0 -11.5 0.5t-10.5 1.5l-1 8
l1 9q66 36 109 92q52 69 52 143q0 77 -66 127q-57 43 -137 43q-26 0 -41 -6l-34 -12h-122v-10q-26 11 -53 17t-55 6q-72 0 -122 -47q-40 -36 -40 -71v-315q0 -65 85 -99q62 -25 126 -25q62 0 110 19q51 -19 119 -19q143 0 259 110v104zM258 114v289q0 5 5 8.5t10 4.5
q2 -1 4 -1q3 0 6 -1v-301h-6h-2h2h-2q-17 2 -17 1zM533 427q2 2 1 2q25 0 33 -11h-1q7 -12 7 -39q0 -36 -18 -66q-12 -22 -27 -29v137z" />
    <glyph glyph-name="Scaron" unicode="&#x160;" horiz-adv-x="483" 
d="M428 315l-122 163q-14 18 -19 32q-4 13 -6 23t-2 19q4 32 25 32q58 0 123 -47v101q-81 72 -186 72q-79 0 -138 -59q-57 -60 -57 -142q0 -19 8 -49q12 -32 23 -46l63 -86q31 -41 47.5 -66t19.5 -33q12 -20 12 -37q0 -28 -20.5 -46.5t-48.5 -18.5q-59 0 -105 57l-10 -110
q96 -66 202 -66q93 0 151 58q61 59 61 154q0 33 -5.5 57t-15.5 38zM315 870l-64 -80l-64 80h-81l87 -137h111l94 137h-83zM417 880l-109 -156h-119l-100 156h103l59 -76l60 76h106zM435 321q23 -31 23 -101q0 -98 -64 -161q-61 -61 -157 -61q-109 0 -212 71l13 139
q59 -71 112 -71q24 0 42 16t18 39q0 17 -10 31q-6 18 -67 100l-64 85q-5 7 -11 19.5t-13 31.5q-8 30 -8 50q0 87 60 149t144 62q108 0 195 -78v-123q-77 55 -132 55q-13 0 -16 -22q0 -8 2 -17.5t5 -21.5q3 -8 19 -29zM307 890l-56 -70l-56 70h-124l108 -170q-50 -16 -89 -56
q-62 -65 -62 -155q0 -11 2.5 -26.5t7.5 -35.5q5 -13 11.5 -24t12.5 -21l63 -85q31 -40 46.5 -63.5t18.5 -31.5q11 -17 11 -30q0 -20 -15.5 -33t-35.5 -13q-51 0 -119 85l-15 -167q109 -75 221 -75q100 0 164 64v-1q66 63 66 168q0 71 -25 107l-121 162q-7 10 -11 16t-6 11
q-3 10 -5 18t-2 15q1 16 7 16q53 0 141 -64v145q-61 55 -129 73l118 171h-127z" />
    <glyph glyph-name="scaron" unicode="&#x161;" horiz-adv-x="477" 
d="M443 178l-45 -23q4 11 6 25l1 18q3 55 -36 88l-82 72q-24 19 -22 56q0 11 7 20t15 9q57 0 111 -72v91q-59 82 -185 82q-73 0 -123 -36q-52 -41 -52 -116q0 -51 18 -75l122 -137q4 -6 4 -14q0 -17 -12 -34.5t-28 -17.5q-45 0 -45 90h-55l-6 -22q-1 -5 -1 -15v-23
q0 -129 181 -129q136 0 227 89v74zM295 721l-64 -79l-64 79h-81l87 -135h110l95 135h-83zM396 731l-108 -155h-120l-100 155h103l60 -75l60 75h105zM452 101q-94 -95 -236 -95q-191 0 -191 138q0 28 3 43l7 27h71q0 -91 36 -91q12 0 21.5 14.5t9.5 28.5q0 6 -2 8l-123 137
q-19 25 -19 81q0 82 56 123q49 38 128 38q131 0 194 -88v-122q-68 91 -120 91q-5 0 -9 -6.5t-4 -13.5v-4q0 -29 18 -45l83 -72q39 -33 39 -87v-9l-1 -18v-5l39 21v-94zM461 210l-38 -20l1 7v9q0 58 -43 95v-1l-82 72q-16 14 -16 38v4q0 3 1 6.5t3 3.5q48 0 129 -109v154
q-67 94 -203 94q-82 0 -134 -40q-59 -45 -59 -131q0 -57 25 -91l68 -78h-85l-11 -42q-1 -4 -1 -37q0 -148 200 -148q145 0 245 101v113zM287 740l-56 -69l-56 69h-124l112 -173h129l121 173h-126zM164 167v-1q0 -11 -6.5 -22t-15.5 -11q-27 0 -27 88z" />
    <glyph glyph-name="Ydieresis" unicode="&#x178;" horiz-adv-x="724" 
d="M688 681h-245v-474q0 -18 -11.5 -30t-28.5 -12q-18 0 -30 12t-12 30v470h-326v-113h70v-419q0 -51 41 -98q51 -44 124 -44q59 0 106 29q52 33 67 88v-97q0 -19 -21 -46t-40 -27q-9 -9 -48 -9q-79 0 -140 21v-75q32 -18 74 -26.5t94 -8.5h61q130 0 181 21q84 34 84 144
v664zM598 830h-164v-98h164v98zM356 830h-164v-100h164v100zM607 723h-182v117h182v-117zM365 721h-182v119h182v-119zM698 17q0 -116 -90 -153q-51 -22 -185 -22h-61q-107 0 -178 40v94q72 -25 150 -25q36 0 44 9q19 0 36 23q19 23 19 40v50q-17 -27 -52 -50
q-48 -30 -111 -30q-38 0 -71 12.5t-63 37.5q-40 47 -40 102v409h-70v133h345v-480q0 -14 9 -23.5t23 -9.5q13 0 21.5 9.5t8.5 23.5v484h265v-674zM707 700h-283v-493q0 -11 -6 -17t-15 -6q-10 0 -16.5 6t-6.5 17v490h-364v-152h70v-400q0 -58 47 -111q57 -50 137 -50
q66 0 116 31q20 13 38 31v-23q0 -10 -17 -35q-16 -19 -33 -19q-7 -8 -40 -8q-76 0 -159 28v-112q78 -44 187 -44h61q136 0 189 23v-1q95 39 95 162v683zM374 850h-201v-139h201v139zM616 850h-201v-137h201v137z" />
    <glyph glyph-name="florin" unicode="&#x192;" horiz-adv-x="421" 
d="M387 533h-71v47h71v95q-66 35 -144 35q-42 0 -88 -39q-51 -41 -51 -83v-768h-70v-95q64 -35 143 -35q41 0 89 41q50 40 50 81v606h71v115zM396 409h-71v-597q0 -46 -53 -89q-54 -43 -95 -43q-79 0 -152 40v109h70v759q0 46 54 90q53 42 94 42q80 0 153 -40v-110h-71v-27
h71v-134zM405 552h-71v9h71v125q-80 43 -162 43q-49 0 -99 -43q-58 -47 -58 -98v-749h-70v-125q80 -44 161 -44q49 0 101 46h-1q57 46 57 96v587h71v153z" />
    <glyph glyph-name="circumflex" unicode="&#x2c6;" horiz-adv-x="383" 
d="M245 550h-107l-88 -107h69l71 63l69 -63h73zM349 435h-93l-66 60l-67 -60h-90l100 122h117zM254 565h-125l-114 -138h111l64 57l62 -57h115z" />
    <glyph glyph-name="tilde" unicode="&#x2dc;" horiz-adv-x="407" 
d="M316 531q-12 -30 -47 -30l-61 18q-32 9 -52 9q-47 0 -80 -24.5t-39 -63.5l54 -7l14 21q11 11 24 11q9 -2 26 -5.5t40 -11.5q40 -12 74 -12q38 0 68 32q25 28 33 63h-54zM380 539q-7 -44 -36 -76q-32 -35 -75 -35q-37 0 -77 13h1q-23 7 -39 11t-26 5q-8 -1 -16 -7h1
l-18 -26l-68 10q8 46 43.5 74t85.5 28q24 0 55 -10l58 -18q29 0 41 31h70zM304 547q-10 -28 -31 -31l-59 18q-32 9 -58 9q-27 0 -50.5 -8.5t-42 -23.5t-31 -36.5t-16.5 -47.5l84 -11l21 31l-1 -2q1 2 3 3l4 2q19 -3 62 -16q21 -8 40.5 -10.5t39.5 -2.5q47 0 83 38
q14 16 24 37.5t15 50.5h-87z" />
    <glyph glyph-name="endash" unicode="&#x2013;" horiz-adv-x="595" 
d="M559 243h-523v-74h523v74zM569 162h-543v89h543v-89zM578 258h-561v-103h561v103z" />
    <glyph glyph-name="emdash" unicode="&#x2014;" horiz-adv-x="1016" 
d="M980 243h-944v-74h944v74zM989 162h-963v89h963v-89zM999 258h-982v-103h982v103z" />
    <glyph glyph-name="quoteleft" unicode="&#x2018;" horiz-adv-x="237" 
d="M203 595h-129q-18 0 -29 -11.5t-11 -29.5v-144h163v92h-55q-16 0 -16 26q0 28 39 28q23 0 38 -7v46zM212 536q-26 12 -47 12q-31 0 -31 -20q0 -17 8 -17h63v-109h-180v152q0 22 13.5 36t35.5 14h138v-68zM220 612h-146q-26 0 -41.5 -16.5t-15.5 -41.5v-161h196v126h-71v9
q0 11 23 11q22 0 55 -16v89z" />
    <glyph glyph-name="quoteright" unicode="&#x2019;" horiz-adv-x="241" 
d="M207 605h-164v-92h56q10 -1 10 -17q0 -35 -50 -35l-25 4v-42q12 -2 24.5 -3.5t25.5 -1.5q81 0 123 54v133zM215 469q-46 -59 -131 -59q-27 0 -59 7v57l35 -4h-1q42 0 42 26q0 9 -3 9h-64v109h181v-145zM224 622h-198v-126h66q0 -18 -31 -18l-44 6v-75q40 -8 67 -8
q89 0 140 65v156z" />
    <glyph glyph-name="quotesinglbase" unicode="&#x201a;" horiz-adv-x="241" 
d="M207 121h-163v-91l16 -3l21 2q4 1 7 1h4h9q5 -3 6 -4q5 -7 5 -11q0 -2 -3 -3l2 -8q0 -13 -23 -19q-16 -4 -33 -4l-21 2v-38q14 -2 26.5 -3.5t24.5 -1.5q72 0 122 50v131zM216 -13q-55 -55 -131 -55q-14 0 -29 1t-31 5v54l31 -2h4q5 0 11.5 1t14.5 2q7 3 11 5t5 5l-3 13
q4 1 4 -1q0 3 -3 6h-1h-7h-4q-2 0 -7 -1l-22 -1l-24 3v108h181v-143zM224 138h-197v-123l32 -5l23 2q5 1 9 1l2 -10q-4 0 -9 -2l2 1q-8 -2 -14.5 -3t-11.5 -1h-3l-40 4v-71q21 -4 37.5 -6t30.5 -2q79 0 139 60v155z" />
    <glyph glyph-name="quotedblleft" unicode="&#x201c;" horiz-adv-x="457" 
d="M422 596h-141q-19 0 -31.5 -12t-12.5 -29v-144h179v89h-57q-15 2 -20 26q0 21 9 26q7 4 32 4q23 0 42 -8v48zM221 596h-142q-19 0 -31 -12t-12 -29v-144h178v89h-59q-17 0 -17 26q0 30 38 30q25 0 45 -8v48zM230 572q5 14 19 23.5t32 9.5h150v-70q-27 12 -51 12
q-21 0 -27 -2q-5 -3 -5 -19q3 -16 11 -18h1h65v-106h-198v134q-32 12 -51 12q-29 0 -29 -22q0 -18 8 -18h68v-106h-197v153q0 21 15 35.5t38 14.5h151v-33zM239 613h-160q-27 0 -44.5 -16.5t-17.5 -41.5v-161h417v123h-73h-1q-1 0 -3 10v1v10q1 1 23 1q21 0 60 -17v91h-159
q-12 0 -23 -4t-19 -10v14zM156 526q0 13 20 13q8 0 18 -2t24 -7v-13h-63q1 0 1 9z" />
    <glyph glyph-name="quotedblright" unicode="&#x201d;" horiz-adv-x="462" 
d="M427 586h-180v-92h62q11 -2 11 -16q0 -35 -53 -35q-18 0 -30 3v-38q15 -3 29 -4t26 -1q80 0 135 50v133zM224 586h-178v-92h62q9 -1 9 -19q0 -30 -53 -30h-16l-13 1v-38q15 -3 29 -4t27 -1q80 0 133 50v133zM234 455q18 -3 33 -3q43 0 43 26q0 7 -2 8h-70v108h198v-145
q-61 -55 -144 -55q-30 0 -64 6v44q-58 -50 -137 -50q-31 0 -65 6v55l23 -2h15q44 0 44 22q0 10 -1 11h-70v108h197v-139zM445 603h-417v-126h72q-1 -1 -1 -2v0q0 -13 -35 -13h-15l-32 2v-71q23 -4 41 -5.5t33 -1.5q73 0 128 40v-33q23 -4 41 -5.5t32 -1.5q88 0 153 60v157z
M267 460q-6 0 -11.5 0.5t-12.5 1.5v15h58q-1 -17 -34 -17z" />
    <glyph glyph-name="quotedblbase" unicode="&#x201e;" horiz-adv-x="462" 
d="M427 121h-180v-91q16 -5 27 -4l19 1l16 3q11 -2 11 -16q-5 -24 -15 -24q-2 -3 -16 -6l-31 -3h-12l-9 2v-38q15 -2 29 -3.5t26 -1.5q80 0 135 50v131zM224 121h-178v-91q7 -4 17 -4h10l20 1l15 3q6 -2 7 -4q5 -7 5 -11q0 -2 -3 -3l2 -7q0 -14 -24 -20q-10 -3 -19.5 -3.5
t-18.5 -0.5l-22 2v-38q15 -2 29 -3.5t27 -1.5q80 0 133 50v131zM234 -8l14 -2h9l32 2q10 2 11 6q8 0 10 17v-1q0 5 -1 6l-13 -1l-22 -1h-5q-16 0 -31 5v107h198v-143q-59 -55 -144 -55q-14 0 -30.5 1t-33.5 5v43q-58 -49 -137 -49q-15 0 -31.5 1t-33.5 5v54l32 -2h7
q12 0 27 3q16 6 18 11l-3 12q3 1 4 0q0 3 -4 4l-11 -1l-23 -1h-10q-16 0 -26 6v106h197v-138zM445 138h-417v-118q22 -11 35 -11h10l23 1l3 1l2 -6q-1 -1 -11 -4q-11 -3 -25 -3h-6l-42 4v-71q23 -4 41 -6t33 -2q72 0 128 41v-33q23 -4 41 -6t32 -2q87 0 153 60v155zM269 9h5
l23 1l2 1q-1 -4 -4 -4q-3 -4 -9 -6h2l-32 -3h-6l-7 2v13q8 -2 14.5 -3t11.5 -1z" />
    <glyph glyph-name="dagger" unicode="&#x2020;" horiz-adv-x="539" 
d="M506 499h-152v192h-167v-192h-154v-138h154v-506h167v504h152v140zM515 349h-152v-504h-185v506h-154v158h154v192h185v-192h152v-160zM524 518h-152v193h-204v-193h-154v-177h154v-505h204v503h152v179z" />
    <glyph glyph-name="daggerdbl" unicode="&#x2021;" horiz-adv-x="509" 
d="M475 152h-160v227h160v103h-160v198h-123v-198h-159v-103h159v-227h-159v-103h159v-196h123v196h160v103zM484 39h-160v-196h-141v196h-159v123h159v208h-159v121h159v198h141v-198h160v-121h-160v-208h160v-123zM494 171h-161v189h161v141h-161v198h-160v-198h-158v-141
h158v-189h-158v-141h158v-196h160v196h161v141z" />
    <glyph glyph-name="bullet" unicode="&#x2022;" horiz-adv-x="190" 
d="M95 314q-27 0 -45 -18.5t-18 -44.5t18 -44.5t45 -18.5q26 0 44.5 18.5t18.5 44.5t-18.5 44.5t-44.5 18.5zM95 322q29 0 50 -20.5t21 -50.5t-21 -50.5t-50 -20.5q-30 0 -50.5 20.5t-20.5 50.5t20.5 50.5t50.5 20.5zM95 330q-33 0 -56 -23t-23 -56t23 -56t56 -23
q32 0 55.5 23t23.5 56t-23.5 56t-55.5 23z" />
    <glyph glyph-name="ellipsis" unicode="&#x2026;" horiz-adv-x="716" 
d="M680 76h-184v-62h184v62zM452 76h-184v-62h184v62zM220 76h-184v-62h184v62zM462 7h-203v76h203v-76zM230 7h-204v76h204v-76zM690 7h-204v76h204v-76zM699 90h-222v-90h222v90zM239 90h-222v-90h222v90zM471 90h-222v-90h222v90z" />
    <glyph glyph-name="perthousand" unicode="&#x2030;" horiz-adv-x="1599" 
d="M1564 353q-27 -21 -61 -21v121h-138v-18q-74 40 -124 40q-27 0 -51.5 -8t-44.5 -22t-35 -34t-22 -44v-25q-19 -10 -43 -10v121h-138v-18q-76 40 -125 40q-46 0 -96 -31q-57 -36 -57 -77v-322q0 -51 79 -81q30 -12 61.5 -17.5t63.5 -5.5q154 0 193 93v206q29 0 62 25v-220
q0 -51 67 -81q56 -27 113 -24l21 1q77 3 115 20q60 24 80 73v206q47 0 80 45v68zM593 713l-213 -753h87l214 753h-88zM511 614q-30 -23 -62 -21v122h-136v-19q-11 6 -26.5 12.5t-35.5 11.5q-20 7 -36.5 10t-28.5 3q-46 0 -95 -29q-56 -33 -56 -75v-323q0 -51 78 -82
q60 -24 123 -24q58 0 116 20q77 28 77 75v207q49 0 82 45v67zM1297 41v297q4 30 37 28q19 -2 25 -9l-3 -30q0 -24 7 -49q21 -27 50 -30v-156q0 -71 -68 -71q-17 0 -32.5 6.5t-15.5 13.5zM839 41v297q4 28 36 28q17 0 25 -9l-3 -30q0 -24 7 -49q23 -27 51 -30v-156
q0 -71 -68 -71q-18 0 -33 6.5t-15 13.5zM243 302v296q0 32 31 32q19 0 32 -13l-3 -27q0 -76 58 -80v-157q0 -72 -73 -72q-45 0 -45 21zM849 41q0 -4 12 -7t26 -3q58 0 58 61v147q-28 6 -51 35q-6 27 -6 54l2 25q-5 4 -15 4q-23 0 -26 -20v-296zM1307 41q0 -4 12 -7t26 -3
q59 0 59 61v147q-30 6 -51 35q-7 25 -7 54l2 25q-3 2 -14 4h-3q-21 0 -24 -19v-297zM253 302q0 -11 35 -11q63 0 63 62v148q-58 12 -58 90l2 23q-9 6 -21 6q-21 0 -21 -22v-296zM695 722l-220 -772h-109l219 772h110zM521 544q-34 -47 -82 -52v-197q0 -54 -84 -83
q-59 -21 -119 -21q-32 0 -63.5 5.5t-62.5 19.5q-84 31 -84 90v323q0 48 60 84q48 29 100 29q12 0 29.5 -3t38.5 -10v1l27 -9t23 -9v12h155v-121q21 1 62 29v-88zM1574 282q-33 -46 -80 -51v-199q-23 -55 -86 -80q-42 -18 -119 -21l-21 -1h-12q-55 0 -105 25q-73 33 -73 90
v201q-23 -12 -42 -15v-199q-43 -101 -203 -101q-66 0 -129 24q-84 33 -84 90v322q0 47 61 84q57 34 101 34q45 0 115 -34v12h157v-121l12 2t12 3v23q7 25 23 46.5t38 36.5t48 23.5t54 8.5q44 0 115 -34v12h157v-121q23 3 61 31v-91zM1584 392q-36 -27 -62 -37v117h-176v-6
q-62 28 -105 28q-60 0 -108 -34t-65 -90v-16q-1 -1 -4 -1v119h-176v-6q-62 28 -106 28q-52 0 -107 -34q-65 -41 -65 -93v-322q0 -31 22.5 -56.5t68.5 -42.5q32 -13 64.5 -18.5t67.5 -5.5q165 0 213 109v192q5 1 10.5 2.5t11.5 4.5v-185q0 -64 79 -98h-1q52 -26 110 -26h12
l22 1q78 3 122 22q66 27 92 87v192q46 9 80 57v112zM531 650q-43 -29 -63 -36v120h-174v-8q-15 5 -38 12h1q-22 8 -39.5 11t-31.5 3q-52 0 -105 -32q-65 -38 -65 -91v-323q0 -66 91 -100l-1 1q66 -26 130 -26t123 21q90 31 90 93v190q40 6 71 43l-166 -587h128l224 791h-127
l-48 -168v86zM263 302v296q0 13 11 13q5 0 11 -2l-2 -17q0 -82 59 -99v-140q0 -52 -54 -52q-14 0 -19.5 0.5zM1317 41v295q2 11 14 11h2q2 -1 5 -1l-2 -17q0 -27 9 -61q23 -28 49 -36v-140q0 -52 -49 -52q-11 0 -19.5 0.5zM858 41v294q1 12 17 12q3 0 5 -1l-2 -17
q0 -27 9 -61q21 -27 48 -36v-140q0 -52 -48 -52q-11 0 -20 0.5z" />
    <glyph glyph-name="guilsinglleft" unicode="&#x2039;" horiz-adv-x="196" 
d="M163 184l-80 78l79 80v100l-132 -131v-101l133 -128v102zM171 62l-149 143v109l148 148v-123l-75 -77l76 -74v-126zM179 192l-72 70l71 72v148l-165 -163v-117l166 -159v149z" />
    <glyph glyph-name="guilsinglright" unicode="&#x203a;" horiz-adv-x="193" 
d="M163 318l-130 128v-100l78 -78l-76 -79v-102l128 123v108zM171 205l-144 -138v126l72 75l-74 74v125l146 -145v-117zM179 326l-162 160v-148l70 -70l-68 -70v-150l160 154v124z" />
    <glyph glyph-name="trademark" unicode="&#x2122;" horiz-adv-x="786" 
d="M750 433l-12 -3l-12 -2l-14 2v245h-100l-75 -134l-67 134h-146v-44h35v-210q0 -8 -11 -14t-20 -4v-39l18 -2q8 0 16.5 1t18.5 5q24 7 24 20v149l91 -175l96 169v-136q1 -12 30 -24q24 -9 41 -9q18 0 50 12q37 13 37 27v32zM298 437l-21 -14q-6 -2 -11 -3t-8 -1l-17 4v204
h49v48h-186q-32 0 -51.5 -22t-17.5 -52l1 -16h37q-2 19 10.5 31.5t32.5 12.5v-219q0 -48 88 -48q74 0 94 35v40zM308 395q-25 -42 -104 -42q-97 0 -97 57v209q-25 -6 -25 -28q0 -2 0.5 -7.5t0.5 -7.5h-56l-1 24v6q0 33 21.5 55.5t56.5 22.5h195v-66h-48v-188l8 -2q2 0 5.5 1
t8.5 3l-1 -1l36 22v-58zM760 401q0 -20 -43 -35q-32 -13 -54 -13q-19 0 -45 10q-34 13 -36 31v100l-86 -152l-82 157v-111q0 -19 -30 -28q-11 -5 -21 -6t-19 -1l-26 3v56h15q5 0 11 2t6 7v201h-35v62h161l61 -123l69 123h116v-247h3l11 2h-1l25 7v-45zM769 458l-37 -11l3 1
l-4 -1v246h-131l-62 -112l-55 112h-379q-39 0 -63.5 -25.5t-24.5 -61.5v-6l2 -33h74q0 2 -0.5 12t-0.5 12q0 7 6 13v-194q0 -66 107 -66q73 0 105 36v-31l34 -5q11 0 22.5 1t22.5 6q36 12 36 37v71l71 -137l78 137v-66q3 -24 43 -39l-1 1q29 -10 48 -10q12 0 26.5 2.5
t31.5 9.5h-1q49 18 49 44v57zM317 470l-49 -30q-4 -1 -8 -3v172h49v4h31v-192h-23v49z" />
    <glyph glyph-name="nonbreakingspace" unicode="&#xe002;" horiz-adv-x="24" 
 />
    <glyph glyph-name="minus" unicode="&#xe003;" horiz-adv-x="428" 
d="M393 195h-358v-27h358v27zM402 163h-376v38h376v-38zM411 206h-394v-49h394v49z" />
    <glyph glyph-name="DST" unicode="&#xe004;" horiz-adv-x="1438" 
d="M1396 562q0 -29 -22 -50t-51 -21h-146q-35 0 -35 -45v-302q0 -30 19 -42v-56q-72 16 -72 86v322q0 96 115 96q16 0 48 -3q17 -1 29 -1.5t20 -0.5q40 0 40 21q0 19 -41 19q-8 0 -20 -0.5t-28 -1.5t-27.5 -1.5t-19.5 -0.5q-116 0 -116 88v131h57v-131q0 -35 37 -35h148
q27 0 46 -21t19 -51zM1009 136q0 -39 -23.5 -63.5t-62.5 -24.5h-282q-30 0 -50 20t-20 50q0 31 18 52t47 21h279v-53h-270q-20 0 -20 -18q0 -21 22 -21h250q61 0 61 45v76q0 45 -45 45h-250q-42 0 -67 25t-25 67v89q0 45 26.5 73.5t71.5 28.5h246q76 0 89 -76h-50
q-20 21 -43 21h-244q-41 0 -41 -43v-95q0 -37 41 -37h246q45 0 70.5 -23t25.5 -65v-94zM501 116q0 -30 -21.5 -52t-51.5 -22q-32 0 -52 22t-20 55q0 72 -0.5 114t-1.5 55q-2 9 -87 93l-95 93q-14 14 -27 14q-10 0 -17 -6q-8 -24 -8 -32v-310q0 -43 35 -43h81q13 6 25 21h53
q-14 -72 -77 -72h-82q-88 0 -88 96v330q0 31 26 51q23 17 56 17t52 -19l179 -177q31 -31 31 -75v-151q0 -21 19 -21q6 0 12 7.5t6 13.5l-2 682h56zM17 -39h1404v839h-1404v-839z" />
  </font>
</defs>
</svg>
