<?xml version="1.0" standalone="no"?>
<!DOCTYPE svg PUBLIC "-//W3C//DTD SVG 1.1//EN" "http://www.w3.org/Graphics/SVG/1.1/DTD/svg11.dtd" >
<svg xmlns="http://www.w3.org/2000/svg" xmlns:xlink="http://www.w3.org/1999/xlink" version="1.1">
<metadata>
Created by FontForge 20170731 at Sat Oct 21 21:57:21 2000
 By Aleksey,,,
(C)2000 Tepid Monkey Fonts-www.fontframe.com/tepidmonkey
</metadata>
<defs>
<font id="LockedWindow" horiz-adv-x="316" >
  <font-face 
    font-family="Locked Window"
    font-weight="400"
    font-stretch="normal"
    units-per-em="1000"
    panose-1="0 0 4 0 0 0 0 0 0 0"
    ascent="800"
    descent="-200"
    x-height="474"
    cap-height="606"
    bbox="-66 -201 989 906"
    underline-thickness="20"
    underline-position="-163"
    unicode-range="U+0020-2026"
  />
<missing-glyph horiz-adv-x="500" 
d="M63 0v800h375v-800h-375zM125 63h250v675h-250v-675z" />
    <glyph glyph-name=".notdef" horiz-adv-x="500" 
d="M63 0v800h375v-800h-375zM125 63h250v675h-250v-675z" />
    <glyph glyph-name=".null" horiz-adv-x="0" 
 />
    <glyph glyph-name="nonmarkingreturn" horiz-adv-x="305" 
 />
    <glyph glyph-name="space" unicode=" " horiz-adv-x="305" 
 />
    <glyph glyph-name="exclam" unicode="!" horiz-adv-x="244" 
d="M201 688l-20 -479h-110l-20 479h150zM212 79q0 -35 -25 -60t-59 -25q-35 0 -60 25t-25 60q0 34 25 59t60 25q34 0 59 -25t25 -59z" />
    <glyph glyph-name="quotedbl" unicode="&#x22;" 
d="M264 635v-300h-77l1 300h76zM124 635v-300h-77l1 300h76z" />
    <glyph glyph-name="numbersign" unicode="#" horiz-adv-x="680" 
d="M651 438v-77l-139 1l-43 -138l139 -1v-77l-163 1l-46 -147h-77l47 147l-164 1l-46 -148h-77l47 149h-96v76h120l43 138l-120 1v76h144l43 135h76l-42 -136h163l43 136h76l-43 -137h115zM436 362l-163 1l-44 -138l164 -1z" />
    <glyph glyph-name="dollar" unicode="$" horiz-adv-x="531" 
d="M312 16v-71h-76v51q-22 -3 -44 -3q-68 0 -131 27l20 43q34 -15 71 -15q44 0 84 20v150l-7 3q-22 9 -87 32q-54 19 -70 30q-37 23 -37 61q0 33 25 93q52 122 176 167v61h76v-44q17 2 33 2q68 0 132 -27l-17 -44q-37 15 -76 15q-37 0 -72 -14v-160q27 -11 85 -32
q54 -20 69 -30q37 -23 37 -60q0 -33 -26 -93q-49 -115 -165 -162zM236 496q-27 -36 -27 -56q0 -8 27 -17v73zM333 175q0 9 -21 16v-56q21 30 21 40z" />
    <glyph glyph-name="percent" unicode="%" horiz-adv-x="729" 
d="M702 154q0 -64 -45.5 -109t-108.5 -45q-64 0 -109 45t-45 109t45 109t109 45q63 0 108.5 -45t45.5 -109zM637 153q0 37 -26.5 63t-62.5 26q-37 0 -63 -26t-26 -63t26 -63t63 -26q36 0 62.5 26t26.5 63zM558 575l-313 -575h-77l314 575h76zM339 433q0 -64 -45.5 -109
t-108.5 -45q-64 0 -109 45t-45 109t45 109t109 45q63 0 108.5 -45t45.5 -109zM274 432q0 37 -26.5 63t-62.5 26q-37 0 -63 -26t-26 -63t26 -63t63 -26q36 0 62.5 26t26.5 63z" />
    <glyph glyph-name="ampersand" unicode="&#x26;" horiz-adv-x="574" 
d="M548 259h-60v-259q-29 0 -88 -2t-88 -2q-119 0 -179 24q-92 37 -92 138q0 94 102 135q-111 37 -111 138q0 162 284 162h162v-60l-162 -1q-66 0 -89 -19q-28 -22 -28 -87q0 -75 75 -97q23 -6 30 -6h241zM411 259h-96q-60 0 -83.5 -22.5t-23.5 -83.5q0 -111 160 -111
q19 0 43 1v216z" />
    <glyph glyph-name="quotesingle" unicode="'" horiz-adv-x="175" 
d="M123 635v-300h-77v300h77z" />
    <glyph glyph-name="parenleft" unicode="(" horiz-adv-x="373" 
d="M348 -140q-131 0 -227 115q-91 109 -91 243q0 133 91 242q96 115 227 115l-2 -57q-56 0 -105 -77q-37 -58 -54 -127q-13 -52 -13 -101q0 -50 13 -102q17 -69 54 -127q49 -76 105 -77z" />
    <glyph glyph-name="parenright" unicode=")" horiz-adv-x="397" 
d="M356 218q0 -134 -91 -243q-96 -115 -227 -115l2 47q56 1 105 77q37 58 54 127q13 52 13 102q0 49 -13 101q-17 69 -54 127q-49 77 -105 77l-2 57q131 0 227 -115q91 -109 91 -242z" />
    <glyph glyph-name="asterisk" unicode="*" horiz-adv-x="456" 
d="M417 383l-36 -67l-116 62v-133h-77v133l-116 -62l-36 68l109 58l-108 57l36 67l115 -61v130h77v-130l115 62l36 -67l-108 -58z" />
    <glyph glyph-name="plus" unicode="+" horiz-adv-x="351" 
d="M307 210h-90v-88h-77v88h-92v76h92v96h77v-96l90 1v-77z" />
    <glyph glyph-name="comma" unicode="," horiz-adv-x="292" 
d="M245 168l-103 -271h-100l75 271h128z" />
    <glyph glyph-name="hyphen" unicode="-" horiz-adv-x="368" 
d="M313 210h-259v76l259 1v-77z" />
    <glyph glyph-name="hyphen" unicode="&#x2010;" horiz-adv-x="368" 
d="M313 210h-259v76l259 1v-77z" />
    <glyph glyph-name="period" unicode="." horiz-adv-x="277" 
d="M228 80q0 -34 -24.5 -59t-59.5 -25t-59.5 25t-24.5 59q0 35 24.5 60t59.5 25t59.5 -25t24.5 -60z" />
    <glyph glyph-name="slash" unicode="/" 
d="M286 575l-181 -575h-76l180 575h77z" />
    <glyph glyph-name="zero" unicode="0" horiz-adv-x="719" 
d="M678 278q0 -131 -95 -216q-91 -82 -223 -82t-223 82q-94 85 -94 216q0 130 94 215q91 82 223 82t223 -82q95 -85 95 -215zM511 273q0 86 -33 156q-42 89 -119 89t-119 -89q-33 -70 -33 -156q0 -87 33 -157q42 -89 119 -89t119 89q33 70 33 157z" />
    <glyph glyph-name="one" unicode="1" horiz-adv-x="413" 
d="M362 0h-168v499l-130 -100l-24 40l154 126l168 1v-566z" />
    <glyph glyph-name="two" unicode="2" horiz-adv-x="587" 
d="M529 0h-490v46l291 317q41 44 41 67q0 11 -13 24q-10 10 -21 20q-50 50 -119 50q-90 0 -154 -65l-34 33q100 100 241 100q127 0 213 -86q76 -76 76 -121q0 -33 -43 -85q-1 -2 -68 -73l-169 -181l249 1v-47z" />
    <glyph glyph-name="three" unicode="3" horiz-adv-x="524" 
d="M494 168q0 -108 -106 -146q-65 -24 -197 -24q-24 0 -72.5 1t-71.5 1v47q16 0 48 -1.5t49 -1.5q183 0 183 119q0 81 -45 100q-18 7 -114 7h-131l253 240h-250v56h446v-56l-202 -188q103 -9 144 -31q66 -35 66 -123z" />
    <glyph glyph-name="four" unicode="4" horiz-adv-x="570" 
d="M524 188v-58h-50v-130h-168v130h-267v54l267 384h2l1 2h166l-1 -2v-380h50zM306 188v287l-194 -287h194z" />
    <glyph glyph-name="five" unicode="5" horiz-adv-x="500" 
d="M482 168q0 -108 -106 -146q-65 -24 -196 -24q-24 0 -72.5 1t-71.5 1v47q15 0 47.5 -1.5t48.5 -1.5q183 0 183 119q0 65 -27 87q-24 19 -89 19h-168l50 305h387v-47h-239l-30 -197h15q104 1 174 -29q94 -42 94 -133z" />
    <glyph glyph-name="six" unicode="6" horiz-adv-x="575" 
d="M546 209q0 -97 -81 -162q-75 -61 -174 -61q-100 0 -175 61q-80 65 -80 162q0 26 6 51h-1l166 316l144 -1l-116 -175q7 1 38 10q25 7 39 7q99 0 164 -54q70 -57 70 -154zM445 158q0 59 -49 98q-45 36 -105 36q-61 0 -106 -36q-48 -39 -48 -98t48 -98q45 -36 106 -36
q60 0 105 36q49 39 49 98z" />
    <glyph glyph-name="seven" unicode="7" horiz-adv-x="515" 
d="M483 510l-265 -510h-170l269 510h-280v56h446v-56z" />
    <glyph glyph-name="eight" unicode="8" horiz-adv-x="512" 
d="M472 432q0 -50 -42 -89q-35 -34 -89 -50q53 -16 88 -50q42 -39 42 -89q0 -73 -74 -125q-67 -47 -144 -47q-76 0 -143 47q-74 52 -74 125q0 50 42 90q35 33 89 49q-53 17 -88 50q-42 40 -42 89q0 72 77 116q64 36 141 36t141 -36q76 -44 76 -116zM386 398q0 43 -46 69
q-39 23 -85 23q-47 0 -86 -23q-46 -26 -46 -69t46 -70q39 -22 86 -22q46 0 85 22q46 27 46 70zM385 119q0 44 -46 70q-39 22 -86 22q-46 0 -85 -22q-46 -26 -46 -70q0 -45 44 -79q41 -32 87 -32q47 0 89.5 33t42.5 78z" />
    <glyph glyph-name="nine" unicode="9" horiz-adv-x="575" 
d="M42 365q0 97 81 162q75 61 174 61q100 0 175 -61q80 -65 80 -162q0 -26 -6 -51h1l-166 -316l-144 1l116 175q-7 -1 -38 -10q-25 -7 -39 -7q-99 0 -164 54q-70 57 -70 154zM143 416q0 -59 49 -98q45 -36 105 -36q61 0 107.5 37.5t46.5 96.5t-48 98q-45 36 -106 36
q-60 0 -105 -36q-49 -39 -49 -98z" />
    <glyph glyph-name="colon" unicode=":" horiz-adv-x="260" 
d="M223 400q0 -34 -25 -59t-59 -25q-35 0 -60 25t-25 59q0 35 25 60t60 25q34 0 59 -25t25 -60zM223 80q0 -34 -25 -59t-59 -25q-35 0 -60 25t-25 59q0 35 25 60t60 25q34 0 59 -25t25 -60z" />
    <glyph glyph-name="semicolon" unicode=";" horiz-adv-x="290" 
d="M255 400q0 -34 -25 -59t-60 -25q-34 0 -59 25t-25 59q0 35 25 60t59 25q35 0 60 -25t25 -60zM240 168l-103 -271h-100l75 271h128z" />
    <glyph glyph-name="less" unicode="&#x3c;" horiz-adv-x="435" 
d="M402 161l-1 -77l-366 162v78l366 212l1 -67l-302 -179z" />
    <glyph glyph-name="equal" unicode="=" horiz-adv-x="390" 
d="M347 270h-300v76l300 1v-77zM347 130h-300v76l300 1v-77z" />
    <glyph glyph-name="greater" unicode="&#x3e;" horiz-adv-x="429" 
d="M401 324v-78l-366 -162l-1 77l302 129l-302 179l1 67z" />
    <glyph glyph-name="question" unicode="?" horiz-adv-x="515" 
d="M497 454q0 -38 -38 -62q-17 -10 -71.5 -29.5t-84 -30.5t-57.5 -20q-47 -18 -47 -27l25 -79l-127 -15l-42 92q-27 65 -27 98q0 37 39 61q14 9 71 30q50 18 84 33q27 9 55 19q45 18 45 26q0 42 -56 42q-62 0 -222 -68l-17 44q56 33 130 54.5t137 21.5q135 0 177 -97
q26 -58 26 -93zM245 79q0 -35 -25 -60t-60 -25q-34 0 -59 25t-25 60q0 34 25 59t59 25q35 0 60 -25t25 -59z" />
    <glyph glyph-name="at" unicode="@" horiz-adv-x="637" 
d="M594 269q0 -171 -145 -214q-6 -1 -11 -1q-34 0 -62 70v34q-36 -26 -82 -26q-57 0 -97 40t-40 97t40 97.5t97 40.5q46 0 82 -27v22h81l-1 -286q0 -20 10 -20q3 0 7 2q82 45 82 171q0 99 -70 169t-169 70q-98 0 -168 -70t-70 -169t70 -169t168 -70v-38q-114 0 -195.5 81
t-81.5 196t81.5 196t195.5 81q115 0 196.5 -81t81.5 -196zM376 222v32q0 26 -29 48q-26 19 -53 19q-34 0 -58.5 -24.5t-24.5 -58.5t24.5 -58.5t58.5 -24.5q27 0 54.5 20.5t27.5 46.5z" />
    <glyph glyph-name="A" unicode="A" horiz-adv-x="623" 
d="M588 0h-167l-54 166h-209l-52 -166h-71l192 596h168zM352 212l-91 279l-88 -278z" />
    <glyph glyph-name="B" unicode="B" horiz-adv-x="538" 
d="M508 459q0 -81 -109 -125q-73 -29 -177 -36q286 -30 286 -147q0 -79 -121 -121q-88 -30 -185 -30h-168v605l168 1v-1q100 -2 184 -29q122 -40 122 -117zM379 418q0 43 -71 65q-46 14 -106 15v-156q177 4 177 76zM378 110q0 49 -67 82q-54 27 -109 29v-197q58 2 106 18
q70 23 70 68z" />
    <glyph glyph-name="C" unicode="C" horiz-adv-x="387" 
d="M353 -20q-131 0 -224 93t-93 225q0 131 93 224t224 93l-1 -210q-79 0 -134.5 -55t-55.5 -134q0 -78 55.5 -133.5t134.5 -55.5z" />
    <glyph glyph-name="D" unicode="D" horiz-adv-x="560" 
d="M521 298q0 -131 -94 -216q-90 -82 -221 -82h-168v605l168 1v-1q131 -1 223 -89t92 -218zM394 216q0 78 -55 133.5t-133 55.5v-358q78 0 131 45q57 47 57 124z" />
    <glyph glyph-name="E" unicode="E" horiz-adv-x="438" 
d="M416 0h-387v605l387 1v-47h-219v-195l219 1v-47h-219v-271h219v-47z" />
    <glyph glyph-name="F" unicode="F" horiz-adv-x="436" 
d="M416 318h-219v-318h-168v605l387 1v-47h-219v-195l219 1v-47z" />
    <glyph glyph-name="G" unicode="G" horiz-adv-x="403" 
d="M359 227v-247q-131 0 -224.5 93t-93.5 225q0 131 93.5 224t224.5 93l-2 -210q-78 0 -133.5 -55t-55.5 -134q0 -64 39.5 -115.5t102.5 -67.5v194h49z" />
    <glyph glyph-name="H" unicode="H" horiz-adv-x="584" 
d="M531 0h-168v318h-150v-318h-168v605l168 1v-242l150 1v240l168 -1v-604z" />
    <glyph glyph-name="I" unicode="I" horiz-adv-x="270" 
d="M217 0h-168v605l168 1v-606z" />
    <glyph glyph-name="J" unicode="J" horiz-adv-x="443" 
d="M393 143q0 -131 -115 -227q-110 -91 -243 -91l-1 47q111 0 162 95q20 39 28 95v542l168 1z" />
    <glyph glyph-name="K" unicode="K" horiz-adv-x="549" 
d="M530 0h-221l-112 129v-129h-168v605l168 1v-222l258 219h63l-303 -265z" />
    <glyph glyph-name="L" unicode="L" horiz-adv-x="424" 
d="M412 0h-387v605l168 1v-559h219v-47z" />
    <glyph glyph-name="M" unicode="M" horiz-adv-x="738" 
d="M685 0h-168v493l-124 -493h-156l-134 482l-1 -482h-58l1 604h184l118 -529l140 530l198 1v-606z" />
    <glyph glyph-name="N" unicode="N" horiz-adv-x="542" 
d="M491 0h-156l-234 482v-483h-58v605h164l238 -489v490h46v-605z" />
    <glyph glyph-name="O" unicode="O" horiz-adv-x="719" 
d="M675 298q0 -132 -93 -225t-224 -93t-224.5 93t-93.5 225q0 131 93.5 224t224.5 93t224 -93t93 -224zM546 216q0 78 -55.5 133.5t-134.5 55.5q-78 0 -133.5 -55.5t-55.5 -133.5t55.5 -133.5t133.5 -55.5q79 0 134.5 55.5t55.5 133.5z" />
    <glyph glyph-name="P" unicode="P" horiz-adv-x="553" 
d="M518 348q0 -130 -96 -202q-86 -66 -219 -66l-3 -80h-165v605l168 1v-1q134 -1 218 -61q97 -68 97 -196zM391 266q0 139 -188 139v-278q188 0 188 139z" />
    <glyph glyph-name="Q" unicode="Q" horiz-adv-x="712" 
d="M673 298q0 -145 -109 -240l78 -63l-30 -37l-87 71q-78 -49 -169 -49q-132 0 -225 93t-93 225q0 131 93 224t225 93q131 0 224 -93t93 -224zM543 216q0 78 -55.5 133.5t-133.5 55.5t-133.5 -55.5t-55.5 -133.5t55.5 -133.5t133.5 -55.5q68 0 120 43l-163 132l30 36
l165 -134q37 50 37 112z" />
    <glyph glyph-name="R" unicode="R" horiz-adv-x="565" 
d="M519 348q0 -144 -116 -217l105 -131h-58l-90 109q-69 -29 -156 -29l-3 -80h-165v605l168 1v-1q135 -1 219 -61q96 -68 96 -196zM393 266q0 139 -189 139v-278q189 0 189 139z" />
    <glyph glyph-name="S" unicode="S" horiz-adv-x="533" 
d="M192 -7q-68 0 -131 27l20 43q34 -15 71 -15q56 0 103.5 31.5t73.5 83.5q4 8 4 12q0 9 -48 27q-28 9 -56 19q-33 13 -79 29q-59 21 -75 31q-40 24 -40 63q0 34 25 93q37 86 114 136t171 50q68 0 132 -27l-17 -44q-37 15 -76 15q-58 0 -105 -31t-67 -85q-3 -7 -3 -11
q0 -8 46 -26q27 -10 54 -19q35 -15 78 -31q61 -22 75 -31q41 -24 41 -62q0 -34 -26 -93q-37 -86 -114 -135.5t-171 -49.5z" />
    <glyph glyph-name="T" unicode="T" horiz-adv-x="546" 
d="M520 560h-162l1 -560h-168v560h-161v46l490 1v-47z" />
    <glyph glyph-name="U" unicode="U" horiz-adv-x="644" 
d="M596 298q0 -134 -71 -222q-77 -96 -207 -96t-206 96q-71 88 -71 222v299h168l1 -381q0 -68 20 -119q29 -70 87 -70t86 70q21 51 21 119l1 384h171v-302z" />
    <glyph glyph-name="V" unicode="V" horiz-adv-x="606" 
d="M587 596l-192 -596h-168l-193 596l168 1l159 -492l158 492z" />
    <glyph glyph-name="W" unicode="W" horiz-adv-x="852" 
d="M821 596l-133 -596h-168l-105 483l-96 -483h-168l-123 596l168 1l89 -492l98 492h163l108 -492l99 492z" />
    <glyph glyph-name="X" unicode="X" horiz-adv-x="620" 
d="M587 1l-167 -1l-151 238l-167 -238l-67 1l199 289v0l-201 320l168 1l146 -233l171 233l68 -1l-204 -284h1z" />
    <glyph glyph-name="Y" unicode="Y" horiz-adv-x="616" 
d="M585 605l-190 -399v-206h-168v199l-195 406h167l159 -341l159 341h68z" />
    <glyph glyph-name="Z" unicode="Z" horiz-adv-x="523" 
d="M498 605l-1 -55l-273 -492h272v-58h-465v54l280 496h-280v56z" />
    <glyph glyph-name="bracketleft" unicode="[" horiz-adv-x="281" 
d="M254 510h-144v-569l143 1v-77h-220l1 721l218 -1z" />
    <glyph glyph-name="backslash" unicode="\" horiz-adv-x="328" 
d="M290 0h-76l-181 575h77z" />
    <glyph glyph-name="bracketright" unicode="]" horiz-adv-x="317" 
d="M266 -135h-219v77l142 -1v569h-143v77l220 -1v-721z" />
    <glyph glyph-name="asciicircum" unicode="^" horiz-adv-x="495" 
d="M453 401l-68 -1l-139 182l-128 -182l-78 1l162 236h78z" />
    <glyph glyph-name="underscore" unicode="_" horiz-adv-x="421" 
d="M367 -77h-380v76l380 1v-77z" />
    <glyph glyph-name="grave" unicode="`" horiz-adv-x="196" 
d="M210 664h-77l-137 179h76z" />
    <glyph glyph-name="a" unicode="a" horiz-adv-x="651" 
d="M600 0h-150v27q-67 -49 -151 -49q-105 0 -180 75t-75 180t75 180t180 75q84 0 151 -49v40h150v-479zM450 145v60q0 7 -8 28q-17 43 -56.5 69.5t-86.5 26.5q-63 0 -108.5 -45t-45.5 -109t45.5 -109t108.5 -45q47 0 86.5 26.5t56.5 69.5q8 21 8 28z" />
    <glyph glyph-name="b" unicode="b" horiz-adv-x="621" 
d="M588 233q0 -105 -74.5 -180t-180.5 -75q-83 0 -151 49v-27h-150v649h150v-210q68 49 151 49q106 0 180.5 -75t74.5 -180zM487 175q0 64 -45 109t-109 45q-47 0 -86 -26.5t-57 -69.5q-8 -21 -8 -28v-60q0 -7 8 -28q18 -43 57 -69.5t86 -26.5q64 0 109 45t45 109z" />
    <glyph glyph-name="c" unicode="c" horiz-adv-x="331" 
d="M295 -22q-105 0 -180 75t-75 180t75 180t180 75v-159q-63 0 -108.5 -45t-45.5 -109t45.5 -109t108.5 -45v-43z" />
    <glyph glyph-name="d" unicode="d" horiz-adv-x="650" 
d="M600 0h-150v27q-67 -49 -151 -49q-106 0 -180.5 75t-74.5 180t74.5 180t180.5 75q83 0 151 -49v210h150v-649zM450 145v60q0 7 -8 28q-18 43 -57 69.5t-86 26.5q-64 0 -109 -45t-45 -109t45 -109t109 -45q47 0 86 26.5t57 69.5q8 21 8 28z" />
    <glyph glyph-name="e" unicode="e" horiz-adv-x="560" 
d="M540 174h-408q1 -63 46 -108t108 -45v-43q-105 0 -180 75t-75 180t75 180t180 75t180 -73.5t75 -177.5q0 -2 -1 -63zM435 216q-14 50 -55.5 81.5t-93.5 31.5t-93.5 -31.5t-54.5 -81.5h297z" />
    <glyph glyph-name="f" unicode="f" horiz-adv-x="344" 
d="M318 499q-73 0 -129 -46q-59 -48 -59 -119h179v-52h-179v-282h-66l-1 282h-42v52h42v69q0 106 74.5 180.5t180.5 74.5v-159z" />
    <glyph glyph-name="g" unicode="g" horiz-adv-x="652" 
d="M600 486l-2 -437q0 -26 -19 -65q-34 -73 -112.5 -118.5t-161.5 -45.5q-227 0 -259 137h95q17 -58 62 -74q26 -10 102 -10q71 0 110.5 43.5t34.5 113.5q-69 -52 -155 -52q-106 0 -180.5 75t-74.5 180t74.5 180t180.5 75q86 0 155 -52v50h150zM449 175q0 64 -45 109
t-109 45t-109 -45t-45 -109t45 -109t109 -45t109 45t45 109z" />
    <glyph glyph-name="h" unicode="h" horiz-adv-x="560" 
d="M528 0h-136l-1 205q0 101 -9 140q-20 84 -89 84q-61 0 -91 -86q-20 -61 -20 -138v-205h-150v649h150v-210q67 49 131 49q104 0 162 -78q53 -69 53 -177v-233z" />
    <glyph glyph-name="i" unicode="i" horiz-adv-x="250" 
d="M214 609q0 -34 -24.5 -59t-59.5 -25t-59.5 25t-24.5 59q0 35 24.5 60t59.5 25t59.5 -25t24.5 -60zM203 0h-150v479h150v-479z" />
    <glyph glyph-name="j" unicode="j" horiz-adv-x="337" 
d="M303 609q0 -34 -25 -59t-59 -25q-35 0 -60 25t-25 59q0 35 25 60t60 25q34 0 59 -25t25 -60zM292 85q0 -106 -75 -180.5t-180 -74.5v49q59 0 88 107q20 73 20 155v337h146z" />
    <glyph glyph-name="k" unicode="k" horiz-adv-x="487" 
d="M466 0l-168 -1l-116 154v-153h-150v649h150v-382l205 211l79 1l-202 -219z" />
    <glyph glyph-name="l" unicode="l" horiz-adv-x="254" 
d="M205 0h-150v649h150v-649z" />
    <glyph glyph-name="m" unicode="m" horiz-adv-x="818" 
d="M776 233l-1 -233h-146v269q0 170 -75 170q-51 0 -66 -88q-5 -31 -5 -128l-1 -223h-146l-1 223q0 71 -11 126q-19 90 -63 90q-48 0 -63 -95q-7 -41 -7 -132v-212h-150v479h150v-24q62 33 101 33q47 0 74 -19q14 -9 53 -55q45 40 62 50q32 18 76 18q103 0 163 -75
q56 -69 56 -174z" />
    <glyph glyph-name="n" unicode="n" horiz-adv-x="611" 
d="M567 233l-1 -233h-146v217q0 73 -23 136q-32 86 -91 86q-52 0 -85 -91q-26 -72 -26 -136v-212h-150v479h150v-24q64 33 141 33q105 0 170 -76q61 -72 61 -179z" />
    <glyph glyph-name="o" unicode="o" horiz-adv-x="589" 
d="M550 233q0 -105 -75 -180t-180 -75q-106 0 -180.5 75t-74.5 180t74.5 180t180.5 75q105 0 180 -75t75 -180zM449 175q0 64 -45 109t-109 45t-109 -45t-45 -109t45 -109t109 -45t109 45t45 109z" />
    <glyph glyph-name="p" unicode="p" horiz-adv-x="632" 
d="M593 233q0 -105 -74.5 -180t-180.5 -75q-86 0 -155 52v-193h-150v649h150v-50q69 52 155 52q106 0 180.5 -75t74.5 -180zM492 175q0 64 -45 109t-109 45t-109 -45t-45 -109t45 -109t109 -45t109 45t45 109z" />
    <glyph glyph-name="q" unicode="q" horiz-adv-x="644" 
d="M596 -163h-150v193q-69 -52 -155 -52q-106 0 -180.5 75t-74.5 180t74.5 180t180.5 75q86 0 155 -52v50h150v-649zM445 175q0 64 -45.5 109t-108.5 45q-64 0 -109 -45t-45 -109t45 -109t109 -45q63 0 108.5 45t45.5 109z" />
    <glyph glyph-name="r" unicode="r" 
d="M287 329q-65 0 -124 -43q-64 -46 -64 -109v-177h-66l-1 233q0 106 75 180.5t180 74.5v-159z" />
    <glyph glyph-name="s" unicode="s" horiz-adv-x="447" 
d="M155 -23q-57 0 -110 23l17 36q29 -13 59 -13q47 0 88 28q38 26 60 68q4 7 4 11q0 7 -40 22l-48 16q-27 11 -65 25q-50 17 -63 25q-33 20 -33 53q0 28 21 78q31 72 95 113.5t143 41.5q57 0 110 -23l-14 -36q-31 12 -64 12q-48 0 -87.5 -25.5t-56.5 -70.5q-2 -6 -2 -10
q0 -6 38 -21q23 -9 46 -17q29 -12 65 -25q51 -19 63 -26q34 -20 34 -52q0 -28 -22 -78q-30 -72 -94.5 -113.5t-143.5 -41.5z" />
    <glyph glyph-name="t" unicode="t" horiz-adv-x="413" 
d="M383 433h-110v-433h-150v433h-90v46h90v120h150v-119h110v-47z" />
    <glyph glyph-name="u" unicode="u" horiz-adv-x="588" 
d="M540 241q0 -106 -74.5 -180.5t-179.5 -74.5q-102 0 -175.5 76t-73.5 179l1 233h146v-217q0 -77 18 -135q27 -87 87 -87q59 0 86 87q18 58 18 135v217h146z" />
    <glyph glyph-name="v" unicode="v" horiz-adv-x="611" 
d="M580 486l-192 -486h-168l-192 486l167 1l159 -422l159 422z" />
    <glyph glyph-name="w" unicode="w" horiz-adv-x="779" 
d="M750 486l-113 -486h-168l-88 400l-98 -400h-168l-83 486l168 1l49 -402l98 401l168 1l88 -402l79 402z" />
    <glyph glyph-name="x" unicode="x" horiz-adv-x="588" 
d="M564 0l-167 -1l-131 178l-167 -178l-67 1l199 219l-200 258l167 1l129 -176l169 176l67 -1l-201 -217z" />
    <glyph glyph-name="y" unicode="y" horiz-adv-x="609" 
d="M580 486l-260 -668l-67 1l71 181h-104l-192 486l167 1l157 -417l161 417z" />
    <glyph glyph-name="z" unicode="z" horiz-adv-x="508" 
d="M476 485l-1 -55l-254 -372h253v-58h-435v54l260 376h-260v56z" />
    <glyph glyph-name="braceleft" unicode="{" horiz-adv-x="281" 
d="M254 510h-144v-569l143 1v-77h-220l1 721l218 -1z" />
    <glyph glyph-name="bar" unicode="|" horiz-adv-x="212" 
d="M160 635v-780h-77l1 780h76z" />
    <glyph glyph-name="braceright" unicode="}" horiz-adv-x="317" 
d="M266 -135h-219v77l142 -1v569h-143v77l220 -1v-721z" />
    <glyph glyph-name="asciitilde" unicode="~" horiz-adv-x="579" 
d="M518 637q13 -29 13 -61q0 -62 -44 -106t-106 -44t-99 37q-25 34 -50 69q-28 37 -71 37q-37 0 -63.5 -27t-26.5 -64q0 -19 8 -37l-23 -10q-13 29 -13 61q0 62 44 106t105 44q63 0 99 -37q25 -34 50 -69q29 -37 71 -37q38 0 64.5 27t26.5 64q0 19 -8 37z" />
    <glyph glyph-name="dieresis" unicode="&#xa8;" horiz-adv-x="380" 
d="M408 753q0 -35 -25 -59.5t-60 -24.5q-34 0 -59 24.5t-25 59.5t25 59.5t59 24.5q35 0 60 -24.5t25 -59.5zM168 753q0 -35 -25 -59.5t-60 -24.5q-34 0 -59 24.5t-25 59.5t25 59.5t59 24.5q35 0 60 -24.5t25 -59.5z" />
    <glyph glyph-name="acute" unicode="&#xb4;" horiz-adv-x="196" 
d="M210 843l-138 -179h-76l138 179h76z" />
    <glyph glyph-name="cedilla" unicode="&#xb8;" horiz-adv-x="131" 
d="M140 -126q0 -40 -45 -60q-34 -15 -80 -15q-11 0 -21 1v45q19 -6 37 -6q54 0 54 32q0 35 -83 34v95h48v-55q31 -4 58 -22q32 -21 32 -49z" />
    <glyph glyph-name="Agrave" unicode="&#xc0;" horiz-adv-x="624" 
d="M589 0h-167l-54 166h-209l-52 -166h-71l192 596h168zM353 212l-91 279l-88 -278zM362 664h-77l-137 179h76z" />
    <glyph glyph-name="Aacute" unicode="&#xc1;" horiz-adv-x="625" 
d="M590 0h-167l-54 166h-209l-52 -166h-71l192 596h168zM354 212l-91 279l-88 -278zM431 843l-138 -179h-76l138 179h76z" />
    <glyph glyph-name="Acircumflex" unicode="&#xc2;" horiz-adv-x="620" 
d="M588 0h-167l-54 166h-209l-52 -166h-71l192 596h168zM352 212l-91 279l-88 -278zM434 707l-55 -1l-113 148l-105 -148l-64 1l133 193h64z" />
    <glyph glyph-name="Atilde" unicode="&#xc3;" horiz-adv-x="621" 
d="M589 0h-167l-54 166h-209l-52 -166h-71l192 596h168zM353 212l-91 279l-88 -278zM479 887q11 -25 11 -52q0 -53 -37.5 -90.5t-90.5 -37.5q-52 0 -84 31q-22 30 -44 59q-25 32 -61 32q-31 0 -54 -23t-23 -55q0 -16 7 -31l-20 -9q-11 25 -11 52q0 53 37.5 91t90.5 38
q52 0 84 -32q22 -30 44 -59q25 -32 60 -32q32 0 55 23t23 55q0 16 -7 31z" />
    <glyph glyph-name="Adieresis" unicode="&#xc4;" horiz-adv-x="623" 
d="M591 0h-167l-54 166h-209l-52 -166h-71l192 596h168zM355 212l-91 279l-88 -278zM493 753q0 -35 -25 -59.5t-60 -24.5q-34 0 -59 24.5t-25 59.5t25 59.5t59 24.5q35 0 60 -24.5t25 -59.5zM253 753q0 -35 -25 -59.5t-60 -24.5q-34 0 -59 24.5t-25 59.5t25 59.5t59 24.5
q35 0 60 -24.5t25 -59.5z" />
    <glyph glyph-name="Aring" unicode="&#xc5;" horiz-adv-x="627" 
d="M591 0h-167l-54 166h-209l-52 -166h-71l192 596h168zM355 212l-91 279l-88 -278zM383 711q0 -43 -30.5 -73.5t-73.5 -30.5t-73.5 30.5t-30.5 73.5t30.5 73.5t73.5 30.5t73.5 -30.5t30.5 -73.5zM339 710q0 25 -17.5 43t-42.5 18t-42.5 -18t-17.5 -43q0 -24 17.5 -42
t42.5 -18t42.5 18t17.5 42z" />
    <glyph glyph-name="AE" unicode="&#xc6;" horiz-adv-x="824" 
d="M802 0h-387v166h-208l-107 -166h-71l386 605l387 1v-47h-218l-1 -195l219 1v-47h-219v-271h219v-47zM415 212v277l-178 -276z" />
    <glyph glyph-name="Ccedilla" unicode="&#xc7;" horiz-adv-x="376" 
d="M357 -126q0 -40 -45 -60q-34 -15 -80 -15q-11 0 -21 1v45q19 -6 37 -6q54 0 54 32q0 35 -83 34v95h11q-93 35 -149.5 116.5t-56.5 181.5q0 131 93 224t224 93l-1 -210q-78 0 -133.5 -55.5t-55.5 -133.5t55.5 -133.5t133.5 -55.5l1 -47q-37 0 -74 9v-44q31 -4 58 -22
q32 -21 32 -49z" />
    <glyph glyph-name="Egrave" unicode="&#xc8;" horiz-adv-x="430" 
d="M414 0h-387v605l387 1v-47h-219v-195l219 1v-47h-219v-271h219v-47zM361 664h-77l-137 179h76z" />
    <glyph glyph-name="Eacute" unicode="&#xc9;" horiz-adv-x="410" 
d="M394 0h-387v605l387 1v-47h-219v-195l219 1v-47h-219v-271h219v-47zM409 843l-138 -179h-76l138 179h76z" />
    <glyph glyph-name="Ecircumflex" unicode="&#xca;" horiz-adv-x="423" 
d="M407 0h-387v605l387 1v-47h-219v-195l219 1v-47h-219v-271h219v-47zM387 707l-55 -1l-113 148l-105 -148l-64 1l133 193h64z" />
    <glyph glyph-name="Edieresis" unicode="&#xcb;" horiz-adv-x="403" 
d="M387 0h-387v605l387 1v-47h-219v-195l219 1v-47h-219v-271h219v-47zM403 753q0 -35 -25 -59.5t-60 -24.5q-34 0 -59 24.5t-25 59.5t25 59.5t59 24.5q35 0 60 -24.5t25 -59.5zM163 753q0 -35 -25 -59.5t-60 -24.5q-34 0 -59 24.5t-25 59.5t25 59.5t59 24.5q35 0 60 -24.5
t25 -59.5z" />
    <glyph glyph-name="Igrave" unicode="&#xcc;" horiz-adv-x="263" 
d="M211 0h-168v605l168 1v-606zM229 664h-77l-137 179h76z" />
    <glyph glyph-name="Iacute" unicode="&#xcd;" horiz-adv-x="232" 
d="M180 0h-168v605l168 1v-606zM246 843l-138 -179h-76l138 179h76z" />
    <glyph glyph-name="Icircumflex" unicode="&#xce;" horiz-adv-x="288" 
d="M217 0h-168v605l168 1v-606zM308 707l-55 -1l-113 148l-105 -148l-64 1l133 193h64z" />
    <glyph glyph-name="Idieresis" unicode="&#xcf;" horiz-adv-x="320" 
d="M246 0h-168v605l168 1v-606zM343 753q0 -35 -25 -59.5t-60 -24.5q-34 0 -59 24.5t-25 59.5t25 59.5t59 24.5q35 0 60 -24.5t25 -59.5zM103 753q0 -35 -25 -59.5t-60 -24.5q-34 0 -59 24.5t-25 59.5t25 59.5t59 24.5q35 0 60 -24.5t25 -59.5z" />
    <glyph glyph-name="Eth" unicode="&#xd0;" horiz-adv-x="605" 
d="M566 298q0 -131 -92 -214.5t-223 -83.5h-168v210h-43v76h43v319l168 1v-1q131 -1 223 -89t92 -218zM439 216q0 78 -55 133.5t-133 55.5v-118h49v-77h-49v-163q78 0 133 46t55 123z" />
    <glyph glyph-name="Ntilde" unicode="&#xd1;" horiz-adv-x="562" 
d="M511 0h-156l-234 482v-483h-58v605h164l238 -489v490h46v-605zM457 887q11 -25 11 -52q0 -53 -37.5 -90.5t-90.5 -37.5q-52 0 -84 31q-22 30 -44 59q-25 32 -61 32q-31 0 -54 -23t-23 -55q0 -16 7 -31l-20 -9q-11 25 -11 52q0 53 37.5 91t90.5 38q52 0 84 -32
q22 -30 44 -59q25 -32 60 -32q32 0 55 23t23 55q0 16 -7 31z" />
    <glyph glyph-name="Ograve" unicode="&#xd2;" horiz-adv-x="729" 
d="M684 298q0 -132 -93 -225t-224 -93t-224.5 93t-93.5 225q0 131 93.5 224t224.5 93t224 -93t93 -224zM555 216q0 78 -55.5 133.5t-134.5 55.5q-78 0 -133.5 -55.5t-55.5 -133.5t55.5 -133.5t133.5 -55.5q79 0 134.5 55.5t55.5 133.5zM368 664h-77l-137 179h76z" />
    <glyph glyph-name="Oacute" unicode="&#xd3;" horiz-adv-x="732" 
d="M688 298q0 -132 -93 -225t-224 -93t-224.5 93t-93.5 225q0 131 93.5 224t224.5 93t224 -93t93 -224zM559 216q0 78 -55.5 133.5t-134.5 55.5q-78 0 -133.5 -55.5t-55.5 -133.5t55.5 -133.5t133.5 -55.5q79 0 134.5 55.5t55.5 133.5zM440 843l-138 -179h-76l138 179h76z
" />
    <glyph glyph-name="Ocircumflex" unicode="&#xd4;" horiz-adv-x="728" 
d="M684 298q0 -132 -93 -225t-224 -93t-224.5 93t-93.5 225q0 131 93.5 224t224.5 93t224 -93t93 -224zM555 216q0 78 -55.5 133.5t-134.5 55.5q-78 0 -133.5 -55.5t-55.5 -133.5t55.5 -133.5t133.5 -55.5q79 0 134.5 55.5t55.5 133.5zM501 707l-55 -1l-113 148l-105 -148
l-64 1l133 193h64z" />
    <glyph glyph-name="Otilde" unicode="&#xd5;" horiz-adv-x="730" 
d="M686 298q0 -132 -93 -225t-224 -93t-224.5 93t-93.5 225q0 131 93.5 224t224.5 93t224 -93t93 -224zM557 216q0 78 -55.5 133.5t-134.5 55.5q-78 0 -133.5 -55.5t-55.5 -133.5t55.5 -133.5t133.5 -55.5q79 0 134.5 55.5t55.5 133.5zM537 887q11 -25 11 -52
q0 -53 -37.5 -90.5t-90.5 -37.5q-52 0 -84 31q-22 30 -44 59q-25 32 -61 32q-31 0 -54 -23t-23 -55q0 -16 7 -31l-20 -9q-11 25 -11 52q0 53 37.5 91t90.5 38q52 0 84 -32q22 -30 44 -59q25 -32 60 -32q32 0 55 23t23 55q0 16 -7 31z" />
    <glyph glyph-name="Odieresis" unicode="&#xd6;" horiz-adv-x="727" 
d="M683 298q0 -132 -93 -225t-224 -93t-224.5 93t-93.5 225q0 131 93.5 224t224.5 93t224 -93t93 -224zM554 216q0 78 -55.5 133.5t-134.5 55.5q-78 0 -133.5 -55.5t-55.5 -133.5t55.5 -133.5t133.5 -55.5q79 0 134.5 55.5t55.5 133.5zM536 753q0 -35 -25 -59.5t-60 -24.5
q-34 0 -59 24.5t-25 59.5t25 59.5t59 24.5q35 0 60 -24.5t25 -59.5zM296 753q0 -35 -25 -59.5t-60 -24.5q-34 0 -59 24.5t-25 59.5t25 59.5t59 24.5q35 0 60 -24.5t25 -59.5z" />
    <glyph glyph-name="Oslash" unicode="&#xd8;" horiz-adv-x="718" 
d="M676 298q0 -132 -93.5 -225t-224.5 -93q-81 0 -152 39l-79 -119h-77l104 155q-113 95 -113 243q0 131 93 224t224 93q78 0 147 -36l53 79h77l-77 -114q118 -95 118 -246zM546 216q0 51 -26 95.5t-71 69.5l-210 -313q52 -41 118 -41q78 0 133.5 55.5t55.5 133.5zM387 403
q-15 2 -30 2q-79 0 -134.5 -55.5t-55.5 -133.5q0 -53 28 -99z" />
    <glyph glyph-name="Ugrave" unicode="&#xd9;" horiz-adv-x="661" 
d="M613 298q0 -134 -71 -222q-77 -96 -207 -96t-206 96q-71 88 -71 222v299h168l1 -381q0 -68 20 -119q29 -70 87 -70t86 70q21 51 21 119l1 384h171v-302zM378 664h-77l-137 179h76z" />
    <glyph glyph-name="Uacute" unicode="&#xda;" horiz-adv-x="659" 
d="M612 298q0 -134 -71 -222q-77 -96 -207 -96t-206 96q-71 88 -71 222v299h168l1 -381q0 -68 20 -119q29 -70 87 -70t86 70q21 51 21 119l1 384h171v-302zM445 843l-138 -179h-76l138 179h76z" />
    <glyph glyph-name="Ucircumflex" unicode="&#xdb;" horiz-adv-x="663" 
d="M616 298q0 -134 -71 -222q-77 -96 -207 -96t-206 96q-71 88 -71 222v299h168l1 -381q0 -68 20 -119q29 -70 87 -70t86 70q21 51 21 119l1 384h171v-302zM454 707l-55 -1l-113 148l-105 -148l-64 1l133 193h64z" />
    <glyph glyph-name="Udieresis" unicode="&#xdc;" horiz-adv-x="658" 
d="M610 298q0 -134 -71 -222q-77 -96 -207 -96t-206 96q-71 88 -71 222v299h168l1 -381q0 -68 20 -119q29 -70 87 -70t86 70q21 51 21 119l1 384h171v-302zM504 753q0 -35 -25 -59.5t-60 -24.5q-34 0 -59 24.5t-25 59.5t25 59.5t59 24.5q35 0 60 -24.5t25 -59.5zM264 753
q0 -35 -25 -59.5t-60 -24.5q-34 0 -59 24.5t-25 59.5t25 59.5t59 24.5q35 0 60 -24.5t25 -59.5z" />
    <glyph glyph-name="Yacute" unicode="&#xdd;" horiz-adv-x="614" 
d="M584 605l-190 -399v-206h-168v199l-195 406h167l159 -341l159 341h68zM427 843l-138 -179h-76l138 179h76z" />
    <glyph glyph-name="Thorn" unicode="&#xde;" horiz-adv-x="553" 
d="M515 308q0 -130 -96 -202q-86 -66 -219 -66l-3 -40h-165v606h168v-41q134 -1 219 -61q96 -68 96 -196zM388 226q0 139 -188 139v-278q188 0 188 139z" />
    <glyph glyph-name="agrave" unicode="&#xe0;" horiz-adv-x="652" 
d="M613 0h-150v27q-67 -49 -151 -49q-105 0 -180 75t-75 180t75 180t180 75q84 0 151 -49v40h150v-479zM463 145v60q0 7 -8 28q-17 43 -56.5 69.5t-86.5 26.5q-63 0 -108.5 -45t-45.5 -109t45.5 -109t108.5 -45q47 0 86.5 26.5t56.5 69.5q8 21 8 28zM408 550h-77l-137 179
h76z" />
    <glyph glyph-name="aacute" unicode="&#xe1;" horiz-adv-x="645" 
d="M608 0h-150v27q-67 -49 -151 -49q-105 0 -180 75t-75 180t75 180t180 75q84 0 151 -49v40h150v-479zM458 145v60q0 7 -8 28q-17 43 -56.5 69.5t-86.5 26.5q-63 0 -108.5 -45t-45.5 -109t45.5 -109t108.5 -45q47 0 86.5 26.5t56.5 69.5q8 21 8 28zM431 729l-138 -179h-76
l138 179h76z" />
    <glyph glyph-name="acircumflex" unicode="&#xe2;" horiz-adv-x="652" 
d="M614 0h-150v27q-67 -49 -151 -49q-105 0 -180 75t-75 180t75 180t180 75q84 0 151 -49v40h150v-479zM464 145v60q0 7 -8 28q-17 43 -56.5 69.5t-86.5 26.5q-63 0 -108.5 -45t-45.5 -109t45.5 -109t108.5 -45q47 0 86.5 26.5t56.5 69.5q8 21 8 28zM472 563l-55 -1
l-113 148l-105 -148l-64 1l133 193h64z" />
    <glyph glyph-name="atilde" unicode="&#xe3;" horiz-adv-x="658" 
d="M613 0h-150v27q-67 -49 -151 -49q-105 0 -180 75t-75 180t75 180t180 75q84 0 151 -49v40h150v-479zM463 145v60q0 7 -8 28q-17 43 -56.5 69.5t-86.5 26.5q-63 0 -108.5 -45t-45.5 -109t45.5 -109t108.5 -45q47 0 86.5 26.5t56.5 69.5q8 21 8 28zM495 723q11 -25 11 -52
q0 -53 -37.5 -90.5t-90.5 -37.5q-52 0 -84 31q-22 30 -44 59q-25 32 -61 32q-31 0 -54 -23t-23 -55q0 -16 7 -31l-20 -9q-11 25 -11 52q0 53 37.5 91t90.5 38q52 0 84 -32q22 -30 44 -59q25 -32 60 -32q32 0 55 23t23 55q0 16 -7 31z" />
    <glyph glyph-name="adieresis" unicode="&#xe4;" horiz-adv-x="657" 
d="M614 0h-150v27q-67 -49 -151 -49q-105 0 -180 75t-75 180t75 180t180 75q84 0 151 -49v40h150v-479zM464 145v60q0 7 -8 28q-17 43 -56.5 69.5t-86.5 26.5q-63 0 -108.5 -45t-45.5 -109t45.5 -109t108.5 -45q47 0 86.5 26.5t56.5 69.5q8 21 8 28zM528 639
q0 -35 -25 -59.5t-60 -24.5q-34 0 -59 24.5t-25 59.5t25 59.5t59 24.5q35 0 60 -24.5t25 -59.5zM288 639q0 -35 -25 -59.5t-60 -24.5q-34 0 -59 24.5t-25 59.5t25 59.5t59 24.5q35 0 60 -24.5t25 -59.5z" />
    <glyph glyph-name="aring" unicode="&#xe5;" horiz-adv-x="671" 
d="M625 0h-150v27q-67 -49 -151 -49q-105 0 -180 75t-75 180t75 180t180 75q84 0 151 -49v40h150v-479zM475 145v60q0 7 -8 28q-17 43 -56.5 69.5t-86.5 26.5q-63 0 -108.5 -45t-45.5 -109t45.5 -109t108.5 -45q47 0 86.5 26.5t56.5 69.5q8 21 8 28zM399 603
q0 -43 -30.5 -73.5t-73.5 -30.5t-73.5 30.5t-30.5 73.5t30.5 73.5t73.5 30.5t73.5 -30.5t30.5 -73.5zM355 602q0 25 -17.5 43t-42.5 18t-42.5 -18t-17.5 -43q0 -24 17.5 -42t42.5 -18t42.5 18t17.5 42z" />
    <glyph glyph-name="ae" unicode="&#xe6;" horiz-adv-x="1015" 
d="M988 174h-403v-38q0 -8 12 -32q20 -38 57 -60.5t80 -22.5v-43q-83 0 -149 48v-26h-150v27q-67 -49 -151 -49q-106 0 -180.5 75t-74.5 180t74.5 180t180.5 75q84 0 151 -49v40h150v-39q66 48 149 48q104 0 179.5 -73.5t75.5 -177.5q0 -2 -1 -63zM882 216
q-14 50 -55.5 81.5t-92.5 31.5q-52 0 -93.5 -31.5t-55.5 -81.5h297zM435 145v60q0 7 -8 28q-18 43 -57 69.5t-86 26.5q-64 0 -109 -45t-45 -109t45 -109t109 -45q47 0 86 26.5t57 69.5q8 21 8 28z" />
    <glyph glyph-name="ccedilla" unicode="&#xe7;" horiz-adv-x="320" 
d="M306 -126q0 -40 -45 -60q-34 -15 -80 -15q-11 0 -21 1v45q19 -6 37 -6q54 0 54 32q0 35 -83 34v95h1q-69 31 -110 94.5t-41 138.5q0 105 74.5 180t180.5 75v-159q-64 0 -109 -45t-45 -109t45 -109t109 -45v-43q-29 0 -57 6v-39q31 -4 58 -22q32 -21 32 -49z" />
    <glyph glyph-name="egrave" unicode="&#xe8;" horiz-adv-x="555" 
d="M535 174h-408q1 -63 46 -108t108 -45v-43q-105 0 -180 75t-75 180t75 180t180 75t180 -73.5t75 -177.5q0 -2 -1 -63zM430 216q-14 50 -55.5 81.5t-93.5 31.5t-93.5 -31.5t-54.5 -81.5h297zM385 540h-77l-137 179h76z" />
    <glyph glyph-name="eacute" unicode="&#xe9;" horiz-adv-x="553" 
d="M535 174h-408q1 -63 46 -108t108 -45v-43q-105 0 -180 75t-75 180t75 180t180 75t180 -73.5t75 -177.5q0 -2 -1 -63zM430 216q-14 50 -55.5 81.5t-93.5 31.5t-93.5 -31.5t-54.5 -81.5h297zM423 729l-138 -179h-76l138 179h76z" />
    <glyph glyph-name="ecircumflex" unicode="&#xea;" horiz-adv-x="517" 
d="M496 174h-408q1 -63 46 -108t108 -45v-43q-105 0 -180 75t-75 180t75 180t180 75t180 -73.5t75 -177.5q0 -2 -1 -63zM391 216q-14 50 -55.5 81.5t-93.5 31.5t-93.5 -31.5t-54.5 -81.5h297zM399 543l-55 -1l-113 148l-105 -148l-64 1l133 193h64z" />
    <glyph glyph-name="edieresis" unicode="&#xeb;" horiz-adv-x="558" 
d="M537 174h-408q1 -63 46 -108t108 -45v-43q-105 0 -180 75t-75 180t75 180t180 75t180 -73.5t75 -177.5q0 -2 -1 -63zM432 216q-14 50 -55.5 81.5t-93.5 31.5t-93.5 -31.5t-54.5 -81.5h297zM496 629q0 -35 -25 -59.5t-60 -24.5q-34 0 -59 24.5t-25 59.5t25 59.5t59 24.5
q35 0 60 -24.5t25 -59.5zM256 629q0 -35 -25 -59.5t-60 -24.5q-34 0 -59 24.5t-25 59.5t25 59.5t59 24.5q35 0 60 -24.5t25 -59.5z" />
    <glyph glyph-name="igrave" unicode="&#xec;" horiz-adv-x="276" 
d="M219 0h-150v479h150v-479zM233 530h-77l-137 179h76z" />
    <glyph glyph-name="iacute" unicode="&#xed;" horiz-adv-x="226" 
d="M179 0h-150v479h150v-479zM221 719l-138 -179h-76l138 179h76z" />
    <glyph glyph-name="icircumflex" unicode="&#xee;" horiz-adv-x="279" 
d="M218 0h-150v479h150v-479zM275 543l-55 -1l-113 148l-105 -148l-64 1l133 193h64z" />
    <glyph glyph-name="idieresis" unicode="&#xef;" horiz-adv-x="337" 
d="M249 0h-150v479h150v-479zM362 589q0 -35 -25 -59.5t-60 -24.5q-34 0 -59 24.5t-25 59.5t25 59.5t59 24.5q35 0 60 -24.5t25 -59.5zM122 589q0 -35 -25 -59.5t-60 -24.5q-34 0 -59 24.5t-25 59.5t25 59.5t59 24.5q35 0 60 -24.5t25 -59.5z" />
    <glyph glyph-name="ntilde" unicode="&#xf1;" horiz-adv-x="607" 
d="M568 233l-1 -233h-146v217q0 73 -23 136q-32 86 -91 86q-52 0 -85 -91q-26 -72 -26 -136v-212h-150v479h150v-24q64 33 141 33q105 0 170 -76q61 -72 61 -179zM479 723q11 -25 11 -52q0 -53 -37.5 -90.5t-90.5 -37.5q-52 0 -84 31q-22 30 -44 59q-25 32 -61 32
q-31 0 -54 -23t-23 -55q0 -16 7 -31l-20 -9q-11 25 -11 52q0 53 37.5 91t90.5 38q52 0 84 -32q22 -30 44 -59q25 -32 60 -32q32 0 55 23t23 55q0 16 -7 31z" />
    <glyph glyph-name="ograve" unicode="&#xf2;" horiz-adv-x="585" 
d="M556 233q0 -105 -75 -180t-180 -75q-106 0 -180.5 75t-74.5 180t74.5 180t180.5 75q105 0 180 -75t75 -180zM455 175q0 64 -45 109t-109 45t-109 -45t-45 -109t45 -109t109 -45t109 45t45 109zM387 550h-77l-137 179h76z" />
    <glyph glyph-name="oacute" unicode="&#xf3;" horiz-adv-x="587" 
d="M554 233q0 -105 -75 -180t-180 -75q-106 0 -180.5 75t-74.5 180t74.5 180t180.5 75q105 0 180 -75t75 -180zM453 175q0 64 -45 109t-109 45t-109 -45t-45 -109t45 -109t109 -45t109 45t45 109zM433 719l-138 -179h-76l138 179h76z" />
    <glyph glyph-name="ocircumflex" unicode="&#xf4;" horiz-adv-x="591" 
d="M555 233q0 -105 -75 -180t-180 -75q-106 0 -180.5 75t-74.5 180t74.5 180t180.5 75q105 0 180 -75t75 -180zM454 175q0 64 -45 109t-109 45t-109 -45t-45 -109t45 -109t109 -45t109 45t45 109zM439 543l-55 -1l-113 148l-105 -148l-64 1l133 193h64z" />
    <glyph glyph-name="otilde" unicode="&#xf5;" horiz-adv-x="594" 
d="M558 233q0 -105 -75 -180t-180 -75q-106 0 -180.5 75t-74.5 180t74.5 180t180.5 75q105 0 180 -75t75 -180zM457 175q0 64 -45 109t-109 45t-109 -45t-45 -109t45 -109t109 -45t109 45t45 109zM456 723q11 -25 11 -52q0 -53 -37.5 -90.5t-90.5 -37.5q-52 0 -84 31
q-22 30 -44 59q-25 32 -61 32q-31 0 -54 -23t-23 -55q0 -16 7 -31l-20 -9q-11 25 -11 52q0 53 37.5 91t90.5 38q52 0 84 -32q22 -30 44 -59q25 -32 60 -32q32 0 55 23t23 55q0 16 -7 31z" />
    <glyph glyph-name="odieresis" unicode="&#xf6;" horiz-adv-x="595" 
d="M559 233q0 -105 -75 -180t-180 -75q-106 0 -180.5 75t-74.5 180t74.5 180t180.5 75q105 0 180 -75t75 -180zM458 175q0 64 -45 109t-109 45t-109 -45t-45 -109t45 -109t109 -45t109 45t45 109zM479 629q0 -35 -25 -59.5t-60 -24.5q-34 0 -59 24.5t-25 59.5t25 59.5
t59 24.5q35 0 60 -24.5t25 -59.5zM239 629q0 -35 -25 -59.5t-60 -24.5q-34 0 -59 24.5t-25 59.5t25 59.5t59 24.5q35 0 60 -24.5t25 -59.5z" />
    <glyph glyph-name="oslash" unicode="&#xf8;" horiz-adv-x="593" 
d="M550 233q0 -105 -75 -180t-180 -75q-65 0 -122 31l-52 -89h-77l75 128q-79 75 -79 185q0 105 74.5 180t180.5 75q40 0 78 -12l53 92h77l-70 -121q54 -35 85.5 -92t31.5 -122zM449 175q0 46 -25.5 84.5t-68.5 57.5l-155 -263q41 -33 95 -33q63 0 108.5 45t45.5 109z
M286 329q-61 -4 -103 -48.5t-42 -105.5q0 -35 15 -66z" />
    <glyph glyph-name="ugrave" unicode="&#xf9;" horiz-adv-x="598" 
d="M560 241q0 -106 -74.5 -180.5t-179.5 -74.5q-102 0 -175.5 76t-73.5 179l1 233h146v-217q0 -77 18 -135q27 -87 87 -87q59 0 86 87q18 58 18 135v217h146zM400 550h-77l-137 179h76z" />
    <glyph glyph-name="uacute" unicode="&#xfa;" horiz-adv-x="595" 
d="M558 241q0 -106 -74.5 -180.5t-179.5 -74.5q-102 0 -175.5 76t-73.5 179l1 233h146v-217q0 -77 18 -135q27 -87 87 -87q59 0 86 87q18 58 18 135v217h146zM436 729l-138 -179h-76l138 179h76z" />
    <glyph glyph-name="ucircumflex" unicode="&#xfb;" horiz-adv-x="596" 
d="M556 241q0 -106 -74.5 -180.5t-179.5 -74.5q-102 0 -175.5 76t-73.5 179l1 233h146v-217q0 -77 18 -135q27 -87 87 -87q59 0 86 87q18 58 18 135v217h146zM449 543l-55 -1l-113 148l-105 -148l-64 1l133 193h64z" />
    <glyph glyph-name="udieresis" unicode="&#xfc;" horiz-adv-x="608" 
d="M562 241q0 -106 -74.5 -180.5t-179.5 -74.5q-102 0 -175.5 76t-73.5 179l1 233h146v-217q0 -77 18 -135q27 -87 87 -87q59 0 86 87q18 58 18 135v217h146zM471 589q0 -35 -25 -59.5t-60 -24.5q-34 0 -59 24.5t-25 59.5t25 59.5t59 24.5q35 0 60 -24.5t25 -59.5zM231 589
q0 -35 -25 -59.5t-60 -24.5q-34 0 -59 24.5t-25 59.5t25 59.5t59 24.5q35 0 60 -24.5t25 -59.5z" />
    <glyph glyph-name="yacute" unicode="&#xfd;" horiz-adv-x="620" 
d="M591 486l-260 -668l-67 1l71 181h-104l-192 486l167 1l157 -417l161 417zM460 729l-138 -179h-76l138 179h76z" />
    <glyph glyph-name="thorn" unicode="&#xfe;" horiz-adv-x="617" 
d="M587 233q0 -105 -74.5 -180t-180.5 -75q-86 0 -155 52v-193h-150v769h150v-170q69 52 155 52q106 0 180.5 -75t74.5 -180zM486 175q0 64 -45 109t-109 45q-63 0 -108.5 -45t-45.5 -109t45.5 -109t108.5 -45q64 0 109 45t45 109z" />
    <glyph glyph-name="ydieresis" unicode="&#xff;" horiz-adv-x="620" 
d="M594 486l-260 -668l-67 1l71 181h-104l-192 486l167 1l157 -417l161 417zM504 639q0 -35 -25 -59.5t-60 -24.5q-34 0 -59 24.5t-25 59.5t25 59.5t59 24.5q35 0 60 -24.5t25 -59.5zM264 639q0 -35 -25 -59.5t-60 -24.5q-34 0 -59 24.5t-25 59.5t25 59.5t59 24.5
q35 0 60 -24.5t25 -59.5z" />
    <glyph glyph-name="dotlessi" unicode="&#x131;" horiz-adv-x="260" 
d="M208 0h-150v479h150v-479z" />
    <glyph glyph-name="circumflex" unicode="&#x2c6;" 
d="M338 707l-55 -1l-113 148l-105 -148l-64 1l133 193h64z" />
    <glyph glyph-name="caron" unicode="&#x2c7;" 
d="M338 893l-132 -193h-64l-141 193l56 1l113 -148l105 148z" />
    <glyph glyph-name="ring" unicode="&#x2da;" horiz-adv-x="210" 
d="M225 802q0 -43 -30.5 -73.5t-73.5 -30.5t-73.5 30.5t-30.5 73.5t30.5 73.5t73.5 30.5t73.5 -30.5t30.5 -73.5zM181 801q0 25 -17.5 43t-42.5 18t-42.5 -18t-17.5 -43q0 -24 17.5 -42t42.5 -18t42.5 18t17.5 42z" />
    <glyph glyph-name="tilde" unicode="&#x2dc;" horiz-adv-x="387" 
d="M403 887q11 -25 11 -52q0 -53 -37.5 -90.5t-90.5 -37.5q-52 0 -84 31q-22 30 -44 59q-25 32 -61 32q-31 0 -54 -23t-23 -55q0 -16 7 -31l-20 -9q-11 25 -11 52q0 53 37.5 91t90.5 38q52 0 84 -32q22 -30 44 -59q25 -32 60 -32q32 0 55 23t23 55q0 16 -7 31z" />
    <glyph glyph-name="endash" unicode="&#x2013;" horiz-adv-x="549" 
d="M494 209l-447 1v76h447v-77z" />
    <glyph glyph-name="emdash" unicode="&#x2014;" horiz-adv-x="742" 
d="M687 211l-639 -1v76l639 2v-77z" />
    <glyph glyph-name="quoteleft" unicode="&#x2018;" horiz-adv-x="271" 
d="M244 639l-114 -304h-100l86 304h128z" />
    <glyph glyph-name="quoteright" unicode="&#x2019;" horiz-adv-x="269" 
d="M243 639l-114 -304h-100l86 304h128z" />
    <glyph glyph-name="quotedblleft" unicode="&#x201c;" horiz-adv-x="433" 
d="M407 639l-114 -304h-100l86 304h128zM244 639l-114 -304h-100l86 304h128z" />
    <glyph glyph-name="quotedblright" unicode="&#x201d;" horiz-adv-x="433" 
d="M407 639l-114 -304h-100l86 304h128zM244 639l-114 -304h-100l86 304h128z" />
    <glyph glyph-name="ellipsis" unicode="&#x2026;" horiz-adv-x="934" 
d="M885 80q0 -34 -25 -59t-59 -25q-35 0 -60 25t-25 59q0 35 25 60t60 25q34 0 59 -25t25 -60zM545 80q0 -34 -25 -59t-59 -25q-35 0 -60 25t-25 59q0 35 25 60t60 25q34 0 59 -25t25 -60zM215 80q0 -34 -25 -59t-59 -25q-35 0 -60 25t-25 59q0 35 25 60t60 25q34 0 59 -25
t25 -60z" />
    </font>
</defs>
</svg>
