<?xml version="1.0" standalone="no"?>
<!DOCTYPE svg PUBLIC "-//W3C//DTD SVG 1.1//EN" "http://www.w3.org/Graphics/SVG/1.1/DTD/svg11.dtd" >
<svg xmlns="http://www.w3.org/2000/svg" xmlns:xlink="http://www.w3.org/1999/xlink" version="1.1">
<metadata>
Created by FontForge 20170731 at Mon Jun  9 21:07:18 2014
 By Aleksey,,,
2013 Iconian Fonts - www.iconian.com
</metadata>
<defs>
<font id="SingaporeSlingBold" horiz-adv-x="778" >
  <font-face 
    font-family="Singapore Sling Bold"
    font-weight="400"
    font-stretch="normal"
    units-per-em="1000"
    panose-1="0 0 0 0 0 0 0 0 0 0"
    ascent="800"
    descent="-200"
    x-height="609"
    cap-height="609"
    bbox="-35 -179 1116 772"
    underline-thickness="50"
    underline-position="-175"
    unicode-range="U+0020-2122"
  />
<missing-glyph horiz-adv-x="500" 
 />
    <glyph glyph-name=".notdef" horiz-adv-x="500" 
 />
    <glyph glyph-name=".null" horiz-adv-x="0" 
 />
    <glyph glyph-name="nonmarkingreturn" horiz-adv-x="500" 
 />
    <glyph glyph-name="FL0020h" unicode=" " horiz-adv-x="470" 
 />
    <glyph glyph-name="FL0021h" unicode="!" horiz-adv-x="236" 
d="M56 128v-128h153v128h-153zM56 609v-427h153v427h-153z" />
    <glyph glyph-name="FL0022h" unicode="&#x22;" horiz-adv-x="411" 
d="M229 569h150v-140l-150 -94v234zM57 569h149v-140l-149 -94v234z" />
    <glyph glyph-name="FL0023h" unicode="#" horiz-adv-x="713" 
d="M680 468v-136h-101v-39h101v-136h-101v-157h-155v157h-109v-157h-155v157h-102v136h102v39h-102v136h102v141h155v-141h109v141h155v-141h101zM315 332v-39h109v39h-109z" />
    <glyph glyph-name="FL0024h" unicode="$" horiz-adv-x="646" 
d="M60 129h197v115h-31q-40 0 -72 15t-54.5 40.5t-34.5 58t-12 68.5q0 41 14.5 75.5t39.5 60t59 39.5t74 14h17v99h150v-99h204v-128h-204v-114h31q40 0 73 -15.5t57 -41t37 -59t13 -70.5q0 -30 -11 -63t-31 -60.5t-48.5 -45.5t-64.5 -18h-56v-99h-150v99h-197v129zM426 244
h-19v-115h19q17 0 32.5 18t15.5 38q0 22 -13 40.5t-35 18.5zM196 426q0 -9 3.5 -18t9 -17t12 -13t12.5 -5h24v114h-23q-18 0 -28 -20t-10 -41z" />
    <glyph glyph-name="FL0025h" unicode="%" horiz-adv-x="646" 
d="M457 -59q-36 0 -67 12.5t-54 35t-36.5 53t-14.5 66.5l-79 -108h-185l241 335q-20 -7 -47 -7q-36 0 -67 13t-54 36t-36.5 54.5t-13.5 68.5q0 36 13.5 67.5t36.5 55t54 37t67 13.5t66.5 -13t53 -35.5t36 -53t15.5 -65.5l78 107h185l-242 -334q12 3 24 5t26 2
q36 0 67.5 -13.5t54 -37t35.5 -55.5t13 -68t-13 -67.5t-36 -54.5t-54 -36t-67 -13zM176 499q0 -15 11.5 -26t26.5 -11t26 10t11 27q0 15 -10 26.5t-27 11.5q-15 0 -26.5 -11.5t-11.5 -26.5zM419 111q0 -14 11 -25t26 -11t26 9.5t11 26.5q0 16 -10 27.5t-27 11.5
q-15 0 -26 -11.5t-11 -27.5z" />
    <glyph glyph-name="FL0026h" unicode="&#x26;" horiz-adv-x="726" 
d="M187 437q0 -18 13 -32t34 -16h459v-131h-48q13 -25 13 -60q0 -37 -12 -72.5t-35.5 -63.5t-59 -45t-81.5 -17h-238q-47 0 -82 17t-58.5 45t-35.5 63.5t-12 72.5q0 35 11.5 60.5t33.5 55.5q-44 50 -44 123q0 37 13.5 69t38 54.5t59 35.5t76.5 13h273v-138h-273
q-20 0 -32.5 -10t-12.5 -24zM513 199q0 20 -12.5 38.5t-35.5 20.5h-228q-23 -2 -36.5 -20.5t-13.5 -38.5q0 -9 3 -19.5t9 -20t14 -15.5t19 -6h238q10 0 18 6t13.5 15.5t8.5 20t3 19.5z" />
    <glyph glyph-name="FL0027h" unicode="'" horiz-adv-x="218" 
d="M51 569h136v-140l-136 -94v234z" />
    <glyph glyph-name="FL0028h" unicode="(" horiz-adv-x="351" 
d="M42 304q0 -53 18 -107t53 -98t86.5 -71.5t118.5 -27.5v128q-27 0 -52 15t-45 40t-32 57t-12 65t14 65t35 56.5t46 39.5t47 15v128q-66 0 -117.5 -24t-87 -65t-54 -96.5t-18.5 -119.5z" />
    <glyph glyph-name="FL0029h" unicode=")" horiz-adv-x="351" 
d="M333 304q0 -53 -18 -107t-53 -98t-86.5 -71.5t-118.5 -27.5v128q26 0 51.5 15t45.5 40t32.5 57t12.5 65t-14.5 65t-36 56.5t-46.5 39.5t-46 15v128q66 0 117.5 -24t87 -65t54 -96.5t18.5 -119.5z" />
    <glyph glyph-name="asterisk" unicode="*" horiz-adv-x="312" 
d="M306 493l-66 -12l46 -47l-87 -66l-32 63l-34 -63l-86 66l46 48l-64 11l34 103l60 -31l-9 69h106l-8 -69l62 31z" />
    <glyph glyph-name="FL002Bh" unicode="+" horiz-adv-x="400" 
d="M276 463v-89h91v-132h-91v-90h-131v90h-89v132h89v89h131z" />
    <glyph glyph-name="FL002Ch" unicode="," horiz-adv-x="218" 
d="M51 119h136v-140l-136 -94v234z" />
    <glyph glyph-name="FL002Dh" unicode="-" horiz-adv-x="384" 
d="M56 330v-116h296v116h-296z" />
    <glyph glyph-name="FL002Eh" unicode="." horiz-adv-x="218" 
d="M51 107v-107h136v107h-136z" />
    <glyph glyph-name="FL002Fh" unicode="/" horiz-adv-x="646" 
d="M649 609l-443 -609h-185l443 609h185z" />
    <glyph glyph-name="FL0030h" unicode="0" horiz-adv-x="724" 
d="M44 302q0 69 25.5 130t70.5 106.5t105.5 71.5t129.5 26q71 0 131.5 -26t105 -71t69.5 -106t25 -131t-25.5 -130t-70 -104t-105 -69t-130.5 -25q-69 0 -129.5 25t-105.5 69t-70.5 104t-25.5 130zM187 302q0 -26 6.5 -49.5t20.5 -45.5l205 280q-21 6 -44 6q-39 0 -73 -15.5
t-59.5 -42t-40.5 -61t-15 -72.5zM563 302q0 25 -7.5 49.5t-19.5 45.5l-199 -276q16 -3 36 -3q39 0 73.5 13.5t60.5 38t41 58t15 74.5z" />
    <glyph glyph-name="FL0031h" unicode="1" horiz-adv-x="300" 
d="M122 0h147v609h-151l-97 -138h101v-471z" />
    <glyph glyph-name="FL0032h" unicode="2" horiz-adv-x="652" 
d="M616 128v-128h-558v184q0 37 13 70.5t36.5 59t56.5 40.5t73 15h206q6 0 12 6t11.5 14.5t9 17.5t3.5 15q0 8 -2.5 18.5t-7.5 19.5t-11.5 15t-15.5 6h-377v128h370q40 0 74.5 -14t59.5 -39t39.5 -59.5t14.5 -74.5q0 -35 -12 -68t-34.5 -58t-55 -40t-72.5 -15h-188
q-22 0 -35.5 -18.5t-13.5 -40.5v-54h404z" />
    <glyph glyph-name="FL0033h" unicode="3" horiz-adv-x="646" 
d="M173 258l-83 131h347q21 2 33.5 16t12.5 32q0 14 -12 24t-32 10h-381v138h381q42 0 76.5 -13t59 -35.5t38 -54.5t13.5 -69q0 -35 -11.5 -66.5t-32.5 -56.5q20 -30 32.5 -55.5t12.5 -60.5q0 -37 -12 -72.5t-35.5 -63.5t-59 -45t-81.5 -17h-381v138h381q10 0 18 6t14 15.5
t9 20t3 19.5q0 20 -13 38.5t-35 20.5h-262z" />
    <glyph glyph-name="FL0034h" unicode="4" horiz-adv-x="668" 
d="M479 609h156v-609h-156v256h-421v353h155v-224h266v224z" />
    <glyph glyph-name="FL0035h" unicode="5" horiz-adv-x="651" 
d="M58 128v-128h410q36 0 64.5 17.5t48.5 44.5t31 59.5t11 62.5q0 37 -13 70.5t-37 59t-57 40.5t-73 15h-242v112h415v128h-558v-368h373q22 0 35 -18.5t13 -40.5q0 -9 -4.5 -19t-11 -17.5t-15 -12.5t-17.5 -5h-373z" />
    <glyph glyph-name="FL0036h" unicode="6" horiz-adv-x="693" 
d="M44 304q0 64 23.5 119.5t66 96.5t101 65t127.5 24h298v-128h-335q-15 0 -31.5 -7.5t-32 -20.5t-30 -30.5t-24.5 -37.5h453v-385h-341q-66 0 -117.5 27.5t-86.5 71.5t-53 98t-18 107zM193 256q9 -26 24 -49t33.5 -40.5t39.5 -28t41 -10.5h177v128h-315z" />
    <glyph glyph-name="FL0037h" unicode="7" horiz-adv-x="611" 
d="M239 0h-193l327 481h-315v128h520v-114z" />
    <glyph glyph-name="FL0038h" unicode="8" horiz-adv-x="682" 
d="M45 437q0 37 13.5 69t38.5 54.5t59.5 35.5t75.5 13h244q42 0 76.5 -13t59 -35.5t38 -54.5t13.5 -69q0 -35 -12 -66.5t-33 -56.5q20 -30 33 -55.5t13 -60.5q0 -37 -12 -72.5t-35.5 -63.5t-59 -45t-81.5 -17h-244q-47 0 -82 17t-58.5 45t-35.5 63.5t-12 72.5
q0 35 11.5 60.5t33.5 55.5q-44 50 -44 123zM519 199q0 20 -13 38.5t-35 20.5h-235q-23 -2 -36 -20.5t-13 -38.5q0 -9 3 -19.5t9 -20t14 -15.5t18 -6h244q10 0 18 6t14 15.5t9 20t3 19.5zM187 437q0 -18 12.5 -32t33.5 -16h242q20 2 32 16t12 32q0 14 -12 24t-32 10h-244
q-20 0 -32 -10t-12 -24z" />
    <glyph glyph-name="FL0039h" unicode="9" horiz-adv-x="693" 
d="M674 305q0 -64 -24 -119.5t-66.5 -97t-100.5 -65t-127 -23.5h-298v128h335q30 0 61.5 28t53.5 68h-450v385h341q66 0 117.5 -27.5t86.5 -71.5t53 -98t18 -107zM387 481h-178v-128h313q-9 25 -23.5 48t-32.5 41t-38.5 28.5t-40.5 10.5z" />
    <glyph glyph-name="FL003Ah" unicode=":" horiz-adv-x="218" 
d="M51 124v-124h136v124h-136zM51 379v-124h136v124h-136z" />
    <glyph glyph-name="FL003Bh" unicode=";" horiz-adv-x="218" 
d="M51 126h136v-148l-136 -100v248zM51 258v126h136v-126h-136z" />
    <glyph glyph-name="FL003Ch" unicode="&#x3c;" horiz-adv-x="424" 
d="M427 609l-217 -304l218 -305h-182l-216 305l216 304h181z" />
    <glyph glyph-name="FL003Dh" unicode="=" horiz-adv-x="435" 
d="M57 447h346v-130h-346v130zM57 296h346v-130h-346v130z" />
    <glyph glyph-name="FL003Eh" unicode="&#x3e;" horiz-adv-x="424" 
d="M21 0h182l216 305l-216 304h-181l216 -304z" />
    <glyph glyph-name="FL003Fh" unicode="?" horiz-adv-x="634" 
d="M113 128v-128h154v128h-154zM113 171l141 -1q9 4 11 6t4 10q1 6 3 15t7 18t14 15.5t24 6.5h125q40 0 72.5 15t55 40t34.5 58t12 68q0 40 -14.5 74.5t-39.5 59.5t-59.5 39t-74.5 14h-370v-128h377q9 0 15.5 -6t11.5 -15t7.5 -19.5t2.5 -18.5q0 -6 -3.5 -15t-9 -17.5
t-11.5 -14.5t-12 -6h-144q-52 0 -86.5 -16t-55 -43.5t-29 -63.5t-8.5 -75z" />
    <glyph glyph-name="at" unicode="@" horiz-adv-x="726" 
d="M641 186l-1 -1q-7 -7 -8 -9q-6 -7 -10.5 -12.5t-9.5 -10.5h116l-21 -31q-42 -40 -81 -70t-71 -44q-42 -19 -82 -26.5t-85 -7.5h-18q-83 0 -144.5 24.5t-102 67.5t-60 100.5t-19.5 122.5v15q0 65 18.5 125t58.5 105.5t103 73t152 27.5h32q60 0 113 -21t92 -58t61.5 -88
t22.5 -111q0 -54 -13.5 -93.5t-42.5 -77.5zM328 222q4 -10 13 -12l31 65q16 52 16 99q0 8 -3 15.5t-11 13.5v2q-13 -4 -21 -16t-17 -35q-8 -27 -13 -52.5t-5 -49.5q0 -14 10 -30zM571 357q0 54 -23 92l-39 -224q17 12 47 53v-1q15 36 15 80zM220 148q26 -26 63 -40
q-23 9 -41 26.5t-31.5 39.5t-22 46.5t-13.5 47.5q0 101 46 168v-1q12 20 24 35t26 26q-24 -12 -45 -33q-30 -29 -46 -68.5t-16 -96.5q0 -46 14 -85t42 -65zM386 93q10 0 21 0.5t23 2.5q-12 3 -21 10t-17 15h-1h-2q-1 -3 -7 -4h1l-35 -22v5h-20q-7 0 -13 0.5t-12 1.5
q36 -9 83 -9zM405 522q5 -2 8 -3t5 -2h24q-9 2 -18 3t-19 2zM287 107q-1 0 -1.5 0.5t-2.5 0.5q2 0 2.5 -0.5t1.5 -0.5z" />
    <glyph glyph-name="FL0041h" unicode="A" 
d="M27 0l299 609h150l300 -609h-170l-78 162h-165l-58 76l-108 -238h-170zM400 447l-73 -155h148z" />
    <glyph glyph-name="FL0042h" unicode="B" horiz-adv-x="647" 
d="M58 609h382q42 0 76.5 -13t59 -35.5t38 -54.5t13.5 -69q0 -34 -14.5 -65.5t-34.5 -54.5q20 -22 35 -54.5t15 -64.5q0 -37 -12 -72.5t-35.5 -63.5t-59 -45t-81.5 -17h-382v609zM263 258l-50 65v-185h227q10 0 18 6t14 15.5t9 20t3 19.5q0 20 -13 38.5t-35 20.5h-173z
M440 471h-227v-82h225q21 2 33.5 16t12.5 32q0 14 -12 24t-32 10z" />
    <glyph glyph-name="FL0043h" unicode="C" horiz-adv-x="654" 
d="M44 304q0 -53 18 -107t53 -98t86 -71.5t117 -27.5h303v128h-291q-26 0 -52 15t-47 40t-34 57t-13 65t13.5 65t34 56.5t45 39.5t47.5 15h297v128h-300q-63 0 -114 -25.5t-87.5 -68t-56 -97.5t-19.5 -114z" />
    <glyph glyph-name="FL0044h" unicode="D" horiz-adv-x="693" 
d="M394 481h-336v128h318q69 0 124 -24t94 -65t59.5 -96.5t20.5 -119.5q0 -53 -18 -107t-53 -98t-86 -71.5t-117 -27.5h-342v404h151v-276h178q26 0 52 15t47 40t34 57t13 65q0 32 -15 63.5t-36.5 56.5t-45.5 40.5t-42 15.5z" />
    <glyph glyph-name="FL0045h" unicode="E" horiz-adv-x="582" 
d="M58 256v129h492v-129h-492zM58 0v128h492v-128h-492zM58 609h492v-128h-492v128z" />
    <glyph glyph-name="FL0046h" unicode="F" horiz-adv-x="582" 
d="M58 0v384h449v-127h-296v-257h-153zM58 609h492v-128h-492v128z" />
    <glyph glyph-name="FL0047h" unicode="G" horiz-adv-x="693" 
d="M44 304q0 -53 18 -107t53 -98t86.5 -71.5t117.5 -27.5h341v404h-152v-276h-177q-26 0 -52 15t-47 40t-34.5 57t-13.5 65q0 32 13.5 63.5t34 56.5t45.5 40.5t48 15.5h335v128h-319q-75 0 -130.5 -24t-92.5 -65t-55.5 -96.5t-18.5 -119.5z" />
    <glyph glyph-name="FL0068h" unicode="H" horiz-adv-x="611" 
d="M423 609h155v-609h-155v256h-211v-256h-154v609h154v-224h211v224z" />
    <glyph glyph-name="FL0049h" unicode="I" horiz-adv-x="571" 
d="M539 0h-481v128h163v353h-163v128h481v-128h-164v-353h164v-128z" />
    <glyph glyph-name="FL004Ah" unicode="J" horiz-adv-x="536" 
d="M20 138h275q28 0 41 19.5t13 39.5v284h-117v128h271v-436q0 -35 -10 -66t-30.5 -55t-53 -38t-77.5 -14h-208z" />
    <glyph glyph-name="FL004Bh" unicode="K" horiz-adv-x="611" 
d="M212 609v-256l216 256h189l-254 -302l254 -307h-189l-216 254v-254h-154v609h154z" />
    <glyph glyph-name="FL004Ch" unicode="L" horiz-adv-x="513" 
d="M57 609v-609h356l107 128h-310v481h-153z" />
    <glyph glyph-name="FL004Dh" unicode="M" horiz-adv-x="1061" 
d="M58 609h158v-64l52 64h177q63 0 104 -22.5t61 -60.5l64 83h176q47 0 80.5 -14t55 -38t31.5 -55.5t10 -65.5v-436h-159v412q0 20 -15.5 39.5t-39.5 19.5h-192v-471h-158v412q0 28 -14.5 43.5t-40.5 15.5h-192v-471h-158v609z" />
    <glyph glyph-name="FL004Eh" unicode="N" horiz-adv-x="668" 
d="M58 609v-609h155v471h213q32 0 42 -14.5t10 -44.5v-412h157v436q0 34 -10 65.5t-31 55.5t-54 38t-79 14h-197l-51 -64v64h-155z" />
    <glyph glyph-name="FL004Fh" unicode="O" horiz-adv-x="724" 
d="M187 302q0 38 15 72.5t40.5 61t59.5 42t73 15.5q40 0 74.5 -15.5t59.5 -42t39.5 -61t14.5 -72.5q0 -41 -15 -74.5t-41 -58t-60.5 -38t-73.5 -13.5q-38 0 -71.5 14.5t-59 40t-40.5 58.5t-15 71zM44 302q0 -70 25.5 -130t70.5 -104t105.5 -69t129.5 -25q70 0 130.5 25
t105 69t70 104t25.5 130t-25 131t-69.5 106t-105 71t-131.5 26q-69 0 -129.5 -26t-105.5 -71.5t-70.5 -106.5t-25.5 -130z" />
    <glyph glyph-name="FL0050h" unicode="P" horiz-adv-x="621" 
d="M212 471h205q10 0 18 -8.5t13.5 -20.5t8.5 -25t3 -22q0 -11 -3.5 -24.5t-10 -25.5t-15.5 -20t-21 -8h-198v154zM58 609v-609h154v251l51 -63h171q39 0 70 20t53 50.5t34 67t12 69.5q0 37 -11 75t-33.5 69t-58 50.5t-83.5 19.5h-359z" />
    <glyph glyph-name="FL0071h" unicode="Q" horiz-adv-x="724" 
d="M453 223l-156 105v-194q-51 21 -81 65.5t-30 104.5q0 39 14.5 73.5t40 61t60 42t74.5 15.5q39 0 73 -15.5t59.5 -42t40 -61.5t14.5 -73q0 -58 -30 -102.5t-79 -67.5v89zM706 304q0 70 -26 131t-71 106.5t-105 72t-129 26.5q-71 0 -132 -26t-105 -71t-69 -106.5
t-25 -132.5q0 -60 18.5 -113t52 -95.5t80 -72t102.5 -41.5v-56l156 -102v159q55 12 101 41t80 71t53 95.5t19 113.5z" />
    <glyph glyph-name="FL0061h" unicode="R" horiz-adv-x="627" 
d="M58 609v-138h361q10 0 18 -7t14 -17.5t9 -21.5t3 -20q0 -11 -4.5 -25t-12 -26t-18 -20t-22.5 -8h-193l270 -326h190l-174 220q57 23 81.5 72t24.5 118q0 38 -11 74t-34 63.5t-58 44.5t-83 17h-361z" />
    <glyph glyph-name="FL0053h" unicode="S" horiz-adv-x="646" 
d="M60 128v-128h403q36 0 64.5 17.5t48.5 44.5t31 59.5t11 62.5q0 37 -13 70.5t-37 59t-57 40.5t-73 15h-205q-6 0 -12.5 5t-12 13t-9 17t-3.5 18q0 20 10 39.5t28 19.5h377v128h-371q-40 0 -74 -14t-59 -39t-39.5 -59.5t-14.5 -74.5q0 -35 12 -68t34.5 -58t54.5 -40t72 -15
h200q22 0 35 -18.5t13 -40.5q0 -9 -4.5 -19t-11 -17.5t-15 -12.5t-17.5 -5h-366z" />
    <glyph glyph-name="FL0054h" unicode="T" horiz-adv-x="611" 
d="M58 609h520v-128h-183v-481h-155v481h-182v128z" />
    <glyph glyph-name="FL0055h" unicode="U" horiz-adv-x="668" 
d="M635 0v609h-156v-471h-212q-35 0 -44 14t-9 45v412h-156v-436q0 -35 9.5 -66t30.5 -55t53.5 -38t79.5 -14h198l50 63v-63h156z" />
    <glyph glyph-name="FL0056h" unicode="V" 
d="M27 609h170l206 -427l203 427h170l-298 -609h-149z" />
    <glyph glyph-name="FL0057h" unicode="W" horiz-adv-x="1061" 
d="M1028 0h-158v63l-53 -63h-177q-63 0 -104.5 22t-61.5 61l-62 -83h-177q-47 0 -80.5 14t-54.5 38t-31 55t-10 66v436h159v-412q0 -20 15.5 -39.5t38.5 -19.5h193v471h158v-412q0 -28 14 -43.5t40 -15.5h193v471h158v-609z" />
    <glyph glyph-name="FL0058h" unicode="X" horiz-adv-x="647" 
d="M650 609l-222 -304l223 -305h-186l-129 175l-129 -175h-185l221 305l-221 304h185l129 -177l129 177h185z" />
    <glyph glyph-name="FL0059h" unicode="Y" horiz-adv-x="658" 
d="M468 609h157v-424q0 -29 -11 -61t-31.5 -60t-49.5 -46t-65 -18h-403v128h366q17 0 27.5 17t10.5 36v60h-238q-40 0 -72 15t-54.5 40t-34.5 58t-12 68v187h153v-187q0 -21 13.5 -37t25.5 -16h218v240z" />
    <glyph glyph-name="FL005Ah" unicode="Z" horiz-adv-x="611" 
d="M578 0h-520v121l311 360h-311v128h520v-121l-314 -360h314v-128z" />
    <glyph glyph-name="FL005Bh" unicode="[" horiz-adv-x="347" 
d="M316 0h-260v609h260v-128h-113v-353h113v-128z" />
    <glyph glyph-name="FL005Ch" unicode="\" horiz-adv-x="646" 
d="M22 609l442 -609h186l-444 609h-184z" />
    <glyph glyph-name="FL005Dh" unicode="]" horiz-adv-x="347" 
d="M56 0h260v609h-260v-128h112v-353h-112v-128z" />
    <glyph glyph-name="FL005Eh" unicode="^" 
d="M605 0l-205 426l-204 -426h-170l299 609h149l301 -609h-170z" />
    <glyph glyph-name="FL005Fh" unicode="_" horiz-adv-x="435" 
d="M57 116h346v-116h-346v116z" />
    <glyph glyph-name="FL0060h" unicode="`" horiz-adv-x="208" 
d="M205 401h-108l-78 94h140z" />
    <glyph glyph-name="a" unicode="a" 
d="M324 290l75 158l79 -158h-154zM326 609l-299 -609h170l73 161h259l77 -161h170l-300 609h-150z" />
    <glyph glyph-name="FL0062h" unicode="b" horiz-adv-x="647" 
d="M58 609h382q42 0 76.5 -13t59 -35.5t38 -54.5t13.5 -69q0 -35 -15.5 -67t-36.5 -53q23 -28 38 -56.5t15 -62.5q0 -37 -12 -72.5t-35.5 -63.5t-59 -45t-81.5 -17h-382v609zM263 258l-50 65v-185h227q10 0 18 6t14 15.5t9 20t3 19.5q0 20 -13 38.5t-35 20.5h-173zM440 471
h-227v-82h225q21 2 33.5 16t12.5 32q0 14 -12 24t-32 10z" />
    <glyph glyph-name="FL0063h" unicode="c" horiz-adv-x="654" 
d="M44 304q0 -53 18 -107t53 -98t86 -71.5t117 -27.5h303v128h-291q-26 0 -52 15t-47 40t-34 57t-13 65t13.5 65t34 56.5t45 39.5t47.5 15h297v128h-300q-63 0 -114 -25.5t-87.5 -68t-56 -97.5t-19.5 -114z" />
    <glyph glyph-name="FL0064h" unicode="d" horiz-adv-x="693" 
d="M674 304q0 -53 -18 -107t-53 -98t-86 -71.5t-117 -27.5h-342v609h318q77 0 133.5 -24t93 -65t54 -96.5t17.5 -119.5zM394 481h-185v-353h178q26 0 52 15t47 40t34 57t13 65q0 36 -15 68t-36.5 56t-45.5 38t-42 14z" />
    <glyph glyph-name="E" unicode="e" horiz-adv-x="582" 
d="M58 609v-609h492v128h-339v128h296v129h-296v96h339v128h-492z" />
    <glyph glyph-name="FL0066h" unicode="f" horiz-adv-x="582" 
d="M58 609v-609h153v257h296v127h-296v97h339v128h-492z" />
    <glyph glyph-name="g" unicode="g" horiz-adv-x="693" 
d="M44 304q0 -53 18 -107t53 -98t86.5 -71.5t117.5 -27.5h341v404h-152v-276h-177q-26 0 -52 15t-47 40t-34.5 57t-13.5 65q0 32 14.5 63.5t36 56.5t46 40.5t44.5 15.5h335v128h-298q-80 0 -139.5 -24t-99 -65t-59.5 -96.5t-20 -119.5z" />
    <glyph glyph-name="FL0048h" unicode="h" horiz-adv-x="668" 
d="M479 609h156v-609h-156v256h-266v-256h-155v609h155v-224h266v224z" />
    <glyph glyph-name="i" unicode="i" horiz-adv-x="245" 
d="M56 609v-609h156v609h-156z" />
    <glyph glyph-name="FL006Ah" unicode="j" horiz-adv-x="536" 
d="M20 138h275q28 0 41 19.5t13 39.5v412h154v-436q0 -35 -10 -66t-30.5 -55t-53 -38t-77.5 -14h-208z" />
    <glyph glyph-name="FL006Bh" unicode="k" horiz-adv-x="611" 
d="M212 609v-256l216 256h189l-254 -302l254 -307h-189l-216 254v-254h-154v609h154z" />
    <glyph glyph-name="l" unicode="l" horiz-adv-x="537" 
d="M57 609v-609h447v128h-294v481h-153z" />
    <glyph glyph-name="FL006Dh" unicode="m" horiz-adv-x="1061" 
d="M58 609h158v-64l52 64h177q63 0 104 -22.5t61 -60.5l64 83h176q47 0 80.5 -14t55 -38t31.5 -55.5t10 -65.5v-436h-159v412q0 20 -15.5 39.5t-39.5 19.5h-192v-471h-158v412q0 28 -14.5 43.5t-40.5 15.5h-192v-471h-158v609z" />
    <glyph glyph-name="FL006Eh" unicode="n" horiz-adv-x="668" 
d="M58 609v-609h155v471h213q32 0 42 -14.5t10 -44.5v-412h157v436q0 34 -10 65.5t-31 55.5t-54 38t-79 14h-197l-51 -64v64h-155z" />
    <glyph glyph-name="o" unicode="o" horiz-adv-x="724" 
d="M187 302q0 38 15 72.5t40.5 61t59.5 42t73 15.5q40 0 74.5 -15.5t59.5 -42t39.5 -61t14.5 -72.5q0 -41 -15 -74.5t-41 -58t-60.5 -38t-73.5 -13.5q-38 0 -71.5 14.5t-59 40t-40.5 58.5t-15 71zM44 302q0 -70 25.5 -130t70.5 -104t105.5 -69t129.5 -25q70 0 130.5 25
t105 69t70 104t25.5 130t-25 131t-69.5 106t-105 71t-131.5 26q-69 0 -129.5 -26t-105.5 -71.5t-70.5 -106.5t-25.5 -130z" />
    <glyph glyph-name="p" unicode="p" horiz-adv-x="621" 
d="M212 471h205q10 0 18 -8.5t13.5 -20.5t8.5 -25t3 -22q0 -11 -3.5 -24.5t-10 -25.5t-15.5 -20t-21 -8h-198v154zM58 609v-609h154v251l51 -63h171q39 0 70 20t53 50.5t34 67t12 69.5q0 37 -11 75t-33.5 69t-58 50.5t-83.5 19.5h-359z" />
    <glyph glyph-name="FL0051h" unicode="q" horiz-adv-x="724" 
d="M44 304q0 70 25.5 131t70.5 106.5t105.5 72t129.5 26.5q71 0 131.5 -26t105 -71t69.5 -106.5t25 -132.5q0 -90 -37 -158.5t-103 -113.5l26 -39l-77 -172l-97 156q-17 -3 -43 -3q-69 0 -129.5 25t-105.5 69.5t-70.5 104.5t-25.5 131zM303 157l76 173l110 -175
q32 25 53 62.5t21 86.5q0 39 -14.5 73.5t-39.5 61t-59.5 42t-74.5 15.5q-39 0 -73 -15.5t-59.5 -42t-40.5 -61.5t-15 -73q0 -32 10.5 -60.5t28.5 -52.5t43 -41.5t55 -26.5z" />
    <glyph glyph-name="R" unicode="r" horiz-adv-x="635" 
d="M213 471h212q10 0 17.5 -8t12 -19.5t6.5 -23.5t2 -21q0 -6 -3.5 -17.5t-8.5 -22.5t-12 -19t-14 -8h-212v139zM58 609v-609h155v323l274 -323h190l-182 217q26 11 47.5 31t36.5 45.5t23.5 55t8.5 59.5q0 37 -10 73t-32.5 64.5t-58 46t-85.5 17.5h-367z" />
    <glyph glyph-name="S" unicode="s" horiz-adv-x="646" 
d="M60 128v-128h403q36 0 64.5 17.5t48.5 44.5t31 59.5t11 62.5q0 37 -13 70.5t-37 59t-57 40.5t-73 15h-205q-6 0 -12.5 5t-12 13t-9 17t-3.5 18q0 20 10 39.5t28 19.5h377v128h-371q-40 0 -74 -14t-59 -39t-39.5 -59.5t-14.5 -74.5q0 -35 12 -68t34.5 -58t54.5 -40t72 -15
h200q22 0 35 -18.5t13 -40.5q0 -9 -4.5 -19t-11 -17.5t-15 -12.5t-17.5 -5h-366z" />
    <glyph glyph-name="FL0074h" unicode="t" horiz-adv-x="611" 
d="M58 609h520v-128h-183v-481h-155v481h-182v128z" />
    <glyph glyph-name="FL0075h" unicode="u" horiz-adv-x="668" 
d="M635 0v609h-156v-471h-212q-35 0 -44 14t-9 45v412h-156v-436q0 -35 9.5 -66t30.5 -55t53.5 -38t79.5 -14h198l50 63v-63h156z" />
    <glyph glyph-name="FL0076h" unicode="v" 
d="M27 609h170l205 -427l204 427h170l-298 -609h-149z" />
    <glyph glyph-name="FL0077h" unicode="w" horiz-adv-x="1061" 
d="M1028 0h-158v63l-53 -63h-177q-63 0 -104.5 22t-61.5 61l-62 -83h-177q-47 0 -80.5 14t-54.5 38t-31 55t-10 66v436h159v-412q0 -20 15.5 -39.5t38.5 -19.5h193v471h158v-412q0 -28 14 -43.5t40 -15.5h193v471h158v-609z" />
    <glyph glyph-name="FL0078h" unicode="x" horiz-adv-x="647" 
d="M650 609l-222 -304l223 -305h-186l-129 175l-129 -175h-185l221 305l-221 304h185l129 -177l129 177h185z" />
    <glyph glyph-name="FL0079h" unicode="y" horiz-adv-x="645" 
d="M413 0h-156v284l-235 325h184l129 -177l129 177h185l-236 -325v-284z" />
    <glyph glyph-name="FL007Ah" unicode="z" horiz-adv-x="611" 
d="M578 0h-520v121l311 360h-311v128h520v-121l-314 -360h314v-128z" />
    <glyph glyph-name="FL007Bh" unicode="{" horiz-adv-x="347" 
d="M316 -53h-260v718h260v-128h-113v-461h113v-129z" />
    <glyph glyph-name="FL007Ch" unicode="|" horiz-adv-x="226" 
d="M56 714h136v-813h-136v813z" />
    <glyph glyph-name="FL007Dh" unicode="}" horiz-adv-x="347" 
d="M79 -53h260v718h-260v-128h113v-461h-113v-129z" />
    <glyph glyph-name="FL007Eh" unicode="~" horiz-adv-x="421" 
d="M105 495h123l27 -30l21 30h150l-85 -94h-123l-28 30l-20 -30h-150z" />
    <glyph glyph-name="FL007Fh" horiz-adv-x="182" 
 />
    <glyph glyph-name="FL20ACh" horiz-adv-x="767" 
d="M75 303h103v12h-103v136h132q31 72 94 115t157 43h276v-128h-273q-31 0 -69 -30h158v-136h-230v-12h230v-137h-166q19 -18 39.5 -28t42.5 -10h268v-128h-279q-47 0 -85.5 13t-69.5 35.5t-54 52.5t-38 65h-133v137z" />
    <glyph glyph-name="FL20ACh" unicode="&#x20ac;" horiz-adv-x="767" 
d="M75 303h103v12h-103v136h132q31 72 94 115t157 43h276v-128h-273q-31 0 -69 -30h158v-136h-230v-12h230v-137h-166q19 -18 39.5 -28t42.5 -10h268v-128h-279q-47 0 -85.5 13t-69.5 35.5t-54 52.5t-38 65h-133v137z" />
    <glyph glyph-name="FL017Dh" horiz-adv-x="611" 
d="M578 0h-520v122l311 364h-311v128h520v-121l-314 -364h314v-129zM144 771h151l25 -45l25 45h150l-85 -116h-181z" />
    <glyph glyph-name="FL017Dh" unicode="&#x17d;" horiz-adv-x="611" 
d="M578 0h-520v122l311 364h-311v128h520v-121l-314 -364h314v-129zM144 771h151l25 -45l25 45h150l-85 -116h-181z" />
    <glyph glyph-name="FL017Eh" horiz-adv-x="611" 
d="M578 0h-520v122l311 364h-311v128h520v-121l-314 -364h314v-129zM144 771h151l25 -45l25 45h150l-85 -116h-181z" />
    <glyph glyph-name="FL017Eh" unicode="&#x17e;" horiz-adv-x="611" 
d="M578 0h-520v122l311 364h-311v128h520v-121l-314 -364h314v-129zM144 771h151l25 -45l25 45h150l-85 -116h-181z" />
    <glyph glyph-name="space" unicode="&#xa0;" horiz-adv-x="379" 
 />
    <glyph glyph-name="FL00A1h" unicode="&#xa1;" horiz-adv-x="226" 
d="M192 481v128h-136v-128h136zM192 0v427h-136v-427h136z" />
    <glyph glyph-name="FL00A2h" unicode="&#xa2;" horiz-adv-x="663" 
d="M53 307q0 58 18.5 112t53 96.5t83.5 69t110 29.5v100h149v-99h163v-128h-163v-358h163v-129h-163v-99h-149v100q-64 2 -113.5 30.5t-83 72t-51 97t-17.5 106.5zM193 308q0 -30 10.5 -59.5t28 -53.5t40 -41t46.5 -23v354q-21 -5 -43.5 -22t-40.5 -41.5t-29.5 -54
t-11.5 -59.5z" />
    <glyph glyph-name="FL00A3h" unicode="&#xa3;" horiz-adv-x="573" 
d="M58 389h95q-3 11 -4 22.5t-1 25.5q0 37 13.5 69t37.5 54.5t58.5 35.5t76.5 13h43v-138h-43q-20 0 -32 -10t-12 -24q0 -18 12 -32t33 -16h126v-131h-127q-21 -5 -32.5 -22.5t-11.5 -36.5q0 -9 3 -19.5t9 -20t14 -16t18 -6.5h207v-137h-483v137h96q-5 14 -6 29t-1 32
q0 30 12 59h-101v132z" />
    <glyph glyph-name="FL00A4h" unicode="&#xa4;" horiz-adv-x="647" 
d="M289 304q0 20 13 35t33 15t33 -15t13 -35t-13 -33t-33 -13q-19 0 -32.5 13.5t-13.5 32.5zM137 306q0 -62 28 -109l-143 -197h185l78 108q12 -4 24.5 -4.5t25.5 -0.5q11 0 23.5 1t26.5 4l80 -108h186l-147 198q29 47 29 108q0 59 -28 106l145 197h-185l-77 -105
q-12 5 -25.5 6.5t-27.5 1.5t-27.5 -1.5t-25.5 -6.5l-75 105h-185l143 -196q-28 -49 -28 -107z" />
    <glyph glyph-name="FL00A5h" unicode="&#xa5;" horiz-adv-x="645" 
d="M158 195h99v31h-99v137h40l-176 246h184l129 -177l129 177h185l-179 -246h44v-137h-101v-31h101v-135h-101v-60h-156v60h-99v135z" />
    <glyph glyph-name="FL00A6h" unicode="&#xa6;" horiz-adv-x="226" 
d="M56 609v-269h136v269h-136zM56 285v-285h136v285h-136z" />
    <glyph glyph-name="FL00A7h" unicode="&#xa7;" horiz-adv-x="647" 
d="M289 304q0 20 13 35t33 15t33 -15t13 -35t-13 -33t-33 -13q-19 0 -32.5 13.5t-13.5 32.5zM137 306q0 -62 28 -109l-143 -197h185l78 108q12 -4 24.5 -4.5t25.5 -0.5q18 1 39 4t42.5 11t42.5 24.5t39 44.5q35 53 35 119q0 59 -28 106l145 197h-185l-77 -105q-12 5 -26 6.5
t-28 1.5q-17 -2 -38.5 -6t-43.5 -13.5t-43 -26.5t-37 -44v2q-35 -53 -35 -118z" />
    <glyph glyph-name="FL00A8h" unicode="&#xa8;" horiz-adv-x="405" 
d="M56 401v94h140v-94h-140zM372 495v-94h-139v94h139z" />
    <glyph glyph-name="FL00A9h" unicode="&#xa9;" horiz-adv-x="271" 
d="M148 620q31 0 50 -13q15 -8 24 -19t14 -22v1q17 -29 17 -53q0 -21 -17 -50h1q-7 -16 -12.5 -21.5t-16.5 -11.5h1l-8 -5q-24 -12 -36 -14.5t-16 -2.5h-1q-5 0 -16 3.5t-28 8.5q-2 1 -5 1.5t-5 1.5v-1q-3 0 -3 1q-1 1 -2 1.5t-3 2.5l-9 9l-10 10t-10 13q-16 22 -16 54
q0 31 13.5 53.5t39.5 39.5q22 13 54 13zM169 515l35 -10q-7 -38 -31 -51q4 1 8 4h-1q14 9 24 25t10 31v6q0 11 -5.5 22t-14.5 20t-20.5 14.5t-23.5 5.5h-2q-20 0 -34 -7.5t-25 -24.5q-10 -19 -10 -36t11 -34q-3 7 -4 15.5t-1 18.5q0 66 63 66q39 0 56 -50l-35 -8
q-9 21 -21 21q-22 0 -22 -29q0 -25 21 -25q14 0 22 26z" />
    <glyph glyph-name="FL00AAh" unicode="&#xaa;" horiz-adv-x="416" 
d="M205 499l15 29l13 -29h-28zM176 642l-149 -304h104l34 74h107l36 -74h106l-152 304h-86z" />
    <glyph glyph-name="FL00ABh" unicode="&#xab;" horiz-adv-x="507" 
d="M502 371l-65 -63l66 -64l-97 -93l-158 157l158 155zM283 371l-65 -63l66 -65l-96 -93l-159 158l159 154z" />
    <glyph glyph-name="FL00ACh" unicode="&#xac;" horiz-adv-x="400" 
d="M56 361h311v-214h-131v87h-180v127z" />
    <glyph glyph-name="FL00ADh" unicode="&#xad;" horiz-adv-x="312" 
d="M55 330v-116h226v116h-226z" />
    <glyph glyph-name="registered" unicode="&#xae;" horiz-adv-x="271" 
d="M148 620q29 0 50 -15q29 -17 38 -39q17 -32 17 -52q0 -22 -17 -51v1q-9 -25 -39 -41q-18 -10 -31 -12t-17 -2h-1q-14 0 -28 4t-28 11q-11 8 -20 16t-14 18q-17 29 -17 56q0 20 2.5 29.5t9.5 20.5v2q20 28 43 41v-1q26 14 52 14zM148 582q-19 0 -32 -6h24q27 0 33 -8h-1
q3 0 4 -1v1q2 0 13 -9q6 -11 6 -22q0 -23 -17 -34l2 -2q0 1 3 -5q1 -4 5 -9l9 -16q1 1 1.5 2t1.5 2l4 8q5 11 6 15.5t4 17.5v4q0 11 -5.5 22t-14.5 20t-20.5 14.5t-23.5 5.5h-2zM89 481l3 -3q0 -1 2 -3v82q-3 -3 -5 -7h1q-11 -20 -11 -34q3 -12 4 -16.5t6 -19.5v1zM148 451
q3 0 6 -0.5t7 0.5l-9 23q-5 6 -8 10.5t-7 9.5h-3v-42q3 -1 7 -1h7zM140 539h-6v-8h7q14 0 14 5q0 2 -2 2h-2q-2 0 -4.5 0.5t-6.5 0.5z" />
    <glyph glyph-name="FL00AFh" unicode="&#xaf;" horiz-adv-x="435" 
d="M57 517h346v-116h-346v116z" />
    <glyph glyph-name="FL00B0h" unicode="&#xb0;" horiz-adv-x="206" 
d="M51 496v-94h125v94h-125z" />
    <glyph glyph-name="FL00B1h" unicode="&#xb1;" horiz-adv-x="400" 
d="M276 476v-92h91v-135h-91v-93h-131v93h-89v135h89v92h131zM56 134h311v-134h-311v134z" />
    <glyph glyph-name="FL00B2h" unicode="&#xb2;" horiz-adv-x="370" 
d="M335 420v-82h-279v96q0 39 24 68.5t69 29.5h95q2 0 3.5 4.5t1.5 7.5q0 5 -2 10.5t-4 5.5h-184v82h181q43 0 70.5 -28t27.5 -70q0 -18 -6.5 -35t-18 -30.5t-28.5 -21.5t-38 -8h-86q-5 0 -8 -5t-3 -11v-13h185z" />
    <glyph glyph-name="FL00B3h" unicode="&#xb3;" horiz-adv-x="358" 
d="M114 457l-54 82h180q11 5 11 11t-9 6h-186v86h186q45 0 71.5 -26t26.5 -66q0 -16 -5.5 -29.5t-13.5 -26.5q10 -14 14.5 -26t4.5 -27q0 -20 -6 -38.5t-18.5 -33t-31 -23t-42.5 -8.5h-186v85h186q4 0 6.5 6.5t2.5 11.5q0 13 -13 16h-124z" />
    <glyph glyph-name="FL00B4h" unicode="&#xb4;" horiz-adv-x="208" 
d="M25 401h108l77 94h-140z" />
    <glyph glyph-name="FL00B5h" unicode="&#xb5;" horiz-adv-x="658" 
d="M213 609h-156v-424q0 -29 11 -61t31.5 -60t49.5 -46t64 -18h404v128h-366q-19 0 -34 17.5t-15 36.5q0 22 13 40.5t36 18.5h199q40 0 72.5 15t55 40t34.5 58t12 68v187h-154v-187q0 -21 -13.5 -37t-24.5 -16h-194h-12q-3 0 -6 -0.5t-7 -1.5v242z" />
    <glyph glyph-name="FL2122h" unicode="&#xb6;" horiz-adv-x="960" 
d="M352 304l2 2h2l-1 -0.5zM324 235v2l3 -6q-1 1 -1.5 2t-1.5 2zM634 257h14v-11l-1 1q-4 3 -6.5 5.5t-6.5 4.5zM648 293v-11l-11 29q2 -2 4.5 -6.5t6.5 -11.5zM587 237h-2l6 14q1 1 1 6h16q-6 -3 -11 -8t-10 -12zM957 266l-13 32l-72 32l27 7h29l-24 35l-118 22l59 40h-190
l13 42l-168 -24l-4 30l-25 8l-110 -48l-51 35l-70 -70q-1 -1 -10 -1t-26.5 7t-43.5 24l-14 -86l-81 8l5 -44l29 -32l-60 -2l-3 -20l85 -42l-81 -32l159 -35l-58 -35l192 -6l-21 -41l172 28l10 -13l-13 -40l143 64l60 -35l65 68l85 -26l6 81l82 -11h1h2q0 31 -38 75z" />
    <glyph glyph-name="FL00B7h" unicode="&#xb7;" horiz-adv-x="218" 
d="M51 325v-107h136v107h-136z" />
    <glyph glyph-name="FL00B8h" unicode="&#xb8;" horiz-adv-x="181" 
d="M52 23h99v-155h-158v93h59v62z" />
    <glyph glyph-name="FL00B9h" unicode="&#xb9;" horiz-adv-x="185" 
d="M68 338h87v304h-79l-56 -86h48v-218z" />
    <glyph glyph-name="FL00BAh" unicode="&#xba;" horiz-adv-x="392" 
d="M171 478q0 15 11 26t26 11q16 0 26 -11t10 -26q0 -16 -11 -25.5t-25 -9.5q-15 0 -26 10.5t-11 24.5zM43 479q0 -35 12.5 -65t35 -52t53 -34.5t65.5 -12.5t65 12.5t52.5 34.5t35 52t12.5 65t-12.5 65.5t-34.5 53t-52.5 35.5t-65.5 13t-65.5 -13t-53 -35.5t-35 -53
t-12.5 -65.5z" />
    <glyph glyph-name="FL00BBh" unicode="&#xbb;" horiz-adv-x="507" 
d="M29 244l96 -93l159 157l-159 155l-95 -92l64 -63zM248 243l96 -93l159 158l-159 154l-95 -91l63 -63z" />
    <glyph glyph-name="FL00BCh" unicode="&#xbc;" horiz-adv-x="714" 
d="M582 317h99v-317h-99v121h-203v187l-206 -308h-151l406 609h153l-197 -292h95v-107h103v107zM189 292h-99v227h-57l66 90h90v-317z" />
    <glyph glyph-name="FL00BDh" unicode="&#xbd;" horiz-adv-x="705" 
d="M669 86v-86h-293v100q0 19 6.5 37.5t19.5 32.5t31 22.5t42 8.5h99q2 0 3.5 5.5t1.5 8.5q0 5 -2 10.5t-4 5.5h-194v77l-207 -308h-150l406 609h153l-197 -292h186q45 0 73.5 -28.5t28.5 -73.5q0 -19 -6.5 -37t-19 -31.5t-30 -22t-39.5 -8.5h-90q-5 0 -8 -5t-3 -12v-13h193
zM189 292h-99v227h-57l66 90h90v-317z" />
    <glyph glyph-name="FL00BEh" unicode="&#xbe;" horiz-adv-x="809" 
d="M676 317h99v-317h-99v121h-204v181l-204 -302h-150l408 609h153l-198 -292h90v-107h105v107zM120 417l-58 85h190q11 3 11 12q0 5 -8 5h-197v90h197q48 0 75 -26.5t27 -68.5q0 -17 -5.5 -32t-13.5 -27q19 -25 19 -55q0 -21 -6.5 -40.5t-19 -34.5t-32 -24t-44.5 -9h-197
v90h197q4 0 6 6.5t2 11.5q0 14 -13 17h-130z" />
    <glyph glyph-name="FL00BFh" unicode="&#xbf;" horiz-adv-x="634" 
d="M547 481v128h-154v-128h154zM547 438l-142 1q-8 0 -10 -4t-4 -13q-1 -5 -3.5 -14t-8 -18t-14 -15.5t-22.5 -6.5h-127q-39 0 -71 -15t-54.5 -40t-34.5 -58t-12 -68q0 -41 14 -75t39 -59t59 -39t75 -14h371v128h-378q-9 0 -16 6t-12 15t-7.5 19.5t-2.5 18.5q0 6 3.5 15
t9 17.5t12 14.5t12.5 6h145q52 0 86.5 16t55 43.5t29 63.5t8.5 75z" />
    <glyph glyph-name="FL00C0h" unicode="&#xc0;" 
d="M27 0l299 614h150l300 -614h-170l-78 164h-165l-58 76l-108 -240h-170zM486 655h-121l-86 116h155zM400 451l-70 -150h141z" />
    <glyph glyph-name="FL00C1h" unicode="&#xc1;" 
d="M27 0l299 614h150l300 -614h-170l-78 164h-165l-58 76l-108 -240h-170zM437 655h-120l51 116h155zM400 451l-70 -150h141z" />
    <glyph glyph-name="FL00C2h" unicode="&#xc2;" 
d="M27 0l299 614h150l300 -614h-170l-78 164h-165l-58 76l-108 -240h-170zM578 655h-154l-25 44l-25 -44h-153l86 116h184zM400 451l-70 -150h141z" />
    <glyph glyph-name="FL00C3h" unicode="&#xc3;" 
d="M27 0l299 614h150l300 -614h-170l-78 164h-165l-58 76l-108 -240h-170zM276 771h128l28 -39l22 39h154l-87 -116h-128l-29 37l-21 -37h-152zM400 451l-70 -150h141z" />
    <glyph glyph-name="FL00C4h" unicode="&#xc4;" 
d="M27 0l299 614h150l300 -614h-170l-78 164h-165l-58 76l-108 -240h-170zM234 655v116h146v-116h-146zM565 771v-116h-146v116h146zM400 451l-70 -150h141z" />
    <glyph glyph-name="FL00C5h" unicode="&#xc5;" 
d="M330 301l70 150l71 -150h-141zM326 771v-116h146v116h-146zM326 614l-299 -614h170l108 240l58 -76h165l78 -164h170l-300 614h-150z" />
    <glyph glyph-name="FL00C6h" unicode="&#xc6;" horiz-adv-x="1149" 
d="M28 0l301 609h152l129 -259v39h505v-137h-457l62 -124h395v-128h-501l-81 162h-166l-59 76l-109 -238h-171zM610 609h505v-128h-505v128zM404 447l-71 -149h143z" />
    <glyph glyph-name="FL00C7h" unicode="&#xc7;" horiz-adv-x="654" 
d="M44 306q0 60 19.5 115.5t56 98t87.5 68.5t114 26h300v-128h-297q-23 0 -47.5 -15.5t-45 -40.5t-34 -57t-13.5 -66t13 -66t34 -57t47 -40t52 -15h291v-129h-165v-150h-175v104h66v46h-29q-66 0 -117 28t-86 72t-53 98.5t-18 107.5z" />
    <glyph glyph-name="FL00C8h" unicode="&#xc8;" horiz-adv-x="582" 
d="M58 258v130h492v-130h-492zM550 129v-129h-492v129h492zM58 614h492v-128h-492v128zM381 655h-117l-85 116h152z" />
    <glyph glyph-name="FL00C9h" unicode="&#xc9;" horiz-adv-x="582" 
d="M58 258v130h492v-130h-492zM58 0v129h492v-129h-492zM58 614h492v-128h-492v128zM344 655h-119l51 116h152z" />
    <glyph glyph-name="FL00CAh" unicode="&#xca;" horiz-adv-x="582" 
d="M58 258v130h492v-130h-492zM58 0v129h492v-129h-492zM58 614h492v-128h-492v128zM479 655h-150l-24 44l-25 -44h-150l84 116h180z" />
    <glyph glyph-name="FL00CBh" unicode="&#xcb;" horiz-adv-x="582" 
d="M58 258v130h492v-130h-492zM58 0v129h492v-129h-492zM58 614h492v-128h-492v128zM467 771v-116h-143v116h143zM142 655v116h144v-116h-144z" />
    <glyph glyph-name="FL00CCh" unicode="&#xcc;" horiz-adv-x="571" 
d="M261 655h118l-50 116h-152zM57 0h481v129h-165v357h165v128h-481v-128h162v-357h-162v-129z" />
    <glyph glyph-name="FL00CDh" unicode="&#xcd;" horiz-adv-x="571" 
d="M539 0h-481v129h163v357h-163v128h481v-128h-164v-357h164v-129zM334 655h-118l50 116h152z" />
    <glyph glyph-name="FL00CEh" unicode="&#xce;" horiz-adv-x="571" 
d="M539 0h-481v129h163v357h-163v128h481v-128h-164v-357h164v-129zM472 655h-150l-24 44l-25 -44h-150l84 116h180z" />
    <glyph glyph-name="FL00CFh" unicode="&#xcf;" horiz-adv-x="571" 
d="M539 0h-481v129h163v357h-163v128h481v-128h-164v-357h164v-129zM460 771v-116h-143v116h143zM135 655v116h144v-116h-144z" />
    <glyph glyph-name="FL00D0h" unicode="&#xd0;" horiz-adv-x="805" 
d="M58 389h109v220h319q69 0 124.5 -24t94.5 -65t60 -96.5t21 -119.5q0 -53 -18 -107t-53 -98t-86.5 -71.5t-118.5 -27.5h-343v252h-109v137zM505 481h-186v-92h121v-137h-121v-124h179q25 0 51 15t47 40t34.5 57t13.5 65q0 32 -15 63.5t-36.5 56.5t-45.5 40.5t-42 15.5z
" />
    <glyph glyph-name="FL00D1h" unicode="&#xd1;" horiz-adv-x="668" 
d="M58 0v614h155v-64l51 64h197q46 0 79 -14.5t54 -38.5t31 -56t10 -66v-439h-157v415q0 31 -10 46t-42 15h-213v-476h-155zM227 771h127l28 -39l22 39h150l-85 -116h-126l-29 37l-21 -37h-151z" />
    <glyph glyph-name="FL00D2h" unicode="&#xd2;" horiz-adv-x="724" 
d="M44 304q0 70 25.5 131t70.5 106.5t105.5 72t129.5 26.5q71 0 131.5 -26t105 -71t69.5 -106.5t25 -132.5t-25.5 -131t-70 -104.5t-105 -69.5t-130.5 -25q-69 0 -129.5 25t-105.5 69.5t-70.5 104.5t-25.5 131zM187 304q0 -38 15 -71.5t40.5 -59t59 -40.5t71.5 -15
q39 0 73.5 14t60.5 39t41 59t15 74q0 39 -14.5 73.5t-39.5 61t-59.5 42t-74.5 15.5q-39 0 -73 -15.5t-59.5 -42t-40.5 -61.5t-15 -73zM454 655h-120l-86 117h155z" />
    <glyph glyph-name="FL00D3h" unicode="&#xd3;" horiz-adv-x="724" 
d="M44 304q0 70 25.5 131t70.5 106.5t105.5 72t129.5 26.5q71 0 131.5 -26t105 -71t69.5 -106.5t25 -132.5t-25.5 -131t-70 -104.5t-105 -69.5t-130.5 -25q-69 0 -129.5 25t-105.5 69.5t-70.5 104.5t-25.5 131zM187 304q0 -38 15 -71.5t40.5 -59t59 -40.5t71.5 -15
q39 0 73.5 14t60.5 39t41 59t15 74q0 39 -14.5 73.5t-39.5 61t-59.5 42t-74.5 15.5q-39 0 -73 -15.5t-59.5 -42t-40.5 -61.5t-15 -73zM415 655h-119l51 117h154z" />
    <glyph glyph-name="FL00D4h" unicode="&#xd4;" horiz-adv-x="724" 
d="M44 304q0 70 25.5 131t70.5 106.5t105.5 72t129.5 26.5q71 0 131.5 -26t105 -71t69.5 -106.5t25 -132.5t-25.5 -131t-70 -104.5t-105 -69.5t-130.5 -25q-69 0 -129.5 25t-105.5 69.5t-70.5 104.5t-25.5 131zM187 304q0 -38 15 -71.5t40.5 -59t59 -40.5t71.5 -15
q39 0 73.5 14t60.5 39t41 59t15 74q0 39 -14.5 73.5t-39.5 61t-59.5 42t-74.5 15.5q-39 0 -73 -15.5t-59.5 -42t-40.5 -61.5t-15 -73zM551 655h-151l-25 45l-25 -45h-153l86 117h183z" />
    <glyph glyph-name="FL00D5h" unicode="&#xd5;" horiz-adv-x="724" 
d="M44 304q0 70 25.5 131t70.5 106.5t105.5 72t129.5 26.5q71 0 131.5 -26t105 -71t69.5 -106.5t25 -132.5t-25.5 -131t-70 -104.5t-105 -69.5t-130.5 -25q-69 0 -129.5 25t-105.5 69.5t-70.5 104.5t-25.5 131zM187 304q0 -38 15 -71.5t40.5 -59t59 -40.5t71.5 -15
q39 0 73.5 14t60.5 39t41 59t15 74q0 39 -14.5 73.5t-39.5 61t-59.5 42t-74.5 15.5q-39 0 -73 -15.5t-59.5 -42t-40.5 -61.5t-15 -73zM252 772h128l28 -39l22 39h151l-85 -117h-127l-29 38l-21 -38h-152z" />
    <glyph glyph-name="FL00D6h" unicode="&#xd6;" horiz-adv-x="724" 
d="M44 304q0 70 25.5 131t70.5 106.5t105.5 72t129.5 26.5q71 0 131.5 -26t105 -71t69.5 -106.5t25 -132.5t-25.5 -131t-70 -104.5t-105 -69.5t-130.5 -25q-69 0 -129.5 25t-105.5 69.5t-70.5 104.5t-25.5 131zM187 304q0 -38 15 -71.5t40.5 -59t59 -40.5t71.5 -15
q39 0 73.5 14t60.5 39t41 59t15 74q0 39 -14.5 73.5t-39.5 61t-59.5 42t-74.5 15.5q-39 0 -73 -15.5t-59.5 -42t-40.5 -61.5t-15 -73zM540 772v-117h-145v117h145zM211 655v117h145v-117h-145z" />
    <glyph glyph-name="FL00D7h" unicode="&#xd7;" horiz-adv-x="345" 
d="M340 370l-63 -63l64 -64l-94 -93l-63 65l-64 -64l-92 92l63 64l-63 63l93 92l64 -63l62 63z" />
    <glyph glyph-name="FL00D8h" unicode="&#xd8;" horiz-adv-x="724" 
d="M682 611l-61 -84q85 -91 85 -225q0 -70 -25.5 -130t-70 -104t-105 -69t-130.5 -25q-37 0 -73.5 7.5t-71.5 18.5h-179l66 92q-35 42 -54 94.5t-19 115.5q0 69 25.5 130t70.5 106.5t105.5 71.5t129.5 26q34 0 70 -6.5t66 -18.5h171zM563 302q0 28 -8.5 54t-22.5 49
l-205 -282q25 -5 46 -5q39 0 73.5 13.5t60.5 38t41 58t15 74.5zM187 302q0 -24 4.5 -45.5t16.5 -41.5l200 274h-1v1q-18 3 -32 3q-39 0 -73 -15.5t-59.5 -42t-40.5 -61t-15 -72.5z" />
    <glyph glyph-name="FL00D9h" unicode="&#xd9;" horiz-adv-x="668" 
d="M635 0h-156v64l-50 -64h-198q-47 0 -79.5 14.5t-53.5 38.5t-30.5 56t-9.5 67v438h156v-415q0 -31 9 -45.5t44 -14.5h212v475h156v-614zM425 655h-119l-86 116h154z" />
    <glyph glyph-name="FL00DAh" unicode="&#xda;" horiz-adv-x="668" 
d="M635 0h-156v64l-50 -64h-198q-47 0 -79.5 14.5t-53.5 38.5t-30.5 56t-9.5 67v438h156v-415q0 -31 9 -45.5t44 -14.5h212v475h156v-614zM386 655h-119l51 116h153z" />
    <glyph glyph-name="FL00DBh" unicode="&#xdb;" horiz-adv-x="668" 
d="M635 0h-156v64l-50 -64h-198q-47 0 -79.5 14.5t-53.5 38.5t-30.5 56t-9.5 67v438h156v-415q0 -31 9 -45.5t44 -14.5h212v475h156v-614zM522 655h-151l-25 44l-25 -44h-152l86 116h182z" />
    <glyph glyph-name="FL00DCh" unicode="&#xdc;" horiz-adv-x="668" 
d="M635 614v-614h-156v64l-50 -64h-198q-47 0 -79.5 14.5t-53.5 38.5t-30.5 56t-9.5 67v438h156v-415q0 -31 9 -45.5t44 -14.5h212v475h156zM509 771v-116h-144v116h144zM182 655v116h145v-116h-145z" />
    <glyph glyph-name="FL00DDh" unicode="&#xdd;" horiz-adv-x="658" 
d="M468 614h157v-427q0 -29 -11 -62t-31.5 -60.5t-49.5 -46t-65 -18.5h-403v129h366q17 0 27.5 17.5t10.5 36.5v60h-238q-40 0 -72 15t-54.5 40.5t-34.5 58.5t-12 69v188h153v-188q0 -21 13.5 -37.5t25.5 -16.5h218v242zM384 655h-119l51 116h153z" />
    <glyph glyph-name="FL00DEh" unicode="&#xde;" horiz-adv-x="621" 
d="M57 609h154v-96h206q42 0 76 -19.5t58.5 -50.5t38 -69t13.5 -75q0 -33 -12 -70t-34 -67.5t-53 -51t-70 -20.5h-171l-51 65v-155h-155v609zM417 376h-205v-156h198q12 0 21 8t15.5 20t10 26t3.5 25q0 9 -3 22t-8.5 25t-13.5 21t-18 9z" />
    <glyph glyph-name="FL00DFh" unicode="&#xdf;" horiz-adv-x="646" 
d="M58 613h381q42 0 76.5 -12.5t59 -35.5t38 -55t13.5 -70q0 -71 -44 -124q20 -30 32.5 -55.5t12.5 -60.5q0 -38 -12 -73.5t-35.5 -64t-59 -45.5t-81.5 -17h-148v139h148q10 0 18 6.5t14 15.5t9 20t3 20q0 20 -13 38.5t-35 20.5h-145v131h147q21 2 33.5 16.5t12.5 32.5
q0 14 -12 25t-32 11h-226v-608h-155v745z" />
    <glyph glyph-name="FL00E0h" unicode="&#xe0;" 
d="M27 0l299 614h150l300 -614h-170l-77 163h-259l-73 -163h-170zM486 655h-121l-86 116h155zM399 454l-69 -153h141z" />
    <glyph glyph-name="FL00E1h" unicode="&#xe1;" 
d="M27 0l299 614h150l300 -614h-170l-77 163h-259l-73 -163h-170zM437 655h-120l51 116h155zM399 454l-69 -153h141z" />
    <glyph glyph-name="FL00E2h" unicode="&#xe2;" 
d="M27 0l299 614h150l300 -614h-170l-77 163h-259l-73 -163h-170zM578 655h-154l-25 44l-25 -44h-153l86 116h184zM399 454l-69 -153h141z" />
    <glyph glyph-name="FL00E3h" unicode="&#xe3;" 
d="M27 0l299 614h150l300 -614h-170l-77 163h-259l-73 -163h-170zM276 771h128l28 -39l22 39h154l-87 -116h-128l-29 37l-21 -37h-152zM399 454l-69 -153h141z" />
    <glyph glyph-name="FL00E4h" unicode="&#xe4;" 
d="M27 0l299 614h150l300 -614h-170l-77 163h-259l-73 -163h-170zM565 771v-116h-146v116h146zM234 655v116h146v-116h-146zM399 454l-69 -153h141z" />
    <glyph glyph-name="FL00E5h" unicode="&#xe5;" 
d="M330 301l69 153l72 -153h-141zM326 771v-116h146v116h-146zM326 614l-299 -614h170l73 163h259l77 -163h170l-300 614h-150z" />
    <glyph glyph-name="FL00E6h" unicode="&#xe6;" horiz-adv-x="1150" 
d="M611 609h505v-128h-347v-92h303v-137h-303v-124h347v-128h-502l-80 161h-260l-75 -161h-171l301 609h152l130 -261v261zM403 448l-70 -150h143z" />
    <glyph glyph-name="FL00E7h" unicode="&#xe7;" horiz-adv-x="654" 
d="M44 306q0 60 19.5 115.5t56 98t87.5 68.5t114 26h300v-128h-297q-23 0 -47.5 -15.5t-45 -40.5t-34 -57t-13.5 -66t13 -66t34 -57t47 -40t52 -15h291v-129h-165v-150h-175v104h66v46h-29q-66 0 -117 28t-86 72t-53 98.5t-18 107.5z" />
    <glyph glyph-name="FL00E8h" unicode="&#xe8;" horiz-adv-x="582" 
d="M264 655h117l-50 116h-152zM58 614v-614h492v129h-339v129h296v130h-296v98h339v128h-492z" />
    <glyph glyph-name="FL00E9h" unicode="&#xe9;" horiz-adv-x="582" 
d="M225 655h119l84 116h-152zM58 614v-614h492v129h-339v129h296v130h-296v98h339v128h-492z" />
    <glyph glyph-name="FL00EAh" unicode="&#xea;" horiz-adv-x="582" 
d="M329 655h150l-85 116h-180l-84 -116h150l25 44zM58 614v-614h492v129h-339v129h296v130h-296v98h339v128h-492z" />
    <glyph glyph-name="FL00EBh" unicode="&#xeb;" horiz-adv-x="582" 
d="M142 771v-116h144v116h-144zM467 655v116h-143v-116h143zM58 614v-614h492v129h-339v129h296v130h-296v98h339v128h-492z" />
    <glyph glyph-name="FL00ECh" unicode="&#xec;" horiz-adv-x="233" 
d="M57 0v614h141v-614h-141zM206 655h-108l-77 116h139z" />
    <glyph glyph-name="FL00EDh" unicode="&#xed;" horiz-adv-x="233" 
d="M57 0v614h141v-614h-141zM153 655h-106l45 116h139z" />
    <glyph glyph-name="FL00EEh" unicode="&#xee;" horiz-adv-x="248" 
d="M61 0v614h150v-614h-150zM306 655h-146l-25 44l-24 -44h-146l83 116h176z" />
    <glyph glyph-name="FL00EFh" unicode="&#xef;" horiz-adv-x="248" 
d="M61 0v614h150v-614h-150zM-23 655v116h140v-116h-140zM293 771v-116h-139v116h139z" />
    <glyph glyph-name="FL00F0h" unicode="&#xf0;" horiz-adv-x="693" 
d="M387 128h-178v124h313q-9 -26 -23.5 -48.5t-32.5 -39.5t-38.5 -26.5t-40.5 -9.5zM674 304q0 64 -24 119.5t-66.5 96.5t-100.5 65t-127 24h-298v-128h335q30 0 61 -27t54 -65h-450v-389h341q66 0 117.5 27.5t86.5 71.5t53 98t18 107z" />
    <glyph glyph-name="FL00F1h" unicode="&#xf1;" horiz-adv-x="668" 
d="M58 0v614h155v-64l51 64h197q46 0 79 -14.5t54 -38.5t31 -56t10 -66v-439h-157v415q0 31 -10 46t-42 15h-213v-476h-155zM227 771h127l28 -39l22 39h150l-85 -116h-126l-29 37l-21 -37h-151z" />
    <glyph glyph-name="FL00F2h" unicode="&#xf2;" horiz-adv-x="724" 
d="M44 304q0 70 25.5 131t70.5 106.5t105.5 72t129.5 26.5q71 0 131.5 -26t105 -71t69.5 -106.5t25 -132.5t-25.5 -131t-70 -104.5t-105 -69.5t-130.5 -25q-69 0 -129.5 25t-105.5 69.5t-70.5 104.5t-25.5 131zM187 304q0 -38 15 -71.5t40.5 -59t59 -40.5t71.5 -15
q39 0 73.5 14t60.5 39t41 59t15 74q0 39 -14.5 73.5t-39.5 61t-59.5 42t-74.5 15.5q-39 0 -73 -15.5t-59.5 -42t-40.5 -61.5t-15 -73zM454 655h-120l-86 117h155z" />
    <glyph glyph-name="FL00F3h" unicode="&#xf3;" horiz-adv-x="724" 
d="M44 304q0 70 25.5 131t70.5 106.5t105.5 72t129.5 26.5q71 0 131.5 -26t105 -71t69.5 -106.5t25 -132.5t-25.5 -131t-70 -104.5t-105 -69.5t-130.5 -25q-69 0 -129.5 25t-105.5 69.5t-70.5 104.5t-25.5 131zM187 304q0 -38 15 -71.5t40.5 -59t59 -40.5t71.5 -15
q39 0 73.5 14t60.5 39t41 59t15 74q0 39 -14.5 73.5t-39.5 61t-59.5 42t-74.5 15.5q-39 0 -73 -15.5t-59.5 -42t-40.5 -61.5t-15 -73zM415 655h-119l51 117h154z" />
    <glyph glyph-name="FL00F4h" unicode="&#xf4;" horiz-adv-x="724" 
d="M44 304q0 70 25.5 131t70.5 106.5t105.5 72t129.5 26.5q71 0 131.5 -26t105 -71t69.5 -106.5t25 -132.5t-25.5 -131t-70 -104.5t-105 -69.5t-130.5 -25q-69 0 -129.5 25t-105.5 69.5t-70.5 104.5t-25.5 131zM187 304q0 -38 15 -71.5t40.5 -59t59 -40.5t71.5 -15
q39 0 73.5 14t60.5 39t41 59t15 74q0 39 -14.5 73.5t-39.5 61t-59.5 42t-74.5 15.5q-39 0 -73 -15.5t-59.5 -42t-40.5 -61.5t-15 -73zM551 655h-151l-25 45l-25 -45h-153l86 117h183z" />
    <glyph glyph-name="FL00F5h" unicode="&#xf5;" horiz-adv-x="724" 
d="M44 304q0 70 25.5 131t70.5 106.5t105.5 72t129.5 26.5q71 0 131.5 -26t105 -71t69.5 -106.5t25 -132.5t-25.5 -131t-70 -104.5t-105 -69.5t-130.5 -25q-69 0 -129.5 25t-105.5 69.5t-70.5 104.5t-25.5 131zM187 304q0 -38 15 -71.5t40.5 -59t59 -40.5t71.5 -15
q39 0 73.5 14t60.5 39t41 59t15 74q0 39 -14.5 73.5t-39.5 61t-59.5 42t-74.5 15.5q-39 0 -73 -15.5t-59.5 -42t-40.5 -61.5t-15 -73zM252 772h128l28 -39l22 39h151l-85 -117h-127l-29 38l-21 -38h-152z" />
    <glyph glyph-name="FL00F6h" unicode="&#xf6;" horiz-adv-x="724" 
d="M44 304q0 70 25.5 131t70.5 106.5t105.5 72t129.5 26.5q71 0 131.5 -26t105 -71t69.5 -106.5t25 -132.5t-25.5 -131t-70 -104.5t-105 -69.5t-130.5 -25q-69 0 -129.5 25t-105.5 69.5t-70.5 104.5t-25.5 131zM187 304q0 -38 15 -71.5t40.5 -59t59 -40.5t71.5 -15
q39 0 73.5 14t60.5 39t41 59t15 74q0 39 -14.5 73.5t-39.5 61t-59.5 42t-74.5 15.5q-39 0 -73 -15.5t-59.5 -42t-40.5 -61.5t-15 -73zM540 772v-117h-145v117h145zM211 655v117h145v-117h-145z" />
    <glyph glyph-name="FL00F7h" unicode="&#xf7;" horiz-adv-x="494" 
d="M57 380h404v-133h-404v133zM332 230v-113h-139v113h139zM194 393v112h139v-112h-139z" />
    <glyph glyph-name="FL00F8h" unicode="&#xf8;" horiz-adv-x="724" 
d="M44 302q0 69 25.5 130t70.5 106.5t105.5 71.5t129.5 26q71 0 131.5 -26t105 -71t69.5 -106t25 -131t-25.5 -130t-70 -104t-105 -69t-130.5 -25q-69 0 -129.5 25t-105.5 69t-70.5 104t-25.5 130zM187 302q0 -26 6.5 -49.5t20.5 -45.5l205 280q-21 6 -44 6q-39 0 -73 -15.5
t-59.5 -42t-40.5 -61t-15 -72.5zM563 302q0 25 -7.5 49.5t-19.5 45.5l-199 -276q16 -3 36 -3q39 0 73.5 13.5t60.5 38t41 58t15 74.5z" />
    <glyph glyph-name="FL00F9h" unicode="&#xf9;" horiz-adv-x="668" 
d="M635 0h-156v64l-50 -64h-198q-47 0 -79.5 14.5t-53.5 38.5t-30.5 56t-9.5 67v438h156v-415q0 -31 9 -45.5t44 -14.5h212v475h156v-614zM425 655h-119l-86 116h154z" />
    <glyph glyph-name="FL00FAh" unicode="&#xfa;" horiz-adv-x="668" 
d="M635 0h-156v64l-50 -64h-198q-47 0 -79.5 14.5t-53.5 38.5t-30.5 56t-9.5 67v438h156v-415q0 -31 9 -45.5t44 -14.5h212v475h156v-614zM386 655h-119l51 116h153z" />
    <glyph glyph-name="FL00FBh" unicode="&#xfb;" horiz-adv-x="668" 
d="M635 0h-156v64l-50 -64h-198q-47 0 -79.5 14.5t-53.5 38.5t-30.5 56t-9.5 67v438h156v-415q0 -31 9 -45.5t44 -14.5h212v475h156v-614zM522 655h-151l-25 44l-25 -44h-152l86 116h182z" />
    <glyph glyph-name="FL00FCh" unicode="&#xfc;" horiz-adv-x="668" 
d="M635 614v-614h-156v64l-50 -64h-198q-47 0 -79.5 14.5t-53.5 38.5t-30.5 56t-9.5 67v438h156v-415q0 -31 9 -45.5t44 -14.5h212v475h156zM509 771v-116h-144v116h144zM182 655v116h145v-116h-145z" />
    <glyph glyph-name="FL00FDh" unicode="&#xfd;" horiz-adv-x="645" 
d="M413 0h-156v286l-235 328h184l129 -178l129 178h185l-236 -328v-286zM375 655h-120l51 116h154z" />
    <glyph glyph-name="FL00FEh" unicode="&#xfe;" horiz-adv-x="621" 
d="M57 609h154v-96h206q42 0 76 -19.5t58.5 -50.5t38 -69t13.5 -75q0 -33 -12 -70t-34 -67.5t-53 -51t-70 -20.5h-171l-51 65v-155h-155v609zM417 376h-205v-156h198q12 0 21 8t15.5 20t10 26t3.5 25q0 9 -3 22t-8.5 25t-13.5 21t-18 9z" />
    <glyph glyph-name="FL00FFh" unicode="&#xff;" horiz-adv-x="645" 
d="M413 0h-156v286l-235 328h184l129 -178l129 178h185l-236 -328v-286zM496 771v-116h-145v116h145zM168 655v116h145v-116h-145z" />
    <glyph glyph-name="FL0152h" unicode="&#x152;" horiz-adv-x="1013" 
d="M44 304q0 59 20 114t57 97.5t89 68t116 25.5h654v-128h-651q-23 0 -48 -15t-46 -39.5t-34.5 -56.5t-13.5 -65t13.5 -65t34.5 -57t47.5 -40t52.5 -15h645v-128h-657q-67 0 -119 27.5t-87.5 71.5t-54 98t-18.5 107zM477 252v137h503v-137h-503z" />
    <glyph glyph-name="FL0153h" unicode="&#x153;" horiz-adv-x="1013" 
d="M44 304q0 59 20 114t57 97.5t89 68t116 25.5h654v-128h-346v-92h302v-137h-302v-124h346v-128h-657q-67 0 -119 27.5t-87.5 71.5t-54 98t-18.5 107zM187 305q0 -33 13.5 -65t34.5 -57t47.5 -40t52.5 -15h141v353h-147q-23 0 -48 -15t-46 -39.5t-34.5 -56.5t-13.5 -65z
" />
    <glyph glyph-name="FL0160h" unicode="&#x160;" horiz-adv-x="646" 
d="M60 0v129h366q9 0 17.5 5t15 13t11 18t4.5 19q0 22 -13 40.5t-35 18.5h-200q-40 0 -72 15t-54.5 40.5t-34.5 58.5t-12 69q0 40 14.5 74.5t39.5 60t59 39.5t74 14h371v-128h-377q-18 0 -28 -20t-10 -40q0 -18 12.5 -36t24.5 -18h205q40 0 73 -15.5t57 -41t37 -59t13 -70.5
q0 -30 -11 -63t-31 -60t-48.5 -45t-64.5 -18h-403zM161 771h152l25 -45l25 45h151l-85 -116h-182z" />
    <glyph glyph-name="FL0161h" unicode="&#x161;" horiz-adv-x="646" 
d="M60 0v129h366q9 0 17.5 5t15 13t11 18t4.5 19q0 22 -13 40.5t-35 18.5h-200q-40 0 -72 15t-54.5 40.5t-34.5 58.5t-12 69q0 40 14.5 74.5t39.5 60t59 39.5t74 14h371v-128h-377q-18 0 -28 -20t-10 -40q0 -18 12.5 -36t24.5 -18h205q40 0 73 -15.5t57 -41t37 -59t13 -70.5
q0 -30 -11 -63t-31 -60t-48.5 -45t-64.5 -18h-403zM161 771h152l25 -45l25 45h151l-85 -116h-182z" />
    <glyph glyph-name="FL0178h" unicode="&#x178;" horiz-adv-x="658" 
d="M468 614h157v-427q0 -29 -11 -62t-31.5 -60.5t-49.5 -46t-65 -18.5h-403v129h366q17 0 27.5 17.5t10.5 36.5v60h-238q-40 0 -72 15t-54.5 40.5t-34.5 58.5t-12 69v188h153v-188q0 -21 13.5 -37.5t25.5 -16.5h218v242zM506 771v-116h-144v116h144zM179 655v116h145v-116
h-145z" />
    <glyph glyph-name="FL0192h" unicode="&#x192;" horiz-adv-x="745" 
d="M714 291l-15 -86l-22 2l36 -14l-39 -31l-31 22q-24 0 -50 23v-21l-39 -4h-6v1l-28 5q-12 20 -17 20q-6 0 -19 -21h-47v2l-41 -8v4l-5 -3q-11 0 -25.5 5t-28.5 18v-23l-44 -4v28q-14 -24 -40 -24q-1 0 -1.5 -0.5t-1.5 -0.5h-2q-3 -1 -13 -1q-36 0 -47 15v-16
q-11 -2 -14.5 -2.5t-5.5 -1.5q-1 0 -1 -1h-1q-2 -1 -11 -1q-17 0 -29.5 7t-19.5 24l-1 -15l-49 -13l14 113l43 5l-3 -30q12 11 35 19.5t58 12.5l-4 -34q12 18 35 30h16q27 0 43 -13v26l65 -57l4 48l41 -10v-53l7 58l47 7l-6 -66q8 17 16.5 31t19.5 28v-1q8 8 26 8
q21 0 35 -24v37l62 -60l4 47l42 -7v-82l6 89zM178 214q2 0 3.5 0.5t3.5 0.5q1 8 2 15t3 15l-2 2q-8 5 -10.5 6t-6.5 1q-5 -2 -14 -9q-12 -12 -12 -28q0 -6 10 -6q9 0 23 3zM259 240v5q0 1 -0.5 1.5t-0.5 1.5v-1q-5 3 -8 3q-10 0 -18 -17v-5q0 -10 4 -10q2 0 7 1t14 4h-1
q2 4 2.5 8t0.5 9zM656 209v-12l14 10z" />
    <glyph glyph-name="FL02C6h" unicode="&#x2c6;" horiz-adv-x="358" 
d="M362 402h-148l-23 35l-23 -35h-148l83 94h176z" />
    <glyph glyph-name="FL02DCh" unicode="&#x2dc;" horiz-adv-x="421" 
d="M105 495h123l27 -30l21 30h150l-85 -94h-123l-28 30l-20 -30h-150z" />
    <glyph glyph-name="FL2013h" unicode="&#x2013;" horiz-adv-x="384" 
d="M56 330v-116h296v116h-296z" />
    <glyph glyph-name="FL2014h" unicode="&#x2014;" horiz-adv-x="441" 
d="M57 330h352v-116h-352v116z" />
    <glyph glyph-name="FL2018h" unicode="&#x2018;" horiz-adv-x="218" 
d="M187 345h-136v140l136 94v-234z" />
    <glyph glyph-name="FL2019h" unicode="&#x2019;" horiz-adv-x="218" 
d="M51 569h136v-140l-136 -94v234z" />
    <glyph glyph-name="FL201Ah" unicode="&#x201a;" horiz-adv-x="218" 
d="M51 119h136v-140l-136 -94v234z" />
    <glyph glyph-name="FL201Ch" unicode="&#x201c;" horiz-adv-x="411" 
d="M379 345h-150v140l150 94v-234zM206 345h-149v140l149 94v-234z" />
    <glyph glyph-name="FL201Dh" unicode="&#x201d;" horiz-adv-x="411" 
d="M229 569h150v-140l-150 -94v234zM57 569h149v-140l-149 -94v234z" />
    <glyph glyph-name="FL201Eh" unicode="&#x201e;" horiz-adv-x="411" 
d="M229 119h150v-140l-150 -94v234zM57 119h149v-140l-149 -94v234z" />
    <glyph glyph-name="FL2020h" unicode="&#x2020;" horiz-adv-x="436" 
d="M404 468v-136h-98v-332h-151v332h-98v136h98v141h151v-141h98z" />
    <glyph glyph-name="FL2021h" unicode="&#x2021;" horiz-adv-x="436" 
d="M404 468v-136h-98v-39h98v-136h-98v-157h-151v157h-98v136h98v39h-98v136h98v141h151v-141h98z" />
    <glyph glyph-name="FL2022h" unicode="&#x2022;" horiz-adv-x="478" 
d="M43 296q0 42 16 80t44.5 67t66 46.5t81.5 17.5q45 0 83 -17t66 -46.5t44 -67.5t16 -80q0 -45 -16.5 -82.5t-45 -65t-67 -42.5t-82.5 -15q-42 0 -79.5 16t-65.5 43.5t-44.5 65t-16.5 80.5z" />
    <glyph glyph-name="FL2026h" unicode="&#x2026;" horiz-adv-x="599" 
d="M411 107v-107h155v107h-155zM234 107v-107h155v107h-155zM58 107v-107h154v107h-154z" />
    <glyph glyph-name="FL2030h" unicode="&#x2030;" horiz-adv-x="971" 
d="M464 -59q-36 0 -67.5 12.5t-55 35t-37 53t-14.5 66.5l-79 -108h-189l244 335q-20 -7 -46 -7q-37 0 -69 13t-55.5 36t-37 54.5t-13.5 68.5q0 36 13.5 67.5t37 55t55.5 37t69 13.5q36 0 66.5 -13t53.5 -35.5t36.5 -53t15.5 -65.5l79 107h188l-245 -334q11 3 23.5 5t26.5 2
q54 0 95 -28t62 -73q20 46 62 74t96 28q37 0 68.5 -13.5t55 -37t36.5 -55.5t13 -68q0 -37 -13.5 -68t-36.5 -54t-54.5 -36t-68.5 -13q-54 0 -96 26.5t-62 69.5q-22 -43 -62.5 -70t-94.5 -27zM425 111q0 -14 11.5 -25t26.5 -11q16 0 27 9.5t11 26.5q0 16 -10.5 27.5
t-27.5 11.5q-15 0 -26.5 -11.5t-11.5 -27.5zM181 499q0 -15 11 -26t27 -11q15 0 26 10t11 27q0 15 -10 26.5t-27 11.5q-16 0 -27 -11.5t-11 -26.5zM740 112q0 -14 11 -25t27 -11q15 0 26.5 9.5t11.5 26.5q0 16 -10.5 27.5t-27.5 11.5q-16 0 -27 -11.5t-11 -27.5z" />
    <glyph glyph-name="FL2039h" unicode="&#x2039;" horiz-adv-x="275" 
d="M269 370l-61 -63l62 -64l-90 -93l-152 157l152 155z" />
    <glyph glyph-name="FL203Ah" unicode="&#x203a;" horiz-adv-x="275" 
d="M27 243l91 -93l151 157l-151 155l-90 -92l60 -63z" />
    <glyph glyph-name="mu" unicode="&#x2122;" horiz-adv-x="1001" 
d="M992 279l-5 -2l-12 -28h-38l22 -26l2 -9v-7q0 -25 -29 -37l-52 11l-7 -55q-5 -20 -35 -20q-19 0 -31.5 3.5t-29.5 13.5l-55 -55l-41 -7l-38 29l-114 -52l-32 11v27l-146 -21l-30 18l6 22l-155 13v36l4 4l-75 14q-30 1 -30 41l26 18l-53 23l-14 45l61 9l-22 27l3 51l72 -8
q3 78 43 78h3l60 -19q23 26 40.5 40.5t40.5 24.5l57 -31l115 51l32 -28l-2 -13l112 20l60 -5l-5 -33h134l22 -17q0 -22 -6 -34l106 -24v-17q0 -22 -20 -33q56 -23 56 -49zM593 339l-5 -76q14 38 37 67v-1q7 10 26 10q20 0 36 -28v41l61 -67l4 54l43 -9v-93l6 101l29 -5
l-11 6l65 17l-143 28l40 27h-139l10 36l-153 -21l-7 38l-114 -49l-47 30l-61 -59q-4 -4 -20 -4q-22 0 -51 16l-10 -72l-76 7l1 -6v1l59 -66l-57 -3l74 -36l12 105l44 6l-3 -34q22 27 94 36l-4 -39q7 11 15 19.5t20 15.5h17q26 0 43 -15v29l66 -64l4 54l41 -11v-62l8 67z
M693 207h-6v1l-27 6q-13 22 -20 22q-5 0 -19 -23h-47v2l-42 -10v5l-5 -5q-24 0 -55 28v-26l-44 -5v32q-15 -29 -40 -29h-5q-3 -1 -14 -1q-36 0 -48 18v-19l-13.5 -3t-6.5 -2q-1 0 -1 -1h-1q-2 -1 -12 -1q-36 0 -49 37l-1 -18l-48 -16l1 13l-44 -17l139 -29l-41 -26l148 -5
l-16 -33l139 22l27 -30l-2 -3l107 46l52 -30l60 63l72 -22l4 55l-22 -19l-31 25q-24 0 -51 27v-25zM838 233l-22 2l21 -9v1l77 -12q-7 10 -22 27t-40 42l73 5l-72 33zM287 240q5 0 13 1t18 3q2 16 6 32v2l-2 2q-8 5 -11 6.5t-7 1.5q-2 -2 -5.5 -3.5t-9.5 -6.5
q-12 -14 -12 -32q0 -6 10 -6zM393 272v6q0 1 -0.5 1.5t-0.5 1.5v-1q-4 4 -7 4q-12 0 -19 -19v-6q0 -12 4 -12q2 0 7 0.5t13 4.5q2 5 2.5 9.5t0.5 10.5zM795 237v-13l14 11z" />
    </font>
</defs>
</svg>
