<?xml version="1.0" standalone="no"?>
<!DOCTYPE svg PUBLIC "-//W3C//DTD SVG 1.1//EN" "http://www.w3.org/Graphics/SVG/1.1/DTD/svg11.dtd" >
<svg xmlns="http://www.w3.org/2000/svg" xmlns:xlink="http://www.w3.org/1999/xlink" version="1.1">
<metadata>
Created by FontForge 20170731 at Fri Jan  1 02:30:17 1904
 By Aleksey,,,
(c) 2000 Nick Curtis. All Rights Reserved. Generated by Fontographer 3.52 
</metadata>
<defs>
<font id="Perisphere" horiz-adv-x="275" >
  <font-face 
    font-family="Perisphere"
    font-weight="400"
    font-stretch="normal"
    units-per-em="1000"
    panose-1="0 0 0 0 0 0 0 0 0 0"
    ascent="800"
    descent="-200"
    x-height="469"
    cap-height="620"
    bbox="-103 -200 944 740"
    underline-thickness="50"
    underline-position="-155"
    unicode-range="U+0020-F002"
  />
<missing-glyph 
 />
    <glyph glyph-name=".notdef" 
 />
    <glyph glyph-name="glyph1" horiz-adv-x="0" 
 />
    <glyph glyph-name="glyph2" 
 />
    <glyph glyph-name="space" unicode=" " 
 />
    <glyph glyph-name="space" unicode="&#xa0;" 
 />
    <glyph glyph-name="exclam" unicode="!" horiz-adv-x="103" 
d="M69 0h-35v38h35v-38v0zM69 115h-35v505h35v-505v0z" />
    <glyph glyph-name="quotedbl" unicode="&#x22;" horiz-adv-x="184" 
d="M178 641l-69 -120l-31 18l69 120l31 -18v0zM108 651l-69 -120l-31 18l69 120l31 -18v0z" />
    <glyph glyph-name="numbersign" unicode="#" horiz-adv-x="500" 
 />
    <glyph glyph-name="dollar" unicode="$" horiz-adv-x="377" 
d="M206 -90h-36v144h36v-144v0zM360 529h-18h-83h-84q-43 0 -71.5 -22.5t-28.5 -69.5q0 -31 36 -51t79 -37q1 0 1.5 -0.5t1.5 -0.5q54 -22 99 -49.5t45 -82.5q0 -32 -9 -55t-27 -38q-17 -14 -42 -21t-57 -7h-46h-46h-47h-46v36h46h47h46h46q26 0 45 4.5t31 14.5t17.5 26.5
t5.5 39.5q0 36 -37 58t-81 40q-2 0 -3.5 0.5t-2.5 1.5t-2.5 1.5t-2.5 0.5q-51 21 -92 46t-41 73q0 29 9.5 53t27.5 40q18 17 43 25.5t56 8.5h93h92v-35v0zM206 585h-36v144h36v-144v0z" />
    <glyph glyph-name="percent" unicode="%" horiz-adv-x="500" 
 />
    <glyph glyph-name="ampersand" unicode="&#x26;" horiz-adv-x="645" 
d="M616 34l-5 -35l-18 2q-44 6 -79.5 34t-52.5 68q-31 -50 -84.5 -76t-112.5 -27h-2.5h-3.5q-43 0 -85 13.5t-75 40.5q-32 26 -50.5 60t-18.5 74q0 68 48.5 115t109.5 64q-32 19 -51 50t-19 69q0 57 27.5 87t68.5 42q14 4 28 6.5t28 3.5q7 0 14 0.5t14 0.5q22 0 43.5 -2
t43.5 -5q4 0 8.5 -0.5t8.5 -1.5l-5 -35q-24 3 -49 5.5t-51 2.5q-19 0 -37.5 -2t-35.5 -7q-30 -9 -50 -31t-20 -64q0 -54 40 -80.5t88 -29.5h6.5h6.5v-36h-18h-19t-20.5 -1t-21.5 -3q-56 -11 -103 -48.5t-47 -99.5q0 -31 15 -58.5t40 -47.5q26 -22 59.5 -33t68.5 -13h5h5
q65 0 121 33.5t69 100.5q2 62 43 108.5t102 53.5q5 1 9.5 1.5t8.5 1.5l5 -36q-2 0 -4.5 -0.5t-4.5 -0.5t-4.5 -0.5t-4.5 -0.5q-53 -7 -83.5 -46t-30.5 -86v-7.5t1 -7.5q2 -18 9.5 -35.5t21.5 -33.5q21 -24 45.5 -33t54.5 -14v0z" />
    <glyph glyph-name="quotesingle" unicode="'" horiz-adv-x="136" 
d="M118 651l-69 -120l-31 18l69 120l31 -18v0z" />
    <glyph glyph-name="parenleft" unicode="(" horiz-adv-x="184" 
d="M177 -61l-24 -27q-32 31 -59 73.5t-46 95.5q-19 54 -28.5 113t-8.5 119q0 60 9 118.5t28 112.5q19 53 46 96.5t59 72.5l24 -27q-29 -26 -53.5 -65.5t-41.5 -88.5q-18 -51 -27 -107t-9 -113t9 -112.5t27 -106.5q17 -49 41.5 -88t53.5 -65v-1z" />
    <glyph glyph-name="parenright" unicode=")" horiz-adv-x="184" 
d="M9 -61q29 27 53.5 66t41.5 88q18 51 27 107t9 113t-9 112.5t-27 106.5q-17 49 -41.5 88.5t-53.5 65.5l24 27q32 -29 59 -72.5t46 -96.5q19 -54 28.5 -113t8.5 -119q0 -60 -9 -118.5t-28 -112.5q-19 -53 -46 -95.5t-59 -72.5l-24 26v0z" />
    <glyph glyph-name="asterisk" unicode="*" horiz-adv-x="500" 
 />
    <glyph glyph-name="plus" unicode="+" horiz-adv-x="500" 
 />
    <glyph glyph-name="comma" unicode="," horiz-adv-x="136" 
d="M118 31l-69 -120l-31 18l69 120l31 -18v0z" />
    <glyph glyph-name="hyphen" unicode="-" horiz-adv-x="179" 
d="M169 298v-36h-150v36h150v0z" />
    <glyph glyph-name="period" unicode="." horiz-adv-x="103" 
d="M69 0h-35v38h35v-38v0z" />
    <glyph glyph-name="slash" unicode="/" horiz-adv-x="149" 
d="M30 -130h-36l120 770h36l-120 -770v0z" />
    <glyph glyph-name="zero" unicode="0" horiz-adv-x="559" 
d="M533 310q0 -66 -17 -123.5t-52 -100.5t-84 -64.5t-101 -21.5t-100.5 21.5t-83.5 64.5q-34 43 -52 100.5t-18 123.5q0 116 61.5 213t192.5 97t192.5 -96.5t61.5 -213.5v0zM497 310v6.5v7.5q-3 98 -54.5 179.5t-163.5 81.5t-164 -83t-54 -183v-5v-4q0 -60 15.5 -112
t46.5 -90q29 -37 71 -55t86 -18t85.5 18.5t70.5 54.5q30 38 45.5 90t15.5 112v0z" />
    <glyph glyph-name="one" unicode="1" horiz-adv-x="229" 
d="M213 0h-18h-17v286.5v286.5q-11 -6 -25 -13.5t-29 -14.5l-4 -2l-4 -2q-30 -15 -56 -27.5t-32 -12.5h-8.5h-9.5v17v18h9.5h8.5q3 0 27 12.5t52 27.5q1 0 1.5 0.5t1.5 0.5q29 15 53 28l24 13q7 4 13.5 7.5t12.5 6.5v-315.5v-316.5v0z" />
    <glyph glyph-name="two" unicode="2" horiz-adv-x="492" 
d="M470 0h-434v9.5v8.5q3 94 72 158.5t152 108.5q28 15 56 28t53 25q27 13 43.5 39.5t20.5 55.5q0 5 0.5 9t0.5 8q0 53 -40.5 84.5t-89.5 43.5q-16 3 -31 5t-29 2q-11 0 -23 -1t-24 -4q-42 -8 -80.5 -32t-54.5 -64q-1 -2 -1.5 -4t-1.5 -4l-2 -4l-2 -4l-33 13l7 17
q26 62 87 92t129 30q44 0 85 -12t72 -35q32 -23 50 -54.5t18 -68.5v-6.5t-1 -6.5q-3 -41 -25.5 -77.5t-59.5 -53.5q-25 -12 -53.5 -25t-57.5 -29q-70 -38 -129.5 -90.5t-69.5 -125.5h396v-36v0z" />
    <glyph glyph-name="three" unicode="3" horiz-adv-x="567" 
d="M541 178q0 -78 -57 -118t-126 -53q-19 -4 -38 -5.5t-37 -1.5q-19 0 -40.5 2.5t-43.5 7.5q-61 15 -113 53t-58 102q-1 5 -1.5 9.5t-0.5 8.5l35 4q4 -38 19.5 -63.5t49.5 -47.5q32 -20 74 -30.5t85 -10.5q44 0 86 10.5t73 32.5q29 20 43.5 45t14.5 51v4.5t-1 4.5
q-3 26 -19 50t-44 43q-31 20 -73.5 32t-91.5 13v36q15 0 35.5 3.5t42.5 9.5q40 13 73.5 38t33.5 63q0 45 -36.5 70t-79.5 35q-20 5 -39 7t-35 2q-15 0 -32 -2.5t-35 -6.5q-39 -11 -72.5 -34.5t-37.5 -63.5q0 -4 -0.5 -8.5t-1.5 -9.5l-35 4l2 18q5 54 48.5 85.5t94.5 44.5
q18 4 35.5 6t33.5 2q17 0 36.5 -2t39.5 -6q56 -12 103 -45.5t47 -95.5q0 -43 -30.5 -74t-67.5 -49q-4 -2 -8.5 -3.5t-8.5 -3.5l12 -4l12 -4q50 -20 92 -58.5t42 -96.5v0z" />
    <glyph glyph-name="four" unicode="4" horiz-adv-x="550" 
d="M525 182h-127v-182h-36v182h-336q-1 5 -1 9.5v8.5v4v5v4v4q0 108 28.5 209.5t74.5 199.5l32 -15q-44 -94 -71.5 -191t-27.5 -202h301v402h36v-200.5v-201.5h127v-36v0z" />
    <glyph glyph-name="five" unicode="5" horiz-adv-x="525" 
d="M501 197q0 -80 -60.5 -126.5t-133.5 -62.5q-19 -4 -38 -6t-37 -2q-59 0 -110 18t-98 54l22 28l14 -11q35 -27 80.5 -40t93.5 -13q46 0 89 12t77 36q30 21 46 48t19 56v4.5v5.5q0 29 -15 57t-46 50q-31 23 -72 36t-84 16q-8 1 -16 1h-16q-22 0 -42.5 -2.5t-40.5 -7.5
q-18 -4 -34.5 -12.5t-32.5 -16.5q-6 -4 -11.5 -7t-11.5 -6q6 39 11.5 78.5t11.5 78.5q6 40 11.5 79t11.5 78h401v-35h-370l-31 -215q24 11 50 16t52 6q10 1 20.5 1h20.5q18 0 37.5 -2t39.5 -7q72 -16 132 -62.5t60 -124.5v0z" />
    <glyph glyph-name="six" unicode="6" horiz-adv-x="537" 
d="M484 579l-22 -28q-27 20 -63 31t-73 12h-5.5h-4.5q-40 0 -77.5 -10t-67.5 -30q-43 -28 -68.5 -75.5t-36.5 -98.5q-4 -18 -6 -35.5t-3 -34.5v-2.5v-2.5v-3v-3q0 -55 15 -105t46 -88q27 -34 67.5 -53.5t94.5 -19.5h8h8q67 4 122.5 41.5t55.5 112.5q0 35 -14 63t-38 47
q-28 23 -64.5 34t-74.5 11h-2.5h-2.5q-54 -2 -103.5 -25.5t-73.5 -71.5l-31 16q29 57 87.5 86.5t122.5 29.5h2.5h2.5q44 0 85.5 -13t73.5 -39q33 -27 49.5 -63.5t16.5 -74.5t-16.5 -74.5t-49.5 -62.5q-31 -25 -73.5 -38.5t-90.5 -13.5q-63 0 -110.5 23t-79.5 63
q-35 44 -52 100t-17 114v8v8q2 41 12 81t26 75q17 37 40.5 66t51.5 47q32 22 73 33.5t83 13.5h5.5h5.5q45 0 88.5 -12.5t77.5 -38.5v0z" />
    <glyph glyph-name="seven" unicode="7" horiz-adv-x="544" 
d="M519 620q-39 -162 -117.5 -314.5t-164.5 -295.5q-2 -4 -4.5 -8t-5.5 -8l-31 18q51 83 99 169t90 174q29 63 52 121t36 109h-413v-121h-35v157q62 0 123.5 -0.5t123.5 -0.5h123.5h123.5v0z" />
    <glyph glyph-name="eight" unicode="8" horiz-adv-x="557" 
d="M532 180q0 -70 -54 -112t-118 -58q-21 -5 -41.5 -7.5t-39.5 -2.5t-40 2.5t-42 8.5q-64 16 -118 58t-54 111q0 60 43 100.5t94 59.5q3 1 5.5 2t5.5 2q-40 17 -73.5 49.5t-33.5 79.5q0 57 44.5 91t97.5 47q18 5 36.5 7t34.5 2q17 0 35.5 -2.5t37.5 -7.5q52 -13 96 -46.5
t44 -90.5q0 -47 -33.5 -79.5t-74.5 -49.5q1 0 2.5 -0.5t3.5 -1.5q53 -18 97.5 -59.5t44.5 -102.5v0zM496 180q0 54 -42.5 86.5t-94.5 46.5q-21 6 -41.5 9t-38.5 3t-38.5 -3t-41.5 -8q-52 -14 -95 -47t-43 -87q0 -53 43 -85.5t94 -46.5q21 -6 42 -9t39 -3t38.5 3t41.5 8
q52 14 94.5 46.5t42.5 86.5v0zM456 473q0 41 -33.5 65.5t-73.5 36.5q-19 5 -37 7.5t-33 2.5t-33 -2.5t-36 -7.5q-41 -11 -74.5 -36t-33.5 -66t33.5 -66t74.5 -36q18 -5 36 -7.5t33 -2.5t33 2.5t37 7.5q40 11 73.5 36t33.5 66v0z" />
    <glyph glyph-name="nine" unicode="9" horiz-adv-x="537" 
d="M477 320v3v3v2.5v2.5q0 55 -15 105t-46 88q-27 34 -67.5 53.5t-94.5 19.5h-8h-8q-67 -4 -122.5 -41.5t-55.5 -112.5q0 -34 14 -62t38 -48q28 -22 64.5 -33.5t74.5 -11.5h2.5h2.5q54 2 103.5 25.5t73.5 71.5l31 -16q-29 -57 -87.5 -86.5t-122.5 -29.5h-2.5h-2.5
q-43 0 -85 13t-74 39q-33 27 -49.5 63.5t-16.5 74.5t16.5 74.5t49.5 62.5q31 26 73.5 39.5t90.5 13.5q63 0 110.5 -23.5t79.5 -63.5q35 -43 52 -99t17 -115v-8v-8q-2 -41 -11.5 -81t-26.5 -75q-17 -37 -40.5 -66t-51.5 -47q-32 -22 -73 -33.5t-83 -13.5h-5.5h-5.5
q-45 0 -88 13t-78 38l22 28q27 -20 63 -31t73 -12h5.5h4.5q40 0 77.5 10.5t67.5 29.5q43 28 68.5 75.5t36.5 98.5q4 18 6 35.5t3 34.5v0z" />
    <glyph glyph-name="colon" unicode=":" horiz-adv-x="103" 
d="M69 0h-35v38h35v-38v0zM69 100h-35v38h35v-38v0z" />
    <glyph glyph-name="semicolon" unicode=";" horiz-adv-x="136" 
d="M118 31l-69 -120l-31 18l69 120l31 -18v0zM119 100h-35v38h35v-38v0z" />
    <glyph glyph-name="less" unicode="&#x3c;" horiz-adv-x="500" 
 />
    <glyph glyph-name="equal" unicode="=" horiz-adv-x="500" 
 />
    <glyph glyph-name="greater" unicode="&#x3e;" horiz-adv-x="500" 
 />
    <glyph glyph-name="question" unicode="?" horiz-adv-x="249" 
d="M117 0h-35v38h35v-38v0zM221 541q8 -15 12 -30.5t4 -31.5q0 -22 -7 -43t-21 -41q-1 -2 -3 -4.5t-4 -4.5q-3 -4 -7 -8.5t-9 -9.5l-10 -10t-10 -11q-18 -21 -33.5 -49.5t-15.5 -64.5v-125h-36v31.5v31.5v30.5v31.5q0 43 17 75.5t37 56.5q6 7 12.5 14t12.5 13q6 7 11.5 13
t8.5 10q11 15 16.5 31.5t5.5 33.5q0 11 -3 22.5t-9 21.5q-16 28 -44.5 43.5t-60.5 17.5h-4.5h-5.5h-16h-16h-16h-16v35h18h22.5h23.5h2.5h3.5q42 -1 80.5 -21t59.5 -58v0z" />
    <glyph glyph-name="at" unicode="@" horiz-adv-x="500" 
 />
    <glyph glyph-name="A" unicode="A" horiz-adv-x="642" 
d="M608 2l-35 -4q-2 23 -5 44.5t-7 43.5h-438q-4 -22 -7 -43.5t-5 -43.5l-35 3q2 21 4.5 42t6.5 42h-72v36h78q27 139 88 263.5t161 231.5q122 -130 186 -284.5t80 -330.5v0zM555 122q-25 122 -77 234.5t-136 207.5q-85 -95 -136.5 -207.5t-76.5 -234.5h426v0z" />
    <glyph glyph-name="B" unicode="B" horiz-adv-x="544" 
d="M519 194q0 -91 -50.5 -142.5t-141.5 -51.5h-265v337h-52v36h52v124v123h288q69 0 103.5 -43t35.5 -95v-1.5v-1.5q0 -39 -19 -74.5t-57 -53.5q45 -22 75.5 -63.5t30.5 -93.5v0zM483 194q0 57 -45.5 97t-100.5 45q-4 1 -8 1h-8h-223v-301h229q76 0 116 41t40 117v0z
M350 373q53 0 79 33.5t25 73.5v1.5v1.5q-1 38 -27 70t-77 32h-252v-212h55h197v0z" />
    <glyph glyph-name="C" unicode="C" horiz-adv-x="456" 
d="M435 10l-17 -4q-19 -4 -37.5 -5t-37.5 -1q-130 0 -226 83t-96 227q0 153 99 231.5t229 77.5q11 0 21.5 -0.5t21.5 -1.5t21.5 -2.5t21.5 -3.5l-7 -35q-20 4 -40 6t-40 2q-116 0 -203.5 -68.5t-87.5 -205.5t88 -205t204 -68q20 0 39.5 2t39.5 6l7 -35v0z" />
    <glyph glyph-name="D" unicode="D" horiz-adv-x="547" 
d="M522 310q0 -145 -95.5 -227.5t-235.5 -82.5h-166v620h166q140 0 235.5 -82t95.5 -228v0zM486 310q0 131 -84.5 203t-210.5 72h-130v-549h130q126 0 210.5 72t84.5 202v0z" />
    <glyph glyph-name="E" unicode="E" horiz-adv-x="549" 
d="M521 328h-416v-292h368v-36h-404v328h-60v35h60v257h404v-35h-368v-222h416v-35v0z" />
    <glyph glyph-name="F" unicode="F" horiz-adv-x="552" 
d="M525 328h-417v-328h-35v328h-62v35h62v257h404v-35h-369v-222h417v-35v0z" />
    <glyph glyph-name="G" unicode="G" horiz-adv-x="569" 
d="M543 596l-11 -34q-2 1 -4 1.5t-4 1.5q-3 1 -5 1.5t-4 1.5q-30 10 -62.5 14.5t-66.5 4.5h-10h-10q-94 -5 -177.5 -51t-113.5 -140q-7 -20 -10.5 -42t-2.5 -45q0 -22 3 -43.5t10 -41.5q30 -93 113.5 -139.5t177.5 -50.5q6 -1 11.5 -1h11.5q29 0 58 4.5t56 11.5v277h-160v36
h195v-339l-6 -2l-6 -2q-33 -10 -68.5 -15t-71.5 -5h-8h-8q-107 3 -201 55.5t-128 158.5q-6 17 -9.5 35.5t-4.5 37.5q-1 6 -1 12.5v12.5q0 25 4 49.5t11 46.5q34 106 128 158.5t200 57.5h10h10q35 0 70 -5t67 -16q2 -1 4 -1.5t5 -1.5q2 -1 4 -1.5t4 -1.5v0z" />
    <glyph glyph-name="H" unicode="H" horiz-adv-x="574" 
d="M544 0h-36v328h-397v-328h-36v328h-68v35h68v257h36v-257h397v257h36v-620v0z" />
    <glyph glyph-name="I" unicode="I" horiz-adv-x="105" 
d="M70 0h-36v620h36v-620v0z" />
    <glyph glyph-name="J" unicode="J" horiz-adv-x="273" 
d="M254 197q0 -46 -12.5 -82t-37.5 -62t-60.5 -39.5t-80.5 -13.5h-25.5h-25.5v36h8h8h7.5h7.5q37 0 72.5 6.5t62.5 34.5q20 20 30 50.5t10 69.5v423h36v-77v-169v-95.5v-81.5v0z" />
    <glyph glyph-name="K" unicode="K" horiz-adv-x="550" 
d="M523 0h-36q-1 3 -2 6.5t-2 7.5q-31 125 -98.5 234.5t-165.5 194.5q-38 -16 -78.5 -27.5t-84.5 -16.5v-399h-35v620h35v-185q103 14 191 61.5t157 123.5h49q-3 -4 -6.5 -7.5t-7.5 -6.5q-3 -4 -6.5 -7.5l-7.5 -7.5q-36 -40 -79 -73t-92 -58q98 -87 165.5 -199t98.5 -239
q1 -3 1.5 -5.5t1.5 -5.5t1.5 -5.5t0.5 -5.5v0z" />
    <glyph glyph-name="L" unicode="L" horiz-adv-x="371" 
d="M354 0h-337v620h36v-584h301v-36v0z" />
    <glyph glyph-name="M" unicode="M" horiz-adv-x="669" 
d="M642 0h-36v566q-102 -83 -171.5 -195.5t-87.5 -244.5h-35q-19 132 -88 244.5t-172 195.5v-566h-36v638q4 -3 7.5 -5.5t7.5 -4.5q3 -3 6.5 -5.5t7.5 -5.5q101 -75 175.5 -176.5t108.5 -223.5q34 122 109 223.5t176 176.5q3 3 6.5 5.5t7.5 5.5q4 2 7.5 4.5t6.5 5.5v-638v0z
" />
    <glyph glyph-name="N" unicode="N" horiz-adv-x="577" 
d="M551 0h-36v178q-53 155 -171 262.5t-282 135.5v-576h-36v617q165 -22 291.5 -109t197.5 -234v346h36v-620v0z" />
    <glyph glyph-name="O" unicode="O" horiz-adv-x="622" 
d="M598 311q0 -121 -82.5 -216t-209.5 -95q-126 0 -209 94.5t-83 216.5t82.5 216.5t209.5 94.5q126 0 209 -94.5t83 -216.5v0zM562 311q0 107 -72 191t-184 84q-111 0 -183.5 -84t-72.5 -191t72 -191t184 -84t184 84t72 191v0z" />
    <glyph glyph-name="P" unicode="P" horiz-adv-x="541" 
d="M517 393q0 -101 -76 -164.5t-171 -63.5h-10t-10 1q-6 0 -11 0.5t-10 1.5q-12 2 -23 5.5t-22 6.5q-3 2 -6.5 3t-7.5 2l12 34q13 -4 26 -8.5t27 -6.5q9 -1 18.5 -2t19.5 -1q80 0 144 53t64 139q0 84 -64 138t-144 54h-213v-585h-35v620h124h124q95 0 169.5 -64t74.5 -163v0
z" />
    <glyph glyph-name="Q" unicode="Q" horiz-adv-x="629" 
d="M611 -66l-27 -24q-2 4 -4.5 6.5t-5.5 4.5q-20 21 -42.5 33t-53.5 20q-33 10 -76.5 16t-98.5 10q-61 5 -111.5 24.5t-94.5 66.5q-40 44 -60 101.5t-20 118.5v5.5v4.5q2 58 22 112.5t58 96.5q41 44 95.5 67t112.5 23t112.5 -23t94.5 -67q41 -45 61 -102t20 -116
q0 -90 -45.5 -171t-131.5 -118q57 -9 106 -26t89 -62v-1zM486 115q35 39 53 90.5t17 105.5q0 54 -17.5 105.5t-52.5 89.5q-36 38 -83.5 58.5t-97.5 20.5q-51 0 -98.5 -20.5t-83.5 -58.5q-35 -39 -53 -90.5t-17 -105.5q0 -54 17.5 -105.5t52.5 -89.5t80 -57.5t92 -21.5h4.5
h5.5q50 0 97.5 20t83.5 59v0z" />
    <glyph glyph-name="R" unicode="R" horiz-adv-x="588" 
d="M561 34l-7 -35q-10 2 -20 4.5t-20 4.5q-92 25 -180 74t-152 121l19 29q12 -4 24 -6.5t24 -4.5q6 0 12 -0.5t12 -0.5h4h5q76 3 140 51t64 131q0 80 -62 129.5t-137 53.5h-5.5h-5.5h-213v-585h-36v620h124.5h124.5q92 0 169 -60t77 -158q0 -97 -75.5 -156.5t-166.5 -61.5
h-3.5h-2.5h-10.5t-10.5 1q66 -54 146 -94t162 -57v0z" />
    <glyph glyph-name="S" unicode="S" horiz-adv-x="417" 
d="M398 169q0 -7 -0.5 -14.5t-1.5 -14.5q-11 -71 -65 -101t-116 -37q-15 -2 -29 -2h-28q-35 0 -69.5 3t-69.5 8l5 36q17 -3 33.5 -5t33.5 -4q17 -1 33.5 -2t33.5 -1q15 0 30.5 1t32.5 3q48 6 89.5 29.5t49.5 76.5q1 5 1.5 11t0.5 13q0 56 -46.5 85t-102.5 51q-3 1 -5.5 2
t-5.5 2q-58 22 -106.5 49t-56.5 79h-1v15v13q1 5 1 10.5t1 10.5q11 74 67.5 104t121.5 34q7 1 14.5 1h14.5q30 0 59 -3t57 -8l-5 -35l-17 2q-22 4 -46 6t-48 2q-9 0 -18.5 -0.5t-19.5 -1.5q-50 -4 -93 -27t-52 -80q-1 -5 -1 -11.5v-13.5q0 -42 39 -65t89 -43q3 -1 6 -2.5
t6 -2.5t5.5 -2t5.5 -2q65 -25 119 -60t54 -109v0z" />
    <glyph glyph-name="T" unicode="T" horiz-adv-x="425" 
d="M406 587h-176v-587h-35v587h-176v36h387v-36v0z" />
    <glyph glyph-name="U" unicode="U" horiz-adv-x="510" 
d="M487 198q0 -86 -66 -138.5t-145 -58.5q-5 -1 -10.5 -1h-10.5h-10.5t-10.5 1q-79 6 -145 58.5t-66 138.5v425h36v-106v-106v-107v-106q0 -67 51 -108.5t112 -51.5q9 -1 17 -1.5t16 -0.5t16 0.5t17 1.5q61 10 112 51.5t51 108.5v425h36v-106v-106v-107v-106v0z" />
    <glyph glyph-name="V" unicode="V" horiz-adv-x="506" 
d="M489 618q-23 -164 -77 -318t-147 -292q-2 -3 -4 -5.5t-3 -4.5q-2 -3 -4 -5.5t-4 -5.5q-2 3 -4 5.5t-3 5.5q-2 2 -4 4.5t-4 5.5q-93 138 -147 292t-77 318l35 5l3 -18q20 -147 70 -288.5t131 -266.5q80 125 130.5 266.5t70.5 288.5q1 5 1.5 9.5t0.5 8.5l36 -5v0z" />
    <glyph glyph-name="W" unicode="W" horiz-adv-x="817" 
d="M800 618q-19 -160 -64.5 -314.5t-127.5 -294.5q-4 -7 -7.5 -13t-7.5 -13q-69 118 -115.5 242.5t-72.5 259.5q-25 -135 -72 -259.5t-115 -242.5q-4 7 -8 13t-8 13q-82 140 -127 294.5t-65 314.5l36 4l2 -17q17 -143 58.5 -283t111.5 -268q69 128 111 268t58 283h36
q17 -143 58.5 -283t111.5 -268q72 133 113 276t58 292l36 -4v0z" />
    <glyph glyph-name="X" unicode="X" horiz-adv-x="513" 
d="M489 0h-37q-16 50 -36.5 96t-50.5 89q-23 32 -50 61.5t-58 56.5q-31 -27 -58.5 -56.5t-50.5 -61.5q-30 -43 -50.5 -89t-36.5 -96h-38q2 7 4.5 13.5t4.5 13.5q28 89 77.5 163.5t119.5 135.5q-65 56 -117 122.5t-80 148.5l-4 12t-4 11h38l4 -12q26 -79 77 -142t114 -116
q62 53 113 116t77 142q2 3 2.5 6t1.5 6h38q-1 -5 -3.5 -11t-4.5 -12q-28 -82 -80 -148.5t-117 -122.5q70 -61 119.5 -135.5t77.5 -163.5q2 -7 4.5 -13.5t3.5 -13.5v0z" />
    <glyph glyph-name="Y" unicode="Y" horiz-adv-x="533" 
d="M512 620l-1 -18q-5 -122 -42 -224t-98 -180q-64 -81 -150 -132t-186 -66q-4 0 -8.5 -0.5t-9.5 -0.5l-5 34q5 1 9.5 1.5t8.5 1.5q88 13 164.5 56.5t135.5 112.5q-108 67 -177.5 167t-77.5 229q-1 5 -1 9.5v8.5l35 3q0 -2 0.5 -4.5t0.5 -4.5t0.5 -4.5t0.5 -4.5
q8 -121 73.5 -215t167.5 -156q64 86 92 184.5t32 203.5l36 -1v0z" />
    <glyph glyph-name="Z" unicode="Z" horiz-adv-x="473" 
d="M453 0h-437q66 84 130 170.5t119 178.5q38 66 63.5 125t32.5 111h-299v35h338v-4.5v-4.5q-1 -2 -1 -4.5v-5.5q-4 -58 -31.5 -126t-72.5 -144q-40 -68 -92.5 -142.5t-113.5 -152.5h364v-36v0z" />
    <glyph glyph-name="bracketleft" unicode="[" horiz-adv-x="500" 
 />
    <glyph glyph-name="backslash" unicode="\" horiz-adv-x="149" 
d="M120 -130l-120 770h36l120 -770h-36v0z" />
    <glyph glyph-name="bracketright" unicode="]" horiz-adv-x="500" 
 />
    <glyph glyph-name="asciicircum" unicode="^" horiz-adv-x="500" 
 />
    <glyph glyph-name="underscore" unicode="_" horiz-adv-x="286" 
d="M312 -2v-36h-310v36h310v0z" />
    <glyph glyph-name="grave" unicode="`" horiz-adv-x="230" 
d="M191 674l-11 -34l-161 51l11 34l161 -51v0z" />
    <glyph glyph-name="a" unicode="a" horiz-adv-x="438" 
d="M416 0h-219q-8 0 -16.5 0.5t-17.5 1.5q-56 6 -103.5 36t-47.5 97q0 65 46.5 93.5t102.5 34.5q10 1 20 1.5t20 0.5h34.5t34.5 1h34.5h35.5v-36h-139q-12 0 -24.5 -1t-25.5 -3q-39 -5 -71 -25.5t-32 -65.5q0 -48 34 -69.5t75 -26.5q10 -2 20 -2.5t20 -0.5h46h46h46h46v228
q0 104 -46 134.5t-101 34.5q-13 1 -25.5 1h-25.5h-0.5h-0.5h-8.5h-8.5h-9h-9v36h9h9h8.5h8.5h0.5h0.5h30t30 -1q65 -5 119 -42.5t54 -162.5v-264v0z" />
    <glyph glyph-name="b" unicode="b" horiz-adv-x="420" 
d="M327 409q37 -33 55.5 -78.5t17.5 -93.5q0 -49 -18.5 -94.5t-55.5 -79.5q-39 -36 -85 -49.5t-95 -13.5q-13 0 -25.5 1t-25.5 2q-19 2 -38.5 5t-37.5 7v611h36v-153h12h12q67 0 130.5 -7.5t117.5 -56.5v0zM303 383q-44 40 -97.5 47.5t-108.5 6.5h-6.5h-6.5h-14.5h-14.5
v-392q15 -3 30 -5t30 -3q7 0 15 -0.5t15 -0.5q43 0 83.5 11.5t73.5 41.5q30 27 45.5 64t17.5 76v4.5v4.5q0 41 -15.5 79t-46.5 66v0z" />
    <glyph glyph-name="c" unicode="c" horiz-adv-x="305" 
d="M291 0h-18q-58 0 -105 17.5t-81 47.5q-37 34 -55 79.5t-18 93.5v4.5v4.5q2 45 20 88t53 74q44 39 96 51.5t108 12.5v-36q-49 0 -95.5 -9.5t-84.5 -44.5q-31 -28 -46 -66t-15 -79t15.5 -79.5t46.5 -67.5q38 -34 84 -44.5t95 -10.5v-36v0z" />
    <glyph glyph-name="d" unicode="d" horiz-adv-x="420" 
d="M401 0h-20h-20h-15.5h-14.5q-64 0 -125.5 9.5t-112.5 55.5q-37 34 -55.5 79.5t-18.5 93.5t18 93t55 78q54 49 118 56.5t131 7.5h12h12v153h36v-626v0zM365 36v401h-14.5h-14.5h-7.5h-7.5q-55 1 -108 -7t-97 -47q-31 -28 -46 -66t-15 -79t15.5 -79.5t46.5 -67.5
q47 -43 103.5 -49.5t115.5 -5.5h2.5h2.5h12h12v0z" />
    <glyph glyph-name="e" unicode="e" horiz-adv-x="388" 
d="M370 0h-18h-37.5h-37.5q-59 0 -106 17.5t-80 47.5q-37 34 -55 79.5t-18 93.5v4.5v4.5q2 45 20 88t53 74q33 30 80 47t106 17h46.5h46.5v-36h-46.5h-46.5q-52 0 -92.5 -14t-69.5 -40q-27 -25 -42.5 -58t-18.5 -71h253v-35h-126h-127q4 -37 19 -70t42 -58q29 -25 69.5 -40
t92.5 -15h46.5h46.5v-36v0z" />
    <glyph glyph-name="f" unicode="f" horiz-adv-x="293" 
d="M280 583l-18 -1q-51 -1 -87 -37.5t-36 -87.5v-32.5v-33.5h117v-36h-117v-355h-36v355h-90v36h45.5h44.5v9.5v8.5q0 45 5.5 85t41.5 76q28 29 60 38.5t70 9.5v-35v0z" />
    <glyph glyph-name="g" unicode="g" horiz-adv-x="500" 
d="M492 -60q2 -4 3.5 -8.5t2.5 -9.5q1 -4 1.5 -9t0.5 -9v-4.5t-1 -5.5q-2 -24 -14.5 -48t-27.5 -42l-28 23q1 2 2.5 3.5t2.5 3.5q10 12 19.5 28.5t11.5 33.5v4v4q0 6 -1.5 11.5t-3.5 10.5q-8 16 -28.5 25.5t-49.5 11.5h-2.5h-2.5h-2.5h-2.5q-31 0 -66 -8.5t-72 -24.5
q-20 -9 -46 -16.5t-54 -8.5q-4 -1 -8 -1h-8q-30 0 -56 10.5t-42 36.5q-4 7 -6.5 14.5t-4.5 15.5q0 4 -0.5 7.5t-0.5 7.5t0.5 8.5t1.5 8.5q5 32 27.5 63t47.5 55q5 5 10.5 9.5t10.5 8.5q-33 24 -54 59.5t-21 80.5q0 81 62.5 130.5t137.5 52.5h5h4h15.5t14.5 -2
q2 51 39.5 88.5t90.5 37.5h1.5h1.5h0.5h1.5v-36h-1.5h-0.5h-1.5h-1.5q-40 0 -67.5 -28.5t-27.5 -67.5v0v0v-1v0q59 -17 102 -62.5t43 -111.5q0 -80 -62 -129.5t-137 -53.5h-5.5h-5.5q-6 0 -12.5 0.5t-13.5 0.5q-19 3 -38 8.5t-37 13.5q-8 -6 -18 -14.5t-20 -18.5
q-15 -15 -29 -33.5t-21 -36.5q-4 -8 -5.5 -16t-1.5 -14v-4.5t1 -4.5q0 -5 2 -9.5t4 -8.5q10 -17 28 -23.5t40 -6.5q5 0 10 0.5t10 0.5q18 2 35.5 6.5t30.5 9.5q4 2 8 3.5t7 2.5q4 2 8 3.5t8 3.5q22 9 50.5 17t58.5 11q8 1 16 1.5t16 0.5q37 0 68 -13t47 -45v-1zM414 289
q0 64 -49.5 103t-108.5 44q-4 1 -8 1h-8q-6 0 -11.5 -0.5t-10.5 -0.5q-57 -7 -104 -46t-47 -101q0 -63 48.5 -102t106.5 -44q4 -1 9 -1h9q5 0 10 0.5t10 0.5q58 6 106 44.5t48 101.5v0z" />
    <glyph glyph-name="h" unicode="h" horiz-adv-x="413" 
d="M385 284q5 -22 7 -44.5t2 -45.5q0 -51 -10 -100.5t-26 -97.5l-34 11q15 46 25 93t10 95q0 10 -0.5 20.5t-1.5 20.5t-3 20.5t-4 20.5q-12 53 -38 91.5t-65 54.5q-14 6 -27.5 9t-27.5 2q-37 0 -71.5 -16.5t-65.5 -39.5v1v-379h-36v310.5v310.5h36v-200q31 22 66.5 35.5
t72.5 13.5q17 0 34 -3.5t33 -10.5q48 -20 79.5 -65.5t44.5 -106.5v0z" />
    <glyph glyph-name="i" unicode="i" horiz-adv-x="97" 
d="M67 0h-36v469h36v-469v0zM67 549h-36v3v69h36v-72v0z" />
    <glyph glyph-name="j" unicode="j" horiz-adv-x="172" 
d="M146 -65q0 -51 -36.5 -88t-89.5 -38h-4.5t-4.5 -1h-4h-4l-1 35h18q38 2 64 28.5t26 64.5v266.5v266.5h36v-266.5v-266.5v-1zM146 549h-36v72h36v-72v0z" />
    <glyph glyph-name="k" unicode="k" horiz-adv-x="402" 
d="M386 0h-40q-2 8 -3.5 16t-3.5 16q-20 81 -59 156.5t-108 125.5q-2 2 -4 3t-4 3q-2 1 -4 2.5t-4 2.5q-25 -9 -50.5 -14t-51.5 -8v-303h-36v620h36v-281q73 9 135 39t111 85l3.5 3.5t2.5 3.5l3.5 3.5t2.5 3.5l27 -24l-12 -14q-28 -31 -61 -55.5t-71 -42.5
q76 -55 122.5 -146.5t68.5 -194.5v0z" />
    <glyph glyph-name="l" unicode="l" horiz-adv-x="80" 
d="M52 0h-36v620h36v-620v0z" />
    <glyph glyph-name="m" unicode="m" horiz-adv-x="669" 
d="M635 284q5 -23 7.5 -46.5t2.5 -46.5q-1 -49 -10.5 -98.5t-25.5 -96.5l-34 10q15 47 24.5 94t9.5 95q0 10 -0.5 20.5t-1.5 20.5t-2.5 20.5t-3.5 20.5q-11 53 -36 91.5t-63 54.5q-6 3 -12.5 5t-13.5 4q-7 1 -13.5 1.5t-12.5 0.5q-34 0 -65.5 -14.5t-58.5 -34.5
q27 -42 38 -90t11 -98q0 -9 -0.5 -18.5t-0.5 -19.5q-4 -42 -13 -84t-21 -79l-34 10q15 46 24.5 93t8.5 94q0 21 -1.5 42t-6.5 42q-11 53 -36 91.5t-63 54.5q-13 6 -26 8.5t-26 2.5q-37 0 -70.5 -17t-63.5 -40v-377h-35v117.5v117.5v117v117h35v-47q26 18 54.5 30t57.5 16
q6 0 11.5 0.5t11.5 0.5q34 0 65.5 -13.5t58.5 -42.5l5 4q31 23 67 38t73 15q17 0 33.5 -3t32.5 -11q46 -20 76 -65.5t43 -106.5v0z" />
    <glyph glyph-name="n" unicode="n" horiz-adv-x="417" 
d="M388 284q5 -23 7.5 -46.5t2.5 -46.5q0 -49 -9.5 -97t-25.5 -94h-38l2 6l2 6l2 6l2 6q15 44 22.5 87t7.5 83q0 22 -2 43t-7 40q-12 53 -38.5 91.5t-65.5 54.5q-7 3 -14 5t-13 4q-7 1 -14 1.5t-14 0.5q-34 0 -66 -13t-59 -33q-2 -1 -4 -2.5t-3 -2.5q-2 -1 -4 -2.5t-4 -2.5
v1v-379h-36v117.5v117.5v117v117h36v-48q32 22 68 35.5t73 13.5q17 0 34.5 -3.5t33.5 -10.5q48 -20 79.5 -65.5t44.5 -106.5v0z" />
    <glyph glyph-name="o" unicode="o" horiz-adv-x="492" 
d="M467 235q0 -95 -66 -165t-163 -70q-96 0 -162 70t-66 165q0 94 66 164t162 70t162.5 -69.5t66.5 -164.5v0zM431 235q0 80 -55.5 139t-137.5 59q-81 0 -136.5 -59t-55.5 -139t55.5 -139.5t136.5 -59.5q82 0 137.5 59.5t55.5 139.5v0z" />
    <glyph glyph-name="p" unicode="p" horiz-adv-x="451" 
d="M430 256q0 -95 -74.5 -154t-164.5 -59q-18 0 -34.5 2.5t-32.5 6.5l-18 6t-19 6l12 34l17 -6q19 -7 38.5 -10.5t38.5 -2.5h5.5h5.5q36 2 70 15t61 37q29 26 44 59t15 67t-15 66.5t-44 57.5q-27 24 -64.5 38.5t-79.5 14.5h-22.5h-22.5h-44.5h-45.5v-513h-36v548h85.5h85.5
h1.5h1.5q88 -1 162 -59.5t74 -153.5v0z" />
    <glyph glyph-name="q" unicode="q" horiz-adv-x="451" 
d="M426 -79h-36v513h-44.5h-45.5h-22.5h-22.5q-42 0 -79.5 -14.5t-64.5 -38.5q-29 -26 -44 -58.5t-15 -66.5v-5.5v-4.5q2 -32 17 -61.5t42 -53.5q29 -26 66.5 -39.5t76.5 -12.5q20 0 39 3t37 10l17 6l12 -34q-10 -3 -19 -6l-18 -6q-16 -4 -32.5 -6.5t-34.5 -2.5
q-90 0 -164.5 59t-74.5 154t74 153.5t162 59.5h1.5h1.5h85.5h85.5v-548v0z" />
    <glyph glyph-name="r" unicode="r" horiz-adv-x="336" 
d="M321 282l-35 -4l-3 17q-1 9 -3 18t-5 18q-11 39 -37.5 71t-69.5 32h-19.5h-19.5h-38.5h-39.5v-434h-36v469h76.5h76.5q61 0 97 -44.5t49 -98.5q2 -6 3 -13t2 -13q0 -4 0.5 -8.5t1.5 -9.5v0z" />
    <glyph glyph-name="s" unicode="s" horiz-adv-x="377" 
d="M360 434h-33h-72h-44h-36q-43 0 -71.5 -22.5t-28.5 -69.5q0 -31 36 -51t79 -37q1 0 1.5 -0.5t1.5 -0.5q54 -22 99 -49.5t45 -82.5q0 -32 -9 -55t-27 -38q-17 -14 -42 -21t-57 -7h-185v36h46h47h46h46q26 0 45 4.5t31 14.5t17.5 26.5t5.5 39.5q0 36 -37 58t-81 40
q-2 0 -3.5 0.5t-2.5 1.5t-2.5 1.5t-2.5 0.5q-51 21 -92 46t-41 73q0 29 9.5 53t27.5 40q18 17 43 25.5t56 8.5h185v-35v0z" />
    <glyph glyph-name="t" unicode="t" horiz-adv-x="279" 
d="M266 358h-109v-356h-35v356h-109v35h109v228h35v-228h109v-35v0z" />
    <glyph glyph-name="u" unicode="u" horiz-adv-x="417" 
d="M398 0h-36v48q-31 -22 -67 -35t-74 -13q-9 0 -17.5 0.5t-16.5 2.5q-8 1 -16.5 4t-17.5 6q-48 20 -79 65.5t-45 106.5q-5 23 -7.5 46.5t-2.5 45.5q0 50 10.5 99.5t26.5 97.5l34 -11q-16 -46 -26 -93.5t-10 -95.5q0 -20 2.5 -40.5t6.5 -40.5q12 -52 38.5 -91t65.5 -56
q14 -6 28.5 -9t27.5 -2q38 0 73 17t66 39v-1v379h36v-469v0z" />
    <glyph glyph-name="v" unicode="v" horiz-adv-x="432" 
d="M416 466q-13 -73 -31 -145.5t-47 -142.5q-22 -52 -51.5 -99t-73.5 -84q-43 37 -73 83.5t-52 99.5q-29 70 -47.5 142.5t-31.5 145.5l36 6l3 -18q13 -75 31.5 -141t40.5 -121q21 -48 44.5 -86t48.5 -64q25 26 48.5 64t43.5 86q29 68 46 138.5t30 141.5l35 -6v0z" />
    <glyph glyph-name="w" unicode="w" horiz-adv-x="717" 
d="M701 466q-6 -38 -13.5 -77.5t-17.5 -79.5q-21 -89 -58 -172.5t-100 -142.5q-61 57 -95 134t-53 158l-6 24t-5 24q-2 -12 -5 -24t-5 -24q-19 -81 -53.5 -158t-95.5 -134q-62 59 -99 142.5t-59 172.5q-9 40 -16.5 79.5t-13.5 77.5l35 6l3 -18q6 -38 14.5 -80.5t20.5 -86.5
q18 -68 46 -132.5t69 -110.5q41 46 68 109.5t44 130.5q11 44 18 87.5t11 81.5h36q4 -38 11 -80.5t18 -85.5q16 -68 43.5 -132.5t68.5 -110.5q43 48 71.5 115.5t47.5 138.5q11 45 19.5 89.5t14.5 84.5l36 -6v0z" />
    <glyph glyph-name="x" unicode="x" horiz-adv-x="416" 
d="M398 462l-7 -17q-22 -61 -63 -110t-91 -90q54 -45 93 -99.5t62 -121.5q1 -4 2.5 -8.5t2.5 -8.5l-34 -12q-1 5 -2 9t-3 8q-22 65 -59.5 116.5t-90.5 94.5q-52 -43 -89.5 -94.5t-59.5 -116.5q-1 -4 -2.5 -8t-3.5 -8l-34 11q2 4 3.5 8.5t2.5 8.5q23 67 62 121.5t93 99.5
q-50 41 -91 90t-64 110q-1 5 -2.5 9t-3.5 8l34 12q2 -4 3.5 -8t2.5 -9q21 -58 61 -104.5t88 -84.5q48 38 88 84.5t62 104.5q2 5 3.5 9t2.5 8l34 -12v0z" />
    <glyph glyph-name="y" unicode="y" horiz-adv-x="486" 
d="M463 468l-1 -18q-9 -186 -130 -316t-307 -152q-2 0 -4.5 -0.5t-4.5 -0.5t-4.5 -0.5t-4.5 -0.5l-4 34q66 8 125.5 28.5t114.5 60.5q-82 65 -129.5 154.5t-53.5 192.5v9.5t-1 8.5l36 2v-4.5t1 -4.5v-4.5v-4.5q6 -98 51.5 -182.5t124.5 -143.5q72 62 111 147t44 179v9.5
t1 8.5l35 -2v0z" />
    <glyph glyph-name="z" unicode="z" horiz-adv-x="432" 
d="M413 0h-393l40 48t40 47q84 99 149.5 185.5t72.5 153.5h-266v35h303v-4v-4v-5v-4q2 -78 -68.5 -174t-163.5 -206q-7 -9 -15 -18l-16 -18h317v-36v0z" />
    <glyph glyph-name="braceleft" unicode="{" horiz-adv-x="500" 
 />
    <glyph glyph-name="bar" unicode="|" horiz-adv-x="500" 
 />
    <glyph glyph-name="braceright" unicode="}" horiz-adv-x="500" 
 />
    <glyph glyph-name="asciitilde" unicode="~" horiz-adv-x="500" 
 />
    <glyph glyph-name="exclamdown" unicode="&#xa1;" horiz-adv-x="103" 
d="M33 305h35v-505h-35v505v0zM33 420h35v-38h-35v38v0z" />
    <glyph glyph-name="cent" unicode="&#xa2;" horiz-adv-x="305" 
d="M209 -90h-36v144h36v-144v0zM291 93h-18q-58 0 -105 17.5t-81 47.5q-37 34 -55 79.5t-18 93.5v4.5v4.5q2 45 20 88t53 74q33 30 80 47t106 17h9.5h8.5v-35h-8.5h-9.5q-52 0 -92.5 -14.5t-69.5 -40.5q-31 -28 -46 -66t-15 -79t15.5 -79.5t46.5 -67.5q28 -25 68.5 -40
t92.5 -15h9.5h8.5v-36v0zM209 585h-36v144h36v-144v0z" />
    <glyph glyph-name="sterling" unicode="&#xa3;" horiz-adv-x="699" 
d="M667 23l-17 -4q-21 -5 -40.5 -7.5t-39.5 -2.5q-19 0 -38 2t-38 6q-25 4 -50.5 10.5t-51.5 12.5q-3 1 -6 1.5t-6 1.5q-13 3 -25.5 4t-25.5 1q-8 0 -15.5 -0.5t-15.5 -1.5q-42 -4 -83 -17t-77 -28l-21 28q8 11 16 21.5t16 20.5q29 40 48.5 81t19.5 90q0 14 -1.5 29t-6.5 31
h-177v36h84h84q-2 9 -4 17.5t-3 16.5q-4 17 -6 34.5t-2 33.5q0 35 12.5 67.5t43.5 59.5q32 27 79 40.5t96 13.5h3.5h3.5q53 -1 102.5 -17t82.5 -46q4 -3 7 -6l6 -6l-24 -27q-3 3 -6.5 6t-6.5 5q-16 14 -33 23.5t-38 16.5q-22 7 -48 11t-52 3h-4h-4q-70 -2 -127.5 -34.5
t-57.5 -108.5v-9.5t1 -10.5q4 -27 8 -47t8 -36h220v-36h-211q4 -15 5.5 -30t1.5 -29q0 -51 -20 -97t-51 -90q35 12 72 20t74 8q15 0 30 -1.5t30 -5.5q9 -2 17.5 -4t16.5 -4l36 -8t35 -8q20 -3 39.5 -5.5t39.5 -2.5h11.5t11.5 1q11 1 22.5 2.5t23.5 4.5q5 2 9.5 2.5t8.5 1.5
l8 -34v0z" />
    <glyph glyph-name="currency" unicode="&#xa4;" horiz-adv-x="664" 
d="M634 120l-11 -14q-42 -52 -100.5 -79t-121.5 -27q-56 1 -110 23t-96 68q-25 28 -43 62t-27 71h-95l18 35h70q-1 13 -2.5 26t-1.5 26q0 8 0.5 16.5t1.5 16.5h-78l18 36h65q8 42 27 80.5t47 69.5q40 44 91.5 66.5t104.5 23.5h5.5h5.5q62 0 121 -26.5t100 -79.5q2 -2 3 -3.5
t3 -3.5q1 -2 2.5 -3.5t2.5 -3.5l-28 -22q-39 50 -89 78.5t-115 28.5q-97 0 -160.5 -59.5t-83.5 -145.5h357l-18 -36h-345q-1 -8 -1 -16.5v-17.5q0 -13 1 -25.5t3 -25.5h300l-18 -35h-274q23 -80 85.5 -134t153.5 -54q65 0 115 29t89 78l28 -23v0z" />
    <glyph glyph-name="yen" unicode="&#xa5;" horiz-adv-x="650" 
d="M621 139h-278v-139h-36v34.5v35.5v34.5v34.5h-277v36h69.5h69.5h69h69v97q-4 3 -7.5 6t-6.5 7q-4 3 -7.5 6t-7.5 6h-248v36h106h106q-54 56 -94 122.5t-59 142.5q0 2 -0.5 4.5t-1.5 4.5t-1.5 4.5t-0.5 4.5l34 8l5 -17q23 -91 77 -167.5t124 -135.5q71 59 125 135.5
t77 167.5q0 2 0.5 4t1.5 5q1 2 1.5 4t0.5 4l35 -8q-1 -2 -1.5 -4.5t-0.5 -4.5q-1 -2 -1.5 -4.5t-1.5 -4.5q-19 -76 -59 -142.5t-93 -122.5h212v-36h-249q-3 -3 -6.5 -6t-7.5 -6q-4 -4 -7.5 -7t-7.5 -6v-97h278v-36v0z" />
    <glyph glyph-name="brokenbar" unicode="&#xa6;" horiz-adv-x="500" 
 />
    <glyph glyph-name="section" unicode="&#xa7;" horiz-adv-x="500" 
 />
    <glyph glyph-name="dieresis" unicode="&#xa8;" horiz-adv-x="99" 
d="M42 650h-35v38h35v-38v0zM92 650h-35v38h35v-38v0z" />
    <glyph glyph-name="copyright" unicode="&#xa9;" horiz-adv-x="500" 
 />
    <glyph glyph-name="ordfeminine" unicode="&#xaa;" horiz-adv-x="278" 
d="M265 330h-136h-7.5t-7.5 1q-38 2 -69.5 22t-31.5 64q0 42 30 61t66 23q5 0 11 0.5t11 0.5h72v-38h-36h-36q-6 0 -13.5 -0.5t-14.5 -1.5q-20 -3 -36.5 -13t-16.5 -32q0 -23 17 -34t37 -14q6 -1 12.5 -1.5t12.5 -0.5h99v125q0 35 -10 53.5t-25 26.5q-12 7 -27 9t-31 2h-8.5
h-9.5h-26v38h29h19t19 -1q15 -1 29.5 -4.5t27.5 -10.5q22 -12 36 -38t14 -75v-162v0z" />
    <glyph glyph-name="guillemotleft" unicode="&#xab;" horiz-adv-x="231" 
d="M130 149l-124 124l124 124v-51l-73 -73l73 -73v-51v0zM220 149l-124 124l124 124v-51l-73 -73l73 -73v-51v0z" />
    <glyph glyph-name="logicalnot" unicode="&#xac;" horiz-adv-x="500" 
 />
    <glyph glyph-name="sfthyphen" unicode="&#xad;" horiz-adv-x="500" 
 />
    <glyph glyph-name="registered" unicode="&#xae;" horiz-adv-x="500" 
 />
    <glyph glyph-name="overstore" unicode="&#xaf;" 
 />
    <glyph glyph-name="glyph113" unicode="&#xb0;" horiz-adv-x="500" 
 />
    <glyph glyph-name="plusminus" unicode="&#xb1;" horiz-adv-x="500" 
 />
    <glyph glyph-name="twosuperior" unicode="&#xb2;" horiz-adv-x="500" 
 />
    <glyph glyph-name="threesuperior" unicode="&#xb3;" horiz-adv-x="500" 
 />
    <glyph glyph-name="acute" unicode="&#xb4;" horiz-adv-x="230" 
d="M191 691l-161 -51l-11 34l161 51l11 -34v0z" />
    <glyph glyph-name="mu" unicode="&#xb5;" horiz-adv-x="500" 
 />
    <glyph glyph-name="paragraph" unicode="&#xb6;" horiz-adv-x="500" 
 />
    <glyph glyph-name="middot" unicode="&#xb7;" 
 />
    <glyph glyph-name="cedilla" unicode="&#xb8;" horiz-adv-x="230" 
d="M186 -100q0 -28 -15.5 -42t-38.5 -18q-7 -2 -13.5 -2h-13.5q-8 0 -16 0.5t-15 1.5q-3 0 -6.5 0.5t-6.5 0.5q-4 1 -8.5 1.5t-9.5 0.5l4 35q5 0 9.5 -0.5t8.5 -0.5q3 0 6.5 -0.5t6.5 -0.5q5 -1 10.5 -1.5t10.5 -0.5h4.5h4.5h9.5t8.5 1q11 2 18 7.5t7 18.5q0 9 -6.5 15
t-14.5 10q-1 0 -2.5 0.5t-3.5 1.5t-4.5 1.5t-4.5 0.5q-2 1 -4.5 1.5t-4.5 1.5q8 22 15.5 43.5t15.5 42.5l33 -12l-6 -17l-12 -36q14 -7 24 -21t10 -32v-1z" />
    <glyph glyph-name="onesuperior" unicode="&#xb9;" horiz-adv-x="500" 
 />
    <glyph glyph-name="ordmasculine" unicode="&#xba;" horiz-adv-x="312" 
d="M298 475q0 -58 -41.5 -101.5t-100.5 -43.5t-100.5 43.5t-41.5 101.5q0 59 41 102.5t101 43.5q59 0 100.5 -43.5t41.5 -102.5v0zM260 475q0 44 -30 76t-74 32q-48 0 -76 -33.5t-28 -74.5q0 -20 7.5 -39.5t23.5 -36.5q13 -14 28.5 -21.5t30.5 -9.5q4 -1 7 -1h6q41 1 73 31
t32 77v0z" />
    <glyph glyph-name="guillemotright" unicode="&#xbb;" horiz-adv-x="231" 
d="M138 273l-124 -124v51l73 73l-73 73v51l124 -124v0zM228 273l-124 -124v51l73 73l-73 73v51l124 -124v0z" />
    <glyph glyph-name="onequarter" unicode="&#xbc;" horiz-adv-x="500" 
 />
    <glyph glyph-name="onehalf" unicode="&#xbd;" horiz-adv-x="500" 
 />
    <glyph glyph-name="threequarters" unicode="&#xbe;" horiz-adv-x="500" 
 />
    <glyph glyph-name="questiondown" unicode="&#xbf;" horiz-adv-x="249" 
d="M27 -101q-8 16 -12 31.5t-4 31.5q0 22 7.5 43t20.5 40q2 2 3.5 4.5t3.5 4.5q3 4 7.5 8.5t8.5 9.5l10 10t10 11q18 21 33.5 49.5t15.5 64.5v125h36v-31.5v-30.5v-31.5v-31.5q0 -43 -17 -75.5t-37 -56.5q-6 -7 -12.5 -14t-12.5 -13q-6 -7 -11.5 -12.5t-8.5 -10.5
q-10 -15 -16 -31t-6 -33q0 -11 3 -22.5t9 -21.5q16 -28 44.5 -43.5t60.5 -17.5h4.5h5.5h16h16h16h16v-36h-18q-11 1 -22.5 1h-23.5h-2.5h-3.5q-42 1 -80.5 21t-59.5 58v-1zM131 440h35v-38h-35v38v0z" />
    <glyph glyph-name="Agrave" unicode="&#xc0;" horiz-adv-x="642" 
d="M608 2l-35 -4q-2 23 -5 44.5t-7 43.5h-438q-4 -22 -7 -43.5t-5 -43.5l-35 3q2 21 4.5 42t6.5 42h-72v36h78q27 139 88 263.5t161 231.5q122 -130 186 -284.5t80 -330.5v0zM555 122q-25 122 -77 234.5t-136 207.5q-85 -95 -136.5 -207.5t-76.5 -234.5h426v0zM393 668
l-11 -34l-161 51l11 34l161 -51v0z" />
    <glyph glyph-name="Aacute" unicode="&#xc1;" horiz-adv-x="642" 
d="M608 2l-35 -4q-2 23 -5 44.5t-7 43.5h-438q-4 -22 -7 -43.5t-5 -43.5l-35 3q2 21 4.5 42t6.5 42h-72v36h78q27 139 88 263.5t161 231.5q122 -130 186 -284.5t80 -330.5v0zM555 122q-25 122 -77 234.5t-136 207.5q-85 -95 -136.5 -207.5t-76.5 -234.5h426v0zM487 683
l-161 -51l-11 34l161 51l11 -34v0z" />
    <glyph glyph-name="Acircumflex" unicode="&#xc2;" horiz-adv-x="642" 
d="M608 2l-35 -4q-2 23 -5 44.5t-7 43.5h-438q-4 -22 -7 -43.5t-5 -43.5l-35 3q2 21 4.5 42t6.5 42h-72v36h78q27 139 88 263.5t161 231.5q122 -130 186 -284.5t80 -330.5v0zM555 122q-25 122 -77 234.5t-136 207.5q-85 -95 -136.5 -207.5t-76.5 -234.5h426v0zM443 622
l-20 -30l-82 58l-82 -58l-21 30l103 72l102 -72v0z" />
    <glyph glyph-name="Atilde" unicode="&#xc3;" horiz-adv-x="642" 
d="M608 2l-35 -4q-2 23 -5 44.5t-7 43.5h-438q-4 -22 -7 -43.5t-5 -43.5l-35 3q2 21 4.5 42t6.5 42h-72v36h78q27 139 88 263.5t161 231.5q122 -130 186 -284.5t80 -330.5v0zM555 122q-25 122 -77 234.5t-136 207.5q-85 -95 -136.5 -207.5t-76.5 -234.5h426v0zM445 673
q-12 -19 -31.5 -29t-40.5 -10q-10 0 -20.5 2.5t-20.5 8.5q-6 4 -12 5.5t-13 1.5q-12 0 -22.5 -6t-17.5 -17l-31 19q12 19 31.5 29.5t41.5 9.5q11 0 21 -2.5t20 -8.5q6 -3 12 -5t12 -2q12 1 23 7t18 16l30 -19v0z" />
    <glyph glyph-name="Adieresis" unicode="&#xc4;" horiz-adv-x="642" 
d="M608 2l-35 -4q-2 23 -5 44.5t-7 43.5h-438q-4 -22 -7 -43.5t-5 -43.5l-35 3q2 21 4.5 42t6.5 42h-72v36h78q27 139 88 263.5t161 231.5q122 -130 186 -284.5t80 -330.5v0zM555 122q-25 122 -77 234.5t-136 207.5q-85 -95 -136.5 -207.5t-76.5 -234.5h426v0zM334 624h-35
v38h35v-38v0zM384 624h-35v38h35v-38v0z" />
    <glyph glyph-name="Aring" unicode="&#xc5;" horiz-adv-x="642" 
d="M608 2l-35 -4q-2 23 -5 44.5t-7 43.5h-438q-4 -22 -7 -43.5t-5 -43.5l-35 3q2 21 4.5 42t6.5 42h-72v36h78q27 139 88 263.5t161 231.5q122 -130 186 -284.5t80 -330.5v0zM555 122q-25 122 -77 234.5t-136 207.5q-85 -95 -136.5 -207.5t-76.5 -234.5h426v0zM387 652
q0 -9 -3.5 -17.5t-10.5 -14.5q-6 -7 -14.5 -10.5t-17.5 -3.5q-19 0 -32.5 13.5t-13.5 32.5q0 10 3.5 18.5t9.5 14.5q7 6 15 9.5t18 3.5q19 0 32.5 -13t13.5 -33v0zM363 652q0 10 -6.5 16.5t-15.5 6.5q-4 0 -8.5 -2t-7.5 -5t-4.5 -7t-1.5 -9q0 -9 6.5 -15.5t15.5 -6.5
q5 0 8.5 2t6.5 5q4 3 5.5 7t1.5 8v0z" />
    <glyph glyph-name="AE" unicode="&#xc6;" horiz-adv-x="891" 
d="M868 346h-416v-310h368v-36h-201.5h-202.5v346h-282q-27 -73 -39 -149t-19 -153l-2 -22l-2 -22h-36q8 88 19.5 175t40.5 171h-68v36h82q41 101 116 167.5t190 70.5h59.5t132.5 1h5.5h5.5h130.5h70.5v-36h-368v-203h416v-36v0zM416 382v202q-98 -4 -163.5 -60t-103.5 -142
h267v0z" />
    <glyph glyph-name="Ccedilla" unicode="&#xc7;" horiz-adv-x="456" 
d="M360 -102q0 -28 -15.5 -42t-38.5 -18q-7 -2 -13.5 -2h-13.5q-8 0 -16 0.5t-15 1.5q-3 0 -6.5 0.5t-6.5 0.5q-4 1 -8.5 1.5t-9.5 0.5l4 35q5 0 9.5 -0.5t8.5 -0.5q3 0 6.5 -0.5t6.5 -0.5q5 -1 10.5 -1.5t10.5 -0.5h4.5h4.5h9.5t8.5 1q11 2 18 7.5t7 18.5q0 9 -6.5 15
t-14.5 10q-1 0 -2.5 0.5t-3.5 1.5t-4.5 1.5t-4.5 0.5q-2 1 -4.5 1.5t-4.5 1.5q8 22 15.5 43.5t15.5 42.5l33 -12l-6 -17l-12 -36q14 -7 24 -21t10 -32v-1zM435 10l-17 -4q-19 -4 -37.5 -5t-37.5 -1q-130 0 -226 83t-96 227q0 153 99 231.5t229 77.5q11 0 21.5 -0.5
t21.5 -1.5t21.5 -2.5t21.5 -3.5l-7 -35q-20 4 -40 6t-40 2q-116 0 -203.5 -68.5t-87.5 -205.5t88 -205t204 -68q20 0 39.5 2t39.5 6l7 -35v0z" />
    <glyph glyph-name="Egrave" unicode="&#xc8;" horiz-adv-x="549" 
d="M521 328h-416v-292h368v-36h-404v328h-60v35h60v257h404v-35h-368v-222h416v-35v0zM353 674l-11 -34l-161 51l11 34l161 -51v0z" />
    <glyph glyph-name="Eacute" unicode="&#xc9;" horiz-adv-x="549" 
d="M521 328h-416v-292h368v-36h-404v328h-60v35h60v257h404v-35h-368v-222h416v-35v0zM427 693l-161 -51l-11 34l161 51l11 -34v0z" />
    <glyph glyph-name="Ecircumflex" unicode="&#xca;" horiz-adv-x="549" 
d="M521 328h-416v-292h368v-36h-404v328h-60v35h60v257h404v-35h-368v-222h416v-35v0zM389 664l-20 -30l-82 58l-82 -58l-21 30l103 72l102 -72v0z" />
    <glyph glyph-name="Edieresis" unicode="&#xcb;" horiz-adv-x="549" 
d="M521 328h-416v-292h368v-36h-404v328h-60v35h60v257h404v-35h-368v-222h416v-35v0zM276 636h-35v38h35v-38v0zM326 636h-35v38h35v-38v0z" />
    <glyph glyph-name="Igrave" unicode="&#xcc;" horiz-adv-x="105" 
d="M70 0h-36v620h36v-620v0zM71 672l-11 -34l-161 51l11 34l161 -51v0z" />
    <glyph glyph-name="Iacute" unicode="&#xcd;" horiz-adv-x="105" 
d="M70 0h-36v620h36v-620v0zM215 689l-161 -51l-11 34l161 51l11 -34v0z" />
    <glyph glyph-name="Icircumflex" unicode="&#xce;" horiz-adv-x="105" 
d="M70 0h-36v620h36v-620v0zM155 632l-20 -30l-82 58l-82 -58l-21 30l103 72l102 -72v0z" />
    <glyph glyph-name="Idieresis" unicode="&#xcf;" horiz-adv-x="105" 
d="M70 0h-36v620h36v-620v0zM46 644h-35v38h35v-38v0zM96 644h-35v38h35v-38v0z" />
    <glyph glyph-name="Eth" unicode="&#xd0;" horiz-adv-x="611" 
d="M584 310q0 -145 -95.5 -227.5t-236.5 -82.5h-166v328h-58v35h58v257h166q141 0 236.5 -82t95.5 -228v0zM548 310q0 131 -85 203t-211 72h-130v-222h206v-35h-206v-292h130q126 0 211 72t85 202v0z" />
    <glyph glyph-name="Ntilde" unicode="&#xd1;" horiz-adv-x="577" 
d="M551 0h-36v178q-53 155 -171 262.5t-282 135.5v-576h-36v617q165 -22 291.5 -109t197.5 -234v346h36v-620v0zM387 665q-12 -19 -31.5 -29t-40.5 -10q-10 0 -20.5 2.5t-20.5 8.5q-6 4 -12 5.5t-13 1.5q-12 0 -22.5 -6t-17.5 -17l-31 19q12 19 31.5 29.5t41.5 9.5
q11 0 21 -2.5t20 -8.5q6 -3 12 -5t12 -2q12 1 23 7t18 16l30 -19v0z" />
    <glyph glyph-name="Ograve" unicode="&#xd2;" 
 />
    <glyph glyph-name="Oacute" unicode="&#xd3;" horiz-adv-x="622" 
d="M598 311q0 -121 -82.5 -216t-209.5 -95q-126 0 -209 94.5t-83 216.5t82.5 216.5t209.5 94.5q126 0 209 -94.5t83 -216.5v0zM562 311q0 107 -72 191t-184 84q-111 0 -183.5 -84t-72.5 -191t72 -191t184 -84t184 84t72 191v0zM457 689l-161 -51l-11 34l161 51l11 -34v0z
" />
    <glyph glyph-name="Ocircumflex" unicode="&#xd4;" horiz-adv-x="622" 
d="M598 311q0 -121 -82.5 -216t-209.5 -95q-126 0 -209 94.5t-83 216.5t82.5 216.5t209.5 94.5q126 0 209 -94.5t83 -216.5v0zM562 311q0 107 -72 191t-184 84q-111 0 -183.5 -84t-72.5 -191t72 -191t184 -84t184 84t72 191v0zM407 660l-20 -30l-82 58l-82 -58l-21 30
l103 72l102 -72v0z" />
    <glyph glyph-name="Otilde" unicode="&#xd5;" horiz-adv-x="622" 
d="M598 311q0 -121 -82.5 -216t-209.5 -95q-126 0 -209 94.5t-83 216.5t82.5 216.5t209.5 94.5q126 0 209 -94.5t83 -216.5v0zM562 311q0 107 -72 191t-184 84q-111 0 -183.5 -84t-72.5 -191t72 -191t184 -84t184 84t72 191v0zM401 677q-12 -19 -31.5 -29t-40.5 -10
q-10 0 -20.5 2.5t-20.5 8.5q-6 4 -12 5.5t-13 1.5q-12 0 -22.5 -6t-17.5 -17l-31 19q12 19 31.5 29.5t41.5 9.5q11 0 21 -2.5t20 -8.5q6 -3 12 -5t12 -2q12 1 23 7t18 16l30 -19v0z" />
    <glyph glyph-name="Odieresis" unicode="&#xd6;" horiz-adv-x="622" 
d="M598 311q0 -121 -82.5 -216t-209.5 -95q-126 0 -209 94.5t-83 216.5t82.5 216.5t209.5 94.5q126 0 209 -94.5t83 -216.5v0zM562 311q0 107 -72 191t-184 84q-111 0 -183.5 -84t-72.5 -191t72 -191t184 -84t184 84t72 191v0zM296 636h-35v38h35v-38v0zM346 636h-35v38h35
v-38v0z" />
    <glyph glyph-name="multiply" unicode="&#xd7;" horiz-adv-x="500" 
 />
    <glyph glyph-name="Oslash" unicode="&#xd8;" horiz-adv-x="642" 
d="M613 311q0 -121 -82.5 -216t-209.5 -95q-38 0 -72.5 10t-65.5 27l-39 -68l-31 17l41 71q-58 43 -91.5 110.5t-33.5 143.5q0 122 82.5 216.5t209.5 94.5q38 0 72.5 -10t65.5 -27l39 68l31 -18l-40 -70q57 -43 90.5 -110.5t33.5 -143.5v0zM577 311q0 65 -28 124.5t-78 98.5
l-270 -466q26 -15 56.5 -23.5t63.5 -8.5q112 0 184 84t72 191v0zM441 554q-26 15 -56.5 23.5t-63.5 8.5q-111 0 -183.5 -84t-72.5 -191q0 -66 29 -125.5t78 -97.5l269 466v0z" />
    <glyph glyph-name="Ugrave" unicode="&#xd9;" horiz-adv-x="510" 
d="M487 198q0 -86 -66 -138.5t-145 -58.5q-5 -1 -10.5 -1h-10.5h-10.5t-10.5 1q-79 6 -145 58.5t-66 138.5v425h36v-106v-106v-107v-106q0 -67 51 -108.5t112 -51.5q9 -1 17 -1.5t16 -0.5t16 0.5t17 1.5q61 10 112 51.5t51 108.5v425h36v-106v-106v-107v-106v0zM313 668
l-11 -34l-161 51l11 34l161 -51v0z" />
    <glyph glyph-name="Uacute" unicode="&#xda;" horiz-adv-x="510" 
d="M487 198q0 -86 -66 -138.5t-145 -58.5q-5 -1 -10.5 -1h-10.5h-10.5t-10.5 1q-79 6 -145 58.5t-66 138.5v425h36v-106v-106v-107v-106q0 -67 51 -108.5t112 -51.5q9 -1 17 -1.5t16 -0.5t16 0.5t17 1.5q61 10 112 51.5t51 108.5v425h36v-106v-106v-107v-106v0zM379 687
l-161 -51l-11 34l161 51l11 -34v0z" />
    <glyph glyph-name="Ucircumflex" unicode="&#xdb;" horiz-adv-x="510" 
d="M487 198q0 -86 -66 -138.5t-145 -58.5q-5 -1 -10.5 -1h-10.5h-10.5t-10.5 1q-79 6 -145 58.5t-66 138.5v425h36v-106v-106v-107v-106q0 -67 51 -108.5t112 -51.5q9 -1 17 -1.5t16 -0.5t16 0.5t17 1.5q61 10 112 51.5t51 108.5v425h36v-106v-106v-107v-106v0zM359 654
l-20 -30l-82 58l-82 -58l-21 30l103 72l102 -72v0z" />
    <glyph glyph-name="Udieresis" unicode="&#xdc;" horiz-adv-x="510" 
d="M487 198q0 -86 -66 -138.5t-145 -58.5q-5 -1 -10.5 -1h-10.5h-10.5t-10.5 1q-79 6 -145 58.5t-66 138.5v425h36v-106v-106v-107v-106q0 -67 51 -108.5t112 -51.5q9 -1 17 -1.5t16 -0.5t16 0.5t17 1.5q61 10 112 51.5t51 108.5v425h36v-106v-106v-107v-106v0zM256 624h-35
v38h35v-38v0zM306 624h-35v38h35v-38v0z" />
    <glyph glyph-name="Yacute" unicode="&#xdd;" 
 />
    <glyph glyph-name="Thorn" unicode="&#xde;" horiz-adv-x="505" 
d="M409 139q-34 -30 -80.5 -47.5t-105.5 -17.5h-164v-74h-36v621h36v-73h82h82q59 0 106 -17.5t80 -46.5q37 -34 55 -79.5t18 -93.5t-18 -93.5t-55 -78.5v0zM385 457q-28 26 -69 40.5t-93 14.5h-164v-402h82h82q52 0 92.5 15t68.5 41q28 25 43.5 60t17.5 72q1 3 1 7v8
q0 41 -15 78.5t-46 65.5v0z" />
    <glyph glyph-name="germandbls" unicode="&#xdf;" horiz-adv-x="369" 
d="M315 37q-28 -28 -58 -32.5t-66 -4.5v36h4.5h4.5q25 0 47 3t43 24q14 14 20.5 30.5t6.5 33.5q-1 35 -26 63.5t-66 28.5q-38 0 -60 25.5t-22 56.5v4.5t1 4.5q1 15 8 28.5t19 24.5l62 55q19 17 30 37t11 40q-1 17 -8 32.5t-22 30.5t-34.5 22t-40.5 6h-2.5h-3.5
q-41 -2 -75.5 -29.5t-34.5 -71.5v-485h-35q-1 81 -1 161.5t1 161.5v81.5v80.5q0 62 47 99t103 38h1.5h1.5q27 0 52.5 -9t45.5 -29q21 -20 30.5 -43t9.5 -46q0 -28 -13.5 -54.5t-38.5 -49.5l-62 -55q-8 -7 -12 -16.5t-4 -19.5q0 -17 12 -31.5t34 -14.5q58 0 92.5 -39.5
t34.5 -88.5q0 -24 -8.5 -46.5t-28.5 -42.5v0z" />
    <glyph glyph-name="agrave" unicode="&#xe0;" horiz-adv-x="438" 
d="M416 0h-219q-8 0 -16.5 0.5t-17.5 1.5q-56 6 -103.5 36t-47.5 97q0 65 46.5 93.5t102.5 34.5q10 1 20 1.5t20 0.5h34.5t34.5 1h34.5h35.5v-36h-139q-12 0 -24.5 -1t-25.5 -3q-39 -5 -71 -25.5t-32 -65.5q0 -48 34 -69.5t75 -26.5q10 -2 20 -2.5t20 -0.5h46h46h46h46v228
q0 104 -46 134.5t-101 34.5q-13 1 -25.5 1h-25.5h-0.5h-0.5h-8.5h-8.5h-9h-9v36h9h9h8.5h8.5h0.5h0.5h30t30 -1q65 -5 119 -42.5t54 -162.5v-264v0zM269 524l-11 -34l-161 51l11 34l161 -51v0z" />
    <glyph glyph-name="aacute" unicode="&#xe1;" horiz-adv-x="438" 
d="M416 0h-219q-8 0 -16.5 0.5t-17.5 1.5q-56 6 -103.5 36t-47.5 97q0 65 46.5 93.5t102.5 34.5q10 1 20 1.5t20 0.5h34.5t34.5 1h34.5h35.5v-36h-139q-12 0 -24.5 -1t-25.5 -3q-39 -5 -71 -25.5t-32 -65.5q0 -48 34 -69.5t75 -26.5q10 -2 20 -2.5t20 -0.5h46h46h46h46v228
q0 104 -46 134.5t-101 34.5q-13 1 -25.5 1h-25.5h-0.5h-0.5h-8.5h-8.5h-9h-9v36h9h9h8.5h8.5h0.5h0.5h30t30 -1q65 -5 119 -42.5t54 -162.5v-264v0zM363 537l-161 -51l-11 34l161 51l11 -34v0z" />
    <glyph glyph-name="acircumflex" unicode="&#xe2;" horiz-adv-x="438" 
d="M416 0h-219q-8 0 -16.5 0.5t-17.5 1.5q-56 6 -103.5 36t-47.5 97q0 65 46.5 93.5t102.5 34.5q10 1 20 1.5t20 0.5h34.5t34.5 1h34.5h35.5v-36h-139q-12 0 -24.5 -1t-25.5 -3q-39 -5 -71 -25.5t-32 -65.5q0 -48 34 -69.5t75 -26.5q10 -2 20 -2.5t20 -0.5h46h46h46h46v228
q0 104 -46 134.5t-101 34.5q-13 1 -25.5 1h-25.5h-0.5h-0.5h-8.5h-8.5h-9h-9v36h9h9h8.5h8.5h0.5h0.5h30t30 -1q65 -5 119 -42.5t54 -162.5v-264v0zM323 508l-20 -30l-82 58l-82 -58l-21 30l103 72l102 -72v0z" />
    <glyph glyph-name="atilde" unicode="&#xe3;" horiz-adv-x="438" 
d="M416 0h-219q-8 0 -16.5 0.5t-17.5 1.5q-56 6 -103.5 36t-47.5 97q0 65 46.5 93.5t102.5 34.5q10 1 20 1.5t20 0.5h34.5t34.5 1h34.5h35.5v-36h-139q-12 0 -24.5 -1t-25.5 -3q-39 -5 -71 -25.5t-32 -65.5q0 -48 34 -69.5t75 -26.5q10 -2 20 -2.5t20 -0.5h46h46h46h46v228
q0 104 -46 134.5t-101 34.5q-13 1 -25.5 1h-25.5h-0.5h-0.5h-8.5h-8.5h-9h-9v36h9h9h8.5h8.5h0.5h0.5h30t30 -1q65 -5 119 -42.5t54 -162.5v-264v0zM327 535q-12 -19 -31.5 -29t-40.5 -10q-10 0 -20.5 2.5t-20.5 8.5q-6 4 -12 5.5t-13 1.5q-12 0 -22.5 -6t-17.5 -17l-31 19
q12 19 31.5 29.5t41.5 9.5q11 0 21 -2.5t20 -8.5q6 -3 12 -5t12 -2q12 1 23 7t18 16l30 -19v0z" />
    <glyph glyph-name="adieresis" unicode="&#xe4;" horiz-adv-x="438" 
d="M416 0h-219q-8 0 -16.5 0.5t-17.5 1.5q-56 6 -103.5 36t-47.5 97q0 65 46.5 93.5t102.5 34.5q10 1 20 1.5t20 0.5h34.5t34.5 1h34.5h35.5v-36h-139q-12 0 -24.5 -1t-25.5 -3q-39 -5 -71 -25.5t-32 -65.5q0 -48 34 -69.5t75 -26.5q10 -2 20 -2.5t20 -0.5h46h46h46h46v228
q0 104 -46 134.5t-101 34.5q-13 1 -25.5 1h-25.5h-0.5h-0.5h-8.5h-8.5h-9h-9v36h9h9h8.5h8.5h0.5h0.5h30t30 -1q65 -5 119 -42.5t54 -162.5v-264v0zM218 492h-35v38h35v-38v0zM268 492h-35v38h35v-38v0z" />
    <glyph glyph-name="aring" unicode="&#xe5;" horiz-adv-x="438" 
d="M416 0h-219q-8 0 -16.5 0.5t-17.5 1.5q-56 6 -103.5 36t-47.5 97q0 65 46.5 93.5t102.5 34.5q10 1 20 1.5t20 0.5h34.5t34.5 1h34.5h35.5v-36h-139q-12 0 -24.5 -1t-25.5 -3q-39 -5 -71 -25.5t-32 -65.5q0 -48 34 -69.5t75 -26.5q10 -2 20 -2.5t20 -0.5h46h46h46h46v228
q0 104 -46 134.5t-101 34.5q-13 1 -25.5 1h-25.5h-0.5h-0.5h-8.5h-8.5h-9h-9v36h9h9h8.5h8.5h0.5h0.5h30t30 -1q65 -5 119 -42.5t54 -162.5v-264v0zM291 526q0 -9 -3.5 -17.5t-10.5 -14.5q-6 -7 -14.5 -10.5t-17.5 -3.5q-19 0 -32.5 13.5t-13.5 32.5q0 10 3.5 18.5t9.5 14.5
q7 6 15 9.5t18 3.5q19 0 32.5 -13t13.5 -33v0zM267 526q0 10 -6.5 16.5t-15.5 6.5q-4 0 -8.5 -2t-7.5 -5t-4.5 -7t-1.5 -9q0 -9 6.5 -15.5t15.5 -6.5q5 0 8.5 2t6.5 5q4 3 5.5 7t1.5 8v0z" />
    <glyph glyph-name="ae" unicode="&#xe6;" horiz-adv-x="780" 
d="M744 0h-46.5h-46.5q-70 0 -132.5 29t-97.5 91q-7 -58 -49.5 -89t-98.5 -31h-12h-12h-23.5h-24.5q-34 1 -67.5 7.5t-62.5 26.5q-24 18 -37.5 43t-15.5 51v4v4q0 28 13.5 54t39.5 44q23 15 56.5 23.5t79.5 8.5h139v-36h-34.5h-34.5h-35.5h-34.5q-11 0 -23.5 -0.5
t-24.5 -2.5q-40 -6 -72.5 -25.5t-32.5 -65.5q0 -48 34 -70t75 -27q10 -2 20 -2.5t20 -0.5h12h13q6 -1 12.5 -1h12.5q29 0 56 5.5t47 24.5q14 14 22 33.5t9 43.5v30.5v30.5v30.5v30.5q1 104 -45 135t-101 34q-14 1 -27 1h-26h-17h-18v36h10.5h10.5h10.5h10.5q72 0 135 -18.5
t85 -108.5q33 68 98 99t138 31h93v-35h-46.5h-46.5q-85 0 -150.5 -45.5t-72.5 -137.5h253v-36h-253q8 -90 73 -136.5t150 -46.5h93v-36v0z" />
    <glyph glyph-name="ccedilla" unicode="&#xe7;" horiz-adv-x="305" 
d="M252 -98q0 -28 -15.5 -42t-38.5 -18q-7 -2 -13.5 -2h-13.5q-8 0 -16 0.5t-15 1.5q-3 0 -6.5 0.5t-6.5 0.5q-4 1 -8.5 1.5t-9.5 0.5l4 35q5 0 9.5 -0.5t8.5 -0.5q3 0 6.5 -0.5t6.5 -0.5q5 -1 10.5 -1.5t10.5 -0.5h4.5h4.5h9.5t8.5 1q11 2 18 7.5t7 18.5q0 9 -6.5 15
t-14.5 10q-1 0 -2.5 0.5t-3.5 1.5t-4.5 1.5t-4.5 0.5q-2 1 -4.5 1.5t-4.5 1.5q8 22 15.5 43.5t15.5 42.5l33 -12l-6 -17l-12 -36q14 -7 24 -21t10 -32v-1zM291 0h-18q-58 0 -105 17.5t-81 47.5q-37 34 -55 79.5t-18 93.5v4.5v4.5q2 45 20 88t53 74q44 39 96 51.5t108 12.5
v-36q-49 0 -95.5 -9.5t-84.5 -44.5q-31 -28 -46 -66t-15 -79t15.5 -79.5t46.5 -67.5q38 -34 84 -44.5t95 -10.5v-36v0z" />
    <glyph glyph-name="egrave" unicode="&#xe8;" horiz-adv-x="388" 
d="M370 0h-18h-37.5h-37.5q-59 0 -106 17.5t-80 47.5q-37 34 -55 79.5t-18 93.5v4.5v4.5q2 45 20 88t53 74q33 30 80 47t106 17h46.5h46.5v-36h-46.5h-46.5q-52 0 -92.5 -14t-69.5 -40q-27 -25 -42.5 -58t-18.5 -71h253v-35h-126h-127q4 -37 19 -70t42 -58q29 -25 69.5 -40
t92.5 -15h46.5h46.5v-36v0zM309 522l-11 -34l-161 51l11 34l161 -51v0z" />
    <glyph glyph-name="eacute" unicode="&#xe9;" horiz-adv-x="388" 
d="M370 0h-18h-37.5h-37.5q-59 0 -106 17.5t-80 47.5q-37 34 -55 79.5t-18 93.5v4.5v4.5q2 45 20 88t53 74q33 30 80 47t106 17h46.5h46.5v-36h-46.5h-46.5q-52 0 -92.5 -14t-69.5 -40q-27 -25 -42.5 -58t-18.5 -71h253v-35h-126h-127q4 -37 19 -70t42 -58q29 -25 69.5 -40
t92.5 -15h46.5h46.5v-36v0zM387 541l-161 -51l-11 34l161 51l11 -34v0z" />
    <glyph glyph-name="ecircumflex" unicode="&#xea;" horiz-adv-x="388" 
d="M370 0h-18h-37.5h-37.5q-59 0 -106 17.5t-80 47.5q-37 34 -55 79.5t-18 93.5v4.5v4.5q2 45 20 88t53 74q33 30 80 47t106 17h46.5h46.5v-36h-46.5h-46.5q-52 0 -92.5 -14t-69.5 -40q-27 -25 -42.5 -58t-18.5 -71h253v-35h-126h-127q4 -37 19 -70t42 -58q29 -25 69.5 -40
t92.5 -15h46.5h46.5v-36v0zM361 516l-20 -30l-82 58l-82 -58l-21 30l103 72l102 -72v0z" />
    <glyph glyph-name="edieresis" unicode="&#xeb;" horiz-adv-x="388" 
d="M370 0h-18h-37.5h-37.5q-59 0 -106 17.5t-80 47.5q-37 34 -55 79.5t-18 93.5v4.5v4.5q2 45 20 88t53 74q33 30 80 47t106 17h46.5h46.5v-36h-46.5h-46.5q-52 0 -92.5 -14t-69.5 -40q-27 -25 -42.5 -58t-18.5 -71h253v-35h-126h-127q4 -37 19 -70t42 -58q29 -25 69.5 -40
t92.5 -15h46.5h46.5v-36v0zM252 494h-35v38h35v-38v0zM302 494h-35v38h35v-38v0z" />
    <glyph glyph-name="igrave" unicode="&#xec;" horiz-adv-x="97" 
d="M67 0h-36v469h36v-469v0zM69 524l-11 -34l-161 51l11 34l161 -51v0z" />
    <glyph glyph-name="iacute" unicode="&#xed;" horiz-adv-x="97" 
d="M67 0h-36v469h36v-469v0zM209 537l-161 -51l-11 34l161 51l11 -34v0z" />
    <glyph glyph-name="icircumflex" unicode="&#xee;" horiz-adv-x="97" 
d="M67 0h-36v469h36v-469v0zM151 476l-20 -30l-82 58l-82 -58l-21 30l103 72l102 -72v0z" />
    <glyph glyph-name="idieresis" unicode="&#xef;" horiz-adv-x="97" 
d="M67 0h-36v469h36v-469v0zM42 490h-35v38h35v-38v0zM92 490h-35v38h35v-38v0z" />
    <glyph glyph-name="eth" unicode="&#xf0;" horiz-adv-x="476" 
d="M454 219q-2 -48 -14.5 -89.5t-52.5 -75.5q-31 -27 -71 -40.5t-81 -13.5q-40 0 -79 13.5t-71 40.5q-31 28 -47 62.5t-16 70.5t16 70.5t47 61.5q29 25 68.5 39.5t82.5 14.5h3.5h3.5q50 -2 97 -23.5t77 -62.5q-1 12 -2.5 24t-4.5 24q-11 56 -36.5 108.5t-69.5 89.5l-123 -81
l-20 30l112 73q-21 12 -44 18.5t-47 6.5q-4 0 -8.5 -0.5t-8.5 -0.5q-5 -1 -9 -1.5t-9 -1.5l-7 36l10 2t11 1q5 1 10 1h10q33 0 65 -10t60 -30l119 77l19 -30l-108 -70q51 -48 79 -114t36 -135q2 -16 2.5 -31.5t0.5 -31.5v-5.5v-5.5v-5.5v-5.5v0zM415 186q0 64 -49 103.5
t-108 46.5q-5 0 -10.5 0.5t-11.5 0.5t-11.5 -0.5t-10.5 -0.5q-59 -7 -108 -46.5t-49 -103.5t49 -103t108 -46q5 0 10.5 -0.5t11.5 -0.5t11.5 0.5t10.5 0.5q59 7 108 46t49 103v0z" />
    <glyph glyph-name="ntilde" unicode="&#xf1;" horiz-adv-x="417" 
d="M388 284q5 -23 7.5 -46.5t2.5 -46.5q0 -49 -9.5 -97t-25.5 -94h-38l2 6l2 6l2 6l2 6q15 44 22.5 87t7.5 83q0 22 -2 43t-7 40q-12 53 -38.5 91.5t-65.5 54.5q-7 3 -14 5t-13 4q-7 1 -14 1.5t-14 0.5q-34 0 -66 -13t-59 -33q-2 -1 -4 -2.5t-3 -2.5q-2 -1 -4 -2.5t-4 -2.5
v1v-379h-36v117.5v117.5v117v117h36v-48q32 22 68 35.5t73 13.5q17 0 34.5 -3.5t33.5 -10.5q48 -20 79.5 -65.5t44.5 -106.5v0zM295 533q-12 -19 -31.5 -29t-40.5 -10q-10 0 -20.5 2.5t-20.5 8.5q-6 4 -12 5.5t-13 1.5q-12 0 -22.5 -6t-17.5 -17l-31 19q12 19 31.5 29.5
t41.5 9.5q11 0 21 -2.5t20 -8.5q6 -3 12 -5t12 -2q12 1 23 7t18 16l30 -19v0z" />
    <glyph glyph-name="ograve" unicode="&#xf2;" horiz-adv-x="492" 
d="M467 235q0 -95 -66 -165t-163 -70q-96 0 -162 70t-66 165q0 94 66 164t162 70t162.5 -69.5t66.5 -164.5v0zM431 235q0 80 -55.5 139t-137.5 59q-81 0 -136.5 -59t-55.5 -139t55.5 -139.5t136.5 -59.5q82 0 137.5 59.5t55.5 139.5v0zM277 520l-11 -34l-161 51l11 34
l161 -51v0z" />
    <glyph glyph-name="oacute" unicode="&#xf3;" horiz-adv-x="492" 
d="M467 235q0 -95 -66 -165t-163 -70q-96 0 -162 70t-66 165q0 94 66 164t162 70t162.5 -69.5t66.5 -164.5v0zM431 235q0 80 -55.5 139t-137.5 59q-81 0 -136.5 -59t-55.5 -139t55.5 -139.5t136.5 -59.5q82 0 137.5 59.5t55.5 139.5v0zM371 537l-161 -51l-11 34l161 51
l11 -34v0z" />
    <glyph glyph-name="ocircumflex" unicode="&#xf4;" horiz-adv-x="492" 
d="M467 235q0 -95 -66 -165t-163 -70q-96 0 -162 70t-66 165q0 94 66 164t162 70t162.5 -69.5t66.5 -164.5v0zM431 235q0 80 -55.5 139t-137.5 59q-81 0 -136.5 -59t-55.5 -139t55.5 -139.5t136.5 -59.5q82 0 137.5 59.5t55.5 139.5v0zM341 506l-20 -30l-82 58l-82 -58
l-21 30l103 72l102 -72v0z" />
    <glyph glyph-name="otilde" unicode="&#xf5;" horiz-adv-x="492" 
d="M467 235q0 -95 -66 -165t-163 -70q-96 0 -162 70t-66 165q0 94 66 164t162 70t162.5 -69.5t66.5 -164.5v0zM431 235q0 80 -55.5 139t-137.5 59q-81 0 -136.5 -59t-55.5 -139t55.5 -139.5t136.5 -59.5q82 0 137.5 59.5t55.5 139.5v0zM337 531q-12 -19 -31.5 -29t-40.5 -10
q-10 0 -20.5 2.5t-20.5 8.5q-6 4 -12 5.5t-13 1.5q-12 0 -22.5 -6t-17.5 -17l-31 19q12 19 31.5 29.5t41.5 9.5q11 0 21 -2.5t20 -8.5q6 -3 12 -5t12 -2q12 1 23 7t18 16l30 -19v0z" />
    <glyph glyph-name="odieresis" unicode="&#xf6;" horiz-adv-x="492" 
d="M467 235q0 -95 -66 -165t-163 -70q-96 0 -162 70t-66 165q0 94 66 164t162 70t162.5 -69.5t66.5 -164.5v0zM431 235q0 80 -55.5 139t-137.5 59q-81 0 -136.5 -59t-55.5 -139t55.5 -139.5t136.5 -59.5q82 0 137.5 59.5t55.5 139.5v0zM226 488h-35v38h35v-38v0zM276 488
h-35v38h35v-38v0z" />
    <glyph glyph-name="divide" unicode="&#xf7;" horiz-adv-x="500" 
 />
    <glyph glyph-name="oslash" unicode="&#xf8;" horiz-adv-x="503" 
d="M480 235q0 -95 -66 -165t-163 -70q-25 0 -49 5.5t-46 15.5l-65 -111l-31 18l65 111q-46 32 -74 84t-28 112q0 94 66 164t162 70q29 0 56 -7t50 -20l57 98l31 -17l-58 -100q43 -33 68 -82.5t25 -105.5v0zM444 235q0 47 -20 87.5t-55 68.5l-195 -338q17 -8 36.5 -12.5
t40.5 -4.5q82 0 137.5 59.5t55.5 139.5v0zM340 411q-20 11 -42.5 16.5t-46.5 5.5q-81 0 -136.5 -59t-55.5 -139q0 -50 22.5 -93.5t61.5 -71.5l197 341v0z" />
    <glyph glyph-name="ugrave" unicode="&#xf9;" horiz-adv-x="417" 
d="M398 0h-36v48q-31 -22 -67 -35t-74 -13q-9 0 -17.5 0.5t-16.5 2.5q-8 1 -16.5 4t-17.5 6q-48 20 -79 65.5t-45 106.5q-5 23 -7.5 46.5t-2.5 45.5q0 50 10.5 99.5t26.5 97.5l34 -11q-16 -46 -26 -93.5t-10 -95.5q0 -20 2.5 -40.5t6.5 -40.5q12 -52 38.5 -91t65.5 -56
q14 -6 28.5 -9t27.5 -2q38 0 73 17t66 39v-1v379h36v-469v0zM293 520l-11 -34l-161 51l11 34l161 -51v0z" />
    <glyph glyph-name="uacute" unicode="&#xfa;" horiz-adv-x="417" 
d="M398 0h-36v48q-31 -22 -67 -35t-74 -13q-9 0 -17.5 0.5t-16.5 2.5q-8 1 -16.5 4t-17.5 6q-48 20 -79 65.5t-45 106.5q-5 23 -7.5 46.5t-2.5 45.5q0 50 10.5 99.5t26.5 97.5l34 -11q-16 -46 -26 -93.5t-10 -95.5q0 -20 2.5 -40.5t6.5 -40.5q12 -52 38.5 -91t65.5 -56
q14 -6 28.5 -9t27.5 -2q38 0 73 17t66 39v-1v379h36v-469v0zM357 527l-161 -51l-11 34l161 51l11 -34v0z" />
    <glyph glyph-name="ucircumflex" unicode="&#xfb;" horiz-adv-x="417" 
d="M398 0h-36v48q-31 -22 -67 -35t-74 -13q-9 0 -17.5 0.5t-16.5 2.5q-8 1 -16.5 4t-17.5 6q-48 20 -79 65.5t-45 106.5q-5 23 -7.5 46.5t-2.5 45.5q0 50 10.5 99.5t26.5 97.5l34 -11q-16 -46 -26 -93.5t-10 -95.5q0 -20 2.5 -40.5t6.5 -40.5q12 -52 38.5 -91t65.5 -56
q14 -6 28.5 -9t27.5 -2q38 0 73 17t66 39v-1v379h36v-469v0zM331 500l-20 -30l-82 58l-82 -58l-21 30l103 72l102 -72v0z" />
    <glyph glyph-name="udieresis" unicode="&#xfc;" horiz-adv-x="417" 
d="M398 0h-36v48q-31 -22 -67 -35t-74 -13q-9 0 -17.5 0.5t-16.5 2.5q-8 1 -16.5 4t-17.5 6q-48 20 -79 65.5t-45 106.5q-5 23 -7.5 46.5t-2.5 45.5q0 50 10.5 99.5t26.5 97.5l34 -11q-16 -46 -26 -93.5t-10 -95.5q0 -20 2.5 -40.5t6.5 -40.5q12 -52 38.5 -91t65.5 -56
q14 -6 28.5 -9t27.5 -2q38 0 73 17t66 39v-1v379h36v-469v0zM226 464h-35v38h35v-38v0zM276 464h-35v38h35v-38v0z" />
    <glyph glyph-name="yacute" unicode="&#xfd;" 
 />
    <glyph glyph-name="thorn" unicode="&#xfe;" horiz-adv-x="451" 
d="M430 260q0 -44 -19 -83.5t-52 -68.5q-32 -29 -73 -44.5t-83 -16.5h-5.5h-5.5q-22 0 -44.5 4t-43.5 11q-4 2 -8.5 3.5t-8.5 2.5l12 33l17 -6q19 -7 38.5 -10t38.5 -3h5.5h5.5q36 2 70 15.5t61 37.5q29 26 44 58.5t15 66.5t-15 66.5t-44 57.5q-27 25 -64.5 39t-79.5 14
h-67.5h-67.5v-512h-36v696h36v-148h67.5h67.5h1.5h1.5q88 -1 162 -60t74 -153v0z" />
    <glyph glyph-name="ydieresis" unicode="&#xff;" horiz-adv-x="486" 
d="M463 468l-1 -18q-9 -186 -130 -316t-307 -152q-2 0 -4.5 -0.5t-4.5 -0.5t-4.5 -0.5t-4.5 -0.5l-4 34q66 8 125.5 28.5t114.5 60.5q-82 65 -129.5 154.5t-53.5 192.5v9.5t-1 8.5l36 2v-4.5t1 -4.5v-4.5v-4.5q6 -98 51.5 -182.5t124.5 -143.5q72 62 111 147t44 179v9.5
t1 8.5l35 -2v0zM272 460h-35v38h35v-38v0zM322 460h-35v38h35v-38v0z" />
    <glyph glyph-name="Abreve" unicode="&#x102;" 
 />
    <glyph glyph-name="abreve" unicode="&#x103;" 
 />
    <glyph glyph-name="Aogonek" unicode="&#x104;" 
 />
    <glyph glyph-name="aogonek" unicode="&#x105;" 
 />
    <glyph glyph-name="Cacute" unicode="&#x106;" 
 />
    <glyph glyph-name="cacute" unicode="&#x107;" 
 />
    <glyph glyph-name="Ccaron" unicode="&#x10c;" 
 />
    <glyph glyph-name="ccaron" unicode="&#x10d;" 
 />
    <glyph glyph-name="Dcaron" unicode="&#x10e;" 
 />
    <glyph glyph-name="dcaron" unicode="&#x10f;" 
 />
    <glyph glyph-name="Dslash" unicode="&#x110;" 
 />
    <glyph glyph-name="dslash" unicode="&#x111;" 
 />
    <glyph glyph-name="Eogonek" unicode="&#x118;" 
 />
    <glyph glyph-name="eogonek" unicode="&#x119;" 
 />
    <glyph glyph-name="Ecaron" unicode="&#x11a;" 
 />
    <glyph glyph-name="ecaron" unicode="&#x11b;" 
 />
    <glyph glyph-name="Gbreve" unicode="&#x11e;" 
 />
    <glyph glyph-name="gbreve" unicode="&#x11f;" 
 />
    <glyph glyph-name="Idot" unicode="&#x130;" 
 />
    <glyph glyph-name="dotlessi" unicode="&#x131;" horiz-adv-x="97" 
d="M67 0h-36v469h36v-469v0z" />
    <glyph glyph-name="Lacute" unicode="&#x139;" 
 />
    <glyph glyph-name="lacute" unicode="&#x13a;" 
 />
    <glyph glyph-name="Lcaron" unicode="&#x13d;" 
 />
    <glyph glyph-name="lcaron" unicode="&#x13e;" 
 />
    <glyph glyph-name="Ldot" unicode="&#x13f;" 
 />
    <glyph glyph-name="ldot" unicode="&#x140;" 
 />
    <glyph glyph-name="Lslash" unicode="&#x141;" horiz-adv-x="500" 
 />
    <glyph glyph-name="lslash" unicode="&#x142;" horiz-adv-x="500" 
 />
    <glyph glyph-name="Nacute" unicode="&#x143;" 
 />
    <glyph glyph-name="nacute" unicode="&#x144;" 
 />
    <glyph glyph-name="Ncaron" unicode="&#x147;" 
 />
    <glyph glyph-name="ncaron" unicode="&#x148;" 
 />
    <glyph glyph-name="Odblacute" unicode="&#x150;" 
 />
    <glyph glyph-name="odblacute" unicode="&#x151;" 
 />
    <glyph glyph-name="OE" unicode="&#x152;" horiz-adv-x="964" 
d="M896 0h-404v99q-39 -49 -92.5 -74t-110.5 -25q-52 1 -102.5 23t-90.5 68q-36 42 -54.5 97t-20.5 113v4.5v5.5q0 60 19 117.5t56 100.5q40 47 91 69.5t104 21.5q56 0 109 -24.5t92 -73.5v99h404v-36h-368v-549h368v-36v0zM492 165v291q-31 62 -86.5 95.5t-116.5 33.5
q-45 0 -88 -19t-78 -60q-33 -39 -49.5 -90.5t-16.5 -106.5q0 -54 16.5 -105t49.5 -89q32 -38 73 -57t83 -22h5.5h5.5q61 0 116 33.5t86 95.5v0zM944 346h-404v36h404v-36v0z" />
    <glyph glyph-name="oe" unicode="&#x153;" horiz-adv-x="782" 
d="M760 0h-93q-67 0 -128 27t-97 85q-33 -55 -86 -83.5t-110 -27.5q-43 0 -84.5 17t-75.5 51q-34 35 -50.5 78t-16.5 89v5.5v5.5q2 42 19 81.5t48 71.5q34 35 76 52t85 17q56 0 108 -28t85 -81q36 60 98 86.5t129 26.5h93v-35h-46.5h-46.5q-68 0 -122 -27.5t-85 -89.5
q6 -16 10 -32.5t5 -33.5h222v-36h-110.5h-111.5q-1 -18 -4.5 -34.5t-9.5 -32.5q1 -1 1.5 -2.5t1.5 -2.5q0 -2 0.5 -3t1.5 -2q29 -56 84.5 -81t116.5 -25h93v-36v0zM383 94q29 29 43 66t14 75t-14 75t-43 65q-28 29 -63.5 44t-72.5 14q-37 0 -72 -14.5t-64 -43.5
q-28 -29 -42 -66t-14 -75v-6v-6q2 -34 16 -67.5t40 -60.5q29 -29 64.5 -43.5t72.5 -14.5t72 15t63 43v0z" />
    <glyph glyph-name="Racute" unicode="&#x154;" 
 />
    <glyph glyph-name="racute" unicode="&#x155;" 
 />
    <glyph glyph-name="Rcaron" unicode="&#x158;" 
 />
    <glyph glyph-name="rcaron" unicode="&#x159;" 
 />
    <glyph glyph-name="Sacute" unicode="&#x15a;" 
 />
    <glyph glyph-name="sacute" unicode="&#x15b;" 
 />
    <glyph glyph-name="Scedilla" unicode="&#x15e;" 
 />
    <glyph glyph-name="scedilla" unicode="&#x15f;" 
 />
    <glyph glyph-name="Scaron" unicode="&#x160;" horiz-adv-x="417" 
d="M398 169q0 -7 -0.5 -14.5t-1.5 -14.5q-11 -71 -65 -101t-116 -37q-15 -2 -29 -2h-28q-35 0 -69.5 3t-69.5 8l5 36q17 -3 33.5 -5t33.5 -4q17 -1 33.5 -2t33.5 -1q15 0 30.5 1t32.5 3q48 6 89.5 29.5t49.5 76.5q1 5 1.5 11t0.5 13q0 56 -46.5 85t-102.5 51q-3 1 -5.5 2
t-5.5 2q-58 22 -106.5 49t-56.5 79h-1v15v13q1 5 1 10.5t1 10.5q11 74 67.5 104t121.5 34q7 1 14.5 1h14.5q30 0 59 -3t57 -8l-5 -35l-17 2q-22 4 -46 6t-48 2q-9 0 -18.5 -0.5t-19.5 -1.5q-50 -4 -93 -27t-52 -80q-1 -5 -1 -11.5v-13.5q0 -42 39 -65t89 -43q3 -1 6 -2.5
t6 -2.5t5.5 -2t5.5 -2q65 -25 119 -60t54 -109v0zM353 706l-102 -72l-103 72l21 30l82 -58l82 58l20 -30v0z" />
    <glyph glyph-name="scaron" unicode="&#x161;" horiz-adv-x="377" 
d="M360 434h-33h-72h-44h-36q-43 0 -71.5 -22.5t-28.5 -69.5q0 -31 36 -51t79 -37q1 0 1.5 -0.5t1.5 -0.5q54 -22 99 -49.5t45 -82.5q0 -32 -9 -55t-27 -38q-17 -14 -42 -21t-57 -7h-185v36h46h47h46h46q26 0 45 4.5t31 14.5t17.5 26.5t5.5 39.5q0 36 -37 58t-81 40
q-2 0 -3.5 0.5t-2.5 1.5t-2.5 1.5t-2.5 0.5q-51 21 -92 46t-41 73q0 29 9.5 53t27.5 40q18 17 43 25.5t56 8.5h185v-35v0zM333 552l-102 -72l-103 72l21 30l82 -58l82 58l20 -30v0z" />
    <glyph glyph-name="Tcedilla" unicode="&#x162;" 
 />
    <glyph glyph-name="tcedilla" unicode="&#x163;" 
 />
    <glyph glyph-name="Tcaron" unicode="&#x164;" 
 />
    <glyph glyph-name="tcaron" unicode="&#x165;" 
 />
    <glyph glyph-name="Uring" unicode="&#x16e;" 
 />
    <glyph glyph-name="uring" unicode="&#x16f;" 
 />
    <glyph glyph-name="udblacute" unicode="&#x170;" 
 />
    <glyph glyph-name="Udblacute" unicode="&#x171;" 
 />
    <glyph glyph-name="Ydieresis" unicode="&#x178;" horiz-adv-x="533" 
d="M512 620l-1 -18q-5 -122 -42 -224t-98 -180q-64 -81 -150 -132t-186 -66q-4 0 -8.5 -0.5t-9.5 -0.5l-5 34q5 1 9.5 1.5t8.5 1.5q88 13 164.5 56.5t135.5 112.5q-108 67 -177.5 167t-77.5 229q-1 5 -1 9.5v8.5l35 3q0 -2 0.5 -4.5t0.5 -4.5t0.5 -4.5t0.5 -4.5
q8 -121 73.5 -215t167.5 -156q64 86 92 184.5t32 203.5l36 -1v0zM300 626h-35v38h35v-38v0zM350 626h-35v38h35v-38v0z" />
    <glyph glyph-name="Zacute" unicode="&#x179;" 
 />
    <glyph glyph-name="zacute" unicode="&#x17a;" 
 />
    <glyph glyph-name="Zdot" unicode="&#x17b;" 
 />
    <glyph glyph-name="zdot" unicode="&#x17c;" 
 />
    <glyph glyph-name="Zcaron" unicode="&#x17d;" horiz-adv-x="500" 
 />
    <glyph glyph-name="zcaron" unicode="&#x17e;" horiz-adv-x="500" 
 />
    <glyph glyph-name="florin" unicode="&#x192;" horiz-adv-x="466" 
d="M445 585h-18h-20.5h-21.5q-5 0 -9.5 -0.5t-9.5 -1.5q-17 -4 -31.5 -15t-19.5 -28l-12 -48l-12 -48h150v-36h-158q-25 -97 -49 -194.5t-48 -195.5q-8 -31 -35.5 -49.5t-59.5 -21.5h-4.5h-5.5h-30h-30v35q15 1 30 1h30q4 0 8.5 0.5t8.5 1.5q18 3 33.5 13.5t19.5 28.5
q12 48 24 95.5t24 95.5q11 47 23 94.5t24 95.5h-150v36h79.5h79.5q6 26 12.5 52.5t13.5 52.5q7 30 33 48t56 22q3 0 7 0.5t8 0.5h30h30v-35v0z" />
    <glyph glyph-name="hungarumlaut" unicode="&#x2ba;" horiz-adv-x="500" 
 />
    <glyph glyph-name="tilde" unicode="&#x2c6;" horiz-adv-x="230" 
d="M219 679q-12 -19 -31.5 -29t-40.5 -10q-10 0 -20.5 2.5t-20.5 8.5q-6 4 -12 5.5t-13 1.5q-12 0 -22.5 -6t-17.5 -17l-31 19q12 19 31.5 29.5t41.5 9.5q11 0 21 -2.5t20 -8.5q6 -3 12 -5t12 -2q12 1 23 7t18 16l30 -19v0z" />
    <glyph glyph-name="caron" unicode="&#x2c7;" horiz-adv-x="230" 
d="M217 700l-102 -72l-103 72l21 30l82 -58l82 58l20 -30v0z" />
    <glyph glyph-name="macron" unicode="&#x2c9;" horiz-adv-x="500" 
 />
    <glyph glyph-name="breve" unicode="&#x2d8;" horiz-adv-x="500" 
 />
    <glyph glyph-name="dotaccent" unicode="&#x2d9;" horiz-adv-x="500" 
 />
    <glyph glyph-name="ring" unicode="&#x2da;" horiz-adv-x="128" 
d="M105 678q0 -9 -3.5 -17.5t-10.5 -14.5q-6 -7 -14.5 -10.5t-17.5 -3.5q-19 0 -32.5 13.5t-13.5 32.5q0 10 3.5 18.5t9.5 14.5q7 6 15 9.5t18 3.5q19 0 32.5 -13t13.5 -33v0zM81 678q0 10 -6.5 16.5t-15.5 6.5q-4 0 -8.5 -2t-7.5 -5t-4.5 -7t-1.5 -9q0 -9 6.5 -15.5
t15.5 -6.5q5 0 8.5 2t6.5 5q4 3 5.5 7t1.5 8v0z" />
    <glyph glyph-name="ogonek" unicode="&#x2db;" horiz-adv-x="500" 
 />
    <glyph glyph-name="circumflex" unicode="&#x2dc;" horiz-adv-x="230" 
d="M217 668l-20 -30l-82 58l-82 -58l-21 30l103 72l102 -72v0z" />
    <glyph glyph-name="Gamma" unicode="&#x393;" horiz-adv-x="500" 
 />
    <glyph glyph-name="Theta" unicode="&#x398;" horiz-adv-x="500" 
 />
    <glyph glyph-name="summation" unicode="&#x3a3;" horiz-adv-x="500" 
 />
    <glyph glyph-name="Phi" unicode="&#x3a6;" horiz-adv-x="500" 
 />
    <glyph glyph-name="Omega" unicode="&#x3a9;" horiz-adv-x="500" 
 />
    <glyph glyph-name="alpha" unicode="&#x3b1;" horiz-adv-x="500" 
 />
    <glyph glyph-name="delta" unicode="&#x3b4;" horiz-adv-x="500" 
 />
    <glyph glyph-name="epsilon" unicode="&#x3b5;" horiz-adv-x="500" 
 />
    <glyph glyph-name="pi" unicode="&#x3c0;" horiz-adv-x="500" 
 />
    <glyph glyph-name="sigma" unicode="&#x3c3;" 
 />
    <glyph glyph-name="tau" unicode="&#x3c4;" horiz-adv-x="500" 
 />
    <glyph glyph-name="phi" unicode="&#x3c6;" 
 />
    <glyph glyph-name="glyph276" unicode="&#x2013;" horiz-adv-x="330" 
d="M322 298v-36h-310v36h310v0z" />
    <glyph glyph-name="emdash" unicode="&#x2014;" horiz-adv-x="507" 
d="M511 298v-36h-510v36h510v0z" />
    <glyph glyph-name="underscoredbl" unicode="&#x2017;" horiz-adv-x="500" 
 />
    <glyph glyph-name="quoteleft" unicode="&#x2018;" horiz-adv-x="136" 
d="M118 651l-69 -120l-31 18l69 120l31 -18v0z" />
    <glyph glyph-name="quoteright" unicode="&#x2019;" horiz-adv-x="136" 
d="M118 651l-69 -120l-31 18l69 120l31 -18v0z" />
    <glyph glyph-name="quotesinglbase" unicode="&#x201a;" horiz-adv-x="136" 
d="M118 31l-69 -120l-31 18l69 120l31 -18v0z" />
    <glyph glyph-name="quotedblleft" unicode="&#x201c;" horiz-adv-x="184" 
d="M178 641l-69 -120l-31 18l69 120l31 -18v0zM108 651l-69 -120l-31 18l69 120l31 -18v0z" />
    <glyph glyph-name="quotedblright" unicode="&#x201d;" horiz-adv-x="184" 
d="M178 641l-69 -120l-31 18l69 120l31 -18v0zM108 651l-69 -120l-31 18l69 120l31 -18v0z" />
    <glyph glyph-name="quotedblbase" unicode="&#x201e;" horiz-adv-x="184" 
d="M178 51l-69 -120l-31 18l69 120l31 -18v0zM108 61l-69 -120l-31 18l69 120l31 -18v0z" />
    <glyph glyph-name="dagger" unicode="&#x2020;" horiz-adv-x="500" 
 />
    <glyph glyph-name="daggerdbl" unicode="&#x2021;" horiz-adv-x="500" 
 />
    <glyph glyph-name="glyph287" unicode="&#x2022;" horiz-adv-x="230" 
d="M192 310q0 -31 -22.5 -54t-54.5 -23t-55 23t-23 54q0 32 23 55t55 23t54.5 -23t22.5 -55v0z" />
    <glyph glyph-name="ellipsis" unicode="&#x2026;" horiz-adv-x="243" 
d="M62 0h-35v38h35v-38v0zM142 0h-35v38h35v-38v0zM222 0h-35v38h35v-38v0z" />
    <glyph glyph-name="perthousand" unicode="&#x2030;" horiz-adv-x="500" 
 />
    <glyph glyph-name="guilsinglleft" unicode="&#x2039;" horiz-adv-x="136" 
d="M130 149l-124 124l124 124v-51l-73 -73l73 -73v-51v0z" />
    <glyph glyph-name="guilsinglright" unicode="&#x203a;" horiz-adv-x="136" 
d="M138 273l-124 -124v51l73 73l-73 73v51l124 -124v0z" />
    <glyph glyph-name="exclamdbl" unicode="&#x203c;" horiz-adv-x="500" 
 />
    <glyph glyph-name="nsuperior" unicode="&#x207f;" horiz-adv-x="500" 
 />
    <glyph glyph-name="franc" unicode="&#x20a3;" horiz-adv-x="500" 
 />
    <glyph glyph-name="peseta" unicode="&#x20a7;" horiz-adv-x="500" 
 />
    <glyph glyph-name="trademark" unicode="&#x2122;" horiz-adv-x="500" 
 />
    <glyph glyph-name="arrowleft" unicode="&#x2190;" 
 />
    <glyph glyph-name="arrowup" unicode="&#x2191;" 
 />
    <glyph glyph-name="arrowright" unicode="&#x2192;" horiz-adv-x="500" 
 />
    <glyph glyph-name="arrowdown" unicode="&#x2193;" 
 />
    <glyph glyph-name="arrowboth" unicode="&#x2194;" 
 />
    <glyph glyph-name="arrowupdn" unicode="&#x2195;" 
 />
    <glyph glyph-name="arrowupdnbase" unicode="&#x21a8;" 
 />
    <glyph glyph-name="partialdiff" unicode="&#x2202;" horiz-adv-x="500" 
 />
    <glyph glyph-name="Delta" unicode="&#x2206;" horiz-adv-x="500" 
 />
    <glyph glyph-name="product" unicode="&#x220f;" 
 />
    <glyph glyph-name="minus" unicode="&#x2212;" horiz-adv-x="500" 
 />
    <glyph glyph-name="fraction" unicode="&#x2215;" horiz-adv-x="500" 
 />
    <glyph glyph-name="periodcentered" unicode="&#x2219;" horiz-adv-x="103" 
d="M69 250h-35v38h35v-38v0z" />
    <glyph glyph-name="radical" unicode="&#x221a;" horiz-adv-x="500" 
 />
    <glyph glyph-name="infinity" unicode="&#x221e;" 
 />
    <glyph glyph-name="orthogonal" unicode="&#x221f;" 
 />
    <glyph glyph-name="intersection" unicode="&#x2229;" 
 />
    <glyph glyph-name="integral" unicode="&#x222b;" 
 />
    <glyph glyph-name="approxequal" unicode="&#x2248;" horiz-adv-x="500" 
 />
    <glyph glyph-name="notequal" unicode="&#x2260;" horiz-adv-x="500" 
 />
    <glyph glyph-name="equivalence" unicode="&#x2261;" 
 />
    <glyph glyph-name="lessequal" unicode="&#x2264;" horiz-adv-x="500" 
 />
    <glyph glyph-name="greaterequal" unicode="&#x2265;" horiz-adv-x="500" 
 />
    <glyph glyph-name="house" unicode="&#x2302;" 
 />
    <glyph glyph-name="revlogicalnot" unicode="&#x2310;" 
 />
    <glyph glyph-name="integraltp" unicode="&#x2320;" 
 />
    <glyph glyph-name="integralbt" unicode="&#x2321;" 
 />
    <glyph glyph-name="2500" unicode="&#x2500;" 
 />
    <glyph glyph-name="2502" unicode="&#x2502;" 
 />
    <glyph glyph-name="250c" unicode="&#x250c;" 
 />
    <glyph glyph-name="2510" unicode="&#x2510;" 
 />
    <glyph glyph-name="2514" unicode="&#x2514;" 
 />
    <glyph glyph-name="2518" unicode="&#x2518;" 
 />
    <glyph glyph-name="251c" unicode="&#x251c;" 
 />
    <glyph glyph-name="2524" unicode="&#x2524;" 
 />
    <glyph glyph-name="252c" unicode="&#x252c;" 
 />
    <glyph glyph-name="2534" unicode="&#x2534;" 
 />
    <glyph glyph-name="253c" unicode="&#x253c;" 
 />
    <glyph glyph-name="2550" unicode="&#x2550;" 
 />
    <glyph glyph-name="2551" unicode="&#x2551;" 
 />
    <glyph glyph-name="2552" unicode="&#x2552;" 
 />
    <glyph glyph-name="2553" unicode="&#x2553;" 
 />
    <glyph glyph-name="2554" unicode="&#x2554;" 
 />
    <glyph glyph-name="2555" unicode="&#x2555;" 
 />
    <glyph glyph-name="2556" unicode="&#x2556;" 
 />
    <glyph glyph-name="2557" unicode="&#x2557;" 
 />
    <glyph glyph-name="2558" unicode="&#x2558;" 
 />
    <glyph glyph-name="2559" unicode="&#x2559;" 
 />
    <glyph glyph-name="255a" unicode="&#x255a;" 
 />
    <glyph glyph-name="255b" unicode="&#x255b;" 
 />
    <glyph glyph-name="255c" unicode="&#x255c;" 
 />
    <glyph glyph-name="255d" unicode="&#x255d;" 
 />
    <glyph glyph-name="255e" unicode="&#x255e;" 
 />
    <glyph glyph-name="255f" unicode="&#x255f;" 
 />
    <glyph glyph-name="2560" unicode="&#x2560;" 
 />
    <glyph glyph-name="2561" unicode="&#x2561;" 
 />
    <glyph glyph-name="2562" unicode="&#x2562;" 
 />
    <glyph glyph-name="2563" unicode="&#x2563;" 
 />
    <glyph glyph-name="2564" unicode="&#x2564;" 
 />
    <glyph glyph-name="2565" unicode="&#x2565;" 
 />
    <glyph glyph-name="2566" unicode="&#x2566;" 
 />
    <glyph glyph-name="2567" unicode="&#x2567;" 
 />
    <glyph glyph-name="2568" unicode="&#x2568;" 
 />
    <glyph glyph-name="2569" unicode="&#x2569;" 
 />
    <glyph glyph-name="256a" unicode="&#x256a;" 
 />
    <glyph glyph-name="256b" unicode="&#x256b;" 
 />
    <glyph glyph-name="256c" unicode="&#x256c;" 
 />
    <glyph glyph-name="upblock" unicode="&#x2580;" 
 />
    <glyph glyph-name="dnblock" unicode="&#x2584;" 
 />
    <glyph glyph-name="block" unicode="&#x2588;" 
 />
    <glyph glyph-name="lfblock" unicode="&#x258c;" 
 />
    <glyph glyph-name="rtblock" unicode="&#x2590;" 
 />
    <glyph glyph-name="ltshade" unicode="&#x2591;" 
 />
    <glyph glyph-name="shade" unicode="&#x2592;" 
 />
    <glyph glyph-name="dkshade" unicode="&#x2593;" 
 />
    <glyph glyph-name="filledbox" unicode="&#x25a0;" horiz-adv-x="500" 
 />
    <glyph glyph-name="filledrect" unicode="&#x25ac;" 
 />
    <glyph glyph-name="triagup" unicode="&#x25b2;" 
 />
    <glyph glyph-name="triagrt" unicode="&#x25ba;" 
 />
    <glyph glyph-name="triagdn" unicode="&#x25bc;" 
 />
    <glyph glyph-name="triaglf" unicode="&#x25c4;" 
 />
    <glyph glyph-name="lozenge" unicode="&#x25ca;" horiz-adv-x="500" 
 />
    <glyph glyph-name="circle" unicode="&#x25cb;" 
 />
    <glyph glyph-name="invbullet" unicode="&#x25d8;" 
 />
    <glyph glyph-name="invcircle" unicode="&#x25d9;" 
 />
    <glyph glyph-name="smileface" unicode="&#x263a;" 
 />
    <glyph glyph-name="invsmileface" unicode="&#x263b;" 
 />
    <glyph glyph-name="sun" unicode="&#x263c;" 
 />
    <glyph glyph-name="female" unicode="&#x2640;" 
 />
    <glyph glyph-name="male" unicode="&#x2642;" 
 />
    <glyph glyph-name="spade" unicode="&#x2660;" 
 />
    <glyph glyph-name="club" unicode="&#x2663;" 
 />
    <glyph glyph-name="heart" unicode="&#x2665;" 
 />
    <glyph glyph-name="diamond" unicode="&#x2666;" 
 />
    <glyph glyph-name="musicalnote" unicode="&#x266a;" 
 />
    <glyph glyph-name="musicalnotedbl" unicode="&#x266b;" 
 />
    <glyph glyph-name="apple" unicode="&#xf000;" 
 />
    <glyph glyph-name="fi" unicode="&#xf001;" horiz-adv-x="500" 
 />
    <glyph glyph-name="fl" unicode="&#xf002;" horiz-adv-x="500" 
 />
    <glyph glyph-name="degree" horiz-adv-x="500" 
 />
    <glyph glyph-name="bullet" horiz-adv-x="230" 
d="M192 310q0 -31 -22.5 -54t-54.5 -23t-55 23t-23 54q0 32 23 55t55 23t54.5 -23t22.5 -55v0z" />
    <glyph glyph-name="endash" horiz-adv-x="330" 
d="M322 298v-36h-310v36h310v0z" />
    </font>
</defs>
</svg>
