<?xml version="1.0" standalone="no"?>
<!DOCTYPE svg PUBLIC "-//W3C//DTD SVG 1.1//EN" "http://www.w3.org/Graphics/SVG/1.1/DTD/svg11.dtd" >
<svg xmlns="http://www.w3.org/2000/svg" xmlns:xlink="http://www.w3.org/1999/xlink" version="1.1">
<metadata>
Created by FontForge 20170731 at Fri Nov 26 21:06:19 2004
 By Aleksey,,,
4.1 (c)1986-92 by Richard A. Ware. All Rights Reserved.
</metadata>
<defs>
<font id="RightBankFLF" horiz-adv-x="460" >
  <font-face 
    font-family="RightBankFLF"
    font-weight="500"
    font-stretch="normal"
    units-per-em="1000"
    panose-1="2 0 6 3 4 0 0 2 0 4"
    ascent="800"
    descent="-200"
    x-height="525"
    cap-height="672"
    bbox="-75 -240 1158 847"
    underline-thickness="20"
    underline-position="-196"
    unicode-range="U+0005-E00A"
  />
<missing-glyph horiz-adv-x="500" 
 />
    <glyph glyph-name=".notdef" horiz-adv-x="500" 
 />
    <glyph glyph-name=".null" horiz-adv-x="0" 
 />
    <glyph glyph-name="nonmarkingreturn" unicode="&#xe002;" horiz-adv-x="0" 
 />
    <glyph glyph-name="breve" horiz-adv-x="330" 
d="M84 654q-6 9 -14 11t-14 -2t-8 -11t3 -16q18 -32 51 -47.5t71 -15.5q36 0 68.5 15.5t51.5 47.5q6 10 3.5 17.5t-8.5 10.5t-14 1t-14 -11q-16 -24 -40 -36t-48 -12t-47.5 12t-40.5 36z" />
    <glyph glyph-name="dotaccent" horiz-adv-x="205" 
d="M167 619q0 26 -17.5 43.5t-43.5 17.5t-43.5 -17.5t-17.5 -43.5t17.5 -43.5t43.5 -17.5t43.5 17.5t17.5 43.5z" />
    <glyph glyph-name="ring" horiz-adv-x="250" 
d="M207 648q0 34 -23.5 57.5t-57.5 23.5t-57.5 -23.5t-23.5 -57.5t23.5 -57.5t57.5 -23.5t57.5 23.5t23.5 57.5zM64 648q0 26 18 44t44 18t44 -18t18 -44t-18 -44t-44 -18t-44 18t-18 44z" />
    <glyph glyph-name="hungarumlaut" unicode="&#xa;" horiz-adv-x="250" 
d="M145 708l-48 21l-59 -161l19 -7zM239 708l-48 21l-59 -161l19 -7z" />
    <glyph glyph-name="ogonek" horiz-adv-x="224" 
d="M90 -78q0 12 5 24t11.5 22t13 18.5t10.5 13.5h-18q-23 -19 -40 -40t-17 -50q0 -26 17 -44.5t52 -18.5q20 0 33.5 4.5t26.5 10.5l-7 24q-12 -4 -23 -6.5t-20 -2.5q-23 0 -33.5 12.5t-10.5 32.5z" />
    <glyph glyph-name="caron" horiz-adv-x="375" 
d="M35 680l120 -97h17l-118 97h-19zM343 680h-122l-61 -61l42 -36h45z" />
    <glyph glyph-name="dotlessi" unicode="&#xd;" horiz-adv-x="128" 
d="M36 0h57v525h-57v-525z" />
    <glyph glyph-name="fraction" horiz-adv-x="500" 
d="M478 688q4 5 4 12q0 15 -17 15q-9 0 -16 -11l-420 -701q-5 -8 -5 -14q0 -9 5.5 -13.5t12.5 -4.5q9 0 18 14z" />
    <glyph glyph-name="Lslash" horiz-adv-x="545" 
d="M280 365h-25v-365h260v25h-235v340zM215 382l77 77v31l-77 -77v259h-175v-424l-38 -38v-31l38 38v-217h175v382z" />
    <glyph glyph-name="lslash" horiz-adv-x="270" 
d="M38 246l-36 -36v-31l36 36v-215h211v22h-151v245l49 49v31l-49 -49v227h-60v-279z" />
    <glyph glyph-name="Zcaron" horiz-adv-x="585" 
d="M537 672h-501v-27h304l-304 -645h179zM465 365h-30l-170 -365h295v25h-250zM443 812h-17l-97 -97h17zM341 751l-61 61h-122l97 -97h50z" />
    <glyph glyph-name="zcaron" horiz-adv-x="363" 
d="M328 680h-17l-97 -97h17zM226 619l-61 61h-122l97 -97h50zM338 525h-303v-22h227l-241 -503h317v22h-239z" />
    <glyph glyph-name="space" unicode=" " horiz-adv-x="350" 
 />
    <glyph glyph-name="exclam" unicode="!" horiz-adv-x="372" 
d="M241 672h-175v-462h175v462zM281 210h25v462h-25v-462zM241 163h-175v-163h175v163zM281 0h25v163h-25v-163z" />
    <glyph glyph-name="quotedbl" unicode="&#x22;" horiz-adv-x="355" 
d="M135 692h-100l60 -130h40v130zM190 478v214h-25v-214h25zM221 562h40l60 130h-100v-130z" />
    <glyph glyph-name="numbersign" unicode="#" horiz-adv-x="745" 
d="M328 508l30 123h-100l-31 -123h-120l-6 -24h121l-28 -112h-120l-6 -24h120l-30 -124h100l31 124h137l-32 -128h100l31 128h123l6 24h-122l27 112h122l6 24h-123l31 123h-100l-30 -123h-137zM322 484h137l-28 -112h-136z" />
    <glyph glyph-name="dollar" unicode="$" horiz-adv-x="600" 
d="M486 321l-284 319q18 5 49.5 8t67.5 3q33 0 65 -6t60.5 -16.5t52 -26.5t38.5 -35l21 15q-32 40 -88 65t-121 28v61h-35v-60h-24q-10 0 -23 -1v61h-35v-65q-72 -10 -116.5 -36t-44.5 -64q0 -21 11.5 -40.5t28.5 -39.5l377 -429q27 23 44 47t17 67q0 48 -16.5 81t-44.5 64z
M32 101q33 -51 86.5 -79.5t111.5 -32.5v-60h35v57h18h13t16 1v-58h35v62q34 5 62.5 18.5t48.5 29.5l-257 292h-34l247 -287q-28 -15 -59.5 -24t-81.5 -9q-36 0 -70.5 8.5t-63.5 23t-51 33.5t-35 40z" />
    <glyph glyph-name="percent" unicode="%" horiz-adv-x="760" 
d="M650 675h-35l-500 -675h35zM195 366v159h-20v-176q5 -2 15 -3.5t23 -1.5q42 0 73.5 15t53 39t32.5 54t11 59q0 31 -12 61.5t-33.5 53.5t-52.5 37.5t-69 14.5t-68.5 -14.5t-52.5 -37.5t-34 -53.5t-12 -61.5q0 -53 28 -93.5t73 -59.5v282q9 5 23 11.5t43 6.5q32 0 59 -12.5
t46.5 -33t30.5 -47t11 -54.5q0 -27 -9 -53.5t-28 -47t-47 -33.5t-66 -13q-10 0 -18 2zM529 20v159h-20v-176q5 -2 15 -3.5t23 -1.5q42 0 73.5 15t53 39t32.5 54t11 59q0 31 -12 61.5t-33.5 53.5t-52.5 37.5t-69 14.5t-68.5 -14.5t-52.5 -37.5t-34 -53.5t-12 -61.5
q0 -53 28 -93.5t73 -59.5v282q9 5 23 11.5t43 6.5q32 0 59 -12.5t46.5 -33t30.5 -47t11 -54.5q0 -27 -9 -53.5t-28 -47t-47 -33.5t-66 -13q-10 0 -18 2z" />
    <glyph glyph-name="ampersand" unicode="&#x26;" horiz-adv-x="710" 
d="M340 740q-63 0 -101 -29t-38 -74q0 -35 20.5 -60.5t55.5 -34.5q-56 -6 -103.5 -27t-82 -55t-54.5 -80t-20 -102q0 -50 13.5 -93t38.5 -77.5t60 -57.5t77 -32v487q7 3 19.5 6.5t27.5 6.5t31 5t31 2h265v-256q0 -56 -19 -103t-54 -80.5t-85 -52t-111 -18.5q-14 0 -22.5 2
t-16.5 4v271h-26v-289q14 -5 30.5 -9t34.5 -4q70 0 125 22.5t92.5 59.5t57 85.5t19.5 99.5v268h85v25h-341q-24 0 -46.5 6t-39.5 17t-27 27t-10 37q0 38 33 58.5t81 20.5q28 0 51 -6.5t39.5 -18t25.5 -25.5t9 -29q0 -14 -4.5 -25t-12.5 -22l19 -15q25 26 25 63
q0 19 -10.5 37.5t-30 32.5t-47.5 23t-64 9z" />
    <glyph glyph-name="quotesingle" unicode="'" horiz-adv-x="270" 
d="M169 690h-105v-90h105v90zM224 510v180h-25v-180h25z" />
    <glyph glyph-name="parenleft" unicode="(" horiz-adv-x="236" 
d="M83 324q1 91 28 191t91 201h-46q-65 -101 -92.5 -196.5t-27.5 -195.5q0 -101 25.5 -208t94.5 -216h46q-35 54 -58 109.5t-36.5 110t-19 106.5t-5.5 98z" />
    <glyph glyph-name="parenright" unicode=")" horiz-adv-x="236" 
d="M82 716h-46q64 -101 91 -201t28 -191q0 -46 -5.5 -98t-19 -106.5t-37 -110t-57.5 -109.5h46q69 109 94.5 216t25.5 208q0 100 -27.5 195.5t-92.5 196.5z" />
    <glyph glyph-name="asterisk" unicode="*" horiz-adv-x="320" 
d="M72 674q-8 0 -12 -5t-4 -10q0 -9 9 -16t23 -13.5t31 -12t34 -10.5q-16 -5 -33 -10t-31.5 -11.5t-23.5 -14t-9 -17.5q0 -6 4.5 -10.5t11.5 -4.5q9 0 19.5 6t22 15t23 19.5t21.5 19.5q-3 -19 -8 -38.5t-5 -42.5q0 -14 4.5 -23t13.5 -9q10 0 14 9t4 23q0 23 -5 42.5t-8 38.5
q11 -10 22.5 -20.5t23 -19t22 -14t18.5 -5.5t12 5t4 10q0 8 -8 15t-21.5 13.5t-31 12t-36.5 11.5q18 5 35.5 11t31 12.5t22 14t8.5 15.5q0 15 -16 15q-8 0 -19 -6t-22.5 -15t-23.5 -19.5t-21 -19.5q3 19 8 38.5t5 42.5q0 14 -4.5 23t-13.5 9q-10 0 -14 -9t-4 -23
q0 -23 5 -42.5t8 -38.5q-21 20 -45 39.5t-41 19.5z" />
    <glyph glyph-name="plus" unicode="+" horiz-adv-x="590" 
d="M221 354h-150v-30h150v-165h168v351h-168v-156zM533 325v28h-115v-28h115z" />
    <glyph glyph-name="comma" unicode="," horiz-adv-x="270" 
d="M155 87h-105v-90h105v90zM220 -93v180h-25v-180h25z" />
    <glyph glyph-name="hyphen" unicode="-" horiz-adv-x="365" 
d="M260 364h-210v-60h210v60zM315 304v60h-25v-60h25z" />
    <glyph glyph-name="period" unicode="." horiz-adv-x="265" 
d="M155 87h-105v-90h105v90zM220 -3v90h-25v-90h25z" />
    <glyph glyph-name="slash" unicode="/" horiz-adv-x="310" 
d="M279 689q2 6 2 7v4q0 8 -5.5 12t-11.5 4q-14 0 -17 -12l-221 -706q-2 -5 -2 -13q0 -6 4 -11t11 -5q16 0 21 16z" />
    <glyph glyph-name="zero" unicode="0" horiz-adv-x="775" 
d="M326 21v343h-32v-362q26 -9 48 -12.5t52 -3.5q73 0 136 29t109 77t72.5 111t26.5 131q0 66 -25.5 129t-71.5 111.5t-110 78t-140 29.5q-81 0 -146 -31t-110 -80.5t-69.5 -112t-24.5 -124.5q0 -49 14.5 -97.5t42 -91t67 -76.5t89.5 -54v606q21 13 53.5 24t83.5 11
q58 0 115 -23t102 -65.5t72.5 -102t27.5 -131.5q0 -67 -26 -126t-69.5 -102.5t-100.5 -68.5t-118 -25q-20 0 -36 2t-32 7z" />
    <glyph glyph-name="one" unicode="1" horiz-adv-x="445" 
d="M205 672v-672h175v672h-175zM70 533l76 93v-93h25v139h-21l-110 -139h30z" />
    <glyph glyph-name="two" unicode="2" horiz-adv-x="552" 
d="M505 0v25h-201l143 314l-24 12l-163 -351h245zM55 558q13 18 33.5 35t46 29.5t55 20t61.5 7.5t56.5 -4t38.5 -9l-305 -637h179l267 589q-17 15 -39 30.5t-50.5 28t-64.5 20t-82 7.5q-36 0 -70.5 -9t-63 -23t-50 -32t-32.5 -37z" />
    <glyph glyph-name="three" unicode="3" horiz-adv-x="608" 
d="M324 672h-247v-25h202l-177 -283h30zM547 672h-175l-185 -308h105q57 0 104 -18.5t80.5 -54t52 -87.5t18.5 -119q0 -66 -22 -121t-61.5 -94.5t-93.5 -62t-118 -22.5q-46 0 -88 12.5t-76.5 37t-59.5 60.5t-37 83l-24 -7q12 -50 38 -89t63.5 -66t84 -41.5t99.5 -14.5
q70 0 128.5 23.5t101 66t66.5 102.5t24 133t-18.5 124.5t-48 86t-65.5 54t-72 27.5z" />
    <glyph glyph-name="four" unicode="4" horiz-adv-x="644" 
d="M476 364h152v25h-152v283h-175v-672h175v364zM261 0v389h-200l155 283h-27l-172 -308h219v-364h25z" />
    <glyph glyph-name="five" unicode="5" horiz-adv-x="652" 
d="M615 85q0 80 -28 137t-74 93.5t-105.5 53.5t-123.5 17v261h230v25h-255v-308q67 0 127 -16t105.5 -50t72 -87t26.5 -126q0 -69 -25 -124.5t-68.5 -94.5t-101.5 -60t-125 -21q-50 0 -96 12.5t-83.5 37t-64.5 60.5t-39 83l-24 -9q13 -51 42 -90t69.5 -65.5t90.5 -40
t105 -13.5q72 0 135 22.5t109.5 65t73.5 102.5t27 135zM44 364h175v308h-175v-308z" />
    <glyph glyph-name="six" unicode="6" horiz-adv-x="625" 
d="M388 292h-26v-270q-5 -2 -15.5 -3.5t-23.5 -1.5q-63 0 -112.5 19.5t-84 54t-52.5 81.5t-18 103q0 60 19.5 106t54 77.5t83 47.5t106.5 16q42 0 68 -8.5t41 -18.5v-479q36 15 67.5 40t54 57.5t35.5 71.5t13 84q0 58 -22 108.5t-60.5 88t-89 59.5t-107.5 22q-39 0 -86.5 -9
t-92.5 -38l130 195h-30l-115 -170q-13 -19 -29.5 -44.5t-31 -56.5t-24.5 -68.5t-10 -80.5q0 -62 20 -114t57.5 -89.5t92 -58.5t123.5 -21q19 0 36.5 3t28.5 6v291z" />
    <glyph glyph-name="seven" unicode="7" horiz-adv-x="590" 
d="M339 672h-290v-25h245l-120 -247h30zM554 672h-175l-335 -672h175z" />
    <glyph glyph-name="eight" unicode="8" horiz-adv-x="625" 
d="M311 15q-14 0 -23.5 2t-16.5 4v271h-25v-289q8 -4 26.5 -8.5t38.5 -4.5q78 0 134 25.5t92 66.5t53.5 92.5t17.5 102.5t-15.5 96.5t-45 81t-72 58t-96.5 28.5q38 14 59 39.5t21 60.5q0 25 -12 43.5t-31.5 31t-45.5 18.5t-54 6q-36 0 -63.5 -9.5t-46 -25t-28 -35
t-9.5 -39.5q0 -21 9.5 -38t24.5 -33l21 14q-14 14 -22 28.5t-8 28.5q0 35 31 59.5t91 24.5q49 0 83.5 -17.5t34.5 -56.5q0 -19 -7.5 -34.5t-20 -26.5t-28.5 -18.5t-34 -10.5q-19 -4 -43 -7t-46 -6q-60 -9 -104 -34t-73 -60.5t-43 -78.5t-14 -88q0 -44 12 -85t35.5 -75.5
t58 -61t79.5 -40.5v490q18 8 48.5 14.5t60.5 6.5q58 0 107 -16t85 -47t56 -78t20 -108q0 -57 -19.5 -105t-55 -83t-86 -54.5t-111.5 -19.5z" />
    <glyph glyph-name="nine" unicode="9" horiz-adv-x="625" 
d="M555 237q24 38 36.5 83t12.5 82q0 57 -20.5 106.5t-58 86t-90 57.5t-117.5 21q-58 0 -109 -22t-89.5 -60t-60.5 -88t-22 -107q0 -47 13.5 -87t36.5 -72.5t54 -56.5t66 -39v481q17 11 41.5 18.5t69.5 7.5q58 0 106.5 -20t82.5 -53.5t53 -78.5t19 -94q0 -54 -18.5 -101.5
t-52.5 -82.5t-83.5 -55t-110.5 -20q-14 0 -23.5 1t-17.5 2v272h-26v-291q14 -3 30 -6t37 -3q52 0 96 13.5t70 30.5l-170 -270h30z" />
    <glyph glyph-name="colon" unicode=":" horiz-adv-x="270" 
d="M155 87h-105v-90h105v90zM220 -3v90h-25v-90h25zM155 362h-105v-90h105v90zM220 272v90h-25v-90h25z" />
    <glyph glyph-name="semicolon" unicode=";" horiz-adv-x="270" 
d="M155 362h-105v-90h105v90zM220 272v90h-25v-90h25zM155 87h-105v-90h105v90zM220 -93v180h-25v-180h25z" />
    <glyph glyph-name="less" unicode="&#x3c;" horiz-adv-x="255" 
d="M199 524l-152 -188v-32l152 188v32zM199 42v192l-96 94l-56 -66v-70z" />
    <glyph glyph-name="equal" unicode="=" horiz-adv-x="430" 
d="M290 444h-210v-60h210v60zM345 384v60h-25v-60h25zM290 294h-210v-60h210v60zM345 234v60h-25v-60h25z" />
    <glyph glyph-name="greater" unicode="&#x3e;" horiz-adv-x="255" 
d="M51 508v-192l96 -94l56 66v70zM50 29l152 188v32l-152 -188v-32z" />
    <glyph glyph-name="question" unicode="?" horiz-adv-x="625" 
d="M311 738q-67 0 -120 -18t-90 -48t-56.5 -70t-19.5 -85h22q0 39 17.5 75t51 64t83 44.5t112.5 16.5q42 0 68 -6t43 -15v-499q46 7 81 30.5t59 58t36.5 77t12.5 87.5q0 53 -18 104.5t-54.5 92.5t-93 66t-134.5 25zM315 485h-175v-275h175v275zM355 210h25v275h-25v-275z
M315 170h-175v-170h175v170zM355 0h25v170h-25v-170z" />
    <glyph glyph-name="at" unicode="@" horiz-adv-x="584" 
d="M179 383q0 22 7.5 42.5t22 36.5t36 25.5t48.5 9.5q22 0 39.5 -8.5t29.5 -22t18 -31.5t6 -37q0 -21 -6.5 -42.5t-20 -38.5t-34 -27.5t-48.5 -10.5q-53 0 -75.5 30.5t-22.5 73.5zM57 399q0 44 17 86t48.5 75t76 53t100.5 20t100.5 -19t76 -50.5t48.5 -71t17 -81.5
q0 -20 -5 -43t-15 -43t-26.5 -33t-38.5 -13q-29 0 -38 21t-9 46v6l13 159h-19l-5 -64q-3 11 -10.5 23t-19.5 22.5t-30.5 17.5t-44.5 7q-32 0 -57.5 -11t-42.5 -29.5t-26 -43t-9 -50.5q0 -54 29 -89.5t89 -35.5q30 0 50 8.5t33 20t20.5 24.5t11.5 22q0 -29 13 -52t48 -23
q32 0 53 15t33.5 38t17.5 50t5 50q0 45 -18 88t-52 77.5t-82.5 55.5t-109.5 21t-109.5 -22t-82.5 -57.5t-52 -81t-18 -93.5t16 -94t48.5 -82t81.5 -58t115 -22q30 0 57.5 5.5t51 13.5t40.5 17.5t26 18.5q5 5 5 11q0 11 -11 11q-4 0 -7 -3q-21 -22 -65.5 -38t-94.5 -16
q-61 0 -106.5 20.5t-76 53.5t-45.5 75.5t-15 86.5z" />
    <glyph glyph-name="A" unicode="A" horiz-adv-x="650" 
d="M275 672l190 -672h175l-190 672h-175zM16 0h31l107 364h132l104 -364h31l-111 389h-149l74 283h-29z" />
    <glyph glyph-name="B" unicode="B" horiz-adv-x="650" 
d="M427 0q44 0 80.5 15.5t63 41.5t41.5 61.5t15 75.5q0 45 -14.5 78.5t-36.5 56t-48.5 34.5t-51.5 15q25 6 48 15.5t40.5 25.5t28 40t10.5 59q0 42 -16.5 71t-44 47.5t-63 27t-72.5 8.5h-367v-672h175v647h192q31 0 61.5 -7t55 -22.5t39.5 -40t15 -59.5q0 -34 -15 -58.5
t-39.5 -40.5t-55 -23.5t-61.5 -7.5h-152v-388h172zM602 194q0 -35 -14.5 -65.5t-38.5 -53.5t-55.5 -36.5t-65.5 -13.5h-148v338h148q34 0 65.5 -10.5t55.5 -32t38.5 -53t14.5 -73.5z" />
    <glyph glyph-name="C" unicode="C" horiz-adv-x="715" 
d="M37 334q0 -54 14.5 -103t41 -89.5t62.5 -72.5t80 -51v600q22 13 59.5 25t83.5 12q90 0 155.5 -36.5t107.5 -87.5l20 15q-26 30 -54 55t-61.5 43t-74.5 28t-93 10q-71 0 -133 -27.5t-108.5 -75t-73 -111t-26.5 -134.5zM303 354h-25v-353q18 -6 42.5 -11.5t62.5 -5.5
q53 0 97 12.5t80 33.5t63.5 48t47.5 56l-22 15q-21 -29 -48 -54t-60.5 -44t-73 -29.5t-84.5 -10.5q-32 0 -49.5 3.5t-30.5 7.5v332z" />
    <glyph glyph-name="D" unicode="D" horiz-adv-x="640" 
d="M294 25h-16v371h-25v-396h31q20 0 53 5.5t70 19.5t74.5 38.5t67.5 62.5t49 92t19 126q0 81 -28 142.5t-76.5 103t-112.5 62t-136 20.5h-226v-672h175v647h40q73 0 135 -19t107.5 -57t71 -95t25.5 -132q0 -65 -16.5 -113.5t-43.5 -84t-60 -59t-66 -37.5t-62.5 -19.5
t-49.5 -5.5z" />
    <glyph glyph-name="E" unicode="E" horiz-adv-x="525" 
d="M215 0v647h275v25h-450v-672h175zM490 389h-235v-389h235v25h-210v339h210v25z" />
    <glyph glyph-name="F" unicode="F" horiz-adv-x="530" 
d="M220 0v647h275v25h-450v-672h175zM495 389h-235v-389h25v364h210v25z" />
    <glyph glyph-name="G" unicode="G" horiz-adv-x="756" 
d="M33 347q0 -120 53.5 -202t149.5 -127v601q20 13 54 25t87 12q47 0 87 -11t74 -30t61.5 -45.5t49.5 -56.5l20 15q-23 33 -51.5 61t-64.5 49t-80 32.5t-96 11.5q-73 0 -136 -28.5t-109 -75.5t-72.5 -107t-26.5 -124zM310 354h-28v-353q14 -6 38 -11t53 -5q86 0 152.5 29.5
t112 80t69 117.5t23.5 142h-316v-25h288q0 -54 -21 -110.5t-62 -102.5t-103 -75t-143 -29q-21 0 -37 3.5t-26 7.5v331z" />
    <glyph glyph-name="H" unicode="H" horiz-adv-x="660" 
d="M215 672h-175v-672h175v672zM255 0h25v364h167v-364h175v672h-175v-283h-192v-389z" />
    <glyph glyph-name="I" unicode="I" horiz-adv-x="320" 
d="M215 672h-175v-672h175v672zM255 0h25v672h-25v-672z" />
    <glyph glyph-name="J" unicode="J" horiz-adv-x="592" 
d="M384 32q49 16 82.5 45.5t54 64t29.5 72t9 70.5v388h-175v-640zM319 364v-337q-16 -5 -33 -8t-37 -3q-35 0 -68 9.5t-60.5 27.5t-47.5 43.5t-29 56.5h-26q10 -34 29.5 -63t48.5 -50t67.5 -33t86.5 -12q21 0 44.5 3t49.5 11v355h-25z" />
    <glyph glyph-name="K" unicode="K" horiz-adv-x="670" 
d="M215 672h-175v-672h175v672zM255 0h26v365l204 -365h165l-220 390l175 282h-180l-170 -287v-385z" />
    <glyph glyph-name="L" unicode="L" horiz-adv-x="545" 
d="M215 0v672h-175v-672h175zM280 365h-25v-365h260v25h-235v340z" />
    <glyph glyph-name="M" unicode="M" horiz-adv-x="925" 
d="M43 0l157 616l85 -312h25l-101 368h-21l-170 -672h25zM556 672l-75 -211l-57 211h-175l191 -672h173l-121 420l71 201l172 -621h177l-191 672h-165z" />
    <glyph glyph-name="N" unicode="N" horiz-adv-x="640" 
d="M598 0l-378 672h-174v-672h25v609l346 -609h181zM598 85v587h-25v-494l-120 218h-29z" />
    <glyph glyph-name="O" unicode="O" horiz-adv-x="775" 
d="M326 17v345h-32v-365q18 -5 44 -9t56 -4q69 0 131 26.5t109.5 73t75.5 111t28 139.5q0 73 -27.5 136.5t-75 110.5t-110.5 74t-134 27q-74 0 -138 -28t-111.5 -75.5t-74.5 -110.5t-27 -134q0 -54 15.5 -104t43.5 -92t67.5 -74.5t87.5 -51.5v611q21 12 56 22.5t81 10.5
q66 0 124 -26t102 -70.5t69.5 -103t25.5 -122.5q0 -69 -26.5 -128t-71 -102.5t-102 -68t-118.5 -24.5q-38 0 -68 6z" />
    <glyph glyph-name="P" unicode="P" horiz-adv-x="616" 
d="M41 672v-672h175v647h172q39 0 72.5 -7.5t58.5 -24t39 -41.5t14 -60q0 -33 -14 -56.5t-39 -39t-58.5 -22.5t-72.5 -7h-132v-389h25v364h107q40 0 77.5 7.5t66.5 25.5t47 46.5t18 70.5q0 44 -18 74.5t-47 49t-66.5 26.5t-77.5 8h-347z" />
    <glyph glyph-name="Q" unicode="Q" horiz-adv-x="780" 
d="M325 -130v120q30 -6 69 -6q69 0 131 26.5t109.5 73t75.5 111t28 139.5q0 73 -27.5 136.5t-75 110.5t-110.5 74t-134 27q-74 0 -138 -28t-111.5 -75.5t-74.5 -110.5t-27 -134q0 -54 15.5 -104t43.5 -92t67.5 -74.5t87.5 -51.5v611q21 12 56 22.5t81 10.5q66 0 124 -26
t102 -70.5t69.5 -103t25.5 -122.5q0 -69 -26.5 -128t-71 -102.5t-102 -68t-118.5 -24.5q-38 0 -68 6v379h-32v-526h31z" />
    <glyph glyph-name="R" unicode="R" horiz-adv-x="720" 
d="M62 672v-672h175v647h184q39 0 74 -8t62 -25.5t42.5 -44t15.5 -62.5q0 -35 -14 -62t-36.5 -45t-52 -27t-60.5 -9h-175v-364h30v338l186 -338h183l-189 342q29 7 56.5 18.5t49 30.5t34.5 47.5t13 68.5q0 43 -16.5 74t-46 51t-69.5 30t-87 10h-359z" />
    <glyph glyph-name="S" unicode="S" horiz-adv-x="604" 
d="M167 331l247 -287q-23 -14 -56.5 -23.5t-83.5 -9.5q-75 0 -133 29.5t-88 74.5l-21 -14q35 -51 93 -83t149 -32q42 0 72 5.5t51 13.5t35.5 17t25.5 17l-257 292h-34zM500 305l-296 333q23 6 53 9.5t65 3.5q28 0 58.5 -5t59 -15.5t53.5 -26.5t42 -37l21 15
q-18 23 -44.5 40.5t-57.5 29.5t-65 18t-67 6q-123 0 -188 -30.5t-65 -72.5q0 -29 16.5 -50.5t31.5 -38.5l369 -422q28 21 44.5 49t16.5 73q0 33 -10.5 62.5t-36.5 58.5z" />
    <glyph glyph-name="T" unicode="T" horiz-adv-x="540" 
d="M335 0v672h-305v-25h130v-647h175zM510 672h-135v-297h25v272h110v25z" />
    <glyph glyph-name="U" unicode="U" horiz-adv-x="644" 
d="M290 25v647h-25v-672h73q48 0 94.5 11t84 33t60.5 55.5t23 78.5v494h-25v-486q0 -40 -20.5 -70t-55 -50.5t-80 -30.5t-95.5 -10h-34zM225 672h-175v-493q0 -38 15.5 -68.5t40.5 -53t56.5 -36t62.5 -17.5v668z" />
    <glyph glyph-name="V" unicode="V" horiz-adv-x="630" 
d="M597 672l-174 -620l-81 315h-25l94 -367h21l190 672h-25zM10 672l190 -672h170l-190 672h-170z" />
    <glyph glyph-name="W" unicode="W" horiz-adv-x="935" 
d="M894 672l-158 -616l-78 307h-25l94 -365h21l171 674h-25zM380 0l73 214l59 -214h175l-192 672h-173l120 -417l-69 -201l-173 618h-177l192 -672h165z" />
    <glyph glyph-name="X" unicode="X" horiz-adv-x="608" 
d="M26 0h32l285 428l-143 244h-180l210 -358zM590 672h-32l-288 -427l144 -245h180l-213 363z" />
    <glyph glyph-name="Y" unicode="Y" horiz-adv-x="570" 
d="M549 672h-171l-350 -675h173zM194 401l141 271h-30l-111 -213l-105 213h-30z" />
    <glyph glyph-name="Z" unicode="Z" horiz-adv-x="585" 
d="M537 672h-501v-27h304l-304 -645h179zM465 365h-30l-170 -365h295v25h-250z" />
    <glyph glyph-name="bracketleft" unicode="[" horiz-adv-x="265" 
d="M202 685v25h-142v-785l145 -1v25l-69 1v735h66z" />
    <glyph glyph-name="backslash" unicode="\" horiz-adv-x="310" 
d="M59 700h-35l240 -700h35z" />
    <glyph glyph-name="bracketright" unicode="]" horiz-adv-x="265" 
d="M210 -75v785h-142v-25h66v-736l-69 -1v-24z" />
    <glyph glyph-name="asciicircum" unicode="^" horiz-adv-x="585" 
d="M553 396l-188 262h-26l184 -262h30zM78 396h191l91 172l-62 90h-70z" />
    <glyph glyph-name="underscore" unicode="_" horiz-adv-x="364" 
d="M372 -30h-372v-26h372v26z" />
    <glyph glyph-name="grave" unicode="`" horiz-adv-x="260" 
d="M192 567l13 16l-124 113l-32 -36z" />
    <glyph glyph-name="a" unicode="a" horiz-adv-x="420" 
d="M211 547l-195 -547h21l57 156h196l57 -156h60zM190 428l89 -249h-177z" />
    <glyph glyph-name="b" unicode="b" horiz-adv-x="360" 
d="M36 525v-525h141q35 0 65.5 8t52.5 25.5t34.5 44t12.5 62.5q0 33 -8.5 56.5t-22.5 39t-31.5 25t-36.5 13.5q16 3 32 11.5t29 23t21 35.5t8 48q0 65 -42.5 99t-110.5 34h-144zM96 22v237h81q53 0 82 -27t29 -92t-29 -91.5t-82 -26.5h-81zM96 281v222h81q50 0 77.5 -27
t27.5 -84t-27.5 -84t-77.5 -27h-81z" />
    <glyph glyph-name="c" unicode="c" horiz-adv-x="399" 
d="M83 262q0 52 10.5 96t30 76t47.5 49.5t63 17.5q50 0 83 -17.5t57 -44.5l14 13q-12 16 -26 30.5t-32.5 25t-43 17t-57.5 6.5q-45 0 -84 -21t-67 -58t-44 -86t-16 -104q0 -56 16 -104.5t44 -85t67 -57.5t84 -21q33 0 57 5.5t42.5 15t33 22t27.5 26.5l-15 15
q-25 -24 -57.5 -39t-82.5 -15q-35 0 -63 17.5t-47.5 49t-30 75t-10.5 96.5z" />
    <glyph glyph-name="d" unicode="d" horiz-adv-x="396" 
d="M379 262q0 52 -12.5 99.5t-36.5 84t-60 58t-84 21.5h-150v-525h150q48 0 84 21.5t60 57.5t36.5 83.5t12.5 99.5zM96 22v481h84q36 0 62 -20.5t43 -54.5t25.5 -77.5t8.5 -88.5t-8.5 -88t-26 -76.5t-43.5 -54.5t-61 -21h-84z" />
    <glyph glyph-name="e" unicode="e" horiz-adv-x="264" 
d="M238 503v22h-202v-525h202v22h-142v240h142v22h-142v219h142z" />
    <glyph glyph-name="f" unicode="f" horiz-adv-x="261" 
d="M238 503v22h-202v-525h60v262h142v22h-142v219h142z" />
    <glyph glyph-name="g" unicode="g" horiz-adv-x="423" 
d="M83 261q0 115 42 177.5t111 62.5q52 0 83 -18.5t56 -43.5l14 14q-14 16 -28 30.5t-31.5 25t-41.5 16.5t-57 6q-44 0 -82.5 -20.5t-67.5 -56.5t-46 -85.5t-17 -107.5q0 -59 17 -108t46 -84t67.5 -55t82.5 -20q35 0 61 7.5t45 18.5t31.5 22.5t21.5 20.5v162h-60v-173
q-16 -12 -36.5 -20t-57.5 -8q-36 0 -64.5 17.5t-48 49t-30 75t-10.5 95.5z" />
    <glyph glyph-name="h" unicode="h" horiz-adv-x="362" 
d="M97 289v236h-60v-525h60v267h169v-267h60v525h-60v-236h-169z" />
    <glyph glyph-name="i" unicode="i" horiz-adv-x="128" 
d="M34 0h60v525h-60v-525z" />
    <glyph glyph-name="j" unicode="j" horiz-adv-x="208" 
d="M177 525h-60v-401q0 -33 -2.5 -53.5t-7.5 -31t-13.5 -14t-20.5 -3.5h-52v-22h53q18 0 36.5 4t33 16.5t24 37t9.5 66.5v401z" />
    <glyph glyph-name="k" unicode="k" horiz-adv-x="318" 
d="M97 274v251h-60v-525h60v242l8 12l137 -254h68l-166 308l155 217h-23z" />
    <glyph glyph-name="l" unicode="l" horiz-adv-x="270" 
d="M98 22v503h-60v-525h211v22h-151z" />
    <glyph glyph-name="m" unicode="m" horiz-adv-x="501" 
d="M36 525v-525h22v455l175 -465l172 458v-448h60v525h-53l-159 -420l-157 420h-60z" />
    <glyph glyph-name="n" unicode="n" horiz-adv-x="399" 
d="M36 525v-525h22v427l305 -446v544h-22v-404l-276 404h-29z" />
    <glyph glyph-name="o" unicode="o" 
d="M446 260q0 46 -13 94.5t-40 87.5t-67 64t-94 25t-94 -25t-67 -64t-40 -87.5t-13 -94.5t13 -93.5t40 -85.5t67 -62.5t94 -24.5t94 24.5t67 62.5t40 85.5t13 93.5zM83 260q0 59 11.5 104t31.5 75.5t47 46t59 15.5t59 -15.5t47 -46t31.5 -75.5t11.5 -104q0 -61 -11.5 -105.5
t-31.5 -73.5t-47 -43t-59 -14t-59 14t-47 43t-31.5 73.5t-11.5 105.5z" />
    <glyph glyph-name="p" unicode="p" horiz-adv-x="306" 
d="M289 393q0 30 -10 54.5t-26 41.5t-37 26.5t-42 9.5h-138v-525h60v262h78q21 0 42 9t37 26.5t26 41.5t10 54zM234 393q0 -54 -18 -81.5t-59 -27.5h-61v219h61q41 0 59 -30.5t18 -79.5z" />
    <glyph glyph-name="q" unicode="q" 
d="M232 501q32 0 59 -15.5t47 -46t31.5 -75.5t11.5 -104q0 -55 -9 -96t-25.5 -69.5t-38.5 -45t-47 -22.5v52h-60v-52q-54 15 -86 71t-32 162q0 59 11.5 104t31.5 75.5t47 46t59 15.5zM261 -68v64q46 7 80.5 32.5t57.5 62t35 80.5t12 89q0 46 -13 94.5t-40 87.5t-67 64
t-94 25t-94 -25t-67 -64t-40 -87.5t-13 -94.5q0 -43 11.5 -87t34 -80.5t57 -63t80.5 -33.5v-64h60z" />
    <glyph glyph-name="r" unicode="r" horiz-adv-x="330" 
d="M96 0v503h70q43 0 65.5 -31t22.5 -82q0 -48 -23 -79.5t-65 -31.5h-58l129 -279h69l-127 261q24 5 47.5 13.5t42 23.5t29.5 37t11 55q0 63 -38 99t-103 36h-132v-525h60z" />
    <glyph glyph-name="s" unicode="s" horiz-adv-x="282" 
d="M233 441l19 11q-13 31 -37.5 53.5t-69.5 22.5q-24 0 -46 -9t-38 -25t-25.5 -38.5t-9.5 -49.5q0 -56 33.5 -96t85.5 -73q36 -23 52.5 -50t16.5 -57q0 -51 -17 -77.5t-64 -26.5q-32 0 -56 23.5t-34 64.5l-21 -8q9 -46 40 -78t83 -32q58 0 91 36t33 102q0 30 -5.5 55.5
t-20 48.5t-38.5 44.5t-60 43.5q-34 20 -49 42t-15 57q0 31 18 52t50 21q30 0 52 -14t32 -43z" />
    <glyph glyph-name="t" unicode="t" horiz-adv-x="243" 
d="M227 525h-210v-22h75v-503h60v503h75v22z" />
    <glyph glyph-name="u" unicode="u" horiz-adv-x="315" 
d="M97 130v395h-61v-395q0 -36 10 -62t27 -42t40.5 -23.5t49.5 -7.5q55 0 86 30t31 109v391h-22v-395q0 -31 -5.5 -51t-16 -32t-25 -17t-32.5 -5t-33 5t-26 17t-17 32t-6 51z" />
    <glyph glyph-name="v" unicode="v" horiz-adv-x="298" 
d="M77 525h-61l135 -534l135 534h-23l-93 -369z" />
    <glyph glyph-name="w" unicode="w" horiz-adv-x="471" 
d="M244 525h-60l45 -179l-57 -194l-94 373h-62l135 -534l90 310l78 -310l144 534h-25l-100 -369zM16 525l135 -534z" />
    <glyph glyph-name="x" unicode="x" horiz-adv-x="387" 
d="M76 525h-60l158 -272l-157 -253h25l144 232l134 -232h60l-162 279l153 246h-25l-140 -225z" />
    <glyph glyph-name="y" unicode="y" horiz-adv-x="324" 
d="M75 525h-64l119 -259v-266h61v266l123 259h-24l-109 -230z" />
    <glyph glyph-name="z" unicode="z" horiz-adv-x="363" 
d="M338 525h-303v-22h227l-241 -503h317v22h-239z" />
    <glyph glyph-name="braceleft" unicode="{" horiz-adv-x="240" 
d="M131 426v187q0 17 2 33t9.5 28t21.5 19t37 7v33q-35 0 -58.5 -8t-37.5 -23t-19.5 -37.5t-5.5 -51.5v-187q0 -30 -13 -48.5t-31 -39.5q16 -17 30 -38t14 -50v-202q0 -28 4 -49.5t16.5 -36t36.5 -22t64 -7.5v32q-24 0 -38 6t-21 16.5t-9 26t-2 34.5v202q0 29 -13.5 51
t-26.5 37q8 9 15 17t12.5 18t9 23t3.5 30z" />
    <glyph glyph-name="bar" unicode="|" horiz-adv-x="125" 
d="M84 700h-35v-765h35v765z" />
    <glyph glyph-name="braceright" unicode="}" horiz-adv-x="240" 
d="M49 700q23 0 37 -7t21.5 -19t9.5 -28t2 -33v-187q0 -17 3.5 -30t9 -23t12.5 -18t15 -17q-13 -15 -26.5 -37t-13.5 -51v-202q0 -19 -2 -34.5t-9 -26t-21 -16.5t-38 -6v-32q40 0 64 7.5t36.5 22t16.5 36t4 49.5v202q0 29 14 50t30 38q-18 21 -31 39.5t-13 48.5v187
q0 58 -25.5 89t-95.5 31v-33z" />
    <glyph glyph-name="asciitilde" unicode="~" horiz-adv-x="484" 
d="M39 396l12 -9q15 20 35 35.5t49 22.5q27 -38 63.5 -54.5t81.5 -16.5q41 0 70 6.5t49.5 17t32.5 23.5t18 26l-14 7q-14 -20 -31 -32.5t-44 -20.5q-30 38 -71.5 56.5t-83.5 18.5q-66 0 -108 -25t-59 -55z" />
    <glyph glyph-name="exclamdown" unicode="&#xa1;" horiz-adv-x="370" 
d="M131 -125h175v462h-175v-462zM91 337h-25v-462h25v462zM131 384h175v163h-175v-163zM91 547h-25v-163h25v163z" />
    <glyph glyph-name="cent" unicode="&#xa2;" horiz-adv-x="415" 
d="M46 352q0 -35 8.5 -61.5t23 -47t33.5 -35t40 -23.5v304q10 5 29 10.5t40 5.5q43 0 76.5 -19.5t51.5 -45.5l14 8q-19 30 -53.5 49.5t-69.5 22.5v59h-23v-58q-33 -1 -64 -14t-54.5 -35.5t-37.5 -53t-14 -66.5zM189 360h-18v-182q18 -5 45 -7v-57h23v58q44 5 76 26.5
t52 52.5l-13 10q-19 -31 -53.5 -52.5t-80.5 -21.5q-9 0 -16 0.5t-15 2.5v170z" />
    <glyph glyph-name="sterling" unicode="&#xa3;" horiz-adv-x="580" 
d="M215 0v603q26 17 63.5 28.5t89.5 11.5q50 0 89.5 -9.5t77.5 -23.5l9 24q-39 14 -78.5 24t-97.5 10q-84 0 -145.5 -30t-102 -80.5t-60.5 -117t-20 -139.5v-301h175zM490 389h-235v-389h235v25h-210v339h210v25z" />
    <glyph glyph-name="yen" unicode="&#xa5;" horiz-adv-x="548" 
d="M40 230h130v-230h172v230h130v24h-130v42h130v25h-130l177 351h-165l-184 -351h-130v-25h130v-41h-130v-25zM170 401l141 271h-30l-111 -213l-105 213h-30z" />
    <glyph glyph-name="brokenbar" unicode="&#xa6;" horiz-adv-x="133" 
d="M89 327h-35v-327h35v327zM54 436h35v319h-35v-319z" />
    <glyph glyph-name="section" unicode="&#xa7;" horiz-adv-x="494" 
d="M247 -111q81 0 122 36.5t41 101.5q0 36 -24.5 73.5t-62.5 65.5q34 0 60.5 12.5t45 32.5t28 46t9.5 53q0 41 -23 78.5t-55 70t-67.5 60.5t-60.5 50q-33 30 -47.5 53t-14.5 46q0 27 13 39.5t33 12.5q35 0 64.5 -13t48.5 -37l20 15q-20 26 -54 43t-85 17q-76 0 -116 -36
t-40 -96q0 -23 7.5 -43t19.5 -37.5t28 -33t33 -29.5q-31 0 -57 -11.5t-45.5 -31.5t-30.5 -46.5t-11 -56.5q0 -44 23 -81.5t55 -69.5t67.5 -59t60.5 -49q33 -30 47.5 -53.5t14.5 -48.5t-13.5 -37t-37.5 -12q-38 0 -66 15t-45 38l-24 -15q20 -29 53.5 -46t85.5 -17zM231 419
l47.5 -38t39.5 -38.5t27 -45t10 -56.5q0 -26 -16.5 -39.5t-43.5 -13.5l-34 27q-17 13 -38 28t-40.5 35t-32.5 46.5t-13 62.5q0 32 19.5 45.5t40.5 13.5z" />
    <glyph glyph-name="dieresis" unicode="&#xa8;" 
d="M137 782h-84v-72h84v72zM189 710v72h-20v-72h20zM365 782h-84v-72h84v72zM417 710v72h-20v-72h20z" />
    <glyph glyph-name="copyright" unicode="&#xa9;" horiz-adv-x="576" 
d="M191 348q0 18 7 36.5t20.5 32.5t32 23t41.5 9q38 0 59.5 -13.5t35.5 -28.5v24q-14 14 -35 26t-60 12q-28 0 -50.5 -10.5t-38 -27.5t-24 -39t-8.5 -44q0 -23 8.5 -44.5t24 -38t38 -27t50.5 -10.5q38 0 60 12t35 25v31q-17 -20 -38 -34t-57 -14q-23 0 -41.5 8.5t-31.5 22.5
t-20.5 32t-7.5 37zM547 353q0 52 -20 98.5t-55 81.5t-81.5 55t-98.5 20q-53 0 -99 -20t-81 -55t-55 -81.5t-20 -98.5q0 -53 20 -99t55 -81t81 -55t99 -20q52 0 98.5 20t81.5 55t55 81t20 99zM292 118q-48 0 -91 18.5t-75 50.5t-50.5 75t-18.5 91t18.5 91t50.5 75t75 50.5
t91 18.5t91 -18.5t75 -50.5t50.5 -75t18.5 -91t-18.5 -91t-50.5 -75t-75 -50.5t-91 -18.5z" />
    <glyph glyph-name="ordfeminine" unicode="&#xaa;" horiz-adv-x="340" 
d="M311 175h-282v-26h282v26zM169 642l-138 -388h15l41 111h138l41 -111h42zM155 558l63 -177h-126z" />
    <glyph glyph-name="guillemotleft" unicode="&#xab;" horiz-adv-x="505" 
d="M215 507l-152 -188v-25l152 188v25zM215 32v191l-96 95l-56 -66v-69zM425 507l-152 -188v-25l152 188v25zM425 32v191l-96 95l-56 -66v-69z" />
    <glyph glyph-name="logicalnot" unicode="&#xac;" horiz-adv-x="605" 
d="M385 672v-672h175v672h-175zM17 0h30l162 364h111v-364h25v389h-124l127 283h-28z" />
    <glyph glyph-name="registered" unicode="&#xae;" horiz-adv-x="407" 
d="M40 585q0 -30 10.5 -60t31.5 -53t53 -37.5t75 -14.5q42 0 74 14.5t53.5 37.5t32 53t10.5 60q0 31 -10.5 61t-31.5 53.5t-53 38t-75 14.5t-75 -14.5t-53 -38t-31.5 -53.5t-10.5 -61zM53 585q0 29 10 56.5t29.5 49.5t49 35t68.5 13t68.5 -13t49 -35t29.5 -49.5t10 -56.5
q0 -28 -9.5 -55.5t-29 -49t-49 -34.5t-69.5 -13q-39 0 -68.5 13t-49 34.5t-29.5 49t-10 55.5zM279 632q0 26 -14.5 40.5t-32.5 14.5h-84v-199h14v92h14l86 -92h18l-86 92h38q17 0 32 13.5t15 38.5zM264 632q0 -16 -9.5 -27t-22.5 -11h-70v78h69q16 0 24.5 -11.5t8.5 -28.5z
" />
    <glyph glyph-name="macron" unicode="&#xaf;" horiz-adv-x="345" 
d="M305 595h-250v-26h250v26z" />
    <glyph glyph-name="degree" unicode="&#xb0;" horiz-adv-x="208" 
d="M185 603q0 34 -23.5 57.5t-57.5 23.5t-57.5 -23.5t-23.5 -57.5t23.5 -57.5t57.5 -23.5t57.5 23.5t23.5 57.5zM42 603q0 26 18 44t44 18t44 -18t18 -44t-18 -44t-44 -18t-44 18t-18 44z" />
    <glyph glyph-name="twosuperior" unicode="&#xb2;" horiz-adv-x="297" 
d="M247 416v10h-80l57 126l-10 4l-65 -140h98zM67 639q11 15 31.5 25.5t46.5 10.5t38 -5l-122 -254h72l107 236q-14 12 -36 23t-59 11q-29 0 -53 -12.5t-33 -27.5z" />
    <glyph glyph-name="threesuperior" unicode="&#xb3;" horiz-adv-x="366" 
d="M208 677h-99v-10h81l-71 -113h12zM297 677h-70l-74 -123h42q46 0 69 -24t23 -52q0 -36 -28.5 -56t-79.5 -20q-73 0 -95 77l-9 -2q9 -40 35.5 -62.5t68.5 -22.5q56 0 87 21.5t31 64.5q0 35 -21 55.5t-50 26.5z" />
    <glyph glyph-name="acute" unicode="&#xb4;" horiz-adv-x="260" 
d="M210 675l-35 40l-121 -121l14 -15z" />
    <glyph glyph-name="paragraph" unicode="&#xb6;" horiz-adv-x="616" 
d="M318 364v-414h25v722h-127q-75 0 -120.5 -39.5t-45.5 -114.5q0 -78 45.5 -116t120.5 -38h102zM558 672h-175v-722h175v722z" />
    <glyph glyph-name="periodcentered" unicode="&#xb7;" horiz-adv-x="275" 
d="M221 320q0 35 -25 60t-60 25t-60 -25t-25 -60t25 -60t60 -25t60 25t25 60z" />
    <glyph glyph-name="periodcentered" unicode="&#x2219;" horiz-adv-x="275" 
d="M221 320q0 35 -25 60t-60 25t-60 -25t-25 -60t25 -60t60 -25t60 25t25 60z" />
    <glyph glyph-name="cedilla" unicode="&#xb8;" horiz-adv-x="229" 
d="M126 0h-21l-8 -43q18 -8 32 -19t14 -28q0 -20 -9.5 -27.5t-25.5 -7.5q-20 0 -48 10l-7 -24q32 -16 62 -16t49 16t19 43q0 26 -19.5 42t-42.5 24z" />
    <glyph glyph-name="onesuperior" unicode="&#xb9;" horiz-adv-x="366" 
d="M155 706v-269h70v269h-70zM101 650l31 37v-37h10v56h-9l-44 -56h12z" />
    <glyph glyph-name="ordmasculine" unicode="&#xba;" horiz-adv-x="363" 
d="M326 175h-284v-26h284v26zM328 440q0 32 -9 65.5t-28 61t-47 45t-65 17.5q-38 0 -66 -17.5t-46.5 -45t-27.5 -61t-9 -65.5t9 -65t27.5 -59.5t46.5 -43.5t66 -17q37 0 65 17t47 43.5t28 59.5t9 65zM75 440q0 82 29.5 125t74.5 43t74 -43t29 -125q0 -85 -29 -124.5
t-74 -39.5t-74.5 39.5t-29.5 124.5z" />
    <glyph glyph-name="guillemotright" unicode="&#xbb;" horiz-adv-x="505" 
d="M58 38l152 188v25l-152 -188v-25zM58 513v-191l96 -95l56 66v69zM263 38l152 188v25l-152 -188v-25zM263 513v-191l96 -95l56 66v69z" />
    <glyph glyph-name="onequarter" unicode="&#xbc;" horiz-adv-x="366" 
d="M155 706v-269h70v269h-70zM101 650l31 37v-37h10v56h-9l-44 -56h12zM320 375h-275v-41h275v41zM251 145h60v10h-60v113h-70v-268h70v145zM165 0v155h-80l62 113h-11l-69 -123h88v-145h10z" />
    <glyph glyph-name="onehalf" unicode="&#xbd;" horiz-adv-x="366" 
d="M155 706v-269h70v269h-70zM101 650l31 37v-37h10v56h-9l-44 -56h12zM271 0v10h-80l57 126l-10 4l-65 -140h98zM91 223q11 15 31.5 25.5t46.5 10.5t38 -5l-122 -254h72l107 236q-14 12 -36 23t-59 11q-29 0 -53 -12.5t-33 -27.5zM320 375h-275v-41h275v41z" />
    <glyph glyph-name="threequarters" unicode="&#xbe;" horiz-adv-x="366" 
d="M320 352h-275v-41h275v41zM251 145h60v10h-60v113h-70v-268h70v145zM165 0v155h-80l62 113h-11l-69 -123h88v-145h10zM208 677h-99v-10h81l-71 -113h12zM297 677h-70l-74 -123h42q46 0 69 -24t23 -52q0 -36 -28.5 -56t-79.5 -20q-73 0 -95 77l-9 -2q9 -40 35.5 -62.5
t68.5 -22.5q56 0 87 21.5t31 64.5q0 35 -21 55.5t-50 26.5z" />
    <glyph glyph-name="questiondown" unicode="&#xbf;" horiz-adv-x="625" 
d="M322 -168q67 0 120 18t90 48t56.5 70t19.5 85h-22q0 -39 -17.5 -75t-51 -64t-83 -44.5t-112.5 -16.5q-42 0 -68 6t-43 15v499q-46 -7 -81 -30.5t-59 -58t-36.5 -77t-12.5 -87.5q0 -53 18 -104.5t54.5 -92.5t93 -66t134.5 -25zM318 85h175v275h-175v-275zM278 360h-25
v-275h25v275zM318 400h175v170h-175v-170zM278 570h-25v-170h25v170z" />
    <glyph glyph-name="Agrave" unicode="&#xc0;" horiz-adv-x="650" 
d="M325 726l11 13l-100 90l-25 -28zM275 672l190 -672h175l-190 672h-175zM16 0h31l107 364h132l104 -364h31l-111 389h-149l74 283h-29z" />
    <glyph glyph-name="Aacute" unicode="&#xc1;" horiz-adv-x="645" 
d="M411 790l-28 32l-97 -97l11 -12zM275 672l190 -672h175l-190 672h-175zM16 0h31l107 364h132l104 -364h31l-111 389h-149l74 283h-29z" />
    <glyph glyph-name="Acircumflex" unicode="&#xc2;" horiz-adv-x="645" 
d="M275 672l190 -672h175l-190 672h-175zM16 0h31l107 364h132l104 -364h31l-111 389h-149l74 283h-29zM459 714l-98 97h-17l97 -97h18zM173 714h122l61 61l-35 36h-52z" />
    <glyph glyph-name="Atilde" unicode="&#xc3;" horiz-adv-x="650" 
d="M175 733l9 -6q11 14 26 25t35 16q20 -27 46 -39t58 -12q58 0 85.5 17t36.5 36l-9 5q-11 -14 -22.5 -23.5t-31.5 -14.5q-22 28 -51.5 41t-60.5 13q-48 0 -77.5 -18t-43.5 -40zM275 672l190 -672h175l-190 672h-175zM16 0h31l107 364h132l104 -364h31l-111 389h-149l74 283
h-29z" />
    <glyph glyph-name="Adieresis" unicode="&#xc4;" horiz-adv-x="650" 
d="M225 802h-84v-72h84v72zM277 730v72h-20v-72h20zM453 802h-84v-72h84v72zM505 730v72h-20v-72h20zM275 672l190 -672h175l-190 672h-175zM16 0h31l107 364h132l104 -364h31l-111 389h-149l74 283h-29z" />
    <glyph glyph-name="Aring" unicode="&#xc5;" horiz-adv-x="650" 
d="M404 766q0 34 -23.5 57.5t-57.5 23.5t-57.5 -23.5t-23.5 -57.5t23.5 -57.5t57.5 -23.5t57.5 23.5t23.5 57.5zM261 766q0 26 18 44t44 18t44 -18t18 -44t-18 -44t-44 -18t-44 18t-18 44zM275 672l190 -672h175l-190 672h-175zM16 0h31l107 364h132l104 -364h31l-111 389
h-149l74 283h-29z" />
    <glyph glyph-name="AE" unicode="&#xc6;" horiz-adv-x="878" 
d="M19 0h28l162 365h111v-365h25v390h-125l125 282h-27zM560 0v647h275v25h-450v-672h175zM835 388h-235v-388h235v25h-210v338h210v25z" />
    <glyph glyph-name="Ccedilla" unicode="&#xc7;" horiz-adv-x="715" 
d="M278 1q17 -5 38.5 -10.5t54.5 -6.5v-139q32 0 55.5 16t23.5 59q0 28 -16 43.5t-29 21.5q48 3 89 16t74 33.5t59 46.5t44 53l-22 15q-21 -29 -48 -54t-60.5 -44t-73 -29.5t-84.5 -10.5q-32 0 -49.5 3.5t-30.5 7.5v332h-25v-353zM37 334q0 -54 14.5 -103t41 -89.5
t62.5 -72.5t80 -51v600q22 13 59.5 25t83.5 12q90 0 155.5 -36.5t107.5 -87.5l20 15q-26 30 -54 55t-61.5 43t-74.5 28t-93 10q-71 0 -133 -27.5t-108.5 -75t-73 -111t-26.5 -134.5z" />
    <glyph glyph-name="Egrave" unicode="&#xc8;" horiz-adv-x="525" 
d="M283 726l11 13l-100 90l-25 -28zM215 0v647h275v25h-450v-672h175zM490 389h-235v-389h235v25h-210v339h210v25z" />
    <glyph glyph-name="Eacute" unicode="&#xc9;" horiz-adv-x="525" 
d="M379 790l-28 32l-97 -97l11 -12zM215 0v647h275v25h-450v-672h175zM490 389h-235v-389h235v25h-210v339h210v25z" />
    <glyph glyph-name="Ecircumflex" unicode="&#xca;" horiz-adv-x="545" 
d="M399 714l-98 97h-17l97 -97h18zM113 714h122l61 61l-35 36h-52zM215 0v647h275v25h-450v-672h175zM490 389h-235v-389h235v25h-210v339h210v25z" />
    <glyph glyph-name="Edieresis" unicode="&#xcb;" horiz-adv-x="525" 
d="M170 802h-84v-72h84v72zM222 730v72h-20v-72h20zM398 802h-84v-72h84v72zM450 730v72h-20v-72h20zM215 0v647h275v25h-450v-672h175zM490 389h-235v-389h235v25h-210v339h210v25z" />
    <glyph glyph-name="Igrave" unicode="&#xcc;" horiz-adv-x="320" 
d="M157 726l11 13l-100 90l-25 -28zM215 672h-175v-672h175v672zM255 0h25v672h-25v-672z" />
    <glyph glyph-name="Iacute" unicode="&#xcd;" horiz-adv-x="320" 
d="M267 790l-28 32l-97 -97l11 -12zM215 672h-175v-672h175v672zM255 0h25v672h-25v-672z" />
    <glyph glyph-name="Icircumflex" unicode="&#xce;" horiz-adv-x="320" 
d="M215 672h-175v-672h175v672zM255 0h25v672h-25v-672zM304 714l-98 97h-17l97 -97h18zM18 714h122l61 61l-35 36h-52z" />
    <glyph glyph-name="Idieresis" unicode="&#xcf;" horiz-adv-x="320" 
d="M63 802h-84v-72h84v72zM115 730v72h-20v-72h20zM291 802h-84v-72h84v72zM343 730v72h-20v-72h20zM215 672h-175v-672h175v672zM255 0h25v672h-25v-672z" />
    <glyph glyph-name="Eth" unicode="&#xd0;" horiz-adv-x="640" 
d="M38 370h-51v-25h51v-345h175v345h124v25h-124v277h40q73 0 135 -19t107.5 -57t71 -95t25.5 -132q0 -65 -16.5 -113.5t-43.5 -84t-60 -59t-66 -37.5t-62.5 -19.5t-49.5 -5.5h-16v221h-25v-246h31q20 0 53 5.5t70 19.5t74.5 38.5t67.5 62.5t49 92t19 126q0 81 -28 142.5
t-76.5 103t-112.5 62t-136 20.5h-226v-302z" />
    <glyph glyph-name="Ntilde" unicode="&#xd1;" horiz-adv-x="640" 
d="M183 733l9 -6q11 14 26 25t35 16q20 -27 46 -39t58 -12q58 0 85.5 17t36.5 36l-9 5q-11 -14 -22.5 -23.5t-31.5 -14.5q-22 28 -51.5 41t-60.5 13q-48 0 -77.5 -18t-43.5 -40zM598 0l-378 672h-174v-672h25v609l346 -609h181zM598 85v587h-25v-494l-120 218h-29z" />
    <glyph glyph-name="Ograve" unicode="&#xd2;" horiz-adv-x="775" 
d="M393 726l11 13l-100 90l-25 -28zM326 17v345h-32v-365q18 -5 44 -9t56 -4q69 0 131 26.5t109.5 73t75.5 111t28 139.5q0 73 -27.5 136.5t-75 110.5t-110.5 74t-134 27q-74 0 -138 -28t-111.5 -75.5t-74.5 -110.5t-27 -134q0 -54 15.5 -104t43.5 -92t67.5 -74.5
t87.5 -51.5v611q21 12 56 22.5t81 10.5q66 0 124 -26t102 -70.5t69.5 -103t25.5 -122.5q0 -69 -26.5 -128t-71 -102.5t-102 -68t-118.5 -24.5q-38 0 -68 6z" />
    <glyph glyph-name="Oacute" unicode="&#xd3;" horiz-adv-x="775" 
d="M497 790l-28 32l-97 -97l11 -12zM326 17v345h-32v-365q18 -5 44 -9t56 -4q69 0 131 26.5t109.5 73t75.5 111t28 139.5q0 73 -27.5 136.5t-75 110.5t-110.5 74t-134 27q-74 0 -138 -28t-111.5 -75.5t-74.5 -110.5t-27 -134q0 -54 15.5 -104t43.5 -92t67.5 -74.5
t87.5 -51.5v611q21 12 56 22.5t81 10.5q66 0 124 -26t102 -70.5t69.5 -103t25.5 -122.5q0 -69 -26.5 -128t-71 -102.5t-102 -68t-118.5 -24.5q-38 0 -68 6z" />
    <glyph glyph-name="Ocircumflex" unicode="&#xd4;" horiz-adv-x="775" 
d="M326 17v345h-32v-365q18 -5 44 -9t56 -4q69 0 131 26.5t109.5 73t75.5 111t28 139.5q0 73 -27.5 136.5t-75 110.5t-110.5 74t-134 27q-74 0 -138 -28t-111.5 -75.5t-74.5 -110.5t-27 -134q0 -54 15.5 -104t43.5 -92t67.5 -74.5t87.5 -51.5v611q21 12 56 22.5t81 10.5
q66 0 124 -26t102 -70.5t69.5 -103t25.5 -122.5q0 -69 -26.5 -128t-71 -102.5t-102 -68t-118.5 -24.5q-38 0 -68 6zM525 714l-98 97h-17l97 -97h18zM239 714h122l61 61l-35 36h-52z" />
    <glyph glyph-name="Otilde" unicode="&#xd5;" horiz-adv-x="775" 
d="M249 733l9 -6q11 14 26 25t35 16q20 -27 46 -39t58 -12q58 0 85.5 17t36.5 36l-9 5q-11 -14 -22.5 -23.5t-31.5 -14.5q-22 28 -51.5 41t-60.5 13q-48 0 -77.5 -18t-43.5 -40zM326 17v345h-32v-365q18 -5 44 -9t56 -4q69 0 131 26.5t109.5 73t75.5 111t28 139.5
q0 73 -27.5 136.5t-75 110.5t-110.5 74t-134 27q-74 0 -138 -28t-111.5 -75.5t-74.5 -110.5t-27 -134q0 -54 15.5 -104t43.5 -92t67.5 -74.5t87.5 -51.5v611q21 12 56 22.5t81 10.5q66 0 124 -26t102 -70.5t69.5 -103t25.5 -122.5q0 -69 -26.5 -128t-71 -102.5t-102 -68
t-118.5 -24.5q-38 0 -68 6z" />
    <glyph glyph-name="Odieresis" unicode="&#xd6;" horiz-adv-x="775" 
d="M295 802h-84v-72h84v72zM347 730v72h-20v-72h20zM523 802h-84v-72h84v72zM575 730v72h-20v-72h20zM326 17v345h-32v-365q18 -5 44 -9t56 -4q69 0 131 26.5t109.5 73t75.5 111t28 139.5q0 73 -27.5 136.5t-75 110.5t-110.5 74t-134 27q-74 0 -138 -28t-111.5 -75.5
t-74.5 -110.5t-27 -134q0 -54 15.5 -104t43.5 -92t67.5 -74.5t87.5 -51.5v611q21 12 56 22.5t81 10.5q66 0 124 -26t102 -70.5t69.5 -103t25.5 -122.5q0 -69 -26.5 -128t-71 -102.5t-102 -68t-118.5 -24.5q-38 0 -68 6z" />
    <glyph glyph-name="multiply" unicode="&#xd7;" horiz-adv-x="361" 
d="M67 413l-33 -22l123 -183l-125 -185l33 -23l117 173l117 -173l34 21l-126 188l123 183l-34 21l-114 -171z" />
    <glyph glyph-name="Oslash" unicode="&#xd8;" horiz-adv-x="775" 
d="M550 612l-224 -530v280h-32v-356l-29 -68l25 -10l27 63q16 -3 35.5 -5t41.5 -2q69 0 131 26.5t109.5 73t75.5 111t28 139.5q0 92 -42.5 167.5t-111.5 121.5l36 85l-25 9l-34 -80q-38 22 -81.5 33.5t-88.5 11.5q-74 0 -138 -28t-111.5 -75.5t-74.5 -110.5t-27 -134
q0 -54 15.5 -104t43.5 -92t67.5 -74.5t87.5 -51.5v611q21 12 56 22.5t81 10.5q44 0 84 -11.5t75 -32.5zM394 11q-20 0 -35.5 1.5t-30.5 4.5l245 580q63 -45 101 -114.5t38 -148.5q0 -69 -26.5 -128t-71 -102.5t-102 -68t-118.5 -24.5z" />
    <glyph glyph-name="Ugrave" unicode="&#xd9;" horiz-adv-x="644" 
d="M339 726l11 13l-100 90l-25 -28zM290 25v647h-25v-672h73q48 0 94.5 11t84 33t60.5 55.5t23 78.5v494h-25v-486q0 -40 -20.5 -70t-55 -50.5t-80 -30.5t-95.5 -10h-34zM225 672h-175v-493q0 -38 15.5 -68.5t40.5 -53t56.5 -36t62.5 -17.5v668z" />
    <glyph glyph-name="Uacute" unicode="&#xda;" horiz-adv-x="644" 
d="M443 790l-28 32l-97 -97l11 -12zM290 25v647h-25v-672h73q48 0 94.5 11t84 33t60.5 55.5t23 78.5v494h-25v-486q0 -40 -20.5 -70t-55 -50.5t-80 -30.5t-95.5 -10h-34zM225 672h-175v-493q0 -38 15.5 -68.5t40.5 -53t56.5 -36t62.5 -17.5v668z" />
    <glyph glyph-name="Ucircumflex" unicode="&#xdb;" horiz-adv-x="644" 
d="M290 25v647h-25v-672h73q48 0 94.5 11t84 33t60.5 55.5t23 78.5v494h-25v-486q0 -40 -20.5 -70t-55 -50.5t-80 -30.5t-95.5 -10h-34zM225 672h-175v-493q0 -38 15.5 -68.5t40.5 -53t56.5 -36t62.5 -17.5v668zM487 714l-98 97h-17l97 -97h18zM201 714h122l61 61l-35 36
h-52z" />
    <glyph glyph-name="Udieresis" unicode="&#xdc;" horiz-adv-x="644" 
d="M225 802h-84v-72h84v72zM277 730v72h-20v-72h20zM453 802h-84v-72h84v72zM505 730v72h-20v-72h20zM290 25v647h-25v-672h73q48 0 94.5 11t84 33t60.5 55.5t23 78.5v494h-25v-486q0 -40 -20.5 -70t-55 -50.5t-80 -30.5t-95.5 -10h-34zM225 672h-175v-493q0 -38 15.5 -68.5
t40.5 -53t56.5 -36t62.5 -17.5v668z" />
    <glyph glyph-name="Yacute" unicode="&#xdd;" horiz-adv-x="570" 
d="M549 672h-171l-350 -675h173zM194 401l141 271h-30l-111 -213l-105 213h-30zM379 790l-28 32l-97 -97l11 -12z" />
    <glyph glyph-name="Thorn" unicode="&#xde;" horiz-adv-x="616" 
d="M41 672v-672h175v491h172q39 0 72.5 -7.5t58.5 -24t39 -41.5t14 -60q0 -33 -14 -56.5t-39 -39t-58.5 -22.5t-72.5 -7h-132v-233h25v208h107q40 0 77.5 7.5t66.5 25.5t47 46.5t18 70.5q0 44 -18 74.5t-47 49t-66.5 26.5t-77.5 8h-172v156h-175z" />
    <glyph glyph-name="germandbls" unicode="&#xdf;" horiz-adv-x="423" 
d="M66 322v-322h63v416q0 52 25 72t63 20q58 0 87.5 -26.5t29.5 -61.5q0 -21 -11.5 -42t-46.5 -39q-24 -13 -42 -23.5t-29 -20.5t-16.5 -21t-5.5 -25q0 -26 17.5 -39.5t51.5 -27.5q92 -37 92 -89q0 -68 -67 -68h-87v-25h94q20 0 40 4.5t36 15t26 28.5t10 44q0 45 -26 76.5
t-69 49.5q-38 17 -54 26t-16 24t15 26t45 26q38 19 54 45.5t16 55.5q0 20 -9 39.5t-27 34.5t-45 24t-63 9q-30 0 -57 -7.5t-48 -22t-33.5 -36t-12.5 -49.5v-70h-48v-21h48z" />
    <glyph glyph-name="agrave" unicode="&#xe0;" horiz-adv-x="420" 
d="M218 571l13 16l-124 113l-32 -36zM211 547l-195 -547h21l57 156h196l57 -156h60zM190 428l89 -249h-177z" />
    <glyph glyph-name="aacute" unicode="&#xe1;" horiz-adv-x="420" 
d="M334 675l-35 40l-121 -121l14 -15zM211 547l-195 -547h21l57 156h196l57 -156h60zM190 428l89 -249h-177z" />
    <glyph glyph-name="acircumflex" unicode="&#xe2;" horiz-adv-x="420" 
d="M317 600l-86 70h-13l86 -70h13zM96 600h87l44 44l-30 26h-32zM211 547l-195 -547h21l57 156h196l57 -156h60zM190 428l89 -249h-177z" />
    <glyph glyph-name="atilde" unicode="&#xe3;" horiz-adv-x="420" 
d="M59 595l9 -6q11 14 26 25t35 16q20 -27 46 -39t58 -12q58 0 85.5 17t36.5 36l-9 5q-11 -14 -22.5 -23.5t-31.5 -14.5q-22 28 -51.5 41t-60.5 13q-48 0 -77.5 -18t-43.5 -40zM211 547l-195 -547h21l57 156h196l57 -156h60zM190 428l89 -249h-177z" />
    <glyph glyph-name="adieresis" unicode="&#xe4;" horiz-adv-x="420" 
d="M182 619q0 14 -9 23t-23 9t-23 -9t-9 -23t9 -23t23 -9t23 9t9 23zM297 619q0 14 -9 23t-23 9t-23 -9t-9 -23t9 -23t23 -9t23 9t9 23zM211 547l-195 -547h21l57 156h196l57 -156h60zM190 428l89 -249h-177z" />
    <glyph glyph-name="aring" unicode="&#xe5;" horiz-adv-x="420" 
d="M291 648q0 34 -23.5 57.5t-57.5 23.5t-57.5 -23.5t-23.5 -57.5t23.5 -57.5t57.5 -23.5t57.5 23.5t23.5 57.5zM148 648q0 26 18 44t44 18t44 -18t18 -44t-18 -44t-44 -18t-44 18t-18 44zM211 547l-195 -547h21l57 156h196l57 -156h60zM190 428l89 -249h-177z" />
    <glyph glyph-name="ae" unicode="&#xe6;" horiz-adv-x="492" 
d="M453 525h-202l-239 -525h29l69 156l140 -1v-155h203v22h-141l1 239h140v23h-141v218h141v23zM250 179h-128l128 275v-275z" />
    <glyph glyph-name="ccedilla" unicode="&#xe7;" horiz-adv-x="399" 
d="M18 262q0 -54 15 -102t42 -84t63.5 -58t80.5 -24l-7 -37q18 -8 32 -19t14 -28q0 -20 -9.5 -27.5t-25.5 -7.5q-20 0 -48 10l-7 -24q32 -16 62 -16t49 16t19 43q0 26 -19.5 42t-42.5 24l4 24q30 1 52.5 7t39.5 15.5t31 21.5t26 25l-15 15q-25 -24 -57.5 -39t-82.5 -15
q-35 0 -63 17.5t-47.5 49t-30 75t-10.5 96.5q0 52 10.5 96t30 76t47.5 49.5t63 17.5q50 0 83 -17.5t57 -44.5l14 13q-12 16 -26 30.5t-32.5 25t-43 17t-57.5 6.5q-45 0 -84 -21t-67 -58t-44 -86t-16 -104z" />
    <glyph glyph-name="egrave" unicode="&#xe8;" horiz-adv-x="264" 
d="M150 571l13 16l-124 113l-32 -36zM238 503v22h-202v-525h202v22h-142v240h142v22h-142v219h142z" />
    <glyph glyph-name="eacute" unicode="&#xe9;" horiz-adv-x="264" 
d="M264 675l-35 40l-121 -121l14 -15zM238 503v22h-202v-525h202v22h-142v240h142v22h-142v219h142z" />
    <glyph glyph-name="ecircumflex" unicode="&#xea;" horiz-adv-x="264" 
d="M247 600l-86 70h-13l86 -70h13zM26 600h87l44 44l-30 26h-32zM238 503v22h-202v-525h202v22h-142v240h142v22h-142v219h142z" />
    <glyph glyph-name="edieresis" unicode="&#xeb;" horiz-adv-x="264" 
d="M109 619q0 14 -9 23t-23 9t-23 -9t-9 -23t9 -23t23 -9t23 9t9 23zM224 619q0 14 -9 23t-23 9t-23 -9t-9 -23t9 -23t23 -9t23 9t9 23zM238 503v22h-202v-525h202v22h-142v240h142v22h-142v219h142z" />
    <glyph glyph-name="igrave" unicode="&#xec;" horiz-adv-x="128" 
d="M93 0v525h-57v-525h57zM68 571l13 16l-124 113l-32 -36z" />
    <glyph glyph-name="iacute" unicode="&#xed;" horiz-adv-x="128" 
d="M93 0v525h-57v-525h57zM210 675l-35 40l-121 -121l14 -15z" />
    <glyph glyph-name="icircumflex" unicode="&#xee;" horiz-adv-x="128" 
d="M93 0v525h-57v-525h57zM183 600l-86 70h-13l86 -70h13zM-38 600h87l44 44l-30 26h-32z" />
    <glyph glyph-name="idieresis" unicode="&#xef;" horiz-adv-x="129" 
d="M36 0h57v525h-57v-525zM40 619q0 14 -9 23t-23 9t-23 -9t-9 -23t9 -23t23 -9t23 9t9 23zM155 619q0 14 -9 23t-23 9t-23 -9t-9 -23t9 -23t23 -9t23 9t9 23z" />
    <glyph glyph-name="eth" unicode="&#xf0;" 
d="M83 260q0 59 11.5 104t31.5 75.5t47 46t59 15.5t59 -15.5t47 -46t31.5 -75.5t11.5 -104q0 -61 -11.5 -105.5t-31.5 -73.5t-47 -43t-59 -14t-59 14t-47 43t-31.5 73.5t-11.5 105.5zM338 498q-22 16 -48 24.5t-58 8.5q-54 0 -94 -25t-67 -64t-40 -87.5t-13 -94.5t13 -93.5
t40 -85.5t67 -62.5t94 -24.5t94 24.5t67 62.5t40 85.5t13 93.5q0 134 -40.5 236.5t-108.5 175.5l73 57l-32 26l-70 -55q-20 17 -41.5 30t-42.5 21l-29 -35q39 -16 77 -44l-70 -55l32 -26l69 54q20 -24 41 -62t34 -85z" />
    <glyph glyph-name="ntilde" unicode="&#xf1;" horiz-adv-x="399" 
d="M50 595l9 -6q11 14 26 25t35 16q20 -27 46 -39t58 -12q58 0 85.5 17t36.5 36l-9 5q-11 -14 -22.5 -23.5t-31.5 -14.5q-22 28 -51.5 41t-60.5 13q-48 0 -77.5 -18t-43.5 -40zM36 525v-525h22v427l305 -446v544h-22v-404l-276 404h-29z" />
    <glyph glyph-name="ograve" unicode="&#xf2;" 
d="M230 571l13 16l-124 113l-32 -36zM446 260q0 46 -13 94.5t-40 87.5t-67 64t-94 25t-94 -25t-67 -64t-40 -87.5t-13 -94.5t13 -93.5t40 -85.5t67 -62.5t94 -24.5t94 24.5t67 62.5t40 85.5t13 93.5zM83 260q0 59 11.5 104t31.5 75.5t47 46t59 15.5t59 -15.5t47 -46
t31.5 -75.5t11.5 -104q0 -61 -11.5 -105.5t-31.5 -73.5t-47 -43t-59 -14t-59 14t-47 43t-31.5 73.5t-11.5 105.5z" />
    <glyph glyph-name="oacute" unicode="&#xf3;" 
d="M352 675l-35 40l-121 -121l14 -15zM446 260q0 46 -13 94.5t-40 87.5t-67 64t-94 25t-94 -25t-67 -64t-40 -87.5t-13 -94.5t13 -93.5t40 -85.5t67 -62.5t94 -24.5t94 24.5t67 62.5t40 85.5t13 93.5zM83 260q0 59 11.5 104t31.5 75.5t47 46t59 15.5t59 -15.5t47 -46
t31.5 -75.5t11.5 -104q0 -61 -11.5 -105.5t-31.5 -73.5t-47 -43t-59 -14t-59 14t-47 43t-31.5 73.5t-11.5 105.5z" />
    <glyph glyph-name="ocircumflex" unicode="&#xf4;" 
d="M333 600l-86 70h-13l86 -70h13zM112 600h87l44 44l-30 26h-32zM446 260q0 46 -13 94.5t-40 87.5t-67 64t-94 25t-94 -25t-67 -64t-40 -87.5t-13 -94.5t13 -93.5t40 -85.5t67 -62.5t94 -24.5t94 24.5t67 62.5t40 85.5t13 93.5zM83 260q0 59 11.5 104t31.5 75.5t47 46
t59 15.5t59 -15.5t47 -46t31.5 -75.5t11.5 -104q0 -61 -11.5 -105.5t-31.5 -73.5t-47 -43t-59 -14t-59 14t-47 43t-31.5 73.5t-11.5 105.5z" />
    <glyph glyph-name="otilde" unicode="&#xf5;" 
d="M79 595l9 -6q11 14 26 25t35 16q20 -27 46 -39t58 -12q58 0 85.5 17t36.5 36l-9 5q-11 -14 -22.5 -23.5t-31.5 -14.5q-22 28 -51.5 41t-60.5 13q-48 0 -77.5 -18t-43.5 -40zM446 260q0 46 -13 94.5t-40 87.5t-67 64t-94 25t-94 -25t-67 -64t-40 -87.5t-13 -94.5t13 -93.5
t40 -85.5t67 -62.5t94 -24.5t94 24.5t67 62.5t40 85.5t13 93.5zM83 260q0 59 11.5 104t31.5 75.5t47 46t59 15.5t59 -15.5t47 -46t31.5 -75.5t11.5 -104q0 -61 -11.5 -105.5t-31.5 -73.5t-47 -43t-59 -14t-59 14t-47 43t-31.5 73.5t-11.5 105.5z" />
    <glyph glyph-name="odieresis" unicode="&#xf6;" 
d="M208 619q0 14 -9 23t-23 9t-23 -9t-9 -23t9 -23t23 -9t23 9t9 23zM323 619q0 14 -9 23t-23 9t-23 -9t-9 -23t9 -23t23 -9t23 9t9 23zM446 260q0 46 -13 94.5t-40 87.5t-67 64t-94 25t-94 -25t-67 -64t-40 -87.5t-13 -94.5t13 -93.5t40 -85.5t67 -62.5t94 -24.5t94 24.5
t67 62.5t40 85.5t13 93.5zM83 260q0 59 11.5 104t31.5 75.5t47 46t59 15.5t59 -15.5t47 -46t31.5 -75.5t11.5 -104q0 -61 -11.5 -105.5t-31.5 -73.5t-47 -43t-59 -14t-59 14t-47 43t-31.5 73.5t-11.5 105.5z" />
    <glyph glyph-name="oslash" unicode="&#xf8;" 
d="M446 260q0 34 -7 69t-20.5 66t-32.5 57t-43 43l34 71l-26 11l-31 -67q-25 11 -45.5 16t-42.5 5q-54 0 -94 -25t-67 -64t-40 -87.5t-13 -94.5q0 -29 5 -59t15.5 -58.5t26.5 -53.5t37 -44l-37 -80l25 -12l35 74q22 -16 48.5 -24.5t58.5 -8.5q54 0 94 24.5t67 62.5t40 85.5
t13 93.5zM232 501q37 0 72 -24l-182 -390q-19 31 -29 73.5t-10 99.5q0 59 11.5 104t31.5 75.5t47 46t59 15.5zM232 24q-55 0 -91 38l185 395q25 -32 40 -80t15 -117q0 -61 -11.5 -105.5t-31.5 -73.5t-47 -43t-59 -14z" />
    <glyph glyph-name="ugrave" unicode="&#xf9;" horiz-adv-x="315" 
d="M166 571l13 16l-124 113l-32 -36zM97 130v395h-61v-395q0 -36 10 -62t27 -42t40.5 -23.5t49.5 -7.5q55 0 86 30t31 109v391h-22v-395q0 -31 -5.5 -51t-16 -32t-25 -17t-32.5 -5t-33 5t-26 17t-17 32t-6 51z" />
    <glyph glyph-name="uacute" unicode="&#xfa;" horiz-adv-x="315" 
d="M296 675l-35 40l-121 -121l14 -15zM97 130v395h-61v-395q0 -36 10 -62t27 -42t40.5 -23.5t49.5 -7.5q55 0 86 30t31 109v391h-22v-395q0 -31 -5.5 -51t-16 -32t-25 -17t-32.5 -5t-33 5t-26 17t-17 32t-6 51z" />
    <glyph glyph-name="ucircumflex" unicode="&#xfb;" horiz-adv-x="315" 
d="M267 600l-86 70h-13l86 -70h13zM46 600h87l44 44l-30 26h-32zM97 130v395h-61v-395q0 -36 10 -62t27 -42t40.5 -23.5t49.5 -7.5q55 0 86 30t31 109v391h-22v-395q0 -31 -5.5 -51t-16 -32t-25 -17t-32.5 -5t-33 5t-26 17t-17 32t-6 51z" />
    <glyph glyph-name="udieresis" unicode="&#xfc;" horiz-adv-x="315" 
d="M138 619q0 14 -9 23t-23 9t-23 -9t-9 -23t9 -23t23 -9t23 9t9 23zM253 619q0 14 -9 23t-23 9t-23 -9t-9 -23t9 -23t23 -9t23 9t9 23zM97 130v395h-61v-395q0 -36 10 -62t27 -42t40.5 -23.5t49.5 -7.5q55 0 86 30t31 109v391h-22v-395q0 -31 -5.5 -51t-16 -32t-25 -17
t-32.5 -5t-33 5t-26 17t-17 32t-6 51z" />
    <glyph glyph-name="yacute" unicode="&#xfd;" horiz-adv-x="324" 
d="M75 525h-64l119 -259v-266h61v266l123 259h-24l-109 -230zM300 675l-35 40l-121 -121l14 -15z" />
    <glyph glyph-name="thorn" unicode="&#xfe;" horiz-adv-x="306" 
d="M289 285q0 30 -10 54.5t-26 41.5t-37 26.5t-42 9.5h-78v108h-60v-525h60v154h78q21 0 42 9t37 26.5t26 41.5t10 54zM234 285q0 -54 -18 -81.5t-59 -27.5h-61v219h61q41 0 59 -30.5t18 -79.5z" />
    <glyph glyph-name="ydieresis" unicode="&#xff;" horiz-adv-x="324" 
d="M146 619q0 14 -9 23t-23 9t-23 -9t-9 -23t9 -23t23 -9t23 9t9 23zM261 619q0 14 -9 23t-23 9t-23 -9t-9 -23t9 -23t23 -9t23 9t9 23zM75 525h-64l119 -259v-266h61v266l123 259h-24l-109 -230z" />
    <glyph glyph-name="OE" unicode="&#x152;" horiz-adv-x="1199" 
d="M1158 388h-235v-388h235v25h-210v338h210v25zM708 672v-197q-20 46 -52.5 84t-74 65.5t-90 42.5t-100.5 15q-74 0 -138 -28t-111.5 -75.5t-74.5 -110.5t-27 -134q0 -54 15.5 -104t43.5 -92t67.5 -74.5t87.5 -51.5v611q21 12 56 22.5t81 10.5q66 0 124 -26t102 -70.5
t69.5 -103t25.5 -122.5q0 -69 -26.5 -128t-71 -102.5t-102 -68t-118.5 -24.5q-38 0 -68 6v345h-32v-365q18 -5 44 -9t56 -4q51 0 98.5 14.5t88.5 41.5t73.5 65t53.5 84v-189h175v647h275v25h-450z" />
    <glyph glyph-name="oe" unicode="&#x153;" horiz-adv-x="610" 
d="M83 260q0 63 12.5 109t33 75t47.5 43t56 14q31 0 54.5 -13t41.5 -35t29.5 -51t18.5 -60v-159q-5 -28 -15 -56.5t-27.5 -51t-42.5 -37t-59 -14.5q-32 0 -59 14t-47 43t-31.5 73.5t-11.5 105.5zM578 525h-202v-60q-21 23 -56 44.5t-88 21.5q-50 0 -89.5 -22.5t-67 -60.5
t-42.5 -87t-15 -101q0 -46 13.5 -93.5t40 -85.5t66.5 -62.5t94 -24.5q51 0 88 21t56 46v-61h202v22h-141v239h141v23h-141v218h141v23z" />
    <glyph glyph-name="Scaron" unicode="&#x160;" horiz-adv-x="604" 
d="M458 812h-17l-97 -97h17zM356 751l-61 61h-122l96 -97h51zM167 331l247 -287q-23 -14 -56.5 -23.5t-83.5 -9.5q-75 0 -133 29.5t-88 74.5l-21 -14q35 -51 93 -83t149 -32q42 0 72 5.5t51 13.5t35.5 17t25.5 17l-257 292h-34zM500 305l-296 333q23 6 53 9.5t65 3.5
q28 0 58.5 -5t59 -15.5t53.5 -26.5t42 -37l21 15q-18 23 -44.5 40.5t-57.5 29.5t-65 18t-67 6q-123 0 -188 -30.5t-65 -72.5q0 -29 16.5 -50.5t31.5 -38.5l369 -422q28 21 44.5 49t16.5 73q0 33 -10.5 62.5t-36.5 58.5z" />
    <glyph glyph-name="scaron" unicode="&#x161;" horiz-adv-x="282" 
d="M282 680h-17l-97 -97h17zM180 619l-61 61h-122l97 -97h50zM233 441l19 11q-13 31 -37.5 53.5t-69.5 22.5q-24 0 -46 -9t-38 -25t-25.5 -38.5t-9.5 -49.5q0 -56 33.5 -96t85.5 -73q36 -23 52.5 -50t16.5 -57q0 -51 -17 -77.5t-64 -26.5q-32 0 -56 23.5t-34 64.5l-21 -8
q9 -46 40 -78t83 -32q58 0 91 36t33 102q0 30 -5.5 55.5t-20 48.5t-38.5 44.5t-60 43.5q-34 20 -49 42t-15 57q0 31 18 52t50 21q30 0 52 -14t32 -43z" />
    <glyph glyph-name="Ydieresis" unicode="&#x178;" horiz-adv-x="570" 
d="M203 782h-84v-72h84v72zM255 710v72h-20v-72h20zM431 782h-84v-72h84v72zM483 710v72h-20v-72h20zM549 672h-171l-350 -675h173zM194 401l141 271h-30l-111 -213l-105 213h-30z" />
    <glyph glyph-name="florin" unicode="&#x192;" horiz-adv-x="526" 
d="M475 432h-432v-432h432v432z" />
    <glyph glyph-name="circumflex" unicode="&#x2c6;" horiz-adv-x="390" 
d="M357 584l-120 97h-17l118 -97h19zM49 584h122l61 61l-42 36h-45z" />
    <glyph glyph-name="tilde" unicode="&#x2dc;" horiz-adv-x="385" 
d="M49 595l9 -6q11 14 26 25t35 16q20 -27 46 -39t58 -12q58 0 85.5 17t36.5 36l-9 5q-11 -14 -22.5 -23.5t-31.5 -14.5q-22 28 -51.5 41t-60.5 13q-48 0 -77.5 -18t-43.5 -40z" />
    <glyph glyph-name="endash" unicode="&#x2013;" horiz-adv-x="440" 
d="M330 364h-280v-60h280v60zM385 304v60h-25v-60h25z" />
    <glyph glyph-name="emdash" unicode="&#x2014;" horiz-adv-x="600" 
d="M500 364h-450v-60h450v60zM555 304v60h-25v-60h25z" />
    <glyph glyph-name="quoteleft" unicode="&#x2018;" horiz-adv-x="265" 
d="M109 516h105v90h-105v-90zM54 696v-180h25v180h-25z" />
    <glyph glyph-name="quoteright" unicode="&#x2019;" horiz-adv-x="270" 
d="M169 690h-105v-90h105v90zM224 510v180h-25v-180h25z" />
    <glyph glyph-name="quotesinglbase" unicode="&#x201a;" horiz-adv-x="265" 
d="M164 155h-105v-90h105v90zM219 -25v180h-25v-180h25z" />
    <glyph glyph-name="quotedblleft" unicode="&#x201c;" horiz-adv-x="470" 
d="M319 516h105v90h-105v-90zM264 696v-180h25v180h-25zM109 516h105v90h-105v-90zM54 696v-180h25v180h-25z" />
    <glyph glyph-name="quotedblright" unicode="&#x201d;" horiz-adv-x="470" 
d="M164 690h-105v-90h105v90zM219 510v180h-25v-180h25zM374 690h-105v-90h105v90zM429 510v180h-25v-180h25z" />
    <glyph glyph-name="quotedblbase" unicode="&#x201e;" horiz-adv-x="470" 
d="M164 155h-105v-90h105v90zM219 -25v180h-25v-180h25zM374 155h-105v-90h105v90zM429 -25v180h-25v-180h25z" />
    <glyph glyph-name="dagger" unicode="&#x2020;" horiz-adv-x="240" 
d="M135 710h-30v-130h-60v-24h60v-374h30v374h60v24h-60v130z" />
    <glyph glyph-name="daggerdbl" unicode="&#x2021;" horiz-adv-x="240" 
d="M45 399h60v-302h30v302h60v24h-60v128h60v24h-60v135h-30v-135h-60v-24h60v-128h-60v-24z" />
    <glyph glyph-name="bullet" unicode="&#x2022;" horiz-adv-x="325" 
d="M289 269q0 25 -10 48t-26.5 39.5t-39.5 26.5t-48 10q-26 0 -48.5 -10t-39 -26.5t-26.5 -39.5t-10 -48q0 -26 10 -48.5t26.5 -39t39 -26.5t48.5 -10q25 0 48 10t39.5 26.5t26.5 39t10 48.5z" />
    <glyph glyph-name="ellipsis" unicode="&#x2026;" horiz-adv-x="1160" 
d="M210 87h-105v-90h105v90zM275 -3v90h-25v-90h25zM600 87h-105v-90h105v90zM665 -3v90h-25v-90h25zM990 87h-105v-90h105v90zM1055 -3v90h-25v-90h25z" />
    <glyph glyph-name="perthousand" unicode="&#x2030;" horiz-adv-x="1140" 
d="M650 675h-35l-500 -675h35zM195 366v159h-20v-176q5 -2 15 -3.5t23 -1.5q42 0 73.5 15t53 39t32.5 54t11 59q0 31 -12 61.5t-33.5 53.5t-52.5 37.5t-69 14.5t-68.5 -14.5t-52.5 -37.5t-34 -53.5t-12 -61.5q0 -53 28 -93.5t73 -59.5v282q9 5 23 11.5t43 6.5q32 0 59 -12.5
t46.5 -33t30.5 -47t11 -54.5q0 -27 -9 -53.5t-28 -47t-47 -33.5t-66 -13q-10 0 -18 2zM529 20v159h-20v-176q5 -2 15 -3.5t23 -1.5q42 0 73.5 15t53 39t32.5 54t11 59q0 31 -12 61.5t-33.5 53.5t-52.5 37.5t-69 14.5t-68.5 -14.5t-52.5 -37.5t-34 -53.5t-12 -61.5
q0 -53 28 -93.5t73 -59.5v282q9 5 23 11.5t43 6.5q32 0 59 -12.5t46.5 -33t30.5 -47t11 -54.5q0 -27 -9 -53.5t-28 -47t-47 -33.5t-66 -13q-10 0 -18 2zM907 20v159h-20v-176q5 -2 15 -3.5t23 -1.5q42 0 73.5 15t53 39t32.5 54t11 59q0 31 -12 61.5t-33.5 53.5t-52.5 37.5
t-69 14.5t-68.5 -14.5t-52.5 -37.5t-34 -53.5t-12 -61.5q0 -53 28 -93.5t73 -59.5v282q9 5 23 11.5t43 6.5q32 0 59 -12.5t46.5 -33t30.5 -47t11 -54.5q0 -27 -9 -53.5t-28 -47t-47 -33.5t-66 -13q-10 0 -18 2z" />
    <glyph glyph-name="guilsinglleft" unicode="&#x2039;" horiz-adv-x="270" 
d="M215 507l-152 -188v-25l152 188v25zM215 32v191l-96 95l-56 -66v-69z" />
    <glyph glyph-name="guilsinglright" unicode="&#x203a;" horiz-adv-x="260" 
d="M58 38l152 188v25l-152 -188v-25zM58 513v-191l96 -95l56 66v69z" />
    <glyph glyph-name="trademark" unicode="&#x2122;" horiz-adv-x="490" 
d="M212 654h-150v-17h67v-196h16v196h67v17zM266 655l-47 -212h16l34 159l64 -170l65 174l32 -163h17l-44 212l-70 -183z" />
    <glyph glyph-name="NUL" unicode="&#xe000;" horiz-adv-x="0" 
 />
    <glyph glyph-name="HT" unicode="&#xe001;" horiz-adv-x="0" 
 />
    <glyph glyph-name="minus" unicode="&#xe003;" horiz-adv-x="464" 
d="M407 285h-350v-41h350v41z" />
    <glyph glyph-name="notequal" unicode="&#xe004;" horiz-adv-x="265" 
d="M109 619q0 14 -9 23t-23 9t-23 -9t-9 -23t9 -23t23 -9t23 9t9 23zM224 619q0 14 -9 23t-23 9t-23 -9t-9 -23t9 -23t23 -9t23 9t9 23z" />
    <glyph glyph-name="integral" unicode="&#xe005;" horiz-adv-x="730" 
d="M660 600h-600v-600h600v600zM640 580v-560h-560v560h560z" />
    <glyph glyph-name="radical" unicode="&#xe006;" horiz-adv-x="649" 
d="M99 291l-64 -145q45 -35 79 -71.5t65 -79.5q20 47 48.5 99.5t63.5 106t75.5 105t83.5 97t88.5 82t90.5 59.5l-12 25q-76 -36 -142 -95.5t-120 -126.5t-95.5 -134t-68.5 -118q-13 55 -37 104t-55 92z" />
    <glyph glyph-name="approxequal" unicode="&#xe007;" horiz-adv-x="776" 
d="M326 261v126h124v-126h-124zM277 528v-92h-92q-46 0 -72.5 25.5t-26.5 67.5q0 45 27.5 70.5t70.5 25.5q47 0 70 -28t23 -69zM183 387h94v-126h-94q-30 0 -56.5 -10.5t-46.5 -30t-31.5 -46t-11.5 -58.5q0 -31 11 -57t30 -45t45 -29.5t57 -10.5q36 0 63.5 11t46 30.5
t27.5 46t9 56.5v94h124v-94q0 -30 9.5 -56.5t28 -46t45.5 -30.5t63 -11q31 0 57 11t45 30t30 45t11 56q0 32 -11.5 58.5t-31.5 46t-46.5 30t-56.5 10.5h-94v126h94q30 0 56.5 11t46.5 30.5t31.5 46t11.5 57.5t-11 57t-30 45t-45.5 29.5t-56.5 10.5q-36 0 -63 -11.5
t-45.5 -31t-28 -45.5t-9.5 -56v-94h-124v94q0 30 -9 56t-27.5 45.5t-46 31t-63.5 11.5q-30 0 -56.5 -11.5t-45.5 -31t-30 -45t-11 -54.5q0 -32 11 -58.5t30.5 -45.5t46 -30t58.5 -11zM690 529q0 -42 -29 -67.5t-70 -25.5h-92v92q0 41 23 69t70 28q43 0 70.5 -25.5
t27.5 -70.5zM499 120v92h92q41 0 70 -25.5t29 -67.5q0 -45 -27.5 -70.5t-70.5 -25.5q-47 0 -70 28t-23 69zM86 119q0 42 29 67.5t70 25.5h92v-92q0 -41 -23 -69t-70 -28q-43 0 -70.5 25.5t-27.5 70.5z" />
    <glyph glyph-name="nonbreakingspace" unicode="&#xe008;" horiz-adv-x="310" 
 />
    <glyph glyph-name="lozenge" unicode="&#xe009;" horiz-adv-x="408" 
d="M202 399l142 -142l-142 -142l-142 142zM15 257l187 -187l187 187l-187 187z" />
    <glyph glyph-name="apple" unicode="&#xe00a;" horiz-adv-x="790" 
d="M268 530q-40 0 -74.5 -13t-60 -38.5t-40 -63t-14.5 -85.5q0 -55 24.5 -115.5t60.5 -111t76 -83.5t72 -33q40 0 67 33q8 9 19.5 14t22.5 5q13 0 22 -6t15 -13q28 -33 73 -33q40 0 73 24t58 56.5t42 66t25 51.5q-17 5 -35 17.5t-33 30t-24.5 39.5t-9.5 46q0 48 19 86.5
t61 58.5q-4 12 -15.5 24t-28.5 21.5t-39 15.5t-48 6q-25 0 -48.5 -5.5t-40.5 -18.5q-20 -15 -35 -21t-31 -6q-15 0 -26.5 6.5t-33.5 20.5q-17 11 -42.5 17.5t-50.5 6.5zM529 669q-21 0 -43 -12.5t-39.5 -32t-29 -43t-11.5 -46.5q0 -6 2.5 -11.5t11.5 -5.5q19 0 40 14
t38.5 35.5t29 46.5t11.5 46q0 9 -10 9z" />
    </font>
</defs>
</svg>
