<?xml version="1.0" standalone="no"?>
<!DOCTYPE svg PUBLIC "-//W3C//DTD SVG 1.1//EN" "http://www.w3.org/Graphics/SVG/1.1/DTD/svg11.dtd" >
<svg xmlns="http://www.w3.org/2000/svg" xmlns:xlink="http://www.w3.org/1999/xlink" version="1.1">
<metadata>
Created by FontForge 20170731 at (null) By Aleksey,,,
Copryight 1997, David F. Nalle                                                    Stonecross v.1.0 - Scriptorium Font Library
</metadata>
<defs>
<font id="Stonecross" horiz-adv-x="1000" >
  <font-face 
    font-family="Stonecross"
    font-weight="400"
    font-stretch="normal"
    units-per-em="1000"
    panose-1="0 0 4 0 0 0 0 0 0 0"
    ascent="800"
    descent="-200"
    cap-height="801"
    bbox="-22 -432 1312 1175"
    underline-thickness="20"
    underline-position="-155"
    unicode-range="U+0020-201D"
  />
<missing-glyph horiz-adv-x="500" 
d="M63 0v1000h375v-1000h-375zM125 63h250v875h-250v-875z" />
    <glyph glyph-name=".notdef" horiz-adv-x="500" 
d="M63 0v1000h375v-1000h-375zM125 63h250v875h-250v-875z" />
    <glyph glyph-name=".null" horiz-adv-x="0" 
 />
    <glyph glyph-name="nonmarkingreturn" horiz-adv-x="342" 
 />
    <glyph glyph-name="space" unicode=" " horiz-adv-x="342" 
 />
    <glyph glyph-name="exclam" unicode="!" 
 />
    <glyph glyph-name="quotedbl" unicode="&#x22;" 
 />
    <glyph glyph-name="numbersign" unicode="#" 
 />
    <glyph glyph-name="dollar" unicode="$" 
 />
    <glyph glyph-name="percent" unicode="%" 
 />
    <glyph glyph-name="ampersand" unicode="&#x26;" 
 />
    <glyph glyph-name="quotesingle" unicode="'" 
 />
    <glyph glyph-name="parenleft" unicode="(" 
 />
    <glyph glyph-name="parenright" unicode=")" 
 />
    <glyph glyph-name="asterisk" unicode="*" 
 />
    <glyph glyph-name="plus" unicode="+" 
 />
    <glyph glyph-name="comma" unicode="," 
 />
    <glyph glyph-name="hyphen" unicode="-" 
 />
    <glyph glyph-name="period" unicode="." 
 />
    <glyph glyph-name="slash" unicode="/" 
 />
    <glyph glyph-name="zero" unicode="0" 
 />
    <glyph glyph-name="one" unicode="1" 
 />
    <glyph glyph-name="two" unicode="2" 
 />
    <glyph glyph-name="three" unicode="3" 
 />
    <glyph glyph-name="four" unicode="4" 
 />
    <glyph glyph-name="five" unicode="5" 
 />
    <glyph glyph-name="six" unicode="6" 
 />
    <glyph glyph-name="seven" unicode="7" 
 />
    <glyph glyph-name="eight" unicode="8" 
 />
    <glyph glyph-name="nine" unicode="9" 
 />
    <glyph glyph-name="colon" unicode=":" 
 />
    <glyph glyph-name="semicolon" unicode=";" 
 />
    <glyph glyph-name="less" unicode="&#x3c;" 
 />
    <glyph glyph-name="equal" unicode="=" 
 />
    <glyph glyph-name="greater" unicode="&#x3e;" 
 />
    <glyph glyph-name="question" unicode="?" 
 />
    <glyph glyph-name="at" unicode="@" 
 />
    <glyph glyph-name="A" unicode="A" horiz-adv-x="800" 
d="M798 -3h-203l-18 120l-30 -4l-52 131l-289 -134l30 -18l-179 -101h-55v211q3 7 29 92q8 27 44 96q2 4 13 4t13 3l5 45q8 72 189 206q-5 5 -27 38t-39 44q-36 13 -174 68h291q41 -18 97 -117q10 -18 33 -66q11 -24 30 -80q1 -5 1 -8q0 -10 -9.5 -15.5t-9.5 -10.5
q0 -2 2 -6q1 2 5 2q11 0 33 -18t28 -33q22 -58 65 -161q65 -142 130 -230q15 -21 47 -58zM452 311q-28 53 -57 107q-41 79 -38 88l20 55l-34 -23l-16 23l-2 4q-23 -10 -51 -48l-56 -84q-73 -106 -73 -194l-3.5 -19.5t-1.5 -21.5l177 61q98 34 135 52z" />
    <glyph glyph-name="B" unicode="B" horiz-adv-x="863" 
d="M856 430q0 -189 -123.5 -318.5t-305.5 -129.5q-180 0 -299.5 115.5t-119.5 291.5q0 15 8 32.5t9 27.5q1 8 -7 21.5t-6 21.5q15 57 48 106q47 73 141 168q89 91 89 136q0 111 -174 162q39 24 66 29q14 3 82 3q76 0 131 19q6 2 6 5q0 1 -2.5 4t-2.5 5q0 4 8 7q35 16 75 39
q4 -22 4 -63q0 -82 -34 -150q-17 -34 -76 -112q-54 -72 -83 -142q3 2 4 2t-29 -47q-42 -64 -65 -125q-35 -92 -31 -179q0 -21 14 -55q12 -27 23 -53q3 -8 -10 -16.5t-13 -13.5q0 -14 30 -41q25 -21 49 -42q94 -95 175 -95q131 0 205 124q62 105 62 243q0 108 -56 203
q-67 112 -170 112q-44 0 -75 -26q-16 -13 -55 -65l-4 -95l25 -77q-24 16 -41 31q-41 36 -45 63.5t-4 49.5q0 51 22 87t72.5 69.5t164.5 33.5q141 0 233 -115q68 -86 68 -100q0 -5 -13 -7.5t-10 -12.5q0 -1 24 -64q16 -42 16 -67z" />
    <glyph glyph-name="C" unicode="C" horiz-adv-x="750" 
d="M729 111q-25 -20 -39 -33q-114 -83 -295 -83q-68 0 -145 35q-91 42 -155 118q-74 88 -74 232q0 39 20 91l36 84q2 5 -13.5 9t-12.5 9q19 35 94 106q124 118 322 118q21 0 45 -11q29 -14 43 -17q4 -1 25 2t24 6t6 3t13.5 -7.5t17.5 -7.5q-2 0 12.5 15.5t42.5 20.5v-173
q-130 67 -175 78q-37 9 -86 9q-84 0 -180 -97q-43 -44 -60 -111q-11 -42 -19 -136q-1 -16 3 -43q4 -30 4 -40q0 -11 -3 -19q10 -17 26 -47q8 -16 22 -28q21 -17 29 -26q42 -47 82 -68q44 -22 105 -22q73 0 128 27q41 33 88 71q8 0 8 -10q0 -5 -3.5 -21t-1.5 -21q40 34 40 33
l26 26v-72z" />
    <glyph glyph-name="D" unicode="D" horiz-adv-x="877" 
d="M870 398q0 -81 -46 -167q-52 -97 -146 -163q-105 -73 -266 -73q-163 0 -281 111q-121 114 -121 276q0 77 29 155q4 10 8.5 4t9.5 3q18 30 35 59q24 39 43 56q76 68 226 81l145 -36l76 -66l45 -77l-81 -106l3 93q-26 52 -47 69q-27 23 -66 37q-22 7 -43 13
q-134 -3 -188.5 -65t-54.5 -212q0 -143 79 -233q83 -95 224 -95q20 0 165 91q0 -8 6 -8q11 0 39 40q68 96 68 221q0 189 -129 274q-87 57 -123 72q-66 28 -158 28l-62 28q-3 -13 -19 -14q-5 -1 -79 27q-90 33 -154 49q47 -1 65 14q20 12 65 40q13 8 20.5 22t29.5 29
q54 -101 109 -115q31 -12 62 -25q47 -18 84 -19q99 -3 203 -50q116 -53 173 -149q5 -9 7 -52q1 -35 14 -37v0q7 1 17 -5q14 -57 14 -125z" />
    <glyph glyph-name="E" unicode="E" horiz-adv-x="804" 
d="M791 283l-23 -136q-10 -22 -24 -40q-31 -43 -74 -64q-106 -51 -225 -51q-99 0 -177 32q5 25 9 27q-3 -1 -5 0q-23 -4 -52 -4q-35 19 -68 44q-138 103 -138 300q0 179 111 297q29 30 62 53q3 2 6 -20.5t6 -21.5q9 31 25 64q100 51 192 51q120 0 192 -14q34 -13 103 -29
q6 12 57 52v-176l2 -220h-45q-64 48 -138 48h-424q-7 -28 -57 -78q1 -1 14.5 -10t13.5 -12q0 -59 29 -111q24 -42 77 -96q94 -96 229 -96q54 0 146 42q43 19 60 33q11 10 61 63q22 21 42 50q7 11 13 23zM695 617q-38 41 -40 43q-26 26 -47 35q-73 31 -145 31q-76 0 -164 -55
q-83 -53 -130 -123l418 -5q22 -1 55 29q47 42 53 45z" />
    <glyph glyph-name="F" unicode="F" horiz-adv-x="570" 
d="M551 137q-13 -9 -42 -46l-59 -102q-92 72 -201 72q-18 0 -22 -5q-9 -15 -9 -56q0 -10 1 -74.5t1 -101.5q0 -55 -2 -74q-9 -70 -14 -98q-37 -18 -115 -84v222l26 11l-26 46v466l9 27l-9 168q-1 25 0 65q2 51 2 64q0 60 -11.5 82.5t-13.5 25.5q-18 22 -48 25l2 25h264
l63 -21l81 21h119l-20 -58q-9 -15 -12 -57q-3 -50 -8 -69q-41 68 -94 93q-48 23 -134 23q-38 0 -48 -8q4 -23 -7 -122l-11 -54l11 -204v-202l77 -9l43 9l96 -18l38 18h73z" />
    <glyph glyph-name="G" unicode="G" horiz-adv-x="726" 
d="M710 1q0 -99 -31 -154.5t-108 -96.5l-103 -15q93 86 112 114q8 12 27 50t19 46q-2 1 -2 12q0 12 5 62q4 42 2 45q-14 -5 -100 -56q-35 -21 -128 -21q-98 0 -158 19q-81 25 -143 92q-13 14 -21 36l-12 36q-2 4 6 25t8 26q0 4 -4 4l-51 -4q-14 60 -30 184q-3 85 48 179
q60 108 161 155q123 57 291 57q21 0 62.5 -4.5t62.5 -4.5q36 0 80 24l6 -317q-25 78 -33 95q-21 48 -57 79q-45 37 -88 50q-39 11 -105 11q-107 0 -190 -90q-33 -36 -54 -83q-2 -5 -18 -17t-17 -19q-2 -5 7 -15.5t8 -16.5q-10 -44 -10 -96q0 -131 67 -224q74 -105 200 -105
q119 0 221 110l-128 110h195l3 -97v-185z" />
    <glyph glyph-name="H" unicode="H" horiz-adv-x="904" 
d="M894 433q0 -160 -61 -285q-33 -67 -80 -109q-52 -48 -143 -86l78 92q34 44 55 116q11 38 19 120q8 78 8 136q0 158 -78.5 234.5t-212.5 76.5q-57 0 -119 -38q-57 -36 -57 -65v-352l-20 -24l20 -40v-212h-133v328l25 20l-25 32v480q0 68 -14 99q-5 11 -11 14q-10 6 -43 9
l-93 7q63 29 72 32q1 1 53 17q31 10 110 19q20 2 66 12v-323l71 36q48 25 172 25q169 0 256 -110q29 -37 49 -80q2 -5 -2 -20t-3 -20q2 -5 13.5 -9.5t12.5 -10.5q15 -56 15 -121z" />
    <glyph glyph-name="I" unicode="I" horiz-adv-x="287" 
d="M277 0h-132q0 23 4.5 70.5t10.5 92.5v118l19 22l-19 22v331q0 41 -18 61q-20 24 -132 84h267v-253l-22 -39l22 -10v-499z" />
    <glyph glyph-name="J" unicode="J" horiz-adv-x="270" 
d="M247 165q4 -35 -11 -125q-18 -107 -44 -161q-32 -65 -94 -91q-9 -4 -42 -14q59 122 73 207.5t14 269.5q0 45 -5 128q-4 89 -5 129q0 7 10 16.5t10 15.5t-10 18.5t-10 17.5q-2 100 -6 121q-25 20 -48 38l-79 62h247v-460l-15 -44z" />
    <glyph glyph-name="K" unicode="K" horiz-adv-x="928" 
d="M950 159q-78 -73 -134 -117q-62 -49 -78 -49h-1q-44 0 -86 57q-24 33 -102 163q-81 137 -106 172q-93 134 -169 134q-13 0 -13 -29q0 -57 -2 -148l-3 -103q0 -140 30 -237h-158v151l32 53l-30 37l-1 367l11 148l-12 28v130q0 35 -41 56l-5 3l-104 59h124l161 -5v-371
l-39 -59l39 -17l47 5q156 47 187 129q13 34 13 101q62 -19 81 -19q10 0 40 1.5t55 1.5q-83 -126 -113 -157.5t-83 -57.5q-13 -6 -92 -40q102 -59 177 -158q19 -25 43 -58q2 -3 2 -6v0q0 -4 -7 -16.5t-3 -18.5q1 -1 4 -1v0q4 0 21 4q14 4 16 1q20 -31 55 -84q60 -79 118 -79
q21 0 126 29z" />
    <glyph glyph-name="L" unicode="L" horiz-adv-x="606" 
d="M622 167q-43 -78 -50 -113q-9 -38 -21 -91q-57 13 -153 28l-6 1h-279l2 649l23 31l-25 47v190q0 25 -20 41t-109 84q85 0 129 -2q12 -1 24 -17l12 -16q1 0 1 1l14 29q22 1 89 18v-714l-25 -24l25 -93q5 -19 2 -63l-4 -63q3 -7 28 -7q116 0 178.5 21.5t164.5 62.5z" />
    <glyph glyph-name="M" unicode="M" horiz-adv-x="1328" 
d="M1312 366q0 -47 -9 -90q-16 -77 -46 -127.5t-88 -99.5q-71 -61 -206 -61q-29 0 -65.5 15t-55.5 35q-19 17 -38 35q-21 23 -46 80q47 -34 112 -76q16 -7 53.5 -14.5t54.5 -7.5q48 0 75 11q40 16 79 65t52 103q10 42 10 128q0 58 -32 130q-30 67 -73 114q-102 112 -202 118
q-65 4 -114 -20q-22 -12 -67 -49q43 -82 51 -152q5 -43 5 -94q0 -92 -19 -167q-2 -7 -38 -136q21 -23 76 -105h-248q45 95 70 198q2 9 18.5 38t18.5 39q1 7 -9.5 11t-9.5 11q7 53 7 103q0 111 -56 224q-51 106 -146 106q-35 0 -105 -38q-64 -35 -64 -79v-393q0 -83 30 -126
q11 -9 31 -41.5t47 -53.5h-249q24 177 24 329q0 70 -2 141q0 8 13 18.5t13 18.5t-14.5 12.5t-14.5 12.5q-4 96 -9 197l-110 78l249 -4v-55q22 9 55 25q66 33 139 33q103 0 196 -82q11 5 51 25q18 10 48 25q15 10 55 26q28 8 98 15q13 1 25 1q84 0 170 -46q82 -43 124 -103
q18 -24 47 -72q2 -5 -12 -11t-12 -11q1 -4 22 -15t22 -15q19 -60 19 -177z" />
    <glyph glyph-name="N" unicode="N" horiz-adv-x="816" 
d="M805 814l-31 -113q-3 -9 6 -11t9 -11v-727l-128 149q-2 2 -2 6t2 11t2 11q0 7 -20 13q-23 7 -27 11l-407 472v-240q0 -122 15 -197.5t97 -192.5h-214q12 53 19 113l2 15q8 70 8 103v241l19 38l-19 4v186q-16 17 -41 44q-31 30 -85 61h230l223 -276q4 -4 12 -37.5
t12 -38.5l26 15l207 -256v392q-38 92 -102 158l-48 54l48 -1q39 -10 91 -10h19q14 -1 20 -1q20 0 57 15z" />
    <glyph glyph-name="O" unicode="O" horiz-adv-x="865" 
d="M482 690l34 -20q25 -14 37 -46q21 -55 20 -147l-109 -63l38 113q-39 57 -72 72q-18 9 -43 9q-9 0 -30.5 -1.5t-33.5 -1.5q-4 -1 -7 -1v0q-7 0 -20 10q-8 7 -20 -3q-87 -76 -111 -142q-16 -46 -16 -93q0 -69 19 -115q15 -39 57 -89q77 -91 194 -91q130 0 209 89
q33 38 52 86q3 6 14 10.5t13 11.5q-4 19 -7 48q7 39 7 84q0 165 -84 241q-100 89 -180 89q1 0 -19 4.5t-79 6.5q-51 1 -266 -65l156 98q133 39 210 34q76 -5 136 -26q6 -12 18 -26q6 -2 8 -2q9 5 17 10q62 -30 117 -85q126 -124 126 -288q0 -81 -48 -169q-54 -98 -149 -164
q-104 -73 -268 -73q-176 0 -291 132q-50 58 -73 95q-3 4 3 19t4 19q-2 5 -17 9t-17 9q-13 41 -13 89q0 81 12 120q15 48 68 110q46 53 118 85q79 35 168 34q30 3 115 -25z" />
    <glyph glyph-name="P" unicode="P" horiz-adv-x="936" 
d="M918 441q0 -181 -127 -318.5t-291 -137.5q-39 0 -85 24q-57 30 -69 76q-6 24 -6 44q0 42 31 78t129 36l-56 -60q-13 -33 -13 -58q0 -20 10 -32t51 -23q18 -5 36 -5q72 0 159 103q83 99 83 232q0 88 -5 113q3 6 16 26q1 2 -1 7.5t-19 3.5t-19 2q-20 45 -53 77
q-83 77 -155 77q-87 0 -146 -30l-70 -50v-334q0 -262 0 -259q-1 -73 -9.5 -158t-18.5 -116q-14 -44 -53 -74q-27 -21 -82 -44l26 81q14 38 15 140q-1 -101 -1 144v228l32 39l-32 59v150q0 128 -26 169q-57 94 -152 143q36 5 106 2q97 -4 87 -4q24 -19 79 -75q63 48 120 65
q53 16 141 16q168 0 268 -99t100 -258z" />
    <glyph glyph-name="Q" unicode="Q" horiz-adv-x="885" 
d="M868 -36q-16 -21 -51 -52q-29 -16 -66 -16q-79 0 -129 51q-10 10 -55 64q-69 -20 -153 -20q-177 0 -292 133q-66 75 -87 116q-32 59 -26 127q3 36 6 73q4 33 12 57q2 5 16 3.5t17.5 4.5t10.5 43q6 33 18 48q44 51 107 83q73 38 151 38q14 0 28 -2q31 4 116 -24
q20 -16 41 -31q26 -20 33 -36q21 -56 20 -149l-109 -63l37 114q-38 57 -71 73q-19 8 -44 8q-8 0 -31 -2q-20 -1 -32 0q-23 -5 -45 -9q-27 -6 -42 -19q-31 -26 -45 -50q-12 -19 -27 -60q-16 -46 -16 -93q0 -69 19 -115q15 -39 57 -89q22 -26 46 -44l102 104q22 13 51 13
q22 0 47 -8q8 -2 22.5 -26.5t20.5 -27.5q3 -2 8.5 13.5t7.5 13.5q45 -25 75 -56l4 -4q48 44 72 106q3 7 20.5 23.5t19.5 24.5q1 4 -9.5 12t-9.5 12q6 39 6 82q0 166 -84 242q-46 41 -100 67q-57 29 -101 29h-111q-52 -4 -233 -56l157 94q133 39 209 34q178 -11 297 -130
q27 -26 47 -53q2 -3 2 -8q0 -4 -2 -14.5t-2 -15.5q0 -8 7 -9v0q12 1 28 -4q46 -85 46 -185q0 -80 -46 -167q-52 -99 -145 -164q0 -2 25 -27q42 -43 110 -43q33 0 57 13q41 24 41 19q0 -4 -53 -66zM495 84q-57 42 -118 42q-36 0 -75 -14q57 -34 129 -34q33 0 64 6z" />
    <glyph glyph-name="R" unicode="R" horiz-adv-x="806" 
d="M799 0q-20 -4 -40 -2q-31 2 -23 2q-50 0 -72 19q-4 4 -9 4q-7 0 -21.5 -10.5t-24.5 -12.5q-21 4 -58 29q-45 31 -84 76q-95 108 -126 141q-53 57 -88 79v-329l-34 31l-45 -31h-53v458l25 73l-25 18v84q0 70 -13 87q-9 14 -19 28q-25 26 -82 53h69q-3 0 64 3q31 2 48 -6
q16 -16 44 -41q95 61 187 60h7q78 -1 129 -40q57 -44 57 -120q0 -18 -3 -35q-1 -5 -12 -7t-13 -7t4 -24.5t6 -25.5q0 -4 -1 -6q-41 -98 -228 -175q62 -36 135 -115q59 -66 118 -131q39 -41 50 -50q24 -21 68 -43zM472 620q0 51 -27 76.5t-49 25.5q-49 0 -130 -53l-5 -3v-227
q95 35 153 74.5t58 106.5z" />
    <glyph glyph-name="S" unicode="S" horiz-adv-x="738" 
d="M720 223q0 -90 -84 -165q-31 -27 -74 -44q-6 -3 -17 10t-18 11q-4 -1 -15.5 -20.5t-16.5 -20.5q-52 -10 -116 -10q-134 0 -234 49q-128 61 -128 180q0 28 90 78q73 40 123 51q-11 -20 -31 -60.5t-20 -68.5q0 -81 59.5 -125.5t161.5 -44.5q58 0 116 44q62 47 62 105
q0 111 -131 154l-240 72q-41 19 -69 45q-1 2 -1 4v0q0 4 11.5 13.5t8.5 14.5q-5 8 -29 10.5t-26 12.5q-23 25 -23 96q0 102 120 160q97 48 211 48q95 0 159 -32q2 -1 2 -3q0 -3 -5 -11t-5 -11q0 -2 2 -3q18 5 38 9q73 -53 97 -161q-67 -13 -110 -56q-39 -39 -81 -50
q12 30 24 56q16 37 16 63q0 52 -56 96t-112 44q-58 0 -108 -43t-50 -97q0 -126 130 -174q122 -32 241 -62q128 -46 128 -164z" />
    <glyph glyph-name="T" unicode="T" horiz-adv-x="814" 
d="M812 792l-27 -84q-22 2 -103 7q-89 4 -196 4q-27 0 -67.5 -51t-48.5 -63q-20 -32 -33 -82q-24 -89 -24 -184q0 -139 78 -217q38 -40 76 -53t108 -13q21 0 95 32q94 40 136 89l-22 -59l-98 -82q-74 -53 -182 -55q-139 -3 -240 93q-41 39 -66 83q-3 5 11 16.5t12 16.5
q-3 7 -24.5 11t-23.5 11q-7 28 -7 96q0 123 62 233q19 35 63 76q95 87 104 96l-406 2q43 31 144 122q69 -67 243 -85l248 12l11 -16l69 38z" />
    <glyph glyph-name="U" unicode="U" horiz-adv-x="768" 
d="M743 -3h-149q5 42 7 61q3 14 3 21q-108 -87 -260 -87q-137 0 -227.5 110t-90.5 267q0 126 94 283q18 29 33 48q-5 10 -93 98h43l88 -13l25 13h109q-81 -136 -116 -238q-2 -6 -27.5 -16.5t-26.5 -16.5q-2 -6 16.5 -20t16.5 -20q-15 -68 -15 -134q0 -131 59 -204.5
t161 -73.5q219 0 219 198v380q0 19 -127 142q77 0 115 3q16 1 33.5 -11.5t15.5 -12.5q9 0 24.5 10.5t24.5 10.5q13 0 45 7v-54l-18 -39l18 -84v-163l-22 -51l22 -73v-341z" />
    <glyph glyph-name="V" unicode="V" horiz-adv-x="768" 
d="M783 802l-28 -45l-309 -785q-47 47 -101 188q-53 136 -119 276q-27 57 -63 121q-3 5 12 12.5t12 13.5t-32.5 22.5t-33.5 22.5q-45 74 -108 168h294q-18 -24 -35 -47l-30 -3q-4 0 -4 -4q0 -3 5.5 -16t3.5 -17l119 -263q2 -4 -12 -11t-12 -11t22.5 -11.5t21.5 -11.5
l75 -163q51 77 125 295q36 105 36 129t-17 49q-21 30 -58 88z" />
    <glyph glyph-name="W" unicode="W" horiz-adv-x="1120" 
d="M1100 797q-20 -151 -20 -325q0 -55 1 -116q0 -6 -11.5 -23.5t-10.5 -23.5q0 -4 12 -5.5t12 -5.5q3 -83 11 -226l4 -74h-144v55q-21 -8 -54 -25q-66 -33 -139 -33q-52 0 -95 17q-18 7 -85 44q-84 -63 -201 -63q-187 0 -274 97t-87 251q0 94 38 193q40 91 80 181l-23 -19
l-12 19q-19 32 -46 85h222v-53q-45 -55 -80 -144q-2 -5 -8 -5q-4 0 -12 1.5t-11 1.5q-7 0 -8 -5q-2 -5 7.5 -33t7.5 -33q-21 -78 -21 -141q0 -113 58 -212q54 -93 177 -93h14q119 0 130 30q-54 52 -69 184q-5 43 -5 94q0 92 19 167q2 7 38 136q-21 24 -76 105h248
q-40 -84 -64 -175q-2 -6 -27.5 -25.5t-26.5 -25.5q-1 -3 6 -3v0q-1 0 21 2q14 1 17 -2q5 -4 -6 -15q-15 -81 -15 -156q0 -111 55 -224q52 -106 146 -106q36 0 106 38q64 35 64 80v392q0 83 -30 126q-44 39 -82 91h110l18 -24l84 24h37z" />
    <glyph glyph-name="X" unicode="X" horiz-adv-x="864" 
d="M914 0l-41 1h-158q-115 222 -240 389q-36 49 -69 86q-83 -143 -140 -283q-42 -105 -42 -198q-30 0 -88 2t-94 2l317 536q-43 67 -97 115q-4 4 9.5 12.5t13.5 10.5q0 1 -1 2q-26 0 -55 2q-53 37 -100 37q-15 0 -138 -55q64 80 98 105q45 34 105 34q57 0 122 -52
q12 -10 111 -106q58 71 93 109q46 48 127 48q-3 0 58 -3q4 0 47 8q-5 -51 -22 -91q-10 -22 -46 -82l-51 44q-11 8 -27 8q-58 0 -131 -105q66 -89 203 -267q5 -5 19 -49t18 -49q5 20 14 36q62 -80 185 -247z" />
    <glyph glyph-name="Y" unicode="Y" horiz-adv-x="858" 
d="M857 801q-28 -24 -75 -61q-31 -28 -80 -70q-12 -9 -19 -37q-5 -22 -11 -45q-8 -27 -17 -151q-1 -15 -1 -33v0q0 -21 6 -110q4 -69 0 -112q0 -6 -23 -39.5t-24 -39.5q0 -5 6 -5v0q4 0 16.5 4t16.5 4q4 -2 7 -5q-11 -75 -43 -164q-38 -107 -79 -140q-80 -65 -114 -79
q-44 -14 -87 -28q-12 -5 -57.5 -12.5t-59.5 -7.5q-21 0 -109 -10q-95 -11 -108 -17l114 107l42 42q18 -4 40 -23t26 -19q6 0 12 17.5t11 19.5q134 0 202 79q58 66 68 154q-71 -40 -113 -40q-254 0 -333 230q-26 76 -26 166q0 4 17.5 28t20.5 50q1 5 -11 22.5t-11 24.5
q15 98 32 192q-2 6 -20 21q-30 26 -72 82h247v-58q-28 -76 -50 -187q-22 -114 -22 -191q0 -118 60 -210q56 -87 152 -87q41 0 94 26q62 30 62 67v220q0 129 7 187q9 72 37 130q32 66 107 106z" />
    <glyph glyph-name="Z" unicode="Z" horiz-adv-x="762" 
d="M777 52q-56 -22 -121 -64q-82 121 -238 121q-119 0 -264 -80q-68 -38 -107 -49l-61 -20l204 265l31 7q2 2 2 5v0q0 2 -6 8.5t-2 11.5l346 449h-160q-102 0 -149 -14q-35 -12 -116 -36l-62 -15q61 65 92 157h204l150 -28l-9 28l239 1l-51 -53l-438 -580q133 43 222 43
q36 0 65 -3q4 -1 8 -12.5t7 -12.5t13 8.5t13 8.5q55 -14 100 -50q35 -30 88 -96z" />
    <glyph glyph-name="bracketleft" unicode="[" 
 />
    <glyph glyph-name="backslash" unicode="\" 
 />
    <glyph glyph-name="bracketright" unicode="]" 
 />
    <glyph glyph-name="asciicircum" unicode="^" 
 />
    <glyph glyph-name="underscore" unicode="_" 
 />
    <glyph glyph-name="grave" unicode="`" 
 />
    <glyph glyph-name="a" unicode="a" 
 />
    <glyph glyph-name="b" unicode="b" 
 />
    <glyph glyph-name="c" unicode="c" 
 />
    <glyph glyph-name="d" unicode="d" 
 />
    <glyph glyph-name="e" unicode="e" 
 />
    <glyph glyph-name="f" unicode="f" 
 />
    <glyph glyph-name="g" unicode="g" 
 />
    <glyph glyph-name="h" unicode="h" 
 />
    <glyph glyph-name="i" unicode="i" 
 />
    <glyph glyph-name="j" unicode="j" 
 />
    <glyph glyph-name="k" unicode="k" 
 />
    <glyph glyph-name="l" unicode="l" 
 />
    <glyph glyph-name="m" unicode="m" 
 />
    <glyph glyph-name="n" unicode="n" 
 />
    <glyph glyph-name="o" unicode="o" 
 />
    <glyph glyph-name="p" unicode="p" 
 />
    <glyph glyph-name="q" unicode="q" 
 />
    <glyph glyph-name="r" unicode="r" 
 />
    <glyph glyph-name="s" unicode="s" 
 />
    <glyph glyph-name="t" unicode="t" 
 />
    <glyph glyph-name="u" unicode="u" 
 />
    <glyph glyph-name="v" unicode="v" 
 />
    <glyph glyph-name="w" unicode="w" 
 />
    <glyph glyph-name="x" unicode="x" 
 />
    <glyph glyph-name="y" unicode="y" 
 />
    <glyph glyph-name="z" unicode="z" 
 />
    <glyph glyph-name="braceleft" unicode="{" 
 />
    <glyph glyph-name="bar" unicode="|" 
 />
    <glyph glyph-name="nonbreakingspace" unicode="&#xa0;" horiz-adv-x="342" 
 />
    <glyph glyph-name="quoteleft" unicode="&#x2018;" horiz-adv-x="185" 
d="M161 790q0 -35 -28 -78.5t-92 -72.5q39 54 39 73q0 9 -10 35q-2 10 -8 18l-18 17q-17 13 -17 24l64 84l8 5q16 0 35 -29q15 -22 21 -42.5t6 -33.5z" />
    <glyph glyph-name="quoteright" unicode="&#x2019;" horiz-adv-x="185" 
d="M161 790q0 -35 -28 -78.5t-92 -72.5q39 54 39 73q0 9 -10 35q-2 10 -8 18l-18 17q-17 13 -17 24l64 84l8 5q16 0 35 -29q15 -22 21 -42.5t6 -33.5z" />
    <glyph glyph-name="quotedblleft" unicode="&#x201c;" horiz-adv-x="336" 
d="M314 787q0 -34 -28 -77.5t-92 -73.5q39 55 39 74q0 9 -10 35q-2 10 -8 17l-19 17q-16 13 -16 25l64 83l8 5q16 0 35 -28q14 -23 20.5 -43t6.5 -34zM161 790q0 -35 -28 -78.5t-92 -72.5q39 54 39 73q0 9 -10 35q-2 10 -8 18l-18 17q-17 13 -17 24l64 84l8 5q16 0 35 -29
q15 -22 21 -42.5t6 -33.5z" />
    <glyph glyph-name="quotedblright" unicode="&#x201d;" horiz-adv-x="336" 
d="M314 787q0 -34 -28 -77.5t-92 -73.5q39 55 39 74q0 9 -10 35q-2 10 -8 17l-19 17q-16 13 -16 25l64 83l8 5q16 0 35 -28q14 -23 20.5 -43t6.5 -34zM161 790q0 -35 -28 -78.5t-92 -72.5q39 54 39 73q0 9 -10 35q-2 10 -8 18l-18 17q-17 13 -17 24l64 84l8 5q16 0 35 -29
q15 -22 21 -42.5t6 -33.5z" />
    </font>
</defs>
</svg>
