<?xml version="1.0" standalone="no"?>
<!DOCTYPE svg PUBLIC "-//W3C//DTD SVG 1.1//EN" "http://www.w3.org/Graphics/SVG/1.1/DTD/svg11.dtd" >
<svg xmlns="http://www.w3.org/2000/svg" xmlns:xlink="http://www.w3.org/1999/xlink" version="1.1">
<metadata>
Created by FontForge 20170731 at Mon Apr 29 21:50:05 2013
 By Aleksey,,,
Copyright 2013 Adobe Systems Incorporated. All rights reserved.
</metadata>
<defs>
<font id="Quarca-ConThi" horiz-adv-x="138" >
  <font-face 
    font-family="Quarca Cond Thin"
    font-weight="250"
    font-stretch="condensed"
    units-per-em="1000"
    panose-1="0 0 0 0 0 0 0 0 0 0"
    ascent="760"
    descent="-240"
    x-height="505"
    cap-height="710"
    bbox="-86 -300 751 925"
    underline-thickness="50"
    underline-position="-200"
    unicode-range="U+0020-FB06"
  />
<missing-glyph horiz-adv-x="400" 
 />
    <glyph glyph-name="ff" unicode="ff" horiz-adv-x="401" 
d="M385 720q-40 0 -58 -26t-18 -83v-106h87l-4 -20h-83v-485h-22v485h-188v-485h-22v485h-68l4 20h64v59q0 126 99 126h43l-5 -20h-39q-40 0 -58 -26t-18 -83v-56h188v109q0 126 98 126h43l-5 -20h-38z" />
    <glyph glyph-name="fi" unicode="fi" horiz-adv-x="362" 
d="M286 485h-187v-485h-22v485h-68l4 20h64v109q0 126 99 126h43l-5 -20h-39q-40 0 -58 -26t-18 -83v-106h209v-505h-22v485zM283 679v44h24v-44h-24z" />
    <glyph glyph-name="fl" unicode="fl" horiz-adv-x="366" 
d="M341 19h20l1 -20h-22q-66 0 -66 96v390h-175v-485h-22v485h-68l4 20h64v109q0 126 99 126h43l-5 -20h-39q-40 0 -58 -26t-18 -83v-106h175v231l16 4h6v-642q0 -79 45 -79z" />
    <glyph glyph-name="ffi" unicode="ffi" horiz-adv-x="568" 
d="M493 485h-184v-485h-22v485h-188v-485h-22v485h-68l4 20h64v59q0 126 98 126h121q22 60 89 60h123l-5 -20h-118q-40 0 -58 -26t-18 -83v-116h206v-505h-22v485zM175 670q-40 0 -58 -26t-18 -83v-56h188v119q0 27 4 46h-116z" />
    <glyph glyph-name="ffl" unicode="ffl" horiz-adv-x="561" 
d="M493 485h-184v-485h-22v485h-188v-485h-22v485h-68l4 20h64v59q0 126 98 126h121q22 60 89 60h123l-5 -20h-118q-40 0 -58 -26t-18 -83v-116h206v-505h-22v485zM175 670q-40 0 -58 -26t-18 -83v-56h188v119q0 27 4 46h-116z" />
    <glyph glyph-name="f_f_j" unicode="ffj" horiz-adv-x="568" 
d="M493 485h-184v-485h-22v485h-188v-485h-22v485h-68l4 20h64v59q0 126 98 126h121q22 60 89 60h123l-5 -20h-118q-40 0 -58 -26t-18 -83v-116h206v-505h-22v485zM175 670q-40 0 -58 -26t-18 -83v-56h188v119q0 27 4 46h-116z" />
    <glyph glyph-name="f_j" unicode="fj" horiz-adv-x="362" 
d="M286 485h-187v-485h-22v485h-68l4 20h64v109q0 126 99 126h43l-5 -20h-39q-40 0 -58 -26t-18 -83v-106h209v-564q0 -106 -82 -106h-20l3 20h16q32 0 46.5 21t14.5 68v541zM283 639v44h24v-44h-24z" />
    <glyph glyph-name=".notdef" horiz-adv-x="400" 
 />
    <glyph glyph-name=".null" horiz-adv-x="0" 
 />
    <glyph glyph-name="nonmarkingreturn" horiz-adv-x="333" 
 />
    <glyph glyph-name="NULL" horiz-adv-x="666" 
 />
    <glyph glyph-name="NULL" horiz-adv-x="666" 
 />
    <glyph glyph-name="space" unicode=" " horiz-adv-x="170" 
 />
    <glyph glyph-name="exclam" unicode="!" horiz-adv-x="156" 
d="M88 80h-21l-1 686l18 4h6zM66 -5v44h24v-44h-24z" />
    <glyph glyph-name="quotedbl" unicode="&#x22;" horiz-adv-x="179" 
d="M43 720h24l-5 -169h-15zM112 720h24l-5 -169h-15z" />
    <glyph glyph-name="numbersign" unicode="#" horiz-adv-x="493" 
d="M25 0l78 223h-79l3 20h85l73 210h-113l3 20h119l84 237h24l-84 -237h138l84 237h24l-84 -237h92l-3 -20h-98l-74 -210h127l-3 -20h-133l-78 -223h-23l78 223h-139l-78 -223h-23zM209 453l-74 -210h139l73 210h-138z" />
    <glyph glyph-name="dollar" unicode="$" horiz-adv-x="407" 
d="M214 -94l-21 -6v100h-53q-54 0 -78 30.5t-24 94.5v86h22v-86q0 -55 18.5 -80t59.5 -25h128q41 0 59.5 25t18.5 80v84q0 45 -11 65.5t-46 39.5l-174 92q-38 20 -52.5 45t-14.5 72v58q0 68 23.5 98.5t74.5 30.5h49v92l21 5v-97h39q54 0 79.5 -30.5t25.5 -98.5v-80h-22v81
q0 108 -81 108h-106q-45 0 -63 -25t-18 -88v-54q0 -38 11 -58.5t42 -37.5l177 -93q40 -21 54 -46.5t14 -78.5v-84q0 -125 -94 -125h-58v-94z" />
    <glyph glyph-name="percent" unicode="%" horiz-adv-x="548" 
d="M132 0l254 710h22l-253 -710h-23zM30 627q0 83 72 83h57q72 0 72 -83v-173q0 -84 -72 -84h-57q-72 0 -72 84v173zM159 690h-57q-52 0 -52 -66v-168q0 -66 52 -66h57q52 0 52 66v168q0 66 -52 66zM320 257q0 83 72 83h56q72 0 72 -83v-173q0 -84 -72 -84h-56q-72 0 -72 84
v173zM449 320h-57q-52 0 -52 -66v-168q0 -66 52 -66h57q27 0 39 15.5t12 50.5v168q0 35 -12 50.5t-39 15.5z" />
    <glyph glyph-name="ampersand" unicode="&#x26;" horiz-adv-x="507" 
d="M270 690h-88q-42 0 -60 -26.5t-18 -85.5v-136q0 -35 18 -57t40 -22h330v-20h-83v-208q0 -70 -22.5 -102.5t-78.5 -32.5h-156q-57 0 -79.5 32.5t-22.5 102.5v122q0 30 20 62.5t56 35.5q-21 6 -32.5 34t-11.5 54v132q0 70 22.5 102.5t79.5 32.5h83q58 0 81 -32t23 -103v-74
h-23v77q0 58 -17.5 85t-60.5 27zM150 20h159q43 0 60.5 27t17.5 85v211h-217q-46 0 -72 -23.5t-26 -64.5v-123q0 -58 17.5 -85t60.5 -27z" />
    <glyph glyph-name="quotesingle" unicode="'" horiz-adv-x="110" 
d="M43 720h24l-5 -169h-15z" />
    <glyph glyph-name="parenleft" unicode="(" horiz-adv-x="182" 
d="M161 720h-17q-32 0 -46.5 -26t-14.5 -83v-592q0 -57 14.5 -83t46.5 -26h13l-2 -20h-11q-83 0 -83 126v598q0 126 83 126h19z" />
    <glyph glyph-name="parenright" unicode=")" horiz-adv-x="182" 
d="M38 720h-17l-2 20h20q82 0 82 -126v-598q0 -126 -82 -126h-12l-2 20h13q32 0 46.5 26t14.5 83v592q0 57 -14.5 83t-46.5 26z" />
    <glyph glyph-name="asterisk" unicode="*" horiz-adv-x="291" 
d="M137 724h17v-137l89 76l11 -14l-93 -79l96 -79l-11 -15l-92 77v-142h-17v144l-92 -79l-11 14l95 80l-92 79l11 14l89 -76v137z" />
    <glyph glyph-name="plus" unicode="+" horiz-adv-x="339" 
d="M27 286l3 20h127v154h23v-154h132l-4 -20h-128v-158h-23v158h-130z" />
    <glyph glyph-name="comma" unicode="," 
d="M69 -101h-8l-4 144h25v-39z" />
    <glyph glyph-name="hyphen" unicode="-" horiz-adv-x="308" 
d="M272 306l-3 -20h-232l3 20h232z" />
    <glyph glyph-name="period" unicode="." horiz-adv-x="122" 
d="M49 -5v44h24v-44h-24z" />
    <glyph glyph-name="slash" unicode="/" horiz-adv-x="285" 
d="M250 740h22l-233 -770h-23z" />
    <glyph glyph-name="zero" unicode="0" horiz-adv-x="454" 
d="M62 135v440q0 70 22.5 102.5t79.5 32.5h125q57 0 80 -32.5t23 -102.5v-440q0 -70 -23 -102.5t-80 -32.5h-125q-57 0 -79.5 32.5t-22.5 102.5zM162 690q-43 0 -60.5 -27t-17.5 -85v-446q0 -58 17.5 -85t60.5 -27h129q43 0 60.5 26.5t17.5 85.5v446q0 59 -17.5 85.5
t-60.5 26.5h-129z" />
    <glyph glyph-name="one" unicode="1" horiz-adv-x="179" 
d="M87 0v685l-70 -71v25l71 71h22v-710h-23z" />
    <glyph glyph-name="two" unicode="2" horiz-adv-x="399" 
d="M144 690q-43 0 -60.5 -26.5t-17.5 -85.5v-77h-23v74q0 70 23 102.5t80 32.5h115q57 0 79.5 -32.5t22.5 -102.5v-87q0 -84 -57 -115l-183 -104q-58 -34 -58 -119v-130h204q43 0 60.5 26.5t17.5 85.5v79h23v-76q0 -70 -23 -102.5t-80 -32.5h-224v149q0 96 69 135l184 105
q45 26 45 99v90q0 58 -17.5 85t-60.5 27h-119z" />
    <glyph glyph-name="three" unicode="3" horiz-adv-x="423" 
d="M271 20q43 0 60.5 27t17.5 85v133q0 46 -24 68t-57 22h-131v20h122q66 0 66 81v122q0 58 -18 85t-60 27h-96q-43 0 -60.5 -27t-17.5 -85v-77h-22v74q0 70 22.5 102.5t79.5 32.5h92q57 0 79.5 -32.5t22.5 -102.5v-122q0 -38 -14.5 -59.5t-37.5 -26.5q76 -9 76 -100v-132
q0 -70 -22.5 -102.5t-79.5 -32.5h-132q-57 0 -79.5 32.5t-22.5 102.5v76h22v-79q0 -58 17.5 -85t60.5 -27h136z" />
    <glyph glyph-name="four" unicode="4" horiz-adv-x="416" 
d="M28 146v159q0 62 32 107l208 298h28l-218 -313q-28 -41 -28 -92v-139h241v194l17 4h6v-198h91l-3 -20h-88v-146h-23v146h-263z" />
    <glyph glyph-name="five" unicode="5" horiz-adv-x="396" 
d="M256 20q43 0 60.5 26.5t17.5 85.5v151q0 62 -19.5 90.5t-63.5 28.5h-196v308h293l-3 -20h-268v-268h174q55 0 80.5 -33t25.5 -101v-153q0 -70 -22.5 -102.5t-79.5 -32.5h-114q-57 0 -79.5 32.5t-22.5 102.5v76h22v-79q0 -58 17.5 -85t60.5 -27h117z" />
    <glyph glyph-name="six" unicode="6" horiz-adv-x="427" 
d="M383 280v-151q0 -66 -23 -97.5t-73 -31.5h-122q-58 0 -80.5 32t-22.5 97v446q0 71 22.5 103t80.5 32h114q54 0 79 -29t25 -106v-74h-23v79q0 58 -18 84t-61 26h-120q-40 0 -58.5 -26t-18.5 -83v-175h202q97 0 97 -126zM360 282q0 104 -73 104h-203v-259q0 -107 75 -107
h125q40 0 58 26t18 83v153z" />
    <glyph glyph-name="seven" unicode="7" horiz-adv-x="347" 
d="M14 690v20h310v-149q0 -79 -26 -131l-213 -430h-26l221 444q22 45 22 117v129h-288z" />
    <glyph glyph-name="eight" unicode="8" horiz-adv-x="444" 
d="M77 463v112q0 70 22.5 102.5t79.5 32.5h84q57 0 80 -32.5t23 -102.5v-112q0 -73 -37 -86q23 -2 42 -24.5t19 -75.5v-142q0 -70 -23 -102.5t-80 -32.5h-132q-57 0 -79.5 32.5t-22.5 102.5v142q0 53 20.5 75.5t47.5 24.5q-44 13 -44 86zM286 365h-130q-36 0 -58.5 -19
t-22.5 -71v-143q0 -58 17.5 -85t60.5 -27h136q43 0 60.5 26.5t17.5 85.5v143q0 90 -81 90zM177 690q-43 0 -60.5 -27t-17.5 -85v-112q0 -50 19 -65.5t67 -15.5h73q48 0 66.5 15.5t18.5 65.5v112q0 59 -17.5 85.5t-60.5 26.5h-88z" />
    <glyph glyph-name="nine" unicode="9" horiz-adv-x="411" 
d="M249 20q43 0 60.5 27t17.5 85v209h-182q-57 0 -79 32.5t-22 102.5v99q0 70 22.5 102.5t79.5 32.5h101q57 0 79.5 -32.5t22.5 -102.5v-440q0 -70 -22.5 -102.5t-79.5 -32.5h-103q-56 0 -78 32t-22 103v76h22v-79q0 -58 17.5 -85t60.5 -27h105zM144 690q-43 0 -60.5 -27
t-17.5 -85v-105q0 -58 17.5 -85t60.5 -27h183v217q0 58 -17.5 85t-60.5 27h-105z" />
    <glyph glyph-name="colon" unicode=":" horiz-adv-x="124" 
d="M49 -5v44h24v-44h-24zM49 436v44h24v-44h-24z" />
    <glyph glyph-name="semicolon" unicode=";" horiz-adv-x="131" 
d="M66 -101h-8l-4 144h25v-39zM52 330v44h24v-44h-24z" />
    <glyph glyph-name="less" unicode="&#x3c;" horiz-adv-x="313" 
d="M275 20l-256 276v20l256 276v-30l-234 -256l234 -256v-30z" />
    <glyph glyph-name="equal" unicode="=" horiz-adv-x="380" 
d="M64 376l2 20h250l-2 -20h-250zM64 176l2 20h250l-2 -20h-250z" />
    <glyph glyph-name="greater" unicode="&#x3e;" horiz-adv-x="313" 
d="M295 296l-256 -276v30l234 256l-234 256v30l256 -276v-20z" />
    <glyph glyph-name="question" unicode="?" horiz-adv-x="362" 
d="M269 356l-27 -14q-35 -18 -46 -39.5t-11 -67.5v-134h-22v134q0 54 13.5 80t52.5 45l32 16q31 16 41.5 37t10.5 60v104q0 64 -17.5 88.5t-63.5 24.5h-106q-81 0 -81 -108v-81h-22v80q0 68 25.5 98.5t79.5 30.5h109q51 0 74.5 -30.5t23.5 -98.5v-108q0 -47 -14.5 -72
t-51.5 -45zM162 -5v44h24v-44h-24z" />
    <glyph glyph-name="at" unicode="@" horiz-adv-x="572" 
d="M161 20h304l-3 -20h-298q-57 0 -79.5 32.5t-22.5 102.5v440q0 70 22.5 102.5t79.5 32.5h266q57 0 79.5 -32.5t22.5 -102.5v-274q0 -57 -19 -84t-59 -27h-18q-27 0 -42.5 14.5t-15.5 29.5q-11 -44 -74 -44h-36q-48 0 -67 27.5t-19 87.5v100q0 60 18.5 87.5t66.5 27.5h43
q47 0 66 -28t19 -87v-164q0 -10 11.5 -20.5t31.5 -10.5h16q56 0 56 92v276q0 58 -17 85t-60 27h-272q-42 0 -59.5 -26.5t-17.5 -85.5v-446q0 -58 17.5 -85t59.5 -27zM266 210h38q38 0 54 20t16 62v116q0 47 -14 69.5t-48 22.5h-46q-34 0 -48 -22t-14 -70v-106
q0 -47 14 -69.5t48 -22.5z" />
    <glyph glyph-name="A" unicode="A" horiz-adv-x="412" 
d="M191 710h29l170 -710h-24l-40 170h-242l-40 -170h-23zM206 689l-118 -499h234z" />
    <glyph glyph-name="B" unicode="B" horiz-adv-x="424" 
d="M58 0v710h166q133 0 133 -135v-84q0 -103 -71 -120q100 -12 100 -149v-87q0 -135 -122 -135h-206zM80 359v-339h183q100 0 100 114v88q0 72 -30 104.5t-96 32.5h-157zM80 690v-311h158q97 0 97 109v85q0 62 -28 89.5t-89 27.5h-138z" />
    <glyph glyph-name="C" unicode="C" horiz-adv-x="436" 
d="M154 20h143q43 0 60.5 26.5t17.5 85.5v79h23v-76q0 -70 -22.5 -102.5t-79.5 -32.5h-140q-57 0 -79.5 32.5t-22.5 102.5v440q0 70 22.5 102.5t79.5 32.5h140q57 0 79.5 -32.5t22.5 -102.5v-74h-23v77q0 59 -17.5 85.5t-60.5 26.5h-143q-43 0 -60.5 -27t-17.5 -85v-446
q0 -58 17.5 -85t60.5 -27z" />
    <glyph glyph-name="D" unicode="D" horiz-adv-x="457" 
d="M58 0v710h214q69 0 100 -40t31 -125v-380q0 -85 -31 -125t-100 -40h-214zM275 20q56 0 80.5 34t24.5 108v386q0 74 -24.5 108t-80.5 34h-195v-670h195z" />
    <glyph glyph-name="E" unicode="E" horiz-adv-x="373" 
d="M80 690v-382h230l-3 -20h-227v-268h271l-3 -20h-290v710h291l-3 -20h-266z" />
    <glyph glyph-name="F" unicode="F" horiz-adv-x="366" 
d="M80 690v-382h214l-3 -20h-211v-288h-22v710h290l-3 -20h-265z" />
    <glyph glyph-name="G" unicode="G" horiz-adv-x="442" 
d="M219 304l3 20h172v-189q0 -68 -21.5 -101.5t-76.5 -33.5h-145q-97 0 -97 124v451q0 135 87 135h162q96 0 96 -125v-84h-22v80q0 57 -18.5 83t-58.5 26h-150q-40 0 -57 -28t-17 -91v-442q0 -57 19 -83t60 -26h136q43 0 62 25t19 77v182h-153z" />
    <glyph glyph-name="H" unicode="H" horiz-adv-x="452" 
d="M80 0h-22v710h22v-412h291v412h23v-710h-23v278h-291v-278z" />
    <glyph glyph-name="I" unicode="I" 
d="M80 0h-22v710h22v-710z" />
    <glyph glyph-name="J" unicode="J" horiz-adv-x="244" 
d="M88 20q40 0 58.5 26t18.5 83v581h22v-584q0 -126 -98 -126h-77l3 20h73z" />
    <glyph glyph-name="K" unicode="K" horiz-adv-x="357" 
d="M80 0h-22v710h22v-344l249 344h25l-254 -355l256 -355h-26l-250 344v-344z" />
    <glyph glyph-name="L" unicode="L" horiz-adv-x="351" 
d="M80 710v-690h261l-3 -20h-280v710h22z" />
    <glyph glyph-name="M" unicode="M" horiz-adv-x="510" 
d="M80 0h-22v710h33l164 -398l163 398h34v-710h-22v679l-164 -389h-22l-164 387v-677z" />
    <glyph glyph-name="N" unicode="N" horiz-adv-x="465" 
d="M80 0h-22v710h22l266 -582q11 -25 38 -90v672h23v-710h-23l-255 559q-13 29 -30.5 70.5t-18.5 44.5v-674z" />
    <glyph glyph-name="O" unicode="O" horiz-adv-x="461" 
d="M54 135v440q0 70 22.5 102.5t79.5 32.5h148q57 0 80 -32.5t23 -102.5v-440q0 -70 -23 -102.5t-80 -32.5h-148q-57 0 -79.5 32.5t-22.5 102.5zM154 690q-43 0 -60.5 -27t-17.5 -85v-446q0 -58 17.5 -85t60.5 -27h152q43 0 60.5 26.5t17.5 85.5v446q0 59 -17.5 85.5
t-60.5 26.5h-152z" />
    <glyph glyph-name="P" unicode="P" horiz-adv-x="402" 
d="M80 318v-318h-22v710h215q96 0 96 -125v-142q0 -125 -96 -125h-193zM80 690v-352h189q41 0 59.5 26t18.5 83v134q0 57 -18.5 83t-59.5 26h-189z" />
    <glyph glyph-name="Q" unicode="Q" horiz-adv-x="461" 
d="M54 135v440q0 70 22.5 102.5t79.5 32.5h148q57 0 80 -32.5t23 -102.5v-440q0 -70 -23 -102.5t-80 -32.5h-66v-122h-22v122h-60q-57 0 -79.5 32.5t-22.5 102.5zM154 20h62v111h22v-111h68q43 0 60.5 26.5t17.5 85.5v446q0 59 -17.5 85.5t-60.5 26.5h-152q-43 0 -60.5 -27
t-17.5 -85v-446q0 -58 17.5 -85t60.5 -27z" />
    <glyph glyph-name="R" unicode="R" horiz-adv-x="409" 
d="M58 0v710h195q109 0 109 -135v-132q0 -135 -109 -135h-27l172 -308h-26l-173 308h-119v-308h-22zM80 690v-362h174q44 0 64.5 28.5t20.5 90.5v124q0 62 -20.5 90.5t-64.5 28.5h-174z" />
    <glyph glyph-name="S" unicode="S" horiz-adv-x="406" 
d="M287 314l-174 92q-38 20 -52.5 45t-14.5 72v58q0 68 23.5 98.5t74.5 30.5h109q54 0 79.5 -30.5t25.5 -98.5v-80h-22v81q0 108 -81 108h-106q-45 0 -63 -25t-18 -88v-54q0 -38 11 -58.5t42 -37.5l177 -93q40 -21 54 -46.5t14 -78.5v-84q0 -125 -94 -125h-132
q-54 0 -78 30.5t-24 94.5v86h22v-86q0 -55 18.5 -80t59.5 -25h128q41 0 59.5 25t18.5 80v84q0 45 -11 65.5t-46 39.5z" />
    <glyph glyph-name="T" unicode="T" horiz-adv-x="337" 
d="M327 690h-147v-690h-22v690h-148v20h317v-20z" />
    <glyph glyph-name="U" unicode="U" horiz-adv-x="447" 
d="M277 20q48 0 69.5 30.5t21.5 98.5v561h23v-564q0 -74 -27 -110t-86 -36h-109q-59 0 -86 36t-27 110v564h22v-561q0 -67 22 -98t70 -31h107z" />
    <glyph glyph-name="V" unicode="V" horiz-adv-x="402" 
d="M216 0h-29l-162 710h24l146 -657l6 -33q0 5 1 10.5t2.5 12t2.5 10.5l146 657h24z" />
    <glyph glyph-name="W" unicode="W" horiz-adv-x="645" 
d="M206 0h-30l-150 710h23l130 -628q9 -48 11 -61q3 29 9 60l111 629h25l112 -629q6 -30 9 -60q2 18 10 59l130 630h23l-150 -710h-29l-113 643q-4 24 -4 39q-3 -30 -4 -39z" />
    <glyph glyph-name="X" unicode="X" horiz-adv-x="346" 
d="M174 366l140 344h22l-144 -356l142 -354h-23l-137 341l-138 -341h-24l143 354l-145 356h23z" />
    <glyph glyph-name="Y" unicode="Y" horiz-adv-x="392" 
d="M207 0h-22v306l-165 404h24l134 -335q16 -41 18 -53q4 18 18 52l134 336h23l-164 -404v-306z" />
    <glyph glyph-name="Z" unicode="Z" horiz-adv-x="342" 
d="M322 690l-281 -670h289l-3 -20h-309l-3 20l281 670h-276l-4 20h303z" />
    <glyph glyph-name="bracketleft" unicode="[" horiz-adv-x="168" 
d="M88 -106h53l2 -20h-77v836h69l2 -20h-49v-796z" />
    <glyph glyph-name="backslash" unicode="\" horiz-adv-x="459" 
d="M187 740h22l234 -770h-23z" />
    <glyph glyph-name="bracketright" unicode="]" horiz-adv-x="168" 
d="M80 690h-53l-2 20h77v-836h-69l-2 20h49v796z" />
    <glyph glyph-name="asciicircum" unicode="^" horiz-adv-x="400" 
d="M22 390l165 320h18l173 -320h-29l-153 297l-146 -297h-28z" />
    <glyph glyph-name="underscore" unicode="_" horiz-adv-x="471" 
d="M423 0l-3 -20h-371l3 20h371z" />
    <glyph glyph-name="grave" unicode="`" horiz-adv-x="81" 
d="M-41 720h28l71 -96h-20z" />
    <glyph glyph-name="a" unicode="a" horiz-adv-x="351" 
d="M278 0l-1 55q-16 -55 -95 -55h-44q-52 0 -76 24t-24 81v73q0 105 100 105h139v133q0 41 -13 58.5t-42 17.5h-97q-57 0 -57 -75v-25h-22v25q0 94 78 94h100q75 0 75 -95v-416h-21zM139 20h46q48 0 70 26.5t22 88.5v128h-138q-79 0 -79 -84v-74q0 -50 19.5 -67.5
t59.5 -17.5z" />
    <glyph glyph-name="b" unicode="b" horiz-adv-x="366" 
d="M157 0q-61 0 -82 54v-54h-22v736l17 4h5v-286q21 57 80 57h61q55 0 77.5 -32.5t22.5 -96.5v-253q0 -65 -22 -97t-74 -32h-63zM75 396v-268q0 -51 22 -79.5t56 -28.5h66q75 0 75 106v250q0 65 -18.5 90t-66.5 25h-56q-34 0 -55 -25.5t-23 -69.5z" />
    <glyph glyph-name="c" unicode="c" horiz-adv-x="346" 
d="M207 491h-57q-43 0 -60.5 -27t-17.5 -85v-248q0 -61 18.5 -86t59.5 -25h56q46 0 62.5 21.5t16.5 78.5v40h22v-45q0 -63 -22.5 -89t-75.5 -26h-58q-54 0 -77.5 30.5t-23.5 94.5v251q0 70 22.5 102.5t79.5 32.5h54q56 0 78.5 -32.5t22.5 -102.5v-35h-22v38q0 59 -17.5 85.5
t-60.5 26.5z" />
    <glyph glyph-name="d" unicode="d" horiz-adv-x="366" 
d="M313 740v-740h-21l-1 58q-24 -58 -81 -58h-63q-52 0 -74.5 32t-22.5 97v253q0 65 22.5 97t78.5 32h60q57 0 80 -54v279l17 4h5zM213 20q33 0 55 26.5t23 75.5v274q-2 44 -23 69.5t-55 25.5h-63q-39 0 -58.5 -24.5t-19.5 -80.5v-260q0 -106 75 -106h66z" />
    <glyph glyph-name="e" unicode="e" horiz-adv-x="348" 
d="M152 20h57q43 0 60.5 27t17.5 85v18h22v-15q0 -69 -23 -102t-80 -33h-53q-57 0 -80 32.5t-23 102.5v264q0 58 23 85t80 27h51q57 0 79.5 -27t22.5 -85v-55q0 -56 -22 -81.5t-81 -25.5h-131v-105q0 -57 17.5 -84.5t62.5 -27.5zM208 491h-59q-42 0 -59.5 -22.5t-17.5 -69.5
v-142h131q47 0 64.5 20.5t17.5 66.5v55q0 47 -17.5 69.5t-59.5 22.5z" />
    <glyph glyph-name="f" unicode="f" horiz-adv-x="188" 
d="M175 720q-40 0 -58 -26t-18 -83v-106h85l-4 -20h-81v-485h-22v485h-68l4 20h64v109q0 126 98 126h43l-5 -20h-38z" />
    <glyph glyph-name="g" unicode="g" horiz-adv-x="360" 
d="M149 79h96q56 0 78.5 -30t22.5 -95v-46q0 -65 -23 -95t-80 -30h-108q-57 0 -80 30t-23 95v46q0 52 13.5 81t46.5 39q-16 11 -16 41v5q0 34 23 43q-51 24 -51 126v81q0 69 22.5 102t79.5 33h45q41 0 65 -19l54 60l14 -15l-53 -60q22 -32 22 -101v-81q0 -70 -23 -102.5
t-80 -32.5h-45q-30 0 -40.5 -6.5t-10.5 -28.5v-4q0 -22 11 -29t40 -7zM132 59q-43 0 -60.5 -24.5t-17.5 -77.5v-52q0 -53 17.5 -77.5t60.5 -24.5h114q43 0 60.5 24.5t17.5 77.5v52q0 53 -17.5 77.5t-60.5 24.5h-114zM148 485q-43 0 -60.5 -26.5t-17.5 -85.5v-87
q0 -58 18 -85t60 -27h50q42 0 59.5 27t17.5 85v87q0 59 -17.5 85.5t-59.5 26.5h-50z" />
    <glyph glyph-name="h" unicode="h" horiz-adv-x="357" 
d="M75 412v-412h-22v736l17 4h5v-282q25 53 79 53h54q52 0 75 -30.5t23 -94.5v-386h-22v386q0 56 -19 80.5t-59 24.5h-53q-34 0 -55 -25.5t-23 -53.5z" />
    <glyph glyph-name="i" unicode="i" horiz-adv-x="133" 
d="M58 485h-41v20h63v-505h-22v485zM54 666v44h24v-44h-24z" />
    <glyph glyph-name="j" unicode="j" horiz-adv-x="133" 
d="M58 485h-41v20h63v-564q0 -106 -81 -106h-21l3 20h16q32 0 46.5 21t14.5 68v541zM56 666v44h24v-44h-24z" />
    <glyph glyph-name="k" unicode="k" horiz-adv-x="290" 
d="M276 505l-183 -253l182 -252h-26l-174 239v-239h-22v736l17 4h5v-476l174 241h27z" />
    <glyph glyph-name="l" unicode="l" horiz-adv-x="145" 
d="M121 19h19l1 -20h-22q-66 0 -66 96v641l17 4h5v-642q0 -42 10.5 -60.5t35.5 -18.5z" />
    <glyph glyph-name="m" unicode="m" horiz-adv-x="564" 
d="M53 0v501l16 4h6v-41q30 41 90 41h33q65 0 86 -51q32 51 98 51h33q52 0 75 -30.5t23 -94.5v-380h-22v380q0 56 -19 80.5t-59 24.5h-35q-35 0 -59 -19t-27 -39q4 -28 4 -47v-380h-22v380q0 56 -19 80.5t-59 24.5h-35q-36 0 -59.5 -19t-26.5 -39v-427h-22z" />
    <glyph glyph-name="n" unicode="n" horiz-adv-x="357" 
d="M53 0v501l16 4h6v-47q25 53 79 53h54q52 0 75 -30.5t23 -94.5v-386h-22v386q0 56 -19 80.5t-59 24.5h-53q-34 0 -54.5 -24.5t-23.5 -52.5v-414h-22z" />
    <glyph glyph-name="o" unicode="o" horiz-adv-x="364" 
d="M50 376q0 70 23 102.5t79 32.5h60q56 0 79 -32.5t23 -102.5v-251q0 -63 -24 -94t-77 -31h-62q-53 0 -77 31t-24 94v251zM214 491h-64q-43 0 -60.5 -27t-17.5 -85v-248q0 -61 18.5 -86t59.5 -25h64q41 0 59.5 25t18.5 86v248q0 58 -17.5 85t-60.5 27z" />
    <glyph glyph-name="p" unicode="p" horiz-adv-x="366" 
d="M75 54v-274h-22v721l16 4h6v-51q21 57 80 57h61q55 0 77.5 -32.5t22.5 -96.5v-253q0 -65 -22 -97t-74 -32h-63q-61 0 -82 54zM153 491q-34 0 -55 -25.5t-23 -69.5v-268q0 -51 22 -79.5t56 -28.5h66q75 0 75 106v250q0 65 -18.5 90t-66.5 25h-56z" />
    <glyph glyph-name="q" unicode="q" horiz-adv-x="367" 
d="M291 0v57q-24 -57 -81 -57h-63q-52 0 -74.5 32t-22.5 97v253q0 65 22.5 97t78.5 32h60q60 0 81 -57v51h21v-482h1v-243h-22v220h-1zM213 20q34 0 56 28.5t22 79.5v259q0 49 -21 76.5t-57 27.5h-63q-39 0 -58.5 -24.5t-19.5 -80.5v-260q0 -106 75 -106h66z" />
    <glyph glyph-name="r" unicode="r" horiz-adv-x="221" 
d="M214 492l-94 -43q-45 -22 -45 -79v-370h-22v501l16 4h6v-72q10 21 40 36l90 42h7z" />
    <glyph glyph-name="s" unicode="s" horiz-adv-x="319" 
d="M183 491h-49q-38 0 -53.5 -20t-15.5 -62v-23q0 -30 8.5 -47.5t19 -24.5t37.5 -20l88 -41q32 -15 48 -37.5t16 -70.5v-40q0 -54 -20.5 -79.5t-73.5 -25.5h-59q-53 0 -73.5 27.5t-20.5 87.5v34h22v-37q0 -49 15.5 -70.5t53.5 -21.5h65q38 0 54 20t16 62v42q0 39 -12 58.5
t-41 33.5l-85 39q-31 14 -44.5 23t-24.5 31.5t-11 59.5v17q0 54 20.5 79.5t73.5 25.5h43q53 0 73.5 -27.5t20.5 -87.5v-25h-21v28q0 47 -16 69.5t-54 22.5z" />
    <glyph glyph-name="t" unicode="t" horiz-adv-x="206" 
d="M183 505l-2 -20h-86v-356q0 -109 76 -109h32l2 -20h-35q-97 0 -97 126v359h-63l2 20h61v136l17 4h5v-140h88z" />
    <glyph glyph-name="u" unicode="u" horiz-adv-x="355" 
d="M302 505v-505h-21l-1 54q-28 -54 -89 -54h-42q-52 0 -75 30.5t-23 94.5v380h22v-380q0 -56 19 -80.5t59 -24.5h43q36 0 60 26t26 53v406h22z" />
    <glyph glyph-name="v" unicode="v" horiz-adv-x="327" 
d="M179 0h-30l-124 505h23l116 -485l114 485h23z" />
    <glyph glyph-name="w" unicode="w" horiz-adv-x="523" 
d="M172 0h-30l-116 505h24l107 -485l91 485h27l91 -485l107 485h24l-116 -505h-30l-83 435q-6 24 -7 38q-2 -20 -6 -38z" />
    <glyph glyph-name="x" unicode="x" horiz-adv-x="310" 
d="M156 261l112 244h24l-121 -258l123 -247h-24l-114 231l-115 -231h-25l124 247l-122 258h25z" />
    <glyph glyph-name="y" unicode="y" horiz-adv-x="332" 
d="M49 -205q61 0 79 72l30 122h-6l-127 516h23l118 -481l118 481h24l-160 -639q-11 -45 -31 -68t-67 -23h-39l3 20h35z" />
    <glyph glyph-name="z" unicode="z" horiz-adv-x="297" 
d="M271 485l-224 -465h230l-3 -20h-249l-3 20l223 465h-219l-2 20h244z" />
    <glyph glyph-name="braceleft" unicode="{" horiz-adv-x="235" 
d="M198 -106h18l2 -20h-20q-29 0 -47.5 10t-29 24t-15 46t-5.5 56t-1 75v85q0 56 -16.5 84t-57.5 28h-14v20h10q44 0 61 26.5t17 85.5v147q0 85 21 117t77 32h12l2 -20h-14q-44 0 -60 -29t-16 -100v-144q0 -102 -48 -125q48 -24 48 -125v-164q0 -56 17.5 -82.5t58.5 -26.5z
" />
    <glyph glyph-name="bar" unicode="|" horiz-adv-x="150" 
d="M86 -250h-22v1023l17 4h5v-1027z" />
    <glyph glyph-name="braceright" unicode="}" horiz-adv-x="235" 
d="M19 -106h17q41 0 59 26t18 83v164q0 101 48 125q-48 23 -48 125v144q0 71 -16 100t-61 29h-13l2 20h12q56 0 76.5 -32t20.5 -117v-147q0 -59 17 -85.5t61 -26.5h11v-20h-14q-41 0 -57.5 -28t-16.5 -84v-85q0 -42 -0.5 -63t-3.5 -50.5t-9 -43.5t-16.5 -28.5t-27.5 -20
t-41 -5.5h-20z" />
    <glyph glyph-name="asciitilde" unicode="~" horiz-adv-x="267" 
d="M217 315v-24q-22 33 -42 33q-14 0 -39.5 -22.5t-39.5 -22.5q-26 0 -46 30v24q22 -33 42 -33q14 0 39.5 22.5t39.5 22.5q25 0 46 -30z" />
    <glyph glyph-name="exclamdown" unicode="&#xa1;" horiz-adv-x="142" 
d="M60 410h22v-676l-17 -4h-5v680zM59 469v44h24v-44h-24z" />
    <glyph glyph-name="cent" unicode="&#xa2;" horiz-adv-x="343" 
d="M197 577v-66h6q56 0 79 -32.5t23 -102.5v-35h-21v38q0 57 -17.5 84.5t-60.5 27.5h-49q-43 0 -61 -26.5t-18 -85.5v-248q0 -60 18.5 -85.5t60.5 -25.5h48q47 0 63 30t16 110h21v-35q0 -125 -98 -125h-10v-60h-22v60h-19q-53 0 -76.5 30.5t-23.5 94.5v251q0 70 23 102.5
t80 32.5h16v62l16 4h6z" />
    <glyph glyph-name="sterling" unicode="&#xa3;" horiz-adv-x="399" 
d="M243 346l-3 -20h-111q-7 -162 -73 -306h320l-3 -20h-342v20q30 63 46 118q24 86 29 188h-83l3 20h81v30q0 27 -2 83q-1 24 -4 55t-3 37q0 86 20.5 122.5t82.5 36.5h46q57 0 79.5 -32.5t22.5 -102.5v-44h-22v47q0 58 -17.5 85t-60.5 27h-50q-43 0 -60.5 -27t-17.5 -85v-16
q0 -15 4.5 -79t4.5 -107q0 -20 -1 -30h114z" />
    <glyph glyph-name="currency" unicode="&#xa4;" horiz-adv-x="371" 
d="M294 125l-32 37l-31 -38q-25 -31 -48 -31q-18 0 -38 23l-39 47l-30 -35l-14 15l31 36l-35 44q-20 25 -20 50q0 27 24 57l33 40l-31 38l15 15l29 -37l30 37q25 31 49 31q19 0 39 -23l35 -44l30 35l15 -15l-31 -37l39 -47q18 -22 18 -47q0 -29 -25 -60l-31 -37l33 -39z
M208 127l94 116q11 14 11 30q0 15 -11 29l-94 118q-23 28 -46 -1l-93 -117q-11 -14 -11 -29t11 -28l95 -118q23 -28 44 0z" />
    <glyph glyph-name="yen" unicode="&#xa5;" horiz-adv-x="340" 
d="M181 0h-23v246h-111l3 20h108v60h-111l3 20h108v1l-139 363h24l127 -342l126 342h24l-139 -364h117l-3 -20h-114v-60h117l-3 -20h-114v-246z" />
    <glyph glyph-name="brokenbar" unicode="&#xa6;" horiz-adv-x="154" 
d="M88 -250h-22v399h22v-399zM88 777v-413h-22v409l17 4h5z" />
    <glyph glyph-name="section" unicode="&#xa7;" horiz-adv-x="363" 
d="M325 311v-101q0 -70 -19.5 -100.5t-67.5 -30.5h-32l18 -7q37 -14 56.5 -37.5t19.5 -68.5v-46q0 -60 -21.5 -87.5t-72.5 -27.5h-49q-57 0 -79.5 30t-22.5 93v48h21v-52q0 -50 17.5 -74.5t60.5 -24.5h54q38 0 54.5 24t16.5 73v43q0 37 -14.5 53t-54.5 34l-110 49
q-26 12 -37 20t-18 27.5t-7 55.5v101q0 70 19.5 100.5t67.5 30.5h32l-18 7q-37 14 -56.5 37.5t-19.5 68.5v46q0 60 21.5 87.5t72.5 27.5h49q57 0 79.5 -30t22.5 -93v-48h-21v52q0 50 -17.5 74.5t-60.5 24.5h-55q-38 0 -54 -24t-16 -73v-43q0 -37 14.5 -53t54.5 -34l110 -49
q26 -12 37 -20t18 -27.5t7 -55.5zM107 122l45 -20l80 -2q39 -1 55.5 25t16.5 81v103q0 38 -10 54.5t-39 29.5l-44 20l-80 2q-39 1 -55.5 -25t-16.5 -81v-103q0 -39 9.5 -55t38.5 -29z" />
    <glyph glyph-name="dieresis" unicode="&#xa8;" horiz-adv-x="666" 
d="M257 679h22v-36h-22v36zM353 679h22v-36h-22v36z" />
    <glyph glyph-name="copyright" unicode="&#xa9;" horiz-adv-x="566" 
d="M506 545v-380q0 -135 -124 -135h-198q-124 0 -124 135v380q0 135 124 135h198q124 0 124 -135zM184 50h198q53 0 78 31t25 98v362q0 62 -25 90.5t-78 28.5h-198q-53 0 -78 -28.5t-25 -90.5v-362q0 -67 25 -98t78 -31zM308 499h-51q-26 0 -38 -13t-12 -41v-180
q0 -55 50 -55h62q20 0 28.5 18t8.5 65h18v-4q0 -99 -57 -99h-61q-70 0 -70 81v167q0 81 70 81h54q64 0 64 -81v-28h-20v29q0 33 -11.5 46.5t-34.5 13.5z" />
    <glyph glyph-name="ordfeminine" unicode="&#xaa;" horiz-adv-x="233" 
d="M167 429v20q-15 -20 -45 -20h-27q-55 0 -55 59v50q0 27 11.5 45t35.5 18h79v38q0 53 -25 53h-46q-16 0 -22.5 -12t-6.5 -41v-21h-18v23q0 69 47 69h47q43 0 43 -69v-212h-18zM95 447h29q21 0 31.5 12.5t10.5 30.5v93h-80q-11 0 -19.5 -10.5t-8.5 -26.5v-62q0 -37 37 -37z
" />
    <glyph glyph-name="guillemotleft" unicode="&#xab;" horiz-adv-x="285" 
d="M163 69h-27l-105 183l105 183h27l-105 -183zM248 69h-28l-105 183l105 183h28l-105 -183z" />
    <glyph glyph-name="logicalnot" unicode="&#xac;" horiz-adv-x="427" 
d="M356 267v17h-303v20h325v-37h-22z" />
    <glyph glyph-name="registered" unicode="&#xae;" horiz-adv-x="566" 
d="M506 545v-380q0 -135 -124 -135h-198q-124 0 -124 135v380q0 135 124 135h198q124 0 124 -135zM184 50h198q53 0 78 31t25 98v362q0 62 -25 90.5t-78 28.5h-198q-53 0 -78 -28.5t-25 -90.5v-362q0 -67 25 -98t78 -31zM203 190v329h102q58 0 58 -62v-69q0 -30 -14 -45
t-36 -15l62 -138h-23l-61 135h-68v-135h-20zM223 499v-154h79q41 0 41 43v70q0 41 -41 41h-79z" />
    <glyph glyph-name="macron" unicode="&#xaf;" horiz-adv-x="250" 
d="M204 760l-3 -20h-157l3 20h157z" />
    <glyph glyph-name="degree" unicode="&#xb0;" horiz-adv-x="214" 
d="M94 744h26q56 0 56 -62v-41q0 -62 -56 -62h-26q-56 0 -56 62v41q0 62 56 62zM118 598q40 0 40 41v45q0 41 -41 41h-20q-41 0 -41 -41v-45q0 -41 42 -41h20z" />
    <glyph glyph-name="plusminus" unicode="&#xb1;" horiz-adv-x="384" 
d="M50 381l3 20h127v154h23v-154h132l-4 -20h-128v-158h-23v158h-130zM49 58l3 20h282l-4 -20h-281z" />
    <glyph glyph-name="twosuperior" unicode="&#xb2;" horiz-adv-x="231" 
d="M139 690h-38q-39 0 -39 -43v-9h-19v10q0 62 58 62h37q25 0 39 -15.5t14 -42.5v-5q0 -32 -32 -62l-69 -62q-28 -28 -28 -74h72q21 0 29.5 10t8.5 33v9h19v-9q0 -63 -58 -63h-90v20q0 26 6 44t12 25.5t21 21.5l68 64q21 19 21 47q0 39 -32 39z" />
    <glyph glyph-name="threesuperior" unicode="&#xb3;" horiz-adv-x="227" 
d="M125 449q48 0 48 59q0 28 -16.5 40.5t-37.5 12.5h-22l2 20h29q31 0 31 56q0 53 -49 53h-5q-41 0 -41 -43v-9h-20v9q0 63 59 63h10q66 0 66 -73v-11q0 -42 -25 -57q16 -5 26.5 -21.5t10.5 -36.5v-6q0 -76 -66 -76h-30q-58 0 -58 65v7h19v-7q0 -45 39 -45h30z" />
    <glyph glyph-name="acute" unicode="&#xb4;" horiz-adv-x="415" 
d="M78 624h-21l63 106h28z" />
    <glyph glyph-name="mu" unicode="&#xb5;" horiz-adv-x="352" 
d="M301 505v-505h-20l-1 54q-28 -54 -89 -54h-42q-54 0 -76 32v-171h-22v644h22v-380q0 -56 19 -80.5t59 -24.5h43q36 0 60 26t26 53v27h-1v379h22z" />
    <glyph glyph-name="paragraph" unicode="&#xb6;" horiz-adv-x="427" 
d="M340 -171v749q0 58 -17.5 85t-60.5 27h-22v-861h-23v506h-94q-57 0 -79.5 32.5t-22.5 102.5v105q0 70 22.5 102.5t79.5 32.5h137q57 0 79.5 -32.5t22.5 -102.5v-746h-22zM121 355h96v335h-96q-43 0 -60.5 -27t-17.5 -85v-111q0 -58 17.5 -85t60.5 -27z" />
    <glyph glyph-name="periodcentered" unicode="&#xb7;" horiz-adv-x="122" 
d="M49 271v44h24v-44h-24z" />
    <glyph glyph-name="cedilla" unicode="&#xb8;" horiz-adv-x="666" 
d="M304 -64l-15 2q-22 3 -22 36v39h20v-32q0 -21 11 -23l21 -4q26 -5 26 -43v-13q0 -52 -47 -52h-15q-45 0 -45 46v14h19v-13q0 -28 25 -28h16q28 0 28 30v13q0 25 -22 28z" />
    <glyph glyph-name="onesuperior" unicode="&#xb9;" horiz-adv-x="136" 
d="M34 690h-11l-3 20h10q58 0 58 -63v-218h-20v219q0 42 -34 42z" />
    <glyph glyph-name="ordmasculine" unicode="&#xba;" horiz-adv-x="241" 
d="M44 492v155q0 63 58 63h37q58 0 58 -63v-155q0 -63 -58 -63h-37q-58 0 -58 63zM102 449h38q20 0 28.5 10t8.5 33v155q0 23 -8 33t-29 10h-38q-21 0 -30 -10t-9 -33v-155q0 -23 9 -33t30 -10z" />
    <glyph glyph-name="guillemotright" unicode="&#xbb;" horiz-adv-x="285" 
d="M64 69h-27l105 183l-105 183h27l105 -183zM149 69h-28l105 183l-105 183h28l105 -183z" />
    <glyph glyph-name="onequarter" unicode="&#xbc;" horiz-adv-x="465" 
d="M82 0l254 710h22l-254 -710h-22zM35 684h-15l-4 26h13q76 0 76 -82v-287h-26v288q0 55 -44 55zM253 82v77q0 32 17 57l107 153h30l-116 -170q-13 -19 -13 -50v-41h97v75l19 5h6v-80h42l-2 -26h-40v-82h-25v82h-122z" />
    <glyph glyph-name="onehalf" unicode="&#xbd;" horiz-adv-x="528" 
d="M82 0l254 710h22l-254 -710h-22zM35 684h-15l-4 26h13q76 0 76 -82v-287h-26v288q0 55 -44 55zM426 343h-50q-51 0 -51 -56v-12h-25v13q0 81 76 81h49q32 0 50.5 -20.5t18.5 -55.5v-6q0 -43 -42 -82l-91 -81q-36 -38 -36 -97h94q27 0 38.5 13t11.5 43v12h25v-12
q0 -83 -76 -83h-118v27q0 34 8 57.5t16 34t27 27.5l89 84q28 26 28 62q0 51 -42 51z" />
    <glyph glyph-name="threequarters" unicode="&#xbe;" horiz-adv-x="549" 
d="M167 0l254 710h22l-254 -710h-22zM339 82v77q0 32 17 57l107 153h30l-116 -170q-13 -19 -13 -50v-41h97v75l19 5h6v-80h42l-2 -26h-40v-82h-25v82h-122zM142 368q63 0 63 77q0 37 -21.5 53.5t-49.5 16.5h-29l3 26h38q41 0 41 73q0 37 -15.5 53.5t-48.5 16.5h-7
q-28 0 -41 -13.5t-13 -42.5v-12h-26v12q0 82 77 82h14q86 0 86 -96v-14q0 -54 -33 -75q22 -7 35.5 -28.5t13.5 -47.5v-8q0 -100 -87 -100h-39q-76 0 -76 86v9h25v-9q0 -31 11.5 -45t39.5 -14h39z" />
    <glyph glyph-name="questiondown" unicode="&#xbf;" horiz-adv-x="358" 
d="M118 68l-27 -14q-37 -19 -51.5 -44.5t-14.5 -72.5v-108q0 -68 23.5 -98.5t74.5 -30.5h109q54 0 79.5 30.5t25.5 98.5v80h-22v-81q0 -108 -81 -108h-106q-45 0 -63 25t-18 88v104q0 38 11 59.5t42 37.5l31 16q38 20 52 46t14 79v134h-22v-134q0 -46 -11 -67.5t-46 -39.5z
M166 461v44h24v-44h-24z" />
    <glyph glyph-name="Agrave" unicode="&#xc0;" horiz-adv-x="412" 
d="M191 710h29l170 -710h-24l-40 170h-242l-40 -170h-23zM206 689l-118 -499h234zM130 845h28l71 -96h-20z" />
    <glyph glyph-name="Aacute" unicode="&#xc1;" horiz-adv-x="412" 
d="M191 710h29l170 -710h-24l-40 170h-242l-40 -170h-23zM206 689l-118 -499h234zM201 749h-21l63 106h28z" />
    <glyph glyph-name="Acircumflex" unicode="&#xc2;" horiz-adv-x="412" 
d="M191 710h29l170 -710h-24l-40 170h-242l-40 -170h-23zM206 689l-118 -499h234zM196 839h19l76 -90h-26l-57 70h-6l-56 -70h-26z" />
    <glyph glyph-name="Atilde" unicode="&#xc3;" horiz-adv-x="412" 
d="M191 710h29l170 -710h-24l-40 170h-242l-40 -170h-23zM206 689l-118 -499h234zM246 817q20 0 28.5 -9t8.5 -30v-20h-18v22q0 18 -20 18q-16 0 -25 -11l-20 -25q-11 -14 -35 -14q-23 0 -30 8.5t-7 30.5v20h18v-22q0 -10 3.5 -14t16.5 -4q8 0 13 2t7.5 4.5t8.5 10.5l15 19
q11 14 36 14z" />
    <glyph glyph-name="Adieresis" unicode="&#xc4;" horiz-adv-x="412" 
d="M191 710h29l170 -710h-24l-40 170h-242l-40 -170h-23zM206 689l-118 -499h234zM146 775h22v-36h-22v36zM242 775h22v-36h-22v36z" />
    <glyph glyph-name="Aring" unicode="&#xc5;" horiz-adv-x="411" 
d="M190 710h29l170 -710h-24l-40 170h-242l-40 -170h-23zM205 689l-118 -499h234zM198 884h13q61 0 61 -62v-21q0 -62 -61 -62h-13q-61 0 -61 62v21q0 62 61 62zM253 799v25q0 40 -38 40h-21q-39 0 -39 -40v-25q0 -40 39 -40h21q38 0 38 40z" />
    <glyph glyph-name="AE" unicode="&#xc6;" horiz-adv-x="639" 
d="M625 710l-3 -20h-282l35 -390h196l-3 -20h-191l23 -260h213l-4 -20h-229l-15 166h-263l-72 -166h-29l315 710h309zM320 668l-210 -482h253z" />
    <glyph glyph-name="Ccedilla" unicode="&#xc7;" horiz-adv-x="436" 
d="M252 -64l-15 2q-22 3 -22 36v26h-59q-57 0 -79.5 32.5t-22.5 102.5v440q0 70 22.5 102.5t79.5 32.5h140q57 0 79.5 -32.5t22.5 -102.5v-74h-23v77q0 59 -17.5 85.5t-60.5 26.5h-143q-43 0 -60.5 -27t-17.5 -85v-446q0 -58 17.5 -85t60.5 -27h143q43 0 60.5 26.5
t17.5 85.5v79h23v-76q0 -70 -22.5 -102.5t-79.5 -32.5h-61v-19q0 -21 11 -23l21 -4q26 -5 26 -43v-13q0 -52 -47 -52h-15q-45 0 -45 46v14h19v-13q0 -28 25 -28h16q28 0 28 30v13q0 25 -22 28z" />
    <glyph glyph-name="Egrave" unicode="&#xc8;" horiz-adv-x="373" 
d="M80 690v-382h230l-3 -20h-227v-268h271l-3 -20h-290v710h291l-3 -20h-266zM134 845h28l71 -96h-20z" />
    <glyph glyph-name="Eacute" unicode="&#xc9;" horiz-adv-x="373" 
d="M80 690v-382h230l-3 -20h-227v-268h271l-3 -20h-290v710h291l-3 -20h-266zM205 749h-21l63 106h28z" />
    <glyph glyph-name="Ecircumflex" unicode="&#xca;" horiz-adv-x="372" 
d="M80 690v-382h230l-3 -20h-227v-268h271l-3 -20h-290v710h291l-3 -20h-266zM199 839h19l76 -90h-26l-57 70h-6l-56 -70h-26z" />
    <glyph glyph-name="Edieresis" unicode="&#xcb;" horiz-adv-x="373" 
d="M80 690v-382h230l-3 -20h-227v-268h271l-3 -20h-290v710h291l-3 -20h-266zM150 775h22v-36h-22v36zM246 775h22v-36h-22v36z" />
    <glyph glyph-name="Igrave" unicode="&#xcc;" 
d="M80 0h-22v710h22v-710zM-6 845h28l71 -96h-20z" />
    <glyph glyph-name="Iacute" unicode="&#xcd;" 
d="M80 0h-22v710h22v-710zM65 749h-21l63 106h28z" />
    <glyph glyph-name="Icircumflex" unicode="&#xce;" 
d="M80 0h-22v710h22v-710zM59 839h19l76 -90h-26l-57 70h-6l-56 -70h-26z" />
    <glyph glyph-name="Idieresis" unicode="&#xcf;" 
d="M80 0h-22v710h22v-710zM10 775h22v-36h-22v36zM106 775h22v-36h-22v36z" />
    <glyph glyph-name="Eth" unicode="&#xd0;" horiz-adv-x="423" 
d="M65 0v333h-71l3 20h68v357h200q57 0 80 -32.5t23 -102.5v-440q0 -70 -23 -102.5t-80 -32.5h-200zM229 353l-3 -20h-139v-313h180q43 0 60.5 26.5t17.5 85.5v446q0 59 -17.5 85.5t-60.5 26.5h-180v-337h142z" />
    <glyph glyph-name="Ntilde" unicode="&#xd1;" horiz-adv-x="465" 
d="M80 0h-22v710h22l266 -582q11 -25 38 -90v672h23v-710h-23l-255 559q-13 29 -30.5 70.5t-18.5 44.5v-674zM280 817q20 0 28.5 -9t8.5 -30v-20h-18v22q0 18 -20 18q-16 0 -25 -11l-20 -25q-11 -14 -35 -14q-23 0 -30 8.5t-7 30.5v20h18v-22q0 -10 3.5 -14t16.5 -4
q8 0 13 2t7.5 4.5t8.5 10.5l15 19q11 14 36 14z" />
    <glyph glyph-name="Ograve" unicode="&#xd2;" horiz-adv-x="461" 
d="M54 135v440q0 70 22.5 102.5t79.5 32.5h148q57 0 80 -32.5t23 -102.5v-440q0 -70 -23 -102.5t-80 -32.5h-148q-57 0 -79.5 32.5t-22.5 102.5zM154 690q-43 0 -60.5 -27t-17.5 -85v-446q0 -58 17.5 -85t60.5 -27h152q43 0 60.5 26.5t17.5 85.5v446q0 59 -17.5 85.5
t-60.5 26.5h-152zM159 845h28l71 -96h-20z" />
    <glyph glyph-name="Oacute" unicode="&#xd3;" horiz-adv-x="461" 
d="M54 135v440q0 70 22.5 102.5t79.5 32.5h148q57 0 80 -32.5t23 -102.5v-440q0 -70 -23 -102.5t-80 -32.5h-148q-57 0 -79.5 32.5t-22.5 102.5zM154 690q-43 0 -60.5 -27t-17.5 -85v-446q0 -58 17.5 -85t60.5 -27h152q43 0 60.5 26.5t17.5 85.5v446q0 59 -17.5 85.5
t-60.5 26.5h-152zM230 749h-21l63 106h28z" />
    <glyph glyph-name="Ocircumflex" unicode="&#xd4;" horiz-adv-x="461" 
d="M54 135v440q0 70 22.5 102.5t79.5 32.5h148q57 0 80 -32.5t23 -102.5v-440q0 -70 -23 -102.5t-80 -32.5h-148q-57 0 -79.5 32.5t-22.5 102.5zM154 690q-43 0 -60.5 -27t-17.5 -85v-446q0 -58 17.5 -85t60.5 -27h152q43 0 60.5 26.5t17.5 85.5v446q0 59 -17.5 85.5
t-60.5 26.5h-152zM225 839h19l76 -90h-26l-57 70h-6l-56 -70h-26z" />
    <glyph glyph-name="Otilde" unicode="&#xd5;" horiz-adv-x="445" 
d="M54 135v440q0 70 22.5 102.5t79.5 32.5h133q57 0 79.5 -32.5t22.5 -102.5v-440q0 -70 -22.5 -102.5t-79.5 -32.5h-133q-57 0 -79.5 32.5t-22.5 102.5zM154 690q-43 0 -60.5 -27t-17.5 -85v-446q0 -58 17.5 -85t60.5 -27h137q43 0 60.5 27t17.5 85v446q0 58 -17.5 85
t-60.5 27h-137zM261 817q20 0 28.5 -9t8.5 -30v-20h-18v22q0 18 -20 18q-16 0 -25 -11l-20 -25q-11 -14 -35 -14q-23 0 -30 8.5t-7 30.5v20h18v-22q0 -10 3.5 -14t16.5 -4q8 0 13 2t7.5 4.5t8.5 10.5l15 19q11 14 36 14z" />
    <glyph glyph-name="Odieresis" unicode="&#xd6;" horiz-adv-x="461" 
d="M54 135v440q0 70 22.5 102.5t79.5 32.5h148q57 0 80 -32.5t23 -102.5v-440q0 -70 -23 -102.5t-80 -32.5h-148q-57 0 -79.5 32.5t-22.5 102.5zM154 690q-43 0 -60.5 -27t-17.5 -85v-446q0 -58 17.5 -85t60.5 -27h152q43 0 60.5 26.5t17.5 85.5v446q0 59 -17.5 85.5
t-60.5 26.5h-152zM175 775h22v-36h-22v36zM271 775h22v-36h-22v36z" />
    <glyph glyph-name="multiply" unicode="&#xd7;" horiz-adv-x="302" 
d="M258 395l-94 -117l94 -117l-14 -14l-94 117l-93 -117l-13 14l92 117l-92 117l13 14l93 -117l94 117z" />
    <glyph glyph-name="Oslash" unicode="&#xd8;" horiz-adv-x="448" 
d="M413 750h26l-54 -106q7 -27 7 -69v-440q0 -70 -22.5 -102.5t-79.5 -32.5h-133q-59 0 -82 36l-39 -76h-27l53 104q-7 27 -7 71v440q0 70 22.5 102.5t79.5 32.5h133q60 0 83 -38zM155 690q-43 0 -60.5 -27t-17.5 -85v-446q0 -25 2 -36l281 551q-16 43 -68 43h-137zM292 20
q43 0 60.5 27t17.5 85v446q0 13 -2 33l-281 -551q18 -40 68 -40h137z" />
    <glyph glyph-name="Ugrave" unicode="&#xd9;" horiz-adv-x="447" 
d="M277 20q48 0 69.5 30.5t21.5 98.5v561h23v-564q0 -74 -27 -110t-86 -36h-109q-59 0 -86 36t-27 110v564h22v-561q0 -67 22 -98t70 -31h107zM148 845h28l71 -96h-20z" />
    <glyph glyph-name="Uacute" unicode="&#xda;" horiz-adv-x="447" 
d="M277 20q48 0 69.5 30.5t21.5 98.5v561h23v-564q0 -74 -27 -110t-86 -36h-109q-59 0 -86 36t-27 110v564h22v-561q0 -67 22 -98t70 -31h107zM219 749h-21l63 106h28z" />
    <glyph glyph-name="Ucircumflex" unicode="&#xdb;" horiz-adv-x="447" 
d="M277 20q48 0 69.5 30.5t21.5 98.5v561h23v-564q0 -74 -27 -110t-86 -36h-109q-59 0 -86 36t-27 110v564h22v-561q0 -67 22 -98t70 -31h107zM214 839h19l76 -90h-26l-57 70h-6l-56 -70h-26z" />
    <glyph glyph-name="Udieresis" unicode="&#xdc;" horiz-adv-x="447" 
d="M277 20q48 0 69.5 30.5t21.5 98.5v561h23v-564q0 -74 -27 -110t-86 -36h-109q-59 0 -86 36t-27 110v564h22v-561q0 -67 22 -98t70 -31h107zM164 775h22v-36h-22v36zM260 775h22v-36h-22v36z" />
    <glyph glyph-name="Yacute" unicode="&#xdd;" horiz-adv-x="392" 
d="M207 0h-22v306l-165 404h24l134 -335q16 -41 18 -53q4 18 18 52l134 336h23l-164 -404v-306zM192 749h-21l63 106h28z" />
    <glyph glyph-name="Thorn" unicode="&#xde;" horiz-adv-x="402" 
d="M80 0h-22v773l17 4h5v-170h193q96 0 96 -125v-142q0 -125 -96 -125h-193v-215zM80 587v-352h189q41 0 59.5 26t18.5 83v134q0 57 -18.5 83t-59.5 26h-189z" />
    <glyph glyph-name="germandbls" unicode="&#xdf;" horiz-adv-x="405" 
d="M54 -140v715q0 70 22.5 102.5t79.5 32.5h63q124 0 124 -135v-104q0 -83 -48 -100q35 -10 52 -45.5t17 -78.5v-112q0 -135 -121 -135h-108v20h106q101 0 101 114v108q0 62 -23.5 89.5t-72.5 27.5h-111v20h113q73 0 73 89v105q0 61 -26 89t-82 28h-59q-43 0 -60.5 -27
t-17.5 -85v-718h-22z" />
    <glyph glyph-name="agrave" unicode="&#xe0;" horiz-adv-x="351" 
d="M278 0l-1 55q-16 -55 -95 -55h-44q-52 0 -76 24t-24 81v73q0 105 100 105h139v133q0 41 -13 58.5t-42 17.5h-97q-57 0 -57 -75v-25h-22v25q0 94 78 94h100q75 0 75 -95v-416h-21zM139 20h46q48 0 70 26.5t22 88.5v128h-138q-79 0 -79 -84v-74q0 -50 19.5 -67.5
t59.5 -17.5zM102 675h28l71 -96h-20z" />
    <glyph glyph-name="aacute" unicode="&#xe1;" horiz-adv-x="351" 
d="M278 0l-1 55q-16 -55 -95 -55h-44q-52 0 -76 24t-24 81v73q0 105 100 105h139v133q0 41 -13 58.5t-42 17.5h-97q-57 0 -57 -75v-25h-22v25q0 94 78 94h100q75 0 75 -95v-416h-21zM139 20h46q48 0 70 26.5t22 88.5v128h-138q-79 0 -79 -84v-74q0 -50 19.5 -67.5
t59.5 -17.5zM173 584h-21l63 106h28z" />
    <glyph glyph-name="acircumflex" unicode="&#xe2;" horiz-adv-x="351" 
d="M278 0l-1 55q-16 -55 -95 -55h-44q-52 0 -76 24t-24 81v73q0 105 100 105h139v133q0 41 -13 58.5t-42 17.5h-97q-57 0 -57 -75v-25h-22v25q0 94 78 94h100q75 0 75 -95v-416h-21zM139 20h46q48 0 70 26.5t22 88.5v128h-138q-79 0 -79 -84v-74q0 -50 19.5 -67.5
t59.5 -17.5zM167 669h19l76 -90h-26l-57 70h-6l-56 -70h-26z" />
    <glyph glyph-name="atilde" unicode="&#xe3;" horiz-adv-x="351" 
d="M278 0l-1 55q-16 -55 -95 -55h-44q-52 0 -76 24t-24 81v73q0 105 100 105h139v133q0 41 -13 58.5t-42 17.5h-97q-57 0 -57 -75v-25h-22v25q0 94 78 94h100q75 0 75 -95v-416h-21zM139 20h46q48 0 70 26.5t22 88.5v128h-138q-79 0 -79 -84v-74q0 -50 19.5 -67.5
t59.5 -17.5zM218 647q20 0 28.5 -9t8.5 -30v-20h-18v22q0 18 -20 18q-16 0 -25 -11l-20 -25q-11 -14 -35 -14q-23 0 -30 8.5t-7 30.5v20h18v-22q0 -10 3.5 -14t16.5 -4q8 0 13 2t7.5 4.5t8.5 10.5l15 19q11 14 36 14z" />
    <glyph glyph-name="adieresis" unicode="&#xe4;" horiz-adv-x="351" 
d="M278 0l-1 55q-16 -55 -95 -55h-44q-52 0 -76 24t-24 81v73q0 105 100 105h139v133q0 41 -13 58.5t-42 17.5h-97q-57 0 -57 -75v-25h-22v25q0 94 78 94h100q75 0 75 -95v-416h-21zM139 20h46q48 0 70 26.5t22 88.5v128h-138q-79 0 -79 -84v-74q0 -50 19.5 -67.5
t59.5 -17.5zM118 605h22v-36h-22v36zM214 605h22v-36h-22v36z" />
    <glyph glyph-name="aring" unicode="&#xe5;" horiz-adv-x="351" 
d="M278 0l-1 55q-16 -55 -95 -55h-44q-52 0 -76 24t-24 81v73q0 105 100 105h139v133q0 41 -13 58.5t-42 17.5h-97q-57 0 -57 -75v-25h-22v25q0 94 78 94h100q75 0 75 -95v-416h-21zM139 20h46q48 0 70 26.5t22 88.5v128h-138q-79 0 -79 -84v-74q0 -50 19.5 -67.5
t59.5 -17.5zM171 714h13q61 0 61 -62v-21q0 -62 -61 -62h-13q-61 0 -61 62v21q0 62 61 62zM226 629v25q0 40 -38 40h-21q-39 0 -39 -40v-25q0 -40 39 -40h21q38 0 38 40z" />
    <glyph glyph-name="ae" unicode="&#xe6;" horiz-adv-x="568" 
d="M370 20h57q43 0 60.5 27t17.5 85v18h22v-15q0 -69 -23 -102t-80 -33h-51q-77 0 -95 63q-25 -63 -104 -63h-36q-52 0 -76 24t-24 81v73q0 105 100 105h131v133q0 41 -13 58.5t-42 17.5h-89q-57 0 -57 -75v-25h-22v25q0 94 78 94h92q51 0 68 -46q21 46 89 46h51
q57 0 80 -27t23 -85v-55q0 -56 -22 -81.5t-80 -25.5h-133v-105q0 -57 17.5 -84.5t60.5 -27.5zM139 20h38q48 0 70 26.5t22 88.5v128h-132q-40 0 -58.5 -20.5t-18.5 -63.5v-74q0 -50 19.5 -67.5t59.5 -17.5zM427 491h-57q-43 0 -60.5 -26.5t-17.5 -85.5v-122h136
q43 0 60 20.5t17 66.5v55q0 47 -17.5 69.5t-60.5 22.5z" />
    <glyph glyph-name="ccedilla" unicode="&#xe7;" horiz-adv-x="346" 
d="M202 -64l-15 2q-22 3 -22 36v26h-14q-54 0 -77.5 30.5t-23.5 94.5v251q0 70 22.5 102.5t79.5 32.5h54q56 0 78.5 -32.5t22.5 -102.5v-35h-22v38q0 59 -17.5 85.5t-60.5 26.5h-57q-43 0 -60.5 -27t-17.5 -85v-248q0 -61 18.5 -86t59.5 -25h56q46 0 62.5 21.5t16.5 78.5v40
h22v-45q0 -63 -22.5 -89t-75.5 -26h-24v-19q0 -21 11 -23l21 -4q26 -5 26 -43v-13q0 -52 -47 -52h-15q-45 0 -45 46v14h19v-13q0 -28 25 -28h16q28 0 28 30v13q0 25 -22 28z" />
    <glyph glyph-name="egrave" unicode="&#xe8;" horiz-adv-x="349" 
d="M152 20h57q43 0 60.5 27t17.5 85v18h22v-15q0 -69 -23 -102t-80 -33h-53q-57 0 -80 32.5t-23 102.5v264q0 58 23 85t80 27h51q57 0 79.5 -27t22.5 -85v-55q0 -56 -22 -81.5t-81 -25.5h-131v-105q0 -57 17.5 -84.5t62.5 -27.5zM208 491h-59q-42 0 -59.5 -22.5t-17.5 -69.5
v-142h131q47 0 64.5 20.5t17.5 66.5v55q0 47 -17.5 69.5t-59.5 22.5zM102 675h28l71 -96h-20z" />
    <glyph glyph-name="eacute" unicode="&#xe9;" horiz-adv-x="349" 
d="M152 20h57q43 0 60.5 27t17.5 85v18h22v-15q0 -69 -23 -102t-80 -33h-53q-57 0 -80 32.5t-23 102.5v264q0 58 23 85t80 27h51q57 0 79.5 -27t22.5 -85v-55q0 -56 -22 -81.5t-81 -25.5h-131v-105q0 -57 17.5 -84.5t62.5 -27.5zM208 491h-59q-42 0 -59.5 -22.5t-17.5 -69.5
v-142h131q47 0 64.5 20.5t17.5 66.5v55q0 47 -17.5 69.5t-59.5 22.5zM173 579h-21l63 106h28z" />
    <glyph glyph-name="ecircumflex" unicode="&#xea;" horiz-adv-x="349" 
d="M152 20h57q43 0 60.5 27t17.5 85v18h22v-15q0 -69 -23 -102t-80 -33h-53q-57 0 -80 32.5t-23 102.5v264q0 58 23 85t80 27h51q57 0 79.5 -27t22.5 -85v-55q0 -56 -22 -81.5t-81 -25.5h-131v-105q0 -57 17.5 -84.5t62.5 -27.5zM208 491h-59q-42 0 -59.5 -22.5t-17.5 -69.5
v-142h131q47 0 64.5 20.5t17.5 66.5v55q0 47 -17.5 69.5t-59.5 22.5zM167 669h19l76 -90h-26l-57 70h-6l-56 -70h-26z" />
    <glyph glyph-name="edieresis" unicode="&#xeb;" horiz-adv-x="349" 
d="M152 20h57q43 0 60.5 27t17.5 85v18h22v-15q0 -69 -23 -102t-80 -33h-53q-57 0 -80 32.5t-23 102.5v264q0 58 23 85t80 27h51q57 0 79.5 -27t22.5 -85v-55q0 -56 -22 -81.5t-81 -25.5h-131v-105q0 -57 17.5 -84.5t62.5 -27.5zM208 491h-59q-42 0 -59.5 -22.5t-17.5 -69.5
v-142h131q47 0 64.5 20.5t17.5 66.5v55q0 47 -17.5 69.5t-59.5 22.5zM118 605h22v-36h-22v36zM214 605h22v-36h-22v36z" />
    <glyph glyph-name="igrave" unicode="&#xec;" horiz-adv-x="133" 
d="M58 485h-41v20h63v-505h-22v485zM-7 675h28l71 -96h-20z" />
    <glyph glyph-name="iacute" unicode="&#xed;" horiz-adv-x="133" 
d="M58 485h-41v20h63v-505h-22v485zM64 579h-21l63 106h28z" />
    <glyph glyph-name="icircumflex" unicode="&#xee;" horiz-adv-x="133" 
d="M58 485h-41v20h63v-505h-22v485zM59 669h19l76 -90h-26l-57 70h-6l-56 -70h-26z" />
    <glyph glyph-name="idieresis" unicode="&#xef;" horiz-adv-x="133" 
d="M58 485h-41v20h63v-505h-22v485zM9 605h22v-36h-22v36zM105 605h22v-36h-22v36z" />
    <glyph glyph-name="eth" unicode="&#xf0;" horiz-adv-x="352" 
d="M303 362v-227q0 -70 -23 -102.5t-80 -32.5h-58q-57 0 -80 32.5t-23 102.5v151q0 71 22.5 103t80.5 32h129q-6 18 -12.5 33t-11.5 23.5t-13.5 22.5t-12.5 22l-46 82l-114 -24v23l99 21l-50 86h32l44 -81l117 25v-23l-103 -23l67 -127q36 -72 36 -119zM139 401
q-43 0 -60.5 -27t-17.5 -85v-157q0 -58 17.5 -85t60.5 -27h65q42 0 59.5 27t17.5 85v230q0 13 -4 39h-138z" />
    <glyph glyph-name="ntilde" unicode="&#xf1;" horiz-adv-x="357" 
d="M53 0v501l16 4h6v-47q25 53 79 53h54q52 0 75 -30.5t23 -94.5v-386h-22v386q0 56 -19 80.5t-59 24.5h-53q-34 0 -54.5 -24.5t-23.5 -52.5v-414h-22zM226 647q20 0 28.5 -9t8.5 -30v-20h-18v22q0 18 -20 18q-16 0 -25 -11l-20 -25q-11 -14 -35 -14q-23 0 -30 8.5t-7 30.5
v20h18v-22q0 -10 3.5 -14t16.5 -4q8 0 13 2t7.5 4.5t8.5 10.5l15 19q11 14 36 14z" />
    <glyph glyph-name="ograve" unicode="&#xf2;" horiz-adv-x="364" 
d="M50 376q0 70 23 102.5t79 32.5h60q56 0 79 -32.5t23 -102.5v-251q0 -63 -24 -94t-77 -31h-62q-53 0 -77 31t-24 94v251zM214 491h-64q-43 0 -60.5 -27t-17.5 -85v-248q0 -61 18.5 -86t59.5 -25h64q41 0 59.5 25t18.5 86v248q0 58 -17.5 85t-60.5 27zM107 675h28l71 -96
h-20z" />
    <glyph glyph-name="oacute" unicode="&#xf3;" horiz-adv-x="364" 
d="M50 376q0 70 23 102.5t79 32.5h60q56 0 79 -32.5t23 -102.5v-251q0 -63 -24 -94t-77 -31h-62q-53 0 -77 31t-24 94v251zM214 491h-64q-43 0 -60.5 -27t-17.5 -85v-248q0 -61 18.5 -86t59.5 -25h64q41 0 59.5 25t18.5 86v248q0 58 -17.5 85t-60.5 27zM178 579h-21l63 106
h28z" />
    <glyph glyph-name="ocircumflex" unicode="&#xf4;" horiz-adv-x="364" 
d="M50 376q0 70 23 102.5t79 32.5h60q56 0 79 -32.5t23 -102.5v-251q0 -63 -24 -94t-77 -31h-62q-53 0 -77 31t-24 94v251zM214 491h-64q-43 0 -60.5 -27t-17.5 -85v-248q0 -61 18.5 -86t59.5 -25h64q41 0 59.5 25t18.5 86v248q0 58 -17.5 85t-60.5 27zM173 669h19l76 -90
h-26l-57 70h-6l-56 -70h-26z" />
    <glyph glyph-name="otilde" unicode="&#xf5;" horiz-adv-x="364" 
d="M50 376q0 70 23 102.5t79 32.5h60q56 0 79 -32.5t23 -102.5v-251q0 -63 -24 -94t-77 -31h-62q-53 0 -77 31t-24 94v251zM214 491h-64q-43 0 -60.5 -27t-17.5 -85v-248q0 -61 18.5 -86t59.5 -25h64q41 0 59.5 25t18.5 86v248q0 58 -17.5 85t-60.5 27zM223 647
q20 0 28.5 -9t8.5 -30v-20h-18v22q0 18 -20 18q-16 0 -25 -11l-20 -25q-11 -14 -35 -14q-23 0 -30 8.5t-7 30.5v20h18v-22q0 -10 3.5 -14t16.5 -4q8 0 13 2t7.5 4.5t8.5 10.5l15 19q11 14 36 14z" />
    <glyph glyph-name="odieresis" unicode="&#xf6;" horiz-adv-x="364" 
d="M50 376q0 70 23 102.5t79 32.5h60q56 0 79 -32.5t23 -102.5v-251q0 -63 -24 -94t-77 -31h-62q-53 0 -77 31t-24 94v251zM214 491h-64q-43 0 -60.5 -27t-17.5 -85v-248q0 -61 18.5 -86t59.5 -25h64q41 0 59.5 25t18.5 86v248q0 58 -17.5 85t-60.5 27zM123 605h22v-36h-22
v36zM219 605h22v-36h-22v36z" />
    <glyph glyph-name="divide" unicode="&#xf7;" horiz-adv-x="382" 
d="M49 290l3 20h282l-4 -20h-281zM181 395v44h24v-44h-24zM181 170v44h24v-44h-24z" />
    <glyph glyph-name="oslash" unicode="&#xf8;" horiz-adv-x="367" 
d="M50 376q0 70 23 102.5t79 32.5h60q63 0 86 -44l45 75h25l-61 -101q7 -25 7 -65v-251q0 -63 -24 -94t-77 -31h-62q-60 0 -84 41l-47 -79h-26l63 104q-7 24 -7 59v251zM214 491h-64q-43 0 -60.5 -27t-17.5 -85v-248q0 -26 2 -37l210 350q-16 47 -70 47zM292 379q0 13 -2 33
l-209 -349q15 -43 69 -43h64q41 0 59.5 25t18.5 86v248z" />
    <glyph glyph-name="ugrave" unicode="&#xf9;" horiz-adv-x="355" 
d="M302 505v-505h-21l-1 54q-28 -54 -89 -54h-42q-52 0 -75 30.5t-23 94.5v380h22v-380q0 -56 19 -80.5t59 -24.5h43q36 0 60 26t26 53v406h22zM99 675h28l71 -96h-20z" />
    <glyph glyph-name="uacute" unicode="&#xfa;" horiz-adv-x="355" 
d="M302 505v-505h-21l-1 54q-28 -54 -89 -54h-42q-52 0 -75 30.5t-23 94.5v380h22v-380q0 -56 19 -80.5t59 -24.5h43q36 0 60 26t26 53v406h22zM170 579h-21l63 106h28z" />
    <glyph glyph-name="ucircumflex" unicode="&#xfb;" horiz-adv-x="355" 
d="M302 505v-505h-21l-1 54q-28 -54 -89 -54h-42q-52 0 -75 30.5t-23 94.5v380h22v-380q0 -56 19 -80.5t59 -24.5h43q36 0 60 26t26 53v406h22zM165 669h19l76 -90h-26l-57 70h-6l-56 -70h-26z" />
    <glyph glyph-name="udieresis" unicode="&#xfc;" horiz-adv-x="355" 
d="M302 505v-505h-21l-1 54q-28 -54 -89 -54h-42q-52 0 -75 30.5t-23 94.5v380h22v-380q0 -56 19 -80.5t59 -24.5h43q36 0 60 26t26 53v406h22zM115 605h22v-36h-22v36zM211 605h22v-36h-22v36z" />
    <glyph glyph-name="yacute" unicode="&#xfd;" horiz-adv-x="332" 
d="M49 -205q61 0 79 72l30 122h-6l-127 516h23l118 -481l118 481h24l-160 -639q-11 -45 -31 -68t-67 -23h-39l3 20h35zM156 579h-21l63 106h28z" />
    <glyph glyph-name="thorn" unicode="&#xfe;" horiz-adv-x="367" 
d="M76 -250h-22v1023l17 4h5v-322q22 56 80 56h61q55 0 77.5 -32.5t22.5 -96.5v-253q0 -65 -22.5 -97t-74.5 -32h-63q-61 0 -81 54v-304zM154 491q-32 0 -52.5 -22.5t-25.5 -63.5v-293q4 -44 25 -68t53 -24h66q75 0 75 106v250q0 65 -18.5 90t-67.5 25h-55z" />
    <glyph glyph-name="ydieresis" unicode="&#xff;" horiz-adv-x="332" 
d="M49 -205q61 0 79 72l30 122h-6l-127 516h23l118 -481l118 481h24l-160 -639q-11 -45 -31 -68t-67 -23h-39l3 20h35zM101 605h22v-36h-22v36zM197 605h22v-36h-22v36z" />
    <glyph glyph-name="Amacron" unicode="&#x100;" horiz-adv-x="412" 
d="M191 710h29l170 -710h-24l-40 170h-242l-40 -170h-23zM206 689l-118 -499h234zM289 776l-3 -20h-157l3 20h157z" />
    <glyph glyph-name="amacron" unicode="&#x101;" horiz-adv-x="351" 
d="M278 0l-1 55q-16 -55 -95 -55h-44q-52 0 -76 24t-24 81v73q0 105 100 105h139v133q0 41 -13 58.5t-42 17.5h-97q-57 0 -57 -75v-25h-22v25q0 94 78 94h100q75 0 75 -95v-416h-21zM139 20h46q48 0 70 26.5t22 88.5v128h-138q-79 0 -79 -84v-74q0 -50 19.5 -67.5
t59.5 -17.5zM260 606l-3 -20h-157l3 20h157z" />
    <glyph glyph-name="Abreve" unicode="&#x102;" horiz-adv-x="412" 
d="M191 710h29l170 -710h-24l-40 170h-242l-40 -170h-23zM206 689l-118 -499h234zM218 749h-26q-56 0 -56 62v11h18v-13q0 -41 41 -41h21q40 0 40 41v13h18v-11q0 -62 -56 -62z" />
    <glyph glyph-name="abreve" unicode="&#x103;" horiz-adv-x="351" 
d="M278 0l-1 55q-16 -55 -95 -55h-44q-52 0 -76 24t-24 81v73q0 105 100 105h139v133q0 41 -13 58.5t-42 17.5h-97q-57 0 -57 -75v-25h-22v25q0 94 78 94h100q75 0 75 -95v-416h-21zM139 20h46q48 0 70 26.5t22 88.5v128h-138q-79 0 -79 -84v-74q0 -50 19.5 -67.5
t59.5 -17.5zM190 579h-26q-56 0 -56 62v11h18v-13q0 -41 41 -41h21q40 0 40 41v13h18v-11q0 -62 -56 -62z" />
    <glyph glyph-name="Aogonek" unicode="&#x104;" horiz-adv-x="412" 
d="M314 -112v9q0 29 30 48q15 9 19.5 16t4.5 23v16h-2l-40 170h-242l-40 -170h-23l170 710h29l170 -710h-3v-16q0 -39 -33 -58q-20 -12 -20 -31q0 -13 6 -16.5t21 -3.5h42l-3 -20h-39q-47 0 -47 33zM206 689l-118 -499h234z" />
    <glyph glyph-name="aogonek" unicode="&#x105;" horiz-adv-x="351" 
d="M278 0l-1 55q-16 -55 -95 -55h-44q-52 0 -76 24t-24 81v73q0 105 100 105h139v133q0 41 -13 58.5t-42 17.5h-97q-57 0 -57 -75v-25h-22v25q0 94 78 94h100q75 0 75 -95v-416h-1q-2 -33 -33 -51q-20 -12 -20 -31q0 -13 6 -16.5t21 -3.5h42l-3 -20h-39q-47 0 -47 33v9
q0 29 30 48q23 14 24 32h-1zM139 20h46q48 0 70 26.5t22 88.5v128h-138q-79 0 -79 -84v-74q0 -50 19.5 -67.5t59.5 -17.5z" />
    <glyph glyph-name="Cacute" unicode="&#x106;" horiz-adv-x="436" 
d="M154 20h143q43 0 60.5 26.5t17.5 85.5v79h23v-76q0 -70 -22.5 -102.5t-79.5 -32.5h-140q-57 0 -79.5 32.5t-22.5 102.5v440q0 70 22.5 102.5t79.5 32.5h140q57 0 79.5 -32.5t22.5 -102.5v-74h-23v77q0 59 -17.5 85.5t-60.5 26.5h-143q-43 0 -60.5 -27t-17.5 -85v-446
q0 -58 17.5 -85t60.5 -27zM230 749h-21l63 106h28z" />
    <glyph glyph-name="cacute" unicode="&#x107;" horiz-adv-x="346" 
d="M207 491h-57q-43 0 -60.5 -27t-17.5 -85v-248q0 -61 18.5 -86t59.5 -25h56q46 0 62.5 21.5t16.5 78.5v40h22v-45q0 -63 -22.5 -89t-75.5 -26h-58q-54 0 -77.5 30.5t-23.5 94.5v251q0 70 22.5 102.5t79.5 32.5h54q56 0 78.5 -32.5t22.5 -102.5v-35h-22v38q0 59 -17.5 85.5
t-60.5 26.5zM172 579h-21l63 106h28z" />
    <glyph glyph-name="Ccircumflex" unicode="&#x108;" horiz-adv-x="436" 
d="M154 20h143q43 0 60.5 26.5t17.5 85.5v79h23v-76q0 -70 -22.5 -102.5t-79.5 -32.5h-140q-57 0 -79.5 32.5t-22.5 102.5v440q0 70 22.5 102.5t79.5 32.5h140q57 0 79.5 -32.5t22.5 -102.5v-74h-23v77q0 59 -17.5 85.5t-60.5 26.5h-143q-43 0 -60.5 -27t-17.5 -85v-446
q0 -58 17.5 -85t60.5 -27zM224 839h19l76 -90h-26l-57 70h-6l-56 -70h-26z" />
    <glyph glyph-name="ccircumflex" unicode="&#x109;" horiz-adv-x="346" 
d="M207 491h-57q-43 0 -60.5 -27t-17.5 -85v-248q0 -61 18.5 -86t59.5 -25h56q46 0 62.5 21.5t16.5 78.5v40h22v-45q0 -63 -22.5 -89t-75.5 -26h-58q-54 0 -77.5 30.5t-23.5 94.5v251q0 70 22.5 102.5t79.5 32.5h54q56 0 78.5 -32.5t22.5 -102.5v-35h-22v38q0 59 -17.5 85.5
t-60.5 26.5zM167 669h19l76 -90h-26l-57 70h-6l-56 -70h-26z" />
    <glyph glyph-name="Cdotaccent" unicode="&#x10a;" horiz-adv-x="436" 
d="M154 20h143q43 0 60.5 26.5t17.5 85.5v79h23v-76q0 -70 -22.5 -102.5t-79.5 -32.5h-140q-57 0 -79.5 32.5t-22.5 102.5v440q0 70 22.5 102.5t79.5 32.5h140q57 0 79.5 -32.5t22.5 -102.5v-74h-23v77q0 59 -17.5 85.5t-60.5 26.5h-143q-43 0 -60.5 -27t-17.5 -85v-446
q0 -58 17.5 -85t60.5 -27zM218 784h31v-35h-31v35z" />
    <glyph glyph-name="cdotaccent" unicode="&#x10b;" horiz-adv-x="346" 
d="M207 491h-57q-43 0 -60.5 -27t-17.5 -85v-248q0 -61 18.5 -86t59.5 -25h56q46 0 62.5 21.5t16.5 78.5v40h22v-45q0 -63 -22.5 -89t-75.5 -26h-58q-54 0 -77.5 30.5t-23.5 94.5v251q0 70 22.5 102.5t79.5 32.5h54q56 0 78.5 -32.5t22.5 -102.5v-35h-22v38q0 59 -17.5 85.5
t-60.5 26.5zM160 614h31v-35h-31v35z" />
    <glyph glyph-name="Ccaron" unicode="&#x10c;" horiz-adv-x="436" 
d="M154 20h143q43 0 60.5 26.5t17.5 85.5v79h23v-76q0 -70 -22.5 -102.5t-79.5 -32.5h-140q-57 0 -79.5 32.5t-22.5 102.5v440q0 70 22.5 102.5t79.5 32.5h140q57 0 79.5 -32.5t22.5 -102.5v-74h-23v77q0 59 -17.5 85.5t-60.5 26.5h-143q-43 0 -60.5 -27t-17.5 -85v-446
q0 -58 17.5 -85t60.5 -27zM241 749h-14l-75 90h25l57 -70l57 70h26z" />
    <glyph glyph-name="ccaron" unicode="&#x10d;" horiz-adv-x="346" 
d="M207 491h-57q-43 0 -60.5 -27t-17.5 -85v-248q0 -61 18.5 -86t59.5 -25h56q46 0 62.5 21.5t16.5 78.5v40h22v-45q0 -63 -22.5 -89t-75.5 -26h-58q-54 0 -77.5 30.5t-23.5 94.5v251q0 70 22.5 102.5t79.5 32.5h54q56 0 78.5 -32.5t22.5 -102.5v-35h-22v38q0 59 -17.5 85.5
t-60.5 26.5zM183 579h-14l-75 90h25l57 -70l57 70h26z" />
    <glyph glyph-name="Dcaron" unicode="&#x10e;" horiz-adv-x="457" 
d="M58 0v710h214q69 0 100 -40t31 -125v-380q0 -85 -31 -125t-100 -40h-214zM275 20q56 0 80.5 34t24.5 108v386q0 74 -24.5 108t-80.5 34h-195v-670h195zM222 749h-14l-75 90h25l57 -70l57 70h26z" />
    <glyph glyph-name="dcaron" unicode="&#x10f;" horiz-adv-x="366" 
d="M313 740v-740h-21l-1 58q-24 -58 -81 -58h-63q-52 0 -74.5 32t-22.5 97v253q0 65 22.5 97t78.5 32h60q57 0 80 -54v279l17 4h5zM213 20q33 0 55 26.5t23 75.5v274q-2 44 -23 69.5t-55 25.5h-63q-39 0 -58.5 -24.5t-19.5 -80.5v-260q0 -106 75 -106h66zM365 759h24
l-5 -169h-15z" />
    <glyph glyph-name="Dcroat" unicode="&#x110;" horiz-adv-x="457" 
d="M58 0v367h-57l3 20h54v323h215q69 0 99.5 -40t30.5 -125v-380q0 -85 -30.5 -125t-99.5 -40h-215zM275 690h-194v-303h82l-3 -20h-79v-347h194q56 0 81 34t25 108v386q0 74 -25 108t-81 34z" />
    <glyph glyph-name="dcroat" unicode="&#x111;" horiz-adv-x="366" 
d="M383 673l-3 -20h-67v-653h-21l-1 58q-24 -58 -81 -58h-63q-52 0 -74.5 32t-22.5 97v253q0 65 22.5 97t78.5 32h60q57 0 80 -54v196h-104l3 20h101v63l17 4h5v-67h70zM213 20q34 0 56 28.5t22 79.5v259q0 49 -21 76.5t-57 27.5h-63q-39 0 -58.5 -24.5t-19.5 -80.5v-260
q0 -106 75 -106h66z" />
    <glyph glyph-name="Emacron" unicode="&#x112;" horiz-adv-x="373" 
d="M80 690v-382h230l-3 -20h-227v-268h271l-3 -20h-290v710h291l-3 -20h-266zM292 776l-3 -20h-157l3 20h157z" />
    <glyph glyph-name="emacron" unicode="&#x113;" horiz-adv-x="349" 
d="M152 20h57q43 0 60.5 27t17.5 85v18h22v-15q0 -69 -23 -102t-80 -33h-53q-57 0 -80 32.5t-23 102.5v264q0 58 23 85t80 27h51q57 0 79.5 -27t22.5 -85v-55q0 -56 -22 -81.5t-81 -25.5h-131v-105q0 -57 17.5 -84.5t62.5 -27.5zM208 491h-59q-42 0 -59.5 -22.5t-17.5 -69.5
v-142h131q47 0 64.5 20.5t17.5 66.5v55q0 47 -17.5 69.5t-59.5 22.5zM260 606l-3 -20h-157l3 20h157z" />
    <glyph glyph-name="Ebreve" unicode="&#x114;" horiz-adv-x="373" 
d="M80 690v-382h230l-3 -20h-227v-268h271l-3 -20h-290v710h291l-3 -20h-266zM222 749h-26q-56 0 -56 62v11h18v-13q0 -41 41 -41h21q40 0 40 41v13h18v-11q0 -62 -56 -62z" />
    <glyph glyph-name="ebreve" unicode="&#x115;" horiz-adv-x="349" 
d="M152 20h57q43 0 60.5 27t17.5 85v18h22v-15q0 -69 -23 -102t-80 -33h-53q-57 0 -80 32.5t-23 102.5v264q0 58 23 85t80 27h51q57 0 79.5 -27t22.5 -85v-55q0 -56 -22 -81.5t-81 -25.5h-131v-105q0 -57 17.5 -84.5t62.5 -27.5zM208 491h-59q-42 0 -59.5 -22.5t-17.5 -69.5
v-142h131q47 0 64.5 20.5t17.5 66.5v55q0 47 -17.5 69.5t-59.5 22.5zM190 579h-26q-56 0 -56 62v11h18v-13q0 -41 41 -41h21q40 0 40 41v13h18v-11q0 -62 -56 -62z" />
    <glyph glyph-name="Edotaccent" unicode="&#x116;" horiz-adv-x="373" 
d="M80 690v-382h230l-3 -20h-227v-268h271l-3 -20h-290v710h291l-3 -20h-266zM193 784h31v-35h-31v35z" />
    <glyph glyph-name="edotaccent" unicode="&#x117;" horiz-adv-x="349" 
d="M152 20h57q43 0 60.5 27t17.5 85v18h22v-15q0 -69 -23 -102t-80 -33h-53q-57 0 -80 32.5t-23 102.5v264q0 58 23 85t80 27h51q57 0 79.5 -27t22.5 -85v-55q0 -56 -22 -81.5t-81 -25.5h-131v-105q0 -57 17.5 -84.5t62.5 -27.5zM208 491h-59q-42 0 -59.5 -22.5t-17.5 -69.5
v-142h131q47 0 64.5 20.5t17.5 66.5v55q0 47 -17.5 69.5t-59.5 22.5zM161 614h31v-35h-31v35z" />
    <glyph glyph-name="Eogonek" unicode="&#x118;" horiz-adv-x="373" 
d="M272 -97v9q0 29 30 48q15 9 19.5 16t4.5 23v1h-268v710h291l-3 -20h-266v-382h230l-3 -20h-227v-268h271l-3 -20h-3v-1q0 -39 -33 -58q-20 -12 -20 -31q0 -13 6 -16.5t21 -3.5h42l-3 -20h-39q-47 0 -47 33z" />
    <glyph glyph-name="eogonek" unicode="&#x119;" horiz-adv-x="348" 
d="M112 -94v9q0 29 30 48q14 9 18.5 15.5t5.5 21.5h-13q-57 0 -80 32.5t-23 102.5v264q0 58 23 85t80 27h51q57 0 79.5 -27t22.5 -85v-55q0 -56 -22 -81.5t-81 -25.5h-131v-105q0 -57 17.5 -84.5t62.5 -27.5h57q43 0 60.5 27t17.5 85v18h22v-15q0 -69 -23 -102t-80 -33h-21
q-1 -37 -33 -56q-20 -12 -20 -31q0 -13 6 -16.5t21 -3.5h42l-3 -20h-39q-47 0 -47 33zM208 491h-59q-42 0 -59.5 -22.5t-17.5 -69.5v-142h131q47 0 64.5 20.5t17.5 66.5v55q0 47 -17.5 69.5t-59.5 22.5z" />
    <glyph glyph-name="Ecaron" unicode="&#x11a;" horiz-adv-x="374" 
d="M80 690v-382h230l-3 -20h-227v-268h271l-3 -20h-290v710h291l-3 -20h-266zM215 749h-14l-75 90h25l57 -70l57 70h26z" />
    <glyph glyph-name="ecaron" unicode="&#x11b;" horiz-adv-x="349" 
d="M152 20h57q43 0 60.5 27t17.5 85v18h22v-15q0 -69 -23 -102t-80 -33h-53q-57 0 -80 32.5t-23 102.5v264q0 58 23 85t80 27h51q57 0 79.5 -27t22.5 -85v-55q0 -56 -22 -81.5t-81 -25.5h-131v-105q0 -57 17.5 -84.5t62.5 -27.5zM208 491h-59q-42 0 -59.5 -22.5t-17.5 -69.5
v-142h131q47 0 64.5 20.5t17.5 66.5v55q0 47 -17.5 69.5t-59.5 22.5zM183 579h-14l-75 90h25l57 -70l57 70h26z" />
    <glyph glyph-name="Gcircumflex" unicode="&#x11c;" horiz-adv-x="442" 
d="M219 304l3 20h172v-189q0 -68 -21.5 -101.5t-76.5 -33.5h-145q-97 0 -97 124v451q0 135 87 135h162q96 0 96 -125v-84h-22v80q0 57 -18.5 83t-58.5 26h-150q-40 0 -57 -28t-17 -91v-442q0 -57 19 -83t60 -26h136q43 0 62 25t19 77v182h-153zM231 839h19l76 -90h-26
l-57 70h-6l-56 -70h-26z" />
    <glyph glyph-name="gcircumflex" unicode="&#x11d;" horiz-adv-x="360" 
d="M141 79h104q56 0 78.5 -30t22.5 -95v-46q0 -65 -23 -95t-80 -30h-108q-57 0 -80 30t-23 95v46q0 54 15 83.5t52 37.5q-8 13 -8 40v5q0 28 13 41q-56 23 -56 128v81q0 69 22.5 102t79.5 33h45q41 0 65 -19l54 60l14 -15l-53 -60q22 -32 22 -101v-81q0 -70 -22.5 -102.5
t-80.5 -32.5h-49q-18 -1 -25 -7.5t-7 -27.5v-4q0 -20 6 -27.5t22 -8.5zM246 59h-114q-43 0 -60.5 -24.5t-17.5 -77.5v-52q0 -53 17.5 -77.5t60.5 -24.5h114q43 0 60.5 24.5t17.5 77.5v52q0 53 -17.5 77.5t-60.5 24.5zM148 485q-43 0 -60.5 -26.5t-17.5 -85.5v-87
q0 -56 16.5 -83.5t56.5 -28.5h55q42 0 59.5 27t17.5 85v87q0 59 -17.5 85.5t-59.5 26.5h-50zM168 669h19l76 -90h-26l-57 70h-6l-56 -70h-26z" />
    <glyph glyph-name="Gbreve" unicode="&#x11e;" horiz-adv-x="442" 
d="M219 304l3 20h172v-189q0 -68 -21.5 -101.5t-76.5 -33.5h-145q-97 0 -97 124v451q0 135 87 135h162q96 0 96 -125v-84h-22v80q0 57 -18.5 83t-58.5 26h-150q-40 0 -57 -28t-17 -91v-442q0 -57 19 -83t60 -26h136q43 0 62 25t19 77v182h-153zM253 749h-26q-56 0 -56 62v11
h18v-13q0 -41 41 -41h21q40 0 40 41v13h18v-11q0 -62 -56 -62z" />
    <glyph glyph-name="gbreve" unicode="&#x11f;" horiz-adv-x="360" 
d="M141 79h104q56 0 78.5 -30t22.5 -95v-46q0 -65 -23 -95t-80 -30h-108q-57 0 -80 30t-23 95v46q0 54 15 83.5t52 37.5q-8 13 -8 40v5q0 28 13 41q-56 23 -56 128v81q0 69 22.5 102t79.5 33h45q41 0 65 -19l54 60l14 -15l-53 -60q22 -32 22 -101v-81q0 -70 -22.5 -102.5
t-80.5 -32.5h-49q-18 -1 -25 -7.5t-7 -27.5v-4q0 -20 6 -27.5t22 -8.5zM246 59h-114q-43 0 -60.5 -24.5t-17.5 -77.5v-52q0 -53 17.5 -77.5t60.5 -24.5h114q43 0 60.5 24.5t17.5 77.5v52q0 53 -17.5 77.5t-60.5 24.5zM148 485q-43 0 -60.5 -26.5t-17.5 -85.5v-87
q0 -56 16.5 -83.5t56.5 -28.5h55q42 0 59.5 27t17.5 85v87q0 59 -17.5 85.5t-59.5 26.5h-50zM190 579h-26q-56 0 -56 62v11h18v-13q0 -41 41 -41h21q40 0 40 41v13h18v-11q0 -62 -56 -62z" />
    <glyph glyph-name="Gdotaccent" unicode="&#x120;" horiz-adv-x="442" 
d="M219 304l3 20h172v-189q0 -68 -21.5 -101.5t-76.5 -33.5h-145q-97 0 -97 124v451q0 135 87 135h162q96 0 96 -125v-84h-22v80q0 57 -18.5 83t-58.5 26h-150q-40 0 -57 -28t-17 -91v-442q0 -57 19 -83t60 -26h136q43 0 62 25t19 77v182h-153zM224 784h31v-35h-31v35z" />
    <glyph glyph-name="gdotaccent" unicode="&#x121;" horiz-adv-x="360" 
d="M141 79h104q56 0 78.5 -30t22.5 -95v-46q0 -65 -23 -95t-80 -30h-108q-57 0 -80 30t-23 95v46q0 54 15 83.5t52 37.5q-8 13 -8 40v5q0 28 13 41q-56 23 -56 128v81q0 69 22.5 102t79.5 33h45q41 0 65 -19l54 60l14 -15l-53 -60q22 -32 22 -101v-81q0 -70 -22.5 -102.5
t-80.5 -32.5h-49q-18 -1 -25 -7.5t-7 -27.5v-4q0 -20 6 -27.5t22 -8.5zM246 59h-114q-43 0 -60.5 -24.5t-17.5 -77.5v-52q0 -53 17.5 -77.5t60.5 -24.5h114q43 0 60.5 24.5t17.5 77.5v52q0 53 -17.5 77.5t-60.5 24.5zM148 485q-43 0 -60.5 -26.5t-17.5 -85.5v-87
q0 -56 16.5 -83.5t56.5 -28.5h55q42 0 59.5 27t17.5 85v87q0 59 -17.5 85.5t-59.5 26.5h-50zM161 614h31v-35h-31v35z" />
    <glyph glyph-name="Gcommaaccent" unicode="&#x122;" horiz-adv-x="442" 
d="M219 304l3 20h172v-189q0 -68 -21.5 -101.5t-76.5 -33.5h-145q-97 0 -97 124v451q0 135 87 135h162q96 0 96 -125v-84h-22v80q0 57 -18.5 83t-58.5 26h-150q-40 0 -57 -28t-17 -91v-442q0 -57 19 -83t60 -26h136q43 0 62 25t19 77v182h-153z" />
    <glyph glyph-name="gcommaaccent" unicode="&#x123;" horiz-adv-x="360" 
d="M141 79h104q56 0 78.5 -30t22.5 -95v-46q0 -65 -23 -95t-80 -30h-108q-57 0 -80 30t-23 95v46q0 54 15 83.5t52 37.5q-8 13 -8 40v5q0 28 13 41q-56 23 -56 128v81q0 69 22.5 102t79.5 33h45q41 0 65 -19l54 60l14 -15l-53 -60q22 -32 22 -101v-81q0 -70 -22.5 -102.5
t-80.5 -32.5h-49q-18 -1 -25 -7.5t-7 -27.5v-4q0 -20 6 -27.5t22 -8.5zM246 59h-114q-43 0 -60.5 -24.5t-17.5 -77.5v-52q0 -53 17.5 -77.5t60.5 -24.5h114q43 0 60.5 24.5t17.5 77.5v52q0 53 -17.5 77.5t-60.5 24.5zM148 485q-43 0 -60.5 -26.5t-17.5 -85.5v-87
q0 -56 16.5 -83.5t56.5 -28.5h55q42 0 59.5 27t17.5 85v87q0 59 -17.5 85.5t-59.5 26.5h-50zM183 572h-24l4 169h15z" />
    <glyph glyph-name="Hcircumflex" unicode="&#x124;" horiz-adv-x="452" 
d="M80 0h-22v710h22v-412h291v412h23v-710h-23v278h-291v-278zM217 840h19l76 -90h-26l-57 70h-6l-56 -70h-26z" />
    <glyph glyph-name="hcircumflex" unicode="&#x125;" horiz-adv-x="357" 
d="M75 412v-412h-22v736l17 4h5v-282q25 53 79 53h54q52 0 75 -30.5t23 -94.5v-386h-22v386q0 56 -19 80.5t-59 24.5h-53q-34 0 -55 -25.5t-23 -53.5zM180 715h19l76 -90h-26l-57 70h-6l-56 -70h-26z" />
    <glyph glyph-name="Hbar" unicode="&#x126;" horiz-adv-x="454" 
d="M81 0h-22v598h-47l3 20h44v92h22v-92h291v92h23v-92h50l-3 -20h-47v-598h-23v278h-291v-278zM81 598v-300h291v300h-291z" />
    <glyph glyph-name="hbar" unicode="&#x127;" horiz-adv-x="357" 
d="M12 610l2 20h39v106l16 4h6v-110h73l-2 -20h-71v-152q25 53 79 53h54q52 0 75 -30.5t23 -94.5v-386h-22v386q0 56 -19 80.5t-59 24.5h-53q-34 0 -55 -25t-23 -52v-414h-22v610h-41z" />
    <glyph glyph-name="Itilde" unicode="&#x128;" 
d="M80 0h-22v710h22v-710zM109 817q20 0 28.5 -9t8.5 -30v-20h-18v22q0 18 -20 18q-16 0 -25 -11l-20 -25q-11 -14 -35 -14q-23 0 -30 8.5t-7 30.5v20h18v-22q0 -10 3.5 -14t16.5 -4q8 0 13 2t7.5 4.5t8.5 10.5l15 19q11 14 36 14z" />
    <glyph glyph-name="itilde" unicode="&#x129;" horiz-adv-x="133" 
d="M58 485h-41v20h63v-505h-22v485zM109 647q20 0 28.5 -9t8.5 -30v-20h-18v22q0 18 -20 18q-16 0 -25 -11l-20 -25q-11 -14 -35 -14q-23 0 -30 8.5t-7 30.5v20h18v-22q0 -10 3.5 -14t16.5 -4q8 0 13 2t7.5 4.5t8.5 10.5l15 19q11 14 36 14z" />
    <glyph glyph-name="Imacron" unicode="&#x12a;" 
d="M80 0h-22v710h22v-710zM152 776l-3 -20h-157l3 20h157z" />
    <glyph glyph-name="imacron" unicode="&#x12b;" horiz-adv-x="133" 
d="M58 485h-41v20h63v-505h-22v485zM152 606l-3 -20h-157l3 20h157z" />
    <glyph glyph-name="Ibreve" unicode="&#x12c;" 
d="M80 0h-22v710h22v-710zM82 749h-26q-56 0 -56 62v11h18v-13q0 -41 41 -41h21q40 0 40 41v13h18v-11q0 -62 -56 -62z" />
    <glyph glyph-name="ibreve" unicode="&#x12d;" horiz-adv-x="133" 
d="M58 485h-41v20h63v-505h-22v485zM81 579h-26q-56 0 -56 62v11h18v-13q0 -41 41 -41h21q40 0 40 41v13h18v-11q0 -62 -56 -62z" />
    <glyph glyph-name="Iogonek" unicode="&#x12e;" 
d="M5 -95v9q0 29 30 48q14 9 19 16t5 22h-1v710h22v-710h-2q-1 -39 -33 -57q-20 -12 -20 -31q0 -13 6 -16.5t21 -3.5h42l-3 -20h-39q-47 0 -47 33z" />
    <glyph glyph-name="iogonek" unicode="&#x12f;" horiz-adv-x="134" 
d="M5 -94v9q0 29 30 48q14 9 18.5 15.5t5.5 21.5h-1v485h-41v20h63v-505h-2q-1 -37 -33 -56q-20 -12 -20 -31q0 -13 6 -16.5t21 -3.5h42l-3 -20h-39q-47 0 -47 33zM54 696v44h24v-44h-24z" />
    <glyph glyph-name="Idotaccent" unicode="&#x130;" 
d="M80 0h-22v710h22v-710zM53 784h31v-35h-31v35z" />
    <glyph glyph-name="dotlessi" unicode="&#x131;" horiz-adv-x="133" 
d="M58 485h-41v20h63v-505h-22v485z" />
    <glyph glyph-name="IJ" unicode="&#x132;" horiz-adv-x="405" 
d="M80 0h-22v710h22v-710zM250 20q40 0 58.5 26t18.5 83v581h22v-584q0 -126 -98 -126h-77l3 20h73z" />
    <glyph glyph-name="Jcircumflex" unicode="&#x134;" horiz-adv-x="244" 
d="M88 20q40 0 58.5 26t18.5 83v581h22v-584q0 -126 -98 -126h-77l3 20h73zM166 839h19l76 -90h-26l-57 70h-6l-56 -70h-26z" />
    <glyph glyph-name="jcircumflex" unicode="&#x135;" horiz-adv-x="133" 
d="M58 485h-41v20h63v-564q0 -106 -81 -106h-21l3 20h16q32 0 46.5 21t14.5 68v541zM58 670h19l76 -90h-26l-57 70h-6l-56 -70h-26z" />
    <glyph glyph-name="Kcommaaccent" unicode="&#x136;" horiz-adv-x="357" 
d="M80 0h-22v710h22v-344l249 344h25l-254 -355l256 -355h-26l-250 344v-344zM170 -99h21v-39l-9 -85h-8z" />
    <glyph glyph-name="kcommaaccent" unicode="&#x137;" horiz-adv-x="290" 
d="M276 505l-183 -253l182 -252h-26l-174 239v-239h-22v736l17 4h5v-476l174 241h27zM155 -76h21v-39l-9 -85h-8z" />
    <glyph glyph-name="Lacute" unicode="&#x139;" horiz-adv-x="351" 
d="M80 710v-690h261l-3 -20h-280v710h22zM66 749h-21l63 106h28z" />
    <glyph glyph-name="lacute" unicode="&#x13a;" horiz-adv-x="145" 
d="M121 19h19l1 -20h-22q-66 0 -66 96v641l17 4h5v-642q0 -42 10.5 -60.5t35.5 -18.5zM72 819h-21l63 106h28z" />
    <glyph glyph-name="Lcommaaccent" unicode="&#x13b;" horiz-adv-x="351" 
d="M80 710v-690h261l-3 -20h-280v710h22zM185 -99h21v-39l-9 -85h-8z" />
    <glyph glyph-name="lcommaaccent" unicode="&#x13c;" horiz-adv-x="145" 
d="M121 19h19l1 -20h-22q-66 0 -66 96v641l17 4h5v-642q0 -42 10.5 -60.5t35.5 -18.5zM101 -76h21v-39l-9 -85h-8z" />
    <glyph glyph-name="Lcaron" unicode="&#x13d;" horiz-adv-x="354" 
d="M80 710v-690h261l-3 -20h-280v710h22zM291 710h24l-5 -169h-15z" />
    <glyph glyph-name="lcaron" unicode="&#x13e;" horiz-adv-x="146" 
d="M121 19h19l1 -20h-22q-66 0 -66 96v641l17 4h5v-642q0 -42 10.5 -60.5t35.5 -18.5zM135 763h24l-5 -169h-15z" />
    <glyph glyph-name="Ldot" unicode="&#x13f;" horiz-adv-x="358" 
d="M80 710v-690h261l-3 -20h-280v710h22zM313 241v44h24v-44h-24z" />
    <glyph glyph-name="ldot" unicode="&#x140;" horiz-adv-x="195" 
d="M121 19h19l1 -20h-22q-66 0 -66 96v641l17 4h5v-642q0 -42 10.5 -60.5t35.5 -18.5zM153 347v44h24v-44h-24z" />
    <glyph glyph-name="Lslash" unicode="&#x141;" horiz-adv-x="367" 
d="M96 710v-407l125 101l4 -19l-129 -104v-261h261l-3 -20h-280v263l-64 -51l-4 19l68 54v425h22z" />
    <glyph glyph-name="lslash" unicode="&#x142;" horiz-adv-x="189" 
d="M144 19h20l1 -20h-22q-66 0 -66 96v275l-67 -51v21l67 51v345l16 4h6v-332l82 64v-21l-82 -64v-289q0 -79 45 -79z" />
    <glyph glyph-name="Nacute" unicode="&#x143;" horiz-adv-x="465" 
d="M80 0h-22v710h22l266 -582q11 -25 38 -90v672h23v-710h-23l-255 559q-13 29 -30.5 70.5t-18.5 44.5v-674zM227 749h-21l63 106h28z" />
    <glyph glyph-name="nacute" unicode="&#x144;" horiz-adv-x="357" 
d="M53 0v501l16 4h6v-47q25 53 79 53h54q52 0 75 -30.5t23 -94.5v-386h-22v386q0 56 -19 80.5t-59 24.5h-53q-34 0 -54.5 -24.5t-23.5 -52.5v-414h-22zM181 579h-21l63 106h28z" />
    <glyph glyph-name="Ncommaaccent" unicode="&#x145;" horiz-adv-x="465" 
d="M80 0h-22v710h22l266 -582q11 -25 38 -90v672h23v-710h-23l-255 559q-13 29 -30.5 70.5t-18.5 44.5v-674zM210 -76h21v-39l-9 -85h-8z" />
    <glyph glyph-name="ncommaaccent" unicode="&#x146;" horiz-adv-x="357" 
d="M53 0v501l16 4h6v-47q25 53 79 53h54q52 0 75 -30.5t23 -94.5v-386h-22v386q0 56 -19 80.5t-59 24.5h-53q-34 0 -54.5 -24.5t-23.5 -52.5v-414h-22zM168 -76h21v-39l-9 -85h-8z" />
    <glyph glyph-name="Ncaron" unicode="&#x147;" horiz-adv-x="465" 
d="M80 0h-22v710h22l266 -582q11 -25 38 -90v672h23v-710h-23l-255 559q-13 29 -30.5 70.5t-18.5 44.5v-674zM246 749h-14l-75 90h25l57 -70l57 70h26z" />
    <glyph glyph-name="ncaron" unicode="&#x148;" horiz-adv-x="357" 
d="M53 0v501l16 4h6v-47q25 53 79 53h54q52 0 75 -30.5t23 -94.5v-386h-22v386q0 56 -19 80.5t-59 24.5h-53q-34 0 -54.5 -24.5t-23.5 -52.5v-414h-22zM192 579h-14l-75 90h25l57 -70l57 70h26z" />
    <glyph glyph-name="napostrophe" unicode="&#x149;" horiz-adv-x="357" 
d="M53 0v501l16 4h6v-47q25 53 79 53h54q52 0 75 -30.5t23 -94.5v-386h-22v386q0 56 -19 80.5t-59 24.5h-53q-34 0 -54.5 -24.5t-23.5 -52.5v-414h-22z" />
    <glyph glyph-name="Eng" unicode="&#x14a;" horiz-adv-x="465" 
d="M307 -169q40 0 58.5 26t18.5 83v60l-255 559q-13 29 -30.5 70.5t-18.5 44.5v-674h-22v710h22l266 -582q11 -25 38 -90v672h23v-710h-1v-63q0 -126 -98 -126h-77l3 20h73z" />
    <glyph glyph-name="eng" unicode="&#x14b;" horiz-adv-x="357" 
d="M223 -145q32 0 46.5 21t14.5 68v442q0 56 -19 80.5t-59 24.5h-53q-34 0 -54.5 -24.5t-23.5 -52.5v-414h-22v501l16 4h6v-47q25 53 79 53h54q52 0 75 -30.5t23 -94.5v-445q0 -106 -81 -106h-21l3 20h16z" />
    <glyph glyph-name="Omacron" unicode="&#x14c;" horiz-adv-x="461" 
d="M54 135v440q0 70 22.5 102.5t79.5 32.5h148q57 0 80 -32.5t23 -102.5v-440q0 -70 -23 -102.5t-80 -32.5h-148q-57 0 -79.5 32.5t-22.5 102.5zM154 690q-43 0 -60.5 -27t-17.5 -85v-446q0 -58 17.5 -85t60.5 -27h152q43 0 60.5 26.5t17.5 85.5v446q0 59 -17.5 85.5
t-60.5 26.5h-152zM318 776l-3 -20h-157l3 20h157z" />
    <glyph glyph-name="omacron" unicode="&#x14d;" horiz-adv-x="363" 
d="M50 376q0 70 23 102.5t79 32.5h60q56 0 79 -32.5t23 -102.5v-251q0 -63 -24 -94t-77 -31h-62q-53 0 -77 31t-24 94v251zM214 491h-64q-43 0 -60.5 -27t-17.5 -85v-248q0 -61 18.5 -86t59.5 -25h64q41 0 59.5 25t18.5 86v248q0 58 -17.5 85t-60.5 27zM266 606l-3 -20h-157
l3 20h157z" />
    <glyph glyph-name="Obreve" unicode="&#x14e;" horiz-adv-x="461" 
d="M54 135v440q0 70 22.5 102.5t79.5 32.5h148q57 0 80 -32.5t23 -102.5v-440q0 -70 -23 -102.5t-80 -32.5h-148q-57 0 -79.5 32.5t-22.5 102.5zM154 690q-43 0 -60.5 -27t-17.5 -85v-446q0 -58 17.5 -85t60.5 -27h152q43 0 60.5 26.5t17.5 85.5v446q0 59 -17.5 85.5
t-60.5 26.5h-152zM248 749h-26q-56 0 -56 62v11h18v-13q0 -41 41 -41h21q40 0 40 41v13h18v-11q0 -62 -56 -62z" />
    <glyph glyph-name="obreve" unicode="&#x14f;" horiz-adv-x="364" 
d="M50 376q0 70 23 102.5t79 32.5h60q56 0 79 -32.5t23 -102.5v-251q0 -63 -24 -94t-77 -31h-62q-53 0 -77 31t-24 94v251zM214 491h-64q-43 0 -60.5 -27t-17.5 -85v-248q0 -61 18.5 -86t59.5 -25h64q41 0 59.5 25t18.5 86v248q0 58 -17.5 85t-60.5 27zM195 579h-26
q-56 0 -56 62v11h18v-13q0 -41 41 -41h21q40 0 40 41v13h18v-11q0 -62 -56 -62z" />
    <glyph glyph-name="Ohungarumlaut" unicode="&#x150;" horiz-adv-x="461" 
d="M54 135v440q0 70 22.5 102.5t79.5 32.5h148q57 0 80 -32.5t23 -102.5v-440q0 -70 -23 -102.5t-80 -32.5h-148q-57 0 -79.5 32.5t-22.5 102.5zM154 690q-43 0 -60.5 -27t-17.5 -85v-446q0 -58 17.5 -85t60.5 -27h152q43 0 60.5 26.5t17.5 85.5v446q0 59 -17.5 85.5
t-60.5 26.5h-152zM250 850h26l-69 -106h-20zM305 850h26l-69 -106h-20z" />
    <glyph glyph-name="ohungarumlaut" unicode="&#x151;" horiz-adv-x="364" 
d="M50 376q0 70 23 102.5t79 32.5h60q56 0 79 -32.5t23 -102.5v-251q0 -63 -24 -94t-77 -31h-62q-53 0 -77 31t-24 94v251zM214 491h-64q-43 0 -60.5 -27t-17.5 -85v-248q0 -61 18.5 -86t59.5 -25h64q41 0 59.5 25t18.5 86v248q0 58 -17.5 85t-60.5 27zM198 680h26l-69 -106
h-20zM253 680h26l-69 -106h-20z" />
    <glyph glyph-name="OE" unicode="&#x152;" horiz-adv-x="685" 
d="M392 690v-382h230l-3 -20h-227v-268h271l-3 -20h-290v33q-24 -33 -81 -33h-133q-57 0 -79.5 32.5t-22.5 102.5v440q0 70 22.5 102.5t79.5 32.5h133q57 0 81 -34v34h291l-3 -20h-266zM154 690q-43 0 -60.5 -27t-17.5 -85v-446q0 -58 17.5 -85t60.5 -27h137q43 0 60.5 26.5
t17.5 85.5v79h1v290h-1v77q0 59 -17.5 85.5t-60.5 26.5h-137z" />
    <glyph glyph-name="oe" unicode="&#x153;" horiz-adv-x="592" 
d="M394 20h57q43 0 60.5 27t17.5 85v18h22v-15q0 -69 -23 -102t-80 -33h-53q-73 0 -92 54q-23 -54 -90 -54h-62q-53 0 -77 31t-24 94v251q0 70 23 102.5t79 32.5h60q66 0 89 -50q20 50 94 50h51q57 0 79.5 -27t22.5 -85v-55q0 -56 -22 -81.5t-81 -25.5h-131v-112
q1 -53 19 -79t61 -26zM214 491h-64q-43 0 -60.5 -27t-17.5 -85v-248q0 -61 18.5 -86t59.5 -25h64q41 0 59.5 25t18.5 86v248q0 58 -17.5 85t-60.5 27zM450 491h-59q-42 0 -59.5 -22.5t-17.5 -69.5v-142h131q47 0 64.5 20.5t17.5 66.5v55q0 47 -17.5 69.5t-59.5 22.5z" />
    <glyph glyph-name="Racute" unicode="&#x154;" horiz-adv-x="409" 
d="M58 0v710h195q109 0 109 -135v-132q0 -135 -109 -135h-27l172 -308h-26l-173 308h-119v-308h-22zM80 690v-362h174q44 0 64.5 28.5t20.5 90.5v124q0 62 -20.5 90.5t-64.5 28.5h-174zM192 749h-21l63 106h28z" />
    <glyph glyph-name="racute" unicode="&#x155;" horiz-adv-x="221" 
d="M214 492l-94 -43q-45 -22 -45 -79v-370h-22v501l16 4h6v-72q10 21 40 36l90 42h7zM131 574h-21l63 106h28z" />
    <glyph glyph-name="Rcommaaccent" unicode="&#x156;" horiz-adv-x="409" 
d="M58 0v710h195q109 0 109 -135v-132q0 -135 -109 -135h-27l172 -308h-26l-173 308h-119v-308h-22zM80 690v-362h174q44 0 64.5 28.5t20.5 90.5v124q0 62 -20.5 90.5t-64.5 28.5h-174zM217 -76h21v-39l-9 -85h-8z" />
    <glyph glyph-name="rcommaaccent" unicode="&#x157;" horiz-adv-x="221" 
d="M214 492l-94 -43q-45 -22 -45 -79v-370h-22v501l16 4h6v-72q10 21 40 36l90 42h7zM127 -76h21v-39l-9 -85h-8z" />
    <glyph glyph-name="Rcaron" unicode="&#x158;" horiz-adv-x="409" 
d="M58 0v710h195q109 0 109 -135v-132q0 -135 -109 -135h-27l172 -308h-26l-173 308h-119v-308h-22zM80 690v-362h174q44 0 64.5 28.5t20.5 90.5v124q0 62 -20.5 90.5t-64.5 28.5h-174zM203 749h-14l-75 90h25l57 -70l57 70h26z" />
    <glyph glyph-name="rcaron" unicode="&#x159;" horiz-adv-x="221" 
d="M214 492l-94 -43q-45 -22 -45 -79v-370h-22v501l16 4h6v-72q10 21 40 36l90 42h7zM142 574h-14l-75 90h25l57 -70l57 70h26z" />
    <glyph glyph-name="Sacute" unicode="&#x15a;" horiz-adv-x="406" 
d="M287 314l-174 92q-38 20 -52.5 45t-14.5 72v58q0 68 23.5 98.5t74.5 30.5h109q54 0 79.5 -30.5t25.5 -98.5v-80h-22v81q0 108 -81 108h-106q-45 0 -63 -25t-18 -88v-54q0 -38 11 -58.5t42 -37.5l177 -93q40 -21 54 -46.5t14 -78.5v-84q0 -125 -94 -125h-132
q-54 0 -78 30.5t-24 94.5v86h22v-86q0 -55 18.5 -80t59.5 -25h128q41 0 59.5 25t18.5 80v84q0 45 -11 65.5t-46 39.5zM206 749h-21l63 106h28z" />
    <glyph glyph-name="sacute" unicode="&#x15b;" horiz-adv-x="319" 
d="M183 491h-49q-38 0 -53.5 -20t-15.5 -62v-23q0 -30 8.5 -47.5t19 -24.5t37.5 -20l88 -41q32 -15 48 -37.5t16 -70.5v-40q0 -54 -20.5 -79.5t-73.5 -25.5h-59q-53 0 -73.5 27.5t-20.5 87.5v34h22v-37q0 -49 15.5 -70.5t53.5 -21.5h65q38 0 54 20t16 62v42q0 39 -12 58.5
t-41 33.5l-85 39q-31 14 -44.5 23t-24.5 31.5t-11 59.5v17q0 54 20.5 79.5t73.5 25.5h43q53 0 73.5 -27.5t20.5 -87.5v-25h-21v28q0 47 -16 69.5t-54 22.5zM156 579h-21l63 106h28z" />
    <glyph glyph-name="Scircumflex" unicode="&#x15c;" horiz-adv-x="405" 
d="M287 314l-174 92q-38 20 -52.5 45t-14.5 72v58q0 68 23.5 98.5t74.5 30.5h109q54 0 79.5 -30.5t25.5 -98.5v-80h-22v81q0 108 -81 108h-106q-45 0 -63 -25t-18 -88v-54q0 -38 11 -58.5t42 -37.5l177 -93q40 -21 54 -46.5t14 -78.5v-84q0 -125 -94 -125h-132
q-54 0 -78 30.5t-24 94.5v86h22v-86q0 -55 18.5 -80t59.5 -25h128q41 0 59.5 25t18.5 80v84q0 45 -11 65.5t-46 39.5zM199 839h19l76 -90h-26l-57 70h-6l-56 -70h-26z" />
    <glyph glyph-name="scircumflex" unicode="&#x15d;" horiz-adv-x="319" 
d="M183 491h-49q-38 0 -53.5 -20t-15.5 -62v-23q0 -30 8.5 -47.5t19 -24.5t37.5 -20l88 -41q32 -15 48 -37.5t16 -70.5v-40q0 -54 -20.5 -79.5t-73.5 -25.5h-59q-53 0 -73.5 27.5t-20.5 87.5v34h22v-37q0 -49 15.5 -70.5t53.5 -21.5h65q38 0 54 20t16 62v42q0 39 -12 58.5
t-41 33.5l-85 39q-31 14 -44.5 23t-24.5 31.5t-11 59.5v17q0 54 20.5 79.5t73.5 25.5h43q53 0 73.5 -27.5t20.5 -87.5v-25h-21v28q0 47 -16 69.5t-54 22.5zM150 669h19l76 -90h-26l-57 70h-6l-56 -70h-26z" />
    <glyph glyph-name="Scedilla" unicode="&#x15e;" horiz-adv-x="406" 
d="M222 -64l-15 2q-22 3 -22 36v26h-45q-54 0 -78 30.5t-24 94.5v86h22v-86q0 -55 18.5 -80t59.5 -25h128q41 0 59.5 25t18.5 80v84q0 45 -11 65.5t-46 39.5l-174 92q-38 20 -52.5 45t-14.5 72v58q0 68 23.5 98.5t74.5 30.5h109q54 0 79.5 -30.5t25.5 -98.5v-80h-22v81
q0 108 -81 108h-106q-45 0 -63 -25t-18 -88v-54q0 -38 11 -58.5t42 -37.5l177 -93q40 -21 54 -46.5t14 -78.5v-84q0 -125 -94 -125h-67v-19q0 -21 11 -23l21 -4q26 -5 26 -43v-13q0 -52 -47 -52h-15q-45 0 -45 46v14h19v-13q0 -28 25 -28h16q28 0 28 30v13q0 25 -22 28z" />
    <glyph glyph-name="scedilla" unicode="&#x15f;" horiz-adv-x="318" 
d="M172 -64l-15 2q-22 3 -22 36v26h-6q-53 0 -73.5 27.5t-20.5 87.5v34h22v-37q0 -49 15.5 -70.5t53.5 -21.5h65q38 0 54 20t16 62v42q0 39 -12 58.5t-41 33.5l-85 39q-31 14 -44.5 23t-24.5 31.5t-11 59.5v17q0 54 20.5 79.5t73.5 25.5h43q53 0 73.5 -27.5t20.5 -87.5v-25
h-21v28q0 47 -16 69.5t-54 22.5h-49q-38 0 -53.5 -20t-15.5 -62v-23q0 -30 8.5 -47.5t19 -24.5t37.5 -20l88 -41q32 -15 48 -37.5t16 -70.5v-40q0 -54 -20.5 -79.5t-73.5 -25.5h-33v-19q0 -21 11 -23l21 -4q26 -5 26 -43v-13q0 -52 -47 -52h-15q-45 0 -45 46v14h19v-13
q0 -28 25 -28h16q28 0 28 30v13q0 25 -22 28z" />
    <glyph glyph-name="Scaron" unicode="&#x160;" horiz-adv-x="406" 
d="M287 314l-174 92q-38 20 -52.5 45t-14.5 72v58q0 68 23.5 98.5t74.5 30.5h109q54 0 79.5 -30.5t25.5 -98.5v-80h-22v81q0 108 -81 108h-106q-45 0 -63 -25t-18 -88v-54q0 -38 11 -58.5t42 -37.5l177 -93q40 -21 54 -46.5t14 -78.5v-84q0 -125 -94 -125h-132
q-54 0 -78 30.5t-24 94.5v86h22v-86q0 -55 18.5 -80t59.5 -25h128q41 0 59.5 25t18.5 80v84q0 45 -11 65.5t-46 39.5zM215 749h-14l-75 90h25l57 -70l57 70h26z" />
    <glyph glyph-name="scaron" unicode="&#x161;" horiz-adv-x="319" 
d="M183 491h-49q-38 0 -53.5 -20t-15.5 -62v-23q0 -30 8.5 -47.5t19 -24.5t37.5 -20l88 -41q32 -15 48 -37.5t16 -70.5v-40q0 -54 -20.5 -79.5t-73.5 -25.5h-59q-53 0 -73.5 27.5t-20.5 87.5v34h22v-37q0 -49 15.5 -70.5t53.5 -21.5h65q38 0 54 20t16 62v42q0 39 -12 58.5
t-41 33.5l-85 39q-31 14 -44.5 23t-24.5 31.5t-11 59.5v17q0 54 20.5 79.5t73.5 25.5h43q53 0 73.5 -27.5t20.5 -87.5v-25h-21v28q0 47 -16 69.5t-54 22.5zM167 579h-14l-75 90h25l57 -70l57 70h26z" />
    <glyph glyph-name="Tcommaaccent" unicode="&#x162;" horiz-adv-x="337" 
d="M327 690h-147v-690h-22v690h-148v20h317v-20zM158 -76h21v-39l-9 -85h-8z" />
    <glyph glyph-name="Tcaron" unicode="&#x164;" horiz-adv-x="337" 
d="M327 690h-147v-690h-22v690h-148v20h317v-20zM175 749h-14l-75 90h25l57 -70l57 70h26z" />
    <glyph glyph-name="tcaron" unicode="&#x165;" horiz-adv-x="208" 
d="M183 505l-2 -20h-86v-356q0 -109 76 -109h32l2 -20h-35q-97 0 -97 126v359h-63l2 20h61v136l17 4h5v-140h88zM159 726h24l-5 -169h-15z" />
    <glyph glyph-name="Tbar" unicode="&#x166;" horiz-adv-x="337" 
d="M327 690h-147v-203h58l-2 -20h-56v-467h-22v467h-56l2 20h54v203h-148v20h317v-20z" />
    <glyph glyph-name="Utilde" unicode="&#x168;" horiz-adv-x="447" 
d="M277 20q48 0 69.5 30.5t21.5 98.5v561h23v-564q0 -74 -27 -110t-86 -36h-109q-59 0 -86 36t-27 110v564h22v-561q0 -67 22 -98t70 -31h107zM264 817q20 0 28.5 -9t8.5 -30v-20h-18v22q0 18 -20 18q-16 0 -25 -11l-20 -25q-11 -14 -35 -14q-23 0 -30 8.5t-7 30.5v20h18
v-22q0 -10 3.5 -14t16.5 -4q8 0 13 2t7.5 4.5t8.5 10.5l15 19q11 14 36 14z" />
    <glyph glyph-name="utilde" unicode="&#x169;" horiz-adv-x="355" 
d="M302 505v-505h-21l-1 54q-28 -54 -89 -54h-42q-52 0 -75 30.5t-23 94.5v380h22v-380q0 -56 19 -80.5t59 -24.5h43q36 0 60 26t26 53v406h22zM215 647q20 0 28.5 -9t8.5 -30v-20h-18v22q0 18 -20 18q-16 0 -25 -11l-20 -25q-11 -14 -35 -14q-23 0 -30 8.5t-7 30.5v20h18
v-22q0 -10 3.5 -14t16.5 -4q8 0 13 2t7.5 4.5t8.5 10.5l15 19q11 14 36 14z" />
    <glyph glyph-name="Umacron" unicode="&#x16a;" horiz-adv-x="447" 
d="M277 20q48 0 69.5 30.5t21.5 98.5v561h23v-564q0 -74 -27 -110t-86 -36h-109q-59 0 -86 36t-27 110v564h22v-561q0 -67 22 -98t70 -31h107zM307 776l-3 -20h-157l3 20h157z" />
    <glyph glyph-name="umacron" unicode="&#x16b;" horiz-adv-x="355" 
d="M302 505v-505h-21l-1 54q-28 -54 -89 -54h-42q-52 0 -75 30.5t-23 94.5v380h22v-380q0 -56 19 -80.5t59 -24.5h43q36 0 60 26t26 53v406h22zM258 606l-3 -20h-157l3 20h157z" />
    <glyph glyph-name="Ubreve" unicode="&#x16c;" horiz-adv-x="447" 
d="M277 20q48 0 69.5 30.5t21.5 98.5v561h23v-564q0 -74 -27 -110t-86 -36h-109q-59 0 -86 36t-27 110v564h22v-561q0 -67 22 -98t70 -31h107zM236 749h-26q-56 0 -56 62v11h18v-13q0 -41 41 -41h21q40 0 40 41v13h18v-11q0 -62 -56 -62z" />
    <glyph glyph-name="ubreve" unicode="&#x16d;" horiz-adv-x="355" 
d="M302 505v-505h-21l-1 54q-28 -54 -89 -54h-42q-52 0 -75 30.5t-23 94.5v380h22v-380q0 -56 19 -80.5t59 -24.5h43q36 0 60 26t26 53v406h22zM187 579h-26q-56 0 -56 62v11h18v-13q0 -41 41 -41h21q40 0 40 41v13h18v-11q0 -62 -56 -62z" />
    <glyph glyph-name="Uring" unicode="&#x16e;" horiz-adv-x="447" 
d="M277 20q48 0 69.5 30.5t21.5 98.5v561h23v-564q0 -74 -27 -110t-86 -36h-109q-59 0 -86 36t-27 110v564h22v-561q0 -67 22 -98t70 -31h107zM217 884h13q61 0 61 -62v-21q0 -62 -61 -62h-13q-61 0 -61 62v21q0 62 61 62zM272 799v25q0 40 -38 40h-21q-39 0 -39 -40v-25
q0 -40 39 -40h21q38 0 38 40z" />
    <glyph glyph-name="uring" unicode="&#x16f;" horiz-adv-x="355" 
d="M302 505v-505h-21l-1 54q-28 -54 -89 -54h-42q-52 0 -75 30.5t-23 94.5v380h22v-380q0 -56 19 -80.5t59 -24.5h43q36 0 60 26t26 53v406h22zM168 714h13q61 0 61 -62v-21q0 -62 -61 -62h-13q-61 0 -61 62v21q0 62 61 62zM223 629v25q0 40 -38 40h-21q-39 0 -39 -40v-25
q0 -40 39 -40h21q38 0 38 40z" />
    <glyph glyph-name="Uhungarumlaut" unicode="&#x170;" horiz-adv-x="447" 
d="M277 20q48 0 69.5 30.5t21.5 98.5v561h23v-564q0 -74 -27 -110t-86 -36h-109q-59 0 -86 36t-27 110v564h22v-561q0 -67 22 -98t70 -31h107zM239 850h26l-69 -106h-20zM294 850h26l-69 -106h-20z" />
    <glyph glyph-name="uhungarumlaut" unicode="&#x171;" horiz-adv-x="355" 
d="M302 505v-505h-21l-1 54q-28 -54 -89 -54h-42q-52 0 -75 30.5t-23 94.5v380h22v-380q0 -56 19 -80.5t59 -24.5h43q36 0 60 26t26 53v406h22zM190 680h26l-69 -106h-20zM245 680h26l-69 -106h-20z" />
    <glyph glyph-name="Uogonek" unicode="&#x172;" horiz-adv-x="447" 
d="M158 -92v9q0 29 30 48q14 9 18.5 15.5t5.5 19.5h-43q-59 0 -86 36t-27 110v564h22v-561q0 -67 22 -98t70 -31h107q48 0 69.5 30.5t21.5 98.5v561h23v-564q0 -74 -27 -110t-86 -36h-47q-1 -22 -9 -33t-24 -21q-20 -12 -20 -31q0 -13 6 -16.5t21 -3.5h42l-3 -20h-39
q-47 0 -47 33z" />
    <glyph glyph-name="uogonek" unicode="&#x173;" horiz-adv-x="355" 
d="M230 -89v9q0 29 30 48q23 14 24 32h-3l-1 54q-28 -54 -89 -54h-42q-52 0 -75 30.5t-23 94.5v380h22v-380q0 -56 19 -80.5t59 -24.5h43q36 0 60 26t26 53v406h22v-482h1v-16q0 -39 -33 -58q-20 -12 -20 -31q0 -13 6 -16.5t21 -3.5h42l-3 -20h-39q-47 0 -47 33z" />
    <glyph glyph-name="Wcircumflex" unicode="&#x174;" horiz-adv-x="645" 
d="M206 0h-30l-150 710h23l130 -628q10 -51 11 -60q3 27 9 59l111 629h25l112 -629q6 -32 9 -58q1 14 10 57l130 630h23l-150 -710h-29l-113 643q-4 24 -4 39q-3 -30 -4 -39zM313 839h19l76 -90h-26l-57 70h-6l-56 -70h-26z" />
    <glyph glyph-name="wcircumflex" unicode="&#x175;" horiz-adv-x="523" 
d="M172 0h-30l-116 505h24l107 -485l91 485h27l91 -485l107 485h24l-116 -505h-30l-83 435q-6 18 -7 29q-2 -16 -6 -29zM251 669h19l76 -90h-26l-57 70h-6l-56 -70h-26z" />
    <glyph glyph-name="Ycircumflex" unicode="&#x176;" horiz-adv-x="392" 
d="M207 0h-22v306l-165 404h24l134 -335q16 -41 18 -53q4 18 18 52l134 336h23l-164 -404v-306zM187 839h19l76 -90h-26l-57 70h-6l-56 -70h-26z" />
    <glyph glyph-name="ycircumflex" unicode="&#x177;" horiz-adv-x="332" 
d="M49 -205q61 0 79 72l30 122h-6l-127 516h23l118 -481l118 481h24l-160 -639q-11 -45 -31 -68t-67 -23h-39l3 20h35zM151 669h19l76 -90h-26l-57 70h-6l-56 -70h-26z" />
    <glyph glyph-name="Ydieresis" unicode="&#x178;" horiz-adv-x="392" 
d="M207 0h-22v306l-165 404h24l134 -335q16 -41 18 -53q4 18 18 52l134 336h23l-164 -404v-306zM137 775h22v-36h-22v36zM233 775h22v-36h-22v36z" />
    <glyph glyph-name="Zacute" unicode="&#x179;" horiz-adv-x="342" 
d="M322 690l-281 -670h289l-3 -20h-309l-3 20l281 670h-276l-4 20h303zM165 749h-21l63 106h28z" />
    <glyph glyph-name="zacute" unicode="&#x17a;" horiz-adv-x="297" 
d="M271 485l-224 -465h230l-3 -20h-249l-3 20l223 465h-219l-2 20h244zM145 579h-21l63 106h28z" />
    <glyph glyph-name="Zdotaccent" unicode="&#x17b;" horiz-adv-x="342" 
d="M322 690l-281 -670h289l-3 -20h-309l-3 20l281 670h-276l-4 20h303zM153 784h31v-35h-31v35z" />
    <glyph glyph-name="zdotaccent" unicode="&#x17c;" horiz-adv-x="297" 
d="M271 485l-224 -465h230l-3 -20h-249l-3 20l223 465h-219l-2 20h244zM134 614h31v-35h-31v35z" />
    <glyph glyph-name="Zcaron" unicode="&#x17d;" horiz-adv-x="342" 
d="M322 690l-281 -670h289l-3 -20h-309l-3 20l281 670h-276l-4 20h303zM176 749h-14l-75 90h25l57 -70l57 70h26z" />
    <glyph glyph-name="zcaron" unicode="&#x17e;" horiz-adv-x="297" 
d="M271 485l-224 -465h230l-3 -20h-249l-3 20l223 465h-219l-2 20h244zM156 579h-14l-75 90h25l57 -70l57 70h26z" />
    <glyph glyph-name="florin" unicode="&#x192;" horiz-adv-x="231" 
d="M193 720q-40 0 -58.5 -26t-18.5 -83v-152h85l-4 -20h-81v-486q0 -126 -98 -126h-43l5 20h38q40 0 58 26t18 83v483h-68l4 20h64v155q0 126 99 126h43l-5 -20h-38z" />
    <glyph glyph-name="AEacute" unicode="&#x1fc;" horiz-adv-x="639" 
d="M625 710l-3 -20h-282l35 -390h196l-3 -20h-191l23 -260h213l-4 -20h-229l-15 166h-263l-72 -166h-29l315 710h309zM320 668l-210 -482h253zM346 759h-21l63 106h28z" />
    <glyph glyph-name="aeacute" unicode="&#x1fd;" horiz-adv-x="569" 
d="M370 20h57q43 0 60.5 27t17.5 85v18h22v-15q0 -69 -23 -102t-80 -33h-51q-77 0 -95 63q-25 -63 -104 -63h-36q-52 0 -76 24t-24 81v73q0 105 100 105h131v133q0 41 -13 58.5t-42 17.5h-89q-57 0 -57 -75v-25h-22v25q0 94 78 94h92q51 0 68 -46q21 46 89 46h51
q57 0 80 -27t23 -85v-55q0 -56 -22 -81.5t-80 -25.5h-133v-105q0 -57 17.5 -84.5t60.5 -27.5zM139 20h38q48 0 70 26.5t22 88.5v128h-132q-40 0 -58.5 -20.5t-18.5 -63.5v-74q0 -50 19.5 -67.5t59.5 -17.5zM427 491h-57q-43 0 -60.5 -26.5t-17.5 -85.5v-122h136
q43 0 60 20.5t17 66.5v55q0 47 -17.5 69.5t-60.5 22.5zM294 578h-21l63 106h28z" />
    <glyph glyph-name="Oslashacute" unicode="&#x1fe;" horiz-adv-x="450" 
d="M413 750h26l-54 -106q7 -27 7 -69v-440q0 -70 -22.5 -102.5t-79.5 -32.5h-133q-59 0 -82 36l-39 -76h-27l53 104q-7 27 -7 71v440q0 70 22.5 102.5t79.5 32.5h133q60 0 83 -38zM155 690q-43 0 -60.5 -27t-17.5 -85v-446q0 -25 2 -36l281 551q-16 43 -68 43h-137zM292 20
q43 0 60.5 27t17.5 85v446q0 13 -2 33l-281 -551q18 -40 68 -40h137zM217 749h-21l63 106h28z" />
    <glyph glyph-name="oslashacute" unicode="&#x1ff;" horiz-adv-x="369" 
d="M50 376q0 70 23 102.5t79 32.5h60q63 0 86 -44l45 75h25l-61 -101q7 -25 7 -65v-251q0 -63 -24 -94t-77 -31h-62q-60 0 -84 41l-47 -79h-26l63 104q-7 24 -7 59v251zM214 491h-64q-43 0 -60.5 -27t-17.5 -85v-248q0 -26 2 -37l210 350q-16 47 -70 47zM292 379q0 13 -2 33
l-209 -349q15 -43 69 -43h64q41 0 59.5 25t18.5 86v248zM180 579h-21l63 106h28z" />
    <glyph glyph-name="Scommaaccent" unicode="&#x218;" horiz-adv-x="406" 
d="M287 314l-174 92q-38 20 -52.5 45t-14.5 72v58q0 68 23.5 98.5t74.5 30.5h109q54 0 79.5 -30.5t25.5 -98.5v-80h-22v81q0 108 -81 108h-106q-45 0 -63 -25t-18 -88v-54q0 -38 11 -58.5t42 -37.5l177 -93q40 -21 54 -46.5t14 -78.5v-84q0 -125 -94 -125h-132
q-54 0 -78 30.5t-24 94.5v86h22v-86q0 -55 18.5 -80t59.5 -25h128q41 0 59.5 25t18.5 80v84q0 45 -11 65.5t-46 39.5zM205 -76h21v-39l-9 -85h-8z" />
    <glyph glyph-name="scommaaccent" unicode="&#x219;" horiz-adv-x="319" 
d="M183 491h-49q-38 0 -53.5 -20t-15.5 -62v-23q0 -30 8.5 -47.5t19 -24.5t37.5 -20l88 -41q32 -15 48 -37.5t16 -70.5v-40q0 -54 -20.5 -79.5t-73.5 -25.5h-59q-53 0 -73.5 27.5t-20.5 87.5v34h22v-37q0 -49 15.5 -70.5t53.5 -21.5h65q38 0 54 20t16 62v42q0 39 -12 58.5
t-41 33.5l-85 39q-31 14 -44.5 23t-24.5 31.5t-11 59.5v17q0 54 20.5 79.5t73.5 25.5h43q53 0 73.5 -27.5t20.5 -87.5v-25h-21v28q0 47 -16 69.5t-54 22.5zM149 -76h21v-39l-9 -85h-8z" />
    <glyph glyph-name="dotlessj" unicode="&#x237;" horiz-adv-x="133" 
d="M58 485h-41v20h63v-564q0 -106 -81 -106h-21l3 20h16q32 0 46.5 21t14.5 68v541z" />
    <glyph glyph-name="circumflex" unicode="&#x2c6;" horiz-adv-x="478" 
d="M199 715h19l76 -90h-26l-57 70h-6l-56 -70h-26z" />
    <glyph glyph-name="caron" unicode="&#x2c7;" horiz-adv-x="668" 
d="M215 625h-14l-75 90h25l57 -70l57 70h26z" />
    <glyph glyph-name="breve" unicode="&#x2d8;" horiz-adv-x="666" 
d="M310 599h-26q-56 0 -56 62v11h18v-13q0 -41 41 -41h21q40 0 40 41v13h18v-11q0 -62 -56 -62z" />
    <glyph glyph-name="dotaccent" unicode="&#x2d9;" horiz-adv-x="666" 
d="M244 715h31v-35h-31v35z" />
    <glyph glyph-name="ring" unicode="&#x2da;" horiz-adv-x="667" 
d="M270 677h13q61 0 61 -62v-21q0 -62 -61 -62h-13q-61 0 -61 62v21q0 62 61 62zM325 592v25q0 40 -38 40h-21q-39 0 -39 -40v-25q0 -40 39 -40h21q38 0 38 40z" />
    <glyph glyph-name="ogonek" unicode="&#x2db;" horiz-adv-x="667" 
d="M239 -89v9q0 29 30 48q15 9 19.5 16t4.5 23v16h19v-16q0 -39 -33 -58q-20 -12 -20 -31q0 -13 6 -16.5t21 -3.5h42l-3 -20h-39q-47 0 -47 33z" />
    <glyph glyph-name="tilde" unicode="&#x2dc;" horiz-adv-x="666" 
d="M273 688q20 0 28.5 -9t8.5 -30v-20h-18v22q0 18 -20 18q-16 0 -25 -11l-20 -25q-11 -14 -35 -14q-23 0 -30 8.5t-7 30.5v20h18v-22q0 -10 3.5 -14t16.5 -4q8 0 13 2t7.5 4.5t8.5 10.5l15 19q11 14 36 14z" />
    <glyph glyph-name="hungarumlaut" unicode="&#x2dd;" horiz-adv-x="217" 
d="M120 730h26l-69 -106h-20zM175 730h26l-69 -106h-20z" />
    <glyph glyph-name="Wgrave" unicode="&#x1e80;" horiz-adv-x="645" 
d="M206 0h-30l-150 710h23l130 -628q10 -51 11 -60q3 27 9 59l111 629h25l112 -629q6 -32 9 -58q1 14 10 57l130 630h23l-150 -710h-29l-113 643q-4 24 -4 39q-3 -30 -4 -39zM247 845h28l71 -96h-20z" />
    <glyph glyph-name="wgrave" unicode="&#x1e81;" horiz-adv-x="523" 
d="M172 0h-30l-116 505h24l107 -485l91 485h27l91 -485l107 485h24l-116 -505h-30l-83 435q-6 18 -7 29q-2 -16 -6 -29zM186 675h28l71 -96h-20z" />
    <glyph glyph-name="Wacute" unicode="&#x1e82;" horiz-adv-x="645" 
d="M206 0h-30l-150 710h23l130 -628q10 -51 11 -60q3 27 9 59l111 629h25l112 -629q6 -30 9 -60q2 18 10 59l130 630h23l-150 -710h-29l-113 643q-4 24 -4 39q-3 -30 -4 -39zM318 749h-21l63 106h28z" />
    <glyph glyph-name="wacute" unicode="&#x1e83;" horiz-adv-x="523" 
d="M172 0h-30l-116 505h24l107 -485l91 485h27l91 -485l107 485h24l-116 -505h-30l-83 435q-6 18 -7 29q-2 -16 -6 -29zM257 579h-21l63 106h28z" />
    <glyph glyph-name="Wdieresis" unicode="&#x1e84;" horiz-adv-x="645" 
d="M206 0h-30l-150 710h23l130 -628q10 -51 11 -60q3 27 9 59l111 629h25l112 -629q6 -30 9 -60q2 18 10 59l130 630h23l-150 -710h-29l-113 643q-4 24 -4 39q-3 -30 -4 -39zM359 775h22v-36h-22v36zM263 775h22v-36h-22v36z" />
    <glyph glyph-name="wdieresis" unicode="&#x1e85;" horiz-adv-x="523" 
d="M172 0h-30l-116 505h24l107 -485l91 485h27l91 -485l107 485h24l-116 -505h-30l-83 435q-6 18 -7 29q-2 -16 -6 -29zM298 605h22v-36h-22v36zM202 605h22v-36h-22v36z" />
    <glyph glyph-name="Ygrave" unicode="&#x1ef2;" horiz-adv-x="392" 
d="M207 0h-22v306l-165 404h24l134 -335q16 -41 18 -53q4 18 18 52l134 336h23l-164 -404v-306zM121 845h28l71 -96h-20z" />
    <glyph glyph-name="ygrave" unicode="&#x1ef3;" horiz-adv-x="332" 
d="M49 -205q61 0 79 72l30 122h-6l-127 516h23l118 -481l118 481h24l-160 -639q-11 -45 -31 -68t-67 -23h-39l3 20h35zM85 675h28l71 -96h-20z" />
    <glyph glyph-name="endash" unicode="&#x2013;" horiz-adv-x="356" 
d="M320 306l-3 -20h-280l3 20h280z" />
    <glyph glyph-name="emdash" unicode="&#x2014;" horiz-adv-x="156" 
d="M247 306l-3 -20h-330l3 20h330z" />
    <glyph glyph-name="quoteleft" unicode="&#x2018;" horiz-adv-x="112" 
d="M68 551h-24l4 169h15z" />
    <glyph glyph-name="quoteright" unicode="&#x2019;" horiz-adv-x="110" 
d="M43 720h24l-5 -169h-15z" />
    <glyph glyph-name="quotesinglbase" unicode="&#x201a;" horiz-adv-x="17" 
d="M-3 114h24l-5 -169h-15z" />
    <glyph glyph-name="quotedblleft" unicode="&#x201c;" horiz-adv-x="181" 
d="M137 551h-24l4 169h15zM68 551h-24l4 169h15z" />
    <glyph glyph-name="quotedblright" unicode="&#x201d;" horiz-adv-x="179" 
d="M112 720h24l-5 -169h-15zM43 720h24l-5 -169h-15z" />
    <glyph glyph-name="quotedblbase" unicode="&#x201e;" horiz-adv-x="108" 
d="M88 94h24l-5 -169h-15zM-4 94h24l-5 -169h-15z" />
    <glyph glyph-name="dagger" unicode="&#x2020;" horiz-adv-x="275" 
d="M20 286l3 20h98v467l17 4h5v-471h112l-3 -20h-109v-536h-22v536h-101z" />
    <glyph glyph-name="daggerdbl" unicode="&#x2021;" horiz-adv-x="277" 
d="M21 356l3 20h98v397l17 4h5v-401h112l-3 -20h-109v-180h112l-3 -20h-109v-406h-22v406h-101l3 20h98v180h-101z" />
    <glyph glyph-name="bullet" unicode="&#x2022;" horiz-adv-x="182" 
d="M66 232v86h47v-86h-47z" />
    <glyph glyph-name="ellipsis" unicode="&#x2026;" horiz-adv-x="570" 
d="M60 -5v44h24v-44h-24zM284 -5v44h24v-44h-24zM475 -5v44h24v-44h-24z" />
    <glyph glyph-name="perthousand" unicode="&#x2030;" horiz-adv-x="779" 
d="M550 257q0 83 72 83h57q72 0 72 -83v-173q0 -84 -72 -84h-57q-72 0 -72 84v173zM308 257q0 83 72 83h57q72 0 72 -83v-173q0 -84 -72 -84h-57q-72 0 -72 84v173zM381 320q-52 0 -52 -66v-168q0 -66 52 -66h57q27 0 39 15.5t12 50.5v168q0 66 -51 66h-57zM622 320
q-52 0 -52 -66v-168q0 -66 52 -66h57q27 0 39 15.5t12 50.5v168q0 35 -12 50.5t-39 15.5h-57zM30 627q0 83 72 83h57q72 0 72 -83v-173q0 -84 -72 -84h-57q-72 0 -72 84v173zM159 690h-57q-52 0 -52 -66v-168q0 -66 52 -66h57q52 0 52 66v168q0 66 -52 66zM132 0l254 710h22
l-254 -710h-22z" />
    <glyph glyph-name="guilsinglleft" unicode="&#x2039;" horiz-adv-x="200" 
d="M163 69h-27l-105 183l105 183h27l-105 -183z" />
    <glyph glyph-name="guilsinglright" unicode="&#x203a;" horiz-adv-x="200" 
d="M65 69h-27l105 183l-105 183h27l105 -183z" />
    <glyph glyph-name="fraction" unicode="&#x2044;" horiz-adv-x="275" 
d="M1 0l254 710h22l-254 -710h-22z" />
    <glyph glyph-name="foursuperior" unicode="&#x2074;" horiz-adv-x="201" 
d="M31 491v59q0 24 13 43l81 117h23l-88 -130q-10 -14 -10 -38v-31h74v57l14 4h5v-61h32l-2 -20h-30v-62h-19v62h-93z" />
    <glyph glyph-name="Euro" unicode="&#x20ac;" horiz-adv-x="450" 
d="M268 286l-3 -20h-143v-134q0 -58 17.5 -85t61.5 -27h106q43 0 60.5 27t17.5 85v79h22v-76q0 -71 -23 -103t-80 -32h-102q-57 0 -79.5 32.5t-22.5 102.5v131h-76l3 20h73v110h-76l3 20h73v159q0 70 22.5 102.5t79.5 32.5h102q57 0 80 -32t23 -103v-74h-22v77
q0 58 -17.5 85t-60.5 27h-106q-43 0 -61 -26.5t-18 -85.5v-162h170l-3 -20h-167v-110h146z" />
    <glyph glyph-name="trademark" unicode="&#x2122;" horiz-adv-x="370" 
d="M322 500h-18v164l-36 -90h-15l-35 90v-164h-19v210h19l43 -105l43 105h18v-210zM169 693h-58v-193h-18v193h-56v17h132v-17z" />
    <glyph glyph-name="minus" unicode="&#x2212;" horiz-adv-x="365" 
d="M40 286l3 20h282l-4 -20h-281z" />
    <glyph glyph-name="commaaccent" unicode="&#xf6c3;" horiz-adv-x="400" 
d="M190 -76h21v-39l-9 -85h-8z" />
    <glyph glyph-name="s_t" unicode="&#xfb06;" horiz-adv-x="558" 
d="M183 491h-49q-38 0 -53.5 -20t-15.5 -62v-23q0 -30 8.5 -47.5t19 -24.5t37.5 -20l88 -41q32 -15 48 -37.5t16 -70.5v-40q0 -54 -20.5 -79.5t-73.5 -25.5h-59q-53 0 -73.5 27.5t-20.5 87.5v34h22v-37q0 -49 15.5 -70.5t53.5 -21.5h65q38 0 54 20t16 62v42q0 39 -12 58.5
t-41 33.5l-85 39q-31 14 -44.5 23t-24.5 31.5t-11 59.5v17q0 54 20.5 79.5t73.5 25.5h43q53 0 73.5 -27.5t20.5 -87.5v-25h-21v28q0 47 -16 69.5t-54 22.5zM536 505l-2 -20h-86v-356q0 -109 76 -109h32l2 -20h-35q-97 0 -97 126v359h-63l2 20h61v136l17 4h5v-140h88z" />
    <glyph glyph-name="g.001" horiz-adv-x="356" 
d="M47 279v91q0 69 22.5 102t79.5 33h35q55 0 77 -31l60 68l15 -16l-61 -71q12 -22 12 -79v-97q0 -82 -17.5 -109.5t-80.5 -27.5h-39q-31 0 -31 -21v-18q0 -15 8 -19.5t34 -4.5h70q64 0 88 -25.5t24 -106.5v-42q0 -64 -20 -98t-82 -34h-92q-35 0 -56.5 9.5t-31 31t-12 40.5
t-2.5 52v42q0 75 14 100t44 28q-7 4 -7 25v18q0 22 11 27q-35 8 -48.5 39.5t-13.5 93.5zM155 -207h80q52 0 69 26.5t17 85.5v42q0 71 -20.5 91.5t-71.5 20.5h-70q-28 0 -44 -4t-26 -9t-14 -21.5t-5 -30t-1 -46.5v-42q0 -60 16.5 -86.5t69.5 -26.5zM187 485h-40
q-43 0 -60.5 -26.5t-17.5 -85.5v-97q0 -61 18.5 -86.5t62.5 -25.5h36q54 0 66.5 20.5t12.5 91.5v98q0 56 -16.5 83.5t-61.5 27.5z" />
    <glyph glyph-name="i.001" horiz-adv-x="258" 
d="M44 443h-36v20h34q56 0 79 -32.5t23 -102.5v-202q0 -57 17 -84.5t60 -27.5h34v-20h-31q-57 0 -79.5 32.5t-22.5 102.5v202q0 57 -17.5 84.5t-60.5 27.5zM121 583v44h24v-44h-24z" />
    <glyph glyph-name="G.001" horiz-adv-x="438" 
d="M185 314v20h206v-199q0 -70 -22.5 -102.5t-79.5 -32.5h-133q-57 0 -79.5 32.5t-22.5 102.5v440q0 70 22.5 102.5t79.5 32.5h133q57 0 79.5 -32.5t22.5 -102.5v-74h-23v77q0 33 -5 54t-12 33t-24.5 17.5t-32.5 6.5t-47 1h-93q-19 0 -32.5 -4t-22 -16t-13.5 -23t-7 -35.5
t-2.5 -42.5t-0.5 -55v-382q0 -58 17.5 -85t60.5 -27h136q43 0 60.5 26.5t17.5 85.5v182h-183z" />
    <glyph glyph-name="P.slt" horiz-adv-x="388" 
d="M79 0h-22v575q0 70 24.5 102.5t86.5 32.5h83q57 0 79.5 -32.5t22.5 -102.5v-146q0 -71 -22 -103t-80 -32h-94q-47 0 -62.5 -39t-15.5 -115v-140zM165 690q-47 0 -66.5 -26.5t-19.5 -85.5v-324q20 60 83 60h91q43 0 60.5 27t17.5 85v152q0 57 -17.5 84.5t-67.5 27.5h-81z
" />
    <glyph glyph-name="N.001" horiz-adv-x="433" 
d="M163 690q-44 0 -64 -30.5t-20 -98.5v-561h-22v564q0 146 105 146h109q105 0 105 -146v-564h-23v561q0 66 -19.5 97.5t-63.5 31.5h-107z" />
    <glyph glyph-name="S.bd" horiz-adv-x="427" 
d="M281 360h-135q-57 0 -79.5 32.5t-22.5 102.5v80q0 70 22.5 102.5t79.5 32.5h133q57 0 79.5 -32.5t22.5 -102.5v-74h-23v77q0 59 -17.5 85.5t-59.5 26.5h-137q-43 0 -60.5 -27t-17.5 -85v-86q0 -58 17.5 -85t60.5 -27h135q57 0 79.5 -32.5t22.5 -102.5v-110
q0 -70 -22.5 -102.5t-79.5 -32.5h-133q-57 0 -79.5 32.5t-22.5 102.5v76h22v-79q0 -58 17.5 -85t60.5 -27h137q42 0 59.5 26.5t17.5 85.5v116q0 59 -17.5 85.5t-59.5 26.5z" />
    <glyph glyph-name="N.bd" horiz-adv-x="464" 
d="M58 0v699h22v-86q0 -8 1 -13t5 -9.5t5.5 -5.5t10 -5.5t10.5 -5.5l272 -152v277h22v-699h-22v377q0 8 -1 13t-5 9.5t-5.5 5.5t-10 5.5t-10.5 5.5l-272 152v-568h-22z" />
    <glyph glyph-name="T.002" horiz-adv-x="438" 
d="M427 690h-201v-690h-22v690h-195l3 20h418z" />
    <glyph glyph-name="I.bd" horiz-adv-x="228" 
d="M125 20h88v-20h-198v20h88v670h-88v20h198v-20h-88v-670z" />
    <glyph glyph-name="Z.bd" horiz-adv-x="400" 
d="M334 481l-254 -251q-34 -34 -34 -71v-30q0 -54 22.5 -81.5t73.5 -27.5h225v-20h-227q-116 0 -116 125v34q0 52 45 94l251 246q32 31 32 66v16q0 57 -23.5 83t-71.5 26h-213v20h214q116 0 116 -125v-20q0 -44 -40 -84z" />
    <glyph glyph-name="V.bd" horiz-adv-x="450" 
d="M226 28l202 657l21 -8l-211 -677h-25l-211 677l21 8z" />
    <glyph glyph-name="X.bd" horiz-adv-x="345" 
d="M173 368l135 332l21 -8l-138 -338l143 -347l-21 -7l-140 338l-140 -338l-21 8l143 346l-138 338l21 8z" />
    <glyph glyph-name="G.002" horiz-adv-x="403" 
d="M223 304v20h137v-189q0 -68 -22 -101.5t-77 -33.5h-112q-95 0 -95 124v451q0 135 87 135h209l-3 -20h-197q-40 0 -57 -28t-17 -91v-442q0 -57 18.5 -83t58.5 -26h104q43 0 62 25t19 77v182h-115z" />
    <glyph glyph-name="o.001" horiz-adv-x="666" 
 />
    <glyph glyph-name="i.002" horiz-adv-x="139" 
d="M63 481h-40v24h62v-505h-22v481zM62 696v44h24v-44h-24z" />
    <glyph glyph-name="u.bd" horiz-adv-x="357" 
d="M303 0h-21v42q-30 -42 -90 -42h-42q-52 0 -75 30.5t-23 94.5v376l16 4h6v-380q0 -56 19 -80.5t59 -24.5h44q36 0 60 19.5t25 39.5h1v64h-1v358l17 4h5v-505z" />
    <glyph glyph-name="w.bd" horiz-adv-x="512" 
d="M185 0h-30l-132 505h24l123 -485l75 315h24l75 -315l123 485h23l-132 -505h-30l-71 287z" />
    <glyph glyph-name="H.slt" horiz-adv-x="467" 
d="M80 0h-22v706l17 4h5v-412h306v408l17 4h6v-710h-23v278h-306v-278z" />
    <glyph glyph-name="I.slt" 
d="M80 0h-22v706l17 4h5v-710z" />
    <glyph glyph-name="J.slt" horiz-adv-x="254" 
d="M98 20q40 0 58 26t18 83v577l17 4h6v-584q0 -126 -98 -126h-91l3 20h87z" />
    <glyph glyph-name="K.slt" horiz-adv-x="363" 
d="M80 0h-22v706l17 4h5v-348l253 348h28l-257 -355l257 -355h-28l-253 348v-348z" />
    <glyph glyph-name="L.slt" horiz-adv-x="320" 
d="M80 20h231l-3 -20h-250v706l17 4h5v-690z" />
    <glyph glyph-name="N.slt" horiz-adv-x="454" 
d="M396 0h-23l-293 661v-661h-22v706l17 4h5l293 -665v661l17 4h6v-710z" />
    <glyph glyph-name="M.slt" horiz-adv-x="516" 
d="M458 0h-22v657l-169 -403h-17l-170 407v-661h-22v706l17 4h5l178 -423l177 419l13 4h10v-710z" />
    <glyph glyph-name="U.slt" horiz-adv-x="433" 
d="M78 149q0 -68 20 -98.5t65 -30.5h106q45 0 64.5 30.5t19.5 98.5v557l17 4h6v-564q0 -146 -105 -146h-110q-105 0 -105 146v560l17 4h5v-561z" />
    <glyph glyph-name="T.bd" horiz-adv-x="446" 
d="M436 690h-202v-690h-22v690h-202v20h426v-20z" />
    <glyph glyph-name="ampersand.001" horiz-adv-x="489" 
d="M453 0l-59 73q-59 -73 -103 -73h-143q-57 0 -79.5 32.5t-22.5 102.5v97q0 67 20 99t71 35q-35 28 -35 116v93q0 104 54 126v9h102q57 0 80 -32.5t23 -102.5v-106q-2 -63 -25 -92.5t-76 -29.5h-62l197 -240l30 41l30 40l15 -15l-28 -37q-6 -8 -17.5 -23.5t-16.5 -21.5
l61 -74zM146 20h145q39 0 90 68l-211 259h-24q-41 0 -59 -25t-19 -79v-111q0 -58 17.5 -85t60.5 -27zM203 690q-43 0 -60.5 -26.5t-17.5 -85.5v-99q0 -57 16.5 -84t56.5 -28h62q41 0 58.5 24t19.5 77v110q0 59 -17.5 85.5t-60.5 26.5h-57z" />
    <glyph glyph-name="A.B" horiz-adv-x="412" 
d="M222 710l170 -710h-24l-33 140l-239 73l-50 -213h-23l165 690h-117v20h151zM208 689l-91 -386l195 -63zM112 283l-12 -51l230 -71l-13 58z" />
    <glyph glyph-name="B.s" horiz-adv-x="381" 
d="M58 0v710h95q109 0 109 -125v-114q0 -74 -41 -92q73 0 103.5 -29t30.5 -103v-112q0 -135 -121 -135h-176zM80 359v-339h152q101 0 101 114v108q0 61 -23 89t-73 28h-157zM80 692v-313h87q73 0 73 89v115q0 57 -22.5 83t-70.5 26h-67z" />
    <glyph glyph-name="C.s" horiz-adv-x="392" 
d="M144 220h105q43 0 60.5 27t17.5 85v29h22v-26q0 -70 -22.5 -102.5t-79.5 -32.5h-101q-57 0 -79.5 32.5t-22.5 102.5v240q0 70 22.5 102.5t79.5 32.5h101q57 0 79.5 -32.5t22.5 -102.5v-24h-22v27q0 58 -17.5 85t-60.5 27h-105q-43 0 -60.5 -27t-17.5 -85v-246
q0 -58 17.5 -85t60.5 -27zM358 20v-20h-314v20h314z" />
    <glyph glyph-name="D.s" horiz-adv-x="413" 
d="M-1 690v20h251q66 0 92 -37t26 -118v-200q0 -81 -26 -118t-92 -37h-185v490h-66zM371 20v-20h-306v20h306zM251 690h-164v-470h164q51 0 72.5 31.5t21.5 100.5v206q0 69 -21.5 100.5t-72.5 31.5z" />
    <glyph glyph-name="E.s.001" horiz-adv-x="378" 
d="M80 690v-303h221l-3 -20h-218v-55h197l-3 -20h-194v-272h279l-3 -20h-298v710h298l-3 -20h-273z" />
    <glyph glyph-name="F.s.001" horiz-adv-x="367" 
d="M80 690v-303h221l-3 -20h-218v-55h197l-3 -20h-194v-292h-22v710h290l-3 -20h-265z" />
    <glyph glyph-name="G.s" horiz-adv-x="389" 
d="M40 -69v100q0 70 22.5 102.5t79.5 32.5h3v94q-50 4 -70 36.5t-20 98.5v180q0 70 23 102.5t80 32.5h53q57 0 79.5 -32.5t22.5 -102.5v-180q0 -70 -22 -102.5t-78 -32.5h-46v-94h107q57 0 79.5 -32.5t22.5 -102.5v-100h-1q-3 -58 -26 -85.5t-75 -27.5h-132
q-52 0 -75.5 27.5t-26.5 85.5zM140 146q-43 0 -60.5 -27t-17.5 -85v-84q0 -58 17.5 -85t60.5 -27h136q40 0 58 24.5t20 76.5v95q0 58 -17.5 85t-60.5 27h-136zM156 280h57q42 0 59.5 26.5t17.5 85.5v186q0 59 -17.5 85.5t-60.5 26.5h-56q-43 0 -60.5 -26.5t-17.5 -85.5v-186
q0 -59 17.5 -85.5t60.5 -26.5z" />
    <glyph glyph-name="H.s" horiz-adv-x="425" 
d="M80 0h-22v710h22v-302l264 -84v386h23v-710h-23v231l-264 84v-315zM80 388v-53l264 -84v53z" />
    <glyph glyph-name="I.s" horiz-adv-x="332" 
d="M319 710v-20h-142v-670h142v-20h-306v20h141v670h-141v20h306z" />
    <glyph glyph-name="J.s" horiz-adv-x="409" 
d="M245 20q45 0 64.5 30.5t19.5 98.5v465h-164l-3 20h167v56h-197l-3 20h223v-564q0 -146 -105 -146h-110q-105 0 -105 146v118h22v-115q0 -68 20 -98.5t65 -30.5h106z" />
    <glyph glyph-name="K.s" horiz-adv-x="389" 
d="M346 710h25l-228 -395l205 -67v-248h-23v235l-245 81v-316h-22v710h22v-374l42 -14z" />
    <glyph glyph-name="L.s" horiz-adv-x="364" 
d="M71 710v-490h261l-3 -20h-280v510h22zM332 20v-20h-284v20h284z" />
    <glyph glyph-name="M.s" horiz-adv-x="510" 
d="M80 0h-22v710h33l164 -380l163 380h34v-710h-23v568l-174 -400l-175 400v-568zM80 687v-76l175 -400l174 400v76l-174 -400z" />
    <glyph glyph-name="N.s" horiz-adv-x="464" 
d="M58 0v699h22v-86q0 -8 1 -13t5 -9.5t5.5 -5.5t10 -5.5t10.5 -5.5l272 -152v277h22v-699h-22v377q0 8 -1 13t-5 9.5t-5.5 5.5t-10 5.5t-10.5 5.5l-272 152v-568h-22z" />
    <glyph glyph-name="O.s" horiz-adv-x="420" 
d="M41 335v240q0 70 22.5 102.5t79.5 32.5h132q57 0 80 -32.5t23 -102.5v-240q0 -70 -23 -102.5t-80 -32.5h-132q-57 0 -79.5 32.5t-22.5 102.5zM141 690q-43 0 -60.5 -27t-17.5 -85v-246q0 -58 17.5 -85t60.5 -27h136q43 0 60.5 26.5t17.5 85.5v246q0 59 -17.5 85.5
t-60.5 26.5h-136zM363 20v-20h-307v20h307z" />
    <glyph glyph-name="P.s" horiz-adv-x="391" 
d="M58 690v20h202q94 0 94 -125v-182q0 -125 -94 -125h-180v-278h-22v298h195q41 0 59.5 26t18.5 83v174q0 57 -18.5 83t-59.5 26h-195z" />
    <glyph glyph-name="Q.s" horiz-adv-x="447" 
d="M199 200h-54q-57 0 -79.5 32.5t-22.5 102.5v240q0 70 22.5 102.5t79.5 32.5h133q57 0 79.5 -32.5t22.5 -102.5v-240q0 -70 -22.5 -102.5t-79.5 -32.5h-17l154 -49v-20zM143 690q-43 0 -60.5 -27t-17.5 -85v-246q0 -58 17.5 -85t60.5 -27h137q43 0 60.5 27t17.5 85v246
q0 58 -17.5 85t-60.5 27h-137zM199 127v20l216 -69v-20z" />
    <glyph glyph-name="R.s" horiz-adv-x="433" 
d="M417 -20l-151 298h-186v-278h-22v298h198l-198 392v20h202q94 0 94 -125v-182q0 -103 -64 -121l146 -289zM253 690h-168l195 -389q51 16 51 106v174q0 57 -18.5 83t-59.5 26z" />
    <glyph glyph-name="S.s" horiz-adv-x="391" 
d="M286 256l-222 125v23l229 -128q31 -17 43 -36t12 -61v-54q0 -125 -94 -125h-110q-54 0 -78 30.5t-24 94.5v86h22v-86q0 -55 18.5 -80t59.5 -25h106q40 0 58.5 25t18.5 80v54q0 35 -8 49.5t-31 27.5zM65 523q0 -28 8.5 -43.5t29.5 -27.5l222 -136v-23l-229 139
q-29 17 -41.5 36t-12.5 55v58q0 68 23.5 98.5t74.5 30.5h110q50 0 73.5 -30.5t23.5 -98.5v-80h-22v81q0 108 -73 108h-107q-45 0 -62.5 -24.5t-17.5 -88.5v-54z" />
    <glyph glyph-name="T.s" horiz-adv-x="352" 
d="M187 0h-23v612h-125v20h275v-20h-127v-612zM335 690h-318l-1 20h319v-20z" />
    <glyph glyph-name="U.s" horiz-adv-x="406" 
d="M256 220q45 0 64.5 30.5t19.5 98.5v361h23v-364q0 -146 -105 -146h-110q-105 0 -105 146v364h22v-361q0 -68 20 -98.5t65 -30.5h106zM356 20v-20h-306v20h306z" />
    <glyph glyph-name="V.s" horiz-adv-x="339" 
d="M185 200h-30l-133 510h24l124 -490l123 490h25zM323 20v-20h-307v20h307z" />
    <glyph glyph-name="W.s" horiz-adv-x="510" 
d="M58 710h22v-577l175 400l174 -400v577h23v-710h-34l-163 380l-164 -380h-33v710zM80 93v-73l175 400l174 -400v73l-174 400z" />
    <glyph glyph-name="X.s" horiz-adv-x="343" 
d="M201 403l131 -403h-26l-119 368l-21 -51l103 -317h-26l-91 281l-113 -281h-26l127 317l-127 393h26l116 -357l20 50l-99 307h26l87 -271l109 271h26z" />
    <glyph glyph-name="Y.s" horiz-adv-x="363" 
d="M55 618l116 -172v60l-141 204h25l127 -188l127 188h24l-140 -204v-60l116 172h24l-140 -204v-414h-22v414l-141 204h25z" />
    <glyph glyph-name="Z.s" horiz-adv-x="364" 
d="M33 609l-3 20h249l26 61h-277l-3 20h303l3 -20l-246 -583h256l-3 -20h-261l-28 -67h284l-3 -20h-304l-3 20l248 589h-238z" />
    <glyph glyph-name="E.s" horiz-adv-x="374" 
d="M76 690v-303h221l-3 -20h-240v343h298l-3 -20h-273zM352 0h-298v312h219l-3 -20h-194v-272h279z" />
    <glyph glyph-name="F.s" horiz-adv-x="363" 
d="M76 690v-303h221l-3 -20h-240v343h290l-3 -20h-265zM76 0h-22v312h219l-3 -20h-194v-292z" />
    <glyph glyph-name="H.s.001" horiz-adv-x="421" 
d="M80 0h-22v710h22v-339h261v339h22v-710h-22v278h-261v-278zM80 351v-53h261v53h-261z" />
    <glyph glyph-name="L.s.001" horiz-adv-x="361" 
d="M80 710v-611h259l-3 -20h-256v-59h261l-3 -20h-280v710h22z" />
    <glyph glyph-name="Q.s.001" horiz-adv-x="416" 
d="M219 0h-22v200h-56q-57 0 -79.5 32.5t-22.5 102.5v240q0 70 22.5 102.5t79.5 32.5h133q57 0 79.5 -32.5t22.5 -102.5v-240q0 -70 -22.5 -102.5t-79.5 -32.5h-55v-200zM139 220h58v137h22v-137h57q43 0 60.5 27t17.5 85v246q0 58 -17.5 85t-60.5 27h-137q-43 0 -60.5 -27
t-17.5 -85v-246q0 -58 17.5 -85t60.5 -27z" />
    <glyph glyph-name="A.s.001" horiz-adv-x="545" 
d="M558 220v-20h-153l48 -200h-23l-47 200h-228l-47 -200h-23l48 200h-144v20h149l112 470h-118v20h152l116 -490h158zM269 689l-110 -469h219z" />
    <glyph glyph-name="N.s.001" horiz-adv-x="465" 
d="M80 0h-22v710h22v-49l304 -97v146h23v-710h-23v471l-304 97v-568zM80 641v-53l304 -97v53z" />
    <glyph glyph-name="O.s.001" horiz-adv-x="446" 
d="M54 135v440q0 70 22.5 102.5t79.5 32.5h133q57 0 79.5 -32.5t22.5 -102.5v-440q0 -70 -22.5 -102.5t-79.5 -32.5h-133q-57 0 -79.5 32.5t-22.5 102.5zM154 690q-43 0 -60.5 -27t-17.5 -85v-446q0 -58 17.5 -85t60.5 -27h137q43 0 60.5 27t17.5 85v446q0 58 -17.5 85
t-60.5 27h-137zM217 346v44h24v-44h-24z" />
    <glyph glyph-name="N.s.002" horiz-adv-x="465" 
d="M80 0h-22v710h22v-49l304 -97v146h23v-710h-23v544l-304 97v-641z" />
    <glyph glyph-name="C.spec" horiz-adv-x="481" 
d="M237 690q-43 0 -60.5 -26.5t-17.5 -85.5v-180l177 -56v-20l-177 56v-53l177 -56v-20l-177 56v-173q0 -59 17.5 -85.5t60.5 -26.5h105q43 0 60.5 27t17.5 85v79h22v-76q0 -70 -22.5 -102.5t-79.5 -32.5h-101q-57 0 -80 32.5t-23 102.5v178l-128 41v20l128 -41v53l-128 41
v20l128 -41v169q0 69 22.5 101.5t79.5 33.5h102q57 0 79.5 -32.5t22.5 -102.5v-74h-22v77q0 58 -17.5 85t-60.5 27h-105z" />
    <glyph glyph-name="A.sh" horiz-adv-x="412" 
d="M342 213l-249 79l94 398h-117v20h152zM81 237l274 -84l37 -153h-24l-31 139l-241 75l-50 -214h-23zM207 690l-88 -387l191 -63z" />
    <glyph glyph-name="H.sh" horiz-adv-x="422" 
d="M365 298l-309 95v317h22v-303l264 -84v387h23v-412zM78 0h-22v342l309 -96v-246h-23v231l-264 85v-316z" />
    <glyph glyph-name="M.sh" horiz-adv-x="510" 
d="M255 217l197 441v-658h-23v577l-174 -400l-175 400v-577h-22v658zM255 290l-197 420h25l172 -380l171 380h26z" />
    <glyph glyph-name="W.sh" horiz-adv-x="510" 
d="M452 52l-197 441l-197 -441v658h22v-577l175 400l174 -400v577h23v-658zM58 0l197 420l197 -420h-26l-171 380l-172 -380h-25z" />
    <glyph glyph-name="X.sh" horiz-adv-x="342" 
d="M151 278l-109 -278h-26l125 311l-129 399h26l230 -710h-26zM200 404l131 -404h-26l-230 710h26l88 -273l108 273h26z" />
    <glyph glyph-name="L.sh" horiz-adv-x="352" 
d="M338 18l-291 90v602h22v-588l269 -84v-20zM47 36v21l291 -91v-20z" />
    <glyph glyph-name="B.sh" horiz-adv-x="387" 
d="M58 0v710h92q112 0 112 -125v-46q0 -125 -112 -125h-70v-35h141q66 0 100 -27t34 -105v-112q0 -135 -121 -135h-176zM80 359v-339h152q101 0 101 114v108q0 41 -8 65t-29.5 35t-44 14t-67.5 3h-104zM80 690v-256h67q49 0 71 25.5t22 81.5v42q0 56 -22 81.5t-71 25.5h-67z
" />
    <glyph glyph-name="undercommaaccent" horiz-adv-x="86" 
d="M32 -99h21v-39l-9 -85h-8z" />
    <glyph glyph-name="O.mon2.001" horiz-adv-x="439" 
d="M153 690q-42 0 -59.5 -27t-17.5 -85v-446q0 -58 17.5 -85t59.5 -27h59v-20h-58q-56 0 -78 32.5t-22 102.5v440q0 70 22 102.5t78 32.5h131q56 0 78 -32.5t22 -102.5v-440q0 -70 -22 -102.5t-78 -32.5h-55v20h56q42 0 59.5 27t17.5 85v446q0 58 -17.5 85t-59.5 27h-133z
" />
    <glyph glyph-name="P.mon2.001" horiz-adv-x="401" 
d="M58 690v20h205q103 0 103 -125v-182q0 -125 -103 -125h-183v-278h-22v670h22v-372h176q45 0 66 26t21 83v174q0 57 -21 83t-66 26h-198z" />
    <glyph glyph-name="S.mon2.001" horiz-adv-x="404" 
d="M297 296l-143 76q-69 36 -86 54q-26 27 -26 67v88q0 68 25 98.5t78 30.5h50v-20h-45q-47 0 -66 -24.5t-19 -88.5v-84q0 -32 14.5 -49t52.5 -37l174 -91q31 -16 43 -35.5t12 -61.5v-94q0 -125 -98 -125h-41v20h35q43 0 62.5 24.5t19.5 80.5v94q0 33 -9 48.5t-33 28.5z
M262 690h-48v20h64q41 0 62 -36.5t21 -92.5v-80h-23v81q0 108 -76 108zM64 125q0 -55 20 -80t62 -25h54v-20h-52q-55 0 -80.5 31t-25.5 94v86h22v-86z" />
    <glyph glyph-name="F.mon2.001" horiz-adv-x="380" 
d="M78 0h-22v670h22v-362h224l-3 -20h-221v-288zM56 690v20h305l-4 -20h-301z" />
    <glyph glyph-name="B.mon2.001" horiz-adv-x="398" 
d="M56 692v18h154q127 0 127 -135v-104q0 -83 -49 -100q36 -10 53.5 -46t17.5 -78v-112q0 -135 -124 -135h-179v672h22v-293h162q75 0 75 89v105q0 62 -26.5 90.5t-84.5 28.5h-148zM78 359v-339h155q104 0 104 114v108q0 61 -24 89t-75 28h-160z" />
    <glyph glyph-name="I.mon2.001" 
d="M80 0h-22v710h22v-710z" />
    <glyph glyph-name="E.mon2.001" horiz-adv-x="370" 
d="M346 0h-290v670h22v-362h227l-3 -20h-224v-268h271zM56 690v20h290l-3 -20h-287z" />
    <glyph glyph-name="Z.mon2.001" horiz-adv-x="378" 
d="M17 0l-3 20l316 650h26l-316 -650h323l-3 -20h-343zM362 690h-342l-4 20h343z" />
    <glyph glyph-name="A.mon2.001" horiz-adv-x="420" 
d="M46 0h-25l47 190h261l-119 500l-113 -480h-23l122 500h29l174 -710h-25l-41 170h-246z" />
    <glyph glyph-name="V.mon2.001" horiz-adv-x="416" 
d="M222 0h-23l177 710h23zM15 710h25l160 -650l-11 -34z" />
    <glyph glyph-name="X.mon2.001" horiz-adv-x="320" 
d="M13 0l275 710h24l-138 -359l130 -351h-26l-116 319l-123 -319h-26zM36 710l114 -326l-13 -25l-126 351h25z" />
    <glyph glyph-name="N.mon2.001" horiz-adv-x="442" 
d="M352 0l-295 710h26l279 -690v690h22v-710h-32zM79 0h-22v678l22 -42v-636z" />
    <glyph glyph-name="R.mon2.001" horiz-adv-x="406" 
d="M58 690v20h202q94 0 94 -125v-182q0 -125 -94 -125h-23l161 -278h-28l-160 278h-130v-278h-22v670h22v-372h173q41 0 59.5 26t18.5 83v174q0 57 -18.5 83t-59.5 26h-195z" />
    <glyph glyph-name="G.mon2.001" horiz-adv-x="410" 
d="M76 129q0 -57 18.5 -83t59.5 -26h44v-20h-48q-96 0 -96 124v451q0 135 88 135h128q97 0 97 -125v-84h-22v80q0 109 -78 109h-116q-40 0 -57.5 -28.5t-17.5 -90.5v-442zM215 304l3 20h145v-189q0 -68 -23 -101.5t-79 -33.5h-44v20h41q43 0 62.5 25t19.5 77v182h-125z" />
    <glyph glyph-name="C.mon2.001" horiz-adv-x="399" 
d="M154 20h41v-20h-39q-57 0 -79.5 32.5t-22.5 102.5v440q0 70 22.5 102.5t79.5 32.5h103q57 0 79.5 -32.5t22.5 -102.5v-74h-22v77q0 58 -17.5 85t-60.5 27h-107q-42 0 -60 -27t-18 -85v-446q0 -58 17.5 -85t60.5 -27zM259 0h-46v20h47q51 0 65 33t14 118v40h22v-76
q0 -70 -22.5 -102.5t-79.5 -32.5z" />
    <glyph glyph-name="D.mon2.001" horiz-adv-x="414" 
d="M259 690h-203v20h202q57 0 79.5 -32.5t22.5 -102.5v-440q0 -70 -22.5 -102.5t-79.5 -32.5h-202v670h22v-650h181q43 0 60.5 26.5t17.5 85.5v446q0 59 -17.5 85.5t-60.5 26.5z" />
    <glyph glyph-name="H.mon2.001" horiz-adv-x="421" 
d="M78 0h-22v298h285v412h22v-710h-22v278h-263v-278zM78 710v-392h-22v392h22z" />
    <glyph glyph-name="U.mon2.001" horiz-adv-x="440" 
d="M164 20h46v-20h-47q-56 0 -81.5 36t-25.5 110v564h22v-561q0 -67 20.5 -98t65.5 -31zM276 20h-47v-20h48q56 0 81.5 36t25.5 110v564h-22v-561q0 -67 -20.5 -98t-65.5 -31z" />
    <glyph glyph-name="W.mon2.001" horiz-adv-x="568" 
d="M191 0h-21l101 710h26l95 -690l121 690h25l-133 -710h-29l-92 634zM30 710h25l114 -637l-10 -49z" />
    <glyph glyph-name="Y.mon2.001" horiz-adv-x="386" 
d="M204 0h-22v342l157 368h24l-159 -374v-336zM47 710l135 -331l-13 -22l-146 353h24z" />
    <glyph glyph-name="L.mon2.001" horiz-adv-x="345" 
d="M331 0h-275v20h278zM78 710v-670h-22v670h22z" />
    <glyph glyph-name="J.mon2.001" horiz-adv-x="331" 
d="M138 20q60 0 87 26t27 83v581h22v-584q0 -63 -33 -94.5t-104 -31.5h-128l3 20h126z" />
    <glyph glyph-name="Q.mon2.001" horiz-adv-x="439" 
d="M226 161v-141h60q41 0 59 27t18 85v446q0 58 -17.5 85t-59.5 27h-56v20h55q56 0 78 -32.5t22 -102.5v-440q0 -70 -22 -102.5t-78 -32.5h-59v-102h-22v102h-50q-56 0 -78 32.5t-22 102.5v440q0 70 22 102.5t78 32.5h58v-20h-59q-41 0 -59 -27t-18 -85v-446q0 -58 17.5 -85
t59.5 -27h51v141h22z" />
    <glyph glyph-name="K.mon2.001" horiz-adv-x="364" 
d="M68 0h-22v341l289 369h28l-271 -355l271 -355h-28l-258 342l-9 -11v-331zM68 710v-317l-22 -26v343h22z" />
    <glyph glyph-name="M.mon2.001" horiz-adv-x="464" 
d="M406 0h-23v679l-147 -389h-9l-170 420h25l149 -383l146 383h29v-710zM79 0h-22v670l22 -43v-627z" />
    <glyph glyph-name="T.mon2.001" horiz-adv-x="383" 
d="M369 690h-355v20h355v-20zM203 0h-23v670h23v-670z" />
    <glyph glyph-name="O.mon2" horiz-adv-x="439" 
d="M54 135v440q0 70 22 102.5t78 32.5h131q56 0 78 -32.5t22 -102.5v-440q0 -70 -22 -102.5t-78 -32.5h-131q-56 0 -78 32.5t-22 102.5zM153 690q-42 0 -59.5 -27t-17.5 -85v-446q0 -58 17.5 -85t59.5 -27h133q42 0 59.5 27t17.5 85v446q0 58 -17.5 85t-59.5 27h-133z" />
    <glyph glyph-name="P.mon2" horiz-adv-x="401" 
d="M58 0v710h205q103 0 103 -125v-182q0 -125 -103 -125h-183v-278h-22zM80 690v-392h176q45 0 66 26t21 83v174q0 57 -21 83t-66 26h-176z" />
    <glyph glyph-name="S.mon2" horiz-adv-x="404" 
d="M297 296l-199 106q-30 15 -43 35t-13 56v88q0 68 25 98.5t78 30.5h113q53 0 78 -30.5t25 -98.5v-80h-23v81q0 108 -77 108h-111q-48 0 -66.5 -24.5t-18.5 -88.5v-84q0 -29 8.5 -44.5t30.5 -26.5l200 -106q32 -16 44.5 -35.5t12.5 -61.5v-94q0 -125 -98 -125h-115
q-55 0 -80.5 31t-25.5 94v86h22v-86q0 -55 20 -80t62 -25h111q42 0 62 25t20 80v94q0 35 -9 49.5t-33 27.5z" />
    <glyph glyph-name="F.mon2" horiz-adv-x="382" 
d="M80 690v-382h224l-3 -20h-221v-288h-22v710h305l-4 -20h-279z" />
    <glyph glyph-name="B.mon2" horiz-adv-x="400" 
d="M58 0v710h154q127 0 127 -135v-104q0 -83 -49 -100q36 -10 53.5 -46t17.5 -78v-112q0 -135 -124 -135h-179zM80 359v-339h155q104 0 104 114v108q0 61 -24 89t-75 28h-160zM80 692v-313h162q75 0 75 89v105q0 62 -26.5 90.5t-84.5 28.5h-126z" />
    <glyph glyph-name="I.mon2" 
d="M80 0h-22v710h22v-710z" />
    <glyph glyph-name="E.mon2" horiz-adv-x="372" 
d="M80 690v-382h227l-3 -20h-224v-268h271l-3 -20h-290v710h290l-3 -20h-265z" />
    <glyph glyph-name="Z.mon2" horiz-adv-x="377" 
d="M362 690l-322 -670h323l-3 -20h-343l-3 20l322 670h-316l-4 20h343z" />
    <glyph glyph-name="A.mon2" horiz-adv-x="420" 
d="M196 710h29l174 -710h-25l-41 170h-247l-40 -170h-25zM210 690l-119 -500h238z" />
    <glyph glyph-name="V.mon2" horiz-adv-x="418" 
d="M224 0h-29l-178 710h25l167 -690l167 690h25z" />
    <glyph glyph-name="X.mon2" horiz-adv-x="346" 
d="M38 710l137 -342l137 342h25l-147 -356l144 -354h-28l-134 338l-134 -338h-26l145 354l-147 356h28z" />
    <glyph glyph-name="N.mon2" horiz-adv-x="451" 
d="M80 0h-22v710h33l279 -690v690h23v-710h-32l-281 690v-690z" />
    <glyph glyph-name="R.mon2" horiz-adv-x="406" 
d="M58 0v710h202q94 0 94 -125v-182q0 -125 -94 -125h-23l161 -278h-28l-160 278h-130v-278h-22zM80 690v-392h173q41 0 59.5 26t18.5 83v174q0 57 -18.5 83t-59.5 26h-173z" />
    <glyph glyph-name="G.mon2" horiz-adv-x="410" 
d="M215 304l3 20h145v-189q0 -68 -22.5 -101.5t-77.5 -33.5h-113q-96 0 -96 124v451q0 135 88 135h128q97 0 97 -125v-84h-22v80q0 57 -18.5 83t-59.5 26h-116q-40 0 -57.5 -28t-17.5 -91v-442q0 -57 18.5 -83t59.5 -26h104q43 0 62.5 25t19.5 77v182h-125z" />
    <glyph glyph-name="C.mon2" horiz-adv-x="399" 
d="M154 20h107q43 0 60.5 27t17.5 85v79h22v-76q0 -70 -22.5 -102.5t-79.5 -32.5h-103q-57 0 -79.5 32.5t-22.5 102.5v440q0 70 22.5 102.5t79.5 32.5h103q57 0 79.5 -32.5t22.5 -102.5v-74h-22v77q0 58 -17.5 85t-60.5 27h-107q-43 0 -60.5 -27t-17.5 -85v-446
q0 -58 17.5 -85t60.5 -27z" />
    <glyph glyph-name="D.mon2" horiz-adv-x="416" 
d="M58 0v710h202q57 0 79.5 -32.5t22.5 -102.5v-440q0 -70 -22.5 -102.5t-79.5 -32.5h-202zM261 690h-181v-670h181q43 0 60.5 26.5t17.5 85.5v446q0 59 -17.5 85.5t-60.5 26.5z" />
    <glyph glyph-name="H.mon2" horiz-adv-x="423" 
d="M80 0h-22v710h22v-412h263v412h22v-710h-22v278h-263v-278z" />
    <glyph glyph-name="U.mon2" horiz-adv-x="437" 
d="M273 20q45 0 65.5 31t20.5 98v561h22v-564q0 -146 -106 -146h-112q-56 0 -81.5 36t-25.5 110v564h22v-561q0 -67 20.5 -98t65.5 -31h109z" />
    <glyph glyph-name="W.mon2" horiz-adv-x="568" 
d="M192 0h-28l-134 710h25l121 -690l95 690h26l95 -690l121 690h25l-133 -710h-29l-92 634z" />
    <glyph glyph-name="Y.mon2" horiz-adv-x="386" 
d="M204 0h-22v341l-159 369h24l146 -342l145 342h25l-159 -369v-341z" />
    <glyph glyph-name="L.mon2" horiz-adv-x="388" 
d="M80 710v-690h297l-3 -20h-316v710h22z" />
    <glyph glyph-name="J.mon2" horiz-adv-x="331" 
d="M138 20q60 0 87 26t27 83v581h22v-584q0 -63 -33 -94.5t-104 -31.5h-128l3 20h126z" />
    <glyph glyph-name="Q.mon2" horiz-adv-x="439" 
d="M54 135v440q0 70 22 102.5t78 32.5h131q56 0 78 -32.5t22 -102.5v-440q0 -70 -22 -102.5t-78 -32.5h-59v-102h-22v102h-50q-56 0 -78 32.5t-22 102.5zM153 690q-42 0 -59.5 -27t-17.5 -85v-446q0 -58 17.5 -85t59.5 -27h51v141h22v-141h60q42 0 59.5 27t17.5 85v446
q0 58 -17.5 85t-59.5 27h-133z" />
    <glyph glyph-name="K.mon2" horiz-adv-x="376" 
d="M80 0h-22v710h22v-351l267 351h28l-270 -355l270 -355h-28l-267 351v-351z" />
    <glyph glyph-name="M.mon2" horiz-adv-x="467" 
d="M409 0h-22v677l-142 -377h-23l-142 377v-677h-22v710h30l146 -386l146 386h29v-710z" />
    <glyph glyph-name="T.mon2" horiz-adv-x="383" 
d="M369 690h-166v-690h-23v690h-166v20h355v-20z" />
    <glyph glyph-name="K.mon2.002" horiz-adv-x="382" 
d="M79 0h-22v358h127l166 352h23l-169 -362l171 -348h-26l-165 338h-105v-338zM79 710v-332h-22v332h22z" />
    <glyph glyph-name="A.ae" horiz-adv-x="433" 
d="M202 710h30l-1 -1l184 -702l-20 -7l-44 170h-268l-43 -170l-21 7l183 702v1zM217 688l-129 -498h258z" />
    <glyph glyph-name="K.ae" horiz-adv-x="354" 
d="M80 0h-22v710h22v-350l254 350l16 -13l-245 -342l244 -342l-15 -13l-254 349v-349z" />
    <glyph glyph-name="M.ae" horiz-adv-x="510" 
d="M452 0h-23v690l-169 -400h-10l-170 400v-690h-22v710h33l164 -381l163 381h34v-710z" />
    <glyph glyph-name="R.ae" horiz-adv-x="405" 
d="M58 0v710h202q94 0 94 -125v-182q0 -125 -94 -125h-23l151 -265l-17 -13l-161 278h-130v-278h-22zM80 690v-392h173q41 0 59.5 26t18.5 83v174q0 57 -18.5 83t-59.5 26h-173z" />
    <glyph glyph-name="V.ae" horiz-adv-x="429" 
d="M230 0h-30v1l-183 702l21 7l177 -688l178 688l20 -7l-184 -702z" />
    <glyph glyph-name="W.ae" horiz-adv-x="716" 
d="M517 0h-30v1l-129 492l-129 -492l1 -1h-30v1l-183 702l21 7l177 -688l178 688l20 -7l-44 -166l133 -515l177 688l21 -7l-184 -702z" />
    <glyph glyph-name="X.ae" horiz-adv-x="360" 
d="M328 712l19 -11l-155 -339l163 -355l-19 -11l-156 340l-156 -340l-19 11l163 355l-155 339l19 11l148 -324z" />
    <glyph glyph-name="Y.ae" horiz-adv-x="385" 
d="M204 0h-22v364l-157 337l19 11l149 -327l147 327l20 -11l-156 -337v-364z" />
    <glyph glyph-name="A.SC" horiz-adv-x="377" 
d="M175 604h27l154 -604h-23l-36 143h-218l-35 -143h-23zM189 580l-105 -417h208z" />
    <glyph glyph-name="B.SC" horiz-adv-x="388" 
d="M55 0v604h152q119 0 119 -115v-73q0 -86 -63 -101q89 -10 89 -125v-75q0 -115 -109 -115h-188zM77 304v-284h163q89 0 89 95v75q0 59 -26.5 86.5t-84.5 27.5h-141zM77 583v-259h142q85 0 85 91v71q0 51 -24.5 74t-78.5 23h-124z" />
    <glyph glyph-name="C.SC" horiz-adv-x="401" 
d="M144 20h127q38 0 54 22.5t16 71.5v66h22v-65q0 -60 -20.5 -87.5t-71.5 -27.5h-127q-51 0 -71.5 27.5t-20.5 87.5v374q0 59 20.5 87t71.5 28h127q51 0 71.5 -28t20.5 -87v-63h-22v64q0 48 -16 70.5t-54 22.5h-127q-38 0 -54 -22.5t-16 -70.5v-376q0 -49 16 -71.5t54 -22.5
z" />
    <glyph glyph-name="D.SC" horiz-adv-x="418" 
d="M55 0v604h196q64 0 90 -33.5t26 -107.5v-323q0 -73 -26 -106.5t-90 -33.5h-196zM251 20q50 0 71.5 28.5t21.5 90.5v325q0 62 -21.5 90.5t-71.5 28.5h-174v-563h174z" />
    <glyph glyph-name="E.SC" horiz-adv-x="345" 
d="M77 583v-320h206l-3 -20h-203v-223h244l-3 -20h-263v604h264l-3 -21h-239z" />
    <glyph glyph-name="F.SC" horiz-adv-x="339" 
d="M77 583v-320h193l-3 -20h-190v-243h-22v604h263l-3 -21h-238z" />
    <glyph glyph-name="G.SC" horiz-adv-x="406" 
d="M202 257l3 20h155v-162q0 -58 -20 -86.5t-70 -28.5h-129q-89 0 -89 106v383q0 115 79 115h146q87 0 87 -107v-71h-22v66q0 48 -16 69.5t-52 21.5h-134q-36 0 -51 -23.5t-15 -75.5v-373q0 -91 70 -91h122q38 0 55 21t17 65v151h-136z" />
    <glyph glyph-name="H.SC" horiz-adv-x="414" 
d="M77 0h-22v604h22v-348h259v348h23v-604h-23v235h-259v-235z" />
    <glyph glyph-name="I.SC" horiz-adv-x="132" 
d="M77 0h-22v604h22v-604z" />
    <glyph glyph-name="J.SC" horiz-adv-x="229" 
d="M85 20q35 0 51 22t16 69v493h23v-497q0 -107 -89 -107h-71l3 20h67z" />
    <glyph glyph-name="K.SC" horiz-adv-x="333" 
d="M77 0h-22v604h22v-293l223 293h25l-227 -302l229 -302h-27l-223 293v-293z" />
    <glyph glyph-name="L.SC" horiz-adv-x="323" 
d="M77 604v-584h234l-3 -20h-253v604h22z" />
    <glyph glyph-name="M.SC" horiz-adv-x="467" 
d="M77 0h-22v604h32l146 -337l147 337h32v-604h-23v570l-145 -325h-22l-145 327v-572z" />
    <glyph glyph-name="N.SC" horiz-adv-x="426" 
d="M77 0h-22v604h22v-1l238 -492q10 -20 21 -46t12 -27v566h23v-604h-23l-228 474q-26 50 -43 92v-566z" />
    <glyph glyph-name="O.SC" horiz-adv-x="423" 
d="M52 115v374q0 59 20.5 87t71.5 28h135q51 0 71.5 -27.5t20.5 -87.5v-374q0 -60 -20.5 -87.5t-71.5 -27.5h-135q-51 0 -71.5 27.5t-20.5 87.5zM144 583q-38 0 -54 -22.5t-16 -70.5v-376q0 -49 16 -71.5t54 -22.5h135q38 0 54 22.5t16 71.5v376q0 48 -16 70.5t-54 22.5
h-135z" />
    <glyph glyph-name="P.SC" horiz-adv-x="371" 
d="M77 268v-268h-22v604h197q86 0 86 -107v-123q0 -106 -86 -106h-175zM77 583v-295h169q69 0 69 91v113q0 48 -16.5 69.5t-52.5 21.5h-169z" />
    <glyph glyph-name="Q.SC" horiz-adv-x="423" 
d="M52 115v374q0 59 20.5 87t71.5 28h135q51 0 71.5 -27.5t20.5 -87.5v-374q0 -60 -20.5 -87.5t-71.5 -27.5h-59v-103h-22v103h-54q-51 0 -71.5 27.5t-20.5 87.5zM144 20h54v94h22v-94h59q38 0 54 22.5t16 71.5v376q0 48 -16 70.5t-54 22.5h-135q-38 0 -54 -22.5t-16 -70.5
v-376q0 -49 16 -71.5t54 -22.5z" />
    <glyph glyph-name="R.SC" horiz-adv-x="378" 
d="M55 0v604h191q85 0 85 -107v-131q0 -107 -85 -107h-37l154 -259h-26l-154 259h-106v-259h-22zM77 583v-303h162q36 0 52.5 21.5t16.5 69.5v121q0 48 -16.5 69.5t-52.5 21.5h-162z" />
    <glyph glyph-name="S.SC" horiz-adv-x="374" 
d="M262 266l-155 77q-35 17 -48.5 38.5t-13.5 61.5v51q0 57 21.5 83.5t66.5 26.5h100q49 0 72 -26t23 -84v-68h-23v67q0 90 -71 90h-95q-40 0 -55.5 -20.5t-15.5 -73.5v-45q0 -32 9.5 -48.5t37.5 -31.5l158 -80q36 -18 49 -39.5t13 -65.5v-73q0 -106 -85 -106h-120
q-92 0 -92 106v74h22v-72q0 -46 16.5 -67t52.5 -21h115q36 0 52.5 21t16.5 67v70q0 37 -10 54.5t-41 33.5z" />
    <glyph glyph-name="T.SC" horiz-adv-x="314" 
d="M301 583h-133v-583h-23v583h-132v21h288v-21z" />
    <glyph glyph-name="U.SC" horiz-adv-x="411" 
d="M260 20q39 0 56.5 25.5t17.5 82.5v476h23v-480q0 -124 -95 -124h-113q-95 0 -95 124v480h22v-476q0 -56 18 -82t57 -26h109z" />
    <glyph glyph-name="V.SC" horiz-adv-x="371" 
d="M200 0h-28l-146 604h24l130 -553q4 -20 5 -29l6 29l130 553h24z" />
    <glyph glyph-name="W.SC" horiz-adv-x="591" 
d="M190 0h-27l-136 604h24l116 -530q7 -30 9 -51q2 15 8 51l99 529l24 1l100 -530q8 -44 8 -48q2 17 9 47l116 531h24l-136 -604h-27l-101 540q-4 14 -4 26q-2 -14 -5 -26z" />
    <glyph glyph-name="X.SC" horiz-adv-x="321" 
d="M160 312l126 292h23l-130 -303l127 -301h-23l-123 288l-122 -288h-24l128 301l-130 303h23z" />
    <glyph glyph-name="Y.SC" horiz-adv-x="364" 
d="M193 0h-22v259l-149 345h24l120 -283q11 -25 16 -45q9 26 17 44l119 284h23l-148 -345v-259z" />
    <glyph glyph-name="Z.SC" horiz-adv-x="319" 
d="M296 583l-251 -563h259l-3 -20h-280l-3 20l251 563h-246l-4 21h274z" />
    <glyph glyph-name="a.ital" horiz-adv-x="366" 
d="M313 505v-505h-21l-1 58q-24 -58 -81 -58h-63q-52 0 -74.5 32t-22.5 97v253q0 65 22.5 97t78.5 32h60q57 0 80 -54v48h22zM213 20q33 0 55 26.5t23 75.5v274q-2 44 -23 69.5t-55 25.5h-63q-39 0 -58.5 -24.5t-19.5 -80.5v-260q0 -106 75 -106h66z" />
    </font>
</defs>
</svg>
