<?xml version="1.0" standalone="no"?>
<!DOCTYPE svg PUBLIC "-//W3C//DTD SVG 1.1//EN" "http://www.w3.org/Graphics/SVG/1.1/DTD/svg11.dtd" >
<svg xmlns="http://www.w3.org/2000/svg" xmlns:xlink="http://www.w3.org/1999/xlink" version="1.1">
<metadata>
Created by FontForge 20170731 at Mon Jun  9 21:09:03 2014
 By Aleksey,,,
2013 Iconian Fonts - www.iconian.com
</metadata>
<defs>
<font id="SingaporeSling3DItalic" horiz-adv-x="795" >
  <font-face 
    font-family="Singapore Sling 3D Italic"
    font-weight="400"
    font-style="italic"
    font-stretch="normal"
    units-per-em="1000"
    panose-1="0 0 0 0 0 0 0 0 0 0"
    ascent="800"
    descent="-200"
    x-height="622"
    cap-height="622"
    bbox="-70 -220 1299 784"
    underline-thickness="50"
    underline-position="-175"
    unicode-range="U+0020-2122"
  />
<missing-glyph horiz-adv-x="500" 
 />
    <glyph glyph-name=".notdef" horiz-adv-x="500" 
 />
    <glyph glyph-name=".null" horiz-adv-x="0" 
 />
    <glyph glyph-name="nonmarkingreturn" horiz-adv-x="500" 
 />
    <glyph glyph-name="space" unicode=" " horiz-adv-x="409" 
 />
    <glyph glyph-name="space" unicode="&#xa0;" horiz-adv-x="409" 
 />
    <glyph glyph-name="FL0021h" unicode="!" horiz-adv-x="256" 
d="M77 120l-33 -133h6l20 -27h156l32 127l-21 27l2 6h-162zM202 622l-111 -445h6l20 -27h156l110 439l-20 27l1 6h-162zM107 190l105 419h136l-105 -419h-136zM60 0l27 107h136l-27 -107h-136z" />
    <glyph glyph-name="FL0022h" unicode="&#x22;" horiz-adv-x="432" 
d="M343 609h-136l-56 -224l158 89zM529 609h-136l-56 -224l158 89zM383 622h162l-1 -6l20 -27l-38 -150l-181 -102l-21 27l-6 -3l19 76l-178 -100l-21 27l-6 -3l65 261h162l-1 -6l18 -24z" />
    <glyph glyph-name="FL0023h" unicode="#" horiz-adv-x="732" 
d="M383 346h139l-16 -66h-139zM763 346l29 116h-105l37 147h-136l-37 -147h-139l37 147h-136l-37 -147h-106l-29 -116h106l-16 -66h-106l-29 -116h106l-41 -164h136l41 164h139l-41 -164h136l41 164h105l29 116h-105l16 66h105zM808 475l-1 -6l20 -27l-34 -136h-105l-3 -13
h78l-1 -6l20 -27l-34 -136h-105l-41 -164h-156l-20 27h-6l34 137h-86l-41 -164h-156l-20 27h-6l34 137h-73l-20 27h-6l35 142h106l3 13h-73l-20 27h-6l35 142h106l37 147h162l-1 -6l20 -27l-29 -114h86l37 147h162l-1 -6l20 -27l-29 -114h78zM413 306l-3 -13h86l3 13h-86z
" />
    <glyph glyph-name="FL0024h" unicode="$" horiz-adv-x="665" 
d="M351 502h38l-35 -143h-39q-8 0 -15.5 6.5t-13 16.5t-7.5 22t1 23q3 12 10 25t16.5 24.5t21 18.5t23.5 7zM421 107l36 145h33q29 0 40.5 -23.5t4.5 -51.5q-3 -12 -11.5 -24t-20 -22.5t-24.5 -17t-25 -6.5h-33zM291 107h-207l-27 -107h207l-25 -102h130l25 102h72
q35 0 66.5 17t57 43t44 58t26.5 61q9 36 4.5 68.5t-21.5 57t-45.5 39.5t-67.5 15h-46l35 143h214l27 107h-214l25 102h-130l-25 -102h-31q-39 0 -76 -14t-67.5 -38t-53 -57.5t-32.5 -72.5q-8 -34 -4 -65.5t19.5 -56t43 -39t66.5 -14.5h46zM74 120h207l23 92h-3
q-38 0 -66 13.5t-46 36.5l-6 7q-31 26 -41 68t1 90q10 42 34 77.5t57 62t72.5 41t81.5 14.5h18l26 102h156l-2 -6l20 -27l-17 -69h187l-1 -6l20 -27l-32 -127h-214l-22 -90h6q51 0 84.5 -22.5t49.5 -58.5l3 -5q20 -26 26 -62t-4 -75q-8 -31 -27.5 -64.5t-47 -61t-61 -45.5
t-70.5 -18h-62l-25 -102h-150l-21 27h-6l19 75h-174l-20 27h-6zM487 212l-23 -91q17 4 35 21t23 35q5 20 -1 33q-8 2 -11 2h-23zM313 397q-3 -9 -1 -24q1 -1 6 -1h26l22 89q-17 -4 -33 -24t-20 -40z" />
    <glyph glyph-name="FL0025h" unicode="%" horiz-adv-x="663" 
d="M430 102q5 21 24.5 37t41.5 16q23 0 33 -16t5 -37q-5 -23 -23.5 -37t-40.5 -14q-21 0 -33 15t-7 36zM278 503q5 21 24.5 37t41.5 16q23 0 33 -16t5 -37q-5 -23 -23.5 -37t-40.5 -14q-21 0 -33 15t-7 36zM318 103q-9 -35 -3.5 -65t22.5 -52t44 -34.5t62 -12.5t68 12.5
t61 34.5t48 52t29 65t3.5 65.5t-22 53t-44 35.5t-61.5 13q-54 0 -100 -28l359 367h-160l-142 -145q5 10 8.5 19.5t6.5 20.5q9 35 3.5 65.5t-22 53t-44 35.5t-61.5 13q-35 0 -68 -13t-61 -36t-48.5 -53.5t-29.5 -64.5q-9 -35 -3.5 -65t22.5 -52t44 -34.5t62 -12.5
q25 0 48 6.5t46 17.5l-356 -364h161l145 149q-12 -23 -17 -46zM829 589l-299 -306q45 -1 77.5 -21t48.5 -54l6 -8q18 -24 23.5 -56.5t-4.5 -70.5q-9 -37 -30.5 -69t-50.5 -55t-64.5 -36.5t-72.5 -13.5q-38 0 -66.5 13.5t-46.5 37.5l-6 7q-19 16 -31 38t-14 51l-84 -86h-186
l-20 27h-9l307 313q-37 0 -64.5 13.5t-44.5 37.5l-6 7q-29 23 -40 60.5t1 85.5q9 37 31 70t52.5 57.5t66.5 38.5t74 14q46 0 77.5 -20t47.5 -54l8 -9q19 -28 24 -67l87 88h192l-5 -5zM463 72l-2 -6q6 -2 12 -2q16 0 30 10.5t18 27.5q2 10 2 13h-7q-17 0 -32.5 -13t-20.5 -30
zM311 473l-2 -6q6 -2 12 -2q16 0 30 10.5t18 27.5q1 3 1 12q-2 0 -3 0.5t-3 0.5q-17 0 -32.5 -13t-20.5 -30z" />
    <glyph glyph-name="FL0026h" unicode="&#x26;" horiz-adv-x="744" 
d="M294 269h239q29 -3 40 -26t5 -48q-3 -11 -10.5 -24.5t-18 -25.5t-23.5 -20t-27 -8h-247q-14 0 -23 8t-13.5 20t-5 25.5t2.5 24.5q6 25 28.5 48t52.5 26zM783 379h-465q-27 2 -38.5 20.5t-5.5 42.5q5 21 24.5 35.5t47.5 14.5h271l29 117h-271q-41 0 -77.5 -12.5t-66 -34.5
t-50.5 -53t-30 -67q-9 -35 -3.5 -68.5t23.5 -58.5q-32 -32 -53 -59t-30 -62q-9 -36 -6 -71t19 -62.5t46.5 -44t75.5 -16.5h247q45 0 83.5 16.5t68.5 44t50 62.5t29 71q6 22 4.5 39.5t-6.5 35.5h57zM322 392h478l-2 -6l21 -27l-33 -130h-50q3 -15 3 -31q0 -14 -5 -34
q-10 -38 -31.5 -75t-52.5 -65.5t-71.5 -46t-88.5 -17.5h-247q-43 0 -73 14t-48 38l-6 7q-35 29 -44.5 76.5t3.5 98.5q9 35 28.5 62t50.5 59q-16 28 -20 60.5t4 66.5q10 39 32 72t53.5 57t71 37.5t83.5 13.5h284l-1 -6l20 -27l-34 -137h-281q-23 0 -39 -11.5t-20 -28.5
q-3 -11 -2 -16q7 -4 17 -4zM245 165q-2 -8 -2.5 -16t1.5 -17q3 -1 5 -1.5t6 -0.5h247q11 0 21.5 7t19 16.5t14.5 21t8 20.5q4 16 -2 30q-2 2 -5 2.5t-5 1.5h-239q-27 -4 -45 -24t-24 -40z" />
    <glyph glyph-name="FL0027h" unicode="'" horiz-adv-x="246" 
d="M343 609h-136l-56 -224l158 89zM197 622h162l-1 -6l20 -27l-38 -150l-181 -102l-21 27l-6 -3z" />
    <glyph glyph-name="FL0028h" unicode="(" horiz-adv-x="372" 
d="M103 304q-9 -36 -10 -72t6 -69.5t23 -64t41 -54.5l2 -2q28 -37 72.5 -59.5t108.5 -22.5l32 127l-21 27l2 6q-25 0 -46 11.5t-36 31.5q-10 24 -12.5 53t5.5 59q9 36 32.5 69.5t53.5 59.5t61 42t55 16l32 127l-20 27l1 6q-73 0 -135.5 -24.5t-112 -67.5t-84 -101
t-50.5 -125zM116 304q16 64 48 119.5t78 96.5t103.5 65t123.5 24l-27 -107q-24 0 -55.5 -16.5t-61.5 -44.5t-54.5 -63.5t-33.5 -72.5t-4.5 -72.5t19.5 -63.5t38.5 -45t52.5 -17l-27 -107q-67 0 -111.5 27.5t-68.5 71.5t-28.5 98t8.5 107z" />
    <glyph glyph-name="FL0029h" unicode=")" horiz-adv-x="372" 
d="M408 304q16 64 11.5 119.5t-29.5 96.5t-71 65t-112 24l-27 -107q24 0 47 -16.5t39.5 -44.5t23 -63.5t-2.5 -72.5t-31.5 -72.5t-51 -63.5t-61 -45t-60.5 -17l-27 -107q67 0 125.5 27.5t104.5 71.5t77.5 98t44.5 107zM190 462l-20 27h-6l33 133q81 0 133 -29.5t79 -80.5
l2 -3q32 -43 39.5 -103t-10.5 -132q-14 -55 -47 -111t-81.5 -101t-111 -73.5t-134.5 -28.5l-20 27h-6l33 133q29 0 60.5 16t60 42t50 59t30.5 68q10 38 0.5 73.5t-29.5 61.5q-13 10 -27 16t-28 6z" />
    <glyph glyph-name="asterisk" unicode="*" horiz-adv-x="330" 
d="M349 526l86 15l-5 83l-87 -38l33 86h-87l-10 -85l-65 37l-49 -83l78 -14l-75 -61l58 -53l60 76l20 -76l84 53zM412 652l-11 -28l41 18l1 -9l19 -25l6 -105l-77 -14l18 -24l-2 -1l20 -29l-106 -67l-21 28l-4 -2l-8 25l-39 -51l-74 67l-13 18l-13 12l42 34l-19 4l-20 26
l-7 2l66 111l58 -32l8 75h116l-3 -6z" />
    <glyph glyph-name="FL002Bh" unicode="+" horiz-adv-x="421" 
d="M362 379l25 97h-116l-25 -97h-97l-28 -116h97l-25 -98h116l25 98h98l28 116h-98zM403 489l-2 -6l21 -27l-16 -64h71l-2 -6l21 -27l-34 -136h-98l-25 -98h-136l-20 27h-6l18 71h-64l-21 27h-6l36 142h97l24 97h142z" />
    <glyph glyph-name="FL002Ch" unicode="," horiz-adv-x="246" 
d="M218 107h-136l-56 -224l158 89zM72 120h162l-2 -6l21 -27l-38 -150l-181 -102l-21 28l-6 -4z" />
    <glyph glyph-name="FL002Dh" unicode="-" horiz-adv-x="406" 
d="M140 392l-36 -142h6l21 -27h316l34 136l-21 27l2 6h-322zM121 263l28 116h296l-28 -116h-296z" />
    <glyph glyph-name="FL002Eh" unicode="." horiz-adv-x="246" 
d="M72 120l-33 -133h6l20 -27h156l32 127l-21 27l2 6h-162zM55 0l27 107h136l-27 -107h-136z" />
    <glyph glyph-name="FL002Fh" unicode="/" horiz-adv-x="663" 
d="M190 0l594 609h-160l-595 -609h161zM813 622l-5 -5l21 -28l-614 -629h-186l-20 27h-9l621 635h192z" />
    <glyph glyph-name="FL0030h" unicode="0" horiz-adv-x="742" 
d="M655 301q-11 -45 -37 -82.5t-61.5 -64.5t-78 -42.5t-85.5 -15.5q-30 0 -57 9l310 319q12 -26 14.5 -57.5t-5.5 -65.5zM238 301q10 42 36 80t61.5 67.5t78 46.5t85.5 17q36 0 65 -12l-315 -321q-28 50 -11 122zM115 301q-18 -70 -7 -130t45 -104t88 -69t123 -25
q70 0 136.5 25t122 69t96 104t58.5 130t8 131t-43.5 106t-88 71t-124.5 26q-69 0 -136 -26.5t-123 -71.5t-97 -106t-58 -130zM102 301q18 72 60.5 135t101 110.5t128 74.5t141.5 27q88 0 149 -35.5t91 -98.5q34 -46 45 -109q10 -63 -8 -134t-60 -134q-31 -46 -71.5 -83.5
t-88 -64.5t-99.5 -41.5t-107 -14.5q-70 0 -124.5 24t-89.5 69q-51 46 -70.5 116.5t2.5 158.5zM519 472q-41 0 -81 -16.5t-74 -44t-58.5 -64t-34.5 -76.5q-9 -32 -6 -60zM642 301q4 14 5 29t0 29l-244 -250q40 1 78.5 16t71 40.5t56 60t33.5 75.5z" />
    <glyph glyph-name="FL0031h" unicode="1" horiz-adv-x="321" 
d="M132 479l21 -27h76l-116 -465h6l20 -27h157l157 629l-20 27l1 6h-166l-145 -143h9zM252 492h-99l118 117h147l-152 -609h-137z" />
    <glyph glyph-name="FL0032h" unicode="2" horiz-adv-x="671" 
d="M613 0l27 107h-422l17 70q3 14 11 27.5t19 24t24.5 17t28.5 6.5h197q39 0 73.5 14.5t62.5 39t47.5 56t27.5 65.5q10 39 4.5 72.5t-24 57.5t-48.5 38t-69 14h-375l-27 -107h382q12 0 19.5 -8t11.5 -19.5t4.5 -24.5t-2.5 -23q-2 -8 -9.5 -19.5t-18 -22.5t-21 -18.5
t-18.5 -7.5h-215q-39 0 -75 -15t-65.5 -39.5t-50 -57t-29.5 -68.5l-45 -179h558zM656 120l-2 -6l21 -27l-32 -127h-578l-20 27h-6l48 192q9 38 31.5 73t54 61.5t70 42.5t80.5 16h215q6 0 14 6t15.5 15t13.5 18.5t8 15.5q4 16 0 35h-392l-20 27h-6l33 133h388
q52 0 88.5 -22.5t52.5 -60.5l5 -5q20 -26 26 -60.5t-5 -76.5q-9 -36 -30 -69.5t-50.5 -59t-66.5 -41t-77 -15.5h-197q-25 0 -44.5 -20.5t-25.5 -44.5l-7 -27h395z" />
    <glyph glyph-name="FL0033h" unicode="3" horiz-adv-x="664" 
d="M193 379l45 -110h266q29 -3 40 -26t5 -48q-3 -11 -10.5 -24.5t-18 -25.5t-23.5 -20t-27 -8h-386l-29 -117h386q45 0 83.5 16.5t68.5 44t50 62.5t29 71q9 35 2 62t-23 59q30 25 51.5 58.5t30.5 68.5q9 36 3.5 67t-23.5 53t-48.5 34.5t-71.5 12.5h-386l-29 -117h386
q28 0 39.5 -14.5t6.5 -35.5q-6 -24 -26.5 -42.5t-49.5 -20.5h-341zM228 256l-55 136h364q22 2 38.5 16.5t21.5 33.5q1 2 0.5 4t0.5 4q-4 1 -7 1.5t-7 0.5h-396l-21 27h-6l36 143h399q57 0 94 -21.5t52 -59.5l5 -6q37 -48 19 -123q-9 -35 -30 -68.5t-50 -59.5
q15 -31 21.5 -58t-2.5 -62q-10 -38 -31.5 -75t-52.5 -65.5t-71.5 -46t-88.5 -17.5h-396l-20 27h-6l35 143h399q11 0 21.5 7t19 16.5t14.5 21t8 20.5q3 17 -1 30q-2 2 -5.5 2.5t-5.5 1.5h-271l-20 27h-5z" />
    <glyph glyph-name="FL0034h" unicode="4" horiz-adv-x="687" 
d="M784 609h-136l-59 -234h-305l59 234h-136l-85 -342h441l-67 -267h136zM638 622h162l-1 -6l20 -27l-157 -629h-156l-20 27h-6l60 240h-408l-21 27h-6l92 368h162l-1 -6l20 -27l-50 -201h252z" />
    <glyph glyph-name="FL0035h" unicode="5" horiz-adv-x="670" 
d="M72 120l-33 -133h6l20 -27h426q37 0 70.5 18t61 45.5t47 61t27.5 64.5q10 39 4 75t-26 62l-3 5q-16 36 -49.5 58.5t-84.5 22.5h-226l22 90h434l32 127l-20 27l1 6h-584l-95 -383h6l20 -27h387q3 0 11 -2q6 -13 1 -33q-2 -10 -9 -20t-16.5 -18.5t-20 -13.5t-19.5 -5h-390z
M55 0l27 107h377q12 0 25 6.5t24.5 17t20 22.5t11.5 24q7 28 -4.5 51.5t-40.5 23.5h-377l89 357h558l-27 -107h-434l-35 -143h266q39 0 67.5 -15t45.5 -39.5t21.5 -57t-4.5 -68.5q-8 -29 -26.5 -61t-44 -58t-57 -43t-66.5 -17h-416z" />
    <glyph glyph-name="FL0036h" unicode="6" horiz-adv-x="711" 
d="M233 267h358l-40 -160h-198q-24 0 -46 13.5t-39 35.5t-26.5 51t-8.5 60zM116 304q-13 -53 -8.5 -107t28.5 -98t68 -71.5t110 -27.5h342l93 375h-478q17 25 39 48t46 40.5t47 28t42 10.5h336l27 107h-297q-69 0 -133.5 -24t-117.5 -65t-90.5 -96.5t-53.5 -119.5zM103 304
q16 67 55.5 125t94.5 101t122 67.5t139 24.5h310l-1 -6l20 -27l-32 -127h-346q-26 0 -60.5 -21t-64.5 -53h426l-2 -6l21 -27l-99 -395h-352q-60 0 -100.5 21t-67.5 56q-27 23 -43.5 53.5t-24 65.5t-6 72.5t10.5 75.5zM266 227q0 -17 4 -33t10 -30q15 -20 34.5 -32t41.5 -12
h185l27 107h-302z" />
    <glyph glyph-name="FL0037h" unicode="7" horiz-adv-x="630" 
d="M55 0h170l477 509l25 100h-520l-27 -107h344zM190 462l-20 27h-6l33 133h546l-1 -6l20 -27l-28 -113l-484 -516h-194l-20 27h-8l443 475h-281z" />
    <glyph glyph-name="FL0038h" unicode="8" horiz-adv-x="700" 
d="M570 379h-252q-27 2 -38.5 20.5t-5.5 42.5q5 21 24.5 35.5t47.5 14.5h254q28 0 39.5 -14.5t6.5 -35.5q-6 -24 -26.5 -42.5t-49.5 -20.5zM294 269h246q29 -3 40 -26t5 -48q-3 -11 -10.5 -24.5t-18 -25.5t-23.5 -20t-27 -8h-254q-14 0 -23 8t-13.5 20t-5 25.5t2.5 24.5
q6 25 28.5 48t52.5 26zM151 442q-9 -35 -3.5 -68.5t23.5 -58.5q-32 -32 -53 -59t-30 -62q-9 -36 -6 -71t19.5 -62.5t47 -44t75.5 -16.5h254q45 0 83.5 16.5t68 44t49.5 62.5t29 71q9 35 2 62t-23 59q30 25 51.5 58.5t30.5 68.5q9 36 3.5 67t-23.5 53t-48.5 34.5t-70.5 12.5
h-254q-41 0 -77.5 -12.5t-66.5 -34.5t-51 -53t-30 -67zM138 442q10 39 32.5 72t54.5 57t71 37.5t83 13.5h254q57 0 94.5 -22.5t51.5 -60.5l4 -4q37 -48 19 -123q-9 -35 -30 -68.5t-50 -59.5q15 -31 21.5 -58t-2.5 -62q-10 -38 -31 -75t-52 -65.5t-71.5 -46t-88.5 -17.5h-254
q-45 0 -74.5 14.5t-47.5 38.5l-5 6q-35 29 -45 76.5t3 98.5q9 35 28.5 62t50.5 59q-16 28 -20 60.5t4 66.5zM245 165q-2 -8 -2.5 -16t1.5 -17q3 -1 5 -1.5t6 -0.5h254q11 0 21.5 7t19 16.5t14.5 21t8 20.5q4 16 -2 30q-2 2 -5 2.5t-5 1.5h-245q-26 -3 -45.5 -23t-24.5 -41z
M322 392h252q21 2 37.5 16.5t21.5 33.5q1 2 0.5 4t0.5 4q-4 1 -7 1.5t-7 0.5h-254q-23 0 -39 -11.5t-20 -28.5q-3 -11 -2 -16q7 -4 17 -4z" />
    <glyph glyph-name="FL0039h" unicode="9" horiz-adv-x="711" 
d="M630 342h-358l40 160h198q25 0 47 -13.5t38 -35.5t25.5 -51t9.5 -60zM747 305q13 53 8.5 107t-28.5 98t-68 71.5t-110 27.5h-342l-94 -375h478q-17 -25 -39 -48t-45.5 -40.5t-46.5 -28t-42 -10.5h-336l-27 -107h297q69 0 133.5 23.5t117 65t90.5 97t54 119.5zM123 194
l-20 27h-6l100 401h355q72 0 119 -31t72 -82q34 -48 43 -109.5t-6 -124.5q-17 -66 -56 -123.5t-93.5 -100t-121 -67t-137.5 -24.5h-307l-20 27h-6l33 133h349q25 0 58.5 21t63.5 53h-420zM530 462h-188l-26 -107h299q-3 25 -11.5 47t-20.5 40q-12 9 -25.5 14.5t-27.5 5.5z
" />
    <glyph glyph-name="FL003Ah" unicode=":" horiz-adv-x="246" 
d="M72 120l-33 -133h6l20 -27h156l32 127l-21 27l2 6h-162zM140 392l-33 -133h6l20 -27h156l32 127l-21 27l2 6h-162zM123 272l26 107h136l-26 -107h-136zM55 0l27 107h136l-27 -107h-136z" />
    <glyph glyph-name="FL003Bh" unicode=";" horiz-adv-x="246" 
d="M218 107h-136l-56 -224l158 89zM149 379l-26 -107h136l26 107h-136zM72 120h162l-2 -6l21 -27l-38 -150l-181 -102l-21 28l-6 -4zM107 259l33 133h162l-2 -6l21 -27l-32 -127h-156l-20 27h-6z" />
    <glyph glyph-name="FL003Ch" unicode="&#x3c;" horiz-adv-x="442" 
d="M266 305l297 304h-160l-297 -304l145 -305h161zM592 622l-5 -5l21 -28l-307 -314l151 -315h-186l-20 27h-4l-151 318l309 317h192z" />
    <glyph glyph-name="FL003Dh" unicode="=" horiz-adv-x="456" 
d="M475 297h-346l-29 -116h346zM516 462h-346l-29 -116h346zM160 475h372l-1 -6l20 -27l-34 -136h-27v-2l20 -27l-34 -136h-366l-20 27h-6l35 142h29l-17 23h-6z" />
    <glyph glyph-name="FL003Eh" unicode="&#x3e;" horiz-adv-x="442" 
d="M10 -13l20 -27h186l307 315l-150 314l-15 18l-6 15h-192l152 -317l-311 -318h9zM328 305l-145 304h160l145 -304l-297 -305h-161z" />
    <glyph glyph-name="FL003Fh" unicode="?" horiz-adv-x="653" 
d="M129 120l-33 -133h6l20 -27h156l32 127l-21 27l2 6h-162zM170 489l20 -27h392q4 -19 0 -35q-2 -6 -8 -15.5t-13.5 -18.5t-15.5 -15t-14 -6h-151q-54 0 -94.5 -17t-69.5 -45.5t-47.5 -66t-28.5 -77.5h6l21 -27l145 -1l6 3.5t10 10.5l8 16t13 20t19.5 17t27.5 7h132
q40 0 77 15.5t66.5 41t50.5 59t30 69.5q11 42 5 76.5t-26 60.5l-5 5q-16 38 -52.5 60.5t-88.5 22.5h-388l-33 -133h6zM112 0l27 107h136l-27 -107h-136zM292 178l-135 1q9 36 25.5 68.5t42.5 57t63.5 39.5t88.5 15h151q8 0 18.5 7.5t21 18.5t18 22.5t9.5 19.5q3 10 2.5 23
t-4.5 24.5t-11.5 19.5t-19.5 8h-382l27 107h375q39 0 69 -14t48.5 -38t24 -57.5t-4.5 -72.5q-8 -34 -27.5 -65.5t-47.5 -56t-62.5 -39t-73.5 -14.5h-132q-24 0 -39.5 -11.5t-25 -25.5t-14 -25.5t-5.5 -11.5z" />
    <glyph glyph-name="at" unicode="@" horiz-adv-x="743" 
d="M677 358q-5 -23 -15 -46.5t-24 -43.5q-39 -38 -60 -52t-35 -16l122 286q15 -23 18.5 -56t-6.5 -72zM448 270l-49 -68v-1q-3 -3 -5 -5.5t-7 -2.5q-16 0 -23 19q-8 24 -3 37q6 25 18.5 52.5t29.5 57.5q20 33 37 48t38 15q4 0 4 -1l-2 -8q7 -7 7 -17q0 -5 -0.5 -10t-1.5 -10
q-6 -25 -16.5 -51.5t-26.5 -54.5zM399 70q-63 0 -102.5 15.5t-63.5 44.5q-23 29 -28.5 72.5t7.5 94.5q16 63 44.5 106t70.5 75t90 49t108 17q32 0 60 -9t50 -23h-83l-5 -13q-8 13 -17.5 19t-32.5 6q-51 0 -89 -23t-80 -72q-59 -62 -85 -160q-1 -27 3.5 -56.5t17 -53.5
t33 -39.5t51.5 -15.5q17 0 22 1.5t11 4.5l1 1h2l-1 -2l23 12l4 2l4 2q6 1 12 6q8 -15 21 -25.5t39 -10.5q41 0 70 10q-90 -35 -157 -35zM683 189q39 38 62.5 77.5t36.5 91.5q15 60 5 110.5t-39.5 87t-77 57.5t-107.5 21h-33q-89 0 -158.5 -27.5t-121 -73t-85 -105.5
t-49.5 -125l-4 -16q-17 -65 -11.5 -122t35 -100t85 -67.5t138.5 -24.5h18q45 0 87.5 7.5t90.5 26.5q35 14 81.5 44t98.5 70l11 12h-130q17 11 32.5 25t34.5 31zM152 22l-3 4q-48 45 -59 112.5t9 148.5l4 16q16 67 51 129.5t88.5 110t126 76t164.5 28.5h33q76 0 132 -31.5
t84 -85.5l2 -2q29 -38 37.5 -89t-6.5 -111q-14 -54 -38.5 -95t-64.5 -80q-6 -6 -8 -7h69l-4 -5l21 -28l-26 -28q-54 -42 -101 -72t-84 -45q-48 -20 -92 -27.5t-90 -7.5h-18q-85 0 -140 23.5t-87 65.5zM394 219l-2 -4t0 -4l44 62q27 52 41 99q-18 -11 -37 -45v-1
q-17 -30 -29 -57t-17 -50zM664 358q5 17 6 34l-56 -133q3 3 6 6.5t7 7.5q14 20 23 41.5t14 43.5zM235 196q0 -36 13 -61q15 -18 39 -30l-5 6q-36 30 -47 85zM436 85l-1 -1q2 1 8 1l-1 2q-1 0 -2 -0.5t-2 -0.5l-1 -1h-1z" />
    <glyph glyph-name="FL0041h" unicode="A" 
d="M480 609l-450 -609h146l186 263l45 -94h172l40 -169h146l-148 609h-137zM513 479h4l46 -201h-194zM6 -13l469 635h153l3 -10l17 -23l153 -629h-168l-20 27h-5l-35 142h-151l-20 27h-4l-24 47l-172 -243h-168l-20 27h-8zM546 291l-28 119l-85 -119h113z" />
    <glyph glyph-name="FL0042h" unicode="B" horiz-adv-x="665" 
d="M285 379l29 113h251q28 0 39.5 -14.5t6.5 -35.5q-6 -24 -26.5 -42.5t-49.5 -20.5h-250zM220 117l61 245l49 -93h175q29 -3 40 -26t5 -48q-3 -11 -10.5 -24.5t-18 -25.5t-23.5 -20t-27 -8h-251zM594 609h-387l-152 -609h387q45 0 83.5 16.5t68.5 44t50 62.5t29 71
q9 35 0 69t-27 55q29 21 54 55t34 69q9 36 3.5 67t-23.5 53t-48.5 34.5t-71.5 12.5zM197 622h400q57 0 94 -21.5t52 -59.5l5 -6q37 -48 19 -123q-9 -35 -32.5 -68.5t-51.5 -56.5q17 -23 24 -55.5t-1 -67.5q-10 -38 -31.5 -75t-52.5 -65.5t-71.5 -46t-88.5 -17.5h-397l-20 27
h-6zM321 256l-18 33l-40 -159h211q11 0 21.5 7t19 16.5t14.5 21t8 20.5q3 17 -1 30q-2 2 -5.5 2.5t-5.5 1.5h-180l-20 27h-4zM344 452l-15 -60h209q22 2 38.5 16.5t21.5 33.5q1 2 0.5 4t0.5 4q-4 1 -7 1.5t-7 0.5h-241z" />
    <glyph glyph-name="FL0043h" unicode="C" horiz-adv-x="672" 
d="M103 304q-9 -38 -10.5 -75.5t6 -72.5t24 -65.5t43.5 -53.5q27 -35 67.5 -56t100.5 -21h313l32 127l-21 27l2 6h-304q-23 0 -42 11t-35 30q-11 25 -14 54.5t5 59.5q9 36 31.5 69.5t51 59.5t58.5 42t54 16h307l32 127l-20 27l1 6h-313q-66 0 -126 -26.5t-109 -71t-84 -102
t-50 -118.5zM116 304q15 59 48.5 114t80 97.5t104 68t120.5 25.5h300l-27 -107h-297q-25 0 -57 -16.5t-62.5 -44.5t-55 -63.5t-33.5 -72.5t-3 -72.5t23 -63.5t42 -45t54 -17h291l-27 -107h-303q-66 0 -110 27.5t-68 71.5t-28.5 98t8.5 107z" />
    <glyph glyph-name="FL0044h" unicode="D" horiz-adv-x="711" 
d="M180 502h337q21 0 44 -17.5t40.5 -45.5t25.5 -63t-1 -71q-9 -37 -33 -72.5t-54.5 -63.5t-64.5 -45t-62 -17h-198l71 288h-132l-98 -395h343q66 0 123.5 27.5t103.5 71.5t77.5 98t44.5 107q16 64 9 119.5t-35.5 96.5t-77.5 65t-118 24h-318zM320 375l-63 -255h158
q27 0 58 16t59 42t50 59t31 68q9 36 0 72t-29 62q-23 23 -47 23h-347l-20 27h-6l33 133h331q82 0 137.5 -32t81.5 -86h1q32 -43 40 -102t-9 -128q-14 -55 -46.5 -111t-79.5 -101t-107 -73.5t-128 -28.5h-353l-20 27h-6l105 421h158l-2 -6z" />
    <glyph glyph-name="FL0045h" unicode="E" horiz-adv-x="602" 
d="M148 375l-26 -108h492l26 108h-492zM82 107l-27 -107h492l27 107h-492zM699 609h-492l-27 -107h492zM105 254l34 134h518l-2 -6l21 -27l-32 -128h-512l-21 27h-6zM197 622h518l-1 -6l20 -27l-32 -127h-512l-20 27h-6zM39 -13l33 133h518l-2 -6l21 -27l-32 -127h-512
l-20 27h-6z" />
    <glyph glyph-name="FL0046h" unicode="F" horiz-adv-x="602" 
d="M699 609h-492l-27 -107h492zM148 374l-93 -374h136l67 268h311l26 106h-447zM39 -13l99 400h473l-1 -6l20 -27l-31 -126h-311l-67 -268h-156l-20 27h-6zM197 622h518l-1 -6l20 -27l-32 -127h-512l-20 27h-6z" />
    <glyph glyph-name="FL0047h" unicode="G" horiz-adv-x="711" 
d="M103 304q-9 -38 -10.5 -75.5t6 -72.5t24 -65.5t43.5 -53.5q27 -35 67.5 -56t100.5 -21h352l103 415l-20 27l2 6h-158l-72 -288h-185q-23 0 -42 11t-35 30q-11 25 -14 54.5t5 59.5q8 34 30.5 67.5t51 60t59 43t54.5 16.5h346l32 127l-20 27l1 6h-332q-78 0 -142.5 -24.5
t-114 -67.5t-83 -101t-49.5 -125zM116 304q16 64 48 119.5t79 96.5t109 65t137 24h319l-27 -107h-336q-26 0 -58 -17.5t-62.5 -45.5t-54.5 -63t-33 -71q-9 -37 -3 -72.5t23 -63.5t42 -45t54 -17h198l71 288h132l-98 -395h-342q-66 0 -110 27.5t-68 71.5t-28.5 98t8.5 107z
" />
    <glyph glyph-name="FL0068h" unicode="H" horiz-adv-x="630" 
d="M727 609h-136l-59 -234h-248l59 234h-136l-152 -609h136l67 267h248l-67 -267h136zM581 622h162l-1 -6l20 -27l-157 -629h-156l-20 27h-6l60 240h-195l-67 -267h-156l-20 27h-6l158 635h162l-1 -6l20 -27l-50 -201h195z" />
    <glyph glyph-name="FL0049h" unicode="I" horiz-adv-x="591" 
d="M55 0h481l27 107h-172l98 395h172l27 107h-481l-27 -107h173l-98 -395h-173zM519 462l-85 -342h145l-2 -6l21 -27l-32 -127h-501l-20 27h-6l33 133h173l85 342h-140l-20 27h-6l33 133h507l-1 -6l20 -27l-32 -127h-172z" />
    <glyph glyph-name="FL004Ah" unicode="J" horiz-adv-x="554" 
d="M322 117h-263l60 -117h212q45 0 80 13.5t61.5 37t43.5 54t25 63.5l110 441h-260l-27 -107h123l-77 -309q-3 -12 -10.5 -25.5t-18.5 -25t-26 -18.5t-33 -7zM36 130h289q29 0 48 21t24 42l67 269h-90l-20 27h-6l33 133h286l-1 -6l20 -27l-113 -451q-9 -35 -27 -67.5
t-45.5 -57t-64.5 -39t-85 -14.5h-217l-20 27h-4z" />
    <glyph glyph-name="FL004Bh" unicode="K" horiz-adv-x="629" 
d="M271 320l72 289h-136l-152 -609h136l72 289l175 -289h161l-177 307l329 302h-161zM359 622l-1 -6l20 -27l-51 -204l260 237h194l-5 -5l21 -28l-340 -312l183 -317h-187l-20 27h-4l-143 235l-65 -262h-156l-20 27h-6l158 635h162z" />
    <glyph glyph-name="FL004Ch" unicode="L" horiz-adv-x="532" 
d="M197 622l-158 -635h6l20 -27h372l138 127l-21 28l5 5h-298l117 469l-20 27l1 6h-162zM55 0l152 609h136l-125 -502h311l-117 -107h-357z" />
    <glyph glyph-name="FL004Dh" unicode="M" horiz-adv-x="1079" 
d="M342 609h-136l-152 -609h136l123 492h211q34 0 46 -20.5t4 -55.5l-104 -416h136l123 492h211q15 0 26 -7t17 -18.5t8 -25t-1 -25.5l-104 -416h137l110 441q8 33 6 63.5t-16.5 54t-42.5 37t-73 13.5h-175l-99 -99q-5 45 -40.5 72t-101.5 27h-175l-97 -91zM196 622h162
l-1 -6l20 -27l-1 -2l37 35h181q54 0 88 -18.5t51 -50.5l11 -14l-2 2l2 -2l1 -1l84 84h181q57 0 88.5 -20t44.5 -52l7 -8q19 -25 22 -59t-7 -72l-112 -451h-157l-20 27h-6l107 429q3 14 -2 33q-8 3 -15 3h-201l-123 -492h-156l-20 27h-6l107 429q5 22 2 33q-9 3 -19 3h-201
l-123 -492h-156l-20 27h-6zM1148 544l-2 2z" />
    <glyph glyph-name="FL004Eh" unicode="N" horiz-adv-x="687" 
d="M757 544l-2 2zM197 622l-158 -635h6l20 -27h156l123 492h225q7 0 11.5 -0.5t9.5 -1.5q1 -7 -0.5 -15.5t-3.5 -18.5l-107 -429h6l20 -27h157l112 451q10 38 7 72t-22 59l-7 8q-13 32 -44.5 52t-88.5 20h-205l-37 -35l1 2l-20 27l1 6h-162zM55 0l152 609h136l-23 -91l97 91
h199q45 0 73 -13.5t42.5 -37t16.5 -54t-6 -63.5l-110 -441h-137l104 416q9 38 1 57t-51 19h-235l-123 -492h-136z" />
    <glyph glyph-name="FL004Fh" unicode="O" horiz-adv-x="742" 
d="M271 271q10 40 34.5 76.5t58.5 64t74 44t81 16.5q62 0 103 -35q19 -27 24.5 -62.5t-4.5 -73.5q-11 -42 -35.5 -77t-57.5 -60.5t-72.5 -40t-80.5 -14.5q-38 0 -68 14t-50 38q-23 49 -7 110zM102 301q-22 -88 -2.5 -158.5t70.5 -116.5q35 -45 89.5 -69t124.5 -24
q55 0 107 14.5t99.5 41.5t88 64.5t71.5 83.5q42 61 60 134q18 72 8 133.5t-45 109.5q-30 63 -91 98.5t-149 35.5q-72 0 -141.5 -27t-128 -74.5t-101 -110.5t-60.5 -135zM238 301q-11 -42 -3.5 -79.5t28.5 -65t54.5 -44t75.5 -16.5q43 0 85.5 15.5t78 42.5t61.5 64.5t37 82.5
q10 42 4 80.5t-26.5 67.5t-54.5 46t-79 17q-43 0 -85.5 -17t-78 -46.5t-61.5 -67.5t-36 -80zM115 301q17 69 58 130t97 106t123 71.5t136 26.5q70 0 124.5 -26t88 -71t43.5 -106t-8 -131t-58.5 -130t-96 -104t-122 -69t-136.5 -25q-69 0 -123 25t-88 69t-45 104t7 130z" />
    <glyph glyph-name="FL0050h" unicode="P" horiz-adv-x="640" 
d="M310 317l34 135h217h2q3 -14 3 -29q0 -14 -3 -24q-3 -11 -10 -25.5t-17 -27t-22 -21t-24 -8.5h-180zM197 622l-158 -635h6l20 -27h156l64 256l18 -33h4l20 -27h179q39 0 76 20.5t67.5 52t52 69t30.5 71.5q11 45 7 91t-29 79l-7 8q-15 33 -46.5 54t-83.5 21h-376zM541 492
h-227l-47 -188h220q15 0 30 10t27 24.5t20.5 31t11.5 29.5q3 10 3 26q0 12 -2 23.5t-6.5 21.5t-12 16t-17.5 6zM55 0l152 609h363q48 0 77.5 -19t44 -49.5t15.5 -68t-8 -73.5q-8 -33 -28.5 -68.5t-49 -65.5t-63.5 -49.5t-72 -19.5h-174l-49 91l-72 -287h-136z" />
    <glyph glyph-name="FL0071h" unicode="Q" horiz-adv-x="742" 
d="M268 165l6 -8q-5 5 -6 8zM506 216l-135 109l-50 -199q-30 15 -49 40q-17 47 -2 105q10 40 34.5 76.5t58 64t74 44t82.5 16.5q32 0 57 -10t45 -28q18 -27 24 -61t-4 -72q-13 -51 -46 -92.5t-81 -67.5l11 44l-20 27zM161 34l4 -3q20 -27 48.5 -48t64.5 -33l-10 -38l12 -9
l14 -19l131 -102l40 160q60 12 115.5 41.5t101 73t79 98t49.5 116.5q17 72 6 133.5t-46 109.5q-32 61 -92.5 97.5t-144.5 36.5q-74 0 -143.5 -27t-127.5 -73.5t-100 -110t-60 -136.5q-20 -82 -4.5 -150.5t63.5 -116.5zM378 301l113 -91l-25 -103q69 23 119.5 73.5
t68.5 120.5q10 42 3.5 80t-27.5 67.5t-54.5 46.5t-76.5 17q-44 0 -87 -17t-78.5 -46t-61 -67.5t-35.5 -80.5q-17 -70 8 -122t85 -72zM434 -20l-37 -150l-114 89l15 60q-55 11 -96 40t-65.5 71.5t-30.5 96t9 114.5q18 70 58 131t95.5 106t122.5 71t138 26q69 0 122.5 -26.5
t87 -71.5t44.5 -106t-6 -130q-15 -62 -48.5 -115.5t-79 -95.5t-101 -70.5t-114.5 -39.5z" />
    <glyph glyph-name="FL0061h" unicode="R" horiz-adv-x="643" 
d="M197 622l-36 -143h6l21 -27h373h4q2 -11 2.5 -23t-1.5 -20q-3 -11 -11 -25.5t-19 -27t-24 -21t-25 -8.5h-199l196 -340h4l20 -27h188l-120 229q64 22 103 72.5t57 122.5q11 45 6.5 84.5t-26.5 68.5l-5 5q-14 35 -47.5 57.5t-90.5 22.5h-376zM178 492l29 117h363
q47 0 77 -16.5t45.5 -44t17.5 -62.5t-7 -72q-17 -72 -57.5 -122t-107.5 -67l118 -225h-163l-182 314h172q15 0 30.5 10t29 24.5t23.5 31t13 29.5q3 10 2 24.5t-5.5 27.5t-13 22t-21.5 9h-363z" />
    <glyph glyph-name="FL0053h" unicode="S" horiz-adv-x="665" 
d="M74 120l-33 -133h6l20 -27h419q37 0 70.5 18t61 45.5t47 61t27.5 64.5q10 39 4 75t-26 62l-3 5q-16 36 -49.5 58.5t-84.5 22.5h-215q-5 0 -6 1q-2 15 1 24q3 10 8.5 21.5t13 21t17 16t19.5 6.5h392l32 127l-20 27l1 6h-388q-42 0 -81.5 -14.5t-72.5 -41t-57 -62
t-34 -77.5q-11 -48 -1 -90t41 -68l6 -7q18 -23 46 -36.5t66 -13.5h209q3 0 11 -2q6 -13 1 -33q-2 -10 -9 -20t-16.5 -18.5t-20 -13.5t-19.5 -5h-383zM57 0l27 107h370q12 0 25 6.5t24.5 17t20 22.5t11.5 24q7 28 -4.5 51.5t-40.5 23.5h-209q-39 0 -66.5 14.5t-43 39
t-19.5 56t4 65.5q10 39 32.5 72.5t53 57.5t67.5 38t76 14h375l-27 -107h-382q-12 0 -23.5 -7t-21 -18.5t-16.5 -24.5t-10 -25q-3 -11 -1 -23t7.5 -22t13 -16.5t15.5 -6.5h215q39 0 67.5 -15t45.5 -39.5t21.5 -57t-4.5 -68.5q-8 -29 -26.5 -61t-44 -58t-57 -43t-66.5 -17
h-409z" />
    <glyph glyph-name="FL0054h" unicode="T" horiz-adv-x="630" 
d="M727 609h-520l-27 -107h192l-125 -502h136l125 502h192zM197 622h546l-1 -6l20 -27l-32 -127h-192l-125 -502h-156l-20 27h-6l118 475h-159l-20 27h-6z" />
    <glyph glyph-name="FL0055h" unicode="U" horiz-adv-x="687" 
d="M799 616l1 6h-162l-123 -492h-222q-17 0 -27 3q1 6 3 13.5t4 16.5l106 426l-20 27l1 6h-163l-113 -454q-12 -48 -4.5 -88t39.5 -65l6 -8q17 -22 45 -34.5t73 -12.5h204l34 33l-1 -6h6l20 -27h156l157 629zM784 609l-152 -609h-136l23 91l-97 -91h-199q-45 0 -73 13.5
t-42.5 37t-16.5 54t6 63.5l110 441h137l-104 -416q-10 -39 -2 -57.5t52 -18.5h235l123 492h136z" />
    <glyph glyph-name="FL0056h" unicode="V" 
d="M771 609l-329 -453h-8l-106 453h-146l149 -609h136l450 609h-146zM164 622h175l2 -10l18 -23l92 -400l315 433h175l-4 -6l21 -27l-465 -629h-148l-20 27h-5z" />
    <glyph glyph-name="FL0057h" unicode="W" horiz-adv-x="1079" 
d="M888 0h136l152 609h-136l-123 -492h-211q-34 0 -46.5 20.5t-3.5 55.5l104 416h-136l-123 -492h-211q-15 0 -26 7t-17 18.5t-8 25t1 25.5l104 416h-137l-110 -441q-8 -33 -6 -63.5t16.5 -54t42.5 -37t73 -13.5h175l99 99q5 -45 40.5 -72t101.5 -27h175l97 91zM689 163
q-4 -15 -4 -28q10 -5 24 -5h198l123 492h162l-1 -6l20 -27l-157 -629h-156l-20 27h-6l1 6l-34 -33h-180q-91 0 -129 50l-9 11q-5 5 -9.5 10t-8.5 10l-80 -81h-180q-45 0 -73 12.5t-45 34.5l-6 8q-32 25 -39.5 65t4.5 88l113 454h163l-1 -6l20 -27l-106 -426q-4 -9 -2 -27
q9 -6 22 -6h198l123 492h162l-1 -6l20 -27z" />
    <glyph glyph-name="FL0058h" unicode="X" horiz-adv-x="664" 
d="M488 305l297 304h-160l-190 -194l-92 194h-160l145 -304l-298 -305h161l189 194l93 -194h161zM814 622l-5 -5l21 -28l-307 -314l151 -315h-186l-20 27h-4l-74 151l-174 -178h-186l-20 27h-9l311 318l-152 317h192l7 -15l14 -18l71 -149l178 182h192z" />
    <glyph glyph-name="FL0059h" unicode="Y" horiz-adv-x="677" 
d="M774 609h-138l-62 -250h-241q-16 0 -30 20t-8 48l46 182h-134l-46 -182q-8 -34 -4 -65.5t19.5 -56t43 -39t66.5 -14.5h262l-19 -76q-3 -12 -9.5 -24t-16 -22t-21 -16.5t-23.5 -6.5h-370l-27 -107h409q34 0 66.5 17.5t58.5 44.5t45 58.5t26 59.5zM626 622h164l-1 -6
l20 -27l-110 -439q-7 -30 -26.5 -63t-48 -61.5t-63 -47t-70.5 -18.5h-419l-20 27h-6l33 133h383q19 0 34 18t20 38l9 36h-219q-38 0 -66 13.5t-46 36.5l-6 7q-31 26 -41 68t1 90l49 195h160l-1 -6l20 -27l-48 -192q-3 -14 -2 -23q8 -2 10 -2h228z" />
    <glyph glyph-name="FL005Ah" unicode="Z" horiz-adv-x="630" 
d="M55 0h520l27 107h-344l442 395l27 107h-520l-27 -107h344l-442 -395zM731 467l-389 -347h276l-2 -6l21 -27l-32 -127h-540l-20 27h-6l31 126l391 349h-271l-20 27h-6l33 133h546l-1 -6l20 -27z" />
    <glyph glyph-name="FL005Bh" unicode="[" horiz-adv-x="370" 
d="M55 0h260l27 107h-124l98 395h124l27 107h-260zM346 462l-85 -342h97l-2 -6l21 -27l-32 -127h-280l-20 27h-6l158 635h286l-1 -6l20 -27l-32 -127h-124z" />
    <glyph glyph-name="FL005Ch" unicode="\" horiz-adv-x="663" 
d="M159 622l304 -635h4l20 -27h186l-301 629l-14 18l-7 15h-192zM472 0l-290 609h160l291 -609h-161z" />
    <glyph glyph-name="FL005Dh" unicode="]" horiz-adv-x="370" 
d="M170 489l20 -27h91l-85 -342h-124l-33 -133h6l20 -27h280l157 629l-20 27l1 6h-286l-33 -133h6zM315 0h-260l27 107h124l98 395h-124l27 107h260z" />
    <glyph glyph-name="FL005Eh" unicode="^" 
d="M175 0l330 453h8l105 -453h146l-149 609h-136l-450 -609h146zM607 -13l-94 401l-312 -428h-168l-20 27h-8l469 635h152l3 -10l17 -23l154 -629h-168l-20 27h-5z" />
    <glyph glyph-name="FL005Fh" unicode="_" horiz-adv-x="456" 
d="M430 116h-346l-29 -116h346zM74 129h372l-1 -6l20 -27l-34 -136h-366l-20 27h-6z" />
    <glyph glyph-name="FL0060h" unicode="`" horiz-adv-x="227" 
d="M228 515h97l-18 94h-125zM243 475l-20 27h-4l-60 120h159l2 -9l18 -24l22 -114h-117z" />
    <glyph glyph-name="a" unicode="a" 
d="M519 412l30 -123h-120zM475 622l-469 -635h8l20 -27h168l120 168h252l34 -141h5l20 -27h168l-153 629l-17 23l-3 10h-153zM517 479h-5l-146 -203h201zM30 0l450 609h137l148 -609h-146l-39 168h-284l-120 -168h-146z" />
    <glyph glyph-name="FL0062h" unicode="b" horiz-adv-x="665" 
d="M285 379l29 113h251q28 0 39.5 -14.5t6.5 -35.5q-6 -24 -26.5 -42.5t-49.5 -20.5h-250zM220 117l61 245l49 -93h175q29 -3 40 -26t5 -48q-3 -11 -10.5 -24.5t-18 -25.5t-23.5 -20t-27 -8h-251zM594 609h-387l-152 -609h387q45 0 83.5 16.5t68.5 44t50 62.5t29 71
q9 35 -1 65t-28 59q29 20 55 54.5t35 69.5q9 36 3.5 67t-23.5 53t-48.5 34.5t-71.5 12.5zM197 622h400q57 0 94 -21.5t52 -59.5l5 -6q37 -48 19 -123q-9 -35 -33.5 -68.5t-53.5 -56.5q17 -29 26 -58t0 -65q-10 -38 -31.5 -75t-52.5 -65.5t-71.5 -46t-88.5 -17.5h-397l-20 27
h-6zM321 256l-18 33l-40 -159h211q11 0 21.5 7t19 16.5t14.5 21t8 20.5q3 17 -1 30q-2 2 -5.5 2.5t-5.5 1.5h-180l-20 27h-4zM344 452l-15 -60h209q22 2 38.5 16.5t21.5 33.5q1 2 0.5 4t0.5 4q-4 1 -7 1.5t-7 0.5h-241z" />
    <glyph glyph-name="FL0063h" unicode="c" horiz-adv-x="672" 
d="M103 304q-9 -38 -10.5 -75.5t6 -72.5t24 -65.5t43.5 -53.5q27 -35 67.5 -56t100.5 -21h313l32 127l-21 27l2 6h-304q-23 0 -42 11t-35 30q-11 25 -14 54.5t5 59.5q9 36 31.5 69.5t51 59.5t58.5 42t54 16h307l32 127l-20 27l1 6h-313q-66 0 -126 -26.5t-109 -71t-84 -102
t-50 -118.5zM116 304q15 59 48.5 114t80 97.5t104 68t120.5 25.5h300l-27 -107h-297q-25 0 -57 -16.5t-62.5 -44.5t-55 -63.5t-33.5 -72.5t-3 -72.5t23 -63.5t42 -45t54 -17h291l-27 -107h-303q-66 0 -110 27.5t-68 71.5t-28.5 98t8.5 107z" />
    <glyph glyph-name="FL0064h" unicode="d" horiz-adv-x="711" 
d="M312 502h205q21 0 44 -15.5t41 -42t26 -62.5t-2 -77q-9 -37 -33 -72.5t-54.5 -63.5t-64.5 -45t-62 -17h-198zM747 304q16 64 12 119.5t-30 96.5t-76.5 65t-127.5 24h-318l-152 -609h343q66 0 123.5 27.5t103.5 71.5t77.5 98t44.5 107zM65 -40l-20 27h-6l158 635h331
q91 0 145 -30t79 -82l1 -1q33 -43 38.5 -103t-12.5 -132q-14 -55 -46.5 -111t-79.5 -101t-107 -73.5t-128 -28.5h-353zM342 462l-85 -342h158q27 0 58 16t59 42t50 59t31 68q10 38 2 72t-25 60q-13 11 -26.5 18t-26.5 7h-195z" />
    <glyph glyph-name="E" unicode="e" horiz-adv-x="602" 
d="M197 622l-158 -635h6l20 -27h512l32 127l-21 27l2 6h-329l27 107h311l32 128l-21 27l2 6h-284l18 74h356l32 127l-20 27l1 6h-518zM55 0l152 609h492l-27 -107h-356l-32 -127h311l-26 -108h-311l-40 -160h356l-27 -107h-492z" />
    <glyph glyph-name="FL0066h" unicode="f" horiz-adv-x="602" 
d="M197 622l-158 -635h6l20 -27h156l67 268h311l31 126l-20 27l1 6h-284l19 75h356l32 127l-20 27l1 6h-518zM55 0l152 609h492l-27 -107h-356l-32 -128h311l-26 -106h-311l-67 -268h-136z" />
    <glyph glyph-name="g" unicode="g" horiz-adv-x="711" 
d="M103 304q-9 -38 -10.5 -75.5t6 -72.5t24 -65.5t43.5 -53.5q27 -35 67.5 -56t100.5 -21h352l103 415l-20 27l2 6h-158l-72 -288h-185q-23 0 -42 11t-35 30q-11 25 -14 54.5t5 59.5q8 34 31.5 67.5t53 60t59.5 43t51 16.5h346l32 127l-20 27l1 6h-310q-83 0 -151.5 -24.5
t-121 -67.5t-87.5 -101t-51 -125zM116 304q16 64 49.5 119.5t84 96.5t116 65t145.5 24h297l-27 -107h-336q-22 0 -54 -17.5t-63 -45.5t-56.5 -63t-34.5 -71q-9 -37 -3 -72.5t23 -63.5t42 -45t54 -17h198l71 288h132l-98 -395h-342q-66 0 -110 27.5t-68 71.5t-28.5 98
t8.5 107z" />
    <glyph glyph-name="FL0048h" unicode="h" horiz-adv-x="687" 
d="M784 609h-136l-59 -234h-305l59 234h-136l-152 -609h136l67 267h305l-67 -267h136zM638 622h162l-1 -6l20 -27l-157 -629h-156l-20 27h-6l60 240h-252l-67 -267h-156l-20 27h-6l158 635h162l-1 -6l20 -27l-50 -201h252z" />
    <glyph glyph-name="i" unicode="i" horiz-adv-x="256" 
d="M202 622l-158 -635h6l20 -27h156l157 629l-20 27l1 6h-162zM60 0l152 609h136l-152 -609h-136z" />
    <glyph glyph-name="FL006Ah" unicode="j" horiz-adv-x="554" 
d="M322 117h-263l60 -117h212q45 0 80 13.5t61.5 37t43.5 54t25 63.5l110 441h-137l-104 -416q-3 -12 -10.5 -25.5t-18.5 -25t-26 -18.5t-33 -7zM36 130h289q29 0 48 21t24 42l107 429h163l-1 -6l20 -27l-113 -451q-9 -35 -27 -67.5t-45.5 -57t-64.5 -39t-85 -14.5h-217
l-20 27h-4z" />
    <glyph glyph-name="FL006Bh" unicode="k" horiz-adv-x="629" 
d="M271 320l72 289h-136l-152 -609h136l72 289l175 -289h161l-177 307l329 302h-161zM359 622l-1 -6l20 -27l-51 -204l260 237h194l-5 -5l21 -28l-340 -312l183 -317h-187l-20 27h-4l-143 235l-65 -262h-156l-20 27h-6l158 635h162z" />
    <glyph glyph-name="l" unicode="l" horiz-adv-x="557" 
d="M197 622l-158 -635h6l20 -27h467l32 127l-21 27l2 6h-284l117 469l-20 27l1 6h-162zM55 0l152 609h136l-125 -502h311l-27 -107h-447z" />
    <glyph glyph-name="FL006Dh" unicode="m" horiz-adv-x="1079" 
d="M342 609h-136l-152 -609h136l123 492h211q34 0 46 -20.5t4 -55.5l-104 -416h136l123 492h211q15 0 26 -7t17 -18.5t8 -25t-1 -25.5l-104 -416h137l110 441q8 33 6 63.5t-16.5 54t-42.5 37t-73 13.5h-175l-99 -99q-5 45 -40.5 72t-101.5 27h-175l-97 -91zM196 622h162
l-1 -6l20 -27l-1 -2l37 35h181q54 0 88 -18.5t51 -50.5l11 -14l-2 2l2 -2l1 -1l84 84h181q57 0 88.5 -20t44.5 -52l7 -8q19 -25 22 -59t-7 -72l-112 -451h-157l-20 27h-6l107 429q3 14 -2 33q-8 3 -15 3h-201l-123 -492h-156l-20 27h-6l107 429q5 22 2 33q-9 3 -19 3h-201
l-123 -492h-156l-20 27h-6zM1148 544l-2 2z" />
    <glyph glyph-name="FL006Eh" unicode="n" horiz-adv-x="687" 
d="M757 544l-2 2zM197 622l-158 -635h6l20 -27h156l123 492h225q7 0 11.5 -0.5t9.5 -1.5q1 -7 -0.5 -15.5t-3.5 -18.5l-107 -429h6l20 -27h157l112 451q10 38 7 72t-22 59l-7 8q-13 32 -44.5 52t-88.5 20h-205l-37 -35l1 2l-20 27l1 6h-162zM55 0l152 609h136l-23 -91l97 91
h199q45 0 73 -13.5t42.5 -37t16.5 -54t-6 -63.5l-110 -441h-137l104 416q9 38 1 57t-51 19h-235l-123 -492h-136z" />
    <glyph glyph-name="o" unicode="o" horiz-adv-x="742" 
d="M271 271q10 40 34.5 76.5t58.5 64t74 44t81 16.5q62 0 103 -35q19 -27 24.5 -62.5t-4.5 -73.5q-11 -42 -35.5 -77t-57.5 -60.5t-72.5 -40t-80.5 -14.5q-38 0 -68 14t-50 38q-23 49 -7 110zM102 301q-22 -88 -2.5 -158.5t70.5 -116.5q35 -45 89.5 -69t124.5 -24
q55 0 107 14.5t99.5 41.5t88 64.5t71.5 83.5q42 61 60 134q18 72 8 133.5t-45 109.5q-30 63 -91 98.5t-149 35.5q-72 0 -141.5 -27t-128 -74.5t-101 -110.5t-60.5 -135zM238 301q-11 -42 -3.5 -79.5t28.5 -65t54.5 -44t75.5 -16.5q43 0 85.5 15.5t78 42.5t61.5 64.5t37 82.5
q10 42 4 80.5t-26.5 67.5t-54.5 46t-79 17q-43 0 -85.5 -17t-78 -46.5t-61.5 -67.5t-36 -80zM115 301q17 69 58 130t97 106t123 71.5t136 26.5q70 0 124.5 -26t88 -71t43.5 -106t-8 -131t-58.5 -130t-96 -104t-122 -69t-136.5 -25q-69 0 -123 25t-88 69t-45 104t7 130z" />
    <glyph glyph-name="p" unicode="p" horiz-adv-x="640" 
d="M310 317l34 135h217h2q3 -14 3 -29q0 -14 -3 -24q-3 -11 -10 -25.5t-17 -27t-22 -21t-24 -8.5h-180zM197 622l-158 -635h6l20 -27h156l64 256l18 -33h4l20 -27h179q39 0 76 20.5t67.5 52t52 69t30.5 71.5q11 45 7 91t-29 79l-7 8q-15 33 -46.5 54t-83.5 21h-376zM541 492
h-227l-47 -188h220q15 0 30 10t27 24.5t20.5 31t11.5 29.5q3 10 3 26q0 12 -2 23.5t-6.5 21.5t-12 16t-17.5 6zM55 0l152 609h363q48 0 77.5 -19t44 -49.5t15.5 -68t-8 -73.5q-8 -33 -28.5 -68.5t-49 -65.5t-63.5 -49.5t-72 -19.5h-174l-49 91l-72 -287h-136z" />
    <glyph glyph-name="FL0051h" unicode="q" horiz-adv-x="742" 
d="M452 301l-103 -150l20 -54q-37 4 -65.5 22t-46.5 45.5t-23.5 62.5t4.5 74q10 42 36 80t61.5 67.5t78 46.5t85.5 17q45 0 79 -17t54.5 -46t26.5 -67.5t-4 -80.5q-14 -57 -51 -101.5t-86 -70.5zM115 301q-18 -70 -7 -130t45 -104t88 -69t123 -25q16 0 29 1t23 3l57 -147
l104 148l-19 46q81 43 138.5 114.5t80.5 162.5q18 70 8 131t-43.5 106t-88 71t-124.5 26q-69 0 -136 -26.5t-123 -71.5t-97 -106t-58 -130zM102 301q18 72 60.5 135t101 110.5t128 74.5t141.5 27q88 0 149 -35.5t91 -98.5q35 -48 45 -109.5t-8 -133.5q-23 -91 -81 -163
t-136 -117l17 -43l-118 -168l-21 28l-3 -5l-51 132q-7 -1 -15.5 -1.5t-17.5 -0.5q-70 0 -124.5 24t-89.5 69q-51 46 -70.5 116.5t2.5 158.5zM333 150l124 178l7 -19l14 -18l52 -141q42 27 71.5 65t40.5 86q10 39 4.5 74t-24.5 62q-41 35 -103 35q-41 0 -81 -16.5t-74 -44
t-58.5 -64t-34.5 -76.5q-15 -59 3 -105q29 -35 72 -50z" />
    <glyph glyph-name="R" unicode="r" horiz-adv-x="652" 
d="M314 333l30 119h224q1 -13 -0.5 -26.5t-3.5 -22.5q-2 -6 -8.5 -18t-14.5 -23.5t-17 -20t-16 -8.5h-194zM197 622l-158 -635h6l20 -27h156l83 334l184 -307h4l20 -27h187l-130 225q30 10 57.5 30.5t50.5 47t39.5 57.5t24.5 62q11 45 8 86t-26 71l-8 10q-15 32 -47.5 52.5
t-87.5 20.5h-383zM55 0l152 609h370q49 0 79 -17t45 -45t16 -63.5t-8 -71.5q-8 -32 -25 -63t-41 -57t-52.5 -45t-59.5 -27l127 -220h-161l-191 320h199q10 0 21.5 10t22 23.5t18.5 27.5t10 22q3 10 4.5 25.5t-1 29.5t-10 24t-22.5 10h-234l-123 -492h-136z" />
    <glyph glyph-name="S" unicode="s" horiz-adv-x="665" 
d="M74 120l-33 -133h6l20 -27h419q37 0 70.5 18t61 45.5t47 61t27.5 64.5q10 39 4 75t-26 62l-3 5q-16 36 -49.5 58.5t-84.5 22.5h-215q-5 0 -6 1q-2 15 1 24q3 10 8.5 21.5t13 21t17 16t19.5 6.5h392l32 127l-20 27l1 6h-388q-42 0 -81.5 -14.5t-72.5 -41t-57 -62
t-34 -77.5q-11 -48 -1 -90t41 -68l6 -7q18 -23 46 -36.5t66 -13.5h209q3 0 11 -2q6 -13 1 -33q-2 -10 -9 -20t-16.5 -18.5t-20 -13.5t-19.5 -5h-383zM57 0l27 107h370q12 0 25 6.5t24.5 17t20 22.5t11.5 24q7 28 -4.5 51.5t-40.5 23.5h-209q-39 0 -66.5 14.5t-43 39
t-19.5 56t4 65.5q10 39 32.5 72.5t53 57.5t67.5 38t76 14h375l-27 -107h-382q-12 0 -23.5 -7t-21 -18.5t-16.5 -24.5t-10 -25q-3 -11 -1 -23t7.5 -22t13 -16.5t15.5 -6.5h215q39 0 67.5 -15t45.5 -39.5t21.5 -57t-4.5 -68.5q-8 -29 -26.5 -61t-44 -58t-57 -43t-66.5 -17
h-409z" />
    <glyph glyph-name="FL0074h" unicode="t" horiz-adv-x="630" 
d="M727 609h-520l-27 -107h192l-125 -502h136l125 502h192zM197 622h546l-1 -6l20 -27l-32 -127h-192l-125 -502h-156l-20 27h-6l118 475h-159l-20 27h-6z" />
    <glyph glyph-name="FL0075h" unicode="u" horiz-adv-x="687" 
d="M799 616l1 6h-162l-123 -492h-222q-17 0 -27 3q1 6 3 13.5t4 16.5l106 426l-20 27l1 6h-163l-113 -454q-12 -48 -4.5 -88t39.5 -65l6 -8q17 -22 45 -34.5t73 -12.5h204l34 33l-1 -6h6l20 -27h156l157 629zM784 609l-152 -609h-136l23 91l-97 -91h-199q-45 0 -73 13.5
t-42.5 37t-16.5 54t6 63.5l110 441h137l-104 -416q-10 -39 -2 -57.5t52 -18.5h235l123 492h136z" />
    <glyph glyph-name="FL0076h" unicode="v" 
d="M771 609l-330 -453h-8l-105 453h-146l149 -609h136l450 609h-146zM164 622h175l2 -10l18 -23l91 -400l316 433h175l-4 -6l21 -27l-465 -629h-148l-20 27h-5z" />
    <glyph glyph-name="FL0077h" unicode="w" horiz-adv-x="1079" 
d="M888 0h136l152 609h-136l-123 -492h-211q-34 0 -46.5 20.5t-3.5 55.5l104 416h-136l-123 -492h-211q-15 0 -26 7t-17 18.5t-8 25t1 25.5l104 416h-137l-110 -441q-8 -33 -6 -63.5t16.5 -54t42.5 -37t73 -13.5h175l99 99q5 -45 40.5 -72t101.5 -27h175l97 91zM689 163
q-4 -15 -4 -28q10 -5 24 -5h198l123 492h162l-1 -6l20 -27l-157 -629h-156l-20 27h-6l1 6l-34 -33h-180q-91 0 -129 50l-9 11q-5 5 -9.5 10t-8.5 10l-80 -81h-180q-45 0 -73 12.5t-45 34.5l-6 8q-32 25 -39.5 65t4.5 88l113 454h163l-1 -6l20 -27l-106 -426q-4 -9 -2 -27
q9 -6 22 -6h198l123 492h162l-1 -6l20 -27z" />
    <glyph glyph-name="FL0078h" unicode="x" horiz-adv-x="664" 
d="M488 305l297 304h-160l-190 -194l-92 194h-160l145 -304l-298 -305h161l189 194l93 -194h161zM814 622l-5 -5l21 -28l-307 -314l151 -315h-186l-20 27h-4l-74 151l-174 -178h-186l-20 27h-9l311 318l-152 317h192l7 -15l14 -18l71 -149l178 182h192z" />
    <glyph glyph-name="FL0079h" unicode="y" horiz-adv-x="662" 
d="M182 609l153 -321l-72 -288h136l72 288l313 321h-160l-190 -194l-92 194h-160zM358 607l14 -18l71 -149l178 182h192l-5 -5l21 -28l-326 -334l-74 -295h-156l-20 27h-6l74 297l-162 338h192z" />
    <glyph glyph-name="FL007Ah" unicode="z" horiz-adv-x="630" 
d="M55 0h520l27 107h-344l442 395l27 107h-520l-27 -107h344l-442 -395zM731 467l-389 -347h276l-2 -6l21 -27l-32 -127h-540l-20 27h-6l31 126l391 349h-271l-20 27h-6l33 133h546l-1 -6l20 -27z" />
    <glyph glyph-name="FL007Bh" unicode="{" horiz-adv-x="370" 
d="M41 -55h260l27 107h-124l126 504h124l26 107h-260zM360 516l-113 -451h97l-1 -6l20 -27l-32 -127h-280l-20 27h-6l186 744h286l-2 -6l20 -27l-31 -127h-124z" />
    <glyph glyph-name="FL007Ch" unicode="|" horiz-adv-x="256" 
d="M373 711h-136l-202 -813h136zM228 724h162l-2 -6l20 -27l-207 -833h-156l-21 27h-6z" />
    <glyph glyph-name="FL007Dh" unicode="}" horiz-adv-x="370" 
d="M209 543l21 -27h91l-113 -451h-124l-33 -133h6l20 -27h280l184 738l-20 27l2 6h-286l-34 -133h6zM327 -55h-260l27 107h124l126 504h-124l26 107h260z" />
    <glyph glyph-name="FL007Eh" unicode="~" horiz-adv-x="439" 
d="M370 609h-118l-94 -94h125l41 50l25 -50h118l94 94h-125l-42 -51zM249 622h130l6 -14l15 -19l1 -4l30 37h159l-5 -5l21 -28l-114 -114h-128l-20 27h-4l-3 7l-28 -34h-151l-20 27h-9z" />
    <glyph glyph-name="FL007Fh" horiz-adv-x="182" 
 />
    <glyph glyph-name="FL20ACh" horiz-adv-x="786" 
d="M252 290h-108l-29 -116h135q6 -36 21 -67.5t40.5 -55.5t60.5 -37.5t82 -13.5h277l27 107h-265q-30 0 -56 18.5t-43 48.5h190l29 116h-240l6 24q3 9 5 14h239l29 116h-183q29 26 60.5 42t55.5 16h271l27 107h-274q-94 0 -168.5 -45t-123.5 -120h-134l-29 -116h108z
M135 303h18l-9 12h-6l35 142h139q54 76 130 120.5t170 44.5h287l-1 -6l20 -27l-32 -127h-281q-10 0 -28 -5h91l-2 -6l21 -27l-34 -136h-18l13 -18l-34 -136h-165q23 -14 47 -14h278l-2 -6l21 -27l-32 -127h-287q-60 0 -101 21t-68 56l-5 6q-36 35 -55 91h-120l-20 27h-6z
" />
    <glyph glyph-name="FL20ACh" unicode="&#x20ac;" horiz-adv-x="786" 
d="M252 290h-108l-29 -116h135q6 -36 21 -67.5t40.5 -55.5t60.5 -37.5t82 -13.5h277l27 107h-265q-30 0 -56 18.5t-43 48.5h190l29 116h-240l6 24q3 9 5 14h239l29 116h-183q29 26 60.5 42t55.5 16h271l27 107h-274q-94 0 -168.5 -45t-123.5 -120h-134l-29 -116h108z
M135 303h18l-9 12h-6l35 142h139q54 76 130 120.5t170 44.5h287l-1 -6l20 -27l-32 -127h-281q-10 0 -28 -5h91l-2 -6l21 -27l-34 -136h-18l13 -18l-34 -136h-165q23 -14 47 -14h278l-2 -6l21 -27l-32 -127h-287q-60 0 -101 21t-68 56l-5 6q-36 35 -55 91h-120l-20 27h-6z
" />
    <glyph glyph-name="FL017Dh" horiz-adv-x="630" 
d="M476 771h-125l47 -94h176l93 94h-125l-47 -59zM55 0h520l27 107h-344l442 395l27 107h-520l-27 -107h344l-442 -395zM731 467l-389 -347h276l-2 -6l21 -27l-32 -127h-540l-20 27h-6l31 126l391 349h-271l-20 27h-6l33 133h546l-1 -6l20 -27zM328 784h159l3 -12l17 -21v-4
l30 37h159l-5 -5l21 -28l-113 -114h-186l-20 27h-4z" />
    <glyph glyph-name="FL017Dh" unicode="&#x17d;" horiz-adv-x="630" 
d="M476 771h-125l47 -94h176l93 94h-125l-47 -59zM55 0h520l27 107h-344l442 395l27 107h-520l-27 -107h344l-442 -395zM731 467l-389 -347h276l-2 -6l21 -27l-32 -127h-540l-20 27h-6l31 126l391 349h-271l-20 27h-6l33 133h546l-1 -6l20 -27zM328 784h159l3 -12l17 -21v-4
l30 37h159l-5 -5l21 -28l-113 -114h-186l-20 27h-4z" />
    <glyph glyph-name="FL017Eh" horiz-adv-x="630" 
d="M476 771h-125l47 -94h176l93 94h-125l-47 -59zM55 0h520l27 107h-344l442 395l27 107h-520l-27 -107h344l-442 -395zM731 467l-389 -347h276l-2 -6l21 -27l-32 -127h-540l-20 27h-6l31 126l391 349h-271l-20 27h-6l33 133h546l-1 -6l20 -27zM328 784h159l3 -12l17 -21v-4
l30 37h159l-5 -5l21 -28l-113 -114h-186l-20 27h-4z" />
    <glyph glyph-name="FL017Eh" unicode="&#x17e;" horiz-adv-x="630" 
d="M476 771h-125l47 -94h176l93 94h-125l-47 -59zM55 0h520l27 107h-344l442 395l27 107h-520l-27 -107h344l-442 -395zM731 467l-389 -347h276l-2 -6l21 -27l-32 -127h-540l-20 27h-6l31 126l391 349h-271l-20 27h-6l33 133h546l-1 -6l20 -27zM328 784h159l3 -12l17 -21v-4
l30 37h159l-5 -5l21 -28l-113 -114h-186l-20 27h-4z" />
    <glyph glyph-name="FL00A1h" unicode="&#xa1;" horiz-adv-x="256" 
d="M363 616l1 6h-162l-33 -133h6l20 -27h156l32 127zM315 426l2 6h-162l-111 -445h6l20 -27h156l109 439zM300 419l-104 -419h-136l104 419h136zM348 609l-27 -107h-136l27 107h136z" />
    <glyph glyph-name="FL00A2h" unicode="&#xa2;" horiz-adv-x="682" 
d="M452 502l-98 -395q-27 3 -50.5 21t-39 45.5t-21 62t3.5 69.5q9 37 32.5 72t53.5 62.5t62 44.5t57 18zM126 304q-13 -53 -8.5 -107t28.5 -98t68 -71.5t110 -27.5h3l-25 -102h130l25 102h170l27 107h-170l98 395h170l27 107h-170l25 102h-130l-25 -102q-63 0 -120.5 -25.5
t-104 -68t-80 -97.5t-48.5 -114zM113 304q15 59 48 114.5t80 99t105 71.5t123 32l26 103h156l-2 -6l20 -27l-17 -69h143l-1 -6l20 -27l-32 -127h-170l-85 -342h143l-2 -6l21 -27l-32 -127h-170l-25 -102h-150l-21 27h-6l20 79q-45 6 -76.5 25.5t-53.5 48.5q-26 23 -42 53.5
t-23.5 65.5t-6.5 72.5t10 74.5zM280 275q-8 -29 -5.5 -56.5t11.5 -50.5q26 -33 59 -45l81 325q-23 -11 -46 -29t-43 -41t-35 -49.5t-22 -53.5z" />
    <glyph glyph-name="FL00A3h" unicode="&#xa3;" horiz-adv-x="593" 
d="M256 379h-107l-27 -111h115q-14 -17 -24 -35t-15 -39q-5 -20 -7 -40t2 -38h-109l-29 -116h483l29 116h-205q-14 0 -23 8.5t-13.5 20.5t-5 25.5t2.5 24.5q6 24 26 46t49 28h123l27 110h-120q-27 2 -38.5 20.5t-5.5 42.5q5 21 24.5 35.5t47.5 14.5h33l29 117h-33
q-41 0 -77.5 -12.5t-66 -34.5t-50.5 -53t-30 -67t-5 -63zM140 392h102q0 24 6 50q10 39 32 72t53.5 57t71 37.5t83.5 13.5h46l-1 -6l20 -27l-34 -137h-43q-23 0 -39 -11.5t-20 -28.5q-3 -11 -2 -16q7 -4 17 -4h133l-2 -6l21 -27l-33 -130h-131q-24 -5 -42 -24.5t-23 -39.5
q-5 -18 -1 -34q8 -2 11 -2h218l-1 -6l20 -27l-34 -136h-503l-20 27h-6l35 142h104q-1 17 1 32.5t6 32.5q4 19 12 34h-65l-20 27h-6z" />
    <glyph glyph-name="FL00A4h" unicode="&#xa4;" horiz-adv-x="664" 
d="M378 274q6 23 24.5 39t40.5 16q3 0 6 -0.5t7 -1.5q2 -14 -1 -23q-5 -21 -22.5 -34.5t-37.5 -13.5q-12 0 -19 4q0 4 0.5 7t1.5 7zM200 306q-15 -58 2 -113l-201 -206h9l20 -27h186l111 113q12 -4 24.5 -5t26.5 -1q10 0 21 0.5t24 3.5l41 -84h4l20 -27h186l-99 205
q20 24 35.5 51.5t23.5 59.5q8 31 7 59t-9 51l198 203l-21 28l5 5h-192l-107 -109q-14 5 -27 6.5t-27 1.5q-29 0 -54 -7l-34 75l-15 18l-6 15h-192l98 -205q-22 -27 -36 -55t-22 -56zM346 304q-6 -25 7.5 -43t38.5 -18q26 0 47.5 17t28.5 44q7 26 -6 45.5t-39 19.5t-48 -19.5
t-29 -45.5zM213 306q16 62 61 112l-91 191h160l52 -111q27 10 63 10q38 0 58 -10l109 111h160l-187 -192q8 -23 9.5 -51.5t-6.5 -59.5q-16 -64 -60 -112l93 -194h-161l-55 115q-40 -8 -60 -8q-15 0 -29 1.5t-25 6.5l-113 -115h-161l188 193q-20 49 -5 113z" />
    <glyph glyph-name="FL00A5h" unicode="&#xa5;" horiz-adv-x="662" 
d="M307 178h-104l-29 -116h104l-15 -62h136l15 62h106l29 116h-106l15 58h106l29 116h-60l251 257h-160l-190 -194l-92 194h-160l122 -257h-57l-29 -116h104zM194 191h104l1 5h-71l-20 27h-6l35 142h45l-123 257h192l7 -15l14 -18l71 -149l178 182h192l-5 -5l21 -28
l-220 -226l-1 -4l20 -27l-34 -136h-106l-1 -5h79l-2 -6l20 -27l-34 -136h-106l-15 -62h-156l-20 27h-6l8 35h-71l-20 27h-6z" />
    <glyph glyph-name="FL00A6h" unicode="&#xa6;" horiz-adv-x="256" 
d="M202 622l-70 -281h6l20 -27h156l69 275l-20 27l1 6h-162zM118 284l-74 -297h6l20 -27h156l73 291l-21 27l2 6h-162zM148 354l64 255h136l-64 -255h-136zM60 0l68 271h136l-68 -271h-136z" />
    <glyph glyph-name="FL00A7h" unicode="&#xa7;" horiz-adv-x="664" 
d="M378 274q6 23 24.5 39t40.5 16q3 0 6 -0.5t7 -1.5q2 -14 -1 -23q-5 -21 -22.5 -34.5t-37.5 -13.5q-12 0 -19 4q0 4 0.5 7t1.5 7zM200 306q-15 -58 2 -113l-201 -206h9l20 -27h186l111 113q12 -4 24.5 -5t26.5 -1q18 1 40.5 4t47.5 12.5t51.5 27t53.5 48.5
q22 25 38.5 54.5t24.5 62.5q8 31 7 59t-9 51l198 203l-21 28l5 5h-192l-107 -109q-14 5 -27.5 6.5t-27.5 1.5q-18 -2 -42 -6t-50 -14.5t-52.5 -28.5t-50.5 -47v1q-49 -53 -65 -120zM346 304q-6 -25 7.5 -43t38.5 -18q26 0 47.5 17t28.5 44q7 26 -6 45.5t-39 19.5t-48 -19.5
t-29 -45.5zM213 306q16 62 61 112q22 27 47 44t49.5 26.5t47 13.5t40.5 6q38 0 58 -10l109 111h160l-187 -192q8 -23 9.5 -51.5t-6.5 -59.5q-16 -64 -60 -112q-25 -29 -50 -45.5t-48.5 -25.5t-45 -12t-39.5 -4q-15 0 -29 1.5t-25 6.5l-113 -115h-161l188 193q-20 49 -5 113z
" />
    <glyph glyph-name="FL00A8h" unicode="&#xa8;" horiz-adv-x="426" 
d="M207 609l-24 -94h125l24 94h-125zM499 515l24 94h-125l-24 -94h125zM539 622l-1 -6l20 -27l-29 -114h-145l-20 27h-6l30 120h151zM167 502l30 120h151l-1 -6l20 -27l-29 -114h-145l-20 27h-6z" />
    <glyph glyph-name="FL00A9h" unicode="&#xa9;" horiz-adv-x="292" 
d="M331 545l-15 5q-14 -26 -39 -26q-38 0 -27 41q10 45 49 45q19 0 25 -21l18 4q-3 32 -39 32q-57 0 -72 -60q-15 -61 42 -61q40 0 58 41zM310 655h2q15 0 28.5 -7.5t23 -19.5t13 -27t-0.5 -30l-1 -6q-5 -20 -23.5 -42t-39.5 -33q-14 -7 -25 -8.5t-20 -1.5q-6 0 -15 2t-22 7
l-8 1q-18 16 -22 34q-8 20 -2 41q6 23 23 45q39 45 89 45zM314 671q-31 0 -56 -13q-62 -33 -77 -93q-7 -30 0 -52q8 -14 13.5 -21t15.5 -18q45 -14 52 -14l13 1.5t39 12.5l10 6q13 7 20.5 13t18.5 20q24 29 30 52q5 23 -4 52q-3 25 -30 41q-16 13 -45 13zM318 684
q26 0 49 -14q25 -14 32 -36l11 -15q7 -11 11 -26l1 -1q10 -30 3 -57q-6 -26 -32 -57h-1q-11 -17 -20 -23t-23 -14l-8 -5q-26 -11 -40.5 -13.5t-17.5 -2.5h-1q-8 0 -21 3.5t-34 10.5l-1 1q-5 3 -6 6l-2 3q-5 4 -8 7.5t-6 7.5l-4 4q-3 3 -4.5 5t-2.5 3q-8 10 -14.5 17.5
t-14.5 24.5q-5 14 4 52q17 68 86 105q28 14 64 14zM311 567l15 -6l-5 9h-2q-29 0 -36 -33q11 1 28 30zM352 606l13 -17q-2 11 -5 17q-5 5 -11 6zM351 542l5 9l-9 -2z" />
    <glyph glyph-name="FL00AAh" unicode="&#xaa;" horiz-adv-x="434" 
d="M342 684l-245 -330h8l21 -27h105l57 81h99l13 -54h5l21 -27h106l-81 324l-17 23l-2 10h-90zM122 367l224 304h74l76 -304h-84l-19 81h-131l-57 -81h-83zM363 591l-55 -76h71z" />
    <glyph glyph-name="FL00ABh" unicode="&#xab;" horiz-adv-x="524" 
d="M505 322l85 68l-61 82l-188 -150l113 -152l103 82zM274 321l85 68l-62 82l-187 -150l113 -152l103 82zM608 390l-2 -2l21 -28l-83 -66l31 -42l-3 -2l21 -28l-120 -96l-21 28l-2 -2l-117 157l-20 -16l31 -42l-3 -2l21 -28l-120 -96l-21 28l-2 -2l-127 170l210 168l75 -100
l-3 -2l12 -15l147 118z" />
    <glyph glyph-name="FL00ACh" unicode="&#xac;" horiz-adv-x="421" 
d="M460 379h-311l-28 -116h194l-25 -98h117zM140 392h337l-2 -6l21 -27l-59 -234h-137l-20 27h-6l18 71h-161l-21 27h-6z" />
    <glyph glyph-name="FL00ADh" unicode="&#xad;" horiz-adv-x="336" 
d="M140 392l-36 -142h6l21 -27h246l34 136l-21 27l2 6h-252zM121 263l28 116h226l-28 -116h-226z" />
    <glyph glyph-name="registered" unicode="&#xae;" horiz-adv-x="292" 
d="M281 571h-21l9 35h20q17 0 19 -2q10 -4 7 -15t-10 -14.5t-24 -3.5zM255 621l-29 -114h18l12 48h11q10 0 13 -4q4 -5 7.5 -11t5.5 -14l3 -19h24l-7 22q-8 15 -9 20t-12 10q35 2 42 31q2 9 -1 18q-2 3 -5 4t-6 4q-5 5 -29 5h-38zM310 655h2q15 0 28.5 -7.5t23 -19.5t13 -27
t-0.5 -30l-1 -6l-6.5 -12.5t-17.5 -29.5q-8 -9 -17 -17.5t-22 -15.5q-14 -7 -24 -8.5t-21 -1.5l-9 1t-29 6l-7 3q-10 11 -15.5 19.5t-7.5 13.5q-2 20 -1.5 31l0.5 11q6 23 23 45q39 45 89 45zM314 671q-29 0 -56 -15q-29 -12 -51 -39l-1 -2q-10 -13 -15 -23t-10 -27
q-7 -30 0 -52q11 -21 29 -39q23 -14 52 -14l14.5 1.5t37.5 12.5q34 15 49 39q24 29 30 52q5 23 -4 52q-3 22 -30 39q-15 15 -45 15zM411 615q8 -11 10 -23h1q10 -30 3 -57q-6 -26 -32 -57h-1q-17 -27 -54 -43h1q-22 -11 -37 -13t-19 -2h-1q-32 0 -55 14l-10 10t-9 10l-6 8
q-11 10 -20 23t-18 30q-5 17 4 50q5 21 10.5 31.5t16.5 23.5v1q27 33 64 49q31 14 59 14q33 0 50 -17q23 -16 31 -33q1 -1 1 -3q0 -1 1 -2zM360 606q-6 5 -13 6q0 -2 1 -3.5t1 -3.5l16 -21q-1 -1 0 -2q0 11 -5 24zM285 494l-2 9l-2 -10q3 0 4 1zM337 524l-1 -1z" />
    <glyph glyph-name="FL00AFh" unicode="&#xaf;" horiz-adv-x="456" 
d="M553 609h-346l-29 -116h346zM197 622h372l-1 -6l20 -27l-34 -136h-366l-20 27h-6z" />
    <glyph glyph-name="FL00B0h" unicode="&#xb0;" horiz-adv-x="235" 
d="M197 623l-30 -120h6l21 -27h145l28 114l-20 27l1 6h-151zM274 551l6 24h-38l-6 -24h38zM184 516l23 94h125l-23 -94h-125z" />
    <glyph glyph-name="FL00B1h" unicode="&#xb1;" horiz-adv-x="421" 
d="M395 116h-311l-29 -116h311zM362 379l25 97h-116l-25 -97h-97l-28 -116h97l-25 -98h116l25 98h98l28 116h-98zM74 129h126l-17 23h-6l18 71h-64l-21 27h-6l36 142h97l24 97h142l-2 -6l21 -27l-16 -64h71l-2 -6l21 -27l-34 -136h-98l-24 -94h71l-1 -6l20 -27l-34 -136
h-331l-20 27h-6z" />
    <glyph glyph-name="FL00B2h" unicode="&#xb2;" horiz-adv-x="392" 
d="M426 367l15 63h-202l7 27q3 12 12 21.5t21 9.5h94q19 0 37 7.5t32.5 20t24.5 29t14 33.5q10 40 -10 66.5t-60 26.5h-186l-15 -63h189q8 0 10.5 -11t0.5 -19q-2 -6 -11 -16.5t-14 -10.5h-104q-21 0 -39.5 -7.5t-33 -20.5t-25 -30t-14.5 -35l-22 -91h279zM457 443l-1 -6
l20 -27l-20 -83h-299l-21 27h-6l26 104q5 21 17 40t29 34t38 23.5t45 8.5h104q1 0 4 4h-173l-21 27h-6l23 89h199q29 0 49 -13t29 -35l10 -14q22 -27 11 -74q-5 -19 -16 -37t-27 -32t-36 -22.5t-42 -8.5h-94q-5 0 -13 -5h171z" />
    <glyph glyph-name="FL00B3h" unicode="&#xb3;" horiz-adv-x="379" 
d="M211 560l27 -64h129q23 -5 17 -30q-2 -8 -11 -20t-19 -12h-191l-16 -67h191q23 0 42.5 8.5t34.5 22.5t25 31.5t15 36.5q5 17 2.5 30.5t-10.5 27.5q13 13 23 28.5t15 32.5q9 37 -10.5 61.5t-61.5 24.5h-191l-16 -67h191q21 0 17 -19q-5 -20 -29 -25h-174zM228 483l-38 90
h19l-14 18h-6l24 93h204q32 0 53 -13.5t28 -36.5l9 -12q20 -28 10 -67q-4 -17 -13.5 -32t-22.5 -29q7 -14 9 -27.5t-2 -30.5q-5 -21 -16.5 -40.5t-28 -34.5t-38.5 -24.5t-47 -9.5h-201l-21 27h-6l23 93h204q2 0 10 9h-114l-21 27h-4z" />
    <glyph glyph-name="FL00B4h" unicode="&#xb4;" horiz-adv-x="227" 
d="M142 502l20 -27h117l114 114l-21 28l5 5h-159l-84 -120h8zM254 515h-97l66 94h125z" />
    <glyph glyph-name="FL00B5h" unicode="&#xb5;" horiz-adv-x="677" 
d="M360 622h-164l-110 -442q-6 -23 -6 -46q0 -36 13.5 -70.5t39.5 -54.5l5 -5q15 -20 36.5 -32t50.5 -12h419l32 127l-21 27l2 6h-383q-12 0 -19 6q-1 8 2 21q6 24 25.5 44.5t44.5 20.5h209q40 0 77 15.5t66.5 41t50.5 59t30 69.5l48 192l-20 27l1 6h-160l-49 -195
q-6 -22 -24 -38.5t-30 -16.5h-201l54 217l-20 27zM206 609h138l-64 -255q14 2 24 3.5t17 1.5h202q7 0 18 5.5t21.5 14.5t19 21.5t11.5 26.5l46 182h134l-46 -182q-8 -34 -27.5 -65.5t-47.5 -56t-62.5 -39t-73.5 -14.5h-209q-15 0 -28.5 -6.5t-24.5 -17t-19 -24t-11 -27.5
q-3 -12 -0.5 -24t9 -22.5t16.5 -17t22 -6.5h370l-27 -107h-409q-34 0 -57.5 17.5t-36.5 44.5t-16 58.5t4 59.5z" />
    <glyph glyph-name="FL2122h" unicode="&#xb6;" horiz-adv-x="977" 
d="M1028 293l-2 8l-25 13l14 4h24l-13 31l-16 20l-5 13l-65 13l33 19l-21 28l8 5h-158l6 10l-21 28l3 6l-157 -22l-18 23l1 6l-23 8l-127 -52l-42 38l-93 -74q-2 -1 -9 -1q-19 0 -64 33l-35 -91l-83 8l-6 -45l21 -36l-62 -2l-9 -22l9 -5l17 -23l36 -20l-78 -29l14 -4l20 -25
l92 -22l-39 -22l14 -1l20 -26l144 -5l-14 -19l8 1l21 -27l148 23l-12 -23l7 3l22 -27l161 66l51 -37l82 71l81 -27l27 85l82 -12q2 3 3 2q7 30 -23 77l75 6l-6 27zM447 274q-2 -10 -4 -16t-10 -14q-14 -5 -21.5 -7t-10.5 -2q-17 0 -11 25l2 7q20 32 40 32q12 0 18 -12
q-2 -6 -2 -8q0 -4 -1 -5zM703 307l5 -35h-35zM249 223l32 101l-20 -3l-37 -106zM367 301l8 25q-84 -10 -96 -59l-2 -7q-2 -6 0 -6q0 -47 32 -47q5 0 8.5 1.5t14.5 3.5l4 17q-5 -1 -10.5 -1.5t-11.5 -0.5q-24 0 -18 20q6 24 26 43q22 15 33 15q7 0 7 -1l1.5 -0.5t3.5 -2.5z
M474 290q0 34 -36 34h-14q-47 -25 -64 -93q4 -16 35 -16q5 0 8.5 0.5l10.5 1.5q33 0 60 73zM556 217l26 102l-16 5l-23 -70l-49 65l-26 -104l20 3l13 49q29 -50 55 -50zM607 227l32 101l-23 -4l-38 -104zM703 225l13 -3l19 76q-3 33 -22 33q-16 0 -17 -4
q-24 -24 -42.5 -49.5t-30.5 -52.5h25q21 24 33 24q16 0 22 -24zM821 221l26 103l-18 4l-22 -73l-46 69l-26 -104l20 2l13 50q25 -51 53 -51zM847 199l21 16l-16 7l-16 -11zM874 247l31 77l-26 4l-24 -79zM1015 292l2 -11l-82 -6q40 -54 36 -70l-1 -0.5t-2 -5.5l-81 12
l-27 -83l-75 25l-82 -71l-49 36l-142 -59l12 23l-13 22l-166 -26l29 40l-173 6l59 32l-146 33l78 29l-94 53l82 4l-31 52l2 26l79 -8l33 83q31 -24 56 -24q10 0 16 3l85 68l42 -35l128 52l12 -4l-4 -36l170 23l-22 -41h170l-60 -35l139 -29l5 -12h-8l-67 -17z" />
    <glyph glyph-name="FL00B7h" unicode="&#xb7;" horiz-adv-x="246" 
d="M140 392l-33 -133h6l20 -27h156l32 127l-21 27l2 6h-162zM123 272l26 107h136l-26 -107h-136z" />
    <glyph glyph-name="FL00B8h" unicode="&#xb8;" horiz-adv-x="198" 
d="M143 0h-89l-18 -73h-69l-21 -82h158zM44 13h115l-1 -6l20 -27l-44 -175h-178l-20 27h-6l27 108h69z" />
    <glyph glyph-name="FL00B9h" unicode="&#xb9;" horiz-adv-x="209" 
d="M160 591l21 -27h23l-53 -210h6l21 -27h98l80 324l-20 27l2 6h-94l-93 -93h9zM246 367h-78l59 237h-46l65 67h75z" />
    <glyph glyph-name="FL00BAh" unicode="&#xba;" horiz-adv-x="411" 
d="M309 467l2 6q5 17 20.5 30t32.5 13q2 0 3 -0.5t3 -0.5q0 -9 -1 -12q-4 -17 -18 -27.5t-30 -10.5q-6 0 -12 2zM153 504q-12 -48 -1 -85.5t40 -60.5l6 -7q18 -24 46.5 -37.5t66.5 -13.5q37 0 72 13.5t64.5 36.5t51 55t30.5 69q10 38 4.5 70.5t-23.5 56.5l-6 8
q-16 34 -47.5 54.5t-79.5 20.5q-38 0 -74 -14t-66.5 -38.5t-52.5 -57.5t-31 -70zM166 504q9 34 29.5 64.5t48.5 53.5t61 36t68 13q34 0 61.5 -13t44 -35.5t22 -53t-3.5 -65.5t-29 -65t-48 -52t-61 -34.5t-68 -12.5t-62 12.5t-44 34.5t-22.5 52t3.5 65zM278 503q-5 -21 7 -36
t33 -15q22 0 40.5 14t23.5 37q5 21 -5 37t-33 16q-22 0 -41.5 -16t-24.5 -37z" />
    <glyph glyph-name="FL00BBh" unicode="&#xbb;" horiz-adv-x="524" 
d="M314 239l67 -88l2 2l21 -28l207 166l-21 28l2 2l-126 168l-125 -100l51 -68l-21 -17l-12 16l2 2l-126 168l-125 -100l51 -68l-86 -70l75 -100l2 2l21 -28zM179 322l-51 68l103 82l112 -150l-189 -152l-61 82zM410 321l-51 68l102 82l113 -150l-189 -152l-61 82z" />
    <glyph glyph-name="FL00BCh" unicode="&#xbc;" horiz-adv-x="732" 
d="M753 304h-77l-28 -111h-134l28 111h-77l-45 -178h211l-31 -126h77zM153 0l560 609h-126l-557 -609h123zM164 305h78l76 304h-75l-66 -67h46zM666 317h103l-1 -6l20 -27l-81 -324h-97l-20 27h-6l24 99h-178l-20 27h-6l32 126l-258 -279h-147l-20 27h-8l254 278h-83l-20 27
h-6l52 210h-23l-20 27h-9l92 93h94l-1 -6l20 -27l-75 -302l306 335h156l-4 -5l21 -28l-251 -272h52l-1 -6l20 -27l-20 -78h81z" />
    <glyph glyph-name="FL00BDh" unicode="&#xbd;" horiz-adv-x="723" 
d="M665 0l16 63h-202l6 27q3 12 12 21.5t21 9.5h94q21 0 38.5 7.5t31.5 20t24 29t15 33.5q10 40 -10 66.5t-60 26.5h-186l-16 -63h189q8 0 11 -11t1 -19q-2 -6 -11 -16.5t-14 -10.5h-104q-21 0 -39.5 -7.5t-33 -20.5t-25 -30t-14.5 -35l-23 -91h279zM153 0l560 609h-126
l-557 -609h123zM164 305h78l76 304h-75l-66 -67h46zM697 76l-2 -6l21 -27l-21 -83h-299l-20 27h-6l26 104q5 21 16.5 40t28.5 34t38 23.5t45 8.5h104q1 0 4 4h-173l-20 27h-6l3 11l-258 -279h-147l-20 27h-8l254 278h-83l-20 27h-6l52 210h-23l-20 27h-9l92 93h94l-1 -6
l20 -27l-75 -302l306 335h156l-4 -5l21 -28l-251 -272h148q29 0 49 -13t29 -35l11 -14q21 -28 10 -74q-5 -19 -16 -37t-27 -32t-36 -22.5t-42 -8.5h-94q-4 0 -12 -5h171z" />
    <glyph glyph-name="FL00BEh" unicode="&#xbe;" horiz-adv-x="827" 
d="M195 498l27 -64h129q24 -5 18 -30q-2 -8 -11 -20t-19 -12h-191l-17 -67h191q23 0 42.5 8.5t34.5 22.5t25.5 31.5t15.5 36.5q4 17 1.5 30.5t-10.5 27.5q13 13 23.5 28.5t14.5 32.5q10 37 -9.5 61.5t-61.5 24.5h-191l-17 -67h191q23 0 17 -19q-5 -20 -29 -25h-174zM848 304
h-77l-28 -111h-134l28 111h-77l-45 -178h211l-31 -126h77zM252 0l560 609h-126l-557 -609h123zM213 421l-39 90h19l-13 18h-6l23 93h204q32 0 53 -13.5t29 -36.5l9 -12q9 -13 12 -30t-2 -37q-5 -17 -14.5 -32t-21.5 -29q4 -9 6.5 -18t1.5 -20l209 228h156l-4 -5l21 -28
l-250 -272h47l-1 -6l20 -27l-20 -78h81l28 111h103l-1 -6l20 -27l-81 -324h-97l-20 27h-6l24 99h-178l-20 27h-6l30 120l-252 -273h-147l-20 27h-8l254 278h-14h-201l-20 27h-6l23 93h204q4 0 9 9h-114l-20 27h-4z" />
    <glyph glyph-name="FL00BFh" unicode="&#xbf;" horiz-adv-x="653" 
d="M708 616l1 6h-162l-33 -133h6l20 -27h156l32 127zM664 443l-148 1q-8 0 -11.5 -4t-7.5 -12q-3 -6 -7.5 -15.5t-12.5 -19t-19 -16.5t-26 -7h-132q-41 0 -78.5 -15.5t-67.5 -41.5t-51.5 -60t-30.5 -71q-13 -52 -1.5 -93.5t42.5 -67.5l6 -6q20 -26 51 -40.5t73 -14.5h385
l32 127l-21 27l2 6h-395h-6q-1 14 2 32q1 7 7.5 17t15 19t17.5 15.5t15 6.5h151q54 0 94 16.5t68 44t45.5 63.5t27.5 76l-20 27zM693 609l-27 -107h-136l27 107h136zM512 431l136 -1q-9 -36 -25.5 -68.5t-42.5 -57t-63.5 -39.5t-88.5 -15h-151q-8 0 -18.5 -7.5t-21 -18.5
t-18.5 -22.5t-10 -19.5q-2 -10 -1.5 -23t4.5 -24.5t11.5 -19.5t19.5 -8h382l-27 -107h-375q-39 0 -69 14t-49 38t-24.5 57.5t4.5 72.5q9 34 28.5 65.5t47.5 56t62.5 39t73.5 14.5h132q24 0 39.5 11.5t24.5 25.5t13 25.5t6 11.5z" />
    <glyph glyph-name="FL00C0h" unicode="&#xc0;" 
d="M480 609l-450 -609h146l186 263l45 -94h172l40 -169h146l-148 609h-137zM513 479h4l44 -194h-187zM536 677h97l-19 94h-125zM6 -13l469 635h153l3 -10l17 -23l153 -629h-168l-20 27h-5l-35 142h-151l-20 27h-4l-24 47l-172 -243h-168l-20 27h-8zM551 637l-20 27h-4
l-61 120h159l2 -9l18 -24l23 -114h-117zM543 298l-25 111l-81 -111h106z" />
    <glyph glyph-name="FL00C1h" unicode="&#xc1;" 
d="M480 609l-450 -609h146l186 263l45 -94h172l40 -169h146l-148 609h-137zM513 479h4l44 -194h-187zM499 677h97l93 94h-125zM6 -13l469 635h153l3 -10l17 -23l153 -629h-168l-20 27h-5l-35 142h-151l-20 27h-4l-24 47l-172 -243h-168l-20 27h-8zM504 637l-20 27h-8l83 120
h159l-5 -5l21 -28l-113 -114h-117zM543 298l-25 111l-81 -111h106z" />
    <glyph glyph-name="FL00C2h" unicode="&#xc2;" 
d="M480 609l-450 -609h146l186 263l45 -94h172l40 -169h146l-148 609h-137zM513 479h4l44 -194h-187zM597 677h125l-47 94h-176l-93 -94h125l48 59zM6 -13l469 635h153l3 -10l17 -23l153 -629h-168l-20 27h-5l-35 142h-151l-20 27h-4l-24 47l-172 -243h-168l-20 27h-8z
M406 637l-20 27h-9l119 120h188l8 -16l13 -17l57 -114h-151l-20 27h-5l-3 6l-26 -33h-151zM543 298l-25 111l-81 -111h106z" />
    <glyph glyph-name="FL00C3h" unicode="&#xc3;" 
d="M480 609l-450 -609h146l186 263l45 -94h172l40 -169h146l-148 609h-137zM513 479h4l44 -194h-187zM585 771h-118l-93 -94h125l40 50l26 -50h118l93 94h-125l-41 -51zM6 -13l469 635h153l3 -10l17 -23l153 -629h-168l-20 27h-5l-35 142h-151l-20 27h-4l-24 47l-172 -243
h-168l-20 27h-8zM464 784h130l6 -14l15 -19l1 -4l30 37h159l-5 -5l21 -28l-113 -114h-128l-20 27h-4l-4 7l-27 -34h-151l-20 27h-9zM543 298l-25 111l-81 -111h106z" />
    <glyph glyph-name="FL00C4h" unicode="&#xc4;" 
d="M480 609l-450 -609h146l186 263l45 -94h172l40 -169h146l-148 609h-137zM513 479h4l44 -194h-187zM429 771l-23 -94h125l23 94h-125zM722 677l23 94h-125l-23 -94h125zM6 -13l469 635h153l3 -10l17 -23l153 -629h-168l-20 27h-5l-35 142h-151l-20 27h-4l-24 47l-172 -243
h-168l-20 27h-8zM761 784l-1 -6l20 -27l-28 -114h-145l-20 27h-6l29 120h151zM390 664l29 120h151l-1 -6l20 -27l-28 -114h-145l-20 27h-6zM543 298l-25 111l-81 -111h106z" />
    <glyph glyph-name="FL00C5h" unicode="&#xc5;" 
d="M518 409l25 -111h-106zM514 784l-29 -120h6l20 -27h145l28 114l-20 27l1 6h-151zM475 622l-469 -635h8l20 -27h168l172 243l24 -47h4l20 -27h151l35 -142h5l20 -27h168l-153 629l-17 23l-3 10h-153zM592 712l6 24h-38l-6 -24h38zM501 677l23 94h125l-23 -94h-125z
M517 479h-4l-139 -194h187zM30 0l450 609h137l148 -609h-146l-40 169h-172l-45 94l-186 -263h-146z" />
    <glyph glyph-name="FL00C6h" unicode="&#xc6;" horiz-adv-x="1166" 
d="M513 479h4l44 -194h-187zM1263 609h-492l-27 -107h492zM480 609l-450 -609h146l186 263l45 -94h172l40 -169h492l27 107h-399l-38 156h476l28 116h-492l-20 -83l-76 313h-137zM6 -13l469 635h153l3 -10l17 -23l51 -214l5 17h518l-2 -6l21 -27l-34 -136h-470l24 -103h393
l-2 -6l21 -27l-32 -127h-508l-20 27h-5l-35 142h-151l-20 27h-4l-24 47l-172 -243h-168l-20 27h-8zM761 622h518l-1 -6l20 -27l-32 -127h-512l-20 27h-6zM543 298l-25 111l-81 -111h106z" />
    <glyph glyph-name="FL00C7h" unicode="&#xc7;" horiz-adv-x="672" 
d="M116 304q-13 -53 -8.5 -107t28.5 -98t68 -71.5t110 -27.5h43l-18 -73h-69l-21 -82h158l39 155h171l27 107h-291q-29 0 -54 17t-42 45t-23 63.5t3 72.5t33.5 72.5t55 63.5t62.5 44.5t57 16.5h297l27 107h-300q-63 0 -120.5 -25.5t-104 -68t-80 -97.5t-48.5 -114zM103 304
q15 61 50 118.5t84 102t109 71t126 26.5h313l-1 -6l20 -27l-32 -127h-307q-24 0 -54 -16t-58.5 -42t-51 -59.5t-31.5 -69.5q-8 -30 -5 -59.5t14 -54.5q16 -19 35 -30t42 -11h304l-2 -6l21 -27l-32 -127h-171l-39 -155h-178l-20 27h-6l27 108h69l5 20q-60 0 -100.5 21
t-67.5 56q-27 23 -43.5 53.5t-24 65.5t-6 72.5t10.5 75.5z" />
    <glyph glyph-name="FL00C8h" unicode="&#xc8;" horiz-adv-x="602" 
d="M148 375l-26 -108h492l26 108h-492zM699 609h-492l-27 -107h492zM547 0l27 107h-492l-27 -107h492zM435 677h97l-19 94h-125zM105 254l34 134h518l-2 -6l21 -27l-32 -128h-512l-21 27h-6zM197 622h518l-1 -6l20 -27l-32 -127h-512l-20 27h-6zM590 120l-2 -6l21 -27
l-32 -127h-512l-20 27h-6l33 133h518zM450 637l-20 27h-4l-61 120h159l2 -9l18 -24l23 -114h-117z" />
    <glyph glyph-name="FL00C9h" unicode="&#xc9;" horiz-adv-x="602" 
d="M148 375l-26 -108h492l26 108h-492zM408 677h97l93 94h-125zM82 107l-27 -107h492l27 107h-492zM699 609h-492l-27 -107h492zM105 254l34 134h518l-2 -6l21 -27l-32 -128h-512l-21 27h-6zM197 622h518l-1 -6l20 -27l-32 -127h-512l-20 27h-6zM39 -13l33 133h518l-2 -6
l21 -27l-32 -127h-512l-20 27h-6zM413 637l-20 27h-8l83 120h159l-5 -5l21 -28l-113 -114h-117z" />
    <glyph glyph-name="FL00CAh" unicode="&#xca;" horiz-adv-x="602" 
d="M148 375l-26 -108h492l26 108h-492zM504 677h125l-47 94h-176l-93 -94h125l48 59zM82 107l-27 -107h492l27 107h-492zM699 609h-492l-27 -107h492zM105 254l34 134h518l-2 -6l21 -27l-32 -128h-512l-21 27h-6zM197 622h518l-1 -6l20 -27l-32 -127h-512l-20 27h-6zM39 -13
l33 133h518l-2 -6l21 -27l-32 -127h-512l-20 27h-6zM313 637l-20 27h-9l119 120h188l8 -16l13 -17l57 -114h-151l-20 27h-5l-3 6l-26 -33h-151z" />
    <glyph glyph-name="FL00CBh" unicode="&#xcb;" horiz-adv-x="602" 
d="M148 375l-26 -108h492l26 108h-492zM336 771l-23 -94h125l23 94h-125zM629 677l23 94h-125l-23 -94h125zM82 107l-27 -107h492l27 107h-492zM699 609h-492l-27 -107h492zM105 254l34 134h518l-2 -6l21 -27l-32 -128h-512l-21 27h-6zM197 622h518l-1 -6l20 -27l-32 -127
h-512l-20 27h-6zM39 -13l33 133h518l-2 -6l21 -27l-32 -127h-512l-20 27h-6zM668 784l-1 -6l20 -27l-28 -114h-145l-20 27h-6l29 120h151zM297 664l29 120h151l-1 -6l20 -27l-28 -114h-145l-20 27h-6z" />
    <glyph glyph-name="FL00CCh" unicode="&#xcc;" horiz-adv-x="591" 
d="M428 664l20 -27h117l-23 114l-18 24l-2 9h-159l61 -120h4zM432 120l85 342h173l32 127l-20 27l1 6h-507l-33 -133h6l20 -27h139l-85 -342h-172l-33 -133h6l20 -27h501l32 127l-21 27l2 6h-146zM530 677h-97l-47 94h125zM535 0h-481l27 107h172l98 395h-172l27 107h481
l-27 -107h-173l-98 -395h173z" />
    <glyph glyph-name="FL00CDh" unicode="&#xcd;" horiz-adv-x="591" 
d="M398 677h97l93 94h-125zM55 0h481l27 107h-172l98 395h172l27 107h-481l-27 -107h173l-98 -395h-173zM519 462l-85 -342h145l-2 -6l21 -27l-32 -127h-501l-20 27h-6l33 133h173l85 342h-140l-20 27h-6l33 133h507l-1 -6l20 -27l-32 -127h-172zM403 637l-20 27h-8l83 120
h159l-5 -5l21 -28l-113 -114h-117z" />
    <glyph glyph-name="FL00CEh" unicode="&#xce;" horiz-adv-x="591" 
d="M497 677h125l-47 94h-176l-93 -94h125l48 59zM55 0h481l27 107h-172l98 395h172l27 107h-481l-27 -107h173l-98 -395h-173zM519 462l-85 -342h145l-2 -6l21 -27l-32 -127h-501l-20 27h-6l33 133h173l85 342h-140l-20 27h-6l33 133h507l-1 -6l20 -27l-32 -127h-172z
M306 637l-20 27h-9l119 120h188l8 -16l13 -17l57 -114h-151l-20 27h-5l-3 6l-26 -33h-151z" />
    <glyph glyph-name="FL00CFh" unicode="&#xcf;" horiz-adv-x="591" 
d="M329 771l-23 -94h125l23 94h-125zM622 677l23 94h-125l-23 -94h125zM55 0h481l27 107h-172l98 395h172l27 107h-481l-27 -107h173l-98 -395h-173zM519 462l-85 -342h145l-2 -6l21 -27l-32 -127h-501l-20 27h-6l33 133h173l85 342h-140l-20 27h-6l33 133h507l-1 -6l20 -27
l-32 -127h-172zM290 664l29 120h151l-1 -6l20 -27l-28 -114h-145l-20 27h-6zM661 784l-1 -6l20 -27l-28 -114h-145l-20 27h-6l29 120h151z" />
    <glyph glyph-name="FL00D0h" unicode="&#xd0;" horiz-adv-x="823" 
d="M393 379l31 123h205q21 0 44 -17.5t40.5 -45.5t25.5 -63t-1 -71q-9 -37 -33 -72.5t-54.5 -63.5t-64.5 -45t-62 -17h-198l39 156h125l28 116h-125zM261 379h-112l-28 -116h112l-66 -263h343q66 0 123.5 27.5t103.5 71.5t77.5 98t44.5 107q16 64 9 119.5t-35.5 96.5
t-77.5 65t-118 24h-318zM140 392h112l57 230h331q82 0 137.5 -32t81.5 -86h1q32 -43 40 -102t-9 -128q-14 -55 -46.5 -111t-79.5 -101t-107 -73.5t-128 -28.5h-353l-20 27h-6l59 236h-79l-21 27h-6zM395 223l-26 -103h158q27 0 58 16t59 42t50 59t31 68q9 36 0 72t-29 62
q-23 23 -47 23h-195l-17 -70h98l-2 -6l21 -27l-34 -136h-125z" />
    <glyph glyph-name="FL00D1h" unicode="&#xd1;" horiz-adv-x="687" 
d="M536 771h-118l-93 -94h125l40 50l26 -50h118l93 94h-125l-41 -51zM207 609l-152 -609h136l123 492h235q43 0 51 -19t-1 -57l-104 -416h137l110 441q8 33 6 63.5t-16.5 54t-42.5 37t-73 13.5h-199l-97 -91l23 91h-136zM39 -13l158 635h162l-1 -6l20 -27l-1 -2l37 35h205
q57 0 88.5 -20t44.5 -52l7 -8q19 -25 22 -59t-7 -72l-112 -451h-157l-20 27h-6l107 429q2 10 3.5 18.5t0.5 15.5q-5 1 -9.5 1.5t-11.5 0.5h-225l-123 -492h-156l-20 27h-6zM415 784h130l6 -14l15 -19l1 -4l30 37h159l-5 -5l21 -28l-113 -114h-128l-20 27h-4l-4 7l-27 -34
h-151l-20 27h-9zM757 544l-2 2z" />
    <glyph glyph-name="FL00D2h" unicode="&#xd2;" horiz-adv-x="742" 
d="M505 677h97l-19 94h-125zM115 301q-18 -70 -7 -130t45 -104t88 -69t123 -25q70 0 136.5 25t122 69t96 104t58.5 130t8 131t-43.5 106t-88 71t-124.5 26q-69 0 -136 -26.5t-123 -71.5t-97 -106t-58 -130zM238 301q10 42 36 80t61.5 67.5t78 46.5t85.5 17q45 0 79 -17
t54.5 -46t26.5 -67.5t-4 -80.5q-11 -45 -37 -82.5t-61.5 -64.5t-78 -42.5t-85.5 -15.5q-42 0 -75.5 16.5t-54.5 44t-28.5 65t3.5 79.5zM102 301q17 69 57.5 130.5t95.5 108t121 75t135 32.5l-11 17h-4l-61 120h159l2 -9l18 -24l23 -114h-18q54 -14 92.5 -46t61.5 -77
q34 -46 45 -109q10 -63 -8 -134t-60 -134q-31 -46 -71.5 -83.5t-88 -64.5t-99.5 -41.5t-107 -14.5q-70 0 -124.5 24t-89.5 69q-51 46 -70.5 116.5t2.5 158.5zM271 271q-16 -61 7 -110q20 -24 50 -38t68 -14q41 0 80.5 14.5t72.5 40t57.5 60.5t35.5 77q10 39 4.5 74t-24.5 62
q-41 35 -103 35q-41 0 -81 -16.5t-74 -44t-58.5 -64t-34.5 -76.5z" />
    <glyph glyph-name="FL00D3h" unicode="&#xd3;" horiz-adv-x="742" 
d="M478 677h97l93 94h-125zM115 301q-18 -70 -7 -130t45 -104t88 -69t123 -25q70 0 136.5 25t122 69t96 104t58.5 130t8 131t-43.5 106t-88 71t-124.5 26q-69 0 -136 -26.5t-123 -71.5t-97 -106t-58 -130zM238 301q10 42 36 80t61.5 67.5t78 46.5t85.5 17q45 0 79 -17
t54.5 -46t26.5 -67.5t-4 -80.5q-11 -45 -37 -82.5t-61.5 -64.5t-78 -42.5t-85.5 -15.5q-42 0 -75.5 16.5t-54.5 44t-28.5 65t3.5 79.5zM102 301q16 65 52.5 123t87 103.5t111 76t125.5 40.5l-15 20h-8l83 120h159l-5 -5l21 -28l-109 -111q60 -13 102.5 -45.5t66.5 -80.5
q34 -46 45 -109q10 -63 -8 -134t-60 -134q-31 -46 -71.5 -83.5t-88 -64.5t-99.5 -41.5t-107 -14.5q-70 0 -124.5 24t-89.5 69q-51 46 -70.5 116.5t2.5 158.5zM271 271q-16 -61 7 -110q20 -24 50 -38t68 -14q41 0 80.5 14.5t72.5 40t57.5 60.5t35.5 77q10 39 4.5 74t-24.5 62
q-41 35 -103 35q-41 0 -81 -16.5t-74 -44t-58.5 -64t-34.5 -76.5z" />
    <glyph glyph-name="FL00D4h" unicode="&#xd4;" horiz-adv-x="742" 
d="M573 677h125l-47 94h-176l-93 -94h125l48 59zM115 301q-18 -70 -7 -130t45 -104t88 -69t123 -25q70 0 136.5 25t122 69t96 104t58.5 130t8 131t-43.5 106t-88 71t-124.5 26q-69 0 -136 -26.5t-123 -71.5t-97 -106t-58 -130zM238 301q10 42 36 80t61.5 67.5t78 46.5
t85.5 17q45 0 79 -17t54.5 -46t26.5 -67.5t-4 -80.5q-11 -45 -37 -82.5t-61.5 -64.5t-78 -42.5t-85.5 -15.5q-42 0 -75.5 16.5t-54.5 44t-28.5 65t3.5 79.5zM102 301q15 61 48 115.5t78.5 98.5t100.5 75.5t114 46.5h-61l-20 27h-9l119 120h188l8 -16l13 -17l57 -114h-119
q54 -14 92.5 -46t61.5 -77q34 -46 45 -109q10 -63 -8 -134t-60 -134q-31 -46 -71.5 -83.5t-88 -64.5t-99.5 -41.5t-107 -14.5q-70 0 -124.5 24t-89.5 69q-51 46 -70.5 116.5t2.5 158.5zM271 271q-16 -61 7 -110q20 -24 50 -38t68 -14q41 0 80.5 14.5t72.5 40t57.5 60.5
t35.5 77q10 39 4.5 74t-24.5 62q-41 35 -103 35q-41 0 -81 -16.5t-74 -44t-58.5 -64t-34.5 -76.5zM541 647q20 0 40 -3l-14 20h-5l-3 6z" />
    <glyph glyph-name="FL00D5h" unicode="&#xd5;" horiz-adv-x="742" 
d="M561 771h-118l-93 -94h125l40 50l26 -50h118l93 94h-125l-41 -51zM238 301q10 42 36 80t61.5 67.5t78 46.5t85.5 17q45 0 79 -17t54.5 -46t26.5 -67.5t-4 -80.5q-11 -45 -37 -82.5t-61.5 -64.5t-78 -42.5t-85.5 -15.5q-42 0 -75.5 16.5t-54.5 44t-28.5 65t3.5 79.5z
M115 301q-18 -70 -7 -130t45 -104t88 -69t123 -25q70 0 136.5 25t122 69t96 104t58.5 130t8 131t-43.5 106t-88 71t-124.5 26q-69 0 -136 -26.5t-123 -71.5t-97 -106t-58 -130zM440 784h130l6 -14l15 -19l1 -4l30 37h159l-5 -5l21 -28l-113 -114h-65q54 -14 92.5 -46
t61.5 -77q34 -46 45 -109q10 -63 -8 -134t-60 -134q-31 -46 -71.5 -83.5t-88 -64.5t-99.5 -41.5t-107 -14.5q-70 0 -124.5 24t-89.5 69q-51 46 -70.5 116.5t2.5 158.5q15 61 48 115.5t78.5 98.5t100.5 75.5t114 46.5h-93l-20 27h-9zM271 271q-16 -61 7 -110q20 -24 50 -38
t68 -14q41 0 80.5 14.5t72.5 40t57.5 60.5t35.5 77q10 39 4.5 74t-24.5 62q-41 35 -103 35q-41 0 -81 -16.5t-74 -44t-58.5 -64t-34.5 -76.5zM509 647q5 0 11.5 0.5t12.5 0.5q4 0 6.5 -0.5t6.5 -0.5l-10 17h-4l-4 7z" />
    <glyph glyph-name="FL00D6h" unicode="&#xd6;" horiz-adv-x="742" 
d="M406 771l-23 -94h125l23 94h-125zM699 677l23 94h-125l-23 -94h125zM115 301q-18 -70 -7 -130t45 -104t88 -69t123 -25q70 0 136.5 25t122 69t96 104t58.5 130t8 131t-43.5 106t-88 71t-124.5 26q-69 0 -136 -26.5t-123 -71.5t-97 -106t-58 -130zM238 301q10 42 36 80
t61.5 67.5t78 46.5t85.5 17q45 0 79 -17t54.5 -46t26.5 -67.5t-4 -80.5q-11 -45 -37 -82.5t-61.5 -64.5t-78 -42.5t-85.5 -15.5q-42 0 -75.5 16.5t-54.5 44t-28.5 65t3.5 79.5zM738 784l-1 -6l20 -27l-28 -114h-110q54 -14 92.5 -46t61.5 -77q34 -46 45 -109q10 -63 -8 -134
t-60 -134q-31 -46 -71.5 -83.5t-88 -64.5t-99.5 -41.5t-107 -14.5q-70 0 -124.5 24t-89.5 69q-51 46 -70.5 116.5t2.5 158.5q15 61 48 115.5t78.5 98.5t100.5 75.5t114 46.5h-50l-20 27h-6l29 120h151l-1 -6l20 -27l-26 -104h18q5 0 9.5 -0.5t9.5 -1.5l-13 19h-6l29 120h151
zM271 271q-16 -61 7 -110q20 -24 50 -38t68 -14q41 0 80.5 14.5t72.5 40t57.5 60.5t35.5 77q10 39 4.5 74t-24.5 62q-41 35 -103 35q-41 0 -81 -16.5t-74 -44t-58.5 -64t-34.5 -76.5z" />
    <glyph glyph-name="FL00D7h" unicode="&#xd7;" horiz-adv-x="363" 
d="M344 321l85 68l-62 82l-85 -68l-52 68l-102 -82l52 -68l-87 -70l61 -82l88 70l51 -70l103 82zM447 389l-3 -2l22 -28l-83 -66l31 -42l-3 -2l21 -28l-120 -96l-21 28l-2 -2l-31 42l-85 -68l-21 28l-2 -2l-75 100l87 70l-52 68l125 100l52 -68l85 68z" />
    <glyph glyph-name="FL00D8h" unicode="&#xd8;" horiz-adv-x="742" 
d="M238 301q10 42 36 80t61.5 67.5t78 46.5t85.5 17q23 0 55 -8l-309 -316q-23 53 -7 113zM655 301q-11 -45 -37 -82.5t-61.5 -64.5t-78 -42.5t-85.5 -15.5q-36 0 -66 12l315 323q14 -27 18 -60.5t-5 -69.5zM743 535l73 74h-154q-27 13 -62.5 19.5t-70.5 6.5
q-69 0 -136 -26.5t-123 -71.5t-97 -106t-58 -130q-16 -64 -8.5 -119.5t35.5 -98.5l-81 -83h161q33 -11 68 -19t74 -8q70 0 136.5 25t122 69t96 104t58.5 130q17 69 8.5 129t-42.5 105zM845 622l-5 -5l21 -28l-82 -83q66 -94 31 -235q-18 -72 -60 -134t-99 -107.5t-126 -71
t-141 -25.5q-42 0 -77 8t-68 19h-178l-20 27h-9l94 96q-26 46 -32.5 100.5t8.5 117.5q18 72 60.5 135t101 110.5t128 74.5t141.5 27q36 0 71 -6.5t64 -19.5h177zM642 301q10 36 4 68l-255 -260h5q41 0 80.5 14.5t72.5 40t57.5 60.5t35.5 77zM271 271q-8 -31 -7 -48l242 249
q-39 -3 -77.5 -20.5t-70.5 -44.5t-55 -62t-32 -74z" />
    <glyph glyph-name="FL00D9h" unicode="&#xd9;" horiz-adv-x="687" 
d="M477 677h97l-19 94h-125zM496 0h136l152 609h-136l-123 -492h-235q-44 0 -52 18.5t2 57.5l104 416h-137l-110 -441q-8 -33 -6 -63.5t16.5 -54t42.5 -37t73 -13.5h199l97 91zM273 163q-2 -9 -4 -16.5t-3 -13.5q10 -3 27 -3h222l123 492h162l-1 -6l20 -27l-157 -629h-156
l-20 27h-6l1 6l-34 -33h-204q-45 0 -73 12.5t-45 34.5l-6 8q-32 25 -39.5 65t4.5 88l113 454h163l-1 -6l20 -27zM492 637l-20 27h-4l-61 120h159l2 -9l18 -24l23 -114h-117z" />
    <glyph glyph-name="FL00DAh" unicode="&#xda;" horiz-adv-x="687" 
d="M450 677h97l93 94h-125zM496 0h136l152 609h-136l-123 -492h-235q-44 0 -52 18.5t2 57.5l104 416h-137l-110 -441q-8 -33 -6 -63.5t16.5 -54t42.5 -37t73 -13.5h199l97 91zM273 163q-2 -9 -4 -16.5t-3 -13.5q10 -3 27 -3h222l123 492h162l-1 -6l20 -27l-157 -629h-156
l-20 27h-6l1 6l-34 -33h-204q-45 0 -73 12.5t-45 34.5l-6 8q-32 25 -39.5 65t4.5 88l113 454h163l-1 -6l20 -27zM455 637l-20 27h-8l83 120h159l-5 -5l21 -28l-113 -114h-117z" />
    <glyph glyph-name="FL00DBh" unicode="&#xdb;" horiz-adv-x="687" 
d="M545 677h125l-47 94h-176l-93 -94h125l48 59zM496 0h136l152 609h-136l-123 -492h-235q-44 0 -52 18.5t2 57.5l104 416h-137l-110 -441q-8 -33 -6 -63.5t16.5 -54t42.5 -37t73 -13.5h199l97 91zM273 163q-2 -9 -4 -16.5t-3 -13.5q10 -3 27 -3h222l123 492h162l-1 -6
l20 -27l-157 -629h-156l-20 27h-6l1 6l-34 -33h-204q-45 0 -73 12.5t-45 34.5l-6 8q-32 25 -39.5 65t4.5 88l113 454h163l-1 -6l20 -27zM354 637l-20 27h-9l119 120h188l8 -16l13 -17l57 -114h-151l-20 27h-5l-3 6l-26 -33h-151z" />
    <glyph glyph-name="FL00DCh" unicode="&#xdc;" horiz-adv-x="687" 
d="M632 0l152 609h-136l-123 -492h-235q-44 0 -52 18.5t2 57.5l104 416h-137l-110 -441q-8 -33 -6 -63.5t16.5 -54t42.5 -37t73 -13.5h199l97 91l-23 -91h136zM377 771l-23 -94h125l23 94h-125zM670 677l23 94h-125l-23 -94h125zM800 622l-1 -6l20 -27l-157 -629h-156
l-20 27h-6l1 6l-34 -33h-204q-45 0 -73 12.5t-45 34.5l-6 8q-32 25 -39.5 65t4.5 88l113 454h163l-1 -6l20 -27l-106 -426q-2 -9 -4 -16.5t-3 -13.5q10 -3 27 -3h222l123 492h162zM709 784l-1 -6l20 -27l-28 -114h-145l-20 27h-6l29 120h151zM338 664l29 120h151l-1 -6
l20 -27l-28 -114h-145l-20 27h-6z" />
    <glyph glyph-name="FL00DDh" unicode="&#xdd;" horiz-adv-x="677" 
d="M774 609h-138l-62 -250h-241q-16 0 -30 20t-8 48l46 182h-134l-46 -182q-8 -34 -4 -65.5t19.5 -56t43 -39t66.5 -14.5h262l-19 -76q-3 -12 -9.5 -24t-16 -22t-21 -16.5t-23.5 -6.5h-370l-27 -107h409q34 0 66.5 17.5t58.5 44.5t45 58.5t26 59.5zM448 677h97l93 94h-125z
M626 622h164l-1 -6l20 -27l-110 -439q-7 -30 -26.5 -63t-48 -61.5t-63 -47t-70.5 -18.5h-419l-20 27h-6l33 133h383q19 0 34 18t20 38l9 36h-219q-38 0 -66 13.5t-46 36.5l-6 7q-31 26 -41 68t1 90l49 195h160l-1 -6l20 -27l-48 -192q-3 -14 -2 -23q8 -2 10 -2h228zM453 637
l-20 27h-8l83 120h159l-5 -5l21 -28l-113 -114h-117z" />
    <glyph glyph-name="FL00DEh" unicode="&#xde;" horiz-adv-x="640" 
d="M242 204l47 188h227q13 0 21.5 -10.5t13 -25.5t4.5 -31t-3 -26q-3 -13 -12 -29.5t-21 -31t-27 -24.5t-30 -10h-220zM342 609h-136l-152 -609h137l47 187l48 -93h174q37 0 72 20t64.5 50t50 66t28.5 69q9 36 5 73.5t-20.5 68t-45.5 49.5t-69 19h-228zM196 622h162l-1 -6
l20 -27l-17 -67h188q48 0 79 -23.5t48 -59.5l4 -3q25 -33 32 -77.5t-4 -89.5q-9 -34 -30.5 -72t-52 -69.5t-67.5 -52.5t-77 -21h-179l-20 27h-4l-18 33l-38 -154h-157l-20 27h-6zM319 352l-34 -135h180q12 0 24 8.5t22 21t17.5 27t10.5 25.5q1 5 1.5 11t0.5 13q0 15 -3 29
h-2h-217z" />
    <glyph glyph-name="FL00DFh" unicode="&#xdf;" horiz-adv-x="664" 
d="M593 609h-386l-186 -745h136l157 628h250q28 0 39.5 -14.5t6.5 -35.5q-6 -24 -26.5 -42.5t-49.5 -20.5h-142l-27 -110h139q29 -3 40 -26t5 -48q-3 -11 -10.5 -24.5t-18 -25.5t-23.5 -20t-27 -8h-142l-29 -117h142q45 0 83.5 16.5t68.5 44t50 62.5t29 71q9 35 2 62t-23 59
q30 25 51.5 58.5t30.5 68.5q9 36 3.5 67t-23.5 53t-48.5 34.5t-71.5 12.5zM197 622h399q57 0 94 -21.5t52 -59.5l5 -6q37 -48 19 -123q-9 -35 -30 -68.5t-50 -59.5q15 -31 21.5 -58t-2.5 -62q-10 -38 -31.5 -75t-52.5 -65.5t-71.5 -46t-88.5 -17.5h-152l-20 27h-6l35 143
h155q11 0 21.5 7t19 16.5t14.5 21t8 20.5q3 17 -1 30q-2 2 -5.5 2.5t-5.5 1.5h-149l-20 27h-6l34 136h154q22 2 38.5 16.5t21.5 33.5q1 2 0.5 4t0.5 4q-4 1 -7 1.5t-7 0.5h-240l-157 -628h-156l-20 27h-6z" />
    <glyph glyph-name="FL00E0h" unicode="&#xe0;" 
d="M536 677h97l-19 94h-125zM480 609l-450 -609h146l120 168h284l39 -168h146l-148 609h-137zM511 479h7l43 -194h-187zM6 -13l469 635h153l3 -10l17 -23l153 -629h-168l-20 27h-5l-34 141h-252l-120 -168h-168l-20 27h-8zM551 637l-20 27h-4l-61 120h159l2 -9l18 -24
l23 -114h-117zM544 298l-26 115l-81 -115h107z" />
    <glyph glyph-name="FL00E1h" unicode="&#xe1;" 
d="M499 677h97l93 94h-125zM480 609l-450 -609h146l120 168h284l39 -168h146l-148 609h-137zM511 479h7l43 -194h-187zM6 -13l469 635h153l3 -10l17 -23l153 -629h-168l-20 27h-5l-34 141h-252l-120 -168h-168l-20 27h-8zM504 637l-20 27h-8l83 120h159l-5 -5l21 -28
l-113 -114h-117zM544 298l-26 115l-81 -115h107z" />
    <glyph glyph-name="FL00E2h" unicode="&#xe2;" 
d="M597 677h125l-47 94h-176l-93 -94h125l48 59zM480 609l-450 -609h146l120 168h284l39 -168h146l-148 609h-137zM511 479h7l43 -194h-187zM6 -13l469 635h153l3 -10l17 -23l153 -629h-168l-20 27h-5l-34 141h-252l-120 -168h-168l-20 27h-8zM406 637l-20 27h-9l119 120
h188l8 -16l13 -17l57 -114h-151l-20 27h-5l-3 6l-26 -33h-151zM544 298l-26 115l-81 -115h107z" />
    <glyph glyph-name="FL00E3h" unicode="&#xe3;" 
d="M585 771h-118l-93 -94h125l40 50l26 -50h118l93 94h-125l-41 -51zM480 609l-450 -609h146l120 168h284l39 -168h146l-148 609h-137zM511 479h7l43 -194h-187zM6 -13l469 635h153l3 -10l17 -23l153 -629h-168l-20 27h-5l-34 141h-252l-120 -168h-168l-20 27h-8zM464 784
h130l6 -14l15 -19l1 -4l30 37h159l-5 -5l21 -28l-113 -114h-128l-20 27h-4l-4 7l-27 -34h-151l-20 27h-9zM544 298l-26 115l-81 -115h107z" />
    <glyph glyph-name="FL00E4h" unicode="&#xe4;" 
d="M429 771l-23 -94h125l23 94h-125zM722 677l23 94h-125l-23 -94h125zM480 609l-450 -609h146l120 168h284l39 -168h146l-148 609h-137zM511 479h7l43 -194h-187zM6 -13l469 635h153l3 -10l17 -23l153 -629h-168l-20 27h-5l-34 141h-252l-120 -168h-168l-20 27h-8zM761 784
l-1 -6l20 -27l-28 -114h-145l-20 27h-6l29 120h151zM390 664l29 120h151l-1 -6l20 -27l-28 -114h-145l-20 27h-6zM544 298l-26 115l-81 -115h107z" />
    <glyph glyph-name="FL00E5h" unicode="&#xe5;" 
d="M518 413l26 -115h-107zM514 784l-29 -120h6l20 -27h145l28 114l-20 27l1 6h-151zM475 622l-469 -635h8l20 -27h168l120 168h252l34 -141h5l20 -27h168l-153 629l-17 23l-3 10h-153zM592 712l6 24h-38l-6 -24h38zM518 479h-7l-137 -194h187zM30 0l450 609h137l148 -609
h-146l-39 168h-284l-120 -168h-146zM501 677l23 94h125l-23 -94h-125z" />
    <glyph glyph-name="FL00E6h" unicode="&#xe6;" horiz-adv-x="1167" 
d="M374 285l138 194h5l44 -194h-187zM1264 609h-492l-79 -315l-76 315h-137l-450 -609h146l120 168h284l39 -168h493l27 107h-356l39 156h311l28 116h-311l31 123h356zM762 622h518l-1 -6l20 -27l-32 -127h-356l-17 -70h284l-2 -6l21 -27l-34 -136h-311l-26 -103h329l-2 -6
l21 -27l-32 -127h-509l-20 27h-5l-34 141h-252l-120 -168h-168l-20 27h-8l469 635h153l3 -10l17 -23l52 -216zM543 298l-26 113l-80 -113h106z" />
    <glyph glyph-name="FL00E7h" unicode="&#xe7;" horiz-adv-x="672" 
d="M116 304q-13 -53 -8.5 -107t28.5 -98t68 -71.5t110 -27.5h43l-18 -73h-69l-21 -82h158l39 155h171l27 107h-291q-29 0 -54 17t-42 45t-23 63.5t3 72.5t33.5 72.5t55 63.5t62.5 44.5t57 16.5h297l27 107h-300q-63 0 -120.5 -25.5t-104 -68t-80 -97.5t-48.5 -114zM103 304
q15 61 50 118.5t84 102t109 71t126 26.5h313l-1 -6l20 -27l-32 -127h-307q-24 0 -54 -16t-58.5 -42t-51 -59.5t-31.5 -69.5q-8 -30 -5 -59.5t14 -54.5q16 -19 35 -30t42 -11h304l-2 -6l21 -27l-32 -127h-171l-39 -155h-178l-20 27h-6l27 108h69l5 20q-60 0 -100.5 21
t-67.5 56q-27 23 -43.5 53.5t-24 65.5t-6 72.5t10.5 75.5z" />
    <glyph glyph-name="FL00E8h" unicode="&#xe8;" horiz-adv-x="602" 
d="M430 664l20 -27h117l-23 114l-18 24l-2 9h-159l61 -120h4zM197 622l-158 -635h6l20 -27h512l32 127l-21 27l2 6h-329l27 107h311l32 128l-21 27l2 6h-284l18 74h356l32 127l-20 27l1 6h-518zM55 0l152 609h492l-27 -107h-356l-32 -127h311l-26 -108h-311l-40 -160h356
l-27 -107h-492zM532 677h-97l-47 94h125z" />
    <glyph glyph-name="FL00E9h" unicode="&#xe9;" horiz-adv-x="602" 
d="M393 664l20 -27h117l113 114l-21 28l5 5h-159l-83 -120h8zM197 622l-158 -635h6l20 -27h512l32 127l-21 27l2 6h-329l27 107h311l32 128l-21 27l2 6h-284l18 74h356l32 127l-20 27l1 6h-518zM55 0l152 609h492l-27 -107h-356l-32 -127h311l-26 -108h-311l-40 -160h356
l-27 -107h-492zM505 677h-97l65 94h125z" />
    <glyph glyph-name="FL00EAh" unicode="&#xea;" horiz-adv-x="602" 
d="M293 664l20 -27h151l26 33l3 -6h5l20 -27h151l-57 114l-13 17l-8 16h-188l-119 -120h9zM197 622l-158 -635h6l20 -27h512l32 127l-21 27l2 6h-329l27 107h311l32 128l-21 27l2 6h-284l18 74h356l32 127l-20 27l1 6h-518zM55 0l152 609h492l-27 -107h-356l-32 -127h311
l-26 -108h-311l-40 -160h356l-27 -107h-492zM629 677h-125l-18 59l-48 -59h-125l93 94h176z" />
    <glyph glyph-name="FL00EBh" unicode="&#xeb;" horiz-adv-x="602" 
d="M667 778l1 6h-151l-29 -120h6l20 -27h145l28 114zM326 784l-29 -120h6l20 -27h145l28 114l-20 27l1 6h-151zM197 622l-158 -635h6l20 -27h512l32 127l-21 27l2 6h-329l27 107h311l32 128l-21 27l2 6h-284l18 74h356l32 127l-20 27l1 6h-518zM55 0l152 609h492l-27 -107
h-356l-32 -127h311l-26 -108h-311l-40 -160h356l-27 -107h-492zM652 771l-23 -94h-125l23 94h125zM313 677l23 94h125l-23 -94h-125z" />
    <glyph glyph-name="FL00ECh" unicode="&#xec;" horiz-adv-x="256" 
d="M270 677h97l-19 94h-125zM212 609l-152 -609h136l152 609h-136zM44 -13l158 635h162l-1 -6l20 -27l-157 -629h-156l-20 27h-6zM285 637l-20 27h-4l-61 120h159l2 -9l18 -24l23 -114h-117z" />
    <glyph glyph-name="FL00EDh" unicode="&#xed;" horiz-adv-x="256" 
d="M223 677h97l93 94h-125zM212 609l-152 -609h136l152 609h-136zM44 -13l158 635h162l-1 -6l20 -27l-157 -629h-156l-20 27h-6zM228 637l-20 27h-8l83 120h159l-5 -5l21 -28l-113 -114h-117z" />
    <glyph glyph-name="FL00EEh" unicode="&#xee;" horiz-adv-x="256" 
d="M330 677h125l-47 94h-176l-93 -94h125l48 59zM212 609l-152 -609h136l152 609h-136zM44 -13l158 635h162l-1 -6l20 -27l-157 -629h-156l-20 27h-6zM139 637l-20 27h-9l119 120h188l8 -16l13 -17l57 -114h-151l-20 27h-5l-3 6l-26 -33h-151z" />
    <glyph glyph-name="FL00EFh" unicode="&#xef;" horiz-adv-x="256" 
d="M162 771l-23 -94h125l23 94h-125zM455 677l23 94h-125l-23 -94h125zM212 609l-152 -609h136l152 609h-136zM44 -13l158 635h162l-1 -6l20 -27l-157 -629h-156l-20 27h-6zM494 784l-1 -6l20 -27l-28 -114h-145l-20 27h-6l29 120h151zM123 664l29 120h151l-1 -6l20 -27
l-28 -114h-145l-20 27h-6z" />
    <glyph glyph-name="FL00F0h" unicode="&#xf0;" horiz-adv-x="711" 
d="M415 120h-158l26 103h287q-17 -23 -36.5 -41.5t-40 -32.5t-40.5 -21.5t-38 -7.5zM170 489l20 -27h346q22 0 48 -18q15 -23 26 -52h-470l-101 -405h6l20 -27h352q68 0 128 28.5t107.5 73.5t80 101t46.5 111q16 63 6.5 119t-40.5 98q-29 60 -89.5 95.5t-148.5 35.5h-310
l-33 -133h6zM611 263h-358l-39 -156h198q25 0 53 12.5t55.5 34t51 49.5t39.5 60zM747 304q-13 -53 -44.5 -107t-77.5 -98t-104 -71.5t-124 -27.5h-342l94 379h478q-5 25 -15.5 47.5t-25.5 39t-33 26.5t-37 10h-336l27 107h297q69 0 121.5 -24t84.5 -65t42.5 -96.5
t-5.5 -119.5z" />
    <glyph glyph-name="FL00F1h" unicode="&#xf1;" horiz-adv-x="687" 
d="M536 771h-118l-93 -94h125l40 50l26 -50h118l93 94h-125l-41 -51zM207 609l-152 -609h136l123 492h235q43 0 51 -19t-1 -57l-104 -416h137l110 441q8 33 6 63.5t-16.5 54t-42.5 37t-73 13.5h-199l-97 -91l23 91h-136zM39 -13l158 635h162l-1 -6l20 -27l-1 -2l37 35h205
q57 0 88.5 -20t44.5 -52l7 -8q19 -25 22 -59t-7 -72l-112 -451h-157l-20 27h-6l107 429q2 10 3.5 18.5t0.5 15.5q-5 1 -9.5 1.5t-11.5 0.5h-225l-123 -492h-156l-20 27h-6zM415 784h130l6 -14l15 -19l1 -4l30 37h159l-5 -5l21 -28l-113 -114h-128l-20 27h-4l-4 7l-27 -34
h-151l-20 27h-9zM757 544l-2 2z" />
    <glyph glyph-name="FL00F2h" unicode="&#xf2;" horiz-adv-x="742" 
d="M505 677h97l-19 94h-125zM115 301q-18 -70 -7 -130t45 -104t88 -69t123 -25q70 0 136.5 25t122 69t96 104t58.5 130t8 131t-43.5 106t-88 71t-124.5 26q-69 0 -136 -26.5t-123 -71.5t-97 -106t-58 -130zM238 301q10 42 36 80t61.5 67.5t78 46.5t85.5 17q45 0 79 -17
t54.5 -46t26.5 -67.5t-4 -80.5q-11 -45 -37 -82.5t-61.5 -64.5t-78 -42.5t-85.5 -15.5q-42 0 -75.5 16.5t-54.5 44t-28.5 65t3.5 79.5zM102 301q17 69 57.5 130.5t95.5 108t121 75t135 32.5l-11 17h-4l-61 120h159l2 -9l18 -24l23 -114h-18q54 -14 92.5 -46t61.5 -77
q34 -46 45 -109q10 -63 -8 -134t-60 -134q-31 -46 -71.5 -83.5t-88 -64.5t-99.5 -41.5t-107 -14.5q-70 0 -124.5 24t-89.5 69q-51 46 -70.5 116.5t2.5 158.5zM271 271q-16 -61 7 -110q20 -24 50 -38t68 -14q41 0 80.5 14.5t72.5 40t57.5 60.5t35.5 77q10 39 4.5 74t-24.5 62
q-41 35 -103 35q-41 0 -81 -16.5t-74 -44t-58.5 -64t-34.5 -76.5z" />
    <glyph glyph-name="FL00F3h" unicode="&#xf3;" horiz-adv-x="742" 
d="M478 677h97l93 94h-125zM115 301q-18 -70 -7 -130t45 -104t88 -69t123 -25q70 0 136.5 25t122 69t96 104t58.5 130t8 131t-43.5 106t-88 71t-124.5 26q-69 0 -136 -26.5t-123 -71.5t-97 -106t-58 -130zM238 301q10 42 36 80t61.5 67.5t78 46.5t85.5 17q45 0 79 -17
t54.5 -46t26.5 -67.5t-4 -80.5q-11 -45 -37 -82.5t-61.5 -64.5t-78 -42.5t-85.5 -15.5q-42 0 -75.5 16.5t-54.5 44t-28.5 65t3.5 79.5zM102 301q16 65 52.5 123t87 103.5t111 76t125.5 40.5l-15 20h-8l83 120h159l-5 -5l21 -28l-109 -111q60 -13 102.5 -45.5t66.5 -80.5
q34 -46 45 -109q10 -63 -8 -134t-60 -134q-31 -46 -71.5 -83.5t-88 -64.5t-99.5 -41.5t-107 -14.5q-70 0 -124.5 24t-89.5 69q-51 46 -70.5 116.5t2.5 158.5zM271 271q-16 -61 7 -110q20 -24 50 -38t68 -14q41 0 80.5 14.5t72.5 40t57.5 60.5t35.5 77q10 39 4.5 74t-24.5 62
q-41 35 -103 35q-41 0 -81 -16.5t-74 -44t-58.5 -64t-34.5 -76.5z" />
    <glyph glyph-name="FL00F4h" unicode="&#xf4;" horiz-adv-x="742" 
d="M573 677h125l-47 94h-176l-93 -94h125l48 59zM115 301q-18 -70 -7 -130t45 -104t88 -69t123 -25q70 0 136.5 25t122 69t96 104t58.5 130t8 131t-43.5 106t-88 71t-124.5 26q-69 0 -136 -26.5t-123 -71.5t-97 -106t-58 -130zM238 301q10 42 36 80t61.5 67.5t78 46.5
t85.5 17q45 0 79 -17t54.5 -46t26.5 -67.5t-4 -80.5q-11 -45 -37 -82.5t-61.5 -64.5t-78 -42.5t-85.5 -15.5q-42 0 -75.5 16.5t-54.5 44t-28.5 65t3.5 79.5zM102 301q15 61 48 115.5t78.5 98.5t100.5 75.5t114 46.5h-61l-20 27h-9l119 120h188l8 -16l13 -17l57 -114h-119
q54 -14 92.5 -46t61.5 -77q34 -46 45 -109q10 -63 -8 -134t-60 -134q-31 -46 -71.5 -83.5t-88 -64.5t-99.5 -41.5t-107 -14.5q-70 0 -124.5 24t-89.5 69q-51 46 -70.5 116.5t2.5 158.5zM271 271q-16 -61 7 -110q20 -24 50 -38t68 -14q41 0 80.5 14.5t72.5 40t57.5 60.5
t35.5 77q10 39 4.5 74t-24.5 62q-41 35 -103 35q-41 0 -81 -16.5t-74 -44t-58.5 -64t-34.5 -76.5zM541 647q20 0 40 -3l-14 20h-5l-3 6z" />
    <glyph glyph-name="FL00F5h" unicode="&#xf5;" horiz-adv-x="742" 
d="M561 771h-118l-93 -94h125l40 50l26 -50h118l93 94h-125l-41 -51zM238 301q10 42 36 80t61.5 67.5t78 46.5t85.5 17q45 0 79 -17t54.5 -46t26.5 -67.5t-4 -80.5q-11 -45 -37 -82.5t-61.5 -64.5t-78 -42.5t-85.5 -15.5q-42 0 -75.5 16.5t-54.5 44t-28.5 65t3.5 79.5z
M115 301q-18 -70 -7 -130t45 -104t88 -69t123 -25q70 0 136.5 25t122 69t96 104t58.5 130t8 131t-43.5 106t-88 71t-124.5 26q-69 0 -136 -26.5t-123 -71.5t-97 -106t-58 -130zM440 784h130l6 -14l15 -19l1 -4l30 37h159l-5 -5l21 -28l-113 -114h-65q54 -14 92.5 -46
t61.5 -77q34 -46 45 -109q10 -63 -8 -134t-60 -134q-31 -46 -71.5 -83.5t-88 -64.5t-99.5 -41.5t-107 -14.5q-70 0 -124.5 24t-89.5 69q-51 46 -70.5 116.5t2.5 158.5q15 61 48 115.5t78.5 98.5t100.5 75.5t114 46.5h-93l-20 27h-9zM271 271q-16 -61 7 -110q20 -24 50 -38
t68 -14q41 0 80.5 14.5t72.5 40t57.5 60.5t35.5 77q10 39 4.5 74t-24.5 62q-41 35 -103 35q-41 0 -81 -16.5t-74 -44t-58.5 -64t-34.5 -76.5zM509 647q5 0 11.5 0.5t12.5 0.5q4 0 6.5 -0.5t6.5 -0.5l-10 17h-4l-4 7z" />
    <glyph glyph-name="FL00F6h" unicode="&#xf6;" horiz-adv-x="742" 
d="M406 771l-23 -94h125l23 94h-125zM699 677l23 94h-125l-23 -94h125zM115 301q-18 -70 -7 -130t45 -104t88 -69t123 -25q70 0 136.5 25t122 69t96 104t58.5 130t8 131t-43.5 106t-88 71t-124.5 26q-69 0 -136 -26.5t-123 -71.5t-97 -106t-58 -130zM238 301q10 42 36 80
t61.5 67.5t78 46.5t85.5 17q45 0 79 -17t54.5 -46t26.5 -67.5t-4 -80.5q-11 -45 -37 -82.5t-61.5 -64.5t-78 -42.5t-85.5 -15.5q-42 0 -75.5 16.5t-54.5 44t-28.5 65t3.5 79.5zM738 784l-1 -6l20 -27l-28 -114h-110q54 -14 92.5 -46t61.5 -77q34 -46 45 -109q10 -63 -8 -134
t-60 -134q-31 -46 -71.5 -83.5t-88 -64.5t-99.5 -41.5t-107 -14.5q-70 0 -124.5 24t-89.5 69q-51 46 -70.5 116.5t2.5 158.5q15 61 48 115.5t78.5 98.5t100.5 75.5t114 46.5h-50l-20 27h-6l29 120h151l-1 -6l20 -27l-26 -104h18q5 0 9.5 -0.5t9.5 -1.5l-13 19h-6l29 120h151
zM271 271q-16 -61 7 -110q20 -24 50 -38t68 -14q41 0 80.5 14.5t72.5 40t57.5 60.5t35.5 77q10 39 4.5 74t-24.5 62q-41 35 -103 35q-41 0 -81 -16.5t-74 -44t-58.5 -64t-34.5 -76.5z" />
    <glyph glyph-name="FL00F7h" unicode="&#xf7;" horiz-adv-x="514" 
d="M329 513l-24 -94h122l24 94h-122zM353 125l24 94h-122l-24 -94h122zM553 379h-404l-28 -116h404zM289 406l30 120h148l-1 -6l20 -27l-25 -101h109l-2 -6l21 -27l-34 -136h-161l18 -24l-29 -114h-142l-20 27h-6l28 111h-112l-21 27h-6l36 142h166l-11 14h-6z" />
    <glyph glyph-name="FL00F8h" unicode="&#xf8;" horiz-adv-x="742" 
d="M655 301q-11 -45 -37 -82.5t-61.5 -64.5t-78 -42.5t-85.5 -15.5q-30 0 -57 9l310 319q12 -26 14.5 -57.5t-5.5 -65.5zM238 301q10 42 36 80t61.5 67.5t78 46.5t85.5 17q36 0 65 -12l-315 -321q-28 50 -11 122zM115 301q-18 -70 -7 -130t45 -104t88 -69t123 -25
q70 0 136.5 25t122 69t96 104t58.5 130t8 131t-43.5 106t-88 71t-124.5 26q-69 0 -136 -26.5t-123 -71.5t-97 -106t-58 -130zM102 301q18 72 60.5 135t101 110.5t128 74.5t141.5 27q88 0 149 -35.5t91 -98.5q34 -46 45 -109q10 -63 -8 -134t-60 -134q-31 -46 -71.5 -83.5
t-88 -64.5t-99.5 -41.5t-107 -14.5q-70 0 -124.5 24t-89.5 69q-51 46 -70.5 116.5t2.5 158.5zM519 472q-41 0 -81 -16.5t-74 -44t-58.5 -64t-34.5 -76.5q-9 -32 -6 -60zM642 301q4 14 5 29t0 29l-244 -250q40 1 78.5 16t71 40.5t56 60t33.5 75.5z" />
    <glyph glyph-name="FL00F9h" unicode="&#xf9;" horiz-adv-x="687" 
d="M477 677h97l-19 94h-125zM496 0h136l152 609h-136l-123 -492h-235q-44 0 -52 18.5t2 57.5l104 416h-137l-110 -441q-8 -33 -6 -63.5t16.5 -54t42.5 -37t73 -13.5h199l97 91zM273 163q-2 -9 -4 -16.5t-3 -13.5q10 -3 27 -3h222l123 492h162l-1 -6l20 -27l-157 -629h-156
l-20 27h-6l1 6l-34 -33h-204q-45 0 -73 12.5t-45 34.5l-6 8q-32 25 -39.5 65t4.5 88l113 454h163l-1 -6l20 -27zM492 637l-20 27h-4l-61 120h159l2 -9l18 -24l23 -114h-117z" />
    <glyph glyph-name="FL00FAh" unicode="&#xfa;" horiz-adv-x="687" 
d="M450 677h97l93 94h-125zM496 0h136l152 609h-136l-123 -492h-235q-44 0 -52 18.5t2 57.5l104 416h-137l-110 -441q-8 -33 -6 -63.5t16.5 -54t42.5 -37t73 -13.5h199l97 91zM273 163q-2 -9 -4 -16.5t-3 -13.5q10 -3 27 -3h222l123 492h162l-1 -6l20 -27l-157 -629h-156
l-20 27h-6l1 6l-34 -33h-204q-45 0 -73 12.5t-45 34.5l-6 8q-32 25 -39.5 65t4.5 88l113 454h163l-1 -6l20 -27zM455 637l-20 27h-8l83 120h159l-5 -5l21 -28l-113 -114h-117z" />
    <glyph glyph-name="FL00FBh" unicode="&#xfb;" horiz-adv-x="687" 
d="M545 677h125l-47 94h-176l-93 -94h125l48 59zM496 0h136l152 609h-136l-123 -492h-235q-44 0 -52 18.5t2 57.5l104 416h-137l-110 -441q-8 -33 -6 -63.5t16.5 -54t42.5 -37t73 -13.5h199l97 91zM273 163q-2 -9 -4 -16.5t-3 -13.5q10 -3 27 -3h222l123 492h162l-1 -6
l20 -27l-157 -629h-156l-20 27h-6l1 6l-34 -33h-204q-45 0 -73 12.5t-45 34.5l-6 8q-32 25 -39.5 65t4.5 88l113 454h163l-1 -6l20 -27zM354 637l-20 27h-9l119 120h188l8 -16l13 -17l57 -114h-151l-20 27h-5l-3 6l-26 -33h-151z" />
    <glyph glyph-name="FL00FCh" unicode="&#xfc;" horiz-adv-x="687" 
d="M632 0l152 609h-136l-123 -492h-235q-44 0 -52 18.5t2 57.5l104 416h-137l-110 -441q-8 -33 -6 -63.5t16.5 -54t42.5 -37t73 -13.5h199l97 91l-23 -91h136zM377 771l-23 -94h125l23 94h-125zM670 677l23 94h-125l-23 -94h125zM800 622l-1 -6l20 -27l-157 -629h-156
l-20 27h-6l1 6l-34 -33h-204q-45 0 -73 12.5t-45 34.5l-6 8q-32 25 -39.5 65t4.5 88l113 454h163l-1 -6l20 -27l-106 -426q-2 -9 -4 -16.5t-3 -13.5q10 -3 27 -3h222l123 492h162zM709 784l-1 -6l20 -27l-28 -114h-145l-20 27h-6l29 120h151zM338 664l29 120h151l-1 -6
l20 -27l-28 -114h-145l-20 27h-6z" />
    <glyph glyph-name="FL00FDh" unicode="&#xfd;" horiz-adv-x="662" 
d="M437 677h97l93 94h-125zM182 609l153 -321l-72 -288h136l72 288l313 321h-160l-190 -194l-92 194h-160zM358 607l14 -18l71 -149l178 182h192l-5 -5l21 -28l-326 -334l-74 -295h-156l-20 27h-6l74 297l-162 338h192zM442 637l-20 27h-8l83 120h159l-5 -5l21 -28
l-113 -114h-117z" />
    <glyph glyph-name="FL00FEh" unicode="&#xfe;" horiz-adv-x="640" 
d="M242 204l47 188h227q13 0 21.5 -10.5t13 -25.5t4.5 -31t-3 -26q-3 -13 -12 -29.5t-21 -31t-27 -24.5t-30 -10h-220zM342 609h-136l-152 -609h137l47 187l48 -93h174q37 0 72 20t64.5 50t50 66t28.5 69q9 36 5 73.5t-20.5 68t-45.5 49.5t-69 19h-228zM196 622h162l-1 -6
l20 -27l-17 -67h188q48 0 79 -23.5t48 -59.5l4 -3q25 -33 32 -77.5t-4 -89.5q-9 -34 -30.5 -72t-52 -69.5t-67.5 -52.5t-77 -21h-179l-20 27h-4l-18 33l-38 -154h-157l-20 27h-6zM319 352l-34 -135h180q12 0 24 8.5t22 21t17.5 27t10.5 25.5q1 5 1.5 11t0.5 13q0 15 -3 29
h-2h-217z" />
    <glyph glyph-name="FL00FFh" unicode="&#xff;" horiz-adv-x="662" 
d="M362 771l-23 -94h125l23 94h-125zM655 677l23 94h-125l-23 -94h125zM182 609l153 -321l-72 -288h136l72 288l313 321h-160l-190 -194l-92 194h-160zM358 607l14 -18l71 -149l178 182h192l-5 -5l21 -28l-326 -334l-74 -295h-156l-20 27h-6l74 297l-162 338h192zM323 664
l29 120h151l-1 -6l20 -27l-28 -114h-145l-20 27h-6zM694 784l-1 -6l20 -27l-28 -114h-145l-20 27h-6l29 120h151z" />
    <glyph glyph-name="FL0152h" unicode="&#x152;" horiz-adv-x="1031" 
d="M579 379l-28 -116h491l28 116h-491zM116 304q-13 -53 -8.5 -107t28.5 -98t68 -71.5t110 -27.5h662l27 107h-650q-29 0 -54 17t-42 45t-23 63.5t3 72.5t33.5 72.5t55 63.5t62.5 44.5t57 16.5h656l27 107h-659q-63 0 -120.5 -25.5t-104 -68t-80 -97.5t-48.5 -114zM103 304
q15 61 50 118.5t84 102t109 71t126 26.5h672l-1 -6l20 -27l-32 -127h-666q-24 0 -54 -16t-58.5 -42t-51 -59.5t-31.5 -69.5q-8 -30 -5 -59.5t14 -54.5q16 -19 35 -30t42 -11h663l-2 -6l21 -27l-32 -127h-672q-60 0 -100.5 21t-67.5 56q-27 23 -43.5 53.5t-24 65.5t-6 72.5
t10.5 75.5zM534 250l36 142h517l-2 -6l21 -27l-34 -136h-511l-21 27h-6z" />
    <glyph glyph-name="FL0153h" unicode="&#x153;" horiz-adv-x="1031" 
d="M445 502h164l-98 -395h-158q-29 0 -54 17t-42 45t-23 63.5t3 72.5t33.5 72.5t55 63.5t62.5 44.5t57 16.5zM116 304q-13 -53 -8.5 -107t28.5 -98t68 -71.5t110 -27.5h662l27 107h-356l39 156h311l28 116h-311l31 123h356l27 107h-659q-63 0 -120.5 -25.5t-104 -68
t-80 -97.5t-48.5 -114zM103 304q15 61 50 118.5t84 102t109 71t126 26.5h672l-1 -6l20 -27l-32 -127h-356l-17 -70h284l-2 -6l21 -27l-34 -136h-311l-26 -103h329l-2 -6l21 -27l-32 -127h-672q-60 0 -100.5 21t-67.5 56q-27 23 -43.5 53.5t-24 65.5t-6 72.5t10.5 75.5z
M270 275q-8 -30 -5 -59.5t14 -54.5q16 -19 35 -30t42 -11h145l85 342h-121q-24 0 -54 -16t-58.5 -42t-51 -59.5t-31.5 -69.5z" />
    <glyph glyph-name="FL0160h" unicode="&#x160;" horiz-adv-x="665" 
d="M494 771h-125l47 -94h176l93 94h-125l-47 -59zM84 107l-27 -107h409q35 0 66.5 17t57 43t44 58t26.5 61q9 36 4.5 68.5t-21.5 57t-45.5 39.5t-67.5 15h-215q-8 0 -15.5 6.5t-13 16.5t-7.5 22t1 23q3 12 10 25t16.5 24.5t21 18.5t23.5 7h382l27 107h-375q-39 0 -76 -14
t-67.5 -38t-53 -57.5t-32.5 -72.5q-8 -34 -4 -65.5t19.5 -56t43 -39t66.5 -14.5h209q29 0 40.5 -23.5t4.5 -51.5q-3 -12 -11.5 -24t-20 -22.5t-24.5 -17t-25 -6.5h-370zM41 -13l33 133h383q9 0 19.5 5t20 13.5t16.5 18.5t9 20q5 20 -1 33q-8 2 -11 2h-209q-38 0 -66 13.5
t-46 36.5l-6 7q-31 26 -41 68t1 90q10 42 34 77.5t57 62t72.5 41t81.5 14.5h388l-1 -6l20 -27l-32 -127h-392q-10 0 -19.5 -6.5t-17 -16t-13 -21t-8.5 -21.5q-3 -9 -1 -24q1 -1 6 -1h215q51 0 84.5 -22.5t49.5 -58.5l3 -5q20 -26 26 -62t-4 -75q-8 -31 -27.5 -64.5t-47 -61
t-61 -45.5t-70.5 -18h-419l-20 27h-6zM346 784h159l3 -12l17 -21v-4l30 37h159l-5 -5l21 -28l-113 -114h-186l-20 27h-4z" />
    <glyph glyph-name="FL0161h" unicode="&#x161;" horiz-adv-x="665" 
d="M494 771h-125l47 -94h176l93 94h-125l-47 -59zM84 107l-27 -107h409q35 0 66.5 17t57 43t44 58t26.5 61q9 36 4.5 68.5t-21.5 57t-45.5 39.5t-67.5 15h-215q-8 0 -15.5 6.5t-13 16.5t-7.5 22t1 23q3 12 10 25t16.5 24.5t21 18.5t23.5 7h382l27 107h-375q-39 0 -76 -14
t-67.5 -38t-53 -57.5t-32.5 -72.5q-8 -34 -4 -65.5t19.5 -56t43 -39t66.5 -14.5h209q29 0 40.5 -23.5t4.5 -51.5q-3 -12 -11.5 -24t-20 -22.5t-24.5 -17t-25 -6.5h-370zM41 -13l33 133h383q9 0 19.5 5t20 13.5t16.5 18.5t9 20q5 20 -1 33q-8 2 -11 2h-209q-38 0 -66 13.5
t-46 36.5l-6 7q-31 26 -41 68t1 90q10 42 34 77.5t57 62t72.5 41t81.5 14.5h388l-1 -6l20 -27l-32 -127h-392q-10 0 -19.5 -6.5t-17 -16t-13 -21t-8.5 -21.5q-3 -9 -1 -24q1 -1 6 -1h215q51 0 84.5 -22.5t49.5 -58.5l3 -5q20 -26 26 -62t-4 -75q-8 -31 -27.5 -64.5t-47 -61
t-61 -45.5t-70.5 -18h-419l-20 27h-6zM346 784h159l3 -12l17 -21v-4l30 37h159l-5 -5l21 -28l-113 -114h-186l-20 27h-4z" />
    <glyph glyph-name="FL0178h" unicode="&#x178;" horiz-adv-x="677" 
d="M774 609h-138l-62 -250h-241q-16 0 -30 20t-8 48l46 182h-134l-46 -182q-8 -34 -4 -65.5t19.5 -56t43 -39t66.5 -14.5h262l-19 -76q-3 -12 -9.5 -24t-16 -22t-21 -16.5t-23.5 -6.5h-370l-27 -107h409q34 0 66.5 17.5t58.5 44.5t45 58.5t26 59.5zM374 771l-23 -94h125
l23 94h-125zM667 677l23 94h-125l-23 -94h125zM626 622h164l-1 -6l20 -27l-110 -439q-7 -30 -26.5 -63t-48 -61.5t-63 -47t-70.5 -18.5h-419l-20 27h-6l33 133h383q19 0 34 18t20 38l9 36h-219q-38 0 -66 13.5t-46 36.5l-6 7q-31 26 -41 68t1 90l49 195h160l-1 -6l20 -27
l-48 -192q-3 -14 -2 -23q8 -2 10 -2h228zM706 784l-1 -6l20 -27l-28 -114h-145l-20 27h-6l29 120h151zM335 664l29 120h151l-1 -6l20 -27l-28 -114h-145l-20 27h-6z" />
    <glyph glyph-name="FL0192h" unicode="&#x192;" horiz-adv-x="764" 
d="M332 274q-2 -10 -4 -16t-10 -14q-14 -5 -21.5 -7t-10.5 -2q-17 0 -11 25l2 7q20 32 40 32q12 0 18 -12q-2 -6 -2 -8q0 -4 -1 -5zM588 307l5 -35h-35zM134 223l32 101l-20 -3l-37 -106zM252 301l8 25q-84 -10 -96 -59l-2 -7q-2 -6 0 -6q0 -47 32 -47q5 0 8.5 1.5t14.5 3.5
l4 17q-5 -1 -10.5 -1.5t-11.5 -0.5q-24 0 -18 20q6 24 26 43q22 15 33 15q7 0 7 -1l1.5 -0.5t3.5 -2.5zM359 290q0 34 -36 34h-14q-47 -25 -64 -93q4 -16 35 -16q5 0 8.5 0.5l10.5 1.5q33 0 60 73zM441 217l26 102l-16 5l-23 -70l-49 65l-26 -104l20 3l13 49q29 -50 55 -50z
M492 227l32 101l-23 -4l-38 -104zM588 225l13 -3l19 76q-3 33 -22 33q-16 0 -17 -4q-24 -24 -42.5 -49.5t-30.5 -52.5h25q21 24 33 24q16 0 22 -24zM706 221l26 103l-18 4l-22 -73l-46 69l-26 -104l20 2l13 50q25 -51 53 -51zM732 199l21 16l-16 7l-16 -11zM759 247l31 77
l-26 4l-24 -79zM542 344l-3 -7l16 -21q5 5 9.5 10t9.5 10q11 8 27 8q21 0 29 -27l1 -1l10 41l47 -72l18 59l42 -9l-2 -6l4 -5l6 19l51 -9l-2 -5l21 -27l-39 -96l-7 1l14 -19l-43 -33l-24 26h-1q-23 0 -44 28l-4 5l-7 -31l-40 -4h-2l-27 7l-17 23q-8 -2 -27 -24h-42l-2 2
l-44 -11l-4 5l-5 -4q-24 0 -49 33v1l-8 -32l-42 -6l-13 16q-14 -12 -30 -12q-2 0 -3 -0.5t-3 -0.5q-3 -1 -13 -1q-29 0 -39 13l-8 10l-6 -24q-16 -4 -20 -5.5t-13 -1.5q-20 0 -30 13l-14 19h-1l-5 -13l-48 -15l-22 27l-5 -1l48 136l47 6l-3 -6l12 -15q16 8 37 13.5t48 9.5
l-2 -6l9 -13q5 4 11 7.5t12 7.5h18q28 0 40 -17l7 30l51 -68l19 60l39 -13l-1 -5l4 -6l7 18zM235 243q1 4 2 7t2 5q-1 0 -2 -0.5l-1 -0.5l-2 -2q-8 -8 -10 -11q1 1 4 1q4 0 7 1zM346 253v-1l1 -1q-1 1 -1 2z" />
    <glyph glyph-name="FL02C6h" unicode="&#x2c6;" horiz-adv-x="376" 
d="M350 516h125l-47 94h-176l-93 -94h125l47 59zM159 476l-21 27h-9l120 120h188l8 -16l13 -17l57 -114h-151l-21 27h-5l-2 6l-26 -33h-151z" />
    <glyph glyph-name="FL02DCh" unicode="&#x2dc;" horiz-adv-x="439" 
d="M370 609h-118l-94 -94h125l41 50l25 -50h118l94 94h-125l-42 -51zM249 622h130l6 -14l15 -19l1 -4l30 37h159l-5 -5l21 -28l-114 -114h-128l-20 27h-4l-3 7l-28 -34h-151l-20 27h-9z" />
    <glyph glyph-name="FL2013h" unicode="&#x2013;" horiz-adv-x="406" 
d="M140 392l-36 -142h6l21 -27h316l34 136l-21 27l2 6h-322zM121 263l28 116h296l-28 -116h-296z" />
    <glyph glyph-name="FL2014h" unicode="&#x2014;" horiz-adv-x="462" 
d="M501 379h-352l-28 -116h352zM140 392h378l-2 -6l21 -27l-34 -136h-372l-21 27h-6z" />
    <glyph glyph-name="FL2018h" unicode="&#x2018;" horiz-adv-x="246" 
d="M151 385h136l56 224l-158 -89zM161 345l-20 27h-6l38 155l189 106l-2 -9l20 -27l-63 -252h-156z" />
    <glyph glyph-name="FL2019h" unicode="&#x2019;" horiz-adv-x="246" 
d="M343 609h-136l-56 -224l158 89zM197 622h162l-1 -6l20 -27l-38 -150l-181 -102l-21 27l-6 -3z" />
    <glyph glyph-name="FL201Ah" unicode="&#x201a;" horiz-adv-x="246" 
d="M218 107h-136l-56 -224l158 89zM72 120h162l-2 -6l21 -27l-38 -150l-181 -102l-21 28l-6 -4z" />
    <glyph glyph-name="FL201Ch" unicode="&#x201c;" horiz-adv-x="432" 
d="M337 385h136l56 224l-158 -89zM151 385h136l56 224l-158 -89zM161 345l-20 27h-6l38 155l189 106l-2 -9l20 -27l-17 -68l185 104l-2 -9l20 -27l-63 -252h-156l-20 27h-3l-7 -27h-156z" />
    <glyph glyph-name="FL201Dh" unicode="&#x201d;" horiz-adv-x="432" 
d="M343 609h-136l-56 -224l158 89zM529 609h-136l-56 -224l158 89zM383 622h162l-1 -6l20 -27l-38 -150l-181 -102l-21 27l-6 -3l19 76l-178 -100l-21 27l-6 -3l65 261h162l-1 -6l18 -24z" />
    <glyph glyph-name="FL201Eh" unicode="&#x201e;" horiz-adv-x="432" 
d="M218 107h-136l-56 -224l158 89zM404 107h-136l-56 -224l158 89zM258 120h162l-2 -6l21 -27l-38 -150l-181 -102l-21 28l-6 -4l19 76l-178 -100l-21 28l-6 -4l65 261h162l-2 -6l18 -24z" />
    <glyph glyph-name="FL2020h" unicode="&#x2020;" horiz-adv-x="457" 
d="M488 346l29 116h-105l37 147h-136l-37 -147h-106l-29 -116h106l-86 -346h136l86 346h105zM533 475l-1 -6l20 -27l-34 -136h-105l-86 -346h-156l-20 27h-6l79 319h-73l-20 27h-6l35 142h106l37 147h162l-1 -6l20 -27l-29 -114h78z" />
    <glyph glyph-name="FL2021h" unicode="&#x2021;" horiz-adv-x="457" 
d="M488 346l29 116h-105l37 147h-136l-37 -147h-106l-29 -116h106l-16 -66h-106l-29 -116h106l-41 -164h136l41 164h105l29 116h-105l16 66h105zM533 475l-1 -6l20 -27l-34 -136h-105l-3 -13h78l-1 -6l20 -27l-34 -136h-105l-41 -164h-156l-20 27h-6l34 137h-73l-20 27h-6
l35 142h106l3 13h-73l-20 27h-6l35 142h106l37 147h162l-1 -6l20 -27l-29 -114h78z" />
    <glyph glyph-name="FL2022h" unicode="&#x2022;" horiz-adv-x="497" 
d="M115 301q-11 -42 -3.5 -79.5t28.5 -65t54.5 -44t75.5 -16.5q43 0 85.5 15.5t78 42.5t61.5 64.5t37 82.5q10 42 4 80.5t-26.5 67.5t-54.5 46t-79 17q-43 0 -85.5 -17t-78 -46.5t-61.5 -67.5t-36 -80zM102 301q11 45 38.5 85.5t65 71t82.5 49t91 18.5q57 0 96 -24t59 -66
l5 -6q23 -31 30 -72t-4 -86q-12 -47 -39.5 -86.5t-64.5 -68t-81.5 -44.5t-89.5 -16t-80 17t-57 47l-5 5q-33 30 -46.5 76t0.5 100z" />
    <glyph glyph-name="FL2026h" unicode="&#x2026;" horiz-adv-x="618" 
d="M72 120l-33 -133h6l20 -27h156l7 27h3l20 -27h156l7 27h3l20 -27h156l32 127l-21 27l2 6h-162l-8 -30l-18 24l2 6h-162l-8 -30l-18 24l2 6h-162zM55 0l27 107h136l-27 -107h-136zM241 0l27 107h136l-27 -107h-136zM427 0l27 107h136l-27 -107h-136z" />
    <glyph glyph-name="FL2030h" unicode="&#x2030;" horiz-adv-x="988" 
d="M756 103q5 21 24 37t41 16q23 0 33.5 -16t5.5 -37q-6 -23 -24.5 -37t-40.5 -14q-21 0 -32.5 15t-6.5 36zM431 102q5 21 24.5 37t41.5 16q23 0 33 -16t5 -37q-5 -23 -23.5 -37t-40.5 -14q-21 0 -33 15t-7 36zM279 503q5 21 24.5 37t41.5 16q23 0 33 -16t5 -37
q-5 -23 -23.5 -37t-40.5 -14q-21 0 -33 15t-7 36zM319 103q-9 -35 -3.5 -65t22.5 -52t44 -34.5t62 -12.5q31 0 60 10t54 27t45.5 41t33.5 52q-1 -28 8 -51.5t26.5 -41t42 -27t54.5 -9.5q35 0 68 12.5t61 34.5t48 52t29 65t4 65.5t-21.5 53t-43.5 35.5t-62 13
q-30 0 -59.5 -10t-56 -28t-47.5 -42.5t-34 -52.5q2 57 -32.5 94.5t-95.5 37.5q-54 0 -100 -28l359 367h-160l-142 -145q5 10 8.5 19.5t6.5 20.5q9 35 3.5 65.5t-22 53t-44 35.5t-61.5 13q-35 0 -68 -13t-61 -36t-48.5 -53.5t-29.5 -64.5q-9 -35 -3.5 -65t22.5 -52t44 -34.5
t62 -12.5q25 0 48 6.5t46 17.5l-356 -364h161l145 149q-12 -23 -17 -46zM662 200q2 -4 4 -7t3 -7q35 45 84 71.5t101 26.5q48 0 79.5 -20.5t47.5 -54.5l6 -8q18 -24 23.5 -56.5t-4.5 -70.5q-9 -37 -30.5 -69t-50.5 -55t-64.5 -36.5t-72.5 -13.5q-38 0 -66.5 13.5t-46.5 37.5
l-6 8q-9 7 -15.5 15t-12.5 18q-32 -42 -79 -67.5t-98 -25.5q-38 0 -66.5 13.5t-46.5 37.5l-6 7q-19 16 -31 38t-14 51l-84 -86h-186l-20 27h-9l307 313q-37 0 -64.5 13.5t-44.5 37.5l-6 7q-29 23 -40 60.5t1 85.5q9 37 31 70t52.5 57.5t66.5 38.5t74 14q46 0 77.5 -20
t47.5 -54l8 -9q19 -28 24 -67l87 88h192l-5 -5l21 -28l-299 -306q43 -1 74.5 -20t47.5 -52zM464 72l-2 -6q6 -2 12 -2q16 0 30 10.5t18 27.5q2 10 2 13h-7q-17 0 -32.5 -13t-20.5 -30zM788 73l-1 -6q4 -2 11 -2q16 0 30 10.5t19 27.5q1 3 1 12q-2 0 -3.5 0.5t-3.5 0.5
q-17 0 -32.5 -13t-20.5 -30zM312 473l-2 -6q6 -2 12 -2q16 0 30 10.5t18 27.5q1 3 1 12q-2 0 -3 0.5t-3 0.5q-17 0 -32.5 -13t-20.5 -30z" />
    <glyph glyph-name="FL2039h" unicode="&#x2039;" horiz-adv-x="293" 
d="M274 321l85 68l-62 82l-187 -150l113 -152l103 82zM377 389l-3 -2l22 -28l-83 -66l31 -42l-3 -2l21 -28l-120 -96l-21 28l-2 -2l-127 170l210 168z" />
    <glyph glyph-name="FL203Ah" unicode="&#x203a;" horiz-adv-x="293" 
d="M74 251l75 -100l2 2l21 -28l207 166l-21 28l2 2l-126 168l-125 -100l51 -68zM178 321l-51 68l102 82l113 -150l-189 -152l-61 82z" />
    <glyph glyph-name="mu" unicode="&#x2122;" horiz-adv-x="1018" 
d="M467 274q-2 -10 -4 -16t-10 -14q-14 -5 -21.5 -7t-10.5 -2q-17 0 -11 25l2 7q20 32 40 32q12 0 18 -12q-2 -6 -2 -8q0 -4 -1 -5zM723 307l5 -35h-35zM269 223l32 101l-20 -3l-37 -106zM387 301l8 25q-84 -10 -96 -59l-2 -7q-2 -6 0 -6q0 -47 32 -47q5 0 8.5 1.5t14.5 3.5
l4 17q-5 -1 -10.5 -1.5t-11.5 -0.5q-24 0 -18 20q6 24 26 43q22 15 33 15q7 0 7 -1l1.5 -0.5t3.5 -2.5zM494 290q0 34 -36 34h-14q-47 -25 -64 -93q4 -16 35 -16q5 0 8.5 0.5l10.5 1.5q33 0 60 73zM576 217l26 102l-16 5l-23 -70l-49 65l-26 -104l20 3l13 49q29 -50 55 -50z
M627 227l32 101l-23 -4l-38 -104zM723 225l13 -3l19 76q-3 33 -22 33q-16 0 -17 -4q-24 -24 -42.5 -49.5t-30.5 -52.5h25q21 24 33 24q16 0 22 -24zM841 221l26 103l-18 4l-22 -73l-46 69l-26 -104l20 2l13 50q25 -51 53 -51zM867 199l21 16l-16 7l-16 -11zM894 247l31 77
l-26 4l-24 -79zM1035 292l2 -11l-82 -6q40 -54 36 -70l-1 -0.5t-2 -5.5l-81 12l-27 -83l-75 25l-82 -71l-49 36l-142 -59l12 23l-13 22l-166 -26l29 40l-173 6l59 32l-146 33l78 29l-94 53l82 4l-31 52l2 26l79 -8l33 83q31 -24 56 -24q10 0 16 3l85 68l42 -35l128 52l12 -4
l-4 -36l170 23l-22 -41h170l-60 -35l139 -29l5 -12h-8l-67 -17zM1058 289l2 1q4 16 -72 45q48 6 55 33l1 7l-120 32q25 1 34 33l-11 12h-149l14 36l-44 4l-134 -23l-1 6l7 17l-17 20l-129 -53l-49 33q-20 -8 -40 -23t-54 -45l-64 21h-3q-31 0 -52 -83l-72 8l-11 -35l25 -43
l-74 -11l1 -27l63 -31l-48 -29q-5 -23 14 -23l98 -18l-24 -20l-5 -21l161 -13l-16 -29l17 -11l164 23l-8 -34l17 -7l136 58l31 -34l32 5l77 63l8 -2q15 -10 26 -15t27 -5q20 0 26 13l26 70l60 -13q19 7 24 25l1 4v8l-24 45h56zM1075 338q-3 -15 -17 -26q11 -10 13 -18
l16 -21q7 -8 4 -19l-5 -3l-20 -28h-42l17 -31v-10l-1 -6q-6 -23 -37 -35l-52 11l-22 -61q-11 -20 -38 -20q-18 0 -30 5t-28 16l-76 -62l-39 -6l-31 33l-132 -56l-27 11l-19 25l-130 -18l-25 16l-16 21l-11 7l-118 10l-20 26l-6 1l6 23l-41 8q-13 0 -17 7l-15 21
q-20 6 -11 41l18 11l-10 6l-18 24l-8 4l-1 46l65 10l-16 30l17 53l71 -8q24 82 64 82h7l56 -19q32 27 53.5 42t45.5 26l50 -34l130 55l26 -31l-2 -4l5 -7l111 19l60 -5l-3 -6l21 -27l-1 -2h110l16 -19l-1 -4l20 -27q-1 -2 -1 -6q0 -1 -2 -5l72 -19l-1 -5l20 -27zM677 344
l-3 -7l16 -21q5 5 9.5 10t9.5 10q11 8 27 8q21 0 29 -27l1 -1l10 41l47 -72l18 59l42 -9l-2 -6l4 -5l6 19l30 -6l-13 8l25 6l-60 13l-20 25l-10 3l3 2h-74l-20 27h-7l2 5l-119 -15l-21 27h-5v1l-102 -40l-39 33l-79 -63q-15 -5 -23 -5q-23 0 -50 18l-18 -47l28 4l-3 -6
l12 -15q16 8 37 13.5t48 9.5l-2 -6l9 -13q5 4 11 7.5t12 7.5h18q28 0 40 -17l7 30l51 -68l19 60l39 -13l-1 -5l4 -6l7 18zM299 186l-37 -12l54 -12l-7 -4l19 -25l89 -3l-4 -6l17 -23l109 17l21 -33l-1 -1l1 -1l119 50l46 -35l80 71l67 -23l5 16l-15 19h-1q-23 0 -44 28l-4 5
l-7 -31l-40 -4h-2l-27 7l-17 23q-8 -2 -27 -24h-42l-2 2l-44 -11l-4 5l-5 -4q-24 0 -49 33v1l-8 -32l-42 -6l-13 16q-14 -12 -30 -12q-2 0 -3 -0.5t-3 -0.5q-3 -1 -13 -1q-29 0 -39 13l-8 10l-6 -24q-16 -4 -20 -5.5t-13 -1.5q-20 0 -30 13l-14 19h-1zM201 301l38 -62l23 66
l-59 7zM973 214q-4 8 -11 20t-18 28l-16 -42zM961 302l-6 -15l29 2zM211 234l22 -11l4 13zM370 243q2 8 3 11q-1 -1 -2 -1t-2 -1q-8 -8 -10 -11q1 1 4 1q4 0 7 1zM243 181l-4 -2l6 -1zM481 253v-1l1 -1q-1 1 -1 2z" />
    </font>
</defs>
</svg>
