<?xml version="1.0" standalone="no"?>
<!DOCTYPE svg PUBLIC "-//W3C//DTD SVG 1.1//EN" "http://www.w3.org/Graphics/SVG/1.1/DTD/svg11.dtd" >
<svg xmlns="http://www.w3.org/2000/svg" xmlns:xlink="http://www.w3.org/1999/xlink" version="1.1">
<metadata></metadata>
<defs>
<font id="quantumregular" horiz-adv-x="1100" >
<font-face units-per-em="2048" ascent="1638" descent="-410" />
<missing-glyph horiz-adv-x="800" />
<glyph unicode="&#xd;" horiz-adv-x="508" />
<glyph horiz-adv-x="0" />
<glyph horiz-adv-x="0" />
<glyph unicode=" "  horiz-adv-x="800" />
<glyph unicode="&#x09;" horiz-adv-x="800" />
<glyph unicode="&#xa0;" horiz-adv-x="800" />
<glyph unicode="!" horiz-adv-x="300" d="M50 0v200h200v-200h-200zM50 400v1000h200v-1000h-200z" />
<glyph unicode="&#x22;" horiz-adv-x="550" d="M50 1000v50q100 0 100 100v50h-100v200h200v-250q0 -150 -100 -150h-100zM300 1000v50q100 0 100 100v50h-100v200h200v-250q0 -150 -100 -150h-100z" />
<glyph unicode="#" d="M50 400v200h200v250h-200v200h200v250h200v-250h200v250h200v-250h200v-200h-200v-250h200v-200h-200v-250h-200v250h-200v-250h-200v250h-200zM450 600h200v250h-200v-250z" />
<glyph unicode="$" d="M50 400h200q0 -83 88 -141q50 -34 112 -48v398q-123 24 -218 108q-132 117 -132 283t132 283q95 84 218 108v109h200v-109q123 -24 218 -108q132 -117 132 -283h-200q0 83 -73 142q-35 28 -77 42v-391q144 -22 254 -110q146 -117 146 -283t-146 -283q-110 -88 -254 -110 v-107h-200v107q-144 22 -253 110q-147 117 -147 283zM300 1000q0 -83 73 -141q35 -29 77 -43v368q-42 -14 -77 -42q-73 -59 -73 -142zM650 211q62 14 112 48q88 58 88 141t-88 142q-50 33 -112 47v-378z" />
<glyph unicode="%" horiz-adv-x="1200" d="M50 0l441 706q-32 -6 -66 -6q-135 0 -230 95t-95 230t95 230t230 95t230 -95q65 -65 86 -150l184 295h225l-441 -706q32 6 66 6q135 0 230 -95t95 -230t-95 -230t-230 -95t-230 95q-65 65 -86 150l-184 -295h-225zM300 1025q0 -52 36.5 -88.5t88.5 -36.5t88.5 36.5 t36.5 88.5t-36.5 88.5t-88.5 36.5t-88.5 -36.5t-36.5 -88.5zM650 375q0 -52 36.5 -88.5t88.5 -36.5t88.5 36.5t36.5 88.5t-36.5 88.5t-88.5 36.5t-88.5 -36.5t-36.5 -88.5z" />
<glyph unicode="&#x26;" horiz-adv-x="1200" d="M50 400q0 166 146 283q20 16 41 29q-2 3 -5 5q-132 117 -132 283t132 283t318 117t318 -117q45 -40 75 -86l-193 -77q-10 11 -23 22q-73 58 -177 58t-177 -58.5t-73 -141.5t73 -141.5t177 -58.5h300v200h200v-200h100v-200h-100v-200q0 -83 29.5 -141.5t70.5 -58.5v-200 q-124 0 -212 117q-7 9 -13 18q-10 -9 -21 -18q-147 -117 -354 -117t-353.5 117t-146.5 283zM250 400q0 -83 88 -141.5t212 -58.5t212 58.5t88 141.5v200h-300q-124 0 -212 -58.5t-88 -141.5z" />
<glyph unicode="'" horiz-adv-x="300" d="M50 1000v50q100 0 100 100v50h-100v200h200v-250q0 -150 -100 -150h-100z" />
<glyph unicode="(" horiz-adv-x="700" d="M50 700q0 331 175.5 565.5t424.5 234.5v-200q-166 0 -283 -175.5t-117 -424.5t117 -424.5t283 -175.5v-200q-249 0 -424.5 234.5t-175.5 565.5z" />
<glyph unicode=")" horiz-adv-x="700" d="M50 -100v200q166 0 283 175.5t117 424.5t-117 424.5t-283 175.5v200q249 0 424.5 -234.5t175.5 -565.5t-175.5 -565.5t-424.5 -234.5z" />
<glyph unicode="*" horiz-adv-x="1000" d="M42 1144l62 190l297 -96v312h200v-312l297 96l62 -190l-297 -96l183 -253l-161 -118l-184 253l-184 -253l-161 118l183 253z" />
<glyph unicode="+" horiz-adv-x="950" d="M50 600v200h325v325h200v-325h325v-200h-325v-325h-200v325h-325z" />
<glyph unicode="," horiz-adv-x="300" d="M50 0v200h200v-250q0 -150 -100 -150h-100v50q100 0 100 100v50h-100z" />
<glyph unicode="-" horiz-adv-x="950" d="M50 600v200h850v-200h-850z" />
<glyph unicode="." horiz-adv-x="300" d="M50 0v200h200v-200h-200z" />
<glyph unicode="/" horiz-adv-x="1200" d="M50 0l875 1400h225l-875 -1400h-225z" />
<glyph unicode="0" horiz-adv-x="1350" d="M50 700q0 290 183 495t442 205t442 -205t183 -495t-183 -495t-442 -205t-442 205t-183 495zM250 700q0 -207 124.5 -353.5t300.5 -146.5t300.5 146.5t124.5 353.5t-124.5 353.5t-300.5 146.5t-300.5 -146.5t-124.5 -353.5z" />
<glyph unicode="1" horiz-adv-x="500" d="M50 1050v200q150 0 150 150h200v-1400h-200v1050h-150z" />
<glyph unicode="2" d="M50 0v175q0 197 146.5 336t353.5 139q124 0 212 80.5t88 194.5t-88 194.5t-212 80.5t-212 -80q-78 -72 -87 -170h-200q8 181 146 311q146 139 353 139t353.5 -139t146.5 -336t-146.5 -336t-353.5 -139q-124 0 -212 -80q-78 -72 -87 -170h799v-200h-1000z" />
<glyph unicode="3" d="M50 400h200q0 -83 88 -141.5t212 -58.5t212 58.5t88 141.5t-88 141.5t-212 58.5h-100v200h100q104 0 177 58.5t73 141.5t-73 141.5t-177 58.5t-177 -58.5t-73 -141.5h-200q0 166 132 283t318 117t318 -117t132 -283t-132 -283q-3 -2 -5 -5q21 -13 41 -29 q146 -117 146 -283t-146.5 -283t-353.5 -117t-353.5 117t-146.5 283z" />
<glyph unicode="4" d="M50 250l675 1150h225v-950h100v-200h-100v-250h-200v250h-700zM392 450h358v609z" />
<glyph unicode="5" d="M51 450h200q9 -98 87 -170q88 -80 212 -80t212 80.5t88 194.5t-88 194.5t-212 80.5h-450v650h900v-200h-699l-1 -249l250 -1q207 0 353.5 -139t146.5 -336t-146.5 -336t-353.5 -139t-353 139q-138 130 -146 311z" />
<glyph unicode="6" d="M50 474q0 164 102 288l448 637h225l-318 -452q21 2 43 2q207 0 353.5 -139t146.5 -336t-146 -336q-138 -130 -329 -138v200q108 8 187 80q88 80 88 194t-88 194.5t-212 80.5t-212 -80.5t-88 -194.5t88 -194q79 -72 187 -80v-200q-191 8 -328 138q-147 139 -147 336z" />
<glyph unicode="7" d="M50 1200v200h1000l-600 -1400h-225l514 1200h-689z" />
<glyph unicode="8" d="M50 400q0 166 147 283q19 16 40 29q-2 3 -5 5q-132 117 -132 283t132 283q123 109 293 116v-200q-88 -6 -152 -57q-73 -59 -73 -142t73 -141.5t177 -58.5t177 58.5t73 141.5t-73 142q-64 51 -152 57v200q170 -7 293 -116q132 -117 132 -283t-132 -283q-3 -2 -5 -5 q21 -13 41 -29q146 -117 146 -283t-146.5 -283t-353.5 -117t-353.5 117t-146.5 283zM250 400q0 -83 88 -141.5t212 -58.5t212 58.5t88 141.5t-88 141.5t-212 58.5t-212 -58.5t-88 -141.5z" />
<glyph unicode="9" d="M50 925q0 197 147 336q137 131 328 138v-200q-108 -7 -187 -79q-88 -81 -88 -195t88 -194.5t212 -80.5t212 80.5t88 194.5t-88 195q-79 72 -187 79v200q191 -7 329 -138q146 -139 146 -336q0 -164 -102 -288l-448 -637h-225l318 452q-21 -2 -43 -2q-207 0 -353.5 139 t-146.5 336z" />
<glyph unicode=":" horiz-adv-x="300" d="M50 0v200h200v-200h-200zM50 600v200h200v-200h-200z" />
<glyph unicode=";" horiz-adv-x="300" d="M50 0v200h200v-250q0 -150 -100 -150h-100v50q100 0 100 100v50h-100zM50 600v200h200v-200h-200z" />
<glyph unicode="&#x3c;" horiz-adv-x="950" d="M50 700l625 550h225l-625 -550l625 -550h-225z" />
<glyph unicode="=" horiz-adv-x="950" d="M50 350v200h850v-200h-850zM50 850v200h850v-200h-850z" />
<glyph unicode="&#x3e;" horiz-adv-x="950" d="M50 150l625 550l-625 550h225l625 -550l-625 -550h-225z" />
<glyph unicode="?" d="M50 1000q0 166 146.5 283t353.5 117t353.5 -117t146.5 -283t-146.5 -283t-353.5 -117q-41 0 -70.5 -29.5t-29.5 -70.5v-100h-200v100q0 124 88 212t212 88t212 58.5t88 141.5t-88 141.5t-212 58.5t-212 -58.5t-88 -141.5h-200zM250 0v200h200v-200h-200z" />
<glyph unicode="@" horiz-adv-x="1150" d="M50 700q0 290 153.5 495t371.5 205t371.5 -205t153.5 -495q0 -166 -110 -283q-101 -107 -240 -116v201q57 8 99 57q51 58 51 141t-51 141.5t-124 58.5q-72 0 -123.5 -58.5t-51.5 -141.5t52 -141q42 -49 98 -57v-201q-139 9 -240 116q-110 117 -110 283t110 283t265 117 q25 0 48 -3q-85 103 -198 103q-135 0 -230 -146.5t-95 -353.5t95 -353.5t230 -146.5h425v-200h-425q-218 0 -371.5 205t-153.5 495z" />
<glyph unicode="A" horiz-adv-x="1150" d="M50 0l400 1400h250l400 -1400h-200l-100 350h-403l56 200h290l-168 588l-325 -1138h-200z" />
<glyph unicode="B" d="M50 0v1400h600q166 0 283 -117t117 -283t-117 -283q-9 -9 -18 -17q9 -8 18 -17q117 -117 117 -283t-117 -283q-97 -97 -229 -114l-4 -3h-400v200h350q83 0 141.5 58.5t58.5 141.5t-58.5 141.5t-141.5 58.5h-400v-600h-200zM250 800h400q83 0 141.5 58.5t58.5 141.5 t-58.5 141.5t-141.5 58.5h-400v-400z" />
<glyph unicode="C" horiz-adv-x="1200" d="M50 700q0 290 183 495t442 205t442 -205q19 -21 36 -43l-183 -92q-123 140 -295 140q-176 0 -300.5 -146.5t-124.5 -353.5t124.5 -353.5t300.5 -146.5q171 0 294 138l171 -106q-11 -14 -23 -27q-183 -205 -442 -205t-442 205t-183 495z" />
<glyph unicode="D" horiz-adv-x="1200" d="M50 0v1400h475q259 0 442 -205t183 -495t-183 -495t-442 -205h-225v200h225q176 0 300.5 146.5t124.5 353.5t-124.5 353.5t-300.5 146.5h-275v-1200h-200z" />
<glyph unicode="E" d="M50 0v1400h1000v-200h-800l1 -400h799v-200h-799v-400h799v-200h-1000z" />
<glyph unicode="F" d="M50 0v1400h1000v-200h-800l1 -400h799v-200h-799l-1 -600h-200z" />
<glyph unicode="G" horiz-adv-x="1350" d="M50 700q0 290 183 495t442 205t442 -205q19 -21 36 -43l-183 -92q-123 140 -295 140q-176 0 -300.5 -146.5t-124.5 -353.5t124.5 -353.5t300.5 -146.5t301 147q93 109 116 253h-442v200h650v-100q0 -290 -183 -495t-442 -205t-442 205t-183 495z" />
<glyph unicode="H" horiz-adv-x="1200" d="M50 0v1400h200v-1400h-200zM300 600v200h650v600h200v-1400h-200v600h-650z" />
<glyph unicode="I" horiz-adv-x="400" d="M100 0v1400h200v-1400h-200z" />
<glyph unicode="J" horiz-adv-x="800" d="M50 350h200q0 -62 44 -106t106 -44t106 44t44 106v1050h200v-1050q0 -145 -102.5 -247.5t-247.5 -102.5t-247.5 102.5t-102.5 247.5z" />
<glyph unicode="K" horiz-adv-x="1200" d="M50 0v1400h200v-675l675 675h225l-600 -600l600 -800h-225l-504 671l-171 -171v-500h-200z" />
<glyph unicode="L" horiz-adv-x="1050" d="M50 0v1400h200l1 -1200h749v-200h-950z" />
<glyph unicode="M" horiz-adv-x="1400" d="M50 0v1400h200l451 -1200l449 1200h200v-1400h-200v866l-324 -866h-250l-326 868v-868h-200z" />
<glyph unicode="N" horiz-adv-x="1200" d="M50 0v1400h200l70 -105l-70 -245v-1050h-200zM281 1003l72 242l597 -895v1050h200v-1400h-200z" />
<glyph unicode="O" horiz-adv-x="1350" d="M50 700q0 290 183 495q174 195 417 205v-201q-160 -10 -275 -145q-125 -147 -125 -354t124.5 -353.5t300.5 -146.5t300.5 146.5t124.5 353.5t-124 354q-116 135 -276 145v201q243 -10 417 -205q183 -205 183 -495t-183 -495t-442 -205t-442 205t-183 495z" />
<glyph unicode="P" d="M50 0v1400h600q166 0 283 -117t117 -283t-117 -283q-97 -97 -229 -114l-4 -3h-400v200h350q83 0 141.5 58.5t58.5 141.5t-58.5 141.5t-141.5 58.5h-400v-1200h-200z" />
<glyph unicode="Q" horiz-adv-x="1350" d="M50 700q0 290 183 495t442 205t442 -205t183 -495q0 -260 -148 -452l-143 143q91 132 91 309q0 207 -124.5 353.5t-300.5 146.5t-300.5 -146.5t-124.5 -353.5t124.5 -353.5t300.5 -146.5t301 147q6 7 12 15l142 -142l220 -220h-225l-111 111q-149 -111 -339 -111 q-259 0 -442 205t-183 495z" />
<glyph unicode="R" d="M50 0v1400h200v-600h400q83 0 141.5 58.5t58.5 141.5t-58.5 141.5t-141.5 58.5h-350v200h350q166 0 283 -117t117 -283t-117 -283q-9 -9 -18 -17q9 -8 18 -17q117 -117 117 -283v-400h-200v400q0 83 -58.5 141.5t-141.5 58.5h-400v-600h-200z" />
<glyph unicode="S" d="M50 400h200q0 -83 88 -141.5t212 -58.5t212 58.5t88 141.5t-88 141.5t-212 58.5q-186 0 -318 117t-132 283t132 283t318 117t318 -117t132 -283h-200q0 83 -73 141.5t-177 58.5t-177 -58.5t-73 -141.5t73 -141.5t177 -58.5q207 0 353.5 -117t146.5 -283t-146.5 -283 t-353.5 -117t-353.5 117t-146.5 283z" />
<glyph unicode="T" horiz-adv-x="1000" d="M50 1200v200h900v-200h-350v-1200h-200v1200h-350z" />
<glyph unicode="U" d="M50 500v900h200v-900q0 -124 88 -212t212 -88t212 88t88 212v900h200v-900q0 -207 -146.5 -353.5t-353.5 -146.5t-353.5 146.5t-146.5 353.5z" />
<glyph unicode="V" horiz-adv-x="1150" d="M50 1400h200l325 -1137l325 1137h200l-400 -1400h-250z" />
<glyph unicode="W" horiz-adv-x="1850" d="M50 1400h200l275 -1100l275 1100h250l275 -1100l275 1100h200l-350 -1400h-250l-275 1100l-275 -1100h-250z" />
<glyph unicode="X" horiz-adv-x="1200" d="M50 0l438 700l-438 700h225l875 -1400h-225l-325 520l-325 -520h-225zM625 920l300 480h225l-412 -660z" />
<glyph unicode="Y" d="M50 1400h225l275 -495l275 495h225l-399 -723v-2h-1v-675h-200v675z" />
<glyph unicode="Z" d="M50 0v200l775 1000h-775v200h1000v-200l-775 -1000h775v-200h-1000z" />
<glyph unicode="[" horiz-adv-x="700" d="M50 -100v1600h600v-200h-400l1 -1200h399v-200h-600z" />
<glyph unicode="\" horiz-adv-x="1200" d="M50 1400h225l875 -1400h-225z" />
<glyph unicode="]" horiz-adv-x="700" d="M50 -100v200h399l1 1200h-400v200h600v-1600h-600z" />
<glyph unicode="^" horiz-adv-x="900" d="M50 1500l275 400h250l275 -400h-225l-175 255l-175 -255h-225z" />
<glyph unicode="_" d="M50 -200h1000v-200h-1000v200z" />
<glyph unicode="`" horiz-adv-x="500" d="M50 1800h250l150 -300h-200z" />
<glyph unicode="a" horiz-adv-x="940" d="M50 0l320 1120h200l320 -1120h-160l-80 280h-322l44 160h232l-134 470l-260 -910h-160z" />
<glyph unicode="b" horiz-adv-x="900" d="M50 0v1120h480q133 0 226.5 -93.5t93.5 -226.5t-94 -226l-14 -14l14 -14q94 -93 94 -226t-94 -226q-77 -78 -183 -92l-3 -2h-320v160h280q66 0 113 47t47 113t-47 113t-113 47h-320v-480h-160zM210 640h320q66 0 113 47t47 113t-47 113t-113 47h-320v-320z" />
<glyph unicode="c" horiz-adv-x="979" d="M50 560q0 232 146.5 396t353.5 164t354 -164q15 -17 28 -35l-146 -73q-98 112 -236 112q-141 0 -240.5 -117t-99.5 -283t99.5 -283t240.5 -117q137 0 235 111l137 -86q-9 -11 -18 -21q-147 -164 -354 -164t-353.5 164t-146.5 396z" />
<glyph unicode="d" horiz-adv-x="980" d="M50 0v1120h380q207 0 353.5 -164t146.5 -396t-146.5 -396t-353.5 -164h-180v160h180q141 0 240.5 117t99.5 283t-99.5 283t-240.5 117h-220v-960h-160z" />
<glyph unicode="e" horiz-adv-x="900" d="M50 0v1120h800v-160h-640v-320h640v-160h-639v-320h639v-160h-800z" />
<glyph unicode="f" horiz-adv-x="900" d="M50 0v1120h800v-160h-640v-320h640v-160h-639l-1 -480h-160z" />
<glyph unicode="g" d="M50 560q0 232 146.5 396t353.5 164t354 -164q15 -17 28 -34l-146 -74q-98 112 -236 112q-141 0 -240.5 -117t-99.5 -283t99.5 -283t240.5 -117t240 117q75 88 94 203h-354v160h520v-80q0 -232 -146.5 -396t-353.5 -164t-353.5 164t-146.5 396z" />
<glyph unicode="h" horiz-adv-x="980" d="M50 0v1120h160v-1120h-160zM250 480v160h520v480h160v-1120h-160v480h-520z" />
<glyph unicode="i" horiz-adv-x="360" d="M100 0v1120h160v-1120h-160z" />
<glyph unicode="j" horiz-adv-x="660" d="M50 280h160q0 -50 35 -85t85 -35t85 35t35 85v840h160v-840q0 -116 -82 -198t-198 -82t-198 82t-82 198z" />
<glyph unicode="k" horiz-adv-x="980" d="M50 0v1120h160v-540l540 540h180l-480 -480l480 -640h-180l-403 537l-137 -137v-400h-160z" />
<glyph unicode="l" horiz-adv-x="860" d="M50 0v1120h160l1 -960h599v-160h-760z" />
<glyph unicode="m" horiz-adv-x="1140" d="M50 0v1120h160l361 -960l359 960h160v-1120h-160v693l-259 -693h-200l-261 694v-694h-160z" />
<glyph unicode="n" horiz-adv-x="980" d="M50 0v1120h160l56 -84l-56 -196v-840h-160zM235 803l58 193l477 -716v840h160v-1120h-160z" />
<glyph unicode="o" d="M50 560q0 232 146 396q140 156 334 164v-161q-128 -7 -220 -116q-100 -117 -100 -283t99.5 -283t240.5 -117t240.5 117t99.5 283t-100 283q-92 109 -220 116v161q194 -8 334 -164q146 -164 146 -396t-146.5 -396t-353.5 -164t-353.5 164t-146.5 396z" />
<glyph unicode="p" horiz-adv-x="900" d="M50 0v1120h480q133 0 226.5 -93.5t93.5 -226.5t-94 -226q-77 -78 -183 -92l-3 -2h-320v160h280q66 0 113 47t47 113t-47 113t-113 47h-320v-960h-160z" />
<glyph unicode="q" horiz-adv-x="1090" d="M50 560q0 232 146.5 396t353.5 164t353.5 -164t146.5 -396q0 -208 -118 -362l-115 115q73 106 73 247q0 166 -99.5 283t-240.5 117t-240.5 -117t-99.5 -283t99.5 -283t240.5 -117t240 117q6 6 10 13l114 -114l176 -176h-180l-89 89q-119 -89 -271 -89q-207 0 -353.5 164 t-146.5 396z" />
<glyph unicode="r" horiz-adv-x="900" d="M50 0v1120h160v-480h320q66 0 113 47t47 113t-47 113t-113 47h-280v160h280q133 0 226.5 -93.5t93.5 -226.5t-94 -226q-7 -8 -14 -14q7 -6 14 -14q94 -93 94 -226v-320h-160v320q0 66 -47 113t-113 47h-320v-480h-160z" />
<glyph unicode="s" horiz-adv-x="900" d="M50 320h160q0 -66 70.5 -113t169.5 -47t169.5 47t70.5 113t-70.5 113t-169.5 47q-149 0 -254.5 93.5t-105.5 226.5t105.5 226.5t254.5 93.5t254.5 -93.5t105.5 -226.5h-160q0 66 -58.5 113t-141.5 47t-141.5 -47t-58.5 -113t58.5 -113t141.5 -47q166 0 283 -93.5 t117 -226.5t-117 -226.5t-283 -93.5t-283 93.5t-117 226.5z" />
<glyph unicode="t" horiz-adv-x="820" d="M50 960v160h720v-160h-280v-960h-160v960h-280z" />
<glyph unicode="u" horiz-adv-x="900" d="M50 400v720h160v-720q0 -99 70.5 -169.5t169.5 -70.5t169.5 70.5t70.5 169.5v720h160v-720q0 -166 -117 -283t-283 -117t-283 117t-117 283z" />
<glyph unicode="v" horiz-adv-x="940" d="M50 1120h160l260 -910l260 910h160l-320 -1120h-200z" />
<glyph unicode="w" horiz-adv-x="1500" d="M50 1120h160l220 -880l220 880h200l220 -880l220 880h160l-280 -1120h-200l-220 880l-220 -880h-200z" />
<glyph unicode="x" horiz-adv-x="980" d="M50 0l350 560l-350 560h180l700 -1120h-180l-260 416l-260 -416h-180zM510 736l240 384h180l-330 -528z" />
<glyph unicode="y" horiz-adv-x="900" d="M50 1120h180l220 -396l220 396h180l-319 -579v-1h-1v-540h-160v540z" />
<glyph unicode="z" horiz-adv-x="900" d="M50 0v160l620 800h-620v160h800v-160l-620 -800h620v-160h-800z" />
<glyph unicode="{" horiz-adv-x="600" d="M50 600v200q83 0 141.5 58.5t58.5 141.5v250q0 124 88 212t212 88v-200q-41 0 -70.5 -29.5t-29.5 -70.5v-250q0 -166 -117 -283q-9 -9 -18 -17q9 -8 18 -17q117 -117 117 -283v-250q0 -41 29.5 -70.5t70.5 -29.5v-200q-124 0 -212 88t-88 212v250q0 83 -58.5 141.5 t-141.5 58.5z" />
<glyph unicode="|" horiz-adv-x="400" d="M100 -100v1600h200v-1600h-200z" />
<glyph unicode="}" horiz-adv-x="600" d="M50 50q41 0 70.5 29.5t29.5 70.5v250q0 166 117 283q9 9 18 17q-9 8 -18 17q-117 117 -117 283v250q0 41 -29.5 70.5t-70.5 29.5v200q124 0 212 -88t88 -212v-250q0 -83 58.5 -141.5t141.5 -58.5v-200q-83 0 -141.5 -58.5t-58.5 -141.5v-250q0 -124 -88 -212t-212 -88 v200z" />
<glyph unicode="~" horiz-adv-x="1000" d="M50 1500v50q0 124 88 212t212 88q115 0 230 -120q29 -30 70 -30t70.5 29.5t29.5 70.5v50h200v-50q0 -124 -88 -212t-212 -88q-115 0 -229 121q-30 29 -71 29t-70.5 -29.5t-29.5 -70.5v-50h-200z" />
<glyph unicode="&#xa1;" horiz-adv-x="300" d="M50 0v1000h200v-1000h-200zM50 1200v200h200v-200h-200z" />
<glyph unicode="&#xa2;" horiz-adv-x="979" d="M50 560q0 232 146 396q110 123 254 154v90h160v-84q169 -20 294 -160q15 -17 28 -34l-146 -74q-76 87 -176 106v-788q99 19 175 104l137 -84q-9 -12 -18 -22q-125 -140 -294 -160v-84h-160v90q-144 31 -254 154q-146 164 -146 396zM210 560q0 -166 100 -283 q62 -73 140 -100v766q-78 -27 -140 -100q-100 -117 -100 -283z" />
<glyph unicode="&#xa3;" d="M50 0v200h150v400h-150v200h150l1 175h-1q0 176 124.5 300.5t300.5 124.5t301 -124q37 -38 64 -81l-181 -90q-11 15 -25 29q-66 66 -159 66t-159 -66t-66 -159v-175h200v-200h-200v-400h650v-200h-1000z" />
<glyph unicode="&#xa4;" horiz-adv-x="1200" d="M50 0l278 444q-6 4 -11 9q-117 102 -117 247t117 248q5 4 11 8l-278 444h225l225 -360q48 10 100 10t100 -10l225 360h225l-277 -444l10 -8q117 -103 117 -248t-117 -247q-5 -5 -10 -9l277 -444h-225l-225 360q-36 -8 -75 -9v200q67 6 117 43q58 44 58 106t-58.5 106 t-141.5 44t-141.5 -44t-58.5 -106t59 -106q49 -37 116 -43v-200q-39 1 -75 9l-225 -360h-225z" />
<glyph unicode="&#xa5;" d="M50 1400h225l275 -495l275 495h225l-386 -700h286v-200h-300v-100h300v-200h-300v-200h-200v200h-300v200h300v100h-300v200h286z" />
<glyph unicode="&#xa6;" horiz-adv-x="400" d="M100 -100v700h200v-700h-200zM100 800v700h200v-700h-200z" />
<glyph unicode="&#xa7;" d="M50 300h200q0 -83 88 -141.5t212 -58.5t212 58.5t88 141.5q0 68 -59 120q-104 -70 -241 -70q-166 0 -283 102.5t-117 247.5q0 86 41 158q-91 104 -91 242q0 166 132 283t318 117t318 -117t132 -283h-200q0 83 -73 141.5t-177 58.5t-177 -58.5t-73 -141.5q0 -58 35 -104 q95 54 215 54q166 0 283 -102.5t117 -247.5q0 -71 -28 -132q128 -112 128 -268q0 -166 -146.5 -283t-353.5 -117t-353.5 117t-146.5 283zM350 700q0 -62 58.5 -106t141.5 -44t141.5 44t58.5 106t-58.5 106t-141.5 44t-141.5 -44t-58.5 -106z" />
<glyph unicode="&#xa8;" horiz-adv-x="750" d="M50 1550v200h200v-200h-200zM500 1550v200h200v-200h-200z" />
<glyph unicode="&#xa9;" d="M50 1050q0 207 146.5 353.5t353.5 146.5t354 -146q137 -138 145 -329h-50q-8 170 -131 293q-132 132 -318 132t-318 -132t-132 -318t132 -318t318 -132t318 132q123 123 131 293h50q-8 -191 -145 -328q-147 -147 -354 -147t-353.5 146.5t-146.5 353.5zM248 1050 q0 145 91.5 247.5t221.5 102.5q129 0 221 -102l18 -22l-92 -46q-61 70 -147 70q-88 0 -150.5 -73t-62.5 -177q0 -103 62.5 -176.5t150.5 -73.5q85 0 146 69l86 -53q-6 -7 -11 -13q-92 -103 -221 -103q-130 0 -221.5 102.5t-91.5 247.5z" />
<glyph unicode="&#xaa;" horiz-adv-x="1650" d="M0 200v1100q0 200 200 200h1100q200 0 200 -200v-1100q0 -200 -200 -200h-1100q-200 0 -200 200zM25 200q1 -175 175 -175h1101q174 0 174 176v1099q0 175 -175 175h-1100q-174 0 -175 -175v-1100z" />
<glyph unicode="&#xab;" horiz-adv-x="1300" d="M50 700l625 550h225l-625 -550l625 -550h-225zM400 700l625 550h225l-625 -550l625 -550h-225z" />
<glyph unicode="&#xac;" horiz-adv-x="1650" d="M0 200v1100q0 200 200 200h1100q200 0 200 -200v-1100q0 -200 -200 -200h-1100q-200 0 -200 200zM25 200q1 -175 175 -175h1101q174 0 174 176v1099q0 175 -175 175h-1100q-174 0 -175 -175v-1100z" />
<glyph unicode="&#xad;" horiz-adv-x="950" d="M50 600v200h850v-200h-850z" />
<glyph unicode="&#xae;" d="M50 1050q0 207 146.5 353.5t353.5 146.5t354 -146q137 -138 145 -329h-50q-8 170 -131 293q-132 132 -318 132t-318 -132t-132 -318t132 -318t318 -132t318 132q123 123 131 293h50q-8 -191 -145 -328q-147 -147 -354 -147t-353.5 146.5t-146.5 353.5zM300 700v700h100 v-300h200q42 0 71 29.5t29 70.5q0 42 -29 71t-71 29h-175v100h175q83 0 141.5 -58.5t58.5 -141.5t-58 -141l-9 -9q4 -4 9 -8q58 -59 58 -142v-200h-100v200q0 42 -29 71t-71 29h-200v-300h-100z" />
<glyph unicode="&#xaf;" horiz-adv-x="1650" d="M0 200v1100q0 200 200 200h1100q200 0 200 -200v-1100q0 -200 -200 -200h-1100q-200 0 -200 200zM25 200q1 -175 175 -175h1101q174 0 174 176v1099q0 175 -175 175h-1100q-174 0 -175 -175v-1100z" />
<glyph unicode="&#xb0;" horiz-adv-x="1650" d="M0 200v1100q0 200 200 200h1100q200 0 200 -200v-1100q0 -200 -200 -200h-1100q-200 0 -200 200zM25 200q1 -175 175 -175h1101q174 0 174 176v1099q0 175 -175 175h-1100q-174 0 -175 -175v-1100z" />
<glyph unicode="&#xb1;" horiz-adv-x="1650" d="M0 200v1100q0 200 200 200h1100q200 0 200 -200v-1100q0 -200 -200 -200h-1100q-200 0 -200 200zM25 200q1 -175 175 -175h1101q174 0 174 176v1099q0 175 -175 175h-1100q-174 0 -175 -175v-1100z" />
<glyph unicode="&#xb2;" horiz-adv-x="1650" d="M0 200v1100q0 200 200 200h1100q200 0 200 -200v-1100q0 -200 -200 -200h-1100q-200 0 -200 200zM25 200q1 -175 175 -175h1101q174 0 174 176v1099q0 175 -175 175h-1100q-174 0 -175 -175v-1100z" />
<glyph unicode="&#xb3;" horiz-adv-x="1650" d="M0 200v1100q0 200 200 200h1100q200 0 200 -200v-1100q0 -200 -200 -200h-1100q-200 0 -200 200zM25 200q1 -175 175 -175h1101q174 0 174 176v1099q0 175 -175 175h-1100q-174 0 -175 -175v-1100z" />
<glyph unicode="&#xb4;" horiz-adv-x="500" d="M50 1500l150 300h250l-200 -300h-200z" />
<glyph unicode="&#xb5;" horiz-adv-x="900" d="M50 -160v1280h160v-720q0 -99 70.5 -169.5t169.5 -70.5t169.5 70.5t70.5 169.5v720h160v-720q0 -166 -117 -283t-283 -117q-136 0 -240 80v-240h-160z" />
<glyph unicode="&#xb6;" horiz-adv-x="1650" d="M0 200v1100q0 200 200 200h1100q200 0 200 -200v-1100q0 -200 -200 -200h-1100q-200 0 -200 200zM25 200q1 -175 175 -175h1101q174 0 174 176v1099q0 175 -175 175h-1100q-174 0 -175 -175v-1100z" />
<glyph unicode="&#xb7;" horiz-adv-x="300" d="M50 600v200h200v-200h-200z" />
<glyph unicode="&#xb8;" horiz-adv-x="800" d="M50 -50h200q0 -62 44 -106t106 -44t106 44t44 106v200h200v-200q0 -145 -102.5 -247.5t-247.5 -102.5t-247.5 102.5t-102.5 247.5z" />
<glyph unicode="&#xb9;" horiz-adv-x="1650" d="M0 200v1100q0 200 200 200h1100q200 0 200 -200v-1100q0 -200 -200 -200h-1100q-200 0 -200 200zM25 200q1 -175 175 -175h1101q174 0 174 176v1099q0 175 -175 175h-1100q-174 0 -175 -175v-1100z" />
<glyph unicode="&#xba;" horiz-adv-x="1650" d="M0 200v1100q0 200 200 200h1100q200 0 200 -200v-1100q0 -200 -200 -200h-1100q-200 0 -200 200zM25 200q1 -175 175 -175h1101q174 0 174 176v1099q0 175 -175 175h-1100q-174 0 -175 -175v-1100z" />
<glyph unicode="&#xbb;" horiz-adv-x="1300" d="M50 150l625 550l-625 550h225l625 -550l-625 -550h-225zM400 150l625 550l-625 550h225l625 -550l-625 -550h-225z" />
<glyph unicode="&#xbc;" horiz-adv-x="1650" d="M0 200v1100q0 200 200 200h1100q200 0 200 -200v-1100q0 -200 -200 -200h-1100q-200 0 -200 200zM25 200q1 -175 175 -175h1101q174 0 174 176v1099q0 175 -175 175h-1100q-174 0 -175 -175v-1100z" />
<glyph unicode="&#xbd;" horiz-adv-x="1650" d="M0 200v1100q0 200 200 200h1100q200 0 200 -200v-1100q0 -200 -200 -200h-1100q-200 0 -200 200zM25 200q1 -175 175 -175h1101q174 0 174 176v1099q0 175 -175 175h-1100q-174 0 -175 -175v-1100z" />
<glyph unicode="&#xbe;" horiz-adv-x="1650" d="M0 200v1100q0 200 200 200h1100q200 0 200 -200v-1100q0 -200 -200 -200h-1100q-200 0 -200 200zM25 200q1 -175 175 -175h1101q174 0 174 176v1099q0 175 -175 175h-1100q-174 0 -175 -175v-1100z" />
<glyph unicode="&#xbf;" d="M50 400q0 166 146.5 283t353.5 117q41 0 70.5 29.5t29.5 70.5v100h200v-100q0 -124 -88 -212t-212 -88t-212 -58.5t-88 -141.5t88 -141.5t212 -58.5t212 58.5t88 141.5h200q0 -166 -146.5 -283t-353.5 -117t-353.5 117t-146.5 283zM650 1200v200h200v-200h-200z" />
<glyph unicode="&#xc0;" horiz-adv-x="1150" d="M50 0l400 1400h250l400 -1400h-200l-100 350h-403l56 200h290l-168 588l-325 -1138h-200zM350 1800h250l150 -300h-200z" />
<glyph unicode="&#xc1;" horiz-adv-x="1150" d="M50 0l400 1400h250l400 -1400h-200l-100 350h-403l56 200h290l-168 588l-325 -1138h-200zM400 1500l150 300h250l-200 -300h-200z" />
<glyph unicode="&#xc2;" horiz-adv-x="1150" d="M50 0l400 1400h250l400 -1400h-200l-100 350h-403l56 200h290l-168 588l-325 -1138h-200zM175 1500l275 400h250l275 -400h-225l-175 255l-175 -255h-225z" />
<glyph unicode="&#xc3;" horiz-adv-x="1150" d="M50 0l400 1400h250l400 -1400h-200l-100 350h-403l56 200h290l-168 588l-325 -1138h-200zM125 1500v50q0 124 88 212t212 88q115 0 230 -120q29 -30 70 -30t70.5 29.5t29.5 70.5v50h200v-50q0 -124 -88 -212t-212 -88q-115 0 -229 121q-30 29 -71 29t-70.5 -29.5 t-29.5 -70.5v-50h-200z" />
<glyph unicode="&#xc4;" horiz-adv-x="1150" d="M50 0l400 1400h250l400 -1400h-200l-100 350h-403l56 200h290l-168 588l-325 -1138h-200zM250 1550v200h200v-200h-200zM700 1550v200h200v-200h-200z" />
<glyph unicode="&#xc5;" horiz-adv-x="1150" d="M50 0l400 1400h250l400 -1400h-200l-100 350h-403l56 200h290l-168 588l-325 -1138h-200zM375 1700q0 83 58.5 141.5t141.5 58.5t141.5 -58.5t58.5 -141.5t-58.5 -141.5t-141.5 -58.5t-141.5 58.5t-58.5 141.5z" />
<glyph unicode="&#xc6;" horiz-adv-x="1450" d="M50 0l400 1400h950v-200h-643l114 -400h529v-200h-471l114 -400h357v-200h-500l-100 350h-403l56 200h290l-168 588l-325 -1138h-200z" />
<glyph unicode="&#xc7;" horiz-adv-x="1200" d="M50 700q0 290 183 495t442 205t442 -205q19 -21 36 -43l-183 -92q-123 140 -295 140q-176 0 -300.5 -146.5t-124.5 -353.5t124.5 -353.5t300.5 -146.5q171 0 294 138l171 -106q-11 -14 -23 -27q-98 -109 -217 -160v-95q0 -145 -102.5 -247.5t-247.5 -102.5t-247.5 102.5 t-102.5 247.5h200q0 -62 44 -106t106 -44t106 44t44 106v50h-25q-259 0 -442 205t-183 495z" />
<glyph unicode="&#xc8;" d="M50 0v1400h1000v-200h-800l1 -400h799v-200h-799v-400h799v-200h-1000zM350 1800h250l150 -300h-200z" />
<glyph unicode="&#xc9;" d="M50 0v1400h1000v-200h-800l1 -400h799v-200h-799v-400h799v-200h-1000zM400 1500l150 300h250l-200 -300h-200z" />
<glyph unicode="&#xca;" d="M50 0v1400h1000v-200h-800l1 -400h799v-200h-799v-400h799v-200h-1000zM150 1500l275 400h250l275 -400h-225l-175 255l-175 -255h-225z" />
<glyph unicode="&#xcb;" d="M50 0v1400h1000v-200h-800l1 -400h799v-200h-799v-400h799v-200h-1000zM225 1550v200h200v-200h-200zM675 1550v200h200v-200h-200z" />
<glyph unicode="&#xcc;" horiz-adv-x="400" d="M-50 1800h250l150 -300h-200zM100 0v1400h200v-1400h-200z" />
<glyph unicode="&#xcd;" horiz-adv-x="400" d="M50 1500l150 300h250l-200 -300h-200zM100 0v1400h200v-1400h-200z" />
<glyph unicode="&#xce;" horiz-adv-x="400" d="M-200 1500l275 400h250l275 -400h-225l-175 255l-175 -255h-225zM100 0v1400h200v-1400h-200z" />
<glyph unicode="&#xcf;" horiz-adv-x="400" d="M-125 1550v200h200v-200h-200zM100 0v1400h200v-1400h-200zM325 1550v200h200v-200h-200z" />
<glyph unicode="&#xd0;" horiz-adv-x="1200" d="M0 600v200h150v600h375q259 0 442 -205t183 -495t-183 -495t-442 -205h-125v200h125q176 0 300.5 146.5t124.5 353.5t-124.5 353.5t-300.5 146.5h-175v-400h150v-200h-150v-600h-200v600h-150z" />
<glyph unicode="&#xd1;" horiz-adv-x="1200" d="M50 0v1400h200l70 -105l-70 -245v-1050h-200zM150 1500v50q0 124 88 212t212 88q115 0 230 -120q29 -30 70 -30t70.5 29.5t29.5 70.5v50h200v-50q0 -124 -88 -212t-212 -88q-115 0 -229 121q-30 29 -71 29t-70.5 -29.5t-29.5 -70.5v-50h-200zM281 1003l72 242l597 -895 v1050h200v-1400h-200z" />
<glyph unicode="&#xd2;" horiz-adv-x="1350" d="M50 700q0 290 183 495q174 195 417 205v-201q-160 -10 -275 -145q-125 -147 -125 -354t124.5 -353.5t300.5 -146.5t300.5 146.5t124.5 353.5t-124 354q-116 135 -276 145v201q243 -10 417 -205q183 -205 183 -495t-183 -495t-442 -205t-442 205t-183 495zM475 1800h250 l150 -300h-200z" />
<glyph unicode="&#xd3;" horiz-adv-x="1350" d="M50 700q0 290 183 495q174 195 417 205v-201q-160 -10 -275 -145q-125 -147 -125 -354t124.5 -353.5t300.5 -146.5t300.5 146.5t124.5 353.5t-124 354q-116 135 -276 145v201q243 -10 417 -205q183 -205 183 -495t-183 -495t-442 -205t-442 205t-183 495zM475 1500 l150 300h250l-200 -300h-200z" />
<glyph unicode="&#xd4;" horiz-adv-x="1350" d="M50 700q0 290 183 495q174 195 417 205v-201q-160 -10 -275 -145q-125 -147 -125 -354t124.5 -353.5t300.5 -146.5t300.5 146.5t124.5 353.5t-124 354q-116 135 -276 145v201q243 -10 417 -205q183 -205 183 -495t-183 -495t-442 -205t-442 205t-183 495zM275 1500 l275 400h250l275 -400h-225l-175 255l-175 -255h-225z" />
<glyph unicode="&#xd5;" horiz-adv-x="1350" d="M50 700q0 290 183 495q174 195 417 205v-201q-160 -10 -275 -145q-125 -147 -125 -354t124.5 -353.5t300.5 -146.5t300.5 146.5t124.5 353.5t-124 354q-116 135 -276 145v201q243 -10 417 -205q183 -205 183 -495t-183 -495t-442 -205t-442 205t-183 495zM225 1500v50 q0 124 88 212t212 88q115 0 230 -120q29 -30 70 -30t70.5 29.5t29.5 70.5v50h200v-50q0 -124 -88 -212t-212 -88q-115 0 -229 121q-30 29 -71 29t-70.5 -29.5t-29.5 -70.5v-50h-200z" />
<glyph unicode="&#xd6;" horiz-adv-x="1350" d="M50 700q0 290 183 495q174 195 417 205v-201q-160 -10 -275 -145q-125 -147 -125 -354t124.5 -353.5t300.5 -146.5t300.5 146.5t124.5 353.5t-124 354q-116 135 -276 145v201q243 -10 417 -205q183 -205 183 -495t-183 -495t-442 -205t-442 205t-183 495zM350 1550v200 h200v-200h-200zM800 1550v200h200v-200h-200z" />
<glyph unicode="&#xd7;" horiz-adv-x="950" d="M50 200l313 500l-313 500h225l200 -320l200 320h225l-312 -500l312 -500h-225l-200 320l-200 -320h-225z" />
<glyph unicode="&#xd8;" horiz-adv-x="1350" d="M50 700q0 290 183 495q174 195 417 205v-201q-160 -10 -275 -145q-125 -147 -125 -354q0 -178 93 -312l487 779q-61 28 -130 32v201q128 -5 236 -62l39 62h225l-110 -176q14 -14 27 -29q183 -205 183 -495t-183 -495t-442 -205q-164 0 -298 83l-52 -83h-225l130 208 q-180 204 -180 492zM483 252q87 -52 192 -52q176 0 300.5 146.5t124.5 353.5q0 203 -120 349z" />
<glyph unicode="&#xd9;" d="M50 500v900h200v-900q0 -124 88 -212t212 -88t212 88t88 212v900h200v-900q0 -207 -146.5 -353.5t-353.5 -146.5t-353.5 146.5t-146.5 353.5zM350 1800h250l150 -300h-200z" />
<glyph unicode="&#xda;" d="M50 500v900h200v-900q0 -124 88 -212t212 -88t212 88t88 212v900h200v-900q0 -207 -146.5 -353.5t-353.5 -146.5t-353.5 146.5t-146.5 353.5zM350 1500l150 300h250l-200 -300h-200z" />
<glyph unicode="&#xdb;" d="M50 500v900h200v-900q0 -124 88 -212t212 -88t212 88t88 212v900h200v-900q0 -207 -146.5 -353.5t-353.5 -146.5t-353.5 146.5t-146.5 353.5zM150 1500l275 400h250l275 -400h-225l-175 255l-175 -255h-225z" />
<glyph unicode="&#xdc;" d="M50 500v900h200v-900q0 -124 88 -212t212 -88t212 88t88 212v900h200v-900q0 -207 -146.5 -353.5t-353.5 -146.5t-353.5 146.5t-146.5 353.5zM225 1550v200h200v-200h-200zM675 1550v200h200v-200h-200z" />
<glyph unicode="&#xdd;" d="M50 1400h225l275 -495l275 495h225l-399 -723v-2h-1v-675h-200v675zM350 1500l150 300h250l-200 -300h-200z" />
<glyph unicode="&#xde;" d="M50 0v1400h200v-300h400q166 0 283 -117t117 -283t-117 -283q-97 -97 -229 -114l-4 -3h-400v200h350q83 0 141.5 58.5t58.5 141.5t-58.5 141.5t-141.5 58.5h-400v-900h-200z" />
<glyph unicode="&#xdf;" d="M50 0v1000q0 166 117 283t283 117h200q166 0 283 -117t117 -283t-117 -283q-9 -9 -18 -17q9 -8 18 -17q117 -117 117 -283t-117 -283q-97 -97 -229 -114l-4 -3h-400v200h350q83 0 141.5 58.5t58.5 141.5t-58.5 141.5t-141.5 58.5h-350v200h350q83 0 141.5 58.5 t58.5 141.5t-58.5 141.5t-141.5 58.5h-200q-83 0 -141.5 -58.5t-58.5 -141.5v-1000h-200z" />
<glyph unicode="&#xe0;" horiz-adv-x="940" d="M50 0l320 1120h200l320 -1120h-160l-80 280h-322l44 160h232l-134 470l-260 -910h-160zM290 1440h200l120 -240h-160z" />
<glyph unicode="&#xe1;" horiz-adv-x="940" d="M50 0l320 1120h200l320 -1120h-160l-80 280h-322l44 160h232l-134 470l-260 -910h-160zM330 1200l120 240h200l-160 -240h-160z" />
<glyph unicode="&#xe2;" horiz-adv-x="940" d="M50 0l320 1120h200l320 -1120h-160l-80 280h-322l44 160h232l-134 470l-260 -910h-160zM150 1200l220 320h200l220 -320h-180l-140 204l-140 -204h-180z" />
<glyph unicode="&#xe3;" horiz-adv-x="940" d="M50 0l320 1120h200l320 -1120h-160l-80 280h-322l44 160h232l-134 470l-260 -910h-160zM110 1200v40q0 99 70.5 169.5t169.5 70.5q92 0 184 -96q23 -24 56 -24t56.5 23.5t23.5 56.5v40h160v-40q0 -99 -70.5 -169.5t-169.5 -70.5q-92 0 -183 97q-24 23 -57 23t-56.5 -23.5 t-23.5 -56.5v-40h-160z" />
<glyph unicode="&#xe4;" horiz-adv-x="940" d="M50 0l320 1120h200l320 -1120h-160l-80 280h-322l44 160h232l-134 470l-260 -910h-160zM210 1240v160h160v-160h-160zM570 1240v160h160v-160h-160z" />
<glyph unicode="&#xe5;" horiz-adv-x="940" d="M50 0l320 1120h200l320 -1120h-160l-80 280h-322l44 160h232l-134 470l-260 -910h-160zM310 1360q0 66 47 113t113 47t113 -47t47 -113t-47 -113t-113 -47t-113 47t-47 113z" />
<glyph unicode="&#xe6;" horiz-adv-x="1180" d="M50 0l320 1120h760v-160h-514l91 -320h423v-160h-377l91 -320h286v-160h-400l-80 280h-322l44 160h232l-134 470l-260 -910h-160z" />
<glyph unicode="&#xe7;" horiz-adv-x="979" d="M50 560q0 232 146.5 396t353.5 164t354 -164q15 -17 28 -34l-146 -74q-98 112 -236 112q-141 0 -240.5 -117t-99.5 -283t99.5 -283t240.5 -117q137 0 235 110l137 -84q-9 -12 -18 -22q-79 -88 -174 -128v-76q0 -116 -82 -198t-198 -82t-198 82t-82 198h160q0 -50 35 -85 t85 -35t85 35t35 85v40h-20q-207 0 -353.5 164t-146.5 396z" />
<glyph unicode="&#xe8;" horiz-adv-x="900" d="M50 0v1120h800v-160h-640v-320h640v-160h-639v-320h639v-160h-800zM290 1440h200l120 -240h-160z" />
<glyph unicode="&#xe9;" horiz-adv-x="900" d="M50 0v1120h800v-160h-640v-320h640v-160h-639v-320h639v-160h-800zM330 1200l120 240h200l-160 -240h-160z" />
<glyph unicode="&#xea;" horiz-adv-x="900" d="M50 0v1120h800v-160h-640v-320h640v-160h-639v-320h639v-160h-800zM130 1200l220 320h200l220 -320h-180l-140 204l-140 -204h-180z" />
<glyph unicode="&#xeb;" horiz-adv-x="900" d="M50 0v1120h800v-160h-640v-320h640v-160h-639v-320h639v-160h-800zM190 1240v160h160v-160h-160zM550 1240v160h160v-160h-160z" />
<glyph unicode="&#xec;" horiz-adv-x="320" d="M-50 1440h200l120 -240h-160zM70 0v1120h160v-1120h-160z" />
<glyph unicode="&#xed;" horiz-adv-x="320" d="M50 1200l120 240h200l-160 -240h-160zM90 0v1120h160v-1120h-160z" />
<glyph unicode="&#xee;" horiz-adv-x="240" d="M-200 1200l220 320h200l220 -320h-180l-140 204l-140 -204h-180zM40 0v1120h160v-1120h-160z" />
<glyph unicode="&#xef;" horiz-adv-x="270" d="M-125 1240v160h160v-160h-160zM55 0v1120h160v-1120h-160zM235 1240v160h160v-160h-160z" />
<glyph unicode="&#xf0;" horiz-adv-x="970" d="M0 480v160h120v480h300q207 0 353.5 -164t146.5 -396t-146.5 -396t-353.5 -164h-100v160h100q141 0 240.5 117t99.5 283t-99.5 283t-240.5 117h-140v-320h120v-160h-120v-480h-160v480h-120z" />
<glyph unicode="&#xf1;" horiz-adv-x="980" d="M50 0v1120h160l56 -84l-56 -196v-840h-160zM130 1200v40q0 99 70.5 169.5t169.5 70.5q92 0 184 -96q23 -24 56 -24t56.5 23.5t23.5 56.5v40h160v-40q0 -99 -70.5 -169.5t-169.5 -70.5q-92 0 -183 97q-24 23 -57 23t-56.5 -23.5t-23.5 -56.5v-40h-160zM235 803l58 193 l477 -716v840h160v-1120h-160z" />
<glyph unicode="&#xf2;" d="M50 560q0 232 146 396q140 156 334 164v-161q-128 -7 -220 -116q-100 -117 -100 -283t99.5 -283t240.5 -117t240.5 117t99.5 283t-100 283q-92 109 -220 116v161q194 -8 334 -164q146 -164 146 -396t-146.5 -396t-353.5 -164t-353.5 164t-146.5 396zM390 1440h200 l120 -240h-160z" />
<glyph unicode="&#xf3;" d="M50 560q0 232 146 396q140 156 334 164v-161q-128 -7 -220 -116q-100 -117 -100 -283t99.5 -283t240.5 -117t240.5 117t99.5 283t-100 283q-92 109 -220 116v161q194 -8 334 -164q146 -164 146 -396t-146.5 -396t-353.5 -164t-353.5 164t-146.5 396zM390 1200l120 240 h200l-160 -240h-160z" />
<glyph unicode="&#xf4;" d="M50 560q0 232 146 396q140 156 334 164v-161q-128 -7 -220 -116q-100 -117 -100 -283t99.5 -283t240.5 -117t240.5 117t99.5 283t-100 283q-92 109 -220 116v161q194 -8 334 -164q146 -164 146 -396t-146.5 -396t-353.5 -164t-353.5 164t-146.5 396zM230 1200l220 320 h200l220 -320h-180l-140 204l-140 -204h-180z" />
<glyph unicode="&#xf5;" d="M50 560q0 232 146 396q140 156 334 164v-161q-128 -7 -220 -116q-100 -117 -100 -283t99.5 -283t240.5 -117t240.5 117t99.5 283t-100 283q-92 109 -220 116v161q194 -8 334 -164q146 -164 146 -396t-146.5 -396t-353.5 -164t-353.5 164t-146.5 396zM190 1200v40 q0 99 70.5 169.5t169.5 70.5q92 0 184 -96q23 -24 56 -24t56.5 23.5t23.5 56.5v40h160v-40q0 -99 -70.5 -169.5t-169.5 -70.5q-92 0 -183 97q-24 23 -57 23t-56.5 -23.5t-23.5 -56.5v-40h-160z" />
<glyph unicode="&#xf6;" d="M50 560q0 232 146 396q140 156 334 164v-161q-128 -7 -220 -116q-100 -117 -100 -283t99.5 -283t240.5 -117t240.5 117t99.5 283t-100 283q-92 109 -220 116v161q194 -8 334 -164q146 -164 146 -396t-146.5 -396t-353.5 -164t-353.5 164t-146.5 396zM290 1240v160h160 v-160h-160zM650 1240v160h160v-160h-160z" />
<glyph unicode="&#xf7;" horiz-adv-x="950" d="M50 600v200h850v-200h-850zM375 200v200h200v-200h-200zM375 1000v200h200v-200h-200z" />
<glyph unicode="&#xf8;" d="M50 560q0 232 146 396q140 156 334 164v-161q-128 -8 -220 -116q-100 -117 -100 -283q0 -143 74 -250l390 624q-49 22 -104 25v161q102 -4 189 -49l31 49h180l-88 -141q11 -11 22 -23q146 -164 146 -396t-146.5 -396t-353.5 -164q-132 0 -239 66l-41 -66h-180l104 167 q-144 163 -144 393zM396 202q70 -42 154 -42q141 0 240.5 117t99.5 283q0 163 -96 279z" />
<glyph unicode="&#xf9;" horiz-adv-x="900" d="M50 400v720h160v-720q0 -99 70.5 -169.5t169.5 -70.5t169.5 70.5t70.5 169.5v720h160v-720q0 -166 -117 -283t-283 -117t-283 117t-117 283zM290 1440h200l120 -240h-160z" />
<glyph unicode="&#xfa;" horiz-adv-x="900" d="M50 400v720h160v-720q0 -99 70.5 -169.5t169.5 -70.5t169.5 70.5t70.5 169.5v720h160v-720q0 -166 -117 -283t-283 -117t-283 117t-117 283zM290 1200l120 240h200l-160 -240h-160z" />
<glyph unicode="&#xfb;" horiz-adv-x="900" d="M50 400v720h160v-720q0 -99 70.5 -169.5t169.5 -70.5t169.5 70.5t70.5 169.5v720h160v-720q0 -166 -117 -283t-283 -117t-283 117t-117 283zM130 1200l220 320h200l220 -320h-180l-140 204l-140 -204h-180z" />
<glyph unicode="&#xfc;" horiz-adv-x="900" d="M50 400v720h160v-720q0 -99 70.5 -169.5t169.5 -70.5t169.5 70.5t70.5 169.5v720h160v-720q0 -166 -117 -283t-283 -117t-283 117t-117 283zM190 1240v160h160v-160h-160zM550 1240v160h160v-160h-160z" />
<glyph unicode="&#xfd;" horiz-adv-x="900" d="M50 1120h180l220 -396l220 396h180l-319 -579v-1h-1v-540h-160v540zM290 1200l120 240h200l-160 -240h-160z" />
<glyph unicode="&#xfe;" horiz-adv-x="900" d="M50 0v1120h160v-240h320q133 0 226.5 -93.5t93.5 -226.5t-94 -226q-77 -78 -183 -92l-3 -2h-320v160h280q66 0 113 47t47 113t-47 113t-113 47h-320v-720h-160z" />
<glyph unicode="&#xff;" horiz-adv-x="900" d="M50 1120h180l220 -396l220 396h180l-319 -579v-1h-1v-540h-160v540zM190 1240v160h160v-160h-160zM550 1240v160h160v-160h-160z" />
<glyph unicode="&#x2c6;" horiz-adv-x="900" d="M50 1500l275 400h250l275 -400h-225l-175 255l-175 -255h-225z" />
<glyph unicode="&#x2dc;" horiz-adv-x="1000" d="M50 1500v50q0 124 88 212t212 88q115 0 230 -120q29 -30 70 -30t70.5 29.5t29.5 70.5v50h200v-50q0 -124 -88 -212t-212 -88q-115 0 -229 121q-30 29 -71 29t-70.5 -29.5t-29.5 -70.5v-50h-200z" />
<glyph unicode="&#x2000;" horiz-adv-x="950" />
<glyph unicode="&#x2001;" horiz-adv-x="1900" />
<glyph unicode="&#x2002;" horiz-adv-x="950" />
<glyph unicode="&#x2003;" horiz-adv-x="1900" />
<glyph unicode="&#x2004;" horiz-adv-x="633" />
<glyph unicode="&#x2005;" horiz-adv-x="475" />
<glyph unicode="&#x2006;" horiz-adv-x="316" />
<glyph unicode="&#x2007;" horiz-adv-x="316" />
<glyph unicode="&#x2008;" horiz-adv-x="237" />
<glyph unicode="&#x2009;" horiz-adv-x="380" />
<glyph unicode="&#x200a;" horiz-adv-x="105" />
<glyph unicode="&#x2010;" horiz-adv-x="950" d="M50 600v200h850v-200h-850z" />
<glyph unicode="&#x2011;" horiz-adv-x="950" d="M50 600v200h850v-200h-850z" />
<glyph unicode="&#x2012;" horiz-adv-x="950" d="M50 600v200h850v-200h-850z" />
<glyph unicode="&#x2013;" horiz-adv-x="1050" d="M50 600v200h950v-200h-950z" />
<glyph unicode="&#x2014;" horiz-adv-x="1250" d="M50 600v200h1150v-200h-1150z" />
<glyph unicode="&#x2018;" horiz-adv-x="300" d="M50 1150v250h200v-200h-100v-50q0 -100 100 -100v-50h-100q-100 0 -100 150z" />
<glyph unicode="&#x2019;" horiz-adv-x="300" d="M50 1000v50q100 0 100 100v50h-100v200h200v-250q0 -150 -100 -150h-100z" />
<glyph unicode="&#x201a;" horiz-adv-x="300" d="M50 0v200h200v-250q0 -150 -100 -150h-100v50q100 0 100 100v50h-100z" />
<glyph unicode="&#x201c;" horiz-adv-x="550" d="M50 1150v250h200v-200h-100v-50q0 -100 100 -100v-50h-100q-100 0 -100 150zM300 1150v250h200v-200h-100v-50q0 -100 100 -100v-50h-100q-100 0 -100 150z" />
<glyph unicode="&#x201d;" horiz-adv-x="550" d="M50 1000v50q100 0 100 100v50h-100v200h200v-250q0 -150 -100 -150h-100zM300 1000v50q100 0 100 100v50h-100v200h200v-250q0 -150 -100 -150h-100z" />
<glyph unicode="&#x201e;" horiz-adv-x="550" d="M50 0v200h200v-250q0 -150 -100 -150h-100v50q100 0 100 100v50h-100zM300 0v200h200v-250q0 -150 -100 -150h-100v50q100 0 100 100v50h-100z" />
<glyph unicode="&#x2022;" horiz-adv-x="1650" d="M0 200v1100q0 200 200 200h1100q200 0 200 -200v-1100q0 -200 -200 -200h-1100q-200 0 -200 200zM25 200q1 -175 175 -175h1101q174 0 174 176v1099q0 175 -175 175h-1100q-174 0 -175 -175v-1100z" />
<glyph unicode="&#x2026;" horiz-adv-x="800" d="M50 0v200h200v-200h-200zM300 0v200h200v-200h-200zM550 0v200h200v-200h-200z" />
<glyph unicode="&#x202f;" horiz-adv-x="380" />
<glyph unicode="&#x2039;" horiz-adv-x="950" d="M50 700l625 550h225l-625 -550l625 -550h-225z" />
<glyph unicode="&#x203a;" horiz-adv-x="950" d="M50 150l625 550l-625 550h225l625 -550l-625 -550h-225z" />
<glyph unicode="&#x205f;" horiz-adv-x="475" />
<glyph unicode="&#x20ac;" horiz-adv-x="1250" d="M50 400v200h56q-6 49 -6 100t6 100h-56v200h108q45 106 125 195q183 205 442 205t442 -205q19 -21 36 -43l-183 -92q-123 140 -295 140q-176 0 -300 -146q-22 -26 -41 -54h416v-200h-492q-8 -48 -8 -100t8 -100h492v-200h-416q19 -28 41 -53q124 -147 300 -147 q171 0 294 138l171 -106q-11 -14 -23 -27q-183 -205 -442 -205t-442 205q-80 89 -125 195h-108z" />
<glyph unicode="&#x2122;" horiz-adv-x="1225" d="M50 1300v100h450v-100h-175v-600h-100v600h-175zM525 700v700h100l225 -600l225 600h100v-700h-100v433l-162 -433h-125l-163 434v-434h-100z" />
<glyph unicode="&#x25fc;" horiz-adv-x="1120" d="M0 0v1120h1120v-1120h-1120z" />
</font>
</defs>
</svg>
