<?xml version="1.0" standalone="no"?>
<!DOCTYPE svg PUBLIC "-//W3C//DTD SVG 1.1//EN" "http://www.w3.org/Graphics/SVG/1.1/DTD/svg11.dtd" >
<svg xmlns="http://www.w3.org/2000/svg" xmlns:xlink="http://www.w3.org/1999/xlink" version="1.1">
<metadata>
Created by FontForge 20170731 at Sat Jun 25 13:40:06 2016
 By Aleksey,,,
Copyright (c) 2016 by deFharo. All rights reserved.
</metadata>
<defs>
<font id="RotulonaHand" horiz-adv-x="576" >
  <font-face 
    font-family="Rotulona Hand"
    font-weight="400"
    font-stretch="normal"
    units-per-em="1000"
    panose-1="3 5 5 0 4 0 7 2 0 3"
    ascent="779"
    descent="-221"
    x-height="474"
    cap-height="803"
    bbox="-71 -259 1040 1022"
    underline-thickness="117"
    underline-position="-342"
    unicode-range="U+000D-2212"
  />
<missing-glyph 
d="M155 148v384h229v-155h155v-229h-384zM243 425h56v56h-56v-56zM1 148h154v-155z" />
    <glyph glyph-name=".notdef" 
d="M155 148v384h229v-155h155v-229h-384zM243 425h56v56h-56v-56zM1 148h154v-155z" />
    <glyph glyph-name=".null" horiz-adv-x="0" 
 />
    <glyph glyph-name="nonmarkingreturn" horiz-adv-x="333" 
 />
    <glyph glyph-name="NULL" horiz-adv-x="0" 
 />
    <glyph glyph-name="NULL" horiz-adv-x="0" 
 />
    <glyph glyph-name="CR" unicode="&#xd;" horiz-adv-x="255" 
 />
    <glyph glyph-name="space" unicode=" " horiz-adv-x="255" 
 />
    <glyph glyph-name="exclam" unicode="!" horiz-adv-x="221" 
d="M59 255q0 45 38 261.5t51 234.5q22 28 58 28q23 0 41.5 -18t18.5 -44q0 -25 -26.5 -159t-45.5 -219q-7 -30 -11.5 -47t-14 -42t-21.5 -37.5t-27 -12.5q-26 0 -43.5 16.5t-17.5 38.5zM90 171q24 0 42 -18t18 -44l-14 -78q-4 -20 -21.5 -32.5t-37.5 -12.5q-29 0 -45.5 18.5
t-16.5 43.5l15 79q4 20 21.5 32t38.5 12z" />
    <glyph glyph-name="quotedbl" unicode="&#x22;" horiz-adv-x="352" 
d="M90 721q4 23 23 39t41 16q20 0 34 -13.5t14 -33.5q0 -1 -0.5 -4t-0.5 -4l-30 -220q-3 -22 -22.5 -39t-40.5 -17t-35 14t-14 34q0 1 0.5 4t0.5 4zM249 721q3 22 21.5 38.5t41.5 16.5q21 0 35 -13.5t14 -33.5q0 -1 -0.5 -4t-0.5 -4l-31 -220q-3 -23 -22 -39.5t-41 -16.5
q-23 0 -35.5 16t-12.5 40z" />
    <glyph glyph-name="numbersign" unicode="#" horiz-adv-x="495" 
d="M369 284l30 6q5 2 14 2q19 0 29.5 -12.5t10.5 -30.5q0 -14 -6.5 -24t-13.5 -16t-24 -11t-26.5 -6.5t-32.5 -5.5l-2 -21q-5 -31 -9.5 -49t-12.5 -40.5t-21 -33t-31 -10.5t-30 12.5t-12 28.5l17 103q-24 -4 -71 -4q-1 -4 -5.5 -25t-6.5 -28l-7 -24.5t-10 -25t-12 -17.5
t-16.5 -14t-20.5 -4q-17 0 -29.5 12.5t-12.5 30.5q0 10 3.5 25t11 37t10.5 34q-39 0 -56.5 9t-17.5 32q0 22 16 39t40 17q6 0 20 -0.5t21 -0.5l21 99h-29q-18 0 -30 12.5t-12 29.5q0 21 17.5 37t38.5 16h33q2 11 5.5 39.5t6.5 45t10 36.5t19.5 29.5t31.5 9.5
q17 0 29.5 -12.5t12.5 -30.5q0 -8 -19 -114q40 2 62 4q1 5 3.5 28t4 32t5.5 29.5t9 30t12 21.5t17.5 17t23.5 5q18 0 30 -11.5t12 -30.5l-20 -111q5 0 21 2.5t23 2.5q19 0 29.5 -12.5t10.5 -28.5q0 -18 -7 -30.5t-22 -18t-26 -7t-31 -3.5q-2 0 -6 -0.5t-6 -0.5
q-6 -39 -17 -100zM288 374l-64 -5q-5 -23 -23 -100q36 0 72 3q3 15 5.5 32t5 38t4.5 32z" />
    <glyph glyph-name="dollar" unicode="$" horiz-adv-x="472" 
d="M311 284q-59 -17 -95 -17q-51 0 -91.5 35.5t-40.5 99.5q0 123 163 260l17 162q2 23 21.5 39.5t42.5 16.5q24 0 41.5 -17t17.5 -41v-5q0 -13 -5 -59l15 9t15.5 9t13.5 7t15.5 5.5t14.5 1.5q28 0 45 -18.5t17 -42.5q0 -37 -31 -53q-35 -18 -77.5 -46.5t-91 -67t-80.5 -81
t-32 -77.5q0 -15 12 -15q22 0 70 16.5t73 16.5q34 0 59 -24t25 -64q0 -135 -144 -269l-22 -174q-3 -23 -21.5 -40t-41.5 -17h-5q-23 2 -39 20t-16 41l9 69q-57 -37 -84 -37q-24 0 -42.5 17t-18.5 44q0 35 31 53q45 26 76.5 47t73 53.5t70 68.5t40.5 74z" />
    <glyph glyph-name="percent" unicode="%" horiz-adv-x="850" 
d="M180 434q45 13 73 56.5t28 92.5q0 25 18 43t43 18t43.5 -18t18.5 -43q0 -94 -67 -183t-160 -89q-64 0 -95 49.5t-31 113.5q0 73 27 131t71 95t105.5 61t125 34t134.5 10q85 0 139.5 -17t54.5 -55q0 -17 -7 -31l-180 -322q-49 -89 -107.5 -196t-108.5 -196
q-17 -30 -52 -30q-27 0 -44.5 18.5t-17.5 43.5q0 17 8 30l346 624q-60 6 -93 6q-69 0 -130 -20t-105 -69t-44 -118q0 -29 7 -39zM605 98q35 0 68 50.5t33 97.5q0 25 18 43.5t43 18.5t43 -18t18 -44q0 -96 -65.5 -183t-163.5 -88q-61 0 -92 49.5t-31 112.5q0 44 27.5 111
t78.5 123.5t104 56.5q26 0 44 -18t18 -44q0 -22 -9 -34t-28 -21t-23 -12q-30 -23 -60 -77.5t-30 -87.5q0 -27 7 -36z" />
    <glyph glyph-name="ampersand" unicode="&#x26;" horiz-adv-x="474" 
d="M300 477q28 20 45.5 36.5t32.5 45t15 61.5q-3 18 -19 18q-33 0 -62 -24.5t-29 -57.5q0 -36 17 -79zM346 357l35 -96q37 39 55 84q16 43 59 43q30 0 45.5 -18.5t15.5 -43.5q0 -34 -41.5 -92t-82.5 -100q2 -6 18 -41t30 -66.5t14 -33.5q8 -16 8 -29q0 -23 -17 -42t-46 -19
q-35 0 -52 30q-33 59 -53 120q-80 -52 -147 -52q-73 0 -114.5 45.5t-41.5 103.5q0 106 170 246q-41 87 -41 154q0 86 65.5 148.5t150.5 62.5q65 0 102 -43t37 -106q0 -78 -42.5 -134.5t-126.5 -120.5zM286 169l-40 104q-24 -14 -58 -57t-34 -67q0 -11 11 -18t25 -7
q34 0 96 45z" />
    <glyph glyph-name="quotesingle" unicode="'" horiz-adv-x="175" 
d="M59 493l31 228q3 22 22 38.5t42 16.5q20 0 34 -13.5t14 -33.5l-31 -228q-3 -22 -22 -39t-41 -17q-21 0 -35 14t-14 34z" />
    <glyph glyph-name="parenleft" unicode="(" horiz-adv-x="363" 
d="M334 835q24 0 42 -17t18 -42q0 -19 -7 -33l-32 -59q-150 -276 -151 -547q0 -43 11.5 -125t11.5 -125q0 -24 -19.5 -40.5t-41.5 -16.5q-15 0 -27 7.5t-18 16t-11.5 25.5t-7 25t-4.5 25q-16 99 -16 207q0 155 41.5 301.5t124.5 308.5q2 4 9 17.5t9.5 18.5t9.5 15.5t12 15.5
t12.5 11t15.5 8.5t18 2.5z" />
    <glyph glyph-name="parenright" unicode=")" horiz-adv-x="363" 
d="M108 -170q-24 0 -41.5 17.5t-17.5 42.5q0 19 7 32l32 59q150 277 151 547q0 86 -12 167q-11 70 -11 83q0 24 19 40.5t41 16.5q19 0 32 -9.5t20.5 -28t10.5 -30t6 -31.5q16 -97 16 -206q0 -289 -166 -610l-8.5 -17t-10 -18.5t-10 -16.5t-11.5 -16t-12.5 -11t-16 -8.5
t-18.5 -2.5z" />
    <glyph glyph-name="asterisk" unicode="*" horiz-adv-x="518" 
d="M351 662q11 4 30 13.5t34.5 15.5t25.5 6h4q26 -2 44 -17t18 -44q0 -16 -7 -29t-24.5 -23.5t-28 -15.5t-36 -14t-30.5 -11l8 -8q19 -18 27.5 -27.5t18.5 -25.5t10 -29q0 -26 -19 -45t-44 -19q-26 0 -42 19l-31 33q-13 -51 -28.5 -72t-43.5 -21q-24 0 -44 17t-20 42
q0 9 3 18l19 62q-65 -17 -97 -17q-6 0 -12 2l-14 6q-15 6 -23 22.5t-8 29.5q0 14 4.5 25t9.5 17t18.5 11.5t19.5 7.5t26 6t26 5q-5 4 -29 19.5t-34.5 29t-10.5 34.5q0 26 18.5 44t43.5 18q12 0 26.5 -7t23 -12.5t27 -20t21.5 -17.5q1 8 2.5 28t2.5 31t5.5 27.5t11 25
t18.5 15t28 6.5q25 0 43.5 -18t18.5 -44q0 -17 -10 -99z" />
    <glyph glyph-name="plus" unicode="+" horiz-adv-x="484" 
d="M172 323q-4 0 -39 -5t-51 -5q-18 0 -31.5 14t-13.5 34q0 17 7.5 29.5t17 19.5t28.5 11.5t30.5 6t35 3t30.5 2.5q4 36 8 58.5t13.5 56.5t28 52t44.5 18q19 0 32.5 -12.5t13.5 -32.5q0 -9 -4 -25q-16 -51 -25 -105q13 1 47 6.5t50 5.5q19 0 32.5 -14t13.5 -33
q0 -15 -5 -26.5t-16 -19t-21.5 -12.5t-28 -8t-28.5 -4t-31 -2.5t-27 -2.5q-1 -7 -2 -29t-2 -33t-4 -30.5t-8 -31t-13 -23.5t-19.5 -17.5t-27.5 -5.5q-20 0 -33.5 14.5t-13.5 34.5q0 24 5.5 63t6.5 48z" />
    <glyph glyph-name="comma" unicode="," horiz-adv-x="198" 
d="M102 173q25 0 43 -18t18 -44l-32 -172q-4 -20 -21 -32.5t-37 -12.5q-29 0 -45.5 18t-16.5 44l32 173q4 19 21.5 31.5t37.5 12.5z" />
    <glyph glyph-name="hyphen" unicode="-" horiz-adv-x="391" 
d="M77 134q-22 0 -35.5 19.5t-13.5 42.5q0 22 16 39t40 21q90 15 168 15q34 0 55 -4q23 -4 37.5 -22t14.5 -40q0 -20 -10.5 -36t-29.5 -20q-19 -3 -45.5 -5.5t-49.5 -3.5t-68.5 -2.5t-78.5 -3.5z" />
    <glyph glyph-name="period" unicode="." horiz-adv-x="208" 
d="M97 173q25 0 43 -18t18 -44l-15 -78q-4 -20 -21 -32.5t-38 -12.5q-29 0 -45 18t-16 44l15 79q4 19 21.5 31.5t37.5 12.5z" />
    <glyph glyph-name="slash" unicode="/" horiz-adv-x="481" 
d="M417 778q18 31 51 31q24 0 44 -18t20 -43q0 -16 -9 -32q-50 -93 -222.5 -403t-252.5 -451q-17 -31 -51 -31q-24 0 -44 17.5t-20 42.5q0 15 9 32q99 185 185.5 341t188 334.5t101.5 179.5z" />
    <glyph glyph-name="zero" unicode="0" 
d="M155 189v384h229v-155h155v-229h-384zM243 466h56v56h-56v-56zM1 189h154v-155zM89 -187h31v81h55v28h-55v49h86v28h-117v-186zM231 -187h31v81h55v28h-55v49h86v28h-117v-186zM404 -29h20q37 0 38 -32q-1 -34 -41 -34h-17v66zM373 -1v-186h31v64h22q29 0 48 16.5
t19 46.5q0 59 -73 59h-47z" />
    <glyph glyph-name="one" unicode="1" 
d="M155 189v384h229v-155h155v-229h-384zM243 466h56v56h-56v-56zM1 189h154v-155zM89 -187h31v81h55v28h-55v49h86v28h-117v-186zM231 -187h31v81h55v28h-55v49h86v28h-117v-186zM404 -29h20q37 0 38 -32q-1 -34 -41 -34h-17v66zM373 -1v-186h31v64h22q29 0 48 16.5
t19 46.5q0 59 -73 59h-47z" />
    <glyph glyph-name="two" unicode="2" 
d="M155 189v384h229v-155h155v-229h-384zM243 466h56v56h-56v-56zM1 189h154v-155zM89 -187h31v81h55v28h-55v49h86v28h-117v-186zM231 -187h31v81h55v28h-55v49h86v28h-117v-186zM404 -29h20q37 0 38 -32q-1 -34 -41 -34h-17v66zM373 -1v-186h31v64h22q29 0 48 16.5
t19 46.5q0 59 -73 59h-47z" />
    <glyph glyph-name="three" unicode="3" 
d="M155 189v384h229v-155h155v-229h-384zM243 466h56v56h-56v-56zM1 189h154v-155zM89 -187h31v81h55v28h-55v49h86v28h-117v-186zM231 -187h31v81h55v28h-55v49h86v28h-117v-186zM404 -29h20q37 0 38 -32q-1 -34 -41 -34h-17v66zM373 -1v-186h31v64h22q29 0 48 16.5
t19 46.5q0 59 -73 59h-47z" />
    <glyph glyph-name="four" unicode="4" 
d="M155 189v384h229v-155h155v-229h-384zM243 466h56v56h-56v-56zM1 189h154v-155zM89 -187h31v81h55v28h-55v49h86v28h-117v-186zM231 -187h31v81h55v28h-55v49h86v28h-117v-186zM404 -29h20q37 0 38 -32q-1 -34 -41 -34h-17v66zM373 -1v-186h31v64h22q29 0 48 16.5
t19 46.5q0 59 -73 59h-47z" />
    <glyph glyph-name="five" unicode="5" 
d="M155 189v384h229v-155h155v-229h-384zM243 466h56v56h-56v-56zM1 189h154v-155zM89 -187h31v81h55v28h-55v49h86v28h-117v-186zM231 -187h31v81h55v28h-55v49h86v28h-117v-186zM404 -29h20q37 0 38 -32q-1 -34 -41 -34h-17v66zM373 -1v-186h31v64h22q29 0 48 16.5
t19 46.5q0 59 -73 59h-47z" />
    <glyph glyph-name="six" unicode="6" 
d="M155 189v384h229v-155h155v-229h-384zM243 466h56v56h-56v-56zM1 189h154v-155zM89 -187h31v81h55v28h-55v49h86v28h-117v-186zM231 -187h31v81h55v28h-55v49h86v28h-117v-186zM404 -29h20q37 0 38 -32q-1 -34 -41 -34h-17v66zM373 -1v-186h31v64h22q29 0 48 16.5
t19 46.5q0 59 -73 59h-47z" />
    <glyph glyph-name="seven" unicode="7" 
d="M155 189v384h229v-155h155v-229h-384zM243 466h56v56h-56v-56zM1 189h154v-155zM89 -187h31v81h55v28h-55v49h86v28h-117v-186zM231 -187h31v81h55v28h-55v49h86v28h-117v-186zM404 -29h20q37 0 38 -32q-1 -34 -41 -34h-17v66zM373 -1v-186h31v64h22q29 0 48 16.5
t19 46.5q0 59 -73 59h-47z" />
    <glyph glyph-name="eight" unicode="8" 
d="M155 189v384h229v-155h155v-229h-384zM243 466h56v56h-56v-56zM1 189h154v-155zM89 -187h31v81h55v28h-55v49h86v28h-117v-186zM231 -187h31v81h55v28h-55v49h86v28h-117v-186zM404 -29h20q37 0 38 -32q-1 -34 -41 -34h-17v66zM373 -1v-186h31v64h22q29 0 48 16.5
t19 46.5q0 59 -73 59h-47z" />
    <glyph glyph-name="nine" unicode="9" 
d="M155 189v384h229v-155h155v-229h-384zM243 466h56v56h-56v-56zM1 189h154v-155zM89 -187h31v81h55v28h-55v49h86v28h-117v-186zM231 -187h31v81h55v28h-55v49h86v28h-117v-186zM404 -29h20q37 0 38 -32q-1 -34 -41 -34h-17v66zM373 -1v-186h31v64h22q29 0 48 16.5
t19 46.5q0 59 -73 59h-47z" />
    <glyph glyph-name="colon" unicode=":" horiz-adv-x="224" 
d="M97 170q25 0 43 -18t18 -44l-15 -78q-4 -20 -21 -32.5t-38 -12.5q-29 0 -45 18t-16 44l15 79q4 19 21.5 31.5t37.5 12.5zM150 427q25 0 43 -18t18 -44l-15 -78q-4 -20 -21 -32.5t-38 -12.5q-29 0 -45 18t-16 44l14 79q4 19 21.5 31.5t38.5 12.5z" />
    <glyph glyph-name="semicolon" unicode=";" horiz-adv-x="222" 
d="M102 170q25 0 43 -18t18 -44l-32 -172q-4 -20 -21 -32.5t-37 -12.5q-29 0 -45.5 18t-16.5 44l32 173q4 19 21.5 31.5t37.5 12.5zM150 427q24 0 42.5 -16.5t18.5 -39.5v-6l-15 -78q-4 -20 -21 -32.5t-38 -12.5q-29 0 -45 18t-16 44l14 79q4 19 21.5 31.5t38.5 12.5z" />
    <glyph glyph-name="less" unicode="&#x3c;" horiz-adv-x="531" 
d="M208 242q88 -71 161 -153q17 -20 17 -44q0 -25 -17 -43t-44 -18q-28 0 -43 18l-38 42q-46 51 -145 127q-6 5 -20.5 15.5t-22 17t-17 16t-13.5 20t-4 21.5q0 10 2 18t8.5 15t10.5 11.5t15.5 9.5t15.5 7t18.5 7.5t17.5 6.5q53 21 155 53t147 49q9 3 18 3q25 0 43 -19
t18 -44q0 -15 -8.5 -30.5t-22.5 -22.5q-34 -16 -76 -30t-95.5 -29t-80.5 -24z" />
    <glyph glyph-name="equal" unicode="=" horiz-adv-x="400" 
d="M119 420q-9 -3 -16 -3q-26 0 -44 19t-18 44q0 20 13 36.5t32 22.5q152 47 219 47q26 0 44 -18.5t18 -43.5q0 -17 -8.5 -32t-22.5 -20q-22 -8 -94 -21.5t-123 -30.5zM119 187q-9 -3 -16 -3q-26 0 -44 19t-18 44q0 20 12.5 36t32.5 23q144 47 219 47q26 0 44 -18.5
t18 -43.5q0 -17 -8.5 -32t-22.5 -20q-22 -8 -94 -21.5t-123 -30.5z" />
    <glyph glyph-name="greater" unicode="&#x3e;" horiz-adv-x="520" 
d="M317 185q-93 75 -161 153q-17 18 -17 44q0 25 17 43t44 18q28 0 43 -18l38 -42q47 -52 144 -128q6 -5 21 -16t22.5 -17t17 -15.5t13.5 -19.5t4 -21q0 -10 -2 -18.5t-8.5 -15.5t-10.5 -11.5t-15.5 -9.5t-15.5 -7t-18.5 -7.5t-17.5 -6.5q-54 -21 -156 -53t-146 -48
q-12 -4 -18 -4q-24 0 -42.5 19.5t-18.5 44.5q0 15 8.5 30.5t22.5 21.5q34 17 75.5 31t96 29.5t80.5 23.5z" />
    <glyph glyph-name="question" unicode="?" horiz-adv-x="417" 
d="M258 305l-17 -59q-4 -20 -21 -32.5t-38 -12.5q-26 0 -43.5 19t-17.5 44q0 10 2 15l7 26q9 34 12.5 46.5t12 28t19.5 22t30 14.5q38 15 81 65t43 108q0 28 -17 42t-41 14q-58 0 -104 -60q-7 -9 -17.5 -24.5t-15.5 -22t-16 -12t-26 -5.5q-27 0 -43.5 18.5t-16.5 42.5
q0 17 7 31q36 67 100.5 110.5t137.5 43.5q75 0 124.5 -53t49.5 -126q0 -82 -56 -164t-136 -119zM160 173q24 0 42 -18t18 -44l-14 -78q-4 -20 -21.5 -32.5t-37.5 -12.5q-29 0 -45.5 18.5t-16.5 43.5l15 79q4 20 21.5 32t38.5 12z" />
    <glyph glyph-name="at" unicode="@" horiz-adv-x="889" 
d="M459 358q-32 0 -54 -32t-29.5 -67.5t-7.5 -66.5q0 -51 56 -51q16 0 28.5 21t20 46.5t24.5 46.5t42 21q22 0 39.5 -16t26.5 -36t21.5 -36t25.5 -16q23 0 40.5 49t17.5 91q0 111 -75.5 176.5t-177.5 65.5q-123 0 -206 -105.5t-83 -232.5q0 -121 85.5 -217.5t204.5 -96.5
q116 0 251 120q20 18 44 18q26 0 43.5 -19t17.5 -44q0 -23 -18 -41q-72 -69 -159.5 -112.5t-175.5 -43.5q-94 0 -174 39.5t-131.5 103t-80.5 141t-29 155.5q0 119 56 225t151 169t203 63q153 0 264 -101t111 -261q0 -43 -10.5 -87.5t-31 -85t-57 -66.5t-83.5 -26
q-50 0 -99 45q-52 -75 -124 -75q-85 0 -132.5 50t-47.5 124q0 36 10 80.5t32.5 93.5t67.5 81.5t106 32.5q53 0 92 -45.5t39 -93.5q0 -25 -19 -41.5t-44 -16.5q-43 0 -57 44q-6 21 -14 30z" />
    <glyph glyph-name="A" unicode="A" horiz-adv-x="538" 
d="M116 218q133 294 290 500q3 4 13 18t15.5 20.5t15 15.5t19.5 13t22 4q24 0 42.5 -17.5t18.5 -42.5q0 -12 -19 -192q-35 -315 -35 -484v-105q0 -28 -18 -44.5t-43 -16.5q-39 0 -51 28.5t-12 95.5q0 85 6 163q-97 -45 -179 -65l-83 -196q-15 -45 -62 -45q-22 0 -40.5 16.5
t-18.5 44.5q0 14 23 68l41 96q-24 2 -40.5 20t-16.5 41q0 16 5.5 27t12 17t21 10.5t22.5 5.5t26.5 2t24.5 2zM272 260q48 19 116 56q5 67 17 184q-76 -127 -133 -240z" />
    <glyph glyph-name="B" unicode="B" horiz-adv-x="560" 
d="M410 355q68 -12 108 -51.5t40 -102.5q0 -60 -25 -115.5t-68 -98t-89.5 -74t-99.5 -56.5q-13 -9 -30 -9q-62 8 -62 62q0 33 31 52q3 2 32.5 17.5t57.5 34.5t60 46.5t51.5 63.5t19.5 75q0 38 -83 38q-57 0 -112 -30l-18 -158q-1 -30 -21 -45t-42 -15q-24 0 -42 17t-18 39v4
l57 483q-5 -4 -16.5 -13.5t-18.5 -14.5t-17.5 -9.5t-21.5 -4.5q-26 0 -44 18.5t-18 43.5q0 59 156 137q3 28 5.5 41.5t9 31t19 25t31.5 7.5q22 0 40 -13t21 -31l2 -16q36 3 41 3h8q72 -2 125.5 -46t53.5 -106q0 -98 -123 -230zM289 603l-28 -221q44 33 94 93.5t55 102.5
q0 19 -21 28t-43 9q-23 0 -57 -12z" />
    <glyph glyph-name="C" unicode="C" horiz-adv-x="469" 
d="M340 631q-52 -46 -113 -183.5t-61 -242.5q0 -39 12.5 -66.5t39.5 -27.5q30 0 66.5 30t59.5 60q24 34 57 34q24 0 42 -19t18 -44q0 -16 -9 -30q-42 -61 -105 -107.5t-125 -46.5q-63 0 -105 34t-58 80t-16 101q0 112 65 271q18 43 33 75.5t39 74t47.5 69t55 46.5t64.5 19
q61 0 91 -49t30 -117q0 -43 -6.5 -78.5t-24.5 -61.5t-46 -26q-25 0 -44 16.5t-19 42.5q0 15 9 51t9 55q0 24 -6 40z" />
    <glyph glyph-name="D" unicode="D" horiz-adv-x="521" 
d="M176 70q89 48 152.5 122t63.5 161q0 66 -50 132t-117.5 111t-141.5 75q-53 21 -53 64q0 22 17 41t44 19l34 -9q156 -52 273 -172.5t117 -258.5q0 -101 -61 -196t-153.5 -159.5t-194.5 -91.5q-5 -2 -16 -2q-25 0 -43.5 17t-18.5 44q0 25 16 41l88 460q5 26 9 41.5t12 34.5
t22 28t33 9q25 0 43.5 -16.5t18.5 -44.5q0 -6 -0.5 -11.5t-2 -15t-3.5 -20t-6 -30t-9 -40.5t-12.5 -56t-15.5 -71t-20 -92t-25 -114z" />
    <glyph glyph-name="E" unicode="E" horiz-adv-x="573" 
d="M276 161q130 24 221 24q29 0 45 -18t16 -43q0 -24 -16 -42.5t-45 -19.5q-172 -7 -299 -47q-9 -3 -27 -10t-32 -11t-26 -4q-27 0 -44.5 19t-17.5 42q0 24 18 41t35 23.5t47 14.5q3 51 15 146q-26 0 -43.5 19t-17.5 44q0 12 4.5 22t9 16t15.5 12t17 8.5t19.5 7t17.5 5.5
q19 112 39 211q-9 -2 -28.5 -8.5t-34.5 -10t-27 -3.5q-25 0 -43.5 17.5t-18.5 43.5q0 20 12.5 36.5t32.5 22.5q82 27 194.5 47.5t196.5 20.5q27 0 43 -18.5t16 -43.5q0 -24 -15.5 -42t-45.5 -19q-80 -5 -152 -16l-37 -195l42 15q41 14 68.5 21.5t45.5 7.5q27 0 44 -19.5
t17 -44.5q0 -43 -45 -57q-12 -4 -85 -26t-111 -34q-13 -84 -20 -155z" />
    <glyph glyph-name="F" unicode="F" horiz-adv-x="474" 
d="M175 572l-40 -11q-12 -2 -18 -2q-27 0 -43.5 19t-16.5 44q0 45 45 57q116 33 253 72q131 38 147 38q26 0 42 -18.5t16 -43.5q0 -48 -45 -58l-213 -61q-16 -134 -25 -200l119 43q7 3 16 3q27 0 44.5 -19t17.5 -43q0 -15 -8 -30.5t-22 -22.5l-185 -69l-52 -348
q-4 -21 -21 -32.5t-38 -11.5q-24 0 -43 16t-19 45l43 281q-3 -1 -13 -4t-16 -3q-24 0 -42 19t-18 44q0 13 6.5 24.5t13.5 18.5t24.5 15.5t28 12t35.5 12.5z" />
    <glyph glyph-name="G" unicode="G" horiz-adv-x="572" 
d="M387 345h-30q-26 0 -44 18t-18 43q0 26 18.5 44t43.5 18h152q25 0 43.5 -17t18.5 -44q-8 -106 -45.5 -236.5t-89.5 -220.5q-33 -58 -78.5 -106.5t-87.5 -48.5q-23 0 -41.5 17.5t-18.5 43.5q0 34 31 54q93 59 157 267q-144 -135 -241 -135q-63 0 -92.5 42.5t-29.5 104.5
q0 109 64.5 226t160.5 220q150 159 217 159q23 0 42 -17t19 -45q0 -15 -10.5 -29.5t-21.5 -23t-32 -21.5t-29 -19q-100 -73 -193.5 -206.5t-93.5 -242.5q0 -9 2 -25q61 14 126.5 68t100.5 112z" />
    <glyph glyph-name="H" unicode="H" horiz-adv-x="602" 
d="M561 464q4 1 12 1q26 0 42.5 -19t16.5 -44q0 -11 -4.5 -21t-9 -16t-17 -14t-18 -11t-22.5 -11t-21 -10q-36 -246 -59 -330q-5 -20 -22 -32.5t-37 -12.5q-27 0 -44 18.5t-17 43.5q0 7 2 15q24 113 45 241q-83 -32 -173 -60l-60 -257q-7 -30 -11 -43.5t-13.5 -36t-23 -32.5
t-31.5 -10q-24 0 -42 18t-18 43q0 5 2 17l62 263l-17 -4q-6 -2 -17 -2q-28 0 -44.5 18.5t-16.5 43.5q0 21 10 35t32 22.5t38 12.5t46 9l73 348q1 4 5 24t5.5 26.5t6.5 23t9.5 23t11.5 16t16.5 13t20.5 3.5q23 0 42.5 -17.5t19.5 -44.5q0 -12 -6 -36l-70 -338q85 29 164 64
q34 189 48 356q2 28 20 45t42 17q22 0 41.5 -17.5t19.5 -44.5q0 -42 -39 -296z" />
    <glyph glyph-name="I" unicode="I" horiz-adv-x="467" 
d="M251 672q-24 2 -35.5 3t-30 5t-26.5 10t-15 18t-7 29q0 25 17 43.5t41 18.5q2 0 5.5 -0.5t5.5 -0.5q65 -5 111 -5q22 0 64.5 5t50.5 5q28 0 43.5 -20.5t15.5 -41.5t-9 -35t-29.5 -20.5t-34.5 -8.5t-44 -5q-39 -261 -110 -589q36 6 47 6q25 0 42 -19.5t17 -42.5
q0 -14 -8 -30.5t-22 -22.5q-45 -18 -137 -18q-29 0 -78.5 4.5t-63.5 11.5q-30 16 -30 54q0 25 18 42t43 17t45 -4q82 354 114 591z" />
    <glyph glyph-name="J" unicode="J" horiz-adv-x="508" 
d="M422 582l-288 91q-20 7 -33 23t-13 35q0 26 19 44.5t43 18.5q9 0 18 -3l338 -108q45 -13 45 -58q-4 -36 -8.5 -74t-14.5 -106t-24 -129t-32.5 -132.5t-44 -129t-55.5 -106.5t-70 -76t-84 -27t-78.5 21t-54 52t-32 73t-16.5 79.5t-4 75.5q0 25 18.5 43t43.5 18t43 -18
t18 -43q0 -21 1.5 -41.5t6.5 -56.5t19 -58t35 -22q18 0 36 27q58 82 108 267t60 320z" />
    <glyph glyph-name="K" unicode="K" horiz-adv-x="570" 
d="M433 92q19 0 52 38t57 38q25 0 42 -19.5t17 -44.5q0 -16 -9 -28q-78 -107 -160 -107q-40 0 -74 24t-55.5 55t-52.5 66.5t-61 51.5q-14 -76 -14 -117q0 -25 -18.5 -43t-43.5 -18t-43 18t-18 43q0 34 10 94q-30 18 -30 52q0 20 13.5 37t36.5 24q50 261 115 442
q7 22 24 33.5t37 11.5t39.5 -16t19.5 -41q0 -14 -21 -75q-50 -151 -74 -283q177 129 240 420q4 20 22 33t37 13q23 0 42.5 -17.5t19.5 -44.5q0 -126 -82.5 -260t-196.5 -236q28 -24 55 -61.5t44 -60t30 -22.5z" />
    <glyph glyph-name="L" unicode="L" horiz-adv-x="410" 
d="M197 96q80 13 165 38q9 3 17 3q26 0 43 -19.5t17 -44.5q0 -43 -44 -58q-154 -52 -350 -70q-23 0 -41 18.5t-18 43.5q0 20 13 37.5t33 21.5l36 7q71 418 155 689q14 44 58 44q25 0 44 -16.5t19 -42.5q0 -9 -3 -18q-99 -319 -144 -633z" />
    <glyph glyph-name="M" unicode="M" horiz-adv-x="834" 
d="M592 502l-30 -156q50 94 108 181q2 3 12 18.5t14 20.5t13.5 16.5t16 16t17 9t20.5 4.5q24 0 42.5 -18t18.5 -43q0 -5 -2 -17q-39 -203 -39 -485q0 -25 -18 -43t-43 -18t-43.5 18t-18.5 43q0 123 6 231q-87 -165 -136 -299q-16 -45 -60 -45q-24 0 -42 18.5t-18 42.5
q0 130 22 296q-136 -250 -191 -400q-16 -45 -58 -45q-25 0 -44 18t-19 44q0 35 8 105q26 212 125 566q-44 -42 -83 -86q-2 -3 -16.5 -20t-20 -22t-18 -12t-25.5 -7q-26 0 -44.5 18.5t-18.5 43.5q0 22 18 43q52 64 134.5 141t156.5 125q15 9 30 9q26 0 44 -18t18 -43
q0 -7 -3.5 -21.5t-10 -34.5t-8.5 -29l-90 -333l126 226q2 3 11 19.5t14.5 26.5t16.5 26.5t20 25.5t21.5 16.5t23.5 7.5q30 0 47 -20t17 -44q0 -4 -21 -117z" />
    <glyph glyph-name="N" unicode="N" horiz-adv-x="601" 
d="M265 305q87 124 162 295q17 45 60 45q91 0 91 -272q0 -203 -48 -347q-15 -44 -58 -44q-25 0 -44 17t-19 43q0 6 2 18q44 157 44 326q-79 -140 -244 -396q-4 -5 -13 -21t-14.5 -24t-15.5 -18.5t-21 -15.5t-24 -5q-25 0 -43 18t-18 44q0 11 2 16q85 313 136 613
q-46 -41 -110 -112q-17 -17 -43 -17q-25 0 -43.5 17t-18.5 44q0 25 18 44q62 70 154 154t130 84q29 0 45 -20.5t16 -56.5q-38 -249 -83 -429z" />
    <glyph glyph-name="O" unicode="O" horiz-adv-x="540" 
d="M514 672q-40 -11 -77 -30q12 5 24 5q25 0 44 -23t29 -61t14.5 -77.5t4.5 -80.5q0 -54 -15 -112t-44.5 -112.5t-69 -97.5t-93.5 -69.5t-113 -26.5q-51 0 -88 22t-56 58.5t-27.5 74.5t-8.5 78q0 149 94.5 295.5t228.5 224.5q90 52 137 52q27 0 43.5 -19t16.5 -44
q0 -45 -44 -57zM430 406q0 67 -28 163q-3 9 -3 17q0 32 28 50q-113 -61 -189.5 -175.5t-76.5 -234.5q0 -118 57 -118q87 0 149.5 95t62.5 203z" />
    <glyph glyph-name="P" unicode="P" horiz-adv-x="545" 
d="M59 -108l139 761q-18 11 -35 17q-11 4 -31.5 9t-34 9t-27.5 11.5t-21.5 20.5t-7.5 32q0 23 17 41.5t40 18.5q66 -6 141.5 -42.5t140 -91.5t107 -131t42.5 -151q0 -63 -22 -107t-63.5 -68t-92.5 -34.5t-119 -10.5l-52 -301q-4 -20 -21.5 -32t-38.5 -12t-41.5 14.5
t-20.5 38.5q0 5 1 8zM307 575l-52 -276q31 0 47 1t39.5 5.5t35 14t20.5 27.5t9 45q0 92 -99 183z" />
    <glyph glyph-name="Q" unicode="Q" 
d="M452 99q66 -47 144 -79q46 -21 46 -58q0 -25 -18 -44t-45 -19q-33 0 -110 45.5t-121 81.5q-62 -28 -118 -28q-84 0 -139 57t-55 159q0 144 103.5 284t240.5 215q79 45 132 45q28 0 44.5 -17.5t16.5 -42.5q0 -18 -12 -32t-23.5 -19.5t-36.5 -14.5t-31 -11
q-112 -46 -212 -167t-100 -238q0 -96 72 -96q19 0 34 5q-36 57 -36 94q0 27 18.5 43.5t42.5 16.5q43 0 59 -44q9 -27 21 -46q73 76 73 187q0 23 -11 67.5t-11 65.5q0 26 17 44t45 18q24 0 41 -18.5t25.5 -49.5t12 -62.5t3.5 -65.5q0 -164 -112 -276z" />
    <glyph glyph-name="R" unicode="R" horiz-adv-x="526" 
d="M265 706q43 -26 84 -57t83.5 -72.5t68 -91t25.5 -97.5q0 -63 -50.5 -117.5t-119.5 -70.5q68 -184 130 -262q17 -20 17 -42q0 -27 -18 -44.5t-42 -17.5t-45 18q-38 34 -86 139t-84 203l-16 1q-21 -103 -38 -163q-13 -45 -57 -45q-25 0 -44 17t-19 44q0 11 1 17
q71 267 84 567q-18 10 -54 21q-44 14 -44 58q0 25 16.5 44t42.5 19q14 0 48 -12q16 35 54 35q25 0 44 -17t19 -45v-29zM231 317q40 -4 45 -4q43 0 85.5 20t42.5 56q0 41 -50.5 93.5t-95.5 80.5q-6 -107 -27 -246z" />
    <glyph glyph-name="S" unicode="S" horiz-adv-x="472" 
d="M311 284q-59 -17 -95 -17q-51 0 -91.5 35.5t-40.5 99.5q0 57 35 117.5t91.5 110.5t109.5 87t105 65q13 8 31 8q28 0 45 -18.5t17 -42.5q0 -37 -31 -53q-35 -18 -77.5 -46.5t-91 -67t-80.5 -81t-32 -77.5q0 -15 12 -15q22 0 70 16.5t73 16.5q34 0 59 -24t25 -64
q0 -112 -95 -218t-237 -182q-15 -7 -32 -7q-24 0 -42.5 17t-18.5 44q0 35 31 53q45 26 76.5 47t73 53.5t70 68.5t40.5 74z" />
    <glyph glyph-name="T" unicode="T" horiz-adv-x="502" 
d="M228 610l-150 -41q-6 -2 -18 -2q-26 0 -43 19t-17 44q0 43 45 58q235 77 487 95q25 0 41.5 -18.5t16.5 -43.5q0 -19 -13 -37.5t-33 -21.5t-56 -6.5t-66 -7.5t-57 -10q-102 -323 -102 -472q0 -33 6 -54q26 0 57 26q8 6 21 23.5t26.5 26.5t33.5 9q27 0 44 -18t17 -43
q0 -47 -70.5 -97.5t-132.5 -50.5q-65 0 -94.5 48t-29.5 127q0 156 87 447z" />
    <glyph glyph-name="U" unicode="U" horiz-adv-x="638" 
d="M516 75q20 14 40 42.5t35 48t29 19.5q25 0 43.5 -17t18.5 -46q0 -54 -67 -123t-121 -69q-101 0 -101 152q0 33 8 99q-20 -30 -29 -43t-30.5 -41.5t-37.5 -43t-37.5 -32.5t-44 -25.5t-45.5 -7.5q-33 0 -52 25t-19 58q0 90 41.5 265.5t42.5 268.5q-18 -20 -27 -56
q-6 -23 -11 -35.5t-20.5 -26t-38.5 -13.5q-26 0 -44 18.5t-18 43.5q0 17 14 54t38 79.5t63.5 74t81.5 31.5q47 0 67.5 -38t20.5 -94q0 -28 -5 -63q-31 -244 -74 -414q11 0 25 12t32 38t33.5 50t38.5 65.5t35.5 65t36 68.5t30.5 58q30 59 76 59q24 0 42 -16.5t18 -44.5
q0 -6 -2 -16q-86 -254 -86 -430z" />
    <glyph glyph-name="V" unicode="V" horiz-adv-x="508" 
d="M235 98q63 70 103 178t54 217q1 8 3 23.5t3 24t3 23t4.5 23t6 19.5t8 17.5t10.5 12.5t14 9t17 3q24 0 43 -17t19 -44q-1 -78 -17 -165.5t-48 -180.5t-89.5 -174.5t-132.5 -127.5q-14 -9 -30 -9q-104 0 -104 290q0 179 68 376q-2 -2 -14.5 -13.5t-17.5 -15.5t-16.5 -13
t-18.5 -13t-16.5 -7.5t-17.5 -3.5q-24 0 -38.5 17t-14.5 44q0 30 32 58q59 54 108 85t116 58q5 2 16 2q25 0 44 -18t19 -42q0 -13 -9 -33q-50 -105 -84 -235t-34 -250q0 -64 11 -118z" />
    <glyph glyph-name="W" unicode="W" horiz-adv-x="679" 
d="M524 168q21 59 21 173q0 179 -34 313q-2 6 -2 17q0 24 17 42.5t43 18.5q21 0 38 -12.5t23 -32.5q37 -138 37 -353q0 -303 -145 -303q-97 0 -141 181q-118 -229 -220 -229q-51 0 -75.5 39.5t-24.5 95.5q0 64 24.5 149t60 184.5t49.5 161.5q-10 -8 -32 -32.5t-39.5 -37
t-36.5 -12.5q-25 0 -40.5 17t-15.5 44q0 23 8 32q99 106 202 161q17 9 31 9q25 0 43.5 -18.5t18.5 -43.5q0 -87 -68.5 -308t-80.5 -292q44 49 88.5 137.5t74.5 171.5q17 45 61 45q16 0 27.5 -6t18 -14.5t11 -25t6 -29t4.5 -35.5t5 -36q18 -122 43 -172z" />
    <glyph glyph-name="X" unicode="X" horiz-adv-x="575" 
d="M487 119q8 0 14.5 17t11.5 37.5t19 37.5t36 17q27 0 44 -18t17 -44q0 -58 -40.5 -118.5t-100.5 -60.5q-30 0 -60 21t-56.5 58.5t-45 70t-38.5 75.5l-48 -72q-117 -177 -133 -195q-19 -18 -46 -18q-25 0 -42 19.5t-17 44.5q0 17 9 31q103 130 216 323q-98 227 -131 367
q-2 12 -2 16q0 25 16.5 43t43.5 18q21 0 37.5 -12t22.5 -32q40 -139 93 -273q60 83 126 217l7.5 15l8.5 17t8.5 14.5t11 14.5t12 10t16 8t18.5 2q24 0 41.5 -18.5t17.5 -43.5q0 -14 -9 -30q-59 -128 -199 -344q20 -51 55.5 -116.5t65.5 -98.5z" />
    <glyph glyph-name="Y" unicode="Y" horiz-adv-x="567" 
d="M224 209q110 108 186 247q9 14 20.5 36.5t18 33.5t20 20t31.5 9q25 0 42.5 -18.5t17.5 -43.5q0 -98 -21 -229q-9 -60 -22 -112.5t-37.5 -115t-55.5 -106.5t-80 -74t-107 -30q-18 0 -40 4t-46 12.5t-39.5 25.5t-15.5 40q0 26 19.5 44t44.5 18q11 0 36 -11.5t43 -11.5
q35 0 67.5 33.5t53.5 81.5t34 94.5t16 79.5q-126 -176 -210 -176q-51 0 -75 37.5t-24 91.5q0 91 65 244q4 10 22.5 51t24.5 56.5t13.5 43.5t7.5 51q-23 -16 -43 -45q-6 -9 -17 -29.5t-18 -31t-21.5 -20t-32.5 -9.5q-26 0 -43.5 18.5t-17.5 43.5q0 9 3 15q30 82 106 149
t149 67q64 0 64 -100q0 -45 -13 -101.5t-26.5 -94.5t-40 -104t-35.5 -91q-20 -56 -24 -93z" />
    <glyph glyph-name="Z" unicode="Z" horiz-adv-x="580" 
d="M229 130l289 47q22 0 37.5 -20.5t15.5 -41.5q0 -18 -11 -36.5t-34 -23.5q-363 -68 -412 -68q-22 0 -40.5 19t-18.5 42q0 15 8 31l110 208q-54 -13 -93 -13q-24 0 -42 18.5t-18 42.5q0 21 12.5 38t33.5 22l12 2q89 13 169 27l127 230q-127 7 -249 7q-28 0 -44 18.5
t-16 43.5q0 24 15.5 42.5t44.5 18.5q217 0 351 -13q27 -2 44.5 -19.5t17.5 -40.5q0 -17 -9 -32l-120 -216q7 2 26.5 9t31 11t27 7.5t24.5 3.5q24 0 42 -18t18 -43q0 -22 -12.5 -38t-32.5 -21q-94 -34 -205 -58z" />
    <glyph glyph-name="bracketleft" unicode="[" horiz-adv-x="446" 
d="M172 5l153 27q1 0 4 0.5t5 0.5q25 0 40 -18.5t15 -42.5q0 -34 -63.5 -59.5t-128.5 -35.5t-107 -10q-29 0 -43 19.5t-14 48.5q0 16 5 34l159 730q1 4 4.5 21t5 23.5t6 20t9.5 19.5t13.5 12.5t18.5 8.5l220 38q24 0 42 -18t18 -44q0 -9 -3 -17t-10 -14.5t-14.5 -11.5
t-21 -9.5t-24.5 -7.5t-30 -7t-33 -6.5t-37.5 -7t-39.5 -7.5z" />
    <glyph glyph-name="backslash" unicode="\" horiz-adv-x="481" 
d="M48 778q0 -1 101.5 -179.5t188 -334.5t185.5 -341q9 -17 9 -32q0 -25 -20 -42.5t-44 -17.5q-34 0 -51 31q-80 141 -252.5 451t-222.5 403q-9 16 -9 32q0 25 20 43t44 18q33 0 51 -31z" />
    <glyph glyph-name="bracketright" unicode="]" horiz-adv-x="515" 
d="M388 704l-153 -27q-27 0 -45.5 18t-18.5 42q0 46 112 75.5t187 29.5q29 0 43 -19.5t14 -48.5q0 -16 -5 -34l-159 -730q-1 -4 -4.5 -21t-5 -23.5t-6 -20t-9.5 -19.5t-13.5 -12.5t-18.5 -8.5l-220 -38q-24 0 -42 18t-18 44q0 9 3 17t10 14.5t14.5 11.5t21 9.5t24.5 7.5
t30 7t33 6.5t37.5 7t39.5 7.5z" />
    <glyph glyph-name="asciicircum" unicode="^" horiz-adv-x="343" 
d="M174 619l-65 -129q-16 -28 -48 -28q-21 0 -38 14.5t-17 39.5q0 15 8 29q97 211 139 236q11 7 27 7q34 0 48 -27l4 -8q75 -148 102 -225q3 -8 3 -15q0 -23 -16.5 -39t-38.5 -16q-16 0 -29.5 11.5t-19.5 22t-14 29.5l-5 11q-4 9 -7.5 16.5t-12.5 27.5t-20 43z" />
    <glyph glyph-name="underscore" unicode="_" horiz-adv-x="427" 
d="M60 -169h-5q-25 0 -39 17t-14 39q0 21 11 34.5t35.5 18.5t44 6.5t55.5 1.5h151q31 0 51.5 -2t40 -8t28.5 -18.5t9 -32.5q0 -32 -18 -43.5t-52 -11.5q-13 0 -109 1t-116 1q-47 0 -73 -3z" />
    <glyph glyph-name="grave" unicode="`" horiz-adv-x="229" 
d="M179 535q-30 0 -80.5 62.5t-50.5 86.5q0 22 15 37.5t38 15.5q11 0 25.5 -11t24.5 -22t27 -32t22 -27q2 -2 7.5 -8.5t8 -9t6.5 -8.5t6 -10t3.5 -10t1.5 -12q0 -23 -15.5 -37.5t-38.5 -14.5z" />
    <glyph glyph-name="a" unicode="a" horiz-adv-x="417" 
d="M123 110q97 38 131 145q5 15 22.5 26t33.5 11q25 0 43 -19t18 -43q0 -11 -13.5 -41.5t-13.5 -51.5q0 -27 11 -27q27 0 63 35.5t59 35.5q25 0 44 -18t19 -44q0 -33 -58 -80q-66 -51 -125 -51q-32 0 -65 16.5t-48 45.5q-68 -64 -126 -64q-52 0 -85 34.5t-33 88.5
q0 81 75.5 191t159.5 164q50 33 93 33q45 0 74.5 -33t29.5 -80q0 -36 -19 -68t-51 -32q-24 0 -43 16.5t-19 42.5l7 33q-49 -21 -116.5 -112t-67.5 -154z" />
    <glyph glyph-name="b" unicode="b" horiz-adv-x="401" 
d="M340 292q17 -4 48.5 -6t52 -4.5t37 -16.5t16.5 -42q0 -25 -18 -43.5t-43 -18.5q-49 0 -105 8q-37 -181 -163 -181q-146 0 -146 262q0 174 51 398q1 5 5.5 27t7 31t9 26.5t13.5 25t19 14.5t27 7q24 0 42.5 -17.5t18.5 -43.5q0 -12 -2 -17q-26 -86 -47 -221t-21 -237
q0 -42 6 -87t18 -45q22 1 33 40.5t14 76.5q-28 34 -28 78q0 34 21.5 62.5t59.5 28.5q74 0 74 -105z" />
    <glyph glyph-name="c" unicode="c" horiz-adv-x="316" 
d="M189 346q-22 -20 -39.5 -74t-17.5 -105q0 -56 23 -56q35 0 71 23.5t64 63.5q22 31 53 31q25 0 43.5 -19t18.5 -44q0 -17 -8 -29q-42 -64 -109 -106.5t-136 -42.5q-70 0 -106 52.5t-36 126.5q0 73 22.5 140t70 113t109.5 46q50 0 76.5 -31.5t26.5 -76.5q0 -17 -2 -33.5
t-8.5 -37.5t-20.5 -34t-34 -13q-29 0 -45 34.5t-16 71.5z" />
    <glyph glyph-name="d" unicode="d" horiz-adv-x="399" 
d="M225 492q-24 89 -81 195q-7 19 -7 26v5q1 25 16 43t45 18q36 0 53 -30q59 -99 95.5 -220t36.5 -230q0 -45 -12 -95.5t-36 -100.5t-66.5 -82.5t-96.5 -32.5q-75 0 -118.5 48.5t-43.5 120.5q0 76 29 154.5t76.5 130.5t96.5 52q5 0 13 -2zM252 385q-37 -6 -66 -47.5t-42 -91
t-13 -92.5t35 -43q31 0 54 35t31.5 75.5t8.5 77.5q0 41 -8 86z" />
    <glyph glyph-name="e" unicode="e" horiz-adv-x="352" 
d="M134 186q2 -30 17 -52.5t42 -22.5q47 0 90 37q6 5 23 24t30.5 27t30.5 8q26 0 44.5 -18t18.5 -46q0 -15 -8 -28q-40 -54 -103.5 -90.5t-126.5 -36.5q-83 0 -132.5 64t-49.5 156q0 109 62 188.5t151 79.5q56 0 86.5 -38t30.5 -86q0 -66 -50 -119t-115 -53q-20 0 -41 6z
M217 363q-29 0 -50.5 -23.5t-23.5 -52.5q35 0 54.5 20.5t19.5 55.5z" />
    <glyph glyph-name="f" unicode="f" horiz-adv-x="353" 
d="M35 195q31 235 83 407q53 176 122 176q36 0 64.5 -34.5t43 -85t22 -96t7.5 -77.5q0 -26 -4 -61.5t-14 -82.5t-33 -78.5t-56 -31.5q-26 0 -43 19t-17 43q0 18 8 31q37 71 37 156q0 52 -14 106q-49 -121 -86 -410q12 3 40 18t40 15q21 0 37 -16t16 -37q0 -24 -27 -44.5
t-58.5 -31t-59.5 -13.5q-12 -108 -12 -189q0 -29 -18 -45t-43 -16q-26 0 -43.5 18t-17.5 53q0 82 13 197q-32 13 -47.5 27t-15.5 35t14.5 37.5t36.5 16.5q14 0 25 -6z" />
    <glyph glyph-name="g" unicode="g" horiz-adv-x="451" 
d="M133 113q39 0 52 6q36 15 72 65.5t54 97.5q17 45 58 45q27 0 44.5 -21.5t17.5 -58.5q0 -82 -17.5 -160t-52 -145.5t-94 -108.5t-135.5 -41q-26 0 -43.5 18.5t-17.5 42.5q0 33 19.5 45.5t51.5 17.5q86 13 122 107q-50 -33 -118 -33q-59 0 -97.5 32t-38.5 86q0 69 55.5 147
t118.5 129q120 99 197 99q26 0 43 -17.5t17 -43.5q0 -21 -12 -39.5t-32 -19.5q-40 -4 -97.5 -42.5t-106.5 -97t-60 -110.5z" />
    <glyph glyph-name="h" unicode="h" horiz-adv-x="445" 
d="M338 130q23 10 39.5 33.5t24.5 45.5t23 39.5t37 17.5q26 0 44.5 -18t18.5 -43q0 -8 -3 -17q-23 -71 -71 -126t-112 -55q-62 0 -93 36.5t-31 94.5q3 34 13 77q-74 -52 -74 -181q0 -23 -18 -39.5t-44 -16.5q-47 0 -61 61t-14 189q0 222 104 506q17 45 61 45q22 0 41 -17.5
t19 -44.5q0 -6 -2 -16q-82 -233 -96 -386q63 95 129 95q44 0 69.5 -31.5t25.5 -73.5q0 -30 -15 -91t-15 -84z" />
    <glyph glyph-name="i" unicode="i" horiz-adv-x="283" 
d="M140 113q8 0 29 23.5t47 46.5t46 23q25 0 44 -18t19 -44q0 -37 -68.5 -96.5t-127.5 -59.5q-51 0 -81.5 35.5t-30.5 85.5q0 70 30.5 178t66.5 172q16 30 55 30q24 0 42.5 -18.5t18.5 -43.5q0 -9 -7 -24q-83 -199 -83 -290zM220 534q-25 0 -43.5 18t-18.5 44q0 8 21 72
q14 45 58 45q25 0 44 -18.5t19 -43.5q0 -7 -21 -72q-7 -21 -23 -33t-36 -12z" />
    <glyph glyph-name="j" unicode="j" horiz-adv-x="249" 
d="M147 75q10 17 16 25.5t19 16.5t30 8q25 0 43.5 -18.5t18.5 -44.5q0 -16 -9 -30q-73 -119 -103 -188q-4 -10 -10.5 -28.5t-11 -29t-12 -22.5t-19 -17.5t-26.5 -5.5q-17 0 -29 5t-19 18t-11.5 24t-6 34.5t-2 38.5t-0.5 46q1 294 88 539q7 21 23.5 33t35.5 12q25 0 44 -18.5
t19 -42.5q0 -6 -2 -16q-54 -154 -76 -339zM208 535q-24 0 -42.5 18t-18.5 44q0 8 20 72q7 21 22.5 33t35.5 12q25 0 44 -18.5t19 -43.5q0 -10 -20 -72q-14 -45 -60 -45z" />
    <glyph glyph-name="k" unicode="k" horiz-adv-x="427" 
d="M300 111q24 6 62.5 46t64.5 40q25 0 43.5 -18t18.5 -43q0 -18 -19 -43q-82 -105 -172 -105q-51 0 -84 36t-47 90q-6 -12 -18 -39t-19 -39.5t-21 -24t-32 -11.5q-27 0 -44 18.5t-18 42.5q24 394 102 673q13 45 57 45q25 0 44 -17t19 -42q0 -5 -2 -19q-51 -173 -65 -339
q105 161 185 161q25 0 43 -17.5t18 -43.5q0 -34 -45 -59q-25 -15 -50 -42t-39 -51q-9 -52 -9 -92q0 -76 27 -107z" />
    <glyph glyph-name="l" unicode="l" horiz-adv-x="250" 
d="M303 249q24 0 43 -19t19 -44q0 -5 -2 -15q-24 -69 -82 -126.5t-118 -57.5q-74 0 -110 63t-36 162q0 185 101 477l9 25.5t10.5 23.5t14.5 22t18.5 13t25.5 6q24 0 43.5 -16t19.5 -43q0 -13 -9 -33q-35 -79 -72.5 -225.5t-37.5 -246.5q0 -105 23 -105q23 1 42 23t29.5 48
t28.5 47t40 21z" />
    <glyph glyph-name="m" unicode="m" horiz-adv-x="610" 
d="M543 192q2 3 9.5 13.5t11 15t10.5 13t12 13t12 10t14 7.5t14 2q25 0 44 -18.5t19 -42.5q0 -38 -85 -131q-75 -83 -114 -83q-18 0 -30 7.5t-19 17.5t-11 32t-5 38l-3 48q-62 -81 -83.5 -103t-44.5 -22t-37.5 12t-20.5 34t-8 40.5t-2 45.5l-84 -122q-21 -31 -52 -31
q-25 0 -41 14t-22 40.5t-7.5 44t-1.5 44.5q0 147 91 327q15 30 53 30q26 0 44 -17.5t18 -45.5q0 -9 -2 -15q-37 -74 -59 -144l98 144q22 30 54 30q23 0 41.5 -18.5t18.5 -41.5q0 -11 -2 -17q-18 -50 -18 -112q44 59 84 130q17 30 52 30q23 0 42.5 -16.5t19.5 -41.5
q-10 -92 -10 -161z" />
    <glyph glyph-name="n" unicode="n" horiz-adv-x="408" 
d="M305 166q20 27 50 85q16 30 50 30q25 0 44.5 -16.5t19.5 -42.5q0 -17 -8 -33q-32 -66 -77.5 -120t-97.5 -54q-35 0 -62.5 20.5t-40.5 55.5l-51 -72q-21 -31 -53 -31q-20 0 -34 10.5t-21 24t-10.5 37t-4 37.5t-0.5 38q0 141 58 325q14 44 57 44q25 0 44.5 -16.5
t19.5 -42.5q0 -9 -8 -35q-28 -94 -39 -162q17 26 36 55.5t42 65.5t36 56q20 30 53 30q25 0 43 -17t18 -43q0 -11 -1 -17q-3 -9 -12 -34t-13 -36t-11.5 -33t-11.5 -37t-8 -34.5t-7 -37.5z" />
    <glyph glyph-name="o" unicode="o" horiz-adv-x="396" 
d="M227 476q6 0 17 -1.5t38 -14t47.5 -34.5t37.5 -70t17 -113q0 -104 -61.5 -180.5t-157.5 -76.5q-57 0 -93 31t-48 70.5t-12 87.5q0 113 63.5 207t151.5 94zM219 357q-39 0 -64 -63t-25 -115q0 -17 3 -33.5t13.5 -32.5t27.5 -16q29 0 56.5 40.5t32.5 107.5q1 7 1 24
q0 88 -45 88z" />
    <glyph glyph-name="p" unicode="p" horiz-adv-x="422" 
d="M206 422q32 17 64 17q62 0 96.5 -58t34.5 -145q0 -103 -45 -181t-122 -78q-38 0 -88 31q0 -45 20 -123t20 -80q0 -31 -20.5 -47.5t-43.5 -16.5q-15 0 -30 8t-21 21q-48 100 -48 262q0 212 63 402q14 46 59 46q24 0 42 -16t19 -42zM171 121q19 -25 47 -25q32 0 45.5 49.5
t13.5 99.5q0 47 -12 68q-39 0 -66.5 -59.5t-27.5 -132.5z" />
    <glyph glyph-name="q" unicode="q" horiz-adv-x="430" 
d="M251 9q-69 -45 -127 -45q-52 0 -83 35t-31 86q0 81 51 163.5t121 136.5q46 35 102.5 63t103.5 28q23 0 41 -18t18 -42q0 -21 -12 -38.5t-32 -21.5q-35 -8 -66 -18q-70 -23 -134.5 -98.5t-69.5 -150.5q51 13 87 53.5t45 95.5q10 62 61 62q26 0 44 -17.5t18 -43.5
q0 -135 -12.5 -222t-58.5 -231q-7 -21 -24 -33t-37 -12q-24 0 -42 18.5t-18 43.5q0 7 3 15q40 126 52 191z" />
    <glyph glyph-name="r" unicode="r" horiz-adv-x="371" 
d="M198 446q0 -8 -3 -19.5t-5 -18.5l-3 -8q46 27 86 27q43 0 70 -37.5t27 -96.5q0 -35 -10 -74t-32 -69t-50 -30q-25 0 -44.5 18t-19.5 43q0 13 16.5 50t16.5 63q-107 -38 -107 -186q0 -12 1.5 -39t1.5 -43q0 -25 -18.5 -41.5t-43.5 -16.5q-19 0 -37 12.5t-22 32.5
q-5 28 -5 74q0 204 61 375q6 19 22 32t36 13q24 0 43 -18t19 -43z" />
    <glyph glyph-name="s" unicode="s" horiz-adv-x="333" 
d="M147 275q0 -11 25.5 -37t51 -62t25.5 -70q0 -84 -75 -133.5t-159 -49.5q-25 0 -43 18.5t-18 43.5q0 31 26.5 46t59 17.5t59 16t26.5 42.5q0 23 -25.5 50.5t-51 57t-25.5 59.5q0 77 89 144t154 67q26 0 44 -16t18 -46q0 -15 -8 -28.5t-23 -17.5q-46 -13 -98 -42t-52 -60z
" />
    <glyph glyph-name="t" unicode="t" horiz-adv-x="282" 
d="M148 111q24 0 41.5 17t27 37.5t26.5 37.5t39 17q26 0 44.5 -18.5t18.5 -43.5q0 -8 -3 -16q-21 -62 -74.5 -108t-120.5 -46q-48 0 -78 27.5t-41 66t-11 87.5q0 77 31 209q-18 8 -28 14t-20.5 19t-10.5 29q0 26 18 45t44 19q22 -2 29 -7q2 5 6.5 21.5t6.5 23t7 19.5
t10 19.5t12 14t16.5 10.5t20.5 3q24 0 43 -18t19 -43q0 -22 -27 -98q25 -8 39 -13.5t32 -22t18 -38.5q0 -27 -17.5 -46t-43.5 -19q-23 2 -59 20q-26 -95 -26 -160q0 -40 11 -59z" />
    <glyph glyph-name="u" unicode="u" horiz-adv-x="415" 
d="M332 126q19 11 52.5 46t49.5 35q27 0 45.5 -17t18.5 -44q0 -40 -66.5 -99t-120.5 -59q-38 0 -63.5 24t-32.5 61q-58 -53 -107 -53q-51 0 -74.5 38.5t-23.5 95.5q0 69 27 157.5t59 150.5q15 30 51 30q24 0 43 -16.5t19 -43.5q0 -23 -24 -69q-22 -40 -37 -97t-15 -102
q58 23 112 167q1 4 6.5 18t8.5 21t9.5 19t13 18.5t16.5 11.5t22 5q28 0 45 -18.5t17 -43.5q0 -11 -3.5 -23t-10.5 -27t-9 -22q-28 -80 -28 -164z" />
    <glyph glyph-name="v" unicode="v" horiz-adv-x="355" 
d="M134 168q102 105 122 338q5 68 62 68q27 0 44 -18t17 -44q0 -98 -40.5 -220t-106.5 -203q-28 -35 -70 -68t-66 -33q-25 0 -43 20t-27 53t-12.5 66t-3.5 68q0 124 51 275q7 20 22.5 32.5t35.5 12.5q25 0 44.5 -18t19.5 -44q0 -7 -11 -44q-3 -11 -11 -38.5t-11.5 -42
t-9 -37.5t-7.5 -43.5t-2 -40.5q0 -19 3 -39z" />
    <glyph glyph-name="w" unicode="w" horiz-adv-x="480" 
d="M308 163q43 43 43 214q0 11 -3 30.5t-3 29.5q0 27 19.5 43t42.5 16t37.5 -11.5t20.5 -34.5t7.5 -40.5t1.5 -44.5q0 -44 -9.5 -101.5t-28.5 -122t-58 -108t-89 -43.5q-39 0 -65 30q-20 -28 -47.5 -49.5t-51.5 -21.5q-27 0 -48.5 25t-34 62t-19 75t-6.5 70q0 107 57 246
q26 61 66 61q30 0 46 -19t16 -45q0 -7 -2 -15l-12 -27q-48 -100 -49 -202q0 -30 6 -55q35 65 43 149q2 26 19 43.5t42 17.5q24 0 43 -16t19 -40q-3 -51 -3 -116z" />
    <glyph glyph-name="x" unicode="x" horiz-adv-x="470" 
d="M241 279q73 79 114 163q15 31 51 31q27 0 45.5 -18.5t18.5 -46.5q0 -7 -2 -13q-23 -59 -79.5 -130t-114.5 -127q12 -26 25 -26q19 0 50 33.5t56 33.5q23 0 42 -17.5t19 -42.5q0 -43 -58.5 -87t-108.5 -44q-71 0 -121 70q-23 -23 -57.5 -45t-59.5 -22t-43 20t-18 44
q0 33 31 51q64 37 101 71q-19 91 -19 207q0 43 1 65q1 29 19.5 44.5t42.5 15.5q25 0 43 -16t18 -44q0 -16 -1 -40.5t-1 -33.5q0 -54 6 -96z" />
    <glyph glyph-name="y" unicode="y" horiz-adv-x="393" 
d="M140 192q72 47 129 239q6 21 22.5 33t36.5 12q25 0 42.5 -17.5t19.5 -43.5l-6 -38q-58 -247 -61 -259q-54 -202 -128 -257q-35 -27 -78 -27q-46 0 -81 29t-36 75q2 28 18.5 48.5t40.5 20.5q22 0 39 -12t22 -33q9 0 17 7.5t15 23t11.5 26.5t11 31.5t7.5 24.5
q-40 -19 -71 -19q-45 0 -69.5 38.5t-24.5 88.5q0 156 85 337q16 31 52 31q25 0 44.5 -18t19.5 -44q0 -7 -3 -15q-66 -164 -75 -282z" />
    <glyph glyph-name="z" unicode="z" horiz-adv-x="370" 
d="M190 143l44 -24q9 4 41.5 28t52.5 24q25 0 42 -19t17 -44q0 -26 -18 -42q-84 -78 -137 -78q-15 0 -47 18q-74 44 -130 61q-21 6 -33.5 22.5t-12.5 36.5q0 21 11.5 34.5t35.5 30.5q74 53 145 132q-55 21 -95 30q-20 5 -32.5 22.5t-12.5 38.5q0 24 18 42t44 18t101.5 -28.5
t111.5 -50.5q30 -17 30 -53q0 -9 -2 -16.5t-7.5 -15.5t-7.5 -11t-12 -13l-11 -11q-82 -86 -136 -132z" />
    <glyph glyph-name="braceleft" unicode="{" horiz-adv-x="398" 
d="M210 347q45 -54 45 -128q0 -30 -13.5 -89.5t-13.5 -90.5q0 -26 15.5 -38t34 -14t34 -16t15.5 -43q0 -24 -19 -42.5t-43 -18.5l-17 3q-69 10 -105 58t-36 109q0 29 13 89t13 93q0 27 -13 44t-28 24t-28 22t-13 38q0 20 10 33.5t22.5 20.5t26.5 19.5t21 28.5q4 8 6.5 26
t4.5 43t3 30q16 153 71 230t180 77q25 0 43 -18t18 -43t-18 -43.5t-43 -18.5q-40 0 -64.5 -13.5t-38.5 -48.5q-33 -77 -33 -191q0 -71 -50 -132z" />
    <glyph glyph-name="bar" unicode="|" horiz-adv-x="276" 
d="M67 -112l29 830q1 25 20 43t44 18q24 0 41 -17t18 -41l-29 -831q-1 -25 -19.5 -43.5t-43.5 -18.5q-24 0 -42 18t-18 42z" />
    <glyph glyph-name="braceright" unicode="}" horiz-adv-x="427" 
d="M268 375q-45 56 -45 128q0 30 13.5 89.5t13.5 91.5q0 26 -15.5 37.5t-34 13.5t-34 16t-15.5 43q0 24 18.5 42.5t42.5 18.5q81 -12 120 -59.5t39 -110.5q0 -29 -13 -88.5t-13 -92.5q0 -27 13 -44.5t28 -24.5t28 -22t13 -38q0 -25 -15.5 -39t-36.5 -28.5t-29 -34.5
q-13 -39 -13 -99q-16 -153 -71 -230t-180 -77q-25 0 -43.5 18t-18.5 43t18.5 43.5t43.5 18.5q77 0 103 62q33 77 33 191q0 73 50 132z" />
    <glyph glyph-name="asciitilde" unicode="~" horiz-adv-x="457" 
d="M276 399q20 0 36 35q13 28 38 28q20 0 32 -12t12 -30q0 -36 -39 -73t-80 -37q-30 0 -64 29.5t-53 29.5q-10 0 -21.5 -17.5t-26 -35t-31.5 -17.5q-20 0 -32 13.5t-12 30.5q0 39 42 77t80 38q27 0 67.5 -29.5t51.5 -29.5z" />
    <glyph glyph-name="exclamdown" unicode="&#xa1;" horiz-adv-x="307" 
d="M229 315q0 -45 -38 -261.5t-51 -234.5q-22 -28 -58 -28q-24 0 -42.5 17.5t-18.5 43.5q0 27 27.5 165t45.5 213q7 30 11.5 47.5t14 42.5t21.5 37.5t26 12.5q27 0 44.5 -16.5t17.5 -38.5zM198 399q-24 0 -42 18t-18 44l14 77q4 20 21 33t38 13q29 0 45 -18.5t16 -44.5
l-14 -78q-4 -20 -21.5 -32t-38.5 -12z" />
    <glyph glyph-name="cent" unicode="&#xa2;" horiz-adv-x="393" 
d="M160 616q9 52 9 103q0 23 16.5 39.5t38.5 16.5t38.5 -16.5t16.5 -39.5q0 -55 -7 -101q53 -26 53 -96q0 -21 -6 -46t-23.5 -48.5t-44.5 -23.5q-30 0 -44.5 24t-14.5 60q-19 -19 -34.5 -65.5t-15.5 -95.5q0 -52 24 -52q34 0 70.5 24t63.5 63q21 30 53 30q25 0 44 -18.5
t19 -43.5q0 -15 -9 -30q-32 -48 -79.5 -85.5t-100.5 -52.5l-16 -87q-4 -19 -19 -29.5t-34 -10.5q-23 0 -39 15t-17 39l11 71q-46 16 -69.5 64t-23.5 107q0 92 37.5 174t102.5 111z" />
    <glyph glyph-name="sterling" unicode="&#xa3;" horiz-adv-x="729" 
d="M406 154q138 0 284 -51q37 -13 37 -52q0 -27 -21 -48.5t-48 -21.5q-7 0 -16 3q-150 47 -246 47q-103 0 -279 -45q-12 -2 -18 -2q-24 0 -38 16.5t-14 38.5t14.5 40.5t40.5 25.5q90 26 172 37q-7 19 -26 57.5t-27 59.5q-84 -21 -137 -21q-22 0 -37 17t-15 39t9 36.5
t27 21.5t34.5 10t42.5 5t39 5q-13 55 -13 113q0 69 31.5 128.5t79.5 96.5t103 57.5t105 20.5q69 0 127 -36.5t91 -103.5q25 -50 25 -78q0 -27 -22.5 -47t-49.5 -20q-15 0 -29.5 8.5t-18.5 22.5l-5 17q-15 49 -50.5 82t-86.5 33q-64 0 -120.5 -50.5t-56.5 -118.5
q0 -46 14 -93q36 11 91 31q52 19 62 19q22 0 37.5 -16.5t15.5 -39.5q0 -13 -4.5 -24t-16.5 -20t-21 -15.5t-29 -14t-29.5 -11t-34 -11t-31.5 -9.5q49 -107 58 -139z" />
    <glyph glyph-name="currency" unicode="&#xa4;" horiz-adv-x="562" 
d="M382 478l43 46q16 15 37 15t36.5 -17t15.5 -38q0 -18 -16 -34l-48 -51q14 -42 14 -87q0 -93 -44 -168q62 -48 62 -89q0 -25 -12 -39.5t-33 -14.5q-16 0 -39 17t-38 34l-15 18q-36 -17 -70 -17q-51 0 -101 34q-6 -5 -20 -23t-27 -27.5t-30 -9.5q-22 0 -38 15.5t-16 36.5
q0 32 54 79q-36 47 -36 116q0 68 31 138l-42 49q-16 16 -16 36q0 23 16.5 38t37.5 15t36 -16l52 -62q55 35 110 35q50 0 96 -29zM163 280q0 -5 0.5 -13.5t6.5 -29.5t16.5 -37t33.5 -29.5t54 -13.5q45 0 69 46.5t24 108.5q0 41 -22 68.5t-57 27.5q-120 0 -125 -128z" />
    <glyph glyph-name="yen" unicode="&#xa5;" horiz-adv-x="533" 
d="M345 235l166 14q20 0 34.5 -16t14.5 -37q0 -20 -15.5 -35t-36.5 -17l-213 -17l-50 -111q-16 -30 -51 -30q-25 0 -44 16.5t-19 46.5q0 12 25 65l-107 -8q-20 0 -34.5 15.5t-14.5 36.5q0 22 15 36.5t37 16.5l154 13l21 47l-126 -8q-21 0 -34.5 15.5t-13.5 37.5q0 44 58 52
l84 5q-56 117 -125 329q-3 9 -3 17q0 24 18.5 42.5t43.5 18.5q46 0 60 -45l9 -29q54 -166 107 -273l140 316q12 31 52 31q24 0 43.5 -16.5t19.5 -45.5q0 -10 -4 -22.5t-16 -39t-25.5 -55.5t-42.5 -89.5t-57 -122.5l70 5q21 0 35 -16t14 -36q0 -49 -62 -53l-106 -7z" />
    <glyph glyph-name="brokenbar" unicode="&#xa6;" horiz-adv-x="276" 
d="M85 383l11 379q1 25 20 43t44 18q23 0 40.5 -17t18.5 -41l-11 -380q-1 -25 -19.5 -43.5t-43.5 -18.5q-24 0 -42 18t-18 42zM68 -161l11 379q1 25 20 43t44 18q23 0 40.5 -17t18.5 -41l-11 -380q-1 -25 -19.5 -43.5t-43.5 -18.5q-24 0 -42 18t-18 42z" />
    <glyph glyph-name="section" unicode="&#xa7;" horiz-adv-x="517" 
d="M181 602q-9 28 -9 52q0 59 57 112.5t123 53.5q24 0 43 -18t19 -43q0 -40 -46 -59q-2 -1 -16.5 -6.5t-21 -9t-16.5 -9.5t-14.5 -12.5t-4.5 -13.5q0 -17 13 -37q5 -7 31.5 -45.5t33.5 -49.5t25.5 -43t24 -51.5t12 -49t6.5 -58.5q0 -39 -18 -89t-52 -74q3 -16 3 -33
q0 -59 -44.5 -92.5t-104.5 -33.5q-46 0 -85.5 19.5t-39.5 56.5q0 30 18.5 47t43.5 17q13 0 31 -9.5t29 -9.5q30 0 30 8q0 20 -21.5 40.5t-52 40.5t-61 44t-52 59.5t-21.5 76.5q0 60 40.5 121t96.5 98zM238 491q-71 -67 -71 -105q0 -21 17 -38t56 -43t62 -46q17 29 17 53
q0 79 -81 179z" />
    <glyph glyph-name="dieresis" unicode="&#xa8;" horiz-adv-x="359" 
d="M125 691q24 0 42 -18t18 -44l-7 -37q-4 -20 -21 -32.5t-38 -12.5q-29 0 -45 18.5t-16 44.5l7 37q4 20 21.5 32t38.5 12zM290 679q25 0 43 -18t18 -44l-7 -37q-4 -20 -21.5 -32.5t-37.5 -12.5q-29 0 -45 18.5t-16 44.5l6 37q4 19 21.5 31.5t38.5 12.5z" />
    <glyph glyph-name="copyright" unicode="&#xa9;" horiz-adv-x="931" 
d="M132 338q0 117 64 219t169 162t222 60q149 0 247 -101.5t98 -249.5q0 -117 -64 -219t-169.5 -161.5t-222.5 -59.5q-149 0 -246.5 101t-97.5 249zM221 348q0 -114 75 -192t189 -78q138 0 244.5 101.5t106.5 238.5q0 114 -75.5 192t-189.5 78q-138 0 -244 -101.5
t-106 -238.5zM524 511q-22 -20 -39.5 -74t-17.5 -105q0 -56 23 -56q35 0 71 23.5t64 63.5q22 31 53 31q25 0 43.5 -19t18.5 -44q0 -17 -8 -29q-42 -64 -109 -106.5t-136 -42.5q-70 0 -106 52.5t-36 126.5q0 73 22.5 140t70 113t109.5 46q50 0 76.5 -31.5t26.5 -76.5
q0 -17 -2 -33.5t-8.5 -37.5t-20.5 -34t-34 -13q-29 0 -45 34.5t-16 71.5z" />
    <glyph glyph-name="ordfeminine" unicode="&#xaa;" horiz-adv-x="563" 
d="M139 471q29 15 67 59t57 79q14 26 46 26q22 0 38 -15t16 -37q0 -13 -12 -41.5t-12 -45.5q0 -24 11 -24q26 0 58.5 31.5t52.5 31.5q23 0 39 -15t16 -39q0 -41 -59.5 -78.5t-105.5 -37.5q-69 0 -101 57q-31 -30 -56 -44.5t-57 -14.5q-46 0 -76 32t-30 80q0 52 45 131
t110.5 142t117.5 71q16 2 24 2q42 0 66.5 -30.5t24.5 -67.5q0 -34 -16.5 -63t-45.5 -29q-22 0 -39 15.5t-17 37.5q0 11 4 20q-46 -29 -106 -108t-60 -125zM246 325q24 0 42.5 -18t18.5 -44l-7 -37q-4 -20 -21.5 -32.5t-37.5 -12.5q-29 0 -45.5 18.5t-16.5 44.5l7 37
q4 20 21.5 32t38.5 12z" />
    <glyph glyph-name="guillemotleft" unicode="&#xab;" horiz-adv-x="666" 
d="M184 384q155 -107 155 -157q0 -23 -17.5 -40t-40.5 -17q-24 0 -40 17q-92 92 -167 130l-30 15q-12 6 -20.5 20.5t-8.5 28.5q0 30 29 50q91 58 115 77q39 30 96 93q14 18 39 18q23 0 41 -16.5t18 -41.5t-36 -61q-48 -55 -133 -116zM457 384q156 -106 156 -157
q0 -23 -17.5 -40t-40.5 -17q-24 0 -40 17q-92 92 -167 130l-30 15q-13 6 -21 20.5t-8 28.5q0 30 29 50q91 58 115 77q42 34 96 93q14 18 38 18q23 0 41.5 -16.5t18.5 -41.5t-36 -61q-47 -53 -134 -116z" />
    <glyph glyph-name="logicalnot" unicode="&#xac;" horiz-adv-x="527" 
d="M355 245l-2 98q-19 1 -56 1t-104.5 -6t-94.5 -7q-26 1 -43.5 18.5t-17.5 43.5q0 19 12.5 37.5t32.5 20.5q102 10 250 10h80q39 0 51.5 -30.5t12.5 -84.5v-44q0 -117 -66 -117q-24 0 -39.5 16.5t-15.5 43.5z" />
    <glyph glyph-name="registered" unicode="&#xae;" horiz-adv-x="789" 
d="M60 451q0 98 54 184t142.5 136.5t186.5 50.5q125 0 207.5 -85.5t82.5 -209.5q0 -150 -116 -260.5t-267 -110.5q-126 0 -208 85t-82 210zM135 459q0 -96 63.5 -161.5t159.5 -65.5q117 0 206 85.5t89 200.5q0 96 -63.5 161.5t-159.5 65.5q-117 0 -206 -85t-89 -201z
M426 662q0 -20 -9 -38q39 22 72 22q37 0 59.5 -31t22.5 -81q0 -49 -21.5 -97t-55.5 -48q-21 0 -37.5 14.5t-16.5 35.5q0 11 14 42t14 53q-50 0 -70 -47t-20 -110q0 -10 1 -32.5t1 -35.5q0 -22 -15.5 -35t-36.5 -13q-16 0 -31 10t-18 26q-5 27 -5 73q0 73 14.5 158t36.5 147
q12 39 49 39q21 0 36.5 -15t15.5 -37z" />
    <glyph glyph-name="macron" unicode="&#xaf;" horiz-adv-x="319" 
d="M70 558q-21 0 -33 14t-12 33q0 18 9 29t30 15.5t37 5.5t48 1h32q55 0 82.5 -10t27.5 -42q0 -46 -59 -46q-12 0 -45.5 1t-50.5 1q-14 0 -66 -2z" />
    <glyph glyph-name="degree" unicode="&#xb0;" horiz-adv-x="385" 
d="M49 686q0 59 42 101.5t101 42.5t101.5 -42.5t42.5 -101.5t-42.5 -101t-101.5 -42t-101 42t-42 101zM128 686q0 -26 19 -45t45 -19t45 19t19 45t-19 45t-45 19t-45 -19t-19 -45z" />
    <glyph glyph-name="plusminus" unicode="&#xb1;" horiz-adv-x="484" 
d="M172 323q-4 0 -39 -5t-51 -5q-18 0 -31.5 14t-13.5 34q0 17 7.5 29.5t17 19.5t28.5 11.5t30.5 6t35 3t30.5 2.5q4 36 8 58.5t13.5 56.5t28 52t44.5 18q19 0 32.5 -12.5t13.5 -32.5q0 -9 -4 -25q-16 -51 -25 -105q13 1 47 6.5t50 5.5q19 0 32.5 -14t13.5 -33
q0 -15 -5 -26.5t-16 -19t-21.5 -12.5t-28 -8t-28.5 -4t-31 -2.5t-27 -2.5q-1 -7 -2 -29t-2 -33t-4 -30.5t-8 -31t-13 -23.5t-19.5 -17.5t-27.5 -5.5q-20 0 -33.5 14.5t-13.5 34.5q0 24 5.5 63t6.5 48zM367 115q21 0 37 -16.5t16 -37.5q0 -19 -11.5 -36.5t-28.5 -18.5
q-81 -6 -168 -6q-66 0 -139 3q-20 1 -35 17t-15 38q0 20 11.5 37t28.5 17q279 3 304 3z" />
    <glyph glyph-name="twosuperior" unicode="&#xb2;" horiz-adv-x="369" 
d="M348 504q23 0 40 -19t17 -42q0 -21 -13 -37.5t-32 -21.5l-32 -4q-116 -15 -200 -71l-14 -12q-22 -18 -43 -18q-24 0 -42.5 17.5t-18.5 43.5q0 15 8 31q75 90 123 157.5t65 97.5t36 73q-14 -6 -38 -19.5t-42.5 -22t-31.5 -8.5q-25 0 -43 17.5t-18 43.5q0 36 30 53
q40 23 60.5 33.5t56.5 23t66 12.5q45 0 68.5 -27.5t23.5 -66.5q0 -76 -74 -192l-34 -53q44 8 82 11z" />
    <glyph glyph-name="threesuperior" unicode="&#xb3;" horiz-adv-x="361" 
d="M304 828q24 0 43 -18.5t19 -43.5q0 -40 -67 -119q25 -9 41 -31.5t16 -48.5q0 -119 -238 -308q-20 -18 -43 -18q-25 0 -43 17.5t-18 43.5q0 28 18 43q75 64 116 104.5t98 108.5q-53 -48 -84 -48q-25 0 -43 18t-18 43q0 40 79 105l-62 -36q-16 -8 -32 -8q-25 0 -42.5 18
t-17.5 43q0 35 30 53q52 31 120 56t128 26z" />
    <glyph glyph-name="acute" unicode="&#xb4;" horiz-adv-x="265" 
d="M163 535q-23 0 -38.5 14.5t-15.5 37.5q0 26 32 58q7 8 27.5 35.5t37.5 42t34 14.5q23 0 38.5 -15.5t15.5 -37.5q0 -24 -50.5 -86.5t-80.5 -62.5z" />
    <glyph glyph-name="mu" unicode="&#xb5;" horiz-adv-x="524" 
d="M154 60v-187q0 -25 -18 -43t-43 -18t-42.5 18t-18.5 43q-4 122 -4 236q0 259 62 430q15 45 59 45q22 0 41.5 -16.5t19.5 -40.5q0 -27 -25 -108t-25 -134q0 -119 63 -119q25 0 47 32t34.5 76.5t19.5 83t7 58.5q0 17 -5.5 50t-5.5 48q0 23 17.5 41.5t41.5 18.5t40 -14
t22.5 -39.5t8.5 -47t2 -51.5q0 -54 -13 -115t-38.5 -121.5t-72.5 -100.5t-106 -40q-36 0 -68 15z" />
    <glyph glyph-name="paragraph" unicode="&#xb6;" horiz-adv-x="637" 
d="M573 704q-62 -408 -62 -611q0 -7 1 -23t1 -23q0 -26 -18.5 -44t-43.5 -18q-63 0 -63 96t9 196t29 246.5t26 197.5q3 23 22 34t38 11q26 0 43.5 -18.5t17.5 -43.5zM283 747q18 18 45 18q22 0 41.5 -16.5t19.5 -40.5q0 -6 -2 -20q-59 -395 -59 -601q0 -7 0.5 -20t0.5 -20
q0 -27 -18 -44t-44 -17q-22 0 -35.5 9.5t-19 29t-6.5 33.5t-1 38q0 45 8 137q-78 15 -130.5 75t-52.5 138q0 105 74 196.5t179 104.5zM224 356l29 255q-43 -24 -71.5 -69.5t-28.5 -92.5q0 -71 71 -93z" />
    <glyph glyph-name="periodcentered" unicode="&#xb7;" horiz-adv-x="272" 
d="M140 270q24 0 42.5 -18t18.5 -44l-7 -37q-4 -20 -21.5 -32.5t-37.5 -12.5q-29 0 -45.5 18.5t-16.5 44.5l7 37q4 20 21.5 32t38.5 12z" />
    <glyph glyph-name="cedilla" unicode="&#xb8;" horiz-adv-x="276" 
d="M130 23q0 23 16 39t38 16q23 0 39.5 -16t16.5 -39q0 -93 -52 -152q-51 -55 -133 -55q-22 0 -38.5 16.5t-16.5 38.5t16.5 39t38.5 17q14 0 28.5 5t30.5 28.5t16 62.5z" />
    <glyph glyph-name="onesuperior" unicode="&#xb9;" horiz-adv-x="297" 
d="M146 602q-34 -28 -59 -28t-43.5 17t-18.5 44q0 32 30 53q82 53 147 128q15 18 42 18q26 0 44 -17.5t18 -42.5q0 -4 -2 -18l-14 -73q-6 -32 -21 -94.5t-21 -93.5q-7 -37 -17 -104t-14 -88q-4 -20 -21.5 -32.5t-38.5 -12.5q-23 0 -41.5 17t-18.5 39v5q11 115 49 283z" />
    <glyph glyph-name="ordmasculine" unicode="&#xba;" horiz-adv-x="436" 
d="M307 778q74 -72 74 -182q0 -89 -61.5 -164.5t-149.5 -75.5q-63 0 -98.5 52.5t-35.5 124.5q0 110 65 198q36 49 83.5 93t80.5 44q22 0 38.5 -16.5t16.5 -39.5q0 -18 -13 -34zM223 709q-79 -79 -79 -175q0 -70 27 -70q41 0 71.5 42.5t30.5 89.5q0 31 -13 64.5t-37 48.5z
M185 325q24 0 42.5 -18t18.5 -44l-7 -37q-4 -20 -21.5 -32.5t-37.5 -12.5q-29 0 -45.5 18.5t-16.5 44.5l7 37q4 20 21.5 32t38.5 12z" />
    <glyph glyph-name="guillemotright" unicode="&#xbb;" horiz-adv-x="653" 
d="M476 385q-30 21 -49 35.5t-47.5 39t-43.5 45.5t-15 38q0 23 17.5 40t40.5 17t40 -18q79 -79 166 -129l30 -15q13 -6 21 -20.5t8 -28.5q0 -31 -29 -50q-97 -64 -114 -77q-45 -35 -96 -93q-15 -18 -39 -18q-23 0 -41.5 16.5t-18.5 41.5t36 61q52 58 134 115zM202 385
q-30 21 -49 35.5t-47.5 39t-43.5 45.5t-15 38q0 23 17.5 40t40.5 17t40 -18q87 -85 167 -129l29 -15q13 -6 21 -20.5t8 -28.5q0 -31 -29 -50q-97 -64 -114 -77q-39 -30 -96 -93q-15 -18 -39 -18q-23 0 -41 16.5t-18 41.5q0 26 35 61q52 58 134 115z" />
    <glyph glyph-name="onequarter" unicode="&#xbc;" horiz-adv-x="952" 
d="M833 374l-19 -94q27 -18 27 -52q0 -22 -13 -39t-34 -20q-3 -19 -5.5 -58.5t-5.5 -62t-18 -42t-43 -19.5q-25 0 -43 16t-18 44q0 47 6 94l-109 -34q-8 -3 -17 -3q-24 0 -42 18t-18 44q0 36 18.5 83.5t60.5 113t67 101t80 110.5q20 28 53 28q26 0 43.5 -18.5t17.5 -42.5
q0 -7 -3 -15.5t-6.5 -15t-11 -16.5t-12 -14.5t-14 -15t-11.5 -13.5q2 0 6 0.5t6 0.5q28 0 44 -18.5t16 -42.5q0 -5 -2 -17zM623 256q49 13 65 17l24 118q-67 -73 -89 -135zM146 602q-34 -28 -59 -28t-43.5 17t-18.5 44q0 32 30 53q82 53 147 128q15 18 42 18q26 0 44 -17.5
t18 -42.5q0 -4 -2 -18l-14 -73q-6 -32 -21 -94.5t-21 -93.5q-7 -37 -17 -104t-14 -88q-4 -20 -21.5 -32.5t-38.5 -12.5q-23 0 -41.5 17t-18.5 39v5q11 115 49 283zM602 865q18 31 51 31q24 0 44 -18t20 -43q0 -15 -9 -32q-50 -93 -222.5 -403t-252.5 -451q-17 -31 -51 -31
q-24 0 -44 17.5t-20 42.5q0 15 9 32q99 185 185.5 341t188 334.5t101.5 179.5z" />
    <glyph glyph-name="onehalf" unicode="&#xbd;" horiz-adv-x="964" 
d="M146 602q-34 -28 -59 -28t-43.5 17t-18.5 44q0 32 30 53q82 53 147 128q15 18 42 18q26 0 44 -17.5t18 -42.5q0 -4 -2 -18l-14 -73q-6 -32 -21 -94.5t-21 -93.5q-7 -37 -17 -104t-14 -88q-4 -20 -21.5 -32.5t-38.5 -12.5q-23 0 -41.5 17t-18.5 39v5q11 115 49 283z
M600 865q18 31 51 31q24 0 44 -18t20 -43q0 -15 -9 -32q-50 -93 -222.5 -403t-252.5 -451q-17 -31 -51 -31q-24 0 -44 17.5t-20 42.5q0 15 9 32q99 185 185.5 341t188 334.5t101.5 179.5zM832 210q23 0 40 -19t17 -42q0 -21 -13 -37.5t-32 -21.5l-32 -4q-116 -15 -200 -71
l-14 -12q-22 -18 -43 -18q-24 0 -42.5 17.5t-18.5 43.5q0 15 8 31q75 90 123 157.5t65 97.5t36 73q-14 -6 -38 -19.5t-42.5 -22t-31.5 -8.5q-25 0 -43 17.5t-18 43.5q0 36 30 53q40 23 60.5 33.5t56.5 23t66 12.5q45 0 68.5 -27.5t23.5 -66.5q0 -76 -74 -192l-34 -53
q44 8 82 11z" />
    <glyph glyph-name="threequarters" unicode="&#xbe;" horiz-adv-x="963" 
d="M845 311l-19 -94q27 -18 27 -52q0 -22 -13 -39t-34 -20q-3 -19 -5.5 -58.5t-5.5 -62t-18 -42t-43 -19.5q-25 0 -43 16t-18 44q0 48 6 94l-109 -34q-8 -3 -17 -3q-24 0 -42 18t-18 44q0 36 18.5 83.5t60.5 113t67 101t80 110.5q20 28 53 28q26 0 43.5 -18.5t17.5 -42.5
q0 -7 -3 -15.5t-6.5 -15t-11 -16.5t-12 -14.5t-14 -15t-11.5 -13.5q2 0 6 0.5t6 0.5q28 0 44 -18.5t16 -42.5q0 -5 -2 -17zM635 193q49 13 65 17l24 118q-67 -73 -89 -135zM333 834q24 0 43 -18.5t19 -43.5q0 -40 -67 -119q25 -9 41 -31.5t16 -48.5q0 -119 -238 -308
q-20 -18 -43 -18q-26 0 -43.5 17.5t-17.5 43.5q0 28 18 43q75 64 116 104.5t98 108.5q-53 -48 -84 -48q-25 0 -43 18t-18 43q0 40 79 105l-62 -36q-16 -8 -32 -8q-25 0 -42.5 18t-17.5 43q0 35 30 53q52 31 120 56t128 26zM651 865q18 31 51 31q24 0 44 -18t20 -43
q0 -15 -9 -32q-50 -93 -222.5 -403t-252.5 -451q-17 -31 -51 -31q-24 0 -44 17.5t-20 42.5q0 15 9 32q99 185 185.5 341t188 334.5t101.5 179.5z" />
    <glyph glyph-name="questiondown" unicode="&#xbf;" horiz-adv-x="418" 
d="M172 294l16 59q5 20 21.5 32.5t37.5 12.5q26 0 43.5 -19t17.5 -44q0 -10 -2 -15q-3 -10 -7.5 -28t-6.5 -25t-5.5 -19.5t-6 -16.5t-6.5 -12.5t-8 -11.5t-10.5 -8t-13.5 -8t-17 -7q-38 -17 -80.5 -66.5t-42.5 -107.5q0 -28 16.5 -42t41.5 -14q57 0 103 60q7 9 17.5 24.5
t15.5 22t16 12t26 5.5q27 0 43.5 -18.5t16.5 -42.5q0 -17 -7 -32q-35 -66 -100 -109.5t-138 -43.5q-75 0 -124 53t-49 126q0 82 56 164t136 119zM270 426q-25 0 -43 18t-18 44l15 78q4 20 21 32.5t37 12.5q29 0 45.5 -18t16.5 -44l-15 -79q-4 -19 -21.5 -31.5t-37.5 -12.5z
" />
    <glyph glyph-name="Agrave" unicode="&#xc0;" horiz-adv-x="538" 
d="M116 218q133 294 290 500q3 4 13 18t15.5 20.5t15 15.5t19.5 13t22 4q24 0 42.5 -17.5t18.5 -42.5q0 -12 -19 -192q-35 -315 -35 -484v-105q0 -28 -18 -44.5t-43 -16.5q-39 0 -51 28.5t-12 95.5q0 85 6 163q-97 -45 -179 -65l-83 -196q-15 -45 -62 -45q-22 0 -40.5 16.5
t-18.5 44.5q0 14 23 68l41 96q-24 2 -40.5 20t-16.5 41q0 16 5.5 27t12 17t21 10.5t22.5 5.5t26.5 2t24.5 2zM272 260q48 19 116 56q5 67 17 184q-76 -127 -133 -240zM488 814q-30 0 -80.5 62.5t-50.5 86.5q0 23 15.5 38t37.5 15q11 0 25.5 -11t24.5 -22t27 -32t22 -27
q2 -2 7.5 -8.5t8 -9t6.5 -8.5t6 -10t3.5 -10t1.5 -12q0 -23 -15.5 -37.5t-38.5 -14.5z" />
    <glyph glyph-name="Aacute" unicode="&#xc1;" horiz-adv-x="538" 
d="M116 218q133 294 290 500q3 4 13 18t15.5 20.5t15 15.5t19.5 13t22 4q24 0 42.5 -17.5t18.5 -42.5q0 -12 -19 -192q-35 -315 -35 -484v-105q0 -28 -18 -44.5t-43 -16.5q-39 0 -51 28.5t-12 95.5q0 85 6 163q-97 -45 -179 -65l-83 -196q-15 -45 -62 -45q-22 0 -40.5 16.5
t-18.5 44.5q0 14 23 68l41 96q-24 2 -40.5 20t-16.5 41q0 16 5.5 27t12 17t21 10.5t22.5 5.5t26.5 2t24.5 2zM272 260q48 19 116 56q5 67 17 184q-76 -127 -133 -240zM499 812q-23 0 -38.5 14.5t-15.5 37.5q0 26 32 58q7 8 27.5 35.5t37.5 42t34 14.5q23 0 38.5 -15.5
t15.5 -37.5q0 -24 -50.5 -86.5t-80.5 -62.5z" />
    <glyph glyph-name="Acircumflex" unicode="&#xc2;" horiz-adv-x="538" 
d="M116 218q133 294 290 500q3 4 13 18t15.5 20.5t15 15.5t19.5 13t22 4q24 0 42.5 -17.5t18.5 -42.5q0 -12 -19 -192q-35 -315 -35 -484v-105q0 -28 -18 -44.5t-43 -16.5q-39 0 -51 28.5t-12 95.5q0 85 6 163q-97 -45 -179 -65l-83 -196q-15 -45 -62 -45q-22 0 -40.5 16.5
t-18.5 44.5q0 14 23 68l41 96q-24 2 -40.5 20t-16.5 41q0 16 5.5 27t12 17t21 10.5t22.5 5.5t26.5 2t24.5 2zM272 260q48 19 116 56q5 67 17 184q-76 -127 -133 -240zM492 868q-31 -31 -51 -56l-9 -11q-10 -13 -32 -13q-21 0 -34.5 14.5t-13.5 32.5q0 33 108 135
q13 13 34 13q20 0 33 -13q71 -75 98 -117q6 -11 6 -24q0 -18 -14 -32.5t-33 -14.5q-11 0 -20.5 5.5t-12.5 8.5t-13 16.5t-10 14.5q-18 23 -36 41z" />
    <glyph glyph-name="Atilde" unicode="&#xc3;" horiz-adv-x="538" 
d="M116 218q133 294 290 500q3 4 13 18t15.5 20.5t15 15.5t19.5 13t22 4q24 0 42.5 -17.5t18.5 -42.5q0 -12 -19 -192q-35 -315 -35 -484v-105q0 -28 -18 -44.5t-43 -16.5q-39 0 -51 28.5t-12 95.5q0 85 6 163q-97 -45 -179 -65l-83 -196q-15 -45 -62 -45q-22 0 -40.5 16.5
t-18.5 44.5q0 14 23 68l41 96q-24 2 -40.5 20t-16.5 41q0 16 5.5 27t12 17t21 10.5t22.5 5.5t26.5 2t24.5 2zM272 260q48 19 116 56q5 67 17 184q-76 -127 -133 -240zM568 889q11 0 20.5 7.5t13.5 15.5l4 7q10 21 36 21q22 0 34.5 -12t12.5 -29q0 -34 -40 -66.5t-84 -32.5
q-22 0 -40.5 12t-28.5 27t-23 27t-26 12q-15 0 -39.5 -28.5t-43.5 -28.5q-18 0 -31 13t-13 30q0 11 8 24q61 79 118 79q29 0 70.5 -39t51.5 -39z" />
    <glyph glyph-name="Adieresis" unicode="&#xc4;" horiz-adv-x="538" 
d="M116 218q133 294 290 500q3 4 13 18t15.5 20.5t15 15.5t19.5 13t22 4q24 0 42.5 -17.5t18.5 -42.5q0 -12 -19 -192q-35 -315 -35 -484v-105q0 -28 -18 -44.5t-43 -16.5q-39 0 -51 28.5t-12 95.5q0 85 6 163q-97 -45 -179 -65l-83 -196q-15 -45 -62 -45q-22 0 -40.5 16.5
t-18.5 44.5q0 14 23 68l41 96q-24 2 -40.5 20t-16.5 41q0 16 5.5 27t12 17t21 10.5t22.5 5.5t26.5 2t24.5 2zM272 260q48 19 116 56q5 67 17 184q-76 -127 -133 -240zM439 938q24 0 42 -18t18 -44l-7 -37q-4 -20 -21 -32.5t-38 -12.5q-29 0 -45 18.5t-16 44.5l7 37
q4 20 21.5 32t38.5 12zM604 926q25 0 43 -18t18 -44l-7 -37q-4 -20 -21.5 -32.5t-37.5 -12.5q-29 0 -45 18.5t-16 44.5l6 37q4 19 21.5 31.5t38.5 12.5z" />
    <glyph glyph-name="Aring" unicode="&#xc5;" horiz-adv-x="538" 
d="M421 816q0 48 37 84t85 36q40 0 66.5 -27.5t26.5 -67.5q0 -37 -24 -68t-60 -44q0 -12 -19 -192q-35 -315 -35 -484v-105q0 -28 -18 -44.5t-43 -16.5q-39 0 -51 28.5t-12 95.5q0 85 6 163q-97 -45 -179 -65l-83 -196q-15 -45 -62 -45q-22 0 -40.5 16.5t-18.5 44.5
q0 14 23 68l41 96q-24 2 -40.5 20t-16.5 41q0 16 5.5 27t12 17t21 10.5t22.5 5.5t26.5 2t24.5 2q133 294 290 500q1 1 13 17.5t19 24.5q-17 25 -17 56zM272 260q48 19 116 56q5 67 17 184q-76 -127 -133 -240zM485 824q0 -16 10.5 -26.5t26.5 -10.5q18 0 33 14t15 32
q0 17 -10 28t-26 11q-19 0 -34 -14.5t-15 -33.5z" />
    <glyph glyph-name="AE" unicode="&#xc6;" horiz-adv-x="822" 
d="M116 218q111 245 290 500q1 2 8.5 13t10.5 14.5t10 12.5t12 13t12.5 9t15 7t16.5 2q29 0 48 -24q118 22 202 22q28 0 43.5 -18.5t15.5 -43.5q0 -24 -15.5 -42t-44.5 -19q-82 -5 -153 -16l-37 -195q88 29 140 42q6 2 16 2q27 0 44 -19.5t17 -44.5q0 -43 -44 -57
q-182 -55 -197 -60q-14 -89 -19 -155q130 24 214 24h7q28 -1 44 -19t16 -42t-15.5 -42.5t-44.5 -19.5q-120 -4 -230 -37v-77q0 -28 -18 -44.5t-43 -16.5q-39 0 -51 28.5t-12 95.5q0 85 6 163q-97 -45 -179 -65l-83 -196q-15 -45 -62 -45q-22 0 -40.5 16.5t-18.5 44.5
q0 11 64 164q-24 2 -40.5 20t-16.5 41q0 16 5.5 27t12 17t21 10.5t22.5 5.5t26.5 2t24.5 2zM272 260q48 19 116 56q47 177 64 266q-89 -129 -180 -322z" />
    <glyph glyph-name="Ccedilla" unicode="&#xc7;" horiz-adv-x="469" 
d="M340 631q-52 -46 -113 -183.5t-61 -242.5q0 -39 12.5 -66.5t39.5 -27.5q30 0 66.5 30t59.5 60q24 34 57 34q24 0 42 -19t18 -44q0 -16 -9 -30q-33 -48 -81 -89.5t-99 -56.5q-7 -74 -51 -125q-51 -55 -133 -55q-22 0 -38.5 16.5t-16.5 38.5t16.5 39t38.5 17q12 0 24.5 4
t28 21t20.5 46q-41 14 -68.5 47.5t-38.5 73t-11 84.5q0 112 65 271q18 43 33 75.5t39 74t47.5 69t55 46.5t64.5 19q61 0 91 -49t30 -117q0 -43 -6.5 -78.5t-24.5 -61.5t-46 -26q-25 0 -44 16.5t-19 42.5q0 15 9 51t9 55q0 24 -6 40z" />
    <glyph glyph-name="Egrave" unicode="&#xc8;" horiz-adv-x="573" 
d="M276 161q130 24 221 24q29 0 45 -18t16 -43q0 -24 -16 -42.5t-45 -19.5q-172 -7 -299 -47q-9 -3 -27 -10t-32 -11t-26 -4q-27 0 -44.5 19t-17.5 42q0 24 18 41t35 23.5t47 14.5q3 51 15 146q-26 0 -43.5 19t-17.5 44q0 12 4.5 22t9 16t15.5 12t17 8.5t19.5 7t17.5 5.5
q19 112 39 211q-9 -2 -28.5 -8.5t-34.5 -10t-27 -3.5q-25 0 -43.5 17.5t-18.5 43.5q0 20 12.5 36.5t32.5 22.5q82 27 194.5 47.5t196.5 20.5q27 0 43 -18.5t16 -43.5q0 -24 -15.5 -42t-45.5 -19q-80 -5 -152 -16l-37 -195l42 15q41 14 68.5 21.5t45.5 7.5q27 0 44 -19.5
t17 -44.5q0 -43 -45 -57q-12 -4 -85 -26t-111 -34q-13 -84 -20 -155zM286 782q-30 0 -80.5 62.5t-50.5 86.5q0 23 15.5 38t37.5 15q11 0 25.5 -11t24.5 -22t27 -32t22 -27q2 -2 7.5 -8.5t8 -9t6.5 -8.5t6 -10t3.5 -10t1.5 -12q0 -23 -15.5 -37.5t-38.5 -14.5z" />
    <glyph glyph-name="Eacute" unicode="&#xc9;" horiz-adv-x="573" 
d="M276 161q130 24 221 24q29 0 45 -18t16 -43q0 -24 -16 -42.5t-45 -19.5q-172 -7 -299 -47q-9 -3 -27 -10t-32 -11t-26 -4q-27 0 -44.5 19t-17.5 42q0 24 18 41t35 23.5t47 14.5q3 51 15 146q-26 0 -43.5 19t-17.5 44q0 12 4.5 22t9 16t15.5 12t17 8.5t19.5 7t17.5 5.5
q19 112 39 211q-9 -2 -28.5 -8.5t-34.5 -10t-27 -3.5q-25 0 -43.5 17.5t-18.5 43.5q0 20 12.5 36.5t32.5 22.5q82 27 194.5 47.5t196.5 20.5q27 0 43 -18.5t16 -43.5q0 -24 -15.5 -42t-45.5 -19q-80 -5 -152 -16l-37 -195l42 15q41 14 68.5 21.5t45.5 7.5q27 0 44 -19.5
t17 -44.5q0 -43 -45 -57q-12 -4 -85 -26t-111 -34q-13 -84 -20 -155zM290 782q-23 0 -38.5 14.5t-15.5 37.5q0 26 32 58q7 8 27.5 35.5t37.5 42t34 14.5q23 0 38.5 -15.5t15.5 -37.5q0 -24 -50.5 -86.5t-80.5 -62.5z" />
    <glyph glyph-name="Ecircumflex" unicode="&#xca;" horiz-adv-x="573" 
d="M276 161q130 24 221 24q29 0 45 -18t16 -43q0 -24 -16 -42.5t-45 -19.5q-172 -7 -299 -47q-9 -3 -27 -10t-32 -11t-26 -4q-27 0 -44.5 19t-17.5 42q0 24 18 41t35 23.5t47 14.5q3 51 15 146q-26 0 -43.5 19t-17.5 44q0 12 4.5 22t9 16t15.5 12t17 8.5t19.5 7t17.5 5.5
q19 112 39 211q-9 -2 -28.5 -8.5t-34.5 -10t-27 -3.5q-25 0 -43.5 17.5t-18.5 43.5q0 20 12.5 36.5t32.5 22.5q82 27 194.5 47.5t196.5 20.5q27 0 43 -18.5t16 -43.5q0 -24 -15.5 -42t-45.5 -19q-80 -5 -152 -16l-37 -195l42 15q41 14 68.5 21.5t45.5 7.5q27 0 44 -19.5
t17 -44.5q0 -43 -45 -57q-12 -4 -85 -26t-111 -34q-13 -84 -20 -155zM318 895q-31 -31 -51 -56l-9 -11q-10 -13 -32 -13q-21 0 -34.5 14.5t-13.5 32.5q0 33 108 135q13 13 34 13q20 0 33 -13q71 -75 98 -117q6 -10 6 -24q0 -18 -14 -32.5t-33 -14.5q-11 0 -20.5 5.5
t-12.5 8.5t-13 16.5t-10 14.5q-18 23 -36 41z" />
    <glyph glyph-name="Edieresis" unicode="&#xcb;" horiz-adv-x="573" 
d="M276 161q130 24 221 24q29 0 45 -18t16 -43q0 -24 -16 -42.5t-45 -19.5q-172 -7 -299 -47q-9 -3 -27 -10t-32 -11t-26 -4q-27 0 -44.5 19t-17.5 42q0 24 18 41t35 23.5t47 14.5q3 51 15 146q-26 0 -43.5 19t-17.5 44q0 12 4.5 22t9 16t15.5 12t17 8.5t19.5 7t17.5 5.5
q19 112 39 211q-9 -2 -28.5 -8.5t-34.5 -10t-27 -3.5q-25 0 -43.5 17.5t-18.5 43.5q0 20 12.5 36.5t32.5 22.5q82 27 194.5 47.5t196.5 20.5q27 0 43 -18.5t16 -43.5q0 -24 -15.5 -42t-45.5 -19q-80 -5 -152 -16l-37 -195l42 15q41 14 68.5 21.5t45.5 7.5q27 0 44 -19.5
t17 -44.5q0 -43 -45 -57q-12 -4 -85 -26t-111 -34q-13 -84 -20 -155zM249 938q24 0 42 -18t18 -44l-7 -37q-4 -20 -21 -32.5t-38 -12.5q-29 0 -45 18.5t-16 44.5l7 37q4 20 21.5 32t38.5 12zM414 926q25 0 43 -18t18 -44l-7 -37q-4 -20 -21.5 -32.5t-37.5 -12.5
q-29 0 -45 18.5t-16 44.5l6 37q4 19 21.5 31.5t38.5 12.5z" />
    <glyph glyph-name="Igrave" unicode="&#xcc;" horiz-adv-x="467" 
d="M251 672q-24 2 -35.5 3t-30 5t-26.5 10t-15 18t-7 29q0 25 17 43.5t41 18.5q2 0 5.5 -0.5t5.5 -0.5q65 -5 111 -5q22 0 64.5 5t50.5 5q28 0 43.5 -20.5t15.5 -41.5t-9 -35t-29.5 -20.5t-34.5 -8.5t-44 -5q-39 -261 -110 -589q36 6 47 6q25 0 42 -19.5t17 -42.5
q0 -14 -8 -30.5t-22 -22.5q-45 -18 -137 -18q-29 0 -78.5 4.5t-63.5 11.5q-30 16 -30 54q0 25 18 42t43 17t45 -4q82 354 114 591zM303 818q-30 0 -80.5 62.5t-50.5 86.5q0 23 15 38t38 15q11 0 25.5 -11t24.5 -22t27 -32t22 -27q2 -2 7.5 -8.5t8 -9t6.5 -8.5t6 -10t3.5 -10
t1.5 -12q0 -23 -15.5 -37.5t-38.5 -14.5z" />
    <glyph glyph-name="Iacute" unicode="&#xcd;" horiz-adv-x="467" 
d="M251 672q-24 2 -35.5 3t-30 5t-26.5 10t-15 18t-7 29q0 25 17 43.5t41 18.5q2 0 5.5 -0.5t5.5 -0.5q65 -5 111 -5q22 0 64.5 5t50.5 5q28 0 43.5 -20.5t15.5 -41.5t-9 -35t-29.5 -20.5t-34.5 -8.5t-44 -5q-39 -261 -110 -589q36 6 47 6q25 0 42 -19.5t17 -42.5
q0 -14 -8 -30.5t-22 -22.5q-45 -18 -137 -18q-29 0 -78.5 4.5t-63.5 11.5q-30 16 -30 54q0 25 18 42t43 17t45 -4q82 354 114 591zM321 820q-23 0 -38.5 14.5t-15.5 37.5q0 26 32 58q7 8 27.5 35.5t37.5 42t34 14.5q23 0 38.5 -15.5t15.5 -37.5q0 -24 -50.5 -86.5
t-80.5 -62.5z" />
    <glyph glyph-name="Icircumflex" unicode="&#xce;" horiz-adv-x="467" 
d="M251 672q-24 2 -35.5 3t-30 5t-26.5 10t-15 18t-7 29q0 25 17 43.5t41 18.5q2 0 5.5 -0.5t5.5 -0.5q65 -5 111 -5q22 0 64.5 5t50.5 5q28 0 43.5 -20.5t15.5 -41.5t-9 -35t-29.5 -20.5t-34.5 -8.5t-44 -5q-39 -261 -110 -589q36 6 47 6q25 0 42 -19.5t17 -42.5
q0 -14 -8 -30.5t-22 -22.5q-45 -18 -137 -18q-29 0 -78.5 4.5t-63.5 11.5q-30 16 -30 54q0 25 18 42t43 17t45 -4q82 354 114 591zM325 902q-31 -31 -51 -56l-9 -11q-10 -13 -32 -13q-21 0 -34.5 14.5t-13.5 32.5q0 33 108 135q13 13 34 13q20 0 33 -13q71 -75 98 -117
q6 -11 6 -24q0 -18 -14 -32.5t-33 -14.5q-11 0 -20.5 5.5t-12.5 8.5t-13 16.5t-10 14.5q-18 23 -36 41z" />
    <glyph glyph-name="Idieresis" unicode="&#xcf;" horiz-adv-x="467" 
d="M251 672q-24 2 -35.5 3t-30 5t-26.5 10t-15 18t-7 29q0 25 17 43.5t41 18.5q2 0 5.5 -0.5t5.5 -0.5q65 -5 111 -5q22 0 64.5 5t50.5 5q28 0 43.5 -20.5t15.5 -41.5t-9 -35t-29.5 -20.5t-34.5 -8.5t-44 -5q-39 -261 -110 -589q36 6 47 6q25 0 42 -19.5t17 -42.5
q0 -14 -8 -30.5t-22 -22.5q-45 -18 -137 -18q-29 0 -78.5 4.5t-63.5 11.5q-30 16 -30 54q0 25 18 42t43 17t45 -4q82 354 114 591zM242 967q24 0 42 -18t18 -44l-7 -37q-4 -20 -21 -32.5t-38 -12.5q-29 0 -45 18.5t-16 44.5l7 37q4 20 21.5 32t38.5 12zM407 955q25 0 43 -18
t18 -44l-7 -37q-4 -20 -21.5 -32.5t-37.5 -12.5q-29 0 -45 18.5t-16 44.5l6 37q4 19 21.5 31.5t38.5 12.5z" />
    <glyph glyph-name="Eth" unicode="&#xd0;" horiz-adv-x="521" 
d="M70 200q-10 -2 -15 -2q-27 0 -45 18.5t-18 43.5q0 20 12.5 36t32.5 23q50 16 70 21l25 128q5 26 9 41.5t12 34.5t22 28t33 9q25 0 43.5 -16.5t18.5 -44.5q0 -21 -29 -154q5 1 15 1q26 0 44 -19t18 -44q0 -17 -8.5 -32t-22.5 -20q-26 -8 -75 -17l-36 -165q89 48 152.5 122
t63.5 161q0 66 -50 132t-117.5 111t-141.5 75q-53 21 -53 64q0 22 17 41t44 19l34 -9q156 -52 273 -172.5t117 -258.5q0 -101 -61 -196t-153.5 -159.5t-194.5 -91.5q-5 -2 -16 -2q-25 0 -43.5 17t-18.5 44q0 25 16 41l37 196z" />
    <glyph glyph-name="Ntilde" unicode="&#xd1;" horiz-adv-x="601" 
d="M265 305q87 124 162 295q17 45 60 45q91 0 91 -272q0 -203 -48 -347q-15 -44 -58 -44q-25 0 -44 17t-19 43q0 6 2 18q44 157 44 326q-79 -140 -244 -396q-4 -5 -13 -21t-14.5 -24t-15.5 -18.5t-21 -15.5t-24 -5q-25 0 -43 18t-18 44q0 11 2 16q85 313 136 613
q-46 -41 -110 -112q-17 -17 -43 -17q-25 0 -43.5 17t-18.5 44q0 25 18 44q62 70 154 154t130 84q29 0 45 -20.5t16 -56.5q-38 -249 -83 -429zM427 889q11 0 20.5 7.5t13.5 15.5l4 7q11 21 36 21q22 0 34.5 -12t12.5 -29q0 -34 -40 -66.5t-84 -32.5q-22 0 -40.5 12t-28.5 27
t-23 27t-26 12q-15 0 -39.5 -28.5t-43.5 -28.5q-18 0 -31 13t-13 30q0 11 8 24q61 79 118 79q29 0 70.5 -39t51.5 -39z" />
    <glyph glyph-name="Ograve" unicode="&#xd2;" horiz-adv-x="540" 
d="M514 672q-40 -11 -77 -30q12 5 24 5q25 0 44 -23t29 -61t14.5 -77.5t4.5 -80.5q0 -54 -15 -112t-44.5 -112.5t-69 -97.5t-93.5 -69.5t-113 -26.5q-51 0 -88 22t-56 58.5t-27.5 74.5t-8.5 78q0 149 94.5 295.5t228.5 224.5q90 52 137 52q27 0 43.5 -19t16.5 -44
q0 -45 -44 -57zM430 406q0 67 -28 163q-3 9 -3 17q0 32 28 50q-113 -61 -189.5 -175.5t-76.5 -234.5q0 -118 57 -118q87 0 149.5 95t62.5 203zM378 782q-30 0 -80.5 62.5t-50.5 86.5q0 23 15.5 38t37.5 15q11 0 25.5 -11t24.5 -22t27 -32t22 -27q2 -2 7.5 -8.5t8 -9
t6.5 -8.5t6 -10t3.5 -10t1.5 -12q0 -23 -15.5 -37.5t-38.5 -14.5z" />
    <glyph glyph-name="Oacute" unicode="&#xd3;" horiz-adv-x="540" 
d="M514 672q-40 -11 -77 -30q12 5 24 5q25 0 44 -23t29 -61t14.5 -77.5t4.5 -80.5q0 -54 -15 -112t-44.5 -112.5t-69 -97.5t-93.5 -69.5t-113 -26.5q-51 0 -88 22t-56 58.5t-27.5 74.5t-8.5 78q0 149 94.5 295.5t228.5 224.5q90 52 137 52q27 0 43.5 -19t16.5 -44
q0 -45 -44 -57zM430 406q0 67 -28 163q-3 9 -3 17q0 32 28 50q-113 -61 -189.5 -175.5t-76.5 -234.5q0 -118 57 -118q87 0 149.5 95t62.5 203zM364 782q-23 0 -38.5 14.5t-15.5 37.5q0 26 32 58q7 8 27.5 35.5t37.5 42t34 14.5q23 0 38.5 -15.5t15.5 -37.5
q0 -24 -50.5 -86.5t-80.5 -62.5z" />
    <glyph glyph-name="Ocircumflex" unicode="&#xd4;" horiz-adv-x="540" 
d="M514 672q-40 -11 -77 -30q12 5 24 5q25 0 44 -23t29 -61t14.5 -77.5t4.5 -80.5q0 -54 -15 -112t-44.5 -112.5t-69 -97.5t-93.5 -69.5t-113 -26.5q-51 0 -88 22t-56 58.5t-27.5 74.5t-8.5 78q0 149 94.5 295.5t228.5 224.5q90 52 137 52q27 0 43.5 -19t16.5 -44
q0 -45 -44 -57zM430 406q0 67 -28 163q-3 9 -3 17q0 32 28 50q-113 -61 -189.5 -175.5t-76.5 -234.5q0 -118 57 -118q87 0 149.5 95t62.5 203zM390 896q-31 -31 -51 -56l-9 -11q-10 -13 -32 -13q-21 0 -34.5 14.5t-13.5 32.5q0 33 108 135q13 13 34 13q20 0 33 -13
q71 -75 98 -117q6 -11 6 -24q0 -18 -14 -32.5t-33 -14.5q-11 0 -20.5 5.5t-12.5 8.5t-13 16.5t-10 14.5q-18 23 -36 41z" />
    <glyph glyph-name="Otilde" unicode="&#xd5;" horiz-adv-x="540" 
d="M514 672q-40 -11 -77 -30q12 5 24 5q25 0 44 -23t29 -61t14.5 -77.5t4.5 -80.5q0 -54 -15 -112t-44.5 -112.5t-69 -97.5t-93.5 -69.5t-113 -26.5q-51 0 -88 22t-56 58.5t-27.5 74.5t-8.5 78q0 149 94.5 295.5t228.5 224.5q90 52 137 52q27 0 43.5 -19t16.5 -44
q0 -45 -44 -57zM430 406q0 67 -28 163q-3 9 -3 17q0 32 28 50q-113 -61 -189.5 -175.5t-76.5 -234.5q0 -118 57 -118q87 0 149.5 95t62.5 203zM450 889q11 0 20.5 7.5t13.5 15.5l4 7q10 21 36 21q22 0 34.5 -12t12.5 -29q0 -34 -40 -66.5t-84 -32.5q-22 0 -40.5 12t-28.5 27
t-23 27t-26 12q-15 0 -39.5 -28.5t-43.5 -28.5q-18 0 -31 13t-13 30q0 11 8 24q61 79 118 79q29 0 70.5 -39t51.5 -39z" />
    <glyph glyph-name="Odieresis" unicode="&#xd6;" horiz-adv-x="540" 
d="M496 926q25 0 43 -18t18 -44l-7 -37q-4 -25 -31 -39q18 -7 28.5 -23.5t10.5 -35.5q0 -45 -44 -57q-40 -11 -77 -30q12 5 24 5q25 0 44 -23t29 -61t14.5 -77.5t4.5 -80.5q0 -54 -15 -112t-44.5 -112.5t-69 -97.5t-93.5 -69.5t-113 -26.5q-51 0 -88 22t-56 58.5t-27.5 74.5
t-8.5 78q0 149 94.5 295.5t228.5 224.5q66 38 103 47q-34 15 -34 58l6 37q4 19 21.5 31.5t38.5 12.5zM430 406q0 67 -28 163q-3 9 -3 17q0 32 28 50q-113 -61 -189.5 -175.5t-76.5 -234.5q0 -118 57 -118q87 0 149.5 95t62.5 203zM331 938q24 0 42 -18t18 -44l-7 -37
q-4 -20 -21 -32.5t-38 -12.5q-29 0 -45 18.5t-16 44.5l7 37q4 20 21.5 32t38.5 12z" />
    <glyph glyph-name="multiply" unicode="&#xd7;" horiz-adv-x="484" 
d="M144 387l-5 4q-48 35 -66 53q-13 13 -13 31q0 20 15 35q17 17 51 17q25 0 91 -59l15 -13l9 8q62 57 94 69q13 5 25 5q23 0 41 -18q14 -14 14 -35q0 -18 -13 -30q-45 -42 -85 -70q45 -31 77 -60q14 -12 14 -32t-14 -34q-18 -18 -40 -18q-10 0 -22 4t-21 9t-22.5 14.5
t-20.5 15.5t-20.5 18t-17.5 15q-3 -2 -28.5 -24.5t-37 -31t-32 -19t-36.5 -10.5q-22 0 -40 18q-14 13 -14 33t15 35q21 21 87 70z" />
    <glyph glyph-name="Oslash" unicode="&#xd8;" horiz-adv-x="540" 
d="M514 672q-40 -11 -77 -30q12 5 24 5q25 0 44 -23t29 -61t14.5 -77.5t4.5 -80.5q0 -54 -15 -112t-44.5 -112.5t-69 -97.5t-93.5 -69.5t-113 -26.5q-26 0 -47 6l-28 -51q-13 -23 -37 -23q-18 0 -32.5 13t-14.5 31q0 13 7 24l28 53q-56 63 -56 180q0 149 94.5 295.5
t228.5 224.5q90 52 137 52q27 0 43.5 -19t16.5 -44q0 -45 -44 -57zM161 226q0 -32 4 -56q111 203 234 418q2 31 28 48q-113 -61 -189.5 -175.5t-76.5 -234.5zM430 406q0 22 -3 45q-59 -110 -190 -342q81 12 137 104t56 193z" />
    <glyph glyph-name="Ugrave" unicode="&#xd9;" horiz-adv-x="638" 
d="M516 75q20 14 40 42.5t35 48t29 19.5q25 0 43.5 -17t18.5 -46q0 -54 -67 -123t-121 -69q-101 0 -101 152q0 33 8 99q-20 -30 -29 -43t-30.5 -41.5t-37.5 -43t-37.5 -32.5t-44 -25.5t-45.5 -7.5q-33 0 -52 25t-19 58q0 90 41.5 265.5t42.5 268.5q-18 -20 -27 -56
q-6 -23 -11 -35.5t-20.5 -26t-38.5 -13.5q-26 0 -44 18.5t-18 43.5q0 17 14 54t38 79.5t63.5 74t81.5 31.5q47 0 67.5 -38t20.5 -94q0 -28 -5 -63q-31 -244 -74 -414q11 0 25 12t32 38t33.5 50t38.5 65.5t35.5 65t36 68.5t30.5 58q30 59 76 59q24 0 42 -16.5t18 -44.5
q0 -6 -2 -16q-86 -254 -86 -430zM443 782q-30 0 -80.5 62.5t-50.5 86.5q0 23 15 38t38 15q11 0 25.5 -11t24.5 -22t27 -32t22 -27q2 -2 7.5 -8.5t8 -9t6.5 -8.5t6 -10t3.5 -10t1.5 -12q0 -23 -15.5 -37.5t-38.5 -14.5z" />
    <glyph glyph-name="Uacute" unicode="&#xda;" horiz-adv-x="638" 
d="M516 75q20 14 40 42.5t35 48t29 19.5q25 0 43.5 -17t18.5 -46q0 -54 -67 -123t-121 -69q-101 0 -101 152q0 33 8 99q-20 -30 -29 -43t-30.5 -41.5t-37.5 -43t-37.5 -32.5t-44 -25.5t-45.5 -7.5q-33 0 -52 25t-19 58q0 90 41.5 265.5t42.5 268.5q-18 -20 -27 -56
q-6 -23 -11 -35.5t-20.5 -26t-38.5 -13.5q-26 0 -44 18.5t-18 43.5q0 17 14 54t38 79.5t63.5 74t81.5 31.5q47 0 67.5 -38t20.5 -94q0 -28 -5 -63q-31 -244 -74 -414q11 0 25 12t32 38t33.5 50t38.5 65.5t35.5 65t36 68.5t30.5 58q30 59 76 59q24 0 42 -16.5t18 -44.5
q0 -6 -2 -16q-86 -254 -86 -430zM407 782q-23 0 -38.5 14.5t-15.5 37.5q0 26 32 58q7 8 27.5 35.5t37.5 42t34 14.5q23 0 38.5 -15.5t15.5 -37.5q0 -24 -50.5 -86.5t-80.5 -62.5z" />
    <glyph glyph-name="Ucircumflex" unicode="&#xdb;" horiz-adv-x="638" 
d="M516 75q20 14 40 42.5t35 48t29 19.5q25 0 43.5 -17t18.5 -46q0 -54 -67 -123t-121 -69q-101 0 -101 152q0 33 8 99q-20 -30 -29 -43t-30.5 -41.5t-37.5 -43t-37.5 -32.5t-44 -25.5t-45.5 -7.5q-33 0 -52 25t-19 58q0 90 41.5 265.5t42.5 268.5q-18 -20 -27 -56
q-6 -23 -11 -35.5t-20.5 -26t-38.5 -13.5q-26 0 -44 18.5t-18 43.5q0 17 14 54t38 79.5t63.5 74t81.5 31.5q47 0 67.5 -38t20.5 -94q0 -28 -5 -63q-31 -244 -74 -414q11 0 25 12t32 38t33.5 50t38.5 65.5t35.5 65t36 68.5t30.5 58q30 59 76 59q24 0 42 -16.5t18 -44.5
q0 -6 -2 -16q-86 -254 -86 -430zM455 868q-31 -31 -51 -56l-9 -11q-10 -13 -32 -13q-21 0 -34.5 14.5t-13.5 32.5q0 33 108 135q13 13 34 13q20 0 33 -13q71 -75 98 -117q6 -11 6 -24q0 -18 -14 -32.5t-33 -14.5q-11 0 -20.5 5.5t-12.5 8.5t-13 16.5t-10 14.5q-18 23 -36 41
z" />
    <glyph glyph-name="Udieresis" unicode="&#xdc;" horiz-adv-x="638" 
d="M516 75q20 14 40 42.5t35 48t29 19.5q25 0 43.5 -17t18.5 -46q0 -54 -67 -123t-121 -69q-101 0 -101 152q0 33 8 99q-20 -30 -29 -43t-30.5 -41.5t-37.5 -43t-37.5 -32.5t-44 -25.5t-45.5 -7.5q-33 0 -52 25t-19 58q0 90 41.5 265.5t42.5 268.5q-18 -20 -27 -56
q-6 -23 -11 -35.5t-20.5 -26t-38.5 -13.5q-26 0 -44 18.5t-18 43.5q0 17 14 54t38 79.5t63.5 74t81.5 31.5q47 0 67.5 -38t20.5 -94q0 -28 -5 -63q-31 -244 -74 -414q11 0 25 12t32 38t33.5 50t38.5 65.5t35.5 65t36 68.5t30.5 58q30 59 76 59q24 0 42 -16.5t18 -44.5
q0 -6 -2 -16q-86 -254 -86 -430zM394 938q24 0 42 -18t18 -44l-7 -37q-4 -20 -21 -32.5t-38 -12.5q-29 0 -45 18.5t-16 44.5l7 37q4 20 21.5 32t38.5 12zM559 926q25 0 43 -18t18 -44l-7 -37q-4 -20 -21.5 -32.5t-37.5 -12.5q-29 0 -45 18.5t-16 44.5l6 37q4 19 21.5 31.5
t38.5 12.5z" />
    <glyph glyph-name="Yacute" unicode="&#xdd;" horiz-adv-x="567" 
d="M224 209q110 108 186 247q9 14 20.5 36.5t18 33.5t20 20t31.5 9q25 0 42.5 -18.5t17.5 -43.5q0 -98 -21 -229q-9 -60 -22 -112.5t-37.5 -115t-55.5 -106.5t-80 -74t-107 -30q-18 0 -40 4t-46 12.5t-39.5 25.5t-15.5 40q0 26 19.5 44t44.5 18q11 0 36 -11.5t43 -11.5
q35 0 67.5 33.5t53.5 81.5t34 94.5t16 79.5q-126 -176 -210 -176q-51 0 -75 37.5t-24 91.5q0 91 65 244q4 10 22.5 51t24.5 56.5t13.5 43.5t7.5 51q-23 -16 -43 -45q-6 -9 -17 -29.5t-18 -31t-21.5 -20t-32.5 -9.5q-26 0 -43.5 18.5t-17.5 43.5q0 9 3 15q30 82 106 149
t149 67q64 0 64 -100q0 -45 -13 -101.5t-26.5 -94.5t-40 -104t-35.5 -91q-20 -56 -24 -93zM469 782q-23 0 -38.5 14.5t-15.5 37.5q0 26 32 58q7 8 27.5 35.5t37.5 42t34 14.5q23 0 38.5 -15.5t15.5 -37.5q0 -24 -50.5 -86.5t-80.5 -62.5z" />
    <glyph glyph-name="Thorn" unicode="&#xde;" horiz-adv-x="523" 
d="M196 631q122 0 196.5 -61.5t74.5 -151.5q0 -73 -41 -127t-97 -78t-114 -24q-19 0 -29 1q2 -97 5 -143q0 -26 -18.5 -44t-43.5 -18q-18 0 -30 7t-18 15.5t-9.5 24.5t-4.5 26t-1 28q-1 45 -1 122q0 230 14 545q1 34 17.5 52t44.5 18q61 0 61 -85q0 -37 -6 -107zM186 506
l-3 -193q22 -2 36 -2q58 0 92 31.5t34 75.5q0 41 -37 66t-88 25q-19 0 -34 -3z" />
    <glyph glyph-name="germandbls" unicode="&#xdf;" horiz-adv-x="629" 
d="M430 402q92 -112 92 -271q0 -113 -76 -229q-17 -26 -27 -40t-29.5 -29t-38.5 -15q-26 0 -44 18t-18 45q0 16 9 28t28.5 37.5t29 40t21.5 38t17.5 49.5t5.5 57q0 110 -57 184q-19 23 -45 40t-39 30t-13 38q0 19 13 36.5t32 21.5q62 14 95 41t33 75q0 32 -16.5 54t-42.5 22
t-50.5 -20.5t-38.5 -45.5q-33 -56 -51.5 -135.5t-22.5 -131.5t-6 -158.5t-3 -133.5q-2 -26 -19 -43.5t-43 -17.5q-25 0 -43 18t-18 43v60q0 97 2 154.5t14 143t36 155.5q36 108 93 167.5t158 59.5q80 0 123.5 -51t43.5 -149q0 -125 -105 -186z" />
    <glyph glyph-name="agrave" unicode="&#xe0;" horiz-adv-x="417" 
d="M123 110q97 38 131 145q5 15 22.5 26t33.5 11q25 0 43 -19t18 -43q0 -11 -13.5 -41.5t-13.5 -51.5q0 -27 11 -27q27 0 63 35.5t59 35.5q25 0 44 -18t19 -44q0 -33 -58 -80q-66 -51 -125 -51q-32 0 -65 16.5t-48 45.5q-68 -64 -126 -64q-52 0 -85 34.5t-33 88.5
q0 81 75.5 191t159.5 164q50 33 93 33q45 0 74.5 -33t29.5 -80q0 -36 -19 -68t-51 -32q-24 0 -43 16.5t-19 42.5l7 33q-49 -21 -116.5 -112t-67.5 -154zM298 535q-30 0 -80.5 62.5t-50.5 86.5q0 22 15.5 37.5t37.5 15.5q11 0 25.5 -11t24.5 -22t27 -32t22 -27q2 -2 7.5 -8.5
t8 -9t6.5 -8.5t6 -10t3.5 -10t1.5 -12q0 -23 -15.5 -37.5t-38.5 -14.5z" />
    <glyph glyph-name="aacute" unicode="&#xe1;" horiz-adv-x="417" 
d="M123 110q97 38 131 145q5 15 22.5 26t33.5 11q25 0 43 -19t18 -43q0 -11 -13.5 -41.5t-13.5 -51.5q0 -27 11 -27q27 0 63 35.5t59 35.5q25 0 44 -18t19 -44q0 -33 -58 -80q-66 -51 -125 -51q-32 0 -65 16.5t-48 45.5q-68 -64 -126 -64q-52 0 -85 34.5t-33 88.5
q0 81 75.5 191t159.5 164q50 33 93 33q45 0 74.5 -33t29.5 -80q0 -36 -19 -68t-51 -32q-24 0 -43 16.5t-19 42.5l7 33q-49 -21 -116.5 -112t-67.5 -154zM288 535q-23 0 -38.5 14.5t-15.5 37.5q0 26 32 58q7 8 27.5 35.5t37.5 42t34 14.5q23 0 38.5 -15.5t15.5 -37.5
q0 -24 -50.5 -86.5t-80.5 -62.5z" />
    <glyph glyph-name="acircumflex" unicode="&#xe2;" horiz-adv-x="417" 
d="M123 110q97 38 131 145q5 15 22.5 26t33.5 11q25 0 43 -19t18 -43q0 -11 -13.5 -41.5t-13.5 -51.5q0 -27 11 -27q27 0 63 35.5t59 35.5q25 0 44 -18t19 -44q0 -33 -58 -80q-66 -51 -125 -51q-32 0 -65 16.5t-48 45.5q-68 -64 -126 -64q-52 0 -85 34.5t-33 88.5
q0 81 75.5 191t159.5 164q50 33 93 33q45 0 74.5 -33t29.5 -80q0 -36 -19 -68t-51 -32q-24 0 -43 16.5t-19 42.5l7 33q-49 -21 -116.5 -112t-67.5 -154zM287 621q-31 -31 -51 -56l-9 -11q-10 -13 -32 -13q-21 0 -34.5 14.5t-13.5 32.5q0 33 108 135q13 13 34 13q20 0 33 -13
q71 -75 98 -117q6 -10 6 -24q0 -18 -14 -32.5t-33 -14.5q-11 0 -20.5 5.5t-12.5 8.5t-13 16.5t-10 14.5q-18 23 -36 41z" />
    <glyph glyph-name="atilde" unicode="&#xe3;" horiz-adv-x="417" 
d="M123 110q97 38 131 145q5 15 22.5 26t33.5 11q25 0 43 -19t18 -43q0 -11 -13.5 -41.5t-13.5 -51.5q0 -27 11 -27q27 0 63 35.5t59 35.5q25 0 44 -18t19 -44q0 -33 -58 -80q-66 -51 -125 -51q-32 0 -65 16.5t-48 45.5q-68 -64 -126 -64q-52 0 -85 34.5t-33 88.5
q0 81 75.5 191t159.5 164q50 33 93 33q45 0 74.5 -33t29.5 -80q0 -36 -19 -68t-51 -32q-24 0 -43 16.5t-19 42.5l7 33q-49 -21 -116.5 -112t-67.5 -154zM378 642q11 0 20.5 7.5t13.5 14.5l4 8q10 21 36 21q22 0 34.5 -12t12.5 -29q0 -34 -40 -66.5t-84 -32.5q-22 0 -40.5 12
t-28.5 27t-23 27t-26 12q-15 0 -39.5 -28.5t-43.5 -28.5q-18 0 -31 13t-13 30q0 11 8 24q61 79 118 79q29 0 70.5 -39t51.5 -39z" />
    <glyph glyph-name="adieresis" unicode="&#xe4;" horiz-adv-x="417" 
d="M123 110q97 38 131 145q5 15 22.5 26t33.5 11q25 0 43 -19t18 -43q0 -11 -13.5 -41.5t-13.5 -51.5q0 -27 11 -27q27 0 63 35.5t59 35.5q25 0 44 -18t19 -44q0 -33 -58 -80q-66 -51 -125 -51q-32 0 -65 16.5t-48 45.5q-68 -64 -126 -64q-52 0 -85 34.5t-33 88.5
q0 81 75.5 191t159.5 164q50 33 93 33q45 0 74.5 -33t29.5 -80q0 -36 -19 -68t-51 -32q-24 0 -43 16.5t-19 42.5l7 33q-49 -21 -116.5 -112t-67.5 -154zM225 691q24 0 42 -18t18 -44l-7 -37q-4 -20 -21 -32.5t-38 -12.5q-29 0 -45 18.5t-16 44.5l7 37q4 20 21.5 32t38.5 12z
M390 679q25 0 43 -18t18 -44l-7 -37q-4 -20 -21.5 -32.5t-37.5 -12.5q-29 0 -45 18.5t-16 44.5l6 37q4 19 21.5 31.5t38.5 12.5z" />
    <glyph glyph-name="aring" unicode="&#xe5;" horiz-adv-x="417" 
d="M123 110q97 38 131 145q5 15 22.5 26t33.5 11q25 0 43 -19t18 -43q0 -11 -13.5 -41.5t-13.5 -51.5q0 -27 11 -27q27 0 63 35.5t59 35.5q25 0 44 -18t19 -44q0 -33 -58 -80q-66 -51 -125 -51q-32 0 -65 16.5t-48 45.5q-68 -64 -126 -64q-52 0 -85 34.5t-33 88.5
q0 81 75.5 191t159.5 164q50 33 93 33q45 0 74.5 -33t29.5 -80q0 -36 -19 -68t-51 -32q-24 0 -43 16.5t-19 42.5l7 33q-49 -21 -116.5 -112t-67.5 -154zM319 636q0 -16 10.5 -26.5t26.5 -10.5q18 0 33 14t15 32q0 17 -10 28t-26 11q-19 0 -34 -14.5t-15 -33.5zM255 628
q0 48 37 84t85 36q40 0 66.5 -27.5t26.5 -67.5q0 -48 -37.5 -83t-86.5 -35q-40 0 -65.5 26.5t-25.5 66.5z" />
    <glyph glyph-name="ae" unicode="&#xe6;" horiz-adv-x="759" 
d="M525 186q2 -30 17 -52.5t42 -22.5q46 0 91 37q6 6 18 19t19.5 20t20 13.5t25.5 6.5q26 0 44.5 -18t18.5 -46q0 -17 -8 -28q-40 -54 -103.5 -90.5t-126.5 -36.5q-67 0 -113 43q-60 -42 -116 -42q-64 0 -101 50q-55 -52 -131 -52q-55 0 -88.5 36t-33.5 90q0 131 184 296
q3 2 20 17.5t28 24.5t28 21.5t32 18.5t27 6q24 0 43 -17.5t19 -44.5q0 -34 -30 -53q-71 -46 -149.5 -129t-78.5 -143q68 0 133 152q17 31 53 31q24 0 42 -18t18 -43q0 -15 -12.5 -45t-12.5 -49q0 -26 11 -26q26 0 54 26q-8 35 -8 70q0 109 62 188.5t151 79.5q56 0 86.5 -38
t30.5 -86q0 -66 -50 -119t-115 -53q-20 0 -41 6zM608 363q-29 0 -50 -23.5t-23 -52.5q35 0 54 20t19 56z" />
    <glyph glyph-name="ccedilla" unicode="&#xe7;" horiz-adv-x="316" 
d="M189 346q-22 -20 -39.5 -74t-17.5 -105q0 -56 23 -56q35 0 71 23.5t64 63.5q22 31 53 31q25 0 43.5 -19t18.5 -44q0 -17 -8 -29q-53 -82 -140 -124q-4 -86 -53 -141q-49 -56 -132 -56q-22 0 -38.5 16.5t-16.5 38.5t16.5 39t38.5 17q11 0 22.5 3.5t27 18t21.5 39.5
q-66 4 -99.5 55.5t-33.5 123.5q0 73 22.5 140t70 113t109.5 46q50 0 76.5 -31.5t26.5 -76.5q0 -17 -2 -33.5t-8.5 -37.5t-20.5 -34t-34 -13q-29 0 -45 34.5t-16 71.5z" />
    <glyph glyph-name="egrave" unicode="&#xe8;" horiz-adv-x="352" 
d="M134 186q2 -30 17 -52.5t42 -22.5q47 0 90 37q6 5 23 24t30.5 27t30.5 8q26 0 44.5 -18t18.5 -46q0 -15 -8 -28q-40 -54 -103.5 -90.5t-126.5 -36.5q-83 0 -132.5 64t-49.5 156q0 109 62 188.5t151 79.5q56 0 86.5 -38t30.5 -86q0 -66 -50 -119t-115 -53q-20 0 -41 6z
M217 363q-29 0 -50.5 -23.5t-23.5 -52.5q35 0 54.5 20.5t19.5 55.5zM205 535q-30 0 -80.5 62.5t-50.5 86.5q0 22 15 37.5t38 15.5q11 0 25.5 -11t24.5 -22t27 -32t22 -27q2 -2 7.5 -8.5t8 -9t6.5 -8.5t6 -10t3.5 -10t1.5 -12q0 -23 -15.5 -37.5t-38.5 -14.5z" />
    <glyph glyph-name="eacute" unicode="&#xe9;" horiz-adv-x="352" 
d="M134 186q2 -30 17 -52.5t42 -22.5q47 0 90 37q6 5 23 24t30.5 27t30.5 8q26 0 44.5 -18t18.5 -46q0 -15 -8 -28q-40 -54 -103.5 -90.5t-126.5 -36.5q-83 0 -132.5 64t-49.5 156q0 109 62 188.5t151 79.5q56 0 86.5 -38t30.5 -86q0 -66 -50 -119t-115 -53q-20 0 -41 6z
M217 363q-29 0 -50.5 -23.5t-23.5 -52.5q35 0 54.5 20.5t19.5 55.5zM200 535q-23 0 -38.5 14.5t-15.5 37.5q0 26 32 58q7 8 27.5 35.5t37.5 42t34 14.5q23 0 38.5 -15.5t15.5 -37.5q0 -24 -50.5 -86.5t-80.5 -62.5z" />
    <glyph glyph-name="ecircumflex" unicode="&#xea;" horiz-adv-x="352" 
d="M134 186q2 -30 17 -52.5t42 -22.5q47 0 90 37q6 5 23 24t30.5 27t30.5 8q26 0 44.5 -18t18.5 -46q0 -15 -8 -28q-40 -54 -103.5 -90.5t-126.5 -36.5q-83 0 -132.5 64t-49.5 156q0 109 62 188.5t151 79.5q56 0 86.5 -38t30.5 -86q0 -66 -50 -119t-115 -53q-20 0 -41 6z
M217 363q-29 0 -50.5 -23.5t-23.5 -52.5q35 0 54.5 20.5t19.5 55.5zM219 621q-31 -31 -51 -56l-9 -11q-10 -13 -32 -13q-21 0 -34.5 14.5t-13.5 32.5q0 33 108 135q13 13 34 13q20 0 33 -13q71 -75 98 -117q6 -10 6 -24q0 -18 -14 -32.5t-33 -14.5q-11 0 -20.5 5.5
t-12.5 8.5t-13 16.5t-10 14.5q-18 23 -36 41z" />
    <glyph glyph-name="edieresis" unicode="&#xeb;" horiz-adv-x="352" 
d="M134 186q2 -30 17 -52.5t42 -22.5q47 0 90 37q6 5 23 24t30.5 27t30.5 8q26 0 44.5 -18t18.5 -46q0 -15 -8 -28q-40 -54 -103.5 -90.5t-126.5 -36.5q-83 0 -132.5 64t-49.5 156q0 109 62 188.5t151 79.5q56 0 86.5 -38t30.5 -86q0 -66 -50 -119t-115 -53q-20 0 -41 6z
M217 363q-29 0 -50.5 -23.5t-23.5 -52.5q35 0 54.5 20.5t19.5 55.5zM144 691q24 0 42 -18t18 -44l-7 -37q-4 -20 -21 -32.5t-38 -12.5q-29 0 -45 18.5t-16 44.5l7 37q4 20 21.5 32t38.5 12zM309 679q25 0 43 -18t18 -44l-7 -37q-4 -20 -21.5 -32.5t-37.5 -12.5
q-29 0 -45 18.5t-16 44.5l6 37q4 19 21.5 31.5t38.5 12.5z" />
    <glyph glyph-name="igrave" unicode="&#xec;" horiz-adv-x="283" 
d="M140 113q9 2 30 25t46.5 45.5t45.5 22.5q25 0 44 -18t19 -44q0 -37 -68.5 -96.5t-127.5 -59.5q-51 0 -81.5 35.5t-30.5 85.5q0 70 30.5 178t66.5 172q16 30 55 30q24 0 42.5 -18.5t18.5 -43.5q0 -9 -7 -24q-83 -199 -83 -290zM167 535q-30 0 -80.5 62.5t-50.5 86.5
q0 22 15 37.5t38 15.5q11 0 25.5 -11t24.5 -22t27 -32t22 -27q2 -2 7.5 -8.5t8 -9t6.5 -8.5t6 -10t3.5 -10t1.5 -12q0 -23 -15.5 -37.5t-38.5 -14.5z" />
    <glyph glyph-name="iacute" unicode="&#xed;" horiz-adv-x="283" 
d="M140 113q9 2 30 25t46.5 45.5t45.5 22.5q25 0 44 -18t19 -44q0 -37 -68.5 -96.5t-127.5 -59.5q-51 0 -81.5 35.5t-30.5 85.5q0 70 30.5 178t66.5 172q16 30 55 30q24 0 42.5 -18.5t18.5 -43.5q0 -9 -7 -24q-83 -199 -83 -290zM213 535q-23 0 -38.5 14.5t-15.5 37.5
q0 26 32 58q7 8 27.5 35.5t37.5 42t34 14.5q23 0 38.5 -15.5t15.5 -37.5q0 -24 -50.5 -86.5t-80.5 -62.5z" />
    <glyph glyph-name="icircumflex" unicode="&#xee;" horiz-adv-x="283" 
d="M140 113q9 2 30 25t46.5 45.5t45.5 22.5q25 0 44 -18t19 -44q0 -37 -68.5 -96.5t-127.5 -59.5q-51 0 -81.5 35.5t-30.5 85.5q0 70 30.5 178t66.5 172q16 30 55 30q24 0 42.5 -18.5t18.5 -43.5q0 -9 -7 -24q-83 -199 -83 -290zM177 621q-31 -31 -51 -56l-9 -11
q-10 -13 -32 -13q-21 0 -34.5 14.5t-13.5 32.5q0 33 108 135q13 13 34 13q20 0 33 -13q71 -75 98 -117q6 -10 6 -24q0 -18 -14 -32.5t-33 -14.5q-11 0 -20.5 5.5t-12.5 8.5t-13 16.5t-10 14.5q-18 23 -36 41z" />
    <glyph glyph-name="idieresis" unicode="&#xef;" horiz-adv-x="283" 
d="M140 113q9 2 30 25t46.5 45.5t45.5 22.5q25 0 44 -18t19 -44q0 -37 -68.5 -96.5t-127.5 -59.5q-51 0 -81.5 35.5t-30.5 85.5q0 70 30.5 178t66.5 172q16 30 55 30q24 0 42.5 -18.5t18.5 -43.5q0 -9 -7 -24q-83 -199 -83 -290zM132 691q24 0 42 -18t18 -44l-7 -37
q-4 -20 -21 -32.5t-38 -12.5q-29 0 -45 18.5t-16 44.5l7 37q4 20 21.5 32t38.5 12zM297 679q25 0 43 -18t18 -44l-7 -37q-4 -20 -21.5 -32.5t-37.5 -12.5q-29 0 -45 18.5t-16 44.5l6 37q4 19 21.5 31.5t38.5 12.5z" />
    <glyph glyph-name="eth" unicode="&#xf0;" horiz-adv-x="469" 
d="M288 448q-30 49 -68 97q-9 -4 -28.5 -15.5t-33.5 -18t-22 -6.5q-18 0 -31.5 15t-13.5 32q0 27 23 41l40 25l-52 49q-18 17 -18 42q0 26 18 44t42 18q26 0 45 -17l77 -74l18 9q35 17 52 18q20 0 34 -14.5t14 -35.5q0 -17 -10.5 -26.5t-40.5 -25.5q165 -207 165 -383
q0 -55 -20.5 -107.5t-66 -90.5t-105.5 -38q-66 0 -124.5 52.5t-90 123t-31.5 131.5q0 71 36.5 124t105.5 53q40 0 86 -22zM376 223q0 54 -36 97.5t-79 43.5q-34 0 -56 -18t-22 -51q0 -55 39.5 -120t86.5 -65q30 0 48.5 35.5t18.5 77.5z" />
    <glyph glyph-name="ntilde" unicode="&#xf1;" horiz-adv-x="408" 
d="M305 166q20 27 50 85q16 30 50 30q25 0 44.5 -16.5t19.5 -42.5q0 -17 -8 -33q-32 -66 -77.5 -120t-97.5 -54q-35 0 -62.5 20.5t-40.5 55.5l-51 -72q-21 -31 -53 -31q-20 0 -34 10.5t-21 24t-10.5 37t-4 37.5t-0.5 38q0 141 58 325q14 44 57 44q25 0 44.5 -16.5
t19.5 -42.5q0 -9 -8 -35q-28 -94 -39 -162q17 26 36 55.5t42 65.5t36 56q20 30 53 30q25 0 43 -17t18 -43q0 -11 -1 -17q-3 -9 -12 -34t-13 -36t-11.5 -33t-11.5 -37t-8 -34.5t-7 -37.5zM290 623q11 0 20.5 7.5t13.5 15.5l4 7q10 21 36 21q22 0 34.5 -12t12.5 -29
q0 -34 -40 -66.5t-84 -32.5q-22 0 -40.5 12t-28.5 27t-23 27t-26 12q-15 0 -39.5 -28.5t-43.5 -28.5q-18 0 -31 13t-13 30q0 11 8 24q61 79 118 79q29 0 70.5 -39t51.5 -39z" />
    <glyph glyph-name="ograve" unicode="&#xf2;" horiz-adv-x="390" 
d="M227 476q6 0 17 -1.5t38 -14t47.5 -34.5t37.5 -70t17 -113q0 -104 -61.5 -180.5t-157.5 -76.5q-57 0 -93 31t-48 70.5t-12 87.5q0 113 63.5 207t151.5 94zM219 357q-39 0 -64 -63t-25 -115q0 -17 3 -33.5t13.5 -32.5t27.5 -16q29 0 56.5 40.5t32.5 107.5q1 7 1 24
q0 88 -45 88zM205 535q-30 0 -80.5 62.5t-50.5 86.5q0 22 15 37.5t38 15.5q11 0 25.5 -11t24.5 -22t27 -32t22 -27q2 -2 7.5 -8.5t8 -9t6.5 -8.5t6 -10t3.5 -10t1.5 -12q0 -23 -15.5 -37.5t-38.5 -14.5z" />
    <glyph glyph-name="oacute" unicode="&#xf3;" horiz-adv-x="390" 
d="M227 476q6 0 17 -1.5t38 -14t47.5 -34.5t37.5 -70t17 -113q0 -104 -61.5 -180.5t-157.5 -76.5q-57 0 -93 31t-48 70.5t-12 87.5q0 113 63.5 207t151.5 94zM219 357q-39 0 -64 -63t-25 -115q0 -17 3 -33.5t13.5 -32.5t27.5 -16q29 0 56.5 40.5t32.5 107.5q1 7 1 24
q0 88 -45 88zM180 535q-23 0 -38.5 14.5t-15.5 37.5q0 26 32 58q7 8 27.5 35.5t37.5 42t34 14.5q23 0 38.5 -15.5t15.5 -37.5q0 -24 -50.5 -86.5t-80.5 -62.5z" />
    <glyph glyph-name="ocircumflex" unicode="&#xf4;" horiz-adv-x="390" 
d="M227 476q6 0 17 -1.5t38 -14t47.5 -34.5t37.5 -70t17 -113q0 -104 -61.5 -180.5t-157.5 -76.5q-57 0 -93 31t-48 70.5t-12 87.5q0 113 63.5 207t151.5 94zM219 357q-39 0 -64 -63t-25 -115q0 -17 3 -33.5t13.5 -32.5t27.5 -16q29 0 56.5 40.5t32.5 107.5q1 7 1 24
q0 88 -45 88zM236 621q-31 -31 -51 -56l-9 -11q-10 -13 -32 -13q-21 0 -34.5 14.5t-13.5 32.5q0 33 108 135q13 13 34 13q20 0 33 -13q71 -75 98 -117q6 -10 6 -24q0 -18 -14 -32.5t-33 -14.5q-11 0 -20.5 5.5t-12.5 8.5t-13 16.5t-10 14.5q-18 23 -36 41z" />
    <glyph glyph-name="otilde" unicode="&#xf5;" horiz-adv-x="390" 
d="M227 476q6 0 17 -1.5t38 -14t47.5 -34.5t37.5 -70t17 -113q0 -104 -61.5 -180.5t-157.5 -76.5q-57 0 -93 31t-48 70.5t-12 87.5q0 113 63.5 207t151.5 94zM219 357q-39 0 -64 -63t-25 -115q0 -17 3 -33.5t13.5 -32.5t27.5 -16q29 0 56.5 40.5t32.5 107.5q1 7 1 24
q0 88 -45 88zM320 642q11 0 20.5 7.5t13.5 14.5l4 8q10 21 36 21q22 0 34.5 -12t12.5 -29q0 -34 -40 -66.5t-84 -32.5q-22 0 -40.5 12t-28.5 27t-23 27t-26 12q-15 0 -39.5 -28.5t-43.5 -28.5q-18 0 -31 13t-13 30q0 11 8 24q61 79 118 79q29 0 70.5 -39t51.5 -39z" />
    <glyph glyph-name="odieresis" unicode="&#xf6;" horiz-adv-x="390" 
d="M227 476q6 0 17 -1.5t38 -14t47.5 -34.5t37.5 -70t17 -113q0 -104 -61.5 -180.5t-157.5 -76.5q-57 0 -93 31t-48 70.5t-12 87.5q0 113 63.5 207t151.5 94zM219 357q-39 0 -64 -63t-25 -115q0 -17 3 -33.5t13.5 -32.5t27.5 -16q29 0 56.5 40.5t32.5 107.5q1 7 1 24
q0 88 -45 88zM181 691q24 0 42 -18t18 -44l-7 -37q-4 -20 -21 -32.5t-38 -12.5q-29 0 -45 18.5t-16 44.5l7 37q4 20 21.5 32t38.5 12zM346 679q25 0 43 -18t18 -44l-7 -37q-4 -20 -21.5 -32.5t-37.5 -12.5q-29 0 -45 18.5t-16 44.5l6 37q4 19 21.5 31.5t38.5 12.5z" />
    <glyph glyph-name="divide" unicode="&#xf7;" horiz-adv-x="481" 
d="M221 275q25 0 43 -18t18 -44l-15 -78q-4 -20 -21 -32.5t-38 -12.5q-29 0 -45 18t-16 44l15 79q4 19 21.5 31.5t37.5 12.5zM274 680q25 0 43 -18t18 -44l-15 -78q-4 -20 -21 -32.5t-38 -12.5q-29 0 -45 18t-16 44l14 79q5 20 22.5 32t37.5 12zM382 445q20 0 36.5 -16.5
t16.5 -37.5q0 -19 -11.5 -36.5t-28.5 -18.5q-81 -6 -168 -6q-65 0 -139 3q-20 1 -35 17t-15 38q0 19 11.5 36.5t28.5 17.5q279 3 304 3z" />
    <glyph glyph-name="oslash" unicode="&#xf8;" horiz-adv-x="390" 
d="M344 547q8 15 25 15q12 0 22 -9t10 -21q0 -4 -5 -19l-47 -85q35 -72 35 -183q0 -98 -66.5 -177.5t-160.5 -79.5q-27 0 -50 9l-19 -35q-9 -16 -26 -16q-12 0 -22 9t-10 21q0 8 5 16l22 41q-45 52 -45 144q0 76 31.5 159t87 141t115.5 58q38 0 68 -40zM219 368
q-85 -93 -85 -194l100 178q-4 5 -15 16zM261 247q0 13 -1 20l-87 -155q35 9 61.5 51t26.5 84z" />
    <glyph glyph-name="ugrave" unicode="&#xf9;" horiz-adv-x="415" 
d="M332 126q19 11 52.5 46t49.5 35q27 0 45.5 -17t18.5 -44q0 -40 -66.5 -99t-120.5 -59q-38 0 -63.5 24t-32.5 61q-58 -53 -107 -53q-51 0 -74.5 38.5t-23.5 95.5q0 69 27 157.5t59 150.5q15 30 51 30q24 0 43 -16.5t19 -43.5q0 -23 -24 -69q-22 -40 -37 -97t-15 -102
q58 23 112 167q1 4 6.5 18t8.5 21t9.5 19t13 18.5t16.5 11.5t22 5q28 0 45 -18.5t17 -43.5q0 -11 -3.5 -23t-10.5 -27t-9 -22q-28 -80 -28 -164zM244 535q-30 0 -80.5 62.5t-50.5 86.5q0 22 15.5 37.5t37.5 15.5q11 0 25.5 -11t24.5 -22t27 -32t22 -27q2 -2 7.5 -8.5t8 -9
t6.5 -8.5t6 -10t3.5 -10t1.5 -12q0 -23 -15.5 -37.5t-38.5 -14.5z" />
    <glyph glyph-name="uacute" unicode="&#xfa;" horiz-adv-x="415" 
d="M332 126q19 11 52.5 46t49.5 35q27 0 45.5 -17t18.5 -44q0 -40 -66.5 -99t-120.5 -59q-38 0 -63.5 24t-32.5 61q-58 -53 -107 -53q-51 0 -74.5 38.5t-23.5 95.5q0 69 27 157.5t59 150.5q15 30 51 30q24 0 43 -16.5t19 -43.5q0 -23 -24 -69q-22 -40 -37 -97t-15 -102
q58 23 112 167q1 4 6.5 18t8.5 21t9.5 19t13 18.5t16.5 11.5t22 5q28 0 45 -18.5t17 -43.5q0 -11 -3.5 -23t-10.5 -27t-9 -22q-28 -80 -28 -164zM269 535q-23 0 -38.5 14.5t-15.5 37.5q0 26 32 58q7 8 27.5 35.5t37.5 42t34 14.5q23 0 38.5 -15.5t15.5 -37.5
q0 -24 -50.5 -86.5t-80.5 -62.5z" />
    <glyph glyph-name="ucircumflex" unicode="&#xfb;" horiz-adv-x="415" 
d="M332 126q19 11 52.5 46t49.5 35q27 0 45.5 -17t18.5 -44q0 -40 -66.5 -99t-120.5 -59q-38 0 -63.5 24t-32.5 61q-58 -53 -107 -53q-51 0 -74.5 38.5t-23.5 95.5q0 69 27 157.5t59 150.5q15 30 51 30q24 0 43 -16.5t19 -43.5q0 -23 -24 -69q-22 -40 -37 -97t-15 -102
q58 23 112 167q1 4 6.5 18t8.5 21t9.5 19t13 18.5t16.5 11.5t22 5q28 0 45 -18.5t17 -43.5q0 -11 -3.5 -23t-10.5 -27t-9 -22q-28 -80 -28 -164zM258 621q-31 -31 -51 -56l-9 -11q-10 -13 -32 -13q-21 0 -34.5 14.5t-13.5 32.5q0 33 108 135q13 13 34 13q20 0 33 -13
q71 -75 98 -117q6 -10 6 -24q0 -18 -14 -32.5t-33 -14.5q-11 0 -20.5 5.5t-12.5 8.5t-13 16.5t-10 14.5q-18 23 -36 41z" />
    <glyph glyph-name="udieresis" unicode="&#xfc;" horiz-adv-x="415" 
d="M332 126q19 11 52.5 46t49.5 35q27 0 45.5 -17t18.5 -44q0 -40 -66.5 -99t-120.5 -59q-38 0 -63.5 24t-32.5 61q-58 -53 -107 -53q-51 0 -74.5 38.5t-23.5 95.5q0 69 27 157.5t59 150.5q15 30 51 30q24 0 43 -16.5t19 -43.5q0 -23 -24 -69q-22 -40 -37 -97t-15 -102
q58 23 112 167q1 4 6.5 18t8.5 21t9.5 19t13 18.5t16.5 11.5t22 5q28 0 45 -18.5t17 -43.5q0 -11 -3.5 -23t-10.5 -27t-9 -22q-28 -80 -28 -164zM190 691q24 0 42 -18t18 -44l-7 -37q-4 -20 -21 -32.5t-38 -12.5q-29 0 -45 18.5t-16 44.5l7 37q4 20 21.5 32t38.5 12z
M355 679q25 0 43 -18t18 -44l-7 -37q-4 -20 -21.5 -32.5t-37.5 -12.5q-29 0 -45 18.5t-16 44.5l6 37q4 19 21.5 31.5t38.5 12.5z" />
    <glyph glyph-name="yacute" unicode="&#xfd;" horiz-adv-x="393" 
d="M140 192q72 47 129 239q6 21 22.5 33t36.5 12q25 0 42.5 -17.5t19.5 -43.5l-6 -38q-58 -247 -61 -259q-54 -202 -128 -257q-35 -27 -78 -27q-46 0 -81 29t-36 75q2 28 18.5 48.5t40.5 20.5q22 0 39 -12t22 -33q9 0 17 7.5t15 23t11.5 26.5t11 31.5t7.5 24.5
q-40 -19 -71 -19q-45 0 -69.5 38.5t-24.5 88.5q0 156 85 337q16 31 52 31q25 0 44.5 -18t19.5 -44q0 -7 -3 -15q-66 -164 -75 -282zM298 535q-23 0 -38.5 14.5t-15.5 37.5q0 26 32 58q7 8 27.5 35.5t37.5 42t34 14.5q23 0 38.5 -15.5t15.5 -37.5q0 -24 -50.5 -86.5
t-80.5 -62.5z" />
    <glyph glyph-name="thorn" unicode="&#xfe;" horiz-adv-x="495" 
d="M221 450q75 0 138 -38t63 -111q0 -83 -74.5 -132.5t-168.5 -50.5l-9 -73q-3 -25 -22.5 -43t-44.5 -18q-54 0 -54 72q0 9 2 27l58 433q3 25 22 43t46 18q26 0 39.5 -19t13.5 -47zM204 336l-13 -102q31 0 70 14t39 44q0 20 -34 32t-62 12z" />
    <glyph glyph-name="ydieresis" unicode="&#xff;" horiz-adv-x="393" 
d="M140 192q72 47 129 239q6 21 22.5 33t36.5 12q25 0 42.5 -17.5t19.5 -43.5l-6 -38q-58 -247 -61 -259q-54 -202 -128 -257q-35 -27 -78 -27q-46 0 -81 29t-36 75q2 28 18.5 48.5t40.5 20.5q22 0 39 -12t22 -33q9 0 17 7.5t15 23t11.5 26.5t11 31.5t7.5 24.5
q-40 -19 -71 -19q-45 0 -69.5 38.5t-24.5 88.5q0 156 85 337q16 31 52 31q25 0 44.5 -18t19.5 -44q0 -7 -3 -15q-66 -164 -75 -282zM219 691q24 0 42 -18t18 -44l-7 -37q-4 -20 -21 -32.5t-38 -12.5q-29 0 -45 18.5t-16 44.5l7 37q4 20 21.5 32t38.5 12zM384 679
q25 0 43 -18t18 -44l-7 -37q-4 -20 -21.5 -32.5t-37.5 -12.5q-29 0 -45 18.5t-16 44.5l6 37q4 19 21.5 31.5t38.5 12.5z" />
    <glyph glyph-name="dotlessi" unicode="&#x131;" horiz-adv-x="283" 
d="M140 113q9 2 30 25t46.5 45.5t45.5 22.5q25 0 44 -18t19 -44q0 -37 -68.5 -96.5t-127.5 -59.5q-51 0 -81.5 35.5t-30.5 85.5q0 70 30.5 178t66.5 172q16 30 55 30q24 0 42.5 -18.5t18.5 -43.5q0 -9 -7 -24q-83 -199 -83 -290z" />
    <glyph glyph-name="OE" unicode="&#x152;" horiz-adv-x="831" 
d="M218 108q59 0 108 41t77.5 104.5t43.5 131.5t15 129q0 52 -12 84.5t-33 32.5q-47 0 -108 -67t-104.5 -163.5t-43.5 -174.5q0 -118 57 -118zM550 358l-19 -155q130 24 214 24h7q28 -1 44 -19t16 -42t-15.5 -42.5t-44.5 -19.5q-86 -4 -201.5 -23t-188.5 -49
q-65 -45 -144 -45q-51 0 -88 22t-56 58.5t-27.5 74.5t-8.5 78q0 150 94.5 296.5t228.5 223.5q153 88 404 88q28 0 43.5 -18t15.5 -43q0 -24 -15.5 -42t-44.5 -19q-84 -5 -153 -17l-37 -194l140 42q6 1 16 1q27 0 44 -19t17 -44q0 -44 -44 -57z" />
    <glyph glyph-name="oe" unicode="&#x153;" horiz-adv-x="613" 
d="M382 186q2 -30 17 -52.5t42 -22.5q47 0 90 37q6 5 23 24t30.5 27t30.5 8q26 0 44.5 -18t18.5 -46q0 -16 -9 -28q-39 -53 -102.5 -90t-126.5 -37q-83 0 -134 67q-64 -67 -149 -67q-74 0 -109.5 57.5t-35.5 131.5q0 105 59.5 198t155.5 151q15 9 31 9q25 0 43.5 -19
t18.5 -43q0 -20 -13 -36q21 -23 24 -28q60 67 140 67q56 0 86.5 -38t30.5 -86q0 -66 -50 -119t-115 -53q-20 0 -41 6zM465 363q-29 0 -50.5 -23.5t-23.5 -52.5q35 0 54.5 20.5t19.5 55.5zM212 358q-78 -85 -78 -182q0 -8 1.5 -21t7.5 -28.5t16 -15.5q40 0 71 45t31 91
q0 66 -49 111z" />
    <glyph glyph-name="Scaron" unicode="&#x160;" horiz-adv-x="472" 
d="M311 284q-59 -17 -95 -17q-51 0 -91.5 35.5t-40.5 99.5q0 57 35 117.5t91.5 110.5t109.5 87t105 65q13 8 31 8q28 0 45 -18.5t17 -42.5q0 -37 -31 -53q-35 -18 -77.5 -46.5t-91 -67t-80.5 -81t-32 -77.5q0 -15 12 -15q22 0 70 16.5t73 16.5q34 0 59 -24t25 -64
q0 -112 -95 -218t-237 -182q-15 -7 -32 -7q-24 0 -42.5 17t-18.5 44q0 35 31 53q45 26 76.5 47t73 53.5t70 68.5t40.5 74zM308 897q18 18 36 41q1 2 10 14.5t12.5 16.5t13 9t20.5 5q19 0 33 -14t14 -33q0 -14 -6 -23q-30 -46 -98 -118q-13 -13 -33 -13q-21 0 -34 13
q-108 102 -108 135q0 18 13 32.5t34 14.5q23 0 33 -13l9 -11q35 -42 51 -56z" />
    <glyph glyph-name="scaron" unicode="&#x161;" horiz-adv-x="333" 
d="M147 275q0 -11 25.5 -37t51 -62t25.5 -70q0 -84 -75 -133.5t-159 -49.5q-25 0 -43 18.5t-18 43.5q0 31 26.5 46t59 17.5t59 16t26.5 42.5q0 23 -25.5 50.5t-51 57t-25.5 59.5q0 77 89 144t154 67q26 0 44 -16t18 -46q0 -15 -8 -28.5t-23 -17.5q-46 -13 -98 -42t-52 -60z
M202 650q18 18 36 41q1 2 10 14.5t12.5 16.5t13 9t20.5 5q19 0 33 -14t14 -33q0 -14 -6 -23q-30 -46 -98 -118q-13 -13 -33 -13q-21 0 -34 13q-108 102 -108 135q0 18 13 32.5t34 14.5q23 0 33 -13l9 -11q35 -42 51 -56z" />
    <glyph glyph-name="Ydieresis" unicode="&#x178;" horiz-adv-x="567" 
d="M224 209q110 108 186 247q9 14 20.5 36.5t18 33.5t20 20t31.5 9q25 0 42.5 -18.5t17.5 -43.5q0 -98 -21 -229q-9 -60 -22 -112.5t-37.5 -115t-55.5 -106.5t-80 -74t-107 -30q-18 0 -40 4t-46 12.5t-39.5 25.5t-15.5 40q0 26 19.5 44t44.5 18q11 0 36 -11.5t43 -11.5
q35 0 67.5 33.5t53.5 81.5t34 94.5t16 79.5q-126 -176 -210 -176q-51 0 -75 37.5t-24 91.5q0 91 65 244q4 10 22.5 51t24.5 56.5t13.5 43.5t7.5 51q-23 -16 -43 -45q-6 -9 -17 -29.5t-18 -31t-21.5 -20t-32.5 -9.5q-26 0 -43.5 18.5t-17.5 43.5q0 9 3 15q30 82 106 149
t149 67q64 0 64 -100q0 -45 -13 -101.5t-26.5 -94.5t-40 -104t-35.5 -91q-20 -56 -24 -93zM410 938q24 0 42 -18t18 -44l-7 -37q-4 -20 -21 -32.5t-38 -12.5q-29 0 -45 18.5t-16 44.5l7 37q4 20 21.5 32t38.5 12zM575 926q25 0 43 -18t18 -44l-7 -37q-4 -20 -21.5 -32.5
t-37.5 -12.5q-29 0 -45 18.5t-16 44.5l6 37q4 19 21.5 31.5t38.5 12.5z" />
    <glyph glyph-name="Zcaron" unicode="&#x17d;" horiz-adv-x="580" 
d="M229 130l289 47q22 0 37.5 -20.5t15.5 -41.5q0 -18 -11 -36.5t-34 -23.5q-363 -68 -412 -68q-22 0 -40.5 19t-18.5 42q0 15 8 31l110 208q-54 -13 -93 -13q-24 0 -42 18.5t-18 42.5q0 21 12.5 38t33.5 22l12 2q89 13 169 27l127 230q-127 7 -249 7q-28 0 -44 18.5
t-16 43.5q0 24 15.5 42.5t44.5 18.5q217 0 351 -13q27 -2 44.5 -19.5t17.5 -40.5q0 -17 -9 -32l-120 -216q7 2 26.5 9t31 11t27 7.5t24.5 3.5q24 0 42 -18t18 -43q0 -22 -12.5 -38t-32.5 -21q-94 -34 -205 -58zM328 897q18 18 36 41q1 2 10 14.5t12.5 16.5t13 9t20.5 5
q19 0 33 -14t14 -33q0 -14 -6 -23q-30 -46 -98 -118q-13 -13 -33 -13q-21 0 -34 13q-108 102 -108 135q0 18 13 32.5t34 14.5q23 0 33 -13l9 -11q35 -42 51 -56z" />
    <glyph glyph-name="zcaron" unicode="&#x17e;" horiz-adv-x="370" 
d="M190 143l44 -24q9 4 41.5 28t52.5 24q25 0 42 -19t17 -44q0 -26 -18 -42q-84 -78 -137 -78q-15 0 -47 18q-74 44 -130 61q-21 6 -33.5 22.5t-12.5 36.5q0 21 11.5 34.5t35.5 30.5q74 53 145 132q-55 21 -95 30q-20 5 -32.5 22.5t-12.5 38.5q0 24 18 42t44 18t101.5 -28.5
t111.5 -50.5q30 -17 30 -53q0 -9 -2 -16.5t-7.5 -15.5t-7.5 -11t-12 -13l-11 -11q-82 -86 -136 -132zM227 650q18 18 36 41q1 2 10 14.5t12.5 16.5t13 9t20.5 5q19 0 33 -14t14 -33q0 -14 -6 -23q-30 -46 -98 -118q-13 -13 -33 -13q-21 0 -34 13q-108 102 -108 135
q0 18 13 32.5t34 14.5q23 0 33 -13l9 -11q35 -42 51 -56z" />
    <glyph glyph-name="florin" unicode="&#x192;" horiz-adv-x="484" 
d="M162 390q19 138 104.5 226.5t215.5 88.5q24 0 41 -19.5t17 -43.5q0 -28 -19.5 -42t-60 -23t-53.5 -14q-80 -35 -110 -130q75 24 93 24q27 0 43.5 -19.5t16.5 -44.5q0 -43 -45 -57l-124 -37v-89q-1 -99 -17 -170t-65 -122q-37 -38 -95 -63.5t-116 -25.5q-24 0 -41.5 18.5
t-17.5 43.5q0 19 13 37t32 22q37 6 55.5 10.5t46.5 18.5t45 36q36 46 36 187v57q-48 -20 -74 -20q-25 0 -42 19t-17 44q0 12 4 21.5t13.5 17.5t17.5 13.5t24 11t25 8.5t28 8.5t26 7.5z" />
    <glyph glyph-name="circumflex" unicode="&#x2c6;" horiz-adv-x="325" 
d="M222 621q-31 -31 -51 -56l-9 -11q-10 -13 -32 -13q-21 0 -34.5 14.5t-13.5 32.5q0 33 108 135q13 13 34 13q20 0 33 -13q71 -75 98 -117q6 -10 6 -24q0 -18 -14 -32.5t-33 -14.5q-11 0 -20.5 5.5t-12.5 8.5t-13 16.5t-10 14.5q-18 23 -36 41z" />
    <glyph glyph-name="caron" unicode="&#x2c7;" horiz-adv-x="325" 
d="M222 650q18 18 36 41q1 2 10 14.5t12.5 16.5t13 9t20.5 5q19 0 33 -14t14 -33q0 -14 -6 -23q-30 -46 -98 -118q-13 -13 -33 -13q-21 0 -34 13q-108 102 -108 135q0 18 13 32.5t34 14.5q23 0 33 -13l9 -11q35 -42 51 -56z" />
    <glyph glyph-name="breve" unicode="&#x2d8;" horiz-adv-x="262" 
d="M264 661q20 30 41 30q18 0 32 -12.5t14 -33.5q0 -46 -47 -78t-97 -32q-42 0 -88 31t-46 72q0 20 15 33t34 13q16 0 24 -7t17 -22q19 -25 48 -25q32 0 53 31z" />
    <glyph glyph-name="dotaccent" unicode="&#x2d9;" horiz-adv-x="189" 
d="M140 679q24 0 42.5 -18t18.5 -44l-7 -37q-4 -20 -21.5 -32.5t-37.5 -12.5q-29 0 -45.5 18.5t-16.5 44.5l7 37q4 20 21.5 32t38.5 12z" />
    <glyph glyph-name="ring" unicode="&#x2da;" horiz-adv-x="230" 
d="M146 636q0 -16 10.5 -26.5t26.5 -10.5q18 0 33 14t15 32q0 17 -10 28t-26 11q-19 0 -34 -14.5t-15 -33.5zM82 628q0 48 37 84t85 36q40 0 66.5 -27.5t26.5 -67.5q0 -48 -37.5 -83t-86.5 -35q-40 0 -65.5 26.5t-25.5 66.5z" />
    <glyph glyph-name="ogonek" unicode="&#x2db;" horiz-adv-x="258" 
d="M184 -79q14 0 33 12.5t30 12.5q25 0 38 -16t13 -41q0 -31 -38 -55t-77 -24q-54 0 -82 35.5t-28 85.5q0 22 8 52.5t29.5 59.5t51.5 29q23 0 39.5 -17t16.5 -41q0 -13 -17.5 -38.5t-17.5 -43.5q0 -8 1 -11z" />
    <glyph glyph-name="tilde" unicode="&#x2dc;" horiz-adv-x="410" 
d="M277 642q11 0 20.5 7.5t13.5 14.5l4 8q11 21 36 21q22 0 34.5 -12t12.5 -29q0 -34 -40 -66.5t-84 -32.5q-22 0 -40.5 12t-28.5 27t-23 27t-26 12q-15 0 -39.5 -28.5t-43.5 -28.5q-18 0 -31 13t-13 30q0 11 8 24q61 79 118 79q29 0 70.5 -39t51.5 -39z" />
    <glyph glyph-name="hungarumlaut" unicode="&#x2dd;" horiz-adv-x="218" 
d="M61 591q0 16 15.5 39t17.5 37q7 40 53 40q22 0 38.5 -14t16.5 -39q0 -31 -24.5 -75t-58.5 -44q-22 0 -40 16t-18 40zM213 591q0 16 15.5 39t17.5 37q7 40 53 40q22 0 38.5 -14t16.5 -39q0 -31 -24.5 -75t-58.5 -44q-22 0 -40 16t-18 40z" />
    <glyph glyph-name="endash" unicode="&#x2013;" horiz-adv-x="481" 
d="M84 143h-5q-25 0 -39 17t-14 39q0 15 5 25.5t17 17t22.5 10t31 5t33 2t37.5 0.5h151q31 0 51.5 -2t40 -8t28.5 -18.5t9 -32.5q0 -31 -18 -43t-52 -12q-13 0 -109 1.5t-116 1.5q-34 0 -73 -3z" />
    <glyph glyph-name="emdash" unicode="&#x2014;" horiz-adv-x="926" 
d="M96 143h-5q-25 0 -39 17t-14 39q0 15 5 25.5t17 17t22.5 10t31 5t33 2t37.5 0.5h575q31 0 51.5 -2t40 -8t28.5 -18.5t9 -32.5q0 -31 -18 -43t-52 -12q-13 0 -321 1.5t-328 1.5q-34 0 -73 -3z" />
    <glyph glyph-name="quoteleft" unicode="&#x2018;" horiz-adv-x="228" 
d="M189 724l32 -228q0 -20 -14 -34t-35 -14q-22 0 -41 16.5t-22 38.5l-31 228q0 20 14 34t34 14q22 0 41 -16.5t22 -38.5z" />
    <glyph glyph-name="quoteright" unicode="&#x2019;" horiz-adv-x="235" 
d="M131 724q4 22 22.5 38.5t40.5 16.5q21 0 35 -14t14 -34q0 -1 -0.5 -3.5t-0.5 -3.5l-31 -221q-3 -22 -22 -38.5t-41 -16.5q-20 0 -34 14t-14 34q0 1 0.5 3.5t0.5 3.5z" />
    <glyph glyph-name="quotesinglbase" unicode="&#x201a;" horiz-adv-x="172" 
d="M29 106q3 22 21.5 38.5t41.5 16.5q20 0 34.5 -14t14.5 -34q0 -1 -0.5 -3.5t-0.5 -3.5l-31 -220q-3 -23 -22 -39.5t-41 -16.5q-20 0 -34.5 14t-14.5 34q0 2 0.5 4t0.5 4z" />
    <glyph glyph-name="quotedblleft" unicode="&#x201c;" horiz-adv-x="384" 
d="M102 503l-30 221q0 1 -0.5 3.5t-0.5 3.5q0 20 14 34t34 14q22 0 41 -16.5t22 -38.5l31 -221q0 -1 0.5 -3.5t0.5 -3.5q0 -20 -14 -34t-35 -14q-22 0 -41 16.5t-22 38.5zM261 503l-31 221q0 1 -0.5 3.5t-0.5 3.5q0 20 14.5 34t34.5 14q22 0 41 -16.5t22 -38.5l31 -221
q0 -1 0.5 -3.5t0.5 -3.5q0 -20 -14.5 -34t-34.5 -14q-22 0 -41 16.5t-22 38.5z" />
    <glyph glyph-name="quotedblright" unicode="&#x201d;" horiz-adv-x="352" 
d="M33 496l32 228q3 22 22 38.5t41 16.5q20 0 34.5 -14t14.5 -34l-32 -228q-3 -22 -22 -38.5t-41 -16.5q-20 0 -34.5 14t-14.5 34zM192 496l32 228q3 22 22 38.5t41 16.5q20 0 34 -15.5t14 -39.5l-31 -221q-3 -22 -22 -38.5t-41 -16.5q-21 0 -35 14t-14 34z" />
    <glyph glyph-name="quotedblbase" unicode="&#x201e;" horiz-adv-x="352" 
d="M29 106q3 22 21.5 38.5t41.5 16.5q20 0 34.5 -14t14.5 -34l-32 -227q-3 -23 -22 -39.5t-41 -16.5q-20 0 -34.5 14t-14.5 34zM188 106q3 22 21.5 38.5t41.5 16.5q20 0 34 -14t14 -34v-7l-31 -220q-3 -23 -22 -39.5t-41 -16.5q-21 0 -35 14t-14 34z" />
    <glyph glyph-name="dagger" unicode="&#x2020;" horiz-adv-x="255" 
d="M11 478q-22 0 -35.5 19.5t-13.5 42.5q0 22 16 39t40 21l57 8l6 152q1 25 20 43t44 18q22 0 39.5 -16t19.5 -38q-1 -1 -7 -152q30 -2 44 -4q23 -4 37.5 -22t14.5 -40q0 -20 -10.5 -36t-29.5 -20q-35 -6 -61 -7l-15 -440q-1 -25 -19.5 -43.5t-43.5 -18.5q-23 0 -41 17.5
t-19 42.5l16 437z" />
    <glyph glyph-name="daggerdbl" unicode="&#x2021;" horiz-adv-x="255" 
d="M11 562q-22 0 -35.5 19.5t-13.5 42.5q0 22 16 39t40 21q28 5 60 8l3 68q1 25 20 43t44 18q22 0 39.5 -16t19.5 -38v-3q0 -3 -0.5 -8.5t-1 -13t-1 -19t-1.5 -24.5q28 -2 41 -4q23 -4 37.5 -22t14.5 -40q0 -20 -10.5 -36t-29.5 -20q-22 -4 -61 -7v-101q19 0 49 -4
q23 -4 37.5 -22t14.5 -40q0 -20 -10.5 -36t-29.5 -20q-40 -6 -66 -7l-10 -294q-1 -25 -19.5 -43.5t-43.5 -18.5q-23 0 -41 17.5t-19 42.5l11 290l-55 -2q-21 0 -34.5 19.5t-13.5 42.5q0 22 16 39t40 21q43 6 51 7l4 104z" />
    <glyph glyph-name="bullet" unicode="&#x2022;" horiz-adv-x="427" 
d="M369 334q0 -56 -39 -95.5t-95 -39.5t-95.5 39t-39.5 96q0 56 39 95.5t96 39.5q56 0 95 -39.5t39 -95.5z" />
    <glyph glyph-name="ellipsis" unicode="&#x2026;" horiz-adv-x="625" 
d="M97 173q25 0 43 -16.5t18 -40.5v-5l-15 -78q-4 -20 -21 -32.5t-38 -12.5q-29 0 -45 18t-16 44l15 79q4 19 21.5 31.5t37.5 12.5zM305 173q25 0 43 -18t18 -44l-14 -78q-4 -20 -21.5 -32.5t-37.5 -12.5q-29 0 -45.5 18.5t-16.5 43.5l15 79q4 19 21.5 31.5t37.5 12.5z
M514 173q24 0 42 -18t18 -44l-14 -78q-4 -20 -21.5 -32.5t-37.5 -12.5q-29 0 -45.5 18.5t-16.5 43.5l15 79q4 20 21.5 32t38.5 12z" />
    <glyph glyph-name="perthousand" unicode="&#x2030;" horiz-adv-x="1055" 
d="M180 434q40 0 70.5 49.5t30.5 99.5q0 25 18 43t43 18t43.5 -18t18.5 -43q0 -94 -67 -183t-160 -89q-64 0 -95 49.5t-31 113.5q0 73 27 131t71 95t105.5 61t125 34t134.5 10q85 0 139.5 -17t54.5 -55q0 -17 -7 -31l-180 -322q-49 -89 -107.5 -196t-108.5 -196
q-17 -30 -52 -30q-27 0 -44.5 18.5t-17.5 43.5q0 17 8 30l346 624q-60 6 -93 6q-69 0 -130 -20t-105 -69t-44 -118q0 -29 7 -39zM817 98q35 0 67.5 50.5t32.5 97.5q0 25 18.5 43.5t43.5 18.5t43 -18t18 -44q0 -96 -65.5 -183t-163.5 -88q-56 0 -89 45q-54 -44 -114 -44
q-57 0 -94.5 43t-37.5 118q0 44 27.5 111t78.5 123.5t104 56.5q26 0 44 -18t18 -44q0 -22 -9 -34t-28 -21t-23 -12q-30 -23 -60 -77.5t-30 -87.5q0 -27 7 -36q25 0 50.5 27.5t37.5 65.5q12 35 29.5 71t43.5 76t60.5 65t71.5 25q26 0 44 -18t18 -44q0 -22 -9 -34t-28.5 -21
t-23.5 -12q-30 -23 -59.5 -77.5t-29.5 -87.5q0 -27 7 -36z" />
    <glyph glyph-name="guilsinglleft" unicode="&#x2039;" horiz-adv-x="413" 
d="M196 385q155 -107 155 -157q0 -23 -17.5 -40t-40.5 -17q-24 0 -40 17q-79 79 -167 130l-30 15q-12 6 -20.5 20.5t-8.5 28.5q0 30 29 50q91 58 115 77q39 30 96 93q14 18 39 18q23 0 41 -16.5t18 -41.5t-36 -61q-48 -55 -133 -116z" />
    <glyph glyph-name="guilsinglright" unicode="&#x203a;" horiz-adv-x="385" 
d="M202 385q-43 31 -68 49.5t-56 52.5t-31 56q0 23 17.5 39.5t40.5 16.5q24 0 40 -17q87 -85 167 -129l29 -15q13 -6 21 -20.5t8 -28.5q0 -31 -29 -50q-97 -64 -114 -77q-43 -34 -96 -93q-15 -18 -39 -18q-23 0 -41 16.5t-18 41.5q0 26 35 61q52 58 134 115z" />
    <glyph glyph-name="Euro" unicode="&#x20ac;" horiz-adv-x="575" 
d="M120 433l26 5q44 110 149 195.5t231 130.5q1 0 7 1.5t10 1.5q24 0 42.5 -19.5t18.5 -44.5q0 -42 -45 -58q-72 -27 -147.5 -76.5t-112.5 -103.5q130 23 134 23q20 0 32 -16t12 -31t-9.5 -28t-24.5 -15l-194 -35l-13 -44l163 26q21 0 33.5 -14t12.5 -32q0 -16 -9 -29
t-25 -16l-187 -30q0 -27 5.5 -50t23.5 -42.5t47 -19.5q34 0 79 30.5t66 30.5q24 0 42.5 -17.5t18.5 -42.5q0 -46 -72 -85t-135 -39q-48 0 -86.5 20t-61 53t-35 69.5t-14.5 74.5q-30 -5 -36 -5q-21 0 -33.5 14t-12.5 32q0 13 5.5 22.5t12 14t21 8t22.5 4.5t27 3q8 44 9 47
q-30 9 -30 44q0 16 8.5 28.5t24.5 14.5z" />
    <glyph glyph-name="trademark" unicode="&#x2122;" horiz-adv-x="757" 
d="M133 731l-87 -24q-3 -1 -10 -1q-15 0 -25 11t-10 25q0 25 26 34q136 44 282 55q15 0 24.5 -10.5t9.5 -25.5q0 -11 -8 -22t-19 -12q-8 -1 -46 -5t-58 -9q-59 -191 -59 -273q0 -16 4 -32q20 2 33 15q4 4 12 14t15.5 15t19.5 5q16 0 25.5 -10t9.5 -25q0 -27 -41 -56.5
t-76 -29.5q-72 0 -72 102q0 87 50 259zM583 578q22 45 62 105q1 2 6 9t7 10t6.5 9t7.5 8.5t7.5 6t9.5 5t10 1.5q14 0 25 -10.5t11 -24.5q0 -4 -2 -10q-22 -115 -22 -281q0 -14 -10.5 -25t-25.5 -11t-25 10.5t-10 25.5q0 71 3 134q-52 -98 -80 -174q-9 -26 -34 -26
q-14 0 -24.5 11t-10.5 25q0 65 13 171q-75 -137 -110 -232q-9 -26 -34 -26q-15 0 -25.5 10.5t-10.5 25.5q0 34 4 61q16 123 73 328q-23 -22 -48 -50q-2 -2 -10 -11t-11.5 -12.5t-11 -7.5t-14.5 -4q-14 0 -25 10.5t-11 25.5q0 12 10 25q83 98 169 154q8 5 17 5
q15 0 25.5 -10.5t10.5 -24.5q0 -4 -2.5 -13t-6 -20t-4.5 -17l-52 -193l73 131q1 2 7.5 14t11 19.5t12 17.5t15.5 15t16 5q17 0 27 -11.5t10 -25.5q0 -1 -29 -158z" />
    <glyph glyph-name="minus" unicode="&#x2212;" horiz-adv-x="440" 
d="M367 509q21 0 37 -16.5t16 -37.5q0 -19 -11.5 -36.5t-28.5 -18.5q-81 -6 -168 -6q-66 0 -139 3q-20 1 -35 17t-15 38q0 20 11.5 37t28.5 17q279 3 304 3z" />
    </font>
</defs>
</svg>
