<?xml version="1.0" standalone="no"?>
<!DOCTYPE svg PUBLIC "-//W3C//DTD SVG 1.1//EN" "http://www.w3.org/Graphics/SVG/1.1/DTD/svg11.dtd" >
<svg xmlns="http://www.w3.org/2000/svg" xmlns:xlink="http://www.w3.org/1999/xlink" version="1.1">
<metadata>
Created by FontForge 20170731 at Thu Aug  5 15:17:33 2010
 By Aleksey,,,
2010 Iconian Fonts - www.iconian.com
</metadata>
<defs>
<font id="Aegis3DItalic" horiz-adv-x="1056" >
  <font-face 
    font-family="Aegis 3D Italic"
    font-weight="400"
    font-style="italic"
    font-stretch="normal"
    units-per-em="1000"
    panose-1="0 0 0 0 0 0 0 0 0 0"
    ascent="800"
    descent="-200"
    x-height="816"
    cap-height="825"
    bbox="-177 -342 2499 1099"
    underline-thickness="50"
    underline-position="-175"
    slope="-12"
    unicode-range="U+0020-2122"
  />
<missing-glyph horiz-adv-x="500" 
 />
    <glyph glyph-name=".notdef" horiz-adv-x="500" 
 />
    <glyph glyph-name=".null" horiz-adv-x="0" 
 />
    <glyph glyph-name="nonmarkingreturn" horiz-adv-x="500" 
 />
    <glyph glyph-name="space" unicode=" " horiz-adv-x="500" 
 />
    <glyph glyph-name="space" unicode="&#xa0;" horiz-adv-x="500" 
 />
    <glyph glyph-name="FL0021h" unicode="!" horiz-adv-x="282" 
d="M255 815l-163 -556q-4 -17 11 -25l21 -29q7 -11 35 -11q20 0 49.5 6t57.5 14.5t48.5 17.5t22.5 15l155 536l-26 36l2 8h-33q-2 0 -3 -0.5t-2 -0.5h-50zM375 805h34h20h11l-150 -518q-1 -4 -18.5 -10t-42 -11.5t-50 -9.5t-43.5 -4q-24 0 -23 7l157 536zM257 181l-147 -1
q-6 0 -15 -5t-14 -10v1q-9 -10 -17 -26t-15.5 -33.5t-13.5 -34.5t-9 -29l-16 -56h7l27 -37q8 0 18 -0.5t21 -0.5h63q18 0 37 0.5t51 3.5q23 29 36 60t21 58l9 31q2 6 3.5 14.5t-2.5 14.5l-22 30q1 8 -3.5 14t-18.5 6zM251 159q6 0 5 -6t-2 -11l-9 -32q-8 -26 -18 -52.5
t-27 -46.5q-23 -2 -40.5 -2.5t-35.5 -0.5h-34q-11 0 -24 0.5t-28 0.5l9 34q3 11 8 26t11 30t13 28.5t13 20.5q2 2 5.5 6t5.5 4z" />
    <glyph glyph-name="FL0022h" unicode="&#x22;" horiz-adv-x="494" 
d="M275 794q-2 0 -5.5 -3.5l-5.5 -5.5q-2 -3 -5 -11.5t-8 -22.5q-6 -23 -13 -53.5t-14 -57.5q-10 -37 -13 -52l-10 -33q15 0 26 -0.5t22 -1.5q8 -1 15 -1.5t15 -0.5q16 0 34 5q7 2 15 3.5t20 2.5q7 11 17.5 36.5t21 54.5t19.5 55.5t12 38.5l9 32q2 5 2.5 10.5t-5.5 5.5z
M495 793q-2 0 -5.5 -3.5t-4.5 -5.5q-2 -3 -6 -11.5t-8 -22.5q-7 -23 -13.5 -53.5t-13.5 -57.5q-8 -37 -13 -52l-9 -33q14 0 25 -0.5t21 -1.5q8 -1 16 -1.5t16 -0.5t16 1.5t17 3.5q7 2 15 3.5t20 2.5q7 11 18 36.5t21.5 54.5t19 55.5t12.5 38.5l9 32q2 5 2.5 10.5t-5.5 5.5z
M651 816q13 0 17.5 -6t3.5 -14l23 -29q5 -6 3.5 -14.5t-3.5 -14.5l-9 -31q-4 -13 -13.5 -42t-21.5 -61t-25 -60t-22 -40q-12 -1 -20.5 -2t-13.5 -3q-2 -1 -4 -1t-4 -1q-9 -2 -18.5 -3.5t-21.5 -1.5q-8 0 -15.5 0.5t-13.5 1.5h-2q-11 1 -29 1.5t-35 0.5l-25 36h-2
q-6 -11 -9.5 -18t-5.5 -9q-12 -2 -21 -2.5t-15 -2.5q-2 -1 -4 -1t-4 -1q-8 -2 -17.5 -3.5t-21.5 -1.5q-8 0 -15 0.5t-15 1.5h-2q-10 1 -27.5 1.5t-34.5 0.5l-26 36h-8l16 55q1 5 3.5 13.5t4.5 19.5l2 8q1 2 1 4q0 3 1 6l3 8q0 6 1 9q5 24 11.5 50t11.5 45q11 34 19 44
q7 7 17 14t16 7l149 1q14 0 19 -6t4 -14l9 -12l3 6t3 4q6 6 17 13t17 7z" />
    <glyph glyph-name="E" unicode="#" horiz-adv-x="829" 
d="M214 693q2 -3 5 -3l1 -0.5t2 -0.5l26 -34q4 -2 8 -2.5t9 -2.5q8 -2 16 -4.5t15 -4.5q0 -6 -2 -12l-186 -649h8l27 -37h57q42 0 101 0.5t115 1.5q8 0 17 0.5t17 0.5q29 1 51 1h34q16 0 43 3.5t59 10.5t65.5 19t63 29.5t51 40.5t30.5 52l-27 37v2q3 3 3 6h-86
q-5 0 -10.5 0.5t-10.5 0.5h-31q-5 0 -8 0.5t-7 0.5h-15q-16 1 -32 1h-32q-5 0 -10 0.5t-10 0.5h-67q-4 0 -13 0.5t-20 2.5l41 142l220 29h2q5 1 16 6t16 8q8 5 20.5 14t24.5 18.5t22 18t15 12.5l3 2l14 50l-26 37l2 8h-271l41 144l7 5l-3 2q5 -1 24 0t43 3.5l48 5t41 4.5h23
h7h10h17l51 -70l3 2l26 -38l46 36l55 190l-27 36l2 8q-66 0 -138.5 -2t-136.5 -4q-62 -2 -125 -4t-130 -2h-45q-23 0 -46 1q-2 0 -4.5 -1.5t-3.5 -2.5l-2.5 -1t-4.5 -1l-7 -3.5l-11 -5.5q-5 -2 -10 -5t-12.5 -7t-19 -10.5t-28.5 -15.5l-1 -2q-19 -11 -27 -19t-12 -24l-2 -6
q-1 -4 0 -4zM241 711q0 5 1 7q3 10 8.5 15t19.5 13l9 4.5t22 11.5t27 14.5t24 12.5h-1q4 2 6.5 3.5t4.5 2.5q22 -1 43 -1h43q67 0 130 2t125 4q63 2 125.5 4t128.5 2l-47 -166l-22 -17l-71 98q-14 1 -18 1h-10h-10q-3 0 -6.5 -0.5t-6.5 -0.5h-19q-18 -2 -45.5 -5t-54 -6
t-46 -6t-21.5 -4l-14 -11l-61 -212h308l-8 -26l-1 -1q-4 -3 -13.5 -11t-20.5 -17t-22.5 -17.5t-18.5 -12.5q-2 -2 -9.5 -5.5t-9.5 -3.5l-240 -29l-58 -202q-2 -3 5 -7.5t13 -5.5q4 -1 14 -3t21 -3.5t20.5 -2.5t12.5 -1h23q13 0 29 -0.5t35 -0.5h31q16 0 31 -1q16 0 32 -0.5
t31 -0.5q20 0 36 -0.5t28 -0.5h21q-8 -23 -27.5 -40.5t-46 -31t-57 -22.5t-59.5 -14.5t-53.5 -8t-39.5 -2.5t-47 -0.5t-72 -1.5q-27 0 -56.5 -0.5t-58 -1t-54.5 -0.5h-46h-41l179 627q7 23 2 37t-16.5 22.5t-28 13t-32.5 8.5v1zM586 689l2 -1l-2 -2v3z" />
    <glyph glyph-name="FL0024h" unicode="$" horiz-adv-x="830" 
d="M663 843l-104 -3l-33 -115h-73q-35 -3 -76.5 -10.5t-79 -24t-66.5 -43t-41 -66.5q-14 -45 -2.5 -83t40.5 -65l11 -15q27 -37 74 -56l97 -27l-37 -130h-34q-10 0 -19.5 0.5t-19.5 0.5t-60.5 11t-150.5 41l-46 -160l7 -1l28 -40l2 4l3 -4q4 -5 11 -10.5t14 -6.5
q19 -3 43.5 -5.5t52 -4.5t56.5 -3l58 -2l-22 -78h8l25 -36q8 0 25.5 1.5t39 4.5t44 7.5t42 9.5t32 10.5t14.5 11.5l22 75q53 6 106.5 19t100 37t82 60.5t50.5 90.5q9 32 6.5 54.5t-15.5 39.5l-14 20h1q-6 22 -23.5 36.5t-41.5 24t-52.5 15.5t-58.5 11h1q-5 2 -10 3.5t-9 3.5
l40 140q33 -6 64 -17t53 -26h9q19 0 39.5 15t43.5 35q11 11 23.5 21.5t23.5 18.5l-4 33l-25 34v9l-12 -4q-8 3 -21.5 6.5t-29 6.5t-31 5t-26.5 2h-64l21 74l-26 37l2 8h-74zM672 822h51l-34 -119h123q12 0 29.5 -0.5t34 -1t28 -1.5l11.5 -1l2 -23q-9 -7 -18 -14.5t-17 -15.5
q-20 -18 -38 -31.5t-31 -13.5h-3q-21 19 -59.5 30.5t-80.5 16.5l-60 -210q2 -3 4 -3h1q7 -2 13.5 -3.5t13.5 -3.5q9 -2 17.5 -4.5t17.5 -5.5q36 -6 70.5 -14t58.5 -23t34.5 -39.5t-0.5 -63.5q-15 -50 -49.5 -84.5t-80.5 -56t-99.5 -33t-105.5 -16.5l-26 -92q-2 -5 -22 -9.5
t-46 -8.5t-51 -6.5t-36 -2.5l33 114q-32 0 -69 1t-73.5 2.5t-69.5 4.5t-57 7q-5 1 -13.5 2l-8.5 1l37 128q84 -26 132 -35.5t59 -9.5q25 0 48.5 -0.5t44.5 -1.5l57 197l-154 43q-24 10 -42 25.5t-29 36t-13 45t6 52.5q9 33 35 55.5t60 36.5t71.5 20.5t69.5 9.5h93l33 115
l83 3zM416 544q-6 -20 -4 -33t9.5 -22t20 -15t28.5 -10l53 184q-40 -13 -68 -40t-39 -64zM626 259q11 40 -2 59.5t-42 28.5l-49 -168q37 4 59 20.5t34 59.5z" />
    <glyph glyph-name="FL0025h" unicode="%" horiz-adv-x="1125" 
d="M391 539q-8 -24 -13 -51.5t-2 -52.5q5 -2 10 -2.5t11 -0.5q23 0 40 12.5t29.5 32t21.5 43.5t15 46q7 24 12 48t2 43q-8 3 -18 3q-25 0 -42.5 -10t-30 -27t-21 -39t-14.5 -45zM835 186q-7 -24 -11.5 -51.5t-2.5 -52.5q5 -2 10.5 -2.5t12.5 -0.5q24 0 42 12.5t31 32t22 43
t15 46.5q7 23 12 47t2 44q-8 4 -21 4q-26 0 -44 -10t-31 -27t-21.5 -39t-15.5 -46zM343 578q8 28 18 53t25 44.5t37 31t54 11.5q33 0 47.5 -13.5t17 -35t-3 -49t-13.5 -54.5q-7 -26 -17.5 -53.5t-26 -50t-37.5 -37.5t-53 -15q-32 0 -46.5 17t-17 42.5t3 55t12.5 53.5z
M788 226q8 28 18 53.5t25.5 45t38 31t55.5 11.5q34 0 49 -13.5t18 -35.5t-2.5 -49.5t-13.5 -55.5q-8 -26 -18.5 -53.5t-26.5 -50.5t-39 -37.5t-55 -14.5q-33 0 -47 17t-17 42.5t2.5 55t12.5 54.5zM957 793l-70 24l-590 -813q8 -4 24 -11.5t34 -15t35 -13t26 -5.5q3 0 5 1
l582 805l-6 5h1q-5 2 -8.5 4t-7.5 4t-8 4.5t-7 4.5h1zM643 209q-15 -52 -9 -89.5t28.5 -62t60 -36.5t85.5 -12q56 0 106 14t91 42t71 70.5t47 100.5q13 47 5.5 81t-31 56t-60 32.5t-79.5 10.5q-53 0 -102.5 -11t-91.5 -35.5t-73.5 -64t-47.5 -96.5zM195 556
q-15 -52 -9 -89.5t28.5 -62t60 -36t85.5 -11.5q56 0 106 14t91 42t71 70.5t47 99.5q13 47 5.5 81t-31 56.5t-59.5 33t-79 10.5q-53 0 -102.5 -11t-91.5 -35.5t-74 -64.5t-48 -97zM980 809q8 -6 11 -7l2 -2q1 -1 4 -1q7 -4 12.5 -7t7.5 -4l18 -12l-5 -6l27 -38l-228 -313
q32 9 66.5 14t69.5 5q65 0 113.5 -22t65.5 -68l11 -16h1q18 -25 22.5 -58.5t-8.5 -77.5q-18 -62 -50.5 -108.5t-76.5 -77t-98 -45.5t-115 -15q-57 0 -100 15.5t-66 48.5l-11 15v-1q-19 14 -29.5 36t-14.5 49l-145 -200q-5 -5 -10 -8.5t-15 -3.5q-11 0 -31 6.5t-41 15.5
t-40 17.5t-26 12.5l-25 34q-1 1 -2.5 1.5t-2.5 1.5q-2 0 -4 0.5t-3 0.5l233 321q-26 -8 -55 -11t-60 -3q-57 0 -99.5 15.5t-65.5 48.5l-11 15v-1q-32 26 -41.5 71t8.5 109q18 63 52.5 107t80 71.5t99.5 39.5t112 12q65 0 114 -22t66 -68l13 -17q8 -11 12 -22.5t7 -24.5
l155 213l91 -33z" />
    <glyph glyph-name="FL0026h" unicode="&#x26;" horiz-adv-x="931" 
d="M152 470l-4 -14t-6 -15q-4 -11 -7.5 -23.5t-7.5 -25.5q-9 -30 -14.5 -64t-2.5 -68.5t17 -68.5t44 -65l8 -9q30 -43 92 -78l-1 1q9 -7 26 -14.5t39.5 -15t48 -14.5t50.5 -14q35 -9 62.5 -17t38.5 -15h106q25 0 49.5 2.5t43.5 10.5v1q10 5 17 11t12 20q2 13 8 38.5
t14.5 57.5t18 68.5t19.5 73.5l6 21q7 26 13 49.5t11 45.5h27q20 -3 31.5 -5t18 -3t10.5 -1h12h9l45 20q11 5 16 11t8 17t3.5 22.5t0.5 21.5q-1 3 -1 5v4q3 8 3 11t-4 11h-1l-2 6q0 3 -0.5 7.5t-1.5 10.5l-2 4q-2 1 -2.5 2.5t-1.5 2.5l1 2l-21 27v2q0 2 -3 6q-2 0 -2 5h-1
q-2 4 -4 6l-4 4q-1 1 -1 2t-2 2h-89l17 60q2 3 2 6t1 7q5 19 14 36.5t26 34.5l41 86l-26 36l3 8h-18q-5 0 -10 0.5t-10 0.5h-56q-33 0 -63.5 -4t-63.5 -21q-20 -11 -34.5 -26.5t-22.5 -28.5l-3 14l-27 -38l-51 -171l-243 22h1q-18 9 -48 9q-52 0 -92.5 -30.5t-76.5 -74.5z
M173 469q31 38 66.5 65t78.5 27q23 0 42 -8l255 -23h15l56 188v-1l20 29l5 4t13 10t17 12t17 10q32 16 59 19.5t56 3.5h30q8 0 17 -0.5t20 -0.5l-30 -62l1 1q-19 -18 -28 -38t-15 -41l-6 -24l-9 -31q-5 -18 -10 -38l-10 -40l142 -1v-3q0 -2 2 -4v-6l1 1q2 -12 4.5 -18
t4.5 -10q1 -2 1 -3t-2 -6t0 -15q0 -8 -0.5 -19t-2.5 -19q-2 -6 -9 -11h1l-42 -19h-3h-10t-11 1t-18 3t-32 5h-48q-6 -23 -14 -52.5t-16 -60.5q-11 -39 -21.5 -79t-19.5 -75.5t-15.5 -63.5t-9.5 -42q-4 -11 -17 -15q-14 -6 -35.5 -8t-44.5 -2h-99q-11 6 -39.5 14t-63.5 18
q-25 7 -51 14t-48.5 14t-39 14t-22.5 13q-55 29 -82 66t-35.5 77t-3.5 79.5t15 73.5q4 13 7.5 25t7.5 23q6 14 9 29zM340 417q0 -13 -2.5 -25t-5.5 -23l-9 -32q-4 -12 -7 -23.5t-1 -21.5q3 -19 19 -36.5t37 -33t43.5 -29t40.5 -23.5l92 3l62 234q-11 7 -17 7zM369 297l10 33
q2 7 3 14t3 15l187 -3l-42 -162l-64 -2q-1 0 -2 1l-1 2q-23 13 -52 30.5t-49 37.5q0 8 2.5 16.5t4.5 17.5zM1019 495l2 2h1zM1022 496q1 1 0 1l-1 -1h1z" />
    <glyph glyph-name="FL0027h" unicode="'" horiz-adv-x="271" 
d="M275 794q-2 0 -5.5 -4t-5.5 -6q-5 -5 -14 -33q-6 -23 -13 -54t-13 -57q-10 -37 -13 -52l-10 -33q14 0 25 -0.5t22 -1.5q8 -1 15 -1.5t15 -0.5q16 0 33 5q7 2 15 3.5t19 2.5q7 11 18 36.5t21.5 54.5t19.5 55.5t12 38.5l9 32q2 4 2.5 10t-5.5 6zM428 817q14 0 19 -6t4 -14
l21 -29q5 -6 3.5 -14.5t-3.5 -14.5l-9 -31q-4 -13 -13.5 -42t-21.5 -61t-24.5 -60t-22.5 -40q-20 -1 -34 -5q-2 -1 -4 -1t-4 -1q-9 -2 -18 -3.5t-21 -1.5q-8 0 -14.5 0.5t-14.5 1.5h-2q-11 1 -28 1.5t-34 0.5l-26 36h-8l16 55q1 5 3.5 13.5t5.5 19.5l2 8q1 2 1 4q0 3 1 6
l3 8q0 6 1 9q5 24 11.5 50t11.5 45q11 34 19 44q6 7 16.5 14t16.5 7z" />
    <glyph glyph-name="FL0028h" unicode="(" horiz-adv-x="577" 
d="M740 846q-52 -5 -100 -12.5t-94 -20.5t-90 -33.5t-87 -50.5q-88 -60 -151 -149t-98 -210q-28 -99 -14 -169.5t60 -118.5l9 -10q22 -32 55.5 -55.5t75 -39t90.5 -23t102 -7.5q36 20 53 42t21 36q3 9 2 16t-4 11l-22 28q-1 18 -14 21l-24 3h1q-32 17 -53.5 37t-36.5 40
q-18 45 -15.5 93t16.5 98q15 52 44 109t71.5 104t99 77.5t126.5 30.5l2 109l-25 35v9zM374 411q-13 -45 -16.5 -90t8.5 -87t43 -80.5t86 -70.5l29 -4h-1q5 -3 2 -14q-4 -12 -16.5 -28t-38.5 -31q-87 0 -159.5 21t-119 65.5t-61.5 113.5t12 164q33 116 94 201t142 142
q82 57 164 80t174 31v-72q-69 -1 -125 -34t-99 -82.5t-72.5 -109.5t-45.5 -115z" />
    <glyph glyph-name="FL0029h" unicode=")" horiz-adv-x="577" 
d="M573 713q-50 57 -118.5 80t-156.5 31l-38 -72q68 -1 105 -34t51 -82.5t9.5 -109.5t-20.5 -115q-13 -45 -35.5 -90t-59 -87t-89 -80.5t-125.5 -70.5l-30 -4q-7 -4 -10 -14q-4 -12 -0.5 -28t20.5 -31q87 0 171.5 21t156.5 65.5t127 113.5t82 164q33 116 21.5 201t-61.5 142
zM289 846q98 -9 174.5 -33t128.5 -84q22 -26 36 -55l6 -6q42 -60 50.5 -143.5t-23.5 -194.5q-29 -100 -86.5 -172t-134 -119t-165.5 -69.5t-181 -22.5l-3 3q-5 4 -8 7.5t-6 7.5l-14 20q-24 21 -29 43.5t0 36.5q4 14 13.5 24t20.5 12l25 3h-1q69 30 118.5 66t84 75.5
t55.5 81.5t33 84q9 31 14 64.5t5 65.5q0 33 -6.5 63t-20.5 54l-1 -1q-21 16 -48.5 26t-65.5 10l-26 36h-3q-1 0 -3.5 0.5t-3.5 0.5z" />
    <glyph glyph-name="FL002Ah" unicode="*" horiz-adv-x="565" 
d="M657 534q17 26 26 37t17 20q1 1 2 2.5t2 1.5q7 8 12.5 15t11 17t11.5 24.5t14 37.5l-27 37l4 13l-54 -30l-1 -1q-2 13 -1.5 23t1.5 18v1q0 20 -3 33.5t-14 34.5l-17 23l-1.5 4t-3.5 8q-1 1 -3 7l-6 8l-19 -15l1 11h-6l-18 -39l-4 -6l-2 -7l-2 -2q-1 -2 -2 -3t-1 -2l-3 -2
l-1 -2l-9 15l2 8h-4l8 4h-21q-2 0 -2 1q-2 0 -3 1v1q-3 2 -8.5 4.5t-10.5 4.5q-3 0 -4 1v1q-37 23 -75 29h-25q-2 -5 -0.5 -11.5t3.5 -14t5 -14.5t6 -11l5 -20l-9 -32l-29 40l-2 -7q-8 3 -22 5t-36 2l16 -19q-6 -2 -12.5 -4.5t-12.5 -3.5q-22 -7 -41 -16.5t-24 -26.5
q-4 -11 0 -15q0 -2 2 -7l6 -2l-1 1l19 -25h-32l-7 -17v1l-3 -6l1 1l-3 -3l-2 -2l-2 -4q0 -1 -1 -1v-1q-2 -2 -3.5 -4t-2.5 -4q0 -1 -0.5 -1.5t-0.5 -1.5v1l-5 -6l1 1q-1 -1 -1 -3h-1q-18 -23 -37 -54.5t-46 -88.5l15 11l26 -37l44 33h1v1v-2q2 -2 2 -5v-6q1 -6 1.5 -13
t1.5 -14q2 -20 8.5 -48t21.5 -74l4 12l26 -36l21 73l14 26l4 -2l1 -1l26 -33q20 -10 29 -16t17 -11v1l1 -1q4 -4 5 -4.5t6 -2.5q4 -3 9.5 -6t14.5 -5t23.5 -3.5t36.5 -2.5l-18 47l-1 2q-2 7 -3.5 17t-0.5 12l10 33h4l26 -36h18l1 3h9l2 6q7 2 13.5 3.5t14.5 3.5q3 0 5 1
q2 0 6 2h1q9 2 17.5 4t19.5 7.5t26 15.5t39 28l-28 37l8 6l-50 11h33zM435 448q-1 -4 0.5 -18t3.5 -19l2 -4l5 -16q-17 1 -25.5 5t-17.5 11l-7 4l-3 2q-5 4 -12 8t-26 14l31 109l-97 -76l-17 -32l-5 -16q-4 13 -5 26.5t-1 27.5q-2 7 -2.5 13.5t-1.5 12.5t-1 10t-3 12v0
q0 1 -1 2l86 68h-89l-31 -15l-19 -16q7 14 16.5 28t20.5 29h1q6 8 11.5 16t12.5 17q2 4 5 7.5t5 8.5l1 2h86l-42 59l-29 7v3q2 5 15.5 11t29.5 12q16 4 28.5 9.5t21.5 8.5h-1q1 0 2 0.5t2 0.5q2 0 3 1l46 -65l26 91l-7 28q-2 2 -7 6t-9 8q14 -3 27.5 -9t27.5 -13v-1
q3 -1 14 -6t20 -9q-3 0 2 -1.5t8 -3.5h1l-21 -73l48 39q8 0 14.5 8t14.5 19q2 2 3.5 4.5t3.5 4.5l2 7l3 6l9 21q8 -17 10 -28.5t3 -27.5v-5v-19t1 -27l-83 -65h85q4 0 20 6t24 10l22 11q-7 -18 -14.5 -28.5t-18.5 -23.5l1 1q-1 -1 -1.5 -2t-1.5 -2l-5 -4q-5 -6 -12.5 -14.5
t-22.5 -30.5h-95l45 -61q0 -2 4 -5t10 -6t12 -5.5t10 -2.5l19 -4q-20 -14 -32.5 -18t-29.5 -7l-12 -3q-10 -2 -21 -5t-22 -8v-2l-2 -1l-47 67z" />
    <glyph glyph-name="FL002Bh" unicode="+" horiz-adv-x="558" 
d="M108 329l-3 -11q4 -7 12 -9l20 -30q2 -4 8 -7.5t12.5 -6t12 -4t7.5 -1.5h2q1 1 2 1q8 2 19.5 6.5t22.5 10.5h41l-20 -69q-2 -8 4 -15.5t12 -11.5l17 -25q6 -10 13 -14q2 0 3 -1h1q12 -7 18.5 -10.5t8.5 -5.5q1 -1 2 -1t2 -1q6 -5 10.5 -8.5t11.5 -5.5t17.5 -3t27.5 -1
q20 0 31 12.5t16 28.5l8 35l-1.5 6t-3.5 10l23 81h98q6 0 16 9t15 15v1t2 2q11 13 19 23t17 18q6 7 10.5 13t8 13.5t7.5 18.5t9 28q5 15 -2 24l-22 30q-2 13 -11.5 18t-22.5 5h-8l-34 -9h-1l-4 -2t-10 -6h-30l14 50q2 6 -2 11l-23 32q1 8 -7 14t-14 8q-13 5 -21 9t-13 9
q-14 10 -29 17.5t-38 7.5h-11q-5 -4 -11 -11.5t-11 -15t-9 -14t-5 -8.5q-2 -5 -2 -7q0 -1 -1 -5v-1q0 -1 1 -2q-5 -17 0 -28l-20 -67h-101q-11 0 -20 -10t-14 -18q-2 -3 -6.5 -8.5t-9.5 -12.5q-1 -2 -2 -3.5t-2 -3.5q-2 -4 -5 -7.5t-5 -6.5q-1 -1 -1 -2l-1 -1l1 1
q-15 -17 -26.5 -35t-19.5 -43zM130 329q6 21 17 37.5t24 32.5q8 10 16 19.5t14 20.5q4 5 8.5 11.5t3.5 6.5h123l28 98q-3 2 -3 9t2 14q0 3 0.5 8.5t0.5 3.5v-1l6 12t10 15h3q19 0 31.5 -6.5t24.5 -14.5q14 -11 34 -19q4 -2 9.5 -4.5t5.5 -1.5l-32 -112h91q2 0 11 4t14 6h-1
l27 8h4q8 0 15 -3t4 -13q-5 -15 -8.5 -25t-7.5 -17.5t-9 -13.5t-12 -13h1q-8 -8 -16 -17.5t-19 -23.5l1 1q-4 -4 -8 -9t-3 -5h-117l-30 -102q0 -2 1.5 -9.5t2.5 -11.5l1 2l-6 -29q-3 -9 -8 -16t-15 -7q-30 0 -39.5 3t-18.5 11q-7 5 -15 11t-19 13h1l-7.5 5t-4.5 2l36 127
h-108q-5 -5 -18 -10t-21 -7q-1 0 -1 -1h-1q-2 0 -11.5 2t-12.5 6z" />
    <glyph glyph-name="FL002Ch" unicode="," horiz-adv-x="374" 
d="M193 156q-2 0 -4.5 -3t-4.5 -5q-6 -7 -21.5 -28t-35 -48t-40.5 -56.5t-39 -54.5t-29.5 -41.5l-11.5 -16.5l-5 -18q15 0 28.5 -0.5t24.5 -0.5h35q17 0 35.5 0.5t41.5 2.5q7 9 22 29t34 45.5t39.5 53.5t38 53t30 44.5t14.5 28.5q2 5 2.5 10.5t-5.5 5.5zM348 179
q14 0 18.5 -6t3.5 -14l22 -29q5 -6 3.5 -14.5t-3.5 -14.5q-3 -10 -16 -31.5t-32 -48.5t-41 -57t-42 -57t-36 -48t-23 -29q-32 -3 -51.5 -3.5t-38.5 -0.5h-64q-10 0 -20.5 0.5t-19.5 0.5l-25 36h-8l11 40l12 17t30 43t40 57t42 59t35.5 49.5t21.5 28.5q5 6 16 13.5t16 7.5z
" />
    <glyph glyph-name="FL002Dh" unicode="-" horiz-adv-x="573" 
d="M112 264q2 -4 10 -6t12 -2q4 1 11 5.5t14.5 10t14 10.5t9.5 8l346 1q-1 0 3.5 5t7.5 9v-1q33 45 59 84t40 86q3 10 -3 13t-14 3h-5l-34 -20q-5 -2 -14 -6t-11 -4l-334 -1q1 0 -4 -6.5t-8 -10.5q-5 -6 -9 -13.5t-10 -16.5q-11 -17 -23.5 -37t-24 -39.5t-20.5 -37.5
t-12 -31zM91 267q4 13 12 30t18.5 35.5t21.5 37t22 35.5q5 7 9 14q6 7 9 15q2 2 3.5 5t0.5 2l6 8q5 9 15.5 20.5t21.5 11.5l332 1q8 4 9.5 4.5t2.5 1.5h1l42 23h11q13 0 22.5 -5t11.5 -18l22 -30q7 -9 3 -23q-14 -46 -39 -85t-57 -82q-2 -3 -4 -5.5t-4 -5.5
q-5 -6 -13.5 -14.5t-16.5 -8.5l-338 -1q-11 -10 -28.5 -21.5t-25.5 -13.5q-2 0 -7.5 1.5t-12.5 4t-13.5 6t-8.5 7.5l-20 29q-9 3 -12 10z" />
    <glyph glyph-name="FL002Eh" unicode="." horiz-adv-x="316" 
d="M135 155q-2 0 -4.5 -3t-4.5 -5q-9 -11 -23 -31.5t-27.5 -41.5t-24 -36.5t-10.5 -16.5l-5 -17q15 0 28.5 -0.5t24.5 -0.5h34q18 0 36 0.5t41 2.5q10 12 23.5 29.5t26.5 36.5t23 36.5t14 30.5q2 5 2.5 11t-5.5 6zM290 177q14 0 18.5 -5.5t3.5 -13.5l22 -29q5 -6 3.5 -14.5
t-3.5 -14.5q-4 -14 -16 -34t-27 -41.5t-30.5 -41.5t-26.5 -34q-31 -3 -50.5 -3.5t-37.5 -0.5h-64q-11 0 -20.5 0.5t-18.5 0.5l-26 36h-8l11 39q0 1 10.5 18t25 39.5t29.5 44.5t25 33q5 6 15 13t16 7z" />
    <glyph glyph-name="FL002Fh" unicode="/" horiz-adv-x="653" 
d="M776 811l-132 51l-633 -856q-1 -5 1 -5q2 -1 3.5 -1.5t3.5 -1.5l24 -35q8 -5 33.5 -14.5t55.5 -19.5t58 -17t41 -7q6 0 12 3t11 7l603 817l-28 38l4 5l-20 14q-5 2 -17 10q-3 0 -4 1l-2 2l-6 2zM767 787h-1q3 -2 7 -4.5t8 -4.5t7.5 -4t8.5 -4h-1l6 -5l-590 -801
q-2 -1 -5 -1q-12 0 -36 6t-50 14.5t-48.5 16.5t-31.5 13l607 821l108 -41zM784 804q0 1 -1 1v0v-1h1z" />
    <glyph glyph-name="O" unicode="0" 
d="M130 406q-32 -115 -17.5 -196t66.5 -134l7 -7q45 -63 127 -93t193 -30q117 0 221.5 29t190.5 88t149.5 148t98.5 210q24 85 16 148.5t-42 110.5l-5 8q-19 41 -52 71t-77.5 49.5t-98 29t-113.5 9.5q-111 0 -215.5 -23.5t-192.5 -75.5t-154.5 -136.5t-101.5 -205.5z
M152 406q33 115 97 195.5t148.5 130t184.5 72t206 22.5q87 0 160 -21.5t119.5 -66.5t62 -114t-11.5 -163q-33 -116 -94.5 -201.5t-144 -142t-184 -84.5t-213.5 -28q-96 0 -170.5 23.5t-120 73t-57.5 125t18 179.5zM426 445q-10 -36 -19 -77t-12.5 -81.5t0.5 -78.5
t19.5 -66.5t45.5 -46t78 -17.5q70 0 120.5 32.5t86.5 82t59.5 109.5t39.5 116q11 40 21 80.5t14 77.5t0 69t-21 56t-48.5 37.5t-82.5 13.5q-72 0 -122 -25t-84 -67.5t-56 -98t-39 -116.5zM473 405q16 57 36.5 109t52 91.5t77 63.5t111.5 24q32 0 55 -6.5t40 -17.5v1
q10 -23 12 -51.5t-2.5 -61.5t-13.5 -68.5t-19 -70.5q-15 -52 -37 -108.5t-54.5 -103t-78 -76.5t-107.5 -30q-33 0 -56.5 9.5t-38.5 26.5h1q-9 28 -10.5 62t3 69.5t12.5 71t17 66.5z" />
    <glyph glyph-name="FL0031h" unicode="1" horiz-adv-x="705" 
d="M206 150q-16 -2 -32.5 -2.5t-36.5 -0.5l-123 -127l21 -22l13 -18l30 -33q109 7 179.5 9t119.5 2q28 0 52 -0.5t47 -1.5h7q8 0 16 -0.5t16 -0.5q24 -1 51.5 -1.5t61.5 -0.5h21q24 35 45.5 79.5t35.5 92.5l-27 37l3 8q-7 0 -21 -1t-22 -2h-38q-17 -3 -25 -6.5t-17 -10.5
q-2 -2 -11 -2q2 8 4.5 17t4.5 17q2 9 4.5 18t5.5 19l26 104t28 105l11 41q2 8 5 15t5 14l25 87l27 57l-10 14v1q5 18 8 42t-11 44l-17 22q-5 21 -25 35.5t-66 14.5q-47 0 -76.5 2t-57.5 4q-26 2 -55.5 3.5t-75.5 1.5h-23q-11 -15 -26 -38t-30.5 -49.5t-29 -55.5t-21.5 -56h8
l25 -37q4 0 18.5 0.5t22.5 2.5q5 0 13.5 3t19.5 8q4 2 7 2.5t7 2.5l11 4q13 2 20 4t13 4q3 2 7.5 2.5t15.5 0.5l-135 -469q-5 -1 -8 -1h-6q-16 -2 -21 -2t-14 -2zM272 136l153 533l-9 12h-5q-5 0 -15 0.5t-16 0.5q-23 0 -29.5 -1t-13.5 -3q-4 -2 -10.5 -3.5t-20.5 -3.5
q-4 -1 -11.5 -4t-15.5 -6q-10 -3 -18 -6t-10 -3q-2 -1 -9 -2t-12 -1q6 18 16.5 39.5t23 43t25.5 40.5t23 33h8q45 0 74.5 -1.5t55.5 -3.5q28 -2 58 -4t77 -2q34 0 51 -10t22.5 -25t3.5 -32t-6 -31l-4 -12q-2 -9 -3.5 -14.5t3.5 -5.5q3 0 5 1l-17 -35l-19 -66
q-4 -14 -8.5 -27.5t-8.5 -27.5l-12 -41q-15 -54 -28 -106t-26 -105q-8 -30 -16 -60.5t-16 -62.5l5 -7h5q5 0 15.5 -0.5t15.5 -0.5q21 0 28 2.5t13 6.5q4 3 10 5.5t21 4.5h32q2 1 8.5 1.5t11.5 1.5q-11 -38 -27.5 -72.5t-36.5 -63.5h-8q-47 0 -80.5 1t-64.5 2
q-26 1 -50.5 1.5t-55.5 0.5q-24 0 -52.5 -0.5t-64 -1.5t-79.5 -3.5t-98 -5.5l-16 18l97 101q16 0 30.5 0.5t30.5 2.5q6 1 9.5 1.5t10 1t17 2t29.5 3.5h4z" />
    <glyph glyph-name="FL0032h" unicode="2" horiz-adv-x="834" 
d="M729 439q30 13 58 33.5t52.5 46.5t43 58t29.5 68q13 44 1.5 72.5t-37 46t-58.5 26t-64 13.5h-37h-22t-17 1q-9 0 -18 0.5t-22 0.5h-194q-11 0 -29 -1t-35 -2t-29.5 -2t-12.5 -2l-17 -29q3 -8 6 -14.5t6 -14.5q10 -26 20.5 -47t22.5 -21h3q33 24 71.5 37.5t73 21t59.5 9.5
t31 2q32 0 50 -10t25 -28.5t4.5 -45.5t-12.5 -60q-8 -28 -14.5 -45.5t-15 -28.5t-21 -17t-32.5 -12q-27 -7 -52.5 -12.5t-49.5 -10.5q-38 -8 -71.5 -16t-58.5 -19q-41 -8 -80 -18.5t-73 -30t-60.5 -51t-41.5 -81.5l-72 -245h698q3 0 8 3t10.5 6.5t10.5 7t7 5.5l45 160
q-101 -33 -155.5 -44.5t-65.5 -11.5q-40 0 -93.5 -1t-104.5 -2q-35 -1 -65 -1.5t-45 -0.5l24 99q12 41 31 65t42.5 37t50.5 18.5t56 10.5zM357 633l-11 -8l8 28q-16 8 -27 30.5t-19 48.5h1q-2 3 -4 11q-2 5 -4 8.5t-3 7.5h1q-2 0 -2 1t-1 2l1 -1q-2 3 0 6l23 40l6 -2l1 -1
q9 3 25 7t34 7.5t35 6t29 2.5h194q4 0 7 -0.5t6 -0.5h28q8 -1 17 -1h22h39q24 -4 50.5 -10.5t50.5 -17t42.5 -26.5t27.5 -39l13 -20q14 -20 18 -45.5t-7 -61.5q-11 -39 -31 -73.5t-45.5 -63t-55.5 -50t-61 -35.5l-247 -80q-26 -5 -49.5 -9.5t-44 -15.5t-37 -31t-26.5 -54
l-9 -39h12q7 0 15 1h12q3 0 7 0.5t8 0.5h34q9 0 17.5 0.5t17.5 0.5q35 1 69 1.5t60 0.5q11 0 70.5 13t174.5 51l-3 -9l27 -37l-54 -191l-7.5 -5.5t-17.5 -12t-20 -11.5t-15 -5h-714l-26 37h-8l78 267q16 57 45.5 93t66.5 57.5t80 33t87 19.5q24 11 51 17.5t59 13.5q1 0 9 2
q2 1 5 1t6 1q3 0 9 2q3 1 9 1v1q7 2 14.5 3.5t15.5 3.5q13 3 28.5 6t28.5 6v-1q12 5 20 10.5t14 14.5t11 22.5t11 34.5q15 48 9 79q-12 6 -31 6q-6 0 -31 -2.5t-61 -11.5t-79 -26.5t-83 -47.5z" />
    <glyph glyph-name="FL0033h" unicode="3" horiz-adv-x="846" 
d="M800 101l-21 29l-1 6q0 2 -1 3t-1 3l-18 25l-154 131l379 311l7 27q1 2 -5 15t-14 30.5t-17 35t-15 28.5l-3 3q0 1 -0.5 1.5t-0.5 2.5l-5 7l-4 4l-1 1q-2 5 -5 9.5t-5 8.5l-2 3q-1 2 -4.5 7.5t-8 11.5t-9 11.5t-6.5 7.5h-109q-8 0 -15 -0.5t-15 -0.5h-189q-8 0 -15.5 0.5
t-15.5 0.5h-103q-6 0 -20 1t-29 2.5t-28.5 3.5t-19.5 3q-8 -2 -20 -10.5t-15 -12.5q-2 -3 -2 -4t-2 -6q-1 -3 -1 -5v-7q3 -14 9.5 -28t15.5 -27.5t18 -25.5t17 -21h2l2 -3q7 -10 14 -18t12 -15q12 0 38.5 -2t58.5 -5t64.5 -6t57.5 -5q-11 -8 -23 -16l-24 -16
q-11 -8 -22.5 -16t-22.5 -16l-6 -4l-5 -4q-32 -22 -61 -42t-52 -37.5t-37.5 -30.5t-16.5 -20q-2 -8 -2 -13h-4q14 -25 31.5 -48t37.5 -45q16 -20 32.5 -40t35.5 -40q12 -15 24 -26q4 -5 7.5 -10t7.5 -10l12 -17q-35 -8 -69 -9.5t-66 -1.5h-81q-26 0 -51.5 2t-51.5 4t-53 4
t-69 2q-12 -44 -1.5 -77.5t33.5 -56.5l14 -19q15 -20 35.5 -35.5t44.5 -26t48.5 -15.5t46.5 -5h507q8 4 10.5 5t8.5 6l10 8q4 6 4.5 7.5t1.5 5.5v2l2 7q-2 6 -6 22l-8.5 34t-9 34.5t-7.5 22.5zM775 11q-3 -2 -4 -3.5l-1 -1.5h-506q-30 0 -66 10t-65 29.5t-45 48.5t-6 66
q26 0 50 -2t49 -4q26 -2 51 -4t52 -2h81q44 0 89 4t90 18q-25 38 -50 68.5t-51 59.5q-26 30 -51.5 59.5t-46.5 64.5q-1 0 -0.5 3t1.5 5q1 4 14.5 14.5t35 26t48.5 34.5t56 39q27 19 54 37.5t51.5 36t44.5 32.5t33 26q-3 1 -13 3.5t-22 4t-22.5 3t-13.5 1.5q-9 1 -28.5 3
t-44 4t-52 4.5t-52 4.5t-44.5 3t-30 1q-13 16 -30 39.5t-23 48.5v4l3 4q1 2 4 4t5 3q6 -1 20 -2.5t29 -3t28.5 -2.5t19.5 -1h36q20 0 44.5 -0.5t53.5 -0.5h189q28 0 52 0.5t44 0.5h36q4 -5 11.5 -15.5t9.5 -13.5q6 -11 14.5 -27t17 -31.5t14 -27t5.5 -12.5l-6 -18l-401 -330
l203 -177l14 -20q2 -5 6 -20.5t8.5 -32.5t8 -33t4.5 -22v-2q-1 -2 0 -3l-2 -3zM360 370q2 0 2 -1v0z" />
    <glyph glyph-name="FL0034h" unicode="4" horiz-adv-x="919" 
d="M610 388l26 63l-85 -64zM414 366l303 226l-89 -216q-17 -9 -21 -9zM476 541q-40 -30 -79 -59.5t-81 -57t-88 -54t-100 -51.5q8 -40 28.5 -66t62.5 -26q11 0 22 1t23 5l298 23h15l-59 -161l3 -30q8 0 14 -3q12 -8 28 -17.5t22 -13.5h-1q35 -19 72.5 -30.5t79.5 -22.5
l22 -6h-1q8 0 12 4t8 9q2 2 2 4q0 1 2 4q-3 3 -6 13q-5 7 -8 13t-2 8q-5 26 -3 58.5t10 60.5l8 30q6 19 12.5 39.5t13.5 40.5l85 1q-1 0 2.5 5t7.5 9l-1 -1q11 14 17.5 21t8.5 10q3 3 5 8q1 4 4 10q7 11 10 20q3 12 -2 16l-30 20h-1q-2 0 -8 -3.5t-10 -5.5l-2 -1h-49
q9 29 22 67t27.5 79.5l29 83t27.5 78t22.5 64.5t14.5 42q4 11 -7 16q-11 6 -31.5 8t-43.5 2q-19 0 -36.5 -1t-28.5 -2q-2 0 -3.5 -0.5t-3.5 -0.5q-20 -10 -40.5 -25.5t-41.5 -33.5q-14 -12 -27 -23t-27 -20q-64 -41 -117 -80.5t-103 -77.5zM118 337q56 25 103 52t88.5 54.5
t79.5 55.5t76 57q51 39 104.5 78.5t117.5 80.5q21 13 51 42q23 20 45.5 36.5t49.5 29.5h6q2 0 4 1h7q2 0 5 0.5t5 0.5q11 1 23.5 1.5t26.5 0.5q25 0 47.5 -2t35.5 -9q8 -4 13 -9t4 -15l22 -29q2 -5 2.5 -10.5t-1.5 -14.5q-6 -18 -20 -56t-31 -86.5t-35.5 -101.5t-34.5 -99
q2 1 6 1h6l32 -20q11 -10 13 -20l25 -35h-1q2 -6 1.5 -11.5t-1.5 -10.5q-2 -6 -5 -11t-5 -10q-3 -3 -3 -6q-2 -2 -2 -4q-2 -6 -4 -9t-7 -9q1 1 -0.5 -1t-3.5 -4q-3 -4 -7.5 -9t-11.5 -13q-5 -6 -14 -15t-17 -9l-66 -1q-7 -17 -10.5 -32t-8.5 -30l-9 -30q-6 -23 -8 -53t2 -53
q0 -6 0.5 -8.5t0.5 -4.5l6 -9q3 -8 4 -11t4 -17q-3 -4 -4.5 -7t-3.5 -5q-7 -10 -15.5 -17t-28.5 -7l-22 6q-4 1 -7.5 2t-7.5 2q-38 9 -73.5 20t-67.5 30q-4 2 -9 5t-13 8q-7 5 -13 8.5t-12 7.5q-2 2 -5.5 3t-5.5 3h1q-18 11 -23 19l-20 26v-1q-16 12 -13 22q0 3 10 8v7
l37 103l-244 -18h1q-22 -7 -47 -7q-29 0 -48 10.5t-32 28.5l-14 19q-17 14 -27 37t-16 52z" />
    <glyph glyph-name="FL0035h" unicode="5" horiz-adv-x="832" 
d="M56 -12q3 -5 12 -12.5t17 -9.5q28 -6 67.5 -10t82.5 -6t84.5 -3t73.5 -1q40 0 87 3.5t95.5 13t96 28t89 48.5t73.5 74t49 104q13 43 9 75t-19 56l-3 2q0 2 -1 3l-11 15q-9 24 -27 41.5t-40.5 29.5t-48.5 20t-52 14q-17 9 -37.5 13.5t-46.5 8.5h-5q-2 0 -3 1q-2 1 -6 1
q-3 0 -7 1q-21 3 -43.5 7t-42.5 10q-4 1 -7 2t-7 3q-1 1 -4 1q2 8 4 17t5 21l32 113l110 1h6q10 0 29 -1.5t42 -9.5t48.5 -24t48.5 -46l6 23q18 7 40 28.5t47 45.5q6 7 15 16l16 16q1 2 2 2.5t2 2.5v35v3l-27 35l2 9l-9 -3q-7 3 -21 6.5t-29.5 7t-31.5 6t-28 2.5h-492
l-60 -211q-9 -30 -10 -54t3.5 -43t14.5 -34t24 -28l11 -14q12 -17 29 -31t37 -26l182 -78q20 -4 38 -8.5t33 -12.5q3 -11 2.5 -25t-5.5 -31q-14 -50 -36.5 -65.5t-62.5 -15.5q-26 0 -59 3h-7q-2 0 -3.5 0.5t-3.5 0.5h-9q-2 0 -4 0.5t-4 0.5q-25 2 -55 3t-65 1q-11 0 -63 13
t-146 51l-56 -191q-1 -2 3 -7t9 -10zM334 443q-22 14 -40.5 29t-29.5 35t-13.5 46.5t8.5 62.5l54 190h471q12 0 29 -1t33.5 -2.5t28 -2.5t11.5 -2v-29q-7 -8 -14.5 -14.5t-14.5 -14.5q-25 -26 -46.5 -47t-33.5 -21h-3q-18 22 -41.5 34t-46.5 18t-42 7t-29 1h-6l-129 -1
l-37 -132q-8 -28 -8.5 -45t5.5 -28t18 -18t28 -13q26 -8 52 -12.5t51 -8.5q27 -5 50 -8.5t39 -14.5q36 -8 70.5 -20.5t58.5 -35t33.5 -56t-5.5 -83.5q-16 -56 -46 -96t-69.5 -68t-84.5 -45t-91.5 -26.5t-91.5 -12.5t-83 -3q-32 0 -72.5 1t-82.5 3t-80.5 6t-66.5 10
q-5 1 -13.5 3.5t-8.5 3.5l47 161q82 -33 130 -44.5t59 -11.5q41 0 74.5 -1.5t62.5 -3.5q21 -2 39.5 -3t34.5 -1q26 0 45.5 4.5t34.5 15.5t26.5 31t20.5 52q12 42 6.5 66.5t-22.5 38.5t-41.5 20t-50.5 11z" />
    <glyph glyph-name="FL0036h" unicode="6" horiz-adv-x="858" 
d="M681 202q2 8 3.5 18t1.5 24q-1 1 -1 5q-2 2 -3 4l-4 8q-8 4 -18 8t-24 8h-238q-3 -28 -1 -54t12 -49q18 -23 47 -36t69 -13h4l100 6q8 14 16.5 23.5t16.5 17.5q5 5 10.5 12t8.5 18zM708 256q1 -18 -1 -30.5t-5 -23.5q-5 -17 -12.5 -26t-14.5 -17h1q-8 -8 -16 -18.5
t-17 -30.5l-119 -7h-5q-52 0 -87 20t-54.5 52.5t-25 74.5t2.5 86h263q23 -6 37 -12t23 -14t14 -18.5t10 -23.5q1 -1 2.5 -5t3.5 -6v-1zM612 697q10 3 18.5 4t18.5 1q16 0 32 -2.5t37 -7.5q30 -7 73.5 -14.5t108.5 -10.5l51 139h-246q-69 0 -146.5 -19t-151 -60
t-136.5 -107.5t-103 -160.5q-17 -58 -22 -108t0 -94t18.5 -82.5t33.5 -72.5q43 -68 157 -96h-1q29 -3 47 -5.5t30 -4.5q17 -2 26.5 -3t25.5 -1h13t18 1q12 1 28 1q17 0 40 1h-1q74 13 117.5 28.5t68 33.5t35.5 38t21 43q5 14 10 27.5t9 27.5q9 29 11 62t-5 73q2 0 3 -0.5
l1 -0.5q1 4 -3 13t-11.5 21.5t-18 26.5t-22.5 28q-9 9 -28 19.5t-63 19t-119 14t-195 5.5q13 44 31.5 76t43 56.5t55 43.5t67.5 39zM206 53q-8 8 -15.5 16t-12.5 18q-21 36 -35 76t-19.5 86t-0.5 98.5t23 113.5q42 100 108.5 169.5t144 113t159 63.5t153.5 20h269l-3 -8
l27 -36l-64 -176q-79 5 -125.5 12.5t-77.5 14.5q-21 5 -37 7.5t-28 2.5q-7 0 -14.5 -1t-15.5 -3l-18 -6h1q-57 -31 -97 -61.5t-65 -77.5q101 -2 166 -9t103.5 -16t57 -19t26.5 -19q14 -16 25 -33.5t19 -32.5h2q17 -26 27.5 -49t8.5 -30v-1q7 -38 4 -69.5t-12 -63.5
q-5 -15 -10 -29l-10 -28q-11 -25 -23.5 -48t-39 -43.5t-73.5 -37.5t-127 -31q-8 0 -17.5 -0.5t-17.5 -0.5h-19q-8 0 -15 -1q-11 -1 -19 -1h-14q-17 0 -26.5 1t-26.5 3q-5 0 -13 2h1q-12 2 -29.5 4t-40.5 4q-106 27 -154 92z" />
    <glyph glyph-name="FL0037h" unicode="7" horiz-adv-x="872" 
d="M19 24l6 -40h6l26 -37l238 -8l776 793l14 49l-27 36l3 8h-714q-4 0 -23 -25.5t-41.5 -60t-42.5 -68.5t-25 -52h8l26 -37h55q51 46 109 60.5t117 14.5q20 0 40 -1t39 -3q4 0 7.5 -0.5t7.5 -0.5zM674 675q4 3 9.5 11t7.5 10q0 2 0.5 3t-0.5 3l-2 4q-18 0 -38 1t-41 3
q-25 2 -50.5 3.5t-52.5 1.5q-63 0 -123 -14.5t-111 -59.5h-29q5 15 20 42.5t31 54.5t29.5 46.5t16.5 19.5h692l-8 -27l-764 -779l-214 8l-4 17z" />
    <glyph glyph-name="FL0038h" unicode="8" horiz-adv-x="916" 
d="M54 -45q3 -5 4.5 -6l7.5 -5l460 1h8h6q4 0 8 1h-1l317 3q9 4 11.5 5t8.5 6l10 8q3 6 3.5 7.5t2.5 5.5l-1 2l2 7l-85 437l232 181l8 26q0 1 -5.5 14.5t-13 30.5t-16 35t-14.5 29l-3 4q-2 2 -4 5.5t-4 7.5l-7 9l-6 12l1 -1q-1 2 -1.5 2.5t-1.5 2.5q-2 4 -12 17.5t-15 18.5
h-33h-2q0 1 -1 1h-42q-4 0 -7.5 0.5t-7.5 0.5h-182q-2 0 -4 -0.5t-4 -0.5h-205q-2 0 -4 0.5t-3 0.5h-49q-3 -2 -10.5 -7.5l-15 -11t-13.5 -10.5t-8 -7q-12 -11 -31.5 -29t-37.5 -36t-31 -32t-13 -15l-8 -26l120 -186q-78 -91 -132 -158t-90 -115t-57 -78.5t-33 -49.5
q-2 -2 -2 -4v1q-7 -11 -12 -17.5t-13 -14.5l-1 -3q0 -1 -1 -1.5t-1 -1.5l-2 -6q-1 -4 -1 -6v-7l6 -9q3 -5 5 -6.5t7 -4.5zM840 8l-321 -3q-2 -1 -7 -1h-8l-459 -1l-1 1.5t-2 3.5l-2 3v4l1 2v2q8 7 13.5 15t14.5 21q12 19 33 50t58 79.5t92.5 117t137.5 163.5l-125 192l6 18
q0 1 12 12.5t28.5 27t34 31.5t29.5 27q1 1 6 5t10 8.5t10.5 9t8.5 6.5h27q5 0 10.5 -0.5t12.5 -0.5h186q6 0 12.5 0.5t14.5 0.5h182q14 0 23.5 -0.5t17.5 -0.5h16q5 0 8 -0.5t7 -0.5h14q5 -5 11.5 -15.5t8.5 -13.5q6 -11 14 -27t16 -31.5t13 -27t5 -12.5l-5 -18l-237 -185
l85 -446l-1 -2v-3l-1 -3l-4 -3q-3 -2 -4.5 -3.5zM550 379q-46 -26 -83 -65.5t-72 -82.5q-9 -11 -19.5 -24t-21.5 -24q26 -11 59.5 -15t70.5 -4t74.5 4.5t71.5 13.5q-5 17 -9 32t-6 30q-8 41 -19.5 78t-41.5 58zM635 690q-3 0 -27.5 -2t-53.5 -4t-53.5 -4t-27.5 -3
q20 -31 54 -72t69 -80q9 7 19.5 14t20.5 14q49 35 95.5 68t77.5 58zM591 235q1 -8 3.5 -17.5t4.5 -20.5q-29 -5 -56.5 -8t-52.5 -3h-25t-24 1q29 36 60 70t68 59q8 -16 12 -33.5t9 -35.5v-6t1 -7v1zM625 569q-8 -7 -19 -13h-1l-2 -2l-5 7l-16 18q-11 11 -21 22.5t-19 22.5
q16 1 34.5 2.5t35.5 2.5t29.5 2t15.5 1l53 -4l-22 -16t-23 -16q-11 -7 -20 -13.5t-20 -13.5z" />
    <glyph glyph-name="FL0039h" unicode="9" horiz-adv-x="815" 
d="M448 -11h8l25 -37h22q25 0 42 -0.5t31 -1.5h4q9 -1 18 -1.5t17 -0.5q17 0 36 2t48 7h1q5 1 13.5 5t16 8t13.5 8t6 5l185 646q3 11 6 18t7.5 13t10.5 11.5t16 14.5q3 3 6.5 6t8.5 8l23 23l-1 37l-25 35v9l-7 -2q-9 6 -28.5 15t-44.5 9h-132q-5 0 -9 0.5t-9 0.5h-139
q-4 0 -8 -0.5t-9 -0.5h-103q-40 -5 -86 -15t-88 -29.5t-75.5 -52t-48.5 -83.5q-11 -39 -9.5 -80.5t12.5 -80.5t30 -73t43 -57l5 -6q27 -39 59 -57q42 -24 84 -36.5t90 -19.5zM548 290q-62 6 -117.5 18.5t-107.5 41.5q-29 15 -53 47.5t-39 73.5t-18.5 87t8.5 88
q13 44 43 72.5t69 46t81 26.5t79 14h101q16 0 31.5 0.5t30.5 0.5h94q18 0 35.5 -0.5t34.5 -0.5h80q25 0 44 -4.5t19 -6.5v-29l-15 -15l-12 -12q-12 -11 -19.5 -18t-12.5 -14t-8.5 -16t-7.5 -22l-185 -645q-1 -1 -12.5 -3.5t-18.5 -3.5q-29 -5 -47 -7t-32 -2q-10 0 -19 0.5
t-20 1.5q-14 1 -31.5 1.5t-42.5 0.5h-5zM675 741h-16q-5 0 -9 0.5t-6 0.5q-71 0 -123 -38t-71 -105q-12 -42 -8 -81t20.5 -69.5t44.5 -50.5t64 -23zM496 559q15 51 52 81.5t89 38.5l-80 -278q-19 5 -34 14.5t-26 23.5h1q-20 55 -2 120z" />
    <glyph glyph-name="FL003Ah" unicode=":" horiz-adv-x="285" 
d="M106 157q-2 0 -5.5 -4t-5.5 -6q-6 -7 -13 -20t-13 -28t-11 -30.5t-8 -25.5l-9 -34q15 0 28 -0.5t24 -0.5h34q18 0 35.5 0.5t40.5 2.5q17 20 27 46.5t18 52.5l9 32q1 4 1.5 10t-5.5 6zM201 498q-2 0 -5.5 -4t-5.5 -6q-7 -7 -13.5 -20.5t-12.5 -28.5t-11 -30t-8 -26
l-10 -34q15 0 28.5 -0.5t24.5 -0.5h34q18 0 35.5 0.5t40.5 2.5q16 20 26.5 47t17.5 52l9 32q2 5 2.5 11t-5.5 6zM260 180q14 0 18.5 -6t3.5 -14l22 -29q4 -6 2.5 -14.5t-3.5 -14.5l-9 -32q-8 -26 -21 -57t-36 -60q-31 -2 -50 -2.5t-37 -0.5h-63q-11 0 -21.5 0.5t-18.5 0.5
l-27 36h-7l16 56q3 12 9 29t13 34.5t15.5 33.5t16.5 25l1 -1q5 5 13.5 10t14.5 5zM354 521q14 0 19 -6t4 -14l21 -30q5 -6 3.5 -14.5t-3.5 -14.5l-9 -31q-8 -27 -21 -57.5t-37 -59.5q-31 -3 -50 -3.5t-37 -0.5h-63q-11 0 -21.5 0.5t-18.5 0.5l-25 37h-8l16 55q3 12 9 29
t13 34.5t15.5 33.5t16.5 26l1 -1q5 5 13.5 10t14.5 5z" />
    <glyph glyph-name="FL003Bh" unicode=";" horiz-adv-x="341" 
d="M316 181l-148 -1q-6 0 -17 -7t-16 -13q-6 -8 -19 -29t-29.5 -48.5t-33.5 -57.5t-31.5 -55.5t-24 -41.5t-9.5 -17l-11 -40h8l25 -37q9 0 19 -0.5t21 -0.5h64q18 0 38 0.5t51 3.5q7 9 20.5 30t30 47t34.5 55.5t33 56t25.5 47.5t13.5 30q2 6 3.5 14.5t-3.5 14.5l-23 30
q2 8 -2.5 13.5t-18.5 5.5zM262 520q-6 0 -14.5 -4.5t-13.5 -9.5l-1 1q-8 -10 -16.5 -26t-15.5 -33.5t-13 -34.5t-9 -29l-16 -56h8l25 -37q9 0 19 -0.5t21 -0.5h64q17 0 36.5 0.5t50.5 3.5q24 29 37 60t21 57l9 32q2 6 3.5 14.5t-3.5 14.5l-21 30q2 19 -23 19zM310 160
q6 0 5.5 -6t-2.5 -11q-3 -9 -12.5 -28.5t-23.5 -43.5t-30 -51t-31.5 -51.5t-28 -44t-19.5 -29.5q-23 -2 -41 -2.5t-35 -0.5h-35q-11 0 -24.5 0.5t-28.5 0.5l5 18l9 16t23 40.5t31 53t32.5 55t28.5 47.5t19 28l5 5t5 3zM404 500q6 0 5.5 -6t-2.5 -11l-9 -32q-7 -26 -17 -52.5
t-27 -46.5q-23 -2 -41 -2.5t-35 -0.5h-35q-11 0 -24.5 0.5t-28.5 0.5l10 34q3 10 8 25.5t11 30.5t13 28.5t13 20.5q2 2 5.5 6t5.5 4z" />
    <glyph glyph-name="FL003Ch" unicode="&#x3c;" horiz-adv-x="665" 
d="M286 66q7 -14 15.5 -26t20.5 -23l8 -11q9 -13 19 -23.5t23 -18.5q21 -12 48 -21.5t57 -16t61 -9.5t60 -3h10q14 12 16 14l4 4l4 6q6 9 7 11t2 6q1 2 1 4v8l-26 34l1 1q-1 1 -1 2v4l-42 59l-129 305l281 227l50 175q1 3 -2.5 8.5t-6.5 12.5l-17 22q0 7 -7.5 19t-14.5 17
q-4 1 -9 1h-6q-1 0 -8 -2l-370 -296l-219 -179zM346 542l362 289l5 1l3 -1q4 -3 8.5 -9t3.5 -8l-48 -168l-288 -233l139 -327l62 -88l1 -3q-1 -2 -3 -5l-7 -10q-6 -6 -6 -8h-2q-57 0 -117 13t-102 37q-17 11 -29 26.5t-23 31.5l-160 297z" />
    <glyph glyph-name="FL003Dh" unicode="=" horiz-adv-x="568" 
d="M125 380l-3 -11q3 -6 11 -10l20 -28q0 -5 5 -8q-4 -5 -7 -8.5t-5 -6.5q2 4 0 1.5t-5.5 -8t-7 -11.5t-5.5 -9q-2 -2 -2 -3l-2 -1l-3 -6q-2 -2 -2 -3t-2 -3q-17 -22 -31.5 -45t-22.5 -49l-3 -11q3 -6 11 -10l20 -30q3 -3 9 -6.5t13 -6t12.5 -4t7.5 -1.5q8 2 25 13t29 21
l338 1q8 0 16.5 9t13.5 15q9 12 16.5 21t13.5 17h2q9 10 16 18.5t13 18.5t11.5 23t10.5 31q4 15 -2 24l-22 30q-1 7 -8 14q5 5 8 9q2 2 2 1l1 2q9 12 16.5 21.5t13.5 17.5h2q9 10 16 18.5t13 18t11.5 22.5t10.5 32q3 10 1 18h1l-3 3l-2 3h-1l-20 29q-2 14 -12 19t-23 5h-11
l-41 -24h-1q-2 -1 -3.5 -1.5t-8.5 -4.5l-332 -1q-11 0 -21 -10.5t-15 -18.5q2 4 0 1.5t-5.5 -7.5t-7 -11t-5.5 -9q-2 -2 -2 -3l-2 -2l-3 -6q-2 -2 -4 -6q-17 -22 -31.5 -45t-22.5 -49zM147 380q6 22 20 43.5t30 42.5q8 11 15.5 21t12.5 20q4 5 8.5 11t3.5 6l335 1q2 0 11 4
t13 6l34 20h5q8 0 14 -3t4 -13q-5 -16 -9.5 -27t-9.5 -20t-11.5 -16.5t-13.5 -16.5q-8 -8 -16 -18t-18 -23v1q-3 -4 -7.5 -9t-3.5 -5l-346 -1q-3 -3 -9.5 -8.5t-14 -11t-14.5 -10t-11 -5.5q-4 0 -12 2t-11 6zM85 171q6 21 20 43t30 43q8 11 15.5 20.5t12.5 19.5
q4 5 8.5 11.5t3.5 6.5l335 1q2 0 11 4t13 6l34 20h5q8 0 14.5 -3t4.5 -13q-5 -16 -9.5 -27t-10 -20t-11.5 -16.5t-14 -16.5q-7 -8 -15.5 -18t-18.5 -24v1q-4 -4 -8 -8.5t-3 -4.5l-346 -1q-3 -3 -9.5 -8.5t-14 -11t-14.5 -10t-11 -5.5q-4 0 -12 2t-11 6zM526 344
q-2 -1 -3.5 -1.5t-8.5 -4.5l-276 -1l11 9l283 1l-5 -3h-1z" />
    <glyph glyph-name="FL003Eh" unicode="&#x3e;" horiz-adv-x="665" 
d="M702 377l-107 165l-196 289l-2 1l-5 -1q-5 -3 -13.5 -9t-9.5 -8l-48 -168l154 -233l-325 -327l-114 -88l-1 -3q-1 -2 -1 -5l2 -10q0 -2 1 -4t1 -4h2q27 0 59 3.5t64.5 9.5t64 15.5t58.5 21.5q25 11 45.5 26.5t40.5 31.5zM730 376l26 -39l-346 -309q-21 -18 -43.5 -35
t-48.5 -29q-28 -12 -60.5 -21.5t-66.5 -16t-67 -9.5t-62 -3h-10l-25 36h-4l-10 21l-2 6v11t2 7l1.5 4.5t4.5 8.5l115 89v1l312 313l-149 227l50 176q1 3 6 8t12.5 11t15 11.5t13.5 8.5q4 1 9 1h4q2 0 7 -2l200 -296l117 -179z" />
    <glyph glyph-name="FL003Fh" unicode="?" horiz-adv-x="739" 
d="M193 590q1 0 1 1zM155 156q-2 0 -5.5 -4t-5.5 -6q-7 -7 -13.5 -20.5t-12.5 -28.5t-11 -30t-8 -26l-10 -34q15 0 29 -0.5t25 -0.5h35q5 0 11 -0.5t13 -0.5t13.5 -0.5t13.5 -0.5h18t18 1q17 20 27 47t18 53l9 32q2 5 2.5 11t-5.5 6zM322 176q14 0 18.5 -6t3.5 -14l22 -30
q5 -6 3.5 -14.5t-3.5 -14.5l-9 -31q-8 -27 -21 -58t-37 -60q-13 -2 -26.5 -2.5t-20.5 -0.5h-14q-4 0 -6.5 0.5t-5.5 0.5q-4 0 -7.5 0.5t-6.5 0.5h-76q-11 0 -21.5 0.5t-19.5 0.5l-26 37h-8l16 56q3 12 9 29t13.5 34.5t15.5 33.5t17 26l1 -1q5 5 13.5 10t14.5 5zM276 399
q-29 -13 -46 -23.5t-27.5 -25t-18 -36t-17.5 -55.5l177 -3q4 2 7 5.5t4 7.5q1 3 1 12q-2 10 0 15q3 10 11.5 18t20 13.5t24.5 10t24 7.5l-1 -1q42 26 85.5 37.5t87.5 19.5q36 7 70.5 15.5t63.5 25t51.5 44t35.5 72.5q24 84 12.5 133t-46.5 74.5t-87 33t-109 7.5
q-32 0 -73.5 -1t-84.5 -3t-84.5 -6t-72.5 -10q-5 -1 -14.5 -3.5t-10.5 -3.5l-45 -162q101 33 155.5 44.5t65.5 11.5q14 0 29.5 0.5t31.5 1.5l34 2t34 1q21 0 39 -2t30 -8t17 -16t1 -26q-3 -10 -8.5 -20.5t-15.5 -23.5q-17 -23 -38 -38t-42.5 -25.5t-41.5 -17t-35 -10.5
q-10 -3 -16.5 -4.5t-8.5 -3.5zM282 423l158 78l-2 -1q8 6 9.5 5.5t5.5 1.5q1 0 2 0.5t2 0.5h-1l13 4q13 3 31 9t37.5 15t38 22t32.5 32q5 8 10 15t7 12q-18 3 -37 3q-11 0 -22 -0.5t-22 -1.5q-6 0 -12 -0.5t-12 -0.5q-16 -1 -32.5 -1.5t-29.5 -0.5q-11 0 -68.5 -13
t-171.5 -51l-27 38q-3 -1 -7 -1l53 191q1 1 6 5t12 8.5t14.5 8t13.5 5.5l1 2q31 6 72.5 9.5t85.5 5.5t87 3t76 1q42 0 81.5 -3t73 -13.5t58.5 -29.5t38 -51l12 -16q21 -30 25 -77t-16 -119q-15 -51 -40 -82t-56.5 -49t-68.5 -27.5t-77 -16.5q-2 -1 -4 -1t-4 -1
q-42 -8 -82.5 -18.5t-76.5 -34.5q-2 -1 -3 -1t-3 -1q-18 -6 -37.5 -13t-22.5 -17q0 -4 1 -8q2 -10 -1 -19q-5 -17 -30 -31l-198 3l-27 36h-8q13 46 23 74.5t23.5 47.5t36 33t61.5 32z" />
    <glyph glyph-name="FL0040h" unicode="@" horiz-adv-x="913" 
d="M408 109l5 4l3 -4.5t2 -3.5l-5 -4zM596 475l14 -91l-107 3zM731 618l23 -32l39 -177q17 32 33.5 66t25.5 66q7 24 9 47.5t-3 43.5q-21 11 -49 14.5t-54 5.5q-2 0 -3.5 0.5t-3.5 0.5q-5 0 -8 0.5t-7 0.5q-12 0 -17 1l-96 -4q-63 0 -109.5 -30.5t-79.5 -77.5t-55 -104
t-37 -109q-5 -14 -6.5 -26.5t-1.5 -24.5q32 31 50.5 55.5t35.5 49.5l1 1l1 1q0 1 1 2q2 3 4.5 6t4.5 6q8 13 18 28t25 33l64 79l4 6q0 3 2 4l1 1q0 1 2 3v-1q0 2 1 3l2 2l2 2q0 3 5 8q18 23 39.5 35t44.5 22l1 1q12 6 29 11.5t33 5.5q14 0 22 -11l4 1zM436 376
q-17 -25 -35.5 -49t-49.5 -55l-5 -16q0 -2 12 -7t20 -5h4q1 0 1.5 -0.5t1.5 -0.5h24q5 0 10 1l10 8l58 58l-1 -1q7 9 18 11t25 2h10h16q9 0 19 1q3 0 5.5 0.5t4.5 0.5h7l24 2q11 0 20.5 -14.5t8.5 -36.5v-11q0 -12 1 -20t9 -8h148q7 0 13 8l-1 -1l8 10l1 -3q3 2 16 19.5
t31.5 45.5t40 64.5t42 76.5t38.5 80.5t28 77.5q17 58 7 95v-1q-3 8 -17 26.5t-41 37.5t-68 34t-96 18h-83q-46 -4 -89.5 -11t-86 -19.5t-83.5 -32t-83 -48.5q-82 -57 -143 -142t-94 -201q-27 -95 -12 -164t62 -113.5t120 -65.5t161 -21h206l32 110q-65 -2 -104.5 -5.5
t-63.5 -6.5q-17 -2 -29 -3t-23 -1q-12 0 -24 1t-27 5l-3 1l-16 7q-27 21 -55 46.5t-49 56.5t-29.5 69t4.5 84q16 55 39.5 115t59 110t85.5 82t120 32l99 4q7 -1 15 -1t16 -1q19 -1 40.5 -3t41.5 -6t37 -12t27 -21q14 -26 13.5 -59t-11.5 -69q-8 -29 -20.5 -58t-27 -56.5
t-29 -52t-26.5 -43.5l-64 280h-1q0 10 -10 10q-11 0 -24.5 -4.5t-24.5 -9.5q-24 -11 -45 -22t-32 -26h1q-2 -5 -6 -10t-6 -10l-6 -9l-59 -74q-19 -23 -32.5 -42.5t-25.5 -37.5zM339 236q1 -6 5 -12q19 -26 45.5 -48.5t51.5 -42.5h-1l8 -4q19 -5 30 -6t19 -1q11 0 22 1t28 3
q10 1 25.5 2.5t38.5 3t54.5 3t74.5 3.5l-3 -8l27 -37l-43 -146h-225q-106 0 -190.5 30t-129.5 94l-6 6q-48 48 -63.5 120t13.5 173q35 121 98.5 210t151.5 149q86 60 173 84t183 32l85 1q60 -3 103.5 -20t72.5 -38t44 -40.5t18 -28.5v-5l14 -18q5 -8 7.5 -12.5t4.5 -7.5
q5 -19 2.5 -45t-10.5 -57q-14 -50 -42 -106t-59.5 -107t-60.5 -92t-45 -60l4 -6l-3 -3q-21 -22 -36 -22h-148q-8 0 -12 2.5t-8 5.5l-23 31l1 -1q-13 3 -14.5 14.5t-0.5 26.5l-1 8h-6h-7q-2 0 -3 -0.5t-2 -0.5h-5q-9 -1 -18 -1h-16h-10q-18 0 -18 2l-61 -60l-25 -19
q-4 -1 -9 -1h-8h-25q-4 0 -4 1h-1q-11 0 -25 9.5t-18 15.5z" />
    <glyph glyph-name="FL0041h" unicode="A" horiz-adv-x="1085" 
d="M25 37l-10 -32q0 -5 10 -11l23 -32q2 -2 10 -6t18 -8t20.5 -6.5t18.5 -2.5h21q2 0 3 -0.5t3 -0.5h33q4 0 8 0.5t7 0.5h11l24 19l125 159q11 14 39 23t63.5 14.5t73 8.5t67.5 5q7 1 13 1h11l48 3q2 -18 2.5 -40.5t1.5 -44.5v-7q0 -3 1 -5q-1 -34 1.5 -59t16.5 -29l22 -31
q6 -7 14 -7h308q6 0 13.5 5t13.5 11v1h2q5 9 6 10.5t1 3.5q4 14 -1 22l-23 30q0 9 -5.5 14t-12.5 8l1 -1q-1 0 -1.5 0.5t-1.5 0.5l1 2q-5 2 -6.5 3t-5.5 4l-3 -2v2q-12 22 -19 47.5t-12 50.5l-113 618h-1q0 3 -1.5 5.5t-1.5 5.5l-20 28q-3 16 -11 18.5t-19 2.5
q-22 0 -51 -10t-51 -19q-2 -1 -4 -1.5t-4 -1.5q-25 -10 -43 -22.5t-31.5 -27t-24.5 -31t-22 -34.5q-2 -6 -3 -7l-1 -4q0 -2 -5.5 -9.5t-23.5 -31.5l-24 -30q-20 -25 -44.5 -56t-41.5 -52l-14 -18l-3.5 -3.5t-9.5 -8.5h4q-93 -112 -188.5 -222t-197.5 -207zM439 471
q2 3 6.5 9t11.5 14q11 14 26.5 34t31.5 39.5t29.5 36.5t20.5 26q11 15 19 29t16 26q10 16 20 31t22 28t27.5 23.5t37.5 19.5q9 4 22 9.5t27 10t27 8t23 3.5q6 0 9 -1t4 -8l111 -616q8 -39 24.5 -80t42.5 -70q7 -5 10 -7q5 -3 10.5 -6t3.5 -10l-2 -4l1 1l-4 -4q-5 -5 -7 -5
h-308q-7 0 -7.5 21.5t-1.5 51.5q0 25 -0.5 51t-4.5 48t-13 36t-25 14h-2l-53 -3h-12q-6 0 -13 -1q-32 -2 -71.5 -4.5t-77.5 -9t-69 -18t-45 -29.5l-125 -159l-11 -8h-4q-5 0 -13.5 -0.5t-13.5 -0.5h-12q-4 0 -7.5 0.5t-7.5 0.5h-21q-6 0 -15 1l-18 2t-15 2.5l-6 1.5l9 29
q107 104 204 214.5t189 222.5zM434 338q-1 -2 -1 -6q0 -3 4.5 -7.5t5.5 -4.5h208l-33 222l-12 17l-169 -215q-3 -4 -3 -6zM605 455l17 -113h-106z" />
    <glyph glyph-name="FL0042h" unicode="B" horiz-adv-x="905" 
d="M226 756q1 -1 4 -2.5t7 -2.5l25 -34q4 -2 7 -3t8 -3q7 -4 14.5 -7t14.5 -8q2 -14 -1 -28l-185 -645q-2 -6 12 -15l20 -28q2 -3 13.5 -11.5t19.5 -10.5l1 -1q35 -8 66 -10t66 -2h24q6 0 12 0.5t13 0.5h54q44 0 96 3.5t105.5 13t106 28t97.5 48.5t79 74t51 104q12 42 8 72
t-19 52l-13 18q-20 48 -81 71q30 14 57.5 30.5t51 37.5t41 47t27.5 61q10 34 6 58.5t-18 43.5l-2 2l-11 18q-10 25 -31.5 42t-48.5 28t-57 17.5t-58 10.5h-104q-5 0 -9 0.5t-8 0.5h-138q-5 0 -9.5 -0.5t-9.5 -0.5h-131q-13 0 -32 -2.5t-38.5 -6t-37 -7t-26.5 -6.5l-8 3z
M275 797q0 1 13.5 2t32.5 2.5t39 2.5t33 1h80q17 0 34.5 0.5t35.5 0.5h94q14 0 29.5 -0.5t31.5 -0.5h102q34 -5 71 -14t66 -26.5t43 -46t1 -72.5q-11 -40 -34.5 -68.5t-54 -49.5t-66 -37t-71.5 -31l-10 -4t-9 -4l-5 -15q41 -8 79.5 -18.5t65 -30t37 -51t-4.5 -81.5
q-16 -56 -48.5 -96t-75 -68t-92.5 -45t-101.5 -26.5t-101.5 -12.5t-92 -3h-53q-13 0 -25 -0.5t-24 -0.5q-32 0 -61 2t-65 10q-7 1 -17.5 3.5t-9.5 3.5l185 645q7 25 3.5 41.5t-14 27.5t-26 18.5t-32.5 14.5zM403 122q-5 -17 4 -27.5t24 -16t31.5 -7.5t27.5 -2q33 0 62 13.5
t51.5 36t39 51.5t25.5 61q16 54 5.5 87t-38.5 50.5t-68.5 23t-84.5 5.5zM499 457q38 3 73.5 10t65.5 22.5t52.5 41.5t34.5 68q19 67 -11 105t-101 38q-2 0 -7 -0.5t-10 -0.5h-16zM646 231q-8 -27 -21.5 -52t-33 -45t-43.5 -32t-52 -12q-8 0 -20 1t-23 3l70 245
q36 -1 68 -6.5t55 -20.5q14 -31 0 -81zM631 683h5q42 0 70 -17l-2 1q5 -14 5 -31t-6 -37q-16 -54 -52.5 -78t-84.5 -34l56 195q2 0 4.5 0.5t4.5 0.5zM130 21l-1 1q1 0 1 -1z" />
    <glyph glyph-name="FL0043h" unicode="C" horiz-adv-x="924" 
d="M176 71q45 -64 129.5 -94t190.5 -30h368l43 147l-26 37l2 8q-24 -1 -50 -2.5t-51.5 -2.5t-49.5 -2.5t-43 -2.5q-49 -3 -90 -5t-73 -2q-20 0 -39.5 1.5t-41.5 6.5h-2l2 1q-8 5 -10 7l-4 4l-1 -1q-5 23 -4 50t6.5 57t14 61.5t17.5 63.5q15 52 37 109t55 103.5t79 77
t109 30.5l79 1l113 -87l106 9q36 38 55 64t24 45q6 22 0 38.5t-20 38.5l-12 15q-2 5 -6 12.5t-10 15.5h-347q-96 -8 -183 -32t-173 -84q-88 -60 -151.5 -149t-98.5 -210q-29 -101 -13.5 -173t63.5 -120zM722 752q-70 0 -120.5 -32.5t-86.5 -82t-59.5 -110t-39.5 -115.5
q-13 -45 -24 -89.5t-13 -84t7 -71.5t36 -53l1 -1l17 -7q15 -4 35 -5t45 -1q32 0 73.5 2t90.5 5q75 4 171 9l-32 -110h-350q-88 0 -161 21t-120 65.5t-62 113.5t12 164q33 116 94 201t143 142q42 29 83 48.5t83.5 32t86 19t89.5 10.5h338q9 -16 14 -29t0 -29q-4 -15 -20 -37
t-47 -55l-86 -7l-112 87z" />
    <glyph glyph-name="FL0044h" unicode="D" horiz-adv-x="1021" 
d="M554 677l-166 -579q11 1 20 1h18h131q8 1 39 16h-1q44 24 74.5 57t52 72t36.5 82t27 86q9 32 16.5 65.5t10.5 65t0.5 59.5t-13.5 50q-17 11 -37.5 17.5t-49.5 6.5zM689 735q47 0 77 -13.5t46.5 -37t22 -55.5t3 -67.5t-11 -74t-19.5 -75.5q-13 -45 -28.5 -90.5t-36.5 -86
t-49.5 -74t-68.5 -54.5q-58 -27 -71 -30h-81q-26 0 -63.5 -0.5t-85.5 -0.5l189 660zM79 6h439q87 0 172 21t157.5 65.5t127.5 113t82 163.5q16 58 20 106t-2.5 87.5t-24 72.5t-42.5 61q-48 57 -119.5 80t-158.5 31h-427l-18 -14q-12 -10 -20 -17t-10 -15q-3 -11 1 -28.5
t17 -49.5zM58 -16h-8l199 691q-13 33 -17 52t1 34q5 16 14.5 25.5t27.5 21.5q12 9 16.5 12t9.5 8h436q46 -4 88 -11.5t80 -22t71 -36.5t60 -56h-1q11 -14 20 -27.5t18 -27.5l3 -5q41 -56 50 -131t-21 -181q-29 -100 -86.5 -172t-133 -119t-164.5 -69.5t-180 -22.5h-457z" />
    <glyph glyph-name="three" unicode="E" horiz-adv-x="846" 
d="M41 14l2 -3q1 -2 2 -3.5l1 -1.5h506q30 0 71.5 10t81.5 29.5t72.5 48.5t44.5 66q-26 0 -52 -2l-52 -4q-27 -2 -53 -4t-53 -2h-81q-44 0 -86.5 4t-78.5 18q45 38 87.5 68.5t85.5 59.5q44 30 86 59.5t84 64.5l1 3t2 5q1 4 -6 14.5t-19.5 26t-28.5 34.5t-34 39
q-33 38 -63.5 73.5t-43.5 58.5q4 1 15 3.5t24 4t24 3t14 1.5q10 1 30.5 3t46.5 4t55 4.5t55 4.5t46 3t30 1q22 16 52.5 39.5t50.5 48.5l2 4l1 4q-1 2 -3 4l-3 3q-7 -1 -22 -2.5t-30.5 -3t-29.5 -2.5t-20 -1h-36q-20 0 -44.5 -0.5t-53.5 -0.5h-189q-28 0 -52 0.5t-44 0.5h-37
q-3 -2 -8.5 -6.5l-11 -9t-10.5 -8.5t-6 -5q-12 -11 -30 -27t-35 -31.5t-29 -27t-12 -12.5l-6 -18l212 -330l-305 -177l-26 -20q-5 -5 -17.5 -20.5t-27 -32.5t-27 -33t-17.5 -22l1 1q-2 -2 -2 -3l-1 -2v-4zM21 25q0 1 1 2t1 2q5 6 18 22.5t28.5 34.5t29.5 34t20 23l31 24
l281 162l-204 319l8 27q1 3 14.5 16.5t31.5 31t37.5 35.5t32.5 29q2 2 8.5 7t14.5 11t15 11t10 7h109q8 0 15 -0.5t15 -0.5h189q8 0 15.5 0.5t15.5 0.5h103q6 0 20.5 1t30.5 2.5t31 3.5t21 3q6 -2 13.5 -10t7.5 -13v-2l20 -28q4 -8 5 -11l-1 -8l-1.5 -4.5t-3.5 -7.5
q-23 -28 -57 -55t-59 -44q-11 0 -32 -1t-47.5 -3t-56 -4.5t-56 -4.5t-47 -4t-30.5 -3q-5 0 -15 -1t-21 -3q15 -18 32 -35q5 -5 11 -11.5t11 -12.5l1 -2q1 -1 1.5 -2t1.5 -2q34 -38 60.5 -70.5t31.5 -49.5h-1l9 -12q21 -29 18 -39q-2 -8 -10 -16h4q-42 -35 -87 -66.5
t-91 -63.5q-26 -17 -52 -35t-52 -38q17 -1 33 -1h34h81q26 0 52 2l52 4q27 2 56 4t71 2q0 -3 -3 -6v-2l27 -37q-13 -46 -49 -81.5t-80.5 -59.5t-90.5 -36.5t-79 -12.5h-508q-7 4 -8.5 5t-3.5 6l-19 27q-5 3 -7 4.5t-5 6.5l-7 9q1 6 1 7q0 2 1 6z" />
    <glyph glyph-name="FL0046h" unicode="F" horiz-adv-x="795" 
d="M586 686l2 2l-2 1v-3zM241 710q16 -4 32.5 -8.5t28 -13t16.5 -22.5t-2 -37l-179 -627l234 4l99 348l239 29q2 0 10 3.5t10 5.5q12 7 32 23t34 27q6 6 10 9l8 26h-308l61 212l14 11q2 1 21.5 4t46 6t54 6t45.5 5h19q3 0 6.5 0.5t6.5 0.5h9h10t19 -1l70 -98l22 17l47 166
q-65 0 -127.5 -2t-125.5 -4q-62 -2 -125 -4t-130 -2h-43q-21 0 -44 1q-4 -2 -8 -4.5t-6 -3.5h1q-11 -5 -23.5 -11.5t-24 -12.5t-20 -11t-10.5 -6q-14 -8 -19.5 -13t-8.5 -15q-1 -2 -1 -7v-1zM218 708q-1 0 0 4l2 6q5 17 13 24.5t29 20.5q2 2 5 4t8 4q12 7 27 15t29 16
q23 10 30 14q23 -1 47 -1h46q67 0 130 2t125 4q64 2 136.5 4t138.5 2l-2 -8l27 -36l-55 -190l-46 -36l-27 38l-3 -2l-50 70h-17h-10h-7h-25q-8 -1 -18 -1.5t-23 -2.5q-18 -2 -36.5 -4t-34 -3.5t-27 -2t-15.5 0.5l3 -2l-7 -5l-41 -144h271l-2 -8l25 -37l-14 -50q-3 -2 -5 -4
t-12 -11q-14 -11 -34 -27t-34 -24q-6 -3 -16.5 -7.5t-13.5 -5.5h-3l-220 -29l-99 -349l-270 -4l-27 37h-8l186 649q2 6 2 12q-7 2 -15 4.5t-16 4.5q-5 2 -9.5 2.5t-7.5 2.5l-26 34q-1 0 -2 0.5l-1 0.5q-3 0 -5 3z" />
    <glyph glyph-name="FL0047h" unicode="G" horiz-adv-x="964" 
d="M1007 393l7 27h-302l-35 -123l109 14q-2 -34 -6 -61t-10 -48q-8 -27 -18 -51t-20 -47q-2 -6 -6 -13.5t-6 -13.5l-192 -1q-47 0 -76 15t-45 40.5t-20.5 59t-1 71.5t12.5 77.5t19 76.5q13 45 28 88t35.5 80.5t48 67.5t66.5 51l23 8q63 18 203 18q38 0 80.5 -1t91.5 -4
l22 82h-310q-69 0 -146.5 -19t-151 -60t-136.5 -107.5t-103 -160.5q-17 -58 -22 -108t0 -94t18.5 -82.5t33.5 -72.5q22 -33 60.5 -57.5t97.5 -38.5h-1l469 -1q16 15 33 50.5t31 82.5q14 48 21 97t3 91q6 3 14.5 4.5t17.5 3.5q8 2 14 2.5l6 0.5q13 8 24.5 26t16.5 27z
M697 442h346l-3 -8l27 -37l-12 -43l-2 -4q-5 -11 -19.5 -33t-34.5 -35h-1q-1 -1 -2 -1v0q-5 -2 -12 -3t-15 -3h1l-10 -2q1 -40 -6 -85t-20 -90q-14 -50 -35.5 -91t-43.5 -61l-481 1q-110 27 -158 92l-10 13q-8 8 -15.5 16.5t-12.5 18.5q-21 36 -35 76t-19.5 86t-0.5 98.5
t23 113.5q42 100 108.5 169.5t144 113t159 63.5t153.5 20h332l-2 -8l27 -36l-34 -119q-49 3 -100.5 4.5t-89.5 1.5q-69 0 -118 -4t-78 -12l-18 -6h1q-36 -20 -62 -48.5t-45 -64t-33 -76t-26 -83.5q-9 -31 -17 -63.5t-12.5 -65t-3.5 -62t9 -54.5h-1q30 -33 94 -33l173 1l1 2
l3 6q0 2 1 3t1 3q1 1 1 2q0 2 2 4q2 3 3 6t3 6q8 17 15 35t12 36q2 9 4 19.5t4 22.5l-74 -8l-28 37h-7z" />
    <glyph glyph-name="FL0048h" unicode="H" horiz-adv-x="1077" 
d="M121 14l12 -17q51 12 108.5 24t110.5 15l11 8l90 316l399 34l-112 -391q-1 -2 7 -4.5t13 -2.5q1 0 6 1t11.5 2.5t13 3.5t10.5 3q8 2 26.5 8t41.5 13q29 9 57 17t39 12q9 4 23.5 20t29 35.5t25.5 38.5t14 29l1 3q0 1 -3.5 5t-7.5 9q-10 10 -10 15q-2 3 -1.5 10.5t1.5 15.5
t2 14.5t2 9.5l10 35q3 12 6.5 25t7.5 27l25 87q12 44 26 86.5t29 87.5q14 44 28.5 87t27.5 88q3 10 -3.5 16t-15.5 6q-2 0 -4 -0.5t-4 -0.5h-2q-11 -2 -38.5 -6t-56.5 -9q-31 -5 -57 -9t-37 -6l-1 -1q-6 -2 -17.5 -7t-13.5 -9l-77 -269l-14 -11q-1 -1 -15 -2.5t-32 -3.5
t-37 -3.5t-30 -1.5h-22q-5 0 -9.5 -0.5t-9.5 -0.5h-38q-10 0 -21 -0.5t-23 -0.5q-21 0 -43.5 1t-41 5t-31 10.5t-14.5 17.5l4 14q2 5 2 9t2 9l10 33q9 32 21.5 62.5t25.5 60.5t25 60t20 59h-9q-5 0 -9.5 -0.5t-9.5 -0.5h-31q-15 0 -54 -1t-82 -2.5t-81.5 -3.5t-53.5 -3h1
q-7 -2 -9.5 -7t-4.5 -10l-2 -7q-2 -5 3 -9.5t13 -10.5q8 -5 16.5 -11.5t14.5 -16t7.5 -23t-3.5 -31.5zM97 6l190 663q2 6 1.5 12t0.5 12q-2 0 -2 2q-11 7 -16 15l-20 26l1 -1q-10 7 -15 14.5t-1 21.5l2 7q3 11 10.5 22.5t27.5 16.5q15 1 54 2.5t82.5 3t83 2.5t54.5 1h45
q2 0 2.5 0.5t2.5 0.5h31l-2 -8l27 -36q-12 -41 -24.5 -74t-26.5 -63q-14 -31 -26 -61.5t-21 -60.5l-9 -33q17 -2 38 -3t43 -1q3 0 6.5 0.5t6.5 0.5h82q2 0 2.5 0.5t2.5 0.5h22q10 0 26.5 0.5t32 1t27 1.5l11.5 1l6 4l74 261q5 15 22 24t27 12q3 3 8 3q2 0 3.5 0.5t3.5 0.5
q7 1 18 3q14 2 32 5t38 6q30 5 55 8.5t36 5.5h8q1 0 1.5 0.5t1.5 0.5h5q31 0 36 -28l20 -27q5 -5 5.5 -12.5t-1.5 -15.5q-13 -45 -27 -88.5t-29 -87.5t-28.5 -86.5t-26.5 -86.5l-25 -87q-2 -7 -3.5 -14t-3.5 -14l-16 -58q-1 -2 -2 -8t-2.5 -12.5t-2 -12t0.5 -7.5l18 -23
q6 -9 5 -17l-1 -3q-3 -12 -16.5 -33.5t-30.5 -44t-34.5 -40.5t-29.5 -23q-5 -2 -17.5 -5.5t-26.5 -8.5q-12 -4 -25 -7.5t-27 -7.5q-10 -3 -19.5 -6t-17.5 -6q-10 -3 -18 -5t-13 -4q-4 -1 -11.5 -3t-15.5 -3.5t-14 -3t-7 -1.5q-8 0 -17 6t-14 12l-21 30q-6 5 -10 9t-2 9
l93 326l-315 -27l-88 -305l-26 -20q-54 -3 -115 -15.5t-116 -26.5l-27 38l-2 -2z" />
    <glyph glyph-name="FL0049h" unicode="I" horiz-adv-x="841" 
d="M316 127q-2 0 -9.5 -1.5t-17.5 -3l-20 -3t-16 -2.5q-8 -1 -21.5 -3t-28 -3.5t-28.5 -3t-22 -1.5l-112 -87l-4 -16q84 5 152.5 6.5t128.5 1.5q63 0 116.5 -1t103.5 -3q45 -2 89.5 -3t92.5 -1h8q10 14 22.5 33t25 40t23.5 42.5t17 40.5q-5 -1 -12.5 -1.5t-9.5 -1.5
q-2 0 -10 -3t-17 -7t-17 -7t-11 -3q-35 -6 -64 -8t-66 -2q-6 0 -16.5 0.5t-15.5 0.5h-5l-5 7q8 32 16 62.5t16 60.5q13 53 26 105t28 106l12 41q4 14 8.5 27.5t8.5 27.5l19 66l24 49l8 2t18.5 4t21.5 3.5t18 2.5t20 2.5t26.5 3t26.5 2.5t21 1l112 88l5 16q-49 0 -92 -1.5
t-85 -3.5q-44 -2 -87 -3.5t-92 -1.5q-48 0 -88 1.5t-79 3.5q-38 2 -76.5 3.5t-83.5 1.5h-8q-10 -14 -22.5 -33t-25.5 -40.5t-23.5 -43t-16.5 -39.5q5 0 12 1t10 2q2 0 9.5 3l17.5 7q8 2 15.5 5t11.5 4q34 6 67 9t69 3q6 0 16 -0.5t15 -0.5h5l9 -12l-161 -542h-4h1zM257 139
q7 1 17 2t19 3h-1q5 1 11 1l141 479q-31 -1 -59.5 -4t-58.5 -8l-11 -4q-3 -2 -6.5 -2.5t-6.5 -2.5q-11 -5 -19.5 -8t-13.5 -3q-8 -2 -22 -2.5t-18 -0.5l-26 37h-8q7 27 21 56t29.5 55.5t31 49.5t26.5 38h22q35 0 65 -0.5t59 -2.5q8 -1 17.5 -1.5t18.5 -0.5q39 -2 79 -3.5
t88 -1.5q49 0 91.5 1.5t86.5 3.5h12q3 0 5.5 0.5t5.5 0.5q40 2 87 3t90 1l-3 -8l27 -36l-12 -40l-127 -99q-9 0 -23 -1t-28.5 -2.5t-28 -3t-20.5 -2.5q-11 -2 -25.5 -3.5t-22.5 -2.5l-20 -42l-25 -87q-2 -7 -5 -14t-5 -15l-11 -41q-15 -53 -28 -105l-26 -104
q-3 -10 -5.5 -19t-4.5 -18q-2 -8 -4.5 -17t-4.5 -17q29 0 54.5 2t57.5 8q2 0 9 2.5t16 6.5q3 0 4 1l12 5q10 5 18 5q8 1 23.5 2t21.5 1l-2 -8l26 -37q-8 -26 -21 -53.5t-28 -53t-30 -47.5t-26 -38h-21q-48 0 -92 1t-89 3q-51 2 -104.5 3t-116.5 1q-60 0 -136 -2t-161 -7
l-27 38q-1 0 -2 -0.5l-1 -0.5h-5l14 47l130 101q10 0 25 1.5l30 3t28.5 3.5t21.5 3z" />
    <glyph glyph-name="FL004Ah" unicode="J" horiz-adv-x="837" 
d="M658 735q1 -2 3 -2l1 -1l26 -35q3 -2 11 -4q2 -1 4.5 -2t4.5 -2q0 -6 -2 -16l-145 -509q-16 -10 -42.5 -14t-62.5 -4q-45 0 -96 4.5t-107 10.5q-3 0 -18 7l1 -1h-1t-3 2h-2l1 1l-1 -1q-2 2 -3 2t-3 2q-2 1 -3.5 1.5l-1.5 0.5h1q-9 4 -23.5 10.5t-32.5 14.5t-39 17t-42 17
l-60 -202q-1 -2 3 -7t9 -10l21 -27q3 -5 12 -12.5t17 -9.5q28 -6 67.5 -10t82.5 -6t84.5 -3t73.5 -1q55 0 123 7t134 30.5t123 67t91 116.5h5l180 611l-27 36l3 8h-33q-2 0 -3.5 -0.5t-3.5 -0.5h-49q-14 0 -47 -1t-69.5 -2.5t-69 -3.5t-45.5 -3h-3q1 0 1 1q-27 0 -37 -15
t-14 -29q-1 -2 -2.5 -10t-0.5 -11zM674 768q2 8 6.5 15.5t13.5 7.5q2 0 3 -0.5t3 -0.5q13 1 45 3t68.5 3.5t69.5 2.5t47 1h35q5 0 10.5 0.5t10.5 0.5h11l-170 -576q-1 -1 -3 -4l-2 -2q-20 -47 -51.5 -81.5t-69.5 -58t-81.5 -38t-87 -23t-85.5 -11t-78 -2.5q-32 0 -72.5 1
t-82.5 3t-80.5 6t-66.5 10q-5 1 -13.5 3.5t-8.5 3.5l52 173q41 -17 66.5 -30t42.5 -21q16 -8 25 -11.5t15 -3.5q56 -6 107.5 -10.5t96.5 -4.5t78.5 6.5t52.5 25.5l147 517q10 37 -8.5 55.5t-48.5 26.5q1 3 1.5 7t1.5 6z" />
    <glyph glyph-name="FL004Bh" unicode="K" horiz-adv-x="1086" 
d="M786 474q1 0 1 -1zM636 145q4 -7 14 -22.5t22 -32t23.5 -31.5t17.5 -22q25 -14 56 -22t65 -12.5t68.5 -5.5t66.5 -1h19q5 0 10 0.5t8 0.5q3 4 8.5 13t8.5 14l2 9l-2 10q-2 7 -1 8q-1 1 -3 1l-4 -1q-2 -1 -6.5 -5t-6.5 -7q-5 7 -17 23t-24.5 33.5t-24 33t-15.5 22.5
q-7 13 -21.5 39.5t-32.5 60.5t-37.5 72t-36.5 72.5t-30.5 62t-19.5 41.5q-3 2 -4.5 9.5t-0.5 11.5l1 2q8 16 30.5 36.5t53.5 42t67.5 44t73.5 43t70.5 39t59.5 31.5q23 13 37 20.5t14 5.5q5 16 -4.5 19t-29.5 3h-217q-14 -24 -33.5 -49t-42 -49.5t-46 -47.5t-43.5 -43
l-21 -21l-18 -18q-21 -22 -45 -42.5t-50 -37t-53.5 -26.5t-56.5 -10q7 21 12.5 42.5t10.5 40.5t10 37.5t10 36.5q14 45 29.5 89t41.5 92l2 4q2 9 -3.5 10.5t-12.5 1.5h-18q-11 0 -32.5 -0.5t-49.5 -1.5t-58.5 -2t-58.5 -2t-50 -2t-32 -2q-2 0 -2.5 0.5t-2.5 0.5
q-9 0 -13.5 -8t-6.5 -16q-2 -7 3 -12t14 -10q8 -5 16 -11.5t14 -16t7.5 -22.5t-3.5 -32l-191 -665q-2 -6 3.5 -7t10.5 -1q2 0 4 0.5t4 0.5h2q23 4 58.5 10t68.5 12t57 11l24 5l13 10l97 339h44q4 -10 14 -29.5t22.5 -44.5t26.5 -52t26.5 -51.5t23 -43.5t16.5 -28zM694 20
q-5 6 -16.5 21.5t-24 32.5t-23.5 33t-15 23q-6 10 -19 34t-29 53.5t-32 61t-28 57.5h-2l-94 -328l-22 -17l-5 7q-14 -5 -41 -11.5t-58 -14t-61.5 -14t-51.5 -10.5h-6q-2 0 -3 -0.5t-2 -0.5h-3q-6 0 -13.5 1t-12.5 7l-22 31q-7 2 -11 8t0 20l191 665q3 14 0 25q-12 9 -17 17
l-18 25q-11 6 -16 14.5t0 22.5q4 14 14 29.5t35 15.5l1 -1h2q16 1 56 3t85 3.5t85 2.5t56 1h18q12 0 22.5 -2.5t10.5 -17.5l21 -29h1l2 -3l2 -3h-2q3 -7 0 -18l-3 -9q-26 -48 -41.5 -90.5t-27.5 -85.5q-5 -18 -10 -36.5t-10 -36.5l-2 -7q34 14 65 39t57 53l-1 -1l6 6
q1 3 7 7h-1q3 4 8 7.5t9 8.5q2 1 8 7q0 1 1 2q0 1 1 2t1 2h2q1 0 3 2l-1 -2l10 10t3 3q38 37 80 82.5t71 99.5h234q24 0 38.5 -3.5t14.5 -20.5l21 -29q3 -5 3.5 -12t-3.5 -18q-3 -11 -12 -17t-23 -13q-2 -1 -12 -5.5t-16 -7.5h1q-38 -20 -92.5 -49t-107 -60.5t-93.5 -61.5
t-52 -51q0 -4 3 -6l2 -3q5 -12 15 -34t24 -49.5t30 -59t32 -62t31 -58.5t26 -49q11 -19 29.5 -45.5t32.5 -43.5q2 1 2.5 1.5t2.5 1.5q6 2 7 2h4h8q2 0 5 -2l6 -14q1 -5 2 -5l19 -25q5 -11 6 -13t1 -4l3 -12l-6 -19q-2 -4 -12.5 -19t-18.5 -23h-10q-5 0 -9 -0.5t-8 -0.5h-20
q-33 0 -68.5 1t-70 5.5t-66 12.5t-56.5 22l-5 4q-10 10 -26 34z" />
    <glyph glyph-name="FL004Ch" unicode="L" horiz-adv-x="826" 
d="M298 771q-2 -6 0 -16.5t5.5 -22.5t8 -24t9.5 -19l-148 -515q-8 -26 -23 -33.5t-32 -11.5q-20 -5 -42 -15t-45 -40q16 -30 37 -50l8 -12q19 -26 44.5 -44t51.5 -29q36 3 66 5t58 3.5t54.5 2t55.5 0.5h81q38 0 73.5 -2t71.5 -4q37 -2 81.5 -4t82.5 -2l17 58q6 22 12.5 49
t10.5 52.5t3 47t-10 33.5l-18 24q-4 14 -10.5 22t-20.5 8q-29 0 -52.5 -22t-47.5 -51q-17 -22 -35.5 -39.5t-33.5 -17.5h-10h-2q0 1 -1 1h-8q-22 2 -53.5 5t-57.5 7v1q-3 0 -5 0.5t-4 0.5l132 462l60 138l-1 -1q4 6 10 10q7 6 14.5 13t9.5 16q3 7 -1 14l-22 32q0 8 -10 15
t-35.5 12t-69 8t-111.5 3q-25 0 -49 -3t-44 -10.5t-34.5 -20.5t-20.5 -34zM320 771q4 15 16 24t28.5 14t36 7t39.5 2q66 0 107.5 -2t64.5 -5t30.5 -7t6.5 -9q-1 -4 -6 -8l-10 -8q-14 -11 -18 -19l-60 -139l-146 -508l9 -12q6 -1 9.5 -1.5l7 -1t8.5 -1t13 -1.5q14 -2 31 -4
t34 -4.5t33 -4t28 -2.5h9q4 0 8 -0.5t6 -0.5q25 0 47.5 22t44.5 48q20 23 38.5 42t38.5 19q14 0 17 -18t-0.5 -44.5t-11 -57t-14.5 -55.5l-11 -39q-36 0 -72 2l-72 4l-72 4t-73 2h-82q-27 0 -53.5 -0.5t-54 -2t-57.5 -3.5t-66 -5q-27 12 -54 30.5t-41 45.5q14 16 29.5 22.5
t32.5 11.5q12 3 23 6.5t21 10.5t18.5 18.5t13.5 30.5l150 524q-3 4 -8 14t-9.5 21t-7 22t-0.5 16z" />
    <glyph glyph-name="FL004Dh" unicode="M" horiz-adv-x="1285" 
d="M842 859h-2q-1 0 -2 -0.5t-2 -0.5q-24 -5 -48 -8.5t-50 -5.5l-30 -23l-5 -31q-55 -9 -107 -23t-99.5 -38t-90 -61.5t-78.5 -92.5q-3 -4 -18.5 -37t-36.5 -80.5t-44.5 -102.5t-44.5 -104q-14 -32 -25 -59.5t-19 -44.5q-2 -5 -4 -9l-4 -8l-14 -19q-5 -6 -6.5 -8.5
t-9.5 -12.5q-4 -2 -10 -5.5t-13 -5.5q-18 -8 -34 -16.5t-21 -27.5q-9 -30 12 -38l22 -30q9 -9 23 -9q26 0 64 1.5t78.5 9.5t79 24.5t66.5 46.5q8 15 19 42t24 62q2 4 3 7t2 7q21 54 47 118.5t56 126.5t62.5 115t67.5 83l-182 -617h8l27 -37h33q4 0 7 0.5t6 0.5h7h15
q11 0 24 1q14 1 28.5 1.5t29.5 0.5q4 0 8 0.5t8 0.5h9t9 1h1q6 1 12 1.5t13 0.5q5 1 9 1h7q26 2 36.5 6t15.5 21l187 653q2 0 4 1q7 2 14 2.5t11 0.5q0 -1 2 -1q7 -23 6 -57t-7 -75t-16 -86.5t-20 -91.5q-13 -56 -24 -110t-15.5 -99.5t1 -81t25.5 -53.5h3l18 -26
q3 -4 5 -6.5t4 -4.5h27q2 0 4.5 -0.5t5.5 -0.5h81q18 0 34 0.5t33 2t36 3.5t42 5q8 6 18 18.5t12 15.5l6 23l-26 37l2 7q-8 2 -13 4.5t-10 6.5v-2q-5 21 -4.5 48.5t4.5 59t10.5 66t14.5 70.5l20 102t13.5 97.5t-2 85.5t-24.5 66l-12 15v1q-10 23 -27 40q-20 18 -45.5 30.5
t-54 20.5t-59 12.5t-59.5 7.5l9 43l-27 35l2 9q-47 0 -80.5 -5t-65.5 -12zM946 772q5 -1 12 -1t12 -1q31 -3 64 -6.5t64.5 -11t59.5 -19t48 -30.5q24 -22 31.5 -60t5 -85t-12.5 -100.5t-20 -106.5q-12 -55 -21 -107t-10 -94t9.5 -71t38.5 -38l-2 -6v-1q-2 -2 -6.5 -8.5
t-7.5 -8.5q-45 -6 -75 -8.5t-62 -2.5h-81q-5 0 -9.5 0.5t-9.5 0.5h-13q-15 15 -18 47.5t2.5 76t16.5 95t23 104.5q15 64 28 127t16 114t-7.5 85.5t-43.5 41.5h-4q-5 0 -13 -0.5t-16 -1.5h1q-6 -1 -10 -1.5t-9 -0.5l-192 -671q-2 -5 -7.5 -6t-20.5 -2h-9t-10 -1
q-7 0 -13 -0.5t-14 -1.5t-16 -1t-16 -1q-15 0 -29.5 -0.5t-28.5 -1.5q-13 -1 -23 -1h-15q-3 0 -8 -0.5t-11 -0.5h-17l204 688q-34 0 -67 -23.5t-63.5 -63t-58.5 -90.5t-53.5 -106t-47.5 -110t-40 -102q-14 -36 -25 -65.5t-22 -49.5l1 1q-23 -24 -58 -38t-73 -20.5t-74.5 -8
t-61.5 -1.5q-17 0 -12 18q2 8 12.5 13.5t22.5 10.5q11 5 22.5 10t16.5 11l5.5 8.5t9.5 13.5l16 19q2 5 17 41t37 87q21 48 44 102t43.5 100.5t35 78t17.5 35.5q36 55 78.5 91.5t91 59.5t101 36t108.5 21l5 41l11 8q26 2 52 7l52 10q31 7 61 11t59 5z" />
    <glyph glyph-name="N" unicode="N" horiz-adv-x="1130" 
d="M163 173q-5 -17 -8.5 -43.5t-2 -54t8.5 -51.5t23 -34l18 -25q14 -19 36 -19q7 0 25 2t40.5 6t47.5 10t46.5 14t36.5 17.5t19 21.5q14 48 25.5 95t22.5 95q11 47 23 93.5t26 94.5l32 112q7 19 11 34l24 82q-1 10 0 14q2 8 16 10.5t25 4.5h1q2 0 3 0.5t3 0.5h5q9 1 35 3
t56 3.5t58 2.5t41 1h48q2 0 2.5 -0.5t2.5 -0.5h3l-189 -658l11 -9l22 -31l22 -18l245 41q7 2 17 10t13 14l4 14q2 14 3 24t1 19v-1q1 2 0.5 3t0.5 3q1 20 3.5 39.5t8.5 39.5l133 467q11 39 30.5 56t39.5 29t36 27t27 54l-27 36l3 8h-790l-149 2q-12 0 -36.5 -10t-50 -24.5
t-46 -31.5t-24.5 -32q-3 -11 1 -16.5t12 -10.5l20 -28q4 -5 11.5 -9t15.5 -6q2 -1 4.5 -1.5t4.5 -1.5q4 -2 8.5 -3.5t9.5 -3.5l-124 -435q-12 -11 -16 -21t-8 -21v-3zM185 173v3q3 10 7 18.5t15 16.5l128 448q4 13 -0.5 22t-13.5 16t-21 11.5t-23 8.5q-14 4 -23.5 7.5
t-7.5 8.5q3 12 20 25.5t38 25t41 19t30 7.5l149 -2h768q-7 -20 -20 -30t-27 -19q-11 -6 -22 -14t-21.5 -19t-20 -27t-16.5 -40l-134 -467q-8 -26 -10 -47t-4 -43q-1 -11 -1.5 -21t-1.5 -18l-3 -9q-1 -2 -4.5 -5t-5.5 -3l-239 -40l-10 8l202 705h-15q-6 0 -12.5 0.5
t-14.5 0.5q-7 0 -13 0.5t-14 0.5h-47q-14 0 -42.5 -1t-59 -2.5t-56.5 -3.5t-34 -3q-2 0 -4.5 -0.5t-5.5 -0.5q-9 -1 -19 -2t-20 -4.5t-17.5 -10t-10.5 -17.5q-4 -11 -1 -18l-13 -44l-10 -34l-10 -34l-32 -111q-14 -49 -26.5 -95.5t-23.5 -94.5q-11 -47 -22.5 -93.5
t-25.5 -94.5q-2 -9 -15 -16t-32 -12.5t-41.5 -10t-43 -7.5t-36.5 -4.5t-23 -1.5q-21 0 -30 20t-10.5 47.5t2.5 55.5t9 45z" />
    <glyph glyph-name="zero" unicode="O" 
d="M552 489q-2 0 -5 -3t-4 -5q-9 -11 -23 -29.5t-27 -35.5t-22 -30t-9 -14l-5 -17q29 0 65.5 1t73 2.5t70.5 3.5t57 4q4 5 7.5 9t8.5 9q20 24 40.5 50.5t26.5 47.5q2 5 2.5 11t-5.5 6zM808 521q14 0 19 -5.5t5 -13.5l-1 1l15 -23q11 51 11 97t-16 81l-1 -1
q-17 13 -39.5 20.5t-53.5 7.5q-88 0 -145 -46.5t-98 -130.5l-6 -20q-2 -5 -3.5 -9t-2.5 -9l-11 -38q11 16 22.5 30.5t20.5 25.5q3 5 14.5 13.5t19.5 9.5zM450 313q-10 -47 -12 -93.5t12 -84.5h-1q14 -16 38 -25.5t59 -9.5q56 0 99.5 25t76 65t56 90t40.5 99
q-6 -7 -12.5 -14.5t-12.5 -15.5q-6 -6 -7 -8h1q-4 -5 -7 -8.5t-8 -8.5h1q-8 -8 -14 -16q-26 -2 -64 -4t-79 -4t-81.5 -3t-71.5 -1zM439 492l6 18t5 17l7 25q45 90 108.5 141t158.5 51q67 0 102 -28t47 -73t5.5 -101.5t-22.5 -113.5q-16 -56 -41 -117.5t-62.5 -113.5
t-90 -85.5t-123.5 -33.5q-49 0 -79 16.5t-46.5 43.5t-21 63t-1.5 75.5t12 79.5t19 76zM150 398q-30 -104 -17.5 -178t58.5 -122t121 -70.5t171 -22.5q112 0 212.5 26.5t183 81.5t143.5 139.5t94 200.5q27 94 11.5 163t-62 114t-119.5 66.5t-160 21.5q-106 0 -206.5 -22.5
t-185 -72t-148 -130t-96.5 -195.5zM128 398q35 121 101.5 205.5t154.5 136.5t192.5 75.5t215.5 23.5q60 0 113.5 -9.5t98 -29t77.5 -49.5t52 -71l5 -8q34 -47 42 -110.5t-17 -148.5q-35 -121 -97.5 -209t-148 -145.5t-189.5 -85t-221 -27.5q-112 0 -195.5 29.5t-128.5 93.5
l-4 5q-54 51 -68.5 130t17.5 194z" />
    <glyph glyph-name="FL0050h" unicode="P" horiz-adv-x="865" 
d="M262 717q4 -2 7 -3t7 -3q8 -4 15.5 -7t14.5 -8q2 -14 -1 -28l-185 -645q-1 -4 11 -15l21 -28q3 -4 14.5 -12.5t20.5 -10.5q25 -5 43 -7t35 -2q8 0 17 0.5t20 1.5h5q14 1 30.5 1.5t41.5 0.5h24l87 280q63 6 123 18.5t126 41.5q40 17 85.5 51.5t86.5 78t72.5 92t44.5 92.5
q10 34 6 58.5t-18 43.5l-14 20q-10 25 -31 42t-48 28t-57.5 17.5t-57.5 10.5h-104q-5 0 -9 0.5t-8 0.5h-138q-5 0 -9.5 -0.5t-9.5 -0.5h-131q-13 0 -32 -2.5t-38.5 -6t-37 -7t-26.5 -6.5l-8 2l-31 -50q1 -1 4 -2.5t7 -2.5zM283 9q-12 -1 -21.5 -1.5t-19.5 -0.5
q-14 0 -30.5 2t-42.5 7q-7 1 -17.5 3.5t-9.5 3.5l185 645q7 25 3.5 41.5t-14 27.5t-26 18.5t-32.5 14.5l17 27q0 1 13.5 2t32.5 2.5t39 2.5t33 1h80q17 0 34.5 0.5t35.5 0.5h94q14 0 29.5 -0.5t31.5 -0.5h102q34 -5 71 -14t65.5 -26.5t42.5 -46t1 -72.5q-12 -42 -42 -88
t-68.5 -87t-81 -73.5t-80.5 -47.5q-69 -29 -131.5 -41.5t-128.5 -18.5l-87 -279h-5q-24 0 -41.5 -0.5t-31.5 -1.5zM475 375q38 3 77.5 23t74 50.5t60.5 69.5t38 81q19 67 -11.5 105t-100.5 38q-2 0 -7 -0.5t-10 -0.5h-17zM631 683h5q41 0 69 -17l-2 1q11 -29 0 -68
q-9 -29 -24.5 -56.5t-36.5 -51.5t-45.5 -43t-51.5 -32l77 266q2 0 4.5 0.5t4.5 0.5z" />
    <glyph glyph-name="FL0051h" unicode="Q" horiz-adv-x="1256" 
d="M442 402q-16 -55 -19 -114.5t14 -108.5h-1q32 -40 94 -49l153 532q-45 -7 -84.5 -34.5t-70.5 -65t-53 -80.5t-33 -80zM1066 406q7 25 10 53.5t0.5 57.5t-10.5 56.5t-21 50.5q-17 14 -36.5 22.5t-44.5 8.5q-6 -18 -14.5 -46t-19 -61.5t-22 -71.5t-23.5 -77
q-13 -41 -25 -80t-22.5 -73.5t-19 -63t-13.5 -46.5q47 10 88.5 35.5t75.5 61.5t58.5 80.5t38.5 92.5zM396 442q12 43 38.5 92.5t64 91.5t84.5 69.5t102 27.5q10 0 22 -3.5t7 -20.5l-169 -592q-67 0 -104.5 32t-52.5 81.5t-11.5 108.5t19.5 113zM931 712q2 0 4 0.5t4 0.5
q54 0 88.5 -31t52.5 -77.5t19.5 -100t-11.5 -98.5q-17 -61 -50.5 -115.5t-79 -95.5t-101.5 -65t-119 -24l16 56q4 16 13 44.5t20 65.5t24.5 80t27.5 87q13 43 26 85.5t24.5 79.5t20 65t12.5 43h9zM515 4q0 -19 -4.5 -43t-12.5 -52q-8 -34 -15 -68t-5 -61.5t16.5 -45
t50.5 -17.5h4q5 3 13.5 9.5t9.5 8.5l124 259v-1q2 5 13 7.5t28 7.5q30 7 78.5 20.5t105 36t117 55.5t114.5 80.5t97.5 110.5t67.5 145q17 60 14 111.5t-24 93t-58 73t-86 52.5q-2 1 -18 2.5t-39.5 4t-50.5 5t-49.5 4.5t-38 3.5l-15.5 1.5l-212 -11h1q-59 -12 -119.5 -26
t-119.5 -33.5t-113 -47t-99.5 -65.5t-80 -88.5t-53.5 -117.5q-34 -117 -20 -194.5t64.5 -124t131.5 -67.5t182 -26zM477 -92q2 11 4.5 22t4.5 22q-105 8 -182.5 36.5t-120.5 88.5l-11 16q-48 49 -60 128t22 197q31 108 95.5 177t148 112.5t178 68t185.5 42.5l217 11l16 -1.5
t39.5 -3.5t51.5 -5t52.5 -5t41 -4t18.5 -3q54 -23 92.5 -57.5t60.5 -81.5l3 -4q35 -48 44 -110t-13 -138q-25 -86 -70 -151.5t-101 -114.5t-118 -84t-120.5 -58.5t-108 -37t-81.5 -21.5l-12 -3l-13 -3h-2l-122 -256l-1 2q-7 -7 -18.5 -16.5t-19.5 -13.5h-9q-26 0 -41.5 7
t-25.5 21l-16 21q-18 13 -24.5 35t-5.5 49t7.5 57t14.5 59z" />
    <glyph glyph-name="FL0052h" unicode="R" horiz-adv-x="903" 
d="M645 226l-10 -226h8l25 -37h10t10 1q7 1 12.5 1.5t9.5 0.5q20 0 37.5 -3t31.5 -7q2 -1 5.5 -1.5t2.5 -0.5q7 -2 14.5 -3t17.5 -1q15 0 27.5 5t23.5 17.5t20.5 34.5t19.5 56q10 36 12 75t-4.5 77t-20 72.5t-32.5 62.5l-29 40h-1q-4 6 -7 8q-3 5 -6.5 8.5t-6.5 7.5
q35 15 68.5 31.5t61.5 39t49.5 52t33.5 69.5q10 34 6 58.5t-18 43.5l-3 2l-10 18q-10 25 -31.5 42t-48.5 28t-57 17.5t-58 10.5h-104q-5 0 -9 0.5t-8 0.5h-138q-5 0 -9.5 -0.5t-9.5 -0.5h-131q-13 0 -32 -2.5t-38.5 -6t-37 -7t-26.5 -6.5l-8 2l-31 -50q1 -1 4 -2.5t7 -2.5
l25 -34q4 -2 7 -3t8 -3q7 -4 14.5 -7t14.5 -8q2 -14 -1 -28l-185 -645q-1 -4 11 -15l21 -28q3 -4 14.5 -12.5t20.5 -10.5q25 -5 43 -7t35 -2q8 0 17 0.5t20 1.5h5q14 1 31 1.5t41 0.5h24l119 387q34 -1 61.5 -6.5t47.5 -19.5q15 -32 14 -87zM283 9q-12 -1 -21.5 -1.5
t-19.5 -0.5q-14 0 -30.5 2t-42.5 7q-7 1 -17.5 3.5t-9.5 3.5l185 645q7 25 3.5 41.5t-14 27.5t-26 18.5t-32.5 14.5l17 27q0 1 13.5 2t32.5 2.5t39 2.5t33 1h80q17 0 34.5 0.5t35.5 0.5h94q14 0 29.5 -0.5t31.5 -0.5h102q34 -5 71 -14t66 -26.5t43 -46t1 -72.5
q-11 -40 -34.5 -68.5t-54 -49.5t-66 -37t-71.5 -31l-10 -4t-9 -4l-5 -15q41 -8 72 -42.5t49 -82.5t21.5 -103.5t-11.5 -106.5q-16 -56 -31 -74.5t-34 -18.5q-8 0 -16.5 2t-19.5 4q-14 4 -32.5 7t-41.5 3q-7 0 -13.5 -0.5t-13.5 -1.5l9 209q1 52 -11 84.5t-36.5 50.5t-60 24
t-80.5 6l-119 -386h-5q-25 0 -42.5 -0.5t-31.5 -1.5zM498 457q38 3 74 10t66 22.5t52.5 41.5t34.5 68q19 67 -11 105t-101 38q-2 0 -7 -0.5t-10 -0.5h-17zM631 683h5q43 0 69 -17l-1 1q5 -14 5 -31t-6 -37q-16 -54 -52.5 -78t-84.5 -34l56 195q2 0 4.5 0.5t4.5 0.5zM130 21
l-1 1q1 0 1 -1z" />
    <glyph glyph-name="FL0053h" unicode="S" horiz-adv-x="908" 
d="M69 115q-6 -25 11.5 -45t44.5 -34.5t58 -22t54 -7.5h594l13 17l-256 652q-2 3 -3.5 11t-1.5 10t2 6l4 4q18 0 39 1t44 3q25 2 51.5 3.5t53.5 1.5q62 0 114 -14.5t78 -59.5h29q4 15 5 42.5t0 54.5t-3 46.5t-5 19.5h-692l-8 -25l234 -638q-14 -5 -31 -9t-34.5 -7t-32 -4.5
t-23.5 -1.5h-41t-64 -1q-25 0 -52 -0.5t-53 -1t-50 -1t-42 -0.5h-37zM79 45q-18 19 -26 41t0 51h59q24 0 57.5 0.5t68.5 1.5q9 0 18 0.5t18 0.5h35q36 1 64 1h41q12 0 35 2.5t47 8.5l-225 617l16 56h714q3 0 6 -12l25 -32q3 -5 6.5 -30.5t5.5 -57.5t1.5 -63t-5.5 -48h-57
l-17 24q-28 30 -72.5 40.5t-93.5 10.5q-21 0 -42 -1t-41 -3q-5 0 -10.5 -0.5t-10.5 -0.5q-17 -2 -32 -3t-30 -1q0 -1 1 -1l259 -663l-28 -37h-606q-18 0 -41 5t-46.5 14.5t-44 24t-33.5 32.5z" />
    <glyph glyph-name="FL0054h" unicode="T" horiz-adv-x="909" 
d="M294 9l4 -25h6l27 -37h14q2 0 5 -0.5t6 -0.5h12q54 0 112 6.5t109 14.5q18 7 23 14.5t8 17.5v2q16 54 29.5 107.5t26.5 107.5q13 53 26.5 105.5t29.5 106.5l11 41q2 8 5 15t5 14l25 87l20 42q2 0 4 0.5t4 0.5q8 1 19.5 2.5t19.5 2.5h3q2 0 3.5 0.5t3.5 0.5q19 0 46 -3
l36 -3q5 -1 9 -1.5t8 -0.5q10 -1 19.5 -1.5t22.5 -0.5l115 119l11 39l-26 36l2 8h-796q-11 -15 -26 -38t-31 -49.5t-29.5 -55.5t-21.5 -56h8l26 -37q4 0 18 0.5t22 2.5q5 0 13.5 3t19.5 8q4 2 7 2.5t7 2.5l11 4q31 5 72.5 7.5t76.5 3.5zM511 669l-9 12h-5q-5 0 -15 0.5
t-16 0.5q-18 0 -40 -0.5t-44.5 -2t-44.5 -3.5t-39 -5q-4 -1 -11.5 -4t-15.5 -6q-9 -3 -17 -6t-10 -3q-2 -1 -9.5 -2t-12.5 -1q6 18 16.5 39.5t23.5 43t25.5 40.5t22.5 33h760l-5 -17l-101 -106q-6 0 -19 1t-30 3l-46 4t-37 2q-3 0 -5.5 -0.5t-4.5 -0.5q-7 -1 -18 -2.5
t-21.5 -3.5t-18.5 -4l-8 -2l-24 -49l-19 -66q-4 -14 -8.5 -27.5t-8.5 -27.5l-12 -41q-16 -55 -29.5 -107.5t-26.5 -106.5q-13 -53 -26.5 -106t-28.5 -107l-1 -2q-2 -5 -3.5 -8t-8.5 -5q-50 -8 -107 -14.5t-108 -6.5q-5 0 -11.5 0.5t-11.5 0.5h-2l-2 10z" />
    <glyph glyph-name="FL0055h" unicode="U" horiz-adv-x="1130" 
d="M1145 642q4 16 8 44.5t2.5 56t-10.5 47.5t-30 20q-11 0 -40.5 -3.5t-62 -10t-58.5 -16t-30 -22.5q-27 -97 -49 -190q-11 -47 -22.5 -94t-25.5 -95l-13 -44l-10 -34l-10 -34l-32 -110q1 -5 0.5 -9.5t-1.5 -9.5q-3 -11 -11 -17.5t-17.5 -10t-20 -4.5t-18.5 -2
q-3 0 -5.5 -0.5t-4.5 -0.5q-8 -1 -34 -3t-56.5 -3.5t-59.5 -2.5t-42 -1h-47q-8 0 -14.5 0.5t-13.5 0.5q-8 0 -16 0.5t-14 0.5h-12l202 705l-9 9l-239 -40q-2 0 -5.5 -3t-5.5 -5l-2 -9q-2 -9 -2.5 -19t-1.5 -21q-2 -22 -4 -42.5t-9 -46.5l-134 -467q-7 -24 -16.5 -40
t-20 -27.5t-22 -19t-21.5 -13.5q-16 -10 -28.5 -20t-18.5 -29h768l148 -2q10 0 30 7.5t41 19t38 25t20 24.5q2 4 -7.5 7.5t-22.5 8.5q-11 4 -23 8.5t-21 11.5t-13.5 16.5t-0.5 22.5l128 448q11 8 15 16.5t6 18.5zM440 116h3q2 0 4 -0.5t4 -0.5h47q13 0 41.5 1t58.5 2.5
t56 3.5t34 3h8q1 0 2 0.5t2 0.5h5q11 2 21.5 4.5t12.5 7.5v5t-1 8l34 116q1 5 2.5 9t3.5 9l27 94q14 48 25.5 94.5t22.5 93.5q11 48 23 95t26 96q3 12 19 22.5t37.5 18.5t47 14t48.5 10t41.5 6t25.5 2q17 0 28 -10t19 -27l17 -24q10 -15 14 -38t3.5 -47t-3.5 -46.5t-7 -36.5
l-1 -3q-4 -13 -8 -22.5t-14 -19.5l-124 -432q4 -2 9.5 -3.5t11.5 -3.5q17 -5 29 -11.5t11 -19.5l23 -30q2 -4 3 -7t-1 -8q-4 -14 -24.5 -31t-45 -31.5t-48.5 -24t-35 -9.5l-150 2h-784l-26 37h-8q6 22 13 36t15.5 23.5t17.5 16t20 12.5q19 11 37.5 27.5t29.5 55.5l134 467
q5 20 7.5 39t4.5 39l1 3v3l-1 -1q1 8 1.5 18.5t3.5 25.5l4 14q2 5 11 13t17 12l1 2l250 40l26 -20l-2 -4l27 -37z" />
    <glyph glyph-name="FL0059h" unicode="V" horiz-adv-x="1075" 
d="M1252 796q-16 32 -46.5 40.5t-65.5 8.5h-10q-13 0 -31.5 -2.5t-29.5 -17.5l-369 -486l-65 425l-24 34l-1 7l-22 30h-26h-16q-2 0 -4 0.5t-4 0.5h-94q-42 0 -85.5 -1.5t-78.5 -8.5q-24 -8 -31 -19t-10 -22q-2 -9 -2.5 -11t-1.5 -7q1 -11 16 -15l19 -27q3 -5 8 -8t10 -5h3
l2.5 -2t4.5 -3l2 -2q5 -8 8.5 -16.5t7.5 -16.5l-1 1l1 -6v1q0 -4 1 -5t1 -3q2 -3 3 -8l3 -15l21 -102q9 -42 17 -80.5t13 -56.5q2 -15 7 -46t10.5 -71t12 -84.5t12 -84.5t9.5 -72t6 -47q0 -10 4.5 -14.5t10.5 -6.5l21 -30q4 -6 10 -7t14 -1q13 0 32 6t39 14t40 17.5t34 16.5
l1 -1q3 2 7 3.5t6 3.5v-1q2 1 3.5 2t3.5 2q23 22 38 45t27 46q8 15 16.5 29.5t16.5 25.5q121 159 247 306.5t269 287.5l5 18q-1 3 -3 5.5t-3 5.5l-20 27zM712 191q-10 -12 -18.5 -27t-16.5 -31q-12 -23 -25.5 -44t-27.5 -36l1 1l-1 -1q-3 -2 -6.5 -3.5t-8.5 -3.5
q-14 -7 -33 -16t-39 -17.5t-38 -14t-30 -5.5q-6 0 -10 1t-4 8q-2 15 -5.5 46t-9 70.5t-11.5 83t-11.5 82.5t-10.5 70t-8 45q-2 6 -5 20.5t-7 34.5t-8.5 43.5t-9.5 46.5l-17 80q-1 7 -2 12t-3 10q-2 9 -4.5 18t-6.5 20q-8 20 -19 39.5t-25 35.5q-2 1 -6.5 4t-9.5 6t-10.5 5.5
l-5.5 2.5v-1v6t1 3q2 5 4 10.5t10 7.5q39 8 81 10t82 2h71q8 0 15.5 -0.5t15.5 -0.5q11 0 20 -0.5t13 -0.5h1l13 -18l83 -530l416 550q4 7 16.5 8t21.5 1h10q29 0 56 -7t39 -31q-145 -143 -271.5 -291.5t-245.5 -303.5z" />
    <glyph glyph-name="FL0057h" unicode="W" horiz-adv-x="1307" 
d="M987 781l-2 10l-7 9q-2 5 -4.5 8t-10.5 14h-11q-26 0 -42 -14.5t-30 -31.5h1l-4 -3l-323 -378l96 382l-27 37l3 8h-326q-9 0 -19 -4.5t-19.5 -11.5t-16.5 -15.5t-9 -17.5l-2 -6q-1 -4 0 -4l-5 -17q2 -2 8 -2l26 -36q12 -2 22 -5.5t18 -8.5q8 -19 9 -43t-2.5 -50.5
t-10 -54t-13.5 -51.5l-52 -180q-1 -4 -1.5 -8t-1.5 -8l-32 -111q-4 -10 -5 -15l-29 -99q-14 -16 -27.5 -40.5t-23.5 -56.5h8l27 -37q32 0 55 5t45 11q2 1 3 1t3 1t4 1t5 1q17 5 35 9t35 4q4 0 10 -4q10 -7 22 -7q29 0 43 16.5t25 35.5q2 3 4.5 7t7.5 10l81 103h-1
q61 75 126 148t140 139l133 -414q5 -14 8.5 -20t11.5 -8l20 -30q5 -6 11 -7t19 -1q29 0 61 3l64 6q5 1 11 1t11 1q6 1 11 1q6 0 11 1q25 2 50 4.5t47 3.5q19 5 25 16.5t9 22.5l1 4q1 1 0.5 2t0.5 3l5 18l-26 37l2 7q-1 0 -3 0.5t-3 0.5h1q-3 1 -11 3q-4 2 -6.5 3t-4.5 2
q-3 0 -3 1q-14 4 -27 12l5 18q2 4 2 8t2 8l3 15l31 108q1 4 2.5 7.5t2.5 7.5l8 27q2 5 3.5 10t2.5 9l4 12q6 16 20.5 50t32.5 77t38 90.5t38 90.5t33 77.5t23 50.5l1 5q2 1 2 3q4 14 -1 22l-23 30q-1 11 -9 16t-22 5h-14q-8 -2 -18 -3q-4 -1 -8 -1.5t-9 -1.5
q-11 -2 -22 -3.5t-20 -3.5q-15 -2 -27 -4t-13 -2l-34 -20l-128 -448l-117 396zM1428 808q-2 -2 -2 -3v-1q-8 -16 -23 -50.5t-33 -78t-38 -91t-38 -91t-32.5 -77.5t-20.5 -50l-1 -5q-2 -5 -4.5 -12t-5.5 -16l-7 -27q-2 -8 -5 -15t-5 -14l-22 -79q-2 -8 -4 -15t-4 -15
t-3.5 -15.5t-3.5 -13.5l-4 -13q0 -14 6.5 -24.5t16 -18t21 -13t22.5 -9.5q8 -4 13 -5l-2 -6q-1 -2 -0.5 -4t-0.5 -3v-2q-2 -6 -4.5 -12t-10.5 -8h1q-27 -1 -56.5 -4t-59.5 -6q-38 -4 -75 -7.5t-71 -3.5q-12 0 -15 3t-8 17l-137 427v-1q-2 4 -9 13t-12 18q-7 7 -9 11
q-4 1 -6 1q-1 0 -1.5 -0.5t-1.5 -0.5h-3q-83 -74 -153.5 -152t-136.5 -158l-79 -100q-6 -8 -12 -18q-8 -14 -18.5 -26.5t-27.5 -12.5q-5 0 -13 5q-2 2 -6 4t-12 2q-22 0 -43 -5t-43 -11t-42.5 -11t-40.5 -6q5 17 17.5 35.5t24.5 32.5l27 92q4 14 8.5 28.5t8.5 28.5l24 83
q5 16 8.5 32t8.5 31l38 133q11 40 21 84.5t8.5 83.5t-19.5 67t-62 35l1 1q0 5 1 7q2 10 13 18.5t22 8.5h304l-128 -521l33 26l390 457q2 1 2.5 2t2.5 2q11 13 22 23.5t26 10.5h4l14 -19h-1l146 -499l24 13l142 496l14 9q2 0 14 2t27 5q20 4 41 7.5t35 5.5h9q7 0 11.5 -2
t2.5 -10z" />
    <glyph glyph-name="FL0058h" unicode="X" horiz-adv-x="1025" 
d="M39 12l-10 -35q25 4 53.5 10.5t58 16t56.5 22t49 29.5l307 239q5 1 7 1t5 -1t8 -9t7 -12l94 -159q10 -17 22 -32t30 -26q42 -24 102.5 -37t116.5 -13h2l6 8l8 10q2 3 2 5v3l-63 88l-139 327l289 233l48 168q1 2 -4 8t-9 9l-4 1l-4 -1l-365 -292l-106 252q-14 1 -17 1h-9
h-10q-3 0 -6.5 -0.5t-6.5 -0.5h-19q-7 -1 -21 -2t-32 -2.5t-38.5 -3.5t-41.5 -4q-29 -3 -53.5 -5t-35.5 -3l-7 -25q0 -1 2 -1q14 -8 30 -20t22 -29q4 -8 11.5 -24t17 -36t20.5 -43.5t22 -47.5q21 -44 39.5 -82t26.5 -55l13 -32zM20 21l465 390l-3 10q-8 17 -27.5 58.5
t-40.5 86.5q-2 5 -5 10t-5 10q-4 5 -6 11t-4 11q-16 32 -29 59.5t-20 42.5q-2 2 -4 3t-5 3q-2 1 -4.5 2.5t-4.5 3.5q-3 0 -5 2q-5 3 -6 4l-23 31q-3 0 -3 1q-5 2 -6 7l17 59q5 0 17 1t27.5 2.5t32.5 2.5t32 3q8 1 14 1q7 0 15 1l22 2t21 2q14 1 27.5 2.5t23.5 2.5
q3 0 5.5 0.5t4.5 0.5h29q1 0 2 0.5t2 0.5h10h15t24 -1l6 -15h-1l20 -29l80 -192l344 275q7 2 8 2h6q5 0 8 -1q8 -5 16 -17t8 -19l17 -22q3 -7 6.5 -12.5t2.5 -8.5l-50 -175l-283 -228l131 -305l42 -58q-1 -2 -0.5 -3.5t-0.5 -2.5l26 -35q1 -7 1 -8q0 -2 -1 -4l-3 -6t-6 -11
l-5 -6q-1 -2 -3 -4t-16 -15h-10q-29 0 -60.5 3.5t-61.5 10t-57 16t-48 21.5q-13 8 -23 18.5t-20 23.5l-7 11q-22 19 -38 48l-76 132l-294 -229q-24 -19 -55.5 -33.5t-65 -25t-66.5 -17.5t-61 -11l-27 36q-2 0 -3 -0.5t-6 -2.5z" />
    <glyph glyph-name="FL0056h" unicode="Y" horiz-adv-x="1015" 
d="M385 -62q5 -6 12.5 -8t15.5 -2q2 0 3.5 0.5t3.5 0.5h5q57 0 119.5 11t110.5 22l28 98q2 6 3 12t3 13l14 47q5 15 9 30t9 29l23 80q10 31 27 68t40 74t51 71.5t60 61t67 42.5t73 16q8 0 16 -2t17 -4l20 -4t24 -2q12 0 25.5 7t18.5 25l2 7v23v35t0.5 33t0.5 20q0 14 -9 26
l-3 3l-15 23v-1q-3 15 -13.5 24t-25 13.5t-30.5 5.5t-31 1h-10q-45 0 -86 -16t-77 -42t-68 -61t-60 -72q-11 -14 -23 -33.5t-24 -40.5q2 47 -4.5 87t-26.5 72l-13 16q-18 42 -59.5 66t-120.5 24q-17 0 -42.5 -5.5t-54 -15.5t-58.5 -24t-55 -31t-43 -37t-24 -41q-2 -5 -2 -6
v-4q0 -5 6 -12.5t11 -9.5l20 -27q5 -7 10 -10l4 -1h6q8 1 15.5 1.5t15.5 0.5q45 0 75.5 -10t51.5 -28q18 -32 25.5 -73.5t9.5 -93.5q0 -4 -2.5 -19.5t-5 -32.5t-5 -31t-3.5 -16l-90 -315q-4 -12 0 -18.5t12 -9.5zM238 672q-2 1 -4 3.5t-2 4.5v3q7 27 38.5 51t70.5 42.5
t78 29t62 10.5q73 0 112 -23.5t55 -63.5t15 -93.5t-8 -112.5l-5 -52h23q5 0 13.5 16t22.5 39q17 29 35 61.5t32 50.5q25 35 55 67t63.5 57t70.5 39.5t78 14.5h10q13 0 28 -1t28 -4.5t21 -11.5t8 -22q0 -5 -0.5 -20t-0.5 -33v-33v-23l-2 -4q-2 -8 -7.5 -10.5t-11.5 -2.5
q-10 0 -19 2t-19 4q-9 2 -18.5 4t-20.5 2q-41 0 -79 -17t-72.5 -45t-65 -64.5t-55 -75.5t-43 -78t-28.5 -72l-10 -37q-6 -21 -14.5 -47t-16.5 -55l-13 -47q-4 -13 -7 -25.5t-6 -23.5l-17 -58q-22 -5 -48.5 -10t-54 -9.5t-55 -7.5t-51.5 -3h-2q-2 0 -4.5 -0.5t-5.5 -0.5
q-7 0 -13 1.5t-4 7.5l90 315q1 2 3.5 17l5.5 33t5.5 34t2.5 20q0 58 -9 105.5t-32.5 81.5t-63.5 53t-102 19q-9 0 -18 -0.5t-18 -1.5z" />
    <glyph glyph-name="FL005Ah" unicode="Z" horiz-adv-x="908" 
d="M19 24l6 -40h6l27 -37h605q25 0 65.5 10t80.5 29t72.5 46t41.5 60l-27 37l1 2q0 1 1 3t1 3h-58q-25 0 -57.5 0.5t-67.5 1.5q-9 0 -18 0.5t-18 0.5h-35q-36 1 -64 1h-41q-5 0 -10.5 -0.5t-12.5 1.5l550 571l14 49l-26 36l2 8h-714q-4 0 -23 -25.5t-41 -60t-42 -68.5
t-25 -52h8l25 -37h55q51 46 109.5 60.5t117.5 14.5q20 0 39 -1t39 -3q4 0 7.5 -0.5t7.5 -0.5zM670 656q4 3 9.5 11t7.5 10q1 2 1 6q0 1 -0.5 1.5t-1.5 2.5q-18 0 -38 1t-42 3q-24 2 -49.5 3.5t-52.5 1.5q-63 0 -123 -14.5t-112 -59.5h-29q5 15 20 42.5t31 54.5t29.5 46.5
t16.5 19.5h693l-8 -27l-596 -617q10 -5 25 -9t30.5 -7t29.5 -4.5t23 -1.5h41t64 -1q50 -1 104 -2t92 -1h35q-9 -25 -37 -45t-63.5 -34.5t-71 -22t-57.5 -7.5h-594l-4 17z" />
    <glyph glyph-name="FL005Bh" unicode="[" horiz-adv-x="826" 
d="M78 16q19 -26 44 -44t51 -29q36 3 66 5t58 3.5t54.5 2t55.5 0.5h81q38 0 73.5 -2t71.5 -4q37 -2 81.5 -4t82.5 -2l17 58q6 22 12.5 49t10.5 52.5t3 47t-10 33.5l-18 24q-6 30 -31 30q-29 0 -52 -22t-48 -51q-17 -22 -35.5 -39.5t-33.5 -17.5h-10h-2q0 1 -1 1h-9l-52.5 5
t-57.5 7v1q-3 0 -5 0.5t-4 0.5l135 473q1 2 2 4.5t2 4.5q1 3 1 9l14 47q4 0 9 1h-1q12 2 25 3q15 2 33.5 4t37 4.5t36 4t29.5 2.5h7q2 0 5 0.5t5 0.5h6l6 -19q2 -4 2 -7q5 -20 11.5 -36.5t20.5 -25.5v1l19 -25q11 -18 33 -18q21 0 39 20t33 49.5t26.5 63.5t19.5 61l16 56
l-27 36l3 8q-18 0 -40 -0.5t-44.5 -1.5l-45 -2t-41.5 -2q-38 -2 -74.5 -4t-73.5 -2h-82q-57 0 -109 2.5t-120 8.5q-38 -13 -81.5 -35.5t-81.5 -60.5q3 -19 9 -29t14 -16v1l18 -25q6 -10 14.5 -14.5t18.5 -7.5q-3 -11 -4 -19.5t4 -17.5l-126 -440q-8 -26 -23 -33.5t-32 -11.5
q-20 -5 -42 -15t-45 -41q8 -14 17 -26t20 -23zM324 660h9q1 26 -12 35t-29 15q-14 5 -27 11t-16 23q29 27 66.5 45.5t72.5 31.5q34 -3 63 -5t55.5 -3.5t52.5 -2t53 -0.5h82q37 0 74 2t75 4t75 4t73 2l-11 -39q-8 -25 -18 -55.5t-22 -57t-25.5 -44.5t-27.5 -18
q-20 0 -27.5 19t-13.5 42q-3 13 -7 25t-10 22t-14.5 16t-20.5 6q-2 0 -6.5 -0.5t-8.5 -0.5h-9q-16 -1 -38.5 -3.5t-46 -5.5t-44.5 -6t-33 -4q-5 -1 -7 -1h-6l-16 -12l-13 -46q-1 -4 -1.5 -7.5t-2.5 -8.5q-1 -5 -2.5 -9t-3.5 -9l-145 -508l8 -12q12 -2 17 -2.5t21 -2.5
q14 -2 31 -4t34 -4.5t33 -4t28 -2.5h9q4 0 8 -0.5t6 -0.5q25 0 47.5 22t44.5 48q20 23 38.5 42t38.5 19q14 0 17 -18t-0.5 -44.5t-11 -57t-14.5 -55.5l-11 -39q-36 0 -72 2l-72 4l-72 4t-73 2h-82q-27 0 -53.5 -0.5t-54 -2t-57.5 -3.5t-65 -5q-28 12 -55 30.5t-41 44.5
q14 17 29.5 23.5t32.5 11.5q12 3 23 6.5t21 10.5t18.5 18.5t13.5 30.5l129 448q-7 8 -5.5 16t3.5 18h1z" />
    <glyph glyph-name="FL005Ch" unicode="\" horiz-adv-x="653" 
d="M283 778q-5 -2 -9.5 -4t-8.5 -4h1l-10 -5l120 -804q1 -1 3 -1q12 0 41 6.5t62 15.5t62.5 17.5t42.5 13.5l-128 828l-142 -48zM311 813l169 56l1 -14l24 -33l131 -859q-7 -3 -25 -8.5t-41 -12.5t-48.5 -14t-49 -13t-42.5 -9.5t-28 -3.5q-12 0 -17 9l-21 29q-6 2 -10 10
l-122 826l23 13q9 3 14.5 5t10.5 5l21 9z" />
    <glyph glyph-name="FL005Dh" unicode="]" horiz-adv-x="826" 
d="M827 626q11 8 14.5 16t5.5 18h-2h-8q14 27 32.5 36t38.5 14q15 5 31.5 11t28.5 23q-12 27 -39 45.5t-55 31.5q-71 -6 -123.5 -8.5t-106.5 -2.5h-81q-38 0 -74.5 2t-72.5 4t-71.5 4t-71.5 2l-11 -39q-8 -25 -15.5 -55.5t-10.5 -57t0 -44.5t17 -18q20 0 38.5 19t38.5 42
q21 26 44 47.5t48 21.5q2 0 5.5 -0.5t7.5 -0.5h9q15 -1 36.5 -3.5t43.5 -5.5t41.5 -6t30.5 -4q5 -1 6 -1h7l8 -12l-13 -47q-2 -4 -3 -7.5t-3 -7.5q-1 -5 -2 -9t-2 -9l-145 -508l-16 -12q-12 -2 -17.5 -2.5t-22.5 -2.5q-15 -2 -33.5 -4t-37 -4.5t-36 -4t-29.5 -2.5h-9
q-4 0 -8 -0.5t-6 -0.5q-25 0 -35.5 22t-16.5 48q-6 23 -13.5 42t-27.5 19q-14 0 -27.5 -18t-25.5 -44.5t-22.5 -57t-17.5 -55.5l-11 -39q36 0 72.5 2t74.5 4t75.5 4t75.5 2h81q27 0 53 -0.5t53 -2t56 -3.5t63 -5h-1q34 12 71.5 30.5t65.5 44.5q-5 17 -16.5 23.5t-25.5 11.5
q-10 3 -19 7t-15 11t-7 18.5t4 29.5zM236 588q-16 6 -20.5 27.5t-1.5 50t10.5 60t15.5 57.5l17 60q38 0 83.5 -2t82.5 -4l72 -4t74 -2h81q57 0 110.5 2.5t124.5 8.5q31 -13 61 -36t49 -61l-2 -1l13 -17q4 -5 7.5 -11t6.5 -11q-21 -29 -42.5 -38t-41.5 -14q-11 -3 -20 -6.5
t-16 -9.5l-5 -16q-4 -13 -8 -22.5t-15 -19.5l-128 -445q1 -1 4 -1q16 -5 30.5 -14t22.5 -34h-1l16 -19l1 -1q7 -11 12 -27q-38 -35 -81 -58t-81 -37q-68 6 -120 8.5t-108 2.5h-82q-37 0 -74.5 -2t-75.5 -4t-82.5 -4t-81.5 -2l-26 37h-8l17 61q8 28 20 62t27 64t33.5 50
t40.5 20q20 0 31 -11t16 -28h-1l16 -21q8 -11 12.5 -25t8.5 -29v-7q0 -3 1 -8q3 -1 9 -1h9q1 0 2.5 0.5t3.5 0.5h9q22 2 56 5.5t63 7.5q1 0 2.5 0.5t3.5 0.5t4 1q5 1 9 1h8q6 1 10 1.5t9 1.5l143 497q0 5 1 10t3 10q2 7 3 12t3 9h-1q0 1 -2 1q-28 4 -59 7.5t-53 5.5h-9
q-2 0 -4 0.5t-4 0.5h-5q-18 0 -36.5 -18t-35.5 -40q-24 -28 -46.5 -50t-50.5 -22q-8 0 -12.5 3t-9.5 9z" />
    <glyph glyph-name="FL005Eh" unicode="^" horiz-adv-x="521" 
d="M404 818q-20 0 -28 -10t-11 -21q-14 -13 -33.5 -34.5t-41 -47.5t-42.5 -52.5t-37.5 -48.5l-27 -36l-10.5 -14l-11 -39h8l25 -36q9 0 19.5 -0.5t21.5 -0.5h64q3 0 5.5 -0.5t4.5 -0.5h33q3 0 8 0.5t15 2.5q1 2 8.5 13t14.5 22q9 16 21.5 36t26.5 40q1 -9 2 -17l2 -16
q1 -12 1.5 -23.5t0.5 -13.5q3 -3 6 -3v-1l27 -34q9 -2 13 -2.5t8 -0.5h34q2 0 4.5 0.5t5.5 0.5h64q11 0 22.5 0.5t20.5 0.5l11 36q0 1 -5 32t-13.5 71.5t-19.5 79t-22 54.5l1 -1q-2 8 -4 12l-21 28q-1 8 -3.5 13t-10.5 7l1 -1q-2 2 -4 3t-6 1zM546 795l1 -2q5 -1 5 -9
q7 -8 14.5 -27.5t14 -44.5t12.5 -52.5t10 -50t6.5 -37.5l2.5 -15l-5 -17q-16 0 -29.5 -0.5t-24.5 -0.5h-34q-5 0 -9.5 -0.5t-7.5 -0.5h-29h-8q0 3 -0.5 10t-1.5 18q-1 16 -2 36t-3.5 39.5t-5.5 35.5t-7 23q-9 -7 -22 -24t-27 -37.5t-27.5 -41.5t-23.5 -37q-7 -9 -11 -15.5
t-7 -9.5h-8h-27q-3 0 -6 0.5t-8 0.5h-35q-11 0 -25 0.5t-28 0.5l5 17l11 15t28 37.5t38.5 49.5t42.5 52t40 45t30 28l4 10t8 5z" />
    <glyph glyph-name="FL005Fh" unicode="_" horiz-adv-x="501" 
d="M-1 -24q3 -3 11.5 -5t12.5 -3q4 1 10.5 5.5t14 9.5t14 10.5t9.5 8.5l346 1q-1 0 3 5t8 9v-1q11 14 19 23.5t15 17.5q15 16 24.5 30.5t18.5 45.5q3 10 -3.5 13t-14.5 3h-5l-34 -20q-5 -2 -13.5 -6t-10.5 -4l-335 -1q1 0 -3.5 -6t-8.5 -11q-5 -11 -12.5 -20.5t-15.5 -19.5
q-15 -20 -29 -40.5t-20 -42.5zM-22 -22q8 27 22 49t31 42q9 12 17 22.5t13 18.5t14 19t20 11l333 1q8 4 9.5 4.5t2.5 1.5h1l41 23h11q13 0 23 -5t12 -18l20 -29h1l2 -3l2 -3h-1q3 -7 0 -18q-5 -18 -10 -30.5t-11 -22t-12.5 -17.5t-15.5 -17h-1q-13 -15 -28 -35q-2 -2 -2 -3
q-5 -6 -15 -15t-17 -9l-337 -1l-13.5 -9t-15.5 -10t-15 -9.5t-11 -5.5q-2 0 -7.5 1.5t-12 4t-12.5 6t-8 7.5l-23 30l-7 6l-3 3z" />
    <glyph glyph-name="FL0060h" unicode="`" horiz-adv-x="371" 
d="M261 812q-11 0 -18.5 -4t-12 -10t-7 -12.5t-3.5 -11.5q-6 -21 10 -52.5t37 -61.5q12 -18 22 -37t12 -33q1 0 2 -0.5t2 -0.5h2l26 -35q30 -3 49 -3.5t38 -0.5h64q10 0 21.5 0.5t20.5 0.5l11 37q0 1 -8.5 21t-21 46.5t-26.5 53t-24 41.5l-4 6q-1 0 -1 2h-1l-2 4h-1l-9 12
q1 -2 0 -1t-2.5 4t-3 6.5t-2.5 5.5l-4 6l1 1q-3 5 -7 10t-12 5zM403 790l3 -5q1 -1 1 -2t1 -2q9 -11 23.5 -36t27.5 -51t22 -46t9 -21l-5 -18q-16 0 -29.5 -0.5t-24.5 -0.5h-35q-18 0 -35.5 0.5t-38.5 2.5q-3 11 -13 27.5t-22 36.5q-9 14 -18 28.5t-16 27.5t-10 24t-1 19
q2 5 4.5 11t8.5 6z" />
    <glyph glyph-name="a" unicode="a" horiz-adv-x="1075" 
d="M564 628q-121 -157 -247 -305t-272 -290q13 -24 40.5 -31t56.5 -7h9q9 0 21.5 1.5t17.5 7.5l416 549l83 -529l13 -18h1q4 0 12.5 -0.5t19.5 -0.5q8 0 16 -0.5t16 -0.5h71q39 0 81 2t82 10q7 2 9.5 7.5t4.5 10.5q0 2 0.5 3t0.5 4q-2 2 -12 7q-8 4 -15 6.5t-8 6.5
q-17 17 -31 46t-19 54q-3 11 -8 32.5t-10.5 48t-11.5 54.5t-11 52.5t-9 43.5t-5 27q-3 15 -7.5 46t-10 70t-11.5 82.5t-11 83t-9 70.5t-6 46q0 7 -4 8t-10 1q-12 0 -30 -6t-38 -14t-39 -17t-33 -16q-5 -2 -8.5 -4t-7.5 -4q-14 -15 -27 -36.5t-26 -43.5q-8 -14 -16 -29
t-18 -28zM29 43q143 140 269 287.5t248 306.5q6 9 12 19t12 21v-1q0 1 1 2t1 2q1 3 2 5v-1q1 2 2 3.5t2 3.5q12 22 26.5 45t40.5 48q4 1 5 2q-1 -1 2.5 0.5t6.5 3.5q7 5 14 8q15 7 34 16t38 16t37 12t31 5q11 0 19.5 -2.5t10.5 -16.5h2l-1 -4l20 -27q0 -3 1.5 -5.5t1.5 -5.5
h1q2 -15 6 -46.5t9 -70.5t11.5 -82.5t12 -83t10 -70.5t7.5 -46q2 -11 9.5 -46.5t16 -76.5t16.5 -79.5t13 -55.5q2 -11 4.5 -20.5t6.5 -19.5q5 -9 11 -13l17 -7q5 -2 11 -7t8 -8q0 -1 1 -1h2v-3t-1 -3v-1l26 -36q-2 -9 -2 -11t-1 -5q-2 -10 -8.5 -20t-29.5 -18
q-35 -8 -78 -9.5t-85 -1.5h-87q-4 0 -7 0.5t-8 0.5q-8 0 -14 0.5t-11 0.5h-16l-27 37h-4l-21 30l-68 423l-367 -485v1q-11 -11 -28.5 -14t-28.5 -3h-9q-31 0 -59 7t-44 30l-15 21v-1q-7 5 -12.5 12t-10.5 18z" />
    <glyph glyph-name="b" unicode="b" horiz-adv-x="905" 
d="M226 756q1 -1 4 -2.5t7 -2.5l25 -34q4 -2 7 -3t8 -3q7 -4 14.5 -7t14.5 -8q2 -14 -1 -28l-185 -645q-2 -6 12 -15l20 -28q2 -3 13.5 -11.5t19.5 -10.5l1 -1q35 -8 66 -10t66 -2h24q6 0 12 0.5t13 0.5h54q44 0 96 3.5t105.5 13t106 28t97.5 48.5t79 74t51 104q12 42 8 72
t-19 52l-13 18q-20 48 -81 71q30 14 57.5 30.5t51 37.5t41 47t27.5 61q10 34 6 58.5t-18 43.5l-2 2l-11 18q-10 25 -31.5 42t-48.5 28t-57 17.5t-58 10.5h-104q-5 0 -9 0.5t-8 0.5h-138q-5 0 -9.5 -0.5t-9.5 -0.5h-131q-13 0 -32 -2.5t-38.5 -6t-37 -7t-26.5 -6.5l-8 3z
M275 797q0 1 13.5 2t32.5 2.5t39 2.5t33 1h80q17 0 34.5 0.5t35.5 0.5h94q14 0 29.5 -0.5t31.5 -0.5h102q34 -5 71 -14t66 -26.5t43 -46t1 -72.5q-11 -40 -34.5 -68.5t-54 -49.5t-66 -37t-71.5 -31l-10 -4t-9 -4l-5 -15q41 -8 79.5 -18.5t65 -30t37 -51t-4.5 -81.5
q-16 -56 -48.5 -96t-75 -68t-92.5 -45t-101.5 -26.5t-101.5 -12.5t-92 -3h-53q-13 0 -25 -0.5t-24 -0.5q-32 0 -61 2t-65 10q-7 1 -17.5 3.5t-9.5 3.5l185 645q7 25 3.5 41.5t-14 27.5t-26 18.5t-32.5 14.5zM403 122q-5 -17 4 -27.5t24 -16t31.5 -7.5t27.5 -2q33 0 62 13.5
t51.5 36t39 51.5t25.5 61q16 54 5.5 87t-38.5 50.5t-68.5 23t-84.5 5.5zM499 457q38 3 73.5 10t65.5 22.5t52.5 41.5t34.5 68q19 67 -11 105t-101 38q-2 0 -7 -0.5t-10 -0.5h-16zM646 231q-8 -27 -21.5 -52t-33 -45t-43.5 -32t-52 -12q-8 0 -20 1t-23 3l70 245
q36 -1 68 -6.5t55 -20.5q14 -31 0 -81zM631 683h5q42 0 70 -17l-2 1q5 -14 5 -31t-6 -37q-16 -54 -52.5 -78t-84.5 -34l56 195q2 0 4.5 0.5t4.5 0.5zM130 21l-1 1q1 0 1 -1z" />
    <glyph glyph-name="c" unicode="c" horiz-adv-x="826" 
d="M158 159q-4 -14 -7.5 -37t-3.5 -48q0 -24 5.5 -46.5t19.5 -34.5l23 -33q7 -8 15 -13t25 -5l-16 23l19.5 2.5t48.5 6.5t63.5 9.5t64 12t50 13.5t22.5 13l1 3l-10 137l147 497q4 0 9 1h-1q12 2 25 3q15 2 33.5 4t37 4.5t36 4t29.5 2.5h7q2 0 5 0.5t5 0.5h6l6 -19q2 -4 2 -7
q5 -20 11.5 -36.5t20.5 -25.5v1l19 -25q11 -18 33 -18q21 0 39 20t33 49.5t26.5 63.5t19.5 61l16 56l-27 36l3 8q-18 0 -40 -0.5t-44.5 -1.5l-45 -2t-41.5 -2q-38 -2 -74.5 -4t-73.5 -2h-82q-57 0 -109 2.5t-120 8.5q-37 -13 -80.5 -36.5t-83.5 -60.5q3 -18 9.5 -28.5
t16.5 -16.5l-1 1l16 -23q8 -11 19 -15.5t22 -8.5l0.5 -0.5t1.5 -0.5v-1q0 -5 -1 -7l-127 -441q-11 -11 -15 -21t-8 -21v-3zM180 159v3q3 10 6.5 18.5t14.5 16.5l129 448q5 18 3.5 29.5t-7.5 18.5t-15 10.5t-19 6.5q-14 5 -26 11.5t-17 22.5q29 27 66.5 45.5t72.5 31.5
q34 -3 63 -5t55.5 -3.5t52.5 -2t53 -0.5h82q37 0 74 2t75 4t75 4t73 2l-11 -39q-8 -25 -18 -55.5t-22 -57t-25.5 -44.5t-27.5 -18q-20 0 -27.5 19t-13.5 42q-3 13 -7 25t-10 22t-14.5 16t-20.5 6q-2 0 -6.5 -0.5t-8.5 -0.5h-9q-16 -1 -38.5 -3.5t-46 -5.5t-44.5 -6t-33 -4
q-5 -1 -7 -1h-6l-16 -12l-149 -506l11 -137q-2 -5 -15.5 -11t-33.5 -12q-15 -4 -31.5 -7.5t-33.5 -7.5q10 2 15 2q-24 -5 -47.5 -9.5t-43 -8t-31.5 -5.5l-12 -2q-4 0 -8 2q-1 0 -1 -1h-1l-2 1q-15 6 -21 26t-6 44q0 25 3.5 48.5t7.5 37.5zM196 3l-6 9l11.5 0.5t31 2t44 4
t50.5 5.5q-41 -8 -77.5 -13.5t-49.5 -7.5h-4z" />
    <glyph glyph-name="d" unicode="d" horiz-adv-x="1044" 
d="M18 13q-2 -6 4.5 -16t12.5 -12l20 -28q7 -10 13 -10h770l215 94l-50 140l-1 -1l-126 595l-6 7h2l-4 4l-15 22l-2 8l-7 8q-3 5 -5 8t-10 14h-21q-15 -3 -37.5 -8.5t-46.5 -13.5t-46 -19t-36 -24q-7 -5 -15 -17.5t-15 -24.5q0 -1 -1 -2t-1 -2l-1 -1q-4 -5 -5 -7t-3 -8
q-32 -47 -74.5 -101.5t-80.5 -100.5l-9 -12q-3 -3 -5 -7l-4 -4t-4 -5l-83 -97q-5 -5 -9.5 -10.5t-9.5 -10.5l1 1q-23 -26 -48 -55.5t-50 -58.5v1q-1 -2 -4 -5l-50 -58t-47.5 -55.5t-41 -48t-29.5 -34.5q-5 -5 -9 -9.5t-6 -7.5q-7 -8 -13.5 -17.5t-6.5 -10.5zM40 13l5.5 7
t9.5 11q7 8 23.5 27t39.5 46t51.5 59.5t58.5 67.5q35 41 70 81.5t64 74.5t50 58.5t29 33.5l12 14t12 15q35 44 77 97t75 102l11 20q8 12 15 25t9 14q12 11 32 20.5t42.5 17t44 12.5t36.5 8h8l13 -17l128 -601l41 -118l-188 -82h-764q-2 0 -4 2.5t-1 4.5zM293 153l-1 -2
q-1 -3 2 -7t6 -5l12 -3t17 -3.5t17.5 -2.5t11.5 -1h309l47 11l-91 422h-14zM617 469l67 -314l-18 -4h-296z" />
    <glyph glyph-name="e" unicode="e" horiz-adv-x="825" 
d="M119 189q-11 -16 -27 -42t-31 -51t-26.5 -43.5t-11.5 -19.5l-14 -49h8l27 -37h659q7 0 21 14.5t31 36t34.5 47t32.5 48.5t25 39.5t11 19.5q5 19 -1 28l-23 30q-2 8 -7.5 14t-17.5 6h-6q-2 0 -10.5 -1t-18.5 -2.5t-20 -3.5t-16 -3h-472q10 5 24 18.5t23 21.5h400
q8 0 16.5 9t13.5 15q35 48 64 92.5t43 94.5q3 10 1 19h1l-3 3l-2 3h-1l-21 28q0 6 0.5 18.5t-4.5 15.5q11 0 20.5 0.5t17.5 0.5h28q41 43 77 100t52 113l-26 36l2 8h-60q-16 0 -45.5 -0.5t-67 -1.5t-81 -1.5t-88.5 -1.5q-6 0 -12 -0.5t-12 -0.5h-23q-40 -1 -78 -1t-70 -1
t-57.5 -1.5t-39.5 -0.5q-10 -4 -19.5 -13t-17.5 -19t-14.5 -20t-9.5 -16q-7 -11 -18.5 -29.5t-23.5 -38t-22.5 -36t-13.5 -22.5l-2 -8q-5 -16 -1 -23t12 -9l30 -12q4 -6 12 -7t16 -1h27q16 0 45 0.5t67.5 1t82.5 1.5t90 2h26q39 1 78 1t73 1l-37 -35h-1q-1 -1 -2.5 -1.5
t-8.5 -4.5h-395q-11 0 -21.5 -11t-15.5 -20l-1 -2l-27.5 -45t-33 -55.5t-29.5 -55.5t-18 -44l-3 -11q1 -4 8 -9l1 -1l23 -30q2 -5 9 -8.5t14 -5.5h-82q-11 0 -21 -11t-15 -20zM736 199q3 1 12 2.5t19 3t19 3t11 1.5h6q7 0 8 -5t-1 -12q-1 -3 -9 -18t-20.5 -35.5t-28 -44
t-29.5 -43t-25.5 -32.5t-17.5 -13h-642l7 27q0 1 10.5 18t25 41t30 48.5t26.5 40.5q4 5 8.5 11.5t3.5 6.5h587zM312 725q2 0 3 4q2 4 7 12t11.5 17t13 16.5t11.5 10.5q16 0 46 0.5t68 1.5t82.5 1.5t89.5 1.5t88.5 1.5t81 1.5t67 1.5t45.5 0.5h38q-7 -23 -19.5 -49.5
t-28 -52.5t-33 -49.5t-34.5 -41.5q-16 0 -45.5 -0.5t-67 -1.5t-81.5 -1.5t-89 -1.5q-46 -1 -90 -2t-82 -1.5t-67 -1t-45 -0.5h-27q-7 0 -12.5 1.5t-3.5 10.5l1 4q3 6 12.5 21.5t21 34t22 35.5t16.5 26zM207 285q4 16 16.5 40.5t28 51.5t30.5 52.5t26 42.5q2 2 2.5 3.5
t1.5 3.5q4 5 9 11.5t4 6.5h397q2 0 11 4t12 6l34 19h5q8 0 14.5 -3t3.5 -13q-14 -47 -43 -95t-62 -93l1 1q-4 -4 -7.5 -9t-2.5 -5h-409q-3 -3 -10 -8.5t-14.5 -11t-14.5 -10t-10 -5.5q-3 0 -12 2.5t-12 5.5z" />
    <glyph glyph-name="FL0066h" unicode="f" horiz-adv-x="795" 
d="M217 704q2 -3 5 -3l1 -0.5t2 -0.5l26 -34q3 -2 8 -2.5t10 -2.5q8 -2 15.5 -4.5t14.5 -4.5q0 -3 -0.5 -6.5t-0.5 -5.5l-190 -660h8l27 -37l270 4l99 349l220 29h3q3 1 13.5 5.5t16.5 7.5q14 8 34 24t34 27q10 9 12 11t5 4l14 50l-25 37l2 8h-271l45 155l6 5l-2 2
q4 -1 15 -0.5t26.5 2t34 3.5t36.5 4q12 1 22.5 1.5t18.5 1.5h25q2 0 3.5 0.5t3.5 0.5h10h7t10 -1l50 -69l3 2l27 -38l46 36l55 190l-27 36l2 8q-66 0 -138.5 -2t-135.5 -4l-126 -4t-130 -2h-46q-24 0 -47 1q-7 -4 -30 -14q-14 -8 -29 -16t-27 -15q-5 -2 -7.5 -4t-5.5 -4
q-21 -13 -29 -20.5t-13 -24.5l-2 -6q-1 -4 0 -4zM244 722q1 2 0.5 3.5t0.5 3.5q3 10 8.5 15t19.5 13q2 1 10.5 6t20 11t24 12.5t23.5 11.5h-1q2 1 6 3.5t8 4.5q23 -1 44 -1h43q67 0 130 2l126 4t125 4t127 2l-47 -166l-22 -17l-70 98q-15 1 -19 1h-10h-9q-3 0 -6.5 -0.5
t-6.5 -0.5h-19q-18 -2 -45.5 -5t-54 -6t-46 -6t-21.5 -4l-14 -11l-64 -223h308l-8 -26q-4 -3 -10 -9q-14 -11 -34 -27t-32 -23q-2 -2 -10 -5.5t-10 -3.5l-239 -29l-99 -348l-234 -4l183 638q6 23 1.5 37t-16.5 22.5t-28.5 13t-32.5 8.5v1zM589 700l2 -1l-2 -2v3z" />
    <glyph glyph-name="FL0067h" unicode="g" horiz-adv-x="886" 
d="M705 375q1 -2 3 -2l1 -1l27 -34q2 -1 3 -1t2 -1q2 -1 5 -1.5t5 -2.5q0 -4 -2 -10l-40 -144q-9 -1 -18.5 -0.5t-20.5 -0.5q-7 0 -14 -0.5t-14 -0.5q-2 0 -2.5 -0.5t-2.5 -0.5h-5h-15t-15 -1q-26 -2 -51.5 -3t-50.5 -1h-31q38 46 57 76t34 56h-1q0 3 2 5q4 6 6 10q0 1 4 7
q2 4 4.5 8.5t5.5 10.5q3 3 3 6q7 13 11 24q1 3 0.5 5t-0.5 4l-6 8h18q2 7 -3.5 33t-15.5 59.5t-22.5 69.5t-25.5 64q18 2 39 3.5t27 1.5q12 1 46.5 2t77.5 2t86 1.5t72 0.5h42q12 9 30.5 25.5t37.5 35.5t36.5 37.5t27.5 31.5l6 12v8q0 2 -1.5 5t-3.5 6l-21 28l1 2
q-1 5 -8 13t-13 10q-6 -1 -21 -3t-31 -3.5t-30.5 -2.5t-20.5 -1h-422q-5 0 -8.5 0.5t-7.5 0.5h-60q-2 0 -3.5 0.5t-3.5 0.5h-6l-10.5 -7t-15 -11t-14 -11t-8.5 -7q-7 -6 -17 -14.5t-20.5 -17.5t-21 -17.5t-19.5 -15.5q-17 -14 -28 -23t-13 -15l-7 -25l126 -263l-221 -244
l-19 -15q-6 -7 -20 -23t-29.5 -34t-28.5 -34.5t-18 -22.5q0 -2 -2 -4l-2 -7q-1 -4 -1 -6v-7l6 -9q3 -5 5 -6.5t7 -4.5l19 -27q2 -5 3.5 -6t8.5 -5l595 -4h18q17 0 35 1.5t32 6.5q23 4 45.5 10.5t40.5 14t30 15.5t14 16l113 407l-27 37l3 8h-33q-2 0 -3.5 -0.5t-3.5 -0.5h-49
q-17 0 -37.5 -2t-40.5 -4q-2 0 -4 -0.5t-4 -0.5h-7q-8 -1 -16.5 -1.5t-16.5 -1.5h-3q1 0 1 1q-27 0 -37 -15.5t-14 -29.5q-1 -2 -2.5 -10t-0.5 -11zM721 408q2 8 6.5 15.5t13.5 7.5q2 0 2.5 -0.5t2.5 -0.5q8 1 17 1.5t17 1.5q23 2 47.5 4.5t44.5 2.5h35q5 0 10 0.5t10 0.5
h11l-107 -390q-1 -4 -11 -8.5t-25.5 -9.5t-35.5 -10t-41 -9q-11 -5 -27 -6.5t-33 -1.5h-17l-594 4l-1 1.5t-2 3.5l-2 3v4l1 2q0 1 2 3l-1 -1q5 6 17.5 22t27 33t27 32.5t17.5 20.5l26 20l229 252l-131 268l6 20l29 23q19 15 42.5 34t37.5 32q1 1 6 5t10.5 8.5l11 9t8.5 6.5
q5 0 8.5 -0.5t6.5 -0.5h28q8 0 17 -0.5t23 -0.5h422q6 0 20 1t29.5 2.5t30.5 3t22 2.5q3 -2 6 -7v-4l-2 -4q-10 -12 -25.5 -29t-33 -34.5t-34 -32.5t-28.5 -23h-34q-29 0 -72 -0.5t-86 -1.5t-77.5 -2t-46.5 -2q-4 0 -18.5 -1t-31.5 -2.5t-31.5 -3.5t-18.5 -3
q14 -24 28.5 -61t26.5 -73.5t18.5 -65.5t4.5 -36h2q-5 -7 -12.5 -20t-14.5 -26q-5 -9 -8 -15t-5 -9q-3 -5 -5.5 -10t-5.5 -10q-8 -15 -17 -30.5t-23.5 -36t-37 -48t-56.5 -65.5q20 -9 50.5 -12t65.5 -3q32 0 66.5 1.5t67.5 3.5q28 2 53.5 3t45.5 1l45 165q6 19 3.5 31
t-10 20t-19.5 13t-27 9q0 3 1 7t2 6z" />
    <glyph glyph-name="h" unicode="h" horiz-adv-x="1077" 
d="M121 14l12 -17q51 12 108.5 24t110.5 15l11 8l90 316l399 34l-112 -391q-1 -2 7 -4.5t13 -2.5q1 0 6 1t11.5 2.5t13 3.5t10.5 3q8 2 26.5 8t41.5 13q29 9 57 17t39 12q9 4 23.5 20t29 35.5t25.5 38.5t14 29l1 3q0 1 -3.5 5t-7.5 9q-10 10 -10 15q-2 3 -1.5 10.5t1.5 15.5
t2 14.5t2 9.5l10 35q3 12 6.5 25t7.5 27l25 87q12 44 26 86.5t29 87.5q14 44 28.5 87t27.5 88q3 10 -3.5 16t-15.5 6q-2 0 -4 -0.5t-4 -0.5h-2q-11 -2 -38.5 -6t-56.5 -9q-31 -5 -57 -9t-37 -6l-1 -1q-6 -2 -17.5 -7t-13.5 -9l-77 -269l-14 -11q-1 -1 -15 -2.5t-32 -3.5
t-37 -3.5t-30 -1.5h-22q-5 0 -9.5 -0.5t-9.5 -0.5h-38q-10 0 -21 -0.5t-23 -0.5q-21 0 -43.5 1t-41 5t-31 10.5t-14.5 17.5l4 14q2 5 2 9t2 9l10 33q9 32 21.5 62.5t25.5 60.5t25 60t20 59h-9q-5 0 -9.5 -0.5t-9.5 -0.5h-31q-15 0 -54 -1t-82 -2.5t-81.5 -3.5t-53.5 -3h1
q-7 -2 -9.5 -7t-4.5 -10l-2 -7q-2 -5 3 -9.5t13 -10.5q8 -5 16.5 -11.5t14.5 -16t7.5 -23t-3.5 -31.5zM97 6l190 663q2 6 1.5 12t0.5 12q-2 0 -2 2q-11 7 -16 15l-20 26l1 -1q-10 7 -15 14.5t-1 21.5l2 7q3 11 10.5 22.5t27.5 16.5q15 1 54 2.5t82.5 3t83 2.5t54.5 1h45
q2 0 2.5 0.5t2.5 0.5h31l-2 -8l27 -36q-12 -41 -24.5 -74t-26.5 -63q-14 -31 -26 -61.5t-21 -60.5l-9 -33q17 -2 38 -3t43 -1q3 0 6.5 0.5t6.5 0.5h82q2 0 2.5 0.5t2.5 0.5h22q10 0 26.5 0.5t32 1t27 1.5l11.5 1l6 4l74 261q5 15 22 24t27 12q3 3 8 3q2 0 3.5 0.5t3.5 0.5
q7 1 18 3q14 2 32 5t38 6q30 5 55 8.5t36 5.5h8q1 0 1.5 0.5t1.5 0.5h5q31 0 36 -28l20 -27q5 -5 5.5 -12.5t-1.5 -15.5q-13 -45 -27 -88.5t-29 -87.5t-28.5 -86.5t-26.5 -86.5l-25 -87q-2 -7 -3.5 -14t-3.5 -14l-16 -58q-1 -2 -2 -8t-2.5 -12.5t-2 -12t0.5 -7.5l18 -23
q6 -9 5 -17l-1 -3q-3 -12 -16.5 -33.5t-30.5 -44t-34.5 -40.5t-29.5 -23q-5 -2 -17.5 -5.5t-26.5 -8.5q-12 -4 -25 -7.5t-27 -7.5q-10 -3 -19.5 -6t-17.5 -6q-10 -3 -18 -5t-13 -4q-4 -1 -11.5 -3t-15.5 -3.5t-14 -3t-7 -1.5q-8 0 -17 6t-14 12l-21 30q-6 5 -10 9t-2 9
l93 326l-315 -27l-88 -305l-26 -20q-54 -3 -115 -15.5t-116 -26.5l-27 38l-2 -2z" />
    <glyph glyph-name="i" unicode="i" horiz-adv-x="416" 
d="M241 740q2 -2 4 -2l-1 -1l27 -35q5 -3 11 -4q2 -1 4.5 -2t4.5 -2q1 -7 -2 -16l-200 -698h7l27 -37q8 0 31.5 3t54.5 8t65 11.5t63 13t48.5 13t20.5 11.5l224 780l-27 36l2 8h-32q-2 0 -3 -0.5t-3 -0.5h-49q-14 0 -46.5 -1t-69 -2.5t-69.5 -3.5t-46 -3h-3q1 0 1 1
q-26 0 -35.5 -15t-13.5 -29q-1 -2 -2.5 -10t-0.5 -11zM257 773q2 8 6 15.5t13 7.5q2 0 3 -0.5t3 -0.5q13 1 46 3t69 3.5t68.5 2.5t46.5 1h34q5 0 10.5 0.5t10.5 0.5h11l-219 -763q-1 -4 -16.5 -8t-39.5 -8.5t-52.5 -9t-55 -7.5t-48 -5.5t-30.5 -2.5l193 676q11 38 -7 56
t-49 26q0 3 1 7t2 6z" />
    <glyph glyph-name="FL006Ah" unicode="j" horiz-adv-x="839" 
d="M676 768q-1 -2 -1.5 -6t-1.5 -7q30 -8 48.5 -26.5t8.5 -55.5l-147 -517q-19 -19 -52.5 -25.5t-78.5 -6.5q-42 0 -73 4t-58 10.5t-51.5 16.5t-52.5 22q-25 10 -53 21.5t-64 24.5l-53 -191q0 -1 8.5 -3.5t13.5 -3.5q28 -6 66.5 -10t80.5 -6t82.5 -3t72.5 -1q36 0 78 2.5
t85.5 11t87 23t81.5 38t69.5 58t51.5 81.5l2 2q2 3 3 4l170 576h-11q-5 0 -10.5 -0.5t-10.5 -0.5h-35q-14 0 -47 -1t-69.5 -2.5t-68.5 -3.5t-45 -3q-2 0 -3 0.5t-3 0.5q-9 0 -13.5 -7.5t-6.5 -15.5zM651 747q-1 3 0.5 11t2.5 10q4 14 14 29t37 15q0 -1 -1 -1h3q13 1 45.5 3
t69 3.5t69.5 2.5t47 1h49q2 0 3.5 0.5t3.5 0.5h33l-3 -8l27 -36l-180 -611h-5q-34 -73 -91 -116.5t-123 -67t-134 -30.5t-123 -7q-32 0 -73.5 1t-84.5 3t-82.5 6t-67.5 10q-8 2 -17 9.5t-12 12.5l-21 27q-5 5 -9 10t-3 7l62 221q37 -14 78 -29t66 -26q27 -12 51 -21.5
t50 -16t56 -10.5t70 -4q36 0 62.5 4t42.5 14l145 509q2 10 2 16q-2 1 -4.5 2t-4.5 2q-8 2 -11 4l-26 35l-1 1q-2 0 -3 2z" />
    <glyph glyph-name="k" unicode="k" horiz-adv-x="1086" 
d="M698 7q7 -10 13.5 -18.5t11.5 -13.5l5 -4q25 -14 56.5 -22t66 -12.5t70 -5.5t68.5 -1h20q4 0 8 0.5t9 0.5h10q8 8 18.5 23t12.5 19l6 19l-3 12q0 2 -1 4t-6 13l-19 25q-1 0 -2 5l-6 14q-3 2 -5 2h-8h-4q-1 0 -7 -2q-2 -1 -2.5 -1.5t-2.5 -1.5q-14 17 -32.5 43.5
t-29.5 45.5q-12 21 -26.5 49t-30.5 58.5t-32 62t-30 59t-24 49.5t-15 34l-3 4q-2 2 -2 5q11 21 52 51t93.5 61.5t107 60.5t92.5 49h-1q6 3 16 7.5t12 5.5q14 7 23 13t12 17q4 11 3.5 18t-3.5 12l-21 29q0 18 -14.5 21.5t-38.5 3.5h-234q-29 -54 -71 -100t-80 -83q2 2 -3 -3
l-10 -10l1 2q-2 -2 -3 -2h-2q0 -1 -1 -2t-1 -2l-2 -2q-4 -5 -7 -7q-4 -5 -9 -8.5t-8 -7.5h1q-6 -4 -7 -7l-6 -6l1 1q-26 -28 -57 -53t-65 -39l2 7q5 19 10 37l10 36q12 43 27.5 85.5t41.5 90.5l3 9q3 9 2 14t-3 9l-23 30q0 15 -10.5 17.5t-22.5 2.5h-18q-16 0 -56 -1
t-85 -2.5t-85 -3t-56 -2.5h-2v1q-12 0 -21 -4.5t-14.5 -11.5t-9 -15t-5.5 -15q-5 -14 0 -22.5t16 -14.5l18 -25q5 -8 17 -17q3 -11 0 -24l-191 -666q-4 -14 0 -20t11 -8l22 -31q5 -6 12.5 -7t13.5 -1h3q1 0 2 0.5t3 0.5h6q21 4 51.5 10.5t61.5 14t58 14t41 11.5l5 -7l22 17
l94 328h2q12 -26 28 -57.5t32 -61t29 -53.5t19 -34q4 -7 15 -23t23.5 -33t24 -32.5t16.5 -21.5l4 -4q-1 -2 2 -2zM711 29q-5 6 -16.5 21.5t-23.5 32.5t-22.5 32.5t-14.5 22.5q-6 9 -16.5 28t-23 43.5t-26.5 51.5t-26.5 52t-22.5 44.5t-14 29.5h-44l-97 -339l-13 -10l-24 -5
t-57 -11t-68.5 -12t-58.5 -10h-2q-2 0 -4 -0.5t-4 -0.5q-5 0 -10.5 1t-3.5 7l191 666q5 18 3.5 31.5t-7.5 22.5t-14 15.5t-16 11.5q-9 5 -14 10t-3 12q2 8 6.5 16t13.5 8q2 0 2.5 -0.5t2.5 -0.5q10 1 32 2t50 2t58.5 2t58.5 2t49.5 1.5t32.5 0.5h18q7 0 12.5 -1.5t3.5 -10.5
l-2 -4q-26 -48 -41.5 -91.5t-29.5 -89.5q-5 -18 -10 -36.5t-10 -37.5t-11 -40.5t-12 -42.5q29 0 56.5 10t53.5 26.5t50 37t45 42.5l18 18l21 21q20 20 43.5 43t46 47.5t42 49.5t33.5 49h217q20 0 29.5 -3t4.5 -19q0 2 -14 -5.5t-37 -20.5q-26 -14 -59.5 -32t-70.5 -38.5
t-73.5 -43t-67.5 -44t-53.5 -42t-30.5 -36.5l-1 -2q-1 -4 0.5 -11.5t4.5 -9.5q6 -14 19.5 -41.5t30.5 -62t36.5 -72.5t37.5 -72t32.5 -60.5t21.5 -39.5q4 -7 15.5 -22.5t24 -33t24.5 -33.5t17 -23q2 3 6.5 7t6.5 5l4 1q2 0 3 -1q-1 -1 1 -8l2 -10l-2 -8q-2 -4 -7.5 -14
t-9.5 -14q-3 0 -8 -0.5t-10 -0.5h-19q-32 0 -66.5 1t-68.5 5.5t-65 12.5t-56 22v-1zM785 466q0 1 -1 1q0 -1 1 -1z" />
    <glyph glyph-name="FL006Ch" unicode="l" horiz-adv-x="826" 
d="M322 654q-3 -10 -4 -18.5t4 -16.5l-128 -448q-5 -19 -13.5 -30.5t-18.5 -18.5t-21 -10.5t-23 -6.5q-17 -5 -32.5 -11.5t-29.5 -22.5q14 -27 41 -45.5t55 -30.5q35 3 65 5t57.5 3.5t54 2t53.5 0.5h82q37 0 73 -2l72 -4l72 -4t72 -2l11 39q7 25 14.5 55.5t11 57t0.5 44.5
t-17 18q-20 0 -38.5 -19t-38.5 -42q-22 -26 -44.5 -48t-47.5 -22q-2 0 -6 0.5t-8 0.5h-9q-12 1 -28 2.5t-33 4t-34 4.5t-31 4q-16 2 -21 2.5t-17 2.5l-8 12l145 508l60 139v1q2 6 -10 13t-31.5 13t-42.5 12t-43.5 10t-34 6.5l-13.5 2.5q-20 0 -39 -19t-35 -45t-27.5 -52.5
t-15.5 -41.5v-3zM300 657q5 17 18.5 47t33 59.5t43.5 51t50 21.5l14.5 -3.5t35.5 -9t45.5 -13t45.5 -16t35 -17t14 -17.5l24 -31q4 -6 3 -11l-1 -3l-60 -139l-132 -462q2 0 4 -0.5t5 -0.5v-1q26 -4 57.5 -7l52.5 -5h9q1 0 1 -1h2h10q15 0 33.5 17.5t35.5 39.5q25 29 48 51
t52 22q25 0 31 -30l18 -24q9 -12 10 -33.5t-3 -47t-10.5 -52.5t-12.5 -49l-17 -58q-38 0 -82.5 2t-81.5 4q-36 2 -71.5 4t-73.5 2h-81q-29 0 -55.5 -0.5t-54.5 -2t-58 -3.5t-66 -5q-26 11 -51 29t-44 44l-9 12q-21 20 -37 50q23 30 45 40t42 15q17 4 32 11.5t23 33.5
l126 440q-5 11 -3.5 20.5t5.5 22.5v3z" />
    <glyph glyph-name="m" unicode="m" horiz-adv-x="1307" 
d="M76 -2q-2 -8 2.5 -10t11.5 -2h10q13 2 34 5.5t41 7.5q15 3 26.5 4.5t13.5 2.5l15 8l143 497l23 13l146 -499h-1l14 -19h4q15 0 26 10.5t22 23.5q2 1 3.5 2.5l2.5 2.5l-1 -1l390 457l33 25l-128 -520h304q11 0 21.5 8t13.5 19q1 2 1 7q-44 7 -61.5 35t-19 67.5t8.5 84
t21 84.5l38 133q5 15 8.5 31t8.5 32l24 83q4 14 8.5 28.5t9.5 28.5l26 92q11 14 24 32.5t18 35.5q-20 -1 -40.5 -6.5t-41.5 -10.5q-23 -6 -44 -11t-43 -5q-7 0 -11 2t-7 4q-7 5 -13 5q-17 0 -27.5 -12.5t-18.5 -26.5q-6 -11 -13 -19l-78 -99q-66 -80 -136.5 -158.5
t-153.5 -151.5q-1 0 -2 -0.5t-2 -0.5h-2q-2 0 -6 1q-2 4 -9 11q-7 8 -13.5 17.5t-7.5 12.5l-137 427q-4 14 -7 17t-16 3q-34 0 -71 -3.5t-75 -7.5q-30 -3 -59.5 -6t-55.5 -4q-7 -2 -10 -8t-5 -12l-3 -10l-1 -5q3 -1 5 -1.5t5 -1.5q12 -5 24 -10.5t22 -13t16.5 -18.5t7.5 -26
l-3 -11q-2 -6 -4 -14t-4 -17q-4 -11 -7 -28l-24 -81q-2 -7 -4.5 -14t-4.5 -15l-8 -27q-2 -10 -5 -18t-4 -12l-1 -2q-7 -16 -21 -50.5t-32 -77.5t-37.5 -91t-38 -91t-33.5 -77.5t-22 -50.5v1q0 -1 -1 -1.5t-1 -1.5zM56 4q0 1 1 1.5t1 1.5q8 16 22.5 50t33 77t38 90.5
t37.5 90.5t32 77t21 50l5 17q1 3 2 6.5t2 6.5l14 49q1 2 2 3.5t1 3.5l24 81q0 4 1 7l6 21q1 3 1 5q0 3 1 5l8 28h-1v1q-3 1 -5 2t-5 3q-5 2 -9.5 3.5t-7.5 3.5q-6 0 -7.5 1t-3.5 2q-7 1 -10 3l-26 35q-3 0 -4 1q-2 0 -4 4l3 8q1 2 0.5 4.5t0.5 4.5l4 14q4 11 10.5 23.5
t26.5 18.5q17 1 36 2.5t37 3.5q6 1 12 1t13 1q2 0 5 0.5t6 0.5q6 0 10 1q2 0 6 0.5t7 0.5q5 0 9 1q6 1 12 1q7 0 13 1q26 2 51.5 4t49.5 2q11 0 17.5 -0.5t10.5 -3t7 -8t6 -14.5h-1l17 -24q3 -5 5 -9.5t4 -10.5l131 -414q74 66 138.5 138.5t126.5 147.5h-1l85 107
q5 6 7.5 10t4.5 7q11 20 25.5 37t45.5 17q14 0 22 -6q2 -5 9 -5q19 0 38.5 4.5t41.5 10.5q1 0 1.5 0.5t1.5 0.5v0q1 0 2 1q22 6 45.5 10.5t60.5 4.5l-2 -7l26 -37q-8 -29 -22 -51.5t-26 -38.5l-25 -87q-2 -8 -4.5 -14.5t-4.5 -14.5l-32 -111l-4 -16l-4 -16l-47 -164
q-14 -46 -24 -97.5t-1 -92.5q18 -14 56 -20l-2 -8l27 -37l-6 -20v-3q-3 -9 -9.5 -17.5t-15 -14.5t-18 -10t-17.5 -4h-321l-27 37h-8l95 387l-320 -377l-4 -4q-14 -17 -29.5 -30t-37.5 -13h-10q-8 11 -10.5 13.5t-5.5 7.5l-12 16h-3q-8 11 -10 14t-5 8l-7 10l-117 392
l-127 -443l-32 -18q-1 0 -12.5 -2t-27.5 -5q-14 -3 -30 -5.5t-30 -4.5q-5 -1 -9 -1.5t-8 -1.5h-14q-19 0 -24 9l-23 30q-18 7 -11 32z" />
    <glyph glyph-name="n" unicode="n" horiz-adv-x="1008" 
d="M703 97q2 -5 8.5 -13t14.5 -17.5t16.5 -20t15.5 -19.5q14 -17 28.5 -33.5t21.5 -24.5q2 -2 8.5 -6t12.5 -7t11 -4.5t11 -3.5t15.5 -4t25.5 -6q6 -2 11.5 -2.5t8.5 -1.5l27 21l106 369q18 63 33.5 113.5t23.5 74.5q20 65 43 120.5t63 112.5q1 1 2.5 6t3.5 10.5t4 10.5t2 6
l-26 37l2 7q-51 0 -98 -6t-87 -17v-1q-15 -3 -22 -13t-9 -19v-3l-3 -9q-16 -55 -28.5 -106.5t-24.5 -102.5q-2 -5 -2.5 -10t-1.5 -10q-2 -5 -3 -9t-2 -9q-8 -32 -16 -65.5t-16 -66.5l-335 454q-7 1 -9 1h-10q-24 0 -49.5 -2.5t-51.5 -4.5q-5 -1 -12 -1q-6 0 -12 -1h-8
q-2 0 -5 -0.5t-5 -0.5q-8 -2 -12 -2q-5 -1 -11 -1q-23 -2 -46.5 -4t-44.5 -3q-20 -6 -26.5 -18.5t-10.5 -23.5l-4 -14q0 -5 -1 -7l-2 -8q0 -4 5 -4q0 -1 3 -1l25 -35q12 -5 20.5 -10.5t16.5 -10.5q8 -19 4.5 -47t-15.5 -68q-20 -71 -41.5 -138.5t-46.5 -135.5t-53 -137
t-61 -142q1 -24 14 -27l22 -30q4 -6 9 -7t12 -1h14q20 2 51.5 7t53.5 9q15 2 19.5 3t16.5 4l144 504q19 -29 43.5 -64t50.5 -72.5t52 -74.5t48.5 -69t40 -57t27.5 -38zM405 550l-151 -527q-5 -1 -8 -1q-2 0 -11 -2q-11 -2 -25.5 -4.5l-29 -5t-27.5 -4.5t-21 -2h-13
q-5 0 -8 1t-4 6q33 71 61 139.5t52.5 136t46.5 136t42 140.5q12 40 17 69.5t-0.5 51.5t-22.5 38.5t-50 30.5l1 5l3 10q2 6 4.5 12t10.5 8q25 1 53 4t57 6q36 4 72 7.5t69 3.5h3q2 0 8 -1l348 -472h11q16 54 28.5 106.5t25.5 103.5q11 51 23.5 102t28.5 106l2 5q0 4 1 7
q1 4 4 7.5t9 4.5q38 9 77 15.5t76 7.5q-2 -2 -3 -4.5t-2 -4.5q-21 -30 -36 -58.5t-27.5 -57.5t-23 -59.5t-21.5 -64.5q-8 -23 -23.5 -74t-33.5 -114l-103 -362l-10 -7q-20 4 -31.5 6.5t-18 4t-11.5 3.5t-12 5q-3 1 -8.5 4t-7.5 5q-6 6 -17 19t-23 27t-21.5 26t-12.5 17
q-12 16 -35.5 50t-53.5 77.5t-63 91t-63 90.5t-53.5 77.5t-34.5 51.5h-14z" />
    <glyph glyph-name="o" unicode="o" horiz-adv-x="1115" 
d="M479 190q1 0 1 -1h-1v1zM86 34q0 -2 0.5 -9.5t1.5 -9.5l1 1q26 -8 63.5 -10.5t73.5 -2.5q13 0 25 0.5t22 0.5h48q8 0 18 0.5t19 0.5q13 0 23.5 0.5t16.5 0.5h4l33 10l7.5 15t16 32.5t16.5 32.5q0 2 1 3t1 3l3 9q1 4 2.5 7.5t2.5 5.5q2 8 -4.5 20.5t-17.5 28.5
q-10 14 -20.5 30.5t-17.5 35t-9 39t4 43.5l61 214q7 26 29.5 61t52 66.5t63.5 53t65 21.5h130q31 0 49 -22.5t26.5 -54.5t9.5 -66t0 -58l-18 -60q-2 -9 -4 -17.5t-4 -16.5l-7 -22q-13 -45 -26.5 -86.5t-35.5 -77.5t-55 -66t-84 -51q-3 -5 -8 -15.5t-11 -23.5l-12 -26
t-10 -23q-3 -8 -5 -12t-4 -7q-2 -4 -5 -12.5t-4 -13.5h277q25 0 55.5 11t59 29t50 41.5t29.5 49.5q1 1 0.5 3t0.5 4l1 4q-32 -8 -58 -9t-55 -1h-59q-34 0 -63.5 1.5t-67.5 11.5q60 27 119 60.5t109 74t88 90t55 109.5q17 58 11 105t-28.5 83.5t-59 62.5t-81 43t-94.5 25
t-99 8q-54 0 -114.5 -8t-122 -25.5t-120 -45t-107.5 -66.5t-86.5 -90.5t-55.5 -116.5q-17 -60 -6 -106t39 -82t67.5 -64.5t79.5 -53.5l-2 -5h-14q-5 0 -10.5 -0.5t-10.5 -0.5h-31q-29 0 -55.5 3.5t-52.5 7.5t-52.5 7t-53.5 3h-3q-2 -1 -5 -3.5t-5 -4.5l-2 -8v-1
q0 -5 0.5 -14t1.5 -21q1 -23 1.5 -48.5t2.5 -34.5zM72 -3q-3 5 -6.5 15.5t-3.5 13.5q-2 9 -2.5 35t-0.5 49q-1 10 -1 18q0 9 -1 15v6l4 16q4 7 15.5 15.5t18.5 10.5h7q29 0 55.5 -3t52.5 -7q2 -1 7 -1q2 0 4 -0.5t4 -0.5l24 -3l36 -6q-14 13 -27 26.5t-23 28.5l-6 7
q-20 21 -35 45.5t-23 52.5t-7.5 60t11.5 70q20 69 59 123.5t90.5 96t112.5 70.5t125 47.5t127.5 27t119.5 8.5q55 0 110.5 -9.5t104.5 -30t87 -52.5t58 -77l6 -7q29 -41 37.5 -93t-10.5 -119q-14 -48 -39.5 -89t-59.5 -76.5t-75 -65t-85 -54.5h36q13 0 26 0.5t29 2t36 5
t47 9.5l-3 -10l26 -37l-7 -26q-1 -2 -0.5 -3t-0.5 -2v-2q-9 -30 -34 -57t-57 -48t-66.5 -33t-61.5 -12h-294l-27 37h-8q1 3 3.5 11.5t5.5 17t5.5 16t3.5 9.5q2 5 7 15q2 5 4.5 10t4.5 10q10 23 21.5 46.5t19.5 36.5q50 21 81.5 49t52 61.5t33.5 72.5t25 81l11 38q1 2 1 4
q0 3 1 5l18 62q1 13 1 31q0 19 -2 38.5t-5.5 38.5t-10.5 35q-11 6 -22 6h-129q-27 0 -57 -19.5t-56 -48t-45.5 -59.5t-26.5 -55l-61 -215q-8 -25 -3.5 -48t14.5 -43v-1h1h1q8 -12 14 -22.5t8 -16.5h-1q2 -2 4 -3q13 -19 21 -34t4 -29l-1 -5q-1 -2 -2 -3.5t-1 -3.5l-3 -9
q0 -1 -1 -2t-1 -3l-2 -5q-2 -5 -5 -11t-5 -12q-6 -12 -12 -24.5t-12.5 -23t-13 -17.5t-12.5 -8l-32 -10h-20q-5 0 -11.5 -0.5t-14.5 -0.5q-5 0 -10 -0.5t-10 -0.5h-88q-6 0 -12.5 -0.5t-12.5 -0.5q-38 0 -76.5 2.5t-65.5 10.5l-7 5l-22 32h-2z" />
    <glyph glyph-name="p" unicode="p" horiz-adv-x="896" 
d="M163 171q-6 -23 -13.5 -58t-16 -75t-17 -80.5t-15 -74.5t-11 -57t-4.5 -27l-3 -52q2 0 4 -0.5t3 -0.5h2l26 -35q11 -2 13 -2.5t5 -0.5q18 0 38.5 4t41 12t38.5 21.5t30 33.5q8 10 20.5 31t27.5 47t30 54.5t28 54t22 46.5t12 31l83 288l12 -17q4 -5 9 -9l10 -8l-1 1
q1 -1 2 -1.5t2 -1.5h22q2 0 3.5 -0.5t3.5 -0.5h24q65 0 136 14.5t134.5 47.5t113 85.5t70.5 128.5l6 20q1 2 1 4q0 3 1 6l9 32q0 39 -22 69l-14 18q-11 30 -35.5 49t-55.5 31t-65 18.5t-64 10.5h-108q-4 0 -6.5 0.5t-6.5 0.5h-149q-63 0 -123.5 -1.5t-128.5 -9.5h-1
q-26 0 -34.5 -11t-13.5 -27q-5 -18 -0.5 -27t15.5 -15l-1 1l19 -26q3 -5 8 -8.5t11 -6.5q7 -2 7 -3q0 -3 2 -3q0 -9 -1 -14q-6 -20 -16.5 -59.5t-24 -89.5t-28.5 -105t-28 -105t-23.5 -89.5t-14.5 -58.5zM321 679q4 18 2 30t-8.5 20t-15 13t-16.5 10q-11 6 -19 11.5t-4 16.5
q2 6 5.5 11t13.5 5h3q68 8 127.5 9.5t122.5 1.5h121q14 0 28.5 -0.5t28.5 -0.5h91q33 -4 71 -11.5t70 -23t53.5 -40t21.5 -63.5l-8 -28q-2 -5 -2.5 -9.5t-2.5 -9.5l-3 -11q-20 -71 -66.5 -119.5t-106.5 -79.5t-127 -44.5t-129 -13.5h-25q-4 0 -7.5 0.5t-6.5 0.5h-8
q-12 8 -18 16t-2 21q1 2 2 3.5t1 3.5q43 13 82 28t71 37t56 53t37 77q14 49 0.5 78t-43 44t-68.5 19.5t-77 4.5l-188 -656q-3 -10 -12.5 -30.5t-22.5 -46t-28 -54t-29.5 -53.5t-27 -45t-19.5 -29q-11 -16 -26 -27.5t-32 -18.5t-34.5 -10t-32.5 -3q-2 0 -6 1l2 38
q0 4 4.5 26.5t11 56t14.5 73.5t16.5 79.5t16 74.5t12.5 57q4 19 14.5 58.5t24 89.5t28 105.5t28.5 105.5t25 89.5t16 58.5zM734 654q8 -25 -2 -61t-29 -61.5t-44.5 -45t-57 -33.5t-67.5 -26l73 253q34 -1 68 -6.5t59 -19.5z" />
    <glyph glyph-name="q" unicode="q" horiz-adv-x="1256" 
d="M477 -92q-8 -29 -14.5 -59t-7.5 -57t5.5 -49t24.5 -35l16 -22q10 -14 25.5 -21t41.5 -7h9q7 4 19 13.5t19 16.5l1 -2l122 257h2l13 3l12 3q31 8 81 21.5t108.5 37t120.5 58.5t118 84t101 115t70 151q20 71 12 126t-39 97l-4 5q-21 50 -64 85t-101 60q-6 2 -18 6.5
t-15 4.5l-118 11q4 9 12 18q2 2 2.5 4t2.5 4q6 10 11.5 20.5t8.5 22.5q1 4 -0.5 28t-5.5 53t-9.5 55.5t-12.5 35.5l-19 28q-5 8 -8 13.5t-8 5.5q-1 0 -1 -1h-1h-16q-5 -2 -13.5 -7t-19.5 -10q-9 -5 -18 -10.5t-18 -10.5t-17.5 -9.5t-16.5 -9.5q-2 -2 -6 -3t-7 -3l-4 -2.5
t-8 -4.5l1 1q-2 -1 -3.5 -1.5t-3.5 -2.5q-8 -5 -20.5 -13t-23.5 -16.5t-19.5 -15.5t-9.5 -10l-40 -155q-91 -18 -183.5 -43.5t-173.5 -69.5t-143 -112t-92 -172q-34 -118 -22 -197t60 -128l11 -16q43 -60 120.5 -88.5t182.5 -36.5q-2 -11 -4.5 -22t-4.5 -22zM514 6
q-101 5 -182 26t-131.5 68t-64.5 124t20 194q29 100 91 165.5t143 106.5t173 65t180 42l45 173q0 1 7 5.5t16 10.5t19 12t17 10v-1q7 4 25 14t40 21q20 11 38.5 21t26.5 14h1q2 0 3.5 0.5t3.5 0.5q4 0 8 -11t6.5 -27.5t4.5 -36.5t3 -37.5t1 -30.5q0 -12 -1 -15
q-4 -12 -10 -23t-13 -23q-10 -15 -19.5 -32t-17.5 -45l182 -19q1 0 10.5 -4t14.5 -6q49 -21 87 -50t60.5 -67t27.5 -86.5t-12 -108.5q-24 -82 -67.5 -145t-97.5 -110.5t-114.5 -80.5t-117 -55.5t-105 -35.5t-78.5 -21q-17 -5 -28 -7.5t-13 -7.5v1l-124 -259q-1 -2 -9.5 -8.5
t-13.5 -9.5h-4q-36 0 -50.5 17.5t-16.5 45t5 61.5t15 68q8 28 12.5 52t4.5 43zM922 713q-4 -15 -12.5 -43.5t-20 -65t-24.5 -79.5l-26 -86q-14 -44 -27.5 -87t-24.5 -80t-20 -65.5t-13 -44.5l-15 -55q63 0 119 24t101.5 65t78.5 95t50 115q13 45 11.5 99t-19 100.5t-52 77.5
t-88.5 31q-2 0 -4.5 -0.5t-4.5 -0.5h-9zM396 442q-15 -54 -19 -112.5t11 -108t52.5 -81.5t104.5 -32l170 592q4 17 -7.5 20.5t-21.5 3.5q-37 0 -70 -13t-62.5 -34.5t-55 -50t-45.5 -60t-34.5 -63.5t-22.5 -61zM1066 406q-14 -48 -38.5 -92.5t-58.5 -80.5t-75.5 -61.5
t-88.5 -35.5q5 18 13.5 46.5t19 63t22.5 73.5t25 80q12 39 24 77t22.5 72t18.5 61.5t14 45.5q25 0 44.5 -8.5t36.5 -22.5q13 -23 21 -50t10.5 -56t-0.5 -58t-10 -54zM442 402q11 38 33 81t53 80.5t70.5 64.5t84.5 34l-153 -532q-62 9 -94 49h1q-17 49 -13.5 109t18.5 114z
" />
    <glyph glyph-name="FL0072h" unicode="r" horiz-adv-x="903" 
d="M645 226l-10 -226h8l25 -37h10t10 1q7 1 12.5 1.5t9.5 0.5q20 0 37.5 -3t31.5 -7q2 -1 5.5 -1.5t2.5 -0.5q7 -2 14.5 -3t17.5 -1q15 0 27.5 5t23.5 17.5t20.5 34.5t19.5 56q10 36 12 75t-4.5 77t-20 72.5t-32.5 62.5l-29 40h-1q-4 6 -7 8q-3 5 -6.5 8.5t-6.5 7.5
q35 15 68.5 31.5t61.5 39t49.5 52t33.5 69.5q10 34 6 58.5t-18 43.5l-3 2l-10 18q-10 25 -31.5 42t-48.5 28t-57 17.5t-58 10.5h-104q-5 0 -9 0.5t-8 0.5h-138q-5 0 -9.5 -0.5t-9.5 -0.5h-131q-13 0 -32 -2.5t-38.5 -6t-37 -7t-26.5 -6.5l-8 2l-31 -50q1 -1 4 -2.5t7 -2.5
l25 -34q4 -2 7 -3t8 -3q7 -4 14.5 -7t14.5 -8q2 -14 -1 -28l-185 -645q-1 -4 11 -15l21 -28q3 -4 14.5 -12.5t20.5 -10.5q25 -5 43 -7t35 -2q8 0 17 0.5t20 1.5h5q14 1 31 1.5t41 0.5h24l119 387q34 -1 61.5 -6.5t47.5 -19.5q15 -32 14 -87zM283 9q-12 -1 -21.5 -1.5
t-19.5 -0.5q-14 0 -30.5 2t-42.5 7q-7 1 -17.5 3.5t-9.5 3.5l185 645q7 25 3.5 41.5t-14 27.5t-26 18.5t-32.5 14.5l17 27q0 1 13.5 2t32.5 2.5t39 2.5t33 1h80q17 0 34.5 0.5t35.5 0.5h94q14 0 29.5 -0.5t31.5 -0.5h102q34 -5 71 -14t66 -26.5t43 -46t1 -72.5
q-11 -40 -34.5 -68.5t-54 -49.5t-66 -37t-71.5 -31l-10 -4t-9 -4l-5 -15q41 -8 72 -42.5t49 -82.5t21.5 -103.5t-11.5 -106.5q-16 -56 -31 -74.5t-34 -18.5q-8 0 -16.5 2t-19.5 4q-14 4 -32.5 7t-41.5 3q-7 0 -13.5 -0.5t-13.5 -1.5l9 209q1 52 -11 84.5t-36.5 50.5t-60 24
t-80.5 6l-119 -386h-5q-25 0 -42.5 -0.5t-31.5 -1.5zM498 457q38 3 74 10t66 22.5t52.5 41.5t34.5 68q19 67 -11 105t-101 38q-2 0 -7 -0.5t-10 -0.5h-17zM631 683h5q43 0 69 -17l-1 1q5 -14 5 -31t-6 -37q-16 -54 -52.5 -78t-84.5 -34l56 195q2 0 4.5 0.5t4.5 0.5zM130 21
l-1 1q1 0 1 -1z" />
    <glyph glyph-name="FL0073h" unicode="s" horiz-adv-x="832" 
d="M722 408q-1 0 -3 3l4 4l2 -1zM515 362q25 -5 49 -10.5t40.5 -18.5t21.5 -37t-7 -65q-9 -32 -20.5 -52t-26.5 -31t-34.5 -15.5t-45.5 -4.5q-16 0 -34.5 1t-39.5 3q-29 2 -62.5 3.5t-74.5 1.5q-11 0 -59 11.5t-130 44.5l-47 -161q0 -1 8.5 -3.5t13.5 -3.5q28 -6 66.5 -10
t80.5 -6t82.5 -3t72.5 -1q38 0 83 3t91.5 12.5t91.5 26.5t84.5 45t69.5 68t46 96q15 50 6.5 81.5t-31.5 51t-56.5 30t-69.5 18.5q-17 11 -46 19t-63 16q-22 5 -44 10.5t-45 12.5q-16 6 -29.5 12.5t-21 17.5t-9 28.5t6.5 45.5q19 67 67 105t112 38q6 0 33.5 -2.5t62.5 -10
t69 -21.5t54 -37h4q13 0 36 21.5t49 48.5h-1q6 7 13.5 13.5t13.5 12.5v30q0 1 -11.5 2t-28 2.5t-34 2.5t-29.5 1h-71q-15 0 -31 0.5t-32 0.5h-85q-14 0 -27.5 -0.5t-27.5 -0.5h-91q-33 -5 -71.5 -14t-73.5 -26.5t-62.5 -46t-40.5 -72.5q-21 -73 -0.5 -126t65.5 -80zM35 15
q-5 5 -9 10t-3 7l56 191q94 -38 146 -51t63 -13q35 0 65 -1t55 -3q2 0 4 -0.5t4 -0.5h9q2 0 3.5 -0.5t3.5 -0.5h7q33 -3 59 -3q40 0 62.5 15.5t36.5 65.5q10 31 5 54q-12 5 -26 8.5t-28 6.5l-12 3l-228 81q-28 17 -47 45l-6 9q-38 32 -52.5 85.5t5.5 122.5q15 50 46 82.5
t69.5 52.5t80.5 30t78 15h93q4 0 7.5 0.5t7.5 0.5h125q4 0 8 -0.5t8 -0.5h118q12 0 28 -2.5t32 -6t30 -7t21 -6.5l8 3l-1 -9l26 -35v-3v-35l-1 -1q0 1 -1 0t-3.5 -4.5t-8.5 -10.5q-5 -6 -9.5 -10t-9.5 -9q-25 -25 -47.5 -46.5t-40.5 -29.5l-7 -23q-25 30 -61.5 48t-72 28
t-63 13t-33.5 3q-56 0 -97 -32.5t-58 -91.5q-3 -11 -5 -19t-1 -15q5 -2 9 -4.5t10 -4.5v1q20 -5 42.5 -10.5t42.5 -10.5q1 -1 4 -1q4 0 6 -1q1 -1 3 -1t3.5 -0.5t3.5 -0.5q29 -8 53.5 -15t44.5 -18q27 -6 53 -13t48.5 -17.5t39.5 -26.5t25 -39h-1l12 -17q16 -22 19.5 -53
t-9.5 -76q-17 -61 -49 -104.5t-73.5 -73.5t-89 -48.5t-96 -28t-95.5 -13t-87 -3.5q-32 0 -73.5 1t-84.5 3t-82.5 6t-67.5 10q-8 2 -17 9.5t-12 12.5z" />
    <glyph glyph-name="t" unicode="t" horiz-adv-x="909" 
d="M294 9l4 -25h6l27 -37h14q2 0 5 -0.5t6 -0.5h12q54 0 112 6.5t109 14.5q18 7 23 14.5t8 17.5v2q16 54 29.5 107.5t26.5 107.5q13 53 26.5 105.5t29.5 106.5l11 41q2 8 5 15t5 14l25 87l18 38h39q3 0 5.5 0.5t4.5 0.5h8q5 1 10 1h15h38q6 0 12.5 -0.5t12.5 -0.5h46
l124 119l11 39l-26 36l2 8h-796q-11 -15 -26 -38t-31 -49.5t-29.5 -55.5t-21.5 -56h8l26 -37q4 0 18 0.5t22 2.5q5 0 13.5 3t19.5 8q4 2 7 2.5t7 2.5l11 4q31 5 72.5 7.5t76.5 3.5zM511 669l-9 12h-5q-5 0 -15 0.5t-16 0.5q-18 0 -40 -0.5t-44.5 -2t-44.5 -3.5t-39 -5h1
q-3 0 -11 -3t-17 -7q-9 -3 -17 -6t-10 -3q-2 -1 -9.5 -2t-12.5 -1q6 18 16.5 39.5t23.5 43t25.5 40.5t22.5 33h760l-5 -17l-109 -106h-18q-10 0 -21.5 0.5t-23.5 0.5h-37h-16t-11 -1q-4 0 -8.5 -0.5t-9.5 -0.5h-55l-24 -51l-19 -66q-4 -14 -8.5 -27.5t-8.5 -27.5l-12 -41
q-16 -55 -29.5 -107.5t-26.5 -106.5q-13 -53 -26.5 -106t-28.5 -107l-1 -2q-2 -5 -3.5 -8t-8.5 -5q-50 -8 -107 -14.5t-108 -6.5q-5 0 -11.5 0.5t-11.5 0.5h-2l-2 10z" />
    <glyph glyph-name="FL0075h" unicode="u" horiz-adv-x="1098" 
d="M289 143q21 -32 41.5 -55t45.5 -40t55.5 -28t69.5 -18q34 2 56 3.5t38.5 4.5t29 8t26.5 15q34 9 65.5 25t60.5 37t56 45.5t53 49.5l45 41l-1 -1q3 4 20 39t40.5 85.5t50 108t49.5 107.5q23 49 38.5 81.5t17.5 37.5q4 5 15 19.5t17 20.5h-1q7 8 17.5 13t21.5 10t21.5 10.5
t13.5 13.5q4 18 -12 18q-26 0 -62 -1.5t-74 -8.5t-73 -20.5t-58 -38.5l1 1q-11 -20 -22.5 -47t-25.5 -59q-20 -46 -44.5 -100.5t-52 -109.5t-58.5 -106.5t-63.5 -91t-66 -63t-67.5 -23.5l-58 2q-35 1 -47.5 31.5t-10.5 80t14 111.5t26 127q11 52 21.5 102t15 92t2 74
t-17.5 48h-31q-5 0 -9.5 0.5t-9.5 0.5h-61q-32 0 -62.5 -2.5t-75.5 -8.5q-2 -3 -6.5 -9t-6.5 -9l-2 -7q29 -8 40 -34.5t11 -65.5q0 -38 -8 -86.5t-18 -99.5q-10 -49 -18.5 -98.5t-10 -93.5t6.5 -80t32 -58zM545 439q-9 -42 -18 -83t-15 -78t-8 -69t1 -56q7 -3 16 -3l58 -2
q29 0 59 23t59.5 60.5t58.5 86.5t55 102t49.5 105.5t42.5 96.5l2 4q0 1 2 5q4 8 7 15t5 13q11 25 19.5 44.5t14.5 28.5q29 30 68 46.5t80 25t79 10t65 1.5t29 -22l22 -29q7 -10 2 -28q-5 -17 -19.5 -25.5t-31.5 -16.5q-1 -1 -2 -1t-3 -1q-7 -3 -13 -6t-9 -6q-5 -5 -14.5 -16
t-14.5 -19v1l-5 -12q-7 -14 -20 -42.5t-30 -65.5q-15 -34 -32.5 -71.5t-35 -74.5t-33.5 -71.5t-28.5 -61.5t-21 -43.5t-9.5 -18.5l-50 -47q-27 -26 -55 -51t-58 -47t-62.5 -39t-68.5 -26l1 1q-15 -10 -27.5 -15.5t-27.5 -8.5t-34 -4.5t-47 -3.5h-12q-6 0 -12 -1
q-37 6 -66 16t-53.5 24t-45 34t-39.5 46q-13 12 -24.5 27.5t-23.5 34.5q-27 24 -36.5 62t-8 84.5t10.5 98t19 102.5q7 33 13 65.5t9 61.5t2.5 54.5t-7.5 43.5l-12 6l-25 35q-1 0 -2 0.5l-1 0.5q-4 0 -6 3l8 28q1 1 4.5 6t8 10t10 10.5t9.5 8.5q46 6 77.5 8.5t68.5 2.5h74
q2 0 3 -0.5t3 -0.5h38q6 -8 11 -14.5t7 -14.5h-1l17 -22q15 -21 17.5 -55t-2 -77t-14.5 -92.5t-21 -100.5z" />
    <glyph glyph-name="v" unicode="v" horiz-adv-x="1015" 
d="M641 727l-4 5l-4 7q-17 42 -52.5 66t-95.5 24q-17 0 -42.5 -5.5t-54 -15.5t-58.5 -24t-55 -31t-43 -37t-24 -41q-2 -5 -2 -6v-4q0 -5 5 -12.5t10 -9.5l2 -1l-1 1l21 -27q2 -4 4.5 -6.5t4.5 -3.5l6 -1q5 1 9 1h9q31 0 55.5 -9.5t41.5 -26.5q17 -27 26.5 -62.5t15 -73.5
t7 -77.5t2.5 -75.5q0 -3 -1.5 -13.5t-8 -39.5t-21 -82t-39.5 -141q-3 -12 1 -18.5t11 -9.5l22 -30q5 -6 12.5 -8t15.5 -2q2 0 3 0.5t3 0.5h5q28 0 59 3t61 8t58.5 11t52.5 11q1 3 2 9t2 10l12 40q2 5 3 12.5t4 16.5q4 14 8.5 29t9.5 29l23 81q10 31 28.5 73t43.5 86t55.5 87
t65 77t71.5 54.5t74 20.5q8 0 16 -2t17 -4t19 -4t24 -2q12 0 26 7t19 25l2 7v23v35v33v20q1 14 -8 26l-18 25q-3 15 -13.5 24t-25 13.5t-30.5 5.5t-31 1h-10q-45 0 -86 -16t-77 -42t-68 -61t-60 -72q-6 -8 -14 -23.5t-18 -36t-21.5 -45t-22.5 -48.5q2 33 2 66q0 34 -4 65.5
t-13 59.5t-24 51zM229 671l1 4q7 27 38.5 51t70.5 42.5t78 29t62 10.5q49 0 79.5 -19.5t48 -52.5t23.5 -75.5t5 -88.5t-6 -92t-9 -85l-4 -51h26q1 3 2.5 5.5t3 6t4 10t7.5 17.5q11 26 27.5 63.5t33 74t31 67t23.5 42.5q25 35 54.5 67t63 57t71 39.5t78.5 14.5h10q13 0 28 -1
t28 -4.5t21 -11.5t8 -22q0 -5 -0.5 -20t-1 -32.5t-0.5 -33.5v-23l-1 -4q-2 -8 -8 -10.5t-12 -2.5q-10 0 -19 2l-18 4t-18.5 4t-20.5 2q-41 0 -80.5 -21.5t-76.5 -57t-69.5 -80.5t-59.5 -91.5t-47 -90.5t-30 -77l-10 -36q-6 -21 -14.5 -47.5t-16.5 -55.5q-5 -15 -6.5 -24.5
t-3.5 -15.5l-6 -20q-1 -2 -1 -5q0 -2 -1 -6q-22 -5 -48.5 -10t-54.5 -9.5t-55.5 -7.5t-51.5 -3h-2q-2 0 -4 -0.5t-5 -0.5q-7 0 -13.5 1.5t-4.5 7.5q26 90 40.5 144t21 83.5t8 40.5t1.5 15q0 60 -5 126t-24.5 122t-58 92.5t-105.5 36.5h-10t-10 -1q-3 3 -5 7z" />
    <glyph glyph-name="FL0077h" unicode="w" horiz-adv-x="1285" 
d="M534 2q29 1 59 5.5t61 11.5q26 5 51.5 10t52.5 7l11 8l5 40q55 8 108 21t101.5 36.5t91.5 59.5t78 91q3 5 17.5 35.5t34 74t41.5 93.5t41 92q18 42 31 70t15 33q2 3 6 8.5t8.5 11.5t9 11.5t7.5 8.5q6 8 17 13l22 10q12 5 22.5 10.5t12.5 13.5q4 18 -12 18q-26 0 -62 -1.5
t-74 -8.5t-73 -20.5t-59 -38.5l1 1q-9 -19 -19 -46t-24 -59q-17 -44 -38 -95t-45 -102t-51 -98t-57 -83.5t-62 -58t-66 -21.5l190 642q-4 -1 -8 -1h-9h-19q-11 0 -38 -1t-59 -3t-54 -3q-23 -1 -35.5 -1.5t-14.5 -4.5v-3l-91 -318q-8 -30 -16 -59t-16 -57l-55 -191
q-6 0 -10 -0.5t-9 -1.5q-8 -2 -16 -2.5t-13 -0.5h-4q-32 7 -43.5 39.5t-9.5 80t13.5 106t24.5 118.5q11 49 20.5 96.5t13.5 88t1 71t-18 46.5h-32q-5 0 -9.5 0.5t-9.5 0.5h-61q-32 0 -62 -2.5t-76 -8.5q-2 -3 -6.5 -9t-6.5 -9l-2 -7q29 -8 40 -34.5t11 -65.5q0 -38 -8 -86.5
t-18 -99.5q-10 -49 -18.5 -98.5t-10 -93.5t6.5 -80t32 -58q20 -19 48 -30.5t59.5 -19t64.5 -11t64 -6.5q5 -1 12 -1t11 -1zM518 31q-29 3 -58 7t-56.5 11.5t-51.5 18.5t-43 28l-1 -1q-10 9 -18 20l-13 18q-28 25 -38 64t-8.5 85.5t10 98t18.5 102.5q7 33 13 65.5t9 61.5
t2.5 54.5t-7.5 43.5l-12 6l-25 35q-1 0 -2 0.5l-1 0.5q-4 0 -6 3l8 28q1 1 4.5 6t8 10t10 10.5t9.5 8.5q23 3 42 5t36 3.5t33.5 2t34.5 0.5h74q2 0 3 -0.5t3 -0.5h39q14 -14 20 -32h-1l15 -20q15 -21 18 -54t-0.5 -74t-13 -87.5t-20.5 -94.5q-9 -41 -17.5 -80.5t-14 -76
t-6.5 -68t4 -54.5v2q3 -3 6.5 -4t6.5 -2q7 0 22 3h2l65 227q2 8 3.5 15t3.5 15l99 343q-1 1 1 6v2q6 20 23 23t44 4h10q22 1 54 3t59.5 3t38.5 1h27q3 0 6.5 0.5t6.5 0.5h18l-2 -8l27 -36l-169 -567q34 28 65.5 76t60 105t53.5 116.5t45 109.5q14 36 25.5 65t19.5 44
q29 30 68.5 47t80.5 25.5t79 10t64 1.5q29 0 30 -22l21 -29q7 -10 2 -28q-5 -17 -19.5 -25.5t-31.5 -16.5q-1 -1 -2 -1t-2 -1q-7 -3 -13.5 -6t-9.5 -6q-5 -5 -14.5 -16t-14.5 -19v-2q-4 -8 -16 -34.5t-29 -64.5q-19 -43 -41 -93t-42 -94.5t-35 -76.5t-19 -38h-1
q-36 -55 -79 -92t-91 -61.5t-100 -38t-106 -22.5l-4 -31l-27 -21q-26 -2 -50 -6t-48 -9q-2 -1 -4 -1q-1 0 -3 -1q-32 -7 -65.5 -12t-76.5 -5l-26 37h-8z" />
    <glyph glyph-name="x" unicode="x" horiz-adv-x="1025" 
d="M17 12l-20 -73l5 2.5t3 0.5l27 -36q28 4 61 11t66.5 17.5t65 25t55.5 33.5l295 229l76 -132q8 -13 16.5 -25t20.5 -23l8 -11q9 -13 19 -23.5t24 -18.5q21 -12 47.5 -21.5t56.5 -16t61.5 -10t60.5 -3.5h10q14 13 16 15l4 4l4 6q6 9 7 11t2 6q1 2 1 4v8l-26 35v2v4l-42 58
l-130 306l282 227l50 175q1 3 -2 8.5t-7 12.5l-17 22q0 7 -7.5 19t-15.5 17q-4 1 -9 1h-6q-1 0 -8 -2l-343 -275l-80 192l-21 29h1l-6 15q-14 1 -23 1h-15h-10q-1 0 -2.5 -0.5t-2.5 -0.5h-29q-2 0 -4.5 -0.5t-5.5 -0.5l-22.5 -2.5t-27.5 -2.5l-22 -2l-22 -2q-8 -1 -15 -1
q-6 0 -13 -1q-15 -2 -32 -3t-32.5 -2.5t-27.5 -2.5t-18 -1l-17 -59q1 -5 6 -7q0 -1 3 -1l23 -31q2 -2 6 -4t5 -2q2 -2 5 -3.5l5 -2.5q6 -4 8 -6q7 -15 20 -42.5t30 -59.5q2 -5 3.5 -11t5.5 -11q2 -5 5.5 -10t5.5 -10q21 -45 40 -86.5t27 -58.5l4 -9zM510 402l-13 31
q-8 17 -26 55t-40 82q-11 24 -22 47.5t-20.5 44t-16.5 36t-11 24.5q-7 16 -22.5 28t-29.5 20q-2 0 -3 1l7 25l36 3t54 5q20 2 40.5 4t38.5 3.5t32 2.5t21 2h19q3 0 6.5 0.5t6.5 0.5h10h9t17 -1l107 -251l364 291l5 1l3 -1q4 -3 9 -9t5 -8l-49 -168l-288 -233l139 -327
l63 -88v-3q-1 -2 -3 -5l-8 -10q-2 -2 -4 -4.5t-2 -3.5h-2q-56 0 -116.5 13t-102.5 37q-17 11 -29 26t-23 32l-93 159q-2 4 -7.5 12t-7.5 9q-4 1 -6 1t-6 -1l-308 -239q-22 -17 -49 -29.5t-56 -22t-58 -16t-53 -10.5l10 35z" />
    <glyph glyph-name="y" unicode="y" horiz-adv-x="1285" 
d="M1040 783l-27 36l2 8h-18q-3 0 -6.5 -0.5t-6.5 -0.5h-27q-11 0 -38.5 -1t-59.5 -3q-28 -1 -52 -3q-34 -1 -53.5 -4.5t-24.5 -23.5l-5 -16q-14 -51 -27.5 -100t-26.5 -99q-11 -42 -22.5 -86.5t-23.5 -89.5l-3 -8h-2q-14 -3 -21 -3q-16 3 -26 11l-1 -1q-8 32 -2.5 74
t12.5 85q5 31 9.5 61t4.5 58t-5 52.5t-19 43.5l-15 20q-9 20 -21 33h-39q-2 0 -3 0.5t-3 0.5h-74q-18 0 -34.5 -0.5t-33.5 -2t-36 -3.5t-42 -5q-4 -3 -9.5 -8.5t-10 -10.5t-8 -10t-4.5 -6l-8 -28q2 -2 8 -4l-1 1l27 -36q16 -5 26 -12q9 -23 8 -53t-5 -64v1q-4 -32 -7 -64.5
t0 -63.5t15 -60t38 -53l9 -12q12 -15 26 -29v1q19 -17 43 -28t51 -18.5t56 -12t57 -7.5l-75 -259h8l26 -37q44 0 77.5 5t65.5 12q2 1 3 1q2 0 4 1q24 5 48 9t50 6l26 20l69 239q54 9 106.5 23t101.5 39t92.5 63t79.5 94q7 9 24.5 37t36.5 60t35 59t19 34l6 8q5 7 11.5 14.5
t11.5 12.5q3 4 9.5 7t13.5 6q1 1 2 1t2 1q17 8 31.5 16.5t19.5 25.5q5 18 -2 28l-21 29q-1 22 -30 22q-26 0 -64 -1.5t-79 -10t-80.5 -25.5t-68.5 -47q-9 -18 -19 -43q-1 -2 -2 -4.5t-3 -5.5q-2 -4 -3.5 -8t-3.5 -8q-15 -35 -33 -73.5t-39 -73t-47 -63t-58 -44.5zM617 294
q-5 1 -12 1q-6 0 -11 1q-31 3 -64 6.5t-64.5 11t-59.5 19t-48 30.5q-24 21 -34.5 48t-13.5 56.5t-0.5 60t6.5 60.5q4 31 6 60.5t-3 53.5t-19.5 42t-42.5 26l2 7q2 3 6.5 9t6.5 9q46 6 76 8.5t62 2.5h61q5 0 9.5 -0.5t9.5 -0.5h32q14 -16 19.5 -39t5 -50.5t-4.5 -58t-9 -61.5
q-6 -39 -11 -77t-1.5 -69t18 -53t47.5 -29h4h13t16 2q5 1 9 1.5t9 0.5q14 52 28 103.5t26 100.5q14 50 27.5 99t27.5 100l5 16q1 4 14.5 5t36.5 2q24 2 52 3q32 2 59 3t38 1h19h9t8 1l-124 -434q54 0 95 27.5t72.5 70.5t56 94t44.5 98q8 18 14.5 34t13.5 31l-1 -1
q24 25 59 38.5t73 20.5t74 8.5t62 1.5q16 0 12 -18q-2 -8 -12.5 -13.5t-22.5 -10.5l-22 -10t-17 -13q-3 -3 -7.5 -8.5t-9 -12t-8.5 -12t-6 -8.5q-4 -7 -20.5 -35t-36 -60t-36.5 -59.5t-21 -33.5q-36 -54 -79 -90.5t-91.5 -59.5t-101 -36t-107.5 -21l-71 -250l-11 -8
q-27 -2 -52.5 -7t-51.5 -10q-31 -7 -61 -11.5t-59 -5.5zM310 687l3 1l-2 -3q-2 0 -1 2z" />
    <glyph glyph-name="z" unicode="z" horiz-adv-x="908" 
d="M43 23l4 -17h594q22 0 57.5 7.5t71 22t63.5 34.5t37 45h-35q-38 0 -92 1t-104 2q-36 1 -64 1h-41q-9 0 -23 1.5t-30 4.5t-31 7t-25 9l603 635l7 25h-693q-3 0 -16.5 -19.5t-29.5 -46.5t-31 -54.5t-20 -42.5h29q51 45 111 59.5t123 14.5q27 0 52.5 -1.5t50.5 -3.5
q21 -2 41.5 -3t38.5 -1l1 -4q1 -2 0.5 -3t-0.5 -3q-2 -2 -7.5 -10t-9.5 -11zM19 24l606 625q-5 0 -8.5 0.5t-7.5 1.5q-39 3 -77 3q-59 0 -117.5 -14.5t-109.5 -60.5h-55l-25 37h-8q5 18 24.5 52t42 68.5t41.5 60t23 25.5h714l-3 -8l27 -36l-14 -50l-555 -586q7 -1 12 -1h11
h41t64 -1h35q9 0 18 -0.5t18 -0.5q35 -1 67.5 -1.5t57.5 -0.5h58q0 -1 -1 -3t-1 -3l-1 -2l27 -37q-9 -33 -41.5 -60t-72.5 -46t-80.5 -29t-65.5 -10h-605l-27 37h-6z" />
    <glyph glyph-name="FL007Bh" unicode="{" horiz-adv-x="665" 
d="M159 426l107 -165l196 -289l4 -1l4 1q5 3 13 9t9 8l48 168l-154 233l325 326l114 89l2 3v5l-1 10q-2 6 -2 8h-2q-28 0 -60 -3.5t-64.5 -9.5t-64 -15.5t-58.5 -21.5q-24 -11 -45 -26.5t-41 -32.5zM478 736q20 19 43.5 36t50.5 29q28 12 61 22t66.5 16.5t66.5 10t63 3.5h10
q3 -8 6 -13q2 -6 2 -5l19 -26q5 -11 6 -13.5t2 -4.5l1 -6q1 -9 1 -11t-2 -6q-1 -2 -1.5 -3.5t-4.5 -8.5l-111 -86l-318 -319l125 -186l-1 -3l27 -38l-51 -175q0 -2 -5 -7t-11.5 -10.5t-14 -10.5t-12.5 -7q-4 -1 -8 -1h-5q-1 0 -6 2l-25 35h-1q-1 0 -2 0.5t-2 0.5l-200 295
l-117 180z" />
    <glyph glyph-name="FL007Ch" unicode="|" horiz-adv-x="297" 
d="M398 826l-152 -16l-237 -828h8l25 -37q7 0 28 3t47.5 7.5t56 10.5t54 12.5t41 13t18.5 11.5l224 780l-27 36l2 8h-32q-2 0 -3 -0.5t-3 -0.5h-50zM393 805h35q5 0 10 0.5t10 0.5h11l-219 -763q-1 -4 -14 -8t-33 -8t-44 -8t-46.5 -7.5t-40.5 -5.5t-26 -2l226 786z" />
    <glyph glyph-name="FL007Dh" unicode="}" horiz-adv-x="665" 
d="M576 736q-11 19 -24 36t-33 29q-21 12 -48.5 22t-57 16.5t-60.5 10t-60 3.5h-11l-22 -21l-5 -6q-6 -9 -7 -11t-2 -7q-1 -3 -1 -5v-8l64 -91l131 -314l-279 -225l-50 -176q-1 -3 1 -8.5t5.5 -11.5t8 -11.5t9.5 -7.5h1l14 -22q5 -6 8 -9.5t4 -4.5q3 -1 4 -1h6h4q2 0 9 2
l367 294l218 178l-169 308q-3 5 -6.5 10.5t-7.5 10.5l-4 8zM153 -28l-3 -1l-4 1q-4 3 -9 9t-4 8l48 168l288 233l-139 326l-62 89v3q0 2 2 5l8 10q2 2 3.5 4t2.5 4h2q27 0 57 -3.5t59 -9.5t55.5 -15.5t46.5 -21.5q18 -11 29.5 -26.5t22.5 -32.5l160 -296l-201 -165z" />
    <glyph glyph-name="FL007Eh" unicode="~" horiz-adv-x="578" 
d="M90 265l-3 -11q3 -6 11 -10l20 -30q3 -3 9 -6.5t13 -6t12.5 -4t7.5 -1.5q6 1 15 9t19 18.5t19.5 22t17.5 20.5l2 2v1h343q5 3 10.5 9.5t10.5 11.5l3 3q35 46 62.5 91t41.5 95q5 15 -2 24l-22 29q-2 14 -12 19t-23 5h-17l-54 -64l-4 -2l-6 -3h-339q-8 -6 -16 -15t-12 -14
q-2 -2 -3 -4.5t-4 -5.5q-2 -5 -5 -9t-5 -8q-11 -18 -25 -40.5t-27 -45.5t-23.5 -44t-14.5 -36zM112 265q4 13 13.5 33.5t22.5 42.5t26.5 44t24.5 39q7 12 14 23q3 4 7 10t6 8h333q2 0 11.5 4t14.5 6l51 59h3q8 0 14 -3t4 -13q-14 -47 -40.5 -90t-59.5 -88l1 1l-8 -8t-5 -6
h-344l-5.5 -5.5t-6.5 -8.5q-7 -8 -15.5 -17.5t-17 -18.5t-14.5 -15.5t-8 -7.5q-4 0 -12 2t-11 6z" />
    <glyph glyph-name="FL007Fh" horiz-adv-x="256" 
 />
    <glyph glyph-name="FL00A1h" unicode="&#xa1;" horiz-adv-x="282" 
d="M379 655q2 0 4 2.5t4 4.5q6 8 13 22t13.5 29t12 30.5t8.5 26.5l10 34q-15 0 -28.5 0.5t-24.5 0.5h-34q-18 0 -35.5 -0.5t-40.5 -2.5q-17 -20 -27 -47t-18 -53l-9 -32q-2 -5 -2 -11q0 -5 6 -5zM215 633q-14 3 -12.5 15.5t3.5 21.5l9 32q8 27 21.5 59t37.5 61q31 3 51 3.5
t38 0.5h64q5 0 10.5 -0.5t11.5 -0.5h23l-3 -8l26 -36l-15 -51q-3 -12 -9 -28.5t-12.5 -33t-14.5 -31.5t-15 -24h-1q-5 -5 -13.5 -11t-13.5 -6l-148 -1q-13 0 -16 7zM107 8l104 9l157 536q1 7 -22 7q-18 0 -44 -4t-50.5 -9.5t-42 -11.5t-18.5 -10l-150 -518h31q5 0 10.5 0.5
t10.5 0.5h14zM21 -15h-7l156 540q1 6 22 16t49.5 19t59 15.5t51.5 6.5q19 0 29.5 -6t8.5 -17l22 -31q5 -6 2 -15l-161 -553l-123 -11h-15q-3 0 -6 -0.5t-5 -0.5h-57z" />
    <glyph glyph-name="FL00A2h" unicode="&#xa2;" horiz-adv-x="895" 
d="M774 815l-155 -15l-41 -143q-68 -8 -129 -22t-119 -41q-78 -38 -133 -93.5t-78 -133.5q-14 -48 -3 -85t40 -65l12 -16q30 -46 95.5 -71.5t153.5 -35.5l-35 -123h8l26 -37q8 0 29 3t48 7.5t56.5 10.5t54.5 12.5t41.5 13t18.5 11.5l28 98h185l30 101l-27 36l2 8h-23
q-6 0 -12 -0.5t-12 -0.5q-8 0 -15 -0.5t-14 -0.5h-15t-13 -1q-7 -1 -13 -1h-12q-5 0 -10.5 -0.5t-10.5 -0.5l83 288l66 -28l95 5q63 46 71 72q3 11 1.5 17.5t-6.5 13.5l-19 26q-1 11 -8 18.5t-20 17.5h-1l1 1q-1 0 -1 1v1h-138l31 109l-25 36l2 8h-33q-2 0 -3 -0.5t-3 -0.5
h-51zM769 794h35q5 0 10.5 0.5t10.5 0.5h11l-44 -153h187q11 -11 17 -18t3 -17q-2 -8 -15.5 -22t-36.5 -32l-86 -5l-85 39l-109 -380q25 2 51 2.5t54 1.5q20 1 40 1.5t43 1.5l-19 -65h-185l-34 -117q-1 -4 -14.5 -8t-33.5 -8t-44 -8t-46.5 -7t-41 -5.5t-27.5 -2.5l45 157
q-77 3 -141 17.5t-107.5 41t-62 66t-3.5 92.5q20 72 69.5 122t123.5 85q61 29 125 43t136 21l40 141zM581 591q-44 -12 -74.5 -33.5t-51 -49t-33 -57.5t-20.5 -58t-14 -55t-4 -50.5t14.5 -43t41.5 -32.5l2 -1l-1 -1l27 -13zM456 231q-8 2 -13 5.5t-9 6.5q-5 24 1 53t15 58
q10 36 28 74.5t54 67.5zM459 213l5 -2z" />
    <glyph glyph-name="FL00A3h" unicode="&#xa3;" horiz-adv-x="949" 
d="M112 264q2 -4 10.5 -6t12.5 -2q4 1 11 5.5t14.5 10t13.5 11t9 8.5h189l-32 -113q-7 -23 -20 -37.5t-29.5 -23t-35.5 -13.5t-38 -9q0 -2 -1 -3.5t-2 -3.5q-2 -10 1 -14.5t11 -12.5q1 -2 7 -6.5t14.5 -10.5t17 -12.5t16.5 -11.5h-1q1 -2 4 -4t5 -4q23 1 45 1h44
q66 0 128 -2l124 -4q61 -2 122.5 -4t126.5 -2l48 166l-12 17l-127 -99q-15 -1 -19 -1h-10h-23q-4 0 -7 0.5t-6 0.5h-6q-16 2 -41.5 5t-50.5 6t-43 5.5t-19 4.5l-7 11l61 213h308l7 26q-2 2 -2.5 3t-2.5 6q-7 11 -18 26.5t-19 22.5q-2 2 -8 5.5t-8 3.5l-222 30l101 348
l-233 4l-99 -343h-197q1 0 -3.5 -6.5t-8.5 -11.5q-4 -6 -8 -13.5t-9 -16.5q-11 -17 -23.5 -37.5t-24.5 -40.5t-21 -38t-13 -31zM91 267q4 13 12 30.5t18.5 36t22.5 37.5t23 36q2 4 4.5 7.5t4.5 6.5q2 4 4.5 7.5t4.5 7.5q2 2 3 5t1 2l6 9q5 9 15 20.5t21 11.5h175l98 342
l276 -4l-3 -8l27 -36l-90 -311l172 -22l-1 -2q5 -2 11.5 -5.5t11.5 -6.5q8 -8 19.5 -24.5t18.5 -28.5q3 -5 4 -6.5l5 -7.5v-2q4 -7 8 -13.5t9 -11.5q2 -5 3 -6.5t6 -7.5l-15 -52h-308l-44 -153q11 -1 24 -2t26 -3q18 -2 34 -3.5t27 -2.5h14q1 0 1 -1h2h23h8t14 1l136 107
l28 -39l-1 -4l26 -37l-55 -192q-66 0 -136 2t-132 4l-124 4t-129 2h-45q-23 0 -46 -1h-4v2q1 0 -12 7q-9 7 -26.5 21t-27.5 23l-1 1v-1l-6 6t-6 8l-16 22q-3 0 -2 2q-14 13 -17.5 20t1.5 24l2 5v1q1 0 1 1l6 20q19 4 38 8.5t35 11.5t27.5 17t16.5 26l16 54h-118
q-12 -9 -29.5 -20.5t-25.5 -13.5q-2 0 -7.5 1.5t-12.5 4t-13 6t-8 7.5l-21 29q-9 3 -12 10z" />
    <glyph glyph-name="FL00A4h" unicode="&#xa4;" horiz-adv-x="1025" 
d="M542 374q-11 -36 -9 -62q10 -6 21.5 -8t25.5 -2q48 0 87 30.5t59 99.5q5 17 5 32t-2 27q-16 8 -34 8q-24 0 -47.5 -6.5t-43.5 -21.5t-36 -39t-26 -58zM495 413q23 79 71.5 112t105.5 33q22 0 40 -7.5t29.5 -23t13.5 -39.5t-7 -56q-23 -80 -69.5 -116t-105.5 -36
q-53 0 -75.5 31.5t-2.5 101.5zM361 403q-12 -40 -15.5 -73.5t4.5 -62.5l-313 -264l-10 -35q24 4 53 10.5t58 16t56 22t49 29.5l174 135q23 -13 51 -18.5t60 -5.5q58 0 104 13l39 -65q11 -17 23 -32t29 -26q42 -24 102.5 -37t116.5 -13h2q0 1 2 3.5t4 4.5l8 10q2 3 3 5v3
l-63 88l-81 192q39 60 60 134q17 59 10 105l160 129l49 168q0 2 -5 8t-9 9l-3 1l-5 -1l-264 -212q-48 21 -98 21h-22q-6 0 -12 -0.5t-11 -1.5l-64 153q-14 1 -17 1h-9h-10q-3 0 -6.5 -0.5t-6.5 -0.5h-19q-7 -1 -21 -2t-32 -2.5t-38.5 -3.5t-40.5 -4q-30 -3 -54 -5l-36 -3
l-7 -25q1 -1 3 -1q14 -8 29.5 -20t22.5 -28q4 -6 8 -17t11 -25q11 -26 27 -60t33 -66q-54 -60 -79 -151zM339 403q12 45 31.5 81.5t42.5 68.5q-14 29 -29 59.5t-24 53.5q-2 3 -4 9l-6 12q-2 3 -4 9q-2 2 -2 4q-4 3 -8.5 6t-8.5 6q-2 0 -2 1q-2 0 -6 2t-6 4l-23 31q-3 0 -3 1
q-5 2 -6 7l17 59q6 0 18 1t27.5 2.5t32.5 2.5t32 3q7 1 13 1q7 0 15 1l22 2l22 2q14 1 27.5 2.5l22.5 2.5q3 0 5.5 0.5t4.5 0.5h29q1 0 2.5 0.5t2.5 0.5h10h14q9 0 23 -1l6 -15h-1l21 -29l44 -108h2q1 0 1.5 0.5t1.5 0.5h22q46 0 94 -18l259 208q7 2 8 2h6q5 0 9 -1
q8 -5 15.5 -17.5t7.5 -18.5l12 -17q1 0 1 -2l4 -3q4 -7 7 -12.5t2 -8.5l-50 -175l-157 -126q2 -22 -0.5 -47t-10.5 -53q-21 -74 -59 -133l75 -174l42 -58v-6l26 -35v-8q0 -2 -1 -4q-1 -4 -2 -6t-7 -11l-4 -6l-4 -4t-16 -15h-10q-29 0 -60.5 3.5t-61.5 10t-56.5 16
t-47.5 21.5q-14 8 -24 18.5t-19 23.5l-8 11q-12 11 -20.5 23t-16.5 25l-12 16q-20 -5 -42.5 -6.5t-45.5 -1.5q-66 0 -110 19l-161 -124q-24 -19 -55.5 -33.5t-65 -25t-66.5 -17.5t-61 -11l-27 36q-2 0 -3 -0.5l-5 -2.5l20 73l307 258q-3 29 0.5 62t14.5 71z" />
    <glyph glyph-name="FL00A5h" unicode="&#xa5;" horiz-adv-x="1015" 
d="M215 264l-3 -11q2 -6 11 -10l21 -28q0 -4 4 -8q-3 -5 -6 -8.5t-5 -6.5q2 4 0 1.5t-5.5 -8t-7.5 -11.5l-6 -9q-1 -2 -1.5 -2.5t-1.5 -2.5l-5 -6q-2 -4 -4 -6q-17 -22 -31.5 -45t-22.5 -49l-3 -11q3 -6 11 -10l22 -30q2 -4 8 -7.5t13 -6t12.5 -4t7.5 -1.5q8 3 25.5 14.5
t28.5 20.5h81l-6 -23q-4 -12 0 -18.5t12 -9.5l21 -30q5 -6 12.5 -8t15.5 -2q2 0 3.5 0.5t3.5 0.5h5q57 0 119.5 11t110.5 22l17 59l133 1q8 0 17 9t14 15q9 12 16.5 21t13.5 17h2q9 10 16 18.5t13 18.5t11.5 23t10.5 32q3 10 1 19h1l-2 3l-2 3h-1l-21 28q-1 5 -3 8t-5 7l4 4
l5 5q1 2 1 1l1 2q9 12 16.5 21.5t14.5 17.5h2q9 10 16 18.5t13 18.5t11.5 23t10.5 31q3 11 0 19h1l-2 3l-2 3h-1l-21 29q-2 14 -12 19t-23 5h-11l-42 -24h-1q0 -1 -1.5 -1.5t-9.5 -4.5l-33 -1q23 34 50.5 65t57.5 54.5t62.5 37.5t67.5 14q8 0 16 -2t17 -4l20 -4t24 -2
q12 0 25.5 7t18.5 25l2 7v23v35t0.5 33t0.5 20q0 14 -9 26l-18 25q-3 15 -13.5 24t-25 13.5t-30.5 5.5t-31 1h-10q-45 0 -86 -16t-77 -42t-68 -61t-60 -72q-11 -14 -23 -33.5t-24 -40.5q2 47 -4.5 87t-26.5 72l-13 16q-18 42 -59.5 66t-120.5 24q-17 0 -42.5 -5.5t-54 -15.5
t-58.5 -24t-55 -31t-43 -37t-24 -41q-2 -5 -2 -6v-4q0 -5 7 -13t12 -10l18 -24q2 -4 5.5 -8t7.5 -5q9 1 19 1.5t19 0.5q44 0 75.5 -10t51.5 -28q17 -28 24 -64t9 -81l-121 -1q-11 0 -21 -10.5t-15 -18.5q2 4 0 1.5t-5.5 -8l-7 -11t-5.5 -8.5q-2 -2 -2 -3l-2 -2l-4 -6
q-2 -2 -2 -3t-2 -3q-17 -22 -31.5 -45.5t-22.5 -49.5zM237 264q6 22 20.5 44t30.5 43q8 11 15.5 21t12.5 19q4 5 8.5 11.5t3.5 6.5l152 1l1 5q0 58 -9 105.5t-32.5 81.5t-63.5 53t-102 19q-9 0 -18 -0.5t-19 -1.5h1q-2 1 -4 3.5t-2 4.5v3q7 27 38.5 51t70.5 42.5t78 29
t62 10.5q73 0 112 -23.5t55 -63.5t15 -93.5t-8 -112.5l-5 -52h23q5 0 13.5 16t22.5 39q17 29 35 61.5t32 50.5q25 35 55 67t63.5 57t70.5 39.5t78 14.5h10q13 0 28 -1t28 -4.5t21 -11.5t8 -22q0 -5 -0.5 -20t-0.5 -33v-33v-23l-2 -4q-2 -8 -7.5 -10.5t-11.5 -2.5
q-10 0 -19 2t-19 4q-9 2 -18.5 4t-20.5 2q-46 0 -89.5 -22.5t-82 -58.5t-71.5 -81t-57 -90l114 1q2 0 10.5 4t13.5 6l34 20h5q8 0 14.5 -3t3.5 -13q-5 -16 -9.5 -27t-9.5 -20t-11.5 -16.5t-14.5 -16.5q-7 -8 -15.5 -18t-18.5 -24v1q-3 -4 -7.5 -9t-3.5 -5l-154 -1l-11 -38
q-3 -11 -7 -24t-8 -27l127 1q2 0 10.5 4t13.5 6l33 19h5q8 0 14.5 -3t4.5 -12q-9 -32 -19 -47.5t-26 -33.5q-7 -8 -15.5 -18t-18.5 -24v1q-3 -4 -7.5 -9t-3.5 -5l-153 -1q-2 -5 -3 -11t-3 -11l-11 -39q-22 -5 -48.5 -10t-54 -9.5t-55 -7.5t-51.5 -3h-2q-2 0 -4.5 -0.5
t-5.5 -0.5q-7 0 -13 1.5t-4 7.5l23 82l-151 -1q-3 -3 -9.5 -8t-14 -10.5t-14.5 -10t-11 -5.5h1q-2 0 -12 2t-12 6v3q7 21 21 43t30 43q8 11 16 21t13 20q4 5 8.5 11.5t3.5 6.5l166 1l26 89l-149 -1q-3 -3 -10 -8.5t-14.5 -11t-14.5 -10t-10 -5.5h1q-2 0 -12.5 2t-12.5 6z
M340 229h79l-2 -7l-89 -1zM807 229q-2 -1 -3.5 -1.5t-8.5 -3.5l-65 -1l2 8h78l-2 -2h-1z" />
    <glyph glyph-name="FL00A6h" unicode="&#xa6;" horiz-adv-x="299" 
d="M414 874l-152 -16l-272 -942h8l25 -37q7 0 28 3t47.5 7.5t56 10.5t54 12.5t41.5 12.5t18 11l258 894l-26 37l2 8h-32q-2 0 -3 -0.5t-3 -0.5h-50zM408 852h35q5 0 10.5 0.5t10.5 0.5h11l-254 -877q-1 -3 -14 -7t-33 -8.5t-44 -8.5t-46 -7t-40.5 -5.5t-26.5 -2.5l260 900z
" />
    <glyph glyph-name="FL00A7h" unicode="&#xa7;" horiz-adv-x="924" 
d="M542 374q-11 -36 -9 -62q10 -6 21.5 -8t25.5 -2q48 0 87 30.5t59 99.5q5 17 5 32t-2 27q-18 8 -35 8q-24 0 -47 -6.5t-43 -21.5t-36 -39t-26 -58zM494 413q12 40 30.5 67.5t41.5 44.5t50 25t56 8q22 0 40 -7.5t29 -23t13.5 -39.5t-6.5 -56q-23 -80 -70 -116t-105 -36
q-26 0 -45.5 7.5t-30 24t-12 41.5t8.5 60zM360 403q-24 -81 -10 -136l-313 -264l-10 -35q24 4 53 10.5t57.5 16t56 22t48.5 29.5l175 135q23 -13 51 -18.5t60 -5.5q54 0 102 13q54 21 103.5 53.5t82.5 80.5q42 62 61 133q16 57 9 105l160 129l49 168q0 2 -5 8t-9 9l-3 1
l-5 -1l-263 -212q-48 21 -98 21q-20 -2 -50.5 -6t-67.5 -16t-77 -33.5t-80 -57.5h1q-26 -29 -45.5 -65.5t-32.5 -83.5zM339 403q28 100 73 151q47 44 93 69.5t86 39t72.5 18t53.5 6.5q47 0 95 -18l259 208q6 2 7 2h6q5 0 9 -1q8 -5 15.5 -17t7.5 -19l17 -22q4 -7 7 -12.5
t2 -8.5l-50 -175l-156 -126q2 -22 -0.5 -47t-10.5 -53q-23 -79 -64 -141q-36 -51 -89 -86.5t-110 -57.5q-56 -15 -111 -15q-66 0 -111 19l-160 -124q-25 -19 -56 -33.5t-64.5 -25t-66.5 -17.5t-61 -11l-27 36q-2 0 -3 -0.5l-5 -2.5l20 73l306 258q-6 59 16 133z" />
    <glyph glyph-name="FL00A8h" unicode="&#xa8;" horiz-adv-x="524" 
d="M285 790q-2 0 -5.5 -4t-5.5 -6q-6 -7 -12.5 -20t-12.5 -28t-11 -30t-8 -25l-9 -33q14 0 27.5 -0.5t24.5 -0.5h35q17 0 35.5 0.5t41.5 2.5q16 20 26 46t17 51l9 32q2 4 2.5 10t-4.5 6zM524 791q-2 0 -5 -4t-5 -6q-6 -7 -13 -20t-13 -28t-11 -30t-8 -25l-9 -33
q14 0 28 -0.5t25 -0.5h35q17 0 35.5 0.5t41.5 2.5q16 20 26 46t17 51l10 32q1 4 1.5 10t-5.5 6zM680 814q13 0 18 -6t4 -14l22 -29q5 -6 3.5 -14.5t-3.5 -13.5l-9 -32q-8 -26 -20.5 -56.5t-36.5 -58.5q-31 -2 -50.5 -2.5t-37.5 -0.5h-64q-11 0 -21 0.5t-19 0.5l-25 33
l-10 -16t-12 -16q-32 -2 -51 -2.5t-37 -0.5h-64q-11 0 -21.5 0.5t-19.5 0.5l-25 36h-8l15 54q3 12 9 28.5t13.5 34t15.5 33.5t17 25l1 -1q5 5 13 10t14 5l150 1q13 0 18 -6t3 -14l20 -24q3 8 9 15.5t11 14.5l1 -1q5 5 13.5 10t13.5 5z" />
    <glyph glyph-name="FL00A9h" unicode="&#xa9;" horiz-adv-x="2370" 
d="M1841 187l-2 -16q3 -4 9 -11.5t14 -15.5l10 -13q5 -6 17 -19t27 -30t32 -35.5t32 -35t27 -29.5t18 -19h1l3.5 -3.5t3.5 -2.5q-1 -3 4 -3q1 -2 5 -4q1 -1 3.5 -2t18.5 -7l426 477l-29 37l9 9h-269q19 20 36 39t28 31l6 -4q1 -3 5 -5q-2 -3 4 -3l5 -8l6 -3q6 -2 7 -4t3 -4
q1 -2 4.5 -4t4.5 -4q3 -3 11 -5h1q5 -2 10 -3.5t14 -3.5l22 19l78 72l-28 38l3 2q-5 7 -20.5 27t-33.5 42.5t-33.5 42.5t-20.5 26l-1 -2q-7 5 -15.5 13.5t-15.5 13.5v1l-5 2.5l-5 2.5l-1 -1q-4 4 -10 4.5t-23 0.5l-396 -456l110 384l-26 37l2 8h-143l-211 -734h8l27 -37h135
l89 310l23 -34h88q-2 -2 -3 -2t-2 -1q-4 -2 -6 -4q-4 -2 -8 -5l-8 -6q-2 -2 -4 -2.5t-4 -2.5l3 -4q-5 -4 -10 -7.5t-8 -5t-2 0.5t9 8q-8 -5 -10.5 -6.5t-7.5 -5.5l-1 3q-5 -4 -7 -5t-7 -3l-5 -4q-4 -3 -9.5 -7.5t-7.5 -6.5zM180 579l-157 -546h8l27 -37h136l9 32q3 11 7 23
t7 20q4 2 3 2l9 7q3 2 7 5l8 6h1l18 14q23 17 53 38t60 41l-41 -143h8l26 -37h147l216 752l-27 37l4 11zM1413 755v-1q-2 0 -3 0.5t-3 0.5q1 -1 1 -2l1 -1h-1v1q-4 1 -8 1.5t-6 1.5t-3.5 1.5t-4.5 0.5h-4h-1q0 1 -1 1q-27 4 -44 6t-19 2h-51l-215 -749h8l27 -36
q30 6 42 10.5t18 7.5h-1h1q0 1 1 1h1t3 1l11 4q20 6 42 15t47 20q2 2 7.5 4t10.5 4l7 3q32 14 67 28.5t69 28.5q14 6 28 11.5t27 10.5q17 8 32.5 14t29.5 12q18 8 34.5 14.5t24.5 10.5h-1q5 4 11.5 9.5t13.5 11.5q4 4 4 11q2 3 2 6t-2 17l-55 225l-23 31l-2 16
q-46 -14 -84.5 -30t-67.5 -29l-16 -7l32 110l231 -35h17q7 5 17 13t15 13q6 8 9 13t5 10q0 2 1 3.5t2 3.5q5 11 6.5 14.5t3.5 6.5q6 11 10.5 20t8.5 15l-1 1q0 1 1.5 2t2.5 2l9 30l-27 37l2 6q-5 1 -13 4t-16.5 5.5t-16 4.5t-11.5 3q-24 3 -52 6q-12 2 -23.5 3t-25.5 3
q-11 2 -23.5 3t-24.5 3q-10 2 -19.5 3t-19.5 2q-11 1 -25.5 2t-25.5 3v2h-4zM611 295q-5 -17 5 -30t19 -18l13 -19q6 -8 11.5 -12.5t7.5 -6.5l2 -2l-1 1q1 -2 4 -2l5 -3q9 -6 23 -15t32 -21t39 -26.5t43 -29.5l3 -1h-1q27 -20 56 -38t53 -34l2 -3l10 -7v1q12 -9 16 -11h-1
q5 -3 12 -8.5t6 -4.5l3 -1.5t8 -5.5l6 -3q5 -4 16 -6t34 -2l41 142l-26 37l1 4l-16 22q-26 14 -54 30t-55 35l182 99l49 38l-28 38l8 6q-30 10 -40.5 15t-15.5 9h-1q0 1 -1 1h1q-2 1 -6 5q-2 0 -2 1l-1 2q-5 5 -15.5 11l-24.5 14v-1q-5 3 -11 5.5t-11 6.5q5 2 10.5 4t10.5 5
h-1q12 6 25.5 13t27.5 14h-1q8 4 15.5 8t15.5 8q26 14 47.5 25t32.5 16l24 19l44 150l-27 36l3 12l-502 -235q-1 -1 -5 -2l1 2l-8 -6q-1 -1 -2 -1q-8 -4 -19.5 -12.5t-31.5 -30.5l19 -25q0 -3 5 -3l10 -13l17 -23q12 -5 34 -24l25.5 -17t23.5 -16l-179 -90
q-10 -12 -12 -15.5t-3 -10.5zM431 300q-11 -8 -28 -19.5t-33 -22.5q-18 -12 -36.5 -24.5t-35.5 -23.5t-30.5 -21t-21.5 -16v1q-6 -5 -17 -13.5t-19 -14.5q-9 -7 -16 -12t-12 -9l-5 -4l-2 -2q-4 -7 -10 -23.5l-10 -27.5l-3 -13h-100l146 509l479 205l-203 -706h-111z
M1311 745q2 0 18.5 -2t42.5 -6q8 -1 16.5 -1.5t16.5 -2.5q32 -5 69.5 -9t72.5 -9q29 -4 55 -6.5t46 -5.5q5 0 18.5 -4t20.5 -6l-4 -13q0 1 -1.5 -2.5t-2.5 -5.5q-4 -6 -7.5 -13t-9.5 -18l-6 -10t-6 -12l1 1q-5 -10 -9 -17.5t-7 -11.5l2 1q-3 -3 -9 -8t-10 -7h-9l-251 38
l-115 -401l172 69l20 14q-5 0 -13 10.5t-10 15.5l-26 84l-2 -1q-1 4 -1 10q0 7 1 12q26 11 61.5 26.5t69.5 26.5l53 -217l1 -11q-1 -1 -1 -2l-2 -2q0 -1 -0.5 -1.5t-0.5 -1.5q-3 -2 -7 -5t-7 -5q-17 -7 -47.5 -19t-68.5 -28q-45 -19 -95 -39.5t-96 -40.5q-5 -2 -9.5 -4
t-9.5 -4h1q-32 -14 -56.5 -23t-38.5 -14l-11 -4q-2 -1 -3 -1l-2 -1q-8 -3 -15.5 -6t-18.5 -6l201 699h29zM1873 198l2 2q6 3 7 4q-12 -6 -7.5 -3t16.5 10.5t26.5 16t22.5 13.5q6 4 10 6t6 4q17 -6 29 -19.5t23 -27.5q11 -15 21 -26.5t21 -11.5q4 2 6 6q2 2 5 5.5l3 3.5
l125 143h-327l382 441q5 0 7 -0.5t4 -1.5l8 -5q1 0 1.5 -0.5t1.5 -0.5h-1q9 -6 21.5 -17t14.5 -12q4 -6 17 -22t27.5 -34t27.5 -35t18 -25l-62 -59l-13 -11q-5 1 -6.5 1.5t-3.5 2.5v1l-8 3l-10 8q-3 3 -6.5 6t-7.5 6q-3 2 -6 5l-5 5q-6 5 -13 11.5t-12 10.5q-2 -5 -3.5 -6.5
l-3.5 -3.5q-8 -9 -26.5 -28.5t-38.5 -41.5t-37.5 -41t-24.5 -27q-4 -5 -5.5 -6t-6.5 -6h332l-392 -438l-6 4q-2 2 -4.5 3t-2.5 2q-2 1 -5 4q-3 4 -5 5l1 -1q-9 8 -30 30.5t-44.5 48t-44 48.5t-28.5 33v9q2 2 10 8zM633 295q0 2 0.5 3t5.5 7l-1 -2l215 110q-11 16 -24 27.5
t-24 19.5q-5 5 -24.5 17.5t-41.5 25.5h1q-20 15 -32 21l-9 10q11 11 19.5 16t14.5 9l4 2l-1 -1q4 2 5 3l465 219l-33 -117l-12 -10q-13 -5 -45 -21t-67 -34t-65.5 -33.5t-44.5 -21.5l-9 -5q-3 -1 -13 -6q6 -4 15.5 -10t19.5 -11q4 -2 7.5 -3.5t7.5 -3.5l30 -18t28 -17
q11 -7 20 -12.5t14 -8.5q2 -4 5 -5.5t6 -3.5q9 -7 26 -15l-17 -13l1 1l-224 -120v-1l-10 -7q41 -35 88 -63.5t89 -51.5l5 -9l-33 -116q-10 0 -14.5 2t-7.5 4l-2 1l-4 3q-6 4 -13 8.5t-16 9.5h1q-6 5 -13 9.5t-15 9.5l-52.5 35t-56.5 39q-24 16 -47 31.5t-42.5 28.5t-34 22
t-21.5 14q-2 0 -4 4q-5 3 -13.5 11.5t-6.5 16.5zM1800 738h99l-198 -690h-99zM474 462l37 128q-22 -8 -59.5 -22t-74.5 -29t-64 -27.5t-28 -17.5l-66 -228zM331 454l12 5t31.5 12.5t43 16t47.5 17.5l-10 -35l-153 -117zM1363 403l-3 -2l26 -84q2 -5 5 -9.5t6 -9.5l-80 -33
l46 159q-1 -5 -0.5 -10.5t0.5 -10.5zM2028 218q-10 14 -21.5 25.5t-25.5 21.5h129l-63 -73q-5 5 -9.5 11.5t-9.5 14.5zM1903 233l3 1.5t3 2.5l-3 4l-2 -2zM1411 749v0q0 1 1 1v-1q0 -2 1 -2.5l1 -0.5q-5 1 -3 3q-1 0 -1 1zM2000 6l1 1l1 -1l-2 -1q-1 0 0 1zM1886 207v-1
q-2 -2 -4 -2zM1411 749h1h-1z" />
    <glyph glyph-name="FL00AAh" unicode="&#xaa;" horiz-adv-x="590" 
d="M148 467l-5 -17q-1 -4 10 -11l22 -32q3 -4 16 -10.5t23 -6.5h7q1 0 1.5 -0.5t2.5 -0.5h13h10q3 0 11 1l18 14l62 79q4 6 16 9.5t27 5.5t31.5 3t31.5 2h9q2 0 5.5 0.5t5.5 0.5h3q-1 -3 0 -5.5t1 -4.5q-1 -4 -1 -8v-6q-1 -3 -0.5 -5.5t0.5 -4.5q-2 -15 0 -25t13 -13l-1 1
l24 -32q4 -6 13 -6h153q3 0 11 4.5t16 13.5q3 9 1 18h1l-2 1q0 1 -0.5 1.5t-0.5 1.5h-1l-22 29q0 8 -4 12t-9 8q-2 6 -3 13t-2 15l-57 307l-3 2l1 -1h-1v1v3l-21 30l-1 4v1q-2 6 -7.5 10.5t-13.5 4.5q-14 0 -29.5 -5t-26.5 -10q-29 -11 -43.5 -27.5t-26.5 -37.5l-11 -15
q-1 -2 -1 -3l-2 -2t-2 -4l-1 -1l-1 -1l-62 -78q-48 -60 -97 -116t-96 -101zM365 682l62 79q5 7 9 13t9 13q10 17 20.5 30t30.5 21q1 0 5 2q9 4 21.5 8t22.5 4q5 0 5 -3l56 -306q5 -19 13 -39.5t23 -36.5l4 -3q5 -5 5 -6l-1 -2q-2 -2 -2 -3v0h-154q-2 0 -2 10v24
q0 12 -0.5 26t-2.5 25t-6.5 18.5t-13.5 7.5h-1l-27 -2q-5 0 -10 -0.5t-10 -0.5q-17 -1 -36 -2.5t-37 -4.5t-32 -9t-21 -15l-62 -79l-4 -3q-8 -1 -10 -1h-5h-13q-2 0 -3.5 0.5t-3.5 0.5h-4q-6 0 -15.5 1l-9.5 1l4 14q54 52 102 106.5t94 111.5zM358 612q0 -3 0.5 -3.5
t5.5 -2.5h107l-17 112l-7 10l-87 -109z" />
    <glyph glyph-name="FL00ABh" unicode="&#xab;" horiz-adv-x="514" 
d="M100 301q-4 -14 -0.5 -19.5t11.5 -7.5l21 -32q3 -5 8 -5.5t11 -0.5q11 -15 31.5 -36.5t41.5 -41t36.5 -33t16.5 -13.5h37q3 9 6.5 20t6.5 22l26 91l1 -1q2 -5 6.5 -5.5t10.5 -0.5q12 -15 33 -36.5t41.5 -41t36 -33t16.5 -13.5h37q2 8 6 19.5t7 22.5l30 107q1 2 2 7t1 14
l-26 34l1 2v6q-11 3 -28 21q19 12 44.5 26.5t38.5 21.5q4 6 5 11t3 10l6 20q0 4 1 6l2 7q0 3 0.5 5.5t1.5 5.5l19 65q3 11 5.5 21t4.5 19l-26 37l2 8h-39q-1 0 -20 -11t-45.5 -27t-56 -35.5t-52.5 -35.5l7 25q3 10 5 19.5t4 17.5l-26 37l2 8h-39q-1 0 -12.5 -6.5
t-29.5 -17.5t-40.5 -24.5t-44.5 -28t-41.5 -28t-31.5 -23.5q-16 -3 -26 -19v1q-4 -5 -4 -10zM167 452l2 2q3 5 10 6q16 14 47.5 35.5t62.5 41.5t55 34.5t25 14.5h17q-5 -16 -8 -29t-6 -24l-10 -35q-2 -6 -3 -10t-1 -7q-1 -3 -1 -8l-6 -19q-1 -2 -1 -4t-2 -4q-6 -3 -20 -12
t-30.5 -19.5t-32 -20.5t-25.5 -17q6 -8 16 -18.5t20.5 -21t20 -18.5t14.5 -11q0 -6 -1 -8l-22 -77q-3 -11 -7.5 -24.5t-8.5 -28.5h-18l-15.5 14.5t-35.5 34t-40 40.5t-29 35h-3q-5 0 -8 1t-1 6zM387 454l3 2q3 5 10 6q16 14 47 35.5t62.5 41.5t55.5 34.5t25 14.5h18
q-5 -16 -8.5 -29t-6.5 -24l-10 -35q-2 -6 -2.5 -10t-1.5 -7q0 -6 -1 -8l-5 -19q-1 -4 -4 -8q-6 -3 -20 -12t-30 -19.5t-32 -20.5t-25 -17q5 -8 15 -18.5t21 -21t20.5 -18.5t14.5 -11q0 -2 -0.5 -4t-0.5 -4l-22 -77q-4 -11 -8 -24.5t-9 -28.5h-18q-1 0 -16 14.5t-35 34
t-39.5 40.5t-28.5 35h-3q-5 0 -8.5 1t-1.5 6zM307 344q7 5 15 10l16 10l-10 -37q-5 3 -10 7.5t-11 9.5z" />
    <glyph glyph-name="braceleft" unicode="&#xac;" horiz-adv-x="750" 
d="M473 641h2q-1 -2 -0.5 -9.5t0.5 -12.5q0 -2 0.5 -8.5t1.5 -14.5t2 -15t0 -11q1 1 2 1q5 0 7 4.5t4 9.5q1 3 1 5q0 3 1 5l1 6q5 16 7.5 28.5t2.5 29.5h-3q-5 0 -14 -3.5t-11 -11.5zM276 340q-5 -18 -4.5 -38.5t2.5 -39.5q5 10 11.5 18t12.5 16q8 11 15 22t10 22l1 2
q2 5 2.5 11t-6.5 6q-1 0 -3 -0.5t-12 -3.5q11 12 17 21.5t9 18.5h-4q-3 0 -8.5 -0.5t-10.5 -0.5h-12q-4 -1 -9 -3t-7 -4t-2 -5q-3 -9 2 -18t13 -9l-2 -6q-2 0 -7.5 -2.5t-6.5 -4.5zM533 651q-6 -20 -8.5 -34.5t-4.5 -34.5q10 0 27 17.5t35 39.5q11 13 21 24.5t19 19.5h-22
q-15 0 -27.5 -1t-33.5 -8zM346 461q-13 -6 -27 -10.5t-27 -4.5l-10 -36q54 8 85 47t46 92h10q2 0 5 -0.5t6 -0.5q4 0 6.5 1.5t4.5 8.5l1 3q1 3 0 12t-2.5 19t-3 18t-2.5 10q0 3 -3 6l-39 -30l23 -46h-8l-4 -3l-32 30l1 -1l-5 1v-1l-34 -39l28 -15l-4 -12q-15 0 -18 -1
q-2 0 -3.5 -0.5t-2.5 -0.5q-3 0 -6.5 1t-11.5 6q-2 -2 -3.5 -5.5t-3.5 -8.5v1q0 -1 -1 -1.5t-1 -1.5l-7.5 -15t-4.5 -13l-1 -5h50zM159 198q-2 -1 -5.5 -5.5t-5.5 -6.5q-3 -2 -10 -11.5t-15 -20.5q-5 -7 -9.5 -13l-7.5 -10q24 7 45.5 21.5t39.5 34t30.5 41.5t18.5 43
q7 26 9 51l4 50q1 24 3 49.5t10 51.5q19 67 57 113t88 74.5t108 41.5t118 13h9q2 4 4.5 8.5t5.5 9.5q13 24 31 52t42 42l-24 11h-144q-14 -5 -29 -7.5t-30 -4.5q-11 -2 -20.5 -3.5t-20.5 -4.5q-45 -12 -87.5 -38t-78 -61.5t-61.5 -77.5t-38 -85l-6 -22q-11 -37 -10.5 -73.5
t3.5 -71.5q2 -35 3 -71t-10 -74l-3 -9q-2 -10 -6 -20q-2 -5 -3.5 -8.5t-1.5 -5.5zM453 96l7 -10q0 -1 9 -8q9 -8 21.5 -18t17.5 -10q31 -20 63 -29t73 -9q2 9 0.5 19.5t-5 20t-7.5 17.5l-7 14q-8 27 -8 56t3 57.5t8.5 54.5t10.5 47q-1 14 -9 19t-17 9q-8 3 -14.5 7t-8.5 14
q2 9 13 12t20 3h9q20 0 29.5 -14t18.5 -32q8 -23 23 -42t49 -20q4 21 -6.5 61.5t-27 84t-35 81t-30.5 52.5q-13 14 -36 21t-42 7q-40 0 -75 -14.5t-64 -40t-50 -60t-32 -74.5q-9 -30 -11.5 -58.5t-4.5 -57.5q-1 -29 -4 -58.5t-12 -62.5q-8 -26 -16.5 -46.5t-26.5 -46.5
q14 5 28.5 10.5t28.5 12.5q27 11 54.5 21.5t54.5 10.5zM82 103q-1 0 -1.5 -0.5t-1.5 -0.5h-5l14 47q6 0 9 3t7 8q1 1 1 2q8 11 17.5 22.5t15.5 16.5l2 2l3 8q0 2 1 3t1 3q4 10 6 18l3 9q9 31 9 61t-1 61l-2 14q-4 37 -4 74q0 38 12 80l6 22q13 46 41.5 91.5t66.5 84t84 67
t96 40.5q11 3 21.5 4.5t22.5 3.5q2 0 2.5 0.5t2.5 0.5h-1q14 2 27.5 4.5t26.5 7.5h154l63 -30l-8 -4l25 -37q-43 -22 -63.5 -50.5t-33.5 -51.5q-2 -3 -4.5 -6.5t-4.5 -7.5q-2 -2 -2 -3v0l7 -10q-28 -22 -43.5 -38t-27.5 -30l-12 -12l2 1q-2 -1 -2 -2v0q17 -4 31.5 -11.5
t25.5 -18.5q5 -6 11 -15t12 -22l5 -7q9 -12 20.5 -35.5t24 -52.5t23.5 -61.5t19 -63t10.5 -56t-1.5 -40.5q-37 0 -56.5 10.5t-30.5 25.5l-17 22l-2 2l-2 2q-5 -20 -10 -44.5t-8.5 -51t-3.5 -53.5t6 -52l1 -1q3 -6 7.5 -16.5t7.5 -23.5t3.5 -29t-4.5 -34q-98 0 -159 39
q-8 2 -21 13t-23 19v-1q-4 2 -4.5 3.5t-4.5 4.5l-7 8l1 -1l-4 1q-21 -2 -44.5 -10t-46.5 -19l-6 -3q-14 -6 -35 -14t-59 -19l-29 36h-3q-1 0 -4 -0.5t-4 -0.5q18 25 29 43t18.5 32.5t11.5 26t8 24.5q5 17 7 33.5t4 33.5l-23 -1l-9 11q-10 -23 -26.5 -46t-38.5 -43t-49 -35
t-57 -21z" />
    <glyph glyph-name="FL00ADh" unicode="&#xad;" horiz-adv-x="497" 
d="M91 267l-4 -11q3 -7 12 -10l20 -29q2 -4 8.5 -7.5t13.5 -6t12.5 -4t7.5 -1.5q8 2 25 13.5t29 21.5l262 -1q8 0 16.5 8.5t12.5 14.5q2 3 4 5.5t4 5.5q32 43 57.5 82t38.5 85q3 10 0 18h1l-2 3l-2 3h-1l-21 29q-2 13 -11.5 18t-22.5 5h-11l-42 -23h-1q-1 -1 -2.5 -1.5
t-7.5 -4.5l-257 1q-11 0 -21.5 -11.5t-15.5 -20.5l-6 -8l-1 -2.5t-3 -4.5q-3 -8 -9 -15q-4 -7 -9 -14q-11 -17 -22 -35.5t-21.5 -37t-18.5 -35.5t-12 -30zM113 267q3 13 12 31t20.5 37.5t24 39.5t23.5 37q6 9 10 16.5t8 12.5t9 11.5t4 6.5l258 -1q2 0 10.5 4t13.5 6l34 20h5
q8 0 14.5 -3t3.5 -13q-13 -47 -39.5 -86t-59.5 -84v1q-4 -4 -8 -9t-3 -5l-270 1q-3 -3 -9.5 -8t-14 -10.5t-14.5 -10t-11 -5.5q-4 0 -12 2t-10 6z" />
    <glyph glyph-name="FL00AEh" unicode="&#xae;" horiz-adv-x="2377" 
d="M181 581l-158 -549h8l27 -37h154l11 41q2 8 6.5 19.5t9.5 19.5l9 7q5 4 14 11t16 12l9 7q8 5 24 16q12 8 26.5 17.5t30.5 20.5l-37 -127h8l27 -37h166l76 268q4 -9 10 -15.5t12 -10.5v1l16 -20q10 -14 18 -19q2 -4 4.5 -5t5.5 -2q9 -5 24.5 -14.5t35.5 -23.5
q9 -6 18.5 -12.5t20.5 -13.5q37 -24 77 -49.5t73 -47.5l1 -1q4 -3 8 -6.5t9 -6.5q2 -4 4.5 -5t5.5 -2l-1 1q8 -8 15 -12t12 -6l1 -2l11 -4l1 2q10 -5 24 -7.5t34 -2.5l7 23l21 -30q38 9 54 13t23 7l6 3l-2 -1l9 4q3 0 5 1q4 2 9.5 4t14.5 6q2 1 3.5 1.5t3.5 1.5
q16 7 35.5 15t42.5 17q42 16 89.5 35.5t91.5 37.5t79 33t51 22v2q5 3 9 6.5t9 6.5l-49 -169h8l27 -37h153l79 277l6 -8h76l-8 -6t-7 -5q-7 -5 -14 -9.5t-12 -8.5l-2 4q-5 -3 -11.5 -7.5t-11.5 -8.5l-6 -5l-7 -13l-3 -29q4 -5 9 -11.5t13 -14.5l11 -14q7 -9 29 -32.5
t46.5 -50t46.5 -50t30 -32.5h3l4 -6q3 -2 16.5 -9.5l22.5 -12.5l441 490l-28 37l8 9h-140l20 15l3 3l2 2l85 79l-29 37l4 4q-4 4 -11 12t-15 18t-17 20.5t-16 19.5q-10 12 -19.5 24.5t-16.5 22.5q-3 4 -5.5 7.5t-4.5 5.5l-5 7l-5 -4q-3 8 -7.5 12t-9.5 7v-1q-1 1 -3 3.5
t-3 3.5l-1 -3l-2 3q-3 3 -5 4q-4 0 -2 2l-8 3h1h-1q-4 7 -12.5 8t-29.5 1l-370 -421l100 349l-26 37l2 8h-161l-27 -94l-25 36l2 7q-10 2 -17 4q-9 2 -14 3t-8 2h-4q-4 0 -5 -1l-4 3v-1q-6 6 -11 7q-22 2 -52.5 5.5t-64.5 8.5q-29 4 -60.5 7t-58.5 6l1 2q-40 5 -69.5 8.5
t-36.5 3.5h-45l2 7l-26 36l3 12l-502 -233l-2 5l-18 -14l-4 -2h-2q-5 -3 -13 -8t-20 -16l59 207l-26 37l3 11zM423 281l-46.5 -31t-50 -33t-44.5 -29.5t-29 -19.5q-4 -3 -8 -6.5t-10 -7.5q-11 -8 -21 -16t-16 -13q0 -1 -1 -1v0l1 1q-3 -2 -3 -3q-5 -8 -10.5 -22.5
t-7.5 -24.5l-7 -21h-119l147 512l496 209l-205 -714h-130zM1311 746q2 0 28 -3.5t66 -8.5q29 -3 62.5 -6.5t65.5 -8.5q67 -9 112 -14q0 -1 9 -3t16 -4q5 -2 11.5 -3.5t11.5 -3.5l-5 -18q-4 -5 -8.5 -14t-10.5 -20q-1 -2 -1.5 -3.5t-2.5 -3.5l-13 -24q-5 -10 -9 -17.5
t-6 -11.5l-3 -2q-4 -4 -9 -8t-10 -6h-14l-239 35l-104 -365l153 60l22 16q-8 0 -19.5 4.5t-13.5 7.5h1l-26 81l-1 -1q-1 6 -1 16t1 16q27 12 66.5 28t80.5 29l56 -223v-8q0 -1 -1 -3q-1 -5 -1 -6l-2 -1q-2 -2 -2 -3q-5 -4 -13 -8.5t-13 -6.5l-1 -3q-19 -8 -52.5 -21.5
t-74 -30t-84.5 -34.5t-84 -34q-25 -11 -46.5 -19.5t-38.5 -14.5q-9 -4 -16.5 -7l-12.5 -5t-8 -2q-2 0 -4 -2l-1 -1q-6 -3 -15.5 -5.5t-35.5 -8.5l202 703h38zM2292 731v1q2 -2 4 -2.5l2 -0.5h1l-1 -1q5 -6 18.5 -23.5t29.5 -37.5q14 -19 27 -35t20 -24l-68 -65l-2.5 -2.5
l-1.5 -1.5l-12 -10q-12 2 -14.5 2.5t-6.5 2.5q-2 2 -3 2.5l-3 1.5q-1 0 -1 1q-2 1 -4.5 2t-3.5 3q-4 3 -8 7t-9 8v-1q-4 3 -7 6t-7 6q-5 6 -12 10q5 0 10 5q0 1 2 3l-5 2l-3 -3l-9 -7h2q-11 -11 -28 -29t-34.5 -36.5t-34 -36t-26.5 -28.5h329l-405 -448q-5 2 -11 6t-10 6
l1 1q-4 4 -11 6l1 -1q-8 9 -29.5 31.5t-45 48t-44.5 48.5t-28 32v-1l2 22q4 3 8.5 6t9.5 6l10.5 7t24 15.5l27 17t19.5 11.5q21 -7 35 -21t25 -28q8 -14 16 -23.5t16 -10.5l1 3l117 132h-322l393 450q10 0 13 -1t5 -3q2 -1 5.5 -2.5t5.5 -4.5q3 -2 5 -4.5t6 -4.5
q5 -3 9.5 -6.5t8.5 -5.5l-1 -1zM629 298l2.5 5t4.5 6q0 1 1 2v-1l206 105q-10 12 -20.5 20t-18.5 13l-3 1l1 1q-5 4 -19 12.5t-29 18.5l-18 12q-3 3 -7 6t-8 5q-9 6 -15 9l-15 17q14 14 24 20.5t17 10.5l6 4l1 -1l480 224l-38 -133l-17 -13v1q-10 -5 -32 -15.5t-49 -24.5h1
q-19 -9 -40 -19.5t-40.5 -20t-36 -17.5t-26.5 -13q8 -7 12 -9.5t9 -4.5l14 -7q17 -10 34.5 -21t32.5 -20l26 -16q4 -4 8 -5q1 -1 3.5 -2.5l2.5 -1.5q2 -2 11 -5.5t23 -9.5l-36 -28v1l-216 -116q37 -30 82 -56t86 -47l9 -14l-36 -126q-20 0 -26.5 2t-10.5 4l1 2l-6 2h1
q-5 4 -12.5 8.5t-15.5 10.5q-6 4 -13 9t-15 10q-21 14 -46 30t-50 32.5t-49 32.5l-45 30q-22 14 -38 24l-24 15q-2 0 -7 7q-7 5 -15.5 14t-5.5 20zM1787 739h117l-199 -692h-117zM473 464l31 109q-16 -6 -37 -13.5t-43 -15.5t-43.5 -16t-38 -15t-27.5 -12.5t-12 -8.5
l-57 -200zM1542 503l-4 13q-45 -14 -85.5 -29.5t-71.5 -28.5l23 78l219 -31h20q8 3 16 8.5t13 10.5l8 6q6 8 9 13.5t5 10.5q2 2 2 4t2 5l11 21l1 1q0 1 2 3q0 2 3 4q5 11 8.5 19.5t8.5 13.5l-110 -383l-56 228zM1111 346l32 22l-62 -215l-16 22l1 4l-18 26q-23 11 -48 24
t-50 30zM697 488l23 -33q6 -3 15 -9l5 -3q2 -2 5 -3.5t6 -3.5l19 -12q2 -2 4 -3.5t5 -3.5l-1 1q3 -2 5 -4t5 -4l-154 -78l-10 -8l53 186l13 -17q2 -2 3 -2.5t2 -1.5v1zM1117 546q13 7 24.5 13t22.5 11q27 13 38 19l5 3l-48 -166l-6 8l8 6q-60 22 -63 26q-4 2 -6 5q-6 4 -7 5
l-27 16q-4 2 -7.5 4.5t-8.5 5.5l-4 2t-5 3q5 2 10 4.5t10 4.5q15 7 31 14.5t32 15.5h1zM458 488l-5 -16l-125 -95l21 73q20 7 32.5 11.5t23 8l22.5 7.5t31 11zM2219 479q9 10 18 19t18 17q1 0 1 -1h1v1l6 -6q2 -3 3.5 -4t2.5 -2q3 -2 6 -5t6 -5l6 -3q2 -3 3.5 -4.5l2.5 -2.5
v-1q1 0 1.5 -0.5t2.5 -0.5q0 -1 2 -1q1 -1 2 -1.5l1 -0.5h1q4 -2 6.5 -3t12.5 -3h-110l3.5 3.5zM1375 314q0 -5 8 -10l-52 -20l25 87zM2031 229l-5 7l-18 21h74l-40 -45q-5 6 -11 17zM1388 312v1q1 0 0 -1zM2297 735l-1 1q1 0 1 -1z" />
    <glyph glyph-name="FL00AFh" unicode="&#xaf;" horiz-adv-x="566" 
d="M201 653l-3 -11q3 -6 11 -10l21 -29q2 -4 8.5 -7t13.5 -5.5t12.5 -4t7.5 -1.5q7 1 24.5 12.5t28.5 21.5l339 1q8 0 16.5 8.5t13.5 14.5q15 22 19.5 27.5t6.5 7.5l3 3h2q8 9 15 17.5t13 18t11.5 22t10.5 29.5q4 15 -2 24l-23 29q-1 14 -11 19t-23 5h-11l-42 -24h-1
q-1 -1 -2.5 -1.5t-8.5 -4.5l-333 -1q-11 0 -20.5 -10.5t-14.5 -18.5q-5 -9 -12.5 -19.5t-16.5 -21.5q-17 -21 -31 -43t-22 -48zM223 653q6 21 19.5 41.5t29.5 40.5q8 11 15 20t13 20q4 5 8.5 11.5t3.5 6.5l335 1q2 0 11 3.5t13 5.5l34 20h5q8 0 14 -3t3 -13q-4 -15 -8.5 -26
t-9.5 -19t-11 -15.5t-13 -15.5q-8 -8 -16 -17.5t-18 -23.5v1q-3 -4 -7.5 -9t-3.5 -5l-346 -1q-3 -3 -9.5 -8t-14 -10.5t-14.5 -10t-11 -5.5q-4 0 -12 2t-11 6z" />
    <glyph glyph-name="FL00B0h" unicode="&#xb0;" horiz-adv-x="1099" 
d="M550 -45q2 -3 5.5 -7t10.5 -8l54 70l3 11q8 0 18 8l24 22l8 8l2 8l2 -2q10 0 15 1.5t10 5.5q2 0 4 2q2 1 3 1q2 0 4 1q5 2 12 4t17 7l6 20l-20 26l68 41l10 7h8q-5 -15 -2 -28.5t16 -18.5v1l20 -29q8 -11 24 -11h46l-11 7l-22 32q0 1 -1 1v2q6 -9 26 -9q15 0 31 7.5
t22 27.5q2 6 2 14t-2 14q7 4 13.5 10.5t9.5 17.5l-1 1l1 4q0 8 -4 13l-17 22l7 22v4t1 7h24l4 16q5 -1 22 -1q2 8 3 13t2 9h20q5 15 6 25q8 1 13 5t8 15h15l9 29q5 1 10.5 5.5t9.5 18.5q-1 2 0 7h3q2 0 12 5.5t14 8.5l2 7l2 7q13 6 16 20q1 3 1 10q12 4 18 19l1 4q6 1 12 6
q4 2 5 3l4 14q1 2 0.5 3t0.5 2q6 4 11.5 9t8.5 15v8q15 8 23 37l-2 3q5 5 12 11t13 14l-8 10q10 13 17 38l-7 9q5 8 9.5 15.5t6.5 17.5l2 6q3 10 -1 15l-9 11q4 7 7 15l4 16l-15 22l4 16l-4 23l-25 33l-1 12h-7l-21 30q2 6 -1 8.5t-14 3.5q-4 4 -5 9l-6 16l-9 -32
q-7 -7 -8 -14l-1 -2q-6 5 -20 10l-8 -29q-5 -14 -6 -24l-3 -9v-6l-2 -5q-12 -42 -39.5 -77t-63.5 -73l-5 -17q-19 -2 -34.5 -10.5t-29.5 -19.5q-5 14 -15.5 19.5t-20.5 9.5h-1q-1 1 -4 3h-2q-43 20 -87 31.5t-97 11.5q-52 0 -101 -9t-102 -28l-26 -13q-3 -2 -8 -4l-5 -2l1 1
l-6 -2l-9 -4l-17 -13v-2l-5 -5q-5 8 -10.5 14.5t-13.5 11.5q-12 30 -16.5 64.5t5.5 69.5q1 4 3.5 9.5t4.5 11.5h-1l-1 2q2 0 5 3.5t10 26.5l14 49l-27 36l7 22q-16 -16 -23.5 -24.5t-12.5 -13.5h-21q-10 0 -21 -11t-19 -23q-26 -1 -37 -15t-15 -28l-1 -2l-14 20
q-4 -13 -8.5 -28.5t-5.5 -17.5q-1 -1 -2 -3q-2 -8 -4 -15t-2 -13q-3 0 -7 0.5t-9 0.5q-11 -40 -10 -66h-12q-6 -23 -7 -31t1 -13l-6 -4q-3 -14 5 -28h-12q-1 -28 9 -42q-7 -7 -8 -10l-2 -9l9 -8l2 -2l-9 -7l14 -24l-5 -19l7 -4v-1l2 -1l-1 -1l-2 -6q-3 -11 -1.5 -16t6.5 -7
l-7 -25h7l12 -16q-4 -7 -7 -21h8l2 -4l-6 -21h8l6 -8q-1 -9 2 -11.5t8 -2.5v-1l-4 -15l-3 -10h8l26 -37h7l8 -13q-3 -8 -5 -15t-4 -15q-13 0 -23 -3.5t-15 -23.5q-5 -19 3 -28q-5 -5 -8 -12t-5 -15q-4 -14 0.5 -22t12.5 -12l20 -28q0 -2 1 -2l-2 -8h8l25 -37q32 0 50.5 18
t23.5 36l3 9q0 2 0.5 4.5t0.5 4.5q-1 5 -0.5 10t1.5 10q7 -4 15.5 -5t19.5 -1h6q1 0 1.5 0.5t1.5 0.5h5l1 3l5 -3l4 -6q3 -4 5.5 -7t5.5 -5v1q2 -1 2 -2t2 -2q-5 -2 -11 -4.5t-14 -5.5l-7 -23q5 -7 11 -10l-1 1l23 -31q7 -7 21 -12l-1 1l6 -7q-1 -4 8 -4l5 -8h4l-1 -5
q0 -5 2 -16.5t5 -18.5v1q0 -10 4.5 -21t17.5 -21v1zM464 353l-16 21q11 5 21 13.5t15 22.5l3 12l-2 1q10 14 17.5 30t11.5 27q3 11 5.5 25t0.5 28l18 65q9 2 25.5 5.5t27.5 8.5q29 11 60.5 17.5t63.5 11.5h-1q6 1 11.5 1.5t9.5 0.5h24q40 0 77.5 -9.5t73.5 -24.5l-5 -16h7
l1 -3q-15 -17 -23 -33.5t-13 -34.5q-3 -11 -5.5 -23.5t-1.5 -23.5l-7 -26q-5 -17 0 -25t14 -13l19 -27q0 -3 1 -4v-1q-3 -15 -6 -27l-2 -7l-6 10l1 -1q-2 9 -9.5 16.5t-27.5 7.5q-9 -22 -16.5 -37t-14 -25.5t-13 -19t-14.5 -17.5q-2 -2 -3 -3.5t-3 -2.5l2 1q-6 -5 -6 -6
l-1 -1q-11 -3 -22 -11h-1q-2 -2 -4 -3l-4 -3q-2 0 -4 -2l-6 -4l-154 -86l-126 98h-2q-3 17 0 40t10 55zM1028 476q-6 0 -7 -4q-2 -6 5 -6h1l22 -31l-1 -3q-6 0 -10 3q-4 2 -7 3t-8 1h-8q2 -3 8 -11.5t5 -13.5q-1 -1 -3 -1q-5 0 -12.5 5t-9.5 8l-3 -10q3 -5 5.5 -12.5
t0.5 -15.5q-5 0 -9 3q-3 1 -1 1.5t-9 1.5q2 5 -5 5l-2 -1q-2 -2 -3 -4l-1 -5h4q-2 -5 -1.5 -8t1.5 -5q0 -2 0.5 -5t0.5 -5q-7 1 -11.5 6t-9.5 11l-3 -9q-1 -5 -1 -12q0 -2 -0.5 -5t-0.5 -6h-3l-16 26l-6 -21q0 -2 -1 -7.5t-3 -12.5q-1 -5 -1.5 -9.5t-0.5 -5.5l-18 -64
q0 -2 1 -3t1 -3q-6 4 -10 4q-11 0 -16.5 -12.5t-7.5 -18.5q-3 -12 -3 -24t17 -12q6 0 14.5 3.5t12.5 11.5q-3 -10 -11 -13t-17 -3q-13 0 -17 8.5t0 21.5q4 12 10.5 24t14.5 23q8 12 15 24t11 26l3 9h-6q-6 -16 -16 -31.5t-21 -31.5q-13 -18 -24.5 -37t-17.5 -39
q-3 -11 -2 -17t6 -12q-8 3 -8 12q0 10 3 20q6 21 17 41t25 40q12 20 23.5 40.5t18.5 43.5q5 17 8 35t1 32h-1q2 5 -2 5t-6 -5t2 -5l-1 -3l-2 -8q-1 5 -1.5 9t-2.5 9q-3 4 -10 6q5 -2 15 -2q11 0 24 5t17 19q5 20 -14 20h-2q-4 0 -8 -1t-6 -6l-4 -14q-2 3 -2 8q0 6 1 12.5
t2 12t2 8.5l1 3q1 2 1 4q0 3 1 5l5 18q3 11 5.5 19t6 15t8 14.5t11.5 16.5l1 1q0 1 1 2l2.5 2.5t1.5 2.5q1 4 -7 10h-1q5 2 12.5 3t9.5 1q3 11 -7 11h-9q-12 0 -24 -6l1 1h-1l3.5 3.5l3.5 3.5h9q19 16 37 27t41 15v5q11 -1 17.5 -6t4.5 -15q-1 1 -0.5 1.5t-0.5 1.5
q-2 2 -3.5 4.5t-6.5 2.5q-8 0 -16 -5t-10 -13q-4 -13 2 -19.5t19 -6.5q17 0 29.5 11.5t17.5 27.5q7 23 -5.5 32t-29.5 15q35 38 62.5 74t41.5 84q2 5 2.5 11t2.5 11q1 4 3 14v-22q0 -3 -0.5 -5.5t0.5 -4.5q-1 -2 -3 -12.5t-3 -15.5v-1q-4 -12 -7 -20.5t-8 -18.5
q-2 -5 -4.5 -10t-4.5 -10l-4 -15q17 19 28 38.5t16 36.5l21 73q4 -14 2 -29t-6 -29q-5 -19 -17 -42q-5 -10 -9.5 -20t-7.5 -19l-2 -9q12 7 23 21.5t20 31t16.5 33.5t11.5 29v-5l-4 -16q-8 -29 -23 -52.5t-34 -49.5l-2 -9q21 14 33 27.5t25 30.5l-2 -1q2 2 2.5 3t2.5 2l11 19
l-1 -3q-7 -23 -23 -44.5t-32 -41.5l1 1l-11 -10q-3 -2 -3 -5l2 -4q21 11 38 28.5t32 34.5l-1 -1l-1 -6q-6 -20 -22 -38t-32 -35q-2 -2 -4 -3.5t-3 -3.5q9 0 14 4l-1 -1l33 17q-4 -8 -12 -15t-19 -15q1 0 5 -0.5t6 -0.5q6 -2 9 -2q-11 -12 -25 -20q-6 -4 -11.5 -7.5
t-15.5 -13.5h31q-2 -3 -6.5 -5t-8.5 -4q-5 -2 -9 -4.5t-9 -7.5q3 -1 7 -2t6 -3l2 2q5 0 5 -1l-4 -3h-2q1 0 1 -1v0q-2 -5 -6.5 -7t-9.5 -4q-4 -2 -8 -5t-7 -5l2 -2.5t4 -3.5q2 -2 4 -2v-1q-5 -2 -8.5 -3.5t-8.5 -3.5q-3 -1 -2.5 0t-1 0.5t-7 -3t-20.5 -11.5l26 -5
q-2 -1 -4 -1t-4 -1h1q-3 0 -4 -1l-26 -6q2 -8 5.5 -9t6.5 -3t6 -3t2 -4l-1 -2l-43 -6q4 -7 10 -9.5t8 -3.5q0 -1 4 -3l-1 1l5 -4q-1 -1 -2.5 -1.5l-1.5 -0.5h-49l7 -9q2 -5 6 -11.5t6 -8.5l-0.5 -1t0.5 -2h-3q-7 0 -15 5q-5 2 -9.5 4t-11.5 2q1 4 -3 4zM331 185
q5 19 4.5 36.5t-2.5 34.5q-2 15 -3.5 30.5t2.5 32.5h-3q2 2 2 3q1 4 -4 4q3 8 6.5 16t5.5 17l5 16q-13 -9 -20 -14t-11 -10q2 7 5 14t11 18l-6.5 -4t-11.5 -6q-11 -7 -16 -7h-2v1l2 2q0 2 2 4l3 4q2 2 3.5 4t2.5 4q3 3 5.5 6.5t4.5 11.5q-2 -1 -5.5 -3.5t-4.5 -3.5v1
q-15 -8 -26 -10q3 8 8 14t12 13l10 8h-9q-5 0 -13 -4q-4 -2 -7.5 -3.5t-5.5 -1.5h-2q2 5 13 13t19 13h-13q-4 -2 -12.5 -4.5t-12.5 -3.5h1h-1q-3 0 -3 2q1 2 3 3.5t3 2.5l42 33h-11l-10 -3q-8 -3 -16.5 -5.5t-15.5 -3.5q3 8 10 13t15 10q2 2 7 5t7 5h-52q1 2 0 3q4 3 9 5
l10 4q2 1 7.5 4.5t8.5 5.5q-3 0 -13 0.5t-12 1.5q-1 0 -1.5 0.5t-1.5 0.5h1q-3 1 -8 2t-4 3q4 4 11.5 7l12.5 5q1 0 2 0.5t2 0.5l2 6l-20 5q-3 1 -5 1q-1 0 -5 2l28 6l-34 19l-2 2q2 1 3 1t3 1t6 2.5t6 2.5l-4 6l-18 14l-2 1q2 2 9 5t9 4l2 7q-16 4 -20 14h22q1 -1 4 -1
q4 0 6 5q1 6 -3 6h-1q-5 5 -13.5 15t-10.5 15h4h9q2 7 1 12t-3 10q-5 7 -3 14q2 -5 7 -6l-1 1q3 -2 5 -4t4 -2q2 -2 3.5 -3t2.5 -2l3 -3l1 -1q2 0 3 0.5t5 3.5q-11 20 -14 38.5t2 41.5q2 -2 4 -8l4 -12q3 -10 10 -20q2 -4 7 -10.5t7 -7.5q-3 -6 2 -6t8 6q1 6 -5 6
q0 13 -2 18t-4 13q-5 14 -7.5 29.5t3.5 35.5v1q1 0 1 1q0 -2 0.5 -2.5t0.5 -2.5q2 -18 5 -35.5t15 -34.5l-1 -4q-2 -5 3 -5q6 0 8 5q1 4 -4 6l1 3q-4 23 -5 47.5t6 50.5l3 8q2 5 3.5 10.5t4.5 8.5q-3 -10 -5.5 -25t-3.5 -31t0.5 -31t7.5 -25l-1 -2q0 -5 5 -5t5 5q3 6 -2 6
q3 10 4 19t3 18q1 18 6 36l5 16q0 2 1 4t2 5l1 4q1 2 3.5 7.5t6 11.5l7 12t6.5 9q-7 -14 -9.5 -22t-6.5 -22q-7 -24 -10.5 -48t-1.5 -46h3q-2 -2 -2 -3q-2 -2 1 -3l-1 -1q-2 -6 5 -6q3 0 3.5 1.5l1.5 4.5q2 5 -2 5l1 4q-2 0 -3 -1l2 8q2 6 3 12l2 12q1 11 6 25
q5 16 11.5 31.5t18.5 31.5q-4 -8 -5 -12q-8 -14 -12 -29q-12 -43 -5.5 -82t23.5 -72v-1q-22 -4 -41 -15t-25 -34q-5 -16 4 -27t25 -11q9 0 18.5 6t13.5 17q2 10 0 16t-13 6q-10 0 -17 -6q3 8 13.5 12t19.5 5l-1 -2q-1 -4 5 -4h5q3 -2 6 -4.5t6 -3.5h-1q3 -2 6.5 -3.5
t4.5 -2.5q1 0 4.5 -4t4.5 -5l1 -2q-1 -4 4 -4q-1 -4 4 -9q-2 -6 4 -6q4 0 4.5 0.5t1.5 5.5l1 2q1 -4 2 -7.5t2 -7.5q-4 0 -8 4q-3 2 -5.5 3t-5.5 1h-11q-3 0 -7.5 -3t-6.5 -8q1 0 3.5 -0.5t4.5 -0.5q8 0 13 -3q-13 -6 -14 -13q-3 -8 4 -11l-1 -3q-1 -4 1 -4q-2 -5 1 -5h1v-2
q-2 -6 -3 -11l-2 -10q-2 -5 -2.5 -10.5t-2.5 -10.5l-7 -23q-2 -5 -9 -20.5t-12 -25.5v1l1 2q2 7 -3.5 11.5t-10.5 4.5q-10 0 -16 -7.5t-8 -15.5q-4 -11 3 -16.5t17 -7.5q-13 -15 -19 -29t-10 -26l-5 -17q-8 -27 -8 -48q0 -20 5 -43q-1 -2 -0.5 -4.5t0.5 -4.5q-1 -5 -1 -11
v-10q-1 -10 -1.5 -19.5t-1.5 -18.5l-2 -6q-3 -11 -10.5 -21.5t-18.5 -13.5l1 1l12.5 12.5t10.5 18.5zM566 129q-7 0 -5 2h-4q-5 0 -10 -8t-12 -18q-6 -8 -11 -15t-7 -10l1 2q-3 2 -7 11t-6 12l1 -1l-1 2q2 4 6 7.5t9 7.5t10.5 9t7.5 11l1 3q0 1 -1 1.5t-7 5.5h-3
q-5 0 -15 -8l-3 -3q-2 -2 -10 -6l-15 -10l-2 -1q-3 0 -7 6l-2 1q1 0 0 1q-1 0 -2 0.5t-2 0.5q-2 1 -4.5 2t-6.5 3q11 5 13.5 6t4.5 2h-1q2 1 4.5 2.5t5.5 1.5q6 2 14 5t14 9l-5 6q-22 16 -39.5 29.5t-34.5 30.5l-1 1l7 3l125 -95v1q4 -5 7 -5h4q5 1 6 1l162 92l6 4q4 2 5 3
h1q3 0 5 -3l-2 -2l-111 -67l21 -12l12 -5h-1q0 -1 1.5 -2t11.5 -6l-15 -5q-2 -1 -4 -1q-2 -1 -3 -1q-4 -2 -6.5 -4.5t-4.5 -2.5l-28 28h-3q-12 0 -15 -10l-1 -4l14 -33v-1l-2 -1l-23 -21q-1 -1 -2 -1h1q-3 2 -4 9.5t-1 16.5q1 9 0 16t-7 7q-8 0 -9.5 -3t-3.5 -8
q-5 -15 -4 -30t3 -26l-2 -6l-37 -48q-2 6 -1 9q-1 2 -0.5 4l0.5 2q-2 3 -4.5 15.5t-3.5 19.5q10 14 19.5 32.5t18.5 38.5zM485 640l1 6l7 5l14 6q9 4 20.5 8.5t19.5 9.5q51 19 98 27.5t95 8.5q51 0 93 -11t84 -31l-1 1l5 -3q8 -4 15.5 -8t12.5 -11l-1 -4q-1 -2 -0.5 -3
t-0.5 -2q-1 -5 -4.5 -12.5t-8.5 -10.5l7 24q-2 2 -1 4q-45 27 -95.5 42.5t-108.5 15.5h-24q-6 0 -12 -0.5t-12 -1.5q-32 -5 -63.5 -11.5t-63.5 -18.5q-8 -3 -19.5 -8l-23 -10t-19.5 -9l-8 -4l-6 -23q-5 7 0 24zM460 562l-1 -5h-12l-3 -11h13l1 6q-1 -2 -0.5 -4t0.5 -4
q0 -8 -1 -9q-1 -6 -4 -22t-5 -22h6l14 50q2 5 1 11.5t-3 14.5v3q2 7 -5 20q11 -11 10.5 -32.5t-5.5 -37.5q-3 -9 -8 -21.5t-13 -24.5t-18.5 -20t-22.5 -8h-3q3 3 7 11h6q4 0 8.5 1.5t5.5 5.5l1 5q-3 0 -5 2l-2 1q-2 0 -8 -4q12 23 18 46l3 10q1 3 2.5 6.5t2.5 7.5
q5 14 -1 32l1 2l-2 3h2v-1h1l-1 -1q-2 -5 3 -6t9 -1l3 10q0 1 -2 6h1q1 -3 2.5 -8t4.5 -10zM914 472q-5 0 -8.5 -4t-4.5 -9h16v2q0 -7 1 -9v1v-7q-16 1 -21 12t-6 25h2q2 0 6 3l4 14q-3 0 -4 -1q6 14 11 26.5t11 23.5q3 -5 4 -5q1 -1 4 -1t5 3.5t4 6.5q0 2 -0.5 4.5
t-4.5 2.5h-2l-4 -3q3 7 10 14q-2 -5 4 -5q8 0 11 8q1 3 1 6t-5 3h-2l9 9l9 -6q-15 -19 -23 -32.5t-14 -34.5l-3 -10q-4 -11 -5 -26q0 -2 -0.5 -3.5t-0.5 -3.5l-1 -4h-3zM401 345l3 6l5 4q-5 -29 -4 -52t11 -47q2 -3 5 -4.5t5 -3.5t6 -4l-6 -4q-24 17 -29 45t4 60zM780 247
q10 2 14 9l-1 -1q3 2 7 8q11 12 19.5 22t15.5 20.5t13.5 22t12.5 27.5q2 -2 1.5 -6t-1.5 -8q-8 -29 -26.5 -51t-44.5 -41l-1 -1q-7 -7 -12 -7q-4 0 -5 3q2 1 8 3zM361 589q-6 -21 15 -21q2 0 3 0.5t2 0.5h3l3 6q-15 5 -13 16l2 5l3 2l12 9q1 -1 3 -1q4 0 6 6q2 5 -3 5t-7 -5
h-2q-10 0 -17.5 -7t-9.5 -16zM1030 589q-2 -5 -8 -7.5t-11 -4.5q-2 -2 -10 -2q4 -5 5.5 -6t3.5 -1h3q22 0 28 21q2 9 -2 16t-14 7h-1q2 5 -4 5q-5 0 -7 -5q-2 -6 4 -6q3 0 4 1q5 -3 8 -7.5t1 -10.5zM321 269q2 -13 2 -26q0 -12 -4 -26q-3 -11 -11 -20.5t-21 -9.5
q-10 0 -17 3q4 -2 14 -2q17 0 24 11t11 23v2q1 4 2.5 9.5t1 10t-3 8t-8.5 3.5q-3 0 -6.5 -1.5t-5.5 -3.5t-4 -3t-6 -1q-16 0 -13 12q1 5 11 5h2v-2h-6q-4 0 -5 -4l-1 -1q2 -6 3 -7t6 -1h2q6 0 12 3.5t8 11.5q1 5 2.5 10.5t2.5 10.5l7 22q-2 -13 -1 -21zM408 631
q-2 -8 -0.5 -9.5t9.5 -2.5q1 0 1 -1h1q5 0 8.5 6t5.5 9q3 12 -10 12q-10 0 -15 -14zM994 633q-2 -7 1.5 -9.5t7.5 -2.5q13 0 16 10q5 14 -9 14q-4 0 -9 -3.5t-7 -8.5zM805 239q3 1 6 1t5 1q35 14 59 42t35 62q-6 -18 -15.5 -36.5t-23 -34t-30 -25.5t-36.5 -10zM382 244l-1 1
q2 -2 5.5 -3t8.5 -3q-30 2 -39.5 23.5t-7.5 50.5q-2 -23 5.5 -41t28.5 -28zM913 492q-5 0 -7.5 -5t-3.5 -9h15q1 4 1 9t-5 5zM434 509q-1 -3 -1 -7t5 -4q2 0 3 1q2 0 6 4l1 2q2 5 -2 6t-8 1zM444 521q6 0 8.5 5t3.5 9q-4 0 -10 -1.5t-8 -9.5h1q1 -3 5 -3zM909 512
q-2 -4 -1.5 -9t5.5 -5h4l1 3l3.5 3.5t0.5 2.5q2 5 -8 5h-5zM899 522q5 19 13.5 35.5t26.5 30.5q-30 -33 -41 -71l-4 -15q1 9 5 20zM424 478q5 0 9 0.5t6 5.5q2 8 -6 8h-5zM915 521h2q5 0 7 5t3 9q-2 0 -8.5 -1.5t-8.5 -9.5h1q1 -3 4 -3zM388 425q8 0 21 4.5t24 13.5
q-7 -10 -20 -14t-24 -7q-3 -4 -6 -7.5t-6 -8.5l3 9l3 10h5zM439 581h-2v2q1 5 10 10q-1 -2 1 -4h-1q0 -1 2 -1h-1l1 -2v1h1l-1 -2h1v2v-1q1 -1 4 -1l-1 -3q-1 1 -1 2l-6 -5h-8zM918 248h5q7 0 9 6v2q1 2 -1 5h-8l1 1v1h1h8q3 0 5 -3q-1 -1 -0.5 -2l0.5 -1q-2 -5 -7 -8
t-10 -3q-2 0 -8 2h5zM901 428q-8 2 -13.5 5t-3.5 13q8 -16 23 -19q-5 0 -6 1zM266 203q3 10 9 16.5t16 6.5q5 0 8.5 -2t1.5 -8q-1 -4 -5 -6q1 2 2 3.5t1 2.5q3 9 -6 9q-8 0 -15.5 -5.5t-10.5 -15.5t3 -14q-7 3 -4 13zM916 205l-1 1l1 4q0 2 -2 6t-4 6l-3 3q-6 0 -10 -2
q-1 -1 -5 -1q4 4 12 4q10 0 11.5 -7.5t-0.5 -15.5zM447 487q-5 0 -7 -5q-1 -4 3 -4q5 0 6 4q1 2 -1 4zM450 642h-1q-2 4 -4.5 7t-5.5 6q11 -8 20 -25q-6 0 -6 4q0 2 -1 3q0 5 -2 5zM888 210q-1 2 0 6q2 4 4 6zM976 636q17 14 33 22q-9 -5 -17 -10.5t-16 -11.5zM893 494v5h4
q-4 -2 -4 -5zM459 630q0 -3 1 -4q0 1 -2 1zM1181 607l-3 1l2 1q1 0 1 -2zM1207 920h-3v0q0 1 2 1zM437 456h-3v0q0 1 2 1zM348 313q0 4 0.5 7.5t0.5 8.5q0 -5 -1 -8.5t0 -7.5zM434 575l-1 -2v1zM799 246v1h1q0 -1 -1 -1v0zM417 665h-3h3zM442 835q0 -1 -0.5 -1.5l-0.5 -0.5
q1 0 1 2zM502 123l1 1v-1h-1zM449 585v1v-1zM1179 609l-1 -1z" />
    <glyph glyph-name="FL00B1h" unicode="&#xb1;" horiz-adv-x="559" 
d="M26 37l-4 -11q3 -7 12 -10l20 -30q2 -4 8 -7.5t12.5 -6t12 -4t7.5 -1.5h2q1 1 2 1l9 3q9 4 19.5 7.5t15.5 6.5h-2l340 1q6 0 16 9t15 15v1t2 2q21 27 36 42q6 7 10.5 12.5t8.5 13t8 18.5t9 29q3 11 0 19h1l-2 3l-2 3h-1l-21 28q-2 14 -11.5 19t-22.5 5h-8l-34 -10h-1
l-4 -2t-10 -6h-19q1 2 3 8l8 35q-2 4 -2.5 6l-2.5 10l23 81h98q6 0 15.5 9t15.5 15v1t2 2q11 14 19 24t17 18q6 7 10.5 12.5t8 13t7.5 18.5t9 29q5 15 -2 24l-22 30q-2 13 -11.5 18t-22.5 5h-8l-34 -9h-1l-4 -2t-10 -6h-30l14 50q2 6 -2 11l-23 32q2 9 -6.5 15t-14.5 8
q-12 5 -20.5 9t-13.5 8q-14 10 -29 17.5t-38 7.5h-11q-5 -4 -11 -11t-11 -14.5t-9 -14t-5 -8.5q-2 -5 -2 -7v-5v-1q-1 -2 0 -3q-5 -17 0 -28l-20 -67h-101q-11 0 -20 -10t-14 -18q-2 -3 -6.5 -8.5t-9.5 -12.5q-1 -2 -2 -3.5t-2 -3.5q-2 -4 -5 -7.5t-5 -6.5q-1 -1 -1 -2v0
q-15 -18 -26.5 -35.5t-19.5 -42.5l-3 -11q3 -6 11 -10l21 -30q2 -4 8 -7.5t12.5 -6t11.5 -4t7 -1.5h2q2 1 3 1q7 2 19 6.5t22 10.5h41l-19 -69q-2 -8 3.5 -15.5t12.5 -11.5l17 -25q8 -11 14 -14q1 0 1 -1h1q3 -2 7 -4h-178q-11 0 -20 -9.5t-13 -17.5q-6 -6 -16 -21
q-3 -3 -5 -7t-4.5 -7.5t-4.5 -6.5q-2 -1 -2 -3v1q-15 -18 -26.5 -36t-18.5 -42zM144 378q6 21 17 37t24 33q8 10 16 19.5t14 20.5q4 5 8.5 11.5t3.5 6.5h123l28 98q-3 2 -3 9t2 15q0 3 0.5 8.5t1.5 3.5l-1 -1q1 2 6 11.5t10 14.5h3q19 0 31.5 -6t24.5 -14q7 -5 15 -9.5
t20 -9.5q3 -2 8.5 -5t5.5 -2l-32 -112h91q2 0 11 4t14 6h-1l28 8h4q8 0 14.5 -3t3.5 -13q-5 -15 -8.5 -25t-7.5 -17.5t-9 -14t-12 -13.5h1q-8 -8 -16 -17t-19 -23l1 1q-4 -4 -8 -9t-3 -5h-117l-30 -102q0 -2 1.5 -10t2.5 -12l1 2l-7 -29q-2 -9 -7 -16t-15 -7q-30 0 -39.5 3
t-18.5 11q-7 5 -15 11t-19 13h1l-7.5 5t-4.5 2l36 128h-108q-5 -5 -17.5 -10t-20.5 -7q-1 0 -1.5 -0.5t-1.5 -0.5q-2 0 -11.5 2t-11.5 6v3zM48 37q5 20 16 36.5t25 33.5q7 10 15 19.5t14 20.5q4 5 8.5 11.5t3.5 6.5l335 1q2 0 11 4t13 6h-1l27 7h4q8 0 14.5 -3t3.5 -12
q-5 -15 -8.5 -25t-7.5 -17.5t-8.5 -14t-11.5 -13.5h1q-8 -8 -15.5 -17.5t-18.5 -22.5v1q-4 -4 -8 -9t-3 -5l-345 -1q-5 -5 -18 -10t-21 -7q-1 0 -1.5 -0.5t-1.5 -0.5q-2 0 -11.5 2t-11.5 6z" />
    <glyph glyph-name="FL00B4h" unicode="&#xb4;" horiz-adv-x="395" 
d="M551 812l-149 -1q-7 0 -14.5 -5t-12.5 -10l1 1q-3 -2 -3 -3q-12 -9 -30 -24.5t-38 -33.5t-39.5 -37t-35.5 -34.5t-26 -26t-10 -11.5l-11 -39h8l25 -37q9 0 19.5 -0.5t20.5 -0.5h64q19 0 39 0.5t51 3.5q11 14 30.5 32t43.5 37q18 15 36.5 30.5t34 30.5t26.5 28t14 23
q2 6 3.5 14.5t-3.5 14.5l-23 29q2 8 -2.5 13.5t-18.5 5.5zM545 791q6 0 5.5 -6t-2.5 -11q-2 -8 -12 -19t-24.5 -24t-31.5 -27.5t-34 -28.5q-25 -20 -44 -36.5t-28 -27.5q-23 -2 -41 -2.5t-36 -0.5h-34q-11 0 -24.5 0.5t-28.5 0.5l5 18q0 1 10 10.5t25 24t34 32t38 34.5
t35.5 31t27.5 22l4 4q5 5 7 5zM377 798q-1 0 -1 -1z" />
    <glyph glyph-name="FL00B6h" unicode="&#xb6;" horiz-adv-x="750" 
d="M115 196q44 0 79 19q-13 -29 -29.5 -59.5t-38.5 -58.5l1 1q-8 -7 -18.5 -17.5t-21.5 -24t-20.5 -30.5t-15.5 -36h7l27 -37q49 0 91.5 9t86.5 29q8 2 24.5 10t30.5 18q2 1 2.5 1.5t2.5 1.5q6 4 8 5t7 3l10 8l3 1h1q20 -1 38 -9t35 -19q2 -1 3.5 -2t3.5 -2q11 -7 29.5 -15
t51.5 -20q-3 24 -3.5 41.5t0.5 31.5t3.5 26t5.5 24q8 29 22.5 58.5t29.5 58.5q3 6 7 16l22 -26l6 -1q4 -20 13 -38t26 -32l15 -21q22 -30 67 -44l11 38l-8 11l-1 6q-2 4 -2 8q0 5 -1 9l-1 -1q-1 6 -2.5 11.5t-2.5 8.5l-1 1l-1 3l-1 4q0 3 1 6l2 6l2 10t2 9l3 9q8 30 25.5 60
t36.5 61q3 5 6 8.5t5 8.5q25 36 46.5 73.5t33.5 78.5l6 22q17 58 9 113.5t-37 97.5h-1l-8 11q-17 36 -45.5 62.5t-67.5 37.5q-9 2 -18.5 4t-18.5 4h-3q-3 0 -4 1q-12 2 -24 4.5t-22 7.5h-154l-79 -30q16 -12 25 -25t13 -25.5t5 -25t1 -23.5q0 -3 -1 -4h6l1 1l-2 -9.5
t-3 -11.5l-1 -2h-17q18 -24 26.5 -44t13.5 -38v-3q-2 -2 0 -2q2 -10 5.5 -19t8.5 -18q-6 1 -12.5 1.5t-12.5 0.5q-23 0 -54 -8.5t-57 -25.5q-14 -10 -38.5 -33t-54 -52.5t-60.5 -63.5t-57 -65.5t-44.5 -59t-22.5 -43.5h8zM319 96l-12 -9l-4.5 -2.5t-11.5 -6.5l1 1
q-8 -4 -17 -9t-17.5 -9.5t-14.5 -7.5t-7 -3q-41 -20 -79.5 -29t-78.5 -9q4 9 11 19.5t16 20t18 17.5t16 14q22 27 39.5 56t30.5 57.5t22 54.5t16 47q9 14 20 19.5t23 9.5q10 3 19 7t16 12q3 10 -6 13t-18 3h-9q-20 0 -38 -14t-36 -32q-23 -23 -48.5 -42t-60.5 -20
q5 14 22.5 37.5t42 51t53 57t55.5 56t50 47t37 30.5q20 14 47 21t47 7q40 0 66.5 -14.5t41 -40t15.5 -60t-10 -74.5q-9 -30 -23 -58.5t-29 -57.5q-14 -29 -28.5 -58.5t-23.5 -62.5q-8 -26 -11.5 -46.5t-0.5 -46.5q-11 5 -21 10.5t-21 12.5q-21 11 -42.5 21.5t-47.5 10.5z
M671 198q1 -1 2 -5.5t1 -6.5q2 -2 3.5 -11.5t3.5 -20.5q2 -7 2.5 -13t2.5 -10q-21 7 -34 21.5t-19.5 34t-6.5 41.5t6 43q7 26 19 51t26 50q13 24 25 49.5t20 51.5q19 67 7.5 113t-45 74.5t-84.5 41.5t-111 13h-9q-1 4 -0.5 8.5t0.5 9.5v25q0 14 -1.5 27t-5.5 24t-12 18
l30 11h144q12 -5 25.5 -7.5t27.5 -4.5q9 -2 18.5 -3.5t18.5 -4.5q39 -12 66 -38t41.5 -61.5t16 -77.5t-10.5 -85l-6 -22q-11 -37 -31.5 -73.5t-43.5 -71.5t-44.5 -71t-32.5 -74l-3 -9l-2 -10l-2 -10q-3 -9 -3 -14zM617 549h-11q-2 0 -4.5 -0.5t-5.5 -0.5q-4 0 -5.5 1.5
t0.5 8.5l1 3q1 3 7 12t13 19t13.5 18t8.5 10q0 4 6 6l22 -30l-49 -46h8l2 -3l48 30l-1 -1l4 1l1 -1l12 -39l-36 -15l-4 -12q15 0 18 -1q2 0 3.5 -0.5t2.5 -0.5q3 0 6.5 1t14.5 6q0 -2 -0.5 -5.5t0.5 -8.5v1v-3l-1.5 -15t-2.5 -13l-1 -5h-50l-3 -5q10 -6 21.5 -10.5
t24.5 -4.5l-10 -36q-26 4 -40.5 16t-19.5 31t-3 42.5t10 49.5zM557 651q-6 -20 -11.5 -34.5t-16.5 -34.5q-10 0 -16.5 17.5t-12.5 39.5q-4 13 -7 24.5t-8 19.5h23q14 0 26 -1t29 -8zM635 340q-5 -18 -18 -38.5t-26 -39.5q1 10 0 18t-3 16q-2 11 -3 22t2 22l1 2q2 5 4.5 11
t9.5 6q1 0 3 -0.5t10 -3.5q-5 12 -5.5 21.5t1.5 18.5h4q3 0 8.5 -0.5t10.5 -0.5h12q9 -2 12 -7q-1 -2 -0.5 -2.5t0.5 -2.5q-3 -9 -12.5 -18t-18.5 -9l-2 -6q2 0 7 -2.5t4 -4.5zM611 641h-2q-2 -2 -6 -9.5t-7 -12.5q0 -2 -4.5 -8.5t-10.5 -14.5t-11 -15t-7 -11q1 1 0 1v0
q-5 0 -5 4q0 5 2 10q1 3 2 5.5t2 4.5l1 6q5 16 9 28.5t14 29.5h4q5 0 12 -3.5t5 -11.5zM693 609q5 -9 8 -18.5t5 -20.5l-6 11v-1l-3 15q-4 1 -7 1l1 1l-20 25q7 -3 12 -6.5t10 -6.5zM589 515l1 1l-2 -2zM593 516l-1 1q1 0 1 -1z" />
    <glyph glyph-name="FL00B7h" unicode="&#xb7;" horiz-adv-x="282" 
d="M195 477q-2 0 -5.5 -3.5l-5.5 -5.5q-6 -7 -13 -20t-13 -28t-11 -30t-8 -26l-9 -33q15 0 28.5 -0.5t24.5 -0.5h34q18 0 35.5 0.5t39.5 2.5q17 20 27 46t18 52l8 31q2 5 2.5 10.5t-5.5 5.5zM348 500q14 0 19 -6t4 -14l21 -29q5 -6 3.5 -14t-3.5 -14l-9 -31
q-8 -26 -20.5 -56.5t-36.5 -58.5q-31 -3 -50 -3.5t-37 -0.5h-63q-11 0 -21 0.5t-18 0.5l-27 36h-7l15 54q4 12 9.5 29t13 34t15.5 33t16 25l1 -1q5 5 13.5 10t14.5 5z" />
    <glyph glyph-name="FL00B8h" unicode="&#xb8;" horiz-adv-x="228" 
d="M88 -110q20 25 44 54.5t42 55.5h-142q-18 -14 -43 -28.5t-50 -27.5t-46.5 -23t-32.5 -15l-6 -3l35 -57q17 0 30.5 -0.5t24.5 -0.5h35q17 0 35 0.5t39 2.5l15 17.5t20 24.5zM214 21l-7 -8l27 -36q-31 -45 -53.5 -74t-42.5 -52q-2 -2 -3 -4t-3 -4q-5 -7 -10 -13.5
t-10 -11.5q-7 -9 -12.5 -15.5t-8.5 -11.5q-32 -3 -51.5 -3.5t-38.5 -0.5h-61q-9 0 -18.5 0.5t-17.5 0.5l-26 36h-4l-51 84q12 7 18.5 10.5t9.5 5.5t4 2.5t2 0.5q11 5 32.5 15t46.5 22.5t50.5 27t43.5 29.5h184z" />
    <glyph glyph-name="FL00BAh" unicode="&#xba;" horiz-adv-x="282" 
d="M285 790q-2 0 -5.5 -4t-5.5 -6q-7 -7 -13.5 -20t-12.5 -28t-11 -30t-8 -25l-9 -33q15 0 28 -0.5t24 -0.5h34q18 0 35.5 0.5t40.5 2.5q17 20 27 46t17 51l9 32q2 4 2.5 10t-5.5 6zM438 813q14 0 19 -6t3 -14l22 -29q5 -6 3.5 -14.5t-3.5 -13.5l-9 -32q-8 -26 -20.5 -56.5
t-36.5 -58.5q-31 -2 -50 -2.5t-37 -0.5h-63h-40l-26 37h-7l15 54q3 12 9 28.5t13 34t15.5 33.5t16.5 25l1 -1q5 5 13.5 10t14.5 5z" />
    <glyph glyph-name="FL00BBh" unicode="&#xbb;" horiz-adv-x="514" 
d="M421 374q5 3 7 4.5t-6 -1.5zM395 395l-12 -44l22 15q2 2 5.5 3.5t8.5 3.5q-8 7 -14.5 13t-8.5 8zM574 452l-2 2q0 5 -7 6q-8 14 -27 35.5t-38.5 41.5t-35 34.5t-16.5 14.5h-18q-5 -16 -9 -29t-7 -24l-10 -35q-3 -10 -6 -17l-2 -4t-1 -4l-6 -19q-2 -6 -2 -8q4 -3 13 -12
l19.5 -19.5l20.5 -20.5t16 -17q-11 -8 -27 -18.5t-33 -20.5t-31 -18t-20 -11q-2 -3 -2 -5t-1 -4l-22 -77q-3 -11 -6.5 -24.5t-7.5 -28.5h18l11.5 6.5t29 17.5t38.5 24.5t42 27.5t39.5 26.5t29.5 21.5h3q5 0 8.5 1t5.5 6zM353 454l-1 2q0 4 -8 6q-8 14 -26.5 35.5t-38 41.5
t-35 34.5t-16.5 14.5h-18q-5 -16 -9 -29t-7 -24l-10 -35q-2 -6 -3 -10t-3 -7q0 -2 -1 -4l-2 -4l-5 -19l-2 -4t-1 -4q4 -3 13 -12l19.5 -19.5l20.5 -20.5t16 -17q-10 -8 -26.5 -18.5t-33.5 -20.5t-31 -18t-20 -11q-2 -4 -2 -9l-22 -77q-4 -11 -7 -24.5t-8 -28.5h17l11.5 6.5
t29 17.5t39 24.5t42.5 27.5t39.5 26.5t29.5 21.5h3q5 0 8.5 1t5.5 6zM156 424l-7 7v-1l-2 2l-3 3q0 6 1 11t3 10l8 28q0 1 1 2.5t1 2.5q2 5 4 11l19 64q2 5 3.5 11t3.5 12l7 23h39q1 0 17 -14t37 -34.5t42 -42.5t31 -37q7 -2 12 -9l2 9q0 2 3 5q2 5 4 11l18 64q2 5 4 11
l4 12l6 23h40q1 0 17.5 -14.5t37.5 -34.5t42 -42.5t31 -37.5v1q5 -2 9 -6.5t3 -12.5l23 -31v-2q3 -3 3 -7q1 -5 0 -9l-42 -150q-5 -19 -14.5 -22.5t-19.5 -3.5q-20 -15 -53 -36.5t-65 -41t-55.5 -33t-24.5 -13.5h-34l-27 36h-8l7 23q2 6 3 12t3 11l6 23q-24 -16 -53 -34
t-54.5 -33.5t-43.5 -25.5l-18 -10h-35l-26 36h-8l7 23q2 6 2.5 12t2.5 11l31 106q2 5 3.5 11t4.5 12q3 1 13 6.5t22.5 12.5t27 15t27.5 16q-5 5 -9 8.5t-7 6.5q-2 2 -3.5 3t-3.5 2z" />
    <glyph glyph-name="FL00BFh" unicode="&#xbf;" horiz-adv-x="739" 
d="M782 653q2 0 5 3l5 5q6 8 13 21.5t13.5 28.5t11.5 30.5t8 26.5l10 34q-16 0 -29.5 0.5t-24.5 0.5h-34q-6 0 -12 0.5t-13 0.5t-13.5 0.5t-13.5 0.5q-10 0 -19 -0.5t-18 -1.5q-16 -20 -26.5 -47t-17.5 -53l-10 -32q-1 -5 -1.5 -10.5t5.5 -5.5zM605 634q-14 3 -12.5 15.5
t3.5 21.5l10 32q8 27 21 59t37 61q9 0 16 0.5t13 1.5q7 1 12 1h9h6q2 0 3.5 -0.5t3.5 -0.5h14q2 0 3.5 -0.5t3.5 -0.5h82q5 0 11 -0.5t12 -0.5h23l-2 -8l25 -36l-14 -51l-9.5 -28.5t-12.5 -33t-15 -31.5t-15 -24h-1q-5 -5 -13.5 -11t-13.5 -6l-161 2q-13 0 -17 7zM660 409
q29 13 46 24t28 25t18 35.5t17 55.5l-178 3q-4 -2 -6 -6l-4 -8q-2 -5 0 -12q0 -4 0.5 -7.5t-0.5 -6.5q-3 -10 -11.5 -17.5t-20 -13t-24.5 -10t-24 -7.5l1 1q-43 -29 -86.5 -40t-88.5 -19q-36 -6 -69.5 -14t-62.5 -24t-51.5 -44t-35.5 -74q-16 -56 -15.5 -96t13.5 -67.5
t36.5 -44t54.5 -25t67 -11.5t74 -3q32 0 73 1t84 3t84 6t73 10q5 1 15 3.5t11 3.5l45 161q-102 -33 -156 -44.5t-65 -11.5q-14 0 -30 -0.5t-31 -1.5q-17 -1 -34.5 -2t-34.5 -1q-21 0 -39 2t-30 8t-17 16.5t0 26.5q3 10 8.5 20.5t15.5 22.5q16 22 37.5 38t43 26.5t41.5 17
t35 10.5q10 3 16 4.5t8 3.5zM795 563l26 -37q-13 -44 -22 -71t-21.5 -45t-32 -30.5t-53.5 -27.5h-1l-165 -81q-5 -3 -8.5 -4t-8.5 -3l-13 -4q-14 -4 -32.5 -9.5t-38.5 -15t-39 -23.5t-33 -33q-6 -8 -9.5 -14t-6.5 -11q9 -1 19.5 -1.5t22.5 -0.5q10 0 19.5 0.5t20.5 1.5h15
q3 0 6 0.5t6 0.5q16 1 32 1.5t30 0.5q11 0 70.5 13t174.5 51l-2 -9l26 -37l-52 -185q0 -1 -6 -5t-13.5 -8.5t-15.5 -8t-12 -4.5q-31 -6 -72.5 -10t-85 -6t-85.5 -3t-74 -1q-37 0 -72 2.5t-66 10t-56.5 21.5t-41.5 37l-11 15q-17 15 -28 34.5t-15.5 46.5t-1 61t16.5 78
q15 53 39.5 84.5t56 49.5t67.5 26.5t75 15.5l1 2q45 8 89.5 19t82.5 37l9 3q17 6 34.5 11.5t19.5 13.5q-2 2 -1 4v3v-1q-2 7 1 20q3 10 11 19.5t21 16.5l206 -3z" />
    <glyph glyph-name="FL00C0h" unicode="&#xc0;" horiz-adv-x="1085" 
d="M516 342h106l-16 114zM434 338q0 2 3 6l170 216l12 -17l32 -223h-208q-1 0 -5.5 4.5t-4.5 7.5q0 4 1 6zM663 1050q-6 0 -8.5 -6t-4.5 -10q-2 -8 1.5 -19.5t10 -25t16 -28.5t18.5 -29q12 -20 22 -37t13 -28q22 -2 39.5 -2.5t36.5 -0.5h35q11 0 24 0.5t29 0.5l5 18l-9 21
t-22 47.5t-27 52t-24 36.5q0 2 -2 4l-3 5zM439 472q-92 -112 -189 -223t-204 -215l-9 -29l6 -1.5t15 -2.5l18 -2t15 -1h21q4 0 7.5 -0.5t7.5 -0.5h12q5 0 13.5 0.5t13.5 0.5h4l11 8l125 159q14 18 45 29.5t69 18t77.5 9.5t71.5 5q7 1 13 1h12l53 3h2q16 0 25 -14t13 -36
t5 -48.5t1 -50.5q0 -31 0.5 -52.5t7.5 -21.5h308q2 0 7 5l4 4l-1 -1l2 4q2 7 -3.5 10t-10.5 6q-3 2 -10 7q-26 30 -42.5 70.5t-24.5 79.5l-111 617q-1 7 -4 8t-9 1q-10 0 -23 -3.5t-27 -8t-27 -10t-22 -9.5q-22 -9 -37.5 -19.5t-27.5 -23.5t-21.5 -28t-19.5 -31
q-8 -13 -16 -26.5t-20 -28.5q-7 -9 -20.5 -26t-29.5 -37t-31.5 -39.5t-26.5 -34.5q-7 -8 -11.5 -14t-6.5 -8zM819 1071q8 0 12.5 -5.5t7.5 -10.5l-2 -1q10 -11 22 -31l2 -2q3 -5 3 -6l6 -9q10 -16 23.5 -43t25.5 -53.5t20.5 -46l8.5 -19.5l-11 -37q-9 0 -20.5 -0.5
t-22.5 -0.5h-43l11 -15q1 -3 2 -5.5t2 -5.5h1l112 -619q5 -25 12.5 -50t18.5 -48v-2l3 2q4 -3 5.5 -4t6.5 -3l-1 -2q1 0 1.5 -0.5t1.5 -0.5l-1 1q7 -3 12.5 -8t5.5 -14l23 -30q5 -8 1 -22q0 -2 -1 -3.5t-6 -10.5h-2v-1q-6 -6 -13.5 -11t-13.5 -5h-308q-8 0 -14 7l-22 31
q-14 4 -16.5 29t-1.5 59q0 3 -0.5 6.5t-0.5 6.5q-1 21 -1.5 43.5t-2.5 40.5l-48 -3h-11t-13 -1q-30 -2 -67.5 -5t-73 -8.5t-63.5 -14.5t-39 -23l-125 -159l-24 -19h-11q-3 0 -7 -0.5t-8 -0.5h-33q-2 0 -3 0.5t-3 0.5h-21q-8 0 -18.5 2.5t-20.5 6.5t-18 8t-10 6l-23 32
q-10 6 -10 11l11 36q108 104 203 213t186 218h-4q8 7 9.5 8.5l3.5 3.5l14 18q17 22 41.5 53t44.5 56l24 30q18 23 23.5 31t6.5 10l1 4q0 2 3 7q11 19 22 35.5t24.5 31.5t32 27t44.5 22q4 2 8.5 3.5t9.5 3.5q2 1 5 1.5t6 2.5l-18 26h-2q-1 0 -2 0.5t-2 0.5q-3 14 -12 33
t-22 37q-21 31 -37.5 63t-10.5 54q1 5 3.5 11.5t7 12.5t12 10t18.5 4z" />
    <glyph glyph-name="FL00C1h" unicode="&#xc1;" horiz-adv-x="1085" 
d="M963 1069l-151 -1q-7 0 -14.5 -5.5t-12.5 -10.5v1l-3 -3q-12 -9 -30 -24.5t-38 -34t-40 -38t-36 -35.5l-26.5 -26.5t-10.5 -11.5l-11 -39h8l27 -37q9 0 19 -0.5t21 -0.5h24q-21 -10 -37 -22t-28 -25.5t-22 -29.5t-20 -33q-3 -5 -3 -7l-1 -4q-1 -2 -6.5 -10t-25.5 -33
l-22 -28q-20 -25 -44.5 -56t-41.5 -53l-14 -18l-3.5 -3.5t-9.5 -8.5h4q-93 -112 -188.5 -222t-197.5 -207l-4 -6l-10 -32q0 -5 10 -11l23 -32q2 -2 10 -6t18 -8t20.5 -6.5t18.5 -2.5h21q2 0 3 -0.5t3 -0.5h33q4 0 8 0.5t7 0.5h11l24 19l125 159q11 14 39 23t63.5 14.5
t73 8.5t67.5 5q7 1 13 1h11l48 3q2 -18 2.5 -40.5t1.5 -43.5q0 -3 0.5 -6.5t0.5 -6.5q-1 -34 1.5 -59t16.5 -29l22 -31q6 -7 14 -7h308q6 0 13.5 5t13.5 11v1h2q5 9 6 10.5t1 3.5q4 14 -1 22l-23 30q0 9 -5.5 14t-12.5 8l1 -1q-1 0 -1.5 0.5t-1.5 0.5l1 2q-5 2 -6.5 3
t-5.5 4l-3 -2v2q-11 23 -18.5 48t-12.5 50l-112 619h-1q-1 3 -2 5.5t-2 5.5l-19 27l-2 6q0 2 -1 2.5t-1 2.5q11 11 25 22.5t30 24.5q19 15 38 31t34.5 31t26.5 28.5t14 24.5q2 6 3.5 14.5t-3.5 14.5l-22 29q1 8 -3.5 14t-18.5 6zM439 471q2 3 6.5 9t11.5 14q11 15 26.5 34.5
t31.5 39.5t29.5 37t20.5 26q12 15 20 28.5t16 26.5q10 16 19.5 31t21.5 28t27.5 23.5t37.5 19.5q9 4 22 9.5t27 10t27 8t23 3.5q6 0 9 -1t4 -8l111 -617q8 -39 24.5 -79.5t42.5 -70.5q7 -5 10 -7q5 -3 10.5 -6t3.5 -10l-2 -4l1 1l-4 -4q-5 -5 -7 -5h-308q-7 0 -7.5 21.5
t-0.5 52.5q0 24 -1 50.5t-5 48.5t-13 36t-25 14h-2l-53 -3h-12q-6 0 -13 -1q-32 -2 -71.5 -5t-77.5 -9.5t-69 -18t-45 -29.5l-125 -159l-11 -8h-4q-5 0 -13.5 -0.5t-13.5 -0.5h-12q-4 0 -7.5 0.5t-7.5 0.5h-21q-6 0 -15 1l-18 2t-15 2.5l-6 1.5l9 29q107 104 204 214.5
t189 222.5zM956 1047q6 0 5.5 -5.5t-1.5 -10.5q-2 -8 -12 -19.5t-25 -25t-32.5 -28.5t-34.5 -29q-24 -20 -43.5 -37t-28.5 -28q-23 -2 -41.5 -2.5t-36.5 -0.5h-34q-11 0 -25 0.5t-29 0.5l5 18q0 1 10 11t25.5 24.5t34.5 32.5t38 35t36 31.5t28 22.5q2 1 2.5 2t2.5 2q2 5 6 5
zM434 338q-1 -2 -1 -6q0 -3 4.5 -7.5t5.5 -4.5h208l-32 223l-12 17l-170 -216q-3 -4 -3 -6zM606 456l16 -114h-106zM786 1054q-1 0 -1 -1z" />
    <glyph glyph-name="FL00C2h" unicode="&#xc2;" horiz-adv-x="1085" 
d="M762 1072q-17 0 -25.5 -9t-11.5 -19q-21 -16 -50.5 -43.5t-56.5 -54t-46.5 -46t-19.5 -20.5l-11 -39h8l27 -37q9 0 19 -0.5t21 -0.5h64q2 0 4 -0.5t4 -0.5q-21 -10 -36.5 -22t-27.5 -25.5t-22 -29t-20 -32.5q-3 -5 -3 -7l-1 -4q-1 -2 -6.5 -10t-23.5 -31l-24 -30
q-20 -25 -44.5 -56t-41.5 -53l-14 -18l-3.5 -3.5t-9.5 -8.5h4q-93 -112 -188.5 -222t-197.5 -207l-4 -6l-10 -32q0 -5 10 -11l23 -32q2 -2 10 -6t18 -8t20.5 -6.5t18.5 -2.5h21q2 0 3 -0.5t3 -0.5h33q4 0 8 0.5t7 0.5h11l24 19l125 159q11 14 39 23t63.5 14.5t73 8.5t67.5 5
q7 1 13 1h11l48 3q2 -18 2.5 -40.5t1.5 -43.5q0 -3 0.5 -6.5t0.5 -6.5q-1 -34 1.5 -59t16.5 -29l22 -31q6 -7 14 -7h308q6 0 13.5 5t13.5 11v1h2q5 9 6 10.5t1 3.5q4 14 -1 22l-23 30q0 9 -5.5 14t-12.5 8l1 -1q-1 0 -1.5 0.5t-1.5 0.5l1 2q-5 2 -6.5 3t-5.5 4l-3 -2v2
q-11 23 -18.5 48t-12.5 50l-112 619h-1q-1 3 -2 5.5t-2 5.5l-20 28q-3 17 -11 19.5t-19 2.5q-10 0 -20 -2.5t-21 -5.5l1 1q0 1 2 2q18 20 40 40q5 -8 8 -16.5t5 -12.5q3 -4 6 -4v-1l26 -35q6 -2 10 -2h9h35q2 0 4.5 0.5t5.5 0.5h65q11 0 22.5 0.5t19.5 0.5l11 37
q0 1 -7.5 20t-19.5 45t-26 53t-26 43l-3 4v2q-1 1 -1 4h2l-24 33q-2 8 -4 13t-10 7l1 -1q-2 2 -4 3t-6 1zM439 472q2 2 6.5 8t11.5 14q11 15 26.5 34.5t31.5 39.5t29.5 37t20.5 26q12 15 20 28.5t16 26.5q10 16 19.5 31t21.5 28t27.5 23.5t37.5 19.5q9 4 22 9.5t27 10t27 8
t23 3.5q6 0 9 -1t4 -8l111 -617q8 -39 24.5 -79.5t42.5 -70.5q7 -5 10 -7q5 -3 10.5 -6t3.5 -10l-2 -4l1 1l-4 -4q-5 -5 -7 -5h-308q-7 0 -7.5 21.5t-0.5 52.5q0 24 -1 50.5t-5 48.5t-13 36t-25 14h-2l-53 -3h-12q-6 0 -13 -1q-32 -2 -71.5 -5t-77.5 -9.5t-69 -18t-45 -29.5
l-125 -159l-11 -8h-4q-5 0 -13.5 -0.5t-13.5 -0.5h-12q-4 0 -7.5 0.5t-7.5 0.5h-21q-6 0 -15 1l-18 2t-15 2.5l-6 1.5l9 29q107 104 204 215t189 223zM907 1049l1 -2q5 -1 5 -8q10 -12 24.5 -37.5t27 -51.5t21 -46t8.5 -21l-5 -18q-16 0 -29.5 -0.5t-24.5 -0.5h-35
q-5 0 -9.5 -0.5t-7.5 -0.5h-28q-2 0 -4 -0.5t-4 0.5q-2 5 -7 17t-11.5 25.5t-13.5 26.5t-11 21q-11 -8 -25 -21.5t-28.5 -28t-26 -26.5t-15.5 -17q-4 -1 -5.5 -0.5t-3.5 0.5h-26q-3 0 -7 0.5t-9 0.5h-35q-11 0 -25 0.5t-29 0.5l5 18q0 1 20.5 20.5t48 45.5t56 51.5
t45.5 38.5q2 4 4 9t8 5zM434 338q-1 -2 -1 -6q0 -3 4.5 -7.5t5.5 -4.5h208l-32 223l-12 17l-170 -216q-3 -4 -3 -6zM606 456l16 -114h-106z" />
    <glyph glyph-name="FL00C3h" unicode="&#xc3;" horiz-adv-x="1085" 
d="M504 819l-3 -11q3 -7 11 -10l21 -30q2 -4 8.5 -7.5t13.5 -6t12.5 -4t7.5 -1.5q6 1 15 9t19 19t20 22.5t18 20.5q0 1 2 2v1h90q-8 -4 -17 -7q-5 -2 -8.5 -3.5t-8.5 -3.5q-26 -10 -44.5 -22t-32 -27t-24.5 -31.5t-22 -35.5q-3 -5 -3 -7l-1 -4q-1 -2 -6.5 -10t-23.5 -31
l-24 -30q-20 -25 -44.5 -56t-41.5 -53l-14 -18l-3.5 -3.5t-9.5 -8.5h4q-93 -112 -188.5 -222t-197.5 -207l-4 -6l-10 -32q0 -5 10 -11l23 -32q2 -2 10 -6t18 -8t20.5 -6.5t18.5 -2.5h21q2 0 3 -0.5t3 -0.5h33q4 0 8 0.5t7 0.5h11l24 19l125 159q13 16 46 26t73 16t80.5 8
t67.5 2h34q4 0 12 -2q7 -24 8.5 -53t2.5 -55q0 -5 1 -8q0 -27 2 -45t14 -20l22 -31q4 -6 11 -6h308q6 0 13.5 5t13.5 11v1h2q5 9 6 10.5t1 3.5q4 14 -1 22l-23 30q0 9 -5.5 14t-12.5 8l1 -1q-1 0 -1.5 0.5t-1.5 0.5l1 2q-5 2 -6.5 3t-5.5 4l-3 -2v2q-11 23 -18.5 48
t-12.5 50l-112 619h-1q-1 3 -2 5.5t-2 5.5l-20 28l-1 4h152q11 8 16.5 14t8.5 9l29 37q10 12 17.5 23t14.5 22.5t13 26t12 34.5q4 15 -3 24l-21 29q-2 14 -12 19t-23 5h-17l-55 -64l-4 -2l-6 -3h-341q-7 -5 -16 -15t-13 -15q-7 -12 -11.5 -19t-9.5 -13q-2 -2 -3 -4t-3 -4
q0 -2 -2 -4q-19 -25 -35.5 -51.5t-24.5 -52.5zM439 471q2 3 6.5 9t11.5 14q11 15 26.5 34.5t31.5 39.5t29.5 37t20.5 26q12 15 20 28.5t16 26.5q10 16 19.5 31t21.5 28t27.5 23.5t37.5 19.5q9 4 22 9.5t27 10t27 8t23 3.5q6 0 9 -1t4 -8l111 -617q8 -39 24.5 -79.5
t42.5 -70.5q7 -5 10 -7q5 -3 10.5 -6t3.5 -10l-2 -4l1 1l-4 -4q-5 -5 -7 -5h-308q-3 0 -3 13v35q0 24 -1.5 54t-8 56.5t-21 44t-39.5 17.5h-34q-29 0 -72 -2.5t-86 -9.5t-79 -19.5t-51 -31.5l-125 -159l-11 -8h-4q-5 0 -13.5 -0.5t-13.5 -0.5h-12q-4 0 -7.5 0.5t-7.5 0.5
h-21q-6 0 -15 1l-18 2t-15 2.5l-6 1.5l9 29q107 104 204 214.5t189 222.5zM526 819q6 22 22.5 47t33.5 49q8 11 15.5 21t12.5 20q3 5 7.5 11t6.5 8h335q2 0 11.5 4t13.5 6l51 59h3q8 0 15 -3t4 -12q-10 -35 -22.5 -54.5t-31.5 -43.5l-28 -36v1q-4 -4 -8 -8.5t-5 -6.5h-346
l-5.5 -5.5t-6.5 -8.5q-7 -8 -15.5 -17.5t-16.5 -18.5t-14 -15.5t-9 -7.5q-2 0 -11.5 2t-12.5 6zM434 338q-1 -2 -1 -6q0 -3 4.5 -7.5t5.5 -4.5h208l-32 223l-12 17l-170 -216q-3 -4 -3 -6zM606 456l16 -114h-106z" />
    <glyph glyph-name="FL00C4h" unicode="&#xc4;" horiz-adv-x="1085" 
d="M794 840l-2 -2q1 0 2 0.5l1 0.5zM516 342h106l-16 114zM637 1013q-2 0 -5 -3.5t-5 -5.5q-7 -7 -13.5 -20.5t-12.5 -29t-11.5 -30.5t-8.5 -26l-9 -34q15 0 28.5 -0.5t24.5 -0.5h35q18 0 36 0.5t41 2.5q17 20 27 47t18 53l9 32q2 5 2.5 10.5t-5.5 5.5zM879 1014
q-2 0 -5.5 -3.5l-5.5 -5.5q-6 -7 -13 -20.5t-13 -29t-11 -30.5t-8 -26l-10 -34q15 0 28.5 -0.5t24.5 -0.5h35q18 0 36.5 0.5t41.5 2.5q16 20 26.5 47t17.5 53l9 32q2 5 2.5 10.5t-5.5 5.5zM434 338q0 2 3 6l170 216l12 -17l32 -223h-208q-1 0 -5.5 4.5t-4.5 7.5q0 4 1 6z
M439 471q-92 -112 -189 -222.5t-204 -214.5l-9 -29l6 -1.5t15 -2.5l18 -2t15 -1h21q4 0 7.5 -0.5t7.5 -0.5h12q5 0 13.5 0.5t13.5 0.5h4l11 8l125 159q15 19 51 31.5t79 19.5t86 9.5t72 2.5h34q25 0 39.5 -17.5t21 -44t8 -56.5t1.5 -54v-35q0 -13 3 -13h308q2 0 7 5l4 4
l-1 -1l2 4q2 7 -3.5 10t-10.5 6q-3 2 -10 7q-26 30 -42.5 70.5t-24.5 79.5l-111 617q-1 7 -4 8t-9 1q-10 0 -23 -3.5t-27 -8t-27 -10t-22 -9.5q-22 -9 -37.5 -19.5t-27.5 -23.5t-21.5 -28t-19.5 -31q-8 -13 -16.5 -27t-19.5 -28q-7 -9 -20.5 -26t-29.5 -37t-31.5 -39.5
t-26.5 -34.5q-7 -8 -11.5 -14t-6.5 -9zM26 41q108 104 203 213t186 218h-4q8 7 9.5 8.5l3.5 3.5l14 18q17 22 41.5 53t44.5 56l24 30q18 23 23.5 31t6.5 10l1 4q0 2 3 7q10 18 20.5 34t23 30t29.5 26t40 22h-76q-11 0 -21.5 0.5t-19.5 0.5l-27 36h-8l16 56q4 12 10 29
t13.5 35t15.5 34t17 25v-1q5 5 14 10t15 5l150 1q14 0 18.5 -6t3.5 -14l19 -24q9 16 21 30l1 -1q5 5 13.5 10t14.5 5l150 1q14 0 19 -6t4 -14l21 -29q5 -6 3.5 -14.5t-3.5 -14.5l-9 -32q-8 -27 -21 -58t-36 -59q-32 -3 -51.5 -3.5t-37.5 -0.5h-35h-39l12 -15q1 -3 2 -5.5
t2 -5.5h1l112 -619q5 -25 12 -50.5t19 -47.5v-2l3 2q4 -3 5.5 -4t6.5 -3l-1 -2q1 0 1.5 -0.5t1.5 -0.5l-1 1q7 -3 12.5 -8t5.5 -14l23 -30q5 -8 1 -22q0 -2 -1 -3.5t-6 -10.5h-2v-1q-6 -6 -13.5 -11t-13.5 -5h-308q-7 0 -11 6l-22 31q-12 2 -14 20t-2 45q-1 3 -1 8
q-2 25 -3 54.5t-8 53.5q-8 2 -12 2h-34q-27 0 -67.5 -2t-80.5 -8t-73 -16t-46 -26l-125 -159l-24 -19h-11q-3 0 -7 -0.5t-8 -0.5h-33q-2 0 -3 0.5t-3 0.5h-21q-8 0 -18.5 2.5t-20.5 6.5t-18 8t-10 6l-23 32q-10 6 -10 11z" />
    <glyph glyph-name="FL00C5h" unicode="&#xc5;" horiz-adv-x="1085" 
d="M516 342h106l-16 114zM741 1015q-2 0 -5.5 -3.5l-5.5 -5.5q-6 -7 -12.5 -20.5t-12.5 -29t-11 -30.5t-8 -26l-10 -34q14 0 28 -0.5t25 -0.5h35q18 0 36.5 0.5t41.5 2.5q17 20 27 47t18 53l9 32q1 5 1.5 10.5t-5.5 5.5zM434 338q0 2 3 6l170 216l12 -17l32 -223h-208
q-1 0 -5.5 4.5t-4.5 7.5q0 4 1 6zM439 471q-92 -112 -189 -222.5t-204 -214.5l-9 -29l6 -1.5t15 -2.5l18 -2t15 -1h21q4 0 7.5 -0.5t7.5 -0.5h12q5 0 13.5 0.5t13.5 0.5h4l11 8l125 159q15 19 51 31.5t79 19.5t86 9.5t72 2.5h34q25 0 39.5 -17.5t21 -44t8 -56.5t1.5 -54v-35
q0 -13 3 -13h308q2 0 7 5l4 4l-1 -1l2 4q2 7 -3.5 10t-10.5 6q-3 2 -10 7q-26 30 -42.5 70.5t-24.5 79.5l-111 617q-1 7 -4 8t-9 1q-10 0 -23 -3.5t-27 -8t-27 -10t-22 -9.5q-22 -9 -37.5 -19.5t-27.5 -23.5t-21.5 -28t-19.5 -31q-8 -13 -16.5 -27t-19.5 -28
q-7 -9 -20.5 -26t-29.5 -37t-31.5 -39.5t-26.5 -34.5q-7 -8 -11.5 -14t-6.5 -9zM26 41q108 104 203 213t186 218h-4q8 7 9.5 8.5l3.5 3.5l14 18q17 22 41.5 53t44.5 56l24 30q18 23 23.5 31t6.5 10l1 4q0 2 3 7q11 18 21.5 35t24 31.5t31 26.5t43.5 22h-20l-26 36h-8l16 56
q3 12 9 29t13.5 35t15.5 34t17 25l1 -1q5 5 13 10t14 5l152 1q13 0 17.5 -6t3.5 -14l23 -29q4 -6 2.5 -14.5t-3.5 -14.5l-9 -32q-8 -27 -21 -58t-36 -59q-8 -1 -15 -1t-12 -1l13 -18q1 -3 2 -5.5t2 -5.5h1l112 -619q5 -25 12 -50.5t19 -47.5v-2l3 2q4 -3 5.5 -4t6.5 -3
l-1 -2q1 0 1.5 -0.5t1.5 -0.5l-1 1q7 -3 12.5 -8t5.5 -14l23 -30q5 -8 1 -22q0 -2 -1 -3.5t-6 -10.5h-2v-1q-6 -6 -13.5 -11t-13.5 -5h-308q-7 0 -11 6l-22 31q-12 2 -14 20t-2 45q-1 3 -1 8q-2 25 -3 54.5t-8 53.5q-8 2 -12 2h-34q-27 0 -67.5 -2t-80.5 -8t-73 -16t-46 -26
l-125 -159l-24 -19h-11q-3 0 -7 -0.5t-8 -0.5h-33q-2 0 -3 0.5t-3 0.5h-21q-8 0 -18.5 2.5t-20.5 6.5t-18 8t-10 6l-23 32q-10 6 -10 11z" />
    <glyph glyph-name="FL00C6h" unicode="&#xc6;" horiz-adv-x="1531" 
d="M25 37l-10 -32q0 -5 10 -11l23 -32q2 -2 10 -6t18.5 -8t21 -6.5t17.5 -2.5h21q2 0 3 -0.5t3 -0.5h33q4 0 8 0.5t7 0.5h11l24 19l126 159q13 16 46 26t73 16t80.5 8t67.5 2h34q4 0 12 -2q7 -24 8 -53.5t3 -54.5q0 -5 1 -8q0 -27 2 -45t14 -20l22 -31q4 -6 11 -6h17
q4 -2 9 -2h508q34 0 80 12.5t90.5 36.5t80.5 59.5t49 81.5l-27 37v2q3 3 3 6q-42 0 -71.5 -2t-55.5 -4t-52.5 -4t-52.5 -2h-81h-34q-16 0 -33 1q52 40 104 73q46 32 91 64t89 67h-4q7 7 9 15q3 10 -18 39l-10 12h1q-5 17 -31.5 49.5t-60.5 70.5q-2 1 -2.5 2t-1.5 2l-1 2
q-5 6 -11 12.5t-11 11.5q-8 8 -15.5 17t-15.5 18q11 2 21 3t15 1q9 1 30 3t47.5 4t56 4.5t56 4.5t48 3t31.5 1q12 9 28 20t32 24t31 27t26 28q3 6 3.5 7.5l1.5 4.5l1 8q-1 3 -5 11l-21 28v2q0 5 -7.5 13t-13.5 10q-6 -1 -20.5 -2.5t-30.5 -3t-30.5 -2.5t-20.5 -1h-104
q-8 0 -15.5 -0.5t-15.5 -0.5h-190q-8 0 -15 0.5t-15 0.5h-109q-3 -2 -10 -7.5t-15 -11.5t-14.5 -11t-8.5 -7q-13 -11 -32.5 -29t-38 -35.5t-32 -31t-14.5 -15.5l-8 -28l205 -319l-151 -87l-96 537h-1l-1 6h1l-2 1q0 1 -1 2t-1 3h-1l-18 27q-3 16 -11 18.5t-19 2.5
q-22 0 -50.5 -10t-49.5 -18l-7 -3q-27 -10 -45.5 -22t-32.5 -27t-25 -31.5t-22 -35.5q-2 -6 -3 -7l-1 -4q0 -2 -5.5 -9.5t-22.5 -31.5l-24 -30q-20 -25 -44.5 -56t-41.5 -52l-14 -18l-3.5 -3.5t-9.5 -8.5h4q-94 -112 -189 -222t-198 -207zM440 471q2 3 6.5 9t11.5 14
q11 14 26.5 34t31.5 39.5t29 36.5t20 26q11 15 19 29t16 26q20 33 42 59t66 43q9 4 22 9.5t27 10t27 8t23 3.5q6 0 9 -1t4 -8l111 -607l216 125l-214 330l6 19l12 11.5t29.5 27t35.5 31.5t30 27q1 1 6 5t10.5 8.5l11 9t8.5 6.5h37q20 0 44 -0.5t52 -0.5h190q29 0 53.5 0.5
t44.5 0.5h37q6 0 19.5 1t29.5 2.5t30.5 3t21.5 2.5l3 -3t3 -4l-1 -4l-2 -4q-20 -25 -50 -48.5t-52 -39.5q-15 0 -52.5 -2.5t-79.5 -6t-79.5 -7t-52.5 -4.5q-3 0 -14.5 -1.5t-24 -3t-24 -4t-15.5 -3.5q14 -23 44.5 -58.5t62.5 -73.5q18 -20 34.5 -39t29 -34.5t19.5 -26
t6 -14.5q-1 -2 -2 -5l-1 -3q-42 -35 -84 -64.5t-87 -59.5q-42 -29 -84.5 -59.5t-88.5 -68.5q37 -14 79.5 -18t86.5 -4h81q27 0 53.5 2t53.5 4l52 4t52 2q-12 -37 -44.5 -66t-72.5 -48.5t-81.5 -29.5t-72.5 -10h-508l-2 2h-24q-3 0 -3 13v35q0 24 -1.5 54t-8 56t-21 43.5
t-39.5 17.5h-34q-29 0 -72 -2.5t-86 -9t-79 -19t-52 -31.5l-125 -159l-11 -8h-4q-5 0 -13.5 -0.5t-13.5 -0.5h-12q-3 0 -6.5 0.5t-7.5 0.5h-21q-6 0 -15.5 1t-18.5 2t-15 2.5l-6 1.5l9 29q107 104 204 214.5t190 222.5zM435 338q-1 -2 -1 -6q0 -3 4.5 -7.5t5.5 -4.5h208
l-33 222l-12 17l-169 -215q-3 -4 -3 -6zM606 455l17 -113h-107z" />
    <glyph glyph-name="FL00C7h" unicode="&#xc7;" horiz-adv-x="924" 
d="M181 92q32 -45 81.5 -75.5t108.5 -48.5q-23 -12 -45 -22.5t-36 -17.5l-7 -3q-1 0 -2 -0.5t-4 -2.5t-9.5 -5.5t-18.5 -9.5l52 -86h4l25 -37q9 0 18.5 -0.5t18.5 -0.5h62q19 0 38.5 0.5t51.5 3.5q2 2 4.5 5.5t5.5 7.5l26 34q5 6 10 12.5t11 13.5q17 22 35.5 45t32.5 42h220
l43 147l-26 37l2 8q-24 -1 -50 -2.5t-51.5 -2.5t-49.5 -2.5t-43 -2.5q-49 -3 -90 -5t-73 -2q-21 0 -40 1t-33 5l-7 2l-6 3q-7 4 -7 5h1q-7 23 -6.5 50.5t5.5 57.5t13.5 62t17.5 65q15 52 37 109t55 104t79 77.5t109 30.5l79 1l113 -87l106 9q36 38 55 64t24 45q6 22 0 38.5
t-20 37.5l-12 15q-2 6 -6 13.5t-9 15.5h-347q-97 -8 -184 -32.5t-173 -83.5q-88 -60 -151.5 -149.5t-98.5 -210.5q-25 -87 -8 -153t62 -114zM722 753q-70 0 -120.5 -32.5t-86.5 -82t-59.5 -110t-39.5 -115.5q-13 -46 -24 -91t-13.5 -84t6.5 -71t36 -53l6 -3v-1l9 -3h1l3 -1
q15 -4 35 -5t45 -1q32 0 73.5 2t90.5 5q75 4 171 9l-32 -110h-214q-21 -30 -48.5 -64t-48.5 -60q-10 -11 -17 -21t-12 -16q-23 -2 -41 -2.5t-36 -0.5h-35q-12 0 -26 0.5t-29 0.5l-36 59l7 3l33 15t48 23.5t52 29t46 32.5q-75 7 -144.5 33t-117.5 71t-67.5 110t5.5 151
q34 117 94.5 202t143.5 142q41 29 82.5 48t83.5 31.5t85.5 19.5t89.5 11h338q9 -17 14.5 -29.5t0.5 -28.5q-8 -28 -68 -92l-86 -8l-112 88z" />
    <glyph glyph-name="FL00C8h" unicode="&#xc8;" horiz-adv-x="846" 
d="M573 1049q-6 0 -8.5 -6t-4.5 -11q-2 -8 1.5 -19t10 -24.5t16 -28.5t18.5 -29q12 -20 21.5 -37t12.5 -28q22 -2 39.5 -2.5t36.5 -0.5h34q11 0 25 0.5t30 0.5l5 18q0 1 -9 21.5t-22 46.5t-27 51.5t-24 37.5q-1 1 -1 2t-1 2l-3 5zM41 14l2 -3q1 -2 2 -3.5l1 -1.5h506
q30 0 71.5 10t81.5 29.5t72.5 48.5t44.5 66q-26 0 -52 -2l-52 -4q-27 -2 -53 -4t-53 -2h-81q-44 0 -86.5 4t-78.5 18q45 38 88 68.5t85 59.5q44 30 86 60t84 65l1.5 3l2.5 5q1 4 -6.5 14.5t-20 25.5t-28.5 34t-34 40q-32 38 -62.5 73.5t-44.5 58.5q4 1 15.5 3.5t24 4t24 3
t14.5 1.5q15 1 52 4.5t79 7t79.5 6t51.5 2.5q11 8 24.5 18t28 21.5t28 24t23.5 24.5l2 4v4q-3 5 -6 7q-7 -1 -22 -2.5t-30.5 -3t-29.5 -2.5t-20 -1h-36q-20 0 -44.5 -0.5t-53.5 -0.5h-189q-28 0 -52 0.5t-44 0.5h-37q-3 -2 -8 -6.5t-11 -9t-11 -8.5t-6 -5q-12 -11 -30 -27
t-35 -31.5t-29 -27t-12 -12.5l-6 -19l212 -330l-305 -177l-26 -20q-5 -5 -17.5 -20.5t-27 -32.5t-27 -33t-17.5 -22l1 1q-2 -2 -2 -3l-1 -2v-4zM729 1070q8 0 12 -5.5t7 -10.5l-1 -1q5 -5 8.5 -11.5t8.5 -14.5l9 -11h-2q1 -1 1 -3l4 -5q10 -15 24.5 -42t27.5 -54t21.5 -47.5
t8.5 -21.5l-5 -18h9q6 0 20.5 1t30.5 2.5t30.5 3.5t20.5 3q7 -2 14.5 -10.5t7.5 -13.5l-1 -2l20 -28q2 -3 3.5 -6t1.5 -5l-1 -8l-1.5 -4.5t-3.5 -7.5q-11 -14 -26 -28t-31 -27t-31 -24.5t-27 -19.5q-16 0 -54.5 -2.5t-81.5 -6t-81 -7t-53 -4.5q-5 0 -15 -1t-21 -3
q17 -20 33 -35q5 -5 10.5 -11.5t10.5 -12.5l1 -2q1 -1 1.5 -2t1.5 -2q34 -38 60.5 -70.5t32.5 -49.5h-1l8 -12q21 -29 18 -39q-2 -7 -9 -16h4q-43 -35 -88 -67t-91 -63l-52 -36t-52 -38q17 -1 33 -1h34h81q26 0 52 2l52 4q27 2 56 4t71 2q0 -3 -3 -6v-2l27 -37
q-13 -46 -49 -81.5t-80.5 -59.5t-90.5 -36.5t-79 -12.5h-508q-7 4 -8.5 5t-3.5 6l-19 27q-5 3 -7 4.5t-5 6.5l-7 9q1 6 1 7q0 2 1 6l2 7q0 1 1 2t1 2q5 6 18 22.5t28.5 34.5t29.5 34t20 23l31 24l281 162l-204 320l8 27q1 3 14.5 16.5t31.5 31t37.5 35.5t32.5 29q2 2 8.5 7
t14.5 11t15.5 11.5t10.5 7.5h109q8 0 14.5 -0.5t14.5 -0.5h103l-16 20h-2q-1 0 -2 0.5t-2 0.5q-2 14 -11.5 33.5t-21.5 37.5q-22 31 -38 63t-10 53q1 5 3.5 12t7 13t12 10t18.5 4z" />
    <glyph glyph-name="FL00C9h" unicode="&#xc9;" horiz-adv-x="846" 
d="M702 1049q-19 -14 -49 -42t-58.5 -55.5t-49 -48.5t-20.5 -22l-12 -39h8l13 -18q-7 0 -13 0.5t-12 0.5h-109q-3 -2 -10.5 -7.5t-15.5 -11.5t-14.5 -11t-8.5 -7q-13 -11 -32.5 -29t-37.5 -35.5t-31.5 -31t-14.5 -16.5l-8 -27l204 -320l-281 -162l-31 -24q-6 -7 -20 -23
t-29.5 -34t-28.5 -34.5t-18 -22.5q0 -1 -1 -2t-1 -2l-2 -7q-1 -4 -1 -6q0 -1 -1 -7l7 -9q3 -5 5 -6.5t7 -4.5l19 -27q2 -5 3.5 -6t8.5 -5h508q33 0 79 12.5t90.5 36.5t80.5 59.5t49 81.5l-27 37v2q3 3 3 6q-42 0 -71 -2t-56 -4l-52 -4t-52 -2h-81h-34q-16 0 -33 1
q26 20 52 38l52 36q46 31 91 63t88 67h-4q7 9 9 16q3 10 -18 39l-8 11v1h1q-6 17 -32.5 49.5t-60.5 70.5q-1 1 -1.5 2t-1.5 2l-1 2q-5 6 -10.5 12.5t-10.5 11.5q-16 15 -33 35q11 2 21 3t15 1q15 1 53 4.5t81 7t81.5 6t54.5 2.5q12 8 27 19.5t31 24.5t31 27t26 28
q3 6 3.5 7.5l1.5 4.5l1 8q0 2 -1.5 5t-3.5 6l-20 28l1 2q0 5 -7.5 13.5t-14.5 10.5q-6 -1 -20.5 -3t-30.5 -3.5t-30.5 -2.5t-20.5 -1h-93q-3 0 -6.5 -0.5t-6.5 -0.5q13 13 28.5 26t32.5 27q19 15 38 31t34.5 31t26 28.5t13.5 24.5q2 6 3.5 14.5t-2.5 14.5l-22 29
q1 8 -3.5 14t-18.5 6l-150 -1q-7 0 -14.5 -4.5t-11.5 -9.5zM41 18l1 2q0 1 2 3l-1 -1q5 6 17.5 22t27 33t27 32.5t17.5 20.5l26 20l305 177l-212 330l6 19q0 1 12 12.5t29 27t35 31.5t30 27q1 1 6 5t11 8.5t11 9t8 6.5h37q20 0 44 -0.5t52 -0.5h189q29 0 53.5 0.5t44.5 0.5
h36q6 0 20 1t29.5 2.5t30.5 3t22 2.5q3 -2 6 -7v-4l-2 -4q-10 -12 -23.5 -24.5t-28 -24t-28 -21.5t-24.5 -18q-14 0 -51.5 -2.5t-79.5 -6t-79 -7t-52 -4.5q-3 0 -14.5 -1.5t-24 -3t-24 -4t-15.5 -3.5q14 -23 44.5 -58.5t62.5 -73.5q18 -21 34 -40t28.5 -34t20 -25.5
t6.5 -14.5l-2.5 -5l-1.5 -3q-42 -35 -84 -65t-86 -60q-42 -29 -85 -59.5t-88 -68.5q36 -14 78.5 -18t86.5 -4h81q27 0 53 2t53 4l52 4t52 2q-12 -37 -44.5 -66t-72.5 -48.5t-81.5 -29.5t-71.5 -10h-506l-1 1.5t-2 3.5l-2 3v4zM880 1048q6 0 5 -6t-2 -11q-2 -8 -12 -19
t-24.5 -24.5t-32 -28.5t-35.5 -29q-25 -20 -44 -37t-28 -28q-23 -2 -41.5 -2.5t-36.5 -0.5h-35q-11 0 -24.5 0.5t-28.5 0.5l6 18q0 1 20.5 21.5t49 47t57 52t45.5 36.5l4 4q2 5 6 5zM730 435q-1 0 -1 1z" />
    <glyph glyph-name="FL00CAh" unicode="&#xca;" horiz-adv-x="846" 
d="M650 1073q-18 0 -27 -9t-11 -19q-21 -16 -50.5 -43.5t-56.5 -54t-46 -46t-19 -20.5l-12 -39h8l12 -17h-48q-3 -2 -10.5 -7.5t-15.5 -11.5t-14.5 -11t-8.5 -7q-13 -11 -32.5 -29t-37.5 -35.5t-31.5 -31t-14.5 -16.5l-8 -27l204 -320l-281 -162l-31 -24q-6 -7 -20 -23
t-29.5 -34t-28.5 -34.5t-18 -22.5q0 -1 -1 -2t-1 -2l-2 -7q-1 -4 -1 -6q0 -1 -1 -7l7 -9q3 -5 5 -6.5t7 -4.5l19 -27q2 -5 3.5 -6t8.5 -5h508q33 0 79 12.5t90.5 36.5t80.5 59.5t49 81.5l-27 37v2q3 3 3 6q-42 0 -71 -2t-56 -4l-52 -4t-52 -2h-81h-34q-16 0 -33 1
q26 20 52 38l52 36q46 31 91 63t88 67h-4q7 9 9 16q3 10 -18 39l-8 12h1q-6 17 -32.5 49.5t-60.5 70.5q-1 1 -1.5 2t-1.5 2l-1 2q-5 6 -10.5 12.5t-10.5 11.5q-16 15 -33 35q11 2 21 3t15 1q15 1 53 4.5t81 7t81.5 6t54.5 2.5q12 8 27 19.5t31 24.5t31 27t26 28q3 6 3.5 7.5
l1.5 4.5l1 8q0 2 -1.5 5t-3.5 6l-20 28l1 2q0 5 -7.5 13.5t-14.5 10.5q-5 -2 -16.5 -3t-24.5 -3l4 15q0 1 -7.5 20t-19.5 45.5t-26 53.5t-26 43l-1 1q-1 1 -1 2t-0.5 1.5t-0.5 1.5q0 6 -2 9l-18 22q-1 2 -2 3t-1 3q-1 8 -3.5 13t-10.5 7v-1q-2 2 -4 3t-6 1zM41 18l1 2
q0 1 2 3l-1 -1q5 6 17.5 22t27 33t27 32.5t17.5 20.5l26 20l305 177l-212 330l6 19q0 1 12 12.5t29 27t35 31.5t30 27q1 1 6 5t11 8.5t11 9t8 6.5h37q20 0 44 -0.5t52 -0.5h189q29 0 53.5 0.5t44.5 0.5h36q6 0 20 1t29.5 2.5t30.5 3t22 2.5q3 -2 6 -7v-4l-2 -4
q-10 -12 -23.5 -24.5t-28 -24t-28 -21.5t-24.5 -18q-14 0 -51.5 -2.5t-79.5 -6t-79 -7t-52 -4.5q-3 0 -14.5 -1.5t-24 -3t-24 -4t-15.5 -3.5q14 -23 44.5 -58.5t62.5 -73.5q18 -21 34 -40t28.5 -34t20 -25.5t6.5 -14.5l-2.5 -5l-1.5 -3q-42 -35 -84 -65t-86 -60
q-42 -29 -85 -59.5t-88 -68.5q36 -14 78.5 -18t86.5 -4h81q27 0 53 2t53 4l52 4t52 2q-12 -37 -44.5 -66t-72.5 -48.5t-81.5 -29.5t-71.5 -10h-506l-1 1.5t-2 3.5l-2 3v4zM792 1050l2 -2q4 -1 4 -9q11 -12 25 -37t26.5 -51t21 -46t8.5 -21l-5 -18q-15 0 -28.5 -0.5
t-24.5 -0.5h-35q-5 0 -9 -0.5t-7 -0.5h-29q-2 0 -4 -0.5t-4 0.5q-2 5 -7 17t-11 25.5t-13 26.5t-11 21q-11 -8 -25.5 -21.5t-29 -28t-26 -26.5t-15.5 -17q-3 -1 -4.5 -0.5t-3.5 0.5h-27q-3 0 -7 0.5t-9 0.5h-35q-11 0 -25 0.5t-29 0.5l6 18l9.5 9.5t24.5 24t34 32.5t37.5 35
t35.5 31.5t29 22.5l4 10t8 5zM713 847q3 -3 6 -3l1 -1l14 -19h-88q11 11 25.5 25t28.5 28q5 -8 8 -16.5t5 -13.5z" />
    <glyph glyph-name="FL00CBh" unicode="&#xcb;" horiz-adv-x="846" 
d="M683 840q-3 -5 -6 -9t-5 -8h24zM526 1013q-2 0 -5.5 -4t-4.5 -6q-7 -7 -13.5 -20t-12.5 -28.5t-11.5 -30.5t-8.5 -26l-9 -34q15 0 28.5 -0.5t24.5 -0.5h35q18 0 36 0.5t41 2.5q17 20 27 47t18 53l9 32q2 4 2.5 10t-5.5 6zM768 1014q-2 0 -5.5 -4t-5.5 -6q-6 -7 -13 -20
t-13 -28.5t-11 -30.5t-8 -26l-10 -34q15 0 28.5 -0.5t24.5 -0.5h35q18 0 36 0.5t41 2.5q16 20 26.5 47t17.5 53l9 32q2 4 2.5 10t-5.5 6zM41 14l2 -3q1 -2 2 -3.5l1 -1.5h506q30 0 71.5 10t81.5 29.5t72.5 48.5t44.5 66q-26 0 -52 -2l-52 -4q-27 -2 -53 -4t-53 -2h-81
q-44 0 -86.5 4t-78.5 18q45 38 88 68.5t85 59.5q44 30 86 60t84 65l1.5 3l2.5 5q1 4 -6.5 14.5t-20 25.5t-28.5 34t-34 40q-32 38 -63 73.5t-44 58.5q4 1 15.5 3.5t24 4t24 3t14.5 1.5q15 1 52 4.5t79 7t79.5 6t51.5 2.5q11 8 24.5 18t28 21.5t28 24t23.5 24.5l2 4v4
q-3 5 -6 7q-7 -1 -22 -2.5t-30.5 -3t-29.5 -2.5t-20 -1h-36q-20 0 -44.5 -0.5t-53.5 -0.5h-189q-28 0 -52 0.5t-44 0.5h-37q-3 -2 -8 -6.5t-11 -9t-11 -8.5t-6 -5q-12 -11 -30 -27t-35 -31.5t-29 -27t-12 -12.5l-6 -19l212 -330l-305 -177l-26 -20q-5 -5 -17.5 -20.5
t-27 -32.5t-27 -33t-17.5 -22l1 1q-2 -2 -2 -3l-1 -2v-4zM923 1037q14 0 19 -6t4 -14l22 -29q5 -6 3.5 -14.5t-3.5 -14.5l-9 -32q-7 -24 -17.5 -50t-27.5 -50q17 2 30.5 3.5t19.5 3.5q7 -2 14 -10t8 -13l-1 -2l20 -28q2 -3 3.5 -6t1.5 -5l-1 -8l-1.5 -4.5t-3.5 -7.5
q-11 -14 -26 -28t-31 -27t-31.5 -24.5t-27.5 -20.5q-11 0 -32 -1t-47.5 -3t-56 -4t-56 -4t-47 -4t-30.5 -3q-5 0 -15 -1t-21 -3q17 -20 33 -35q5 -5 10.5 -11.5t10.5 -12.5l1 -2q1 -1 1.5 -2t1.5 -2q34 -38 60.5 -71t32.5 -49h-1l8 -12q21 -29 18 -39q-2 -7 -9 -16h4
q-43 -35 -88 -67t-91 -63l-52 -36t-52 -38q17 -1 33 -1h34h81q26 0 52 2l52 4q27 2 56 4t71 2q0 -3 -3 -6v-2l27 -37q-13 -46 -49 -81.5t-80.5 -59.5t-90.5 -36.5t-79 -12.5h-508q-7 4 -8.5 5t-3.5 6l-19 27q-5 3 -7 4.5t-5 6.5l-7 9q1 6 1 7q0 2 1 6l2 7q0 1 1 2t1 2
q5 6 18 22.5t28.5 34.5t29.5 34t20 23l31 24l281 162l-204 319l8 28q1 3 14.5 16.5t31.5 31t37.5 35.5t32.5 29q2 2 8.5 7t14.5 11t15 11t10 7h54l-12 18h-8l16 56q4 12 10 29t13 35t15.5 34t16.5 25v-1q5 5 14 10t15 5l150 1q14 0 18.5 -6t3.5 -14l19 -24q7 15 21 30l1 -1
q5 5 13.5 10t14.5 5z" />
    <glyph glyph-name="FL00CCh" unicode="&#xcc;" horiz-adv-x="841" 
d="M537 1049q-6 0 -8.5 -6t-4.5 -10q-2 -8 1.5 -19.5t10 -25t16 -28.5t18.5 -29q13 -20 22 -37t12 -28q22 -2 39.5 -2.5t36.5 -0.5h35q11 0 24.5 0.5t29.5 0.5l5 18q0 1 -9 21.5t-22 46.5t-27 51.5t-24 37.5q-1 1 -1 2t-1 2l-3 5zM316 127q-2 0 -9.5 -1.5t-17.5 -3l-20 -3
t-16 -2.5q-8 -1 -21.5 -3t-28 -3.5t-28.5 -3t-22 -1.5l-112 -87l-4 -16q84 5 152.5 6.5t128.5 1.5q63 0 116.5 -1t103.5 -3q45 -2 89.5 -3t92.5 -1h8q10 14 22.5 33t25 40t23.5 42.5t17 40.5q-5 -1 -12.5 -1.5t-9.5 -1.5q-2 0 -10 -3t-17 -7t-17 -7t-11 -3q-35 -6 -64 -8
t-66 -2q-6 0 -16.5 0.5t-15.5 0.5h-5l-5 7q8 32 16 62.5t16 61.5q13 52 26 104.5t28 106.5l12 40q4 14 8.5 28t8.5 28l19 66l24 49l8 2t18.5 4t21.5 3.5t18 2.5t20 2.5t26.5 3t26.5 2.5t21 1l112 88l5 16q-49 0 -92 -1.5t-85 -3.5q-43 -2 -86.5 -3.5t-92.5 -1.5
q-48 0 -87.5 1.5t-79.5 3.5q-38 2 -76.5 3.5t-83.5 1.5h-8q-10 -14 -22.5 -33t-25.5 -40.5t-23.5 -43t-16.5 -39.5q5 0 12.5 1t9.5 2q2 0 9.5 3t17.5 6q8 3 15.5 6t11.5 4q35 6 67.5 9t68.5 3q6 0 16.5 -0.5t15.5 -0.5h5l8 -12l-161 -543h-4h1zM257 139q7 1 17 2t19 3h-1
q5 1 11 1l141 480q-31 -1 -59 -4t-58 -8l-11 -4q-4 -2 -7 -2.5t-7 -2.5q-11 -5 -19.5 -8t-13.5 -3q-8 -2 -22 -2.5t-18 -0.5l-26 37h-8q8 27 21.5 56t29.5 55.5t31 49.5t26 39h22q67 0 124 -3q9 -1 18.5 -1.5t18.5 -0.5q30 -2 60.5 -3.5t63.5 -1.5l-21 28h-2q-1 0 -1.5 0.5
t-1.5 0.5q-2 14 -11.5 33t-22.5 37q-22 31 -38 63t-10 54q1 5 3.5 11.5t7 12.5t12 10t18.5 4l150 -1q8 0 12 -5.5t7 -10.5l-1 -1q5 -5 8.5 -11.5t8.5 -14.5l10 -11h-2q1 -1 1 -3l4 -5q10 -15 24 -42t27 -54t21.5 -47.5t8.5 -21.5l-7 -22h7q4 0 9 1h12q3 0 5.5 0.5t5.5 0.5
q40 2 86.5 3t89.5 1l-2 -8l26 -37l-11 -40l-128 -99q-9 0 -23 -1t-28.5 -2.5t-27.5 -3t-21 -2.5q-11 -2 -25.5 -3.5t-22.5 -2.5l-20 -42l-25 -88q-2 -7 -4.5 -14t-4.5 -14l-12 -41q-15 -54 -28 -106l-26 -104q-3 -10 -5.5 -19t-4.5 -18q-2 -8 -4.5 -17t-4.5 -17q29 0 54.5 2
t57.5 8q2 0 9 2.5t16 6.5q3 0 4 1l9 4q6 2 11.5 4t10.5 2q8 1 22.5 2t21.5 1l-2 -8l26 -37q-8 -26 -21 -53.5t-28 -53t-30 -47.5t-26 -38h-21q-48 0 -92 1t-89 3q-51 2 -104.5 3t-116.5 1q-60 0 -136 -2t-161 -7l-27 38q-1 0 -2 -0.5l-1 -0.5h-5l14 47l130 101q10 0 25 1.5
l30 3t28.5 3.5t21.5 3z" />
    <glyph glyph-name="FL00CDh" unicode="&#xcd;" horiz-adv-x="841" 
d="M870 1072l-150 -1q-7 0 -14 -4.5t-12 -9.5l-3 -3q1 1 2 1l-2 -1v-1v1q-12 -9 -30.5 -24.5t-38.5 -34.5t-40.5 -39t-36.5 -36t-26 -26.5l-10 -10.5l-11 -39h8l16 -25q-20 1 -36 3q-9 0 -18.5 0.5t-18.5 1.5q-57 3 -124 3h-22q-11 -16 -26 -39t-31 -49.5t-29.5 -55.5
t-21.5 -56h8l26 -37q4 0 18 0.5t22 2.5q5 0 13.5 3t19.5 8q4 2 7 2.5t7 2.5l11 4q30 5 58 8t59 4l-141 -480q-6 0 -11 -1h1q-9 -2 -19 -3t-17 -2q-8 -1 -21.5 -3t-28.5 -3.5l-30 -3t-25 -1.5l-130 -101l-14 -47h5l1 0.5t2 0.5l27 -38q85 5 161 7t136 2q63 0 116.5 -1
t104.5 -3q45 -2 89 -3t92 -1h21q11 16 26 38t30 47.5t28 53t21 53.5l-26 37l2 8q-6 0 -21.5 -1t-23.5 -2q-8 0 -18 -5l-12 -5q-1 -1 -4 -1q-9 -4 -16 -6.5t-9 -2.5q-32 -6 -57.5 -8t-54.5 -2q2 8 4.5 17t4.5 17q2 9 4.5 18t5.5 19l26 104t28 106l12 41q2 7 4.5 14t4.5 14
l25 88l20 42q8 1 22.5 2.5t25.5 3.5q8 1 21 2.5t27.5 3t28.5 2.5t23 1l128 99l11 40l-26 37l2 8q-43 0 -89.5 -1t-86.5 -3q-3 0 -5.5 -0.5t-5.5 -0.5h-17q-24 -2 -47 -3t-47 -2q11 13 29.5 29t40.5 33q19 15 38 31t34.5 31t26 28.5t13.5 24.5q2 6 3.5 14.5t-3.5 14.5l-21 29
q1 8 -4 14t-19 6zM319 127l161 543l-8 12h-5q-5 0 -15.5 0.5t-16.5 0.5q-36 0 -68.5 -3t-67.5 -9q-4 -1 -11.5 -4t-15.5 -6q-10 -3 -17.5 -6t-9.5 -3q-2 -1 -9.5 -2t-12.5 -1q6 18 16.5 39.5t23.5 43t25.5 40.5t22.5 33h8q45 0 83.5 -1.5t76.5 -3.5q40 -2 79.5 -3.5
t87.5 -1.5q49 0 92.5 1.5t86.5 3.5q42 2 85 3.5t92 1.5l-5 -16l-112 -88q-8 0 -21 -1t-26.5 -2.5t-26.5 -3t-20 -2.5t-18 -2.5t-21.5 -3.5t-18.5 -4l-8 -2l-24 -49l-19 -66q-4 -14 -8.5 -28t-8.5 -28l-12 -40q-15 -54 -28 -106.5t-26 -104.5q-8 -31 -16 -61.5t-16 -62.5
l5 -7h5q5 0 15.5 -0.5t16.5 -0.5q37 0 66 2t64 8q3 0 11 3t17 7t17 7t10 3q2 1 9.5 1.5t12.5 1.5q-6 -19 -17 -40.5t-23.5 -42.5t-25 -40t-22.5 -33h-8q-48 0 -92.5 1t-89.5 3q-50 2 -103.5 3t-116.5 1q-60 0 -128.5 -1.5t-152.5 -6.5l4 16l112 87q8 0 22 1.5t28.5 3t28 3.5
t21.5 3q6 1 16 2.5l20 3t17.5 3t9.5 1.5h-1h4zM864 1050q6 0 5.5 -6t-2.5 -10q-2 -8 -12 -19.5t-24.5 -25t-32 -28.5t-35.5 -29q-23 -20 -42.5 -37t-28.5 -28q-23 -2 -41.5 -2.5t-36.5 -0.5h-34q-11 0 -25 0.5t-29 0.5l5 18l10 10t25.5 25t34.5 33.5t38 35.5t36 31.5
t28 21.5q2 1 2.5 2t1.5 2q5 5 7 5z" />
    </font>
</defs>
</svg>
