<?xml version="1.0" standalone="no"?>
<!DOCTYPE svg PUBLIC "-//W3C//DTD SVG 1.1//EN" "http://www.w3.org/Graphics/SVG/1.1/DTD/svg11.dtd" >
<svg xmlns="http://www.w3.org/2000/svg" xmlns:xlink="http://www.w3.org/1999/xlink" version="1.1">
<metadata>
Created by FontForge 20170731 at Mon Jun  9 21:06:26 2014
 By Aleksey,,,
2013 Iconian Fonts - www.iconian.com
</metadata>
<defs>
<font id="SingaporeSlingLeftalic" horiz-adv-x="785" >
  <font-face 
    font-family="Singapore Sling Leftalic"
    font-weight="400"
    font-stretch="normal"
    units-per-em="1000"
    panose-1="0 0 0 0 0 0 0 0 0 0"
    ascent="800"
    descent="-200"
    x-height="609"
    cap-height="609"
    bbox="-199 -170 1107 771"
    underline-thickness="50"
    underline-position="-175"
    unicode-range="U+0020-2122"
  />
<missing-glyph horiz-adv-x="500" 
 />
    <glyph glyph-name=".notdef" horiz-adv-x="500" 
 />
    <glyph glyph-name=".null" horiz-adv-x="0" 
 />
    <glyph glyph-name="nonmarkingreturn" horiz-adv-x="500" 
 />
    <glyph glyph-name="FL0020h" unicode=" " horiz-adv-x="470" 
 />
    <glyph glyph-name="FL0021h" unicode="!" horiz-adv-x="246" 
d="M32 107l23 -107h136l-23 107h-136zM-74 609l89 -419h136l-89 419h-136z" />
    <glyph glyph-name="FL0022h" unicode="&#x22;" horiz-adv-x="422" 
d="M107 609h136l28 -135l-117 -89zM-79 609h136l28 -135l-117 -89z" />
    <glyph glyph-name="FL0023h" unicode="#" horiz-adv-x="722" 
d="M574 462l24 -116h-105l14 -66h105l25 -116h-105l35 -164h-136l-35 164h-139l35 -164h-136l-35 164h-106l-25 116h106l-14 66h-106l-24 116h106l-31 147h136l31 -147h139l-31 147h136l31 -147h105zM357 346h-139l14 -66h139z" />
    <glyph glyph-name="FL0024h" unicode="$" horiz-adv-x="655" 
d="M29 107h207l-31 145h-46q-39 0 -73 14.5t-61 39t-45.5 56t-25.5 65.5q-8 39 -1 72.5t26.5 57.5t50 38t69.5 14h31l-22 102h130l22 -102h214l22 -107h-214l31 -143h46q39 0 74.5 -15t63.5 -39.5t47.5 -57t27.5 -68.5q6 -29 2 -61t-17.5 -58t-37.5 -43t-58 -17h-72l22 -102
h-130l-22 102h-207zM335 252l31 -145h33q12 0 22 6.5t17 17t10 22.5t0 24q-6 28 -28 51.5t-52 23.5h-33zM152 502h-38q-12 0 -20 -7t-12.5 -18.5t-5.5 -24.5t2 -25q2 -11 9.5 -23t17.5 -22t20.5 -16.5t18.5 -6.5h39z" />
    <glyph glyph-name="FL0025h" unicode="%" horiz-adv-x="653" 
d="M265 103q-6 22 -4 46l-76 -149h-161l188 364q-18 -11 -38 -17.5t-45 -6.5q-34 0 -67 12.5t-60.5 34.5t-47 52t-26.5 65q-8 34 -1.5 64.5t24.5 53t45.5 36t61.5 13.5q35 0 68 -13t60 -35.5t46 -53t27 -65.5q4 -22 3 -40l76 145h160l-189 -367q34 28 87 28q36 0 68.5 -13
t59 -35.5t45.5 -53t27 -65.5q7 -35 1 -65t-23.5 -52t-45 -34.5t-62.5 -12.5q-34 0 -67 12.5t-60.5 34.5t-47 52t-26.5 65zM41 503q5 -21 23.5 -36t39.5 -15q22 0 34 14t7 37q-5 21 -22.5 37t-40.5 16q-22 0 -34 -16t-7 -37zM378 102q5 -21 23.5 -36t39.5 -15q22 0 34 14
t7 37q-5 21 -22.5 37t-40.5 16q-22 0 -34 -16t-7 -37z" />
    <glyph glyph-name="FL0026h" unicode="&#x26;" horiz-adv-x="734" 
d="M138 379h465l24 -110h-57q27 -34 37 -75q7 -36 3 -71t-21 -62.5t-47.5 -44t-76.5 -16.5h-247q-45 0 -83 16.5t-67 44t-48 62.5t-26 71q-8 35 0.5 62t25.5 59q-29 25 -49.5 58.5t-28.5 68.5q-8 36 -1.5 67t26 53t50.5 34.5t72 12.5h271l24 -117h-271q-28 0 -40.5 -14.5
t-7.5 -35.5q5 -24 25 -42.5t48 -20.5zM165 269q-29 -3 -40.5 -26t-6.5 -48q2 -11 9 -24.5t17 -25.5t22.5 -20t26.5 -8h247q14 0 23 8t14 20t6.5 25.5t-0.5 24.5q-5 25 -27 48t-52 26h-239z" />
    <glyph glyph-name="FL0027h" unicode="'" horiz-adv-x="236" 
d="M-79 609h136l28 -135l-117 -89z" />
    <glyph glyph-name="FL0028h" unicode="(" horiz-adv-x="362" 
d="M-30 304q11 -53 40.5 -107t74 -98t102 -71.5t124.5 -27.5l-23 107q-29 0 -60.5 17t-59 45t-48.5 63.5t-29 72.5t0 72.5t25.5 63t41 44.5t47.5 17l-22 107q-66 0 -112.5 -24t-73.5 -65t-34 -96.5t7 -119.5z" />
    <glyph glyph-name="FL0029h" unicode=")" horiz-adv-x="362" 
d="M262 304q11 -53 4.5 -107t-32 -98t-71 -71.5t-112.5 -27.5l-23 107q28 0 52.5 17t40.5 45t22 63.5t-2 72.5t-31 72.5t-52.5 63t-60 44.5t-54.5 17l-22 107q66 0 122.5 -24t100.5 -65t74 -96.5t44 -119.5z" />
    <glyph glyph-name="asterisk" unicode="*" horiz-adv-x="320" 
d="M180 541l-79 -15l69 -60l-60 -53l-55 76l-25 -76l-82 53l47 61l-85 14l10 83l83 -37l-30 85h87l7 -86l69 38z" />
    <glyph glyph-name="FL002Bh" unicode="+" horiz-adv-x="411" 
d="M162 476l20 -97h98l25 -116h-98l21 -98h-116l-21 98h-97l-25 116h97l-20 97h116z" />
    <glyph glyph-name="FL002Ch" unicode="," horiz-adv-x="236" 
d="M27 107h136l29 -135l-117 -89z" />
    <glyph glyph-name="FL002Dh" unicode="-" horiz-adv-x="396" 
d="M-31 379l25 -116h296l-25 116h-296z" />
    <glyph glyph-name="FL002Eh" unicode="." horiz-adv-x="236" 
d="M27 107l23 -107h136l-23 107h-136z" />
    <glyph glyph-name="FL002Fh" unicode="/" horiz-adv-x="653" 
d="M498 609l-313 -609h-161l314 609h160z" />
    <glyph glyph-name="FL0030h" unicode="0" horiz-adv-x="732" 
d="M-29 301q-15 69 -2 130t48.5 106t90 71.5t123.5 26.5q71 0 137 -26t120 -71t92 -106t53 -131t2.5 -130t-48 -104t-90.5 -69t-125 -25q-69 0 -134.5 25t-119.5 69t-93 104t-54 130zM94 301q15 -69 67 -122l167 321q-35 12 -71 12q-44 0 -78 -17t-56 -46.5t-30 -67.5t1 -80
zM511 301q-17 69 -66 123l-162 -319q30 -9 61 -9q44 0 79 15.5t57.5 42.5t31 64.5t-0.5 82.5z" />
    <glyph glyph-name="FL0031h" unicode="1" horiz-adv-x="311" 
d="M-80 492h99l105 -492h137l-129 609h-147z" />
    <glyph glyph-name="FL0032h" unicode="2" horiz-adv-x="661" 
d="M585 107l23 -107h-558l-38 179q-8 36 -2 68.5t24 57t47 39.5t68 15h215q7 0 14.5 7.5t13 18.5t8 22.5t0.5 19.5q-2 10 -8.5 23t-15.5 24.5t-20.5 19.5t-23.5 8h-382l-22 107h375q39 0 75.5 -14t66 -38t50.5 -57.5t29 -72.5q7 -34 2 -65.5t-21.5 -56t-44.5 -39t-67 -14.5
h-197q-29 0 -41 -23.5t-7 -51.5l15 -70h422z" />
    <glyph glyph-name="FL0033h" unicode="3" horiz-adv-x="654" 
d="M109 269l-96 110h341q28 2 40 20.5t7 42.5q-5 21 -23.5 35.5t-46.5 14.5h-386l-24 117h386q41 0 77 -12.5t64.5 -34.5t48 -53t27.5 -67q8 -35 1.5 -68.5t-25.5 -58.5q31 -32 50.5 -59t27.5 -62q7 -36 3 -71t-21 -62.5t-47.5 -44t-76.5 -16.5h-386l-25 117h386q14 0 23 8
t14 20t6.5 25.5t-0.5 24.5q-5 25 -27 48t-52 26h-266z" />
    <glyph glyph-name="FL0034h" unicode="4" horiz-adv-x="677" 
d="M362 609h136l129 -609h-136l-57 267h-441l-72 342h136l49 -234h305z" />
    <glyph glyph-name="FL0035h" unicode="5" horiz-adv-x="660" 
d="M27 107l23 -107h416q34 0 58 17t37.5 43t17.5 58t-2 61q-8 36 -27.5 68.5t-47.5 57t-63.5 39.5t-74.5 15h-266l-31 143h434l-22 107h-558l75 -357h377q30 0 52 -23.5t28 -51.5q3 -12 0 -24t-10 -22.5t-17 -17t-22 -6.5h-377z" />
    <glyph glyph-name="FL0036h" unicode="6" horiz-adv-x="701" 
d="M-30 304q-14 64 -1.5 119.5t46.5 96.5t87.5 65t122.5 24h297l22 -107h-336q-20 0 -38 -10.5t-33 -28t-26.5 -40.5t-17.5 -48h478l80 -375h-342q-66 0 -123 27.5t-101.5 71.5t-74 98t-40.5 107zM462 267h-358q14 -31 37 -60t50 -51t55 -35.5t52 -13.5h198z" />
    <glyph glyph-name="FL0037h" unicode="7" horiz-adv-x="620" 
d="M220 0h-170l237 502h-344l-22 107h520l21 -100z" />
    <glyph glyph-name="FL0038h" unicode="8" horiz-adv-x="690" 
d="M-58 442q-8 36 -1 67t26.5 53t50.5 34.5t72 12.5h254q41 0 77 -12.5t64 -34.5t47.5 -53t27.5 -67q8 -35 1.5 -68.5t-25.5 -58.5q31 -32 50.5 -59t27.5 -62q7 -36 3 -71t-21 -62.5t-47.5 -44t-75.5 -16.5h-254q-45 0 -83 16.5t-67 44t-48.5 62.5t-26.5 71q-8 35 0.5 62
t25.5 59q-29 25 -49.5 58.5t-28.5 68.5zM411 269h-246q-29 -3 -40.5 -26t-6.5 -48q2 -11 9 -24.5t17 -25.5t22.5 -20t26.5 -8h254q14 0 23 8t14 20t6.5 25.5t-0.5 24.5q-5 25 -27 48t-52 26zM138 379h252q28 2 40 20.5t7 42.5q-5 21 -23.5 35.5t-46.5 14.5h-254
q-28 0 -40.5 -14.5t-7.5 -35.5q5 -24 25 -42.5t48 -20.5z" />
    <glyph glyph-name="FL0039h" unicode="9" horiz-adv-x="701" 
d="M601 305q14 -64 2 -119.5t-46 -97t-87.5 -65t-122.5 -23.5h-297l-23 107h336q19 0 37.5 10.5t34 28t27 40.5t16.5 48h-478l-79 375h342q66 0 123 -27.5t101 -71.5t73.5 -98t40.5 -107zM109 342h358q-14 31 -36.5 60t-49.5 51t-55 35.5t-53 13.5h-198z" />
    <glyph glyph-name="FL003Ah" unicode=":" horiz-adv-x="236" 
d="M27 107l23 -107h136l-23 107h-136zM-31 379l23 -107h136l-23 107h-136z" />
    <glyph glyph-name="FL003Bh" unicode=";" horiz-adv-x="236" 
d="M-8 272l-23 107h136l23 -107h-136zM27 107h136l29 -135l-117 -89z" />
    <glyph glyph-name="FL003Ch" unicode="&#x3c;" horiz-adv-x="432" 
d="M277 609l-157 -304l287 -305h-161l-286 305l157 304h160z" />
    <glyph glyph-name="FL003Dh" unicode="=" horiz-adv-x="446" 
d="M-48 462h346l24 -116h-346zM-13 297h346l25 -116h-346z" />
    <glyph glyph-name="FL003Eh" unicode="&#x3e;" horiz-adv-x="432" 
d="M-103 609l285 -304l-157 -305h161l156 305l-285 304h-160z" />
    <glyph glyph-name="FL003Fh" unicode="?" horiz-adv-x="643" 
d="M69 179l136 -1q1 0 0 11.5t2 25.5t13 25.5t34 11.5h132q39 0 67 14.5t44.5 39t21.5 56t-2 65.5q-8 39 -29 72.5t-50.5 57.5t-66 38t-75.5 14h-375l22 -107h382q12 0 23.5 -8t20.5 -19.5t15.5 -24.5t8.5 -23q2 -8 -0.5 -19.5t-8 -22.5t-13 -18.5t-14.5 -7.5h-151
q-51 0 -81.5 -15t-45.5 -39.5t-16.5 -57t6.5 -68.5zM84 107l23 -107h136l-23 107h-136z" />
    <glyph glyph-name="at" unicode="@" horiz-adv-x="733" 
d="M591 189q-11 -17 -20 -31t-21 -25h130l-6 -12q-33 -40 -65.5 -70t-61.5 -44q-38 -19 -77.5 -26.5t-84.5 -7.5h-18q-83 0 -149.5 24.5t-116 67.5t-81.5 100t-46 122l-3 16q-14 65 -8 125t36 105.5t87 73t146 27.5h33q60 0 117 -21t104 -57.5t80 -87t46 -110.5
q11 -52 5.5 -91.5t-26.5 -77.5zM362 70q68 0 141 35q-24 -10 -66 -10q-26 0 -44.5 10.5t-32.5 25.5q-3 -5 -9 -6q-2 -1 -3 -2t-3 -2l-17 -12l-1 2h-2l1 -1q-5 -3 -9.5 -4.5t-21.5 -1.5q-32 0 -59.5 15.5t-50.5 39.5t-41 53.5t-30 56.5q-21 93 11 160q19 49 46.5 72t78.5 23
q23 0 35.5 -6t26.5 -19l-2 13h83q-28 14 -60.5 23t-64.5 9q-60 0 -100.5 -17t-66.5 -49t-35.5 -75t4.5 -106q11 -51 36.5 -94.5t61.5 -72.5q38 -29 84.5 -44.5t109.5 -15.5zM301 202l18 68q2 29 0 55t-7 51q-2 11 -7 20.5t-15 16.5l-1 8q-1 1 -5 1q-21 0 -31 -15t-15 -48
q-8 -60 3 -110q2 -6 6.5 -16t13.5 -21q7 -8 15.5 -13.5t16.5 -5.5q5 0 5.5 2.5t2.5 5.5v1zM507 358q-17 80 -71 128l9 -286q13 2 28 16t36 52q5 20 4 43.5t-6 46.5z" />
    <glyph glyph-name="FL0041h" unicode="A" 
d="M291 479h-4l-51 -201h194zM25 0l169 609h137l429 -609h-146l-118 169h-172l-89 94l-64 -263h-146z" />
    <glyph glyph-name="FL0042h" unicode="B" horiz-adv-x="655" 
d="M-79 609h387q41 0 77 -12.5t64.5 -34.5t48 -53t27.5 -67q8 -35 -2 -69t-29 -55q28 -21 52.5 -55t32.5 -69q7 -36 3 -71t-21 -62.5t-47.5 -44t-76.5 -16.5h-387zM109 362l52 -245h251q14 0 23 8t14 20t6.5 25.5t-0.5 24.5q-5 25 -27 48t-52 26h-175zM81 492l24 -113h250
q28 2 40 20.5t7 42.5q-5 21 -23.5 35.5t-46.5 14.5h-251z" />
    <glyph glyph-name="FL0043h" unicode="C" horiz-adv-x="662" 
d="M-30 304q11 -53 40.5 -107t74 -98t101.5 -71.5t123 -27.5h303l-23 107h-291q-29 0 -62 17t-62.5 45t-52 63.5t-30.5 72.5t-0.5 72.5t25.5 63t42.5 44.5t49.5 17h297l-22 107h-300q-63 0 -109 -25.5t-73 -68t-35 -97.5t4 -114z" />
    <glyph glyph-name="FL0044h" unicode="D" horiz-adv-x="701" 
d="M280 502h-337l-22 107h318q69 0 129 -24t107.5 -65t79.5 -96.5t46 -119.5q11 -53 4.5 -107t-32 -98t-70 -71.5t-110.5 -27.5h-343l-84 395h132l61 -288h198q28 0 54 17t44 45t25.5 63.5t-0.5 72.5q-8 36 -32 71t-54.5 63t-61.5 45.5t-52 17.5z" />
    <glyph glyph-name="FL0045h" unicode="E" horiz-adv-x="592" 
d="M-79 609h492l22 -107h-492zM50 0l-23 107h492l23 -107h-492zM-7 267l-23 108h492l23 -108h-492z" />
    <glyph glyph-name="FL0046h" unicode="F" horiz-adv-x="592" 
d="M50 0l-79 374h447l22 -106h-311l57 -268h-136zM-79 609h492l22 -107h-492z" />
    <glyph glyph-name="FL0047h" unicode="G" horiz-adv-x="701" 
d="M-30 304q11 -53 40.5 -107t74 -98t101.5 -71.5t123 -27.5h342l-84 395h-132l61 -288h-198q-29 0 -62 17t-62.5 45t-52 63.5t-30.5 72.5q-8 36 0 71t25.5 63t41.5 45.5t50 17.5h336l-22 107h-319q-74 0 -125 -24t-79.5 -65t-35.5 -96.5t7 -119.5z" />
    <glyph glyph-name="FL0068h" unicode="H" horiz-adv-x="620" 
d="M305 609h136l129 -609h-136l-57 267h-248l57 -267h-136l-129 609h136l49 -234h248z" />
    <glyph glyph-name="FL0049h" unicode="I" horiz-adv-x="581" 
d="M531 0h-481l-23 107h173l-84 395h-173l-22 107h481l22 -107h-172l84 -395h172z" />
    <glyph glyph-name="FL004Ah" unicode="J" horiz-adv-x="544" 
d="M0 117h263q18 0 29.5 7t17.5 18.5t7.5 25t-1.5 25.5l-66 309h-123l-22 107h260l93 -441q7 -33 4 -63.5t-18.5 -54t-44 -37t-73.5 -13.5h-212z" />
    <glyph glyph-name="FL004Bh" unicode="K" horiz-adv-x="619" 
d="M57 609l61 -289l186 289h161l-190 -302l319 -307h-161l-308 289l61 -289h-136l-129 609h136z" />
    <glyph glyph-name="FL004Ch" unicode="L" horiz-adv-x="522" 
d="M-79 609l129 -609h357l67 107h-311l-106 502h-136z" />
    <glyph glyph-name="FL004Dh" unicode="M" horiz-adv-x="1069" 
d="M-80 609h136l19 -91l55 91h175q66 0 114 -27t74 -72l53 99h175q45 0 79.5 -13.5t59.5 -37t41 -54t23 -63.5l94 -441h-137l-88 416q-3 12 -11 25.5t-19.5 25t-26 18.5t-29.5 7h-211l105 -492h-136l-88 416q-8 35 -30 55.5t-56 20.5h-211l105 -492h-136z" />
    <glyph glyph-name="FL004Eh" unicode="N" horiz-adv-x="677" 
d="M-79 609l129 -609h136l-105 492h235q43 0 60.5 -19t25.5 -57l88 -416h137l-94 441q-7 33 -23 63.5t-41 54t-59.5 37t-79.5 13.5h-199l-55 -91l-19 91h-136z" />
    <glyph glyph-name="FL004Fh" unicode="O" horiz-adv-x="732" 
d="M-29 301q15 -70 54 -130t93 -104t119.5 -69t134.5 -25q70 0 125 25t90.5 69t48 104t-2.5 130t-53 131t-92 106t-120 71t-137 26q-69 0 -123.5 -26.5t-90 -71.5t-48.5 -106t2 -130zM94 301q-9 42 -1 80t30 67.5t56 46.5t78 17q45 0 86.5 -17t76 -46t58.5 -67.5t33 -80.5
q9 -45 0.5 -82.5t-31 -64.5t-57.5 -42.5t-79 -15.5q-42 0 -83 16.5t-75 44t-58.5 65t-33.5 79.5z" />
    <glyph glyph-name="FL0050h" unicode="P" horiz-adv-x="630" 
d="M-79 609l129 -609h136l-61 287l91 -91h174q37 0 63 19.5t41 49.5t19 65.5t-3 68.5q-8 36 -26.5 73.5t-46.5 68t-66.5 49.5t-86.5 19h-363zM81 492h227q13 0 26.5 -10.5t24.5 -25.5t18.5 -31t9.5 -26q3 -13 2 -29.5t-6.5 -31t-16 -24.5t-25.5 -10h-220z" />
    <glyph glyph-name="FL0071h" unicode="Q" horiz-adv-x="732" 
d="M470 -170l-32 150q54 11 96.5 39.5t68.5 70.5t34.5 95.5t-4.5 115.5q-15 69 -54 130t-93 106t-120 71.5t-135 26.5q-71 0 -126 -26t-90 -71t-47 -106t3 -131q13 -61 44 -114.5t75 -96t98 -71.5t114 -40l13 -60zM389 210l-155 91l41 -194q-33 10 -63 28.5t-54 43.5t-41 56
t-24 66q-9 42 -1 80.5t29.5 67.5t56 46t79.5 17q43 0 84.5 -17t76 -46.5t59 -67.5t33.5 -80q15 -69 -12 -120.5t-87 -73.5z" />
    <glyph glyph-name="FL0061h" unicode="R" horiz-adv-x="633" 
d="M-79 609l24 -117h363q13 0 26 -9t23.5 -22t18 -27.5t9.5 -24.5q3 -13 1 -29.5t-8.5 -31t-18 -24.5t-26.5 -10h-172l327 -314h163l-222 225q58 17 75.5 67t2.5 122q-8 37 -26.5 72t-46.5 62.5t-66 44t-84 16.5h-363z" />
    <glyph glyph-name="FL0053h" unicode="S" horiz-adv-x="655" 
d="M29 107l23 -107h409q34 0 58 17t37.5 43t17.5 58t-2 61q-8 36 -27.5 68.5t-47.5 57t-63.5 39.5t-74.5 15h-215q-8 0 -18.5 6.5t-20.5 16.5t-17.5 22t-9.5 23q-3 12 -2 25t5.5 24.5t12.5 18.5t20 7h382l-22 107h-375q-39 0 -69.5 -14t-50 -38t-26.5 -57.5t1 -72.5
q7 -34 25.5 -65.5t45.5 -56t61 -39t73 -14.5h209q30 0 52 -23.5t28 -51.5q3 -12 0 -24t-10 -22.5t-17 -17t-22 -6.5h-370z" />
    <glyph glyph-name="FL0054h" unicode="T" horiz-adv-x="620" 
d="M-79 609h520l22 -107h-192l107 -502h-136l-107 502h-192z" />
    <glyph glyph-name="FL0055h" unicode="U" horiz-adv-x="677" 
d="M627 0l-129 609h-136l104 -492h-235q-44 0 -60.5 18.5t-24.5 57.5l-88 416h-137l93 -441q7 -33 23 -63.5t41.5 -54t60 -37t79.5 -13.5h199l55 91l19 -91h136z" />
    <glyph glyph-name="FL0056h" unicode="V" 
d="M365 156l120 453h146l-169 -609h-136l-430 609h146l315 -453h8z" />
    <glyph glyph-name="FL0057h" unicode="W" horiz-adv-x="1069" 
d="M1019 0h-136l-19 91l-55 -91h-175q-66 0 -114 27t-74 72l-53 -99h-175q-45 0 -79.5 13.5t-60 37t-41.5 54t-23 63.5l-93 441h137l88 -416q3 -12 11 -25.5t19.5 -25t25.5 -18.5t29 -7h211l-104 492h136l88 -416q8 -35 29.5 -55.5t55.5 -20.5h211l-104 492h136z" />
    <glyph glyph-name="FL0058h" unicode="X" horiz-adv-x="654" 
d="M499 609l-157 -304l287 -305h-161l-182 194l-100 -194h-161l157 305l-285 304h160l182 -194l100 194h160z" />
    <glyph glyph-name="FL0059h" unicode="Y" horiz-adv-x="667" 
d="M350 609h138l91 -429q6 -28 2 -59.5t-18.5 -58.5t-38.5 -44.5t-58 -17.5h-409l-23 107h370q12 0 20.5 6.5t13 16.5t6 22t-0.5 24l-17 76h-262q-39 0 -73 14.5t-61 39t-45.5 56t-25.5 65.5l-38 182h134l38 -182q3 -14 11 -26.5t18.5 -21.5t21 -14.5t18.5 -5.5h241z" />
    <glyph glyph-name="FL005Ah" unicode="Z" horiz-adv-x="620" 
d="M570 0h-520l-23 107l260 395h-344l-22 107h520l22 -107l-260 -395h344z" />
    <glyph glyph-name="FL005Bh" unicode="[" horiz-adv-x="360" 
d="M310 0h-260l-129 609h260l22 -107h-124l84 -395h124z" />
    <glyph glyph-name="FL005Ch" unicode="\" horiz-adv-x="653" 
d="M-104 609l571 -609h161l-572 609h-160z" />
    <glyph glyph-name="FL005Dh" unicode="]" horiz-adv-x="360" 
d="M50 0h260l-129 609h-260l22 -107h124l84 -395h-124z" />
    <glyph glyph-name="FL005Eh" unicode="^" 
d="M291 453l-121 -453h-146l169 609h136l430 -609h-146l-314 453h-8z" />
    <glyph glyph-name="FL005Fh" unicode="_" horiz-adv-x="446" 
d="M25 116h346l25 -116h-346z" />
    <glyph glyph-name="FL0060h" unicode="`" horiz-adv-x="217" 
d="M83 515h-97l-90 94h125z" />
    <glyph glyph-name="a" unicode="a" 
d="M194 609l-169 -609h146l42 168h284l117 -168h146l-429 609h-137zM286 479h5l143 -203h-201z" />
    <glyph glyph-name="FL0062h" unicode="b" horiz-adv-x="655" 
d="M-79 609h387q41 0 77 -12.5t64.5 -34.5t48 -53t27.5 -67q8 -35 -2.5 -69.5t-30.5 -54.5q32 -29 55.5 -59t31.5 -65q7 -36 3 -71t-21 -62.5t-47.5 -44t-76.5 -16.5h-387zM109 362l52 -245h251q14 0 23 8t14 20t6.5 25.5t-0.5 24.5q-5 25 -27 48t-52 26h-175zM81 492
l24 -113h250q28 2 40 20.5t7 42.5q-5 21 -23.5 35.5t-46.5 14.5h-251z" />
    <glyph glyph-name="FL0063h" unicode="c" horiz-adv-x="662" 
d="M-30 304q11 -53 40.5 -107t74 -98t101.5 -71.5t123 -27.5h303l-23 107h-291q-29 0 -62 17t-62.5 45t-52 63.5t-30.5 72.5t-0.5 72.5t25.5 63t42.5 44.5t49.5 17h297l-22 107h-300q-63 0 -109 -25.5t-73 -68t-35 -97.5t4 -114z" />
    <glyph glyph-name="FL0064h" unicode="d" horiz-adv-x="701" 
d="M601 304q11 -53 4.5 -107t-32 -98t-70 -71.5t-110.5 -27.5h-343l-129 609h318q78 0 139 -24t106 -65t74 -96.5t43 -119.5zM280 502h-205l84 -395h198q28 0 54 17t44 45t25.5 63.5t-0.5 72.5q-9 41 -33.5 77t-54.5 62.5t-60.5 42t-51.5 15.5z" />
    <glyph glyph-name="E" unicode="e" horiz-adv-x="592" 
d="M-79 609l129 -609h492l-23 107h-356l-34 160h311l-23 108h-311l-27 127h356l-22 107h-492z" />
    <glyph glyph-name="FL0066h" unicode="f" horiz-adv-x="592" 
d="M-79 609l129 -609h136l-57 268h311l-22 106h-311l-28 128h356l-22 107h-492z" />
    <glyph glyph-name="g" unicode="g" horiz-adv-x="701" 
d="M-30 304q11 -53 40.5 -107t74 -98t101.5 -71.5t123 -27.5h342l-84 395h-132l61 -288h-198q-29 0 -62 17t-62.5 45t-52 63.5t-30.5 72.5q-8 36 1 71t27.5 63t42.5 45.5t46 17.5h336l-22 107h-297q-80 0 -135 -24t-86.5 -65t-39.5 -96.5t6 -119.5z" />
    <glyph glyph-name="FL0048h" unicode="h" horiz-adv-x="677" 
d="M362 609h136l129 -609h-136l-57 267h-305l57 -267h-136l-129 609h136l49 -234h305z" />
    <glyph glyph-name="i" unicode="i" horiz-adv-x="246" 
d="M-74 609l129 -609h136l-129 609h-136z" />
    <glyph glyph-name="FL006Ah" unicode="j" horiz-adv-x="544" 
d="M0 117h263q18 0 29.5 7t17.5 18.5t7.5 25t-1.5 25.5l-88 416h137l93 -441q7 -33 4 -63.5t-18.5 -54t-44 -37t-73.5 -13.5h-212z" />
    <glyph glyph-name="FL006Bh" unicode="k" horiz-adv-x="619" 
d="M57 609l61 -289l186 289h161l-190 -302l319 -307h-161l-308 289l61 -289h-136l-129 609h136z" />
    <glyph glyph-name="l" unicode="l" horiz-adv-x="547" 
d="M-79 609l129 -609h447l-23 107h-311l-106 502h-136z" />
    <glyph glyph-name="FL006Dh" unicode="m" horiz-adv-x="1069" 
d="M-80 609h136l19 -91l55 91h175q66 0 114 -27t74 -72l53 99h175q45 0 79.5 -13.5t59.5 -37t41 -54t23 -63.5l94 -441h-137l-88 416q-3 12 -11 25.5t-19.5 25t-26 18.5t-29.5 7h-211l105 -492h-136l-88 416q-8 35 -30 55.5t-56 20.5h-211l105 -492h-136z" />
    <glyph glyph-name="FL006Eh" unicode="n" horiz-adv-x="677" 
d="M-79 609l129 -609h136l-105 492h235q43 0 60.5 -19t25.5 -57l88 -416h137l-94 441q-7 33 -23 63.5t-41 54t-59.5 37t-79.5 13.5h-199l-55 -91l-19 91h-136z" />
    <glyph glyph-name="o" unicode="o" horiz-adv-x="732" 
d="M-29 301q15 -70 54 -130t93 -104t119.5 -69t134.5 -25q70 0 125 25t90.5 69t48 104t-2.5 130t-53 131t-92 106t-120 71t-137 26q-69 0 -123.5 -26.5t-90 -71.5t-48.5 -106t2 -130zM94 301q-9 42 -1 80t30 67.5t56 46.5t78 17q45 0 86.5 -17t76 -46t58.5 -67.5t33 -80.5
q9 -45 0.5 -82.5t-31 -64.5t-57.5 -42.5t-79 -15.5q-42 0 -83 16.5t-75 44t-58.5 65t-33.5 79.5z" />
    <glyph glyph-name="p" unicode="p" horiz-adv-x="630" 
d="M-79 609l129 -609h136l-61 287l91 -91h174q37 0 63 19.5t41 49.5t19 65.5t-3 68.5q-8 36 -26.5 73.5t-46.5 68t-66.5 49.5t-86.5 19h-363zM81 492h227q13 0 26.5 -10.5t24.5 -25.5t18.5 -31t9.5 -26q3 -13 2 -29.5t-6.5 -31t-16 -24.5t-25.5 -10h-220z" />
    <glyph glyph-name="FL0051h" unicode="q" horiz-adv-x="732" 
d="M-29 301q-15 69 -2 130t48.5 106t90 71.5t123.5 26.5q71 0 137 -26t120 -71t92 -106t53 -131q20 -91 -5.5 -162.5t-85.5 -114.5l40 -46l-36 -148l-124 147q-15 -4 -50 -4q-69 0 -134.5 25t-119.5 69t-93 104t-54 130zM274 151l34 150l146 -172q36 26 52.5 70.5t4.5 101.5
q-9 42 -33 80.5t-58.5 67.5t-76 46t-86.5 17q-44 0 -78 -17t-56 -46.5t-30 -67.5t1 -80q8 -39 29.5 -74t52.5 -63t68 -45.5t75 -21.5z" />
    <glyph glyph-name="R" unicode="r" horiz-adv-x="642" 
d="M-79 609l129 -609h136l-105 492h234q15 0 27 -10t21 -24t15 -29.5t8 -25.5q2 -8 0.5 -22t-6 -27.5t-11.5 -23.5t-17 -10h-199l339 -320h161l-229 220q27 8 47 27t31.5 45t14.5 57t-4 63q-8 36 -25.5 71.5t-44.5 63.5t-65 45t-87 17h-370z" />
    <glyph glyph-name="S" unicode="s" horiz-adv-x="655" 
d="M29 107l23 -107h409q34 0 58 17t37.5 43t17.5 58t-2 61q-8 36 -27.5 68.5t-47.5 57t-63.5 39.5t-74.5 15h-215q-8 0 -18.5 6.5t-20.5 16.5t-17.5 22t-9.5 23q-3 12 -2 25t5.5 24.5t12.5 18.5t20 7h382l-22 107h-375q-39 0 -69.5 -14t-50 -38t-26.5 -57.5t1 -72.5
q7 -34 25.5 -65.5t45.5 -56t61 -39t73 -14.5h209q30 0 52 -23.5t28 -51.5q3 -12 0 -24t-10 -22.5t-17 -17t-22 -6.5h-370z" />
    <glyph glyph-name="FL0074h" unicode="t" horiz-adv-x="620" 
d="M-79 609h520l22 -107h-192l107 -502h-136l-107 502h-192z" />
    <glyph glyph-name="FL0075h" unicode="u" horiz-adv-x="677" 
d="M627 0l-129 609h-136l104 -492h-235q-44 0 -60.5 18.5t-24.5 57.5l-88 416h-137l93 -441q7 -33 23 -63.5t41.5 -54t60 -37t79.5 -13.5h199l55 91l19 -91h136z" />
    <glyph glyph-name="FL0076h" unicode="v" 
d="M364 156l121 453h146l-169 -609h-136l-430 609h146l314 -453h8z" />
    <glyph glyph-name="FL0077h" unicode="w" horiz-adv-x="1069" 
d="M1019 0h-136l-19 91l-55 -91h-175q-66 0 -114 27t-74 72l-53 -99h-175q-45 0 -79.5 13.5t-60 37t-41.5 54t-23 63.5l-93 441h137l88 -416q3 -12 11 -25.5t19.5 -25t25.5 -18.5t29 -7h211l-104 492h136l88 -416q8 -35 29.5 -55.5t55.5 -20.5h211l-104 492h136z" />
    <glyph glyph-name="FL0078h" unicode="x" horiz-adv-x="654" 
d="M499 609l-157 -304l287 -305h-161l-182 194l-100 -194h-161l157 305l-285 304h160l182 -194l100 194h160z" />
    <glyph glyph-name="FL0079h" unicode="y" horiz-adv-x="652" 
d="M197 288l-301 321h160l182 -194l100 194h160l-165 -321l61 -288h-136z" />
    <glyph glyph-name="FL007Ah" unicode="z" horiz-adv-x="620" 
d="M570 0h-520l-23 107l260 395h-344l-22 107h520l22 -107l-260 -395h344z" />
    <glyph glyph-name="FL007Bh" unicode="{" horiz-adv-x="360" 
d="M322 -55h-260l-153 718h260l23 -107h-124l107 -504h124z" />
    <glyph glyph-name="FL007Ch" unicode="|" horiz-adv-x="246" 
d="M-96 711h136l173 -813h-136z" />
    <glyph glyph-name="FL007Dh" unicode="}" horiz-adv-x="360" 
d="M88 -55h260l-153 718h-260l23 -107h124l107 -504h-124z" />
    <glyph glyph-name="FL007Eh" unicode="~" horiz-adv-x="429" 
d="M-34 609h118l47 -51l19 51h125l-50 -94h-118l-49 50l-17 -50h-125z" />
    <glyph glyph-name="FL007Fh" horiz-adv-x="182" 
 />
    <glyph glyph-name="FL20ACh" horiz-adv-x="776" 
d="M5 290h108l-8 38h-108l-24 116h134q14 75 68 120t148 45h274l22 -107h-271q-24 0 -48 -16t-41 -42h183l24 -116h-239q0 -2 0.5 -5.5t1.5 -8.5l5 -24h240l25 -116h-190q31 -30 65 -48.5t64 -18.5h265l23 -107h-277q-46 0 -88 13.5t-78 37.5t-66 55.5t-52 67.5h-135z" />
    <glyph glyph-name="FL20ACh" unicode="&#x20ac;" horiz-adv-x="776" 
d="M5 290h108l-8 38h-108l-24 116h134q14 75 68 120t148 45h274l22 -107h-271q-24 0 -48 -16t-41 -42h183l24 -116h-239q0 -2 0.5 -5.5t1.5 -8.5l5 -24h240l25 -116h-190q31 -30 65 -48.5t64 -18.5h265l23 -107h-277q-46 0 -88 13.5t-78 37.5t-66 55.5t-52 67.5h-135z" />
    <glyph glyph-name="FL017Dh" horiz-adv-x="620" 
d="M570 0h-520l-23 107l260 395h-344l-22 107h520l22 -107l-260 -395h344zM-10 771h125l46 -59l20 59h125l-50 -94h-176z" />
    <glyph glyph-name="FL017Dh" unicode="&#x17d;" horiz-adv-x="620" 
d="M570 0h-520l-23 107l260 395h-344l-22 107h520l22 -107l-260 -395h344zM-10 771h125l46 -59l20 59h125l-50 -94h-176z" />
    <glyph glyph-name="FL017Eh" horiz-adv-x="620" 
d="M570 0h-520l-23 107l260 395h-344l-22 107h520l22 -107l-260 -395h344zM-10 771h125l46 -59l20 59h125l-50 -94h-176z" />
    <glyph glyph-name="FL017Eh" unicode="&#x17e;" horiz-adv-x="620" 
d="M570 0h-520l-23 107l260 395h-344l-22 107h520l22 -107l-260 -395h344zM-10 771h125l46 -59l20 59h125l-50 -94h-176z" />
    <glyph glyph-name="space" unicode="&#xa0;" horiz-adv-x="368" 
 />
    <glyph glyph-name="FL00A1h" unicode="&#xa1;" horiz-adv-x="246" 
d="M84 502l-22 107h-136l22 -107h136zM191 0l-89 419h-136l89 -419h136z" />
    <glyph glyph-name="FL00A2h" unicode="&#xa2;" horiz-adv-x="672" 
d="M-20 304q-12 59 -4 114t35 97.5t73 68t109 25.5l-22 102h130l22 -102h170l22 -107h-170l84 -395h170l23 -107h-170l22 -102h-130l-22 102h-3q-66 0 -123 27.5t-101.5 71.5t-74 98t-40.5 107zM215 502q-25 -1 -48.5 -18t-41 -44.5t-25 -62.5t0.5 -72q7 -35 28 -69.5
t49.5 -62t60 -45.5t60.5 -21z" />
    <glyph glyph-name="FL00A3h" unicode="&#xa3;" horiz-adv-x="583" 
d="M-31 379h107q-9 15 -14.5 30.5t-9.5 32.5q-8 36 -1.5 67t26 53t50.5 34.5t72 12.5h33l24 -117h-33q-28 0 -40.5 -14.5t-7.5 -35.5q5 -24 25 -42.5t48 -20.5h120l24 -110h-123q-26 -5 -36 -28t-5 -46q2 -11 9 -24.5t17 -25.5t22.5 -20.5t26.5 -8.5h205l25 -116h-483
l-25 116h109q-12 18 -18.5 38t-11.5 40q-5 21 -3.5 39t7.5 35h-115z" />
    <glyph glyph-name="FL00A4h" unicode="&#xa4;" horiz-adv-x="654" 
d="M67 306q14 -64 57 -113l-99 -193h161l60 115q14 -5 28 -6.5t29 -1.5q23 0 57 8l108 -115h161l-182 194q10 23 12.5 51.5t-4.5 60.5q-14 64 -55 111l99 192h-160l-58 -111q-24 10 -63 10q-35 0 -58 -10l-103 111h-160l179 -191q-23 -50 -9 -112zM200 304q-5 26 8.5 45.5
t39.5 19.5t47.5 -19.5t26.5 -45.5q6 -27 -8 -44t-40 -17q-25 0 -47 18t-27 43z" />
    <glyph glyph-name="FL00A5h" unicode="&#xa5;" horiz-adv-x="652" 
d="M116 178h104l-12 58h-104l-25 116h57l-240 257h160l182 -194l100 194h160l-133 -257h60l25 -116h-106l12 -58h106l25 -116h-106l13 -62h-136l-13 62h-104z" />
    <glyph glyph-name="FL00A6h" unicode="&#xa6;" horiz-adv-x="246" 
d="M-3 271l58 -271h136l-58 271h-136zM-74 609l54 -255h136l-54 255h-136z" />
    <glyph glyph-name="FL00A7h" unicode="&#xa7;" horiz-adv-x="654" 
d="M67 306q14 -64 57 -113l-99 -193h161l60 115q14 -5 28 -6.5t29 -1.5q18 1 38 4t39.5 12t37 25.5t29.5 45.5q10 23 12.5 51.5t-4.5 60.5q-14 64 -55 111l99 192h-160l-58 -111q-24 10 -63 10q-17 -2 -37.5 -6t-40.5 -13.5t-37 -26.5t-27 -44q-23 -50 -9 -112zM200 304
q-5 26 8.5 45.5t39.5 19.5t47.5 -19.5t26.5 -45.5q6 -27 -8 -44t-40 -17q-25 0 -47 18t-27 43z" />
    <glyph glyph-name="FL00A8h" unicode="&#xa8;" horiz-adv-x="416" 
d="M237 609l20 -94h-125l-20 94h125zM-59 515l-20 94h125l20 -94h-125z" />
    <glyph glyph-name="FL00A9h" unicode="&#xa9;" horiz-adv-x="282" 
d="M-1 671q29 0 51 -13q35 -17 49 -41q23 -29 28 -52t-6 -52q-4 -14 -9 -20t-15 -13l-7 -6q-21 -11 -33.5 -12.5l-12.5 -1.5q-7 0 -58 14q-15 11 -24 18t-23 21q-18 22 -24 52q-13 58 34 93q19 13 50 13zM3 655q-51 0 -69 -45q-6 -24 -2 -45t21 -41q11 -18 38 -34l8 -1
q16 -5 25.5 -7t15.5 -2q9 0 19.5 1.5t21.5 8.5q16 11 24.5 33t3.5 42l-1 6q-3 15 -13.5 30t-25.5 27t-32 19.5t-32 7.5h-2zM57 550l17 -5q2 -41 -39 -41q-57 0 -70 61q-14 60 44 60q36 0 54 -32l-16 -4q-15 21 -35 21q-37 0 -28 -45q9 -41 46 -41q25 0 27 26z" />
    <glyph glyph-name="FL00AAh" unicode="&#xaa;" horiz-adv-x="424" 
d="M66 515l19 76l52 -76h-71zM31 671l-84 -304h83l20 81h131l56 -81h84l-216 304h-74z" />
    <glyph glyph-name="FL00ABh" unicode="&#xab;" horiz-adv-x="514" 
d="M174 389l-53 -68l84 -70l-65 -82l-183 152l118 150zM405 390l-53 -68l83 -70l-64 -82l-183 152l118 150z" />
    <glyph glyph-name="FL00ACh" unicode="&#xac;" horiz-adv-x="411" 
d="M-31 379h311l46 -214h-117l-21 98h-194z" />
    <glyph glyph-name="FL00ADh" unicode="&#xad;" horiz-adv-x="326" 
d="M-31 379l25 -116h226l-25 116h-226z" />
    <glyph glyph-name="registered" unicode="&#xae;" horiz-adv-x="282" 
d="M-1 671q29 0 52 -15q34 -17 48 -39q23 -29 28 -52t-6 -52q-4 -23 -31 -39q-18 -11 -32 -12.5l-14 -1.5q-27 0 -58 14q-13 8 -24.5 18t-22.5 21q-18 22 -24 52q-4 17 -3 27t5 23v2q10 27 33 39q19 15 49 15zM3 655q-51 0 -69 -45q-6 -25 -2 -45l5 -11t16 -31
q5 -6 14.5 -14t23.5 -19l8 -3q22 -5 31.5 -6l9.5 -1q11 0 20.5 1.5t20.5 8.5q10 7 15 15.5t9 17.5q3 17 3.5 29.5l0.5 12.5l-1 6q-3 15 -13.5 30t-25.5 27t-32 19.5t-32 7.5h-2zM-13 507l-24 114h38q23 0 31 -5q5 -3 8 -4t7 -4q7 -7 10 -18q6 -30 -28 -31q6 -3 9.5 -5.5
t6.5 -5.5t7 -7.5t12 -11.5l17 -22h-24l-12 19q-9 12 -24 25q-4 4 -15 4h-11l10 -48h-18zM-8 571h21q17 0 22 3.5t3 14.5q-3 10 -14 15q-6 2 -20 2h-20z" />
    <glyph glyph-name="FL00AFh" unicode="&#xaf;" horiz-adv-x="446" 
d="M-79 609h346l24 -116h-346z" />
    <glyph glyph-name="FL00B0h" unicode="&#xb0;" horiz-adv-x="225" 
d="M-80 610l20 -94h125l-20 94h-125zM10 575l5 -24h-38l-5 24h38z" />
    <glyph glyph-name="FL00B1h" unicode="&#xb1;" horiz-adv-x="411" 
d="M162 476l20 -97h98l25 -116h-98l21 -98h-116l-21 98h-97l-25 116h97l-20 97h116zM25 116h311l25 -116h-311z" />
    <glyph glyph-name="FL00B2h" unicode="&#xb2;" horiz-adv-x="382" 
d="M238 430l13 -63h-279l-19 91q-8 37 9.5 65t59.5 28h104q5 0 9.5 10.5t2.5 16.5q-2 8 -9.5 19t-15.5 11h-189l-14 63h186q19 0 38 -7t34 -19.5t26 -29.5t15 -37q4 -17 1.5 -33.5t-11 -29t-23 -20t-34.5 -7.5h-94q-12 0 -16.5 -9.5t-1.5 -21.5l6 -27h202z" />
    <glyph glyph-name="FL00B3h" unicode="&#xb3;" horiz-adv-x="369" 
d="M4 496l-57 64h174q21 5 18 25q-4 19 -26 19h-191l-15 67h191q42 0 73 -24.5t39 -61.5q4 -17 0.5 -32.5t-10.5 -28.5q14 -14 22.5 -27.5t12.5 -30.5q4 -19 1.5 -36.5t-11 -31.5t-24 -22.5t-38.5 -8.5h-191l-14 67h191q10 0 13.5 12t1.5 20q-6 26 -31 30h-129z" />
    <glyph glyph-name="FL00B4h" unicode="&#xb4;" horiz-adv-x="217" 
d="M-85 515h97l50 94h-125z" />
    <glyph glyph-name="FL00B5h" unicode="&#xb5;" horiz-adv-x="667" 
d="M58 609h-138l91 -429q6 -28 23.5 -59.5t43 -58.5t57 -44.5t65.5 -17.5h409l-23 107h-370q-12 0 -25 6.5t-24 17t-19 22.5t-11 24q-5 28 7 51.5t41 23.5h209q39 0 67 14.5t44.5 39t21.5 56t-2 65.5l-38 182h-134l38 -182q6 -28 -8.5 -48t-30.5 -20h-202q-7 0 -16.5 -1.5
t-21.5 -3.5z" />
    <glyph glyph-name="FL2122h" unicode="&#xb6;" horiz-adv-x="967" 
d="M882 281l-7 11l-112 49l59 17h8l-11 12l-152 29l44 35h-170l3 41l-160 -23l-13 36l-14 4l-104 -52l-57 35l-54 -68q-5 -3 -15 -3q-25 0 -67 24l6 -83l-83 8l9 -26l56 -52l-81 -4l120 -53l-65 -29l161 -33l-44 -32l176 -6l-11 -40l154 26l24 -22l-3 -23l116 59l66 -36
l48 71l87 -25l-12 83l87 -12q-2 5 -1 5.5l1 0.5q-3 14 -68 70zM750 324l4 -77l-19 2l-13 79zM763 215l-13 -16l-17 12l12 11zM714 221q-28 0 -77 51l11 -50l-20 -2l-22 104l78 -69l-12 73l20 -4zM609 222l-15 3q-17 24 -33 24q-12 0 -22 -24h-25q0 56 25 102q1 4 16 4
q18 0 38 -33zM482 328l15 -101l-26 -7l-10 104zM451 217q-26 0 -79 50l11 -49l-20 -3l-22 104l80 -65l-10 70l18 -5zM335 290q7 -73 -26 -73l-10.5 -1.5t-8.5 -0.5q-30 0 -42 16q-15 67 21 93h14q36 0 52 -34zM220 326l3 -25q-4 2 -5.5 2.5l-1.5 0.5q0 1 -7 1q-11 0 -26 -15
q-12 -19 -7 -43q5 -20 28 -20q6 0 11 0.5t10 1.5l4 -17q-9 -2 -12.5 -3.5t-8.5 -1.5q-32 0 -53 47q-2 0 -3 6l-2 7q-10 48 70 59zM126 324l15 -101l-22 -8l-11 106zM577 272l-21 35l-14 -35h35zM316 274q-1 2 -2 5t-2 8q-12 12 -24 12q-19 0 -25 -32l2 -7q4 -25 22 -25
q3 0 10 2t18 7q4 8 3.5 14t-2.5 16z" />
    <glyph glyph-name="FL00B7h" unicode="&#xb7;" horiz-adv-x="236" 
d="M-31 379l23 -107h136l-23 107h-136z" />
    <glyph glyph-name="FL00B8h" unicode="&#xb8;" horiz-adv-x="188" 
d="M49 0h89l33 -155h-158l-17 82h69z" />
    <glyph glyph-name="FL00B9h" unicode="&#xb9;" horiz-adv-x="199" 
d="M-7 367h78l-65 304h-75l-34 -67h46z" />
    <glyph glyph-name="FL00BAh" unicode="&#xba;" horiz-adv-x="401" 
d="M41 503q-5 21 7 37t34 16q23 0 40.5 -16t22.5 -37q5 -23 -7 -37t-34 -14q-21 0 -39.5 15t-23.5 36zM-72 504q7 -35 26.5 -65t47 -52t60.5 -34.5t67 -12.5q35 0 62.5 12.5t45 34.5t23.5 52t-1 65q-8 35 -27 65.5t-46 53t-60 35.5t-68 13q-34 0 -61.5 -13.5t-45.5 -36
t-24.5 -53t1.5 -64.5z" />
    <glyph glyph-name="FL00BBh" unicode="&#xbb;" horiz-adv-x="514" 
d="M174 389l83 -68l-54 -70l99 -82l119 152l-182 150zM-57 390l83 -68l-55 -70l100 -82l119 152l-182 150z" />
    <glyph glyph-name="FL00BCh" unicode="&#xbc;" horiz-adv-x="722" 
d="M96 305h-78l-50 237h-46l35 67h75zM427 609l-279 -609h-123l276 609h126zM530 304h77l65 -304h-77l-27 126h-211l-38 178h77l24 -111h134z" />
    <glyph glyph-name="FL00BDh" unicode="&#xbd;" horiz-adv-x="713" 
d="M96 305h-78l-50 237h-46l35 67h75zM427 609l-279 -609h-123l276 609h126zM647 63l13 -63h-279l-19 91q-8 37 9.5 65t59.5 28h104q5 0 9.5 10.5t2.5 16.5q-2 8 -9.5 19t-15.5 11h-189l-14 63h186q19 0 38 -7t34 -19.5t26 -29.5t15 -37q4 -17 1.5 -33.5t-11 -29t-23 -20
t-34.5 -7.5h-94q-12 0 -16.5 -9.5t-1.5 -21.5l6 -27h202z" />
    <glyph glyph-name="FL00BEh" unicode="&#xbe;" horiz-adv-x="817" 
d="M526 609l-279 -609h-123l276 609h126zM625 304h77l65 -304h-77l-27 126h-211l-38 178h77l24 -111h134zM17 434l-57 64h174q23 5 18 25q-4 19 -26 19h-191l-14 67h191q42 0 72.5 -24.5t38.5 -61.5q4 -17 0.5 -32.5t-10.5 -28.5q14 -14 22.5 -27.5t12.5 -30.5
q4 -19 1.5 -36.5t-11 -31.5t-24 -22.5t-38.5 -8.5h-191l-14 67h191q10 0 13.5 12t1.5 20q-5 26 -31 30h-129z" />
    <glyph glyph-name="FL00BFh" unicode="&#xbf;" horiz-adv-x="643" 
d="M445 430l-137 1q-1 0 0 -11.5t-2 -25.5t-13 -25.5t-34 -11.5h-132q-39 0 -67 -14.5t-44.5 -39t-21.5 -56t2 -65.5q8 -39 29 -72.5t51 -57.5t66.5 -38t75.5 -14h375l-23 107h-382q-12 0 -23.5 8t-20.5 19.5t-15.5 24.5t-8.5 23q-2 8 0.5 19.5t8 22.5t13 18.5t15.5 7.5h151
q51 0 81.5 15t45.5 39.5t16 57t-6 68.5zM429 502l-22 107h-136l22 -107h136z" />
    <glyph glyph-name="FL00C0h" unicode="&#xc0;" 
d="M315 677h-97l-90 94h125zM291 479h-4l-50 -194h187zM25 0l169 609h137l429 -609h-146l-118 169h-172l-89 94l-64 -263h-146z" />
    <glyph glyph-name="FL00C1h" unicode="&#xc1;" 
d="M278 677h-97l22 94h125zM291 479h-4l-50 -194h187zM25 0l169 609h137l429 -609h-146l-118 169h-172l-89 94l-64 -263h-146z" />
    <glyph glyph-name="FL00C2h" unicode="&#xc2;" 
d="M404 677h-125l-45 59l-21 -59h-125l50 94h176zM291 479h-4l-50 -194h187zM25 0l169 609h137l429 -609h-146l-118 169h-172l-89 94l-64 -263h-146z" />
    <glyph glyph-name="FL00C3h" unicode="&#xc3;" 
d="M106 771h118l48 -51l18 51h125l-50 -94h-118l-49 50l-17 -50h-125zM291 479h-4l-50 -194h187zM25 0l169 609h137l429 -609h-146l-118 169h-172l-89 94l-64 -263h-146z" />
    <glyph glyph-name="FL00C4h" unicode="&#xc4;" 
d="M384 771l20 -94h-125l-20 94h125zM88 677l-20 94h125l20 -94h-125zM291 479h-4l-50 -194h187zM25 0l169 609h137l429 -609h-146l-118 169h-172l-89 94l-64 -263h-146z" />
    <glyph glyph-name="FL00C5h" unicode="&#xc5;" 
d="M194 609l-169 -609h146l64 263l89 -94h172l118 -169h146l-429 609h-137zM287 479h4l133 -194h-187zM163 771l20 -94h125l-20 94h-125zM253 736l5 -24h-38l-5 24h38z" />
    <glyph glyph-name="FL00C6h" unicode="&#xc6;" horiz-adv-x="1156" 
d="M25 0l169 609h137l220 -313l-18 83h492l25 -116h-476l110 -156h399l23 -107h-492l-118 169h-172l-89 94l-64 -263h-146zM485 609h492l22 -107h-492zM291 479h-4l-50 -194h187z" />
    <glyph glyph-name="FL00C7h" unicode="&#xc7;" horiz-adv-x="662" 
d="M-30 304q-12 59 -4 114t35 97.5t73 68t109 25.5h300l22 -107h-297q-25 0 -49.5 -17t-42.5 -44.5t-25.5 -63t0.5 -72.5t30.5 -72.5t52 -63.5t62.5 -45t62 -17h291l23 -107h-171l33 -155h-158l-17 82h69l-16 73h-43q-66 0 -123 27.5t-101.5 71.5t-74 98t-40.5 107z" />
    <glyph glyph-name="FL00C8h" unicode="&#xc8;" horiz-adv-x="592" 
d="M214 677h-97l-90 94h125zM519 107l23 -107h-492l-23 107h492zM-79 609h492l22 -107h-492zM-7 267l-23 108h492l23 -108h-492z" />
    <glyph glyph-name="FL00C9h" unicode="&#xc9;" horiz-adv-x="592" 
d="M-79 609h492l22 -107h-492zM50 0l-23 107h492l23 -107h-492zM187 677h-97l22 94h125zM-7 267l-23 108h492l23 -108h-492z" />
    <glyph glyph-name="FL00CAh" unicode="&#xca;" horiz-adv-x="592" 
d="M-79 609h492l22 -107h-492zM50 0l-23 107h492l23 -107h-492zM311 677h-125l-45 59l-21 -59h-125l50 94h176zM-7 267l-23 108h492l23 -108h-492z" />
    <glyph glyph-name="FL00CBh" unicode="&#xcb;" horiz-adv-x="592" 
d="M-79 609h492l22 -107h-492zM50 0l-23 107h492l23 -107h-492zM291 771l20 -94h-125l-20 94h125zM-5 677l-20 94h125l20 -94h-125zM-7 267l-23 108h492l23 -108h-492z" />
    <glyph glyph-name="FL00CCh" unicode="&#xcc;" horiz-adv-x="581" 
d="M49 0h481l-23 107h-173l-84 395h173l-22 107h-481l22 -107h172l84 -395h-172zM115 677h97l-62 94h-125z" />
    <glyph glyph-name="FL00CDh" unicode="&#xcd;" horiz-adv-x="581" 
d="M531 0h-481l-23 107h173l-84 395h-173l-22 107h481l22 -107h-172l84 -395h172zM177 677h-97l22 94h125z" />
    <glyph glyph-name="FL00CEh" unicode="&#xce;" horiz-adv-x="581" 
d="M531 0h-481l-23 107h173l-84 395h-173l-22 107h481l22 -107h-172l84 -395h172zM304 677h-125l-45 59l-21 -59h-125l50 94h176z" />
    <glyph glyph-name="FL00CFh" unicode="&#xcf;" horiz-adv-x="581" 
d="M531 0h-481l-23 107h173l-84 395h-173l-22 107h481l22 -107h-172l84 -395h172zM284 771l20 -94h-125l-20 94h125zM-12 677l-20 94h125l20 -94h-125z" />
    <glyph glyph-name="FL00D0h" unicode="&#xd0;" horiz-adv-x="813" 
d="M-31 379h112l-48 230h318q69 0 129 -24t107.5 -65t79.5 -96.5t46 -119.5q11 -53 4.5 -107t-32 -98t-70 -71.5t-110.5 -27.5h-343l-56 263h-112zM187 502l26 -123h125l25 -116h-125l33 -156h198q28 0 54 17t44 45t25.5 63.5t-0.5 72.5q-8 36 -32 71t-54.5 63t-61.5 45.5
t-52 17.5h-205z" />
    <glyph glyph-name="FL00D1h" unicode="&#xd1;" horiz-adv-x="677" 
d="M50 0l-129 609h136l19 -91l55 91h199q45 0 79.5 -13.5t59.5 -37t41 -54t23 -63.5l94 -441h-137l-88 416q-8 38 -25.5 57t-60.5 19h-235l105 -492h-136zM57 771h118l48 -51l18 51h125l-50 -94h-118l-49 50l-17 -50h-125z" />
    <glyph glyph-name="FL00D2h" unicode="&#xd2;" horiz-adv-x="732" 
d="M94 301q9 -42 33.5 -79.5t58.5 -65t75 -44t83 -16.5q44 0 79 15.5t57.5 42.5t31 64.5t-0.5 82.5q-9 42 -33 80.5t-58.5 67.5t-76 46t-86.5 17q-44 0 -78 -17t-56 -46.5t-30 -67.5t1 -80zM-29 301q-15 69 -2 130t48.5 106t90 71.5t123.5 26.5q71 0 137 -26t120 -71
t92 -106t53 -131t2.5 -130t-48 -104t-90.5 -69t-125 -25q-69 0 -134.5 25t-119.5 69t-93 104t-54 130zM284 677h-97l-90 94h125z" />
    <glyph glyph-name="FL00D3h" unicode="&#xd3;" horiz-adv-x="732" 
d="M94 301q9 -42 33.5 -79.5t58.5 -65t75 -44t83 -16.5q44 0 79 15.5t57.5 42.5t31 64.5t-0.5 82.5q-9 42 -33 80.5t-58.5 67.5t-76 46t-86.5 17q-44 0 -78 -17t-56 -46.5t-30 -67.5t1 -80zM-29 301q-15 69 -2 130t48.5 106t90 71.5t123.5 26.5q71 0 137 -26t120 -71
t92 -106t53 -131t2.5 -130t-48 -104t-90.5 -69t-125 -25q-69 0 -134.5 25t-119.5 69t-93 104t-54 130zM257 677h-97l22 94h125z" />
    <glyph glyph-name="FL00D4h" unicode="&#xd4;" horiz-adv-x="732" 
d="M94 301q9 -42 33.5 -79.5t58.5 -65t75 -44t83 -16.5q44 0 79 15.5t57.5 42.5t31 64.5t-0.5 82.5q-9 42 -33 80.5t-58.5 67.5t-76 46t-86.5 17q-44 0 -78 -17t-56 -46.5t-30 -67.5t1 -80zM-29 301q-15 69 -2 130t48.5 106t90 71.5t123.5 26.5q71 0 137 -26t120 -71
t92 -106t53 -131t2.5 -130t-48 -104t-90.5 -69t-125 -25q-69 0 -134.5 25t-119.5 69t-93 104t-54 130zM380 677h-125l-45 59l-21 -59h-125l50 94h176z" />
    <glyph glyph-name="FL00D5h" unicode="&#xd5;" horiz-adv-x="732" 
d="M-29 301q-15 69 -2 130t48.5 106t90 71.5t123.5 26.5q71 0 137 -26t120 -71t92 -106t53 -131t2.5 -130t-48 -104t-90.5 -69t-125 -25q-69 0 -134.5 25t-119.5 69t-93 104t-54 130zM94 301q9 -42 33.5 -79.5t58.5 -65t75 -44t83 -16.5q44 0 79 15.5t57.5 42.5t31 64.5
t-0.5 82.5q-9 42 -33 80.5t-58.5 67.5t-76 46t-86.5 17q-44 0 -78 -17t-56 -46.5t-30 -67.5t1 -80zM82 771h118l48 -51l18 51h125l-50 -94h-118l-49 50l-17 -50h-125z" />
    <glyph glyph-name="FL00D6h" unicode="&#xd6;" horiz-adv-x="732" 
d="M94 301q9 -42 33.5 -79.5t58.5 -65t75 -44t83 -16.5q44 0 79 15.5t57.5 42.5t31 64.5t-0.5 82.5q-9 42 -33 80.5t-58.5 67.5t-76 46t-86.5 17q-44 0 -78 -17t-56 -46.5t-30 -67.5t1 -80zM-29 301q-15 69 -2 130t48.5 106t90 71.5t123.5 26.5q71 0 137 -26t120 -71
t92 -106t53 -131t2.5 -130t-48 -104t-90.5 -69t-125 -25q-69 0 -134.5 25t-119.5 69t-93 104t-54 130zM361 771l20 -94h-125l-20 94h125zM65 677l-20 94h125l20 -94h-125z" />
    <glyph glyph-name="FL00D7h" unicode="&#xd7;" horiz-adv-x="353" 
d="M244 389l-53 -68l84 -70l-65 -82l-84 70l-55 -70l-99 82l55 70l-84 68l65 82l83 -68l54 68z" />
    <glyph glyph-name="FL00D8h" unicode="&#xd8;" horiz-adv-x="732" 
d="M530 609l-39 -74q55 -45 91 -105t51 -129q15 -70 2.5 -130t-48 -104t-90.5 -69t-125 -25q-39 0 -78 8t-77 19h-161l42 83q-48 43 -80.5 98.5t-46.5 119.5q-15 69 -2 130t48.5 106t90 71.5t123.5 26.5q35 0 73.5 -6.5t71.5 -19.5h154zM511 301q-8 36 -27 69.5t-46 60.5
l-166 -323q36 -12 72 -12q44 0 79 15.5t57.5 42.5t31 64.5t-0.5 82.5zM94 301q14 -64 59 -113l163 316q-17 4 -31.5 6t-27.5 2q-44 0 -78 -17t-56 -46.5t-30 -67.5t1 -80z" />
    <glyph glyph-name="FL00D9h" unicode="&#xd9;" horiz-adv-x="677" 
d="M627 0h-136l-19 91l-55 -91h-199q-45 0 -79.5 13.5t-60 37t-41.5 54t-23 63.5l-93 441h137l88 -416q8 -39 24.5 -57.5t60.5 -18.5h235l-104 492h136zM256 677h-97l-90 94h125z" />
    <glyph glyph-name="FL00DAh" unicode="&#xda;" horiz-adv-x="677" 
d="M627 0h-136l-19 91l-55 -91h-199q-45 0 -79.5 13.5t-60 37t-41.5 54t-23 63.5l-93 441h137l88 -416q8 -39 24.5 -57.5t60.5 -18.5h235l-104 492h136zM229 677h-97l22 94h125z" />
    <glyph glyph-name="FL00DBh" unicode="&#xdb;" horiz-adv-x="677" 
d="M627 0h-136l-19 91l-55 -91h-199q-45 0 -79.5 13.5t-60 37t-41.5 54t-23 63.5l-93 441h137l88 -416q8 -39 24.5 -57.5t60.5 -18.5h235l-104 492h136zM352 677h-125l-45 59l-21 -59h-125l50 94h176z" />
    <glyph glyph-name="FL00DCh" unicode="&#xdc;" horiz-adv-x="677" 
d="M332 771l20 -94h-125l-20 94h125zM36 677l-20 94h125l20 -94h-125zM498 609l129 -609h-136l-19 91l-55 -91h-199q-45 0 -79.5 13.5t-60 37t-41.5 54t-23 63.5l-93 441h137l88 -416q8 -39 24.5 -57.5t60.5 -18.5h235l-104 492h136z" />
    <glyph glyph-name="FL00DDh" unicode="&#xdd;" horiz-adv-x="667" 
d="M227 677h-97l22 94h125zM350 609h138l91 -429q6 -28 2 -59.5t-18.5 -58.5t-38.5 -44.5t-58 -17.5h-409l-23 107h370q12 0 20.5 6.5t13 16.5t6 22t-0.5 24l-17 76h-262q-39 0 -73 14.5t-61 39t-45.5 56t-25.5 65.5l-38 182h134l38 -182q3 -14 11 -26.5t18.5 -21.5
t21 -14.5t18.5 -5.5h241z" />
    <glyph glyph-name="FL00DEh" unicode="&#xde;" horiz-adv-x="630" 
d="M-80 609h136l21 -100h228q41 0 78.5 -19t67.5 -49.5t51 -68t29 -73.5q7 -33 3 -69t-18.5 -66t-40.5 -50t-63 -20h-174l-92 93l40 -187h-137zM103 392l40 -188h220q15 0 25.5 10t15.5 24.5t6 31t-2 29.5q-2 10 -9.5 26t-18 31t-23.5 25.5t-27 10.5h-227z" />
    <glyph glyph-name="FL00DFh" unicode="&#xdf;" horiz-adv-x="654" 
d="M-79 609h386q41 0 77 -12.5t64.5 -34.5t48 -53t27.5 -67q8 -35 1.5 -68.5t-25.5 -58.5q31 -32 50.5 -59t27.5 -62q7 -36 3 -71t-21 -62.5t-47.5 -44t-76.5 -16.5h-142l-25 117h142q14 0 23 8t14 20t6.5 25.5t-0.5 24.5q-5 25 -27 48t-52 26h-139l-24 110h142
q28 2 40 20.5t7 42.5q-5 21 -23.5 35.5t-46.5 14.5h-250l134 -628h-136z" />
    <glyph glyph-name="FL00E0h" unicode="&#xe0;" 
d="M292 479h-7l-48 -194h187zM25 0l169 609h137l429 -609h-146l-117 168h-284l-42 -168h-146zM315 677h-97l-90 94h125z" />
    <glyph glyph-name="FL00E1h" unicode="&#xe1;" 
d="M292 479h-7l-48 -194h187zM25 0l169 609h137l429 -609h-146l-117 168h-284l-42 -168h-146zM278 677h-97l22 94h125z" />
    <glyph glyph-name="FL00E2h" unicode="&#xe2;" 
d="M292 479h-7l-48 -194h187zM25 0l169 609h137l429 -609h-146l-117 168h-284l-42 -168h-146zM404 677h-125l-45 59l-21 -59h-125l50 94h176z" />
    <glyph glyph-name="FL00E3h" unicode="&#xe3;" 
d="M292 479h-7l-48 -194h187zM25 0l169 609h137l429 -609h-146l-117 168h-284l-42 -168h-146zM106 771h118l48 -51l18 51h125l-50 -94h-118l-49 50l-17 -50h-125z" />
    <glyph glyph-name="FL00E4h" unicode="&#xe4;" 
d="M292 479h-7l-48 -194h187zM25 0l169 609h137l429 -609h-146l-117 168h-284l-42 -168h-146zM384 771l20 -94h-125l-20 94h125zM88 677l-20 94h125l20 -94h-125z" />
    <glyph glyph-name="FL00E5h" unicode="&#xe5;" 
d="M163 771l20 -94h125l-20 94h-125zM194 609l-169 -609h146l42 168h284l117 -168h146l-429 609h-137zM285 479h7l132 -194h-187zM253 736l5 -24h-38l-5 24h38z" />
    <glyph glyph-name="FL00E6h" unicode="&#xe6;" horiz-adv-x="1157" 
d="M486 609h492l22 -107h-356l26 -123h311l25 -116h-311l33 -156h356l23 -107h-493l-117 168h-284l-42 -168h-146l169 609h137l222 -315zM286 479l-49 -194h187l-133 194h-5z" />
    <glyph glyph-name="FL00E7h" unicode="&#xe7;" horiz-adv-x="662" 
d="M-30 304q-12 59 -4 114t35 97.5t73 68t109 25.5h300l22 -107h-297q-25 0 -49.5 -17t-42.5 -44.5t-25.5 -63t0.5 -72.5t30.5 -72.5t52 -63.5t62.5 -45t62 -17h291l23 -107h-171l33 -155h-158l-17 82h69l-16 73h-43q-66 0 -123 27.5t-101.5 71.5t-74 98t-40.5 107z" />
    <glyph glyph-name="FL00E8h" unicode="&#xe8;" horiz-adv-x="592" 
d="M117 677h97l-62 94h-125zM-79 609l129 -609h492l-23 107h-356l-34 160h311l-23 108h-311l-27 127h356l-22 107h-492z" />
    <glyph glyph-name="FL00E9h" unicode="&#xe9;" horiz-adv-x="592" 
d="M90 677h97l50 94h-125zM-79 609l129 -609h492l-23 107h-356l-34 160h311l-23 108h-311l-27 127h356l-22 107h-492z" />
    <glyph glyph-name="FL00EAh" unicode="&#xea;" horiz-adv-x="592" 
d="M186 677h125l-90 94h-176l-50 -94h125l21 59zM-79 609l129 -609h492l-23 107h-356l-34 160h311l-23 108h-311l-27 127h356l-22 107h-492z" />
    <glyph glyph-name="FL00EBh" unicode="&#xeb;" horiz-adv-x="592" 
d="M-25 771l20 -94h125l-20 94h-125zM311 677l-20 94h-125l20 -94h125zM-79 609l129 -609h492l-23 107h-356l-34 160h311l-23 108h-311l-27 127h356l-22 107h-492z" />
    <glyph glyph-name="FL00ECh" unicode="&#xec;" horiz-adv-x="246" 
d="M55 0l-129 609h136l129 -609h-136zM49 677h-97l-90 94h125z" />
    <glyph glyph-name="FL00EDh" unicode="&#xed;" horiz-adv-x="246" 
d="M55 0l-129 609h136l129 -609h-136zM2 677h-97l22 94h125z" />
    <glyph glyph-name="FL00EEh" unicode="&#xee;" horiz-adv-x="246" 
d="M55 0l-129 609h136l129 -609h-136zM137 677h-125l-45 59l-21 -59h-125l50 94h176z" />
    <glyph glyph-name="FL00EFh" unicode="&#xef;" horiz-adv-x="246" 
d="M55 0l-129 609h136l129 -609h-136zM117 771l20 -94h-125l-20 94h125zM-179 677l-20 94h125l20 -94h-125z" />
    <glyph glyph-name="FL00F0h" unicode="&#xf0;" horiz-adv-x="701" 
d="M601 304q-14 64 -49.5 119.5t-86.5 96.5t-114.5 65t-132.5 24h-297l22 -107h336q19 0 41.5 -10t45.5 -26.5t44 -39t37 -47.5h-478l81 -379h342q66 0 111 27.5t70.5 71.5t32 98t-4.5 107zM126 263h358q-1 -32 -12 -60t-28 -49.5t-39.5 -34t-47.5 -12.5h-198z" />
    <glyph glyph-name="FL00F1h" unicode="&#xf1;" horiz-adv-x="677" 
d="M50 0l-129 609h136l19 -91l55 91h199q45 0 79.5 -13.5t59.5 -37t41 -54t23 -63.5l94 -441h-137l-88 416q-8 38 -25.5 57t-60.5 19h-235l105 -492h-136zM57 771h118l48 -51l18 51h125l-50 -94h-118l-49 50l-17 -50h-125z" />
    <glyph glyph-name="FL00F2h" unicode="&#xf2;" horiz-adv-x="732" 
d="M94 301q9 -42 33.5 -79.5t58.5 -65t75 -44t83 -16.5q44 0 79 15.5t57.5 42.5t31 64.5t-0.5 82.5q-9 42 -33 80.5t-58.5 67.5t-76 46t-86.5 17q-44 0 -78 -17t-56 -46.5t-30 -67.5t1 -80zM-29 301q-15 69 -2 130t48.5 106t90 71.5t123.5 26.5q71 0 137 -26t120 -71
t92 -106t53 -131t2.5 -130t-48 -104t-90.5 -69t-125 -25q-69 0 -134.5 25t-119.5 69t-93 104t-54 130zM284 677h-97l-90 94h125z" />
    <glyph glyph-name="FL00F3h" unicode="&#xf3;" horiz-adv-x="732" 
d="M94 301q9 -42 33.5 -79.5t58.5 -65t75 -44t83 -16.5q44 0 79 15.5t57.5 42.5t31 64.5t-0.5 82.5q-9 42 -33 80.5t-58.5 67.5t-76 46t-86.5 17q-44 0 -78 -17t-56 -46.5t-30 -67.5t1 -80zM-29 301q-15 69 -2 130t48.5 106t90 71.5t123.5 26.5q71 0 137 -26t120 -71
t92 -106t53 -131t2.5 -130t-48 -104t-90.5 -69t-125 -25q-69 0 -134.5 25t-119.5 69t-93 104t-54 130zM257 677h-97l22 94h125z" />
    <glyph glyph-name="FL00F4h" unicode="&#xf4;" horiz-adv-x="732" 
d="M94 301q9 -42 33.5 -79.5t58.5 -65t75 -44t83 -16.5q44 0 79 15.5t57.5 42.5t31 64.5t-0.5 82.5q-9 42 -33 80.5t-58.5 67.5t-76 46t-86.5 17q-44 0 -78 -17t-56 -46.5t-30 -67.5t1 -80zM-29 301q-15 69 -2 130t48.5 106t90 71.5t123.5 26.5q71 0 137 -26t120 -71
t92 -106t53 -131t2.5 -130t-48 -104t-90.5 -69t-125 -25q-69 0 -134.5 25t-119.5 69t-93 104t-54 130zM380 677h-125l-45 59l-21 -59h-125l50 94h176z" />
    <glyph glyph-name="FL00F5h" unicode="&#xf5;" horiz-adv-x="732" 
d="M-29 301q-15 69 -2 130t48.5 106t90 71.5t123.5 26.5q71 0 137 -26t120 -71t92 -106t53 -131t2.5 -130t-48 -104t-90.5 -69t-125 -25q-69 0 -134.5 25t-119.5 69t-93 104t-54 130zM94 301q9 -42 33.5 -79.5t58.5 -65t75 -44t83 -16.5q44 0 79 15.5t57.5 42.5t31 64.5
t-0.5 82.5q-9 42 -33 80.5t-58.5 67.5t-76 46t-86.5 17q-44 0 -78 -17t-56 -46.5t-30 -67.5t1 -80zM82 771h118l48 -51l18 51h125l-50 -94h-118l-49 50l-17 -50h-125z" />
    <glyph glyph-name="FL00F6h" unicode="&#xf6;" horiz-adv-x="732" 
d="M94 301q9 -42 33.5 -79.5t58.5 -65t75 -44t83 -16.5q44 0 79 15.5t57.5 42.5t31 64.5t-0.5 82.5q-9 42 -33 80.5t-58.5 67.5t-76 46t-86.5 17q-44 0 -78 -17t-56 -46.5t-30 -67.5t1 -80zM-29 301q-15 69 -2 130t48.5 106t90 71.5t123.5 26.5q71 0 137 -26t120 -71
t92 -106t53 -131t2.5 -130t-48 -104t-90.5 -69t-125 -25q-69 0 -134.5 25t-119.5 69t-93 104t-54 130zM361 771l20 -94h-125l-20 94h125zM65 677l-20 94h125l20 -94h-125z" />
    <glyph glyph-name="FL00F7h" unicode="&#xf7;" horiz-adv-x="504" 
d="M-31 379h404l25 -116h-404zM270 219l20 -94h-122l-20 94h122zM107 419l-20 94h122l20 -94h-122z" />
    <glyph glyph-name="FL00F8h" unicode="&#xf8;" horiz-adv-x="732" 
d="M-29 301q-15 69 -2 130t48.5 106t90 71.5t123.5 26.5q71 0 137 -26t120 -71t92 -106t53 -131t2.5 -130t-48 -104t-90.5 -69t-125 -25q-69 0 -134.5 25t-119.5 69t-93 104t-54 130zM94 301q15 -69 67 -122l167 321q-35 12 -71 12q-44 0 -78 -17t-56 -46.5t-30 -67.5t1 -80
zM511 301q-17 69 -66 123l-162 -319q30 -9 61 -9q44 0 79 15.5t57.5 42.5t31 64.5t-0.5 82.5z" />
    <glyph glyph-name="FL00F9h" unicode="&#xf9;" horiz-adv-x="677" 
d="M627 0h-136l-19 91l-55 -91h-199q-45 0 -79.5 13.5t-60 37t-41.5 54t-23 63.5l-93 441h137l88 -416q8 -39 24.5 -57.5t60.5 -18.5h235l-104 492h136zM256 677h-97l-90 94h125z" />
    <glyph glyph-name="FL00FAh" unicode="&#xfa;" horiz-adv-x="677" 
d="M627 0h-136l-19 91l-55 -91h-199q-45 0 -79.5 13.5t-60 37t-41.5 54t-23 63.5l-93 441h137l88 -416q8 -39 24.5 -57.5t60.5 -18.5h235l-104 492h136zM229 677h-97l22 94h125z" />
    <glyph glyph-name="FL00FBh" unicode="&#xfb;" horiz-adv-x="677" 
d="M627 0h-136l-19 91l-55 -91h-199q-45 0 -79.5 13.5t-60 37t-41.5 54t-23 63.5l-93 441h137l88 -416q8 -39 24.5 -57.5t60.5 -18.5h235l-104 492h136zM352 677h-125l-45 59l-21 -59h-125l50 94h176z" />
    <glyph glyph-name="FL00FCh" unicode="&#xfc;" horiz-adv-x="677" 
d="M332 771l20 -94h-125l-20 94h125zM36 677l-20 94h125l20 -94h-125zM498 609l129 -609h-136l-19 91l-55 -91h-199q-45 0 -79.5 13.5t-60 37t-41.5 54t-23 63.5l-93 441h137l88 -416q8 -39 24.5 -57.5t60.5 -18.5h235l-104 492h136z" />
    <glyph glyph-name="FL00FDh" unicode="&#xfd;" horiz-adv-x="652" 
d="M197 288l-301 321h160l182 -194l100 194h160l-165 -321l61 -288h-136zM216 677h-97l22 94h125z" />
    <glyph glyph-name="FL00FEh" unicode="&#xfe;" horiz-adv-x="630" 
d="M-80 609h136l21 -100h228q41 0 78.5 -19t67.5 -49.5t51 -68t29 -73.5q7 -33 3 -69t-18.5 -66t-40.5 -50t-63 -20h-174l-92 93l40 -187h-137zM103 392l40 -188h220q15 0 25.5 10t15.5 24.5t6 31t-2 29.5q-2 10 -9.5 26t-18 31t-23.5 25.5t-27 10.5h-227z" />
    <glyph glyph-name="FL00FFh" unicode="&#xff;" horiz-adv-x="652" 
d="M197 288l-301 321h160l182 -194l100 194h160l-165 -321l61 -288h-136zM317 771l20 -94h-125l-20 94h125zM21 677l-20 94h125l20 -94h-125z" />
    <glyph glyph-name="FL0152h" unicode="&#x152;" horiz-adv-x="1021" 
d="M-30 304q-12 59 -4 114t35 97.5t73 68t109 25.5h659l22 -107h-656q-25 0 -49.5 -17t-42.5 -44.5t-25.5 -63t0.5 -72.5t30.5 -72.5t52 -63.5t62.5 -45t62 -17h650l23 -107h-662q-66 0 -123 27.5t-101.5 71.5t-74 98t-40.5 107zM424 263l-25 116h491l25 -116h-491z" />
    <glyph glyph-name="FL0153h" unicode="&#x153;" horiz-adv-x="1021" 
d="M-30 304q-12 59 -4 114t35 97.5t73 68t109 25.5h659l22 -107h-356l26 -123h311l25 -116h-311l33 -156h356l23 -107h-662q-66 0 -123 27.5t-101.5 71.5t-74 98t-40.5 107zM372 502h-164q-25 0 -49.5 -17t-42.5 -44.5t-25.5 -63t0.5 -72.5t30.5 -72.5t52 -63.5t62.5 -45
t62 -17h158z" />
    <glyph glyph-name="FL0160h" unicode="&#x160;" horiz-adv-x="655" 
d="M52 0l-23 107h370q12 0 22 6.5t17 17t10 22.5t0 24q-6 28 -28 51.5t-52 23.5h-209q-39 0 -73 14.5t-61 39t-45.5 56t-25.5 65.5q-8 39 -1 72.5t26.5 57.5t50 38t69.5 14h375l22 -107h-382q-12 0 -20 -7t-12.5 -18.5t-5.5 -24.5t2 -25q2 -11 9.5 -23t17.5 -22t20.5 -16.5
t18.5 -6.5h215q39 0 74.5 -15t63.5 -39.5t47.5 -57t27.5 -68.5q6 -29 2 -61t-17.5 -58t-37.5 -43t-58 -17h-409zM8 771h125l46 -59l20 59h125l-50 -94h-176z" />
    <glyph glyph-name="FL0161h" unicode="&#x161;" horiz-adv-x="655" 
d="M52 0l-23 107h370q12 0 22 6.5t17 17t10 22.5t0 24q-6 28 -28 51.5t-52 23.5h-209q-39 0 -73 14.5t-61 39t-45.5 56t-25.5 65.5q-8 39 -1 72.5t26.5 57.5t50 38t69.5 14h375l22 -107h-382q-12 0 -20 -7t-12.5 -18.5t-5.5 -24.5t2 -25q2 -11 9.5 -23t17.5 -22t20.5 -16.5
t18.5 -6.5h215q39 0 74.5 -15t63.5 -39.5t47.5 -57t27.5 -68.5q6 -29 2 -61t-17.5 -58t-37.5 -43t-58 -17h-409zM8 771h125l46 -59l20 59h125l-50 -94h-176z" />
    <glyph glyph-name="FL0178h" unicode="&#x178;" horiz-adv-x="667" 
d="M329 771l20 -94h-125l-20 94h125zM33 677l-20 94h125l20 -94h-125zM350 609h138l91 -429q6 -28 2 -59.5t-18.5 -58.5t-38.5 -44.5t-58 -17.5h-409l-23 107h370q12 0 20.5 6.5t13 16.5t6 22t-0.5 24l-17 76h-262q-39 0 -73 14.5t-61 39t-45.5 56t-25.5 65.5l-38 182h134
l38 -182q3 -14 11 -26.5t18.5 -21.5t21 -14.5t18.5 -5.5h241z" />
    <glyph glyph-name="FL0192h" unicode="&#x192;" horiz-adv-x="754" 
d="M635 324l4 -77l-19 2l-13 79zM648 215l-13 -16l-17 12l12 11zM599 221q-28 0 -77 51l11 -50l-20 -2l-22 104l78 -69l-12 73l20 -4zM494 222l-15 3q-17 24 -33 24q-12 0 -22 -24h-25q0 56 25 102q1 4 16 4q18 0 38 -33zM367 328l15 -101l-26 -7l-10 104zM336 217
q-26 0 -79 50l11 -49l-20 -3l-22 104l80 -65l-10 70l18 -5zM220 290q7 -73 -26 -73l-10.5 -1.5t-8.5 -0.5q-30 0 -42 16q-15 67 21 93h14q36 0 52 -34zM105 326l3 -25q-4 2 -5.5 2.5l-1.5 0.5q0 1 -7 1q-11 0 -26 -15q-12 -19 -7 -43q5 -20 28 -20q6 0 11 0.5t10 1.5l4 -17
q-9 -2 -12.5 -3.5t-8.5 -1.5q-32 0 -53 47q-2 0 -3 6l-2 7q-10 48 70 59zM11 324l15 -101l-22 -8l-11 106zM462 272l-21 35l-14 -35h35zM201 274q-1 2 -2 5t-2 8q-12 12 -24 12q-19 0 -25 -32l2 -7q4 -25 22 -25q3 0 10 2t18 7q4 8 3.5 14t-2.5 16z" />
    <glyph glyph-name="FL02C6h" unicode="&#x2c6;" horiz-adv-x="366" 
d="M231 516h-125l-45 59l-21 -59h-125l50 94h176z" />
    <glyph glyph-name="FL02DCh" unicode="&#x2dc;" horiz-adv-x="429" 
d="M-34 609h118l47 -51l19 51h125l-50 -94h-118l-49 50l-17 -50h-125z" />
    <glyph glyph-name="FL2013h" unicode="&#x2013;" horiz-adv-x="396" 
d="M-31 379l25 -116h296l-25 116h-296z" />
    <glyph glyph-name="FL2014h" unicode="&#x2014;" horiz-adv-x="452" 
d="M-31 379h352l25 -116h-352z" />
    <glyph glyph-name="FL2018h" unicode="&#x2018;" horiz-adv-x="236" 
d="M104 385h-136l-29 135l118 89z" />
    <glyph glyph-name="FL2019h" unicode="&#x2019;" horiz-adv-x="236" 
d="M-79 609h136l28 -135l-117 -89z" />
    <glyph glyph-name="FL201Ah" unicode="&#x201a;" horiz-adv-x="236" 
d="M27 107h136l29 -135l-117 -89z" />
    <glyph glyph-name="FL201Ch" unicode="&#x201c;" horiz-adv-x="422" 
d="M104 385h-136l-29 135l118 89zM290 385h-136l-29 135l118 89z" />
    <glyph glyph-name="FL201Dh" unicode="&#x201d;" horiz-adv-x="422" 
d="M107 609h136l28 -135l-117 -89zM-79 609h136l28 -135l-117 -89z" />
    <glyph glyph-name="FL201Eh" unicode="&#x201e;" horiz-adv-x="422" 
d="M213 107h136l29 -135l-117 -89zM27 107h136l29 -135l-117 -89z" />
    <glyph glyph-name="FL2020h" unicode="&#x2020;" horiz-adv-x="447" 
d="M299 462l24 -116h-105l74 -346h-136l-74 346h-106l-24 116h106l-31 147h136l31 -147h105z" />
    <glyph glyph-name="FL2021h" unicode="&#x2021;" horiz-adv-x="447" 
d="M299 462l24 -116h-105l14 -66h105l25 -116h-105l35 -164h-136l-35 164h-106l-25 116h106l-14 66h-106l-24 116h106l-31 147h136l31 -147h105z" />
    <glyph glyph-name="FL2022h" unicode="&#x2022;" horiz-adv-x="487" 
d="M-29 301q-9 42 -1 80t30 67.5t56 46.5t78 17q45 0 86.5 -17t76 -46t58.5 -67.5t33 -80.5q9 -45 0.5 -82.5t-31 -64.5t-57.5 -42.5t-79 -15.5q-42 0 -83 16.5t-75 44t-58.5 65t-33.5 79.5z" />
    <glyph glyph-name="FL2026h" unicode="&#x2026;" horiz-adv-x="608" 
d="M399 107l23 -107h136l-23 107h-136zM213 107l23 -107h136l-23 107h-136zM27 107l23 -107h136l-23 107h-136z" />
    <glyph glyph-name="FL2030h" unicode="&#x2030;" horiz-adv-x="978" 
d="M266 103q-6 22 -4 46l-76 -149h-161l188 364q-18 -11 -38 -17.5t-45 -6.5q-34 0 -67 12.5t-60.5 34.5t-47 52t-26.5 65q-8 34 -1.5 64.5t24.5 53t45.5 36t61.5 13.5q35 0 68 -13t60 -35.5t46 -53t27 -65.5q4 -22 3 -40l76 145h160l-189 -367q34 28 87 28q30 0 59 -10
t54 -27.5t44.5 -42t31.5 -52.5q0 28 9.5 52.5t27.5 42.5t42.5 28t54.5 10q35 0 68 -13t60 -35.5t46 -53t27 -65.5q7 -35 1 -65t-23.5 -52t-45 -34.5t-62.5 -12.5q-30 0 -59 9.5t-54.5 27t-45.5 41t-32 51.5q0 -57 -36 -93.5t-97 -36.5q-34 0 -67 12.5t-60.5 34.5t-47 52
t-26.5 65zM42 503q5 -21 23.5 -36t39.5 -15q22 0 34 14t7 37q-5 21 -22.5 37t-40.5 16q-22 0 -34 -16t-7 -37zM379 102q5 -21 23.5 -36t39.5 -15q22 0 34 14t7 37q-5 21 -22.5 37t-40.5 16q-22 0 -34 -16t-7 -37zM703 103q5 -21 23.5 -36t39.5 -15q22 0 34 14t7 37
q-5 21 -22.5 37t-40.5 16q-22 0 -34 -16t-7 -37z" />
    <glyph glyph-name="FL2039h" unicode="&#x2039;" horiz-adv-x="283" 
d="M174 389l-53 -68l84 -70l-65 -82l-183 152l118 150z" />
    <glyph glyph-name="FL203Ah" unicode="&#x203a;" horiz-adv-x="283" 
d="M-58 389l83 -68l-54 -70l99 -82l119 152l-182 150z" />
    <glyph glyph-name="mu" unicode="&#x2122;" horiz-adv-x="1008" 
d="M921 290l-1 -1l-7 -26h-56l46 -45l3 -8l1 -4q5 -17 -12 -25l-66 13l6 -70q0 -13 -21 -13q-16 0 -29 5t-33 15l-8 2l-48 -63l-30 -5l-47 34l-109 -58l-20 7l-7 34l-155 -23l-21 11l2 29l-167 13l-4 21l14 20l-106 18q-19 0 -24 23l34 29l-77 31l-14 27l69 11l-45 43l-5 35
l76 -8q-18 83 13 83h3l74 -21q20 30 33 45t29 23l65 -33l104 53l26 -20l2 -17l3 -6l123 23l46 -4l3 -36h149l16 -12q7 -32 -18 -33l135 -32l2 -7q6 -27 -40 -33q90 -29 93 -45zM902 281l-7 11l-112 49l59 17h8l-11 12l-152 29l44 35h-170l3 41l-160 -23l-13 36l-14 4
l-104 -52l-57 35l-54 -68q-5 -3 -15 -3q-25 0 -67 24l6 -83l-83 8l9 -26l56 -52l-81 -4l120 -53l-65 -29l161 -33l-44 -32l176 -6l-11 -40l154 26l24 -22l-3 -23l116 59l66 -36l48 71l87 -25l-12 83l87 -12q-2 5 -1 5.5l1 0.5q-3 14 -68 70zM770 324l4 -77l-19 2l-13 79z
M783 215l-13 -16l-17 12l12 11zM734 221q-28 0 -77 51l11 -50l-20 -2l-22 104l78 -69l-12 73l20 -4zM629 222l-15 3q-17 24 -33 24q-12 0 -22 -24h-25q0 56 25 102q1 4 16 4q18 0 38 -33zM502 328l15 -101l-26 -7l-10 104zM471 217q-26 0 -79 50l11 -49l-20 -3l-22 104
l80 -65l-10 70l18 -5zM355 290q7 -73 -26 -73l-10.5 -1.5t-8.5 -0.5q-30 0 -42 16q-15 67 21 93h14q36 0 52 -34zM240 326l3 -25q-4 2 -5.5 2.5l-1.5 0.5q0 1 -7 1q-11 0 -26 -15q-12 -19 -7 -43q5 -20 28 -20q6 0 11 0.5t10 1.5l4 -17q-9 -2 -12.5 -3.5t-8.5 -1.5
q-32 0 -53 47q-2 0 -3 6l-2 7q-10 48 70 59zM146 324l15 -101l-22 -8l-11 106zM597 272l-21 35l-14 -35h35zM336 274q-1 2 -2 5t-2 8q-12 12 -24 12q-19 0 -25 -32l2 -7q4 -25 22 -25q3 0 10 2t18 7q4 8 3.5 14t-2.5 16z" />
    </font>
</defs>
</svg>
