<?xml version="1.0" standalone="no"?>
<!DOCTYPE svg PUBLIC "-//W3C//DTD SVG 1.1//EN" "http://www.w3.org/Graphics/SVG/1.1/DTD/svg11.dtd" >
<svg xmlns="http://www.w3.org/2000/svg" xmlns:xlink="http://www.w3.org/1999/xlink" version="1.1">
<metadata>
Created by FontForge 20170731 at Sun Feb  9 02:30:34 2003
 By Aleksey,,,
(c) Jakob Fischer at www.pizzadude.dk - DO NOT DISTRIBUTE WITHOUT AUTHOR'S PERMISSION!
</metadata>
<defs>
<font id="MammaGamma" horiz-adv-x="401" >
  <font-face 
    font-family="MammaGamma"
    font-weight="400"
    font-stretch="normal"
    units-per-em="1000"
    panose-1="0 0 4 0 0 0 0 0 0 0"
    ascent="800"
    descent="-200"
    x-height="482"
    cap-height="827"
    bbox="-15 -223 745 827"
    underline-thickness="20"
    underline-position="-163"
    unicode-range="U+0020-00F8"
  />
<missing-glyph horiz-adv-x="500" 
d="M63 0v827h375v-827h-375zM125 63h250v702h-250v-702z" />
    <glyph glyph-name=".notdef" horiz-adv-x="500" 
d="M63 0v827h375v-827h-375zM125 63h250v702h-250v-702z" />
    <glyph glyph-name=".null" horiz-adv-x="0" 
 />
    <glyph glyph-name="nonmarkingreturn" horiz-adv-x="200" 
 />
    <glyph glyph-name="space" unicode=" " horiz-adv-x="200" 
 />
    <glyph glyph-name="exclam" unicode="!" horiz-adv-x="223" 
d="M116 379h-41v423h41v-423zM191 217q0 -37 -29.5 -66t-66.5 -29q-36 0 -65.5 29.5t-29.5 65.5q0 37 29 66t66 29t66.5 -29t29.5 -66zM149 217q0 21 -16.5 37.5t-37.5 16.5t-37.5 -16.5t-16.5 -37.5q0 -20 17 -37t37 -17q21 0 37.5 16.5t16.5 37.5z" />
    <glyph glyph-name="quotedbl" unicode="&#x22;" horiz-adv-x="239" 
d="M72 490q-22 -76 -35 -136h-37v136h72zM202 490q-22 -76 -35 -136h-37v136h72z" />
    <glyph glyph-name="percent" unicode="%" horiz-adv-x="446" 
d="M411 215q0 -37 -29 -66.5t-66 -29.5t-66.5 29.5t-29.5 66.5t29.5 66t66.5 29q36 0 65.5 -29.5t29.5 -65.5zM403 480l-306 -360h-53l305 360h54zM224 385q0 -36 -29.5 -65.5t-65.5 -29.5t-65.5 29.5t-29.5 65.5q0 37 29 66t66 29t66 -29t29 -66zM370 215q0 20 -17 37
t-37 17q-21 0 -37.5 -16.5t-16.5 -37.5t16.5 -37.5t37.5 -16.5t37.5 16.5t16.5 37.5zM183 385q0 20 -17 37t-37 17q-21 0 -37.5 -16.5t-16.5 -37.5q0 -20 17 -37t37 -17q21 0 37.5 16.5t16.5 37.5z" />
    <glyph glyph-name="ampersand" unicode="&#x26;" horiz-adv-x="430" 
d="M406 389h-66q21 -51 21 -87q0 -74 -53 -127t-128 -53q-74 0 -127 53t-53 127q0 94 93 159q-93 67 -93 160q0 74 53 127.5t127 53.5q33 0 83 -20q35 -14 66.5 -59.5t31.5 -83.5v-17h-41q-2 59 -42 98.5t-98 39.5q-57 0 -98 -41t-41 -98q0 -58 41 -97q38 -35 98 -42v-41
q-60 -7 -98 -42q-41 -39 -41 -97q0 -57 41 -98t98 -41q58 0 98.5 40.5t40.5 98.5q0 56 -41 98v30h128v-41z" />
    <glyph glyph-name="quotesingle" unicode="'" horiz-adv-x="109" 
d="M72 490q-22 -76 -35 -136h-37v136h72z" />
    <glyph glyph-name="parenleft" unicode="(" horiz-adv-x="189" 
d="M203 761q-73 6 -123 -117q-39 -96 -39 -179v-326q0 -83 39 -179q50 -123 123 -117v-41h-19q-19 0 -61 26q-56 34 -93 149q-30 93 -30 164v321q0 72 33 170q20 60 54 107q46 63 97 63h19v-41z" />
    <glyph glyph-name="parenright" unicode=")" horiz-adv-x="243" 
d="M0 761q74 6 123 -117q38 -95 38 -179v-326q0 -84 -38 -179q-49 -123 -123 -117v-41h19q19 0 61 26q56 34 93 149q30 93 30 164v321q0 72 -33 170q-20 60 -54 107q-46 63 -97 63h-19v-41z" />
    <glyph glyph-name="asterisk" unicode="*" horiz-adv-x="187" 
d="M151 410q-36 -12 -56 -16q12 -14 40 -52q-10 -8 -28 -23q-6 9 -16 29l-15 29q-5 -10 -15 -29l-16 -29q-4 3 -26 23q19 32 37 52q-19 5 -56 16q3 13 11 39q32 -16 50 -27q0 74 -1 68h31v-68q24 15 49 27q4 -13 11 -39z" />
    <glyph glyph-name="plus" unicode="+" horiz-adv-x="279" 
d="M251 287h-89v-107h-38v107q-1 1 -88 0v46h88v108h38v-108h89v-46z" />
    <glyph glyph-name="comma" unicode="," horiz-adv-x="146" 
d="M108 184q0 3 -13 -93q-23 4 -30 4q3 19 6 35h-17q-20 0 -37 17t-17 37q0 21 16.5 37.5t37.5 16.5q20 0 37 -17t17 -37z" />
    <glyph glyph-name="hyphen" unicode="-" horiz-adv-x="293" 
d="M252 288h-213v45h213v-45z" />
    <glyph glyph-name="hyphen" unicode="&#x2010;" horiz-adv-x="293" 
d="M252 288h-213v45h213v-45z" />
    <glyph glyph-name="period" unicode="." horiz-adv-x="146" 
d="M108 184q0 -21 -16.5 -37.5t-37.5 -16.5q-20 0 -37 17t-17 37q0 21 16.5 37.5t37.5 16.5q20 0 37 -17t17 -37z" />
    <glyph glyph-name="slash" unicode="/" horiz-adv-x="225" 
d="M41 -198h-41l200 1000h41z" />
    <glyph glyph-name="zero" unicode="0" 
d="M361 284q0 -8 -10 -39q-18 -55 -65.5 -89t-105.5 -34q-96 0 -150 82q-30 46 -30 81v354q0 10 10 40q18 54 65.5 88.5t104.5 34.5q33 0 83 -20q35 -14 66.5 -59.5t31.5 -83.5v-355zM319 288v347q0 27 -25 64.5t-50 45.5q-48 15 -64 15q-24 0 -63 -15q-25 -10 -50.5 -46.5
t-25.5 -63.5v-346q0 -29 24.5 -64t51.5 -47q35 -15 63 -15q26 0 64 15q25 10 50 47t25 63z" />
    <glyph glyph-name="one" unicode="1" horiz-adv-x="177" 
d="M137 122h-43v626q-54 -27 -81 -27h-13v41q31 4 45 9q28 9 51 31h41v-680z" />
    <glyph glyph-name="two" unicode="2" horiz-adv-x="374" 
d="M361 621q0 -105 -94 -159q-26 -15 -75 -21q-55 -7 -74 -15q-26 -11 -51.5 -46.5t-25.5 -63.5v-152h320v-42h-361v197q0 37 30 80t64 62q24 13 75.5 19.5t73.5 16.5q33 15 54.5 51t21.5 73q0 58 -40.5 98.5t-98.5 40.5t-97.5 -40t-41.5 -98h-41v17q0 10 10 40
q18 54 65.5 88.5t104.5 34.5q75 0 128 -53t53 -128z" />
    <glyph glyph-name="three" unicode="3" horiz-adv-x="395" 
d="M362 301q0 -75 -53 -128t-128 -53q-97 0 -151 83q-30 46 -30 80v18h41q2 -59 41.5 -99t98.5 -40q57 0 98 41t41 98q0 58 -41 97q-38 36 -98 42v41q60 7 99.5 44.5t39.5 95.5q0 57 -41 98t-98 41t-97.5 -41t-42.5 -98h-41v17q0 9 10 40q18 54 66 89t105 35q75 0 128 -53
t53 -128q0 -104 -94 -160q0 -2 6 -6q88 -52 88 -154z" />
    <glyph glyph-name="four" unicode="4" horiz-adv-x="393" 
d="M361 441h-41v-319h-42v319h-250l-28 28q15 15 28.5 43.5t13.5 47.5v242h41v-250q0 -9 -21 -69h216v319h42v-319q9 -1 19 -1t22 1v-42z" />
    <glyph glyph-name="five" unicode="5" horiz-adv-x="397" 
d="M361 371q0 -92 -5 -114q-13 -58 -64.5 -96.5t-111.5 -38.5q-96 0 -150 82q-30 46 -30 81v17h41q2 -58 42 -98.5t97 -40.5q36 0 63 15q59 33 72 93q4 18 4 100q0 83 -4 101q-14 60 -72 93q-27 15 -63 15q-57 0 -97 -40.5t-42 -98.5h-41v361h305v-41h-262v-204
q58 64 137 64q36 0 83 -19q21 -9 47 -36.5t35 -50.5q7 -16 13 -40q3 -23 3 -104z" />
    <glyph glyph-name="six" unicode="6" horiz-adv-x="402" 
d="M361 371q0 -92 -5 -114q-13 -58 -64.5 -96.5t-111.5 -38.5q-96 0 -150 82q-30 46 -30 81v354q0 10 10 40q18 54 65.5 88.5t104.5 34.5q32 0 68 -14.5t57 -36.5q-4 -6 -28 -30q-11 15 -43.5 27t-53.5 12q-53 0 -93.5 -38t-45.5 -91l2 -74q58 64 137 64q36 0 83 -19
q21 -9 47 -36.5t35 -50.5q7 -16 13 -40q3 -23 3 -104zM319 371q0 82 -4 101q-13 62 -71 92q-31 16 -64 16q-32 0 -63 -16q-57 -30 -71 -91q-5 -22 -5 -102q0 -78 5 -100q14 -63 71 -93q29 -15 63 -15q36 0 64 15q58 31 71 91q4 18 4 102z" />
    <glyph glyph-name="seven" unicode="7" horiz-adv-x="337" 
d="M361 604q0 -35 -30.5 -79.5t-63.5 -62.5q-25 -14 -75 -21q-55 -7 -74 -15q-26 -11 -51.5 -46.5t-25.5 -63.5v-194h-41v197q0 37 31 81q28 42 63 61q26 14 75 21q54 7 74 15q29 12 54 52q23 37 23 59v152h-320v42h361v-198z" />
    <glyph glyph-name="eight" unicode="8" horiz-adv-x="397" 
d="M360 303q0 -75 -52.5 -127.5t-127.5 -52.5q-74 0 -127 53t-53 127q0 94 93 158q-93 68 -93 161q0 74 53 127t127 53t127 -53t53 -127q0 -103 -93 -159q93 -68 93 -160zM319 622q0 57 -41 98t-98 41t-98 -41t-41 -98t41 -98t98 -41t98 41t41 98zM319 303q0 57 -41 98
t-98 41t-98 -41t-41 -98t41 -98t98 -41t98 41t41 98z" />
    <glyph glyph-name="nine" unicode="9" 
d="M361 284q0 -8 -10 -39q-18 -55 -65.5 -89t-105.5 -34q-27 0 -59 11q-40 14 -65 39q4 6 28 30q14 -16 44 -27.5t52 -11.5q48 0 89 33q51 41 50 97l-1 73q-57 -64 -138 -64q-48 0 -87 22q-30 17 -55.5 49.5t-32.5 64.5q-5 22 -5 114q0 94 5 114q14 58 64.5 97t110.5 39
q33 0 83 -20q35 -14 66.5 -59.5t31.5 -83.5v-355zM319 552q0 81 -4 100q-14 64 -71 93q-30 15 -64 15t-63 -15q-57 -30 -71 -91q-5 -22 -5 -102q0 -78 5 -100q14 -63 71 -93q31 -16 63 -16q34 0 64 16q58 31 71 91q4 18 4 102z" />
    <glyph glyph-name="colon" unicode=":" horiz-adv-x="145" 
d="M108 335q0 -21 -16.5 -37.5t-37.5 -16.5q-20 0 -37 17t-17 37q0 21 16.5 37.5t37.5 16.5q20 0 37 -17t17 -37zM108 184q0 -21 -16.5 -37.5t-37.5 -16.5q-20 0 -37 17t-17 37q0 21 16.5 37.5t37.5 16.5q20 0 37 -17t17 -37z" />
    <glyph glyph-name="semicolon" unicode=";" horiz-adv-x="146" 
d="M108 335q0 -21 -16.5 -37.5t-37.5 -16.5q-20 0 -37 17t-17 37q0 21 16.5 37.5t37.5 16.5q20 0 37 -17t17 -37zM108 184q0 3 -13 -93q-23 4 -30 4q3 19 6 35h-17q-20 0 -37 17t-17 37q0 21 16.5 37.5t37.5 16.5q20 0 37 -17t17 -37z" />
    <glyph glyph-name="less" unicode="&#x3c;" horiz-adv-x="320" 
d="M290 178l-261 112v43l261 108q0 -17 -1 -47l-209 -85l210 -84v-47z" />
    <glyph glyph-name="equal" unicode="=" horiz-adv-x="265" 
d="M236 348h-214v45h214v-45zM236 228h-214v45h214v-45z" />
    <glyph glyph-name="greater" unicode="&#x3e;" horiz-adv-x="311" 
d="M29 178q81 35 261 112v43l-261 108q-1 -17 0 -47l209 -85l-209 -84v-47z" />
    <glyph glyph-name="question" unicode="?" horiz-adv-x="333" 
d="M357 621q0 -47 -26.5 -91t-67.5 -68q-26 -15 -70 -21q-56 -7 -61 -9q-32 -10 -52 -30l-28 28q30 30 65 41q22 7 69 12q75 8 109 68q20 35 20 70q0 58 -40.5 98.5t-98.5 40.5q-22 0 -53 -12t-43 -27l-28 28q46 53 124 53q75 0 128 -53t53 -128zM191 217q0 -37 -29.5 -66
t-66.5 -29q-36 0 -65.5 29.5t-29.5 65.5q0 37 29 66t66 29t66.5 -29t29.5 -66zM149 217q0 21 -16.5 37.5t-37.5 16.5t-37.5 -16.5t-16.5 -37.5q0 -20 17 -37t37 -17q21 0 37.5 16.5t16.5 37.5z" />
    <glyph glyph-name="at" unicode="@" horiz-adv-x="604" 
d="M568 371q0 -94 -5 -114q-12 -50 -61.5 -92.5t-100.5 -42.5h-21v134q-57 -64 -137 -64q-74 0 -127.5 53t-53.5 127q0 75 53 128t128 53t138 -64q1 10 -1 64h45v-384q20 6 26 9q58 33 72 94q4 17 4 99q0 84 -4 102q-13 61 -72 92q-29 15 -54 15h-226q-27 0 -53 -15
q-58 -34 -72 -93q-5 -22 -5 -101q0 -84 4 -101q14 -61 73 -92q29 -15 53 -15h175v-41h-179q-52 0 -101 41.5t-61 93.5q-5 22 -5 114q0 84 3 104q8 56 60 101t108 45h226q17 0 73 -19q24 -8 53.5 -43.5t34.5 -60.5q4 -7 7 -23q3 -31 3 -104zM382 372q0 58 -40.5 98.5
t-98.5 40.5t-98.5 -40.5t-40.5 -98.5q0 -57 41 -97.5t98 -40.5t98 40.5t41 97.5z" />
    <glyph glyph-name="A" unicode="A" horiz-adv-x="466" 
d="M333 484l-1 23h94v-410h-93v34q-52 -34 -113 -34q-85 0 -145 60t-60 145q0 84 60.5 144.5t144.5 60.5q63 0 113 -23zM220 416q-46 0 -80 -34t-34 -80q0 -47 33.5 -80.5t80.5 -33.5t80.5 33.5t33.5 80.5t-33.5 80.5t-80.5 33.5z" />
    <glyph glyph-name="B" unicode="B" horiz-adv-x="459" 
d="M108 121l1 -24h-94v730h93v-355q53 35 112 35q85 0 145.5 -60t60.5 -145t-60.5 -145t-145.5 -60q-63 0 -112 24zM220 416q-46 0 -80 -34t-34 -80q0 -47 33.5 -80.5t80.5 -33.5t80.5 33.5t33.5 80.5t-33.5 80.5t-80.5 33.5z" />
    <glyph glyph-name="C" unicode="C" horiz-adv-x="409" 
d="M220 97q-85 0 -145 60t-60 145q0 84 60.5 144.5t144.5 60.5q86 0 157 -72q-17 -26 -62 -71q-42 52 -95 52q-47 0 -80.5 -33.5t-33.5 -80.5q0 -46 34 -80t80 -34q54 0 95 52l65 -65q-76 -78 -160 -78z" />
    <glyph glyph-name="D" unicode="D" horiz-adv-x="466" 
d="M333 97v34q-52 -34 -113 -34q-85 0 -145 60t-60 145q0 84 60.5 144.5t144.5 60.5q59 0 113 -34v354h93v-730h-93zM220 416q-46 0 -80 -34t-34 -80q0 -47 33.5 -80.5t80.5 -33.5t80.5 33.5t33.5 80.5t-33.5 80.5t-80.5 33.5z" />
    <glyph glyph-name="E" unicode="E" horiz-adv-x="462" 
d="M118 256q17 -24 50 -55q28 -13 52 -13q54 0 95 52l65 -65q-76 -78 -160 -78q-85 0 -145 60t-60 145q0 84 60.5 144.5t144.5 60.5q111 0 171 -91q35 -54 35 -96v-63zM220 416q-32 0 -60 -19t-42 -49h205q-14 30 -42.5 49t-60.5 19z" />
    <glyph glyph-name="F" unicode="F" horiz-adv-x="373" 
d="M351 400l-36 -36q-42 52 -95 52q-38 0 -75.5 -31.5t-37.5 -68.5v-127h138v-92h-138v-320h-92v542q0 15 11 48q20 61 74.5 100.5t119.5 39.5q86 0 157 -72q-16 -25 -26 -35z" />
    <glyph glyph-name="G" unicode="G" horiz-adv-x="462" 
d="M351 140q75 -61 75 -157q0 -85 -60.5 -145.5t-145.5 -60.5q-110 0 -170 93q-35 53 -35 95v42h90q2 -56 30 -94q32 -44 85 -44q47 0 80.5 33.5t33.5 80.5t-33.5 80.5t-80.5 33.5q-52 0 -94 -52l-65 65q21 22 32 31q-78 68 -78 161q0 84 60.5 144.5t144.5 60.5
q85 0 145.5 -60t60.5 -145q0 -46 -20 -91t-55 -71zM220 416q-46 0 -80 -34t-34 -80q0 -47 33.5 -80.5t80.5 -33.5t80.5 33.5t33.5 80.5t-33.5 80.5t-80.5 33.5z" />
    <glyph glyph-name="H" unicode="H" horiz-adv-x="465" 
d="M335 97v218q0 21 -21 50t-41 38q-29 13 -53 13q-15 0 -54 -14q-19 -7 -39.5 -36.5t-20.5 -49.5v-219h-91v730h93v-355q53 35 112 35q111 0 171 -91q35 -54 35 -96v-223h-91z" />
    <glyph glyph-name="I" unicode="I" horiz-adv-x="193" 
d="M101 704q-25 0 -43 18t-18 43q0 23 19 42.5t42 19.5t42 -19.5t19 -42.5q0 -27 -17 -44t-44 -17zM57 97v316h-42v94h133v-410h-91z" />
    <glyph glyph-name="J" unicode="J" horiz-adv-x="286" 
d="M199 704q-25 0 -43.5 18t-18.5 43q0 23 19.5 42.5t42.5 19.5t42 -19.5t19 -42.5q0 -25 -18 -43t-43 -18zM240 -59q-2 -6 -5 -20q-10 -55 -67.5 -99.5t-114.5 -44.5h-38v92q46 -1 90 26q49 30 49 74v443h-41v95h132v-542q0 -7 -5 -24z" />
    <glyph glyph-name="K" unicode="K" horiz-adv-x="445" 
d="M364 86l-175 228l-83 -42v-175h-91v730h91v-452l287 140q14 -22 41 -81q-62 -29 -159 -78l160 -215q-20 -16 -71 -55z" />
    <glyph glyph-name="L" unicode="L" horiz-adv-x="147" 
d="M15 97v730h91v-730h-91z" />
    <glyph glyph-name="M" unicode="M" horiz-adv-x="785" 
d="M654 97v218q0 20 -21 50t-40 38q-29 13 -53 13q-15 0 -54 -14q-20 -7 -40 -36t-20 -50v-219h-91v218q0 21 -21 50t-41 38q-29 13 -53 13q-15 0 -54 -14q-19 -7 -39.5 -36.5t-20.5 -49.5v-219h-91v410h93v-35q53 35 112 35q96 0 161 -78q39 45 63 55q56 23 96 23
q109 0 170 -92q35 -53 35 -95v-223h-91z" />
    <glyph glyph-name="N" unicode="N" horiz-adv-x="465" 
d="M335 97v218q0 21 -21 50t-41 38q-29 13 -53 13q-15 0 -54 -14q-19 -7 -39.5 -36.5t-20.5 -49.5v-219h-91v410h93v-35q53 35 112 35q111 0 171 -91q35 -54 35 -96v-223h-91z" />
    <glyph glyph-name="O" unicode="O" horiz-adv-x="463" 
d="M220 97q-85 0 -145 60t-60 145q0 84 60.5 144.5t144.5 60.5q85 0 145.5 -60t60.5 -145t-60.5 -145t-145.5 -60zM220 416q-46 0 -80 -34t-34 -80q0 -47 33.5 -80.5t80.5 -33.5t80.5 33.5t33.5 80.5t-33.5 80.5t-80.5 33.5z" />
    <glyph glyph-name="P" unicode="P" horiz-adv-x="460" 
d="M220 97q-59 0 -112 34v-354h-93v730h93v-35q52 35 112 35q85 0 145.5 -60t60.5 -145t-60.5 -145t-145.5 -60zM220 416q-46 0 -80 -34t-34 -80q0 -47 33.5 -80.5t80.5 -33.5t80.5 33.5t33.5 80.5t-33.5 80.5t-80.5 33.5z" />
    <glyph glyph-name="Q" unicode="Q" horiz-adv-x="466" 
d="M333 484l-1 23h94v-730h-93v354q-52 -34 -113 -34q-85 0 -145 60t-60 145q0 84 60.5 144.5t144.5 60.5q63 0 113 -23zM220 416q-46 0 -80 -34t-34 -80q0 -47 33.5 -80.5t80.5 -33.5t80.5 33.5t33.5 80.5t-33.5 80.5t-80.5 33.5z" />
    <glyph glyph-name="R" unicode="R" horiz-adv-x="366" 
d="M351 400l-36 -36q-42 52 -95 52q-15 0 -54 -14q-19 -7 -39.5 -36.5t-20.5 -49.5v-219h-91v410h93v-35q53 35 112 35q86 0 157 -72q-16 -25 -26 -35z" />
    <glyph glyph-name="S" unicode="S" horiz-adv-x="462" 
d="M220 97q-87 0 -158 75q17 24 61 69q46 -53 97 -53q73 0 104 67h-294l-14 19q-1 12 -1 24q0 86 59.5 147.5t145.5 61.5t157 -72q-17 -26 -62 -71q-42 52 -95 52q-72 0 -103 -68h294l14 -18q1 -12 1 -24q0 -87 -59.5 -148t-146.5 -61z" />
    <glyph glyph-name="T" unicode="T" horiz-adv-x="375" 
d="M220 97q-79 0 -142 57t-63 135v538h91v-319h139v-92h-139v-128q0 -13 17 -43q32 -57 97 -57q54 0 95 52l65 -65q-76 -78 -160 -78z" />
    <glyph glyph-name="U" unicode="U" horiz-adv-x="466" 
d="M333 97v34q-52 -34 -113 -34q-79 0 -142 57t-63 135v218h91v-219q0 -13 17 -43q32 -57 97 -57q20 0 55 13q19 7 39.5 37.5t20.5 50.5v218h91v-410h-93z" />
    <glyph glyph-name="V" unicode="V" horiz-adv-x="471" 
d="M255 97h-69q-32 69 -184 410h99l119 -266q3 5 120 266h100z" />
    <glyph glyph-name="W" unicode="W" horiz-adv-x="786" 
d="M734 237q-20 -61 -74.5 -100.5t-119.5 -39.5q-95 0 -159 76q-67 -76 -161 -76q-79 0 -142 57t-63 135v218h91v-219q0 -13 17 -43q32 -57 97 -57q20 0 55 13q19 7 39.5 37.5t20.5 50.5v218h91v-219q0 -12 17 -43q31 -57 97 -57q13 0 54 14q19 6 39.5 36.5t20.5 50.5v218
h91v-223q0 -14 -11 -47z" />
    <glyph glyph-name="X" unicode="X" horiz-adv-x="479" 
d="M282 300l170 -203h-114l-117 132l-119 -132h-113l170 203l-172 207h111l122 -136l123 136h111z" />
    <glyph glyph-name="Y" unicode="Y" horiz-adv-x="466" 
d="M415 -83q-20 -62 -75 -101t-120 -39q-110 0 -170 93q-35 53 -35 95v42h90q2 -56 30 -94q32 -44 85 -44q39 0 73 27q41 33 41 78l-1 157q-52 -34 -113 -34q-79 0 -142 57t-63 135v218h91v-219q0 -13 17 -43q32 -57 97 -57q20 0 55 13q19 7 39.5 37.5t20.5 50.5v218h91
v-542q0 -14 -11 -48z" />
    <glyph glyph-name="Z" unicode="Z" horiz-adv-x="475" 
d="M-14 97l270 318h-241v92h438l-270 -318h243v-92h-440z" />
    <glyph glyph-name="bracketleft" unicode="[" horiz-adv-x="189" 
d="M203 -198h-203v1000h203v-41h-161v-917h161v-42z" />
    <glyph glyph-name="backslash" unicode="\" horiz-adv-x="240" 
d="M258 -199h-41l-200 999h41z" />
    <glyph glyph-name="bracketright" unicode="]" horiz-adv-x="244" 
d="M0 -198h203v1000h-203v-41h162v-917h-162v-42z" />
    <glyph glyph-name="asciicircum" unicode="^" horiz-adv-x="235" 
d="M251 608q-25 57 -78 183h-30l-76 -183h33q30 76 59 146l59 -146h33z" />
    <glyph glyph-name="underscore" unicode="_" horiz-adv-x="377" 
d="M372 118h-363v45h363v-45z" />
    <glyph glyph-name="grave" unicode="`" horiz-adv-x="131" 
d="M0 490q6 -22 21 -55q17 -39 35 -81h36l-20 136h-72z" />
    <glyph glyph-name="a" unicode="a" 
d="M361 122h-43v64q-57 -64 -138 -64q-74 0 -127 53t-53 127t53 127t127 53q84 0 138 -64q2 2 0 64h43v-360zM319 302q0 58 -40.5 98.5t-98.5 40.5q-57 0 -98 -41t-41 -98t41 -98t98 -41t98 41t41 98z" />
    <glyph glyph-name="b" unicode="b" horiz-adv-x="393" 
d="M361 302q0 -74 -53 -127t-128 -53q-83 0 -138 64q-1 -2 1 -64h-43v680h43v-384q57 64 137 64q75 0 128 -53t53 -127zM319 302q0 58 -40.5 98.5t-98.5 40.5q-57 0 -98 -41t-41 -98t41 -98t98 -41t98 41t41 98z" />
    <glyph glyph-name="c" unicode="c" horiz-adv-x="326" 
d="M305 174q-51 -52 -125 -52t-127 53t-53 127t53 127t127 53q75 0 125 -50q-5 -7 -28 -30q-13 15 -44 27t-53 12q-57 0 -98 -41t-41 -98t41 -98t98 -41q22 0 53 12t44 27z" />
    <glyph glyph-name="d" unicode="d" 
d="M361 122h-43v64q-57 -64 -138 -64q-74 0 -127 53t-53 127t53 127t127 53q84 0 138 -64v384h43v-680zM319 302q0 58 -40.5 98.5t-98.5 40.5q-57 0 -98 -41t-41 -98t41 -98t98 -41t98 41t41 98z" />
    <glyph glyph-name="e" unicode="e" horiz-adv-x="391" 
d="M361 282h-316q-1 1 -1 -4q0 -2 7.5 -22t9.5 -23q49 -70 119 -70q22 0 53 12t44 27l28 -28q-51 -52 -125 -52t-127 53t-53 127t53 127t127 53q96 0 150 -80q31 -47 31 -82v-38zM317 323q-9 51 -47.5 84.5t-89.5 33.5t-89 -33.5t-47 -84.5h273z" />
    <glyph glyph-name="f" unicode="f" horiz-adv-x="306" 
d="M305 432q-5 -7 -28 -30q-13 15 -44 27t-53 12q-48 0 -93 -38.5t-45 -86.5v-152h138v-42h-138v-320h-42v517q0 9 10 40q18 54 65.5 88.5t104.5 34.5q75 0 125 -50z" />
    <glyph glyph-name="g" unicode="g" horiz-adv-x="396" 
d="M361 -17q0 -75 -53 -128t-128 -53q-96 0 -150 83q-30 46 -30 80v17h41q2 -58 41.5 -98t97.5 -40t98.5 40.5t40.5 98.5q0 57 -41 98t-98 41q-22 0 -53 -12t-43 -28l-28 28q12 10 37 31q-93 68 -93 161q0 74 53 127t127 53q75 0 128 -53t53 -127q0 -104 -94 -159q0 -2 6 -7
q88 -52 88 -153zM319 302q0 58 -40.5 98.5t-98.5 40.5q-57 0 -98 -41t-41 -98t41 -98t98 -41t98 41t41 98z" />
    <glyph glyph-name="h" unicode="h" horiz-adv-x="400" 
d="M361 122h-41v193q0 28 -25.5 63.5t-51.5 47.5q-33 15 -63 15q-22 0 -62 -15q-27 -10 -52 -46t-25 -64v-194h-41v680h43v-384q57 64 137 64q96 0 150 -80q31 -47 31 -82v-198z" />
    <glyph glyph-name="i" unicode="i" horiz-adv-x="130" 
d="M97 765q0 -36 -36 -36q-14 0 -25 11t-11 25q0 12 12 24.5t24 12.5q13 0 24.5 -12t11.5 -25zM83 122h-41v318q-19 2 -42 0v42h83v-360z" />
    <glyph glyph-name="j" unicode="j" horiz-adv-x="221" 
d="M195 765q0 -14 -11 -25t-25 -11q-15 0 -26 10.5t-11 25.5q0 13 12 25t25 12t24.5 -12t11.5 -25zM180 -35q0 7 -9 -39t-60.5 -85t-97.5 -39h-13v41q49 -1 94 38.5t45 87.5v471q-21 2 -41 0v42h82v-517z" />
    <glyph glyph-name="k" unicode="k" horiz-adv-x="389" 
d="M361 145q-11 -7 -32 -23l-173 224l-115 -58v-166h-41v680h41v-467q102 50 303 147q1 -1 17 -36q-30 -14 -164 -81z" />
    <glyph glyph-name="l" unicode="l" horiz-adv-x="82" 
d="M41 122h-41v680h41v-680z" />
    <glyph glyph-name="m" unicode="m" horiz-adv-x="720" 
d="M680 122h-41v193q0 27 -25.5 63.5t-50.5 47.5q-34 15 -63 15q-23 0 -63 -15q-26 -10 -51 -46t-25 -64v-194h-41v193q0 28 -25.5 63.5t-51.5 47.5q-33 15 -63 15q-22 0 -62 -15q-27 -10 -52 -46t-25 -64v-194h-41v360h43v-64q57 64 137 64q101 0 159 -93q17 20 35 40
q24 26 39 32q51 21 87 21q97 0 150 -80q30 -47 30 -82v-198z" />
    <glyph glyph-name="n" unicode="n" horiz-adv-x="400" 
d="M361 122h-41v193q0 28 -25.5 63.5t-51.5 47.5q-33 15 -63 15q-22 0 -62 -15q-27 -10 -52 -46t-25 -64v-194h-41v360h43v-64q57 64 137 64q96 0 150 -80q31 -47 31 -82v-198z" />
    <glyph glyph-name="o" unicode="o" horiz-adv-x="398" 
d="M361 302q0 -74 -53 -127t-128 -53q-74 0 -127 53t-53 127t53 127t127 53q75 0 128 -53t53 -127zM319 302q0 58 -40.5 98.5t-98.5 40.5q-57 0 -98 -41t-41 -98t41 -98t98 -41t98 41t41 98z" />
    <glyph glyph-name="p" unicode="p" horiz-adv-x="393" 
d="M361 302q0 -74 -53 -127t-128 -53q-82 0 -137 64v-384h-43v680h43v-64q59 64 137 64q75 0 128 -53t53 -127zM319 302q0 58 -40.5 98.5t-98.5 40.5q-57 0 -98 -41t-41 -98t41 -98t98 -41t98 41t41 98z" />
    <glyph glyph-name="q" unicode="q" 
d="M361 -198h-43v384q-57 -64 -138 -64q-74 0 -127 53t-53 127t53 127t127 53q84 0 138 -64q2 2 0 64h43v-680zM319 302q0 58 -40.5 98.5t-98.5 40.5q-57 0 -98 -41t-41 -98t41 -98t98 -41t98 41t41 98z" />
    <glyph glyph-name="r" unicode="r" horiz-adv-x="306" 
d="M305 432q-5 -7 -28 -30q-13 15 -44 27t-53 12t-62 -15q-27 -10 -52 -46t-25 -64v-194h-41v360h43v-64q57 64 137 64q75 0 125 -50z" />
    <glyph glyph-name="s" unicode="s" horiz-adv-x="386" 
d="M361 320q8 -80 -46.5 -139t-134.5 -59q-32 0 -68 14.5t-58 37.5q4 7 28 30q15 -17 44.5 -29t53.5 -12q52 0 90 33t48 84h-315l-3 4q-8 80 46 139t134 59q75 0 125 -50q-5 -7 -28 -30q-13 15 -44 27t-53 12q-52 0 -89.5 -33.5t-47.5 -84.5z" />
    <glyph glyph-name="t" unicode="t" horiz-adv-x="301" 
d="M305 174q-51 -52 -125 -52q-68 0 -124 50t-56 117v513h41v-319h139v-42h-139v-153q0 -29 25 -62t52 -48t62 -15q22 0 53 12t44 27z" />
    <glyph glyph-name="u" unicode="u" 
d="M361 122h-43v64q-57 -64 -138 -64q-68 0 -124 50t-56 117v193h41v-194q0 -29 25 -62t52 -48t62 -15q23 0 63 15q26 10 51.5 46.5t25.5 64.5v193h41v-360z" />
    <glyph glyph-name="v" unicode="v" horiz-adv-x="397" 
d="M361 482l-162 -360h-37q-25 55 -162 360h45l134 -300q19 38 137 300h45z" />
    <glyph glyph-name="w" unicode="w" horiz-adv-x="721" 
d="M680 284q0 -8 -10 -39q-18 -54 -65.5 -88.5t-104.5 -34.5q-101 0 -159 93q-63 -93 -161 -93q-68 0 -124 50t-56 117v193h41v-194q0 -29 25 -62t52 -48t62 -15q23 0 63 15q26 10 51.5 46.5t25.5 64.5v193h41v-194q0 -29 24 -62t52 -48t63 -15q22 0 63 15q26 9 51 46t25 65
v193h41v-198z" />
    <glyph glyph-name="x" unicode="x" horiz-adv-x="395" 
d="M361 482l-152 -182l150 -178h-49l-129 145l-130 -145h-49l149 178l-151 182h47l132 -149l135 149h47z" />
    <glyph glyph-name="y" unicode="y" 
d="M361 -35q0 -9 -10 -40q-17 -54 -65.5 -88.5t-105.5 -34.5q-96 0 -150 83q-30 46 -30 80v17h41q2 -58 41.5 -98t97.5 -40q48 0 89 33q50 41 50 96l-1 213q-57 -64 -138 -64q-68 0 -124 50t-56 117v193h41v-194q0 -29 25 -62t52 -48t62 -15q23 0 63 15q26 10 51.5 46.5
t25.5 64.5v193h41v-517z" />
    <glyph glyph-name="z" unicode="z" horiz-adv-x="390" 
d="M361 122h-361l270 318h-270v42h359l-270 -318h272v-42z" />
    <glyph glyph-name="braceleft" unicode="{" horiz-adv-x="319" 
d="M342 761q-22 2 -42 -10q-70 -43 -106 -191q-5 -47 -17 -139q-11 -71 -90 -118q20 -18 40.5 -35.5t34.5 -45t16 -45.5q3 -33 9 -98q18 -150 109 -225q6 -5 22.5 -9t23.5 -2v-41h-19q-38 0 -80 42q-34 35 -54 77q-44 93 -53 247q-2 43 -47.5 79.5t-88.5 34.5v40
q93 7 126 81q8 19 13 61l7 65q9 73 43 154q17 40 54 77q43 42 80 42h19v-41z" />
    <glyph glyph-name="bar" unicode="|" horiz-adv-x="82" 
d="M41 -198h-41v1000h41v-1000z" />
    <glyph glyph-name="braceright" unicode="}" horiz-adv-x="364" 
d="M0 761q22 2 42 -10q71 -43 106 -191q5 -47 18 -139q12 -72 89 -118q-20 -18 -40.5 -35.5t-35.5 -46.5q-12 -23 -14 -44q-3 -33 -10 -98q-18 -150 -109 -225q-6 -5 -22.5 -9t-23.5 -2v-41h19q38 0 80 42q34 35 54 77q43 91 53 247q3 42 48 79t88 35v40q-93 7 -126 81
q-9 21 -13 62l-6 64q-9 72 -44 154q-17 40 -54 77q-43 42 -80 42h-19v-41z" />
    <glyph glyph-name="Aring" unicode="&#xc5;" horiz-adv-x="466" 
d="M220 537q-47 0 -83.5 37t-36.5 84t36.5 83.5t83.5 36.5t84 -36.5t37 -83.5t-37 -84t-84 -37zM333 487l-1 28h94v-410h-93v34q-52 -34 -113 -34q-84 0 -144.5 60.5t-60.5 144.5q0 85 60 145.5t145 60.5q70 0 113 -29zM220 687q-10 0 -19 -9.5t-9 -19.5t9 -19.5t19 -9.5
q11 0 20 9t9 20q0 10 -9.5 19.5t-19.5 9.5zM220 424q-47 0 -80.5 -33.5t-33.5 -80.5q0 -46 34 -80t80 -34q47 0 80.5 33.5t33.5 80.5t-33.5 80.5t-80.5 33.5z" />
    <glyph glyph-name="AE" unicode="&#xc6;" horiz-adv-x="782" 
d="M333 484l-1 23h95v-34q52 34 113 34q109 0 170 -92q35 -53 35 -95v-63h-305q4 -9 14 -27t33 -29q28 -13 53 -13q53 0 94 52l65 -65q-75 -78 -159 -78q-64 0 -113 24l1 -24h-95v34q-52 -34 -113 -34q-85 0 -145 60t-60 145q0 84 60.5 144.5t144.5 60.5q63 0 113 -23z
M540 416q-32 0 -60.5 -19t-42.5 -49h206q-14 30 -42.5 49t-60.5 19zM220 416q-46 0 -80 -34t-34 -80q0 -47 33.5 -80.5t80.5 -33.5t80.5 33.5t33.5 80.5t-33.5 80.5t-80.5 33.5z" />
    <glyph glyph-name="Oslash" unicode="&#xd8;" horiz-adv-x="468" 
d="M125 129q-2 -3 -20 -24h-120q20 23 71 83q-41 57 -41 122q0 85 60 145.5t145 60.5q49 0 94 -24q8 9 20 23h120q-28 -32 -70 -82q42 -55 42 -123q0 -85 -60.5 -145t-145.5 -60q-50 0 -95 24zM322 359l-133 -156q21 -7 31 -7q47 0 80.5 33.5t33.5 80.5q0 22 -12 49z
M220 424q-47 0 -80.5 -33.5t-33.5 -80.5q0 -20 12 -48l133 157q-19 5 -31 5z" />
    <glyph glyph-name="Ugrave" unicode="&#xd9;" horiz-adv-x="200" 
 />
    <glyph glyph-name="aring" unicode="&#xe5;" 
d="M276 628q0 -37 -29.5 -66.5t-66.5 -29.5t-66 29.5t-29 66.5q0 36 29.5 65.5t65.5 29.5q37 0 66.5 -29t29.5 -66zM361 130h-43v64q-57 -64 -138 -64q-74 0 -127 53t-53 127t53 127.5t127 53.5q76 0 138 -65q2 2 0 64h43v-360zM234 628q0 21 -16.5 37.5t-37.5 16.5
t-37 -16.5t-16 -37.5q0 -20 16.5 -37t36.5 -17q21 0 37.5 16.5t16.5 37.5zM319 310q0 58 -40.5 98.5t-98.5 40.5q-57 0 -98 -41t-41 -98t41 -98t98 -41t98 41t41 98z" />
    <glyph glyph-name="ae" unicode="&#xe6;" horiz-adv-x="711" 
d="M680 282h-315q-2 1 -2 -4q0 -3 8 -23t10 -22q49 -70 119 -70q21 0 52.5 12t43.5 27l28 -28q-51 -52 -124 -52q-83 0 -138 64q-1 -1 -1 -17t1 -47h-44v64q-57 -64 -138 -64q-74 0 -127 53t-53 127t53 127t127 53q84 0 138 -64q2 2 0 64h44v-64q58 64 138 64q97 0 150 -80
q30 -47 30 -82v-38zM637 323q-10 51 -48 84.5t-89 33.5q-50 0 -89 -34t-48 -84h274zM319 302q0 58 -40.5 98.5t-98.5 40.5q-57 0 -98 -41t-41 -98t41 -98t98 -41t98 41t41 98z" />
    <glyph glyph-name="oslash" unicode="&#xf8;" horiz-adv-x="399" 
d="M361 310q0 -74 -53 -127t-128 -53q-61 0 -98 31q-8 -6 -29 -31h-53l48 57q-48 59 -48 123q0 74 53 127.5t127 53.5q58 0 99 -31q9 10 26 30h54q-16 -19 -48 -56q50 -58 50 -124zM319 310q0 53 -34 92l-177 -209q34 -22 72 -22q57 0 98 41t41 98zM251 428q-28 21 -71 21
q-57 0 -98 -41t-41 -98q0 -20 10.5 -48.5t24.5 -40.5z" />
    <glyph glyph-name="glyph102" horiz-adv-x="200" 
 />
    <glyph glyph-name="glyph103" horiz-adv-x="200" 
 />
    <glyph glyph-name="glyph95" horiz-adv-x="200" 
 />
  </font>
</defs>
</svg>
