<?xml version="1.0" standalone="no"?>
<!DOCTYPE svg PUBLIC "-//W3C//DTD SVG 1.1//EN" "http://www.w3.org/Graphics/SVG/1.1/DTD/svg11.dtd" >
<svg xmlns="http://www.w3.org/2000/svg" xmlns:xlink="http://www.w3.org/1999/xlink" version="1.1">
<metadata></metadata>
<defs>
<font id="embossedgermanicaregular" horiz-adv-x="1136" >
<font-face units-per-em="2048" ascent="1638" descent="-410" />
<missing-glyph horiz-adv-x="1140" />
<glyph horiz-adv-x="0" />
<glyph horiz-adv-x="682" />
<glyph unicode=" "  horiz-adv-x="1140" />
<glyph unicode="&#x09;" horiz-adv-x="1140" />
<glyph unicode="&#xa0;" horiz-adv-x="1140" />
<glyph unicode="!" horiz-adv-x="690" d="M369 1694q-53 0 -112.5 -20.5t-110 -57.5t-83 -88t-32.5 -115v-795q0 -88 49 -154.5t119 -115.5h37l34 35q27 27 65 53.5t72.5 51t59.5 45t25 34.5v17q-23 0 -43.5 -16.5t-42.5 -16.5q-23 0 -41.5 24.5t-32 56.5t-21.5 63.5t-10 45.5v498q0 63 -1 134t6 131.5t28.5 100.5 t64.5 40q12 0 7 -12.5t-14 -31t-19.5 -40t-10.5 -41.5q0 -49 29 -78t80 -29q57 0 82 31t25 82q0 78 -65.5 123t-143.5 45zM123 618q0 20 -1 72.5t-2 109t-2 107.5t-1 70v348q2 25 12 55.5t23.5 58t29 47t27.5 19.5h10v-850q0 -33 15.5 -69.5t15.5 -59.5q0 -10 -11.5 -17 t-19.5 -7q-16 0 -31.5 15t-29 34.5t-22.5 39t-13 27.5zM72 158q0 -61 36.5 -97t96.5 -36q57 0 90 43t33 96q0 57 -31 95t-92 38q-70 0 -101.5 -39t-31.5 -100zM383 659v498q0 53 -2 111.5t2 113.5q-20 12 -31 23v-655q0 -8 3 -29t9.5 -42.5t13.5 -41t15 -29.5q-4 16 -6 29.5 t-4 21.5zM340 289l12 12q27 27 65 53.5t72.5 51t59 45t24.5 34.5v17q-23 0 -43 -16.5t-43 -16.5q-16 0 -39.5 -13.5t-49 -31.5t-50 -40t-41.5 -38l-16 -16q16 -8 27.5 -18.5t21.5 -22.5zM287 -57q57 0 90 43t33 96q0 61 -31 94v-12q0 -74 -47 -132.5t-127 -58.5h-8 q18 0 40.5 -15t49.5 -15zM401 1522q0 31 17.5 51t44.5 20q31 0 46 -20.5t15 -50.5q0 -27 -15 -46.5t-46 -19.5q-27 0 -44.5 19.5t-17.5 46.5zM137 168q0 31 17.5 51.5t44.5 20.5q31 0 46 -20.5t15 -51.5q0 -27 -15.5 -46.5t-45.5 -19.5q-27 0 -44.5 19.5t-17.5 46.5z M553 1331q57 0 81.5 31t24.5 82t-30 90v-8q0 -84 -38 -124t-120 -40q29 -31 82 -31zM188 168q0 -14 11 -14q10 0 10 14q0 23 -10.5 19.5t-10.5 -19.5zM461 1507h2q10 0 10 15v2q-10 -11 -12 -17z" />
<glyph unicode="&#x22;" horiz-adv-x="655" d="M236 1724h-205v-41q0 -18 4 -47.5t8 -58.5t8 -49.5t4 -22.5l11 -6l14 -2t33.5 -3t41 -3t33.5 -2h7q8 0 15 30.5t13 70.5t9.5 79t3.5 55zM543 1729h-205v-41q0 -18 4 -48t8 -59t8 -49.5t4 -22.5l11 -6l14 -2q14 -2 33.5 -3t41 -3t34.5 -2h6q8 0 15 30.5t13.5 70.5 t9.5 79.5t3 55.5zM444 1427l11 -6l14 -2q14 -2 33.5 -3t41 -3t34.5 -2h6q8 0 15 31t13 70.5t9.5 78.5t3.5 56h-47l-13 -62q6 -2 7 -9t1 -11q-2 -14 -10 -35t-18 -40.5t-21.5 -33.5t-21.5 -14h-60v-8zM137 1423l10 -6l15 -2q14 -2 33.5 -3t41 -3t33.5 -2h6q8 0 16.5 37 t14.5 84v4q-4 23 -8 51.5t-8 58.5h-21l-12 -61q6 -2 7 -9t1 -11q-2 -14 -10 -35t-18.5 -40.5t-21.5 -33.5t-21 -14h-60q0 -6 1 -8zM393 1653q0 14 10 14h78q8 0 9.5 -8t1.5 -12q0 -6 -3.5 -19.5t-9.5 -29t-14 -26.5t-21 -11q-31 0 -41 34.5t-10 57.5zM86 1649q0 14 10 14h78 q8 0 9 -8t1 -13q0 -6 -3 -19t-9 -28.5t-14 -27t-21 -11.5q-31 0 -41 35t-10 58z" />
<glyph unicode="'" horiz-adv-x="348" d="M236 1724h-205v-41q0 -18 4 -47.5t8 -58.5t8 -49.5t4 -22.5l11 -6l14 -2t33.5 -3t41 -3t33.5 -2h7q8 0 15 30.5t13 70.5t9.5 79t3.5 55zM137 1423l10 -6l15 -2q14 -2 33.5 -3t41 -3t33.5 -2h6q8 0 15.5 30.5t13.5 70.5t9 79t3 55h-47l-12 -61q6 -2 7 -9t1 -11 q-2 -14 -10 -35t-18.5 -40.5t-21.5 -33.5t-21 -14h-60q0 -6 1 -8zM86 1649q0 14 10 14h78q8 0 9 -8t1 -13q0 -6 -3 -19t-9 -28.5t-14 -27t-21 -11.5q-31 0 -41 35t-10 58z" />
<glyph unicode="," horiz-adv-x="399" d="M66 -72q2 -25 24.5 -53.5t46.5 -28.5h21q66 57 97.5 140.5t31.5 171.5q0 61 -32 102t-97 41q-66 0 -96.5 -38t-30.5 -99q0 -37 12 -58.5t25.5 -36t25.5 -25.5t12 -30v-14q0 -8 -18 -38t-22 -34zM133 -78v6q0 18 15.5 36t15.5 40q0 33 -21.5 75t-37 76.5t-9.5 59.5t62 25 q47 0 61 -50.5t7 -112t-30.5 -112.5t-52.5 -53h-6l-2 3t-2 7zM219 -236h21q66 57 97.5 140.5t31.5 171.5q0 63 -31 100v-18q0 -31 -10.5 -86.5t-26.5 -108.5t-35.5 -93t-40.5 -40h-6q-10 -2 -22.5 -14.5l-20.5 -20.5h-6q10 0 23.5 -15.5t25.5 -15.5zM174 125q0 20 -3 41.5 t-13 21.5t-11 -14q0 -20 19 -41v2q2 -2 4 -5t4 -5z" />
<glyph unicode="-" d="M1024 860h-829q-14 0 -22.5 -14.5t-13.5 -33.5t-8.5 -36.5t-7.5 -23.5q-20 -31 -65 -68t-47 -70h833q27 27 36 60t36 67q12 20 50 52t38 67zM236 700l-11 7q4 4 23.5 34.5t27.5 36.5h553q0 -20 -15 -49t-32 -29h-546zM1106 778h-66q-14 -18 -41 -43h2q-27 -27 -38 -47 t-18 -39.5t-19.5 -40t-40.5 -45.5h-762q-10 -16 -10 -31h833q27 27 36 60t36 67q12 20 50 52t38 67z" />
<glyph unicode="." horiz-adv-x="399" d="M31 158q0 -61 35.5 -97t97.5 -36q57 0 90 43t33 96q0 57 -34 95t-95 38q-66 0 -96.5 -39t-30.5 -100zM246 -57q57 0 90 43t33 96t-31 90v-8q0 -74 -47 -132.5t-127 -58.5h-10q18 0 40.5 -15t51.5 -15zM96 168q0 29 15.5 48.5t46.5 19.5q29 0 43 -19.5t14 -48.5 q0 -27 -14.5 -46.5t-42.5 -19.5q-31 0 -46.5 19.5t-15.5 46.5zM147 168q0 -14 11 -14q6 0 6 14q0 16 -6 16q-11 0 -11 -16z" />
<glyph unicode="0" horiz-adv-x="1064" d="M31 823q0 -59 10 -143t32.5 -175t57.5 -181.5t85 -162t115.5 -116.5t149.5 -45q104 0 186.5 64.5t140.5 159.5t92 204t46 197q0 4 1 28.5t2 55t2 61.5t1 49v96q0 82 -12 179.5t-40 194.5t-75 183.5t-118 145.5q-45 37 -90.5 61.5t-110.5 24.5q-113 0 -195 -68.5 t-137 -170t-87 -214t-46 -202.5q-8 -47 -9 -113t-1 -113zM348 215q-2 29 -4 102.5t-3 156.5t-2 158t-1 105v742q0 61 39 120.5t104 59.5q68 0 100.5 -44t36.5 -110q20 -268 20.5 -533t0.5 -532v-16q0 -20 -2 -57t-3 -74t-3 -65.5t-2 -32.5q-4 -51 -34 -105.5t-93 -54.5 q-74 -2 -109 56t-45 124zM711 1397q14 0 31.5 -30t33 -68.5t27.5 -73.5t16 -47q23 -96 32 -168t9 -170v-129q-18 -74 -32.5 -133.5t-34.5 -126.5q-20 -29 -32.5 -70t-29.5 -39q-2 37 -3 115t-2 175t-3 204.5t-3 205t-2 175t-1 114.5q0 8 -3 33t-3 33zM123 860v107 q0 31 14.5 87t32.5 112.5t36.5 102.5t29.5 56h10q0 -133 2 -276.5t3 -276.5t3 -245.5t2 -184.5h-10q-66 123 -94.5 252t-28.5 266zM563 -82q104 0 186 64.5t140.5 160t92.5 204t46 196.5q0 4 1 28.5t2 55t2 61.5t1 49v97q0 33 -1 95t-9 130.5t-24.5 131t-47.5 93.5 q23 -23 34 -75t15.5 -109.5t3.5 -109.5t-1 -75v-96q0 -25 -1.5 -73t-3.5 -82q0 -16 -1 -28.5t-1 -17.5q-10 -72 -33.5 -157.5t-63.5 -169.5t-95 -158t-125 -121q-16 -25 -39 -42t-57 -17q-10 0 -17.5 1t-15.5 3q-31 -8 -70 -8q-41 0 -38 -5t24.5 -10.5t51.5 -10.5t44 -5z M399 219q4 -25 11.5 -49.5t19.5 -40.5v4q-2 29 -4 102.5t-3 156.5t-2 158t-1 105v742q0 57 32.5 112.5t92.5 65.5q-25 31 -52.5 30t-50 -20.5t-38 -49.5t-15.5 -56v-742q0 -31 1 -104.5t2 -156.5t3 -155.5t4 -101.5zM801 1006q-4 37 -12.5 74.5t-18.5 84.5v-4l-2 2 q16 -16 19.5 -96t1 -175t-7.5 -183t-5 -121q10 35 19 74l-2 -3q12 12 15 58.5t2 100.5t-5 107.5t-4 80.5zM174 967v-107q0 -141 27 -256v88q-2 86 -3 178.5t-3 186.5q-4 -18 -5.5 -23.5t-5.5 -21.5v2q-6 -25 -11 -48l-5 -22z" />
<glyph unicode="1" horiz-adv-x="675" d="M96 10q43 -8 68.5 -9t64.5 -1q86 0 166 2t168 12v21l-78 16l-14 15q-4 88 -7 208.5t-4 259t-2 288t-1 292.5v188.5t-2 172.5q0 12 -1 38.5t-2 55t-3.5 55.5t-4.5 39h-4q-6 0 -21.5 -17.5t-30.5 -40t-29.5 -43t-20.5 -26.5q-61 -76 -131 -133t-135 -123l-41 -41v-27l92 68 h10q35 0 35 -48v-91q0 -51 1 -122t2 -143.5t2 -142t1 -121.5v-80v-471q-4 -10 -17.5 -15t-26.5 -9t-23.5 -9.5t-10.5 -17.5zM260 629v651l102 102l7 -10q31 -51 43 -142t13 -204t-6 -237.5t-16.5 -241.5t-16.5 -215.5t-7 -157.5v-72l-10 -10h-93l-10 10l-1 60q-1 61 -2 145 t-2 173.5t-1 148.5zM537 1393q0 12 -1 38.5t-2.5 55.5t-3.5 55.5t-4 38.5h-4q-10 0 -14 -40t-4 -92t2 -104.5t2 -74.5v-221q0 -133 1 -267.5t2 -259.5t3 -234.5t6 -193.5l29 -6q-4 96 -5 213t-3 246t-2 262v262v169t-2 153zM178 -72q43 -8 68.5 -9t64.5 -1q86 0 166 2 t168 12v21l-57 12q-104 -10 -188.5 -13t-170.5 -3h-34q-8 0 -12.5 -8.5t-4.5 -12.5zM317 1264l-6 -7v-628v-94v-84q0 -45 1 -115t3 -193h13v31q0 150 -2 298.5t-4 299.5q-2 123 -3.5 245t-1.5 247zM113 1157v-27l4 3v28z" />
<glyph unicode="2" horiz-adv-x="1069" d="M219 240q59 0 97 -37t77 -83t89 -83t132 -37q104 0 170 44t105 112.5t53 155.5t14 173h-20q-2 -25 -5 -59.5t-14.5 -67t-33 -55t-60.5 -22.5q-51 0 -96 24.5t-89 55t-89 55t-98 24.5h-43q-27 -2 -48.5 -7t-58.5 -23q-16 -8 -35.5 -24.5t-40 -34t-38 -31t-29.5 -13.5 q-10 0 -11 15q0 43 31 87t72 81.5t81 66.5t58 41q8 6 44 24.5t76 40t74.5 40t45.5 24.5q139 78 228 202t89 290q0 111 -40 195.5t-109.5 141t-160.5 85t-196 28.5h-88q-4 0 -15 -5t-15 -5q-59 -25 -111.5 -56.5t-92.5 -73.5t-63.5 -95.5t-23.5 -122.5q0 -113 61.5 -177.5 t173.5 -64.5q63 0 105.5 54.5t42.5 109.5q0 61 -38 107t-100 46q-61 0 -92.5 -28.5t-46 -63t-18.5 -64.5t-13 -32q-31 23 -41 48.5t-10 64.5q0 70 29 125t76 93t107.5 58.5t125.5 20.5h58q10 -20 29.5 -27.5t35.5 -24.5q74 -57 88 -140t14 -167q0 -100 -28.5 -181 t-74.5 -152.5t-106.5 -139t-121.5 -141.5q-102 -121 -168 -280.5t-68 -319.5q12 0 20.5 31.5t24 70.5t44 71t79.5 32zM471 516q8 6 44 24.5t76 40t74.5 40t45.5 24.5q139 78 228 202t89 290q0 57 -11 106t-32 92q12 -55 12 -116q0 -182 -97 -317.5t-247 -219.5l4 2 q-2 -4 -38.5 -22.5t-80.5 -42t-80 -43t-40 -21.5q-18 -12 -51 -34.5t-64 -53.5q43 20 86 20t82 29zM666 895l-11 10q16 35 34 86t18 94v318q0 8 -5.5 30.5t-5.5 30.5l11 4q12 4 35.5 -24.5t48 -71.5t42 -90t17.5 -80q0 -43 -18.5 -87t-46 -85t-60 -75.5t-59.5 -59.5z M379 307v10l21 9q22 8 40 16h4q18 0 41 -11.5t44.5 -27.5t41 -32.5t33.5 -24.5q35 -23 73 -36t81 -22v-4q0 -12 -16.5 -26.5t-39 -26.5t-44 -20.5t-33.5 -8.5q-37 0 -71 24t-64.5 56.5t-58 67t-52.5 57.5zM696 -82q104 0 170 44t105 112.5t53 155.5t14 173h-20 q-4 -39 -11.5 -95t-43.5 -89q-39 -113 -120 -191.5t-229 -78.5q-37 0 -34.5 -5t22 -10.5t48 -10.5t46.5 -5zM348 987q49 2 83 31t49.5 68.5t12 85t-29.5 77.5q0 -39 -12.5 -80t-37 -74.5t-61.5 -55t-86 -21.5h-28q-18 0 -10 -5t29.5 -10.5t48 -10.5t42.5 -5zM219 188 q-31 0 -48 -28.5t-25.5 -66.5t-10.5 -78t-2 -62q10 0 18.5 30.5t23.5 67.5t42 70t74 37q-37 30 -72 30zM170 1411q25 14 55 21q47 45 111.5 68.5t134.5 25.5q-10 10 -23.5 13t-21.5 17h-33q-10 0 -20.5 -1t-20.5 -3q-55 -29 -102 -62.5t-80 -78.5zM788 1145v121 q-10 35 -30 71v-258q20 35 30 66zM219 1198q0 23 13.5 37t31 20.5t30.5 1t13 -23.5t-25.5 -36.5t-41.5 -18.5q-21 0 -21 20zM496 248l12 6q-10 10 -24.5 16t-8.5 4q4 -6 10.5 -13t10.5 -13zM256 1227v-6l10 -7q-4 2 -4 6.5t-6 6.5z" />
<glyph unicode="3" horiz-adv-x="1095" d="M31 348q0 -88 37.5 -153.5t99 -108.5t138.5 -64.5t155 -21.5q104 0 199.5 37t167 103.5t113.5 157.5t42 198q0 176 -85 284.5t-239 182.5l-10 10q2 -2 10.5 6t10.5 8q57 35 103 66.5t78 68.5t48 82t16 107q0 182 -153 270q-33 18 -76 39.5t-88 21.5h-209 q-55 0 -113.5 -30.5t-106.5 -78.5t-78 -105.5t-30 -112.5q0 -94 60.5 -155.5t154.5 -63.5q70 0 117 47t47 117q0 57 -26.5 102t-96.5 45q-66 0 -99.5 -27.5t-50.5 -59.5t-23.5 -59.5t-16.5 -27.5q-12 0 -18.5 11t-10.5 25.5t-5 29t-1 22.5q0 63 31 113.5t80 85t107.5 53 t113.5 18.5h57q51 -20 80 -56t44.5 -80t19.5 -93t4 -98q0 -127 -55.5 -189.5t-122 -95.5t-121 -51.5t-54.5 -57.5q0 -8 4.5 -17t16.5 -9q25 0 46.5 12t43 26.5t43 27t45.5 12.5q70 0 106.5 -51.5t51 -122t15.5 -142t1 -114.5q0 -78 -6 -155t-31.5 -138.5t-78 -99.5 t-144.5 -38q-57 0 -116.5 20.5t-107.5 58.5t-79 90.5t-31 117.5q0 8 1 25.5t4 35t10.5 30t21.5 12.5q8 0 16.5 -24t26 -53.5t48 -53t83.5 -23.5q61 0 104.5 39t43.5 104q0 72 -43 118t-121 46q-51 0 -92 -22.5t-69 -58.5t-43 -82t-15 -93zM737 502q0 72 -5 141.5t-5 138.5 h10l41 -41q43 -43 78 -111.5t35 -127.5q0 -23 -14.5 -70t-37 -94t-52 -83t-60.5 -36q0 70 5 141.5t5 141.5zM543 -82q104 0 199.5 37t167 103.5t113.5 157.5t42 198q0 125 -45 217q14 -55 14 -135q0 -119 -46 -219.5t-125 -173t-183.5 -113.5t-218.5 -41h-29.5t-42 1t-42 4 t-28.5 11q16 -14 45 -24.5t61 -14.5t63.5 -6t54.5 -2zM997 1229q0 88 -36 157q6 -37 6 -75q0 -123 -57.5 -197t-164.5 -139q16 -10 31 -18.5t29 -18.5q90 57 141 121t51 170zM711 1438v30q18 0 36.5 -17t33 -42t25.5 -49.5t17 -38.5v-10q0 -10 -12 -34t-28.5 -48.5t-32 -43 t-23.5 -18.5h-6q-2 0 -4 41t-3 91.5t-2 92.5t-1 46zM358 1014q70 0 117 47t47 117q0 10 -5 32.5t-10 41t-10 24.5t-5 -16q0 -92 -61.5 -154t-154.5 -62h-18q-10 0 -16 3q50 -33 116 -33zM348 215q61 0 104.5 39t43.5 104q0 10 -5.5 31t-10.5 37t-10 23.5t-5 -9.5 q0 -90 -57.5 -142t-141.5 -52h-12q16 0 38.5 -15.5t55.5 -15.5zM449 860q-16 -8 -53.5 -29.5t-37.5 -42.5q0 -8 4.5 -17t16.5 -9q45 0 81 33.5t81 42.5q-27 33 -66 32h-4q-4 0 -12 -4t-10 -6zM250 1450q25 8 65 8q90 51 191 51h6q-4 0 -20.5 13.5t-22.5 17.5h-45 q-27 0 -55 -6q-33 -14 -62.5 -35.5t-56.5 -48.5zM788 502q0 -35 -2 -72t-4 -72q-2 -6 -2 -20t5.5 -9t11.5 19t12 31.5t10 28.5v12q0 47 -2 92t-6 90q-6 12 -13 24.5t-16 24.5v-4q2 -35 4 -71.5t2 -73.5zM215 471q0 31 31 31q16 0 35.5 -20.5t19.5 -37.5q-4 -8 -15.5 -19 t-15.5 -15h-4q-16 0 -33.5 24.5t-17.5 36.5zM250 1233v10l57 51q8 8 16.5 -10t8.5 -20q0 -4 -2 -8l-2 -3l-41 -45h-11q-16 0 -21 4.5t-5 20.5zM137 242v47q-16 12 -20 10t-1 -11t9 -23.5t12 -22.5zM766 1286q6 16 4 22.5t-6 20.5v-22q0 -15 2 -21zM301 1243q-2 14 -14 17 l-4 -3q-4 -2 6 -8t12 -6zM262 459l-10 -4l-2 -4l4 2t8 6z" />
<glyph unicode="4" horiz-adv-x="1179" d="M391 14q0 -8 2 -11t19 -3h168h90t127.5 2t111.5 5t39 7v6q-2 14 -21.5 19.5t-43 8.5t-45 8t-27.5 20v102q0 16 1 44t3 55.5t6 49t10 25.5l15 10h205l8 8q8 9 8 13v6q0 31 -20.5 40t-49.5 9q-27 0 -56.5 -3t-55.5 -3q-31 0 -52.5 10.5t-21.5 42.5v90q0 76 -2 181.5t-3 208 t-3 187.5t-2 122v379h-17l-194 -430q-12 -27 -42 -66t-30 -72v-604q0 -23 -5 -35t-26 -12h-362l-6 8q-6 9 -10 13v6q0 18 12 40.5t29.5 44t34 43t26.5 36.5q96 162 162.5 317.5t113.5 331.5q10 39 25.5 97.5t31 113.5t26.5 94l10 39v72q-37 0 -66 -20.5t-50.5 -46.5 t-37.5 -46.5t-25 -20.5q-8 0 -17 16.5t-16.5 39t-14.5 42t-13 25.5h-6q-10 0 -10 -20v-6q0 -51 21.5 -109.5t21.5 -99.5q0 -266 -81 -530.5t-243 -483.5q-12 -27 -12 -57q0 -12 12 -15h369q18 0 55 -3l37 -3l14 -20v-271l-14 -20h-103q-8 0 -9 -11.5t-1 -15.5zM606 799v205 q10 51 42 96t54 92l17 -10v-90q0 -61 1 -139.5t1 -164.5t1 -163.5t1 -139.5v-92v-86q0 -23 -1 -57.5t-1 -67.5t-1 -56l-1 -24l-10 -10h-88l-5 10l-2 80q-2 80 -3 190.5t-3 229.5t-2 197zM883 1192v379h-17l-14 -33v-264q0 -33 1 -104.5t3 -159.5q4 -92 5 -191.5t1 -181.5 v-94v-58q0 -2 23 -2h8q0 74 -2 179.5t-3 211t-3 193.5t-2 125zM293 543q51 88 95 174t79 170v151q-29 -72 -61.5 -140.5t-65.5 -143.5q-31 -70 -58.5 -137.5t-66.5 -131.5h39q21 23 39 58zM473 -51v-17q0 -8 2 -11t19 -3h168h90t127.5 2t111.5 5t39 7v7q-2 29 -61.5 33.5 t-135 -0.5t-149.5 -14t-104 -9h-107zM913 270l15 11h205l8 8q8 8 8 12v6q0 43 -21.5 40t-54.5 -36h-211v-211q0 -2 6 -2h9q10 0 14 26t7 56.5t5 58t10 31.5zM662 1536v72q-10 0 -18.5 -2t-16.5 -4q-23 -86 -36 -136.5t-22.5 -84t-16.5 -59.5t-15 -62q-6 -14 -11.5 -27.5 t11.5 2.5h-2l12 18l92 203q10 33 13 44zM113 307v-16q0 -12 12 -15h342v27q-14 2 -22.5 3t-12.5 1h-20h-299zM657 993v-194v-90v-72q0 -35 1 -75t2.5 -96t2.5 -134t3 -189h4q0 39 1 61.5t1 37.5v30v35v86v64v94q0 53 -1 114.5t-1 125.5v124v60t-2 55q-9 -19 -11 -37z" />
<glyph unicode="5" horiz-adv-x="1048" d="M31 332q0 -74 34.5 -135.5t90 -105.5t125 -67.5t139.5 -23.5q127 0 223 52t161.5 137t98.5 195t33 224q0 88 -18.5 174t-60.5 161t-106.5 133.5t-156.5 90.5h-170q-33 0 -64.5 -18.5t-61.5 -41t-55.5 -40.5t-43.5 -18h-6q-4 0 -9 6v291q0 8 -4 46t-6 46v10q0 16 14 16 q10 0 29 -13t39 -30.5t39.5 -34t32.5 -24.5q49 -29 92 -40t96 -11q76 0 137.5 27.5t109.5 73.5t83 105.5t55 124.5v11l-16 6q-8 4 -23.5 -4t-32 -18.5t-32 -20.5t-25.5 -14q-66 -23 -118 -34.5t-117 -11.5q-88 0 -162 11.5t-156 40.5q-23 8 -52.5 26.5t-49.5 18.5t-21 -21 v-4q0 -4 4 -18.5t9.5 -29.5t11.5 -30.5t12 -23.5q25 -98 26 -196.5t1 -196.5q0 -43 -3 -86t-14 -84q-10 -37 -23.5 -59.5t-13.5 -59.5q0 -10 2.5 -17.5t14.5 -7.5q18 0 35.5 45t46 98.5t77 98.5t128.5 45q61 0 103 -31t69.5 -77t40 -101t12.5 -104v-195q0 -35 1 -70.5 t1 -76.5q0 -70 -7 -140.5t-34 -128t-77 -92.5t-136 -35q-59 0 -116.5 20.5t-103.5 57.5t-74 89t-28 116q0 10 1 28.5t6.5 37t13.5 33t24 14.5q10 0 19.5 -21.5t26 -48.5t43 -48.5t71.5 -21.5q66 0 101.5 48.5t35.5 105.5q0 70 -34.5 122t-112.5 52q-59 0 -102 -29.5t-71 -75 t-40 -99.5t-12 -103zM502 -82q127 0 223 52.5t161.5 137.5t98.5 194.5t33 223.5q0 27 -2 68t-8.5 84t-17.5 81t-29 56q12 -12 17 -39.5t7 -59.5t2 -61.5v-46.5q0 -125 -37 -243.5t-108.5 -211t-177 -148.5t-244.5 -56q-49 0 -103 12q43 -23 90.5 -33t94.5 -10zM721 281v641 h6q25 0 45.5 -44t35.5 -100.5t23.5 -111t8.5 -72.5q0 -78 -24.5 -140.5t-63.5 -131.5q-4 -8 -12.5 -24.5t-12.5 -16.5h-6zM598 1229q76 0 137.5 27.5t109.5 73.5t83 105.5t55 125.5v10l-16 6q-8 4 -21.5 -3t-21.5 -13q-57 -125 -156.5 -213t-251.5 -88q-43 0 -80 6 q76 -37 162 -37zM281 967h-13q-10 0 -23.5 -26t-25.5 -60.5t-21.5 -68.5t-9.5 -50q0 -10 2.5 -17.5t14.5 -7.5q18 0 35.5 45t46 98.5t77 98.5t128.5 45h4q-16 0 -38 14.5t-38 16.5q-41 -27 -77.5 -57.5t-61.5 -30.5zM348 229q66 0 101.5 48.5t35.5 105.5q0 14 -5 40t-10 45 t-10 23.5t-5 -26.5q0 -37 -12.5 -74t-37 -66.5t-59.5 -47t-80 -17.5h-2q16 -14 35.5 -22.5t48.5 -8.5zM403 1464h226q0 -14 -15.5 -23t-35 -15.5t-40 -9.5t-32.5 -3q-25 0 -64 12t-39 39zM266 1147v117q0 2 -2 16t-4 31.5t-4 31t-4 13.5q-23 12 -18.5 8t2.5 -21v-16 q0 -49 3 -99t3 -100q4 2 11 7.5t13 11.5zM219 492v4q0 12 15 21l16 9h6q18 0 29.5 -17t11.5 -34q0 -10 -7 -25.5t-24 -15.5q-16 0 -29.5 25t-17.5 33zM772 741v-256q16 55 16 109q0 16 -4 58t-12 89zM143 256v20q0 33 -6 38t-10 -6t-1 -34.5t19 -48.5q-2 6 -2 31zM270 479v6 h-4q-20 0 -20 -10z" />
<glyph unicode="6" horiz-adv-x="997" d="M31 809q0 -113 16 -254t66.5 -264t141.5 -207t241 -84q121 0 204.5 55.5t136 143.5t76 194.5t23.5 210.5q0 78 -16.5 169t-55.5 170t-105.5 131t-164.5 52q-66 0 -120 -32.5t-95 -79.5h-6q-8 0 -12.5 8t-8.5 16v166q0 63 4 141t27 147t71 115t134 46q12 0 40.5 -6.5 t58.5 -16.5t52.5 -22.5t22.5 -26.5q0 -6 -26.5 -13t-57.5 -26.5t-57.5 -53.5t-26.5 -91q0 -66 41 -107t102 -41q78 0 113 57.5t35 120.5q0 66 -27 115t-71 82t-100 49.5t-114 16.5q-160 0 -264 -92.5t-166.5 -227.5t-87 -287.5t-24.5 -273.5zM543 1065q39 0 61.5 -33 t31.5 -78t11 -92t2 -74v-6q0 -33 -1 -114.5t-1 -173.5t-1 -174t-1 -115q0 -61 -39 -112.5t-104 -51.5q-45 0 -74 23.5t-46 59.5t-23.5 78t-6.5 79v553q0 37 14.5 77.5t39 74.5t59.5 56.5t78 22.5zM117 803q0 47 8 82t8 92q0 29 12.5 78t31 101t37.5 97t36 68h10 q0 -20 1 -73.5t2 -114t3 -113.5t4 -74v-20q-2 -31 -3 -100.5t-3 -153.5t-3 -169t-1 -149v-73h-10q-76 111 -104.5 250t-28.5 272zM737 270v641h4q25 0 43.5 -42t30.5 -95t18.5 -103t6.5 -67q0 -23 -7.5 -77t-20.5 -111.5t-32.5 -101.5t-42.5 -44zM461 932h-6 q-31 0 -41.5 -32t-10.5 -66v-553q0 -14 5.5 -47t10.5 -60t10 -35t5 25v35v553q0 61 39 131.5t105 91.5q-8 27 -23.5 28t-33 -11.5t-34 -30t-26.5 -29.5zM625 1567q25 18 25.5 26.5t-10.5 9.5t-27.5 0t-24.5 -1h-6q-16 0 -34 -6.5t-32 -10.5q-41 -23 -63.5 -66.5t-33.5 -98 t-13.5 -112t-2.5 -104.5v-96q6 6 14.5 11t16.5 9q0 59 4 131t22.5 135.5t56.5 112t108 60.5zM819 1167q78 0 113 57.5t35 121.5q0 72 -35 124q6 -45 -1 -93t-30.5 -88t-63.5 -65.5t-100 -25.5h-10q18 0 40.5 -15.5t51.5 -15.5zM168 803q0 -78 10 -159t33 -159v50q0 47 -6 93 t-6 93t4 82t12 92q0 14 1 26.5t3 22.5q-2 23 -3 67t-3 97q-16 -43 -18 -76t-17 -92l2 6q-6 -45 -9 -75.5t-3 -67.5zM700 1397v6q0 16 22.5 35.5t39.5 19.5q16 0 18 -9t2 -22q0 -18 -8 -28t-26 -27h-11q-12 0 -18.5 7.5t-18.5 17.5zM748 1407l-7 14l-10 -4q-2 -2 6.5 -6 t10.5 -4z" />
<glyph unicode="7" horiz-adv-x="1067" d="M328 260q0 -39 8 -84t26.5 -84t50 -65.5t79.5 -26.5q41 0 70.5 19.5t51 50t33.5 66.5t19 69q0 102 1 204.5t6 197.5t17 179t37 150q41 109 82 209t73.5 193.5t52 178.5t17.5 162h-20q-8 -25 -16.5 -53.5t-22.5 -53t-34.5 -40.5t-53.5 -16q-53 0 -100.5 28.5t-96.5 63 t-104 63.5t-125 29q-88 0 -153.5 -43t-108.5 -108.5t-64.5 -147.5t-21.5 -158h20q2 37 10.5 77t25.5 72.5t46 54t72 21.5q53 0 94 -27.5t81 -59t85 -59.5t108 -28q76 0 153 43t130 97q10 -6 10 -21v-16q0 -20 -11 -50t-27.5 -62t-34 -60.5t-29.5 -46.5q-63 -109 -140 -215.5 t-142.5 -217t-109.5 -229.5t-44 -256zM573 -82q41 0 71 19.5t51.5 50t33.5 66.5t19 69q0 102 1 204.5t6 198t17 179t37 149.5q41 109 82 209t73.5 193.5t52 178.5t17.5 162h-20q-18 -59 -42 -129.5t-24 -136.5v-16q0 -23 -12 -52.5t-28.5 -60.5t-34 -58.5t-27.5 -47.5 q-14 -47 -33.5 -90t-38.5 -88h2q-23 0 -34 -86.5t-17 -199t-7 -222t-1 -156.5v-57q0 -41 -17.5 -84t-47 -80t-70.5 -60.5t-90 -23.5h-3q37 -31 84 -31zM420 266q0 55 21.5 127t49 135.5t52 107.5t30.5 44h11v-389q0 -12 -9.5 -42t-23.5 -58.5t-29.5 -51t-29.5 -22.5 q-12 0 -24.5 19.5t-23 45t-17.5 50t-7 34.5zM317 1567q0 35 45.5 29.5t104.5 -30t115.5 -59t79.5 -63.5q-12 -20 -43 -33.5t-50 -13.5q-25 0 -45 15t-40.5 35.5t-44 43t-54.5 35.5q-8 10 -38 17.5t-30 23.5zM471 266q0 -8 1 -28.5t5 -38t9.5 -26.5t15.5 5v6q0 35 8 75t22 81 v199q-20 -59 -41.5 -137.5t-19.5 -135.5zM113 1161h20q2 37 10.5 77t25.5 72.5t46 54t72 21.5q-20 14 -40 22.5t-42 8.5q-20 0 -43 -16q-49 -115 -49 -240zM655 1212q31 0 48.5 6.5t27.5 17.5t17.5 27.5t19.5 36.5q-47 -27 -96 -42t-99 -15h-20q-10 0 -16 2q50 -33 118 -33z " />
<glyph unicode="8" horiz-adv-x="1064" d="M31 440q0 -92 35.5 -172t97 -140t144.5 -94t177 -34q127 0 216.5 46t144.5 125t80.5 181.5t25.5 214.5q0 61 -18.5 127t-48.5 119q-4 6 -27.5 32.5t-50.5 56.5t-48.5 54.5t-21.5 26.5q76 78 125 154.5t49 187.5q0 80 -29.5 145.5t-79.5 114.5t-118 81t-141 44h-31 q-221 2 -345 -135t-122 -363v-102q20 -86 67.5 -165t112.5 -132v-10q-82 -82 -137 -162t-57 -201zM168 440q0 25 4 80t17.5 110.5t37 98.5t64.5 43q4 0 10 -2t10 -2q74 -31 160 -53.5t164 -56t137 -89t78 -149.5v-68q-2 -139 -98.5 -225t-235.5 -86q-80 0 -144.5 34 t-109.5 90t-69.5 127.5t-24.5 147.5zM123 1362q0 70 30.5 127t81 97t115 61.5t131.5 21.5h56q29 -23 63.5 -26t65.5 -25q78 -61 105.5 -146.5t27.5 -181.5q0 -23 -6.5 -68.5t-20.5 -91t-36.5 -79t-55.5 -33.5q-51 0 -102.5 12t-85.5 39q-14 12 -38 19.5t-48.5 12.5t-47 9 t-36.5 10q-72 33 -135.5 93.5t-63.5 148.5zM373 864q-57 25 -104.5 76t-73.5 104q10 8 34.5 2t54 -16t58.5 -21.5t47 -15.5l14 -10q39 -29 83 -32t81 -19q25 -12 66 -38t80 -58.5t67.5 -68.5t28.5 -67h-10q-92 68 -207 95.5t-219 68.5zM567 -82q127 0 216 46t144.5 125 t81 181.5t25.5 214.5q0 39 -8 103.5t-37 99.5q12 -16 13.5 -60t1.5 -61q0 -102 -19.5 -196.5t-60.5 -171.5q-25 -109 -115 -173.5t-209 -66.5q-29 -4 -57.5 -7t-57.5 -3q-68 0 -118 14q91 -45 200 -45zM993 1243q0 84 -39 160q8 -35 9 -78q0 -98 -32 -168t-85 -131 q-8 -20 -15.5 -31.5t-8.5 -19.5t5.5 -17.5t22.5 -25.5q63 68 103 138.5t40 172.5zM174 1376v-14q0 -49 31 -90v8q0 70 30.5 127t81 97t115 61.5t131.5 21.5h53q-2 0 -4 1t-6 1q-20 0 -47 10.5t-41 18.5h-35q-53 0 -101 -22.5t-88 -57.5t-71 -78t-49 -84zM219 440 q0 -92 41 -180q-4 25 -7 49.5t-3 48.5q0 25 4 80.5t17.5 110.5t37 98t64.5 43h2q-18 6 -37 13.5t-35 13.5q-16 -16 -31.5 -30.5t-29.5 -31.5q-14 -53 -18.5 -121.5t-4.5 -93.5zM477 907l8 -6q23 -12 42.5 -18t39.5 -11q-27 16 -49 22.5t-37 10.5h2q-2 0 -3 1t-3 1zM580 625 q-35 14 -71 25.5t-71 21.5q-23 4 -10.5 -1t41.5 -13.5t62 -17.5t49 -15zM377 938l-10 8q-6 4 -20.5 6t-22.5 4q10 -10 25.5 -13t29.5 -9q0 2 -2 2v2zM633 1577h4q-2 2 -7 4t-12 4q4 -2 7.5 -4t7.5 -4zM389 686q-4 0 -6 1t-6 1q4 0 6 -1t6 -1zM379 934h6h-6zM410 678l-6 3 l-3 1l3 -1z" />
<glyph unicode="9" horiz-adv-x="1054" d="M82 256q0 -59 26.5 -107.5t70.5 -81t99.5 -50t110.5 -17.5q170 0 277.5 95t169 236.5t84 302.5t22.5 292q0 111 -20.5 246t-72.5 251.5t-144.5 196.5t-233.5 80q-123 0 -207 -58.5t-136 -147.5t-74.5 -197.5t-22.5 -211.5q0 -76 16 -167t56 -169.5t105.5 -132 t164.5 -53.5q66 0 120 33t101 80h10l7 -10q7 -9 7 -11v-198q0 -66 -5 -138.5t-27.5 -134t-68.5 -102.5t-128 -41q-47 0 -99 14.5t-81 57.5q2 6 28.5 12t58.5 22.5t57.5 49t25.5 90.5q0 70 -37 108.5t-106 38.5q-78 0 -116 -54t-38 -124zM328 758q0 27 -1 92t-2 139t-2 139.5 t-1 90.5v45q0 45 -2.5 110.5t9 127t43 104.5t99.5 43q43 0 71.5 -21.5t46 -55.5t23.5 -75t6 -80v-563q0 -31 -13 -71t-35.5 -74.5t-53.5 -59t-65 -24.5q-63 0 -87 44t-36 89zM707 752v6v73q0 51 1 116t1 134q0 72 1 136.5t1 113.5v76h6q27 0 51.5 -56.5t42.5 -136 t28.5 -166.5t10.5 -147q0 -119 -13.5 -217t-64.5 -223q-10 -27 -26.5 -65t-24.5 -38h-10q0 20 -1 75.5t-1 119.5q0 63 -1 119.5t-1 79.5zM471 -82q170 0 277.5 95.5t169 236.5t84 302t22.5 292q0 104 -17.5 231t-64.5 242q29 -100 40 -201.5t11 -189.5q0 -121 -18.5 -266.5 t-66.5 -282.5t-132 -245.5t-217 -156.5q-39 -14 -84 -20t-86 -6q-47 0 -78 8q76 -39 160 -39zM123 1085q0 33 8 90.5t23.5 114t36 97t45.5 40.5v-655q-29 0 -50.5 39t-36 91t-20.5 104t-6 79zM403 1137v45q0 23 -1 50.5t-1 59.5q0 43 4.5 89t17.5 85t38.5 66t68.5 33 q-20 33 -59 32q-35 0 -54.5 -20.5t-29.5 -53t-13 -72.5t-3 -77q0 -18 1 -33.5t1 -31.5v-90v-89v-66.5t2 -68.5q2 -74 3 -140.5t1 -94.5q10 -43 31 -66q0 35 -1 99.5t-2 133t-2.5 127t-1.5 83.5zM758 758v-180q12 39 18 68.5t9 60t3 65.5v82t2.5 96t0.5 101 q-2 53 -11.5 110.5t-19.5 98.5v-179q0 -53 -1 -103t-1 -93v-76v-51zM461 205q0 12 -5 32.5t-10.5 37t-10.5 22.5t-5 -10q0 -82 -36 -124t-77 -63q16 -4 36 -6t36 -2q37 0 54.5 34t17.5 79zM455 481q59 0 112 29v39q-18 -6 -35 -6q-41 0 -78.5 -15.5t-80.5 -15.5 q-16 0 -28.5 1t-27.5 3q60 -35 138 -35zM184 256q0 23 19.5 40t32.5 26h4q16 0 18 -12.5t2 -22.5q0 -20 -9 -30.5t-32 -27.5h-14q-21 0 -21 27zM174 1085q0 -29 2 -55t8 -53v233q0 -37 -5 -71t-5 -54zM231 270q-2 8 -16 9h-4q2 0 7 -4.5t13 -4.5z" />
<glyph unicode=":" horiz-adv-x="399" d="M31 700q0 -57 35.5 -95t97.5 -38q57 0 90 43t33 97q0 61 -34 99t-95 38q-66 0 -96.5 -41.5t-30.5 -102.5zM31 174q0 -61 35.5 -97t97.5 -36q57 0 90 42t33 95q0 59 -34 96t-95 37q-66 0 -96.5 -38t-30.5 -99zM246 485q57 0 90 43t33 97q0 57 -31 94v-12q0 -74 -47 -132.5 t-127 -58.5h-8q16 0 38.5 -15.5t51.5 -15.5zM246 -41q57 0 90 42t33 95q0 51 -31 92v-10q0 -74 -47 -131t-127 -57h-10q18 0 40.5 -15.5t51.5 -15.5zM96 717q0 27 15.5 46t46.5 19q29 0 43 -19.5t14 -45.5q0 -31 -14.5 -51.5t-42.5 -20.5q-31 0 -46.5 20.5t-15.5 51.5z M96 184q0 27 15.5 46.5t46.5 19.5q29 0 43 -19.5t14 -46.5q0 -29 -14.5 -48t-42.5 -19q-31 0 -46.5 19t-15.5 48zM147 717q0 -20 11 -21q6 0 6 21q0 14 -6 14q-11 0 -11 -14zM147 184q0 -16 11 -16q6 0 6 16q0 14 -6 15q-11 -1 -11 -15z" />
<glyph unicode=";" horiz-adv-x="399" d="M66 -51q2 -25 24.5 -53.5t46.5 -28.5h21q66 57 97.5 140t31.5 171q0 61 -32 102.5t-97 41.5q-66 0 -96.5 -38t-30.5 -100q0 -37 12 -58.5t25.5 -35.5t25.5 -25.5t12 -29.5v-15q0 -8 -18 -37.5t-22 -33.5zM31 696q0 -59 35.5 -96t97.5 -37q57 0 90 42t33 95q0 59 -34 96.5 t-95 37.5q-66 0 -96.5 -38.5t-30.5 -99.5zM133 -57v6q0 18 15.5 35.5t15.5 40.5q0 33 -21.5 74.5t-37 76.5t-9.5 59.5t62 24.5q47 0 61 -50t7 -111.5t-30.5 -113t-52.5 -53.5h-6l-2 4q-2 3 -2 7zM219 -215h21q66 57 97.5 140t31.5 171q0 63 -31 101v-19q0 -31 -10.5 -86 t-26.5 -108.5t-35.5 -93.5t-40.5 -40h-6q-10 -2 -22.5 -14t-20.5 -20h-6q10 0 23.5 -15.5t25.5 -15.5zM246 481q57 0 90 42t33 95t-31 93v-11q0 -74 -47 -131t-127 -57h-8q16 0 38.5 -15.5t51.5 -15.5zM96 711q0 29 15.5 48t46.5 19q29 0 43 -19.5t14 -47.5 q0 -31 -14.5 -51.5t-42.5 -20.5q-31 0 -46.5 20.5t-15.5 51.5zM174 145q0 20 -3 42t-13 22t-11 -14q0 -20 19 -41v2q2 -2 4 -5.5t4 -5.5zM147 711q0 -20 11 -21q6 0 6 21q0 14 -6 16q-2 -2 -6.5 -5t-4.5 -11z" />
<glyph unicode="?" horiz-adv-x="925" d="M92 563q0 -43 14.5 -67.5t38 -37t55 -15.5t66.5 -3h82q16 0 49 9.5t33 11.5v24q-23 0 -49.5 -5t-48.5 -5q-23 0 -39.5 12.5t-32.5 28.5v47q0 84 53.5 152.5t123 124t137 98.5t96.5 76q66 51 104.5 138t38.5 183v51q0 70 -16.5 134.5t-51 115t-92 80t-137.5 29.5 q-82 0 -168 -24.5t-156.5 -73t-115.5 -119t-45 -162.5q0 -117 61.5 -178.5t173.5 -61.5q63 0 105.5 52.5t42.5 111.5q0 61 -39 104.5t-105 43.5q-59 0 -88.5 -28t-44 -61.5t-18.5 -63.5t-13 -32q-31 23 -41 48.5t-10 64.5q0 61 24.5 114.5t65.5 94.5t94.5 64.5t112.5 23.5 q41 0 80 -6t68.5 -23.5t48 -46t18.5 -71.5q0 -47 -11 -106.5t-31.5 -118t-49.5 -112t-61 -89.5q-51 -55 -107.5 -113.5t-104.5 -123.5t-79 -136.5t-31 -153.5zM147 598q0 76 45.5 144.5t105.5 132t121.5 120t96.5 105.5q59 86 94 189.5t35 207.5v90q0 10 -10 19.5t-10 21.5 h20l41 -41q35 -39 48.5 -89t13.5 -101q0 -70 -24 -131.5t-62.5 -115.5t-88 -102.5t-98.5 -95.5q-10 -10 -27.5 -18t-34 -16.5t-28.5 -16.5t-12 -16q-63 -63 -94 -106.5t-44.5 -72t-18.5 -47t-17 -30.5q0 -4 2 -20.5t2 -35.5q0 -39 -8.5 -48t-19.5 -1t-19.5 28.5t-8.5 45.5z M752 932q66 51 104.5 138t38.5 183v52q0 55 -10.5 108t-32.5 98q12 -57 12 -125v-51q0 -57 -8 -118.5t-43 -106.5v2q-10 -14 -28.5 -37.5t-37 -46t-33 -39t-16.5 -18.5q-23 -23 -51.5 -44.5t-62.5 -43.5q-43 -31 -91.5 -66t-88 -75t-66.5 -85t-27 -94v-26q16 -10 21 -11h14 q14 74 69.5 135.5t121 110.5t127 89t88.5 71zM137 174q0 -61 39 -97t100 -36q57 0 90 42t33 95q0 59 -33.5 99t-95.5 40q-66 0 -99.5 -41t-33.5 -102zM358 -41q57 0 90 42t33 95q0 55 -30 94v-12q0 -74 -47.5 -131t-127.5 -57h-14q20 0 44.5 -15.5t51.5 -15.5zM209 184 q0 31 15.5 51.5t45.5 20.5q29 0 45.5 -20.5t16.5 -51.5q0 -29 -16.5 -48t-45.5 -19q-31 0 -46 19t-15 48zM170 1464q18 12 47 19q41 45 97.5 71.5t119.5 26.5q12 0 25.5 -1t25.5 -3q-41 33 -86 33t-88 -20.5t-79.5 -55.5t-61.5 -70zM252 367q4 0 9 1t9 1q18 0 33.5 -3.5 t32.5 -7.5h94q16 0 49 9.5t33 11.5v24q-23 0 -49.5 -5t-48.5 -5q-16 0 -21 2q-20 -2 -37 -6h-90h-30q-20 0 -22.5 -3t4.5 -7t18.5 -7t15.5 -5zM219 1253q0 18 13.5 35t27.5 25t27.5 5t13.5 -24v-4q0 -20 -22.5 -38.5t-38.5 -18.5q-21 0 -21 20zM696 1397v20q0 25 -11 -9 t-25.5 -83t-25.5 -95l-11 -46l11 28q11 29 25.5 67t25.5 73t11 45zM303 1047l14 14q23 20 24 25.5t-10.5 3t-28.5 -8.5t-36 -6h-30q-23 0 -21 -4t17.5 -8t37 -9t33.5 -7zM260 184q0 -16 10 -16t11 16q0 20 -11 21q-10 -1 -10 -21zM465 1303v-25q0 8 4 12.5t-4 12.5z M250 1282v-2l14 -6q-4 2 -5 5t-9 3z" />
<glyph unicode="A" horiz-adv-x="1976" d="M31 -16q0 -98 47 -168t119.5 -114t160.5 -65.5t168 -21.5q147 0 274.5 50t213.5 181q23 35 39 66t16 72h-14q-41 -84 -94.5 -135.5t-118 -78t-141 -34.5t-164.5 -8q-39 0 -90.5 2t-103.5 10t-98 23.5t-77 41.5q-39 33 -70.5 70t-31.5 88q0 57 29.5 98t74.5 67t97 38 t95 12q70 0 137.5 -14t129.5 -41q12 -8 30.5 -29.5t36 -45t30.5 -41t15 -17.5h7q2 0 22.5 33.5t48.5 62.5q35 37 85 76t100 67q31 18 60.5 34t52 36t36.5 46t14 65v327q0 12 12.5 19.5t29 10.5t31.5 4t24 1q16 0 29.5 -4t17.5 -27q6 -88 5 -173t4 -161.5t20.5 -141 t56.5 -111.5q6 -6 22.5 -23.5t35 -36t33.5 -36t21 -23.5q0 -4 9 -7l8 -3h10q20 0 57 31.5t75 72.5t69.5 78t44.5 49q25 25 53.5 60.5t28.5 72.5q-18 0 -29.5 -15.5t-22 -33.5t-22.5 -33.5t-35 -15.5q-16 0 -36.5 16.5t-38 39t-30 47t-12.5 40.5l-16 764q-2 68 -27.5 132.5 t-68.5 118.5t-100.5 93t-120.5 55q-16 4 -53.5 11.5t-77 14.5t-75.5 12t-50 7h-267q-35 0 -62.5 6.5t-53.5 24.5q-16 12 -19.5 37t-21.5 25q-14 0 -22.5 -15.5t-12.5 -36t-5 -39t-1 -26.5q0 -53 21.5 -99t57 -83t79.5 -62.5t92 -38.5q16 -8 43.5 -7t44.5 -17 q-16 -20 -48 -39t-40 -23q-57 -39 -112.5 -94t-55.5 -127v-491q0 -35 -20.5 -53.5t-49.5 -29t-60.5 -14.5t-54.5 -10q-80 -23 -159.5 -60.5t-144 -92t-105.5 -127t-41 -166.5zM1417 358l-20 471l-25 31h-139l-4 14v7q0 4 2 9l2 5h149l4 10q2 6 6.5 47t4.5 66v92q0 18 2 43 t2 51q0 61 -18.5 95t-46 51.5t-62.5 23.5t-66 12l-16 7q-49 16 -102 16q-29 0 -54.5 1t-48.5 3q-78 4 -141.5 37t-114.5 90l10 6l21 2q22 2 52 3t60.5 3t51.5 2h20q84 0 175 -9t170 -39.5t138.5 -89t79.5 -158.5q2 -14 6.5 -38t9.5 -47.5t8 -42t3 -22.5l14 -758 q0 -31 23.5 -53.5t23.5 -52.5l-47 -47h-24q-20 18 -63.5 63t-45.5 96zM741 444l-4 7q0 12 39 31.5t86 49t86 69.5t39 89v559q0 18 23.5 42t44.5 24q31 0 53 -9.5t22 -43.5v-13q2 -35 4.5 -114.5t3.5 -173t2 -184.5t1 -152v-232q0 -45 -49.5 -83t-87.5 -40q-14 0 -34 14.5 t-41.5 34t-43 38t-35.5 26.5q-10 6 -51 26.5t-51 24.5zM768 608l-10 6l-17 379q6 12 25.5 36t43.5 46.5t45.5 38.5t29.5 16h10q0 -18 1 -67t2 -103.5t2 -103.5t1 -68v-6q0 -61 -46 -105t-87 -69zM823 -92h6q2 0 22.5 33.5t49.5 62.5q35 37 85 76t99 67q31 18 61 34 t52.5 36.5t36.5 46t14 64.5v327q0 14 6.5 19.5t6.5 23.5q0 31 -13.5 24t-27.5 7q2 -33 2 -60.5v-54.5v-71v-232q0 -45 -49.5 -83t-88.5 -40q-6 0 -30 11q-6 -4 -13.5 -7.5t-13.5 -7.5q-72 -43 -138.5 -101t-92.5 -112q-8 -20 1 -31zM1192 1290q37 0 60.5 -18.5t35.5 -46 t17.5 -60t5.5 -59.5q0 -29 -4 -71t-2 -42l-11 -10h-112l-8 15q-7 16 -7 30v246q0 12 8.5 14t16.5 2zM1069 608v559q0 12 5 27.5t5 30.5v22v15q0 2 -8 2h-16q-4 0 -10.5 -5.5t-6.5 -9.5v-559q0 -47 -21.5 -83t-53 -64.5t-69.5 -51t-69 -40.5q37 -16 47 -25q18 -18 51 1t66 54 t56.5 72t23.5 55zM608 -467q147 0 274.5 50t213.5 181q23 35 39 66t16 72h-14q-68 -137 -174 -195q-90 -78 -202 -110.5t-235 -32.5h-35.5t-54 1t-54.5 6t-36 15q18 -18 53 -28.5t75 -15.5t77 -7t57 -2zM399 276q0 10 31 22.5t72 25t78.5 20.5t54.5 8q49 0 97 -27.5 t87 -58.5v-6q0 -20 -27.5 -41.5t-43.5 -23.5q-39 0 -79 23.5t-75 31.5q-12 2 -40 6t-58.5 7t-57.5 7t-39 6zM1591 -47q0 -4 9 -7l8 -3h10q20 0 57 31.5t75 72.5t69.5 78t44.5 49q25 25 53.5 60.5t28.5 72.5q-18 0 -29.5 -15.5t-22 -33.5t-22.5 -33.5t-35 -15.5q-10 0 -22 6 l-43 -41q-45 -47 -97.5 -97t-109.5 -93q10 -10 16 -18.5t10 -12.5zM1665 1274q4 -18 5 -36.5t3 -37.5l17 -766q0 -12 9 -31.5t21 -35.5l-16 749q-2 41 -12.5 80t-26.5 78zM444 96h35t47.5 -1t46 -5t33.5 -14q-20 16 -52 26.5t-66.5 15.5t-67.5 7t-58 2q-84 0 -156.5 -40 t-88.5 -130q2 -35 30 -63q2 53 33 92t76 63.5t95 35.5t93 11zM1427 872l21 -22v-37h16l4 10q2 6 6.5 47t4.5 66v92q0 18 2 43t2 51v2q-2 10 -5 26.5t-8 35.5l-6 31q-10 31 -11 17.5t-1 -30.5v-33q0 -16 -2 -33.5t-2 -27.5v-92q0 -27 -5 -73t-16 -68v-5zM1497 299l-18 449 l-25 30h-4l18 -420q0 -14 8.5 -28.5t20.5 -30.5zM846 944v12q-2 10 -2 21.5v21.5q0 31 -6.5 34t-14.5 -7t-17 -25.5t-13 -21.5l12 -281q8 6 14 13.5t12 15.5l-8 184q0 2 9.5 13.5t13.5 19.5zM1008 1475h20q66 0 135.5 -5.5t134.5 -21.5q-78 37 -171 47t-181 10h-20h-39 q-25 0 -13.5 -5t36 -10t54.5 -10t44 -5zM1219 1231v-197h30v150q0 16 -11 28.5t-19 18.5zM717 270h8q-23 0 -45.5 15.5t-44.5 15.5h-12q-12 0 -19 -2q23 -6 39 -13t33 -16v2q8 -8 22.5 -5t18.5 3zM1262 723q0 2 -1 4t-1 6v-2q0 -8 2 -8z" />
<glyph unicode="B" horiz-adv-x="1976" d="M246 45q0 -113 62.5 -191.5t154.5 -128t199.5 -72t197.5 -22.5q70 0 140.5 16.5t136 45t122 68.5t97.5 89v21h-10q-68 -39 -123.5 -78t-132.5 -59q-14 -4 -52.5 -7t-81.5 -5.5t-80.5 -3.5t-52.5 -1h-24q-68 0 -159 14.5t-173 50.5t-139.5 97.5t-57.5 155.5q0 104 68 183 t174 79q39 0 74 -18.5t66.5 -44t60 -55t55.5 -52.5q90 -78 195.5 -102.5t224.5 -24.5q113 0 232.5 33t218 99.5t162 164.5t63.5 229q0 100 -48.5 174t-125.5 134q-12 10 -39 24t-54.5 30.5t-49 29t-21.5 14.5q0 10 41 32.5t89 62.5t89 99.5t41 143.5q2 115 -64.5 198.5 t-144.5 153.5q-12 8 -28.5 34.5t-28.5 26.5q-25 0 -75 -43t-107.5 -100t-112 -114.5t-84.5 -84.5l-11 11q-2 2 -12 17t-21.5 32.5t-21.5 33t-10 19.5q-20 31 -54 63.5t-73 59.5t-80 44t-76 17h-219q-4 0 -18.5 -3t-18.5 -3q-86 -27 -172 -61.5t-176 -34.5q-47 0 -76.5 18.5 t-29.5 67.5q0 23 10 41t10 41q-23 0 -35 -15.5t-18 -36t-7 -42t-1 -33.5q0 -66 33.5 -121t86 -94t116 -60.5t122.5 -21.5h266q162 -23 226.5 -118t64.5 -257v-86q-25 -98 -84 -174t-172 -78q-49 0 -89 11.5t-75 50.5l11 10q37 0 75.5 11.5t71.5 33t53.5 54t20.5 75.5 q0 90 -54.5 137t-140.5 47q-78 0 -126 -48t-48 -126q0 -61 24.5 -114.5t67.5 -91t98.5 -59t116.5 -21.5q115 0 205 52t151.5 135t93.5 186.5t32 205.5q0 35 -5.5 69t-5.5 68q0 14 8.5 38t20.5 46.5t26.5 39t26.5 16.5h4q6 0 9.5 -22.5t5.5 -50.5t2 -54.5v-34.5v-234 q-8 -18 -22.5 -35.5t-14.5 -39.5q0 -20 7 -31.5t30 -30.5q0 -25 2 -90t4 -139t3 -139.5t1 -92.5v-333q0 -4 -8 -14.5t-12 -10.5q-33 0 -59.5 31.5t-54.5 80t-61.5 103.5t-80 103.5t-107.5 80t-145 31.5q-88 0 -178.5 -29.5t-163 -85t-118.5 -134.5t-46 -177zM1386 905h7 q43 0 68.5 -49t40 -111.5t19.5 -122t5 -79.5v-37q0 -51 -4 -130t-22.5 -154t-55.5 -128t-103 -53q-12 0 -24 4t-12 21v794q0 10 11 16.5t24.5 11.5t26.5 9t19 8zM260 1438v6l62 18q63 17 139 38.5t140.5 38.5t68.5 17q94 0 173 -60t134 -130q23 -31 52.5 -74t45.5 -53 q4 -43 7 -72.5t3 -70.5q0 -12 -3 -37t-9 -49.5t-13 -44t-16 -19.5h-6q0 68 -14 143.5t-48 138t-91.5 103.5t-143.5 41h-327q-4 8 -29 13.5t-52.5 11.5t-50 15.5t-22.5 25.5zM1331 963q-12 12 -19 51t-10.5 86t-4.5 95t-3 79v16q0 31 5.5 67t25.5 36h10q37 0 77 -33t73 -78 t54.5 -92t21.5 -74q0 -25 -11.5 -54.5t-31 -55t-46 -43t-55.5 -17.5h-10q-8 0 -38 8.5t-38 8.5zM1270 -82q14 0 30.5 2t32.5 2h19q106 0 211.5 40t190.5 110.5t138.5 166t53.5 205.5q0 41 -10.5 79t-26.5 73q6 -35 6 -70q0 -94 -31 -173t-83 -142.5t-121.5 -111.5 t-149.5 -81q-18 -27 -45 -43t-62 -16q-10 0 -20 2t-14 12q-8 -2 -24.5 -8t-23.5 -6q-4 0 -6 1t-6 1q-74 -12 -141 -12q-16 0 -50 -1t-70 1t-66.5 7t-40.5 17q18 -23 58 -34t87 -15t92 -5t72 -1zM1612 281v450l6 6q14 14 38.5 -16.5t49.5 -73.5t42 -84t17 -47 q0 -39 -24.5 -89t-50.5 -79l-68 -67h-10zM942 -451q139 2 276.5 61.5t219.5 158.5v20h-11q-70 -41 -124 -77t-132 -60h-8q-150 -72 -303 -72h-54t-76 3t-77 11.5t-55 24.5q29 -25 76 -39t97 -20t96 -8.5t75 -2.5zM868 506q33 -10 60 -25q106 41 179 127t112 195v31 q-27 27 -31 43q-37 -104 -102.5 -192.5t-161.5 -141.5q-25 -25 -56 -37zM696 358q27 37 81 16.5t109.5 -66.5t96.5 -100t41 -85q-35 0 -82 27.5t-94 65.5t-88 77.5t-64 64.5zM1868 1188q0 80 -39 153q8 -31 8 -71q0 -66 -22.5 -118t-56.5 -93t-71.5 -72t-70.5 -51 q10 0 31.5 -14.5t31.5 -20.5q29 18 63 45t61.5 62.5t46 80t18.5 99.5zM1362 317v-223q12 4 24 12v672q0 12 15.5 19.5t34.5 11.5q-14 39 -26.5 39t-41.5 -4q-12 -4 -12 4v-270q0 -82 3 -157t3 -104zM1458 1458v6l41 45h21q14 -12 40.5 -36.5t53 -57.5t46 -71.5t19.5 -79.5 q0 -10 -2 -31t-14 -21h-10q-6 45 -28.5 78t-52.5 59.5t-60.5 51t-53.5 57.5zM492 809q0 23 25.5 54.5t49.5 31.5q23 0 50.5 -24.5t27.5 -47.5q-2 -33 -41 -56.5t-67 -25.5q-16 0 -30.5 28t-14.5 40zM352 -70v23q0 104 66.5 183t173.5 79q-39 31 -80 31q-43 0 -77 -26.5 t-56.5 -65.5t-35.5 -84t-15 -84q8 -29 24 -56zM752 1475q25 0 18.5 5t-26 10t-43 10t-31.5 5q-63 0 -125 -29.5t-121 -52.5h143q45 20 90.5 36t94.5 16zM471 1198h266q2 0 4 -1t4 -1q8 0 13 -2q-20 10 -51 22.5t-60 12.5h-258q-51 0 -86 8q80 -39 168 -39zM840 731 q0 12 -5.5 33.5t-10.5 40t-10 25t-5 -16.5q0 -72 -40 -120t-95 -75h16q51 0 100.5 29t49.5 84zM1352 1069h4l26 -27q-4 47 -5 90.5t-1 59.5v16q0 23 2 46.5t11 39.5q-29 25 -36 30t-7 -34v-16q0 -29 3 -61.5t3 -63.5v-80zM1663 641v-246q16 23 31 49v140q-8 14 -15.5 29.5 t-15.5 27.5zM543 809q0 -10 -6 -16q16 0 36.5 9t20.5 21q0 6 -9.5 13.5t-17.5 7.5t-16 -12.5t-8 -22.5zM174 1622q-29 0 -32 -10t4.5 -17.5t17.5 -4.5t10 32zM1356 1018q-20 0 -21 -21q21 1 21 21z" />
<glyph unicode="C" horiz-adv-x="1556" d="M55 45q0 -100 48.5 -172t123 -118t165.5 -67.5t175 -21.5q143 0 274.5 55.5t223.5 165.5v21q-12 0 -33.5 -14.5t-46 -32t-48.5 -33.5t-36 -23q-78 -39 -163 -50t-171 -11q-74 0 -159.5 17.5t-157.5 56.5t-120 101.5t-48 152.5q0 25 7 62.5t21.5 74.5t33 62.5t40.5 25.5 h25q68 -59 129 -107.5t126.5 -81t141.5 -50t172 -17.5q154 0 294 56.5t249 172.5q18 25 52 64t34 76h-21q-27 -25 -59.5 -53.5t-68 -53t-74.5 -41t-78 -16.5q-18 0 -27.5 83t-12.5 199.5t-2 242.5t1 212v322q0 10 10 21t15 15q109 27 189.5 96.5t133.5 170.5 q10 16 20.5 33.5t10.5 37.5q-25 0 -42.5 -20.5t-39 -46t-51 -46t-78.5 -20.5q-88 0 -150.5 37t-85.5 127h-14q-8 0 -15 -1t-16 -9q-70 -76 -150.5 -133.5t-149 -120t-114.5 -141t-46 -199.5q0 -80 22.5 -142.5t59 -117.5t82.5 -107.5t92 -113.5q20 -27 32.5 -55.5 t12.5 -63.5q0 -18 -6.5 -40t-34.5 -22h-11q-4 0 -17 3.5t-27.5 8.5t-27 9t-14.5 6q-41 8 -80.5 6t-72.5 19q-45 31 -74 94t-46 137t-23.5 146.5t-6.5 123.5q0 199 90 348.5t269 235.5q6 0 6 6q0 10 -17 10h-14q-63 0 -145 -36.5t-160 -90t-142.5 -114t-95.5 -107.5 q-63 -98 -87.5 -204.5t-24.5 -221.5q0 -133 37.5 -244.5t99.5 -230.5v-6q0 -14 -22.5 -34.5t-28.5 -37.5q-35 -53 -48.5 -106t-13.5 -119zM553 430q0 10 6 12t14 2q47 0 87 -30.5t71 -65.5h10q35 0 74 53.5t72 126t54.5 147.5t21.5 118q0 61 -21.5 115.5t-54.5 104.5 t-75 101t-81 109q-25 35 -43 66.5t-18 76.5q0 39 10 52.5t41 39.5h6q14 0 33.5 -11t41 -26.5l43 -31t40.5 -23.5q8 -6 33.5 -11t52 -11.5t47 -15.5t20.5 -23v-1039q0 -12 -14 -26h-61q-115 0 -226.5 50t-183.5 140zM123 813v6q0 92 27.5 177t74.5 165q4 4 17.5 16.5 t17.5 20.5h10v-395q0 -8 3 -33t3 -33q37 -164 111 -297t221 -221q23 -12 54.5 -21.5t64.5 -17.5t61.5 -16t45.5 -21v-6q0 -8 -26 -9t-30 -1q-72 0 -145.5 27.5t-141 70.5t-127 97.5t-104.5 107.5q-27 33 -51.5 80t-44 99.5t-30.5 105.5t-11 98zM1147 901v322q0 10 10 21 t14 16q109 27 190 96t134 170q10 16 20.5 33.5t10.5 37.5q-16 0 -30.5 -12t-29 -29.5t-31 -36t-38.5 -32.5q-53 -70 -123 -119t-156 -72l-2 -2v-61q0 -2 2 -5t2 -5v-684q0 -78 2 -140.5t4 -91.5q0 -4 -6 -8v-2q0 -2 15.5 2t17.5 6q-2 47 -3 110.5t-2 130t-1 132v117.5v106z M584 1100q0 20 4 42.5t20 35.5l191 -236q16 -20 38.5 -69.5t22.5 -84.5v-18q0 -16 -3 -34.5t-17 -18.5h-6q-33 0 -76 50t-82 114.5t-65.5 128t-26.5 90.5zM860 -41q154 0 294 56.5t249 172.5q18 25 52 64t34 76h-21q-29 -27 -61.5 -56.5t-69.5 -54.5q-117 -115 -261 -171 t-298 -56h-48t-60.5 1t-56 6t-35.5 15q18 -18 52 -28.5t73.5 -15.5t81.5 -7t75 -2zM649 -416q143 0 274.5 55.5t223.5 165.5v21q-12 0 -33.5 -14.5t-46.5 -32t-48.5 -33.5t-35.5 -22q-100 -43 -203.5 -76t-212.5 -33h-40.5t-59.5 2t-57.5 7t-36.5 16q18 -18 55 -29.5t79 -18 t80.5 -7.5t61.5 -1zM834 362h-7q-4 0 -20 -17t-19 -21q20 -8 39 -14.5t37 -8.5q68 68 123 184v160q-41 -125 -113 -223q0 -18 -5.5 -39t-34.5 -21zM174 819v-6q0 -18 3 -49t9.5 -64.5t16.5 -65.5t24 -50q-10 12 -14 32.5t-6 43t-2 42v29.5v6q0 70 14 125v170 q-45 -104 -45 -213zM922 1479q-4 0 -6 3l-1 3q0 14 12.5 22.5t22.5 12.5q14 -14 15 -4q8 -4 32.5 -16.5t46 -25t27.5 -21.5t-20 -9h-17q-63 0 -112 35zM215 164q27 35 15.5 45t-31.5 -21q-33 -53 -52.5 -114.5t19.5 -116.5q-2 6 -2 16v17q0 47 11 91t40 83zM721 1354 q2 -35 31 -74v4q0 35 7 48.5t29 31.5l-6 6q-18 14 -24 16q-10 -8 -18.5 -16t-18.5 -16zM967 1284q2 -4 20 -8v27q0 -8 -18 -9q-25 0 -26 -3t24 -7zM666 995v23v6l-25 31q8 -10 12.5 -28t12.5 -32z" />
<glyph unicode="D" horiz-adv-x="1679" d="M92 51v-67q25 -86 83 -144.5t134 -95.5t161 -52.5t165 -15.5h102q147 31 255 101.5t200 191.5q8 8 9 15.5t1 15.5q-12 0 -28.5 -13.5t-33 -30.5t-29.5 -33.5t-21 -24.5q-100 -90 -218 -112t-243 -22h-47q-41 0 -90.5 2.5t-97.5 10.5t-92 24.5t-77 44.5q-41 35 -74.5 80 t-33.5 99q0 135 81 185t195 50q131 0 217 -39t172 -135q12 -10 19.5 -25.5t27.5 -15.5h15q74 98 176 159.5t209 123.5q156 90 247 249.5t91 344.5q0 158 -49.5 304t-141.5 257.5t-225 179.5t-301 68q-131 0 -250 -29t-238 -70q-35 -12 -73.5 -23.5t-73.5 -11.5 q-61 0 -109 35q-10 8 -18 26.5t-15 38t-12.5 34t-9.5 14.5h-6q-8 0 -11 -16.5t-3 -24.5q0 -92 33.5 -157.5t91 -108.5t134.5 -62.5t161 -19.5q66 0 127 10t122 10q20 0 21 -10q-84 -76 -151.5 -168t-67.5 -215q0 -61 25.5 -111.5t56 -98.5t56.5 -97t26 -109q0 -31 -4.5 -51 t-20.5 -34.5t-49 -20.5t-90 -6q-80 -8 -155 -42t-131 -87.5t-90 -123t-34 -151.5zM987 1468h-117q-45 0 -140 -6t-191.5 -7t-169 7t-72.5 37q0 6 60.5 27.5t144.5 45t175 42t152 18.5q125 0 241 -58t206 -153.5t144.5 -215.5t54.5 -242q0 -80 -25 -165t-68 -153h-16v399 q0 4 -11.5 38t-19.5 55q-41 127 -125 215.5t-223 115.5zM707 481q0 18 14 31.5t27 30.5q53 57 100 123.5t47 152.5q0 66 -21.5 121t-47 107.5t-47 104.5t-21.5 112v51q16 43 42.5 57t73.5 14q6 0 29 -3t47.5 -9t44 -15t19.5 -24v-925q0 -6 -17 -7h-10l-44 11 q-44 10 -96 23.5t-96 26.5t-44 17zM1065 1311q49 0 88 -52.5t66.5 -117t43 -120.5t17.5 -65v-143q0 -72 -4 -139.5t-19.5 -130t-46 -119.5t-84.5 -107h-10q-12 0 -39.5 20.5t-27.5 41.5v921q0 8 6 9.5t10 1.5zM911 -37h15q74 98 176 159.5t209 123.5q156 90 247 249.5 t91 344.5q0 39 -2 87t-10.5 96t-21.5 93t-34 78q14 -23 22.5 -58.5t11.5 -74.5t3 -76v-63q0 -199 -98.5 -369t-266.5 -270q-2 0 -2 -2q-10 -10 -20 -22.5t-23 -22.5h-10q-39 0 -85 -24t-90 -59.5t-84 -77.5t-67 -79q8 -10 15.5 -21.5t23.5 -11.5zM608 942q-4 12 -4 23v22 q0 8 6 29.5t15.5 44t19.5 41t21 18.5h4q12 0 32.5 -41t40 -91t35 -96t15.5 -58q0 -23 -11.5 -51.5t-33.5 -45.5q-18 12 -60.5 78t-79.5 127zM717 -406h102q147 31 255 102t200 191q8 8 9 15.5t1 15.5q-12 0 -28.5 -13.5t-33 -30.5t-29.5 -33.5t-22 -24.5q-51 -43 -98 -63.5 t-100 -43.5q-57 -25 -113.5 -47t-122.5 -37h-102q-18 0 -49 -1t-65 1t-64.5 8.5t-46.5 20.5q25 -20 65.5 -31.5t84.5 -17.5t86 -8.5t71 -2.5zM1100 1237v-858q0 -14 13 -1l17 17v799q-16 25 -30 43zM543 342v6q0 10 18.5 15.5t22.5 5.5h71q74 0 140.5 -27t140.5 -35v-6 q0 -6 -15.5 -18.5t-34 -24.5t-34.5 -21.5t-18 -11.5h-11q-53 57 -130.5 83t-149.5 34zM911 1550q16 0 61.5 -1t61.5 -15q-18 14 -44.5 23.5t-55.5 14.5t-56.5 7t-48.5 2q-53 0 -130.5 -10t-151.5 -24.5t-130.5 -28t-66.5 -19.5q8 4 42 5t59 1h24q45 0 94 -1t97 7 q72 10 134 24.5t111 14.5zM475 178q35 0 64.5 -3t58.5 -7q-86 41 -205 41q-100 0 -157 -37q-31 -47 -51.5 -110.5t14.5 -114.5q2 131 81.5 181t194.5 50zM963 651v185q-27 70 -22 55.5t5 -72.5q0 -94 -49 -169t-106 -136q-16 -16 3 -17t60 -12q35 37 64 78t45 88zM840 1182 v51q16 43 42.5 57.5t73.5 14.5h7v30h-89q-49 0 -65 -30v-41q0 -39 10 -75t27 -71q-6 31 -6 64zM532 1274h29q10 10 18.5 20.5t18.5 20.5h-12q-31 0 -65 -5t-70 -5q-12 0 -35 -1t-46.5 0t-43 4t-29.5 13q14 -14 44 -24.5t63.5 -14.5t68 -6t59.5 -2zM696 954q-4 8 -8 15.5 t-8 15.5h2q-2 0 -12.5 17.5t-12.5 21.5q-2 -8 -2 -23v-14v-26l27 -41q2 -2 2 -5q0 -2 2 -4q2 8 4 18.5t6 24.5zM1417 1038v-151q6 37 6 76q0 36 -6 75zM1411 1067v6q0 2 -1 2t-1 2q0 -8 2 -10zM1407 1083q0 -4 2 -6q-2 2 -2 6z" />
<glyph unicode="E" horiz-adv-x="1517" d="M145 338v-21q-20 -23 -54 -72.5t-34 -86.5v-148q0 -8 6.5 -23.5t13.5 -30.5t13 -29.5t8 -18.5q86 -131 214 -181.5t278 -50.5h92q182 47 317 170l41 41t27 31v25q-12 0 -37.5 -18.5t-54.5 -42t-56.5 -46t-46.5 -31.5q-66 -33 -140.5 -42t-141.5 -9q-80 0 -169 14.5 t-164 51.5t-124 101.5t-49 164.5q0 18 5 52t15.5 67t29 57.5t42.5 24.5h21q100 -117 234 -184.5t288 -67.5q162 0 299 58.5t254 166.5q12 10 30.5 26.5t37 36t31.5 41t13 39.5h-16q-51 -47 -126 -100t-150 -53q-14 0 -21.5 46t-10.5 106.5t-3 120v85.5v103l20 20q2 2 15.5 0 t17.5 -2q86 0 154.5 43t68.5 143q0 57 -22.5 98.5t-59.5 67t-85 37.5t-99 12l-10 17v178q0 14 54 42t118.5 69t119 95t56.5 122h-21q-53 -47 -95 -72t-109 -25q-66 0 -105 25t-61.5 54.5t-32.5 54t-16 24.5h-11q-68 -74 -150.5 -135t-155.5 -130t-122 -153t-49 -200 q0 -74 20.5 -137.5t57.5 -124.5q25 -41 63.5 -81t75.5 -81t63.5 -85t26.5 -95q0 -20 -6 -41t-28 -21q-29 0 -49.5 13.5t-43.5 21.5q-53 12 -87.5 16t-92.5 15q-4 8 -12 25.5t-12 21.5q-53 100 -78 201.5t-25 218.5q0 106 16.5 197t56.5 167t106.5 138.5t168.5 111.5v25 q-111 0 -219 -58.5t-198.5 -148.5t-154 -199t-83.5 -209q-8 -23 -10 -57.5t-2 -69.5q0 -109 9 -197t44 -182q12 -35 36.5 -71.5t24.5 -71.5zM119 782q0 29 11 92.5t29.5 129t44 118t54.5 60.5v-410q0 -6 6 -32.5t15.5 -60.5t18.5 -69t15 -53q53 -162 187.5 -267.5 t300.5 -131.5l10 -11q4 -4 -4 -8t-21.5 -7t-25.5 -4t-15 -1h-16q-117 0 -227.5 60.5t-195.5 154.5t-136 210.5t-51 229.5zM539 430l-4 4q-10 8 10 12l20 5q41 0 81 -39t63 -70h10q14 0 52 36t78 87t69.5 107.5t29.5 97.5v170q-8 18 -9 34.5t-1 36.5q0 53 35 102.5t94 51.5 v-10q-35 -35 -56.5 -72t-21.5 -88q0 -45 20.5 -83t20.5 -81v-471l-14 -20h-47q-131 0 -237.5 49t-192.5 141zM672 1356q-2 20 7 51t34 31q39 0 80 -36t79 -50q53 -18 84 -16.5t46.5 -3.5t19.5 -32.5t4 -107.5v-72q0 -6 -18.5 -29.5t-43 -47t-47 -38t-30.5 -1.5l-168 219 q-47 63 -47 133zM580 1090q0 20 3 45.5t23 35.5l22 -29q23 -28 54 -69t63.5 -85t55.5 -73q8 -10 22.5 -9t22.5 -15q4 -39 5 -69.5t1 -69.5v-15q0 -14 -3 -27.5t-18 -13.5h-6q-35 37 -77.5 81t-79.5 94.5t-62.5 106t-25.5 112.5zM801 -47q162 0 299 58.5t254 166.5 q12 10 30.5 26.5t37 36t31.5 41t13 40.5h-16q-35 -31 -80 -68t-96 -61q-117 -100 -256 -154.5t-299 -54.5h-39t-51.5 1t-50 6t-35.5 15q20 -16 53 -26.5t69.5 -16.5t72.5 -8t63 -2zM1139 1176v67q0 14 54 42t118.5 69t119 95t56.5 122h-21q-33 -29 -69.5 -61.5t-71.5 -64.5 t-67.5 -58.5t-59.5 -43.5q-8 -4 -20.5 -10t-32.5 -10h2q-12 -4 -24.5 -7t-14.5 3v-139l12 -1q11 -1 19 -3zM672 -406h92q182 47 317 170l41 41t27 31v25q-12 0 -38 -18.5t-54.5 -41l-57 -45t-45.5 -32.5q-49 -20 -88 -31q-90 -43 -180 -68h-96q-109 0 -199 21 q63 -29 134 -40.5t147 -11.5zM1139 526v103l20 20q2 2 15.5 0t17.5 -2q84 0 154.5 43t68.5 144q0 12 -5 31.5t-10 37t-10.5 27.5t-5.5 2v-17q0 -66 -22.5 -110.5t-61 -72t-88 -41t-102.5 -13.5h-2q2 0 3 -13.5t1 -15.5v-114q0 -55 2 -121t4 -111q18 4 24.5 40t5.5 76t-3 57z M831 348q-35 0 -41 -6t4.5 -14.5t30 -16.5t33.5 -10q29 29 61.5 68t59.5 84v137q-37 -84 -113 -172v-8q0 -20 -6 -41t-29 -21zM1102 885v6q0 8 10 24.5t23.5 33t24.5 27.5t14 11q23 0 35 -25.5t12 -46.5v-14q0 -8 -11.5 -20.5t-26 -23.5t-29.5 -19.5t-21 -8.5 q-8 0 -19.5 16.5t-11.5 39.5zM432 881v55q0 14 1 26.5t3 26.5q-6 27 -8 52.5t-2 54.5q0 90 -2 121.5t-4 25.5t-6 -41t-6 -80t-4.5 -89t-2.5 -70q0 -35 2.5 -80t8.5 -91.5t17 -86t32 -64.5q-14 16 -20.5 47t-8.5 65.5t-1 68.5t1 59zM170 782q0 -43 9 -110.5t40 -106.5 q-8 8 -11 26.5t-5 39t-2 40v29.5q0 23 6 66v242q-16 -61 -25.5 -129t-11.5 -97zM887 1485q12 16 21.5 23.5t25.5 7.5t58 -18.5t59 -33.5v-6q0 -10 -35 -15t-47 -5q-18 0 -44 12t-38 35zM139 76v-39q0 -20 10.5 -40t18.5 -34q-2 6 -2 21q0 12 1 38.5t7 56.5t17.5 59.5 t29.5 47.5l-18 19q-23 -29 -43.5 -65.5t-20.5 -63.5zM723 1360v-4q0 -49 31 -94v12q0 16 4 40.5t20 35.5q-16 12 -26.5 20t-28.5 -10zM662 1008v20q0 6 -14.5 23.5t-16.5 21.5q0 -8 5 -25.5t11 -33t10.5 -24.5t4.5 -1v19zM954 1270q4 -4 9 -4q8 0 12 -2v20h-23q-23 0 -24 1 t26 -15zM1169 922q0 18 -5 5.5t-7 -22.5q4 4 6 8.5t6 8.5z" />
<glyph unicode="F" horiz-adv-x="1699" d="M31 66q0 -100 54 -172t136 -118t177.5 -67.5t174.5 -21.5q109 0 220.5 30.5t193.5 108.5q31 27 64.5 52.5t33.5 74.5h-10q-70 -80 -157 -116t-187 -58h-127q-70 0 -162 7t-176 34.5t-142 83t-58 151.5q0 98 60 146.5t150 48.5q96 0 180.5 -27.5t157.5 -89.5 q4 -4 16.5 -20.5t26 -35t24.5 -32.5t15 -14q6 2 22.5 20.5t38 43t42 47t35.5 32.5q59 43 120.5 71.5t120.5 76.5q66 51 115 137t49 176q0 72 -25.5 126t-25.5 120q0 23 6 49t19.5 47.5t33 36t47.5 14.5v-4q0 -35 -27.5 -60.5t-27.5 -72.5q0 -51 21.5 -80t47 -51.5t47 -47 t21.5 -67.5v-549l10 -14h7q2 0 3 15.5t3 34t3 32.5l1 14q0 23 -1 52.5t-1 62.5v65q0 23 1 64t2 90t2 100.5t1 94.5q12 18 28.5 21t32.5 13q51 23 77 72t26 102q0 49 -25.5 85t-56.5 60.5t-56.5 38t-25.5 17.5v148q0 14 27.5 37.5t61.5 57.5t62.5 79t28.5 102q0 74 -50 117 t-120 43h-35q-2 0 -6 -7t-4 -10h4q20 -2 48 -8t50.5 -19.5t39 -32.5t16.5 -46q0 -70 -50 -99.5t-108 -29.5q-55 0 -102 17.5t-91 43t-86 56t-85 57.5q-78 47 -166 67.5t-176 20.5q-94 0 -204 -18.5t-203 -65.5t-155.5 -126t-62.5 -200q0 -68 28.5 -124t77 -96t108.5 -61.5 t124 -21.5q172 0 291 113q12 8 31.5 27.5t19.5 23.5v17h-14q-78 -47 -143.5 -73t-153.5 -26q-57 0 -118 13.5t-110 43t-79.5 75.5t-30.5 114q0 61 26.5 109.5t69.5 80t97 49t108 17.5q66 0 124 -21.5t111.5 -54t102.5 -72.5t98 -77q10 -8 43 -23.5t68.5 -32t64.5 -31 t29 -20.5v-6q-94 -86 -154.5 -169t-60.5 -210q0 -94 43 -164.5t94 -146.5q27 -41 57.5 -82t30.5 -92q0 -23 -14.5 -45.5t-36.5 -22.5h-17q-145 174 -368 174q-82 0 -179.5 -29.5t-181.5 -84t-140 -132t-56 -173.5zM1024 1116q0 35 16.5 76t49.5 51q74 0 130 5t121 5h25 l10 -10v-106q0 -18 -15 -29.5t-34.5 -18t-40 -11.5t-33.5 -13q-16 -12 -33.5 -34.5t-33 -46t-27.5 -42t-18 -20.5h-4q-16 0 -36 25.5t-36 58t-28.5 64.5t-12.5 46zM778 -51q6 2 22.5 20.5t38 43t42 47t34.5 32.5q59 43 121 72t121 76q66 51 115 137t49 176q0 47 -13.5 84 t-23.5 74l-4 4q10 -10 10 -40v-40q0 -102 -56 -198.5t-128 -155.5l-2 -2q-14 -16 -18.5 -33t-30.5 -17h-17q-16 -4 -35.5 -14t-35.5 -20q-31 -16 -59.5 -33t-45.5 -29h2q-12 -10 -31.5 -31.5t-39.5 -44.5t-28.5 -37t-25.5 -24q14 -18 24.5 -32.5t14.5 -14.5zM895 874 q0 27 8 50.5t20.5 31t29 -3t34.5 -51.5q20 -29 47 -56.5t49.5 -57t38 -63.5t15.5 -75q0 -18 -9.5 -57t-37.5 -39h-5q-20 0 -52 43t-62.5 98.5t-53 107.5t-22.5 72zM670 1608v10q59 0 115.5 -19.5t108.5 -49t101 -63.5t95 -63q37 -23 83 -35t76 -36l-6 -6q-4 -4 -16.5 -5.5 t-20.5 -1.5q-10 0 -22.5 1t-22.5 1h-51q-47 23 -95 40.5t-93 41.5q-70 37 -126 91.5t-126 93.5zM1458 563v-549l10 -14h7q2 0 3 15.5t3 34t3 32.5l1 14q0 23 -1 52.5t-1 62.5v65q0 23 1 64t2 90t2 100.5t1 94.5q12 18 28.5 21t32.5 13q51 23 77 72t26 103q0 51 -31 90v-9 q0 -66 -31.5 -125t-93.5 -92q-16 -12 -24.5 -16t-11.5 -9t-3 -14.5v-27.5v-24.5t-2 -26.5q2 -5 2 -17zM655 -395q109 0 220.5 30.5t193.5 108.5q31 27 64.5 52.5t33.5 74.5h-10q-10 0 -36.5 -18.5t-59.5 -42t-62.5 -45t-42.5 -27.5q-86 -55 -186 -79t-197 -24h-41.5 t-63.5 2.5t-63.5 8.5t-42.5 18q20 -20 61.5 -32.5t85.5 -18.5t85 -7t61 -1zM434 338v10q0 2 15.5 9.5t37 14.5t44 12t36.5 5h11q51 0 115.5 -25.5t99.5 -66.5q-6 -8 -18.5 -20.5t-28 -23.5t-28.5 -19.5t-22 -8.5q-18 6 -52 24.5t-71.5 38t-75.5 35t-63 15.5zM1489 1122v60 q0 14 27.5 37.5t61.5 57.5t62.5 79t28.5 102q0 29 -8 52.5t-23 43.5v-14q0 -43 -21.5 -92t-50 -91t-59 -69.5t-49.5 -27.5v-117q6 -4 13.5 -9.5t17.5 -11.5zM461 915q43 0 93 10.5t98 31t87 50t62 68.5q0 2 2 4v17h-15q-14 0 -35.5 -10.5t-44 -23.5t-42 -25.5t-27.5 -16.5 q-66 -33 -125 -53.5t-135 -20.5q-23 0 -42.5 1t-37.5 5q80 -37 162 -37zM127 1280q8 -29 27 -51v14q0 61 26.5 109.5t69.5 80t97 49t108 17.5q39 0 69 -8q-72 39 -151 39q-31 0 -76 -10q-66 -41 -111 -99.5t-59 -140.5zM358 168q23 0 71 -1t60 -13q-14 14 -40.5 23 t-57.5 13.5t-61.5 6.5t-53.5 2q-76 0 -111.5 -48.5t-47.5 -111.5q6 -49 30 -82v16q0 98 60.5 146.5t150.5 48.5zM1075 1116q0 -16 12.5 -55t26.5 -66q-8 18 -8 39q0 35 16.5 76t48.5 51q45 0 82 2t72 4v35q-29 0 -52.5 -1t-47.5 -3q-8 0 -34 -5t-50.5 -10t-40 -9.5 t-4.5 -6.5v-6l-19 -18q-2 -4 -2 -15v-12zM1346 885q4 8 14 23.5t20.5 30.5t18.5 27l8 11q12 -8 31.5 -25.5t19.5 -40.5q0 -20 -19.5 -39.5t-31.5 -27.5l-10 -4q-16 -8 -33.5 12.5t-17.5 32.5zM977 788v5q0 25 -8 41t-23 36q2 -35 31 -82zM653 307h6q35 0 34 4t-18.5 9.5 t-41 9.5t-33.5 6q14 -6 27.5 -14.5t25.5 -14.5zM1397 868q-8 -14 -17 -24q10 0 13.5 4t3.5 20zM1454 1602h12q-4 0 -8 4t-4 -4z" />
<glyph unicode="G" horiz-adv-x="1673" d="M158 25q0 -98 51 -168t129 -116t170 -67.5t172 -21.5q170 0 296 62.5t236 183.5q12 16 16.5 26t4.5 29q-23 0 -39 -12.5t-30.5 -29.5t-29 -35.5t-34.5 -29.5q-100 -55 -197.5 -78.5t-212.5 -23.5q-70 0 -155.5 12.5t-161.5 44t-127 90t-51 150.5q0 16 4 42t13 52.5 t25.5 45t38.5 18.5q18 0 44 -14.5t56 -35t58.5 -40t50.5 -27.5q170 -72 355 -72q156 0 288 49.5t228 140.5t150.5 220t54.5 291q0 86 -30 176t-84 163.5t-132 121t-174 47.5q-59 0 -103.5 -25t-76 -53.5t-52 -52t-35.5 -23.5q-4 0 -7 -1t-5 -1q-20 0 -47 32.5t-51.5 75.5 t-40.5 86t-16 64q0 25 5 63.5t40 38.5q23 0 49 -13t57 -30.5t67 -31t72 -13.5q66 0 130.5 17.5t115.5 54.5q31 23 67 55.5t64.5 65.5t49 60.5t20.5 39.5v31q-12 0 -29.5 -14.5t-42 -32t-56.5 -31.5t-73 -14q-61 0 -114.5 28.5t-94.5 77.5q-4 0 -13 15.5t-17 15.5h-7 q-74 -70 -155.5 -133.5t-149 -135t-111.5 -157.5t-44 -203q0 -88 22.5 -172t69.5 -155q23 -35 57.5 -72t66 -77t54 -83t22.5 -92q0 -12 -3 -33.5t-11 -41t-21.5 -34t-31.5 -14.5q-12 0 -29.5 9t-38 21.5t-44 24t-46.5 13.5q-8 2 -26.5 3t-38 3t-38 3t-26.5 1 q-29 18 -42 67.5t-19 106.5t-8.5 109.5t-6.5 74.5v148q0 156 21.5 290t105.5 263q12 18 47 46.5t71 56.5t64.5 50.5t28.5 26.5q-78 0 -140 -32t-132 -66q-94 -49 -173 -123t-137.5 -163t-91 -191.5t-32.5 -208.5q0 -227 102 -431q8 -16 26.5 -36.5t38 -42t34 -42t14.5 -36.5 v-6q-39 -53 -63.5 -101t-24.5 -114zM502 307q0 16 7 18.5t23 2.5q63 0 101.5 -43t77.5 -80q16 0 23 7l24 24q51 43 101 92t89 104t62.5 117.5t23.5 136.5q0 49 -9 105.5t-38 99.5q-10 25 -37.5 60.5t-27.5 72.5q-2 49 47 91t100 42q49 0 77 -47t40 -107.5t14 -113.5t2 -66 v-331q0 -76 -24.5 -155t-71.5 -143.5t-113.5 -106.5t-152.5 -42q-98 0 -171 46t-126 124q-12 18 -26.5 43.5t-14.5 48.5zM123 834q0 104 49 200t115 174q4 4 12 14.5t12 10.5l6 6v-72q0 -31 -1 -103.5t-2 -154.5t-2 -153.5t-1 -100.5q0 -90 19.5 -179t42.5 -175h-15 q-20 0 -27 22.5t-20 38.5q-78 106 -132 220.5t-56 251.5zM1290 393v518q-8 31 -9 64t-1 63q37 0 71.5 -47t60.5 -109.5t41 -122t15 -83.5q0 -39 -20.5 -103.5t-49 -126t-59 -102.5t-49.5 -33h-10v17q0 8 5 32.5t5 32.5zM922 -72q55 0 107 7.5t101 19.5q20 20 52 33.5 t90 15.5q170 82 270 242t100 383q0 47 -9 116.5t-42 116.5q16 -25 18.5 -75t2.5 -76q0 -154 -47 -282t-130 -223t-200 -155.5t-254 -81.5q-35 -4 -71 -7t-70 -3h-60t-73.5 3t-69.5 9t-49 21q27 -23 69.5 -36t91 -19.5t94.5 -7.5t79 -1zM629 1065q0 10 2 30.5t18 20.5h6 q27 -35 74 -84t93 -105.5t80 -114.5t34 -112q0 -6 -2 -22t-6 -33.5t-11.5 -32t-15.5 -14.5l-6 6q-35 47 -81 100.5t-87 111.5t-69.5 120.5t-28.5 128.5zM844 219q-23 0 -31 -5t-20 -17l-7 -7q-31 -31 -25.5 -35.5t32.5 -31.5q16 0 23 7l24 24q51 43 101 92t89 104.5 t62.5 117.5t23.5 136q0 47 -8 100.5t-33 94.5q4 -29 7 -57.5t3 -55.5q0 -119 -52 -211t-126 -170q-6 -29 -20 -57.5t-43 -28.5zM762 -430q170 0 296 62.5t236 183.5q12 16 16.5 26.5t4.5 28.5q-23 0 -39 -12.5t-30.5 -29.5t-30 -34.5t-33.5 -30.5q-23 -10 -44.5 -20 t-43.5 -20q-88 -59 -188.5 -91t-225.5 -32h-40t-59.5 2t-59 8t-40.5 18q20 -20 58.5 -31.5t80.5 -17.5t82 -8t60 -2zM1047 1253q49 16 94 17q51 0 95 11t89 44q31 23 66.5 55.5t64.5 65.5t49.5 60.5t20.5 39.5v31q-23 0 -54.5 -25.5t-64.5 -60.5t-65.5 -68.5t-57.5 -50.5 q-135 -88 -287 -88q-20 0 -38.5 1t-36.5 5q59 -29 125 -37zM496 502q-2 12 -4.5 36.5t-4.5 49t-4 44t-2 23.5v148q0 53 2 102t6 96q-2 18 -3 37t-1 37q0 147 60.5 249.5t150.5 186.5q-37 -12 -77.5 -51t-49.5 -51q-80 -119 -99 -248t-19 -276v-148q0 -8 4 -57t12 -105.5 t19.5 -101.5t25.5 -45q-4 51 -16 74zM174 834q0 -51 10.5 -119t38.5 -105q-14 20 -16 67.5t-2 74.5q0 74 29.5 142.5t29.5 143.5v29.5t2 30.5q-41 -59 -66.5 -126.5t-25.5 -137.5zM1372 502v327q-8 29 -14 59t-23 52l6 -25v-471q8 14 15.5 29t15.5 29zM922 1475q0 2 9 9 t20.5 16t21.5 16.5t10 9.5h25l102 -41v-17q0 -4 -22.5 -15t-38.5 -15h-31q-27 0 -53.5 7t-42.5 30zM276 -63v22q0 14 3.5 36.5t11.5 46.5t19.5 43t29.5 28q-25 20 -44.5 2.5t-28.5 -50t-7 -69t16 -59.5zM981 995q4 -10 10 -18t13 -19q8 35 40.5 67t69.5 44 q-12 25 -32.5 17.5t-41 -26t-38 -40t-21.5 -25.5zM788 1233v6q0 33 9.5 63.5t-11.5 45.5q-8 8 -14 1.5t-14 -14.5v-14q-1 -43 30 -88zM711 977q-6 6 -12.5 13t-8.5 7q2 -12 9.5 -31.5t15.5 -33.5q-2 10 -3 22.5t-1 22.5zM596 244q-16 16 -23 18l13 -18h-2l1 -3t1 -1 q4 4 10 4zM973 1495q-2 2 -4 3t-4 5q2 -6 8 -8z" />
<glyph unicode="H" horiz-adv-x="1884" d="M31 82q0 -106 46 -184t120.5 -129.5t168 -77t187.5 -25.5q162 0 299 55.5t248 176.5q8 10 19 22t11 29h-20q-119 -127 -264.5 -166t-313.5 -39q-72 0 -153.5 15.5t-151 51t-115.5 94t-46 146.5q0 109 69.5 157t165.5 48q82 0 148.5 -21.5t128.5 -70.5q8 -6 21 -24.5 t28.5 -38t30 -35t22.5 -15.5q23 0 42 39t36 57q68 80 127 137.5t103 116t70.5 128t26.5 178.5q0 57 -29.5 122.5t-58.5 112.5v35l52 51q14 14 34.5 28.5t39 18.5t31.5 -6t13 -47v-465q0 -12 -3 -51t-3 -51q-10 -16 -27.5 -25.5t-33.5 -19.5q-47 -29 -66.5 -72t-19.5 -92 q0 -57 26.5 -96t68.5 -64t92 -35t99 -10q100 0 186.5 55.5t150 141.5t99.5 187t36 193q0 111 -24 189t-61.5 145.5t-88 135t-103.5 155.5q-12 23 -19.5 63t-27.5 40q-6 0 -25.5 -21.5t-44 -49.5t-49 -52.5t-39.5 -30.5q-8 -4 -37.5 -18.5t-63.5 -30t-62.5 -29.5t-36.5 -18 q-16 -8 -32 -22.5t-31 -29t-31.5 -25.5t-32.5 -11h-7q-63 61 -118.5 136t-55.5 167q0 8 3 27.5t10.5 40t17.5 34.5t27 14h4q41 -23 71.5 -39t58 -27t56.5 -18.5t66 -7.5q74 0 131 23.5t106 63.5t91 91.5t85 104.5q4 4 10.5 14t10.5 10v11q0 2 -8.5 6t-5.5 4 q-47 -41 -97.5 -68.5t-113.5 -27.5q-43 0 -80 19.5t-64.5 42t-46 42t-24.5 19.5q-18 -2 -49 -36t-44 -46q-70 -59 -142.5 -116.5t-131.5 -123t-97 -145.5t-38 -185q0 -76 23.5 -137t61.5 -115.5t85 -105.5t92 -107q23 -29 47.5 -67.5t24.5 -75.5q0 -16 -4.5 -44t-26.5 -28 h-6q-6 0 -31 14.5t-53.5 31t-53 32t-30.5 19.5q-47 23 -111.5 26.5t-113.5 3.5q-78 0 -159 -31.5t-148.5 -87t-110.5 -129t-43 -155.5zM1290 76v26q39 31 65.5 77t26.5 97q0 66 -26.5 98t-60 49t-64.5 28.5t-39 33.5v164v84v86t2 84t6 64.5t12 25.5h7l19 -25 q19 -26 44 -58.5t49.5 -65.5t34.5 -45q84 -94 139.5 -196.5t55.5 -229.5q0 -119 -74 -208t-197 -89zM1321 1065q0 16 39 34.5t57 20.5h6q39 -47 83 -103t81 -117.5t61.5 -127t24.5 -133.5v-18q0 -23 -4 -56t-16 -33h-4q14 0 -12.5 51.5t-66.5 115t-78 118.5t-44 64 q-12 12 -32.5 37.5t-42 53t-37 54.5t-15.5 39zM680 1049q0 12 2 16h4q-2 0 -4 2q8 20 21.5 39.5t13.5 3.5l4 -4q35 -49 80 -100.5t86 -104.5t68.5 -111.5t27.5 -123.5v-31l-6 -5q-6 -5 -4 -5h-10q-27 43 -75 91t-94 101t-80 112t-34 120zM1382 -41q100 0 186.5 55.5 t150 141.5t99 187t35.5 194q0 33 -2 72.5t-8 76.5t-15 68.5t-26 46.5q8 -10 13.5 -33t6.5 -50.5t1 -54v-45.5q0 -127 -62.5 -267t-167.5 -236q-35 -53 -92 -87t-129 -34v4q0 -4 -32.5 -6t-39.5 -2q-23 0 -48 3t-54 7q41 -23 89 -32t95 -9zM635 -416q162 0 299 55.5 t248 176.5q8 10 19 22t11 29h-20q-61 -66 -129 -106t-141 -62q-168 -84 -369 -84h-39t-56.5 1t-55 6t-35.5 16q18 -18 52 -28.5t73.5 -16t78.5 -7.5t64 -2zM1178 1253q72 0 139 27l37 43q27 29 45 51.5t49 22.5q14 0 39.5 25.5t50.5 56t45.5 56.5t28.5 26v10q0 8 -16.5 1 t-38 -21.5t-42 -28t-30.5 -17.5q-76 -88 -165 -154.5t-224 -66.5q-49 0 -49 -5t23.5 -10t57.5 -10.5t50 -5.5zM762 -31q6 0 37.5 36t68.5 81t66 86t29 51v23v33l-9 4l-32 -33q-8 -8 -49.5 -53t-79 -95.5t-55 -91.5t23.5 -41zM414 352v6q47 35 108 35q53 0 105.5 -24.5 t93.5 -51.5v-10q0 -16 -14.5 -36.5t-30.5 -20.5q-6 0 -27.5 11t-49.5 25.5t-57.5 28t-49.5 17.5q-4 4 -35 8t-43 12zM147 -31q-2 109 69 157t167 48q55 0 96 -8q-78 39 -178 39q-84 0 -127 -38t-57 -118q0 -8 5 -30.5t10 -41t10 -25t5 16.5zM1126 229v17q0 29 22.5 52.5 t49.5 32.5t49.5 -1.5t22.5 -48.5q0 -31 -31 -62t-57 -31h-15zM1274 487v80v47v68v76v37.5t2 33.5q-6 10 -13.5 18.5t-13.5 18.5v-368q0 -2 10.5 -4.5t14.5 -6.5zM1028 1468l47 48h4q4 0 22.5 -6.5t38 -13.5t36.5 -14l16 -7q-10 -20 -40 -28.5t-52 -8.5h-19q-14 0 -33.5 6 t-19.5 24zM864 1229q0 16 7.5 34.5t12.5 36t5 33t-15 23.5l-40 -41v-4q0 -10 5 -28.5t10 -36t10 -29t5 -7.5v19zM1432 297q0 -4 1 -10t1 -11q0 -59 -31 -116q29 16 59 59q-5 51 -30 78zM1401 1069l-29 -4q0 -6 12.5 -24.5t28.5 -41.5q29 20 18.5 32.5t-30.5 37.5zM1063 930 q4 -10 8 -17.5t8 -17.5l37 37v35q-14 -12 -26.5 -22.5t-26.5 -14.5zM1178 250l10 -10q10 4 20.5 16t10.5 25v6q0 6 -19.5 -13.5t-21.5 -23.5zM1110 475q2 6 2 17q0 37 -6 32.5t-10 -20t-3 -30.5t17 1zM762 946v23q0 2 -9.5 12t-11.5 12q4 -12 9.5 -24.5t11.5 -22.5z" />
<glyph unicode="I" horiz-adv-x="1406" d="M31 45q0 -104 51 -180t130 -125t173 -73.5t182 -24.5q162 0 298 72.5t245 193.5l3 5t3 9l4 10h-20q-119 -100 -249 -144t-284 -44q-72 0 -160 12.5t-166.5 45t-132 92t-53.5 151.5q0 49 22.5 88t57.5 64.5t81 39t91 13.5q86 0 162 -21.5t145 -74.5q8 -6 29 -29 t42.5 -47.5t39.5 -44t23 -19.5q8 0 22 15.5t29.5 36t30 38t20.5 23.5q76 72 155.5 125t143 113.5t104.5 139.5t41 202q0 72 -15 140t-50 130q-37 61 -74 119.5t-39 136.5q0 35 15.5 64.5t15.5 64.5h-21q-4 0 -27.5 -16.5t-33.5 -24.5q-82 -74 -131 -161t-49 -197v-72 q8 -20 15 -43t11 -45l148 -291q12 -23 14 -44.5t2 -47.5q0 -12 -2 -30.5t-8 -37t-17.5 -32t-29.5 -13.5h-10q-96 80 -199.5 134.5t-235.5 54.5q-88 0 -184 -33t-176 -92.5t-131 -142.5t-51 -183zM168 1382q0 -68 29.5 -123t78 -93t108.5 -59.5t122 -21.5q23 0 67.5 11.5 t90 30t80 43t34.5 49.5q-27 0 -51.5 -9.5t-50 -19.5t-55 -19.5t-68.5 -9.5q-49 0 -111.5 7.5t-118 31t-92 64.5t-36.5 108q0 66 33.5 110t99.5 44q74 0 132 -34t116.5 -74t123 -73.5t150.5 -33.5q70 0 131 12t119 53q39 29 79 80t40 105q0 45 -28 92t-81 47v-21 q23 -16 45.5 -31.5t22.5 -50.5t-29 -53t-59 -18q-47 0 -85 25.5t-79 50.5q-80 47 -162 79.5t-176 32.5q-70 0 -143.5 -23.5t-135 -66.5t-101.5 -104.5t-40 -137.5zM829 -68q8 0 22.5 15.5t30 36t30 38t20.5 23.5q76 72 155.5 125t143 113.5t104.5 139.5t41 202 q0 49 -8 122.5t-41 112.5q16 -20 17.5 -73.5t1.5 -79.5q0 -156 -54.5 -245t-138.5 -161q-4 -27 -16.5 -51.5t-36.5 -24.5h-10q-23 0 -49.5 -14t-55.5 -35.5t-56.5 -47.5t-51.5 -46q-20 -25 -43 -58.5t-50 -48.5q16 -18 28.5 -30.5t16.5 -12.5zM1151 584l-154 307 q-4 18 -12 37.5t-8 38.5q0 31 14.5 66.5t42.5 51.5l4 -6q18 -39 47 -84t54.5 -92t44 -95t18.5 -91q0 -37 -14 -77t-27 -56h-10zM526 1591v6q0 10 26 15.5t36 5.5q49 0 98 -18.5t96 -46t90 -59.5t80 -56q-12 -18 -40.5 -26.5t-51.5 -8.5q-45 0 -91 20.5t-89 50t-82 62 t-72 55.5zM414 342v6q0 12 22.5 21.5t50 17.5t54 12t37.5 4q18 0 60 -12t85 -30.5t77 -40t34 -39.5v-5q0 -8 -11.5 -19t-27 -20.5t-30.5 -15.5t-24 -6q-18 0 -34.5 16.5t-36.5 24.5q-59 35 -105.5 56.5t-124.5 19.5q-10 10 -26 10zM649 -440q162 0 298 72.5t245 193.5l3 5 q3 5 3 9l4 10h-20q-98 -80 -195 -122q-92 -66 -196.5 -102t-223.5 -36h-40.5t-59.5 2t-59.5 8.5t-40.5 18.5q20 -20 58 -31.5t80 -17.5t81.5 -8t62.5 -2zM588 1004q23 0 67.5 11t90 29.5t80 43t34.5 49.5q-31 0 -78 -15.5t-99 -35t-99 -36t-78 -16.5q-51 0 -86 8 q80 -38 168 -38zM137 -59v22q2 100 80 152.5t172 52.5q66 0 123 -12q-47 23 -98.5 33t-106.5 10q-74 0 -133 -37q-29 -45 -51.5 -107.5t14.5 -113.5zM1300 1479q0 8 -5 24.5t-10 31.5t-10 24.5t-5 1.5q0 -45 -21.5 -87t-50.5 -77q-2 -39 -6 -61.5t-8 -39.5q39 29 77.5 79.5 t38.5 103.5zM410 1444h18q10 0 0 5t-28.5 10t-39 10.5t-32.5 5.5q-25 0 -40.5 -22.5t-21.5 -53.5t-4 -61.5t14 -47.5q0 66 34 110t100 44zM1198 1151q0 35 15.5 64.5t15.5 64.5h-21q-8 0 -24.5 -12.5t-16.5 -34.5q0 -61 33 -115q-2 6 -2 33zM913 1229q23 29 18 30t-38 1h-43 h-21q-2 0 -3 -9.5t-1 -5.5q45 -16 88 -16zM1059 881v4q0 23 6 47q-8 14 -16.5 28.5t-18.5 28.5q-2 -6 -2 -22q0 -14 9.5 -36t11.5 -30zM657 322h2q33 0 115 -31h2q-4 4 -41 19.5t-70.5 26.5t-44 11.5t36.5 -26.5zM715 1532q-55 25 -52 13.5t35 -11.5q11 0 17 -2z" />
<glyph unicode="J" horiz-adv-x="1406" d="M31 41q0 -106 49 -186t127 -133.5t173 -80t187 -26.5q162 0 298 74.5t245 191.5q12 16 21.5 27.5t9.5 34.5h-15q-113 -111 -259 -160t-300 -49q-66 0 -153.5 11t-167.5 42t-135.5 87t-55.5 146q0 53 23.5 93.5t61.5 66t84 37.5t93 12q119 0 209 -44t181 -113 q12 -14 25 -42t30 -30h6q12 0 28.5 33t22.5 39q53 57 108.5 102t121.5 92q121 88 183 197.5t62 263.5q0 82 -29.5 145.5t-64.5 121t-64.5 113.5t-29.5 126q0 18 8 50t12 58.5t-3 33.5t-38 -23q-90 -86 -153.5 -169t-61.5 -210q0 -102 39 -189.5t88 -175.5q27 -49 52.5 -95 t25.5 -103q0 -10 -2 -27.5t-8 -34t-16.5 -29t-24.5 -12.5q-10 0 -36.5 17.5t-57.5 39t-60.5 42t-46.5 28.5q-113 57 -235 58q-90 0 -188.5 -33t-180.5 -92.5t-135 -142.5t-53 -183zM133 1372q0 -63 31 -118.5t79 -96.5t109.5 -64.5t122.5 -23.5q25 0 75 11.5t99 30.5t86 47 t37 61h-31q-72 -37 -120 -49.5t-125 -12.5q-49 0 -106.5 9.5t-107 33t-82 63.5t-32.5 103q0 66 39 102.5t104 36.5q70 0 129.5 -33.5t118.5 -73.5t125 -74t150 -34q53 0 117.5 20.5t119.5 57.5t93 88t38 115q0 45 -36 89t-87 44q0 -20 11.5 -30.5t24.5 -18.5t24.5 -19.5 t11.5 -33.5q0 -76 -76 -76q-66 0 -119 35.5t-106 66.5q-131 76 -287 76q-68 0 -143.5 -23.5t-139 -66.5t-105.5 -104.5t-42 -137.5zM963 973q0 12 5 31.5t13 38t17.5 33t19.5 14.5l6 -5q18 -45 49 -91t59.5 -94t49 -98t20.5 -106q0 -8 -4 -27.5t-10 -41t-14.5 -38 t-16.5 -16.5h-6q-20 39 -52 91.5t-62.5 107.5t-52 108.5t-21.5 92.5zM844 -82h6q12 0 28.5 33t22.5 39q53 57 108.5 102t120.5 92q121 88 183.5 198t62.5 263q0 47 -11 88t-28 78q8 -35 9 -84q0 -143 -50.5 -249.5t-144.5 -192.5q-4 -23 -14.5 -41.5t-30.5 -18.5t-55 -21.5 t-72 -51t-69.5 -62.5t-53.5 -55q-16 -14 -25.5 -33.5t-25.5 -36.5q10 -16 19.5 -31.5t19.5 -15.5zM389 328v4q0 6 22.5 16t54.5 20.5t65.5 17.5t56.5 7q18 0 60 -11t85 -27.5t77 -38t34 -40.5v-10l-76 -67l-6 -2t-10 -2q-25 0 -53.5 25.5t-53.5 35.5q-16 18 -48 31.5 t-68.5 20.5t-73.5 11.5t-66 8.5zM492 1577v4q0 18 21.5 22.5t41.5 4.5h18q51 0 106.5 -23.5t105 -53.5t89 -57.5t62.5 -35.5v-11q0 -4 -15.5 -9t-34 -10t-35.5 -8t-22 -3q-61 2 -154 60.5t-183 119.5zM649 -467q162 0 298 75t245 191q12 16 21.5 27.5t9.5 34.5h-15 q-88 -86 -192 -133q-98 -74 -210 -119t-239 -45h-40.5t-54.5 2t-53.5 7t-37.5 15q23 -18 58.5 -29.5t74.5 -17.5t74.5 -7t60.5 -1zM557 987q31 0 75 9.5t87 28.5t79 47t52 65h-27q-47 -27 -84 -40.5t-77 -17.5q-53 -29 -105.5 -45t-81.5 -16q-20 0 -38.5 1t-35.5 5 q35 -16 75 -26.5t81 -10.5zM399 147q59 0 111 -12q-45 20 -92 31.5t-101 11.5q-104 0 -153 -56t-51 -151q10 -29 24 -49v17q0 53 23.5 93t61.5 65.5t84 37.5t93 12zM1284 1489q0 43 -31 82q0 -47 -18 -90t-47 -78q-2 -39 -6 -63.5t-8 -41.5q47 37 78.5 85.5t31.5 105.5z M393 1423q25 0 19 5.5t-25.5 10.5t-43.5 10t-32 5q-45 0 -63.5 -39t-26.5 -72q6 -37 29 -59q0 66 38.5 102.5t104.5 36.5zM1188 1151q0 18 8 50t12 58.5t-3 33.5t-38 -23l-6 -6q-2 -2 -3 -14.5t-1 -16.5q0 -63 35 -127q-2 10 -3 21.5t-1 23.5zM670 311q14 0 46 -8t68 -20 l2 2q4 4 -25.5 14t-68.5 19.5t-72 16.5l-32 7h-15q10 0 37 -12.5t41 -20.5q5 2 19 2zM889 1208q6 10 13 20.5t16 20.5q-27 -4 -47.5 -7t-36.5 -3h-15q-2 0 -2 -4v-4q0 -10 27 -15.5t45 -7.5zM1014 993v-20q0 -43 33 -111q-2 6 -3 29q0 16 7 41zM692 1522q-53 27 -56 18.5 t56 -18.5z" />
<glyph unicode="K" horiz-adv-x="1949" d="M31 55q0 -100 50 -176t127 -125t170 -73.5t179 -24.5q174 0 315.5 69.5t257.5 196.5q10 0 11 17v10h-15q-121 -109 -260 -155t-299 -46h-116q-61 10 -129 32.5t-125.5 60.5t-94 92.5t-36.5 127.5v52q25 43 46 68.5t45.5 40t58.5 19.5t85 5q121 0 225.5 -62.5 t153.5 -179.5h10l10 18q11 19 25 43.5t27.5 49t19.5 39.5q49 66 103.5 123t101.5 117.5t77.5 129t30.5 156.5q0 49 -8 85t-22 79q-12 35 -31.5 69.5t-19.5 69.5q0 14 13 32.5t32.5 34t42 25.5t38.5 10h11q0 -12 2 -38.5t3 -56t3 -56.5t2 -39v-117q-8 -20 -19.5 -31.5 t-11.5 -29.5q0 -29 31 -41q12 -82 16 -165t4 -169q0 -59 -1 -115.5t-3 -113.5q6 -16 15 -17v553q0 23 22.5 37t44.5 14q35 0 58.5 -35.5t23.5 -66.5v-307q0 -27 21.5 -72t53.5 -88t65.5 -74.5t58.5 -31.5q10 0 21.5 14t23.5 34.5t23.5 40t23.5 29.5l205 205q27 27 15.5 25 t-36 -16.5t-51 -30t-31.5 -15.5q-14 0 -23 21.5t-17.5 53.5t-14.5 69t-16 67q-14 47 -43 82t-68 61.5t-83 44t-87 31.5v7q0 6 24.5 22t55.5 37.5t59.5 41t38.5 32.5q35 39 43.5 79.5t8.5 88.5q0 98 -47.5 178t-110.5 155h-10q-82 -78 -186.5 -153.5t-192.5 -132.5 q-12 -20 -36 -41t-46 -21q-25 0 -57.5 36t-62.5 84t-50.5 99.5t-20.5 81.5q0 10 2 27.5t8.5 34t16.5 29t25 12.5q53 -29 114.5 -55.5t126.5 -26.5q139 0 243.5 73.5t190.5 178.5q16 16 34 39.5t18 52.5h-15q-43 -35 -90 -69t-104 -34q-47 0 -93.5 11.5t-80.5 40.5 q-27 20 -43.5 58t-38.5 38q-6 0 -6 -4q-70 -82 -156 -150.5t-162 -142.5t-127 -163t-51 -216q0 -94 22.5 -166t61.5 -135t92 -124.5t115 -131.5q20 -23 28.5 -42t8.5 -50v-27q0 -20 -14.5 -20t-34 9t-38 21.5t-26.5 16.5q-61 23 -118.5 39t-127.5 16q-88 0 -182 -27.5 t-172 -81t-128 -131.5t-50 -180zM686 1059q0 51 31 92h4l19 -29q20 -30 48.5 -68t60.5 -73t52 -45q2 0 15.5 -37t29 -83t28.5 -85t13 -45q0 -16 -4 -38.5t-20 -33.5q-43 39 -91.5 89.5t-89.5 107.5t-68.5 119.5t-27.5 128.5zM1182 782q-6 49 -6 88q0 25 1 49.5t1 53.5v96 q0 4 6 15.5t14 11.5h4q25 0 56.5 -30t59.5 -69t46 -76.5t18 -56.5q0 -37 -27.5 -62.5t-63.5 -36.5t-67.5 -8.5t-41.5 25.5zM1413 379l4 4q10 10 9 47t-5 75t-6 65.5t8 17.5l11 10q76 -33 120.5 -123t42.5 -174q0 -6 -11 -20.5t-25.5 -29.5t-28.5 -28.5t-23 -17.5h-4 q-12 0 -27.5 22.5t-29.5 52t-24.5 58.5t-10.5 41zM762 -78h10l10 18q11 19 25 43.5t27.5 49t19.5 39.5q66 88 142.5 163.5t123.5 170.5q-2 16 -2 32.5v30.5q0 16 -1 32.5t-3 33.5q-16 -53 -46 -99.5t-64 -91.5v-33q0 -2 -9.5 -10t-11.5 -10q-25 0 -70 -41t-85 -99.5 t-62 -121t-4 -107.5zM639 -426q174 0 315.5 69.5t257.5 196.5q10 0 11 17v10h-15q-16 0 -48 -20.5t-67.5 -46t-69.5 -49t-52 -30.5q-92 -57 -194.5 -86.5t-219.5 -29.5h-42t-53.5 2t-53 7t-37.5 15q23 -18 58.5 -29.5t73.5 -17.5t74.5 -7t61.5 -1zM1612 -57q10 0 21.5 14 t23.5 34.5t23.5 40t23.5 29.5l205 205q27 27 15.5 25t-36 -16.5t-51.5 -30t-31 -15.5q-10 0 -16 9l-131 -132q-10 -10 -18.5 -22t-16.5 -25q-12 -23 -29.5 -43t-26.5 -36.5t-1 -26.5t45 -10zM424 342q0 8 16.5 15.5t38 13.5t43 9t31.5 3q16 0 46 -6t60.5 -15.5t54 -20.5 t27.5 -24v-4q-2 -23 -32.5 -49t-38.5 -35q-72 43 -121 69t-125 44zM1157 1274h35q25 0 55.5 18.5t61 43t58.5 52t46 46.5h53q12 -18 42 2t59.5 54t52 71.5t22.5 56.5h-14q-6 0 -22.5 -11.5t-34 -25.5t-32.5 -27.5t-23 -17.5q-88 -98 -193.5 -164.5t-247.5 -66.5 q-20 0 -39.5 1t-36.5 5q37 -16 77 -26.5t81 -10.5zM1632 799q35 39 43 80t8 88q0 43 -11 83t-30 78q10 -51 11 -79q0 -53 -9.5 -103.5t-56.5 -99.5l4 4q-14 -16 -46 -40t-64 -46v2q-2 -2 -4 -3t-4 -3q59 -27 95.5 -10.5t63.5 49.5zM1335 1147q16 16 44 33.5t38 21.5 q8 0 23.5 -20.5t31 -47t26.5 -52t11 -38.5q-6 -16 -15 -38.5t-19 -22.5q-39 31 -74 76t-66 88zM147 -43v74q25 43 46.5 68.5t46 40t58.5 19.5t85 5q37 0 74 -6q-74 37 -156 37q-100 0 -135 -39t-49 -121q7 -43 30 -78zM1004 1489v6l75 61h21q0 -14 42 -23t66 -24h4l-14 -8 q-14 -8 -34.5 -17t-40 -17.5t-27.5 -8.5h-27q-20 0 -43.5 6.5t-21.5 24.5zM1253 260q0 -59 -1 -115.5t-3 -113.5q6 -16 15 -17v553q0 20 16 33q-2 16 -11 32.5t-20 16.5h-16v-55q0 -82 10 -165t10 -169zM1495 297l4 4q4 4 5 26.5t1 49t-1 51.5t-1 33q-18 31 -26.5 33 t-10.5 -10.5t0 -32t2 -29.5v-62l-2 -2q-6 -6 -1 -23.5t13.5 -34.5t16.5 -30.5t6 -11.5q-2 0 -4 20.5t-2 18.5zM1233 813v-4h24q0 20 1.5 39.5t1.5 42.5v90q-8 6 -15.5 13t-15.5 16v-37q0 -14 -1 -27.5t-1 -25.5q2 -33 4 -64t2 -43zM864 1233v20q0 20 7.5 38t11.5 32t0 25.5 t-25 19.5l-24 -25v-8q0 -27 8 -52t22 -50zM1085 897v4q0 10 5.5 21.5t5.5 25.5q0 23 -9.5 14.5t-25.5 -10.5q8 -14 18 -37h-2l4 -10q4 -10 4 -8zM768 977v8q0 6 -13.5 18.5t-15.5 18.5q8 -51 35 -102q-6 26 -6 57zM1735 440q-6 23 -19 43q8 -29 16.5 -62.5t0.5 -49.5l16 16 q-4 14 -7 27.5t-7 25.5zM668 297q12 6 8 11t-16.5 8t-28 5.5t-27.5 4.5q12 -8 30 -18.5t34 -10.5zM1444 1087v0q-10 0 -11 14.5t-1 28t-5.5 18.5t-21.5 -11q10 -12 19.5 -25t19.5 -25z" />
<glyph unicode="L" horiz-adv-x="1679" d="M31 86q0 -102 61.5 -180t151.5 -131.5t193.5 -81t187.5 -27.5q41 0 93 7.5t91 19.5q35 12 92 38.5t111.5 63.5t94.5 79t40 85q-23 0 -41.5 -13.5t-35.5 -30.5t-31.5 -33.5t-30.5 -24.5q-94 -51 -178.5 -69.5t-184.5 -18.5q-72 0 -173 14t-193.5 50t-158 97.5t-65.5 155.5 q0 104 62.5 164.5t163.5 60.5q35 0 80 -17.5t96 -42t104 -53t105 -51.5q86 -39 162.5 -62.5t168.5 -23.5q160 0 288 78t210 213q18 31 45 73t27 81h-21q-14 -27 -34.5 -63.5t-48 -70.5t-60.5 -57.5t-72 -23.5q-37 0 -37 39v88q0 76 -3 181.5t-5 208.5t-4 189t-2 123v256 q47 53 99.5 92t99.5 93q8 10 21 27.5t25.5 34.5t21.5 30.5t9 15.5v35h-10q-25 0 -49 -15.5t-49 -33t-52.5 -32.5t-60.5 -15q-70 0 -130 33.5t-79 103.5h-10q-8 0 -20.5 -11.5t-24.5 -25.5t-22.5 -27.5t-14.5 -17.5q-63 -57 -136 -111.5t-135.5 -116t-103.5 -135t-41 -170.5 q0 -57 17.5 -132.5t60.5 -123.5l226 -249q23 -25 32 -45.5t9 -53.5q0 -23 -10.5 -52.5t-41.5 -29.5q-23 0 -43 9.5t-39 17.5q-127 45 -256 45h-49q-31 0 -61.5 -6t-73.5 -18q-10 -23 -31 -23q-16 0 -36 -4q-119 -53 -205 -146.5t-86 -232.5zM963 403q-8 0 -9.5 6.5 t-1.5 10.5l4 10q78 80 124 161t46 191q0 72 -24.5 132.5t-61 114.5t-82 104.5t-88.5 99.5q-14 18 -29.5 56t-21.5 77t2 68.5t39 29.5h10q49 -61 108.5 -86.5t131.5 -25.5q31 0 58.5 5t54.5 5q10 0 18 -62.5t14.5 -159t9.5 -212t5 -224t3 -193.5t1 -118q0 -23 -1 -51.5 t-9 -50.5h-25q-51 0 -123.5 37.5t-152.5 74.5zM485 369l-20 14q10 27 40 32t58 5h21q80 0 151.5 -32t145.5 -71q57 -31 125.5 -59.5t130.5 -58.5v-4q0 -8 -18.5 -15.5t-43 -13.5t-47 -9t-31.5 -3q-63 0 -129.5 23.5t-119.5 51.5q-27 14 -71 37t-87 45.5t-58 30.5zM717 1126 v4q0 8 7 28t7 24l17 10q12 -12 37.5 -43t54 -64.5t54.5 -64.5t38 -43q31 -35 66.5 -91.5t35.5 -107.5q0 -16 -5 -32.5t-21 -24.5q-12 10 -38 36.5t-53.5 56.5t-52 55.5t-35.5 35.5q-39 43 -75.5 102.5t-36.5 118.5zM1362 1038v256q47 53 99 92t100 93q8 10 21 27.5t25.5 35 t21.5 30.5t9 15v35h-10q-6 0 -19.5 -9t-26.5 -19.5t-24.5 -21.5t-17.5 -13q-20 -35 -46 -60.5t-53.5 -48.5t-56 -44.5t-53.5 -49.5v-211q0 -201 11.5 -400.5t13.5 -398.5q12 10 20 12q0 78 -3 180.5t-5 202t-4 181t-2 116.5zM1067 -20q23 14 53.5 22t77.5 8q0 -14 -2 -18 q121 25 218 96.5t163 181.5q18 31 45 73t27 81h-21q-12 -23 -29.5 -53.5t-39 -60t-47 -55.5t-56.5 -38q-88 -98 -204.5 -152.5t-254.5 -54.5q-37 0 -94 2t-86 23q47 -33 119 -43t131 -12zM707 -416q41 0 93 7.5t91 19.5q35 12 92 38.5t111.5 63.5t94.5 79t40 85 q-23 0 -41.5 -13.5t-35.5 -30.5t-31.5 -33.5t-30.5 -24.5q-27 -14 -51.5 -24.5t-49.5 -20.5q-47 -33 -91 -54.5t-73 -31.5q-41 -14 -97 -21.5t-103 -7.5q-35 0 -102.5 3t-106.5 30q29 -18 67.5 -30.5t79.5 -20t79 -10.5t65 -3zM1042 422q6 -6 27 -14h-2q27 -14 52.5 21.5 t46 87.5t31.5 105.5t11 77.5q0 47 -10 87t-29 79q8 -35 9 -84q0 -104 -36 -182t-98 -149v-7q0 -16 -2 -22zM1024 1485q0 12 13.5 23.5t29.5 21.5t29.5 17t13.5 14q6 0 26.5 -6.5t44 -15.5t41 -17.5t17.5 -12.5q0 -16 -15.5 -27.5t-37 -18.5t-43 -11t-33.5 -4q-18 0 -44 12.5 t-42 24.5zM362 229q23 0 14 5.5t-29.5 10.5t-42 10t-23.5 5q-37 0 -72 -12q-18 -20 -41 -53t-37 -69t-15 -73t21 -63v14q0 104 62.5 164.5t162.5 60.5zM1192 1270h4q-2 0 -2 8v10q0 23 -20.5 17.5t-63.5 -5.5h-35q-12 0 -33 5q64 -35 150 -35zM901 1276v14q0 29 2 45.5 t-29 46.5l-4 -4v-6q0 -51 31 -96zM651 338h15q16 0 35.5 -3t41.5 -7q-39 16 -77.5 27.5t-75.5 13.5zM1188 1509h-62l-6 -10q16 0 42 3t26 7zM799 1032v21q0 4 -10.5 14t-12.5 12q2 -10 8.5 -21.5t14.5 -25.5zM772 274l-4 2q2 0 2 -1t2 -1z" />
<glyph unicode="M" horiz-adv-x="2533" d="M1321 246q2 -16 32.5 -24.5t43.5 -16.5q63 -37 97 -89.5t67 -111.5q4 0 18 22.5t33.5 52.5t39 58.5t31.5 40.5q4 4 21.5 16.5t37 27t35 25.5t15.5 13v6q0 4 -14.5 20.5t-16.5 20.5q-47 72 -47 144v833l10 129q0 8 15.5 32.5t25.5 33.5h47q39 0 72 -16.5t65.5 -35 t69.5 -35t84 -16.5q20 0 42 5t40 5h10q-92 -92 -150 -174t-92 -168t-46.5 -186t-12.5 -229q0 -104 16.5 -197.5t55.5 -191.5q6 -14 25.5 -50t45 -73t52.5 -64.5t45 -27.5h10q4 0 32 29.5t60.5 66.5t62.5 69.5t36 38.5q31 31 58.5 48.5t27.5 60.5q-27 0 -38 -20.5t-38 -20.5 q-53 0 -80 79t-36 189.5t-8 229t1 198.5v25q0 78 6 157.5t35 149.5q8 18 28.5 41t42 44.5t39 39.5t17.5 29q-37 0 -67.5 -26t-59.5 -26v11q0 6 21.5 33.5t49 59.5t52 61.5t31.5 39.5v10q0 4 -1 10.5t-10 6.5q-12 0 -21 -12.5t-20.5 -26.5t-26 -26.5t-34.5 -12.5 q-43 0 -67.5 21.5t-55.5 39.5q-47 29 -92 40.5t-98 11.5q-61 0 -113.5 -35t-92.5 -78t-63.5 -78t-27.5 -35l-11 11q-16 16 -34.5 54t-39 76t-41 66.5t-42.5 28.5q-82 -74 -169 -141.5t-165 -149.5h-4q-6 0 -30.5 24.5t-54.5 56.5t-56.5 60.5t-38.5 36.5q-80 47 -154 62.5 t-164 15.5q-31 0 -76 -1t-71 -9q-76 -20 -146.5 -49t-156.5 -29q-68 0 -97.5 21.5t-41 48t-14.5 48t-15 21.5h-6q-12 0 -18.5 -20.5t-10.5 -46t-5 -48t-1 -28.5q0 -59 24.5 -114.5t66.5 -97.5t96 -66.5t114 -24.5q90 0 175 20.5t173 20.5q80 0 135 -27.5t90 -75t51.5 -111 t16.5 -134.5q0 -55 -12.5 -122t-40 -123t-74.5 -95t-119 -39q-10 0 -39 5t-58.5 14t-53 22.5t-23.5 29.5v7q0 10 10 10q74 4 134.5 51t60.5 123q0 72 -52.5 120t-117.5 48q-78 0 -131.5 -53.5t-53.5 -124.5q0 -68 28 -121t73 -90t103.5 -56.5t119.5 -19.5q123 0 215 56.5 t153.5 145.5t92.5 198.5t31 217.5q0 43 -5.5 83t-5.5 81q0 25 21.5 64t54.5 39q23 0 39 -15.5t26.5 -37t16.5 -45t6 -40.5v-942q0 -35 -25.5 -59t-25.5 -53zM297 35q0 -100 53 -172t133 -118t173.5 -67.5t172.5 -21.5q139 0 269.5 53t222.5 162q8 2 31.5 32.5t23.5 45.5h-30 q-111 -131 -251.5 -170t-291.5 -41q-63 0 -145.5 13t-156 46t-123.5 88.5t-50 139.5q0 55 24.5 94t64.5 62.5t89 33.5t98 10q115 0 215 -57q16 -8 39 -35t44.5 -55.5t36.5 -51t17 -22.5q6 0 7 6l10 4q78 98 159.5 175t182.5 159v31q-31 0 -52.5 -28.5t-50.5 -28.5 q-12 18 -55 42.5t-98 46t-115.5 36t-109.5 14.5q-88 0 -182.5 -29t-173.5 -83t-130 -133t-51 -181zM1468 307v291q0 45 -1 157.5t-3 238.5t-4 237.5t-2 154.5q0 8 -7 37t-7 41v4q0 20 22.5 36t38.5 16q14 0 28.5 -19.5t28 -46.5t29 -51.5t31.5 -36.5q0 -18 2 -70.5t3 -112 t3 -112.5t2 -74v-700q-43 -43 -83 -45t-81 55zM819 1403h-276q-18 -4 -46 -10.5t-57.5 -12.5t-56.5 -10t-41 -4q-25 0 -49.5 15.5t-46 36t-37.5 38t-25 23.5v10q72 0 134.5 3t132.5 24q78 23 129 42t127 19q63 0 115 -20.5t98.5 -54.5t86.5 -78t78 -89q4 -10 15.5 -13 t15.5 -11q8 -51 9 -82t1 -78q0 -55 -13 -100t-38 -109h-10l-16 229q-4 39 -26 80t-53.5 75t-71.5 55.5t-79 21.5zM1991 655q0 123 22.5 219.5t79.5 200.5q0 4 10.5 19.5t20.5 15.5l20 -614q2 -53 21.5 -109.5t19.5 -110.5v-10l-55 -57q-2 -4 -9 2t-12 8q-66 104 -92 209.5 t-26 226.5zM1307 1364l-33 -33h-4q-4 0 -10 6v-2q0 -20 1 -37.5t3 -37.5t4 -43t2 -46q0 -94 -21.5 -189t-65.5 -181t-109.5 -153.5t-151.5 -106.5q-29 -23 -66 -31q49 -4 96 -14q86 31 151.5 93t109.5 143t65.5 174t21.5 184q0 43 -5 82.5t-5 80.5q0 12 7.5 34t21.5 38 q-2 23 -12 39zM2304 911v25q0 78 6 158t35 149q8 18 28.5 41t42 44.5t39 39.5t17.5 29q-37 0 -67.5 -25.5t-59.5 -25.5v2q-12 -14 -22.5 -25.5t-12.5 -17.5v2q-25 -63 -31 -139t-6 -150v-205q0 -72 1 -147.5t7.5 -140t17.5 -110.5t30 -63q-12 59 -18.5 134t-7.5 152t0 148.5 t1 124.5zM1796 369v833l10 129q0 8 15.5 33t25.5 33h54q-23 12 -44.5 21t-44.5 9h-6q-14 0 -21 -20.5t-9 -20.5l-2 3l-9 -109v-829q0 -6 5.5 -24.5t10.5 -36t10 -25.5t5 4zM911 -426q139 0 269.5 53.5t222.5 161.5q8 2 31.5 33t23.5 45h-31q-96 -113 -221 -158 q-86 -53 -182 -78.5t-195 -25.5h-40.5t-61.5 2t-61.5 8t-40.5 18q20 -20 60 -32.5t83 -18.5t81.5 -7t61.5 -1zM1550 307v209q0 45 -1 157.5t-3 238.5t-4 238t-2 155q0 8 -7 36.5t-7 40.5v4v18.5t-4 18.5v-2q-10 16 -17.5 29.5t-3.5 17.5h-6v-4q0 -4 1 -15t5 -22v5 q8 -31 8 -46v-63q0 -57 2 -145t2 -183q0 -127 3.5 -239.5t3.5 -157.5v-274q0 -4 11 -8.5t19 -8.5zM696 322v6q0 8 17.5 16t41 13t45 8.5t29.5 3.5q14 0 49 -8.5t71 -20.5t62.5 -28.5t26.5 -30.5v-11l-55 -55q-8 -8 -10 -6l-10 6q-4 2 -20.5 15.5t-20.5 15.5q-8 6 -45 19.5 t-77 26.5t-72 22.5t-32 7.5zM2216 -57h10q4 0 32 29.5t60.5 66.5t62 69.5t36.5 38.5q31 31 58.5 48.5t27.5 60.5q-27 0 -38 -20.5t-38 -20.5q-10 0 -16.5 1t-10.5 1q-18 -12 -30 -24q-47 -43 -97.5 -93.5t-99.5 -126.5h-6q16 0 28.5 -15t20.5 -15zM1038 -78q6 0 6 6l11 4 q57 72 117.5 133.5t127.5 120.5q-31 14 -30 58q-20 -16 -63.5 -51t-86.5 -76t-75.5 -80t-32.5 -66q0 -20 14 -34.5t12 -14.5zM1642 -78q4 0 18.5 22.5t34 52.5t39 58.5t31.5 40.5q4 4 21.5 16.5t37 27t35 25.5t15.5 13v6q0 8 -21.5 31t-17.5 21q-8 -14 -52 -46t-87 -75 t-65 -92.5t11 -100.5zM686 143q49 0 84 -8q-76 39 -166 39q-96 0 -155.5 -39t-67.5 -139q6 -33 29 -70v17q0 55 24.5 94t64.5 62.5t89 33.5t98 10zM532 1454h64q49 16 92 28.5t100 12.5q45 0 43 5t-25.5 10.5t-54 10.5t-44.5 5q-47 0 -86 -11.5t-82 -25.5l2 2 q-57 -20 -121 -34.5t-121 -16.5q29 -23 43 -23t40 4t53.5 9.5t54 11.5t42.5 12zM414 1192q90 0 175 20.5t173 20.5q37 0 35 5t-22.5 10t-49.5 10.5t-45 5.5q-82 0 -168 -20.5t-180 -20.5q-45 0 -42 -5.5t25.5 -10.5t54.5 -10t44 -5zM2042 655q0 -33 1 -76.5t7 -89t18.5 -85 t32.5 -64.5q-12 16 -18 47t-8 64.5t-2 67.5v54q0 90 12 166l-6 174q-20 -59 -28.5 -122.5t-8.5 -135.5zM840 768q0 49 -31 94v-12q0 -74 -44 -127t-108 -78q23 -4 42.5 -5t27.5 -1q51 0 82 39t31 90zM1956 1567q18 25 55 24q6 0 29.5 -10t48.5 -24.5t45 -30t20 -27.5v-4 q0 -8 -26.5 -12t-28.5 -4q-39 0 -79.5 29.5t-63.5 58.5zM516 823q0 23 19.5 52.5t48.5 29.5q37 0 48 -19.5t3 -43t-30.5 -43t-57.5 -21.5q-18 0 -24.5 14.5t-6.5 30.5zM2499 1550v11q0 4 -1 10t-10 6q-14 0 -24 -15.5t-25 -31.5h2q6 0 2 -17.5t-12 -39t-15 -37.5l-6 -17 q27 29 49 62.5t40 68.5zM971 276l10 11q0 2 -15.5 6t-29.5 6t-16 1t26 -11l-18 4q6 -2 19.5 -9.5t23.5 -7.5zM680 494q33 4 25.5 10t-22.5 8t-24.5 -2t21.5 -16zM2066 1325v2h-4q2 0 2 -2h2zM924 295l4 -2q-2 2 -4 2v0z" />
<glyph unicode="N" horiz-adv-x="2072" d="M270 41q0 -100 50.5 -175t127 -125t171 -74.5t180.5 -24.5q127 0 244.5 56t209.5 138q16 16 34 32.5t18 43.5q-35 0 -59.5 -24.5t-53.5 -41.5q-90 -53 -178 -75.5t-211 -22.5q-70 0 -158 8t-163.5 38t-128 86.5t-52.5 154.5q0 31 12.5 63.5t33 61t49 47t59.5 18.5h190 q43 0 93 -31.5t91 -68.5t69 -69l28 -31q20 0 34.5 23.5t16.5 27.5l98 98q14 14 52 41t78 57.5t70 62.5t30 58v1020q0 4 6 4h10h10q47 0 94.5 -30.5t100.5 -30.5q57 0 104 22.5t84 58.5t66.5 81t52.5 90q8 8 21.5 36.5t13.5 45.5v4l-3 3t-7 3h-5q-12 0 -19 -13.5t-15.5 -31 t-21.5 -30.5t-36 -13q-41 0 -68.5 15t-64.5 32q-47 18 -86 26.5t-88 8.5q-55 0 -95 -11.5t-89 -40.5q-14 -8 -41 -37.5t-53.5 -62.5t-47 -58.5t-22.5 -25.5q-4 0 -5 3l-1 3q-96 111 -199.5 165t-251.5 54q-59 0 -115.5 -13t-111.5 -29.5t-110.5 -30t-112.5 -13.5 q-41 0 -74 13.5t-33 62.5q0 23 10.5 44.5t10.5 47.5q-25 0 -41.5 -19.5t-25.5 -47t-12 -55t-3 -41.5q0 -49 20.5 -100.5t56 -93.5t85 -67.5t104.5 -25.5h373q20 0 47.5 -13.5t40.5 -17.5q96 -57 130 -147t34 -195q0 -57 -18.5 -118.5t-54.5 -111.5t-86 -82t-114 -32 q-41 0 -77.5 13.5t-65.5 47.5q109 4 175.5 43t66.5 158q0 80 -52.5 132t-132.5 52q-70 0 -113.5 -45t-70.5 -104v-55q0 -133 87 -206t214 -71q115 0 205 54.5t152.5 138.5t96 188.5t33.5 206.5q0 61 -13 119.5t-13 115.5q0 35 19.5 58.5t58.5 23.5q10 0 23 -2t18 -12 q2 -27 4 -95.5t3 -145t2 -145.5t1 -95v-590l-62 -55q-4 -2 -4 -4t-6 -2q-23 0 -53.5 25.5t-44.5 35.5q-78 43 -141.5 65.5t-149.5 22.5q-84 0 -179 -30.5t-175 -88t-132.5 -136.5t-52.5 -175zM1407 680q0 -121 8 -207t33 -158.5t70 -142.5t120 -158h11q16 0 28.5 11.5 t22.5 28t19.5 32.5t21.5 27q18 18 55 46.5t74 58.5t63.5 56.5t26.5 42.5v25h-14l-68 -61q-20 0 -40.5 22.5t-38 52t-30 59t-14.5 46.5q-12 74 -18 174t-6 246v243q0 59 6 121t28 117q8 14 35 43t27 49q-25 0 -55.5 -19.5t-62.5 -44t-60.5 -48t-46.5 -31.5q-72 -59 -111 -133 t-57.5 -156t-22.5 -169t-4 -173zM199 1495v10q59 0 116.5 13.5t114.5 30t114.5 29.5t114.5 13q113 0 198 -68.5t157 -146.5q16 0 28.5 -27.5t19.5 -66.5t10 -78t3 -63q0 -43 -17.5 -94.5t-33.5 -79.5h-10q-2 59 -8.5 116.5t-23.5 109.5t-50 96t-88 77q-27 16 -51.5 26.5 t-34.5 14.5h-410q-10 0 -34.5 9t-50 23.5t-45 29t-19.5 26.5zM1499 532v148q0 61 2 121.5t12.5 119t33 112.5t65.5 104l10 10t6 10h10l15 -645q2 -63 22.5 -128t38.5 -118v-10l-51 -51h-10q-35 0 -62.5 47t-47 105.5t-30 110.5t-14.5 64zM786 522h23q29 0 55.5 -3t53.5 -7 q111 45 187.5 144.5t113.5 215.5v101v51v36.5t-2 43.5q-6 -92 -37 -184.5t-84.5 -171t-128 -138t-166.5 -84.5q-17 -4 -15 -4zM1008 -57q20 0 34.5 23.5t16.5 27.5l98 98q14 14 52 41t78 57.5t69.5 62.5t29.5 58v31q0 51 -15 111.5t-15 134.5v-195q0 -6 -4 -26v-66l-62 -55 q-4 -2 -4 -4t-6 -2q-18 0 -43 -12.5t-48.5 -30t-45 -35t-35.5 -27.5l-92 -94q-20 -20 -33.5 -51t25.5 -47zM881 -440q127 0 244.5 56t209.5 138q16 16 33.5 32.5t17.5 43.5q-18 0 -44.5 -13.5t-54 -31.5t-53.5 -35.5t-42 -25.5q-86 -59 -186.5 -96.5t-206.5 -37.5h-40 t-53.5 2t-53 7.5t-38.5 15.5q23 -18 59 -29.5t73.5 -17.5t73.5 -7t61 -1zM1812 799v243q0 59 6.5 121t28.5 117q8 14 35 43t27 49q-47 0 -73 -24.5t-38 -62.5t-14 -81t-2 -80v-243q0 -141 6 -239.5t18 -172.5l-2 4q4 -14 12.5 -38.5t18.5 -49.5q-10 72 -16.5 172.5 t-6.5 241.5zM901 229q-61 35 -118.5 59.5t-127.5 28.5v5q0 10 17.5 20t40 18.5t44 13.5t31.5 5q68 0 122.5 -25.5t113.5 -62.5v-4q0 -4 -11.5 -13.5t-25.5 -20.5t-28.5 -21.5t-22.5 -16.5h-10q-8 0 -12.5 2t-12.5 12zM1720 -68h11q16 0 28.5 11.5t22.5 28t19 32.5t22 27 q18 18 55 46.5t74 58.5t63.5 56.5t26.5 43.5v24h-14l-68 -61q-2 -2 -13.5 2t-15.5 8l-39 -39q-4 -4 -33.5 -28.5t-65.5 -56.5t-40 -40l2 2q-12 -23 -26.5 -36t-22.5 -24.5t-6 -24t20 -30.5zM1356 1540v16q20 10 50 25.5t58 15.5q12 0 38 -8t52.5 -19t47 -23.5t20.5 -20.5 q0 -10 -13.5 -21.5t-30.5 -21.5t-35.5 -17.5t-26.5 -7.5l-17 6q-16 6 -40.5 15.5t-47 19.5t-39 20.5t-16.5 20.5zM481 829q0 27 27 65t59 38q20 0 49 -27.5t29 -44.5q0 -39 -40 -68.5t-79 -29.5q-23 0 -34 23.5t-11 43.5zM383 -74v27q0 31 12.5 63.5t33 61t48 47t60.5 18.5 h190q23 0 17.5 5.5t-22.5 10.5t-40 10t-37 5h-190q-35 0 -55.5 -30.5t-29 -72.5t-4 -83.5t16.5 -61.5zM1581 451v147q0 59 1 117.5t11 115.5l-4 175q-31 -74 -35 -158t-4 -168v-137q0 -6 3 -24.5t7.5 -39t8.5 -38t6 -21.5q23 -51 28 -58.5t2 7t-10.5 40.5t-13.5 42z M741 1509q33 0 28 5.5t-26.5 10.5t-48 10t-35.5 5q-53 0 -107 -12t-108 -29q-12 -4 -39.5 -10t-50 -13.5t-29 -12.5t22.5 -5h133q66 16 129 33.5t131 17.5zM379 1233h364q-6 0 -12 6t-14 8h2q-10 6 -24.5 11.5t-24.5 5.5h-373h-18q-12 0 -19 2q53 -33 119 -33zM1386 1040 v291q-8 4 -15 7t-15 8v-558q0 66 7 129.5t23 122.5zM1915 1526q8 8 21.5 36.5t13.5 45.5v4l-3 3q-3 3 -8 3h-4q-2 0 -18 -18.5t-34.5 -40t-34.5 -39.5l-17 -19q37 6 44 -6t7 -20.5t3 -1t30 52.5zM829 776v2q0 8 -5 29.5t-10 40t-10 26t-5 -13.5q0 -37 -12.5 -66.5t-27 -53 t-26.5 -42t-12 -32.5l15 14q16 14 35.5 33.5t36.5 38t21 24.5zM532 829q0 -14 9.5 -14t21.5 7t21.5 18.5t9.5 19.5q0 4 -10.5 12.5t-16.5 8.5q-12 0 -23.5 -20t-11.5 -32zM1546 1516h4q20 2 21 10q0 2 -13.5 6t-32 7t-35.5 5t-26 2q-14 0 -9 -5t17.5 -10t24.5 -10t10 -5 l11 -5q4 -2 14 1.5t14 3.5zM1192 1378q0 -35 10 -82t12 -86q0 53 -1 103.5t-3 87.5q-16 -17 -18 -23zM195 1683q-27 0 -45 -24q10 -10 38 -10q7 14 7 34zM647 498q16 4 31.5 7t32.5 7h-31q-12 0 -32.5 2t-33 2t-8.5 -4t41 -14zM918 293q-43 23 -89 31q14 -8 35 -18.5 t37 -10.5q11 0 17 -2zM1511 1290q10 10 13 15q-14 0 -29.5 2t-23 2t-0.5 -4.5t40 -14.5zM715 1247l-2 2v0q2 0 2 -2z" />
<glyph unicode="O" horiz-adv-x="1669" d="M246 4q0 -18 8 -49t16 -47q31 -72 82 -118t115.5 -73.5t136.5 -39t144 -11.5q154 0 270.5 56.5t220.5 164.5q10 18 22.5 41t12.5 45h-10q-109 -123 -251.5 -169t-301.5 -46q-70 0 -144.5 11.5t-137 42t-102.5 85t-40 138.5q0 14 2 35.5t9 42t20.5 36t33.5 15.5h10 q18 0 47 -11.5t60 -26.5t57.5 -30.5t40.5 -23.5q10 -4 33 -10.5t47.5 -12.5t45 -10t28.5 -4h92q170 0 307 71.5t233.5 189.5t149.5 268.5t53 309.5q0 80 -8 156t-28 152q-31 106 -96.5 197t-154.5 158t-193.5 104.5t-215.5 37.5q-78 0 -156.5 -8t-150.5 -29 q-39 -10 -71.5 -22t-71.5 -12q-23 0 -47.5 11t-24.5 40q0 18 5 32.5t5 32.5q-43 0 -57.5 -41t-14.5 -75q0 -51 26 -91t56.5 -70t56 -48.5t25.5 -26.5l-6 -10q-96 -57 -171 -112.5t-126 -122t-78.5 -149.5t-27.5 -196q0 -166 72.5 -311t193.5 -256v-16q0 -41 -25.5 -89.5 t-25.5 -105.5zM526 240v10q0 10 17 26h51q45 0 70.5 -5t41 -17t27.5 -31.5t35 -48.5v-6q25 0 71 54t91 125t82 139.5t43 97.5q10 39 10 63v43q0 94 -39 157.5t-84 122t-84 126t-39 168.5v10h-10q-39 0 -74 -39t-60.5 -93.5t-41 -112.5t-15.5 -97q0 -82 28 -157t75 -140 q18 -27 42.5 -53.5t46 -55t36 -59.5t14.5 -68q0 -23 -8 -57.5t-39 -34.5q-41 0 -81 12.5t-87 12.5q-39 0 -73.5 -7.5t-69.5 -7.5q-37 0 -63.5 68t-44 160t-25 186t-7.5 150v75q0 4 8.5 66.5t28 135.5t50 133.5t73.5 60.5q18 0 32.5 -1t33.5 -10l297 -16q33 -2 67.5 -13.5 t66.5 -26.5t57.5 -32.5t39.5 -29.5q68 -61 112 -121t69.5 -124.5t37 -138t11.5 -163.5q0 -104 -32 -212t-94.5 -197t-152.5 -145t-207 -56q-106 0 -182 48t-152 126zM543 1444q-4 4 -14.5 15t-21.5 22.5t-19 19.5l-7 8l4 7q10 16 60.5 28t110 20.5t112.5 12.5t72 4 q131 0 245.5 -62.5t199.5 -163t134 -224t49 -246.5q0 -2 -2 -17.5t-5 -33t-7 -32t-6 -14.5h-4q-10 104 -34 196.5t-70 169.5t-116.5 137.5t-174.5 101.5q-59 25 -139.5 29.5t-151.5 4.5h-88q-18 0 -55 8.5t-72 8.5zM123 778q0 88 42 170t95 148q10 0 13 -34t3 -78t-1 -87 t-1 -61q0 -119 9.5 -236t44.5 -231v-11h-6q-12 0 -45 46.5t-67 112t-60.5 137t-26.5 124.5zM649 -10q10 -4 33 -10.5t47.5 -12.5t45 -10t28.5 -4h92q170 0 307 71.5t233.5 189.5t149.5 268.5t53 310.5q0 80 -7 155.5t-29 151.5q-6 16 -13.5 35.5t-15.5 40.5 q20 -76 27.5 -150t7.5 -152q0 -217 -91.5 -413.5t-250.5 -323.5q-59 -70 -141.5 -111.5t-182.5 -41.5q-16 0 -28.5 1t-26.5 3q-18 -2 -37 -3t-37 -1h-92q-10 0 -37 6t-57 10q6 0 22 -10zM721 922v18q0 20 6 44t25 24q12 0 48 -44t74.5 -100.5t68.5 -111t30 -72.5 q-2 -18 -14.5 -57t-32.5 -39l-15 4q-27 8 -60.5 51t-62 97.5t-48 106.5t-19.5 79zM829 117h31h19q31 0 73.5 56t82.5 126t70 131.5t32 71.5q10 39 10 63v43q0 47 -11.5 85t-27.5 71q8 -31 8 -74v-43q0 -18 -2 -34.5t-10 -43.5v4q-8 -33 -54 -106.5t-108 -151.5 q0 -25 -8 -56.5t-39 -33.5q-39 0 -55.5 -23.5t-40.5 -39.5q8 -10 14 -20.5t16 -24.5zM522 1290l-6 -10q-4 -4 -12 -9t-12 -7q-43 -84 -60.5 -168t-17.5 -142v-73q0 -49 4 -133t14 -167t26.5 -144.5t39.5 -67.5q-14 51 -24.5 111.5t-16.5 119.5t-9.5 111.5t-3.5 87.5v75 q0 4 8.5 67t28 135.5t50 133t73.5 60.5q18 0 32.5 -1t33.5 -9l32 -3q2 0 12 9l9 10l4 6l-152 8q-18 8 -29 9t-24 1q-6 0 -3 -3t3 -7zM829 -416q154 0 271 56.5t221 164.5q10 18 22.5 41t12.5 45h-10q-8 0 -35 -20.5t-56.5 -45t-56.5 -47t-37 -28.5q-90 -66 -190.5 -100.5 t-222.5 -34.5h-44t-62 1t-59.5 6t-37.5 16q18 -18 56 -29.5t80 -17t81.5 -6.5t66.5 -1zM922 1499q66 0 114 -14q-92 45 -196 45q-57 0 -110.5 -11.5t-106.5 -23.5l-25 -6q16 2 36.5 -4t35.5 -6h92q39 8 79 14t81 6zM174 778q0 -47 19.5 -111.5t44.5 -121.5v6q0 41 -16.5 78 t-16.5 67q0 55 18 111v143q-49 -88 -49 -172zM369 -72v25q0 12 2 31.5t7 39t15 35t27 21.5l-43 18q-4 -25 -15.5 -49t-21.5 -53q11 -41 29 -68zM870 1247l97 -4q23 0 15.5 4t-27 10.5t-42 11.5t-30.5 5h-13v-27zM772 922q0 -49 31 -105v23v20q0 10 -5 26.5t-10.5 29 t-10.5 17.5t-5 -3v-8zM649 195h41q-4 6 -21.5 13t-30.5 10t-14.5 -1t25.5 -22zM901 1182v10h-10q-4 0 -6 -1t-6 -1q4 -14 8 -34.5t7 -29t5 2t2 53.5zM623 2q2 0 2 -2h2h-2q0 2 -2 2zM727 1282l-2 -4l1 1t1 3z" />
<glyph unicode="P" horiz-adv-x="1929" d="M403 41q0 -100 52.5 -173t132.5 -120t175 -69.5t179 -22.5t172 22.5t165 67.5t137.5 109.5t88.5 148.5q-10 0 -33.5 -21.5t-52 -48t-56.5 -52t-42 -36.5q-68 -41 -151 -56t-162 -15h-50q-45 0 -102 2t-114.5 9t-107.5 22.5t-81 41.5q-43 39 -83 89.5t-40 111.5 q0 55 26.5 96t68.5 69t92.5 41t99.5 13q135 0 249.5 -59t174.5 -186q4 0 8 -2.5t8 -2.5q6 0 20.5 18.5t31 43t31.5 48.5t24 34q47 53 103 98t108 96l86 86v21q-25 0 -42.5 -16.5t-35 -37t-35.5 -37t-45 -16.5h-10l-62 62l-3 7t-7 7v119q0 18 2 47t4 54.5t4 44t0 18.5l10 10 l23 -2h22q100 0 180.5 39t135.5 106.5t85 155.5t30 186q0 70 -17.5 120t-45.5 94t-62.5 86t-69.5 96q-8 12 -18.5 34.5t-21.5 47t-20.5 45t-15.5 26.5h-6q-6 0 -22.5 -22.5t-36 -49t-40 -49t-34.5 -22.5q-20 -20 -64.5 -55t-89.5 -69t-81.5 -57.5t-41.5 -23.5q-33 2 -49 44 t-32 63q-70 92 -171.5 141t-211.5 49q-61 0 -121 -14.5t-118 -31.5t-117.5 -31.5t-121.5 -14.5q-53 0 -77.5 18.5t-34.5 40t-13.5 40t-11.5 18.5t-12 -8.5t-8 -16.5v-47q0 -78 33.5 -139.5t88 -106.5t124 -68.5t143.5 -23.5q49 0 102 13.5t107 13.5q70 0 122 -33t87.5 -84 t54 -114.5t18.5 -127.5q0 -68 -17 -131t-53 -113.5t-89.5 -80t-126.5 -29.5q-10 0 -31 2t-40 8t-31.5 18.5t-6.5 32.5q6 0 12.5 -1t12.5 -1q63 0 111 37t48 109q0 70 -43 128t-120 56q-72 0 -115 -54t-43 -124q0 -63 26.5 -112.5t70.5 -82t100.5 -50t113.5 -17.5 q106 0 193.5 53t149 138t95 187.5t33.5 200.5q0 39 -10 74t-10 70v4q4 12 7 29l3 18l92 92q4 4 10.5 4t10.5 6h6q4 0 7 -7t3 -3v-430q-29 -23 -48.5 -53.5t-19.5 -69.5q0 -29 12.5 -53.5t27 -45t26.5 -36.5t12 -29v-276q0 -8 -8 -9t-12 -1q-31 0 -67 18t-66 27 q-47 12 -97.5 14t-97.5 2q-94 0 -190.5 -37t-173 -101.5t-126 -149.5t-49.5 -183zM758 1438h-129q-57 0 -111.5 -5.5t-114.5 -5.5q-12 0 -41.5 7.5t-60.5 19.5t-53.5 29.5t-22.5 36.5q96 8 183.5 36.5t179.5 51.5q4 0 23.5 5t27.5 5h10q66 0 120 -25.5t100 -65.5t84 -89 t71 -97q27 -35 34 -81t7 -93q0 -16 -5 -46.5t-13.5 -61.5t-18.5 -53.5t-20 -22.5q0 63 -10.5 137t-38 140.5t-75.5 116t-126 61.5zM1356 782q0 8 12 15.5t26.5 20.5t27 34.5t12.5 58.5q0 43 -17.5 64.5t-39 35t-39 22.5t-17.5 26v334h20q18 -23 62.5 -64t89.5 -93t80 -113.5 t35 -125.5q0 -41 -13.5 -83t-38 -76.5t-61.5 -57t-82 -22.5q-8 0 -32.5 3t-24.5 21zM1403 422v49q0 18 2 47t4 54.5t4 44t0 18.5l10 10l23 -2h22q100 0 180.5 39t135.5 106.5t84.5 155.5t29.5 186q0 53 -11 94.5t-27 78.5q8 -41 8 -91q0 -154 -63.5 -282.5t-184.5 -196.5 q-51 -57 -125 -57h-14q-14 0 -21 2q-18 -2 -36.5 -3t-37.5 -1h-6q-2 0 -3 -21.5t-2 -47t-2 -44t-1 -12.5v-94v-2l2 -2zM1444 1479q2 20 32.5 40.5t39.5 20.5l10 -10q29 -31 63.5 -69t64 -80t50 -87t20.5 -92q0 -23 -2 -38t-12 -38h-10q27 0 -10 47.5t-91.5 108.5t-104.5 119 t-50 78zM973 420q14 0 59 -9.5t91 -23.5t83 -32.5t37 -37.5l-76 -77h-16q-84 57 -154.5 82.5t-173.5 46.5v4q0 6 21.5 14t47.5 15.5t50.5 12.5t30.5 5zM1223 -57q4 0 8 -2t8 -2q6 0 20.5 18t31 43t31.5 48.5t24 33.5q47 53 103 98t107 96l86 86v21q-25 0 -42 -16.5 t-34.5 -37t-36 -37t-44.5 -16.5h-10l-7 7q-2 2 -24.5 -17.5t-50 -45t-54 -51.5t-36.5 -38q-25 -33 -50.5 -76t-54.5 -67q6 -10 12.5 -21.5t12.5 -23.5zM707 510q119 53 235 53h31q70 41 123 107.5t88 144.5q-23 35 -23 86v8q-31 -76 -77 -143.5t-105 -118.5t-132 -80.5 t-157 -29.5q-47 0 -88 8q48 -25 105 -35zM512 -31q0 55 26.5 96t68.5 69t92.5 41t99.5 13q29 0 55.5 -3t54.5 -7q-94 41 -192 41q-41 0 -85 -11t-79 -34q-31 -47 -52.5 -103.5t11.5 -101.5zM670 1526q4 0 23.5 5t27.5 5h10h19q10 0 -0.5 5t-29 10t-40 10.5t-31.5 5.5h-6 q2 0 -8 -2t-19 -4h2q-10 -2 -17 -3.5t-11 -1.5l-105 -30q-16 -6 -46.5 -13.5t-52 -15.5t-24 -13t40.5 -5q29 0 56.5 2t56.5 4h14q31 0 71 15.5t69 25.5zM502 1243q49 0 102 13.5t107 13.5q18 0 11 5t-24.5 10t-38 10t-30.5 5q-47 0 -100.5 -13t-108.5 -13q-29 0 -54.5 2 t-52.5 8q93 -41 189 -41zM481 844q0 20 19.5 40.5t36.5 20.5q20 0 35.5 -17.5t15.5 -33.5v-10q0 -4 -28 -27.5t-38 -23.5q-12 0 -26.5 21.5t-14.5 29.5zM1212 1331q-12 0 -14 -1t-2 -11q0 -2 -4 -14q0 -25 10 -56l-2 2q10 -10 11 -41.5t1 -42.5q0 -76 -22 -166 q8 12 18.5 23.5t20.5 22.5v129q0 14 -3 26t-3 27v4q2 6 6 22v82q-13 -6 -17 -6zM1380 1067q4 -4 10.5 -7t12.5 -7v202l-31 31v-219q0 2 8 0zM782 758v4q0 10 -5 29.5t-10 36t-10 26.5t-5 2v-12q0 -94 -62 -146q51 19 92 60zM1169 315l13 13q-20 10 -64.5 19t-85.5 15 q35 -12 64 -30q16 -4 34.5 -7.5t38.5 -9.5zM1485 909q0 -55 -21 -88q27 12 38.5 35.5t-17.5 52.5zM1499 1483l-4 -4l15 -15q14 -14 34 -37q4 0 -15.5 24t-23.5 28z" />
<glyph unicode="Q" horiz-adv-x="1648" d="M246 25q0 -96 45 -163t115.5 -108t155.5 -59.5t165 -18.5q127 0 251 40t210 141q12 16 34.5 57t47.5 55q33 23 59.5 34t50 24.5t45 34t43.5 61.5q14 29 25.5 40t11.5 42q0 29 -9 24.5t-24.5 -20.5t-36 -33.5t-42.5 -17.5q-31 0 -67 25.5t-36 56.5q0 8 28 38.5t48 63.5 l61 98q59 94 84 218t25 237q0 164 -47 308.5t-137 253t-224.5 171t-308.5 62.5h-61q-37 0 -80 -9.5t-87 -21.5t-88 -21.5t-83 -9.5h-58q-8 8 -16 18.5t-8 26.5v6q0 4 5 17.5t5 17.5v10l-3 4q-3 3 -7 3h-6q-16 0 -26.5 -12.5t-16.5 -30t-9.5 -35t-3.5 -25.5q0 -53 26 -94 t56.5 -69.5t56 -46t25.5 -25.5q0 -14 -33.5 -34t-79.5 -46.5t-94.5 -59t-74.5 -71.5q-66 -92 -96.5 -180.5t-30.5 -202.5q0 -178 71.5 -317.5t194.5 -266.5v-6q0 -8 -8 -30.5t-17.5 -50.5t-17.5 -55.5t-8 -47.5zM526 240q-4 4 -7 15l-3 11q0 8 14 14l13 7h51q23 0 51.5 -4 t53 -15.5t42 -31t17.5 -48.5l14 -4q18 -6 65.5 44.5t96.5 126t87 163.5t38 158q0 98 -33 158.5t-90 142.5q-35 49 -56.5 79.5t-33.5 60.5t-17.5 66t-5.5 97q-4 0 -11 3t-13 3q-43 0 -76 -43t-56.5 -100.5t-36 -114.5t-12.5 -86q0 -80 27 -150.5t72 -136.5q16 -25 39.5 -52.5 t45 -58t37 -62t15.5 -62.5q0 -8 -1 -24.5t-6 -34t-14.5 -31t-23.5 -13.5q-39 0 -81 15.5t-89 15.5q-39 0 -74 -10t-73 -10q-18 0 -37 35.5t-34 80.5t-25.5 86t-12.5 54q-14 84 -19.5 150.5t-5.5 156.5q0 14 6.5 90t25 162t51 154.5t85.5 68.5q47 0 95.5 -8t95.5 -12 q57 -4 114.5 -5.5t114.5 -19.5q102 -35 175 -99.5t120 -147.5t68.5 -180t21.5 -198q0 -31 -7 -96t-21.5 -132t-37 -117t-53.5 -50h-14q-29 0 -50.5 10.5t-51.5 10.5q-45 0 -90 -16.5t-82 -45.5t-60.5 -68.5t-23.5 -85.5q23 0 42 20.5t50 20.5q18 0 32.5 -4t22.5 -30 q-10 -27 -45 -32t-65 -5h-23q-104 0 -181 46t-147 118zM276 41q0 12 3.5 34.5t10.5 44t20.5 38t31.5 16.5h16q115 -59 220.5 -94t240.5 -35q53 0 101.5 13.5t97.5 13.5q35 0 69.5 -32t63.5 -46q12 -4 36.5 -10.5t24.5 -24.5v-6q-47 -59 -110.5 -96t-134 -56.5t-146.5 -25.5 t-145 -6q-61 0 -131 13t-130.5 46t-99.5 84t-39 129zM963 1423l-293 15q-27 12 -64 14t-63 6l-68 72v6l53 9q52 9 117.5 20.5t123.5 21.5t71 10q125 0 234.5 -61t191.5 -159.5t130 -218.5t48 -236v-62q0 -12 -3 -31.5t-7 -19.5h-7q-6 86 -27.5 172t-61.5 163t-101 138 t-147 100q-27 10 -61.5 25.5t-65.5 15.5zM117 799q0 25 16.5 78t41 107t53 95t53.5 41q0 -57 -5.5 -114.5t-5.5 -114.5q0 -70 -1 -139.5t7 -143.5q4 -49 25 -111.5t21 -113.5v-14q-41 37 -78 87t-64.5 107.5t-45 119t-17.5 116.5zM809 -406q127 0 251 40t210 141 q12 16 34.5 57t47.5 55q33 23 59.5 34t50 24.5t45 34t43.5 61.5q14 29 25.5 40t11.5 42q0 8 -2 14t-14 6t-27.5 -22.5t-40.5 -36.5q-27 -43 -50 -64.5t-48 -34t-51.5 -23.5t-57.5 -36l4 2q-29 -10 -17.5 -23.5t11.5 -27.5v-6q0 -12 -16 -26.5t-36.5 -29t-40 -26.5t-27.5 -18 q-98 -78 -212 -112t-235 -34h-42t-56.5 2t-55 7.5t-38.5 15.5q23 -18 59.5 -29.5t75.5 -17.5t76.5 -7.5t62.5 -1.5zM717 936q0 16 7 50t24 42q12 -8 46.5 -52t71.5 -99.5t67 -108.5t30 -78q0 -23 -10.5 -50.5t-20.5 -45.5h-6q-16 0 -51 45t-70 103.5t-61.5 114.5t-26.5 79z M1452 266l57 92q59 94 84 218t25 237q0 37 -2 89t-9.5 106.5t-20.5 100.5t-36 69q14 -14 22.5 -52.5t11.5 -81.5t3 -83.5v-65.5q0 -119 -26.5 -250t-90.5 -231l-67 -109q-14 -23 -40 -43t-22 -22q0 -12 17.5 -21.5t34.5 -9.5q10 0 27.5 24.5t31.5 32.5zM522 1311 q0 -16 -37 -37q-12 -25 -22 -56.5t-18.5 -63.5t-13.5 -59.5t-7 -41.5q0 -12 -2 -36t-5 -48.5t-5 -46t-2 -31.5q0 -84 4 -149.5t20 -149.5v2q2 -10 9.5 -45t16.5 -73t18 -67.5t14 -29.5h4q-12 41 -20.5 77t-10.5 46q-14 84 -19.5 150.5t-5.5 156.5q0 14 6.5 90t24.5 162 t51 154.5t86 68.5q27 0 56.5 -5t50.5 15h-2q-49 4 -98.5 12.5t-88.5 8.5h-6q2 0 2 -2v-2v0zM1141 594q0 53 -10.5 93t-28.5 77q8 -31 8 -88q0 -78 -42 -167t-97 -167q55 27 100 29q29 57 49.5 114.5t20.5 108.5zM922 1516q49 0 98 -13q-43 20 -88 31.5t-92 11.5 q-45 0 -89 -8t-85 -20q-55 -18 -41 -16.5t57 -12.5l59 -4q43 12 88.5 21.5t92.5 9.5zM168 799q0 -96 45 -189q-14 45 -14 107q0 14 5 37.5t15 52.5v84v49v26.5t2 24.5q-23 -51 -38 -109t-15 -83zM958 -6h-22q-16 0 -29.5 1t-27.5 3q-12 -2 -27.5 -3t-32.5 -1q-51 0 -124.5 3 t-110.5 28q57 -39 148 -50.5t169 -11.5q45 0 86 10.5t82 14.5l-25 18q-18 -8 -42 -10t-44 -2zM1079 209q29 0 55.5 -3t53.5 -7q2 0 8 -14.5t14.5 -32t15.5 -34t13 -22.5v-10l-23 14q-24 13 -53.5 28t-53.5 29.5t-24 16.5q-4 4 -5 17.5t-1 17.5zM358 -59v18q0 12 3.5 32.5 t9.5 41t16 37t27 20.5q-53 27 -63.5 -3t-18.5 -85q6 -30 26 -61zM905 1198q-16 0 -19 -12t1 -27.5t11 -32t11 -22.5q-2 18 -3 41.5t-1 52.5zM983 1249q-14 6 -26.5 12.5t-26.5 10.5h2q-14 4 -27.5 6t-30.5 6v-22q29 -2 54.5 -4.5t54.5 -8.5zM639 205h45q-10 10 -28.5 18 t-32 10.5t-13.5 -4t29 -24.5zM799 854v12q0 12 2 19q-35 47 -31 28.5t31 -79.5q-2 6 -2 20z" />
<glyph unicode="R" horiz-adv-x="2109" d="M276 66q0 -104 50.5 -179t128 -124.5t173 -73t185.5 -23.5q147 0 278.5 59.5t229.5 172.5q8 8 19.5 26.5t11.5 34.5h-21q-100 -109 -215 -155t-262 -46h-20q-27 0 -53.5 5.5t-53.5 5.5q-80 2 -153.5 8t-133.5 59q-53 49 -91 98.5t-38 126.5q0 47 22.5 87t58.5 70t81 46.5 t90 16.5q145 0 260 -82q10 -8 34 -32t48.5 -49.5t45 -46t26.5 -20.5q8 0 19.5 14.5t23.5 33t22.5 35t16.5 20.5q18 20 62 54t88 72.5t78 75.5t34 64v430q0 35 15.5 45t49.5 10q35 0 67 -21.5t32 -60.5v-352q0 -31 6 -71t17.5 -79.5t28.5 -74.5t40 -58l113 -112h20 q12 20 35.5 45.5t49.5 49.5t51.5 43t41.5 26l30.5 30.5l36 36t30 30.5t12.5 15v21q-23 0 -36 -20.5t-36 -20.5q-20 0 -38.5 16.5t-32 39t-20.5 49t-7 44.5q0 61 -12.5 117.5t-12.5 97.5q-12 27 -21 46.5t-22.5 39t-34 41t-51.5 51.5q-12 12 -32.5 20.5t-40 17t-35 16.5 t-15.5 18v6q0 -4 20.5 12.5t48.5 41t55.5 51t39.5 39.5q45 47 61.5 108.5t16.5 120.5v47q0 14 -1 27.5t-5 27.5t-28.5 63.5t-53.5 103t-53.5 95.5t-28.5 42h-10q-117 -78 -229.5 -152t-204.5 -176h-11q-6 0 -14 11t-16.5 24.5t-14.5 25.5l-6 11q-111 143 -217 194t-244 51 h-77q-49 0 -96.5 -13t-93.5 -30.5t-92 -31t-91 -13.5q-66 0 -97.5 35t-35.5 94l-6 4q-10 6 -16.5 -3t-10.5 -24.5t-6 -32.5t-2 -24v-22q0 -66 25.5 -119t68.5 -94t98.5 -69.5t114.5 -41.5h352q61 0 110.5 -29.5t84.5 -76.5t53 -103.5t18 -111.5q0 -115 -33.5 -204 t-129.5 -151q-8 -4 -22.5 -12t-22.5 -8h-130q-16 0 -43.5 20.5t-27.5 40.5h123q33 0 57.5 20.5t41.5 49.5t25.5 62.5t8.5 58.5q0 80 -54.5 134t-134.5 54q-84 0 -147.5 -58t-63.5 -147q0 -61 26 -112t69 -87t97 -56.5t112 -20.5q117 0 209 52t155.5 136t97 189.5t33.5 212.5 q0 35 -5 66.5t-5 66.5q0 39 24.5 66.5t53.5 50.5h10l10 -11v-434q-23 -12 -30 -22t-7 -29q0 -20 8.5 -32.5t28.5 -28.5q0 -23 1 -81.5t1 -123.5q0 -66 1 -124t1 -81v-10q0 -33 -22.5 -71t-42.5 -38h-37q-70 82 -164 123t-199 41q-90 0 -188 -31.5t-179 -91t-133.5 -142.5 t-52.5 -185zM219 1530v10q55 2 109.5 16.5t109 30t108.5 28.5t109 13q70 0 132.5 -27.5t115.5 -70.5t97 -98.5t75 -110.5q23 -14 29 -47t6 -66v-41q0 -4 -6 -31.5t-13.5 -59.5t-16.5 -57.5t-15 -25.5h-10v35q0 51 -7.5 107.5t-28 108.5t-54 93t-89.5 60q-20 4 -57 16t-41 10 h-362q-6 0 -37 10.5t-65 26t-61.5 35t-27.5 35.5zM1331 993q0 12 -2 40t-3 58.5t-3 58.5t-2 38v235l5 11q5 10 5 14h10l7 -7q8 -7 8 -3q31 -31 69.5 -69t73.5 -81t58.5 -91t23.5 -97q0 -41 -31.5 -87t-85.5 -46h-22q-29 2 -67 4t-44 22zM1577 485v293l10 10q51 -37 80 -81.5 t43 -96t19.5 -106.5t11.5 -111q4 -18 12 -39.5t8 -42.5q0 -16 -25.5 -38.5t-41.5 -22.5q-25 0 -46.5 37t-37 81t-20.5 62zM1059 -31q8 0 19.5 14.5t23.5 33t22.5 35t16.5 20.5q18 20 62 54t88 73t78 75.5t34 63.5v430q0 43 31 51v4q0 14 -15.5 22.5t-32.5 8.5q-14 0 -14 -4 v-51q0 -23 1 -81.5t1 -123.5q0 -66 1 -124t1 -81v-10q0 -33 -22.5 -71t-42.5 -38h-35q-25 -25 -51.5 -46t-50.5 -42v2q0 -4 -11.5 -13t-25 -20.5t-26.5 -21.5t-17 -14q-2 0 -11.5 -14.5t-22.5 -32t-26.5 -35t-23.5 -23.5q18 -16 31.5 -28.5t17.5 -12.5zM895 -416 q147 0 278.5 59.5t229.5 172.5q8 8 19.5 26.5t11.5 34.5h-21q-102 -109 -221 -156q-170 -106 -379 -106h-43t-60.5 2t-59 7t-40.5 18q20 -20 58.5 -31.5t80.5 -18t81.5 -7.5t64.5 -1zM1485 1495q0 16 27.5 31.5t37.5 23.5q39 0 74 -47t55.5 -103.5t20.5 -103.5t-31 -47 q-2 0 -31.5 36t-63.5 81t-61.5 84t-27.5 45zM690 369v4q0 10 18.5 18t43 14.5t47 10.5t30.5 4q18 0 54.5 -9.5t70 -24.5t59 -32.5t25.5 -31.5l-65 -72h-10q-61 47 -128 75t-145 44zM1237 858q-29 29 -35 64q-47 -121 -132 -215.5t-208 -135.5q6 2 44 -8t57 -12 q98 41 166.5 123t107.5 184zM1796 1014q43 49 60.5 108.5t17.5 120.5v47q0 14 -1 27.5t-5 28.5q-4 18 -25 55v-76q0 -66 -20.5 -137.5t-71.5 -126.5l-29 -29q-18 -18 -36.5 -38.5t-36.5 -37.5q-4 -14 18.5 -20t34.5 -16zM512 854l-6 6q-2 31 32.5 69t69.5 38q29 0 58.5 -27 t29.5 -55q0 -33 -41 -62.5t-71 -29.5q-4 0 -15.5 1t-15.5 5l-10 4q-6 2 -13 14zM1739 27l33 -33h20q12 20 35.5 46t49.5 49.5t51.5 43t41.5 25.5l30.5 30.5l36 36t30 30.5t12.5 15v21q-23 0 -36 -20.5t-36 -20.5q-16 0 -29 6l-57 -57q-16 -6 -42 -25.5t-52.5 -45.5t-50 -52 t-37.5 -49zM393 -39v19q0 47 22.5 86.5t58.5 69.5t81 46.5t90 16.5q49 0 94 -13q-41 20 -86 31.5t-90 11.5q-88 0 -137 -53t-64 -135q6 -43 31 -80zM737 1546q45 0 42 5t-25.5 10.5t-54 10.5t-44.5 5q-86 0 -171 -30.5t-169 -47.5q29 -10 58.5 -17t36.5 -7h2 q82 18 160.5 44.5t164.5 26.5zM420 1253h368q-47 31 -98 31h-354q-14 0 -17 2q23 -10 48.5 -18.5t52.5 -14.5zM1403 1106v211q-8 10 -15.5 16t-15.5 15v-160q0 -12 1 -35t2 -49.5t3 -51t4 -40.5q25 25 23 51.5t-2 42.5zM1679 328q-4 16 -12 43.5t-8 31.5v195q-10 35 -31 72 v-185q0 -2 8.5 -27.5t12.5 -41.5q0 -2 5 -17.5t10 -33t10 -30.5t5 -7zM1909 391v8q0 61 -12.5 117.5t-12.5 97.5q-16 39 -31 60q2 -10 4.5 -48t7.5 -83t15.5 -88.5t28.5 -63.5zM561 877h2q0 -2 5 -17.5t10 -15.5l10 -4l-4 4q12 -12 36.5 10.5t24.5 30.5q0 10 -12 20t-25 10 q-14 0 -26.5 -12t-20.5 -26zM852 915q0 -6 1 -12t1 -12q0 -35 -25.5 -79t-25.5 -83q0 6 10 20.5t24.5 33t27 36t16.5 27.5q-6 32 -29 69zM1599 1448q-14 23 -21 30t-12 9t-11.5 0t-16.5 2q10 -14 20 -36.5t41 -4.5zM973 326l6 6q2 2 -11.5 6t-31.5 10t-36.5 10t-27.5 7 q12 -6 24.5 -13.5t25.5 -13.5q22 -2 51 -12zM659 543q14 2 14.5 4t-7 3t-16.5 2t-13 1q8 -4 13 -6t9 -4zM1233 1018q2 0 6 4v20q0 -12 -6 -24z" />
<glyph unicode="S" horiz-adv-x="1703" d="M31 25q0 -117 48 -200t126 -135t175 -76t198 -24q256 0 450 164q23 16 45.5 39t22.5 53h-17q-92 -86 -211.5 -124.5t-249.5 -38.5q-88 0 -185 11t-179 48t-135 105.5t-53 183.5q0 43 14 91t40.5 89t66.5 68.5t89 27.5q45 0 82 -21.5t68 -53t59.5 -67.5t57.5 -63 q80 -74 190.5 -101.5t218.5 -27.5q104 0 217 36t206 101.5t154.5 161t61.5 213.5q0 80 -24.5 158t-71.5 138.5t-115.5 97t-156.5 36.5q-57 0 -108.5 -17t-100.5 -17h-17q-2 14 -4 52t-3 80t-2 79.5t-1 54.5v41q0 6 -1 18.5t-1 24.5q0 35 9.5 41t37.5 6h29q141 0 249.5 63.5 t188.5 178.5q16 23 26.5 45t10.5 53q-8 0 -23.5 -14.5t-36 -34t-41 -38t-38.5 -26.5h-56q-59 0 -99 23.5t-65.5 53.5t-39 53.5t-17.5 23.5h-4q-47 -53 -93 -95t-112 -69q-80 -31 -177 -60.5t-183 -75.5t-144.5 -114.5t-58.5 -175.5q0 -70 29 -126t78 -95t111.5 -59.5 t129.5 -20.5q61 0 123 13.5t121 13.5q6 0 10 -50.5t7.5 -121t4.5 -146.5t1 -127v-59v-103q0 -12 -2.5 -30.5t-4.5 -37t-3 -31.5l-1 -13l-6 -10q0 -2 -9 18t-19.5 48t-19.5 53.5t-13 33.5q-45 123 -133 187.5t-220 64.5q-94 0 -184 -32.5t-160.5 -92t-113.5 -141.5t-43 -180z M1014 14l-27 27v711q0 31 13.5 54t43.5 23q68 0 106 -48t56.5 -114.5t22.5 -137t4 -115.5q0 -47 -4 -116t-23.5 -132.5t-58.5 -107.5t-109 -44h-24zM696 1130q0 18 5.5 64.5t18.5 93.5t35.5 83t57.5 36q10 0 32.5 -13.5t46 -33t42 -42t18.5 -38.5v-410q0 -18 -25.5 -22 t-41.5 -4q-51 0 -87 28.5t-58.5 71.5t-33 93t-10.5 93zM1325 240v385q-4 16 -9 37.5t-9 44.5q14 -8 26 -9l-30 19q-6 23 -10.5 42t-2.5 19q33 0 70 -29.5t67.5 -70.5t51 -86t20.5 -76q0 -41 -20.5 -89t-48 -89t-55 -69.5t-40.5 -28.5h-10zM1034 -109h19q2 0 5 3l3 4h57 q98 0 196.5 43t178.5 113.5t130 161.5t50 187q0 43 -8 110t-37 101q14 -16 14 -61v-68q0 -92 -33.5 -172t-91 -144.5t-133 -113.5t-157.5 -80q-43 -43 -107 -43h-24l-4 5q-2 2 -22.5 -0.5t-44.5 -5.5t-45.5 -6t-27.5 -3q-113 0 -217 27q70 -33 146.5 -45.5t152.5 -12.5z M1069 1065v41q0 6 -1 18.5t-1 24.5q0 35 9 41t38 6h29q141 0 249.5 63.5t188.5 178.5q16 23 26.5 45t10.5 53q-14 -2 -52 -41t-71 -63q-86 -98 -193.5 -151.5t-240.5 -53.5h-25q0 -8 1 -14.5t1 -10.5v-55q0 -25 3 -92.5t3 -120.5q29 0 27 28.5t-2 51.5v51zM475 358v4 q0 10 14.5 13.5t24.5 3.5h12q43 0 92.5 -25.5t91.5 -64.5t70.5 -88t28.5 -95l-10 -14q-23 0 -53.5 15.5t-61.5 37t-58.5 45t-41.5 39.5q-2 4 -15.5 20.5t-29 36t-29.5 36t-18 20.5zM451 1069q0 31 14 58.5t35.5 50t47 40t46.5 31.5l14 -10v-246q0 -12 14.5 -50t12.5 -52v-2 q0 -4 -3 -6l-3 -2q-27 12 -58.5 29.5t-58.5 41t-44 53t-17 64.5zM659 -492q256 0 451 164q23 16 45.5 39t22.5 53h-17q-82 -76 -192 -116q-176 -109 -391 -109h-46t-63 1t-60.5 6t-39.5 18q18 -18 56 -29.5t81 -17.5t84.5 -7.5t68.5 -1.5zM1044 209v-103q0 -16 -3 -29.5 t28 -6.5v600q0 27 10.5 48t32.5 27q-27 33 -68 33q-6 0 -6 -26v-199q0 -74 3 -158t3 -135v-51zM748 1130q0 -41 8 -87t30 -82q-4 23 -6 45t-2 43q0 18 4 58t15.5 83t29 80t45.5 49q-39 39 -62.5 22.5t-37.5 -56.5t-19 -87.5t-5 -67.5zM147 -51q0 43 14.5 91t41 89t66.5 68.5 t89 27.5q-39 31 -82 31q-31 0 -57 -29.5t-47.5 -69.5t-36 -83t-18.5 -68q0 -12 5 -34.5t11 -41t10 -23.5t4 15v27zM778 686q37 0 75 5t75 11q6 37 10 41q-55 0 -113.5 -13t-128.5 -13q-27 0 -51 3t-49 7q88 -41 182 -41zM1049 1382l-25 25q10 20 34.5 38.5t47.5 18.5 q18 0 43 -19.5t43 -27.5v-10q0 -8 -16.5 -12t-37 -7.5t-39 -4.5t-20.5 -1h-30zM1376 633v-303q8 10 15.5 23.5t15.5 27.5v162q0 23 -10.5 53.5t-16.5 54.5q-6 12 -7 11.5t-1 -7t1 -10.5zM502 1069q0 -33 30 -68q6 33 25 60v98q-23 -20 -39 -42.5t-16 -47.5zM596 297h12 q14 0 -3 9t-25 11q4 -6 8 -11t8 -9z" />
<glyph unicode="T" horiz-adv-x="1699" d="M297 -6q0 -100 59.5 -176t147.5 -127t190.5 -76t186.5 -25q293 0 495 220q16 20 26.5 37.5t10.5 43.5h-10q-119 -125 -240 -170t-289 -45q-76 0 -171 13.5t-179 50.5t-140 100.5t-56 163.5q0 14 7 45t20.5 61.5t33 54t41.5 23.5h4q14 0 34.5 -14t42 -33.5t42 -38 t35.5 -26.5q154 -92 338 -92q190 0 338.5 91t265.5 242q16 23 33.5 58t17.5 65q-27 -2 -48.5 -36.5t-37.5 -51.5q-72 -72 -171 -99.5t-194 -27.5q-20 0 -76.5 7.5t-114.5 21.5t-104.5 37.5t-46.5 56.5q53 0 85 -28.5t59 -28.5q18 0 34.5 12t16.5 29q0 18 -19.5 31.5 t-46 22.5t-51 13t-37.5 4h-112q-41 29 -66.5 81.5t-39 112.5t-18.5 119.5t-5 102.5q0 106 27.5 225t101.5 199q16 16 37.5 42t48.5 26q10 0 39.5 -10.5t60.5 -23.5t55.5 -26.5t24.5 -21.5v-6q-78 -68 -138.5 -145t-62.5 -183q0 -82 19.5 -131t68.5 -119q35 -49 81 -97 t46 -114q0 -18 -5 -37.5t-5 -38.5h27q2 0 24.5 25t36.5 37q53 61 90 136t37 161q0 76 -33.5 127t-73.5 93t-74 83t-34 96q0 31 16.5 67t55.5 36h221q8 0 30.5 5t30.5 9q104 39 175 121t71 202q0 27 -13 65t-48 38q0 -20 5 -36.5t5 -35.5q0 -66 -45 -82t-98 -16 q-57 0 -110.5 13.5t-105 32.5t-101.5 40.5t-103 36.5q-96 27 -178 34t-177 7h-133q-70 -12 -149.5 -36t-147 -65t-112.5 -101t-45 -146q0 -111 68.5 -163t176.5 -52q37 0 75 15t71 42t53.5 62.5t20.5 74.5q-27 0 -44.5 -24.5t-37.5 -40.5q-35 -31 -76 -44.5t-82 -13.5 q-72 0 -136.5 34t-64.5 116q0 49 29 84t71 55t89 29.5t84 9.5q43 0 103.5 -11.5t120.5 -29.5t112.5 -45t76.5 -57v-5q0 -6 -42 -39.5t-99 -82t-116.5 -101.5t-94.5 -100q-139 -188 -139 -414q0 -66 20.5 -129t51.5 -123q10 -16 38.5 -57t28.5 -66q0 -23 -22.5 -51t-34.5 -51 q-35 -59 -35 -133zM348 625q0 37 13.5 85t34 95t46 87t50.5 60l20 -368q4 -59 29.5 -122t66.5 -118t93.5 -99t107.5 -67q68 -27 149.5 -39t151.5 -12v-4q0 -6 -21.5 -14.5t-49 -15.5t-54.5 -12t-39 -5q-92 0 -197.5 48t-194.5 126t-147.5 176.5t-58.5 198.5zM567 1571 q111 0 210.5 -24.5t196.5 -56.5t195.5 -59.5t206.5 -33.5v-4q0 -14 -25.5 -30.5t-58 -30t-66.5 -23t-48 -9.5h-17q-23 0 -41 5.5t-28 5.5q6 0 -31 17.5t-95.5 44t-128 59t-130 61.5t-100.5 50.5t-40 27.5zM1008 -98q190 0 338.5 91t265.5 243q16 23 33.5 57.5t17.5 64.5 q-14 0 -33.5 -18t-40 -42t-39 -45.5t-30.5 -29.5q-117 -135 -264.5 -213t-329.5 -78h-40t-53.5 1t-51 6.5t-36.5 15.5q20 -18 54.5 -28.5t72 -15.5t73.5 -7t63 -2zM1065 1147v-6q0 -2 -12.5 -12.5t-14.5 -12.5q0 -23 8.5 -41t22.5 -37q2 31 18.5 65t53.5 34h221q8 0 30.5 5 t30.5 9q104 39 175 121t71 203q0 18 -7 44.5t-24 43.5v-7q2 -139 -80.5 -234t-197.5 -136q-8 -4 -38 -11.5t-42 -7.5h-221q-14 0 -4 -8t10 -12zM874 885q2 16 11.5 47t29.5 31h7q18 0 48.5 -34t59.5 -77t49.5 -85t20.5 -56q0 -51 -35 -93l-6 -4q-14 -8 -45 28t-61.5 86 t-54.5 97.5t-24 59.5zM963 -492q293 0 495 220q16 20 26.5 37.5t10.5 44.5h-10q-59 -61 -116.5 -103.5t-121.5 -66.5q-164 -100 -366 -101h-47t-60 2t-60.5 9.5t-47.5 19.5q29 -18 68.5 -30.5t81.5 -19.5t81 -9.5t66 -2.5zM670 737q0 106 27.5 225t101.5 199q16 16 37.5 42 t48.5 26q2 0 7 -1l15 -3q4 4 6 5t7 5l-55.5 15t-35 0t-38 -22.5t-64.5 -53.5q-51 -72 -69.5 -168.5t-18.5 -186.5q0 -29 2 -68.5t8 -82.5t16.5 -85t28.5 -75q-16 61 -20 122.5t-4 106.5zM1069 279q43 0 83 39.5t68.5 96t46 117t17.5 103.5q0 74 -35 127q2 -10 3 -21.5 t1 -23.5q0 -96 -41 -179t-100 -153l-33 -35q-4 -4 -7 -33.5t-3 -37.5zM117 1270q2 -6 20 -25q6 45 36 76t71 50.5t86 27.5t80 8h34.5t57 -3t60.5 -10.5t42 -19.5q-18 18 -58 30.5t-83 20t-81 10.5t-54 3q-29 0 -65 -6.5t-68 -18.5q-29 -29 -49.5 -64.5t-28.5 -78.5zM399 625 q0 -39 10.5 -77t26.5 -75q-4 16 -5 33.5t-1 36.5q0 27 7 59.5t18 67.5l-6 135q-50 -102 -50 -180zM479 92q-6 4 -11 8t-11 9q-41 -66 -62.5 -110t17.5 -108q-2 6 -2 31q0 12 5 35t14 48.5t21.5 49t28.5 37.5zM319 1010q6 10 14.5 20t16.5 21q0 -2 -10 -4.5t-23.5 -4.5 t-25.5 -3t-15 -1q-39 0 -73 6q46 -28 116 -34zM1221 1356q2 2 10 2q-23 0 -55.5 8t-67.5 20.5t-68.5 25.5t-60.5 22l-55 18q12 -4 18 -10q72 -20 139.5 -43t139.5 -43zM956 803q0 25 -6 41t-11 20t-3 -10t20 -51zM1022 293l-1 -2l-3 -6q6 0 12 -1t12 -1q-8 6 -20 10z" />
<glyph unicode="U" horiz-adv-x="2123" d="M287 14q0 -80 35.5 -146.5t93 -116.5t129 -83t145.5 -43h109q139 0 258 41t223 139q10 12 30.5 35t20.5 27v14h-16q-117 -96 -239 -137t-273 -41q-135 0 -252 47t-203 152q-27 41 -26 88q-2 106 75.5 162.5t180.5 56.5q82 0 157.5 -29.5t145.5 -73.5q6 -6 21.5 -21 t31.5 -31.5t30.5 -30t18.5 -13.5q8 0 22.5 16.5t31 38t30.5 41t23 27.5q18 16 66 56t102.5 84t102.5 84t66 57h7q10 0 10 -11q25 -127 70 -208.5t145 -159.5q10 -8 24.5 -16.5t30.5 -8.5q25 0 42.5 34t29.5 42q35 45 75 81t73.5 67.5t55 60.5t21.5 57h-10l-86 -86h-10 q-27 0 -49.5 19.5t-40 46t-29.5 56.5t-14 52q-2 25 -4.5 90.5t-4.5 139t-2 140.5v91v584q0 39 14.5 64.5t33 44t34 36t15.5 39.5q-57 0 -130 -40t-138.5 -101.5t-110.5 -133t-45 -134.5v-768q0 -8 -11.5 -21.5t-25 -26t-26.5 -21.5t-19 -9h-11q-12 297 -8 594t-8 594 q-10 16 -31 16q0 -299 6.5 -591t6.5 -591q0 -41 -11.5 -76.5t-52.5 -58.5h-14q-25 0 -50.5 12.5t-51 28.5t-49 32.5t-44.5 24.5q-63 25 -125.5 33t-130.5 8q-84 0 -171 -33.5t-157.5 -91t-116.5 -135.5t-46 -166zM403 813q0 -61 30 -112.5t76 -89.5t104.5 -58.5t113.5 -20.5 q100 0 189.5 52.5t155 134.5t103 182t37.5 195q0 113 -43 213t-116.5 176t-173 120t-209.5 44q-61 0 -118.5 -14.5t-113 -31t-110 -29.5t-109.5 -13h-51q-35 0 -51.5 23.5t-23.5 51t-9 51t-8 23.5q-12 0 -20.5 -18.5t-13.5 -41t-8 -42t-3 -21.5q0 -76 36.5 -134t94 -99 t127 -62.5t135.5 -21.5q59 0 115.5 10t115.5 10q78 0 134.5 -29.5t93.5 -80t55 -117t18 -137.5q0 -66 -15 -127.5t-47 -109.5t-83 -76.5t-125 -28.5q-12 0 -33.5 1t-44 7t-39 17.5t-16.5 29.5v6h14q86 0 138.5 52.5t52.5 142.5v55q-29 47 -68 78t-96 31q-82 0 -136.5 -56.5 t-54.5 -134.5zM1530 506q-2 37 -4 126t-3 188.5t-2 187.5t-1 122v27q0 39 16 85t38.5 86t46.5 67.5t38 27.5l24 -1071q0 -33 26 -63.5t26 -63.5v-10l-45 -41q-35 0 -64 45t-49.5 102.5t-32.5 112t-14 72.5zM793 1372h-277q-23 -8 -41 -9t-41 -1q-16 0 -51 9t-69.5 23.5 t-61.5 33t-27 36.5v4q4 0 33 1t63.5 3.5t36.5 2.5q72 8 150 41.5t168 33.5q74 0 152.5 -43t142 -110.5t104.5 -149.5t41 -157q0 -8 -7 -35t-17.5 -56.5t-19.5 -53t-13 -23.5h-10q-2 68 -6.5 122t-17.5 101t-42 92t-78 94q-51 41 -112 41zM1843 819v584q0 33 26.5 74t46 70.5 t13.5 39.5t-71 -18l-3 -2q-16 -16 -29.5 -35t-13.5 -47v-584q0 -25 1.5 -90.5t2.5 -139t3 -138t4 -89.5v2q4 -16 11 -39.5t19 -44.5q-2 29 -4 94.5t-3 137.5t-2 136t-1 89zM1251 809q0 41 -1 83t-1 83q-18 -82 -58 -161t-96.5 -144.5t-128 -112.5t-151.5 -65q74 -4 129 -15 q104 41 184 131t123 201zM772 -457h109q139 0 257.5 41t223.5 140q10 12 30.5 34.5t20.5 26.5v14h-16q-102 -84 -213 -127q-88 -53 -183.5 -75.5t-201.5 -22.5h-115q-39 0 -34 -4t30 -9t53.5 -10.5t38.5 -7.5zM1065 -72q8 0 22.5 16.5t31 38t30.5 41t22 27.5q12 12 41 36 t65 53.5t75 61t73 60.5q-6 16 -11 33.5t-9 34.5q-25 -12 -33 -50t-47 -61h-14h-17q-20 0 -48.5 -19.5t-54.5 -42t-45.5 -42l-21.5 -21.5l2 2q-10 -10 -15 -17t-13 -18q-12 -16 -31.5 -38.5t-31 -44t-7.5 -36t37 -14.5zM690 301v10q0 10 17.5 17.5t40 11.5t42 6t23.5 2 q59 0 114.5 -27.5t106.5 -54.5l4 -10v-6q0 -8 -23.5 -25.5t-31.5 -25.5h-16q-27 0 -66 24.5t-67 36.5q-10 2 -34 7t-48.5 12.5t-43 13.5t-18.5 8zM1581 508q-2 8 6 -32t19.5 -89t25 -91t21.5 -38q-18 53 -28.5 100.5t-12.5 65.5q-2 37 -4 126t-3 188.5t-2 187.5t-1 123v26 q0 35 12 74l-4 158q-16 -35 -27.5 -75t-11.5 -75v-27v-71q0 -57 1 -139t3 -164t3 -149.5t3 -98.5zM1741 -47q10 -8 24.5 -16.5t30.5 -8.5q25 0 42 34t30 42q35 45 74.5 81t73.5 67.5t55.5 60.5t21.5 57h-10l-86 -86h-10q-20 0 -26.5 -1t-21.5 -15q-29 -29 -60.5 -58.5 t-59.5 -64.5l-2 -3t-7 -9v2q-6 -8 -17 -21.5t-23.5 -27t-16.5 -18.5zM659 127q49 0 99 -12q-45 20 -89 31.5t-91 11.5q-45 0 -92.5 -14.5t-71.5 -45.5q-31 -41 -39 -93t28 -89q4 104 79 157.5t177 53.5zM516 809q0 27 23.5 56.5t54.5 29.5q16 0 38.5 -24.5t22.5 -41.5 q0 -12 -11 -26.5t-27.5 -26.5t-33 -20t-26.5 -8q-16 0 -28.5 22.5t-12.5 38.5zM506 1423h53q47 16 96.5 30.5t102.5 14.5q39 0 34.5 5.5t-27 10.5t-51 10t-38.5 5q-43 0 -88 -12t-86 -27q-20 -6 -52 -14t-51.5 -15.5t-16.5 -12.5t52 -5q18 0 33.5 1t38.5 9zM506 1188 q59 0 115.5 10t115.5 10q33 0 30 5.5t-22.5 10.5t-47 10t-42.5 5q-51 0 -110.5 -10t-120.5 -10q-63 0 -115 14q47 -23 98.5 -34t98.5 -11zM840 758v55l-31 43v-16q0 -68 -25.5 -120t-70.5 -85q53 8 90 34t37 89zM1407 1520q-14 20 -20.5 9t-7.5 -35t1 -50.5t2 -34.5v-63.5 t2 -63.5q4 41 27 84q0 39 -1 77t-3 77zM567 809q0 -10 -6 -10q10 2 26.5 11t16.5 19q0 14 -10 15q-10 0 -18.5 -12.5t-8.5 -22.5zM674 479l16 4q-8 0 -16 1t-19 3q4 -2 9.5 -4t9.5 -4zM158 1628q-10 0 -2 -7l8 -7q-2 14 -6 14zM633 -416h2h-2z" />
<glyph unicode="V" horiz-adv-x="2011" d="M414 31q0 -109 56 -185.5t142 -126t186.5 -72t188.5 -22.5q170 0 306.5 76t252.5 197q16 18 39 46.5t23 59.5h-11q-76 -90 -145.5 -143.5t-142 -81t-151.5 -34.5t-171 -7q-66 0 -158 8t-176 37t-143 85t-59 152q0 57 28.5 98.5t72.5 67t97 38t103 12.5 q111 -2 232.5 -45.5t207.5 -108.5q20 -16 37.5 -51t40.5 -37q4 0 13 10t19.5 23.5t18.5 23.5t10 10q55 63 150.5 124t187.5 131.5t160.5 159.5t68.5 210q0 80 -35.5 143.5t-77.5 121t-77 117.5t-35 134q0 49 21.5 85t48 60.5t48 39t21.5 20.5q-2 20 -18 17t-18 14v10 q0 12 16 31.5t34.5 42t35 46t16.5 44.5q0 16 -14 16q-29 -31 -46.5 -49t-56.5 -18q-33 0 -62.5 17t-62 36.5t-69.5 37t-82 17.5q-125 2 -199 -75.5t-125 -180.5h-10q-16 0 -29.5 21.5t-21.5 29.5q-70 72 -132.5 117t-158.5 72h-88q-80 0 -142.5 -12.5t-138.5 -38.5 q-53 -18 -111.5 -42t-119.5 -24q-51 0 -78 23.5t-40 53t-17 53.5t-13 24h-6q-16 0 -20 -35t-4 -47q0 -86 35.5 -149.5t95 -104.5t134.5 -60.5t155 -19.5q57 0 111 5t114 5q80 0 131 -31.5t79.5 -83t39 -116t10.5 -127.5t-12.5 -127t-43 -115t-80.5 -84t-124 -33 q-23 0 -54.5 7.5t-60.5 21.5t-49 34.5t-20 49.5l10 6q18 -18 33.5 -22.5t37.5 -4.5h25q70 0 115 46.5t45 117.5q0 78 -44 126t-126 48q-92 0 -133 -62.5t-41 -152.5v-61q39 -88 112.5 -146.5t173.5 -58.5q117 0 210.5 50t158 132t99 187.5t34.5 214.5q0 59 -10 115.5 t-10 115.5q0 35 22.5 63.5t65.5 28.5q20 0 27.5 -48t7.5 -95v-51v-789q0 -4 -5.5 -7t-9.5 -3h-10q-59 0 -103 18.5t-77 18.5q-84 0 -201 -20.5t-225.5 -70.5t-184 -134t-75.5 -211zM1346 414q-6 139 -7 278q0 86 1 168t1 168v358q0 10 15 11q41 0 86 -25.5t94 -25.5 q31 0 57.5 5t55.5 5v-10q-90 -80 -152.5 -183.5t-62.5 -226.5q0 -84 31.5 -147.5t70.5 -119t70.5 -108.5t31.5 -117q0 -49 -19.5 -83.5t-57.5 -69.5h-11q-12 0 -41.5 14t-62.5 33.5t-61.5 41.5t-38.5 34zM727 1372h-51q-59 0 -113.5 -5t-111.5 -5q-14 0 -46 6t-64 16.5 t-56.5 22.5t-24.5 27v4q6 2 40 9t77 16.5t47 11.5q70 23 144.5 57.5t152.5 34.5q45 0 91 -23.5t87 -57.5t77 -72t62 -68q49 -33 60.5 -98.5t11.5 -127.5q0 -16 -6 -56t-16.5 -82t-24.5 -75t-29 -33q-2 74 -5 161t-29.5 162t-89 125t-183.5 50zM1352 -88q4 0 13 10t19.5 23.5 t18.5 24t10 10.5q55 63 150.5 123.5t187.5 131t160.5 159.5t68.5 210q0 18 -5 52t-10 56.5t-10 22.5t-5 -49q0 -139 -76 -236.5t-176 -175.5q-18 -29 -56 -65h-10h-10q-27 0 -68 -25.5t-80.5 -58.5t-73.5 -66.5t-46 -48.5q-10 -10 -20.5 -26.5t-14.5 -31.5t2 -27.5t31 -12.5 zM1536 942q0 8 3 27.5t9 41t14.5 38t18.5 16.5h6q16 -53 51 -100t69 -93.5t59.5 -92.5t25.5 -93q0 -35 -16.5 -66.5t-34.5 -62.5h-6q2 0 -29 47t-69 109.5t-69.5 127t-31.5 101.5zM860 328v10q0 10 25.5 17t57.5 12.5t59 8.5l26 3q18 0 49 -3t62.5 -9.5t60.5 -13.5t43 -15 q4 -2 20.5 -14.5t35 -26.5t33 -26.5t14.5 -14.5l-66 -72h-16q-104 49 -198.5 85t-205.5 59zM1069 -457q170 0 306 76t253 197q16 18 39 46.5t23 59.5h-11q-78 -92 -149.5 -145t-147.5 -82q-88 -57 -186 -89t-209 -32h-46t-67.5 2t-67.5 9t-44 20q20 -23 63 -35t89.5 -18.5 t89 -7.5t65.5 -1zM1253 815v260q0 -98 -28.5 -189t-79.5 -169t-125 -137.5t-162 -90.5q47 16 97.5 19.5t88.5 7.5q76 53 128 130t81 169zM1755 1120q0 49 21.5 85t48 60.5t48 39t21.5 20.5q-2 20 -18 17t-18 14v10q0 12 16 31.5t34.5 42t35 46t16.5 44.5q0 14 -15.5 6 t-35 -25.5t-37 -35l-21.5 -21.5q27 -45 10.5 -70.5t-47 -48t-60.5 -51.5t-30 -82q0 -14 5.5 -33.5t10.5 -36t10 -26.5t5 -6v20zM834 154q31 0 84 -3.5t81 -21.5q-47 31 -122.5 43t-124.5 12q-88 0 -161 -36.5t-89 -131.5q0 -29 8 -51t22 -43v17q0 57 29 98t73 66.5t97.5 38 t102.5 12.5zM1382 1509v7q0 16 36 34.5t61 20.5q16 0 42.5 -13.5t52 -31t45 -33.5t19.5 -25l-6 -10q-2 -4 -16 -6t-29.5 -3t-29 -1h-17.5h-14q-18 18 -41 26.5t-43.5 11.5t-37 7t-22.5 16zM803 1485h12q-25 0 -48.5 15.5t-45.5 15.5q-33 0 -75 -10.5t-86 -26t-85 -32.5 t-74 -32q10 -2 29 -2h21q29 0 54 1t54 3h10q29 0 57.5 10.5t57.5 23.5t58.5 23.5t60.5 10.5zM532 1192q57 0 111.5 5t114.5 5q23 0 17.5 5t-24 10.5t-41 10.5t-34.5 5q-29 0 -56.5 -2t-56.5 -4t-56.5 -3t-55.5 -1h-30t-45.5 1t-44 4t-28.5 11q16 -16 46 -25.5t62.5 -14.5 t65 -6t55.5 -1zM1421 610v148q-23 41 -30 90v-156q0 -66 1 -129t3 -129q18 -18 24 -13t6 20.5t-2 36t-2 32.5v100zM526 782q-10 0 -10 21q0 8 1 15t9 16l52 51h26l41 -45l2 -3t2 -8q0 -16 -15.5 -36.5t-35.5 -20.5h-4q-8 0 -34 3t-34 7zM840 741q0 12 -5.5 32t-10.5 36 t-10 25.5t-5 1.5v-13q0 -78 -39 -131t-104 -74h10q57 0 110.5 34t53.5 89zM1423 1130v175q0 10 15 10h4q-8 4 -25.5 10t-23.5 10v-301q0 23 10 49.5t20 46.5zM1243 1331h-10q0 -49 8 -100t12 -103v132v32q2 29 4.5 52.5t10.5 27.5h-4q-2 0 -10.5 -18.5t-10.5 -22.5z M1217 295q-25 10 -71 18.5t-85 12.5q10 -4 41 -14.5t61.5 -18.5t49 -10t4.5 12zM1587 948v-6q0 -29 8.5 -54.5t22.5 -49.5v22q0 31 -8.5 47t-22.5 41zM707 444q23 8 43 15.5t43 13.5q-35 -8 -93 -8q-55 0 -47.5 -4.5t54.5 -16.5zM526 834l19 -5l3 -1q3 -1 11 -3q-10 9 -33 9 zM1511 1294l11 -4l4 4h-15z" />
<glyph unicode="W" horiz-adv-x="2390" d="M276 0q0 -100 50.5 -173t127 -120t169 -69.5t176.5 -22.5q141 0 270 59.5t225 171.5q23 27 42.5 52.5t19.5 60.5h-10q-63 -63 -116.5 -107.5t-112 -72t-127 -39.5t-161.5 -12q-68 0 -156.5 7t-169.5 34.5t-136.5 83t-55.5 151.5q0 49 27 86t66.5 62.5t86 39t87.5 13.5 q92 0 170.5 -44t136.5 -110q12 -14 24.5 -45t32.5 -33h4q70 117 166 205t203 174h6q6 0 22.5 -24.5t35 -56t38 -63.5t31.5 -44l174 -174h16q92 88 204 150.5t208 132t161.5 164.5t65.5 249q0 66 -18 130.5t-57 115.5q-23 33 -52.5 67.5t-56.5 73.5t-44 80t-17 86 q0 53 26.5 96t65.5 82v27q-31 0 -66 -31t-51 -47q-78 -63 -131 -124.5t-84 -156.5v-81q0 -84 18.5 -157t67.5 -136q55 -70 109.5 -138.5t54.5 -162.5v-52q-18 -43 -59 -86t-95 -43q-4 0 -19.5 8.5t-31.5 20.5t-32.5 24.5t-22.5 18.5q-57 49 -91 103.5t-52.5 111.5 t-23.5 118.5t-5 129.5q0 137 8 256t31 244v10q0 20 -21 20q-31 0 -69.5 -22.5t-59.5 -32.5q-74 -41 -116 -103.5t-61 -137t-23.5 -155.5t-4.5 -157q0 -61 5.5 -122.5t5.5 -123.5q0 -14 -12.5 -37.5t-31 -46t-39 -39t-34.5 -16.5q-23 0 -54.5 27.5t-54.5 40.5 q-57 35 -116.5 48t-128.5 13q-88 0 -186.5 -28.5t-180.5 -83t-136.5 -134.5t-54.5 -184zM389 850v-51q0 -61 25.5 -112.5t67.5 -87.5t96.5 -56.5t111.5 -20.5q113 0 204 53.5t153.5 137.5t96.5 188.5t34 208.5q0 51 -10.5 98t-10.5 97q0 31 14.5 61.5t39 56t54 41t60.5 15.5 q59 0 108.5 -28t96.5 -61.5t98 -61.5t117 -28q131 0 237.5 75t178.5 181q8 14 24.5 41t16.5 31v25h-17q-31 -39 -69.5 -73t-87.5 -34q-57 0 -107.5 21.5t-102 47t-108.5 47t-129 21.5q-80 0 -154.5 -26.5t-136.5 -79.5q-12 -10 -35.5 -40t-49 -62.5t-47 -57t-28.5 -24.5 q-6 0 -17 15t-23.5 33.5t-23.5 35t-17 18.5q-8 8 -37 39t-39 43q-61 53 -143 72.5t-160 19.5q-70 0 -133.5 -8t-133.5 -29q-61 -18 -115.5 -39.5t-119.5 -21.5q-25 0 -55.5 8t-30.5 43v6q0 2 7 23.5t7 27.5v4q0 20 -10 21q-16 0 -27.5 -15.5t-17.5 -37t-8 -42t-2 -32.5 q0 -72 30.5 -126t79.5 -91t111.5 -56.5t126.5 -19.5q53 0 107.5 5t107.5 5q172 0 255 -100t83 -268q0 -57 -14.5 -117.5t-45 -111t-79 -82t-117.5 -31.5h-25q-18 0 -42.5 1t-46 7t-36 18.5t-14.5 34.5q92 0 155.5 34t63.5 140q0 70 -45 117t-119 47q-70 0 -110.5 -36 t-67.5 -97zM195 1475v4q0 2 66.5 17t148.5 33.5t153.5 33t81.5 14.5q84 0 164 -40t141.5 -103.5t98 -144.5t36.5 -163q0 -12 -5 -45.5t-12 -70.5t-17.5 -66t-22.5 -29h-4q0 59 -5 121t-21.5 118t-49.5 104.5t-88 82.5q-41 35 -92 35h-406q-12 0 -39.5 11.5t-56 28t-50 33 t-21.5 26.5zM1397 461q-8 61 -9.5 117.5t-1.5 117.5q0 115 19.5 202t89.5 181q4 6 14 6h11l16 -553q0 -20 6 -51.5t13.5 -62.5t16.5 -55.5t15 -30.5l113 -133q0 -12 -24.5 -23.5t-37.5 -11.5q-33 0 -63.5 36t-60 84t-59 98t-58.5 79zM1962 1065l4 6q-8 -12 24.5 -56 t75.5 -103.5t81 -125t38 -120.5q0 -18 -13 -47t-28.5 -48.5t-27 -17.5t-7.5 45q-27 45 -64.5 90t-73.5 93t-61.5 100.5t-25.5 111.5q0 35 13.5 60.5t31.5 56.5h6q4 0 15.5 -14.5t11.5 -30.5zM1704 -92h16q92 88 204 150.5t208 132t161.5 165t65.5 248.5q0 47 -10 97.5 t-33 93.5q12 -55 13 -109q0 -158 -60.5 -256t-152.5 -172q-23 -41 -61 -76t-85 -35q-78 -20 -155.5 -79.5t-149.5 -122.5q37 -37 39 -37zM1260 1028q0 51 -10.5 98.5t-10.5 96.5q0 33 15.5 64.5t41 56t57 39t62.5 14.5q-6 0 -37.5 15t-52.5 15q-16 0 -34.5 -18t-34 -39.5 t-27.5 -40t-17 -18.5q-4 0 -4 2v-8q0 -37 11 -88v2q4 -25 7 -50.5t3 -58.5q0 -104 -31 -208.5t-90 -192.5t-144 -150.5t-192 -81.5q16 2 30.5 3t31.5 1q27 0 52 -2t50 -6q76 33 135 92.5t101 134t65 159.5t23 169zM881 -467q141 0 270 59.5t225 171.5q23 27 42.5 52.5 t19.5 60.5h-11q-12 0 -42.5 -23.5t-62.5 -53t-58.5 -55.5t-30.5 -30q-98 -72 -205.5 -111.5t-228.5 -39.5h-44t-56.5 2t-54.5 7t-40 17q23 -18 59.5 -29.5t76.5 -17.5t78 -8t63 -2zM1485 1556q0 6 26.5 15.5t59.5 19.5q43 0 86 -16t83 -39t77.5 -45.5t70.5 -32.5 q-35 -23 -66.5 -39t-76.5 -16q-16 0 -57 21.5t-85 48t-79 52t-39 31.5zM1024 -109h4q59 100 138 178t171 152q-10 16 -18 18.5t-16.5 -3t-16.5 -11.5t-16 -6q-12 0 -27 8q-18 -16 -72.5 -70.5t-102.5 -113.5t-69.5 -105.5t25.5 -46.5zM696 291l-6 10q-4 8 8.5 13t31 9.5 t37.5 6.5t26 2h30q14 0 46 -4t64 -13.5t56.5 -22.5t24.5 -32l-68 -72h-20q-57 43 -107.5 65t-122.5 38zM1692 682q0 137 8 256t31 244v10q0 20 -21 20q-18 0 -27.5 -58t-14.5 -134t-6 -150.5t-1 -105.5q0 -80 8 -151.5t39 -137.5q-10 49 -13 100.5t-3 106.5zM659 123 q45 0 42 5t-25.5 10t-54 10.5t-43.5 5.5q-82 0 -139.5 -40t-73.5 -132q6 -47 28 -80v20q0 49 26.5 86t66.5 62.5t86 39t87 13.5zM727 1495q37 0 68 -8q-76 39 -150 39q-86 0 -170 -34t-168 -50q37 -14 55 -15h76q72 23 142.5 45.5t146.5 22.5zM1468 614q0 41 5.5 79t3.5 73 l-4 170q-23 -53 -29 -110.5t-6 -129.5v-126.5t32 -120.5q-4 41 -3 80.5t1 84.5zM492 793q0 33 20 52t46 23t46.5 -7t20.5 -42q0 -4 -9.5 -17.5t-22.5 -27.5t-29.5 -25.5t-31.5 -11.5q-20 0 -30 19t-10 37zM461 1202q53 0 107.5 5t107.5 5q37 0 74 -6q-66 37 -156 37 q-29 0 -54.5 -2t-52.5 -4q-29 -2 -55 -3t-53 -1q-23 0 -49.5 3t-55.5 7q93 -41 187 -41zM2114 1137v20q0 53 26.5 96t65.5 82v27q-49 0 -86 -45t-37 -78q0 -27 8.5 -52t22.5 -50zM2243 1475q8 14 24.5 40.5t16.5 30.5v25h-17q-20 -25 -42.5 -48.5t-49.5 -39.5v-88 q-29 -27 -49 -56q35 29 63.5 64t53.5 72zM813 737q0 10 -5 28.5t-10 35t-10.5 23.5t-5.5 -5q0 -72 -21.5 -114.5t-55.5 -67.5q61 8 104 59q2 10 3 20.5t1 20.5zM1935 1010v-17q0 -57 33 -114q-2 6 -2 32q0 18 2 27.5t-4 26.5v-2q-8 12 -15.5 24.5zM1796 1221q6 10 12.5 18 t12.5 16q-37 -6 -76 -6h-25q-16 0 -10 -4t21.5 -9t35 -9t29.5 -6zM1653 1509q23 0 16.5 4.5t-24 10.5t-39 11t-27.5 5q12 -8 30.5 -20.5t35.5 -12.5q6 0 8 2zM930 248l20 18q-12 4 -28.5 6t-38.5 4q12 -6 23.5 -13t23.5 -15zM664 459q14 4 28.5 6t30.5 6h-33q-10 0 -26.5 1 t-26.5 1t-7 -3t34 -11zM567 821q-2 2 -10 2q-4 0 -8 -10t-6 -18q4 6 11 13zM723 471q2 0 4 1t4 1q-2 0 -4 -1t-4 -1z" />
<glyph unicode="X" horiz-adv-x="1832" d="M31 35q0 -98 44 -173t114.5 -126t159.5 -78t177 -27q143 0 266 53.5t222 161.5q16 16 30.5 38t14.5 48h-21q-92 -111 -215 -154.5t-266 -43.5q-63 0 -149 12t-165 45t-133.5 89.5t-54.5 144.5q0 82 60.5 128t134.5 46q186 0 313 -138q0 -4 17.5 -30.5t27.5 -26.5l6 6 q16 14 30.5 41t25.5 41q47 66 102 122t102 118l17 10q4 2 15.5 -18.5t25.5 -47t25.5 -51t15.5 -30.5q43 -66 119.5 -123.5t150.5 -81.5h10q12 0 31 22.5t38 51t36.5 55t23.5 35.5q33 37 80 73.5t91 77.5t75 88t31 103q-12 0 -32.5 -32t-47.5 -71t-55.5 -70.5t-55.5 -31.5 h-14q-33 0 -70.5 20.5t-68.5 51t-51.5 68.5t-20.5 75v180l10 4q53 20 94.5 36.5t73 40.5t58 59.5t51.5 95.5q8 27 19.5 58.5t11.5 57.5q0 20 -11 21h-4q-47 -57 -102 -71.5t-129 -14.5h-51l-25 24v37q0 31 -1 78t1 92t9 78t22 33q27 0 51.5 -12.5t54.5 -12.5q45 0 105.5 41 t113 99.5t89 121t36.5 107.5h-20q-39 -35 -64.5 -48.5t-79.5 -13.5q-41 0 -65.5 13.5t-39.5 30t-25.5 29.5t-22.5 13l-10 -4q-16 -31 -43 -79t-54.5 -94t-49 -79.5t-27.5 -33.5h-7q-47 131 -141 216t-237 85q-68 0 -132.5 -13.5t-129 -30t-129 -29.5t-132.5 -13 q-31 0 -58.5 11t-27.5 50q0 18 5.5 34.5t5.5 37.5q-23 0 -36.5 -14.5t-20.5 -35t-9 -44t-2 -39.5q0 -113 72.5 -192t183.5 -101h98q61 0 122 10t118 10q55 0 83.5 -31.5t40 -76.5t11.5 -95.5v-87.5q0 -16 -3 -38.5t-20 -32.5q-70 -14 -131 -51t-108 -90.5t-75 -121 t-28 -143.5q16 0 42 21.5t52.5 46t48 43t32.5 8.5h167l21 -20v-117q0 -6 -3 -36t-11.5 -64.5t-22.5 -62.5t-39 -28q-18 0 -42.5 14.5t-53.5 32t-59.5 32t-59.5 14.5h-180q-10 0 -31.5 -6.5t-45 -13.5t-44 -16t-27.5 -16q-109 -53 -177 -147t-68 -217zM983 424v328l-10 20 h-215q0 23 26.5 43.5t62.5 35.5t71.5 25.5t54.5 14.5l10 51v307q0 25 -6 54.5t-19.5 54t-35 42t-52.5 17.5h-215q-57 -14 -133 -14q-14 0 -47 10t-65.5 26.5t-57 36t-24.5 35.5q0 4 4 5q6 0 21.5 1t31.5 1q18 0 33.5 1t21.5 1q96 12 189.5 47t189.5 35q80 0 148.5 -59.5 t107.5 -125.5q16 -27 31.5 -69.5t44.5 -63.5v-369q0 -8 9 -19t18 -11h174q0 -27 -30 -45.5t-65.5 -31.5t-65.5 -22.5t-30 -17.5v-348q0 -57 42 -107.5t77 -83.5v-4q0 -16 -27.5 -43.5t-44.5 -27.5q-41 0 -83 41t-73.5 91t-51 93t-17.5 45zM1352 1233q27 0 51 -12.5t55 -12.5 q45 0 105.5 41t113 99.5t89 121t36.5 107.5h-20q-25 -23 -42.5 -36t-37.5 -19q-31 -53 -73 -103.5t-87 -90.5t-88 -64.5t-78 -24.5q-49 0 -68.5 7t-23.5 2t1 -29.5t5 -85.5v-109h29q0 33 1 69.5t4 67.5t9.5 51.5t18.5 20.5zM1325 -92h10q12 0 30.5 22.5t38 51t37 55 t23.5 35.5q33 37 80 73.5t91 77.5t75 88t31 103q-12 0 -32.5 -32t-47.5 -71t-55.5 -70.5t-55.5 -31.5h-30q-6 0 -20.5 -12.5t-31 -27.5t-30 -29.5t-17.5 -18.5q-37 -37 -65.5 -89t-85.5 -93h-15q12 0 36 -14.5t34 -16.5zM608 -451q143 0 266 53.5t222 161.5q16 16 30.5 38 t14.5 48h-21q-39 -51 -84 -78.5t-92 -58.5q-96 -63 -195.5 -98t-222.5 -35h-34.5t-47 2t-47 7t-35.5 14q20 -16 52 -26.5t68 -16.5t68.5 -8.5t57.5 -2.5zM1325 422v182l10 4q53 20 94 37t73 40.5t58.5 59t51.5 95.5q8 27 19 58.5t11 57.5q0 20 -10 21h-4q-6 0 -24.5 -22.5 t-16.5 -20.5l-6 -19q-27 -68 -54.5 -109.5t-59 -68t-70.5 -44t-90 -36.5l-13 -6v-145q0 -43 31 -84zM338 291v6q0 6 21.5 17.5t51 23.5t58.5 21.5t43 9.5h4q18 -6 46 -12.5t53.5 -15.5t43 -21.5t17.5 -28.5q0 -8 -26.5 -33t-35.5 -43q-10 -10 -26.5 -8t-32.5 11t-33.5 20.5 t-29.5 17.5q-35 16 -75 21.5t-79 13.5zM690 -78l6 6q16 14 30.5 41t25.5 41q35 49 76.5 94.5t82.5 90.5q-4 10 -9 20t-9 21l2 -3q-10 14 -20.5 12.5t-20.5 -12t-20.5 -23.5t-18.5 -24q-27 -29 -53.5 -59.5t-50.5 -63.5q-10 -23 -24.5 -49t-37.5 -41l-2 -2q-4 -2 7.5 -14 t22.5 -22.5t13 -12.5zM901 1520h10q-23 0 -46 15t-46 15q-94 0 -185 -33.5t-181 -48.5q23 -6 41 -10t28 -4q33 0 66 3t63 11h4q61 16 122 34t124 18zM1055 809l10 51v307q0 29 -8 62t-27 59q2 -10 3 -19t1 -20v-317l-16 -82q-16 -4 -45 -10t-60 -17h91l12 -24q12 4 21.5 6 t17.5 4zM332 117q49 0 84 -8q-76 39 -166 38q-82 0 -106.5 -50t-30.5 -122q4 -14 10 -25t14 -24v17q0 82 60.5 128t134.5 46zM614 502q8 -2 16.5 -3t16.5 -3q8 6 28.5 26.5t43 41t42 34.5t27.5 6h56v31h-125q-43 -25 -74 -47.5t-31 -85.5zM506 1233h98q55 0 108.5 8 t106.5 12q-20 31 -57 31q-47 0 -111.5 -10t-128.5 -10h-98q-4 0 -7 1t-7 1q23 -10 46 -19.5t50 -13.5zM1065 371v299l-10 20h-21v-258q12 -27 19.5 -39t11.5 -22zM1460 1509h25v-14l-68 -68q-2 -2 -12 -8t-12 -6l-11 -6v20q0 12 26.5 47t51.5 35zM594 287h4q0 -2 3 -2t3 2 q0 8 -25.5 13t-39.5 9q-41 6 -47.5 3t8 -8t42 -11t52.5 -6z" />
<glyph unicode="Y" horiz-adv-x="1947" d="M668 -6q0 -68 49 -125t119.5 -100t148.5 -68t133 -25q152 0 282 62.5t225 167t149.5 241t54.5 283.5q0 74 -11.5 156t-39.5 151q-43 106 -95.5 222t-52.5 233v68q25 66 49.5 100.5t77.5 87.5v6q0 4 -10 14.5t-14 10.5q27 39 64.5 98t37.5 106q0 20 -10 21 q-14 0 -22.5 -13.5t-17.5 -29.5t-22.5 -29.5t-40.5 -13.5q-39 0 -72.5 16.5t-67.5 36t-70.5 34.5t-81.5 15q-68 0 -117 -21.5t-85 -59t-59.5 -90t-40.5 -111.5l-16 -11q-4 -2 -13 10.5t-21.5 31t-25 39t-22.5 32.5q-80 92 -176 133t-217 41q-61 0 -107.5 -7t-103.5 -24 q-66 -20 -123 -42.5t-123 -22.5q-43 0 -66.5 19.5t-35.5 42t-18.5 42t-16.5 19.5q-8 0 -10 -10.5t-2 -20.5q0 -76 24.5 -145.5t70.5 -122.5t110.5 -85t144.5 -32q61 0 119.5 10.5t120.5 10.5q76 0 131 -30t91 -79t53 -112.5t17 -131.5q0 -57 -15 -119.5t-48 -114.5t-82 -86 t-117 -34h-12h-18q-12 0 -19 2q2 0 2 2l-2 -2q-14 -14 -30.5 8.5t-16.5 26.5q0 8 25.5 14t56.5 23.5t56.5 53.5t25.5 103q0 61 -45 114.5t-109 53.5q-90 0 -140 -55t-50 -143q0 -57 28.5 -103.5t73.5 -78t99.5 -48t105.5 -16.5q84 0 160 35t137 93t104 131t60 151 q16 74 22 149.5t6 151.5v55v26.5t-2 26.5q8 27 21.5 49.5t44.5 22.5q41 0 73.5 -17.5t64.5 -37t67 -37t82 -17.5q23 0 49 5t53 5v-10q-111 -102 -180.5 -211.5t-69.5 -269.5q0 -174 62 -328q31 -80 61.5 -158.5t30.5 -168.5q0 -102 -37 -188.5t-102.5 -149t-153.5 -98 t-188 -35.5q-51 0 -108.5 11t-102.5 40q-20 12 -45 40.5t-49.5 58.5t-44 52.5t-29.5 22.5zM252 51q0 -100 59.5 -174t171.5 -72h35q10 0 10 11v4q0 10 -10 10q-43 8 -84 20.5t-72.5 34t-52 55t-20.5 85.5q0 104 64.5 157.5t164.5 53.5q57 0 116.5 -9.5t112 -31t96.5 -58.5 t70 -92h11q12 0 14 6q37 53 77 93t82 76t86 71t89 78q14 20 17 42.5t3 45.5v28q0 14 -3 49t-3 39v113v176q0 98 -1 201.5t-3 188.5t-6 140.5t-10 55.5q-4 0 -12.5 -1t-8.5 -9v-1024q0 -16 -24.5 -36t-40.5 -20q-12 0 -41 17.5t-64 39t-71.5 39t-65.5 17.5h-215 q-16 0 -36.5 -8t-45.5 -8q-68 -20 -136.5 -57.5t-124.5 -88.5t-92 -116.5t-36 -141.5zM621 1427q-53 0 -109.5 -2t-116.5 -2q-43 0 -94 27t-80 66v10q55 2 105.5 16t99.5 30.5t98 31t103 14.5q131 0 227 -80t162 -186q10 -16 31.5 -11t29.5 -16v-133q0 -53 -19.5 -108.5 t-41.5 -106.5h-10q0 113 -15.5 198t-58.5 141t-117.5 83.5t-193.5 27.5zM1466 891q2 49 23.5 112.5t38.5 86.5h10q12 -84 45 -164t65.5 -159t58.5 -160t26 -167q0 -180 -109 -344h-10v266q0 61 -23.5 124t-51.5 128.5t-50.5 134t-22.5 142.5zM1200 -406q152 0 282 62.5 t225 167t149.5 241t54.5 283.5q0 72 -11.5 155t-39.5 152q-4 8 -7.5 15.5t-7.5 17.5q18 -66 26.5 -132.5t8.5 -125.5q0 -158 -58.5 -303t-160.5 -257t-241.5 -178.5t-301.5 -66.5q-92 0 -94 -5t35 -10t85 -10.5t56 -5.5zM995 -37h11q12 0 14 6q37 53 77 93t82 76t86 71 t89 78q14 20 17 42.5t3 45.5v28q0 14 -3 49t-3 40v110q-8 27 -19.5 60.5t-11.5 62.5v-152q0 -18 3 -45.5t3 -42.5v-28q0 -23 -3 -49.5t-13 -49.5v-26q0 -16 -24.5 -36t-40.5 -20q-20 0 -41 -19t-37 -32l2 2q-55 -45 -106.5 -92t-98.5 -112q-12 -16 -5 -26.5t19 -33.5z M692 518q10 2 18.5 3t12.5 1h127q115 27 206 112t138 193v172q0 -2 -1 -3t-1 -3v0q-18 -84 -65.5 -164.5t-116 -144t-152.5 -102.5t-176 -39q-20 0 -39.5 1t-40.5 5q43 -21 90 -31zM647 317l-10 15q35 23 91 40t103 17q39 0 95.5 -19.5t79.5 -52.5q-2 -4 -14.5 -17 t-27 -26.5t-27.5 -23.5t-19 -10h-5q-66 31 -130 54t-136 23zM1712 1110v68q25 66 49.5 100.5t77.5 87.5v6q0 4 -10 14.5t-14 10.5q27 39 64.5 98t37.5 107q0 20 -10 20t-25.5 -19.5t-33 -44t-33 -48t-21.5 -33.5q14 -16 14 -23v-29q-41 -41 -63.5 -67.5t-38.5 -54.5v-9 l-8 -8q-6 -6 -10.5 -17.5t-6.5 -17.5v-59q0 -49 11.5 -107.5t38.5 -105.5q-14 25 -16.5 63.5t-2.5 67.5zM1348 1577q8 6 18 16.5t23 20.5l-3 -2q4 0 7 -2l-4 4q-4 4 14 9t16 5h6q4 0 38 -15.5t73 -37t71.5 -40.5t32.5 -30q0 -8 -4 -17t-12 -9h-123l-5 3t-9 7l-113 67 q-2 4 -3 7.5t-11 3.5q-12 0 -12 10zM600 154q8 0 26.5 1t39 0t38 -3t23.5 -9q-14 16 -42 24.5t-58.5 11.5t-60 4t-48.5 1q-86 0 -124 -40t-54 -115v-4q0 -49 31 -78q0 102 64.5 154.5t164.5 52.5zM709 1536q31 0 61 -6q-33 16 -67.5 26.5t-75.5 10.5q-70 0 -147 -29 t-146 -49q27 -14 61 -14h62q63 20 124.5 40.5t127.5 20.5zM483 850q2 16 22.5 47t43.5 29q33 0 48 -20.5t12 -45t-22.5 -47t-58.5 -25.5q-18 0 -31.5 23t-13.5 39zM463 1243q61 0 119.5 10.5t119.5 10.5q31 0 27 5t-23.5 10t-46 10t-38.5 5q-51 0 -113 -10t-127 -10 q-39 0 -76 6q68 -37 158 -37zM1348 1366q-4 0 -12.5 -1t-8.5 -9v-135q0 -47 3 -96.5t5 -100.5q8 45 31 98q-4 104 -7 174t-11 70zM801 774v14q0 51 -31 97v-15q0 -33 -10 -59.5t-22.5 -47t-22.5 -36.5t-10 -29q0 -2 14 8.5t31.5 24.5t33 26.5t17.5 16.5zM1518 891 q0 -47 11 -110.5t40 -104.5q-16 23 -18.5 64.5t-2.5 68.5q0 10 1 22.5t3 26.5q-4 10 -10 28.5t-11 31t-9 10.5t-4 -37zM565 -276h35q10 0 10 10v4q0 10 -10 10l-55 12q-4 2 -12.5 -2t-14.5 -4h-35h-22q-10 0 0 -5t28.5 -10t41 -10t34.5 -5zM913 307q25 0 18 5t-27.5 10.5 t-43 10.5t-29.5 5h-14q25 0 49 -15.5t47 -15.5zM1665 362v-51q0 45 3 70t-17 76q6 -23 10 -47.5t4 -47.5zM535 850q0 -10 -5 -10q8 0 21.5 7t13.5 13q0 4 -6 9t-10 5t-9 -9t-5 -15zM1317 1403h4q-12 4 -14 8v-10l4 1q4 1 6 1zM1501 1325h-8q4 0 4 -2t4 2z" />
<glyph unicode="Z" horiz-adv-x="1658" d="M31 123q0 -111 53 -189.5t136 -130t183.5 -76t194.5 -24.5q72 0 154 20.5t157.5 58.5t137 91t94.5 121v6q0 10 -11 10h-4q-72 -66 -137 -104.5t-135 -58t-146.5 -25.5t-170.5 -6q-78 0 -161 15t-151.5 53t-113.5 101.5t-45 157.5q0 86 55 147.5t145 61.5q27 0 45.5 -3 t40.5 -21q123 -135 263.5 -195.5t320.5 -60.5q119 0 228.5 26.5t194.5 86t136 153.5t51 229q0 113 -48 197t-136 162q-6 6 -25.5 16t-40 20.5t-37 18.5t-16.5 12v11q78 70 121 141.5t43 179.5q0 121 -45 200t-121 126t-175 66.5t-210 19.5q-10 0 -54 -7.5t-103.5 -19.5 t-126 -25.5t-121.5 -25.5h-21q-35 0 -71.5 16.5t-36.5 55.5q0 23 5 43t5 43q-20 0 -35.5 -16.5t-26 -40t-15.5 -48t-5 -39.5q0 -92 39 -153.5t102.5 -99.5t141 -53t153.5 -15q8 2 39 6t65.5 8t65.5 7t39 3h16q2 0 5.5 1t7.5 1q12 0 12 -12v-338q0 -8 -8 -9t-13 -1 q-61 0 -108 30.5t-86 71.5q-8 12 -13.5 24.5t-21.5 12.5q-23 0 -27 -15.5t-4 -31.5q0 -29 19.5 -47.5t44 -31.5t44 -22.5t19.5 -21.5q0 -10 -29.5 -26.5t-64.5 -40t-64.5 -51t-29.5 -60.5q0 -16 10 -31.5t31 -15.5q12 0 36.5 29.5t60.5 65.5t81 65.5t98 29.5q10 0 22.5 -5 t12.5 -21v-711l-14 -37q-6 0 -29.5 32t-50.5 73t-52.5 78.5t-37.5 48.5q-66 55 -141.5 88.5t-165.5 33.5q-80 0 -157 -30.5t-136.5 -86t-95 -130t-35.5 -162.5zM1018 952q43 0 74.5 -23.5t51 -58t29 -74.5t9.5 -75v-287q0 -37 -5.5 -89t-22.5 -100t-48 -83t-82 -35h-27 q-8 12 -14 32.5t-6 39.5v727q0 20 15.5 23t25.5 3zM1126 1464h-159q-86 0 -164 -10t-158 -10q-18 0 -55 11t-74 27.5t-64.5 38t-27.5 40.5v6h16q61 0 121 12t120 27.5t120.5 29t124.5 13.5q55 0 122.5 -26t126 -70t97.5 -101t39 -121v-20q0 -12 -9 -31l-8 -20h-10 q-10 80 -45 130.5t-113 73.5zM1280 547q0 70 -5 138.5t-5 137.5q0 10 10 17q57 -57 112.5 -128t55.5 -159q0 -39 -21.5 -88t-51 -92t-59.5 -73t-46 -30q0 70 5 138.5t5 138.5zM997 1028l-20 16v318q0 14 22 14h19q82 0 128 -58t46 -136q0 -72 -40 -115t-118 -43h-22 q-15 0 -15 4zM1628 485q0 94 -41 181q10 -57 10 -99q0 -115 -32.5 -201.5t-90 -150t-136 -105.5t-169.5 -65q18 -16 23 -41q90 16 170 53t139.5 95.5t93 141t33.5 191.5zM680 -379q72 0 153.5 20.5t157.5 58.5t137.5 91t94.5 121v6q0 10 -11 10h-4q-12 0 -35.5 -16 t-49 -36.5t-46 -39t-26.5 -22.5q-104 -76 -223 -119t-230 -43h-50t-63.5 2t-61.5 9t-44 20q25 -20 64.5 -32.5t82.5 -19t84 -8.5t70 -2zM430 420v14q51 0 104.5 -18.5t99.5 -51t83 -74.5t55 -91h-10q-57 0 -109.5 30.5t-95.5 68.5t-76 74t-51 48zM1028 899v-700 q0 -23 9.5 -21t21.5 10v656q0 20 22 24q-24 27 -53 31zM1008 1567q31 0 61 -8q-80 39 -143 38q-102 0 -199.5 -30.5t-196.5 -44.5q27 -10 55.5 -16.5t49.5 -10.5q92 16 183.5 44t189.5 28zM1489 1243q0 111 -41 189q4 -25 7 -51.5t3 -55.5q0 -106 -36 -180t-99 -139 q31 -14 57 -31q51 55 80 118.5t29 149.5zM717 680q8 0 24.5 17.5t39 42t51 52t63.5 48.5v59q-35 -6 -65.5 -26.5t-57.5 -47t-51.5 -54.5t-44.5 -46q0 -16 10.5 -30.5t30.5 -14.5zM147 61q0 82 51.5 143.5t137.5 65.5q-25 16 -33 23.5t-37 7.5q-31 0 -67 -16 q-61 -76 -80 -174q0 -8 5 -26.5t10 -34t9 -20.5t4 11v20zM768 1270q8 2 43 6t74 8v41q-16 -2 -45 -5t-58.5 -7t-54.5 -7t-31 -6q-12 0 -41.5 -1t-61.5 1.5t-59.5 7.5t-35.5 15q14 -18 50 -29.5t77 -16.5t80.5 -6t62.5 -1zM1331 547q0 -35 -2 -71t-4 -70q0 -23 4 -25t9 7 t11.5 23.5t12.5 24.5v29q0 53 -3 106.5t-7 106.5q-6 10 -13.5 19.5t-15.5 19.5q0 -8 1 -15.5t1 -15.5q2 -35 4 -69.5t2 -69.5zM1059 1077v203q0 14 22 14h15q-14 0 -33 14.5t-35 16.5v-254l21 -16q-18 14 -5 17t15 5zM1018 -10h2q37 23 36 31t-21.5 8t-50.5 -4.5t-48 -4.5 h-55t-70 1.5t-65.5 7.5t-43.5 18q20 -20 60.5 -31.5t85.5 -17.5t91 -7t79 -1zM414 1735q-18 0 -35 -15q8 -6 33 -10q2 7 2 25zM319 287l-4 6q0 -2 4 -6z" />
<glyph unicode="a" horiz-adv-x="1034" d="M41 328q8 -41 26.5 -96.5t49.5 -88.5l133 -139h20q51 59 120 116.5t126 104.5h10q10 0 32 -30.5t45.5 -69.5t43 -73t23.5 -38l10 -4q12 -6 52 32t82 90t75 103.5t33 71.5q-20 0 -30.5 -15.5t-27.5 -15.5q-31 0 -44 38t-18 94.5t-4 123t1 123.5v271q0 23 25.5 61.5 t49.5 77.5l-24 4l-51 -41h-11q-12 0 -44.5 32t-74.5 70.5t-87 70.5t-80 32q-12 0 -26.5 -13.5t-29 -31t-26.5 -33.5t-21 -25q-68 -59 -134 -97t-118.5 -81t-84 -104.5t-31.5 -167.5v-21q0 -16 1 -63t2 -100.5t3 -101.5t4 -66zM311 389v361v65v60.5t3 57t8.5 43t15.5 17.5 q31 0 61.5 -22.5t56 -54t44 -68.5t26.5 -66q0 -23 1 -78t2 -115.5t2 -114.5t1 -75v-30q0 -18 -5 -45t-16 -49.5t-28.5 -39t-42.5 -16.5q-31 0 -53 17.5t-37.5 44t-25 56t-13.5 52.5zM502 1044v11q0 10 12 17t18 7q23 0 46.5 -18.5t46 -44t43 -51t39.5 -39.5q0 -37 2 -130.5 t5 -197.5t5 -197.5t2 -130.5v-47q0 -31 -14.5 -26.5t-32 25t-31.5 47t-14 42.5l-21 553q-2 55 -37.5 101t-68.5 79zM209 850h10v-549q0 -35 23.5 -61.5t23.5 -65.5h-16l-51 51q-14 14 -27.5 39t-25 52.5t-17.5 54t-6 43.5v256q0 25 10 52.5t23.5 54t29 46t23.5 27.5z M752 -68l10 -4q12 -6 52 32t82 90t75 103.5t33 71.5q-20 0 -30.5 -15t-27.5 -15q-25 0 -39 24q-45 -66 -101 -134.5t-95 -100.5q10 -14 22.5 -30t18.5 -22zM881 573v271q0 23 25.5 61.5t49.5 77.5l-24 4l-51 -41h-11q-10 0 -15 -7t-5 -13v-402q0 -63 1 -118.5t7 -71.5 q14 10 19.5 38.5t6.5 65.5t-1 73.5t-2 61.5zM393 303v365v53q0 43 5 81t4 67.5t-14 49t-48 23.5q14 -8 18 -51t4 -84v-410q0 -16 10.5 -45t20.5 -49zM297 -41l35 -37h20q41 47 93.5 93t103.5 87q-4 10 -8 18.5t-9 16.5h-10q-25 0 -54.5 -18.5t-60 -45t-59 -58t-51.5 -56.5z " />
<glyph unicode="b" horiz-adv-x="958" d="M119 219h4q31 -31 67.5 -63.5t74.5 -62.5t75 -51.5t70 -27.5h26q47 49 117 97.5t134.5 100.5t111.5 112.5t47 136.5v399q0 53 -18.5 102.5t-48 92.5t-65.5 82t-73 71h-6q-16 0 -49 -31.5t-70 -70.5t-75 -70.5t-66 -31.5h-6q-10 0 -12.5 16t-2.5 27v376q0 31 2 64 t12.5 59.5t32 44t60.5 17.5q0 -31 -20.5 -57.5t-20.5 -65.5q0 -47 27.5 -75t74.5 -28q113 0 113 117q0 43 -19.5 75t-50 51.5t-68.5 28.5t-77 9q-168 0 -270 -127q-20 -23 -41 -60.5t-21 -68.5v-1085q0 -33 -9 -56.5t-19.5 -44t-19.5 -40t-9 -44.5q14 0 24.5 12.5t19.5 28 t18.5 28.5t25.5 13zM457 997q18 0 40.5 -20.5t42 -48t32 -57t12.5 -48.5v-587q0 -6 -13 -7h-12q-27 0 -61.5 20.5t-65.5 51.5t-52.5 66.5t-21.5 66.5v440q0 14 9.5 36t22.5 41.5t31 32.5t36 13zM180 322q-4 84 -5 172t-1 176v651q0 12 8 35.5t19.5 47t25 42t25.5 18.5 l24 -1116q0 -31 20.5 -61.5t44.5 -56t44.5 -43t20.5 -23.5l-11 -10q-35 8 -64.5 35.5t-56 57t-50.5 52.5t-44 23zM492 -68h26q47 49 117 97.5t134.5 100.5t111.5 112.5t47 136.5v399q0 39 -10.5 74t-26.5 70q6 -31 6 -62v-399q0 -61 -24.5 -112.5t-63.5 -94.5t-89 -81 t-99 -75q-41 -29 -80 -59.5t-80 -75.5h-45q41 -23 76 -31zM621 1044q16 0 28.5 -16t16.5 -24q66 -74 82 -163t16 -182v-116q0 -12 -8 -41t-21.5 -58.5t-30 -52t-32.5 -22.5v542q0 37 -25.5 66.5t-25.5 66.5zM457 922h-6q-10 4 -13 16q-12 -10 -20 -29.5t-8 -34.5v-440 q0 -33 30 -74v433q0 23 18.5 56.5t45.5 51.5q-14 23 -19 22t-28 -1zM604 1300q113 0 113 117q0 55 -31 92v-10q0 -168 -160 -168q27 -31 78 -31zM471 1495q0 55 57 55q23 0 39.5 -14t16.5 -41q0 -23 -16.5 -40t-39.5 -17q-29 0 -43 17t-14 40zM436 1098v256q-18 10 -30 24 v-307q6 4 13 11.5t17 15.5zM113 55q18 0 29.5 18.5t21.5 37.5q-16 16 -25.5 14t-15.5 -12.5t-8 -27t-2 -30.5z" />
<glyph unicode="c" horiz-adv-x="788" d="M471 1243h-6q-10 -8 -33.5 -28.5t-50.5 -43t-50.5 -43t-33.5 -28.5q-37 -31 -84 -61.5t-87 -67.5t-67.5 -81t-27.5 -102v-385q0 -63 21.5 -120.5t56 -108.5t78.5 -96t89 -84h11q2 0 18.5 15.5t35.5 36t37.5 37.5t24.5 23q25 16 62 39t70.5 49.5t58 56.5t24.5 60h-10 q-16 0 -32.5 -14t-30 -30.5t-26.5 -30t-23 -11.5q-27 0 -60 23.5t-61.5 56.5t-49 69t-24.5 60q0 59 -2 132t-4 138.5t-3 114.5t-1 66q0 41 5 74.5t21 33.5q8 0 21.5 -9t31 -20.5t37 -21.5t37.5 -10q49 0 92.5 22.5t74 59.5t48 84t17.5 94q0 4 -1 17.5t-9 13.5l-7 -4 q-14 -10 -19 -21.5t-9 -22t-14.5 -17.5t-32.5 -7q-31 0 -49.5 14.5t-28.5 31.5t-18.5 31.5t-16.5 14.5zM113 594q0 6 1 21.5t1 31.5l3 34t12 75t24.5 74.5t40.5 33.5h4q2 0 4 -30.5t3 -68.5t1 -70.5v-37.5q0 -12 -1 -25.5t-1 -25.5q0 -66 3 -127t11 -127q4 -35 27.5 -67.5 t43 -57t23.5 -39t-26 -14.5h-11q-53 47 -85.5 92t-50 94.5t-22.5 105.5t-5 128zM358 -88h11q2 0 18 15.5t35.5 36t38 37.5t24.5 24q25 16 62 38.5t70.5 49t58 56.5t24.5 60h-10q-16 0 -32.5 -14t-30 -30.5t-26.5 -30t-23 -11.5q-37 0 -75 -29.5t-69 -47.5l6 4 q-12 -12 -54 -51t-75 -64q12 -10 23.5 -21.5t23.5 -21.5zM526 850q49 0 92.5 22.5t74 59.5t48 84t17.5 94q0 4 -1 17.5t-9 13.5l-7 -4q-10 -8 -17 -27.5t-17 -28.5q-31 -82 -97.5 -139t-156.5 -61q16 -12 34.5 -21.5t38.5 -9.5zM373 803q0 27 3 44t2 29.5t-9.5 22.5 t-30.5 23q2 -10 3 -19.5t1 -17.5v-37v-27.5t2 -34.5q2 -72 5 -169t3 -175q4 -29 31 -67q0 59 -2 128.5t-4 131t-3 108t-1 60.5z" />
<glyph unicode="d" horiz-adv-x="911" d="M256 1120q0 -8 -35 -35.5t-77 -71.5t-77.5 -101.5t-35.5 -123.5v-374q0 -78 32.5 -136.5t79.5 -106.5t103.5 -90t101.5 -87h14q59 66 122 108.5t134 85.5q29 16 61 46t58.5 66t44 75t17.5 76v464q0 80 -39 147.5t-97.5 125t-125 103.5t-123.5 81q-27 16 -66 32.5 t-75.5 38t-62.5 49.5t-26 69q0 20 9.5 35.5t19.5 27.5t18.5 24.5t8.5 30.5q-47 0 -85 -25.5t-65 -64.5t-41 -85t-14 -87q2 -111 63.5 -169t147.5 -107q10 -5 10 -21zM342 1079q25 0 58.5 -29.5t64.5 -71.5t51.5 -85t20.5 -70v-583l-9 -6q-8 -5 -12 -9h-4q-23 0 -57.5 29 t-66.5 66.5t-54.5 78.5t-22.5 66v579q0 35 31 35zM164 1372h10q74 -45 151.5 -87t148.5 -91t128 -111.5t88 -146.5q2 -18 15.5 -57t11.5 -45v-302q0 -4 -7.5 -29.5t-20.5 -55t-29.5 -54t-34.5 -24.5v542q-20 63 -60.5 134t-103.5 112q-33 12 -83 37t-98.5 54.5t-82 62 t-33.5 61.5zM225 922v-543q0 -59 49.5 -114.5t87.5 -90.5q0 -8 -8 -9t-12 -1h-14q-33 0 -69 37t-66.5 86t-50 99t-19.5 79v293q0 8 10 35.5t25.5 55.5t33 50.5t33.5 22.5zM430 -88h14q59 66 122 108.5t134 85.5q29 16 61 46t58.5 66t44 75t17.5 76v465q0 72 -37 141 q6 -29 6 -60v-464q0 -43 -19.5 -89.5t-50 -88.5t-67.5 -75.5t-70 -54.5q-66 -39 -126 -81t-126 -113q10 -10 19.5 -18.5t19.5 -18.5zM393 389v574q0 31 -7 38t-24 21v-557q0 -31 31 -76zM322 1597q-18 0 -52 -8t-34 -28q0 -31 34 -56q10 29 31 46t21 46z" />
<glyph unicode="e" horiz-adv-x="761" d="M471 1229h-6q-49 -55 -124 -105.5t-143.5 -105.5t-117.5 -119.5t-49 -150.5v-345q0 -49 22.5 -111.5t60.5 -120.5t86 -103t97 -64h4q12 0 51 27.5t82 62.5t79 67t44 38q20 14 49 44.5t29 32.5v11h-27q-31 -23 -54.5 -47.5t-61.5 -24.5q-16 0 -46 20.5t-60 49t-52.5 60.5 t-22.5 54v15q49 49 108.5 103t111 115.5t85 132.5t33.5 150q0 31 -14 83.5t-39 103.5t-57.5 89t-67.5 38zM301 496q-6 68 -8 120t-2 107v80q0 18 -1 50t1 62.5t9 54t22 23.5h6q33 0 58.5 -36.5t42.5 -85t26.5 -94.5t9.5 -66q0 -25 -13.5 -62t-34 -72.5t-46 -60t-49.5 -24.5 q-13 0 -21 4zM113 567q0 27 5 75t14 94t24.5 80t38.5 34l30 -549q0 -14 13.5 -32.5t30 -36t29.5 -32t13 -22.5v-4l-8 -8t-6 -8h-10q-98 86 -136 186t-38 223zM731 834q0 78 -37 147q6 -31 6 -66q0 -111 -51 -198.5t-121 -163.5q-20 -49 -55 -96t-70 -47q-20 0 -23 -4.5 t-18 -14.5q6 -27 35 -55q49 47 107.5 101.5t109 115.5t84 131t33.5 150zM379 -78h4q12 0 51 27.5t82 62.5t79 67t44 38q20 14 49 45t29 33v10h-27q-31 -23 -54.5 -47.5t-62.5 -24.5q-12 0 -14 2q-63 -41 -116.5 -79t-118.5 -103h-2q26 -21 57 -31zM373 721v95t-33 95 q2 -6 2 -20v-19v-69q0 -72 1 -126t5 -122q29 27 27 74t-2 92zM455 1044v5q0 10 10 10h6q12 0 27.5 -21.5t29 -49t21.5 -54.5t8 -39q-20 0 -48.5 51t-53.5 98z" />
<glyph unicode="f" horiz-adv-x="854" d="M123 1055v-877q0 -23 1 -83t3 -128.5t4 -129t2 -83.5h14q2 41 2.5 82t0.5 80q0 115 41.5 207t181.5 143l6 15v665q0 18 1 46t4 54.5t6 45t9 18.5q10 2 34 3t48.5 7t43 22.5t18.5 49.5v27q0 16 -10.5 23t-20.5 7q-29 0 -52.5 -5t-49.5 -5l-21 14q-8 39 -9 67t-1 66v68l9 7 t11 7q31 0 56.5 -17t56.5 -17q45 0 87 21.5t74 56t50 78.5t18 89q-25 0 -46 -25.5t-50 -25.5q-43 0 -64.5 23.5t-37.5 58.5h-27q-6 -6 -18.5 -20.5t-26.5 -29.5t-27.5 -28.5l-19.5 -19.5q-31 -25 -68 -45.5t-71.5 -43t-66.5 -50t-50 -66.5q-20 -43 -29.5 -81t-21.5 -87 q-4 -14 -17.5 -16t-29 -5.5t-27.5 -13.5t-12 -43q0 -31 14 -38t31.5 -10t32 -13t14.5 -45zM209 717v495q0 8 8 32t19.5 48.5t23.5 44t21 19.5h6l10 -154v-833q0 -16 -30.5 -28.5t-41.5 -12.5h-6q-2 0 -4 58t-3 130t-2 133.5t-1 67.5zM215 -328h14q2 41 2 82v80q0 115 42 207 t182 143l6 15v665q0 18 1 46t4 54.5t6 45t9 18.5q10 2 34 3t48.5 7t43 22.5t18.5 49.5v27q0 16 -10.5 23t-20.5 7h-2q2 0 -1 -11t-10.5 -26.5t-15.5 -31t-14 -23.5q-47 0 -76 -4t-47 -8q-31 -6 -14.5 -37t16.5 -80v-676l-18 -43q-109 -39 -156 -106.5t-49 -145.5 q-2 -41 -1 -88t3 -90t4 -77t2 -48zM594 1352q45 0 87 21.5t73.5 56t50 78.5t18.5 89q-16 0 -38.5 -16t-43 -39.5t-33 -47.5t-8.5 -40l-34 -31l-14 -3q-15 -3 -23 -3h-4q-27 0 -55.5 -17.5t-57.5 -17.5h-4q23 -8 42 -19t44 -11zM451 1536l55 61h10q4 0 30.5 -16t47 -29.5 t24.5 -15.5l-34 -31l-14 -3q-15 -3 -23 -3q-6 0 -21.5 1t-32 4t-29.5 10.5t-13 21.5zM453 1294h8v78q0 18 -15.5 22.5t-15.5 10.5v-19v-49q0 -10 2.5 -30.5t20.5 -12.5z" />
<glyph unicode="g" horiz-adv-x="987" d="M82 -164q0 -61 28.5 -101t72.5 -62.5t97.5 -32t102.5 -9.5q76 0 157 22.5t148.5 68t111.5 111t44 151.5q0 53 -23.5 105t-27.5 106q0 2 -2.5 27.5t-3.5 59t-3 69.5t-2 59v10v57q0 47 1 113.5t2 132t3.5 120t4.5 79.5q4 53 27.5 97t53.5 91v10l-10 6h-4q-8 0 -21.5 -17 t-27.5 -38.5t-27.5 -39t-21.5 -17.5q-16 0 -36.5 23.5t-29.5 31.5q-61 53 -108 84t-123 76h-10q-8 0 -21.5 -13.5t-27 -30t-25.5 -30.5t-19 -18q-43 -41 -100 -80t-108.5 -85t-87 -101.5t-35.5 -129.5v-460q0 -43 18.5 -82t47 -74t61 -65.5t61.5 -55.5h6q25 0 42.5 38 t33.5 50l205 127l10 -4q8 -90 40 -170t32 -164q0 -96 -63.5 -155.5t-162.5 -59.5q-16 0 -40.5 3t-24.5 24q0 27 25.5 55.5t25.5 81.5q0 51 -31.5 90t-91.5 39q-59 0 -101 -33t-42 -90zM297 342q-2 18 -4 62.5t-3 94.5t-2 94t-1 62v97v55q0 27 1 57.5t4 57t7 44t12 17.5h11 q33 0 67.5 -21.5t62 -54.5t46 -70.5t18.5 -68.5v-471q-14 -14 -40.5 -51t-65.5 -37q-23 0 -41.5 14.5t-32.5 35t-23.5 44t-15.5 39.5zM614 229q-2 20 -4 73.5t-3 114t-2 114t-1 73.5q0 45 4 90t4 90q0 59 -14 113.5t-61 95.5q-18 16 -40 26.5t-42 29.5q16 37 56 14t81 -60.5 t72.5 -70.5t31.5 -21v-589q0 -135 14.5 -208t30.5 -134q0 -25 -22.5 -51.5t-28.5 -41.5h-10v21q0 86 -26 161.5t-40 159.5zM465 -451q76 0 156.5 22.5t148.5 68t112 111t44 151.5q0 53 -23.5 105t-28.5 106q0 2 -2 27.5t-3 59t-3 69.5t-2 59v10v57q0 47 1 113.5t3 132.5 t3 120t3 79q4 53 28 97t54 91v10l-10 6h-4q-8 0 -21.5 -17t-26.5 -37.5t-26.5 -38t-21.5 -19.5q-6 -12 -9 -85t-4.5 -159t0 -165t1.5 -103v-10q0 -37 3 -100.5t5 -96.5q0 -23 8 -48.5t16 -53.5v2q10 -29 19.5 -59.5t9.5 -69.5q0 -76 -30.5 -138.5t-81 -110.5t-115 -82 t-131.5 -52q-33 -14 -76 -17.5t-78 -3.5h-23.5h-38t-38 3t-21.5 9q10 -14 37 -23t58.5 -13.5t62.5 -5.5t45 -1zM188 829h7l14 -573q0 -8 8 -27.5t8 -23.5v-6q0 -14 -16 -15q-12 0 -28.5 24.5t-31 56.5t-23.5 61.5t-9 42.5v286q0 12 6 41t16.5 58.5t23.5 52t25 22.5zM369 573 v97v45q0 39 5 77.5t4 67.5t-13.5 47.5t-45.5 18.5q12 -14 15.5 -55.5t3.5 -73.5v-142v-59q0 -31 1 -66.5t2 -70.5t2 -63.5t3 -45.5q4 -14 11.5 -31.5t17.5 -31.5q-2 41 -4 112.5t-2 120.5v53zM383 10l109 68q-6 16 -9.5 32.5t-19.5 22.5l-131 -82q-20 -20 -24.5 -32.5 t0.5 -21.5t16.5 -16.5t23.5 -19.5q10 16 18.5 29.5t16.5 19.5zM430 -252q0 53 -31 90v-8q0 -25 -10 -50.5t-14 -42t5 -20.5t48 13q2 4 2 18zM219 -160h10v-10zM209 -190h-10v10zM313 932l2 -2v0q4 -2 3 0l-1 2h-4z" />
<glyph unicode="h" horiz-adv-x="966" d="M260 -317v-7q20 -8 30.5 -9t26.5 -1q119 0 218.5 50.5t170 133t109.5 190t39 220.5v600q0 51 -22.5 103.5t-54.5 98.5t-64.5 82t-53.5 54h-34q-59 -59 -105.5 -98t-120.5 -86h-16q-2 0 -5 -1t-7 -1q-8 0 -9 6v457q0 78 24 117.5t106 39.5v-14q0 -16 -9.5 -28.5t-21.5 -27 t-21.5 -29.5t-9.5 -34q0 -47 27.5 -76.5t74.5 -29.5q41 0 77 32.5t36 73.5q-2 80 -58.5 130t-131.5 50q-41 0 -102.5 -18.5t-118 -50t-97.5 -75.5t-41 -97l-4 -1116q0 -16 -10 -29.5t-21.5 -26t-20.5 -25t-9 -26.5q0 6 31.5 -22.5t70.5 -64.5t72 -66.5t35 -30.5t15 16 t28.5 37.5t31 42t23.5 27.5q8 8 25.5 12t35 9t29.5 13.5t12 20.5v10q0 10 -12 23.5t-26.5 29t-27 31.5t-12.5 35v584q0 25 36 53.5t63 28.5q45 0 70.5 -33t40 -79t18.5 -94t4 -77v-256q0 -176 -4 -312.5t-34 -232.5t-96.5 -152.5t-189.5 -74.5q-10 0 -10 -10zM270 1475 v-1219q0 -8 -15 -14t-19 -6q-12 0 -32 8t-20 16v1092q0 8 9.5 28.5t22.5 42t27.5 37t26.5 15.5zM639 1034q27 0 51.5 -40t43 -90t28.5 -97t10 -59v-41q0 -25 -2 -87.5t-3 -131t-3 -131t-2 -87.5q0 -37 -10.5 -86t-24.5 -78l-41 -81h-10v784q0 31 -2 77t-15 81 q-8 23 -14 33.5t-6 33.5zM342 -399v-7q20 -8 30.5 -9t26.5 -1q119 0 218.5 50.5t170 133t109.5 190.5t39 220v600q0 35 -10.5 68t-26.5 65q6 -27 6 -51v-600q0 -111 -35.5 -216t-100 -192.5t-156 -147.5t-199.5 -81q-10 -4 -41 -8t-31 -14zM481 932h-16q-2 0 -5 -1t-7 -1 q-8 0 -9 6v12q0 -4 -15 -12t-15 -14v-584q0 -23 30 -53v555q0 4 15.5 22.5t28 37t15.5 30.5t-22 2zM322 -51q2 0 15 16.5t28.5 38t31 42t23.5 26.5q8 8 25.5 12t35 9t29.5 13.5t12 20.5v10q-12 20 -26.5 22.5t-29.5 -3.5t-32.5 -17.5t-38.5 -15.5q-25 -6 -56.5 -48 t-64.5 -75q16 -20 30 -35.5t18 -15.5zM614 1311q41 0 77 32.5t36 73.5q0 10 -5 29.5t-10 35t-10.5 22.5t-5.5 -5q0 -53 -43 -103t-114 -55q26 -30 75 -30zM414 1395v-312q8 4 15 10.5t15 10.5v262q-14 9 -30 29zM485 1505q0 23 16.5 34t35.5 11q47 0 47 -45q0 -41 -47 -41 q-18 0 -35 10.5t-17 30.5z" />
<glyph unicode="i" horiz-adv-x="706" d="M180 932q2 -27 3 -89.5t3 -136t3 -147.5t1 -127v-63q0 -74 4.5 -124t21.5 -90t50 -76t88 -79h11q2 0 37.5 34t78.5 77t78 80.5t35 48.5h-10q-2 0 -23.5 -12.5t-28.5 -12.5h-4q-25 0 -39 24.5t-21 60.5t-9 76t-2 68v41v234q0 59 1 118.5t3 118.5q16 35 40.5 68t47.5 61v31 l-82 -67q-4 0 -19.5 28.5t-37 61t-47 61.5t-50.5 29h-10q-23 0 -68 -38t-91 -85t-79.5 -92t-33.5 -58q29 0 43 26t45 26q23 0 40 -29t21 -47zM283 291q0 41 -2 144.5t-6.5 220t-6.5 221t-2 147.5v4q0 12 15.5 16.5t25.5 4.5q8 0 19.5 -11.5t20.5 -27t15.5 -28.5t6.5 -19 v-631q0 -12 3 -54t7 -59v-14q0 -33 -14.5 -31t-32 21.5t-32.5 48.5t-17 47zM205 1464q0 -61 39 -97t100 -36q57 0 90 42t33 95q0 59 -34 99.5t-95 40.5q-70 0 -101.5 -41.5t-31.5 -102.5zM436 -82h10q2 0 38 34t79 77t78 80.5t35 48.5h-10q-2 0 -23.5 -12.5t-28.5 -12.5h-4 q-43 0 -75.5 -18.5t-60.5 -45t-50.5 -55t-42.5 -49.5q12 -10 25.5 -22.5t29.5 -24.5zM539 362v41v234q0 59 1 118.5t3 118.5q16 35 40.5 68t47.5 62v30l-82 -67q-41 -41 -41 -114v-140v-228v-41q0 -23 1 -53.5t3 -58t6 -47t10 -19.5h4q8 8 7.5 25.5t-0.5 27.5v43zM426 1249 q57 0 90 42t33 95q0 55 -31 95v-13q0 -74 -47 -131t-127 -57h-6q18 -2 33.5 -16.5t54.5 -14.5zM272 1475q0 31 16.5 51t45.5 20q31 0 46 -20.5t15 -50.5q0 -29 -15 -48.5t-46 -19.5q-29 0 -45.5 19.5t-16.5 48.5zM324 1475q0 -16 10 -17q10 0 10 17q0 20 -10 20t-10 -20z M113 874q2 0 18 5q0 29 -3 32.5t-6 -3.5t-6 -18.5t-3 -15.5z" />
<glyph unicode="j" horiz-adv-x="649" d="M61 -338q0 -12 29 -12q78 0 148.5 23.5t125 68.5t86 108.5t31.5 143.5q0 43 -12 83t-14 81q-2 37 -4 130t-3.5 197.5t-2.5 197.5t-1 130v57q0 66 22.5 109t70.5 90v27q-20 0 -43 -23.5t-33 -28.5v-6l-21 30q-22 30 -50 65.5t-52.5 65.5t-30.5 30h-16 q-53 -66 -104.5 -101.5t-120.5 -93.5q-35 -25 -35 -57q23 0 38 15.5t37 15.5q33 0 49.5 -39t22.5 -94.5t6 -117v-108.5v-506q0 -39 10.5 -73.5t22.5 -68.5t22.5 -68.5t10.5 -71.5q0 -53 -30 -87t-64.5 -54.5t-64.5 -33t-30 -24.5zM276 154q0 47 -3 168.5t-5 258t-5 258.5 t-3 169v10q0 12 10.5 21.5t20.5 9.5t20.5 -11.5t19.5 -26t15 -27.5t6 -17l17 -891q8 -27 9 -45.5t1 -46.5q0 -16 -6 -44t-25 -28h-6q2 0 -7 36t-21.5 79t-24 82t-13.5 45zM143 -420q0 -12 29 -12q78 0 148.5 23.5t125 68.5t86 108.5t31.5 143.5q0 43 -12 83t-14 81 q-2 37 -4.5 130t-3.5 197.5t-2 197.5t-1 130v57q0 66 22.5 109t69.5 90v27q-20 0 -42.5 -23.5t-32.5 -27.5v-7q0 12 -7.5 6t-16.5 -21t-16 -35.5t-7 -35.5v-57v-51q0 -47 2 -122t2 -153q2 -104 4 -195t2 -130q2 -29 14 -74t12 -94q0 -80 -27.5 -146.5t-76.5 -115.5 t-114.5 -81t-139.5 -44q-31 -17 -31 -27zM158 1479q0 -61 45 -97t98 -36q59 0 94 37.5t35 95.5q0 61 -39 100t-100 39q-57 0 -95 -39t-38 -100zM236 1485q0 66 61 65q66 0 65 -65q0 -72 -65 -72q-61 0 -61 72zM313 1280q12 -2 24.5 -9t24.5 -7h21q59 0 94 37.5t35 95.5 q0 53 -31 92v-10q0 -78 -49 -131.5t-131 -53.5h-10q2 0 9 -6t13 -8zM287 1485q0 -20 10 -21q14 0 14 21q0 14 -14 14q-10 0 -10 -14zM113 895q12 0 14 2q0 35 -7 23.5t-7 -25.5z" />
<glyph unicode="k" horiz-adv-x="1099" d="M598 502q0 -37 -1 -74t-1 -74q0 -94 21.5 -175t103.5 -138q12 -8 26.5 -17.5t30.5 -9.5l199 195q2 2 4 10t2 10l4 11q-18 0 -29.5 -10.5t-31.5 -10.5q-20 2 -30.5 37t-14.5 51v103q0 51 -20.5 90t-52.5 69.5t-71 52t-78 37.5q0 10 -10 11q35 41 69 67.5t61.5 54t44 64.5 t16.5 100q0 37 -19.5 82t-44 85t-47 68t-29.5 28h-4q-70 -70 -148.5 -114t-148.5 -101h-10q-8 0 -13 21.5t-8 53t-4.5 68.5t-1.5 67v70v62q0 45 2.5 95t11.5 91t29.5 68.5t59.5 27.5q4 0 18.5 -1t18.5 -9q-31 -31 -46.5 -56.5t-15.5 -66.5q0 -47 29 -78t78 -31q47 0 79.5 34 t32.5 85q0 47 -20.5 81t-54 54.5t-74.5 29.5t-80 9q-53 0 -111.5 -18.5t-107.5 -53t-82 -83.5t-33 -111v-1091q0 -35 -23.5 -67t-41.5 -50v-27q8 -4 37.5 -14t37.5 -10q18 -8 41 -28t42.5 -41.5t35 -37.5t21.5 -16q-6 0 23.5 24.5t67.5 54t70.5 56.5t32.5 33q0 14 -10 23 t-22.5 19.5t-23.5 26t-11 39.5v322h133q23 0 37 -15.5t25.5 -36t18.5 -42t11 -33.5zM195 246q-2 29 -4.5 100.5t-3.5 153.5t-2 154.5t-1 103.5v30q0 61 -1 137t-1 154t4 152t14.5 131t28 92t47.5 35v-1253q0 -12 -11 -14.5t-19 -2.5q-37 0 -51 27zM362 723v18q0 23 2.5 69 t13.5 91t34.5 79t68.5 34q29 0 52.5 -19.5t40 -48t25.5 -60.5t9 -57q0 -18 -6 -43.5t-19.5 -49t-33 -40t-43.5 -16.5h-127q-10 0 -13.5 14.5t-3.5 28.5zM696 281v211l4 10q31 -20 56.5 -73.5t37 -109t5.5 -98.5t-37 -43h-4q-14 0 -25.5 13.5t-19.5 32t-12.5 35t-4.5 22.5z M803 -41q12 -8 26.5 -17.5t30.5 -9.5l199 195q2 2 4 10t2 10l4 11q-18 0 -29.5 -10.5t-31.5 -10.5q-12 0 -19 13l-192 -187q2 0 6 -4zM922 874q0 49 -37 117q6 -18 6 -35q0 -53 -10.5 -90t-27.5 -64.5t-39.5 -49t-49.5 -43.5q-29 -29 -15.5 -33t46.5 -27q25 23 48 42.5 t40.5 44t28 57t10.5 81.5zM328 -51q-6 0 23.5 24.5t67.5 54t70.5 56.5t32.5 33q0 16 -13 25.5t-30 23.5q-8 -14 -28.5 -30.5t-43 -33t-44 -32t-31.5 -27.5q-14 -6 -23.5 -24.5t-25.5 -28.5q16 -16 27.5 -28.5t17.5 -12.5zM629 1305q47 0 79.5 33.5t32.5 84.5q0 55 -30 95 v-13q0 -27 -7.5 -49t-17.5 -41v-2q0 -18 -15.5 -32.5t-37 -24.5t-45 -15.5t-37.5 -5.5q27 -30 78 -30zM455 268v279h73q-16 31 -22 31h-82v-271q0 -14 11.5 -22.5t19.5 -16.5zM414 741v-10h32q4 53 20.5 113.5t61.5 79.5q-4 8 -8 13t-6 9q-10 -6 -17.5 -12t-15.5 -12h-10 q-10 0 -16 30q-16 -14 -24.5 -42.5t-11.5 -61.5t-4 -63t-1 -44zM444 1202v62v51q0 39 -7 49t-23 41v-133v-47q-2 -39 -4 -87t-11 -69q45 33 45 67.5v65.5zM496 1495q0 23 16 39t35 16q23 0 40 -16t17 -39q0 -20 -17.5 -35.5t-39.5 -15.5q-18 0 -34.5 15.5t-16.5 35.5z M670 1018v10l3 3t3 7h4q20 -2 38.5 -34.5t18.5 -47.5q0 -10 -5 -32.5t-21 -22.5h-11q0 37 -15 69t-15 48zM963 287v41q0 18 -10.5 43.5t-22.5 50.5q0 -4 1 -6t1 -6v-93q0 -33 -1 -35.5t32 5.5zM547 1495h6l-4 4q0 -2 -1 -3z" />
<glyph unicode="l" horiz-adv-x="792" d="M117 184h10q18 0 29.5 -13t20.5 -31.5t19.5 -37t22.5 -30.5q6 -8 41 -34t41 -34h37q4 0 17.5 16.5t13.5 20.5q31 23 69.5 50.5t73.5 53t58.5 47t23.5 33.5v15q-23 0 -40 -15.5t-38 -15.5h-8q-20 0 -39.5 24.5t-34 55t-23 61.5t-8.5 43v989q0 39 1.5 84t10.5 82t28.5 61.5 t58.5 24.5q10 0 6 -13t-13.5 -32.5t-19.5 -41t-10 -38.5q0 -49 28.5 -80.5t79.5 -31.5q57 0 82 33.5t25 85.5q0 78 -65.5 122.5t-143.5 44.5q-55 0 -115.5 -20.5t-109.5 -57t-81 -88t-32 -114.5v-1102q0 -27 -15.5 -49.5t-35 -43t-35.5 -41t-16 -40.5v-4l5 -5t9 -5zM225 276 q-6 147 -8 268.5t-2 248.5v184q0 63 -1 134t4 136.5t16.5 119.5t35.5 87q4 8 20.5 24.5t20.5 16.5h11v-1184q0 -31 15 -69.5t15 -57.5q0 -12 -12 -19t-23 -7q-14 0 -28.5 15t-27.5 35.5t-22.5 40t-13.5 27.5zM485 311v1057q-20 12 -30 25v-1000q0 -16 11 -60t28 -65 q-9 25 -9 43zM383 -78h37q4 0 17.5 16.5t13.5 20.5q31 23 69.5 50.5t73.5 53t58.5 47t23.5 33.5v15q-23 0 -40.5 -15.5t-37.5 -15.5h-8q-27 0 -70 -36t-71 -56q-14 -10 -26.5 -18.5t-23.5 -16.5l11 25q-8 -27 -23.5 -37.5t-24 -16.5t-6.5 -15t27 -34zM655 1315q57 0 82 33.5 t25 85.5q0 49 -31 90v-8q0 -72 -36 -121t-120 -49q27 -31 80 -31zM522 1509q0 20 13.5 33.5t31.5 13.5q41 0 41 -47q0 -41 -41 -41q-18 0 -31.5 11.5t-13.5 29.5zM270 461v811q-2 -16 -3 -35.5t-1 -40.5v-80v-139v-268q0 -59 2 -122t2 -126zM113 45v-4l5 -5q5 -5 9 -5l33 32 q-6 25 -14.5 28t-15.5 -5t-12 -20.5t-5 -20.5zM270 295v6l-2 1q-2 1 -2 3t4 -10zM573 1509q-2 0 -2 -2t-2 -2q4 0 4 4z" />
<glyph unicode="m" horiz-adv-x="1669" d="M72 215v-10q0 -8 21.5 -23.5t49 -33t55 -36t38.5 -36.5q2 -2 8 -14.5t13 -25.5t16.5 -24.5t17.5 -11.5q-14 0 15.5 30.5t70.5 68.5t78 70t37 36q0 18 -16.5 32.5t-24.5 32.5q-16 35 -18.5 70t-2.5 70v26q0 20 4 25q0 23 1 83t2 126.5t2 127t1 83.5q10 49 42 75.5t71 61.5 h14q20 0 33.5 -15.5t22 -37t11.5 -42t5 -32.5v-191v-106q0 -72 -2 -140.5t-8 -156.5q-8 -14 -31 -44t-20 -48q0 -20 22.5 -24.5t38.5 -12.5q47 -27 76.5 -69t52.5 -89h4q6 0 21.5 18.5t33 42t34 45t24.5 27.5q8 8 24.5 14.5t32.5 14.5t28.5 16.5t12.5 20.5q0 14 -9 29.5 t-20.5 33t-21.5 37t-10 39.5v522q0 47 34.5 96.5t87.5 51.5q41 0 61.5 -37t20.5 -76v-639q0 -29 15.5 -74t41 -88t56.5 -73.5t61 -30.5h15q14 18 54 51t82 69t73.5 69.5t31.5 56.5q-23 0 -36 -18.5t-35 -18.5q-23 0 -42.5 24.5t-19.5 47.5v634q0 53 30 93.5t67 76.5v21 q-16 0 -28.5 -9.5t-24 -21.5t-21.5 -21.5t-23 -9.5q-10 0 -29.5 31t-43 67t-47 66.5t-43.5 30.5h-11q-8 0 -24.5 -15.5t-37 -36l-40 -40t-31.5 -27.5q-10 -6 -33.5 -20.5t-49 -30.5t-48 -30.5t-33.5 -20.5h-10q-18 0 -39.5 34.5t-44 75.5t-45 76t-45.5 35h-10 q-70 -74 -148 -132t-149 -124h-6q-14 0 -35 41t-42.5 89t-43 88t-37.5 38h-21l-81 -82q-10 -10 -37 -28.5t-55.5 -39t-50 -39t-21.5 -26.5v-6q0 -10 10 -10t22.5 5t22.5 5q37 0 50.5 -42t10.5 -71v-219q0 -18 -1 -67.5t-1 -104.5t-1 -104.5t-1 -67.5q-4 -41 -24 -70.5 t-47 -56.5zM270 1059q14 -6 27.5 -23.5t25 -39t18.5 -44t7 -37.5v-659l-10 -10q-2 -2 -7 -5t-14 -10v17q0 2 -2 2h-2l-2 2l-24 10v-47h-11q-10 0 -26.5 15.5t-13.5 15.5v788q0 8 16 16.5t18 8.5zM748 1059h4q35 0 52 -48t23.5 -116t6.5 -142.5v-127.5v-11q0 -23 -1.5 -75 t-2.5 -110t-3 -110.5t-4 -72.5q-4 0 -20.5 -11.5t-20.5 -15.5h-10q-4 0 -27.5 21.5t-23.5 25.5v768l11 10q12 11 16 15zM1219 307v92q0 78 -1 183.5t-3.5 202t-3.5 164t-3 69.5q0 23 23 35q6 -25 9 -88.5t7 -145.5t7 -171t7.5 -167t8.5 -133t10 -69v667q0 16 -10 40t-10 32 l-27 35q-2 2 8 4t12 2q6 0 18.5 -13.5t26 -32t23.5 -38t10 -29.5v-758q0 -4 -11 -12t-15 -12h-5q-14 0 -27 17.5t-24.5 41t-18.5 47t-11 37.5zM1505 281v553q0 53 30 93t67 77v20q-16 0 -28.5 -9t-24 -21.5t-21.5 -21.5t-23 -9q-20 0 -25 -12.5t-5 -35.5v-634q0 -23 8 -16.5 t22 16.5zM1004 285v503q0 35 18 73t51 59q-4 37 -16.5 31.5t-22.5 -15.5h-10q-31 0 -41 -15.5t-10 -50.5v-522q0 -10 8 -25.5t18 -29.5h-2q2 -2 3.5 -4t3.5 -4zM512 270v58v26q0 20 4 25q0 23 1 83t2 126.5t2 127t1 83.5q0 29 22.5 54.5t41.5 41.5q0 23 -4 29t-10.5 2 t-13.5 -11.5t-15 -13.5h-6q-49 0 -48.5 -62.5t-1.5 -170.5q0 -35 -1 -69t-1 -64v-56q0 -20 -2 -28.5t-2 -24.5v-16q0 -33 2 -63t15 -58l2 -2zM1382 -82h15q14 18 54 51t82 69t73.5 69.5t31.5 56.5q-23 0 -36 -18.5t-35 -18.5q-23 0 -53.5 -20.5t-63.5 -48t-62.5 -58.5 t-48.5 -51h-18q34 -31 61 -31zM373 -82q-14 0 15.5 31t70.5 68.5t77.5 69.5t36.5 36q0 12 -17 22.5t-21 18.5q-2 -10 -27 -21.5t-35 -17.5q-35 -16 -57.5 -33.5t-42.5 -56.5l2 10q-2 -12 -16.5 -34.5t-30.5 -39.5q10 -16 22.5 -34.5t22.5 -18.5zM850 -72h4q6 0 21.5 18.5 t33 42t33.5 45t25 27.5q8 8 24.5 14.5t32.5 14.5t28.5 16.5t12.5 20.5q0 14 -10.5 29.5t-22.5 33.5q-8 -31 -33.5 -45t-52.5 -26l2 2q-35 -23 -62.5 -64t-66.5 -73q10 -12 16.5 -27t14.5 -29zM293 279v0q2 0 4 2v634q0 12 -10 43v-684l1 2q1 1 5 3zM774 297q2 35 3 82t2 93 t2 85t1 57v123q0 59 -2 121t-8 103v-670v5zM1280 195v12h-4l1 -3zM279 279l-5 2q2 -4 4.5 -5.5t4.5 -3.5z" />
<glyph unicode="n" horiz-adv-x="1187" d="M88 188v-14q70 -29 118 -68.5t87 -101.5h10q12 0 28.5 31t33.5 47q8 12 29.5 27.5t44 33t41 31.5t18.5 25q0 10 -10.5 23.5t-23.5 32.5t-23.5 45t-10.5 62v27v99.5t1 150.5t3 149.5t6 96.5q2 18 15.5 40.5t33 42t42 33t42.5 13.5q43 0 62.5 -84t26 -195.5t3.5 -224.5 t-3 -172v-59q0 -41 6 -84t34 -72l127 -119h7q-4 2 5 12.5t22.5 22.5t24.5 24.5t13 18.5l143 143q31 31 31 62h-20l-56 -51q-16 0 -28.5 14t-22.5 33.5t-15 40t-5 34.5v527q0 66 31.5 117t70.5 98v37l-92 -78q-16 10 -35.5 39.5t-41 61.5t-43 57.5t-40.5 25.5h-4 q-4 0 -20.5 -15.5t-37 -33.5t-36.5 -34.5t-18 -18.5q-14 -10 -47 -35t-69 -51.5t-63.5 -47t-31.5 -20.5q-8 0 -26.5 39t-42.5 87t-49.5 87t-49.5 39h-7q-23 0 -64.5 -38t-81.5 -84t-69.5 -84t-29.5 -36h16l35 17q14 0 27.5 -13.5t23.5 -31t15.5 -36t5.5 -28.5v-573 q0 -23 -10.5 -43.5t-22.5 -38t-22.5 -33t-10.5 -29.5zM252 225q0 43 -2 152.5t-3 232.5t-3 233.5t-2 153.5v21q0 37 16 35t34.5 -25.5t35 -57.5t16.5 -59v-675q-12 -12 -23.5 -24.5t-27.5 -12.5q-12 0 -22.5 9t-18.5 17zM754 287l-17 700q-10 27 -10 41q0 35 15.5 40t36 -7 t36.5 -36t21 -42v-713q8 -18 11 -28.5t3 -26.5q0 -31 -31 -31q-12 0 -22.5 12.5t-19.5 29t-15 34t-8 27.5zM1010 313v490q0 66 31.5 117t70.5 98v37l-92 -78q-20 -20 -30.5 -39.5t-10.5 -52.5v-527q0 -12 3 -31.5t7 -31.5zM512 274v33q0 29 1 99.5t2 149.5t3 149.5t4 97.5 q4 25 25.5 55.5t50.5 50.5q-4 20 -13.5 22.5t-20.5 -3.5t-20 -14.5t-12 -8.5q-6 0 -16 19q-20 -25 -24 -47v6q-2 -27 -4.5 -96.5t-3.5 -148.5t-2 -149.5t-1 -99.5v-27q0 -29 9.5 -50.5t21.5 -37.5zM870 -39l41 -39h7q-4 2 5 12.5t22 22.5t24.5 24.5t13.5 18.5l143 143 q31 31 31 62h-20l-56 -51q-4 -2 -13 3t-11 7l-117 -117q-16 -16 -37 -39.5t-33 -46.5zM375 -78h10q12 0 28.5 31t32.5 47q8 12 30 27.5t44.5 33t41 31.5t18.5 25q0 10 -11.5 23.5t-25.5 33.5q-10 -23 -35 -42t-51 -38h2q-45 -37 -67.5 -67.5t-49.5 -57.5q10 -10 17.5 -22.5 t15.5 -24.5z" />
<glyph unicode="o" horiz-adv-x="890" d="M41 403q16 -61 38.5 -127.5t78.5 -107.5q25 -18 55.5 -45t58 -51.5t49 -41t27.5 -16.5t21.5 18.5t33 41t34 41t28.5 18.5l194 123q41 27 80 86t39 113v385q0 70 -31.5 127t-78.5 104t-101.5 87t-101.5 75h-10q2 0 -34 -24.5t-81 -56.5t-87 -60.5t-54 -36.5 q-94 -61 -131 -153.5t-37 -201.5q0 -78 3 -142.5t7 -154.5zM301 502q0 14 -1 54t-1 83q0 45 -1 86t-1 57v52q0 10 1 34.5t1 53.5t1 54t1 38l16 4q20 6 53 -20.5t64 -63.5t54.5 -74t27.5 -51q0 -8 3 -39t3 -39v-475q0 -8 -6 -9t-10 -1q-35 0 -69 28.5t-61.5 69.5t-48 84 t-26.5 74zM430 -68q6 0 21.5 18.5t33 41t34 41t28.5 18.5l194 123q41 27 80 86t39 113v385q0 72 -35 131q2 -12 3 -24.5t1 -24.5v-385q0 -31 -13 -67t-33.5 -70.5t-47 -63.5t-51.5 -43l-205 -129q-16 -10 -47 -51q-16 -20 -25.5 -37t-27.5 -25q37 -37 51 -37zM195 885 l24 -471q2 -63 41 -115.5t88 -93.5v-10l-6 -5q-6 -6 -4 -6h-10q-37 0 -74 37t-65.5 87t-47 101.5t-18.5 82.5v239q0 12 9 37t20.5 51.5t24 46t18.5 19.5zM508 1044q25 -4 54.5 -33.5t55 -67.5t45 -75t23.5 -55q6 -29 8 -51.5t2 -46.5v-172q-4 -14 -12 -41t-19.5 -53.5 t-24.5 -46t-26 -19.5v467q0 6 -15 38t-34.5 67.5t-36 64t-20.5 24.5zM379 700v52q0 8 1 30.5t1 48.5q0 27 -5 53.5t-10.5 44t-10.5 16.5t-5 -30t-1 -50t-1 -31v-52v-57v-43t2 -45q0 -41 1 -77t1 -54q8 -43 31 -78q0 18 -1 57t-1 80q0 43 -1 81t-1 54z" />
<glyph unicode="p" horiz-adv-x="1046" d="M154 143q8 0 21 -2t13 -18v-481q0 -4 6 -8l5 -3h6q8 0 36.5 29t65.5 68t73 78.5t60 64.5q8 47 9.5 96t5.5 99l5 3t5 7h10l47 -45h10q61 70 130 107.5t151 86.5q80 49 100.5 139.5t20.5 184.5q0 39 -1 74.5t-1 66.5q0 35 1 70t1 69q0 90 -17.5 178.5t-87.5 153.5 q-8 8 -20 20.5t-24.5 24t-21.5 19.5t-11 8h-4q-70 -72 -134.5 -120t-138.5 -109h-14q-4 0 -7 -1.5t-8 -1.5q-4 0 -23.5 35t-43 76t-46 76t-32.5 35h-4q-66 -57 -139.5 -105.5t-126.5 -113.5v-11q0 -23 12 -18.5t26.5 15.5t25.5 21.5t11 2.5q31 0 47.5 -34t22.5 -83t7 -103.5 t1 -97.5v-368l-10 -27q-51 -47 -97 -109.5t-46 -140.5q0 -23 10 -10.5t27.5 35t40 45t45.5 22.5zM455 373q0 6 -1 23.5t-1 35.5t-1 35.5t-1 24.5v14q0 74 -3.5 162t4 164.5t32 129t79.5 52.5q43 0 67.5 -41t35 -95.5t12.5 -106.5t2 -75q0 -117 -3 -220t-7 -230q0 -4 -6 -7 l-5 -3h-10q-10 0 -40.5 19t-62.5 43t-59.5 46.5t-31.5 28.5zM260 1014q0 10 5 20t22 10q8 0 20 -18t22.5 -41.5t19.5 -45t13 -28.5v-508q0 -12 1.5 -30.5t2.5 -37t3 -32.5t4 -16l6 -17q12 -4 31.5 -13t41 -20.5t39 -22.5t25.5 -19l-24 -31h-119q-10 0 -10.5 -43t-3.5 -93.5 t-19 -93.5t-59 -43l-5 7q-29 45 -42 130t-15 190.5t4 222t14.5 225t15.5 201t7 147.5zM737 1028q0 12 2 19.5t19 7.5q31 2 49 -42t27.5 -99.5t12.5 -105.5t3 -60v-58v-112q0 -6 -3 -42t-12.5 -77t-26.5 -74t-46 -33v508q0 41 -12.5 84t-12.5 84zM563 -12l41 -39h10 q61 70 130 107.5t151 86.5q80 49 100.5 139.5t20.5 184.5q0 39 -1 75t-1 66q0 35 1 70t1 70v58.5t-4 73.5t-13.5 70.5t-27.5 46.5q8 -8 12 -31.5t4 -50t-1 -51t-1 -35.5q0 -18 -1 -36.5t-1 -34.5v-131q0 -18 1 -38t1 -40q0 -53 -4 -105.5t-19.5 -101.5t-44 -90t-77.5 -70 q-16 -10 -34 -20t-36 -21h2q-53 -33 -104.5 -64.5t-104.5 -88.5zM281 -451h6q8 0 36.5 29t65.5 68t73 78.5t60 64.5q8 47 9 95t6 96h-35q-2 -35 -4 -69t-9 -65q-12 -10 -40.5 -38.5t-59.5 -60.5t-58.5 -60.5t-35.5 -40.5l-2 -2q-6 -6 -11.5 -12.5t-11.5 -12.5v-59q0 -4 2 -6 zM557 922h-14q-4 0 -7.5 -1t-7.5 -1q-10 0 -16 -21.5t-9 -53.5t-4 -68t-1 -62q0 -29 1 -55.5t1 -55.5q0 -27 1 -51.5t1 -46.5v-14v-23q0 -20 2 -33v-45q6 -4 13 -10t15 -10v53q0 66 -3 144.5t1.5 150.5t20.5 127t53 76q-14 25 -20.5 20.5t-26.5 -20.5zM346 166v63q-4 0 -8 4 l-6 23q-4 14 -9.5 41t-9.5 55q2 -68 3 -136.5t3 -133.5q6 23 13.5 44.5t13.5 39.5zM113 -31q0 -10 10 -10q6 0 14 8v103q-24 -46 -24 -101zM117 897q-2 2 -2 8t-2 8v-2q0 -10 4 -14z" />
<glyph unicode="q" horiz-adv-x="1003" d="M506 195q8 -4 14 -11l6 -6v-577q10 0 54.5 38.5t92.5 87t87 89.5t39 45v948q0 61 28.5 106.5t63.5 98.5v30q-18 0 -30.5 -16t-23 -34.5t-21.5 -35t-28 -16.5q-25 2 -35 34t-22 48q-10 12 -38.5 36.5t-33.5 29.5q-16 12 -42.5 30.5t-54 37t-48 31.5t-22.5 13h-17 q-78 -88 -156.5 -130t-143 -87t-104.5 -119.5t-40 -226.5v-160q0 -70 4 -137.5t23.5 -129.5t58.5 -118.5t108 -103.5h25q51 51 80.5 77.5t83.5 65.5q16 12 44 37t48 25zM328 987h10q20 0 49 -23.5t56.5 -54t48 -62.5t24.5 -48q0 -14 2 -49t3 -75t3 -75t2 -47v-242 q-10 -47 -33.5 -68.5t-78.5 -58.5h-4q-18 0 -37 16.5t-32 40t-21.5 49t-8.5 42.5v645q0 8 6.5 9t10.5 1zM481 1028q4 10 25 10q37 0 64.5 -21.5t51 -52t43 -64.5t42.5 -56v-90q0 -61 1 -137t1 -162q0 -84 1 -161t1 -138v-90v-117q0 -25 -38 -53.5t-59 -28.5v942 q0 84 -42 125t-91 94zM881 -221v948q0 61 28.5 106.5t63.5 98.5v31q-18 0 -30.5 -16.5t-23 -35t-21.5 -35t-28 -16.5q-14 0 -17 -19.5t-3 -31.5v-948q0 -4 -22.5 -25.5t-57.5 -53.5t-78 -69t-84 -69v-125q10 0 54.5 39t92.5 87t87 89t39 45zM117 512v4q0 80 5 149.5 t46 127.5q4 12 19.5 31.5t31.5 19.5v-598q0 -4 11.5 -34t15.5 -34v-10q0 -14 -17 -14h-4q-37 0 -58.5 50t-32.5 113.5t-14 121t-3 73.5zM393 244v639l-31 24v-575q0 -16 8.5 -44t22.5 -44zM307 -92h25q45 49 71.5 73.5t71.5 55.5v67q0 2 -6 3.5t-2 1.5h-2q-16 -12 -23 -19 l2 2q-29 -18 -48 -33.5t-37.5 -32t-39 -37t-49.5 -50.5h-4q6 0 20.5 -13.5t20.5 -17.5z" />
<glyph unicode="r" horiz-adv-x="915" d="M82 147l102 89h11q37 -66 66.5 -108t86.5 -93q8 -8 27.5 -24.5t23.5 -16.5h15l307 297l3 8t3 12l4 11q-16 0 -33.5 -11.5t-33 -27t-27.5 -28.5t-19 -19h-51q-10 0 -26.5 16t-34 37.5t-29.5 42t-12 30.5v529q0 4 6 4h10q23 0 43.5 -5t48.5 -5q55 0 98.5 24.5t72 64.5 t44 92t15.5 105q0 4 -1 15.5t-9 11.5q-27 -45 -43.5 -66.5t-69.5 -21.5q-31 0 -50.5 18.5t-31.5 49.5q-16 0 -33.5 -26t-36 -56.5t-37 -56t-36.5 -25.5q-12 0 -29.5 29.5t-38 64.5t-45.5 64.5t-51 29.5h-4q-4 0 -19.5 -15.5t-33 -33.5t-33 -34.5t-17.5 -18.5 q-18 -16 -44.5 -32.5t-51.5 -36t-41 -43t-16 -52.5q25 0 43 23.5t43 23.5q18 0 31.5 -13.5t21.5 -31.5t11 -38.5t3 -35.5v-536q0 -27 -19.5 -51.5t-42 -47t-42 -43t-19.5 -39.5h21zM276 328v71q0 47 -1 110.5t-2 130.5t-2 131.5t-1 111.5v73v43q0 25 21 25q14 0 25.5 -13.5 t21.5 -30.5t18.5 -35.5t16.5 -29.5v-577q0 -51 28.5 -93t28.5 -61q0 -6 -13.5 -18t-17.5 -12v4q0 6 -17 29.5t-38.5 51t-41.5 52.5t-26 37zM547 305v504q0 4 6 4h10q23 0 43.5 -5t48.5 -5q55 0 98.5 24.5t72 64.5t44 92t15.5 106q0 23 -6.5 21.5t-13.5 -11.5t-15 -24.5 t-12 -18.5q-10 -45 -45 -106.5t-76 -76.5h-4q-29 0 -64 -20t-76 -20q-27 0 -37 2l-20 4v-478q0 -8 10.5 -25.5t20.5 -31.5zM481 -88h15l307 297l3 8q3 8 3 12l4 11q-16 0 -33.5 -11.5t-33 -27t-27.5 -28.5t-19 -19h-49l-215 -207q10 -10 25.5 -22.5t19.5 -12.5zM547 993v4 l8 7q8 6 18.5 14t17.5 16t7 10h6q16 0 18.5 -6t-2 -12t-8.5 -12t0 -6l21 20q2 2 -2 6t-4 6q16 -6 32.5 -16t16.5 -20v-7q0 -4 -16.5 -20t-24.5 -21h-21q-20 0 -43.5 7t-23.5 30zM143 66h21l49 40q-12 16 -25.5 15.5t-22.5 -10t-15.5 -22.5t-6.5 -23zM113 854q4 0 20 4v6 q0 25 -3 31t-7 0t-7 -18.5t-3 -22.5zM600 975q-2 0 -6 -4l2 2q2 0 4 2z" />
<glyph unicode="s" horiz-adv-x="976" d="M184 113q72 0 112 -33t93 -86h10q8 0 22.5 9t30 20.5t29 22.5t21.5 15q27 29 77 50.5t102 45t96 54.5t63 76q16 41 18 80t6 88v10q0 49 -9 99t-32.5 91t-61.5 67t-95 26q-43 0 -75 -17.5t-59.5 -39t-54 -39t-57.5 -17.5q-23 0 -40.5 26.5t-17.5 49.5v231q0 14 23 6 t53.5 -23.5t61 -29.5t47.5 -14h6q55 0 105.5 30.5t88 76.5t60 101.5t22.5 102.5q-23 0 -35 -16.5t-25 -37t-32.5 -37t-56.5 -16.5q-29 0 -48.5 15.5t-32.5 35t-23.5 36t-22.5 16.5q-51 -23 -98 -63t-93 -66q-55 -35 -109 -65.5t-96 -68.5t-69 -88.5t-27 -119.5 q0 -37 13.5 -77t38 -71.5t58.5 -52t75 -20.5t74.5 15t63.5 34.5t56.5 36t51.5 16.5q31 0 58.5 -25.5t27.5 -56.5v-291l-11 -10q-49 47 -104 61.5t-121 14.5q-43 0 -96 -24.5t-101.5 -64.5t-81 -88t-32.5 -94h10q12 0 27.5 14.5t33 32t37.5 32t45 14.5zM471 -88h10 q8 0 22.5 9t30 20.5t28.5 22.5t22 16q27 29 77 50t102 44.5t96 54.5t63 76q16 41 18 80t6 88v10q0 47 -9 96t-32 90q6 -27 8 -52t2 -52v-10q0 -10 -1 -20.5t-1 -20.5q-2 -43 -6 -74t-18 -70q-25 -66 -88.5 -102.5t-122.5 -63.5q-27 -10 -33 -14l6 2q-6 -2 -27.5 -16.5 t-43.5 -26.5h2q-16 -10 -30 -18l-15 -8q2 0 -12.5 -9.5t-24.5 -17.5q-39 -29 -52.5 -38t23.5 -46zM629 799h6q55 0 105.5 30.5t88 76.5t60 101.5t22.5 102.5q-27 0 -47 -27.5t-37 -54.5q-47 -74 -114.5 -119t-151.5 -80h-18q20 0 40.5 -15t45.5 -15zM666 301v297 q0 4 -5.5 13.5t-5.5 13.5t2 7l2 3h11q31 0 49 -22.5t27.5 -53.5t12.5 -63.5t3 -51.5q0 -20 -4 -45.5t-15.5 -47t-29.5 -36t-47 -14.5zM164 721q0 14 9 37.5t24.5 46t35 39t37.5 16.5v-246q-39 0 -72.5 34t-33.5 73zM328 414q59 2 108 33.5t90 54.5v14q0 10 -11 20.5 t-23 10.5q-10 0 -26.5 -10.5t-39.5 -24.5q-37 -25 -80 -46.5t-100 -21.5h-10q20 0 42.5 -15t49.5 -15zM266 31h10q-23 0 -43 15t-49 15q-18 0 -31.5 -15t-22.5 -35.5t-13 -41t-4 -30.5h10q12 0 27.5 14t33 31.5t37.5 32t45 14.5zM301 174q10 10 30.5 15.5t42 5.5t38 -8.5 t18.5 -28.5q0 -10 -12 -20.5t-25 -10.5q-23 0 -51.5 12t-40.5 35zM444 690v170q-20 12 -28 19h-2v-168q0 -8 1 -16.5t5 -8.5t24 4zM502 1004q0 25 14 24l27 -10h65q4 0 7 -5t3 -9q0 -8 -3 -17.5t-11 -9.5h-98q-6 0 -6 10q0 4 1 8.5t1 8.5zM215 721q0 -2 4 -19v39 q0 -8 -2 -13t-2 -7z" />
<glyph unicode="t" horiz-adv-x="727" d="M82 96l65 68h11q27 -20 52.5 -51t48 -59.5t43 -49t36.5 -20.5h14q6 0 47 33.5t87 76.5t85 83t43 52v11l-10 6h-6q-4 0 -24.5 -20.5t-36.5 -20.5q-35 2 -66 48t-31 79v696q0 16 27 25.5t51 9.5q23 0 39 -4l6 10l2 11q2 12 2 16q0 51 -27.5 55t-62.5 6q-27 0 -39 15.5 t-16 39t-3 49t1 44.5q0 66 4 128t31 123q12 23 34.5 37.5t22.5 44.5q-29 0 -55.5 -12t-53.5 -29q-68 -41 -109.5 -80.5t-69 -86t-44 -102.5t-33.5 -130q0 -10 -5 -22.5t-9 -14.5h-88q-8 0 -11 -25.5t-3 -35.5v-31q8 -12 24.5 -17t32.5 -8.5t29.5 -6.5t15.5 -9q0 -8 1 -28.5 t2 -43t3 -43t4 -28.5v-578q-6 -12 -8 -26.5t-2 -28.5q0 -25 -12 -43.5t-26.5 -34.5t-27 -34.5t-12.5 -43.5h27zM236 266q-2 41 -4.5 131t-3.5 195.5t-2 210t-1 174.5v61q0 86 21.5 167t70.5 151h11q0 -49 4 -132t16 -145v-833q8 -12 19.5 -34t11.5 -38q0 -8 -14.5 -17.5 t-22.5 -13.5h-4q-10 0 -23.5 16.5t-29 38t-28.5 42t-21 26.5zM522 262v684q0 16 26.5 25.5t51.5 9.5q23 0 39 -4l6 10l2 11q2 12 2 16q0 29 -17.5 46t-17.5 -5l-34 -58q-16 4 -34 9.5t-28 5.5q-8 0 -16 3t-10 11v-694q0 -16 9 -38t21 -32zM420 -98h14q6 0 47 33.5t87 76.5 t85 83t43 52v11l-10 6h-6q-4 0 -24.5 -20.5t-37.5 -20.5q-23 0 -56.5 -21.5t-68 -52.5t-65.5 -62.5t-49 -54.5h-6q16 0 27.5 -15t19.5 -15zM502 1206v17q0 66 4 128t31 124q12 23 34.5 37t22.5 44q-53 0 -79 -24.5t-35 -62t-9 -82v-82.5v-50q0 -10 1 -22t3 -27h27zM285 289 q10 -10 12 -15v795q0 16 -4 36.5t-8 43.5q-8 -51 -9 -111v-61v-76q0 -49 1.5 -115.5t2.5 -137t2 -141.5t1 -126v-52.5t2 -39.5zM137 14h27l33 35q-14 18 -25.5 19.5t-19 -7t-11.5 -23t-4 -24.5z" />
<glyph unicode="u" horiz-adv-x="1181" d="M158 158h10q12 0 28.5 -26t39 -56.5t49 -56t57.5 -25.5h16q66 70 129.5 120t141.5 111h6q6 -10 29.5 -48t53.5 -78t57.5 -72.5t43.5 -32.5h10q8 0 47 37t82 84t77 91t34 60q-25 0 -39 -20.5t-37 -20.5t-35 16.5t-18 40t-7 49t-1 46.5v78q0 27 1 95t1 144q0 78 1 146.5 t1 95.5q4 29 22.5 51.5t38 43t36 41t16.5 44.5h-25l-88 -88q-14 14 -34.5 43t-42 57.5t-42 51t-35.5 22.5h-10q-31 -31 -70.5 -64.5t-75.5 -63.5t-61.5 -53.5t-27.5 -33.5v-20q20 0 34.5 15t36.5 15q20 0 32.5 -33.5t14.5 -41.5v-570l-16 -51l-96 -92h-11q-35 0 -54 17.5 t-27.5 44t-9.5 57t-1 55.5q0 47 -1 111.5t-2 132t-2 132t-1 111.5v76q-4 74 -45 133.5t-82 112.5l-16 10q-6 2 -47 -30.5t-88 -74.5t-86 -79t-39 -41q0 -16 10 -17.5t22.5 4t23.5 12.5t15 7q20 0 31.5 -18.5t17 -43t6.5 -47t1 -30.5v-584q0 -33 -34 -78t-52 -59v-27h20z M250 260v80q0 55 -1 123.5t-1 144.5q0 78 -1 147.5t-1 125.5v82v24q0 37 35 37q14 0 26 -23.5t22.5 -54.5t16.5 -59.5t6 -36.5v-625q0 -4 5 -20.5t5 -20.5t-8 -13t-16 -13h-6q-8 0 -21.5 15t-26 33.5t-22.5 35t-12 18.5zM768 1028h4q20 -10 46 -40t26 -52v-676q0 -8 3 -30.5 t7 -30.5v-11l-12 -10q-13 -10 -13 -14h-6q-12 0 -26.5 14.5t-24.5 32.5t-17 36.5t-7 28.5v738l8 7q8 7 12 7zM1014 299v74q0 27 1 95.5t1 143.5q0 78 1 146.5t1 95.5q4 29 22.5 51.5t38 43t35.5 41t16 44.5h-24l-88 -88l-17 17q-14 -16 -14 -31q0 -29 -1 -95.5t-1 -142.5 q0 -39 -1 -75.5t-1 -69.5v-94v-78q0 -23 1 -54.5t5 -41.5l2 2q9 8 23 16zM901 -88h10q8 0 47 37t82 84t77 91t34 60q-25 0 -39 -20.5t-37 -20.5q-14 0 -33.5 -15t-40 -34.5t-38 -40t-29.5 -30.5q-41 -35 -61.5 -61.5t28.5 -49.5zM424 -88h16q53 57 103.5 98t109.5 88 q-4 8 -10 16.5t-12 18.5l-6 -6h-11q-27 0 -58.5 -19.5t-62 -48t-60.5 -60.5t-54 -56h-19q33 -31 64 -31zM516 864q-2 14 -3 26.5t-5 24.5h-23q0 -47 1 -125.5t3 -166.5q2 -51 2.5 -97.5t0.5 -91.5v-123q2 -16 9 -31.5t21 -19.5q0 49 -1 137t-2 180.5t-2 172t-1 114.5z M301 350v500q0 4 -1 16.5t-3 28.5v-129v-78t2 -86v-137v-60.5t2 -54.5zM154 41v-27h20l25 23q-6 8 -11.5 15t-9.5 14q-6 -10 -13 -15.5t-11 -9.5zM485 954v19q0 2 -4 6q2 -4 2 -12q0 -9 2 -13z" />
<glyph unicode="v" horiz-adv-x="987" d="M117 215q8 0 26.5 -17.5t39 -41t39 -44t28.5 -26.5q8 -6 27.5 -17.5t42 -25.5t42 -25.5t27.5 -17.5h14q10 0 26.5 14.5t34 34t34 37.5t28.5 27q63 39 124 73.5t109 76.5t78.5 99.5t36.5 143.5v201q0 72 -5 137t-26.5 126.5t-62.5 116t-114 101.5h-21l-252 -215 q-12 0 -26.5 33.5t-35 73.5t-48 74t-64.5 34h-10q-20 0 -51 -30t-59.5 -63.5t-48 -59t-19.5 -17.5v-10q0 -16 10 -31.5t22.5 -32t22.5 -36t10 -44.5v-567q0 -31 -24.5 -71t-40.5 -62v-31q12 0 21 12.5t18.5 27.5t20 28.5t26.5 13.5zM496 993q31 0 50 -18.5t29.5 -44 t14.5 -56t4 -55.5v-579q0 -4 -6 -10.5t-10 -10.5h-11q-25 0 -57.5 25.5t-62 58.5t-49 61.5t-19.5 34.5v492q0 14 12 32.5t30.5 34t38.5 25.5t36 10zM195 322q-2 31 -3.5 100.5t-3.5 152t-3 166.5t-1 144v71v21q0 16 9.5 33.5t31.5 17.5q8 0 19.5 -18.5t21.5 -42t17.5 -45 t7.5 -27.5v-578q0 -27 18.5 -47t41 -37.5t41 -32t18.5 -26.5q0 -8 -11.5 -14t-19.5 -6q-31 0 -57.5 19.5t-49 47t-42 56.5t-35.5 45zM471 -82h14q10 0 26.5 14.5t34 34t34 38t28.5 26.5q63 39 124 73.5t109 76.5t78.5 99.5t36.5 143.5v201q0 86 -8 162.5t-43 148.5 q14 -55 17.5 -112.5t3.5 -116.5v-203q-6 -84 -32 -143.5t-66 -103.5t-91 -78t-108 -66q-18 -10 -37 -20.5t-37 -22.5q-18 -10 -33.5 -28.5l-31 -37t-34 -34t-38.5 -19.5q43 -25 53 -33zM696 369l-10 4v532q0 16 -10 58.5t-10 54.5l-7 6h11q4 0 23.5 -20.5t27.5 -30.5 q51 -70 61.5 -161t10.5 -173q0 -66 -20 -145.5t-77 -124.5zM451 920q-20 -14 -21 -29v-492q0 -12 31 -41v451q0 14 13 29.5t27.5 31t21.5 29.5t-3 29l-45 -37q-4 -2 -12 8.5t-12 20.5zM113 82v-31q16 0 26.5 17.5t20.5 33.5l-19 21q-8 -12 -16 -22.5t-12 -18.5zM240 543v352 q0 2 -1 12.5t-3 22.5v-72q0 -63 2 -147t2 -168zM737 758v-187q2 16 3 34t1 34v57q0 16 -1 31t-3 31z" />
<glyph unicode="w" horiz-adv-x="1556" d="M98 178v-4q2 -16 30 -20t36 -17q18 -8 43.5 -32.5t51.5 -51t44.5 -48t20.5 -21.5h4q2 0 7 10t11 23.5t12.5 26.5t10.5 17q66 86 163 117v17q0 14 -13 26t-29.5 25.5t-30 33t-13.5 48.5v512q0 20 15.5 49t38 54.5t48 43t46.5 17.5h16q29 -27 42.5 -74t18.5 -105.5t5 -120 v-116.5v-287q23 -106 90.5 -165.5t151.5 -115.5q4 -4 21 -20t34 -16h6q66 70 130.5 116.5t150.5 98.5q70 41 106.5 101t54 130t20.5 145.5t3 145.5q0 84 -7 145.5t-26.5 113.5t-54.5 103.5t-90 114.5q-6 10 -21 10h-10q-16 -18 -57 -54t-87.5 -71.5t-86 -62.5t-52.5 -27h-10 q-12 27 -29.5 60.5t-39 65.5t-46 58.5t-53.5 34.5h-10q2 0 -30 -27.5t-78 -67.5t-97 -84t-88 -77h-10q-10 0 -15 11l-6 12q0 4 17.5 8t17.5 14q0 2 -2 5h-2v2l-33 -13q4 4 -12 38t-41 73t-51.5 70.5t-40.5 31.5h-10q-20 -35 -63.5 -70.5t-85.5 -69.5t-73.5 -64.5 t-29.5 -57.5q27 2 42 18.5t40 18.5q35 0 46 -32.5t15 -59.5v-92q0 -12 1 -58.5t2 -98.5t2 -98t1 -59v-41q0 -66 -3 -105.5t-12 -67t-25.5 -48t-41.5 -45.5zM1055 993q31 0 51 -18.5t33.5 -46t18.5 -59t5 -56.5v-573q0 -20 -20 -21q-25 0 -58.5 22.5t-62.5 55.5t-49.5 69.5 t-20.5 63.5v461q0 29 35 65.5t68 36.5zM774 352q-2 35 -6 122t-7 185.5t-5 185.5t-2 122v67q0 37 15 21.5t33.5 -49t36 -68.5t21.5 -37v-559q0 -51 36 -86t69 -66q0 2 -2 3q4 -4 10 -9.5t10 -9.5q-8 -12 -13 -21.5t-18 -9.5q-33 0 -62.5 23.5t-53 56.5t-40 68.5t-22.5 60.5z M266 225q0 33 1 65t1 62q0 164 -6 316.5t-6 328.5v7l14 10q13 10 13 14h4q12 0 23.5 -17.5t21.5 -39t16 -42t6 -28.5v-676q0 -4 -14 -16t-23 -21h-10q-4 0 -22.5 17.5t-18.5 19.5zM1055 -98h6q66 70 130 117t150 98q70 41 107 101.5t54.5 130t20.5 145t3 145.5v82t-4 86 t-14.5 73.5t-28.5 49.5q10 -8 14 -34t4 -58.5t-1 -64.5t-1 -52q0 -76 -3 -157t-22.5 -156.5t-62.5 -141t-121 -112.5q-84 -49 -149.5 -98.5t-135.5 -121.5q8 -8 24 -20t30 -12zM1225 1028l3 3q3 3 7 3h4q43 0 65.5 -50t34 -113.5t12.5 -124t1 -80.5v-103q0 -14 -9.5 -46 t-22.5 -64.5t-30.5 -58t-34.5 -25.5v532q0 31 -15 63.5t-15 63.5zM528 281v477q0 29 25 65.5t57 65.5q-8 29 -24.5 15.5t-32.5 -30.5h-10q-10 0 -15 11l-6 12q0 -2 -6 -15.5t-12 -28.5t-6 -13v-512q0 -14 9 -25.5t21 -21.5zM1034 911h-10q-8 0 -14 -3t-6 -17v-461 q0 -31 30 -76v455q0 25 16.5 43t26.5 31.5t5 20.5t-48 7zM406 -98h4q2 0 7 10t11 23.5t12 26.5t11 18q66 86 163 116v17q0 12 -9 21t-21 20v-13q-76 -23 -115 -55.5t-74 -83.5v2q-4 -6 -6 -11t-4 -7q0 -8 -3 -22.5t-3 -28t5.5 -23.5t21.5 -10zM113 864h10v23q0 10 -5 -3.5 t-5 -19.5zM809 862v21h-2v2q0 -17 2 -23zM303 225v8l-4 -2q2 0 2 -2v-2z" />
<glyph unicode="x" horiz-adv-x="1081" d="M389 250h10q12 -23 43 -66t68 -85t76 -73.5t69 -31.5q4 0 44 38t87.5 89t86 102t38.5 78h-10l-78 -76h-14q-43 0 -73.5 28t-50 67.5t-30 82.5t-10.5 72v57q10 18 43 37t43 25q39 27 53.5 74t14.5 94q-14 0 -24.5 -9.5t-24 -21.5t-31 -21.5t-43.5 -9.5q-8 0 -19.5 2.5 t-11.5 18.5v170q0 14 10 14h15q20 0 38.5 -2t39.5 -2q43 0 82.5 25.5t70.5 62.5t49.5 81t18.5 81q0 18 -8.5 13t-22.5 -17t-33.5 -26.5t-44.5 -14.5t-42 12t-29.5 27.5t-20.5 29t-16 13.5h-4q-23 -29 -43.5 -67t-37 -72.5t-31.5 -58t-28 -23.5q-4 0 -31.5 28.5t-64.5 66.5 t-74 73.5t-59 52.5h-6q-12 0 -38 -25.5t-56.5 -58.5t-61.5 -65.5t-49 -45.5q-12 -10 -30.5 -29.5t-31 -32.5t-14.5 -16v-30l92 71l8 4q9 3 13 3q37 0 64.5 -25t46 -60.5t27.5 -75.5t9 -71l-4 -35q0 -4 -26 -12l-25 -8q-66 -29 -87.5 -79t-21.5 -112q18 0 27.5 7.5t20 16.5 t27 16t48.5 7h37l4 -204q0 -8 -3 -20.5t-11 -16.5q-57 -2 -112.5 -16.5t-98.5 -45t-69.5 -79t-26.5 -115.5q0 -31 6 -29t18.5 16.5t31.5 32t46 17.5q20 0 36.5 -10.5t31 -21.5t28 -20.5t27.5 -9.5h4l5 8q5 7 5 2l103 220q4 10 16 10zM379 1004q0 14 14 14h6q8 0 26.5 -20.5 t40 -46t43 -48t34.5 -29.5l10 -10v-526q0 -43 31.5 -87t60.5 -67v-10q0 -16 -16 -16q-20 0 -43 25.5t-45.5 59t-45 65.5t-40.5 44l-11 10v488q0 23 -10 42t-22.5 37.5t-22.5 37.5t-10 37zM737 -88q4 0 44 38t87 89t86 103.5t39 76.5h-10l-78 -76h-14h-25q-20 0 -56 -31.5 t-69.5 -68.5t-57.5 -66.5t-21 -27.5q46 -37 75 -37zM727 780v29q0 14 10 14h15q20 0 38.5 -2t38.5 -2q43 0 83 25.5t71 62.5t49.5 81t18.5 81q0 10 -13 10q-4 0 -17 -12t-30 -25q-33 -74 -100.5 -133t-142.5 -59h-27q-14 0 -21 2h-4v-94q4 2 15.5 12t15.5 10zM727 354v97 q10 18 43 36.5t43 24.5q39 27 53.5 74t14.5 94q-12 0 -32 -18.5t-40.5 -42t-39.5 -47t-34 -33.5h2q-29 -12 -41 -25v-39q0 -76 31 -121zM338 -72h4l5 8q5 7 5 3l80 174q-10 12 -19.5 25.5t-17.5 25.5l-84 -178v-27h-28q16 -10 28.5 -20.5t26.5 -10.5zM113 -47q0 -8 2 -16.5 t12 -8.5q2 2 15.5 14.5t26.5 30t5 25.5v-2q-25 25 -41 24q-16 0 -18 -24.5t-2 -42.5zM174 834v-31l88 67q-14 25 -28.5 20t-26.5 -18.5t-21.5 -27.5t-11.5 -10zM498 840h-2v2v-455l6 -6v453q0 2 -4 6zM270 403q18 0 29 9l-2 69q-25 -2 -26 -30t-1 -48zM422 209h-6l-4 -8 q2 2 4 3z" />
<glyph unicode="y" horiz-adv-x="1079" d="M403 -344q-8 -4 -9 -12.5t-1 -12.5q104 0 208 51.5t184.5 133.5t131 185t50.5 208v686q0 72 -34 139.5t-83 116.5l-51 51h-27q-57 -72 -119.5 -124t-136.5 -105q-18 -20 -35 -21q-23 0 -36 39t-30.5 86t-43 86t-70.5 39h-14q-4 0 -21.5 -18.5t-39 -40t-39 -42 t-19.5 -22.5q-12 -10 -34.5 -27.5t-45 -37t-40 -39t-17.5 -33.5l10 -16l65 51l6 3q7 3 11 3q27 0 42 -15.5t22.5 -38t9.5 -48t2 -47.5v-216q0 -51 1 -95t1 -89q0 -37 1 -65.5t-5.5 -55t-22.5 -55.5t-51 -63v-11q0 -12 12 -19t28.5 -12.5t34 -9.5t27.5 -10q41 -23 65.5 -56.5 t47.5 -72.5h10q23 0 28 22.5t13 39.5q31 53 81 77.5t108 40.5v11q0 12 -16.5 25t-36 29.5t-35 37t-15.5 45.5v528q0 14 15.5 34.5t36 39t43 31t34.5 12.5h4q25 0 41.5 -23.5t26.5 -55.5t15 -62.5t5 -42.5v-803q0 -129 -85 -217t-208 -117zM782 25v849q0 12 -8 51.5t-12 51.5 v16q0 10 7 20.5t19 10.5q18 0 36 -27.5t30 -64.5t20.5 -73t10.5 -50v-283q0 -74 -2 -147.5t-10.5 -140t-26 -122t-47.5 -91.5h-17zM485 -426q-8 -4 -9 -12t-1 -13q104 0 207.5 51.5t184.5 133.5t131.5 185.5t50.5 207.5v686q0 70 -37 139q6 -27 6 -57v-686 q0 -72 -24.5 -144.5t-67.5 -139t-101.5 -125t-128.5 -103.5q-82 -88 -211 -123zM287 246v639q0 14 -4 59t-7 60v4q0 12 8.5 19t16.5 7q12 0 25.5 -22.5t24.5 -50t19.5 -54t8.5 -37.5v-634q0 -16 -12.5 -21.5t-24.5 -5.5q-10 0 -32.5 12.5t-22.5 24.5zM598 891 q-18 -20 -35 -21q-10 0 -24 15q-12 -12 -13 -25v-528q0 -10 9.5 -20.5t21.5 -20.5v487q0 6 16.5 27.5t30.5 43t17.5 36t-23.5 6.5zM420 -78h10q23 0 28 22.5t13 39.5q29 51 75 74.5t99 39.5v37l-16 17v-7q0 8 -30 -7t-65.5 -35.5t-65.5 -39t-30 -16.5q-8 -27 -16 -41 t-13.5 -25.5t-3 -25t14.5 -33.5zM113 860l10 -16l24 18l-2 23q0 16 -5 15t-11 -9t-11 -18.5t-5 -12.5zM485 1020v-6q2 0 2 2t-2 4zM340 260l-2 -2v-6q0 2 1 4t1 4z" />
<glyph unicode="z" horiz-adv-x="727" d="M61 -57q0 -55 12.5 -111.5t41 -102.5t73.5 -75t113 -29q82 0 141.5 52.5t98.5 128t56 159.5t17 148q0 109 -29.5 194.5t-82.5 177.5q0 4 -3 10.5t-3 10.5q0 29 15 48t15 50q-12 0 -20 -10t-14.5 -23.5t-14.5 -23.5t-22 -10q-12 0 -44 12t-60.5 26.5t-42 26.5t13.5 12 q72 61 126 136t54 176q0 86 -40 134t-100 101q-18 20 -22 28.5t-23 8.5l-37 -32q-38 -33 -87.5 -77.5t-96.5 -91.5t-65 -75v-7q0 -10 10 -20h4q12 0 34.5 25.5t43.5 25.5q31 0 62.5 -22.5t57 -55t42 -68.5t16.5 -63q0 -23 -4 -47t-21 -41l-180 -178v-10h27l76 51l6 2 q6 2 10 2q35 0 53.5 -32.5t18.5 -63.5q0 -18 -18.5 -44t-42 -53.5t-47 -53t-36.5 -44.5q-41 -68 -61.5 -129t-20.5 -153zM158 -94v53q0 119 23.5 211t115.5 172h4q8 0 13 -14.5t8.5 -35t4.5 -44t1 -39.5v-45v-426q0 -27 -14.5 -49.5t-37.5 -22.5q-41 0 -64.5 23.5 t-35.5 59.5t-15 78t-3 79zM383 -457q82 0 141.5 52.5t98.5 128t56 159.5t17 148q0 61 -10 131.5t-41 118.5q18 -27 19.5 -79t1.5 -89q0 -72 -20.5 -164t-64.5 -176t-114 -141.5t-166 -57.5q-31 0 -26.5 -5t23.5 -10t46 -10.5t39 -5.5zM420 -150v451q-4 12 -10.5 43t-6.5 49 q20 0 41 -39t37.5 -89t25.5 -97t9 -62q0 -16 -7 -57t-20.5 -86t-31 -79t-37.5 -34zM584 844q0 14 -5.5 40.5t-10.5 46t-10 22.5t-5 -27q0 -102 -53.5 -184.5t-122.5 -147.5q14 -2 34.5 -4t34.5 -2q-6 0 14.5 25.5t53.5 33.5q31 43 50.5 91.5t19.5 105.5zM209 -41v-53 q0 -20 5 -58t10 -68t10.5 -37t5.5 36v45v53q0 72 6 132.5t30 115.5v80q-14 -16 -26 -29.5t-21 -25.5q-12 -43 -16 -90.5t-4 -100.5zM297 993v4q0 12 12.5 21.5t18.5 9.5h4q4 0 4 -4l-2 2q18 -18 40.5 -46t24.5 -58q0 -35 -11 -32t-26.5 21.5t-34 44t-30.5 37.5zM113 840v-6 q0 -10 10 -21h4q6 0 27.5 21.5t33.5 25.5q-29 29 -48 9.5t-27 -29.5zM178 389v-10h27l10 6q12 8 17 21l4 14q0 2 -5 22zM608 522q-29 0 -32 -19.5t4.5 -32.5t17.5 -6t10 58z" />
<glyph unicode="&#xad;" d="M1024 860h-829q-14 0 -22.5 -14.5t-13.5 -33.5t-8.5 -36.5t-7.5 -23.5q-20 -31 -65 -68t-47 -70h833q27 27 36 60t36 67q12 20 50 52t38 67zM236 700l-11 7q4 4 23.5 34.5t27.5 36.5h553q0 -20 -15 -49t-32 -29h-546zM1106 778h-66q-14 -18 -41 -43h2q-27 -27 -38 -47 t-18 -39.5t-19.5 -40t-40.5 -45.5h-762q-10 -16 -10 -31h833q27 27 36 60t36 67q12 20 50 52t38 67z" />
<glyph unicode="&#x2000;" horiz-adv-x="908" />
<glyph unicode="&#x2001;" horiz-adv-x="1817" />
<glyph unicode="&#x2002;" horiz-adv-x="908" />
<glyph unicode="&#x2003;" horiz-adv-x="1817" />
<glyph unicode="&#x2004;" horiz-adv-x="605" />
<glyph unicode="&#x2005;" horiz-adv-x="454" />
<glyph unicode="&#x2006;" horiz-adv-x="302" />
<glyph unicode="&#x2007;" horiz-adv-x="302" />
<glyph unicode="&#x2008;" horiz-adv-x="227" />
<glyph unicode="&#x2009;" horiz-adv-x="363" />
<glyph unicode="&#x200a;" horiz-adv-x="100" />
<glyph unicode="&#x2010;" d="M1024 860h-829q-14 0 -22.5 -14.5t-13.5 -33.5t-8.5 -36.5t-7.5 -23.5q-20 -31 -65 -68t-47 -70h833q27 27 36 60t36 67q12 20 50 52t38 67zM236 700l-11 7q4 4 23.5 34.5t27.5 36.5h553q0 -20 -15 -49t-32 -29h-546zM1106 778h-66q-14 -18 -41 -43h2q-27 -27 -38 -47 t-18 -39.5t-19.5 -40t-40.5 -45.5h-762q-10 -16 -10 -31h833q27 27 36 60t36 67q12 20 50 52t38 67z" />
<glyph unicode="&#x2011;" d="M1024 860h-829q-14 0 -22.5 -14.5t-13.5 -33.5t-8.5 -36.5t-7.5 -23.5q-20 -31 -65 -68t-47 -70h833q27 27 36 60t36 67q12 20 50 52t38 67zM236 700l-11 7q4 4 23.5 34.5t27.5 36.5h553q0 -20 -15 -49t-32 -29h-546zM1106 778h-66q-14 -18 -41 -43h2q-27 -27 -38 -47 t-18 -39.5t-19.5 -40t-40.5 -45.5h-762q-10 -16 -10 -31h833q27 27 36 60t36 67q12 20 50 52t38 67z" />
<glyph unicode="&#x2012;" d="M1024 860h-829q-14 0 -22.5 -14.5t-13.5 -33.5t-8.5 -36.5t-7.5 -23.5q-20 -31 -65 -68t-47 -70h833q27 27 36 60t36 67q12 20 50 52t38 67zM236 700l-11 7q4 4 23.5 34.5t27.5 36.5h553q0 -20 -15 -49t-32 -29h-546zM1106 778h-66q-14 -18 -41 -43h2q-27 -27 -38 -47 t-18 -39.5t-19.5 -40t-40.5 -45.5h-762q-10 -16 -10 -31h833q27 27 36 60t36 67q12 20 50 52t38 67z" />
<glyph unicode="&#x2013;" horiz-adv-x="1085" d="M977 860h-790q-13 0 -21 -14.5t-13 -33.5t-8.5 -36.5t-6.5 -23.5q-19 -31 -62 -68t-45 -70h793q26 27 34.5 60t34.5 67q11 20 47.5 52t36.5 67zM226 700l-10 7q4 4 22.5 34.5t25.5 36.5h527q0 -20 -14 -49t-31 -29h-520zM1055 778h-63q-13 -18 -39 -43h2 q-26 -27 -36.5 -47t-17 -39.5t-18.5 -40t-39 -45.5h-725q-10 -16 -10 -31h794q25 27 33.5 60t34.5 67q12 20 48 52t36 67z" />
<glyph unicode="&#x2014;" horiz-adv-x="2109" d="M1923 860h-1580q-26 0 -42.5 -14.5t-26 -33.5t-16 -36.5t-14.5 -23.5q-38 -31 -123.5 -68t-89.5 -70h1587q51 27 68.5 60t68.5 67q23 20 95.5 52t72.5 67zM422 700l-21 7q7 4 44.5 34.5t52.5 36.5h1053q0 -20 -28.5 -49t-60.5 -29h-1040zM2079 778h-126q-26 -18 -78 -43 h4q-51 -27 -72 -47t-34.5 -39.5t-37.5 -40t-77 -45.5h-1452q-19 -16 -19 -31h1587q52 27 69 60t68 67q23 20 95.5 52t72.5 67z" />
<glyph unicode="&#x202f;" horiz-adv-x="363" />
<glyph unicode="&#x205f;" horiz-adv-x="454" />
<glyph unicode="&#x25fc;" horiz-adv-x="1187" d="M0 1188h1188v-1188h-1188v1188z" />
</font>
</defs>
</svg>
