<?xml version="1.0" standalone="no"?>
<!DOCTYPE svg PUBLIC "-//W3C//DTD SVG 1.1//EN" "http://www.w3.org/Graphics/SVG/1.1/DTD/svg11.dtd" >
<svg xmlns="http://www.w3.org/2000/svg" xmlns:xlink="http://www.w3.org/1999/xlink" version="1.1">
<metadata>
Created by FontForge 20170731 at Fri Dec 13 16:45:16 2013
 By Aleksey,,,
2013 Iconian Font - www.iconian.com
</metadata>
<defs>
<font id="FederalEscortScanlines" horiz-adv-x="786" >
  <font-face 
    font-family="Federal Escort Scanlines"
    font-weight="400"
    font-stretch="normal"
    units-per-em="1000"
    panose-1="0 0 0 0 0 0 0 0 0 0"
    ascent="800"
    descent="-200"
    x-height="543"
    cap-height="543"
    bbox="-51 -168 1533 792"
    underline-thickness="50"
    underline-position="-175"
    unicode-range="U+0020-2122"
  />
<missing-glyph horiz-adv-x="500" 
 />
    <glyph glyph-name=".notdef" horiz-adv-x="500" 
 />
    <glyph glyph-name=".null" horiz-adv-x="0" 
 />
    <glyph glyph-name="nonmarkingreturn" horiz-adv-x="500" 
 />
    <glyph glyph-name="space" unicode=" " horiz-adv-x="384" 
 />
    <glyph glyph-name="space" unicode="&#xa0;" horiz-adv-x="384" 
 />
    <glyph glyph-name="FL0021h" unicode="!" horiz-adv-x="340" 
d="M52 92v-9h234q1 3 1 9q0 16 -8 34h-219q-8 -15 -8 -34zM96 20h147q30 19 40 47h-227q10 -28 40 -47zM41 271h257l9 34h-275zM30 334h280v30h-280v-30zM30 397h280v27h-280v-27zM30 459h280v24h-280v-24zM30 522h280v21h-280v-21zM170 184q-29 0 -54.5 -10.5t-41.5 -27.5
h191q-17 17 -41.5 27.5t-53.5 10.5zM52 227h235l4 18h-244zM170 0q25 0 45 7h-91q20 -7 46 -7z" />
    <glyph glyph-name="FL0022h" unicode="&#x22;" horiz-adv-x="504" 
d="M239 364h-209q0 -14 7 -30h194q4 7 5.5 14.5t2.5 15.5zM474 364h-209q0 -14 7 -30h194q7 15 8 30zM30 397h209v27h-209v-27zM265 397h209v27h-209v-27zM265 459h209v11q0 3 -0.5 6.5t-0.5 6.5h-207q-1 -3 -1 -7v-6v-11zM30 459h209v10q0 4 -2 14h-206q-1 -4 -1 -8v-6v-10
zM283 522h172q-9 11 -23 21h-126q-7 -5 -12.5 -10t-10.5 -11zM49 522h171q-11 13 -25 21h-122q-7 -5 -13 -10t-11 -11zM210 305h-152q30 -28 77 -28q22 0 41.5 7.5t33.5 20.5zM444 305h-149q30 -27 75 -27q44 0 74 27z" />
    <glyph glyph-name="FL0023h" unicode="#" horiz-adv-x="839" 
d="M30 146h779v40h-779v-40zM30 208h779v37h-779v-37zM97 108v-25h280v25h85v-25h280v25h67v18h-779v-18h67zM30 334h779v30h-779v-30zM30 397h779v27h-779v-27zM97 20h280v47h-280v-47zM462 20h280v47h-280v-47zM97 271h280v34h-280v-34zM462 271h280v34h-280v-34zM462 459
h280v24h-280v-24zM97 459h280v24h-280v-24zM97 522h280v21h-280v-21zM462 522h280v21h-280v-21zM377 0v7h-280v-7h280zM742 0v7h-280v-7h280z" />
    <glyph glyph-name="FL0024h" unicode="$" horiz-adv-x="768" 
d="M729 126h-699v-43h673q17 20 26 43zM689 67h-659v-38h241v-9h224v9h105q25 0 48 10.5t41 27.5zM738 170v16h-284q-7 -10 -18 -10h-406v-30h705q3 12 3 24zM717 305h-681q8 -20 21 -34h679q-4 18 -19 34zM457 208h281v37h-656q19 -16 39.5 -25.5t38.5 -9.5h297v-2zM30 397
h707v27h-704q-3 -14 -3 -26v-1zM46 459h691v24h-675q-5 -6 -9 -12t-7 -12zM310 353v11h-280v-27v-3h649q-35 19 -69 19h-300zM271 -42h224v49h-224v-49zM496 535v8h-224v-8h-105q-28 0 -56 -13h626v13h-241zM272 585h224v17h-224v-17zM495 -60v8h-224v-8h224z" />
    <glyph glyph-name="FL0025h" unicode="%" horiz-adv-x="937" 
d="M907 209q0 19 -11 36h-602l-33 -37h646v1zM30 334h629l27 30h-283l-10 -11v11h-363v-23v-7zM839 280h-229l22 25h-587q10 -11 23.5 -18t26.5 -7h231l-8 -9h552q-8 4 -15.5 6.5t-15.5 2.5zM564 20h324q8 8 13.5 19t5.5 22v6h-363v-6q0 -23 20 -41zM705 111v15h-161v-43
h363v43h-160v-15q-2 -6 -6 -6h-31q-5 0 -5 6zM705 164q0 6 5 8h31q3 0 4.5 -3t1.5 -5v-18h160v40h-363v-40h161v18zM90 20h284l43 47h-284zM147 83h284l39 43h-284zM204 146h284l37 40h-284zM30 459h363v24h-363v-24zM433 397h283l24 27h-283zM367 543h-311q-5 -5 -9 -10.5
t-8 -10.5h345q-4 6 -8 11t-9 10zM489 459h283l22 24h-283zM546 522h283l19 21h-283zM30 397h161v27h-161v-27zM233 397h160v27h-160v-27zM356 0l6 7h-284l-6 -7h284zM609 0h233q14 0 27 7h-287q13 -7 27 -7z" />
    <glyph glyph-name="FL0026h" unicode="&#x26;" horiz-adv-x="846" 
d="M48 83h695q3 10 5 20.5t3 22.5h-717q2 -11 5.5 -21.5t8.5 -21.5zM102 20h598q23 16 37 47h-681q16 -28 46 -47zM340 211h132v-3h344v37h-774q-4 -9 -5.5 -18t-3.5 -19h285q9 3 22 3zM71 285q-4 -4 -7.5 -7t-6.5 -7h759v34h-763q8 -13 18 -20zM304 181v5h-274v-16v-12
t1 -12h721v40h-280v-2q0 -15 -6.5 -26t-15.5 -11h-111q-19 0 -27 10t-8 24zM816 350h-475q-29 0 -34 14h-274q2 -17 6 -30h777v16zM45 459h618v24h-607l-6 -12t-5 -12zM86 522h577v21h-549q-13 -8 -28 -21zM340 414h323v10h-629q-3 -15 -3 -27h277q8 17 32 17zM181 0h457
q22 0 39 7h-546q21 -7 50 -7z" />
    <glyph glyph-name="FL0027h" unicode="'" horiz-adv-x="279" 
d="M38 334h202q7 13 9 30h-219q0 -16 8 -30zM30 397h219v27h-219v-27zM30 470v-11h219v11q0 3 -0.5 6.5t-0.5 6.5h-217q-1 -3 -1 -7v-6zM205 543h-131q-14 -8 -25 -21h180q-9 12 -24 21zM140 278q45 0 77 27h-156q32 -27 79 -27z" />
    <glyph glyph-name="FL0028h" unicode="(" horiz-adv-x="430" 
d="M43 20h350v47h-363q0 -23 13 -47zM111 -42h282v49h-341q23 -32 59 -49zM311 116v10h-281v-43h363v10h-62q-8 0 -14 6.5t-6 16.5zM30 146h281v40h-281v-40zM30 208h281v37h-281v-37zM30 271h281v34h-281v-34zM30 334h281v30h-281v-30zM400 468v15h-370v-11v-13h287
q7 9 15 9h68zM30 397h281v27h-281v-27zM40 522h360v21h-349q-3 -5 -6 -10.5t-5 -10.5zM87 585h313v17h-286q-13 -7 -27 -17zM393 -54v2h-254q5 -1 10.5 -1.5t10.5 -0.5h233z" />
    <glyph glyph-name="FL0029h" unicode=")" horiz-adv-x="430" 
d="M400 67h-363v-47h349q13 23 14 47zM378 7h-341v-49h282q36 17 59 49zM37 83h363v43h-281v-10q0 -10 -6 -16.5t-14 -6.5h-62v-10zM119 146h281v40h-281v-40zM119 208h281v37h-281v-37zM119 271h281v34h-281v-34zM119 334h281v30h-281v-30zM399 483h-369v-15h68q7 0 14 -9
h288v13q0 7 -1 11zM119 397h281v27h-281v-27zM379 543h-349v-21h359q-2 5 -4.5 10.5t-5.5 10.5zM316 602h-286v-17h312q-13 10 -26 17zM290 -52h-253v-2h233q5 0 10 0.5t10 1.5z" />
    <glyph glyph-name="asterisk" unicode="*" horiz-adv-x="288" 
d="M21 522h244l-7 21h-230zM30 459h221l-27 24h-169zM90 585h98l2 17h-102zM164 397h11l35 27h-60zM106 397h11l13 27h-58zM202 585h41l-6 17zM42 585h37l-27 17h-4z" />
    <glyph glyph-name="FL002Bh" unicode="+" horiz-adv-x="395" 
d="M365 208v37h-335v-37h335zM30 271h335v34h-335v-34zM269 351v13h-143v-13h-96v-17h335v17h-96zM126 146h143v40h-143v-40zM126 397h143v27h-143v-27zM269 111v15h-143v-15h143z" />
    <glyph glyph-name="FL002Ch" unicode="," horiz-adv-x="295" 
d="M36 -42h222q7 14 7 31v18h-235v-18q0 -16 6 -31zM30 20h235v47h-235v-47zM30 92v-9h235v9q0 16 -8 34h-219q-8 -15 -8 -34zM148 -103q34 0 62.5 14t42.5 37h-211q15 -23 43 -37t63 -14zM148 184q-29 0 -54.5 -10.5t-41.5 -27.5h191q-17 17 -41.5 27.5t-53.5 10.5z" />
    <glyph glyph-name="FL002Dh" unicode="-" horiz-adv-x="395" 
d="M30 208h335v37h-335v-37zM30 271h335v34h-335v-34zM30 351v-17h335v17h-335z" />
    <glyph glyph-name="FL002Eh" unicode="." horiz-adv-x="295" 
d="M30 92v-9h234q1 3 1 9q0 16 -8 34h-219q-8 -15 -8 -34zM261 67h-227q10 -28 40 -47h147q30 19 40 47zM52 146h191q-17 17 -41.5 27.5t-53.5 10.5t-54.5 -10.5t-41.5 -27.5zM193 7h-91q20 -7 46 -7q25 0 45 7z" />
    <glyph glyph-name="FL002Fh" unicode="/" horiz-adv-x="827" 
d="M34 20h328l39 47h-328zM86 83h328l35 43h-328zM138 146h328l33 40h-328zM189 208h328l30 37h-328zM241 271h328l28 34h-328zM293 334h328l25 30h-328zM346 397h328l22 27h-328zM397 459h328l20 24h-328zM450 522h327l18 21h-328zM345 0l6 7h-328l-6 -7h328z" />
    <glyph glyph-name="FL0030h" unicode="0" horiz-adv-x="767" 
d="M39 83h689q4 10 6.5 19.5t2.5 20.5v3h-707v-3q0 -21 9 -40zM96 20h575q30 19 48 47h-672q9 -14 22 -26t27 -21zM309 170v16h-279v-40h707v40h-279v-16q-3 -6 -9.5 -14.5t-12.5 -8.5h-105q-13 0 -17 9t-5 14zM329 414h107q7 0 11.5 -5t7.5 -12h282v21v6h-707v-6v-21h282
q5 14 17 17zM37 459h693q-2 6 -5 12l-6 12h-672q-3 -6 -5.5 -12t-4.5 -12zM76 522h614q-12 12 -27 21h-559q-13 -8 -28 -21zM30 208h279v37h-279v-37zM458 208h279v37h-279v-37zM30 271h279v34h-279v-34zM458 271h279v34h-279v-34zM30 334h279v30h-279v-30zM458 334h279v30
h-279v-30zM160 0h447q20 0 38 7h-523q18 -7 38 -7z" />
    <glyph glyph-name="FL0031h" unicode="1" horiz-adv-x="452" 
d="M142 20h280v47h-280v-47zM142 83h280v43h-280v-43zM142 146h280v40h-280v-40zM142 208h280v37h-280v-37zM142 271h280v34h-280v-34zM30 459h392v24h-392v-24zM142 397h280v27h-392v-10h112v-17zM142 334h280v30h-280v-30zM30 522h392v21h-392v-21zM422 0v7h-280v-7h280z
" />
    <glyph glyph-name="FL0032h" unicode="2" horiz-adv-x="768" 
d="M30 20h708v47h-708v-47zM30 83h708v43h-708v-43zM32 271h679q6 8 11.5 16.5t8.5 17.5h-680q-15 -16 -19 -34zM685 245h-655v-37h281v2h297q17 0 38 9.5t39 25.5zM723 483h-692v-24h702q-2 6 -4.5 12t-5.5 12zM88 334h650v3v27h-280v-11h-300q-34 0 -70 -19zM666 543h-635
v-21h663q-15 13 -28 21zM455 397h283v27h-707v-10h406q6 0 11 -5t7 -12zM311 147v39h-281v-40h708v1h-427zM30 0h708v7h-708v-7z" />
    <glyph glyph-name="FL0033h" unicode="3" horiz-adv-x="725" 
d="M668 67h-638v-47h592q29 17 46 47zM691 126h-661v-43h647q5 11 8.5 21.5t5.5 21.5zM385 211q13 0 21 -3h286q-3 21 -10 37h-652v-34h355zM654 285q10 7 18 20h-642v-34h637q-3 4 -6 7zM668 483h-638v-24h650q-3 6 -5.5 12t-6.5 12zM384 350h-354v-16h655q2 7 3.5 14.5
t3.5 15.5h-275q-5 -14 -33 -14zM610 543h-580v-21h608q-11 10 -28 21zM421 181q0 -14 -8 -24t-27 -10h-356v-1h664q1 6 1 12v12v7q0 4 -1 9h-273v-5zM690 424h-660v-10h355q24 0 31 -17h278q-1 7 -1.5 13t-2.5 14zM544 0q28 0 49 7h-563v-7h514z" />
    <glyph glyph-name="FL0034h" unicode="4" horiz-adv-x="926" 
d="M30 83h866v43h-866v-43zM30 180v-34h866v40h-862zM390 224l15 21h-325l-29 -37h845v16h-123v21h-279v-21h-104zM494 334h279v30h-600l-23 -30h320q3 5 5 6.5t7 1.5q3 -2 7.5 -4t4.5 -3v-1zM199 397h574v27h-553zM494 20h279v47h-279v-47zM248 459h525v24h-506zM101 271
h323l25 34h-322zM298 522h475v21h-452q-6 -5 -12 -10.5t-11 -10.5zM494 271h279v34h-279v-34zM773 0v7h-279v-7h279z" />
    <glyph glyph-name="FL0035h" unicode="5" horiz-adv-x="768" 
d="M713 67h-683v-47h635q28 18 48 47zM737 126h-707v-43h693q11 23 14 43zM717 305h-681q8 -20 21 -34h679q-4 18 -19 34zM160 210h297v-2h281v37h-656q19 -16 39.5 -25.5t38.5 -9.5zM30 459h707v24h-707v-24zM610 353h-300v11h-280v-27v-3h649q-35 19 -69 19zM30 522h707
v21h-707v-21zM310 414h427v10h-707v-27h280v17zM436 147h-406v-1h708v40h-281v-9q0 -8 -5.5 -19t-15.5 -11zM600 0q21 0 39 7h-609v-7h570z" />
    <glyph glyph-name="FL0036h" unicode="6" 
d="M756 123v3h-726v-3q0 -21 9 -40h708q4 10 6.5 19.5t2.5 20.5zM738 67h-690q9 -14 22 -26t27 -21h593q30 19 48 47zM477 208h279v37h-726v-37h280v3h167v-3zM735 305h-705v-34h723q-4 17 -18 34zM331 147q-11 0 -14.5 8.5t-6.5 14.5v16h-280v-40h726v40h-279v-16
q-3 -6 -8.5 -14.5t-13.5 -8.5h-124zM310 359v5h-280v-30h672q-18 11 -38 18t-38 7h-316zM37 459h716v24h-706q-3 -6 -5.5 -12t-4.5 -12zM76 522h677v21h-649q-13 -8 -28 -21zM30 397h282q3 7 7.5 12t11.5 5h422v10h-723v-6v-21zM664 7h-541q17 -7 37 -7h466q20 0 38 7z" />
    <glyph glyph-name="FL0037h" unicode="7" horiz-adv-x="815" 
d="M30 459h755v24h-755v-24zM30 522h755v21h-755v-21zM131 20h328l39 47h-328zM183 83h328l35 43h-328zM785 414v10h-755v-10h427l-14 -17h328zM235 146h328l33 40h-328zM286 208h328l30 37h-328zM338 271h328l28 34h-328zM390 334h328l25 30h-328zM114 0h328l6 7h-328z" />
    <glyph glyph-name="FL0038h" unicode="8" horiz-adv-x="769" 
d="M47 83h675q5 11 8.5 21.5t5.5 21.5h-703q2 -11 5.5 -21.5t8.5 -21.5zM101 20h566q29 17 46 47h-658q16 -28 46 -47zM333 211h103q10 -2 13 -3h288q-3 21 -10 37h-686q-4 -9 -5.5 -18t-3.5 -19h287q3 1 6 1.5t8 1.5zM303 181v5h-274v-16v-12t1 -12h709q1 6 1 12v12v7
q0 4 -1 9h-273v-5q0 -30 -30 -34h-98q-19 0 -27 10t-8 24zM70 285q-4 -4 -7.5 -7t-6.5 -7h656q-3 4 -6 7l-7 7q10 7 18 20h-665q8 -13 18 -20zM429 350h-89q-29 0 -34 14h-274q2 -17 6 -30h692q2 7 3.5 14.5t3.5 15.5h-275q-5 -14 -33 -14zM333 414h97q24 0 31 -17h278
q-1 7 -1.5 13t-2.5 14h-702q-3 -15 -3 -27h277q6 14 26 17zM44 459h681q-3 6 -5.5 12t-6.5 12h-658l-6 -12t-5 -12zM85 522h598q-11 10 -28 21h-542q-13 -8 -28 -21zM180 0h409q28 0 49 7h-508q21 -7 50 -7z" />
    <glyph glyph-name="FL0039h" unicode="9" 
d="M731 67h-698v-47h652q28 19 46 47zM754 126h-721v-43h708q10 18 13 43zM124 208h632v37h-695q26 -26 63 -37zM40 271h716v34h-726q0 -17 10 -34zM309 350v14h-279v-30h726v30h-280v-14h-167zM32 459h721q-3 12 -9 24h-703q-6 -12 -9 -24zM455 414q9 0 12.5 -5.5
t5.5 -11.5h283v27h-726v-27h282q3 6 7.5 11.5t11.5 5.5h124zM71 522h642q-12 12 -27 21h-587q-8 -5 -15 -10t-13 -11zM33 146h723v40h-280v-7h2l-2 -2q0 -8 -5.5 -19t-15.5 -11h-422v-1zM658 7h-625v-7h586q22 0 39 7z" />
    <glyph glyph-name="FL003Ah" unicode=":" horiz-adv-x="295" 
d="M30 92v-9h234q1 3 1 9q0 16 -8 34h-219q-8 -15 -8 -34zM261 67h-227q10 -28 40 -47h147q30 19 40 47zM261 305h-230q4 -19 18 -34h195q13 16 17 34zM30 334h233q-3 19 -11 30h-211q-9 -14 -11 -30zM52 146h191q-17 17 -41.5 27.5t-53.5 10.5t-54.5 -10.5t-41.5 -27.5z
M77 397h140q-15 8 -32.5 13t-37.5 5t-38 -5t-32 -13zM209 245h-125q30 -14 63 -14q34 0 62 14zM193 7h-91q20 -7 46 -7q25 0 45 7z" />
    <glyph glyph-name="FL003Bh" unicode=";" horiz-adv-x="295" 
d="M30 -11q0 -16 6 -31h222q7 14 7 31v18h-235v-18zM30 20h235v47h-235v-47zM30 83h235v9q0 16 -8 34h-219q-8 -15 -8 -34v-9zM253 -52h-211q15 -23 43 -37t63 -14q34 0 62.5 14t42.5 37zM261 305h-230q4 -19 18 -34h195q13 16 17 34zM30 334h233q-3 19 -11 30h-211
q-9 -14 -11 -30zM52 146h191q-17 17 -41.5 27.5t-53.5 10.5t-54.5 -10.5t-41.5 -27.5zM77 397h140q-15 8 -32.5 13t-37.5 5t-38 -5t-32 -13zM209 245h-125q30 -14 63 -14q34 0 62 14z" />
    <glyph glyph-name="FL003Ch" unicode="&#x3c;" horiz-adv-x="595" 
d="M233 20h328l-39 47h-328zM181 83h328l-36 43h-328zM128 146h328l-33 40h-328zM77 208h328l-30 37h-328zM17 281l8 -10h328l-8 10l20 24h-328zM61 334h328l25 30h-328zM113 397h328l23 27h-328zM165 459h328l20 24h-328zM217 522h328l17 21h-328zM250 0h328l-6 7h-328z
" />
    <glyph glyph-name="FL003Dh" unicode="=" horiz-adv-x="436" 
d="M30 146h376v40h-376v-40zM30 208h376v37h-376v-37zM30 334h376v30h-376v-30zM30 397h376v27h-376v-27zM406 108v18h-376v-18h376z" />
    <glyph glyph-name="FL003Eh" unicode="&#x3e;" horiz-adv-x="595" 
d="M33 20h328l39 47h-328zM85 83h328l35 43h-328zM137 146h328l33 40h-328zM188 208h328l31 37h-328zM577 281l-20 24h-328l20 -24l-9 -10h328zM205 334h328l-25 30h-328zM153 397h328l-22 27h-328zM102 459h328l-20 24h-328zM49 522h328l-17 21h-328zM344 0l6 7h-328l-6 -7
h328z" />
    <glyph glyph-name="FL003Fh" unicode="?" horiz-adv-x="768" 
d="M731 305h-572q-15 -16 -19 -34h570q13 14 21 34zM723 483h-692v-24h702q-2 6 -4.5 12t-5.5 12zM608 214q17 0 37 8.5t38 22.5h-545v-31h470zM666 543h-635v-21h663q-15 13 -28 21zM738 337v27h-280v-11h-192q-34 0 -70 -19h542v3zM738 424h-707v-10h406q6 0 11 -5t7 -12
h283v27zM138 92v-9h234q1 3 1 9q0 16 -8 34h-219q-8 -15 -8 -34zM182 20h147q30 19 40 47h-227q10 -28 40 -47zM256 184q-29 0 -54.5 -10.5t-41.5 -27.5h191q-17 17 -41.5 27.5t-53.5 10.5zM256 0q25 0 45 7h-91q20 -7 46 -7z" />
    <glyph glyph-name="FL0040h" unicode="@" horiz-adv-x="1037" 
d="M30 20h669v47h-682q0 -23 13 -47zM98 -42h601v49h-660q23 -32 59 -49zM1018 245h-682v-37h666q11 15 16 37zM985 186h-646q5 -14 15.5 -24.5t23.5 -15.5h544q35 11 63 40zM27 522h982q-2 5 -4.5 10.5t-5.5 10.5h-961q-3 -5 -6 -10.5t-5 -10.5zM732 459h288v13q0 7 -1 11
h-1002v-11v-13h287q7 9 15 9h399q7 0 14 -9zM298 116v10h-281v-43h682v10h-381q-8 0 -14 6.5t-6 16.5zM699 287v18h-160v-34h481v34h-282q-3 -18 -19 -18h-20zM74 585h888q-13 10 -26 17h-835q-13 -7 -27 -17zM17 146h281v40h-281v-40zM697 364h-360q-1 -4 -1 -8v-6v-16h363
v16q0 4 -2 14zM17 208h281v37h-281v-37zM17 271h281v34h-281v-34zM17 334h281v30h-281v-30zM739 334h281v30h-281v-30zM17 397h281v27h-281v-27zM739 397h281v27h-281v-27zM405 421q-14 0 -27 -6.5t-23 -17.5h325q-10 11 -22.5 17.5t-26.5 6.5h-226zM497 305h-161v-34h161
v34zM699 -54v2h-573q5 -1 10.5 -1.5t10.5 -0.5h552z" />
    <glyph glyph-name="FL0041h" unicode="A" 
d="M476 146h280v40h-726v-40h279v12h167v-12zM30 208h726v37h-726v-37zM309 301v4h-279v-34h726v34h-280v-4h-167zM32 459h721q-2 6 -4.5 12t-5.5 12h-702q-6 -12 -9 -24zM473 397h283v27h-726v-27h281q3 6 8 11.5t12 5.5h124q9 0 12.5 -5.5t5.5 -11.5zM476 20h280v47h-280
v-47zM30 20h279v47h-279v-47zM72 522h641q-11 10 -28 21h-585q-8 -5 -15 -10t-13 -11zM476 83h280v43h-280v-43zM30 83h279v43h-279v-43zM476 334h280v30h-280v-30zM30 334h279v30h-279v-30zM756 0v7h-280v-7h280zM309 0v7h-279v-7h279z" />
    <glyph glyph-name="FL0042h" unicode="B" 
d="M729 67h-699v-47h653q29 17 46 47zM752 126h-722v-43h708q5 11 8.5 21.5t5.5 21.5zM446 211q13 0 21 -3h286q-3 21 -10 37h-713v-37h279v3h137zM733 305h-703v-34h698q-3 4 -6 7l-7 7q10 7 18 20zM309 147v39h-279v-40h725q1 6 1 12v12v7q0 4 -1 9h-273v-5q0 -14 -8 -24
t-27 -10h-138zM309 350v14h-279v-30h716q2 7 3.5 14.5t3.5 15.5h-275q-5 -14 -33 -14h-136zM729 483h-699v-24h711q-3 6 -5.5 12t-6.5 12zM477 397h278q-1 7 -1.5 13t-2.5 14h-721v-27h279v17h137q24 0 31 -17zM672 543h-642v-21h669q-12 12 -27 21zM605 0q28 0 49 7h-624
v-7h575z" />
    <glyph glyph-name="FL0043h" unicode="C" horiz-adv-x="703" 
d="M96 20h571v47h-620q9 -14 22 -26t27 -21zM39 83h628v43h-637v-3q0 -21 9 -40zM37 459h636v24h-626q-3 -6 -5.5 -12t-4.5 -12zM76 522h597v21h-569q-13 -8 -28 -21zM310 170v16h-280v-40h637v1h-336q-8 0 -14 6.5t-7 16.5zM673 414v10h-643v-6v-21h282q3 7 7.5 12t11.5 5
h342zM30 208h280v37h-280v-37zM30 271h280v34h-280v-34zM30 334h280v30h-280v-30zM667 0v7h-545q18 -7 38 -7h507z" />
    <glyph glyph-name="FL0044h" unicode="D" horiz-adv-x="779" 
d="M738 67h-708v-47h671q22 18 37 47zM749 110v16h-719v-43h714q5 15 5 27zM310 150v36h-280v-40h719v40h-286q-5 -16 -16.5 -26t-33.5 -10h-103zM310 403h117q5 0 10 -2t9 -4h303v27h-719v-27h280v6zM735 483h-705v-24h714q-3 12 -9 24zM687 543h-657v-21h679
q-11 13 -22 21zM467 208h282v37h-280v-19q0 -9 -2 -18zM30 208h280v37h-280v-37zM30 271h280v34h-280v-34zM469 271h280v34h-280v-34zM468 334h281v30h-285q4 -13 4 -30zM30 334h280v30h-280v-30zM30 0h622q15 0 28 7h-650v-7z" />
    <glyph glyph-name="FL0045h" unicode="E" horiz-adv-x="703" 
d="M96 20h577v47h-626q9 -14 22 -26t27 -21zM39 83h634v43h-643v-3q0 -21 9 -40zM673 208v37h-643v-37h643zM30 271h643v34h-643v-34zM37 459h636v24h-626q-3 -6 -5.5 -12t-4.5 -12zM314 364h-284v-30h643v17h-335q-16 0 -24 13zM76 522h597v21h-569q-13 -8 -28 -21z
M311 186h-281v-40h643v1h-342q-2 0 -10 8.5t-11 14.5q0 1 -0.5 3t-0.5 4t0.5 4t0.5 3v0q0 1 1 2zM673 414v10h-643v-6v-21h282q3 7 8 12t11 5h342zM673 0v7h-551q18 -7 38 -7h513z" />
    <glyph glyph-name="FL0046h" unicode="F" horiz-adv-x="703" 
d="M673 208v37h-643v-37h643zM30 271h643v34h-643v-34zM37 459h636v24h-626q-3 -6 -5.5 -12t-4.5 -12zM314 364h-284v-30h643v17h-335q-16 0 -24 13zM30 20h280v47h-280v-47zM76 522h597v21h-569q-13 -8 -28 -21zM30 83h280v43h-280v-43zM673 414v10h-643v-6v-21h282
q3 7 8 12t11 5h342zM311 186h-281v-40h280v38v0q0 1 1 2zM310 0v7h-280v-7h280z" />
    <glyph glyph-name="FL00B9h" unicode="G" 
d="M756 123v3h-726v-3q0 -21 9 -40h708q4 10 6.5 19.5t2.5 20.5zM738 67h-690q9 -14 22 -26t27 -21h593q30 19 48 47zM310 170v16h-280v-40h726v40h-279v-17q-3 -6 -8.5 -14t-13.5 -8h-124q-11 0 -14.5 8.5t-6.5 14.5zM37 459h636v24h-626q-3 -6 -5.5 -12t-4.5 -12zM76 522
h597v21h-569q-13 -8 -28 -21zM673 414v10h-643v-6v-21h282q3 7 7.5 12t11.5 5h342zM30 208h280v37h-280v-37zM477 208h279v37h-279v-37zM30 271h280v34h-280v-34zM477 271h279v34h-279v-34zM30 334h280v30h-280v-30zM477 334h279v30h-279v-30zM664 7h-541q17 -7 37 -7h466
q20 0 38 7z" />
    <glyph glyph-name="FL0048h" unicode="H" horiz-adv-x="756" 
d="M726 208v37h-696v-37h696zM30 271h696v34h-696v-34zM310 351v13h-280v-30h696v30h-281v-13h-135zM445 20h281v47h-281v-47zM30 20h280v47h-280v-47zM445 83h281v43h-281v-43zM30 83h280v43h-280v-43zM445 146h281v40h-281v-40zM30 146h280v40h-280v-40zM445 397h281v27
h-281v-27zM30 397h280v27h-280v-27zM445 459h281v24h-281v-24zM30 459h280v24h-280v-24zM445 522h281v21h-281v-21zM30 522h280v21h-280v-21zM726 0v7h-281v-7h281zM310 0v7h-280v-7h280z" />
    <glyph glyph-name="FL0049h" unicode="I" horiz-adv-x="724" 
d="M30 20h663v47h-663v-47zM30 83h663v43h-663v-43zM31 459h663v24h-663v-24zM31 522h663v21h-663v-21zM30 147v-1h663v1h-192v39h-280v-39h-191zM501 414h193v10h-663v-10h190v-17h280v17zM221 208h280v37h-280v-37zM221 271h280v34h-280v-34zM221 334h280v30h-280v-30z
M693 0v7h-663v-7h663z" />
    <glyph glyph-name="FL004Ah" unicode="J" 
d="M39 83h708q4 10 6.5 19.5t2.5 20.5v3h-726v-3q0 -21 9 -40zM97 20h593q30 19 48 47h-690q9 -14 22 -26t27 -21zM310 170v16h-280v-40h726v40h-279v-16q-3 -6 -8.5 -14.5t-13.5 -8.5h-124q-11 0 -14.5 8.5t-6.5 14.5zM30 208h280v37h-280v-37zM477 208h279v37h-279v-37z
M477 271h279v34h-279v-34zM477 334h279v30h-279v-30zM477 397h279v27h-279v-27zM477 459h279v24h-279v-24zM477 522h279v21h-279v-21zM160 0h466q20 0 38 7h-541q17 -7 37 -7zM310 273h-280v-2h280v2z" />
    <glyph glyph-name="FL004Bh" unicode="K" horiz-adv-x="751" 
d="M310 164l10 -18h401v2h-44q-23 0 -47.5 10.5t-47.5 27.5h-552v-40h280v18zM529 245h-499v-37h527q-8 8 -15 17.5t-13 19.5zM514 305h-484v-34h489q-5 17 -5 30v4zM348 97q2 -4 5 -7l7 -7h361v43h-390zM546 364h-234q-1 -2 -1 -3t-1 -2v5h-280v-30h493q8 13 23 30zM431 20
h290v47h-346q26 -27 56 -47zM30 20h280v47h-280v-47zM30 83h280v43h-280v-43zM326 397h258q26 16 42 16h95v11h-383q-3 -7 -6.5 -13.5t-5.5 -13.5zM359 459h362v24h-344q-3 -6 -5 -8v-2l-7 -7t-6 -7zM30 397h280v27h-280v-27zM30 459h280v24h-280v-24zM417 522h304v21h-271
q-20 -11 -33 -21zM30 522h280v21h-280v-21zM310 0v7h-280v-7h280zM721 0v7h-266q15 -7 34 -7h232z" />
    <glyph glyph-name="FL004Ch" unicode="L" horiz-adv-x="703" 
d="M83 20h590v47h-628q7 -14 16.5 -26.5t21.5 -20.5zM39 83h634v43h-642q1 -11 2.5 -22t5.5 -21zM310 184v2h-280v-40h643v1h-325q-21 2 -29.5 9.5t-8.5 27.5zM30 208h280v37h-280v-37zM30 271h280v34h-280v-34zM30 334h280v30h-280v-30zM30 397h280v27h-280v-27zM30 459
h280v24h-280v-24zM30 522h280v21h-280v-21zM673 0v7h-567q17 -7 39 -7h528z" />
    <glyph glyph-name="FL004Dh" unicode="M" horiz-adv-x="1109" 
d="M795 397h283v27h-1049v-27h282q3 6 7.5 11.5t11.5 5.5h62q8 0 12 -5.5t6 -11.5h285q3 5 7.5 11t11.5 6h63q9 0 12.5 -5.5t5.5 -11.5zM31 459h1044q-3 12 -9 24h-1026q-6 -12 -9 -24zM70 522h965q-12 12 -27 21h-910q-8 -5 -15 -10t-13 -11zM412 20h281v47h-281v-47z
M798 20h280v47h-280v-47zM29 20h279v47h-279v-47zM412 83h281v43h-281v-43zM798 83h280v43h-280v-43zM29 83h279v43h-279v-43zM412 146h281v40h-281v-40zM798 146h280v40h-280v-40zM29 146h279v40h-279v-40zM412 208h281v37h-281v-37zM798 208h280v37h-280v-37zM29 208h279
v37h-279v-37zM412 271h281v34h-281v-34zM798 271h280v34h-280v-34zM29 271h279v34h-279v-34zM412 334h281v30h-281v-30zM798 334h280v30h-280v-30zM29 334h279v30h-279v-30zM693 0v7h-281v-7h281zM798 0h280v7h-280v-7zM308 0v7h-279v-7h279z" />
    <glyph glyph-name="FL004Eh" unicode="N" 
d="M744 483h-714v-24h723q-3 12 -9 24zM309 414h146q9 0 12.5 -5.5t5.5 -11.5h283v27h-726v-27h279v17zM686 543h-656v-21h683q-12 12 -27 21zM476 20h280v47h-280v-47zM30 20h279v47h-279v-47zM476 83h280v43h-280v-43zM30 83h279v43h-279v-43zM476 146h280v40h-280v-40z
M30 146h279v40h-279v-40zM476 208h280v37h-280v-37zM30 208h279v37h-279v-37zM476 271h280v34h-280v-34zM30 271h279v34h-279v-34zM476 334h280v30h-280v-30zM30 334h279v30h-279v-30zM756 0v7h-280v-7h280zM309 0v7h-279v-7h279z" />
    <glyph glyph-name="FL004Fh" unicode="O" 
d="M39 83h708q4 10 6.5 19.5t2.5 20.5v3h-726v-3q0 -21 9 -40zM96 20h594q30 19 48 47h-691q9 -14 22 -26t27 -21zM309 170v16h-279v-40h726v40h-279v-16q-3 -6 -9.5 -14.5t-12.5 -8.5h-124q-13 0 -17 9t-5 14zM329 414h126q7 0 11.5 -5t7.5 -12h282v21v6h-726v-6v-21h282
q5 14 17 17zM37 459h712q-2 6 -5 12l-6 12h-691q-3 -6 -5.5 -12t-4.5 -12zM76 522h633q-12 12 -27 21h-578q-13 -8 -28 -21zM30 208h279v37h-279v-37zM477 208h279v37h-279v-37zM30 271h279v34h-279v-34zM477 271h279v34h-279v-34zM30 334h279v30h-279v-30zM477 334h279v30
h-279v-30zM160 0h466q20 0 38 7h-542q18 -7 38 -7z" />
    <glyph glyph-name="FL0050h" unicode="P" 
d="M733 245h-703v-37h682q13 17 21 37zM309 304v1h-279v-34h713q2 8 4 16.5t4 17.5h-303q-2 -1 -7 -1h-132zM691 186h-661v-40h279v11h297q26 0 47 7.5t38 21.5zM727 483h-697v-24h708q-2 6 -5 12zM309 414h138q8 0 14 -5t11 -12h282q-1 7 -2 13.5t-3 13.5h-719v-27h279v17z
M673 543h-643v-21h669q-6 6 -12 11t-14 10zM30 20h279v47h-279v-47zM30 83h279v43h-279v-43zM30 334h279v30h-279v-30zM476 334h279q1 8 1 15v15h-274v-4q0 -13 -6 -26zM30 0h279v7h-279v-7z" />
    <glyph glyph-name="FL0051h" unicode="Q" horiz-adv-x="788" 
d="M758 123v3h-726v-3q0 -21 9 -40h708q9 19 9 40zM740 67h-690q18 -28 48 -47h594q30 19 48 47zM503 -52h-540v-53h492q29 24 48 53zM157 0h-194v-42h546q0 2 1 2l22 40h96q20 0 37 7h-541q19 -7 33 -7zM457 147h-127q-2 0 -9 8.5t-10 14.5v16h-279v-40h726v40h-280v-16
q-3 -6 -6.5 -14.5t-14.5 -8.5zM333 414h126q11 -3 16 -17h283v21v6h-726v-6v-21h282q2 7 6.5 12t12.5 5zM740 483h-691q-3 -6 -5.5 -12t-4.5 -12h712q-2 6 -4.5 12t-6.5 12zM353 -149q24 0 48 10.5t45 26.5h-483v-37h390zM683 543h-577q-13 -8 -28 -21h633q-15 13 -28 21z
M478 245v-37h280v37h-280zM32 208h279v37h-279v-37zM478 271h280v34h-280v-34zM32 271h279v34h-279v-34zM478 334h280v30h-280v-30zM32 334h279v30h-279v-30z" />
    <glyph glyph-name="FL0052h" unicode="R" horiz-adv-x="809" 
d="M361 146h352l-31 40h-652v-40h279v4q0 1 5 3t11 4h2q9 0 17.5 -3t16.5 -8zM708 245h-678v-37h636l-1 1q-1 1 -1 8q0 8 5 13q22 0 39 15zM309 304v1h-279v-34h699q5 8 8 16.5t6 17.5h-295q-2 -1 -7 -1h-132zM739 483h-709v-24h718q-3 12 -9 24zM309 414h138q8 0 14.5 -5
t10.5 -12h284q0 7 -0.5 13.5t-1.5 13.5h-724v-27h279v17zM463 20h346l-36 47h-345zM386 123l30 -40h345l-33 43h-345zM689 543h-659v-21h685q-10 11 -26 21zM30 20h279v47h-279v-47zM30 83h279v43h-279v-43zM30 334h279v30h-279v-30zM476 334h274q2 8 3 15t2 15h-273v-3
q0 -14 -6 -27zM818 7h-346l6 -7h346zM30 0h279v7h-279v-7z" />
    <glyph glyph-name="FL005Ah" unicode="S" horiz-adv-x="768" 
d="M713 67h-683v-47h635q28 18 48 47zM737 126h-707v-43h693q11 23 14 43zM717 305h-681q8 -20 21 -34h679q-4 18 -19 34zM160 210h297v-2h281v37h-656q19 -16 39.5 -25.5t38.5 -9.5zM35 459h702v24h-692q-3 -6 -5.5 -12t-4.5 -12zM610 353h-300v11h-280v-27v-3h649
q-35 19 -69 19zM74 522h663v21h-636q-15 -9 -27 -21zM331 414h406v10h-707v-27h282q3 7 7.5 12t11.5 5zM436 147h-406v-1h708v40h-281v-9q0 -8 -5.5 -19t-15.5 -11zM600 0q21 0 39 7h-609v-7h570z" />
    <glyph glyph-name="FL0055h" unicode="T" horiz-adv-x="749" 
d="M30 459h689v24h-689v-24zM30 522h689v21h-689v-21zM233 20h280v47h-280v-47zM233 83h280v43h-280v-43zM719 414v10h-689v-10h203v-17h280v17h206zM233 146h280v40h-280v-40zM233 208h280v37h-280v-37zM233 271h280v34h-280v-34zM233 334h280v30h-280v-30zM513 0v7h-280
v-7h280z" />
    <glyph glyph-name="FL0056h" unicode="U" 
d="M97 20h659v47h-708q9 -14 22 -26t27 -21zM39 83h717v43h-726v-3q0 -21 9 -40zM310 170v16h-280v-40h726v40h-279v-39h-146q-11 0 -14.5 8.5t-6.5 14.5zM30 208h280v37h-280v-37zM477 208h279v37h-279v-37zM30 271h280v34h-280v-34zM477 271h279v34h-279v-34zM30 334h280
v30h-280v-30zM477 334h279v30h-279v-30zM30 397h280v27h-280v-27zM477 397h279v27h-279v-27zM30 459h280v24h-280v-24zM477 459h279v24h-279v-24zM30 522h280v21h-280v-21zM477 522h279v21h-279v-21zM160 0h596v7h-633q17 -7 37 -7z" />
    <glyph glyph-name="FL0057h" unicode="V" horiz-adv-x="924" 
d="M30 146h559l30 40h-589v-40zM30 83h510l33 43h-543v-43zM518 54l10 13h-498v-47h455q11 9 19.5 19t13.5 15zM321 218q-3 2 -7.5 4t-4.5 3v20h-279v-37h606l29 37h-319l-11 -15q-4 -5 -6.5 -8.5t-7.5 -3.5zM365 271h320l26 34h-321zM411 334h322l23 30h-323zM30 271h279
v34h-279v-34zM458 397h323l21 27h-324zM30 334h279v30h-279v-30zM504 459h325l18 24h-326zM30 397h279v27h-279v-27zM550 522h327l16 21h-328zM30 459h279v24h-279v-24zM30 522h279v21h-279v-21zM442 -1q11 0 24 8h-436v-8h412z" />
    <glyph glyph-name="FL0059h" unicode="W" horiz-adv-x="1109" 
d="M551 172h3q0 -2 1 -3q2 -4 6.5 -9.5t9.5 -13.5h507v40h-1049v-40h504q7 10 11.5 16.5t6.5 9.5zM29 208h1049v37h-1049v-37zM778 305h-450l-19 -23v23h-280v-34h1049v34h-280v-23zM621 83h457v43h-492q8 -11 16.5 -21.5t18.5 -21.5zM518 126h-489v-43h454q10 11 18.5 21.5
t16.5 21.5zM681 20h397v47h-443q12 -14 23.5 -26t22.5 -21zM468 67h-439v-47h391q11 9 23.5 21t24.5 26zM352 334h402l-25 30h-352zM29 334h280v30h-280v-30zM798 334h280v30h-280v-30zM29 397h280v27h-280v-27zM798 397h280v27h-280v-27zM404 397h297l-23 27h-251zM29 459
h280v24h-280v-24zM798 459h280v24h-280v-24zM29 522h280v21h-280v-21zM798 522h280v21h-280v-21zM456 459h192l-20 24h-152zM718 0h360v7h-379q10 -7 19 -7zM382 0q10 0 20 7h-373v-7h353zM508 522h87l-17 21h-52z" />
    <glyph glyph-name="FL0058h" unicode="X" horiz-adv-x="751" 
d="M341 106q2 -2 3.5 -4t3.5 -5q2 -4 5 -7l7 -7h361v43h-691v-43h295q4 5 7.5 10.5t8.5 12.5zM721 148h-44q-20 0 -42.5 10.5t-43.5 27.5h-410q-20 -17 -37 -27t-25 -10h-89v-3h691v2zM395 463q-4 4 -7.5 9t-8.5 11h-349v-24h691v24h-313q-6 -8 -9.5 -14zM431 20h290v47
h-346q26 -27 56 -47zM598 413h123v11h-691v-11h40q3 0 10.5 -0.5t18 -2t22 -4.5t22.5 -9h428q18 16 27 16zM537 245h-303q-11 -18 -30 -37h363q-8 8 -15.5 17.5t-14.5 19.5zM264 27q11 8 23 17.5t24 22.5h-281v-47h223q5 2 11 7zM541 364h-361q7 -8 13 -15t12 -15h316
q4 7 9 14.5t11 15.5zM514 305h-288q11 -17 22 -31q0 -1 -0.5 -1.5t-0.5 -1.5h276q-7 16 -9 34zM322 543h-292v-21h317q-5 5 -11.5 10.5t-13.5 10.5zM442 522h279v21h-253q-8 -5 -14 -10.5t-12 -10.5zM489 0h232v7h-266q15 -7 34 -7zM30 0h126q17 0 33.5 1t31.5 6h-191v-7z
" />
    <glyph glyph-name="FL007Ch" unicode="Y" horiz-adv-x="773" 
d="M727 67h-692v-47h655q23 17 37 47zM742 126h-707v-43h698q4 10 5.5 20.5t3.5 22.5zM50 271h693v34h-709q4 -17 16 -34zM146 208h597v37h-670q16 -15 35 -24.5t38 -12.5zM314 364h-284v-30h713v30h-285q-3 -5 -7 -9.5t-8 -4.5h-112q-8 0 -11.5 4.5t-5.5 9.5zM35 146h708
v40h-281v-2q0 -20 -8 -27.5t-28 -9.5h-391v-1zM462 397h281v27h-281v-27zM30 397h280v27h-280v-27zM462 459h281v24h-281v-24zM30 459h280v24h-280v-24zM462 522h281v21h-281v-21zM30 522h280v21h-280v-21zM667 7h-632v-7h594q23 0 38 7z" />
    <glyph glyph-name="FL007Bh" unicode="Z" horiz-adv-x="932" 
d="M397 83h505v43h-530l9 -16q3 -7 7 -13.5t9 -13.5zM470 20h432v47h-491q12 -14 27 -26t32 -21zM902 148h-174q-11 0 -24 12t-24 26h-341l22 -40h541v2zM645 245h-339l21 -37h338q-4 8 -5 11zM509 483h-479v-24h496q-4 5 -8 11t-9 13zM292 271h339l-19 34h-339zM212 397
h348l-15 27h-515v-10h151q14 0 31 -17zM249 349l8 -15h339l-17 30h-340q3 -5 5.5 -8.5t4.5 -6.5zM441 543h-411v-21h440q-12 11 -29 21zM902 0v7h-404q18 -7 40 -7h364z" />
    <glyph glyph-name="FL005Bh" unicode="[" horiz-adv-x="430" 
d="M30 -42h363v49h-363v-49zM30 20h363v47h-363v-47zM393 93h-82v33h-281v-43h363v10zM30 146h281v40h-281v-40zM30 208h281v37h-281v-37zM30 271h281v34h-281v-34zM30 334h281v30h-281v-30zM311 468h89v15h-370v-24h281v9zM30 522h370v21h-370v-21zM30 397h281v27h-281v-27
zM30 585h370v17h-370v-17zM393 -54v2h-363v-2h363z" />
    <glyph glyph-name="FL005Ch" unicode="\" horiz-adv-x="827" 
d="M464 20h328l-39 47h-328zM412 83h328l-36 43h-328zM360 146h328l-33 40h-328zM309 208h328l-31 37h-328zM257 271h328l-28 34h-328zM205 334h328l-25 30h-328zM152 397h328l-22 27h-328zM101 459h328l-20 24h-328zM48 522h328l-17 21h-328zM481 0h328l-6 7h-328z" />
    <glyph glyph-name="FL005Dh" unicode="]" horiz-adv-x="430" 
d="M37 -42h363v49h-363v-49zM37 20h363v47h-363v-47zM37 83h363v43h-281v-33h-82v-10zM119 146h281v40h-281v-40zM119 208h281v37h-281v-37zM119 271h281v34h-281v-34zM119 334h281v30h-281v-30zM119 459h281v24h-370v-15h89v-9zM30 522h370v21h-370v-21zM119 397h281v27
h-281v-27zM30 585h370v17h-370v-17zM400 -54v2h-363v-2h363z" />
    <glyph glyph-name="FL005Eh" unicode="^" horiz-adv-x="925" 
d="M333 334h317l-23 30h-597v-30h279v1q0 1 5 3t8 4q7 0 11 -8zM563 20h329l-36 47h-327zM30 397h572l-21 27h-551v-27zM517 83h326l-33 43h-325zM30 20h279v47h-279v-47zM471 146h324l-31 40h-323zM30 459h524l-19 24h-505v-24zM30 83h279v43h-279v-43zM425 208h322l-28 37
h-321zM30 146h279v40h-279v-40zM379 271h320l-26 34h-319zM30 208h279v37h-279v-37zM481 543h-451v-21h473l-10.5 10.5t-11.5 10.5zM30 271h279v34h-279v-34zM902 7h-329l6 -8h329zM309 0v7h-279v-7h279z" />
    <glyph glyph-name="FL005Fh" unicode="_" horiz-adv-x="589" 
d="M30 20h529v47h-529v-47zM30 83h529v43h-529v-43zM559 0v7h-529v-7h529zM559 147h-529v-1h529v1z" />
    <glyph glyph-name="FL0061h" unicode="`" horiz-adv-x="1461" 
d="M1152 334h279v30h-598l-23 -30h318q3 5 5 7t7 2q3 -2 7.5 -4t4.5 -3v-2zM30 459h689v24h-689v-24zM569 20h327l35 47h-326zM859 397h572v27h-552zM30 522h689v21h-689v-21zM618 83h325l31 43h-323zM233 20h280v47h-280v-47zM1152 20h279v47h-279v-47zM666 146h323l30 40
h-322zM906 459h525v24h-507zM233 83h280v43h-280v-43zM1152 83h279v43h-279v-43zM714 208h321l27 37h-320zM719 414v10h-689v-10h203v-17h280v17h206zM233 146h280v40h-280v-40zM1152 146h279v40h-279v-40zM762 271h319l25 34h-318zM233 208h280v37h-280v-37zM1152 208h279
v37h-279v-37zM955 522h476v21h-453q-15 -12 -23 -21zM233 271h280v34h-280v-34zM1152 271h279v34h-279v-34zM233 334h280v30h-280v-30zM554 0h328l5 7h-328zM513 0v7h-280v-7h280zM1431 1v6h-279v-6h279z" />
    <glyph glyph-name="a" unicode="a" horiz-adv-x="924" 
d="M615 334h279v30h-597l-23 -30h317q3 5 5 6.5t7 1.5q3 -2 7.5 -4t4.5 -3v-1zM33 20h327l35 47h-326zM322 397h572v27h-551zM81 83h326l31 43h-324zM615 20h279v47h-279v-47zM130 146h323l29 40h-322zM370 459h524v24h-506zM615 83h279v43h-279v-43zM177 208h321l28 37
h-320zM615 146h279v40h-279v-40zM226 271h319l25 34h-318zM615 208h279v37h-279v-37zM419 522h475v21h-452q-6 -5 -12 -10.5t-11 -10.5zM615 271h279v34h-279v-34zM17 -1h328l6 8h-328zM894 0v7h-279v-7h279z" />
    <glyph glyph-name="FL0062h" unicode="b" 
d="M729 67h-699v-47h653q29 17 46 47zM752 126h-722v-43h708q5 11 8.5 21.5t5.5 21.5zM446 211q13 0 21 -3h286q-3 21 -10 37h-713v-37h279v3h137zM733 305h-703v-34h698q-3 4 -6 7l-7 7q10 7 18 20zM309 147v39h-279v-40h725q1 6 1 12v12v7q0 4 -1 9h-273v-5q0 -14 -8 -24
t-27 -10h-138zM309 350v14h-279v-30h716q2 7 3.5 14.5t3.5 15.5h-275q-5 -14 -33 -14h-136zM729 483h-699v-24h711q-3 6 -5.5 12t-6.5 12zM477 397h278q-1 7 -1.5 13t-2.5 14h-721v-27h279v17h137q24 0 31 -17zM672 543h-642v-21h669q-12 12 -27 21zM605 0q28 0 49 7h-624
v-7h575z" />
    <glyph glyph-name="FL0063h" unicode="c" horiz-adv-x="703" 
d="M96 20h571v47h-620q9 -14 22 -26t27 -21zM39 83h628v43h-637v-3q0 -21 9 -40zM37 459h636v24h-626q-3 -6 -5.5 -12t-4.5 -12zM76 522h597v21h-569q-13 -8 -28 -21zM667 147h-336q-8 0 -14 6.5t-7 16.5v16h-280v-40h637v1zM30 418v-21h282q3 7 7.5 12t11.5 5h342v10h-643
v-6zM30 208h280v37h-280v-37zM30 271h280v34h-280v-34zM30 334h280v30h-280v-30zM160 0h507v7h-545q18 -7 38 -7z" />
    <glyph glyph-name="d" unicode="d" horiz-adv-x="779" 
d="M738 67h-708v-47h671q22 18 37 47zM749 110v16h-719v-43h714q5 15 5 27zM310 150v36h-280v-40h719v40h-286q-5 -16 -16.5 -26t-33.5 -10h-103zM310 403h117q5 0 10 -2t9 -4h303v27h-719v-27h280v6zM735 483h-705v-24h714q-3 12 -9 24zM687 543h-657v-21h679
q-11 13 -22 21zM467 208h282v37h-280v-19q0 -9 -2 -18zM30 208h280v37h-280v-37zM30 271h280v34h-280v-34zM469 271h280v34h-280v-34zM468 334h281v30h-285q4 -13 4 -30zM30 334h280v30h-280v-30zM30 0h622q15 0 28 7h-650v-7z" />
    <glyph glyph-name="E" unicode="e" horiz-adv-x="703" 
d="M96 20h577v47h-626q9 -14 22 -26t27 -21zM39 83h634v43h-643v-3q0 -21 9 -40zM331 208h342v37h-643v-37h300h1zM30 271h643v34h-643v-34zM37 459h636v24h-626q-3 -6 -5.5 -12t-4.5 -12zM673 351h-335q-16 0 -24 13h-284v-30h643v17zM76 522h597v21h-569q-13 -8 -28 -21z
M673 147h-342q-2 0 -10 8.5t-11 14.5q0 1 -0.5 3t-0.5 4t0.5 4t0.5 3v0q0 1 1 2h-281v-40h643v1zM30 418v-21h282q3 7 8 12t11 5h342v10h-643v-6zM160 0h513v7h-551q18 -7 38 -7z" />
    <glyph glyph-name="FL0066h" unicode="f" horiz-adv-x="703" 
d="M331 208h342v37h-643v-37h300h1zM30 271h643v34h-643v-34zM37 459h636v24h-626q-3 -6 -5.5 -12t-4.5 -12zM673 351h-335q-16 0 -24 13h-284v-30h643v17zM30 20h280v47h-280v-47zM76 522h597v21h-569q-13 -8 -28 -21zM30 83h280v43h-280v-43zM30 418v-21h282q3 7 8 12
t11 5h342v10h-643v-6zM310 184v0q0 1 1 2h-281v-40h280v38zM310 0v7h-280v-7h280z" />
    <glyph glyph-name="FL0067h" unicode="g" 
d="M756 123v3h-726v-3q0 -21 9 -40h708q4 10 6.5 19.5t2.5 20.5zM738 67h-690q9 -14 22 -26t27 -21h593q30 19 48 47zM310 170v16h-280v-40h726v40h-279v-16q-3 -6 -8.5 -14.5t-13.5 -8.5h-124q-11 0 -14.5 8.5t-6.5 14.5zM37 459h716v24h-706q-3 -6 -5.5 -12t-4.5 -12z
M477 208h279v37h-390v-34h111v-3zM76 522h677v21h-649q-13 -8 -28 -21zM735 305h-369v-34h387q-4 17 -18 34zM30 397h282q3 7 7.5 12t11.5 5h422v10h-723v-6v-21zM30 208h280v37h-280v-37zM30 271h280v34h-280v-34zM30 334h280v30h-280v-30zM366 334h336q-18 11 -38 18
t-38 7h-260v-25zM664 7h-541q17 -7 37 -7h466q20 0 38 7z" />
    <glyph glyph-name="FL0068h" unicode="h" horiz-adv-x="756" 
d="M726 208v37h-696v-37h696zM30 271h696v34h-696v-34zM310 351v13h-280v-30h696v30h-281v-13h-135zM445 20h281v47h-281v-47zM30 20h280v47h-280v-47zM445 83h281v43h-281v-43zM30 83h280v43h-280v-43zM445 146h281v40h-281v-40zM30 146h280v40h-280v-40zM445 397h281v27
h-281v-27zM30 397h280v27h-280v-27zM445 459h281v24h-281v-24zM30 459h280v24h-280v-24zM445 522h281v21h-281v-21zM30 522h280v21h-280v-21zM726 0v7h-281v-7h281zM310 0v7h-280v-7h280z" />
    <glyph glyph-name="FL0069h" unicode="i" horiz-adv-x="340" 
d="M30 20h280v47h-280v-47zM30 83h280v43h-280v-43zM30 146h280v40h-280v-40zM30 208h280v37h-280v-37zM30 271h280v34h-280v-34zM30 334h280v30h-280v-30zM30 397h280v27h-280v-27zM30 459h280v24h-280v-24zM30 522h280v21h-280v-21zM310 0v7h-280v-7h280z" />
    <glyph glyph-name="FL006Ah" unicode="j" horiz-adv-x="703" 
d="M658 67h-628v-47h591q23 16 37 47zM672 126h-642v-43h634q3 10 5 20.5t3 22.5zM355 147h-325v-1h643v40h-280v-2q0 -20 -8.5 -27.5t-29.5 -9.5zM393 208h280v37h-280v-37zM393 271h280v34h-280v-34zM393 334h280v30h-280v-30zM393 397h280v27h-280v-27zM393 459h280v24
h-280v-24zM393 522h280v21h-280v-21zM559 0q22 0 39 7h-568v-7h529z" />
    <glyph glyph-name="FL006Bh" unicode="k" horiz-adv-x="751" 
d="M310 164l10 -18h401v2h-44q-23 0 -47.5 10.5t-47.5 27.5h-552v-40h280v18zM529 245h-499v-37h527q-8 8 -15 17.5t-13 19.5zM514 305h-484v-34h489q-5 17 -5 30v4zM348 97q2 -4 5 -7l7 -7h361v43h-390zM546 364h-234q-1 -2 -1 -3t-1 -2v5h-280v-30h493q8 13 23 30zM431 20
h290v47h-346q26 -27 56 -47zM30 20h280v47h-280v-47zM30 83h280v43h-280v-43zM326 397h258q26 16 42 16h95v11h-383q-3 -7 -6.5 -13.5t-5.5 -13.5zM359 459h362v24h-344q-3 -6 -5 -8v-2l-7 -7t-6 -7zM30 397h280v27h-280v-27zM30 459h280v24h-280v-24zM417 522h304v21h-271
q-20 -11 -33 -21zM30 522h280v21h-280v-21zM310 0v7h-280v-7h280zM721 0v7h-266q15 -7 34 -7h232z" />
    <glyph glyph-name="l" unicode="l" horiz-adv-x="703" 
d="M83 20h590v47h-628q7 -14 16.5 -26.5t21.5 -20.5zM39 83h634v43h-642q1 -11 2.5 -22t5.5 -21zM673 147h-325q-21 2 -29.5 9.5t-8.5 27.5v2h-280v-40h643v1zM30 208h280v37h-280v-37zM30 271h280v34h-280v-34zM30 334h280v30h-280v-30zM30 397h280v27h-280v-27zM30 459
h280v24h-280v-24zM30 522h280v21h-280v-21zM145 0h528v7h-567q17 -7 39 -7z" />
    <glyph glyph-name="FL006Dh" unicode="m" horiz-adv-x="1109" 
d="M310 279l6 -8h476l7 8v-8h280v34h-1049v-34h280v8zM30 334h1049v30h-1049v-30zM369 208h371l30 37h-432zM529 424h-499v-27h518q-7 10 -19 27zM561 397h518v27h-499q-12 -17 -19 -27zM30 20h280v47h-280v-47zM799 20h280v47h-280v-47zM30 83h280v43h-280v-43zM799 83h280
v43h-280v-43zM422 146h266l33 40h-333zM30 146h280v40h-280v-40zM799 146h280v40h-280v-40zM482 483h-452v-24h472l-10 12zM608 459h471v24h-450zM799 208h280v37h-280v-37zM30 208h280v37h-280v-37zM423 543h-393v-21h416q-6 6 -12 11t-11 10zM475 83h161l36 43h-233z
M666 522h413v21h-390q-5 -5 -11 -10t-12 -11zM528 20h56l39 47h-135zM1079 0v7h-280v-7h280zM310 0v7h-280v-7h280zM567 0l6 7h-34l6 -7h22z" />
    <glyph glyph-name="FL0071h" unicode="n" horiz-adv-x="919" 
d="M310 279l5 -8h574v34h-278v-30l-18 30h-563v-34h280v8zM397 146h492v40h-518zM357 208h532v37h-557zM440 83h449v43h-479l15 -22zM505 20h384v47h-436q11 -14 24.5 -26t27.5 -21zM30 334h546l-18 30h-528v-30zM30 397h508l-16 27h-492v-27zM30 20h280v47h-280v-47zM30 83
h280v43h-280v-43zM30 146h280v40h-280v-40zM485 483h-455v-24h471v1q-3 5 -7 10.5t-9 12.5zM30 208h280v37h-280v-37zM421 543h-391v-21h417q-6 5 -12.5 10.5t-13.5 10.5zM611 334h278v30h-278v-30zM611 397h278v27h-278v-27zM611 459h278v24h-278v-24zM611 522h278v21h-278
v-21zM889 0v7h-359q17 -7 37 -7h322zM310 0v7h-280v-7h280z" />
    <glyph glyph-name="FL006Fh" unicode="o" 
d="M756 123v3h-726v-3q0 -21 9 -40h708q4 10 6.5 19.5t2.5 20.5zM738 67h-691q9 -14 22 -26t27 -21h594q30 19 48 47zM309 170v16h-279v-40h726v40h-279v-16q-3 -6 -9.5 -14.5t-12.5 -8.5h-124q-13 0 -17 9t-5 14zM756 424h-726v-6v-21h282q5 14 17 17h126q7 0 11.5 -5
t7.5 -12h282v21v6zM738 483h-691q-3 -6 -5.5 -12t-4.5 -12h712q-2 6 -5 12zM682 543h-578q-13 -8 -28 -21h633q-12 12 -27 21zM30 208h279v37h-279v-37zM477 208h279v37h-279v-37zM30 271h279v34h-279v-34zM477 271h279v34h-279v-34zM30 334h279v30h-279v-30zM477 334h279
v30h-279v-30zM664 7h-542q18 -7 38 -7h466q20 0 38 7z" />
    <glyph glyph-name="FL0070h" unicode="p" 
d="M733 245h-703v-37h682q13 17 21 37zM309 304v1h-279v-34h713q2 8 4 16.5t4 17.5h-303q-2 -1 -7 -1h-132zM309 157h297q26 0 47 7.5t38 21.5h-661v-40h279v11zM727 483h-697v-24h708q-2 6 -5 12zM749 424h-719v-27h279v17h138q8 0 14 -5t11 -12h282q-1 7 -2 13.5t-3 13.5z
M673 543h-643v-21h669q-6 6 -12 11t-14 10zM30 20h279v47h-279v-47zM30 83h279v43h-279v-43zM30 334h279v30h-279v-30zM756 364h-274v-4q0 -13 -6 -26h279q1 8 1 15v15zM309 0v7h-279v-7h279z" />
    <glyph glyph-name="FL0072h" unicode="q" 
d="M756 123v3h-726v-3q0 -21 9 -40h707q5 10 7.5 19.5t2.5 20.5zM738 67h-691q9 -14 22 -26t27 -21h593q14 9 27 21t22 26zM332 -105h493v53h-540q9 -14 21 -27.5t26 -25.5zM825 0h-194q13 0 32 7h-541q18 -7 38 -7h96l22 -40v0q0 -1 1 -2h546v42zM310 170v16h-280v-40h726
v40h-279v-16q-3 -6 -10 -14.5t-9 -8.5h-127q-11 0 -14.5 8.5t-6.5 14.5zM756 418v6h-726v-6v-21h282q5 14 17 17h126q7 0 11.5 -5t7.5 -12h282v21zM738 483h-691q-3 -6 -5.5 -12t-4.5 -12h712q-2 6 -5 12zM435 -149h390v37h-484q21 -16 45 -26.5t49 -10.5zM682 543h-578
q-13 -8 -28 -21h633q-12 12 -27 21zM310 245h-280v-37h280v37zM477 208h279v37h-279v-37zM310 305h-280v-34h280v34zM477 271h279v34h-279v-34zM310 364h-280v-30h280v30zM477 334h279v30h-279v-30z" />
    <glyph glyph-name="r" unicode="r" horiz-adv-x="809" 
d="M361 146h352l-31 40h-652v-40h279v4q0 1 5 3t11 4h2q9 0 17.5 -3t16.5 -8zM708 245h-678v-37h636l-1 1q-1 1 -1 8q0 8 5 13q22 0 39 15zM309 304v1h-279v-34h699q5 8 8 16.5t6 17.5h-295q-2 -1 -7 -1h-132zM739 483h-709v-24h718q-3 12 -9 24zM309 414h138q8 0 14.5 -5
t10.5 -12h284q0 7 -0.5 13.5t-1.5 13.5h-724v-27h279v17zM463 20h346l-36 47h-345zM386 123l30 -40h345l-33 43h-345zM689 543h-659v-21h685q-10 11 -26 21zM30 20h279v47h-279v-47zM30 83h279v43h-279v-43zM30 334h279v30h-279v-30zM476 334h274q2 8 3 15t2 15h-273v-3
q0 -14 -6 -27zM818 7h-346l6 -7h346zM30 0h279v7h-279v-7z" />
    <glyph glyph-name="s" unicode="s" horiz-adv-x="900" 
d="M524 110l9 16h-503v-43h476q10 13 18 27zM493 67h-463v-47h406q16 9 30.5 21t26.5 26zM30 146h514l22 40h-342q-11 -14 -23.5 -26t-23.5 -12h-147v-2zM240 208h338l20 37h-338l-16 -30q-1 -2 -2 -3.5t-2 -3.5zM379 459h491v24h-472q-6 -7 -10.5 -13t-8.5 -11zM275 271
h338l18 34h-337zM870 414v10h-511l-15 -27h347q8 8 16.5 12.5t16.5 4.5h146zM663 364h-337l-16 -30h337l9 15q1 3 3 6.5t4 8.5zM439 522h431v21h-403q-7 -5 -14 -10.5t-14 -10.5zM30 0h337q23 0 41 7h-378v-7z" />
    <glyph glyph-name="FL0074h" unicode="t" horiz-adv-x="749" 
d="M30 459h689v24h-689v-24zM30 522h689v21h-689v-21zM233 20h280v47h-280v-47zM233 83h280v43h-280v-43zM233 414v-17h280v17h206v10h-689v-10h203zM233 146h280v40h-280v-40zM233 208h280v37h-280v-37zM233 271h280v34h-280v-34zM233 334h280v30h-280v-30zM513 0v7h-280
v-7h280z" />
    <glyph glyph-name="FL0075h" unicode="u" 
d="M39 83h708q4 10 6.5 19.5t2.5 20.5v3h-726v-3q0 -21 9 -40zM97 20h593q30 19 48 47h-690q9 -14 22 -26t27 -21zM310 170v16h-280v-40h726v40h-279v-17q-3 -6 -8.5 -14t-13.5 -8h-124q-11 0 -14.5 8.5t-6.5 14.5zM30 208h280v37h-280v-37zM477 208h279v37h-279v-37z
M30 271h280v34h-280v-34zM477 271h279v34h-279v-34zM30 334h280v30h-280v-30zM477 334h279v30h-279v-30zM30 397h280v27h-280v-27zM477 397h279v27h-279v-27zM30 459h280v24h-280v-24zM477 459h279v24h-279v-24zM30 522h280v21h-280v-21zM477 522h279v21h-279v-21zM160 0
h466q20 0 38 7h-541q17 -7 37 -7z" />
    <glyph glyph-name="FL0076h" unicode="v" horiz-adv-x="924" 
d="M335 146h559v40h-589zM384 83h510v43h-543zM406 54q4 -5 12.5 -15t19.5 -19h456v47h-498zM603 218q-5 0 -7.5 3.5t-6.5 8.5l-11 15h-319l29 -37h606v37h-279v-20q0 -1 -4.5 -3t-7.5 -4zM239 271h320l-25 34h-321zM191 334h321l-22 30h-322zM615 271h279v34h-279v-34z
M143 397h323l-20 27h-324zM615 334h279v30h-279v-30zM95 459h325l-18 24h-325zM615 397h279v27h-279v-27zM47 522h327l-16 21h-327zM615 459h279v24h-279v-24zM615 522h279v21h-279v-21zM482 -1h412v8h-437q13 -8 25 -8z" />
    <glyph glyph-name="FL0077h" unicode="w" horiz-adv-x="1109" 
d="M1061 67h-1013q9 -14 22 -26t27 -21h916q30 19 48 47zM1079 123v3h-1049v-3q0 -21 9 -40h1031q4 10 6.5 19.5t2.5 20.5zM310 170v16h-280v-40h1049v40h-279v-16q-3 -6 -8.5 -14.5t-13.5 -8.5h-62q-11 0 -14.5 8.5t-5.5 14.5v16h-281v-18l-1 -2q-3 -5 -8 -12t-12 -7h-63
q-11 0 -14.5 8.5t-6.5 14.5zM415 208h281v37h-281v-37zM30 208h280v37h-280v-37zM800 208h279v37h-279v-37zM415 271h281v34h-281v-34zM30 271h280v34h-280v-34zM800 271h279v34h-279v-34zM415 334h281v30h-281v-30zM30 334h280v30h-280v-30zM800 334h279v30h-279v-30z
M415 397h281v27h-281v-27zM30 397h280v27h-280v-27zM800 397h279v27h-279v-27zM415 459h281v24h-281v-24zM30 459h280v24h-280v-24zM800 459h279v24h-279v-24zM415 522h281v21h-281v-21zM30 522h280v21h-280v-21zM987 7h-864q17 -7 37 -7h789q20 0 38 7zM800 522h279v21
h-279v-21z" />
    <glyph glyph-name="x" unicode="x" horiz-adv-x="751" 
d="M360 83h361v43h-691v-43h295q4 5 7.5 10.5t8.5 12.5q2 -2 3.5 -4t3.5 -5q2 -4 5 -7zM30 146h691v2h-44q-20 0 -42.5 10.5t-43.5 27.5h-410q-20 -17 -37 -27t-25 -10h-89v-3zM379 483h-349v-24h691v24h-313q-6 -9 -9.5 -14.5l-3.5 -5.5q-4 4 -7.5 9t-8.5 11zM431 20h290
v47h-346q26 -27 56 -47zM143 397h428q18 16 27 16h123v11h-691v-11h40q3 0 10.5 -0.5t18 -2t22 -4.5t22.5 -9zM204 208h363q-8 8 -15.5 17.5t-14.5 19.5h-303q-11 -18 -30 -37zM311 67h-281v-47h223q5 2 11 7q11 8 23 17.5t24 22.5zM205 334h316q4 7 9 14.5t11 15.5h-361
q7 -8 13 -15t12 -15zM247 271h276q-7 16 -9 34h-288q11 -17 22 -31q0 -1 -0.5 -1.5t-0.5 -1.5zM322 543h-292v-21h317q-5 5 -11.5 10.5t-13.5 10.5zM442 522h279v21h-253q-8 -5 -14 -10.5t-12 -10.5zM721 0v7h-266q15 -7 34 -7h232zM156 0q17 0 33.5 1t31.5 6h-191v-7h126z
" />
    <glyph glyph-name="FL0079h" unicode="y" horiz-adv-x="751" 
d="M391 460q-5 5 -9.5 10.5t-9.5 12.5h-342v-24h691v24h-315q-7 -10 -10.5 -16.5t-4.5 -6.5zM721 413v11h-691v-11h40q5 0 23.5 -2.5t40.5 -13.5h458q18 12 27 16h102zM234 20h280v47h-280v-47zM234 83h280v43h-280v-43zM234 146h280v40h-280v-40zM234 208h280v37h-280v-37z
M206 334h319q5 8 11 15t14 15h-374q8 -8 15.5 -15t14.5 -15zM234 284v-13h280v31v3h-288q2 -5 4 -10.5t4 -10.5zM314 543h-284v-21h309q-5 5 -11.5 10.5t-13.5 10.5zM438 522h283v21h-258q-7 -5 -13.5 -10.5t-11.5 -10.5zM514 0v7h-280v-7h280z" />
    <glyph glyph-name="FL007Dh" unicode="z" horiz-adv-x="899" 
d="M376 110q5 -12 17 -27h476v43h-502zM465 20h404v47h-462q12 -14 26.5 -26t31.5 -21zM869 148h-146q-13 0 -25 12t-23 26h-341l22 -40h513v2zM654 219l-15 26h-338l21 -37h338q-2 3 -3.5 6zM500 483h-470v-24h490q-4 5 -9 11t-11 13zM287 271h338l-19 34h-338zM175 414
q8 0 16 -4.5t16 -12.5h348l-15 27h-510v-10h145zM244 349l8 -15h338l-16 30h-340q3 -5 5.5 -8.5t4.5 -6.5zM433 543h-403v-21h431q-7 5 -14 10.5t-14 10.5zM869 0v7h-375q18 -7 40 -7h335z" />
    <glyph glyph-name="FL0060h" unicode="{" horiz-adv-x="1487" 
d="M524 110l9 16h-503v-43h476q10 13 18 27zM1111 110l9 16h-503v-43h476q10 13 18 27zM493 67h-463v-47h406q16 9 30.5 21t26.5 26zM1080 67h-463v-47h406q16 9 30.5 21t26.5 26zM617 146h514l22 40h-342q-11 -14 -23.5 -26t-23.5 -12h-147v-2zM30 146h514l22 40h-342
q-11 -14 -23.5 -26t-23.5 -12h-147v-2zM827 208h338l20 37h-338l-16 -30q-1 -2 -2 -3.5t-2 -3.5zM240 208h338l20 37h-338l-16 -30q-1 -2 -2 -3.5t-2 -3.5zM379 459h491v24h-472q-6 -7 -10.5 -13t-8.5 -11zM966 459h491v24h-472q-6 -7 -10.5 -13t-8.5 -11zM275 271h338
l18 34h-337zM862 271h338l18 34h-337zM870 414v10h-511l-15 -27h347q8 8 16.5 12.5t16.5 4.5h146zM1457 414v10h-511l-15 -27h347q8 8 16.5 12.5t16.5 4.5h146zM663 364h-337l-16 -30h337l9 15q1 3 3 6.5t4 8.5zM1250 364h-337l-16 -30h337l9 15q1 3 3 6.5t4 8.5zM1026 522
h431v21h-403q-7 -5 -14 -10.5t-14 -10.5zM439 522h431v21h-403q-7 -5 -14 -10.5t-14 -10.5zM30 0h337q23 0 41 7h-378v-7zM617 0h337q23 0 41 7h-378v-7z" />
    <glyph glyph-name="FL007Eh" unicode="|" horiz-adv-x="340" 
d="M30 -168h280v56h-280v-56zM30 -105h280v53h-280v-53zM30 -42h280v49h-280v-49zM30 20h280v47h-280v-47zM30 83h280v43h-280v-43zM30 146h280v40h-280v-40zM30 208h280v37h-280v-37zM30 271h280v34h-280v-34zM30 334h280v30h-280v-30zM30 397h280v27h-280v-27zM30 459h280
v24h-280v-24zM30 522h280v21h-280v-21zM30 585h280v17h-280v-17zM30 648h280v14h-280v-14zM30 710h280v11h-280v-11z" />
    <glyph glyph-name="FL0083h" unicode="}" horiz-adv-x="1537" 
d="M524 110l9 16h-503v-43h476q10 13 18 27zM493 67h-463v-47h406q16 9 30.5 21t26.5 26zM1228 334h279v30h-598l-23 -30h318q3 5 5 7t7 2q3 -2 7.5 -4t4.5 -3v-2zM645 20h327l35 47h-326zM935 397h572v27h-552zM30 146h514l22 40h-342q-11 -14 -23.5 -26t-23.5 -12h-147v-2
zM694 83h325l31 43h-323zM1228 20h279v47h-279v-47zM742 146h323l30 40h-322zM240 208h338l20 37h-338l-16 -30q-1 -2 -2 -3.5t-2 -3.5zM982 459h525v24h-507zM1228 83h279v43h-279v-43zM790 208h321l27 37h-320zM379 459h491v24h-472q-6 -7 -10.5 -13t-8.5 -11zM275 271
h338l18 34h-337zM1228 146h279v40h-279v-40zM870 414v10h-511l-15 -27h347q8 8 16.5 12.5t16.5 4.5h146zM838 271h319l25 34h-318zM1228 208h279v37h-279v-37zM663 364h-337l-16 -30h337l9 15q1 3 3 6.5t4 8.5zM1031 522h476v21h-453q-15 -12 -23 -21zM1228 271h279v34h-279
v-34zM439 522h431v21h-403q-7 -5 -14 -10.5t-14 -10.5zM30 0h337q23 0 41 7h-378v-7zM630 0h328l5 7h-328zM1507 1v6h-279v-6h279z" />
    <glyph glyph-name="FL0082h" unicode="~" horiz-adv-x="1466" 
d="M1090 110l9 16h-503v-43h476q10 13 18 27zM1059 67h-463v-47h406q16 9 30.5 21t26.5 26zM30 459h689v24h-689v-24zM30 522h689v21h-689v-21zM596 146h514l22 40h-342q-11 -14 -23.5 -26t-23.5 -12h-147v-2zM233 20h280v47h-280v-47zM806 208h338l20 37h-338l-16 -30
q-1 -2 -2 -3.5t-2 -3.5zM233 83h280v43h-280v-43zM719 414v10h-689v-10h203v-17h280v17h206zM945 459h491v24h-472q-6 -7 -10.5 -13t-8.5 -11zM841 271h338l18 34h-337zM233 146h280v40h-280v-40zM1436 414v10h-511l-15 -27h347q8 8 16.5 12.5t16.5 4.5h146zM233 208h280v37
h-280v-37zM1229 364h-337l-16 -30h337l9 15q1 3 3 6.5t4 8.5zM233 271h280v34h-280v-34zM1005 522h431v21h-403q-7 -5 -14 -10.5t-14 -10.5zM233 334h280v30h-280v-30zM596 0h337q23 0 41 7h-378v-7zM513 0v7h-280v-7h280z" />
    <glyph glyph-name="FL007Fh" horiz-adv-x="236" 
 />
    <glyph glyph-name="FL20ACh" horiz-adv-x="807" 
d="M214 20h557v47h-606q9 -14 22 -26t27 -21zM157 83h614v43h-623v-3q0 -21 9 -40zM30 208h579v37h-579v-37zM30 359v-25h579v25h-181v5h-280v-5h-118zM155 459h622v24h-612q-3 -6 -5.5 -12t-4.5 -12zM609 295v10h-579v-10h118v-24h280v24h181zM194 522h583v21h-555
q-13 -8 -28 -21zM428 170v16h-280v-40h623v1h-322q-8 0 -14 6.5t-7 16.5zM148 397h282q3 7 7.5 12t11.5 5h328v10h-629v-6v-21zM771 0v7h-531q18 -7 38 -7h493z" />
    <glyph glyph-name="FL20ACh" unicode="&#x20ac;" horiz-adv-x="807" 
d="M214 20h557v47h-606q9 -14 22 -26t27 -21zM157 83h614v43h-623v-3q0 -21 9 -40zM30 208h579v37h-579v-37zM30 359v-25h579v25h-181v5h-280v-5h-118zM155 459h622v24h-612q-3 -6 -5.5 -12t-4.5 -12zM609 295v10h-579v-10h118v-24h280v24h181zM194 522h583v21h-555
q-13 -8 -28 -21zM428 170v16h-280v-40h623v1h-322q-8 0 -14 6.5t-7 16.5zM148 397h282q3 7 7.5 12t11.5 5h328v10h-629v-6v-21zM771 0v7h-531q18 -7 38 -7h493z" />
    <glyph glyph-name="FL017Fh" horiz-adv-x="1487" 
d="M963 110q5 -12 17 -27h477v43h-503zM376 110q5 -12 17 -27h477v43h-503zM1052 20h405v47h-463q25 -28 58 -47zM465 20h405v47h-463q25 -28 58 -47zM870 148h-147q-11 0 -24 12t-24 26h-341l22 -40h514v2zM1457 148h-147q-11 0 -24 12t-24 26h-341l22 -40h514v2zM656 215
l-17 30h-338l21 -37h338q-2 2 -2.5 3.5t-1.5 3.5zM1243 215l-17 30h-338l21 -37h338q-2 2 -2.5 3.5t-1.5 3.5zM1088 483h-471v-24h490q-7 10 -19 24zM501 483h-471v-24h490q-7 10 -19 24zM287 271h338l-19 34h-338zM874 271h338l-19 34h-338zM763 414q7 0 15.5 -4.5
t16.5 -12.5h347l-15 27h-510v-10h146zM176 414q7 0 15.5 -4.5t16.5 -12.5h347l-15 27h-510v-10h146zM244 349l8 -15h338l-17 30h-337q2 -5 4 -8.5t4 -6.5zM831 349l8 -15h338l-17 30h-337q2 -5 4 -8.5t4 -6.5zM432 543h-402v-21h431q-7 5 -14 10.5t-15 10.5zM1019 543h-402
v-21h431q-7 5 -14 10.5t-15 10.5zM1457 0v7h-377q18 -7 40 -7h337zM870 0v7h-377q18 -7 40 -7h337z" />
    <glyph glyph-name="FL017Fh" unicode="&#x17d;" horiz-adv-x="1487" 
d="M963 110q5 -12 17 -27h477v43h-503zM376 110q5 -12 17 -27h477v43h-503zM1052 20h405v47h-463q25 -28 58 -47zM465 20h405v47h-463q25 -28 58 -47zM870 148h-147q-11 0 -24 12t-24 26h-341l22 -40h514v2zM1457 148h-147q-11 0 -24 12t-24 26h-341l22 -40h514v2zM656 215
l-17 30h-338l21 -37h338q-2 2 -2.5 3.5t-1.5 3.5zM1243 215l-17 30h-338l21 -37h338q-2 2 -2.5 3.5t-1.5 3.5zM1088 483h-471v-24h490q-7 10 -19 24zM501 483h-471v-24h490q-7 10 -19 24zM287 271h338l-19 34h-338zM874 271h338l-19 34h-338zM763 414q7 0 15.5 -4.5
t16.5 -12.5h347l-15 27h-510v-10h146zM176 414q7 0 15.5 -4.5t16.5 -12.5h347l-15 27h-510v-10h146zM244 349l8 -15h338l-17 30h-337q2 -5 4 -8.5t4 -6.5zM831 349l8 -15h338l-17 30h-337q2 -5 4 -8.5t4 -6.5zM432 543h-402v-21h431q-7 5 -14 10.5t-15 10.5zM1019 543h-402
v-21h431q-7 5 -14 10.5t-15 10.5zM1457 0v7h-377q18 -7 40 -7h337zM870 0v7h-377q18 -7 40 -7h337z" />
    <glyph glyph-name="FL017Eh" horiz-adv-x="900" 
d="M376 110q5 -12 17 -27h477v43h-503zM465 20h405v47h-463q25 -28 58 -47zM870 148h-147q-11 0 -24 12t-24 26h-341l22 -40h514v2zM656 215l-17 30h-338l21 -37h338q-2 2 -2.5 3.5t-1.5 3.5zM502 483h-472v-24h491q-4 5 -8.5 11t-10.5 13zM287 271h338l-19 34h-338z
M176 414q7 0 15.5 -4.5t16.5 -12.5h347l-15 27h-510v-10h146zM244 349l8 -15h338l-17 30h-337q2 -5 4 -8.5t4 -6.5zM434 543h-404v-21h433q-8 6 -14.5 11t-14.5 10zM296 710h304l9 11h-322zM343 648h210l11 14h-232zM870 0v7h-377q18 -7 40 -7h337zM247 773h168l-5 8h-169z
M480 773h168l6 8h-168z" />
    <glyph glyph-name="FL017Eh" unicode="&#x17e;" horiz-adv-x="900" 
d="M376 110q5 -12 17 -27h477v43h-503zM465 20h405v47h-463q25 -28 58 -47zM870 148h-147q-11 0 -24 12t-24 26h-341l22 -40h514v2zM656 215l-17 30h-338l21 -37h338q-2 2 -2.5 3.5t-1.5 3.5zM502 483h-472v-24h491q-4 5 -8.5 11t-10.5 13zM287 271h338l-19 34h-338z
M176 414q7 0 15.5 -4.5t16.5 -12.5h347l-15 27h-510v-10h146zM244 349l8 -15h338l-17 30h-337q2 -5 4 -8.5t4 -6.5zM434 543h-404v-21h433q-8 6 -14.5 11t-14.5 10zM296 710h304l9 11h-322zM343 648h210l11 14h-232zM870 0v7h-377q18 -7 40 -7h337zM247 773h168l-5 8h-169z
M480 773h168l6 8h-168z" />
    <glyph glyph-name="FL00A1h" unicode="&#xa1;" horiz-adv-x="340" 
d="M30 20h280v47h-280v-47zM30 83h280v43h-280v-43zM30 146h280v40h-280v-40zM30 208h280v37h-280v-37zM36 271h267l-8 34h-250zM288 469q0 4 -0.5 7t-1.5 7h-232q-1 -5 -1 -14q0 -7 1 -10h233q0 2 0.5 4.5t0.5 5.5zM273 424h-206q12 -16 29 -27h148q16 9 29 27zM74 522h192
q-10 11 -26 21h-140q-16 -10 -26 -21zM310 0v7h-280v-7h280z" />
    <glyph glyph-name="FL00A2h" unicode="&#xa2;" horiz-adv-x="768" 
d="M64 83h674v43h-699q5 -11 11 -22t14 -21zM168 29h158v-9h224v9h188v38h-659q18 -17 40.5 -27.5t48.5 -10.5zM738 176h-406q-8 0 -12 10h-290v-16q0 -12 3 -24h705v30zM30 398v-1h707v27h-704q-3 -14 -3 -26zM46 459h691v24h-675q-5 -6 -9 -12t-7 -12zM326 -42h224v49
h-224v-49zM30 208h281v37h-281v-37zM737 535h-189v8h-224v-8h-157q-28 0 -56 -13h626v13zM30 271h281v34h-281v-34zM30 334h281v30h-281v-30zM324 585h224v17h-224v-17zM550 -60v8h-224v-8h224z" />
    <glyph glyph-name="FL00A3h" unicode="&#xa3;" horiz-adv-x="717" 
d="M30 20h657v47h-657v-47zM30 83h657v43h-657v-43zM579 211v34h-549v-37h388q9 3 22 3h139zM30 271h549v34h-549v-34zM30 351v-17h549v16h-138q-29 0 -34 14h-275q1 -5 3 -13h-105zM404 186h-274v-16v-12q0 -10 1 -11h-101v-1h657v1h-248q-19 0 -27 10t-8 24v5zM131 397
h277q8 17 32 17h61v10h-367q-3 -15 -3 -27zM145 459h356v24h-345l-6 -12t-5 -12zM186 522h315v21h-287q-13 -8 -28 -21zM687 0v7h-657v-7h657z" />
    <glyph glyph-name="FL00BDh" unicode="&#xa4;" horiz-adv-x="827" 
d="M84 83h656l-36 43h-585zM136 146h551l-33 40h-485zM408 483h-327l20 -24h623l20 24h-329l-3 -4zM32 20h328l39 47h-328zM464 20h328l-39 47h-328zM152 397h520l23 27h-565zM48 522h328l-17 21h-328zM448 522h328l17 21h-328zM326 243v2h-108l-31 -37h167
q-11 5 -19.5 14.5t-8.5 20.5zM478 208h158l-30 37h-100v-2q0 -11 -8.5 -20.5t-19.5 -14.5zM351 364h-172l25 -30h123q5 19 24 30zM504 334h116l25 30h-165q19 -11 24 -30zM248 281l-9 -10h87v34h-98zM506 271h78l-8 10l20 24h-90v-34zM481 0h328l-6 7h-328zM15 0h328l6 7
h-328z" />
    <glyph glyph-name="FL00A5h" unicode="&#xa5;" horiz-adv-x="751" 
d="M662 94v32h-579v-32h151v-11h280v11h148zM662 225v20h-579v-20h151v-17h280v17h148zM372 483h-342v-24h691v24h-315q-7 -10 -10.5 -16.5t-4.5 -6.5q-5 5 -9.5 10.5t-9.5 12.5zM134 397h458q18 12 27 16h102v11h-691v-11h40q5 0 23.5 -2.5t40.5 -13.5zM83 289v-18h579v18
h-148v13v3h-289q2 -4 3.5 -8t3.5 -8h-149zM514 158v28h-280v-28h-151v-12h579v12h-148zM234 20h280v47h-280v-47zM206 334h319q5 8 11 15t14 15h-374q8 -8 15.5 -15t14.5 -15zM314 543h-284v-21h309q-5 5 -11.5 10.5t-13.5 10.5zM438 522h283v21h-258q-7 -5 -13.5 -10.5
t-11.5 -10.5zM514 0v7h-280v-7h280z" />
    <glyph glyph-name="FL00B8h" unicode="&#xa6;" horiz-adv-x="340" 
d="M30 -105h280v53h-280v-53zM30 -42h280v49h-280v-49zM30 20h280v47h-280v-47zM30 83h280v43h-280v-43zM30 146h280v40h-280v-40zM30 208h280v37h-280v-37zM30 271h280v34h-280v-34zM30 334h280v30h-280v-30zM30 397h280v27h-280v-27zM30 459h280v24h-280v-24zM30 522h280
v21h-280v-21zM30 585h280v17h-280v-17zM30 648h280v14h-280v-14zM310 -118v6h-280v-6h280z" />
    <glyph glyph-name="FL00A7h" unicode="&#xa7;" horiz-adv-x="827" 
d="M32 20h328l39 47h-328zM84 83h328l35 43h-328zM136 146h328l33 40h-328zM344 397h328l22 27h-328zM395 459h328l20 24h-328zM448 522h327l18 21h-328zM326 243v2h-109l-30 -37h167q-11 5 -19.5 14.5t-8.5 20.5zM504 334h115l25 30h-164q19 -11 24 -30zM506 271h61l28 34
h-89v-34zM239 271h87v34h-59zM15 0h328l6 7h-328zM478 208h37l30 37h-39v-2q0 -11 -8.5 -20.5t-19.5 -14.5zM351 364h-35l-25 -30h36q5 19 24 30z" />
    <glyph glyph-name="FL00A8h" unicode="&#xa8;" horiz-adv-x="482" 
d="M25 482q0 -14 4 -23h188q2 5 3 11t1 12v1h-196v-1zM457 482v1h-196v-1q0 -14 4 -23h188q2 5 3 11t1 12zM273 522h172q-9 12 -21 21h-131q-13 -10 -20 -21zM37 522h172q-9 12 -21 21h-131q-13 -10 -20 -21zM429 424h-141q29 -24 71 -24q43 0 70 24zM193 424h-141
q29 -24 71 -24q43 0 70 24z" />
    <glyph glyph-name="copyright" unicode="&#xa9;" horiz-adv-x="272" 
d="M185 483h-22q-10 -10 -28 -10t-27 10h-23q9 -18 27 -24h46q17 6 27 24zM195 424h-118q2 -2 4 -2q26 -14 55 -14q-1 0 55 14q2 0 4 2zM241 483h-20q-2 -3 -2.5 -5.5t-2.5 -4.5q-3 -4 -5.5 -7.5t-4.5 -6.5h23q1 1 3 5q2 5 4.5 9.5t4.5 9.5zM42 459h23q-6 6 -9 14
q-4 6 -5 10h-20q3 -10 9 -19q1 -2 1 -3t1 -2zM209 602h-34l6 -3q6 -3 10.5 -6.5t9.5 -7.5h24q-4 5 -7.5 9t-8.5 8zM46 585h25q11 11 24 17h-33q-5 -4 -8.5 -8t-7.5 -9zM78 522h20q0 6 1 11t3 10h-21q-3 -11 -3 -21zM244 543h-20q2 -5 2.5 -10.5t1.5 -10.5h19q0 10 -3 21z
M25 522h19q0 10 3 21h-19q-3 -11 -3 -21zM170 542l4 1h-5v-1h1z" />
    <glyph glyph-name="FL00AAh" unicode="&#xaa;" horiz-adv-x="423" 
d="M30 459h363v24h-363v-24zM377 602h-332q-3 -5 -6 -8.5t-5 -8.5h354q-2 5 -5 8.5t-6 8.5zM245 397h148v27h-148v-27zM30 397h147v27h-147v-27zM245 522h148v21h-148v-21zM177 541v2h-147v-21h147v19zM245 349h148v15h-148v-15zM177 349v15h-147v-15h147z" />
    <glyph glyph-name="FL00ABh" unicode="&#xab;" horiz-adv-x="562" 
d="M545 211l-34 34h-202l37 -37h196zM287 211l-34 34h-202l37 -37h196zM478 279l26 26h-203l-26 -26l8 -8h203zM220 279l26 26h-203l-26 -26l8 -8h203zM545 346l-18 18h-167l-30 -30h203zM287 346l-18 18h-167l-30 -30h203zM408 146h72l40 40h-152zM150 146h72l40 40h-152z
M393 397h101l-27 27h-46zM135 397h101l-27 27h-46zM444 110l16 16h-32zM186 110l16 16h-32z" />
    <glyph glyph-name="FL00ACh" unicode="&#xac;" horiz-adv-x="395" 
d="M30 208h335v37h-335v-37zM30 271h335v34h-335v-34zM222 146h143v40h-143v-40zM365 351h-335v-17h335v17zM365 111v15h-143v-15h143z" />
    <glyph glyph-name="FL00ADh" unicode="&#xad;" horiz-adv-x="355" 
d="M30 208h295v37h-295v-37zM30 271h295v34h-295v-34zM30 351v-17h295v17h-295z" />
    <glyph glyph-name="registered" unicode="&#xae;" horiz-adv-x="272" 
d="M195 424h-118q2 -2 4 -2q26 -14 55 -14q-1 0 55 14q2 0 4 2zM107 524v19h-19v-21h82q9 7 9 21h-20v-1q0 -8 -6 -13t-23 -5h-23zM172 483h-22q1 -2 1.5 -3.5t2.5 -3.5l9 -17h24l-14 22q-1 0 -1 2zM241 483h-20q-2 -3 -2.5 -5.5t-2.5 -4.5q-3 -4 -5.5 -7.5t-4.5 -6.5h23
q1 1 3 5q2 5 4.5 9.5t4.5 9.5zM42 459h23q-6 6 -9 14q-4 6 -5 10h-20q3 -10 9 -19q1 -2 1 -3t1 -2zM209 602h-34l6 -3q6 -3 10.5 -6.5t9.5 -7.5h24q-4 5 -7.5 9t-8.5 8zM46 585h25q11 11 24 17h-33q-5 -4 -8.5 -8t-7.5 -9zM88 459h19v24h-19v-24zM244 543h-20
q2 -5 2.5 -10.5t1.5 -10.5h19q0 10 -3 21zM25 522h19q0 10 3 21h-19q-3 -11 -3 -21z" />
    <glyph glyph-name="FL00B3h" unicode="&#xaf;" horiz-adv-x="589" 
d="M30 459h529v24h-529v-24zM30 522h529v21h-529v-21zM559 413v11h-529v-11h529z" />
    <glyph glyph-name="FL00B1h" unicode="&#xb0;" horiz-adv-x="246" 
d="M185 543h-125q-6 -5 -11.5 -10t-10.5 -11h169q-10 13 -22 21zM123 398q22 0 40 7t32 19h-145q14 -12 32.5 -19t40.5 -7zM221 480v3h-65v-3q0 -8 -6.5 -13.5t-16.5 -7.5h85q3 9 3 21zM88 480v3h-63v-3q0 -12 3 -21h83q-23 5 -23 21z" />
    <glyph glyph-name="FL00B2h" unicode="&#xb1;" horiz-adv-x="395" 
d="M31 20h335v47h-335v-47zM31 83h335v43h-335v-43zM126 276v-5h143v5h96v29h-335v-29h96zM30 334h335v30h-335v-30zM269 419v5h-143v-5h-96v-22h335v22h-96zM126 208h143v37h-143v-37zM126 459h143v24h-143v-24zM366 0v7h-335v-7h335zM269 179v7h-143v-7h143z" />
    <glyph glyph-name="FL00B6h" unicode="&#xb2;" horiz-adv-x="414" 
d="M30 397h354v27h-354v-27zM30 459h313q16 9 28 24h-341v-6v-18zM367 602h-336v-17h347q-2 5 -4.5 9t-6.5 8zM30 349h354v15h-354v-15zM65 522h319v21h-148q1 -2 1 -4v-10h-140q-13 0 -32 -7z" />
    <glyph glyph-name="FL00BCh" unicode="&#xb3;" horiz-adv-x="393" 
d="M362 424h-332v-27h326q4 11 6 27zM351 483h-321v-24h331q-1 10 -10 24zM340 602h-310v-17h321q-2 5 -5 8.5t-6 8.5zM283 349q31 0 49 15h-302v-15h253zM206 528h-176v-6h330q1 5 1.5 10t0.5 10v1h-146q2 -4 2 -6q0 -9 -12 -9z" />
    <glyph glyph-name="FL00B4h" unicode="&#xb4;" horiz-adv-x="827" 
d="M84 83h656l-36 43h-585zM136 146h551l-33 40h-485zM187 208h449l-30 37h-388zM408 483h-327l20 -24h623l20 24h-329l-3 -4zM32 20h328l39 47h-328zM464 20h328l-39 47h-328zM152 397h520l23 27h-565zM204 334h416l25 30h-466zM239 271h345l-8 10l20 24h-368l20 -24z
M48 522h328l-17 21h-328zM448 522h328l17 21h-328zM343 0l6 7h-328l-6 -7h328zM803 7h-328l6 -7h328z" />
    <glyph glyph-name="FL00B5h" unicode="&#xb5;" horiz-adv-x="773" 
d="M82 20h655v47h-692q7 -14 16 -26.5t21 -20.5zM38 83h699v43h-707q1 -12 3 -22.5t5 -20.5zM738 305h-709v-34h692q6 8 10 16.5t7 17.5zM698 245h-669v-37h596q41 6 73 37zM441 350h-112q-5 0 -9 4.5t-7 9.5h-284v-30h713v30h-284q-2 -5 -6 -9.5t-11 -4.5zM737 147h-391
q-20 2 -28 9.5t-8 27.5v2h-281v-40h708v1zM29 397h281v27h-281v-27zM462 397h280v27h-280v-27zM29 459h281v24h-281v-24zM462 459h280v24h-280v-24zM29 522h281v21h-281v-21zM462 522h280v21h-280v-21zM143 0h594v7h-633q17 -7 39 -7z" />
    <glyph glyph-name="FL007Ah" unicode="&#xb6;" horiz-adv-x="963" 
d="M403 83h530v43h-556l9 -16q5 -12 17 -27zM475 20h458v47h-516q25 -28 58 -47zM933 148h-198q-11 0 -23.5 12t-23.5 26h-344l22 -40h567v2zM652 245h-340l20 -37h341q-2 3 -3.5 6l-2.5 5zM515 483h-485v-24h502q-4 5 -8 11t-9 13zM298 271h339l-19 34h-338zM219 397h347
l-15 27h-521v-10h158q7 0 15 -4.5t16 -12.5zM256 349l8 -15h338l-17 30h-338q2 -5 4.5 -8.5t4.5 -6.5zM448 543h-418v-21h447q-8 6 -14.5 11t-14.5 10zM933 0v7h-430q18 -7 40 -7h390z" />
    <glyph glyph-name="FL00B7h" unicode="&#xb7;" horiz-adv-x="295" 
d="M29 295q0 -15 4 -24h227q2 5 3 11t1 13q0 2 -0.5 4.5t-0.5 5.5h-233q-1 -4 -1 -10zM40 334h213q-5 8 -12 16t-16 14h-157q-17 -13 -28 -30zM245 245h-197q11 -13 26 -22.5t34 -14.5h77q19 5 34 14.5t26 22.5z" />
    <glyph glyph-name="FL00BAh" unicode="&#xb8;" horiz-adv-x="195" 
d="M-51 -105h216v53h-216v-53zM165 -157v45h-216v-45h216zM32 -42h133v42h-133v-42z" />
    <glyph glyph-name="FL00BEh" unicode="&#xb9;" horiz-adv-x="256" 
d="M83 397h143v27h-143v-27zM83 459h143v24h-143v-24zM30 585h196v17h-196v-17zM83 522h143v21h-143v-21zM226 348v16h-143v-16h143z" />
    <glyph glyph-name="FL00B0h" unicode="&#xba;" horiz-adv-x="423" 
d="M393 410v14h-363v-14q0 -5 2 -13h359q2 8 2 13zM30 522h363v21h-363v-21zM376 602h-329q-6 -8 -11 -17h351q-2 5 -5 8.5t-6 8.5zM368 364h-313q18 -15 40 -15h233q22 0 40 15zM191 460v23h-161v-24h161v1zM232 459h161v24h-160v-23q0 -1 -1 -1v0z" />
    <glyph glyph-name="FL00BBh" unicode="&#xbb;" horiz-adv-x="562" 
d="M278 208h196l37 37h-203l-33 -34zM20 208h196l37 37h-203l-33 -34zM342 279l-8 -8h203l8 8l-26 26h-203zM84 279l-8 -8h203l8 8l-26 26h-203zM275 346l12 -12h202l-30 30h-166zM17 346l12 -12h202l-30 30h-166zM340 146h72l40 40h-152zM82 146h72l40 40h-152zM326 397
h100l-27 27h-46zM68 397h100l-27 27h-46zM118 110l16 16h-32zM376 110l16 16h-32z" />
    <glyph glyph-name="FL0763h" unicode="&#xbc;" horiz-adv-x="905" 
d="M634 119l5 7h-173l-24 -31v-12h433v36h-60v7h-148v-7h-33zM667 38v-18h148v18h60v29h-433v-29h225zM35 20h284l43 47h-284zM272 281l-9 -10h284l31 34h-416v-24h110zM667 163v-17h148v40h-301l-32 -40h172zM92 83h284l39 43h-284zM149 146h284l37 40h-284zM206 208h284
l33 37h-284zM532 208h283v37h-254zM320 334h284l27 30h-283zM378 397h283l25 27h-284zM434 459h283l22 24h-283zM491 522h283l19 21h-283zM162 334h143v30h-143v-30zM109 522h196v21h-196v-21zM162 397h143v27h-143v-27zM162 479v-20h143v24h-196v-4h53zM17 0h284l6 7h-284z
M815 280h-206q-5 0 -11 -2.5t-11 -6.5h228v9zM815 0v7h-148v-7h148z" />
    <glyph glyph-name="FL0740h" unicode="&#xbd;" horiz-adv-x="908" 
d="M524 20h354v47h-354v-47zM263 271h577q-8 4 -16.5 6.5t-17.5 2.5h-251l22 25h-415v-24h110zM35 20h284l43 47h-284zM867 245h-342v-37h353v1q0 19 -11 36zM92 83h284l39 43h-284zM878 167v19h-147v-6h-140q-17 0 -36 -9t-27 -25h344q6 10 6 21zM149 146h284l36 40h-283z
M857 126h-333v-43h148v18h137q11 0 24 7t24 18zM206 208h283l34 37h-284zM320 334h284l27 30h-283zM378 397h283l24 27h-283zM434 459h283l22 24h-283zM491 522h283l19 21h-283zM162 334h143v30h-143v-30zM109 522h196v21h-196v-21zM162 397h143v27h-143v-27zM162 459h143
v24h-196v-4h53v-20zM878 0v7h-354v-7h354zM301 0l6 7h-284l-6 -7h284z" />
    <glyph glyph-name="FL077Ch" unicode="&#xbe;" horiz-adv-x="942" 
d="M363 364h-150q-2 -1 -6 -1h-177v-29h611l27 30h-284l-27 -30q4 13 6 30zM671 119l5 7h-173l-24 -31v-12h433v36h-60v7h-148v-7h-33zM300 271h284l31 34h-585v-24h253q5 0 12.5 1.5t18.5 3.5zM912 38v29h-433v-29h225v-18h148v18h60zM72 20h284l43 47h-284zM704 146h148
v40h-301l-32 -40h172l13 17v-17zM129 83h284l39 43h-284zM186 146h284l37 40h-284zM243 208h284l33 37h-284zM569 208h283v37h-254zM346 424h-316v-27h329q-3 13 -14 26zM414 397h284l25 27h-284zM471 459h283l22 24h-283zM331 543h-301v-21h318q-6 11 -17 21zM528 522h283
l19 21h-283zM206 460h-176v-1h331q0 4 0.5 7.5t0.5 7.5q0 6 -1 9h-331v-4h177q11 0 11 -10q0 -9 -12 -9zM338 0l6 7h-284l-6 -7h284zM624 271h228v9h-206q-5 0 -11 -2.5t-11 -6.5zM852 0v7h-148v-7h148z" />
    <glyph glyph-name="FL00BFh" unicode="&#xbf;" horiz-adv-x="768" 
d="M98 20h639v47h-686q18 -29 47 -47zM42 83h695v43h-707q3 -24 12 -43zM597 245h-564q-3 -11 -3 -21v-16h472q23 0 49 10t46 27zM630 305h-558q-8 -8 -15 -16.5t-13 -17.5h576q10 17 10 34zM310 177v9h-280v-40h707v1h-406q-10 0 -15.5 11t-5.5 19zM630 347h-470
q-21 0 -47 -13h517v13zM630 469q0 4 -0.5 7t-1.5 7h-232q-1 -5 -1 -14q0 -7 1 -10h233q0 2 0.5 4.5t0.5 5.5zM615 424h-206q12 -16 29 -27h148q16 9 29 27zM737 0v7h-612q18 -7 42 -7h570zM416 522h192q-10 11 -26 21h-140q-16 -10 -26 -21z" />
    <glyph glyph-name="FL00C0h" unicode="&#xc0;" 
d="M476 146h280v40h-726v-40h279v12h167v-12zM30 208h726v37h-726v-37zM309 301v4h-279v-34h726v34h-280v-4h-167zM32 459h721q-2 6 -4.5 12t-5.5 12h-702q-6 -12 -9 -24zM473 397h283v27h-726v-27h281q3 6 8 11.5t12 5.5h124q9 0 12.5 -5.5t5.5 -11.5zM476 20h280v47h-280
v-47zM30 20h279v47h-279v-47zM72 522h641q-11 10 -28 21h-585q-8 -5 -15 -10t-13 -11zM476 83h280v43h-280v-43zM30 83h279v43h-279v-43zM476 334h280v30h-280v-30zM30 334h279v30h-279v-30zM756 0v7h-280v-7h280zM309 0v7h-279v-7h279zM456 721h-147q0 -5 2 -11h153
q-2 3 -8 11zM467 662h-117l12 -14h97q5 6 8 14zM415 777l-4 4h-77l-3 -3q-2 -2 -3 -2.5t-2 -2.5h92z" />
    <glyph glyph-name="FL00C1h" unicode="&#xc1;" 
d="M476 146h280v40h-726v-40h279v12h167v-12zM30 208h726v37h-726v-37zM309 301v4h-279v-34h726v34h-280v-4h-167zM32 459h721q-2 6 -4.5 12t-5.5 12h-702q-6 -12 -9 -24zM473 397h283v27h-726v-27h281q3 6 8 11.5t12 5.5h124q9 0 12.5 -5.5t5.5 -11.5zM476 20h280v47h-280
v-47zM30 20h279v47h-279v-47zM72 522h641q-11 10 -28 21h-585q-8 -5 -15 -10t-13 -11zM476 83h280v43h-280v-43zM30 83h279v43h-279v-43zM476 334h280v30h-280v-30zM30 334h279v30h-279v-30zM756 0v7h-280v-7h280zM309 0v7h-279v-7h279zM477 721h-148q-2 -3 -3.5 -6t-3.5 -5
h152q2 2 2 4q0 3 1 7zM327 648h97l12 14h-117q1 -5 8 -14zM368 773h92l-5 5l-3 3h-78q-1 -1 -1.5 -2t-1.5 -2z" />
    <glyph glyph-name="FL00C2h" unicode="&#xc2;" 
d="M476 146h280v40h-726v-40h279v12h167v-12zM30 208h726v37h-726v-37zM309 301v4h-279v-34h726v34h-280v-4h-167zM32 459h721q-2 6 -4.5 12t-5.5 12h-702q-6 -12 -9 -24zM473 397h283v27h-726v-27h281q3 6 8 11.5t12 5.5h124q9 0 12.5 -5.5t5.5 -11.5zM476 20h280v47h-280
v-47zM30 20h279v47h-279v-47zM72 522h641q-11 10 -28 21h-585q-8 -5 -15 -10t-13 -11zM476 83h280v43h-280v-43zM30 83h279v43h-279v-43zM476 334h280v30h-280v-30zM30 334h279v30h-279v-30zM242 710h302l-8 11h-286zM423 648h168l-10 14h-168zM195 648h168l10 14h-168z
M756 0v7h-280v-7h280zM309 0v7h-279v-7h279zM290 773h206l-6 8h-194z" />
    <glyph glyph-name="FL00C3h" unicode="&#xc3;" 
d="M476 146h280v40h-726v-40h279v12h167v-12zM30 208h726v37h-726v-37zM309 301v4h-279v-34h726v34h-280v-4h-167zM32 459h721q-2 6 -4.5 12t-5.5 12h-702q-6 -12 -9 -24zM473 397h283v27h-726v-27h281q3 6 8 11.5t12 5.5h124q9 0 12.5 -5.5t5.5 -11.5zM476 20h280v47h-280
v-47zM30 20h279v47h-279v-47zM72 522h641q-11 10 -28 21h-585q-8 -5 -15 -10t-13 -11zM476 83h280v43h-280v-43zM30 83h279v43h-279v-43zM476 334h280v30h-280v-30zM30 334h279v30h-279v-30zM208 710h372l8 11h-372zM161 648h167l10 14h-167zM388 648h145l10 14h-165zM756 0
v7h-280v-7h280zM309 0v7h-279v-7h279zM460 773h168l6 8h-168zM256 773h140l-6 8h-128z" />
    <glyph glyph-name="FL00C4h" unicode="&#xc4;" 
d="M476 146h280v40h-726v-40h279v12h167v-12zM30 208h726v37h-726v-37zM309 301v4h-279v-34h726v34h-280v-4h-167zM32 459h721q-2 6 -4.5 12t-5.5 12h-702q-6 -12 -9 -24zM473 397h283v27h-726v-27h281q3 6 8 11.5t12 5.5h124q9 0 12.5 -5.5t5.5 -11.5zM476 20h280v47h-280
v-47zM30 20h279v47h-279v-47zM72 522h641q-11 10 -28 21h-585q-8 -5 -15 -10t-13 -11zM476 83h280v43h-280v-43zM30 83h279v43h-279v-43zM476 334h280v30h-280v-30zM30 334h279v30h-279v-30zM413 710h196q0 3 -0.5 5.5t-0.5 5.5h-194q-1 -4 -1 -11zM177 710h196
q0 3 -0.5 5.5t-0.5 5.5h-194q-1 -4 -1 -11zM592 662h-162q3 -4 6 -7.5t8 -6.5h134q8 6 14 14zM356 662h-162q3 -4 6 -7.5t8 -6.5h134q8 6 14 14zM756 0v7h-280v-7h280zM309 0v7h-279v-7h279zM450 773h121q-7 5 -14 8h-92q-5 -2 -8.5 -4t-6.5 -4zM214 773h121q-7 5 -14 8h-92
q-5 -2 -8.5 -4t-6.5 -4z" />
    <glyph glyph-name="FL00C5h" unicode="&#xc5;" 
d="M476 146h280v40h-726v-40h279v12h167v-12zM30 208h726v37h-726v-37zM309 301v4h-279v-34h726v34h-280v-4h-167zM32 459h721q-2 6 -4.5 12t-5.5 12h-702q-6 -12 -9 -24zM473 397h283v27h-726v-27h281q3 6 8 11.5t12 5.5h124q9 0 12.5 -5.5t5.5 -11.5zM476 20h280v47h-280
v-47zM30 20h279v47h-279v-47zM72 522h641q-11 10 -28 21h-585q-8 -5 -15 -10t-13 -11zM476 83h280v43h-280v-43zM30 83h279v43h-279v-43zM476 334h280v30h-280v-30zM30 334h279v30h-279v-30zM475 662h-162q3 -4 6 -7.5t8 -6.5h134q8 6 14 14zM756 0v7h-280v-7h280zM309 0v7
h-279v-7h279zM333 773h121q-7 5 -14 8h-92q-5 -2 -8 -4t-7 -4zM427 710h65q0 3 -0.5 5.5t-0.5 5.5h-70q4 -3 6 -11zM364 721h-67q-1 -4 -1 -11h63q0 6 5 11z" />
    <glyph glyph-name="FL00C6h" unicode="&#xc6;" horiz-adv-x="1375" 
d="M1345 208v37h-1315v-37h1315zM309 301v4h-279v-34h1315v34h-869v-4h-167zM756 28q4 -4 10 -8h579v47h-869v-47h280v8zM476 83h869v43h-869v-43zM1345 147h-342q-2 0 -10 8.5t-11 14.5q0 1 -0.5 3t-0.5 4t0.5 4t0.5 3v0q0 1 1 2h-953v-40h279v12h167v-12h869v1zM32 459
h1313v24h-1304q-6 -12 -9 -24zM1003 414h342v10h-1315v-27h281q3 6 8 11.5t12 5.5h124q9 0 12.5 -5.5t5.5 -11.5h511q3 7 8 12t11 5zM1345 351h-335q-16 0 -24 13h-510v-30h869v17zM30 20h279v47h-279v-47zM685 543h-585q-8 -5 -15 -10t-13 -11h641q-15 13 -28 21zM748 522
h597v21h-570q-15 -9 -27 -21zM30 83h279v43h-279v-43zM30 334h279v30h-279v-30zM832 0h513v7h-554q18 -7 41 -7zM756 0v7h-280v-7h280zM309 0v7h-279v-7h279z" />
    <glyph glyph-name="FL00C7h" unicode="&#xc7;" horiz-adv-x="703" 
d="M96 20h571v47h-620q9 -14 22 -26t27 -21zM39 83h628v43h-637v-3q0 -21 9 -40zM37 459h636v24h-626q-3 -6 -5.5 -12t-4.5 -12zM76 522h597v21h-569q-13 -8 -28 -21zM310 170v16h-280v-40h637v1h-336q-8 0 -14 6.5t-7 16.5zM254 -105h216v53h-216v-53zM30 397h282
q3 7 7.5 12t11.5 5h342v10h-643v-6v-21zM30 208h280v37h-280v-37zM470 -157v45h-216v-45h216zM30 271h280v34h-280v-34zM337 -42h133v42h197v7h-545q18 -7 38 -7h177v-42zM30 334h280v30h-280v-30z" />
    <glyph glyph-name="FL00C8h" unicode="&#xc8;" horiz-adv-x="703" 
d="M96 20h577v47h-626q9 -14 22 -26t27 -21zM39 83h634v43h-643v-3q0 -21 9 -40zM673 208v37h-643v-37h643zM30 271h643v34h-643v-34zM37 459h636v24h-626q-3 -6 -5.5 -12t-4.5 -12zM314 364h-284v-30h643v17h-335q-16 0 -24 13zM76 522h597v21h-569q-13 -8 -28 -21z
M311 186h-281v-40h643v1h-342q-2 0 -10 8.5t-11 14.5q0 1 -0.5 3t-0.5 4t0.5 4t0.5 3v0q0 1 1 2zM673 414v10h-643v-6v-21h282q3 7 8 12t11 5h342zM673 0v7h-551q18 -7 38 -7h513zM413 721h-147q0 -5 2 -11h153q-2 3 -8 11zM424 662h-117l12 -14h97q5 6 8 14zM372 777l-4 4
h-77l-3 -3q-2 -2 -3 -2.5t-2 -2.5h92z" />
    <glyph glyph-name="FL00C9h" unicode="&#xc9;" horiz-adv-x="703" 
d="M96 20h577v47h-626q9 -14 22 -26t27 -21zM39 83h634v43h-643v-3q0 -21 9 -40zM331 208h342v37h-643v-37h300h1zM30 271h643v34h-643v-34zM37 459h636v24h-626q-3 -6 -5.5 -12t-4.5 -12zM314 364h-284v-30h643v17h-335q-16 0 -24 13zM76 522h597v21h-569q-13 -8 -28 -21z
M311 186h-281v-40h643v1h-342q-2 0 -10 8.5t-11 14.5q0 1 -0.5 3t-0.5 4t0.5 4t0.5 3v0q0 1 1 2zM673 414v10h-643v-6v-21h282q3 7 8 12t11 5h342zM673 0v7h-551q18 -7 38 -7h513zM469 721h-148q-2 -3 -3.5 -6t-3.5 -5h152q2 2 2 4q0 3 1 7zM319 648h97l12 14h-117
q1 -5 8 -14zM360 773h92l-5 5l-3 3h-78q-1 -1 -1.5 -2t-1.5 -2z" />
    <glyph glyph-name="FL00CAh" unicode="&#xca;" horiz-adv-x="703" 
d="M96 20h577v47h-626q9 -14 22 -26t27 -21zM39 83h634v43h-643v-3q0 -21 9 -40zM673 208v37h-643v-37h643zM30 271h643v34h-643v-34zM37 459h636v24h-626q-3 -6 -5.5 -12t-4.5 -12zM314 364h-284v-30h643v17h-335q-16 0 -24 13zM76 522h597v21h-569q-13 -8 -28 -21z
M311 186h-281v-40h643v1h-342q-2 0 -10 8.5t-11 14.5q0 1 -0.5 3t-0.5 4t0.5 4t0.5 3v0q0 1 1 2zM673 414v10h-643v-6v-21h282q3 7 8 12t11 5h342zM673 0v7h-551q18 -7 38 -7h513zM204 710h302l-8 11h-286zM385 648h168l-10 14h-168zM157 648h168l10 14h-168zM252 773h206
l-6 8h-194z" />
    <glyph glyph-name="FL00CBh" unicode="&#xcb;" horiz-adv-x="703" 
d="M96 20h577v47h-626q9 -14 22 -26t27 -21zM39 83h634v43h-643v-3q0 -21 9 -40zM673 208v37h-643v-37h643zM30 271h643v34h-643v-34zM37 459h636v24h-626q-3 -6 -5.5 -12t-4.5 -12zM314 364h-284v-30h643v17h-335q-16 0 -24 13zM76 522h597v21h-569q-13 -8 -28 -21z
M311 186h-281v-40h643v1h-342q-2 0 -10 8.5t-11 14.5q0 1 -0.5 3t-0.5 4t0.5 4t0.5 3v0q0 1 1 2zM673 414v10h-643v-6v-21h282q3 7 8 12t11 5h342zM673 0v7h-551q18 -7 38 -7h513zM139 710h196q0 3 -0.5 5.5t-0.5 5.5h-194q-1 -4 -1 -11zM375 710h196q0 3 -0.5 5.5t-0.5 5.5
h-194q-1 -4 -1 -11zM554 662h-162q3 -4 6 -7.5t8 -6.5h134q8 6 14 14zM318 662h-162q3 -4 6 -7.5t8 -6.5h134q8 6 14 14zM176 773h121q-7 5 -14 8h-92q-5 -2 -8.5 -4t-6.5 -4zM412 773h121q-7 5 -14 8h-92q-5 -2 -8.5 -4t-6.5 -4z" />
    <glyph glyph-name="FL00CCh" unicode="&#xcc;" horiz-adv-x="724" 
d="M31 20h663v47h-663v-47zM31 83h663v43h-663v-43zM30 459h663v24h-663v-24zM30 522h663v21h-663v-21zM694 147h-191v39h-280v-39h-192v-1h663v1zM503 414h190v10h-663v-10h193v-17h280v17zM223 208h280v37h-280v-37zM223 271h280v34h-280v-34zM223 334h280v30h-280v-30z
M694 0v7h-663v-7h663zM424 721h-147q0 -5 2 -11h153q-2 3 -8 11zM435 662h-117l12 -14h97q5 6 8 14zM383 777l-4 4h-77l-3 -3q-2 -2 -3 -2.5t-2 -2.5h92z" />
    <glyph glyph-name="FL00CDh" unicode="&#xcd;" horiz-adv-x="724" 
d="M30 20h663v47h-663v-47zM30 83h663v43h-663v-43zM31 459h663v24h-663v-24zM31 522h663v21h-663v-21zM30 147v-1h663v1h-192v39h-280v-39h-191zM501 414h193v10h-663v-10h190v-17h280v17zM221 208h280v37h-280v-37zM221 271h280v34h-280v-34zM221 334h280v30h-280v-30z
M693 0v7h-663v-7h663zM447 721h-148q-2 -3 -3.5 -6t-3.5 -5h152q2 2 2 4q0 3 1 7zM297 648h97l12 14h-117q1 -5 8 -14zM338 773h92l-5 5l-3 3h-78q-1 -1 -1.5 -2t-1.5 -2z" />
    <glyph glyph-name="FL00CEh" unicode="&#xce;" horiz-adv-x="724" 
d="M30 20h663v47h-663v-47zM30 83h663v43h-663v-43zM31 459h663v24h-663v-24zM31 522h663v21h-663v-21zM30 147v-1h663v1h-192v39h-280v-39h-191zM501 414h193v10h-663v-10h190v-17h280v17zM221 208h280v37h-280v-37zM221 271h280v34h-280v-34zM221 334h280v30h-280v-30z
M693 0v7h-663v-7h663zM207 710h302l-8 11h-286zM388 648h168l-10 14h-168zM160 648h168l10 14h-168zM255 773h206l-6 8h-194z" />
    <glyph glyph-name="FL00CFh" unicode="&#xcf;" horiz-adv-x="724" 
d="M30 20h663v47h-663v-47zM30 83h663v43h-663v-43zM31 459h663v24h-663v-24zM31 522h663v21h-663v-21zM30 147v-1h663v1h-192v39h-280v-39h-191zM501 414h193v10h-663v-10h190v-17h280v17zM221 208h280v37h-280v-37zM221 271h280v34h-280v-34zM221 334h280v30h-280v-30z
M693 0v7h-663v-7h663zM377 710h196q0 3 -0.5 5.5t-0.5 5.5h-194q-1 -4 -1 -11zM141 710h196q0 3 -0.5 5.5t-0.5 5.5h-194q-1 -4 -1 -11zM320 662h-162q3 -4 6 -7.5t8 -6.5h134q8 6 14 14zM556 662h-162q3 -4 6 -7.5t8 -6.5h134q8 6 14 14zM414 773h121q-7 5 -14 8h-92
q-5 -2 -8.5 -4t-6.5 -4zM178 773h121q-7 5 -14 8h-92q-5 -2 -8.5 -4t-6.5 -4z" />
    <glyph glyph-name="FL00D0h" unicode="&#xd0;" horiz-adv-x="840" 
d="M799 67h-708v-47h671q22 18 37 47zM810 110v16h-719v-43h714q5 15 5 27zM474 150h-103v36h-280v-40h719v40h-286q-5 -16 -16.5 -26t-33.5 -10zM371 403h117q5 0 10 -2t9 -4h303v27h-719v-27h280v6zM796 483h-705v-24h714q-3 12 -9 24zM426 208v37h-396v-37h396zM748 543
h-657v-21h679q-11 13 -22 21zM30 271h396v34h-396v-34zM528 208h282v37h-280v-19q0 -9 -2 -18zM91 351h-61v-17h396v17h-55v13h-280v-13zM530 271h280v34h-280v-34zM529 334h281v30h-285q4 -13 4 -30zM713 0q15 0 28 7h-650v-7h622z" />
    <glyph glyph-name="FL00D1h" unicode="&#xd1;" 
d="M744 483h-714v-24h723q-3 12 -9 24zM309 414h146q9 0 12.5 -5.5t5.5 -11.5h283v27h-726v-27h279v17zM686 543h-656v-21h683q-12 12 -27 21zM476 20h280v47h-280v-47zM30 20h279v47h-279v-47zM476 83h280v43h-280v-43zM30 83h279v43h-279v-43zM476 146h280v40h-280v-40z
M30 146h279v40h-279v-40zM476 208h280v37h-280v-37zM30 208h279v37h-279v-37zM476 271h280v34h-280v-34zM30 271h279v34h-279v-34zM476 334h280v30h-280v-30zM30 334h279v30h-279v-30zM208 710h372l8 11h-372zM161 648h167l10 14h-167zM388 648h145l10 14h-165zM756 0v7
h-280v-7h280zM309 0v7h-279v-7h279zM460 773h168l6 8h-168zM256 773h140l-6 8h-128z" />
    <glyph glyph-name="FL00D2h" unicode="&#xd2;" 
d="M756 123v3h-726v-3q0 -21 9 -40h708q4 10 6.5 19.5t2.5 20.5zM738 67h-691q9 -14 22 -26t27 -21h594q30 19 48 47zM309 170v16h-279v-40h726v40h-279v-16q-3 -6 -9.5 -14.5t-12.5 -8.5h-124q-13 0 -17 9t-5 14zM756 424h-726v-6v-21h282q5 14 17 17h126q7 0 11.5 -5
t7.5 -12h282v21v6zM738 483h-691q-3 -6 -5.5 -12t-4.5 -12h712q-2 6 -5 12zM682 543h-578q-13 -8 -28 -21h633q-12 12 -27 21zM30 208h279v37h-279v-37zM477 208h279v37h-279v-37zM30 271h279v34h-279v-34zM477 271h279v34h-279v-34zM30 334h279v30h-279v-30zM477 334h279
v30h-279v-30zM664 7h-542q18 -7 38 -7h466q20 0 38 7zM456 721h-147q0 -5 2 -11h153q-2 3 -8 11zM467 662h-117l12 -14h97q5 6 8 14zM415 777l-4 4h-77l-3 -3q-2 -2 -3 -2.5t-2 -2.5h92z" />
    <glyph glyph-name="FL00D3h" unicode="&#xd3;" 
d="M756 123v3h-726v-3q0 -21 9 -40h708q4 10 6.5 19.5t2.5 20.5zM738 67h-691q9 -14 22 -26t27 -21h594q30 19 48 47zM309 170v16h-279v-40h726v40h-279v-16q-3 -6 -9.5 -14.5t-12.5 -8.5h-124q-13 0 -17 9t-5 14zM756 424h-726v-6v-21h282q5 14 17 17h126q7 0 11.5 -5
t7.5 -12h282v21v6zM738 483h-691q-3 -6 -5.5 -12t-4.5 -12h712q-2 6 -5 12zM682 543h-578q-13 -8 -28 -21h633q-12 12 -27 21zM30 208h279v37h-279v-37zM477 208h279v37h-279v-37zM30 271h279v34h-279v-34zM477 271h279v34h-279v-34zM477 334h279v30h-279v-30zM30 334h279
v30h-279v-30zM664 7h-542q18 -7 38 -7h466q20 0 38 7zM477 721h-148q-2 -3 -3.5 -6t-3.5 -5h152q2 2 2 4q0 3 1 7zM327 648h97l12 14h-117q1 -5 8 -14zM368 773h92l-5 5l-3 3h-78q-1 -1 -1.5 -2t-1.5 -2z" />
    <glyph glyph-name="FL00D4h" unicode="&#xd4;" 
d="M756 123v3h-726v-3q0 -21 9 -40h708q4 10 6.5 19.5t2.5 20.5zM738 67h-691q9 -14 22 -26t27 -21h594q30 19 48 47zM309 170v16h-279v-40h726v40h-279v-16q-3 -6 -9.5 -14.5t-12.5 -8.5h-124q-13 0 -17 9t-5 14zM756 424h-726v-6v-21h282q5 14 17 17h126q7 0 11.5 -5
t7.5 -12h282v21v6zM738 483h-691q-3 -6 -5.5 -12t-4.5 -12h712q-2 6 -5 12zM682 543h-578q-13 -8 -28 -21h633q-12 12 -27 21zM30 208h279v37h-279v-37zM477 208h279v37h-279v-37zM30 271h279v34h-279v-34zM477 271h279v34h-279v-34zM30 334h279v30h-279v-30zM477 334h279
v30h-279v-30zM664 7h-542q18 -7 38 -7h466q20 0 38 7zM242 710h302l-8 11h-286zM423 648h168l-10 14h-168zM195 648h168l10 14h-168zM290 773h206l-6 8h-194z" />
    <glyph glyph-name="FL00D5h" unicode="&#xd5;" 
d="M39 83h708q4 10 6.5 19.5t2.5 20.5v3h-726v-3q0 -21 9 -40zM96 20h594q30 19 48 47h-691q9 -14 22 -26t27 -21zM309 170v16h-279v-40h726v40h-279v-16q-3 -6 -9.5 -14.5t-12.5 -8.5h-124q-13 0 -17 9t-5 14zM329 414h126q7 0 11.5 -5t7.5 -12h282v21v6h-726v-6v-21h282
q5 14 17 17zM37 459h712q-2 6 -5 12l-6 12h-691q-3 -6 -5.5 -12t-4.5 -12zM76 522h633q-12 12 -27 21h-578q-13 -8 -28 -21zM30 208h279v37h-279v-37zM477 208h279v37h-279v-37zM30 271h279v34h-279v-34zM477 271h279v34h-279v-34zM30 334h279v30h-279v-30zM477 334h279v30
h-279v-30zM208 710h372l8 11h-372zM160 0h466q20 0 38 7h-542q18 -7 38 -7zM161 648h167l10 14h-167zM388 648h145l10 14h-165zM460 773h168l6 8h-168zM256 773h140l-6 8h-128z" />
    <glyph glyph-name="FL00D6h" unicode="&#xd6;" 
d="M756 123v3h-726v-3q0 -21 9 -40h708q4 10 6.5 19.5t2.5 20.5zM738 67h-691q9 -14 22 -26t27 -21h594q30 19 48 47zM309 170v16h-279v-40h726v40h-279v-16q-3 -6 -9.5 -14.5t-12.5 -8.5h-124q-13 0 -17 9t-5 14zM756 424h-726v-6v-21h282q5 14 17 17h126q7 0 11.5 -5
t7.5 -12h282v21v6zM738 483h-691q-3 -6 -5.5 -12t-4.5 -12h712q-2 6 -5 12zM682 543h-578q-13 -8 -28 -21h633q-12 12 -27 21zM30 208h279v37h-279v-37zM477 208h279v37h-279v-37zM30 271h279v34h-279v-34zM477 271h279v34h-279v-34zM30 334h279v30h-279v-30zM477 334h279
v30h-279v-30zM664 7h-542q18 -7 38 -7h466q20 0 38 7zM177 710h196q0 3 -0.5 5.5t-0.5 5.5h-194q-1 -4 -1 -11zM413 710h196q0 3 -0.5 5.5t-0.5 5.5h-194q-1 -4 -1 -11zM592 662h-162q3 -4 6 -7.5t8 -6.5h134q8 6 14 14zM356 662h-162q3 -4 6 -7.5t8 -6.5h134q8 6 14 14z
M214 773h121q-7 5 -14 8h-92q-5 -2 -8.5 -4t-6.5 -4zM450 773h121q-7 5 -14 8h-92q-5 -2 -8.5 -4t-6.5 -4z" />
    <glyph glyph-name="FL00D7h" unicode="&#xd7;" horiz-adv-x="398" 
d="M368 211l-34 34h-270l-34 -35l2 -2h333zM368 346l-18 18h-303l-17 -17l13 -13h313zM199 178l32 -32h72l40 40h-289l40 -40h73zM301 279l26 26h-255l26 -26l-8 -8h219zM80 397h102l-27 27h-47zM216 397h101l-27 27h-46zM131 109l17 17h-34zM267 110l16 16h-32z" />
    <glyph glyph-name="FL00D8h" unicode="&#xd8;" 
d="M756 123v3h-726v-3q0 -21 9 -40h708q4 10 6.5 19.5t2.5 20.5zM738 67h-691q9 -14 22 -26t27 -21h594q30 19 48 47zM353 147l41 39h-364v-40h726v40h-279v-16q-3 -6 -9.5 -14.5t-12.5 -8.5h-102zM30 271h726v34h-438l-9 -9v9h-279v-34zM428 414l-17 -17h345v21v6h-726v-6
v-21h282q5 14 17 17h99zM738 483h-691q-3 -6 -5.5 -12t-4.5 -12h712q-2 6 -5 12zM30 208h388l39 37h-427v-37zM682 543h-578q-13 -8 -28 -21h633q-12 12 -27 21zM347 334h409v30h-379zM477 208h279v37h-279v-37zM30 334h279v30h-279v-30zM664 7h-542q18 -7 38 -7h466
q20 0 38 7z" />
    <glyph glyph-name="FL00D9h" unicode="&#xd9;" 
d="M97 20h659v47h-708q9 -14 22 -26t27 -21zM39 83h717v43h-726v-3q0 -21 9 -40zM310 170v16h-280v-40h726v40h-279v-39h-146q-11 0 -14.5 8.5t-6.5 14.5zM30 208h280v37h-280v-37zM477 208h279v37h-279v-37zM30 271h280v34h-280v-34zM477 271h279v34h-279v-34zM30 334h280
v30h-280v-30zM477 334h279v30h-279v-30zM30 397h280v27h-280v-27zM477 397h279v27h-279v-27zM30 459h280v24h-280v-24zM477 459h279v24h-279v-24zM30 522h280v21h-280v-21zM477 522h279v21h-279v-21zM160 0h596v7h-633q17 -7 37 -7zM311 710h153q-2 3 -8 11h-147q0 -5 2 -11
zM467 662h-117l12 -14h97q5 6 8 14zM411 781h-77l-3 -3q-2 -2 -3 -2.5t-2 -2.5h92l-3 4z" />
    <glyph glyph-name="FL00DAh" unicode="&#xda;" 
d="M97 20h659v47h-708q9 -14 22 -26t27 -21zM39 83h717v43h-726v-3q0 -21 9 -40zM310 170v16h-280v-40h726v40h-279v-39h-146q-11 0 -14.5 8.5t-6.5 14.5zM30 208h280v37h-280v-37zM477 208h279v37h-279v-37zM30 271h280v34h-280v-34zM477 271h279v34h-279v-34zM30 334h280
v30h-280v-30zM477 334h279v30h-279v-30zM30 397h280v27h-280v-27zM477 397h279v27h-279v-27zM30 459h280v24h-280v-24zM477 459h279v24h-279v-24zM30 522h280v21h-280v-21zM477 522h279v21h-279v-21zM160 0h596v7h-633q17 -7 37 -7zM322 710h152q2 2 2 4q0 3 1 7h-148
q-2 -3 -3.5 -6t-3.5 -5zM327 648h97l12 14h-117q1 -5 8 -14zM371 777l-3 -4h92l-5 5l-3 3h-78q-1 -1 -1.5 -2t-1.5 -2z" />
    <glyph glyph-name="FL00DBh" unicode="&#xdb;" 
d="M97 20h659v47h-708q9 -14 22 -26t27 -21zM39 83h717v43h-726v-3q0 -21 9 -40zM310 170v16h-280v-40h726v40h-279v-39h-146q-11 0 -14.5 8.5t-6.5 14.5zM30 208h280v37h-280v-37zM477 208h279v37h-279v-37zM30 271h280v34h-280v-34zM477 271h279v34h-279v-34zM30 334h280
v30h-280v-30zM477 334h279v30h-279v-30zM30 397h280v27h-280v-27zM477 397h279v27h-279v-27zM30 459h280v24h-280v-24zM477 459h279v24h-279v-24zM30 522h280v21h-280v-21zM477 522h279v21h-279v-21zM160 0h596v7h-633q17 -7 37 -7zM242 710h302l-8 11h-286zM423 648h168
l-10 14h-168zM195 648h168l10 14h-168zM290 773h206l-6 8h-194z" />
    <glyph glyph-name="FL00DCh" unicode="&#xdc;" 
d="M97 20h659v47h-708q9 -14 22 -26t27 -21zM39 83h717v43h-726v-3q0 -21 9 -40zM310 170v16h-280v-40h726v40h-279v-39h-146q-11 0 -14.5 8.5t-6.5 14.5zM30 208h280v37h-280v-37zM477 208h279v37h-279v-37zM30 271h280v34h-280v-34zM477 271h279v34h-279v-34zM30 334h280
v30h-280v-30zM477 334h279v30h-279v-30zM30 397h280v27h-280v-27zM477 397h279v27h-279v-27zM30 459h280v24h-280v-24zM477 459h279v24h-279v-24zM30 522h280v21h-280v-21zM477 522h279v21h-279v-21zM160 0h596v7h-633q17 -7 37 -7zM608 721h-194q-1 -4 -1 -11h196
q0 3 -0.5 5.5t-0.5 5.5zM372 721h-194q-1 -4 -1 -11h196q0 3 -0.5 5.5t-0.5 5.5zM444 648h134q8 6 14 14h-162q3 -4 6 -7.5t8 -6.5zM208 648h134q8 6 14 14h-162q3 -4 6 -7.5t8 -6.5zM321 781h-92q-5 -2 -8.5 -4t-6.5 -4h121q-7 5 -14 8zM557 781h-92q-5 -2 -8.5 -4t-6.5 -4
h121q-7 5 -14 8z" />
    <glyph glyph-name="FL00DDh" unicode="&#xdd;" horiz-adv-x="773" 
d="M727 67h-692v-47h655q23 17 37 47zM742 126h-707v-43h698q4 10 5.5 20.5t3.5 22.5zM50 271h693v34h-709q4 -17 16 -34zM146 208h597v37h-670q16 -15 35 -24.5t38 -12.5zM443 350h-112q-8 0 -11.5 4.5t-5.5 9.5h-284v-30h713v30h-285q-3 -5 -7 -9.5t-8 -4.5zM426 147h-391
v-1h708v40h-281v-2q0 -20 -8 -27.5t-28 -9.5zM462 397h281v27h-281v-27zM30 397h280v27h-280v-27zM462 459h281v24h-281v-24zM30 459h280v24h-280v-24zM462 522h281v21h-281v-21zM30 522h280v21h-280v-21zM629 0q23 0 38 7h-632v-7h594zM310 710h152q2 2 2 4q0 3 1 7h-148
q-2 -3 -3.5 -6t-3.5 -5zM315 648h97l12 14h-117q1 -5 8 -14zM359 777l-3 -4h92l-5 5l-3 3h-78q-1 -1 -1.5 -2t-1.5 -2z" />
    <glyph glyph-name="FL00DEh" unicode="&#xde;" 
d="M740 186h-710v-40h691q6 9 10.5 19t8.5 21zM707 126h-677v-43h600q47 7 77 43zM753 245h-284q-12 -17 -28 -17h-131v17h-280v-37h716l4 18t3 19zM447 338q5 0 13 -4h292q-2 8 -4 15t-4 15h-714v-30h280v4h137zM717 424h-687v-27h702q-4 7 -7 13.5t-8 13.5zM629 483h-599
v-24h654q-12 8 -25.5 14.5t-29.5 9.5zM30 20h280v47h-280v-47zM30 271h280v34h-280v-34zM755 305h-277q2 -6 3 -11.5t1 -9.5q0 -5 -2 -13h275q1 5 1 9v10q0 10 -1 15zM30 522h280v21h-280v-21zM310 0v7h-280v-7h280z" />
    <glyph glyph-name="FL00DFh" unicode="&#xdf;" horiz-adv-x="725" 
d="M416 397h278q-1 7 -1.5 13t-2.5 14h-660v-27h280v17h75q24 0 31 -17zM668 483h-638v-24h650q-3 6 -5.5 12t-6.5 12zM30 -105h280v53h-280v-53zM691 126h-334v-43h320q5 11 8.5 21.5t5.5 21.5zM668 67h-311v-47h265q29 17 46 47zM30 -42h280v49h-280v-49zM30 20h280v47
h-280v-47zM610 543h-580v-21h608q-11 10 -28 21zM682 245h-325v-34h28q13 0 21 -3h286q-3 21 -10 37zM30 83h280v43h-280v-43zM694 186h-273v-5q0 -14 -8 -24t-27 -10h-29v-1h337q1 6 1 12v12v7q0 4 -1 9zM30 146h280v40h-280v-40zM672 305h-315v-34h310q-3 4 -6 7l-7 7
q10 7 18 20zM30 208h280v37h-280v-37zM30 271h280v34h-280v-34zM384 350h-27v-16h328q2 7 3.5 14.5t3.5 15.5h-275q-5 -14 -33 -14zM30 334h280v30h-280v-30zM310 -138v26h-280v-26h280zM593 7h-236v-7h187q28 0 49 7z" />
    <glyph glyph-name="FL00E0h" unicode="&#xe0;" horiz-adv-x="924" 
d="M615 334h279v30h-597l-23 -30h317q3 5 5 6.5t7 1.5q3 -2 7.5 -4t4.5 -3v-1zM33 20h327l35 47h-326zM322 397h572v27h-551zM81 83h326l31 43h-324zM615 20h279v47h-279v-47zM130 146h323l29 40h-322zM370 459h524v24h-506zM615 83h279v43h-279v-43zM177 208h321l28 37
h-320zM615 146h279v40h-279v-40zM226 271h319l25 34h-318zM615 208h279v37h-279v-37zM419 522h475v21h-452q-6 -5 -12 -10.5t-11 -10.5zM615 271h279v34h-279v-34zM17 -1h328l6 8h-328zM894 0v7h-279v-7h279zM697 721h-147q0 -5 2 -11h153q-2 3 -8 11zM708 662h-117l12 -14
h97q5 6 8 14zM656 777l-4 4h-77l-3 -3q-2 -2 -3 -2.5t-2 -2.5h92z" />
    <glyph glyph-name="FL00E1h" unicode="&#xe1;" horiz-adv-x="924" 
d="M615 334h279v30h-597l-23 -30h317q3 5 5 6.5t7 1.5q3 -2 7.5 -4t4.5 -3v-1zM33 20h327l35 47h-326zM322 397h572v27h-551zM81 83h326l31 43h-324zM615 20h279v47h-279v-47zM130 146h323l29 40h-322zM370 459h524v24h-506zM615 83h279v43h-279v-43zM177 208h321l28 37
h-320zM615 146h279v40h-279v-40zM226 271h319l25 34h-318zM615 208h279v37h-279v-37zM419 522h475v21h-452q-6 -5 -12 -10.5t-11 -10.5zM615 271h279v34h-279v-34zM17 -1h328l6 8h-328zM894 0v7h-279v-7h279zM739 721h-148q-2 -3 -3.5 -6t-3.5 -5h152q2 2 2 4q0 3 1 7z
M589 648h97l12 14h-117q1 -5 8 -14zM630 773h92l-5 5l-3 3h-78q-1 -1 -1.5 -2t-1.5 -2z" />
    <glyph glyph-name="FL00E2h" unicode="&#xe2;" horiz-adv-x="924" 
d="M615 334h279v30h-597l-23 -30h317q3 5 5 6.5t7 1.5q3 -2 7.5 -4t4.5 -3v-1zM33 20h327l35 47h-326zM322 397h572v27h-551zM81 83h326l31 43h-324zM615 20h279v47h-279v-47zM130 146h323l29 40h-322zM370 459h524v24h-506zM615 83h279v43h-279v-43zM177 208h321l28 37
h-320zM615 146h279v40h-279v-40zM226 271h319l25 34h-318zM615 208h279v37h-279v-37zM419 522h475v21h-452q-6 -5 -12 -10.5t-11 -10.5zM615 271h279v34h-279v-34zM497 710h302l-8 11h-286zM17 -1h328l6 8h-328zM678 648h168l-10 14h-168zM450 648h168l10 14h-168zM894 0v7
h-279v-7h279zM545 773h206l-6 8h-194z" />
    <glyph glyph-name="FL00E3h" unicode="&#xe3;" horiz-adv-x="924" 
d="M603 342q3 -2 7.5 -4t4.5 -3v-1h279v30h-597l-23 -30h317q3 5 5 6.5t7 1.5zM33 20h327l35 47h-326zM322 397h572v27h-551zM81 83h326l31 43h-324zM615 20h279v47h-279v-47zM130 146h323l29 40h-322zM370 459h524v24h-506zM615 83h279v43h-279v-43zM177 208h321l28 37
h-320zM615 146h279v40h-279v-40zM226 271h319l25 34h-318zM615 208h279v37h-279v-37zM419 522h475v21h-452q-15 -12 -23 -21zM615 271h279v34h-279v-34zM433 710h372l8 11h-372zM345 -1l6 8h-328l-6 -8h328zM386 648h167l10 14h-167zM613 648h145l10 14h-165zM894 0v7h-279
v-7h279zM685 773h168l6 8h-168zM481 773h140l-6 8h-128z" />
    <glyph glyph-name="FL00E4h" unicode="&#xe4;" horiz-adv-x="924" 
d="M615 334h279v30h-597l-23 -30h317q3 5 5 6.5t7 1.5q3 -2 7.5 -4t4.5 -3v-1zM33 20h327l35 47h-326zM322 397h572v27h-551zM81 83h326l31 43h-324zM615 20h279v47h-279v-47zM130 146h323l29 40h-322zM370 459h524v24h-506zM615 83h279v43h-279v-43zM177 208h321l28 37
h-320zM615 146h279v40h-279v-40zM226 271h319l25 34h-318zM615 208h279v37h-279v-37zM419 522h475v21h-452q-6 -5 -12 -10.5t-11 -10.5zM615 271h279v34h-279v-34zM17 -1h328l6 8h-328zM446 710h196q0 3 -0.5 5.5t-0.5 5.5h-194q-1 -4 -1 -11zM682 710h196q0 3 -0.5 5.5
t-0.5 5.5h-194q-1 -4 -1 -11zM625 662h-162q3 -4 6 -7.5t8 -6.5h134q8 6 14 14zM861 662h-162q3 -4 6 -7.5t8 -6.5h134q8 6 14 14zM894 0v7h-279v-7h279zM719 773h122q-4 2 -7.5 4t-7.5 4h-92q-5 -2 -8.5 -4t-6.5 -4zM483 773h121q-7 5 -14 8h-92q-5 -2 -8.5 -4t-6.5 -4z
" />
    <glyph glyph-name="FL00E5h" unicode="&#xe5;" horiz-adv-x="924" 
d="M603 342q3 -2 7.5 -4t4.5 -3v-1h279v30h-597l-23 -30h317q3 5 5 6.5t7 1.5zM33 20h327l35 47h-326zM322 397h572v27h-551zM81 83h326l31 43h-324zM615 20h279v47h-279v-47zM130 146h323l29 40h-322zM370 459h524v24h-506zM615 83h279v43h-279v-43zM177 208h321l28 37
h-320zM615 146h279v40h-279v-40zM226 271h319l25 34h-318zM615 208h279v37h-279v-37zM419 522h475v21h-452q-15 -12 -23 -21zM615 271h279v34h-279v-34zM345 -1l6 8h-328l-6 -8h328zM585 648h134q8 6 14 14h-162q3 -4 6 -7.5t8 -6.5zM894 0v7h-279v-7h279zM698 781h-92
q-5 -2 -8.5 -4t-6.5 -4h121q-7 5 -14 8zM749 721h-70q4 -3 6 -11h65q0 3 -0.5 5.5t-0.5 5.5zM554 710h63q0 6 5 11h-67q-1 -4 -1 -11z" />
    <glyph glyph-name="FL00E6h" unicode="&#xe6;" horiz-adv-x="1291" 
d="M615 20h646v47h-646v-47zM615 83h646v43h-646v-43zM902 364h-605l-23 -30h317q3 5 5 6.5t7 1.5q3 -2 7.5 -4t4.5 -3v-1h646v17h-335q-16 0 -24 13zM1261 208v37h-646v-37h303h1h342zM615 271h646v34h-646v-34zM370 459h891v24h-873zM1261 414v10h-918l-21 -27h578
q3 7 8 12t11 5h342zM419 522h842v21h-819q-6 -5 -12 -10.5t-11 -10.5zM33 20h327l35 47h-326zM81 83h326l31 43h-324zM130 146h323l29 40h-322zM899 186h-284v-40h646v1h-342q-2 0 -10 8.5t-11 14.5q0 1 -0.5 3t-0.5 4t0.5 4t0.5 3v0q0 1 1 2zM177 208h321l28 37h-320z
M226 271h319l25 34h-318zM1261 0v7h-646v-7h646zM17 -1h328l6 8h-328z" />
    <glyph glyph-name="FL00E7h" unicode="&#xe7;" horiz-adv-x="703" 
d="M96 20h571v47h-620q9 -14 22 -26t27 -21zM39 83h628v43h-637v-3q0 -21 9 -40zM37 459h636v24h-626q-3 -6 -5.5 -12t-4.5 -12zM76 522h597v21h-569q-13 -8 -28 -21zM310 170v16h-280v-40h637v1h-336q-8 0 -14 6.5t-7 16.5zM254 -105h216v53h-216v-53zM30 397h282
q3 7 7.5 12t11.5 5h342v10h-643v-6v-21zM30 208h280v37h-280v-37zM470 -157v45h-216v-45h216zM30 271h280v34h-280v-34zM337 -42h133v42h197v7h-545q18 -7 38 -7h177v-42zM30 334h280v30h-280v-30z" />
    <glyph glyph-name="FL00E8h" unicode="&#xe8;" horiz-adv-x="703" 
d="M96 20h577v47h-626q9 -14 22 -26t27 -21zM39 83h634v43h-643v-3q0 -21 9 -40zM673 208v37h-643v-37h643zM30 271h643v34h-643v-34zM37 459h636v24h-626q-3 -6 -5.5 -12t-4.5 -12zM314 364h-284v-30h643v17h-335q-16 0 -24 13zM76 522h597v21h-569q-13 -8 -28 -21z
M311 186h-281v-40h643v1h-342q-2 0 -10 8.5t-11 14.5q0 1 -0.5 3t-0.5 4t0.5 4t0.5 3v0q0 1 1 2zM673 414v10h-643v-6v-21h282q3 7 8 12t11 5h342zM673 0v7h-551q18 -7 38 -7h513zM413 721h-147q0 -5 2 -11h153q-2 3 -8 11zM424 662h-117l12 -14h97q5 6 8 14zM372 777l-4 4
h-77l-3 -3q-2 -2 -3 -2.5t-2 -2.5h92z" />
    <glyph glyph-name="FL00E9h" unicode="&#xe9;" horiz-adv-x="703" 
d="M96 20h577v47h-626q9 -14 22 -26t27 -21zM39 83h634v43h-643v-3q0 -21 9 -40zM331 208h342v37h-643v-37h300h1zM30 271h643v34h-643v-34zM37 459h636v24h-626q-3 -6 -5.5 -12t-4.5 -12zM314 364h-284v-30h643v17h-335q-16 0 -24 13zM76 522h597v21h-569q-13 -8 -28 -21z
M311 186h-281v-40h643v1h-342q-2 0 -10 8.5t-11 14.5q0 1 -0.5 3t-0.5 4t0.5 4t0.5 3v0q0 1 1 2zM673 414v10h-643v-6v-21h282q3 7 8 12t11 5h342zM673 0v7h-551q18 -7 38 -7h513zM469 721h-148q-2 -3 -3.5 -6t-3.5 -5h152q2 2 2 4q0 3 1 7zM319 648h97l12 14h-117
q1 -5 8 -14zM360 773h92l-5 5l-3 3h-78q-1 -1 -1.5 -2t-1.5 -2z" />
    <glyph glyph-name="FL00EAh" unicode="&#xea;" horiz-adv-x="703" 
d="M96 20h577v47h-626q9 -14 22 -26t27 -21zM39 83h634v43h-643v-3q0 -21 9 -40zM673 208v37h-643v-37h643zM30 271h643v34h-643v-34zM37 459h636v24h-626q-3 -6 -5.5 -12t-4.5 -12zM314 364h-284v-30h643v17h-335q-16 0 -24 13zM76 522h597v21h-569q-13 -8 -28 -21z
M311 186h-281v-40h643v1h-342q-2 0 -10 8.5t-11 14.5q0 1 -0.5 3t-0.5 4t0.5 4t0.5 3v0q0 1 1 2zM673 414v10h-643v-6v-21h282q3 7 8 12t11 5h342zM673 0v7h-551q18 -7 38 -7h513zM204 710h302l-8 11h-286zM385 648h168l-10 14h-168zM157 648h168l10 14h-168zM252 773h206
l-6 8h-194z" />
    <glyph glyph-name="FL00EBh" unicode="&#xeb;" horiz-adv-x="703" 
d="M96 20h577v47h-626q9 -14 22 -26t27 -21zM39 83h634v43h-643v-3q0 -21 9 -40zM673 208v37h-643v-37h643zM30 271h643v34h-643v-34zM37 459h636v24h-626q-3 -6 -5.5 -12t-4.5 -12zM314 364h-284v-30h643v17h-335q-16 0 -24 13zM76 522h597v21h-569q-13 -8 -28 -21z
M311 186h-281v-40h643v1h-342q-2 0 -10 8.5t-11 14.5q0 1 -0.5 3t-0.5 4t0.5 4t0.5 3v0q0 1 1 2zM673 414v10h-643v-6v-21h282q3 7 8 12t11 5h342zM673 0v7h-551q18 -7 38 -7h513zM139 710h196q0 3 -0.5 5.5t-0.5 5.5h-194q-1 -4 -1 -11zM375 710h196q0 3 -0.5 5.5t-0.5 5.5
h-194q-1 -4 -1 -11zM554 662h-162q3 -4 6 -7.5t8 -6.5h134q8 6 14 14zM318 662h-162q3 -4 6 -7.5t8 -6.5h134q8 6 14 14zM176 773h121q-7 5 -14 8h-92q-5 -2 -8.5 -4t-6.5 -4zM412 773h121q-7 5 -14 8h-92q-5 -2 -8.5 -4t-6.5 -4z" />
    <glyph glyph-name="FL00ECh" unicode="&#xec;" horiz-adv-x="340" 
d="M30 20h280v47h-280v-47zM30 83h280v43h-280v-43zM30 146h280v40h-280v-40zM30 208h280v37h-280v-37zM30 271h280v34h-280v-34zM30 334h280v30h-280v-30zM30 397h280v27h-280v-27zM30 459h280v24h-280v-24zM30 522h280v21h-280v-21zM310 0v7h-280v-7h280zM234 721h-147
q0 -5 2 -11h153q-2 3 -8 11zM245 662h-117l12 -14h97q5 6 8 14zM193 777l-4 4h-77l-3 -3q-2 -2 -3 -2.5t-2 -2.5h92z" />
    <glyph glyph-name="FL00EDh" unicode="&#xed;" horiz-adv-x="340" 
d="M30 20h280v47h-280v-47zM30 83h280v43h-280v-43zM30 146h280v40h-280v-40zM30 208h280v37h-280v-37zM30 271h280v34h-280v-34zM30 334h280v30h-280v-30zM30 397h280v27h-280v-27zM30 459h280v24h-280v-24zM30 522h280v21h-280v-21zM310 0v7h-280v-7h280zM253 721h-148
q-2 -3 -3.5 -6t-3.5 -5h152q2 2 2 4q0 3 1 7zM103 648h97l12 14h-117q1 -5 8 -14zM144 773h92l-5 5l-3 3h-78q-1 -1 -1.5 -2t-1.5 -2z" />
    <glyph glyph-name="FL00EEh" unicode="&#xee;" horiz-adv-x="340" 
d="M30 20h280v47h-280v-47zM30 83h280v43h-280v-43zM30 146h280v40h-280v-40zM30 208h280v37h-280v-37zM30 271h280v34h-280v-34zM30 334h280v30h-280v-30zM30 397h280v27h-280v-27zM30 459h280v24h-280v-24zM30 522h280v21h-280v-21zM17 710h302l-8 11h-286zM198 648h168
l-10 14h-168zM-30 648h168l10 14h-167zM310 0v7h-280v-7h280zM65 773h206l-6 8h-194z" />
    <glyph glyph-name="FL00EFh" unicode="&#xef;" horiz-adv-x="340" 
d="M30 20h280v47h-280v-47zM30 83h280v43h-280v-43zM30 146h280v40h-280v-40zM30 208h280v37h-280v-37zM30 271h280v34h-280v-34zM30 334h280v30h-280v-30zM30 397h280v27h-280v-27zM30 459h280v24h-280v-24zM30 522h280v21h-280v-21zM-45 710h196q0 3 -0.5 5.5t-0.5 5.5
h-194q0 -3 -0.5 -5.5t-0.5 -5.5zM191 710h196q0 3 -0.5 5.5t-0.5 5.5h-194q-1 -4 -1 -11zM134 662h-162q6 -8 14 -14h134q8 6 14 14zM370 662h-162q3 -4 6 -7.5t8 -6.5h134q8 6 14 14zM310 0v7h-280v-7h280zM228 773h121q-7 5 -14 8h-92q-5 -2 -8.5 -4t-6.5 -4zM-8 773h121
q-7 5 -14 8h-92q-5 -2 -8 -4t-7 -4z" />
    <glyph glyph-name="FL0047h" unicode="&#xf0;" 
d="M39 83h707q5 10 7.5 19.5t2.5 20.5v3h-726v-3q0 -21 9 -40zM95 20h594q30 19 48 47h-690q18 -28 48 -47zM309 211h167v-3h280v37h-726v-37h279v3zM32 271h724v34h-705q-13 -16 -19 -34zM455 147h-124q-8 0 -13.5 8.5t-8.5 14.5v16h-279v-40h726v40h-280v-16
q-3 -6 -6.5 -14.5t-14.5 -8.5zM160 359q-18 0 -38 -7t-38 -18h672v30h-280v-5h-316zM738 483h-705v-24h716q-2 6 -4.5 12t-6.5 12zM681 543h-648v-21h676q-15 13 -28 21zM756 418v6h-723v-10h422q6 0 11 -5t7 -12h283v21zM160 0h466q19 0 36 7h-540q17 -7 38 -7z" />
    <glyph glyph-name="FL00F1h" unicode="&#xf1;" horiz-adv-x="948" 
d="M617 305h-587v-34h280v8l6 -8h602v34h-281v-30zM362 208h556v37h-583zM407 146h511v40h-540zM438 104q4 -5 7 -10.5t8 -10.5h465v43h-496zM516 20h402v47h-452q11 -14 23.5 -26t26.5 -21zM30 334h569l-20 30h-549v-30zM30 397h528l-17 27h-511v-27zM30 20h280v47h-280
v-47zM30 83h280v43h-280v-43zM502 483h-472v-24h488v1q-3 5 -7 10.5t-9 12.5zM30 146h280v40h-280v-40zM30 208h280v37h-280v-37zM441 543h-411v-21h437q-7 6 -13 11t-13 10zM637 334h281v30h-281v-30zM637 397h281v27h-281v-27zM637 459h281v24h-281v-24zM637 522h281v21
h-281v-21zM301 710h372l8 11h-372zM578 0h340v7h-377q15 -7 37 -7zM254 648h167l10 14h-167zM481 648h145l10 14h-165zM310 0v7h-280v-7h280zM553 773h168l6 8h-168zM349 773h140l-6 8h-128z" />
    <glyph glyph-name="FL00F2h" unicode="&#xf2;" 
d="M756 123v3h-726v-3q0 -21 9 -40h708q4 10 6.5 19.5t2.5 20.5zM738 67h-691q9 -14 22 -26t27 -21h594q30 19 48 47zM309 170v16h-279v-40h726v40h-279v-16q-3 -6 -9.5 -14.5t-12.5 -8.5h-124q-13 0 -17 9t-5 14zM756 424h-726v-6v-21h282q5 14 17 17h126q7 0 11.5 -5
t7.5 -12h282v21v6zM738 483h-691q-3 -6 -5.5 -12t-4.5 -12h712q-2 6 -5 12zM682 543h-578q-13 -8 -28 -21h633q-12 12 -27 21zM30 208h279v37h-279v-37zM477 208h279v37h-279v-37zM30 271h279v34h-279v-34zM477 271h279v34h-279v-34zM30 334h279v30h-279v-30zM477 334h279
v30h-279v-30zM664 7h-542q18 -7 38 -7h466q20 0 38 7zM456 721h-147q0 -5 2 -11h153q-2 3 -8 11zM467 662h-117l12 -14h97q5 6 8 14zM415 777l-4 4h-77l-3 -3q-2 -2 -3 -2.5t-2 -2.5h92z" />
    <glyph glyph-name="FL00F3h" unicode="&#xf3;" 
d="M756 123v3h-726v-3q0 -21 9 -40h708q4 10 6.5 19.5t2.5 20.5zM738 67h-691q9 -14 22 -26t27 -21h594q30 19 48 47zM309 170v16h-279v-40h726v40h-279v-16q-3 -6 -9.5 -14.5t-12.5 -8.5h-124q-13 0 -17 9t-5 14zM756 424h-726v-6v-21h282q5 14 17 17h126q7 0 11.5 -5
t7.5 -12h282v21v6zM738 483h-691q-3 -6 -5.5 -12t-4.5 -12h712q-2 6 -5 12zM682 543h-578q-13 -8 -28 -21h633q-12 12 -27 21zM30 208h279v37h-279v-37zM477 208h279v37h-279v-37zM30 271h279v34h-279v-34zM477 271h279v34h-279v-34zM477 334h279v30h-279v-30zM30 334h279
v30h-279v-30zM664 7h-542q18 -7 38 -7h466q20 0 38 7zM477 721h-148q-2 -3 -3.5 -6t-3.5 -5h152q2 2 2 4q0 3 1 7zM327 648h97l12 14h-117q1 -5 8 -14zM368 773h92l-5 5l-3 3h-78q-1 -1 -1.5 -2t-1.5 -2z" />
    <glyph glyph-name="FL00F4h" unicode="&#xf4;" 
d="M756 123v3h-726v-3q0 -21 9 -40h708q4 10 6.5 19.5t2.5 20.5zM738 67h-691q9 -14 22 -26t27 -21h594q30 19 48 47zM309 170v16h-279v-40h726v40h-279v-16q-3 -6 -9.5 -14.5t-12.5 -8.5h-124q-13 0 -17 9t-5 14zM756 424h-726v-6v-21h282q5 14 17 17h126q7 0 11.5 -5
t7.5 -12h282v21v6zM738 483h-691q-3 -6 -5.5 -12t-4.5 -12h712q-2 6 -5 12zM682 543h-578q-13 -8 -28 -21h633q-12 12 -27 21zM30 208h279v37h-279v-37zM477 208h279v37h-279v-37zM30 271h279v34h-279v-34zM477 271h279v34h-279v-34zM30 334h279v30h-279v-30zM477 334h279
v30h-279v-30zM664 7h-542q18 -7 38 -7h466q20 0 38 7zM242 710h302l-8 11h-286zM423 648h168l-10 14h-168zM195 648h168l10 14h-168zM290 773h206l-6 8h-194z" />
    <glyph glyph-name="FL00F5h" unicode="&#xf5;" 
d="M39 83h708q4 10 6.5 19.5t2.5 20.5v3h-726v-3q0 -21 9 -40zM96 20h594q30 19 48 47h-691q9 -14 22 -26t27 -21zM309 170v16h-279v-40h726v40h-279v-16q-3 -6 -9.5 -14.5t-12.5 -8.5h-124q-13 0 -17 9t-5 14zM329 414h126q7 0 11.5 -5t7.5 -12h282v21v6h-726v-6v-21h282
q5 14 17 17zM37 459h712q-2 6 -5 12l-6 12h-691q-3 -6 -5.5 -12t-4.5 -12zM76 522h633q-12 12 -27 21h-578q-13 -8 -28 -21zM30 208h279v37h-279v-37zM477 208h279v37h-279v-37zM30 271h279v34h-279v-34zM477 271h279v34h-279v-34zM30 334h279v30h-279v-30zM477 334h279v30
h-279v-30zM208 710h372l8 11h-372zM160 0h466q20 0 38 7h-542q18 -7 38 -7zM161 648h167l10 14h-167zM388 648h145l10 14h-165zM460 773h168l6 8h-168zM256 773h140l-6 8h-128z" />
    <glyph glyph-name="FL00F6h" unicode="&#xf6;" 
d="M756 123v3h-726v-3q0 -21 9 -40h708q4 10 6.5 19.5t2.5 20.5zM738 67h-691q9 -14 22 -26t27 -21h594q30 19 48 47zM309 170v16h-279v-40h726v40h-279v-16q-3 -6 -9.5 -14.5t-12.5 -8.5h-124q-13 0 -17 9t-5 14zM756 424h-726v-6v-21h282q5 14 17 17h126q7 0 11.5 -5
t7.5 -12h282v21v6zM738 483h-691q-3 -6 -5.5 -12t-4.5 -12h712q-2 6 -5 12zM682 543h-578q-13 -8 -28 -21h633q-12 12 -27 21zM30 208h279v37h-279v-37zM477 208h279v37h-279v-37zM30 271h279v34h-279v-34zM477 271h279v34h-279v-34zM30 334h279v30h-279v-30zM477 334h279
v30h-279v-30zM664 7h-542q18 -7 38 -7h466q20 0 38 7zM177 710h196q0 3 -0.5 5.5t-0.5 5.5h-194q-1 -4 -1 -11zM413 710h196q0 3 -0.5 5.5t-0.5 5.5h-194q-1 -4 -1 -11zM592 662h-162q3 -4 6 -7.5t8 -6.5h134q8 6 14 14zM356 662h-162q3 -4 6 -7.5t8 -6.5h134q8 6 14 14z
M214 773h121q-7 5 -14 8h-92q-5 -2 -8.5 -4t-6.5 -4zM450 773h121q-7 5 -14 8h-92q-5 -2 -8.5 -4t-6.5 -4z" />
    <glyph glyph-name="FL00F7h" unicode="&#xf7;" horiz-adv-x="457" 
d="M30 208h397v37h-397v-37zM30 271h397v34h-397v-34zM30 334h397v17h-397v-17zM152 103q0 -11 3 -20h152q3 9 3 20q0 6 -1 12t-3 11h-150q-4 -9 -4 -23zM300 67h-139q11 -17 29 -27.5t41 -10.5t41 10.5t28 27.5zM152 463v-4h158v4q0 9 -3 20h-152q-3 -11 -3 -20zM298 424
h-135q11 -17 31 -27h73q21 10 31 27zM166 146h129q-11 14 -27.5 22t-36.5 8t-37 -8t-28 -22zM184 522h94q-20 14 -47 14t-47 -14z" />
    <glyph glyph-name="FL00F8h" unicode="&#xf8;" 
d="M756 123v3h-726v-3q0 -21 9 -40h708q4 10 6.5 19.5t2.5 20.5zM738 67h-691q9 -14 22 -26t27 -21h594q30 19 48 47zM353 147l41 39h-364v-40h726v40h-279v-16q-3 -6 -9.5 -14.5t-12.5 -8.5h-102zM30 271h726v34h-438l-9 -9v9h-279v-34zM428 414l-17 -17h345v21v6h-726v-6
v-21h282q5 14 17 17h99zM738 483h-691q-3 -6 -5.5 -12t-4.5 -12h712q-2 6 -5 12zM30 208h388l39 37h-427v-37zM682 543h-578q-13 -8 -28 -21h633q-12 12 -27 21zM347 334h409v30h-379zM477 208h279v37h-279v-37zM30 334h279v30h-279v-30zM664 7h-542q18 -7 38 -7h466
q20 0 38 7z" />
    <glyph glyph-name="FL00F9h" unicode="&#xf9;" 
d="M756 123v3h-726v-3q0 -21 9 -40h707q5 10 7.5 19.5t2.5 20.5zM737 67h-690q18 -28 48 -47h594q30 19 48 47zM476 170q-3 -6 -6.5 -14.5t-14.5 -8.5h-124q-8 0 -13.5 8.5t-8.5 14.5v16h-279v-40h726v40h-280v-16zM476 208h280v37h-280v-37zM30 208h279v37h-279v-37z
M476 271h280v34h-280v-34zM30 271h279v34h-279v-34zM476 334h280v30h-280v-30zM30 334h279v30h-279v-30zM476 397h280v27h-280v-27zM30 397h279v27h-279v-27zM476 459h280v24h-280v-24zM30 459h279v24h-279v-24zM476 522h280v21h-280v-21zM30 522h279v21h-279v-21zM662 7
h-540q17 -7 38 -7h466q19 0 36 7zM456 721h-147q0 -5 2 -11h153q-2 3 -8 11zM467 662h-117l12 -14h97q5 6 8 14zM415 777l-4 4h-77l-3 -3q-2 -2 -3 -2.5t-2 -2.5h92z" />
    <glyph glyph-name="FL00FAh" unicode="&#xfa;" 
d="M756 123v3h-726v-3q0 -21 9 -40h708q4 10 6.5 19.5t2.5 20.5zM738 67h-690q9 -14 22 -26t27 -21h593q30 19 48 47zM310 170v16h-280v-40h726v40h-279v-16q-3 -6 -8.5 -14.5t-13.5 -8.5h-124q-11 0 -14.5 8.5t-6.5 14.5zM30 208h280v37h-280v-37zM477 208h279v37h-279v-37
zM30 271h280v34h-280v-34zM477 271h279v34h-279v-34zM30 334h280v30h-280v-30zM477 334h279v30h-279v-30zM30 397h280v27h-280v-27zM477 397h279v27h-279v-27zM30 459h280v24h-280v-24zM477 459h279v24h-279v-24zM30 522h280v21h-280v-21zM477 522h279v21h-279v-21zM664 7
h-541q17 -7 37 -7h466q20 0 38 7zM477 721h-148q-2 -3 -3.5 -6t-3.5 -5h152q2 2 2 4q0 3 1 7zM327 648h97l12 14h-117q1 -5 8 -14zM368 773h92l-5 5l-3 3h-78q-1 -1 -1.5 -2t-1.5 -2z" />
    <glyph glyph-name="FL00FBh" unicode="&#xfb;" 
d="M756 123v3h-726v-3q0 -21 9 -40h708q4 10 6.5 19.5t2.5 20.5zM738 67h-690q9 -14 22 -26t27 -21h593q30 19 48 47zM310 170v16h-280v-40h726v40h-279v-16q-3 -6 -8.5 -14.5t-13.5 -8.5h-124q-11 0 -14.5 8.5t-6.5 14.5zM30 208h280v37h-280v-37zM477 208h279v37h-279v-37
zM30 271h280v34h-280v-34zM477 271h279v34h-279v-34zM30 334h280v30h-280v-30zM477 334h279v30h-279v-30zM30 397h280v27h-280v-27zM477 397h279v27h-279v-27zM30 459h280v24h-280v-24zM477 459h279v24h-279v-24zM30 522h280v21h-280v-21zM477 522h279v21h-279v-21zM664 7
h-541q17 -7 37 -7h466q20 0 38 7zM242 710h302l-8 11h-286zM423 648h168l-10 14h-168zM195 648h168l10 14h-168zM290 773h206l-6 8h-194z" />
    <glyph glyph-name="FL00FCh" unicode="&#xfc;" 
d="M756 123v3h-726v-3q0 -21 9 -40h708q4 10 6.5 19.5t2.5 20.5zM738 67h-690q9 -14 22 -26t27 -21h593q30 19 48 47zM310 170v16h-280v-40h726v40h-279v-16q-3 -6 -8.5 -14.5t-13.5 -8.5h-124q-11 0 -14.5 8.5t-6.5 14.5zM30 208h280v37h-280v-37zM477 208h279v37h-279v-37
zM30 271h280v34h-280v-34zM477 271h279v34h-279v-34zM30 334h280v30h-280v-30zM477 334h279v30h-279v-30zM30 397h280v27h-280v-27zM477 397h279v27h-279v-27zM30 459h280v24h-280v-24zM477 459h279v24h-279v-24zM30 522h280v21h-280v-21zM477 522h279v21h-279v-21zM664 7
h-541q17 -7 37 -7h466q20 0 38 7zM413 710h196q0 3 -0.5 5.5t-0.5 5.5h-194q-1 -4 -1 -11zM177 710h196q0 3 -0.5 5.5t-0.5 5.5h-194q-1 -4 -1 -11zM356 662h-162q3 -4 6 -7.5t8 -6.5h134q8 6 14 14zM592 662h-162q3 -4 6 -7.5t8 -6.5h134q8 6 14 14zM450 773h121
q-7 5 -14 8h-92q-5 -2 -8.5 -4t-6.5 -4zM214 773h121q-7 5 -14 8h-92q-5 -2 -8.5 -4t-6.5 -4z" />
    <glyph glyph-name="FL00FDh" unicode="&#xfd;" horiz-adv-x="751" 
d="M372 483h-342v-24h691v24h-315q-7 -10 -10.5 -16.5t-4.5 -6.5q-5 5 -9.5 10.5t-9.5 12.5zM721 413v11h-691v-11h40q5 0 23.5 -2.5t40.5 -13.5h458q18 12 27 16h102zM234 20h280v47h-280v-47zM234 83h280v43h-280v-43zM234 146h280v40h-280v-40zM234 208h280v37h-280v-37z
M550 364h-374q8 -8 15.5 -15t14.5 -15h319q5 8 11 15t14 15zM514 302v3h-288q2 -5 4 -10.5t4 -10.5v-13h280v31zM314 543h-284v-21h309q-5 5 -11.5 10.5t-13.5 10.5zM438 522h283v21h-258q-7 -5 -13.5 -10.5t-11.5 -10.5zM514 0v7h-280v-7h280zM474 721h-148q-2 -3 -3.5 -6
t-3.5 -5h152q2 2 2 4q0 3 1 7zM324 648h97l12 14h-117q1 -5 8 -14zM365 773h92l-5 5l-3 3h-78q-1 -1 -1.5 -2t-1.5 -2z" />
    <glyph glyph-name="FL00FEh" unicode="&#xfe;" 
d="M740 186h-710v-40h691q6 9 10.5 19t8.5 21zM707 126h-677v-43h600q47 7 77 43zM753 245h-284q-12 -17 -28 -17h-131v17h-280v-37h716l4 18t3 19zM447 338q5 0 13 -4h292q-2 8 -4 15t-4 15h-714v-30h280v4h137zM717 424h-687v-27h702q-4 7 -7 13.5t-8 13.5zM629 483h-599
v-24h654q-12 8 -25.5 14.5t-29.5 9.5zM30 20h280v47h-280v-47zM30 271h280v34h-280v-34zM755 305h-277q2 -6 3 -11.5t1 -9.5q0 -5 -2 -13h275q1 5 1 9v10q0 10 -1 15zM30 522h280v21h-280v-21zM310 0v7h-280v-7h280z" />
    <glyph glyph-name="FL00FFh" unicode="&#xff;" horiz-adv-x="751" 
d="M372 483h-342v-24h691v24h-315q-7 -10 -10.5 -16.5t-4.5 -6.5q-5 5 -9.5 10.5t-9.5 12.5zM721 413v11h-691v-11h40q5 0 23.5 -2.5t40.5 -13.5h458q18 12 27 16h102zM234 20h280v47h-280v-47zM234 83h280v43h-280v-43zM234 146h280v40h-280v-40zM234 208h280v37h-280v-37z
M550 364h-374q8 -8 15.5 -15t14.5 -15h319q5 8 11 15t14 15zM514 302v3h-288q2 -5 4 -10.5t4 -10.5v-13h280v31zM314 543h-284v-21h309q-5 5 -11.5 10.5t-13.5 10.5zM438 522h283v21h-258q-7 -5 -13.5 -10.5t-11.5 -10.5zM391 710h196q0 3 -0.5 5.5t-0.5 5.5h-194
q-1 -4 -1 -11zM155 710h196q0 3 -0.5 5.5t-0.5 5.5h-194q-1 -4 -1 -11zM570 662h-162q3 -4 6 -7.5t8 -6.5h134q8 6 14 14zM334 662h-162q3 -4 6 -7.5t8 -6.5h134q8 6 14 14zM514 0v7h-280v-7h280zM428 773h121q-7 5 -14 8h-92q-5 -2 -8.5 -4t-6.5 -4zM192 773h121
q-7 5 -14 8h-92q-5 -2 -8.5 -4t-6.5 -4z" />
    <glyph glyph-name="FL0152h" unicode="&#x152;" horiz-adv-x="1211" 
d="M96 20h1085v47h-1134q9 -14 22 -26t27 -21zM39 83h1142v43h-1151v-3q0 -21 9 -40zM37 459h1144v24h-1134q-3 -6 -5.5 -12t-4.5 -12zM538 208h643v37h-643v-37zM819 186h-281v-39h-207q-8 0 -14 6.5t-7 16.5v16h-280v-40h1151v1h-342q-2 0 -10 8.5t-11 14.5q0 1 -0.5 3
t-0.5 4t0.5 4t0.5 3v0q0 1 1 2zM76 522h1105v21h-1077q-13 -8 -28 -21zM538 271h643v34h-643v-34zM538 414v-17h282q3 7 8 12t11 5h342v10h-1151v-6v-21h282q3 7 7.5 12t11.5 5h207zM822 364h-284v-30h643v17h-335q-16 0 -24 13zM30 208h280v37h-280v-37zM30 271h280v34
h-280v-34zM30 334h280v30h-280v-30zM1181 0v7h-1059q18 -7 38 -7h1021z" />
    <glyph glyph-name="FL0153h" unicode="&#x153;" horiz-adv-x="1211" 
d="M96 20h1085v47h-1134q9 -14 22 -26t27 -21zM39 83h1142v43h-1151v-3q0 -21 9 -40zM37 459h1144v24h-1134q-3 -6 -5.5 -12t-4.5 -12zM538 208h643v37h-643v-37zM819 186h-281v-39h-207q-8 0 -14 6.5t-7 16.5v16h-280v-40h1151v1h-342q-2 0 -10 8.5t-11 14.5q0 1 -0.5 3
t-0.5 4t0.5 4t0.5 3v0q0 1 1 2zM76 522h1105v21h-1077q-13 -8 -28 -21zM538 271h643v34h-643v-34zM538 414v-17h282q3 7 8 12t11 5h342v10h-1151v-6v-21h282q3 7 7.5 12t11.5 5h207zM822 364h-284v-30h643v17h-335q-16 0 -24 13zM30 208h280v37h-280v-37zM30 271h280v34
h-280v-34zM30 334h280v30h-280v-30zM1181 0v7h-1059q18 -7 38 -7h1021z" />
    <glyph glyph-name="FL0160h" unicode="&#x160;" horiz-adv-x="768" 
d="M713 67h-683v-47h635q28 18 48 47zM737 126h-707v-43h693q11 23 14 43zM57 271h679q-4 18 -19 34h-681q8 -20 21 -34zM457 208h281v37h-656q19 -16 39.5 -25.5t38.5 -9.5h297v-2zM35 459h702v24h-692q-3 -6 -5.5 -12t-4.5 -12zM30 334h649q-35 19 -69 19h-300v11h-280
v-27v-3zM74 522h663v21h-636q-15 -9 -27 -21zM30 397h282q3 7 7.5 12t11.5 5h406v10h-707v-27zM30 146h708v40h-281v-9q0 -8 -5.5 -19t-15.5 -11h-406v-1zM639 7h-609v-7h570q21 0 39 7zM233 710h305l8 11h-321zM280 648h211l10 14h-231zM185 773h168l-5 8h-169zM418 773
h168l6 8h-168z" />
    <glyph glyph-name="FL0161h" unicode="&#x161;" horiz-adv-x="900" 
d="M524 110l9 16h-503v-43h476q10 13 18 27zM492 67h-462v-47h405q16 9 30.5 21t26.5 26zM30 146h514l22 40h-342q-11 -14 -23.5 -26t-23.5 -12h-147v-2zM240 208h338l20 37h-338l-16 -30q-1 -2 -2 -3.5t-2 -3.5zM379 459h491v24h-473q-6 -7 -10.5 -13t-7.5 -11zM275 271
h338l18 34h-337zM870 414v10h-511l-15 -27h347q8 8 16.5 12.5t16.5 4.5h146zM663 364h-337l-16 -30h337l9 15q1 3 3 6.5t4 8.5zM437 522h433v21h-404q-17 -10 -29 -21zM299 710h305l8 11h-321zM346 648h211l10 14h-231zM30 0h337q22 0 40 7h-377v-7zM251 773h168l-5 8h-169z
M484 773h168l6 8h-168z" />
    <glyph glyph-name="FL0178h" unicode="&#x178;" horiz-adv-x="773" 
d="M727 67h-692v-47h655q23 17 37 47zM742 126h-707v-43h698q4 10 5.5 20.5t3.5 22.5zM50 271h693v34h-709q4 -17 16 -34zM146 208h597v37h-670q16 -15 35 -24.5t38 -12.5zM314 364h-284v-30h713v30h-285q-3 -5 -7 -9.5t-8 -4.5h-112q-8 0 -11.5 4.5t-5.5 9.5zM35 146h708
v40h-281v-2q0 -20 -8 -27.5t-28 -9.5h-391v-1zM462 397h281v27h-281v-27zM30 397h280v27h-280v-27zM462 459h281v24h-281v-24zM30 459h280v24h-280v-24zM462 522h281v21h-281v-21zM30 522h280v21h-280v-21zM667 7h-632v-7h594q23 0 38 7zM168 710h196q0 3 -0.5 5.5t-0.5 5.5
h-194q-1 -4 -1 -11zM404 710h196q0 3 -0.5 5.5t-0.5 5.5h-194q-1 -4 -1 -11zM583 662h-162q3 -4 6 -7.5t8 -6.5h134q8 6 14 14zM347 662h-162q3 -4 6 -7.5t8 -6.5h134q8 6 14 14zM441 773h122q-4 2 -7.5 4t-7.5 4h-92q-5 -2 -8.5 -4t-6.5 -4zM205 773h121q-7 5 -14 8h-92
q-5 -2 -8.5 -4t-6.5 -4z" />
    <glyph glyph-name="FL00AFh" unicode="&#x192;" 
d="M100 20h653v47h-699q18 -28 46 -47zM44 83h709v43h-722q3 -21 13 -43zM725 245h-695v-37h632q17 5 33 14.5t30 22.5zM756 305h-726v-34h715q9 16 11 34zM310 350v14h-280v-30h726v30h-279v-14h-167zM32 459h721q-2 6 -3.5 12t-4.5 12h-703q-3 -6 -5.5 -12t-4.5 -12z
M331 414h124q6 0 11 -5.5t8 -11.5h282v27h-726v-27h282q2 6 6 11.5t13 5.5zM72 522h643q-15 13 -28 21h-587q-13 -8 -28 -21zM310 179v7h-280v-40h723v1h-422q-10 0 -15.5 11t-5.5 19l-2 2h2zM753 0v7h-626q17 -7 40 -7h586z" />
    <glyph glyph-name="FL02C6h" unicode="&#x2c6;" horiz-adv-x="464" 
d="M67 459h330l-18 24h-294zM115 522h235l-16 21h-203zM276 397h168l-20 27h-168zM19 397h169l19 27h-167z" />
    <glyph glyph-name="FL02DCh" unicode="&#x2dc;" horiz-adv-x="533" 
d="M66 459h372l18 24h-372zM18 397h169l20 27h-168zM276 397h114l21 27h-155zM319 522h167l16 21h-168zM114 522h170l-16 21h-138z" />
    <glyph glyph-name="FL2013h" unicode="&#x2013;" horiz-adv-x="395" 
d="M30 208h335v37h-335v-37zM30 271h335v34h-335v-34zM30 351v-17h335v17h-335z" />
    <glyph glyph-name="FL2014h" unicode="&#x2014;" horiz-adv-x="457" 
d="M30 208h397v37h-397v-37zM30 271h397v34h-397v-34zM30 351v-17h397v17h-397z" />
    <glyph glyph-name="FL2018h" unicode="&#x2018;" horiz-adv-x="279" 
d="M249 364h-219q0 -16 8 -30h202q7 13 9 30zM30 397h219v27h-219v-27zM30 459h219v11q0 3 -0.5 6.5t-0.5 6.5h-217q-1 -3 -1 -7v-6v-11zM49 522h180q-9 12 -24 21h-131q-14 -8 -25 -21zM217 305h-156q32 -27 79 -27q45 0 77 27z" />
    <glyph glyph-name="FL2019h" unicode="&#x2019;" horiz-adv-x="279" 
d="M249 364h-219q0 -16 8 -30h202q7 13 9 30zM30 397h219v27h-219v-27zM30 459h219v11q0 3 -0.5 6.5t-0.5 6.5h-217q-1 -3 -1 -7v-6v-11zM49 522h180q-9 12 -24 21h-131q-14 -8 -25 -21zM217 305h-156q32 -27 79 -27q45 0 77 27z" />
    <glyph glyph-name="FL201Ah" unicode="&#x201a;" horiz-adv-x="295" 
d="M30 -11q0 -16 6 -31h222q7 14 7 31v18h-235v-18zM30 20h235v47h-235v-47zM30 83h235v9q0 16 -8 34h-219q-8 -15 -8 -34v-9zM253 -52h-211q15 -23 43 -37t63 -14q34 0 62.5 14t42.5 37zM52 146h191q-17 17 -41.5 27.5t-53.5 10.5t-54.5 -10.5t-41.5 -27.5z" />
    <glyph glyph-name="FL201Ch" unicode="&#x201c;" horiz-adv-x="504" 
d="M239 364h-209q0 -14 7 -30h194q4 7 5.5 14.5t2.5 15.5zM474 364h-209q0 -14 7 -30h194q7 15 8 30zM30 397h209v27h-209v-27zM265 397h209v27h-209v-27zM265 459h209v11q0 3 -0.5 6.5t-0.5 6.5h-207q-1 -3 -1 -7v-6v-11zM30 459h209v10q0 4 -2 14h-206q-1 -4 -1 -8v-6v-10
zM283 522h172q-9 11 -23 21h-126q-7 -5 -12.5 -10t-10.5 -11zM49 522h171q-11 13 -25 21h-122q-7 -5 -13 -10t-11 -11zM210 305h-152q30 -28 77 -28q22 0 41.5 7.5t33.5 20.5zM444 305h-149q30 -27 75 -27q44 0 74 27z" />
    <glyph glyph-name="FL201Dh" unicode="&#x201d;" horiz-adv-x="504" 
d="M239 364h-209q0 -14 7 -30h194q4 7 5.5 14.5t2.5 15.5zM474 364h-209q0 -14 7 -30h194q7 15 8 30zM30 397h209v27h-209v-27zM265 397h209v27h-209v-27zM265 459h209v11q0 3 -0.5 6.5t-0.5 6.5h-207q-1 -3 -1 -7v-6v-11zM30 459h209v10q0 4 -2 14h-206q-1 -4 -1 -8v-6v-10
zM283 522h172q-9 11 -23 21h-126q-7 -5 -12.5 -10t-10.5 -11zM49 522h171q-11 13 -25 21h-122q-7 -5 -13 -10t-11 -11zM210 305h-152q30 -28 77 -28q22 0 41.5 7.5t33.5 20.5zM444 305h-149q30 -27 75 -27q44 0 74 27z" />
    <glyph glyph-name="FL201Eh" unicode="&#x201e;" horiz-adv-x="558" 
d="M293 -11q0 -16 6 -31h222q7 14 7 31v18h-235v-18zM30 -11q0 -16 6 -31h222q7 14 7 31v18h-235v-18zM30 20h235v47h-235v-47zM293 20h235v47h-235v-47zM293 83h235v9q0 16 -8 34h-219q-8 -15 -8 -34v-9zM30 83h235v9q0 16 -8 34h-219q-8 -15 -8 -34v-9zM516 -52h-211
q15 -23 43 -37t63 -14q34 0 62.5 14t42.5 37zM253 -52h-211q15 -23 43 -37t63 -14q34 0 62.5 14t42.5 37zM52 146h191q-17 17 -41.5 27.5t-53.5 10.5t-54.5 -10.5t-41.5 -27.5zM315 146h191q-17 17 -41.5 27.5t-53.5 10.5t-54.5 -10.5t-41.5 -27.5z" />
    <glyph glyph-name="FL2020h" unicode="&#x2020;" horiz-adv-x="438" 
d="M79 20h280v47h-280v-47zM79 83h280v43h-280v-43zM30 334h378v30h-378v-30zM79 146h280v40h-280v-40zM79 208h280v37h-280v-37zM30 397h378v27h-378v-27zM79 271h280v34h-280v-34zM79 459h280v24h-280v-24zM79 522h280v21h-280v-21zM359 0v7h-280v-7h280z" />
    <glyph glyph-name="FL2021h" unicode="&#x2021;" horiz-adv-x="438" 
d="M30 146h378v40h-378v-40zM30 208h378v37h-378v-37zM408 108v18h-378v-18h49v-25h280v25h49zM79 20h280v47h-280v-47zM30 334h378v30h-378v-30zM30 397h378v27h-378v-27zM79 271h280v34h-280v-34zM79 459h280v24h-280v-24zM79 522h280v21h-280v-21zM359 0v7h-280v-7h280z
" />
    <glyph glyph-name="FL2022h" unicode="&#x2022;" 
d="M756 123v3h-726v-3q0 -21 9 -40h708q4 10 6.5 19.5t2.5 20.5zM738 67h-691q9 -14 22 -26t27 -21h594q30 19 48 47zM30 146h726v40h-726v-40zM30 208h726v37h-726v-37zM30 271h726v34h-726v-34zM30 334h726v30h-726v-30zM756 424h-726v-6v-21h726v21v6zM738 483h-691
q-3 -6 -5.5 -12t-4.5 -12h712q-2 6 -5 12zM682 543h-578q-13 -8 -28 -21h633q-12 12 -27 21zM664 7h-542q18 -7 38 -7h466q20 0 38 7z" />
    <glyph glyph-name="FL2026h" unicode="&#x2026;" horiz-adv-x="817" 
d="M30 92v-9h234q1 3 1 9q0 16 -8 34h-219q-8 -15 -8 -34zM552 92v-9h234q1 3 1 9q0 16 -8 34h-219q-8 -15 -8 -34zM291 92v-9h234q1 3 1 9q0 16 -8 34h-219q-8 -15 -8 -34zM261 67h-227q10 -28 40 -47h147q30 19 40 47zM783 67h-227q10 -28 40 -47h147q30 19 40 47zM522 67
h-227q10 -28 40 -47h147q30 19 40 47zM52 146h191q-17 17 -41.5 27.5t-53.5 10.5t-54.5 -10.5t-41.5 -27.5zM574 146h191q-17 17 -41.5 27.5t-53.5 10.5t-54.5 -10.5t-41.5 -27.5zM313 146h191q-17 17 -41.5 27.5t-53.5 10.5t-54.5 -10.5t-41.5 -27.5zM193 7h-91
q20 -7 46 -7q25 0 45 7zM454 7h-91q20 -7 46 -7q25 0 45 7zM715 7h-91q20 -7 46 -7q25 0 45 7z" />
    <glyph glyph-name="FL2030h" unicode="&#x2030;" horiz-adv-x="1317" 
d="M907 209q0 19 -11 36h-602l-33 -37h646v1zM30 334h629l27 30h-283l-10 -11v11h-363v-23v-7zM839 280h-229l22 25h-587q10 -11 23.5 -18t26.5 -7h231l-8 -9h552q-8 4 -15.5 6.5t-15.5 2.5zM944 20h324q8 8 13.5 19t5.5 22v6h-363v-6q0 -23 20 -41zM564 20h324q8 8 13.5 19
t5.5 22v6h-363v-6q0 -23 20 -41zM705 111v15h-161v-43h363v43h-160v-15q-2 -6 -6 -6h-31q-5 0 -5 6zM1085 111v15h-161v-43h363v43h-160v-15q-2 -6 -6 -6h-31q-5 0 -5 6zM705 164q0 6 5 8h31q3 0 4.5 -3t1.5 -5v-18h160v40h-363v-40h161v18zM1085 164q0 6 5 8h31q3 0 4.5 -3
t1.5 -5v-18h160v40h-363v-40h161v18zM90 20h284l43 47h-284zM924 209v-1h363v1q0 19 -11 36h-341q-11 -17 -11 -36zM147 83h284l39 43h-284zM204 146h284l37 40h-284zM30 459h363v24h-363v-24zM433 397h283l24 27h-283zM367 543h-311q-5 -5 -9 -10.5t-8 -10.5h345
q-4 6 -8 11t-9 10zM489 459h283l22 24h-283zM546 522h283l19 21h-283zM30 397h161v27h-161v-27zM233 397h160v27h-160v-27zM1219 280h-226q-8 0 -16 -2.5t-16 -6.5h289q-8 4 -15.5 6.5t-15.5 2.5zM356 0l6 7h-284l-6 -7h284zM609 0h233q14 0 27 7h-287q13 -7 27 -7zM989 0
h233q14 0 27 7h-287q13 -7 27 -7z" />
    <glyph glyph-name="FL2039h" unicode="&#x2039;" horiz-adv-x="304" 
d="M287 211l-34 34h-202l37 -37h196zM220 279l26 26h-203l-26 -26l8 -8h203zM287 346l-18 18h-167l-30 -30h203zM150 146h72l40 40h-152zM135 397h101l-27 27h-46zM186 110l16 16h-32z" />
    <glyph glyph-name="FL203Ah" unicode="&#x203a;" horiz-adv-x="304" 
d="M20 208h196l37 37h-203l-33 -34zM84 279l-8 -8h203l8 8l-26 26h-203zM17 346l12 -12h202l-30 30h-166zM82 146h72l40 40h-152zM68 397h100l-27 27h-46zM118 110l16 16h-32z" />
    <glyph glyph-name="FL2122h" unicode="&#x2122;" horiz-adv-x="1563" 
d="M733 245h-703v-37h682q13 17 21 37zM309 304v1h-279v-34h713q2 8 4 16.5t4 17.5h-303q-2 -1 -7 -1h-132zM691 186h-661v-40h279v11h297q26 0 47 7.5t38 21.5zM1187 110l9 16h-503v-43h476q10 13 18 27zM1156 67h-463v-47h406q16 9 30.5 21t26.5 26zM727 483h-697v-24h708
q-2 6 -5 12zM309 414h138q8 0 14 -5t11 -12h282q-1 7 -2 13.5t-3 13.5h-719v-27h279v17zM693 146h514l22 40h-342q-11 -14 -23.5 -26t-23.5 -12h-147v-2zM672 543h-642v-21h669q-12 12 -27 21zM30 20h279v47h-279v-47zM903 208h338l20 37h-338l-16 -30q-1 -2 -2 -3.5
t-2 -3.5zM30 83h279v43h-279v-43zM1042 459h491v24h-472q-6 -7 -10.5 -13t-8.5 -11zM938 271h338l18 34h-337zM1533 414v10h-511l-15 -27h347q8 8 16.5 12.5t16.5 4.5h146zM1326 364h-337l-16 -30h337l9 15q1 3 3 6.5t4 8.5zM1102 522h431v21h-403q-7 -5 -14 -10.5
t-14 -10.5zM30 334h279v30h-279v-30zM476 334h279q1 8 1 15v15h-274v-4q0 -13 -6 -26zM693 0h337q23 0 41 7h-378v-7zM30 0h279v7h-279v-7z" />
    <glyph glyph-name="FL017Dh" horiz-adv-x="894" 
d="M867 0v148h-147q-9 0 -18.5 7.5t-18.5 18t-17 22t-13 19.5l-131 237q-5 10 -20 28t-35.5 36t-44 31.5t-44.5 13.5h-351v-147h146q9 0 19.5 -7t20.5 -17.5t17.5 -21.5t10.5 -19l132 -239q10 -19 27 -38.5t38 -35.5t44.5 -26t47.5 -10h337zM399 792h-169l127 -166h177
l126 166h-169l-46 -64z" />
    </font>
</defs>
</svg>
