<?xml version="1.0" standalone="no"?>
<!DOCTYPE svg PUBLIC "-//W3C//DTD SVG 1.1//EN" "http://www.w3.org/Graphics/SVG/1.1/DTD/svg11.dtd" >
<svg xmlns="http://www.w3.org/2000/svg" xmlns:xlink="http://www.w3.org/1999/xlink" version="1.1">
<metadata>
Created by FontForge 20170731 at Thu May 13 16:22:37 1999
 By Aleksey,,,
(c)GemFonts98 
</metadata>
<defs>
<font id="Thor" horiz-adv-x="263" >
  <font-face 
    font-family="Thor"
    font-weight="400"
    font-stretch="normal"
    units-per-em="1160"
    panose-1="0 0 4 0 0 0 0 0 0 0"
    ascent="928"
    descent="-232"
    x-height="593"
    cap-height="746"
    bbox="-68 -301 1439.51 971.75"
    underline-thickness="20"
    underline-position="-163"
    unicode-range="U+0020-201E"
  />
<missing-glyph horiz-adv-x="580" 
d="M73 0v859h435v-859h-435zM145 73h290v713h-290v-713z" />
    <glyph glyph-name=".notdef" horiz-adv-x="580" 
d="M73 0v859h435v-859h-435zM145 73h290v713h-290v-713z" />
    <glyph glyph-name=".null" horiz-adv-x="0" 
 />
    <glyph glyph-name="nonmarkingreturn" horiz-adv-x="336" 
 />
    <glyph glyph-name="space" unicode=" " horiz-adv-x="336" 
 />
    <glyph glyph-name="exclam" unicode="!" horiz-adv-x="234" 
d="M98 178h61q-4 324 22 519l2 15q1 3 -7 22q-11 12 -38 20l-118 -59q20 4 29 4q9 -1 14 -4q11 -5 16 -15q20 -197 20 -403q0 -49 -1 -99zM124 132q0 -18 -26 -42t-44 -23q18 -1 42.5 -27t24.5 -44q0 17 26 41.5t43 23.5q-17 1 -41.5 27.5t-24.5 43.5z" />
    <glyph glyph-name="quotedbl" unicode="&#x22;" horiz-adv-x="326" 
d="M299 671q-18 0 -42.5 26.5t-23.5 44.5q-1 -18 -26.5 -42t-43.5 -23q23 -1 51 -38q4 -37 -9 -89q6 9 14 9q5 0 15.5 -5t15.5 -5q3 0 5 1q-12 52 -9 87q30 35 53 34zM154 671q-18 0 -42.5 26.5t-23.5 44.5q-1 -18 -26.5 -42t-43.5 -23q23 -1 51 -38q4 -37 -9 -89q6 9 14 9
q5 0 15.5 -5t15.5 -5q3 0 5 1q-12 52 -9 87q30 35 53 34z" />
    <glyph glyph-name="numbersign" unicode="#" horiz-adv-x="595" 
d="M517 333l88 124q-15 -17 -58 -20q-30 -2 -60 5q-13 1 -65 15q6 137 16 224l-120 -40q4 -1 23 -3q114 -87 162 -131q-2 -3 -4 -5q-51 37 -147 121q7 -60 11 -148q-31 11 -94 32q6 104 14 174l-120 -40q4 -1 23 -3q65 -68 91 -100q-2 0 -4 -1q-29 29 -76 86q5 -42 8 -99
q-24 6 -86 18l-88 -124q15 17 59 20q27 2 59 -5q19 -2 61 -13q3 -63 4 -137q-26 6 -95 19l-88 -123q15 16 59 19q32 2 59 -4q15 -1 67 -15v-149h-1q0 -12 -10 -20q-22 -13 -35 -13q19 0 40 -31.5t22 -52.5q-1 17 27.5 50t45.5 34q-20 -2 -41 13q-5 4 -5 13q-1 82 0 144
q37 -14 112 -40v-102q-1 -7 -10 -16q-22 -12 -34 -13q18 1 39 -31.5t22 -52.5q0 20 26.5 51.5t46.5 32.5q-19 -1 -41 14q-4 2 -5 17h-1v88q30 -8 103 -21l88 123q-15 -17 -58 -20q-30 -2 -60 5q-18 1 -72 17q1 71 3 134q29 -7 99 -20zM370 233q-36 13 -109 37q1 71 4 135
q33 -14 103 -38z" />
    <glyph glyph-name="dollar" unicode="$" horiz-adv-x="711" 
d="M593 514l120 130q-40 -17 -96 -16q-79 1 -190 61q6 106 14 170l-142 -47q11 -2 27 -4q-12 -191 -10 -281q1 -44 4 -44t7 36q9 80 12 271q3 -22 5 -53l-4 2l-48 -73q-83 -126 -188 -205l-73 -55l98 -55q119 -67 231 -103l2 -228q-112 35 -207 94q-3 2 -13 8l-96 -68
q4 -2 13 -7q155 -94 303 -138l-1 -71q0 -12 -12 -24q-26 -15 -41 -16q21 1 47 -39q24 -36 26 -60q-1 23 30.5 60.5t54.5 38.5q-22 -1 -48 16q-6 6 -6 18v63l33 -11l45 56q61 76 182 299q2 2 12.5 24.5t10.5 25.5l-104 16v-1q-86 11 -175 40l6 230q129 -62 163 -62q6 0 8 2z
M568 195q-39 -88 -132 -199l-24 8q1 118 2 227q80 -23 154 -36zM358 364q-80 31 -155 76q-2 1 -5 3q78 68 148 171l5 -3q5 -104 7 -247z" />
    <glyph glyph-name="percent" unicode="%" horiz-adv-x="964" 
d="M667 729q-47 -325 -288 -795l-124 -2q16 2 38 23q15 14 20 21q21 28 35 61q35 61 120 278q110 281 122 400q8 41 11 65l55 -38zM962 144q-27 -29 -89 -92q-43 -42 -103 -77l-20 -15q-65 45 -117 101q-11 12 -100 122q72 41 82 48q43 29 72 63l97 115l95 -114
q53 -64 88 -82q11 -6 41 -21zM822 234l-52 66q-67 -75 -131 -119q67 -87 132 -134q58 39 126 116q-51 41 -75 71zM475 512q-27 -29 -89 -92q-43 -42 -103 -77l-20 -15q-65 45 -117 101q-11 12 -100 122q72 41 82 48q43 29 72 63l97 115l95 -114q53 -64 88 -82q11 -6 41 -21z
M335 602l-52 66q-67 -75 -131 -119q67 -87 132 -134q58 39 126 116q-51 41 -75 71z" />
    <glyph glyph-name="ampersand" unicode="&#x26;" horiz-adv-x="688" 
d="M734 243q-66 12 -124 27l9 15q3 2 17 39l15 39l-74 25q-6 -31 -22 -78q-6 -9 -11 -21q-92 29 -189 82l-180 99q76 65 142 162q105 -58 229 -119l111 120q-36 -16 -89 -15q-61 1 -129 47q-111 75 -127 84l-44 -68q-60 -93 -154 -173v0l-94 -71l90 -51q13 -7 85 -51
q-44 -98 -152 -219l-4 -2q4 -2 12 -7q109 -68 221 -107q43 -15 137 -43l41 51q69 86 109 164q42 -14 137 -39l27 80q14 18 14 26q0 4 -3 4zM401 61q-74 22 -113 37q-65 25 -122 57q35 49 86 148q118 -62 243 -109q-40 -68 -94 -133z" />
    <glyph glyph-name="quotesingle" unicode="'" horiz-adv-x="181" 
d="M154 671q-18 0 -42.5 26.5t-23.5 44.5q-1 -18 -26.5 -42t-43.5 -23q23 -1 51 -38q4 -37 -9 -89q6 9 14 9q5 0 15.5 -5t15.5 -5q3 0 5 1q-12 52 -9 87q30 35 53 34z" />
    <glyph glyph-name="parenleft" unicode="(" horiz-adv-x="250" 
d="M167 18q-45 146 -49 277q-4 130 35 281q25 99 50 146q1 2 18 37l-123 -24q30 2 39 -5q3 -3 2 -8q-28 -63 -53 -153q-45 -166 -40 -274q2 -50 15 -166q19 -175 48 -262l159 -42q-46 15 -101 193z" />
    <glyph glyph-name="parenright" unicode=")" horiz-adv-x="304" 
d="M267 294q-2 49 -15 165q-20 182 -47 263l-157 36q27 -7 42 -38q27 -54 56 -150q47 -153 50 -276q3 -131 -36 -281q-25 -96 -49 -146q-4 -6 -19 -37l123 24q-22 -1 -32 2.5t-8 10.5q28 64 53 153q44 159 39 274zM46 759z" />
    <glyph glyph-name="asterisk" unicode="*" horiz-adv-x="276" 
d="M146 464h-14l-9 67l-72 -20l-5 10l57 41l-57 44l7 9l70 -22l12 68h14l14 -68l73 18l5 -10l-58 -39l53 -49l-6 -8l-67 26z" />
    <glyph glyph-name="plus" unicode="+" horiz-adv-x="609" 
d="M321 141v119q-106 36 -187 36q-67 0 -88 -24l104 145q71 -10 169 -45q-1 31 -18 185q-9 17 -30 19q-7 0 -8 1l131 43l-16 -134q-7 -59 -9 -131q69 -20 149 -20q63 0 85 23l-104 -145q-63 9 -132 31v-108q0 -13 11 -20q20 -13 37 -12q-23 -2 -48.5 -35t-25.5 -56
q-1 18 -16 44q-28 49 -50 48q14 1 39 15q8 7 6 21h1z" />
    <glyph glyph-name="comma" unicode="," horiz-adv-x="171" 
d="M156 66q-17 0 -42 27t-24 44q-1 -18 -26.5 -42t-43.5 -23q23 -1 51 -38q4 -37 -9 -89q6 9 14 9q5 0 15.5 -5t15.5 -5q3 0 5 1q-12 52 -9 87q30 35 53 34z" />
    <glyph glyph-name="hyphen" unicode="-" horiz-adv-x="704" 
d="M638 294q-38 -2 -70 6q-75 6 -214 55q-149 52 -219 62l-104 -145q18 20 69 23q41 2 70 -5q19 -1 139 -35q141 -61 294 -83l104 145q-19 -20 -69 -23z" />
    <glyph glyph-name="hyphen" unicode="&#x2010;" horiz-adv-x="704" 
d="M638 294q-38 -2 -70 6q-75 6 -214 55q-149 52 -219 62l-104 -145q18 20 69 23q41 2 70 -5q19 -1 139 -35q141 -61 294 -83l104 145q-19 -20 -69 -23z" />
    <glyph glyph-name="period" unicode="." horiz-adv-x="173" 
d="M90 132q0 -18 -26 -42t-44 -23q18 -1 42.5 -27t24.5 -44q0 17 26 41.5t43 23.5q-17 1 -41.5 27.5t-24.5 43.5z" />
    <glyph glyph-name="slash" unicode="/" horiz-adv-x="470" 
d="M377 780q-3 -24 -11 -65q-12 -120 -122 -400q-86 -219 -120 -278q-14 -33 -35 -61q-5 -7 -20 -21q-22 -21 -38 -23l124 2q241 470 288 795l-11 13z" />
    <glyph glyph-name="zero" unicode="0" horiz-adv-x="752" 
d="M712 415q-61 42 -147 171q-14 21 -140 213l-29 -43q-7 -9 -26 -37l-88 -133q-61 -92 -169 -171l-67 -49q108 -172 145 -223q83 -115 178 -197l23 21q124 91 201 195q27 37 107 145h-1l58 78q-17 10 -45 30zM403 67q-117 104 -238 306q116 97 237 273q82 -132 98 -155
q62 -89 133 -157q-55 -77 -92 -123q-70 -86 -138 -144zM396 413q0 -18 -26 -42.5t-44 -23.5q17 -1 42 -28t25 -44q0 17 26.5 41.5t43.5 24.5q-19 0 -43 26t-24 46z" />
    <glyph glyph-name="one" unicode="1" horiz-adv-x="327" 
d="M177 51v0v0q0 -6 -3 -18q-4 -8 -7 -9v0q-49 -32 -73 -31q21 -1 62 -27.5t41 -44.5q0 18 42.5 45.5t62.5 27.5q-25 1 -70 30q-9 6 -9 23q0 470 27 698l-204 -199q1 -2 9 -2q62 20 83 20q29 0 27 -22q15 -134 15 -321q0 -80 -3 -170z" />
    <glyph glyph-name="two" unicode="2" horiz-adv-x="576" 
d="M284 704h1l-5 5q-2 2 -32 36l-1 -1l-5 6q-64 -75 -196 -192l48 -49q74 67 125 120q115 -122 224 -186q-195 -125 -305 -312v0l-57 -89q32 -9 67 -20q253 -80 346 -80q29 0 40 9l13 97q-1 -9 -26 -9q-70 0 -291 65q-14 12 -15 14q0 3 2 18v0q157 229 370 317v0l1 1
q-139 98 -186 137q-53 44 -118 113z" />
    <glyph glyph-name="three" unicode="3" horiz-adv-x="555" 
d="M228 758q-3 2 -11 10l-104 -41q27 -21 53 -44q176 -154 271 -209q-74 -29 -136 -60l-10 9q-2 2 -10 9l-81 -60q5 -4 21 -18q125 -115 202 -162q-234 -93 -320 -173h-1q-5 -7 -14 -7q-16 6 -25 17q7 -8 7 -30q0 -65 -24 -83q30 23 76 23q21 0 28 -10q-7 10 -11 33v0
q-1 3 1 7v1l6 6l2 1h-1q85 83 368 179q3 0 6 2l57 80q-4 -4 -13 -4q-49 0 -211 134q74 34 166 68q1 -1 3 -1l1 2l2 1v1l53 77q-101 15 -351 242z" />
    <glyph glyph-name="four" unicode="4" horiz-adv-x="648" 
d="M425 317q-77 14 -175 36q-14 6 -14 15q1 11 5 20q101 95 179 204q21 29 91 128l-17 18l-25 28l-164 -197q-84 -101 -174 -187h-1l-84 -82q47 -9 74 -16q229 -60 311 -74q4 -89 4 -178q-1 -7 -9 -15q-17 -11 -34 -16q18 -4 39 -40q20 -32 22 -54q-1 21 25 56t47 40
q-17 2 -35 13q-7 6 -8 13q0 77 4 172q58 -7 103 -7q62 0 73 15l13 97q-3 -12 -53 -12t-130 11q6 100 17 189l-133 -43q2 -2 9 -2q26 -2 28 -19q1 -4 12 -113z" />
    <glyph glyph-name="five" unicode="5" horiz-adv-x="653" 
d="M136 521l17 101q188 -40 317 -40q99 0 147 25l13 97q-39 -19 -125 -19q-154 0 -405 55l2 -26l-2 1q-1 -30 -11 -78h1q-13 -78 -40 -191l-2 -2q291 -158 471 -210q-45 -80 -108 -156q-109 33 -275 117l-90 -64l177 -84q80 -38 196 -75q40 51 103 158q74 127 108 172h-1
l2 2q-83 3 -253 84q-128 61 -242 133z" />
    <glyph glyph-name="six" unicode="6" horiz-adv-x="626" 
d="M632 312q-53 -2 -165 47q-77 34 -160 81l127 285l8 3l20 -6q-28 32 -28 80q0 16 4 31q-13 -20 -44 -37.5t-53 -14.5l21 -21q1 -4 1 -18q0 -48 -139 -304q-131 -242 -178 -300q178 -93 374 -158q48 62 108 162q85 142 102 167zM515 233q-43 -75 -103 -148
q-156 47 -246 100q46 71 93 160q141 -88 256 -112z" />
    <glyph glyph-name="seven" unicode="7" horiz-adv-x="595" 
d="M99 724q-12 -26 -53 -91q203 -53 344 -53q46 0 87 5q-70 -141 -164 -314q-137 -253 -170 -270h-9l-12 12q6 -9 6 -29q0 -58 -23 -79q28 19 67 19q20 0 37 -5l-12 28h1q-1 11 2 17q172 258 371 678h-1l26 54q-37 -22 -125 -22q-155 0 -372 50z" />
    <glyph glyph-name="eight" unicode="8" horiz-adv-x="656" 
d="M555 334v-1q-62 16 -128 44q74 71 228 209l-144 74q-72 37 -139 87q-83 -100 -137 -147q-59 -52 -169 -114l104 -76q52 -38 109 -69q-139 -119 -233 -170q147 -95 340 -195q149 148 260 332zM217 500q77 52 148 135q85 -59 140 -89q-64 -63 -147 -137q-7 4 -141 91z
M524 238q-43 -73 -135 -161q-132 58 -199 106q69 50 157 124q89 -41 177 -69z" />
    <glyph glyph-name="nine" unicode="9" horiz-adv-x="639" 
d="M44 450l4 -16l-2 -2l17 -2q162 -46 215 -74q21 -10 80 -45l12 -8q-62 -142 -126 -285q-3 -2 -8 -3q-12 1 -21 6q14 -8 22 -40q7 -26 7 -48q0 -16 -5 -23q12 18 44.5 36.5t52.5 15.5q-9 6 -21 21q-1 4 -1 7q0 7 1 11v0q89 207 122 275q101 208 195 329l-25 14
q-121 68 -349 144l-42 -52q-11 -21 -78 -133q-20 -34 -94 -128zM170 508l44 76q22 37 52 74q96 -30 118 -38q61 -23 127 -62q-46 -70 -92 -159q-139 86 -249 109z" />
    <glyph glyph-name="colon" unicode=":" horiz-adv-x="173" 
d="M90 467q0 -18 -26 -42t-44 -23q18 -1 42.5 -27t24.5 -44q0 17 26 41.5t43 23.5q-17 1 -41.5 27.5t-24.5 43.5zM90 132q0 -18 -26 -42t-44 -23q18 -1 42.5 -27t24.5 -44q0 17 26 41.5t43 23.5q-17 1 -41.5 27.5t-24.5 43.5z" />
    <glyph glyph-name="semicolon" unicode=";" horiz-adv-x="179" 
d="M156 66q-17 0 -42 27t-24 44q-1 -18 -26.5 -42t-43.5 -23q23 -1 51 -38q4 -37 -9 -89q6 9 14 9q5 0 15.5 -5t15.5 -5q3 0 5 1q-12 52 -9 87q30 35 53 34zM90 467q0 -18 -26 -42t-44 -23q18 -1 42.5 -27t24.5 -44q0 17 26 41.5t43 23.5q-17 1 -41.5 27.5t-24.5 43.5z" />
    <glyph glyph-name="less" unicode="&#x3c;" horiz-adv-x="546" 
d="M512 569l-159 -65q-102 -42 -229 -80h-4l-2 -2h-2l1 -1l-71 -82q123 -15 361 -153q21 -21 50 -47l99 80q-91 64 -179 113q-72 40 -140 51q161 47 289 102l14 6q-3 -3 -5 -3q-9 0 -16 35q-8 43 -7 46z" />
    <glyph glyph-name="equal" unicode="=" horiz-adv-x="665" 
d="M598 470q-32 -2 -60 5q-65 5 -181 46q-128 45 -187 54l-88 -124q15 17 58 20q31 2 60 -5q25 -2 118 -29q126 -52 250 -71l88 124q-15 -17 -58 -20zM598 308q-32 -2 -60 5q-65 5 -182 47q-126 45 -186 53l-88 -123q15 16 58 19q35 2 90 -9q3 -1 88 -25q126 -52 250 -71
l88 124q-15 -17 -58 -20z" />
    <glyph glyph-name="greater" unicode="&#x3e;" horiz-adv-x="552" 
d="M90 139q113 47 160 65q131 51 228 80h4l2 2l3 1l-2 1l71 82q-123 15 -361 153q-21 21 -50 47l-99 -81q91 -64 179 -113q70 -39 141 -50q-193 -57 -290 -102l-13 -6q0 15 12.5 -30t14.5 -49z" />
    <glyph glyph-name="question" unicode="?" horiz-adv-x="514" 
d="M142 750l-111 -44q28 -21 167 -140q101 -86 176 -130q-107 -39 -269 -111q1 -12 11 -66q7 -42 7 -65q0 -13 -2 -22h53q-3 10 -3 33q0 57 9 67q15 16 137 66q111 45 149 56q4 1 6 4l58 82q-64 10 -204 116q-98 74 -184 154zM146 123q0 -19 -28 -45t-47 -25q20 -1 46.5 -29
t25.5 -48q1 19 28.5 45t46.5 25q-18 1 -45 30t-27 47z" />
    <glyph glyph-name="at" unicode="@" 
 />
    <glyph glyph-name="A" unicode="A" horiz-adv-x="618" 
d="M221 664h17q14 0 26 -14l4 -21q0 -91 -94 -310q-83 -193 -152 -297q-7 -1 -15 -1q-12 0 -26 3q24 -10 24 -63q0 -26 -5 -46q16 19 48 34.5t56 15.5q6 0 11 -1q-13 9 -33 32l4 16q11 25 38 68q32 53 40 67q89 170 145 365q86 -294 209 -555l87 57q-166 343 -248 718z
M301 301q0 -15 -37 -36q-33 -19 -52 -20h3q24 0 53 -14q34 -16 35 -37q-1 19 34 38q30 17 52 19h-5q-23 0 -50 14q-32 16 -33 36z" />
    <glyph glyph-name="B" unicode="B" horiz-adv-x="537" 
d="M200 717l-10 10l-103 -41l52 -44q4 -3 14 -12q7 -78 12 -205l-51 -38q9 -7 54 -47q4 -139 4 -289q-63 -36 -96 -67v0q-6 -6 -14 -6q-16 6 -25 16q7 -8 7 -29q0 -65 -24 -83q30 23 75 23q21 0 28 -9q-7 9 -11 32v0q0 3 1 7l2 2l4 5l2 1h-1q70 68 371 179v0l56 80
q-59 9 -218 130q72 33 161 65h2l2 2l2 1l-1 1l54 76q-70 9 -187 98q-83 63 -162 142zM220 77q0 110 3 215q103 -85 182 -132q-105 -41 -185 -83zM274 377q-24 20 -47 40q3 79 7 142q98 -80 173 -124q-72 -29 -133 -58z" />
    <glyph glyph-name="C" unicode="C" horiz-adv-x="657" 
d="M558 799q6 -8 12 -27q-1 -4 -6 -16v0q-166 -168 -380 -307v1q-44 -24 -55 -28l-59 -21l-50 -14l147 -139q136 -129 339 -290l147 77q-41 -3 -90 15q-11 6 -27 16q-186 150 -336 286q-2 6 -2 13q1 7 18 21h-1q228 146 405 327q4 3 12 2q11 -5 17 -13q-6 8 -6 30
q0 64 23 82q-27 -21 -77 -21q-20 0 -31 6z" />
    <glyph glyph-name="D" unicode="D" horiz-adv-x="564" 
d="M457 394q-132 92 -334 386l-85 -31l69 -103q15 -194 15 -577q-32 -35 -57 -66v1q-1 -2 -2 -5q-5 -6 -13 -4q-10 6 -17 16q5 -8 5 -30q0 -64 -18 -82q21 21 60 21q16 0 25 -6q-5 8 -9 25v0q-2 5 4 22q139 187 357 301v0l131 56q-27 11 -87 46q-5 3 -44 30zM169 557
q89 -120 224 -239l-2 -1l6 -3l3 -3q4 -4 5 -8q-125 -72 -246 -195q2 269 10 449z" />
    <glyph glyph-name="E" unicode="E" horiz-adv-x="481" 
d="M167 129q-21 7 -25 22q1 97 4 186q128 -28 199 -28q44 0 55 13l13 97q-11 -13 -55 -13q-67 0 -186 25q-23 8 -22 29q3 97 10 167q156 -36 234 -36q43 0 53 13l13 97q-6 -16 -51 -16q-93 0 -312 57l-77 -83q2 -1 55 -12q20 -206 20 -585l-2 -13q226 -60 314 -60
q39 0 43 14l13 96q-4 -12 -43 -12q-76 0 -253 42z" />
    <glyph glyph-name="F" unicode="F" horiz-adv-x="429" 
d="M98 744l-78 -84q37 -6 73 -15l4 -1q15 -200 17 -608q-1 -11 -11 -21q-24 -13 -38 -14q20 1 43 -34t24 -57q-1 23 27.5 56.5t51.5 34.5q-20 -1 -44 15q-6 4 -6 18q0 129 4 300q115 -23 180 -23q45 0 55 12l13 97q-10 -12 -55 -12q-67 0 -186 24l-4 2q4 111 9 190
q143 -32 217 -32q44 0 53 13l13 97q-6 -15 -51 -15q-93 0 -311 57z" />
    <glyph glyph-name="G" unicode="G" horiz-adv-x="806" 
d="M724 280q-58 24 -73 31q-36 17 -67 45q-21 11 -43 46q-20 32 -27 59l-26 -163q48 -53 165 -105q1 -2 2 -6q0 -4 -10 -16h1q-65 -56 -137 -108q-117 52 -319 285v0q-9 7 -8 22q1 6 5 12q167 97 304 237q95 -102 164 -140l140 88q-7 -4 -20 -4q-24 0 -47 8q-41 14 -58 30
q-48 25 -119 108v0l-29 36q-195 -205 -357 -302q-19 -11 -95 -38v-1l-50 -14q91 -111 138 -162q162 -175 313 -266l1 1v-1q192 125 344 280z" />
    <glyph glyph-name="H" unicode="H" horiz-adv-x="666" 
d="M532 350l-15 3q-102 20 -168 47q-89 36 -205 57q6 182 19 291l-131 -43q2 -1 9 -2q18 -3 29 -18q10 -91 16 -266l-66 -92q19 22 68 22q3 -154 2 -318v0q0 -24 -41 -36q21 -5 41 -38t21 -57q-1 21 24.5 56.5t45.5 39.5q-16 2 -36 15q-8 8 -8 17v3q0 176 3 314q5 -1 9 -1
q91 -16 128 -32q118 -51 257 -75v-211q0 -1 -3 -3q-20 -19 -41 -21q20 -5 43.5 -39.5t22.5 -55.5q1 21 24 54.5t42 38.5q-14 4 -30 17v0q-11 8 -11 19q-1 99 2 246l62 87q-15 -16 -61 -21q7 259 24 400l-132 -43q32 -4 38 -20q13 -124 18 -335z" />
    <glyph glyph-name="I" unicode="I" horiz-adv-x="208" 
d="M78 37h-1q2 -14 -6 -21q-25 -14 -39 -15q22 1 50 -48q16 -28 16 -45q-1 23 25 57t49 35q-17 -1 -37 12q-11 7 -11 20q-2 461 27 714l-131 -43q2 -1 8 -1q21 -2 30 -19q22 -203 20 -646z" />
    <glyph glyph-name="J" unicode="J" horiz-adv-x="411" 
d="M293 68q-19 -14 -40 -28q-9 -3 -20 -3q-22 0 -63 9q-15 5 -51 27q-13 8 -36 31q-33 40 -36 65l-26 -164q-8 -16 156 -65l1 -1h2v1q96 54 149 93l11 8q-4 415 26 703l-131 -43q7 -1 21 -4q11 -5 16 -16q21 -188 21 -613z" />
    <glyph glyph-name="K" unicode="K" horiz-adv-x="632" 
d="M77 28v0q1 -9 -8 -18q-16 -12 -31 -16q20 -5 39.5 -37.5t20.5 -55.5q-1 24 23.5 57t48.5 38q-17 2 -38 15h1q-6 5 -8 9q-2 5 0 12h-1q0 129 2 232q52 32 101 69q40 -67 64 -103q80 -119 201 -253l157 51q-21 -4 -64 21q-32 23 -49 43q-20 17 -92 109q-82 104 -112 157
q-4 9 -24 45q132 124 204 261h1v1q6 14 27 14q13 0 22 -5q-12 9 -21 39q-8 26 -8 45q0 16 4 22q-11 -19 -42.5 -36t-53.5 -15q8 -4 17 -16q3 -5 3 -10q0 -3 -1 -11v0q-116 -211 -333 -352q7 262 24 404l-131 -43q32 -4 37 -21q23 -212 20 -652z" />
    <glyph glyph-name="L" unicode="L" horiz-adv-x="443" 
d="M80 21l14 -3q48 -11 191 -42q78 -17 114 -17q34 0 33 12l32 98q-4 -13 -43 -13q-81 0 -276 49q-14 9 -17 19q-2 5 -2 25v0q2 401 25 600l-131 -43q32 -4 39 -20q24 -255 21 -665z" />
    <glyph glyph-name="M" unicode="M" horiz-adv-x="920" 
d="M753 -18l165 -3q-21 2 -54 40q-10 15 -32 56q-39 73 -111 257q-100 256 -123 432l-90 -64q4 -43 15 -96q-23 -177 -83 -377q-143 340 -156 477q-8 37 -10 60l-52 -36l-39 -28q5 -52 21 -118q-9 -70 -64 -291q-62 -249 -90 -274q-3 -2 -6 -5q-13 -5 -24 -7q19 -6 32 -40.5
t11 -57.5q1 24 32 53.5t56 31.5q-8 2 -17 7v0q-8 8 -8 15q75 200 119 420q21 -60 51 -142q64 -172 132 -310l166 -3q-41 3 -87 96q-11 22 -25 54q53 160 85 314q74 -230 186 -461z" />
    <glyph glyph-name="N" unicode="N" horiz-adv-x="657" 
d="M618 2q-6 4 -37 33q0 489 27 714l-131 -43q11 -2 25 -4l12 -16q21 -188 21 -604q-289 289 -419 622q-5 13 -25 55l-41 -47l-30 -38q13 -37 29 -76q18 -207 15 -560q0 -7 -11 -18v0q-14 -10 -28 -14q21 -4 41 -38q19 -30 20 -54q-1 24 23.5 56.5t48.5 37.5q-20 2 -41 18
q-4 4 -5 7q-1 225 7 422q185 -318 400 -518l185 47q-11 -2 -21 -2q-36 0 -65 20z" />
    <glyph glyph-name="O" unicode="O" horiz-adv-x="897" 
d="M852 411q-78 42 -184 170l-175 210l-36 -42q-9 -9 -33 -37l-110 -132q-78 -94 -210 -169l-84 -48l175 -215q83 -102 229 -202l28 21q142 84 251 193q32 32 133 144v0l72 77q-12 6 -56 30zM466 66q-146 103 -298 304q146 96 297 270l122 -154q58 -73 166 -155
q-88 -96 -115 -123q-80 -79 -172 -142z" />
    <glyph glyph-name="P" unicode="P" horiz-adv-x="452" 
d="M134 750q-2 2 -11 9l-103 -41q24 -20 52 -43q3 -2 14 -13q23 -202 21 -628q-1 -8 -10 -17q-15 -9 -29 -13q20 -5 39.5 -37.5t20.5 -55.5q-1 24 23.5 57t48.5 37q-19 2 -39 16q-7 7 -8 14q0 144 3 277q106 58 267 118h3l1 2h2v2l53 76q-42 6 -131 69q-58 41 -217 171z
M159 392q3 112 9 200q96 -80 171 -123q-117 -45 -180 -77z" />
    <glyph glyph-name="Q" unicode="Q" horiz-adv-x="923" 
d="M827 63q-22 8 -38 16q-24 12 -97 60q44 42 87 91l57 65l72 77q-1 0 -2 1l2 3q-9 5 -56 30q-78 42 -184 169l-175 211l-36 -43q-11 -12 -33 -37l-110 -131q-77 -91 -210 -169l-84 -49l2 -2l-2 -2l175 -215q84 -103 229 -201l33 23q84 58 162 115q90 -72 150 -104l147 77
q-40 -3 -89 15zM632 197q-27 30 -58 70l-88 -55q33 -42 72 -81q-45 -38 -92 -70q-146 102 -298 303q145 96 297 271l122 -154q58 -73 165 -156q-35 -40 -120 -128z" />
    <glyph glyph-name="R" unicode="R" horiz-adv-x="578" 
d="M369 196q-57 89 -88 177q65 28 142 57h2l2 2h2l-1 2l53 76q-44 6 -132 70q-60 42 -216 170q-3 2 -11 9l-102 -41q24 -20 52 -43q2 -2 14 -13q22 -202 20 -628q0 -8 -9 -17q-15 -9 -29 -13q20 -5 39.5 -37.5t20.5 -55.5q-1 24 23.5 57t48.5 37q-19 2 -39 16q-7 7 -8 14
q0 144 3 277q13 8 28 15q98 -213 231 -343l165 49q-61 11 -104 37q-8 5 -35.5 31t-71.5 95zM168 592q96 -80 171 -123q-117 -45 -181 -77q4 112 10 200z" />
    <glyph glyph-name="S" unicode="S" horiz-adv-x="639" 
d="M311 640q180 -95 221 -95q7 0 9 3l110 120q-35 -16 -89 -15q-69 1 -129 31q-24 12 -127 72l-44 -68q-72 -111 -174 -189l-68 -52q50 -25 90 -51q152 -99 407 -144q-36 -81 -122 -184q-91 29 -124 41q-66 24 -136 69q-3 1 -13 6l-89 -63q4 -2 13 -6q111 -68 220 -108
q28 -10 137 -43l42 52q59 73 168 277q2 2 12 23t10 23l-80 12l-1 1h-1l-14 2v-1q-85 11 -188 55q-149 64 -177 73q73 64 137 159z" />
    <glyph glyph-name="T" unicode="T" horiz-adv-x="642" 
d="M98 764l-78 -84q20 -3 73 -15l195 -51q17 -167 16 -578q-1 -8 -10 -16q-15 -9 -29 -13q20 -5 39.5 -38t20.5 -56q-1 24 23.5 57t48.5 38q-19 2 -39 16q-7 6 -8 13q0 336 15 560q123 -23 197 -23q57 0 69 16l13 97q-5 -14 -50 -14q-126 0 -496 91z" />
    <glyph glyph-name="U" unicode="U" horiz-adv-x="658" 
d="M20 697l131 43q-19 -168 -25 -498q4 -23 25 -42h-1q58 -52 91 -76q63 -46 105 -54q124 101 196 137l6 3q-3 314 -20 467q-3 14 -38 20l132 43q-26 -211 -26 -565v-12l-46 -27q-82 -48 -190 -136l-4 1l-40 -33q-28 -8 -207 136l-31 25v8q0 360 -20 540q-5 14 -38 20z" />
    <glyph glyph-name="V" unicode="V" horiz-adv-x="548" 
d="M522 801q-4 -22 -26 -51.5t-42 -34.5q9 -1 23 -9q4 -3 7 -10q-48 -346 -155 -580q-192 430 -208 593q-7 37 -10 60l-91 -64q16 -151 118 -414q15 -38 131 -311l23 -54q1 2 4 6l135 38q-21 2 -54 40q-7 10 -16 34q130 259 184 641l1 -1q-1 9 2 14l4 4q19 13 35 11
q-18 3 -43 36.5t-22 51.5z" />
    <glyph glyph-name="W" unicode="W" horiz-adv-x="944" 
d="M879 797q-2 -21 -37 -51.5t-57 -33.5q13 -3 26 -13q7 -7 6 -14q0 -1 -1 -3v-1q-36 -252 -156 -548q-153 413 -163 576q-1 14 -6 60l-94 -64q2 -67 20 -159q-34 -205 -122 -442q-168 436 -174 604q-5 38 -6 60l-54 -35l-41 -29q7 -215 203 -727l18 -47l141 39
q-21 3 -51 40q79 196 125 381q61 -216 143 -413l19 -46l141 39q-22 2 -52 40q-5 9 -12 30q143 336 187 636v0q2 7 7 12q3 2 9 7v0q10 3 18 4q-17 7 -29 44q-11 33 -8 54z" />
    <glyph glyph-name="X" unicode="X" horiz-adv-x="624" 
d="M503 63q-86 104 -183 271q103 191 168 355l4 -1q3 9 17 16v0q10 2 18 2q-13 9 -21 40q-7 25 -7 46q0 11 2 18q-4 -24 -39.5 -47.5t-61.5 -22.5q12 -5 24 -17q3 -4 4 -7q-61 -144 -149 -310q-96 180 -142 314l-20 58l-78 -78q61 -204 178 -407q-149 -266 -166 -272
q-5 -2 -11 -1v-1q-11 4 -20 12q13 -13 13 -58q0 -43 -11 -55q32 34 88 34q9 0 16 -2q-6 5 -13 18q-1 7 0 13q1 5 3 9q65 99 142 233q81 -127 103 -155q29 -37 68 -93l29 -42l137 68q-4 -1 -8 -1q-48 0 -84 63z" />
    <glyph glyph-name="Y" unicode="Y" horiz-adv-x="605" 
d="M648 712q-20 15 -20 73q0 21 4 33q-6 -22 -45 -42t-63 -17q11 -6 21 -17q3 -6 3 -8q-1 -2 -3 -7q-97 -188 -209 -318q-91 95 -205 298q-8 21 -21 49l-90 -50l29 -51q129 -227 221 -316v-1l7 -5l3 -3q11 -112 17 -300h-1q0 -23 -34 -31q22 -4 41 -38q18 -30 19 -55
q-1 24 23.5 57t48.5 38q-17 1 -35 13v0q-7 8 -9 20v0q5 188 16 312q137 150 240 357q3 4 14 9q12 1 28 0z" />
    <glyph glyph-name="Z" unicode="Z" horiz-adv-x="691" 
d="M623 62q-39 -2 -65 5q-58 4 -168 47q-57 22 -100 34v0q-23 5 -26 18q-1 5 10 21q183 168 308 333h2l96 134q-17 -18 -64 -21q-35 -2 -65 5q-47 4 -117 28q-120 42 -140 48q-77 23 -144 33l-96 -135q17 19 64 22q36 2 65 -5q65 -5 129 -32q90 -38 194 -62
q-141 -181 -346 -359v0l-140 -122l105 9q33 3 65 -5q19 -1 129 -32q126 -55 272 -77l96 134q-17 -18 -64 -21z" />
    <glyph glyph-name="backslash" unicode="\" horiz-adv-x="451" 
d="M381 24q-29 49 -119 277q-109 276 -133 466l-56 -38l-42 -31q12 -90 44 -205q75 -270 221 -571l178 -3q-50 6 -93 105z" />
    <glyph glyph-name="asciicircum" unicode="^" horiz-adv-x="424" 
d="M204 610q-39 -70 -126 -142l-32 54q77 68 131 155q6 10 26 41l29 43q46 -95 91 -144q27 -30 84 -66l-80 -94q-11 -9 -57 52q-40 53 -66 101z" />
    <glyph glyph-name="grave" unicode="`" horiz-adv-x="219" 
d="M77 570q11 13 48 14q36 1 48 -11q-11 11 -13 47t10 48q-15 -16 -62 -13q-30 21 -61 65q1 -4 1 -7q0 -6 -14 -16l-20 -15q47 -25 72 -50q2 -14 2 -25q0 -26 -11 -37z" />
    <glyph glyph-name="a" unicode="a" horiz-adv-x="548" 
d="M443 -36q-71 152 -128 321q-14 40 -37 117q-62 -215 -175 -392q-4 -8 -3 -11q0 7 10 -7q13 -17 16 -18l-1 -3q-4 1 -8 1q-17 0 -47 -13.5t-36 -26.5l-3 2q4 10 4 29q0 49 -19 56l2 4q7 -3 17 -3q7 0 14 1q34 49 54 90q63 124 109 263q20 60 32 128q3 18 -15 23
q-13 4 -32 1l121 61q65 -301 198 -575zM276 155h-4q-1 17 -29 29q-24 11 -43 10v4q15 1 42.5 16.5t27.5 27.5h4q1 -16 26 -28t43 -11v-4q-18 -1 -41 -14q-27 -15 -26 -30z" />
    <glyph glyph-name="b" unicode="b" horiz-adv-x="439" 
d="M102 -42h4l-8 -4l-3 -4l-2 -1v-5q3 -17 9 -25l-3 -2q-6 7 -22 7q-35 0 -59 -19l-2 4q19 14 19 65q0 16 -6 22l3 3q8 -8 20 -13q5 0 9 4q25 24 75 53q0 118 -3 228q-35 31 -44 38l42 31q-4 100 -10 161q-3 3 -10 9l-44 38l86 34q186 -186 288 -200l-44 -61l2 -2l-4 -2
l-2 -2h-2q-69 -25 -124 -50q123 -94 172 -101l-46 -67q-232 -86 -291 -139zM189 442q-3 -48 -5 -108q17 -15 36 -30q46 22 100 44q-57 34 -131 94zM181 230q-3 -81 -3 -164q62 32 141 63q-61 37 -138 101z" />
    <glyph glyph-name="c" unicode="c" horiz-adv-x="555" 
d="M515 584q0 -17 4 -23l-3 -3q-5 7 -13 11q-5 0 -7 -2q-140 -143 -319 -258l-1 2q-14 -15 -15 -19q0 -5 2 -9q119 -108 266 -227q3 -3 21 -13q38 -14 80 -11l-126 -66q-146 116 -271 232q-50 47 -119 113l43 12q43 12 93 40v0q168 109 298 241q4 9 5 12q-5 14 -15 27
q16 -9 32 -9q39 0 60 17l3 -3q-18 -14 -18 -64z" />
    <glyph glyph-name="d" unicode="d" horiz-adv-x="451" 
d="M365 208q-153 -66 -282 -238q-4 -13 -3 -16q3 -14 12 -28q-14 10 -26 10q-31 0 -47 -17l-3 3q14 14 14 64q0 17 -4 24l3 2q6 -8 14 -13q5 -1 13 14v-3q18 22 41 47q0 303 -12 458l-56 83l71 26q156 -228 266 -307q8 -6 34 -24q35 -24 74 -38zM318 248l-2 2l-8 4l2 1
q-103 92 -172 184q-6 -140 -8 -347q94 95 191 151q-1 2 -3 5z" />
    <glyph glyph-name="e" unicode="e" horiz-adv-x="411" 
d="M360 4q-4 -13 -36 -13q-70 0 -251 48l2 13q0 299 -15 462q-41 9 -45 11l63 69q174 -46 248 -46q34 0 44 28l-12 -95q-9 -11 -44 -11q-62 0 -183 28l-8 -131q-1 -15 16 -21q94 -19 146 -19q34 0 47 14l-12 -84q-9 -11 -45 -11q-56 0 -155 21q-3 -69 -4 -145q3 -12 19 -16
q135 -33 199 -33q30 0 33 9l3 -1z" />
    <glyph glyph-name="f" unicode="f" horiz-adv-x="350" 
d="M358 482q-8 -12 -44 -12q-58 0 -170 25q-4 -61 -7 -147l2 -1q93 -19 146 -19q35 0 47 14l-12 -84q-8 -11 -45 -11q-51 0 -140 18q-4 -135 -4 -236q0 -10 4 -13q18 -12 35 -12v-4q-15 0 -38.5 -28t-22.5 -43h-4q-1 19 -18 45.5t-34 25.5l-1 4q12 1 30 11q8 7 8 15
q0 310 -13 482q-23 6 -63 13l65 70q173 -45 247 -45q34 0 44 25z" />
    <glyph glyph-name="g" unicode="g" horiz-adv-x="651" 
d="M511 137q2 1 10 13q-1 2 -1 4q-93 41 -132 84l22 140q18 -71 58 -92q25 -22 52 -35q19 -9 58 -25l76 -31q-123 -126 -279 -227v2q-118 73 -249 212q-49 52 -111 131l41 12q24 7 76 31q130 76 285 241l25 -30q54 -65 94 -86q33 -30 82 -30q10 0 16 4l2 -4l-113 -71
q-56 31 -131 111q-108 -110 -240 -187q-3 -4 -3 -8q-1 -11 5 -16q160 -184 252 -226q64 46 105 83z" />
    <glyph glyph-name="h" unicode="h" horiz-adv-x="550" 
d="M467 225l-2 -195q0 -17 38 -29q-19 -5 -38 -30t-20 -45l-4 1q1 22 -19.5 46.5t-42.5 30.5q28 3 43 17l2 1v166q-109 19 -203 60q-34 15 -106 26q-2 -109 -2 -248v-2q0 -7 5 -12q16 -10 40 -13q-21 -4 -44 -30.5t-22 -47.5h-4q-1 23 -17.5 47.5t-37.5 28.5q19 6 31 16
q8 5 8 13q0 131 -2 251q-36 0 -51 -17l-3 2l52 73q-4 138 -12 211q-12 17 -34 17l112 36q-11 -89 -16 -232q90 -17 162 -46q53 -21 142 -39q-4 167 -14 264q-5 11 -37 15l116 38q-14 -114 -19 -318q34 4 45 16l3 -2z" />
    <glyph glyph-name="i" unicode="i" horiz-adv-x="170" 
d="M80 -73h-4q0 20 -15 45q-17 29 -35 28v4q12 1 30 12q6 5 4 17h1q0 359 -16 511q-6 12 -21 14q-6 0 -10 3l108 37q-23 -180 -22 -571q0 -9 8 -14q15 -10 28 -9l1 -4q-15 -1 -36 -29t-21 -44z" />
    <glyph glyph-name="j" unicode="j" horiz-adv-x="328" 
d="M272 33l-9 -7q-40 -31 -117 -73v-2h-4l-1 1q-131 40 -124 54l23 145q4 -34 29 -65q20 -20 28 -25q26 -16 40 -21q32 -7 49 -7q8 0 15 2q16 11 30 22q0 336 -16 486q-6 11 -36 15l114 38q-24 -232 -21 -563z" />
    <glyph glyph-name="k" unicode="k" horiz-adv-x="527" 
d="M392 -19q-97 109 -161 202q-14 21 -49 80q-38 -28 -78 -53v-37q-1 -100 -1 -144q0 -13 8 -19q14 -8 37 -11q-21 -5 -44 -30.5t-22 -46.5h-4q-1 22 -17.5 46t-36.5 29q19 5 32 14q6 6 5 13q3 350 -16 518q-4 12 -36 16l115 38q-13 -115 -19 -320q169 111 260 277q1 6 1 8
q0 3 -2 7q-7 9 -22 16q23 -2 48.5 9.5t36.5 30.5l4 -2q-4 -5 -4 -18q0 -47 23 -65l-2 -4q-8 5 -17 5q-15 0 -20 -10v-2h-1q-57 -108 -161 -206q15 -28 18 -35q25 -42 89 -124q36 -46 52 -64q34 -38 59 -57q34 -19 51 -16l1 -4z" />
    <glyph glyph-name="l" unicode="l" horiz-adv-x="374" 
d="M346 -22q0 -11 -28 -11q-42 0 -127 20l-128 30q3 327 -16 530q-5 11 -38 15l115 38q-19 -187 -20 -480q0 -15 1 -19q2 -7 13 -14q153 -39 217 -39q30 0 33 10l3 -1z" />
    <glyph glyph-name="m" unicode="m" horiz-adv-x="749" 
d="M733 -17l-133 2q-88 182 -146 361q-26 -119 -66 -242q7 -17 19 -42q35 -73 69 -75v-4l-135 2q-62 133 -105 248q-1 4 -38 106q-35 -171 -94 -327q3 -10 30 -18q-23 -2 -51 -24t-29 -44l-4 1q2 17 -6 40t-21 32q-5 5 -13 7q16 3 26 7q2 2 5 4q23 20 71 216q42 171 50 231
q-12 53 -16 95l32 23l44 31q2 -22 8 -51q10 -108 122 -374q46 156 64 294q-9 42 -12 77l75 54q6 -29 9 -51q14 -105 90 -296q55 -139 88 -204q13 -25 25 -44q26 -30 43 -31z" />
    <glyph glyph-name="n" unicode="n" horiz-adv-x="525" 
d="M414 -51q-170 158 -316 408q-6 -154 -5 -329q1 -2 3 -4q16 -13 43 -15q-21 -6 -44 -31t-23 -46h-4q0 22 -16.5 46t-37.5 28q18 5 29 13q8 8 8 13q2 274 -12 445q-13 31 -23 61l24 31l35 40q14 -29 21 -47q101 -261 329 -490q0 325 -17 474l-8 12q-11 2 -27 4l114 38
q-21 -182 -21 -570q22 -21 28 -25q24 -16 51 -16q7 0 17 2l1 -4z" />
    <glyph glyph-name="o" unicode="o" horiz-adv-x="722" 
d="M669 242q-115 -123 -140 -146q-72 -67 -166 -122l-24 -18q-116 80 -183 162l-141 173l69 39q102 58 166 134l88 105q7 8 26 30l30 35l141 -169q85 -102 146 -135q37 -20 47 -25zM467 387l-95 121q-119 -137 -233 -213q119 -157 234 -238q103 67 225 208q-88 67 -131 122z
" />
    <glyph glyph-name="p" unicode="p" horiz-adv-x="380" 
d="M344 346v-3h-3v-1h-4q-126 -48 -209 -93q-3 -106 -3 -220q1 -4 6 -9q15 -11 42 -14q-21 -4 -44.5 -29.5t-23.5 -46.5h-3q-1 22 -17.5 46t-36.5 29q18 5 30 12q6 6 7 12q0 347 -17 498l-10 10q-23 19 -44 36l86 34q3 -2 10 -7l171 -136q61 -48 106 -55zM137 468
q-5 -67 -7 -151q49 24 136 58q-57 33 -129 93z" />
    <glyph glyph-name="q" unicode="q" horiz-adv-x="748" 
d="M614 -24q-49 26 -120 83q-58 -44 -127 -91l-28 -19q-116 79 -183 161l-141 173l2 1l-2 2l69 40q102 59 166 134l88 104q7 8 26 30l30 36l141 -170q86 -104 146 -134q8 -4 46 -25l-1 -1h3l-60 -65l-46 -52q-31 -35 -67 -70q47 -32 75 -47q5 -3 30 -12q40 -15 79 -11z
M468 383q-24 27 -96 121q-119 -137 -233 -213q119 -158 234 -238q36 24 70 53q-30 30 -57 65l73 46q25 -32 46 -56q65 67 92 99q-65 51 -129 123z" />
    <glyph glyph-name="r" unicode="r" horiz-adv-x="473" 
d="M331 -13q-107 104 -184 272q-10 -5 -19 -10q-3 -106 -3 -220q1 -4 6 -9q15 -11 42 -14q-21 -4 -44.5 -29.5t-22.5 -46.5h-4q-1 21 -17.5 45.5t-35.5 29.5q17 5 29 12q6 6 6 12q2 338 -16 498q-9 8 -10 10q-23 19 -44 36l85 34q5 -2 10 -7q202 -181 278 -191l-43 -62l1 -4
h-3l-2 -1h-2q-60 -23 -111 -45q19 -53 55 -117q42 -73 75 -102q40 -35 114 -50zM137 468q-4 -67 -7 -151q49 24 136 58q-57 33 -129 93z" />
    <glyph glyph-name="s" unicode="s" horiz-adv-x="535" 
d="M428 285v1l13 -2h2l1 -1l64 -10q0 -3 -7.5 -19.5t-10.5 -19.5q-82 -158 -133 -221l-34 -42l-110 34q-74 23 -175 86l-14 7l75 52l3 -1q3 -2 8 -4q61 -37 108 -55q12 -5 97 -32q66 80 95 143q-195 36 -322 114q-11 7 -74 42l57 43q77 58 137 150l36 55q85 -49 103 -58
q46 -23 101 -24q43 -1 79 16l-94 -103q-2 -3 -9 -3q-32 0 -174 75q-50 -73 -106 -123q1 0 1 -1q131 -79 283 -99z" />
    <glyph glyph-name="t" unicode="t" horiz-adv-x="544" 
d="M505 470q-11 -14 -57 -14q-58 0 -154 18q-12 -178 -12 -443q1 -5 5 -9q16 -11 41 -13q-22 -6 -44.5 -31t-21.5 -47h-4q-1 22 -17 46.5t-36 29.5q18 5 29 12q7 6 7 11q0 309 -12 458l-154 41q-15 4 -61 12l65 70q295 -72 395 -72q34 0 44 27z" />
    <glyph glyph-name="u" unicode="u" horiz-adv-x="518" 
d="M477 141v-11l-38 -22q-45 -26 -87 -58l-64 -50h-3l-31 -25q-23 -7 -167 108l-25 20v8q0 286 -16 429q-4 12 -21 13q-10 0 -15 2l114 38q-15 -137 -20 -399q3 -17 23 -35h-1q43 -39 68 -57q50 -36 82 -42q98 79 159 110q-3 249 -16 370q-3 12 -21 13q-10 0 -15 2l115 38
q-21 -171 -21 -452z" />
    <glyph glyph-name="v" unicode="v" horiz-adv-x="517" 
d="M468 567q-12 1 -27 -9l-3 -2q-1 -2 -1 -6t1 -10l-2 2q-43 -301 -145 -505q6 -19 12 -26q25 -30 52 -32l-117 -33q-2 -3 -4 -8l-20 47l-104 247q-79 187 -94 331l76 54q2 -22 8 -51q13 -129 163 -467q83 184 121 456q-5 12 -33 15q22 5 40.5 26t22.5 44l4 -1
q-2 -15 17 -40.5t34 -27.5z" />
    <glyph glyph-name="w" unicode="w" horiz-adv-x="785" 
d="M706 539q-35 -240 -149 -506q5 -16 9 -22q22 -30 51 -32l-124 -35l-21 50q-60 143 -107 310q-36 -143 -97 -295q23 -28 48 -31l-123 -34l-15 39q-156 406 -162 580l33 23l46 30q1 -21 5 -51q5 -132 137 -475q68 185 95 346q-14 73 -16 127l78 54q4 -20 5 -51
q6 -125 128 -453q94 232 122 431v1q1 1 1 2q1 4 -4 9q-10 8 -30 12q22 3 52 26t31 43l4 -1q-2 -22 7 -45q10 -27 29 -34q-15 -2 -19 -4q-8 -4 -14 -14z" />
    <glyph glyph-name="x" unicode="x" horiz-adv-x="516" 
d="M32 20v0q6 -1 10 0q13 5 130 215q-93 161 -141 324l65 65q54 -155 127 -295q69 130 116 242q0 10 -31 22q22 -1 54 16.5t36 37.5l4 -1q-2 -6 -2 -14q0 -53 27 -71q-13 0 -20 -1q-11 -5 -13 -13h-4q-51 -129 -132 -280q47 -81 96 -150q17 -25 49 -64q27 -49 65 -49
q3 0 23 5l-126 -63l-24 35q-13 18 -53 75l-81 119q-56 -99 -111 -182q-4 -6 -2 -16q5 -10 17 -20q-15 4 -22 4q-44 0 -69 -27l-3 3q9 10 9 43q0 35 -10 46l3 2q6 -5 13 -8z" />
    <glyph glyph-name="y" unicode="y" horiz-adv-x="555" 
d="M495 566q-8 -4 -10 -6q-82 -165 -190 -284q-9 -99 -13 -247q1 -9 6 -15q14 -9 39 -10q-24 -6 -46 -30t-21 -48h-4q-1 23 -17.5 47t-37.5 28q34 8 34 26h1q-5 148 -14 236l-1 2l-7 4v1q-71 70 -175 252l-24 42l75 42q12 -24 18 -41q89 -160 161 -235q88 103 164 251
q1 4 2 5q-1 2 -2 5q-8 8 -26 18q24 -3 56.5 10.5t38.5 34.5l4 -1q-3 -10 -3 -27q0 -45 20 -60q-19 1 -28 0z" />
    <glyph glyph-name="z" unicode="z" horiz-adv-x="573" 
d="M472 -41q-123 20 -217 62q-83 24 -102 25q-26 6 -51 4l-90 -8l116 101q159 138 272 283q-80 19 -151 49q-51 21 -102 25q-25 6 -51 4q-37 -3 -50 -18l-3 3l77 109q73 -12 134 -31q14 -5 53 -19q89 -34 133 -37q21 -6 51 -4q36 2 50 17l3 -3l-77 -108h-2
q-99 -131 -244 -264q-8 -12 -7 -15q2 -10 45 -23q25 -7 53 -17q101 -34 134 -37q21 -6 51 -4q36 2 50 17l3 -3z" />
    <glyph glyph-name="asciitilde" unicode="~" horiz-adv-x="423" 
d="M339 396q-35 0 -118.5 60.5t-104.5 60.5q-16 0 -29 -10l-63 -177q7 16 30 37t38 21q32 0 126.5 -61.5t113.5 -61.5q14 0 21 10l53 178q-7 -15 -30 -36t-37 -21z" />
    <glyph glyph-name="copyright" unicode="&#xa9;" horiz-adv-x="897" 
d="M908 381l-72 -77q-56 -61 -133 -144q-109 -109 -251 -193l-28 -21q-146 100 -229 202l-175 215l84 48q132 75 210 169l110 132q10 11 33 37l36 42l175 -210q108 -129 184 -170zM577 613q-16 -13 -46 -13q-12 0 -19 4q4 -5 7 -16q0 -3 -3 -10v0q-100 -101 -228 -184v0
q-26 -13 -33 -16l-36 -13l-30 -8l88 -84q70 -67 204 -174l88 46q-25 -1 -54 9q-7 4 -16 10q-112 90 -202 172q-1 3 -1 7q1 5 11 13h-1q137 88 243 196q3 2 7 1q7 -3 11 -7q-4 4 -4 18q0 38 14 49z" />
    <glyph glyph-name="registered" unicode="&#xae;" horiz-adv-x="897" 
d="M76 411q78 42 184 170l175 210l36 -42q9 -9 33 -37l110 -132q78 -94 210 -169l84 -48l-175 -215q-83 -102 -229 -202l-28 21q-142 84 -251 193q-32 32 -133 144v0l-72 77q12 6 56 30zM538 273q-36 56 -53 106q39 17 85 34h1l1 1h2l-1 1l32 46q-45 6 -114 64l-102 85
l-61 -24q15 -12 31 -26q2 -1 9 -8q13 -118 12 -376q0 -5 -6 -11q-9 -5 -17 -7q12 -4 23.5 -23t12.5 -33q-1 14 14 34t29 22q-11 1 -23 10q-4 4 -5 8q0 87 2 166q8 5 17 9q58 -128 138 -205l99 29q-36 7 -62 22q-5 3 -20.5 17.5t-43.5 58.5zM417 510q58 -48 103 -74
q-71 -27 -109 -46q2 67 6 120z" />
    <glyph glyph-name="Agrave" unicode="&#xc0;" horiz-adv-x="618" 
d="M221 664h17q14 0 26 -14l4 -21q0 -91 -94 -310q-83 -193 -152 -297q-7 -1 -15 -1q-12 0 -26 3q24 -10 24 -63q0 -26 -5 -46q16 19 48 34.5t56 15.5q6 0 11 -1q-13 9 -33 32l4 16q11 25 38 68q32 53 40 67q89 170 145 365q86 -294 209 -555l87 57q-166 343 -248 718z
M301 301q0 -15 -37 -36q-33 -19 -52 -20h3q24 0 53 -14q34 -16 35 -37q-1 19 34 38q30 17 52 19h-5q-23 0 -50 14q-32 16 -33 36zM314 794q11 13 48 14q36 1 48 -11q-12 12 -13 47q-2 36 10 48q-15 -16 -62 -13q-30 21 -61 65q1 -4 1 -7q0 -6 -14 -16l-20 -15q47 -25 72 -50
q2 -14 2 -25q0 -26 -11 -37z" />
    <glyph glyph-name="Aacute" unicode="&#xc1;" horiz-adv-x="618" 
d="M221 664h17q14 0 26 -14l4 -21q0 -91 -94 -310q-83 -193 -152 -297q-7 -1 -15 -1q-12 0 -26 3q24 -10 24 -63q0 -26 -5 -46q16 19 48 34.5t56 15.5q6 0 11 -1q-13 9 -33 32l4 16q11 25 38 68q32 53 40 67q89 170 145 365q86 -294 209 -555l87 57q-166 343 -248 718z
M301 301q0 -15 -37 -36q-33 -19 -52 -20h3q24 0 53 -14q34 -16 35 -37q-1 19 34 38q30 17 52 19h-5q-23 0 -50 14q-32 16 -33 36zM347 794q-11 13 -48 14q-36 1 -48 -11q11 11 13 47q2 37 -10 48q15 -16 62 -13q30 21 61 65q-1 -4 -1 -7q0 -6 14 -16l20 -15q-47 -25 -72 -50
q-2 -14 -2 -25q0 -26 11 -37z" />
    <glyph glyph-name="Acircumflex" unicode="&#xc2;" horiz-adv-x="618" 
d="M221 664h17q14 0 26 -14l4 -21q0 -91 -94 -310q-83 -193 -152 -297q-7 -1 -15 -1q-12 0 -26 3q24 -10 24 -63q0 -26 -5 -46q16 19 48 34.5t56 15.5q6 0 11 -1q-13 9 -33 32l4 16q11 25 38 68q32 53 40 67q89 170 145 365q86 -294 209 -555l87 57q-166 343 -248 718z
M301 301q0 -15 -37 -36q-33 -19 -52 -20h3q24 0 53 -14q34 -16 35 -37q-1 19 34 38q30 17 52 19h-5q-23 0 -50 14q-32 16 -33 36zM304 872q-26 -46 -85 -93l-21 35q51 44 88 102q1 2 18 27l19 28q29 -59 62 -94q21 -22 56 -44l-54 -61q-7 -6 -36 31t-47 69z" />
    <glyph glyph-name="Atilde" unicode="&#xc3;" horiz-adv-x="618" 
d="M221 664h17q14 0 26 -14l4 -21q0 -91 -94 -310q-83 -193 -152 -297q-7 -1 -15 -1q-12 0 -26 3q24 -10 24 -63q0 -26 -5 -46q16 19 48 34.5t56 15.5q6 0 11 -1q-13 9 -33 32l4 16q11 25 38 68q32 53 40 67q89 170 145 365q86 -294 209 -555l87 57q-166 343 -248 718z
M301 301q0 -15 -37 -36q-33 -19 -52 -20h3q24 0 53 -14q34 -16 35 -37q-1 19 34 38q30 17 52 19h-5q-23 0 -50 14q-32 16 -33 36zM396 869q-20 0 -67 34.5t-59 34.5q-9 0 -16 -5l-36 -102q4 9 17 21t22 12q18 0 71.5 -35t63.5 -35q8 0 12 6l29 102q-3 -9 -16 -21t-21 -12z
" />
    <glyph glyph-name="Adieresis" unicode="&#xc4;" horiz-adv-x="618" 
d="M221 664h17q14 0 26 -14l4 -21q0 -91 -94 -310q-83 -193 -152 -297q-7 -1 -15 -1q-12 0 -26 3q24 -10 24 -63q0 -26 -5 -46q16 19 48 34.5t56 15.5q6 0 11 -1q-13 9 -33 32l4 16q11 25 38 68q32 53 40 67q89 170 145 365q86 -294 209 -555l87 57q-166 343 -248 718z
M301 301q0 -15 -37 -36q-33 -19 -52 -20h3q24 0 53 -14q34 -16 35 -37q-1 19 34 38q30 17 52 19h-5q-23 0 -50 14q-32 16 -33 36zM244 928q0 -19 -25.5 -42.5t-44.5 -22.5q19 -1 43 -26.5t24 -44.5q0 17 26 41.5t43 23.5q-18 1 -42 27t-24 44zM415 921q0 -19 -25.5 -42.5
t-44.5 -22.5q18 -1 42.5 -27t24.5 -44q0 18 25.5 42t43.5 23q-18 1 -42 27t-24 44z" />
    <glyph glyph-name="Aring" unicode="&#xc5;" horiz-adv-x="618" 
d="M434 714q-16 -15 -53 -49l-7 -6q84 -342 231 -645l-87 -57q-123 261 -209 555q-56 -195 -145 -365q-8 -14 -40 -67q-27 -43 -38 -68l-4 -16q6 -13 33 -32q-5 1 -11 1q-24 0 -56 -15.5t-48 -34.5q5 20 5 46q0 53 -24 63q14 -3 26 -3q8 0 15 1q69 104 152 297
q94 219 94 310l-3 16q-15 12 -28 25q-4 4 -60 65q37 19 49 26q23 14 43 34l59 61l57 -61q32 -35 77 -55zM350 762l-31 36q-40 -40 -78 -64q40 -47 79 -72q35 21 75 62q-33 24 -45 38zM301 301q1 -20 33 -36q27 -14 50 -14h5q-22 -2 -52 -19q-35 -19 -34 -38q-1 21 -35 37
q-29 14 -53 14h-3q19 1 52 20q37 21 37 36z" />
    <glyph glyph-name="Egrave" unicode="&#xc8;" horiz-adv-x="481" 
d="M167 129q-21 7 -25 22q1 97 4 186q128 -28 199 -28q44 0 55 13l13 97q-11 -13 -55 -13q-67 0 -186 25q-23 8 -22 29q3 97 10 167q156 -36 234 -36q43 0 53 13l13 97q-6 -16 -51 -16q-93 0 -312 57l-77 -83q2 -1 55 -12q20 -206 20 -585l-2 -13q226 -60 314 -60
q39 0 43 14l13 96q-4 -12 -43 -12q-76 0 -253 42zM224 794q11 13 48 14q36 1 48 -11q-11 11 -13 47q-2 37 10 48q-15 -16 -62 -13q-30 21 -61 65q1 -4 1 -7q0 -6 -14 -16l-20 -15q47 -25 72 -50q2 -14 2 -25q0 -26 -11 -37z" />
    <glyph glyph-name="Eacute" unicode="&#xc9;" horiz-adv-x="481" 
d="M167 129q-21 7 -25 22q1 97 4 186q128 -28 199 -28q44 0 55 13l13 97q-11 -13 -55 -13q-67 0 -186 25q-23 8 -22 29q3 97 10 167q156 -36 234 -36q43 0 53 13l13 97q-6 -16 -51 -16q-93 0 -312 57l-77 -83q2 -1 55 -12q20 -206 20 -585l-2 -13q226 -60 314 -60
q39 0 43 14l13 96q-4 -12 -43 -12q-76 0 -253 42zM257 794q-11 13 -48 14q-36 1 -48 -11q11 11 13 47q2 37 -10 48q15 -16 62 -13q30 21 61 65q-1 -4 -1 -7q0 -6 14 -16l20 -15q-47 -25 -72 -50q-2 -14 -2 -25q0 -26 11 -37z" />
    <glyph glyph-name="Ecircumflex" unicode="&#xca;" horiz-adv-x="481" 
d="M167 129q-21 7 -25 22q1 97 4 186q128 -28 199 -28q44 0 55 13l13 97q-11 -13 -55 -13q-67 0 -186 25q-23 8 -22 29q3 97 10 167q156 -36 234 -36q43 0 53 13l13 97q-6 -16 -51 -16q-93 0 -312 57l-77 -83q2 -1 55 -12q20 -206 20 -585l-2 -13q226 -60 314 -60
q39 0 43 14l13 96q-4 -12 -43 -12q-76 0 -253 42zM225 872q-26 -46 -85 -93l-21 35q51 44 88 102q1 2 18 27l19 28q29 -59 62 -94q21 -22 56 -44l-54 -61q-7 -6 -36 31t-47 69z" />
    <glyph glyph-name="Edieresis" unicode="&#xcb;" horiz-adv-x="481" 
d="M167 129q-21 7 -25 22q1 97 4 186q128 -28 199 -28q44 0 55 13l13 97q-11 -13 -55 -13q-67 0 -186 25q-23 8 -22 29q3 97 10 167q156 -36 234 -36q43 0 53 13l13 97q-6 -16 -51 -16q-93 0 -312 57l-77 -83q2 -1 55 -12q20 -206 20 -585l-2 -13q226 -60 314 -60
q39 0 43 14l13 96q-4 -12 -43 -12q-76 0 -253 42zM157 928q0 -19 -25.5 -42.5t-44.5 -22.5q19 -1 43 -26.5t24 -44.5q0 17 26 41.5t43 23.5q-18 1 -42 27t-24 44zM328 921q0 -19 -25.5 -42.5t-44.5 -22.5q18 -1 42.5 -27t24.5 -44q0 18 25.5 42t43.5 23q-18 1 -42 27t-24 44
z" />
    <glyph glyph-name="Igrave" unicode="&#xcc;" horiz-adv-x="208" 
d="M78 37h-1q2 -14 -6 -21q-25 -14 -39 -15q22 1 50 -48q16 -28 16 -45q-1 23 25 57t49 35q-17 -1 -37 12q-11 7 -11 20q-2 461 27 714l-131 -43q2 -1 8 -1q21 -2 30 -19q22 -203 20 -646zM88 794q10 13 48 14q36 1 47 -11q-12 12 -13 47q-2 37 11 48q-16 -16 -63 -13
q-29 21 -61 65q1 -4 1 -7q0 -6 -14 -16l-20 -15q48 -25 72 -50q2 -14 2 -25q0 -26 -10 -37z" />
    <glyph glyph-name="Iacute" unicode="&#xcd;" horiz-adv-x="208" 
d="M78 37h-1q2 -14 -6 -21q-25 -14 -39 -15q22 1 50 -48q16 -28 16 -45q-1 23 25 57t49 35q-17 -1 -37 12q-11 7 -11 20q-2 461 27 714l-131 -43q2 -1 8 -1q21 -2 30 -19q22 -203 20 -646zM120 794q-10 13 -48 14q-36 1 -48 -11q12 11 13 47q2 37 -10 48q15 -16 63 -13
q29 21 60 65q-1 -4 -1 -7q0 -6 14 -16l20 -15q-47 -25 -72 -50q-2 -14 -2 -25q0 -26 11 -37z" />
    <glyph glyph-name="Icircumflex" unicode="&#xce;" horiz-adv-x="208" 
d="M78 37h-1q2 -14 -6 -21q-25 -14 -39 -15q22 1 50 -48q16 -28 16 -45q-1 23 25 57t49 35q-17 -1 -37 12q-11 7 -11 20q-2 461 27 714l-131 -43q2 -1 8 -1q21 -2 30 -19q22 -203 20 -646zM89 872q-27 -46 -85 -93l-22 35q51 44 89 102q5 11 17 27l20 28q30 -61 61 -94
q20 -21 57 -44l-54 -61q-7 -6 -36 31t-47 69z" />
    <glyph glyph-name="Idieresis" unicode="&#xcf;" horiz-adv-x="208" 
d="M78 37h-1q2 -14 -6 -21q-25 -14 -39 -15q22 1 50 -48q16 -28 16 -45q-1 23 25 57t49 35q-17 -1 -37 12q-11 7 -11 20q-2 461 27 714l-131 -43q2 -1 8 -1q21 -2 30 -19q22 -203 20 -646zM21 928q0 -19 -25.5 -42.5t-44.5 -22.5q18 -1 42.5 -27t24.5 -44q0 18 25.5 42
t43.5 23q-18 1 -42 27t-24 44zM191 921q0 -19 -25.5 -42.5t-44.5 -22.5q18 -1 42.5 -27t24.5 -44q0 17 26 41.5t43 23.5q-18 1 -42 27t-24 44z" />
    <glyph glyph-name="Eth" unicode="&#xd0;" horiz-adv-x="564" 
d="M118 400q-3 147 -11 246l-69 103l85 31q202 -294 334 -386q39 -27 44 -30q60 -35 87 -46l-131 -56q-195 -84 -357 -301q-4 -11 -4 -22q4 -17 9 -25q-9 6 -25 6q-39 0 -60 -21q18 18 18 82q0 22 -5 30q7 -10 17 -16q8 -2 13 4q1 3 2 5v-1q25 31 57 66q0 141 -2 257
q-43 18 -62 18q-10 0 -27.5 -10.5t-22.5 -20.5l47 95q9 6 21 6t42 -14zM242 349q10 0 27 10.5t23 19.5l-39 -95q-6 -6 -16 -6q-15 0 -75 29q-2 -93 -3 -199q121 123 246 195q-1 4 -5 8l-3 3l-6 3l2 1q-135 119 -224 239q-4 -81 -6 -180q53 -28 79 -28z" />
    <glyph glyph-name="Ntilde" unicode="&#xd1;" horiz-adv-x="657" 
d="M618 2q-6 4 -37 33q0 489 27 714l-131 -43q11 -2 25 -4l12 -16q21 -188 21 -604q-289 289 -419 622q-5 13 -25 55l-41 -47l-30 -38q13 -37 29 -76q18 -207 15 -560q0 -7 -11 -18v0q-14 -10 -28 -14q21 -4 41 -38q19 -30 20 -54q-1 24 23.5 56.5t48.5 37.5q-20 2 -41 18
q-4 4 -5 7q-1 225 7 422q185 -318 400 -518l185 47q-11 -2 -21 -2q-36 0 -65 20z" />
    <glyph glyph-name="Ograve" unicode="&#xd2;" horiz-adv-x="897" 
d="M852 411q-78 42 -184 170l-175 210l-36 -42q-9 -9 -33 -37l-110 -132q-78 -94 -210 -169l-84 -48l175 -215q83 -102 229 -202l28 21q142 84 251 193q32 32 133 144v0l72 77q-12 6 -56 30zM466 66q-146 103 -298 304q146 96 297 270l122 -154q58 -73 166 -155
q-88 -96 -115 -123q-80 -79 -172 -142zM432 794q11 13 48 14q36 1 48 -11q-11 11 -13 47q-2 37 10 48q-15 -16 -62 -13q-30 21 -61 65q1 -4 1 -7q0 -6 -14 -16l-20 -15q47 -25 72 -50q2 -14 2 -25q0 -26 -11 -37z" />
    <glyph glyph-name="Oacute" unicode="&#xd3;" horiz-adv-x="897" 
d="M852 411q-78 42 -184 170l-175 210l-36 -42q-9 -9 -33 -37l-110 -132q-78 -94 -210 -169l-84 -48l175 -215q83 -102 229 -202l28 21q142 84 251 193q32 32 133 144v0l72 77q-12 6 -56 30zM466 66q-146 103 -298 304q146 96 297 270l122 -154q58 -73 166 -155
q-88 -96 -115 -123q-80 -79 -172 -142zM465 794q-11 13 -48 14q-36 1 -48 -11q11 11 13 47q2 37 -10 48q15 -16 62 -13q30 21 61 65q-1 -4 -1 -7q0 -6 14 -16l20 -15q-47 -25 -72 -50q-2 -14 -2 -25q0 -26 11 -37z" />
    <glyph glyph-name="Ocircumflex" unicode="&#xd4;" horiz-adv-x="897" 
d="M852 411q-78 42 -184 170l-175 210l-36 -42q-9 -9 -33 -37l-110 -132q-78 -94 -210 -169l-84 -48l175 -215q83 -102 229 -202l28 21q142 84 251 193q32 32 133 144v0l72 77q-12 6 -56 30zM466 66q-146 103 -298 304q146 96 297 270l122 -154q58 -73 166 -155
q-88 -96 -115 -123q-80 -79 -172 -142zM483 872q-26 -46 -85 -93l-21 35q51 44 88 102q1 2 18 27l19 28q29 -59 62 -94q21 -22 56 -44l-54 -61q-7 -6 -36 31t-47 69z" />
    <glyph glyph-name="Otilde" unicode="&#xd5;" horiz-adv-x="897" 
d="M852 411q-78 42 -184 170l-175 210l-36 -42q-9 -9 -33 -37l-110 -132q-78 -94 -210 -169l-84 -48l175 -215q83 -102 229 -202l28 21q142 84 251 193q32 32 133 144v0l72 77q-12 6 -56 30zM466 66q-146 103 -298 304q146 96 297 270l122 -154q58 -73 166 -155
q-88 -96 -115 -123q-80 -79 -172 -142zM558 869q-19 0 -66 34.5t-59 34.5q-9 0 -17 -5l-35 -102q4 9 17 21t21 12q18 0 71.5 -35t63.5 -35q8 0 12 6l30 102q-4 -9 -17 -21t-21 -12z" />
    <glyph glyph-name="Odieresis" unicode="&#xd6;" horiz-adv-x="897" 
d="M852 411q-78 42 -184 170l-175 210l-36 -42q-9 -9 -33 -37l-110 -132q-78 -94 -210 -169l-84 -48l175 -215q83 -102 229 -202l28 21q142 84 251 193q32 32 133 144v0l72 77q-12 6 -56 30zM466 66q-146 103 -298 304q146 96 297 270l122 -154q58 -73 166 -155
q-88 -96 -115 -123q-80 -79 -172 -142zM405 928q0 -19 -25.5 -42.5t-44.5 -22.5q19 -1 43 -26.5t24 -44.5q0 17 26 41.5t43 23.5q-18 1 -42 27t-24 44zM576 921q0 -19 -25.5 -42.5t-44.5 -22.5q18 -1 42.5 -27t24.5 -44q0 18 25.5 42t43.5 23q-18 1 -42 27t-24 44z" />
    <glyph glyph-name="Oslash" unicode="&#xd8;" horiz-adv-x="897" 
d="M316 196q76 -78 150 -130q92 63 172 142q27 27 115 123q-88 67 -142 127q-95 -92 -295 -262zM581 494l-116 146q-151 -174 -297 -270q57 -76 114 -138zM792 725l29 -30l2 -11q-69 -79 -125 -138q88 -99 154 -135q44 -24 56 -30l-72 -77q-56 -61 -133 -144
q-109 -109 -251 -193l-28 -21q-124 85 -202 171l-80 -67l-130 -21q18 5 57 29q26 16 36 24q41 30 82 66l4 4l-171 211l84 48q132 75 210 169l110 132q14 15 33 37l36 42l179 -215q14 17 65 78q21 27 55 71z" />
    <glyph glyph-name="Ugrave" unicode="&#xd9;" horiz-adv-x="658" 
d="M622 740q-26 -211 -26 -565v-12l-46 -27q-82 -48 -190 -136l-4 1l-40 -33q-28 -8 -207 136l-31 25v8q0 360 -20 540q-5 14 -38 20l131 43q-19 -168 -25 -498q4 -23 25 -42h-1q58 -52 91 -76q63 -46 105 -54q124 101 196 137l6 3q-3 314 -20 467q-3 14 -38 20zM313 794
q10 13 48 14q36 1 48 -11q-12 11 -13 47q-2 37 10 48q-15 -16 -62 -13q-30 21 -61 65q1 -4 1 -7q0 -6 -14 -16l-20 -15q47 -25 72 -50q2 -14 2 -25q0 -26 -11 -37z" />
    <glyph glyph-name="Uacute" unicode="&#xda;" horiz-adv-x="658" 
d="M622 740q-26 -211 -26 -565v-12l-46 -27q-82 -48 -190 -136l-4 1l-40 -33q-28 -8 -207 136l-31 25v8q0 360 -20 540q-5 14 -38 20l131 43q-19 -168 -25 -498q4 -23 25 -42h-1q58 -52 91 -76q63 -46 105 -54q124 101 196 137l6 3q-3 314 -20 467q-3 14 -38 20zM346 794
q-11 13 -48 14t-48 -11q12 12 13 47q1 36 -10 48q15 -16 62 -13q29 21 61 65q-1 -4 -1 -7q0 -6 14 -16l20 -15q-48 -25 -72 -50q-2 -14 -2 -25q0 -26 11 -37z" />
    <glyph glyph-name="Ucircumflex" unicode="&#xdb;" horiz-adv-x="658" 
d="M622 740q-26 -211 -26 -565v-12l-46 -27q-82 -48 -190 -136l-4 1l-40 -33q-28 -8 -207 136l-31 25v8q0 360 -20 540q-5 14 -38 20l131 43q-19 -168 -25 -498q4 -23 25 -42h-1q58 -52 91 -76q63 -46 105 -54q124 101 196 137l6 3q-3 314 -20 467q-3 14 -38 20zM314 872
q-27 -46 -85 -93l-22 35q51 44 89 102q5 11 17 27l20 28q30 -61 61 -94q20 -21 57 -44l-54 -61q-7 -6 -36 31t-47 69z" />
    <glyph glyph-name="Udieresis" unicode="&#xdc;" horiz-adv-x="658" 
d="M622 740q-26 -211 -26 -565v-12l-46 -27q-82 -48 -190 -136l-4 1l-40 -33q-28 -8 -207 136l-31 25v8q0 360 -20 540q-5 14 -38 20l131 43q-19 -168 -25 -498q4 -23 25 -42h-1q58 -52 91 -76q63 -46 105 -54q124 101 196 137l6 3q-3 314 -20 467q-3 14 -38 20zM246 928
q0 -19 -25.5 -42.5t-44.5 -22.5q18 -1 42.5 -27t24.5 -44q0 18 25.5 42t43.5 23q-18 1 -42 27t-24 44zM416 921q0 -19 -25.5 -42.5t-44.5 -22.5q18 -1 42.5 -27t24.5 -44q0 17 26 41.5t43 23.5q-18 1 -42 27t-24 44z" />
    <glyph glyph-name="Yacute" unicode="&#xdd;" horiz-adv-x="605" 
d="M648 712q-20 15 -20 73q0 21 4 33q-6 -22 -45 -42t-63 -17q11 -6 21 -17q3 -6 3 -8q-1 -2 -3 -7q-97 -188 -209 -318q-91 95 -205 298q-8 21 -21 49l-90 -50l29 -51q129 -227 221 -316v-1l7 -5l3 -3q11 -112 17 -300h-1q0 -23 -34 -31q22 -4 41 -38q18 -30 19 -55
q-1 24 23.5 57t48.5 38q-17 1 -35 13v0q-7 8 -9 20v0q5 188 16 312q137 150 240 357q3 4 14 9q12 1 28 0zM319 794q-11 13 -48 14q-36 1 -48 -11q11 11 13 47q2 37 -10 48q15 -16 62 -13q30 21 61 65q-1 -4 -1 -7q0 -6 14 -16l20 -15q-47 -25 -72 -50q-2 -14 -2 -25
q0 -26 11 -37z" />
    <glyph glyph-name="germandbls" unicode="&#xdf;" horiz-adv-x="537" 
d="M407 435q-50 30 -116 83l-110 92q-16 -206 -16 -565q0 -43 41 -45q-16 -2 -41.5 -36t-25.5 -53q-5 27 -23 56q-22 36 -43 36q21 5 39 15l6 21h1l1 71q0 156 -4 275q-1 2 0 4q-7 255 -17 276q-8 18 -38 20l131 40q80 -82 167 -149q118 -90 190 -99l-54 -76l1 -1
q-1 -2 -6 -3q-18 -6 -155 -68q80 -61 109 -81q81 -56 116 -62q-68 -46 -151 -122t-128 -132h1l-2 -1q-7 -9 -7 -14l24 -28q-10 5 -41 5q-45 0 -75 -23q24 18 24 68q0 30 -9 50l27 -22l14 6q89 122 168 187q-46 27 -110 78q-52 41 -105 83q61 51 217 114z" />
    <glyph glyph-name="agrave" unicode="&#xe0;" horiz-adv-x="548" 
d="M443 -36q-71 152 -128 321q-14 40 -37 117q-62 -215 -175 -392q-4 -8 -3 -11q0 7 10 -7q13 -17 16 -18l-1 -3q-4 1 -8 1q-17 0 -47 -13.5t-36 -26.5l-3 2q4 10 4 29q0 49 -19 56l2 4q7 -3 17 -3q7 0 14 1q34 49 54 90q63 124 109 263q20 60 32 128q3 18 -15 23
q-13 4 -32 1l121 61q65 -301 198 -575zM276 155h-4q-1 17 -29 29q-24 11 -43 10v4q15 1 42.5 16.5t27.5 27.5h4q1 -16 26 -28t43 -11v-4q-18 -1 -41 -14q-27 -15 -26 -30zM257 654q11 13 48 14t48 -11q-11 12 -13 47q-1 36 10 48q-15 -16 -62 -13q-30 21 -61 65q1 -4 1 -7
q0 -6 -14 -16l-20 -15q47 -25 72 -50q2 -14 2 -25q0 -26 -11 -37z" />
    <glyph glyph-name="aacute" unicode="&#xe1;" horiz-adv-x="548" 
d="M443 -36q-71 152 -128 321q-14 40 -37 117q-62 -215 -175 -392q-4 -8 -3 -11q0 7 10 -7q13 -17 16 -18l-1 -3q-4 1 -8 1q-17 0 -47 -13.5t-36 -26.5l-3 2q4 10 4 29q0 49 -19 56l2 4q7 -3 17 -3q7 0 14 1q34 49 54 90q63 124 109 263q20 60 32 128q3 18 -15 23
q-13 4 -32 1l121 61q65 -301 198 -575zM276 155h-4q-1 17 -29 29q-24 11 -43 10v4q15 1 42.5 16.5t27.5 27.5h4q1 -16 26 -28t43 -11v-4q-18 -1 -41 -14q-27 -15 -26 -30zM290 654q-10 13 -48 14q-36 1 -48 -11q12 12 13 47q2 36 -10 48q15 -16 62 -13q30 21 61 65
q-1 -4 -1 -7q0 -6 14 -16l20 -15q-47 -25 -72 -50q-2 -14 -2 -25q0 -26 11 -37z" />
    <glyph glyph-name="acircumflex" unicode="&#xe2;" horiz-adv-x="548" 
d="M443 -36q-71 152 -128 321q-14 40 -37 117q-62 -215 -175 -392q-4 -8 -3 -11q0 7 10 -7q13 -17 16 -18l-1 -3q-4 1 -8 1q-17 0 -47 -13.5t-36 -26.5l-3 2q4 10 4 29q0 49 -19 56l2 4q7 -3 17 -3q7 0 14 1q34 49 54 90q63 124 109 263q20 60 32 128q3 18 -15 23
q-13 4 -32 1l121 61q65 -301 198 -575zM276 155h-4q-1 17 -29 29q-24 11 -43 10v4q15 1 42.5 16.5t27.5 27.5h4q1 -16 26 -28t43 -11v-4q-18 -1 -41 -14q-27 -15 -26 -30zM258 732q-26 -46 -85 -93l-21 35q51 44 88 102q1 2 18 27l19 28q30 -59 62 -94q22 -22 56 -44
l-54 -61q-6 -6 -35.5 31t-47.5 69z" />
    <glyph glyph-name="atilde" unicode="&#xe3;" horiz-adv-x="548" 
d="M443 -36q-71 152 -128 321q-14 40 -37 117q-62 -215 -175 -392q-4 -8 -3 -11q0 7 10 -7q13 -17 16 -18l-1 -3q-4 1 -8 1q-17 0 -47 -13.5t-36 -26.5l-3 2q4 10 4 29q0 49 -19 56l2 4q7 -3 17 -3q7 0 14 1q34 49 54 90q63 124 109 263q20 60 32 128q3 18 -15 23
q-13 4 -32 1l121 61q65 -301 198 -575zM276 155h-4q-1 17 -29 29q-24 11 -43 10v4q15 1 42.5 16.5t27.5 27.5h4q1 -16 26 -28t43 -11v-4q-18 -1 -41 -14q-27 -15 -26 -30zM344 729q-20 0 -67 34.5t-59 34.5q-9 0 -16 -5l-36 -102q5 9 18 21t21 12q18 0 71.5 -35t63.5 -35
q8 0 12 6l29 102q-2 -9 -15 -21t-22 -12z" />
    <glyph glyph-name="adieresis" unicode="&#xe4;" horiz-adv-x="548" 
d="M443 -36q-71 152 -128 321q-14 40 -37 117q-62 -215 -175 -392q-4 -8 -3 -11q0 7 10 -7q13 -17 16 -18l-1 -3q-4 1 -8 1q-17 0 -47 -13.5t-36 -26.5l-3 2q4 10 4 29q0 49 -19 56l2 4q7 -3 17 -3q7 0 14 1q34 49 54 90q63 124 109 263q20 60 32 128q3 18 -15 23
q-13 4 -32 1l121 61q65 -301 198 -575zM276 155h-4q-1 17 -29 29q-24 11 -43 10v4q15 1 42.5 16.5t27.5 27.5h4q1 -16 26 -28t43 -11v-4q-18 -1 -41 -14q-27 -15 -26 -30zM190 788q0 -19 -25 -42.5t-45 -22.5q19 -1 43 -26.5t24 -44.5q0 17 26 41.5t43 23.5q-17 1 -41.5 27
t-24.5 44zM361 781q0 -19 -25.5 -42.5t-44.5 -22.5q19 -1 43 -27t24 -44q0 18 26 42t43 23q-18 1 -42 27t-24 44z" />
    <glyph glyph-name="aring" unicode="&#xe5;" horiz-adv-x="548" 
d="M443 -36q-71 152 -128 321q-14 40 -37 117q-62 -215 -175 -392q-4 -8 -3 -11q0 7 10 -7q13 -17 16 -18l-1 -3q-4 1 -8 1q-17 0 -47 -13.5t-36 -26.5l-3 2q4 10 4 29q0 49 -19 56l2 4q7 -3 17 -3q7 0 14 1q34 49 54 90q63 124 109 263q20 60 32 128q3 18 -15 23
q-13 4 -32 1l121 61q65 -301 198 -575zM276 155h-4q-1 17 -29 29q-24 11 -43 10v4q15 1 42.5 16.5t27.5 27.5h4q1 -16 26 -28t43 -11v-4q-18 -1 -41 -14q-27 -15 -26 -30z" />
    <glyph glyph-name="egrave" unicode="&#xe8;" horiz-adv-x="411" 
d="M360 4q-4 -13 -36 -13q-70 0 -251 48l2 13q0 299 -15 462q-41 9 -45 11l63 69q174 -46 248 -46q34 0 44 28l-12 -95q-9 -11 -44 -11q-62 0 -183 28l-8 -131q-1 -15 16 -21q94 -19 146 -19q34 0 47 14l-12 -84q-9 -11 -45 -11q-56 0 -155 21q-3 -69 -4 -145q3 -12 19 -16
q135 -33 199 -33q30 0 33 9l3 -1zM189 654q11 13 48 14q36 1 48 -11q-12 12 -13 47q-2 36 10 48q-15 -16 -62 -13q-30 21 -61 65q1 -4 1 -7q0 -6 -14 -16l-20 -15q47 -25 72 -50q2 -14 2 -25q0 -26 -11 -37z" />
    <glyph glyph-name="eacute" unicode="&#xe9;" horiz-adv-x="411" 
d="M360 4q-4 -13 -36 -13q-70 0 -251 48l2 13q0 299 -15 462q-41 9 -45 11l63 69q174 -46 248 -46q34 0 44 28l-12 -95q-9 -11 -44 -11q-62 0 -183 28l-8 -131q-1 -15 16 -21q94 -19 146 -19q34 0 47 14l-12 -84q-9 -11 -45 -11q-56 0 -155 21q-3 -69 -4 -145q3 -12 19 -16
q135 -33 199 -33q30 0 33 9l3 -1zM222 654q-11 13 -48 14q-36 1 -48 -11q12 12 13 47q1 36 -10 48q15 -16 62 -13q30 21 61 65q-1 -4 -1 -7q0 -6 14 -16l20 -15q-47 -25 -72 -50q-2 -14 -2 -25q0 -26 11 -37z" />
    <glyph glyph-name="ecircumflex" unicode="&#xea;" horiz-adv-x="411" 
d="M360 4q-4 -13 -36 -13q-70 0 -251 48l2 13q0 299 -15 462q-41 9 -45 11l63 69q174 -46 248 -46q34 0 44 28l-12 -95q-9 -11 -44 -11q-62 0 -183 28l-8 -131q-1 -15 16 -21q94 -19 146 -19q34 0 47 14l-12 -84q-9 -11 -45 -11q-56 0 -155 21q-3 -69 -4 -145q3 -12 19 -16
q135 -33 199 -33q30 0 33 9l3 -1zM190 732q-26 -46 -85 -93l-21 35q51 44 88 102q1 2 18 27l19 28q29 -59 62 -94q21 -22 56 -44l-54 -61q-7 -6 -36 31t-47 69z" />
    <glyph glyph-name="edieresis" unicode="&#xeb;" horiz-adv-x="411" 
d="M360 4q-4 -13 -36 -13q-70 0 -251 48l2 13q0 299 -15 462q-41 9 -45 11l63 69q174 -46 248 -46q34 0 44 28l-12 -95q-9 -11 -44 -11q-62 0 -183 28l-8 -131q-1 -15 16 -21q94 -19 146 -19q34 0 47 14l-12 -84q-9 -11 -45 -11q-56 0 -155 21q-3 -69 -4 -145q3 -12 19 -16
q135 -33 199 -33q30 0 33 9l3 -1zM122 788q0 -19 -25.5 -42.5t-44.5 -22.5q19 -1 43 -26.5t24 -44.5q0 17 26 41.5t43 23.5q-18 1 -42 27t-24 44zM293 781q0 -19 -25.5 -42.5t-44.5 -22.5q18 -1 42.5 -27t24.5 -44q0 18 25.5 42t43.5 23q-18 1 -42 27t-24 44z" />
    <glyph glyph-name="igrave" unicode="&#xec;" horiz-adv-x="170" 
d="M80 -73h-4q0 20 -15 45q-17 29 -35 28v4q12 1 30 12q6 5 4 17h1q0 359 -16 511q-6 12 -21 14q-6 0 -10 3l108 37q-23 -180 -22 -571q0 -9 8 -14q15 -10 28 -9l1 -4q-15 -1 -36 -29t-21 -44zM68 654q11 13 48 14t48 -11q-11 12 -13 47q-1 36 10 48q-15 -16 -62 -13
q-30 21 -61 65q1 -4 1 -7q0 -6 -14 -16l-20 -15q47 -25 72 -50q2 -14 2 -25q0 -26 -11 -37z" />
    <glyph glyph-name="iacute" unicode="&#xed;" horiz-adv-x="170" 
d="M80 -73h-4q0 20 -15 45q-17 29 -35 28v4q12 1 30 12q6 5 4 17h1q0 359 -16 511q-6 12 -21 14q-6 0 -10 3l108 37q-23 -180 -22 -571q0 -9 8 -14q15 -10 28 -9l1 -4q-15 -1 -36 -29t-21 -44zM101 654q-10 13 -48 14q-36 1 -48 -11q12 12 13 47q2 36 -10 48q15 -16 62 -13
q30 21 61 65q-1 -4 -1 -7q0 -6 14 -16l20 -15q-47 -25 -72 -50q-2 -14 -2 -25q0 -26 11 -37z" />
    <glyph glyph-name="icircumflex" unicode="&#xee;" horiz-adv-x="170" 
d="M80 -73h-4q0 20 -15 45q-17 29 -35 28v4q12 1 30 12q6 5 4 17h1q0 359 -16 511q-6 12 -21 14q-6 0 -10 3l108 37q-23 -180 -22 -571q0 -9 8 -14q15 -10 28 -9l1 -4q-15 -1 -36 -29t-21 -44zM69 732q-26 -46 -84 -93l-21 35q51 44 87 102q1 2 18 27l19 28q30 -59 62 -94
q22 -22 56 -44l-54 -61q-6 -6 -35.5 31t-47.5 69z" />
    <glyph glyph-name="idieresis" unicode="&#xef;" horiz-adv-x="170" 
d="M80 -73h-4q0 20 -15 45q-17 29 -35 28v4q12 1 30 12q6 5 4 17h1q0 359 -16 511q-6 12 -21 14q-6 0 -10 3l108 37q-23 -180 -22 -571q0 -9 8 -14q15 -10 28 -9l1 -4q-15 -1 -36 -29t-21 -44zM2 788q0 -19 -25.5 -42.5t-44.5 -22.5q18 -1 42.5 -26.5t24.5 -44.5
q0 17 25.5 41.5t42.5 23.5q-17 1 -41 27t-24 44zM172 781q0 -19 -25.5 -42.5t-44.5 -22.5q19 -1 43 -27t24 -44q0 18 26 42t43 23q-18 1 -42 27t-24 44z" />
    <glyph glyph-name="eth" unicode="&#xf0;" horiz-adv-x="626" 
d="M163 233q43 -75 103 -148q156 47 246 100q-46 71 -93 160q-141 -88 -256 -112zM206 592q30 0 88 21l-50 112l-8 3l-20 -6q28 32 28 80q0 16 -4 31q13 -20 44 -37.5t53 -14.5l-21 -21q-1 -4 -1 -18q0 -25 38 -107q53 20 72 20q16 0 28 -6l62 -91q-8 10 -30.5 20t-35.5 10
q-22 0 -67 -13q29 -59 72 -137q131 -242 178 -300q-178 -93 -374 -158q-48 62 -108 162q-85 142 -102 167l-2 3q53 -2 165 47q77 34 160 81l-51 115q-86 -30 -107 -30q-14 0 -21 5l-52 92q8 -10 30.5 -20t35.5 -10z" />
    <glyph glyph-name="ntilde" unicode="&#xf1;" horiz-adv-x="525" 
d="M414 -51q-170 158 -316 408q-6 -154 -5 -329q1 -2 3 -4q16 -13 43 -15q-21 -6 -44 -31t-23 -46h-4q0 22 -16.5 46t-37.5 28q18 5 29 13q8 8 8 13q2 274 -12 445q-13 31 -23 61l24 31l35 40q14 -29 21 -47q101 -261 329 -490q0 325 -17 474l-8 12q-11 2 -27 4l114 38
q-21 -182 -21 -570q22 -21 28 -25q24 -16 51 -16q7 0 17 2l1 -4zM333 729q-20 0 -67 34.5t-59 34.5q-9 0 -16 -5l-36 -102q4 9 17 21t22 12q18 0 71.5 -35t63.5 -35q8 0 12 6l29 102q-3 -9 -16 -21t-21 -12z" />
    <glyph glyph-name="ograve" unicode="&#xf2;" horiz-adv-x="722" 
d="M669 242q-115 -123 -140 -146q-72 -67 -166 -122l-24 -18q-116 80 -183 162l-141 173l69 39q102 58 166 134l88 105q7 8 26 30l30 35l141 -169q85 -102 146 -135q37 -20 47 -25zM467 387l-95 121q-119 -137 -233 -213q119 -157 234 -238q103 67 225 208q-88 67 -131 122z
M344 654q11 13 48 14t48 -11q-11 12 -13 47q-1 36 10 48q-15 -16 -62 -13q-30 21 -61 65q1 -4 1 -7q0 -6 -14 -16l-20 -15q47 -25 72 -50q2 -14 2 -25q0 -26 -11 -37z" />
    <glyph glyph-name="oacute" unicode="&#xf3;" horiz-adv-x="722" 
d="M669 242q-115 -123 -140 -146q-72 -67 -166 -122l-24 -18q-116 80 -183 162l-141 173l69 39q102 58 166 134l88 105q7 8 26 30l30 35l141 -169q85 -102 146 -135q37 -20 47 -25zM467 387l-95 121q-119 -137 -233 -213q119 -157 234 -238q103 67 225 208q-88 67 -131 122z
M377 654q-10 13 -48 14q-36 1 -48 -11q12 12 13 47q2 36 -10 48q15 -16 62 -13q30 21 61 65q-1 -4 -1 -7q0 -6 14 -16l20 -15q-47 -25 -72 -50q-2 -14 -2 -25q0 -26 11 -37z" />
    <glyph glyph-name="ocircumflex" unicode="&#xf4;" horiz-adv-x="722" 
d="M669 242q-115 -123 -140 -146q-72 -67 -166 -122l-24 -18q-116 80 -183 162l-141 173l69 39q102 58 166 134l88 105q7 8 26 30l30 35l141 -169q85 -102 146 -135q37 -20 47 -25zM467 387l-95 121q-119 -137 -233 -213q119 -157 234 -238q103 67 225 208q-88 67 -131 122z
M385 732q-26 -46 -85 -93l-21 35q51 44 88 102q1 2 18 27l19 28q30 -59 62 -94q22 -22 56 -44l-54 -61q-6 -6 -35.5 31t-47.5 69z" />
    <glyph glyph-name="otilde" unicode="&#xf5;" horiz-adv-x="722" 
d="M669 242q-115 -123 -140 -146q-72 -67 -166 -122l-24 -18q-116 80 -183 162l-141 173l69 39q102 58 166 134l88 105q7 8 26 30l30 35l141 -169q85 -102 146 -135q37 -20 47 -25zM467 387l-95 121q-119 -137 -233 -213q119 -157 234 -238q103 67 225 208q-88 67 -131 122z
M471 729q-20 0 -67 34.5t-59 34.5q-9 0 -16 -5l-36 -102q5 9 18 21t21 12q18 0 71.5 -35t63.5 -35q8 0 12 6l29 102q-2 -9 -15 -21t-22 -12z" />
    <glyph glyph-name="odieresis" unicode="&#xf6;" horiz-adv-x="722" 
d="M669 242q-115 -123 -140 -146q-72 -67 -166 -122l-24 -18q-116 80 -183 162l-141 173l69 39q102 58 166 134l88 105q7 8 26 30l30 35l141 -169q85 -102 146 -135q37 -20 47 -25zM467 387l-95 121q-119 -137 -233 -213q119 -157 234 -238q103 67 225 208q-88 67 -131 122z
M307 788q0 -19 -25 -42.5t-45 -22.5q19 -1 43 -26.5t24 -44.5q0 17 26 41.5t43 23.5q-17 1 -41.5 27t-24.5 44zM478 781q0 -19 -25.5 -42.5t-44.5 -22.5q19 -1 43 -27t24 -44q0 18 26 42t43 23q-18 1 -42 27t-24 44z" />
    <glyph glyph-name="oslash" unicode="&#xf8;" horiz-adv-x="718" 
d="M253 157q60 -62 120 -104q73 50 137 113q22 22 92 99q-70 53 -113 101q-76 -73 -236 -209zM465 395l-93 117q-121 -139 -238 -216q46 -61 92 -110zM634 580l23 -24l1 -9q-55 -63 -100 -110q70 -79 124 -108q35 -19 44 -24l-57 -62q-45 -49 -107 -115q-87 -87 -200 -154
l-23 -17q-99 68 -162 136l-63 -53l-104 -16q14 3 45 22q21 13 29 20q32 23 65 53l4 3l-137 168l67 39q106 60 168 135l88 106q11 12 27 29l28 34l143 -172q12 13 53 62q16 22 44 57z" />
    <glyph glyph-name="ugrave" unicode="&#xf9;" horiz-adv-x="518" 
d="M477 141v-11l-38 -22q-45 -26 -87 -58l-64 -50h-3l-31 -25q-23 -7 -167 108l-25 20v8q0 286 -16 429q-4 12 -21 13q-10 0 -15 2l114 38q-15 -137 -20 -399q3 -17 23 -35h-1q43 -39 68 -57q50 -36 82 -42q98 79 159 110q-3 249 -16 370q-3 12 -21 13q-10 0 -15 2l115 38
q-21 -171 -21 -452zM242 654q11 13 48 14t48 -11q-11 12 -13 47q-1 36 10 48q-15 -16 -62 -13q-30 21 -61 65q1 -4 1 -7q0 -6 -14 -16l-20 -15q47 -25 72 -50q2 -14 2 -25q0 -26 -11 -37z" />
    <glyph glyph-name="uacute" unicode="&#xfa;" horiz-adv-x="518" 
d="M477 141v-11l-38 -22q-45 -26 -87 -58l-64 -50h-3l-31 -25q-23 -7 -167 108l-25 20v8q0 286 -16 429q-4 12 -21 13q-10 0 -15 2l114 38q-15 -137 -20 -399q3 -17 23 -35h-1q43 -39 68 -57q50 -36 82 -42q98 79 159 110q-3 249 -16 370q-3 12 -21 13q-10 0 -15 2l115 38
q-21 -171 -21 -452zM275 654q-10 13 -48 14q-36 1 -48 -11q12 12 13 47q2 36 -10 48q15 -16 62 -13q30 21 61 65q-1 -4 -1 -7q0 -6 14 -16l20 -15q-47 -25 -72 -50q-2 -14 -2 -25q0 -26 11 -37z" />
    <glyph glyph-name="ucircumflex" unicode="&#xfb;" horiz-adv-x="518" 
d="M477 141v-11l-38 -22q-45 -26 -87 -58l-64 -50h-3l-31 -25q-23 -7 -167 108l-25 20v8q0 286 -16 429q-4 12 -21 13q-10 0 -15 2l114 38q-15 -137 -20 -399q3 -17 23 -35h-1q43 -39 68 -57q50 -36 82 -42q98 79 159 110q-3 249 -16 370q-3 12 -21 13q-10 0 -15 2l115 38
q-21 -171 -21 -452zM243 732q-26 -46 -85 -93l-21 35q51 44 88 102q1 2 18 27l19 28q30 -59 62 -94q22 -22 56 -44l-54 -61q-6 -6 -35.5 31t-47.5 69z" />
    <glyph glyph-name="udieresis" unicode="&#xfc;" horiz-adv-x="518" 
d="M477 141v-11l-38 -22q-45 -26 -87 -58l-64 -50h-3l-31 -25q-23 -7 -167 108l-25 20v8q0 286 -16 429q-4 12 -21 13q-10 0 -15 2l114 38q-15 -137 -20 -399q3 -17 23 -35h-1q43 -39 68 -57q50 -36 82 -42q98 79 159 110q-3 249 -16 370q-3 12 -21 13q-10 0 -15 2l115 38
q-21 -171 -21 -452zM175 788q0 -19 -25 -42.5t-45 -22.5q19 -1 43 -26.5t24 -44.5q0 17 26 41.5t43 23.5q-17 1 -41.5 27t-24.5 44zM346 781q0 -19 -25.5 -42.5t-44.5 -22.5q19 -1 43 -27t24 -44q0 18 26 42t43 23q-18 1 -42 27t-24 44z" />
    <glyph glyph-name="yacute" unicode="&#xfd;" horiz-adv-x="555" 
d="M495 566q-8 -4 -10 -6q-82 -165 -190 -284q-9 -99 -13 -247q1 -9 6 -15q14 -9 39 -10q-24 -6 -46 -30t-21 -48h-4q-1 23 -17.5 47t-37.5 28q34 8 34 26h1q-5 148 -14 236l-1 2l-7 4v1q-71 70 -175 252l-24 42l75 42q12 -24 18 -41q89 -160 161 -235q88 103 164 251
q1 4 2 5q-1 2 -2 5q-8 8 -26 18q24 -3 56.5 10.5t38.5 34.5l4 -1q-3 -10 -3 -27q0 -45 20 -60q-19 1 -28 0zM294 654q-11 13 -48 14q-36 1 -48 -11q12 12 13 47q1 36 -10 48q15 -16 62 -13q30 21 61 65q-1 -4 -1 -7q0 -6 14 -16l20 -15q-47 -25 -72 -50q-2 -14 -2 -25
q0 -26 11 -37z" />
    <glyph glyph-name="ydieresis" unicode="&#xff;" horiz-adv-x="555" 
d="M495 566q-8 -4 -10 -6q-82 -165 -190 -284q-9 -99 -13 -247q1 -9 6 -15q14 -9 39 -10q-24 -6 -46 -30t-21 -48h-4q-1 23 -17.5 47t-37.5 28q34 8 34 26h1q-5 148 -14 236l-1 2l-7 4v1q-71 70 -175 252l-24 42l75 42q12 -24 18 -41q89 -160 161 -235q88 103 164 251
q1 4 2 5q-1 2 -2 5q-8 8 -26 18q24 -3 56.5 10.5t38.5 34.5l4 -1q-3 -10 -3 -27q0 -45 20 -60q-19 1 -28 0zM194 788q0 -19 -25.5 -42.5t-44.5 -22.5q19 -1 43 -26.5t24 -44.5q0 17 26 41.5t43 23.5q-18 1 -42 27t-24 44zM365 781q0 -19 -25.5 -42.5t-44.5 -22.5
q18 -1 42.5 -27t24.5 -44q0 18 25.5 42t43.5 23q-18 1 -42 27t-24 44z" />
    <glyph glyph-name="Scaron" unicode="&#x160;" horiz-adv-x="639" 
d="M311 640q180 -95 221 -95q7 0 9 3l110 120q-35 -16 -89 -15q-69 1 -129 31q-24 12 -127 72l-44 -68q-72 -111 -174 -189l-68 -52q50 -25 90 -51q152 -99 407 -144q-36 -81 -122 -184q-91 29 -124 41q-66 24 -136 69q-3 1 -13 6l-89 -63q4 -2 13 -6q111 -68 220 -108
q28 -10 137 -43l42 52q59 73 168 277q2 2 12 23t10 23l-80 12l-1 1h-1l-14 2v-1q-85 11 -188 55q-149 64 -177 73q73 64 137 159zM335 871q26 46 85 93l21 -36q-51 -44 -88 -101q-1 -2 -18 -27l-19 -28q-29 59 -62 94q-21 22 -56 43l54 62q7 6 39 -36q30 -38 44 -64z" />
    <glyph glyph-name="scaron" unicode="&#x161;" horiz-adv-x="535" 
d="M428 285v1l13 -2h2l1 -1l64 -10q0 -3 -7.5 -19.5t-10.5 -19.5q-82 -158 -133 -221l-34 -42l-110 34q-74 23 -175 86l-14 7l75 52l3 -1q3 -2 8 -4q61 -37 108 -55q12 -5 97 -32q66 80 95 143q-195 36 -322 114q-11 7 -74 42l57 43q77 58 137 150l36 55q85 -49 103 -58
q46 -23 101 -24q43 -1 79 16l-94 -103q-2 -3 -9 -3q-32 0 -174 75q-50 -73 -106 -123q1 0 1 -1q131 -79 283 -99zM283 731q26 46 85 93l21 -35q-51 -44 -88 -102q-1 -2 -18 -27l-19 -28q-29 59 -62 94q-21 22 -56 44l54 61q7 6 36 -31t47 -69z" />
    <glyph glyph-name="Ydieresis" unicode="&#x178;" horiz-adv-x="605" 
d="M648 712q-20 15 -20 73q0 21 4 33q-6 -22 -45 -42t-63 -17q11 -6 21 -17q3 -6 3 -8q-1 -2 -3 -7q-97 -188 -209 -318q-91 95 -205 298q-8 21 -21 49l-90 -50l29 -51q129 -227 221 -316v-1l7 -5l3 -3q11 -112 17 -300h-1q0 -23 -34 -31q22 -4 41 -38q18 -30 19 -55
q-1 24 23.5 57t48.5 38q-17 1 -35 13v0q-7 8 -9 20v0q5 188 16 312q137 150 240 357q3 4 14 9q12 1 28 0zM219 928q0 -19 -25.5 -42.5t-44.5 -22.5q19 -1 43 -26.5t24 -44.5q0 17 26 41.5t43 23.5q-18 1 -42 27t-24 44zM390 921q0 -19 -25.5 -42.5t-44.5 -22.5
q18 -1 42.5 -27t24.5 -44q0 18 25.5 42t43.5 23q-18 1 -42 27t-24 44z" />
    <glyph glyph-name="quoteleft" unicode="&#x2018;" horiz-adv-x="181" 
d="M154 671q-18 0 -42.5 26.5t-23.5 44.5q-1 -18 -26.5 -42t-43.5 -23q23 -1 51 -38q4 -37 -9 -89q6 9 14 9q5 0 15.5 -5t15.5 -5q3 0 5 1q-12 52 -9 87q30 35 53 34z" />
    <glyph glyph-name="quoteright" unicode="&#x2019;" horiz-adv-x="181" 
d="M154 671q-18 0 -42.5 26.5t-23.5 44.5q-1 -18 -26.5 -42t-43.5 -23q23 -1 51 -38q4 -37 -9 -89q6 9 14 9q5 0 15.5 -5t15.5 -5q3 0 5 1q-12 52 -9 87q30 35 53 34z" />
    <glyph glyph-name="quotesinglbase" unicode="&#x201a;" horiz-adv-x="171" 
d="M156 66q-17 0 -42 27t-24 44q-1 -18 -26.5 -42t-43.5 -23q23 -1 51 -38q4 -37 -9 -89q6 9 14 9q5 0 15.5 -5t15.5 -5q3 0 5 1q-12 52 -9 87q30 35 53 34z" />
    <glyph glyph-name="quotedblleft" unicode="&#x201c;" horiz-adv-x="326" 
d="M299 671q-18 0 -42.5 26.5t-23.5 44.5q-1 -18 -26.5 -42t-43.5 -23q23 -1 51 -38q4 -37 -9 -89q6 9 14 9q5 0 15.5 -5t15.5 -5q3 0 5 1q-12 52 -9 87q30 35 53 34zM154 671q-18 0 -42.5 26.5t-23.5 44.5q-1 -18 -26.5 -42t-43.5 -23q23 -1 51 -38q4 -37 -9 -89q6 9 14 9
q5 0 15.5 -5t15.5 -5q3 0 5 1q-12 52 -9 87q30 35 53 34z" />
    <glyph glyph-name="quotedblright" unicode="&#x201d;" horiz-adv-x="326" 
d="M299 671q-18 0 -42.5 26.5t-23.5 44.5q-1 -18 -26.5 -42t-43.5 -23q23 -1 51 -38q4 -37 -9 -89q6 9 14 9q5 0 15.5 -5t15.5 -5q3 0 5 1q-12 52 -9 87q30 35 53 34zM154 671q-18 0 -42.5 26.5t-23.5 44.5q-1 -18 -26.5 -42t-43.5 -23q23 -1 51 -38q4 -37 -9 -89q6 9 14 9
q5 0 15.5 -5t15.5 -5q3 0 5 1q-12 52 -9 87q30 35 53 34z" />
    <glyph glyph-name="quotedblbase" unicode="&#x201e;" horiz-adv-x="333" 
d="M312 64q-17 0 -42 27t-24 44q-1 -18 -26 -42t-44 -23q23 -1 51 -38q4 -37 -9 -89q6 9 14 9q5 0 15.5 -5t15.5 -5q3 0 5 1q-12 52 -9 87q30 35 53 34zM156 66q-17 0 -42 27t-24 44q-1 -18 -26.5 -42t-43.5 -23q23 -1 51 -38q4 -37 -9 -89q6 9 14 9q5 0 15.5 -5t15.5 -5
q3 0 5 1q-12 52 -9 87q30 35 53 34z" />
    <glyph glyph-name="glyph159" horiz-adv-x="336" 
 />
    <glyph glyph-name="glyph160" horiz-adv-x="336" 
 />
    <glyph glyph-name="glyph124" horiz-adv-x="336" 
 />
    <glyph glyph-name="glyph125" horiz-adv-x="336" 
 />
    <glyph glyph-name="glyph92" 
 />
    <glyph glyph-name="glyph93" 
 />
    <glyph glyph-name="glyph87" 
 />
    <glyph glyph-name="glyph88" 
 />
    <glyph glyph-name="ch254" horiz-adv-x="1476" 
d="M919 18q-45 146 -49 277q-4 130 35 281q25 99 50 146q1 2 18 37l-123 -24q30 2 39 -5q3 -3 2 -8q-28 -63 -53 -153q-45 -166 -40 -274q2 -50 15 -166q19 -175 48 -262l159 -42q-46 15 -101 193zM1439 294q-2 49 -15 165q-20 181 -48 263l-156 36q27 -7 42 -38
q25 -52 56 -150q46 -143 49 -276q4 -136 -35 -281q-27 -101 -49 -146q-4 -6 -19 -37l123 24q-22 -1 -32 2.5t-8 10.5q28 64 53 153q44 159 39 274zM1220 758q-1 0 -2 1z" />
    <glyph glyph-name="ch255" 
 />
    <glyph glyph-name="glyph89" 
 />
    <glyph glyph-name="glyph77" 
 />
    <glyph glyph-name="glyph78" 
 />
    <glyph glyph-name="ch259" 
 />
    <glyph glyph-name="ch260" 
 />
    <glyph glyph-name="ch256" 
 />
    <glyph glyph-name="ch257" 
 />
    <glyph glyph-name="glyph79" 
 />
    <glyph glyph-name="glyph71" 
 />
    <glyph glyph-name="glyph72" 
 />
    <glyph glyph-name="glyph68" 
 />
    <glyph glyph-name="glyph69" 
 />
    <glyph glyph-name="ch261" 
 />
    <glyph glyph-name="ch262" 
 />
    </font>
</defs>
</svg>
