<?xml version="1.0" standalone="no"?>
<!DOCTYPE svg PUBLIC "-//W3C//DTD SVG 1.1//EN" "http://www.w3.org/Graphics/SVG/1.1/DTD/svg11.dtd" >
<svg xmlns="http://www.w3.org/2000/svg" xmlns:xlink="http://www.w3.org/1999/xlink" version="1.1">
<metadata>
Created by FontForge 20170731 at Mon Feb 21 08:40:48 2011
 By Aleksey,,,
Copyright (c) 2010, Kimberly Geswein (kimberlygeswein.com)
</metadata>
<defs>
<font id="DawningofaNewDay" horiz-adv-x="446" >
  <font-face 
    font-family="Dawning of a New Day"
    font-weight="400"
    font-stretch="normal"
    units-per-em="1024"
    panose-1="2 0 0 0 0 0 0 0 0 0"
    ascent="819"
    descent="-205"
    x-height="242"
    cap-height="851"
    bbox="-242 -512.782 1619 1278"
    underline-thickness="0"
    underline-position="0"
    unicode-range="U+0020-FB02"
  />
<missing-glyph horiz-adv-x="703" 
 />
    <glyph glyph-name=".notdef" horiz-adv-x="703" 
 />
    <glyph glyph-name=".null" horiz-adv-x="0" 
 />
    <glyph glyph-name="nonmarkingreturn" horiz-adv-x="703" 
 />
    <glyph glyph-name="space" unicode=" " horiz-adv-x="512" 
 />
    <glyph glyph-name="exclam" unicode="!" horiz-adv-x="126" 
d="M78 15q0 14 12 22t24 8v-11.5t-1.5 -15.5t-6 -13.5t-12.5 -5.5q-16 0 -16 16zM47 210q-2 9 -3 34.5t-2 59t-2 71t-2 70.5t-1.5 58.5t-1.5 36.5q0 3 -0.5 11.5t-1 19t-1 19.5t-0.5 12q13 13 21 -1t13 -45.5t7.5 -75t3 -88t1 -85t1.5 -65.5v-18q0 -8 -2 -16.5t-14 -8.5
q-11 0 -16 11z" />
    <glyph glyph-name="quotedbl" unicode="&#x22;" horiz-adv-x="220" 
d="M32 551q0 8 4 14.5t13 6.5q12 0 19 -8.5t11.5 -20.5t6 -24t1.5 -20q0 -19 -2 -31t-11 -33l-4 -1q-6 0 -12.5 16t-12 36t-9.5 39t-4 26zM125 562q0 10 8 18.5t17 8.5q19 0 27.5 -11.5t11 -27.5t2 -33t-0.5 -28v-9t-0.5 -12t-1 -10.5l-0.5 -4.5l-10 -12q-3 10 -12 26
t-18 34.5t-16 35.5t-7 25z" />
    <glyph glyph-name="numbersign" unicode="#" horiz-adv-x="483" 
d="M71 181q0 4 7.5 9t16.5 8.5t18 6t11 2.5v84q-1 -1 -11 -6t-23.5 -11.5t-28 -11.5t-24.5 -5q0 19 14 29.5t29.5 18t29.5 16t14 23.5l-5 130q20 0 27.5 -6.5t9.5 -18.5q1 -6 2.5 -17.5t3 -25t3 -25t2.5 -16.5l30 7.5t35 11.5t28.5 18t11.5 25q0 17 -6 34t-6 36q0 18 8 22.5
t25 -7.5l20 -74q1 -1 2 -1h2q23 0 43 7t41 7q0 -17 -13.5 -21t-30.5 -8.5t-31 -16t-14 -39.5v-14.5t1 -22t5 -20t11 -8.5q11 0 28.5 5t36.5 12.5t37 14.5t30 11q15 -3 10 -9.5t-22 -15t-40.5 -17.5t-44 -18t-33.5 -15.5t-7 -9.5v-157h-21l-20 125q-10 3 -30 -3t-39.5 -14.5
t-34 -16.5t-12.5 -8v-104l-26 -6q-1 4 -1.5 15t-1 24t-1.5 25t-2 16q-4 10 -14.5 10.5t-21.5 -0.5t-19.5 1t-8.5 15zM271 375q-9 0 -25 -6.5t-32 -16t-29.5 -20t-17.5 -20.5v-85q17 4 37 10.5t37.5 17t29.5 27t12 41.5q-1 3 -2.5 10t-3.5 15t-3.5 16t-2.5 11z" />
    <glyph glyph-name="dollar" unicode="$" horiz-adv-x="335" 
d="M107 -164q13 74 24 111t6 40q-15 7 -39.5 22t-46 36.5t-29 48t-0.5 53.5q5 21 17.5 46.5t21 46t25.5 37t35 20.5q7 -6 4 -19q-4 -15 -15 -30t-23 -30t-24 -30.5t-17 -36.5q-8 -26 4.5 -48.5t33 -35.5t42.5 -15.5t35 10.5q8 26 16.5 55t15.5 58t11.5 58.5t1.5 53.5
q-12 11 -23.5 25t-20 30.5t-12.5 36t2 41.5q13 50 42.5 71.5t64.5 24.5q0 5 1.5 16.5t5 24t9 22t13.5 14.5h1q1 0 1.5 -0.5t1.5 -0.5q4 -1 6.5 -3.5t2.5 -12.5q0 -4 -2 -16.5t-3 -29t-2.5 -31t-0.5 -18.5q0 -13 5 -23.5t9 -21.5t6 -23.5t-3 -30.5q-4 -14 -11 -22t-16.5 -15
t-16.5 -13t-9 -16q-1 -3 8.5 -22t19 -46.5t14.5 -58.5t-4 -59q-19 -54 -47 -86t-69 -52l-39 -147q-2 -6 -7.5 -8.5t-10.5 -2.5q-7 -1 -15 2zM236 246q-12 -47 -22 -92.5t-17 -94.5l3 -3q11 -3 19.5 6.5t15 23t11.5 28t8 23.5q2 11 4.5 28.5t0.5 34.5t-7 30t-16 16zM187 412
q-3 -11 0.5 -21t9.5 -19.5t13 -16.5t12 -10l27 99q3 10 -4 14.5t-11 4.5q-7 3 -14 -2t-14 -12.5t-11.5 -17.5t-7.5 -19zM265 380l10 -3q3 9 4.5 21t-4.5 16z" />
    <glyph glyph-name="uni0025" unicode="%" horiz-adv-x="379" 
d="M206 340q-10 3 -20.5 1.5t-22.5 -3.5t-23 -3t-22 2t-24 10t-23 17t-15 23.5t-2 27.5q4 17 15 27.5t24 18t28 9t28 -1.5q3 -2 12 -3.5t16 -5.5t11.5 -9.5t1.5 -16.5q-5 -16 -15 -15.5t-23.5 5t-26.5 4.5t-23 -18q6 -29 28.5 -34t50 1t55.5 19t46 21q10 -5 14.5 -12.5
t-0.5 -18.5l-247 -412q-9 -3 -17 -1t-10 12t6 33t29.5 64t59 104t95.5 154zM165 76q27 45 55 64.5t51 19t40.5 -16t26.5 -38.5t8 -49t-17 -48t-45 -35t-77 -11q-41 11 -47.5 41t5.5 73zM208 64q-3 -8 -5.5 -18.5t-1.5 -20t6.5 -17t15.5 -10.5q45 1 66.5 18.5t24.5 39
t-6.5 41t-26.5 26.5t-37.5 -5.5t-35.5 -53.5z" />
    <glyph glyph-name="ampersand" unicode="&#x26;" horiz-adv-x="342" 
d="M256 6q-10 -7 -24 -13.5t-29.5 -12t-31 -8t-25.5 0.5q-50 14 -73 53.5t-6 103.5q7 27 22.5 52t31 47.5t29.5 44t19 38.5q3 14 4.5 29.5t1 31t0.5 30.5t5 31q8 26 24.5 44t40.5 11q13 -3 21 -15.5t10.5 -29.5t1 -35t-5.5 -32q-7 -25 -22.5 -49.5t-30.5 -41.5
q62 -11 87.5 -28.5t28.5 -41.5t-8.5 -54.5t-21 -64t-10.5 -70.5t23 -75l-11 -44zM94 124q-12 -43 4 -71t50 -37q7 -3 23.5 0t27.5 8.5t20 13t12 18.5q3 8 1 20.5t0.5 27.5t2 27t5.5 20q-9 -6 -15.5 -6.5t-14.5 2.5q-14 3 -14.5 19t2.5 33t-0.5 31t-13.5 17q-14 -6 -27 -22
t-36.5 -56t-26.5 -45zM249 233q-4 -14 -4.5 -29.5t4.5 -33.5t13.5 -31t18.5 -18q2 5 6 18.5t14 37.5t-6.5 36.5t-45.5 19.5zM222 452q-21 -34 -22 -59.5t11 -42.5q26 10 30.5 19.5t7.5 21.5q4 16 0 31t-27 30z" />
    <glyph glyph-name="quotesingle" unicode="'" horiz-adv-x="104" 
d="M27 436q0 21 10 46t10 48q0 21 -6 34.5t-6 33.5q20 0 38 -17t16 -40q-2 -14 -5.5 -30t-10 -32t-15.5 -30.5t-21 -23.5q-2 0 -6 4t-4 7z" />
    <glyph glyph-name="parenleft" unicode="(" horiz-adv-x="311" 
d="M90 259q4 16 16.5 43.5t30.5 59.5t39 65.5t42.5 59t41 40.5t35.5 11q10 -3 18 -7t0 -21q-16 0 -35 -16t-38 -41.5t-37.5 -57t-33 -62t-26 -58.5t-16.5 -43q-12 -30 -14 -67t0.5 -76.5t10.5 -77t19 -67t20.5 -46.5t16.5 -15q-4 -22 -26 -16q-23 6 -38 32t-24.5 63
t-12.5 80t-2 85t4.5 77t8.5 55z" />
    <glyph glyph-name="parenright" unicode=")" horiz-adv-x="291" 
d="M86 -46q14 16 31 51.5t34 82.5t32 100.5t28 104.5t22 96t14 74q-3 49 -27 77t-69 40q6 23 19.5 27t32.5 -1q34 -9 52 -34.5t23.5 -57.5t2 -66.5t-10.5 -60.5q-1 -24 -7.5 -62.5t-18 -83t-26 -92t-32.5 -91.5t-38.5 -80t-41 -57.5t-43 -26.5t-43.5 15q6 25 12.5 31
t14.5 5.5t17.5 -1.5t21.5 10z" />
    <glyph glyph-name="asterisk" unicode="*" horiz-adv-x="306" 
d="M147 287q-9 0 -18 -5.5t-17 -11t-16.5 -9t-15.5 -1.5q-13 3 -22 18t-5 28q3 10 12 14t17.5 7.5t17.5 8t11 14.5q1 2 1 5.5t1 5.5q-18 15 -31 24t-19.5 18t-8 22t4.5 34q56 -15 85 -64q3 3 10 13.5t16.5 22t18 20t14.5 6.5q9 -3 15 -11t7.5 -19t2 -22.5t1.5 -19.5l53 -15
q-5 -20 -14 -27t-19 -10t-17.5 -4.5t-9.5 -8.5l-27 -100l-32 8z" />
    <glyph glyph-name="plus" unicode="+" horiz-adv-x="459" 
d="M213 237q-9 2 -28.5 6t-41.5 9.5t-41 10.5t-27 6q-19 8 -27.5 19t-2.5 33l169 -45q10 42 16 77t16 72q3 10 10.5 11.5t16.5 -0.5q8 -3 15 -8t3 -20l-35 -131q3 0 13 -4t13 -5q9 -1 31 -4t47 -6.5t47 -5.5t32 -3q8 5 8 -4t-19.5 -17t-61.5 -11t-117 16l-40 -152h-38z" />
    <glyph glyph-name="comma" unicode="," horiz-adv-x="180" 
d="M100 -60q1 3 5.5 13t9.5 21t9 21.5t4 13.5q2 10 -1.5 21.5t-8.5 23t-9 22.5t-2 21q3 9 11 10t16 -1q13 -4 20.5 -16t9 -28t1 -32.5t-3.5 -27.5q-3 -12 -7 -26.5t-11.5 -28t-17 -24t-23.5 -15.5q-8 4 -7.5 9t2.5 12z" />
    <glyph glyph-name="hyphen" unicode="-" horiz-adv-x="362" 
d="M54 268q0 11 3.5 15.5t10 5.5t14 0.5t15.5 -0.5q13 1 43 1.5t64 1t64 1t42 1.5h6q10 0 13.5 -6.5t3.5 -15.5t-4 -14t-19 -6l-244 -4q-9 -1 -10.5 7.5t-1.5 12.5z" />
    <glyph glyph-name="period" unicode="." horiz-adv-x="137" 
d="M103 51q8 -3 16.5 -17.5t6.5 -23.5q-13 -22 -27.5 -19t-21.5 16t-2.5 27.5t28.5 16.5z" />
    <glyph glyph-name="slash" unicode="/" horiz-adv-x="488" 
d="M27 30q-1 1 0.5 3.5t11.5 16.5t33.5 44.5t69 85t117 135.5t176.5 199l3 2q3 -1 3.5 0t3.5 1q6 1 16.5 -1t6.5 -17q0 -2 -3 -8.5t-7.5 -11t-8 -10t-6.5 -6.5q-53 -49 -105.5 -103.5t-102 -111.5t-97 -117.5t-86.5 -119.5q0 -2 -1 -2l-3 -1q-9 -1 -14.5 5.5t-6.5 16.5z" />
    <glyph glyph-name="zero" unicode="0" horiz-adv-x="513" 
d="M134 -57q-34 11 -59.5 44t-39 81t-11.5 108t23 122q20 78 52.5 137.5t71 96.5t82.5 50t87 2q38 -10 68.5 -33.5t49 -61.5t19.5 -92.5t-20 -132.5q-22 -81 -57.5 -146t-79.5 -108t-92.5 -60.5t-93.5 -6.5zM78 285q-16 -59 -15.5 -108.5t15.5 -87t36 -65.5t49 -35
q47 -1 102.5 37.5t83.5 71t41 78.5q25 62 33.5 109t6 81.5t-11 72.5t-38.5 60.5t-41 27.5q-48 15 -88 -1t-69.5 -46.5t-57.5 -78t-46 -116.5z" />
    <glyph glyph-name="one" unicode="1" horiz-adv-x="222" 
d="M115 420q1 5 4.5 21t6.5 33t6 31.5t3 20.5q-5 -1 -17.5 -6t-26 -10t-26.5 -10t-17 -5h-6.5h-5.5q9 30 26 48t38 30.5t44 25t42 28.5l2 -1l0.5 0.5t1.5 0.5q7 -2 7.5 -19t0.5 -26q-19 -67 -39 -139t-39.5 -148t-37.5 -152t-32 -145q-8 -9 -21 -17t-19 -14q-4 9 -5 21t0 22
z" />
    <glyph glyph-name="two" unicode="2" horiz-adv-x="345" 
d="M239 364q18 21 24.5 40.5t14.5 47.5q12 45 12.5 72.5t-24.5 34.5q-22 6 -41 -14.5t-34 -45.5t-26.5 -47.5t-20.5 -19.5q-13 3 -6 31q11 36 29 69t39 55t43 32t39 7q18 -6 26 -21.5t8.5 -39t-4.5 -52.5t-13 -59q-13 -49 -31.5 -86t-39.5 -66t-42.5 -53.5t-41 -48t-35 -49
t-23.5 -56.5q17 -6 32.5 -16t30.5 -21t30.5 -21t33.5 -16q9 -1 18 -3.5t17.5 0t16.5 12.5t14 33q6 20 5 37t-4.5 30.5t-5.5 27t2 28.5q2 6 5 14.5t7 3.5l39 -38q2 -3 0 -21t-6 -40.5t-8 -40.5t-5 -24q-9 -30 -23 -48t-30 -27.5t-32 -11.5t-28 1q-15 4 -28 15t-25 23.5
t-24.5 22.5t-28.5 14q-10 3 -21 -4.5t-21.5 -17.5t-21.5 -17.5t-21 -4.5q17 65 43 117t56 96.5t63.5 84t66.5 81.5z" />
    <glyph glyph-name="three" unicode="3" horiz-adv-x="440" 
d="M30 147q12 45 31 69t45 43l3 -2q12 -3 6 -23q-3 -13 -9.5 -23.5t-14 -20.5t-14 -21t-9.5 -23q-6 -24 -2.5 -47t13 -40t23 -28t25.5 -12q27 -4 58.5 2.5t61.5 26.5t55.5 55.5t40.5 91.5q9 34 6.5 64.5t-11.5 55t-24.5 41t-32.5 21.5q-18 5 -36 2t-35 2q-6 2 -10 5.5
t-1 17.5t14.5 21.5t28.5 14t35 12t35.5 15.5t31 25t20.5 41q0 2 -1 7.5t-4 5.5q-3 2 -11 5t-17.5 6t-18 5.5t-11.5 3.5q-19 4 -35.5 3.5t-32 -3t-30 -3.5t-26.5 2t-11 20t6 34q2 6 19 10.5t36 2.5t37 -7t25 -6q5 -1 21.5 -5.5t34.5 -9.5t34.5 -9.5t23.5 -6.5q3 4 12 7t13 1
q1 -1 4 -11.5t-12.5 -35.5t-29 -45t-26.5 -38.5t-17 -24.5q-4 -2 -5 -4q-5 -5 -5 -7q-1 -2 -1 -3l-2 -4v-4q-1 -1 -1 -2q16 -19 29 -40t21 -47t8 -59t-10 -72q-17 -74 -49.5 -122t-72 -75t-80.5 -35.5t-76 0.5q-16 5 -33 20t-29 39t-16.5 54t5.5 67z" />
    <glyph glyph-name="four" unicode="4" horiz-adv-x="395" 
d="M243 306l-14.5 8t-35 17t-42.5 18.5t-37 16.5l-19 5q-10 3 -17 3h-15t-17 -2t-22 -7q-6 4 -5.5 11t3.5 15q0 2 13 21t31.5 47t41 59t42 57.5t34.5 43.5t18 17q16 -4 10 -26q-3 -7 -5.5 -13.5t-9.5 -5.5l-95 -153l-3 -12q34 -9 63 -28.5t63 -29.5q5 0 15 -2.5t12 -1.5l9 8
q0 1 2 7t4 13t4 15t4 14q6 25 11.5 47t11 43t10 44.5t7.5 49.5q5 8 8.5 15t9.5 6l1 -1.5t2 -1.5q3 -5 7 -14.5t2 -11.5l-42 -213q-3 -14 -1 -19t8 -8q9 -1 17.5 5t14.5 16.5t11.5 22.5t7.5 22q7 -2 9.5 -8.5t3 -14t-1.5 -18t-4 -16.5q-5 -18 -14.5 -29.5t-20 -17t-22.5 -9
t-21 -4.5q-2 -4 -3.5 -12t-4 -16.5t-4.5 -16t-4 -11.5q-9 -33 -16 -61.5t-12.5 -57t-10.5 -61t-13 -76.5q6 -3 4 -12.5t-4 -17.5q-4 -15 -12.5 -25t-18.5 -7q-4 0 -9 3t-4 13z" />
    <glyph glyph-name="five" unicode="5" horiz-adv-x="386" 
d="M17 131q4 19 12 37t17 30.5t21 20t26 4.5q6 -3 11 -8t1 -19q-1 -5 -2 -6l-53 -54q-1 -1 -1.5 -5t-1.5 -6q-5 -18 -4.5 -34t5 -29t11.5 -22t16 -11q25 -7 58 -1.5t65.5 24t59.5 53t42 86.5q12 48 13 85t-9.5 64t-29.5 44.5t-46 24.5q-24 7 -49 -1t-49 -2l-15 4q2 7 5 26
t7 41t6 40.5t4 27.5q-2 11 -2 23.5t1 24.5t4.5 23.5t12.5 19.5q45 -2 95 -4t97 -5q2 0 6 -1t7 -1q5 -2 10 -6.5t2 -18.5q-6 -19 -19.5 -25t-29.5 -5t-31 4t-20 3q-9 2 -21.5 3t-25.5 1q-14 2 -30 4l-11 -12l-24 -90q-3 -11 2.5 -14t9.5 -3q20 -6 41.5 -4t42.5 -4
q30 -7 53 -30.5t34.5 -59t10.5 -81.5t-16 -103q-18 -64 -49.5 -106.5t-70 -67.5t-77.5 -33.5t-69 0.5l-44 12q-18 24 -19 62.5t10 79.5z" />
    <glyph glyph-name="six" unicode="6" horiz-adv-x="326" 
d="M40 245q16 62 39.5 121.5t52.5 113t62 99.5t68 80l4 -2q6 -1 7 -11t-2 -20l-5 -13q-26 -26 -56.5 -72t-58 -99t-49.5 -108.5t-33 -100.5q-11 -40 -10 -74t10 -59.5t24.5 -41.5t34.5 -21q19 71 41 118.5t41 75t35 37t23 7.5q12 -3 23 -13t17.5 -25.5t9 -35.5t-4.5 -45
q-23 -79 -58.5 -124.5t-72.5 -61.5t-71.5 -4t-57 48.5t-28 95t14.5 135.5zM176 101q-2 -8 -5 -19.5t-4.5 -22t-0.5 -17.5t7 -9q12 -3 26 3.5t27 21t24.5 33.5t16.5 40q7 25 7.5 47.5t-15.5 26.5q-16 5 -28 -3.5t-22.5 -23.5t-18.5 -35.5t-14 -41.5z" />
    <glyph glyph-name="seven" unicode="7" horiz-adv-x="298" 
d="M90 95q31 117 68 231t68 230q-13 4 -33.5 9.5t-41 10t-41.5 4.5t-36 -3q-8 -4 -11 -10.5t-5.5 -12.5t-7 -10.5t-15.5 -1.5l31 119q18 -5 30.5 -17t30.5 -17q17 -4 34 -4h35.5t37 -0.5t36.5 -4.5q4 0 6.5 -2t2.5 -15q-1 -3 -4 -14t-5.5 -22.5t-5 -22.5t-3.5 -15
q-15 -54 -31.5 -106.5t-33.5 -104.5t-34 -105.5t-32 -107.5l-28 -105q2 -2 3 -12t-2 -15q-1 0 -5 -4.5t-9 -9.5l-9.5 -9.5l-7.5 -7.5h-2h-2q-11 3 -9.5 23t7 45t13 49t11.5 38z" />
    <glyph glyph-name="eight" unicode="8" horiz-adv-x="371" 
d="M39 209q9 34 22 59t27 45.5t30 40.5t33 42q-3 21 -8.5 37.5t-11.5 31.5t-7 34.5t7 48.5q18 67 48 99t63 23q23 -6 44.5 -19.5t33.5 -45.5q6 4 10 12.5t9.5 16.5t10.5 13t12 3t4 -15t-5 -18q-5 -19 -7.5 -25t-12.5 -21q-7 -9 -22 -30t-32.5 -46t-33.5 -47t-20 -30l-5 -14
q14 -19 24 -44t13.5 -55t2 -63.5t-11.5 -69.5q-13 -50 -30.5 -89t-38 -65t-45 -37.5t-50.5 -4.5q-58 16 -69 73.5t16 159.5zM70 183q-10 -37 -12 -62.5t4 -41t18 -25t32 -14.5q2 -1 6.5 -2t9 -2.5t10 -2t6.5 -0.5q25 18 44 54.5t31 77.5q8 33 10.5 63t-2 56.5t-15 46
t-26.5 29.5q-21 -18 -38 -35.5t-32 -38t-26 -45.5t-20 -58zM168 548q-11 -39 -4 -63.5t29 -30.5q8 -2 22 8.5t28 27.5t25.5 35.5t16.5 32.5q3 14 -4 24t-18 17.5t-21.5 12t-13.5 4.5q-18 6 -35 -14.5t-25 -53.5z" />
    <glyph glyph-name="nine" unicode="9" horiz-adv-x="259" 
d="M160 345l-2 15q-41 -5 -48.5 -6t-31.5 6t-37 41.5t8 114.5t53.5 119.5t70.5 29.5q26 -7 42.5 -35t21.5 -75q-5 -20 -14 -60.5t-20.5 -91.5t-24.5 -107t-24.5 -106.5t-21.5 -91.5t-13 -59l-11 -39q-4 -17 -9 -32t-19 -19l-5 31zM75 513q-15 -54 -3.5 -80.5t33.5 -32.5
q32 -8 53.5 25.5t37.5 94.5l-7 60q0 22 -7.5 28.5t-16.5 8.5q-25 7 -50 -20.5t-40 -83.5z" />
    <glyph glyph-name="colon" unicode=":" horiz-adv-x="138" 
d="M37 102q2 10 12 15.5t20 3.5q11 -3 18 -10.5t4 -18.5t-14 -18.5t-26 -2.5q-1 0 -7 10t-7 16q-1 1 -1 2zM96 276q14 -4 16 -9.5t0 -14.5q-5 -14 -15 -17.5t-17.5 0.5t-8.5 13t12 22q1 1 5.5 4t7.5 2z" />
    <glyph glyph-name="semicolon" unicode=";" horiz-adv-x="181" 
d="M111 -56q2 9 7.5 13.5t13.5 1.5q12 -3 15.5 -9.5t3.5 -15t-2 -17t-4 -15.5q-1 -5 -4.5 -16.5t-8.5 -23.5t-11.5 -20t-15.5 -6l-10 3q3 18 5 37q3 15 5 30t4 26q0 1 1 5.5t1 6.5zM96 89q6 21 27 15q20 -4 15 -26q-6 -22 -27 -16q-21 5 -15 27z" />
    <glyph glyph-name="less" unicode="&#x3c;" horiz-adv-x="530" 
d="M82 267q2 9 11 12.5t16 6.5q6 2 23 8.5t37.5 13.5t38.5 14t23 9q8 5 27 15.5t42 25t49 29.5t49 30t40 25.5t26 17.5q2 -1 5.5 -1h4.5q8 -3 13.5 -8.5t4.5 -14.5q-5 -12 -30 -31t-60.5 -39t-75.5 -40.5t-75.5 -36.5t-58.5 -26t-23 -11q-2 -6 -0.5 -10t5.5 -8l325 -338
l-2 -4q0 -2 0.5 -3t-0.5 -2q-3 -11 -13.5 -20t-22.5 -6q-7 2 -6.5 4.5t-5.5 10.5q-16 19 -39.5 49.5t-46.5 59t-41.5 49t-19.5 23.5q-8 7 -25 23t-38 34.5t-45.5 38.5t-46.5 39.5t-40.5 33.5t-26.5 20z" />
    <glyph glyph-name="equal" unicode="=" horiz-adv-x="244" 
d="M72 110q2 7 5 12t11 6q2 -2 8.5 -3t14 -3t14 -3.5t9.5 -2.5q18 -5 38.5 -11t34.5 -22q-8 -9 -25 -10.5t-36 0t-35.5 5t-25.5 6.5q-19 5 -13 26zM68 257q3 12 11 12t17 -3q10 -1 29.5 -6.5t38.5 -13.5t34 -19.5t18 -25.5l-13 -6l-112 30q-6 2 -15.5 13t-7.5 19z" />
    <glyph glyph-name="greater" unicode="&#x3e;" horiz-adv-x="490" 
d="M394 276q-62 50 -120.5 116.5t-105.5 129.5q-3 1 -6 10.5t-1 11.5q2 1 11.5 7t15.5 8l2 -1q1 -1 1 -0.5t1 0.5q8 -2 13 -6.5t10 -10.5q56 -73 116 -136.5t129 -126.5q9 -7 6 -17v-5q-7 -2 -22 -10.5t-31 -18.5t-31 -18.5t-19 -11.5q-13 -10 -44.5 -33.5t-67 -50.5
t-66 -51t-42.5 -35q-5 -6 -10.5 -14t-12.5 -14.5t-15 -10t-17 -1.5l-9 2q-1 2 -2 8.5t-1 11.5t-0.5 9t0.5 5z" />
    <glyph glyph-name="question" unicode="?" horiz-adv-x="473" 
d="M117 -24q4 15 9 22t14 5q8 -3 9 -12t-2 -22q0 -1 -0.5 -1t-0.5 -1l-1 -2q-3 -6 -11 -13.5t-10 -7.5q-6 0 -9 3t-3 7.5t1.5 11.5t3.5 10zM181 154q-20 -26 -26.5 -24t-5.5 20.5t8 48t14.5 58.5t14 53t5.5 30q52 27 82.5 56t48 57.5t24.5 52t11 40.5q8 32 9.5 64t-4 58
t-17.5 44.5t-31 24.5q-20 5 -43 -2.5t-44 -23.5t-40 -40.5t-33 -57.5q-7 -16 -6 -28.5t-4.5 -46t-19.5 -1.5t0 84q10 39 34 71t52 54t57 32.5t51 4.5q29 -7 48 -29t28 -54.5t7.5 -73.5t-13.5 -85q-12 -48 -29 -81t-39 -59t-48.5 -47.5t-57.5 -44.5q0 -2 -2.5 -9.5t-2.5 -9.5
q-9 -33 -15.5 -67t-12.5 -69z" />
    <glyph glyph-name="at" unicode="@" horiz-adv-x="483" 
d="M58 330q16 61 43 112t67.5 81t83.5 35t84 -6q39 -10 68.5 -38t42 -67t18 -82t-8.5 -96q-8 -30 -21 -59.5t-31.5 -52t-40.5 -33.5t-48 -5q-12 3 -22.5 14t-19.5 24.5t-15 23t-10 10.5q-5 2 -16 -3.5t-23 -13t-21 -5.5t-22 5q-19 5 -28.5 18.5t-13 47t1.5 54.5
q15 55 47.5 78t73.5 12q28 -8 36 -42t9.5 -78.5t6 -72t24.5 -33.5q35 -9 58.5 26t36.5 83q12 46 10.5 88t-15.5 75.5t-38.5 57t-57.5 31.5q-42 11 -79 -3t-67.5 -46.5t-53.5 -79t-37 -99.5q-12 -44 -13 -93.5t12 -92t36.5 -73t60.5 -40.5q35 -10 56.5 -1t34.5 22.5t21 25.5
t16 11q12 -3 10.5 -20t-4.5 -30q-72 -51 -148 -42q-55 15 -91.5 92t-34 142.5t21.5 137.5zM158 270q-8 -26 -4 -42t26 -22q23 -6 39.5 16t25.5 53q2 9 5.5 21t4 23t-1.5 19t-12 10q-29 8 -51.5 -16.5t-31.5 -61.5z" />
    <glyph glyph-name="A" unicode="A" horiz-adv-x="749" 
d="M622 299q-27 2 -58.5 9t-64.5 15t-66 14.5t-60 7.5q-22 -22 -43 -54.5t-43.5 -68t-46.5 -69.5t-50.5 -61t-55.5 -44t-61 -17h-11t-16 0.5t-15 0.5h-11q-11 7 -11 16t11 15q31 -8 63 4.5t62.5 37t59 58t54 69.5t46.5 71t36 63q-3 1 -8.5 5.5t-12.5 9.5t-13 9.5t-8 6.5
q-8 7 -24.5 22.5t-34 33t-31 34t-16.5 26.5q0 9 4 13.5t10 6.5t13.5 2h16.5q25 0 50 -7t49.5 -15t49.5 -14.5t50 -6.5q19 24 38 67t37.5 90.5t38 91t38.5 69.5q19 33 28.5 41t12.5 4.5t2 -12.5t-1 -13q1 -13 3 -50.5t4 -86.5t4.5 -103.5t5.5 -102.5t5 -81t4 -40h11
q44 21 68 28t31.5 4t2 -13t-20.5 -22t-36.5 -23t-44.5 -16q-3 -21 -2 -54.5t5 -73t9.5 -82t11 -83t9 -74.5t5.5 -56q0 -6 -1 -8t-3 -2.5t-6.5 -1t-11.5 -4.5q-14 52 -20.5 102.5t-10.5 102t-10 104t-20 105.5zM403 376q43 -11 85.5 -16t66.5 -12q-13 18 -39.5 44t-70.5 47
q-8 -11 -21.5 -28.5t-20.5 -34.5zM616 355q1 38 -0.5 94.5t-3.5 116t-5 112t-6 82.5l-129 -289zM278 502q-24 4 -28 -4t4.5 -21.5t26 -29.5t37 -28.5t37.5 -19.5t28 -2q5 5 8 11t5.5 13t6.5 16.5t12 22.5q-7 3 -26.5 9t-41.5 12.5t-41.5 12.5t-27.5 8z" />
    <glyph glyph-name="B" unicode="B" horiz-adv-x="1046" 
d="M434 236q0 5 1 19t1 17q8 9 15 11t17 2q6 0 15 -3.5t13 -10t0 -14t-23 -15.5q0 -40 17 -78t45 -67.5t66 -47.5t81 -18q53 0 106.5 31.5t96.5 79.5t70 106t27 110q0 44 -25.5 79.5t-64 59.5t-83.5 37t-85 13q-35 0 -58.5 -3t-46 -5t-47 -2t-61.5 5l-222 -405
q-24 -43 -64 -74.5t-91 -31.5q-31 0 -55 14t-39.5 36.5t-24 51t-8.5 54.5q16 0 24.5 -9t15.5 -23t14 -29.5t17 -29.5t26.5 -23.5t41.5 -9.5q37 8 70 41.5t63.5 84t60 111t59.5 122.5t62.5 119.5t68.5 99.5q28 38 69 85.5t90.5 89t104.5 70t109 28.5q40 0 59.5 -27t19.5 -63
q0 -47 -24.5 -84.5t-58 -67t-66.5 -53t-51 -41.5q34 -12 74.5 -25.5t75.5 -38t58.5 -61.5t23.5 -96q0 -34 -14.5 -74.5t-39 -80t-58 -76.5t-70.5 -64.5t-76.5 -44.5t-77.5 -17q-45 0 -89 20t-78.5 52.5t-55.5 75t-21 88.5zM897 893q-17 0 -39 -7t-44 -18t-41.5 -24.5
t-33.5 -24.5q-8 -7 -26.5 -25.5l-38.5 -38.5t-37 -38t-23 -24q-7 -8 -17.5 -24t-23 -33.5t-23 -34.5t-18.5 -30q22 0 50 2t57.5 5t55.5 5.5t44 4.5q24 16 59.5 42t70 58.5t60.5 68.5t32 72q0 31 -17 47.5t-47 16.5z" />
    <glyph glyph-name="C" unicode="C" horiz-adv-x="488" 
d="M27 178q-9 38 -2.5 99.5t24.5 132t45.5 144.5t62 135.5t74.5 103t83 49.5q12 0 20 -2t17 -11q8 -8 20.5 -21t23.5 -34.5t17.5 -52t2.5 -70.5q-1 -6 -6 -8.5t-10 -2.5h-3q-1 0 -2 1q-1 18 -3.5 45.5t-10.5 53t-25 43.5t-46 18q-24 0 -53 -30.5t-56.5 -78.5t-53.5 -107.5
t-45.5 -116.5t-31.5 -106.5t-12 -77.5q0 -33 9.5 -75t28.5 -79t48.5 -62.5t71.5 -25.5q43 0 83 24t72.5 60t55.5 78.5t31 79.5q9 -2 10.5 -11t1.5 -16q0 -2 -0.5 -7.5t-1.5 -7.5q-11 -35 -35.5 -77t-58.5 -79t-74.5 -61.5t-83.5 -24.5q-37 0 -67 16.5t-54 42t-41 57
t-26 62.5z" />
    <glyph glyph-name="D" unicode="D" horiz-adv-x="684" 
d="M103 615q1 10 2 23.5t4 28.5q2 15 4 32h23q0 -17 -1.5 -36t-5 -46.5t-8.5 -66t-12.5 -94.5t-17 -133t-20.5 -181q19 18 35 30.5t38 12.5q25 0 44 -12t34.5 -30.5t29.5 -40t30.5 -40t37 -31t48.5 -12.5q31 0 65 18.5t66.5 48.5t62 68.5t51.5 78t34.5 78t12.5 68.5
q0 1 -0.5 2.5t-0.5 2.5q-24 -23 -46.5 -38.5t-47 -26t-52 -15t-59.5 -4.5q-61 0 -102.5 23.5t-66.5 62.5t-35.5 89t-10.5 104q0 44 11.5 99.5t37 105t65.5 82.5t97 33q44 0 79 -17.5t63.5 -47t49 -68t33.5 -80t19.5 -83t6.5 -77.5q1 -48 -7.5 -102.5t-27 -109.5t-45 -107
t-59.5 -94.5t-71 -72.5t-81 -40t-89 3t-93 55q-17 22 -29 44.5t-34 39.5q-3 3 -11 7.5t-10 3.5q-29 -7 -44 -32t-25 -53.5t-21 -51t-32 -22.5l8 54zM269 574q0 -50 10.5 -94.5t33.5 -77t60.5 -52t91.5 -19.5q58 -5 98.5 14t65 54t33.5 82t5 98t-21 101t-44 91.5t-63 70
t-79 36.5q-52 0 -88.5 -32.5t-59 -79.5t-33 -99.5t-10.5 -92.5z" />
    <glyph glyph-name="E" unicode="E" horiz-adv-x="525" 
d="M14 174q0 34 12 66t30.5 62.5t41 57t43.5 50.5v5q0 25 -5.5 47.5t-5.5 49.5q0 24 8 55.5t23 66t35.5 68t44.5 59.5t50.5 42.5t54.5 16.5q22 0 41 -9.5t32 -25.5t20.5 -36.5t7.5 -41.5q0 -5 1 -12.5t-0.5 -14.5t-5.5 -12.5t-12 -5.5h-5q-2 9 -6.5 30t-13 42.5t-21 37.5
t-31.5 16q-41 0 -75.5 -29t-60.5 -70.5t-40.5 -88t-14.5 -80.5q0 -21 3 -37.5t8 -42.5h10q22 0 43.5 7.5t44 15.5t45.5 15t46 7h24t28 -3t23.5 -10.5t9.5 -22.5q0 -30 -20 -49.5t-48.5 -31.5t-59 -17t-51.5 -5q-15 0 -28 5t-24.5 11.5t-23 11.5t-24.5 5h-6
q-49 -38 -77.5 -88.5t-28.5 -112.5q0 -57 25 -87t81 -49q58 -11 108.5 -0.5t95.5 31.5t86.5 46.5t83.5 44.5q4 -8 7 -13.5t3 -13.5q0 -6 -1.5 -9t-8.5 -7q-89 -43 -146.5 -67t-93.5 -36t-54.5 -15t-26.5 -3q-38 0 -74 12.5t-64 35.5t-45.5 55t-17.5 71zM215 404
q0 -9 7 -14.5t17.5 -8t21 -3t17.5 -0.5q16 0 35.5 3t39 9t35.5 16.5t27 24.5q-8 11 -20.5 16.5t-25.5 5.5q-10 0 -35 -3.5t-51.5 -9t-47 -14.5t-20.5 -22z" />
    <glyph glyph-name="F" unicode="F" horiz-adv-x="790" 
d="M5 137q11 18 28.5 30t40.5 12q5 0 8 -1.5t7 -9.5q-2 -1 -7 -3t-10.5 -5t-10.5 -8t-5 -11q0 -11 16 -22t41 -22.5t56 -21.5t60 -18t53.5 -12.5t38.5 -4.5q58 0 103 20t80 53t61.5 77t48.5 94q8 16 10 24.5t2 24.5q0 15 -10.5 25t-27.5 10h-5q-2 -1 -7 -4t-10 -6.5t-9.5 -7
t-5.5 -4.5q-8 3 -9.5 8.5t-1.5 12.5t0.5 19.5t2.5 25t7.5 21t16.5 8.5t18.5 -8t15.5 -18.5t17.5 -18.5t22.5 -8h4q22 76 25.5 146.5t3.5 147.5h-7q-60 -43 -129 -75t-143 -32q-24 0 -47 7.5t-45.5 15.5t-44 15.5t-44.5 7.5q-9 0 -15 -6t-11.5 -13t-11.5 -12.5t-16 -5.5
q0 9 -0.5 29.5t1 42t6.5 39t16 20.5q12 -6 16 -20.5t6 -21.5q48 -30 97.5 -47.5t107.5 -17.5q27 0 69.5 10.5t85 27.5t77 40t45.5 49q10 23 19.5 55t24 62t37 51.5t57.5 21.5q13 0 17 -7.5t4 -19.5q0 -17 -4 -28.5t-18 -28.5q-6 -8 -21 -26t-31.5 -38t-31.5 -38t-21 -24
q4 -42 -1.5 -84t-15 -83.5t-17.5 -83t-8 -81.5q0 -11 11 -13.5t20 -2.5q38 0 68 19.5t59 44.5l11 -11q0 -1 -3.5 -6.5t-9 -13t-11 -13.5t-9.5 -8q-20 -14 -35 -23t-30.5 -15t-34.5 -9t-46 -6q-27 -58 -57.5 -114t-71.5 -101t-94 -73.5t-123 -28.5q-38 0 -83 9t-89 25
t-82 40.5t-62 53.5zM819 893q-16 0 -31 -12.5t-25.5 -29.5t-17 -36t-6.5 -33v-5q27 23 50.5 52.5t34.5 63.5h-5z" />
    <glyph glyph-name="G" unicode="G" horiz-adv-x="873" 
d="M403 237q0 30 12.5 58t33 49.5t48 34t58.5 12.5q0 -12 -19 -25.5t-41.5 -31.5t-41.5 -43t-19 -60q0 -40 15.5 -74t41.5 -60t60.5 -41t73.5 -15q52 1 88 26.5t59 65.5t35 90.5t16.5 103t4 101.5t-3.5 86q-1 15 -5 54t-9 83t-9.5 83t-7.5 54q-42 -36 -77.5 -64.5t-72 -50.5
t-76.5 -40t-90 -34q0 -1 -4 -5l-6 -6l-220 -325q-22 -18 -44 -47.5t-47 -56.5t-53 -46.5t-62 -19.5q-12 0 -21 3t-15 20q1 2 4.5 5.5t5.5 4.5q69 20 121 63.5t99 104t94.5 136t106.5 158.5q0 2 0.5 5.5t0.5 5.5q0 10 -8.5 22t-19 28t-19 37t-8.5 50q0 20 1 42.5t7 41.5
t20.5 31t41.5 12q19 0 32 -7.5t21 -21t11.5 -30t3.5 -32.5q0 -35 -10 -66t-22 -65q1 0 7.5 -0.5t8.5 -0.5q35 0 80 20t87.5 50t76 65t45.5 66q1 4 4.5 22.5t6.5 39.5t5.5 39.5t3.5 23.5q3 15 12 35t21.5 38.5t28.5 30.5t33 12q19 0 25.5 -16.5t6.5 -31.5q0 -25 -13 -52
t-29.5 -51.5t-34.5 -46t-28 -34.5q0 -109 10 -217.5t12 -222.5q2 -41 -1.5 -86.5t-14.5 -90t-28.5 -84t-45.5 -70.5t-65.5 -49.5t-87.5 -19.5q-45 0 -83.5 18.5t-67 50t-44.5 72t-16 86.5zM414 745q0 -7 1.5 -22.5t5 -31.5t11 -28.5t20.5 -12.5h3q1 0 2 1q26 18 33 46.5
t9 58.5q0 9 -1.5 22t-6.5 24.5t-13.5 19.5t-20.5 8q-16 0 -24 -9t-12.5 -22.5t-5.5 -28t-1 -25.5zM910 1042q-15 0 -27.5 -12t-21 -29t-12.5 -35.5t-4 -30.5q0 -2 0.5 -11t0.5 -11q13 11 25.5 25.5t20.5 32t13 36t5 35.5z" />
    <glyph glyph-name="H" unicode="H" horiz-adv-x="993" 
d="M7 128q4 32 31 52.5t53 31.5v-10q-20 -21 -31 -33t-16 -20t-6 -11t-1 -4q0 -24 25 -48t60.5 -42.5t72 -30.5t60.5 -12q36 0 73.5 17t71.5 45t64.5 64.5t53 75t35 76.5t12.5 70q0 16 -7 27t-15 22.5t-15.5 23.5t-7.5 29q0 39 18 61t57 36q5 35 13 66.5t5 67.5
q-9 -6 -35 -14.5t-60.5 -15.5t-71.5 -12.5t-68.5 -6t-53.5 5t-24 19.5v14t1.5 15.5t5 13.5t9.5 6q1 -25 25 -36.5t59 -12.5t76 6.5t75.5 19t56 26t19.5 27.5q12 51 26.5 83.5t26 51.5t20.5 26t11 7q24 -6 26.5 -24t-7 -41.5t-27.5 -50t-34 -52.5q-12 -16 -18 -37t-9 -43
t-4 -44t-1 -41q31 -29 69 -56.5t74.5 -58t66.5 -67t42 -84.5l53 514l25 -4q-10 -133 -18 -238.5t-15 -199t-13.5 -184.5t-10.5 -193q-4 -10 -17 -11.5t-20 -1.5v255q0 7 -6.5 26t-14.5 39t-17 35t-14 16q-35 -18 -66 -24.5t-66 -6.5q-5 0 -17 1t-24.5 2.5t-25 3.5t-16.5 3
q-24 -68 -55.5 -135t-74 -120t-100 -85t-133.5 -29q-24 0 -65 16t-80.5 39.5t-66.5 51.5t-24 52zM606 380q10 -15 38 -21.5t60.5 -5t63.5 9t47 17.5q-5 5 -16.5 17t-24.5 25l-25 25l-17 17q-4 4 -16.5 13t-26.5 19t-28.5 16.5t-23.5 4.5q-6 -3 -11 -22t-9.5 -42.5t-7 -44.5
t-3.5 -28zM553 464q0 -17 6 -33t14 -30q13 26 19.5 52t6.5 55q-20 0 -33 -11.5t-13 -32.5zM715 867q-12 0 -18.5 -8.5t-10 -21t-5 -24.5t-1.5 -18v-5q12 17 23.5 36t11.5 41z" />
    <glyph glyph-name="I" unicode="I" horiz-adv-x="608" 
d="M14 31q0 8 4 15t13 7q17 0 29.5 -6t32.5 -6q68 0 131 29.5t118.5 79.5t101.5 114.5t79.5 134t52 138.5t18.5 129q0 76 -32.5 115t-108.5 39q-34 0 -60.5 -26t-45 -63t-28.5 -76.5t-10 -65.5q0 -55 25.5 -94t80.5 -55l-22 -9q-1 -1 -8.5 2.5t-17.5 8t-20.5 10.5t-16.5 10
q-34 21 -44 57t-10 72q0 35 11.5 80t33.5 85t54.5 67.5t75.5 27.5q47 0 78.5 -15t51 -41.5t27.5 -63t8 -79.5q0 -96 -32.5 -189t-88.5 -175t-131 -148t-159 -109q-25 -12 -57.5 -22t-63.5 -10q-7 0 -19 1.5t-23 5t-19.5 10t-8.5 15.5z" />
    <glyph glyph-name="J" unicode="J" horiz-adv-x="612" 
d="M-48 -182q0 31 6 71.5t22 77t43 61.5t70 25q4 0 11 -0.5t13 -2t10.5 -5t4.5 -9.5q0 -1 -0.5 -2.5t-0.5 -2.5q-48 8 -77 -14.5t-45 -59t-21 -78.5t-5 -73q0 -35 7 -80t25 -84.5t48.5 -67t77.5 -27.5q49 0 91 23.5t77 62t63 88t49 100.5t35 100.5t21 88.5q-34 10 -63 25
t-49.5 36.5t-32 50t-11.5 66.5q-5 75 12.5 127t50.5 96t78.5 89.5t98.5 107.5q10 25 14 61.5t12.5 69.5t27 57t58.5 24q25 0 31 -6t6 -32t-11.5 -49.5t-27.5 -45t-34.5 -41t-32.5 -38.5q-2 -5 -6 -20.5t-5 -20.5q-1 -6 -5 -40t-9.5 -77.5t-10 -87.5t-7.5 -68
q-6 -62 -17.5 -119.5t-11.5 -119.5q29 0 50.5 4t47.5 4q7 0 11.5 -5t4.5 -11q0 -19 -19 -24.5t-43 -7.5t-46.5 -6t-28.5 -19q-10 -43 -26 -95.5t-38.5 -105t-53 -101.5t-68 -87.5t-83.5 -61.5t-102 -23q-55 0 -91 30t-57.5 75.5t-29.5 98.5t-8 98zM350 194q0 -24 9.5 -49.5
t25.5 -46t38.5 -34t49.5 -13.5q5 0 9 2t6 9l63 442v42q-33 -26 -68.5 -67.5t-65 -90t-48.5 -99t-19 -95.5zM680 793q-20 0 -32.5 -12t-20 -29t-11 -36t-3.5 -34q0 -1 0.5 -4.5t0.5 -5.5q29 23 47.5 53.5t18.5 67.5z" />
    <glyph glyph-name="K" unicode="K" horiz-adv-x="883" 
d="M10 101q0 11 1.5 34t7 46.5t16 41t27.5 17.5q9 0 21.5 -3.5t12.5 -14.5q-16 -12 -27 -31q-12 -15 -20 -38t-8 -53q0 -42 8.5 -76.5t28.5 -59t51 -38.5t76 -14q48 0 93 17t84 46t70.5 68t54 83.5t35 91.5t12.5 93q-30 0 -57 -5t-56 -5q-24 0 -48 5.5t-43.5 18t-32 32.5
t-12.5 50q0 18 13.5 28.5t31.5 16t37 7t30 1.5q54 0 89.5 -16t71.5 -59l11 22q1 2 6 25.5t11.5 55.5t13.5 65t10 53q2 3 0 14.5t-2 14.5q-24 -1 -60.5 -5.5l-73 -9t-68 -7t-46.5 0t-7.5 12.5t48.5 30q22 0 50.5 -1.5t57 -0.5t54.5 7t47 19q12 8 20 24t15 35t12.5 38.5t14 35
t21.5 26t32 10.5t21.5 -12.5t2.5 -28.5q0 -18 -8 -36.5t-20.5 -35t-28 -31t-29.5 -25.5l-63 -295v-7q70 0 136.5 30.5t126.5 78.5t110.5 104.5t88.5 108.5h21v-20q0 -2 -11 -17t-26 -35t-31 -41t-26 -34q-34 -42 -78.5 -76t-95 -61t-103 -47.5t-102.5 -35.5v-5v-5
q15 -28 40 -75.5t56.5 -106.5t67.5 -125.5t75.5 -131.5t80 -125t80 -105t77 -72t69.5 -27q58 0 104.5 11t87.5 33t78 54t74 73q15 18 23.5 36.5t8.5 41.5q0 25 -10 44t-27 34.5t-38 26t-42 17.5v13q31 0 59 -9t48 -25.5t31 -41.5t11 -57q0 -40 -19.5 -77.5t-51.5 -70
t-73.5 -59t-85.5 -45.5t-87.5 -29t-78.5 -10q-36 -1 -76.5 25t-82.5 70.5t-85.5 103.5t-85 123.5t-80.5 130.5t-72 124.5t-61 105t-46 72.5q-2 -1 -6 -5t-4 -6q-31 -68 -63 -135.5t-76 -121t-104 -87.5t-146 -34h-63q-37 10 -61.5 34t-38.5 54t-20.5 64.5t-6.5 67.5z
M346 401q0 -18 9 -31.5t22.5 -21.5t30 -12t32.5 -4q11 0 25.5 -1t29.5 0.5t26 6.5t15 16q-16 39 -49.5 51.5t-71.5 12.5q-20 2 -35 1q-13 -1 -23.5 -4.5t-10.5 -13.5zM735 806q-11 -6 -16 -21t-5 -27l1 -4q11 11 16 19t5 22v5.5t-1 5.5z" />
    <glyph glyph-name="L" unicode="L" horiz-adv-x="1064" 
d="M675 174q-12 -8 -45 -26t-70 -38t-69.5 -38t-46.5 -24q-46 -23 -96 -28t-99 -5q-35 0 -73 8t-69.5 25.5t-52 46t-20.5 70.5q0 37 17 64t44 46.5t61 32.5t69.5 21t68 13.5t55.5 9.5h20q55 0 108.5 -16.5t103.5 -36.5l10 -5t18.5 -8.5t19.5 -10t14 -7.5q1 -1 5.5 -4
t10.5 -6.5t10.5 -6.5t5.5 -4l12 -6t9 -4q35 46 64.5 91t40.5 80q-24 -2 -63.5 3t-85 17t-92 31.5t-84 44.5t-61.5 56.5t-24 68.5q0 8 3 14.5t14 6.5q1 0 14.5 -19t33 -43t39.5 -46t32 -29q60 -32 122.5 -50t129.5 -18q12 0 29 3t23 9l273 272q15 15 46 28t62.5 15t56 -9.5
t26.5 -46.5q0 -51 -19 -90t-50 -68.5t-71.5 -51t-84 -37t-86 -28t-78.5 -22.5q-2 -1 -10 -4t-17.5 -6t-17.5 -6.5t-11 -5.5q-16 -24 -30 -45.5t-27.5 -42.5t-27.5 -44t-32 -51q40 -50 74.5 -120.5t68 -147t68.5 -151.5t75.5 -134t88.5 -95.5t110 -35.5q70 0 136 2.5
t118 21.5t83 62.5t31 126.5q0 28 -9 53.5t-25 48.5t-37 41t-46 30q2 0 10.5 1t10.5 1q34 0 58 -17.5t40 -43.5t23.5 -56.5t7.5 -58.5q0 -92 -35 -143t-92 -75.5t-131.5 -29.5t-153.5 -5q-45 -7 -85.5 13.5t-76 60t-68.5 93t-63 113.5t-59 121.5t-56.5 116t-55.5 99t-57 68.5
h-6h-5zM75 163q0 -34 16.5 -56t41 -35.5t54 -19t56.5 -5.5q49 0 98 4t92 28q20 10 51.5 27t62 34t52.5 29t24 14l20 22q-13 25 -49 44.5t-79.5 33.5t-87.5 21t-73 7q-37 0 -85.5 -5t-91.5 -21t-72.5 -45t-29.5 -77zM1258 699q0 25 -14 34t-34 7t-41 -11t-33 -21l-232 -242
h17q26 0 62 7.5t73.5 22t73.5 35t65 46t46 57t17 65.5z" />
    <glyph glyph-name="M" unicode="M" horiz-adv-x="951" 
d="M835 -87q-8 91 -2.5 180t15 177.5t19 177.5t11.5 179v17t-0.5 25.5t-0.5 25.5v17l-0.5 5t-2.5 11t-5 11t-8 5q-53 -41 -96.5 -97t-80 -119t-66.5 -127t-56 -120q-4 -10 -13 -35.5t-19.5 -53.5t-19 -54t-11.5 -37q-2 -2 -10 -5.5t-11 -3.5q-2 0 -6 3.5t-5 5.5v10.5t2 26
t6.5 51t13 87.5t21 136t31.5 194q-2 14 -8.5 16.5t-13 0t-12.5 -8t-8 -8.5q-10 -10 -27.5 -33t-40 -52t-48 -61t-48.5 -61t-41 -52t-26 -35q-3 -10 -10 -35.5t-15.5 -53.5t-16 -54t-10.5 -35q-8 -24 -22.5 -49t-33.5 -45t-42.5 -32t-49.5 -12t-34 3.5t-8 29.5q0 20 3.5 32.5
t17.5 30.5q69 84 109.5 143t62.5 98t29 61.5t9 33.5q3 3 5 22t2.5 44.5t0 54t-1.5 50.5t-2.5 33.5t-3.5 5.5q-75 -32 -116.5 -49t-61 -25t-23.5 -9.5l-4 -1.5q-6 0 -11 5t-5 12q0 5 7.5 10t17 8t18 5t10.5 3q17 7 39 19.5t44.5 24t44.5 21t40 10.5q19 0 28.5 -10.5t12.5 -25
t2.5 -32t-0.5 -31.5q0 -43 -5.5 -87t-5.5 -99q66 87 111 145t75 93t46.5 49t25.5 13.5t14 -14.5t12 -34v-16t-0.5 -20t-0.5 -18.5v-9.5q-2 -14 -7 -51.5t-12 -79.5t-13 -79t-10 -52q24 43 50.5 95.5t55 105t58 102.5t59 89.5t60 66.5t58.5 32q20 0 29.5 -18t14 -42t5 -49
t0.5 -40v-27q-1 -61 -11 -130t-20.5 -142t-20 -147.5t-9.5 -144.5t13 -132.5t44 -113t85.5 -85.5t138.5 -49q25 9 34.5 10t7 -2.5t-14.5 -10t-26.5 -12t-29 -8t-24.5 0.5q-57 0 -99.5 21.5t-72.5 57t-49.5 80.5t-30.5 93zM67 28q16 0 33 10t31 25t25.5 31.5t16.5 28.5
q1 4 6.5 19t13 33.5t14 36t9.5 27.5v6q-12 -14 -36.5 -42.5t-50.5 -60.5t-44 -63.5t-18 -50.5z" />
    <glyph glyph-name="N" unicode="N" horiz-adv-x="701" 
d="M593 58v26t-0.5 39t-0.5 40v26q0 58 5 114t11.5 112.5t12 112.5t5.5 113v69l-358 -337q-1 -9 -4 -33t-6 -51t-6.5 -51t-4.5 -33q-4 -29 -17.5 -65.5t-34.5 -68.5t-49 -54.5t-63 -22.5q-30 0 -50 21.5t-18 53.5q4 47 26 92.5t52.5 87.5t66 79t65.5 66q1 5 1.5 21t0.5 21
q0 25 -1 44.5t-4 39.5t-7 42.5t-10 51.5q-3 9 -9 10.5t-13 1.5q-1 0 -4.5 -0.5t-5.5 -0.5q-31 -25 -69.5 -43.5t-79.5 -18.5q0 12 3 19t9 10t14 5t19 7q7 3 25 12l38 19t37.5 19.5t25.5 12.5q1 0 5 0.5t5 0.5q12 0 20.5 -10t11.5 -22l32 -219l377 365l21 -20q0 -1 1 -9.5
t1.5 -18t1 -19.5t0.5 -17q0 -64 -8 -126.5t-16.5 -125t-16 -125.5t-7.5 -126q0 -7 0.5 -23.5t1 -35t1 -35t0.5 -22.5q21 -179 198 -179q5 0 17 1.5t25.5 3t25 3.5t16.5 3q-8 -12 -21.5 -18.5t-28.5 -9.5t-31 -3.5t-28 -0.5q-47 0 -81 11.5t-58 34t-40.5 56t-26.5 77.5z
M56 76v-15t1.5 -16.5t6.5 -13t14 -5.5q27 0 49.5 17t39 44.5t28.5 61.5t19 68.5t10.5 64t3.5 49.5h-12q-2 0 -9.5 -7.5t-18 -17.5t-20 -20.5t-15.5 -17.5q-17 -18 -34 -41t-30.5 -48t-23 -51.5t-9.5 -51.5z" />
    <glyph glyph-name="O" unicode="O" horiz-adv-x="565" 
d="M26 321v28.5v35.5t0.5 30.5t0.5 15.5q0 3 2.5 21.5t5.5 42t6.5 46.5t5.5 37q3 16 11 45t20.5 58t31 49.5t43.5 20.5v-16q-59 -99 -78 -203t-19 -219q0 -42 2.5 -77t12.5 -66.5t29 -60t53 -57.5q10 -8 17 -9t18 -1q57 0 105 29t86 74t63 98.5t35 102.5q-79 -5 -133 9.5
t-87.5 49t-48 90.5t-14.5 135q0 27 2.5 66.5t10 81.5t21.5 83.5t35.5 74t52 53t72.5 20.5q35 0 61 -21.5t44.5 -52.5t30.5 -65.5t17 -60.5q0 -9 0.5 -31.5t0.5 -47.5v-47.5v-31.5q0 -63 -6 -121.5t-6 -119.5v-11l74 32v-6q0 -8 -11 -15q-3 -2 -14 -8t-23.5 -12.5
t-23.5 -12.5t-13 -9t-6.5 -17t-9.5 -30.5t-9.5 -31t-5.5 -17.5q-20 -47 -47 -94t-63.5 -84.5t-82 -60.5t-101.5 -23q-61 0 -94 32.5t-50 80t-20.5 101.5t-3.5 97zM224 602q0 -40 10.5 -82t32 -76t55 -55.5t81.5 -21.5q10 0 23 -0.5t26 1t23 6t13 14.5q1 6 4.5 19.5t6.5 29
t6 28.5t5 18v11q0 7 1.5 38t3 66.5t3 66t1.5 38.5q0 29 -4.5 73t-18 86.5t-38 75.5t-64.5 39q-34 4 -59.5 -17.5t-44.5 -58t-31.5 -81.5t-20.5 -88.5t-11 -79t-3 -50.5z" />
    <glyph glyph-name="P" unicode="P" horiz-adv-x="551" 
d="M13 111q0 46 12.5 80.5t33 64.5t46 57.5t53.5 61.5q6 7 19.5 23t31 36t37 41.5t37 41.5t32 35t21.5 22q26 60 34.5 118.5t6.5 121.5q-24 0 -43.5 -6t-39.5 -13.5t-42.5 -13.5t-51.5 -6v27q22 0 40.5 1t35.5 5t34 10.5t37 18.5q10 6 21 17t21.5 22.5t21.5 19.5t22 8
q0 -33 -6 -64.5t-13 -63.5t-12 -63.5t-3 -64.5l231 232q33 32 64.5 47.5t74.5 15.5q27 0 39 -9t12 -37q0 -37 -12 -86.5t-34 -103t-53.5 -105.5t-68.5 -93t-78.5 -66.5t-85.5 -25.5q-31 0 -59 16.5t-51 36.5q-2 -11 -7.5 -36.5t-12.5 -54t-13 -53.5t-9 -35q-5 -19 -12.5 -37
t-14.5 -34q-12 -26 -32 -64t-46.5 -73t-60 -59.5t-71.5 -24.5q-22 0 -38.5 9.5t-26.5 26t-15.5 36t-5.5 40.5zM45 113q0 -15 2 -29t7.5 -26t16.5 -19.5t28 -7.5q42 0 77 30t63 77t48.5 105t34.5 114t21 103t7 72q-8 0 -32.5 -23t-54.5 -54.5t-59 -65.5t-46 -56
q-23 -29 -43.5 -52t-36 -47t-24.5 -52.5t-9 -68.5zM388 556q0 -18 5.5 -37t17.5 -35t29 -25.5t38 -9.5q42 0 81 24t73 63t61 89t46.5 101.5t30 100.5t10.5 85q-45 0 -79.5 -20t-70.5 -45q-8 -8 -24.5 -25t-37.5 -39t-43.5 -45.5t-43.5 -45.5t-37.5 -39.5t-23.5 -25.5
q-12 -14 -19 -21t-10 -13t-3 -14v-23z" />
    <glyph glyph-name="Q" unicode="Q" horiz-adv-x="688" 
d="M383 146q-18 -20 -40 -42t-47.5 -40.5t-53.5 -30t-59 -11.5q-27 0 -53 11.5t-47 30.5t-35.5 43.5t-20.5 50.5q-8 43 -8 105t8.5 130.5t24 137.5t38 125.5t51 95t64.5 46.5h51q0 -11 -11 -20t-25 -17.5t-28 -17.5t-19 -18q-21 -47 -45.5 -107.5t-43 -125.5t-28 -130.5
t-0.5 -123.5t39.5 -104t91.5 -72q25 -7 51 7t50 34.5t43.5 42.5t30.5 32q-12 59 -24 117.5t-21.5 116.5t-14.5 113t-3 105q3 24 5.5 55t7.5 64t13.5 66t22 61t34.5 49.5t52 30.5q26 0 43.5 -17.5t28.5 -46.5t16 -63.5t7 -68.5t2 -62.5v-45.5q0 -126 -26.5 -239.5
t-89.5 -223.5q7 -24 19.5 -50.5t30.5 -48.5t41 -36.5t52 -14.5q41 0 80 14.5t71 40.5q1 0 1 -2v-3q0 -21 -18 -36t-42 -24.5t-49.5 -14t-38.5 -4.5q-35 0 -60.5 10.5t-46 29t-38 43.5t-34.5 53zM331 630q-2 -40 1 -83t8.5 -86.5t13.5 -86t19 -80.5q1 -6 4.5 -15t7.5 -17
t8.5 -14t9.5 -6q4 0 12.5 15.5t18.5 37t19.5 45.5t13.5 39q20 67 31.5 130t11.5 131q0 32 -2 60.5t-6.5 56.5t-11 59t-13.5 67q-3 13 -14 28t-28 15q-10 0 -24 -19t-26 -44t-22 -50t-12 -36q-2 -12 -5.5 -35t-6.5 -46.5t-5.5 -42.5t-2.5 -23z" />
    <glyph glyph-name="R" unicode="R" horiz-adv-x="702" 
d="M81 -38q-44 2 -55 39.5t-1 96.5t34.5 132.5t52 148t51.5 143t34 117.5q0 38 -8 47.5t-20.5 6t-30 -14t-36.5 -13.5v26q3 4 15 13t26 17.5t27.5 15.5t20.5 7q9 0 15.5 -6t11 -14.5t7 -18t3.5 -14.5t2.5 -18.5t3.5 -28.5t3.5 -28.5t1.5 -19.5q2 6 14.5 20.5t31.5 32
t41.5 37.5t45 37.5t42.5 31.5t32 21q54 32 85 35.5t43 -13.5t8 -49t-20.5 -70.5t-43 -79.5t-58.5 -75.5t-67.5 -58t-69.5 -26.5q20 -18 41 -53.5t42 -78.5t44 -87t47 -81t51 -60t57 -23q33 0 67 12.5t52 42.5q0 -25 -12 -42t-30 -28t-42 -17.5t-47 -8.5q-46 2 -78.5 34
t-58 77.5t-48.5 97.5t-49.5 94.5t-60.5 67.5t-82 16q-25 -113 -42 -187.5t-29 -121t-20 -69.5t-15 -33.5t-13.5 -15.5t-15.5 -13zM167 420q-22 -28 -42.5 -78.5t-36.5 -107t-26 -110.5t-10 -89q7 -30 19 -22.5t25.5 39.5t26.5 81.5t24 102.5t16.5 102t3.5 82zM438 722
q-32 -31 -73.5 -61t-77 -62t-56.5 -66.5t-13 -72.5q39 -15 81.5 -3t82.5 39.5t75.5 65t60 75t35.5 69t4 47.5t-35 11t-84 -42z" />
    <glyph glyph-name="S" unicode="S" horiz-adv-x="889" 
d="M28 28q-3 0 -6.5 5.5t-6 12t-4 13.5t-1.5 9q0 6 23.5 13.5t57.5 19t70 27t60 38.5q-17 64 -17.5 115t20.5 90t65 67.5t117 49.5q-6 -5 -5.5 -9t3 -7t4 -5.5t-1.5 -5.5q-53 -26 -92 -48t-60 -52t-22.5 -73t20.5 -110q59 44 113.5 81.5t110.5 77.5t117.5 86.5t136.5 108.5
l21 284q3 34 17.5 70t39.5 65t56.5 47.5t67.5 18.5q59 -13 77.5 -43.5t9 -70.5t-40 -87.5t-68 -96.5t-75 -96.5t-61.5 -86.5q14 -96 8 -188.5t-32 -169.5t-71.5 -129t-110.5 -66t-149 18t-188 125zM272 141q85 -79 157 -107t128 -16.5t96 55.5t63 108.5t28 143.5t-10 161z
M931 985q-44 -5 -72.5 -28t-44.5 -56.5t-23.5 -74.5t-10 -83.5t-4 -82t-6.5 -70.5q13 11 35 36t47 57.5t50 69.5t45 70.5t32.5 62t12.5 45.5q0 27 -18.5 40.5t-42.5 13.5z" />
    <glyph glyph-name="T" unicode="T" horiz-adv-x="762" 
d="M14 236q0 24 8 52.5t22.5 53.5t36.5 41t52 16q12 0 27.5 -5.5t15.5 -22.5q-26 0 -50 -9t-41.5 -25t-28.5 -40.5t-11 -54.5q0 -43 24.5 -79.5t61.5 -63.5t80.5 -42.5t82.5 -15.5q77 0 140 39.5t107 97.5q95 132 141.5 291.5t47.5 328.5q-34 -27 -67.5 -51.5t-72 -43
t-83.5 -27.5t-103 -4q-29 0 -60 3.5t-61.5 5.5t-61.5 0t-59 -11v139q16 7 22.5 0t8.5 -22t0 -33t-3 -33q62 0 119 -9.5t117 -9.5q42 0 86.5 11t86 30.5t78 46.5t62.5 60q2 13 5.5 35t8.5 46t14.5 45t25.5 33q19 0 29.5 -17t12.5 -36q0 -21 -9 -38t-20 -32.5t-21.5 -31
t-12.5 -35.5q-1 -10 -4 -32.5t-6.5 -50.5t-8 -59t-9 -59t-8.5 -50t-6 -32q-11 -52 -30 -110.5t-46 -117t-62.5 -112.5t-79.5 -95.5t-97.5 -66t-115.5 -24.5q-45 0 -95 17t-92 46.5t-70 71t-28 91.5zM803 956q-5 -11 -7.5 -22t-2.5 -31q8 9 9.5 17.5t1.5 19.5q0 2 -0.5 8
t-0.5 8z" />
    <glyph glyph-name="U" unicode="U" horiz-adv-x="842" 
d="M145 190v10.5t0.5 13t1 11.5t0.5 6l64 389v42q-15 -10 -28.5 -14t-26 -6t-25 -2h-29.5q-4 0 -17 -0.5t-27.5 1.5t-26 7.5t-11.5 18.5q0 1 1 3t1 3q14 10 25 15.5t27 5.5q2 0 4.5 -3t-4.5 -18q4 -1 15.5 -1.5t15.5 -0.5q22 0 42 7t39 16t38 16.5t39 7.5v-25l-85 -483v-15
q0 -21 5.5 -47t18 -49.5t31.5 -40t46 -16.5q16 0 31 7t27.5 18.5t23 24t18.5 24.5q34 49 56 100t41.5 103t40 104t50.5 102l54 210q1 6 5.5 8.5t9.5 2.5q11 0 13.5 -9t2.5 -17q0 -46 -8.5 -92.5t-18.5 -93.5t-18.5 -94t-8.5 -94q0 -48 6.5 -98t27 -91t58 -68t97.5 -27
q29 0 45.5 7.5t38.5 24.5q2 0 7 -4t5 -6q0 -18 -11.5 -29t-27.5 -16t-32.5 -6.5t-28.5 -1.5q-56 0 -94.5 20t-63.5 52.5t-37.5 76t-18 90t-5 94t2.5 88.5q-3 -10 -11 -30l-18 -45t-21.5 -52.5t-22.5 -52t-19.5 -44t-12.5 -28.5q-13 -28 -30.5 -61.5t-40.5 -61.5t-52.5 -47.5
t-66.5 -19.5q-36 0 -61 16.5t-39 42.5t-20.5 58t-6.5 63z" />
    <glyph glyph-name="V" unicode="V" horiz-adv-x="571" 
d="M126 735h-5q-2 0 -4 0.5t-3 0.5q-28 0 -52 -7t-54 -7q0 16 14 23q6 4 22 9.5t34.5 12.5t35.5 12.5t23 8.5h5q9 0 11.5 -5t4.5 -16q1 -10 4.5 -31.5t8 -49t10.5 -57t12 -56t10.5 -48t7.5 -31.5q6 -22 17.5 -58t24.5 -77.5t28 -85t28.5 -80t23 -64t13.5 -35.5l11 -20
q2 1 6 4.5t5 5.5q3 5 8.5 18.5t12 28t13 28.5t8.5 19q5 17 14.5 51t21 77.5t24 91.5t23.5 92t19.5 78.5t12.5 51.5q1 7 6 36.5t10 66.5t9.5 72.5t6.5 54.5q1 6 -1 17t-2.5 21.5t2 20.5t11.5 15h2q1 0 1.5 0.5t1.5 0.5q16 0 16 -16v-6q-1 -15 -2.5 -38t-3 -44.5t-3 -37.5
l-1.5 -16q-36 -160 -64 -277t-49.5 -199.5t-37.5 -136t-29.5 -85t-26 -47t-25.5 -22.5q-5 3 -10 10.5t-9.5 16.5t-7.5 16t-4 9l-147 452z" />
    <glyph glyph-name="W" unicode="W" horiz-adv-x="997" 
d="M510 494q-15 -61 -29 -114.5t-29.5 -104.5t-34.5 -100.5t-44 -100.5q-5 -11 -11.5 -11.5t-15.5 -0.5q-22 0 -38 20t-27 46.5t-16.5 53t-7.5 38.5q-1 7 -2.5 23.5t-3 35t-3 35t-1.5 22.5v51t0.5 78.5t1 91t1 91t1 78.5t0.5 51h-26q-7 -4 -26.5 -13t-41 -19t-41.5 -18.5
t-27 -11.5q-1 0 -6.5 -1.5t-12.5 -3t-13.5 -3.5t-9.5 -4q-1 -1 -2 -1h-4q-8 0 -17.5 4t-9.5 13q0 13 13 16q2 0 11 1.5t20 3t20 3t11 2.5q9 5 33 15t51.5 22t51 22t32.5 15q2 0 5.5 0.5t5.5 0.5q13 0 17 -7t4 -18q0 -73 -11 -146.5t-11 -146.5v-10t0.5 -13t0.5 -11v-6
q0 -13 3 -47.5t6.5 -73.5t6.5 -73.5t5 -47.5q1 -5 6 -23.5t12.5 -39t17.5 -37t21 -16.5q12 0 16 12l157 483l11 10q7 -4 13.5 -13.5t7.5 -17.5l53 -347q3 -23 16.5 -54t33.5 -59t45.5 -47.5t53.5 -19.5q22 0 41 18.5t33.5 43.5t24 49.5t14.5 37.5q16 40 31 88t27 97.5
t19.5 99t7.5 92.5q0 25 -4.5 56.5t-14 63t-24 61.5t-34.5 53.5t-45.5 37t-56.5 13.5h-18.5t-13.5 -1q-2 0 -10.5 -5.5t-10.5 -5.5t-6 4.5t-4 6.5q4 13 11 20.5t15.5 10.5t19 3h20.5q59 0 97 -32.5t60.5 -80t31.5 -102t9 -100.5q0 -30 -6 -84t-18.5 -117.5t-31 -129
t-42.5 -119t-54 -87.5t-65 -34q-38 0 -69.5 21t-55 52.5t-38.5 68t-22 69.5q0 5 -3 23t-6.5 43t-8 55t-8.5 58.5t-8.5 53.5t-6.5 41q-1 4 -0.5 7t0 5t-2.5 3.5t-8 4.5z" />
    <glyph glyph-name="X" unicode="X" horiz-adv-x="908" 
d="M133 -198q40 63 80.5 133t79 143t72 144.5t58.5 136.5q-52 39 -86 81.5t-59 90.5t-46 101.5t-47 116.5l-149 -64q-9 10 -2.5 21.5t22 21.5t37 20t44 17t42 10.5t31.5 3.5q20 -43 39 -96.5t44.5 -107.5t61 -102.5t88.5 -81.5q23 58 43 119.5t42 124t48.5 121.5t62.5 110
q1 6 5.5 5t10 -5.5t10 -11t4.5 -11.5q-36 -88 -62.5 -155.5t-46.5 -118t-33.5 -85t-21.5 -57.5q-20 -53 -22 -61q31 -26 63 -65t65.5 -80t70 -79t76.5 -61.5t85 -28t95 21.5l2 -4l4.5 -9t4.5 -8.5l2 -3.5q-55 -23 -94 -30t-70.5 3t-61 34.5t-65 63t-83.5 89.5t-116 114
q-66 -134 -113 -227t-80.5 -153.5t-55 -93.5t-36 -46.5t-24.5 -11.5t-19 11z" />
    <glyph glyph-name="Y" unicode="Y" horiz-adv-x="665" 
d="M72 -211q-15 20 -23 42.5t-10 39.5t1.5 27.5t12 5.5t21.5 -27.5t30 -71.5q54 -103 101 -152t89 -57t77.5 21t65 83t53 127.5t40.5 155.5t27 166t13 160q-17 -63 -46 -98t-62 -41.5t-65 15t-56 71.5t-34 129t0 186q-10 -2 -24.5 -10t-29.5 -18.5t-30.5 -19.5t-28 -13.5
t-20.5 -2t-9 17.5q14 6 32 18t37 24.5t37 23t32 15t23.5 1t11.5 -19.5q3 -30 2.5 -66.5t0 -74t4 -75t14.5 -69t31 -55.5t53 -35q44 10 71 41t41.5 72.5t21 90.5t10.5 97.5t8.5 91.5t15.5 74l22 -8q-3 -140 -14 -278t-29.5 -263.5t-44.5 -233t-60.5 -185t-77 -120t-94 -38
t-112 60t-129.5 175.5z" />
    <glyph glyph-name="Z" unicode="Z" horiz-adv-x="803" 
d="M1234 -28q-50 -66 -110.5 -92.5t-130.5 -26.5q-62 0 -129.5 17.5t-137.5 44.5t-140 58t-137.5 57.5t-131.5 44.5t-120 18q-43 0 -80.5 -12t-70.5 -40q-3 0 -7.5 -0.5t-9 0.5t-9 3.5t-5.5 7.5q20 19 35.5 30.5t30.5 20.5t34 16.5t47 17.5q3 0 11 4l10 5l410 316l95 105v10
q-23 0 -46.5 -5.5t-46 -11t-45.5 -10.5t-46 -5q-21 0 -37 1.5t-31.5 5t-33 9.5t-40.5 17q-8 -12 -18 -20t-23 -11v119q14 0 18.5 -3.5t6.5 -8.5t4.5 -11.5t11.5 -12.5q22 -16 42 -24.5t40 -12t42 -4.5t49 -1q48 0 96 6.5t88 35.5q18 13 33.5 34.5t31.5 42t34.5 35.5t43.5 15
q12 0 19 -3.5t7 -18.5q0 -12 -23 -39.5t-58.5 -63.5t-78 -76t-81 -75.5t-68 -63t-38.5 -38.5q-12 -8 -34 -25.5t-50 -39t-58.5 -46t-59 -46t-50.5 -39t-32 -25.5q-3 -2 -11 -10.5t-10 -10.5q28 3 74.5 -13t105.5 -43t128 -58.5t143.5 -59.5t151 -46t151.5 -18q59 0 111 13
q27 5 43 11.5t28 15t23.5 20t32.5 27.5q1 1 2.5 -6.5t3.5 -7.5zM846 715q0 3 -4.5 0t-9.5 -8t-8 -9.5t0 -4.5q5 -1 13.5 7.5t8.5 14.5z" />
    <glyph glyph-name="bracketleft" unicode="[" horiz-adv-x="688" 
d="M79 22q0 12 1 37t2 57t2 67.5t2 67.5t2 57.5t1 37.5q0 3 0.5 18.5t0.5 22.5q0 47 -4.5 95t-17.5 96q-1 4 -4 13t-6 19t-6.5 19t-4.5 12q0 1 -3.5 7t-7 13.5t-6.5 13t-3 7.5t7.5 10t12.5 11h2q1 0 1 1t1 1q38 0 73 -7.5t70 -16t72.5 -16t79.5 -7.5q6 0 22 0.5t34 1
t33.5 1.5t21.5 1q4 1 14.5 5t23.5 7.5t26.5 6.5t23.5 3q0 -34 -18 -48t-44 -18t-57.5 -2t-56.5 2h-16t-18.5 1t-17 1h-8.5q-11 1 -40.5 5t-63.5 9t-63.5 10t-41.5 7q0 -2 -0.5 -7.5t-0.5 -7.5q0 -55 10 -113t12 -113v-40.5t-0.5 -60.5t-1 -71.5t-1 -71.5t-1 -61t-0.5 -40
q16 0 32.5 4.5t32.5 10t31.5 10t33.5 4.5h424q0 -3 0.5 -11.5t-1 -17.5t-6 -16t-13.5 -7q-64 0 -128 10.5t-130 10.5q-28 0 -48.5 1t-39 0t-37 -3.5t-42.5 -8.5q-12 -3 -28 -10t-31.5 -14.5t-32 -12.5t-30.5 -5q-6 0 -14.5 0.5t-10.5 11.5z" />
    <glyph glyph-name="backslash" unicode="\" horiz-adv-x="383" 
d="M341 10q-9 15 -29.5 44.5t-46.5 67t-54.5 78.5t-54.5 78t-46.5 66.5t-30.5 43.5q-3 4 -12.5 15.5l-19 23t-19 22t-13.5 13.5q0 2 -0.5 5.5t-0.5 5.5q0 8 4 14.5t13 6.5h5q3 -2 7.5 -6.5t9 -9.5t9 -9.5l6.5 -6.5l262 -358q7 -9 14.5 -14t14 -10.5t10.5 -14t4 -23.5
q0 -12 -5.5 -23.5t-16.5 -18.5z" />
    <glyph glyph-name="bracketright" unicode="]" horiz-adv-x="488" 
d="M59 76q12 0 21 -3.5t18.5 -8.5t18.5 -8.5t20 -3.5h262q10 0 11 10.5t1 15.5q0 2 -0.5 8t-0.5 8l-64 484q7 23 -10 42q-11 1 -41 3.5t-63.5 6t-63.5 6.5t-42 5q-9 1 -25 4t-31 6t-26 6t-12 5l-22 20q3 10 11 11t15 1q16 0 26.5 -2t21.5 -5t25.5 -7t37.5 -7q57 -9 116 -12
t116 1l73 -578q5 -14 8 -26.5t3 -26.5q0 -9 -3.5 -20.5t-18.5 -10.5l-304 10q-36 2 -57 17t-21 49z" />
    <glyph glyph-name="asciicircum" unicode="^" horiz-adv-x="331" 
d="M268 452q-3 10 -12 35t-19 53.5t-19 54t-13 35.5q-1 3 -3.5 8.5t-6.5 12t-7.5 13t-4.5 8.5q-15 -10 -28.5 -29.5t-25.5 -43.5t-23.5 -48.5t-23.5 -44.5t-24.5 -32.5t-26.5 -12.5q-11 0 -16 11q4 8 15 29t22 44.5t22 44.5t15 30q2 3 9.5 15t16.5 26t16.5 26.5t9.5 15.5
q6 10 12 21t13 21t16 16.5t23 6.5q2 0 5.5 -0.5t4.5 -1.5q0 -30 8.5 -64.5t20.5 -69.5t24.5 -65.5t20.5 -52.5q0 -2 3 -7.5t7 -13t7 -13.5t3 -8v-2q0 -1 0.5 -2t0.5 -2q0 -10 -8 -18t-18 -8q-11 0 -16 12z" />
    <glyph glyph-name="underscore" unicode="_" horiz-adv-x="499" 
d="M22 31q12 1 37 2t57 2t67.5 2t68 2t57.5 2t37 1q6 0 23 0.5t36 0.5h36h23q0 -3 -1 -8t-2.5 -11t-3.5 -10t-5 -4h-430v21z" />
    <glyph glyph-name="grave" unicode="`" horiz-adv-x="184" 
d="M139 553q2 -3 0 -8.5t-4 -6.5q-30 7 -47 27.5t-33 44.5q-17 29 -17.5 45.5t8.5 18t23.5 -12t28.5 -43.5q5 -11 10.5 -19t10.5 -14.5t10 -14t10 -17.5z" />
    <glyph glyph-name="a" unicode="a" 
d="M69 -3q-36 10 -52 31.5t-17 49t12 58.5t34.5 60t49.5 52.5t59 37t63 14t61 -17.5q-10 -25 -18.5 -54.5t-12.5 -59.5t-1 -58.5t16 -50t40.5 -35t71.5 -13.5q27 4 41 11t24.5 17t21.5 23t33 29h5q-3 -34 -16 -54.5t-32.5 -32t-44 -15t-51.5 -3.5q-67 0 -106 27t-44 89
q-3 -12 -17 -31t-33.5 -36.5t-42.5 -28.5t-44 -9zM35 84q0 -11 1 -21t5 -18t11.5 -12.5t21.5 -4.5q26 1 53 25t48.5 56.5t35 68t15.5 59.5q-12 22 -38.5 23t-56.5 -18.5t-57 -59.5t-39 -98z" />
    <glyph glyph-name="b" unicode="b" horiz-adv-x="300" 
d="M14 213q10 112 20 192t22 136t24.5 91t26.5 53t29 24.5t30 6.5q50 -7 69 -36t16 -70.5t-23.5 -91t-50 -97.5t-62.5 -91t-61 -71q-12 -78 -14 -121t3 -63t18.5 -23t31.5 -1q24 3 42 28.5t28.5 58t13.5 63.5t-4 46q36 1 64.5 -1t61.5 1q11 0 20.5 1t13 -1t-1 -9t-21.5 -23
q-5 -1 -18.5 -2.5t-28.5 -3t-29 -3t-19 -1.5q-2 -8 -7 -21.5t-11 -29t-11 -29t-8 -21.5q-5 -14 -13.5 -31t-20 -31t-26.5 -23.5t-32 -9.5q-32 -3 -50 15t-25.5 48t-6 67.5t9.5 73.5zM175 676q-19 -6 -35 -29t-29 -56.5t-22.5 -73t-16 -76.5t-10 -67t-2.5 -46q14 8 31.5 27.5
t35 45.5t34.5 56.5t30 60t21 55t8 42.5q0 13 -1 23.5t-5 19t-13.5 13.5t-25.5 5z" />
    <glyph glyph-name="c" unicode="c" horiz-adv-x="371" 
d="M382 78q-125 -56 -202.5 -69t-118.5 3t-49.5 51.5t4.5 76t42.5 78t66.5 56t75.5 10t67.5 -58.5v-4q-2 -3 -10 -10.5t-10 -9.5q-14 29 -34.5 40.5t-44 8t-46.5 -19.5t-41.5 -40t-29.5 -54.5t-11 -61.5q7 -22 27.5 -29.5t47.5 -6t59.5 9.5t64 18.5t60.5 19.5t49.5 13t30 0
t2.5 -21z" />
    <glyph glyph-name="d" unicode="d" horiz-adv-x="462" 
d="M3 87q23 75 50 118t59.5 63.5t70.5 25t81 4.5q8 36 14.5 67.5t14 60.5t18 56.5t26.5 56.5q10 18 13 25t18 7q14 0 21 -9.5t10 -22.5t3 -27v-24q0 -43 -15 -82t-33.5 -77.5t-34 -76.5t-15.5 -79q0 -16 2 -36.5t9.5 -39t19.5 -31t34 -12.5q15 0 29.5 5.5t28 12t28 11.5
t29.5 5q2 0 6 -0.5t6 -0.5q-20 -31 -58 -47t-72 -16q-25 0 -40.5 7.5t-25.5 22t-18 33t-18 42.5q-18 -20 -40 -44t-47 -44.5t-53.5 -34t-60.5 -13.5q-20 0 -32.5 8t-18.5 21.5t-7.5 30.5t-1.5 34zM43 77q0 -8 1.5 -17.5t5 -17.5t10 -13t15.5 -5q20 0 51 19t59.5 47t49 58.5
t20.5 54.5q0 28 -11.5 41t-38.5 13q-33 0 -62 -17t-51.5 -43t-35.5 -57.5t-13 -62.5zM370 518q-16 -21 -28 -50.5t-20.5 -60t-12.5 -60t-4 -49.5q0 -2 0.5 -5.5t0.5 -4.5l10 10q2 2 9.5 21t16 44t16.5 51t12 42q0 1 0.5 13t0.5 17q0 4 -0.5 16t-0.5 16z" />
    <glyph glyph-name="e" unicode="e" horiz-adv-x="362" 
d="M0 117q-3 37 7.5 79.5t33 78t55.5 59.5t72 24q14 0 23 -8.5t9 -22.5q0 -33 -17.5 -65t-42.5 -61t-52.5 -54t-45.5 -43q0 -1 -0.5 -4.5t-0.5 -5.5q0 -16 9 -28t22.5 -19.5t29 -11.5t28.5 -4q40 0 70 7.5t55.5 23t48 37.5t46.5 49q7 8 8.5 12t2 7t2.5 5.5t9 7.5
q8 -3 9.5 -9t1.5 -12q-8 -29 -33 -61.5t-60 -59.5t-76 -43.5t-81 -11t-75 36t-58 97.5zM170 317q-25 0 -48.5 -15t-41.5 -37.5t-29 -49t-11 -47.5q0 -2 0.5 -11t1.5 -11q18 10 40.5 29.5t42 43.5t32.5 49.5t13 48.5z" />
    <glyph glyph-name="f" unicode="f" horiz-adv-x="360" 
d="M-35 -266q0 36 1 66t5.5 61t12.5 68t22 86l159 389q32 4 43 -16.5t7.5 -54.5t-19 -76t-36.5 -81.5t-45 -71.5t-44 -47q3 -16 12.5 -27t22.5 -17t27 -8t28 -2q55 0 101.5 17t91.5 48q10 6 15 12.5t9 11t9 7.5t15 3q0 -19 -15.5 -37t-40 -33t-55 -27.5t-60 -22t-55 -15
t-40.5 -6.5q0 -30 9.5 -57.5t10.5 -58.5q0 -15 -4.5 -41.5t-12 -57t-18.5 -61t-26 -55.5t-32.5 -41t-37.5 -16q-22 0 -34.5 20t-18 46.5t-6.5 53t-1 41.5zM-4 -253q0 -10 0.5 -32t4.5 -44t11 -39t22 -17q11 0 22.5 14.5t21.5 37t18 49.5t14.5 52t10 45.5t3.5 28.5
q0 27 -2.5 48.5t-10.5 39t-22.5 30.5t-39.5 24q-16 -9 -26.5 -39t-16.5 -67.5t-8 -73.5t-2 -57zM102 152q14 16 27 37t24 44t17.5 46.5t6.5 45.5q0 2 -0.5 8t-0.5 8l-11 -10l-63 -168v-11z" />
    <glyph glyph-name="g" unicode="g" horiz-adv-x="440" 
d="M-31 -412q-1 4 -1.5 18t-0.5 19q0 26 8 51.5t20 50t28 46.5t32 40q7 7 28 24.5t44.5 37t44.5 36t29 23.5q10 18 10.5 36.5t0.5 37.5q0 5 -0.5 21t-0.5 21q-12 -7 -28.5 -16t-34 -17.5t-36 -14t-34.5 -5.5q-24 1 -42.5 17.5t-27 41.5t-5 55.5t23.5 61t58.5 57.5t98.5 44
q9 0 22 -0.5t25.5 -4t21 -11t8.5 -21.5q0 -19 -1.5 -49.5t-3 -64.5t-3 -65t-1.5 -50q0 -2 0.5 -10.5t0.5 -10.5q32 12 56.5 26t48.5 28t51 27t64 24q11 -6 11 -16q0 -2 -14.5 -10t-38 -19.5t-52.5 -26t-56 -29.5t-49 -29.5t-32 -27.5q-1 -13 -5.5 -47t-9.5 -72.5t-9.5 -73.5
t-6.5 -48q-5 -28 -11.5 -56t-19.5 -50.5t-34.5 -37t-55.5 -14.5q-14 0 -31 3.5t-34 10.5t-32 17t-24 22zM0 -371q0 -15 9.5 -27t24 -19.5t31 -11.5t30.5 -4q25 0 42 19.5t28.5 49.5t18.5 66t11 69t5 59.5t1 36.5v25q-29 -19 -64 -48.5t-65.5 -64.5t-51 -73.5t-20.5 -76.5z
M42 55q0 -18 14 -22.5t26 -4.5q39 1 66 19t44.5 42t24.5 48.5t6 39.5v11q0 23 -10.5 38.5t-31.5 15.5q-26 4 -55 -14t-51 -47t-32 -63.5t-1 -62.5z" />
    <glyph glyph-name="h" unicode="h" horiz-adv-x="449" 
d="M0 0q-2 16 3 55t14 89t21 107t24.5 111t23.5 99.5t18 74.5q4 12 9.5 31.5t14.5 38.5t21.5 32.5t28.5 13.5q3 0 9 -1.5t10 -3.5v2q6 -5 10.5 -16.5t7.5 -25t4.5 -26t1.5 -18.5q0 -49 -11.5 -90t-28.5 -74t-37 -61.5t-36.5 -53.5t-26 -48t-7.5 -47q12 16 26.5 31.5t30 27.5
t34 19t40.5 7q14 0 28 -2t19 -20q1 -14 1 -38t1.5 -51t5.5 -53t12.5 -45t21.5 -27t34 2q63 31 96 40.5t42.5 6t0 -16.5t-32 -26.5t-54.5 -24.5t-65 -11q-40 0 -59.5 22t-28 56t-8.5 73t1 72q-2 10 -11 11t-16 1q-28 0 -48.5 -20t-37 -50t-29 -63t-25 -60t-25.5 -42t-28 -8z
M104 336q23 8 39.5 44t26 80t12.5 87t0.5 65t-11.5 12.5t-25 -68.5q-4 -14 -10 -43t-12.5 -58.5t-12.5 -54.5t-7 -32q0 -1 -0.5 -7.5t-0.5 -9.5q0 -2 0.5 -7.5t0.5 -7.5z" />
    <glyph glyph-name="i" unicode="i" horiz-adv-x="230" 
d="M15 238q1 2 4.5 15t8.5 28.5t12 28.5t17 13t16.5 -4.5t4.5 -18.5q-20 -49 -31 -96.5t-11 -100.5q0 -18 4.5 -36t15 -31.5t26.5 -22t39 -8.5q76 30 109 37t36.5 2t-17 -19t-51.5 -25.5t-67 -18t-63 3.5q-15 5 -28.5 12.5t-22 32t-10 73.5t7.5 135zM131 481q0 -25 -7 -35.5
t-15.5 -10t-15.5 8.5t-7 16.5t9.5 15t35.5 5.5z" />
    <glyph glyph-name="j" unicode="j" horiz-adv-x="147" 
d="M-242 -286q0 41 19.5 77.5t49 68t63.5 59t63.5 48.5t49 35.5t19.5 23.5v114q4 49 12.5 68.5t16 20t13 -10.5t3.5 -23l-2 -149q8 8 24 22t34.5 29.5t37 29.5t30.5 24q5 2 12.5 3.5t13 -0.5t4.5 -10t-15.5 -23.5t-45.5 -41.5t-86 -65l-9 -9q-2 -1 -3.5 -12t-3 -26t-3 -31
t-2.5 -26q-1 -22 -3 -59.5t-6.5 -82t-14 -91t-25.5 -83.5t-41 -60.5t-61 -23.5q-37 0 -64 20t-44.5 51t-26.5 67t-9 66zM-220 -290q0 -21 8 -50.5t23 -55.5t36.5 -44t48.5 -18q28 0 49 21t35.5 54t22.5 73t12.5 77.5t6.5 69t2 46.5v20t-0.5 30.5t-1 30t-0.5 20.5
q-34 -18 -76 -46.5t-79 -64.5t-62 -77.5t-25 -85.5zM94 473q0 -27 -7 -36.5t-15.5 -9t-15.5 8t-7 16.5t10 15.5t35 5.5z" />
    <glyph glyph-name="k" unicode="k" horiz-adv-x="417" 
d="M67 337l74 313q38 30 55 18.5t17.5 -50t-13 -97t-34.5 -123.5t-47 -129t-51 -113q28 28 56.5 59.5t59.5 57.5t67 43t79 18q28 -8 34 -24.5t-3.5 -36.5t-30 -42.5t-45 -43t-49.5 -37.5t-42 -26q15 -20 35.5 -37t44 -30t48.5 -20.5t51 -7.5q18 0 33.5 2t27.5 19q3 0 7 -4
t4 -6q0 -11 -8 -21.5t-19 -17t-23.5 -10.5t-21.5 -3q-38 3 -73 22t-67 40.5t-63 38.5t-60 17q-5 0 -17 -1t-15 -2q-9 -14 -14 -33t-11 -36t-17 -29t-33 -12zM120 166q28 -14 62 -6.5t64 28.5t51.5 51t25.5 60q-28 0 -57 -14.5t-56.5 -35.5t-50.5 -44zM78 261
q17 34 31.5 60.5t26.5 57.5t23.5 72.5t23.5 103.5v14.5t-1.5 20t-6 15.5t-13.5 2z" />
    <glyph glyph-name="l" unicode="l" horiz-adv-x="259" 
d="M4 129q2 42 12.5 94t25.5 105.5t34.5 104.5t39.5 92t38.5 67t33.5 32q8 0 13 -9.5t7 -21t3 -22.5t1 -14q0 -32 -7 -68.5t-19 -73.5t-27.5 -72t-31.5 -60q-14 -23 -28.5 -38.5t-26.5 -30t-19.5 -31.5t-7.5 -43q0 -53 29 -90t87 -37q36 0 69 13t48 51h12q0 -24 -13.5 -42
t-33.5 -29.5t-43.5 -17.5t-43.5 -6q-33 0 -58.5 12t-44 32.5t-31 47t-18.5 55.5zM183 550q-4 -5 -11.5 -18.5t-16.5 -28.5t-16 -28t-9 -19q-8 -20 -20.5 -52.5t-24 -65.5t-20.5 -59t-9 -33q25 16 47.5 54.5t40 83.5t28.5 90t11 76z" />
    <glyph glyph-name="m" unicode="m" horiz-adv-x="785" 
d="M74 219l52 146q14 4 20.5 -4t6 -22t-5.5 -33t-11.5 -38.5t-13.5 -37.5t-12 -30l168 136q25 14 38 10.5t17 -18t1.5 -36.5t-7.5 -45t-11 -44.5t-7 -34.5q19 15 41.5 39t47 51t49.5 51.5t48.5 41t43.5 21t34 -9.5q0 -28 -6.5 -55t-15 -54t-15.5 -54t-7 -56q0 -60 28.5 -86
t87.5 -26q43 0 86 14t82 29q0 -1 0.5 -2.5t0.5 -3.5q0 -16 -23.5 -28.5t-54 -21.5t-60 -14t-41.5 -5q-69 0 -103.5 31t-34.5 99q0 26 5 50t11.5 48.5t11.5 48.5t5 50q-38 -13 -77 -47.5t-74.5 -79t-64.5 -94t-48 -92.5q-4 -3 -13 -8t-16 -3.5t-9 12.5t8 38l69 231
q-10 17 -33 3t-52 -45t-61 -72.5t-61.5 -79t-54.5 -63.5t-38 -26q-3 0 -7.5 4t-3.5 6z" />
    <glyph glyph-name="n" unicode="n" horiz-adv-x="479" 
d="M253 99q0 28 0.5 48t0.5 38t0.5 38t0.5 47q-19 -4 -42.5 -26.5t-45.5 -49t-40 -50.5t-28 -31q-4 -5 -13.5 -16.5t-21 -25t-21 -25t-12.5 -15.5q-7 -9 -13.5 -11t-18.5 -2v24l48 155q0 34 6.5 63t15.5 46.5t17 20t13 -14.5q1 -5 1 -18.5v-18.5q0 -17 -3.5 -33.5
t-7.5 -33.5t-7.5 -35t-3.5 -40q7 7 22 25t31.5 38t31.5 37.5t22 24.5q9 7 19.5 17.5t23 19.5t26 15t27.5 6q7 0 12.5 -1.5t8.5 -9.5q3 -34 1 -60t-6 -50t-7.5 -49.5t-4.5 -58.5q0 -24 8.5 -38.5t34.5 -14.5q33 0 59 16.5t47.5 40t41 48.5t41.5 43v-11q0 -28 -20 -57.5
t-50 -54t-64 -40.5t-61 -16h-36q-15 10 -21.5 20.5t-9 21.5t-2.5 24.5v29.5z" />
    <glyph glyph-name="o" unicode="o" horiz-adv-x="427" 
d="M2 99q0 26 11.5 60t31.5 64t47 51t59 21q12 0 20.5 -3.5t14.5 -19.5q-29 -9 -56.5 -25.5t-48.5 -38t-33.5 -49t-12.5 -60.5q0 -13 1 -25t5.5 -21t13 -14.5t23.5 -5.5q39 0 62.5 11.5t45.5 38.5q-10 17 -10.5 35.5t-0.5 37.5t4 50t14.5 59.5t27.5 49.5t43 21
q15 0 27.5 -4.5t20.5 -17.5q0 -3 0.5 -8.5t0.5 -12t0.5 -13t0.5 -8.5q0 -24 -3.5 -43t-10.5 -37t-17.5 -36.5t-22.5 -40.5q2 0 11 -0.5t11 -0.5q23 0 48 6t49.5 15t48 20.5t43.5 21.5l9 -10q-52 -42 -118.5 -66t-132.5 -28l-98 -60q-12 -10 -31.5 -10.5t-32.5 -0.5
q-22 0 -34.5 8t-19.5 21.5t-9 31t-2 36.5zM207 161q0 -2 -0.5 -8t0.5 -12t3 -10.5t8 -5.5q16 10 28.5 25.5t20.5 34t12 38t4 37.5q0 1 0.5 7t0 14t-3 14.5t-9.5 7.5q-15 -9 -27.5 -26t-20.5 -37t-12 -40.5t-4 -38.5z" />
    <glyph glyph-name="p" unicode="p" horiz-adv-x="415" 
d="M-48 -400q-1 3 -2.5 10t-3.5 14.5t-3.5 15t-2.5 10.5q-12 52 -6 99.5t21 92.5t37 90t44 93q7 15 3.5 37t-5.5 53t1.5 71.5t23.5 92.5q12 3 18.5 -6.5t8.5 -24.5t0.5 -33t-6.5 -34q36 59 88 98.5t104 51.5q34 -4 47 -27.5t11 -56.5t-16.5 -71t-34.5 -70t-42.5 -55
t-41.5 -26q-4 -9 11 -7t40 11t56 22.5t58.5 27.5t47.5 29t25 26q2 16 8 14.5t5 -14t-13 -34t-46 -46t-94.5 -49t-156.5 -43.5q-6 -2 -19.5 -5t-13.5 -5l-9 -11q0 -10 -2.5 -32t-6 -46.5t-7 -46.5t-4.5 -31q-1 -4 -5 -19t-9 -33t-9.5 -35t-6.5 -26q-3 -11 -8 -25.5t-13 -27.5
t-18.5 -23.5t-23.5 -13.5l-5 1q-3 0 -12.5 7t-11.5 10zM-34 -324q3 -13 6.5 -27t16.5 -21q23 43 37.5 87.5t22 91t10 93.5t3.5 96q-24 -32 -45.5 -71t-35.5 -80.5t-18.5 -84.5t3.5 -84zM244 283q-34 -8 -63 -38.5t-49 -72t-29 -87t-1 -82.5q24 3 52.5 27.5t55.5 58.5
t47.5 71.5t28 67t-1.5 46.5t-40 9z" />
    <glyph glyph-name="q" unicode="q" horiz-adv-x="434" 
d="M128 -288q0 45 5.5 90t6.5 95v9.5t-0.5 14t-0.5 14.5v9q-8 4 -20.5 11.5t-23.5 17.5t-17 21t-2 23q2 5 10 16.5t11 14.5q-26 -11 -49 0.5t-36 33.5t-14 49t17 46q20 25 47 46t58 35.5t63 23.5t63 9q13 0 21.5 -9t8.5 -22q0 -9 -1.5 -13.5t-4.5 -9.5t-7 -11t-8 -19
q-3 -9 -12 -36.5t-19 -58t-18.5 -58t-11.5 -37.5q19 -3 27 -5t13.5 -3t12.5 -1h25q67 58 108 90.5t62.5 45.5t24.5 10t-6 -16.5t-29 -35t-45 -45t-53 -46t-53 -39.5q9 -44 13.5 -99.5t-3.5 -108.5t-35 -96t-80 -61q-17 0 -27 13t-14.5 30.5t-5.5 35t-1 26.5zM185 -26
q-10 -75 -16.5 -128t-9.5 -87.5t-3 -54.5t3 -31.5t8 -16.5t12 -9q28 0 43.5 23t22.5 54t8.5 62.5t1.5 47.5q0 4 0.5 24.5t0 44t-3 43.5t-8.5 23zM128 1q0 -14 22 -14q6 0 8.5 5t2.5 10q0 7 -5 11.5t-12 4.5t-11.5 -5t-4.5 -12zM123 52h47q3 0 4.5 4.5t3 11t2.5 13t1 10.5z
M33 96q0 -11 12 -13.5t21 -2.5q33 0 61 12t47.5 33.5t29.5 51t10 63.5q-15 0 -34 -12t-30 -21q-7 -6 -23.5 -21t-35 -32t-35 -31.5t-22.5 -21.5q-1 -1 -1 -2v-3zM97 207q-9 -2 -19.5 -8t-21 -15t-17 -18t-6.5 -18v-3q0 -1 1 -2z" />
    <glyph glyph-name="r" unicode="r" horiz-adv-x="423" 
d="M462 52q-12 -7 -33.5 -15t-46 -14t-49 -7t-42.5 6t-27 23.5t-3 46.5q0 37 10.5 71.5t10.5 69.5q-11 0 -29.5 -2.5t-39 -6t-39.5 -7.5t-30 -7q-11 -56 -29 -94.5t-37 -61.5t-36.5 -32.5t-29 -8.5t-14 11t8.5 25q23 -1 36 12.5t22.5 36.5t17.5 52t19 60q-8 3 -17 7.5
t-17 10.5t-13 15t-5 20q0 31 15 51t35.5 28.5t41 6.5t32 -14.5t9.5 -36.5t-27 -56q5 1 27 6.5t49 12t51.5 12t34.5 5.5q0 -27 -4 -52.5t-8.5 -51.5t-8.5 -52t-4 -51q2 -17 15.5 -21.5t31.5 -3t39.5 7t40 9.5t30.5 3t12 -14zM91 274q0 -14 10.5 -20.5t21.5 -11.5
q21 21 22 41.5t-7.5 30t-22.5 2t-24 -41.5z" />
    <glyph glyph-name="s" unicode="s" horiz-adv-x="492" 
d="M95 61q-35 -23 -62 -28t-37 1t-0.5 20t48.5 28l-21 33q-3 2 1.5 5.5t9.5 3.5q1 0 7 -1.5t13 -3t13 -3t8 -1.5h5h6q6 4 21 15.5t32 25t31 25.5t20 17q5 3 13.5 11.5t18.5 19t19 19.5l13 13q6 7 11 18.5t11.5 21t15 17t20.5 7.5q10 0 13 -7t3 -15q0 -9 -3.5 -16t-7.5 -14.5
t-7.5 -15t-3.5 -16.5v-208q52 0 79 9.5t45.5 26.5t36 39.5t50.5 47.5v-11q0 -20 -14 -41t-36 -40t-49 -35t-54.5 -26.5t-52.5 -14.5t-42 0q-25 0 -46.5 7t-41.5 18.5t-41 24t-45 23.5zM138 93q6 -13 23 -23.5t37.5 -18t41.5 -11.5t38 -4q0 44 -3 87t-11 86q-4 -2 -16 -10.5
t-16 -11.5l-18 -18t-28.5 -28t-29 -29t-18.5 -19z" />
    <glyph glyph-name="t" unicode="t" horiz-adv-x="279" 
d="M6 232q-3 -2 -13.5 -4t-22 -2t-20 2t-7.5 10q0 20 12.5 24t29 5t32.5 5t21 24l52 199l21 21q9 -3 10 -8t1 -12q0 -2 -0.5 -6t-0.5 -6l-52 -210v-5q13 -7 31.5 -5t38.5 8t39 12t33 7q0 -27 -14.5 -40t-36 -18t-46 -3t-43.5 6q-9 -21 -16.5 -46.5t-7.5 -46.5q0 -24 5 -47.5
t17 -42t31 -30.5t47 -12q47 7 69 18.5t35.5 20.5t28 14.5t44.5 0.5q-9 -18 -30.5 -31.5t-48 -22t-53.5 -13.5t-47 -7q-83 -2 -110.5 58t-15.5 187z" />
    <glyph glyph-name="u" unicode="u" horiz-adv-x="421" 
d="M95 289q11 -22 4 -49t-20.5 -57.5t-28.5 -64.5t-19 -70q0 -20 9.5 -23t28.5 -3q22 0 44 13.5t42 36t36.5 51t28 56t18.5 52.5t7 41l6 7q2 2 3.5 4.5t2.5 2.5q4 0 9.5 -2.5t5.5 -9.5q-17 -92 -14 -141.5t18 -72.5t36 -26t39 -2q68 33 92.5 37t18.5 -6.5t-37 -27.5t-74 -24
q-65 0 -97 33.5t-24 103.5q-14 -28 -26.5 -57t-30 -51.5t-44.5 -36t-68 -13.5q-23 2 -40 14t-17.5 45t20 90.5t71.5 149.5z" />
    <glyph glyph-name="v" unicode="v" horiz-adv-x="285" 
d="M22 310q2 5 5 14t11 9q4 0 4 -1l53 -284l10 10q17 25 27.5 45.5t20 41.5t17.5 45.5t19 56.5q0 5 8.5 12.5t12.5 8.5q2 1 10.5 -4t9.5 -6q4 -1 15 -4.5t23 -7.5t22.5 -8t13.5 -5v-11q0 -2 -11 -1t-25.5 2.5t-29.5 3.5t-22 3l-90 -214q-6 -15 -15 -18.5t-22 -3.5
q-2 0 -7.5 0.5t-7.5 1.5q-6 39 -19 118t-33 196z" />
    <glyph glyph-name="w" unicode="w" horiz-adv-x="429" 
d="M19 343q11 0 19.5 -8t8.5 -19q-1 -11 -1.5 -39.5t-0.5 -60.5t0.5 -60.5t1.5 -38.5q3 -48 15.5 -58.5t28 3t33.5 43t33 63t23 63t6 41.5h26q4 -17 7.5 -50t7.5 -66.5t10.5 -63.5t16.5 -41q11 2 18.5 15t13 31.5t8.5 40t4.5 41t2.5 33.5t1 18l21 22q8 -24 13.5 -38
t13 -22.5t19.5 -11.5t33 -3q29 19 42.5 23.5t15.5 0.5t-5.5 -13.5t-18 -19t-23.5 -16.5t-22 -6q-17 0 -29.5 0.5t-27.5 10.5q-3 -12 -7.5 -36.5t-14 -49t-24.5 -43.5t-39 -19q-13 0 -24 18.5t-18.5 42t-13 46t-7.5 30.5q-18 -33 -39.5 -67t-43 -54.5t-40.5 -20.5t-31.5 33
t-16.5 106t4 200z" />
    <glyph glyph-name="x" unicode="x" horiz-adv-x="337" 
d="M139 120l-96 225q13 13 23 10t18 -16.5t16 -35.5t17 -47t20 -49t27 -41q8 8 21 28t25.5 42t24.5 41.5t17 26.5l4.5 5t10.5 9.5t13.5 5t13.5 -9.5l-107 -201q19 -14 36 -21.5t32.5 -12t32 -7.5t34.5 -6q9 -1 16.5 4.5t14 12t14.5 12.5t19 6q-9 -44 -35.5 -55t-59.5 -5.5
t-67 20t-58 21.5q-23 -25 -40 -61t-33.5 -67t-33.5 -48.5t-39 -4.5z" />
    <glyph glyph-name="y" unicode="y" horiz-adv-x="351" 
d="M-22 -433q0 48 18 104t47.5 111t64.5 106t71 87q10 21 9.5 48t1.5 57q-11 -14 -24.5 -29t-29.5 -27.5t-34 -20.5t-39 -8q-39 -2 -49 71.5t20 219.5q2 2 10 6t10 4q6 0 9 -5t3.5 -12t0 -12.5l-0.5 -5.5q0 -15 -4 -40t-8 -52.5t-7.5 -53t-3.5 -40.5v-24t2.5 -14.5t9.5 -8
t22 -1.5q38 0 63 28t41.5 67.5t25.5 80.5t14 66q11 6 20.5 -0.5t11.5 -9.5v-5q0 -29 -5 -57.5t-11 -58t-11 -62t-5 -69.5q10 7 29 19t40 25.5t40 25t28 19.5q4 3 10.5 9.5t8 6t-3.5 -12.5t-24 -45q-5 -4 -20.5 -17.5t-33 -29t-33.5 -29t-20 -17.5q-22 -46 -30.5 -98.5
t-13.5 -104.5t-11.5 -98.5t-23.5 -81t-49 -53t-88 -12.5q-25 0 -36.5 16t-11.5 38zM11 -409q0 -18 7.5 -32.5t29.5 -14.5q30 -1 50.5 17.5t33.5 49.5t21 70t12.5 80t7.5 80.5t6 70.5l-2 1h-2q-11 0 -28 -18.5t-35.5 -48t-36.5 -66t-32 -72.5t-23 -67t-9 -50z" />
    <glyph glyph-name="z" unicode="z" horiz-adv-x="550" 
d="M144 -326q0 30 19 57t35 48q7 10 26.5 34t41 50.5t41 51t27.5 33.5t9.5 14.5t1.5 14.5q0 11 -1 25.5t-5 28t-13 23t-23 9.5q-13 0 -24.5 -6.5t-23 -15t-25 -15.5t-28.5 -7q-16 0 -26.5 3t-10.5 21q0 13 9.5 20t23.5 11t31 8.5t30.5 15t23.5 28t10 49.5q0 20 -7 33t-29 13
q-35 0 -66 -23.5t-59.5 -56.5t-54 -70t-48.5 -63l-22 10q26 31 49.5 70.5t52.5 74.5t68 58t94 21q26 0 38 -16t16 -38t2 -45.5t-3 -38.5q15 -12 23 -23.5t14 -25t11 -27t14 -28.5q18 13 44.5 31t55.5 34.5t58 27.5t53 11q2 0 6 -4t4 -6l-10 -10q-58 -22 -113.5 -50
t-97.5 -77q0 -24 -9.5 -61t-27 -77.5t-41 -78.5t-51 -61.5t-56.5 -27.5t-57 23zM334 -95q-17 -13 -42 -40.5t-49 -60t-41 -66.5t-17 -59q0 -2 0.5 -8t1.5 -8q31 1 57.5 28t46.5 63.5t32 74t12 60.5v8.5t-1 7.5zM234 52q-8 0 -13 -2.5t-13 -7.5q1 0 2.5 -0.5t3.5 -0.5
q7 0 12 3t14 8h-6z" />
    <glyph glyph-name="braceleft" unicode="{" horiz-adv-x="284" 
d="M24 28q0 37 10 67t26 55.5t34 47.5t33.5 43t26 41.5t10.5 44.5q0 26 -17 36.5t-37 13.5t-37 4.5t-17 11.5q0 16 13.5 26t30 21t29.5 24t13 34q0 30 -16.5 53.5t-36.5 47.5t-36.5 52t-16.5 68q0 31 14.5 55.5t37 41.5t50.5 26t57 9q10 0 23 -1.5t25 -6.5t20 -14t8 -23
q-23 0 -39 7t-39 7q-65 0 -104 -53q0 -3 -0.5 -9.5t-0.5 -14.5v-14.5v-9.5q0 -38 16.5 -63t36.5 -46.5t37 -42.5t17 -52q0 -26 -14 -50.5t-28 -44.5q14 -10 25.5 -19t20 -18t13 -21.5t4.5 -30.5q0 -40 -21.5 -72.5t-47.5 -65t-47.5 -70t-21.5 -87.5q0 -70 36 -95.5
t101 -25.5q25 0 40.5 1.5t28 7t25.5 16.5t32 28v-2v-2q0 -1 1 -1q0 -1 -0.5 -3t-0.5 -3q-1 -3 -4.5 -10.5t-5.5 -9.5q-6 -8 -16.5 -18.5l-20.5 -20.5t-17.5 -17t-8.5 -7h-147q-28 0 -47 17t-30 40.5t-15.5 50t-4.5 46.5z" />
    <glyph glyph-name="bar" unicode="|" horiz-adv-x="104" 
d="M37 819q7 5 12.5 7.5t13.5 2.5q6 0 9.5 -1.5t6.5 -8.5v-27.5t0.5 -41t0.5 -41.5v-27q0 -166 -7.5 -330.5t-4.5 -329.5q-10 -9 -21.5 -11.5t-22.5 -2.5q0 204 3 405.5t10 405.5z" />
    <glyph glyph-name="braceright" unicode="}" horiz-adv-x="399" 
d="M56 -27q0 3 0.5 14t0.5 13q17 -11 26.5 -28.5t20.5 -35t24.5 -29.5t38.5 -12q39 0 68 23t48 57t29 73t10 71q0 29 -12 52t-30 40.5t-38.5 33t-38.5 32.5t-29.5 37.5t-11.5 47.5v27q0 1 2 5.5t4 10t3.5 10t1.5 5.5q-2 7 -8.5 11.5t-14.5 9t-14 12t-6 20.5q0 11 2.5 20
t8.5 22q15 13 36.5 34.5t42 47t34.5 53t14 53.5q0 59 -30 93.5t-87 34.5q-7 0 -18.5 -0.5t-11.5 -1.5q-6 -2 -20 -8.5t-29 -14.5t-28 -16.5t-17 -12.5h-16q0 16 16.5 32.5t39.5 30.5t46.5 22.5t38.5 8.5q81 0 119.5 -41.5t38.5 -118.5q0 -39 -15 -66t-36 -50t-42 -46.5
t-34 -54.5q-2 -8 2 -17q1 -4 3 -9h76l-2 -10q-2 -12 -5 -17q-8 -14 -16 -21t-14 -13.5t-9.5 -15t-3.5 -25.5q0 -20 12 -34.5t29.5 -28.5t38 -30t38.5 -38.5t30 -53.5t12 -77q0 -39 -16.5 -83.5t-45 -81.5t-67.5 -61.5t-83 -24.5q-52 0 -79 34t-27 86z" />
    <glyph glyph-name="asciitilde" unicode="~" horiz-adv-x="420" 
d="M121 622q-20 0 -35.5 -14.5t-27.5 -28.5h-12q-2 26 7 42.5t23 25t29 9.5t24 -3q19 0 35.5 -7.5t32 -16.5t32.5 -17t38 -8h30t25.5 5t18.5 17t7 36q0 33 -8 47t-33 14q0 14 10 16t18 2q24 0 35 -22t11 -50q0 -33 -9.5 -53t-25 -31.5t-36 -15.5t-43.5 -4q-21 0 -40 9
t-36 19.5t-34.5 19.5t-35.5 9z" />
    <glyph glyph-name="exclamdown" unicode="&#xa1;" horiz-adv-x="126" 
d="M84.0957 453.95q0 -10.3125 11.707 -16.2061q11.707 -5.89258 23.4141 -5.89258v8.47168q0 5.52441 -1.46289 11.417q-1.46387 5.89355 -5.85352 9.94531q-4.39062 4.05078 -12.1953 4.05078q-15.6094 0 -15.6094 -11.7861zM53.8525 310.307
q-1.95117 -6.62891 -2.92676 -25.4131t-1.95117 -43.4619q-0.975586 -24.6768 -1.95117 -52.3008t-1.95117 -51.9326t-1.46289 -43.0928q-0.488281 -18.7842 -1.46387 -26.8877q0 -2.20996 -0.487305 -8.4707q-0.488281 -6.26172 -0.976562 -13.9961
q-0.487305 -7.73535 -0.974609 -14.3643q-0.488281 -6.62988 -0.488281 -8.83984q12.6826 -9.57617 20.4873 0.736328q7.80469 10.3135 12.6826 33.5166q4.87793 23.2041 7.31641 55.248q2.43945 32.043 2.92773 64.8232q0.487305 32.7803 0.974609 62.6143
q0.488281 29.834 1.46387 48.249v13.2598q0 5.89258 -1.95117 12.1543t-13.6582 6.26172q-10.7314 0 -15.6094 -8.10352z" />
    <glyph glyph-name="cent" unicode="&#xa2;" horiz-adv-x="371" 
d="M159 341q7 5 12.5 7.5t13.5 2.5q5 0 9 -1.5t7 -8.5v-57q18 -5 35.5 -19.5t31.5 -39.5v-4q-2 -3 -10 -10.5t-10 -9.5q-18 37 -46 46v-43v-64.5v-36.5v-17.5v-7v-7t1 -16.5q37 11 72 23t62 18.5t39.5 3.5t5.5 -22q-54 -25 -98 -40.5t-80 -24.5v-26t1 -34q-9 -8 -21 -10.5
t-23 -2.5v66q-65 -9 -100 7t-46.5 44.5t-3.5 65t29.5 70t52 59.5t64.5 33q0 14 0.5 26.5t1.5 29.5zM41 74q10 -30 43 -34t76 5q-1 40 -2 60t-2 37t-1 39t1 65q-22 -7 -43 -23.5t-37 -39.5t-25.5 -51.5t-9.5 -57.5z" />
    <glyph glyph-name="sterling" unicode="&#xa3;" horiz-adv-x="797" 
d="M712 529q22 -39 22.5 -46.5t-14.5 2.5t-43.5 28.5t-62.5 33.5t-72 17.5t-73 -20.5t-64 -79t-46 -161q77 0 122 -8t63.5 -18.5t14.5 -18.5t-23 -9l-187 25q-3 0 -9.5 -19t-15.5 -45t-18 -51t-16 -35q90 -3 157.5 -18t117 -32t84 -31.5t56 -18t33.5 8t18 47.5l20 14
q-1 -66 -13 -92.5t-37.5 -27t-64.5 17t-95.5 38t-131 37t-169.5 13.5q-70 -14 -117 -28t-75.5 -15.5t-41.5 15t-15 62.5q-1 28 12 45.5t35 26t49.5 8.5t56 -7t53.5 -19.5t42 -29.5q6 7 14.5 27.5t16 44t14.5 44.5t13 31l-175 38q-6 -1 -7 5t-1 8q0 14 10 13.5t21 -0.5
q10 0 33 -4t49 -9.5t48.5 -12t32.5 -10.5q9 88 33.5 145.5t58.5 90.5t74.5 43t79 4.5t73.5 -24t60 -44.5zM41 99q8 -22 26 -21.5t45 9t63 18.5t81 6q-7 14 -26.5 25.5t-44 19t-51 9t-47.5 -4.5t-34.5 -20.5t-11.5 -40.5z" />
    <glyph glyph-name="currency" unicode="&#xa4;" horiz-adv-x="532" 
d="M126 56q-2 -2 -6.5 -2t-6.5 2q-1 14 4.5 29t13.5 30t17.5 29t17.5 23q-5 6 -13 16.5t-15 25.5t-12 35t-3 45q2 28 7.5 56t20.5 51q-24 8 -40 24.5t-30 32.5q-20 21 -20.5 33.5t10 13.5t27.5 -9.5t33 -31.5q8 -15 21 -21t22 -14h1h-1h1q24 15 49 28.5t57 13.5
q30 0 57.5 -7t47.5 -25q8 8 15.5 16.5t15.5 22.5q14 27 29.5 38.5t25 10t9 -15.5t-17.5 -40q-13 -16 -26 -31t-31 -23q11 -17 16.5 -38t5.5 -48q0 -36 -9 -67t-27 -55q23 -9 36.5 -27.5t28.5 -39.5q16 -28 17 -43.5t-8 -17t-24 11t-29 41.5q-10 19 -18.5 30t-17.5 25
q-24 -26 -54.5 -41.5t-66.5 -15.5q-11 -2 -23 1.5t-21 8.5t-14 9.5t-2 0.5q-9 -17 -28 -38q-8 -9 -13 -15t-9.5 -12t-8.5 -12.5t-11 -13.5zM148 287q0 -31 11 -54t28.5 -38.5t39.5 -22.5t44 -7q16 0 37.5 8t41 22.5t33 34.5t13.5 43q10 51 -0.5 81t-29.5 46t-41.5 21
t-35.5 7q-60 0 -100.5 -34.5t-40.5 -106.5z" />
    <glyph glyph-name="yen" unicode="&#xa5;" horiz-adv-x="571" 
d="M208 324q0 11 8 13.5t17 2.5h33t55 -1q1 11 1.5 21.5t2.5 19.5l-199 355h-5q-2 0 -4 0.5t-3 0.5q-28 0 -52 -7t-54 -7q0 16 14 23q6 4 22 9.5t34.5 12.5t35.5 12.5t23 8.5h5q9 0 11.5 -5t4.5 -16l202 -323l2.5 3t7 13t14 31t26.5 59.5t41.5 96.5t60.5 141q1 7 0 16.5
t0 20.5t4.5 19.5t12.5 13.5h2q1 0 2 0.5t2 0.5q15 0 15 -15v-6q-1 -11 -13.5 -48.5t-31 -89t-39.5 -108.5t-39 -105.5t-30.5 -80l-12.5 -31.5l-2 -39q37 -3 66.5 -10.5t35.5 -18.5l-10 -9h-94l-2 -38h15q20 0 41 -0.5t38 -11.5q-5 -10 -32 -16t-63 -10l-11 -230
q-9 -35 -17 -25.5t-14 46.5t-10 92.5t-6 112.5q-29 -2 -52.5 -2h-29.5q-21 0 -21 23q0 7 1.5 12.5t9.5 7.5q2 0 30 0.5t61 0.5v19t1 19h-79q-7 0 -19.5 8t-12.5 18z" />
    <glyph glyph-name="brokenbar" unicode="&#xa6;" horiz-adv-x="109" 
d="M86 409q-3 -109 -6.5 -216.5t-1.5 -216.5q-9 -8 -21 -10.5t-23 -2.5q0 112 1 222t3 222zM26 479q1 46 2.5 87.5t4 82.5t4.5 82.5t4 87.5q7 5 12.5 7.5t14.5 2.5q5 0 8.5 -1.5t6.5 -8.5v-27.5t0.5 -41t0.5 -41.5v-27v-53v-47t-0.5 -46.5t-1.5 -52.5z" />
    <glyph glyph-name="section" unicode="&#xa7;" horiz-adv-x="470" 
d="M365 159q-75 7 -125.5 21t-80 31t-41.5 36.5t-9 40t17 39.5t36 35q-62 27 -85.5 58.5t-20.5 61.5t28 56.5t59 44.5t73.5 25t72.5 -1.5t54.5 -35.5t18.5 -78l-3 -5q-3 -1 -14 -3.5t-13 -2.5q5 33 -6.5 53.5t-33 30t-49.5 9t-56 -10.5t-54.5 -29t-43.5 -46q-5 -18 3 -33
t24.5 -27t39.5 -22t49 -19q35 16 72.5 22.5t69 -3.5t51 -38t16.5 -80q14 -15 10 -35t-30 -55q20 -23 17.5 -50t-19 -53.5t-43.5 -52t-57 -42.5t-59.5 -25t-51 -1t-32 30.5t-1.5 68.5l3 5q2 2 12 6t12 6q-16 -44 -5 -63t37 -19t59.5 14.5t59.5 37t39.5 48.5t-0.5 50zM164 256
q67 -33 115 -40t80 9q21 13 29 31.5t-1 45.5q-7 26 -26 44.5t-44.5 25t-55.5 1.5t-57 -27q-19 -11 -34 -25.5t-27 -31.5q7 -19 19 -34q2 2 2 1z" />
    <glyph glyph-name="dieresis" unicode="&#xa8;" horiz-adv-x="337" 
d="M87 668q8 0 20 -12t12 -21q-7 -25 -21.5 -26t-25 10t-10 25.5t24.5 23.5zM224 668q8 0 20 -12t12 -21q-7 -25 -21.5 -26t-24.5 10t-9.5 25.5t23.5 23.5z" />
    <glyph glyph-name="copyright" unicode="&#xa9;" horiz-adv-x="581" 
d="M251 -1q-44 0 -85.5 18t-73 47.5t-48.5 70t-13 85.5q0 56 19.5 101.5t54 77t83 48t105.5 16.5q46 0 90 -14t78.5 -39t55 -60.5t20.5 -78.5q0 -58 -22.5 -108t-62 -86.5t-91.5 -57t-110 -20.5zM49 218q0 -42 20 -77.5t52 -61t70.5 -39.5t75.5 -14q25 0 64 17t76.5 44.5
t65 60.5t29.5 66q-98 -55 -167.5 -79t-116 -24.5t-72 17t-34 46t-1.5 62.5t24.5 66t43 56t56 32t63.5 -3t63 -52v-4q-2 -3 -10 -11l-10 -10q-13 30 -34 41t-44 7.5t-46 -19t-41.5 -40t-30 -54.5t-11.5 -62q10 -20 38 -23.5t64 2.5t78 19.5t80 26.5t68.5 23.5t44.5 11.5
q8 60 -15.5 96t-60 55t-75 25.5t-60.5 9.5q-49 0 -93.5 -14.5t-78.5 -41t-54.5 -66t-20.5 -89.5z" />
    <glyph glyph-name="ordfeminine" unicode="&#xaa;" horiz-adv-x="288" 
d="M66.2725 273.355q-17.8809 5.48047 -25.8281 17.2637q-7.94727 11.7822 -8.44434 26.8535t5.96094 32.0605q6.45703 16.9883 17.1357 32.8818q10.6787 15.8926 24.5869 28.7715t29.3057 20.2773t31.292 7.67285q15.8945 0.273438 30.2988 -9.59082
q-4.9668 -13.7012 -9.18848 -29.8682t-6.20898 -32.6074q-1.9873 -16.4414 -0.49707 -32.0605t7.94727 -27.4014q6.45703 -11.7832 20.1172 -19.1816q13.6592 -7.39844 35.5137 -7.39844q13.4111 2.19238 20.3652 6.02832t12.1689 9.31641q5.21582 5.48047 10.6797 12.6055
q5.46387 7.12402 16.3906 15.8926h2.4834q-1.48926 -18.6328 -7.94727 -29.8682q-6.45703 -11.2344 -16.1426 -17.5371q-9.68555 -6.30176 -21.8545 -8.21973q-12.1699 -1.91895 -25.5811 -1.91895q-33.2783 0 -52.6504 14.7969q-19.3711 14.7979 -21.8545 48.7754
q-1.49023 -6.57617 -8.44434 -16.9893q-6.9541 -10.4121 -16.6396 -20.0029t-21.1094 -15.6191q-11.4248 -6.02832 -21.8555 -4.93262zM49.3848 321.035q0 -6.02832 0.496094 -11.5088q0.49707 -5.48047 2.48438 -9.86523q1.98633 -4.38379 5.71191 -6.84961
q3.72559 -2.4668 10.6787 -2.4668q12.9141 0.547852 26.3252 13.7012q13.4111 13.1523 24.0908 30.9639q10.6787 17.8115 17.3848 37.2666q6.70508 19.4551 7.69824 32.6074q-5.95996 12.0576 -19.123 12.6055q-13.1621 0.547852 -28.0635 -10.1387t-28.3125 -32.6084
q-13.4111 -21.9209 -19.3711 -53.707z" />
    <glyph glyph-name="guillemotleft" unicode="&#xab;" horiz-adv-x="547" 
d="M312 58q1 -2 -2 -9.5t-7 -10.5h-7q-15 0 -22.5 12.5t-12.5 23.5q-6 8 -24.5 29t-39.5 44.5t-40 44.5t-27 29q-3 3 -12 11.5t-20 17.5t-20 16.5t-13 11.5v3q0 7 8 10q64 28 122.5 59t116.5 69q10 7 20 7q1 -1 2 -1h1q4 -2 10 -6.5t7 -6.5t-3 -8t-6 -7q-49 -31 -106 -63.5
t-115 -55.5zM470 51q1 -2 -2 -9.5t-7 -10.5h-7q-16 0 -23 12.5t-12 23.5q-6 8 -24.5 29t-39.5 44.5t-40 44.5t-27 29q-3 3 -12.5 11t-20 17.5t-20 17t-13.5 10.5v3q0 8 8 11q65 28 123.5 59t116.5 69q9 7 19 7q1 -1 3 -1h1q4 -2 10 -6.5t7 -7.5q1 -2 -3 -7.5t-6 -6.5
q-49 -32 -106 -64t-115 -56z" />
    <glyph glyph-name="logicalnot" unicode="&#xac;" horiz-adv-x="451" 
d="M45 367q0 10 3.5 14.5t10 5.5t14 0.5t15.5 -0.5q8 1 27.5 2t45 2.5t55 2.5t56.5 2.5t49.5 2t35.5 1.5q3 1 10 1h2q18 1 18.5 -4.5t1.5 -12.5q1 -3 3.5 -20t5.5 -40.5t7 -50.5t7 -50.5t5 -40.5t3 -20l1 -1v-1q0 -4 -6 -6t-13 -2q-8 0 -12.5 1.5t-5.5 7.5l-27 197l-301 -12
q-8 -1 -9.5 7.5t-1.5 13.5z" />
    <glyph glyph-name="uni00AD" unicode="&#xad;" horiz-adv-x="375" 
d="M58 245q3 10 8 14t11 3t13.5 -3.5t15.5 -4.5q12 -3 41.5 -10t62.5 -15.5t61.5 -15.5t40.5 -9l6 -2q10 -3 11.5 -10t-0.5 -15q-2 -9 -7 -12.5t-20 -1.5l-237 59q-9 2 -8 10.5t1 12.5z" />
    <glyph glyph-name="registered" unicode="&#xae;" horiz-adv-x="555" 
d="M251 -1q-44 0 -85.5 18t-73 47.5t-48.5 70t-13 85.5q0 56 19.5 108.5t53.5 91.5t82 62.5t106 23.5q49 0 93.5 -16.5t78 -46.5t53.5 -73.5t20 -98.5q0 -44 -15.5 -90t-50 -85t-88.5 -65.5t-132 -31.5zM189 84q-22 -1 -31.5 12.5t-10 36.5t7.5 52.5t19.5 61t26 62
t27.5 56.5q0 16 -1.5 19t-4.5 0l-8.5 -8.5t-12.5 -6.5l-3 25q1 1 5.5 4.5t10.5 8t11 7.5t8 3q8 0 11 -9t5 -14q0 -2 0.5 -7.5t1 -12t1.5 -12.5t1 -9q1 4 11 15t23.5 23t27 23.5t21.5 15.5q32 16 49 10t22 -24t-1.5 -43t-20.5 -47t-35.5 -37.5t-47.5 -12.5q12 -11 22 -34
t20 -45.5t22.5 -39.5t30.5 -17q6 0 18 1.5t25 5t25 7.5t19 9q23 50 21 106.5t-26.5 102.5t-70.5 74.5t-108 23.5q-49 0 -92.5 -20t-77 -54.5t-53 -80t-19.5 -95.5q0 -42 18.5 -76t48 -58t66.5 -36.5t74 -12.5q79 0 130 29t78 75q-9 -8 -21.5 -16t-24.5 -15t-23.5 -11
t-17.5 -4q-17 -3 -29 9t-21 32t-17.5 43t-18 44t-23.5 34.5t-33 13.5q-3 -73 -9 -110t-12.5 -52.5t-15 -17.5t-18.5 -7zM326 388q-15 -11 -30 -21t-28 -20.5t-19.5 -22.5t-3.5 -28q20 -8 42 2t40.5 28t31 38.5t14.5 33.5t-9 13t-38 -23zM224 279q-9 -12 -17 -33.5
t-14.5 -45.5t-10.5 -47t-4 -38q2 -13 7 -9.5t10.5 17t11 34.5t9.5 43t6.5 43t1.5 36z" />
    <glyph glyph-name="degree" unicode="&#xb0;" horiz-adv-x="150" 
d="M75 334q-21 0 -36.5 13t-13.5 32q0 23 16 36t43 13q22 0 37 -10t15 -33q0 -24 -17.5 -37.5t-43.5 -13.5zM38 377q0 -18 12 -24t30 -6q11 0 26 7t15 22q2 13 -1 20.5t-9 12t-13 5.5t-12 2q-23 0 -35.5 -9.5t-12.5 -29.5z" />
    <glyph glyph-name="plusminus" unicode="&#xb1;" horiz-adv-x="436" 
d="M40 120q0 11 3.5 15.5t10 5.5t14 0.5t15.5 -0.5q8 1 32 2t55 2h23v152q-9 0 -29 -1t-42.5 -1.5t-42.5 -1t-28 -0.5q-21 2 -31.5 10.5t-10.5 31.5h174q0 43 -3.5 78.5t-3.5 73.5q0 10 7 13.5t16 3.5t17 -3.5t8 -18.5v-135q3 0 13.5 -1t13.5 -1q9 1 31 4t47 6t47 6.5
t32 5.5q6 7 8 -1.5t-14 -21.5t-56 -26.5t-117 -15.5v-155h7q36 2 67 3t54.5 1.5t31.5 1.5h7q9 0 12.5 -6.5t3.5 -14.5q0 -10 -4 -15t-19 -6l-337 -11q-9 -1 -10.5 7.5t-1.5 12.5z" />
    <glyph glyph-name="twosuperior" unicode="&#xb2;" horiz-adv-x="313" 
d="M333.375 442.132q11.25 10.9111 15.3125 21.043t9.0625 24.6807q7.5 23.3818 7.8125 37.6709q0.3125 14.2881 -15.3125 17.9258q-13.75 3.11719 -25.625 -7.53418t-21.25 -23.6416q-9.375 -12.9893 -16.5625 -24.6807q-7.1875 -11.6904 -12.8125 -10.1318
q-8.125 1.55859 -3.75 16.1074q6.875 18.7051 18.125 35.8516t24.375 28.5781q13.125 11.4307 26.875 16.627q13.75 5.19531 24.375 3.63672q11.25 -3.11719 16.25 -11.1709t5.3125 -20.2646q0.3125 -12.21 -2.8125 -27.2783t-8.125 -30.6562
q-8.125 -25.46 -19.6875 -44.6846t-24.6875 -34.293t-26.5625 -27.7979q-13.4375 -12.7305 -25.625 -24.9404q-12.1875 -12.2109 -21.875 -25.4609q-9.6875 -13.249 -14.6875 -29.3564q10.625 -3.11719 20.3125 -8.31348t19.0625 -10.9111q9.375 -5.71582 19.0625 -10.9121
q9.6875 -5.19531 20.9375 -8.31348q5.625 -0.519531 11.25 -1.81836t10.9375 0t10.3125 6.49512q5 5.19531 8.75 17.1465q3.75 10.3916 3.125 19.2246t-2.8125 15.8477t-3.4375 14.0293t1.25 14.8086q1.25 3.11719 3.125 7.53418q1.875 4.41602 4.375 1.81836
l24.375 -19.7451q1.25 -1.55859 0 -10.9111t-3.75 -21.043q-2.5 -11.6914 -5 -21.0439t-3.125 -12.4707q-5.625 -15.5869 -14.375 -24.9395q-8.75 -9.35352 -18.75 -14.2891q-10 -4.93652 -20 -5.97559t-17.5 0.519531q-9.375 2.07812 -17.5 7.79395t-15.625 12.2109
q-7.5 6.49414 -15.3125 11.6904t-17.8125 7.27441q-6.25 1.55859 -13.125 -2.33789q-6.875 -3.89746 -13.4375 -9.09375q-6.5625 -5.19531 -13.4375 -9.09277q-6.875 -3.89648 -13.125 -2.33789q10.625 33.7734 26.875 60.792q16.25 27.0195 35 50.1406
q18.75 23.1221 39.6875 43.6465q20.9375 20.5234 41.5625 42.3467z" />
    <glyph glyph-name="threesuperior" unicode="&#xb3;" horiz-adv-x="263" 
d="M193.354 375.914q5.74121 20.4844 14.832 31.4092t21.5303 19.5732l1.43555 -0.910156q5.74121 -1.36523 2.87109 -10.4697q-1.43555 -5.91699 -4.5459 -10.6973q-3.10938 -4.7793 -6.69824 -9.33105q-3.58789 -4.55273 -6.69824 -9.55957
q-3.10938 -5.00684 -4.54492 -10.4697q-2.87109 -10.9248 -1.19629 -21.3945q1.6748 -10.4688 6.21973 -18.208q4.54492 -7.73828 11.0049 -12.7451q6.45898 -5.00781 12.2002 -5.46289q12.918 -1.82031 27.9893 1.13867t29.4258 12.0625q14.3535 9.10352 26.5537 25.2637
q12.2012 16.1592 19.3779 41.6504q4.30566 15.4775 3.10938 29.3604q-1.19629 13.8838 -5.50195 25.0361q-4.30664 11.1523 -11.7227 18.6631t-15.5498 9.78711q-8.61133 2.27637 -17.2236 0.910156q-8.6123 -1.36523 -16.7461 0.911133q-2.87109 0.910156 -4.78418 2.50293
q-1.91406 1.59375 -0.478516 7.96582q1.43457 6.37305 6.9375 9.78711q5.50195 3.41406 13.6357 6.37305t16.7461 5.46191q8.6123 2.50391 16.9844 7.05566q8.37305 4.55273 14.833 11.3809q6.45898 6.82715 9.80762 18.6631q0 0.910156 -0.478516 3.41406
q-0.478516 2.50293 -1.91309 2.50293q-1.43555 0.910156 -5.26367 2.27637q-3.82715 1.36523 -8.37305 2.73145q-4.54492 1.36523 -8.6123 2.50293q-4.06641 1.13867 -5.50195 1.59375q-9.09082 1.82031 -16.9854 1.59277t-15.3105 -1.36523
q-7.41602 -1.13867 -14.3535 -1.59375t-12.6787 0.911133q-5.74121 1.36523 -5.2627 9.10352t2.87012 15.4766q0.957031 2.73145 9.09082 4.78027q8.13379 2.04785 17.2246 1.1377t17.7031 -3.18652q8.61133 -2.27539 11.9609 -2.73145q2.39258 -0.455078 10.2871 -2.50293
q7.89453 -2.04883 16.5059 -4.32422q8.6123 -2.27637 16.5068 -4.3252q7.89453 -2.04785 11.2441 -2.95801q1.43555 1.82031 5.74121 3.18555q4.30664 1.36621 6.21973 0.455078q0.478516 -0.455078 1.91406 -5.23438t-5.98047 -16.1592t-13.875 -20.4844
q-6.45996 -9.10449 -12.6797 -17.5254t-8.13379 -11.1523q-1.91309 -0.910156 -2.3916 -1.82031q-2.39258 -2.27637 -2.39258 -3.18652q-0.478516 -0.910156 -0.478516 -1.36621l-0.957031 -1.82031v-1.82129q-0.478516 -0.455078 -0.478516 -0.910156
q7.65527 -8.64844 13.875 -18.208q6.2207 -9.55957 10.0479 -21.3945q3.82812 -11.835 3.82812 -26.8564t-4.78516 -32.7744q-8.13379 -33.6846 -23.6836 -55.5342t-34.4482 -34.1406q-18.8994 -12.29 -38.5156 -16.1592q-19.6172 -3.86914 -36.3623 0.227539
q-7.65527 2.27539 -15.7891 9.10352t-13.876 17.7529q-5.74121 10.9248 -7.89453 24.5811q-2.15234 13.6562 2.63184 30.498z" />
    <glyph glyph-name="acute" unicode="&#xb4;" horiz-adv-x="184" 
d="M43 551q6 11 11.5 19t11.5 15.5t12 16t12 21.5q16 31 33 46t27.5 13t10 -19.5t-20.5 -49.5q-17 -26 -37 -48t-55 -30q-3 1 -5 7t0 9z" />
    <glyph glyph-name="mu" unicode="&#xb5;" horiz-adv-x="421" 
d="M309 406q37 -101 44.5 -160t-1 -89.5t-28.5 -38.5t-39 -7q-41 0 -67.5 13t-44 34t-30 47.5t-25.5 54.5q13 -166 7.5 -242t-17.5 -62.5t-22.5 119t-8.5 303.5q8 19 17.5 11.5t22 -31.5t28 -59t35.5 -67.5t44.5 -59t54.5 -32.5q18 0 26.5 2.5t8.5 23.5q-9 48 -18.5 94
t-13 80.5t1.5 53t25 12.5z" />
    <glyph glyph-name="paragraph" unicode="&#xb6;" 
d="M378 73q0 99 -9 195t-9 196q-36 -13 -69 -15q2 -23 4.5 -56t5 -69.5t5.5 -75.5t5.5 -73.5t5 -61t4.5 -39.5v-31q0 -6 -5.5 -21t-12.5 -26.5t-13 -13.5t-7 16l-26 307l-10 10q-17 -8 -29 -14t-23 -9.5t-22 -5.5t-26 -2q-63 0 -98 31t-35 93q0 63 35 101t97 38
q32 0 61 -11.5t52 -31.5q19 1 34 4t31 6t33.5 5t39.5 2q6 0 11 -1t8 -10q0 -3 0.5 -12.5l1 -19t0.5 -18.5v-14q0 -91 6.5 -178t6.5 -180q0 -50 -4.5 -71.5t-11.5 -24t-15 9t-14 26.5t-8.5 29t0.5 16z" />
    <glyph glyph-name="periodcentered" unicode="&#xb7;" horiz-adv-x="137" 
d="M76 306q8 0 20 -11.5t12 -21.5q-8 -24 -22 -25t-24.5 9.5t-10 25.5t24.5 23z" />
    <glyph glyph-name="cedilla" unicode="&#xb8;" horiz-adv-x="431" 
d="M110 -220q0 17 8 32.5t29 15.5q6 0 11 -1.5t5 -7.5v-1q0 -1 -1 -2l-29 -30q-1 -1 -1 -5q0 -17 14 -27.5t28 -10.5q20 0 43.5 5.5t44 18t34 30.5t13.5 42q0 45 -27 65.5t-70 20.5q-19 0 -36.5 -6t-36.5 -6h-12q0 3 -1.5 11.5t-3.5 18.5t-3.5 18.5t-2.5 11.5q-6 26 0 39
t14.5 10t15 -20.5t-0.5 -52.5q0 -5 4.5 -5h7.5q16 0 31.5 3t32.5 3q50 0 83.5 -29t33.5 -81q0 -29 -15.5 -51.5t-39 -38t-51 -23.5t-52.5 -8h-35q-18 9 -26.5 25.5t-8.5 35.5z" />
    <glyph glyph-name="onesuperior" unicode="&#xb9;" horiz-adv-x="132" 
d="M210.938 486.166q0.460938 1.90625 2.07129 8.00781q1.61133 6.10156 2.99219 12.585t2.7627 12.0127q1.38086 5.5293 1.38086 7.81738q-2.30176 -0.381836 -8.05566 -2.28809q-5.75488 -1.90625 -11.9688 -3.81348q-6.21484 -1.90723 -12.1992 -3.81348
q-5.9834 -1.90625 -7.8252 -1.90625h-2.99219h-2.53125q4.14258 11.4395 11.9678 18.3047q7.82617 6.86328 17.4932 11.6309q9.66602 4.7666 20.2539 9.5332q10.5879 4.76758 19.334 10.8691l0.919922 -0.381836l0.230469 0.19043q0.230469 0.191406 0.69043 0.191406
q3.22266 -0.763672 3.45312 -7.24609q0.229492 -6.48242 0.229492 -9.91504q-8.74609 -25.5498 -17.9521 -53.0068q-9.20703 -27.457 -18.1836 -56.4395q-8.97559 -28.9824 -17.2617 -57.9648t-14.7305 -55.2959q-3.68262 -3.43262 -9.66699 -6.4834t-8.74609 -5.33789
q-1.8418 3.43164 -2.30176 8.00781t0 8.38965z" />
    <glyph glyph-name="ordmasculine" unicode="&#xba;" horiz-adv-x="298" 
d="M34.3193 521.869q0 20.4512 7.58496 47.1943q7.58398 26.7422 20.7754 50.3398q13.1904 23.5967 30.998 40.1143q17.8086 16.5176 38.9141 16.5176q7.91406 0 13.5205 -2.75293t9.56348 -15.3379q-19.127 -7.0791 -37.2646 -20.0576q-18.1377 -12.9775 -31.9883 -29.8887
t-22.0947 -38.542q-8.24414 -21.6299 -8.24414 -47.5869q0 -10.2246 0.660156 -19.6641q0.65918 -9.43848 3.62695 -16.5176t8.57422 -11.4053t15.499 -4.32617q25.7227 0 41.2217 9.0459q15.5 9.04492 30.0098 30.2822q-6.5957 13.3721 -6.92578 27.9229
q-0.329102 14.5518 -0.329102 29.4961q0 14.9453 2.6377 39.3281q2.63867 24.3838 9.56348 46.8008t18.1377 38.9346q11.2119 16.5176 28.3604 16.5176q9.89355 0 18.1377 -3.53906q8.24414 -3.54004 13.5205 -13.7656q0 -2.35938 0.330078 -6.68555
q0.329102 -4.32617 0.329102 -9.43848t0.330078 -10.2256q0.330078 -5.1123 0.330078 -6.68555q0 -18.8779 -2.30859 -33.8223t-6.92578 -29.1025q-4.61621 -14.1582 -11.542 -28.709q-6.9248 -14.5518 -14.8389 -31.8564q1.31836 0 7.25488 -0.392578
q5.93555 -0.393555 7.25488 -0.393555q15.1689 0 31.6582 4.71875q16.4883 4.71973 32.6475 11.7988t31.6582 16.125q15.499 9.04492 28.6904 16.9102l5.93555 -7.86523q-34.2969 -33.0352 -78.1562 -51.9131q-43.8594 -18.877 -87.3896 -22.0234l-64.6357 -47.1934
q-7.91406 -7.86621 -20.7754 -8.25879q-12.8613 -0.393555 -21.4355 -0.393555q-14.5098 0 -22.7539 6.29199q-8.24414 6.29297 -12.8613 16.9111q-4.61719 10.6191 -5.93555 24.3838q-1.31934 13.7646 -1.31934 28.709zM169.526 570.636q0 -1.57227 -0.330078 -6.29199
t0.330078 -9.43848q0.65918 -4.71973 1.97852 -8.25879q1.31934 -3.54004 5.27637 -4.32617q10.5527 7.86523 18.7969 20.0566q8.24414 12.1924 13.5205 26.7432q5.27637 14.5518 7.91504 29.8896q2.6377 15.3379 2.6377 29.4961q0 0.786133 0.330078 5.50586
q0.329102 4.71875 0 11.0117q-0.330078 6.29199 -1.97852 11.4053q-1.64941 5.1123 -6.26562 5.89941q-9.89355 -7.0791 -18.1377 -20.4512q-8.24414 -13.3711 -13.5205 -29.1025t-7.91504 -31.8555q-2.6377 -16.125 -2.6377 -30.2832z" />
    <glyph glyph-name="guillemotright" unicode="&#xbb;" horiz-adv-x="565" 
d="M265 298q-58 23 -116.5 54.5t-107.5 63.5q-2 1 -6 6t-3 7t7 6.5t10 6.5h1q1 0 1 0.5t1 0.5q6 0 11 -2t10 -5q59 -37 118 -67t124 -58q9 -3 9 -10v-3q-5 -3 -14 -10.5t-19.5 -16.5t-20.5 -17t-13 -11q-8 -9 -27 -28.5t-40.5 -43t-40 -44.5t-25.5 -29q-5 -9 -12.5 -22
t-22.5 -13h-7q-4 4 -7 11.5t-2 9.5zM451 319q-59 23 -117.5 55t-107.5 63q-2 1 -6 6.5t-3 7.5t7 6.5t10 6.5h2q1 0 1 0.5t1 0.5q6 0 10.5 -2t9.5 -5q59 -37 118 -67.5t125 -57.5q8 -3 8 -10v-4q-4 -3 -13.5 -10.5t-20 -16t-20.5 -17t-13 -11.5q-8 -8 -27 -28t-40.5 -43
t-40 -44t-25.5 -29q-5 -9 -12 -22t-23 -13h-7q-4 3 -7 10.5t-2 9.5z" />
    <glyph glyph-name="onequarter" unicode="&#xbc;" horiz-adv-x="705" 
d="M274.844 507.613q0.651367 2.62598 2.92871 11.0303q2.27832 8.4043 4.23047 17.334t3.90527 16.5459q1.95215 7.61621 1.95215 10.7676q-3.25391 -0.525391 -11.3896 -3.15137q-8.13477 -2.62598 -16.9209 -5.25293q-8.78613 -2.62598 -17.2471 -5.25195
q-8.45996 -2.62695 -11.0635 -2.62695h-4.23047h-3.5791q5.85742 15.7578 16.9209 25.2129q11.0645 9.45508 24.7314 16.0205q13.667 6.56641 28.6357 13.1318q14.9688 6.56641 27.334 14.9707l1.30176 -0.525391l0.325195 0.262695q0.326172 0.262695 0.976562 0.262695
q4.55566 -1.05078 4.88086 -9.98047q0.326172 -8.92969 0.326172 -13.6572q-12.3662 -35.1924 -25.3818 -73.0117q-13.0166 -37.8193 -25.708 -77.7402q-12.6904 -39.9199 -24.4053 -79.8408q-11.7148 -39.9199 -20.8262 -76.1641q-5.20703 -4.72754 -13.667 -8.92969
q-8.46094 -4.20215 -12.3662 -7.35352q-2.60254 4.72754 -3.25391 11.0312q-0.650391 6.30273 0 11.5557zM104 133q-1 1 0.5 3.5t11.5 16.5t33.5 44.5t69 85t117 135.5t176.5 199l3 2q3 -1 3.5 0t3.5 1q6 1 16.5 -1t6.5 -17q0 -2 -3 -8.5t-7.5 -11t-8 -10t-6.5 -6.5
q-53 -49 -105.5 -103.5t-102 -111.5t-97 -117.5t-86.5 -119.5q0 -2 -1 -2l-3 -1q-9 -1 -14.5 5.5t-6.5 16.5zM745.837 159.349l-7.44922 3.30273q-7.44922 3.30371 -17.9805 7.01953t-21.834 7.63867q-11.3018 3.92285 -19.0078 6.8125l-9.76074 2.06445
q-5.1377 1.23926 -8.7334 1.23926h-7.70605q-4.11035 0 -8.7334 -0.826172q-4.62402 -0.825195 -11.3018 -2.88965q-3.08301 1.65137 -2.82617 4.54199q0.256836 2.88965 1.79785 6.19336q0 0.825195 6.67871 8.6709q6.67871 7.84473 16.1826 19.4062t21.0635 24.3613
q11.5586 12.7998 21.5762 23.7422q10.0186 10.9414 17.7246 17.9609q7.70508 7.01953 9.24707 7.01953q8.21973 -1.65137 5.13672 -10.7354q-1.54102 -2.89062 -2.8252 -5.57422q-1.28418 -2.68457 -4.88086 -2.27148l-48.8047 -63.1738l-1.54102 -4.95508
q17.4668 -3.71582 32.3652 -11.7676t32.3652 -12.1807q2.56836 0 7.70605 -1.03223t6.16504 -0.619141l4.62305 3.30273q0 0.413086 1.02734 2.89062q1.02832 2.47754 2.05566 5.36719q1.02734 2.89062 2.05469 6.19434q1.02734 3.30273 2.05469 5.78027
q3.08301 10.3223 5.9082 19.4062t5.65137 17.7549q2.8252 8.6709 5.13672 18.374q2.3125 9.70312 3.85352 20.4395q2.56836 3.30273 4.36621 6.19336q1.79785 2.88965 4.88086 2.47754l0.513672 -0.620117q0.513672 -0.619141 1.02734 -0.619141
q1.54102 -2.06445 3.5957 -5.9873q2.05566 -3.92188 1.02832 -4.74805l-21.5771 -87.9482q-1.54102 -5.78027 -0.513672 -7.84473q1.02734 -2.06543 4.10938 -3.30371q4.62402 -0.413086 8.99023 2.06445q4.36719 2.47754 7.44922 6.81348q3.08301 4.33496 5.9082 9.29004
t3.85352 9.08398q3.5957 -0.826172 4.87988 -3.50977t1.54102 -5.78125q0.256836 -3.09668 -0.770508 -7.43164q-1.02734 -4.33594 -2.05469 -6.81348q-2.56836 -7.43164 -7.44922 -12.1807q-4.87988 -4.74805 -10.2744 -7.01855q-5.39453 -2.27148 -11.5596 -3.7168
q-6.16406 -1.44531 -10.7881 -1.85742q-1.02734 -1.65234 -1.79785 -4.95508q-0.770508 -3.30371 -2.05469 -6.81348q-1.28418 -3.50879 -2.3125 -6.60645q-1.02734 -3.09668 -2.05469 -4.74805q-4.62305 -13.626 -8.21973 -25.3936q-3.5957 -11.7676 -6.42188 -23.5352
q-2.8252 -11.7676 -5.39355 -25.1875q-2.56934 -13.4189 -6.67871 -31.5869q3.08203 -1.23828 2.05469 -5.16113t-2.05469 -7.22559q-2.05469 -6.19336 -6.42188 -10.3232q-4.36621 -4.12891 -9.50391 -2.88965q-2.05469 0 -4.62402 1.23828
q-2.56836 1.23926 -2.05469 5.36816z" />
    <glyph glyph-name="onehalf" unicode="&#xbd;" horiz-adv-x="671" 
d="M226.973 468.071q0.608398 2.7627 2.73828 11.6035t3.95508 18.2344t3.65039 17.4053t1.8252 11.3271q-3.04199 -0.551758 -10.6475 -3.31543q-7.60547 -2.7627 -15.8203 -5.52539q-8.21387 -2.7627 -16.124 -5.52539t-10.3438 -2.7627h-3.95508h-3.34668
q5.47656 16.5771 15.8203 26.5225q10.3438 9.94629 23.1211 16.8525q12.7783 6.90723 26.7725 13.8145q13.9941 6.90625 25.5557 15.7471l1.2168 -0.551758l0.303711 0.276367q0.304688 0.275391 0.913086 0.275391q4.25879 -1.10449 4.56348 -10.498
q0.303711 -9.39355 0.303711 -14.3662q-11.5605 -37.0215 -23.7295 -76.8047q-12.1689 -39.7842 -24.0342 -81.7773q-11.8652 -41.9941 -22.8174 -83.9883t-19.4707 -80.1201q-4.86719 -4.97266 -12.7773 -9.39258q-7.91016 -4.4209 -11.5605 -7.73633
q-2.43457 4.97266 -3.04297 11.6035t0 12.1562zM53 88q-1 1 0.5 3.5t11.5 16.5t33.5 44.5t69 85t117 135.5t176.5 199l3 2q3 -1 3.5 0t3.5 1q6 1 16.5 -1t6.5 -17q0 -2 -3 -8.5t-7.5 -11t-8 -10t-6.5 -6.5q-53 -49 -105.5 -103.5t-102 -111.5t-97 -117.5t-86.5 -119.5
q0 -2 -1 -2l-3 -1q-9 -1 -14.5 5.5t-6.5 16.5zM659.392 223.707q9.59473 11.4062 13.0596 21.998q3.46387 10.5918 7.72852 25.7998q6.39648 24.4414 6.66309 39.3779q0.265625 14.9375 -13.0596 18.7393q-11.7266 3.25879 -21.8535 -7.87598
q-10.1279 -11.1348 -18.123 -24.7129q-7.99512 -13.5791 -14.125 -25.7998q-6.12988 -12.2217 -10.9268 -10.5918q-6.92969 1.62988 -3.19824 16.8379q5.86328 19.5537 15.458 37.4775q9.59375 17.9238 20.7871 29.873t22.9199 17.3809t20.7881 3.80176
q9.59473 -3.25879 13.8584 -11.6777q4.26465 -8.41895 4.53125 -21.1826q0.265625 -12.7637 -2.39941 -28.5156q-2.66504 -15.751 -6.92871 -32.0459q-6.92969 -26.6143 -16.79 -46.7109q-9.86133 -20.0967 -21.0547 -35.8477q-11.1934 -15.752 -22.6533 -29.0586
q-11.46 -13.3076 -21.8535 -26.0713q-10.3945 -12.7646 -18.6562 -26.6152q-8.26172 -13.8496 -12.5254 -30.6875q9.06152 -3.25879 17.3232 -8.69043t16.2568 -11.4062t16.2568 -11.4062t17.8564 -8.69043q4.79688 -0.542969 9.59473 -1.90137q4.79688 -1.35742 9.32715 0
q4.53125 1.3584 8.79492 6.79004q4.26465 5.43164 7.46289 17.9238q3.19727 10.8633 2.66504 20.0967q-0.533203 9.2334 -2.39941 16.5654q-1.86523 7.33301 -2.93066 14.666q-1.06641 7.33203 1.06543 15.4795q1.06641 3.25879 2.66504 7.87598
q1.59961 4.61621 3.73145 1.90039l20.7881 -20.6396q1.06543 -1.62891 0 -11.4062q-1.06641 -9.77637 -3.19824 -21.9971q-2.13281 -12.2217 -4.26465 -21.998t-2.66504 -13.0352q-4.79688 -16.2949 -12.2598 -26.0723q-7.46191 -9.77637 -15.9902 -14.9365
q-8.52832 -5.15918 -17.0566 -6.24609q-8.52832 -1.08594 -14.9248 0.542969q-7.99512 2.17285 -14.9238 8.14746q-6.92969 5.97461 -13.3262 12.7646q-6.39648 6.78906 -13.0586 12.2207q-6.66309 5.43164 -15.1914 7.60352q-5.33008 1.62988 -11.1934 -2.44336
q-5.86328 -4.07422 -11.46 -9.50586t-11.46 -9.50488t-11.1934 -2.44434q9.06152 35.3047 22.9199 63.5488t29.8496 52.4141q15.9902 24.1709 33.8467 45.625q17.8555 21.4541 35.4453 44.2666z" />
    <glyph glyph-name="threequarters" unicode="&#xbe;" horiz-adv-x="733" 
d="M194.264 324.922q6.9043 25.9961 17.8379 39.8613q10.9336 13.8643 25.8945 24.8408l1.72656 -1.15527q6.90527 -1.7334 3.45312 -13.2871q-1.72656 -7.51074 -5.4668 -13.5762q-3.74023 -6.06641 -8.05664 -11.8428q-4.31543 -5.77734 -8.05566 -12.1318
t-5.4668 -13.2871q-3.45215 -13.8643 -1.43848 -27.1514t7.48047 -23.1084q5.4668 -9.82031 13.2354 -16.1758q7.76855 -6.35449 14.6738 -6.93164q15.5361 -2.31152 33.6631 1.44434q18.126 3.75488 35.3896 15.3086q17.2627 11.5537 31.9365 32.0625
q14.6738 20.5078 23.3057 52.8594q5.17871 19.6416 3.74023 37.2607q-1.43848 17.6201 -6.61816 31.7734q-5.17871 14.1543 -14.0977 23.6855q-8.91992 9.53223 -18.7021 12.4209q-10.3574 2.88867 -20.7158 1.15527q-10.3574 -1.73242 -20.1406 1.15527
q-3.45215 1.15527 -5.75391 3.17773q-2.30176 2.02148 -0.575195 10.1094q1.72559 8.08789 8.34375 12.4209q6.61719 4.33301 16.3994 8.08789q9.7832 3.75488 20.1406 6.93164q10.3584 3.17773 20.4287 8.95508q10.0693 5.77637 17.8379 14.4424
q7.76855 8.66504 11.7969 23.6855q0 1.15527 -0.575195 4.33301q-0.576172 3.17676 -2.30176 3.17676q-1.72656 1.15527 -6.33008 2.88867t-10.0703 3.46582q-5.4668 1.7334 -10.3574 3.17773q-4.8916 1.44434 -6.61816 2.02148q-10.9336 2.31152 -20.4277 2.02246
q-9.49512 -0.289062 -18.4141 -1.7334q-8.91992 -1.44434 -17.2637 -2.02148q-8.34375 -0.578125 -15.249 1.15527t-6.3291 11.5537q0.575195 9.82129 3.45215 19.6416q1.15137 3.4668 10.9336 6.06641t20.7158 1.44434q10.9336 -1.15625 21.291 -4.04395
q10.3574 -2.88867 14.3857 -3.4668q2.87793 -0.577148 12.3721 -3.17676q9.49512 -2.59961 19.8525 -5.48828q10.3584 -2.88867 19.8525 -5.48828q9.49512 -2.59961 13.5234 -3.75488q1.72656 2.31055 6.90527 4.04395q5.17871 1.73242 7.48047 0.577148
q0.575195 -0.577148 2.30176 -6.64355q1.72656 -6.06543 -7.19336 -20.5078q-8.91895 -14.4424 -16.6875 -25.9961q-7.76855 -11.5547 -15.249 -22.2422t-9.78223 -14.1533q-2.30176 -1.15527 -2.87695 -2.31055q-2.87793 -2.88867 -2.87793 -4.04395
q-0.575195 -1.15527 -0.575195 -1.7334l-1.15039 -2.31055v-2.31055q-0.576172 -0.578125 -0.576172 -1.15527q9.20703 -10.9766 16.6875 -23.1084q7.48145 -12.1318 12.085 -27.1514q4.60352 -15.0205 4.60352 -34.085q0 -19.0635 -5.75488 -41.5938
q-9.78223 -42.75 -28.4844 -70.4795q-18.7012 -27.7295 -41.4316 -43.3271q-22.7295 -15.5977 -46.3223 -20.5078q-23.5938 -4.91113 -43.7334 0.288086q-9.20703 2.88867 -18.9893 11.5547q-9.7832 8.66504 -16.6885 22.5303q-6.90527 13.8643 -9.49414 31.1953
q-2.58984 17.3311 3.16504 38.7061zM125 111q-1 1 0.5 3.5t11.5 16.5t33.5 44.5t69 85t117 135.5t176.5 199l3 2q3 -1 3.5 0t3.5 1q6 1 16.5 -1t6.5 -17q0 -2 -3 -8.5t-7.5 -11t-8 -10t-6.5 -6.5q-53 -49 -105.5 -103.5t-102 -111.5t-97 -117.5t-86.5 -119.5q0 -2 -1 -2
l-3 -1q-9 -1 -14.5 5.5t-6.5 16.5zM775.355 159.967l-8.61426 4.18164q-8.61328 4.18262 -20.792 8.88672q-12.1777 4.70508 -25.2471 9.67188q-13.0693 4.96582 -21.9795 8.625l-11.2871 2.61426q-5.94043 1.56836 -10.0996 1.56836h-8.91016q-4.75293 0 -10.0996 -1.0459
q-5.3457 -1.04492 -13.0684 -3.65918q-3.56445 2.09082 -3.26758 5.75098q0.296875 3.65918 2.0791 7.84082q0 1.0459 7.72266 10.9785t18.7129 24.5693q10.9902 14.6377 24.3564 30.8438t24.9502 30.0586q11.584 13.8535 20.4951 22.7402q8.91016 8.8877 10.6924 8.8877
q9.50488 -2.09082 5.94043 -13.5918q-1.78223 -3.66016 -3.2666 -7.05762q-1.48535 -3.39844 -5.64355 -2.875l-56.4355 -79.9834l-1.78223 -6.27344q20.1982 -4.70508 37.4258 -14.8984q17.2275 -10.1943 37.4248 -15.4219q2.9707 0 8.91113 -1.30664
q5.94043 -1.30762 7.12891 -0.78418l5.34668 4.18164q0 0.523438 1.1875 3.65918q1.18848 3.13672 2.37598 6.7959q1.18848 3.66016 2.37695 7.8418q1.1875 4.18262 2.37598 7.31934q3.56445 13.0684 6.83203 24.5693q3.2666 11.501 6.53418 22.4795
q3.26758 10.9775 5.94043 23.2627q2.67383 12.2852 4.45508 25.877q2.9707 4.18262 5.0498 7.8418t5.64355 3.13672l0.59375 -0.78418q0.594727 -0.78418 1.18848 -0.78418q1.78223 -2.61426 4.1582 -7.58008q2.37598 -4.9668 1.18848 -6.01172l-24.9502 -111.35
q-1.78223 -7.31836 -0.594727 -9.93262q1.18848 -2.61426 4.75293 -4.18164q5.34668 -0.523438 10.3955 2.61328q5.0498 3.13672 8.61426 8.62598t6.83105 11.7617q3.26758 6.27344 4.45605 11.501q4.1582 -1.04492 5.64355 -4.44336q1.48535 -3.39746 1.78223 -7.31836
t-0.891602 -9.41016q-1.1875 -5.48926 -2.37598 -8.62598q-2.9707 -9.40918 -8.61426 -15.4209q-5.64258 -6.01172 -11.8809 -8.8877q-6.2373 -2.875 -13.3662 -4.7041q-7.12891 -1.83008 -12.4746 -2.35254q-1.18848 -2.0918 -2.0791 -6.27344
q-0.891602 -4.18262 -2.37695 -8.62598q-1.48438 -4.44336 -2.67285 -8.36426t-2.37598 -6.01172q-5.34668 -17.251 -9.50488 -32.1504q-4.15918 -14.8984 -7.42578 -29.7969q-3.26758 -14.8994 -6.23828 -31.8887q-2.96973 -16.9902 -7.72266 -39.9922
q3.56445 -1.56836 2.37695 -6.53418q-1.18848 -4.9668 -2.37695 -9.14844q-2.37598 -7.8418 -7.42578 -13.0693q-5.04883 -5.22754 -10.9893 -3.65918q-2.37695 0 -5.34668 1.56836q-2.9707 1.56836 -2.37598 6.7959z" />
    <glyph glyph-name="questiondown" unicode="&#xbf;" horiz-adv-x="415" 
d="M325.19 618.312q-3.68555 -12.0703 -8.29297 -17.7031t-12.9004 -4.02344q-7.37109 2.41406 -8.29297 9.65625q-0.920898 7.24219 1.84277 17.7031q0 0.804688 0.460938 0.804688t0.460938 0.804688l0.920898 1.60938q2.76465 4.82812 10.1367 10.8633
q7.37109 6.03516 9.21387 6.03516q5.5293 0 8.29297 -2.41406q2.76465 -2.41406 2.76465 -6.03516t-1.38184 -9.25391q-1.38281 -5.63281 -3.22559 -8.04688zM266.218 475.078q18.4287 20.9219 24.4189 19.3125q5.98926 -1.60938 5.06738 -16.4961
q-0.920898 -14.8867 -7.37109 -38.625t-13.3613 -47.0742t-12.9004 -42.6484t-5.06738 -24.1406q-47.916 -21.7266 -76.0195 -45.0625q-28.1045 -23.3359 -44.2295 -46.2695q-16.126 -22.9336 -22.5762 -41.8438t-10.1357 -32.5898q-7.37109 -25.75 -8.75391 -51.5
q-1.38184 -25.75 3.68652 -46.6719q5.06738 -20.9219 16.125 -35.8086t28.5645 -19.7148q18.4297 -4.02344 39.623 2.01172q21.1924 6.03516 40.543 18.9102t36.8584 32.5898t30.4072 46.2695q6.4502 12.875 5.5293 22.9336q-0.921875 10.0586 4.14648 37.0156
q5.06738 26.957 17.9678 1.20703t0 -67.5938q-9.21387 -31.3828 -31.3291 -57.1328q-22.1143 -25.75 -47.915 -43.4531t-52.5225 -26.1523t-46.9941 -3.62109q-26.7217 5.63281 -44.2295 23.3359t-25.8008 43.8555t-6.91016 59.1445q1.38184 32.9922 12.4395 68.3984
q11.0566 38.625 26.7217 65.1797t35.9365 47.4766t44.6904 38.2227q24.418 17.3008 52.9834 35.8086q0 1.60938 2.30371 7.64453q2.30273 6.03516 2.30273 7.64453q8.29395 26.5547 14.2832 53.9141t11.5176 55.5234z" />
    <glyph glyph-name="Agrave" unicode="&#xc0;" horiz-adv-x="749" 
d="M622 299q-27 2 -58.5 9t-64.5 15t-66 14.5t-60 7.5q-22 -22 -43 -54.5t-43.5 -68t-46.5 -69.5t-50.5 -61t-55.5 -44t-61 -17h-11t-16 0.5t-15 0.5h-11q-11 7 -11 16t11 15q31 -8 63 4.5t62.5 37t59 58t54 69.5t46.5 71t36 63q-3 1 -8.5 5.5t-12.5 9.5t-13 9.5t-8 6.5
q-8 7 -24.5 22.5t-34 33t-31 34t-16.5 26.5q0 9 4 13.5t10 6.5t13.5 2h16.5q25 0 50 -7t49.5 -15t49.5 -14.5t50 -6.5q19 24 38 67t37.5 90.5t38 91t38.5 69.5q19 33 28.5 41t12.5 4.5t2 -12.5t-1 -13q1 -13 3 -50.5t4 -86.5t4.5 -103.5t5.5 -102.5t5 -81t4 -40h11
q44 21 68 28t31.5 4t2 -13t-20.5 -22t-36.5 -23t-44.5 -16q-3 -21 -2 -54.5t5 -73t9.5 -82t11 -83t9 -74.5t5.5 -56q0 -6 -1 -8t-3 -2.5t-6.5 -1t-11.5 -4.5q-14 52 -20.5 102.5t-10.5 102t-10 104t-20 105.5zM403 376q43 -11 85.5 -16t66.5 -12q-13 18 -39.5 44t-70.5 47
q-8 -11 -21.5 -28.5t-20.5 -34.5zM616 355q1 38 -0.5 94.5t-3.5 116t-5 112t-6 82.5l-129 -289zM278 502q-24 4 -28 -4t4.5 -21.5t26 -29.5t37 -28.5t37.5 -19.5t28 -2q5 5 8 11t5.5 13t6.5 16.5t12 22.5q-7 3 -26.5 9t-41.5 12.5t-41.5 12.5t-27.5 8zM655 924q2 -3 0 -8.5
t-4 -6.5q-30 7 -47 27.5t-33 44.5q-17 29 -17.5 45.5t8.5 18t23.5 -12t28.5 -43.5q5 -11 10.5 -19t10.5 -14.5t10 -14t10 -17.5z" />
    <glyph glyph-name="Aacute" unicode="&#xc1;" horiz-adv-x="749" 
d="M622 299q-27 2 -58.5 9t-64.5 15t-66 14.5t-60 7.5q-22 -22 -43 -54.5t-43.5 -68t-46.5 -69.5t-50.5 -61t-55.5 -44t-61 -17h-11t-16 0.5t-15 0.5h-11q-11 7 -11 16t11 15q31 -8 63 4.5t62.5 37t59 58t54 69.5t46.5 71t36 63q-3 1 -8.5 5.5t-12.5 9.5t-13 9.5t-8 6.5
q-8 7 -24.5 22.5t-34 33t-31 34t-16.5 26.5q0 9 4 13.5t10 6.5t13.5 2h16.5q25 0 50 -7t49.5 -15t49.5 -14.5t50 -6.5q19 24 38 67t37.5 90.5t38 91t38.5 69.5q19 33 28.5 41t12.5 4.5t2 -12.5t-1 -13q1 -13 3 -50.5t4 -86.5t4.5 -103.5t5.5 -102.5t5 -81t4 -40h11
q44 21 68 28t31.5 4t2 -13t-20.5 -22t-36.5 -23t-44.5 -16q-3 -21 -2 -54.5t5 -73t9.5 -82t11 -83t9 -74.5t5.5 -56q0 -6 -1 -8t-3 -2.5t-6.5 -1t-11.5 -4.5q-14 52 -20.5 102.5t-10.5 102t-10 104t-20 105.5zM403 376q43 -11 85.5 -16t66.5 -12q-13 18 -39.5 44t-70.5 47
q-8 -11 -21.5 -28.5t-20.5 -34.5zM616 355q1 38 -0.5 94.5t-3.5 116t-5 112t-6 82.5l-129 -289zM278 502q-24 4 -28 -4t4.5 -21.5t26 -29.5t37 -28.5t37.5 -19.5t28 -2q5 5 8 11t5.5 13t6.5 16.5t12 22.5q-7 3 -26.5 9t-41.5 12.5t-41.5 12.5t-27.5 8zM586 931q6 11 11.5 19
t11.5 15.5t12 16t12 21.5q16 31 33 46t27.5 13t10 -19.5t-20.5 -49.5q-17 -26 -37 -48t-55 -30q-3 1 -5 7t0 9z" />
    <glyph glyph-name="Acircumflex" unicode="&#xc2;" horiz-adv-x="749" 
d="M622 299q-27 2 -58.5 9t-64.5 15t-66 14.5t-60 7.5q-22 -22 -43 -54.5t-43.5 -68t-46.5 -69.5t-50.5 -61t-55.5 -44t-61 -17h-11t-16 0.5t-15 0.5h-11q-11 7 -11 16t11 15q31 -8 63 4.5t62.5 37t59 58t54 69.5t46.5 71t36 63q-3 1 -8.5 5.5t-12.5 9.5t-13 9.5t-8 6.5
q-8 7 -24.5 22.5t-34 33t-31 34t-16.5 26.5q0 9 4 13.5t10 6.5t13.5 2h16.5q25 0 50 -7t49.5 -15t49.5 -14.5t50 -6.5q19 24 38 67t37.5 90.5t38 91t38.5 69.5q19 33 28.5 41t12.5 4.5t2 -12.5t-1 -13q1 -13 3 -50.5t4 -86.5t4.5 -103.5t5.5 -102.5t5 -81t4 -40h11
q44 21 68 28t31.5 4t2 -13t-20.5 -22t-36.5 -23t-44.5 -16q-3 -21 -2 -54.5t5 -73t9.5 -82t11 -83t9 -74.5t5.5 -56q0 -6 -1 -8t-3 -2.5t-6.5 -1t-11.5 -4.5q-14 52 -20.5 102.5t-10.5 102t-10 104t-20 105.5zM403 376q43 -11 85.5 -16t66.5 -12q-13 18 -39.5 44t-70.5 47
q-8 -11 -21.5 -28.5t-20.5 -34.5zM616 355q1 38 -0.5 94.5t-3.5 116t-5 112t-6 82.5l-129 -289zM278 502q-24 4 -28 -4t4.5 -21.5t26 -29.5t37 -28.5t37.5 -19.5t28 -2q5 5 8 11t5.5 13t6.5 16.5t12 22.5q-7 3 -26.5 9t-41.5 12.5t-41.5 12.5t-27.5 8zM697 887q-3 6 -10 22
t-14 33.5t-13.5 33.5t-9.5 22q-2 4 -8.5 13.5t-8.5 12.5q-16 -9 -30 -31t-27.5 -44t-26.5 -39.5t-29 -17.5q-6 0 -10 7q6 13 21.5 38.5t35.5 54t42 54.5t41 39q1 0 1.5 -0.5t2.5 -0.5h3q0 -19 6 -41t15 -43.5t18.5 -41t15.5 -32.5q0 -1 2.5 -5l5 -8t4.5 -8.5t2 -5.5v-1
q0 -1 0.5 -1.5t0.5 -1.5q0 -5 -6 -10t-14 -5q-7 0 -10 7z" />
    <glyph glyph-name="Atilde" unicode="&#xc3;" horiz-adv-x="749" 
d="M622 299q-27 2 -58.5 9t-64.5 15t-66 14.5t-60 7.5q-22 -22 -43 -54.5t-43.5 -68t-46.5 -69.5t-50.5 -61t-55.5 -44t-61 -17h-11t-16 0.5t-15 0.5h-11q-11 7 -11 16t11 15q31 -8 63 4.5t62.5 37t59 58t54 69.5t46.5 71t36 63q-3 1 -8.5 5.5t-12.5 9.5t-13 9.5t-8 6.5
q-8 7 -24.5 22.5t-34 33t-31 34t-16.5 26.5q0 9 4 13.5t10 6.5t13.5 2h16.5q25 0 50 -7t49.5 -15t49.5 -14.5t50 -6.5q19 24 38 67t37.5 90.5t38 91t38.5 69.5q19 33 28.5 41t12.5 4.5t2 -12.5t-1 -13q1 -13 3 -50.5t4 -86.5t4.5 -103.5t5.5 -102.5t5 -81t4 -40h11
q44 21 68 28t31.5 4t2 -13t-20.5 -22t-36.5 -23t-44.5 -16q-3 -21 -2 -54.5t5 -73t9.5 -82t11 -83t9 -74.5t5.5 -56q0 -6 -1 -8t-3 -2.5t-6.5 -1t-11.5 -4.5q-14 52 -20.5 102.5t-10.5 102t-10 104t-20 105.5zM403 376q43 -11 85.5 -16t66.5 -12q-13 18 -39.5 44t-70.5 47
q-8 -11 -21.5 -28.5t-20.5 -34.5zM616 355q1 38 -0.5 94.5t-3.5 116t-5 112t-6 82.5l-129 -289zM278 502q-24 4 -28 -4t4.5 -21.5t26 -29.5t37 -28.5t37.5 -19.5t28 -2q5 5 8 11t5.5 13t6.5 16.5t12 22.5q-7 3 -26.5 9t-41.5 12.5t-41.5 12.5t-27.5 8zM525 1004
q-20 0 -35.5 -14.5t-27.5 -28.5h-12q-2 26 7 42.5t23 25t29 9.5t24 -3q19 0 35.5 -7.5t32 -16.5t32.5 -17t38 -8h30t25.5 5t18.5 17t7 36q0 33 -8 47t-33 14q0 14 10 16t18 2q24 0 35 -22t11 -50q0 -33 -9.5 -53t-25 -31.5t-36 -15.5t-43.5 -4q-21 0 -40 9t-36 19.5
t-34.5 19.5t-35.5 9z" />
    <glyph glyph-name="Adieresis" unicode="&#xc4;" horiz-adv-x="749" 
d="M622 299q-27 2 -58.5 9t-64.5 15t-66 14.5t-60 7.5q-22 -22 -43 -54.5t-43.5 -68t-46.5 -69.5t-50.5 -61t-55.5 -44t-61 -17h-11t-16 0.5t-15 0.5h-11q-11 7 -11 16t11 15q31 -8 63 4.5t62.5 37t59 58t54 69.5t46.5 71t36 63q-3 1 -8.5 5.5t-12.5 9.5t-13 9.5t-8 6.5
q-8 7 -24.5 22.5t-34 33t-31 34t-16.5 26.5q0 9 4 13.5t10 6.5t13.5 2h16.5q25 0 50 -7t49.5 -15t49.5 -14.5t50 -6.5q19 24 38 67t37.5 90.5t38 91t38.5 69.5q19 33 28.5 41t12.5 4.5t2 -12.5t-1 -13q1 -13 3 -50.5t4 -86.5t4.5 -103.5t5.5 -102.5t5 -81t4 -40h11
q44 21 68 28t31.5 4t2 -13t-20.5 -22t-36.5 -23t-44.5 -16q-3 -21 -2 -54.5t5 -73t9.5 -82t11 -83t9 -74.5t5.5 -56q0 -6 -1 -8t-3 -2.5t-6.5 -1t-11.5 -4.5q-14 52 -20.5 102.5t-10.5 102t-10 104t-20 105.5zM403 376q43 -11 85.5 -16t66.5 -12q-13 18 -39.5 44t-70.5 47
q-8 -11 -21.5 -28.5t-20.5 -34.5zM616 355q1 38 -0.5 94.5t-3.5 116t-5 112t-6 82.5l-129 -289zM278 502q-24 4 -28 -4t4.5 -21.5t26 -29.5t37 -28.5t37.5 -19.5t28 -2q5 5 8 11t5.5 13t6.5 16.5t12 22.5q-7 3 -26.5 9t-41.5 12.5t-41.5 12.5t-27.5 8zM565 1019q8 0 20 -12
t12 -21q-7 -25 -21.5 -26t-25 10t-10 25.5t24.5 23.5zM702 1019q8 0 20 -12t12 -21q-7 -25 -21.5 -26t-24.5 10t-9.5 25.5t23.5 23.5z" />
    <glyph glyph-name="Aring" unicode="&#xc5;" horiz-adv-x="749" 
d="M622 299q-27 2 -58.5 9t-64.5 15t-66 14.5t-60 7.5q-22 -22 -43 -54.5t-43.5 -68t-46.5 -69.5t-50.5 -61t-55.5 -44t-61 -17h-11t-16 0.5t-15 0.5h-11q-11 7 -11 16t11 15q31 -8 63 4.5t62.5 37t59 58t54 69.5t46.5 71t36 63q-3 1 -8.5 5.5t-12.5 9.5t-13 9.5t-8 6.5
q-8 7 -24.5 22.5t-34 33t-31 34t-16.5 26.5q0 9 4 13.5t10 6.5t13.5 2h16.5q25 0 50 -7t49.5 -15t49.5 -14.5t50 -6.5q19 24 38 67t37.5 90.5t38 91t38.5 69.5q19 33 28.5 41t12.5 4.5t2 -12.5t-1 -13q1 -13 3 -50.5t4 -86.5t4.5 -103.5t5.5 -102.5t5 -81t4 -40h11
q44 21 68 28t31.5 4t2 -13t-20.5 -22t-36.5 -23t-44.5 -16q-3 -21 -2 -54.5t5 -73t9.5 -82t11 -83t9 -74.5t5.5 -56q0 -6 -1 -8t-3 -2.5t-6.5 -1t-11.5 -4.5q-14 52 -20.5 102.5t-10.5 102t-10 104t-20 105.5zM403 376q43 -11 85.5 -16t66.5 -12q-13 18 -39.5 44t-70.5 47
q-8 -11 -21.5 -28.5t-20.5 -34.5zM616 355q1 38 -0.5 94.5t-3.5 116t-5 112t-6 82.5l-129 -289zM278 502q-24 4 -28 -4t4.5 -21.5t26 -29.5t37 -28.5t37.5 -19.5t28 -2q5 5 8 11t5.5 13t6.5 16.5t12 22.5q-7 3 -26.5 9t-41.5 12.5t-41.5 12.5t-27.5 8zM604 845
q-25 0 -44 20.5t-17 50.5q0 36 20 56.5t52 20.5q27 0 47 -13t20 -48q0 -38 -23 -62.5t-55 -24.5zM554 915q0 -27 18 -40.5t39 -13.5q7 0 16.5 4t19 10t15.5 14.5t6 19.5q4 22 -0.5 35t-13 20t-19 9t-16.5 3q-27 0 -46 -15t-19 -46z" />
    <glyph glyph-name="AE" unicode="&#xc6;" horiz-adv-x="1191" 
d="M622 299q-27 2 -58.5 9t-64.5 15t-66 14.5t-60 7.5q-22 -22 -43 -54.5t-43.5 -68t-46.5 -69.5t-50.5 -61t-55.5 -44t-61 -17h-11t-16 0.5t-15 0.5h-11q-11 7 -11 16t11 15q31 -8 63 4.5t62.5 37t59 58t54 69.5t46.5 71t36 63q-3 1 -8.5 5.5t-12.5 9.5t-13 9.5t-8 6.5
q-8 7 -24.5 22.5t-34 33t-31 34t-16.5 26.5q0 9 4 13.5t10 6.5t13.5 2h16.5q25 0 50 -7t49.5 -15t49.5 -14.5t50 -6.5q19 24 38 67t37.5 90.5t38 91t38.5 69.5q19 33 28.5 41t12.5 4.5t2 -12.5t-1 -13q1 -13 3 -50.5t4 -86.5t4.5 -103.5t5.5 -102.5t5 -81t4 -40h11
q43 11 71 16.5t45 7.5q-2 24 -6.5 45t-4.5 45t8 55.5t23 66t35.5 68t44.5 60t51 42.5t54 16q22 0 41 -9.5t32 -25.5t21 -36.5t8 -41.5q0 -4 0.5 -12t-0.5 -15t-5.5 -12.5t-12.5 -5.5h-5q-2 9 -6.5 30t-13 42.5t-21 38t-31.5 16.5q-41 0 -75.5 -29.5t-60 -71t-40.5 -88
t-15 -80.5q0 -21 3 -37.5t8 -41.5h10q22 0 43.5 7t44 15t45.5 15.5t47 7.5h23t28 -3.5t24 -11t10 -22.5q0 -30 -20.5 -49.5t-49 -31t-59 -17t-51.5 -5.5q-15 0 -28 5.5t-24.5 11.5t-23 11t-24.5 5h-6q-49 -38 -77.5 -88.5t-28.5 -112.5q0 -57 25.5 -86.5t80.5 -49.5
q58 -11 108.5 -0.5t95.5 31.5t86.5 47t83.5 44q4 -8 7 -13t3 -14q0 -6 -1.5 -9t-8.5 -7q-88 -43 -146 -67t-94 -36t-54.5 -15t-26.5 -3q-49 0 -94.5 21t-74.5 58q6 -45 10.5 -83.5t6.5 -62.5q0 -6 -1 -8t-3 -2.5t-6.5 -1t-11.5 -4.5q-14 52 -20.5 102.5t-10.5 102t-10 104
t-20 105.5zM616 355q1 38 -0.5 94.5t-3.5 116t-5 112t-6 82.5l-129 -289zM857 373q0 -9 7 -15t17.5 -8.5t21 -3t17.5 -0.5q16 0 35.5 3t39 9.5t36 16.5t26.5 24q-8 12 -20.5 17t-25.5 5q-10 0 -35 -3t-51.5 -9t-47 -15t-20.5 -21zM278 502q-24 4 -28 -4t4.5 -21.5t26 -29.5
t37 -28.5t37.5 -19.5t28 -2q5 5 8 11t5.5 13t6.5 16.5t12 22.5q-7 3 -26.5 9t-41.5 12.5t-41.5 12.5t-27.5 8zM403 376q43 -11 85.5 -16t66.5 -12q-13 18 -39.5 44t-70.5 47q-8 -11 -21.5 -28.5t-20.5 -34.5zM668 209q13 38 36.5 72.5t50.5 65.5q-20 -8 -42.5 -14t-45.5 -9
q-4 -20 -3 -49.5t4 -65.5z" />
    <glyph glyph-name="Ccedilla" unicode="&#xc7;" horiz-adv-x="488" 
d="M27 178q-9 38 -2.5 99.5t24.5 132t45.5 144.5t62 135.5t74.5 103t83 49.5q12 0 20 -2t17 -11q8 -8 20.5 -21t23.5 -34.5t17.5 -52t2.5 -70.5q-1 -6 -6 -8.5t-10 -2.5h-3q-1 0 -2 1q-1 18 -3.5 45.5t-10.5 53t-25 43.5t-46 18q-24 0 -53 -30.5t-56.5 -78.5t-53.5 -107.5
t-45.5 -116.5t-31.5 -106.5t-12 -77.5q0 -33 9.5 -75t28.5 -79t48.5 -62.5t71.5 -25.5q43 0 83 24t72.5 60t55.5 78.5t31 79.5q9 -2 10.5 -11t1.5 -16q0 -2 -0.5 -7.5t-1.5 -7.5q-11 -35 -35.5 -77t-58.5 -79t-74.5 -61.5t-83.5 -24.5q-37 0 -67 16.5t-54 42t-41 57
t-26 62.5zM190 -214q0 17 8 32.5t29 15.5q6 0 11 -1.5t5 -7.5v-1q0 -1 -1 -2l-29 -30q-1 -1 -1 -5q0 -17 14 -27.5t28 -10.5q20 0 43.5 5.5t44 18t34 30.5t13.5 42q0 45 -27 65.5t-70 20.5q-19 0 -36.5 -6t-36.5 -6h-12q0 3 -1.5 11.5t-3.5 18.5t-3.5 18.5t-2.5 11.5
q-6 26 0 39t14.5 10t15 -20.5t-0.5 -52.5q0 -5 4.5 -5h7.5q16 0 31.5 3t32.5 3q50 0 83.5 -29t33.5 -81q0 -29 -15.5 -51.5t-39 -38t-51 -23.5t-52.5 -8h-35q-18 9 -26.5 25.5t-8.5 35.5z" />
    <glyph glyph-name="Egrave" unicode="&#xc8;" horiz-adv-x="525" 
d="M14 174q0 34 12 66t30.5 62.5t41 57t43.5 50.5v5q0 25 -5.5 47.5t-5.5 49.5q0 24 8 55.5t23 66t35.5 68t44.5 59.5t50.5 42.5t54.5 16.5q22 0 41 -9.5t32 -25.5t20.5 -36.5t7.5 -41.5q0 -5 1 -12.5t-0.5 -14.5t-5.5 -12.5t-12 -5.5h-5q-2 9 -6.5 30t-13 42.5t-21 37.5
t-31.5 16q-41 0 -75.5 -29t-60.5 -70.5t-40.5 -88t-14.5 -80.5q0 -21 3 -37.5t8 -42.5h10q22 0 43.5 7.5t44 15.5t45.5 15t46 7h24t28 -3t23.5 -10.5t9.5 -22.5q0 -30 -20 -49.5t-48.5 -31.5t-59 -17t-51.5 -5q-15 0 -28 5t-24.5 11.5t-23 11.5t-24.5 5h-6
q-49 -38 -77.5 -88.5t-28.5 -112.5q0 -57 25 -87t81 -49q58 -11 108.5 -0.5t95.5 31.5t86.5 46.5t83.5 44.5q4 -8 7 -13.5t3 -13.5q0 -6 -1.5 -9t-8.5 -7q-89 -43 -146.5 -67t-93.5 -36t-54.5 -15t-26.5 -3q-38 0 -74 12.5t-64 35.5t-45.5 55t-17.5 71zM215 404
q0 -9 7 -14.5t17.5 -8t21 -3t17.5 -0.5q16 0 35.5 3t39 9t35.5 16.5t27 24.5q-8 11 -20.5 16.5t-25.5 5.5q-10 0 -35 -3.5t-51.5 -9t-47 -14.5t-20.5 -22zM356 869q2 -3 0 -8.5t-4 -6.5q-30 7 -47 27.5t-33 44.5q-17 29 -17.5 45.5t8.5 18t23.5 -12t28.5 -43.5
q5 -11 10.5 -19t10.5 -14.5t10 -14t10 -17.5z" />
    <glyph glyph-name="Eacute" unicode="&#xc9;" horiz-adv-x="525" 
d="M14 174q0 34 12 66t30.5 62.5t41 57t43.5 50.5v5q0 25 -5.5 47.5t-5.5 49.5q0 24 8 55.5t23 66t35.5 68t44.5 59.5t50.5 42.5t54.5 16.5q22 0 41 -9.5t32 -25.5t20.5 -36.5t7.5 -41.5q0 -5 1 -12.5t-0.5 -14.5t-5.5 -12.5t-12 -5.5h-5q-2 9 -6.5 30t-13 42.5t-21 37.5
t-31.5 16q-41 0 -75.5 -29t-60.5 -70.5t-40.5 -88t-14.5 -80.5q0 -21 3 -37.5t8 -42.5h10q22 0 43.5 7.5t44 15.5t45.5 15t46 7h24t28 -3t23.5 -10.5t9.5 -22.5q0 -30 -20 -49.5t-48.5 -31.5t-59 -17t-51.5 -5q-15 0 -28 5t-24.5 11.5t-23 11.5t-24.5 5h-6
q-49 -38 -77.5 -88.5t-28.5 -112.5q0 -57 25 -87t81 -49q58 -11 108.5 -0.5t95.5 31.5t86.5 46.5t83.5 44.5q4 -8 7 -13.5t3 -13.5q0 -6 -1.5 -9t-8.5 -7q-89 -43 -146.5 -67t-93.5 -36t-54.5 -15t-26.5 -3q-38 0 -74 12.5t-64 35.5t-45.5 55t-17.5 71zM215 404
q0 -9 7 -14.5t17.5 -8t21 -3t17.5 -0.5q16 0 35.5 3t39 9t35.5 16.5t27 24.5q-8 11 -20.5 16.5t-25.5 5.5q-10 0 -35 -3.5t-51.5 -9t-47 -14.5t-20.5 -22zM279 879q6 11 11.5 19t11.5 15.5t12 16t12 21.5q16 31 33 46t27.5 13t10 -19.5t-20.5 -49.5q-17 -26 -37 -48t-55 -30
q-3 1 -5 7t0 9z" />
    <glyph glyph-name="Ecircumflex" unicode="&#xca;" horiz-adv-x="525" 
d="M14 174q0 34 12 66t30.5 62.5t41 57t43.5 50.5v5q0 25 -5.5 47.5t-5.5 49.5q0 24 8 55.5t23 66t35.5 68t44.5 59.5t50.5 42.5t54.5 16.5q22 0 41 -9.5t32 -25.5t20.5 -36.5t7.5 -41.5q0 -5 1 -12.5t-0.5 -14.5t-5.5 -12.5t-12 -5.5h-5q-2 9 -6.5 30t-13 42.5t-21 37.5
t-31.5 16q-41 0 -75.5 -29t-60.5 -70.5t-40.5 -88t-14.5 -80.5q0 -21 3 -37.5t8 -42.5h10q22 0 43.5 7.5t44 15.5t45.5 15t46 7h24t28 -3t23.5 -10.5t9.5 -22.5q0 -30 -20 -49.5t-48.5 -31.5t-59 -17t-51.5 -5q-15 0 -28 5t-24.5 11.5t-23 11.5t-24.5 5h-6
q-49 -38 -77.5 -88.5t-28.5 -112.5q0 -57 25 -87t81 -49q58 -11 108.5 -0.5t95.5 31.5t86.5 46.5t83.5 44.5q4 -8 7 -13.5t3 -13.5q0 -6 -1.5 -9t-8.5 -7q-89 -43 -146.5 -67t-93.5 -36t-54.5 -15t-26.5 -3q-38 0 -74 12.5t-64 35.5t-45.5 55t-17.5 71zM215 404
q0 -9 7 -14.5t17.5 -8t21 -3t17.5 -0.5q16 0 35.5 3t39 9t35.5 16.5t27 24.5q-8 11 -20.5 16.5t-25.5 5.5q-10 0 -35 -3.5t-51.5 -9t-47 -14.5t-20.5 -22zM423 862q-3 6 -10 22t-14 33.5t-13.5 33.5t-9.5 22q-2 4 -8.5 13.5t-8.5 12.5q-16 -9 -30 -31t-27.5 -44t-26.5 -39.5
t-29 -17.5q-6 0 -10 7q6 13 21.5 38.5t35.5 54t42 54.5t41 39q1 0 1.5 -0.5t2.5 -0.5h3q0 -19 6 -41t15 -43.5t18.5 -41t15.5 -32.5q0 -1 2.5 -5l5 -8t4.5 -8.5t2 -5.5v-1q0 -1 0.5 -1.5t0.5 -1.5q0 -5 -6 -10t-14 -5q-7 0 -10 7z" />
    <glyph glyph-name="Edieresis" unicode="&#xcb;" horiz-adv-x="525" 
d="M14 174q0 34 12 66t30.5 62.5t41 57t43.5 50.5v5q0 25 -5.5 47.5t-5.5 49.5q0 24 8 55.5t23 66t35.5 68t44.5 59.5t50.5 42.5t54.5 16.5q22 0 41 -9.5t32 -25.5t20.5 -36.5t7.5 -41.5q0 -5 1 -12.5t-0.5 -14.5t-5.5 -12.5t-12 -5.5h-5q-2 9 -6.5 30t-13 42.5t-21 37.5
t-31.5 16q-41 0 -75.5 -29t-60.5 -70.5t-40.5 -88t-14.5 -80.5q0 -21 3 -37.5t8 -42.5h10q22 0 43.5 7.5t44 15.5t45.5 15t46 7h24t28 -3t23.5 -10.5t9.5 -22.5q0 -30 -20 -49.5t-48.5 -31.5t-59 -17t-51.5 -5q-15 0 -28 5t-24.5 11.5t-23 11.5t-24.5 5h-6
q-49 -38 -77.5 -88.5t-28.5 -112.5q0 -57 25 -87t81 -49q58 -11 108.5 -0.5t95.5 31.5t86.5 46.5t83.5 44.5q4 -8 7 -13.5t3 -13.5q0 -6 -1.5 -9t-8.5 -7q-89 -43 -146.5 -67t-93.5 -36t-54.5 -15t-26.5 -3q-38 0 -74 12.5t-64 35.5t-45.5 55t-17.5 71zM215 404
q0 -9 7 -14.5t17.5 -8t21 -3t17.5 -0.5q16 0 35.5 3t39 9t35.5 16.5t27 24.5q-8 11 -20.5 16.5t-25.5 5.5q-10 0 -35 -3.5t-51.5 -9t-47 -14.5t-20.5 -22zM275 913q8 0 20 -12t12 -21q-7 -25 -21.5 -26t-25 10t-10 25.5t24.5 23.5zM412 913q8 0 20 -12t12 -21
q-7 -25 -21.5 -26t-24.5 10t-9.5 25.5t23.5 23.5z" />
    <glyph glyph-name="Igrave" unicode="&#xcc;" horiz-adv-x="608" 
d="M22 22q0 8 4 15t13 7q17 0 29.5 -6t32.5 -6q68 0 131 29.5t118.5 79.5t101.5 114.5t79.5 134t52 138.5t18.5 129q0 76 -32.5 115t-108.5 39q-34 0 -60.5 -26t-45 -63t-28.5 -76.5t-10 -65.5q0 -55 25.5 -94t80.5 -55l-22 -9q-1 -1 -8.5 2.5t-17.5 8t-20.5 10.5t-16.5 10
q-34 21 -44 57t-10 72q0 35 11.5 80t33.5 85t54.5 67.5t75.5 27.5q47 0 78.5 -15t51 -41.5t27.5 -63t8 -79.5q0 -96 -32.5 -189t-88.5 -175t-131 -148t-159 -109q-25 -12 -57.5 -22t-63.5 -10q-7 0 -19 1.5t-23 5t-19.5 10t-8.5 15.5zM453 889q2 -3 0 -8.5t-4 -6.5
q-30 7 -47 27.5t-33 44.5q-17 29 -17.5 45.5t8.5 18t23.5 -12t28.5 -43.5q5 -11 10.5 -19t10.5 -14.5t10 -14t10 -17.5z" />
    <glyph glyph-name="Iacute" unicode="&#xcd;" horiz-adv-x="608" 
d="M14 31q0 8 4 15t13 7q17 0 29.5 -6t32.5 -6q68 0 131 29.5t118.5 79.5t101.5 114.5t79.5 134t52 138.5t18.5 129q0 76 -32.5 115t-108.5 39q-34 0 -60.5 -26t-45 -63t-28.5 -76.5t-10 -65.5q0 -55 25.5 -94t80.5 -55l-22 -9q-1 -1 -8.5 2.5t-17.5 8t-20.5 10.5t-16.5 10
q-34 21 -44 57t-10 72q0 35 11.5 80t33.5 85t54.5 67.5t75.5 27.5q47 0 78.5 -15t51 -41.5t27.5 -63t8 -79.5q0 -96 -32.5 -189t-88.5 -175t-131 -148t-159 -109q-25 -12 -57.5 -22t-63.5 -10q-7 0 -19 1.5t-23 5t-19.5 10t-8.5 15.5zM383 893q6 11 11.5 19t11.5 15.5t12 16
t12 21.5q16 31 33 46t27.5 13t10 -19.5t-20.5 -49.5q-17 -26 -37 -48t-55 -30q-3 1 -5 7t0 9z" />
    <glyph glyph-name="Icircumflex" unicode="&#xce;" horiz-adv-x="608" 
d="M14 31q0 8 4 15t13 7q17 0 29.5 -6t32.5 -6q68 0 131 29.5t118.5 79.5t101.5 114.5t79.5 134t52 138.5t18.5 129q0 76 -32.5 115t-108.5 39q-34 0 -60.5 -26t-45 -63t-28.5 -76.5t-10 -65.5q0 -55 25.5 -94t80.5 -55l-22 -9q-1 -1 -8.5 2.5t-17.5 8t-20.5 10.5t-16.5 10
q-34 21 -44 57t-10 72q0 35 11.5 80t33.5 85t54.5 67.5t75.5 27.5q47 0 78.5 -15t51 -41.5t27.5 -63t8 -79.5q0 -96 -32.5 -189t-88.5 -175t-131 -148t-159 -109q-25 -12 -57.5 -22t-63.5 -10q-7 0 -19 1.5t-23 5t-19.5 10t-8.5 15.5zM537 913q-3 6 -10 22t-14 33.5
t-13.5 33.5t-9.5 22q-2 4 -8.5 13.5t-8.5 12.5q-16 -9 -30 -31t-27.5 -44t-26.5 -39.5t-29 -17.5q-6 0 -10 7q6 13 21.5 38.5t35.5 54t42 54.5t41 39q1 0 1.5 -0.5t2.5 -0.5h3q0 -19 6 -41t15 -43.5t18.5 -41t15.5 -32.5q0 -1 2.5 -5l5 -8t4.5 -8.5t2 -5.5v-1q0 -1 0.5 -1.5
t0.5 -1.5q0 -5 -6 -10t-14 -5q-7 0 -10 7z" />
    <glyph glyph-name="Idieresis" unicode="&#xcf;" horiz-adv-x="608" 
d="M14 31q0 8 4 15t13 7q17 0 29.5 -6t32.5 -6q68 0 131 29.5t118.5 79.5t101.5 114.5t79.5 134t52 138.5t18.5 129q0 76 -32.5 115t-108.5 39q-34 0 -60.5 -26t-45 -63t-28.5 -76.5t-10 -65.5q0 -55 25.5 -94t80.5 -55l-22 -9q-1 -1 -8.5 2.5t-17.5 8t-20.5 10.5t-16.5 10
q-34 21 -44 57t-10 72q0 35 11.5 80t33.5 85t54.5 67.5t75.5 27.5q47 0 78.5 -15t51 -41.5t27.5 -63t8 -79.5q0 -96 -32.5 -189t-88.5 -175t-131 -148t-159 -109q-25 -12 -57.5 -22t-63.5 -10q-7 0 -19 1.5t-23 5t-19.5 10t-8.5 15.5zM353 962q8 0 20 -12t12 -21
q-7 -25 -21.5 -26t-25 10t-10 25.5t24.5 23.5zM490 962q8 0 20 -12t12 -21q-7 -25 -21.5 -26t-24.5 10t-9.5 25.5t23.5 23.5z" />
    <glyph glyph-name="Eth" unicode="&#xd0;" horiz-adv-x="719" 
d="M6 319q0 11 3.5 15.5t10 5.5t14 0.5t15.5 -0.5q7 1 21.5 1.5t31.5 0.5l36 273q1 10 2 23.5t3 28.5t4 32h24q0 -21 -2.5 -45t-7.5 -63t-13 -98.5t-19 -149.5q23 0 46.5 0.5t45 1t37.5 1t25 0.5h6q9 0 12.5 -6.5t3.5 -14.5q0 -10 -4 -15t-18 -6l-159 -3q-5 -36 -9 -75
t-10 -84q20 18 36 30.5t38 12.5q25 0 44 -12t34 -30.5t29.5 -40t31 -40t37 -31t47.5 -12.5q32 0 66 18.5t66.5 48.5t62 68.5t51.5 78t34.5 78t12.5 68.5q0 1 -0.5 2.5t-0.5 2.5q-24 -23 -46.5 -38.5t-47.5 -26t-52 -15t-60 -4.5q-60 0 -101.5 23.5t-66.5 62.5t-36 89
t-11 104q0 44 12 99.5t37.5 105t65.5 82.5t96 33q44 0 79.5 -17.5t63.5 -47t48.5 -68t34 -80t20 -83t6.5 -77.5q1 -48 -7.5 -102.5t-27 -109.5t-45 -107t-59.5 -94.5t-71.5 -72.5t-81.5 -40t-88.5 3t-92.5 55q-17 22 -29 44.5t-34 39.5q-3 3 -11 7.5t-10 3.5q-29 -7 -44 -32
t-25.5 -53.5t-21 -51t-32.5 -22.5l9 54l32 252l-80 -1q-8 -1 -9.5 7.5t-1.5 12.5zM304 574q0 -50 10.5 -94.5t33.5 -77t60 -52t92 -19.5q58 -5 98.5 14t65 54t33.5 82t4.5 98t-21 101t-43.5 91.5t-63 70t-79 36.5q-53 0 -89 -32.5t-58.5 -79.5t-33 -99.5t-10.5 -92.5z" />
    <glyph glyph-name="Ntilde" unicode="&#xd1;" horiz-adv-x="701" 
d="M593 58v26t-0.5 39t-0.5 40v26q0 58 5 114t11.5 112.5t12 112.5t5.5 113v69l-358 -337q-1 -9 -4 -33t-6 -51t-6.5 -51t-4.5 -33q-4 -29 -17.5 -65.5t-34.5 -68.5t-49 -54.5t-63 -22.5q-30 0 -50 21.5t-18 53.5q4 47 26 92.5t52.5 87.5t66 79t65.5 66q1 5 1.5 21t0.5 21
q0 25 -1 44.5t-4 39.5t-7 42.5t-10 51.5q-3 9 -9 10.5t-13 1.5q-1 0 -4.5 -0.5t-5.5 -0.5q-31 -25 -69.5 -43.5t-79.5 -18.5q0 12 3 19t9 10t14 5t19 7q7 3 25 12l38 19t37.5 19.5t25.5 12.5q1 0 5 0.5t5 0.5q12 0 20.5 -10t11.5 -22l32 -219l377 365l21 -20q0 -1 1 -9.5
t1.5 -18t1 -19.5t0.5 -17q0 -64 -8 -126.5t-16.5 -125t-16 -125.5t-7.5 -126q0 -7 0.5 -23.5t1 -35t1 -35t0.5 -22.5q21 -179 198 -179q5 0 17 1.5t25.5 3t25 3.5t16.5 3q-8 -12 -21.5 -18.5t-28.5 -9.5t-31 -3.5t-28 -0.5q-47 0 -81 11.5t-58 34t-40.5 56t-26.5 77.5z
M56 76v-15t1.5 -16.5t6.5 -13t14 -5.5q27 0 49.5 17t39 44.5t28.5 61.5t19 68.5t10.5 64t3.5 49.5h-12q-2 0 -9.5 -7.5t-18 -17.5t-20 -20.5t-15.5 -17.5q-17 -18 -34 -41t-30.5 -48t-23 -51.5t-9.5 -51.5zM324 840q-20 0 -35.5 -14.5t-27.5 -28.5h-12q-2 26 7 42.5t23 25
t29 9.5t24 -3q19 0 35.5 -7.5t32 -16.5t32.5 -17t38 -8h30t25.5 5t18.5 17t7 36q0 33 -8 47t-33 14q0 14 10 16t18 2q24 0 35 -22t11 -50q0 -33 -9.5 -53t-25 -31.5t-36 -15.5t-43.5 -4q-21 0 -40 9t-36 19.5t-34.5 19.5t-35.5 9z" />
    <glyph glyph-name="Ograve" unicode="&#xd2;" horiz-adv-x="565" 
d="M26 321v28.5v35.5t0.5 30.5t0.5 15.5q0 3 2.5 21.5t5.5 42t6.5 46.5t5.5 37q3 16 11 45t20.5 58t31 49.5t43.5 20.5v-16q-59 -99 -78 -203t-19 -219q0 -42 2.5 -77t12.5 -66.5t29 -60t53 -57.5q10 -8 17 -9t18 -1q57 0 105 29t86 74t63 98.5t35 102.5q-79 -5 -133 9.5
t-87.5 49t-48 90.5t-14.5 135q0 27 2.5 66.5t10 81.5t21.5 83.5t35.5 74t52 53t72.5 20.5q35 0 61 -21.5t44.5 -52.5t30.5 -65.5t17 -60.5q0 -9 0.5 -31.5t0.5 -47.5v-47.5v-31.5q0 -63 -6 -121.5t-6 -119.5v-11l74 32v-6q0 -8 -11 -15q-3 -2 -14 -8t-23.5 -12.5
t-23.5 -12.5t-13 -9t-6.5 -17t-9.5 -30.5t-9.5 -31t-5.5 -17.5q-20 -47 -47 -94t-63.5 -84.5t-82 -60.5t-101.5 -23q-61 0 -94 32.5t-50 80t-20.5 101.5t-3.5 97zM224 602q0 -40 10.5 -82t32 -76t55 -55.5t81.5 -21.5q10 0 23 -0.5t26 1t23 6t13 14.5q1 6 4.5 19.5t6.5 29
t6 28.5t5 18v11q0 7 1.5 38t3 66.5t3 66t1.5 38.5q0 29 -4.5 73t-18 86.5t-38 75.5t-64.5 39q-34 4 -59.5 -17.5t-44.5 -58t-31.5 -81.5t-20.5 -88.5t-11 -79t-3 -50.5zM375 1045q2 -3 0 -8.5t-4 -6.5q-30 7 -47 27.5t-33 44.5q-17 29 -17.5 45.5t8.5 18t23.5 -12
t28.5 -43.5q5 -11 10.5 -19t10.5 -14.5t10 -14t10 -17.5z" />
    <glyph glyph-name="Oacute" unicode="&#xd3;" horiz-adv-x="565" 
d="M26 321v28.5v35.5t0.5 30.5t0.5 15.5q0 3 2.5 21.5t5.5 42t6.5 46.5t5.5 37q3 16 11 45t20.5 58t31 49.5t43.5 20.5v-16q-59 -99 -78 -203t-19 -219q0 -42 2.5 -77t12.5 -66.5t29 -60t53 -57.5q10 -8 17 -9t18 -1q57 0 105 29t86 74t63 98.5t35 102.5q-79 -5 -133 9.5
t-87.5 49t-48 90.5t-14.5 135q0 27 2.5 66.5t10 81.5t21.5 83.5t35.5 74t52 53t72.5 20.5q35 0 61 -21.5t44.5 -52.5t30.5 -65.5t17 -60.5q0 -9 0.5 -31.5t0.5 -47.5v-47.5v-31.5q0 -63 -6 -121.5t-6 -119.5v-11l74 32v-6q0 -8 -11 -15q-3 -2 -14 -8t-23.5 -12.5
t-23.5 -12.5t-13 -9t-6.5 -17t-9.5 -30.5t-9.5 -31t-5.5 -17.5q-20 -47 -47 -94t-63.5 -84.5t-82 -60.5t-101.5 -23q-61 0 -94 32.5t-50 80t-20.5 101.5t-3.5 97zM224 602q0 -40 10.5 -82t32 -76t55 -55.5t81.5 -21.5q10 0 23 -0.5t26 1t23 6t13 14.5q1 6 4.5 19.5t6.5 29
t6 28.5t5 18v11q0 7 1.5 38t3 66.5t3 66t1.5 38.5q0 29 -4.5 73t-18 86.5t-38 75.5t-64.5 39q-34 4 -59.5 -17.5t-44.5 -58t-31.5 -81.5t-20.5 -88.5t-11 -79t-3 -50.5zM231 1026q6 11 11.5 19t11.5 15.5t12 16t12 21.5q16 31 33 46t27.5 13t10 -19.5t-20.5 -49.5
q-17 -26 -37 -48t-55 -30q-3 1 -5 7t0 9z" />
    <glyph glyph-name="Ocircumflex" unicode="&#xd4;" horiz-adv-x="565" 
d="M26 321v28.5v35.5t0.5 30.5t0.5 15.5q0 3 2.5 21.5t5.5 42t6.5 46.5t5.5 37q3 16 11 45t20.5 58t31 49.5t43.5 20.5v-16q-59 -99 -78 -203t-19 -219q0 -42 2.5 -77t12.5 -66.5t29 -60t53 -57.5q10 -8 17 -9t18 -1q57 0 105 29t86 74t63 98.5t35 102.5q-79 -5 -133 9.5
t-87.5 49t-48 90.5t-14.5 135q0 27 2.5 66.5t10 81.5t21.5 83.5t35.5 74t52 53t72.5 20.5q35 0 61 -21.5t44.5 -52.5t30.5 -65.5t17 -60.5q0 -9 0.5 -31.5t0.5 -47.5v-47.5v-31.5q0 -63 -6 -121.5t-6 -119.5v-11l74 32v-6q0 -8 -11 -15q-3 -2 -14 -8t-23.5 -12.5
t-23.5 -12.5t-13 -9t-6.5 -17t-9.5 -30.5t-9.5 -31t-5.5 -17.5q-20 -47 -47 -94t-63.5 -84.5t-82 -60.5t-101.5 -23q-61 0 -94 32.5t-50 80t-20.5 101.5t-3.5 97zM224 602q0 -40 10.5 -82t32 -76t55 -55.5t81.5 -21.5q10 0 23 -0.5t26 1t23 6t13 14.5q1 6 4.5 19.5t6.5 29
t6 28.5t5 18v11q0 7 1.5 38t3 66.5t3 66t1.5 38.5q0 29 -4.5 73t-18 86.5t-38 75.5t-64.5 39q-34 4 -59.5 -17.5t-44.5 -58t-31.5 -81.5t-20.5 -88.5t-11 -79t-3 -50.5zM393 1080q-3 6 -10 22t-14 33.5t-13.5 33.5t-9.5 22q-2 4 -8.5 13.5t-8.5 12.5q-16 -9 -30 -31
t-27.5 -44t-26.5 -39.5t-29 -17.5q-6 0 -10 7q6 13 21.5 38.5t35.5 54t42 54.5t41 39q1 0 1.5 -0.5t2.5 -0.5h3q0 -19 6 -41t15 -43.5t18.5 -41t15.5 -32.5q0 -1 2.5 -5l5 -8t4.5 -8.5t2 -5.5v-1q0 -1 0.5 -1.5t0.5 -1.5q0 -5 -6 -10t-14 -5q-7 0 -10 7z" />
    <glyph glyph-name="Otilde" unicode="&#xd5;" horiz-adv-x="565" 
d="M26 321v28.5v35.5t0.5 30.5t0.5 15.5q0 3 2.5 21.5t5.5 42t6.5 46.5t5.5 37q3 16 11 45t20.5 58t31 49.5t43.5 20.5v-16q-59 -99 -78 -203t-19 -219q0 -42 2.5 -77t12.5 -66.5t29 -60t53 -57.5q10 -8 17 -9t18 -1q57 0 105 29t86 74t63 98.5t35 102.5q-79 -5 -133 9.5
t-87.5 49t-48 90.5t-14.5 135q0 27 2.5 66.5t10 81.5t21.5 83.5t35.5 74t52 53t72.5 20.5q35 0 61 -21.5t44.5 -52.5t30.5 -65.5t17 -60.5q0 -9 0.5 -31.5t0.5 -47.5v-47.5v-31.5q0 -63 -6 -121.5t-6 -119.5v-11l74 32v-6q0 -8 -11 -15q-3 -2 -14 -8t-23.5 -12.5
t-23.5 -12.5t-13 -9t-6.5 -17t-9.5 -30.5t-9.5 -31t-5.5 -17.5q-20 -47 -47 -94t-63.5 -84.5t-82 -60.5t-101.5 -23q-61 0 -94 32.5t-50 80t-20.5 101.5t-3.5 97zM224 602q0 -40 10.5 -82t32 -76t55 -55.5t81.5 -21.5q10 0 23 -0.5t26 1t23 6t13 14.5q1 6 4.5 19.5t6.5 29
t6 28.5t5 18v11q0 7 1.5 38t3 66.5t3 66t1.5 38.5q0 29 -4.5 73t-18 86.5t-38 75.5t-64.5 39q-34 4 -59.5 -17.5t-44.5 -58t-31.5 -81.5t-20.5 -88.5t-11 -79t-3 -50.5zM238 1094q-20 0 -35.5 -14.5t-27.5 -28.5h-12q-2 26 7 42.5t23 25t29 9.5t24 -3q19 0 35.5 -7.5
t32 -16.5t32.5 -17t38 -8h30t25.5 5t18.5 17t7 36q0 33 -8 47t-33 14q0 14 10 16t18 2q24 0 35 -22t11 -50q0 -33 -9.5 -53t-25 -31.5t-36 -15.5t-43.5 -4q-21 0 -40 9t-36 19.5t-34.5 19.5t-35.5 9z" />
    <glyph glyph-name="Odieresis" unicode="&#xd6;" horiz-adv-x="565" 
d="M26 321v28.5v35.5t0.5 30.5t0.5 15.5q0 3 2.5 21.5t5.5 42t6.5 46.5t5.5 37q3 16 11 45t20.5 58t31 49.5t43.5 20.5v-16q-59 -99 -78 -203t-19 -219q0 -42 2.5 -77t12.5 -66.5t29 -60t53 -57.5q10 -8 17 -9t18 -1q57 0 105 29t86 74t63 98.5t35 102.5q-79 -5 -133 9.5
t-87.5 49t-48 90.5t-14.5 135q0 27 2.5 66.5t10 81.5t21.5 83.5t35.5 74t52 53t72.5 20.5q35 0 61 -21.5t44.5 -52.5t30.5 -65.5t17 -60.5q0 -9 0.5 -31.5t0.5 -47.5v-47.5v-31.5q0 -63 -6 -121.5t-6 -119.5v-11l74 32v-6q0 -8 -11 -15q-3 -2 -14 -8t-23.5 -12.5
t-23.5 -12.5t-13 -9t-6.5 -17t-9.5 -30.5t-9.5 -31t-5.5 -17.5q-20 -47 -47 -94t-63.5 -84.5t-82 -60.5t-101.5 -23q-61 0 -94 32.5t-50 80t-20.5 101.5t-3.5 97zM224 602q0 -40 10.5 -82t32 -76t55 -55.5t81.5 -21.5q10 0 23 -0.5t26 1t23 6t13 14.5q1 6 4.5 19.5t6.5 29
t6 28.5t5 18v11q0 7 1.5 38t3 66.5t3 66t1.5 38.5q0 29 -4.5 73t-18 86.5t-38 75.5t-64.5 39q-34 4 -59.5 -17.5t-44.5 -58t-31.5 -81.5t-20.5 -88.5t-11 -79t-3 -50.5zM274 1139q8 0 20 -12t12 -21q-7 -25 -21.5 -26t-25 10t-10 25.5t24.5 23.5zM411 1139q8 0 20 -12
t12 -21q-7 -25 -21.5 -26t-24.5 10t-9.5 25.5t23.5 23.5z" />
    <glyph glyph-name="multiply" unicode="&#xd7;" horiz-adv-x="458" 
d="M207 250l-89 133q19 20 31 19t22.5 -15.5t23.5 -39t36 -51.5q9 8 18.5 21t19 26.5t18 26.5t13.5 20l4.5 5t11 9.5t13.5 5t13 -9.5l-87 -157q18 -14 35 -21.5t33 -12t32.5 -7.5t33.5 -6q30 -6 35.5 -13t-4.5 -13t-33 -8.5t-51 1t-55.5 15t-47.5 34.5q-22 -25 -35.5 -47
t-25 -35.5t-25 -17t-34.5 8.5z" />
    <glyph glyph-name="Oslash" unicode="&#xd8;" horiz-adv-x="565" 
d="M27 56v3t2 9t6.5 19.5t13.5 35.5q-16 48 -19.5 101.5t-3.5 96.5v28.5v35.5t0.5 30.5t0.5 15.5q0 3 2.5 21.5t5.5 42t6.5 46.5t5.5 37q3 16 11 45t20.5 58t31 49.5t43.5 20.5v-16q-59 -99 -78 -203t-19 -219q0 -42 2 -76t12 -65q20 47 54.5 121t88.5 185q-19 59 -19 152
q0 27 2.5 66.5t10 81.5t21.5 83.5t35.5 74t52 53t72.5 20.5q21 0 39 -8.5t33 -22.5q11 20 21.5 40.5t21.5 43.5q1 0 3 1q4 2 6 2q7 0 17 -11t5 -45q-2 -5 -6 -17t-9 -24.5t-9.5 -22.5t-6.5 -11q-2 -3 -4 -7q16 -30 26.5 -61.5t15.5 -56.5q0 -9 0.5 -31.5t0.5 -47.5v-47.5
v-31.5q0 -63 -6 -121.5t-6 -119.5v-11l74 32v-6q0 -8 -11 -15q-3 -2 -14 -8t-23.5 -12.5t-23.5 -12.5t-13 -9t-6.5 -17t-9.5 -30.5t-9.5 -31t-5.5 -17.5q-20 -47 -47 -94t-63.5 -84.5t-82 -60.5t-101.5 -23q-43 0 -72 17t-48 45l-14 -36t-13 -35q-1 -1 -2 -1q-1 -1 -2 -1h-1
q-8 0 -11.5 18.5t-3.5 38.5zM477 346q-95 -6 -154 15t-91 73q-35 -76 -70.5 -154t-68.5 -160q21 -35 60 -68q10 -8 17 -9t18 -1q57 0 105 29t86 74t63 98.5t35 102.5zM519 703q0 18 -1.5 42t-5.5 50.5t-11 54t-19 50.5q-58 -99 -116 -206t-115 -222q20 -46 57.5 -75.5
t94.5 -29.5q10 0 23 -0.5t26 1t23 6t13 14.5q1 6 4.5 19.5t6.5 29t6 28.5t5 18v11q0 7 1.5 38t3 66.5t3 66t1.5 38.5zM224 602q0 -42 10 -82q42 86 94 191.5t118 238.5q-11 11 -23.5 18t-28.5 9q-34 4 -59.5 -17.5t-44.5 -58t-31.5 -81.5t-20.5 -88.5t-11 -79t-3 -50.5z" />
    <glyph glyph-name="Ugrave" unicode="&#xd9;" horiz-adv-x="842" 
d="M145 190v10.5t0.5 13t1 11.5t0.5 6l64 389v42q-15 -10 -28.5 -14t-26 -6t-25 -2h-29.5q-4 0 -17 -0.5t-27.5 1.5t-26 7.5t-11.5 18.5q0 1 1 3t1 3q14 10 25 15.5t27 5.5q2 0 4.5 -3t-4.5 -18q4 -1 15.5 -1.5t15.5 -0.5q22 0 42 7t39 16t38 16.5t39 7.5v-25l-85 -483v-15
q0 -21 5.5 -47t18 -49.5t31.5 -40t46 -16.5q16 0 31 7t27.5 18.5t23 24t18.5 24.5q34 49 56 100t41.5 103t40 104t50.5 102l54 210q1 6 5.5 8.5t9.5 2.5q11 0 13.5 -9t2.5 -17q0 -46 -8.5 -92.5t-18.5 -93.5t-18.5 -94t-8.5 -94q0 -48 6.5 -98t27 -91t58 -68t97.5 -27
q29 0 45.5 7.5t38.5 24.5q2 0 7 -4t5 -6q0 -18 -11.5 -29t-27.5 -16t-32.5 -6.5t-28.5 -1.5q-56 0 -94.5 20t-63.5 52.5t-37.5 76t-18 90t-5 94t2.5 88.5q-3 -10 -11 -30l-18 -45t-21.5 -52.5t-22.5 -52t-19.5 -44t-12.5 -28.5q-13 -28 -30.5 -61.5t-40.5 -61.5t-52.5 -47.5
t-66.5 -19.5q-36 0 -61 16.5t-39 42.5t-20.5 58t-6.5 63zM489 809q2 -3 0 -8.5t-4 -6.5q-30 7 -47 27.5t-33 44.5q-17 29 -17.5 45.5t8.5 18t23.5 -12t28.5 -43.5q5 -11 10.5 -19t10.5 -14.5t10 -14t10 -17.5z" />
    <glyph glyph-name="Uacute" unicode="&#xda;" horiz-adv-x="842" 
d="M145 190v10.5t0.5 13t1 11.5t0.5 6l64 389v42q-15 -10 -28.5 -14t-26 -6t-25 -2h-29.5q-4 0 -17 -0.5t-27.5 1.5t-26 7.5t-11.5 18.5q0 1 1 3t1 3q14 10 25 15.5t27 5.5q2 0 4.5 -3t-4.5 -18q4 -1 15.5 -1.5t15.5 -0.5q22 0 42 7t39 16t38 16.5t39 7.5v-25l-85 -483v-15
q0 -21 5.5 -47t18 -49.5t31.5 -40t46 -16.5q16 0 31 7t27.5 18.5t23 24t18.5 24.5q34 49 56 100t41.5 103t40 104t50.5 102l54 210q1 6 5.5 8.5t9.5 2.5q11 0 13.5 -9t2.5 -17q0 -46 -8.5 -92.5t-18.5 -93.5t-18.5 -94t-8.5 -94q0 -48 6.5 -98t27 -91t58 -68t97.5 -27
q29 0 45.5 7.5t38.5 24.5q2 0 7 -4t5 -6q0 -18 -11.5 -29t-27.5 -16t-32.5 -6.5t-28.5 -1.5q-56 0 -94.5 20t-63.5 52.5t-37.5 76t-18 90t-5 94t2.5 88.5q-3 -10 -11 -30l-18 -45t-21.5 -52.5t-22.5 -52t-19.5 -44t-12.5 -28.5q-13 -28 -30.5 -61.5t-40.5 -61.5t-52.5 -47.5
t-66.5 -19.5q-36 0 -61 16.5t-39 42.5t-20.5 58t-6.5 63zM393 821q6 11 11.5 19t11.5 15.5t12 16t12 21.5q16 31 33 46t27.5 13t10 -19.5t-20.5 -49.5q-17 -26 -37 -48t-55 -30q-3 1 -5 7t0 9z" />
    <glyph glyph-name="Ucircumflex" unicode="&#xdb;" horiz-adv-x="842" 
d="M145 190v10.5t0.5 13t1 11.5t0.5 6l64 389v42q-15 -10 -28.5 -14t-26 -6t-25 -2h-29.5q-4 0 -17 -0.5t-27.5 1.5t-26 7.5t-11.5 18.5q0 1 1 3t1 3q14 10 25 15.5t27 5.5q2 0 4.5 -3t-4.5 -18q4 -1 15.5 -1.5t15.5 -0.5q22 0 42 7t39 16t38 16.5t39 7.5v-25l-85 -483v-15
q0 -21 5.5 -47t18 -49.5t31.5 -40t46 -16.5q16 0 31 7t27.5 18.5t23 24t18.5 24.5q34 49 56 100t41.5 103t40 104t50.5 102l54 210q1 6 5.5 8.5t9.5 2.5q11 0 13.5 -9t2.5 -17q0 -46 -8.5 -92.5t-18.5 -93.5t-18.5 -94t-8.5 -94q0 -48 6.5 -98t27 -91t58 -68t97.5 -27
q29 0 45.5 7.5t38.5 24.5q2 0 7 -4t5 -6q0 -18 -11.5 -29t-27.5 -16t-32.5 -6.5t-28.5 -1.5q-56 0 -94.5 20t-63.5 52.5t-37.5 76t-18 90t-5 94t2.5 88.5q-3 -10 -11 -30l-18 -45t-21.5 -52.5t-22.5 -52t-19.5 -44t-12.5 -28.5q-13 -28 -30.5 -61.5t-40.5 -61.5t-52.5 -47.5
t-66.5 -19.5q-36 0 -61 16.5t-39 42.5t-20.5 58t-6.5 63zM516 804q-3 6 -10 22t-14 33.5t-13.5 33.5t-9.5 22q-2 4 -8.5 13.5t-8.5 12.5q-16 -9 -30 -31t-27.5 -44t-26.5 -39.5t-29 -17.5q-6 0 -10 7q6 13 21.5 38.5t35.5 54t42 54.5t41 39q1 0 1.5 -0.5t2.5 -0.5h3
q0 -19 6 -41t15 -43.5t18.5 -41t15.5 -32.5q0 -1 2.5 -5l5 -8t4.5 -8.5t2 -5.5v-1q0 -1 0.5 -1.5t0.5 -1.5q0 -5 -6 -10t-14 -5q-7 0 -10 7z" />
    <glyph glyph-name="Udieresis" unicode="&#xdc;" horiz-adv-x="842" 
d="M145 190v10.5t0.5 13t1 11.5t0.5 6l64 389v42q-15 -10 -28.5 -14t-26 -6t-25 -2h-29.5q-4 0 -17 -0.5t-27.5 1.5t-26 7.5t-11.5 18.5q0 1 1 3t1 3q14 10 25 15.5t27 5.5q2 0 4.5 -3t-4.5 -18q4 -1 15.5 -1.5t15.5 -0.5q22 0 42 7t39 16t38 16.5t39 7.5v-25l-85 -483v-15
q0 -21 5.5 -47t18 -49.5t31.5 -40t46 -16.5q16 0 31 7t27.5 18.5t23 24t18.5 24.5q34 49 56 100t41.5 103t40 104t50.5 102l54 210q1 6 5.5 8.5t9.5 2.5q11 0 13.5 -9t2.5 -17q0 -46 -8.5 -92.5t-18.5 -93.5t-18.5 -94t-8.5 -94q0 -48 6.5 -98t27 -91t58 -68t97.5 -27
q29 0 45.5 7.5t38.5 24.5q2 0 7 -4t5 -6q0 -18 -11.5 -29t-27.5 -16t-32.5 -6.5t-28.5 -1.5q-56 0 -94.5 20t-63.5 52.5t-37.5 76t-18 90t-5 94t2.5 88.5q-3 -10 -11 -30l-18 -45t-21.5 -52.5t-22.5 -52t-19.5 -44t-12.5 -28.5q-13 -28 -30.5 -61.5t-40.5 -61.5t-52.5 -47.5
t-66.5 -19.5q-36 0 -61 16.5t-39 42.5t-20.5 58t-6.5 63zM390 870q8 0 20 -12t12 -21q-7 -25 -21.5 -26t-25 10t-10 25.5t24.5 23.5zM527 870q8 0 20 -12t12 -21q-7 -25 -21.5 -26t-24.5 10t-9.5 25.5t23.5 23.5z" />
    <glyph glyph-name="Yacute" unicode="&#xdd;" horiz-adv-x="665" 
d="M72 -211q-15 20 -23 42.5t-10 39.5t1.5 27.5t12 5.5t21.5 -27.5t30 -71.5q54 -103 101 -152t89 -57t77.5 21t65 83t53 127.5t40.5 155.5t27 166t13 160q-17 -63 -46 -98t-62 -41.5t-65 15t-56 71.5t-34 129t0 186q-10 -2 -24.5 -10t-29.5 -18.5t-30.5 -19.5t-28 -13.5
t-20.5 -2t-9 17.5q14 6 32 18t37 24.5t37 23t32 15t23.5 1t11.5 -19.5q3 -30 2.5 -66.5t0 -74t4 -75t14.5 -69t31 -55.5t53 -35q44 10 71 41t41.5 72.5t21 90.5t10.5 97.5t8.5 91.5t15.5 74l22 -8q-3 -140 -14 -278t-29.5 -263.5t-44.5 -233t-60.5 -185t-77 -120t-94 -38
t-112 60t-129.5 175.5zM402 755q6 11 11.5 19t11.5 15.5t12 16t12 21.5q16 31 33 46t27.5 13t10 -19.5t-20.5 -49.5q-17 -26 -37 -48t-55 -30q-3 1 -5 7t0 9z" />
    <glyph glyph-name="Thorn" unicode="&#xde;" horiz-adv-x="415" 
d="M55 -202q-1 3 -2.5 10.5t-3.5 15t-3.5 14.5t-2.5 10q-21 106 -11 215t54 204q4 11 4.5 45.5t-0.5 84t-2.5 108.5t0.5 116.5t8 108.5t21 85q7 2 12 -23t7.5 -65.5t3 -88.5t-0.5 -92.5t-3.5 -78t-5.5 -43.5q36 58 88 98t105 51q33 -4 43 -31.5t1.5 -67t-30.5 -85t-52 -86
t-64.5 -70.5t-66.5 -38l-10 -12q8 -60 12.5 -122t0.5 -117t-21 -98t-52 -65l-4 1q-3 0 -13 6.5t-12 9.5zM70 -125q3 -13 6.5 -27t15.5 -21q24 43 30 94t3.5 105.5t-8 108.5t-4.5 104q-25 -32 -38.5 -77.5t-17 -96t0 -100t12.5 -90.5zM294 525q-34 -7 -63 -37.5t-49 -72
t-29 -87t0 -82.5q23 3 51.5 27.5t55.5 58.5t47.5 71t28 67t-1 47t-40.5 8z" />
    <glyph glyph-name="germandbls" unicode="&#xdf;" horiz-adv-x="1046" 
d="M511 542q-59 -109 -98 -217.5t-63.5 -209t-40 -188.5t-29 -155.5t-27.5 -111.5t-38 -55q-31 0 -55 14t-40 36.5t-24 51t-8 54.5q23 0 29 -16.5t12 -37.5t20 -38t53 -17q12 37 30 114.5t40 176t49.5 207t60 206.5t69 174t79.5 111q28 38 69 85.5t90.5 89t104.5 70
t109 28.5q40 0 59.5 -27t19.5 -63q0 -47 -24.5 -84.5t-58 -67t-66.5 -53t-51 -41.5q34 -12 74.5 -25.5t75.5 -38t58.5 -61.5t23.5 -96q0 -34 -14.5 -74.5t-39 -80t-58 -76.5t-70.5 -64.5t-76.5 -44.5t-77.5 -17q-45 0 -89 20t-78.5 52.5t-55.5 75t-21 88.5q0 5 1 19t1 17
q8 9 15 11t17 2q6 0 15 -3.5t13 -10t0 -14t-23 -15.5q0 -40 17 -78t45 -67.5t66 -47.5t81 -18q53 0 106.5 31.5t96.5 79.5t70 106t27 110q0 44 -25.5 79.5t-64 59.5t-83.5 37t-85 13q-29 0 -56 3.5t-45.5 8t-25 10t4.5 10.5t44 7.5t93 1.5q24 16 59.5 42t70 58.5t60.5 68.5
t32 72q0 31 -17 47.5t-47 16.5q-17 0 -39 -7t-44 -18t-41.5 -24.5t-33.5 -24.5q-8 -7 -26.5 -25.5l-38.5 -38.5t-37 -38t-23 -24z" />
    <glyph glyph-name="agrave" unicode="&#xe0;" 
d="M69 -3q-36 10 -52 31.5t-17 49t12 58.5t34.5 60t49.5 52.5t59 37t63 14t61 -17.5q-10 -25 -18.5 -54.5t-12.5 -59.5t-1 -58.5t16 -50t40.5 -35t71.5 -13.5q27 4 41 11t24.5 17t21.5 23t33 29h5q-3 -34 -16 -54.5t-32.5 -32t-44 -15t-51.5 -3.5q-67 0 -106 27t-44 89
q-3 -12 -17 -31t-33.5 -36.5t-42.5 -28.5t-44 -9zM35 84q0 -11 1 -21t5 -18t11.5 -12.5t21.5 -4.5q26 1 53 25t48.5 56.5t35 68t15.5 59.5q-12 22 -38.5 23t-56.5 -18.5t-57 -59.5t-39 -98zM231 386q2 -3 0 -8.5t-4 -6.5q-30 7 -47 27.5t-33 44.5q-17 29 -17.5 45.5t8.5 18
t23.5 -12t28.5 -43.5q5 -11 10.5 -19t10.5 -14.5t10 -14t10 -17.5z" />
    <glyph glyph-name="aacute" unicode="&#xe1;" 
d="M124 357q6 12 11.5 19.5t11.5 15t12 16.5t12 21q16 32 33 46.5t27.5 12.5t10 -19t-20.5 -49q-17 -27 -37 -49t-55 -30q-3 1 -5 7t0 9zM69 -3q-36 10 -52 31.5t-17 49t12 58.5t34.5 60t49.5 52.5t59 37t63 14t61 -17.5q-10 -25 -18.5 -54.5t-12.5 -59.5t-1 -58.5t16 -50
t40.5 -35t71.5 -13.5q27 4 41 11t24.5 17t21.5 23t33 29h5q-3 -34 -16 -54.5t-32.5 -32t-44 -15t-51.5 -3.5q-67 0 -106 27t-44 89q-3 -12 -17 -31t-33.5 -36.5t-42.5 -28.5t-44 -9zM35 84q0 -11 1 -21t5 -18t11.5 -12.5t21.5 -4.5q26 1 53 25t48.5 56.5t35 68t15.5 59.5
q-12 22 -38.5 23t-56.5 -18.5t-57 -59.5t-39 -98z" />
    <glyph glyph-name="acircumflex" unicode="&#xe2;" 
d="M69 -3q-36 10 -52 31.5t-17 49t12 58.5t34.5 60t49.5 52.5t59 37t63 14t61 -17.5q-10 -25 -18.5 -54.5t-12.5 -59.5t-1 -58.5t16 -50t40.5 -35t71.5 -13.5q27 4 41 11t24.5 17t21.5 23t33 29h5q-3 -34 -16 -54.5t-32.5 -32t-44 -15t-51.5 -3.5q-67 0 -106 27t-44 89
q-3 -12 -17 -31t-33.5 -36.5t-42.5 -28.5t-44 -9zM35 84q0 -11 1 -21t5 -18t11.5 -12.5t21.5 -4.5q26 1 53 25t48.5 56.5t35 68t15.5 59.5q-12 22 -38.5 23t-56.5 -18.5t-57 -59.5t-39 -98zM272 337q-3 6 -10 22t-14 33.5t-13.5 33.5t-9.5 22q-2 4 -8.5 13.5t-8.5 12.5
q-16 -9 -30 -31t-27.5 -44t-26.5 -39.5t-29 -17.5q-6 0 -10 7q6 13 21.5 38.5t35.5 54t42 54.5t41 39q1 0 1.5 -0.5t2.5 -0.5h3q0 -19 6 -41t15 -43.5t18.5 -41t15.5 -32.5q0 -1 2.5 -5l5 -8t4.5 -8.5t2 -5.5v-1q0 -1 0.5 -1.5t0.5 -1.5q0 -5 -6 -10t-14 -5q-7 0 -10 7z" />
    <glyph glyph-name="atilde" unicode="&#xe3;" 
d="M69 -3q-36 10 -52 31.5t-17 49t12 58.5t34.5 60t49.5 52.5t59 37t63 14t61 -17.5q-10 -25 -18.5 -54.5t-12.5 -59.5t-1 -58.5t16 -50t40.5 -35t71.5 -13.5q27 4 41 11t24.5 17t21.5 23t33 29h5q-3 -34 -16 -54.5t-32.5 -32t-44 -15t-51.5 -3.5q-67 0 -106 27t-44 89
q-3 -12 -17 -31t-33.5 -36.5t-42.5 -28.5t-44 -9zM35 84q0 -11 1 -21t5 -18t11.5 -12.5t21.5 -4.5q26 1 53 25t48.5 56.5t35 68t15.5 59.5q-12 22 -38.5 23t-56.5 -18.5t-57 -59.5t-39 -98zM123 397q-20 0 -35.5 -14.5t-27.5 -28.5h-12q-2 26 7 42.5t23 25t29 9.5t24 -3
q19 0 35.5 -7.5t32 -16.5t32.5 -17t38 -8h30t25.5 5t18.5 17t7 36q0 33 -8 47t-33 14q0 14 10 16t18 2q24 0 35 -22t11 -50q0 -33 -9.5 -53t-25 -31.5t-36 -15.5t-43.5 -4q-21 0 -40 9t-36 19.5t-34.5 19.5t-35.5 9z" />
    <glyph glyph-name="adieresis" unicode="&#xe4;" 
d="M69 -3q-36 10 -52 31.5t-17 49t12 58.5t34.5 60t49.5 52.5t59 37t63 14t61 -17.5q-10 -25 -18.5 -54.5t-12.5 -59.5t-1 -58.5t16 -50t40.5 -35t71.5 -13.5q27 4 41 11t24.5 17t21.5 23t33 29h5q-3 -34 -16 -54.5t-32.5 -32t-44 -15t-51.5 -3.5q-67 0 -106 27t-44 89
q-3 -12 -17 -31t-33.5 -36.5t-42.5 -28.5t-44 -9zM35 84q0 -11 1 -21t5 -18t11.5 -12.5t21.5 -4.5q26 1 53 25t48.5 56.5t35 68t15.5 59.5q-12 22 -38.5 23t-56.5 -18.5t-57 -59.5t-39 -98zM126 428q8 0 20 -12t12 -21q-7 -25 -21.5 -26t-25 10t-10 25.5t24.5 23.5zM263 428
q8 0 20 -12t12 -21q-7 -25 -21.5 -26t-24.5 10t-9.5 25.5t23.5 23.5z" />
    <glyph glyph-name="aring" unicode="&#xe5;" 
d="M69 -3q-36 10 -52 31.5t-17 49t12 58.5t34.5 60t49.5 52.5t59 37t63 14t61 -17.5q-10 -25 -18.5 -54.5t-12.5 -59.5t-1 -58.5t16 -50t40.5 -35t71.5 -13.5q27 4 41 11t24.5 17t21.5 23t33 29h5q-3 -34 -16 -54.5t-32.5 -32t-44 -15t-51.5 -3.5q-67 0 -106 27t-44 89
q-3 -12 -17 -31t-33.5 -36.5t-42.5 -28.5t-44 -9zM35 84q0 -11 1 -21t5 -18t11.5 -12.5t21.5 -4.5q26 1 53 25t48.5 56.5t35 68t15.5 59.5q-12 22 -38.5 23t-56.5 -18.5t-57 -59.5t-39 -98zM203 286q-25 0 -44 20.5t-17 50.5q0 36 20 56.5t52 20.5q27 0 47 -13t20 -48
q0 -38 -23 -62.5t-55 -24.5zM153 356q0 -27 18 -40.5t39 -13.5q7 0 16.5 4t19 10t15.5 14.5t6 19.5q4 22 -0.5 35t-13 20t-19 9t-16.5 3q-27 0 -46 -15t-19 -46z" />
    <glyph glyph-name="ae" unicode="&#xe6;" horiz-adv-x="569" 
d="M69 -3q-36 10 -52 31.5t-17 49t12 58.5t34.5 60t49.5 52.5t59 37t63 14t61 -17.5v-1q21 29 50 47.5t64 18.5q15 0 23.5 -8.5t8.5 -23.5q0 -36 -14.5 -70t-37 -63t-50.5 -51.5t-56 -37.5q0 -1 -0.5 -4.5t-0.5 -5.5q0 -16 9.5 -28t22.5 -19.5t28.5 -12t28.5 -4.5
q40 0 70.5 8t55.5 23.5t47.5 37.5t46.5 49q8 7 9.5 11.5t2 7.5t2 5.5t8.5 7.5q8 -3 9.5 -9t1.5 -13q-7 -25 -27.5 -53.5t-49.5 -54t-64.5 -44t-71.5 -23t-70 8.5t-62 50q-11 -28 -21.5 -35t-18 3.5t-12 36.5t-5.5 66q-3 -12 -17 -31t-33.5 -36.5t-42.5 -28.5t-44 -9zM35 84
q0 -11 1 -21t5 -18t11.5 -12.5t21.5 -4.5q26 1 53 25t48.5 56.5t35 68t15.5 59.5q-12 22 -38.5 23t-56.5 -18.5t-57 -59.5t-39 -98zM395 306q-28 -1 -56.5 -18t-48 -41.5t-27 -54t4.5 -57.5q19 10 41.5 29t41.5 43t31.5 50t12.5 49z" />
    <glyph glyph-name="ccedilla" unicode="&#xe7;" horiz-adv-x="371" 
d="M382 78q-125 -56 -202.5 -69t-118.5 3t-49.5 51.5t4.5 76t42.5 78t66.5 56t75.5 10t67.5 -58.5v-4q-2 -3 -10 -10.5t-10 -9.5q-14 29 -34.5 40.5t-44 8t-46.5 -19.5t-41.5 -40t-29.5 -54.5t-11 -61.5q7 -22 27.5 -29.5t47.5 -6t59.5 9.5t64 18.5t60.5 19.5t49.5 13t30 0
t2.5 -21zM114 -220q0 17 8 32.5t29 15.5q6 0 11 -1.5t5 -7.5v-1q0 -1 -1 -2l-29 -30q-1 -1 -1 -5q0 -17 14 -27.5t28 -10.5q20 0 43.5 5.5t44 18t34 30.5t13.5 42q0 45 -27 65.5t-70 20.5q-19 0 -36.5 -6t-36.5 -6h-12q0 3 -1.5 11.5t-3.5 18.5t-3.5 18.5t-2.5 11.5
q-6 26 0 39t14.5 10t15 -20.5t-0.5 -52.5q0 -5 4.5 -5h7.5q16 0 31.5 3t32.5 3q50 0 83.5 -29t33.5 -81q0 -29 -15.5 -51.5t-39 -38t-51 -23.5t-52.5 -8h-35q-18 9 -26.5 25.5t-8.5 35.5z" />
    <glyph glyph-name="egrave" unicode="&#xe8;" horiz-adv-x="362" 
d="M0 117q-3 37 7.5 79.5t33 78t55.5 59.5t72 24q14 0 23 -8.5t9 -22.5q0 -33 -17.5 -65t-42.5 -61t-52.5 -54t-45.5 -43q0 -1 -0.5 -4.5t-0.5 -5.5q0 -16 9 -28t22.5 -19.5t29 -11.5t28.5 -4q40 0 70 7.5t55.5 23t48 37.5t46.5 49q7 8 8.5 12t2 7t2.5 5.5t9 7.5
q8 -3 9.5 -9t1.5 -12q-8 -29 -33 -61.5t-60 -59.5t-76 -43.5t-81 -11t-75 36t-58 97.5zM170 317q-25 0 -48.5 -15t-41.5 -37.5t-29 -49t-11 -47.5q0 -2 0.5 -11t1.5 -11q18 10 40.5 29.5t42 43.5t32.5 49.5t13 48.5zM144 475q2 -3 0 -8.5t-4 -6.5q-30 7 -47 27.5t-33 44.5
q-17 29 -17.5 45.5t8.5 18t23.5 -12t28.5 -43.5q5 -11 10.5 -19t10.5 -14.5t10 -14t10 -17.5z" />
    <glyph glyph-name="eacute" unicode="&#xe9;" horiz-adv-x="362" 
d="M0 117q-3 37 7.5 79.5t33 78t55.5 59.5t72 24q14 0 23 -8.5t9 -22.5q0 -33 -17.5 -65t-42.5 -61t-52.5 -54t-45.5 -43q0 -1 -0.5 -4.5t-0.5 -5.5q0 -16 9 -28t22.5 -19.5t29 -11.5t28.5 -4q40 0 70 7.5t55.5 23t48 37.5t46.5 49q7 8 8.5 12t2 7t2.5 5.5t9 7.5
q8 -3 9.5 -9t1.5 -12q-8 -29 -33 -61.5t-60 -59.5t-76 -43.5t-81 -11t-75 36t-58 97.5zM170 317q-25 0 -48.5 -15t-41.5 -37.5t-29 -49t-11 -47.5q0 -2 0.5 -11t1.5 -11q18 10 40.5 29.5t42 43.5t32.5 49.5t13 48.5zM90 420q6 11 11.5 19t11.5 15.5t12 16t12 21.5
q16 31 33 46t27.5 13t10 -19.5t-20.5 -49.5q-17 -26 -37 -48t-55 -30q-3 1 -5 7t0 9z" />
    <glyph glyph-name="ecircumflex" unicode="&#xea;" horiz-adv-x="362" 
d="M0 117q-3 37 7.5 79.5t33 78t55.5 59.5t72 24q14 0 23 -8.5t9 -22.5q0 -33 -17.5 -65t-42.5 -61t-52.5 -54t-45.5 -43q0 -1 -0.5 -4.5t-0.5 -5.5q0 -16 9 -28t22.5 -19.5t29 -11.5t28.5 -4q40 0 70 7.5t55.5 23t48 37.5t46.5 49q7 8 8.5 12t2 7t2.5 5.5t9 7.5
q8 -3 9.5 -9t1.5 -12q-8 -29 -33 -61.5t-60 -59.5t-76 -43.5t-81 -11t-75 36t-58 97.5zM170 317q-25 0 -48.5 -15t-41.5 -37.5t-29 -49t-11 -47.5q0 -2 0.5 -11t1.5 -11q18 10 40.5 29.5t42 43.5t32.5 49.5t13 48.5zM225 415q-3 6 -10 22t-14 33.5t-13.5 33.5t-9.5 22
q-2 4 -8.5 13.5t-8.5 12.5q-16 -9 -30 -31t-27.5 -44t-26.5 -39.5t-29 -17.5q-6 0 -10 7q6 13 21.5 38.5t35.5 54t42 54.5t41 39q1 0 1.5 -0.5t2.5 -0.5h3q0 -19 6 -41t15 -43.5t18.5 -41t15.5 -32.5q0 -1 2.5 -5l5 -8t4.5 -8.5t2 -5.5v-1q0 -1 0.5 -1.5t0.5 -1.5
q0 -5 -6 -10t-14 -5q-7 0 -10 7z" />
    <glyph glyph-name="edieresis" unicode="&#xeb;" horiz-adv-x="362" 
d="M0 117q-3 37 7.5 79.5t33 78t55.5 59.5t72 24q14 0 23 -8.5t9 -22.5q0 -33 -17.5 -65t-42.5 -61t-52.5 -54t-45.5 -43q0 -1 -0.5 -4.5t-0.5 -5.5q0 -16 9 -28t22.5 -19.5t29 -11.5t28.5 -4q40 0 70 7.5t55.5 23t48 37.5t46.5 49q7 8 8.5 12t2 7t2.5 5.5t9 7.5
q8 -3 9.5 -9t1.5 -12q-8 -29 -33 -61.5t-60 -59.5t-76 -43.5t-81 -11t-75 36t-58 97.5zM170 317q-25 0 -48.5 -15t-41.5 -37.5t-29 -49t-11 -47.5q0 -2 0.5 -11t1.5 -11q18 10 40.5 29.5t42 43.5t32.5 49.5t13 48.5zM77 492q8 0 20 -12t12 -21q-7 -25 -21.5 -26t-25 10
t-10 25.5t24.5 23.5zM214 492q8 0 20 -12t12 -21q-7 -25 -21.5 -26t-24.5 10t-9.5 25.5t23.5 23.5z" />
    <glyph glyph-name="igrave" unicode="&#xec;" horiz-adv-x="230" 
d="M15 238q-9 -86 -7.5 -135t10 -73.5t22 -32t28.5 -12.5q27 -10 63 -3.5t67 18t51.5 25.5t17 19t-36.5 -2t-109 -37q-23 0 -39 8.5t-26.5 22t-15 31.5t-4.5 36q0 53 11 100.5t31 96.5q2 14 -4.5 18.5t-16.5 4.5t-17 -13t-12 -28.5t-8.5 -28.5t-4.5 -15zM143 426
q2 -3 0 -8.5t-4 -6.5q-29 7 -46.5 27.5t-33.5 44.5q-17 29 -17.5 45.5t8.5 18t23.5 -12t28.5 -42.5q6 -12 11 -20t10 -14.5t10 -14t10 -17.5z" />
    <glyph glyph-name="iacute" unicode="&#xed;" horiz-adv-x="230" 
d="M15 238q1 2 4.5 15t8.5 28.5t12 28.5t17 13t16.5 -4.5t4.5 -18.5q-20 -49 -31 -96.5t-11 -100.5q0 -18 4.5 -36t15 -31.5t26.5 -22t39 -8.5q76 30 109 37t36.5 2t-17 -19t-51.5 -25.5t-67 -18t-63 3.5q-15 5 -28.5 12.5t-22 32t-10 73.5t7.5 135zM28 451q6 11 11.5 18.5
t11 15.5t12 16.5t12.5 20.5q16 32 33 47t27 13t9.5 -19.5t-19.5 -49.5q-17 -27 -37 -49t-55 -30q-3 1 -5 7t0 10z" />
    <glyph glyph-name="icircumflex" unicode="&#xee;" horiz-adv-x="230" 
d="M15 238q1 2 4.5 15t8.5 28.5t12 28.5t17 13t16.5 -4.5t4.5 -18.5q-20 -49 -31 -96.5t-11 -100.5q0 -18 4.5 -36t15 -31.5t26.5 -22t39 -8.5q76 30 109 37t36.5 2t-17 -19t-51.5 -25.5t-67 -18t-63 3.5q-15 5 -28.5 12.5t-22 32t-10 73.5t7.5 135zM173 438q-3 6 -9.5 22
t-14 33.5t-14 33.5t-9.5 22q-1 4 -7.5 13.5t-8.5 12.5q-17 -9 -30.5 -31l-27 -44t-27 -39.5t-28.5 -17.5q-6 0 -10 8q6 12 21.5 37.5t35 54t42 55t40.5 38.5q1 0 1.5 -0.5t2.5 -0.5h3q0 -19 6 -41t15.5 -43.5t18.5 -41l15 -32.5q0 -1 3 -5t5.5 -8t4.5 -8t2 -5v-1
q0 -1 0.5 -2t0.5 -2q0 -5 -6.5 -10t-14.5 -5q-7 0 -10 7z" />
    <glyph glyph-name="idieresis" unicode="&#xef;" horiz-adv-x="230" 
d="M15 238q1 2 4.5 15t8.5 28.5t12 28.5t17 13t16.5 -4.5t4.5 -18.5q-20 -49 -31 -96.5t-11 -100.5q0 -18 4.5 -36t15 -31.5t26.5 -22t39 -8.5q76 30 109 37t36.5 2t-17 -19t-51.5 -25.5t-67 -18t-63 3.5q-15 5 -28.5 12.5t-22 32t-10 73.5t7.5 135zM28 498q8 0 19.5 -12
t11.5 -21q-7 -25 -21 -26t-24.5 10t-10 25.5t24.5 23.5zM165 498q8 0 20 -12t12 -21q-8 -25 -22 -26t-24.5 10t-10 25.5t24.5 23.5z" />
    <glyph glyph-name="eth" unicode="&#xf0;" horiz-adv-x="324" 
d="M150 351q8 15 15.5 24.5t15.5 20.5l-45 55q-9 21 -6 30t14.5 7.5t28.5 -12.5t37 -30q15 23 29 31t21.5 3.5t5.5 -21.5t-19 -45q-2 -2 -2 -3t-2 -3q20 -28 36.5 -61.5t22 -69.5t-2 -74t-35.5 -74q-18 -20 -40 -44t-47 -44.5t-53.5 -34t-60.5 -13.5q-20 0 -32.5 8
t-18.5 21.5t-7.5 30.5t-1.5 34q23 75 50 118t59.5 63.5t70.5 25t81 4.5l-56 66q-11 -11 -23.5 -18t-29.5 -11q-3 1 -5.5 7t0.5 9zM43 77q0 -8 1.5 -17.5t5 -17.5t10 -13t15.5 -5q20 0 51 19t59.5 47t49 58.5t20.5 54.5q0 28 -11.5 41t-38.5 13q-33 0 -62 -17t-51.5 -43
t-35.5 -57.5t-13 -62.5z" />
    <glyph glyph-name="ntilde" unicode="&#xf1;" horiz-adv-x="479" 
d="M253 99q0 28 0.5 48t0.5 38t0.5 38t0.5 47q-19 -4 -42.5 -26.5t-45.5 -49t-40 -50.5t-28 -31q-4 -5 -13.5 -16.5t-21 -25t-21 -25t-12.5 -15.5q-7 -9 -13.5 -11t-18.5 -2v24l48 155q0 34 6.5 63t15.5 46.5t17 20t13 -14.5q1 -5 1 -18.5v-18.5q0 -17 -3.5 -33.5
t-7.5 -33.5t-7.5 -35t-3.5 -40q7 7 22 25t31.5 38t31.5 37.5t22 24.5q9 7 19.5 17.5t23 19.5t26 15t27.5 6q7 0 12.5 -1.5t8.5 -9.5q3 -34 1 -60t-6 -50t-7.5 -49.5t-4.5 -58.5q0 -24 8.5 -38.5t34.5 -14.5q33 0 59 16.5t47.5 40t41 48.5t41.5 43v-11q0 -28 -20 -57.5
t-50 -54t-64 -40.5t-61 -16h-36q-15 10 -21.5 20.5t-9 21.5t-2.5 24.5v29.5zM144 489q-20 0 -35.5 -14.5t-27.5 -28.5h-12q-2 26 7 42.5t23 25t29 9.5t24 -3q19 0 35.5 -7.5t32 -16.5t32.5 -17t38 -8h30t25.5 5t18.5 17t7 36q0 33 -8 47t-33 14q0 14 10 16t18 2q24 0 35 -22
t11 -50q0 -33 -9.5 -53t-25 -31.5t-36 -15.5t-43.5 -4q-21 0 -40 9t-36 19.5t-34.5 19.5t-35.5 9z" />
    <glyph glyph-name="ograve" unicode="&#xf2;" horiz-adv-x="427" 
d="M2 99q0 26 11.5 60t31.5 64t47 51t59 21q12 0 20.5 -3.5t14.5 -19.5q-29 -9 -56.5 -25.5t-48.5 -38t-33.5 -49t-12.5 -60.5q0 -13 1 -25t5.5 -21t13 -14.5t23.5 -5.5q39 0 62.5 11.5t45.5 38.5q-10 17 -10.5 35.5t-0.5 37.5t4 50t14.5 59.5t27.5 49.5t43 21
q15 0 27.5 -4.5t20.5 -17.5q0 -3 0.5 -8.5t0.5 -12t0.5 -13t0.5 -8.5q0 -24 -3.5 -43t-10.5 -37t-17.5 -36.5t-22.5 -40.5q2 0 11 -0.5t11 -0.5q23 0 48 6t49.5 15t48 20.5t43.5 21.5l9 -10q-52 -42 -118.5 -66t-132.5 -28l-98 -60q-12 -10 -31.5 -10.5t-32.5 -0.5
q-22 0 -34.5 8t-19.5 21.5t-9 31t-2 36.5zM207 161q0 -2 -0.5 -8t0.5 -12t3 -10.5t8 -5.5q16 10 28.5 25.5t20.5 34t12 38t4 37.5q0 1 0.5 7t0 14t-3 14.5t-9.5 7.5q-15 -9 -27.5 -26t-20.5 -37t-12 -40.5t-4 -38.5zM260 437q2 -3 0 -8.5t-4 -6.5q-30 7 -47 27.5t-33 44.5
q-17 29 -17.5 45.5t8.5 18t23.5 -12t28.5 -43.5q5 -11 10.5 -19t10.5 -14.5t10 -14t10 -17.5z" />
    <glyph glyph-name="oacute" unicode="&#xf3;" horiz-adv-x="427" 
d="M2 99q0 26 11.5 60t31.5 64t47 51t59 21q12 0 20.5 -3.5t14.5 -19.5q-29 -9 -56.5 -25.5t-48.5 -38t-33.5 -49t-12.5 -60.5q0 -13 1 -25t5.5 -21t13 -14.5t23.5 -5.5q39 0 62.5 11.5t45.5 38.5q-10 17 -10.5 35.5t-0.5 37.5t4 50t14.5 59.5t27.5 49.5t43 21
q15 0 27.5 -4.5t20.5 -17.5q0 -3 0.5 -8.5t0.5 -12t0.5 -13t0.5 -8.5q0 -24 -3.5 -43t-10.5 -37t-17.5 -36.5t-22.5 -40.5q2 0 11 -0.5t11 -0.5q23 0 48 6t49.5 15t48 20.5t43.5 21.5l9 -10q-52 -42 -118.5 -66t-132.5 -28l-98 -60q-12 -10 -31.5 -10.5t-32.5 -0.5
q-22 0 -34.5 8t-19.5 21.5t-9 31t-2 36.5zM207 161q0 -2 -0.5 -8t0.5 -12t3 -10.5t8 -5.5q16 10 28.5 25.5t20.5 34t12 38t4 37.5q0 1 0.5 7t0 14t-3 14.5t-9.5 7.5q-15 -9 -27.5 -26t-20.5 -37t-12 -40.5t-4 -38.5zM129 389q6 11 11.5 19t11.5 15.5t12 16t12 21.5
q16 31 33 46t27.5 13t10 -19.5t-20.5 -49.5q-17 -26 -37 -48t-55 -30q-3 1 -5 7t0 9z" />
    <glyph glyph-name="ocircumflex" unicode="&#xf4;" horiz-adv-x="427" 
d="M2 99q0 26 11.5 60t31.5 64t47 51t59 21q12 0 20.5 -3.5t14.5 -19.5q-29 -9 -56.5 -25.5t-48.5 -38t-33.5 -49t-12.5 -60.5q0 -13 1 -25t5.5 -21t13 -14.5t23.5 -5.5q39 0 62.5 11.5t45.5 38.5q-10 17 -10.5 35.5t-0.5 37.5t4 50t14.5 59.5t27.5 49.5t43 21
q15 0 27.5 -4.5t20.5 -17.5q0 -3 0.5 -8.5t0.5 -12t0.5 -13t0.5 -8.5q0 -24 -3.5 -43t-10.5 -37t-17.5 -36.5t-22.5 -40.5q2 0 11 -0.5t11 -0.5q23 0 48 6t49.5 15t48 20.5t43.5 21.5l9 -10q-52 -42 -118.5 -66t-132.5 -28l-98 -60q-12 -10 -31.5 -10.5t-32.5 -0.5
q-22 0 -34.5 8t-19.5 21.5t-9 31t-2 36.5zM207 161q0 -2 -0.5 -8t0.5 -12t3 -10.5t8 -5.5q16 10 28.5 25.5t20.5 34t12 38t4 37.5q0 1 0.5 7t0 14t-3 14.5t-9.5 7.5q-15 -9 -27.5 -26t-20.5 -37t-12 -40.5t-4 -38.5zM277 408q-3 6 -10 22t-14 33.5t-13.5 33.5t-9.5 22
q-2 4 -8.5 13.5t-8.5 12.5q-16 -9 -30 -31t-27.5 -44t-26.5 -39.5t-29 -17.5q-6 0 -10 7q6 13 21.5 38.5t35.5 54t42 54.5t41 39q1 0 1.5 -0.5t2.5 -0.5h3q0 -19 6 -41t15 -43.5t18.5 -41t15.5 -32.5q0 -1 2.5 -5l5 -8t4.5 -8.5t2 -5.5v-1q0 -1 0.5 -1.5t0.5 -1.5
q0 -5 -6 -10t-14 -5q-7 0 -10 7z" />
    <glyph glyph-name="otilde" unicode="&#xf5;" horiz-adv-x="427" 
d="M2 99q0 26 11.5 60t31.5 64t47 51t59 21q12 0 20.5 -3.5t14.5 -19.5q-29 -9 -56.5 -25.5t-48.5 -38t-33.5 -49t-12.5 -60.5q0 -13 1 -25t5.5 -21t13 -14.5t23.5 -5.5q39 0 62.5 11.5t45.5 38.5q-10 17 -10.5 35.5t-0.5 37.5t4 50t14.5 59.5t27.5 49.5t43 21
q15 0 27.5 -4.5t20.5 -17.5q0 -3 0.5 -8.5t0.5 -12t0.5 -13t0.5 -8.5q0 -24 -3.5 -43t-10.5 -37t-17.5 -36.5t-22.5 -40.5q2 0 11 -0.5t11 -0.5q23 0 48 6t49.5 15t48 20.5t43.5 21.5l9 -10q-52 -42 -118.5 -66t-132.5 -28l-98 -60q-12 -10 -31.5 -10.5t-32.5 -0.5
q-22 0 -34.5 8t-19.5 21.5t-9 31t-2 36.5zM207 161q0 -2 -0.5 -8t0.5 -12t3 -10.5t8 -5.5q16 10 28.5 25.5t20.5 34t12 38t4 37.5q0 1 0.5 7t0 14t-3 14.5t-9.5 7.5q-15 -9 -27.5 -26t-20.5 -37t-12 -40.5t-4 -38.5zM125 463q-20 0 -35.5 -14.5t-27.5 -28.5h-12
q-2 26 7 42.5t23 25t29 9.5t24 -3q19 0 35.5 -7.5t32 -16.5t32.5 -17t38 -8h30t25.5 5t18.5 17t7 36q0 33 -8 47t-33 14q0 14 10 16t18 2q24 0 35 -22t11 -50q0 -33 -9.5 -53t-25 -31.5t-36 -15.5t-43.5 -4q-21 0 -40 9t-36 19.5t-34.5 19.5t-35.5 9z" />
    <glyph glyph-name="odieresis" unicode="&#xf6;" horiz-adv-x="427" 
d="M2 99q0 26 11.5 60t31.5 64t47 51t59 21q12 0 20.5 -3.5t14.5 -19.5q-29 -9 -56.5 -25.5t-48.5 -38t-33.5 -49t-12.5 -60.5q0 -13 1 -25t5.5 -21t13 -14.5t23.5 -5.5q39 0 62.5 11.5t45.5 38.5q-10 17 -10.5 35.5t-0.5 37.5t4 50t14.5 59.5t27.5 49.5t43 21
q15 0 27.5 -4.5t20.5 -17.5q0 -3 0.5 -8.5t0.5 -12t0.5 -13t0.5 -8.5q0 -24 -3.5 -43t-10.5 -37t-17.5 -36.5t-22.5 -40.5q2 0 11 -0.5t11 -0.5q23 0 48 6t49.5 15t48 20.5t43.5 21.5l9 -10q-52 -42 -118.5 -66t-132.5 -28l-98 -60q-12 -10 -31.5 -10.5t-32.5 -0.5
q-22 0 -34.5 8t-19.5 21.5t-9 31t-2 36.5zM207 161q0 -2 -0.5 -8t0.5 -12t3 -10.5t8 -5.5q16 10 28.5 25.5t20.5 34t12 38t4 37.5q0 1 0.5 7t0 14t-3 14.5t-9.5 7.5q-15 -9 -27.5 -26t-20.5 -37t-12 -40.5t-4 -38.5zM148 471q8 0 20 -12t12 -21q-7 -25 -21.5 -26t-25 10
t-10 25.5t24.5 23.5zM285 471q8 0 20 -12t12 -21q-7 -25 -21.5 -26t-24.5 10t-9.5 25.5t23.5 23.5z" />
    <glyph glyph-name="divide" unicode="&#xf7;" horiz-adv-x="561" 
d="M76 299q12 1 37 2t57.5 2t67.5 2t67.5 2t57.5 2t37 1q7 0 23.5 0.5t35.5 0.5h36h23q0 -3 -1 -8t-2.5 -10.5t-3.5 -9.5t-5 -4h-430v20zM252 170q-6 6 -5 15t5.5 16.5t11 13t11.5 5.5q19 0 34.5 -6.5t15.5 -20.5q0 -17 -15 -29.5t-43 -12.5q-2 0 -6 6.5t-9 12.5zM269 460
q24 0 30 -7t6 -19q-2 -18 -17 -26t-28.5 -6t-19.5 13.5t10 31.5q2 3 8 8t11 5z" />
    <glyph glyph-name="oslash" unicode="&#xf8;" horiz-adv-x="427" 
d="M2 99q0 26 11.5 60t31.5 64t47 51t59 21q12 0 20.5 -3.5t14.5 -19.5q-29 -9 -56.5 -25.5t-48.5 -38t-33.5 -49t-12.5 -60.5q0 -13 1 -25t5.5 -21t13 -14.5t23.5 -5.5q39 0 62.5 11.5t45.5 38.5q-10 17 -10.5 35.5t-0.5 37.5t4 50t14.5 59.5t27.5 49.5t43 21
q15 0 27.5 -4.5t20.5 -17.5q0 -3 0.5 -8.5t0.5 -12t0.5 -13t0.5 -8.5q0 -24 -3.5 -43t-10.5 -37t-17.5 -36.5t-22.5 -40.5q2 0 11 -0.5t11 -0.5q23 0 48 6t49.5 15t48 20.5t43.5 21.5l9 -10q-52 -42 -118.5 -66t-132.5 -28l-98 -60q-12 -10 -31.5 -10.5t-32.5 -0.5
q-22 0 -34.5 8t-19.5 21.5t-9 31t-2 36.5zM207 161q0 -2 -0.5 -8t0.5 -12t3 -10.5t8 -5.5q16 10 28.5 25.5t20.5 34t12 38t4 37.5q0 1 0.5 7t0 14t-3 14.5t-9.5 7.5q-15 -9 -27.5 -26t-20.5 -37t-12 -40.5t-4 -38.5zM-45 -25q-1 1 0.5 3.5t11.5 16.5t33.5 44.5t69 85
t117 135.5t176.5 199l3 2q3 -1 3.5 0t3.5 1q6 1 16.5 -1t6.5 -17q0 -2 -3 -8.5t-7.5 -11t-8 -10t-6.5 -6.5q-53 -49 -105.5 -103.5t-102 -111.5t-97 -117.5t-86.5 -119.5q0 -2 -1 -2l-3 -1q-9 -1 -14.5 5.5t-6.5 16.5z" />
    <glyph glyph-name="ugrave" unicode="&#xf9;" horiz-adv-x="421" 
d="M95 289q11 -22 4 -49t-20.5 -57.5t-28.5 -64.5t-19 -70q0 -20 9.5 -23t28.5 -3q22 0 44 13.5t42 36t36.5 51t28 56t18.5 52.5t7 41l6 7q2 2 3.5 4.5t2.5 2.5q4 0 9.5 -2.5t5.5 -9.5q-17 -92 -14 -141.5t18 -72.5t36 -26t39 -2q68 33 92.5 37t18.5 -6.5t-37 -27.5t-74 -24
q-65 0 -97 33.5t-24 103.5q-14 -28 -26.5 -57t-30 -51.5t-44.5 -36t-68 -13.5q-23 2 -40 14t-17.5 45t20 90.5t71.5 149.5zM216 406q2 -3 0 -8.5t-4 -6.5q-30 7 -47 27.5t-33 44.5q-17 29 -17.5 45.5t8.5 18t23.5 -12t28.5 -43.5q5 -11 10.5 -19t10.5 -14.5t10 -14t10 -17.5
z" />
    <glyph glyph-name="uacute" unicode="&#xfa;" horiz-adv-x="421" 
d="M95 289q11 -22 4 -49t-20.5 -57.5t-28.5 -64.5t-19 -70q0 -20 9.5 -23t28.5 -3q22 0 44 13.5t42 36t36.5 51t28 56t18.5 52.5t7 41l6 7q2 2 3.5 4.5t2.5 2.5q4 0 9.5 -2.5t5.5 -9.5q-17 -92 -14 -141.5t18 -72.5t36 -26t39 -2q68 33 92.5 37t18.5 -6.5t-37 -27.5t-74 -24
q-65 0 -97 33.5t-24 103.5q-14 -28 -26.5 -57t-30 -51.5t-44.5 -36t-68 -13.5q-23 2 -40 14t-17.5 45t20 90.5t71.5 149.5zM160 386q6 11 11.5 19t11.5 15.5t12 16t12 21.5q16 31 33 46t27.5 13t10 -19.5t-20.5 -49.5q-17 -26 -37 -48t-55 -30q-3 1 -5 7t0 9z" />
    <glyph glyph-name="ucircumflex" unicode="&#xfb;" horiz-adv-x="421" 
d="M95 289q11 -22 4 -49t-20.5 -57.5t-28.5 -64.5t-19 -70q0 -20 9.5 -23t28.5 -3q22 0 44 13.5t42 36t36.5 51t28 56t18.5 52.5t7 41l6 7q2 2 3.5 4.5t2.5 2.5q4 0 9.5 -2.5t5.5 -9.5q-17 -92 -14 -141.5t18 -72.5t36 -26t39 -2q68 33 92.5 37t18.5 -6.5t-37 -27.5t-74 -24
q-65 0 -97 33.5t-24 103.5q-14 -28 -26.5 -57t-30 -51.5t-44.5 -36t-68 -13.5q-23 2 -40 14t-17.5 45t20 90.5t71.5 149.5zM277 354q-3 6 -10 22t-14 33.5t-13.5 33.5t-9.5 22q-2 4 -8.5 13.5t-8.5 12.5q-16 -9 -30 -31t-27.5 -44t-26.5 -39.5t-29 -17.5q-6 0 -10 7
q6 13 21.5 38.5t35.5 54t42 54.5t41 39q1 0 1.5 -0.5t2.5 -0.5h3q0 -19 6 -41t15 -43.5t18.5 -41t15.5 -32.5q0 -1 2.5 -5l5 -8t4.5 -8.5t2 -5.5v-1q0 -1 0.5 -1.5t0.5 -1.5q0 -5 -6 -10t-14 -5q-7 0 -10 7z" />
    <glyph glyph-name="udieresis" unicode="&#xfc;" horiz-adv-x="421" 
d="M95 289q11 -22 4 -49t-20.5 -57.5t-28.5 -64.5t-19 -70q0 -20 9.5 -23t28.5 -3q22 0 44 13.5t42 36t36.5 51t28 56t18.5 52.5t7 41l6 7q2 2 3.5 4.5t2.5 2.5q4 0 9.5 -2.5t5.5 -9.5q-17 -92 -14 -141.5t18 -72.5t36 -26t39 -2q68 33 92.5 37t18.5 -6.5t-37 -27.5t-74 -24
q-65 0 -97 33.5t-24 103.5q-14 -28 -26.5 -57t-30 -51.5t-44.5 -36t-68 -13.5q-23 2 -40 14t-17.5 45t20 90.5t71.5 149.5zM120 440q8 0 20 -12t12 -21q-7 -25 -21.5 -26t-25 10t-10 25.5t24.5 23.5zM257 440q8 0 20 -12t12 -21q-7 -25 -21.5 -26t-24.5 10t-9.5 25.5
t23.5 23.5z" />
    <glyph glyph-name="yacute" unicode="&#xfd;" horiz-adv-x="351" 
d="M-22 -433q0 48 18 104t47.5 111t64.5 106t71 87q10 21 9.5 48t1.5 57q-11 -14 -24.5 -29t-29.5 -27.5t-34 -20.5t-39 -8q-39 -2 -49 71.5t20 219.5q2 2 10 6t10 4q6 0 9 -5t3.5 -12t0 -12.5l-0.5 -5.5q0 -15 -4 -40t-8 -52.5t-7.5 -53t-3.5 -40.5v-24t2.5 -14.5t9.5 -8
t22 -1.5q38 0 63 28t41.5 67.5t25.5 80.5t14 66q11 6 20.5 -0.5t11.5 -9.5v-5q0 -29 -5 -57.5t-11 -58t-11 -62t-5 -69.5q10 7 29 19t40 25.5t40 25t28 19.5q4 3 10.5 9.5t8 6t-3.5 -12.5t-24 -45q-5 -4 -20.5 -17.5t-33 -29t-33.5 -29t-20 -17.5q-22 -46 -30.5 -98.5
t-13.5 -104.5t-11.5 -98.5t-23.5 -81t-49 -53t-88 -12.5q-25 0 -36.5 16t-11.5 38zM11 -409q0 -18 7.5 -32.5t29.5 -14.5q30 -1 50.5 17.5t33.5 49.5t21 70t12.5 80t7.5 80.5t6 70.5l-2 1h-2q-11 0 -28 -18.5t-35.5 -48t-36.5 -66t-32 -72.5t-23 -67t-9 -50zM111 375
q6 11 11.5 19t11.5 15.5t12 16t12 21.5q16 31 33 46t27.5 13t10 -19.5t-20.5 -49.5q-17 -26 -37 -48t-55 -30q-3 1 -5 7t0 9z" />
    <glyph glyph-name="thorn" unicode="&#xfe;" horiz-adv-x="415" 
d="M57 301q4 10 3.5 40t-2.5 71.5t-4.5 90.5t-1.5 98.5t6 95t20 79.5q7 2 12 -18t8 -52t4.5 -71t1 -75.5t-3 -64.5t-5.5 -38q36 58 88.5 98t104.5 51q40 -13 59.5 -46.5t20.5 -76t-16 -88t-49.5 -84.5t-79.5 -65t-107 -29q6 -121 5.5 -199.5t-8 -108t-20 -5t-31.5 109.5z
M259 558q-34 -7 -62 -38t-47 -72t-26.5 -86.5t0.5 -81.5q29 -13 55.5 -5.5t50 27t42 48t30.5 59t17.5 60.5t0.5 52t-19.5 33t-41.5 4z" />
    <glyph glyph-name="ydieresis" unicode="&#xff;" horiz-adv-x="351" 
d="M-22 -433q0 48 18 104t47.5 111t64.5 106t71 87q10 21 9.5 48t1.5 57q-11 -14 -24.5 -29t-29.5 -27.5t-34 -20.5t-39 -8q-39 -2 -49 71.5t20 219.5q2 2 10 6t10 4q6 0 9 -5t3.5 -12t0 -12.5l-0.5 -5.5q0 -15 -4 -40t-8 -52.5t-7.5 -53t-3.5 -40.5v-24t2.5 -14.5t9.5 -8
t22 -1.5q38 0 63 28t41.5 67.5t25.5 80.5t14 66q11 6 20.5 -0.5t11.5 -9.5v-5q0 -29 -5 -57.5t-11 -58t-11 -62t-5 -69.5q10 7 29 19t40 25.5t40 25t28 19.5q4 3 10.5 9.5t8 6t-3.5 -12.5t-24 -45q-5 -4 -20.5 -17.5t-33 -29t-33.5 -29t-20 -17.5q-22 -46 -30.5 -98.5
t-13.5 -104.5t-11.5 -98.5t-23.5 -81t-49 -53t-88 -12.5q-25 0 -36.5 16t-11.5 38zM11 -409q0 -18 7.5 -32.5t29.5 -14.5q30 -1 50.5 17.5t33.5 49.5t21 70t12.5 80t7.5 80.5t6 70.5l-2 1h-2q-11 0 -28 -18.5t-35.5 -48t-36.5 -66t-32 -72.5t-23 -67t-9 -50zM81 437
q8 0 20 -12t12 -21q-7 -25 -21.5 -26t-25 10t-10 25.5t24.5 23.5zM218 437q8 0 20 -12t12 -21q-7 -25 -21.5 -26t-24.5 10t-9.5 25.5t23.5 23.5z" />
    <glyph glyph-name="Abreve" unicode="&#x102;" horiz-adv-x="749" 
d="M622 299q-27 2 -58.5 9t-64.5 15t-66 14.5t-60 7.5q-22 -22 -43 -54.5t-43.5 -68t-46.5 -69.5t-50.5 -61t-55.5 -44t-61 -17h-11t-16 0.5t-15 0.5h-11q-11 7 -11 16t11 15q31 -8 63 4.5t62.5 37t59 58t54 69.5t46.5 71t36 63q-3 1 -8.5 5.5t-12.5 9.5t-13 9.5t-8 6.5
q-8 7 -24.5 22.5t-34 33t-31 34t-16.5 26.5q0 9 4 13.5t10 6.5t13.5 2h16.5q25 0 50 -7t49.5 -15t49.5 -14.5t50 -6.5q19 24 38 67t37.5 90.5t38 91t38.5 69.5q19 33 28.5 41t12.5 4.5t2 -12.5t-1 -13q1 -13 3 -50.5t4 -86.5t4.5 -103.5t5.5 -102.5t5 -81t4 -40h11
q44 21 68 28t31.5 4t2 -13t-20.5 -22t-36.5 -23t-44.5 -16q-3 -21 -2 -54.5t5 -73t9.5 -82t11 -83t9 -74.5t5.5 -56q0 -6 -1 -8t-3 -2.5t-6.5 -1t-11.5 -4.5q-14 52 -20.5 102.5t-10.5 102t-10 104t-20 105.5zM403 376q43 -11 85.5 -16t66.5 -12q-13 18 -39.5 44t-70.5 47
q-8 -11 -21.5 -28.5t-20.5 -34.5zM616 355q1 38 -0.5 94.5t-3.5 116t-5 112t-6 82.5l-129 -289zM278 502q-24 4 -28 -4t4.5 -21.5t26 -29.5t37 -28.5t37.5 -19.5t28 -2q5 5 8 11t5.5 13t6.5 16.5t12 22.5q-7 3 -26.5 9t-41.5 12.5t-41.5 12.5t-27.5 8zM730 1039q5 5 16 5
t19 -3.5t8 -8.5q0 -1 -0.5 -1t-0.5 -1v-1q-25 -47 -54 -73.5t-57.5 -36t-56.5 -4t-53.5 21t-46 39.5t-34.5 53q1 1 6.5 3.5t12 4.5t12 3.5t8.5 1.5q7 -10 19.5 -24t29 -26t36.5 -20t42.5 -5t46 19.5t47.5 52.5z" />
    <glyph glyph-name="abreve" unicode="&#x103;" 
d="M69 -3q-36 10 -52 31.5t-17 49t12 58.5t34.5 60t49.5 52.5t59 37t63 14t61 -17.5q-10 -25 -18.5 -54.5t-12.5 -59.5t-1 -58.5t16 -50t40.5 -35t71.5 -13.5q27 4 41 11t24.5 17t21.5 23t33 29h5q-3 -34 -16 -54.5t-32.5 -32t-44 -15t-51.5 -3.5q-67 0 -106 27t-44 89
q-3 -12 -17 -31t-33.5 -36.5t-42.5 -28.5t-44 -9zM35 84q0 -11 1 -21t5 -18t11.5 -12.5t21.5 -4.5q26 1 53 25t48.5 56.5t35 68t15.5 59.5q-12 22 -38.5 23t-56.5 -18.5t-57 -59.5t-39 -98zM323 524q5 5 16 5t19 -3.5t8 -8.5q0 -1 -0.5 -1t-0.5 -1v-1q-25 -47 -54 -73.5
t-57.5 -36t-56.5 -4t-53.5 21t-46 39.5t-34.5 53q1 1 6.5 3.5t12 4.5t12 3.5t8.5 1.5q7 -10 19.5 -24t29 -26t36.5 -20t42.5 -5t46 19.5t47.5 52.5z" />
    <glyph glyph-name="Cacute" unicode="&#x106;" horiz-adv-x="488" 
d="M27 178q-9 38 -2.5 99.5t24.5 132t45.5 144.5t62 135.5t74.5 103t83 49.5q12 0 20 -2t17 -11q8 -8 20.5 -21t23.5 -34.5t17.5 -52t2.5 -70.5q-1 -6 -6 -8.5t-10 -2.5h-3q-1 0 -2 1q-1 18 -3.5 45.5t-10.5 53t-25 43.5t-46 18q-24 0 -53 -30.5t-56.5 -78.5t-53.5 -107.5
t-45.5 -116.5t-31.5 -106.5t-12 -77.5q0 -33 9.5 -75t28.5 -79t48.5 -62.5t71.5 -25.5q43 0 83 24t72.5 60t55.5 78.5t31 79.5q9 -2 10.5 -11t1.5 -16q0 -2 -0.5 -7.5t-1.5 -7.5q-11 -35 -35.5 -77t-58.5 -79t-74.5 -61.5t-83.5 -24.5q-37 0 -67 16.5t-54 42t-41 57
t-26 62.5zM261 899q6 11 11.5 19t11.5 15.5t12 16t12 21.5q16 31 33 46t27.5 13t10 -19.5t-20.5 -49.5q-17 -26 -37 -48t-55 -30q-3 1 -5 7t0 9z" />
    <glyph glyph-name="cacute" unicode="&#x107;" horiz-adv-x="371" 
d="M382 78q-125 -56 -202.5 -69t-118.5 3t-49.5 51.5t4.5 76t42.5 78t66.5 56t75.5 10t67.5 -58.5v-4q-2 -3 -10 -10.5t-10 -9.5q-14 29 -34.5 40.5t-44 8t-46.5 -19.5t-41.5 -40t-29.5 -54.5t-11 -61.5q7 -22 27.5 -29.5t47.5 -6t59.5 9.5t64 18.5t60.5 19.5t49.5 13t30 0
t2.5 -21zM89 349q6 11 11.5 19t11.5 15.5t12 16t12 21.5q16 31 33 46t27.5 13t10 -19.5t-20.5 -49.5q-17 -26 -37 -48t-55 -30q-3 1 -5 7t0 9z" />
    <glyph glyph-name="Ccaron" unicode="&#x10c;" horiz-adv-x="488" 
d="M27 178q-9 38 -2.5 99.5t24.5 132t45.5 144.5t62 135.5t74.5 103t83 49.5q12 0 20 -2t17 -11q8 -8 20.5 -21t23.5 -34.5t17.5 -52t2.5 -70.5q-1 -6 -6 -8.5t-10 -2.5h-3q-1 0 -2 1q-1 18 -3.5 45.5t-10.5 53t-25 43.5t-46 18q-24 0 -53 -30.5t-56.5 -78.5t-53.5 -107.5
t-45.5 -116.5t-31.5 -106.5t-12 -77.5q0 -33 9.5 -75t28.5 -79t48.5 -62.5t71.5 -25.5q43 0 83 24t72.5 60t55.5 78.5t31 79.5q9 -2 10.5 -11t1.5 -16q0 -2 -0.5 -7.5t-1.5 -7.5q-11 -35 -35.5 -77t-58.5 -79t-74.5 -61.5t-83.5 -24.5q-37 0 -67 16.5t-54 42t-41 57
t-26 62.5zM419 1042q5 5 16 5t19 -3.5t8 -8.5q0 -1 -0.5 -1t-0.5 -1v-1q-33 -76 -71.5 -102.5t-78.5 -20t-79 41t-73 81.5q1 1 6.5 3.5t12 4.5t12 3.5t8.5 1.5q14 -14 31 -32.5t35.5 -34t37.5 -24t39 -4t39.5 25.5t38.5 66z" />
    <glyph glyph-name="ccaron" unicode="&#x10d;" horiz-adv-x="371" 
d="M382 78q-125 -56 -202.5 -69t-118.5 3t-49.5 51.5t4.5 76t42.5 78t66.5 56t75.5 10t67.5 -58.5v-4q-2 -3 -10 -10.5t-10 -9.5q-14 29 -34.5 40.5t-44 8t-46.5 -19.5t-41.5 -40t-29.5 -54.5t-11 -61.5q7 -22 27.5 -29.5t47.5 -6t59.5 9.5t64 18.5t60.5 19.5t49.5 13t30 0
t2.5 -21zM271 493q5 5 16 5t19 -3.5t8 -8.5q0 -1 -0.5 -1t-0.5 -1v-1q-33 -76 -71.5 -102.5t-78.5 -20t-79 41t-73 81.5q1 1 6.5 3.5t12 4.5t12 3.5t8.5 1.5q14 -14 31 -32.5t35.5 -34t37.5 -24t39 -4t39.5 25.5t38.5 66z" />
    <glyph glyph-name="Dcaron" unicode="&#x10e;" horiz-adv-x="684" 
d="M103 615q1 10 2 23.5t4 28.5q2 15 4 32h23q0 -17 -1.5 -36t-5 -46.5t-8.5 -66t-12.5 -94.5t-17 -133t-20.5 -181q19 18 35 30.5t38 12.5q25 0 44 -12t34.5 -30.5t29.5 -40t30.5 -40t37 -31t48.5 -12.5q31 0 65 18.5t66.5 48.5t62 68.5t51.5 78t34.5 78t12.5 68.5
q0 1 -0.5 2.5t-0.5 2.5q-24 -23 -46.5 -38.5t-47 -26t-52 -15t-59.5 -4.5q-61 0 -102.5 23.5t-66.5 62.5t-35.5 89t-10.5 104q0 44 11.5 99.5t37 105t65.5 82.5t97 33q44 0 79 -17.5t63.5 -47t49 -68t33.5 -80t19.5 -83t6.5 -77.5q1 -48 -7.5 -102.5t-27 -109.5t-45 -107
t-59.5 -94.5t-71 -72.5t-81 -40t-89 3t-93 55q-17 22 -29 44.5t-34 39.5q-3 3 -11 7.5t-10 3.5q-29 -7 -44 -32t-25 -53.5t-21 -51t-32 -22.5l8 54zM269 574q0 -50 10.5 -94.5t33.5 -77t60.5 -52t91.5 -19.5q58 -5 98.5 14t65 54t33.5 82t5 98t-21 101t-44 91.5t-63 70
t-79 36.5q-52 0 -88.5 -32.5t-59 -79.5t-33 -99.5t-10.5 -92.5zM577 1080q5 5 16 5t19 -3.5t8 -8.5q0 -1 -0.5 -1t-0.5 -1v-1q-33 -76 -71.5 -102.5t-78.5 -20t-79 41t-73 81.5q1 1 6.5 3.5t12 4.5t12 3.5t8.5 1.5q14 -14 31 -32.5t35.5 -34t37.5 -24t39 -4t39.5 25.5
t38.5 66z" />
    <glyph glyph-name="Ecaron" unicode="&#x11a;" horiz-adv-x="525" 
d="M14 174q0 34 12 66t30.5 62.5t41 57t43.5 50.5v5q0 25 -5.5 47.5t-5.5 49.5q0 24 8 55.5t23 66t35.5 68t44.5 59.5t50.5 42.5t54.5 16.5q22 0 41 -9.5t32 -25.5t20.5 -36.5t7.5 -41.5q0 -5 1 -12.5t-0.5 -14.5t-5.5 -12.5t-12 -5.5h-5q-2 9 -6.5 30t-13 42.5t-21 37.5
t-31.5 16q-41 0 -75.5 -29t-60.5 -70.5t-40.5 -88t-14.5 -80.5q0 -21 3 -37.5t8 -42.5h10q22 0 43.5 7.5t44 15.5t45.5 15t46 7h24t28 -3t23.5 -10.5t9.5 -22.5q0 -30 -20 -49.5t-48.5 -31.5t-59 -17t-51.5 -5q-15 0 -28 5t-24.5 11.5t-23 11.5t-24.5 5h-6
q-49 -38 -77.5 -88.5t-28.5 -112.5q0 -57 25 -87t81 -49q58 -11 108.5 -0.5t95.5 31.5t86.5 46.5t83.5 44.5q4 -8 7 -13.5t3 -13.5q0 -6 -1.5 -9t-8.5 -7q-89 -43 -146.5 -67t-93.5 -36t-54.5 -15t-26.5 -3q-38 0 -74 12.5t-64 35.5t-45.5 55t-17.5 71zM215 404
q0 -9 7 -14.5t17.5 -8t21 -3t17.5 -0.5q16 0 35.5 3t39 9t35.5 16.5t27 24.5q-8 11 -20.5 16.5t-25.5 5.5q-10 0 -35 -3.5t-51.5 -9t-47 -14.5t-20.5 -22zM443 1005q5 5 16 5t19 -3.5t8 -8.5q0 -1 -0.5 -1t-0.5 -1v-1q-33 -76 -71.5 -102.5t-78.5 -20t-79 41t-73 81.5
q1 1 6.5 3.5t12 4.5t12 3.5t8.5 1.5q14 -14 31 -32.5t35.5 -34t37.5 -24t39 -4t39.5 25.5t38.5 66z" />
    <glyph glyph-name="ecaron" unicode="&#x11b;" horiz-adv-x="362" 
d="M0 117q-3 37 7.5 79.5t33 78t55.5 59.5t72 24q14 0 23 -8.5t9 -22.5q0 -33 -17.5 -65t-42.5 -61t-52.5 -54t-45.5 -43q0 -1 -0.5 -4.5t-0.5 -5.5q0 -16 9 -28t22.5 -19.5t29 -11.5t28.5 -4q40 0 70 7.5t55.5 23t48 37.5t46.5 49q7 8 8.5 12t2 7t2.5 5.5t9 7.5
q8 -3 9.5 -9t1.5 -12q-8 -29 -33 -61.5t-60 -59.5t-76 -43.5t-81 -11t-75 36t-58 97.5zM170 317q-25 0 -48.5 -15t-41.5 -37.5t-29 -49t-11 -47.5q0 -2 0.5 -11t1.5 -11q18 10 40.5 29.5t42 43.5t32.5 49.5t13 48.5zM245 582q5 5 16 5t19 -3.5t8 -8.5q0 -1 -0.5 -1t-0.5 -1
v-1q-33 -76 -71.5 -102.5t-78.5 -20t-79 41t-73 81.5q1 1 6.5 3.5t12 4.5t12 3.5t8.5 1.5q14 -14 31 -32.5t35.5 -34t37.5 -24t39 -4t39.5 25.5t38.5 66z" />
    <glyph glyph-name="Lacute" unicode="&#x139;" horiz-adv-x="1064" 
d="M675 174q-12 -8 -45 -26t-70 -38t-69.5 -38t-46.5 -24q-46 -23 -96 -28t-99 -5q-35 0 -73 8t-69.5 25.5t-52 46t-20.5 70.5q0 37 17 64t44 46.5t61 32.5t69.5 21t68 13.5t55.5 9.5h20q55 0 108.5 -16.5t103.5 -36.5l10 -5t18.5 -8.5t19.5 -10t14 -7.5q1 -1 5.5 -4
t10.5 -6.5t10.5 -6.5t5.5 -4l12 -6t9 -4q35 46 64.5 91t40.5 80q-24 -2 -63.5 3t-85 17t-92 31.5t-84 44.5t-61.5 56.5t-24 68.5q0 8 3 14.5t14 6.5q1 0 14.5 -19t33 -43t39.5 -46t32 -29q60 -32 122.5 -50t129.5 -18q12 0 29 3t23 9l273 272q15 15 46 28t62.5 15t56 -9.5
t26.5 -46.5q0 -51 -19 -90t-50 -68.5t-71.5 -51t-84 -37t-86 -28t-78.5 -22.5q-2 -1 -10 -4t-17.5 -6t-17.5 -6.5t-11 -5.5q-16 -24 -30 -45.5t-27.5 -42.5t-27.5 -44t-32 -51q40 -50 74.5 -120.5t68 -147t68.5 -151.5t75.5 -134t88.5 -95.5t110 -35.5q70 0 136 2.5
t118 21.5t83 62.5t31 126.5q0 28 -9 53.5t-25 48.5t-37 41t-46 30q2 0 10.5 1t10.5 1q34 0 58 -17.5t40 -43.5t23.5 -56.5t7.5 -58.5q0 -92 -35 -143t-92 -75.5t-131.5 -29.5t-153.5 -5q-45 -7 -85.5 13.5t-76 60t-68.5 93t-63 113.5t-59 121.5t-56.5 116t-55.5 99t-57 68.5
h-6h-5zM75 163q0 -34 16.5 -56t41 -35.5t54 -19t56.5 -5.5q49 0 98 4t92 28q20 10 51.5 27t62 34t52.5 29t24 14l20 22q-13 25 -49 44.5t-79.5 33.5t-87.5 21t-73 7q-37 0 -85.5 -5t-91.5 -21t-72.5 -45t-29.5 -77zM1258 699q0 25 -14 34t-34 7t-41 -11t-33 -21l-232 -242
h17q26 0 62 7.5t73.5 22t73.5 35t65 46t46 57t17 65.5zM1117 821q6 11 11.5 19t11.5 15.5t12 16t12 21.5q16 31 33 46t27.5 13t10 -19.5t-20.5 -49.5q-17 -26 -37 -48t-55 -30q-3 1 -5 7t0 9z" />
    <glyph glyph-name="lacute" unicode="&#x13a;" horiz-adv-x="259" 
d="M4 129q2 42 12.5 94t25.5 105.5t34.5 104.5t39.5 92t38.5 67t33.5 32q8 0 13 -9.5t7 -21t3 -22.5t1 -14q0 -32 -7 -68.5t-19 -73.5t-27.5 -72t-31.5 -60q-14 -23 -28.5 -38.5t-26.5 -30t-19.5 -31.5t-7.5 -43q0 -53 29 -90t87 -37q36 0 69 13t48 51h12q0 -24 -13.5 -42
t-33.5 -29.5t-43.5 -17.5t-43.5 -6q-33 0 -58.5 12t-44 32.5t-31 47t-18.5 55.5zM183 550q-4 -5 -11.5 -18.5t-16.5 -28.5t-16 -28t-9 -19q-8 -20 -20.5 -52.5t-24 -65.5t-20.5 -59t-9 -33q25 16 47.5 54.5t40 83.5t28.5 90t11 76zM104 675q6 11 11.5 19t11.5 15.5t12 16
t12 21.5q16 31 33 46t27.5 13t10 -19.5t-20.5 -49.5q-17 -26 -37 -48t-55 -30q-3 1 -5 7t0 9z" />
    <glyph glyph-name="Lcaron" unicode="&#x13d;" horiz-adv-x="1064" 
d="M1084 921q6 5 16 5q11 0 19 -3.5t8 -9.5q0 -1 -0.5 -1t-0.5 -1v-1l-127 -130q-22 11 -46 26t-47.5 33t-44.5 36t-37 35q1 1 7 3.5l12 5t11.5 4t8.5 1.5l129 -81zM680 174h6q29 -24 57 -68.5t55.5 -99t56.5 -116t59 -121.5t63 -113.5t68.5 -93t76 -60t85.5 -13.5
q79 0 153.5 5t131.5 29.5t92 75.5t35 143q0 28 -7.5 58.5t-23.5 56.5t-40 43.5t-58 17.5q-2 0 -10.5 -1t-10.5 -1q25 -12 46 -30t37 -41t25 -48.5t9 -53.5q0 -83 -31 -126.5t-83 -62.5t-118 -21.5t-136 -2.5q-62 -1 -110 35.5t-88.5 95.5t-75.5 134t-68.5 151.5t-68 147
t-74.5 120.5q18 28 32 51t27.5 44t27.5 42.5t30 45.5q3 2 11 5.5t17.5 6.5t17.5 6t10 4q36 10 78.5 22.5t86 28t84 37t71.5 51t50 68.5t19 90q-2 35 -26.5 46.5t-56 9.5t-62.5 -15t-46 -28l-273 -272q-6 -6 -23 -9t-29 -3q-67 0 -129.5 18t-122.5 50q-12 7 -32 29t-39.5 46
t-33 43t-14.5 19q-11 0 -14 -6.5t-3 -14.5q0 -37 24 -68.5t61.5 -56.5t84 -44.5t92 -31.5t85 -17t63.5 -3q-11 -35 -40.5 -80t-64.5 -91q-1 0 -9 4l-12 6q-1 1 -5.5 4t-10.5 6.5t-10.5 6.5t-5.5 4q-5 2 -14 7.5t-19.5 10t-18.5 8.5l-10 5q-50 20 -103.5 36.5t-108.5 16.5
h-20q-23 -4 -55.5 -9.5t-68 -13.5t-69.5 -21t-61 -32.5t-44 -46.5t-17 -64q0 -42 20.5 -70.5t52 -46t69.5 -25.5t73 -8q49 0 99 5t96 28q14 6 46.5 24t69.5 38t70 38t45 26h5zM75 163q0 48 29.5 77t72.5 45t91.5 21t85.5 5q29 0 73 -7t87.5 -21t79.5 -33.5t49 -44.5l-20 -22
q-2 -2 -24 -14t-52.5 -29t-62 -34t-51.5 -27q-43 -24 -92 -28t-98 -4q-27 0 -56.5 5.5t-54 19t-41 35.5t-16.5 56zM1258 699q0 -34 -17 -65.5t-46 -57t-65 -46t-73.5 -35t-73.5 -22t-62 -7.5h-17l232 242q12 12 33 21t41 11t34 -7t14 -34z" />
    <glyph glyph-name="Lslash" unicode="&#x141;" horiz-adv-x="1064" 
d="M675 174q-12 -8 -45 -26t-70 -38t-69.5 -38t-46.5 -24q-46 -23 -96 -28t-99 -5q-35 0 -73 8t-69.5 25.5t-52 46t-20.5 70.5q0 37 17 64t44 46.5t61 32.5t69.5 21t68 13.5t55.5 9.5h20q55 0 108.5 -16.5t103.5 -36.5l10 -5t18.5 -8.5t19.5 -10t14 -7.5q1 -1 5.5 -4
t10.5 -6.5t10.5 -6.5t5.5 -4l12 -6t9 -4q35 46 64.5 91t40.5 80q-24 -2 -63.5 3t-85 17t-92 31.5t-84 44.5t-61.5 56.5t-24 68.5q0 8 3 14.5t14 6.5q1 0 14.5 -19t33 -43t39.5 -46t32 -29q60 -32 122.5 -50t129.5 -18q12 0 29 3t23 9l273 272q15 15 46 28t62.5 15t56 -9.5
t26.5 -46.5q0 -51 -19 -90t-50 -68.5t-71.5 -51t-84 -37t-86 -28t-78.5 -22.5q-2 -1 -10 -4t-17.5 -6t-17.5 -6.5t-11 -5.5q-16 -24 -30 -45.5t-27.5 -42.5t-27.5 -44t-32 -51q40 -50 74.5 -120.5t68 -147t68.5 -151.5t75.5 -134t88.5 -95.5t110 -35.5q70 0 136 2.5
t118 21.5t83 62.5t31 126.5q0 28 -9 53.5t-25 48.5t-37 41t-46 30q2 0 10.5 1t10.5 1q34 0 58 -17.5t40 -43.5t23.5 -56.5t7.5 -58.5q0 -92 -35 -143t-92 -75.5t-131.5 -29.5t-153.5 -5q-45 -7 -85.5 13.5t-76 60t-68.5 93t-63 113.5t-59 121.5t-56.5 116t-55.5 99t-57 68.5
h-6h-5zM75 163q0 -34 16.5 -56t41 -35.5t54 -19t56.5 -5.5q49 0 98 4t92 28q20 10 51.5 27t62 34t52.5 29t24 14l20 22q-13 25 -49 44.5t-79.5 33.5t-87.5 21t-73 7q-37 0 -85.5 -5t-91.5 -21t-72.5 -45t-29.5 -77zM1258 699q0 25 -14 34t-34 7t-41 -11t-33 -21l-232 -242
h17q26 0 62 7.5t73.5 22t73.5 35t65 46t46 57t17 65.5zM646 335q0 11 3.5 15.5t10 5.5t14 0.5t15.5 -0.5q13 1 43 1.5t64 1t64 1t42 1.5h6q10 0 13.5 -6.5t3.5 -15.5t-4 -14t-19 -6l-244 -4q-9 -1 -10.5 7.5t-1.5 12.5z" />
    <glyph glyph-name="lslash" unicode="&#x142;" horiz-adv-x="259" 
d="M4 129q2 42 12.5 94t25.5 105.5t34.5 104.5t39.5 92t38.5 67t33.5 32q8 0 13 -9.5t7 -21t3 -22.5t1 -14q0 -32 -7 -68.5t-19 -73.5t-27.5 -72t-31.5 -60q-14 -23 -28.5 -38.5t-26.5 -30t-19.5 -31.5t-7.5 -43q0 -53 29 -90t87 -37q36 0 69 13t48 51h12q0 -24 -13.5 -42
t-33.5 -29.5t-43.5 -17.5t-43.5 -6q-33 0 -58.5 12t-44 32.5t-31 47t-18.5 55.5zM183 550q-4 -5 -11.5 -18.5t-16.5 -28.5t-16 -28t-9 -19q-8 -20 -20.5 -52.5t-24 -65.5t-20.5 -59t-9 -33q25 16 47.5 54.5t40 83.5t28.5 90t11 76zM57 268q0 11 3.5 15.5t10 5.5t14 0.5
t15.5 -0.5q13 1 43 1.5t64 1t64 1t42 1.5h6q10 0 13.5 -6.5t3.5 -15.5t-4 -14t-19 -6l-244 -4q-9 -1 -10.5 7.5t-1.5 12.5z" />
    <glyph glyph-name="Nacute" unicode="&#x143;" horiz-adv-x="701" 
d="M593 58v26t-0.5 39t-0.5 40v26q0 58 5 114t11.5 112.5t12 112.5t5.5 113v69l-358 -337q-1 -9 -4 -33t-6 -51t-6.5 -51t-4.5 -33q-4 -29 -17.5 -65.5t-34.5 -68.5t-49 -54.5t-63 -22.5q-30 0 -50 21.5t-18 53.5q4 47 26 92.5t52.5 87.5t66 79t65.5 66q1 5 1.5 21t0.5 21
q0 25 -1 44.5t-4 39.5t-7 42.5t-10 51.5q-3 9 -9 10.5t-13 1.5q-1 0 -4.5 -0.5t-5.5 -0.5q-31 -25 -69.5 -43.5t-79.5 -18.5q0 12 3 19t9 10t14 5t19 7q7 3 25 12l38 19t37.5 19.5t25.5 12.5q1 0 5 0.5t5 0.5q12 0 20.5 -10t11.5 -22l32 -219l377 365l21 -20q0 -1 1 -9.5
t1.5 -18t1 -19.5t0.5 -17q0 -64 -8 -126.5t-16.5 -125t-16 -125.5t-7.5 -126q0 -7 0.5 -23.5t1 -35t1 -35t0.5 -22.5q21 -179 198 -179q5 0 17 1.5t25.5 3t25 3.5t16.5 3q-8 -12 -21.5 -18.5t-28.5 -9.5t-31 -3.5t-28 -0.5q-47 0 -81 11.5t-58 34t-40.5 56t-26.5 77.5z
M56 76v-15t1.5 -16.5t6.5 -13t14 -5.5q27 0 49.5 17t39 44.5t28.5 61.5t19 68.5t10.5 64t3.5 49.5h-12q-2 0 -9.5 -7.5t-18 -17.5t-20 -20.5t-15.5 -17.5q-17 -18 -34 -41t-30.5 -48t-23 -51.5t-9.5 -51.5zM508 853q6 11 11.5 19t11.5 15.5t12 16t12 21.5q16 31 33 46
t27.5 13t10 -19.5t-20.5 -49.5q-17 -26 -37 -48t-55 -30q-3 1 -5 7t0 9z" />
    <glyph glyph-name="nacute" unicode="&#x144;" horiz-adv-x="479" 
d="M253 99q0 28 0.5 48t0.5 38t0.5 38t0.5 47q-19 -4 -42.5 -26.5t-45.5 -49t-40 -50.5t-28 -31q-4 -5 -13.5 -16.5t-21 -25t-21 -25t-12.5 -15.5q-7 -9 -13.5 -11t-18.5 -2v24l48 155q0 34 6.5 63t15.5 46.5t17 20t13 -14.5q1 -5 1 -18.5v-18.5q0 -17 -3.5 -33.5
t-7.5 -33.5t-7.5 -35t-3.5 -40q7 7 22 25t31.5 38t31.5 37.5t22 24.5q9 7 19.5 17.5t23 19.5t26 15t27.5 6q7 0 12.5 -1.5t8.5 -9.5q3 -34 1 -60t-6 -50t-7.5 -49.5t-4.5 -58.5q0 -24 8.5 -38.5t34.5 -14.5q33 0 59 16.5t47.5 40t41 48.5t41.5 43v-11q0 -28 -20 -57.5
t-50 -54t-64 -40.5t-61 -16h-36q-15 10 -21.5 20.5t-9 21.5t-2.5 24.5v29.5zM188 391q6 11 11.5 19t11.5 15.5t12 16t12 21.5q16 31 33 46t27.5 13t10 -19.5t-20.5 -49.5q-17 -26 -37 -48t-55 -30q-3 1 -5 7t0 9z" />
    <glyph glyph-name="Ncaron" unicode="&#x147;" horiz-adv-x="701" 
d="M593 58v26t-0.5 39t-0.5 40v26q0 58 5 114t11.5 112.5t12 112.5t5.5 113v69l-358 -337q-1 -9 -4 -33t-6 -51t-6.5 -51t-4.5 -33q-4 -29 -17.5 -65.5t-34.5 -68.5t-49 -54.5t-63 -22.5q-30 0 -50 21.5t-18 53.5q4 47 26 92.5t52.5 87.5t66 79t65.5 66q1 5 1.5 21t0.5 21
q0 25 -1 44.5t-4 39.5t-7 42.5t-10 51.5q-3 9 -9 10.5t-13 1.5q-1 0 -4.5 -0.5t-5.5 -0.5q-31 -25 -69.5 -43.5t-79.5 -18.5q0 12 3 19t9 10t14 5t19 7q7 3 25 12l38 19t37.5 19.5t25.5 12.5q1 0 5 0.5t5 0.5q12 0 20.5 -10t11.5 -22l32 -219l377 365l21 -20q0 -1 1 -9.5
t1.5 -18t1 -19.5t0.5 -17q0 -64 -8 -126.5t-16.5 -125t-16 -125.5t-7.5 -126q0 -7 0.5 -23.5t1 -35t1 -35t0.5 -22.5q21 -179 198 -179q5 0 17 1.5t25.5 3t25 3.5t16.5 3q-8 -12 -21.5 -18.5t-28.5 -9.5t-31 -3.5t-28 -0.5q-47 0 -81 11.5t-58 34t-40.5 56t-26.5 77.5z
M56 76v-15t1.5 -16.5t6.5 -13t14 -5.5q27 0 49.5 17t39 44.5t28.5 61.5t19 68.5t10.5 64t3.5 49.5h-12q-2 0 -9.5 -7.5t-18 -17.5t-20 -20.5t-15.5 -17.5q-17 -18 -34 -41t-30.5 -48t-23 -51.5t-9.5 -51.5zM617 955q5 5 16 5t19 -3.5t8 -8.5q0 -1 -0.5 -1t-0.5 -1v-1
q-33 -76 -71.5 -102.5t-78.5 -20t-79 41t-73 81.5q1 1 6.5 3.5t12 4.5t12 3.5t8.5 1.5q14 -14 31 -32.5t35.5 -34t37.5 -24t39 -4t39.5 25.5t38.5 66z" />
    <glyph glyph-name="ncaron" unicode="&#x148;" horiz-adv-x="479" 
d="M253 99q0 28 0.5 48t0.5 38t0.5 38t0.5 47q-19 -4 -42.5 -26.5t-45.5 -49t-40 -50.5t-28 -31q-4 -5 -13.5 -16.5t-21 -25t-21 -25t-12.5 -15.5q-7 -9 -13.5 -11t-18.5 -2v24l48 155q0 34 6.5 63t15.5 46.5t17 20t13 -14.5q1 -5 1 -18.5v-18.5q0 -17 -3.5 -33.5
t-7.5 -33.5t-7.5 -35t-3.5 -40q7 7 22 25t31.5 38t31.5 37.5t22 24.5q9 7 19.5 17.5t23 19.5t26 15t27.5 6q7 0 12.5 -1.5t8.5 -9.5q3 -34 1 -60t-6 -50t-7.5 -49.5t-4.5 -58.5q0 -24 8.5 -38.5t34.5 -14.5q33 0 59 16.5t47.5 40t41 48.5t41.5 43v-11q0 -28 -20 -57.5
t-50 -54t-64 -40.5t-61 -16h-36q-15 10 -21.5 20.5t-9 21.5t-2.5 24.5v29.5zM348 534q5 5 16 5t19 -3.5t8 -8.5q0 -1 -0.5 -1t-0.5 -1v-1q-33 -76 -71.5 -102.5t-78.5 -20t-79 41t-73 81.5q1 1 6.5 3.5t12 4.5t12 3.5t8.5 1.5q14 -14 31 -32.5t35.5 -34t37.5 -24t39 -4
t39.5 25.5t38.5 66z" />
    <glyph glyph-name="Ohungarumlaut" unicode="&#x150;" horiz-adv-x="565" 
d="M26 321v28.5v35.5t0.5 30.5t0.5 15.5q0 3 2.5 21.5t5.5 42t6.5 46.5t5.5 37q3 16 11 45t20.5 58t31 49.5t43.5 20.5v-16q-59 -99 -78 -203t-19 -219q0 -42 2.5 -77t12.5 -66.5t29 -60t53 -57.5q10 -8 17 -9t18 -1q57 0 105 29t86 74t63 98.5t35 102.5q-79 -5 -133 9.5
t-87.5 49t-48 90.5t-14.5 135q0 27 2.5 66.5t10 81.5t21.5 83.5t35.5 74t52 53t72.5 20.5q35 0 61 -21.5t44.5 -52.5t30.5 -65.5t17 -60.5q0 -9 0.5 -31.5t0.5 -47.5v-47.5v-31.5q0 -63 -6 -121.5t-6 -119.5v-11l74 32v-6q0 -8 -11 -15q-3 -2 -14 -8t-23.5 -12.5
t-23.5 -12.5t-13 -9t-6.5 -17t-9.5 -30.5t-9.5 -31t-5.5 -17.5q-20 -47 -47 -94t-63.5 -84.5t-82 -60.5t-101.5 -23q-61 0 -94 32.5t-50 80t-20.5 101.5t-3.5 97zM224 602q0 -40 10.5 -82t32 -76t55 -55.5t81.5 -21.5q10 0 23 -0.5t26 1t23 6t13 14.5q1 6 4.5 19.5t6.5 29
t6 28.5t5 18v11q0 7 1.5 38t3 66.5t3 66t1.5 38.5q0 29 -4.5 73t-18 86.5t-38 75.5t-64.5 39q-34 4 -59.5 -17.5t-44.5 -58t-31.5 -81.5t-20.5 -88.5t-11 -79t-3 -50.5zM249 1112q7 11 12.5 19t11 15.5t11.5 16t13 21.5q16 31 33 46t27 13t9.5 -19.5t-19.5 -49.5
q-18 -26 -38 -48t-54 -30q-4 1 -6 7t0 9zM358 1107q6 11 11.5 19t11.5 15.5t12 16t12 21.5q16 31 33 46t27.5 13t10 -19.5t-20.5 -49.5q-17 -26 -37 -48t-55 -30q-3 1 -5 7t0 9z" />
    <glyph glyph-name="ohungarumlaut" unicode="&#x151;" horiz-adv-x="427" 
d="M2 99q0 26 11.5 60t31.5 64t47 51t59 21q12 0 20.5 -3.5t14.5 -19.5q-29 -9 -56.5 -25.5t-48.5 -38t-33.5 -49t-12.5 -60.5q0 -13 1 -25t5.5 -21t13 -14.5t23.5 -5.5q39 0 62.5 11.5t45.5 38.5q-10 17 -10.5 35.5t-0.5 37.5t4 50t14.5 59.5t27.5 49.5t43 21
q15 0 27.5 -4.5t20.5 -17.5q0 -3 0.5 -8.5t0.5 -12t0.5 -13t0.5 -8.5q0 -24 -3.5 -43t-10.5 -37t-17.5 -36.5t-22.5 -40.5q2 0 11 -0.5t11 -0.5q23 0 48 6t49.5 15t48 20.5t43.5 21.5l9 -10q-52 -42 -118.5 -66t-132.5 -28l-98 -60q-12 -10 -31.5 -10.5t-32.5 -0.5
q-22 0 -34.5 8t-19.5 21.5t-9 31t-2 36.5zM207 161q0 -2 -0.5 -8t0.5 -12t3 -10.5t8 -5.5q16 10 28.5 25.5t20.5 34t12 38t4 37.5q0 1 0.5 7t0 14t-3 14.5t-9.5 7.5q-15 -9 -27.5 -26t-20.5 -37t-12 -40.5t-4 -38.5zM120 434q7 11 12.5 19t11 15.5t11.5 16t13 21.5
q16 31 33 46t27 13t9.5 -19.5t-19.5 -49.5q-18 -26 -38 -48t-54 -30q-4 1 -6 7t0 9zM229 429q6 11 11.5 19t11.5 15.5t12 16t12 21.5q16 31 33 46t27.5 13t10 -19.5t-20.5 -49.5q-17 -26 -37 -48t-55 -30q-3 1 -5 7t0 9z" />
    <glyph glyph-name="OE" unicode="&#x152;" horiz-adv-x="930" 
d="M26 321v28.5v35.5t0.5 30.5t0.5 15.5q0 3 2.5 21.5t5.5 42t6.5 46.5t5.5 37q3 16 11 45t20.5 58t31 49.5t43.5 20.5v-16q-59 -99 -78 -203t-19 -219q0 -42 2.5 -77t12.5 -66.5t29 -60t53 -57.5q10 -8 17 -9t18 -1q38 0 73 14t64.5 37.5t55.5 54.5t45 66q5 26 16.5 50.5
t26.5 47.5q2 9 4 17.5t4 16.5q-79 -5 -133 9.5t-87.5 49t-48 90.5t-14.5 135q0 27 2.5 66.5t10 81.5t21.5 83.5t35.5 74t52 53t72.5 20.5q35 0 61 -21.5t44.5 -52.5t30.5 -65.5t17 -60.5q0 -9 0.5 -31.5t0.5 -47.5v-47.5v-31.5q0 -18 -0.5 -35.5t-1.5 -34.5q12 39 35 81.5
t51.5 78t61.5 58.5t66 23q21 0 40 -9.5t32.5 -25.5t21 -36.5t7.5 -41.5q0 -4 0.5 -12t-0.5 -15t-5 -12.5t-12 -5.5h-5q-3 9 -7.5 30t-12.5 42.5t-21 38t-31 16.5q-41 0 -76 -29.5t-60.5 -71t-40.5 -88t-15 -80.5q0 -21 3 -37.5t9 -42.5h10q21 0 42.5 7.5t44 15.5t45.5 15
t47 7h23.5t28.5 -3t23.5 -10.5t9.5 -22.5q0 -30 -20.5 -49.5t-48.5 -31.5t-59 -17t-51 -5q-16 0 -28.5 5t-24.5 11.5t-23 11.5t-25 5h-6q-22 -17 -40 -36.5t-32 -43.5q-5 -17 -11.5 -34t-16.5 -38q-3 -11 -4 -23.5t-1 -25.5q0 -57 25 -87t80 -49q59 -11 109 -0.5t95 31.5
t86.5 46.5t83.5 44.5q4 -8 7 -13.5t3 -13.5q0 -6 -1.5 -9t-8.5 -7q-88 -43 -146 -67t-93.5 -36t-54 -15t-26.5 -3q-35 0 -69 11t-61 30t-46 47t-24 62q-21 -30 -45 -55.5t-52.5 -45t-61.5 -30.5t-70 -11q-61 0 -94 32.5t-50 80t-20.5 101.5t-3.5 97zM224 602q0 -40 10.5 -82
t32 -76t55 -55.5t81.5 -21.5q10 0 23 -0.5t26 1t23 6t13 14.5q1 6 4.5 19.5t6.5 29t6 28.5t5 18v11q0 7 1.5 38t3 66.5t3 66t1.5 38.5q0 29 -4.5 73t-18 86.5t-38 75.5t-64.5 39q-34 4 -59.5 -17.5t-44.5 -58t-31.5 -81.5t-20.5 -88.5t-11 -79t-3 -50.5zM623 407
q0 -10 7 -15.5t17 -8t21 -3t17 -0.5q16 0 35.5 3t39 9t36 16.5t26.5 24.5q-8 11 -20 16.5t-26 5.5q-9 0 -34 -3t-51.5 -9t-47 -15t-20.5 -21zM549 417q0 16 -5.5 30.5t-11.5 29.5q-2 -17 -2 -33.5v-33.5v-11l12 5q2 3 3.5 4.5l3.5 3.5v5z" />
    <glyph glyph-name="oe" unicode="&#x153;" horiz-adv-x="604" 
d="M2 99q0 26 11.5 60t31.5 64t47 51t59 21q12 0 20.5 -3.5t14.5 -19.5q-29 -9 -56.5 -25.5t-48.5 -38t-33.5 -49t-12.5 -60.5q0 -13 1 -25t5.5 -21t13 -14.5t23.5 -5.5q39 0 62.5 11.5t45.5 38.5q-10 17 -10.5 35.5t-0.5 37.5t4 50t14.5 59.5t27.5 49.5t43 21
q15 0 27.5 -4.5t20.5 -17.5v-4q17 12 35 19t38 7q14 0 23 -9t9 -23q0 -33 -17.5 -64.5t-42.5 -60.5t-52 -54.5t-46 -42.5q0 -1 -0.5 -4.5t-0.5 -5.5q0 -17 9 -28.5t22.5 -19.5t29 -12t28.5 -4q40 0 70 8t55.5 23t48 37t46.5 50q7 7 9 11t2.5 7t2 6t8.5 8q8 -3 9.5 -9.5
t1.5 -12.5q-7 -27 -31 -59t-57.5 -58.5t-73 -43.5t-78 -15t-74 27.5t-60.5 83.5l-95 -58q-12 -10 -31.5 -10.5t-32.5 -0.5q-22 0 -34.5 8t-19.5 21.5t-9 31t-2 36.5zM387 295q-22 0 -43 -12.5t-39 -31.5l-48 -113q0 -10 2 -14q17 10 39.5 29.5t41.5 43.5t32.5 49.5
t14.5 48.5zM207 161q0 -2 -0.5 -8t0 -11.5t2.5 -10.5t7 -6q6 36 24.5 77.5t42.5 82.5q-1 7 -3 12t-9 6q-15 -9 -27.5 -26t-20.5 -37t-12 -40.5t-4 -38.5z" />
    <glyph glyph-name="Racute" unicode="&#x154;" horiz-adv-x="702" 
d="M81 -38q-44 2 -55 39.5t-1 96.5t34.5 132.5t52 148t51.5 143t34 117.5q0 38 -8 47.5t-20.5 6t-30 -14t-36.5 -13.5v26q3 4 15 13t26 17.5t27.5 15.5t20.5 7q9 0 15.5 -6t11 -14.5t7 -18t3.5 -14.5t2.5 -18.5t3.5 -28.5t3.5 -28.5t1.5 -19.5q2 6 14.5 20.5t31.5 32
t41.5 37.5t45 37.5t42.5 31.5t32 21q54 32 85 35.5t43 -13.5t8 -49t-20.5 -70.5t-43 -79.5t-58.5 -75.5t-67.5 -58t-69.5 -26.5q20 -18 41 -53.5t42 -78.5t44 -87t47 -81t51 -60t57 -23q33 0 67 12.5t52 42.5q0 -25 -12 -42t-30 -28t-42 -17.5t-47 -8.5q-46 2 -78.5 34
t-58 77.5t-48.5 97.5t-49.5 94.5t-60.5 67.5t-82 16q-25 -113 -42 -187.5t-29 -121t-20 -69.5t-15 -33.5t-13.5 -15.5t-15.5 -13zM167 420q-22 -28 -42.5 -78.5t-36.5 -107t-26 -110.5t-10 -89q7 -30 19 -22.5t25.5 39.5t26.5 81.5t24 102.5t16.5 102t3.5 82zM438 722
q-32 -31 -73.5 -61t-77 -62t-56.5 -66.5t-13 -72.5q39 -15 81.5 -3t82.5 39.5t75.5 65t60 75t35.5 69t4 47.5t-35 11t-84 -42zM317 807q6 11 11.5 19t11.5 15.5t12 16t12 21.5q16 31 33 46t27.5 13t10 -19.5t-20.5 -49.5q-17 -26 -37 -48t-55 -30q-3 1 -5 7t0 9z" />
    <glyph glyph-name="racute" unicode="&#x155;" horiz-adv-x="423" 
d="M462 52q-12 -7 -33.5 -15t-46 -14t-49 -7t-42.5 6t-27 23.5t-3 46.5q0 37 10.5 71.5t10.5 69.5q-11 0 -29.5 -2.5t-39 -6t-39.5 -7.5t-30 -7q-11 -56 -29 -94.5t-37 -61.5t-36.5 -32.5t-29 -8.5t-14 11t8.5 25q23 -1 36 12.5t22.5 36.5t17.5 52t19 60q-8 3 -17 7.5
t-17 10.5t-13 15t-5 20q0 31 15 51t35.5 28.5t41 6.5t32 -14.5t9.5 -36.5t-27 -56q5 1 27 6.5t49 12t51.5 12t34.5 5.5q0 -27 -4 -52.5t-8.5 -51.5t-8.5 -52t-4 -51q2 -17 15.5 -21.5t31.5 -3t39.5 7t40 9.5t30.5 3t12 -14zM91 274q0 -14 10.5 -20.5t21.5 -11.5
q21 21 22 41.5t-7.5 30t-22.5 2t-24 -41.5zM138 551q6 11 11.5 19t11.5 15.5t12 16t12 21.5q16 31 33 46t27.5 13t10 -19.5t-20.5 -49.5q-17 -26 -37 -48t-55 -30q-3 1 -5 7t0 9z" />
    <glyph glyph-name="Rcaron" unicode="&#x158;" horiz-adv-x="702" 
d="M81 -38q-44 2 -55 39.5t-1 96.5t34.5 132.5t52 148t51.5 143t34 117.5q0 38 -8 47.5t-20.5 6t-30 -14t-36.5 -13.5v26q3 4 15 13t26 17.5t27.5 15.5t20.5 7q9 0 15.5 -6t11 -14.5t7 -18t3.5 -14.5t2.5 -18.5t3.5 -28.5t3.5 -28.5t1.5 -19.5q2 6 14.5 20.5t31.5 32
t41.5 37.5t45 37.5t42.5 31.5t32 21q54 32 85 35.5t43 -13.5t8 -49t-20.5 -70.5t-43 -79.5t-58.5 -75.5t-67.5 -58t-69.5 -26.5q20 -18 41 -53.5t42 -78.5t44 -87t47 -81t51 -60t57 -23q33 0 67 12.5t52 42.5q0 -25 -12 -42t-30 -28t-42 -17.5t-47 -8.5q-46 2 -78.5 34
t-58 77.5t-48.5 97.5t-49.5 94.5t-60.5 67.5t-82 16q-25 -113 -42 -187.5t-29 -121t-20 -69.5t-15 -33.5t-13.5 -15.5t-15.5 -13zM167 420q-22 -28 -42.5 -78.5t-36.5 -107t-26 -110.5t-10 -89q7 -30 19 -22.5t25.5 39.5t26.5 81.5t24 102.5t16.5 102t3.5 82zM438 722
q-32 -31 -73.5 -61t-77 -62t-56.5 -66.5t-13 -72.5q39 -15 81.5 -3t82.5 39.5t75.5 65t60 75t35.5 69t4 47.5t-35 11t-84 -42zM480 948q5 5 16 5t19 -3.5t8 -8.5q0 -1 -0.5 -1t-0.5 -1v-1q-33 -76 -71.5 -102.5t-78.5 -20t-79 41t-73 81.5q1 1 6.5 3.5t12 4.5t12 3.5
t8.5 1.5q14 -14 31 -32.5t35.5 -34t37.5 -24t39 -4t39.5 25.5t38.5 66z" />
    <glyph glyph-name="rcaron" unicode="&#x159;" horiz-adv-x="423" 
d="M462 52q-12 -7 -33.5 -15t-46 -14t-49 -7t-42.5 6t-27 23.5t-3 46.5q0 37 10.5 71.5t10.5 69.5q-11 0 -29.5 -2.5t-39 -6t-39.5 -7.5t-30 -7q-11 -56 -29 -94.5t-37 -61.5t-36.5 -32.5t-29 -8.5t-14 11t8.5 25q23 -1 36 12.5t22.5 36.5t17.5 52t19 60q-8 3 -17 7.5
t-17 10.5t-13 15t-5 20q0 31 15 51t35.5 28.5t41 6.5t32 -14.5t9.5 -36.5t-27 -56q5 1 27 6.5t49 12t51.5 12t34.5 5.5q0 -27 -4 -52.5t-8.5 -51.5t-8.5 -52t-4 -51q2 -17 15.5 -21.5t31.5 -3t39.5 7t40 9.5t30.5 3t12 -14zM91 274q0 -14 10.5 -20.5t21.5 -11.5
q21 21 22 41.5t-7.5 30t-22.5 2t-24 -41.5zM325 562q5 5 16 5t19 -3.5t8 -8.5q0 -1 -0.5 -1t-0.5 -1v-1q-33 -76 -71.5 -102.5t-78.5 -20t-79 41t-73 81.5q1 1 6.5 3.5t12 4.5t12 3.5t8.5 1.5q14 -14 31 -32.5t35.5 -34t37.5 -24t39 -4t39.5 25.5t38.5 66z" />
    <glyph glyph-name="Sacute" unicode="&#x15a;" horiz-adv-x="889" 
d="M28 28q-3 0 -6.5 5.5t-6 12t-4 13.5t-1.5 9q0 6 23.5 13.5t57.5 19t70 27t60 38.5q-17 64 -17.5 115t20.5 90t65 67.5t117 49.5q-6 -5 -5.5 -9t3 -7t4 -5.5t-1.5 -5.5q-53 -26 -92 -48t-60 -52t-22.5 -73t20.5 -110q59 44 113.5 81.5t110.5 77.5t117.5 86.5t136.5 108.5
l21 284q3 34 17.5 70t39.5 65t56.5 47.5t67.5 18.5q59 -13 77.5 -43.5t9 -70.5t-40 -87.5t-68 -96.5t-75 -96.5t-61.5 -86.5q14 -96 8 -188.5t-32 -169.5t-71.5 -129t-110.5 -66t-149 18t-188 125zM272 141q85 -79 157 -107t128 -16.5t96 55.5t63 108.5t28 143.5t-10 161z
M931 985q-44 -5 -72.5 -28t-44.5 -56.5t-23.5 -74.5t-10 -83.5t-4 -82t-6.5 -70.5q13 11 35 36t47 57.5t50 69.5t45 70.5t32.5 62t12.5 45.5q0 27 -18.5 40.5t-42.5 13.5zM843 1112q6 11 11.5 19t11.5 15.5t12 16t12 21.5q16 31 33 46t27.5 13t10 -19.5t-20.5 -49.5
q-17 -26 -37 -48t-55 -30q-3 1 -5 7t0 9z" />
    <glyph glyph-name="sacute" unicode="&#x15b;" horiz-adv-x="492" 
d="M95 61q-35 -23 -62 -28t-37 1t-0.5 20t48.5 28l-21 33q-3 2 1.5 5.5t9.5 3.5q1 0 7 -1.5t13 -3t13 -3t8 -1.5h5h6q6 4 21 15.5t32 25t31 25.5t20 17q5 3 13.5 11.5t18.5 19t19 19.5l13 13q6 7 11 18.5t11.5 21t15 17t20.5 7.5q10 0 13 -7t3 -15q0 -9 -3.5 -16t-7.5 -14.5
t-7.5 -15t-3.5 -16.5v-208q52 0 79 9.5t45.5 26.5t36 39.5t50.5 47.5v-11q0 -20 -14 -41t-36 -40t-49 -35t-54.5 -26.5t-52.5 -14.5t-42 0q-25 0 -46.5 7t-41.5 18.5t-41 24t-45 23.5zM138 93q6 -13 23 -23.5t37.5 -18t41.5 -11.5t38 -4q0 44 -3 87t-11 86q-4 -2 -16 -10.5
t-16 -11.5l-18 -18t-28.5 -28t-29 -29t-18.5 -19zM204 412q6 11 11.5 19t11.5 15.5t12 16t12 21.5q16 31 33 46t27.5 13t10 -19.5t-20.5 -49.5q-17 -26 -37 -48t-55 -30q-3 1 -5 7t0 9z" />
    <glyph glyph-name="Scaron" unicode="&#x160;" horiz-adv-x="889" 
d="M28 28q-3 0 -6.5 5.5t-6 12t-4 13.5t-1.5 9q0 6 23.5 13.5t57.5 19t70 27t60 38.5q-17 64 -17.5 115t20.5 90t65 67.5t117 49.5q-6 -5 -5.5 -9t3 -7t4 -5.5t-1.5 -5.5q-53 -26 -92 -48t-60 -52t-22.5 -73t20.5 -110q59 44 113.5 81.5t110.5 77.5t117.5 86.5t136.5 108.5
l21 284q3 34 17.5 70t39.5 65t56.5 47.5t67.5 18.5q59 -13 77.5 -43.5t9 -70.5t-40 -87.5t-68 -96.5t-75 -96.5t-61.5 -86.5q14 -96 8 -188.5t-32 -169.5t-71.5 -129t-110.5 -66t-149 18t-188 125zM272 141q85 -79 157 -107t128 -16.5t96 55.5t63 108.5t28 143.5t-10 161z
M931 985q-44 -5 -72.5 -28t-44.5 -56.5t-23.5 -74.5t-10 -83.5t-4 -82t-6.5 -70.5q13 11 35 36t47 57.5t50 69.5t45 70.5t32.5 62t12.5 45.5q0 27 -18.5 40.5t-42.5 13.5zM985 1192q5 5 16 5t19 -3.5t8 -8.5q0 -1 -0.5 -1t-0.5 -1v-1q-33 -76 -71.5 -102.5t-78.5 -20t-79 41
t-73 81.5q1 1 6.5 3.5t12 4.5t12 3.5t8.5 1.5q14 -14 31 -32.5t35.5 -34t37.5 -24t39 -4t39.5 25.5t38.5 66z" />
    <glyph glyph-name="scaron" unicode="&#x161;" horiz-adv-x="492" 
d="M95 61q-35 -23 -62 -28t-37 1t-0.5 20t48.5 28l-21 33q-3 2 1.5 5.5t9.5 3.5q1 0 7 -1.5t13 -3t13 -3t8 -1.5h5h6q6 4 21 15.5t32 25t31 25.5t20 17q5 3 13.5 11.5t18.5 19t19 19.5l13 13q6 7 11 18.5t11.5 21t15 17t20.5 7.5q10 0 13 -7t3 -15q0 -9 -3.5 -16t-7.5 -14.5
t-7.5 -15t-3.5 -16.5v-208q52 0 79 9.5t45.5 26.5t36 39.5t50.5 47.5v-11q0 -20 -14 -41t-36 -40t-49 -35t-54.5 -26.5t-52.5 -14.5t-42 0q-25 0 -46.5 7t-41.5 18.5t-41 24t-45 23.5zM138 93q6 -13 23 -23.5t37.5 -18t41.5 -11.5t38 -4q0 44 -3 87t-11 86q-4 -2 -16 -10.5
t-16 -11.5l-18 -18t-28.5 -28t-29 -29t-18.5 -19zM351 504q5 5 16 5t19 -3.5t8 -8.5q0 -1 -0.5 -1t-0.5 -1v-1q-33 -76 -71.5 -102.5t-78.5 -20t-79 41t-73 81.5q1 1 6.5 3.5t12 4.5t12 3.5t8.5 1.5q14 -14 31 -32.5t35.5 -34t37.5 -24t39 -4t39.5 25.5t38.5 66z" />
    <glyph glyph-name="Tcaron" unicode="&#x164;" horiz-adv-x="762" 
d="M14 236q0 24 8 52.5t22.5 53.5t36.5 41t52 16q12 0 27.5 -5.5t15.5 -22.5q-26 0 -50 -9t-41.5 -25t-28.5 -40.5t-11 -54.5q0 -43 24.5 -79.5t61.5 -63.5t80.5 -42.5t82.5 -15.5q77 0 140 39.5t107 97.5q95 132 141.5 291.5t47.5 328.5q-34 -27 -67.5 -51.5t-72 -43
t-83.5 -27.5t-103 -4q-29 0 -60 3.5t-61.5 5.5t-61.5 0t-59 -11v139q16 7 22.5 0t8.5 -22t0 -33t-3 -33q62 0 119 -9.5t117 -9.5q42 0 86.5 11t86 30.5t78 46.5t62.5 60q2 13 5.5 35t8.5 46t14.5 45t25.5 33q19 0 29.5 -17t12.5 -36q0 -21 -9 -38t-20 -32.5t-21.5 -31
t-12.5 -35.5q-1 -10 -4 -32.5t-6.5 -50.5t-8 -59t-9 -59t-8.5 -50t-6 -32q-11 -52 -30 -110.5t-46 -117t-62.5 -112.5t-79.5 -95.5t-97.5 -66t-115.5 -24.5q-45 0 -95 17t-92 46.5t-70 71t-28 91.5zM803 956q-5 -11 -7.5 -22t-2.5 -31q8 9 9.5 17.5t1.5 19.5q0 2 -0.5 8
t-0.5 8zM726 1192q5 5 16 5t19 -3.5t8 -8.5q0 -1 -0.5 -1t-0.5 -1v-1q-33 -76 -71.5 -102.5t-78.5 -20t-79 41t-73 81.5q1 1 6.5 3.5t12 4.5t12 3.5t8.5 1.5q14 -14 31 -32.5t35.5 -34t37.5 -24t39 -4t39.5 25.5t38.5 66z" />
    <glyph glyph-name="Uring" unicode="&#x16e;" horiz-adv-x="842" 
d="M145 190v10.5t0.5 13t1 11.5t0.5 6l64 389v42q-15 -10 -28.5 -14t-26 -6t-25 -2h-29.5q-4 0 -17 -0.5t-27.5 1.5t-26 7.5t-11.5 18.5q0 1 1 3t1 3q14 10 25 15.5t27 5.5q2 0 4.5 -3t-4.5 -18q4 -1 15.5 -1.5t15.5 -0.5q22 0 42 7t39 16t38 16.5t39 7.5v-25l-85 -483v-15
q0 -21 5.5 -47t18 -49.5t31.5 -40t46 -16.5q16 0 31 7t27.5 18.5t23 24t18.5 24.5q34 49 56 100t41.5 103t40 104t50.5 102l54 210q1 6 5.5 8.5t9.5 2.5q11 0 13.5 -9t2.5 -17q0 -46 -8.5 -92.5t-18.5 -93.5t-18.5 -94t-8.5 -94q0 -48 6.5 -98t27 -91t58 -68t97.5 -27
q29 0 45.5 7.5t38.5 24.5q2 0 7 -4t5 -6q0 -18 -11.5 -29t-27.5 -16t-32.5 -6.5t-28.5 -1.5q-56 0 -94.5 20t-63.5 52.5t-37.5 76t-18 90t-5 94t2.5 88.5q-3 -10 -11 -30l-18 -45t-21.5 -52.5t-22.5 -52t-19.5 -44t-12.5 -28.5q-13 -28 -30.5 -61.5t-40.5 -61.5t-52.5 -47.5
t-66.5 -19.5q-36 0 -61 16.5t-39 42.5t-20.5 58t-6.5 63zM418 787q-25 0 -44 20.5t-17 50.5q0 36 20 56.5t52 20.5q27 0 47 -13t20 -48q0 -38 -23 -62.5t-55 -24.5zM368 857q0 -27 18 -40.5t39 -13.5q7 0 16.5 4t19 10t15.5 14.5t6 19.5q4 22 -0.5 35t-13 20t-19 9t-16.5 3
q-27 0 -46 -15t-19 -46z" />
    <glyph glyph-name="uring" unicode="&#x16f;" horiz-adv-x="421" 
d="M95 289q11 -22 4 -49t-20.5 -57.5t-28.5 -64.5t-19 -70q0 -20 9.5 -23t28.5 -3q22 0 44 13.5t42 36t36.5 51t28 56t18.5 52.5t7 41l6 7q2 2 3.5 4.5t2.5 2.5q4 0 9.5 -2.5t5.5 -9.5q-17 -92 -14 -141.5t18 -72.5t36 -26t39 -2q68 33 92.5 37t18.5 -6.5t-37 -27.5t-74 -24
q-65 0 -97 33.5t-24 103.5q-14 -28 -26.5 -57t-30 -51.5t-44.5 -36t-68 -13.5q-23 2 -40 14t-17.5 45t20 90.5t71.5 149.5zM208 365q-25 0 -44 20.5t-17 50.5q0 36 20 56.5t52 20.5q27 0 47 -13t20 -48q0 -38 -23 -62.5t-55 -24.5zM158 435q0 -27 18 -40.5t39 -13.5
q7 0 16.5 4t19 10t15.5 14.5t6 19.5q4 22 -0.5 35t-13 20t-19 9t-16.5 3q-27 0 -46 -15t-19 -46z" />
    <glyph glyph-name="Uhungarumlaut" unicode="&#x170;" horiz-adv-x="842" 
d="M145 190v10.5t0.5 13t1 11.5t0.5 6l64 389v42q-15 -10 -28.5 -14t-26 -6t-25 -2h-29.5q-4 0 -17 -0.5t-27.5 1.5t-26 7.5t-11.5 18.5q0 1 1 3t1 3q14 10 25 15.5t27 5.5q2 0 4.5 -3t-4.5 -18q4 -1 15.5 -1.5t15.5 -0.5q22 0 42 7t39 16t38 16.5t39 7.5v-25l-85 -483v-15
q0 -21 5.5 -47t18 -49.5t31.5 -40t46 -16.5q16 0 31 7t27.5 18.5t23 24t18.5 24.5q34 49 56 100t41.5 103t40 104t50.5 102l54 210q1 6 5.5 8.5t9.5 2.5q11 0 13.5 -9t2.5 -17q0 -46 -8.5 -92.5t-18.5 -93.5t-18.5 -94t-8.5 -94q0 -48 6.5 -98t27 -91t58 -68t97.5 -27
q29 0 45.5 7.5t38.5 24.5q2 0 7 -4t5 -6q0 -18 -11.5 -29t-27.5 -16t-32.5 -6.5t-28.5 -1.5q-56 0 -94.5 20t-63.5 52.5t-37.5 76t-18 90t-5 94t2.5 88.5q-3 -10 -11 -30l-18 -45t-21.5 -52.5t-22.5 -52t-19.5 -44t-12.5 -28.5q-13 -28 -30.5 -61.5t-40.5 -61.5t-52.5 -47.5
t-66.5 -19.5q-36 0 -61 16.5t-39 42.5t-20.5 58t-6.5 63zM353 823q7 11 12.5 19t11 15.5t11.5 16t13 21.5q16 31 33 46t27 13t9.5 -19.5t-19.5 -49.5q-18 -26 -38 -48t-54 -30q-4 1 -6 7t0 9zM462 818q6 11 11.5 19t11.5 15.5t12 16t12 21.5q16 31 33 46t27.5 13t10 -19.5
t-20.5 -49.5q-17 -26 -37 -48t-55 -30q-3 1 -5 7t0 9z" />
    <glyph glyph-name="uhungarumlaut" unicode="&#x171;" horiz-adv-x="421" 
d="M95 289q11 -22 4 -49t-20.5 -57.5t-28.5 -64.5t-19 -70q0 -20 9.5 -23t28.5 -3q22 0 44 13.5t42 36t36.5 51t28 56t18.5 52.5t7 41l6 7q2 2 3.5 4.5t2.5 2.5q4 0 9.5 -2.5t5.5 -9.5q-17 -92 -14 -141.5t18 -72.5t36 -26t39 -2q68 33 92.5 37t18.5 -6.5t-37 -27.5t-74 -24
q-65 0 -97 33.5t-24 103.5q-14 -28 -26.5 -57t-30 -51.5t-44.5 -36t-68 -13.5q-23 2 -40 14t-17.5 45t20 90.5t71.5 149.5zM100 383q7 11 12.5 19t11 15.5t11.5 16t13 21.5q16 31 33 46t27 13t9.5 -19.5t-19.5 -49.5q-18 -26 -38 -48t-54 -30q-4 1 -6 7t0 9zM209 378
q6 11 11.5 19t11.5 15.5t12 16t12 21.5q16 31 33 46t27.5 13t10 -19.5t-20.5 -49.5q-17 -26 -37 -48t-55 -30q-3 1 -5 7t0 9z" />
    <glyph glyph-name="Ydieresis" unicode="&#x178;" horiz-adv-x="665" 
d="M72 -211q-15 20 -23 42.5t-10 39.5t1.5 27.5t12 5.5t21.5 -27.5t30 -71.5q54 -103 101 -152t89 -57t77.5 21t65 83t53 127.5t40.5 155.5t27 166t13 160q-17 -63 -46 -98t-62 -41.5t-65 15t-56 71.5t-34 129t0 186q-10 -2 -24.5 -10t-29.5 -18.5t-30.5 -19.5t-28 -13.5
t-20.5 -2t-9 17.5q14 6 32 18t37 24.5t37 23t32 15t23.5 1t11.5 -19.5q3 -30 2.5 -66.5t0 -74t4 -75t14.5 -69t31 -55.5t53 -35q44 10 71 41t41.5 72.5t21 90.5t10.5 97.5t8.5 91.5t15.5 74l22 -8q-3 -140 -14 -278t-29.5 -263.5t-44.5 -233t-60.5 -185t-77 -120t-94 -38
t-112 60t-129.5 175.5zM362 778q8 0 20 -12t12 -21q-7 -25 -21.5 -26t-25 10t-10 25.5t24.5 23.5zM499 778q8 0 20 -12t12 -21q-7 -25 -21.5 -26t-24.5 10t-9.5 25.5t23.5 23.5z" />
    <glyph glyph-name="Zacute" unicode="&#x179;" horiz-adv-x="803" 
d="M1234 -28q-50 -66 -110.5 -92.5t-130.5 -26.5q-62 0 -129.5 17.5t-137.5 44.5t-140 58t-137.5 57.5t-131.5 44.5t-120 18q-43 0 -80.5 -12t-70.5 -40q-3 0 -7.5 -0.5t-9 0.5t-9 3.5t-5.5 7.5q20 19 35.5 30.5t30.5 20.5t34 16.5t47 17.5q3 0 11 4l10 5l410 316l95 105v10
q-23 0 -46.5 -5.5t-46 -11t-45.5 -10.5t-46 -5q-21 0 -37 1.5t-31.5 5t-33 9.5t-40.5 17q-8 -12 -18 -20t-23 -11v119q14 0 18.5 -3.5t6.5 -8.5t4.5 -11.5t11.5 -12.5q22 -16 42 -24.5t40 -12t42 -4.5t49 -1q48 0 96 6.5t88 35.5q18 13 33.5 34.5t31.5 42t34.5 35.5t43.5 15
q12 0 19 -3.5t7 -18.5q0 -12 -23 -39.5t-58.5 -63.5t-78 -76t-81 -75.5t-68 -63t-38.5 -38.5q-12 -8 -34 -25.5t-50 -39t-58.5 -46t-59 -46t-50.5 -39t-32 -25.5q-3 -2 -11 -10.5t-10 -10.5q28 3 74.5 -13t105.5 -43t128 -58.5t143.5 -59.5t151 -46t151.5 -18q59 0 111 13
q27 5 43 11.5t28 15t23.5 20t32.5 27.5q1 1 2.5 -6.5t3.5 -7.5zM846 715q0 3 -4.5 0t-9.5 -8t-8 -9.5t0 -4.5q5 -1 13.5 7.5t8.5 14.5zM553 750q6 11 11.5 19t11.5 15.5t12 16t12 21.5q16 31 33 46t27.5 13t10 -19.5t-20.5 -49.5q-17 -26 -37 -48t-55 -30q-3 1 -5 7t0 9z
" />
    <glyph glyph-name="zacute" unicode="&#x17a;" horiz-adv-x="550" 
d="M144 -326q0 30 19 57t35 48q7 10 26.5 34t41 50.5t41 51t27.5 33.5t9.5 14.5t1.5 14.5q0 11 -1 25.5t-5 28t-13 23t-23 9.5q-13 0 -24.5 -6.5t-23 -15t-25 -15.5t-28.5 -7q-16 0 -26.5 3t-10.5 21q0 13 9.5 20t23.5 11t31 8.5t30.5 15t23.5 28t10 49.5q0 20 -7 33t-29 13
q-35 0 -66 -23.5t-59.5 -56.5t-54 -70t-48.5 -63l-22 10q26 31 49.5 70.5t52.5 74.5t68 58t94 21q26 0 38 -16t16 -38t2 -45.5t-3 -38.5q15 -12 23 -23.5t14 -25t11 -27t14 -28.5q18 13 44.5 31t55.5 34.5t58 27.5t53 11q2 0 6 -4t4 -6l-10 -10q-58 -22 -113.5 -50
t-97.5 -77q0 -24 -9.5 -61t-27 -77.5t-41 -78.5t-51 -61.5t-56.5 -27.5t-57 23zM334 -95q-17 -13 -42 -40.5t-49 -60t-41 -66.5t-17 -59q0 -2 0.5 -8t1.5 -8q31 1 57.5 28t46.5 63.5t32 74t12 60.5v8.5t-1 7.5zM234 52q-8 0 -13 -2.5t-13 -7.5q1 0 2.5 -0.5t3.5 -0.5
q7 0 12 3t14 8h-6zM197 352q6 11 11.5 19t11.5 15.5t12 16t12 21.5q16 31 33 46t27.5 13t10 -19.5t-20.5 -49.5q-17 -26 -37 -48t-55 -30q-3 1 -5 7t0 9z" />
    <glyph glyph-name="Zdotaccent" unicode="&#x17b;" horiz-adv-x="803" 
d="M1234 -28q-50 -66 -110.5 -92.5t-130.5 -26.5q-62 0 -129.5 17.5t-137.5 44.5t-140 58t-137.5 57.5t-131.5 44.5t-120 18q-43 0 -80.5 -12t-70.5 -40q-3 0 -7.5 -0.5t-9 0.5t-9 3.5t-5.5 7.5q20 19 35.5 30.5t30.5 20.5t34 16.5t47 17.5q3 0 11 4l10 5l410 316l95 105v10
q-23 0 -46.5 -5.5t-46 -11t-45.5 -10.5t-46 -5q-21 0 -37 1.5t-31.5 5t-33 9.5t-40.5 17q-8 -12 -18 -20t-23 -11v119q14 0 18.5 -3.5t6.5 -8.5t4.5 -11.5t11.5 -12.5q22 -16 42 -24.5t40 -12t42 -4.5t49 -1q48 0 96 6.5t88 35.5q18 13 33.5 34.5t31.5 42t34.5 35.5t43.5 15
q12 0 19 -3.5t7 -18.5q0 -12 -23 -39.5t-58.5 -63.5t-78 -76t-81 -75.5t-68 -63t-38.5 -38.5q-12 -8 -34 -25.5t-50 -39t-58.5 -46t-59 -46t-50.5 -39t-32 -25.5q-3 -2 -11 -10.5t-10 -10.5q28 3 74.5 -13t105.5 -43t128 -58.5t143.5 -59.5t151 -46t151.5 -18q59 0 111 13
q27 5 43 11.5t28 15t23.5 20t32.5 27.5q1 1 2.5 -6.5t3.5 -7.5zM846 715q0 3 -4.5 0t-9.5 -8t-8 -9.5t0 -4.5q5 -1 13.5 7.5t8.5 14.5zM558 771q37 0 47 -12t10 -33q-2 -23 -13.5 -36t-26.5 -18t-30.5 -2.5t-24.5 12t-8.5 27t16.5 40.5q2 5 12 13.5t18 8.5zM558 771
q37 0 47 -12t10 -33q-2 -23 -13.5 -36t-26.5 -18t-30.5 -2.5t-24.5 12t-8.5 27t16.5 40.5q2 5 12 13.5t18 8.5z" />
    <glyph glyph-name="zdotaccent" unicode="&#x17c;" horiz-adv-x="550" 
d="M144 -326q0 30 19 57t35 48q7 10 26.5 34t41 50.5t41 51t27.5 33.5t9.5 14.5t1.5 14.5q0 11 -1 25.5t-5 28t-13 23t-23 9.5q-13 0 -24.5 -6.5t-23 -15t-25 -15.5t-28.5 -7q-16 0 -26.5 3t-10.5 21q0 13 9.5 20t23.5 11t31 8.5t30.5 15t23.5 28t10 49.5q0 20 -7 33t-29 13
q-35 0 -66 -23.5t-59.5 -56.5t-54 -70t-48.5 -63l-22 10q26 31 49.5 70.5t52.5 74.5t68 58t94 21q26 0 38 -16t16 -38t2 -45.5t-3 -38.5q15 -12 23 -23.5t14 -25t11 -27t14 -28.5q18 13 44.5 31t55.5 34.5t58 27.5t53 11q2 0 6 -4t4 -6l-10 -10q-58 -22 -113.5 -50
t-97.5 -77q0 -24 -9.5 -61t-27 -77.5t-41 -78.5t-51 -61.5t-56.5 -27.5t-57 23zM334 -95q-17 -13 -42 -40.5t-49 -60t-41 -66.5t-17 -59q0 -2 0.5 -8t1.5 -8q31 1 57.5 28t46.5 63.5t32 74t12 60.5v8.5t-1 7.5zM234 52q-8 0 -13 -2.5t-13 -7.5q1 0 2.5 -0.5t3.5 -0.5
q7 0 12 3t14 8h-6zM237 425q37 0 47 -12t10 -33q-2 -23 -13.5 -36t-26.5 -18t-30.5 -2.5t-24.5 12t-8.5 27t16.5 40.5q2 5 12 13.5t18 8.5zM237 425q37 0 47 -12t10 -33q-2 -23 -13.5 -36t-26.5 -18t-30.5 -2.5t-24.5 12t-8.5 27t16.5 40.5q2 5 12 13.5t18 8.5z" />
    <glyph glyph-name="Zcaron" unicode="&#x17d;" horiz-adv-x="803" 
d="M1234 -28q-50 -66 -110.5 -92.5t-130.5 -26.5q-62 0 -129.5 17.5t-137.5 44.5t-140 58t-137.5 57.5t-131.5 44.5t-120 18q-43 0 -80.5 -12t-70.5 -40q-3 0 -7.5 -0.5t-9 0.5t-9 3.5t-5.5 7.5q20 19 35.5 30.5t30.5 20.5t34 16.5t47 17.5q3 0 11 4l10 5l410 316l95 105v10
q-23 0 -46.5 -5.5t-46 -11t-45.5 -10.5t-46 -5q-21 0 -37 1.5t-31.5 5t-33 9.5t-40.5 17q-8 -12 -18 -20t-23 -11v119q14 0 18.5 -3.5t6.5 -8.5t4.5 -11.5t11.5 -12.5q22 -16 42 -24.5t40 -12t42 -4.5t49 -1q48 0 96 6.5t88 35.5q18 13 33.5 34.5t31.5 42t34.5 35.5t43.5 15
q12 0 19 -3.5t7 -18.5q0 -12 -23 -39.5t-58.5 -63.5t-78 -76t-81 -75.5t-68 -63t-38.5 -38.5q-12 -8 -34 -25.5t-50 -39t-58.5 -46t-59 -46t-50.5 -39t-32 -25.5q-3 -2 -11 -10.5t-10 -10.5q28 3 74.5 -13t105.5 -43t128 -58.5t143.5 -59.5t151 -46t151.5 -18q59 0 111 13
q27 5 43 11.5t28 15t23.5 20t32.5 27.5q1 1 2.5 -6.5t3.5 -7.5zM846 715q0 3 -4.5 0t-9.5 -8t-8 -9.5t0 -4.5q5 -1 13.5 7.5t8.5 14.5zM745 869q5 5 16 5t19 -3.5t8 -8.5q0 -1 -0.5 -1t-0.5 -1v-1q-33 -76 -71.5 -102.5t-78.5 -20t-79 41t-73 81.5q1 1 6.5 3.5t12 4.5
t12 3.5t8.5 1.5q14 -14 31 -32.5t35.5 -34t37.5 -24t39 -4t39.5 25.5t38.5 66z" />
    <glyph glyph-name="zcaron" unicode="&#x17e;" horiz-adv-x="550" 
d="M144 -326q0 30 19 57t35 48q7 10 26.5 34t41 50.5t41 51t27.5 33.5t9.5 14.5t1.5 14.5q0 11 -1 25.5t-5 28t-13 23t-23 9.5q-13 0 -24.5 -6.5t-23 -15t-25 -15.5t-28.5 -7q-16 0 -26.5 3t-10.5 21q0 13 9.5 20t23.5 11t31 8.5t30.5 15t23.5 28t10 49.5q0 20 -7 33t-29 13
q-35 0 -66 -23.5t-59.5 -56.5t-54 -70t-48.5 -63l-22 10q26 31 49.5 70.5t52.5 74.5t68 58t94 21q26 0 38 -16t16 -38t2 -45.5t-3 -38.5q15 -12 23 -23.5t14 -25t11 -27t14 -28.5q18 13 44.5 31t55.5 34.5t58 27.5t53 11q2 0 6 -4t4 -6l-10 -10q-58 -22 -113.5 -50
t-97.5 -77q0 -24 -9.5 -61t-27 -77.5t-41 -78.5t-51 -61.5t-56.5 -27.5t-57 23zM334 -95q-17 -13 -42 -40.5t-49 -60t-41 -66.5t-17 -59q0 -2 0.5 -8t1.5 -8q31 1 57.5 28t46.5 63.5t32 74t12 60.5v8.5t-1 7.5zM234 52q-8 0 -13 -2.5t-13 -7.5q1 0 2.5 -0.5t3.5 -0.5
q7 0 12 3t14 8h-6zM316 455q5 5 16 5t19 -3.5t8 -8.5q0 -1 -0.5 -1t-0.5 -1v-1q-33 -76 -71.5 -102.5t-78.5 -20t-79 41t-73 81.5q1 1 6.5 3.5t12 4.5t12 3.5t8.5 1.5q14 -14 31 -32.5t35.5 -34t37.5 -24t39 -4t39.5 25.5t38.5 66z" />
    <glyph glyph-name="florin" unicode="&#x192;" horiz-adv-x="298" 
d="M76 227q-10 118 13 173.5t91 53.5q39 -4 66.5 -14t43 -21t17.5 -20t-10.5 -10t-41 9t-72.5 36q-23 0 -39.5 -10.5t-26 -28t-14 -39t-4.5 -44.5q0 -18 1.5 -36.5t10.5 -37.5q16 3 37.5 3t41 -6.5t33 -20.5t13.5 -39q-12 1 -27.5 7t-32.5 11.5t-33 7.5t-26 -4v-6l44 -195
l1.5 -15t3.5 -36.5t5 -46.5t5 -47t3.5 -37l1.5 -15q-45 -4 -77 3t-42 15.5t8 14.5t74 0l-52 339q-5 18 -18 22t-26.5 5t-24.5 5t-11 22q0 6 7.5 8.5t16.5 2.5t17.5 -2.5t12.5 -3.5z" />
    <glyph glyph-name="circumflex" unicode="&#x2c6;" horiz-adv-x="325" 
d="M240 516q-3 6 -10 22t-14 33.5t-13.5 33.5t-9.5 22q-2 4 -8.5 13.5t-8.5 12.5q-16 -9 -30 -31t-27.5 -44t-26.5 -39.5t-29 -17.5q-6 0 -10 7q6 13 21.5 38.5t35.5 54t42 54.5t41 39q1 0 1.5 -0.5t2.5 -0.5h3q0 -19 6 -41t15 -43.5t18.5 -41t15.5 -32.5q0 -1 2.5 -5l5 -8
t4.5 -8.5t2 -5.5v-1q0 -1 0.5 -1.5t0.5 -1.5q0 -5 -6 -10t-14 -5q-7 0 -10 7z" />
    <glyph glyph-name="caron" unicode="&#x2c7;" horiz-adv-x="331" 
d="M266 683q5 5 16 5t19 -3.5t8 -8.5q0 -1 -0.5 -1t-0.5 -1v-1q-33 -76 -71.5 -102.5t-78.5 -20t-79 41t-73 81.5q1 1 6.5 3.5t12 4.5t12 3.5t8.5 1.5q14 -14 31 -32.5t35.5 -34t37.5 -24t39 -4t39.5 25.5t38.5 66z" />
    <glyph glyph-name="breve" unicode="&#x2d8;" horiz-adv-x="331" 
d="M266 683q5 5 16 5t19 -3.5t8 -8.5q0 -1 -0.5 -1t-0.5 -1v-1q-25 -47 -54 -73.5t-57.5 -36t-56.5 -4t-53.5 21t-46 39.5t-34.5 53q1 1 6.5 3.5t12 4.5t12 3.5t8.5 1.5q7 -10 19.5 -24t29 -26t36.5 -20t42.5 -5t46 19.5t47.5 52.5z" />
    <glyph glyph-name="dotaccent" unicode="&#x2d9;" horiz-adv-x="181" 
d="M89 682q37 0 47 -12t10 -33q-2 -23 -13.5 -36t-26.5 -18t-30.5 -2.5t-24.5 12t-8.5 27t16.5 40.5q2 5 12 13.5t18 8.5zM89 682q37 0 47 -12t10 -33q-2 -23 -13.5 -36t-26.5 -18t-30.5 -2.5t-24.5 12t-8.5 27t16.5 40.5q2 5 12 13.5t18 8.5z" />
    <glyph glyph-name="ring" unicode="&#x2da;" horiz-adv-x="853" 
d="M153 600q-25 0 -44 20.5t-17 50.5q0 36 20 56.5t52 20.5q27 0 47 -13t20 -48q0 -38 -23 -62.5t-55 -24.5zM103 670q0 -27 18 -40.5t39 -13.5q7 0 16.5 4t19 10t15.5 14.5t6 19.5q4 22 -0.5 35t-13 20t-19 9t-16.5 3q-27 0 -46 -15t-19 -46z" />
    <glyph glyph-name="tilde" unicode="&#x2dc;" horiz-adv-x="420" 
d="M121 622q-20 0 -35.5 -14.5t-27.5 -28.5h-12q-2 26 7 42.5t23 25t29 9.5t24 -3q19 0 35.5 -7.5t32 -16.5t32.5 -17t38 -8h30t25.5 5t18.5 17t7 36q0 33 -8 47t-33 14q0 14 10 16t18 2q24 0 35 -22t11 -50q0 -33 -9.5 -53t-25 -31.5t-36 -15.5t-43.5 -4q-21 0 -40 9
t-36 19.5t-34.5 19.5t-35.5 9z" />
    <glyph glyph-name="hungarumlaut" unicode="&#x2dd;" horiz-adv-x="268" 
d="M18 556q7 11 12.5 19t11 15.5t11.5 16t13 21.5q16 31 33 46t27 13t9.5 -19.5t-19.5 -49.5q-18 -26 -38 -48t-54 -30q-4 1 -6 7t0 9zM127 551q6 11 11.5 19t11.5 15.5t12 16t12 21.5q16 31 33 46t27.5 13t10 -19.5t-20.5 -49.5q-17 -26 -37 -48t-55 -30q-3 1 -5 7t0 9z
" />
    <glyph glyph-name="endash" unicode="&#x2013;" horiz-adv-x="481" 
d="M54 268q0 11 3.5 15.5t10 5.5t14 0.5t15.5 -0.5q8 1 33.5 2t59 1.5t71.5 1.5t72 2t59 1.5t33 1.5h6q9 0 12.5 -6.5t3.5 -14.5q0 -10 -4 -15t-18 -6l-359 -9q-9 -1 -10.5 7.5t-1.5 12.5z" />
    <glyph glyph-name="emdash" unicode="&#x2014;" horiz-adv-x="706" 
d="M54 268q0 11 3.5 15.5t10 5.5t14 0.5t15.5 -0.5q8 1 47.5 2.5t95 3t118 3.5t117.5 4t94.5 3t47.5 2h7q9 0 12.5 -6.5t3.5 -14.5q0 -10 -4 -15t-19 -6l-551 -17q-9 -1 -10.5 7.5t-1.5 12.5z" />
    <glyph glyph-name="quoteleft" unicode="&#x2018;" horiz-adv-x="104" 
d="M27 436q0 21 10 46t10 48q0 21 -6 34.5t-6 33.5q20 0 38 -17t16 -40q-2 -14 -5.5 -30t-10 -32t-15.5 -30.5t-21 -23.5q-2 0 -6 4t-4 7z" />
    <glyph glyph-name="quoteright" unicode="&#x2019;" horiz-adv-x="153" 
d="M53 414q6 20 22 42t22 44q5 20 2.5 35t3.5 34q19 -6 32 -27t5 -43q-5 -13 -12.5 -27.5t-18.5 -28t-23 -25.5t-26 -17q-2 0 -4.5 5t-2.5 8z" />
    <glyph glyph-name="quotesinglbase" unicode="&#x201a;" horiz-adv-x="138" 
d="M48 -47q0 20 10.5 45.5t10.5 48.5q0 21 -6.5 34t-6.5 34q21 0 39 -17t16 -41q-2 -13 -6 -29.5t-10.5 -32t-15 -30t-21.5 -23.5q-2 0 -6 4t-4 7z" />
    <glyph glyph-name="quotedblleft" unicode="&#x201c;" horiz-adv-x="289" 
d="M101 551q0 8 4 14.5t13 6.5q12 0 19 -8.5t11.5 -20.5t6 -24t1.5 -20q0 -19 -2 -31t-11 -33l-4 -1q-6 0 -12.5 16t-12 36t-9.5 39t-4 26zM194 562q0 10 8 18.5t17 8.5q19 0 27.5 -11.5t11 -27.5t2 -33t-0.5 -28v-9t-0.5 -12t-1 -10.5l-0.5 -4.5l-10 -12q-3 10 -12 26
t-18 34.5t-16 35.5t-7 25z" />
    <glyph glyph-name="quotedblright" unicode="&#x201d;" horiz-adv-x="289" 
d="M101 551q0 8 4 14.5t13 6.5q12 0 19 -8.5t11.5 -20.5t6 -24t1.5 -20q0 -19 -2 -31t-11 -33l-4 -1q-6 0 -12.5 16t-12 36t-9.5 39t-4 26zM194 562q0 10 8 18.5t17 8.5q19 0 27.5 -11.5t11 -27.5t2 -33t-0.5 -28v-9t-0.5 -12t-1 -10.5l-0.5 -4.5l-10 -12q-3 10 -12 26
t-18 34.5t-16 35.5t-7 25z" />
    <glyph glyph-name="quotedblbase" unicode="&#x201e;" horiz-adv-x="244" 
d="M43 50q0 8 3.5 15t12.5 7q13 0 20 -9t11 -20.5t5.5 -24t1.5 -20.5q0 -18 -2 -30.5t-10 -33.5l-4 -1q-6 0 -13 16t-12.5 36t-9 39t-3.5 26zM135 61q0 11 8.5 19t17.5 8q18 0 27 -11t11.5 -27.5t2 -33.5t-0.5 -27v-9.5t-0.5 -12.5t-1 -10.5l-0.5 -4.5l-11 -11
q-3 9 -11.5 25.5t-17.5 34.5t-16.5 35t-7.5 25z" />
    <glyph glyph-name="dagger" unicode="&#x2020;" horiz-adv-x="279" 
d="M50 351q-3 -2 -13.5 -4t-22 -2t-20 2t-7.5 9q0 21 12.5 25t29 5t32.5 5t21 24l4 207l20 21q10 -3 11 -8t1 -12q0 -2 -0.5 -6t-0.5 -6l-4 -218v-5q13 -7 31.5 -5t38.5 7.5t39 12t33 7.5q0 -27 -14.5 -40.5t-36 -18t-46 -2.5t-43.5 5q-3 -7 0 -35t8 -66.5t11 -81.5
t11 -80.5t5.5 -63.5t-5.5 -29q-17 -11 -24.5 5t-12.5 61.5t-10 118.5t-17 175z" />
    <glyph glyph-name="daggerdbl" unicode="&#x2021;" horiz-adv-x="279" 
d="M50 351q-3 -2 -13.5 -4t-22 -2t-20 2t-7.5 9q0 21 12.5 25t29 5t32.5 5t21 24l4 207q12 6 19 8.5t9.5 2t3 -3.5t0.5 -6q0 -2 -0.5 -6t-0.5 -6q-2 -82 -2.5 -127t-1 -66.5t-0.5 -25.5v-4q13 1 32 4t39 6.5t38.5 7t32.5 4.5q8 -19 -3.5 -29t-33.5 -15.5t-50.5 -7.5
t-52.5 -4q-1 -2 -0.5 -13.5t1 -26.5t2 -30.5t2.5 -25.5q63 6 96.5 3t34.5 -10.5t-30.5 -18t-95.5 -18.5q5 -39 11 -76t10 -67t5 -49.5t-6 -23.5q-14 -9 -21 -5.5t-11 27.5t-8 70.5t-11 122.5q-56 -7 -77.5 -2t-18 13t29 16t63.5 7q-1 8 -2 23t-2.5 31.5t-3 32t-2.5 24.5z
" />
    <glyph glyph-name="bullet" unicode="&#x2022;" horiz-adv-x="209" 
d="M109 299q36 0 46.5 -12t10.5 -33q-2 -22 -14 -35.5t-26.5 -18.5t-30 -2.5t-25 12t-9 27t17.5 41.5q2 4 11.5 12.5t18.5 8.5z" />
    <glyph glyph-name="ellipsis" unicode="&#x2026;" horiz-adv-x="412" 
d="M87 76q8 0 20 -12t12 -21q-7 -25 -21.5 -26t-25 10t-10 26t24.5 23zM224 76q8 0 20 -12t12 -21q-7 -25 -21.5 -26t-24.5 10t-9.5 26t23.5 23zM361 76q9 0 20.5 -12t11.5 -21q-7 -25 -21.5 -26t-24.5 10t-9.5 26t23.5 23z" />
    </font>
</defs>
</svg>
