<?xml version="1.0" standalone="no"?>
<!DOCTYPE svg PUBLIC "-//W3C//DTD SVG 1.1//EN" "http://www.w3.org/Graphics/SVG/1.1/DTD/svg11.dtd" >
<svg xmlns="http://www.w3.org/2000/svg" xmlns:xlink="http://www.w3.org/1999/xlink" version="1.1">
<metadata>
Created by FontForge 20170731 at Sun Jun  3 05:58:12 2001
 By Aleksey,,,
Copyright (c) FontShop, 1999. All rights reserved.
</metadata>
<defs>
<font id="MorganTwentyNine" horiz-adv-x="794" >
  <font-face 
    font-family="Morgan"
    font-weight="400"
    font-stretch="normal"
    units-per-em="1000"
    panose-1="0 0 4 0 0 0 0 0 0 0"
    ascent="800"
    descent="-200"
    x-height="761"
    cap-height="761"
    bbox="-1 -322 1429 1098"
    underline-thickness="57"
    underline-position="-188"
    unicode-range="U+0020-F002"
  />
<missing-glyph horiz-adv-x="500" 
d="M63 0v814h375v-814h-375zM125 63h250v689h-250v-689z" />
    <glyph glyph-name=".notdef" horiz-adv-x="500" 
d="M63 0v814h375v-814h-375zM125 63h250v689h-250v-689z" />
    <glyph glyph-name=".null" horiz-adv-x="0" 
 />
    <glyph glyph-name="nonmarkingreturn" horiz-adv-x="302" 
 />
    <glyph glyph-name="space" unicode=" " horiz-adv-x="302" 
 />
    <glyph glyph-name="exclam" unicode="!" horiz-adv-x="294" 
d="M265 108q0 -35 -24 -59t-60 -24q-34 0 -59 24t-25 59q0 34 25 59t59 25q21 0 41 -11l60 135v344l39 56v-28l-20 -30v-344l-55 -123q68 -32 68 -107q0 -44 -31.5 -73t-76.5 -29q-43 0 -71 19q-21 14 -21 27l2 11q13 -16 37.5 -28t41.5 -12q45 0 73 23t28 62q0 30 -16 53.5
t-40 29.5q25 -25 25 -59zM310 751l-59 -84v-345l-54 -120h-34l-56 131v325l-59 93h262z" />
    <glyph glyph-name="quotedbl" unicode="&#x22;" horiz-adv-x="225" 
d="M91 444l-28 220q-2 16 -2 31q0 66 43 66q42 0 42 -66q0 -6 -1 -17t-1 -14l-28 -220h-25zM210 444l-28 220q-2 16 -2 31q0 66 43 66q42 0 42 -66q0 -6 -1 -17t-1 -14l-28 -220h-25z" />
    <glyph glyph-name="numbersign" unicode="#" horiz-adv-x="742" 
d="M482 734l-81 -227h138l81 227h84l-81 -227h159l-23 -67h-160l-51 -144h160l-24 -66h-160l-82 -230h-83l81 230h-137l-82 -230h-84l82 230h-158l24 66h157l51 144h-156l23 67h157l81 227h84zM464 296l51 144h-138l-51 -144h138z" />
    <glyph glyph-name="dollar" unicode="$" horiz-adv-x="666" 
d="M407 -122h-29v152h-38v-152h-29v108q-46 7 -118 38q-93 40 -85 75q110 -80 203 -93v26q-226 24 -226 188q0 39 23 68t62 29q37 0 63 -28q23 -27 23 -62q0 -33 -21 -55.5t-54 -22.5q-18 0 -29 4q20 -42 75 -66l-15 36q71 8 71 83q0 38 -43 81q-8 7 -85 71q-49 41 -59 68
q-5 14 5 23q19 -43 74 -85q84 -64 88 -67q42 -42 42 -93q0 -64 -65 -94l16 -32q25 -8 55 -11v274q-105 31 -151 60q-77 49 -77 131q0 92 70 150q62 52 158 61v40h29v-38l21 1l17 -1v38h29v-41l35 -7v39h21v-46q138 -41 138 -157q0 -38 -24.5 -62.5t-60.5 -24.5q-27 0 -53 22
t-26 61q0 81 80 94q-34 37 -110 47v-228q136 -37 182 -92t46 -133q0 -94 -69 -154q-61 -53 -159 -68v-155zM552 446q35 16 58.5 48.5t23.5 66.5q0 36 -15 63q-8 16 -26 34q-15 15 -15 20q0 7 1 10q42 -25 59 -52.5t17 -74.5q0 -65 -66 -120q57 -45 77.5 -88.5t20.5 -116.5
q0 -93 -58 -157t-166 -87v-169h-119v18h98v166q108 22 166 82t58 148q0 69 -28 118q-26 45 -86 91zM311 654q-71 -9 -71 -67q0 -34 20 -67q26 -9 51 -15v149zM220 590q0 71 91 86v33q-62 -9 -96 -38t-34 -71q0 -40 48 -66q-9 21 -9 56zM340 65h38v257l-38 11v-268zM442 261
q33 0 61 -16q19 -11 20 -32q-27 18 -60 23v-154q90 34 90 105q0 45 -37 75q-33 26 -109 51v-245l35 8v185zM340 496l38 -9v224l-19 1h-19v-216z" />
    <glyph glyph-name="percent" unicode="%" horiz-adv-x="926" 
d="M898 237q0 -87 -39 -145q-46 -67 -128 -67q-75 0 -122 57t-47 155q0 86 40 146q46 68 129 68q74 0 120.5 -58t46.5 -156zM401 547q0 -98 -46.5 -155t-121.5 -57t-122 57t-47 155q0 86 40 146q46 68 129 68q82 0 128 -69q40 -59 40 -145zM706 703v-50l-325 -653h-84
l-19 20h88zM832 423q28 -6 59 -54q40 -61 39 -145q-1 -129 -61.5 -176.5t-129.5 -47.5q-64 0 -92 25q-9 6 -6 13q40 -26 101 -26q84 0 133 66q43 59 43 146q0 113 -86 199zM704 761l-354 -712h-84l354 712h84zM335 733q30 -9 59 -53q39 -60 38 -146q-1 -100 -45 -158
q-50 -64 -146 -66q-51 -1 -77 13q-21 11 -20 25q36 -26 101 -26q85 0 133 65q43 59 43 147q0 113 -86 199zM246 480q-25 0 -39 8v-71q0 -39 10 -59q6 -2 16 -2q33 0 46 25.5t13 91.5v24q-17 -17 -46 -17zM242 706q-35 0 -35 -48v-61q17 9 34 9q32 0 51 -19v35q0 48 -6 73
q-17 11 -44 11zM743 170q-25 0 -38 8v-71q0 -36 9 -59l17 -1q33 -2 46 24t13 92v25q-18 -18 -47 -18zM740 396q-35 0 -35 -48v-61q15 9 34 9q32 0 51 -19v35q0 51 -7 73q-17 11 -43 11zM292 535v10q0 20 -16 33t-38 13q-15 0 -27 -12t-12 -28q0 -12 9.5 -22.5t21.5 -10.5
q11 0 18.5 7.5t7.5 14.5l-2 4q-6 -8 -19 -8q-14 0 -14 19t20 19q32 0 32 -32q0 -38 -48 -38q-17 0 -29 13t-12 32q0 21 11 35v74q0 35 11.5 47.5t43.5 12.5q16 0 29 -4q-13 25 -46 25t-46 -25.5t-13 -91.5v-149q0 -88 26 -108q-5 18 -5 52v97q22 -22 51 -22q16 0 31 13
t15 30zM790 225v10q0 20 -16 33t-38 13q-16 0 -28 -12t-12 -28q0 -12 9.5 -22.5t21.5 -10.5q11 0 18.5 7.5t7.5 14.5l-2 4q-6 -8 -18 -8q-15 0 -15 20q0 18 21 18q12 0 21.5 -9t9.5 -23q0 -38 -48 -38q-17 0 -28.5 13.5t-11.5 31.5q0 22 10 36v73q0 34 12 47t43 13
q18 0 29 -4q-10 25 -45 25q-33 0 -46 -25.5t-13 -91.5v-149q0 -90 25 -108q-5 18 -5 52v97q22 -22 51 -22q17 0 32 12.5t15 30.5z" />
    <glyph glyph-name="ampersand" unicode="&#x26;" horiz-adv-x="723" 
d="M536 -69q0 -33 -20.5 -53.5t-51.5 -20.5t-39 25q11 -4 30 -4q57 0 57 53q0 6 -7 22t-7 20q0 5 4 9q34 -19 34 -51zM364 486l202 197v-27l-175 -170l159 -217l48 70l-130 129h327l-146 -122l-105 -151q62 -82 71 -97q36 -60 36 -112q0 -90 -68 -141q42 8 71 56
q26 44 26 90q0 73 -65 157l-38 49l90 130l123 102v-23l-105 -88l-82 -119l35 -49q63 -88 63 -157q0 -87 -61 -137q-54 -44 -152 -51l-30 -2q-57 -4 -94 25.5t-37 80.5q0 36 28 63.5t64 27.5q30 0 48.5 -18.5t18.5 -43.5q0 -17 -10.5 -31t-28.5 -14q-46 0 -46 40l3 34
q-42 -15 -42 -55q0 -31 24 -54t62 -23q75 0 122 40.5t47 108.5q0 41 -19 76q-7 15 -45 67l-8 -11q-45 -62 -116.5 -98.5t-147.5 -36.5q-71 0 -127 32q-10 7 -10 16q27 -10 82 -23q23 -3 69 -3q143 0 246 141l-17 23q-121 -142 -273 -142q-80 0 -135 48t-55 127q0 77 88 162
l134 130l-165 223h442l-234 -226l194 -262l18 25zM379 585h-123l51 -69zM304 465q-50 -46 -68 -71q-32 -44 -32 -91q0 -65 33 -110t90 -60q-85 64 -85 179q0 57 55 110l23 22zM501 198l-170 230l-16 -15q-52 -49 -52 -116q0 -46 35 -105q39 -66 81 -66q30 0 68 24
q34 21 54 48z" />
    <glyph glyph-name="quotesingle" unicode="'" horiz-adv-x="234" 
d="M220 733l16 -4t14 -12q25 -30 25 -96q0 -80 -32 -127q-17 -24 -50 -52q-39 -32 -63 -32q-7 0 -20 5q142 66 142 206q0 61 -32 112zM171 591q0 12 -11 12l-27 -3q-31 0 -51.5 22t-20.5 58q0 34 21 57.5t55 23.5q41 0 67 -34t26 -82q0 -69 -36 -126q-38 -62 -101 -80
q-2 10 -2 11q0 6 25 26q30 24 33 28q16 19 20 48l-20 -1q-33 -2 -56 21q-7 7 -7 14q0 3 1 6q32 -20 66 -20l18 2v17z" />
    <glyph glyph-name="parenleft" unicode="(" horiz-adv-x="282" 
d="M299 719l-13 -26q-19 -8 -24 -32q-2 -10 -2 -42v-616q0 -31 2 -42q5 -22 24 -32l13 -25q-37 13 -49 37q-8 18 -8 62v616q0 47 8 64q10 23 49 36zM219 -10q0 -50 19 -73q6 -8 61 -47v-8q-79 18 -140 56q-80 52 -80 117v552q0 66 80 117q60 39 140 57v-9q-50 -34 -61 -47
q-19 -24 -19 -72v-643z" />
    <glyph glyph-name="parenright" unicode=")" horiz-adv-x="282" 
d="M41 752v9q79 -18 140 -57q81 -52 81 -117v-552q0 -66 -81 -117q-60 -38 -140 -56v8q51 35 61 48q20 25 20 72v643q0 47 -12.5 64t-68.5 55zM81 -167l-14 12q86 15 146 55q77 51 77 126v570q0 58 -63 109q24 0 45 -23q36 -39 36 -93v-563q0 -81 -76 -134q-59 -42 -151 -59
z" />
    <glyph glyph-name="asterisk" unicode="*" horiz-adv-x="413" 
d="M308 419q0 -48 -46 -48q-45 0 -45 48q0 8 15 47.5t15 73.5q-28 -19 -55 -51.5t-34 -36.5q-13 -8 -28 -8q-18 0 -31 15t-13 33q0 23 15.5 33.5t56.5 17.5t74 23q-21 11 -66.5 20.5t-65.5 19.5q-14 9 -14 34q0 15 12 31t33 16q24 0 63 -47q24 -27 53 -47q0 33 -10 59
q-17 44 -18.5 50.5t-1.5 10.5q0 48 45 48q46 0 46 -48q0 -11 -15 -48.5t-15 -71.5q19 12 52 48t42.5 41t21.5 5q17 0 30.5 -15t13.5 -33q0 -41 -72 -49q-32 -4 -74 -24q17 -8 94 -26q52 -12 52 -49q0 -15 -10 -29q-13 -17 -34 -17q-12 0 -23 6.5t-41.5 40t-51.5 48.5
q0 -36 15 -74.5t15 -46.5z" />
    <glyph glyph-name="plus" unicode="+" horiz-adv-x="646" 
d="M451 0h-124v266h-266v125h266v266h124v-266h266v-125h-266v-266z" />
    <glyph glyph-name="comma" unicode="," horiz-adv-x="239" 
d="M220 181q8 -2 16.5 -4.5t14.5 -11.5q23 -35 24 -96q2 -72 -33 -125q-26 -40 -68 -65q-31 -19 -44 -19q-12 0 -20 4q142 69 142 205q0 57 -32 112zM171 39q0 13 -11 13l-27 -3q-33 0 -52.5 21.5t-19.5 57.5q0 35 20.5 58t55.5 23q41 0 67 -34t26 -82q0 -68 -36 -125
q-39 -61 -101 -79q-1 4 -2 10q0 8 24 27q29 23 34 28q16 19 20 47l-20 -1q-28 -1 -46.5 12.5t-15.5 27.5q34 -19 66 -19l18 2v16z" />
    <glyph glyph-name="hyphen" unicode="-" horiz-adv-x="281" 
d="M284 398v-140h-210v140h210zM334 204h-238v18h220v121h18v-139z" />
    <glyph glyph-name="hyphen" unicode="&#x2010;" horiz-adv-x="281" 
d="M284 398v-140h-210v140h210zM334 204h-238v18h220v121h18v-139z" />
    <glyph glyph-name="period" unicode="." horiz-adv-x="239" 
d="M219 110q0 -35 -25 -60t-60 -25t-60 25t-25 60t25 60t60 25t60 -25t25 -60zM206 178q26 -4 34 -11q26 -20 27 -82q1 -50 -30 -79t-77 -29q-49 0 -71 17q-18 13 -14 32q37 -27 81 -27q35 0 62 24.5t27 61.5q0 46 -39 93z" />
    <glyph glyph-name="slash" unicode="/" horiz-adv-x="491" 
d="M521 703v-50l-324 -653h-84l-20 20h88zM519 761l-353 -712h-84l353 712h84z" />
    <glyph glyph-name="zero" unicode="0" horiz-adv-x="665" 
d="M639 379q0 -144 -66 -242q-76 -112 -214 -112q-139 0 -215 111q-66 97 -66 243t66 243q76 112 215 112q138 0 214 -113q66 -97 66 -242zM528 687q23 0 35 -11q71 -80 98 -146q30 -72 30 -174q0 -114 -39 -201q-46 -105 -140 -143q-70 -29 -140 -29q-84 0 -128 23
q-36 18 -34 42q63 -45 168 -45q142 0 222 108q72 97 72 244q0 188 -144 332zM379 266q-35 0 -63 15v-120q0 -60 15 -98l28 -3q67 0 88 70q10 35 10 125v40q-32 -29 -78 -29zM375 642q-59 0 -59 -78v-102q23 15 56 15q50 0 85 -32v59q0 81 -10 122q-32 16 -72 16zM457 359v16
q0 35 -25 56t-65 21q-26 0 -45.5 -19.5t-19.5 -47.5q0 -19 15.5 -36.5t35.5 -17.5q18 0 31 11t13 24l-4 7q-18 -13 -30 -13q-24 0 -24 32q0 31 33 31q21 0 36.5 -14.5t15.5 -38.5q0 -29 -22 -46t-57 -17q-29 0 -48 21.5t-19 52.5q0 38 16 60v123q0 57 20 78.5t73 21.5
q22 0 48 -8q-19 42 -76 42q-67 0 -88 -69q-11 -36 -11 -125v-249q0 -148 44 -180q-10 29 -10 86v162q40 -36 85 -36q30 0 54 20.5t24 51.5z" />
    <glyph glyph-name="one" unicode="1" horiz-adv-x="665" 
d="M322 578l-26 -2q-36 -3 -59.5 15.5t-23.5 53.5q0 37 34 37q11 0 18 -10t7 -21q0 -17 -12 -34q5 -9 22 -9q49 0 96.5 39t57.5 87h26v-596q0 -67 -80 -118q-61 -38 -141 -55v8q53 37 62 47q19 22 19 71v435l-17 -1q-60 -4 -78 22q-7 11 -7 35q23 -36 82 -36l20 2v30z
M281 -64l-14 11q86 15 146 55q77 51 77 126v589l18 -24v-565q0 -82 -76 -134q-58 -41 -151 -58z" />
    <glyph glyph-name="two" unicode="2" horiz-adv-x="665" 
d="M115 20h399q20 -5 26 -20h-400zM612 -100l-13 35l75 323l13 -34zM125 539q0 94 77 147q68 48 166 48q106 0 185 -49q94 -58 94 -157q0 -61 -40 -103q-30 -33 -92 -61q-54 -23 -108 -45q-141 -61 -192 -124h61q16 28 150 95q158 80 181 96q69 50 69 136q0 120 -153 185
q33 0 77.5 -21t70.5 -69q24 -44 24 -96q0 -92 -87 -158q-49 -38 -167 -89t-138 -79h299l21 90h29l-77 -333h-29l5 23q4 18 4 28q0 46 -66 46h-379q0 64 60 140q65 83 127 118l16 9q65 37 118 84q43 39 43 146v23q-1 9 -4 21q-65 56 -131 56q-61 0 -98 -29.5t-37 -75.5
q0 -48 45 -77q-40 2 -54 22q-11 16 -12 56q-2 56 41 89.5t115 33.5q63 0 123 -42q-29 72 -135 72q-68 0 -120 -45t-52 -111q0 -49 27 -79.5t75 -30.5q37 0 60 20t23 55q0 9 -7 13q-27 -49 -58 -49q-20 0 -36 15t-16 41q0 31 23 49q20 16 50 16q33 0 54.5 -26.5t21.5 -60.5
q0 -47 -33 -75.5t-82 -28.5t-80 22q15 -20 46 -36t56 -16q49 0 84.5 35t35.5 84q0 33 -34 69q47 -1 55 -68q0 -59 -41.5 -99t-100.5 -40q-41 0 -85 28q-48 32 -48 71v7q-20 42 -20 84z" />
    <glyph glyph-name="three" unicode="3" horiz-adv-x="665" 
d="M195 505l-28 -69h-21l35 86h198l34 32h-245l-30 -72h-35l88 215h410l-243 -235q26 8 49 8l204 197v-23l-179 -174q80 0 137 -65.5t57 -146.5q0 -115 -81 -177q-74 -56 -192 -56q-112 0 -184 49q-84 56 -84 162q0 61 41.5 105t101.5 44q17 0 26 -3q-2 4 -2 8q0 9 23 31
l87 84h-167zM587 425q86 -61 86 -177q0 -130 -87 -200q-79 -65 -213 -65q-78 0 -126 16.5t-111 63.5q-5 5 -5 23q68 -48 113 -64q53 -20 128 -20q119 0 196 59q84 65 84 181q0 118 -99 191q23 0 34 -8zM399 234q0 -50 -28.5 -82t-78.5 -32q-44 0 -64 27q-5 7 1 21
q27 -30 61 -30q37 0 62.5 24t25.5 68q0 80 -41 95q16 -26 16 -65q0 -43 -23.5 -70.5t-60.5 -27.5q-66 0 -66 62q0 29 15 48t38 19q-7 6 -35 6q-59 0 -59 -77q0 -44 38 -100q-4 -3 -13 -3q-10 0 -27 30q-19 35 -19 72q0 48 23 75q21 23 53 23q47 0 67 -28l30 -13l1 10
q0 26 -30.5 45.5t-57.5 19.5q-47 0 -78.5 -34t-31.5 -90q0 -75 61 -123q57 -44 134 -44q138 0 138 140v73q0 61 -9 95q-25 16 -62 16q-32 0 -61 -29q81 -21 81 -121zM360 432q-32 0 -88 -54q6 -1 27 -13q39 40 84 40q28 0 48 -10q-16 37 -71 37z" />
    <glyph glyph-name="four" unicode="4" horiz-adv-x="665" 
d="M430 242v263l150 110v-373h26v337l19 -33v-304h31v-131h-76v-78l-150 -88v118h-347l-27 20h374v28h-390l295 452l-159 134h374l-188 -141l-204 -314h36l191 294l182 134v-23l-167 -125l-182 -280h212zM464 -63l142 83v63h76v149l19 -33v-136h-76v-55l-161 -94v23z" />
    <glyph glyph-name="five" unicode="5" horiz-adv-x="665" 
d="M224 531h224q59 0 99 -40l69 187l7 -34l-70 -190q-43 59 -121 59h-195l-20 -67q57 17 138 17q117 0 190 -54q82 -60 82 -173q0 -105 -102 -163q-84 -48 -197 -48q-131 0 -190 55t-59 121t37 107q33 38 84 44q32 53 132 53q63 0 106 -38q-28 64 -108 64q-125 0 -225 -88
l108 354h386l-64 -175h-10q-18 29 -38 37q-16 6 -55 6h-224l-42 -138l29 11zM631 351q15 -17 28 -53q15 -42 15 -78q0 -109 -99 -179q-89 -63 -202 -63q-104 0 -156 22q-40 17 -40 42q68 -43 181 -43q109 0 195 54q100 63 100 166q0 57 -48 150q16 -3 26 -18zM334 241
q0 -32 -23.5 -53t-56.5 -21q-25 0 -41.5 18.5t-16.5 45.5q0 57 61 76q-7 13 -36 13h-12q-44 0 -71 -33.5t-27 -79.5q0 -65 63 -109q-30 54 -30 92q0 82 53 96q3 -10 -6 -21q-14 -20 -18 -27q-9 -19 -9 -38q0 -68 64 -127q39 -14 80 -14q86 0 118 42q27 37 27 127v58l-2 32
q-43 66 -121 66q-71 0 -103 -32q46 -4 76.5 -34t30.5 -77zM305 332q18 0 26 -5q58 -38 58 -99q0 -43 -28 -74.5t-71 -31.5q-20 2 -41 5q-15 4 -17 28q25 -13 60 -13q31 0 53 25.5t22 59.5q0 30 -15 53q-11 18 -47 52z" />
    <glyph glyph-name="six" unicode="6" horiz-adv-x="665" 
d="M610 703q-49 -34 -85 -143q-2 20 -2 32q0 45 39 91q20 24 69 56q-10 -30 -21 -36zM417 495q94 0 154 -67.5t60 -163.5q0 -109 -83 -176q-77 -63 -189 -63q-143 0 -217 107q-64 93 -64 243q0 152 76 262q85 124 231 124h251q-62 -34 -80 -50q-27 -24 -52 -77
q-19 52 -44 74q-28 22 -78 22q-132 0 -132 -131v-438q0 -75 44 -96q-11 27 -11 96v142q56 -42 89 -42q50 0 93 42v40q0 56 -24 87.5t-65 31.5q-31 0 -56 -22.5t-25 -52.5q0 -26 16.5 -46.5t41.5 -20.5q29 0 29 17q-3 5 -6 5l-12 -2q-27 0 -27 37q0 35 40 35q21 0 34.5 -13.5
t13.5 -34.5q0 -27 -22 -50t-49 -23q-39 0 -63.5 27t-24.5 64q0 30 17 58v170q0 87 102 87q71 0 81 -29q4 -8 6 -14q-31 26 -83 26q-86 0 -86 -73v-145q38 33 114 33zM608 430q72 -84 72 -163q0 -134 -84.5 -211.5t-219.5 -77.5q-47 0 -107 19q-69 21 -93 51q-20 25 -18 39
q106 -89 220 -89q117 0 197 67q85 72 85 187q0 58 -24 106q-19 38 -64 88q22 0 36 -16zM362 54q46 -3 74.5 38t28.5 112v75q-41 -38 -92 -38q-36 0 -70 24v-105q0 -41 3 -56q5 -26 25 -48z" />
    <glyph glyph-name="seven" unicode="7" horiz-adv-x="665" 
d="M266 -122q80 89 135.5 114.5t175.5 25.5q-19 -22 -36 -22q-101 0 -163 -39q-45 -29 -120 -121q-1 7 -1 15q0 13 9 27zM544 391q-66 -139 -66 -226q0 -36 9 -59l9 -37q-38 23 -38 96q0 90 65 226l131 274v-43zM316 409q0 -96 -94 -96q-102 0 -102 114v323q25 -30 45 -41.5
t51 -11.5h421l-146 -306q-65 -136 -65 -226q0 -76 73 -119v-11q-112 0 -164 -34q-32 -21 -115 -123l-9 4l327 674h-391v-128q0 -69 46 -85q-17 36 -17 96v86h337l-10 -19h-308v-67q0 -66 20 -100h9q21 0 39 11t18 24l-3 7q-14 -9 -33 -9q-14 0 -24.5 12.5t-10.5 28.5
q0 21 15 36t39 15q18 0 30 -9l10 1q22 0 39 -21t17 -56q0 -49 -36 -81t-91 -30q-41 1 -58 10t-20 33q34 -20 78 -20q46 0 76 25t30 62q0 49 -28 56q5 -13 5 -25z" />
    <glyph glyph-name="eight" unicode="8" horiz-adv-x="665" 
d="M514 588l-131 -121q103 -42 152 -81q75 -61 75 -146q0 -105 -81 -163q-72 -52 -181 -52q-105 0 -176 39q-90 48 -90 144q0 47 24 88q21 37 75 89q-72 57 -72 147q0 105 74 157q65 45 175 45q93 0 157 -42l27 25q53 49 82 49q17 0 29 -12t12 -27q0 -13 -11 -24t-26 -11
q-22 0 -44 25l-46 -42q42 -39 42 -99q0 -54 -35.5 -87t-89.5 -33q-19 0 -19 11t19 11q62 0 88 59q-11 27 -29 51zM694 692q0 -20 -14 -33t-34 -13q-28 0 -41 10l-6 -6q30 -41 30 -94q0 -62 -80 -122q112 -89 112 -202q0 -123 -94 -189q-82 -58 -211 -57q-90 0 -153.5 24
t-65.5 56q95 -62 222 -62q117 0 194 54q87 62 87 174q0 62 -37 116q-25 35 -86 89q92 55 92 121q0 44 -36 96l31 27q18 -15 43 -15q33 0 33 48q14 -11 14 -22zM369 662q-65 0 -99.5 -21.5t-34.5 -56.5t13 -57l57 -28l151 139q-40 24 -87 24zM213 585q0 44 40 70.5t99 26.5
q76 0 121 -28l19 18q-62 37 -144 37q-56 0 -103 -23q-60 -29 -60 -79q0 -30 32 -57q-4 20 -4 35zM190 216q0 73 30 119q10 -18 6 -25q-18 -33 -18 -97q0 -41 23.5 -85.5t57.5 -65.5l58 -3q55 -3 118 26q55 25 55 76q0 44 -63 89q-46 32 -131 68l-114 46q-48 -68 -48 -129
q0 -134 82 -163q-25 29 -41 72q-15 40 -15 72zM517 618q11 -13 33 -47l1 12q3 38 -35 71l-181 -167l27 -11z" />
    <glyph glyph-name="nine" unicode="9" horiz-adv-x="665" 
d="M298 60q12 -4 26 -22q10 -13 21 -27q9 -10 39 -21q43 9 61 45q15 32 15 102v23q-64 -42 -137 -42q-50 0 -111 30.5t-87 70.5q-15 24 -15 33q0 11 1 16q37 -50 88 -86q61 -42 114 -42q77 0 147 45v81q-10 -41 -46 -67q-38 -29 -90 -29q-118 0 -188 87q-64 81 -64 202
q0 128 77.5 215t204.5 87q142 0 223 -150q67 -123 67 -278q0 -163 -79 -269q-89 -118 -246 -118h-197q71 53 109 117q37 -79 105 -79h11q-42 28 -49 76zM672 345q0 118 -41 207q-39 85 -127 170q39 0 89 -67q35 -48 58 -100q41 -93 41 -229q0 -178 -80 -292
q-91 -131 -261 -131h-175l-37 19h203q172 0 257 131q73 111 73 292zM365 395q77 0 95 -75v293q-23 59 -83 59q-76 0 -76 -128v-177q21 28 64 28zM363 727q-114 0 -114 -153v-230q0 -135 94 -135q32 0 59 23.5t27 55.5q0 78 -66 78q-18 0 -32.5 -13.5t-14.5 -26.5q0 -9 5 -14
q17 25 41 25q32 0 32 -39q0 -18 -15.5 -29.5t-36.5 -11.5q-48 0 -55 58q-8 30 -8 93v143q0 139 98 139q43 0 81 -31q-4 29 -27 48q-26 20 -68 20z" />
    <glyph glyph-name="colon" unicode=":" horiz-adv-x="239" 
d="M231 110q0 -35 -25 -60t-60 -25t-60 25t-25 60t25 60t60 25t60 -25t25 -60zM219 178q10 0 32 -11q29 -20 29 -82q0 -51 -31 -79.5t-77 -28.5q-47 0 -70 17q-19 14 -15 32q38 -27 82 -27q35 0 61.5 24.5t26.5 61.5q0 46 -38 93zM231 388q0 -35 -25 -60t-60 -25t-60 25
t-25 60t25 60t60 25t60 -25t25 -60zM219 456q21 -2 26 -5q35 -32 35 -88q0 -51 -31 -80t-77 -29q-48 0 -70 16q-18 14 -15 34q37 -28 82 -28q35 0 61.5 25t26.5 62q0 30 -9 50q-7 15 -29 43z" />
    <glyph glyph-name="semicolon" unicode=";" horiz-adv-x="239" 
d="M231 388q0 -35 -25 -60t-60 -25t-60 25t-25 60t25 60t60 25t60 -25t25 -60zM220 181q8 -2 16.5 -4.5t14.5 -11.5q23 -35 24 -96q2 -72 -33 -125q-26 -40 -68 -65q-31 -19 -44 -19q-12 0 -20 4q142 69 142 205q0 57 -32 112zM171 39q0 13 -11 13l-27 -3q-33 0 -52.5 21.5
t-19.5 57.5q0 35 20.5 58t55.5 23q41 0 67 -34t26 -82q0 -68 -36 -125q-39 -61 -101 -79q-1 4 -2 10q0 8 24 27q29 23 34 28q16 19 20 47l-20 -1q-28 -1 -46.5 12.5t-15.5 27.5q34 -19 66 -19l18 2v16zM219 456q21 -2 26 -5q35 -32 35 -88q0 -51 -31 -80t-77 -29
q-48 0 -70 16q-18 14 -15 34q37 -28 82 -28q35 0 61.5 25t26.5 62q0 30 -9 50q-7 15 -29 43z" />
    <glyph glyph-name="less" unicode="&#x3c;" horiz-adv-x="493" 
d="M515 565v-106l-353 -131l353 -130v-106l-473 175v123z" />
    <glyph glyph-name="equal" unicode="=" horiz-adv-x="806" 
d="M847 410h-786v125h786v-125zM847 121h-786v125h786v-125z" />
    <glyph glyph-name="greater" unicode="&#x3e;" horiz-adv-x="493" 
d="M534 267l-473 -175v106l354 130l-354 131v106l473 -175v-123z" />
    <glyph glyph-name="question" unicode="?" horiz-adv-x="514" 
d="M268 559q0 -36 -27 -60t-63 -24q-40 0 -73 34.5t-33 75.5q0 81 57.5 128.5t163.5 47.5q101 0 163 -75q59 -71 59 -174l-195 -168q-70 -60 -70 -84q0 -12 13.5 -22t34.5 -10q24 0 42.5 16.5t18.5 37.5l-3 25q-1 9 13 9q15 0 15 -30q0 -39 -26.5 -63t-70.5 -24
q-58 0 -95 36.5t-37 94.5q0 55 50 98l102 88q-13 61 -38 61h-4zM171 435q-47 9 -79 41q-28 26 -23 34q0 1 5 16q56 -76 130 -76q-13 -19 -33 -15zM485 701q42 -44 60 -82q20 -45 20 -104q0 -21 -5.5 -30t-29.5 -30l-138 -119q45 -33 45 -85q0 -70 -62 -80q5 22 15 26
q26 17 26 51q0 47 -60 87l164 142q23 20 23 54q0 49 -25 94q-22 39 -74 93q18 -3 22 -5q11 -3 19 -12zM362 106q0 -33 -24.5 -57t-57.5 -24q-34 0 -58 23t-24 58q0 33 24.5 57.5t57.5 24.5t57.5 -24.5t24.5 -57.5zM389 142q20 -20 20 -62t-29 -69.5t-71 -27.5
q-29 0 -51 10.5t-19 29.5q35 -21 70 -21q31 0 55.5 25t24.5 55q0 29 -21 64q17 0 21 -4zM372 572q39 33 39 74q0 40 -54 63q-41 18 -88 18q-64 0 -113 -37q-53 -40 -53 -102q0 -32 25 -57.5t56 -25.5l4 6q-28 18 -28 45q0 59 48 59q27 0 46 -18l15 3q42 0 56 -68zM401 648
q2 -6 2 -9q0 -11 -6 -22q-27 36 -51 49t-69 13q-51 0 -90 -26q-44 -30 -44 -78q0 -20 5 -38q-26 16 -26 42q0 56 47 89q42 30 100 30q93 0 132 -50z" />
    <glyph glyph-name="at" unicode="@" horiz-adv-x="772" 
d="M375 207q-58 0 -94.5 40.5t-36.5 105.5q0 84 54 158q59 82 140 82q49 0 76 -17q23 -15 38 -50l17 52h103l-55 -191q-17 -59 -17 -82q0 -41 32 -41q63 0 102 78q33 64 33 133q0 123 -81 182t-199 59q-151 0 -248.5 -97.5t-97.5 -248.5q0 -132 81.5 -219t212.5 -87
q156 0 288 81l22 -35q-146 -93 -321 -93q-160 0 -261.5 101.5t-101.5 261.5q0 171 129 279q122 102 297 102q144 0 231 -69q94 -76 94 -216q0 -103 -50 -180q-58 -88 -156 -88q-85 0 -96 81q-51 -82 -135 -82zM403 261q52 0 88 81q26 57 34 124q4 31 -9 51.5t-42 20.5
q-51 0 -89 -87q-32 -72 -32 -132q0 -58 50 -58z" />
    <glyph glyph-name="A" unicode="A" horiz-adv-x="812" 
d="M191 699l53 -2v-21l-53 2q-55 2 -67 -17q31 -11 31 -43q0 -21 -17 -35t-44 -14q-12 0 -25 7q12 -42 53 -42q24 0 43 17t19 41q0 30 -20 59q43 -10 43 -55q0 -38 -25.5 -61.5t-60.5 -23.5q-34 0 -61.5 32.5t-27.5 66.5q-8 18 -8 31q0 66 49 95q45 25 142 25h617l-138 -119
v-475l34 -27v489l100 86v-30l-77 -66v-497l94 -73h-445l150 118v109h-175q-90 -211 -212 -375q-40 -54 -44 -54q-15 0 -9 9q154 214 252 441h188v28h-211q-113 -284 -233 -429q-39 -48 -43.5 -50.5t-8.5 -2.5q-9 0 -12.5 7.5t-1.5 14.5q89 248 105 297q57 170 87 303
q31 138 31 263h-69q-136 0 -136 -83q0 -36 21 -38l-3 22q0 24 21 31q4 23 24 32t70 7zM408 20h436l24 -20h-435zM478 693h72v35h-101q-21 -142 -74 -305h34q45 134 69 270zM354 366l-2 -8h198v8h-196zM496 672q-18 -114 -64 -249h118v249h-54z" />
    <glyph glyph-name="B" unicode="B" horiz-adv-x="838" 
d="M525 20q151 0 233 61q77 58 77 159q0 70 -61 148q29 0 54 -39q30 -47 30 -121q0 -115 -104 -177q-86 -51 -209 -51h-451l-25 20h456zM812 249q0 -94 -74 -147t-205 -53h-472l150 118v475l-150 119h463q120 0 187 -46.5t67 -125.5q0 -110 -153 -142l22 -7q3 -1 16 -1
q61 0 101.5 42t40.5 103q0 72 -60 123q31 1 53 -30q24 -35 26 -95q4 -123 -128 -160q116 -56 116 -173zM390 247q51 -42 107 -42q86 0 86 78q0 27 -24 48q1 -5 3 -16q0 -39 -26.5 -62.5t-63.5 -23.5q-42 0 -70 25q-32 27 -32 73q0 45 20 76v300h116q33 0 54 -14.5t21 -36.5
q-40 30 -80 30h-89v-257q22 15 81 32q55 15 76 33q34 29 34 89q0 88 -26 117q-29 32 -115 32h-107v-647h35v166zM635 257q0 101 -38 134t-92 33q-106 0 -106 -90q0 -75 68 -75q60 0 60 51q0 37 -32 31l1 -14q2 -32 -29 -32q-15 0 -25 11t-10 25q0 20 17.5 34t45.5 14
q42 0 75.5 -29t33.5 -70t-27.5 -68t-74.5 -27q-49 0 -90 23v-127h53q99 0 134.5 38t35.5 138z" />
    <glyph glyph-name="C" unicode="C" horiz-adv-x="719" 
d="M646 526l89 188l14 -20l-89 -187zM450 672q-153 0 -153 -114v-361q0 -62 40 -96.5t102 -34.5q90 0 152 66q56 59 72 153h38q-55 -260 -299 -260q-159 0 -253 112q-88 105 -88 267q0 166 88.5 261.5t252.5 95.5h318l-120 -254q-17 -36 -17 -55q0 -26 30 -26q9 0 9 6
q-4 16 -4 22q0 26 34 26q10 0 14 -4q52 -7 52 -60q0 -30 -27 -51t-66 -21q-65 0 -91 46q-2 3 -2 7q0 6 5 12q37 -46 83 -46q37 0 57 16t20 41t-18 29v-5q0 -19 -19 -33.5t-47 -14.5q-99 0 -99 117v159h-64zM726 232q14 -9 14 -16q0 -48 -42 -103q-34 -44 -81 -77
q-84 -59 -201 -59q-79 0 -149 22q-90 28 -122 83q-20 34 -20 42q0 -1 2 13q52 -78 121 -110q63 -29 162 -29q243 0 316 234zM275 198v356q0 140 181 140h58v36h-112q-102 0 -133 -75q-19 -45 -19 -167v-260q0 -44 29 -82q-4 23 -4 52z" />
    <glyph glyph-name="D" unicode="D" horiz-adv-x="809" 
d="M655 719q29 0 34 -5q83 -58 114 -139q26 -67 26 -181q0 -183 -92 -286q-96 -108 -276 -108h-367l-25 20h392q166 0 258 106q87 100 87 269q0 118 -30.5 185.5t-120.5 138.5zM781 400q0 -163 -85 -255q-88 -96 -249 -96h-386l150 118v475l-150 119h402q154 0 240 -105
q78 -98 78 -256zM473 708q87 0 87 -38q-38 13 -49 15t-44 2q-30 0 -55 -5v-604h72q58 0 89 47t31 127v306q0 80 -30.5 127t-89.5 47h-129v-654h35v625q35 5 83 5z" />
    <glyph glyph-name="E" unicode="E" horiz-adv-x="856" 
d="M769 316q0 -37 -25 -50l152 -266h-802l-25 20h790l-146 255q32 11 32 46q0 25 -15 28v-6q0 -42 -32 -42l-19 3q-7 0 -7 -6q0 -7 11 -26l127 -223h-749l150 119v474l-150 119h718l-124 -210q-16 -27 -16 -47t14 -25l-1 16q-2 30 33 30q11 0 18 -6q47 0 47 -54
q0 -26 -17.5 -43.5t-49.5 -17.5q-31 0 -52.5 25t-24.5 57q-5 22 -5 45v156h-189v-245l101 128v-286l-62 80h-39v-282h205v246q0 25 17.5 44.5t38.5 19.5q32 0 45 -18q51 0 51 -58zM717 545l-14 20l89 150l14 -20zM564 227l-23 29v255l23 -29v-255zM601 733h-246v-291h35v265
h211v26zM415 411h-60v-329h35v301h46zM683 424q17 0 32 12t15 30q0 32 -17 32l1 -12q1 -12 -15.5 -26t-34.5 -14l-19 2q17 -24 38 -24z" />
    <glyph glyph-name="F" unicode="F" horiz-adv-x="775" 
d="M826 695l-136 -425l-16 20l135 425zM564 211l-23 29v274l23 -29v-274zM506 49h-445l150 118v475l-150 119h729l-132 -412q-20 -62 -20 -106q0 -42 20 -47q-8 19 -8 26q0 34 39 34q13 0 17 -4q56 -6 56 -67q0 -27 -21.5 -48.5t-51.5 -21.5q-38 0 -58 29q-7 10 2 14
q30 -24 52 -24q21 0 37.5 14.5t16.5 35.5q0 39 -17 39q0 -25 -14 -42t-35 -17q-30 0 -48 24t-18 65v428h-195v-233h4l91 114v-285l-58 86h-37v-241zM69 20h436l25 -20h-436zM416 411h-61v-244l35 -27v247h42zM607 732h-252v-284h35v257h217v27z" />
    <glyph glyph-name="G" unicode="G" horiz-adv-x="760" 
d="M364 -23q-82 0 -136.5 29t-96.5 97q-5 5 5 21q82 -127 214 -127q91 0 155 57l-4 32q-55 -61 -155 -61q-138 0 -217 123q-68 106 -68 250q0 143 69 245q79 118 215 118h373l-159 -223q-27 -38 -27 -55q0 -12 13 -25l-3 23q0 26 35 26l149 208l13 -18l-131 -182
q51 -20 51 -76q0 -37 -30 -58h171l-150 -118v-121l25 -22v134l99 86v-30l-77 -66v-143l61 -52h-230q-70 -72 -164 -72zM556 20h202l24 -20h-201zM502 731h-104q-158 0 -158 -171v-316q0 -125 56 -162q-21 38 -21 123v360q0 134 124 134h103v32zM571 419q-24 0 -43 13
q-3 -15 14 -31t38 -16q26 0 42 18q15 15 15 38q0 37 -31 50q10 -13 10 -31q0 -15 -13.5 -28t-31.5 -13zM502 485v191h-106q-54 0 -76.5 -30.5t-22.5 -93.5v-348q0 -88 30 -135l28 -2q62 -4 101.5 30t39.5 92v74l-150 118h189q-31 21 -31 53q0 18 3 25q-5 15 -5 26z" />
    <glyph glyph-name="H" unicode="H" horiz-adv-x="895" 
d="M355 -35q0 -65 -40.5 -105.5t-105.5 -40.5q-50 0 -83 22q-39 26 -39 73q0 31 18 49q15 16 35 16q22 0 39 -18t17 -46q0 -20 -10 -34q-16 -16 -23 -24q0 -7 13 -7q14 0 24.5 17t10.5 36v739l-150 119h838l-137 -119v-475l34 -27v489l99 86v-30l-76 -66v-497l93 -73h-445
l151 118v113h-206v-336q0 -112 -93 -112q45 30 58 52t13 73v346h228v24h-263v-362zM476 20h435l25 -20h-435zM372 365v-9h246v9h-246zM618 642l-137 107l-126 -107v-222h263v222zM390 629l99 86v-30l-77 -66v-180h-22v190z" />
    <glyph glyph-name="I" unicode="I" horiz-adv-x="489" 
d="M507 49h-445l150 118v475l-150 119h432l-138 -119v-475l35 -27v489l99 86v-30l-77 -66v-497zM70 20h436l25 -20h-436z" />
    <glyph glyph-name="J" unicode="J" horiz-adv-x="489" 
d="M493 761l-138 -119v-660q0 -76 -52.5 -124t-129.5 -48q-82 0 -128 34.5t-46 94.5q0 43 25 69t59 26t58 -31t24 -66t-39 -96q85 32 85 149v652l-150 119h432zM390 629l99 86v-30l-77 -66v-647q0 -57 -32 -102q-35 -50 -91 -50q101 60 101 148v661z" />
    <glyph glyph-name="K" unicode="K" horiz-adv-x="893" 
d="M670 431q-20 46 -53 72l156 139l120 92v-26l-86 -66l-155 -138q25 -25 43 -66l147 -333l76 -56h-429l111 118l-62 142q-17 38 -37 60l-89 -79v-178l66 -63h-417l150 118v475l-150 119h432l-138 -119v-300l35 30v257l99 86v-30l-77 -66v-226l280 249l-113 119h316
l-158 -119l-163 -145q47 -19 77 -89l105 -241l46 -33zM918 20l25 -20h-849l-25 20h849zM461 397l-106 -95v-134l35 -33v166l93 83q-8 8 -22 13z" />
    <glyph glyph-name="L" unicode="L" horiz-adv-x="797" 
d="M94 0l-25 20h736l-146 442q18 -13 51 -13q34 0 45 53q15 -10 15 -19q0 -20 -17 -38t-35 -18q-13 0 -23 2l142 -429h-743zM580 85v381q0 114 80 114q32 0 54.5 -19.5t22.5 -46.5q0 -19 -13.5 -31.5t-33.5 -12.5q-43 0 -43 42q0 9 9 31q-31 -6 -31 -41q0 -32 16 -80
l124 -373h-704l150 118v475l-150 119h432l-138 -119v-557h35v544l99 86v-30l-77 -66v-534h168z" />
    <glyph glyph-name="M" unicode="M" horiz-adv-x="1045" 
d="M570 2q-53 0 -53 28q18 -7 50 -7q37 0 64 37q24 35 24 73q0 76 -52 151l164 290v62l-199 -352q60 -124 60 -157q0 -35 -22 -58t-60 -23q-30 0 -51 21t-21 57q0 52 60 157l-122 245v-559q0 -65 -33 -100q-28 -30 -72 -30q48 28 67 59q16 28 16 72v605l-35 69v-619
q0 -207 -166 -207q-112 0 -112 101q0 36 18 55t41 19q27 0 44 -20t17 -48q0 -21 -12 -37l-27 -30q0 -10 12 -10q15 0 28 22.5t13 52.5v721l-150 119h432l-113 -98l172 -349l19 32l-152 308l70 61v-30l-42 -37l137 -278l164 290l-110 101h411l-138 -119v-475l34 -27v489
l100 86v-30l-77 -66v-497l93 -73h-412q-12 -20 -35 -33.5t-44 -13.5zM1061 20l25 -20h-399l-25 20h399zM628 284q49 -75 49 -152q0 -34 -13 -56l103 91v364zM505 132q0 -56 47 -56q18 0 30.5 14.5t12.5 36.5q0 31 -47 123q-43 -76 -43 -118z" />
    <glyph glyph-name="N" unicode="N" horiz-adv-x="858" 
d="M411 656l80 59v-26l-52 -38l255 -374v365l-127 119h294l-137 -119v-487l35 -29v503l99 86v-30l-77 -66v-511l76 -59h-481l150 118l-260 381v-616q0 -49 -31 -77.5t-85 -28.5q-44 0 -70 24t-26 57q0 25 18.5 43t45.5 18q23 0 41 -16t18 -35q0 -15 -9.5 -32.5t-9.5 -16.5
q0 -9 9 -9q15 0 15 46v754l-121 102h436l-127 -95l324 -475v49zM852 20l25 -20h-460l-25 20h460zM212 -131q32 23 32 75v638l-32 45v-758z" />
    <glyph glyph-name="O" unicode="O" 
d="M764 404q0 -162 -88 -267q-94 -112 -253 -112q-160 0 -253 111q-88 105 -88 268t88 268q93 111 253 111q159 0 253 -112q88 -105 88 -267zM721 664q51 -62 72.5 -126t21.5 -154q0 -172 -103 -287q-108 -120 -278 -120q-161 0 -230 75q-13 14 -24.5 27.5t-17.5 31.5
q114 -113 270 -113q157 0 260 112q99 109 99 268q0 198 -110 315q16 -3 20 -6.5t20 -22.5zM312 165v241l23 17v-262q0 -50 33 -89q23 -6 55 -6q108 0 137 72q15 37 15 170q-18 -33 -50.5 -51t-64.5 -18q-57 0 -91 25l-5 28q39 -33 100 -33q52 0 83 43q27 38 27 92
q0 49 -35 82q14 -38 14 -72q0 -45 -33 -78.5t-78 -33.5q-54 0 -78 31t-24 67q0 35 24 58.5t58 23.5q31 0 47 -16.5t16 -37.5q0 -18 -12 -33t-34 -15q-36 0 -36 41q0 18 4 26q-13 0 -25 -13t-12 -33q0 -27 21 -48.5t48 -21.5q34 0 58.5 28t24.5 62q0 39 -28.5 65.5
t-71.5 26.5q-46 0 -88 -30.5t-64 -80.5v-84q0 -105 3 -126q12 -75 62 -100q-23 37 -23 83zM431 691q-55 0 -75.5 -23t-20.5 -76v-81q37 22 86 22q54 0 98 -18q35 -15 56 -50v131q-1 11 -4 26q-37 69 -140 69zM312 495v112q0 105 133 105q65 0 115 -40q-28 70 -137 70
q-108 0 -137 -71q-16 -38 -16 -170v-47q22 28 42 41z" />
    <glyph glyph-name="P" unicode="P" horiz-adv-x="778" 
d="M506 49h-445l150 119v473l-150 120h444q106 0 182 -58q83 -63 83 -167q0 -98 -67.5 -161.5t-166.5 -63.5q-83 0 -124 43v-232zM685 748q134 -69 134 -217q0 -106 -63 -181q-66 -78 -171 -78q-52 0 -58 1q-32 5 -44 30q36 -13 84 -13q104 0 167.5 68t63.5 172
q0 73 -35 125q-33 49 -109 94q12 3 18 3q5 0 13 -4zM530 0h-436l-25 20h436zM460 506q74 0 74 -61q0 -51 -43 -51q-35 0 -35 31q0 30 22 29l16 -1q0 23 -28 23q-20 0 -34.5 -15.5t-14.5 -36.5q0 -30 26.5 -53.5t67.5 -23.5q87 0 87 120v117q0 96 -134 96q-22 0 -52 -5v-191
q23 22 48 22zM446 731h-91v-564l35 -27v256l-3 25l3 24v251q64 6 74 6q87 0 125 -36q-12 35 -45 50t-98 15zM532 491q18 0 27 -9q17 -23 17 -54q0 -68 -74 -68q-20 0 -24 22q7 -4 17 -4q59 0 59 51q0 27 -22 62z" />
    <glyph glyph-name="Q" unicode="Q" 
d="M423 783q159 0 253 -112q88 -105 88 -267q0 -161 -86 -266q-93 -113 -251 -113v-4q0 -80 76 -80h4q-36 31 -31 59q141 17 230 127q85 106 85 251q0 198 -110 315q11 0 15.5 -3.5t40.5 -45.5q78 -92 78 -260q0 -151 -80 -259q-84 -113 -229 -141q-2 -13 31 -40q18 4 72 30
q46 23 72 23l11 -2q22 0 41 -20t19 -46q0 -27 -18 -46t-40 -19q-38 0 -52 27q-27 -21 -52 -67h-25q25 47 77 99q22 -37 50 -37q15 0 27.5 12.5t12.5 27.5q0 34 -20 36q0 -45 -28 -45q-31 0 -29 20l1 13q-3 4 -6 4q-24 0 -79.5 -66.5t-85.5 -66.5q-89 0 -89 134v70
q-152 16 -235 122q-79 101 -79 257q0 163 88 268q93 111 253 111zM179 80q-6 6 -17 31q113 -113 260 -113l2 -21q-151 0 -245 103zM479 240v-168q71 15 89 93q7 30 7 143q-26 -48 -96 -68zM396 301q-56 27 -56 89q0 35 24 58.5t58 23.5q31 0 47 -16.5t16 -37.5
q0 -18 -12 -33t-34 -15q-36 0 -36 41q0 18 4 26q-13 0 -25 -13t-12 -33q0 -27 21 -48.5t48 -21.5q34 0 58.5 28t24.5 62q0 39 -28.5 65.5t-71.5 26.5q-46 0 -88 -30.5t-64 -80.5v-84q0 -105 3 -126q12 -75 62 -100q-23 37 -23 83v241l23 17v-262q0 -50 33 -89q13 -5 28 -5
v234zM431 691q-55 0 -75.5 -23t-20.5 -76v-81q37 22 86 22q61 0 96.5 -34.5t35.5 -94.5q0 -35 -30 -75t-81 -37l-15 1v-227q23 0 29 2v191h8q52 0 83 43q27 38 27 92q0 34 -20 66q-2 25 -10 38q24 -17 31 -33v36q0 133 -15 170q-29 71 -137 71t-137 -71q-16 -38 -16 -170
v-47q22 28 42 41v112q0 105 133 105q44 0 80 -18q12 -17 16 -35q-40 32 -110 32z" />
    <glyph glyph-name="R" unicode="R" horiz-adv-x="836" 
d="M727 736q27 0 34 -4q51 -40 68 -77t17 -104q0 -69 -42.5 -126.5t-108.5 -81.5l76 -110q30 -43 64 -69q-75 -35 -75 -135q0 -76 53 -192h-7l-394 567v-282l94 -73h-445l150 118v475l-150 119h508q93 0 162 -51t69 -141q0 -159 -193 -187l104 -149q29 -41 64 -45l-117 167
q66 10 116.5 67.5t50.5 123.5q0 70 -22 113.5t-76 76.5zM836 147v-17q0 -4 -12 -23q-14 -22 -18 -36q-5 -17 -5 -46q0 -94 34 -144q11 -16 13 -44q-67 81 -67 187q0 71 55 123zM69 20h436l25 -20h-436zM512 398q51 0 81 49q26 42 26 97v43q0 153 -192 153h-72v-573l35 -27
v301q-9 20 -9 42q0 24 9 43v186h116q25 0 48 -15.5t30 -39.5q-32 32 -95 32h-77v-138q16 13 44 13q24 0 39 -15t15 -34q0 -21 -14.5 -34.5t-30.5 -13.5q-20 0 -32 10l-13 17q-9 -7 -9 -8q0 -61 61 -82q0 18 -14 40q80 0 80 51q0 28 -26 52q30 -3 38.5 -14t9.5 -42
q2 -59 -69 -67q5 -12 3 -24q4 -2 18 -2z" />
    <glyph glyph-name="S" unicode="S" horiz-adv-x="694" 
d="M704 695l-91 -125l-14 20l90 125zM631 558q49 0 49 -59q0 -41 -42 -66q97 -92 97 -192q0 -119 -81 -188q-77 -65 -198 -65q-43 0 -119 21.5t-105 21.5q-31 0 -42 -16t-10 -65l1 -65q1 -40 -7 -53.5t-30 -13.5q-12 0 -20 2q-7 -9 -18 -9q-45 0 -45 36q0 34 35 34l1 474
q12 0 40 -69q34 -82 39 -90q37 -53 93 -90q-93 99 -104 208q14 -6 21 -20q1 -3 9 -30q34 -117 155 -195q33 -10 74 -10q70 0 123 26.5t50 70.5l-2 26q-33 43 -134 77l-201 67q-63 21 -86 36q-31 19 -61 64q-2 7 -1 14q47 -58 140 -91q16 -6 186 -58q98 -30 141 -67
q-22 38 -114 82q-52 26 -177 74q-114 44 -149 63q-70 39 -70 140q0 102 92 156q76 44 185 44q55 0 121 -11q58 -12 117 -24q31 0 107 26l-146 -204q-8 -11 -8 -28q0 -32 18 -32l7 7l-1 18q-1 25 32 25q12 0 22 -5q12 3 16 3zM358 761q-68 0 -123 -24q-72 -31 -72 -90
q0 -41 45 -72q-13 25 -13 58q0 45 42.5 71t114.5 26q80 0 147 -36q-25 67 -141 67zM144 -165q18 0 17 45l-1 89q-1 84 64 84q29 0 110.5 -23t128.5 -23q104 0 174 58q75 63 75 164q0 123 -118 211q63 14 63 62q0 31 -20 31l-8 -3l1 -15q1 -18 -18 -32t-39 -14q-33 0 -52 24
q-17 21 -17 54q0 7 3 33.5t3 35.5l-1 26q-36 69 -154 69q-137 0 -137 -80q0 -51 55 -87q91 -29 182 -59q107 -39 167 -90q64 -54 64 -148q0 -102 -72 -164q-68 -58 -172 -58q-50 0 -134.5 27t-111.5 27q-67 0 -62 -141l3 -85l-3 -17z" />
    <glyph glyph-name="T" unicode="T" horiz-adv-x="750" 
d="M776 715l15 -20l-135 -356q17 0 26 -6q50 -12 50 -63q0 -36 -21.5 -56t-57.5 -20q-38 0 -60 27t-22 70q-7 18 -7 50v344h-26v-563l93 -73h-444l150 118v518h-38v-370q0 -52 -23.5 -83t-65.5 -31q-57 0 -63 47q-30 17 -30 48q0 43 45 43q38 0 38 -34q0 -16 -1.5 -19.5
t-15.5 -16.5q34 0 34 46q0 34 -19 84l-137 362h695l-136 -362q-19 -51 -19 -84q0 -46 33 -46q-16 16 -16 36q0 17 14 28zM655 0h-435l-25 20h435zM652 215q26 0 42.5 16.5t16.5 38.5q0 19 -10 25q0 -23 -19 -40t-42 -17q-17 0 -34 9q12 -32 46 -32zM564 734h-83v-567l34 -27
v566h49v28zM337 734h-83v-393q0 -103 -77 -103q1 -16 35 -16q29 0 47 26t18 67v391h60v28z" />
    <glyph glyph-name="U" unicode="U" horiz-adv-x="844" 
d="M268 642h-70q-30 0 -61 -27v146h313q-124 -80 -160 -182q-26 -73 -26 -249q0 -123 17 -176q31 -96 126 -96q75 0 118 46t43 117v540h282l-138 -119v-475l34 -27v489l100 86v-28l-77 -67v-498l93 -73h-293v55q-66 -79 -166 -79q-141 0 -226 82t-85 223q0 147 118 263
l-10 1q-32 0 -50 -42q-14 14 -12 19q18 44 63 44q18 0 29 -4q15 12 38 31zM573 20h288l25 -20h-288zM424 687q-72 -60 -92 -158q-11 -52 -11 -189q0 -101 2 -131q5 -71 24 -129q-24 11 -32 40q-14 50 -14 218q0 157 13 211q25 103 118 166q0 -21 -8 -28zM541 40q0 -6 -2 -20
q-84 -42 -152 -42q-143 0 -226 112q23 -4 27 -6q33 -39 87 -62.5t108 -23.5q77 0 158 42z" />
    <glyph glyph-name="V" unicode="V" horiz-adv-x="848" 
d="M752 651l96 64v-25l-77 -53l-201 -509l111 -79h-450l131 118l-190 492l-122 102h418l-146 -114l181 -469l15 42l-162 419l96 75v-26l-70 -54l149 -384l158 400l-138 111h322l-143 -98l-200 -504l21 -16zM236 20h445l25 -20h-445z" />
    <glyph glyph-name="W" unicode="W" horiz-adv-x="1177" 
d="M658 509q57 143 57 161q0 25 -3.5 34.5t-21.5 28.5q46 0 46 -61q0 -24 -55 -162l101 -246l78 384l-144 113h486l-190 -98l-100 -495l30 -22l99 494l146 76v-22l-127 -65l-100 -495l118 -85h-459l123 102l-104 251l-115 -288l88 -65h-459l157 128l-90 463l-171 121h457
l-144 -105l95 -491l21 53l-83 426l99 72v-25l-76 -56l73 -383l103 257q-59 138 -59 163q0 33 22.5 58.5t53.5 25.5q76 0 76 -78q0 -26 -62 -168l140 -337l11 55zM1103 0h-918l-24 20h917zM605 637q-6 14 -6 30q0 35 33 35q17 0 22 -4q-11 26 -38 26q-51 0 -51 -51
q0 -24 43 -125l18 40zM627 430l-18 42l-129 -326l27 -19zM656 676q-10 7 -26 7q-11 0 -11 -15q0 -9 6 -23l12 -28q14 33 17 48z" />
    <glyph glyph-name="X" unicode="X" horiz-adv-x="870" 
d="M856 715v-25l-76 -60l-170 -204l208 -287h-28l-209 288l180 213zM694 654l-127 107h302l-125 -99l-197 -235l189 -260l152 -118h-458l135 106l-106 144l-20 -22q-46 -51 -94 -147q-41 -82 -81 -163q-50 -90 -110 -139h-24q71 63 115 147q26 53 81 165q45 90 102 157
l18 21l-16 23l-24 -29q-54 -65 -121 -196q-81 -158 -111 -204q-45 -69 -102 -84l-6 4q72 82 72 147q0 100 -79 144l1 7q9 -3 26 -3q56 0 113.5 29t94.5 73l116 139l-209 289l-146 104h452l-130 -99l150 -208l19 22l-131 182l72 56v-25l-43 -33l118 -163zM436 20h452l25 -20
h-452z" />
    <glyph glyph-name="Y" unicode="Y" horiz-adv-x="846" 
d="M750 633l102 82v-27l-84 -67l-160 -290l19 -1q-82 -33 -82 -96v-67l149 -118h-443l150 118v22q-27 -9 -71 -9q-81 0 -81 37q35 -15 79 -15q41 0 73 16v30q-37 -25 -92 -25q-48 0 -81 31t-33 78q0 42 27 68q25 23 60 23q29 0 49.5 -19.5t20.5 -51.5q0 -21 -12.5 -35.5
t-30.5 -14.5q-40 0 -40 41q0 26 41 40q-7 12 -25 12q-23 0 -39.5 -17.5t-16.5 -44.5q0 -36 30 -57q26 -19 63 -19q53 0 79 38v56l-190 299l-164 111h479l-146 -108l169 -268l16 27l-149 236l92 67v-25l-64 -48l132 -209l121 221l-136 107h309l-142 -114l-160 -292
q8 -9 20 -16zM719 0h-437l-25 20h437zM655 313q0 -22 -15 -28q-34 -10 -34 -61v-83q-21 3 -21 26v67q0 33 14.5 50t55.5 29z" />
    <glyph glyph-name="Z" unicode="Z" horiz-adv-x="737" 
d="M92 0l-25 20h679l-100 286q48 15 48 54q0 21 -24 51q27 -3 36 -17q6 -11 7 -43q1 -35 -39 -56l103 -295h-685zM493 731h-228l-31 -223q-12 -83 -64 -83q-27 0 -43 15t-16 35q0 16 13 30.5t28 14.5q30 0 30 -34q0 -15 -21 -31l9 -3q7 0 17 9t10 20q0 36 -26 95l-81 185
h586l-430 -679h45l401 633v-39l-376 -594h197l36 271q11 80 61 80q23 0 37 -16.5t14 -36.5q0 -37 -30 -37q-29 0 -29 29q0 -5 7 30q-9 4 -15.5 -5t-6.5 -24q0 -19 12 -53l95 -271h-633l399 630h-145l-27 -194q-6 -45 -30 -71t-56 -26q-33 0 -42 12q10 11 13 10q9 -3 26 -3
q56 0 68 86l29 205h177z" />
    <glyph glyph-name="bracketleft" unicode="[" horiz-adv-x="254" 
d="M168 -107h126v-30h-233v898h233v-29h-126v-839z" />
    <glyph glyph-name="backslash" unicode="\" horiz-adv-x="511" 
d="M450 -16l-386 777h84l386 -777h-84z" />
    <glyph glyph-name="bracketright" unicode="]" horiz-adv-x="254" 
d="M61 732v29h233v-898h-233v30h127v839h-127z" />
    <glyph glyph-name="asciicircum" unicode="^" horiz-adv-x="503" 
d="M337 823l-16 21h162l-120 158l41 -19l121 -160h-188zM236 955l-62 -81h-130l116 153h153l116 -153h-131l-32 42l-72 -93h-127l-15 21h130l70 91z" />
    <glyph glyph-name="underscore" unicode="_" horiz-adv-x="518" 
d="M0 -132v39h579v-39h-579z" />
    <glyph glyph-name="grave" unicode="`" horiz-adv-x="308" 
d="M189 1025l100 -151h-121l-166 151h187zM202 844h138l-105 157l52 -37l93 -141h-148z" />
    <glyph glyph-name="a" unicode="a" horiz-adv-x="812" 
d="M191 699l53 -2v-21l-53 2q-55 2 -67 -17q31 -11 31 -43q0 -21 -17 -35t-44 -14q-12 0 -25 7q12 -42 53 -42q24 0 43 17t19 41q0 30 -20 59q43 -10 43 -55q0 -38 -25.5 -61.5t-60.5 -23.5q-34 0 -61.5 32.5t-27.5 66.5q-8 18 -8 31q0 66 49 95q45 25 142 25h617l-138 -119
v-475l34 -27v489l100 86v-30l-77 -66v-497l94 -73h-445l150 118v109h-175q-90 -211 -212 -375q-40 -54 -44 -54q-15 0 -9 9q154 214 252 441h188v28h-211q-113 -284 -233 -429q-39 -48 -43.5 -50.5t-8.5 -2.5q-9 0 -12.5 7.5t-1.5 14.5q89 248 105 297q57 170 87 303
q31 138 31 263h-69q-136 0 -136 -83q0 -36 21 -38l-3 22q0 24 21 31q4 23 24 32t70 7zM408 20h436l24 -20h-435zM478 693h72v35h-101q-21 -142 -74 -305h34q45 134 69 270zM354 366l-2 -8h198v8h-196zM496 672q-18 -114 -64 -249h118v249h-54z" />
    <glyph glyph-name="b" unicode="b" horiz-adv-x="838" 
d="M525 20q151 0 233 61q77 58 77 159q0 70 -61 148q29 0 54 -39q30 -47 30 -121q0 -115 -104 -177q-86 -51 -209 -51h-451l-25 20h456zM812 249q0 -94 -74 -147t-205 -53h-472l150 118v475l-150 119h463q120 0 187 -46.5t67 -125.5q0 -110 -153 -142l22 -7q3 -1 16 -1
q61 0 101.5 42t40.5 103q0 72 -60 123q31 1 53 -30q24 -35 26 -95q4 -123 -128 -160q116 -56 116 -173zM390 247q51 -42 107 -42q86 0 86 78q0 27 -24 48q1 -5 3 -16q0 -39 -26.5 -62.5t-63.5 -23.5q-42 0 -70 25q-32 27 -32 73q0 45 20 76v300h116q33 0 54 -14.5t21 -36.5
q-40 30 -80 30h-89v-257q22 15 81 32q55 15 76 33q34 29 34 89q0 88 -26 117q-29 32 -115 32h-107v-647h35v166zM635 257q0 101 -38 134t-92 33q-106 0 -106 -90q0 -75 68 -75q60 0 60 51q0 37 -32 31l1 -14q2 -32 -29 -32q-15 0 -25 11t-10 25q0 20 17.5 34t45.5 14
q42 0 75.5 -29t33.5 -70t-27.5 -68t-74.5 -27q-49 0 -90 23v-127h53q99 0 134.5 38t35.5 138z" />
    <glyph glyph-name="c" unicode="c" horiz-adv-x="719" 
d="M646 526l89 188l14 -20l-89 -187zM450 672q-153 0 -153 -114v-361q0 -62 40 -96.5t102 -34.5q90 0 152 66q56 59 72 153h38q-55 -260 -299 -260q-159 0 -253 112q-88 105 -88 267q0 166 88.5 261.5t252.5 95.5h318l-120 -254q-17 -36 -17 -55q0 -26 30 -26q9 0 9 6
q-4 16 -4 22q0 26 34 26q10 0 14 -4q52 -7 52 -60q0 -30 -27 -51t-66 -21q-65 0 -91 46q-2 3 -2 7q0 6 5 12q37 -46 83 -46q37 0 57 16t20 41t-18 29v-5q0 -19 -19 -33.5t-47 -14.5q-99 0 -99 117v159h-64zM726 232q14 -9 14 -16q0 -48 -42 -103q-34 -44 -81 -77
q-84 -59 -201 -59q-79 0 -149 22q-90 28 -122 83q-20 34 -20 42q0 -1 2 13q52 -78 121 -110q63 -29 162 -29q243 0 316 234zM275 198v356q0 140 181 140h58v36h-112q-102 0 -133 -75q-19 -45 -19 -167v-260q0 -44 29 -82q-4 23 -4 52z" />
    <glyph glyph-name="d" unicode="d" horiz-adv-x="809" 
d="M655 719q29 0 34 -5q83 -58 114 -139q26 -67 26 -181q0 -183 -92 -286q-96 -108 -276 -108h-367l-25 20h392q166 0 258 106q87 100 87 269q0 118 -30.5 185.5t-120.5 138.5zM781 400q0 -163 -85 -255q-88 -96 -249 -96h-386l150 118v475l-150 119h402q154 0 240 -105
q78 -98 78 -256zM473 708q87 0 87 -38q-38 13 -49 15t-44 2q-30 0 -55 -5v-604h72q58 0 89 47t31 127v306q0 80 -30.5 127t-89.5 47h-129v-654h35v625q35 5 83 5z" />
    <glyph glyph-name="e" unicode="e" horiz-adv-x="856" 
d="M769 316q0 -37 -25 -50l152 -266h-802l-25 20h790l-146 255q32 11 32 46q0 25 -15 28v-6q0 -42 -32 -42l-19 3q-7 0 -7 -6q0 -7 11 -26l127 -223h-749l150 119v474l-150 119h718l-124 -210q-16 -27 -16 -47t14 -25l-1 16q-2 30 33 30q11 0 18 -6q47 0 47 -54
q0 -26 -17.5 -43.5t-49.5 -17.5q-31 0 -52.5 25t-24.5 57q-5 22 -5 45v156h-189v-245l101 128v-286l-62 80h-39v-282h205v246q0 25 17.5 44.5t38.5 19.5q32 0 45 -18q51 0 51 -58zM717 545l-14 20l89 150l14 -20zM564 227l-23 29v255l23 -29v-255zM601 733h-246v-291h35v265
h211v26zM415 411h-60v-329h35v301h46zM683 424q17 0 32 12t15 30q0 32 -17 32l1 -12q1 -12 -15.5 -26t-34.5 -14l-19 2q17 -24 38 -24z" />
    <glyph glyph-name="f" unicode="f" horiz-adv-x="775" 
d="M826 695l-136 -425l-16 20l135 425zM564 211l-23 29v274l23 -29v-274zM506 49h-445l150 118v475l-150 119h729l-132 -412q-20 -62 -20 -106q0 -42 20 -47q-8 19 -8 26q0 34 39 34q13 0 17 -4q56 -6 56 -67q0 -27 -21.5 -48.5t-51.5 -21.5q-38 0 -58 29q-7 10 2 14
q30 -24 52 -24q21 0 37.5 14.5t16.5 35.5q0 39 -17 39q0 -25 -14 -42t-35 -17q-30 0 -48 24t-18 65v428h-195v-233h4l91 114v-285l-58 86h-37v-241zM69 20h436l25 -20h-436zM416 411h-61v-244l35 -27v247h42zM607 732h-252v-284h35v257h217v27z" />
    <glyph glyph-name="g" unicode="g" horiz-adv-x="760" 
d="M364 -23q-82 0 -136.5 29t-96.5 97q-5 5 5 21q82 -127 214 -127q91 0 155 57l-4 32q-55 -61 -155 -61q-138 0 -217 123q-68 106 -68 250q0 143 69 245q79 118 215 118h373l-159 -223q-27 -38 -27 -55q0 -12 13 -25l-3 23q0 26 35 26l149 208l13 -18l-131 -182
q51 -20 51 -76q0 -37 -30 -58h171l-150 -118v-121l25 -22v134l99 86v-30l-77 -66v-143l61 -52h-230q-70 -72 -164 -72zM556 20h202l24 -20h-201zM502 731h-104q-158 0 -158 -171v-316q0 -125 56 -162q-21 38 -21 123v360q0 134 124 134h103v32zM571 419q-24 0 -43 13
q-3 -15 14 -31t38 -16q26 0 42 18q15 15 15 38q0 37 -31 50q10 -13 10 -31q0 -15 -13.5 -28t-31.5 -13zM502 485v191h-106q-54 0 -76.5 -30.5t-22.5 -93.5v-348q0 -88 30 -135l28 -2q62 -4 101.5 30t39.5 92v74l-150 118h189q-31 21 -31 53q0 18 3 25q-5 15 -5 26z" />
    <glyph glyph-name="h" unicode="h" horiz-adv-x="895" 
d="M355 -35q0 -65 -40.5 -105.5t-105.5 -40.5q-50 0 -83 22q-39 26 -39 73q0 31 18 49q15 16 35 16q22 0 39 -18t17 -46q0 -20 -10 -34q-16 -16 -23 -24q0 -7 13 -7q14 0 24.5 17t10.5 36v739l-150 119h838l-137 -119v-475l34 -27v489l99 86v-30l-76 -66v-497l93 -73h-445
l151 118v113h-206v-336q0 -112 -93 -112q45 30 58 52t13 73v346h228v24h-263v-362zM476 20h435l25 -20h-435zM372 365v-9h246v9h-246zM618 642l-137 107l-126 -107v-222h263v222zM390 629l99 86v-30l-77 -66v-180h-22v190z" />
    <glyph glyph-name="i" unicode="i" horiz-adv-x="489" 
d="M507 49h-445l150 118v475l-150 119h432l-138 -119v-475l35 -27v489l99 86v-30l-77 -66v-497zM70 20h436l25 -20h-436z" />
    <glyph glyph-name="j" unicode="j" horiz-adv-x="489" 
d="M493 761l-138 -119v-660q0 -76 -52.5 -124t-129.5 -48q-82 0 -128 34.5t-46 94.5q0 43 25 69t59 26t58 -31t24 -66t-39 -96q85 32 85 149v652l-150 119h432zM390 629l99 86v-30l-77 -66v-647q0 -57 -32 -102q-35 -50 -91 -50q101 60 101 148v661z" />
    <glyph glyph-name="k" unicode="k" horiz-adv-x="893" 
d="M670 431q-20 46 -53 72l156 139l120 92v-26l-86 -66l-155 -138q25 -25 43 -66l147 -333l76 -56h-429l111 118l-62 142q-17 38 -37 60l-89 -79v-178l66 -63h-417l150 118v475l-150 119h432l-138 -119v-300l35 30v257l99 86v-30l-77 -66v-226l280 249l-113 119h316
l-158 -119l-163 -145q47 -19 77 -89l105 -241l46 -33zM918 20l25 -20h-849l-25 20h849zM461 397l-106 -95v-134l35 -33v166l93 83q-8 8 -22 13z" />
    <glyph glyph-name="l" unicode="l" horiz-adv-x="797" 
d="M94 0l-25 20h736l-146 442q18 -13 51 -13q34 0 45 53q15 -10 15 -19q0 -20 -17 -38t-35 -18q-13 0 -23 2l142 -429h-743zM580 85v381q0 114 80 114q32 0 54.5 -19.5t22.5 -46.5q0 -19 -13.5 -31.5t-33.5 -12.5q-43 0 -43 42q0 9 9 31q-31 -6 -31 -41q0 -32 16 -80
l124 -373h-704l150 118v475l-150 119h432l-138 -119v-557h35v544l99 86v-30l-77 -66v-534h168z" />
    <glyph glyph-name="m" unicode="m" horiz-adv-x="1045" 
d="M570 2q-53 0 -53 28q18 -7 50 -7q37 0 64 37q24 35 24 73q0 76 -52 151l164 290v62l-199 -352q60 -124 60 -157q0 -35 -22 -58t-60 -23q-30 0 -51 21t-21 57q0 52 60 157l-122 245v-559q0 -65 -33 -100q-28 -30 -72 -30q48 28 67 59q16 28 16 72v605l-35 69v-619
q0 -207 -166 -207q-112 0 -112 101q0 36 18 55t41 19q27 0 44 -20t17 -48q0 -21 -12 -37l-27 -30q0 -10 12 -10q15 0 28 22.5t13 52.5v721l-150 119h432l-113 -98l172 -349l19 32l-152 308l70 61v-30l-42 -37l137 -278l164 290l-110 101h411l-138 -119v-475l34 -27v489
l100 86v-30l-77 -66v-497l93 -73h-412q-12 -20 -35 -33.5t-44 -13.5zM1061 20l25 -20h-399l-25 20h399zM628 284q49 -75 49 -152q0 -34 -13 -56l103 91v364zM505 132q0 -56 47 -56q18 0 30.5 14.5t12.5 36.5q0 31 -47 123q-43 -76 -43 -118z" />
    <glyph glyph-name="n" unicode="n" horiz-adv-x="858" 
d="M411 656l80 59v-26l-52 -38l255 -374v365l-127 119h294l-137 -119v-487l35 -29v503l99 86v-30l-77 -66v-511l76 -59h-481l150 118l-260 381v-616q0 -49 -31 -77.5t-85 -28.5q-44 0 -70 24t-26 57q0 25 18.5 43t45.5 18q23 0 41 -16t18 -35q0 -15 -9.5 -32.5t-9.5 -16.5
q0 -9 9 -9q15 0 15 46v754l-121 102h436l-127 -95l324 -475v49zM852 20l25 -20h-460l-25 20h460zM212 -131q32 23 32 75v638l-32 45v-758z" />
    <glyph glyph-name="o" unicode="o" 
d="M764 404q0 -162 -88 -267q-94 -112 -253 -112q-160 0 -253 111q-88 105 -88 268t88 268q93 111 253 111q159 0 253 -112q88 -105 88 -267zM721 664q51 -62 72.5 -126t21.5 -154q0 -172 -103 -287q-108 -120 -278 -120q-161 0 -230 75q-13 14 -24.5 27.5t-17.5 31.5
q114 -113 270 -113q157 0 260 112q99 109 99 268q0 198 -110 315q16 -3 20 -6.5t20 -22.5zM312 165v241l23 17v-262q0 -50 33 -89q23 -6 55 -6q108 0 137 72q15 37 15 170q-18 -33 -50.5 -51t-64.5 -18q-57 0 -91 25l-5 28q39 -33 100 -33q52 0 83 43q27 38 27 92
q0 49 -35 82q14 -38 14 -72q0 -45 -33 -78.5t-78 -33.5q-54 0 -78 31t-24 67q0 35 24 58.5t58 23.5q31 0 47 -16.5t16 -37.5q0 -18 -12 -33t-34 -15q-36 0 -36 41q0 18 4 26q-13 0 -25 -13t-12 -33q0 -27 21 -48.5t48 -21.5q34 0 58.5 28t24.5 62q0 39 -28.5 65.5
t-71.5 26.5q-46 0 -88 -30.5t-64 -80.5v-84q0 -105 3 -126q12 -75 62 -100q-23 37 -23 83zM431 691q-55 0 -75.5 -23t-20.5 -76v-81q37 22 86 22q54 0 98 -18q35 -15 56 -50v131q-1 11 -4 26q-37 69 -140 69zM312 495v112q0 105 133 105q65 0 115 -40q-28 70 -137 70
q-108 0 -137 -71q-16 -38 -16 -170v-47q22 28 42 41z" />
    <glyph glyph-name="p" unicode="p" horiz-adv-x="778" 
d="M506 49h-445l150 119v473l-150 120h444q106 0 182 -58q83 -63 83 -167q0 -98 -67.5 -161.5t-166.5 -63.5q-83 0 -124 43v-232zM685 748q134 -69 134 -217q0 -106 -63 -181q-66 -78 -171 -78q-52 0 -58 1q-32 5 -44 30q36 -13 84 -13q104 0 167.5 68t63.5 172
q0 73 -35 125q-33 49 -109 94q12 3 18 3q5 0 13 -4zM530 0h-436l-25 20h436zM460 506q74 0 74 -61q0 -51 -43 -51q-35 0 -35 31q0 30 22 29l16 -1q0 23 -28 23q-20 0 -34.5 -15.5t-14.5 -36.5q0 -30 26.5 -53.5t67.5 -23.5q87 0 87 120v117q0 96 -134 96q-22 0 -52 -5v-191
q23 22 48 22zM446 731h-91v-564l35 -27v256l-3 25l3 24v251q64 6 74 6q87 0 125 -36q-12 35 -45 50t-98 15zM532 491q18 0 27 -9q17 -23 17 -54q0 -68 -74 -68q-20 0 -24 22q7 -4 17 -4q59 0 59 51q0 27 -22 62z" />
    <glyph glyph-name="q" unicode="q" 
d="M423 783q159 0 253 -112q88 -105 88 -267q0 -161 -86 -266q-93 -113 -251 -113v-4q0 -80 76 -80h4q-36 31 -31 59q141 17 230 127q85 106 85 251q0 198 -110 315q11 0 15.5 -3.5t40.5 -45.5q78 -92 78 -260q0 -151 -80 -259q-84 -113 -229 -141q-2 -13 31 -40q18 4 72 30
q46 23 72 23l11 -2q22 0 41 -20t19 -46q0 -27 -18 -46t-40 -19q-38 0 -52 27q-27 -21 -52 -67h-25q25 47 77 99q22 -37 50 -37q15 0 27.5 12.5t12.5 27.5q0 34 -20 36q0 -45 -28 -45q-31 0 -29 20l1 13q-3 4 -6 4q-24 0 -79.5 -66.5t-85.5 -66.5q-89 0 -89 134v70
q-152 16 -235 122q-79 101 -79 257q0 163 88 268q93 111 253 111zM179 80q-6 6 -17 31q113 -113 260 -113l2 -21q-151 0 -245 103zM479 240v-168q71 15 89 93q7 30 7 143q-26 -48 -96 -68zM396 301q-56 27 -56 89q0 35 24 58.5t58 23.5q31 0 47 -16.5t16 -37.5
q0 -18 -12 -33t-34 -15q-36 0 -36 41q0 18 4 26q-13 0 -25 -13t-12 -33q0 -27 21 -48.5t48 -21.5q34 0 58.5 28t24.5 62q0 39 -28.5 65.5t-71.5 26.5q-46 0 -88 -30.5t-64 -80.5v-84q0 -105 3 -126q12 -75 62 -100q-23 37 -23 83v241l23 17v-262q0 -50 33 -89q13 -5 28 -5
v234zM431 691q-55 0 -75.5 -23t-20.5 -76v-81q37 22 86 22q61 0 96.5 -34.5t35.5 -94.5q0 -35 -30 -75t-81 -37l-15 1v-227q23 0 29 2v191h8q52 0 83 43q27 38 27 92q0 34 -20 66q-2 25 -10 38q24 -17 31 -33v36q0 133 -15 170q-29 71 -137 71t-137 -71q-16 -38 -16 -170
v-47q22 28 42 41v112q0 105 133 105q44 0 80 -18q12 -17 16 -35q-40 32 -110 32z" />
    <glyph glyph-name="r" unicode="r" horiz-adv-x="836" 
d="M727 736q27 0 34 -4q51 -40 68 -77t17 -104q0 -69 -42.5 -126.5t-108.5 -81.5l76 -110q30 -43 64 -69q-75 -35 -75 -135q0 -76 53 -192h-7l-394 567v-282l94 -73h-445l150 118v475l-150 119h508q93 0 162 -51t69 -141q0 -159 -193 -187l104 -149q29 -41 64 -45l-117 167
q66 10 116.5 67.5t50.5 123.5q0 70 -22 113.5t-76 76.5zM836 147v-17q0 -4 -12 -23q-14 -22 -18 -36q-5 -17 -5 -46q0 -94 34 -144q11 -16 13 -44q-67 81 -67 187q0 71 55 123zM69 20h436l25 -20h-436zM512 398q51 0 81 49q26 42 26 97v43q0 153 -192 153h-72v-573l35 -27
v301q-9 20 -9 42q0 24 9 43v186h116q25 0 48 -15.5t30 -39.5q-32 32 -95 32h-77v-138q16 13 44 13q24 0 39 -15t15 -34q0 -21 -14.5 -34.5t-30.5 -13.5q-20 0 -32 10l-13 17q-9 -7 -9 -8q0 -61 61 -82q0 18 -14 40q80 0 80 51q0 28 -26 52q30 -3 38.5 -14t9.5 -42
q2 -59 -69 -67q5 -12 3 -24q4 -2 18 -2z" />
    <glyph glyph-name="s" unicode="s" horiz-adv-x="694" 
d="M704 695l-91 -125l-14 20l90 125zM631 558q49 0 49 -59q0 -41 -42 -66q97 -92 97 -192q0 -119 -81 -188q-77 -65 -198 -65q-43 0 -119 21.5t-105 21.5q-31 0 -42 -16t-10 -65l1 -65q1 -40 -7 -53.5t-30 -13.5q-12 0 -20 2q-7 -9 -18 -9q-45 0 -45 36q0 34 35 34l1 474
q12 0 40 -69q34 -82 39 -90q37 -53 93 -90q-93 99 -104 208q14 -6 21 -20q1 -3 9 -30q34 -117 155 -195q33 -10 74 -10q70 0 123 26.5t50 70.5l-2 26q-33 43 -134 77l-201 67q-63 21 -86 36q-31 19 -61 64q-2 7 -1 14q47 -58 140 -91q16 -6 186 -58q98 -30 141 -67
q-22 38 -114 82q-52 26 -177 74q-114 44 -149 63q-70 39 -70 140q0 102 92 156q76 44 185 44q55 0 121 -11q58 -12 117 -24q31 0 107 26l-146 -204q-8 -11 -8 -28q0 -32 18 -32l7 7l-1 18q-1 25 32 25q12 0 22 -5q12 3 16 3zM358 761q-68 0 -123 -24q-72 -31 -72 -90
q0 -41 45 -72q-13 25 -13 58q0 45 42.5 71t114.5 26q80 0 147 -36q-25 67 -141 67zM144 -165q18 0 17 45l-1 89q-1 84 64 84q29 0 110.5 -23t128.5 -23q104 0 174 58q75 63 75 164q0 123 -118 211q63 14 63 62q0 31 -20 31l-8 -3l1 -15q1 -18 -18 -32t-39 -14q-33 0 -52 24
q-17 21 -17 54q0 7 3 33.5t3 35.5l-1 26q-36 69 -154 69q-137 0 -137 -80q0 -51 55 -87q91 -29 182 -59q107 -39 167 -90q64 -54 64 -148q0 -102 -72 -164q-68 -58 -172 -58q-50 0 -134.5 27t-111.5 27q-67 0 -62 -141l3 -85l-3 -17z" />
    <glyph glyph-name="t" unicode="t" horiz-adv-x="750" 
d="M776 715l15 -20l-135 -356q17 0 26 -6q50 -12 50 -63q0 -36 -21.5 -56t-57.5 -20q-38 0 -60 27t-22 70q-7 18 -7 50v344h-26v-563l93 -73h-444l150 118v518h-38v-370q0 -52 -23.5 -83t-65.5 -31q-57 0 -63 47q-30 17 -30 48q0 43 45 43q38 0 38 -34q0 -16 -1.5 -19.5
t-15.5 -16.5q34 0 34 46q0 34 -19 84l-137 362h695l-136 -362q-19 -51 -19 -84q0 -46 33 -46q-16 16 -16 36q0 17 14 28zM655 0h-435l-25 20h435zM652 215q26 0 42.5 16.5t16.5 38.5q0 19 -10 25q0 -23 -19 -40t-42 -17q-17 0 -34 9q12 -32 46 -32zM564 734h-83v-567l34 -27
v566h49v28zM337 734h-83v-393q0 -103 -77 -103q1 -16 35 -16q29 0 47 26t18 67v391h60v28z" />
    <glyph glyph-name="u" unicode="u" horiz-adv-x="844" 
d="M268 642h-70q-30 0 -61 -27v146h313q-124 -80 -160 -182q-26 -73 -26 -249q0 -123 17 -176q31 -96 126 -96q75 0 118 46t43 117v540h282l-138 -119v-475l34 -27v489l100 86v-28l-77 -67v-498l93 -73h-293v55q-66 -79 -166 -79q-141 0 -226 82t-85 223q0 147 118 263
l-10 1q-32 0 -50 -42q-14 14 -12 19q18 44 63 44q18 0 29 -4q15 12 38 31zM573 20h288l25 -20h-288zM424 687q-72 -60 -92 -158q-11 -52 -11 -189q0 -101 2 -131q5 -71 24 -129q-24 11 -32 40q-14 50 -14 218q0 157 13 211q25 103 118 166q0 -21 -8 -28zM541 40q0 -6 -2 -20
q-84 -42 -152 -42q-143 0 -226 112q23 -4 27 -6q33 -39 87 -62.5t108 -23.5q77 0 158 42z" />
    <glyph glyph-name="v" unicode="v" horiz-adv-x="848" 
d="M752 651l96 64v-25l-77 -53l-201 -509l111 -79h-450l131 118l-190 492l-122 102h418l-146 -114l181 -469l15 42l-162 419l96 75v-26l-70 -54l149 -384l158 400l-138 111h322l-143 -98l-200 -504l21 -16zM236 20h445l25 -20h-445z" />
    <glyph glyph-name="w" unicode="w" horiz-adv-x="1177" 
d="M658 509q57 143 57 161q0 25 -3.5 34.5t-21.5 28.5q46 0 46 -61q0 -24 -55 -162l101 -246l78 384l-144 113h486l-190 -98l-100 -495l30 -22l99 494l146 76v-22l-127 -65l-100 -495l118 -85h-459l123 102l-104 251l-115 -288l88 -65h-459l157 128l-90 463l-171 121h457
l-144 -105l95 -491l21 53l-83 426l99 72v-25l-76 -56l73 -383l103 257q-59 138 -59 163q0 33 22.5 58.5t53.5 25.5q76 0 76 -78q0 -26 -62 -168l140 -337l11 55zM1103 0h-918l-24 20h917zM605 637q-6 14 -6 30q0 35 33 35q17 0 22 -4q-11 26 -38 26q-51 0 -51 -51
q0 -24 43 -125l18 40zM627 430l-18 42l-129 -326l27 -19zM656 676q-10 7 -26 7q-11 0 -11 -15q0 -9 6 -23l12 -28q14 33 17 48z" />
    <glyph glyph-name="x" unicode="x" horiz-adv-x="870" 
d="M856 715v-25l-76 -60l-170 -204l208 -287h-28l-209 288l180 213zM694 654l-127 107h302l-125 -99l-197 -235l189 -260l152 -118h-458l135 106l-106 144l-20 -22q-46 -51 -94 -147q-41 -82 -81 -163q-50 -90 -110 -139h-24q71 63 115 147q26 53 81 165q45 90 102 157
l18 21l-16 23l-24 -29q-54 -65 -121 -196q-81 -158 -111 -204q-45 -69 -102 -84l-6 4q72 82 72 147q0 100 -79 144l1 7q9 -3 26 -3q56 0 113.5 29t94.5 73l116 139l-209 289l-146 104h452l-130 -99l150 -208l19 22l-131 182l72 56v-25l-43 -33l118 -163zM436 20h452l25 -20
h-452z" />
    <glyph glyph-name="y" unicode="y" horiz-adv-x="846" 
d="M750 633l102 82v-27l-84 -67l-160 -290l19 -1q-82 -33 -82 -96v-67l149 -118h-443l150 118v22q-27 -9 -71 -9q-81 0 -81 37q35 -15 79 -15q41 0 73 16v30q-37 -25 -92 -25q-48 0 -81 31t-33 78q0 42 27 68q25 23 60 23q29 0 49.5 -19.5t20.5 -51.5q0 -21 -12.5 -35.5
t-30.5 -14.5q-40 0 -40 41q0 26 41 40q-7 12 -25 12q-23 0 -39.5 -17.5t-16.5 -44.5q0 -36 30 -57q26 -19 63 -19q53 0 79 38v56l-190 299l-164 111h479l-146 -108l169 -268l16 27l-149 236l92 67v-25l-64 -48l132 -209l121 221l-136 107h309l-142 -114l-160 -292
q8 -9 20 -16zM719 0h-437l-25 20h437zM655 313q0 -22 -15 -28q-34 -10 -34 -61v-83q-21 3 -21 26v67q0 33 14.5 50t55.5 29z" />
    <glyph glyph-name="z" unicode="z" horiz-adv-x="737" 
d="M92 0l-25 20h679l-100 286q48 15 48 54q0 21 -24 51q27 -3 36 -17q6 -11 7 -43q1 -35 -39 -56l103 -295h-685zM493 731h-228l-31 -223q-12 -83 -64 -83q-27 0 -43 15t-16 35q0 16 13 30.5t28 14.5q30 0 30 -34q0 -15 -21 -31l9 -3q7 0 17 9t10 20q0 36 -26 95l-81 185
h586l-430 -679h45l401 633v-39l-376 -594h197l36 271q11 80 61 80q23 0 37 -16.5t14 -36.5q0 -37 -30 -37q-29 0 -29 29q0 -5 7 30q-9 4 -15.5 -5t-6.5 -24q0 -19 12 -53l95 -271h-633l399 630h-145l-27 -194q-6 -45 -30 -71t-56 -26q-33 0 -42 12q10 11 13 10q9 -3 26 -3
q56 0 68 86l29 205h177z" />
    <glyph glyph-name="braceleft" unicode="{" horiz-adv-x="444" 
d="M61 291q94 12 129 43q42 37 42 127v120q0 96 83 142q66 38 169 38v-39q-87 -14 -123.5 -46t-36.5 -95v-137q0 -91 -64 -133q-42 -27 -150 -49q108 -21 150 -48q64 -42 64 -133v-137q0 -63 36 -95t124 -46v-38q-104 0 -170 37q-82 46 -82 142v119q0 90 -42 127
q-35 31 -129 43v58z" />
    <glyph glyph-name="bar" unicode="|" horiz-adv-x="110" 
d="M79 -137v898h47v-898h-47z" />
    <glyph glyph-name="braceright" unicode="}" horiz-adv-x="444" 
d="M313 63v-119q0 -95 -83 -142q-66 -37 -169 -37v38q87 14 123.5 46t36.5 95v137q0 91 64 133q41 26 150 48q-109 22 -150 48q-64 42 -64 134v137q0 63 -36.5 95t-123.5 46v39q125 0 191 -51q61 -47 61 -129v-120q0 -91 41 -127q35 -31 130 -43v-58q-95 -12 -130 -43
q-41 -36 -41 -127z" />
    <glyph glyph-name="asciitilde" unicode="~" horiz-adv-x="410" 
d="M143 848q16 34 52 34q14 0 62 -17.5t69 -17.5q37 0 71.5 26.5t53.5 69.5v-13q0 -50 -52 -84q-35 -23 -71 -23q-29 0 -133 34q-25 0 -41 -30h-74l-6 21h69zM377 1018h72q-8 -63 -41 -102.5t-80 -39.5q-29 0 -82 21t-69 21q-37 0 -44 -40h-72q7 61 41 101.5t79 40.5
q29 0 81 -21.5t71 -21.5q37 0 44 41z" />
    <glyph glyph-name="nonbreakingspace" unicode="&#xa0;" horiz-adv-x="250" 
 />
    <glyph glyph-name="exclamdown" unicode="&#xa1;" horiz-adv-x="294" 
d="M104 624q0 36 24 59.5t60 23.5q35 0 59.5 -24t24.5 -59q0 -34 -25 -59t-59 -25q-21 0 -41 11l-60 -135v-344l-39 -56v28l20 30v344l55 123q-68 32 -68 107q0 45 31 74t77 29q59 0 83 -30q9 -11 9 -17l-2 -11q-12 15 -36.5 28t-42.5 13q-43 0 -70 -21q-31 -24 -31 -65
q0 -29 15.5 -52.5t40.5 -30.5q-25 25 -25 59zM59 -18l59 83v345l54 120h34l56 -131v-325l59 -92h-262z" />
    <glyph glyph-name="cent" unicode="&#xa2;" horiz-adv-x="431" 
d="M309 636q9 0 31 -8t29 -13l13 9q-36 30 -90 30v-397l17 1v378zM262 621q-54 -11 -54 -100v-185q0 -63 54 -76v361zM262 654q-87 -10 -87 -133v-167q0 -26 19 -48l-2 31v184q0 105 70 116v17zM288 103l-11 16h32v100q113 14 152 137q9 -6 6 -14q-35 -111 -142 -134v-105
h-37zM309 716l16 -10v-36q67 -10 104 -45.5t37 -85.5q0 -28 -19.5 -49.5t-46.5 -21.5q-57 0 -66 67q-6 40 22 68q-18 11 -31 14v-355q78 24 98 127h23q-30 -140 -154 -156v-97h-30v67q-76 -1 -124 38q-37 29 -37 54q0 3 1 4q58 -83 160 -83v16q-95 0 -150 68q-51 63 -51 160
q0 94 54 154t147 60v76h30v-76l17 -1v43zM485 584q14 -14 14 -45q0 -41 -29 -72.5t-70 -31.5q-40 0 -59 30l-4 29q20 -42 63 -42q33 0 58 26.5t25 60.5q0 25 -8 40z" />
    <glyph glyph-name="sterling" unicode="&#xa3;" horiz-adv-x="676" 
d="M590 3q13 0 15 27q2 24 46.5 93.5t44.5 94.5v34q-1 6 -4 14q19 -11 22 -21q2 -5 2 -37q0 -23 -42 -92q-45 -72 -49 -102.5t-23 -30.5q-109 0 -207 110q-29 -46 -92 -79t-119 -33q-45 0 -78 24q-16 12 -10 27q43 -31 101 -31q48 0 110 42q59 39 86 83l-37 35
q-24 -63 -74 -99.5t-109 -36.5q-44 0 -76 20q-36 23 -36 65q0 68 80 102q90 39 179 35l24 -1v26h-94l-3 20h94q-3 21 -10 36h-127l-9 51h35q-9 13 -38.5 31t-35 25.5t-5.5 21.5v9q9 -9 58 -43q41 -28 50 -44h37q-20 21 -75 53.5t-75 52.5q-35 35 -35 81q0 82 79 129
q65 39 153 39q50 0 215 -37q28 0 80 23q12 0 12 -10q0 -5 -5 -15l-97 -201q-3 -6 -10 -6t-7 8q0 9 2 33q0 79 -39.5 124t-101.5 45q-54 0 -85.5 -33.5t-31.5 -88.5q0 -39 72 -197h25q-58 141 -58 198q0 99 115 99q18 0 30 -20h-27q-96 0 -96 -77q0 -67 60 -200h67l10 -51
h-109q9 -39 9 -71v-16l32 -7q0 36 -7 58h121l-12 69l26 -19l12 -70h-121q3 -12 3 -43q118 -30 144 -30q80 0 80 55q0 7 -7 13q-10 -30 -27 -30q-16 0 -27 10t-11 23q0 18 15.5 32t33.5 14q22 0 39 -16q18 -19 18 -50q0 -28 -47 -91q-52 -69 -58 -91q-8 -30 -27 -30
q-59 0 -147 76q88 -111 184 -111zM665 669v-41l-103 -217v42zM274 208q-65 0 -65 -41q0 -34 48 -34q47 0 73 50q-32 25 -56 25z" />
    <glyph glyph-name="currency" unicode="&#xa4;" horiz-adv-x="234" 
d="M160 600q-4 0 -28 3q-12 0 -12 -12q0 -82 53 -115q27 -17 27 -26l-2 -11q-63 18 -101 80q-36 57 -36 126q0 49 26 82.5t67 33.5q34 0 55 -23.5t21 -57.5q0 -80 -70 -80zM165 562q4 -34 28 -47l-5 -19q-47 23 -47 85q53 0 82 29q28 26 28 70q0 33 -28 64l24 -8
q25 -27 25 -56q0 -47 -30 -82.5t-77 -35.5z" />
    <glyph glyph-name="dieresis" unicode="&#xa8;" horiz-adv-x="441" 
d="M201 1003v-129h-154v129h154zM50 823v21h180v89h21v-110h-201zM418 1003v-129h-155v129h155zM266 823v21h181v89h20v-110h-201z" />
    <glyph glyph-name="copyright" unicode="&#xa9;" horiz-adv-x="690" 
d="M731 428q0 -140 -96.5 -238.5t-235.5 -98.5q-140 0 -239 99t-99 238q0 138 99.5 235.5t238.5 97.5q140 0 236 -97t96 -236zM399 127q124 0 210 88t86 213q0 124 -86 209.5t-210 85.5t-212.5 -85.5t-88.5 -209.5t88.5 -212.5t212.5 -88.5zM551 634v-160h-18q-13 58 -44 96
q-37 46 -90 46q-55 0 -87 -51.5t-32 -138.5q0 -72 30 -119q36 -57 103 -57q73 0 129 90l19 -10q-39 -60 -78.5 -84.5t-97.5 -24.5q-81 0 -135 66q-51 62 -51 145q0 81 56.5 143.5t136.5 62.5q39 0 67 -13q50 -23 51 -23q9 0 21 32h20z" />
    <glyph glyph-name="registered" unicode="&#xae;" horiz-adv-x="690" 
d="M737 428q0 -140 -96.5 -238.5t-235.5 -98.5q-140 0 -239 99t-99 238q0 138 99.5 235.5t238.5 97.5q140 0 236 -97t96 -236zM405 127q124 0 210.5 88.5t86.5 212.5t-86.5 209.5t-210.5 85.5q-123 0 -211.5 -86t-88.5 -209q0 -124 88 -212.5t212 -88.5zM360 620
q206 0 206 -96q0 -74 -132 -100q45 -12 72 -56q14 -23 31 -75q12 -38 22 -38q28 0 35 69h23q-9 -100 -84 -100q-53 0 -67 48q-2 5 -10 93q-5 21 -22.5 36t-38.5 15h-50v-108q0 -38 16 -48q10 -6 50 -6v-22h-196v22q39 0 48 4q16 7 16 37v260q0 29 -19 37q-10 5 -45 5v23h145
zM394 599q-24 0 -35 -6q-14 -9 -14 -47v-104h60q83 0 83 86q0 31 -25.5 51t-68.5 20z" />
    <glyph glyph-name="acute" unicode="&#xb4;" horiz-adv-x="308" 
d="M217 874h-122l101 151h186zM121 823l-26 21h127l156 143v-28l-149 -136h-108z" />
    <glyph glyph-name="periodcentered" unicode="&#xb7;" horiz-adv-x="485" 
d="M482 -64l16 -4q6 -3 10 -10q17 -28 17 -76q0 -114 -80 -153q-31 -15 -35 -15q-7 0 -16 3q114 52 114 165q0 45 -26 90zM442 -178q0 10 -8 10l-22 -3q-24 0 -40.5 17.5t-16.5 46.5q0 27 16.5 45.5t44.5 18.5q32 0 53 -26.5t21 -65.5q0 -58 -31 -105t-79 -60q-3 17 7 21
q48 30 54 71l-15 -1q-28 -2 -47 17q-4 5 -4 10q0 2 1 5q28 -18 53 -16l13 1v14z" />
    <glyph glyph-name="periodcentered" unicode="&#x2219;" horiz-adv-x="485" 
d="M482 -64l16 -4q6 -3 10 -10q17 -28 17 -76q0 -114 -80 -153q-31 -15 -35 -15q-7 0 -16 3q114 52 114 165q0 45 -26 90zM442 -178q0 10 -8 10l-22 -3q-24 0 -40.5 17.5t-16.5 46.5q0 27 16.5 45.5t44.5 18.5q32 0 53 -26.5t21 -65.5q0 -58 -31 -105t-79 -60q-3 17 7 21
q48 30 54 71l-15 -1q-28 -2 -47 17q-4 5 -4 10q0 2 1 5q28 -18 53 -16l13 1v14z" />
    <glyph glyph-name="questiondown" unicode="&#xbf;" horiz-adv-x="514" 
d="M366 184q0 35 26.5 59.5t63.5 24.5q40 0 73 -34.5t33 -75.5q0 -91 -68 -136q-58 -39 -153 -39q-102 0 -164 74q-58 69 -58 174l195 168q70 60 70 84q0 14 -15.5 23t-32.5 9q-24 0 -42.5 -16.5t-18.5 -37.5l3 -25q1 -9 -13 -9q-15 0 -15 30q0 40 27.5 63.5t69.5 23.5
q58 0 95 -36.5t37 -94.5q0 -55 -50 -98l-102 -88q13 -61 38 -61h4zM463 308q69 -15 93 -56q9 -16 9 -19q0 -1 -5 -16q-55 76 -130 76q13 19 33 15zM149 42q-80 84 -80 186q0 22 9 34q4 7 26 26l138 119q-45 33 -45 85q0 71 62 80q-5 -22 -15 -26q-26 -17 -26 -51
q0 -46 60 -87l-164 -142q-23 -20 -23 -54q0 -83 99 -187q-11 2 -21.5 5t-19.5 12zM272 637q0 34 24 57.5t58 23.5q35 0 58.5 -23t23.5 -58q0 -33 -24.5 -57.5t-57.5 -24.5t-57.5 24.5t-24.5 57.5zM232 624q-7 17 -7 39q0 42 29 70t71 28q40 0 63 -18q10 -8 7 -23
q-34 21 -70 21q-31 0 -55.5 -24.5t-24.5 -55.5q0 -28 21 -64h-11q-12 0 -23 27zM262 171q-39 -33 -39 -74q0 -42 53 -64q41 -17 89 -17q64 0 113 37q53 40 53 102q0 31 -25 57t-56 26l-4 -6q28 -19 28 -45q0 -59 -48 -59q-26 0 -46 18l-15 -3q-42 0 -56 68zM233 95
q-2 6 -2 9q0 12 6 22q26 -36 51 -49t69 -13q51 0 90 26q44 29 44 78q0 16 -5 38q26 -17 26 -42q0 -56 -47 -89q-42 -30 -100 -30q-91 0 -132 50z" />
    <glyph glyph-name="Agrave" unicode="&#xc0;" horiz-adv-x="812" 
d="M191 699l53 -2v-21l-53 2q-55 2 -67 -17q31 -11 31 -43q0 -21 -17 -35t-44 -14q-12 0 -25 7q12 -42 53 -42q24 0 43 17t19 41q0 30 -20 59q43 -10 43 -55q0 -38 -25.5 -61.5t-60.5 -23.5q-34 0 -61.5 32.5t-27.5 66.5q-8 18 -8 31q0 66 49 95q45 25 142 25h617l-138 -119
v-475l34 -27v489l100 86v-30l-77 -66v-497l94 -73h-445l150 118v109h-175q-90 -211 -212 -375q-40 -54 -44 -54q-15 0 -9 9q154 214 252 441h188v28h-211q-113 -284 -233 -429q-39 -48 -43.5 -50.5t-8.5 -2.5q-9 0 -12.5 7.5t-1.5 14.5q89 248 105 297q57 170 87 303
q31 138 31 263h-69q-136 0 -136 -83q0 -36 21 -38l-3 22q0 24 21 31q4 23 24 32t70 7zM408 20h436l24 -20h-435zM496 672q-18 -114 -64 -249h118v249h-54zM478 693h72v35h-101q-21 -142 -74 -305h34q45 134 69 270zM354 366l-2 -8h198v8h-196zM424 1025l100 -151h-121
l-166 151h187zM437 844h138l-105 157l52 -37l94 -141h-149z" />
    <glyph glyph-name="Aacute" unicode="&#xc1;" horiz-adv-x="812" 
d="M191 699l53 -2v-21l-53 2q-55 2 -67 -17q31 -11 31 -43q0 -21 -17 -35t-44 -14q-12 0 -25 7q12 -42 53 -42q24 0 43 17t19 41q0 30 -20 59q43 -10 43 -55q0 -38 -25.5 -61.5t-60.5 -23.5q-34 0 -61.5 32.5t-27.5 66.5q-8 18 -8 31q0 66 49 95q45 25 142 25h617l-138 -119
v-475l34 -27v489l100 86v-30l-77 -66v-497l94 -73h-445l150 118v109h-175q-90 -211 -212 -375q-40 -54 -44 -54q-15 0 -9 9q154 214 252 441h188v28h-211q-113 -284 -233 -429q-39 -48 -43.5 -50.5t-8.5 -2.5q-9 0 -12.5 7.5t-1.5 14.5q89 248 105 297q57 170 87 303
q31 138 31 263h-69q-136 0 -136 -83q0 -36 21 -38l-3 22q0 24 21 31q4 23 24 32t70 7zM408 20h436l24 -20h-435zM539 874h-121l100 151h187zM444 823l-26 21h126l157 143v-28l-150 -136h-107zM496 672q-18 -114 -64 -249h118v249h-54zM478 693h72v35h-101q-21 -142 -74 -305
h34q45 134 69 270zM354 366l-2 -8h198v8h-196z" />
    <glyph glyph-name="Acircumflex" unicode="&#xc2;" horiz-adv-x="812" 
d="M191 699l53 -2v-21l-53 2q-55 2 -67 -17q31 -11 31 -43q0 -21 -17 -35t-44 -14q-12 0 -25 7q12 -42 53 -42q24 0 43 17t19 41q0 30 -20 59q43 -10 43 -55q0 -38 -25.5 -61.5t-60.5 -23.5q-34 0 -61.5 32.5t-27.5 66.5q-8 18 -8 31q0 66 49 95q45 25 142 25h617l-138 -119
v-475l34 -27v489l100 86v-30l-77 -66v-497l94 -73h-445l150 118v109h-175q-90 -211 -212 -375q-40 -54 -44 -54q-15 0 -9 9q154 214 252 441h188v28h-211q-113 -284 -233 -429q-39 -48 -43.5 -50.5t-8.5 -2.5q-9 0 -12.5 7.5t-1.5 14.5q89 248 105 297q57 170 87 303
q31 138 31 263h-69q-136 0 -136 -83q0 -36 21 -38l-3 22q0 24 21 31q4 23 24 32t70 7zM408 20h436l24 -20h-435zM580 823l-15 21h161l-120 158l42 -19l121 -160h-189zM480 955l-62 -81h-131l116 153h153l117 -153h-131l-32 42l-73 -93h-126l-16 21h131l69 91zM496 672
q-18 -114 -64 -249h118v249h-54zM478 693h72v35h-101q-21 -142 -74 -305h34q45 134 69 270zM354 366l-2 -8h198v8h-196z" />
    <glyph glyph-name="Atilde" unicode="&#xc3;" horiz-adv-x="812" 
d="M191 699l53 -2v-21l-53 2q-55 2 -67 -17q31 -11 31 -43q0 -21 -17 -35t-44 -14q-12 0 -25 7q12 -42 53 -42q24 0 43 17t19 41q0 30 -20 59q43 -10 43 -55q0 -38 -25.5 -61.5t-60.5 -23.5q-34 0 -61.5 32.5t-27.5 66.5q-8 18 -8 31q0 66 49 95q45 25 142 25h617l-138 -119
v-475l34 -27v489l100 86v-30l-77 -66v-497l94 -73h-445l150 118v109h-175q-90 -211 -212 -375q-40 -54 -44 -54q-15 0 -9 9q154 214 252 441h188v28h-211q-113 -284 -233 -429q-39 -48 -43.5 -50.5t-8.5 -2.5q-9 0 -12.5 7.5t-1.5 14.5q89 248 105 297q57 170 87 303
q31 138 31 263h-69q-136 0 -136 -83q0 -36 21 -38l-3 22q0 24 21 31q4 23 24 32t70 7zM408 20h436l24 -20h-435zM385 848q19 34 52 34q14 0 63 -17.5t69 -17.5q38 0 71.5 26.5t52.5 69.5v-13q0 -50 -51 -84q-35 -23 -71 -23q-30 0 -134 34q-25 0 -40 -30h-75l-6 21h69z
M620 1018h71q-7 -61 -41 -101.5t-79 -40.5q-27 0 -84 21t-67 21q-38 0 -45 -40h-71q7 61 41 101.5t79 40.5q27 0 79 -21.5t72 -21.5q36 0 45 41zM496 672q-18 -114 -64 -249h118v249h-54zM478 693h72v35h-101q-21 -142 -74 -305h34q45 134 69 270zM354 366l-2 -8h198v8h-196
z" />
    <glyph glyph-name="Adieresis" unicode="&#xc4;" horiz-adv-x="812" 
d="M191 699l53 -2v-21l-53 2q-55 2 -67 -17q31 -11 31 -43q0 -21 -17 -35t-44 -14q-12 0 -25 7q12 -42 53 -42q24 0 43 17t19 41q0 30 -20 59q43 -10 43 -55q0 -38 -25.5 -61.5t-60.5 -23.5q-34 0 -61.5 32.5t-27.5 66.5q-8 18 -8 31q0 66 49 95q45 25 142 25h617l-138 -119
v-475l34 -27v489l100 86v-30l-77 -66v-497l94 -73h-445l150 118v109h-175q-90 -211 -212 -375q-40 -54 -44 -54q-15 0 -9 9q154 214 252 441h188v28h-211q-113 -284 -233 -429q-39 -48 -43.5 -50.5t-8.5 -2.5q-9 0 -12.5 7.5t-1.5 14.5q89 248 105 297q57 170 87 303
q31 138 31 263h-69q-136 0 -136 -83q0 -36 21 -38l-3 22q0 24 21 31q4 23 24 32t70 7zM408 20h436l24 -20h-435zM452 1003v-129h-155v129h155zM301 823v21h180v89h21v-110h-201zM668 1003v-129h-154v129h154zM517 823v21h180v89h21v-110h-201zM354 366l-2 -8h198v8h-196z
M496 672q-18 -114 -64 -249h118v249h-54zM478 693h72v35h-101q-21 -142 -74 -305h34q45 134 69 270z" />
    <glyph glyph-name="Aring" unicode="&#xc5;" horiz-adv-x="812" 
d="M191 699l53 -2v-21l-53 2q-55 2 -67 -17q31 -11 31 -43q0 -21 -17 -35t-44 -14q-12 0 -25 7q12 -42 53 -42q24 0 43 17t19 41q0 30 -20 59q43 -10 43 -55q0 -38 -25.5 -61.5t-60.5 -23.5q-34 0 -61.5 32.5t-27.5 66.5q-8 18 -8 31q0 66 49 95q45 25 142 25h617l-138 -119
v-475l34 -27v489l100 86v-30l-77 -66v-497l94 -73h-445l150 118v109h-175q-90 -211 -212 -375q-40 -54 -44 -54q-15 0 -9 9q154 214 252 441h188v28h-211q-113 -284 -233 -429q-39 -48 -43.5 -50.5t-8.5 -2.5q-9 0 -12.5 7.5t-1.5 14.5q89 248 105 297q57 170 87 303
q31 138 31 263h-69q-136 0 -136 -83q0 -36 21 -38l-3 22q0 24 21 31q4 23 24 32t70 7zM408 20h436l24 -20h-435zM608 982q0 -48 -34 -82t-82 -34t-82 34t-34 82t34 82t82 34q49 0 82.5 -33.5t33.5 -82.5zM491 845q51 0 93.5 33.5t42.5 82.5q0 55 -28 103q23 -4 30 -15
q20 -37 20 -87q0 -62 -47.5 -100.5t-110.5 -38.5q-76 0 -103 46q-10 17 -10 49q32 -73 113 -73zM496 672q-18 -114 -64 -249h118v249h-54zM478 693h72v35h-101q-21 -142 -74 -305h34q45 134 69 270zM492 1034q-22 0 -37 -15t-15 -37q0 -28 24 -43q-6 18 -6 46q0 17 13 28.5
t28 11.5q17 0 27 -3q-15 12 -34 12zM544 982l-2 14q-10 9 -40 9q-21 0 -21 -20q0 -32 14 -54q21 0 35 15t14 36zM354 366l-2 -8h198v8h-196z" />
    <glyph glyph-name="AE" unicode="&#xc6;" horiz-adv-x="1232" 
d="M1031 551q-16 -27 -16 -47t14 -25l-1 16q-2 30 33 30q12 0 18 -6q47 0 47 -54q0 -26 -17.5 -43.5t-49.5 -17.5q-31 0 -52.5 25t-24.5 57q-5 22 -5 45v156h-188v-245l100 128v-286l-62 80h-38v-282h204v246q0 25 17.5 44.5t38.5 19.5q32 0 45 -18q51 0 51 -58
q0 -37 -25 -50l153 -266h-803l-24 20h789l-146 255q32 11 32 46q0 25 -15 28v-6q0 -42 -31 -42l-20 3q-6 0 -6 -6q0 -9 10 -26l128 -223h-750l151 119v108h-176q-94 -215 -211 -375q-40 -54 -44 -54q-17 0 -10 9q156 214 252 441h189v28h-212q-113 -283 -235 -432
q-41 -50 -49 -50q-9 0 -12.5 7.5t-1.5 14.5l126 361q97 287 97 502h-70q-136 0 -136 -83q0 -36 21 -38l-3 22q0 24 22 31q6 42 93 39l53 -2v-21l-53 2q-55 2 -66 -17q31 -11 31 -43q0 -21 -17 -35t-44 -14q-12 0 -25 7q12 -42 53 -42q24 0 43 17t19 41q0 31 -21 59
q44 -11 44 -55q0 -37 -26 -61t-60 -24q-35 0 -62.5 31.5t-27.5 67.5q-8 18 -8 31q0 66 49 95q45 25 142 25h903zM940 227l-23 29v255l23 -29v-255zM1093 545l-14 20l89 150l14 -20zM1059 424q17 0 32 12t15 30q0 32 -17 32l1 -12q1 -12 -15.5 -26t-34.5 -14l-19 2
q17 -24 38 -24zM515 693h73v35h-102q-24 -156 -74 -305h35q43 129 68 270zM791 411h-59v-329h34v301h46zM977 733h-245v-291h34v265h211v26zM534 672q-20 -117 -65 -249h119v249h-54zM392 366l-2 -8h198v8h-196z" />
    <glyph glyph-name="Ccedilla" unicode="&#xc7;" horiz-adv-x="719" 
d="M646 526l89 188l14 -20l-89 -187zM450 672q-153 0 -153 -114v-361q0 -62 40 -96.5t102 -34.5q90 0 152 66q56 59 72 153h38q-55 -260 -299 -260q-159 0 -253 112q-88 105 -88 267q0 166 88.5 261.5t252.5 95.5h318l-120 -254q-17 -36 -17 -55q0 -26 30 -26q9 0 9 6
q-4 16 -4 22q0 26 34 26q10 0 14 -4q52 -7 52 -60q0 -30 -27 -51t-66 -21q-65 0 -91 46q-2 3 -2 7q0 6 5 12q37 -46 83 -46q37 0 57 16t20 41t-18 29v-5q0 -19 -19 -33.5t-47 -14.5q-99 0 -99 117v159h-64zM726 232q14 -9 14 -16q0 -48 -42 -103q-34 -44 -81 -77
q-84 -59 -201 -59q-79 0 -149 22q-90 28 -122 83q-20 34 -20 42q0 -1 2 13q52 -78 121 -110q63 -29 162 -29q243 0 316 234zM477 -64q14 -4 15 -4q5 -3 10 -10q18 -28 18 -76q0 -114 -80 -153q-31 -15 -35 -15q-7 0 -16 3q114 54 114 165q0 46 -26 90zM437 -178q0 10 -8 10
l-22 -3q-24 0 -40.5 17.5t-16.5 46.5q0 27 16.5 45.5t43.5 18.5q33 0 54 -26.5t21 -65.5q0 -58 -31 -105t-79 -60q-1 3 -1 10q0 8 7 11q48 29 55 71l-15 -1q-28 -2 -43 12q-11 11 -7 20q28 -18 53 -16l13 1v14zM275 198v356q0 140 181 140h58v36h-112q-102 0 -133 -75
q-19 -45 -19 -167v-260q0 -44 29 -82q-4 23 -4 52z" />
    <glyph glyph-name="Egrave" unicode="&#xc8;" horiz-adv-x="856" 
d="M769 316q0 -37 -25 -50l152 -266h-802l-25 20h790l-146 255q32 11 32 46q0 25 -15 28v-6q0 -42 -32 -42l-19 3q-7 0 -7 -6q0 -7 11 -26l127 -223h-749l150 119v474l-150 119h718l-124 -210q-16 -27 -16 -47t14 -25l-1 16q-2 30 33 30q11 0 18 -6q47 0 47 -54
q0 -26 -17.5 -43.5t-49.5 -17.5q-31 0 -52.5 25t-24.5 57q-5 22 -5 45v156h-189v-245l101 128v-286l-62 80h-39v-282h205v246q0 25 17.5 44.5t38.5 19.5q32 0 45 -18q51 0 51 -58zM717 545l-14 20l89 150l14 -20zM564 227l-23 29v255l23 -29v-255zM683 424q17 0 32 12t15 30
q0 32 -17 32l1 -12q1 -12 -15.5 -26t-34.5 -14l-19 2q17 -24 38 -24zM601 733h-246v-291h35v265h211v26zM415 411h-60v-329h35v301h46zM393 1025l100 -151h-121l-166 151h187zM406 844h138l-105 157l52 -37l93 -141h-148z" />
    <glyph glyph-name="Eacute" unicode="&#xc9;" horiz-adv-x="856" 
d="M769 316q0 -37 -25 -50l152 -266h-802l-25 20h790l-146 255q32 11 32 46q0 25 -15 28v-6q0 -42 -32 -42l-19 3q-7 0 -7 -6q0 -7 11 -26l127 -223h-749l150 119v474l-150 119h718l-124 -210q-16 -27 -16 -47t14 -25l-1 16q-2 30 33 30q11 0 18 -6q47 0 47 -54
q0 -26 -17.5 -43.5t-49.5 -17.5q-31 0 -52.5 25t-24.5 57q-5 22 -5 45v156h-189v-245l101 128v-286l-62 80h-39v-282h205v246q0 25 17.5 44.5t38.5 19.5q32 0 45 -18q51 0 51 -58zM717 545l-14 20l89 150l14 -20zM564 227l-23 29v255l23 -29v-255zM524 874h-121l101 151h186
zM429 823l-26 21h127l156 143v-28l-149 -136h-108zM683 424q17 0 32 12t15 30q0 32 -17 32l1 -12q1 -12 -15.5 -26t-34.5 -14l-19 2q17 -24 38 -24zM601 733h-246v-291h35v265h211v26zM415 411h-60v-329h35v301h46z" />
    <glyph glyph-name="Ecircumflex" unicode="&#xca;" horiz-adv-x="856" 
d="M769 316q0 -37 -25 -50l152 -266h-802l-25 20h790l-146 255q32 11 32 46q0 25 -15 28v-6q0 -42 -32 -42l-19 3q-7 0 -7 -6q0 -7 11 -26l127 -223h-749l150 119v474l-150 119h718l-124 -210q-16 -27 -16 -47t14 -25l-1 16q-2 30 33 30q11 0 18 -6q47 0 47 -54
q0 -26 -17.5 -43.5t-49.5 -17.5q-31 0 -52.5 25t-24.5 57q-5 22 -5 45v156h-189v-245l101 128v-286l-62 80h-39v-282h205v246q0 25 17.5 44.5t38.5 19.5q32 0 45 -18q51 0 51 -58zM717 545l-14 20l89 150l14 -20zM564 227l-23 29v255l23 -29v-255zM520 823l-15 21h161
l-120 158l42 -19l121 -160h-189zM420 955l-62 -81h-131l116 153h153l116 -153h-130l-32 42l-73 -93h-126l-16 21h131l69 91zM683 424q17 0 32 12t15 30q0 32 -17 32l1 -12q1 -12 -15.5 -26t-34.5 -14l-19 2q17 -24 38 -24zM601 733h-246v-291h35v265h211v26zM415 411h-60
v-329h35v301h46z" />
    <glyph glyph-name="Edieresis" unicode="&#xcb;" horiz-adv-x="856" 
d="M769 316q0 -37 -25 -50l152 -266h-802l-25 20h790l-146 255q32 11 32 46q0 25 -15 28v-6q0 -42 -32 -42l-19 3q-7 0 -7 -6q0 -7 11 -26l127 -223h-749l150 119v474l-150 119h718l-124 -210q-16 -27 -16 -47t14 -25l-1 16q-2 30 33 30q11 0 18 -6q47 0 47 -54
q0 -26 -17.5 -43.5t-49.5 -17.5q-31 0 -52.5 25t-24.5 57q-5 22 -5 45v156h-189v-245l101 128v-286l-62 80h-39v-282h205v246q0 25 17.5 44.5t38.5 19.5q32 0 45 -18q51 0 51 -58zM717 545l-14 20l89 150l14 -20zM564 227l-23 29v255l23 -29v-255zM412 1003v-129h-154v129
h154zM261 823v21h180v89h21v-110h-201zM629 1003v-129h-154v129h154zM478 823v21h180v89h21v-110h-201zM415 411h-60v-329h35v301h46zM683 424q17 0 32 12t15 30q0 32 -17 32l1 -12q1 -12 -15.5 -26t-34.5 -14l-19 2q17 -24 38 -24zM601 733h-246v-291h35v265h211v26z" />
    <glyph glyph-name="Igrave" unicode="&#xcc;" horiz-adv-x="489" 
d="M506 49h-445l150 118v475l-150 119h432l-138 -119v-475l35 -27v489l99 86v-30l-77 -66v-497zM69 20h436l25 -20h-436zM231 1025l101 -151h-122l-165 151h186zM245 844h137l-104 157l52 -37l93 -141h-148z" />
    <glyph glyph-name="Iacute" unicode="&#xcd;" horiz-adv-x="489" 
d="M506 49h-445l150 118v475l-150 119h432l-138 -119v-475l35 -27v489l99 86v-30l-77 -66v-497zM69 20h436l25 -20h-436zM327 874h-121l101 151h186zM232 823l-26 21h127l156 143v-28l-149 -136h-108z" />
    <glyph glyph-name="Icircumflex" unicode="&#xce;" horiz-adv-x="489" 
d="M506 49h-445l150 118v475l-150 119h432l-138 -119v-475l35 -27v489l99 86v-30l-77 -66v-497zM69 20h436l25 -20h-436zM354 823l-15 21h162l-121 158l42 -19l121 -160h-189zM254 955l-62 -81h-131l116 153h154l116 -153h-131l-32 42l-73 -93h-126l-16 21h131l69 91z" />
    <glyph glyph-name="Idieresis" unicode="&#xcf;" horiz-adv-x="489" 
d="M506 49h-445l150 118v475l-150 119h432l-138 -119v-475l35 -27v489l99 86v-30l-77 -66v-497zM69 20h436l25 -20h-436zM247 1003v-129h-155v129h155zM95 823v21h181v89h20v-110h-201zM463 1003v-129h-154v129h154zM312 823v21h180v89h21v-110h-201z" />
    <glyph glyph-name="Ntilde" unicode="&#xd1;" horiz-adv-x="858" 
d="M411 656l80 59v-26l-52 -38l255 -374v365l-127 119h294l-137 -119v-487l35 -29v503l99 86v-30l-77 -66v-511l76 -59h-481l150 118l-260 381v-616q0 -49 -31 -77.5t-85 -28.5q-44 0 -70 24t-26 57q0 25 18.5 43t45.5 18q23 0 41 -16t18 -35q0 -15 -9.5 -32.5t-9.5 -16.5
q0 -9 9 -9q15 0 15 46v754l-121 102h436l-127 -95l324 -475v49zM852 20l25 -20h-460l-25 20h460zM392 848q16 34 52 34q14 0 62 -17.5t69 -17.5q38 0 72 26.5t52 69.5q1 -3 1 -15q0 -15 -9.5 -40t-47.5 -45t-66 -20q-31 0 -133 34q-25 0 -41 -30h-75l-6 21h70zM626 1018h71
q-7 -61 -41 -101.5t-79 -40.5q-27 0 -84 21t-67 21q-36 0 -45 -40h-71q7 61 41 101.5t79 40.5q27 0 79 -21.5t72 -21.5q38 0 45 41zM212 -131q32 23 32 75v638l-32 45v-758z" />
    <glyph glyph-name="Ograve" unicode="&#xd2;" 
d="M764 404q0 -162 -88 -267q-94 -112 -253 -112q-160 0 -253 111q-88 105 -88 268t88 268q93 111 253 111q159 0 253 -112q88 -105 88 -267zM721 664q51 -62 72.5 -126t21.5 -154q0 -172 -103 -287q-108 -120 -278 -120q-161 0 -230 75q-13 14 -24.5 27.5t-17.5 31.5
q114 -113 270 -113q157 0 260 112q99 109 99 268q0 198 -110 315q16 -3 20 -6.5t20 -22.5zM312 495v112q0 105 133 105q65 0 115 -40q-28 70 -137 70q-108 0 -137 -71q-16 -38 -16 -170v-47q22 28 42 41zM312 165v241l23 17v-262q0 -50 33 -89q23 -6 55 -6q108 0 137 72
q15 37 15 170q-18 -33 -50.5 -51t-64.5 -18q-57 0 -91 25l-5 28q39 -33 100 -33q52 0 83 43q27 38 27 92q0 49 -35 82q14 -38 14 -72q0 -45 -33 -78.5t-78 -33.5q-54 0 -78 31t-24 67q0 35 24 58.5t58 23.5q31 0 47 -16.5t16 -37.5q0 -18 -12 -33t-34 -15q-36 0 -36 41
q0 18 4 26q-13 0 -25 -13t-12 -33q0 -27 21 -48.5t48 -21.5q34 0 58.5 28t24.5 62q0 39 -28.5 65.5t-71.5 26.5q-46 0 -88 -30.5t-64 -80.5v-84q0 -105 3 -126q12 -75 62 -100q-23 37 -23 83zM431 691q-55 0 -75.5 -23t-20.5 -76v-81q37 22 86 22q54 0 98 -18q35 -15 56 -50
v131q-1 11 -4 26q-37 69 -140 69zM341 1025l100 -151h-121l-166 151h187zM354 844h138l-104 157l51 -37l94 -141h-149z" />
    <glyph glyph-name="Oacute" unicode="&#xd3;" 
d="M764 404q0 -162 -88 -267q-94 -112 -253 -112q-160 0 -253 111q-88 105 -88 268t88 268q93 111 253 111q159 0 253 -112q88 -105 88 -267zM721 664q51 -62 72.5 -126t21.5 -154q0 -172 -103 -287q-108 -120 -278 -120q-161 0 -230 75q-13 14 -24.5 27.5t-17.5 31.5
q114 -113 270 -113q157 0 260 112q99 109 99 268q0 198 -110 315q16 -3 20 -6.5t20 -22.5zM462 874h-121l100 151h187zM367 823l-26 21h126l157 143v-28l-149 -136h-108zM312 495v112q0 105 133 105q65 0 115 -40q-28 70 -137 70q-108 0 -137 -71q-16 -38 -16 -170v-47
q22 28 42 41zM312 165v241l23 17v-262q0 -50 33 -89q23 -6 55 -6q108 0 137 72q15 37 15 170q-18 -33 -50.5 -51t-64.5 -18q-57 0 -91 25l-5 28q39 -33 100 -33q52 0 83 43q27 38 27 92q0 49 -35 82q14 -38 14 -72q0 -45 -33 -78.5t-78 -33.5q-54 0 -78 31t-24 67
q0 35 24 58.5t58 23.5q31 0 47 -16.5t16 -37.5q0 -18 -12 -33t-34 -15q-36 0 -36 41q0 18 4 26q-13 0 -25 -13t-12 -33q0 -27 21 -48.5t48 -21.5q34 0 58.5 28t24.5 62q0 39 -28.5 65.5t-71.5 26.5q-46 0 -88 -30.5t-64 -80.5v-84q0 -105 3 -126q12 -75 62 -100
q-23 37 -23 83zM431 691q-55 0 -75.5 -23t-20.5 -76v-81q37 22 86 22q54 0 98 -18q35 -15 56 -50v131q-1 11 -4 26q-37 69 -140 69z" />
    <glyph glyph-name="Ocircumflex" unicode="&#xd4;" 
d="M764 404q0 -162 -88 -267q-94 -112 -253 -112q-160 0 -253 111q-88 105 -88 268t88 268q93 111 253 111q159 0 253 -112q88 -105 88 -267zM721 664q51 -62 72.5 -126t21.5 -154q0 -172 -103 -287q-108 -120 -278 -120q-161 0 -230 75q-13 14 -24.5 27.5t-17.5 31.5
q114 -113 270 -113q157 0 260 112q99 109 99 268q0 198 -110 315q16 -3 20 -6.5t20 -22.5zM510 823l-16 21h162l-120 158l41 -19l121 -160h-188zM409 955l-62 -81h-130l116 153h153l116 -153h-130l-33 42l-72 -93h-127l-15 21h130l70 91zM312 495v112q0 105 133 105
q65 0 115 -40q-28 70 -137 70q-108 0 -137 -71q-16 -38 -16 -170v-47q22 28 42 41zM312 165v241l23 17v-262q0 -50 33 -89q23 -6 55 -6q108 0 137 72q15 37 15 170q-18 -33 -50.5 -51t-64.5 -18q-57 0 -91 25l-5 28q39 -33 100 -33q52 0 83 43q27 38 27 92q0 49 -35 82
q14 -38 14 -72q0 -45 -33 -78.5t-78 -33.5q-54 0 -78 31t-24 67q0 35 24 58.5t58 23.5q31 0 47 -16.5t16 -37.5q0 -18 -12 -33t-34 -15q-36 0 -36 41q0 18 4 26q-13 0 -25 -13t-12 -33q0 -27 21 -48.5t48 -21.5q34 0 58.5 28t24.5 62q0 39 -28.5 65.5t-71.5 26.5
q-46 0 -88 -30.5t-64 -80.5v-84q0 -105 3 -126q12 -75 62 -100q-23 37 -23 83zM431 691q-55 0 -75.5 -23t-20.5 -76v-81q37 22 86 22q54 0 98 -18q35 -15 56 -50v131q-1 11 -4 26q-37 69 -140 69z" />
    <glyph glyph-name="Otilde" unicode="&#xd5;" 
d="M764 404q0 -162 -88 -267q-94 -112 -253 -112q-160 0 -253 111q-88 105 -88 268t88 268q93 111 253 111q159 0 253 -112q88 -105 88 -267zM721 664q51 -62 72.5 -126t21.5 -154q0 -172 -103 -287q-108 -120 -278 -120q-161 0 -230 75q-13 14 -24.5 27.5t-17.5 31.5
q114 -113 270 -113q157 0 260 112q99 109 99 268q0 198 -110 315q16 -3 20 -6.5t20 -22.5zM317 848q16 34 52 34q13 0 61.5 -17.5t70.5 -17.5q36 0 70.5 27t53.5 69v-13q0 -50 -52 -84q-35 -23 -70 -23q-30 0 -134 34q-25 0 -41 -30h-74l-6 21h69zM551 1018h72
q-8 -63 -41.5 -102.5t-78.5 -39.5q-29 0 -82.5 21t-69.5 21q-37 0 -44 -40h-72q8 63 41.5 102.5t78.5 39.5q29 0 81 -21.5t71 -21.5q37 0 44 41zM312 495v112q0 105 133 105q65 0 115 -40q-28 70 -137 70q-108 0 -137 -71q-16 -38 -16 -170v-47q22 28 42 41zM312 165v241
l23 17v-262q0 -50 33 -89q23 -6 55 -6q108 0 137 72q15 37 15 170q-18 -33 -50.5 -51t-64.5 -18q-57 0 -91 25l-5 28q39 -33 100 -33q52 0 83 43q27 38 27 92q0 49 -35 82q14 -38 14 -72q0 -45 -33 -78.5t-78 -33.5q-54 0 -78 31t-24 67q0 35 24 58.5t58 23.5q31 0 47 -16.5
t16 -37.5q0 -18 -12 -33t-34 -15q-36 0 -36 41q0 18 4 26q-13 0 -25 -13t-12 -33q0 -27 21 -48.5t48 -21.5q34 0 58.5 28t24.5 62q0 39 -28.5 65.5t-71.5 26.5q-46 0 -88 -30.5t-64 -80.5v-84q0 -105 3 -126q12 -75 62 -100q-23 37 -23 83zM431 691q-55 0 -75.5 -23
t-20.5 -76v-81q37 22 86 22q54 0 98 -18q35 -15 56 -50v131q-1 11 -4 26q-37 69 -140 69z" />
    <glyph glyph-name="Odieresis" unicode="&#xd6;" 
d="M764 404q0 -162 -88 -267q-94 -112 -253 -112q-160 0 -253 111q-88 105 -88 268t88 268q93 111 253 111q159 0 253 -112q88 -105 88 -267zM721 664q51 -62 72.5 -126t21.5 -154q0 -172 -103 -287q-108 -120 -278 -120q-161 0 -230 75q-13 14 -24.5 27.5t-17.5 31.5
q114 -113 270 -113q157 0 260 112q99 109 99 268q0 198 -110 315q16 -3 20 -6.5t20 -22.5zM376 1003v-129h-154v129h154zM225 823v21h180v89h21v-110h-201zM593 1003v-129h-155v129h155zM441 823v21h181v89h20v-110h-201zM431 691q-55 0 -75.5 -23t-20.5 -76v-81
q37 22 86 22q54 0 98 -18q35 -15 56 -50v131q-1 11 -4 26q-37 69 -140 69zM312 495v112q0 105 133 105q65 0 115 -40q-28 70 -137 70q-108 0 -137 -71q-16 -38 -16 -170v-47q22 28 42 41zM312 165v241l23 17v-262q0 -50 33 -89q23 -6 55 -6q108 0 137 72q15 37 15 170
q-18 -33 -50.5 -51t-64.5 -18q-57 0 -91 25l-5 28q39 -33 100 -33q52 0 83 43q27 38 27 92q0 49 -35 82q14 -38 14 -72q0 -45 -33 -78.5t-78 -33.5q-54 0 -78 31t-24 67q0 35 24 58.5t58 23.5q31 0 47 -16.5t16 -37.5q0 -18 -12 -33t-34 -15q-36 0 -36 41q0 18 4 26
q-13 0 -25 -13t-12 -33q0 -27 21 -48.5t48 -21.5q34 0 58.5 28t24.5 62q0 39 -28.5 65.5t-71.5 26.5q-46 0 -88 -30.5t-64 -80.5v-84q0 -105 3 -126q12 -75 62 -100q-23 37 -23 83z" />
    <glyph glyph-name="Oslash" unicode="&#xd8;" 
d="M791 378q0 94 -18 152.5t-62 114.5l102 116v-33l-75 -84q77 -103 77 -260q0 -172 -103 -287q-108 -120 -278 -120q-137 0 -224 72l-20 -24v32l19 23q88 -82 223 -82q157 0 260 112q99 109 99 268zM123 25h-73l110 124q-78 98 -78 255q0 163 88 268q93 111 253 111
q132 0 225 -84l74 84h74l-111 -124q79 -100 79 -255q0 -162 -88 -267q-94 -112 -253 -112q-116 0 -186 54l-39 30zM335 161q0 -50 33 -89q23 -6 55 -6q108 0 137 72q15 37 15 170v151l-240 -271v-27zM274 194q7 -86 61 -112q-23 37 -23 83v30l263 296v44zM572 613l-1 9
q-37 69 -140 69q-55 0 -75.5 -23t-20.5 -76v-246zM312 320v287q0 105 133 105q65 0 115 -40q-28 70 -137 70q-108 0 -137 -71q-16 -38 -16 -170v-227z" />
    <glyph glyph-name="Ugrave" unicode="&#xd9;" horiz-adv-x="844" 
d="M268 642h-70q-30 0 -61 -27v146h313q-124 -80 -160 -182q-26 -73 -26 -249q0 -123 17 -176q31 -96 126 -96q75 0 118 46t43 117v540h282l-138 -119v-475l34 -27v489l100 86v-28l-77 -67v-498l93 -73h-293v55q-66 -79 -166 -79q-141 0 -226 82t-85 223q0 147 118 263
l-10 1q-32 0 -50 -42q-14 14 -12 19q18 44 63 44q18 0 29 -4q15 12 38 31zM573 20h288l25 -20h-288zM424 687q-72 -60 -92 -158q-11 -52 -11 -189q0 -101 2 -131q5 -71 24 -129q-24 11 -32 40q-14 50 -14 218q0 157 13 211q25 103 118 166q0 -21 -8 -28zM541 40q0 -6 -2 -20
q-84 -42 -152 -42q-143 0 -226 112q23 -4 27 -6q33 -39 87 -62.5t108 -23.5q77 0 158 42zM434 1025l101 -151h-122l-165 151h186zM448 844h137l-104 157l52 -37l93 -141h-148z" />
    <glyph glyph-name="Uacute" unicode="&#xda;" horiz-adv-x="844" 
d="M268 642h-70q-30 0 -61 -27v146h313q-124 -80 -160 -182q-26 -73 -26 -249q0 -123 17 -176q31 -96 126 -96q75 0 118 46t43 117v540h282l-138 -119v-475l34 -27v489l100 86v-28l-77 -67v-498l93 -73h-293v55q-66 -79 -166 -79q-141 0 -226 82t-85 223q0 147 118 263
l-10 1q-32 0 -50 -42q-14 14 -12 19q18 44 63 44q18 0 29 -4q15 12 38 31zM573 20h288l25 -20h-288zM424 687q-72 -60 -92 -158q-11 -52 -11 -189q0 -101 2 -131q5 -71 24 -129q-24 11 -32 40q-14 50 -14 218q0 157 13 211q25 103 118 166q0 -21 -8 -28zM541 40q0 -6 -2 -20
q-84 -42 -152 -42q-143 0 -226 112q23 -4 27 -6q33 -39 87 -62.5t108 -23.5q77 0 158 42zM555 874h-121l101 151h186zM460 823l-26 21h127l156 143v-28l-149 -136h-108z" />
    <glyph glyph-name="Ucircumflex" unicode="&#xdb;" horiz-adv-x="844" 
d="M268 642h-70q-30 0 -61 -27v146h313q-124 -80 -160 -182q-26 -73 -26 -249q0 -123 17 -176q31 -96 126 -96q75 0 118 46t43 117v540h282l-138 -119v-475l34 -27v489l100 86v-28l-77 -67v-498l93 -73h-293v55q-66 -79 -166 -79q-141 0 -226 82t-85 223q0 147 118 263
l-10 1q-32 0 -50 -42q-14 14 -12 19q18 44 63 44q18 0 29 -4q15 12 38 31zM573 20h288l25 -20h-288zM424 687q-72 -60 -92 -158q-11 -52 -11 -189q0 -101 2 -131q5 -71 24 -129q-24 11 -32 40q-14 50 -14 218q0 157 13 211q25 103 118 166q0 -21 -8 -28zM541 40q0 -6 -2 -20
q-84 -42 -152 -42q-143 0 -226 112q23 -4 27 -6q33 -39 87 -62.5t108 -23.5q77 0 158 42zM572 823l-16 21h162l-120 158l41 -19l122 -160h-189zM472 955l-63 -81h-130l116 153h153l116 -153h-130l-32 42l-73 -93h-126l-16 21h131l69 91z" />
    <glyph glyph-name="Udieresis" unicode="&#xdc;" horiz-adv-x="844" 
d="M268 642h-70q-30 0 -61 -27v146h313q-124 -80 -160 -182q-26 -73 -26 -249q0 -123 17 -176q31 -96 126 -96q75 0 118 46t43 117v540h282l-138 -119v-475l34 -27v489l100 86v-28l-77 -67v-498l93 -73h-293v55q-66 -79 -166 -79q-141 0 -226 82t-85 223q0 147 118 263
l-10 1q-32 0 -50 -42q-14 14 -12 19q18 44 63 44q18 0 29 -4q15 12 38 31zM573 20h288l25 -20h-288zM424 687q-72 -60 -92 -158q-11 -52 -11 -189q0 -101 2 -131q5 -71 24 -129q-24 11 -32 40q-14 50 -14 218q0 157 13 211q25 103 118 166q0 -21 -8 -28zM541 40q0 -6 -2 -20
q-84 -42 -152 -42q-143 0 -226 112q23 -4 27 -6q33 -39 87 -62.5t108 -23.5q77 0 158 42zM433 1003v-129h-154v129h154zM282 823v21h180v89h21v-110h-201zM650 1003v-129h-155v129h155zM498 823v21h181v89h20v-110h-201z" />
    <glyph glyph-name="Yacute" unicode="&#xdd;" horiz-adv-x="846" 
d="M750 633l102 82v-27l-84 -67l-160 -290l19 -1q-82 -33 -82 -96v-67l149 -118h-443l150 118v22q-27 -9 -71 -9q-81 0 -81 37q35 -15 79 -15q41 0 73 16v30q-37 -25 -92 -25q-48 0 -81 31t-33 78q0 42 27 68q25 23 60 23q29 0 49.5 -19.5t20.5 -51.5q0 -21 -12.5 -35.5
t-30.5 -14.5q-40 0 -40 41q0 26 41 40q-7 12 -25 12q-23 0 -39.5 -17.5t-16.5 -44.5q0 -36 30 -57q26 -19 63 -19q53 0 79 38v56l-190 299l-164 111h479l-146 -108l169 -268l16 27l-149 236l92 67v-25l-64 -48l132 -209l121 221l-136 107h309l-142 -114l-160 -292
q8 -9 20 -16zM719 0h-437l-25 20h437zM655 313q0 -22 -15 -28q-34 -10 -34 -61v-83q-21 3 -21 26v67q0 33 14.5 50t55.5 29zM562 874h-122l101 151h186zM466 823l-26 21h127l156 143v-28l-149 -136h-108z" />
    <glyph glyph-name="germandbls" unicode="&#xdf;" horiz-adv-x="1388" 
d="M1398 695l-91 -125l-14 20l90 125zM1325 558q49 0 49 -59q0 -42 -42 -66q97 -91 97 -192q0 -121 -81 -189q-75 -64 -198 -64q-39 0 -114 21.5t-110 21.5q-36 0 -46 -25q-7 -12 -6 -56l1 -65q0 -32 -4 -44q-7 -23 -33 -23q-12 0 -20 2q-7 -9 -18 -9q-45 0 -45 36
q0 34 35 34l1 474q12 0 40 -68q34 -83 39 -90q38 -56 93 -91q-39 40 -68 96q-32 61 -36 112q15 -7 21 -20q1 -1 10 -30q37 -121 154 -195q33 -10 74 -10q58 0 109 20q68 27 64 77l-2 26q-34 45 -134 78l-201 67q-59 20 -85 35q-42 25 -61 64q-3 5 -2 14q46 -58 140 -91
q11 -4 186 -58q99 -31 141 -67q-23 39 -114 83q-50 24 -177 73q-114 44 -148 63q-71 40 -71 140q0 103 92 156q75 44 185 44q67 0 238 -35q29 0 107 26l-146 -204q-8 -11 -8 -28q0 -32 18 -32l7 7l-1 18q-1 25 32 25q12 0 22 -5q12 3 16 3zM1052 761q-68 0 -123 -24
q-72 -31 -72 -90q0 -40 45 -72q-13 25 -13 58q0 52 56 78q41 19 101 19q80 0 147 -36q-25 67 -141 67zM838 -165q18 0 17 45l-1 89q-1 84 64 84q36 0 116.5 -23t122.5 -23q104 0 174 58q75 62 75 164q0 123 -118 211q63 14 63 62q0 31 -20 31l-8 -3l1 -15q1 -17 -18 -31.5
t-39 -14.5q-32 0 -50.5 21.5t-18.5 56.5q0 7 3 34t3 35l-1 26q-36 69 -154 69q-137 0 -137 -80q0 -53 55 -87l187 -62q226 -75 226 -235q0 -103 -72 -164q-68 -58 -172 -58q-45 0 -129.5 27t-116.5 27q-67 0 -62 -141l3 -85l-3 -17zM704 695l-91 -125l-14 20l90 125z
M631 558q49 0 49 -59q0 -42 -42 -66q97 -91 97 -192q0 -121 -81 -189q-75 -64 -198 -64q-39 0 -114 21.5t-110 21.5q-36 0 -46 -25q-7 -12 -6 -56l1 -65q0 -32 -4 -44q-7 -23 -33 -23q-12 0 -20 2q-7 -9 -18 -9q-45 0 -45 36q0 34 35 34l1 474q12 0 40 -68q34 -83 39 -90
q38 -56 93 -91q-39 40 -68 96q-32 61 -36 112q15 -7 21 -20q1 -1 10 -30q37 -121 154 -195q33 -10 74 -10q58 0 109 20q68 27 64 77l-2 26q-34 45 -134 78l-201 67q-59 20 -85 35q-42 25 -61 64q-3 5 -2 14q46 -58 140 -91q11 -4 186 -58q99 -31 141 -67q-23 39 -114 83
q-50 24 -177 73q-114 44 -148 63q-71 40 -71 140q0 103 92 156q75 44 185 44q67 0 238 -35q29 0 107 26l-146 -204q-8 -11 -8 -28q0 -32 18 -32l7 7l-1 18q-1 25 32 25q12 0 22 -5q12 3 16 3zM358 761q-68 0 -123 -24q-72 -31 -72 -90q0 -40 45 -72q-13 25 -13 58
q0 52 56 78q41 19 101 19q80 0 147 -36q-25 67 -141 67zM144 -165q18 0 17 45l-1 89q-1 84 64 84q36 0 116.5 -23t122.5 -23q104 0 174 58q75 62 75 164q0 123 -118 211q63 14 63 62q0 31 -20 31l-8 -3l1 -15q1 -17 -18 -31.5t-39 -14.5q-32 0 -50.5 21.5t-18.5 56.5
q0 7 3 34t3 35l-1 26q-36 69 -154 69q-137 0 -137 -80q0 -53 55 -87l187 -62q226 -75 226 -235q0 -103 -72 -164q-68 -58 -172 -58q-45 0 -129.5 27t-116.5 27q-67 0 -62 -141l3 -85l-3 -17z" />
    <glyph glyph-name="agrave" unicode="&#xe0;" horiz-adv-x="812" 
d="M191 699l53 -2v-21l-53 2q-55 2 -67 -17q31 -11 31 -43q0 -21 -17 -35t-44 -14q-12 0 -25 7q12 -42 53 -42q24 0 43 17t19 41q0 30 -20 59q43 -10 43 -55q0 -38 -25.5 -61.5t-60.5 -23.5q-34 0 -61.5 32.5t-27.5 66.5q-8 18 -8 31q0 66 49 95q45 25 142 25h617l-138 -119
v-475l34 -27v489l100 86v-30l-77 -66v-497l94 -73h-445l150 118v109h-175q-90 -211 -212 -375q-40 -54 -44 -54q-15 0 -9 9q154 214 252 441h188v28h-211q-113 -284 -233 -429q-39 -48 -43.5 -50.5t-8.5 -2.5q-9 0 -12.5 7.5t-1.5 14.5q89 248 105 297q57 170 87 303
q31 138 31 263h-69q-136 0 -136 -83q0 -36 21 -38l-3 22q0 24 21 31q4 23 24 32t70 7zM408 20h436l24 -20h-435zM496 672q-18 -114 -64 -249h118v249h-54zM478 693h72v35h-101q-21 -142 -74 -305h34q45 134 69 270zM354 366l-2 -8h198v8h-196zM424 1025l100 -151h-121
l-166 151h187zM437 844h138l-105 157l52 -37l94 -141h-149z" />
    <glyph glyph-name="aacute" unicode="&#xe1;" horiz-adv-x="812" 
d="M191 699l53 -2v-21l-53 2q-55 2 -67 -17q31 -11 31 -43q0 -21 -17 -35t-44 -14q-12 0 -25 7q12 -42 53 -42q24 0 43 17t19 41q0 30 -20 59q43 -10 43 -55q0 -38 -25.5 -61.5t-60.5 -23.5q-34 0 -61.5 32.5t-27.5 66.5q-8 18 -8 31q0 66 49 95q45 25 142 25h617l-138 -119
v-475l34 -27v489l100 86v-30l-77 -66v-497l94 -73h-445l150 118v109h-175q-90 -211 -212 -375q-40 -54 -44 -54q-15 0 -9 9q154 214 252 441h188v28h-211q-113 -284 -233 -429q-39 -48 -43.5 -50.5t-8.5 -2.5q-9 0 -12.5 7.5t-1.5 14.5q89 248 105 297q57 170 87 303
q31 138 31 263h-69q-136 0 -136 -83q0 -36 21 -38l-3 22q0 24 21 31q4 23 24 32t70 7zM408 20h436l24 -20h-435zM539 874h-121l100 151h187zM444 823l-26 21h126l157 143v-28l-150 -136h-107zM496 672q-18 -114 -64 -249h118v249h-54zM478 693h72v35h-101q-21 -142 -74 -305
h34q45 134 69 270zM354 366l-2 -8h198v8h-196z" />
    <glyph glyph-name="acircumflex" unicode="&#xe2;" horiz-adv-x="812" 
d="M191 699l53 -2v-21l-53 2q-55 2 -67 -17q31 -11 31 -43q0 -21 -17 -35t-44 -14q-12 0 -25 7q12 -42 53 -42q24 0 43 17t19 41q0 30 -20 59q43 -10 43 -55q0 -38 -25.5 -61.5t-60.5 -23.5q-34 0 -61.5 32.5t-27.5 66.5q-8 18 -8 31q0 66 49 95q45 25 142 25h617l-138 -119
v-475l34 -27v489l100 86v-30l-77 -66v-497l94 -73h-445l150 118v109h-175q-90 -211 -212 -375q-40 -54 -44 -54q-15 0 -9 9q154 214 252 441h188v28h-211q-113 -284 -233 -429q-39 -48 -43.5 -50.5t-8.5 -2.5q-9 0 -12.5 7.5t-1.5 14.5q89 248 105 297q57 170 87 303
q31 138 31 263h-69q-136 0 -136 -83q0 -36 21 -38l-3 22q0 24 21 31q4 23 24 32t70 7zM408 20h436l24 -20h-435zM580 823l-15 21h161l-120 158l42 -19l121 -160h-189zM480 955l-62 -81h-131l116 153h153l117 -153h-131l-32 42l-73 -93h-126l-16 21h131l69 91zM496 672
q-18 -114 -64 -249h118v249h-54zM478 693h72v35h-101q-21 -142 -74 -305h34q45 134 69 270zM354 366l-2 -8h198v8h-196z" />
    <glyph glyph-name="atilde" unicode="&#xe3;" horiz-adv-x="812" 
d="M191 699l53 -2v-21l-53 2q-55 2 -67 -17q31 -11 31 -43q0 -21 -17 -35t-44 -14q-12 0 -25 7q12 -42 53 -42q24 0 43 17t19 41q0 30 -20 59q43 -10 43 -55q0 -38 -25.5 -61.5t-60.5 -23.5q-34 0 -61.5 32.5t-27.5 66.5q-8 18 -8 31q0 66 49 95q45 25 142 25h617l-138 -119
v-475l34 -27v489l100 86v-30l-77 -66v-497l94 -73h-445l150 118v109h-175q-90 -211 -212 -375q-40 -54 -44 -54q-15 0 -9 9q154 214 252 441h188v28h-211q-113 -284 -233 -429q-39 -48 -43.5 -50.5t-8.5 -2.5q-9 0 -12.5 7.5t-1.5 14.5q89 248 105 297q57 170 87 303
q31 138 31 263h-69q-136 0 -136 -83q0 -36 21 -38l-3 22q0 24 21 31q4 23 24 32t70 7zM408 20h436l24 -20h-435zM385 848q19 34 52 34q14 0 63 -17.5t69 -17.5q38 0 71.5 26.5t52.5 69.5v-13q0 -50 -51 -84q-35 -23 -71 -23q-30 0 -134 34q-25 0 -40 -30h-75l-6 21h69z
M620 1018h71q-7 -61 -41 -101.5t-79 -40.5q-27 0 -84 21t-67 21q-38 0 -45 -40h-71q7 61 41 101.5t79 40.5q27 0 79 -21.5t72 -21.5q36 0 45 41zM496 672q-18 -114 -64 -249h118v249h-54zM478 693h72v35h-101q-21 -142 -74 -305h34q45 134 69 270zM354 366l-2 -8h198v8h-196
z" />
    <glyph glyph-name="adieresis" unicode="&#xe4;" horiz-adv-x="812" 
d="M191 699l53 -2v-21l-53 2q-55 2 -67 -17q31 -11 31 -43q0 -21 -17 -35t-44 -14q-12 0 -25 7q12 -42 53 -42q24 0 43 17t19 41q0 30 -20 59q43 -10 43 -55q0 -38 -25.5 -61.5t-60.5 -23.5q-34 0 -61.5 32.5t-27.5 66.5q-8 18 -8 31q0 66 49 95q45 25 142 25h617l-138 -119
v-475l34 -27v489l100 86v-30l-77 -66v-497l94 -73h-445l150 118v109h-175q-90 -211 -212 -375q-40 -54 -44 -54q-15 0 -9 9q154 214 252 441h188v28h-211q-113 -284 -233 -429q-39 -48 -43.5 -50.5t-8.5 -2.5q-9 0 -12.5 7.5t-1.5 14.5q89 248 105 297q57 170 87 303
q31 138 31 263h-69q-136 0 -136 -83q0 -36 21 -38l-3 22q0 24 21 31q4 23 24 32t70 7zM408 20h436l24 -20h-435zM452 1003v-129h-155v129h155zM301 823v21h180v89h21v-110h-201zM668 1003v-129h-154v129h154zM517 823v21h180v89h21v-110h-201zM354 366l-2 -8h198v8h-196z
M496 672q-18 -114 -64 -249h118v249h-54zM478 693h72v35h-101q-21 -142 -74 -305h34q45 134 69 270z" />
    <glyph glyph-name="aring" unicode="&#xe5;" horiz-adv-x="812" 
d="M191 699l53 -2v-21l-53 2q-55 2 -67 -17q31 -11 31 -43q0 -21 -17 -35t-44 -14q-12 0 -25 7q12 -42 53 -42q24 0 43 17t19 41q0 30 -20 59q43 -10 43 -55q0 -38 -25.5 -61.5t-60.5 -23.5q-34 0 -61.5 32.5t-27.5 66.5q-8 18 -8 31q0 66 49 95q45 25 142 25h617l-138 -119
v-475l34 -27v489l100 86v-30l-77 -66v-497l94 -73h-445l150 118v109h-175q-90 -211 -212 -375q-40 -54 -44 -54q-15 0 -9 9q154 214 252 441h188v28h-211q-113 -284 -233 -429q-39 -48 -43.5 -50.5t-8.5 -2.5q-9 0 -12.5 7.5t-1.5 14.5q89 248 105 297q57 170 87 303
q31 138 31 263h-69q-136 0 -136 -83q0 -36 21 -38l-3 22q0 24 21 31q4 23 24 32t70 7zM408 20h436l24 -20h-435zM608 982q0 -48 -34 -82t-82 -34t-82 34t-34 82t34 82t82 34q49 0 82.5 -33.5t33.5 -82.5zM491 845q51 0 93.5 33.5t42.5 82.5q0 55 -28 103q23 -4 30 -15
q20 -37 20 -87q0 -62 -47.5 -100.5t-110.5 -38.5q-76 0 -103 46q-10 17 -10 49q32 -73 113 -73zM496 672q-18 -114 -64 -249h118v249h-54zM478 693h72v35h-101q-21 -142 -74 -305h34q45 134 69 270zM492 1034q-22 0 -37 -15t-15 -37q0 -28 24 -43q-6 18 -6 46q0 17 13 28.5
t28 11.5q17 0 27 -3q-15 12 -34 12zM544 982l-2 14q-10 9 -40 9q-21 0 -21 -20q0 -32 14 -54q21 0 35 15t14 36zM354 366l-2 -8h198v8h-196z" />
    <glyph glyph-name="ae" unicode="&#xe6;" horiz-adv-x="1232" 
d="M1031 551q-16 -27 -16 -47t14 -25l-1 16q-2 30 33 30q12 0 18 -6q47 0 47 -54q0 -26 -17.5 -43.5t-49.5 -17.5q-31 0 -52.5 25t-24.5 57q-5 22 -5 45v156h-188v-245l100 128v-286l-62 80h-38v-282h204v246q0 25 17.5 44.5t38.5 19.5q32 0 45 -18q51 0 51 -58
q0 -37 -25 -50l153 -266h-803l-24 20h789l-146 255q32 11 32 46q0 25 -15 28v-6q0 -42 -31 -42l-20 3q-6 0 -6 -6q0 -9 10 -26l128 -223h-750l151 119v108h-176q-94 -215 -211 -375q-40 -54 -44 -54q-17 0 -10 9q156 214 252 441h189v28h-212q-113 -283 -235 -432
q-41 -50 -49 -50q-9 0 -12.5 7.5t-1.5 14.5l126 361q97 287 97 502h-70q-136 0 -136 -83q0 -36 21 -38l-3 22q0 24 22 31q6 42 93 39l53 -2v-21l-53 2q-55 2 -66 -17q31 -11 31 -43q0 -21 -17 -35t-44 -14q-12 0 -25 7q12 -42 53 -42q24 0 43 17t19 41q0 31 -21 59
q44 -11 44 -55q0 -37 -26 -61t-60 -24q-35 0 -62.5 31.5t-27.5 67.5q-8 18 -8 31q0 66 49 95q45 25 142 25h903zM940 227l-23 29v255l23 -29v-255zM1093 545l-14 20l89 150l14 -20zM1059 424q17 0 32 12t15 30q0 32 -17 32l1 -12q1 -12 -15.5 -26t-34.5 -14l-19 2
q17 -24 38 -24zM515 693h73v35h-102q-24 -156 -74 -305h35q43 129 68 270zM791 411h-59v-329h34v301h46zM977 733h-245v-291h34v265h211v26zM534 672q-20 -117 -65 -249h119v249h-54zM392 366l-2 -8h198v8h-196z" />
    <glyph glyph-name="ccedilla" unicode="&#xe7;" horiz-adv-x="719" 
d="M646 526l89 188l14 -20l-89 -187zM450 672q-153 0 -153 -114v-361q0 -62 40 -96.5t102 -34.5q90 0 152 66q56 59 72 153h38q-55 -260 -299 -260q-159 0 -253 112q-88 105 -88 267q0 166 88.5 261.5t252.5 95.5h318l-120 -254q-17 -36 -17 -55q0 -26 30 -26q9 0 9 6
q-4 16 -4 22q0 26 34 26q10 0 14 -4q52 -7 52 -60q0 -30 -27 -51t-66 -21q-65 0 -91 46q-2 3 -2 7q0 6 5 12q37 -46 83 -46q37 0 57 16t20 41t-18 29v-5q0 -19 -19 -33.5t-47 -14.5q-99 0 -99 117v159h-64zM726 232q14 -9 14 -16q0 -48 -42 -103q-34 -44 -81 -77
q-84 -59 -201 -59q-79 0 -149 22q-90 28 -122 83q-20 34 -20 42q0 -1 2 13q52 -78 121 -110q63 -29 162 -29q243 0 316 234zM477 -64q14 -4 15 -4q5 -3 10 -10q18 -28 18 -76q0 -114 -80 -153q-31 -15 -35 -15q-7 0 -16 3q114 54 114 165q0 46 -26 90zM437 -178q0 10 -8 10
l-22 -3q-24 0 -40.5 17.5t-16.5 46.5q0 27 16.5 45.5t43.5 18.5q33 0 54 -26.5t21 -65.5q0 -58 -31 -105t-79 -60q-1 3 -1 10q0 8 7 11q48 29 55 71l-15 -1q-28 -2 -43 12q-11 11 -7 20q28 -18 53 -16l13 1v14zM275 198v356q0 140 181 140h58v36h-112q-102 0 -133 -75
q-19 -45 -19 -167v-260q0 -44 29 -82q-4 23 -4 52z" />
    <glyph glyph-name="egrave" unicode="&#xe8;" horiz-adv-x="856" 
d="M769 316q0 -37 -25 -50l152 -266h-802l-25 20h790l-146 255q32 11 32 46q0 25 -15 28v-6q0 -42 -32 -42l-19 3q-7 0 -7 -6q0 -7 11 -26l127 -223h-749l150 119v474l-150 119h718l-124 -210q-16 -27 -16 -47t14 -25l-1 16q-2 30 33 30q11 0 18 -6q47 0 47 -54
q0 -26 -17.5 -43.5t-49.5 -17.5q-31 0 -52.5 25t-24.5 57q-5 22 -5 45v156h-189v-245l101 128v-286l-62 80h-39v-282h205v246q0 25 17.5 44.5t38.5 19.5q32 0 45 -18q51 0 51 -58zM717 545l-14 20l89 150l14 -20zM564 227l-23 29v255l23 -29v-255zM683 424q17 0 32 12t15 30
q0 32 -17 32l1 -12q1 -12 -15.5 -26t-34.5 -14l-19 2q17 -24 38 -24zM601 733h-246v-291h35v265h211v26zM415 411h-60v-329h35v301h46zM393 1025l100 -151h-121l-166 151h187zM406 844h138l-105 157l52 -37l93 -141h-148z" />
    <glyph glyph-name="eacute" unicode="&#xe9;" horiz-adv-x="856" 
d="M769 316q0 -37 -25 -50l152 -266h-802l-25 20h790l-146 255q32 11 32 46q0 25 -15 28v-6q0 -42 -32 -42l-19 3q-7 0 -7 -6q0 -7 11 -26l127 -223h-749l150 119v474l-150 119h718l-124 -210q-16 -27 -16 -47t14 -25l-1 16q-2 30 33 30q11 0 18 -6q47 0 47 -54
q0 -26 -17.5 -43.5t-49.5 -17.5q-31 0 -52.5 25t-24.5 57q-5 22 -5 45v156h-189v-245l101 128v-286l-62 80h-39v-282h205v246q0 25 17.5 44.5t38.5 19.5q32 0 45 -18q51 0 51 -58zM717 545l-14 20l89 150l14 -20zM564 227l-23 29v255l23 -29v-255zM524 874h-121l101 151h186
zM429 823l-26 21h127l156 143v-28l-149 -136h-108zM683 424q17 0 32 12t15 30q0 32 -17 32l1 -12q1 -12 -15.5 -26t-34.5 -14l-19 2q17 -24 38 -24zM601 733h-246v-291h35v265h211v26zM415 411h-60v-329h35v301h46z" />
    <glyph glyph-name="ecircumflex" unicode="&#xea;" horiz-adv-x="856" 
d="M769 316q0 -37 -25 -50l152 -266h-802l-25 20h790l-146 255q32 11 32 46q0 25 -15 28v-6q0 -42 -32 -42l-19 3q-7 0 -7 -6q0 -7 11 -26l127 -223h-749l150 119v474l-150 119h718l-124 -210q-16 -27 -16 -47t14 -25l-1 16q-2 30 33 30q11 0 18 -6q47 0 47 -54
q0 -26 -17.5 -43.5t-49.5 -17.5q-31 0 -52.5 25t-24.5 57q-5 22 -5 45v156h-189v-245l101 128v-286l-62 80h-39v-282h205v246q0 25 17.5 44.5t38.5 19.5q32 0 45 -18q51 0 51 -58zM717 545l-14 20l89 150l14 -20zM564 227l-23 29v255l23 -29v-255zM520 823l-15 21h161
l-120 158l42 -19l121 -160h-189zM420 955l-62 -81h-131l116 153h153l116 -153h-130l-32 42l-73 -93h-126l-16 21h131l69 91zM683 424q17 0 32 12t15 30q0 32 -17 32l1 -12q1 -12 -15.5 -26t-34.5 -14l-19 2q17 -24 38 -24zM601 733h-246v-291h35v265h211v26zM415 411h-60
v-329h35v301h46z" />
    <glyph glyph-name="edieresis" unicode="&#xeb;" horiz-adv-x="856" 
d="M769 316q0 -37 -25 -50l152 -266h-802l-25 20h790l-146 255q32 11 32 46q0 25 -15 28v-6q0 -42 -32 -42l-19 3q-7 0 -7 -6q0 -7 11 -26l127 -223h-749l150 119v474l-150 119h718l-124 -210q-16 -27 -16 -47t14 -25l-1 16q-2 30 33 30q11 0 18 -6q47 0 47 -54
q0 -26 -17.5 -43.5t-49.5 -17.5q-31 0 -52.5 25t-24.5 57q-5 22 -5 45v156h-189v-245l101 128v-286l-62 80h-39v-282h205v246q0 25 17.5 44.5t38.5 19.5q32 0 45 -18q51 0 51 -58zM717 545l-14 20l89 150l14 -20zM564 227l-23 29v255l23 -29v-255zM412 1003v-129h-154v129
h154zM261 823v21h180v89h21v-110h-201zM629 1003v-129h-154v129h154zM478 823v21h180v89h21v-110h-201zM415 411h-60v-329h35v301h46zM683 424q17 0 32 12t15 30q0 32 -17 32l1 -12q1 -12 -15.5 -26t-34.5 -14l-19 2q17 -24 38 -24zM601 733h-246v-291h35v265h211v26z" />
    <glyph glyph-name="igrave" unicode="&#xec;" horiz-adv-x="489" 
d="M506 49h-445l150 118v475l-150 119h432l-138 -119v-475l35 -27v489l99 86v-30l-77 -66v-497zM69 20h436l25 -20h-436zM231 1025l101 -151h-122l-165 151h186zM245 844h137l-104 157l52 -37l93 -141h-148z" />
    <glyph glyph-name="iacute" unicode="&#xed;" horiz-adv-x="489" 
d="M506 49h-445l150 118v475l-150 119h432l-138 -119v-475l35 -27v489l99 86v-30l-77 -66v-497zM69 20h436l25 -20h-436zM327 874h-121l101 151h186zM232 823l-26 21h127l156 143v-28l-149 -136h-108z" />
    <glyph glyph-name="icircumflex" unicode="&#xee;" horiz-adv-x="489" 
d="M506 49h-445l150 118v475l-150 119h432l-138 -119v-475l35 -27v489l99 86v-30l-77 -66v-497zM69 20h436l25 -20h-436zM354 823l-15 21h162l-121 158l42 -19l121 -160h-189zM254 955l-62 -81h-131l116 153h154l116 -153h-131l-32 42l-73 -93h-126l-16 21h131l69 91z" />
    <glyph glyph-name="idieresis" unicode="&#xef;" horiz-adv-x="489" 
d="M506 49h-445l150 118v475l-150 119h432l-138 -119v-475l35 -27v489l99 86v-30l-77 -66v-497zM69 20h436l25 -20h-436zM247 1003v-129h-155v129h155zM95 823v21h181v89h20v-110h-201zM463 1003v-129h-154v129h154zM312 823v21h180v89h21v-110h-201z" />
    <glyph glyph-name="ntilde" unicode="&#xf1;" horiz-adv-x="858" 
d="M411 656l80 59v-26l-52 -38l255 -374v365l-127 119h294l-137 -119v-487l35 -29v503l99 86v-30l-77 -66v-511l76 -59h-481l150 118l-260 381v-616q0 -49 -31 -77.5t-85 -28.5q-44 0 -70 24t-26 57q0 25 18.5 43t45.5 18q23 0 41 -16t18 -35q0 -15 -9.5 -32.5t-9.5 -16.5
q0 -9 9 -9q15 0 15 46v754l-121 102h436l-127 -95l324 -475v49zM852 20l25 -20h-460l-25 20h460zM392 848q16 34 52 34q14 0 62 -17.5t69 -17.5q38 0 72 26.5t52 69.5q1 -3 1 -15q0 -15 -9.5 -40t-47.5 -45t-66 -20q-31 0 -133 34q-25 0 -41 -30h-75l-6 21h70zM626 1018h71
q-7 -61 -41 -101.5t-79 -40.5q-27 0 -84 21t-67 21q-36 0 -45 -40h-71q7 61 41 101.5t79 40.5q27 0 79 -21.5t72 -21.5q38 0 45 41zM212 -131q32 23 32 75v638l-32 45v-758z" />
    <glyph glyph-name="ograve" unicode="&#xf2;" 
d="M764 404q0 -162 -88 -267q-94 -112 -253 -112q-160 0 -253 111q-88 105 -88 268t88 268q93 111 253 111q159 0 253 -112q88 -105 88 -267zM721 664q51 -62 72.5 -126t21.5 -154q0 -172 -103 -287q-108 -120 -278 -120q-161 0 -230 75q-13 14 -24.5 27.5t-17.5 31.5
q114 -113 270 -113q157 0 260 112q99 109 99 268q0 198 -110 315q16 -3 20 -6.5t20 -22.5zM312 495v112q0 105 133 105q65 0 115 -40q-28 70 -137 70q-108 0 -137 -71q-16 -38 -16 -170v-47q22 28 42 41zM312 165v241l23 17v-262q0 -50 33 -89q23 -6 55 -6q108 0 137 72
q15 37 15 170q-18 -33 -50.5 -51t-64.5 -18q-57 0 -91 25l-5 28q39 -33 100 -33q52 0 83 43q27 38 27 92q0 49 -35 82q14 -38 14 -72q0 -45 -33 -78.5t-78 -33.5q-54 0 -78 31t-24 67q0 35 24 58.5t58 23.5q31 0 47 -16.5t16 -37.5q0 -18 -12 -33t-34 -15q-36 0 -36 41
q0 18 4 26q-13 0 -25 -13t-12 -33q0 -27 21 -48.5t48 -21.5q34 0 58.5 28t24.5 62q0 39 -28.5 65.5t-71.5 26.5q-46 0 -88 -30.5t-64 -80.5v-84q0 -105 3 -126q12 -75 62 -100q-23 37 -23 83zM431 691q-55 0 -75.5 -23t-20.5 -76v-81q37 22 86 22q54 0 98 -18q35 -15 56 -50
v131q-1 11 -4 26q-37 69 -140 69zM341 1025l100 -151h-121l-166 151h187zM354 844h138l-104 157l51 -37l94 -141h-149z" />
    <glyph glyph-name="oacute" unicode="&#xf3;" 
d="M764 404q0 -162 -88 -267q-94 -112 -253 -112q-160 0 -253 111q-88 105 -88 268t88 268q93 111 253 111q159 0 253 -112q88 -105 88 -267zM721 664q51 -62 72.5 -126t21.5 -154q0 -172 -103 -287q-108 -120 -278 -120q-161 0 -230 75q-13 14 -24.5 27.5t-17.5 31.5
q114 -113 270 -113q157 0 260 112q99 109 99 268q0 198 -110 315q16 -3 20 -6.5t20 -22.5zM462 874h-121l100 151h187zM367 823l-26 21h126l157 143v-28l-149 -136h-108zM312 495v112q0 105 133 105q65 0 115 -40q-28 70 -137 70q-108 0 -137 -71q-16 -38 -16 -170v-47
q22 28 42 41zM312 165v241l23 17v-262q0 -50 33 -89q23 -6 55 -6q108 0 137 72q15 37 15 170q-18 -33 -50.5 -51t-64.5 -18q-57 0 -91 25l-5 28q39 -33 100 -33q52 0 83 43q27 38 27 92q0 49 -35 82q14 -38 14 -72q0 -45 -33 -78.5t-78 -33.5q-54 0 -78 31t-24 67
q0 35 24 58.5t58 23.5q31 0 47 -16.5t16 -37.5q0 -18 -12 -33t-34 -15q-36 0 -36 41q0 18 4 26q-13 0 -25 -13t-12 -33q0 -27 21 -48.5t48 -21.5q34 0 58.5 28t24.5 62q0 39 -28.5 65.5t-71.5 26.5q-46 0 -88 -30.5t-64 -80.5v-84q0 -105 3 -126q12 -75 62 -100
q-23 37 -23 83zM431 691q-55 0 -75.5 -23t-20.5 -76v-81q37 22 86 22q54 0 98 -18q35 -15 56 -50v131q-1 11 -4 26q-37 69 -140 69z" />
    <glyph glyph-name="ocircumflex" unicode="&#xf4;" 
d="M764 404q0 -162 -88 -267q-94 -112 -253 -112q-160 0 -253 111q-88 105 -88 268t88 268q93 111 253 111q159 0 253 -112q88 -105 88 -267zM721 664q51 -62 72.5 -126t21.5 -154q0 -172 -103 -287q-108 -120 -278 -120q-161 0 -230 75q-13 14 -24.5 27.5t-17.5 31.5
q114 -113 270 -113q157 0 260 112q99 109 99 268q0 198 -110 315q16 -3 20 -6.5t20 -22.5zM510 823l-16 21h162l-120 158l41 -19l121 -160h-188zM409 955l-62 -81h-130l116 153h153l116 -153h-130l-33 42l-72 -93h-127l-15 21h130l70 91zM312 495v112q0 105 133 105
q65 0 115 -40q-28 70 -137 70q-108 0 -137 -71q-16 -38 -16 -170v-47q22 28 42 41zM312 165v241l23 17v-262q0 -50 33 -89q23 -6 55 -6q108 0 137 72q15 37 15 170q-18 -33 -50.5 -51t-64.5 -18q-57 0 -91 25l-5 28q39 -33 100 -33q52 0 83 43q27 38 27 92q0 49 -35 82
q14 -38 14 -72q0 -45 -33 -78.5t-78 -33.5q-54 0 -78 31t-24 67q0 35 24 58.5t58 23.5q31 0 47 -16.5t16 -37.5q0 -18 -12 -33t-34 -15q-36 0 -36 41q0 18 4 26q-13 0 -25 -13t-12 -33q0 -27 21 -48.5t48 -21.5q34 0 58.5 28t24.5 62q0 39 -28.5 65.5t-71.5 26.5
q-46 0 -88 -30.5t-64 -80.5v-84q0 -105 3 -126q12 -75 62 -100q-23 37 -23 83zM431 691q-55 0 -75.5 -23t-20.5 -76v-81q37 22 86 22q54 0 98 -18q35 -15 56 -50v131q-1 11 -4 26q-37 69 -140 69z" />
    <glyph glyph-name="otilde" unicode="&#xf5;" 
d="M764 404q0 -162 -88 -267q-94 -112 -253 -112q-160 0 -253 111q-88 105 -88 268t88 268q93 111 253 111q159 0 253 -112q88 -105 88 -267zM721 664q51 -62 72.5 -126t21.5 -154q0 -172 -103 -287q-108 -120 -278 -120q-161 0 -230 75q-13 14 -24.5 27.5t-17.5 31.5
q114 -113 270 -113q157 0 260 112q99 109 99 268q0 198 -110 315q16 -3 20 -6.5t20 -22.5zM317 848q16 34 52 34q13 0 61.5 -17.5t70.5 -17.5q36 0 70.5 27t53.5 69v-13q0 -50 -52 -84q-35 -23 -70 -23q-30 0 -134 34q-25 0 -41 -30h-74l-6 21h69zM551 1018h72
q-8 -63 -41.5 -102.5t-78.5 -39.5q-29 0 -82.5 21t-69.5 21q-37 0 -44 -40h-72q8 63 41.5 102.5t78.5 39.5q29 0 81 -21.5t71 -21.5q37 0 44 41zM312 495v112q0 105 133 105q65 0 115 -40q-28 70 -137 70q-108 0 -137 -71q-16 -38 -16 -170v-47q22 28 42 41zM312 165v241
l23 17v-262q0 -50 33 -89q23 -6 55 -6q108 0 137 72q15 37 15 170q-18 -33 -50.5 -51t-64.5 -18q-57 0 -91 25l-5 28q39 -33 100 -33q52 0 83 43q27 38 27 92q0 49 -35 82q14 -38 14 -72q0 -45 -33 -78.5t-78 -33.5q-54 0 -78 31t-24 67q0 35 24 58.5t58 23.5q31 0 47 -16.5
t16 -37.5q0 -18 -12 -33t-34 -15q-36 0 -36 41q0 18 4 26q-13 0 -25 -13t-12 -33q0 -27 21 -48.5t48 -21.5q34 0 58.5 28t24.5 62q0 39 -28.5 65.5t-71.5 26.5q-46 0 -88 -30.5t-64 -80.5v-84q0 -105 3 -126q12 -75 62 -100q-23 37 -23 83zM431 691q-55 0 -75.5 -23
t-20.5 -76v-81q37 22 86 22q54 0 98 -18q35 -15 56 -50v131q-1 11 -4 26q-37 69 -140 69z" />
    <glyph glyph-name="odieresis" unicode="&#xf6;" 
d="M764 404q0 -162 -88 -267q-94 -112 -253 -112q-160 0 -253 111q-88 105 -88 268t88 268q93 111 253 111q159 0 253 -112q88 -105 88 -267zM721 664q51 -62 72.5 -126t21.5 -154q0 -172 -103 -287q-108 -120 -278 -120q-161 0 -230 75q-13 14 -24.5 27.5t-17.5 31.5
q114 -113 270 -113q157 0 260 112q99 109 99 268q0 198 -110 315q16 -3 20 -6.5t20 -22.5zM376 1003v-129h-154v129h154zM225 823v21h180v89h21v-110h-201zM593 1003v-129h-155v129h155zM441 823v21h181v89h20v-110h-201zM431 691q-55 0 -75.5 -23t-20.5 -76v-81
q37 22 86 22q54 0 98 -18q35 -15 56 -50v131q-1 11 -4 26q-37 69 -140 69zM312 495v112q0 105 133 105q65 0 115 -40q-28 70 -137 70q-108 0 -137 -71q-16 -38 -16 -170v-47q22 28 42 41zM312 165v241l23 17v-262q0 -50 33 -89q23 -6 55 -6q108 0 137 72q15 37 15 170
q-18 -33 -50.5 -51t-64.5 -18q-57 0 -91 25l-5 28q39 -33 100 -33q52 0 83 43q27 38 27 92q0 49 -35 82q14 -38 14 -72q0 -45 -33 -78.5t-78 -33.5q-54 0 -78 31t-24 67q0 35 24 58.5t58 23.5q31 0 47 -16.5t16 -37.5q0 -18 -12 -33t-34 -15q-36 0 -36 41q0 18 4 26
q-13 0 -25 -13t-12 -33q0 -27 21 -48.5t48 -21.5q34 0 58.5 28t24.5 62q0 39 -28.5 65.5t-71.5 26.5q-46 0 -88 -30.5t-64 -80.5v-84q0 -105 3 -126q12 -75 62 -100q-23 37 -23 83z" />
    <glyph glyph-name="oslash" unicode="&#xf8;" 
d="M791 378q0 94 -18 152.5t-62 114.5l102 116v-33l-75 -84q77 -103 77 -260q0 -172 -103 -287q-108 -120 -278 -120q-137 0 -224 72l-20 -24v32l19 23q88 -82 223 -82q157 0 260 112q99 109 99 268zM123 25h-73l110 124q-78 98 -78 255q0 163 88 268q93 111 253 111
q132 0 225 -84l74 84h74l-111 -124q79 -100 79 -255q0 -162 -88 -267q-94 -112 -253 -112q-116 0 -186 54l-39 30zM335 161q0 -50 33 -89q23 -6 55 -6q108 0 137 72q15 37 15 170v151l-240 -271v-27zM274 194q7 -86 61 -112q-23 37 -23 83v30l263 296v44zM572 613l-1 9
q-37 69 -140 69q-55 0 -75.5 -23t-20.5 -76v-246zM312 320v287q0 105 133 105q65 0 115 -40q-28 70 -137 70q-108 0 -137 -71q-16 -38 -16 -170v-227z" />
    <glyph glyph-name="ugrave" unicode="&#xf9;" horiz-adv-x="844" 
d="M268 642h-70q-30 0 -61 -27v146h313q-124 -80 -160 -182q-26 -73 -26 -249q0 -123 17 -176q31 -96 126 -96q75 0 118 46t43 117v540h282l-138 -119v-475l34 -27v489l100 86v-28l-77 -67v-498l93 -73h-293v55q-66 -79 -166 -79q-141 0 -226 82t-85 223q0 147 118 263
l-10 1q-32 0 -50 -42q-14 14 -12 19q18 44 63 44q18 0 29 -4q15 12 38 31zM573 20h288l25 -20h-288zM424 687q-72 -60 -92 -158q-11 -52 -11 -189q0 -101 2 -131q5 -71 24 -129q-24 11 -32 40q-14 50 -14 218q0 157 13 211q25 103 118 166q0 -21 -8 -28zM541 40q0 -6 -2 -20
q-84 -42 -152 -42q-143 0 -226 112q23 -4 27 -6q33 -39 87 -62.5t108 -23.5q77 0 158 42zM434 1025l101 -151h-122l-165 151h186zM448 844h137l-104 157l52 -37l93 -141h-148z" />
    <glyph glyph-name="uacute" unicode="&#xfa;" horiz-adv-x="844" 
d="M268 642h-70q-30 0 -61 -27v146h313q-124 -80 -160 -182q-26 -73 -26 -249q0 -123 17 -176q31 -96 126 -96q75 0 118 46t43 117v540h282l-138 -119v-475l34 -27v489l100 86v-28l-77 -67v-498l93 -73h-293v55q-66 -79 -166 -79q-141 0 -226 82t-85 223q0 147 118 263
l-10 1q-32 0 -50 -42q-14 14 -12 19q18 44 63 44q18 0 29 -4q15 12 38 31zM573 20h288l25 -20h-288zM424 687q-72 -60 -92 -158q-11 -52 -11 -189q0 -101 2 -131q5 -71 24 -129q-24 11 -32 40q-14 50 -14 218q0 157 13 211q25 103 118 166q0 -21 -8 -28zM541 40q0 -6 -2 -20
q-84 -42 -152 -42q-143 0 -226 112q23 -4 27 -6q33 -39 87 -62.5t108 -23.5q77 0 158 42zM555 874h-121l101 151h186zM460 823l-26 21h127l156 143v-28l-149 -136h-108z" />
    <glyph glyph-name="ucircumflex" unicode="&#xfb;" horiz-adv-x="844" 
d="M268 642h-70q-30 0 -61 -27v146h313q-124 -80 -160 -182q-26 -73 -26 -249q0 -123 17 -176q31 -96 126 -96q75 0 118 46t43 117v540h282l-138 -119v-475l34 -27v489l100 86v-28l-77 -67v-498l93 -73h-293v55q-66 -79 -166 -79q-141 0 -226 82t-85 223q0 147 118 263
l-10 1q-32 0 -50 -42q-14 14 -12 19q18 44 63 44q18 0 29 -4q15 12 38 31zM573 20h288l25 -20h-288zM424 687q-72 -60 -92 -158q-11 -52 -11 -189q0 -101 2 -131q5 -71 24 -129q-24 11 -32 40q-14 50 -14 218q0 157 13 211q25 103 118 166q0 -21 -8 -28zM541 40q0 -6 -2 -20
q-84 -42 -152 -42q-143 0 -226 112q23 -4 27 -6q33 -39 87 -62.5t108 -23.5q77 0 158 42zM572 823l-16 21h162l-120 158l41 -19l122 -160h-189zM472 955l-63 -81h-130l116 153h153l116 -153h-130l-32 42l-73 -93h-126l-16 21h131l69 91z" />
    <glyph glyph-name="udieresis" unicode="&#xfc;" horiz-adv-x="844" 
d="M268 642h-70q-30 0 -61 -27v146h313q-124 -80 -160 -182q-26 -73 -26 -249q0 -123 17 -176q31 -96 126 -96q75 0 118 46t43 117v540h282l-138 -119v-475l34 -27v489l100 86v-28l-77 -67v-498l93 -73h-293v55q-66 -79 -166 -79q-141 0 -226 82t-85 223q0 147 118 263
l-10 1q-32 0 -50 -42q-14 14 -12 19q18 44 63 44q18 0 29 -4q15 12 38 31zM573 20h288l25 -20h-288zM424 687q-72 -60 -92 -158q-11 -52 -11 -189q0 -101 2 -131q5 -71 24 -129q-24 11 -32 40q-14 50 -14 218q0 157 13 211q25 103 118 166q0 -21 -8 -28zM541 40q0 -6 -2 -20
q-84 -42 -152 -42q-143 0 -226 112q23 -4 27 -6q33 -39 87 -62.5t108 -23.5q77 0 158 42zM433 1003v-129h-154v129h154zM282 823v21h180v89h21v-110h-201zM650 1003v-129h-155v129h155zM498 823v21h181v89h20v-110h-201z" />
    <glyph glyph-name="yacute" unicode="&#xfd;" horiz-adv-x="846" 
d="M750 633l102 82v-27l-84 -67l-160 -290l19 -1q-82 -33 -82 -96v-67l149 -118h-443l150 118v22q-27 -9 -71 -9q-81 0 -81 37q35 -15 79 -15q41 0 73 16v30q-37 -25 -92 -25q-48 0 -81 31t-33 78q0 42 27 68q25 23 60 23q29 0 49.5 -19.5t20.5 -51.5q0 -21 -12.5 -35.5
t-30.5 -14.5q-40 0 -40 41q0 26 41 40q-7 12 -25 12q-23 0 -39.5 -17.5t-16.5 -44.5q0 -36 30 -57q26 -19 63 -19q53 0 79 38v56l-190 299l-164 111h479l-146 -108l169 -268l16 27l-149 236l92 67v-25l-64 -48l132 -209l121 221l-136 107h309l-142 -114l-160 -292
q8 -9 20 -16zM719 0h-437l-25 20h437zM655 313q0 -22 -15 -28q-34 -10 -34 -61v-83q-21 3 -21 26v67q0 33 14.5 50t55.5 29zM562 874h-122l101 151h186zM466 823l-26 21h127l156 143v-28l-149 -136h-108z" />
    <glyph glyph-name="ydieresis" unicode="&#xff;" horiz-adv-x="846" 
d="M750 633l102 82v-27l-84 -67l-160 -290l19 -1q-82 -33 -82 -96v-67l149 -118h-443l150 118v22q-27 -9 -71 -9q-81 0 -81 37q35 -15 79 -15q41 0 73 16v30q-37 -25 -92 -25q-48 0 -81 31t-33 78q0 42 27 68q25 23 60 23q29 0 49.5 -19.5t20.5 -51.5q0 -21 -12.5 -35.5
t-30.5 -14.5q-40 0 -40 41q0 26 41 40q-7 12 -25 12q-23 0 -39.5 -17.5t-16.5 -44.5q0 -36 30 -57q26 -19 63 -19q53 0 79 38v56l-190 299l-164 111h479l-146 -108l169 -268l16 27l-149 236l92 67v-25l-64 -48l132 -209l121 221l-136 107h309l-142 -114l-160 -292
q8 -9 20 -16zM719 0h-437l-25 20h437zM655 313q0 -22 -15 -28q-34 -10 -34 -61v-83q-21 3 -21 26v67q0 33 14.5 50t55.5 29zM450 1003v-129h-155v129h155zM298 823v21h181v89h20v-110h-201zM666 1003v-129h-154v129h154zM515 823v21h180v89h21v-110h-201z" />
    <glyph glyph-name="dotlessi" unicode="&#x131;" horiz-adv-x="489" 
d="M506 49h-445l150 118v475l-150 119h432l-138 -119v-475l35 -27v489l99 86v-30l-77 -66v-497zM69 20h436l25 -20h-436z" />
    <glyph glyph-name="OE" unicode="&#x152;" horiz-adv-x="1170" 
d="M878 227l-23 29v255l23 -29v-255zM1031 545l-14 20l89 150l14 -20zM134 124q51 -62 110 -84q51 -20 139 -20h790l-146 255q32 11 32 46q0 25 -15 28v-6q0 -42 -32 -42l-19 3q-7 0 -7 -6q0 -7 11 -26l127 -223h-742q-154 0 -240 102q-81 95 -81 252q0 149 81 250
q87 108 233 108h718l-124 -210q-16 -27 -16 -47t14 -25l-1 16q-2 30 33 30q11 0 18 -6q47 0 47 -54q0 -26 -17.5 -43.5t-49.5 -17.5q-31 0 -52.5 25t-24.5 57q-5 22 -5 45v156h-189v-245l101 128v-286l-62 80h-39v-282h205v246q0 25 17.5 44.5t38.5 19.5q32 0 45 -18
q51 0 51 -58q0 -37 -25 -50l152 -266h-868q-133 0 -204 91q-5 8 -5 20q0 10 1 13zM402 693h59l-36 28h-43q-103 0 -130 -66q-14 -35 -14 -161v-181q0 -99 3 -119q11 -71 58 -95q-21 35 -21 79v417q0 98 124 98zM331 90q25 -5 51 -5h39l104 83v474l-39 32h-96
q-52 0 -71.5 -22t-19.5 -72v-406q0 -46 32 -84zM997 424q17 0 32 12t15 30q0 32 -17 32l1 -12q1 -12 -15.5 -26t-34.5 -14l-19 2q17 -24 38 -24zM728 411h-59v-329h35v301h46zM915 733h-246v-291h35v265h211v26zM704 707v-265h-35v291h246v-26h-211z" />
    <glyph glyph-name="oe" unicode="&#x153;" horiz-adv-x="1170" 
d="M878 227l-23 29v255l23 -29v-255zM1031 545l-14 20l89 150l14 -20zM134 124q51 -62 110 -84q51 -20 139 -20h790l-146 255q32 11 32 46q0 25 -15 28v-6q0 -42 -32 -42l-19 3q-7 0 -7 -6q0 -7 11 -26l127 -223h-742q-154 0 -240 102q-81 95 -81 252q0 149 81 250
q87 108 233 108h718l-124 -210q-16 -27 -16 -47t14 -25l-1 16q-2 30 33 30q11 0 18 -6q47 0 47 -54q0 -26 -17.5 -43.5t-49.5 -17.5q-31 0 -52.5 25t-24.5 57q-5 22 -5 45v156h-189v-245l101 128v-286l-62 80h-39v-282h205v246q0 25 17.5 44.5t38.5 19.5q32 0 45 -18
q51 0 51 -58q0 -37 -25 -50l152 -266h-868q-133 0 -204 91q-5 8 -5 20q0 10 1 13zM402 693h59l-36 28h-43q-103 0 -130 -66q-14 -35 -14 -161v-181q0 -99 3 -119q11 -71 58 -95q-21 35 -21 79v417q0 98 124 98zM331 90q25 -5 51 -5h39l104 83v474l-39 32h-96
q-52 0 -71.5 -22t-19.5 -72v-406q0 -46 32 -84zM997 424q17 0 32 12t15 30q0 32 -17 32l1 -12q1 -12 -15.5 -26t-34.5 -14l-19 2q17 -24 38 -24zM728 411h-59v-329h35v301h46zM915 733h-246v-291h35v265h211v26zM704 707v-265h-35v291h246v-26h-211z" />
    <glyph glyph-name="Ydieresis" unicode="&#x178;" horiz-adv-x="846" 
d="M750 633l102 82v-27l-84 -67l-160 -290l19 -1q-82 -33 -82 -96v-67l149 -118h-443l150 118v22q-27 -9 -71 -9q-81 0 -81 37q35 -15 79 -15q41 0 73 16v30q-37 -25 -92 -25q-48 0 -81 31t-33 78q0 42 27 68q25 23 60 23q29 0 49.5 -19.5t20.5 -51.5q0 -21 -12.5 -35.5
t-30.5 -14.5q-40 0 -40 41q0 26 41 40q-7 12 -25 12q-23 0 -39.5 -17.5t-16.5 -44.5q0 -36 30 -57q26 -19 63 -19q53 0 79 38v56l-190 299l-164 111h479l-146 -108l169 -268l16 27l-149 236l92 67v-25l-64 -48l132 -209l121 221l-136 107h309l-142 -114l-160 -292
q8 -9 20 -16zM719 0h-437l-25 20h437zM655 313q0 -22 -15 -28q-34 -10 -34 -61v-83q-21 3 -21 26v67q0 33 14.5 50t55.5 29zM451 1003v-129h-155v129h155zM299 823v21h181v89h21v-110h-202zM667 1003v-129h-154v129h154zM516 823v21h180v89h21v-110h-201z" />
    <glyph glyph-name="circumflex" unicode="&#x2c6;" horiz-adv-x="503" 
d="M337 823l-16 21h162l-120 158l41 -19l121 -160h-188zM236 955l-62 -81h-130l116 153h153l116 -153h-131l-32 42l-72 -93h-127l-15 21h130l70 91z" />
    <glyph glyph-name="ring" unicode="&#x2da;" horiz-adv-x="293" 
d="M293 982q0 -48 -34 -82t-82 -34t-82 34t-34 82t34 82t82 34q49 0 82.5 -33.5t33.5 -82.5zM176 845q51 0 93.5 33.5t42.5 82.5q0 55 -28 103q23 -4 30 -15q20 -37 20 -87q0 -62 -47.5 -100.5t-110.5 -38.5q-76 0 -103 46q-10 17 -10 49q32 -73 113 -73zM229 982l-2 14
q-10 9 -40 9q-21 0 -21 -20q0 -32 14 -54q21 0 35 15t14 36zM177 1034q-22 0 -37 -15t-15 -37q0 -28 24 -43q-6 18 -6 46q0 17 13 28.5t28 11.5q17 0 27 -3q-15 12 -34 12z" />
    <glyph glyph-name="tilde" unicode="&#x2dc;" horiz-adv-x="410" 
d="M143 848q16 34 52 34q14 0 62 -17.5t69 -17.5q37 0 71.5 26.5t53.5 69.5v-13q0 -50 -52 -84q-35 -23 -71 -23q-29 0 -133 34q-25 0 -41 -30h-74l-6 21h69zM377 1018h72q-8 -63 -41 -102.5t-80 -39.5q-29 0 -82 21t-69 21q-37 0 -44 -40h-72q7 61 41 101.5t79 40.5
q29 0 81 -21.5t71 -21.5q37 0 44 41z" />
    <glyph glyph-name="endash" unicode="&#x2013;" horiz-adv-x="819" 
d="M811 378v-140h-747v140h747zM861 184h-774v18h757v121h17v-139z" />
    <glyph glyph-name="emdash" unicode="&#x2014;" horiz-adv-x="1046" 
d="M1039 378v-140h-975v140h975zM1089 184h-1002v18h985v121h17v-139z" />
    <glyph glyph-name="quoteleft" unicode="&#x2018;" horiz-adv-x="234" 
d="M238 581q31 -24 31 -61q0 -49 -33 -84.5t-82 -35.5q-30 0 -56 18q-22 16 -32 36l-1 25q36 -59 89 -59q40 0 68 30t28 70q0 38 -32 68zM230 520q0 -34 -21 -57.5t-55 -23.5q-41 0 -67 34t-26 82q0 69 36 126q38 62 101 80q1 -5 2 -12q0 -4 -27 -27q-31 -24 -39 -41
q-14 -28 -14 -72q0 -12 12 -12l8 1q0 84 48 106l5 -19q-33 -18 -33 -85q30 0 50 -22t20 -58z" />
    <glyph glyph-name="quoteright" unicode="&#x2019;" horiz-adv-x="234" 
d="M220 733l16 -4t14 -12q25 -30 25 -96q0 -80 -32 -127q-17 -24 -50 -52q-39 -32 -63 -32q-7 0 -20 5q142 66 142 206q0 61 -32 112zM171 591q0 12 -11 12l-27 -3q-31 0 -51.5 22t-20.5 58q0 34 21 57.5t55 23.5q41 0 67 -34t26 -82q0 -69 -36 -126q-38 -62 -101 -80
q-2 10 -2 11q0 6 25 26q30 24 33 28q16 19 20 48l-20 -1q-33 -2 -56 21q-7 7 -7 14q0 3 1 6q32 -20 66 -20l18 2v17z" />
    <glyph glyph-name="quotesinglbase" unicode="&#x201a;" horiz-adv-x="234" 
d="M220 182q16 -4 17 -4q9 -4 14 -11q24 -33 24 -97q0 -139 -100 -191q-36 -19 -45 -19q-7 0 -20 5q142 66 142 205q0 59 -32 112zM171 40q0 12 -11 12l-27 -3q-33 0 -52.5 22.5t-19.5 57.5q0 34 21.5 57.5t54.5 23.5q44 0 70 -37q23 -33 23 -79q0 -67 -36 -126
q-39 -63 -101 -79q-2 10 -2 11q0 6 25 26q30 24 33 28q16 19 20 47l-20 -1q-33 -2 -55 21q-8 8 -8 15q0 4 1 5q32 -20 66 -20l18 2v17z" />
    <glyph glyph-name="quotedblleft" unicode="&#x201c;" horiz-adv-x="486" 
d="M502 581q31 -26 31 -61q0 -47 -34 -83.5t-81 -36.5q-26 0 -52.5 15.5t-35.5 38.5l-2 25q36 -59 90 -59q39 0 67 30t28 70q0 38 -32 68zM493 520q0 -34 -20.5 -57.5t-54.5 -23.5q-41 0 -67.5 33.5t-26.5 82.5q0 69 36 126q38 62 101 80q1 -5 2 -12q0 -4 -27 -27
q-31 -24 -39 -41q-14 -28 -14 -72q0 -12 12 -12l8 1q0 84 48 106l5 -19q-33 -18 -33 -85q30 0 50 -22t20 -58zM269 581q32 -26 32 -61q0 -48 -34.5 -84t-81.5 -36q-30 0 -56 18q-22 16 -32 36l-1 25q36 -59 89 -59q40 0 68 30t28 70q0 38 -32 68zM261 520q0 -34 -21 -57.5
t-55 -23.5q-41 0 -67 34t-26 82q0 69 36 126q38 62 101 80q1 -5 2 -12q0 -4 -27 -27q-31 -24 -39 -41q-14 -28 -14 -72q0 -12 12 -12l8 1q0 84 48 106l5 -19q-33 -18 -33 -85q30 0 50 -22t20 -58z" />
    <glyph glyph-name="quotedblright" unicode="&#x201d;" horiz-adv-x="486" 
d="M472 733l16 -4t14 -12q24 -28 24 -96q0 -139 -100 -192q-36 -19 -44 -19q-7 0 -20 5q142 66 142 206q0 56 -32 112zM423 591q0 12 -12 12l-27 -3q-31 0 -51 22t-20 58q0 34 21 57.5t55 23.5q41 0 67 -34t26 -82q0 -69 -36 -126q-38 -62 -101 -80l-2 12q0 6 20 21
q26 20 36 32q16 20 22 48l-20 -1q-29 -1 -46.5 12t-15.5 29q32 -20 66 -20l18 2v17zM220 733l16 -4t14 -12q25 -30 25 -96q0 -80 -32 -127q-17 -24 -50 -52q-39 -32 -63 -32q-7 0 -20 5q142 66 142 206q0 61 -32 112zM171 591q0 12 -11 12l-27 -3q-31 0 -51.5 22t-20.5 58
q0 34 21 57.5t55 23.5q41 0 67 -34t26 -82q0 -69 -36 -126q-38 -62 -101 -80q-2 10 -2 11q0 6 25 26q30 24 33 28q16 19 20 48l-20 -1q-33 -2 -56 21q-7 7 -7 14q0 3 1 6q32 -20 66 -20l18 2v17z" />
    <glyph glyph-name="quotedblbase" unicode="&#x201e;" horiz-adv-x="486" 
d="M472 182q14 -4 17 -4q8 -4 14 -11q23 -34 23 -97q0 -139 -99 -191q-36 -19 -45 -19q-7 0 -20 5q142 66 142 205q0 56 -32 112zM423 40q0 12 -12 12l-27 -3q-32 0 -51.5 22.5t-19.5 57.5q0 34 21.5 57.5t54.5 23.5q44 0 70 -37q23 -33 23 -79q0 -67 -36 -126
q-39 -63 -101 -79q-1 5 -2 12q0 5 25 25q21 17 32 28q15 20 21 47l-20 -1q-34 -2 -56 22q-7 7 -7 14q0 2 1 5q32 -20 66 -20l18 2v17zM220 182q16 -4 17 -4q9 -4 14 -11q24 -33 24 -97q0 -139 -100 -191q-36 -19 -45 -19q-7 0 -20 5q142 66 142 205q0 59 -32 112zM171 40
q0 12 -11 12l-27 -3q-33 0 -52.5 22.5t-19.5 57.5q0 34 21.5 57.5t54.5 23.5q44 0 70 -37q23 -33 23 -79q0 -67 -36 -126q-39 -63 -101 -79q-2 10 -2 11q0 6 25 26q30 24 33 28q16 19 20 47l-20 -1q-33 -2 -55 21q-8 8 -8 15q0 4 1 5q32 -20 66 -20l18 2v17z" />
    <glyph glyph-name="bullet" unicode="&#x2022;" horiz-adv-x="239" 
d="M231 418q0 -35 -25 -60t-60 -25t-60 25t-25 60t25 60t60 25t60 -25t25 -60zM219 486q21 -2 26 -5q35 -32 35 -88q0 -51 -31 -80t-77 -29q-48 0 -70 16q-18 14 -15 34q37 -28 82 -28q35 0 61.5 25t26.5 62q0 30 -9 50q-7 15 -29 43z" />
    <glyph glyph-name="guilsinglleft" unicode="&#x2039;" horiz-adv-x="444" 
d="M310 64q0 -16 -11 -16q-10 0 -10 16v71q0 77 51 77q2 -2 8 -8.5l6 -6.5q-29 -4 -38 -20q-6 -11 -6 -45v-68zM67 275q0 20 14 43t14 31q0 42 35 42q22 0 22 -25q1 -13 25 -26q17 -8 34 -17t35 -24q-9 34 -36 48q-22 12 -22 40q0 14 26 65.5t26 73.5q0 9 -11 24t-11 26
q0 29 43 29l18 -2q9 3 20 3q37 0 37 -33q0 -9 -10 -26t-10 -21q0 -14 28.5 -54.5t28.5 -53.5q0 -38 -16 -38q-7 0 -6 7l2 31q0 6 -28 46.5t-28 63.5q0 11 10 26.5l10 15.5q0 18 -15 20l3 -14q0 -11 -11.5 -26.5t-11.5 -23.5q0 -27 26.5 -75t26.5 -64q0 -27 -22 -39
q-27 -14 -36 -49q24 18 32 23q13 8 36 17.5t25 26.5q0 25 23 25q13 0 23 -9h11q35 0 35 -36q0 -19 -6 -28q34 -15 34 -56q0 -39 -21.5 -61.5t-56.5 -22.5q-20 0 -33.5 6.5t-25.5 26.5q28 -13 53 -13q63 0 63 71q0 18 -19 34q5 -15 5 -28q0 -26 -19.5 -47t-45.5 -21
q-21 0 -21 13q3 15 3 19q0 20 -29 20q-70 0 -70 -100v-73q0 -16 -12 -16q-11 0 -11 16v73q-12 53 -46 53q-8 0 -8 -17t-8.5 -24t-40.5 -7q-34 0 -56 28.5t-22 65.5zM427 349q0 -10 11 -28q3 6 3 21q0 21 -12 21zM179 259q-29 0 -29 -20q3 -10 3 -19q0 -13 -20 -13
q-15 0 -35 12q16 -35 57 -35q19 0 18 13l-1 16q-1 21 28 21q20 0 35 -9q-18 34 -56 34z" />
    <glyph glyph-name="guilsinglright" unicode="&#x203a;" horiz-adv-x="861" 
d="M634 612q-32 -8 -53 -77l-16 11q18 76 70 88q2 -10 2 -13q0 -7 -3 -9zM167 335q-18 -29 -47 -29q-21 0 -36.5 19.5t-15.5 42.5q-4 7 -4 14q0 20 12 34t27 14q8 0 25 -15t24 -15q38 0 71.5 34t33.5 72q-22 16 -22 27q0 35 38 35l7 -1q11 6 16 6q51 0 51 -48q0 -11 -15 -36
q7 -47 40 -70q37 -7 76 -7q20 0 58 5q-22 17 -46 52q-17 -8 -29 -10q-9 -3 -20 14q13 4 36 17q-16 22 -20 22q-2 0 -11 -3t-13 -3q-14 0 -14 30q0 48 35 45l26 -2q2 8 17.5 36t15.5 33q0 2 -10.5 12t-10.5 14q0 10 11 18.5t28 8.5q26 0 54 -40q25 16 43 16q16 0 35 -14
q-54 -18 -75 -49q-19 -27 -19 -78q0 -78 57 -106q-32 50 -32 98q20 -8 20 -15q0 -38 50 -95l21 -1q46 -2 76 63q19 -35 34.5 -49t46.5 -20q16 23 33 23q16 0 19 -4q41 -8 41 -42q0 -23 -12.5 -36.5t-29.5 -13.5l-29 3q-36 0 -63 -44q-4 -6 -26 -6q16 34 44 54q25 18 48 18
l26 -3q8 0 15 8t7 15q0 20 -12 21q0 -12 -10 -22t-21 -10q-8 0 -25 17q-38 -11 -52 -22t-31 -44q-28 36 -37 44q-19 16 -46 16q-45 0 -77 -36t-32 -82q0 -59 39 -92q-8 26 -8 69q0 47 26.5 78t63.5 31q45 0 65 -35q-13 0 -29.5 8t-35.5 8q-31 0 -50.5 -28t-19.5 -60
q0 -55 17 -90q17 -9 17 -19q0 -14 -21 -14q-9 0 -25 7t-17 7q-20 -28 -26 -33q-14 -11 -41 -11q-8 0 -8 8q0 5 4 20t4 16l-21 27q-15 -6 -32 -6t-30.5 15t-13.5 33q0 13 6 23q-1 2 -5 23q0 9 7.5 18.5t13.5 9.5q12 -4 17 -4q16 0 26 22l15 32q-22 3 -39 3q-92 1 -118 -66
q24 -16 24 -43q0 -21 -16.5 -35.5t-38.5 -14.5q-20 0 -36 14t-16 30q0 13 4 20q-2 2 -2 10q0 18 22 30l-3 11q-51 48 -94 48zM515 376l-62 2q-83 3 -122 -24q-33 -23 -48 -76l16 -15q21 51 53.5 69.5t98.5 16.5l38 -1q11 18 26 28zM452 205l-17 -2l-12 3q0 -29 27 -29l14 3z
M311 492q0 5 7 18t7 16q0 24 -23 24q-2 0 -6 -2l1 -6q0 -10 -9.5 -25.5l-9.5 -15.5q6 -46 50 -69q-17 34 -17 60zM305 247q0 -13 -8.5 -23.5t-19.5 -10.5l-15 3q0 -23 28 -23q34 0 34 31q0 21 -20 30zM119 331q28 0 36 27q45 0 86 -28q-31 51 -90 51q-4 0 -19 -15.5
t-31 -15.5h-6q6 -19 24 -19z" />
    <glyph glyph-name="trademark" unicode="&#x2122;" horiz-adv-x="809" 
d="M161 738q-33 0 -49 -11.5t-35 -45.5l-16 2l4 78h339l5 -78l-17 -2q-18 33 -34.5 45t-48.5 12h-45v-249q0 -54 49 -58v-24h-155v24q48 5 48 58v249h-45zM806 740q-29 -8 -27 -33l2 -23l26 -190q5 -33 9 -41q8 -13 34 -22v-24h-143v24q45 9 45 51v12l-24 170l-51 -105
q-24 -50 -34 -74q-12 -29 -18 -78h-27q0 25 -35 105l-69 157l-21 -182q-2 -17 -2 -19q0 -20 38 -37v-24h-108v24q39 11 46 72l18 167q3 14 3 26q0 40 -39 44v21h95l12 -44q3 -11 27 -71q13 -31 60 -137q38 78 47 99q30 66 35 101q6 39 6 52h95v-21z" />
    <glyph glyph-name="radical" unicode="&#x221a;" horiz-adv-x="413" 
d="M216 772l-16 21h139l115 152v-36l-104 -137h-134zM316 976h131l-116 -153h-154l-116 153h131l62 -82l14 20l-38 51l35 -13l16 -21z" />
    <glyph glyph-name="fl" unicode="&#xf002;" horiz-adv-x="915" 
d="M649 520l35 -225l4 -2l3 -12l-153 -35l-2 11l22 41l-75 95l12 -138l4 -15l-244 -31l-2 14l36 41l-4 37l-55 -7q-29 -86 -76 -138q-25 -28 -45 -28q76 81 106 183l68 7l-3 25l-76 -8q-39 -136 -109 -185l-12 12q22 48 41.5 116.5t15.5 144.5l-3 61l-21 -1q8 -16 8 -24
q0 -31 -34 -31q-12 0 -20.5 10.5t-8.5 24.5q0 44 59 48l211 16q26 2 42 -4q8 4 27 10l122 19l3 -12l-26 -39l114 -145l-9 60l-70 88l27 41l-5 4l-3 12l223 61q11 3 20 3q49 0 90 -63q37 -56 37 -108q0 -43 -24.5 -79.5t-63.5 -49.5l-127 -41l-3 13l29 42l-54 202l-7 2z
M611 193q0 -3 5.5 -11.5t5.5 -10.5q0 -25 -29 -25q-13 0 -28.5 7.5t-19.5 7.5q-11 0 -31 -10t-28 -21q-26 7 -26 35q0 13 5 30l-115 -18q-53 -8 -95 -38q-51 -36 -51 -85q0 -35 21.5 -61.5t57.5 -26.5q20 0 39.5 17t19.5 37q0 17 -9 32t-17 15t-10 -5q6 -13 6 -23
q0 -6 -7.5 -12.5t-16.5 -6.5q-25 0 -25 21q0 47 43 47q28 0 43 -19t15 -47q0 -32 -25.5 -55t-57.5 -23q-44 0 -71.5 32t-27.5 76q0 63 57 103q45 33 115 43l161 24q-36 -36 -36 -50q0 -3 6 -11q8 7 18 7q29 0 36.5 30.5t20.5 30.5q4 0 4 -5q-3 -12 -3 -23q0 -33 13 -33
q19 0 36.5 39.5t34.5 44.5l124 35q86 24 126 60.5t40 94.5q0 33 -22 85q-26 60 -54 60q-23 20 -23 31q0 4 2 16t2 14l-2 8q-61 -26 -101 -26q-62 0 -92 47q-34 19 -79 19q-22 0 -46 -18t-24 -39q0 -10 7 -11q12 22 25 22q22 0 22 -24q0 -35 -36 -35q-16 0 -26.5 13.5
t-10.5 33.5q0 31 26.5 54.5t57.5 23.5q42 0 69 -11q-4 12 -4 33q0 36 23 57t59 21q30 0 55 -20t25 -44q0 -19 -17 -37q-20 -20 -48 -20q-21 0 -34 11.5t-13 29.5q0 34 31 34q21 0 21 -21q0 -5 -3.5 -14.5t-3.5 -10.5q0 -6 4 -10q31 5 31 36q0 44 -45 44q-60 0 -60 -64
q0 -35 34 -59q30 -22 66 -22q30 0 50.5 22.5t30.5 22.5q14 0 24 -16t10 -31q0 -10 -8 -24q40 -22 68.5 -75t28.5 -101q0 -129 -172 -177l-126 -35q-46 -13 -46 -42zM463 417l-21 27l15 -155l21 -17zM232 385l14 85l17 2l-2 21l-30 -3q-5 -50 -15 -107zM260 452l-9 -64l23 2
l-8 62h-6zM372 450l23 42l-21 19l-28 -50l23 -189l22 -18zM390 446l18 -197l25 34l-17 191l-8 6zM554 506l45 -56l-12 76l-13 10zM788 555l46 -173q4 -14 -11 -23l-56 208q23 9 32 10q-11 17 -30 17q-6 0 -17 -3l-14 -4l65 -244q50 17 50 55q0 8 -3 19l-23 86q-4 18 -20 60z
M631 523l27 26l-23 9l-25 -24l35 -217l20 -11z" />
    <glyph glyph-name="glyph187" horiz-adv-x="302" 
 />
  </font>
</defs>
</svg>
